<?xml version="1.0" encoding="UTF-8"?>
<svg id="a" data-name="3219" xmlns="http://www.w3.org/2000/svg" viewBox="0 0 48 48">
  <path d="M34.07.04H5.48v12.34h-2.79C1.18,12.38-.06,13.62-.06,15.13v21.02c0,1.52,1.23,2.75,2.75,2.75h2.79v9.14h37.11V10.6L34.07.04ZM39.51,10.76h-6.85c-.44,0-.8-.36-.8-.8V2.54h1.01l6.63,8.22ZM2.45,36.15V15.13c0-.14.11-.25.25-.25h22.88c.14,0,.25.11.25.25v21.27H2.7c-.14,0-.25-.11-.25-.25ZM7.98,45.54v-6.63h20.35V15.13c0-1.52-1.23-2.75-2.75-2.75H7.98V2.54h21.38v7.43c0,1.82,1.48,3.3,3.3,3.3h7.43v32.27H7.98ZM16.46,19.84h3.66v12.43h-3.91l-4.13-7.41v7.41h-3.66v-12.43h3.93l4.11,7.37v-7.37Z" fill="#1d1d1b"/>
</svg>