<?xml version="1.0" encoding="UTF-8"?>
<svg id="a" data-name="3219" xmlns="http://www.w3.org/2000/svg" viewBox="0 0 64 64">
  <path d="M45.48.01H7.41v16.8H2.88C1.3,16.81,0,18.1,0,19.69v29c0,1.58,1.29,2.88,2.88,2.88h4.53v12.51h49.38V14.04L45.48.01ZM2.76,48.69v-29c0-.07.06-.12.12-.12h31.49c.07,0,.12.06.12.12v29.12H2.88c-.07,0-.12-.05-.12-.12ZM43.73,15.84c-1.52,0-2.76-1.24-2.76-2.76V1.39l12.45,14.45h-9.69ZM21.5,26.47h4.87v16.56h-5.21l-5.5-9.87v9.87h-4.87v-16.56h5.23l5.47,9.82v-9.82Z" fill="#1d1d1b"/>
</svg>