<?xml version="1.0" encoding="UTF-8"?>
<svg id="a" data-name="3219" xmlns="http://www.w3.org/2000/svg" viewBox="0 0 16 16">
  <path d="M11.43,0H1.8v3.87C.77,4.08,0,4.99,0,6.08v5.01c0,1.09.78,2,1.81,2.21v2.7h12.53V3.59l-2.9-3.59ZM10.91,1.75l1.34,1.67h-1.34v-1.67ZM1.5,11.09v-5.01c0-.41.34-.75.75-.75h5.64c.41,0,.75.34.75.75v5.76H2.25c-.41,0-.75-.34-.75-.75ZM3.31,14.5v-1.15h6.83v-7.27c0-1.24-1.01-2.26-2.26-2.26H3.31V1.5h6.1v2.16c0,.69.56,1.25,1.25,1.25h2.16v9.58H3.31ZM4.32,10.8h-1.22v-4.15h1.31l1.37,2.46v-2.46h1.22v4.15h-1.3l-1.38-2.47v2.47Z" fill="#1d1d1b"/>
</svg>