<?xml version="1.0" encoding="UTF-8"?>
<svg id="a" data-name="3219" xmlns="http://www.w3.org/2000/svg" viewBox="0 0 40 40">
  <path d="M29.64-.05H5.81v10.25h-3.17C1.2,10.21.02,11.38.02,12.83v17c0,1.45,1.18,2.62,2.62,2.62h3.17v7.46h30.93V8.76L29.64-.05ZM2.27,29.83V12.83c0-.21.17-.38.38-.38h18.56c.21,0,.38.17.38.38v17.38H2.65c-.21,0-.38-.17-.38-.38ZM28.43,9.97c-.94,0-1.7-.76-1.7-1.7V1.08l7.39,8.89h-5.69ZM13.72,16.51h3.04v10.35h-3.25l-3.43-6.17v6.17h-3.04v-10.35h3.27l3.42,6.13v-6.13Z" fill="#1d1d1b"/>
</svg>