<?xml version="1.0" encoding="UTF-8"?>
<svg id="a" data-name="3219" xmlns="http://www.w3.org/2000/svg" viewBox="0 0 48 48">
  <path d="M35.96,11.86c.61.61.95,1.43.95,2.3s-.34,1.68-.95,2.3c-1.23,1.23-3.37,1.23-4.6,0s-1.27-3.33,0-4.6c.63-.63,1.47-.95,2.3-.95s1.66.32,2.3.95ZM48.01,9.23l-1.23,12.67-.32.32-23.9,23.96c-1.09,1.09-2.53,1.69-4.07,1.69s-2.98-.6-4.07-1.69L1.69,33.41c-2.24-2.25-2.24-5.91,0-8.16L25.91.98,38.67-.13l9.34,9.36ZM39.41,14.16c0-1.54-.6-2.98-1.68-4.07-2.24-2.24-5.89-2.24-8.13,0-2.24,2.24-2.24,5.89,0,8.13,1.09,1.09,2.53,1.68,4.07,1.68s2.98-.6,4.07-1.68c1.09-1.09,1.68-2.53,1.68-4.07Z" fill="#1e1e1c"/>
</svg>