<?xml version="1.0" encoding="UTF-8"?>
<svg id="a" data-name="3219" xmlns="http://www.w3.org/2000/svg" viewBox="0 0 64 64">
  <path d="M51.7-.09l-16.77,1.46L2.13,34.24c-2.88,2.88-2.88,7.58,0,10.47l16.99,17.03c1.39,1.4,3.25,2.17,5.22,2.17s3.83-.77,5.22-2.17L62.35,28.86l1.62-16.66L51.7-.09ZM50.34,23.89h0c-1.44,1.44-3.33,2.16-5.21,2.16s-3.78-.72-5.21-2.16c-1.39-1.39-2.16-3.25-2.16-5.22s.77-3.82,2.16-5.21c1.39-1.39,3.24-2.16,5.21-2.16s3.82.77,5.22,2.16c2.88,2.88,2.88,7.55,0,10.43ZM48.39,15.4c1.8,1.8,1.8,4.74,0,6.54-1.8,1.8-4.74,1.8-6.54,0-.87-.87-1.36-2.04-1.36-3.27s.48-2.4,1.36-3.27,2.03-1.35,3.27-1.35,2.4.48,3.27,1.36Z" fill="#1e1e1c"/>
</svg>