<?xml version="1.0" encoding="UTF-8"?>
<svg id="a" data-name="3219" xmlns="http://www.w3.org/2000/svg" viewBox="0 0 16 16">
  <path d="M12.68,0l-4.52.39L.67,7.91c-.88.88-.88,2.31,0,3.19l4.24,4.25c.42.43.99.66,1.59.66s1.17-.23,1.59-.66l7.49-7.51.44-4.5L12.68,0ZM14.14,7.16l-7.11,7.12c-.29.29-.77.29-1.06,0L1.73,10.04c-.29-.29-.29-.77,0-1.06L8.83,1.85l3.28-.28,2.34,2.34-.32,3.25ZM9.3,3.51c-.42.43-.66.99-.66,1.59s.23,1.17.66,1.59.99.66,1.59.66,1.17-.23,1.59-.66.66-.99.66-1.59-.23-1.17-.66-1.59c-.85-.85-2.33-.85-3.18,0ZM11.64,5.1c0,.2-.08.39-.22.53h0c-.28.28-.78.28-1.06,0-.14-.14-.22-.33-.22-.53s.08-.39.22-.53.33-.22.53-.22.39.08.53.22c.14.14.22.33.22.53Z" fill="#1e1e1c"/>
</svg>