<?xml version="1.0" encoding="UTF-8"?>
<svg id="a" data-name="3219" xmlns="http://www.w3.org/2000/svg" viewBox="0 0 16 16">
  <path d="M11.84,4.16c.19.19.29.44.29.71s-.1.52-.29.71c-.38.38-1.04.38-1.41,0-.19-.19-.29-.44-.29-.71s.1-.52.29-.71.44-.29.71-.29.52.1.71.29ZM16.01,3.35l-.44,4.5-7.49,7.51c-.42.43-.99.66-1.59.66s-1.17-.23-1.59-.66L.67,11.1c-.88-.88-.88-2.31,0-3.19L8.16.4,12.68,0l3.33,3.34ZM13.64,4.86c0-.67-.26-1.29-.73-1.77-.95-.95-2.59-.95-3.54,0-.47.47-.73,1.1-.73,1.77s.26,1.3.73,1.77c.47.47,1.1.73,1.77.73s1.29-.26,1.77-.73c.47-.47.73-1.1.73-1.77Z" fill="#1e1e1c"/>
</svg>