<?xml version="1.0" encoding="UTF-8"?>
<svg id="a" data-name="3219" xmlns="http://www.w3.org/2000/svg" viewBox="0 0 32 32">
  <path d="M23.68,8.24c.78.78.78,2.05,0,2.83-.78.78-2.05.78-2.83,0-.78-.78-.78-2.05,0-2.83.39-.39.9-.58,1.42-.58s1.02.19,1.41.58ZM32,6.31l-.83,8.58-15.85,15.89c-.78.78-1.8,1.17-2.83,1.17s-2.05-.39-2.83-1.17L1.17,22.28c-1.56-1.56-1.56-4.11,0-5.67L17.03.71,25.67-.04l6.33,6.35ZM25.09,6.82c-1.56-1.56-4.1-1.56-5.66,0-1.56,1.56-1.56,4.1,0,5.66.78.78,1.8,1.17,2.83,1.17s2.05-.39,2.83-1.17c1.56-1.56,1.56-4.1,0-5.66Z" fill="#1e1e1c"/>
</svg>