<?xml version="1.0" encoding="UTF-8"?>
<svg id="a" data-name="3219" xmlns="http://www.w3.org/2000/svg" viewBox="0 0 24 24">
  <path d="M17.59,6.41c.26.26.4.6.4.97s-.14.71-.4.97h0c-.52.52-1.42.52-1.94,0-.26-.26-.4-.6-.4-.97s.14-.71.4-.97c.26-.26.6-.4.97-.4s.71.14.97.4ZM24.03,4.84l-.63,6.53-11.69,11.72c-.61.61-1.41.91-2.21.91s-1.6-.3-2.21-.91h0L.94,16.71c-1.22-1.22-1.21-3.21,0-4.42L12.64.57,19.21,0l4.83,4.84ZM19.75,7.38c0-.83-.33-1.62-.92-2.21-1.18-1.18-3.24-1.18-4.42,0-.59.59-.92,1.38-.92,2.21s.33,1.62.92,2.21c.59.59,1.38.92,2.21.92s1.62-.33,2.21-.92c.59-.59.92-1.38.92-2.21Z" fill="#1e1e1c"/>
</svg>