<svg xmlns="http://www.w3.org/2000/svg" viewBox="0 0 32 32" width="32" height="32">
	<path fill="#FCCA00" d="M32 0H0V32H32V0Z" />
	<path fill="#FCFCFC" d="M12.6646 24.346L13.6649 19.5886H4.35286L3.3537 24.346H12.6646Z" />
	<path fill="black" d="M11.4981 11.2275C11.2483 11.1878 10.8926 11.1619 10.5374 11.1619H7.86677L5.76132 21.0825H7.86677L8.5108 18.0567H9.73508C10.3791 18.0567 10.8005 17.9893 11.2098 17.8695C12.7223 17.4019 13.6962 16.1216 13.9195 14.7613C14.2494 12.9074 13.3284 11.5345 11.4981 11.2275ZM11.8141 14.6554C11.6828 15.4818 11.1297 15.9886 10.4195 16.1625C10.2479 16.2017 9.9313 16.2287 9.74835 16.2287H8.89243L9.57679 12.9875H10.4977C10.7607 12.9875 10.9588 13.0146 11.1165 13.0675C11.6425 13.2415 11.9591 13.7621 11.8141 14.6554Z" />
	<path fill="#FF000B" d="M23.3941 11.1408C23.3941 11.1408 24.6443 5.17597 24.6503 5.14285H16.6955C16.6919 5.16394 15.0427 12.9652 15.0355 12.9971H17.0049C17.0091 12.9773 18.2725 7.00035 18.2725 7.00035H22.2908C22.2908 7.00035 21.0292 12.9652 21.022 12.9971H26.9875L26.196 16.7482H20.2612C20.2564 16.7711 19.0755 22.3573 19.0755 22.3573H14.5786C14.575 22.3796 14.1946 24.21 14.188 24.2419H20.6549C20.6591 24.2196 21.846 18.6189 21.846 18.6189H27.7585C27.7634 18.5978 29.3343 11.1727 29.341 11.1408L23.3941 11.1408Z" />
</svg>
