<?xml version="1.0" encoding="UTF-8"?>
<svg id="a" data-name="3219" xmlns="http://www.w3.org/2000/svg" viewBox="0 0 16 16">
  <path d="M13.75,0H2.25C1.01,0,0,1.01,0,2.25v13.75h16V2.25c0-1.24-1.01-2.25-2.25-2.25ZM2.25,1.5h11.5c.41,0,.75.34.75.75v2.5H1.5v-2.5c0-.41.34-.75.75-.75ZM1.5,14.5V6.25h13v8.25H1.5ZM2.25,3.14c0-.49.4-.89.89-.89s.89.4.89.89-.4.89-.89.89-.89-.4-.89-.89ZM4.75,3.14c0-.49.4-.89.89-.89s.89.4.89.89-.4.89-.89.89-.89-.4-.89-.89ZM3.89,10.45l7.16-3.31-3.31,7.16-.07-3.78-3.78-.07Z" fill="#1e1e1c"/>
</svg>