<?xml version="1.0" encoding="UTF-8"?>
<svg id="a" data-name="3219" xmlns="http://www.w3.org/2000/svg" viewBox="0 0 40 40">
  <path d="M40,8.83V2.55c0-1.45-1.18-2.62-2.63-2.62H2.62C1.17-.08,0,1.1,0,2.55v6.28h40ZM9.85,3.54c.82,0,1.48.66,1.48,1.48s-.67,1.48-1.48,1.48-1.48-.66-1.48-1.48.67-1.48,1.48-1.48ZM5.48,3.54c.82,0,1.48.66,1.48,1.48s-.67,1.48-1.48,1.48-1.48-.66-1.48-1.48.67-1.48,1.48-1.48ZM0,11.08v28.85h40V11.08H0ZM20.25,35.2l-.19-10.56-10.57-.19,20.01-9.24-9.25,19.99Z" fill="#1e1e1c"/>
</svg>