<?xml version="1.0" encoding="UTF-8"?>
<svg id="a" data-name="3219" xmlns="http://www.w3.org/2000/svg" viewBox="0 0 40 40">
  <path d="M37.37-.02H2.63C1.18-.02,0,1.16,0,2.6v37.38h40V2.6c0-1.45-1.18-2.62-2.63-2.62ZM2.63,2.23h34.75c.21,0,.38.17.38.37v6.28H2.25V2.6c0-.21.17-.37.38-.37ZM2.25,37.73V11.13h35.5v26.6H2.25ZM4.5,5.58c0-.82.67-1.48,1.48-1.48s1.48.66,1.48,1.48-.67,1.48-1.48,1.48-1.48-.66-1.48-1.48ZM8.87,5.58c0-.82.67-1.48,1.48-1.48s1.48.66,1.48,1.48-.67,1.48-1.48,1.48-1.48-.66-1.48-1.48ZM19.35,24.72l.22,12.27,10.74-23.22L7.07,24.5l12.28.22ZM21.64,27.14l-.08-4.63-4.63-.08,8.77-4.05-4.06,8.76Z" fill="#1e1e1c"/>
</svg>