<?xml version="1.0" encoding="UTF-8"?>
<svg id="a" data-name="3219" xmlns="http://www.w3.org/2000/svg" viewBox="0 0 32 32">
  <path d="M2.42,5.22C2.42,2.33,4.76-.02,7.65-.02,10.18-.02,12.3,1.8,12.77,4.22c.06.33.1.66.1,1,0,2.89-2.34,5.24-5.23,5.24-.32,0-.64-.04-.94-.1-.11-.02-.22-.05-.32-.08-.19-.05-.37-.1-.55-.17-.13-.05-.25-.1-.37-.15-.15-.07-.29-.15-.44-.24-1.54-.91-2.6-2.58-2.6-4.5ZM31.94,12.56l-.82,6.56c-.08.65-.58,1.16-1.21,1.27l-1.1.44c-1.4.23-3.72.23-6.88-1.13-.5-.22-1.09.02-1.31.53-.22.51.02,1.1.52,1.31,1.86.8,3.49,1.18,4.87,1.33-.19.33-.38.66-.6.98l1.76,3.3c.26.46.31,1.03.13,1.58-.2.6-.66,1.09-1.27,1.35l-4.02,1.71c-.3.13-.6.19-.9.19-.74,0-1.42-.36-1.79-1l-1.08-2.01c-2.15.58-4.39.56-6.53-.04l-1.03,2.02c-.53.94-1.69,1.29-2.71.85l-4.02-1.72c-.6-.26-1.07-.75-1.27-1.35-.18-.54-.13-1.11.14-1.6l1.76-3.45c-1.04-1.58-1.7-3.33-1.97-5.18-.16.04-.33.07-.49.07-.64,0-1.24-.33-1.64-.92-.36-.53-.54-1.22-.54-2.05,0-.55.45-1,1-1s1,.45,1,1c0,.68.19.94.24.97,0-.04.22-.34.22-.99,0-.22.08-.4.2-.57.17-1.32.54-2.59,1.08-3.75,1.14.75,2.5,1.2,3.96,1.2.04,0,.07,0,.11,0-.18.34-.33.71-.45,1.09-.16.53.14,1.09.66,1.25.1.03.19.04.29.04.43,0,.82-.28.96-.71.73-2.41,3.28-3.78,5.68-3.04.53.16,1.08-.14,1.25-.67.16-.53-.14-1.09-.66-1.25-.54-.17-1.09-.25-1.63-.27.64-1.08,1.01-2.34,1.01-3.68,0-.44-.05-.87-.12-1.28.1,0,.2-.02.31-.02.49,0,1,.04,1.56.11L21.66.31c.38-.34.99-.42,1.52-.18.53.24.86.76.86,1.34v6.28c.91.94,1.66,2,2.24,3.16h4.21c.42,0,.82.18,1.1.5.28.32.41.74.36,1.15ZM23.19,13.37c0-.97-.78-1.75-1.75-1.75s-1.75.79-1.75,1.75.78,1.75,1.75,1.75,1.75-.79,1.75-1.75Z" fill="#1e1e1c"/>
</svg>