<?xml version="1.0" encoding="UTF-8"?>
<svg id="_x33_219" xmlns="http://www.w3.org/2000/svg" version="1.1" viewBox="0 0 64 64">
  <!-- Generator: Adobe Illustrator 29.0.1, SVG Export Plug-In . SVG Version: 2.1.0 Build 192)  -->
  <defs>
    <style>
      .st0 {
        fill: #1e1e1c;
      }
    </style>
  </defs>
  <path class="st0" d="M32,0C14.36,0,0,14.35,0,32s14.36,32,32,32,32-14.36,32-32S49.64,0,32,0ZM32,61.25c-16.13,0-29.25-13.12-29.25-29.25S15.87,2.75,32,2.75s29.25,13.12,29.25,29.25-13.12,29.25-29.25,29.25ZM36.64,23.84c0-4.67,2.36-8.45,5.28-8.45s5.28,3.78,5.28,8.45-2.36,8.45-5.28,8.45-5.28-3.78-5.28-8.45ZM17.83,23.84c0-4.67,2.36-8.45,5.28-8.45s5.28,3.78,5.28,8.45-2.36,8.45-5.28,8.45-5.28-3.78-5.28-8.45ZM48.57,42.41c0,.76-.62,1.38-1.38,1.38h-29.4c-.76,0-1.38-.62-1.38-1.38s.62-1.38,1.38-1.38h29.4c.76,0,1.38.62,1.38,1.38Z"/>
</svg>