<?xml version="1.0" encoding="UTF-8"?>
<svg id="_x33_219" xmlns="http://www.w3.org/2000/svg" version="1.1" viewBox="0 0 64 64">
  <!-- Generator: Adobe Illustrator 29.0.1, SVG Export Plug-In . SVG Version: 2.1.0 Build 192)  -->
  <defs>
    <style>
      .st0 {
        fill: #1e1e1c;
      }
    </style>
  </defs>
  <path class="st0" d="M32,0C14.36,0,0,14.35,0,32s14.36,32,32,32,32-14.36,32-32S49.64,0,32,0ZM41.92,15.4c2.92,0,5.28,3.78,5.28,8.45s-2.36,8.45-5.28,8.45-5.28-3.78-5.28-8.45,2.36-8.45,5.28-8.45ZM23.12,15.4c2.92,0,5.28,3.78,5.28,8.45s-2.36,8.45-5.28,8.45-5.28-3.78-5.28-8.45,2.36-8.45,5.28-8.45ZM47.19,43.79h-29.38c-.76,0-1.38-.62-1.38-1.38s.62-1.38,1.38-1.38h29.38c.76,0,1.38.62,1.38,1.38s-.62,1.38-1.38,1.38Z"/>
</svg>