<?xml version="1.0" encoding="UTF-8"?>
<svg id="_x33_219" xmlns="http://www.w3.org/2000/svg" version="1.1" viewBox="0 0 40 40">
  <!-- Generator: Adobe Illustrator 29.0.1, SVG Export Plug-In . SVG Version: 2.1.0 Build 192)  -->
  <defs>
    <style>
      .st0 {
        fill: #1e1e1c;
      }
    </style>
  </defs>
  <path class="st0" d="M20-.06C8.97-.06,0,8.92,0,19.94s8.97,20,20,20,20-8.97,20-20S31.03-.06,20-.06ZM26.11,9.72c1.8,0,3.25,2.33,3.25,5.2s-1.46,5.2-3.25,5.2-3.25-2.33-3.25-5.2,1.46-5.2,3.25-5.2ZM14.53,9.72c1.8,0,3.25,2.33,3.25,5.2s-1.46,5.2-3.25,5.2-3.25-2.33-3.25-5.2,1.46-5.2,3.25-5.2ZM29.2,27.63H10.8c-.62,0-1.12-.5-1.12-1.12s.5-1.12,1.12-1.12h18.41c.62,0,1.12.5,1.12,1.12s-.5,1.12-1.12,1.12Z"/>
</svg>