<?xml version="1.0" encoding="UTF-8"?>
<svg id="_x33_219" xmlns="http://www.w3.org/2000/svg" version="1.1" viewBox="0 0 40 40">
  <!-- Generator: Adobe Illustrator 29.0.1, SVG Export Plug-In . SVG Version: 2.1.0 Build 192)  -->
  <defs>
    <style>
      .st0 {
        fill: #1e1e1c;
      }
    </style>
  </defs>
  <path class="st0" d="M20,0C8.97,0,0,8.97,0,20s8.97,20,20,20,20-8.97,20-20S31.03,0,20,0ZM20,37.75c-9.79,0-17.75-7.96-17.75-17.75S10.21,2.25,20,2.25s17.75,7.96,17.75,17.75-7.96,17.75-17.75,17.75ZM22.86,14.97c0-2.88,1.46-5.21,3.25-5.21s3.25,2.33,3.25,5.21-1.46,5.21-3.25,5.21-3.25-2.33-3.25-5.21ZM11.27,14.97c0-2.88,1.46-5.21,3.25-5.21s3.25,2.33,3.25,5.21-1.46,5.21-3.25,5.21-3.25-2.33-3.25-5.21ZM30.34,26.57c0,.62-.5,1.13-1.13,1.13H10.79c-.62,0-1.13-.5-1.13-1.13s.5-1.13,1.13-1.13h18.43c.62,0,1.13.5,1.13,1.13Z"/>
</svg>