<?xml version="1.0" encoding="UTF-8"?>
<svg id="_x33_219" xmlns="http://www.w3.org/2000/svg" version="1.1" viewBox="0 0 24 24">
  <!-- Generator: Adobe Illustrator 29.0.1, SVG Export Plug-In . SVG Version: 2.1.0 Build 192)  -->
  <defs>
    <style>
      .st0 {
        fill: #1e1e1c;
      }
    </style>
  </defs>
  <path class="st0" d="M12,0C5.38,0,0,5.38,0,12s5.38,12,12,12,12-5.38,12-12S18.62,0,12,0ZM12,22.25c-5.65,0-10.25-4.6-10.25-10.25S6.35,1.75,12,1.75s10.25,4.6,10.25,10.25-4.6,10.25-10.25,10.25ZM13.69,9.04c0-1.7.86-3.07,1.92-3.07s1.92,1.37,1.92,3.07-.86,3.07-1.92,3.07-1.92-1.37-1.92-3.07ZM6.85,9.04c0-1.7.86-3.07,1.92-3.07s1.92,1.37,1.92,3.07-.86,3.07-1.92,3.07-1.92-1.37-1.92-3.07ZM17.99,16.19c0,.48-.39.88-.88.88H6.89c-.48,0-.88-.39-.88-.88s.39-.88.88-.88h10.22c.48,0,.88.39.88.88Z"/>
</svg>