<?xml version="1.0" encoding="UTF-8"?>
<svg id="a" data-name="3219" xmlns="http://www.w3.org/2000/svg" viewBox="0 0 64 64">
  <path d="M53.25,0H10.75C8.48,0,6.62,1.85,6.62,4.13v55.75c0,2.27,1.85,4.12,4.12,4.12h42.5c2.27,0,4.12-1.85,4.12-4.12V4.13C57.38,1.85,55.52,0,53.25,0ZM10.75,2.75h42.5c.76,0,1.38.62,1.38,1.37v45.81H9.38V4.13c0-.76.62-1.37,1.38-1.37ZM53.25,61.25H10.75c-.76,0-1.38-.62-1.38-1.37v-7.19h45.25v7.19c0,.76-.62,1.37-1.38,1.37ZM30.62,55.51h2.75v2.75h-2.75v-2.75Z" fill="#1e1e1c"/>
</svg>