<?xml version="1.0" encoding="UTF-8"?>
<svg id="a" data-name="3219" xmlns="http://www.w3.org/2000/svg" viewBox="0 0 16 16">
  <path d="M15.99,1.77C15.99.81,15.2.02,14.24.02H1.74C.78.02,0,.81,0,1.77v2.84c0,.37.12.71.32,1C.11,5.89,0,6.23,0,6.61v2.84c0,.37.12.72.32,1-.2.28-.32.63-.32,1v2.84c0,.96.79,1.75,1.75,1.75h12.49c.97,0,1.75-.78,1.75-1.75v-2.84c0-.37-.12-.71-.32-1,.2-.28.32-.63.32-1v-2.84c0-.37-.12-.72-.32-1,.2-.28.32-.63.32-1V1.77ZM1.49,1.77c0-.14.11-.25.25-.25h12.49c.14,0,.25.11.25.25v2.84c0,.14-.11.25-.25.25H1.74c-.14,0-.25-.11-.25-.25V1.77ZM14.49,6.61v2.84c0,.14-.11.25-.25.25H1.74c-.14,0-.25-.11-.25-.25v-2.84c0-.14.11-.25.25-.25h12.49c.14,0,.25.11.25.25ZM14.49,14.28c0,.14-.11.25-.25.25H1.74c-.14,0-.25-.11-.25-.25v-2.84c0-.14.11-.25.25-.25h12.49c.14,0,.25.11.25.25v2.84ZM7.15,3.19c0-.41.34-.75.75-.75h5.51c.41,0,.75.34.75.75s-.34.75-.75.75h-5.51c-.41,0-.75-.34-.75-.75ZM5.96,3.94h-1.5v-1.5h1.5v1.5ZM3.79,3.94h-1.5v-1.5h1.5v1.5ZM7.15,8c0-.41.34-.75.75-.75h5.51c.41,0,.75.34.75.75s-.34.75-.75.75h-5.51c-.41,0-.75-.34-.75-.75ZM5.96,8.75h-1.5v-1.5h1.5v1.5ZM3.79,8.75h-1.5v-1.5h1.5v1.5ZM14.16,12.81c0,.41-.34.75-.75.75h-5.51c-.41,0-.75-.34-.75-.75s.34-.75.75-.75h5.51c.41,0,.75.34.75.75ZM5.96,13.56h-1.5v-1.5h1.5v1.5ZM2.28,12.06h1.5v1.5h-1.5v-1.5Z" fill="#1e1e1c"/>
</svg>