<?xml version="1.0" encoding="UTF-8"?>
<svg id="a" data-name="3219" xmlns="http://www.w3.org/2000/svg" viewBox="0 0 32 32">
  <path d="M30.49.05H1.48C.66.05-.01.72-.01,1.54v7c0,.83.67,1.5,1.5,1.5h29c.83,0,1.5-.67,1.5-1.5V1.54c0-.83-.67-1.5-1.5-1.5ZM4.63,6.04h-2v-1.99h2v1.99ZM8.39,6.04h-2v-1.99h2v1.99ZM12.05,6.04h-2v-1.99h2v1.99ZM29.16,6.04h-11.36c-.55,0-1-.45-1-1s.45-1,1-1h11.36c.55,0,1,.45,1,1s-.45,1-1,1ZM30.49,11.05H1.48C.66,11.05-.01,11.72-.01,12.55v7c0,.83.67,1.5,1.5,1.5h29c.83,0,1.5-.67,1.5-1.5v-7c0-.83-.67-1.5-1.5-1.5ZM4.63,17h-2v-1.99h2v1.99ZM8.39,17h-2v-1.99h2v1.99ZM12.05,17h-2v-1.99h2v1.99ZM29.16,17h-11.36c-.55,0-1-.45-1-1s.45-1,1-1h11.36c.55,0,1,.45,1,1s-.45,1-1,1ZM30.49,22.06H1.48c-.83,0-1.5.67-1.5,1.5v7c0,.83.67,1.5,1.5,1.5h29c.83,0,1.5-.67,1.5-1.5v-7c0-.83-.67-1.5-1.5-1.5ZM4.63,27.95h-2v-1.99h2v1.99ZM8.39,27.95h-2v-1.99h2v1.99ZM12.05,27.95h-2v-1.99h2v1.99ZM29.16,27.95h-11.36c-.55,0-1-.45-1-1s.45-1,1-1h11.36c.55,0,1,.45,1,1s-.45,1-1,1Z" fill="#1e1e1c"/>
</svg>