<?xml version="1.0" encoding="UTF-8"?>
<svg id="a" data-name="3219" xmlns="http://www.w3.org/2000/svg" viewBox="0 0 48 48">
  <path d="M1.98,15.03h43.92c1.1,0,2-.9,2-2V2.02c0-1.11-.89-2-2-2H1.98C.88.01-.01.91-.01,2.02v11.01c0,1.11.89,2,2,2ZM26.16,6.27h17.28c.69,0,1.25.56,1.25,1.25s-.56,1.25-1.25,1.25h-17.28c-.69,0-1.25-.56-1.25-1.25s.56-1.25,1.25-1.25ZM14.45,6.27h2.5v2.5h-2.5v-2.5ZM9.64,6.27h2.5v2.5h-2.5v-2.5ZM4.68,6.27h2.5v2.5h-2.5v-2.5ZM45.99,16.62H2.07c-1.1,0-2,.9-2,2v11.01c0,1.11.89,2,2,2h43.92c1.1,0,2-.9,2-2v-11.01c0-1.11-.89-2-2-2ZM7.26,25.3h-2.5v-2.5h2.5v2.5ZM12.22,25.3h-2.5v-2.5h2.5v2.5ZM17.03,25.3h-2.5v-2.5h2.5v2.5ZM43.52,25.3h-17.28c-.69,0-1.25-.56-1.25-1.25s.56-1.25,1.25-1.25h17.28c.69,0,1.25.56,1.25,1.25s-.56,1.25-1.25,1.25ZM45.93,33H2.01c-1.1,0-2,.9-2,2v11.01c0,1.11.89,2,2,2h43.92c1.1,0,2-.9,2-2v-11.01c0-1.11-.89-2-2-2ZM7.29,41.52h-2.5v-2.5h2.5v2.5ZM12.25,41.52h-2.5v-2.5h2.5v2.5ZM17.06,41.52h-2.5v-2.5h2.5v2.5ZM43.55,41.52h-17.28c-.69,0-1.25-.56-1.25-1.25s.56-1.25,1.25-1.25h17.28c.69,0,1.25.56,1.25,1.25s-.56,1.25-1.25,1.25Z" fill="#1e1e1c"/>
</svg>