<?xml version="1.0" encoding="UTF-8"?>
<svg id="a" data-name="3219" xmlns="http://www.w3.org/2000/svg" viewBox="0 0 32 32">
  <path d="M31.98,2.54c0-1.38-1.12-2.5-2.5-2.5H2.49C1.11.05-.02,1.17-.02,2.54v7.01c0,.56.2,1.08.51,1.5-.32.42-.51.93-.51,1.5v7.01c0,.56.2,1.08.51,1.5-.32.42-.51.93-.51,1.5v7.01c0,1.38,1.12,2.5,2.5,2.5h26.99c1.38,0,2.5-1.12,2.5-2.5v-7.01c0-.56-.2-1.08-.51-1.5.32-.42.51-.93.51-1.5v-7.01c0-.56-.2-1.08-.51-1.5.32-.42.51-.93.51-1.5V2.54ZM1.99,2.54c0-.27.23-.5.5-.5h26.99c.28,0,.5.22.5.5v7.01c0,.27-.23.5-.5.5H2.49c-.28,0-.5-.22-.5-.5V2.54ZM29.98,12.54v7.01c0,.27-.23.5-.5.5H2.49c-.28,0-.5-.22-.5-.5v-7.01c0-.27.23-.5.5-.5h26.99c.28,0,.5.22.5.5ZM29.98,29.55c0,.27-.23.5-.5.5H2.49c-.28,0-.5-.22-.5-.5v-7.01c0-.27.23-.5.5-.5h26.99c.28,0,.5.22.5.5v7.01ZM14.79,6.05c0-.55.45-1,1-1h11.4c.55,0,1,.45,1,1s-.45,1-1,1h-11.4c-.55,0-1-.45-1-1ZM9.37,7.05h-2v-2h2v2ZM6.1,7.05h-2v-2h2v2ZM14.79,16c0-.55.45-1,1-1h11.4c.55,0,1,.45,1,1s-.45,1-1,1h-11.4c-.55,0-1-.45-1-1ZM9.37,17h-2v-2h2v2ZM6.1,17h-2v-2h2v2ZM28.19,25.95c0,.55-.45,1-1,1h-11.4c-.55,0-1-.45-1-1s.45-1,1-1h11.4c.55,0,1,.45,1,1ZM7.36,24.95h2v2h-2v-2ZM12.54,7.05h-2v-2h2v2ZM12.54,17h-2v-2h2v2ZM10.53,24.95h2v2h-2v-2ZM4.09,24.95h2v2h-2v-2Z" fill="#1e1e1c"/>
</svg>