<?xml version="1.0" encoding="UTF-8"?>
<svg id="a" data-name="3219" xmlns="http://www.w3.org/2000/svg" viewBox="0 0 24 24">
  <path d="M22.99.04H.99C.44.04,0,.48,0,1.03v5.42c0,.55.45,1,1,1h22c.55,0,1-.45,1-1V1.03c0-.55-.45-1-1-1ZM3.8,4.62h-1.79v-1.75h1.79v1.75ZM7.12,4.62h-1.79v-1.75h1.79v1.75ZM21.78,4.62h-8.43c-.48,0-.87-.39-.87-.87s.39-.87.87-.87h8.43c.48,0,.87.39.87.87s-.39.87-.87.87ZM22.99,8.33H.99c-.55,0-1,.45-1,1v5.42c0,.55.45,1,1,1h22c.55,0,1-.45,1-1v-5.42c0-.55-.45-1-1-1ZM3.8,12.87h-1.79v-1.75h1.79v1.75ZM7.12,12.87h-1.79v-1.75h1.79v1.75ZM21.78,12.87h-8.43c-.48,0-.87-.39-.87-.87s.39-.87.87-.87h8.43c.48,0,.87.39.87.87s-.39.87-.87.87ZM22.99,16.62H.99c-.55,0-1,.45-1,1v5.42c0,.55.45,1,1,1h22c.55,0,1-.45,1-1v-5.42c0-.55-.45-1-1-1ZM3.8,21.13h-1.79v-1.75h1.79v1.75ZM7.12,21.13h-1.79v-1.75h1.79v1.75ZM21.78,21.13h-8.43c-.48,0-.87-.39-.87-.87s.39-.87.87-.87h8.43c.48,0,.87.39.87.87s-.39.87-.87.87Z" fill="#1e1e1c"/>
</svg>