<?xml version="1.0" encoding="UTF-8"?>
<svg id="a" data-name="3219" xmlns="http://www.w3.org/2000/svg" viewBox="0 0 64 64">
  <path d="M64.03,4.02c0-2.13-1.74-3.86-3.87-3.86H3.9C1.77.16.03,1.89.03,4.02v15.44c0,.99.39,1.89,1.01,2.57-.62.72-1.01,1.64-1.01,2.66v14.95c0,1.06.41,2.01,1.07,2.74-.66.73-1.07,1.68-1.07,2.74v14.95c0,2.26,1.85,4.11,4.12,4.11h55.76c2.27,0,4.12-1.84,4.12-4.11v-14.95c0-1.06-.41-2.01-1.07-2.74.66-.73,1.07-1.68,1.07-2.74v-14.95c0-1.02-.39-1.94-1.01-2.66.62-.68,1.01-1.58,1.01-2.57V4.02ZM2.78,4.02c0-.62.5-1.12,1.12-1.12h56.26c.62,0,1.12.5,1.12,1.12v15.44c0,.62-.5,1.12-1.12,1.12H3.9c-.62,0-1.12-.5-1.12-1.12V4.02ZM61.28,39.64c0,.75-.62,1.37-1.37,1.37H4.15c-.76,0-1.37-.61-1.37-1.37v-14.95c0-.75.62-1.37,1.37-1.37h55.76c.76,0,1.37.61,1.37,1.37v14.95ZM61.28,60.06c0,.75-.62,1.37-1.37,1.37H4.15c-.76,0-1.37-.61-1.37-1.37v-14.95c0-.75.62-1.37,1.37-1.37h55.76c.76,0,1.37.61,1.37,1.37v14.95ZM31.77,11.74c0-.76.61-1.37,1.37-1.37h23.27c.76,0,1.37.61,1.37,1.37s-.61,1.37-1.37,1.37h-23.27c-.76,0-1.37-.61-1.37-1.37ZM15.85,13.11h-2.75v-2.74h2.75v2.74ZM10.17,13.11h-2.75v-2.74h2.75v2.74ZM57.79,32.06c0,.76-.61,1.37-1.37,1.37h-23.27c-.76,0-1.37-.61-1.37-1.37s.61-1.37,1.37-1.37h23.27c.76,0,1.37.61,1.37,1.37ZM13.1,30.69h2.75v2.74h-2.75v-2.74ZM7.42,30.69h2.75v2.74h-2.75v-2.74ZM57.79,52.38c0,.76-.61,1.37-1.37,1.37h-23.27c-.76,0-1.37-.61-1.37-1.37s.61-1.37,1.37-1.37h23.27c.76,0,1.37.61,1.37,1.37ZM13.1,51.01h2.75v2.74h-2.75v-2.74ZM21.33,13.11h-2.75v-2.74h2.75v2.74ZM18.58,30.69h2.75v2.74h-2.75v-2.74ZM18.58,51.01h2.75v2.74h-2.75v-2.74ZM26.65,13.11h-2.75v-2.74h2.75v2.74ZM23.9,30.69h2.75v2.74h-2.75v-2.74ZM23.9,51.01h2.75v2.74h-2.75v-2.74ZM7.42,51.01h2.75v2.74h-2.75v-2.74Z" fill="#1e1e1c"/>
</svg>