<?xml version="1.0" encoding="UTF-8"?>
<svg id="a" data-name="3219" xmlns="http://www.w3.org/2000/svg" viewBox="0 0 16 16">
  <path d="M16,4.01C16,1.8,14.21,0,12.02,0s-3.98,1.8-3.98,4.01c0,.67.21,1.38.53,2.08H0v9.92h12.52v-5.85l.03-.03c.35-.36,3.45-3.55,3.45-6.12ZM12.02,1.5c1.37,0,2.49,1.13,2.49,2.51s-1.5,3.37-2.49,4.49c-.99-1.12-2.49-3.12-2.49-4.49s1.12-2.51,2.49-2.51ZM9.42,7.58c.09.13.18.27.27.4l-2.86,3.09c-.31.33-.83.33-1.14,0l-3.23-3.49h6.96ZM1.49,8.74l2.14,2.31-2.14,2.15v-4.46ZM2.3,14.5l2.34-2.36c.44.44,1,.69,1.61.69s1.18-.25,1.61-.69l2.34,2.36H2.3ZM8.89,11.05l1.73-1.87c.15.17.28.33.4.46v3.56l-2.14-2.15ZM12.02,5.34c-.72,0-1.31-.59-1.31-1.31s.59-1.32,1.31-1.32,1.31.59,1.31,1.32-.59,1.31-1.31,1.31Z" fill="#1e1e1c"/>
</svg>