<?xml version="1.0" encoding="UTF-8"?>
<svg id="a" data-name="3219" xmlns="http://www.w3.org/2000/svg" viewBox="0 0 40 40">
  <path d="M20.5,17.55c4.84,0,8.77-3.94,8.77-8.77S25.33,0,20.5,0s-8.77,3.94-8.77,8.77,3.93,8.77,8.77,8.77ZM20.5,2.25c3.6,0,6.52,2.93,6.52,6.52s-2.93,6.52-6.52,6.52-6.52-2.93-6.52-6.52,2.93-6.52,6.52-6.52ZM40,32.04v7.96h-2.25v-7.96c0-4.3-3.5-7.8-7.8-7.8h-14.68v-2.25h14.68c5.54,0,10.05,4.51,10.05,10.05ZM27.02,32.04h2.25v7.96h-2.25v-7.96ZM11.36,25.01l7.32,7.32-7.32,7.32c-.22.22-.51.33-.8.33s-.58-.11-.8-.33c-.44-.44-.44-1.15,0-1.59l4.61-4.61H0v-2.25h14.37l-4.61-4.61c-.44-.44-.44-1.15,0-1.59.44-.44,1.15-.44,1.59,0Z" fill="#1e1e1c"/>
</svg>