<?xml version="1.0" encoding="UTF-8"?>
<svg id="a" data-name="3219" xmlns="http://www.w3.org/2000/svg" viewBox="0 0 16 16">
  <path d="M8.04,7.48c2.05,0,3.71-1.67,3.71-3.73S10.08.01,8.04.01s-3.71,1.67-3.71,3.73,1.67,3.73,3.71,3.73ZM8.04,2.52c.67,0,1.22.55,1.22,1.23s-.55,1.23-1.22,1.23-1.22-.55-1.22-1.23.55-1.23,1.22-1.23ZM16.04,12.88v3.13h-2.49v-3.13c0-1.24-1.01-2.25-2.24-2.25h-3.75v-2.5h3.75c2.61,0,4.73,2.13,4.73,4.76ZM9.43,12.88h2.49v3.13h-2.49v-3.13ZM5.21,9.58l3.01,3.02-3.01,3.02c-.24.24-.56.37-.88.37s-.64-.12-.88-.37c-.49-.49-.49-1.28,0-1.77H.04v-2.5h3.41c-.49-.49-.49-1.28,0-1.77s1.27-.49,1.76,0Z" fill="#1e1e1c"/>
</svg>