<?xml version="1.0" encoding="UTF-8"?>
<svg id="a" data-name="3219" xmlns="http://www.w3.org/2000/svg" viewBox="0 0 16 16">
  <path d="M8,7.5c2.07,0,3.75-1.68,3.75-3.75S10.07,0,8,0s-3.75,1.68-3.75,3.75,1.68,3.75,3.75,3.75ZM8,1.5c1.24,0,2.25,1.01,2.25,2.25s-1.01,2.25-2.25,2.25-2.25-1.01-2.25-2.25,1.01-2.25,2.25-2.25ZM16,12.88v3.12h-1.5v-3.12c0-1.52-1.23-2.75-2.75-2.75h-4.76v-1.5h4.76c2.34,0,4.25,1.91,4.25,4.25ZM10.29,12.88h1.5v3.12h-1.5v-3.12ZM5.17,10.12l2.83,2.83-2.83,2.83c-.15.15-.34.22-.53.22s-.38-.07-.53-.22c-.29-.29-.29-.77,0-1.06l1.02-1.02H0v-1.5h5.13l-1.02-1.02c-.29-.29-.29-.77,0-1.06s.77-.29,1.06,0Z" fill="#1e1e1c"/>
</svg>