<?xml version="1.0" encoding="UTF-8"?>
<svg id="a" data-name="3219" xmlns="http://www.w3.org/2000/svg" viewBox="0 0 16 16">
  <path d="M3.59,3.64L7.95.03v16l-4.36-3.6V3.64ZM-.02,5.69v4.67c0,.82.67,1.49,1.5,1.49h1.11v-7.65h-1.11C.65,4.2-.02,4.87-.02,5.69ZM15.59,9.82l-1.68-1.61,1.64-1.57c.5-.48.51-1.26.03-1.76-.48-.49-1.27-.51-1.77-.03l-1.7,1.63-1.48-1.42c-.49-.48-1.29-.46-1.77.03-.48.49-.47,1.28.03,1.76l1.42,1.36-1.46,1.4c-.5.48-.51,1.26-.03,1.76.24.25.57.38.9.38s.63-.12.87-.35l1.52-1.46,1.74,1.67c.24.23.56.35.87.35s.65-.13.9-.38c.48-.49.47-1.28-.03-1.76Z" fill="#1e1e1c"/>
</svg>