<?xml version="1.0" encoding="UTF-8"?>
<svg id="a" data-name="3219" xmlns="http://www.w3.org/2000/svg" viewBox="0 0 40 40">
  <path d="M3.59,10.36C1.6,10.36-.03,11.99-.03,14v11.99c0,2.01,1.62,3.64,3.62,3.64h5.57l12.8,10.36V0l-12.78,10.36H3.59ZM2.22,26v-11.99c0-.76.62-1.38,1.37-1.38h4.86v14.76H3.59c-.76,0-1.37-.62-1.37-1.38ZM19.71,35.28l-9.01-7.29v-15.96l9.01-7.3v30.55ZM39.62,26.19c.45.43.46,1.15.03,1.6-.22.23-.51.35-.81.35s-.56-.11-.78-.32l-5.74-5.57-5.07,4.93c-.22.21-.5.32-.78.32s-.59-.12-.81-.35c-.43-.45-.42-1.16.03-1.6l5.02-4.87-5.03-4.88c-.45-.43-.46-1.15-.03-1.6.43-.45,1.14-.46,1.59-.03l5.08,4.94,5.75-5.59c.45-.43,1.16-.42,1.59.03s.42,1.16-.03,1.6l-5.69,5.53,5.68,5.52Z" fill="#1e1e1c"/>
</svg>