<?xml version="1.0" encoding="UTF-8"?>
<svg id="_x33_219" xmlns="http://www.w3.org/2000/svg" version="1.1" viewBox="0 0 32 32">
  <!-- Generator: Adobe Illustrator 29.0.1, SVG Export Plug-In . SVG Version: 2.1.0 Build 192)  -->
  <defs>
    <style>
      .st0 {
        fill: #1e1e1c;
      }
    </style>
  </defs>
  <path class="st0" d="M6.77,17.18h-2.76v7.12h2.15v-2.19h.61c1.89,0,3.29-.58,3.29-2.48s-1.4-2.46-3.29-2.46ZM6.8,20.44h-.64v-1.6h.64c.63,0,1.04.18,1.04.79s-.41.8-1.04.8ZM13.19,17.18h-2.76v7.12h2.15v-2.19h.61c1.89,0,3.29-.58,3.29-2.48s-1.4-2.46-3.29-2.46ZM13.22,20.44h-.64v-1.6h.64c.63,0,1.04.18,1.04.79s-.41.8-1.04.8ZM31.96,9.39l-5.68-7.05H3.74v9.04h-1.27C1.08,11.38-.04,12.5-.04,13.89v13.51c0,1.38,1.12,2.51,2.51,2.51h17.31v-4.11h12.19V9.39ZM17.77,27.9H2.46c-.28,0-.5-.23-.5-.5v-13.51c0-.28.23-.5.5-.5h14.8c.28,0,.5.23.5.5v14.02ZM25.59,11.04c-.75,0-1.35-.61-1.35-1.35V3.96l5.73,7.08h-4.38Z"/>
</svg>