<?xml version="1.0" encoding="UTF-8"?>
<svg id="_x33_219" xmlns="http://www.w3.org/2000/svg" version="1.1" viewBox="0 0 48 48">
  <!-- Generator: Adobe Illustrator 29.0.1, SVG Export Plug-In . SVG Version: 2.1.0 Build 192)  -->
  <defs>
    <style>
      .st0 {
        fill: #1d1d1b;
      }
    </style>
  </defs>
  <path class="st0" d="M47.96,14.01l-8.5-10.53H5.62v13.74h-2.92c-1.51,0-2.75,1.23-2.75,2.75v22.11c0,1.51,1.23,2.75,2.75,2.75h26.81v-6.25h18.44V14.01ZM44.88,14.18h-7.3c-.18,0-.32-.14-.32-.32v-7.88h1.01l6.62,8.2ZM27.02,42.33H2.7c-.14,0-.25-.11-.25-.25v-22.11c0-.14.11-.25.25-.25h24.07c.14,0,.25.11.25.25v22.36ZM29.52,36.08v-16.11c0-1.51-1.23-2.75-2.75-2.75H8.12V5.98h26.64v7.88c0,1.55,1.26,2.82,2.82,2.82h7.88v19.41h-15.94ZM10.03,25.76h-4.19v10.83h3.26v-3.33h.93c2.87,0,5.01-.88,5.01-3.77s-2.14-3.74-5.01-3.74ZM10.08,30.72h-.97v-2.43h.97c.96,0,1.59.27,1.59,1.21s-.63,1.22-1.59,1.22ZM20.1,25.76h-4.19v10.83h3.26v-3.33h.93c2.87,0,5.01-.88,5.01-3.77s-2.14-3.74-5.01-3.74ZM20.15,30.72h-.97v-2.43h.97c.96,0,1.59.27,1.59,1.21s-.63,1.22-1.59,1.22Z"/>
</svg>