<?xml version="1.0" encoding="UTF-8"?>
<svg id="_x33_219" xmlns="http://www.w3.org/2000/svg" version="1.1" viewBox="0 0 24 24">
  <!-- Generator: Adobe Illustrator 29.0.1, SVG Export Plug-In . SVG Version: 2.1.0 Build 192)  -->
  <defs>
    <style>
      .st0 {
        fill: #1d1d1b;
      }
    </style>
  </defs>
  <path class="st0" d="M23.98,7.04l-4.29-5.32H2.75v6.72h-.39C1.05,8.44-.02,9.5-.02,10.81v9.27c0,1.31,1.07,2.38,2.38,2.38h12.6v-3.06h9.02V7.04ZM21.75,7.07h-3.13v-3.6h.22l2.9,3.6ZM13.21,20.71H2.36c-.35,0-.63-.28-.63-.63v-9.27c0-.35.28-.63.63-.63h10.23c.35,0,.63.28.63.63v9.9ZM14.96,17.66v-6.84c0-1.31-1.07-2.38-2.38-2.38H4.5V3.47h12.62v3.59c0,.84.68,1.52,1.52,1.52h3.59v9.08h-7.26ZM5.17,12.88h-2.05v5.29h1.6v-1.63h.45c1.4,0,2.45-.43,2.45-1.84s-1.04-1.83-2.45-1.83ZM5.19,15.3h-.48v-1.19h.48c.47,0,.77.13.77.59s-.31.6-.77.6ZM9.94,12.88h-2.05v5.29h1.6v-1.63h.45c1.4,0,2.45-.43,2.45-1.84s-1.04-1.83-2.45-1.83ZM9.97,15.3h-.48v-1.19h.48c.47,0,.77.13.77.59s-.31.6-.77.6Z"/>
</svg>