<?xml version="1.0" encoding="UTF-8"?>
<svg id="_x33_219" xmlns="http://www.w3.org/2000/svg" version="1.1" viewBox="0 0 64 64">
  <!-- Generator: Adobe Illustrator 29.0.1, SVG Export Plug-In . SVG Version: 2.1.0 Build 192)  -->
  <defs>
    <style>
      .st0 {
        fill: #1e1e1c;
      }
    </style>
  </defs>
  <path class="st0" d="M13.35,34.45h-5.58v14.42h4.35v-4.43h1.23c3.82,0,6.67-1.17,6.67-5.02s-2.84-4.97-6.67-4.97ZM13.41,41.05h-1.3v-3.24h1.3c1.28,0,2.11.36,2.11,1.61s-.84,1.63-2.11,1.63ZM26.77,34.45h-5.58v14.42h4.35v-4.43h1.23c3.82,0,6.67-1.17,6.67-5.02s-2.84-4.97-6.67-4.97ZM26.83,41.05h-1.3v-3.24h1.3c1.28,0,2.11.36,2.11,1.61s-.84,1.63-2.11,1.63ZM63.9,18.76l-11.28-13.98H7.52v18.5H2.77c-1.58,0-2.87,1.29-2.87,2.87v30.81c0,1.58,1.29,2.87,2.87,2.87h36.31v-8.41h24.83V18.76ZM36.33,57.08H2.77c-.07,0-.12-.06-.12-.12v-30.81c0-.07.06-.12.12-.12h33.44c.07,0,.12.06.12.12v30.93ZM51.1,21.98c-1.52,0-2.75-1.23-2.75-2.75V7.56l12.42,14.42h-9.67Z"/>
</svg>