<?xml version="1.0" encoding="UTF-8"?>
<svg id="_x33_219" xmlns="http://www.w3.org/2000/svg" version="1.1" viewBox="0 0 32 32">
  <!-- Generator: Adobe Illustrator 29.0.1, SVG Export Plug-In . SVG Version: 2.1.0 Build 192)  -->
  <defs>
    <style>
      .st0 {
        fill: #1d1d1b;
      }
    </style>
  </defs>
  <path class="st0" d="M31.97,9.39l-5.7-7.06H3.7v9.06h-1.22C1.1,11.39-.03,12.52-.03,13.9v13.54c0,1.38,1.13,2.51,2.51,2.51h17.33v-4.12h12.15V9.39ZM29.38,9.38l-4.46-.02v-5.01h.4l4.06,5.04ZM17.81,27.94H2.48c-.28,0-.5-.23-.5-.5v-13.54c0-.28.23-.5.5-.5h14.82c.28,0,.5.23.5.5v14.04ZM19.82,23.82v-9.92c0-1.38-1.13-2.51-2.51-2.51H5.71v-7.05h17.2v5.01c0,1.12.91,2.04,2.04,2.04h5.01v12.43h-10.15ZM6.79,17.2h-2.76v7.14h2.15v-2.19h.61c1.89,0,3.3-.58,3.3-2.48s-1.41-2.46-3.3-2.46ZM6.82,20.47h-.64v-1.6h.64c.63,0,1.04.18,1.04.8s-.41.81-1.04.81ZM13.22,17.2h-2.76v7.14h2.15v-2.19h.61c1.89,0,3.3-.58,3.3-2.48s-1.41-2.46-3.3-2.46ZM13.26,20.47h-.64v-1.6h.64c.63,0,1.04.18,1.04.8s-.41.81-1.04.81Z"/>
</svg>