<?xml version="1.0" encoding="UTF-8"?>
<svg id="a" data-name="3219" xmlns="http://www.w3.org/2000/svg" viewBox="0 0 32 32">
  <path d="M15.64,14.33c3.94,0,7.15-3.21,7.15-7.15S19.59.04,15.64.04s-7.15,3.21-7.15,7.15,3.21,7.15,7.15,7.15ZM15.64,2.04c2.84,0,5.15,2.31,5.15,5.15s-2.31,5.15-5.15,5.15-5.15-2.31-5.15-5.15,2.31-5.15,5.15-5.15ZM8.13,17.56h13.59v1.99h-13.59c-3.36,0-6.09,2.73-6.09,6.09v6.32H.04v-6.32c0-4.46,3.63-8.08,8.09-8.08ZM8.57,25.64h2v6.32h-2v-6.32ZM28.45,27.04l3.51,3.51-1.41,1.41-3.51-3.51-3.59,3.59-1.41-1.41,3.59-3.59-3.67-3.67,1.41-1.41,3.67,3.67,3.59-3.59,1.41,1.41-3.59,3.59Z" fill="#1e1e1c"/>
</svg>