<?xml version="1.0" encoding="UTF-8"?>
<svg id="a" data-name="3219" xmlns="http://www.w3.org/2000/svg" viewBox="0 0 48 48">
  <path d="M.26,20.34C1.43,12.68,6.24,6.21,12.86,2.74l11.22,11.22L.26,20.34ZM32.73,19.07l4.1-15.32c-3.72-2.37-8.13-3.75-12.85-3.75-3.06,0-5.99.58-8.69,1.63l17.43,17.43ZM31.98,21.86l-5.86-5.86-8.3,2.22.26.07-2.1,7.86,5.86,5.86,8-2.14,2.14-8ZM32.62,29.11l15.33-4.11c.01-.33.03-.67.03-1,0-7.55-3.51-14.29-8.98-18.7l-6.38,23.81ZM23.87,34.04l11.22,11.22c6.62-3.47,11.43-9.95,12.61-17.6l-23.82,6.38ZM15.23,28.93l-4.1,15.32c3.72,2.37,8.13,3.75,12.85,3.75,3.06,0,5.99-.58,8.69-1.63L15.23,28.93ZM15.33,18.89L0,23c-.01.33-.03.67-.03,1,0,7.55,3.51,14.29,8.98,18.7l6.38-23.81Z" fill="#1e1e1c"/>
</svg>