<?xml version="1.0" encoding="UTF-8"?>
<svg id="a" data-name="3219" xmlns="http://www.w3.org/2000/svg" viewBox="0 0 40 40">
  <path d="M.25,16.82C1.24,10.52,5.18,5.18,10.62,2.28l9.28,9.28L.25,16.82ZM26.53,18.19l-4.79-4.79-6.7,1.79.13.03-1.73,6.48,4.8,4.8,6.55-1.75,1.75-6.55ZM27.28,24.07l12.66-3.39c0-.24.04-.48.04-.73,0-6.27-2.9-11.86-7.43-15.53l-5.27,19.66ZM27.2,15.68l3.39-12.66C27.51,1.08,23.88-.06,19.98-.06c-2.53,0-4.94.49-7.16,1.35l14.39,14.39ZM12.67,15.82L.01,19.21c0,.24-.04.48-.04.73,0,6.27,2.9,11.86,7.43,15.53l5.27-19.66ZM20.06,28.33l9.28,9.28c5.44-2.9,9.38-8.23,10.37-14.54l-19.65,5.27ZM12.76,24.21l-3.39,12.66c3.08,1.94,6.71,3.08,10.61,3.08,2.53,0,4.94-.49,7.16-1.35l-14.39-14.39Z" fill="#1e1e1c"/>
</svg>