<?xml version="1.0" encoding="UTF-8"?>
<svg id="_x33_219" xmlns="http://www.w3.org/2000/svg" version="1.1" viewBox="0 0 32 32">
  <!-- Generator: Adobe Illustrator 29.0.1, SVG Export Plug-In . SVG Version: 2.1.0 Build 192)  -->
  <defs>
    <style>
      .st0 {
        fill: #1e1e1c;
      }
    </style>
  </defs>
  <path class="st0" d="M27.38,8.79c.42,1.27.66,2.62.66,4.03,0,4.02-1.86,7.73-5.11,10.19-.22.26-.33,1.24-.41,1.96-.29,2.62-.78,7-7.17,7-1.56,0-3.04-.49-4.28-1.41-.66-.49-1.22-1.08-1.67-1.75-.31-.46-.19-1.08.27-1.39.46-.31,1.08-.19,1.39.27.33.49.74.91,1.21,1.27.9.67,1.97,1.02,3.09,1.02,4.6,0,4.88-2.53,5.18-5.22.15-1.34.28-2.5,1.05-3.23l.08-.07c2.77-2.08,4.37-5.22,4.37-8.63,0-.83-.1-1.63-.28-2.4l1.62-1.62ZM32,1.41L1.42,32,0,30.58l9.62-9.62c-.09.02-.17.05-.26.05-.18,0-.36-.05-.52-.15-.45-.3-.61-.85-.33-1.31.63-1.05,1.68-.89,2.24-.8.3.05.58.09.87.05.05,0,.14-.02.25-.09l.31-.31c.06-.09.12-.2.18-.34.43-1.02.32-2.45.11-3.05-1.75.14-2.67-.5-3.14-1.08-.39-.48-.52-1.36-.57-1.85-.2-1.76.33-2.8,1.44-4.21,1.12-1.41,2.71-2.3,4.5-2.51,1.79-.21,3.55.29,4.95,1.41.8.63,1.41,1.42,1.84,2.29l2.52-2.52c-1.96-2.76-5.17-4.56-8.8-4.56-3.22,0-6.24,1.42-8.31,3.89l-.07.08c-.37.41-1,.44-1.41.07-.41-.37-.44-1-.07-1.41C7.83,1.68,11.41,0,15.22,0,19.41,0,23.12,2.02,25.46,5.13L30.59,0l1.41,1.41ZM14.64,15.94l5.34-5.34c-.28-.87-.81-1.66-1.56-2.25-.99-.79-2.23-1.14-3.48-.99-1.26.15-2.38.77-3.16,1.76-.89,1.12-1.15,1.65-1.02,2.76.03.34.12.74.17.86.21.26.85.37,1.71.25.49-.07.97.14,1.31.58.4.52.64,1.41.69,2.38Z"/>
</svg>