<?xml version="1.0" encoding="UTF-8"?>
<svg id="_x33_219" xmlns="http://www.w3.org/2000/svg" version="1.1" viewBox="0 0 64 64">
  <!-- Generator: Adobe Illustrator 29.0.1, SVG Export Plug-In . SVG Version: 2.1.0 Build 192)  -->
  <defs>
    <style>
      .st0 {
        fill: #1e1e1c;
      }
    </style>
  </defs>
  <path class="st0" d="M55.39,19.26c.55,2.09.85,4.29.85,6.55,0,8.05-3.72,15.48-10.2,20.42-.32.48-.52,2.31-.66,3.54-.55,4.98-1.58,14.24-14.64,14.24-3.18,0-6.2-1-8.74-2.89-1.34-.99-2.49-2.2-3.42-3.58-.23-.33-.35-.7-.4-1.08l2.8-2.8c.68.09,1.33.45,1.75,1.07.62.91,1.38,1.71,2.26,2.36,1.67,1.24,3.67,1.9,5.76,1.9,8.58,0,9.08-4.54,9.66-9.79.29-2.63.57-5.12,2.24-6.68l.21-.17c5.32-3.99,8.38-10.02,8.38-16.55,0-.77-.05-1.52-.13-2.27l4.29-4.29ZM26.57,40.99L3.55,64.01,0,60.48l18.06-18.07c-.14-.05-.28-.1-.41-.18-1.18-.71-1.57-2.25-.85-3.43,1.44-2.38,3.81-2.01,4.94-1.83.57.09,1.06.17,1.56.1.03,0,.08-.01.13-.03l.74-.74c.04-.07.07-.13.11-.21.77-1.64.68-4.11.38-5.39-3.39.16-5.24-1.15-6.2-2.34-.81-1.01-1.12-2.69-1.23-3.93-.42-3.61.71-5.83,2.95-8.66,4.72-5.95,13.41-6.96,19.36-2.24,1.41,1.12,2.55,2.48,3.41,3.98l4.11-4.11c-3.79-5.05-9.81-8.34-16.6-8.34-6.17,0-11.98,2.72-15.94,7.46l-.14.16c-.92,1.03-2.5,1.11-3.53.19-1.03-.92-1.11-2.5-.19-3.53l.09-.09C15.62,3.44,22.82.06,30.48.06c8.17,0,15.45,3.82,20.17,9.77L60.47.01l3.54,3.54-10.59,10.59s0,0,0,.01l-3.77,3.77s0,0,0-.01l-4.96,4.96s0,0,0,.01l-4.81,4.81s0,0,0-.01l-11.83,11.83s-.02.03-.03.05l-1.4,1.4s-.03.02-.05.03ZM29.76,30.72l9.47-9.47c-.55-1.47-1.49-2.79-2.77-3.8-3.79-3.01-9.33-2.36-12.33,1.43-1.78,2.25-2.12,3.14-1.9,5.03.05.51.16,1.11.25,1.41.37.3,1.28.52,2.86.3,1.15-.16,2.28.32,3.07,1.33.69.88,1.15,2.24,1.36,3.77Z"/>
</svg>