<?xml version="1.0" encoding="UTF-8"?>
<svg id="_x33_219" xmlns="http://www.w3.org/2000/svg" version="1.1" viewBox="0 0 16 16">
  <!-- Generator: Adobe Illustrator 29.0.1, SVG Export Plug-In . SVG Version: 2.1.0 Build 192)  -->
  <defs>
    <style>
      .st0 {
        fill: #1e1e1c;
      }
    </style>
  </defs>
  <path class="st0" d="M9.24,12.07l4.97-4.96c-.14,1.77-.99,3.39-2.4,4.54-.02.13-.05.33-.06.49-.13,1.16-.43,3.86-4.02,3.86-.68,0-1.34-.17-1.92-.49l2.01-2.01c1.18-.02,1.31-.42,1.43-1.42ZM5.47,12.3s0,0,.01,0l-1.29,1.29s0,0,0-.01l-2.43,2.43L0,14.23l4.33-4.33c.09-.52.49-.92,1.01-1.01l.14-.14c-.12-.08-.23-.16-.33-.26-.75-.78-.73-1.97-.72-2.21.07-.95.37-1.46.65-1.84.5-.67,1.23-1.09,2.06-1.2.85-.11,1.72.13,2.39.66.15.12.29.26.41.4l.6-.6c-.73-.74-1.74-1.21-2.86-1.21-1.21,0-2.35.53-3.13,1.46l-1.92-1.6C3.87.86,5.71,0,7.67,0,9.48,0,11.11.75,12.3,1.94L14.23.02l1.77,1.77-2.26,2.26s0,0,0,0l-2.04,2.04s0,0,0,0l-1.14,1.14s0,.01,0,.02l-.62.61s-.01,0-.02,0l-1.82,1.81s0,0,0,.01l-1.56,1.56s0,0-.01,0l-1.05,1.05ZM7.38,6.86l.76-.76c-.04-.08-.09-.16-.18-.23-.14-.11-.33-.16-.51-.14-.11.01-.27.06-.38.22-.08.11-.14.19-.16.5,0,.06,0,.15.03.23.13.03.29.09.44.18Z"/>
</svg>