<?xml version="1.0" encoding="UTF-8"?>
<svg id="a" data-name="3219" xmlns="http://www.w3.org/2000/svg" viewBox="0 0 64 64">
  <path d="M32,0C14.35,0,0,14.35,0,32s14.35,32,32,32,32-14.36,32-32S49.65,0,32,0ZM34.5,58.88v-14.84c0-1.38-1.12-2.5-2.5-2.5s-2.5,1.12-2.5,2.5v14.84c-12.89-1.19-23.19-11.48-24.38-24.38h14.84c1.38,0,2.5-1.12,2.5-2.5s-1.12-2.5-2.5-2.5H5.12c1.19-12.89,11.48-23.19,24.38-24.38v14.84c0,1.38,1.12,2.5,2.5,2.5s2.5-1.12,2.5-2.5V5.12c12.89,1.19,23.19,11.48,24.38,24.38h-14.84c-1.38,0-2.5,1.12-2.5,2.5s1.12,2.5,2.5,2.5h14.84c-1.19,12.89-11.48,23.19-24.38,24.38Z" fill="#1e1e1c"/>
</svg>