<?xml version="1.0" encoding="UTF-8"?>
<svg id="a" data-name="3219" xmlns="http://www.w3.org/2000/svg" viewBox="0 0 16 16">
  <path d="M7.76,10.69c.55,0,1-.45,1-1v-5.05c0-.55-.45-1-1-1h-3c-.55,0-1,.45-1,1v5.05c0,.55.45,1,1,1h3ZM5.26,5.14h2v4.05h-2v-4.05ZM11.09,14.5c.94,0,1.74-.61,2.04-1.44h.6c1.24,0,2.25-1.01,2.25-2.25v-5.44h0c0-2.25-1.82-4.06-4.05-4.06h-5.96V0h-1.5v1.31h-1.45V0h-1.5v1.31H0v1.5h9.69v3.67c0,.69.56,1.25,1.25,1.25h3.55v3.08c0,.41-.34.75-.75.75h-.46s-.75,0-.75,0c-.56,0-1.03,0-1.42,0h-2.65s-3.19,0-3.19,0c-.07,0-.15,0-.23,0h-2.79s-2.26,0-2.26,0v2.95h0v1.5h16v-1.5h-4.9ZM11.19,6.22v-3.41h.75c1.41,0,2.55,1.14,2.55,2.55v.86h-3.3ZM.07,14.5c.94,0,1.74-.61,2.04-1.44h2.1c.31.84,1.1,1.44,2.04,1.44H.07ZM6.27,14.5c.94,0,1.74-.61,2.04-1.44h.71c.31.84,1.1,1.44,2.04,1.44h-4.8ZM1.99,8.22H0v-1.5h1.49v-1.5H0v-1.5h1.99c.55,0,1,.45,1,1v2.5c0,.55-.45,1-1,1Z" fill="#1e1e1c"/>
</svg>