<?xml version="1.0" encoding="UTF-8"?>
<svg id="a" data-name="3219" xmlns="http://www.w3.org/2000/svg" viewBox="0 0 64 64">
  <path d="M0-.02v5h13.67l-4.63,7.68H0v6.66s.05-.02.08-.02h7c.62,0,1.12.51,1.12,1.13v7c0,.62-.5,1.13-1.12,1.13H.08s-.06-.02-.09-.02v17.89s63.97,0,63.97,0l-.09-18.49c-.04-8.43-7.24-15.28-16.04-15.28h-22.32l-4.63-7.68h43.11V-.02H0ZM17.28,8.69l2.39,3.97h-4.79l2.39-3.97ZM24.54,42.66h-3.44c-.62,0-1.12-.51-1.12-1.13v-21.01c0-.62.5-1.13,1.12-1.13h3.44v23.26ZM44.79,16.82h2.2c7.17,0,13,5.83,13,13.01v2.63h-13.2c-1.1,0-2-.9-2-2v-13.63ZM28.54,19.4h3.56c.62,0,1.12.51,1.12,1.13v21.01c0,.62-.5,1.13-1.12,1.13h-3.56v-23.26ZM54.02,54.43h3.25c3.26,0,5.99-2.26,6.58-5.25H0l.02,14.8h63.98v-5h-15.4c2.64-.16,4.82-2.05,5.42-4.55ZM47.86,58.98h-13.53c2.64-.16,4.82-2.05,5.42-4.55h2.68c.6,2.5,2.78,4.38,5.42,4.55ZM5.77,54.43h22.4c.6,2.5,2.78,4.38,5.42,4.55H.35c2.64-.16,4.82-2.05,5.42-4.55Z" fill="#1e1e1c"/>
</svg>