<?xml version="1.0" encoding="UTF-8"?>
<svg id="a" data-name="3219" xmlns="http://www.w3.org/2000/svg" viewBox="0 0 48 48">
  <path d="M18.56,23.43v-5.14h10.82v5.14h18.59v-8.48c0-1.11-.57-2.08-1.44-2.65-.72-.77-1.73-1.26-2.86-1.26h-8.5v-5.67C35.18,2.38,32.75-.04,29.77-.04h-11.58c-2.98,0-5.41,2.43-5.41,5.41v5.67H3.89C1.73,11.04-.03,12.8-.03,14.96v8.48h18.59ZM17.27,5.37c0-.5.41-.91.91-.91h11.58c.5,0,.91.41.91.91v5.67h-13.41v-5.67ZM45.32,25.93v18.11c0,2.16-1.7,3.91-3.78,3.91H6.41c-2.09,0-3.78-1.75-3.78-3.91v-18.11h15.93v1.9c0,1.57,1.28,2.85,2.85,2.85h5.12c1.57,0,2.85-1.28,2.85-2.85v-1.9h15.93ZM21.06,27.83v-7.04h5.82v7.04c0,.2-.16.35-.35.35h-5.12c-.19,0-.35-.16-.35-.35Z" fill="#1e1e1c"/>
</svg>