<?xml version="1.0" encoding="UTF-8"?>
<svg id="a" data-name="3219" xmlns="http://www.w3.org/2000/svg" viewBox="0 0 40 40">
  <path d="M39.99,11.69c0-2.04-1.67-3.7-3.72-3.7h-7.85V3.71C28.42,1.67,26.76,0,24.72,0h-9.45c-2.04,0-3.71,1.66-3.71,3.7v4.27H3.71C1.66,7.99,0,9.65,0,11.69v9.38h1.21v.06h.56v15.17c0,2.04,1.66,3.7,3.71,3.7h29.04c2.04,0,3.71-1.66,3.71-3.7v-15.17h.56v-.06h1.21v-9.38ZM13.81,3.71c0-.8.65-1.46,1.46-1.46h9.45c.8,0,1.46.65,1.46,1.46v4.27h-12.36V3.71ZM3.71,10.24h32.56c.81,0,1.47.65,1.47,1.45v7.2h-13.23v-2.58h-9.04v2.58H2.24v-7.2c0-.8.66-1.45,1.47-1.45ZM22.26,18.56v4.85c0,.1-.08.18-.18.18h-4.18c-.1,0-.18-.08-.18-.18v-4.85h4.54ZM35.97,36.3c0,.8-.65,1.46-1.46,1.46H5.47c-.8,0-1.46-.65-1.46-1.46v-15.17h11.46v2.27c0,1.34,1.09,2.43,2.43,2.43h4.18c1.34,0,2.43-1.09,2.43-2.43v-2.27h11.46v15.17Z" fill="#1e1e1c"/>
</svg>