<?xml version="1.0" encoding="UTF-8"?>
<svg id="a" data-name="3219" xmlns="http://www.w3.org/2000/svg" viewBox="0 0 64 64">
  <path d="M58.41,12.94h-13.23s0-7.38,0-7.38C45.18,2.5,42.69.01,39.63.01h-15.32c-3.06,0-5.56,2.49-5.56,5.55v7.39H5.56C2.49,12.96-.01,15.45-.01,18.51v14.88h2.75v-.04h.14v25.1c0,3.06,2.49,5.55,5.56,5.55h47.07c3.06,0,5.56-2.49,5.56-5.55v-25.1h.18v.02h2.75v-14.88c0-3.06-2.5-5.55-5.58-5.55ZM21.5,5.57c0-1.55,1.26-2.81,2.81-2.81h15.32c1.55,0,2.81,1.26,2.81,2.81v7.38h-20.93s0-7.38,0-7.38ZM58.31,58.46c0,1.55-1.26,2.81-2.81,2.81H8.43c-1.55,0-2.81-1.26-2.81-2.81v-25.1h19.46v4.13c0,1.93,1.57,3.49,3.49,3.49h6.77c1.93,0,3.49-1.57,3.49-3.49v-4.13h19.46v25.1ZM27.84,37.49v-8.31h8.26v8.31c0,.41-.33.74-.74.74h-6.77c-.41,0-.74-.33-.74-.74ZM38.85,30.61v-4.18h-13.76v4.18H2.74v-12.09c0-1.55,1.27-2.81,2.83-2.81l52.85-.02c1.56,0,2.83,1.26,2.83,2.81v12.11h-22.39Z" fill="#1e1e1c"/>
</svg>