<?xml version="1.0" encoding="UTF-8"?>
<svg id="a" data-name="3219" xmlns="http://www.w3.org/2000/svg" viewBox="0 0 40 40">
  <path d="M36.58,9.03h-6.51v-4.45C30.07,2.03,27.99-.05,25.43-.05h-9.67c-2.56,0-4.64,2.08-4.64,4.64v4.45H3.37C1.5,9.03-.02,10.55-.02,12.42v6.89h15.4v-4.29h9.2v4.29h15.4v-6.89c0-1.87-1.52-3.39-3.39-3.39ZM26.06,9.03h-10.94v-4.45c0-.35.29-.64.64-.64h9.67c.35,0,.64.29.64.64v4.45ZM24.58,21.56h13.08v14.99c0,1.87-1.47,3.39-3.28,3.39H5.06c-1.81,0-3.28-1.52-3.28-3.39v-14.99h13.61s0,1.49,0,1.49c0,1.36,1.1,2.46,2.46,2.46h4.27c1.36,0,2.46-1.1,2.46-2.46v-1.5ZM17.84,23.27c-.12,0-.21-.09-.21-.21v-5.79h4.69v5.79c0,.12-.09.21-.21.21h-4.27Z" fill="#1e1e1c"/>
</svg>