<?xml version="1.0" encoding="UTF-8"?>
<svg id="a" data-name="3219" xmlns="http://www.w3.org/2000/svg" viewBox="0 0 16 16">
  <path d="M15.99,4.83c0-.96-.78-1.75-1.75-1.75h-2.46v-1.33C11.79.79,11.01,0,10.04,0h-3.65c-.96,0-1.75.78-1.75,1.75v1.33H1.74C.78,3.08,0,3.87,0,4.83v3.96h.46v5.47c0,.96.78,1.75,1.75,1.75h11.53c.96,0,1.75-.78,1.75-1.75v-5.47h.51v-3.96ZM6.15,1.75c0-.13.11-.25.24-.25h3.65c.13,0,.24.11.24.25v1.33h-4.14v-1.33ZM1.74,4.58h12.51c.13,0,.24.11.24.25v2.46h-4.44v-1.3h-4.12v1.3H1.49v-2.46c0-.13.11-.25.24-.25ZM8.55,7.49v1.61h-1.12v-1.61h1.12ZM13.73,14.5H2.2c-.13,0-.25-.11-.25-.25v-5.47h3.97v.56c0,.69.56,1.25,1.26,1.25h1.61c.69,0,1.26-.56,1.26-1.25v-.56h3.93v5.47c0,.13-.11.25-.25.25Z" fill="#1e1e1c"/>
</svg>