<?xml version="1.0" encoding="UTF-8"?>
<svg id="a" data-name="3219" xmlns="http://www.w3.org/2000/svg" viewBox="0 0 24 24">
  <path d="M9.09,11.53v-2.41h5.82v2.41h9.1v-3.71c0-1.26-1.03-2.29-2.3-2.29h-3.47v-2.47C18.23,1.39,16.87.03,15.19.03h-5.66C7.84.03,6.48,1.39,6.48,3.07v2.47H2.3C1.03,5.54,0,6.56,0,7.82v3.71h9.08ZM9.53,3.02l5.7.04v2.47h-5.73l.03-2.51ZM22.66,13.28v8.46c0,1.26-1,2.29-2.23,2.29H3.26c-1.23,0-2.23-1.03-2.23-2.29v-8.46h8.06v.75c0,.91.74,1.65,1.66,1.65h2.5c.92,0,1.66-.74,1.66-1.65v-.75h7.75ZM10.84,13.93v-3.06h2.31v3.06h-2.31Z" fill="#1e1e1c"/>
</svg>