<?xml version="1.0" encoding="UTF-8"?>
<svg id="_x33_219" xmlns="http://www.w3.org/2000/svg" version="1.1" viewBox="0 0 64 64">
  <!-- Generator: Adobe Illustrator 29.0.1, SVG Export Plug-In . SVG Version: 2.1.0 Build 192)  -->
  <defs>
    <style>
      .st0 {
        fill: #1d1d1b;
      }
    </style>
  </defs>
  <path class="st0" d="M45.45.04H7.42v16.79H2.9C1.31,16.83.02,18.12.02,19.7v28.97c0,1.58,1.29,2.87,2.87,2.87h4.52v12.5h49.34V14.06L45.45.04ZM2.77,48.67v-28.97c0-.07.06-.12.12-.12h31.46c.07,0,.12.06.12.12v29.1H2.9c-.07,0-.12-.05-.12-.12ZM43.7,15.85c-1.52,0-2.76-1.23-2.76-2.76V1.42l12.44,14.44h-9.68ZM24.69,26.47h5.06l-2.97,16.55h-5.56l-2.57-10.67-2.66,10.67h-5.54l-2.95-16.55h5.08l1.25,11.13,2.33-11.13h4.96l2.66,11.2.91-11.2Z"/>
</svg>