<?xml version="1.0" encoding="UTF-8"?>
<svg id="_x33_219" xmlns="http://www.w3.org/2000/svg" version="1.1" viewBox="0 0 24 24">
  <!-- Generator: Adobe Illustrator 29.0.1, SVG Export Plug-In . SVG Version: 2.1.0 Build 192)  -->
  <defs>
    <style>
      .st0 {
        fill: #1d1d1b;
      }
    </style>
  </defs>
  <path class="st0" d="M17.01,0H2.64v5.96h-.28C1.05,5.97-.01,7.03-.01,8.34v9.01c0,1.31,1.07,2.38,2.38,2.38h.28v4.27h18.67V5.34L17.01,0ZM18.99,5.25h-2.8c-.07,0-.13-.06-.13-.13V1.76h.1l2.82,3.49ZM1.74,17.35v-9.01c0-.35.28-.63.63-.63h9.95c.35,0,.63.28.63.63v9.64H2.36c-.35,0-.63-.28-.63-.63ZM4.4,22.25v-2.52h10.29v-11.39c0-1.31-1.07-2.38-2.38-2.38h-7.91V1.76h9.93v3.37c0,1.04.84,1.88,1.88,1.88h3.37v15.25H4.4ZM9.62,9.95h1.9l-1.12,6.22h-2.09l-.97-4.01-1,4.01h-2.08l-1.11-6.22h1.91l.47,4.18.88-4.18h1.87l1,4.21.34-4.21Z"/>
</svg>