<?xml version="1.0" encoding="UTF-8"?>
<svg id="_x33_219" xmlns="http://www.w3.org/2000/svg" version="1.1" viewBox="0 0 16 16">
  <!-- Generator: Adobe Illustrator 29.0.1, SVG Export Plug-In . SVG Version: 2.1.0 Build 192)  -->
  <defs>
    <style>
      .st0 {
        fill: #1d1d1b;
      }
    </style>
  </defs>
  <path class="st0" d="M11.44,0H1.81v3.89C.77,4.09-.02,5.01-.02,6.1v5.01c0,1.1.79,2.01,1.83,2.21v2.67h12.53V3.59l-2.9-3.59ZM1.48,11.12v-5.01c0-.41.34-.75.75-.75h5.64c.41,0,.75.34.75.75v5.76H2.24c-.41,0-.75-.34-.75-.75ZM10.67,4.17c-.28,0-.5-.22-.5-.5V.75l2.92,3.42h-2.41ZM3.16,10.56l-.68-3.8h1.17l.29,2.55.53-2.55h1.14l.61,2.57.21-2.57h1.16l-.68,3.8h-1.28l-.59-2.45-.61,2.45h-1.27Z"/>
</svg>