<?xml version="1.0" encoding="UTF-8"?>
<svg id="_x33_219" xmlns="http://www.w3.org/2000/svg" version="1.1" viewBox="0 0 40 40">
  <!-- Generator: Adobe Illustrator 29.0.1, SVG Export Plug-In . SVG Version: 2.1.0 Build 192)  -->
  <defs>
    <style>
      .st0 {
        fill: #1d1d1b;
      }
    </style>
  </defs>
  <path class="st0" d="M29.64-.07H5.79v10.26h-3.17C1.17,10.2,0,11.38,0,12.82v17.02c0,1.45,1.18,2.63,2.63,2.63h3.17v7.46h30.96V8.75L29.64-.07ZM2.25,29.84V12.82c0-.21.17-.38.38-.38h18.57c.21,0,.38.17.38.38v17.39H2.62c-.21,0-.38-.17-.38-.38ZM28.43,9.96c-.94,0-1.7-.76-1.7-1.7V1.06l7.4,8.9h-5.7ZM15.7,16.5h3.17l-1.86,10.36h-3.48l-1.61-6.68-1.67,6.68h-3.47l-1.85-10.36h3.18l.78,6.97,1.46-6.97h3.11l1.67,7.01.57-7.01Z"/>
</svg>