<?xml version="1.0" encoding="UTF-8"?>
<svg id="_x33_219" xmlns="http://www.w3.org/2000/svg" version="1.1" viewBox="0 0 16 16">
  <!-- Generator: Adobe Illustrator 29.0.1, SVG Export Plug-In . SVG Version: 2.1.0 Build 192)  -->
  <defs>
    <style>
      .st0 {
        fill: #1d1d1b;
      }
    </style>
  </defs>
  <path class="st0" d="M11.42,0H1.79v3.87C.76,4.08-.02,4.99-.02,6.08v5.01c0,1.09.78,2,1.81,2.21v2.7h12.53V3.59l-2.9-3.59ZM10.9,1.75l1.34,1.67h-1.34v-1.67ZM1.48,11.09v-5.01c0-.41.34-.75.75-.75h5.64c.41,0,.75.34.75.75v5.76H2.23c-.41,0-.75-.34-.75-.75ZM3.29,14.5v-1.15h6.83v-7.27c0-1.24-1.01-2.26-2.26-2.26H3.29V1.5h6.1v2.16c0,.69.56,1.25,1.25,1.25h2.16v9.58H3.29ZM3,10.8l-.74-4.15h1.27l.31,2.79.58-2.79h1.24l.67,2.81.23-2.81h1.27l-.75,4.15h-1.39l-.64-2.68-.67,2.68h-1.39Z"/>
</svg>