<?xml version="1.0" encoding="UTF-8"?>
<svg id="a" data-name="3219" xmlns="http://www.w3.org/2000/svg" viewBox="0 0 48 48">
  <path d="M48.01,4.62v-2.36c-1.24,0-2.25-1.01-2.25-2.25h-2.36c0,1.24-1.01,2.25-2.25,2.25S38.91,1.25,38.91,0h-2.36c0,1.24-1.01,2.25-2.25,2.25S32.05,1.25,32.05,0h-2.36c0,1.24-1.01,2.25-2.25,2.25S25.19,1.25,25.19,0h-2.36c0,1.24-1.01,2.25-2.25,2.25S18.33,1.25,18.33,0h-2.36c0,1.24-1.01,2.25-2.25,2.25S11.48,1.25,11.48,0h-2.36c0,1.24-1.01,2.25-2.25,2.25S4.62,1.25,4.62,0h-2.36C2.26,1.25,1.26,2.26.01,2.26v2.36c1.24,0,2.25,1.01,2.25,2.25S1.26,9.12.01,9.12v2.37c1.24,0,2.25,1.01,2.25,2.25S1.26,15.99.01,15.99v2.36c1.24,0,2.25,1.01,2.25,2.25S1.26,22.85.01,22.85v2.37c1.24,0,2.25,1.01,2.25,2.25S1.26,29.72.01,29.72v2.37c1.24,0,2.25,1.01,2.25,2.25s-1.01,2.25-2.25,2.25v2.36c1.24,0,2.25,1.01,2.25,2.25s-1.01,2.25-2.25,2.25v2.37c1.22,0,2.21.98,2.24,2.19h2.37c0-1.24,1.01-2.25,2.25-2.25s2.25,1.01,2.25,2.25h2.36c0-1.24,1.01-2.25,2.25-2.25s2.25,1.01,2.25,2.25h2.36c0-1.24,1.01-2.25,2.25-2.25s2.25,1.01,2.25,2.25h2.36c0-1.24,1.01-2.25,2.25-2.25s2.25,1.01,2.25,2.25h2.36c0-1.24,1.01-2.25,2.25-2.25s2.25,1.01,2.25,2.25h2.36c0-1.24,1.01-2.25,2.25-2.25s2.25,1.01,2.25,2.25h2.36c0-1.24,1.01-2.25,2.25-2.25v-2.31c-1.24,0-2.25-1.01-2.25-2.25s1.01-2.25,2.25-2.25v-2.36c-1.24,0-2.25-1.01-2.25-2.25s1.01-2.25,2.25-2.25v-2.37c-1.24,0-2.25-1.01-2.25-2.25s1.01-2.25,2.25-2.25v-2.37c-1.24,0-2.25-1.01-2.25-2.25s1.01-2.25,2.25-2.25v-2.36c-1.24,0-2.25-1.01-2.25-2.25s1.01-2.25,2.25-2.25v-2.37c-1.24,0-2.25-1.01-2.25-2.25s1.01-2.25,2.25-2.25ZM43.51,43.51H4.51V4.51h39v39ZM19.62,29.52h9.8l2.36,6.76h5.51l-9.88-26.22h-5.74l-9.8,26.22h5.39l2.36-6.76ZM24.52,15.43l3.42,9.84h-6.84l3.42-9.84Z" fill="#1d1d1b"/>
</svg>