<?xml version="1.0" encoding="UTF-8"?>
<svg id="a" data-name="3219" xmlns="http://www.w3.org/2000/svg" viewBox="0 0 40 40">
  <path d="M35.75,4.2H4.24v31.5h31.5V4.2ZM26.06,29.67l-1.86-5.34h-7.74l-1.86,5.34h-4.26l7.74-20.7h4.53l7.8,20.7h-4.35ZM20.33,13.2l2.7,7.77h-5.4l2.7-7.77ZM40,3.79v-1.97c-1.04,0-1.88-.84-1.88-1.88h-1.96c0,1.04-.84,1.88-1.88,1.88s-1.88-.84-1.88-1.88h-1.96c0,1.04-.84,1.88-1.88,1.88s-1.88-.84-1.88-1.88h-1.96c0,1.04-.84,1.88-1.88,1.88s-1.88-.84-1.88-1.88h-1.96c0,1.04-.84,1.88-1.88,1.88s-1.88-.84-1.88-1.88h-1.96c0,1.04-.84,1.88-1.88,1.88s-1.88-.84-1.88-1.88h-1.96c0,1.04-.84,1.88-1.88,1.88S3.83.98,3.83-.06h-1.96C1.87.98,1.03,1.82,0,1.82v1.97c1.04,0,1.88.84,1.88,1.88S1.03,7.54,0,7.54v1.97c1.04,0,1.88.84,1.88,1.88S1.03,13.26,0,13.26v1.97c1.04,0,1.88.84,1.88,1.88s-.84,1.88-1.88,1.88v1.97c1.04,0,1.88.84,1.88,1.88s-.84,1.88-1.88,1.88v1.97c1.04,0,1.88.84,1.88,1.88s-.84,1.88-1.88,1.88v1.97c1.04,0,1.88.84,1.88,1.88s-.84,1.88-1.88,1.88v1.97c1.02,0,1.84.82,1.87,1.83h1.97c0-1.04.84-1.88,1.88-1.88s1.88.84,1.88,1.88h1.96c0-1.04.84-1.88,1.88-1.88s1.88.84,1.88,1.88h1.96c0-1.04.84-1.88,1.88-1.88s1.88.84,1.88,1.88h1.96c0-1.04.84-1.88,1.88-1.88s1.88.84,1.88,1.88h1.96c0-1.04.84-1.88,1.88-1.88s1.88.84,1.88,1.88h1.96c0-1.04.84-1.88,1.88-1.88s1.88.84,1.88,1.88h1.96c0-1.04.84-1.88,1.88-1.88v-1.92c-1.04,0-1.88-.84-1.88-1.88s.84-1.88,1.88-1.88v-1.97c-1.04,0-1.88-.84-1.88-1.88s.84-1.88,1.88-1.88v-1.97c-1.04,0-1.88-.84-1.88-1.88s.84-1.88,1.88-1.88v-1.97c-1.04,0-1.88-.84-1.88-1.88s.84-1.88,1.88-1.88v-1.97c-1.04,0-1.88-.84-1.88-1.88s.84-1.88,1.88-1.88v-1.97c-1.04,0-1.88-.84-1.88-1.88s.84-1.88,1.88-1.88ZM36.75,36.7H3.24V3.2h33.5v33.5Z" fill="#1d1d1b"/>
</svg>