<?xml version="1.0" encoding="UTF-8"?>
<svg id="a" data-name="3219" xmlns="http://www.w3.org/2000/svg" viewBox="0 0 16 16">
  <path d="M14.25,1.75H1.75v12.5h12.5V1.75ZM10.5,11.8l-.74-2.13h-3.09l-.74,2.13h-1.7L7.31,3.53h1.81l3.12,8.28h-1.74ZM8.21,5.22l1.08,3.11h-2.16l1.08-3.11ZM16,1.54v-.79c-.41,0-.75-.34-.75-.75h-.79c0,.41-.34.75-.75.75s-.75-.34-.75-.75h-.79c0,.41-.34.75-.75.75s-.75-.34-.75-.75h-.79c0,.41-.34.75-.75.75s-.75-.34-.75-.75h-.79c0,.41-.34.75-.75.75s-.75-.34-.75-.75h-.79c0,.41-.34.75-.75.75s-.75-.34-.75-.75h-.79c0,.41-.34.75-.75.75s-.75-.34-.75-.75h-.79C.75.41.41.75,0,.75v.79c.41,0,.75.34.75.75S.41,3.04,0,3.04v.79c.41,0,.75.34.75.75S.41,5.33,0,5.33v.79c.41,0,.75.34.75.75S.41,7.62,0,7.62v.79c.41,0,.75.34.75.75s-.34.75-.75.75v.79c.41,0,.75.34.75.75s-.34.75-.75.75v.79c.41,0,.75.34.75.75s-.34.75-.75.75v.79c.41,0,.74.33.75.73h.79c0-.41.34-.75.75-.75s.75.34.75.75h.79c0-.41.34-.75.75-.75s.75.34.75.75h.79c0-.41.34-.75.75-.75s.75.34.75.75h.79c0-.41.34-.75.75-.75s.75.34.75.75h.79c0-.41.34-.75.75-.75s.75.34.75.75h.79c0-.41.34-.75.75-.75s.75.34.75.75h.79c0-.41.34-.75.75-.75v-.77c-.41,0-.75-.34-.75-.75s.34-.75.75-.75v-.79c-.41,0-.75-.34-.75-.75s.34-.75.75-.75v-.79c-.41,0-.75-.34-.75-.75s.34-.75.75-.75v-.79c-.41,0-.75-.34-.75-.75s.34-.75.75-.75v-.79c-.41,0-.75-.34-.75-.75s.34-.75.75-.75v-.79c-.41,0-.75-.34-.75-.75s.34-.75.75-.75ZM14.75,14.75H1.25V1.25h13.5v13.5Z" fill="#1d1d1b"/>
</svg>