<?xml version="1.0" encoding="UTF-8"?>
<svg id="a" data-name="3219" xmlns="http://www.w3.org/2000/svg" viewBox="0 0 16 16">
  <path d="M16.01,1.54v-.79c-.41,0-.75-.34-.75-.75h-.79c0,.41-.34.75-.75.75s-.75-.34-.75-.75h-.79c0,.41-.34.75-.75.75s-.75-.34-.75-.75h-.79c0,.41-.34.75-.75.75s-.75-.34-.75-.75h-.79c0,.41-.34.75-.75.75s-.75-.34-.75-.75h-.79c0,.41-.34.75-.75.75s-.75-.34-.75-.75h-.79c0,.41-.34.75-.75.75s-.75-.34-.75-.75h-.79C.76.41.43.75.01.75v.79c.41,0,.75.34.75.75S.43,3.04.01,3.04v.79c.41,0,.75.34.75.75s-.34.75-.75.75v.79c.41,0,.75.34.75.75s-.34.75-.75.75v.79c.41,0,.75.34.75.75s-.34.75-.75.75v.79c.41,0,.75.34.75.75s-.34.75-.75.75v.79c.41,0,.75.34.75.75s-.34.75-.75.75v.79c.41,0,.74.33.75.73h.79c0-.41.34-.75.75-.75s.75.34.75.75h.79c0-.41.34-.75.75-.75s.75.34.75.75h.79c0-.41.34-.75.75-.75s.75.34.75.75h.79c0-.41.34-.75.75-.75s.75.34.75.75h.79c0-.41.34-.75.75-.75s.75.34.75.75h.79c0-.41.34-.75.75-.75s.75.34.75.75h.79c0-.41.34-.75.75-.75v-.77c-.41,0-.75-.34-.75-.75s.34-.75.75-.75v-.79c-.41,0-.75-.34-.75-.75s.34-.75.75-.75v-.79c-.41,0-.75-.34-.75-.75s.34-.75.75-.75v-.79c-.41,0-.75-.34-.75-.75s.34-.75.75-.75v-.79c-.41,0-.75-.34-.75-.75s.34-.75.75-.75v-.79c-.41,0-.75-.34-.75-.75s.34-.75.75-.75ZM14.51,14.5H1.51V1.5h13v13ZM6.5,9.56h3.09l.74,2.13h1.74l-3.12-8.28h-1.81l-3.09,8.28h1.7l.74-2.13ZM8.05,5.11l1.08,3.11h-2.16l1.08-3.11Z" fill="#1d1d1b"/>
</svg>