<?xml version="1.0" encoding="UTF-8"?>
<svg id="a" data-name="3219" xmlns="http://www.w3.org/2000/svg" viewBox="0 0 16 16">
  <path d="M14.59,11.23l1.39-6.61c.08-.38-.02-.76-.26-1.06-.24-.3-.6-.47-.98-.47H3.04L2.67,0H0v1.5h1.33l1.54,12.79h1.16c-.01.07-.02.14-.02.21,0,.83.67,1.5,1.5,1.5s1.5-.67,1.5-1.5c0-.07-.01-.14-.02-.21h3.73c-.01.07-.02.14-.02.21,0,.83.67,1.5,1.5,1.5s1.5-.67,1.5-1.5c0-.07-.01-.14-.02-.21h1.33v-1.5H4.2l-.19-1.55h10.57ZM10.41,7.89v1.84h-3v-1.84h3ZM7.41,6.39v-1.8h3v1.8h-3ZM11.91,9.73v-1.84h1.85l-.39,1.84h-1.46ZM14.07,6.39h-2.16v-1.8h2.54l-.38,1.8ZM5.91,4.59v1.8h-2.47l-.22-1.8h2.69ZM3.61,7.89h2.29v1.84h-2.07l-.22-1.84Z" fill="#1e1e1c"/>
</svg>