<?xml version="1.0" encoding="UTF-8"?>
<svg id="a" data-name="3219" xmlns="http://www.w3.org/2000/svg" viewBox="0 0 64 64">
  <path d="M63.08,14.06c-.78-.96-1.93-1.51-3.16-1.51H10.83L9.36-.07H-.01v2.76h6.92l6.36,54.26h5.64c-.51.72-.81,1.6-.81,2.55,0,2.45,1.99,4.44,4.43,4.44s4.43-1.99,4.43-4.44c0-.95-.3-1.82-.81-2.55h19.98c-.51.72-.81,1.6-.81,2.55,0,2.45,1.99,4.44,4.43,4.44s4.43-1.99,4.43-4.44c0-.95-.3-1.82-.81-2.55h5.03v-2.76H15.72l-1.07-9.11h44.05l5.2-27.62c.25-1.21-.05-2.45-.82-3.4ZM22.53,61.17c-.93,0-1.68-.75-1.68-1.68s.75-1.68,1.68-1.68,1.68.75,1.68,1.68-.75,1.68-1.68,1.68ZM49.74,61.17c-.93,0-1.68-.75-1.68-1.68s.75-1.68,1.68-1.68,1.68.75,1.68,1.68-.75,1.68-1.68,1.68ZM60.94,15.79c.25.31.35.71.26,1.13l-1.05,5.55h-12.71v-7.17h12.48c.4,0,.77.18,1.02.49ZM28.96,32.4v-7.17h15.73v7.17h-15.73ZM44.7,35.16v7.17h-15.73v-7.17h15.73ZM12.32,25.23h13.89v7.17h-13.05l-.84-7.17ZM28.96,22.48v-7.17h15.73v7.17h-15.73ZM47.45,25.23h12.19l-1.35,7.17h-10.84v-7.17ZM26.21,15.31v7.17h-14.21l-.84-7.17h15.05ZM13.48,35.16h12.73v7.17h-11.89l-.84-7.17ZM47.45,42.33v-7.17h10.32l-1.35,7.17h-8.97Z" fill="#1e1e1c"/>
</svg>