<?xml version="1.0" encoding="UTF-8"?>
<svg id="a" data-name="3219" xmlns="http://www.w3.org/2000/svg" viewBox="0 0 40 40">
  <path d="M37.87,7.17H2.13C.95,7.17,0,8.12,0,9.29v21.42c0,1.17.95,2.12,2.13,2.12h35.75c1.17,0,2.13-.95,2.13-2.12V9.29c0-1.17-.95-2.12-2.13-2.12ZM24.74,12.17h2.25v2.25h-2.25v-2.25ZM24.74,16.94h2.25v2.25h-2.25v-2.25ZM24.74,21.72h2.25v2.25h-2.25v-2.25ZM20.84,12.17h2.25v2.25h-2.25v-2.25ZM20.84,16.94h2.25v2.25h-2.25v-2.25ZM20.84,21.72h2.25v2.25h-2.25v-2.25ZM16.95,12.17h2.25v2.25h-2.25v-2.25ZM16.95,16.94h2.25v2.25h-2.25v-2.25ZM16.95,21.72h2.25v2.25h-2.25v-2.25ZM13.05,12.17h2.25v2.25h-2.25v-2.25ZM13.05,16.94h2.25v2.25h-2.25v-2.25ZM13.05,21.72h2.25v2.25h-2.25v-2.25ZM9.15,12.17h2.25v2.25h-2.25v-2.25ZM9.15,16.94h2.25v2.25h-2.25v-2.25ZM9.15,21.72h2.25v2.25h-2.25v-2.25ZM7.51,28.74h-2.25v-2.25h2.25v2.25ZM7.51,23.97h-2.25v-2.25h2.25v2.25ZM7.51,19.19h-2.25v-2.25h2.25v2.25ZM7.51,14.42h-2.25v-2.25h2.25v2.25ZM30.89,28.74H9.15v-2.25h21.73v2.25ZM30.89,23.97h-2.25v-2.25h2.25v2.25ZM30.89,19.19h-2.25v-2.25h2.25v2.25ZM30.89,14.42h-2.25v-2.25h2.25v2.25ZM34.78,28.74h-2.25v-2.25h2.25v2.25ZM34.78,23.97h-2.25v-2.25h2.25v2.25ZM34.78,19.19h-2.25v-2.25h2.25v2.25ZM34.78,14.42h-2.25v-2.25h2.25v2.25Z" fill="#1e1e1c"/>
</svg>