<?xml version="1.0" encoding="UTF-8"?>
<svg id="a" data-name="3219" xmlns="http://www.w3.org/2000/svg" viewBox="0 0 32 32">
  <path d="M29.5,5.67H2.5c-1.38,0-2.5,1.12-2.5,2.5v15.63c0,1.38,1.12,2.5,2.5,2.5h27c1.38,0,2.5-1.12,2.5-2.5v-15.63c0-1.38-1.12-2.5-2.5-2.5ZM30,23.8c0,.28-.22.5-.5.5H2.5c-.28,0-.5-.22-.5-.5v-15.63c0-.28.22-.5.5-.5h27c.28,0,.5.22.5.5v15.63ZM7.79,21.04h16.45v2H7.79v-2ZM4.18,13.45h2v2h-2v-2ZM9.79,15.45h-2v-2h2v2ZM13.4,15.45h-2v-2h2v2ZM22.24,13.45h2v2h-2v-2ZM25.85,13.45h2v2h-2v-2ZM4.18,17.25h2v2h-2v-2ZM9.79,19.25h-2v-2h2v2ZM13.4,19.25h-2v-2h2v2ZM17.02,15.45h-2v-2h2v2ZM17.02,19.25h-2v-2h2v2ZM20.63,15.45h-2v-2h2v2ZM4.18,9.65h2v2h-2v-2ZM9.79,11.65h-2v-2h2v2ZM13.4,11.65h-2v-2h2v2ZM22.24,9.65h2v2h-2v-2ZM25.85,9.65h2v2h-2v-2ZM17.02,11.65h-2v-2h2v2ZM20.63,11.65h-2v-2h2v2ZM20.63,19.25h-2v-2h2v2ZM22.24,17.25h2v2h-2v-2ZM25.85,17.25h2v2h-2v-2ZM4.18,21.04h2v2h-2v-2ZM25.85,21.04h2v2h-2v-2Z" fill="#1e1e1c"/>
</svg>