<?xml version="1.0" encoding="UTF-8"?>
<svg id="a" data-name="3219" xmlns="http://www.w3.org/2000/svg" viewBox="0 0 64 64">
  <path d="M60.11,11.63H3.87C1.73,11.63,0,13.37,0,15.5v33c0,2.14,1.74,3.88,3.88,3.88h56.25c2.14,0,3.88-1.74,3.88-3.88V15.5c0-2.14-1.74-3.88-3.88-3.88ZM42.21,18.26h2.75v2.75h-2.75v-2.75ZM42.21,24.44h2.75v2.75h-2.75v-2.75ZM42.21,30.62h2.75v2.75h-2.75v-2.75ZM42.21,36.8h2.75v2.75h-2.75v-2.75ZM36.43,18.26h2.75v2.75h-2.75v-2.75ZM36.43,24.44h2.75v2.75h-2.75v-2.75ZM36.43,30.62h2.75v2.75h-2.75v-2.75ZM36.43,36.8h2.75v2.75h-2.75v-2.75ZM30.65,18.26h2.75v2.75h-2.75v-2.75ZM30.65,24.44h2.75v2.75h-2.75v-2.75ZM30.65,30.62h2.75v2.75h-2.75v-2.75ZM30.65,36.8h2.75v2.75h-2.75v-2.75ZM24.87,18.26h2.75v2.75h-2.75v-2.75ZM24.87,24.44h2.75v2.75h-2.75v-2.75ZM24.87,30.62h2.75v2.75h-2.75v-2.75ZM24.87,36.8h2.75v2.75h-2.75v-2.75ZM19.09,18.26h2.75v2.75h-2.75v-2.75ZM19.09,24.44h2.75v2.75h-2.75v-2.75ZM19.09,30.62h2.75v2.75h-2.75v-2.75ZM19.09,36.8h2.75v2.75h-2.75v-2.75ZM13.3,18.26h2.75v2.75h-2.75v-2.75ZM13.3,24.44h2.75v2.75h-2.75v-2.75ZM13.3,30.62h2.75v2.75h-2.75v-2.75ZM10.27,45.73h-2.75v-2.75h2.75v2.75ZM10.27,39.55h-2.75v-2.75h2.75v2.75ZM10.27,33.37h-2.75v-2.75h2.75v2.75ZM10.27,27.19h-2.75v-2.75h2.75v2.75ZM10.27,21.01h-2.75v-2.75h2.75v2.75ZM13.3,36.8h2.75v2.75h-2.75v-2.75ZM49.65,45.73H14.39v-2.75h35.26v2.75ZM50.74,39.55h-2.75v-2.75h2.75v2.75ZM50.74,33.37h-2.75v-2.75h2.75v2.75ZM50.74,27.19h-2.75v-2.75h2.75v2.75ZM50.74,21.01h-2.75v-2.75h2.75v2.75ZM56.53,45.73h-2.75v-2.75h2.75v2.75ZM56.53,39.55h-2.75v-2.75h2.75v2.75ZM56.53,33.37h-2.75v-2.75h2.75v2.75ZM56.53,27.19h-2.75v-2.75h2.75v2.75ZM56.53,21.01h-2.75v-2.75h2.75v2.75Z" fill="#1e1e1c"/>
</svg>