<?xml version="1.0" encoding="UTF-8"?>
<svg id="a" data-name="3219" xmlns="http://www.w3.org/2000/svg" viewBox="0 0 16 16">
  <path d="M14.74,2.75H1.24C.55,2.75,0,3.31,0,4v8c0,.69.56,1.25,1.25,1.25h13.5c.69,0,1.25-.56,1.25-1.25V4c0-.69-.56-1.25-1.25-1.25ZM7.25,4.99h1.5v1.5h-1.5v-1.5ZM7.25,7.22h1.5v1.5h-1.5v-1.5ZM4.63,4.99h1.5v1.5h-1.5v-1.5ZM4.63,7.22h1.5v1.5h-1.5v-1.5ZM3.51,11.01h-1.5v-1.5h1.5v1.5ZM3.51,8.72h-1.5v-1.5h1.5v1.5ZM3.51,6.49h-1.5v-1.5h1.5v1.5ZM11.37,11.01h-6.74v-1.5h6.74v1.5ZM11.37,8.72h-1.5v-1.5h1.5v1.5ZM11.37,6.49h-1.5v-1.5h1.5v1.5ZM13.99,11.01h-1.5v-1.5h1.5v1.5ZM13.99,8.72h-1.5v-1.5h1.5v1.5ZM13.99,6.49h-1.5v-1.5h1.5v1.5Z" fill="#1e1e1c"/>
</svg>