<?xml version="1.0" encoding="UTF-8"?>
<svg id="a" data-name="3219" xmlns="http://www.w3.org/2000/svg" viewBox="0 0 24 24">
  <path d="M22.11,4.22H1.87C.83,4.22,0,5.06,0,6.1v11.8c0,1.03.84,1.88,1.88,1.88h20.25c1.03,0,1.88-.84,1.88-1.88V6.1c0-1.03-.84-1.88-1.88-1.88ZM12.74,7.65h1.75v1.75h-1.75v-1.75ZM12.74,11.08h1.75v1.75h-1.75v-1.75ZM9.52,7.65h1.75v1.75h-1.75v-1.75ZM9.52,11.08h1.75v1.75h-1.75v-1.75ZM6.31,7.65h1.75v1.75h-1.75v-1.75ZM6.31,11.08h1.75v1.75h-1.75v-1.75ZM4.84,16.35h-1.75v-1.75h1.75v1.75ZM4.84,12.83h-1.75v-1.75h1.75v1.75ZM4.84,9.4h-1.75v-1.75h1.75v1.75ZM17.7,16.35H6.31v-1.75h11.4v1.75ZM17.7,12.83h-1.75v-1.75h1.75v1.75ZM17.7,9.4h-1.75v-1.75h1.75v1.75ZM20.92,16.35h-1.75v-1.75h1.75v1.75ZM20.92,12.83h-1.75v-1.75h1.75v1.75ZM20.92,9.4h-1.75v-1.75h1.75v1.75Z" fill="#1e1e1c"/>
</svg>