<?xml version="1.0" encoding="UTF-8"?>
<svg id="a" data-name="3219" xmlns="http://www.w3.org/2000/svg" viewBox="0 0 40 40">
  <path d="M37.87,7.18H2.13c-1.17,0-2.13.95-2.13,2.12v21.42c0,1.17.95,2.12,2.13,2.12h35.75c1.17,0,2.13-.95,2.13-2.12V9.3c0-1.17-.95-2.12-2.13-2.12ZM37.75,30.6H2.25V9.43h35.5v21.17ZM30.89,28.75H9.15v-2.25h21.73v2.25ZM7.51,19.2h-2.25v-2.25h2.25v2.25ZM11.41,19.2h-2.25v-2.25h2.25v2.25ZM15.3,19.2h-2.25v-2.25h2.25v2.25ZM30.89,19.2h-2.25v-2.25h2.25v2.25ZM34.78,19.2h-2.25v-2.25h2.25v2.25ZM7.51,23.98h-2.25v-2.25h2.25v2.25ZM11.41,23.98h-2.25v-2.25h2.25v2.25ZM15.3,23.98h-2.25v-2.25h2.25v2.25ZM19.2,19.2h-2.25v-2.25h2.25v2.25ZM19.2,23.98h-2.25v-2.25h2.25v2.25ZM23.09,19.2h-2.25v-2.25h2.25v2.25ZM7.51,14.43h-2.25v-2.25h2.25v2.25ZM11.41,14.43h-2.25v-2.25h2.25v2.25ZM15.3,14.43h-2.25v-2.25h2.25v2.25ZM30.89,14.43h-2.25v-2.25h2.25v2.25ZM34.78,14.43h-2.25v-2.25h2.25v2.25ZM19.2,14.43h-2.25v-2.25h2.25v2.25ZM23.09,14.43h-2.25v-2.25h2.25v2.25ZM23.09,23.98h-2.25v-2.25h2.25v2.25ZM26.99,19.2h-2.25v-2.25h2.25v2.25ZM26.99,14.43h-2.25v-2.25h2.25v2.25ZM26.99,23.98h-2.25v-2.25h2.25v2.25ZM30.89,23.98h-2.25v-2.25h2.25v2.25ZM34.78,23.98h-2.25v-2.25h2.25v2.25ZM7.51,28.75h-2.25v-2.25h2.25v2.25ZM34.78,28.75h-2.25v-2.25h2.25v2.25Z" fill="#1e1e1c"/>
</svg>