<?xml version="1.0" encoding="UTF-8"?>
<svg id="a" data-name="3219" xmlns="http://www.w3.org/2000/svg" viewBox="0 0 24 24">
  <path d="M22.12,4.22H1.88c-1.03,0-1.88.84-1.88,1.88v11.8c0,1.03.84,1.88,1.88,1.88h20.25c1.03,0,1.88-.84,1.88-1.88V6.1c0-1.03-.84-1.88-1.88-1.88ZM22.25,17.9c0,.07-.06.12-.13.12H1.88c-.07,0-.13-.06-.13-.12V6.1c0-.07.06-.12.13-.12h20.25c.07,0,.13.06.13.12v11.8ZM6.31,14.6h11.4v1.75H6.31v-1.75ZM3.1,7.65h1.75v1.75h-1.75v-1.75ZM8.06,9.4h-1.75v-1.75h1.75v1.75ZM11.28,9.4h-1.75v-1.75h1.75v1.75ZM15.96,7.65h1.75v1.75h-1.75v-1.75ZM19.17,7.65h1.75v1.75h-1.75v-1.75ZM3.1,11.08h1.75v1.75h-1.75v-1.75ZM8.06,12.83h-1.75v-1.75h1.75v1.75ZM11.28,12.83h-1.75v-1.75h1.75v1.75ZM14.5,9.4h-1.75v-1.75h1.75v1.75ZM14.5,12.83h-1.75v-1.75h1.75v1.75ZM15.96,11.08h1.75v1.75h-1.75v-1.75ZM19.17,11.08h1.75v1.75h-1.75v-1.75ZM3.1,14.6h1.75v1.75h-1.75v-1.75ZM19.17,14.6h1.75v1.75h-1.75v-1.75Z" fill="#1e1e1c"/>
</svg>