<?xml version="1.0" encoding="UTF-8"?>
<svg id="a" data-name="3219" xmlns="http://www.w3.org/2000/svg" viewBox="0 0 16 16">
  <path d="M14.76,2.75H1.26C.57,2.75,0,3.31,0,4v8c0,.69.56,1.25,1.25,1.25h13.5c.69,0,1.25-.56,1.25-1.25V4c0-.69-.56-1.25-1.25-1.25ZM14.51,11.75H1.51v-7.5h13v7.5ZM11.38,11.01h-6.74v-1.5h6.74v1.5ZM3.53,6.49h-1.5v-1.5h1.5v1.5ZM6.15,6.49h-1.5v-1.5h1.5v1.5ZM8.77,6.49h-1.5v-1.5h1.5v1.5ZM11.38,6.49h-1.5v-1.5h1.5v1.5ZM14,6.49h-1.5v-1.5h1.5v1.5ZM3.53,8.72h-1.5v-1.5h1.5v1.5ZM6.15,8.72h-1.5v-1.5h1.5v1.5ZM8.77,8.72h-1.5v-1.5h1.5v1.5ZM11.38,8.72h-1.5v-1.5h1.5v1.5ZM14,8.72h-1.5v-1.5h1.5v1.5ZM3.53,11.01h-1.5v-1.5h1.5v1.5ZM14,11.01h-1.5v-1.5h1.5v1.5Z" fill="#1e1e1c"/>
</svg>