<?xml version="1.0" encoding="UTF-8"?>
<svg id="a" data-name="3219" xmlns="http://www.w3.org/2000/svg" viewBox="0 0 48 48">
  <path d="M44.74,8.62H3.24C1.45,8.62,0,10.08,0,11.87v24.24c0,1.79,1.46,3.25,3.25,3.25h41.5c1.79,0,3.25-1.46,3.25-3.25V11.87c0-1.79-1.46-3.25-3.25-3.25ZM34.51,13.55h2.5v2.5h-2.5v-2.5ZM34.51,18.15h2.5v2.5h-2.5v-2.5ZM34.51,22.74h2.5v2.5h-2.5v-2.5ZM34.51,27.33h2.5v2.5h-2.5v-2.5ZM29.81,13.55h2.5v2.5h-2.5v-2.5ZM29.81,18.15h2.5v2.5h-2.5v-2.5ZM29.81,22.74h2.5v2.5h-2.5v-2.5ZM29.81,27.33h2.5v2.5h-2.5v-2.5ZM25.11,13.55h2.5v2.5h-2.5v-2.5ZM25.11,18.15h2.5v2.5h-2.5v-2.5ZM25.11,22.74h2.5v2.5h-2.5v-2.5ZM25.11,27.33h2.5v2.5h-2.5v-2.5ZM20.42,13.55h2.5v2.5h-2.5v-2.5ZM20.42,18.15h2.5v2.5h-2.5v-2.5ZM20.42,22.74h2.5v2.5h-2.5v-2.5ZM20.42,27.33h2.5v2.5h-2.5v-2.5ZM15.72,13.55h2.5v2.5h-2.5v-2.5ZM15.72,18.15h2.5v2.5h-2.5v-2.5ZM15.72,22.74h2.5v2.5h-2.5v-2.5ZM15.72,27.33h2.5v2.5h-2.5v-2.5ZM11.03,13.55h2.5v2.5h-2.5v-2.5ZM11.03,18.15h2.5v2.5h-2.5v-2.5ZM11.03,22.74h2.5v2.5h-2.5v-2.5ZM11.03,27.33h2.5v2.5h-2.5v-2.5ZM8.83,34.43h-2.5v-2.5h2.5v2.5ZM8.83,29.83h-2.5v-2.5h2.5v2.5ZM8.83,25.24h-2.5v-2.5h2.5v2.5ZM8.83,20.65h-2.5v-2.5h2.5v2.5ZM8.83,16.05h-2.5v-2.5h2.5v2.5ZM37.11,34.43H10.92v-2.5h26.19v2.5ZM41.7,34.43h-2.5v-2.5h2.5v2.5ZM41.7,29.83h-2.5v-2.5h2.5v2.5ZM41.7,25.24h-2.5v-2.5h2.5v2.5ZM41.7,20.65h-2.5v-2.5h2.5v2.5ZM41.7,16.05h-2.5v-2.5h2.5v2.5Z" fill="#1e1e1c"/>
</svg>