<?xml version="1.0" encoding="UTF-8"?>
<svg id="a" data-name="3219" xmlns="http://www.w3.org/2000/svg" viewBox="0 0 48 48">
  <path d="M23.98.01C11.6.01,2.27,8.67,2.27,20.16c0,6.73,3.18,13.13,8.53,17.23v7.87c0,1.52,1.23,2.75,2.75,2.75h22.05c1.52,0,2.75-1.23,2.75-2.75v-8.83c4.68-4.13,7.35-10.03,7.35-16.27C45.7,8.67,36.36.01,23.98.01ZM38.35,32.9v-2.41c0-.69-.56-1.25-1.25-1.25s-1.25.56-1.25,1.25v14.77c0,.14-.11.25-.25.25h-1.94v-6.55h-2.5v6.55h-2.8v-6.65h-2.5v6.65h-2.8v-6.65h-2.5v6.65h-2.8v-6.65h-2.5v6.65h-1.7c-.14,0-.25-.11-.25-.25v-14.77c0-.69-.56-1.25-1.25-1.25s-1.25.56-1.25,1.25v3.61c-3.81-3.61-6.03-8.65-6.03-13.94C4.77,10.59,11.85,3.47,21.89,2.61l-1.92,3.76,3.64,3.35,1.7-1.84-2.24-2.06,1.67-3.27c10.74.33,18.46,7.62,18.46,17.61,0,4.74-1.74,9.24-4.84,12.73ZM19.65,24.09c-.91.91-3.11,3.11-5.66,3.11-1.14,0-2.34-.44-3.53-1.63-2.94-2.94-2.94-7.73,0-10.68,2.94-2.95,7.73-2.94,10.68,0,3.85,3.85-.16,7.87-1.48,9.19ZM37.53,25.84c-1.19,1.19-2.4,1.63-3.53,1.63-2.55,0-4.75-2.2-5.66-3.11-1.32-1.32-5.34-5.34-1.48-9.19,2.94-2.95,7.73-2.94,10.68,0,2.94,2.94,2.94,7.73,0,10.68ZM26.77,29.14c.33.61.1,1.37-.51,1.69-.19.1-.39.15-.59.15-.45,0-.88-.24-1.1-.66l-.58-1.09-.58,1.09c-.23.42-.66.66-1.1.66-.2,0-.4-.05-.59-.15-.61-.33-.84-1.09-.51-1.69l1.68-3.14s.05-.05.07-.09c.05-.07.1-.13.16-.19.06-.06.12-.11.19-.16.03-.02.05-.05.09-.07.04-.02.08-.02.11-.03.08-.03.16-.06.25-.07.08-.01.15-.02.23-.02.08,0,.15,0,.23.02.09.02.16.04.25.07.04.02.08.01.11.03.03.02.05.05.09.07.07.05.13.1.19.16.06.06.11.12.16.19.02.03.05.05.07.09l1.69,3.14ZM19.08,34.28c0,.83-.67,1.5-1.5,1.5s-1.5-.67-1.5-1.5.67-1.5,1.5-1.5,1.5.67,1.5,1.5ZM32.43,34.28c0,.83-.67,1.5-1.5,1.5s-1.5-.67-1.5-1.5.67-1.5,1.5-1.5,1.5.67,1.5,1.5Z" fill="#1e1e1c"/>
</svg>