<?xml version="1.0" encoding="UTF-8"?>
<svg id="a" data-name="3219" xmlns="http://www.w3.org/2000/svg" viewBox="0 0 32 32">
  <path d="M15.99,0C7.73,0,1.51,5.78,1.51,13.45c0,4.46,2.09,8.7,5.62,11.43v4.6c0,1.39,1.13,2.51,2.51,2.51h13.48c1.39,0,2.51-1.13,2.51-2.51v-5.24c3.08-2.75,4.84-6.66,4.84-10.8C30.47,5.78,24.24,0,15.99,0ZM25.63,21.32v-1.07c0-.56-.45-1.01-1.01-1.01s-1.01.45-1.01,1.01v9.23c0,.28-.23.5-.5.5h-.58v-4.47h-2.01v4.47h-1.48v-4.54h-2.01v4.54h-1.48v-4.54h-2.01v4.54h-1.48v-4.54h-2.01v4.54h-.41c-.28,0-.5-.23-.5-.5v-9.23c0-.56-.45-1.01-1.01-1.01s-1.01.45-1.01,1.01v1.92c-2.28-2.32-3.6-5.44-3.6-8.72C3.52,7.29,8.06,2.7,14.5,2.09l-.97,1.91,2.29,2.11,1.36-1.48-1.17-1.08.77-1.51c6.81.34,11.67,5.02,11.67,11.4,0,2.9-1.02,5.66-2.82,7.87ZM13.17,15.35c-.6.6-2.03,2.03-3.71,2.03-.76,0-1.57-.3-2.37-1.1-.94-.94-1.45-2.18-1.45-3.51s.52-2.57,1.45-3.51c.94-.94,2.18-1.45,3.51-1.45s2.57.52,3.51,1.45c2.58,2.58-.06,5.22-.93,6.08ZM24.91,16.45c-.8.8-1.61,1.1-2.38,1.1-1.68,0-3.11-1.44-3.71-2.03-.87-.87-3.51-3.51-.93-6.08,1.94-1.94,5.08-1.94,7.02,0,1.93,1.93,1.93,5.08,0,7.02ZM17.98,19.27c.26.49.08,1.1-.41,1.36-.15.08-.31.12-.47.12-.36,0-.71-.19-.89-.53l-.22-.42-.22.42c-.18.34-.53.53-.89.53-.16,0-.32-.04-.47-.12-.49-.26-.67-.87-.41-1.36l1.11-2.07s.04-.04.06-.07c.04-.06.08-.11.13-.15.05-.05.1-.09.16-.13.03-.02.04-.04.07-.06.03-.02.06-.02.09-.03.06-.03.13-.05.2-.06.06-.01.12-.02.19-.02.06,0,.12,0,.19.02.07.01.13.03.2.06.03.01.06.01.09.03.03.01.04.04.07.06.06.04.11.08.16.13.05.05.09.1.13.16.02.03.04.04.06.07l1.11,2.07Z" fill="#1e1e1c"/>
</svg>