<?xml version="1.0" encoding="UTF-8"?>
<svg id="a" data-name="3219" xmlns="http://www.w3.org/2000/svg" viewBox="0 0 48 48">
  <path d="M23.98,0C11.6,0,2.27,8.67,2.27,20.15c0,7.02,3.35,13.27,8.53,17.24v7.86c0,1.52,1.23,2.75,2.75,2.75h17.6v-9.03h2.5v9.03h1.94c1.52,0,2.75-1.23,2.75-2.75v-8.84c4.5-3.98,7.35-9.79,7.35-16.26C45.7,8.67,36.36,0,23.98,0ZM17.75,47.89h-2.5v-9.03h2.5v9.03ZM17.58,35.78c-.83,0-1.5-.67-1.5-1.5s.67-1.5,1.5-1.5,1.5.67,1.5,1.5-.67,1.5-1.5,1.5ZM14.92,26.99c-.4.12-.87.21-1.39.21-1.07,0-2.32-.38-3.57-1.62-2.94-2.94-2.94-7.73,0-10.68,2.94-2.95,7.73-2.94,10.68,0,3.85,3.85-.16,7.87-1.48,9.19-1.59,1.59-2.94,2.51-4.24,2.9ZM23.05,47.89h-2.5v-9.03h2.5v9.03ZM24.57,30.31l-.58-1.09-.58,1.09c-.23.42-.66.66-1.1.66-.2,0-.4-.05-.59-.15-.61-.33-.84-1.09-.51-1.69l1.68-3.14s.05-.05.07-.09c.05-.07.1-.13.16-.19.06-.06.12-.11.19-.16.03-.02.05-.05.09-.07.04-.02.08-.02.12-.04.08-.03.16-.06.24-.07.08-.02.16-.02.24-.02.08,0,.15,0,.23.02.09.02.16.04.24.07.04.02.08.01.12.03.03.02.05.05.09.07.07.05.13.1.19.16.06.06.11.12.16.19.02.03.05.05.07.09l1.69,3.14c.33.61.1,1.37-.51,1.69-.19.1-.39.15-.59.15-.45,0-.88-.24-1.1-.66ZM28.35,47.89h-2.5v-9.03h2.5v9.03ZM30.93,35.78c-.83,0-1.5-.67-1.5-1.5s.67-1.5,1.5-1.5,1.5.67,1.5,1.5-.67,1.5-1.5,1.5ZM38.03,25.83c-1.19,1.19-2.4,1.63-3.53,1.63-2.54,0-4.75-2.2-5.66-3.11-1.32-1.32-5.34-5.34-1.48-9.19,2.94-2.94,7.73-2.94,10.68,0,2.94,2.94,2.94,7.73,0,10.68Z" fill="#1e1e1c"/>
</svg>