<?xml version="1.0" encoding="UTF-8"?>
<svg id="a" data-name="3219" xmlns="http://www.w3.org/2000/svg" viewBox="0 0 40 40">
  <path d="M19.99,0C9.62,0,1.81,7.26,1.81,16.87c0,5.62,2.65,10.96,7.11,14.4v6.1c0,1.45,1.18,2.63,2.63,2.63h17.87c1.45,0,2.63-1.18,2.63-2.63v-6.9c3.9-3.46,6.12-8.38,6.12-13.6C38.16,7.26,30.35,0,19.99,0ZM32.04,27.24v-1.75c0-.62-.5-1.13-1.13-1.13s-1.13.5-1.13,1.13v11.89c0,.21-.17.38-.38.38h-1.29v-5.46h-2.25v5.46h-2.17v-5.54h-2.25v5.54h-2.17v-5.54h-2.25v5.54h-2.17v-5.54h-2.25v5.54h-1.08c-.21,0-.38-.17-.38-.38v-11.89c0-.62-.5-1.13-1.13-1.13s-1.13.5-1.13,1.13v2.81c-3.07-2.98-4.86-7.1-4.86-11.42,0-7.88,5.8-13.75,14.04-14.53l-1.56,3.05,3.07,2.83,1.53-1.66-1.82-1.68,1.34-2.62c8.87.3,15.25,6.33,15.25,14.59,0,3.84-1.4,7.49-3.87,10.36ZM18.88,15.81c-.33,1.1-1.1,2.23-2.44,3.57-1.33,1.33-2.47,2.11-3.57,2.44-.34.1-.74.18-1.18.18-.91,0-1.97-.32-3.03-1.38h0c-2.48-2.49-2.48-6.53,0-9.01,2.49-2.48,6.53-2.48,9.01,0,1.57,1.57,1.52,3.16,1.2,4.21ZM33.2,16.32c0,1.7-.66,3.3-1.87,4.51-1.01,1.01-2.04,1.39-3,1.39-2.15,0-4-1.85-4.78-2.62-1.11-1.12-4.51-4.51-1.24-7.78,1.2-1.2,2.81-1.87,4.51-1.87s3.3.66,4.51,1.87,1.87,2.8,1.87,4.51ZM22.38,24.31c.29.55.09,1.23-.46,1.52-.17.09-.35.13-.53.13-.4,0-.79-.22-.99-.59l-.41-.77-.41.77c-.2.38-.59.59-.99.59-.18,0-.36-.04-.53-.13-.55-.29-.75-.98-.46-1.52l1.4-2.62s.05-.05.06-.08c.04-.06.09-.12.14-.17.06-.06.11-.1.18-.15.03-.02.05-.05.08-.06.03-.02.07-.02.1-.03.07-.03.14-.05.22-.07.07-.01.14-.02.21-.02.07,0,.14,0,.21.02.08.01.15.04.22.07.03.01.07.01.1.03.03.02.05.05.08.06.06.04.12.09.17.14.05.05.1.11.14.17.02.03.05.05.06.08l1.4,2.62Z" fill="#1e1e1c"/>
</svg>