<?xml version="1.0" encoding="UTF-8"?>
<svg id="a" data-name="3219" xmlns="http://www.w3.org/2000/svg" viewBox="0 0 32 32">
  <path d="M15.93.02C7.67.02,1.45,5.8,1.45,13.47c0,4.64,2.21,8.77,5.62,11.42v4.61c0,1.36,1.08,2.46,2.43,2.51v-6.54h2.01v6.55h1.98v-6.55h2.01v6.55h1.98v-6.55h2.01v6.55h1.98v-6.46h2.01v6.41c1.18-.2,2.09-1.23,2.09-2.47v-5.27c2.96-2.65,4.84-6.49,4.84-10.77C30.41,5.8,24.18.02,15.93.02ZM12.6,15.37c-.6.6-2.03,2.03-3.71,2.03-.76,0-1.57-.3-2.37-1.1-.94-.94-1.45-2.18-1.45-3.51s.52-2.57,1.45-3.51c.94-.94,2.18-1.45,3.51-1.45s2.57.52,3.51,1.45c2.58,2.58-.06,5.22-.93,6.08ZM17.51,20.66c-.15.08-.31.12-.47.12-.36,0-.71-.19-.89-.53l-.22-.42-.22.42c-.18.34-.53.53-.89.53-.16,0-.32-.04-.47-.12-.49-.26-.67-.87-.41-1.36l1.11-2.07s.04-.04.06-.07c.04-.06.08-.11.13-.15.05-.05.1-.09.16-.13.02-.02.04-.04.07-.06.03-.02.06-.01.09-.03.07-.03.13-.05.2-.06.06-.01.12-.02.19-.02.06,0,.12,0,.19.02.07.01.13.03.2.06.03.01.06.01.09.03.03.01.04.04.07.06.06.04.11.08.16.13.05.05.09.1.13.15.02.03.04.04.06.07l1.11,2.07c.26.49.08,1.1-.41,1.36ZM25.35,16.47c-.8.8-1.62,1.1-2.38,1.1-1.68,0-3.11-1.44-3.71-2.03-.87-.87-3.51-3.51-.93-6.08,1.94-1.94,5.08-1.94,7.02,0,1.93,1.93,1.93,5.08,0,7.02Z" fill="#1e1e1c"/>
</svg>