<?xml version="1.0" encoding="UTF-8"?>
<svg id="a" data-name="3219" xmlns="http://www.w3.org/2000/svg" viewBox="0 0 16 16">
  <path d="M7.99,0C3.83,0,.69,2.92.69,6.8c0,2.3,1.07,4.35,2.73,5.68v1.26c0,.97.62,1.79,1.48,2.11v-3.81h1.5v3.96h1.03v-3.96h1.5v3.96h1.03v-3.96h1.5v3.81c.86-.32,1.48-1.14,1.48-2.11v-1.59c1.44-1.33,2.35-3.24,2.35-5.35,0-3.88-3.14-6.8-7.3-6.8ZM6.26,8.11c-.76.76-1.4,1.02-1.94,1.02s-.97-.27-1.29-.59c-1.01-1.01-1.01-2.65,0-3.66,1.01-1.01,2.65-1.01,3.66,0,.64.64,1.08,1.72-.43,3.23ZM8.75,10.11c0,.42-.34.75-.75.75s-.75-.34-.75-.75v-1c0-.42.34-.75.75-.75s.75.34.75.75v1ZM11.67,9.22c-.54,0-1.19-.27-1.94-1.02-1.51-1.51-1.07-2.59-.43-3.23,1.01-1.01,2.65-1.01,3.66,0s1.01,2.65,0,3.66c-.32.32-.75.59-1.29.59Z" fill="#1e1e1c"/>
</svg>