<?xml version="1.0" encoding="UTF-8"?>
<svg id="_x33_219" xmlns="http://www.w3.org/2000/svg" version="1.1" viewBox="0 0 64 64">
  <!-- Generator: Adobe Illustrator 29.0.1, SVG Export Plug-In . SVG Version: 2.1.0 Build 192)  -->
  <defs>
    <style>
      .st0 {
        fill: #1e1e1c;
      }
    </style>
  </defs>
  <path class="st0" d="M14.43,21.44l-1.95-1.95L0,31.96l12.59,12.59,1.95-1.95L3.9,31.96l10.52-10.52ZM51.41,19.37l-1.95,1.95,10.64,10.64-10.52,10.52,1.95,1.95,12.47-12.47-12.59-12.59ZM23.33,30.58c-.76,0-1.38.62-1.38,1.38s.62,1.38,1.38,1.38h17.34c.76,0,1.38-.62,1.38-1.38s-.62-1.38-1.38-1.38h-17.34ZM23.33,36.1c-.76,0-1.38.62-1.38,1.38s.62,1.38,1.38,1.38h17.34c.76,0,1.38-.62,1.38-1.38s-.62-1.38-1.38-1.38h-17.34ZM23.33,25.06c-.76,0-1.38.62-1.38,1.38s.62,1.38,1.38,1.38h17.34c.76,0,1.38-.62,1.38-1.38s-.62-1.38-1.38-1.38h-17.34Z"/>
</svg>