<?xml version="1.0" encoding="UTF-8"?>
<svg id="a" data-name="3219" xmlns="http://www.w3.org/2000/svg" viewBox="0 0 40 40">
  <path d="M37.75,37.69v-2.25h2.25V4.44h-2.25v-2.25h2.25V-.06H0v40h40v-2.25h-2.25ZM21.57,2.19h2.25v2.25h-2.25v-2.25ZM16.18,2.19h2.25v2.25h-2.25v-2.25ZM2.25,37.69H0v-2.25h2.25v2.25ZM2.25,4.44H0v-2.25h2.25v2.25ZM7.64,37.69h-2.25v-2.25h2.25v2.25ZM7.64,4.44h-2.25v-2.25h2.25v2.25ZM13.04,37.69h-2.25v-2.25h2.25v2.25ZM13.04,4.44h-2.25v-2.25h2.25v2.25ZM18.43,37.69h-2.25v-2.25h2.25v2.25ZM23.82,37.69h-2.25v-2.25h2.25v2.25ZM14.66,25.94c-.28.13-.6-.08-.6-.39l.06-12.16c0-.32.34-.52.62-.37l12.1,6.53c.31.17.29.61-.02.76l-12.16,5.63ZM29.22,37.69h-2.25v-2.25h2.25v2.25ZM29.22,4.44h-2.25v-2.25h2.25v2.25ZM34.61,37.69h-2.25v-2.25h2.25v2.25ZM34.61,4.44h-2.25v-2.25h2.25v2.25Z" fill="#1e1e1c"/>
</svg>