<?xml version="1.0" encoding="UTF-8"?>
<svg id="a" data-name="3219" xmlns="http://www.w3.org/2000/svg" viewBox="0 0 64 64">
  <path d="M.01,0v54.83c-.02.08-.03.17-.03.25s.01.17.03.25v8.67h63.97V0H.01ZM15.3,56.46v4.8h-4.91v-4.8h4.91ZM18.05,56.46h4.91v4.8h-4.91v-4.8ZM25.7,56.46h4.91v4.8h-4.91v-4.8ZM33.36,56.46h4.91v4.8h-4.91v-4.8ZM41.02,56.46h4.91v4.8h-4.91v-4.8ZM48.67,56.46h4.91v4.8h-4.91v-4.8ZM2.76,53.71V10.27h58.48v43.43H2.76ZM48.67,7.53V2.75h4.91v4.78h-4.91ZM45.93,7.53h-4.91V2.75h4.91v4.78ZM38.27,7.53h-4.91V2.75h4.91v4.78ZM30.61,7.53h-4.91V2.75h4.91v4.78ZM22.96,7.53h-4.91V2.75h4.91v4.78ZM15.3,7.53h-4.91V2.75h4.91v4.78ZM61.24,7.53h-4.91V2.75h4.91v4.78ZM7.65,2.75v4.78H2.76V2.75h4.88ZM2.76,56.46h4.88v4.8H2.76v-4.8ZM56.33,61.25v-4.8h4.91v4.8h-4.91ZM43.76,30.16l-19.64-10.61c-.64-.35-1.4-.33-2.03.04-.63.37-1.01,1.03-1.01,1.76l-.1,19.74c0,.71.35,1.36.94,1.74.34.22.73.33,1.11.33.29,0,.59-.06.87-.19l19.74-9.14c.71-.33,1.17-1.02,1.19-1.81s-.39-1.5-1.08-1.88ZM23.74,40.03l.09-17.52,17.42,9.41-17.51,8.1Z" fill="#1e1e1c"/>
</svg>