<?xml version="1.0" encoding="UTF-8"?>
<svg id="a" data-name="3219" xmlns="http://www.w3.org/2000/svg" viewBox="0 0 48 48">
  <path d="M0,0v48h48V0H0ZM25.97,3.17h2.5v2.5h-2.5v-2.5ZM19.48,3.17h2.5v2.5h-2.5v-2.5ZM2.5,45.51H0v-2.5h2.5v2.5ZM2.5,5.67H0v-2.5h2.5v2.5ZM9.02,45.51h-2.5v-2.5h2.5v2.5ZM9.02,5.67h-2.5v-2.5h2.5v2.5ZM15.5,45.51h-2.5v-2.5h2.5v2.5ZM15.5,5.67h-2.5v-2.5h2.5v2.5ZM21.98,45.51h-2.5v-2.5h2.5v2.5ZM28.47,45.51h-2.5v-2.5h2.5v2.5ZM32.23,24.44l-14.67,6.79c-.34.16-.73-.09-.72-.47l.07-14.66c0-.38.41-.63.75-.45l14.59,7.88c.37.2.35.74-.03.91ZM34.95,45.51h-2.5v-2.5h2.5v2.5ZM34.95,5.67h-2.5v-2.5h2.5v2.5ZM41.43,45.51h-2.5v-2.5h2.5v2.5ZM41.43,5.67h-2.5v-2.5h2.5v2.5ZM47.99,45.51h-2.5v-2.5h2.5v2.5ZM47.99,5.67h-2.5v-2.5h2.5v2.5Z" fill="#1e1e1c"/>
</svg>