<?xml version="1.0" encoding="UTF-8"?>
<svg id="a" data-name="3219" xmlns="http://www.w3.org/2000/svg" viewBox="0 0 32 32">
  <path d="M0,0v26.75s-.01.04-.01.06.01.04.01.06v5.12h31.99V0H0ZM8.57,27.82v2.18h-2.27v-2.18h2.27ZM10.57,27.82h2.27v2.18h-2.27v-2.18ZM14.85,27.82h2.27v2.18h-2.27v-2.18ZM19.12,27.82h2.27v2.18h-2.27v-2.18ZM23.39,27.82h2.27v2.18h-2.27v-2.18ZM2.01,25.82V6.18h27.99v19.64H2.01ZM23.39,4.18v-2.18h2.27v2.18h-2.27ZM21.39,4.18h-2.27v-2.18h2.27v2.18ZM17.12,4.18h-2.27v-2.18h2.27v2.18ZM12.85,4.18h-2.27v-2.18h2.27v2.18ZM8.57,4.18h-2.27v-2.18h2.27v2.18ZM29.99,4.18h-2.33v-2.18h2.33v2.18ZM4.3,2v2.18h-2.29v-2.18h2.29ZM2.01,27.82h2.29v2.18h-2.29v-2.18ZM27.67,30v-2.18h2.33v2.18h-2.33ZM21.92,14.81l-9.62-5.2c-.42-.22-.91-.21-1.31.03-.41.24-.65.67-.66,1.14l-.05,9.67c0,.46.23.88.61,1.13.22.14.47.21.72.21.19,0,.38-.04.56-.13l9.67-4.47c.46-.21.76-.66.77-1.17.02-.51-.25-.98-.7-1.22ZM12.28,19.42l.04-7.52,7.48,4.04-7.52,3.48Z" fill="#1e1e1c"/>
</svg>