<?xml version="1.0" encoding="UTF-8"?>
<svg id="a" data-name="3219" xmlns="http://www.w3.org/2000/svg" viewBox="0 0 24 24">
  <path d="M0,0v24h24V0H0ZM13.35,1.75h1.75v1.75h-1.75v-1.75ZM8.91,1.75h1.75v1.75h-1.75v-1.75ZM1.77,22.25H.02v-1.75h1.75v1.75ZM1.77,3.5H.02v-1.75h1.75v1.75ZM6.21,22.25h-1.75v-1.75h1.75v1.75ZM6.21,3.5h-1.75v-1.75h1.75v1.75ZM10.66,22.25h-1.75v-1.75h1.75v1.75ZM15.1,22.25h-1.75v-1.75h1.75v1.75ZM16.02,12.22l-7.17,3.32c-.17.08-.35-.04-.35-.23l.04-7.17c0-.19.2-.31.37-.22l7.13,3.85c.18.1.17.36-.01.45ZM19.55,22.25h-1.75v-1.75h1.75v1.75ZM19.55,3.5h-1.75v-1.75h1.75v1.75ZM24,22.25h-1.75v-1.75h1.75v1.75ZM24,3.5h-1.75v-1.75h1.75v1.75Z" fill="#1e1e1c"/>
</svg>