<?xml version="1.0" encoding="UTF-8"?>
<svg id="a" data-name="3219" xmlns="http://www.w3.org/2000/svg" viewBox="0 0 24 24">
  <path d="M12,6.52c.83,0,1.51.68,1.51,1.51v2.39c0,.83-.68,1.51-1.51,1.51s-1.51-.68-1.51-1.51v-2.39c0-.83.68-1.51,1.51-1.51ZM12.88,4.91c1.37.39,2.39,1.63,2.39,3.13v.72h5.57v-1.88c0-3.79-3.08-6.87-6.88-6.87h-1.09v4.91ZM8.74,8.76v-.72c0-1.49,1.02-2.74,2.39-3.13V0h-1.09C6.25,0,3.16,3.08,3.16,6.87v1.88h5.57ZM15.26,10.5c-.04,1.76-1.48,3.18-3.26,3.18s-3.21-1.42-3.26-3.18H3.16v4.84c0,4.77,3.88,8.65,8.65,8.65h.37c4.77,0,8.65-3.88,8.65-8.65v-4.84h-5.58Z" fill="#1e1e1c"/>
</svg>