<?xml version="1.0" encoding="UTF-8"?>
<svg id="a" data-name="3219" xmlns="http://www.w3.org/2000/svg" viewBox="0 0 16 16">
  <path d="M9.18,0h-2.37C4.2,0,2.06,2.13,2.06,4.75v5.31c0,3.27,2.66,5.94,5.94,5.94s5.94-2.66,5.94-5.94v-5.31c0-2.62-2.13-4.75-4.75-4.75ZM12.44,4.75v.95h-2.13v-.34c0-1-.66-1.83-1.56-2.13v-1.73h.43c1.79,0,3.25,1.46,3.25,3.25ZM7.94,4.61h.11c.41,0,.75.34.75.75v1.67c0,.41-.34.75-.75.75h-.11c-.41,0-.75-.34-.75-.75v-1.67c0-.41.34-.75.75-.75ZM6.82,1.5h.43v1.73c-.9.29-1.56,1.13-1.56,2.13v.34h-2.13v-.95c0-1.79,1.46-3.25,3.25-3.25ZM8,14.5c-2.45,0-4.44-1.99-4.44-4.44v-2.86h2.15c.09,1.16,1.05,2.07,2.23,2.07h.11c1.18,0,2.14-.92,2.23-2.07h2.15v2.86c0,2.45-1.99,4.44-4.44,4.44Z" fill="#1e1e1c"/>
</svg>