<?xml version="1.0" encoding="UTF-8"?>
<svg id="a" data-name="3219" xmlns="http://www.w3.org/2000/svg" viewBox="0 0 40 40">
  <path d="M33.87,0H.11V.03H0v31.8H0v2.29h14.3c1.15,3.41,4.38,5.88,8.17,5.88s7.02-2.47,8.17-5.88h6.93c1.34,0,2.42-1.09,2.42-2.42V6.12C40,2.75,37.25,0,33.87,0ZM37.72,19.92v3.16h-4.47v-3.16h4.47ZM11.25,2.25h14.92l.06,15.39h-14.67V3.73c0-.53-.11-1.03-.31-1.49ZM28.42,2.29h5.41c2.14,0,3.88,1.74,3.88,3.88v11.47h-9.23l-.06-15.35ZM2.25,2.26h5.59c.81,0,1.47.66,1.47,1.47v28.1H2.25V2.26ZM22.48,37.75c-3.52,0-6.38-2.86-6.38-6.38s2.86-6.38,6.38-6.38,6.38,2.86,6.38,6.38-2.86,6.38-6.38,6.38ZM37.58,31.87h-6.5c0-.17.03-.33.03-.5,0-4.76-3.87-8.63-8.63-8.63s-8.63,3.87-8.63,8.63c0,.17.02.33.03.5h-2.31v-11.99h14.68v.02h4.76v3.27c0,1.19.97,2.15,2.15,2.15h4.6v6.37c0,.1-.08.17-.17.17ZM22.48,26.94c-2.45,0-4.44,1.99-4.44,4.44s1.99,4.44,4.44,4.44,4.44-1.99,4.44-4.44-1.99-4.44-4.44-4.44ZM22.48,33.56c-1.2,0-2.19-.98-2.19-2.18s.98-2.18,2.19-2.18,2.19.98,2.19,2.18-.98,2.18-2.19,2.18Z" fill="#1e1e1c"/>
</svg>