<?xml version="1.0" encoding="UTF-8"?>
<svg id="a" data-name="3219" xmlns="http://www.w3.org/2000/svg" viewBox="0 0 40 40">
  <path d="M21.8,26.01c-3.84,0-6.96,3.13-6.96,6.97s3.12,6.97,6.96,6.97,6.96-3.13,6.96-6.97-3.12-6.97-6.96-6.97ZM21.8,35.81c-1.56,0-2.82-1.26-2.82-2.82s1.26-2.82,2.82-2.82,2.82,1.26,2.82,2.82-1.26,2.82-2.82,2.82ZM33.21-.03L0-.04l-.02,34.45v.04h12.73c-.08-.48-.13-.96-.13-1.46,0-2.09.71-4.02,1.89-5.57,0-.01.02-.03.03-.04.13-.17.28-.34.42-.51.04-.04.07-.08.11-.12.13-.14.27-.29.41-.42.06-.06.13-.11.19-.17.13-.12.26-.24.4-.35.1-.08.21-.16.32-.24.11-.08.22-.17.33-.24.22-.15.45-.28.68-.41.06-.03.13-.06.19-.1.19-.1.38-.19.58-.28.07-.03.14-.06.21-.09.2-.08.4-.16.61-.22.07-.02.14-.04.2-.06.22-.07.44-.12.67-.17.06-.01.11-.03.17-.04.26-.05.53-.09.81-.12.02,0,.04,0,.06,0,.3-.03.61-.05.92-.05,1.27,0,2.48.26,3.58.73,3.31,1.4,5.64,4.68,5.64,8.49,0,.5-.05.98-.13,1.46h5.85c1.78,0,3.24-1.45,3.24-3.24V6.76C39.98,3.02,36.94-.03,33.21-.03ZM8.86,30.4H3.99V3.99h3.87c.55,0,1,.45,1,1v25.41ZM25.55,16.73h-12.7V4.87c0-.26-.03-.5-.08-.75h12.77v12.61ZM28.99,16.91l-.05-12.83h4.23c1.53,0,2.77,1.25,2.77,2.78v10.05h-6.95ZM37.67,23.98h-5.38c-.57,0-1.03-.46-1.03-1.03v-2.71h6.41v3.74Z" fill="#1e1e1c"/>
</svg>