<?xml version="1.0" encoding="UTF-8"?>
<svg id="a" data-name="3219" xmlns="http://www.w3.org/2000/svg" viewBox="0 0 48 48">
  <path d="M41.24.01H.13v.04H0v38.33h0v2.55h17.21c1.35,4.11,5.22,7.08,9.78,7.08s8.42-2.98,9.78-7.08h8.43c1.55,0,2.81-1.26,2.81-2.81V6.76C47.99,3.04,44.96.01,41.24.01ZM45.45,23.81v4.02h-5.59v-4.02h5.59ZM13.26,2.51h18.27l.07,18.76H13.71V4.41c0-.68-.17-1.32-.45-1.9ZM34.03,2.56h7.16c2.34,0,4.25,1.91,4.25,4.25v14.46h-11.33l-.08-18.71ZM2.5,2.53h6.84c1.04,0,1.88.84,1.88,1.88v33.97H2.5V2.53ZM26.97,45.51c-4.3,0-7.8-3.49-7.8-7.79s3.5-7.79,7.8-7.79,7.79,3.49,7.79,7.79-3.5,7.79-7.79,7.79ZM45.18,38.43h-7.94c.02-.23.04-.47.04-.71,0-5.67-4.62-10.29-10.3-10.29s-10.3,4.62-10.3,10.29c0,.24.02.47.04.71h-3v-14.66h17.9v.02h5.74v4.26c0,1.26,1.02,2.28,2.28,2.28h5.86v7.79c0,.17-.14.31-.31.31ZM26.97,31.55c-3.4,0-6.17,2.77-6.17,6.17s2.77,6.17,6.17,6.17,6.17-2.77,6.17-6.17-2.77-6.17-6.17-6.17ZM26.97,41.39c-2.02,0-3.67-1.65-3.67-3.67s1.65-3.67,3.67-3.67,3.67,1.65,3.67,3.67-1.65,3.67-3.67,3.67Z" fill="#1e1e1c"/>
</svg>