<?xml version="1.0" encoding="UTF-8"?>
<svg id="a" data-name="3219" xmlns="http://www.w3.org/2000/svg" viewBox="0 0 64 64">
  <path d="M53.76-.12H.21v.02H-.04v54.7H.04s20.59.01,20.59.01c-.08-.61-.14-1.22-.14-1.85,0-7.65,6.23-13.87,13.88-13.87s13.89,6.22,13.89,13.87c0,.63-.06,1.25-.14,1.85h11.31c2.5,0,4.53-2.03,4.53-4.53V10.07C63.96,4.45,59.38-.12,53.76-.12ZM13.02,4.9c.85,0,1.55.69,1.55,1.55v43.09H4.81l.21-44.64h8ZM19.58,27.43V6.45c0-.59-.09-1.16-.23-1.7h21.54l.09,22.68h-21.4ZM45.98,27.42l-.09-22.48h7.8c2.87,0,5.2,2.33,5.2,5.19v17.29h-12.91ZM60.45,39.83h-8.9c-1.11,0-2-.9-2-2v-4.78h10.9v6.78ZM34.38,41.63c-6.14,0-11.13,4.99-11.13,11.12s4.99,11.12,11.13,11.12,11.13-4.99,11.13-11.12-4.99-11.12-11.13-11.12ZM34.38,57.75c-2.76,0-5-2.23-5-4.99s2.24-4.99,5-4.99,5,2.23,5,4.99-2.24,4.99-5,4.99Z" fill="#1e1e1c"/>
</svg>