<?xml version="1.0" encoding="UTF-8"?>
<svg id="a" data-name="3219" xmlns="http://www.w3.org/2000/svg" viewBox="0 0 32 32">
  <path d="M26.99-.01H.08V.01H0v25.28h0v2.03h11.75c.79,2.69,3.27,4.67,6.22,4.67s5.43-1.97,6.22-4.67h5.78c1.12,0,2.03-.91,2.03-2.03V4.99C31.99,2.23,29.75-.01,26.99-.01ZM29.96,16.03v2.3h-3.31l-.03-2.3h3.34ZM9.19,1.99h11.6l.05,12.02h-11.45V3.06c0-.38-.08-.74-.21-1.08ZM22.79,2.02h4.17c1.65,0,3,1.35,3,3v8.99h-7.12l-.05-11.99ZM1.99,2h4.33c.59,0,1.06.48,1.06,1.06v22.23H1.99V2ZM17.96,29.99c-2.47,0-4.48-2.01-4.48-4.48s2.01-4.48,4.48-4.48,4.48,2.01,4.48,4.48-2.01,4.48-4.48,4.48ZM24.43,25.32c-.1-3.49-2.96-6.29-6.47-6.29s-6.37,2.81-6.47,6.29h-2.09v-9.31h11.45s3.78.01,3.78.01v2.28c0,1.12.91,2.03,2.03,2.03h3.31v4.99h-5.54ZM17.96,22.34c-1.75,0-3.17,1.42-3.17,3.17s1.42,3.16,3.17,3.16,3.17-1.42,3.17-3.16-1.42-3.17-3.17-3.17ZM17.96,26.67c-.64,0-1.17-.52-1.17-1.16s.52-1.17,1.17-1.17,1.16.52,1.16,1.17-.52,1.16-1.16,1.16Z" fill="#1e1e1c"/>
</svg>