<?xml version="1.0" encoding="UTF-8"?>
<svg id="a" data-name="3219" xmlns="http://www.w3.org/2000/svg" viewBox="0 0 40 40">
  <path d="M34.64,25.5c-.02-.28-.07-.55-.13-.82v-5.27c.07-.32.11-.65.11-.99v-5.2c0-2.51-2.04-4.55-4.55-4.55-1.34,0-2.53.59-3.36,1.51-.83-1.1-2.14-1.83-3.62-1.83-1.36,0-2.57.61-3.41,1.57-.83-.95-2.05-1.57-3.41-1.57-.84,0-1.62.25-2.3.65v-4.46C13.96,2.04,11.92,0,9.41,0s-4.55,2.04-4.55,4.55v13.23c0,.15.02.29.04.5v9.66c0,5.84,4.75,10.59,10.59,10.59h7.88c1.35.95,2.9,1.46,4.5,1.46,4.61,0,8.36-4.13,8.36-9.2,0-1.91-.56-3.73-1.58-5.3ZM27.76,13.22c0-1.27,1.03-2.3,2.3-2.3s2.3,1.03,2.3,2.3v5.2c0,1.27-1.03,2.3-2.3,2.3s-2.3-1.03-2.3-2.3v-5.2ZM23.08,10.61c1.27,0,2.3,1.03,2.3,2.3v5.83c0,1.27-1.03,2.3-2.3,2.3s-2.2-.94-2.28-2.13c0-.06.02-.11.02-.17v-5.83c0-.06-.01-.11-.02-.17.09-1.19,1.07-2.13,2.28-2.13ZM16.26,10.61c1.21,0,2.2.94,2.28,2.13,0,.06-.02.11-.02.17v5.83c0,.06.01.11.02.17-.09,1.19-1.07,2.13-2.28,2.13s-2.3-1.03-2.3-2.3v-5.83c0-1.27,1.03-2.3,2.3-2.3ZM7.15,27.94v-9.74l-.02-.25c0-.06-.02-.11-.02-.17V4.55c0-1.27,1.03-2.3,2.3-2.3s2.3,1.03,2.3,2.3v14.19c0,2.13,1.47,3.9,3.44,4.4v1.49c0,3.03,2.21,5.54,5.1,6.03-.55.6-1,1.3-1.35,2.06-1.17-1.48-2.89-2.42-4.81-2.42-.62,0-1.12.5-1.12,1.13s.5,1.13,1.12,1.13c.43,0,.83.1,1.22.24l2.66,2.97c.05.17.11.34.14.52h-2.62c-4.6,0-8.34-3.74-8.34-8.34ZM27.86,37.74c-1.22,0-2.41-.42-3.44-1.22l-.31-.24h-3.74s0-.01,0-.02c0-.04.03-.08.03-.13,0-2.64,1.64-4.86,3.82-5.38h3.42c.62,0,1.12-.5,1.12-1.13s-.5-1.13-1.12-1.13h-6.37c-2.14,0-3.88-1.74-3.88-3.88v-1.33h12.43c1.43,0,2.6,1.17,2.6,2.6,0,.2.06.37.15.53h-.01c.91,1.28,1.4,2.78,1.4,4.36,0,3.83-2.74,6.95-6.11,6.95Z" fill="#1e1e1c"/>
</svg>