<?xml version="1.0" encoding="UTF-8"?>
<svg id="a" data-name="3219" xmlns="http://www.w3.org/2000/svg" viewBox="0 0 64 64">
  <path d="M20.8,30.85c-.05-.28-.09-.57-.09-.86v-10.27c0-2.57,2.09-4.66,4.66-4.66s4.67,2.09,4.67,4.66v10.27c0,2.12-1.43,3.89-3.37,4.45-.41.12-.84.21-1.3.21-1.45,0-2.73-.68-3.59-1.72-.05-.06-.11-.12-.16-.19-.09-.12-.17-.25-.25-.39-.07-.12-.13-.23-.19-.35-.06-.12-.11-.23-.16-.35-.06-.16-.11-.33-.16-.5-.03-.1-.06-.19-.08-.29ZM45.19,31.4c.05.19.1.38.17.56.03.08.06.17.09.25.09.21.2.41.33.6.08.13.18.25.27.37.05.06.1.12.15.18.39.45.86.82,1.39,1.09h0c.64.33,1.36.54,2.13.54,1.12,0,2.13-.41,2.93-1.06,0,0,.01-.01.02-.02,1.04-.86,1.71-2.13,1.71-3.58v-9.15c0-2.57-2.09-4.66-4.66-4.66s-4.67,2.09-4.67,4.66v9.15c0,.28.03.56.08.83.02.08.03.16.05.25ZM21.56,50.97c3.55,0,6.69,1.93,8.61,4.88.79-2.2,2.1-4.11,3.78-5.54.04,0,.07,0,.1,0-5.62,0-10.19-4.57-10.19-10.18v-2.89c-3.37-.7-5.91-3.68-5.91-7.25V4.71C17.97,2.14,15.87.05,13.3.05s-4.67,2.09-4.67,4.66v23.59c0,.13.02.26.04.39l.04.36v17.14c0,8.43,6.87,15.29,15.31,15.29h5.33c-.5-4.38-3.8-7.77-7.79-7.77-.76,0-1.37-.61-1.37-1.37s.62-1.37,1.37-1.37ZM49.14,37.19h-22.52v2.94c0,4.1,3.34,7.43,7.44,7.43h11.23c.11,0,.22.02.32.04.03,0,.06.02.08.03.08.02.15.05.22.09.02.01.05.02.07.04.09.05.17.11.24.18,0,0,0,0,0,0,.08.08.15.17.21.26.13.21.21.46.21.73,0,.76-.62,1.37-1.38,1.37h-4s-.08.01-.12.01c-5.01,0-9.09,4.62-9.09,10.29,0,.11-.02.21-.04.31.02.18.06.37.07.55h6.91l.37.29c1.91,1.49,4.14,2.27,6.43,2.27,6.27,0,11.37-5.76,11.37-12.83,0-2.85-1.13-14.02-8.07-14.02ZM32.76,30.65s0,0,0,0c.02.38.09.75.2,1.11.01.04.02.07.03.11.18.53.45,1.02.8,1.44.01.02.03.03.04.05.86,1.03,2.13,1.69,3.57,1.69s2.71-.67,3.56-1.69c.05-.05.09-.11.14-.16.09-.12.18-.24.26-.37.09-.15.18-.31.25-.47.05-.1.1-.21.14-.32.07-.19.14-.39.18-.59.02-.08.04-.16.05-.24.05-.27.08-.54.08-.83v-10.27c0-2.57-2.09-4.66-4.66-4.66s-4.67,2.09-4.67,4.66v10.27c0,.09.02.17.03.26h0Z" fill="#1e1e1c"/>
</svg>