<?xml version="1.0" encoding="UTF-8"?>
<svg id="a" data-name="3219" xmlns="http://www.w3.org/2000/svg" viewBox="0 0 24 24">
  <path d="M21.56,19.16c0,2.65-1.89,4.8-4.22,4.8-.85,0-1.67-.29-2.38-.84l-.2-.16h-2.59s.03-.08.03-.13c0-2.01,1.38-3.65,3.11-3.78h1.89c.41,0,.75-.34.75-.75,0-.15-.05-.28-.13-.39h0c-.06-.1-.15-.18-.24-.24-.01,0-.02-.02-.03-.02-.1-.06-.22-.1-.35-.1h-5.26c-1,0-1.81-.81-1.81-1.81v-1.81h8.57c2.53,0,2.87,4.14,2.87,5.23ZM9.35,12.48c.89,0,1.61-.72,1.61-1.61v-4.01c0-.89-.72-1.61-1.61-1.61s-1.61.72-1.61,1.61v4.01c0,.89.72,1.61,1.61,1.61ZM14.04,12.48c.89,0,1.61-.72,1.61-1.61v-4.01c0-.89-.72-1.61-1.61-1.61s-1.61.72-1.61,1.61v4.01c0,.89.72,1.61,1.61,1.61ZM18.85,12.25c.89,0,1.61-.72,1.61-1.61v-3.57c0-.89-.72-1.61-1.61-1.61s-1.61.72-1.61,1.61v3.57c0,.89.72,1.61,1.61,1.61ZM11.93,19.05c-1.83,0-3.31-1.49-3.31-3.31v-1.86c-1.35-.33-2.37-1.55-2.37-3.01V1.57C6.25.68,5.53-.04,4.64-.04s-1.61.72-1.61,1.61l.03,15.63c0,3.18,2.58,5.76,5.76,5.76h1.83c-.27-1.49-1.42-2.61-2.79-2.61-.41,0-.75-.34-.75-.75s.34-.75.75-.75c1.33,0,2.51.67,3.31,1.7.25-.57.59-1.07.99-1.5h-.24Z" fill="#1e1e1c"/>
</svg>