<?xml version="1.0" encoding="UTF-8"?>
<svg id="a" data-name="3219" xmlns="http://www.w3.org/2000/svg" viewBox="0 0 64 64">
  <path d="M32.01,0C14.37,0,.02,14.36.02,32s14.35,32,32,32,32-14.36,32-32S49.66,0,32.01,0ZM32.01,61.25c-16.13,0-29.25-13.12-29.25-29.25S15.89,2.75,32.01,2.75s29.25,13.12,29.25,29.25-13.12,29.25-29.25,29.25ZM35.69,17.13l14.86,14.86-14.86,14.86c-.27.27-.62.4-.97.4s-.7-.13-.97-.4c-.54-.54-.54-1.41,0-1.95l11.53-11.53H10.77v-2.75h34.5l-11.53-11.53c-.54-.54-.54-1.41,0-1.95.54-.54,1.41-.54,1.95,0Z" fill="#1e1e1c"/>
</svg>