<?xml version="1.0" encoding="UTF-8"?>
<svg id="a" data-name="3219" xmlns="http://www.w3.org/2000/svg" viewBox="0 0 24 24">
  <path d="M15.34,5.92h-6.66c-1.55,0-2.77,1.22-2.77,2.77v6.66c0,1.55,1.22,2.77,2.77,2.77h6.66c1.5,0,2.77-1.22,2.77-2.77v-6.66c0-1.55-1.22-2.77-2.77-2.77ZM12.01,16c-2.2,0-3.98-1.78-3.98-3.98s1.78-3.98,3.98-3.98,3.98,1.78,3.98,3.98-1.78,3.98-3.98,3.98ZM16.04,8.83c-.47,0-.89-.38-.89-.89s.38-.89.89-.89c.47.05.89.42.89.89s-.38.89-.89.89ZM14.59,12.02c0,1.41-1.17,2.58-2.58,2.58s-2.58-1.17-2.58-2.58,1.17-2.58,2.58-2.58,2.58,1.17,2.58,2.58ZM0,.02v24h24V.02H0ZM19.51,15.34c0,2.3-1.88,4.17-4.17,4.17h-6.66c-2.3,0-4.17-1.88-4.17-4.17v-6.66c0-2.3,1.88-4.17,4.17-4.17h6.66c2.3,0,4.17,1.88,4.17,4.17v6.66Z" fill="#1d1d1b"/>
</svg>