<?xml version="1.0" encoding="UTF-8"?>
<svg id="a" data-name="3219" xmlns="http://www.w3.org/2000/svg" viewBox="0 0 16 16">
  <path d="M10.23,3.97h-4.44c-1.03,0-1.84.81-1.84,1.84v4.44c0,1.03.81,1.84,1.84,1.84h4.44c1,0,1.84-.81,1.84-1.84v-4.44c0-1.03-.81-1.84-1.84-1.84ZM8.01,10.69c-1.47,0-2.66-1.19-2.66-2.66s1.19-2.66,2.66-2.66,2.66,1.19,2.66,2.66-1.19,2.66-2.66,2.66ZM10.7,5.91c-.31,0-.59-.25-.59-.59s.25-.59.59-.59c.31.03.59.28.59.59s-.25.59-.59.59ZM9.73,8.03c0,.94-.78,1.72-1.72,1.72s-1.72-.78-1.72-1.72.78-1.72,1.72-1.72,1.72.78,1.72,1.72ZM0,.03v16h16V.03H0ZM13.01,10.25c0,1.53-1.25,2.78-2.78,2.78h-4.44c-1.53,0-2.78-1.25-2.78-2.78v-4.44c0-1.53,1.25-2.78,2.78-2.78h4.44c1.53,0,2.78,1.25,2.78,2.78v4.44Z" fill="#1d1d1b"/>
</svg>