<?xml version="1.0" encoding="UTF-8"?>
<svg id="a" data-name="3219" xmlns="http://www.w3.org/2000/svg" viewBox="0 0 64 64">
  <rect x=".02" y="-.01" width="64" height="64" fill="none"/>
  <path d="M40.89,11.99h-17.75c-6.12,0-11.13,5-11.13,11.13v17.75c0,6.13,5,11.13,11.13,11.13h17.75c6.12,0,11.13-5,11.13-11.13v-17.75c0-6.12-5-11.13-11.12-11.13ZM48.27,40.86c0,4.12-3.38,7.37-7.37,7.37h-17.75c-4.12,0-7.37-3.25-7.37-7.37v-17.75c0-4.12,3.25-7.37,7.37-7.37h17.75c4.13,0,7.38,3.25,7.38,7.37v17.75ZM32.02,21.36c-5.88,0-10.63,4.75-10.63,10.63s4.75,10.63,10.63,10.63,10.63-4.75,10.63-10.63-4.75-10.63-10.63-10.63ZM32.02,38.86c-3.75,0-6.88-3.13-6.88-6.88s3.13-6.88,6.88-6.88,6.88,3.13,6.88,6.88-3.13,6.88-6.88,6.88ZM45.14,21.11c0,1.25-1,2.37-2.37,2.37-1.25,0-2.37-1-2.37-2.38s1-2.38,2.37-2.38c1.25.13,2.37,1.13,2.37,2.38Z" fill="#020303"/>
</svg>