<?xml version="1.0" encoding="UTF-8"?>
<svg id="a" data-name="3219" xmlns="http://www.w3.org/2000/svg" viewBox="0 0 24 24">
  <rect x="0" y="-.02" width="24" height="24" fill="none"/>
  <path d="M15.34,4.48h-6.66c-2.3,0-4.17,1.88-4.17,4.17v6.66c0,2.3,1.88,4.17,4.17,4.17h6.66c2.3,0,4.17-1.88,4.17-4.17v-6.66c0-2.3-1.87-4.17-4.17-4.17ZM18.1,15.31c0,1.55-1.27,2.77-2.77,2.77h-6.66c-1.55,0-2.77-1.22-2.77-2.77v-6.66c0-1.55,1.22-2.77,2.77-2.77h6.66c1.55,0,2.77,1.22,2.77,2.77v6.66ZM12.01,8c-2.2,0-3.98,1.78-3.98,3.98s1.78,3.98,3.98,3.98,3.98-1.78,3.98-3.98-1.78-3.98-3.98-3.98ZM12.01,14.56c-1.41,0-2.58-1.17-2.58-2.58s1.17-2.58,2.58-2.58,2.58,1.17,2.58,2.58-1.17,2.58-2.58,2.58ZM16.93,7.91c0,.47-.37.89-.89.89-.47,0-.89-.38-.89-.89s.37-.89.89-.89c.47.05.89.42.89.89Z" fill="#020303"/>
</svg>