<?xml version="1.0" encoding="UTF-8"?>
<svg id="a" data-name="3219" xmlns="http://www.w3.org/2000/svg" viewBox="0 0 48 48">
  <rect x="0" y=".13" width="48" height="48" fill="none"/>
  <path d="M30.66,9.13h-13.31c-4.59,0-8.34,3.75-8.34,8.34v13.31c0,4.59,3.75,8.34,8.34,8.34h13.31c4.59,0,8.34-3.75,8.34-8.34v-13.31c0-4.59-3.75-8.34-8.34-8.34ZM36.2,30.78c0,3.09-2.53,5.53-5.53,5.53h-13.31c-3.09,0-5.53-2.44-5.53-5.53v-13.31c0-3.09,2.44-5.53,5.53-5.53h13.31c3.09,0,5.53,2.44,5.53,5.53v13.31ZM24.01,16.16c-4.41,0-7.97,3.56-7.97,7.97s3.56,7.97,7.97,7.97,7.97-3.56,7.97-7.97-3.56-7.97-7.97-7.97ZM24.01,29.28c-2.81,0-5.16-2.34-5.16-5.16s2.34-5.16,5.16-5.16,5.16,2.34,5.16,5.16-2.34,5.16-5.16,5.16ZM33.85,15.97c0,.94-.75,1.78-1.78,1.78-.94,0-1.78-.75-1.78-1.78s.75-1.78,1.78-1.78c.94.09,1.78.84,1.78,1.78Z" fill="#020303"/>
</svg>