<?xml version="1.0" encoding="UTF-8"?>
<svg id="_x33_219" xmlns="http://www.w3.org/2000/svg" version="1.1" viewBox="0 0 48 48">
  <!-- Generator: Adobe Illustrator 29.0.1, SVG Export Plug-In . SVG Version: 2.1.0 Build 192)  -->
  <defs>
    <style>
      .st0 {
        fill: #1e1e1c;
      }
    </style>
  </defs>
  <path class="st0" d="M18.39,17.89l-12.72,1.94,9.21,9.44-2.17,13.29,5.01-2.64,1.16,2.21-9.45,4.97,2.77-17L.48,18.09l16.21-2.48L24.01.03l7.32,15.59,16.19,2.47-7.81,8.14-1.8-1.73,4.48-4.67-12.74-1.95-5.62-11.97-5.62,11.97ZM39.51,31.24c-.49-.49-1.28-.49-1.77,0l-5.17,5.17-5.17-5.17c-.49-.49-1.28-.49-1.77,0s-.49,1.28,0,1.77l5.17,5.17-5.17,5.17c-.49.49-.49,1.28,0,1.77.24.24.56.37.88.37s.64-.12.88-.37l5.17-5.17,5.17,5.17c.24.24.56.37.88.37s.64-.12.88-.37c.49-.49.49-1.28,0-1.77l-5.17-5.17,5.17-5.17c.49-.49.49-1.28,0-1.77Z"/>
</svg>