<?xml version="1.0" encoding="UTF-8"?>
<svg id="_x33_219" xmlns="http://www.w3.org/2000/svg" version="1.1" viewBox="0 0 48 48">
  <!-- Generator: Adobe Illustrator 29.0.1, SVG Export Plug-In . SVG Version: 2.1.0 Build 192)  -->
  <defs>
    <style>
      .st0 {
        fill: #1e1e1c;
      }
    </style>
  </defs>
  <path class="st0" d="M19.58,20.04l-10.17,1.55,7.37,7.55-1.73,10.61,2.66-1.4,2.1,3.98-10.65,5.61,2.82-17.28L.07,18.47l16.46-2.51L24.01.02l7.48,15.94,16.41,2.51-8.66,9.02-3.25-3.12,2.66-2.77-10.22-1.56-4.43-9.43-4.43,9.43ZM39.05,30.55c-.88-.88-2.3-.88-3.18,0l-3.98,3.98-3.98-3.98c-.88-.88-2.3-.88-3.18,0s-.88,2.3,0,3.18l3.98,3.98-3.98,3.98c-.88.88-.88,2.3,0,3.18.44.44,1.01.66,1.59.66s1.15-.22,1.59-.66l3.98-3.98,3.98,3.98c.44.44,1.01.66,1.59.66s1.15-.22,1.59-.66c.88-.88.88-2.3,0-3.18l-3.98-3.98,3.98-3.98c.88-.88.88-2.3,0-3.18Z"/>
</svg>