<?xml version="1.0" encoding="UTF-8"?>
<svg id="_x33_219" xmlns="http://www.w3.org/2000/svg" version="1.1" viewBox="0 0 40 40">
  <!-- Generator: Adobe Illustrator 29.0.1, SVG Export Plug-In . SVG Version: 2.1.0 Build 192)  -->
  <defs>
    <style>
      .st0 {
        fill: #1e1e1c;
      }
    </style>
  </defs>
  <path class="st0" d="M15.42,15.05l-10.38,1.59,7.51,7.7-1.77,10.84,3.97-2.09,1.05,1.99-7.97,4.2,2.31-14.18L.37,15.08l13.52-2.07L20,0l6.11,13.01,13.5,2.06-6.58,6.86-1.62-1.56,3.58-3.73-10.4-1.59-4.58-9.76-4.58,9.76ZM32.87,25.93c-.44-.44-1.15-.44-1.59,0l-4.21,4.21-4.21-4.21c-.44-.44-1.15-.44-1.59,0-.44.44-.44,1.15,0,1.59l4.21,4.21-4.21,4.21c-.44.44-.44,1.15,0,1.59.22.22.51.33.8.33s.58-.11.8-.33l4.21-4.21,4.21,4.21c.22.22.51.33.8.33s.58-.11.8-.33c.44-.44.44-1.15,0-1.59l-4.21-4.21,4.21-4.21c.44-.44.44-1.15,0-1.59Z"/>
</svg>