<?xml version="1.0" encoding="UTF-8"?>
<svg id="_x33_219" xmlns="http://www.w3.org/2000/svg" version="1.1" viewBox="0 0 32 32">
  <!-- Generator: Adobe Illustrator 29.0.1, SVG Export Plug-In . SVG Version: 2.1.0 Build 192)  -->
  <defs>
    <style>
      .st0 {
        fill: #1e1e1c;
      }
    </style>
  </defs>
  <path class="st0" d="M11.82,25.01l1.63,3.1-7.37,3.88,1.88-11.53L.02,12.32l10.97-1.68L16-.01l5,10.66,10.94,1.67-5.96,6.21-2.53-2.42,1.29-1.35-6.12-.94-2.63-5.6-2.63,5.6-6.09.93,4.41,4.52-1.03,6.34,1.16-.61ZM25.86,20.06c-.68-.68-1.79-.68-2.47,0l-2.33,2.33-2.33-2.33c-.68-.68-1.79-.68-2.47,0s-.68,1.79,0,2.47l2.33,2.33-2.33,2.33c-.68.68-.68,1.79,0,2.47.34.34.79.51,1.24.51s.9-.17,1.24-.51l2.33-2.33,2.33,2.33c.34.34.79.51,1.24.51s.9-.17,1.24-.51c.68-.68.68-1.79,0-2.47l-2.33-2.33,2.33-2.33c.68-.68.68-1.79,0-2.47Z"/>
</svg>