<?xml version="1.0" encoding="UTF-8"?>
<svg id="_x33_219" xmlns="http://www.w3.org/2000/svg" version="1.1" viewBox="0 0 24 24">
  <!-- Generator: Adobe Illustrator 29.0.1, SVG Export Plug-In . SVG Version: 2.1.0 Build 192)  -->
  <defs>
    <style>
      .st0 {
        fill: #1e1e1c;
      }
    </style>
  </defs>
  <path class="st0" d="M12,0C5.38,0,0,5.39,0,12s5.38,12,12,12,12-5.38,12-12S18.62,0,12,0ZM12,22.25c-5.65,0-10.25-4.6-10.25-10.25S6.35,1.75,12,1.75s10.25,4.6,10.25,10.25-4.6,10.25-10.25,10.25ZM16.46,8.78l-3.22,3.22,3.22,3.22c.34.34.34.9,0,1.24-.17.17-.4.26-.62.26s-.45-.08-.62-.26l-3.22-3.22-3.22,3.22c-.17.17-.4.26-.62.26s-.45-.08-.62-.26c-.34-.34-.34-.9,0-1.24l3.22-3.22-3.22-3.22c-.34-.34-.34-.9,0-1.24.34-.34.9-.34,1.24,0l3.22,3.22,3.22-3.22c.34-.34.9-.34,1.24,0,.34.34.34.9,0,1.24Z"/>
</svg>