<?xml version="1.0" encoding="UTF-8"?>
<svg id="_x33_219" xmlns="http://www.w3.org/2000/svg" version="1.1" viewBox="0 0 64 64">
  <!-- Generator: Adobe Illustrator 29.0.1, SVG Export Plug-In . SVG Version: 2.1.0 Build 192)  -->
  <defs>
    <style>
      .st0 {
        fill: #1e1e1c;
      }
    </style>
  </defs>
  <path class="st0" d="M31.98.04C14.33.04-.02,14.4-.02,32.04s14.36,32,32,32,32-14.36,32-32S49.62.04,31.98.04ZM43.51,41.63c.54.54.54,1.41,0,1.95-.27.27-.62.4-.97.4s-.7-.13-.97-.4l-9.59-9.59-9.59,9.59c-.27.27-.62.4-.97.4s-.7-.13-.97-.4c-.54-.54-.54-1.41,0-1.95l9.59-9.59-9.59-9.59c-.54-.54-.54-1.41,0-1.95.54-.54,1.41-.54,1.95,0l9.59,9.59,9.59-9.59c.54-.54,1.41-.54,1.95,0,.54.54.54,1.41,0,1.95l-9.59,9.59,9.59,9.59Z"/>
</svg>