<?xml version="1.0" encoding="UTF-8"?>
<svg id="_x33_219" xmlns="http://www.w3.org/2000/svg" version="1.1" viewBox="0 0 40 40">
  <!-- Generator: Adobe Illustrator 29.0.1, SVG Export Plug-In . SVG Version: 2.1.0 Build 192)  -->
  <defs>
    <style>
      .st0 {
        fill: #1e1e1c;
      }
    </style>
  </defs>
  <path class="st0" d="M20,0C8.97,0,0,8.97,0,20s8.97,20,20,20,20-8.97,20-20S31.03,0,20,0ZM20,37.75c-9.79,0-17.75-7.96-17.75-17.75S10.21,2.25,20,2.25s17.75,7.96,17.75,17.75-7.96,17.75-17.75,17.75ZM27.3,14.29l-5.71,5.71,5.71,5.71c.44.44.44,1.15,0,1.59-.22.22-.51.33-.8.33s-.58-.11-.8-.33l-5.71-5.71-5.71,5.71c-.22.22-.51.33-.8.33s-.58-.11-.8-.33c-.44-.44-.44-1.15,0-1.59l5.71-5.71-5.71-5.71c-.44-.44-.44-1.15,0-1.59.44-.44,1.15-.44,1.59,0l5.71,5.71,5.71-5.71c.44-.44,1.15-.44,1.59,0,.44.44.44,1.15,0,1.59Z"/>
</svg>