<?xml version="1.0" encoding="UTF-8"?>
<svg id="_x33_219" xmlns="http://www.w3.org/2000/svg" version="1.1" viewBox="0 0 48 48">
  <!-- Generator: Adobe Illustrator 29.0.1, SVG Export Plug-In . SVG Version: 2.1.0 Build 192)  -->
  <defs>
    <style>
      .st0 {
        fill: #1e1e1c;
      }
    </style>
  </defs>
  <path class="st0" d="M13.4,24.07c-.88-.88-.88-2.3,0-3.18s2.3-.88,3.17,0l5.3,5.31V0h4.49v26.2l5.3-5.31c.88-.88,2.3-.88,3.17,0s.88,2.3,0,3.18l-10.72,10.73-10.72-10.73ZM43.62,20.97v21.65c0,.49-.39.89-.86.89H5.46c-.48,0-.86-.4-.86-.89v-21.65H.11v21.65c0,2.97,2.4,5.38,5.35,5.38h37.3c2.95,0,5.35-2.42,5.35-5.38v-21.65h-4.49Z"/>
</svg>