<?xml version="1.0" encoding="UTF-8"?>
<svg id="_x33_219" xmlns="http://www.w3.org/2000/svg" version="1.1" viewBox="0 0 40 40">
  <!-- Generator: Adobe Illustrator 29.0.1, SVG Export Plug-In . SVG Version: 2.1.0 Build 192)  -->
  <defs>
    <style>
      .st0 {
        fill: #1e1e1c;
      }
    </style>
  </defs>
  <path class="st0" d="M10.99,20.05c-.78-.78-.78-2.05,0-2.83s2.05-.78,2.83,0l4.17,4.16V0h4v21.39l4.17-4.16c.78-.78,2.05-.78,2.83,0s.78,2.05,0,2.83l-9,8.99-9-8.99ZM35.99,17.53v17.88c0,.33-.26.59-.57.59H4.57c-.31,0-.57-.26-.57-.59v-17.88H0v17.88c0,2.53,2.05,4.59,4.57,4.59h30.85c2.52,0,4.57-2.06,4.57-4.59v-17.88h-4Z"/>
</svg>