<?xml version="1.0" encoding="UTF-8"?>
<svg id="_x33_219" xmlns="http://www.w3.org/2000/svg" version="1.1" viewBox="0 0 40 40">
  <!-- Generator: Adobe Illustrator 29.0.1, SVG Export Plug-In . SVG Version: 2.1.0 Build 192)  -->
  <defs>
    <style>
      .st0 {
        fill: #1e1e1c;
      }
    </style>
  </defs>
  <path class="st0" d="M11.25,20.36c-.44-.44-.44-1.15,0-1.59.44-.44,1.15-.44,1.59,0l6.03,6.04V0h2.25v24.8l6.03-6.04c.44-.44,1.15-.44,1.59,0,.44.44.44,1.15,0,1.59l-8.75,8.75-8.75-8.75ZM37.75,17.37v18.78c0,.88-.71,1.6-1.57,1.6H3.82c-.87,0-1.57-.72-1.57-1.6v-18.78H0v18.78c0,2.12,1.71,3.85,3.82,3.85h32.36c2.11,0,3.82-1.73,3.82-3.85v-18.78h-2.25Z"/>
</svg>