<?xml version="1.0" encoding="UTF-8"?>
<svg id="_x33_219" xmlns="http://www.w3.org/2000/svg" version="1.1" viewBox="0 0 32 32">
  <!-- Generator: Adobe Illustrator 29.0.1, SVG Export Plug-In . SVG Version: 2.1.0 Build 192)  -->
  <defs>
    <style>
      .st0 {
        fill: #1e1e1c;
      }
    </style>
  </defs>
  <path class="st0" d="M8.73,16.1c-.68-.68-.68-1.79,0-2.48s1.79-.68,2.48,0l3.06,3.06V0h3.5v16.69l3.06-3.06c.68-.68,1.79-.68,2.48,0s.68,1.79,0,2.48l-7.29,7.29-7.29-7.29ZM28.52,14.01v14.18c0,.17-.13.3-.29.3H3.81c-.16,0-.28-.14-.28-.3v-14.18H.02v14.18c0,2.1,1.7,3.81,3.79,3.81h24.43c2.09,0,3.79-1.71,3.79-3.81v-14.18h-3.5Z"/>
</svg>