<?xml version="1.0" encoding="UTF-8"?>
<svg id="_x33_219" xmlns="http://www.w3.org/2000/svg" version="1.1" viewBox="0 0 24 24">
  <!-- Generator: Adobe Illustrator 29.0.1, SVG Export Plug-In . SVG Version: 2.1.0 Build 192)  -->
  <defs>
    <style>
      .st0 {
        fill: #1e1e1c;
      }
    </style>
  </defs>
  <path class="st0" d="M6.61,12.36c-.34-.34-.34-.9,0-1.24.34-.34.9-.34,1.24,0l3.28,3.28V0h1.75v14.4l3.28-3.28c.34-.34.9-.34,1.24,0,.34.34.34.9,0,1.24l-5.39,5.39-5.39-5.39ZM22.25,10.61v10.93c0,.39-.32.71-.71.71H2.46c-.39,0-.71-.32-.71-.71v-10.93H0v10.93c0,1.36,1.11,2.46,2.46,2.46h19.07c1.36,0,2.46-1.1,2.46-2.46v-10.93h-1.75Z"/>
</svg>