<?xml version="1.0" encoding="UTF-8"?>
<svg id="a" data-name="3219" xmlns="http://www.w3.org/2000/svg" viewBox="0 0 40 40">
  <path d="M20-.06C8.97-.06,0,8.92,0,19.94s8.97,20,20,20,20-8.97,20-20S31.03-.06,20-.06ZM20,29.59c-1.83,0-3.02-1.28-3.02-2.81s1.19-2.78,3.02-2.78,3.01,1.31,3.01,2.78-1.19,2.81-3.01,2.81ZM24.53,19c-1.71,1.19-2.32,1.57-2.32,3.28v.17h-4.41v-.7c0-2.41.93-3.48,2.44-4.52,1.16-.81,2.15-1.48,2.15-2.49s-.87-1.71-2.9-1.71c-1.65,0-3.48.49-4.99,1.19v-4.2c1.36-.55,3.6-1.04,5.74-1.04,4.03,0,7.22,1.83,7.22,5.34,0,2-1.04,3.39-2.93,4.7Z" fill="#1e1e1c"/>
</svg>