<?xml version="1.0" encoding="UTF-8"?>
<svg id="a" data-name="3219" xmlns="http://www.w3.org/2000/svg" viewBox="0 0 32 32">
  <path d="M15.98,0C7.16,0-.02,7.18-.02,16s7.18,16,16,16,16-7.18,16-16S24.8,0,15.98,0ZM15.96,23.23c-1.45,0-2.4-1.01-2.4-2.24s.94-2.21,2.4-2.21,2.4,1.04,2.4,2.21-.94,2.24-2.4,2.24ZM19.56,14.82c-1.36.94-1.84,1.24-1.84,2.6v.14h-3.5v-.55c0-1.91.74-2.77,1.94-3.59.92-.65,1.7-1.18,1.7-1.98s-.69-1.36-2.3-1.36c-1.31,0-2.77.39-3.96.95v-3.34c1.08-.44,2.86-.83,4.56-.83,3.2,0,5.74,1.45,5.74,4.24,0,1.59-.83,2.7-2.33,3.73Z" fill="#1e1e1c"/>
</svg>