<?xml version="1.0" encoding="UTF-8"?>
<svg id="a" data-name="3219" xmlns="http://www.w3.org/2000/svg" viewBox="0 0 24 24">
  <path d="M11.93,0C5.32,0-.07,5.38-.07,12s5.38,12,12,12,12-5.38,12-12S18.55,0,11.93,0ZM11.93,22.25c-5.65,0-10.25-4.6-10.25-10.25S6.28,1.75,11.93,1.75s10.25,4.6,10.25,10.25-4.6,10.25-10.25,10.25ZM13.71,16.19c0,.9-.7,1.65-1.77,1.65s-1.77-.75-1.77-1.65.7-1.63,1.77-1.63,1.77.77,1.77,1.63ZM16.31,8.87c0,1.17-.61,1.99-1.72,2.76-1,.7-1.36.92-1.36,1.92v.17h-2.59v-.48c0-1.41.54-2.04,1.43-2.65.68-.48,1.26-.87,1.26-1.46s-.51-1-1.7-1c-.97,0-2.04.29-2.93.7v-2.47c.8-.32,2.11-.61,3.37-.61,2.36,0,4.24,1.07,4.24,3.13Z" fill="#1d1d1b"/>
</svg>