<?xml version="1.0" encoding="UTF-8"?>
<svg id="a" data-name="3219" xmlns="http://www.w3.org/2000/svg" viewBox="0 0 32 32">
  <path d="M15.94,0C7.12,0-.06,7.18-.06,16s7.18,16,16,16,16-7.18,16-16S24.76,0,15.94,0ZM15.94,30c-7.72,0-14-6.28-14-14S8.23,2,15.94,2s14,6.28,14,14-6.28,14-14,14ZM18.3,21.24c0,1.22-.94,2.24-2.4,2.24s-2.4-1.01-2.4-2.24.94-2.21,2.4-2.21,2.4,1.04,2.4,2.21ZM21.83,11.34c0,1.59-.83,2.7-2.33,3.73-1.36.94-1.84,1.24-1.84,2.6v.23h-3.5v-.64c0-1.91.74-2.77,1.94-3.59.92-.65,1.7-1.18,1.7-1.98s-.69-1.36-2.3-1.36c-1.31,0-2.77.39-3.96.95v-3.34c1.08-.44,2.86-.83,4.56-.83,3.2,0,5.74,1.45,5.74,4.24Z" fill="#1d1d1b"/>
</svg>