<?xml version="1.0" encoding="UTF-8"?>
<svg id="a" data-name="3219" xmlns="http://www.w3.org/2000/svg" viewBox="0 0 64 64">
  <path d="M33.28,28h-5.6v-8.5h5.6c3.25,0,5.25,1.4,5.25,4.15,0,2.9-1.95,4.35-5.25,4.35ZM33.63,33.1h-5.95v9.5h6.05c4.1,0,6.15-1.75,6.15-4.8s-2.05-4.7-6.25-4.7ZM57.52,57.51H6.51V6.5h51v51ZM46.93,37.9c0-3.95-1.75-6.25-5.45-7.95,2.9-2.05,4.05-4.3,4.05-7.35,0-7.1-5.65-8.8-12.75-8.8h-11.9v34.5h12.8c7.75,0,13.25-2.9,13.25-10.4ZM61.02,9.15c0,1.66,1.34,3,3,3v3.15c-1.66,0-3,1.34-3,3s1.34,3,3,3v3.15c-1.66,0-3,1.34-3,3s1.34,3,3,3v3.15c-1.66,0-3,1.34-3,3s1.34,3,3,3v3.15c-1.66,0-3,1.34-3,3s1.34,3,3,3v3.15c-1.66,0-3,1.34-3,3s1.34,3,3,3v3.08c-1.66,0-3,1.34-3,3h-3.14c0-1.66-1.34-3-3-3s-3,1.34-3,3h-3.14c0-1.66-1.34-3-3-3s-3,1.34-3,3h-3.14c0-1.66-1.34-3-3-3s-3,1.34-3,3h-3.14c0-1.66-1.34-3-3-3s-3,1.34-3,3h-3.14c0-1.66-1.34-3-3-3s-3,1.34-3,3h-3.14c0-1.66-1.34-3-3-3s-3,1.34-3,3h-3.16c-.04-1.62-1.35-2.93-2.99-2.93v-3.15c1.66,0,3-1.34,3-3s-1.34-3-3-3v-3.15c1.66,0,3-1.34,3-3s-1.34-3-3-3v-3.15c1.66,0,3-1.34,3-3s-1.34-3-3-3v-3.15c1.66,0,3-1.34,3-3S1.67,24.46.02,24.46v-3.15c1.66,0,3-1.34,3-3S1.67,15.3.02,15.3v-3.15c1.66,0,3-1.34,3-3S1.67,6.15.02,6.15v-3.15C1.67,3,3.02,1.65,3.02,0h3.14c0,1.66,1.34,3,3,3S12.16,1.65,12.16,0h3.14c0,1.66,1.34,3,3,3S21.3,1.65,21.3,0h3.14c0,1.66,1.34,3,3,3S30.44,1.65,30.44,0h3.14c0,1.66,1.34,3,3,3S39.59,1.65,39.59,0h3.14c0,1.66,1.34,3,3,3S48.73,1.65,48.73,0h3.14c0,1.66,1.34,3,3,3S57.87,1.65,57.87,0h3.14c0,1.66,1.34,3,3,3v3.15c-1.66,0-3,1.34-3,3ZM58.52,5.5H5.51v53h53V5.5Z" fill="#1d1d1b"/>
</svg>