<?xml version="1.0" encoding="UTF-8"?>
<svg id="a" data-name="3219" xmlns="http://www.w3.org/2000/svg" viewBox="0 0 16 16">
  <path d="M16,1.54v-.79c-.41,0-.75-.34-.75-.75h-.79c0,.41-.34.75-.75.75s-.75-.34-.75-.75h-.79c0,.41-.34.75-.75.75s-.75-.34-.75-.75h-.79c0,.41-.34.75-.75.75s-.75-.34-.75-.75h-.79c0,.41-.34.75-.75.75s-.75-.34-.75-.75h-.79c0,.41-.34.75-.75.75s-.75-.34-.75-.75h-.79c0,.41-.34.75-.75.75s-.75-.34-.75-.75h-.79C.75.41.42.75,0,.75v.79c.41,0,.75.34.75.75S.42,3.04,0,3.04v.79c.41,0,.75.34.75.75S.42,5.33,0,5.33v.79c.41,0,.75.34.75.75S.42,7.62,0,7.62v.79c.41,0,.75.34.75.75s-.34.75-.75.75v.79c.41,0,.75.34.75.75s-.34.75-.75.75v.79c.41,0,.75.34.75.75s-.34.75-.75.75v.79c.41,0,.74.33.75.73h.79c0-.41.34-.75.75-.75s.75.34.75.75h.79c0-.41.34-.75.75-.75s.75.34.75.75h.79c0-.41.34-.75.75-.75s.75.34.75.75h.79c0-.41.34-.75.75-.75s.75.34.75.75h.79c0-.41.34-.75.75-.75s.75.34.75.75h.79c0-.41.34-.75.75-.75s.75.34.75.75h.79c0-.41.34-.75.75-.75v-.77c-.41,0-.75-.34-.75-.75s.34-.75.75-.75v-.79c-.41,0-.75-.34-.75-.75s.34-.75.75-.75v-.79c-.41,0-.75-.34-.75-.75s.34-.75.75-.75v-.79c-.41,0-.75-.34-.75-.75s.34-.75.75-.75v-.79c-.41,0-.75-.34-.75-.75s.34-.75.75-.75v-.79c-.41,0-.75-.34-.75-.75s.34-.75.75-.75ZM14.5,14.5H1.5V1.5h13v13ZM11.32,9.53c0-.95-.42-1.5-1.31-1.91.7-.49.97-1.03.97-1.76,0-1.7-1.36-2.11-3.06-2.11h-2.85v8.28h3.07c1.86,0,3.18-.7,3.18-2.5ZM6.7,5.11h1.34c.78,0,1.26.34,1.26,1,0,.7-.47,1.04-1.26,1.04h-1.34v-2.04ZM6.7,8.38h1.43c1.01,0,1.5.38,1.5,1.13s-.49,1.15-1.47,1.15h-1.45v-2.28Z" fill="#1d1d1b"/>
</svg>