<?xml version="1.0" encoding="UTF-8"?>
<svg id="a" data-name="3219" xmlns="http://www.w3.org/2000/svg" viewBox="0 0 48 48">
  <path d="M48,4.62v-2.36c-1.24,0-2.25-1.01-2.25-2.25h-2.36c0,1.24-1.01,2.25-2.25,2.25S38.9,1.25,38.9,0h-2.36c0,1.24-1.01,2.25-2.25,2.25S32.04,1.25,32.04,0h-2.36c0,1.24-1.01,2.25-2.25,2.25S25.18,1.25,25.18,0h-2.36c0,1.24-1.01,2.25-2.25,2.25S18.33,1.25,18.33,0h-2.36c0,1.24-1.01,2.25-2.25,2.25S11.47,1.25,11.47,0h-2.36c0,1.24-1.01,2.25-2.25,2.25S4.61,1.25,4.61,0h-2.36C2.25,1.25,1.25,2.26,0,2.26v2.36c1.24,0,2.25,1.01,2.25,2.25S1.25,9.12,0,9.12v2.37c1.24,0,2.25,1.01,2.25,2.25S1.25,15.99,0,15.99v2.36c1.24,0,2.25,1.01,2.25,2.25S1.25,22.85,0,22.85v2.37c1.24,0,2.25,1.01,2.25,2.25S1.25,29.72,0,29.72v2.37c1.24,0,2.25,1.01,2.25,2.25S1.25,36.58,0,36.58v2.36c1.24,0,2.25,1.01,2.25,2.25S1.25,43.45,0,43.45v2.37c1.22,0,2.21.98,2.24,2.19h2.37c0-1.24,1.01-2.25,2.25-2.25s2.25,1.01,2.25,2.25h2.36c0-1.24,1.01-2.25,2.25-2.25s2.25,1.01,2.25,2.25h2.36c0-1.24,1.01-2.25,2.25-2.25s2.25,1.01,2.25,2.25h2.36c0-1.24,1.01-2.25,2.25-2.25s2.25,1.01,2.25,2.25h2.36c0-1.24,1.01-2.25,2.25-2.25s2.25,1.01,2.25,2.25h2.36c0-1.24,1.01-2.25,2.25-2.25s2.25,1.01,2.25,2.25h2.36c0-1.24,1.01-2.25,2.25-2.25v-2.31c-1.24,0-2.25-1.01-2.25-2.25s1.01-2.25,2.25-2.25v-2.36c-1.24,0-2.25-1.01-2.25-2.25s1.01-2.25,2.25-2.25v-2.37c-1.24,0-2.25-1.01-2.25-2.25s1.01-2.25,2.25-2.25v-2.37c-1.24,0-2.25-1.01-2.25-2.25s1.01-2.25,2.25-2.25v-2.36c-1.24,0-2.25-1.01-2.25-2.25s1.01-2.25,2.25-2.25v-2.37c-1.24,0-2.25-1.01-2.25-2.25s1.01-2.25,2.25-2.25ZM43.51,43.51H4.5V4.51h39v39ZM34.83,28.6c0-3-1.33-4.75-4.14-6.04,2.2-1.56,3.08-3.27,3.08-5.58,0-5.39-4.29-6.69-9.69-6.69h-9.04v26.22h9.73c5.89,0,10.07-2.2,10.07-7.9ZM20.2,14.62h4.26c2.47,0,3.99,1.06,3.99,3.15,0,2.2-1.48,3.31-3.99,3.31h-4.26v-6.46ZM20.2,24.95h4.52c3.19,0,4.75,1.22,4.75,3.57s-1.56,3.65-4.67,3.65h-4.6v-7.22Z" fill="#1d1d1b"/>
</svg>