<?xml version="1.0" encoding="UTF-8"?>
<svg id="a" data-name="3219" xmlns="http://www.w3.org/2000/svg" viewBox="0 0 48 48">
  <path d="M35.2,15.08l-12.37,19.48-10.46-8.78c-.53-.44-.6-1.23-.15-1.76.44-.53,1.23-.6,1.76-.15l8.27,6.94,10.84-17.07c.37-.58,1.14-.76,1.73-.39.58.37.76,1.14.39,1.73ZM48.01,24.04c0,13.23-10.77,24-24,24S.01,37.28.01,24.04,10.78.04,24.01.04s24,10.77,24,24ZM45.51,24.04c0-11.85-9.64-21.5-21.5-21.5S2.52,12.19,2.52,24.04s9.64,21.5,21.5,21.5,21.5-9.64,21.5-21.5Z" fill="#1e1e1c"/>
</svg>