<?xml version="1.0" encoding="UTF-8"?>
<svg id="a" data-name="3219" xmlns="http://www.w3.org/2000/svg" viewBox="0 0 24 24">
  <path d="M7.1,8.88l.15.16c.64.69,1.5,1.07,2.42,1.07.16,0,.32-.03.48-.05.02-.02.04-.04.06-.06.76-.74,1.65-1.32,2.6-1.73l4.78-5.14v4.48c.6.09,1.19.25,1.75.46V.02H0v15.12h7.62c.08-.6.22-1.19.42-1.75H2.61l4.5-4.51ZM1.75,11.77V3.12l4.16,4.47L1.75,11.77ZM10.81,7.85c-.62.66-1.66.66-2.28,0L2.89,1.77h13.57l-5.65,6.07ZM16.58,8.67c-2.07-.05-4.07.71-5.57,2.16-1.5,1.46-2.33,3.42-2.33,5.51,0,4.23,3.43,7.68,7.66,7.68h1.45c.48,0,.87-.39.87-.88s-.39-.88-.87-.88h-1.45c-3.26,0-5.91-2.66-5.91-5.92,0-1.62.64-3.13,1.79-4.25,1.16-1.13,2.69-1.73,4.3-1.67,3.16.09,5.73,2.88,5.73,6.21v3.09c0,.45-.37.82-.82.82s-.82-.37-.82-.82v-3.19h0c0-2.44-1.9-4.44-4.23-4.46h-.04c-1.3,0-2.5.58-3.32,1.59-.82,1.02-1.13,2.36-.83,3.67.36,1.59,1.67,2.88,3.28,3.2,1.21.25,2.44-.03,3.39-.73.04,1.38,1.18,2.49,2.57,2.49s2.57-1.16,2.57-2.58v-3.09c0-4.27-3.33-7.84-7.42-7.96ZM18.11,18.15c-.61.6-1.44.83-2.29.67-.94-.19-1.71-.94-1.92-1.87-.18-.79,0-1.57.49-2.18.48-.6,1.2-.94,1.96-.94h.02c1.35.01,2.49,1.25,2.49,2.71,0,.89-.73,1.6-.76,1.62Z" fill="#1e1e1c"/>
</svg>