<?xml version="1.0" encoding="UTF-8"?>
<svg id="a" data-name="3219" xmlns="http://www.w3.org/2000/svg" viewBox="0 0 40 40">
  <path d="M11.75,14.15l.51.54c1.02,1.1,2.39,1.7,3.84,1.7s2.82-.6,3.84-1.7l.51-.54.29.29c.73-.37,1.49-.67,2.27-.92l-1.03-1.03,7.9-8.47v9.03c.77.14,1.53.33,2.26.59V.04H.05v24.86h13.01c.13-.77.33-1.52.58-2.26H3.26l8.49-8.49ZM2.31,20.4V4.03l7.9,8.47-7.9,7.9ZM13.91,13.16L3.78,2.3h24.65l-10.13,10.86c-1.18,1.27-3.21,1.27-4.39,0ZM27.81,14.79c-3.47-.14-6.71,1.16-9.19,3.56-2.47,2.4-3.83,5.62-3.83,9.06,0,6.96,5.67,12.63,12.63,12.63h2.47c.62,0,1.13-.51,1.13-1.13s-.51-1.13-1.13-1.13h-2.47c-5.72,0-10.37-4.65-10.37-10.37,0-2.83,1.12-5.47,3.15-7.44,2.03-1.97,4.69-3,7.55-2.92,5.54.17,10.06,5.03,10.06,10.85v5.22c0,.96-.78,1.75-1.75,1.75s-1.75-.78-1.75-1.75v-5.39h0c0-3.93-3.06-7.16-6.82-7.19-2.13,0-4.09.91-5.42,2.56s-1.82,3.8-1.34,5.9c.58,2.56,2.7,4.63,5.28,5.15,2.2.44,4.45-.18,6.04-1.64v.61c0,2.21,1.8,4,4,4s4-1.8,4-4v-5.22c0-7.02-5.49-12.9-12.24-13.1ZM30.65,30.72c-1.11,1.09-2.64,1.54-4.21,1.22-1.72-.35-3.14-1.73-3.53-3.43-.32-1.43,0-2.88.9-3.99.88-1.1,2.2-1.72,3.6-1.72h.04c2.53.02,4.58,2.23,4.58,4.93,0,1.67-1.35,2.96-1.39,2.99Z" fill="#1e1e1c"/>
</svg>