<?xml version="1.0" encoding="UTF-8"?>
<svg id="a" data-name="3219" xmlns="http://www.w3.org/2000/svg" viewBox="0 0 64 64">
  <path d="M18.54,21.77l1.14,1.23c1.57,1.68,3.67,2.61,5.9,2.61s4.33-.93,5.9-2.61l1.14-1.23,1.17,1.17c.9-.43,1.82-.81,2.77-1.12l-2.06-2.06,13.91-14.91v16.22c.94.19,1.86.44,2.75.75V-.02H0v39.43h21.06c.18-.94.42-1.85.72-2.75H3.64l14.89-14.89ZM2.75,33.66V4.84l13.91,14.91-13.91,13.91ZM29.48,21.12c-1.04,1.12-2.43,1.74-3.89,1.74s-2.85-.62-3.89-1.74L4.54,2.73h42.09l-17.16,18.39ZM44.57,23.91c-5.47-.18-10.65,1.84-14.57,5.65-3.92,3.81-6.08,8.91-6.08,14.38,0,11.05,8.99,20.04,20.04,20.04h4c.76,0,1.38-.62,1.38-1.38s-.62-1.38-1.38-1.38h-4c-9.53,0-17.29-7.75-17.29-17.28,0-4.71,1.86-9.12,5.25-12.4,3.38-3.28,7.85-5,12.57-4.87,9.24.28,16.76,8.38,16.76,18.06v8.47c0,1.81-1.48,3.29-3.29,3.29s-3.29-1.48-3.29-3.29v-8.75h0c0-6.13-4.76-11.16-10.61-11.21h-.1c-3.26,0-6.29,1.45-8.34,3.99-2.07,2.56-2.83,5.92-2.09,9.19.9,3.98,4.2,7.2,8.22,8.01,3.59.72,7.13-.31,9.67-2.8.03-.03.22-.21.5-.51v2.08c0,3.33,2.71,6.04,6.04,6.04s6.04-2.71,6.04-6.04v-8.47c0-11.15-8.72-20.49-19.43-20.81ZM49.52,49.62c-1.91,1.88-4.55,2.64-7.24,2.1-2.97-.6-5.41-2.98-6.08-5.92-.55-2.45.01-4.95,1.55-6.86,1.52-1.89,3.78-2.96,6.2-2.96h.07c4.35.04,7.88,3.83,7.88,8.46,0,2.92-2.34,5.13-2.39,5.18Z" fill="#1e1e1c"/>
</svg>