<?xml version="1.0" encoding="UTF-8"?>
<svg id="a" data-name="3219" xmlns="http://www.w3.org/2000/svg" viewBox="0 0 40 40">
  <rect x="0" y="0" width="40" height="40" fill="none"/>
  <path d="M16.33,24.61v-10l9.56,5-9.56,5h0ZM37.44,12.94s-.33-2.44-1.44-3.56c-1.33-1.44-2.89-1.44-3.56-1.56-5-.33-12.44-.33-12.44-.33h0s-7.44,0-12.44.33c-.67.11-2.22.11-3.56,1.56-1.11,1.11-1.44,3.56-1.44,3.56,0,0-.33,2.89-.33,5.78v2.67c0,2.89.33,5.78.33,5.78,0,0,.33,2.44,1.44,3.56,1.33,1.44,3.11,1.33,3.89,1.56,2.89.22,12.11.22,12.11.22,0,0,7.44,0,12.44-.33.67-.11,2.22-.11,3.56-1.56,1.11-1.11,1.44-3.56,1.44-3.56,0,0,.33-2.89.33-5.78v-2.67c0-2.78-.33-5.67-.33-5.67" fill="#020303"/>
</svg>