<?xml version="1.0" encoding="UTF-8"?>
<svg id="a" data-name="3219" xmlns="http://www.w3.org/2000/svg" viewBox="0 0 16 16">
  <rect x="0" y="0" width="16" height="16" fill="none"/>
  <path d="M6.53,9.84v-4l3.82,2-3.82,2h0ZM14.97,5.18s-.13-.98-.58-1.42c-.53-.58-1.16-.58-1.42-.62-2-.13-4.98-.13-4.98-.13h0s-2.98,0-4.98.13c-.27.04-.89.04-1.42.62-.44.44-.58,1.42-.58,1.42,0,0-.13,1.16-.13,2.31v1.07c0,1.16.13,2.31.13,2.31,0,0,.13.98.58,1.42.53.58,1.24.53,1.56.62,1.16.09,4.84.09,4.84.09,0,0,2.98,0,4.98-.13.27-.04.89-.04,1.42-.62.44-.44.58-1.42.58-1.42,0,0,.13-1.16.13-2.31v-1.07c0-1.11-.13-2.27-.13-2.27" fill="#020303"/>
</svg>