<?xml version="1.0" encoding="UTF-8"?>
<svg id="a" data-name="3219" xmlns="http://www.w3.org/2000/svg" viewBox="0 0 32 32">
  <path d="M13.09,11.77l7.64,4-7.64,4v-8ZM32.02.08v32H.02V.08h32ZM30.24,14.97c0-2.22-.27-4.53-.27-4.53,0,0-.27-1.96-1.16-2.84-1.07-1.16-2.31-1.16-2.84-1.24-4-.27-9.96-.27-9.96-.27,0,0-5.96,0-9.96.27-.53.09-1.78.09-2.84,1.24-.89.89-1.16,2.84-1.16,2.84,0,0-.27,2.31-.27,4.62v2.13c0,2.31.27,4.62.27,4.62,0,0,.27,1.96,1.16,2.84,1.07,1.16,2.49,1.07,3.11,1.24,2.31.18,9.69.18,9.69.18,0,0,5.96,0,9.96-.27.53-.09,1.78-.09,2.84-1.24.89-.89,1.16-2.84,1.16-2.84,0,0,.27-2.31.27-4.62v-2.13Z" fill="#1d1d1b"/>
</svg>