<?xml version="1.0" encoding="UTF-8"?>
<svg id="a" data-name="3219" xmlns="http://www.w3.org/2000/svg" viewBox="0 0 48 48">
  <path d="M19.62,17.54l11.47,6-11.47,6v-12ZM48.02,0v48H.02V0h48ZM45.35,22.34c0-3.33-.4-6.8-.4-6.8,0,0-.4-2.93-1.73-4.27-1.6-1.73-3.47-1.73-4.27-1.87-6-.4-14.93-.4-14.93-.4,0,0-8.93,0-14.93.4-.8.13-2.67.13-4.27,1.87-1.33,1.33-1.73,4.27-1.73,4.27,0,0-.4,3.47-.4,6.93v3.2c0,3.47.4,6.93.4,6.93,0,0,.4,2.93,1.73,4.27,1.6,1.73,3.73,1.6,4.67,1.87,3.47.27,14.53.27,14.53.27,0,0,8.93,0,14.93-.4.8-.13,2.67-.13,4.27-1.87,1.33-1.33,1.73-4.27,1.73-4.27,0,0,.4-3.47.4-6.93v-3.2Z" fill="#1d1d1b"/>
</svg>