<?xml version="1.0" encoding="UTF-8"?>
<svg id="a" data-name="3219" xmlns="http://www.w3.org/2000/svg" viewBox="0 0 24 24">
  <path d="M.02.01v24h24V.01H.02ZM22.69,12.78c0,1.73-.2,3.47-.2,3.47,0,0-.2,1.47-.87,2.13-.8.87-1.73.87-2.13.93-3,.2-7.47.2-7.47.2,0,0-5.53,0-7.27-.13-.47-.13-1.53-.07-2.33-.93-.67-.67-.87-2.13-.87-2.13,0,0-.2-1.73-.2-3.47v-1.6c0-1.73.2-3.47.2-3.47,0,0,.2-1.47.87-2.13.8-.87,1.73-.87,2.13-.93,3-.2,7.47-.2,7.47-.2,0,0,4.47,0,7.47.2.4.07,1.33.07,2.13.93.67.67.87,2.13.87,2.13,0,0,.2,1.73.2,3.4v1.6ZM9.82,8.78l5.73,3-5.73,3v-6Z" fill="#1d1d1b"/>
</svg>