<svg viewBox="0 0 32 28" xmlns="http://www.w3.org/2000/svg">
  <path
    fill="#fc0" stroke="#523178" stroke-width="1.5"
    d="M14.975 22.5242L15.5601 22.3667L15.529 21.7616L15.409 19.4216L15.3513 18.2962L14.3355 18.7838C14.0832 18.9049 13.7064 19.0229 13.1797 19.1232L13.1796 19.1231L13.1664 19.1259C12.6436 19.2353 12.1229 19.2898 11.6034 19.29C10.2819 19.2775 9.34352 18.8609 8.68493 18.1067L8.67767 18.0984L8.67017 18.0903C7.98082 17.3462 7.61 16.3597 7.61 15.06C7.61 13.749 7.98657 12.7304 8.69708 11.9421L8.70306 11.9355L8.70888 11.9287C9.357 11.1744 10.2689 10.7624 11.5435 10.75C11.9992 10.7502 12.4481 10.7854 12.8905 10.8556C13.2983 10.9579 13.7317 11.1338 14.1915 11.3932L15.2087 11.967L15.3073 10.8033L15.5073 8.44332L15.5564 7.8638L15.0074 7.67196C13.8346 7.26219 12.6973 7.04999 11.6 7.04999V7.04995L11.592 7.05003C8.97148 7.07791 6.86415 7.74346 5.40173 9.16769C3.93692 10.5943 3.2391 12.6649 3.19014 15.2458L3.18996 15.255L3.19001 15.2642C3.2042 17.7744 3.97612 19.7657 5.62462 21.0802C7.16604 22.3781 9.18399 22.99 11.6 22.99V22.99L11.6093 22.9899C12.7518 22.9758 13.8742 22.8206 14.975 22.5242ZM18.6066 10.95H17.8566V11.7V26.2V26.95H18.6066H21.2866H22.0366V26.2V22.4034C22.1881 22.4922 22.343 22.5692 22.5013 22.6336C23.0787 22.8737 23.6965 22.99 24.3466 22.99V22.9901L24.3591 22.9899C26.1392 22.9602 27.5515 22.3292 28.4013 20.9796L28.4039 20.9753C29.1432 19.7835 29.4899 18.3877 29.4766 16.82C29.4899 15.2409 29.144 13.8427 28.4016 12.661L28.4018 12.661L28.3943 12.6496C27.5432 11.3479 26.1563 10.7398 24.4194 10.7101L24.4034 10.7098L24.3873 10.7102C23.4368 10.7346 22.6001 10.9398 21.9166 11.3472V10.95H21.1666H18.6066ZM22.5297 14.9903C22.7654 14.5443 23.119 14.3116 23.7182 14.29C24.0372 14.2917 24.2439 14.3641 24.3841 14.4597C24.5591 14.579 24.6977 14.7366 24.8021 14.9475C25.053 15.5589 25.1766 16.1814 25.1766 16.82C25.1766 17.1211 25.1539 17.4448 25.1071 17.792C25.0398 18.1073 24.9359 18.4042 24.7957 18.6846C24.6903 18.8956 24.543 19.0698 24.3454 19.2134L24.3454 19.2134L24.3408 19.2169C24.1824 19.3339 23.9717 19.41 23.6666 19.41C23.3604 19.41 23.1638 19.3337 23.0252 19.2265L23.0165 19.2199L23.0077 19.2134C22.8033 19.0648 22.6351 18.8801 22.5006 18.6527C22.1914 18.0739 22.0455 17.4711 22.0565 16.8329L22.0566 16.8329V16.82C22.0566 16.1733 22.2112 15.5707 22.524 15.0009L22.5241 15.001L22.5297 14.9903Z"
  />
</svg>
