<svg viewBox="0 0 32 28" xmlns="http://www.w3.org/2000/svg">
  <path
    fill="#fc0" stroke="#523178" stroke-width="1.5"
    d="M5.104 9.082H4.354V9.832V21V21.75H5.104H7.344H8.094V21V9.832V9.082H7.344H5.104ZM16.1502 15.1988L17.1226 15.7136L17.2464 14.6204L17.4384 12.9244L17.5071 12.3171L16.9262 12.1271C16.2717 11.9132 15.4935 11.818 14.6131 11.818V11.818L14.6069 11.818C13.1597 11.8301 11.9517 12.3027 11.0989 13.3128C10.2713 14.2698 9.87913 15.4651 9.87913 16.84C9.87913 18.2482 10.2662 19.4661 11.0955 20.4272C11.9447 21.4596 13.1887 21.9301 14.6872 21.942L14.6872 21.942H14.6931C15.1599 21.942 15.587 21.9149 15.9701 21.8565C16.3524 21.8192 16.7186 21.7459 17.0666 21.634L17.6173 21.457L17.586 20.8795L17.49 19.1035L17.4299 17.991L16.4218 18.4654C16.3014 18.5221 16.1129 18.588 15.8392 18.6564L15.8189 18.6615L15.7988 18.6677C15.5599 18.7418 15.3272 18.7775 15.0984 18.778C14.5431 18.7689 14.2374 18.5876 14.0411 18.3105L14.036 18.3032L14.0307 18.2961C13.774 17.9514 13.6191 17.4842 13.6191 16.84C13.6191 16.1666 13.7878 15.7237 14.0447 15.4262L14.0448 15.4263L14.0522 15.4175C14.2797 15.1457 14.5852 14.9908 15.0514 14.982C15.3401 14.9823 15.5606 15.006 15.7232 15.0425C15.8913 15.0828 16.0321 15.1363 16.1502 15.1988ZM18.5885 16.9302L18.5885 16.9302V16.936C18.5885 18.3116 19.0266 19.5035 19.9263 20.4559C20.8439 21.4498 22.1143 21.9182 23.6308 21.9419L23.6424 21.9421L23.654 21.9419C25.1888 21.9183 26.4724 21.4516 27.3923 20.4541C28.2812 19.5009 28.7125 18.3096 28.7125 16.936L28.7125 16.9302C28.7006 15.4008 28.2381 14.1151 27.2463 13.1755L27.2461 13.1753C26.2887 12.269 25.0681 11.8301 23.6489 11.818L23.6489 11.8179L23.636 11.818C22.2352 11.8301 21.0273 12.2708 20.0726 13.1738C19.0696 14.1125 18.6004 15.3988 18.5885 16.9302ZM22.3554 17.0724L22.3555 17.0724L22.3539 17.0609C22.3369 16.9334 22.3285 16.8066 22.3285 16.68C22.3285 16.1732 22.4625 15.7668 22.7113 15.4275L22.7168 15.42L22.7222 15.4123C22.9031 15.1522 23.1691 14.992 23.6428 14.9821C24.1472 14.9922 24.43 15.1551 24.6154 15.403C24.8445 15.7398 24.9725 16.1544 24.9725 16.68C24.9725 16.9821 24.9489 17.2781 24.9021 17.5686L24.9015 17.5722C24.8613 17.8296 24.7832 18.05 24.6729 18.2412C24.5746 18.4115 24.4507 18.5364 24.2966 18.6289L24.2966 18.6288L24.2894 18.6333C24.159 18.7136 23.9577 18.778 23.6425 18.778C23.3472 18.778 23.1808 18.7125 23.084 18.644L23.0608 18.6275L23.0364 18.6129C22.8851 18.5221 22.7629 18.4 22.6655 18.2343C22.559 18.034 22.478 17.8024 22.4277 17.5338L22.4277 17.5338L22.4259 17.5249C22.3983 17.3868 22.3746 17.2361 22.3554 17.0724Z"
  />
</svg>
