<svg viewBox="0 0 32 28" xmlns="http://www.w3.org/2000/svg">
  <path
    fill="#fc0" stroke="#523178" stroke-width="1.5"
    d="M7.38 7.29H6.63V8.04V22V22.75H7.38H10.18H10.93V22V8.04V7.29H10.18H7.38ZM14.9464 6.25H14.1964V7V22V22.75H14.9464H17.6264H18.3764V22V16.96C18.3764 16.6705 18.4099 16.3469 18.4818 15.9871L18.4838 15.9773L18.4855 15.9674C18.5392 15.656 18.6347 15.3629 18.7721 15.0858C18.9111 14.8305 19.0825 14.6299 19.285 14.4735C19.4127 14.3748 19.6231 14.29 19.9864 14.29C20.2982 14.29 20.4718 14.3501 20.5652 14.4075C20.6664 14.4918 20.741 14.6011 20.7889 14.7584L20.8009 14.7977L20.8171 14.8354C20.8962 15.0201 20.9467 15.2413 20.957 15.5088C20.9699 15.8463 20.9764 16.1767 20.9764 16.5V22V22.75H21.7264H24.4064H25.1564V22V15.5C25.1564 14.1992 24.8559 13.0643 24.1916 12.1569L24.1865 12.15L24.1813 12.1432C23.4289 11.1634 22.2858 10.7251 20.9147 10.71L20.9036 10.7099L20.8925 10.7101C19.9359 10.7278 19.0894 10.9516 18.3764 11.389V7V6.25H17.6264H14.9464Z"
  />
</svg>
