<svg viewBox="0 0 32 28" xmlns="http://www.w3.org/2000/svg">
  <path
    fill="#fc0" stroke="#523178" stroke-width="1.5"
    d="M11.8221 11.2883L12.7515 11.6906L12.8653 10.6842L13.1253 8.38423L13.194 7.77575L12.6116 7.58664C11.5023 7.22648 10.3099 7.04999 9.04 7.04999C7.64359 7.04999 6.38458 7.39746 5.29004 8.11195L5.29002 8.11192L5.28398 8.11595C4.02133 8.95772 3.43967 10.333 3.41012 12.0471L3.41 12.0471V12.06C3.41 12.7021 3.51698 13.2984 3.75648 13.8287C3.97391 14.3101 4.25252 14.7365 4.59749 15.0978L4.61528 15.1165L4.6343 15.1339C4.97948 15.449 5.35531 15.7205 5.76105 15.9474C6.13839 16.1786 6.53599 16.3803 6.95324 16.553L6.96552 16.5581L6.97797 16.5627C7.73556 16.8452 8.4019 17.1374 8.97956 17.4379C9.1642 17.5451 9.31162 17.6717 9.42917 17.8167C9.48719 17.9122 9.52883 18.0417 9.52998 18.2319C9.52059 18.5753 9.39272 18.781 9.09856 18.9428C8.67031 19.1784 8.24195 19.2893 7.8043 19.29C6.81448 19.2775 5.88676 19.0252 5.01021 18.5277L4.01179 17.9611L3.89396 19.103L3.63396 21.623L3.56659 22.2761L4.20497 22.4293C4.87591 22.5903 5.47243 22.7194 5.99307 22.8155C6.55285 22.9354 7.21242 22.99 7.96 22.99C9.53899 22.99 10.923 22.6374 12.0702 21.8879C13.3329 21.0629 13.9201 19.7152 13.9499 18.0333L13.95 18.0333V18.02C13.95 17.357 13.8621 16.7495 13.6623 16.2166L13.6536 16.1937L13.6435 16.1713C13.4273 15.6925 13.1506 15.2683 12.8083 14.9082C12.4751 14.5445 12.0884 14.2381 11.6521 13.9888L11.6521 13.9888L11.6442 13.9844C11.2558 13.7686 10.8532 13.5814 10.4367 13.4228C10.0553 13.265 9.69388 13.1138 9.35223 12.9693L9.3365 12.9626L9.32049 12.9567C8.99217 12.8351 8.69238 12.7032 8.42001 12.5619C8.20003 12.4348 8.03306 12.3019 7.9083 12.1682C7.86115 12.1177 7.83 12.0584 7.83 11.94C7.83 11.6442 7.88645 11.4639 7.94907 11.3558L7.9532 11.3486L7.95717 11.3414C8.05502 11.1635 8.15336 11.0686 8.2375 11.016L8.23755 11.0161L8.24744 11.0097C8.40026 10.9108 8.555 10.8475 8.71451 10.8139L8.71452 10.8139L8.7227 10.8121C8.90896 10.7707 9.09283 10.7503 9.27522 10.75C10.1769 10.7627 11.0238 10.9427 11.8221 11.2883ZM21.7933 16.886L20.0056 11.4651L19.8357 10.95H19.2933H16.3333H15.262L15.6286 11.9566L19.5197 22.6424C19.4998 22.9709 19.3989 23.1826 19.2613 23.3322C19.1213 23.4844 18.9068 23.599 18.5236 23.61C17.9432 23.6093 17.5995 23.5492 17.4266 23.4816L16.4968 23.1177L16.4064 24.1121L16.2264 26.0921L16.1708 26.7035L16.7592 26.8788C17.4538 27.0857 18.1592 27.19 18.8733 27.19C19.6612 27.19 20.3805 27.0384 20.9975 26.6956L20.9992 26.6947C21.5505 26.3866 22.0087 25.9703 22.3668 25.4514C22.7116 24.9706 22.9984 24.4304 23.2308 23.8357C23.4465 23.2963 23.6553 22.7439 23.8573 22.1786L27.7149 11.965L28.0983 10.95H27.0133H24.2933H23.7509L23.581 11.4651L21.7933 16.886Z"
  />
</svg>
