<?xml version="1.0" encoding="UTF-8"?>
<svg id="a" data-name="3219" xmlns="http://www.w3.org/2000/svg" viewBox="0 0 16 16">
  <rect x="-.01" y="0" width="16" height="16" fill="none"/>
  <path d="M11.38,12.75c0,.13-.13.25-.25.25h-1.57c-.16,0-.25-.13-.25-.25v-2.1c0-.56-.47-1-1.03-1h-.56c-.56,0-1.03.44-1.03,1v2.1c0,.13-.13.25-.25.25h-1.57c-.16,0-.25-.13-.25-.25V3.25c-.06-.13.06-.25.22-.25h1.57c.13,0,.25.13.25.25v4.48c.31-.13.69-.19,1.03-.19h.53c.56,0,1.03-.44,1.03-1l.03-.5c.03-.13.13-.22.25-.22h1.57c.13,0,.25.09.25.22h0v.5c0,.78-.31,1.5-.78,2.04.5.53.82,1.25.82,2.07v2.1Z" fill="#010101"/>
</svg>