<?xml version="1.0" encoding="UTF-8"?>
<svg id="a" data-name="3219" xmlns="http://www.w3.org/2000/svg" viewBox="0 0 24 24">
  <rect x="-.01" y="0" width="24" height="24" fill="none"/>
  <path d="M17.08,19.13c0,.19-.19.38-.38.38h-2.35c-.24,0-.38-.19-.38-.38v-3.15c0-.85-.71-1.5-1.55-1.5h-.85c-.85,0-1.55.66-1.55,1.5v3.15c0,.19-.19.38-.38.38h-2.35c-.24,0-.38-.19-.38-.38V4.88c-.09-.19.09-.38.33-.38h2.35c.19,0,.38.19.38.38v6.72c.47-.19,1.03-.28,1.55-.28h.8c.85,0,1.55-.66,1.55-1.5l.05-.75c.05-.19.19-.33.38-.33h2.35c.19,0,.38.14.38.33h0v.75c0,1.18-.47,2.26-1.18,3.06.75.8,1.22,1.88,1.22,3.1v3.15Z" fill="#010101"/>
</svg>