<?xml version="1.0" encoding="UTF-8"?>
<svg id="a" data-name="3219" xmlns="http://www.w3.org/2000/svg" viewBox="0 0 24 24">
  <path d="M0,22.46C0,23.31.74,24,1.66,24h20.67c.92,0,1.66-.69,1.66-1.53v-3.63H0v3.63ZM20.49,20.43h1.75v1.75h-1.75v-1.75ZM16.99,20.43h1.75v1.75h-1.75v-1.75ZM19.02,10.7V1.87C19.02.84,18.18,0,17.14,0H6.73C5.69,0,4.85.84,4.85,1.87v8.83H0v6.39h24v-6.39h-4.98ZM17.27,15.32H6.6V1.87c0-.07.06-.12.12-.12h10.41c.07,0,.12.06.12.12v13.45ZM8.93,4.98h6.14v1.75h-6.14v-1.75ZM8.93,8.6h3.07v1.75h-3.07v-1.75Z" fill="#1e1e1c"/>
</svg>