<?xml version="1.0" encoding="UTF-8"?>
<svg id="a" data-name="3219" xmlns="http://www.w3.org/2000/svg" viewBox="0 0 16 16">
  <path d="M12.76,5.75V1.74C12.76.78,11.97,0,11.01,0h-6.1C3.94,0,3.16.78,3.16,1.74v4.01H0v8.49C0,15.21.79,16,1.75,16h12.49c.97,0,1.75-.78,1.75-1.75V5.75h-3.24ZM4.66,1.74c0-.14.11-.25.25-.25h6.1c.14,0,.25.11.25.25v7.75h-6.6V1.74ZM14.5,14.25c0,.14-.11.25-.25.25H1.75c-.14,0-.25-.11-.25-.25v-7h1.65v2.24h-.93v1.5h11.53v-1.5h-1v-2.24h1.74v7ZM11.26,12.24h1.5v1.5h-1.5v-1.5ZM6,3.24h4.01v1.5h-4.01v-1.5ZM6,6.25h2v1.5h-2v-1.5Z" fill="#1e1e1c"/>
</svg>