<?xml version="1.0" encoding="UTF-8"?>
<svg id="a" data-name="3219" xmlns="http://www.w3.org/2000/svg" viewBox="0 0 32 32">
  <path d="M9.08,19.05c-1.8.97-3.9,1.86-6.38,2.63l-1.04-3.34c1.81-.56,3.38-1.19,4.75-1.86C2.99,12.31,2.5,7.51,2.48,7.21l3.48-.32c.02.25.48,4.41,3.55,7.8,4.96-3.4,6.02-7.3,6.2-9.38H0V1.81h8.34V0h3.5v1.82h10.66v3.5h-3.28c-.17,2.68-1.33,7.52-6.9,11.68.87.53,1.85.99,2.98,1.34l-1.04,3.34c-2.07-.64-3.77-1.56-5.18-2.64ZM26.24,26.56h-7.57l-2.59,5.43-3.16-1.51,9.51-19.9,9.58,19.9-3.15,1.52-2.61-5.43ZM24.55,23.06l-2.11-4.39-2.1,4.39h4.21Z" fill="#1e1e1c"/>
</svg>