<?xml version="1.0" encoding="UTF-8"?>
<svg id="a" data-name="3219" xmlns="http://www.w3.org/2000/svg" viewBox="0 0 64 64">
  <path d="M18.49,37.18c-3.71,2.05-8.11,3.94-13.35,5.57l-1.49-4.77c4.25-1.33,7.87-2.83,10.98-4.43C7.12,25.16,6.09,14.97,6.03,14.36l4.98-.45c.05.54,1.03,9.82,8.06,17.06,12.05-7.88,13.75-17.26,13.86-21.39H-.01v-5h17.94V0h5v4.58h22.64v5h-7.64c-.1,5.08-2.01,15.82-14.85,24.76,2.14,1.46,4.64,2.73,7.59,3.64l-1.48,4.78c-4.32-1.34-7.83-3.3-10.7-5.57ZM53.9,52.41h-16.66l-5.54,11.58-4.51-2.16,18.34-38.33,18.46,38.32-4.51,2.17-5.58-11.59ZM51.49,47.41l-5.95-12.35-5.91,12.35h11.86Z" fill="#1e1e1c"/>
</svg>