<?xml version="1.0" encoding="UTF-8"?>
<svg id="a" data-name="3219" xmlns="http://www.w3.org/2000/svg" viewBox="0 0 32 32">
  <path d="M27.25,22.49c-.84,0-1.62.24-2.31.63l-2.4-2.21c.46-.95.72-2.01.72-3.13,0-3.4-2.35-6.25-5.5-7.03v-1.57c1.75-.7,3-2.41,3-4.41C20.75,2.14,18.62,0,16,0s-4.75,2.13-4.75,4.75c0,2,1.25,3.71,3,4.41v1.57c-3.16.79-5.5,3.64-5.5,7.03,0,1.13.26,2.19.72,3.14l-2.48,2.17c-.67-.36-1.42-.58-2.23-.58C2.13,22.5,0,24.63,0,27.25s2.13,4.75,4.75,4.75,4.75-2.13,4.75-4.75c0-.53-.11-1.02-.26-1.49l2.46-2.15c1.2.89,2.69,1.42,4.3,1.42s3.09-.53,4.3-1.42l2.43,2.24c-.14.45-.23.91-.23,1.4,0,2.62,2.13,4.75,4.75,4.75s4.75-2.13,4.75-4.75-2.13-4.75-4.75-4.75ZM16,3.51c.69,0,1.25.56,1.25,1.25s-.56,1.25-1.25,1.25-1.25-.56-1.25-1.25.56-1.25,1.25-1.25ZM4.76,28.5c-.69,0-1.25-.56-1.25-1.25s.56-1.25,1.25-1.25,1.25.56,1.25,1.25-.56,1.25-1.25,1.25ZM16,21.53c-2.07,0-3.75-1.68-3.75-3.75s1.68-3.75,3.75-3.75,3.75,1.68,3.75,3.75-1.68,3.75-3.75,3.75ZM27.25,28.49c-.69,0-1.25-.56-1.25-1.25s.56-1.25,1.25-1.25,1.25.56,1.25,1.25-.56,1.25-1.25,1.25Z" fill="#1e1e1c"/>
</svg>