<?xml version="1.0" encoding="UTF-8"?>
<svg id="a" data-name="3219" xmlns="http://www.w3.org/2000/svg" viewBox="0 0 48 48">
  <path d="M41.76,35.51c-1.5,0-2.88.53-3.95,1.42l-5.74-5.28c.9-1.45,1.43-3.15,1.43-4.98,0-4.81-3.6-8.79-8.24-9.4v-4.87c2.85-.58,5-3.1,5-6.12C30.25,2.82,27.45.02,24,.02s-6.25,2.8-6.25,6.25c0,3.02,2.15,5.54,5,6.12v4.87c-4.64.61-8.24,4.59-8.24,9.4,0,1.84.53,3.56,1.44,5.01l-5.89,5.16c-1.06-.82-2.38-1.31-3.81-1.31C2.81,35.52,0,38.32,0,41.77s2.8,6.25,6.25,6.25,6.25-2.8,6.25-6.25c0-1.11-.29-2.14-.8-3.05l5.85-5.12c1.7,1.58,3.96,2.56,6.46,2.56s4.78-.98,6.48-2.58l5.74,5.29c-.45.87-.71,1.85-.71,2.89,0,3.45,2.8,6.25,6.25,6.25s6.25-2.8,6.25-6.25-2.8-6.25-6.25-6.25ZM20.25,6.26c0-2.07,1.68-3.75,3.75-3.75s3.75,1.68,3.75,3.75-1.68,3.75-3.75,3.75-3.75-1.68-3.75-3.75ZM6.25,45.52c-2.07,0-3.75-1.68-3.75-3.75s1.68-3.75,3.75-3.75,3.75,1.68,3.75,3.75-1.68,3.75-3.75,3.75ZM24,33.66c-3.86,0-6.99-3.14-6.99-7s3.14-7,6.99-7,6.99,3.14,6.99,7-3.14,7-6.99,7ZM41.76,45.51c-2.07,0-3.75-1.68-3.75-3.75s1.68-3.75,3.75-3.75,3.75,1.68,3.75,3.75-1.68,3.75-3.75,3.75Z" fill="#1e1e1c"/>
</svg>