<?xml version="1.0" encoding="UTF-8"?>
<svg id="a" data-name="3219" xmlns="http://www.w3.org/2000/svg" viewBox="0 0 32 32">
  <path d="M27.76,23.5c-.96,0-1.84.33-2.56.88l-3.61-3.31c.57-.97.91-2.09.91-3.29,0-3.24-2.39-5.93-5.5-6.41v-2.99c1.86-.45,3.25-2.12,3.25-4.12C20.25,1.9,18.34,0,16,0s-4.25,1.91-4.25,4.25c0,2,1.39,3.67,3.25,4.12v2.99c-3.11.48-5.5,3.17-5.5,6.41,0,1.21.34,2.34.92,3.31l-3.69,3.22c-.7-.5-1.55-.8-2.47-.8C1.91,23.5,0,25.4,0,27.75s1.91,4.25,4.25,4.25,4.25-1.91,4.25-4.25c0-.7-.18-1.34-.48-1.93l3.67-3.2c1.15,1.02,2.66,1.65,4.31,1.65s3.17-.63,4.32-1.66l3.61,3.32c-.27.55-.43,1.17-.43,1.82,0,2.34,1.91,4.25,4.25,4.25s4.25-1.91,4.25-4.25-1.91-4.25-4.25-4.25ZM13.75,4.25c0-1.24,1.01-2.25,2.25-2.25s2.25,1.01,2.25,2.25-1.01,2.25-2.25,2.25-2.25-1.01-2.25-2.25ZM4.26,30c-1.24,0-2.25-1.01-2.25-2.25s1.01-2.25,2.25-2.25,2.25,1.01,2.25,2.25-1.01,2.25-2.25,2.25ZM16,22.27c-2.48,0-4.5-2.02-4.5-4.5s2.02-4.5,4.5-4.5,4.5,2.02,4.5,4.5-2.02,4.5-4.5,4.5ZM27.76,30c-1.24,0-2.25-1.01-2.25-2.25s1.01-2.25,2.25-2.25,2.25,1.01,2.25,2.25-1.01,2.25-2.25,2.25Z" fill="#1e1e1c"/>
</svg>