<?xml version="1.0" encoding="UTF-8"?>
<svg id="a" data-name="3219" xmlns="http://www.w3.org/2000/svg" viewBox="0 0 16 16">
  <path d="M7.13,6.69h-3.82v-1.34h3.82v1.34ZM12.59,12.28c-.09-.15-.21-.28-.35-.39-.02-.02-.04-.04-.06-.05-.14-.1-.28-.19-.45-.25-.02,0-.05-.02-.08-.02-.17-.06-.35-.1-.55-.1s-.37.04-.55.1c-.03,0-.05.01-.08.02-.16.06-.31.15-.45.25-.02.02-.04.03-.06.05-.13.11-.25.24-.35.39,0,.01-.01.02-.02.04-.16.26-.26.57-.26.9,0,.97.78,1.75,1.75,1.75s1.75-.78,1.75-1.75c0-.33-.1-.63-.26-.9,0-.01-.01-.02-.02-.04ZM5.39,12.28c-.09-.15-.21-.28-.35-.39-.02-.02-.04-.04-.06-.05-.14-.1-.28-.19-.45-.25-.02,0-.05-.02-.08-.02-.17-.06-.35-.1-.55-.1s-.37.04-.55.1c-.03,0-.05.01-.08.02-.16.06-.31.15-.45.25-.02.02-.04.03-.06.05-.13.11-.25.24-.35.39,0,.01-.01.02-.02.04-.16.26-.26.57-.26.9,0,.97.78,1.75,1.75,1.75s1.75-.78,1.75-1.75c0-.33-.1-.63-.26-.9,0-.01-.01-.02-.02-.04ZM16,7.14v3.44c0,1.04-.72,1.91-1.68,2.17-.23-1.57-1.57-2.79-3.21-2.79s-3.02,1.26-3.21,2.87h-.77c-.19-1.61-1.55-2.87-3.21-2.87s-3.02,1.26-3.21,2.87h-.7V2.51h12.16l3.84,4.62ZM8.63,3.86H1.81v4.34h6.82V3.86ZM14.98,8.27l-3.73-4.47v3.17c0,.72.58,1.3,1.3,1.3h2.43Z" fill="#1e1e1c"/>
</svg>