<?xml version="1.0" encoding="UTF-8"?>
<svg id="a" data-name="3219" xmlns="http://www.w3.org/2000/svg" viewBox="0 0 64 64">
  <path d="M49.38,11.1l-.43-.52H.05v39.55h6.97c.22,4.01,3.55,7.21,7.63,7.21s7.4-3.2,7.63-7.21h18.04c.22,4.01,3.55,7.21,7.63,7.21s7.4-3.2,7.63-7.21h4.1c2.42,0,4.38-1.96,4.38-4.38v-17l-14.67-17.66ZM59.68,27.88h-10.42c-.62,0-1.13-.5-1.13-1.12v-12.83l11.54,13.96ZM14.65,54.59c-2.7,0-4.89-2.19-4.89-4.88s2.2-4.88,4.89-4.88,4.89,2.19,4.89,4.88-2.19,4.88-4.89,4.88ZM47.94,54.59c-2.7,0-4.89-2.19-4.89-4.88s2.2-4.88,4.89-4.88,4.89,2.19,4.89,4.88-2.2,4.88-4.89,4.88ZM59.67,47.38h-4.44c-.99-3.08-3.88-5.31-7.28-5.31s-6.3,2.23-7.28,5.31h-18.73c-.99-3.08-3.88-5.31-7.28-5.31s-6.3,2.23-7.28,5.31H2.8V13.33h42.58v13.42c0,2.14,1.74,3.88,3.88,3.88h12.03v15.12c0,.9-.73,1.62-1.63,1.62ZM11.18,34.35h24.99v-14.59H11.18v14.59ZM13.94,22.52h19.48v9.09H13.94v-9.09Z" fill="#1e1e1c"/>
</svg>