<?xml version="1.0" encoding="UTF-8"?>
<svg id="a" data-name="3219" xmlns="http://www.w3.org/2000/svg" viewBox="0 0 32 32">
  <path d="M24.33,5.06H-.03v20.26h3.5c.26,2.01,1.97,3.58,4.05,3.58s3.79-1.56,4.05-3.58h8.05c.26,2.01,1.97,3.58,4.05,3.58s3.79-1.56,4.05-3.58h1.24c1.65,0,3-1.35,3-3v-8.04l-7.65-9.22ZM28.82,13.65h-4.23c-.28,0-.5-.22-.5-.5v-5.23l4.73,5.73ZM7.52,26.9c-1.16,0-2.11-.95-2.11-2.11s.95-2.11,2.11-2.11,2.11.95,2.11,2.11-.94,2.11-2.11,2.11ZM23.68,26.9c-1.16,0-2.11-.95-2.11-2.11s.95-2.11,2.11-2.11,2.11.95,2.11,2.11-.95,2.11-2.11,2.11ZM28.97,23.32h-1.47c-.59-1.54-2.08-2.64-3.82-2.64s-3.23,1.1-3.82,2.64h-8.51c-.59-1.54-2.08-2.64-3.82-2.64s-3.23,1.1-3.82,2.64h-1.73V7.06h20.12v6.08c0,1.38,1.12,2.5,2.5,2.5h5.38v6.68c0,.55-.45,1-1,1ZM5.49,17.49h13.01v-7.87H5.49v7.87ZM7.49,11.62h9.01v3.87H7.49v-3.87Z" fill="#1e1e1c"/>
</svg>