<?xml version="1.0" encoding="UTF-8"?>
<svg id="a" data-name="3219" xmlns="http://www.w3.org/2000/svg" viewBox="0 0 48 48">
  <path d="M11.56,31.73c0,1.4-1.14,2.54-2.55,2.54s-2.54-1.14-2.54-2.54,1.14-2.55,2.54-2.55,2.55,1.14,2.55,2.55ZM47.98,7.07v33.88H-.02V7.07h48ZM29.88,31h2.5v-2.5h2.5v-2.5h-2.5v2.5h-2.5v2.5ZM5.22,20.57h6.19v-2.5h-6.19v2.5ZM14.06,31.73c0-2.78-2.26-5.05-5.05-5.05s-5.04,2.26-5.04,5.05,2.26,5.04,5.04,5.04,5.05-2.26,5.05-5.04ZM16.3,13.35H5.22v2.5h11.09v-2.5ZM22.79,34.27h-2.5v2.5h2.5v-2.5ZM22.79,28.5h-2.5v2.5h2.5v-2.5ZM22.79,22.72h-2.5v2.5h2.5v-2.5ZM22.79,16.95h-2.5v2.5h2.5v-2.5ZM22.79,11.17h-2.5v2.5h2.5v-2.5ZM42.38,28.5h-2.5v-2.5h-2.5v2.5h0v2.5h0s-5,0-5,0v2.46h-2.5v2.5h2.5v-2.46h2.5v2.46h2.5v-2.46h2.5v2.46h2.5v-2.5h-2.5v-2.46h0s2.5,0,2.5,0v-2.5ZM43.46,16.22c0-2.78-2.26-5.05-5.05-5.05s-5.04,2.26-5.04,5.05,2.26,5.04,5.04,5.04,5.05-2.26,5.05-5.04ZM38.42,13.67c-1.4,0-2.54,1.14-2.54,2.55s1.14,2.54,2.54,2.54,2.55-1.14,2.55-2.54-1.14-2.55-2.55-2.55Z" fill="#1e1e1c"/>
</svg>