<?xml version="1.0" encoding="UTF-8"?>
<svg id="a" data-name="3219" xmlns="http://www.w3.org/2000/svg" viewBox="0 0 48 48">
  <path d="M0,7.08v33.88h48V7.08H0ZM45.5,38.46H2.5V9.58h43v28.88ZM16.32,15.85H5.23v-2.5h11.09v2.5ZM11.42,20.58h-6.19v-2.5h6.19v2.5ZM22.81,13.68h-2.5v-2.5h2.5v2.5ZM39.9,28.5h2.5v2.5h-5v-2.5h0v-2.5h2.5v2.5ZM32.4,31h-2.5v-2.5h2.5v-2.5h2.5v2.5h-2.5v2.5ZM32.4,35.97h-2.5v-2.5h2.5v-2.46h7.5v2.46h2.5v2.5h-2.5v-2.46h-2.5v2.46h-2.5v-2.46h-2.5v2.46ZM22.81,19.45h-2.5v-2.5h2.5v2.5ZM22.81,25.23h-2.5v-2.5h2.5v2.5ZM22.81,31h-2.5v-2.5h2.5v2.5ZM22.81,36.78h-2.5v-2.5h2.5v2.5ZM38.43,21.27c2.78,0,5.04-2.26,5.04-5.05s-2.26-5.04-5.04-5.04-5.05,2.26-5.05,5.04,2.26,5.05,5.05,5.05ZM38.43,13.68c1.4,0,2.54,1.14,2.54,2.54s-1.14,2.55-2.54,2.55-2.55-1.14-2.55-2.55,1.14-2.54,2.55-2.54ZM9.03,36.78c2.78,0,5.04-2.26,5.04-5.04s-2.26-5.04-5.04-5.04-5.05,2.26-5.05,5.04,2.26,5.04,5.05,5.04ZM9.03,29.19c1.4,0,2.54,1.14,2.54,2.54s-1.14,2.54-2.54,2.54-2.55-1.14-2.55-2.54,1.14-2.54,2.55-2.54Z" fill="#1e1e1c"/>
</svg>