<?xml version="1.0" encoding="UTF-8"?>
<svg id="a" data-name="3219" xmlns="http://www.w3.org/2000/svg" viewBox="0 0 64 64">
  <path d="M0,9.72v44.99H64V9.72H0ZM61.25,51.96H2.75V12.47h58.5v39.49ZM21.66,20.91H6.74v-2.75h14.92v2.75ZM15.07,26.44H6.74v-2.75h8.34v2.75ZM30.09,17.99h-2.75v-2.75h2.75v2.75ZM45.46,38.02h-2.75v2.75h2.75v2.74h-2.75v2.74h-2.75v2.75h2.75v-2.74h2.75v2.74h2.75v-2.74h2.75v2.74h2.75v-2.74h2.75v-2.75h-2.75v-2.74h2.75v-2.75h-2.75v-2.75h2.75v-2.75h-2.75v2.75h-2.75v2.75h0v2.74h-5.5v-2.74h2.75v-2.75h2.75v-2.75h-2.75v2.75h-2.75v-2.75h-2.75v2.75h2.75v2.75ZM53.71,46.25h-2.75v-2.74h2.75v2.74ZM48.21,43.51v2.74h-2.75v-2.74h2.75ZM42.71,38.02h-2.75v-2.75h0v-2.75h2.75v2.75h0v2.75ZM42.71,43.5h-2.75v-2.75h2.75v2.75ZM30.09,25.76h-2.75v-2.75h2.75v2.75ZM30.09,33.53h-2.75v-2.75h2.75v2.75ZM30.09,41.31h-2.75v-2.75h2.75v2.75ZM30.09,49.08h-2.75v-2.75h2.75v2.75ZM51.43,28.2c3.58,0,6.48-2.91,6.48-6.48s-2.91-6.48-6.48-6.48-6.48,2.91-6.48,6.48,2.91,6.48,6.48,6.48ZM51.43,17.99c2.06,0,3.73,1.67,3.73,3.73s-1.68,3.73-3.73,3.73-3.73-1.67-3.73-3.73,1.68-3.73,3.73-3.73ZM11.85,49.08c3.58,0,6.48-2.91,6.48-6.48s-2.91-6.48-6.48-6.48-6.48,2.91-6.48,6.48,2.91,6.48,6.48,6.48ZM11.85,38.87c2.06,0,3.73,1.67,3.73,3.73s-1.68,3.73-3.73,3.73-3.73-1.67-3.73-3.73,1.68-3.73,3.73-3.73Z" fill="#1e1e1c"/>
</svg>