<?xml version="1.0" encoding="UTF-8"?>
<svg id="a" data-name="3219" xmlns="http://www.w3.org/2000/svg" viewBox="0 0 32 32">
  <path d="M8.21,20.28c0,.83-.67,1.5-1.5,1.5s-1.5-.67-1.5-1.5.67-1.5,1.5-1.5,1.5.67,1.5,1.5ZM23.93,13.32c.83,0,1.5-.67,1.5-1.5s-.67-1.5-1.5-1.5-1.5.67-1.5,1.5.67,1.5,1.5,1.5ZM22.27,19.45h-2v2h2v-2ZM31.95,4.67v22.67H-.02V4.67h31.97ZM20.43,11.82c0,1.93,1.57,3.5,3.5,3.5s3.5-1.57,3.5-3.5-1.57-3.5-3.5-3.5-3.5,1.57-3.5,3.5ZM3.61,14.68h4.08v-2H3.61v2ZM10.21,20.28c0-1.93-1.57-3.5-3.5-3.5s-3.5,1.57-3.5,3.5,1.57,3.5,3.5,3.5,3.5-1.57,3.5-3.5ZM10.91,8.8H3.61v2h7.3v-2ZM15.36,23.35h-2v2h2v-2ZM15.36,19.17h-2v2h2v-2ZM15.36,15h-2v2h2v-2ZM15.36,10.83h-2v2h2v-2ZM15.36,6.66h-2v2h2v-2ZM28.27,21.45h-2v-2h0v-2h-2v2h-2v-2h-2v2h-2v2h2v2h4v-2h2v2h2v-2Z" fill="#1e1e1c"/>
</svg>