<?xml version="1.0" encoding="UTF-8"?>
<svg id="a" data-name="3219" xmlns="http://www.w3.org/2000/svg" viewBox="0 0 64 64">
  <path d="M15.57,42.6c0,2.06-1.67,3.73-3.73,3.73s-3.73-1.67-3.73-3.73,1.67-3.73,3.73-3.73,3.73,1.67,3.73,3.73ZM50.94,46.25h2.75v-2.74h-2.75v2.74ZM63.98,9.72v44.99H-.01V9.72h63.99ZM6.73,26.44h8.33v-2.75H6.73v2.75ZM18.32,42.6c0-3.57-2.91-6.48-6.48-6.48s-6.48,2.91-6.48,6.48,2.91,6.48,6.48,6.48,6.48-2.91,6.48-6.48ZM21.65,18.16H6.73v2.75h14.92v-2.75ZM30.07,46.33h-2.75v2.75h2.75v-2.75ZM30.07,38.56h-2.75v2.75h2.75v-2.75ZM30.07,30.78h-2.75v2.75h2.75v-2.75ZM30.07,23.01h-2.75v2.75h2.75v-2.75ZM30.07,15.24h-2.75v2.75h2.75v-2.75ZM39.94,43.5h2.75v-2.75h-2.75v2.75ZM56.44,38.02h-2.75v-2.75h2.75v-2.75h-2.75v2.75h-2.75v2.75h0v2.74h-5.5v-2.74h2.75v-2.75h2.75v-2.75h-2.75v2.75h-2.75v-2.75h-5.5v2.75h0v2.75h2.75v-2.75h0s0,0,0,0h0s2.75,0,2.75,0v2.75h-2.75v2.75h2.75v2.74h-2.75v2.74h-2.75v2.75h2.75v-2.74h2.75v2.74h2.75v-2.74h2.75v2.74h2.75v-2.74h2.75v-2.75h-2.75v-2.74h2.75v-2.75ZM57.89,21.72c0-3.58-2.91-6.48-6.48-6.48s-6.48,2.91-6.48,6.48,2.91,6.48,6.48,6.48,6.48-2.91,6.48-6.48ZM45.44,46.25h2.75v-2.74h-2.75v2.74ZM51.41,17.99c-2.06,0-3.73,1.67-3.73,3.73s1.67,3.73,3.73,3.73,3.73-1.67,3.73-3.73-1.67-3.73-3.73-3.73Z" fill="#1e1e1c"/>
</svg>