<?xml version="1.0" encoding="UTF-8"?>
<svg id="a" data-name="3219" xmlns="http://www.w3.org/2000/svg" viewBox="0 0 40 40">
  <path d="M0,5.87v28.25h39.95V5.87H0ZM37.71,31.88H2.25V8.12h35.45v23.75ZM13.62,13.32H4.43v-2.25h9.19v2.25ZM9.56,17.16h-5.13v-2.25h5.13v2.25ZM19.08,11.52h-2.25v-2.25h2.25v2.25ZM33.07,23.24h2.25v2.25h-4.5v-4.48h2.25v2.23ZM26.32,25.49h-2.25v-2.25h2.25v-2.23h2.25v2.25h-2.25v2.23ZM26.32,29.99h-2.25v-2.25h2.25v-2.25h6.75v2.25h2.25v2.25h-2.25v-2.25h-2.25v2.25h-2.25v-2.25h-2.25v2.25ZM19.08,16.3h-2.25v-2.25h2.25v2.25ZM19.08,21.09h-2.25v-2.25h2.25v2.25ZM19.08,25.88h-2.25v-2.25h2.25v2.25ZM19.08,30.66h-2.25v-2.25h2.25v2.25ZM31.94,17.81c2.35,0,4.27-1.92,4.27-4.27s-1.92-4.27-4.27-4.27-4.27,1.92-4.27,4.27,1.92,4.27,4.27,4.27ZM31.94,11.52c1.11,0,2.02.91,2.02,2.02s-.91,2.02-2.02,2.02-2.02-.91-2.02-2.02.91-2.02,2.02-2.02ZM7.58,30.66c2.35,0,4.27-1.92,4.27-4.27s-1.92-4.27-4.27-4.27-4.27,1.92-4.27,4.27,1.92,4.27,4.27,4.27ZM7.58,24.37c1.11,0,2.02.91,2.02,2.02s-.91,2.02-2.02,2.02-2.02-.91-2.02-2.02.91-2.02,2.02-2.02Z" fill="#1e1e1c"/>
</svg>