<?xml version="1.0" encoding="UTF-8"?>
<svg id="a" data-name="3219" xmlns="http://www.w3.org/2000/svg" viewBox="0 0 24 24">
  <path d="M20.56,8.55c-.08-7.06-3.83-7.92-7.39-8.03C12.92.21,12.54,0,12.1,0h-2.05c-.63,0-1.16.43-1.32,1.01-3.44,1.19-5.91,4.37-5.91,8.11,0,1.65.49,3.26,1.41,4.65.66,2.17,0,3.4-.05,3.47-.99,1.82-.38,2.87-.09,3.23,1.8,2.93,6.77,3.34,7.53,3.38.39.09.75.14,1.09.14.61,0,1.13-.15,1.55-.45.77-.56.86-1.39.86-1.49v-.05s-.03-.8-.03-.8c0-.2.06-.34.2-.47.58-.53,2.14-.57,2.87-.51h.06c2.03,0,2.65-2.16,2.69-3.35v-1.7s.42,0,.42,0c.51,0,.93-.24,1.17-.65.65-1.16-.66-3.85-1.93-5.98ZM11.03,9.3c1.27,0,2.3,1.03,2.3,2.3s-1.03,2.3-2.3,2.3-2.3-1.03-2.3-2.3,1.03-2.3,2.3-2.3ZM11.03,7.55c-.15,0-.29.03-.43.04h-.18V1.75h1.3v5.84h-.27c-.14-.02-.28-.04-.43-.04ZM19.14,13.43l.02,3.41s-.1,1.64-.89,1.64h-.01c-.29-.03-2.84-.23-4.15.96-.5.46-.77,1.07-.77,1.8l.03.7s-.05.12-.14.19c-.1.07-.43.22-1.27.02l-.17-.02c-1.34-.06-5.08-.65-6.23-2.6l-.11-.14s-.23-.36.26-1.26c.05-.08,1.13-1.95.16-4.99l-.11-.23c-.77-1.13-1.18-2.43-1.18-3.78,0-2.74,1.69-5.11,4.11-6.2v5.4c-1.02.74-1.69,1.93-1.69,3.28,0,2.23,1.82,4.05,4.05,4.05.89,0,1.72-.3,2.39-.79.44.37,1.1.85,2.02,1.3.17.57.69.99,1.31.99.76,0,1.37-.62,1.37-1.37s-.62-1.37-1.37-1.37c-.22,0-.43.06-.61.15-.72-.36-1.24-.74-1.57-1.02.32-.58.52-1.23.52-1.94,0-1.31-.64-2.46-1.6-3.2V2.29c3.09.13,5.33.99,5.33,6.51v.25l.13.21c.98,1.61,1.8,3.38,1.97,4.18h-1.77Z" fill="#1e1e1c"/>
</svg>