<?xml version="1.0" encoding="UTF-8"?>
<svg id="a" data-name="3219" xmlns="http://www.w3.org/2000/svg" viewBox="0 0 24 24">
  <path d="M22.48,4.98h-3.99v-2.49C18.49,1.11,17.36-.02,15.98-.02H7.98C6.6-.02,5.47,1.11,5.47,2.49v2.49H1.48C.65,4.98-.02,5.66-.02,6.49s.67,1.5,1.5,1.5h1.96v14.24c0,.97.83,1.75,1.86,1.75h13.29c1.03,0,1.86-.79,1.86-1.75V7.99h2.03c.83,0,1.5-.67,1.5-1.5s-.67-1.5-1.5-1.5ZM9.5,20.61c-.48,0-.88-.39-.88-.88v-9.02c0-.48.39-.88.87-.88s.88.39.88.88v9.02c0,.48-.39.88-.87.88ZM13.98,20.61c-.48,0-.88-.39-.88-.88v-9.02c0-.48.39-.88.87-.88s.88.39.88.88v9.02c0,.48-.39.88-.87.88ZM8.48,2.99h7.01v1.99h-7.01v-1.99Z" fill="#1e1e1c"/>
</svg>