<?xml version="1.0" encoding="UTF-8"?>
<svg id="a" data-name="3219" xmlns="http://www.w3.org/2000/svg" viewBox="0 0 32 32">
  <path d="M30.23,6.4h-5v-2.64C25.23,1.69,23.61,0,21.61,0h-11.25C8.35,0,6.73,1.69,6.73,3.75v2.64H1.73C.76,6.4-.02,7.18-.02,8.15s.78,1.75,1.75,1.75h3.25v20.11c0,1.1.94,2,2.1,2h17.81c1.16,0,2.1-.9,2.1-2V9.9h3.25c.97,0,1.75-.78,1.75-1.75s-.78-1.75-1.75-1.75ZM13,27.2c-.55,0-1-.45-1-1v-12.5c0-.55.44-1,1-1s1,.45,1,1v12.5c0,.55-.44,1-1,1ZM18.98,27.2c-.55,0-1-.45-1-1v-12.5c0-.55.44-1,1-1s1,.45,1,1v12.5c0,.55-.44,1-1,1ZM10.23,3.75c0-.17.1-.25.12-.25h11.25s.12.08.12.25v2.64h-11.5v-2.64Z" fill="#1e1e1c"/>
</svg>