<?xml version="1.0" encoding="UTF-8"?>
<svg id="a" data-name="3219" xmlns="http://www.w3.org/2000/svg" viewBox="0 0 16 16">
  <path d="M8.75,12.08v-5c0-.41.33-.75.75-.75s.75.34.75.75v5c0,.41-.33.75-.75.75s-.75-.34-.75-.75ZM16,4.2c0,.41-.34.75-.75.75h-1.5v9.3c0,.96-.79,1.75-1.75,1.75H4c-.97,0-1.75-.79-1.75-1.75V4.95H.75C.34,4.95,0,4.62,0,4.2s.34-.75.75-.75h2.5v-1.7C3.25.79,4.03,0,5,0h6c.97,0,1.75.79,1.75,1.75v1.7h2.5c.41,0,.75.34.75.75ZM4.75,3.45h6.5v-1.7c0-.14-.11-.25-.25-.25h-6c-.14,0-.25.11-.25.25v1.7ZM12.25,4.95H3.75v9.3c0,.14.11.25.25.25h8c.14,0,.25-.11.25-.25V4.95ZM6.51,12.83c.41,0,.75-.34.75-.75v-5c0-.41-.34-.75-.75-.75s-.75.34-.75.75v5c0,.41.34.75.75.75Z" fill="#1e1e1c"/>
</svg>