<?xml version="1.0" encoding="UTF-8"?>
<svg id="a" data-name="3219" xmlns="http://www.w3.org/2000/svg" viewBox="0 0 16 16">
  <path d="M14.73,3.95h-2.5v-1.7C12.24,1.01,11.22,0,9.98,0h-4.01C4.74,0,3.73,1.01,3.73,2.25v1.7H1.23C.54,3.95-.02,4.51-.02,5.2s.56,1.25,1.25,1.25h1.24v8.55c0,.55.41,1,.92,1h9.17c.51,0,.92-.45.92-1V6.45h1.25c.69,0,1.25-.56,1.25-1.25s-.56-1.25-1.25-1.25ZM6.31,13.56c-.41,0-.75-.34-.75-.75v-5c0-.41.33-.75.75-.75s.75.34.75.75v5c0,.41-.33.75-.75.75ZM9.71,13.56c-.41,0-.75-.34-.75-.75v-5c0-.41.33-.75.75-.75s.75.34.75.75v5c0,.41-.33.75-.75.75ZM6.23,2.5h3.51v1.45h-3.51v-1.45Z" fill="#1e1e1c"/>
</svg>