<?xml version="1.0" encoding="UTF-8"?>
<svg id="a" data-name="3219" xmlns="http://www.w3.org/2000/svg" viewBox="0 0 32 32">
  <path d="M16,0C9.78,0,3.48,2.14,3.48,6.23v19.54c0,4.09,6.3,6.23,12.52,6.23s12.52-2.14,12.52-6.23V6.23c0-4.09-6.3-6.23-12.52-6.23ZM16,3.5c5.92,0,9.02,2.03,9.02,2.73s-3.1,2.73-9.02,2.73-9.02-2.03-9.02-2.73,3.1-2.73,9.02-2.73ZM16,28.5c-5.92,0-9.02-2.03-9.02-2.73v-1.89c2.39,1.18,5.71,1.79,9.02,1.79s6.62-.61,9.02-1.79v1.89c0,.7-3.1,2.73-9.02,2.73ZM25.02,19.43c0,.7-3.1,2.73-9.02,2.73s-9.02-2.03-9.02-2.73v-2.1c2.39,1.18,5.71,1.79,9.02,1.79s6.62-.61,9.02-1.79v2.1ZM25.02,12.89c0,.7-3.1,2.73-9.02,2.73s-9.02-2.03-9.02-2.73v-2.22c2.39,1.18,5.71,1.79,9.02,1.79s6.62-.61,9.02-1.79v2.22Z" fill="#1e1e1c"/>
</svg>