<?xml version="1.0" encoding="UTF-8"?>
<svg id="a" data-name="3219" xmlns="http://www.w3.org/2000/svg" viewBox="0 0 16 16">
  <path d="M8,0C4.91,0,1.78,1.04,1.78,3.03c0,0,0,0,0,0v9.93c0,1.99,3.13,3.03,6.22,3.03s6.22-1.04,6.22-3.03V3.03c0-1.99-3.13-3.03-6.22-3.03ZM12.72,3.03c0,.54-1.79,1.53-4.72,1.53s-4.71-.99-4.72-1.53h0c0-.54,1.79-1.53,4.72-1.53s4.72.99,4.72,1.53ZM8,14.5c-2.93,0-4.72-.99-4.72-1.53v-1.18c1.2.65,2.96.99,4.72.99s3.52-.34,4.72-.99v1.18c0,.54-1.79,1.53-4.72,1.53ZM12.72,9.75c0,.54-1.79,1.53-4.72,1.53s-4.72-.99-4.72-1.53v-1.29c1.2.65,2.96.99,4.72.99s3.52-.34,4.72-.99v1.29ZM12.72,6.42c0,.54-1.79,1.53-4.72,1.53s-4.72-.99-4.72-1.53v-1.35c1.2.65,2.96.99,4.72.99s3.52-.34,4.72-.99v1.35Z" fill="#1e1e1c"/>
</svg>