<?xml version="1.0" encoding="UTF-8"?>
<svg id="a" data-name="3219" xmlns="http://www.w3.org/2000/svg" viewBox="0 0 40 40">
  <path d="M20.03-.06C12.29-.06,4.44,2.58,4.44,7.61v24.67c0,5.03,7.84,7.66,15.59,7.66s15.59-2.63,15.59-7.66V7.61C35.62,2.58,27.78-.06,20.03-.06ZM20.03,3.95c7.53,0,11.59,2.6,11.59,3.66s-4.06,3.66-11.59,3.66-11.59-2.6-11.59-3.66,4.06-3.66,11.59-3.66ZM20.03,35.94c-7.53,0-11.59-2.6-11.59-3.66v-2.71c3,1.57,7.31,2.38,11.59,2.38s8.59-.81,11.59-2.38v2.71c0,1.06-4.06,3.66-11.59,3.66ZM31.62,24.28c0,1.06-4.06,3.66-11.59,3.66s-11.59-2.6-11.59-3.66v-2.98c3,1.57,7.31,2.38,11.59,2.38s8.59-.81,11.59-2.38v2.98ZM31.62,16.02c0,1.06-4.06,3.66-11.59,3.66s-11.59-2.6-11.59-3.66v-3.13c3,1.57,7.31,2.38,11.59,2.38s8.59-.81,11.59-2.38v3.13Z" fill="#1e1e1c"/>
</svg>