<?xml version="1.0" encoding="UTF-8"?>
<svg id="a" data-name="3219" xmlns="http://www.w3.org/2000/svg" viewBox="0 0 40 40">
  <path d="M21.62.03c-.53-.02-1.07-.04-1.62-.04s-1.09.01-1.62.04C10.44.38,4.64,3.29,4.64,7.06v25.87c0,4.03,6.6,7.06,15.36,7.06s15.36-3.04,15.36-7.06V7.06C35.36,3.29,29.56.38,21.62.03ZM20,2.25c.94,0,1.85.04,2.72.11,6.1.52,10.39,2.71,10.39,4.7,0,2.27-5.61,4.81-13.11,4.81s-13.11-2.54-13.11-4.81c0-1.99,4.29-4.18,10.39-4.7.87-.07,1.78-.11,2.72-.11ZM20,37.75c-7.5,0-13.11-2.54-13.11-4.81v-4.62c2.65,2,7.42,3.29,13.11,3.29s10.46-1.29,13.11-3.29v4.62c0,2.27-5.61,4.81-13.11,4.81ZM33.11,24.55c0,2.27-5.61,4.81-13.11,4.81s-13.11-2.54-13.11-4.81v-4.89c2.65,2,7.42,3.29,13.11,3.29s10.46-1.29,13.11-3.29v4.89ZM33.11,15.89c0,2.27-5.61,4.81-13.11,4.81s-13.11-2.54-13.11-4.81v-5.05c2.65,2,7.42,3.29,13.11,3.29s10.46-1.29,13.11-3.29v5.05Z" fill="#1e1e1c"/>
</svg>