<?xml version="1.0" encoding="UTF-8"?>
<svg id="a" data-name="3219" xmlns="http://www.w3.org/2000/svg" viewBox="0 0 48 48">
  <path d="M24,0C14.73,0,5.34,3.12,5.34,9.09v29.81c0,5.97,9.39,9.09,18.66,9.09s18.66-3.12,18.66-9.09V9.09C42.66,3.12,33.27,0,24,0ZM24,4.5c8.79,0,14.16,2.97,14.16,4.59s-5.38,4.59-14.16,4.59-14.16-2.97-14.16-4.59,5.38-4.59,14.16-4.59ZM24,43.5c-8.79,0-14.16-2.97-14.16-4.59v-3.55c3.6,1.96,8.9,2.97,14.16,2.97s10.56-1.01,14.16-2.97v3.55c0,1.62-5.38,4.59-14.16,4.59ZM38.16,29.24c0,1.62-5.38,4.59-14.16,4.59s-14.16-2.97-14.16-4.59v-3.86c3.6,1.96,8.9,2.97,14.16,2.97s10.56-1.01,14.16-2.97v3.86ZM38.16,19.26c0,1.62-5.38,4.59-14.16,4.59s-14.16-2.97-14.16-4.59v-4.04c3.6,1.96,8.9,2.97,14.16,2.97s10.56-1.01,14.16-2.97v4.04Z" fill="#1e1e1c"/>
</svg>