<?xml version="1.0" encoding="UTF-8"?>
<svg id="a" data-name="3219" xmlns="http://www.w3.org/2000/svg" viewBox="0 0 64 64">
  <path d="M32.5,0C20.5,0,7.74,4.13,7.74,11.78v40.44c0,7.65,12.76,11.78,24.76,11.78s24.76-4.13,24.76-11.78V11.78c0-7.65-12.76-11.78-24.76-11.78ZM32.5,5c12.06,0,19.76,4.01,19.76,6.78s-7.7,6.78-19.76,6.78-19.76-4.01-19.76-6.78,7.7-6.78,19.76-6.78ZM32.5,59c-12.06,0-19.76-4.01-19.76-6.78v-5.82c4.82,2.95,12.43,4.49,19.76,4.49s14.95-1.54,19.76-4.49v5.82c0,2.76-7.7,6.78-19.76,6.78ZM52.26,39.11c0,2.76-7.7,6.78-19.76,6.78s-19.76-4.01-19.76-6.78v-6.25c4.82,2.95,12.43,4.49,19.76,4.49s14.95-1.54,19.76-4.49v6.25ZM52.26,25.57c0,2.76-7.7,6.78-19.76,6.78s-19.76-4.01-19.76-6.78v-6.5c4.82,2.95,12.43,4.49,19.76,4.49s14.95-1.54,19.76-4.49v6.5Z" fill="#1e1e1c"/>
</svg>