<?xml version="1.0" encoding="UTF-8"?>
<svg id="a" data-name="3219" xmlns="http://www.w3.org/2000/svg" viewBox="0 0 32 32">
  <path d="M16,0C8.98,0,3.69,2.46,3.69,5.72v20.56c0,3.26,5.29,5.72,12.31,5.72s12.31-2.46,12.31-5.72V5.72c0-3.26-5.29-5.72-12.31-5.72ZM16,2c6.39,0,10.31,2.16,10.31,3.72s-3.92,3.72-10.31,3.72-10.31-2.16-10.31-3.72,3.92-3.72,10.31-3.72ZM16,30c-6.39,0-10.31-2.16-10.31-3.72v-3.46c2.16,1.54,5.89,2.51,10.31,2.51s8.15-.98,10.31-2.51v3.46c0,1.55-3.92,3.72-10.31,3.72ZM26.31,19.61c0,1.55-3.92,3.72-10.31,3.72s-10.31-2.16-10.31-3.72v-3.68c2.16,1.54,5.89,2.51,10.31,2.51s8.15-.98,10.31-2.51v3.68ZM26.31,12.73c0,1.55-3.92,3.72-10.31,3.72s-10.31-2.16-10.31-3.72v-3.8c2.16,1.54,5.89,2.51,10.31,2.51s8.15-.98,10.31-2.51v3.8Z" fill="#1e1e1c"/>
</svg>