<?xml version="1.0" encoding="UTF-8"?>
<svg id="a" data-name="3219" xmlns="http://www.w3.org/2000/svg" viewBox="0 0 48 48">
  <path d="M46.91,28.81c-1.89,11.12-11.46,19.19-22.75,19.19-12.73,0-23.08-10.36-23.08-23.09S11.43,1.82,24.16,1.82c6.27,0,12.14,2.47,16.52,6.97l2.24,2.19V1.25C42.92.56,43.48,0,44.17,0s1.25.56,1.25,1.25v13.99h-15.8c-.69,0-1.25-.56-1.25-1.25s.56-1.25,1.25-1.25h11.53l-2.24-2.19c-3.93-4.03-9.16-6.23-14.75-6.23C12.81,4.32,3.58,13.56,3.58,24.91s9.23,20.59,20.58,20.59c10.07,0,18.6-7.19,20.29-17.11l2.46.42Z" fill="#1e1e1c"/>
</svg>