<?xml version="1.0" encoding="UTF-8"?>
<svg id="a" data-name="3219" xmlns="http://www.w3.org/2000/svg" viewBox="0 0 64 64">
  <rect x="0" y="0" width="64" height="64" fill="none"/>
  <path d="M26.13,39.38v-16l15.29,8-15.29,8h0ZM59.91,20.71s-.53-3.91-2.31-5.69c-2.13-2.31-4.62-2.31-5.69-2.49-8-.53-19.91-.53-19.91-.53h0s-11.91,0-19.91.53c-1.07.18-3.56.18-5.69,2.49-1.78,1.78-2.31,5.69-2.31,5.69,0,0-.53,4.62-.53,9.24v4.27c0,4.62.53,9.24.53,9.24,0,0,.53,3.91,2.31,5.69,2.13,2.31,4.98,2.13,6.22,2.49,4.62.36,19.38.36,19.38.36,0,0,11.91,0,19.91-.53,1.07-.18,3.56-.18,5.69-2.49,1.78-1.78,2.31-5.69,2.31-5.69,0,0,.53-4.62.53-9.24v-4.27c0-4.44-.53-9.07-.53-9.07" fill="#020303"/>
</svg>