<?xml version="1.0" encoding="UTF-8"?>
<svg id="a" data-name="3219" xmlns="http://www.w3.org/2000/svg" viewBox="0 0 40 40">
  <path d="M16.35,14.62l9.56,5-9.56,5v-10ZM40.02,0v40H.02V0h40ZM37.8,18.62c0-2.78-.33-5.67-.33-5.67,0,0-.33-2.44-1.44-3.56-1.33-1.44-2.89-1.44-3.56-1.56-5-.33-12.44-.33-12.44-.33,0,0-7.44,0-12.44.33-.67.11-2.22.11-3.56,1.56-1.11,1.11-1.44,3.56-1.44,3.56,0,0-.33,2.89-.33,5.78v2.67c0,2.89.33,5.78.33,5.78,0,0,.33,2.44,1.44,3.56,1.33,1.44,3.11,1.33,3.89,1.56,2.89.22,12.11.22,12.11.22,0,0,7.44,0,12.44-.33.67-.11,2.22-.11,3.56-1.56,1.11-1.11,1.44-3.56,1.44-3.56,0,0,.33-2.89.33-5.78v-2.67Z" fill="#1d1d1b"/>
</svg>