<?xml version="1.0" encoding="UTF-8"?>
<svg id="a" data-name="3219" xmlns="http://www.w3.org/2000/svg" viewBox="0 0 16 16">
  <path d="M9.73,9.11c0,.96-.78,1.74-1.73,1.74s-1.73-.78-1.73-1.74.78-1.73,1.73-1.73,1.73.78,1.73,1.73ZM15.99,1.1v13.79c0,.61-.49,1.1-1.1,1.1H1.1C.49,16,0,15.5,0,14.89V3.33L3.33,0h11.56c.61,0,1.1.49,1.1,1.1ZM3.94,4.44h6.81c1.02,0,1.85-.83,1.85-1.85V0h-1.5v2.59c0,.2-.16.35-.35.35h-5.31V0h-1.5v4.44ZM11.23,9.11c0-1.78-1.45-3.23-3.23-3.23s-3.23,1.45-3.23,3.23,1.45,3.24,3.23,3.24,3.23-1.45,3.23-3.24ZM13.52,13.24h-1.65v1.5h1.65v-1.5Z" fill="#1e1e1c"/>
</svg>