<?xml version="1.0" encoding="UTF-8"?>
<svg id="a" data-name="3219" xmlns="http://www.w3.org/2000/svg" viewBox="0 0 48 48">
  <path d="M44.22,0H10.2L-.02,10.21v34.03c0,2.07,1.69,3.75,3.76,3.75h40.48c2.07,0,3.76-1.68,3.76-3.75V3.75C47.98,1.68,46.3,0,44.22,0ZM15.63,2.5h2.93v4.65h7.29V2.5h6.52v7.07c0,.69-.56,1.25-1.25,1.25h-15.5V2.5ZM21.07,2.5h2.28v2.15h-2.28v-2.15ZM39.11,45.5h-3.48v-3.61h3.48v3.61ZM45.48,44.25c0,.69-.56,1.25-1.25,1.25h-2.61v-6.11h-8.49v6.11H3.74c-.69,0-1.25-.56-1.25-1.25V11.25L11.24,2.5h1.88v10.82h18c2.07,0,3.76-1.68,3.76-3.75V2.5h9.34c.69,0,1.25.56,1.25,1.25v40.5ZM24,17.8c-5.12,0-9.28,4.15-9.28,9.25s4.16,9.25,9.28,9.25,9.28-4.15,9.28-9.25-4.16-9.25-9.28-9.25ZM24,33.81c-3.73,0-6.77-3.03-6.77-6.75s3.04-6.75,6.77-6.75,6.77,3.03,6.77,6.75-3.04,6.75-6.77,6.75Z" fill="#1e1e1c"/>
</svg>