<?xml version="1.0" encoding="UTF-8"?>
<svg id="a" data-name="3219" xmlns="http://www.w3.org/2000/svg" viewBox="0 0 64 64">
  <path d="M59.24.02H13.57L0,13.59v45.69c0,2.62,2.13,4.74,4.75,4.74h54.5c2.62,0,4.75-2.13,4.75-4.74V4.77C64,2.15,61.86.02,59.24.02ZM19.87,2.78h5.1v6.38h9.25V2.78h10.91v9.94c0,1.16-1.02,2.1-2.27,2.1h-22.99V2.78ZM27.72,2.78h3.75v3.63h-3.75v-3.63ZM52.54,61.27h-5.25v-5.52h5.25v5.52ZM61.24,59.28c0,1.1-.9,1.99-2,1.99h-3.95v-8.28h-10.75v8.28H4.75c-1.1,0-2-.89-2-1.99V14.73L14.7,2.78h2.41v14.8h25.74c2.77,0,5.02-2.18,5.02-4.85V2.78h11.36c1.1,0,2,.89,2,1.99v54.51ZM32,22.71c-7.38,0-13.38,6.01-13.38,13.39s6,13.39,13.38,13.39,13.38-6.01,13.38-13.39-6-13.39-13.38-13.39ZM32,46.73c-5.86,0-10.63-4.77-10.63-10.64s4.77-10.64,10.63-10.64,10.63,4.77,10.63,10.64-4.77,10.64-10.63,10.64Z" fill="#1e1e1c"/>
</svg>