<?xml version="1.0" encoding="UTF-8"?>
<svg id="a" data-name="3219" xmlns="http://www.w3.org/2000/svg" viewBox="0 0 40 40">
  <path d="M37.6,0h-14.38v5.14h-7.25V0h-7.65L-.02,8.34v29.28c0,1.32,1.07,2.38,2.38,2.38h25.61v-5.3h7.54v5.3h2.08c1.32,0,2.38-1.07,2.38-2.38V2.38C39.98,1.07,38.92,0,37.6,0ZM20,30.97c-4.48,0-8.12-3.65-8.12-8.14s3.64-8.14,8.12-8.14,8.12,3.65,8.12,8.14-3.64,8.14-8.12,8.14ZM30.62,6.76c0,1.86-1.64,3.37-3.66,3.37H10.37V0h2.25v7.87h14.34c.78,0,1.41-.5,1.41-1.12V0h2.25v6.75ZM18.22,2.89V0h2.75v2.89h-2.75ZM25.87,22.82c0,3.25-2.64,5.89-5.88,5.89s-5.88-2.64-5.88-5.89,2.64-5.89,5.88-5.89,5.88,2.64,5.88,5.89ZM30.23,36.95h3.04v3.05h-3.04v-3.05Z" fill="#1e1e1c"/>
</svg>