<svg width="24" height="24" viewBox="0 0 25 24" fill="none" xmlns="http://www.w3.org/2000/svg">
<path d="M12.25 0C5.635 0 0.25 5.385 0.25 12C0.25 18.615 5.635 24 12.25 24C18.865 24 24.25 18.615 24.25 12C24.25 5.385 18.865 0 12.25 0ZM17.89 7.635L11.695 17.3925L6.4075 12.9525C6.0925 12.69 6.0475 12.21 6.3175 11.895C6.58 11.58 7.0525 11.535 7.375 11.805L11.35 15.1425L16.63 6.825C16.855 6.4725 17.32 6.3675 17.665 6.5925C18.0175 6.8175 18.115 7.275 17.8975 7.6275L17.89 7.635Z" fill="#107800"/>
</svg>
