<?xml version="1.0" encoding="UTF-8"?>
<svg id="a" data-name="3219" xmlns="http://www.w3.org/2000/svg" viewBox="0 0 32 32">
  <path d="M17.76,28.49h6.07v3.5h-15.64v-3.5h6.07v-2.71c-5.71-.85-10.11-5.77-10.11-11.71v-2.54c0-.66.37-1.23.91-1.53l2.59,2.58v1.49c0,4.61,3.75,8.35,8.36,8.35.47,0,.92-.05,1.37-.12l.12.12h.26v.26l2.46,2.45c-.78.3-1.61.51-2.46.64v2.71ZM27.87,14.08v-2.54c0-.97-.78-1.75-1.75-1.75s-1.75.78-1.75,1.75v2.54c0,1.53-.42,2.96-1.14,4.19l2.54,2.53c1.32-1.91,2.1-4.23,2.1-6.72ZM21.77,14.4V5.74C21.77,2.57,19.19,0,16.01,0s-5.52,2.36-5.73,5.34l11.11,11.09c.24-.63.38-1.31.38-2.02ZM10.34,15.28c.38,2.47,2.33,4.42,4.8,4.8l-4.8-4.8ZM31.5,28.99L3,.53C2.32-.15,1.21-.15.53.53S-.16,2.33.53,3.01l28.5,28.46c.34.34.79.51,1.24.51s.9-.17,1.24-.51c.68-.68.68-1.79,0-2.47Z" fill="#1e1e1c"/>
</svg>