<?xml version="1.0" encoding="UTF-8"?>
<svg id="a" data-name="3219" xmlns="http://www.w3.org/2000/svg" viewBox="0 0 48 48">
  <path d="M26.26,43.5h9.16v4.5H12.6v-4.5h9.16v-4.92c-8.6-1.11-15.27-8.45-15.27-17.34v-5.1c0-.71.33-1.33.84-1.74l3.66,3.65v3.19c0,7.17,5.84,13,13.02,13,.99,0,1.94-.12,2.86-.33l3.58,3.58c-1.33.53-2.74.89-4.2,1.08v4.92ZM15.81,22.88c.41,3.84,3.47,6.9,7.32,7.31l-7.32-7.31ZM32.27,21.99v-13.75C32.27,3.7,28.57,0,24.02,0s-8.25,3.7-8.25,8.24v.45l16.03,16.01c.3-.85.47-1.77.47-2.72ZM41.53,21.25v-5.1c0-1.24-1.01-2.25-2.25-2.25s-2.25,1.01-2.25,2.25v5.1c0,2.48-.71,4.79-1.92,6.77l3.25,3.25c1.99-2.84,3.18-6.29,3.18-10.02ZM47.35,44.13L3.85.68C2.97-.19,1.55-.19.67.68S-.21,2.99.67,3.86l43.5,43.45c.44.44,1.01.66,1.59.66s1.15-.22,1.59-.66c.88-.88.88-2.3,0-3.18Z" fill="#1e1e1c"/>
</svg>