<?xml version="1.0" encoding="UTF-8"?>
<svg id="a" data-name="3219" xmlns="http://www.w3.org/2000/svg" viewBox="0 0 24 24">
  <path d="M12.88,22.26h4.78v1.74H6.34v-1.74h4.78v-3.07c-4.47-.44-7.98-4.21-7.98-8.78v-3.18c0-.44.33-.78.74-.85l1.01,1v3.02c0,3.9,3.19,7.08,7.1,7.08.9,0,1.76-.17,2.55-.48l1.33,1.32c-.92.45-1.93.74-3,.85v3.08ZM20.85,10.41v-3.18c0-.48-.39-.87-.88-.87s-.88.39-.88.87v3.18c0,1.73-.63,3.31-1.66,4.54l1.24,1.23c1.35-1.55,2.18-3.56,2.18-5.77ZM13.12,15.58l-1.64-1.63c-1.04-.21-1.86-1.02-2.07-2.06l-1.8-1.8v1.28c0,2.41,1.97,4.37,4.39,4.37.39,0,.76-.07,1.12-.16ZM9.36,4.37c0-1.45,1.18-2.63,2.64-2.63s2.64,1.18,2.64,2.63v2.63h-5.18l1.75,1.74h3.43v2.63c0,.24-.04.47-.1.68l1.34,1.33c.32-.61.52-1.28.52-2.02v-7c0-2.41-1.97-4.37-4.39-4.37s-4.39,1.96-4.39,4.37v.79l1.75,1.74v-2.53ZM23.75,22.47L1.5.3C1.15-.04.6-.04.26.3-.08.64-.08,1.19.26,1.53l22.25,22.17c.17.17.4.26.62.26s.45-.09.62-.26c.34-.34.34-.89,0-1.23Z" fill="#1e1e1c"/>
</svg>