<?xml version="1.0" encoding="UTF-8"?>
<svg id="a" data-name="3219" xmlns="http://www.w3.org/2000/svg" viewBox="0 0 32 32">
  <path d="M17,29.99h6.38v2h-14.76v-2h6.38v-4.43c-5.95-.51-10.63-5.5-10.63-11.58v-4.25c0-.55.45-1,1-1s1,.45,1,1v4.25c0,5.31,4.32,9.63,9.63,9.63,1.4,0,2.73-.31,3.93-.85l1.5,1.5c-1.34.71-2.84,1.15-4.43,1.29v4.44ZM17.38,20.22l-1.88-1.88c-1.7-.23-3.05-1.57-3.27-3.27l-2.05-2.05v1.55c0,3.21,2.61,5.82,5.82,5.82.48,0,.94-.06,1.38-.17ZM12.01,9.19l-1.83-1.83v-1.55C10.18,2.61,12.8,0,16,0s5.82,2.61,5.82,5.82v8.76c0,1.25-.4,2.41-1.07,3.36l-1.45-1.45c.33-.56.53-1.21.53-1.9v-3.38h-5.81l-2-2h0ZM12.18,9.19h7.64v-3.38c0-2.11-1.71-3.82-3.82-3.82s-3.82,1.71-3.82,3.82v3.38ZM27.63,13.98v-4.25c0-.55-.45-1-1-1s-1,.45-1,1v4.25c0,2.45-.93,4.69-2.44,6.39l1.41,1.41c1.88-2.07,3.03-4.8,3.03-7.8ZM31.7,30.29L1.7.3C1.31-.09.68-.09.29.3S-.1,1.32.29,1.71l30,29.99c.2.2.45.29.71.29s.51-.1.71-.29c.39-.39.39-1.02,0-1.41Z" fill="#1e1e1c"/>
</svg>