<?xml version="1.0" encoding="UTF-8"?>
<svg id="a" data-name="3219" xmlns="http://www.w3.org/2000/svg" viewBox="0 0 64 64">
  <path d="M41.8,34L21.01,13.22v-2.23C21.01,4.93,25.95,0,32.02,0s11.01,4.93,11.01,11v17.99c0,1.81-.45,3.51-1.22,5.02ZM32.21,39.97l-11.2-11.19v.21c0,6.06,4.94,11,11.01,11,.07,0,.13,0,.19,0ZM55.23,28.26v-8.27c0-1.38-1.12-2.5-2.5-2.5s-2.5,1.12-2.5,2.5v8.27c0,3.98-1.31,7.66-3.49,10.66l3.57,3.57c3.08-3.93,4.92-8.87,4.92-14.23ZM34.51,51.31c2.5-.27,4.88-.96,7.08-1.96l-3.84-3.84c-1.81.6-3.73.94-5.74.94-10.04,0-18.21-8.16-18.21-18.19v-6.69l-3.75-3.74c-.75.43-1.26,1.23-1.26,2.16v8.27c0,11.94,9.09,21.8,20.71,23.05v7.69h-12.43v5h29.86v-5h-12.43v-7.69ZM63.22,59.28L4.73.85c-1.07-1.07-2.82-1.07-3.89,0-1.08,1.07-1.08,2.81,0,3.89l58.49,58.44c.54.54,1.24.81,1.95.81s1.41-.27,1.95-.8c1.08-1.07,1.08-2.81,0-3.89Z" fill="#1e1e1c"/>
</svg>