<?xml version="1.0" encoding="UTF-8"?>
<svg id="a" data-name="3219" xmlns="http://www.w3.org/2000/svg" viewBox="0 0 64 64">
  <rect x="0" y="0" width="64" height="64" transform="translate(64 64) rotate(-180)" fill="none"/>
  <path d="M54.63,9.37c.98.98.98,2.56,0,3.54l-19.09,19.09,19.09,19.09c.98.98.98,2.56,0,3.54s-2.56.98-3.54,0l-19.09-19.09-19.09,19.09c-.98.98-2.56.98-3.54,0s-.98-2.56,0-3.54l19.09-19.09L9.37,12.91c-.98-.98-.98-2.56,0-3.54s2.56-.98,3.54,0l19.09,19.09,19.09-19.09c.98-.98,2.56-.98,3.54,0Z" fill="#1e1e1c"/>
</svg>