<?xml version="1.0" encoding="UTF-8"?>
<svg id="_x33_219" xmlns="http://www.w3.org/2000/svg" version="1.1" viewBox="0 0 40 40">
  <!-- Generator: Adobe Illustrator 29.0.1, SVG Export Plug-In . SVG Version: 2.1.0 Build 192)  -->
  <defs>
    <style>
      .st0 {
        fill: #1e1e1c;
      }
    </style>
  </defs>
  <path class="st0" d="M14.78,10.8l-2.83-2.83L20-.08l7.99,7.98-2.83,2.83-5.15-5.15-5.22,5.22ZM20,34.26l-5.15-5.15-2.83,2.83,7.99,7.99,8.05-8.05-2.83-2.83-5.22,5.22ZM24.95,17.92h-9.91c-1.11,0-2,.9-2,2s.9,2,2,2h9.91c1.11,0,2-.9,2-2s-.9-2-2-2ZM24.95,11.91h-9.91c-1.11,0-2,.9-2,2s.9,2,2,2h9.91c1.11,0,2-.9,2-2s-.9-2-2-2ZM24.95,23.91h-9.91c-1.11,0-2,.9-2,2s.9,2,2,2h9.91c1.11,0,2-.9,2-2s-.9-2-2-2Z"/>
</svg>