<?xml version="1.0" encoding="UTF-8"?>
<svg id="_x33_219" xmlns="http://www.w3.org/2000/svg" version="1.1" viewBox="0 0 48 48">
  <!-- Generator: Adobe Illustrator 29.0.1, SVG Export Plug-In . SVG Version: 2.1.0 Build 192)  -->
  <defs>
    <style>
      .st0 {
        fill: #1e1e1c;
      }
    </style>
  </defs>
  <path class="st0" d="M17.55,12.8l-3.19-3.19L24-.03l9.56,9.56-3.19,3.19-6.37-6.37-6.45,6.45ZM24,41.59l-6.37-6.37-3.19,3.19,9.56,9.56,9.64-9.64-3.19-3.19-6.45,6.45ZM30.01,21.71h-12.01c-1.25,0-2.26,1.01-2.26,2.26s1.01,2.26,2.26,2.26h12.01c1.25,0,2.26-1.01,2.26-2.26s-1.01-2.26-2.26-2.26ZM30.01,14.74h-12.01c-1.25,0-2.26,1.01-2.26,2.26s1.01,2.26,2.26,2.26h12.01c1.25,0,2.26-1.01,2.26-2.26s-1.01-2.26-2.26-2.26ZM30.01,28.7h-12.01c-1.25,0-2.26,1.01-2.26,2.26s1.01,2.26,2.26,2.26h12.01c1.25,0,2.26-1.01,2.26-2.26s-1.01-2.26-2.26-2.26Z"/>
</svg>