<?xml version="1.0" encoding="UTF-8"?>
<svg id="_x33_219" xmlns="http://www.w3.org/2000/svg" version="1.1" viewBox="0 0 16 16">
  <!-- Generator: Adobe Illustrator 29.0.1, SVG Export Plug-In . SVG Version: 2.1.0 Build 192)  -->
  <defs>
    <style>
      .st0 {
        fill: #1e1e1c;
      }
    </style>
  </defs>
  <path class="st0" d="M5.85,4.26l-1.06-1.06L8,0l3.19,3.19-1.06,1.06-2.12-2.12-2.15,2.15ZM8,13.87l-2.12-2.12-1.06,1.06,3.19,3.19,3.21-3.21-1.06-1.06-2.15,2.15ZM6,5.74c-.41,0-.75.34-.75.75s.34.75.75.75h4c.41,0,.75-.34.75-.75s-.34-.75-.75-.75h-4ZM6,8.74c-.41,0-.75.34-.75.75s.34.75.75.75h4c.41,0,.75-.34.75-.75s-.34-.75-.75-.75h-4Z"/>
</svg>