<?xml version="1.0" encoding="UTF-8"?>
<svg id="_x33_219" xmlns="http://www.w3.org/2000/svg" version="1.1" viewBox="0 0 24 24">
  <!-- Generator: Adobe Illustrator 29.0.1, SVG Export Plug-In . SVG Version: 2.1.0 Build 192)  -->
  <defs>
    <style>
      .st0 {
        fill: #1e1e1c;
      }
    </style>
  </defs>
  <path class="st0" d="M9.24,6.99l-2.12-2.12L12-.02l4.84,4.84-2.12,2.12-2.72-2.72-2.76,2.76ZM12,19.74l-2.72-2.72-2.12,2.12,4.84,4.84,4.88-4.88-2.12-2.12-2.76,2.76ZM14.85,8.23h-5.7c-.83,0-1.5.67-1.5,1.5s.67,1.5,1.5,1.5h5.7c.83,0,1.5-.67,1.5-1.5s-.67-1.5-1.5-1.5ZM14.85,12.72h-5.7c-.83,0-1.5.67-1.5,1.5s.67,1.5,1.5,1.5h5.7c.83,0,1.5-.67,1.5-1.5s-.67-1.5-1.5-1.5Z"/>
</svg>