<?xml version="1.0" encoding="UTF-8"?>
<svg id="a" data-name="3219" xmlns="http://www.w3.org/2000/svg" viewBox="0 0 32 32">
  <path d="M25.97,19.94c-2,0-3.77.98-4.86,2.48l-9.31-4.66c.17-.56.26-1.15.26-1.76s-.09-1.2-.26-1.76l9.31-4.65c1.1,1.5,2.87,2.48,4.86,2.48,3.32,0,6.03-2.71,6.03-6.03S29.29,0,25.96,0s-6.03,2.71-6.03,6.03c0,.61.09,1.2.26,1.76l-9.31,4.65c-1.1-1.5-2.87-2.48-4.86-2.48C2.7,9.97,0,12.67,0,16s2.71,6.03,6.03,6.03c2,0,3.77-.98,4.86-2.48l9.31,4.66c-.17.56-.26,1.15-.26,1.76,0,3.33,2.71,6.03,6.03,6.03s6.03-2.71,6.03-6.03-2.7-6.03-6.03-6.03ZM25.96,2.01c2.22,0,4.03,1.81,4.03,4.03s-1.81,4.03-4.03,4.03-4.03-1.81-4.03-4.03,1.81-4.03,4.03-4.03ZM6.03,20.03c-2.22,0-4.03-1.81-4.03-4.03s1.81-4.03,4.03-4.03,4.03,1.81,4.03,4.03-1.81,4.03-4.03,4.03ZM25.97,30c-2.22,0-4.03-1.81-4.03-4.03s1.81-4.03,4.03-4.03,4.03,1.81,4.03,4.03-1.81,4.03-4.03,4.03Z" fill="#1e1e1c"/>
</svg>