<?xml version="1.0" encoding="UTF-8"?>
<svg id="a" data-name="3219" xmlns="http://www.w3.org/2000/svg" viewBox="0 0 16 16">
  <path d="M12.82,9.67c-.96,0-1.82.44-2.4,1.12l-4.15-2.08c.05-.23.09-.46.09-.7,0-.26-.04-.51-.1-.75l4.15-2.05c.58.69,1.44,1.13,2.42,1.13,1.75,0,3.18-1.42,3.18-3.17S14.57,0,12.82,0s-3.18,1.42-3.18,3.17c0,.24.03.47.08.69l-4.17,2.06c-.58-.66-1.43-1.09-2.38-1.09C1.42,4.84,0,6.26,0,8s1.43,3.17,3.18,3.17c.97,0,1.83-.44,2.41-1.13l4.14,2.08c-.05.23-.09.47-.09.71,0,1.75,1.43,3.17,3.18,3.17s3.18-1.42,3.18-3.17-1.43-3.17-3.18-3.17ZM12.82,1.5c.92,0,1.67.75,1.67,1.67s-.75,1.67-1.67,1.67-1.67-.75-1.67-1.67.75-1.67,1.67-1.67ZM3.17,9.67c-.92,0-1.67-.75-1.67-1.67s.75-1.67,1.67-1.67,1.67.75,1.67,1.67-.75,1.67-1.67,1.67ZM12.82,14.51c-.92,0-1.67-.75-1.67-1.67s.75-1.67,1.67-1.67,1.67.75,1.67,1.67-.75,1.67-1.67,1.67Z" fill="#1e1e1c"/>
</svg>