<?xml version="1.0" encoding="UTF-8"?>
<svg id="a" data-name="3219" xmlns="http://www.w3.org/2000/svg" viewBox="0 0 24 24">
  <path d="M19,13.99c-1.41,0-2.68.59-3.59,1.53l-5.49-2.75c.04-.26.08-.51.08-.78s-.04-.52-.08-.78l5.5-2.75c.91.94,2.18,1.53,3.59,1.53,2.76,0,5-2.24,5-5S21.76,0,19,0s-5,2.24-5,5c0,.27.04.52.08.78l-5.5,2.75c-.91-.94-2.18-1.53-3.59-1.53C2.25,6.99,0,9.24,0,12s2.24,5,5,5c1.41,0,2.68-.59,3.59-1.53l5.49,2.75c-.04.26-.08.51-.08.78,0,2.76,2.24,5,5,5s5-2.24,5-5-2.24-5-5-5ZM19,3c1.1,0,1.99.89,1.99,1.99s-.89,2-1.99,2-1.99-.89-1.99-2,.89-1.99,1.99-1.99ZM5,13.99c-1.1,0-1.99-.89-1.99-1.99s.89-1.99,1.99-1.99,1.99.89,1.99,1.99-.89,1.99-1.99,1.99ZM19,20.99c-1.1,0-1.99-.89-1.99-1.99s.89-2,1.99-2,1.99.89,1.99,2-.89,1.99-1.99,1.99Z" fill="#1e1e1c"/>
</svg>