<?xml version="1.0" encoding="UTF-8"?>
<svg id="a" data-name="3219" xmlns="http://www.w3.org/2000/svg" viewBox="0 0 64 64">
  <path d="M47.7,44.4l11.04-11.03H16.16v-2.75h42.58l-11.04-11.03c-.54-.54-.54-1.41,0-1.95.54-.54,1.41-.54,1.95,0l14.36,14.35-14.36,14.35c-.27.27-.62.4-.97.4s-.7-.13-.97-.4c-.54-.54-.54-1.41,0-1.95ZM2.76,58.54V5.46c0-1.49,1.2-2.71,2.68-2.71h47.04V0H5.44C2.44,0,0,2.45,0,5.46v53.08c0,3.01,2.44,5.46,5.43,5.46h47.04v-2.75H5.44c-1.48,0-2.68-1.22-2.68-2.71Z" fill="#1e1e1c"/>
</svg>