<?xml version="1.0" encoding="UTF-8"?>
<svg id="a" data-name="3219" xmlns="http://www.w3.org/2000/svg" viewBox="0 0 48 48">
  <path d="M45.25,0H2.75C1.23,0,0,1.24,0,2.75v45.25h48V2.75C48,1.24,46.77,0,45.25,0ZM2.75,2.5h42.5c.14,0,.25.11.25.25v7.5H2.5V2.75c0-.14.11-.25.25-.25ZM2.5,45.5V12.75h43v32.75H2.5ZM5.49,6.18c0-.93.75-1.68,1.68-1.68s1.68.75,1.68,1.68-.75,1.68-1.68,1.68-1.68-.75-1.68-1.68ZM10.24,6.18c0-.93.75-1.68,1.68-1.68s1.68.75,1.68,1.68-.75,1.68-1.68,1.68-1.68-.75-1.68-1.68ZM24,23.64c-3.26,0-5.91,2.63-5.91,5.87s2.65,5.87,5.91,5.87,5.91-2.63,5.91-5.87-2.65-5.87-5.91-5.87ZM24,32.87c-1.88,0-3.41-1.51-3.41-3.37s1.53-3.36,3.41-3.36,3.41,1.51,3.41,3.36-1.53,3.37-3.41,3.37ZM34.18,18.49l-3.72,2.13c-.61-.44-1.25-.81-1.93-1.11v-4.26h-9.06v4.26c-.68.3-1.32.67-1.93,1.11l-3.72-2.13-4.54,7.79,3.69,2.11c-.04.39-.07.76-.07,1.11s.02.73.07,1.11l-3.69,2.11,4.54,7.79,3.72-2.13c.61.43,1.25.81,1.93,1.11v4.26h9.06v-4.25c.68-.3,1.32-.67,1.93-1.11l3.72,2.13,4.54-7.79-3.69-2.11c.04-.39.07-.76.07-1.11s-.02-.73-.07-1.11l3.69-2.11-4.54-7.79ZM32.27,27.09l.16.87c.11.59.16,1.08.16,1.55s-.05.96-.16,1.55l-.16.87,3.02,1.73-2.02,3.47-3.05-1.75-.67.56c-.8.68-1.71,1.2-2.68,1.54l-.83.3v3.48h-4.06v-3.48l-.83-.3c-.98-.34-1.88-.86-2.68-1.54l-.67-.56-3.06,1.75-2.02-3.47,3.02-1.73-.16-.87c-.11-.59-.16-1.08-.16-1.55s.05-.96.16-1.54l.16-.87-3.02-1.73,2.02-3.47,3.06,1.75.67-.56c.8-.68,1.7-1.2,2.68-1.54l.83-.29v-3.49h4.06v3.48l.83.3c.98.34,1.88.86,2.68,1.54l.67.56,3.05-1.75,2.02,3.47-3.02,1.73Z" fill="#1e1e1c"/>
</svg>