<?xml version="1.0" encoding="UTF-8"?>
<svg id="a" data-name="3219" xmlns="http://www.w3.org/2000/svg" viewBox="0 0 32 32">
  <path d="M18.86,20.17c0,1.57-1.29,2.84-2.87,2.84s-2.87-1.27-2.87-2.84,1.29-2.84,2.87-2.84,2.87,1.27,2.87,2.84ZM0,7V2.5C0,1.12,1.12,0,2.5,0h27c1.38,0,2.5,1.12,2.5,2.5v4.5H0ZM6.5,3.95c0,.71.58,1.29,1.29,1.29s1.29-.58,1.29-1.29-.58-1.29-1.29-1.29-1.29.58-1.29,1.29ZM3,3.95c0,.71.58,1.29,1.29,1.29s1.29-.58,1.29-1.29-.58-1.29-1.29-1.29-1.29.58-1.29,1.29ZM32,9v23H0V9H32ZM21.94,19.08l2.06-1.18-2.02-3.46-2.07,1.19c-.56-.47-1.19-.84-1.89-1.09v-2.37h-4.04v2.37c-.7.25-1.33.62-1.89,1.09l-2.07-1.19-2.02,3.46,2.06,1.18c-.07.35-.11.72-.11,1.09s.04.74.11,1.09l-2.06,1.18,2.02,3.46,2.07-1.19c.55.47,1.19.84,1.89,1.09v2.37h4.04v-2.37c.7-.25,1.33-.62,1.89-1.09l2.07,1.19,2.02-3.46-2.06-1.18c.07-.35.11-.72.11-1.09s-.05-.74-.11-1.09Z" fill="#1e1e1c"/>
</svg>