<?xml version="1.0" encoding="UTF-8"?>
<svg id="a" data-name="3219" xmlns="http://www.w3.org/2000/svg" viewBox="0 0 16 16">
  <path d="M13.75,0H2.25C1.01,0,0,1.01,0,2.25v13.75h16V2.25c0-1.24-1.01-2.25-2.25-2.25ZM2.25,1.5h11.5c.41,0,.75.34.75.75v2.5H1.5v-2.5c0-.41.34-.75.75-.75ZM1.5,14.5V6.25h13v8.25H1.5ZM2.25,3.14c0-.49.4-.89.89-.89s.89.4.89.89-.4.89-.89.89-.89-.4-.89-.89ZM4.75,3.14c0-.49.4-.89.89-.89s.89.4.89.89-.4.89-.89.89-.89-.4-.89-.89ZM10.62,7.99l-.91.52c-.24-.21-.52-.37-.83-.48v-1.04h-1.77v1.04c-.31.11-.58.27-.83.48l-.91-.52-.88,1.52.9.51c-.03.16-.05.31-.05.48s.02.32.05.48l-.9.51.88,1.52.91-.52c.24.21.52.37.83.48v1.04h1.77v-1.04c.31-.11.58-.27.83-.48l.91.52.88-1.52-.9-.51c.03-.16.05-.31.05-.48s-.02-.32-.05-.48l.9-.51-.88-1.52ZM8,11.5c-.55,0-1-.45-1-1s.45-1,1-1,1,.45,1,1-.45,1-1,1Z" fill="#1e1e1c"/>
</svg>