<?xml version="1.0" encoding="UTF-8"?>
<svg id="a" data-name="3219" xmlns="http://www.w3.org/2000/svg" viewBox="0 0 16 16">
  <path d="M9,10.89c0,.55-.45,1-1,1s-1-.45-1-1,.45-1,1-1,1,.45,1,1ZM0,4.75v-2.5C0,1.01,1.01,0,2.25,0h11.5c1.24,0,2.25,1.01,2.25,2.25v2.5H0ZM4.21,2.57c0,.49.4.89.89.89s.89-.4.89-.89-.4-.89-.89-.89-.89.4-.89.89ZM1.71,2.57c0,.49.4.89.89.89s.89-.4.89-.89-.4-.89-.89-.89-.89.4-.89.89ZM16,6.25v9.75H0V6.25H16ZM10.6,10.41l.9-.51-.88-1.52-.91.52c-.24-.21-.52-.37-.83-.48v-1.04h-1.77v1.04c-.31.11-.58.27-.83.48l-.91-.52-.88,1.52.9.51c-.03.16-.05.31-.05.48s.02.32.05.48l-.9.51.88,1.52.91-.52c.24.21.52.37.83.48v1.04h1.77v-1.04c.31-.11.58-.27.83-.48l.91.52.88-1.52-.9-.51c.03-.16.05-.31.05-.48s-.02-.32-.05-.48Z" fill="#1e1e1c"/>
</svg>