<?xml version="1.0" encoding="UTF-8"?>
<svg id="a" data-name="3219" xmlns="http://www.w3.org/2000/svg" viewBox="0 0 40 40">
  <path d="M37.37-.02H2.63C1.18-.02,0,1.16,0,2.6v37.38h40V2.6c0-1.45-1.18-2.62-2.63-2.62ZM2.63,2.23h34.75c.21,0,.38.17.38.37v6.28H2.25V2.6c0-.21.17-.37.38-.37ZM2.25,37.73V11.13h35.5v26.6H2.25ZM4.5,5.58c0-.82.67-1.48,1.48-1.48s1.48.66,1.48,1.48-.67,1.48-1.48,1.48-1.48-.66-1.48-1.48ZM8.87,5.58c0-.82.67-1.48,1.48-1.48s1.48.66,1.48,1.48-.67,1.48-1.48,1.48-1.48-.66-1.48-1.48ZM27.89,15.89l-2.91,1.66c-.42-.29-.87-.55-1.33-.77v-3.33h-7.3v3.33c-.46.21-.91.47-1.33.76l-2.91-1.66-3.66,6.27,2.89,1.65c-.03.26-.04.52-.04.77s.01.5.04.77l-2.89,1.65,3.66,6.27,2.91-1.67c.42.29.86.55,1.33.76v3.33h7.3v-3.33c.46-.21.91-.47,1.33-.77l2.91,1.67,3.66-6.27-2.89-1.65c.03-.27.04-.52.04-.77s-.01-.5-.04-.77l2.89-1.65-3.66-6.27ZM26.32,23.42c.08.44.12.81.12,1.16s-.04.72-.12,1.16l-.14.78,2.28,1.3-1.39,2.39-2.31-1.32-.6.51c-.6.51-1.28.9-2.01,1.16l-.75.26v2.63h-2.8v-2.63l-.75-.26c-.73-.26-1.41-.65-2.01-1.15l-.6-.51-2.31,1.32-1.39-2.39,2.28-1.3-.14-.78c-.08-.44-.12-.81-.12-1.16s.04-.72.12-1.16l.14-.78-2.28-1.3,1.39-2.39,2.31,1.32.6-.51c.6-.51,1.28-.9,2.01-1.16l.75-.26v-2.63h2.8v2.63l.75.26c.73.26,1.41.65,2.01,1.16l.6.51,2.31-1.32,1.39,2.38-2.28,1.3.15.79ZM20,19.91c-2.6,0-4.71,2.1-4.71,4.67s2.11,4.67,4.71,4.67,4.71-2.1,4.71-4.67-2.11-4.67-4.71-4.67ZM20,27c-1.35,0-2.46-1.09-2.46-2.42s1.1-2.42,2.46-2.42,2.46,1.09,2.46,2.42-1.1,2.42-2.46,2.42Z" fill="#1e1e1c"/>
</svg>