<?xml version="1.0" encoding="UTF-8"?>
<svg id="a" data-name="3219" xmlns="http://www.w3.org/2000/svg" viewBox="0 0 24 24">
  <path d="M14.1,15.82c0,1.1-.9,2-2,2s-2-.9-2-2,.9-2,2-2,2,.9,2,2ZM0,5.88v-3.5C0,1.07,1.06,0,2.37,0h19.25c1.31,0,2.38,1.07,2.38,2.38v3.5H0ZM5.87,3.29c0,.6.49,1.09,1.09,1.09s1.09-.49,1.09-1.09-.49-1.09-1.09-1.09-1.09.49-1.09,1.09ZM2.62,3.29c0,.6.49,1.09,1.09,1.09s1.09-.49,1.09-1.09-.49-1.09-1.09-1.09-1.09.49-1.09,1.09ZM24,7.62v16.38H0V7.62h24ZM16.55,15.01l1.54-.88-1.51-2.6-1.56.89c-.42-.35-.89-.63-1.42-.82v-1.78h-3.03v1.78c-.53.19-1,.46-1.42.81l-1.56-.89-1.51,2.6,1.54.88c-.05.27-.08.54-.08.82s.03.55.08.82l-1.54.88,1.51,2.6,1.56-.89c.42.35.89.63,1.42.81v1.78h3.03v-1.78c.53-.19,1-.46,1.42-.81l1.56.89,1.51-2.6-1.54-.88c.05-.27.08-.54.08-.82s-.03-.55-.08-.82Z" fill="#1e1e1c"/>
</svg>