<?xml version="1.0" encoding="UTF-8"?>
<svg id="a" data-name="3219" xmlns="http://www.w3.org/2000/svg" viewBox="0 0 16 16">
  <path d="M1.07,16l2.34-2.34c.61.41,1.33.63,2.08.63,1,0,1.94-.39,2.65-1.1l.94-.94-1.13-1.13,1.54-1.54c.29-.29.29-.77,0-1.06s-.77-.29-1.06,0l-1.54,1.54-1.02-1.02,1.54-1.54c.29-.29.29-.77,0-1.06s-.77-.29-1.06,0l-1.54,1.54-1.04-1.04-.94.94c-.71.71-1.1,1.65-1.1,2.65,0,.74.22,1.45.62,2.06l-2.35,2.35v1.05h1.07ZM3.77,9.08l.48.48s0,.02.02.02.02,0,.02.02l2.04,2.04s0,.02.02.03.02,0,.03.02l.57.57c-.86.74-2.25.69-3.05-.12-.42-.42-.66-.99-.66-1.59,0-.54.19-1.05.54-1.46ZM7.9,2.83l-.94.94,5.3,5.3.94-.94c1.28-1.28,1.44-3.27.47-4.72l2.33-2.33V0h-1.04l-2.35,2.35c-1.46-.96-3.44-.8-4.71.48ZM12.26,6.94l-3.17-3.17c.88-.76,2.22-.72,3.05.12.83.84.88,2.17.12,3.05Z" fill="#1e1e1c"/>
</svg>