<?xml version="1.0" encoding="UTF-8"?>
<svg id="a" data-name="3219" xmlns="http://www.w3.org/2000/svg" viewBox="0 0 40 40">
  <path d="M20.27,7.59l-1.81,1.81,12.2,12.2,1.81-1.81c3.1-3.1,3.33-7.98.73-11.36l6.8-6.8V0h-1.55l-6.85,6.85c-3.38-2.59-8.24-2.34-11.33.75ZM30.88,18.2l-.22.22-9.02-9.02.22-.22c2.49-2.49,6.53-2.49,9.02,0,2.49,2.49,2.49,6.53,0,9.01ZM1.61,40l6.83-6.83c1.55,1.2,3.41,1.8,5.27,1.8,2.21,0,4.42-.84,6.1-2.52l1.81-1.81-2.81-2.81,4.38-4.38c.44-.44.44-1.15,0-1.59-.44-.44-1.15-.44-1.59,0l-4.38,4.38-3.61-3.61,4.38-4.38c.44-.44.44-1.15,0-1.59-.44-.44-1.15-.44-1.59,0l-4.38,4.38-2.59-2.59-1.81,1.81c-3.08,3.08-3.33,7.94-.76,11.32l-6.85,6.85v1.57h1.61ZM9.2,21.84l.22-.22,1.75,1.75s.02.04.04.06c.02.02.04.02.06.04l5.1,5.1s.02.04.04.06c.02.02.04.02.06.04l1.97,1.97-.22.22c-2.48,2.49-6.53,2.49-9.01,0-2.49-2.49-2.49-6.53,0-9.02Z" fill="#1e1e1c"/>
</svg>