<?xml version="1.0" encoding="UTF-8"?>
<svg id="a" data-name="3219" xmlns="http://www.w3.org/2000/svg" viewBox="0 0 24 24">
  <path d="M1.25,24l3.84-3.84c.91.66,1.99,1.03,3.14,1.03,1.44,0,2.79-.56,3.8-1.57l1.23-1.23-1.69-1.69,2.49-2.49c.34-.34.34-.9,0-1.24-.34-.34-.9-.34-1.24,0l-2.49,2.49-1.88-1.88,2.49-2.49c.34-.34.34-.9,0-1.24-.34-.34-.9-.34-1.24,0l-2.49,2.49-1.56-1.56-1.23,1.23c-1.88,1.88-2.06,4.81-.57,6.91l-3.86,3.86v1.23h1.25ZM5.65,13.26l.91.91s.01.02.02.03c.01.01.02.01.03.02l3.06,3.06s.01.03.02.04c.01.01.03.01.04.02l1.04,1.04c-1.37,1.36-3.75,1.36-5.12,0-1.41-1.41-1.41-3.7,0-5.12ZM12.02,4.42l-1.23,1.23,7.6,7.6,1.23-1.23c1.02-1.02,1.58-2.37,1.58-3.8,0-1.14-.37-2.22-1.02-3.13l3.83-3.83V0h-1.21l-3.85,3.85c-2.1-1.5-5.03-1.32-6.91.56ZM18.39,10.77l-5.13-5.13c1.41-1.4,3.71-1.4,5.12,0,.69.68,1.06,1.59,1.06,2.56s-.37,1.87-1.05,2.55Z" fill="#1e1e1c"/>
</svg>