<?xml version="1.0" encoding="UTF-8"?>
<svg id="a" data-name="3219" xmlns="http://www.w3.org/2000/svg" viewBox="0 0 32 32">
  <path d="M16.14,6.05l-1.52,1.53,9.9,9.97,1.52-1.53c1.32-1.33,2.05-3.1,2.05-4.98,0-1.55-.5-3.01-1.41-4.23l5.31-5.35V0h-1.38l-5.35,5.39c-2.74-2.06-6.64-1.84-9.13.66ZM24.63,14.59l-.11.11-7.07-7.12.11-.11c1.95-1.96,5.12-1.96,7.07,0,.94.95,1.46,2.22,1.46,3.56s-.52,2.61-1.47,3.56ZM1.65,32l5.11-5.15c1.21.92,2.67,1.42,4.21,1.42,1.87,0,3.63-.73,4.95-2.06l1.52-1.53-2.25-2.27,3.44-3.46c.39-.39.39-1.03,0-1.42s-1.02-.39-1.41,0l-3.44,3.46-2.74-2.76,3.44-3.46c.39-.39.39-1.03,0-1.42s-1.02-.39-1.41,0l-3.44,3.46-2.08-2.09-1.52,1.53c-2.48,2.5-2.7,6.42-.67,9.18L0,30.81v1.19h1.65ZM7.43,17.67l.11-.11,1.33,1.34s.02.03.03.05.03.02.05.03l4.09,4.11s.02.03.03.04.03.02.04.03l1.51,1.52-.11.11c-.94.95-2.2,1.48-3.54,1.48s-2.59-.52-3.54-1.48c-1.95-1.96-1.95-5.16,0-7.12Z" fill="#1e1e1c"/>
</svg>