<svg width="93" height="547" viewBox="0 0 93 547" fill="none" xmlns="http://www.w3.org/2000/svg">
<path d="M40.3605 547H19.997C20.0582 530.714 19.9192 514.33 19.997 498.099C20.0471 487.588 20.3364 477.107 20.367 466.609C20.4421 440.181 20.1584 413.745 19.997 387.328C19.9915 386.221 20.0026 385.102 19.997 383.994H27.7714C27.8048 384.779 27.5795 388.542 27.9577 388.812C31.1148 389.068 34.2523 389.196 37.3982 389.552C38.088 389.63 39.5539 390.242 40.3605 390.292V547Z" fill="#2B3644"/>
<path d="M55.9108 547H40.3594V390.292C45.3411 390.615 50.5481 390.175 55.5409 389.922C55.5409 442.282 55.349 494.748 55.9108 547Z" fill="#2F576D"/>
<path d="M86.2741 382.881L85.5342 547H72.945C72.8338 520.561 73.1509 494.147 73.315 467.719C73.3873 456.178 73.2621 444.626 73.315 433.082L77.3871 432.711L77.0172 384.734C78.7946 384.22 80.9057 383.808 82.5719 383.254C83.5843 382.917 84.544 382.519 85.5342 382.143C85.7094 382.077 86.1127 382.21 86.2741 382.143V382.884V382.881Z" fill="#8DA7B8"/>
<path d="M61.4641 547H55.9094C55.3475 494.748 55.5394 442.282 55.5394 389.922V388.812C56.2543 388.742 57.0665 388.915 57.7619 388.812C58.6325 388.684 60.446 388.678 61.0941 388.071L61.834 388.441L61.4641 547.003V547Z" fill="#7794AA"/>
<path d="M67.0195 547H61.4648L61.8348 388.439C62.7972 387.292 65.6065 387.91 67.0195 387.698V547Z" fill="#A4B8CB"/>
<path d="M72.9442 547H67.0195V387.698C67.7149 387.593 69.4478 387.089 69.9818 386.958V467.536L73.3141 467.722C73.15 494.15 72.8301 520.564 72.9442 547.003V547Z" fill="#D2E0EE"/>
<path d="M9.62775 454.383C9.58047 485.247 8.97966 516.128 9.25781 547H3.70312V356.578C4.81573 356.417 4.42354 357.569 4.44301 358.245C4.6544 365.52 5.52502 374.315 5.55283 381.03C5.56952 385.029 4.45135 390.665 4.44301 393.813C4.39294 411.452 4.54036 429.093 4.44301 446.791C5.6335 447.478 4.92143 445.705 5.36925 445.494C5.98397 445.202 8.69317 445.705 9.62775 445.494C9.62775 448.452 9.63332 451.427 9.62775 454.386V454.383Z" fill="#2F576D"/>
<path d="M92.5678 547H89.9754L89.6055 380.66C90.4149 380.064 90.7737 379.995 90.7153 378.806C90.7097 378.681 89.6138 377.326 89.6055 376.583C90.4844 374.866 89.9893 369.046 89.6055 366.951L92.5678 363.987C93.9307 424.924 91.547 486.046 92.5678 547Z" fill="#51779A"/>
<path d="M89.9756 547H86.6434L86.2734 382.881V382.141C86.7936 381.924 89.386 380.819 89.6057 380.66L89.9756 547Z" fill="#8DA7B8"/>
<path d="M14.8115 467.719V500.32L11.4792 500.133V546.997H9.2568C8.97864 516.125 9.57945 485.244 9.62674 454.38L10.183 459.568L14.8115 458.827C14.8115 461.786 14.8115 464.761 14.8115 467.719Z" fill="#51779A"/>
<path d="M19.9933 547H14.8086V498.469L19.9933 498.099C19.9155 514.333 20.0545 530.716 19.9933 547Z" fill="#0D274A"/>
<path d="M86.6411 547H85.5312L86.2711 382.881L86.6411 547Z" fill="#51779A"/>
<path d="M14.8127 547H11.4805V500.136L14.8127 500.32V547Z" fill="#244C72"/>
<path d="M15.5521 363.987C13.5216 363.322 11.6023 362.581 9.81381 361.393C9.44109 361.685 9.64692 367.098 9.62745 368.061C9.53566 373.104 10.0002 378.244 9.25751 383.251C9.02108 382.911 6.14777 381.484 5.55531 381.027C5.52749 374.312 4.6541 365.517 4.44548 358.243C4.42601 357.566 4.81542 356.414 3.7056 356.575C3.36625 353.489 4.23131 349.807 7.4078 348.424C9.32426 347.589 11.0933 347.572 13.1461 347.684C15.3935 349.601 13.3519 349.971 12.5898 351.018C12.498 351.143 11.8415 350.511 11.8499 351.944C11.8499 352.003 12.3978 352.437 12.5898 352.871C13.2657 354.394 15.8441 356.873 15.922 357.132C16.3921 358.716 15.0236 362.091 15.5521 363.987Z" fill="#4E7584"/>
<path d="M92.565 363.987L89.6027 366.951L86.6404 368.061C86.5542 367.184 86.5486 366.258 86.0841 365.467C85.653 365.492 85.2051 368.682 85.1578 369.172C83.6892 370.296 78.8049 371.27 77.7535 372.136L77.1971 369.172C76.6158 368.71 73.4338 370.496 72.9386 370.652C72.769 370.705 70.2517 369.97 69.6064 371.209C69.2337 372.002 69.9902 373.847 69.9763 373.986C69.7065 377.025 69.4089 379.995 69.6064 383.062C68.4743 381.893 69.5007 380.596 67.384 380.284C67.2783 378.634 67.4591 376.942 67.384 375.283L62.0156 375.097C61.6429 374.832 61.8682 372.734 61.8293 372.133C61.7569 371.033 61.8793 369.901 61.8293 368.799C63.7012 368.618 65.9125 368.384 67.7539 368.058C68.4715 368.648 70.3963 368.531 71.2725 368.428C77.8313 367.66 87.1717 364.026 90.7125 358.426C91.2076 357.641 91.6916 356.623 92.565 356.203C92.7486 358.755 92.5066 361.415 92.565 363.981V363.987Z" fill="#A4B8CB"/>
<path d="M78.1264 363.987C75.7843 364.451 76.8107 360.583 75.1641 359.542C78.8496 358.357 82.3376 358.273 82.5685 353.244C83.6087 350.995 83.2277 349.459 83.6783 348.243C84.2596 346.676 86.9521 348.034 86.2707 346.576C88.6155 347.689 90.1592 348.201 91.4554 350.65C92.7488 357.396 83.478 361.947 78.1264 363.987Z" fill="#7E8998"/>
<path d="M92.567 356.208C91.6964 356.628 91.2124 357.647 90.7145 358.432C83.9137 363.316 76.042 366.6 67.7587 368.064C65.9201 368.39 63.706 368.623 61.834 368.804C59.9287 368.988 57.4531 369.144 55.5395 369.174C51.4451 369.241 47.3868 368.732 43.3203 368.434C39.6459 368.164 35.863 367.805 32.2137 367.324C31.6907 365.893 33.9605 366.166 35.176 366.213C51.9569 366.862 60.9022 370.555 78.1282 363.99C83.4798 361.95 92.7534 357.399 91.4572 350.653C92.8535 353.291 92.3667 353.425 92.567 356.211V356.208Z" fill="#2B3644"/>
<path d="M18.144 355.838C18.0856 355.844 17.8687 356.509 17.0342 356.208C15.6212 355.245 13.5545 352.54 12.5921 351.021C13.3543 349.974 15.3931 349.604 13.1484 347.686C11.0957 347.578 9.32662 347.595 7.41016 348.427C9.9914 345.841 13.7437 345.196 17.037 343.982C17.1955 345.805 17.6128 347.7 17.7769 349.54C17.9632 351.611 18.0161 353.759 18.1468 355.838H18.144Z" fill="#172528"/>
<path d="M82.5685 353.244C82.5462 353.292 81.8592 353.932 81.8286 353.985L80.7188 354.355C81.3585 352.178 81.4558 347.675 81.8286 345.093C83.5865 344.814 84.8465 345.897 86.2707 346.573C86.9521 348.034 84.2596 346.673 83.6783 348.24C83.2277 349.456 83.606 350.993 82.5685 353.241V353.244Z" fill="#1C2029"/>
<path d="M20.3633 466.609L14.8086 467.719C14.8086 464.761 14.8086 461.786 14.8086 458.828V386.215L19.9933 387.325C20.1547 413.742 20.4384 440.178 20.3633 466.606V466.609Z" fill="#4F5461"/>
<path d="M19.9933 498.099L14.8086 498.469V467.719L20.3633 466.609C20.3327 477.107 20.0434 487.588 19.9933 498.099Z" fill="#244C72"/>
<path d="M27.77 383.624C27.7728 383.746 27.7645 383.872 27.77 383.994H19.9957C19.9929 383.257 19.9957 382.491 19.9957 381.77C19.9957 380.668 19.9512 379.538 19.9957 378.436C20.0402 377.334 19.6869 373.56 20.552 373.249C22.8662 373.992 25.3835 374.69 27.7728 375.102C27.7478 377.924 27.6782 380.805 27.7728 383.624H27.77Z" fill="#2B3644"/>
<path d="M40.359 389.552C39.4995 389.546 38.0698 388.909 37.3967 389.552C34.2508 389.196 31.1104 389.065 27.9562 388.812C27.5807 388.544 27.8032 384.782 27.7698 383.994C27.7643 383.872 27.7726 383.746 27.7698 383.624L40.359 384.364C40.3645 386.087 40.4758 387.818 40.359 389.552Z" fill="#172528"/>
<path d="M19.9933 383.994C19.9989 385.102 19.9878 386.22 19.9933 387.328L14.8086 386.218C14.8086 386.095 14.8086 385.97 14.8086 385.848C14.8086 384.503 15.1785 382.987 15.1785 381.773H19.9933C19.9933 382.494 19.9906 383.257 19.9933 383.997V383.994Z" fill="#4F5461"/>
<path d="M55.5384 389.922C50.5483 390.175 45.3385 390.615 40.3568 390.292C39.5502 390.239 38.0843 389.63 37.3945 389.552C38.0677 388.909 39.4974 389.546 40.3568 389.552C45.0965 389.577 50.8126 389.262 55.5384 388.812V389.922Z" fill="#4E7584"/>
<path d="M73.3127 467.719L69.9805 467.533V386.955C72.3837 386.365 74.6117 385.427 77.0149 384.732L77.3849 432.709L73.3127 433.079C73.2599 444.623 73.385 456.178 73.3127 467.717V467.719Z" fill="#D1DDF5"/>
<path d="M77.0152 384.734C74.6091 385.43 72.3839 386.368 69.9807 386.958C69.4466 387.089 67.7138 387.595 67.0184 387.698C65.6082 387.91 62.796 387.292 61.8336 388.439L61.0938 388.068C61.4387 387.746 61.7168 387.668 61.8336 387.328L67.3883 386.401L67.202 383.994C65.3801 383.958 63.65 384.306 61.8336 384.364C61.9004 383.61 62.2008 382.959 62.2036 382.884L67.3883 381.403C67.4801 381.94 67.1686 383.337 67.5747 383.627C69.4133 383.732 71.1712 383.209 72.943 382.886C74.4116 382.619 75.9025 382.313 77.3851 382.146C77.3962 382.269 77.3684 382.397 77.3851 382.516C77.4463 382.934 77.2043 383.76 77.5715 383.997L82.5698 383.257C80.9037 383.813 78.7925 384.225 77.0152 384.737V384.734Z" fill="#6C7C8C"/>
<path d="M85.5317 382.141C84.5414 382.519 83.5818 382.914 82.5693 383.251L77.571 383.991C77.2066 383.755 77.4458 382.925 77.3846 382.511C79.6126 380.465 82.408 379.909 85.1589 378.99C85.3815 375.823 84.8557 372.283 85.1589 369.172C85.2062 368.679 85.654 365.492 86.0852 365.467C86.5497 366.258 86.5553 367.182 86.6415 368.061C86.9474 371.214 86.4134 374.676 86.6415 377.88C87.0754 378.626 89.4258 376.928 89.6038 376.583C89.6121 377.323 90.7081 378.681 90.7136 378.806C87.6234 379.669 84.7 377.671 85.5289 382.141H85.5317Z" fill="#51779A"/>
<path d="M89.6054 380.66C89.3856 380.821 86.7932 381.926 86.2731 382.141C86.109 382.207 85.7084 382.074 85.5332 382.141C84.7043 377.671 87.6277 379.669 90.718 378.806C90.7764 379.995 90.4176 380.064 89.6081 380.66H89.6054Z" fill="#446689"/>
<path d="M57.7633 388.809C57.0707 388.912 56.2557 388.739 55.5409 388.809C50.8151 389.262 45.0991 389.577 40.3594 389.549C40.4762 387.815 40.3649 386.084 40.3594 384.361C40.3594 384.239 40.3594 384.114 40.3594 383.991C45.38 384.818 50.4646 384.779 55.5409 384.732C55.0458 388.105 56.2863 387.459 57.7633 388.806V388.809Z" fill="#224459"/>
<path d="M61.8348 387.328C61.718 387.668 61.4399 387.746 61.0949 388.068C60.4469 388.675 58.6333 388.681 57.7627 388.809C56.2885 387.462 55.0451 388.107 55.5403 384.734C55.6626 384.734 55.7878 384.734 55.9102 384.734C57.8712 384.715 59.8488 384.428 61.8348 384.364C61.7625 385.168 62.024 386.783 61.8348 387.328Z" fill="#2F576D"/>
<path d="M14.8125 458.827L10.184 459.568L9.62771 454.38C9.63327 451.422 9.62771 448.447 9.62771 445.488C9.6444 424.871 9.61658 404.235 9.62771 383.621L14.8125 385.845C14.8125 385.967 14.8125 386.092 14.8125 386.215V458.827Z" fill="#7E8998"/>
<path d="M9.62904 445.491C8.69445 445.703 5.98525 445.199 5.37053 445.491C4.92271 445.703 5.63756 447.475 4.44429 446.788C4.54164 429.091 4.39422 411.452 4.44429 393.81C4.45263 390.662 5.5708 385.027 5.55411 381.027C6.14658 381.484 9.01988 382.909 9.25631 383.251C9.27022 383.273 9.69023 383.195 9.62625 383.621C9.61513 404.238 9.64294 424.874 9.62625 445.488L9.62904 445.491Z" fill="#4E7584"/>
<path d="M89.6028 376.583C89.4248 376.928 87.0744 378.626 86.6405 377.88C86.4124 374.676 86.9465 371.214 86.6405 368.061L89.6028 366.951C89.9867 369.046 90.4818 374.866 89.6028 376.583Z" fill="#7794AA"/>
<path d="M75.1673 359.542C61.129 364.056 54.6175 362.495 40.3622 361.023C33.1887 360.282 26.4212 360.474 19.256 358.059C15.7319 356.87 15.0838 355.401 12.5915 352.871C12.3996 352.437 11.8516 352.006 11.8516 351.944C11.8433 350.511 12.4997 351.143 12.5915 351.018C13.5539 352.534 15.6206 355.24 17.0336 356.205C19.2978 357.75 28.5435 359.534 31.6588 359.91C44.4566 361.454 66.6531 363.419 78.3132 358.056C81.1309 356.759 80.6052 356.144 81.8318 353.982C81.8624 353.929 82.5494 353.289 82.5717 353.241C82.3408 358.27 78.8528 358.354 75.1673 359.539V359.542Z" fill="#EEECED"/>
<path d="M15.1824 376.583C15.1908 378.283 15.1824 380.062 15.1824 381.77C15.1824 382.984 14.8125 384.501 14.8125 385.845L9.62775 383.621C9.69173 383.195 9.27172 383.273 9.25781 383.251C10.0005 378.244 9.53596 373.104 9.62775 368.061C10.8627 369.57 8.67091 373.981 11.2939 372.879C11.4079 369.311 14.7012 365.27 10.3676 363.06C11.8168 362.918 13.1742 364.36 14.4398 364.727C15.0156 367.051 14.7597 369.408 14.8097 371.765C14.8403 373.285 15.1741 375.122 15.1797 376.583H15.1824Z" fill="#7794AA"/>
<path d="M19.9942 365.47C18.8789 365.206 17.7551 364.685 16.662 364.36C16.2614 364.24 15.9193 364.109 15.5522 363.99C15.0237 362.094 16.3922 358.718 15.9221 357.135C15.8442 356.876 13.263 354.396 12.5898 352.874C15.0821 355.404 15.7302 356.873 19.2544 358.062C20.5033 360.154 19.947 363.015 19.9942 365.47Z" fill="#4F5461"/>
<path d="M14.4423 364.73C13.1767 364.362 11.8193 362.921 10.3701 363.063C14.7037 365.273 11.4104 369.311 11.2964 372.881C8.67341 373.986 10.8652 369.572 9.63025 368.064C9.64694 367.101 9.44389 361.688 9.81661 361.396C11.6079 362.584 13.5244 363.322 15.5549 363.99C15.9248 364.112 16.2642 364.24 16.6647 364.36C16.8205 365.654 15.3268 364.986 14.4423 364.73Z" fill="#8DA7B8"/>
<path d="M77.3834 382.511C77.3667 382.391 77.3945 382.263 77.3834 382.141C77.2833 381.055 77.4196 379.903 77.3834 378.807C77.3556 377.93 77.2388 372.79 77.3834 372.508C77.6143 372.063 77.6532 372.222 77.7534 372.138C78.8048 371.273 83.6891 370.299 85.1578 369.174C84.8546 372.286 85.3803 375.823 85.1578 378.993C82.4068 379.911 79.6114 380.465 77.3834 382.514V382.511Z" fill="#7794AA"/>
<path d="M67.3895 380.29C67.4117 380.638 67.2393 380.532 67.3895 381.4L62.2047 382.881C62.2659 380.919 61.3981 377.866 61.8348 375.656C59.8404 375.088 57.8795 375.759 55.9102 375.843C55.9102 374.779 55.9324 373.544 55.9102 372.508C57.9101 372.492 59.8655 372.533 61.8348 372.138C61.8737 372.739 61.6456 374.838 62.0211 375.102L67.3895 375.289C67.4646 376.947 67.2838 378.639 67.3895 380.29Z" fill="#7794AA"/>
<path d="M77.3857 378.806L73.3136 379.547C73.3108 377.76 72.5542 375.681 72.9437 373.805L69.9813 373.992C69.9925 373.853 69.2387 372.007 69.6114 371.214C70.2567 369.979 72.774 370.713 72.9437 370.658C72.354 375.077 74.6515 372.453 77.3857 372.511C77.2411 372.792 77.3579 377.933 77.3857 378.809V378.806Z" fill="#D1DDF5"/>
<path d="M72.9449 382.881C71.1731 383.204 69.4151 383.73 67.5766 383.621C67.1732 383.335 67.4848 381.935 67.3902 381.398C67.24 380.529 67.4125 380.635 67.3902 380.287C69.5069 380.599 68.4806 381.898 69.6126 383.065C69.4151 379.998 69.7128 377.028 69.9826 373.989L72.9449 373.803C72.5555 375.678 73.3121 377.757 73.3148 379.544C73.3148 380.187 72.5638 381.873 72.9449 382.878V382.881Z" fill="#A4B8CB"/>
<path d="M67.7567 368.064C76.04 366.6 83.9117 363.316 90.7125 358.432C87.1717 364.031 77.8341 367.666 71.2725 368.434C70.3963 368.537 68.4715 368.654 67.7539 368.064H67.7567Z" fill="#E8F1F2"/>
<path d="M61.8331 372.138C59.8638 372.533 57.9084 372.492 55.9085 372.508C55.8946 371.802 55.1686 370.215 55.5385 369.174C57.4522 369.144 59.9278 368.988 61.8331 368.804C61.8832 369.906 61.7608 371.039 61.8331 372.138Z" fill="#51779A"/>
<path d="M77.3836 372.508C74.6493 372.45 72.349 375.077 72.9415 370.655C73.4366 370.499 76.6159 368.71 77.2 369.174L77.7563 372.138C77.6562 372.222 77.6144 372.066 77.3864 372.508H77.3836Z" fill="#D2E0EE"/>
<path d="M35.1758 366.21C35.8183 365.328 35.3232 362.267 35.5457 361.95C36.0853 361.181 39.9683 362.682 40.3605 361.023C54.6158 362.492 61.1273 364.056 75.1656 359.542C76.8123 360.583 75.7859 364.452 78.128 363.987C60.9048 370.549 51.9567 366.859 35.1758 366.21Z" fill="#4F5461"/>
<path d="M42.9513 371.768C42.5173 371.768 41.1488 370.889 40.3589 371.582L39.9889 376.583C35.533 376.444 32.0922 375.843 27.7697 375.102C27.7892 372.623 26.7767 368.092 28.8796 366.951C29.9477 367.112 31.1103 367.176 32.2118 367.321C35.8612 367.802 39.644 368.161 43.3184 368.431L42.9485 371.765L42.9513 371.768Z" fill="#2B3644"/>
<path d="M35.1753 366.21C33.9598 366.163 31.6901 365.89 32.213 367.321C31.1087 367.176 29.9488 367.112 28.8807 366.951C25.9852 366.511 22.8365 366.138 19.9938 365.47C19.9465 363.015 20.5028 360.154 19.2539 358.062C26.4191 360.477 33.1865 360.285 40.3601 361.026C39.9706 362.684 36.0876 361.184 35.5452 361.952C35.3227 362.267 35.8178 365.331 35.1753 366.213V366.21Z" fill="#2D2B31"/>
<path d="M42.9531 371.768L43.3231 368.434C47.3896 368.732 51.4479 369.241 55.5423 369.174C55.1723 370.215 55.8983 371.802 55.9122 372.508C51.4395 372.547 47.2895 371.782 42.9531 371.768Z" fill="#2F576D"/>
<path d="M40.36 383.994C40.36 384.117 40.36 384.242 40.36 384.364L27.7708 383.624C27.6763 380.805 27.7458 377.924 27.7708 375.102C32.0933 375.845 35.534 376.446 39.99 376.583C40.1124 376.586 40.2376 376.583 40.36 376.583C40.3627 379.049 40.3544 381.528 40.36 383.991V383.994Z" fill="#2B3644"/>
<path d="M27.7705 375.102C25.3811 374.693 22.8666 373.992 20.5496 373.249C19.6846 373.56 20.0378 377.345 19.9933 378.436C18.0936 378.781 16.7807 377.359 15.1785 376.583C15.173 375.122 14.8392 373.285 14.8086 371.765C16.1243 371.356 19.6345 373.903 20.3633 372.322C19.8431 370.051 20.0378 367.763 19.9933 365.467C22.836 366.138 25.9847 366.511 28.8803 366.948C26.7747 368.086 27.7899 372.62 27.7705 375.099V375.102Z" fill="#3E4652"/>
<path d="M19.9945 381.77H15.1797C15.1797 380.062 15.188 378.283 15.1797 376.583C16.7791 377.359 18.0919 378.781 19.9945 378.436C19.95 379.538 19.9945 380.668 19.9945 381.77Z" fill="#5B6877"/>
<path d="M61.8348 384.364C59.8488 384.428 57.8711 384.715 55.9102 384.734V375.842C57.8795 375.762 59.8404 375.088 61.8348 375.656C61.3981 377.866 62.2659 380.919 62.2047 382.881C62.2047 382.956 61.9015 383.61 61.8348 384.361V384.364Z" fill="#51779A"/>
<path d="M61.8333 387.328C62.0225 386.783 61.761 385.169 61.8333 384.364C63.6497 384.306 65.3825 383.958 67.2016 383.994L67.388 386.401L61.8333 387.328Z" fill="#5B6877"/>
<path d="M77.3856 382.141C75.9003 382.308 74.4122 382.614 72.9435 382.881C72.5625 381.876 73.3163 380.187 73.3135 379.547L77.3856 378.806C77.4218 379.903 77.2855 381.055 77.3856 382.141Z" fill="#A4B8CB"/>
<path d="M55.9128 384.734C55.7904 384.734 55.6652 384.734 55.5428 384.734C50.4666 384.782 45.382 384.821 40.3613 383.994C40.3558 381.528 40.3641 379.049 40.3613 376.586C45.7241 376.705 50.6446 376.062 55.9128 375.845V384.737V384.734Z" fill="#2F576D"/>
<path d="M14.8113 371.768C14.7613 369.411 15.0172 367.054 14.4414 364.73C15.3259 364.986 16.8196 365.654 16.6638 364.36C17.757 364.685 18.8807 365.209 19.9961 365.47C20.0406 367.766 19.8459 370.054 20.366 372.325C19.6373 373.908 16.127 371.359 14.8113 371.768Z" fill="#5B6877"/>
<path d="M55.9136 375.843C50.6454 376.062 45.7249 376.705 40.3621 376.583C40.2397 376.583 40.1146 376.586 39.9922 376.583L40.3621 371.582C41.1521 370.889 42.5206 371.765 42.9545 371.768C47.2909 371.785 51.4409 372.547 55.9136 372.508C55.9358 373.544 55.9136 374.779 55.9136 375.843Z" fill="#446689"/>
<path d="M72.2021 349.91C72.1409 350.603 71.8294 351.669 71.8322 351.764C68.8309 348.619 67.5987 351.638 67.76 346.022C68.1272 333.214 72.7807 318.289 73.3147 304.343C73.3425 303.631 73.1311 300.923 73.5011 300.639C74.0407 301.699 75.6484 302.314 76.277 302.863C77.3424 303.792 78.0961 303.739 78.4995 305.456C77.5704 320.154 73.4594 335.388 72.2049 349.913L72.2021 349.91Z" fill="#862318"/>
<path d="M86.2725 313.605C85.6689 317.805 85.018 322.002 84.42 326.201C83.2017 325.578 83.4771 329.399 83.3102 329.722C82.2003 331.868 82.6537 321.643 82.5703 321.2C82.4702 320.68 82.7761 319.9 81.8304 320.46C82.6315 323.332 81.0238 325.67 80.7206 327.868C79.5468 336.37 79.6553 345.145 78.1282 353.617H77.0184C76.9906 353.305 76.7514 353.239 76.6484 352.877C77.4718 348.544 76.5789 343.626 77.0184 339.354C77.0239 339.287 78.0364 339.599 78.1282 338.614C78.8236 331.25 78.8125 325.302 79.608 318.239C79.6274 318.055 80.6928 316.58 80.7178 316.385C81.4632 310.558 77.9391 304.755 87.3823 303.419L86.2725 313.608V313.605Z" fill="#F8B87A"/>
<path d="M86.2709 313.605L87.3807 303.416C77.9347 304.752 81.4617 310.555 80.7162 316.383C80.6912 316.575 79.6259 318.052 79.6064 318.236C78.8109 325.302 78.8192 331.25 78.1266 338.611C78.0348 339.596 77.0224 339.284 77.0168 339.351C76.5773 343.623 77.4702 348.541 76.6469 352.874C76.4521 352.189 76.0822 350.439 74.9807 350.65C73.7263 351.146 73.9571 352.309 74.0545 353.614C71.3592 354.463 71.9238 354.021 71.832 351.761C71.8293 351.666 72.1436 350.603 72.202 349.907C72.775 351.886 73.6734 351.363 74.0545 349.721L79.9791 306.375L78.4993 305.448C78.096 303.731 77.3422 303.784 76.2769 302.854C78.7163 302.849 81.0277 303.709 83.4977 303.595C84.0346 303.569 87.9398 301.802 88.1262 302.668C87.5254 306.308 86.7994 309.948 86.2737 313.597L86.2709 313.605Z" fill="#964A10"/>
<path d="M81.8288 345.095C81.4533 347.675 81.3559 352.181 80.719 354.357C79.9596 356.946 79.4339 356.606 77.3867 357.321C77.8262 356.024 77.893 354.922 78.1266 353.617C79.6537 345.148 79.5452 336.373 80.719 327.868C81.0222 325.667 82.6299 323.329 81.8288 320.46C82.7745 319.9 82.4685 320.68 82.5687 321.2C82.6549 321.64 82.1987 331.868 83.3086 329.722C83.4755 329.399 83.2029 325.581 84.4184 326.201C83.5255 332.485 82.7384 338.817 81.826 345.095H81.8288Z" fill="#E2883B"/>
<path d="M76.6437 357.319C76.5297 357.338 75.9122 358.96 74.7913 357.505C75.3197 355.882 74.1404 354.805 74.0514 353.614C73.954 352.309 73.7204 351.146 74.9776 350.65C76.0791 350.436 76.449 352.189 76.6437 352.874C76.7467 353.236 76.9859 353.303 77.0137 353.614C77.0943 354.538 75.6813 356.414 76.6437 357.319Z" fill="#833607"/>
<path d="M77.3855 357.319C77.213 357.38 76.8737 357.28 76.6456 357.319C75.6832 356.414 77.0962 354.535 77.0156 353.614H78.1254C77.8889 354.92 77.825 356.024 77.3855 357.319Z" fill="#9B6414"/>
<path d="M72.202 349.91C73.4565 335.385 77.5675 320.151 78.4966 305.454L79.9763 306.38L74.0517 349.726C73.6706 351.366 72.7722 351.892 72.1992 349.913L72.202 349.91Z" fill="#CA8321"/>
<path d="M17.029 356.208C17.8635 356.509 18.0804 355.843 18.1388 355.838C20.9509 355.593 23.2457 358.195 21.841 352.874L22.9508 348.613C23.0565 350.291 22.6449 354.947 23.6907 356.208C24.4445 357.115 25.5404 357.054 25.9132 355.838C27.3011 357.355 29.2927 357.928 31.2815 357.691C32.0325 357.41 31.4762 355.356 31.4679 354.727H32.2077C32.2522 355.373 32.013 357.792 32.3941 358.062C32.5666 358.184 35.96 358.067 36.6526 358.062C37.1644 358.059 38.7499 358.955 39.6149 358.248C39.8486 355.368 39.9849 352.423 39.9849 349.543V348.062C39.9849 349.71 40.2185 359.514 41.281 359.548C42.1544 358.766 41.7622 358.601 41.8373 358.067C42.9305 358.259 44.1071 358.512 45.1696 358.807C47.1194 359.353 47.0443 360.143 49.6117 358.807C50.015 360.719 53.4724 360.335 55.1664 360.661C55.4779 360.719 55.9063 360.95 56.6461 361.031C57.1273 361.084 57.6419 361.003 58.1259 361.031C58.7962 361.07 58.6294 361.529 60.3483 361.401C61.4804 361.318 62.6542 361.162 63.6806 360.661C64.1757 360.419 65.1631 360.433 65.5331 359.734C65.9475 358.949 67.1575 348.616 67.3856 346.768C67.9892 341.864 70.4202 319.01 69.2381 315.834C68.6623 314.287 64.2703 309.926 62.5736 309.906C61.1188 309.89 53.2972 311.537 52.9467 312.684C53.0969 312.862 53.3556 312.951 53.3167 313.241C52.9801 315.77 53.5392 318.943 53.3167 321.576C52.5212 331.01 51.0163 340.506 49.9844 349.916C49.9761 349.548 49.9928 349.172 49.9844 348.805C49.9343 346.846 49.6423 344.884 49.6145 342.877C49.5978 341.77 49.6284 340.651 49.6145 339.543C49.5616 335.474 49.6729 331.386 49.6145 327.317C49.5894 325.595 49.6395 323.855 49.6145 322.13C49.5199 315.673 49.9399 308.498 49.2445 302.125C48.8913 298.897 46.5854 299.317 44.4297 296.937C44.0514 296.52 42.1016 293.787 42.2073 293.417C42.9444 293.244 44.413 291.678 44.9832 291.75C46.3657 291.922 53.77 304.688 54.98 306.57L67.5692 296.567C69.1379 296.364 71.6218 303.505 73.3074 304.346C72.7734 318.292 68.1199 333.217 67.7527 346.025C67.5914 351.641 68.8236 348.621 71.8249 351.766C71.9167 354.023 71.3492 354.466 74.0473 353.62C74.1363 354.811 75.3157 355.888 74.7872 357.511C75.9081 358.966 76.5229 357.346 76.6397 357.324C76.8705 357.285 77.2071 357.385 77.3796 357.324C79.4268 356.612 79.9525 356.948 80.7118 354.36L81.8216 353.99C80.5978 356.152 81.1235 356.77 78.303 358.064C66.6429 363.427 44.4492 361.462 31.6487 359.918C28.5334 359.542 19.2876 357.755 17.0234 356.214L17.029 356.208Z" fill="#4C2309"/>
<path d="M55.1644 360.653C53.4733 360.33 50.0131 360.711 49.6098 358.799C49.2621 357.152 50.0353 352.117 49.9797 349.907C51.0116 340.495 52.5164 330.999 53.3119 321.567C53.5345 318.935 52.9754 315.762 53.3119 313.232C54.6109 314.045 55.679 315.05 57.0142 315.826C57.5565 316.141 57.1949 316.925 58.8666 316.936L55.1644 360.653Z" fill="#AC112E"/>
<path d="M63.6816 360.653C63.3589 360.335 63.3589 359.573 63.3116 359.542C65.9318 345.969 66.3741 331.074 67.3838 316.753C66.9359 316.007 66.4742 316.307 65.904 316.196C64.936 316.01 64.58 316.483 64.0515 316.566C63.2949 316.689 62.5689 316.33 61.8291 316.936C61.8652 316.817 61.7873 316.664 61.8291 316.566C62.9723 313.853 65.8233 315.255 68.1236 315.826C68.4185 315.898 69.2613 316.296 69.2335 315.826C70.4184 319.001 67.9846 341.856 67.381 346.76C67.1529 348.608 65.9429 358.941 65.5285 359.726C65.1613 360.424 64.1739 360.41 63.676 360.653H63.6816Z" fill="#CA8321"/>
<path d="M63.31 359.542C63.3573 359.576 63.3573 360.335 63.6799 360.653C62.6535 361.154 61.4797 361.309 60.3477 361.393L64.0499 316.566C64.5756 316.48 64.9316 316.01 65.9023 316.196C64.9928 317.568 64.9511 319.625 64.7925 321.197C63.8385 330.657 62.5367 341.842 62.2001 351.204C62.1445 352.74 61.9081 358.293 62.2001 359.356C62.4421 360.238 63.2432 359.495 63.31 359.542Z" fill="#F2925F"/>
<path d="M60.3474 361.396C58.6312 361.521 58.7953 361.064 58.125 361.026L61.8272 316.939C62.5671 316.333 63.2903 316.692 64.0496 316.569L60.3474 361.396Z" fill="#E4775B"/>
<path d="M56.6477 361.026C55.9051 360.942 55.4795 360.714 55.168 360.655L58.8702 316.939C59.1149 316.939 59.3681 316.959 59.6101 316.939L56.6477 361.026Z" fill="#CA8321"/>
<path d="M58.1282 361.026C57.6414 360.998 57.1269 361.078 56.6484 361.026L59.6108 316.939C59.7832 316.925 60.8457 315.503 61.8332 316.569C61.7915 316.669 61.8693 316.822 61.8332 316.939L58.131 361.026H58.1282Z" fill="#964A10"/>
<path d="M57.0175 315.826C55.6823 315.05 54.6142 314.045 53.3153 313.232C53.3542 312.943 53.0955 312.854 52.9453 312.676C53.2958 311.526 61.1174 309.881 62.5721 309.898L62.9421 314.343C61.0367 314.454 58.9256 315.461 57.0175 315.823V315.826Z" fill="#EEC696"/>
<path d="M68.125 315.826C67.1904 314.073 64.6258 314.245 62.9403 314.345L62.5703 309.901C64.2698 309.92 68.659 314.281 69.2348 315.829C69.2599 316.299 68.4171 315.901 68.125 315.829V315.826Z" fill="#FCE8C1"/>
<path d="M61.8304 316.569C60.843 315.503 59.7832 316.925 59.608 316.939C59.366 316.959 59.1101 316.939 58.8681 316.939C57.1964 316.928 57.5608 316.143 57.0156 315.829C58.9237 315.467 61.0349 314.46 62.9403 314.348C64.6259 314.248 67.1876 314.078 68.125 315.829C65.8247 315.258 62.9736 313.858 61.8304 316.569Z" fill="#744915"/>
<path d="M63.3115 359.542C63.2447 359.498 62.4437 360.241 62.2017 359.356C61.9096 358.293 62.146 352.743 62.2017 351.204C62.5354 341.839 63.84 330.654 64.794 321.197C64.9526 319.622 64.9971 317.568 65.9039 316.196C66.4769 316.307 66.9386 316.007 67.3836 316.753C66.3739 331.074 65.9317 345.969 63.3115 359.542Z" fill="#F8B87A"/>
<path d="M34.4367 298.785C34 299.361 32.8039 299.86 32.5842 300.823C31.0988 307.388 32.6203 328.372 32.5842 336.574C32.5564 342.588 31.8026 348.719 32.2142 354.727H31.4744C31.2574 338.839 29.8861 315.453 27.4022 299.899C27.2242 298.791 27.7833 298.844 27.7722 298.788C29.608 300.33 34.4005 297.227 36.6591 296.194C35.8775 297.054 35.1487 297.853 34.4367 298.788V298.785Z" fill="#4C2309"/>
<path d="M20.7358 350.28L17.7734 349.54C17.6093 347.7 17.1893 345.805 17.0336 343.982C15.6011 327.367 13.9461 310.736 12.2188 294.154C12.6666 293.409 13.1339 293.712 13.6985 293.598C14.3716 293.99 17.5203 296.539 17.7707 296.562C18.0293 299.222 16.9112 296.629 16.2909 298.415C16.1908 298.702 16.2992 299.464 16.2909 299.896C15.4982 303.928 15.5788 310.201 15.9209 314.529C16.7721 325.327 18.9472 339.482 20.7358 350.28Z" fill="#CA8321"/>
<path d="M27.4021 299.896C26.6872 299.348 26.2672 296.083 25.736 295.821C25.3577 295.635 23.6554 295.936 22.96 295.821C21.9169 295.652 21.2327 295.81 20.3676 295.821C17.2106 295.863 19.3134 296.144 18.1452 296.562C18.059 296.592 17.8726 296.57 17.7753 296.562C17.5249 296.539 14.3763 293.99 13.7031 293.598C14.2483 293.489 22.6791 292.774 23.1436 292.858C24.7875 293.147 27.4494 297.202 27.772 298.785C27.7832 298.844 27.2241 298.791 27.4021 299.896Z" fill="#744915"/>
<path d="M25.9166 355.838C26.4645 354.04 25.7525 342.791 25.5466 340.094C25.516 339.707 24.4451 339.485 24.4368 339.354C24.2977 337.378 24.9069 334.918 24.8067 333.426C24.7956 333.267 24.1141 333.045 24.0669 332.316C24.0502 332.068 24.8957 332.494 24.8067 331.205C24.7873 330.918 24.0835 331.122 24.0669 330.835C23.9862 329.591 24.498 327.028 24.4368 325.277C24.4201 324.804 24.4396 324.657 24.4368 324.537C24.4006 323.101 23.9639 321.298 23.327 320.092C25.032 312.033 23.3019 303.887 22.957 295.827C23.6524 295.941 25.3547 295.641 25.733 295.827C26.2643 296.089 26.6843 299.353 27.3991 299.901C29.883 315.459 31.2543 338.842 31.4713 354.73C31.4796 355.359 32.0387 357.413 31.2849 357.694C29.2933 357.934 27.3018 357.36 25.9166 355.841V355.838Z" fill="#AC112E"/>
<path d="M25.918 355.838C25.548 357.054 24.4493 357.115 23.6955 356.208C24.2797 354.864 24.1322 353.03 24.0655 351.577C24.0516 351.293 23.3451 351.494 23.3256 351.207C23.3089 350.962 24.1406 351.388 24.0655 350.096C24.0043 349.042 22.964 347.645 22.9557 347.503C22.9473 347.35 23.8068 347.172 23.6955 344.909C23.69 344.798 22.5913 343.17 22.5857 343.055C22.544 342.223 23.3395 342.599 23.3256 342.315C22.8945 333.638 21.9571 325.639 21.4731 317.123C21.0753 310.121 22.3854 302.696 20.3633 295.821C21.2283 295.81 21.9126 295.652 22.9557 295.821C23.3006 303.881 25.0334 312.027 23.3256 320.087C23.9626 321.292 24.3993 323.095 24.4354 324.531C24.4382 324.651 24.4187 324.799 24.4354 325.272C24.4966 327.022 23.9848 329.583 24.0655 330.829C24.0849 331.116 24.7859 330.913 24.8054 331.2C24.8944 332.491 24.0488 332.062 24.0655 332.31C24.1155 333.039 24.7942 333.262 24.8054 333.42C24.9055 334.912 24.2963 337.372 24.4354 339.348C24.4438 339.482 25.5174 339.702 25.5452 340.089C25.7511 342.785 26.4631 354.035 25.9152 355.832L25.918 355.838Z" fill="#E4775B"/>
<path d="M23.6964 356.208C22.6506 354.95 23.0623 350.291 22.9566 348.613L21.8467 352.874C21.6492 352.125 21.4851 352.173 21.4768 352.134L18.1445 296.565C19.3128 296.147 17.2072 295.866 20.367 295.824C22.3891 302.698 21.079 310.124 21.4768 317.126C21.9608 325.642 22.8954 333.64 23.3293 342.318C23.3432 342.605 22.5449 342.226 22.5894 343.058C22.595 343.169 23.6937 344.8 23.6992 344.912C23.8105 347.174 22.951 347.352 22.9593 347.505C22.9677 347.647 24.008 349.042 24.0692 350.099C24.1443 351.393 23.3098 350.965 23.3293 351.21C23.3487 351.496 24.058 351.296 24.0692 351.58C24.1359 353.03 24.2833 354.867 23.6992 356.211L23.6964 356.208Z" fill="#90212E"/>
<path d="M18.1434 355.838C18.0126 353.759 17.9598 351.61 17.7734 349.54L20.7358 350.28C20.9722 351.713 21.4534 352.036 21.4756 352.134C21.484 352.175 21.6481 352.128 21.8456 352.874C23.2502 358.195 20.9555 355.593 18.1434 355.838Z" fill="#9B6414"/>
<path d="M21.4742 352.134C21.452 352.036 20.9708 351.716 20.7344 350.28C18.9458 339.482 16.7735 325.33 15.9196 314.529C15.5774 310.202 15.4968 303.928 16.2895 299.896C16.1782 305.011 17.1712 314.023 17.7693 319.347C18.1503 322.736 19.5021 326.499 19.249 330.089C19.4354 330.482 19.9778 329.399 19.9889 329.349C20.6231 326.229 18.4396 315.823 18.1364 311.938C17.8165 307.841 19.427 300.683 16.2839 298.415C16.9042 296.631 18.0224 299.222 17.7637 296.562C17.8611 296.57 18.0502 296.592 18.1336 296.562L21.4659 352.131L21.4742 352.134Z" fill="#DF9A41"/>
<path d="M16.2927 299.896C16.3011 299.462 16.1926 298.699 16.2927 298.415C19.433 300.681 17.8253 307.841 18.1452 311.938C18.4484 315.823 20.6319 326.229 19.9977 329.349C19.9866 329.399 19.4442 330.482 19.2578 330.089C19.5109 326.499 18.1591 322.736 17.778 319.347C17.18 314.023 16.187 305.011 16.2983 299.896H16.2927Z" fill="#F2C67D"/>
<path d="M43.6926 301.749C43.5702 301.733 43.4422 301.766 43.3226 301.749C41.3144 301.46 39.1615 301.223 37.2144 300.639C36.6498 300.469 34.0046 299.785 34.4385 298.785C35.1478 297.85 35.8765 297.054 36.6609 296.192C41.306 294.068 40.3575 292.22 44.0653 297.302C45.4255 299.167 47.6423 300.931 43.6954 301.747L43.6926 301.749Z" fill="#CA8851"/>
<path d="M49.2472 302.12H48.1374C47.0721 302.12 45.8343 302.228 44.8051 302.12C43.9484 302.03 43.7537 301.758 43.6953 301.749C47.6423 300.934 45.4282 299.17 44.0653 297.305L44.4352 296.935C46.5909 299.311 48.8967 298.894 49.25 302.122L49.2472 302.12Z" fill="#D5A478"/>
<path d="M49.6167 327.312C48.2037 325.948 47.2997 325.611 45.1746 325.831C45.1468 317.941 45.5001 309.987 44.8047 302.122C45.8338 302.231 47.0716 302.122 48.1369 302.122L49.6167 322.127C49.6417 323.85 49.5917 325.589 49.6167 327.314V327.312Z" fill="#E7A816"/>
<path d="M36.6574 348.8V358.062C35.9676 358.067 32.5741 358.184 32.3989 358.062C32.0206 357.792 32.2571 355.37 32.2125 354.728C31.8009 348.719 32.5547 342.591 32.5825 336.574C33.2751 335.995 36.5712 338.029 36.6546 338.241C36.9606 338.995 36.6546 347.141 36.6546 348.8H36.6574Z" fill="#5B3F00"/>
<path d="M49.6152 339.538L45.1731 340.278C45.1369 335.469 45.1898 330.64 45.1731 325.828C47.301 325.608 48.2022 325.945 49.6152 327.309C49.6736 331.378 49.5623 335.466 49.6152 339.535V339.538Z" fill="#E7A816"/>
<path d="M45.542 348.8C45.5754 352.111 45.3668 355.496 45.1721 358.802C44.1096 358.504 42.933 358.254 41.8398 358.062C42.1875 355.59 41.9567 350.717 41.8398 348.059L43.6923 348.986C42.6771 347.308 43.0415 346.211 42.9525 344.355C45.2639 344.75 42.8607 341.366 45.1749 341.761C45.1832 342.685 45.5448 343.167 45.5448 343.242C45.5615 345.087 45.5281 346.952 45.5448 348.8H45.542Z" fill="#846F1E"/>
<path d="M49.9839 349.91C50.0395 352.12 49.2663 357.154 49.614 358.802C47.0466 360.138 47.1217 359.347 45.1719 358.802C45.3666 355.496 45.5752 352.111 45.5418 348.8H49.9839C49.9922 349.167 49.9756 349.543 49.9839 349.91Z" fill="#674F0A"/>
<path d="M36.6562 358.062V348.8L39.9885 349.54C39.9885 352.42 39.8522 355.365 39.6186 358.245C38.7535 358.952 37.168 358.056 36.6562 358.059V358.062Z" fill="#725E0E"/>
<path d="M39.991 348.057C39.991 346.954 39.6182 340.907 40.9172 341.018C41.8574 342.966 41.7433 345.827 41.8434 348.057C41.9603 350.714 42.1911 355.59 41.8434 358.059C41.7683 358.596 42.1605 358.76 41.2871 359.539C40.2246 359.506 39.991 349.704 39.991 348.054V348.057Z" fill="#5B3F00"/>
<path d="M49.986 348.8H45.5439C45.5272 346.954 45.5606 345.09 45.5439 343.242L49.616 342.872C49.6466 344.878 49.9359 346.84 49.986 348.8Z" fill="#7F5D00"/>
<path d="M49.6148 342.872L45.5426 343.242C45.5426 343.167 45.181 342.682 45.1727 341.761C45.1699 341.271 45.1755 340.77 45.1727 340.281L49.6148 339.54C49.6287 340.648 49.5981 341.767 49.6148 342.874V342.872Z" fill="#A67B23"/>
<path d="M49.6165 322.124L48.1367 302.12H49.2465C49.9419 308.493 49.5219 315.667 49.6165 322.124Z" fill="#EEB813"/>
<path d="M41.8388 348.057C41.7414 345.827 41.8527 342.966 40.9125 341.018C39.6135 340.907 39.9863 346.954 39.9863 348.057V349.537L36.654 348.797C36.654 347.138 36.96 338.995 36.654 338.238C36.5678 338.026 33.2717 335.992 32.5819 336.571C32.618 328.369 31.0965 307.385 32.5819 300.82C32.7988 299.854 33.9949 299.356 34.4344 298.783C34.0004 299.782 36.6457 300.464 37.2103 300.636C39.1602 301.223 41.3131 301.46 43.3185 301.747C42.5341 302.462 41.7275 302.498 41.466 303.784C40.4397 308.841 41.0266 330.707 41.466 336.755C41.5773 338.294 42.7984 341.26 42.9458 344.35C43.0348 346.206 42.6732 347.302 43.6857 348.981L41.8332 348.054L41.8388 348.057Z" fill="#9B6E00"/>
<path d="M39.9885 308.418C38.4976 308.245 38.9899 308.718 38.8787 309.714C38.0581 317.084 38.8564 329.335 38.8787 337.314C38.8787 338.085 39.855 339.746 39.435 339.908C37.3572 340.704 38.3168 336.718 36.659 337.5L36.2891 302.676L37.2153 301.749C37.6854 303.659 38.9621 302.42 39.0678 302.49C40.5476 303.508 38.8703 305.699 38.8814 307.491C40.2499 308.128 39.2792 305.401 39.8077 305.454C40.1276 305.484 39.9774 307.911 39.994 308.418H39.9885Z" fill="#FAD13B"/>
<path d="M38.8775 337.314C38.8552 329.332 38.0569 317.084 38.8775 309.714C38.9888 308.718 38.4964 308.245 39.9873 308.418C40.2377 316.391 40.8607 329.165 39.9873 336.757C39.9567 337.013 39.5367 338.739 38.8775 337.314Z" fill="#E7A816"/>
<path d="M45.1709 325.828C45.1875 330.637 45.1347 335.466 45.1709 340.278C45.1736 340.768 45.1681 341.269 45.1709 341.759C42.8594 341.363 45.2626 344.747 42.9484 344.352C42.801 341.263 41.5799 338.296 41.4687 336.757C41.0292 330.71 40.4423 308.843 41.4687 303.787C41.7301 302.501 42.534 302.465 43.3211 301.749C43.4408 301.766 43.5687 301.733 43.6911 301.749C43.7495 301.758 43.9442 302.03 44.8009 302.12C45.4991 309.987 45.143 317.941 45.1709 325.828Z" fill="#FAD13B"/>
<path d="M44.0607 303.046L43.8743 338.424L42.5781 303.046H44.0607Z" fill="#FFF46A"/>
<path d="M54.4287 158.932C51.3913 158.979 48.3733 158.403 45.3581 158.191C44.7267 158.147 43.5084 157.871 43.692 158.932C43.0439 158.848 42.4376 158.072 41.4696 158.932C37.9816 157.226 30.9443 157.348 27.028 157.451C24.8945 157.507 22.5247 158.008 20.3634 158.191C19.8322 130.89 20.0074 103.571 19.9935 76.3168C19.9935 70.8898 20.0018 65.4434 19.9935 60.0165C19.9601 40.0175 20.0185 19.999 19.9935 0H54.4287C54.4926 35.0636 54.3424 70.1495 54.4287 105.213C54.4676 120.954 52.5595 144.179 54.4287 158.932Z" fill="url(#paint0_linear_5195_343430)"/>
<path d="M85.1632 164.86L84.7932 165.6C82.3094 164.356 77.9785 163.554 75.1664 163.376C75.1664 163.254 75.1636 163.128 75.1664 163.006C75.1915 162.16 75.1247 161.23 75.1664 160.412C77.514 113.334 75.1664 62.3681 75.1664 14.817V0H85.1632V164.86Z" fill="#8DA7B8"/>
<path d="M16.2911 191.532H15.9212C12.664 191.532 4.04688 188.816 3.33203 185.048V0H4.07191L4.62822 108.177L5.18452 0H9.25666C9.42355 7.51702 9.03414 15.0841 9.25666 22.5984V159.858C10.0021 159.549 14.2411 159.104 14.4414 158.932V160.785C13.5541 160.679 8.83665 160.24 8.88672 161.342C8.9201 162.029 10.5028 161.77 10.7392 162.082C11.2816 162.808 9.67945 164.612 9.62938 165.046C9.45971 166.488 9.72674 168.188 9.62938 169.677C9.4458 172.449 9.10368 175.207 9.25944 178.012C9.43468 178.293 13.7961 177.636 14.4442 177.456L15.1841 179.309C14.2856 179.323 14.0464 179.604 13.7043 179.679C12.8059 179.88 11.1843 179.952 10.742 180.976C10.2997 182 11.4735 185.115 12.4081 185.237C12.5639 185.256 14.7557 183.893 15.1841 183.756C15.7904 183.562 16.3801 183.411 17.0366 183.386C16.6388 185.613 12.9895 185.465 12.7781 185.61C12.4387 185.841 11.6961 188.142 10.372 188.387C10.3109 188.941 17.7904 193.185 16.1103 188.574L16.2967 191.538L16.2911 191.532Z" fill="#2F576D"/>
<path d="M59.9845 25.9325C59.9845 51.7341 60.0262 77.558 59.9845 103.36L55.3561 102.249L54.4298 105.213C54.3436 70.1495 54.4938 35.0636 54.4298 0H59.9845V25.9325Z" fill="#51779A"/>
<path d="M92.1966 168.934C91.1535 169.396 90.3719 168.299 89.9742 168.194C89.8796 166.783 88.6529 166.321 88.4944 164.673C86.564 144.666 89.5375 117.345 89.6042 96.5078C89.7071 64.3525 88.8004 32.1693 89.2343 0H92.1966C90.995 56.2371 93.7987 112.722 92.1966 168.934Z" fill="#51779A"/>
<path d="M89.9749 168.194C88.943 167.912 88.9207 168.578 88.8651 168.564C88.7093 168.525 87.3965 167.476 86.6427 167.453C86.7651 166.602 86.0502 166.365 85.5329 165.973C85.4995 165.948 84.9821 165.697 84.793 165.603L85.1629 164.862L86.6427 163.565L86.2727 0H89.2351C88.8011 32.1693 89.7107 64.3524 89.605 96.5078C89.5382 117.347 86.562 144.668 88.4952 164.673C88.6537 166.321 89.8831 166.783 89.9749 168.194Z" fill="#7794AA"/>
<path d="M71.8315 14.8197C71.8315 62.972 72.1402 111.163 71.4615 159.302C71.0109 159.188 70.3128 159.38 69.7954 159.302C69.2892 139.865 69.6285 120 69.609 100.396C69.584 72.8658 69.5284 45.3108 69.609 17.7809C69.6257 11.8613 69.3503 5.89447 69.979 -0.00280762H71.8315V14.8169V14.8197Z" fill="#D1DDF5"/>
<path d="M19.9939 60.0165C12.5533 59.0396 16.2305 62.0314 14.8092 67.0548C14.7897 62.3208 14.4642 57.6731 14.4392 52.9781C14.4337 51.8705 14.4448 50.7517 14.4392 49.644C14.3474 33.1044 14.5088 16.5424 14.4392 0H19.9939C20.0189 19.999 19.9605 40.0175 19.9939 60.0165Z" fill="#0D274A"/>
<path d="M85.1602 164.859V0H86.27L86.6399 163.563L85.1602 164.859Z" fill="#51779A"/>
<path d="M14.4401 52.9782C10.9855 52.4911 12.888 54.0301 11.8477 56.1258C10.7991 50.632 11.539 44.3229 11.1079 39.0852C11.0773 38.6983 9.65591 38.3588 9.6281 37.9747C9.25816 32.9792 9.40836 27.6357 9.25816 22.6012C9.03564 15.0869 9.42505 7.51982 9.25816 0.00280762H12.2205C11.2998 4.02153 12.5431 7.05784 12.5904 11.302C12.6127 13.2557 11.8617 15.3792 11.8505 17.2299C11.8366 19.537 13.0299 22.3006 12.5904 24.6384C12.5237 25.0002 11.5752 24.6439 11.4806 25.0085C11.0856 26.4974 12.2149 27.1041 12.2205 27.2322C12.4764 33.2714 11.9201 39.3356 12.5904 45.386C10.1983 46.4519 11.1329 50.3036 14.4429 49.6468C14.4485 50.7545 14.4373 51.8733 14.4429 52.9809L14.4401 52.9782Z" fill="#2F576D"/>
<path d="M65.1691 17.4108C65.1691 19.011 65.1691 20.6252 65.1691 22.2282C60.6853 22.295 60.4016 21.0566 59.9844 25.9325V0H65.1691V17.4108Z" fill="#51779A"/>
<path d="M14.4425 49.644C11.1353 50.3008 10.2007 46.4491 12.59 45.3832C11.9197 39.3328 12.476 33.2714 12.2201 27.2294C12.2145 27.1041 11.0852 26.4946 11.4802 25.0057C11.5775 24.6411 12.5233 24.9973 12.59 24.6356C13.0267 22.2978 11.8362 19.5314 11.8501 17.2271C11.8613 15.3763 12.6123 13.2529 12.59 11.2992C12.5427 7.05503 11.2994 4.01872 12.2201 0H14.4425C14.512 16.5397 14.3507 33.1016 14.4425 49.644Z" fill="#244C72"/>
<path d="M4.07031 0H5.18292L4.62662 108.177L4.07031 0Z" fill="#4E7584"/>
<path d="M69.6101 17.7837L65.168 17.4135V0H69.9828C69.3542 5.89728 69.6295 11.8641 69.6128 17.7837H69.6101Z" fill="#80A2DA"/>
<path d="M75.1643 0H71.832V14.8197H75.1643V0Z" fill="#80A2DA"/>
<path d="M91.8255 178.936C91.1023 180.723 90.6684 180.005 89.2332 179.306C89.2332 179.061 89.2304 178.811 89.2332 178.566C89.2471 177.378 89.2777 176.031 89.2332 174.862C89.1525 172.749 88.7381 170.687 88.8632 168.564C88.9189 168.578 88.9411 167.912 89.973 168.194C90.368 168.302 91.1524 169.396 92.1955 168.934C92.1009 172.254 92.1037 175.627 91.8255 178.936Z" fill="#446689"/>
<path d="M20.3652 158.191C20.2428 158.202 20.1176 158.18 19.9953 158.191C18.2679 158.347 16.5629 158.692 14.8105 158.561C14.7271 128.808 14.9218 99.032 14.8105 69.2784C16.2291 74.3046 12.5547 77.2936 19.9953 76.3168C20.0092 103.571 19.8367 130.887 20.3652 158.191Z" fill="#4F5461"/>
<path d="M57.02 160.412C56.2606 160.237 55.4039 160.07 54.614 160.042C54.2691 159.792 54.4749 159.296 54.4276 158.932C52.5584 144.179 54.4666 120.954 54.4276 105.213L55.3539 102.249L59.9823 103.36C59.9823 103.975 59.9823 104.598 59.9823 105.213C59.9573 119.755 62.1241 145.119 60.3523 158.191C59.974 160.985 57.6208 158.589 57.02 160.415V160.412Z" fill="#7794AA"/>
<path d="M75.165 164.859C72.3862 163.568 63.3435 162.808 59.9834 162.636C58.3229 162.552 56.6957 162.021 54.9851 162.266C54.6068 162.536 54.8376 165.959 54.7987 166.71C53.394 167.297 51.4915 167.147 49.9839 167.08C46.5905 166.933 42.9995 166.309 39.6172 166.34V162.266C40.9662 162.21 42.3431 162.33 43.6893 162.266C45.8339 162.163 48.0174 162.341 50.1703 162.266C50.2287 158.907 46.4208 159.277 43.6893 158.932C43.5058 157.871 44.7241 158.147 45.3555 158.191C48.3706 158.406 51.3913 158.979 54.426 158.932C54.4733 159.296 54.2674 159.792 54.6123 160.042C55.4023 160.07 56.259 160.237 57.0184 160.412C59.1963 160.913 62.0779 160.507 63.8692 160.782C67.5992 161.356 71.3543 162.73 75.1622 163.006C75.1594 163.128 75.1622 163.254 75.1622 163.376V164.857L75.165 164.859Z" fill="#2F576D"/>
<path d="M19.9933 76.3168C12.5528 77.2936 16.2299 74.3018 14.8086 69.2784C14.8086 68.5409 14.8114 67.7923 14.8086 67.0548C16.2272 62.0286 12.5528 59.0396 19.9933 60.0164C20.0017 65.4434 19.9933 70.8898 19.9933 76.3168Z" fill="#2B3644"/>
<path d="M43.6925 162.266C42.3463 162.33 40.9694 162.21 39.6204 162.266C36.8528 162.383 29.4234 162.302 27.4012 163.006L27.0312 157.448C30.9448 157.345 37.9821 157.223 41.4729 158.929C42.7496 159.555 44.6049 160.54 43.6953 162.263L43.6925 162.266Z" fill="#172E3B"/>
<path d="M24.4375 166.71C23.5836 167.567 20.6546 167.317 19.6227 167.821C19.7312 166.532 20.574 165.761 18.8828 165.967C18.9857 165.867 19.1832 165.675 19.2528 165.597C20.7075 163.936 20.065 164.445 19.9926 161.893C19.9593 160.663 20.0177 159.419 19.9926 158.189C20.115 158.177 20.2402 158.2 20.3626 158.189C22.5238 158.005 24.8937 157.504 27.0271 157.448L27.397 163.006C24.902 163.874 25.1635 165.976 24.4347 166.71H24.4375Z" fill="#2B3644"/>
<path d="M43.6912 162.266C44.6007 160.54 42.7482 159.558 41.4688 158.932C42.4367 158.072 43.0403 158.848 43.6912 158.932C46.4226 159.277 50.2305 158.907 50.1721 162.266C48.0192 162.341 45.8385 162.163 43.6912 162.266Z" fill="#224459"/>
<path d="M75.1631 160.412C74.1117 159.438 72.7237 159.619 71.4609 159.302C72.1396 111.163 71.8309 62.9692 71.8309 14.8197H75.1631C75.1631 62.3709 77.5107 113.337 75.1631 160.415V160.412Z" fill="#ACC2E3"/>
<path d="M75.1634 163.006C71.3527 162.733 67.6004 161.356 63.8704 160.782C62.0819 160.507 59.1975 160.913 57.0195 160.412C57.6203 158.589 59.9735 160.983 60.3518 158.189L64.4239 158.375L64.7939 105.213C64.8523 96.6998 64.7438 88.1642 64.7939 79.6509L65.1638 100.582L69.6059 100.396C69.6226 119.997 69.286 139.862 69.7923 159.302C70.3096 159.38 71.0078 159.188 71.4584 159.302C72.7212 159.619 74.1119 159.438 75.1606 160.412C75.1189 161.23 75.1856 162.16 75.1606 163.006H75.1634Z" fill="#D1DDF5"/>
<path d="M75.5343 165.23C75.0392 165.004 75.1866 164.871 75.1644 164.859V163.379C77.9765 163.554 82.3073 164.359 84.7912 165.603C84.9831 165.697 85.4977 165.948 85.5311 165.973C86.0651 170.008 83.7314 167.503 82.7551 167.453C81.726 167.4 78.0544 167.67 77.5704 167.453C77.4341 167.392 77.3785 166.076 75.5343 165.23Z" fill="#51779A"/>
<path d="M14.8125 67.0548C14.8153 67.7923 14.8125 68.541 14.8125 69.2785C14.9238 99.0321 14.7291 128.808 14.8125 158.561C14.8793 158.984 14.4815 158.898 14.4426 158.932C14.2423 159.101 10.0033 159.547 9.25781 159.858V22.5984C9.40801 27.6357 9.25781 32.9792 9.62775 37.972C9.65557 38.356 11.0769 38.6983 11.1075 39.0824C11.5387 44.3201 10.8016 50.6293 11.8474 56.123C12.8877 54.0274 10.9851 52.4883 14.4398 52.9754C14.4648 57.6732 14.7902 62.3209 14.8097 67.052L14.8125 67.0548Z" fill="#5B6877"/>
<path d="M45.1721 178.936C42.0707 178.969 38.566 178.75 35.5452 178.936C34.0683 179.028 32.7832 179.554 31.4731 179.676C31.3507 179.688 31.2256 179.665 31.1032 179.676C28.7278 179.913 27.8182 179.971 25.5485 180.417C25.4205 180.442 24.3413 180.261 23.696 180.417C21.6265 180.92 22.1717 181.221 21.4736 181.527C21.2677 181.616 21.2065 180.968 19.9938 181.897C20.717 179.596 16.7116 179.281 15.179 179.303L14.4391 177.45C14.9704 177.302 16.3194 177.11 16.2916 176.523C13.3237 176.943 13.8633 175.663 13.6992 175.596C14.581 175.343 14.3974 174.792 14.4391 174.116C15.7436 175.026 17.7129 173.676 19.6238 173.376C19.6795 173.854 20.169 174.892 20.1802 175.599C20.5835 175.928 26.4107 174.224 27.401 174.119C31.6789 173.657 36.0598 173.646 40.3601 173.378C42.2153 173.261 44.5295 173.81 45.9147 173.748L46.2847 178.936C45.9175 178.936 45.542 178.933 45.1749 178.936H45.1721Z" fill="#1C2029"/>
<path d="M19.2516 165.6C19.1821 165.68 18.9846 165.87 18.8817 165.97C18.1807 166.655 13.7943 168.948 13.6969 169.49C13.6552 169.721 14.4396 170 14.4368 170.047C14.384 171.394 14.523 172.78 14.4368 174.121C14.3923 174.801 14.5787 175.352 13.6969 175.602C13.6107 175.566 12.423 176.326 11.8444 175.416C11.0267 174.127 12.1615 170.495 9.62201 169.674C9.71936 168.185 9.45234 166.485 9.62201 165.043C9.67208 164.609 11.277 162.806 10.7318 162.079C10.4982 161.765 8.91272 162.024 8.87935 161.339C8.8265 160.237 13.5467 160.677 14.434 160.782C14.5564 160.796 14.6844 160.763 14.804 160.782C12.8041 167.707 17.032 163 19.2461 165.6H19.2516Z" fill="#5B6877"/>
<path d="M16.6621 191.532H16.2922L16.1058 188.568C17.7831 193.18 10.3064 188.938 10.3676 188.382C11.6916 188.137 12.437 185.835 12.7736 185.604C12.985 185.46 16.6343 185.604 17.0321 183.381C17.3992 183.367 17.7747 183.389 18.1419 183.381C17.1962 185.159 17.007 189.359 16.6621 191.532Z" fill="#172528"/>
<path d="M14.4431 177.456C13.7977 177.636 9.43632 178.293 9.25831 178.012C9.10254 175.207 9.44467 172.449 9.62825 169.677C12.165 170.498 11.0301 174.133 11.8507 175.418C12.4265 176.326 13.6169 175.569 13.7032 175.605C13.8673 175.672 13.3277 176.952 16.2955 176.532C16.3234 177.119 14.9743 177.311 14.4431 177.458V177.456Z" fill="#7E8998"/>
<path d="M19.9938 181.9C19.2706 182.454 18.731 182.273 18.1413 183.381C17.7741 183.389 17.3986 183.367 17.0315 183.381C16.3778 183.406 15.7881 183.556 15.179 183.751L13.6992 179.676C14.0413 179.601 14.2833 179.317 15.179 179.306C16.7116 179.284 20.7142 179.598 19.9938 181.9Z" fill="#303F41"/>
<path d="M19.9922 161.896C17.7475 162.611 16.4179 161.03 14.8074 160.785C14.6878 160.766 14.5599 160.799 14.4375 160.785V158.932C14.4764 158.898 14.8742 158.984 14.8074 158.561C16.557 158.692 18.2649 158.347 19.9922 158.191C20.0172 159.421 19.9588 160.665 19.9922 161.896Z" fill="#2B3644"/>
<path d="M13.6989 179.679L15.1786 183.754C14.7475 183.893 12.5584 185.256 12.4027 185.234C11.4681 185.114 10.2832 182.023 10.7365 180.973C11.1899 179.924 12.8004 179.877 13.6989 179.676V179.679Z" fill="#475D62"/>
<path d="M64.7953 79.6508C64.7452 88.1642 64.8537 96.6998 64.7953 105.213H59.9805C59.9805 104.598 59.9805 103.975 59.9805 103.36C60.0222 77.558 59.9805 51.7341 59.9805 25.9324C60.3977 21.0565 60.6814 22.295 65.1652 22.2282C65.1346 41.3616 64.9093 60.5146 64.7953 79.6508Z" fill="#778EB1"/>
<path d="M89.233 178.566C86.229 178.549 87.6726 175.602 86.0871 174.121L85.3472 177.456C84.841 176.779 85.4974 174.494 84.9773 174.121C84.5684 173.829 76.6689 172.338 75.1641 171.898C75.1029 171.878 75.3282 170.888 74.9777 170.787C74.0042 170.506 72.5411 170.281 71.4591 170.047C70.7971 169.902 69.5983 170.089 69.2367 170.047C67.6679 169.869 65.9823 169.602 64.4219 169.307C64.4803 168.778 64.5276 168.644 64.7918 168.196C66.4051 168.528 67.9822 168.706 69.6066 168.937C70.2825 169.031 74.7524 170.228 74.9749 170.047L75.5312 165.23C77.3754 166.073 77.431 167.392 77.5673 167.453C78.0513 167.67 81.7201 167.4 82.7521 167.453C83.784 167.506 86.0648 170.008 85.528 165.973C86.0454 166.368 86.7602 166.602 86.6378 167.453C84.4015 170.264 85.8145 173.518 89.2302 174.862C89.2747 176.031 89.2441 177.378 89.2302 178.566H89.233Z" fill="#778EB1"/>
<path d="M89.2319 174.862C85.8162 173.518 84.4032 170.264 86.6395 167.453C87.3933 167.478 88.7034 168.525 88.862 168.564C88.7368 170.687 89.1512 172.749 89.2319 174.862Z" fill="#7794AA"/>
<path d="M69.6089 100.399L65.1668 100.585L64.7969 79.6537C64.9109 60.5147 65.1362 41.3645 65.1668 22.231C65.1668 20.6308 65.1668 19.0166 65.1668 17.4136L69.6089 17.7837C69.5282 45.3136 69.5839 72.8686 69.6089 100.399Z" fill="#ACC2E3"/>
<path d="M79.6066 191.532C79.1949 188.087 79.9598 187.029 76.2743 184.864C74.7667 183.979 73.8933 184.165 72.5721 183.754C70.9227 183.239 70.8086 183.784 70.7196 183.754C70.2663 183.6 69.9909 183.283 69.2399 183.013C68.8254 182.866 68.1773 182.785 67.7601 182.643C67.0341 182.395 65.7574 181.597 65.5377 181.533C65.1955 179.153 64.9925 175.031 67.7601 174.865C75.8098 176.434 83.8011 179.774 89.6061 185.607C87.7898 189.754 83.3255 190.31 79.6094 191.535L79.6066 191.532Z" fill="#47687D"/>
<path d="M65.5388 181.53C65.0798 181.391 64.5152 181.302 64.059 181.16C63.002 180.826 62.1898 180.01 61.0967 179.679C60.1343 179.387 59.5919 179.123 58.5043 178.939C58.1539 178.88 57.7533 178.978 57.3945 178.939C55.9036 178.775 54.8856 178.995 53.6923 178.939C53.5699 178.933 53.4448 178.944 53.3224 178.939C51.1723 178.85 48.8858 179.323 47.3977 179.309C47.3393 179.309 47.3505 178.936 46.2879 178.939L45.918 173.751C46.7719 173.712 47.8011 173.406 48.5103 173.381C54.9162 173.431 61.4527 173.632 67.764 174.862C64.9964 175.029 65.2022 179.15 65.5416 181.53H65.5388Z" fill="#224459"/>
<path d="M89.233 179.306C89.2163 180.815 89.2218 182.29 88.863 183.751C88.2205 183.216 84.6157 181.391 84.4209 180.603C84.3486 180.317 85.3249 178.316 84.6073 177.456C84.4126 177.222 79.6089 176.345 78.6827 175.975C77.6368 175.558 76.0069 174.467 75.1641 174.121V171.898C76.6661 172.338 84.5684 173.826 84.9773 174.121C85.4974 174.494 84.841 176.779 85.3472 177.456L86.0871 174.121C87.6725 175.602 86.2289 178.552 89.233 178.566C89.2302 178.811 89.233 179.061 89.233 179.306Z" fill="#7794AA"/>
<path d="M89.6036 185.604C83.7986 179.768 75.8073 176.431 67.7576 174.862C61.4463 173.632 54.9097 173.428 48.5039 173.381C49.6388 173.339 52.7262 172.287 54.7985 172.271C55.6858 172.262 58.1558 172.591 59.6133 172.641C60.865 172.685 62.5033 173.573 63.8718 173.381C64.7786 172.939 64.3836 170.565 64.4281 169.677C64.4337 169.554 64.4142 169.426 64.4281 169.307C65.9885 169.602 67.6713 169.869 69.2429 170.047C68.7923 173.651 70.3388 172.399 71.8353 173.011C73.0758 173.518 74.0688 173.676 75.1675 174.121C76.0103 174.464 77.6403 175.557 78.6861 175.975C79.6124 176.345 84.4133 177.222 84.6108 177.456C85.3312 178.316 84.3549 180.317 84.4244 180.603C84.6219 181.391 88.2267 183.216 88.8665 183.751C89.3672 184.168 89.9402 184.508 90.3463 185.048C90.2934 185.312 89.6231 185.56 89.6064 185.604H89.6036Z" fill="#A4B8CB"/>
<path d="M60.3545 158.191C62.1264 145.119 59.9596 119.757 59.9846 105.213H64.7994L64.4295 158.375L60.3573 158.188L60.3545 158.191Z" fill="#8DA7B8"/>
<path d="M40.3582 173.381C36.0552 173.651 31.6771 173.662 27.3991 174.121L26.8428 168.934L19.9919 170.044C19.9808 169.922 20.0086 169.794 19.9919 169.674C19.9112 169.048 19.761 168.992 19.622 168.564C20.3758 168.464 19.5914 168.191 19.622 167.823C20.6539 167.32 23.5828 167.57 24.4368 166.713C29.0791 168.04 34.428 166.387 39.6183 166.343C43.0006 166.312 46.5916 166.936 49.985 167.083L40.1718 168.194L40.3582 173.381Z" fill="#2B3644"/>
<path d="M54.7999 168.564V172.268C52.7276 172.285 49.6402 173.337 48.5053 173.378C47.796 173.403 46.7668 173.71 45.9129 173.749C44.5277 173.81 42.2163 173.261 40.3582 173.378L40.1719 168.191L49.9851 167.08C51.4899 167.144 53.3924 167.297 54.7999 166.71C54.7693 167.32 54.7999 167.951 54.7999 168.564Z" fill="#2F576D"/>
<path d="M39.6151 166.34C34.4248 166.385 29.0759 168.038 24.4336 166.71C25.1624 165.975 24.9009 163.874 27.3959 163.006C29.4181 162.302 36.8475 162.383 39.6151 162.266V166.34Z" fill="#2B3644"/>
<path d="M69.6112 168.934C70.39 163.961 67.7337 165.216 64.4265 164.489C63.2582 164.233 61.2694 162.836 59.9844 163.749V162.639C63.3444 162.811 72.3844 163.568 75.1659 164.862C75.1909 164.873 75.0407 165.007 75.5358 165.232L74.9795 170.05C74.757 170.231 70.2871 169.034 69.6112 168.939V168.934Z" fill="#D2E0EE"/>
<path d="M64.4241 169.304C64.4102 169.426 64.4297 169.552 64.4241 169.674C62.9694 169.193 61.4507 169.454 59.982 169.304C58.2797 169.129 56.5051 168.77 54.7973 168.564C54.7973 167.951 54.7667 167.32 54.7973 166.71C54.8335 165.959 54.6054 162.533 54.9837 162.266C56.6943 162.021 58.3215 162.552 59.982 162.636V163.746C59.982 169.137 59.8096 167.245 64.4241 168.191C64.5437 168.216 64.6772 168.166 64.7941 168.191C64.5298 168.639 64.4825 168.772 64.4241 169.301V169.304Z" fill="#5E86A5"/>
<path d="M19.2539 165.6C17.0398 163 12.8119 167.707 14.8118 160.782C16.4223 161.027 17.7491 162.608 19.9966 161.893C20.0689 164.445 20.7086 163.935 19.2567 165.597L19.2539 165.6Z" fill="#4F5461"/>
<path d="M19.6216 167.823C18.0444 168.594 19.5965 168.483 19.6216 168.564C19.7606 168.992 19.9108 169.051 19.9915 169.674L14.4368 170.044C14.4368 169.997 13.6552 169.719 13.6969 169.488C13.7915 168.945 18.1779 166.652 18.8817 165.967C20.5756 165.761 19.73 166.532 19.6216 167.821V167.823Z" fill="#2B3644"/>
<path d="M19.6217 173.381C19.6022 173.214 20.089 171.066 19.9916 170.047L26.8425 168.937L27.3988 174.124C26.4086 174.23 20.5813 175.933 20.178 175.605C20.1668 174.898 19.6773 173.86 19.6217 173.381Z" fill="#2B3644"/>
<path d="M19.6229 173.381C17.7148 173.682 15.7455 175.032 14.4381 174.121C14.5244 172.777 14.3853 171.394 14.4381 170.047L19.9928 169.677C20.0095 169.799 19.9817 169.925 19.9928 170.047C20.0902 171.066 19.6034 173.214 19.6229 173.381Z" fill="#4F5461"/>
<path d="M69.6105 168.934C67.9861 168.703 66.4118 168.525 64.7957 168.194C64.6761 168.169 64.5426 168.219 64.4258 168.194V164.489C67.733 165.216 70.3894 163.961 69.6105 168.934Z" fill="#ACC2E3"/>
<path d="M75.1631 171.898V174.121C74.0644 173.673 73.0714 173.518 71.8309 173.011L71.4609 170.047C72.5402 170.284 74.006 170.509 74.9796 170.787C75.33 170.888 75.1019 171.881 75.1659 171.898H75.1631Z" fill="#ACC2E3"/>
<path d="M71.832 173.008C70.3356 172.396 68.789 173.648 69.2396 170.044C69.6012 170.086 70.8001 169.9 71.4621 170.044L71.832 173.008Z" fill="#D1DDF5"/>
<path d="M59.6117 172.638C58.1542 172.585 55.6842 172.26 54.7969 172.268V168.564C56.5019 168.77 58.2793 169.131 59.9816 169.304L59.6117 172.638Z" fill="#7794AA"/>
<path d="M59.6122 172.638L59.9821 169.304C61.4507 169.454 62.9694 169.193 64.4242 169.674C64.3825 170.562 64.7747 172.939 63.8679 173.378C62.5022 173.568 60.8638 172.683 59.6094 172.638H59.6122Z" fill="#8DA7B8"/>
<path d="M19.6245 168.564C19.5995 168.483 18.0474 168.594 19.6245 167.823C19.5939 168.191 20.3783 168.464 19.6245 168.564Z" fill="#4F5461"/>
<path d="M64.4234 168.194C59.8061 167.245 59.9813 169.14 59.9813 163.749C61.2692 162.839 63.258 164.233 64.4234 164.489V168.194Z" fill="#7794AA"/>
<path d="M30.7337 188.938C30.0995 192.735 28.6781 197.869 29.2539 201.535C29.0453 204.716 28.9452 208.016 28.514 211.167C27.8743 215.834 27.3903 223.757 26.2916 228.95C26.1414 229.657 26.2777 230.005 25.9217 230.431C25.1901 229.805 24.4113 230.211 23.6992 230.061C24.9203 223.153 25.0538 216.082 25.9217 209.129C26.5364 204.203 28.0718 198.64 28.514 193.94C28.82 190.683 28.7671 187.216 28.884 183.937C28.2164 183.308 28.0217 184.255 27.7741 184.494C26.9452 185.293 26.4974 187.124 25.1818 187.458C25.4488 185.554 25.1345 182.501 25.5517 180.42C27.8214 179.974 28.731 179.916 31.1064 179.679C30.6308 182.777 30.7921 185.855 30.7365 188.941L30.7337 188.938Z" fill="#AC112E"/>
<path d="M9.25576 222.652C9.25576 223.167 10.0123 223.092 10.3656 223.022C11.392 225.11 4.95554 233.704 3.88465 233.765C3.66491 233.776 0.519019 232.076 -0.00390625 231.728C3.16146 228.767 5.89291 225.413 9.25298 222.652H9.25576Z" fill="#EEB813"/>
<path d="M15.1785 226.727C15.2954 226.685 15.4595 226.774 15.5485 226.727L15.1785 227.837C14.9755 227.759 12.3636 227.576 11.1064 227.097C10.6085 226.908 10.6808 226.827 10.7365 226.357C11.1843 225.366 11.0702 223.651 12.2162 222.466C12.0466 222.196 10.7031 222.956 10.3637 223.022C10.0105 223.092 9.25113 223.167 9.25391 222.652C10.1579 221.909 11.5153 222.093 12.2162 220.985L15.9184 191.532H16.6583C15.6514 197.847 11.7879 221.297 12.2162 225.43C12.4749 227.946 13.5541 227.32 15.1785 226.727Z" fill="#862318"/>
<path d="M15.1797 227.84L15.5496 226.729C18.1893 225.307 16.0475 225.466 17.7721 224.136C16.5565 226.501 17.9974 226.743 19.2518 227.84C20.9541 229.326 20.6426 228.733 22.2141 229.321C22.381 229.382 22.3171 229.769 23.6939 230.061C24.406 230.211 25.182 229.805 25.9163 230.431C25.3267 231.138 20.9819 232.908 20.1781 232.655C19.8359 232.546 18.6482 229.195 15.1797 227.837V227.84Z" fill="#9B6414"/>
<path d="M10.3669 229.321C9.81062 230.754 8.70358 231.397 7.77455 232.468C7.71892 232.532 6.1112 234.45 7.40461 234.135C6.65082 234.561 5.33238 234.469 5.18218 233.949C5.05423 233.495 9.89685 228.21 10.7369 226.354C10.6812 226.824 10.6089 226.905 11.1068 227.094C10.2223 227.943 10.531 228.399 10.3669 229.318V229.321Z" fill="#B06809"/>
<path d="M22.2162 229.321C20.6447 228.733 20.9562 229.323 19.2539 227.84C20.4806 217.047 22.1578 206.611 23.696 195.793C24.0826 193.069 24.778 190.311 25.1758 187.458C26.4914 187.124 26.9392 185.293 27.7681 184.494L22.2134 229.321H22.2162Z" fill="#ED2B58"/>
<path d="M25.1781 187.458C24.7803 190.311 24.085 193.071 23.6983 195.793C22.1601 206.611 20.4829 217.047 19.2562 227.84C17.999 226.743 16.561 226.501 17.7765 224.136L23.7011 180.42C24.3464 180.264 25.4257 180.445 25.5536 180.42C25.1364 182.501 25.4507 185.554 25.1837 187.458H25.1781Z" fill="#862318"/>
<path d="M23.6946 230.061C22.3178 229.769 22.379 229.382 22.2148 229.321L27.7695 184.494C28.0171 184.255 28.2118 183.311 28.8794 183.937C28.7625 187.216 28.8154 190.683 28.5094 193.94C28.0672 198.64 26.5318 204.201 25.917 209.129C25.0492 216.082 24.9157 223.153 23.6946 230.061Z" fill="#F95C7D"/>
<path d="M80.346 239.323C78.641 241.485 75.2725 239.902 75.1613 243.397C74.4019 243.606 74.1126 243.701 73.6815 242.841C72.4604 240.411 71.9403 233.871 71.4591 230.801C71.384 230.328 71.5314 229.791 71.4591 229.321C68.9752 213.271 66.6359 197.162 64.0547 181.16C64.5109 181.305 65.0783 181.391 65.5345 181.53C65.7542 181.597 67.0309 182.393 67.7569 182.64C68.519 187.937 68.8695 193.53 69.9793 198.757C70.0099 198.905 71.1364 199.575 71.4591 201.164C74.007 213.702 75.3337 226.49 77.3837 239.136L79.2362 238.766L70.7192 183.751C70.8082 183.781 70.9223 183.236 72.5717 183.751C71.3256 186.598 74.0375 186.656 73.6815 189.122L72.2017 188.012C72.0794 189.665 73.4034 191.493 73.6815 192.456C73.9597 193.419 73.2893 193.864 73.3116 193.937C73.3422 194.037 74.8442 194.173 74.7913 195.417C74.7274 196.984 73.701 196.096 73.6815 196.528C73.6287 197.585 74.3991 201.863 75.1613 199.492C75.3087 200.711 77.7759 207.437 74.9749 204.863C74.0236 206.316 76.1988 206.319 76.2711 206.53C76.5214 207.262 76.0486 209.024 76.2711 209.864C76.6967 211.478 79.2751 216.749 76.6411 216.532C78.5269 217.835 78.3183 220.398 77.7509 222.46L78.6771 221.534C78.7439 226.242 81.6283 232.785 81.0831 237.65C81.072 237.742 80.3989 239.245 80.3432 239.317L80.346 239.323Z" fill="#B09204"/>
<path d="M82.1987 243.027C82.3516 243.008 84.83 241.906 84.791 241.36L80.349 239.323C80.4046 239.25 81.0805 237.748 81.0888 237.656C81.634 232.794 78.7496 226.248 78.6828 221.539L77.7566 222.466C78.3212 220.404 78.5298 217.84 76.6468 216.538C79.2809 216.755 76.7024 211.484 76.2768 209.87C76.0543 209.029 76.5272 207.265 76.2768 206.536C76.2045 206.324 74.0321 206.321 74.9806 204.869C77.7788 207.443 75.3144 200.716 75.167 199.497C74.4021 201.869 73.6344 197.591 73.6872 196.533C73.7095 196.102 74.7331 196.987 74.7971 195.423C74.8471 194.176 73.3479 194.043 73.3173 193.942C73.295 193.87 73.9543 193.386 73.6872 192.462C73.4202 191.538 72.0823 189.67 72.2075 188.017L73.6872 189.128C74.0433 186.662 71.3285 186.604 72.5774 183.756C73.8986 184.171 74.772 183.982 76.2796 184.867L76.6495 187.274L77.3894 186.904C78.6634 189 75.9597 189.59 78.1293 190.978C77.8484 194.588 78.872 198.061 79.9818 201.351C78.2795 203.978 81.9428 207.206 80.7217 210.243C80.8719 211.651 81.8649 213.869 82.2014 216.171C82.2376 216.421 81.4226 216.29 81.4616 216.541C81.4783 216.647 82.4796 217.802 82.5714 218.394C82.6938 219.171 81.7926 218.881 81.8315 219.135C81.8899 219.519 83.7897 220.715 82.2014 220.988C83.6395 223.028 82.6326 223.849 82.9413 225.806C82.958 225.911 83.8926 226.646 84.0512 227.659C84.1735 228.433 83.2723 228.149 83.3113 228.399C83.3252 228.491 84.2737 228.962 84.4211 229.88C84.5463 230.654 83.6395 230.37 83.6812 230.62C83.6979 230.726 84.6297 231.464 84.791 232.474C84.8328 232.724 84.0094 232.593 84.0512 232.844C84.4016 235.02 86.2513 239.838 86.2736 241.736C86.2736 241.905 83.6478 241.185 86.6435 243.773C85.1415 243.155 82.8746 244.508 82.2014 243.033L82.1987 243.027Z" fill="#FFF46A"/>
<path d="M86.6413 243.77C83.6456 241.179 86.2741 241.903 86.2713 241.733C86.2491 239.835 84.3994 235.017 84.0489 232.841C84.01 232.591 84.8305 232.719 84.7888 232.471C84.6247 231.463 83.6956 230.726 83.679 230.617C83.6372 230.367 84.544 230.651 84.4188 229.877C84.2714 228.959 83.3229 228.486 83.309 228.397C83.2701 228.143 84.1741 228.43 84.0489 227.656C83.8876 226.646 82.9558 225.911 82.9391 225.803C82.6303 223.849 83.6372 223.028 82.1992 220.985C83.7874 220.715 81.8877 219.516 81.8292 219.132C81.7903 218.879 82.6915 219.165 82.5691 218.391C82.4746 217.801 81.476 216.646 81.4593 216.538C81.4204 216.287 82.2381 216.418 82.1992 216.168C81.8598 213.866 80.8696 211.648 80.7194 210.24C81.9405 207.204 78.2773 203.975 79.9795 201.348C78.8725 198.059 77.8489 194.585 78.1271 190.976C75.9547 189.584 78.6611 188.997 77.3872 186.901L76.6473 187.271L76.2773 184.864C79.9629 187.029 79.1979 188.087 79.6096 191.532C79.6152 191.588 79.4761 191.663 79.6096 192.643C81.8793 209.408 84.3521 226.184 87.3839 242.841L86.6441 243.767L86.6413 243.77Z" fill="#E7A816"/>
<path d="M82.1985 243.027C80.9774 243.183 78.4796 241.872 76.0903 242.287C75.8706 242.326 75.993 243.169 75.1641 243.397C75.2753 239.899 78.6437 241.485 80.3488 239.323L84.7909 241.36C84.8298 241.905 82.3515 243.008 82.1985 243.027Z" fill="#FCE8C1"/>
<path d="M71.4607 201.164L69.2383 183.011C69.9893 183.281 70.2647 183.601 70.7181 183.751L79.2351 238.766L77.3826 239.136C75.3326 226.49 74.0058 213.702 71.4579 201.164H71.4607Z" fill="#EEB813"/>
<path d="M71.46 201.164C71.1374 199.575 70.0108 198.905 69.9802 198.757C68.8704 193.531 68.5199 187.937 67.7578 182.64C68.175 182.782 68.8259 182.863 69.2376 183.011L71.46 201.164Z" fill="#CF9409"/>
<path d="M56.6503 231.174C56.5307 231.271 55.9577 231.892 55.9104 231.914C55.2011 232.234 54.3834 232.46 53.688 232.841C53.6518 230.829 51.8049 228.243 51.4655 227.1C49.9913 222.107 50.1332 216.521 49.6131 211.356C49.5741 210.961 48.506 210.746 48.5032 210.616C48.4977 210.44 49.7438 210.549 49.6131 209.135C49.0651 203.171 48.1277 197.151 47.7606 191.168C47.6549 189.456 47.844 187.697 47.7606 185.98C47.6493 183.74 47.4741 181.549 47.3906 179.312C48.8787 179.326 51.1651 178.853 53.3153 178.942L56.6475 231.177L56.6503 231.174Z" fill="#7D3740"/>
<path d="M71.4637 230.804C69.4443 231.182 58.6604 236 57.7647 235.435C57.5978 235.329 56.4129 232.382 55.9122 231.914C55.9595 231.892 56.5325 231.269 56.6521 231.174C56.7606 231.088 57.9678 230.868 58.1319 230.247L54.4297 182.27C54.4742 182.309 55.228 182.329 55.5395 182.64C54.4686 187.53 57.3475 222.11 58.5018 228.394C58.5436 228.622 58.9497 230.231 59.4281 230.061L61.8341 225.616C62.4182 228.769 61.5392 230.834 65.5363 229.691C66.1093 229.526 66.9855 229.994 67.3888 229.134C67.6697 228.533 65.7366 217.907 65.5363 215.981L67.7587 219.315C68.0508 221.742 67.6836 233.439 71.4609 229.318C71.5332 229.791 71.3858 230.328 71.4609 230.798L71.4637 230.804Z" fill="#4C2309"/>
<path d="M71.4605 229.32C67.6832 233.442 68.0503 221.745 67.7583 219.318C66.8459 211.734 66.0921 204.12 65.1659 196.533L63.6861 196.347C63.0964 190.631 63.077 184.221 61.0938 179.676C62.1869 180.008 62.9991 180.826 64.0561 181.157C66.6373 197.16 68.9766 213.268 71.4605 229.318V229.32Z" fill="#4C2309"/>
<path d="M56.6487 231.174L53.3164 178.939C53.4388 178.944 53.564 178.933 53.6863 178.939C54.5125 179.996 53.3247 181.271 54.4262 182.273L58.1284 230.25C57.9643 230.871 56.7571 231.09 56.6487 231.177V231.174Z" fill="#D09F5D"/>
<path d="M55.5392 182.64C55.9258 180.882 56.0371 180.28 57.3917 178.936C57.7505 178.975 58.151 178.878 58.5015 178.936C58.8492 179.763 58.5766 180.049 58.5015 180.79C57.4612 190.875 59.9201 215.272 61.8337 225.616L59.4277 230.061C58.9493 230.231 58.5432 228.622 58.5015 228.394C57.3472 222.11 54.4683 187.533 55.5392 182.64Z" fill="#D57A87"/>
<path d="M61.8335 225.616C59.9198 215.272 57.4609 190.873 58.5012 180.79C59.141 180.798 60.1395 179.983 60.7237 180.603C61.5359 181.469 63.3856 201.774 62.0198 204.128L61.0936 203.942C63.1686 211.027 62.1339 219.95 63.686 226.91C64.0225 228.419 64.0058 229.145 65.5385 229.688C61.5414 230.829 62.4176 228.764 61.8363 225.613L61.8335 225.616Z" fill="#FCCBCD"/>
<path d="M65.5372 229.691C64.0074 229.148 64.0213 228.419 63.6847 226.913C62.1354 219.953 63.1674 211.028 61.0924 203.945L62.0186 204.131C63.3843 201.777 61.5346 181.472 60.7224 180.606C60.1411 179.985 59.1397 180.798 58.5 180.792C58.5751 180.055 58.8477 179.768 58.5 178.939C59.5848 179.123 60.13 179.39 61.0924 179.679C63.0756 184.227 63.0951 190.636 63.6847 196.35C64.3579 202.884 64.8585 209.452 65.5372 215.984C65.7375 217.91 67.6707 228.536 67.3897 229.137C66.9892 229.994 66.1102 229.529 65.5372 229.693V229.691Z" fill="#F7AEBD"/>
<path d="M67.7585 219.318L65.5361 215.984C64.8574 209.452 64.3567 202.882 63.6836 196.35L65.1634 196.536C66.0868 204.123 66.8434 211.737 67.7557 219.321L67.7585 219.318Z" fill="#8E5516"/>
<path d="M55.5372 182.64C55.2229 182.329 54.4691 182.309 54.4274 182.27C53.3259 181.268 54.5136 179.994 53.6875 178.936C54.8808 178.992 55.8988 178.772 57.3897 178.936C56.0351 180.28 55.9238 180.882 55.5372 182.64Z" fill="#AA280E"/>
<path d="M15.1785 226.727C13.5541 227.319 12.4749 227.946 12.2162 225.43C11.7906 221.297 15.6541 197.847 16.6583 191.532C17.0032 189.361 17.1951 185.162 18.138 183.381C18.7277 182.27 19.2673 182.451 19.9905 181.9C21.2033 180.971 21.2672 181.619 21.4703 181.53L15.1757 226.727H15.1785Z" fill="#C93146"/>
<path d="M17.7721 224.136C16.0475 225.466 18.1893 225.307 15.5496 226.73C15.4606 226.777 15.2937 226.688 15.1797 226.73L21.4743 181.533C22.1724 181.227 21.6272 180.926 23.6967 180.422L17.7721 224.139V224.136Z" fill="#DA614A"/>
<path d="M51.4662 227.097C50.2618 226.802 48.8015 225.107 47.5777 225.243C46.8878 225.321 38.0983 231.836 36.0983 232.652C30.5242 234.931 28.2712 235.151 26.2852 228.948C27.3839 223.754 27.8678 215.831 28.5076 211.164C28.7023 214.036 26.2073 225.043 28.3212 226.354C30.4352 227.665 43.2635 225.655 45.1689 223.76C45.7947 223.137 46.1313 222.535 46.2787 221.723C47.4497 215.325 47.0241 203.491 47.3885 196.347C47.4747 194.633 47.3245 192.879 47.3885 191.159H47.7585C48.1256 197.143 49.063 203.163 49.611 209.127C49.7417 210.543 48.4956 210.432 48.5011 210.607C48.5039 210.738 49.572 210.952 49.611 211.348C50.1311 216.513 49.9865 222.099 51.4634 227.091L51.4662 227.097Z" fill="#4C2309"/>
<path d="M47.7633 191.162H47.3934L44.2475 189.682C43.8553 189.977 44.1474 191.042 44.0611 191.535C41.8415 190.831 45.0374 186.626 41.4688 186.718C41.6635 185.273 41.6662 183.896 41.8387 182.457C42.9569 181.719 44.0305 184.113 44.2447 184.124C45.0959 184.207 44.7176 183.509 44.801 183.013L47.7633 185.977C47.8468 187.692 47.6576 189.451 47.7633 191.165V191.162Z" fill="#674F0A"/>
<path d="M47.7631 185.977L44.8008 183.013C45.0122 181.736 44.5254 180.286 45.1707 178.939C45.5379 178.936 45.9134 178.939 46.2805 178.939C47.3459 178.936 47.332 179.309 47.3904 179.309C47.4738 181.549 47.6518 183.737 47.7603 185.977H47.7631Z" fill="#3A2700"/>
<path d="M45.173 223.763C42.4749 222.839 30.1473 227.492 28.8817 225.06C28.7092 224.731 28.5117 218.639 28.5117 217.651C28.5145 213.613 30.1528 207.785 30.3642 204.128C30.5756 200.471 30.9956 195.671 31.1041 192.273C31.5992 194.741 32.4058 194.596 34.8063 194.496C34.1081 201.34 32.1972 214.732 32.5839 220.985C32.6756 222.458 32.9288 222.527 33.5101 223.763C33.8828 223.318 35.9078 222.561 36.1025 222.282C37.9911 219.58 36.9119 198.891 38.5085 194.126L39.9883 194.496C39.5571 197.747 39.5849 201.034 39.6183 204.315L38.8784 203.575C38.6198 205.136 39.5126 206.541 39.6183 208.019C39.6378 208.289 38.8923 208.111 38.8784 208.389C38.8701 208.528 41.1927 210.195 38.5085 209.87L37.7686 223.576C37.9911 224.236 41.4986 223.507 41.6572 223.39C42.8838 222.488 43.4568 197.135 44.0632 193.01C43.6988 195.481 44.9254 196.709 47.3954 196.344C47.0311 203.491 47.4566 215.325 46.2856 221.72C46.1354 222.533 45.8016 223.137 45.1758 223.757L45.173 223.763Z" fill="#A67B23"/>
<path d="M28.5119 211.167C28.943 208.016 29.0431 204.716 29.2518 201.535C29.3213 201.977 30.0695 204.496 30.3616 204.128C30.1502 207.782 28.5147 213.613 28.5091 217.651C28.5091 218.642 28.7094 224.731 28.879 225.06C30.1474 227.492 42.4751 222.839 45.1704 223.763C43.265 225.655 30.5313 227.726 28.3227 226.357C26.1142 224.987 28.7038 214.042 28.5091 211.167H28.5119Z" fill="#F2C67D"/>
<path d="M47.3954 196.35C44.9254 196.714 43.6987 195.487 44.0631 193.016C44.1327 192.542 43.9825 192.003 44.0631 191.535C44.1466 191.042 43.8573 189.977 44.2495 189.682L47.3954 191.162C47.3314 192.879 47.4816 194.633 47.3954 196.35Z" fill="#7F5D00"/>
<path d="M44.8007 183.013C44.7201 183.509 45.0956 184.21 44.2444 184.124C44.0275 184.113 42.9538 181.719 41.8384 182.457C41.666 183.893 41.6632 185.273 41.4685 186.718C41.0206 190.052 40.3503 191.774 39.9887 194.496L38.5089 194.126C37.452 193.397 38.164 181.822 36.8428 182.64C36.3533 183.403 36.509 185.148 36.2865 185.788C36.1586 186.161 35.2712 185.788 35.1767 186.158C34.7316 187.892 35.0209 192.392 34.8067 194.493C32.4063 194.596 31.5996 194.738 31.1045 192.27C31.1407 191.098 30.7235 189.551 30.7346 188.936C30.7902 185.849 30.6289 182.771 31.1045 179.674C31.2269 179.663 31.3521 179.685 31.4745 179.674V182.081C32.2005 183.069 37.9554 181.449 35.5466 178.933C38.5673 178.747 42.0721 178.967 45.1734 178.933C44.5281 180.283 45.0149 181.73 44.8035 183.008L44.8007 183.013Z" fill="#7F5D00"/>
<path d="M31.1041 192.275C30.9956 195.673 30.584 200.307 30.3642 204.131C30.0694 204.499 29.3239 201.98 29.2544 201.537C28.6814 197.872 30.1027 192.737 30.7342 188.941C30.723 189.556 31.1403 191.104 31.1041 192.275Z" fill="#CA8321"/>
<path d="M31.4727 179.679C32.7855 179.557 34.0678 179.028 35.5448 178.939C37.9536 181.455 32.1986 183.075 31.4727 182.087V179.679Z" fill="#5B3F00"/>
<path d="M44.0602 193.016C43.4538 197.137 42.8808 222.491 41.6542 223.395C41.4984 223.509 37.9909 224.241 37.7656 223.582L38.5055 209.875C41.1897 210.198 38.8699 208.531 38.8755 208.395C38.8894 208.116 39.6348 208.295 39.6153 208.025C39.5096 206.544 38.6168 205.139 38.8755 203.58L39.6153 204.32C39.582 201.042 39.5541 197.752 39.9853 194.502C40.3469 191.78 41.0172 190.054 41.465 186.723C45.0337 186.629 41.8378 190.836 44.0574 191.541C43.9767 192.008 44.127 192.548 44.0574 193.021L44.0602 193.016Z" fill="#FEE166"/>
<path d="M38.507 194.126C36.9104 198.891 37.9896 219.58 36.101 222.282C35.9063 222.56 33.8813 223.32 33.5086 223.763C32.9273 222.527 32.6742 222.455 32.5824 220.985C32.1957 214.732 34.1066 201.34 34.8048 194.496C35.019 192.392 34.7297 187.895 35.1747 186.161C35.2693 185.791 36.1566 186.161 36.2846 185.791C36.5043 185.151 36.3513 183.406 36.8409 182.643C38.1621 181.825 37.45 193.4 38.507 194.129V194.126Z" fill="#FAD13B"/>
<path d="M36.656 191.349C36.9342 195.838 36.2694 200.24 35.9161 204.685C35.6129 208.481 35.8744 213.254 34.25 216.724L35.1762 203.942L36.656 191.346V191.349Z" fill="#FEE166"/>
<defs>
<linearGradient id="paint0_linear_5195_343430" x1="53.266" y1="79.5924" x2="22.1714" y2="78.8585" gradientUnits="userSpaceOnUse">
<stop stop-color="#32617B"/>
<stop offset="1" stop-color="#09213B"/>
</linearGradient>
</defs>
</svg>
