<svg width="469" height="382" viewBox="0 0 469 382" fill="none" xmlns="http://www.w3.org/2000/svg">
<path d="M196.715 349.028L407.179 328.149V52.6132L196.715 31.7451V349.028Z" fill="#A19FAA"/>
<path d="M191.715 36.051V44.1807L402.179 65.0601V56.9304L191.715 36.051Z" fill="#DEDCEA"/>
<path d="M395.991 70.4873C398.208 70.4873 400.005 68.69 400.005 66.4729C400.005 64.2558 398.208 62.4585 395.991 62.4585C393.774 62.4585 391.977 64.2558 391.977 66.4729C391.977 68.69 393.774 70.4873 395.991 70.4873Z" fill="#5A5863"/>
<path d="M395.989 69.31C397.556 69.31 398.826 68.0398 398.826 66.473C398.826 64.9061 397.556 63.636 395.989 63.636C394.423 63.636 393.152 64.9061 393.152 66.473C393.152 68.0398 394.423 69.31 395.989 69.31Z" fill="#8B8994"/>
<path d="M395.978 63.748C394.778 63.748 393.758 64.533 393.41 65.6207C393.758 66.7084 394.778 67.4933 395.978 67.4933C397.178 67.4933 398.198 66.7084 398.546 65.6207C398.198 64.533 397.178 63.748 395.978 63.748Z" fill="#D5D3DE"/>
<path d="M395.988 65.2396C396.323 65.2396 396.594 64.9685 396.594 64.6341C396.594 64.2997 396.323 64.0286 395.988 64.0286C395.654 64.0286 395.383 64.2997 395.383 64.6341C395.383 64.9685 395.654 65.2396 395.988 65.2396Z" fill="white"/>
<path d="M395.991 322.43C398.208 322.43 400.005 320.632 400.005 318.415C400.005 316.198 398.208 314.401 395.991 314.401C393.774 314.401 391.977 316.198 391.977 318.415C391.977 320.632 393.774 322.43 395.991 322.43Z" fill="#5A5863"/>
<path d="M395.989 321.252C397.556 321.252 398.826 319.982 398.826 318.415C398.826 316.849 397.556 315.578 395.989 315.578C394.423 315.578 393.152 316.849 393.152 318.415C393.152 319.982 394.423 321.252 395.989 321.252Z" fill="#8B8994"/>
<path d="M395.978 315.69C394.778 315.69 393.758 316.475 393.41 317.563C393.758 318.651 394.778 319.436 395.978 319.436C397.178 319.436 398.198 318.651 398.546 317.563C398.198 316.475 397.178 315.69 395.978 315.69Z" fill="#D5D3DE"/>
<path d="M395.988 317.182C396.323 317.182 396.594 316.911 396.594 316.576C396.594 316.242 396.323 315.971 395.988 315.971C395.654 315.971 395.383 316.242 395.383 316.576C395.383 316.911 395.654 317.182 395.988 317.182Z" fill="white"/>
<path opacity="0.2" d="M443.188 77.1707H296.551V298.287H443.188V77.1707Z" fill="black"/>
<path d="M443.188 83.1248H296.551V292.333H443.188V83.1248Z" fill="#A19FAA"/>
<path d="M415.211 109.476H296.551V265.982H415.211V109.476Z" fill="#79787E"/>
<path d="M415.211 109.476H296.551V113.648H415.211V109.476Z" fill="#4F4E53"/>
<path opacity="0.2" d="M193.879 381.031C299.098 381.031 384.394 295.734 384.394 190.515C384.394 85.2967 299.098 0 193.879 0C88.66 0 3.36328 85.2967 3.36328 190.515C3.36328 295.734 88.66 381.031 193.879 381.031Z" fill="black"/>
<path d="M187.712 375.424C291.383 375.424 375.424 291.383 375.424 187.712C375.424 84.0416 291.383 0 187.712 0C84.0416 0 0 84.0416 0 187.712C0 291.383 84.0416 375.424 187.712 375.424Z" fill="#A19FAA"/>
<path d="M187.713 11.0676C285.561 11.0676 365.12 89.2922 367.295 186.613C367.329 185.256 367.351 183.888 367.351 182.52C367.351 83.3155 286.918 2.89307 187.713 2.89307C88.5079 2.89307 8.07422 83.3155 8.07422 182.532C8.07422 183.9 8.09665 185.256 8.13029 186.624C10.2945 89.3034 89.8647 11.0676 187.713 11.0676Z" fill="#DEDCEA"/>
<path d="M187.713 362.63C89.8647 362.63 10.3057 284.405 8.13029 187.084C8.09665 188.441 8.07422 189.809 8.07422 191.177C8.07422 290.393 88.4966 370.816 187.713 370.816C286.929 370.816 367.351 290.393 367.351 191.177C367.351 189.809 367.329 188.452 367.295 187.084C365.12 284.405 285.549 362.63 187.713 362.63Z" fill="#787681"/>
<path d="M187.711 317.72C259.513 317.72 317.719 259.514 317.719 187.712C317.719 115.911 259.513 57.7041 187.711 57.7041C115.91 57.7041 57.7031 115.911 57.7031 187.712C57.7031 259.514 115.91 317.72 187.711 317.72Z" fill="#79787E"/>
<path d="M187.778 70.3304C257.458 70.3304 314.332 125.153 317.629 194.025C317.73 191.928 317.786 189.831 317.786 187.712C317.786 115.913 259.577 57.7041 187.778 57.7041C115.978 57.7041 57.7695 115.913 57.7695 187.712C57.7695 189.831 57.8256 191.94 57.9265 194.025C61.2233 125.153 118.098 70.3304 187.778 70.3304Z" fill="#4F4E53"/>
<path d="M187.781 311.631C117.024 311.631 59.4774 255.105 57.8066 184.752C57.7841 185.795 57.7617 186.837 57.7617 187.891C57.7617 259.691 115.97 317.899 187.77 317.899C259.569 317.899 317.778 259.691 317.778 187.891C317.778 186.837 317.767 185.795 317.733 184.752C316.073 255.105 258.526 311.631 187.759 311.631H187.781Z" fill="#DEDCEA"/>
<path d="M195.157 119.501H179.492L180.625 83.1248H194.025L195.157 119.501Z" fill="#B6B6BE"/>
<path d="M170.5 119.389L173.673 77.0471L180.626 83.0014L179.493 119.501L170.5 119.389Z" fill="#98989D"/>
<path d="M204.329 119.389L201.156 77.0471L194.215 83.0014L195.336 119.501L204.329 119.389Z" fill="#68676D"/>
<path d="M126.297 213.223L134.124 226.78L102.053 243.992L95.3477 232.386L126.297 213.223Z" fill="#B6B6BE"/>
<path d="M86.6328 229.202L100.369 252.985L102.051 243.992L95.3456 232.386L86.6328 229.202Z" fill="#D7D5E0"/>
<path d="M138.518 234.629L100.27 253.053L101.952 244.059L134.123 226.78L138.518 234.629Z" fill="#98989D"/>
<path d="M121.599 205.328L86.5234 229.247L95.1577 232.285L126.208 213.066L121.599 205.328Z" fill="#68676D"/>
<path d="M180.402 252.974H196.056L194.935 289.35H181.524L180.402 252.974Z" fill="#B6B6BE"/>
<path d="M174.414 295.305H201.887L194.935 289.35H181.523L174.414 295.305Z" fill="#D7D5E0"/>
<path d="M205.059 253.097L201.886 295.428L194.934 289.474L196.055 252.974L205.059 253.097Z" fill="#98989D"/>
<path d="M171.227 253.097L174.4 295.428L181.341 289.474L180.22 252.974L171.227 253.097Z" fill="#68676D"/>
<path d="M241.883 225.995L249.71 212.438L280.659 231.601L273.953 243.207L241.883 225.995Z" fill="#B6B6BE"/>
<path d="M275.545 252.346L289.282 228.562L280.659 231.601L273.953 243.207L275.545 252.346Z" fill="#D7D5E0"/>
<path d="M254.32 204.712L289.395 228.619L280.761 231.657L249.711 212.438L254.32 204.712Z" fill="#98989D"/>
<path d="M237.398 234.001L275.647 252.425L273.965 243.431L241.794 226.152L237.398 234.001Z" fill="#68676D"/>
<path d="M249.261 159.264L241.434 145.707L273.493 128.483L280.198 140.1L249.261 159.264Z" fill="#B6B6BE"/>
<path d="M288.915 143.285L275.189 119.49L273.496 128.483L280.202 140.1L288.915 143.285Z" fill="#D7D5E0"/>
<path d="M237.039 137.846L275.288 119.434L273.606 128.427L241.435 145.707L237.039 137.846Z" fill="#98989D"/>
<path d="M253.949 167.147L289.025 143.229L280.401 140.19L249.352 159.421L253.949 167.147Z" fill="#68676D"/>
<path d="M441.784 51.7721C447.73 51.7721 452.549 46.9525 452.549 41.0073C452.549 35.062 447.73 30.2424 441.784 30.2424C435.839 30.2424 431.02 35.062 431.02 41.0073C431.02 46.9525 435.839 51.7721 441.784 51.7721Z" fill="black"/>
<path d="M441.786 49.4063C446.424 49.4063 450.184 45.646 450.184 41.0075C450.184 36.3689 446.424 32.6086 441.786 32.6086C437.147 32.6086 433.387 36.3689 433.387 41.0075C433.387 45.646 437.147 49.4063 441.786 49.4063Z" fill="#8B8994"/>
<path d="M441.74 32.9673C438.197 32.9673 435.192 35.2885 434.16 38.4955C435.192 41.7025 438.186 44.0237 441.74 44.0237C445.295 44.0237 448.289 41.7025 449.321 38.4955C448.289 35.2885 445.295 32.9673 441.74 32.9673Z" fill="#D5D3DE"/>
<path d="M441.786 37.3629C442.777 37.3629 443.58 36.5597 443.58 35.5688C443.58 34.5779 442.777 33.7747 441.786 33.7747C440.795 33.7747 439.992 34.5779 439.992 35.5688C439.992 36.5597 440.795 37.3629 441.786 37.3629Z" fill="white"/>
<path d="M133.674 146.492L125.847 160.049L94.8984 140.885L101.604 129.268L133.674 146.492Z" fill="#B6B6BE"/>
<path d="M121.24 167.775L86.1641 143.856L94.7984 140.818L125.848 160.049L121.24 167.775Z" fill="#98989D"/>
<path d="M138.159 138.474L99.9102 120.062L101.592 129.044L133.763 146.324L138.159 138.474Z" fill="#68676D"/>
<path d="M100.003 120.129L86.2773 143.924L94.9004 140.885L101.606 129.268L100.003 120.129Z" fill="#D7D5E0"/>
<path d="M201.145 77.1707H173.672L180.624 83.125H194.024L201.145 77.1707Z" fill="#D7D5E0"/>
<path d="M195.157 119.501H179.492L180.625 83.1248H194.025L195.157 119.501Z" fill="#B6B6BE"/>
<path d="M170.5 119.389L173.673 77.0471L180.626 83.0014L179.493 119.501L170.5 119.389Z" fill="#98989D"/>
<path d="M204.329 119.389L201.156 77.0471L194.215 83.0014L195.336 119.501L204.329 119.389Z" fill="#68676D"/>
<path d="M126.297 213.223L134.124 226.78L102.053 243.992L95.3477 232.386L126.297 213.223Z" fill="#B6B6BE"/>
<path d="M86.6328 229.202L100.369 252.985L102.051 243.992L95.3456 232.386L86.6328 229.202Z" fill="#D7D5E0"/>
<path d="M138.518 234.629L100.27 253.053L101.952 244.059L134.123 226.78L138.518 234.629Z" fill="#98989D"/>
<path d="M121.599 205.328L86.5234 229.247L95.1577 232.285L126.208 213.066L121.599 205.328Z" fill="#68676D"/>
<path d="M180.402 252.974H196.056L194.935 289.35H181.524L180.402 252.974Z" fill="#B6B6BE"/>
<path d="M174.414 295.305H201.887L194.935 289.35H181.523L174.414 295.305Z" fill="#D7D5E0"/>
<path d="M205.059 253.097L201.886 295.428L194.934 289.474L196.055 252.974L205.059 253.097Z" fill="#98989D"/>
<path d="M171.227 253.097L174.4 295.428L181.341 289.474L180.22 252.974L171.227 253.097Z" fill="#68676D"/>
<path d="M241.883 225.995L249.71 212.438L280.659 231.601L273.953 243.207L241.883 225.995Z" fill="#B6B6BE"/>
<path d="M275.545 252.346L289.282 228.562L280.659 231.601L273.953 243.207L275.545 252.346Z" fill="#D7D5E0"/>
<path d="M254.32 204.712L289.395 228.619L280.761 231.657L249.711 212.438L254.32 204.712Z" fill="#98989D"/>
<path d="M237.398 234.001L275.647 252.425L273.965 243.431L241.794 226.152L237.398 234.001Z" fill="#68676D"/>
<path d="M249.261 159.264L241.434 145.707L273.493 128.483L280.198 140.1L249.261 159.264Z" fill="#B6B6BE"/>
<path d="M288.915 143.285L275.189 119.49L273.496 128.483L280.202 140.1L288.915 143.285Z" fill="#D7D5E0"/>
<path d="M237.039 137.846L275.288 119.434L273.606 128.427L241.435 145.707L237.039 137.846Z" fill="#98989D"/>
<path d="M253.949 167.147L289.025 143.229L280.401 140.19L249.352 159.421L253.949 167.147Z" fill="#68676D"/>
<path d="M133.674 146.492L125.847 160.049L94.8984 140.885L101.604 129.268L133.674 146.492Z" fill="#B6B6BE"/>
<path d="M121.24 167.775L86.1641 143.856L94.7984 140.818L125.848 160.049L121.24 167.775Z" fill="#98989D"/>
<path d="M138.159 138.474L99.9102 120.062L101.592 129.044L133.763 146.324L138.159 138.474Z" fill="#68676D"/>
<path d="M100.003 120.129L86.2773 143.924L94.9004 140.885L101.606 129.268L100.003 120.129Z" fill="#D7D5E0"/>
<path d="M188.061 41.5792C193.492 41.5792 197.895 37.1763 197.895 31.745C197.895 26.3138 193.492 21.9109 188.061 21.9109C182.629 21.9109 178.227 26.3138 178.227 31.745C178.227 37.1763 182.629 41.5792 188.061 41.5792Z" fill="#5A5863"/>
<path d="M110.498 62.4473C115.929 62.4473 120.332 58.0444 120.332 52.6132C120.332 47.1819 115.929 42.7791 110.498 42.7791C105.067 42.7791 100.664 47.1819 100.664 52.6132C100.664 58.0444 105.067 62.4473 110.498 62.4473Z" fill="#5A5863"/>
<path d="M53.7677 119.31C59.199 119.31 63.6019 114.907 63.6019 109.476C63.6019 104.045 59.199 99.6421 53.7677 99.6421C48.3365 99.6421 43.9336 104.045 43.9336 109.476C43.9336 114.907 48.3365 119.31 53.7677 119.31Z" fill="#5A5863"/>
<path d="M33.0685 196.907C38.4998 196.907 42.9027 192.504 42.9027 187.073C42.9027 181.642 38.4998 177.239 33.0685 177.239C27.6373 177.239 23.2344 181.642 23.2344 187.073C23.2344 192.504 27.6373 196.907 33.0685 196.907Z" fill="#5A5863"/>
<path d="M53.9357 274.47C59.3669 274.47 63.7698 270.067 63.7698 264.636C63.7698 259.205 59.3669 254.802 53.9357 254.802C48.5045 254.802 44.1016 259.205 44.1016 264.636C44.1016 270.067 48.5045 274.47 53.9357 274.47Z" fill="#5A5863"/>
<path d="M110.799 331.199C116.23 331.199 120.633 326.796 120.633 321.364C120.633 315.933 116.23 311.53 110.799 311.53C105.368 311.53 100.965 315.933 100.965 321.364C100.965 326.796 105.368 331.199 110.799 331.199Z" fill="#5A5863"/>
<path d="M188.408 351.91C193.84 351.91 198.242 347.507 198.242 342.076C198.242 336.644 193.84 332.241 188.408 332.241C182.977 332.241 178.574 336.644 178.574 342.076C178.574 347.507 182.977 351.91 188.408 351.91Z" fill="#5A5863"/>
<path d="M265.959 331.031C271.39 331.031 275.793 326.628 275.793 321.196C275.793 315.765 271.39 311.362 265.959 311.362C260.528 311.362 256.125 315.765 256.125 321.196C256.125 326.628 260.528 331.031 265.959 331.031Z" fill="#5A5863"/>
<path d="M322.697 274.179C328.129 274.179 332.532 269.776 332.532 264.344C332.532 258.913 328.129 254.51 322.697 254.51C317.266 254.51 312.863 258.913 312.863 264.344C312.863 269.776 317.266 274.179 322.697 274.179Z" fill="#5A5863"/>
<path d="M343.401 196.571C348.832 196.571 353.235 192.168 353.235 186.736C353.235 181.305 348.832 176.902 343.401 176.902C337.969 176.902 333.566 181.305 333.566 186.736C333.566 192.168 337.969 196.571 343.401 196.571Z" fill="#5A5863"/>
<path d="M322.518 119.008C327.949 119.008 332.352 114.605 332.352 109.174C332.352 103.742 327.949 99.3394 322.518 99.3394C317.086 99.3394 312.684 103.742 312.684 109.174C312.684 114.605 317.086 119.008 322.518 119.008Z" fill="#5A5863"/>
<path d="M265.666 62.2791C271.097 62.2791 275.5 57.8762 275.5 52.445C275.5 47.0137 271.097 42.6108 265.666 42.6108C260.235 42.6108 255.832 47.0137 255.832 52.445C255.832 57.8762 260.235 62.2791 265.666 62.2791Z" fill="#5A5863"/>
<path d="M188.062 38.6973C191.901 38.6973 195.014 35.5847 195.014 31.745C195.014 27.9054 191.901 24.7927 188.062 24.7927C184.222 24.7927 181.109 27.9054 181.109 31.745C181.109 35.5847 184.222 38.6973 188.062 38.6973Z" fill="#8B8994"/>
<path d="M188.037 25.0845C185.099 25.0845 182.61 27.002 181.758 29.6595C182.61 32.3171 185.099 34.2346 188.037 34.2346C190.975 34.2346 193.465 32.3171 194.317 29.6595C193.465 27.002 190.975 25.0845 188.037 25.0845Z" fill="#D5D3DE"/>
<path d="M188.062 28.7286C188.885 28.7286 189.553 28.0609 189.553 27.2372C189.553 26.4136 188.885 25.7458 188.062 25.7458C187.238 25.7458 186.57 26.4136 186.57 27.2372C186.57 28.0609 187.238 28.7286 188.062 28.7286Z" fill="white"/>
<path d="M110.495 59.5655C114.335 59.5655 117.448 56.4528 117.448 52.6132C117.448 48.7735 114.335 45.6609 110.495 45.6609C106.656 45.6609 103.543 48.7735 103.543 52.6132C103.543 56.4528 106.656 59.5655 110.495 59.5655Z" fill="#8B8994"/>
<path d="M110.475 45.9636C107.537 45.9636 105.048 47.8811 104.195 50.5387C105.048 53.1963 107.537 55.1137 110.475 55.1137C113.413 55.1137 115.902 53.1963 116.754 50.5387C115.902 47.8811 113.413 45.9636 110.475 45.9636Z" fill="#D5D3DE"/>
<path d="M110.495 49.608C111.319 49.608 111.987 48.9403 111.987 48.1166C111.987 47.293 111.319 46.6252 110.495 46.6252C109.672 46.6252 109.004 47.293 109.004 48.1166C109.004 48.9403 109.672 49.608 110.495 49.608Z" fill="white"/>
<path d="M53.7687 116.429C57.6084 116.429 60.721 113.316 60.721 109.476C60.721 105.637 57.6084 102.524 53.7687 102.524C49.9291 102.524 46.8164 105.637 46.8164 109.476C46.8164 113.316 49.9291 116.429 53.7687 116.429Z" fill="#8B8994"/>
<path d="M53.7443 102.816C50.8064 102.816 48.3171 104.733 47.4648 107.391C48.3171 110.048 50.8064 111.966 53.7443 111.966C56.6822 111.966 59.1716 110.048 60.0238 107.391C59.1716 104.733 56.6822 102.816 53.7443 102.816Z" fill="#D5D3DE"/>
<path d="M53.7687 106.46C54.5924 106.46 55.2601 105.792 55.2601 104.968C55.2601 104.145 54.5924 103.477 53.7687 103.477C52.9451 103.477 52.2773 104.145 52.2773 104.968C52.2773 105.792 52.9451 106.46 53.7687 106.46Z" fill="white"/>
<path d="M33.0695 194.025C36.9091 194.025 40.0218 190.913 40.0218 187.073C40.0218 183.233 36.9091 180.121 33.0695 180.121C29.2298 180.121 26.1172 183.233 26.1172 187.073C26.1172 190.913 29.2298 194.025 33.0695 194.025Z" fill="#8B8994"/>
<path d="M33.0334 180.423C30.0955 180.423 27.6061 182.341 26.7539 184.998C27.6061 187.656 30.0955 189.573 33.0334 189.573C35.9713 189.573 38.4607 187.656 39.3129 184.998C38.4607 182.341 35.9713 180.423 33.0334 180.423Z" fill="#D5D3DE"/>
<path d="M33.0695 184.068C33.8932 184.068 34.5609 183.4 34.5609 182.576C34.5609 181.753 33.8932 181.085 33.0695 181.085C32.2458 181.085 31.5781 181.753 31.5781 182.576C31.5781 183.4 32.2458 184.068 33.0695 184.068Z" fill="white"/>
<path d="M53.9367 271.588C57.7763 271.588 60.889 268.476 60.889 264.636C60.889 260.796 57.7763 257.684 53.9367 257.684C50.097 257.684 46.9844 260.796 46.9844 264.636C46.9844 268.476 50.097 271.588 53.9367 271.588Z" fill="#8B8994"/>
<path d="M53.9123 257.986C50.9744 257.986 48.485 259.904 47.6328 262.561C48.485 265.219 50.9744 267.136 53.9123 267.136C56.8502 267.136 59.3396 265.219 60.1918 262.561C59.3396 259.904 56.8502 257.986 53.9123 257.986Z" fill="#D5D3DE"/>
<path d="M53.9367 261.631C54.7604 261.631 55.4281 260.963 55.4281 260.139C55.4281 259.316 54.7604 258.648 53.9367 258.648C53.113 258.648 52.4453 259.316 52.4453 260.139C52.4453 260.963 53.113 261.631 53.9367 261.631Z" fill="white"/>
<path d="M110.8 328.317C114.64 328.317 117.752 325.204 117.752 321.364C117.752 317.525 114.64 314.412 110.8 314.412C106.96 314.412 103.848 317.525 103.848 321.364C103.848 325.204 106.96 328.317 110.8 328.317Z" fill="#8B8994"/>
<path d="M110.768 314.715C107.83 314.715 105.34 316.632 104.488 319.29C105.34 321.947 107.83 323.865 110.768 323.865C113.706 323.865 116.195 321.947 117.047 319.29C116.195 316.632 113.706 314.715 110.768 314.715Z" fill="#D5D3DE"/>
<path d="M110.8 318.359C111.624 318.359 112.291 317.691 112.291 316.868C112.291 316.044 111.624 315.376 110.8 315.376C109.976 315.376 109.309 316.044 109.309 316.868C109.309 317.691 109.976 318.359 110.8 318.359Z" fill="white"/>
<path d="M188.405 349.028C192.245 349.028 195.358 345.915 195.358 342.076C195.358 338.236 192.245 335.123 188.405 335.123C184.566 335.123 181.453 338.236 181.453 342.076C181.453 345.915 184.566 349.028 188.405 349.028Z" fill="#8B8994"/>
<path d="M188.373 335.415C185.435 335.415 182.946 337.332 182.094 339.99C182.946 342.647 185.435 344.565 188.373 344.565C191.311 344.565 193.801 342.647 194.653 339.99C193.801 337.332 191.311 335.415 188.373 335.415Z" fill="#D5D3DE"/>
<path d="M188.405 339.059C189.229 339.059 189.897 338.391 189.897 337.568C189.897 336.744 189.229 336.076 188.405 336.076C187.582 336.076 186.914 336.744 186.914 337.568C186.914 338.391 187.582 339.059 188.405 339.059Z" fill="white"/>
<path d="M265.96 328.149C269.8 328.149 272.912 325.036 272.912 321.196C272.912 317.357 269.8 314.244 265.96 314.244C262.12 314.244 259.008 317.357 259.008 321.196C259.008 325.036 262.12 328.149 265.96 328.149Z" fill="#8B8994"/>
<path d="M265.936 314.547C262.998 314.547 260.508 316.464 259.656 319.122C260.508 321.779 262.998 323.697 265.936 323.697C268.874 323.697 271.363 321.779 272.215 319.122C271.363 316.464 268.874 314.547 265.936 314.547Z" fill="#D5D3DE"/>
<path d="M265.96 318.191C266.784 318.191 267.451 317.524 267.451 316.7C267.451 315.876 266.784 315.208 265.96 315.208C265.136 315.208 264.469 315.876 264.469 316.7C264.469 317.524 265.136 318.191 265.96 318.191Z" fill="white"/>
<path d="M322.698 271.297C326.538 271.297 329.651 268.184 329.651 264.344C329.651 260.505 326.538 257.392 322.698 257.392C318.859 257.392 315.746 260.505 315.746 264.344C315.746 268.184 318.859 271.297 322.698 271.297Z" fill="#8B8994"/>
<path d="M322.666 257.684C319.728 257.684 317.239 259.601 316.387 262.259C317.239 264.916 319.728 266.834 322.666 266.834C325.604 266.834 328.094 264.916 328.946 262.259C328.094 259.601 325.604 257.684 322.666 257.684Z" fill="#D5D3DE"/>
<path d="M322.698 261.328C323.522 261.328 324.19 260.66 324.19 259.837C324.19 259.013 323.522 258.345 322.698 258.345C321.875 258.345 321.207 259.013 321.207 259.837C321.207 260.66 321.875 261.328 322.698 261.328Z" fill="white"/>
<path d="M343.398 193.689C347.237 193.689 350.35 190.576 350.35 186.736C350.35 182.897 347.237 179.784 343.398 179.784C339.558 179.784 336.445 182.897 336.445 186.736C336.445 190.576 339.558 193.689 343.398 193.689Z" fill="#8B8994"/>
<path d="M343.365 180.087C340.428 180.087 337.938 182.004 337.086 184.662C337.938 187.32 340.428 189.237 343.365 189.237C346.303 189.237 348.793 187.32 349.645 184.662C348.793 182.004 346.303 180.087 343.365 180.087Z" fill="#D5D3DE"/>
<path d="M343.398 183.731C344.221 183.731 344.889 183.064 344.889 182.24C344.889 181.416 344.221 180.749 343.398 180.749C342.574 180.749 341.906 181.416 341.906 182.24C341.906 183.064 342.574 183.731 343.398 183.731Z" fill="white"/>
<path d="M322.519 116.126C326.358 116.126 329.471 113.013 329.471 109.173C329.471 105.334 326.358 102.221 322.519 102.221C318.679 102.221 315.566 105.334 315.566 109.173C315.566 113.013 318.679 116.126 322.519 116.126Z" fill="#8B8994"/>
<path d="M322.498 102.524C319.56 102.524 317.071 104.441 316.219 107.099C317.071 109.757 319.56 111.674 322.498 111.674C325.436 111.674 327.926 109.757 328.778 107.099C327.926 104.441 325.436 102.524 322.498 102.524Z" fill="#D5D3DE"/>
<path d="M322.519 106.168C323.342 106.168 324.01 105.501 324.01 104.677C324.01 103.853 323.342 103.186 322.519 103.186C321.695 103.186 321.027 103.853 321.027 104.677C321.027 105.501 321.695 106.168 322.519 106.168Z" fill="white"/>
<path d="M265.667 59.3973C269.507 59.3973 272.619 56.2846 272.619 52.445C272.619 48.6053 269.507 45.4927 265.667 45.4927C261.827 45.4927 258.715 48.6053 258.715 52.445C258.715 56.2846 261.827 59.3973 265.667 59.3973Z" fill="#8B8994"/>
<path d="M265.635 45.7954C262.697 45.7954 260.208 47.7129 259.355 50.3705C260.208 53.028 262.697 54.9455 265.635 54.9455C268.573 54.9455 271.062 53.028 271.914 50.3705C271.062 47.7129 268.573 45.7954 265.635 45.7954Z" fill="#D5D3DE"/>
<path d="M265.667 49.4398C266.491 49.4398 267.159 48.7721 267.159 47.9484C267.159 47.1247 266.491 46.457 265.667 46.457C264.843 46.457 264.176 47.1247 264.176 47.9484C264.176 48.7721 264.843 49.4398 265.667 49.4398Z" fill="white"/>
<path d="M187.712 268.034C232.072 268.034 268.034 232.072 268.034 187.712C268.034 143.352 232.072 107.391 187.712 107.391C143.352 107.391 107.391 143.352 107.391 187.712C107.391 232.072 143.352 268.034 187.712 268.034Z" fill="#4F4E53"/>
<path d="M187.713 264.288C230.005 264.288 264.289 230.004 264.289 187.712C264.289 145.42 230.005 111.136 187.713 111.136C145.421 111.136 111.137 145.42 111.137 187.712C111.137 230.004 145.421 264.288 187.713 264.288Z" fill="#A19FAA"/>
<path d="M187.713 115.644C227.632 115.644 260.095 147.557 260.981 187.264C260.992 186.714 261.003 186.153 261.003 185.593C261.003 145.112 228.193 112.302 187.713 112.302C147.232 112.302 114.422 145.112 114.422 185.593C114.422 186.153 114.422 186.703 114.444 187.264C115.33 147.557 147.793 115.644 187.713 115.644Z" fill="#DEDCEA"/>
<path d="M187.714 245.898C219.849 245.898 245.9 219.848 245.9 187.712C245.9 155.577 219.849 129.526 187.714 129.526C155.578 129.526 129.527 155.577 129.527 187.712C129.527 219.848 155.578 245.898 187.714 245.898Z" fill="#C5C4CC"/>
<path d="M187.713 132.957C218.045 132.957 242.715 157.212 243.388 187.376C243.388 186.95 243.399 186.535 243.399 186.109C243.399 155.35 218.471 130.423 187.713 130.423C156.955 130.423 132.027 155.35 132.027 186.109C132.027 186.535 132.027 186.95 132.039 187.376C132.711 157.212 157.381 132.957 187.713 132.957Z" fill="#DEDCEA"/>
<path d="M187.713 240.561C157.381 240.561 132.711 216.306 132.039 186.142C132.039 186.568 132.027 186.983 132.027 187.409C132.027 218.168 156.955 243.095 187.713 243.095C218.471 243.095 243.399 218.168 243.399 187.409C243.399 186.983 243.399 186.568 243.388 186.142C242.715 216.306 218.045 240.561 187.713 240.561Z" fill="#A19FAA"/>
<path d="M188.159 127.53C190.376 127.53 192.173 125.732 192.173 123.515C192.173 121.298 190.376 119.501 188.159 119.501C185.942 119.501 184.145 121.298 184.145 123.515C184.145 125.732 185.942 127.53 188.159 127.53Z" fill="#5A5863"/>
<path d="M156.471 136.052C158.688 136.052 160.486 134.255 160.486 132.038C160.486 129.821 158.688 128.023 156.471 128.023C154.254 128.023 152.457 129.821 152.457 132.038C152.457 134.255 154.254 136.052 156.471 136.052Z" fill="#5A5863"/>
<path d="M133.292 159.286C135.509 159.286 137.306 157.489 137.306 155.272C137.306 153.055 135.509 151.257 133.292 151.257C131.075 151.257 129.277 153.055 129.277 155.272C129.277 157.489 131.075 159.286 133.292 159.286Z" fill="#5A5863"/>
<path d="M124.839 190.987C127.056 190.987 128.853 189.189 128.853 186.972C128.853 184.755 127.056 182.958 124.839 182.958C122.622 182.958 120.824 184.755 120.824 186.972C120.824 189.189 122.622 190.987 124.839 190.987Z" fill="#5A5863"/>
<path d="M133.362 222.676C135.579 222.676 137.376 220.878 137.376 218.661C137.376 216.444 135.579 214.647 133.362 214.647C131.145 214.647 129.348 216.444 129.348 218.661C129.348 220.878 131.145 222.676 133.362 222.676Z" fill="#5A5863"/>
<path d="M156.596 245.865C158.813 245.865 160.611 244.067 160.611 241.85C160.611 239.633 158.813 237.836 156.596 237.836C154.379 237.836 152.582 239.633 152.582 241.85C152.582 244.067 154.379 245.865 156.596 245.865Z" fill="#5A5863"/>
<path d="M188.307 254.32C190.524 254.32 192.322 252.522 192.322 250.305C192.322 248.088 190.524 246.291 188.307 246.291C186.09 246.291 184.293 248.088 184.293 250.305C184.293 252.522 186.09 254.32 188.307 254.32Z" fill="#5A5863"/>
<path d="M219.995 245.786C222.212 245.786 224.009 243.989 224.009 241.772C224.009 239.555 222.212 237.758 219.995 237.758C217.778 237.758 215.98 239.555 215.98 241.772C215.98 243.989 217.778 245.786 219.995 245.786Z" fill="#5A5863"/>
<path d="M243.175 222.563C245.392 222.563 247.189 220.766 247.189 218.549C247.189 216.332 245.392 214.535 243.175 214.535C240.957 214.535 239.16 216.332 239.16 218.549C239.16 220.766 240.957 222.563 243.175 222.563Z" fill="#5A5863"/>
<path d="M251.628 190.852C253.845 190.852 255.642 189.054 255.642 186.837C255.642 184.62 253.845 182.823 251.628 182.823C249.411 182.823 247.613 184.62 247.613 186.837C247.613 189.054 249.411 190.852 251.628 190.852Z" fill="#5A5863"/>
<path d="M243.096 159.163C245.313 159.163 247.111 157.366 247.111 155.148C247.111 152.931 245.313 151.134 243.096 151.134C240.879 151.134 239.082 152.931 239.082 155.148C239.082 157.366 240.879 159.163 243.096 159.163Z" fill="#5A5863"/>
<path d="M219.874 135.985C222.091 135.985 223.888 134.188 223.888 131.97C223.888 129.753 222.091 127.956 219.874 127.956C217.657 127.956 215.859 129.753 215.859 131.97C215.859 134.188 217.657 135.985 219.874 135.985Z" fill="#5A5863"/>
<path d="M188.161 126.352C189.728 126.352 190.998 125.082 190.998 123.515C190.998 121.949 189.728 120.678 188.161 120.678C186.594 120.678 185.324 121.949 185.324 123.515C185.324 125.082 186.594 126.352 188.161 126.352Z" fill="#8B8994"/>
<path d="M188.15 120.791C186.95 120.791 185.93 121.575 185.582 122.663C185.93 123.751 186.95 124.536 188.15 124.536C189.35 124.536 190.37 123.751 190.718 122.663C190.37 121.575 189.35 120.791 188.15 120.791Z" fill="#D5D3DE"/>
<path d="M188.16 122.282C188.495 122.282 188.766 122.011 188.766 121.677C188.766 121.342 188.495 121.071 188.16 121.071C187.826 121.071 187.555 121.342 187.555 121.677C187.555 122.011 187.826 122.282 188.16 122.282Z" fill="white"/>
<path d="M156.47 134.875C158.037 134.875 159.307 133.604 159.307 132.038C159.307 130.471 158.037 129.201 156.47 129.201C154.903 129.201 153.633 130.471 153.633 132.038C153.633 133.604 154.903 134.875 156.47 134.875Z" fill="#8B8994"/>
<path d="M156.458 129.324C155.259 129.324 154.238 130.109 153.891 131.197C154.238 132.284 155.259 133.069 156.458 133.069C157.658 133.069 158.679 132.284 159.026 131.197C158.679 130.109 157.658 129.324 156.458 129.324Z" fill="#D5D3DE"/>
<path d="M156.473 130.804C156.807 130.804 157.078 130.533 157.078 130.199C157.078 129.864 156.807 129.593 156.473 129.593C156.138 129.593 155.867 129.864 155.867 130.199C155.867 130.533 156.138 130.804 156.473 130.804Z" fill="white"/>
<path d="M133.294 158.109C134.861 158.109 136.131 156.839 136.131 155.272C136.131 153.705 134.861 152.435 133.294 152.435C131.727 152.435 130.457 153.705 130.457 155.272C130.457 156.839 131.727 158.109 133.294 158.109Z" fill="#8B8994"/>
<path d="M133.283 152.547C132.083 152.547 131.062 153.332 130.715 154.42C131.062 155.507 132.083 156.292 133.283 156.292C134.483 156.292 135.503 155.507 135.851 154.42C135.503 153.332 134.483 152.547 133.283 152.547Z" fill="#D5D3DE"/>
<path d="M133.293 154.038C133.627 154.038 133.899 153.767 133.899 153.433C133.899 153.098 133.627 152.827 133.293 152.827C132.959 152.827 132.688 153.098 132.688 153.433C132.688 153.767 132.959 154.038 133.293 154.038Z" fill="white"/>
<path d="M124.837 189.809C126.404 189.809 127.674 188.539 127.674 186.972C127.674 185.405 126.404 184.135 124.837 184.135C123.27 184.135 122 185.405 122 186.972C122 188.539 123.27 189.809 124.837 189.809Z" fill="#8B8994"/>
<path d="M124.826 184.258C123.626 184.258 122.605 185.043 122.258 186.131C122.605 187.219 123.626 188.004 124.826 188.004C126.026 188.004 127.046 187.219 127.394 186.131C127.046 185.043 126.026 184.258 124.826 184.258Z" fill="#D5D3DE"/>
<path d="M124.84 185.739C125.174 185.739 125.445 185.468 125.445 185.133C125.445 184.799 125.174 184.528 124.84 184.528C124.505 184.528 124.234 184.799 124.234 185.133C124.234 185.468 124.505 185.739 124.84 185.739Z" fill="white"/>
<path d="M133.36 221.498C134.927 221.498 136.197 220.228 136.197 218.661C136.197 217.094 134.927 215.824 133.36 215.824C131.794 215.824 130.523 217.094 130.523 218.661C130.523 220.228 131.794 221.498 133.36 221.498Z" fill="#8B8994"/>
<path d="M133.349 215.948C132.149 215.948 131.129 216.732 130.781 217.82C131.129 218.908 132.149 219.693 133.349 219.693C134.549 219.693 135.569 218.908 135.917 217.82C135.569 216.732 134.549 215.948 133.349 215.948Z" fill="#D5D3DE"/>
<path d="M133.359 217.428C133.694 217.428 133.965 217.156 133.965 216.822C133.965 216.488 133.694 216.217 133.359 216.217C133.025 216.217 132.754 216.488 132.754 216.822C132.754 217.156 133.025 217.428 133.359 217.428Z" fill="white"/>
<path d="M156.595 244.687C158.162 244.687 159.432 243.417 159.432 241.85C159.432 240.284 158.162 239.013 156.595 239.013C155.028 239.013 153.758 240.284 153.758 241.85C153.758 243.417 155.028 244.687 156.595 244.687Z" fill="#8B8994"/>
<path d="M156.583 239.125C155.384 239.125 154.363 239.91 154.016 240.998C154.363 242.086 155.384 242.871 156.583 242.871C157.783 242.871 158.804 242.086 159.151 240.998C158.804 239.91 157.783 239.125 156.583 239.125Z" fill="#D5D3DE"/>
<path d="M156.594 240.617C156.928 240.617 157.199 240.346 157.199 240.011C157.199 239.677 156.928 239.406 156.594 239.406C156.259 239.406 155.988 239.677 155.988 240.011C155.988 240.346 156.259 240.617 156.594 240.617Z" fill="white"/>
<path d="M188.306 253.142C189.873 253.142 191.143 251.872 191.143 250.305C191.143 248.738 189.873 247.468 188.306 247.468C186.739 247.468 185.469 248.738 185.469 250.305C185.469 251.872 186.739 253.142 188.306 253.142Z" fill="#8B8994"/>
<path d="M188.283 247.58C187.083 247.58 186.062 248.365 185.715 249.453C186.062 250.541 187.083 251.326 188.283 251.326C189.483 251.326 190.503 250.541 190.851 249.453C190.503 248.365 189.483 247.58 188.283 247.58Z" fill="#D5D3DE"/>
<path d="M188.305 249.072C188.639 249.072 188.91 248.801 188.91 248.466C188.91 248.132 188.639 247.861 188.305 247.861C187.97 247.861 187.699 248.132 187.699 248.466C187.699 248.801 187.97 249.072 188.305 249.072Z" fill="white"/>
<path d="M219.997 244.609C221.564 244.609 222.834 243.339 222.834 241.772C222.834 240.205 221.564 238.935 219.997 238.935C218.43 238.935 217.16 240.205 217.16 241.772C217.16 243.339 218.43 244.609 219.997 244.609Z" fill="#8B8994"/>
<path d="M219.974 239.058C218.774 239.058 217.754 239.843 217.406 240.931C217.754 242.019 218.774 242.804 219.974 242.804C221.174 242.804 222.194 242.019 222.542 240.931C222.194 239.843 221.174 239.058 219.974 239.058Z" fill="#D5D3DE"/>
<path d="M219.996 240.538C220.331 240.538 220.602 240.267 220.602 239.933C220.602 239.599 220.331 239.327 219.996 239.327C219.662 239.327 219.391 239.599 219.391 239.933C219.391 240.267 219.662 240.538 219.996 240.538Z" fill="white"/>
<path d="M243.173 221.386C244.74 221.386 246.01 220.116 246.01 218.549C246.01 216.982 244.74 215.712 243.173 215.712C241.606 215.712 240.336 216.982 240.336 218.549C240.336 220.116 241.606 221.386 243.173 221.386Z" fill="#8B8994"/>
<path d="M243.162 215.824C241.962 215.824 240.941 216.609 240.594 217.697C240.941 218.785 241.962 219.569 243.162 219.569C244.361 219.569 245.382 218.785 245.729 217.697C245.382 216.609 244.361 215.824 243.162 215.824Z" fill="#D5D3DE"/>
<path d="M243.172 217.316C243.506 217.316 243.777 217.044 243.777 216.71C243.777 216.376 243.506 216.104 243.172 216.104C242.838 216.104 242.566 216.376 242.566 216.71C242.566 217.044 242.838 217.316 243.172 217.316Z" fill="white"/>
<path d="M251.63 189.674C253.197 189.674 254.467 188.404 254.467 186.837C254.467 185.271 253.197 184 251.63 184C250.063 184 248.793 185.271 248.793 186.837C248.793 188.404 250.063 189.674 251.63 189.674Z" fill="#8B8994"/>
<path d="M251.619 184.124C250.419 184.124 249.398 184.909 249.051 185.996C249.398 187.084 250.419 187.869 251.619 187.869C252.818 187.869 253.839 187.084 254.186 185.996C253.839 184.909 252.818 184.124 251.619 184.124Z" fill="#D5D3DE"/>
<path d="M251.629 185.604C251.963 185.604 252.234 185.333 252.234 184.999C252.234 184.664 251.963 184.393 251.629 184.393C251.295 184.393 251.023 184.664 251.023 184.999C251.023 185.333 251.295 185.604 251.629 185.604Z" fill="white"/>
<path d="M243.095 157.985C244.662 157.985 245.932 156.715 245.932 155.149C245.932 153.582 244.662 152.312 243.095 152.312C241.528 152.312 240.258 153.582 240.258 155.149C240.258 156.715 241.528 157.985 243.095 157.985Z" fill="#8B8994"/>
<path d="M243.083 152.435C241.884 152.435 240.863 153.22 240.516 154.307C240.863 155.395 241.884 156.18 243.083 156.18C244.283 156.18 245.304 155.395 245.651 154.307C245.304 153.22 244.283 152.435 243.083 152.435Z" fill="#D5D3DE"/>
<path d="M243.094 153.915C243.428 153.915 243.699 153.644 243.699 153.309C243.699 152.975 243.428 152.704 243.094 152.704C242.759 152.704 242.488 152.975 242.488 153.309C242.488 153.644 242.759 153.915 243.094 153.915Z" fill="white"/>
<path d="M219.872 134.807C221.439 134.807 222.709 133.537 222.709 131.97C222.709 130.403 221.439 129.133 219.872 129.133C218.305 129.133 217.035 130.403 217.035 131.97C217.035 133.537 218.305 134.807 219.872 134.807Z" fill="#8B8994"/>
<path d="M219.861 129.246C218.661 129.246 217.641 130.031 217.293 131.118C217.641 132.206 218.661 132.991 219.861 132.991C221.061 132.991 222.081 132.206 222.429 131.118C222.081 130.031 221.061 129.246 219.861 129.246Z" fill="#D5D3DE"/>
<path d="M219.871 130.737C220.206 130.737 220.477 130.466 220.477 130.131C220.477 129.797 220.206 129.526 219.871 129.526C219.537 129.526 219.266 129.797 219.266 130.131C219.266 130.466 219.537 130.737 219.871 130.737Z" fill="white"/>
<path d="M187.78 145.976C165.275 145.976 147.02 164.22 147.02 186.737C147.02 209.253 165.264 227.497 187.78 227.497C210.297 227.497 228.541 209.253 228.541 186.737C228.541 164.22 210.297 145.976 187.78 145.976ZM187.78 219.614C169.615 219.614 154.891 204.891 154.891 186.725C154.891 168.56 169.615 153.836 187.78 153.836C205.946 153.836 220.669 168.56 220.669 186.725C220.669 204.891 205.946 219.614 187.78 219.614Z" fill="#333333"/>
<path d="M190.998 150.607H184.27V187.712H190.998V150.607Z" fill="#333333"/>
<path d="M218.191 209.121L221.555 203.294L189.421 184.741L186.057 190.568L218.191 209.121Z" fill="#333333"/>
<path d="M155.095 205.698L158.852 211.28L189.635 190.563L185.878 184.981L155.095 205.698Z" fill="#333333"/>
<path d="M187.779 173.079C180.232 173.079 174.121 179.19 174.121 186.737C174.121 194.283 180.232 200.394 187.779 200.394C195.326 200.394 201.437 194.283 201.437 186.737C201.437 179.19 195.326 173.079 187.779 173.079Z" fill="#333333"/>
<path d="M187.78 179.784C183.945 179.784 180.828 182.901 180.828 186.736C180.828 190.571 183.945 193.689 187.78 193.689C191.615 193.689 194.733 190.571 194.733 186.736C194.733 182.901 191.615 179.784 187.78 179.784Z" fill="#C4C4CC"/>
<path opacity="0.2" d="M191.534 150.237C169.029 150.237 150.773 168.481 150.773 190.998C150.773 213.514 169.018 231.758 191.534 231.758C214.051 231.758 232.295 213.514 232.295 190.998C232.295 168.481 214.051 150.237 191.534 150.237ZM224.423 190.998C224.423 196.077 223.268 200.888 221.216 205.183L204.429 195.483C204.923 194.081 205.203 192.568 205.203 190.998C205.203 184.572 200.751 179.19 194.775 177.744V158.277C211.427 159.903 224.434 173.931 224.434 190.998H224.423ZM184.582 190.998C184.582 187.163 187.699 184.045 191.534 184.045C195.369 184.045 198.486 187.163 198.486 190.998C198.486 194.833 195.369 197.95 191.534 197.95C187.699 197.95 184.582 194.833 184.582 190.998ZM188.036 158.299V177.811C182.193 179.358 177.887 184.662 177.887 190.998C177.887 192.915 178.291 194.743 178.998 196.391L162.929 207.201C160.215 202.413 158.656 196.885 158.656 190.987C158.656 174.009 171.518 160.038 188.036 158.288V158.299ZM191.534 223.887C181.689 223.887 172.853 219.558 166.831 212.696L183.113 201.74C185.434 203.568 188.349 204.656 191.534 204.656C195.066 204.656 198.273 203.299 200.695 201.101L217.695 210.913C211.685 218.796 202.209 223.875 191.534 223.875V223.887Z" fill="black"/>
<path d="M188.151 150.08C208.963 150.08 225.917 166.564 226.702 187.185C226.725 186.692 226.736 186.198 226.736 185.694C226.736 164.377 209.456 147.097 188.139 147.097C166.823 147.097 149.543 164.377 149.543 185.694C149.543 186.198 149.565 186.692 149.577 187.185C150.362 166.564 167.316 150.08 188.128 150.08H188.151Z" fill="#999999"/>
<path d="M188.15 221.834C169.513 221.834 154.33 207.078 153.623 188.609C153.612 189.058 153.59 189.495 153.59 189.944C153.59 209.029 169.064 224.503 188.15 224.503C207.235 224.503 222.709 209.029 222.709 189.944C222.709 189.495 222.698 189.058 222.676 188.609C221.969 207.078 206.786 221.834 188.15 221.834Z" fill="#666666"/>
<path d="M432.768 98.7676C434.985 98.7676 436.783 96.9703 436.783 94.7532C436.783 92.5361 434.985 90.7388 432.768 90.7388C430.551 90.7388 428.754 92.5361 428.754 94.7532C428.754 96.9703 430.551 98.7676 432.768 98.7676Z" fill="#5A5863"/>
<path d="M432.771 97.5902C434.337 97.5902 435.608 96.3201 435.608 94.7532C435.608 93.1864 434.337 91.9163 432.771 91.9163C431.204 91.9163 429.934 93.1864 429.934 94.7532C429.934 96.3201 431.204 97.5902 432.771 97.5902Z" fill="#8B8994"/>
<path d="M432.759 92.0396C431.559 92.0396 430.539 92.8245 430.191 93.9122C430.539 94.9999 431.559 95.7848 432.759 95.7848C433.959 95.7848 434.98 94.9999 435.327 93.9122C434.98 92.8245 433.959 92.0396 432.759 92.0396Z" fill="#D5D3DE"/>
<path d="M432.77 93.5196C433.104 93.5196 433.375 93.2485 433.375 92.9141C433.375 92.5797 433.104 92.3086 432.77 92.3086C432.435 92.3086 432.164 92.5797 432.164 92.9141C432.164 93.2485 432.435 93.5196 432.77 93.5196Z" fill="white"/>
<path d="M411.8 98.7676C414.017 98.7676 415.814 96.9703 415.814 94.7532C415.814 92.5361 414.017 90.7388 411.8 90.7388C409.582 90.7388 407.785 92.5361 407.785 94.7532C407.785 96.9703 409.582 98.7676 411.8 98.7676Z" fill="#5A5863"/>
<path d="M411.802 97.5902C413.369 97.5902 414.639 96.3201 414.639 94.7532C414.639 93.1864 413.369 91.9163 411.802 91.9163C410.235 91.9163 408.965 93.1864 408.965 94.7532C408.965 96.3201 410.235 97.5902 411.802 97.5902Z" fill="#8B8994"/>
<path d="M411.791 92.0396C410.591 92.0396 409.57 92.8245 409.223 93.9122C409.57 94.9999 410.591 95.7848 411.791 95.7848C412.99 95.7848 414.011 94.9999 414.358 93.9122C414.011 92.8245 412.99 92.0396 411.791 92.0396Z" fill="#D5D3DE"/>
<path d="M411.801 93.5196C412.135 93.5196 412.406 93.2485 412.406 92.9141C412.406 92.5797 412.135 92.3086 411.801 92.3086C411.466 92.3086 411.195 92.5797 411.195 92.9141C411.195 93.2485 411.466 93.5196 411.801 93.5196Z" fill="white"/>
<path d="M390.831 98.7676C393.048 98.7676 394.845 96.9703 394.845 94.7532C394.845 92.5361 393.048 90.7388 390.831 90.7388C388.614 90.7388 386.816 92.5361 386.816 94.7532C386.816 96.9703 388.614 98.7676 390.831 98.7676Z" fill="#5A5863"/>
<path d="M390.833 97.5902C392.4 97.5902 393.67 96.3201 393.67 94.7532C393.67 93.1864 392.4 91.9163 390.833 91.9163C389.266 91.9163 387.996 93.1864 387.996 94.7532C387.996 96.3201 389.266 97.5902 390.833 97.5902Z" fill="#8B8994"/>
<path d="M390.822 92.0396C389.622 92.0396 388.602 92.8245 388.254 93.9122C388.602 94.9999 389.622 95.7848 390.822 95.7848C392.022 95.7848 393.042 94.9999 393.39 93.9122C393.042 92.8245 392.022 92.0396 390.822 92.0396Z" fill="#D5D3DE"/>
<path d="M390.832 93.5196C391.167 93.5196 391.438 93.2485 391.438 92.9141C391.438 92.5797 391.167 92.3086 390.832 92.3086C390.498 92.3086 390.227 92.5797 390.227 92.9141C390.227 93.2485 390.498 93.5196 390.832 93.5196Z" fill="white"/>
<path d="M369.862 98.7676C372.079 98.7676 373.876 96.9703 373.876 94.7532C373.876 92.5361 372.079 90.7388 369.862 90.7388C367.645 90.7388 365.848 92.5361 365.848 94.7532C365.848 96.9703 367.645 98.7676 369.862 98.7676Z" fill="#5A5863"/>
<path d="M369.864 97.5902C371.431 97.5902 372.701 96.3201 372.701 94.7532C372.701 93.1864 371.431 91.9163 369.864 91.9163C368.298 91.9163 367.027 93.1864 367.027 94.7532C367.027 96.3201 368.298 97.5902 369.864 97.5902Z" fill="#8B8994"/>
<path d="M369.853 92.0396C368.653 92.0396 367.633 92.8245 367.285 93.9122C367.633 94.9999 368.653 95.7848 369.853 95.7848C371.053 95.7848 372.073 94.9999 372.421 93.9122C372.073 92.8245 371.053 92.0396 369.853 92.0396Z" fill="#D5D3DE"/>
<path d="M369.863 93.5196C370.198 93.5196 370.469 93.2485 370.469 92.9141C370.469 92.5797 370.198 92.3086 369.863 92.3086C369.529 92.3086 369.258 92.5797 369.258 92.9141C369.258 93.2485 369.529 93.5196 369.863 93.5196Z" fill="white"/>
<path d="M411.194 287.063C413.411 287.063 415.208 285.265 415.208 283.048C415.208 280.831 413.411 279.034 411.194 279.034C408.977 279.034 407.18 280.831 407.18 283.048C407.18 285.265 408.977 287.063 411.194 287.063Z" fill="#5A5863"/>
<path d="M411.196 285.885C412.763 285.885 414.033 284.615 414.033 283.048C414.033 281.482 412.763 280.211 411.196 280.211C409.63 280.211 408.359 281.482 408.359 283.048C408.359 284.615 409.63 285.885 411.196 285.885Z" fill="#8B8994"/>
<path d="M411.185 280.335C409.985 280.335 408.965 281.12 408.617 282.207C408.965 283.295 409.985 284.08 411.185 284.08C412.385 284.08 413.405 283.295 413.753 282.207C413.405 281.12 412.385 280.335 411.185 280.335Z" fill="#D5D3DE"/>
<path d="M411.195 281.815C411.53 281.815 411.801 281.544 411.801 281.209C411.801 280.875 411.53 280.604 411.195 280.604C410.861 280.604 410.59 280.875 410.59 281.209C410.59 281.544 410.861 281.815 411.195 281.815Z" fill="white"/>
<path d="M390.225 287.063C392.442 287.063 394.24 285.265 394.24 283.048C394.24 280.831 392.442 279.034 390.225 279.034C388.008 279.034 386.211 280.831 386.211 283.048C386.211 285.265 388.008 287.063 390.225 287.063Z" fill="#5A5863"/>
<path d="M390.228 285.885C391.794 285.885 393.065 284.615 393.065 283.048C393.065 281.482 391.794 280.211 390.228 280.211C388.661 280.211 387.391 281.482 387.391 283.048C387.391 284.615 388.661 285.885 390.228 285.885Z" fill="#8B8994"/>
<path d="M390.216 280.335C389.016 280.335 387.996 281.12 387.648 282.207C387.996 283.295 389.016 284.08 390.216 284.08C391.416 284.08 392.437 283.295 392.784 282.207C392.437 281.12 391.416 280.335 390.216 280.335Z" fill="#D5D3DE"/>
<path d="M390.227 281.815C390.561 281.815 390.832 281.544 390.832 281.209C390.832 280.875 390.561 280.604 390.227 280.604C389.892 280.604 389.621 280.875 389.621 281.209C389.621 281.544 389.892 281.815 390.227 281.815Z" fill="white"/>
<path d="M369.257 287.063C371.474 287.063 373.271 285.265 373.271 283.048C373.271 280.831 371.474 279.034 369.257 279.034C367.039 279.034 365.242 280.831 365.242 283.048C365.242 285.265 367.039 287.063 369.257 287.063Z" fill="#5A5863"/>
<path d="M369.255 285.885C370.822 285.885 372.092 284.615 372.092 283.048C372.092 281.482 370.822 280.211 369.255 280.211C367.688 280.211 366.418 281.482 366.418 283.048C366.418 284.615 367.688 285.885 369.255 285.885Z" fill="#8B8994"/>
<path d="M369.248 280.335C368.048 280.335 367.027 281.12 366.68 282.207C367.027 283.295 368.048 284.08 369.248 284.08C370.447 284.08 371.468 283.295 371.815 282.207C371.468 281.12 370.447 280.335 369.248 280.335Z" fill="#D5D3DE"/>
<path d="M369.258 281.815C369.592 281.815 369.863 281.544 369.863 281.209C369.863 280.875 369.592 280.604 369.258 280.604C368.923 280.604 368.652 280.875 368.652 281.209C368.652 281.544 368.923 281.815 369.258 281.815Z" fill="white"/>
<path d="M432.768 119.647C434.985 119.647 436.783 117.85 436.783 115.633C436.783 113.415 434.985 111.618 432.768 111.618C430.551 111.618 428.754 113.415 428.754 115.633C428.754 117.85 430.551 119.647 432.768 119.647Z" fill="#5A5863"/>
<path d="M432.771 118.469C434.337 118.469 435.608 117.199 435.608 115.632C435.608 114.066 434.337 112.795 432.771 112.795C431.204 112.795 429.934 114.066 429.934 115.632C429.934 117.199 431.204 118.469 432.771 118.469Z" fill="#8B8994"/>
<path d="M432.759 112.919C431.559 112.919 430.539 113.704 430.191 114.792C430.539 115.879 431.559 116.664 432.759 116.664C433.959 116.664 434.98 115.879 435.327 114.792C434.98 113.704 433.959 112.919 432.759 112.919Z" fill="#D5D3DE"/>
<path d="M432.77 114.399C433.104 114.399 433.375 114.128 433.375 113.794C433.375 113.459 433.104 113.188 432.77 113.188C432.435 113.188 432.164 113.459 432.164 113.794C432.164 114.128 432.435 114.399 432.77 114.399Z" fill="white"/>
<path d="M432.768 140.526C434.985 140.526 436.783 138.729 436.783 136.512C436.783 134.295 434.985 132.497 432.768 132.497C430.551 132.497 428.754 134.295 428.754 136.512C428.754 138.729 430.551 140.526 432.768 140.526Z" fill="#5A5863"/>
<path d="M432.771 139.349C434.337 139.349 435.608 138.079 435.608 136.512C435.608 134.945 434.337 133.675 432.771 133.675C431.204 133.675 429.934 134.945 429.934 136.512C429.934 138.079 431.204 139.349 432.771 139.349Z" fill="#8B8994"/>
<path d="M432.759 133.787C431.559 133.787 430.539 134.572 430.191 135.66C430.539 136.747 431.559 137.532 432.759 137.532C433.959 137.532 434.98 136.747 435.327 135.66C434.98 134.572 433.959 133.787 432.759 133.787Z" fill="#D5D3DE"/>
<path d="M432.77 135.278C433.104 135.278 433.375 135.007 433.375 134.673C433.375 134.338 433.104 134.067 432.77 134.067C432.435 134.067 432.164 134.338 432.164 134.673C432.164 135.007 432.435 135.278 432.77 135.278Z" fill="white"/>
<path d="M432.768 161.394C434.985 161.394 436.783 159.597 436.783 157.38C436.783 155.163 434.985 153.365 432.768 153.365C430.551 153.365 428.754 155.163 428.754 157.38C428.754 159.597 430.551 161.394 432.768 161.394Z" fill="#5A5863"/>
<path d="M432.771 160.217C434.337 160.217 435.608 158.947 435.608 157.38C435.608 155.813 434.337 154.543 432.771 154.543C431.204 154.543 429.934 155.813 429.934 157.38C429.934 158.947 431.204 160.217 432.771 160.217Z" fill="#8B8994"/>
<path d="M432.759 154.666C431.559 154.666 430.539 155.451 430.191 156.539C430.539 157.627 431.559 158.412 432.759 158.412C433.959 158.412 434.98 157.627 435.327 156.539C434.98 155.451 433.959 154.666 432.759 154.666Z" fill="#D5D3DE"/>
<path d="M432.77 156.146C433.104 156.146 433.375 155.875 433.375 155.541C433.375 155.206 433.104 154.935 432.77 154.935C432.435 154.935 432.164 155.206 432.164 155.541C432.164 155.875 432.435 156.146 432.77 156.146Z" fill="white"/>
<path d="M432.768 182.274C434.985 182.274 436.783 180.476 436.783 178.259C436.783 176.042 434.985 174.245 432.768 174.245C430.551 174.245 428.754 176.042 428.754 178.259C428.754 180.476 430.551 182.274 432.768 182.274Z" fill="#5A5863"/>
<path d="M432.771 181.096C434.337 181.096 435.608 179.826 435.608 178.259C435.608 176.693 434.337 175.422 432.771 175.422C431.204 175.422 429.934 176.693 429.934 178.259C429.934 179.826 431.204 181.096 432.771 181.096Z" fill="#8B8994"/>
<path d="M432.759 175.546C431.559 175.546 430.539 176.331 430.191 177.418C430.539 178.506 431.559 179.291 432.759 179.291C433.959 179.291 434.98 178.506 435.327 177.418C434.98 176.331 433.959 175.546 432.759 175.546Z" fill="#D5D3DE"/>
<path d="M432.77 177.026C433.104 177.026 433.375 176.755 433.375 176.42C433.375 176.086 433.104 175.815 432.77 175.815C432.435 175.815 432.164 176.086 432.164 176.42C432.164 176.755 432.435 177.026 432.77 177.026Z" fill="white"/>
<path d="M432.768 203.153C434.985 203.153 436.783 201.356 436.783 199.139C436.783 196.922 434.985 195.124 432.768 195.124C430.551 195.124 428.754 196.922 428.754 199.139C428.754 201.356 430.551 203.153 432.768 203.153Z" fill="#5A5863"/>
<path d="M432.771 201.975C434.337 201.975 435.608 200.705 435.608 199.138C435.608 197.572 434.337 196.302 432.771 196.302C431.204 196.302 429.934 197.572 429.934 199.138C429.934 200.705 431.204 201.975 432.771 201.975Z" fill="#8B8994"/>
<path d="M432.759 196.414C431.559 196.414 430.539 197.199 430.191 198.286C430.539 199.374 431.559 200.159 432.759 200.159C433.959 200.159 434.98 199.374 435.327 198.286C434.98 197.199 433.959 196.414 432.759 196.414Z" fill="#D5D3DE"/>
<path d="M432.77 197.905C433.104 197.905 433.375 197.634 433.375 197.3C433.375 196.965 433.104 196.694 432.77 196.694C432.435 196.694 432.164 196.965 432.164 197.3C432.164 197.634 432.435 197.905 432.77 197.905Z" fill="white"/>
<path d="M432.768 224.032C434.985 224.032 436.783 222.235 436.783 220.018C436.783 217.801 434.985 216.003 432.768 216.003C430.551 216.003 428.754 217.801 428.754 220.018C428.754 222.235 430.551 224.032 432.768 224.032Z" fill="#5A5863"/>
<path d="M432.771 222.855C434.337 222.855 435.608 221.585 435.608 220.018C435.608 218.451 434.337 217.181 432.771 217.181C431.204 217.181 429.934 218.451 429.934 220.018C429.934 221.585 431.204 222.855 432.771 222.855Z" fill="#8B8994"/>
<path d="M432.759 217.293C431.559 217.293 430.539 218.078 430.191 219.166C430.539 220.253 431.559 221.038 432.759 221.038C433.959 221.038 434.98 220.253 435.327 219.166C434.98 218.078 433.959 217.293 432.759 217.293Z" fill="#D5D3DE"/>
<path d="M432.77 218.785C433.104 218.785 433.375 218.513 433.375 218.179C433.375 217.845 433.104 217.573 432.77 217.573C432.435 217.573 432.164 217.845 432.164 218.179C432.164 218.513 432.435 218.785 432.77 218.785Z" fill="white"/>
<path d="M432.768 244.9C434.985 244.9 436.783 243.103 436.783 240.886C436.783 238.669 434.985 236.872 432.768 236.872C430.551 236.872 428.754 238.669 428.754 240.886C428.754 243.103 430.551 244.9 432.768 244.9Z" fill="#5A5863"/>
<path d="M432.771 243.723C434.337 243.723 435.608 242.453 435.608 240.886C435.608 239.319 434.337 238.049 432.771 238.049C431.204 238.049 429.934 239.319 429.934 240.886C429.934 242.453 431.204 243.723 432.771 243.723Z" fill="#8B8994"/>
<path d="M432.759 238.172C431.559 238.172 430.539 238.957 430.191 240.045C430.539 241.133 431.559 241.918 432.759 241.918C433.959 241.918 434.98 241.133 435.327 240.045C434.98 238.957 433.959 238.172 432.759 238.172Z" fill="#D5D3DE"/>
<path d="M432.77 239.652C433.104 239.652 433.375 239.381 433.375 239.047C433.375 238.713 433.104 238.441 432.77 238.441C432.435 238.441 432.164 238.713 432.164 239.047C432.164 239.381 432.435 239.652 432.77 239.652Z" fill="white"/>
<path d="M432.768 265.78C434.985 265.78 436.783 263.982 436.783 261.765C436.783 259.548 434.985 257.751 432.768 257.751C430.551 257.751 428.754 259.548 428.754 261.765C428.754 263.982 430.551 265.78 432.768 265.78Z" fill="#5A5863"/>
<path d="M432.771 264.602C434.337 264.602 435.608 263.332 435.608 261.765C435.608 260.199 434.337 258.928 432.771 258.928C431.204 258.928 429.934 260.199 429.934 261.765C429.934 263.332 431.204 264.602 432.771 264.602Z" fill="#8B8994"/>
<path d="M432.759 259.052C431.559 259.052 430.539 259.837 430.191 260.924C430.539 262.012 431.559 262.797 432.759 262.797C433.959 262.797 434.98 262.012 435.327 260.924C434.98 259.837 433.959 259.052 432.759 259.052Z" fill="#D5D3DE"/>
<path d="M432.77 260.532C433.104 260.532 433.375 260.261 433.375 259.926C433.375 259.592 433.104 259.321 432.77 259.321C432.435 259.321 432.164 259.592 432.164 259.926C432.164 260.261 432.435 260.532 432.77 260.532Z" fill="white"/>
<path d="M432.768 286.659C434.985 286.659 436.783 284.862 436.783 282.645C436.783 280.428 434.985 278.63 432.768 278.63C430.551 278.63 428.754 280.428 428.754 282.645C428.754 284.862 430.551 286.659 432.768 286.659Z" fill="#5A5863"/>
<path d="M432.771 285.482C434.337 285.482 435.608 284.211 435.608 282.645C435.608 281.078 434.337 279.808 432.771 279.808C431.204 279.808 429.934 281.078 429.934 282.645C429.934 284.211 431.204 285.482 432.771 285.482Z" fill="#8B8994"/>
<path d="M432.759 279.92C431.559 279.92 430.539 280.705 430.191 281.793C430.539 282.88 431.559 283.665 432.759 283.665C433.959 283.665 434.98 282.88 435.327 281.793C434.98 280.705 433.959 279.92 432.759 279.92Z" fill="#D5D3DE"/>
<path d="M432.77 281.411C433.104 281.411 433.375 281.14 433.375 280.806C433.375 280.471 433.104 280.2 432.77 280.2C432.435 280.2 432.164 280.471 432.164 280.806C432.164 281.14 432.435 281.411 432.77 281.411Z" fill="white"/>
<path opacity="0.2" d="M469.001 137.196C469.001 140.874 420.996 140.874 420.996 137.196V49.9894C420.996 44.6406 469.001 44.6406 469.001 49.9894V137.196Z" fill="black"/>
<path d="M465.637 133.832C465.637 137.51 417.633 137.51 417.633 133.832V46.6254C417.633 41.2766 465.637 41.2766 465.637 46.6254V133.832Z" fill="#A19FAA"/>
<path d="M427.465 136.108C430.896 136.377 434.933 136.534 439.071 136.579V42.6333C434.933 42.7006 430.896 42.9248 427.465 43.3173V136.119V136.108Z" fill="#D0CFD5"/>
<path d="M465.626 59.3972H417.621V63.905H465.626V59.3972Z" fill="#4F4E53"/>
<path d="M465.626 62.2791H417.621V63.905H465.626V62.2791Z" fill="#DEDCEA"/>
<path d="M465.626 117.83H417.621V122.338H465.626V117.83Z" fill="#4F4E53"/>
<path d="M465.626 120.858H417.621V122.484H465.626V120.858Z" fill="#DEDCEA"/>
<path d="M438.902 344.251C444.847 344.251 449.666 339.431 449.666 333.486C449.666 327.541 444.847 322.721 438.902 322.721C432.956 322.721 428.137 327.541 428.137 333.486C428.137 339.431 432.956 344.251 438.902 344.251Z" fill="black"/>
<path d="M438.903 341.885C443.541 341.885 447.302 338.125 447.302 333.486C447.302 328.848 443.541 325.087 438.903 325.087C434.264 325.087 430.504 328.848 430.504 333.486C430.504 338.125 434.264 341.885 438.903 341.885Z" fill="#8B8994"/>
<path d="M438.869 341.526C435.326 341.526 432.321 339.205 431.289 335.998C432.321 332.791 435.315 330.47 438.869 330.47C442.424 330.47 445.418 332.791 446.45 335.998C445.418 339.205 442.424 341.526 438.869 341.526Z" fill="#D5D3DE"/>
<path d="M438.904 340.719C439.894 340.719 440.698 339.916 440.698 338.925C440.698 337.934 439.894 337.131 438.904 337.131C437.913 337.131 437.109 337.934 437.109 338.925C437.109 339.916 437.913 340.719 438.904 340.719Z" fill="white"/>
<path opacity="0.2" d="M466.442 335C466.442 338.678 418.438 338.678 418.438 335V247.794C418.438 242.445 466.442 242.445 466.442 247.794V335Z" fill="black"/>
<path d="M463.067 331.625C463.067 335.303 415.062 335.303 415.062 331.625V244.418C415.062 239.07 463.067 239.07 463.067 244.418V331.625Z" fill="#A19FAA"/>
<path d="M424.898 333.901C428.33 334.17 432.367 334.327 436.504 334.372V240.426C432.367 240.494 428.33 240.718 424.898 241.11V333.912V333.901Z" fill="#D0CFD5"/>
<path d="M463.067 257.19H415.062V261.698H463.067V257.19Z" fill="#4F4E53"/>
<path d="M463.067 260.072H415.062V261.698H463.067V260.072Z" fill="#DEDCEA"/>
<path d="M463.067 315.623H415.062V320.131H463.067V315.623Z" fill="#4F4E53"/>
<path d="M463.067 318.651H415.062V320.277H463.067V318.651Z" fill="#DEDCEA"/>
</svg>
