<svg width="319" height="321" viewBox="0 0 319 321" fill="none" xmlns="http://www.w3.org/2000/svg">
<g clip-path="url(#clip0_5195_343100)">
<path d="M308.134 321C314.135 321 318.999 316.14 318.999 310.145C318.999 304.151 314.135 299.291 308.134 299.291C302.134 299.291 297.27 304.151 297.27 310.145C297.27 316.14 302.134 321 308.134 321Z" fill="#605239"/>
<path d="M308.135 319.385C313.243 319.385 317.384 315.249 317.384 310.146C317.384 305.043 313.243 300.906 308.135 300.906C303.027 300.906 298.887 305.043 298.887 310.146C298.887 315.249 303.027 319.385 308.135 319.385Z" fill="#907D57"/>
<path d="M312.674 301.943L300.043 314.562C298.919 315.685 297.142 315.845 295.847 314.926C251.991 284.074 215.414 248.891 188.6 207.89C187.754 206.596 187.936 204.885 189.039 203.794L201.809 191.036C202.933 189.914 204.699 189.753 205.994 190.662C245.836 218.573 281.118 254.954 312.995 297.666C313.969 298.97 313.83 300.788 312.685 301.933L312.674 301.943Z" fill="#3F1608"/>
<path style="mix-blend-mode:soft-light" d="M311.412 303.194L301.147 313.45C300.237 314.359 298.642 314.337 297.379 313.386C254.743 281.315 218.295 246.003 190.143 206.339C189.254 205.088 189.265 203.559 190.143 202.671L200.515 192.309C201.425 191.4 203.02 191.421 204.273 192.362C242.99 221.386 278.389 257.66 311.284 299.355C312.29 300.628 312.333 302.264 311.402 303.194H311.412Z" fill="url(#paint0_radial_5195_343100)"/>
<path style="mix-blend-mode:overlay" d="M311.412 303.194L301.147 313.45C300.237 314.359 298.642 314.337 297.379 313.386C254.743 281.315 218.295 246.003 190.143 206.339C189.254 205.088 189.265 203.559 190.143 202.671L200.515 192.309C201.425 191.4 203.02 191.421 204.273 192.362C242.99 221.386 278.389 257.66 311.284 299.355C312.29 300.628 312.333 302.264 311.402 303.194H311.412Z" fill="url(#paint1_radial_5195_343100)"/>
<path d="M197.004 169.413L167.268 199.121C164.592 201.794 160.01 201.698 156.713 198.885L124.011 170.964C120.276 167.766 119.676 162.408 122.716 159.361L157.206 124.905C160.246 121.868 165.619 122.467 168.82 126.199L196.769 158.869C199.584 162.162 199.691 166.729 197.004 169.413Z" fill="#523D21"/>
<path d="M192.465 168.622L166.475 194.587C164.131 196.929 160.128 196.833 157.259 194.384L128.678 169.98C125.413 167.189 124.889 162.495 127.544 159.843L157.687 129.728C160.342 127.076 165.041 127.6 167.835 130.862L192.262 159.415C194.724 162.292 194.81 166.291 192.465 168.622Z" fill="#30271A"/>
<path d="M102.012 203.827C158.352 203.827 204.025 158.198 204.025 101.913C204.025 45.6281 158.352 0 102.012 0C45.6725 0 0 45.6281 0 101.913C0 158.198 45.6725 203.827 102.012 203.827Z" fill="#30271A"/>
<path d="M102.011 199.891C156.175 199.891 200.084 156.025 200.084 101.913C200.084 47.8017 156.175 3.93555 102.011 3.93555C47.8463 3.93555 3.9375 47.8017 3.9375 101.913C3.9375 156.025 47.8463 199.891 102.011 199.891Z" fill="#5B4D35"/>
<path d="M102.011 195.806C153.917 195.806 195.996 153.769 195.996 101.913C195.996 50.0577 153.917 8.02051 102.011 8.02051C50.1055 8.02051 8.02734 50.0577 8.02734 101.913C8.02734 153.769 50.1055 195.806 102.011 195.806Z" fill="#907D57"/>
<path d="M102.012 191.026C151.275 191.026 191.211 151.129 191.211 101.913C191.211 52.6978 151.275 12.8008 102.012 12.8008C52.7484 12.8008 12.8125 52.6978 12.8125 101.913C12.8125 151.129 52.7484 191.026 102.012 191.026Z" fill="#605239"/>
<path d="M102.011 186.417C148.727 186.417 186.597 148.584 186.597 101.914C186.597 55.2437 148.727 17.4102 102.011 17.4102C55.2961 17.4102 17.4258 55.2437 17.4258 101.914C17.4258 148.584 55.2961 186.417 102.011 186.417Z" fill="#BCB8B8"/>
<path style="mix-blend-mode:soft-light" d="M102.013 183.722C147.239 183.722 183.901 147.095 183.901 101.913C183.901 56.7315 147.239 20.1045 102.013 20.1045C56.7876 20.1045 20.125 56.7315 20.125 101.913C20.125 147.095 56.7876 183.722 102.013 183.722Z" fill="url(#paint2_radial_5195_343100)"/>
<path style="mix-blend-mode:soft-light" d="M102.011 179.958C145.156 179.958 180.131 145.016 180.131 101.914C180.131 58.8108 145.156 23.8691 102.011 23.8691C58.8663 23.8691 23.8906 58.8108 23.8906 101.914C23.8906 145.016 58.8663 179.958 102.011 179.958Z" fill="url(#paint3_radial_5195_343100)"/>
<path style="mix-blend-mode:overlay" d="M79.8608 99.8828C85.0907 80.3836 77.8916 61.5143 63.7812 57.7371C49.6708 53.9599 33.9924 66.7051 28.7625 86.2043C23.5326 105.704 30.7317 124.573 44.8421 128.35C58.9525 132.127 74.6309 119.382 79.8608 99.8828Z" fill="url(#paint4_radial_5195_343100)"/>
<g style="mix-blend-mode:overlay" opacity="0.2">
<path d="M179.998 107.159C181.523 95.7435 176.061 85.5964 167.798 84.495C159.536 83.3937 151.602 91.7551 150.077 103.171C148.552 114.587 154.014 124.734 162.277 125.835C170.539 126.936 178.473 118.575 179.998 107.159Z" fill="white"/>
</g>
<path d="M167.164 199.209L197.085 169.318L199.847 172.078C201.301 173.53 201.301 175.889 199.847 177.341L175.187 201.977C173.734 203.429 171.372 203.429 169.919 201.977L167.156 199.217L167.164 199.209Z" fill="#523D21"/>
<path d="M297.966 314.932L312.922 299.99C313.709 299.204 314.989 299.196 315.783 299.99L317.116 301.321C318.569 302.773 318.569 305.132 317.116 306.584L304.566 319.121C303.113 320.573 300.751 320.573 299.298 319.121L297.966 317.791C297.179 317.004 297.171 315.726 297.966 314.932Z" fill="#523D21"/>
<path d="M176.351 200.808L198.703 178.478L201.466 181.238C202.919 182.69 202.919 185.049 201.466 186.501L184.375 203.575C182.921 205.027 180.56 205.027 179.106 203.575L176.344 200.815L176.351 200.808Z" fill="#3D2B16"/>
<path d="M204.774 190.288L188.356 206.689L186.684 205.018C185.23 203.566 185.23 201.207 186.684 199.755L197.84 188.609C199.294 187.157 201.655 187.157 203.108 188.609L204.781 190.28L204.774 190.288Z" fill="#332513"/>
<g style="mix-blend-mode:soft-light">
<path d="M291.221 299.505C289.209 301.516 285.023 299.997 280.56 296.928C247.355 274.129 221.311 248.623 203.414 220.049C200.588 215.536 198.95 211.515 200.941 209.526L201.144 209.323C196.809 213.654 288.449 302.275 291.221 299.495V299.505Z" fill="white"/>
</g>
</g>
<defs>
<radialGradient id="paint0_radial_5195_343100" cx="0" cy="0" r="1" gradientTransform="matrix(28.5826 -28.5549 35.2872 35.2529 188.256 219.661)" gradientUnits="userSpaceOnUse">
<stop stop-color="white"/>
<stop offset="1" stop-color="#333333"/>
</radialGradient>
<radialGradient id="paint1_radial_5195_343100" cx="0" cy="0" r="1" gradientTransform="matrix(56.2461 -56.1914 56.2461 56.1914 309.481 304.807)" gradientUnits="userSpaceOnUse">
<stop stop-color="white"/>
<stop offset="1" stop-color="#333333"/>
</radialGradient>
<radialGradient id="paint2_radial_5195_343100" cx="0" cy="0" r="1" gradientTransform="matrix(108.306 -108.201 108.306 108.201 17.7596 73.9999)" gradientUnits="userSpaceOnUse">
<stop stop-color="white"/>
<stop offset="1" stop-color="#333333"/>
</radialGradient>
<radialGradient id="paint3_radial_5195_343100" cx="0" cy="0" r="1" gradientTransform="matrix(103.333 -103.233 103.333 103.233 21.6251 75.2782)" gradientUnits="userSpaceOnUse">
<stop stop-color="white"/>
<stop offset="1" stop-color="#333333"/>
</radialGradient>
<radialGradient id="paint4_radial_5195_343100" cx="0" cy="0" r="1" gradientTransform="matrix(35.7338 -35.6991 35.7338 35.6991 17.9677 84.4654)" gradientUnits="userSpaceOnUse">
<stop stop-color="white"/>
<stop offset="1" stop-color="#333333" stop-opacity="0"/>
</radialGradient>
<clipPath id="clip0_5195_343100">
<rect width="319" height="321" fill="white"/>
</clipPath>
</defs>
</svg>
