<svg viewBox="0 0 32 32" xmlns="http://www.w3.org/2000/svg">
  <path d="m26.53 16 3.73-2.13c.67-.4 1.07-1.07 1.07-1.87s-.4-1.47-1.07-1.87l-.67-.4c-.53-.27-1.07-.4-1.6-.27s-1.07.53-1.33.93l-1.33 2.67V0H0v18.67h14.67V32H32V16zm1.33-4.8c.13-.13.27-.27.53-.4h.27c.13 0 .27 0 .4.13l.67.4c.4.27.4.53.4.67s0 .53-.4.67L26 14.8l1.87-3.6zM1.33 17.33v-16H24V14l-.8-3.07c-.27-1.07-1.47-1.73-2.53-1.47l-2.27.53c-.8.27-1.47.93-1.6 1.73s.27 1.73 1.07 2.13l3.73 2.13h-6.93v1.33H1.33zm21.6-2-4.4-2.53c-.4-.27-.4-.8-.4-.8 0-.13.13-.53.53-.67l2.27-.67h.27c.4 0 .67.27.8.53zm7.73 15.33H16v-8h14.67zm0-9.33H16v-4h14.67zM4 6.67h8V8H4zm0 2.66h8v1.33H4zm18.67-6.66h-5.33V8h5.33zm-1.33 4h-2.67V4h2.67z"/>
</svg>
