<svg viewBox="0 0 32 32" xmlns="http://www.w3.org/2000/svg">
  <path d="M25.174 14.687h-1.885l1.333-1.33h1.885zM32 10.694v12.928l-5.722 5.718H23.99V32H9.331v-7.999H0v-8.548a4.844 4.844 0 0 1 4.846-4.842h8.92c1.474 0 2.765.683 3.652 1.722l1.643-1.64zm-16.368 5.303h10.104l4.01-3.971H19.613zm-4.968 8.64v5.209l2.818-2.625zm1.073 6.03h9.838l-2.72-2.542-1.028.941c-.309.32-.737.48-1.166.48s-.857-.16-1.166-.48l-1.027-.942zm10.921-.811v-5.219l-2.818 2.584zm-1.296-5.838H11.96l4.436 4.066.03.028.028.029a.3.3 0 0 0 .207.073.3.3 0 0 0 .208-.073l.028-.03.03-.027zM1.333 22.67h2.639v-5.413h1.333v5.413h8.033v-6.266l3.135-3.128c-.643-.799-1.603-1.332-2.707-1.332h-8.92a3.516 3.516 0 0 0-3.513 3.51zm22.658 5.34h1.344V17.33H14.67v5.357h9.32v5.322m6.676-4.939V12.988l-4 3.962v10.116zm-16.671-9.084H9.997v1.332h3.999zM4.841 5.083V3.26h.046C5.115 1.432 6.668 0 8.557 0h1.057c1.889 0 3.442 1.432 3.67 3.26h2.711v1.332H13.33v.49a4.255 4.255 0 0 1-4.245 4.242 4.255 4.255 0 0 1-4.244-4.241M6.22 3.26h5.731a2.384 2.384 0 0 0-2.337-1.928H8.556A2.384 2.384 0 0 0 6.22 3.26m-.046 1.332v.49a2.914 2.914 0 0 0 2.911 2.91 2.914 2.914 0 0 0 2.912-2.91v-.49z"/>
</svg>
