<svg viewBox="0 0 32 32" xmlns="http://www.w3.org/2000/svg">
  <path d="m19.07 10.67-5.74 5.73v6.27h-4V32H24v-2.67h2.27L32 23.6V10.67zM19.6 12h10.13l-4 4H15.6zm-6.27 15.07-2.67 2.67v-4.93l2.67 2.27zm.93.93.93.8c.4.4.93.53 1.47.53s1.07-.13 1.34-.53l.93-.93 2.67 2.67h-10zm5.74-.93 2.67-2.27v4.93zm-2.8.8a.64.64 0 0 1-.93 0L11.73 24h9.73zm-2.53-5.2v-5.33h10.67v10.67h-1.33v-5.33h-9.33zm12 4.4V16.93l4-4v10.13zm-.14-13.74h-1.87l-1.33 1.33h1.87zm-11.86-6c0-4-3.33-7.33-7.33-7.33S0 3.33 0 7.33c0 1.33.4 2.53.93 3.73l6.4 10.93 6.4-10.93c.53-1.2.93-2.4.93-3.73m-2.13 3.07-5.2 8.93-5.2-8.93c-.53-.93-.8-2-.8-3.07 0-3.33 2.67-6 6-6s6 2.67 6 6a6.2 6.2 0 0 1-.8 3.07m-5.2-5.73c-1.47 0-2.67 1.2-2.67 2.67s1.2 2.67 2.67 2.67S10 8.8 10 7.33 8.8 4.67 7.33 4.67m0 4C6.53 8.67 6 8.13 6 7.33S6.53 6 7.33 6s1.33.53 1.33 1.33-.53 1.33-1.33 1.33"/>
</svg>
