<svg viewBox="0 0 32 32" xmlns="http://www.w3.org/2000/svg">
  <path d="M25.333 12V6.933c0-.933-.667-1.6-1.6-1.6H10.8c-.267 0-.533-.133-.667-.267L8.266 3.199c-.4-.267-1.067-.533-1.6-.533H1.599c-.933 0-1.6.667-1.6 1.6v18.4h8v6.667h24V12zm4.4 1.333L20.666 22.4c-.267.267-.8.267-1.2 0l-9.2-9.067zM8 21.333H1.333V4.266c0-.133.133-.267.267-.267h5.067c.267 0 .533.133.667.267l1.867 1.867c.4.267 1.067.533 1.6.533h12.933c.133 0 .267.133.267.267V12h-16v9.333zm1.333-7.066 6.4 6.4-6.4 6.4zM10.267 28l6.4-6.4 1.733 1.733c.4.4.933.667 1.6.667s1.067-.267 1.6-.667l1.733-1.733 6.4 6.4zm20.4-.933-6.4-6.4 6.4-6.4z"/>
</svg>
