<svg viewBox="0 0 32 32" xmlns="http://www.w3.org/2000/svg">
  <path d="M14.67 28h2.67v1.33h-2.67zM25.33 6.4V2.53C25.33 1.2 24.13 0 22.8 0H9.2C7.87 0 6.67 1.2 6.67 2.53v26.8C6.67 30.8 7.87 32 9.2 32h13.47c1.47 0 2.53-1.2 2.53-2.53V16.8l5.2-5.2zM28 10.93h-5.33V5.6zm-4 18.53c0 .67-.53 1.2-1.2 1.2H9.2c-.67 0-1.2-.53-1.2-1.2v-2.8h16zm0-4.13H8V2.53c0-.67.53-1.2 1.2-1.2h13.47c.8 0 1.33.53 1.33 1.2v2.4l-2-2-12 12 8.53 8.53L24 18zM12.53 14.4l8.8-8.8V14q0 .4-.4.4zm5.33 1.33v5.33l-5.33-5.33zm1.33 5.33v-5.33h1.73c.93 0 1.73-.8 1.73-1.73v-1.73h5.33z"/>
</svg>
