<svg viewBox="0 0 32 32" xmlns="http://www.w3.org/2000/svg">
  <path d="M28.8 28.8c-3.333-1.2-5.6-4.533-5.6-8.133s2.267-6.933 5.6-8.133l1.733-.667L28.8 11.2c-1.067-.267-2.267-.533-3.467-.533-2 0-3.733.533-5.333 1.6-.133-.533-.267-.933-.533-1.333l3.333-2-.667-1.2-3.333 2c-.533-.667-1.067-1.333-1.867-1.867l2-3.333-1.2-.667-2 3.333a10.4 10.4 0 0 0-2.4-.667V2.666H12v3.867c-.933.133-1.733.4-2.533.667L7.6 3.867l-1.2.667 2 3.333c-.667.533-1.333 1.067-1.867 1.867l-3.333-2-.667 1.2 3.333 2a10.4 10.4 0 0 0-.667 2.4H1.332v1.333h3.867c.133.933.267 1.733.667 2.533l-3.333 2 .667 1.2 3.333-2c.533.667 1.067 1.333 1.867 1.867l-2 3.333 1.2.667 2-3.333c.667.133 1.467.4 2.4.533v3.867h1.333v-3.867c.667 0 1.333-.267 2-.4.133 2.533 1.067 4.933 2.933 6.8 1.867 1.733 4.4 2.8 7.067 2.8 1.2 0 2.4-.267 3.467-.667l1.733-.667zm-16.133-8.667c-3.333 0-6.133-2.8-6.133-6.133s2.8-6.133 6.133-6.133c3.067 0 5.6 2.267 6 5.333-.133.133-.4.267-.533.4-1.6 1.6-2.533 3.6-2.8 5.867-.8.4-1.733.667-2.667.667zm12.666 9.2c-2.267 0-4.533-.933-6.133-2.533s-2.533-3.867-2.533-6.133.933-4.533 2.533-6.133 3.733-2.533 6.133-2.533c.4 0 .933 0 1.333.133-2.933 1.733-4.8 5.067-4.8 8.533s1.867 6.8 4.8 8.533c-.4.133-.933.133-1.333.133"/>
</svg>
