<svg viewBox="0 0 32 32" xmlns="http://www.w3.org/2000/svg">
  <path d="M20 17.33h10.67v1.33H20zm0 5.34h10.67V24H20zM20 28h10.67v1.33H20zm-3.47-7.87c-1.2 0-2.13-.93-2.13-2.13s.93-2.13 2.13-2.13 2.13.93 2.13 2.13-.93 2.13-2.13 2.13m0-2.93c-.4 0-.8.4-.8.8s.4.8.8.8.8-.4.8-.8-.4-.8-.8-.8m0 8.27c-1.2 0-2.13-.93-2.13-2.13s.93-2.13 2.13-2.13 2.13.93 2.13 2.13-.93 2.13-2.13 2.13m0-2.93c-.4 0-.8.4-.8.8s.4.8.8.8.8-.4.8-.8-.4-.8-.8-.8m0 8.26c-1.2 0-2.13-.93-2.13-2.13s.93-2.13 2.13-2.13 2.13.93 2.13 2.13-.93 2.13-2.13 2.13m0-2.93c-.4 0-.8.4-.8.8s.4.8.8.8.8-.4.8-.8-.4-.8-.8-.8m11.87-13.2h1.87L16 .4.4 16h4.93v16h1.33V14.67H3.6L16 2.27z"/>
</svg>
