<svg viewBox="0 0 32 32" xmlns="http://www.w3.org/2000/svg">
  <path d="M26.67 3.33c-1.07 0-2 .93-2 2s.93 2 2 2 2-.93 2-2-.93-2-2-2m0 2.67c-.4 0-.67-.27-.67-.67s.27-.67.67-.67.67.27.67.67-.27.67-.67.67m-1.47 6H5.47l-2-2c-.4-.4-.93-.67-1.47-.67-1.07 0-2 .93-2 2s.93 2 2 2c.8 0 1.47-.53 1.73-1.2l.8.8L8.27 26.8c-.93.4-1.6 1.47-1.6 2.53 0 1.47 1.2 2.67 2.66 2.67S12 30.8 12 29.33a2.25 2.25 0 0 0-.4-1.33h8.13c-.27.4-.4.8-.4 1.33 0 1.47 1.2 2.67 2.67 2.67s2.67-1.2 2.67-2.67-1.2-2.67-2.67-2.67H9.6l-.67-2.67H22zM2 12c-.4 0-.67-.27-.67-.67s.27-.67.67-.67.67.27.67.67S2.4 12 2 12m20 16c.8 0 1.33.53 1.33 1.33s-.53 1.34-1.33 1.34-1.33-.53-1.33-1.33S21.2 28 22 28m-3.33-14.67h4.8l-1.07 4h-3.73zM9.33 28c.8 0 1.33.53 1.33 1.33s-.53 1.33-1.33 1.33S8 30.13 8 29.33 8.53 28 9.33 28m1.33-5.33H8.53l-1.07-4h3.2zm0-5.33H7.2l-1.07-4h4.53zm6.67 5.33H12v-4h5.33zm0-5.33H12v-4h5.33zm1.33 5.33v-4H22l-1.07 4zM26.67 0c-2 0-3.6 1.07-4.53 2.67H10.4L7.73 5.33 10.4 8h2l.67.67a1.29 1.29 0 0 0 1.87 0l.67-.67h.8l.67.67c.27.27.67.4.93.4s.67-.13.93-.4l.67-.67h2.53c.93 1.6 2.67 2.67 4.53 2.67 2.93 0 5.33-2.4 5.33-5.33S29.6 0 26.67 0m0 9.33c-1.73 0-3.2-1.07-3.73-2.67h-3.87L18 7.73l-1.07-1.07h-1.87l-1.07 1.07-1.07-1.07h-2L9.6 5.33 10.93 4h12c.53-1.6 2-2.67 3.73-2.67 2.27 0 4 1.73 4 4s-1.73 4-4 4z"/>
</svg>
