<svg viewBox="0 0 32 32" xmlns="http://www.w3.org/2000/svg">
  <path d="M26.667 13.333c-1.6 0-2.933.933-3.6 2.267l-1.867-.533c.133-.4.133-.8.133-1.067a6.35 6.35 0 0 0-1.867-4.533l1.733-2c.667.267 1.467.533 2.133.533 2.267 0 4-1.733 4-4s-1.733-4-4-4-4 1.733-4 4c0 .933.4 1.867.933 2.533l-1.733 2c-1.2-.8-2.533-1.2-3.867-1.2-1.467 0-2.8.533-4 1.333L8.532 6.399q.8-1 .8-2.4c0-2.267-1.733-4-4-4s-4 1.733-4 4 1.733 4 4 4c.8 0 1.6-.267 2.133-.667l2.133 2.267c-.933 1.2-1.6 2.8-1.6 4.4 0 2.667 1.733 5.2 4.267 6.133l-1.2 3.867h-.4c-2.267 0-4 1.733-4 4s1.733 4 4 4 4-1.733 4-4c0-1.6-.933-2.933-2.267-3.6l1.067-3.867c.4.133.8.133 1.2.133 2.8 0 5.2-1.733 6.133-4.267l1.867.533v.4c0 2.267 1.733 4 4 4s4-1.733 4-4-1.733-4-4-4zm-3.334-12C24.8 1.333 26 2.533 26 4s-1.2 2.667-2.667 2.667c-.8 0-1.333-.4-1.733-.667-.533-.533-.933-1.2-.933-2 0-1.467 1.2-2.667 2.667-2.667zM7.2 6c-.533.4-1.2.667-1.867.667-1.467 0-2.667-1.2-2.667-2.667s1.2-2.667 2.667-2.667S8 2.533 8 4q0 1.2-.8 2m6.133 22c0 1.467-1.2 2.667-2.667 2.667S7.999 29.467 7.999 28s1.2-2.667 2.667-2.667c.267 0 .4 0 .667.133 1.2.267 2 1.333 2 2.533zm-.133-8.933C10.933 18.4 9.333 16.4 9.333 14c0-1.467.667-2.8 1.733-3.867l-.533-.533.4.533C12.933 8.266 16 8.266 18 10c1.2 1.067 1.867 2.533 1.867 4 0 .4-.133.933-.267 1.467-.667 2.267-2.8 3.867-5.067 3.867-.267 0-.8-.133-1.333-.267M26.667 20A2.675 2.675 0 0 1 24 17.333c0-.267 0-.4.133-.667.267-1.2 1.333-2 2.533-2 1.467 0 2.667 1.2 2.667 2.667S28.133 20 26.666 20z"/>
</svg>
