<svg viewBox="0 0 32 32" xmlns="http://www.w3.org/2000/svg">
  <path d="M22.933 23.333c4.267 0 7.467-4.667 7.467-10.267 0-6.8-5.2-11.867-12.933-11.867C8.4 1.332 1.6 7.866 1.6 16.666c0 8.667 6.133 14 15.067 14 3.467 0 6.533-.8 9.067-2.133l-.533-1.2c-2.667 1.467-5.6 2.133-8.533 2.133-8.133 0-13.6-4.933-13.6-12.8s6-14 14.4-14c7.067 0 11.6 4.533 11.6 10.667 0 4.4-2.267 8.8-5.733 8.8-1.333 0-2.267-.667-2.267-2 0-1.2.4-2.8.933-4.667l2-7.067h-1.467l-.933 3.067c-.533-2.267-2.133-3.6-4.667-3.6-4.533 0-7.867 4.8-7.867 9.867 0 3.467 1.867 5.6 5.067 5.6 2.533 0 4.667-1.467 5.867-4.133-.133.533-.267 1.067-.267 1.467.133 1.467 1.067 2.667 3.2 2.667zM18.8 19.467c-1.067 1.867-2.667 2.667-4.267 2.667-2.4 0-3.733-1.733-3.733-4.4 0-4.4 3.067-8.533 6.133-8.533 2.267 0 3.733 1.467 3.733 3.867 0 2-.8 4.667-1.867 6.4z"/>
</svg>
