<svg viewBox="0 0 32 32" xmlns="http://www.w3.org/2000/svg">
  <path d="M8.67 20c0 3.6 2.4 7.33 7.33 7.33 2.93 0 5.33-1.33 6.67-3.47h-1.2c-1.2 1.33-3.07 2.27-5.33 2.27-3.47 0-6-2.53-6-6.13 0-3.47 2.53-6.13 6-6.13 3.07 0 5.87 1.73 5.87 4.93 0 2.4-1.47 4.4-2.93 4.4-.27 0-.4-.27-.4-.53s.13-.67.27-.93l1.73-5.47h-1.33l-.67 1.07c-.53-1.07-1.33-1.6-2.27-1.6-2.8 0-4.67 2.8-4.67 5.47 0 1.6 1.2 3.07 2.8 3.07 1.33 0 2-.67 2.53-1.2q.2 1.2 1.6 1.2c1.73 0 4.53-2.13 4.53-5.6 0-4-3.6-6.13-7.2-6.13-4.8.13-7.33 3.73-7.33 7.47zm6.13 3.2c-.8 0-1.47-.67-1.47-2 0-2.4 1.87-4.13 3.2-4.13.67 0 1.6.4 1.6 1.87 0 1.6-1.33 4.27-3.33 4.27zm4.8-21.87H5.33v29.33h21.33V8.4l-7.07-7.07zM20 3.6 24.4 8H20zm5.33 25.73H6.67V2.67h12v6.67h6.67z"/>
</svg>
