<svg viewBox="0 0 32 32" xmlns="http://www.w3.org/2000/svg">
  <path d="M13.87 5.07c-.53-.27-1.07-.13-1.47.27l-6.67 6.67h-4.4v8h4.4l6.67 6.67c.27.27.53.4.93.4.13 0 .4 0 .53-.13q.8-.4.8-1.2V6.27c0-.53-.27-1.07-.8-1.2zm-.53 20.67-6.8-6.8c-.13-.13-.4-.27-.53-.27H2.67v-5.33H6c.13 0 .4-.13.53-.13l6.8-6.93zm6.79-16.01c1.6 1.73 2.53 3.87 2.53 6.27s-.93 4.53-2.53 6.27l.93.93c1.87-1.87 2.93-4.53 2.93-7.2s-1.07-5.33-2.93-7.2zm5.47-5.86-.93.93c3.07 2.93 4.67 6.93 4.67 11.2s-1.6 8.27-4.67 11.2l.93.93c3.2-3.2 5.07-7.6 5.07-12.13S28.93 7.07 25.6 3.87"/>
</svg>
