<svg viewBox="0 0 32 32" xmlns="http://www.w3.org/2000/svg">
  <path d="M27.33 2.67H8c-.53 0-1.07.27-1.47.53L3.2 6.53c-.27.4-.53.93-.53 1.47v19.33c0 1.07.93 2 2 2h22.67c1.07 0 2-.93 2-2V4.67c0-1.07-.93-2-2-2zM12 4h8v4h-8zm16 23.33c0 .4-.27.67-.67.67H4.67c-.4 0-.67-.27-.67-.67V8c0-.13.13-.4.13-.53l3.33-3.33c.13 0 .4-.13.53-.13h2.67v5.33h10.67V4h6c.4 0 .67.27.67.67v22.67zM16 12.67c-2.27 0-4 1.73-4 4s1.73 4 4 4 4-1.73 4-4-1.73-4-4-4m0 6.67c-1.47 0-2.67-1.2-2.67-2.67S14.53 14 16 14s2.67 1.2 2.67 2.67-1.2 2.67-2.67 2.67"/>
</svg>
