<svg viewBox="0 0 32 32" xmlns="http://www.w3.org/2000/svg">
  <path d="M27.333 2.667h-7.467c-.533 0-1.067.267-1.467.533l-15.2 15.333c-.8.8-.8 2 0 2.8L8.266 26.4c.8.8 2 .8 2.8 0l14.4-14.267c.4-.4.533-.933.533-1.467V7.999c0-1.067-.933-2-2-2h-2.8c-.533 0-1.067.267-1.467.533L6.799 19.465l.933.933L20.665 7.465c.133-.133.267-.133.533-.133h2.8c.4 0 .667.267.667.667v2.8c0 .133-.133.4-.133.533l-14.4 14.267a.644.644 0 0 1-.933 0l-5.067-5.067a.644.644 0 0 1 0-.933L19.465 4.132c.133 0 .267-.133.4-.133h7.467c.4 0 .667.267.667.667v7.467c0 .133-.133.4-.133.533l-16.4 16.133.933.933 16.267-16.267c.4-.267.667-.8.667-1.333V4.665c0-1.067-.933-2-2-2z"/>
</svg>
