<svg viewBox="0 0 32 32" xmlns="http://www.w3.org/2000/svg">
  <rect/>
  <path d="M4 20h2.7v1.3H4zm6.7-14v16c0 1.1-.9 2-2 2H2c-1.1 0-2-.9-2-2V6c0-1.1.9-2 2-2h6.6c1.1 0 2.1.9 2.1 2M1.3 6v11.3h8V6c0-.4-.3-.7-.7-.7H2c-.3 0-.7.3-.7.7m8 16v-3.3h-8V22c0 .4.3.7.7.7h6.6c.4 0 .7-.4.7-.7M24 25.3h2.7V24H24zM30.7 10v16c0 1.1-.9 2-2 2H22c-1.1 0-2-.9-2-2V10c0-1.1.9-2 2-2h6.6c1.1 0 2.1.9 2.1 2m-9.4 0v11.3h8V10c0-.4-.3-.7-.7-.7H22c-.3 0-.7.4-.7.7m8 16v-3.3h-8V26c0 .4.3.7.7.7h6.6c.4 0 .7-.3.7-.7M12 17.3h1.3V16H12zm2.7 0H16V16h-1.3zm2.6 0h1.3V16h-1.3z"/>
</svg>
