<svg viewBox="0 0 32 32" xmlns="http://www.w3.org/2000/svg">
  <path d="M31.2 3.47c-.53-.53-1.2-.8-1.87-.8H2.67A2.68 2.68 0 0 0 0 5.33v17.33c0 1.47 1.2 2.67 2.67 2.67H12l4 4c.93.93 2 1.33 3.33 1.33h2.13v-1.33h-2.13c-.93 0-1.73-.4-2.4-.93l-5.87-5.87a1.29 1.29 0 0 1 1.87 0l3.2 3.2.93-.93-8.93-8.93c-.27-.27-.27-.67 0-.93s.67-.27.93 0l3.87 3.73L16.26 22l.93-.93-3.33-3.33c-.27-.27-.27-.67 0-.93s.67-.27.93 0l3.33 3.33.93-.93-2.4-2.4c-.13-.13-.13-.27-.13-.53 0-.13.13-.4.13-.53a.64.64 0 0 1 .93 0l2.4 2.4.93-.93-1.47-1.47c-.27-.27-.27-.67 0-.93s.67-.27.93 0l6.27 6.27c.4.4.53.93.53 1.47v2.67h2.13c1.47 0 2.67-1.2 2.67-2.67V5.2c0-.53-.27-1.2-.8-1.73zm-.53 19.2c0 .8-.53 1.33-1.33 1.33h-.67v-1.33c0-.93-.4-1.73-.93-2.4L21.47 14c-.8-.8-2-.8-2.8 0-.13.13-.4.4-.4.67-.8-.4-1.73-.4-2.4.27-.13.13-.4.4-.4.67-.8-.4-1.73-.4-2.4.27-.13.13-.27.4-.4.53l-2.4-2.4c-.93-.8-2.27-.8-3.07 0s-.8 2 0 2.8l4 4c-.4.13-.93.27-1.2.67l-.93.93 1.6 1.6h-8c-.8 0-1.33-.53-1.33-1.33V5.34c0-.8.53-1.33 1.33-1.33h26.67c.4 0 .67.13.93.4s.4.53.4.93zM9.82 12.08l1.33-2.31 1.16.67-1.33 2.31zM5.98 9.91l1.25-.46.91 2.51-1.25.46zm-3.19 4.01.46-1.25 2.51.91-.46 1.25zm.42 3.87 2.31-1.33.67 1.15-2.31 1.33z"/>
</svg>
