<svg viewBox="0 0 32 32" xmlns="http://www.w3.org/2000/svg">
  <path d="M24.4.1H12.9c-1.2 0-2.2 1-2.2 2.2v22.1c0 1.2 1 2.2 2.2 2.2H18c-.1 1.3-.4 2.3-1.2 3-1.4 1.3-3.5 1.1-3.6 1.1-1.8 0-3.2-.5-4.2-1.6-2.5-2.6-2.4-7.9-2.4-11.8h1.1c.9 0 1.6-.7 1.6-1.6V12H8v-2c0-.4-.3-.7-.7-.7H4.7c-.4 0-.7.3-.7.7v2H2.7v3.7c0 .9.7 1.6 1.6 1.6h1c-.1 4.1-.2 9.8 2.7 12.8 1.3 1.3 3 2 5.1 2h.5c.9 0 2.7-.2 4.1-1.5 1-.9 1.5-2.3 1.6-4h5.1c1.2 0 2.2-1 2.2-2.2V2.3c.1-1.2-.9-2.2-2.2-2.2M5.3 10.7h1.3V12H5.3zm-1 5.2c-.1 0-.3-.1-.3-.3v-2.4h4v2.4c0 .1-.1.3-.3.3zm8.6-14.5h11.6c.5 0 .9.4.9.9V20H12V2.3c0-.5.4-.9.9-.9m11.5 23.9H12.9c-.5 0-.9-.4-.9-.9v-3.1h13.3v3.1c0 .5-.4.9-.9.9m-7.1-2.7h2.8V24h-2.8zm-1-5.2H21c.9 0 1.7-.8 1.7-1.7V7c0-.9-.8-1.7-1.7-1.7h-.3V4h-4v1.3h-.3c-.9 0-1.7.8-1.7 1.7v8.7c-.1.9.7 1.7 1.6 1.7M16 7c0-.2.2-.3.3-.3H21c.2 0 .3.2.3.3v8.7c0 .2-.2.3-.3.3h-4.7c-.2 0-.3-.2-.3-.3zm2.7 5h-2l2.7-4.7-.7 3.3h2L18 15.3z"/>
</svg>
