<svg viewBox="0 0 32 32" xmlns="http://www.w3.org/2000/svg">
  <path d="M16 4C9.3 4 4 9.4 4 16s5.4 12 12 12 12-5.4 12-12S22.6 4 16 4m0 1.3c2 0 3.9.6 5.5 1.6-1.5 1.7-6.8 6.6-14.7 3.7 1.9-3.2 5.3-5.3 9.2-5.3m0 21.4c-5.9 0-10.7-4.8-10.7-10.7q0-2.25.9-4.2c1.9.7 3.8 1.1 5.4 1.1 5.8 0 9.7-3.8 11-5.2 2.5 2 4.1 5 4.1 8.4 0 5.8-4.8 10.6-10.7 10.6M10.7 16c-.4 0-.7.3-.7.7H8.7c0-1.1.9-2 2-2s2 .9 2 2h-1.3c-.1-.4-.4-.7-.7-.7m12.6.7H22c0-.4-.3-.7-.7-.7s-.7.3-.7.7h-1.3c0-1.1.9-2 2-2s2 .9 2 2m-3.2 4 1 .8C19.9 23.1 18 24 16 24s-3.9-.9-5.2-2.5l1-.8c1 1.3 2.5 2 4.1 2 1.7 0 3.2-.7 4.2-2"/>
</svg>
