<svg viewBox="0 0 32 32" xmlns="http://www.w3.org/2000/svg">
  <path d="M22.198 19.408H10.27c-3.329 0-6.037 2.658-6.037 5.925V32h1.334v-6.667c0-2.532 2.11-4.592 4.703-4.592h.86l5.536 5.535 5.534-5.535c2.593.002 4.7 2.061 4.7 4.592V32h1.333v-6.667c0-3.267-2.708-5.925-6.036-5.925m-9.181 1.333h7.3l-3.65 3.65zm-2.1-10.03c0 .204.046.437.17.673a5 5 0 0 0-.17 1.283 5.333 5.333 0 0 0 10.667 0c0-.449-.062-.88-.172-1.294.104-.201.173-.418.173-.663V8.384l4-1.712-9.334-3.339L6.917 6.71l4 1.696zm5.334 5.956c-2.206 0-4-1.795-4-4 0-.1.013-.194.022-.29.17.076.356.149.568.216.91.289 2.12.447 3.41.447 1.45 0 2.936-.204 3.977-.678.01.101.023.201.023.305 0 2.205-1.795 4-4 4m4-5.957c0 .338-1.411.997-4 .997s-4-.659-4-.997V8.97l4 1.697 4-1.713zm-3.998-5.96 5.683 2.033-5.688 2.434-5.683-2.41zm-6.92 19.917h1.334V32H9.333zm12.667 0h1.333V32H22zM16 28h1.333v1.333H16zm0 2.667h1.333V32H16z"/>
</svg>
