<svg viewBox="0 0 32 32" xmlns="http://www.w3.org/2000/svg">
  <rect/>
  <path d="M2.4 29.1h1.3V32H2.4zM7.8 32h1.3v-2.9H7.8zm.4-9.1c0 1.3-1.1 2.4-2.4 2.4s-2.4-1.1-2.4-2.4 1.1-2.4 2.4-2.4 2.4 1.1 2.4 2.4m-1.4 0c0-.6-.5-1.1-1.1-1.1s-1.1.5-1.1 1.1.5 1.1 1.1 1.1c.7-.1 1.1-.5 1.1-1.1m5.9 9.1H14v-2.9h-1.3zm5.4 0h1.3v-2.9h-1.3zm-2-11.5c1.3 0 2.4 1.1 2.4 2.4s-1.1 2.4-2.4 2.4-2.4-1.1-2.4-2.4 1-2.4 2.4-2.4m0 1.3c-.6 0-1.1.5-1.1 1.1s.5 1.1 1.1 1.1 1.1-.5 1.1-1.1-.6-1.1-1.1-1.1M11.6 8.4c0-1 .8-1.7 1.8-1.7h5.4c1 0 1.8.8 1.8 1.7v2.9h1.3V8.4c0-1.7-1.4-3.1-3.1-3.1h-5.4c-1.7 0-3.1 1.4-3.1 3.1v2.9h1.3zm2.4.3h-1.3v2.6H14zm5.4 0h-1.3v2.6h1.3zm-5.7-6.3c0-1.3 1.1-2.4 2.4-2.4s2.4 1.1 2.4 2.4-1.1 2.4-2.4 2.4c-1.4 0-2.4-1.1-2.4-2.4m1.3 0c0 .6.5 1.1 1.1 1.1s1.1-.5 1.1-1.1-.5-1.1-1.1-1.1-1.1.5-1.1 1.1m13.9 23.4h-5.4c-1 0-1.8.5-2.4 1.2-.6-.7-1.4-1.2-2.4-1.2h-5.4c-1 0-1.9.5-2.5 1.2-.6-.7-1.4-1.2-2.5-1.2H3.1c-1.7 0-3.1 1.4-3.1 3.1V32h1.3v-3.1c0-1 .8-1.7 1.8-1.7h5.4c1 0 1.8.8 1.8 1.7V32h1.5v-3.1c0-1 .8-1.7 1.8-1.7H19c.9 0 1.6.6 1.7 1.5V32h1.5v-3.4c.1-.8.9-1.5 1.7-1.5h5.4c1 0 1.8.8 1.8 1.7V32h.9v-3.1c0-1.7-1.4-3.1-3.1-3.1m-6 6.2h1.3v-2.9h-1.3zm5.4 0h1.3v-2.9h-1.3zm-4.5-9.1c0-1.3 1.1-2.4 2.4-2.4s2.4 1.1 2.4 2.4-1.1 2.4-2.4 2.4-2.4-1.1-2.4-2.4m1.4 0c0 .6.5 1.1 1.1 1.1s1.1-.5 1.1-1.1-.5-1.1-1.1-1.1c-.7 0-1.1.5-1.1 1.1M8 17.3v-1.9l-1.7 1.7v-4.5H5v4.5l-1.7-1.7v1.9l2.3 2.3zm10.6-1.9L17 17.1v-4.5h-1.3v4.5L14 15.4v1.9l2.3 2.3 2.3-2.3zm10 1.9v-1.9L27 17.1v-4.5h-1.3v4.5L24 15.4v1.9l2.3 2.3z"/>
</svg>
