<svg viewBox="0 0 32 32" xmlns="http://www.w3.org/2000/svg">
  <rect/>
  <path d="M32 7.9h-9.9L18 12v8.7h-.5V4.5h-3.3v16.9c-.3.1-.7.4-.9.5v-3.3L11.6 13c-1.2-4-4-5.3-6.1-5.3H.9v15.5h2.3c2.3 0 4.3 1.9 4.3 4.3v.7h4.7V27c0-2.7 2.1-4.8 4.8-4.8l15-.2v-1.3h-3.1l3.1-3.1zM5.3 9.1c.7 0 3.7.3 4.9 4.4l1.6 5.3v2h-1.2l-2.1-2.1H2.3V9.1zm5.5 17.7h-2c-.3-2.8-2.7-4.9-5.5-4.9h-1V20h5.6l2.1 2.1h1.7v1.3c-.5 1-.9 2.1-.9 3.4m12-17.6h3.6l-2 2h2.9l2-2h.4l-2.4 2.3h-6.9zm-3.5 3.3v.3h7.6v7.7h-7.6zm-3.8-6.6h.7v14.8h-.7zm12.8 13.6v-7.1l2.4-2.3V17zm-11.5 3.6c-2.1 0-3.9 1.7-3.9 3.9s1.7 3.9 3.9 3.9 3.9-1.7 3.9-3.9-1.8-3.9-3.9-3.9m0 6.2c-1.3 0-2.5-1.1-2.5-2.5s1.1-2.5 2.5-2.5c1.3 0 2.5 1.1 2.5 2.5s-1 2.5-2.5 2.5M3.2 24.1c-1.9 0-3.2 1.5-3.2 3.2s1.5 3.3 3.2 3.3c1.9 0 3.2-1.5 3.2-3.2s-1.3-3.3-3.2-3.3m0 5.2c-1.1 0-1.9-.8-1.9-1.9s.8-1.9 1.9-1.9 1.9.8 1.9 1.9-.8 1.9-1.9 1.9"/>
</svg>
