<svg viewBox="0 0 32 32" xmlns="http://www.w3.org/2000/svg">
  <rect/>
  <path d="M31.3 11.3H18v10h13.3zm-6.6 5.8-5-4.4h10zm-3.1-.9-2.3 2.7v-4.7zm1 .9 2 1.8 2.6-2.3 2.2 3.5H20zm5.7-1.5 1.7-1.5v4.2zm-11.4 8.8c-2.1 0-3.8 1.7-3.8 3.8s1.7 3.8 3.8 3.8 3.8-1.7 3.8-3.8-1.7-3.8-3.8-3.8m0 6.3c-1.4 0-2.5-1.1-2.5-2.5s1.1-2.5 2.5-2.5 2.5 1.1 2.5 2.5-1.2 2.5-2.5 2.5M3.3 25.5C1.5 25.5 0 27 0 28.8S1.5 32 3.3 32s3.3-1.5 3.3-3.3-1.5-3.2-3.3-3.2m0 5.2c-1.1 0-1.9-.9-1.9-1.9s.9-1.9 1.9-1.9c1.1 0 1.9.9 1.9 1.9s-.9 1.9-1.9 1.9m14.1-8.6V5.9h-3.3v16.9c-.3.2-.6.3-.9.6V20l-1.7-5.6c-1.1-4-4-5.4-6.2-5.4H1v15.5h2.3c2.3 0 4.2 1.9 4.2 4.2v.7h4.6v-1.2c0-2.6 2.1-4.8 4.8-4.8l15.1-.1V22zM5.3 10.4c.6 0 3.7.2 4.9 4.4l1.6 5.3v2h-1.2l-2.2-2.2H2.3v-9.5zm5.5 17.7h-2c-.3-2.8-2.7-4.9-5.5-4.9h-1v-1.9h5.6l2.2 2.2h1.8v1.3c-.7.9-1.1 2-1.1 3.3m4.6-20.9h.7V22h-.7z"/>
</svg>
