<svg viewBox="0 0 32 32" xmlns="http://www.w3.org/2000/svg">
  <path d="m7.875 21.76.943.943-3.311 3.311-1.689-1.688.943-.943.746.746zM26.667 8.39v22.277H5.333v-2.698H2v-8.636h3.333V18H2V9.365h3.333V1.333H19.61zM20 8h4.39L20 3.61zM3.333 16.667h5.97v-5.97h-5.97zm0 9.968h5.97v-5.968h-5.97zm22 2.698v-20h-6.666V2.667h-12v6.698h3.968V18H6.667v1.333h3.968v8.636H6.667v1.364zM5.507 14.16l-.746-.747-.943.943 1.689 1.689 3.31-3.311-.942-.943zm7.16 1.173h8.666V14h-8.666zm0 2.667h8.666v-1.333h-8.666zm0 2.667h6v-1.334h-6z"/>
</svg>
