<svg viewBox="0 0 32 32" xmlns="http://www.w3.org/2000/svg">
  <path d="m29.3 30.7-2.7-17.2L28 1.3H4.7L6 13.5 3.3 30.7zm-2.8-28-.7 6h-19l-.7-6zm-19.2 11v-.4L7 10h18.8l-.4 3.4v.4l2.4 15.6H4.9zM20 7.3h3.3c1.1 0 2-.9 2-2s-.9-2-2-2H20c-1.1 0-2 .9-2 2s.9 2 2 2m0-2.6h3.3c.4 0 .7.3.7.6 0 .4-.3.7-.7.7H20c-.4 0-.7-.3-.7-.7 0-.3.3-.6.7-.6m-6.7 12.5-1.2-.7 2.3-3.9c.6-.9 1.4-1.4 2.4-1.4s1.9.5 2.4 1.4l1.4 2.5.8-2.8 1 1.6-1 3.7-3.7-1-1-1.6 2.8.8-1.5-2.5c-.2-.4-.7-.7-1.1-.7-.5 0-.9.3-1.2.7zm-2.6 1.7-2.7.8 1-1.6 3.7-1 1 3.7-1 1.6-.8-2.8-1.4 2.5c-.2.4-.2.9 0 1.4.2.4.7.7 1.1.7h4.6v1.4h-4.6c-1 0-1.9-.5-2.4-1.4s-.5-1.9 0-2.7zM22 17.5l2.3 4c.4.8.5 1.9.1 2.6-.6.9-1.4 1.4-2.4 1.4h-2.9l2.1 2.1h-1.9l-2.7-2.7 2.7-2.7h1.9l-2.1 2.1H22c.5 0 .9-.2 1.1-.6.2-.5.2-1 0-1.4l-2.3-4z"/>
</svg>
