<svg viewBox="0 0 32 32" xmlns="http://www.w3.org/2000/svg">
  <rect/>
  <path d="M7 19.9c-1.1-1.7-1.7-3.8-1.7-6 0-6.2 5.1-11.3 11.3-11.3C22.9 2.7 28 7.7 28 14c0 2.2-.6 4.2-1.7 6h-1.6c1.3-1.7 2-3.7 2-6 0-5.5-4.5-10-10-10s-10 4.5-10 10c0 2.2.8 4.3 2 6H7zm-.3 4.6c0-.7.6-.9 1-.9.5 0 .9.1 1.3.3l.1-1.1c-.5-.2-1-.2-1.6-.2-1.2 0-2.3.5-2.3 2 0 2.2 2.9 1.7 2.9 2.9 0 .6-.7.8-1.2.8s-1-.2-1.5-.4l-.1 1.2c.7.2 1 .3 1.7.3 1.3 0 2.5-.5 2.5-2 .1-2.3-2.8-1.8-2.8-2.9m7.2 2.2c0 .6-.2 1.6-1.1 1.6-.8.1-.8-.7-.8-1.3v-2.6h-1.3v3.1c0 1.1.5 1.9 1.7 1.9.7 0 1.2-.3 1.6-.8v.7h1.2v-4.9h-1.3zm3.9-2.2c0-.7.6-.9 1-.9.5 0 .9.1 1.3.3l.1-1.1c-.5-.2-1-.2-1.6-.2-1.2 0-2.3.5-2.3 2 0 2.2 2.9 1.7 2.9 2.9 0 .6-.7.8-1.2.8s-1-.2-1.5-.4l-.1 1.2c.7.2 1 .3 1.7.3 1.3 0 2.5-.5 2.5-2 .1-2.3-2.8-1.8-2.8-2.9M28 25.9c0 2-1.1 3.4-3.2 3.4s-3.2-1.4-3.2-3.4 1.1-3.4 3.2-3.4 3.2 1.4 3.2 3.4m-1.3 0c0-1.2-.5-2.3-1.9-2.3s-1.9 1.2-1.9 2.3c0 1.2.5 2.4 1.9 2.4s1.9-1.2 1.9-2.4M11.1 12.2l.3.4.5-.3v1.8h.6v-2.4h-.6zm9-1.8h-1l.2-.1c.2-.2.7-.7.7-1.1 0-.5-.4-.7-.9-.7-.1 0-.4 0-.7.1v.5c.1-.1.4-.2.6-.2q.3 0 .3.3c0 .3-.6.8-1.1 1.2v.5h1.7v-.5zm-3 4.9h-.2v-.4h1v-.4h-1.6v1.3c.2 0 .3-.1.5-.1.3 0 .5.1.5.4s-.3.4-.5.4-.4 0-.6-.1v.5c.2 0 .4.1.6.1.5 0 1.1-.2 1.1-.9.2-.6-.3-.8-.8-.8m3.4-2.4c.6.7.9 1.7 1 2.7 0 2.4-2 4.3-4.4 4.3-2.3 0-4.2-1.7-4.4-4-.2 0-.4.1-.6.1-1.8 0-3.2-1.4-3.2-3.2s1.4-3.2 3.2-3.3c1.4 0 2.6.9 3 2.1.3-.1.5-.2.8-.3-.3-.5-.4-1.1-.4-1.6 0-1.9 1.6-3.5 3.5-3.5s3.5 1.6 3.5 3.5c0 1.4-.7 2.6-2 3.2m-4-3.1c0 .5.2 1 .5 1.5h.2q1.5 0 2.7.9c1.1-.3 1.8-1.3 1.8-2.4 0-1.4-1.2-2.5-2.6-2.5-1.5 0-2.6 1.1-2.6 2.5M12.8 15c.1-1.1.7-2 1.6-2.8-.3-1-1.2-1.7-2.2-1.7-1.3 0-2.3 1-2.3 2.3s1 2.3 2.3 2.3c.1 0 .4 0 .6-.1m7.7.6c0-1.9-1.5-3.4-3.4-3.4s-3.4 1.5-3.4 3.4 1.5 3.4 3.4 3.4 3.4-1.5 3.4-3.4"/>
</svg>
