<svg viewBox="0 0 32 32" xmlns="http://www.w3.org/2000/svg">
  <path d="M6.838 20.007a11.26 11.26 0 0 1-1.724-5.989c0-6.26 5.074-11.333 11.334-11.333S27.78 7.759 27.78 14.018c0 2.202-.638 4.25-1.724 5.989h-1.625a9.93 9.93 0 0 0 2.012-5.989c0-5.512-4.484-9.996-9.996-9.996S6.45 8.506 6.45 14.018a9.93 9.93 0 0 0 2.012 5.989zm2.987 7.396c0 1.666-1.494 1.912-2.328 1.912H5.19v-6.603h2.307c.852 0 2.13.246 2.13 1.693 0 .785-.53 1.334-1.316 1.476v.018c.899.085 1.514.692 1.514 1.504m-3.31-2.023h.538c.559 0 1.249-.124 1.249-.805 0-.767-.672-.823-1.277-.823h-.51zM8.5 27.356c0-.86-.7-.993-1.362-.993h-.624v1.911h.624c.616 0 1.362-.15 1.362-.918m2.682 1.959h1.324V26.42h2.232v-1.04h-2.232v-1.628h2.347v-1.04h-3.67zm6.104-4.76c0-.718.588-.916 1.04-.916.464 0 .928.104 1.345.284l.123-1.089a5 5 0 0 0-1.58-.237c-1.163 0-2.31.54-2.31 2.016 0 2.185 2.897 1.665 2.897 2.923 0 .596-.672.852-1.173.852-.521 0-1.04-.162-1.495-.407l-.124 1.192c.654.161.975.255 1.694.255 1.333 0 2.478-.548 2.478-1.996 0-2.214-2.895-1.73-2.895-2.876m10.457 1.44c0 1.996-1.144 3.433-3.235 3.433-2.119 0-3.236-1.409-3.236-3.434s1.136-3.397 3.236-3.397c2.071 0 3.235 1.401 3.235 3.397m-1.381 0c0-1.165-.54-2.356-1.854-2.356s-1.854 1.191-1.854 2.355c0 1.192.5 2.394 1.854 2.394 1.353 0 1.854-1.202 1.854-2.394M17.086 9.551l-1.24 1.252h2.233l1.371-1.252zm1.777 10.462h-8.411v-8.41l3.598-3.6h8.412v8.41zm2.554-10.242-2.24 2.208v6.218l2.24-2.241zm-3.285 2.562h-6.595v6.636h6.595zm.315-1.085 2.233-2.2h-6.173l-2.233 2.2z"/>
</svg>
