<svg viewBox="0 0 32 32" xmlns="http://www.w3.org/2000/svg">
  <rect/>
  <path d="M10.7 22c0 .4-.3.7-.7.7s-.7-.3-.7-.7.3-.7.7-.7.7.3.7.7m-3.4-.7c-.4 0-.7.3-.7.7s.3.7.7.7.7-.3.7-.7-.3-.7-.7-.7M10 16c.4 0 .7-.3.7-.7s-.3-.7-.7-.7-.7.3-.7.7.3.7.7.7m-2.7 0c.4 0 .7-.3.7-.7s-.3-.7-.7-.7-.7.3-.7.7.4.7.7.7M10 9.3c.4 0 .7-.3.7-.7S10.4 8 10 8s-.7.3-.7.7.3.6.7.6m2.7 12c-.4 0-.7.3-.7.7s.3.7.7.7.7-.3.7-.7-.4-.7-.7-.7m0-5.3c.4 0 .7-.3.7-.7s-.3-.7-.7-.7-.7.3-.7.7.3.7.7.7m0-6.7c.4 0 .7-.3.7-.7S13 8 12.7 8c-.4 0-.7.3-.7.7s.3.6.7.6m-5.4 0c.4 0 .7-.3.7-.6S7.7 8 7.3 8c-.3 0-.6.3-.6.7s.3.6.6.6M16 22.7h9.3v-1.3H16zm9.3-8H16V16h9.3zm0-6.7H16v1.3h9.3zm3.1 4.7c.6.5.9 1.2.9 2v2.7c0 .8-.4 1.5-.9 2 .6.5.9 1.2.9 2V24c0 1.5-1.2 2.7-2.7 2.7H5.3c-1.5 0-2.7-1.2-2.7-2.7v-2.7c0-.8.4-1.5.9-2-.6-.5-.9-1.2-.9-2v-2.7c0-.8.4-1.5.9-2-.6-.5-.9-1.2-.9-2V8c0-1.5 1.2-2.7 2.7-2.7h21.3c1.5 0 2.7 1.2 2.7 2.7v2.7c0 .8-.3 1.5-.9 2M4 10.7c0 .7.6 1.3 1.3 1.3h21.3c.7 0 1.3-.6 1.3-1.3V8c0-.7-.6-1.3-1.3-1.3H5.3C4.6 6.7 4 7.3 4 8zm1.3 2.6c-.7 0-1.3.6-1.3 1.3v2.7c0 .7.6 1.3 1.3 1.3h21.3c.7 0 1.3-.6 1.3-1.3v-2.7c0-.7-.6-1.3-1.3-1.3zm22.7 8c0-.7-.6-1.3-1.3-1.3H5.3c-.7 0-1.3.6-1.3 1.3V24c0 .7.6 1.3 1.3 1.3h21.3c.7 0 1.3-.6 1.3-1.3v-2.7z"/>
</svg>
