<svg viewBox="0 0 32 32" xmlns="http://www.w3.org/2000/svg">
  <rect/>
  <path d="M14.453 28.667h1.333V32h-1.333ZM23.785 32h1.333v-3.333h-1.333Zm.15-6.667h-3.11v1.334h3.11Zm-8.297-8.52v-2.222h.011a3.595 3.595 0 0 1 3.58-3.481h1.116a3.595 3.595 0 0 1 3.579 3.481h2.085v1.334h-2.074v.889a4.149 4.149 0 0 1-8.297 0Zm1.345-2.222h5.608a2.254 2.254 0 0 0-2.246-2.148h-1.117a2.254 2.254 0 0 0-2.246 2.148Zm-.011 2.222a2.815 2.815 0 1 0 5.63 0v-.889h-5.63Zm6.257 5.704h-6.926a5.91 5.91 0 0 0-5.892 5.892V32h1.334v-3.59a4.564 4.564 0 0 1 4.558-4.559h6.925a4.537 4.537 0 0 1 4.505 4.559V32h1.334v-3.59a5.863 5.863 0 0 0-5.839-5.892ZM16 2.276l8.39 8.39h1.886L16 .392.39 16h4.892v16h1.333V14.667H3.61Z"/>
</svg>
