<svg viewBox="0 0 32 32" xmlns="http://www.w3.org/2000/svg">
  <path d="M14.667 21.706v-8.373H6.294l-3.58 3.58v8.373h8.373zm-3.039 1.153v-5.226l1.705-1.706v5.226zm-4.781-8.192h5.861l-2.106 2.106H4.74zm-2.8 3.44h6.248v5.846H4.047zm6.025-1.848H8l1.735-1.316h2.072zm12.501-4.36H32v1.332h-8.094v3.95H32v1.333h-9.427zm-6.616-4.99v18.945L2.56 28.008l.212 1.318 13.184-2.123v.013h5.03c.329 1.956 2.018 3.45 4.067 3.45s3.739-1.494 4.066-3.45H32v-1.334h-2.876c-.313-1.973-2.009-3.486-4.07-3.486s-3.756 1.513-4.07 3.486H17.29V8.242H32V6.909zm9.097 16.82c1.545 0 2.802 1.258 2.802 2.802s-1.257 2.802-2.802 2.802-2.802-1.257-2.802-2.802 1.257-2.801 2.802-2.801"/>
</svg>
