<svg viewBox="0 0 32 32" xmlns="http://www.w3.org/2000/svg">
  <path d="M24 13.333V4.667h-1.525C21.023 2.653 18.672 1.333 16 1.333s-5.023 1.32-6.475 3.334H8v8.666H2V30h28V13.333zM16 2.667c1.851 0 3.51.774 4.716 2h-9.432c1.205-1.226 2.865-2 4.716-2M9.333 6h13.334v7.333H9.333zm6 22.667H12v-5.334h3.333zm1.334 0v-5.334H20v5.334zm12 0h-7.334V22H10.667v6.667H3.333v-14h25.334zm-24-8h4.666V16H4.667zM6 17.333h2v2H6zm4.667 3.334h4.666V16h-4.666zM12 17.333h2v2h-2zM10.667 12h4.666V7.333h-4.666zM12 8.667h2v2h-2zM16.667 12h4.666V7.333h-4.666zM18 8.667h2v2h-2zm-1.333 12h4.666V16h-4.666zM18 17.333h2v2h-2zm4.667 3.334h4.666V16h-4.666zM24 17.333h2v2h-2zM4.667 26.667h4.666V22H4.667zM6 23.333h2v2H6zm16.667 3.334h4.666V22h-4.666zM24 23.333h2v2h-2z"/>
</svg>
