<svg viewBox="0 0 32 32" xmlns="http://www.w3.org/2000/svg">
  <path d="M26.757 2.667H24V0H10.667v2.667H6v2.666H2.667v5.334H0v6.666h2.667v5.334H6v2.666h3.333v2H6V32h24v-4.667h-4.667v-2h1.424A5.25 5.25 0 0 0 32 20.09V7.91a5.25 5.25 0 0 0-5.243-5.243M12 1.333h10.667v1.334H12zM1.333 16v-4h1.334v4zM4 21.333V6.667h2v14.666zm24.667 9.334H7.333v-2h21.334zM24 27.333H10.667v-2H24zm6.667-7.243a3.91 3.91 0 0 1-3.91 3.91H7.333v-9.333h2.756l3.509 6.666h2.525A2 2 0 0 0 18 22.667c1.103 0 2-.897 2-2s-.897-2-2-2c-.868 0-1.601.559-1.877 1.333h-1.72l-2.808-5.333h7.139c.332 2.623 2.553 4.666 5.266 4.666A5.34 5.34 0 0 0 29.333 14 5.34 5.34 0 0 0 24 8.667c-2.713 0-4.934 2.043-5.266 4.666h-8.322L13.078 8h4.378a2 2 0 0 0 1.877 1.333c1.103 0 2-.897 2-2s-.897-2-2-2c-.868 0-1.6.56-1.877 1.334h-5.2L8.92 13.333H7.333V4h19.424a3.91 3.91 0 0 1 3.91 3.91zM18 20a.668.668 0 0 1 0 1.333c-.367 0-.667-.3-.667-.666S17.633 20 18 20m2-6a4 4 0 1 1 8 0 4 4 0 0 1-8 0m-.667-7.333c.368 0 .667.3.667.666S19.7 8 19.333 8s-.666-.3-.666-.667.3-.666.666-.666m4 8v-4h1.334v4zm0 2.666v-1.43h1.334v1.43z"/>
</svg>
