<svg viewBox="0 0 32 32" xmlns="http://www.w3.org/2000/svg">
  <path d="M9.863 19.737c2.298 0 4.463-.958 4.463-.958s-.143-5-3.052-6.835c-1.456-.92-3.77-1.149-5.717-1.149-1.943 0-3.522.229-3.522.229s1.898 6.108 4.808 7.943c.907.573 1.977.77 3.02.77M3.87 12.185a26 26 0 0 1 1.686-.056c2.265 0 4.042.335 5.006.943 1.505.95 2.133 3.296 2.344 4.807-.752.24-1.891.525-3.044.525-.939 0-1.716-.19-2.309-.564-1.542-.974-2.9-3.703-3.683-5.655m15.853 9.626s.96.189 2.24.189c1.616 0 3.743-.3 5.1-1.657C29.496 17.911 30 11.535 30 11.535s-6.376.504-8.808 2.936c-2.433 2.432-1.468 7.34-1.468 7.34m8.743-8.742c-.33 2.074-1.051 5.037-2.346 6.332-1.046 1.046-2.838 1.266-4.156 1.266-.39 0-.747-.02-1.049-.046-.114-1.361-.114-3.874 1.219-5.207 1.29-1.29 4.256-2.013 6.332-2.345M0 20h5.333v10.667H0v-1.334h4v-8H0zm26.184 3.234a1.97 1.97 0 0 0-1.517.2l-6.879 3.972a.68.68 0 0 1-.666 0l-3.109-1.794a.667.667 0 1 1 .667-1.156l2.19 1.267a2 2 0 0 0 2.73-.733 2 2 0 0 0-.73-2.732l-2.265-1.308v-5.203l6.728-4.036V6.544a2 2 0 0 0 1.334-1.877c0-1.103-.897-2-2-2s-2 .897-2 2c0 .868.559 1.6 1.333 1.877v4.412l-5.395 3.237V3.896A2 2 0 0 0 18 2c0-1.103-.897-2-2-2s-2 .897-2 2c0 .89.589 1.638 1.395 1.896v7.056l-4.062-2.03V6.543a2 2 0 0 0 1.334-1.877c0-1.103-.897-2-2-2s-2 .897-2 2c0 .868.559 1.6 1.333 1.877v3.201l5.395 2.698v7.833a3.3 3.3 0 0 0-1.504-.382q-.435 0-.868.114l-4.906 1.315a2 2 0 0 0-1.482 1.932v4.565c0 .904.61 1.698 1.482 1.933l7.96 2.131a3.3 3.3 0 0 0 2.53-.332l8.06-4.654a2.002 2.002 0 0 0-.483-3.664M22.667 4a.668.668 0 1 1-.002 1.335A.668.668 0 0 1 22.667 4m-12 0a.668.668 0 1 1-.002 1.335A.668.668 0 0 1 10.667 4M16 1.333a.668.668 0 1 1-.002 1.335A.668.668 0 0 1 16 1.333m10 24.41-8.06 4.654a2 2 0 0 1-1.518.2l-7.959-2.132a.67.67 0 0 1-.495-.645v-4.565c0-.301.204-.566.494-.644l4.902-1.314q.263-.07.527-.07c.347 0 .69.093.995.27l3.317 1.915a.668.668 0 0 1-.665 1.156l-2.198-1.27a2.003 2.003 0 0 0-2.926 2.256c.138.512.468.942.933 1.213l3.112 1.796a2 2 0 0 0 1.996-.002l6.884-3.975a.63.63 0 0 1 .501-.063.667.667 0 0 1 .16 1.221"/>
</svg>
