<svg viewBox="0 0 32 32" xmlns="http://www.w3.org/2000/svg">
  <path d="M6.562 13.445a2.469 2.469 0 1 0 0-4.938 2.469 2.469 0 0 0 0 4.938m0-3.604c.626 0 1.136.51 1.136 1.135a1.137 1.137 0 0 1-2.271 0c0-.626.509-1.135 1.135-1.135m7.863 13.871a2.49 2.49 0 0 0-2.373-1.774H9.697v-4.172c0-1.73-1.406-3.136-3.135-3.136s-3.136 1.406-3.136 3.136v6.69c0 .03.008.057.01.087h-.847V11.938H1.256v13.938h.002v6.084h1.334v-6.084h1.19a3.13 3.13 0 0 0 2.78 1.715h.667v-1.715h3.413l.04 1.98v4.104h.084v.032h3.705l-.019-8.092zm-2.353 6.947-.127-6.253H7.23v-6.64H5.895v8.364a1.81 1.81 0 0 1-1.135-1.674v-6.69c0-.994.808-1.802 1.802-1.802s1.802.808 1.802 1.802v5.505h3.688c.474 0 .901.3 1.067.738l.016 6.65zm13.252-17.214a2.469 2.469 0 1 0 0-4.937 2.469 2.469 0 0 0 0 4.937m0-3.604a1.137 1.137 0 0 1 0 2.271c-.626 0-1.136-.51-1.136-1.136s.51-1.135 1.136-1.135m5.306 2.097h-1.333v12.605h-.846c0-.03.009-.057.009-.087v-6.69c0-1.73-1.407-3.136-3.136-3.136s-3.135 1.406-3.135 3.136v4.172h-2.356a2.49 2.49 0 0 0-2.372 1.774l-.046 8.28h3.705v-.032h.083v-4.051l.042-2.033h3.413v1.715h.666c1.215 0 2.26-.702 2.78-1.715h1.19v6.084h1.334v-6.084h.002zm-3.504 12.518c0 .758-.471 1.409-1.135 1.674v-8.364h-1.333v6.64H19.94l-.128 6.253h-1.06l.015-6.65a1.15 1.15 0 0 1 1.066-.738h3.69v-5.505c0-.994.808-1.802 1.801-1.802s1.802.808 1.802 1.802zM21.24 6.645a5.293 5.293 0 1 0-10.586 0 5.293 5.293 0 0 0 10.586 0m-5.293 3.96c-2.183 0-3.96-1.777-3.96-3.96s1.777-3.96 3.96-3.96 3.96 1.776 3.96 3.96-1.777 3.96-3.96 3.96m.556-4.933h1.604l-2.85 3.43.177-2.027h-1.336l1.203-2.605h1.87z"/>
</svg>
