<svg viewBox="0 0 32 32" xmlns="http://www.w3.org/2000/svg">
  <path d="M6.562 13.445a2.469 2.469 0 1 0 0-4.937 2.469 2.469 0 0 0 0 4.937m0-3.604a1.137 1.137 0 1 1-1.135 1.135c0-.625.509-1.135 1.135-1.135m7.863 13.868a2.49 2.49 0 0 0-2.373-1.774H9.697v-4.17c0-1.73-1.406-3.135-3.135-3.135s-3.136 1.405-3.136 3.134l.01 6.776h-.847V11.938H1.256v20.057h1.32l.016-6.122h1.19a3.13 3.13 0 0 0 2.78 1.714l.771.012v-1.603h3.334L10.655 32h3.838l-.04-8.103zm-2.353 6.945L12 24.664H7.333v-6.666H6v7.998c-.665-.265-1.24-.786-1.24-1.543v-6.689c0-.993.808-1.801 1.802-1.801s1.802.808 1.802 1.801v5.504h3.688c.474 0 .901.3 1.067.738l.016 6.648zm13.252-17.21a2.469 2.469 0 1 0 0-4.936 2.469 2.469 0 0 0 0 4.937m0-3.603a1.137 1.137 0 1 1-1.136 1.135c0-.625.51-1.135 1.136-1.135M30.667 12h-1.334l-.036 12.54h-.846l.009-6.776c0-1.729-1.407-3.134-3.136-3.134s-3.135 1.405-3.135 3.134v4.17h-2.356a2.49 2.49 0 0 0-2.372 1.775l-.115 8.287 3.989.007-.002-6.007h3.334l-.01 1.591h.667c1.215 0 2.26-.702 2.78-1.714h1.19v6.122l1.371-.003zm-3.54 12.453c0 .757-.472 1.408-1.136 1.674v-8.363h-1.333v6.9H20l-.187 5.99H18.75l.016-6.648a1.15 1.15 0 0 1 1.066-.738h3.69v-5.504c0-.993.808-1.801 1.801-1.801s1.802.808 1.802 1.801zM21.24 6.646a5.29 5.29 0 0 0-5.293-5.292 5.292 5.292 0 1 0 5.293 5.292m-5.293 3.959c-2.183 0-3.96-1.776-3.96-3.959s1.777-3.959 3.96-3.959 3.96 1.776 3.96 3.96-1.777 3.958-3.96 3.958m1.554-6.544 1.032.844-3.214 3.926-2.221-1.818.844-1.031 1.19.973z"/>
</svg>
