<svg viewBox="0 0 32 32" xmlns="http://www.w3.org/2000/svg">
  <path d="M26.617 27.996V2.666h-22.6v10.458a6.6 6.6 0 0 0-.665 2.846c0 .99.237 1.965.666 2.86v9.166H-.013v1.333h30.676v-1.333zM9.981 10.666a5.306 5.306 0 0 1 5.298 5.304c0 .93-.25 1.85-.723 2.665l-4.575 7.943-4.6-7.985a5.3 5.3 0 0 1-.697-2.623 5.306 5.306 0 0 1 5.297-5.303M5.35 21.208l3.867 6.713H5.35zm5.352 6.79 3.91-6.788v6.711h-3.867zM25.286 4v23.92h-9.262v-9.253c-.096.215.587-1.532.587-2.697a6.6 6.6 0 0 0-.587-2.7V4zM14.61 4v7.233a6.6 6.6 0 0 0-4.63-1.9 6.6 6.6 0 0 0-4.631 1.902V4zm4.053 11.99h-1.332v-2.66h1.332zm2.657 0h-1.33v-2.66h1.331zm2.672 0H22.66v-2.66h1.332zM9.98 18.46c1.371 0 2.486-1.117 2.486-2.489s-1.115-2.489-2.486-2.489a2.49 2.49 0 0 0 0 4.978m0-3.644a1.156 1.156 0 0 1 0 2.31 1.156 1.156 0 0 1 0-2.31"/>
</svg>
