<svg viewBox="0 0 32 32" xmlns="http://www.w3.org/2000/svg">
  <path d="m25.986 20.388-.01.003a9.99 9.99 0 0 0-7.31-9.354V5.333h.836c.643 0 1.165-.521 1.165-1.164V2.498c0-.643-.522-1.165-1.165-1.165h-7.004c-.643 0-1.165.522-1.165 1.165v1.67c0 .644.522 1.165 1.165 1.165h.835v5.704c-3.484.964-6.177 3.771-7.026 7.3l-.02-.011c-.025.104-.036.212-.058.317-.04.195-.08.388-.108.586-.071.47-.121.947-.121 1.438 0 5.523 4.477 10 10 10s10-4.477 10-10c0-.094-.011-.185-.014-.279M12.666 4V2.667h6.667V4zm1.023 8.322.978-.27V5.333h2.666v1.334H16V8h1.333v1.322H16v1.333h1.333V12H16v1.333h1.529v-1.227l.782.216a8.684 8.684 0 0 1 6.356 8.345l-.002.03a28.5 28.5 0 0 1-5.998.636c-4.25 0-8.136-.884-11.15-2.349.632-3.154 2.984-5.78 6.172-6.662m-6.356 8.345c0-.097.02-.188.024-.284 3.227 1.48 7.165 2.284 11.31 2.284 2.007 0 3.974-.192 5.872-.572l-.015.095a8.6 8.6 0 0 1-.336 1.29q-.038.11-.08.218c-.155.416-.338.82-.553 1.202l-.093.152a9 9 0 0 1-.782 1.13l-.017.019c-.292.35-.615.673-.958.973q-.058.055-.12.109a9 9 0 0 1-1.07.767q-.094.06-.192.117a8.6 8.6 0 0 1-1.178.567q-.107.041-.216.079a8.6 8.6 0 0 1-1.3.362c-.057.01-.115.016-.172.026-.475.08-.96.132-1.457.132-4.779 0-8.667-3.888-8.667-8.666m11.334 6.666a2 2 0 1 0 0-4 2 2 0 0 0 0 4m0-2.666a.667.667 0 1 1-.002 1.335.667.667 0 0 1 .002-1.335m2-4.667a2 2 0 1 0 0-4 2 2 0 0 0 0 4m0-2.667a.667.667 0 1 1-.002 1.335.667.667 0 0 1 .002-1.335M13.333 16a2 2 0 1 0 0 4 2 2 0 0 0 0-4m0 2.667a.667.667 0 1 1 .002-1.335.667.667 0 0 1-.002 1.335m-1.876-2.849a6.67 6.67 0 0 0-1.84 3.03.666.666 0 1 1-1.283-.362 8 8 0 0 1 2.208-3.638.667.667 0 0 1 .915.97M16.699 28a.666.666 0 0 1-.666.667 7.97 7.97 0 0 1-7.128-4.364 8 8 0 0 1-.74-2.182.67.67 0 0 1 .534-.777.675.675 0 0 1 .776.535 6.6 6.6 0 0 0 .617 1.818 6.64 6.64 0 0 0 5.94 3.636c.369 0 .667.299.667.667M16 14.678h1.529v1.334H16z"/>
</svg>
