<svg viewBox="0 0 32 32" xmlns="http://www.w3.org/2000/svg">
  <path d="m25.351 7.35 5.316-5.314V.15l-6.259 6.258-.505-.505a1.33 1.33 0 0 0-1.886 0l-1.55 1.55c-.032.032-.044.074-.072.108l-.035-.035a1.33 1.33 0 0 0-.943-.39c-.342 0-.683.13-.943.39L5.469 20.531c-.52.52-.52 1.365 0 1.886l1.465 1.466-2.977 2.977-2.075-2.075a.666.666 0 1 0-.943.943l5.333 5.333a.665.665 0 0 0 .943 0 .666.666 0 0 0 0-.943l-2.316-2.315 2.978-2.978 1.466 1.466a1.33 1.33 0 0 0 1.885 0l13.005-13.006a1.33 1.33 0 0 0 0-1.885l-.035-.035c.034-.028.076-.04.108-.072l1.55-1.55a1.333 1.333 0 0 0 0-1.886zM7.877 22.94l-1.465-1.466.885-.885 1.465 1.466zm2.408 2.408L8.82 23.882l.885-.885 1.465 1.466zm11.556-11.556-1.816-1.817-.943.943 1.817 1.817-1.349 1.348-1.816-1.817-.943.943 1.816 1.817-1.348 1.348-1.816-1.817-.943.943 1.817 1.817-1.348 1.348-1.817-1.817-.943.942 1.817 1.817-1.913 1.913-3.874-3.874L19.415 8.47h.002l3.874 3.874zm1.522-3.442L21.41 8.396l1.55-1.55 1.955 1.953z"/>
</svg>
