<svg viewBox="0 0 32 32" xmlns="http://www.w3.org/2000/svg">
  <path d="M14.868 17.96h-3.11v-1.334h3.11zM6.571 7.093V4.87h.011c.06-1.923 1.642-3.482 3.58-3.482h1.116c1.938 0 3.52 1.559 3.58 3.482h2.085v1.334h-2.075v.889a4.16 4.16 0 0 1-4.148 4.148 4.16 4.16 0 0 1-4.15-4.148M7.916 4.87h5.608a2.254 2.254 0 0 0-2.246-2.148h-1.117A2.254 2.254 0 0 0 7.916 4.87m-.011 2.223c0 1.552 1.263 2.815 2.815 2.815s2.815-1.263 2.815-2.815v-.89h-5.63zm22.735 12.37L19.462 30.64l-3.973-3.973H1.344v-7.978c0-3.241 2.652-5.892 5.892-5.892h6.926c1.881 0 3.527.91 4.592 2.293l3.757-3.757zm-7.798-5.912.198 4.996 4.891.093zm-8.686 11.782-2.569-2.568-.254-.254 6.476-6.476c-.819-1.149-2.144-1.905-3.647-1.905H7.236a4.564 4.564 0 0 0-4.558 4.559v6.644h2.708v-6.388H6.72v6.388zm4.484 2.598-.093-4.891-4.996-.198zm2.786-6.112h.01c.176 0 .256-.066.293-.106a.33.33 0 0 0 .092-.255l-.287-7.262-7.338 7.337zm-1.447 6.418 8.258-8.258-5.144-.097.059 1.491a1.675 1.675 0 0 1-1.779 1.779l-1.491-.06z"/>
</svg>
