<svg viewBox="0 0 32 32" xmlns="http://www.w3.org/2000/svg">
  <path d="M23.306 0H9.83a2.6 2.6 0 0 0-2.596 2.596v26.809A2.6 2.6 0 0 0 9.83 32h13.476a2.6 2.6 0 0 0 2.595-2.595V2.595A2.6 2.6 0 0 0 23.306 0M9.83 1.333h13.476c.696 0 1.262.567 1.262 1.263v22.737h-16V2.596c0-.696.566-1.263 1.262-1.263m13.476 29.334H9.83a1.263 1.263 0 0 1-1.262-1.262v-2.738h16v2.738c0 .696-.566 1.262-1.262 1.262M14.941 28h3.253v1.333h-3.253zm-1.707-8h-4v4h4zm-1.333 2.667h-1.333v-1.334H11.9zM18.568 20h-4v4h4zm-1.334 2.667h-1.333v-1.334h1.333zM23.901 20h-4v4h4zm-1.333 2.667h-1.334v-1.334h1.334zm-9.334-8h-4v4h4zm-1.333 2.666h-1.333V16H11.9zm6.667-2.666h-4v4h4zm-1.334 2.666h-1.333V16h1.333zm6.667-2.666h-4v4h4zm-1.333 2.666h-1.334V16h1.334zm-9.334-8h-4v4h4zM11.901 12h-1.333v-1.333H11.9zm6.667-2.667h-4v4h4zM17.234 12h-1.333v-1.333h1.333zm6.667-2.667h-4v4h4zM22.568 12h-1.334v-1.333h1.334zm-9.334-8h-4v4h4zm-1.333 2.667h-1.333V5.333H11.9zM18.568 4h-4v4h4zm-1.334 2.667h-1.333V5.333h1.333zM23.901 4h-4v4h4zm-1.333 2.667h-1.334V5.333h1.334z"/>
</svg>
