<svg viewBox="0 0 32 32" xmlns="http://www.w3.org/2000/svg">
  <path d="M25.333 9.479a9.333 9.333 0 1 0-18.666 0c0 1.753.492 3.388 1.333 4.789V32l8-7.862L24 32V14.268a9.3 9.3 0 0 0 1.333-4.79m-9.333-8c4.411 0 8 3.588 8 8s-3.589 8-8 8-8-3.59-8-8 3.589-8 8-8m.935 21.708L16 22.27l-.935.918-5.732 5.633V16.004a9.4 9.4 0 0 0 2.058 1.584v6.204a.666.666 0 1 0 1.333 0v-5.583a9.3 9.3 0 0 0 2.61.57v1.912a.666.666 0 1 0 1.333 0v-1.913a9.3 9.3 0 0 0 2.652-.585v5.599a.666.666 0 1 0 1.333 0v-6.23a9.4 9.4 0 0 0 2.015-1.557V28.82zM8.59 15.14l.045.06zm14.773.06.045-.06zM12.51 10.667h-1.96V7.874h1.92v.537h-1.18v.576h1.108v.536H11.29v.604h1.22zm.424-1.702q-.004-.166-.015-.378h.675q.009.068.013.173l.004.187h.007a1 1 0 0 1 .312-.295.8.8 0 0 1 .42-.117q.385 0 .595.225.21.226.21.659v1.248h-.72v-.989q0-.287-.07-.427t-.263-.14a.4.4 0 0 0-.226.06.4.4 0 0 0-.134.152.6.6 0 0 0-.064.212q-.015.12-.015.24v.892h-.725V9.262q0-.131-.004-.297m3.352 1.702h-.675V7.874h1.207l.26.873q.076.252.15.524.075.271.142.536h.008l.15-.536q.079-.273.158-.524l.268-.873h1.157v2.793h-.724v-.88l.001-.333.008-.717q.002-.18.006-.339h-.007l-.085.297q-.047.164-.1.33l-.18.57-.36 1.072h-.663l-.364-1.08-.065-.2-.103-.336-.112-.366a7 7 0 0 1-.084-.287h-.009a25 25 0 0 1 .01.698l.006.69zm3.29-1.696a.7.7 0 0 1-.054-.284q0-.216.087-.378c.087-.162.14-.198.243-.27q.154-.108.362-.162a1.8 1.8 0 0 1 .447-.054q.21 0 .396.02.19.02.357.072l-.044.58a1.8 1.8 0 0 0-.64-.124.7.7 0 0 0-.316.06q-.124.06-.124.187 0 .053.02.093a.2.2 0 0 0 .074.077 1 1 0 0 0 .143.08q.091.042.235.095.372.14.571.334.2.194.2.517a.9.9 0 0 1-.079.38.8.8 0 0 1-.23.285 1.1 1.1 0 0 1-.366.178 1.8 1.8 0 0 1-.484.062q-.447 0-.844-.12l.06-.612a2 2 0 0 0 .749.172.64.64 0 0 0 .317-.069.22.22 0 0 0 .117-.207q0-.112-.113-.192a2 2 0 0 0-.394-.184q-.165-.06-.302-.137-.138-.076-.236-.175a.8.8 0 0 1-.152-.224"/>
</svg>
