<svg viewBox="0 0 32 32" xmlns="http://www.w3.org/2000/svg">
  <path d="M3.61 14.667h3.005V32H5.282V16H.39L16 .39l10.471 10.472-.942.943L16 2.276zm7.057 8.718h8.615V32h-8.615zM12 30.667h5.949v-5.95H12zm1.538-3.744h2.872V25.59h-2.872zm7.18-3.538h8.615V32h-8.615zm1.333 7.282H28v-5.95h-5.949zm1.539-3.744h2.87V25.59h-2.87zm-12.923-13.59h8.615v8.616h-8.615zM12 20.615h5.949v-5.948H12zm1.538-3.743h2.872v-1.334h-2.872zm15.795-3.539v8.616h-8.615v-8.616zM28 14.667h-5.949v5.948H28zm-1.54.871h-2.87v1.334h2.87z"/>
</svg>
