<svg viewBox="0 0 32 32" xmlns="http://www.w3.org/2000/svg">
  <path d="M2.67 0v32h26.666V0zm25.332 30.667h-24V1.333h24zm-1.335-28H5.333V8h21.334zm-1.334 4H6.667V4h18.666zm-10.666 4.666H5.333V10h9.334zm-1.8 2.674H5.334v-1.334h7.535zm1.508 2.66H5.333v-1.334h9.042zM17.333 10h9.334v1.333h-9.334zm7.535 2.673v1.334h-7.535v-1.334zm-7.535 2.66h9.042v1.334h-9.042zm-8 3.938h-4V29.44h4zM8 28.106H6.667v-7.502H8zm8.889 1.334h4V18h-4zm1.333-10.107h1.334v8.773h-1.334zm-7.11 10.107h4v-6.991h-4zm1.332-5.658h1.334v4.324h-1.334zm10.223 5.655h4v-6.991h-4zM24 23.779h1.333v4.325H24z"/>
</svg>
