<svg viewBox="0 0 32 32" xmlns="http://www.w3.org/2000/svg">
  <path d="M25.011 5.333V2.667h-3.333V0H0v26.667h3.333v2.666h3.334V32h21.678V5.333zm-23.678-4h19.012v24H1.333zm3.334 25.334h17.011V4h2v24H4.667zm22.344 4H8v-1.334h17.011V6.667h2zM3.771 11.31h14.137V3.77H3.77zm1.332-6.207h11.472v4.874H5.103zm-1.333 8.23h5.655v1.334H3.77zm4.713 4H3.77V16h4.713zm-4.713 4h4.713v1.334H3.77zm14.138-6.666H11.31v-1.334h6.597zM11.31 16h5.654v1.333H11.31zm-1.886 4H3.77v-1.333h5.655zm1.886 0v-1.333h3.356V20zm0 1.333h4.022v1.334H11.31z"/>
</svg>
