<svg viewBox="0 0 32 32" xmlns="http://www.w3.org/2000/svg">
  <path d="M9.333 26H12v1.333H9.333zm-4.476-8.016V16.02a3.345 3.345 0 0 1 3.335-3.335H9.23c1.8 0 3.27 1.447 3.325 3.235h2.405v1.333h-2.395v.731a3.866 3.866 0 0 1-3.854 3.855 3.866 3.866 0 0 1-3.854-3.855M6.2 15.92h5.022a2 2 0 0 0-1.992-1.902H8.192A2 2 0 0 0 6.2 15.92m-.01 2.064c0 1.39 1.13 2.521 2.52 2.521s2.522-1.13 2.522-2.52v-.732H6.19zm24.477-16.65v16H17.333v-16zm-9.334 4h-2.666V16h2.666zm0-2.667h-2.666V4h2.666zm4 2.666h-2.666V16h2.666zm0-2.666h-2.666V4h2.666zm4 2.666h-2.666V16h2.666zm0-2.666h-2.666V4h2.666zM20.667 14h-1.334v1.333h1.334zm4 0h-1.334v1.333h1.334zm4 0h-1.334v1.333h1.334zM12.38 32h1.333v-3.622H12.38zm-.939-9.197H5.892C2.652 22.803 0 25.455 0 28.695V32h1.333v-3.305a4.564 4.564 0 0 1 4.559-4.558h5.55A4.564 4.564 0 0 1 16 28.695V32h1.333v-3.305a5.89 5.89 0 0 0-5.892-5.892M3.708 32h1.334v-3.622H3.708z"/>
</svg>
