<svg viewBox="0 0 32 32" xmlns="http://www.w3.org/2000/svg">
  <path d="M15.98 10.68s-3.985 4.22-3.985 6.724c-.001 2.953 2.171 3.956 3.99 3.957h.002c1.982 0 3.991-1.003 3.992-3.955 0-2.504-3.999-6.727-3.999-6.727m.006 9.347c-.716 0-1.388-.21-1.843-.576-.549-.442-.815-1.111-.815-2.047 0-1.082 1.346-3.117 2.654-4.706 1.312 1.59 2.664 3.626 2.663 4.708 0 1.74-.894 2.621-2.659 2.621m9.338-14.684h1.333v-4H5.324v4h1.333v21.333H5.324v4h21.333v-4h-1.333zM6.657 2.676h18.667V4.01H6.657zM7.99 5.343h16V8.02h-16zm0 4.01h16V22.67h-16zm17.334 19.99H6.657v-1.334h18.667zm-1.334-2.667h-16v-2.673h16zm-7.313-7.945a.666.666 0 0 1-.667.666c-1.146 0-1.887-.748-1.887-1.905a.666.666 0 1 1 1.333 0c0 .481.194.572.554.572.368 0 .666.298.666.667m-.362-4.464a.667.667 0 0 1 .233.914l-.433.728a.665.665 0 0 1-.912.233.667.667 0 0 1-.234-.914l.433-.728a.667.667 0 0 1 .913-.233"/>
</svg>
