<svg viewBox="0 0 32 32" xmlns="http://www.w3.org/2000/svg">
  <path d="M27.783 8h-.45v-.794A1.21 1.21 0 0 0 26.128 6h-2.922A1.21 1.21 0 0 0 22 7.206V8h-.45C20.699 8 20 8.698 20 9.55v13.566c0 .853.698 1.55 1.55 1.55h6.233c.852 0 1.55-.697 1.55-1.55V9.551c0-.853-.698-1.551-1.55-1.551m-4.45-.667H26V8h-2.667zm-2 2.218c0-.116.102-.218.218-.218h6.232c.115 0 .217.102.217.218V16h-6.667zm6.45 13.782H21.55a.223.223 0 0 1-.218-.217v-5.783H28v5.783a.223.223 0 0 1-.217.217M17.333 10.54a1.21 1.21 0 0 0-1.205-1.206h-2.922A1.21 1.21 0 0 0 12 10.54v.794H8v-.794a1.21 1.21 0 0 0-1.206-1.206H3.872a1.21 1.21 0 0 0-1.205 1.206v.794H1.333v13.334h17.334V11.333h-1.334zm-4 .128H16v.666h-2.667zm-9.333 0h2.667v.666H4zm-1.333 4.666h14.666v5.334H2.667zm0 8V22h14.666v1.333zM17.333 14H2.667v-1.333h14.666zm8-2h1.334v1.333h-1.334v1.334H24v-1.334h-1.333V12H24v-1.333h1.333zm-2.666 7.333h4v1.334h-4zm-7.334-.666H14V20h-1.333v-1.333h-1.334v-1.334h1.334V16H14v1.333h1.333zM4 17.333h4v1.334H4z"/>
</svg>
