<svg viewBox="0 0 32 32" xmlns="http://www.w3.org/2000/svg">
  <path d="M14.786 12.937q.24-.534.24-1.054 0-.413-.146-.713c-.146-.3-.229-.367-.394-.5s-.36-.231-.586-.294a2.8 2.8 0 0 0-.74-.093q-1 0-2.12.64l-.147-1.173a5.4 5.4 0 0 1 1.167-.407q.62-.14 1.34-.14.666 0 1.22.173.553.174.953.507t.62.814.22 1.093q0 .44-.133.88-.134.44-.427.926a8 8 0 0 1-.76 1.04q-.466.554-1.146 1.234-.574.573-1.094.993t-.96.727v.026q.307-.013.673-.02l.74-.013q.375-.007.727-.006h2.58v1.092h-5.946v-1.333a56 56 0 0 0 2-1.8q.826-.787 1.353-1.426.526-.64.766-1.173m10.081 3.693h-1.24v2.04h-1.253v-2.04h-4.401v-1.094l3.826-6.173h1.827v6.173h1.241zm-2.44-6.44H22.4q-.16.347-.46.906-.3.56-.607 1.054l-2.04 3.386h3.08v-2.613q0-.6.014-1.306.013-.707.04-1.427M16.48 1.333c-5.498 0-10.282 3.03-12.793 7.506.289-.103.591-.17.906-.17q.175 0 .36.024c.116.015.224.055.336.084 2.377-3.67 6.501-6.11 11.19-6.11 7.353 0 13.334 5.98 13.334 13.333 0 4.692-2.442 8.818-6.116 11.195.04.137.085.272.105.417.052.4-.01.788-.126 1.16 4.456-2.517 7.47-7.289 7.47-12.772 0-8.1-6.566-14.667-14.666-14.667m6 26.453a1.39 1.39 0 0 1-.397 1.17l-1.384 1.383h.002l-.885.885-.092-.004c-9.82-.782-17.698-8.73-18.389-18.493q0-.023-.002-.045l.898-.898v.006l1.379-1.378a1.38 1.38 0 0 1 1.168-.397c.433.057.807.307 1.025.685l1.925 3.334a1.396 1.396 0 0 1-.222 1.682L6.4 16.821a28.56 28.56 0 0 0 9.307 9.32l.772-.805c.447-.448.666-.666 2-.666l3.314 2.093c.378.217.628.59.686 1.023m-1.34.227-.024-.014-.033-.109-2.976-1.879c-.36.017-.456.058-.468.063-.032.02-.138.127-.215.204l-.754.786-.746.776-.916-.565a29.96 29.96 0 0 1-9.743-9.756l-.55-.897.743-.744 1.105-1.104c.02-.02.023-.05.01-.074l-1.925-3.333-.055-.03c-.012 0-.024 0-.042.019l-1.377 1.377-.463.463c.863 8.656 7.872 15.703 16.6 16.647l.446-.447z"/>
</svg>
