<svg viewBox="0 0 32 32" xmlns="http://www.w3.org/2000/svg">
  <path d="M27.388 4H4.612a1.95 1.95 0 0 0-1.945 1.945v14.777a1.95 1.95 0 0 0 1.945 1.945H12V28H6.667v1.333h18.666V28h-5.418v-5.333h7.473a1.95 1.95 0 0 0 1.945-1.945V5.945A1.95 1.95 0 0 0 27.388 4m-8.806 24h-5.249v-5.333h5.249zM28 20.722a.62.62 0 0 1-.612.611H4.612A.62.62 0 0 1 4 20.722V5.945a.62.62 0 0 1 .612-.612h22.776a.62.62 0 0 1 .612.612zM13.02 10.416h1.752V16h-1.08v-3.184q0-.256.005-.532l.007-.548q.005-.272.012-.512h-.015q-.064.2-.137.44l-.147.48-.145.456-.116.368L12.076 16h-1.008l-1.04-3-.104-.32a42 42 0 0 1-.44-1.456h-.016q.009.24.012.512l.008.548q.004.276.004.532V16H8.46v-5.584h1.808l.873 2.664q.111.351.243.808.133.456.229.848h.015q.113-.392.248-.848t.248-.808zm6.12 2.932q.352.388.352 1.004 0 .4-.148.724t-.42.552a1.9 1.9 0 0 1-.664.348q-.392.12-.872.12a4.5 4.5 0 0 1-1.48-.24l.104-.984q.36.177.688.248.329.072.624.072.448 0 .732-.18a.57.57 0 0 0 .284-.516.8.8 0 0 0-.047-.284.6.6 0 0 0-.173-.236 1.5 1.5 0 0 0-.332-.216 6 6 0 0 0-.528-.224q-.744-.272-1.08-.64-.336-.367-.336-.96 0-.368.144-.668t.408-.512a1.9 1.9 0 0 1 .632-.324 2.8 2.8 0 0 1 .816-.112q.377 0 .696.044.321.044.657.156l-.089.912q-.336-.135-.608-.188c-.272-.053-.357-.052-.527-.052q-.449 0-.709.172a.53.53 0 0 0-.26.46.7.7 0 0 0 .04.236.5.5 0 0 0 .152.208q.113.1.308.2.196.1.508.212.776.28 1.129.668m4.385 0q.351.388.351 1.004 0 .4-.148.724-.147.324-.42.552a1.9 1.9 0 0 1-.663.348q-.393.12-.873.12a4.5 4.5 0 0 1-1.479-.24l.103-.984q.36.177.689.248t.623.072q.448 0 .732-.18a.57.57 0 0 0 .284-.516.8.8 0 0 0-.047-.284.6.6 0 0 0-.173-.236 1.5 1.5 0 0 0-.332-.216 6 6 0 0 0-.527-.224q-.745-.272-1.081-.64-.336-.367-.336-.96 0-.368.144-.668.145-.3.408-.512.265-.212.633-.324t.815-.112q.376 0 .696.044.321.044.657.156l-.089.912a3.3 3.3 0 0 0-.608-.188 3 3 0 0 0-.527-.052q-.449 0-.709.172a.53.53 0 0 0-.26.46q0 .129.04.236a.5.5 0 0 0 .153.208q.112.1.307.2.197.1.508.212.776.28 1.129.668"/>
</svg>
