<svg viewBox="0 0 32 32" xmlns="http://www.w3.org/2000/svg">
  <path d="M25.333 20.675a.62.62 0 0 1-.611.612H1.945a.62.62 0 0 1-.612-.612V5.9a.62.62 0 0 1 .612-.612h22.777a.62.62 0 0 1 .611.612v.768h1.334V5.9a1.95 1.95 0 0 0-1.945-1.945H1.945A1.95 1.95 0 0 0 0 5.899v14.776a1.95 1.95 0 0 0 1.945 1.945h7.388v5.333H4v1.333h18.667v-1.333h-5.419V22.62h7.474a1.95 1.95 0 0 0 1.945-1.945V20h-1.334zm-9.418 7.278h-5.248V22.62h5.248zM16 8v10.667h14.667V8zm11.927 1.333L23.5 14.127a.22.22 0 0 1-.166.074c-.045 0-.111-.013-.187-.098l-4.407-4.77zm-5.76 5.674c.309.352.738.528 1.166.528s.858-.176 1.167-.528l.905-.979 3.112 3.305H18.174l3.088-3.304zm-1.812-1.96-3.022 3.232V9.776zm8.978 3.207-3.02-3.208 3.02-3.27zm-14.666-5.587H8V9.333h6.667zm0 2.666H9.333V12h5.334zm-4 2.667v-1.333h4V16z"/>
</svg>
