<svg viewBox="0 0 32 32" xmlns="http://www.w3.org/2000/svg">
  <path d="M11.506 15.333 10.666 24H22l-.84-8.667zm.63 7.334.58-6h7.234l.581 6zM25.332 5.954l-.029-1.334c-.575-1.897-2.506-3.287-4.591-3.287h-8.76c-2.084 0-4.015 1.39-4.59 3.287l-.03 1.334 1.258 7.511-1.258 11.868.063 1.334c.306 2.255 2.218 4 4.558 4h8.759c2.34 0 4.315-1.745 4.62-4v-1.334l-1.257-11.868zm-13.38-3.287h8.76c1.338 0 2.682.803 3.194 1.953H8.76c.512-1.15 1.856-1.953 3.194-1.953m12.034 3.287-1.144 6.713H9.823L8.68 5.954zm-3.274 23.38h-8.76c-1.6 0-2.937-1.15-3.228-2.667h15.216a3.29 3.29 0 0 1-3.228 2.666m-11.913-4L9.88 14h12.908l1.079 11.333zM20 28a.667.667 0 1 1 1.333 0A.667.667 0 0 1 20 28m-2 0a.667.667 0 1 1 1.333 0A.667.667 0 0 1 18 28"/>
</svg>
