<svg viewBox="0 0 32 32" xmlns="http://www.w3.org/2000/svg">
  <path d="m21.912 21.73-1.918-6.774c1.354-.21 2.182-1.155 2.485-1.852l.262-.6-.594-.272c-.977-.448-2.153-.983-3.353-1.519l-.819-2.891a.667.667 0 0 0-1.283.363l.517 1.828C14.735 8.93 12.48 8.003 12 8.003H6.282a3.336 3.336 0 0 0-3.333 3.33v6.662a3.34 3.34 0 0 0 2.666 3.265v10.724h6.667V12.901c1.363.418 3.987 1.233 5.2 1.66.397.173.765.282 1.115.354l1.929 6.816h-3.088l1.006 10.253h8.55L28 21.731zm-1.047-8.619a1.98 1.98 0 0 1-1.24.542l-.357-1.264zm-2.895.212c-1.741-.617-5.981-1.906-6.16-1.96l-.861-.262v19.55H9.615V19.995H8.282v10.658H6.949V12H5.615v7.88a2 2 0 0 1-1.333-1.885v-6.661c0-1.102.897-1.999 2-1.999l5.678-.002c.457.067 3.008 1.148 5.722 2.35l.485 1.712c-.067-.025-.128-.042-.197-.072m8.56 9.74-.097.98a.65.65 0 0 0-.346-.11h-7.093l-.085-.87zm-.589 2.203a3.274 3.274 0 0 1-3.216 2.691 3.274 3.274 0 0 1-3.216-2.691zm-6.288 5.386-.277-2.823a4.6 4.6 0 0 0 3.35 1.46 4.6 4.6 0 0 0 3.335-1.444l-.276 2.807zM8.948 6.67a3.33 3.33 0 0 0 3.334-3.33A3.333 3.333 0 0 0 8.948.008 3.33 3.33 0 0 0 5.615 3.34a3.33 3.33 0 0 0 3.333 3.33m0-5.33c1.103 0 2 .897 2 2a2 2 0 0 1-4 0c0-1.103.897-2 2-2"/>
</svg>
