<svg viewBox="0 0 32 32" xmlns="http://www.w3.org/2000/svg">
  <path d="M23.18 14.67h-1.885l1.333-1.33h1.886zm6.828-3.997v12.94l-5.724 5.724h-2.286V32H7.333v-9.323h4.009v-6.29l5.724-5.714zM13.636 15.98h10.106l4.013-3.975H17.617zm-3.673 8.03 4.437 4.07.03.027.028.029c.045.046.122.073.208.073s.163-.027.207-.073l.028-.03.03-.026 4.437-4.07zm2.509 4.11L9.74 30.667h9.84l-2.72-2.547-1.027.942c-.31.32-.738.48-1.166.48s-.858-.16-1.167-.48zm8.192 1.732V24.63l-2.82 2.587zM8.667 24.63v5.214l2.819-2.628zm13.33 3.374h1.344v-10.69H12.675v5.363h9.323v5.327m6.678-4.943v-10.09l-4 3.964v10.127zM8.996 11.697h1.886l4.363-4.364-4.363-4.363H8.996l3.697 3.697H2V8h10.693z"/>
</svg>
