<svg viewBox="0 0 32 32" xmlns="http://www.w3.org/2000/svg">
  <path d="M25.105 29.333V32h-1.333v-1.333h-4.667V32h-1.333v-2.667zM6.895 32h1.333v-1.333h4.667V32h1.333v-2.667H6.895zM17.531 3.169l-1.34 1.32h2.97l1.341-1.32zM3.534 20.744a2.03 2.03 0 0 1-.639-1.48v-7.816c0-1.41 1.063-2.115 2.125-2.115s2.126.705 2.126 2.115v5.565l2.15 3.698h1.37l-1.333-1.644c-1.013-1.52.233-3.005 1.514-3.005.404 0 .812.148 1.153.49.924.923 1.876 1.7 2.83 3.203a3.22 3.22 0 0 1 .287 2.89l-.844 2.19V28H7.162v-3.164zm.694-1.48c0 .193.08.378.22.51q.045.04.083.086l3.628 4.09c.217.245.336.56.336.886v1.83h4.445v-1.83c0-.164.03-.327.089-.48l.844-2.191a1.9 1.9 0 0 0-.168-1.695c-.684-1.077-1.367-1.735-2.09-2.432q-.28-.269-.558-.544c-.086-.087-.152-.099-.21-.099-.181 0-.4.143-.498.326-.056.106-.109.277.066.563l1.287 1.587a1.334 1.334 0 0 1-1.036 2.173h-1.37c-.476 0-.915-.252-1.154-.663l-2.15-3.698a1.33 1.33 0 0 1-.18-.67v-5.565c0-.68-.496-.781-.792-.781-.295 0-.792.101-.792.781zm18.477 1.447 2.15-3.698v-5.565c0-1.41 1.062-2.115 2.125-2.115s2.125.705 2.125 2.115v7.817c0 .56-.231 1.095-.639 1.48l-3.628 4.09V28h-7.11v-3.164l-.845-2.192a3.22 3.22 0 0 1 .286-2.889c.955-1.503 1.907-2.28 2.831-3.204a1.6 1.6 0 0 1 1.153-.489c1.28 0 2.527 1.484 1.514 3.005l-1.334 1.644zm0 1.333h-1.372a1.333 1.333 0 0 1-1.035-2.173l1.287-1.587c.175-.286.122-.457.066-.563-.098-.183-.317-.326-.498-.326-.058 0-.124.012-.21.099q-.277.276-.558.544c-.723.697-1.406 1.355-2.09 2.432a1.9 1.9 0 0 0-.168 1.695l.844 2.191c.06.153.09.316.09.48v1.83h4.444v-1.83c0-.326.12-.641.336-.885l3.628-4.091q.04-.045.083-.086a.7.7 0 0 0 .22-.51v-7.816c0-.68-.497-.781-.792-.781s-.792.101-.792.781v5.565c0 .236-.063.467-.18.67l-2.15 3.698c-.239.41-.678.663-1.153.663m-2.966-6.71H9.774V5.367l4.261-4.26H24v9.964zm2.928-11.807-2.41 2.234v7.17l2.41-2.411zm-3.744 2.637h-7.816V14h7.816zm.375-1.333 2.58-2.39h-7.29l-2.39 2.39z"/>
</svg>
