<svg viewBox="0 0 32 32" xmlns="http://www.w3.org/2000/svg">
  <path d="M29.782 2.446c-.707-.707-1.64-1.061-2.571-1.061s-1.865.354-2.572 1.061L8.038 19.06a3.6 3.6 0 0 0-.933 1.667.7.7 0 0 0-.094.182c-.008.026-.785 2.682-2.318 4.216l-.006.01-2.372 2.373c-.454.454-.767 1.375.107 2.25q.166.164.328.275c.038.026.074.042.11.065.071.042.142.084.21.114.043.018.084.028.126.042.062.02.124.04.184.05q.064.011.126.014c.037.003.075.012.11.012.018 0 .033-.005.05-.006q.092-.004.178-.021.061-.009.12-.023a1.4 1.4 0 0 0 .17-.06c.033-.015.068-.026.1-.042a2 2 0 0 0 .165-.098q.038-.022.072-.046.11-.08.2-.17l2.37-2.372.01-.007c1.529-1.528 4.222-2.263 4.249-2.27.024-.006.04-.022.063-.03a3.6 3.6 0 0 0 1.817-.978L29.782 7.593a3.65 3.65 0 0 0 0-5.147M5.808 25.87c.7-.756 1.242-1.657 1.64-2.473.16.288.346.565.59.81.223.223.475.399.736.552-.82.388-1.717.919-2.466 1.61zM28.84 6.649 12.238 23.264c-.432.432-1.01.67-1.629.67a2.286 2.286 0 0 1-2.3-2.3c0-.62.238-1.198.67-1.63L25.582 3.388a2.3 2.3 0 0 1 1.63-.67 2.286 2.286 0 0 1 2.3 2.3 2.3 2.3 0 0 1-.671 1.63m-.746-2.513a.52.52 0 0 0-.373-.154.53.53 0 0 0-.373.154l-.862.862-.377-.378a.666.666 0 1 0-.942.943l.377.378-.657.658-.377-.378a.666.666 0 1 0-.942.942l.377.378-.658.659-.378-.378a.666.666 0 1 0-.942.942l.378.378-.657.658-.378-.378a.666.666 0 1 0-.942.943l.378.378-.657.658-.378-.379a.667.667 0 1 0-.942.943l.377.378-.657.658-.377-.378a.666.666 0 1 0-.942.943l.377.378-.657.657-.378-.378a.666.666 0 1 0-.942.943l.378.378-.658.658-.377-.378a.666.666 0 1 0-.942.943l.377.378-.657.658-.378-.379a.666.666 0 1 0-.942.943l.378.378-.657.658-.378-.378a.666.666 0 1 0-.942.942l.378.379-.686.686a.53.53 0 0 0 .372.9c.135 0 .27-.051.373-.154l.686-.686.321.32a.664.664 0 0 0 .942 0 .667.667 0 0 0 0-.942l-.32-.321.656-.658.321.322a.664.664 0 0 0 .942 0 .667.667 0 0 0 0-.943l-.32-.321.656-.658.321.321a.664.664 0 0 0 .942 0 .667.667 0 0 0 0-.942l-.32-.322.657-.657.32.32a.665.665 0 0 0 .943.001.67.67 0 0 0 0-.943l-.32-.322.657-.657.32.321a.664.664 0 0 0 .943 0 .667.667 0 0 0 0-.943l-.321-.321.657-.658.321.321a.664.664 0 0 0 .942 0 .667.667 0 0 0 0-.943l-.32-.32.656-.658.321.32a.664.664 0 0 0 .942 0 .667.667 0 0 0 0-.942l-.32-.321.657-.658.32.321a.664.664 0 0 0 .942 0 .667.667 0 0 0 0-.943l-.32-.32.658-.659.32.322a.664.664 0 0 0 .943 0 .667.667 0 0 0 0-.943l-.321-.322.657-.657.321.321a.664.664 0 0 0 .942.001.67.67 0 0 0 0-.943l-.321-.322.862-.862a.53.53 0 0 0 0-.746"/>
</svg>
