<svg viewBox="0 0 32 32" xmlns="http://www.w3.org/2000/svg">
  <path d="m29.658 8.75-.649 1.166L16 2.688 2.99 9.916l-.647-1.165L16 1.163zM8 8h16v22.667h-4.571V28H12.57v2.667H8zm1.333 5.333h1.905V12H9.333zm3.238 0h6.858V12H12.57zm-3.238 5.334h1.905v-1.334H9.333zm3.238 0h6.858v-1.334H12.57zM9.333 24h1.905v-1.333H9.333zm3.238 0h6.858v-1.333H12.57zm-1.333 4H9.333v1.333h1.905zm11.429 0h-1.905v1.333h1.905zm0-2.667H9.333v1.334h13.334zm0-2.666h-1.905V24h1.905zm0-2.667H9.333v1.333h13.334zm0-2.667h-1.905v1.334h1.905zm0-2.666H9.333V16h13.334zm0-2.667h-1.905v1.333h1.905zM9.333 10.667h13.334V9.333H9.333z"/>
</svg>
