<svg viewBox="0 0 32 32" xmlns="http://www.w3.org/2000/svg">
  <style>
    .st0{fill:#000}
  </style>
  <path fill="currentColor" d="m30.17 20.957-6.574-7.072a1.7 1.7 0 0 0-1.246-.552h-5.017V7.32l-4.976-4.653h-9.69v8.824h.173c-.877.332-1.507 1.169-1.507 2.149v9.027l2.334-1.902 1 .815v6.48h2.13a2.84 2.84 0 0 0 2.8 2.375 2.84 2.84 0 0 0 2.8-2.376h9.206a2.84 2.84 0 0 0 2.8 2.376 2.84 2.84 0 0 0 2.8-2.376h1.72c.963 0 1.744-.82 1.744-1.832v-3.99c0-.478-.179-.938-.497-1.28m-2.83-.97h-4.447v-4.55zM12.667 4.782l2.422 2.264h-2.422zM11.333 4v4.38H16V20H6v-6.36c0-1.156-.874-2.11-2-2.273V4zm-7.666 8.668c.551 0 1 .459 1 1.024s-.449 1.024-1 1.024-1-.46-1-1.024.448-1.024 1-1.024m-.843 7.064-.157.128v-4.046c.304.147.64.236 1 .236s.696-.09 1-.236v4.046l-.158-.128-.842-.687zm6.773 9.37c-.835 0-1.514-.68-1.514-1.514 0-.835.68-1.514 1.514-1.514.835 0 1.514.68 1.514 1.514 0 .835-.679 1.514-1.514 1.514m14.806 0c-.835 0-1.514-.68-1.514-1.514 0-.835.679-1.514 1.514-1.514s1.514.68 1.514 1.514c0 .835-.68 1.514-1.514 1.514m4.93-2.875c0 .27-.187.5-.41.5h-1.82a2.84 2.84 0 0 0-2.7-1.986c-1.27 0-2.333.837-2.7 1.985h-9.406a2.84 2.84 0 0 0-2.7-1.985c-1.27 0-2.333.837-2.7 1.985H6v-5.393h11.333v-6.666h4.226v6.654h7.129l.506.544a.55.55 0 0 1 .14.373z" class="st0"/>
  <path d="M7.72 11.63h5.82v1.33H7.72zm-.04 2.24h4.15v1.33H7.68zm.04 2.24h5.79v1.33H7.72z" class="st0"/>
</svg>
