<svg viewBox="0 0 32 32" xmlns="http://www.w3.org/2000/svg">
  <path d="M25.669 12.996a2.27 2.27 0 0 1 0-3.367c1.552-1.401.539-3.951-1.508-3.951q-.063 0-.128.003l-.118.003A2.27 2.27 0 0 1 21.653 3.3c.073-1.429-1.085-2.39-2.286-2.39-.59 0-1.192.233-1.663.755a2.26 2.26 0 0 1-1.683.748 2.26 2.26 0 0 1-1.684-.748A2.2 2.2 0 0 0 12.675.91c-1.202 0-2.36.96-2.286 2.39a2.27 2.27 0 0 1-2.38 2.38l-.129-.003c-2.046 0-3.06 2.55-1.507 3.951.997.9.997 2.466 0 3.367-1.553 1.401-.54 3.952 1.507 3.952q.063 0 .128-.004l.118-.003c.606 0 1.151.245 1.558.634v13.758l6.353-6 6.32 6V17.574a2.25 2.25 0 0 1 1.676-.63q.065.004.128.004c2.046 0 3.06-2.55 1.508-3.952m-14.652 8.15c.33.288.729.438 1.147.505q.075.016.152.028c.065.006.125.035.192.035.018 0 .042-.006.061-.006v5.067l-1.552 1.465zm2.885 4.37v-4.183c.153-.104.3-.223.435-.372a2.24 2.24 0 0 1 .948-.615v3.863l-.164.155zm2.716-1.469v-3.744c.228.062.448.157.65.291.239.252.47.447.696.6q.19.158.397.265v4.242l-1.406-1.335zm4.406 4.182-1.33-1.262v-5.274c.493-.05.957-.253 1.33-.606zm3.998-13.216a.93.93 0 0 1-.917.6H24.1a3.61 3.61 0 0 0-2.795 1.116 3.57 3.57 0 0 0-.985 2.664.88.88 0 0 1-.238.681 1 1 0 0 1-.672.298 1.3 1.3 0 0 1-.53-.163c-.064-.044-.13-.08-.187-.142a3.6 3.6 0 0 0-.682-.573c-.459-.387-1.182-.594-1.932-.609-.02 0-.04-.006-.06-.006l-.01.001h-.017c-.867 0-1.734.248-2.184.747-.433.48-.843.705-1.204.74a1 1 0 0 1-.647-.293.88.88 0 0 1-.238-.68 3.57 3.57 0 0 0-.985-2.665 3.62 3.62 0 0 0-2.855-1.115c-.584 0-.807-.46-.86-.601-.07-.18-.184-.639.246-1.027a3.604 3.604 0 0 0 .001-5.346.9.9 0 0 1-.247-1.027.93.93 0 0 1 .92-.6q.095.004.187.004c.981 0 1.932-.408 2.609-1.12a3.57 3.57 0 0 0 .985-2.665.88.88 0 0 1 .238-.68c.183-.193.45-.308.717-.308q.389.001.673.314a3.605 3.605 0 0 0 5.346 0 .88.88 0 0 1 .673-.314c.266 0 .534.115.716.307.172.18.252.41.238.681-.051.996.3 1.942.986 2.664a3.61 3.61 0 0 0 2.854 1.115c.584 0 .807.46.861.601.07.18.183.64-.247 1.028a3.605 3.605 0 0 0 0 5.346c.43.388.316.847.247 1.027m-9.018-10.02a6.337 6.337 0 1 0 0 12.672 6.337 6.337 0 0 0 0-12.673m0 11.34a5.01 5.01 0 0 1-5.003-5.004c0-2.759 2.245-5.003 5.003-5.003s5.004 2.244 5.004 5.003a5.01 5.01 0 0 1-5.004 5.003m-1.06-3.971-1.596-1.596-.943.943 2.538 2.538L19.5 9.692l-.943-.943z"/>
</svg>
