<svg viewBox="0 0 32 32" xmlns="http://www.w3.org/2000/svg">
  <path d="m13.09 6.283-5.229 6.9a2.37 2.37 0 0 1-1.882.934H0v-1.333h5.979c.32 0 .626-.152.82-.407L11.95 5.58c.39-.927-.375-.833-.375-.833a.4.4 0 0 0-.304.136L7.527 9.089l-.996-.887 3.745-4.205c.33-.37.803-.584 1.3-.584l3.093.003h3.884c.03-.031.081-.113.081-.301a.66.66 0 0 0-.17-.467H8.952c-.316 0-.62.149-.814.4L4.784 7.38a2.38 2.38 0 0 1-1.869.917H0V6.964h2.915c.317 0 .62-.15.814-.4l3.353-4.333a2.38 2.38 0 0 1 1.869-.917h9.878l.138.068c.372.18 1 .749 1 1.733 0 1.078-.748 1.53-1.144 1.619l-.145.015h-5.471c.123.331.183.662-.008 1.317zm6.96 20.076c-.064.254-.043.334-.01.455l.043.174c.015.068-.005.136-.003.204h.343c.117 0 .23-.049.306-.136l3.745-4.204.995.885-3.745 4.206c-.33.37-.805.583-1.3.583l-3.093-.003H13.45c-.032.033-.083.116-.083.303 0 .266.04.404.066.467l9.616-.001c.316 0 .62-.15.816-.4l3.351-4.332a2.34 2.34 0 0 1 1.869-.917H32v1.334h-2.915c-.32 0-.618.145-.814.398l-3.353 4.333a2.38 2.38 0 0 1-1.869.917h-9.725l-.033.001c-.113 0-.443-.034-.75-.32-.337-.315-.508-.814-.508-1.48 0-1.073.745-1.528 1.139-1.619l.15-.017h5.471c-.124-.332-.182-.663.006-1.316l.11-.216 5.23-6.9a2.37 2.37 0 0 1 1.882-.935H32v1.333h-5.98c-.32 0-.625.153-.818.407zm-6.706 2.934-.03-.001-.035.001zM13.31 18h-1.334v4.732h1.334zm3.467 4.602h1.333V17.87h-1.333zM15.104 7.498a3.107 3.107 0 1 1 0 6.214 3.107 3.107 0 0 1 0-6.214m0 1.333c-.979 0-1.774.796-1.774 1.774s.795 1.773 1.774 1.773a1.774 1.774 0 0 0 0-3.547m2.206 7.084c1.23 0 2.23 1 2.23 2.23v4.522h1.334v-4.522a3.574 3.574 0 0 0-3.564-3.563h-4.413a3.574 3.574 0 0 0-3.564 3.563v4.522h1.334v-4.522c0-1.23 1-2.23 2.23-2.23z"/>
</svg>
