<svg viewBox="0 0 32 32" xmlns="http://www.w3.org/2000/svg">
  <path d="M27.388 4H4.612a1.95 1.95 0 0 0-1.945 1.945v14.777a1.95 1.95 0 0 0 1.945 1.945H12V28H6.667v1.333h18.666V28h-5.418v-5.333h7.473a1.95 1.95 0 0 0 1.945-1.945V5.945A1.95 1.95 0 0 0 27.388 4m-8.806 24h-5.249v-5.333h5.249zM28 20.722a.62.62 0 0 1-.612.611H4.612A.62.62 0 0 1 4 20.722V5.945a.62.62 0 0 1 .612-.612h22.776a.62.62 0 0 1 .612.612zM10.565 10.416h1.752V16h-1.08v-3.184q0-.256.005-.532l.007-.548q.005-.272.012-.512h-.016q-.063.2-.136.44l-.147.48-.145.456-.116.368L9.621 16H8.613l-1.04-3-.104-.32a42 42 0 0 1-.44-1.456h-.016q.009.24.012.512l.008.548q.004.276.004.532V16H6.005v-5.584h1.808l.873 2.664q.111.351.243.808.133.456.229.848h.015q.113-.392.248-.848t.248-.808zm5.736 1.464h1.08l-1.624 4.408q-.12.32-.268.592a2 2 0 0 1-.348.472 1.5 1.5 0 0 1-.464.312 1.5 1.5 0 0 1-.608.112 2.8 2.8 0 0 1-.768-.112l.08-.8q.247.08.528.08a.67.67 0 0 0 .456-.168q.192-.168.32-.6l-1.6-4.296h1.168l.64 1.992q.088.256.188.6t.188.664h.016q.088-.32.188-.66t.188-.604zm3.84-1.464h1.127V16h-1.127zm1.944 0h4.231v.944l-1.56-.024V16h-1.144v-4.664l-1.527.024z"/>
</svg>
