<svg viewBox="0 0 32 32" xmlns="http://www.w3.org/2000/svg">
  <path d="M10 14.583a3.745 3.745 0 0 0 3.683-3.083h.948a1.751 1.751 0 0 0 3.373-.667c0-.428-.172-.806-.427-1.11l1.656-3.038.805 1.34a3.73 3.73 0 0 0-1.288 2.808 3.75 3.75 0 1 0 3.75-3.75c-.467 0-.91.096-1.322.252l-2.5-4.168h2.155a.17.17 0 0 1 .167.166.17.17 0 0 1-.167.167.666.666 0 1 0 0 1.333c.827 0 1.5-.673 1.5-1.5s-.673-1.5-1.5-1.5H18.32a1.133 1.133 0 0 0-.97 1.714l.472.786h-4.67l-.713-1.166h.478a.666.666 0 1 0 0-1.334h-2.5a.666.666 0 1 0 0 1.334h.459l1.326 2.17-1.048 1.946a3.7 3.7 0 0 0-1.154-.2 3.75 3.75 0 1 0 0 7.5m12.5-6.166a2.42 2.42 0 0 1 2.417 2.416A2.42 2.42 0 0 1 22.5 13.25a2.42 2.42 0 0 1-2.417-2.417 2.4 2.4 0 0 1 .654-1.642l1.191 1.985a.666.666 0 1 0 1.144-.686l-1.19-1.983c.198-.053.403-.09.618-.09m-10.814.69c.295.288.508.653.625 1.06h-1.195zm4.564 2.147a.42.42 0 1 1 0-.842.42.42 0 0 1 0 .842m2.022-5.587-1.878 3.442c-.05-.005-.093-.03-.144-.03-.062 0-.115.03-.176.036l-2.107-3.448zm-5.265.987 1.895 3.1a1.7 1.7 0 0 0-.271.413h-.948a3.73 3.73 0 0 0-1.355-2.252zM10 8.417q.264.002.513.057l-1.1 2.044A.667.667 0 0 0 10 11.5h2.311A2.41 2.41 0 0 1 10 13.25a2.42 2.42 0 0 1-2.417-2.417A2.42 2.42 0 0 1 10 8.417m18.275 13.2s-6.378-1.954-6.697-2.225l-3.05-2.591a2.08 2.08 0 0 0-1.337-.468H6.242c-.503 0-.985.169-1.337.468l-3.006 2.554c-.342.291-.534.683-.534 1.09v6.32c0 .861.838 1.559 1.872 1.559h.537a2.987 2.987 0 0 0 5.85 0h10.847a2.987 2.987 0 0 0 5.85 0h1.807c1.034 0 1.872-.698 1.872-1.559v-1.49c0-1.813.034-3.212-1.725-3.658m-10.61-3.8 2.37 2.013-1.198 1.199h-7.879v-3.363h6.233a.75.75 0 0 1 .474.15m-11.897 0a.75.75 0 0 1 .474-.15h3.383v3.362H5.169L3.17 20.025zM6.7 29.374a1.655 1.655 0 0 1-1.653-1.653 1.654 1.654 0 0 1 3.306 0c0 .911-.742 1.653-1.653 1.653m16.697 0a1.655 1.655 0 0 1-1.653-1.653 1.654 1.654 0 0 1 3.306 0c0 .911-.742 1.653-1.653 1.653m4.732-2.383h-1.846a2.98 2.98 0 0 0-2.886-2.256 2.98 2.98 0 0 0-2.886 2.256H9.585c-.327-1.295-1.49-2.256-2.886-2.256s-2.559.961-2.886 2.256h-.576c-.33 0-.522-.167-.54-.226V21.28l2.155 1.082H19.39l1.717-1.717c.58.269 2.115.818 6.84 2.264.596.15.721.253.72 2.265v.1l.001 1.487c-.018.063-.21.23-.54.23"/>
</svg>
