<svg viewBox="0 0 32 32" xmlns="http://www.w3.org/2000/svg">
  <path d="m8.143 6.302-.552.329.194.382.372.735-.49.661-.98 1.321-.157.213-.228.137-1.725 1.035.048.69.046.66-.497.435-1.882 1.649-.211 1.046.066.098.717 1.052-1.019.765-.512.383v.334h1.37l.704-1.55.115-.253.207-.186.726-.653.406-.366.546.025.665.03 1.345.06-.074 1.345-.085 1.536L8.6 20.2l.32-.116q.152.657.393 1.276l-1.236.447-2.174-3.22.11-1.982-.665-.03-.727.654-1.06 2.33H0v-2.333l1.045-.784-.382-.561.411-2.04 2.22-1.945-.104-1.505 2.427-1.455.978-1.321-.756-1.494 2.344-1.395.932.621 2.12-1.277 1.594.219 2.092-.608 1.584-.08-.15-.875 2.239-1.397 1.375 1.446 1.745.312 4.571 2.768-1.107 2.616 2.017.304 1.292 1.343 1.844-1.55 1.397 1.275-.598 2.643.84.96-1.43 2.715-1.5-1.175-.07.021-.074.32.8.844v1.86l-1.576 1.082-.798-.772c.005-.116.018-.231.018-.349 0-.41-.036-.81-.087-1.205l.128.028.366.082.27.261.247.239.098-.067v-.627l-.434-.458-.493-.52.162-.698.074-.32.174-.754.74-.223.07-.02.662-.2.544.427.243.19.26-.492-.237-.27-.447-.511.15-.662.408-1.804-.893.75-.954.803-.865-.899-.977-1.016-1.57-.236-1.698-.256.67-1.582.657-1.554-3.373-2.042-1.5-.268-.431-.077-.301-.317-.626-.658-.557.348.251 1.471-1.499.077-1.428.073-1.943.564-.273.08-.281-.04-1.127-.154L9.803 6.49l-.725.436-.703-.469zM29.172 32l-7.126-7.11a7.95 7.95 0 0 1-4.04 1.103 7.99 7.99 0 0 1-6.898-3.962l-.013-.004c-.02-.033-.033-.07-.051-.103a8 8 0 0 1-.36-.717q-.053-.122-.102-.246a8 8 0 0 1-.243-.694q-.058-.205-.106-.414a8 8 0 0 1-.1-.48 8 8 0 0 1-.072-.476c-.018-.164-.025-.331-.034-.498C10.02 18.265 10 18.135 10 18c0-2.21.896-4.211 2.345-5.659a8 8 0 0 1 13.661 5.652 7.95 7.95 0 0 1-1.123 4.073L32 29.172zM14.865 16.127l.77-.64 1.922-1.6 1.51-1.256.61 1.866 1.117 3.407 1.709.807.976.46-.247 1.051-.207.878.506.618c.019-.029.032-.06.05-.088q.286-.439.5-.921c.053-.118.096-.24.141-.36q.14-.372.238-.763c.034-.14.07-.278.095-.42q.081-.465.096-.947c.002-.074.016-.145.016-.219A6.674 6.674 0 0 0 18 11.333a6.65 6.65 0 0 0-4.709 1.953 6.65 6.65 0 0 0-1.818 6.02l.007.044a6.6 6.6 0 0 0 .419 1.299c.042.095.103.18.149.273l.823.25 2.817-3.16-.422-.967zm3.142 8.533c1.81 0 3.448-.73 4.65-1.904l-1.08-1.321.357-1.518-2.229-1.052-1.295-3.953-1.922 1.6.764 1.749-3.953 4.434-.016-.004a6.64 6.64 0 0 0 4.724 1.969m11.164 5.455.943-.942-5.524-5.515-.915.974z"/>
</svg>
