<svg viewBox="0 0 32 32" xmlns="http://www.w3.org/2000/svg">
  <path d="M22.674 0H9.198a2.6 2.6 0 0 0-2.596 2.596v26.809A2.6 2.6 0 0 0 9.198 32h13.476a2.6 2.6 0 0 0 2.595-2.595V2.595A2.6 2.6 0 0 0 22.674 0M9.198 1.333h13.476c.696 0 1.262.567 1.262 1.263v22.737h-16V2.596c0-.696.566-1.263 1.262-1.263m13.476 29.334H9.198a1.263 1.263 0 0 1-1.262-1.262v-2.738h16v2.738c0 .696-.566 1.262-1.262 1.262M14.667 28h2.666v1.333h-2.666zm2.78-7.296c.091.024.234.05.446.05a3.5 3.5 0 0 0 .713-.085l.06-.002v-.013c.751-.17 1.837-.608 3.334-1.657 0 0-.3-8.599-.6-10.997 0 0-.985-.304-2.331-.503v-.79c0-2.127-2.025-2.68-3.09-1.672-1.143-1.008-3.312-.454-3.312 1.671v.916c-.71.074-1.413.166-2.058.283l-.6 11.691s3.138 1.114 7.27 1.114c.054 0 .113-.005.169-.006m3.193-2.402c-.863.549-1.515.83-1.973.974V8.784a17 17 0 0 1 1.5.272c.207 2.473.403 7.382.473 9.246M17.736 6.706v.635l-.222.003c-.061-.002-.12-.009-.18-.01v.014q-.306.007-.663.018v-.66c0-1.196 1.063-1.19 1.065 0m-3.736 0c0-.637.36-.863.667-.863s.666.226.666.863v.714c-.428.022-.876.05-1.333.083zm-2.115 2.35c1.91-.255 4.1-.343 5.448-.374v10.694h-.055c-2.546 0-4.71-.454-5.883-.76zm4.211 1.932 1.141.69-2.88 4.76-2.139-1.945.897-.986.94.854z"/>
</svg>
