<svg viewBox="0 0 32 32" xmlns="http://www.w3.org/2000/svg">
  <path d="M11.333 30.667v-4h-3.85V9.033l3.184-6.366h14.007v4.786a1.99 1.99 0 0 0-1.34 1.88c0 .87.558 1.602 1.333 1.878V14h-1.334v-1.333a.666.666 0 1 0-1.333 0v2.666h4v-4.122a1.99 1.99 0 0 0 1.333-1.878c0-.866-.554-1.597-1.325-1.875V2.667H28V1.333H0v6h3.333v19.334H0V32h32v-1.333zm14-20.667a.667.667 0 1 1 .002-1.335.667.667 0 0 1-.002 1.335M9.176 2.667l-.909 1.817h-3.6V2.667zM1.333 6V2.667h2V6zm3.334-.182H7.6L6.51 8H4.666zm0 3.515H6.15v17.334H4.667zM1.333 30.667V28H10v2.667z"/>
</svg>
