<svg viewBox="0 0 32 32" xmlns="http://www.w3.org/2000/svg">
  <path d="M28.26 8.178c-1.67-.188-2.32-.398-2.829-1.227-.371-.606-.51-1.36-.784-2.035-.087-.212-.239-.482-.423-.554q-3.916-1.516-7.858-2.964a1.2 1.2 0 0 0-.403-.065 1.5 1.5 0 0 0-.507.088c-2.425.903-4.833 1.855-7.26 2.75-.575.212-.854.502-.965 1.152-.311 1.827-1.28 2.662-3.073 2.8-.102.007-.202.034-.341.058-.044.404-.11.79-.124 1.179-.096 2.52.062 5.014.63 7.478 1.44 6.245 4.745 10.923 10.583 13.496.207.091.398.22.597.333h.89c.072-.044.14-.098.215-.13 4.861-1.978 8.201-5.502 10.103-10.51.95-2.505 1.44-5.11 1.594-7.777.077-1.359-.025-2.728-.045-4.072m-1.287 3.996c-.154 2.698-.648 5.111-1.508 7.379-1.796 4.728-4.857 7.917-9.36 9.75l-.07.03h-.169a4 4 0 0 0-.422-.22c-5.184-2.283-8.396-6.397-9.821-12.575-.502-2.174-.697-4.506-.598-7.128l.003-.06c1.97-.387 3.153-1.663 3.518-3.803q.009-.056.018-.087.032-.015.093-.038c1.312-.484 2.618-.984 3.924-1.484a400 400 0 0 1 3.335-1.266l.037-.005c2.393.878 4.91 1.827 7.487 2.822.074.193.137.393.2.592.157.49.334 1.045.655 1.567.66 1.076 1.542 1.477 2.662 1.691l.005.141c.032.935.062 1.817.011 2.694M16 7.334a8 8 0 1 0 0 16 8 8 0 0 0 0-16m5.884 4.933h-1.852c-.255-1.125-.649-2.115-1.138-2.912a6.67 6.67 0 0 1 2.99 2.912m-2.852 3.066c0 .608-.053 1.179-.127 1.73h-2.219V13.6h2.219c.074.552.127 1.124.127 1.733m-6.064 0c0-.609.053-1.18.127-1.733h2.258v3.463h-2.258a13 13 0 0 1-.127-1.73m2.385-6.462v3.396h-2c.44-1.708 1.2-2.946 2-3.396m0 9.525v3.4c-.8-.45-1.561-1.69-2-3.4zm1.333 3.373v-3.373h1.961c-.432 1.682-1.175 2.904-1.96 3.373m0-9.502V8.898c.786.468 1.528 1.689 1.96 3.369zm-3.58-2.912c-.49.797-.883 1.787-1.138 2.912h-1.852a6.67 6.67 0 0 1 2.99-2.912M9.6 13.57v.031h2.14a15 15 0 0 0-.105 1.733c0 .595.038 1.172.105 1.73H9.59c-.15-.555-.257-1.128-.257-1.73 0-.614.11-1.198.267-1.764m.514 4.827h1.853c.255 1.126.649 2.118 1.14 2.916a6.67 6.67 0 0 1-2.993-2.916m8.78 2.916c.49-.798.884-1.79 1.139-2.916h1.853a6.67 6.67 0 0 1-2.992 2.916m3.51-4.227v-.023H20.26a15 15 0 0 0 .105-1.729c0-.595-.038-1.174-.105-1.733h2.15c.15.556.257 1.13.257 1.733 0 .61-.11 1.19-.263 1.752"/>
</svg>
