<svg viewBox="0 0 32 32" xmlns="http://www.w3.org/2000/svg">
  <path d="M29.333 1.333h-28v29.334h1.334V17.333h26.666v13.334h1.334V1.333zM24 16v-2.667h-2.667V16h-2.666v-2.667H16V16h-2.667v-2.667h-2.666V16H8v-2.667H5.333V16H2.667v-2.667h2.666v-2.666H2.667V8h2.666V5.333H2.667V2.667h2.666v2.666H8V2.667h2.667v2.666h2.666V2.667H16v2.666h2.667V2.667h2.666v2.666H24V2.667h2.667v2.666h2.666V8h-2.666v2.667h2.666v2.666h-2.666V16zM8 8V5.333h2.667V8zm5.333 0V5.333H16V8zm5.334 0V5.333h2.666V8zM24 8V5.333h2.667V8zM8 10.667H5.333V8H8zM13.333 8v2.667h-2.666V8zm5.334 0v2.667H16V8zM24 8v2.667h-2.667V8zm-13.333 2.667v2.666H8v-2.666zm5.333 0v2.666h-2.667v-2.666zm5.333 0v2.666h-2.666v-2.666zm5.334 2.666H24v-2.666h2.667z"/>
</svg>
