<svg viewBox="0 0 32 32" xmlns="http://www.w3.org/2000/svg">
  <path d="M30 1.333H1.979a.667.667 0 1 0 0 1.334h3.354v28h5.334a5.2 5.2 0 0 1 1.341-2.368c1.028-1.028 2.51-1.541 3.992-1.541s2.964.513 3.992 1.54a5.2 5.2 0 0 1 1.341 2.369h5.334v-28H30a.667.667 0 0 0 0-1.334m-4.667 28h-3.055a6.4 6.4 0 0 0-1.344-1.977c-1.227-1.228-3.026-1.932-4.934-1.932s-3.707.704-4.934 1.932a6.4 6.4 0 0 0-1.344 1.977H6.667V2.667h18.666zM8.897 18.667l1.527-2.394-1.374-2.26h1.454l.34.62a12 12 0 0 1 .467.927q.045-.1.103-.217l.236-.486.114-.217.34-.627h1.353l-1.36 2.193 1.493 2.46h-1.493l-.393-.732a9 9 0 0 1-.127-.237l-.133-.26a6 6 0 0 1-.12-.247 3 3 0 0 1-.08-.19 3 3 0 0 1-.094.187 18 18 0 0 1-.273.503l-.134.244-.412.733zm9.44 0h-1.493l-.393-.733a9 9 0 0 1-.127-.237l-.133-.26a6 6 0 0 1-.12-.247 3 3 0 0 1-.08-.19 3 3 0 0 1-.094.187 18 18 0 0 1-.273.503q-.074.13-.134.244l-.413.733h-1.433l1.527-2.394-1.374-2.26h1.454l.34.62a12 12 0 0 1 .466.927l.104-.217.236-.486.113-.217.34-.627h1.354l-1.36 2.193zm4.614-4.654-1.361 2.193 1.493 2.46H21.59l-.393-.732a6 6 0 0 1-.127-.237l-.134-.26a6 6 0 0 1-.12-.247 3 3 0 0 1-.079-.19 3 3 0 0 1-.094.187l-.13.243q-.07.13-.143.26a9 9 0 0 0-.133.244l-.414.733h-1.434l1.528-2.394-1.374-2.26h1.453l.341.62q.132.24.257.487.123.247.21.44.045-.1.102-.217l.117-.243a8 8 0 0 1 .234-.46l.34-.627zM10 21.333h1.333v1.334H10zm-1.333 1.334H7.333v-1.334h1.334zm4-1.334H14v1.334h-1.333zm2.666 0h1.334v1.334h-1.334zm2.667 0h1.333v1.334H18zm2.667 0H22v1.334h-1.333zm4 1.334h-1.334v-1.334h1.334zm-6.2-11.334H15.8l.162-.766h1.854l.489-2.282h2.447l.327-1.527h-2.46l.523-2.44h-1.657l-.523 2.44h-.812l.685-3.196h3.28l-.518 2.44h2.453l-.653 3.043h-2.439zm-3.46 0H9.914l.045-.215h5.095zm-2.757-1.28h.871l.081-.375h2.168l.047-.214h-2.169l.14-.646h.506c.266 0 .44-.027.61-.076.625-.19 1.006-.702 1.12-1.252.164-.751-.245-1.333-1.001-1.458a3 3 0 0 0-.397-.027H13.12l-.744 3.459h-2.055l-.046.214h2.055zm1.578-3.303h.381c.109 0 .19.01.256.033.218.07.365.272.288.63-.054.268-.217.518-.49.616a1.1 1.1 0 0 1-.31.044h-.408zm1.357 3.757h-5.094l.046-.213h5.094z"/>
</svg>
