<svg viewBox="0 0 32 32" xmlns="http://www.w3.org/2000/svg">
  <path d="M22.92 26.706h7.728v1.333h-8.674V32h-1.333V19.659L19.313 21a4.8 4.8 0 0 0-.84-1.047l3.501-3.54v9.353l8.849-8.736.937.948zm-1.614-21.41h-2.648V3.963h2.33L19.669.65l10.996.017v6.048c0 2.539-2.099 4.605-4.678 4.605-2.581 0-4.68-2.066-4.68-4.605zm8.025 1.419V5.296h-6.692v1.419c0 1.804 1.502 3.271 3.347 3.271S29.33 8.52 29.33 6.715m-6.945-2.752h6.945V1.997l-7.694-.011zm-6.542 14.765 2.962-3.04a3.25 3.25 0 0 1 2.312-.976h9.53a.666.666 0 1 0 0-1.333h-9.53a4.6 4.6 0 0 0-3.268 1.378l-3.808 3.91h1.194c.208 0 .406.035.608.06m-7.487 2.226-8.293.001v-8.299L3.73 8.994h8.294v8.292zm2.334-4.22v-5.456l-1.845 1.828v5.473zm-8.24-4.578h5.46l1.846-1.829h-.992l-1.002.98H6.117l1.002-.98H4.283zm-1.054 7.466 6.116-.001v-6.13H1.397zm13.936 1.2h-4.411v1.334h4.411a2.26 2.26 0 0 1 2.256 2.255 2.26 2.26 0 0 1-2.256 2.256h-6.21l2.129-2.13H9.367L6.57 27.332l2.752 2.752h1.885L9.122 28h6.211c1.979 0 3.589-1.61 3.589-3.589s-1.61-3.588-3.589-3.588"/>
</svg>
