<svg viewBox="0 0 32 32" xmlns="http://www.w3.org/2000/svg">
  <path d="M20.424 9.06a2.576 2.576 0 1 0 0-5.151 2.576 2.576 0 0 0 0 5.152m0-3.818a1.244 1.244 0 0 1 0 2.485 1.244 1.244 0 0 1-1.242-1.242c0-.685.557-1.243 1.242-1.243m-6.727 13.606v-7.571h3.636v2.444l.182.182.163.163.989.989.181.182v-3.96h3.334v1.39h1.333v-2.2a.523.523 0 0 0-.523-.523h-9.296V8.46c.164.026.328.048.498.048a3.588 3.588 0 1 0-3.588-3.588c0 .445.091.867.241 1.26H1.333v12.667H10.3a4.3 4.3 0 0 0 2.367 3.16v-1.574a3 3 0 0 1-1.007-1.586zM11.939 4.921a2.257 2.257 0 0 1 2.255-2.254 2.257 2.257 0 0 1 2.254 2.254 2.257 2.257 0 0 1-2.254 2.254 2.3 2.3 0 0 1-.497-.059V6.18h-1.372a2.24 2.24 0 0 1-.386-1.259M2.667 7.514h9.697v10.001H2.667zm1.757 1.941h6.182v2H8.515v4.513h-2v-4.513h-2.09zm23.802 14.433 2.437.003.004-3.769-2.438-.003a1.14 1.14 0 0 1-.446-.513 1.17 1.17 0 0 1-.046-.678l1.723-1.72-2.66-2.665-1.725 1.721q-.146.03-.278.03-.216 0-.401-.077a1.14 1.14 0 0 1-.51-.444l.001-2.44H20.12l-.002 2.438q-.21.318-.51.443a1.1 1.1 0 0 1-.402.077q-.133 0-.276-.03l-1.723-1.724-2.664 2.665 1.72 1.722q.078.377-.044.676-.127.302-.448.513h-2.438v3.768h2.437q.32.21.444.508.125.308.047.684l-1.724 1.72 2.66 2.664 1.726-1.721q.146-.03.282-.031.21 0 .391.075.305.128.516.45l-.002 2.437h3.768l.002-2.436q.21-.32.51-.445.186-.077.403-.077.133 0 .274.03l1.721 1.728 2.668-2.665-1.722-1.728a1.15 1.15 0 0 1 .044-.67q.13-.305.448-.516m-1.798 1.454.08.39.282.283.782.785-.781.78-.78-.782-.28-.282-.388-.082a2.7 2.7 0 0 0-.55-.059q-.475 0-.912.179a2.47 2.47 0 0 0-1.117.947l-.217.333v.396l-.001 1.103h-1.101v-1.5l-.217-.333a2.5 2.5 0 0 0-1.119-.95 2.3 2.3 0 0 0-.904-.178q-.274 0-.556.059l-.388.081-.28.28-.782.78-.776-.778.78-.777.283-.282.08-.392a2.5 2.5 0 0 0-.12-1.464 2.47 2.47 0 0 0-.943-1.112l-.334-.22h-1.502v-1.1h1.502l.333-.219a2.5 2.5 0 0 0 .951-1.124c.18-.442.22-.943.117-1.449l-.08-.391-.283-.282-.779-.78.779-.779.78.78.281.283.39.08q.278.058.548.058.479 0 .91-.177c.445-.184.832-.51 1.116-.943l.22-.333v-1.504h1.101v1.504l.218.333c.285.434.67.761 1.12.948.285.116.59.175.906.175q.268 0 .545-.056l.392-.08.283-.283.781-.78.777.778-.78.778-.284.283-.08.394a2.5 2.5 0 0 0 .12 1.454c.184.446.51.833.944 1.118l.333.22h1.504l-.001 1.103-1.104-.002h-.4l-.336.22a2.5 2.5 0 0 0-.949 1.13 2.5 2.5 0 0 0-.114 1.438M22 18.608A3.395 3.395 0 0 0 18.608 22 3.395 3.395 0 0 0 22 25.392 3.395 3.395 0 0 0 25.39 22 3.395 3.395 0 0 0 22 18.608m0 5.45A2.06 2.06 0 0 1 19.942 22 2.06 2.06 0 0 1 22 19.942 2.06 2.06 0 0 1 24.057 22 2.06 2.06 0 0 1 22 24.058"/>
</svg>
