<svg viewBox="0 0 32 32" xmlns="http://www.w3.org/2000/svg">
  <path d="M32 21.333a6.6 6.6 0 0 0-3.869-6.023 7.15 7.15 0 0 0 1.202-3.977C29.333 7.29 26.043 4 22 4a7.305 7.305 0 0 0-7.18 5.958A6.6 6.6 0 0 0 12 9.333a6.63 6.63 0 0 0-6.529 5.472A6.626 6.626 0 0 0 0 21.333 6.675 6.675 0 0 0 6.667 28h7.927v4H27.51v-4.397c2.604-.907 4.489-3.36 4.489-6.27m-5.822 9.334h-10.25V22.03h10.25zm-2.392-9.97h-5.203v-1.429a2.604 2.604 0 0 1 2.602-2.601 2.604 2.604 0 0 1 2.601 2.601zm3.725 5.473v-5.473h-2.39v-1.429c0-2.17-1.766-3.935-3.935-3.935s-3.935 1.765-3.935 3.935v1.43h-2.656v5.969H6.667a5.34 5.34 0 0 1-5.334-5.334c0-2.565 1.84-4.76 4.375-5.216l.911-.164.165-.912a5.304 5.304 0 0 1 7.47-3.875l1.557.729.318-1.69A5.98 5.98 0 0 1 22 5.333c3.308 0 6 2.692 6 6 0 1.166-.33 2.257-.98 3.242l-.859 1.297 1.414.65a5.24 5.24 0 0 1 3.092 4.811c0 2.161-1.302 4.004-3.156 4.837m-7.687-.37a1.229 1.229 0 1 1 2.457 0c0 .428-.231.786-.562 1.006v.633a.666.666 0 1 1-1.334 0v-.634c-.33-.22-.56-.578-.56-1.004"/>
</svg>
