<svg viewBox="0 0 32 32" xmlns="http://www.w3.org/2000/svg">
  <path d="M10 21.333a.667.667 0 1 1 0 1.334.667.667 0 0 1 0-1.334M6.667 22A.667.667 0 1 0 8 22a.667.667 0 0 0-1.333 0m2.666-6.667a.667.667 0 1 0 1.334 0 .667.667 0 0 0-1.334 0m-2.666 0a.667.667 0 1 0 1.333 0 .667.667 0 0 0-1.333 0m3.333-6A.667.667 0 1 0 10 8a.667.667 0 0 0 0 1.333M12 22a.667.667 0 1 0 1.333 0A.667.667 0 0 0 12 22m0-6.667a.667.667 0 1 0 1.333 0 .667.667 0 0 0-1.333 0m.667-6a.667.667 0 1 0 0-1.333.667.667 0 0 0 0 1.333m-5.334 0a.667.667 0 1 0 0-1.333.667.667 0 0 0 0 1.333m18-1.333H16v1.333h9.333zm-2.892 8a4.58 4.58 0 0 1 2.892-1.299v-.034H16V16zM16 22.667h2.416v-1.334H16zM5.335 25.324h13.08v1.343H5.336a2.676 2.676 0 0 1-2.668-2.668v-2.664c0-.8.363-1.512.925-2.002a2.65 2.65 0 0 1-.925-2v-2.665c0-.8.363-1.511.925-2.001a2.65 2.65 0 0 1-.925-2.002V8.001c0-1.467 1.2-2.668 2.668-2.668h21.33c1.468 0 2.668 1.2 2.668 2.668v2.664c0 .8-.363 1.512-.925 2.002a2.65 2.65 0 0 1 .925 2v1.841a4.6 4.6 0 0 0-1.342-1.193v-.647c0-.731-.595-1.326-1.326-1.326H5.335c-.731 0-1.326.595-1.326 1.326v2.664c0 .731.595 1.326 1.326 1.326h15.8l-.001.009c-.027.199-.061.395-.061.601v.742H5.335c-.731 0-1.326.594-1.326 1.325v2.664c0 .73.595 1.325 1.326 1.325M4.009 10.665c0 .731.595 1.326 1.326 1.326h21.33c.731 0 1.326-.595 1.326-1.326V8.001c0-.73-.595-1.325-1.326-1.325H5.335c-.731 0-1.326.594-1.326 1.325zM32 20.697V32H19.083V20.697h2.657v-1.429c0-2.17 1.765-3.935 3.934-3.935s3.935 1.765 3.935 3.935v1.43zm-8.927 0h5.203v-1.429a2.604 2.604 0 0 0-2.602-2.601 2.604 2.604 0 0 0-2.601 2.601zm7.594 1.334H20.416v8.636h10.25zm-5.792 4.775v.633a.666.666 0 1 0 1.333 0v-.634c.33-.22.562-.577.562-1.004a1.229 1.229 0 1 0-2.457 0c0 .427.231.785.562 1.005"/>
</svg>
