<svg viewBox="0 0 32 32" xmlns="http://www.w3.org/2000/svg">
  <path d="M16.036 3.64c7.34 0 13.312 5.97 13.312 13.311a13.24 13.24 0 0 1-6.006 11.115l-2.516-6.503a6.58 6.58 0 0 0 1.876-4.612c0-3.676-2.99-6.667-6.666-6.667s-6.667 2.991-6.667 6.667c0 1.716.659 3.333 1.835 4.566l-2.523 6.52A13.25 13.25 0 0 1 2.724 16.95c0-7.34 5.971-13.312 13.312-13.312m0-1.333C7.947 2.306 1.39 8.863 1.39 16.95c0 5.681 3.242 10.596 7.97 13.025l3.418-8.83c-1.254-.976-2.076-2.483-2.076-4.195a5.333 5.333 0 0 1 10.667 0c0 1.733-.84 3.258-2.12 4.232L22.66 30c4.755-2.42 8.02-7.348 8.02-13.049 0-8.088-6.557-14.645-14.645-14.645"/>
</svg>
