<svg viewBox="0 0 32 32" xmlns="http://www.w3.org/2000/svg">
  <path d="M.027 6.275h6.247V.03H.027zm1.334-4.913h3.58v3.58H1.36zM14.08.03H7.835v6.246h6.246zm-1.333 4.913h-3.58v-3.58h3.58zM21.83.029h-6.246v6.246h6.246zm-1.333 4.913h-3.58v-3.58h3.58zM.027 14.104h6.247V7.858H.027zm1.334-4.912h3.58v3.58H1.36zm12.72-1.334H7.835v6.246h6.246zm-1.333 4.913h-3.58v-3.58h3.58zM.028 21.916h6.246V15.67H.027zm1.333-4.912h3.58v3.579H1.36zm12.496-1.334c-.315.42-.6.864-.841 1.333H9.168v3.58h2.895c-.01.169-.025.335-.025.506 0 .28.017.555.041.827H7.835V15.67zm3.062-2.613a9 9 0 0 0-1.335.864V7.858h6.246v4.219a9 9 0 0 0-.742-.038c-.2 0-.395.017-.591.03V9.192h-3.58v3.58zm4.148 5.078c-1.688 0-3.061 1.373-3.061 3.062s1.373 3.061 3.061 3.061 3.06-1.373 3.06-3.061-1.372-3.062-3.06-3.062m0 4.79a1.73 1.73 0 0 1-1.728-1.728 1.73 1.73 0 0 1 1.728-1.729 1.73 1.73 0 0 1 1.727 1.729 1.73 1.73 0 0 1-1.727 1.728m5.371.185 2.28.003.003-3.827-2.28-.002a.6.6 0 0 1-.187-.24.6.6 0 0 1-.035-.296l1.613-1.61-2.702-2.705-1.613 1.61-.082.003a.6.6 0 0 1-.22-.04.6.6 0 0 1-.233-.183v-2.281h-3.826v2.278a.6.6 0 0 1-.234.184.6.6 0 0 1-.218.04l-.084-.004-1.61-1.612-2.705 2.706 1.608 1.61a.6.6 0 0 1-.032.295.6.6 0 0 1-.19.24h-2.278v3.826h2.278q.13.105.185.233.054.134.036.302l-1.613 1.609 2.703 2.706 1.614-1.61a.55.55 0 0 1 .295.034.6.6 0 0 1 .238.189v2.28h3.825l.001-2.278a.6.6 0 0 1 .233-.186.6.6 0 0 1 .302-.036l1.61 1.617 2.708-2.705-1.61-1.617a.6.6 0 0 1 .033-.293.6.6 0 0 1 .187-.24m-.476-1.334-.37.303a1.9 1.9 0 0 0-.57.756 1.9 1.9 0 0 0-.13.957l.053.463.328.329.67.673-.821.82-.667-.67-.332-.333-.467-.05a1.9 1.9 0 0 0-.964.132 1.9 1.9 0 0 0-.758.58l-.292.366v1.412h-1.16v-1.416l-.293-.365a1.96 1.96 0 0 0-.776-.59 1.9 1.9 0 0 0-.963-.12l-.453.056-.323.322-.67.669-.819-.82.668-.666.332-.331.052-.465a1.95 1.95 0 0 0-.135-.973 1.9 1.9 0 0 0-.577-.751l-.366-.292h-1.413v-1.16h1.415l.365-.294a1.95 1.95 0 0 0 .59-.78c.118-.29.16-.608.122-.942l-.051-.464-.33-.33-.667-.668.82-.82.666.668.333.334.47.05q.117.012.225.012.377.001.734-.145.438-.184.755-.576l.295-.366v-.47l.001-.946h1.16v1.415l.292.366q.317.396.774.587c.224.09.467.137.72.137q.097 0 .201-.01l.481-.043.342-.34.67-.669.817.819-.669.667-.335.334-.049.47q-.053.5.131.953c.124.294.318.55.579.76l.366.296h.47l.948.001-.001 1.16-.946-.001z"/>
</svg>
