<svg viewBox="0 0 32 32" xmlns="http://www.w3.org/2000/svg">
  <path d="M30 7.992h.659v-2.65H30a.675.675 0 0 1-.675-.675v-.66h-2.65v.66a.675.675 0 0 1-1.35 0v-.66h-2.65v.66a.675.675 0 0 1-1.35 0v-.66h-2.65v.66a.675.675 0 0 1-1.35 0v-.66h-2.65v.66a.676.676 0 0 1-1.35 0v-.66h-2.65v.66a.675.675 0 0 1-1.35 0v-.66h-2.65v.66a.675.675 0 0 1-1.35 0v-.66h-2.65v.66A.675.675 0 0 1 2 5.34h-.659v2.651H2a.675.675 0 0 1 0 1.35h-.659v2.65H2a.675.675 0 0 1 0 1.35h-.659v2.65H2a.676.676 0 0 1 0 1.35h-.659v2.65H2a.675.675 0 0 1 0 1.35h-.659v2.65H2a.675.675 0 0 1 0 1.35h-.659v2.65H2c.372 0 .674.302.674.675v.658h2.652v-.658a.675.675 0 0 1 1.348 0v.658h2.652v-.658a.675.675 0 0 1 1.348 0v.658h2.652v-.658a.675.675 0 0 1 1.349 0v.658h2.65v-.658a.675.675 0 0 1 1.35 0v.658h2.65v-.658a.675.675 0 0 1 1.35 0v.658h2.65v-.658a.675.675 0 0 1 1.35 0v.658h2.65v-.658c0-.373.303-.675.675-.675h.659v-2.65H30a.675.675 0 0 1 0-1.35h.659v-2.65H30a.675.675 0 0 1 0-1.35h.659v-2.65H30a.675.675 0 0 1 0-1.35h.659v-2.65H30a.675.675 0 0 1 0-1.35h.659v-2.65H30a.675.675 0 0 1 0-1.35m-.675-1.217a2.009 2.009 0 0 0 0 3.782v.218a2.009 2.009 0 0 0 0 3.782v.218a2.01 2.01 0 0 0-1.333 1.892c0 .87.557 1.613 1.333 1.89v.218a2.01 2.01 0 0 0-1.333 1.892c0 .87.557 1.613 1.333 1.89v.218a2.01 2.01 0 0 0-1.333 1.892c0 .87.557 1.613 1.333 1.89v.218a2.02 2.02 0 0 0-1.216 1.217h-.218c-.277-.776-1.02-1.333-1.891-1.333s-1.614.557-1.891 1.333h-.218c-.277-.776-1.02-1.333-1.891-1.333s-1.614.557-1.891 1.333h-.218c-.277-.776-1.02-1.333-1.891-1.333s-1.614.557-1.891 1.333h-.218c-.277-.776-1.02-1.333-1.891-1.333s-1.614.557-1.891 1.333h-.218c-.277-.776-1.02-1.333-1.891-1.333s-1.614.557-1.891 1.333H7.89a2.007 2.007 0 0 0-3.781.002H3.89a2.02 2.02 0 0 0-1.217-1.217v-.217a2.01 2.01 0 0 0 1.334-1.891c0-.871-.557-1.614-1.334-1.892v-.217a2.01 2.01 0 0 0 1.334-1.891c0-.871-.557-1.614-1.334-1.892v-.217a2.01 2.01 0 0 0 1.334-1.891c0-.871-.557-1.614-1.334-1.892v-.217c.777-.278 1.334-1.02 1.334-1.891s-.557-1.614-1.334-1.892v-.217c.777-.278 1.334-1.02 1.334-1.891S3.45 7.053 2.674 6.775v-.217A2.02 2.02 0 0 0 3.891 5.34h.218c.277.776 1.02 1.333 1.891 1.333s1.614-.557 1.891-1.333h.218c.277.776 1.02 1.333 1.891 1.333s1.614-.557 1.891-1.333h.218c.277.776 1.02 1.333 1.891 1.333s1.614-.557 1.891-1.333h.218c.277.776 1.02 1.333 1.891 1.333s1.614-.557 1.891-1.333h.218c.277.776 1.02 1.333 1.891 1.333s1.614-.557 1.891-1.333h.218c.277.776 1.02 1.333 1.891 1.333s1.614-.557 1.891-1.333h.218a2.02 2.02 0 0 0 1.216 1.217zM16.694 16.08v-.026q.972-.2 1.453-.767.48-.567.48-1.367-.001-.639-.248-1.093c-.247-.454-.396-.549-.7-.74a3.3 3.3 0 0 0-1.092-.42 7 7 0 0 0-1.413-.133H12.32v9.307h2.894q.693 0 1.347-.128.652-.125 1.166-.419c.514-.294.618-.458.826-.786q.313-.495.313-1.214 0-.92-.573-1.5c-.573-.58-.915-.625-1.599-.714m-2.56-3.16h.68q.4 0 .76.054.36.053.633.193t.427.38.153.627q0 .4-.16.653-.16.254-.44.393a2 2 0 0 1-.68.187q-.4.045-.88.046h-.493zm2.307 6.207q-.548.314-1.694.314h-.613v-2.68h.52q1.2 0 1.767.3.566.3.566 1.02 0 .734-.546 1.046"/>
</svg>
