<svg viewBox="0 0 32 32" xmlns="http://www.w3.org/2000/svg">
  <path d="m22.054 4.67-3.098 3.068h4.455L26.51 4.67zm.809 1.735h-.667l.406-.402h.667zm7.854-2.833-.05-.052v-.853h-.84l-.044-.045-.045.045H15.723L9.806 8.583H9.74v.067l-.407.406v9.579l1.334 1.334V9.917h12.721v12.75H13.363L14.696 24h9.58l6.39-6.39V3.622zM16.275 4h12.11l-4.65 4.583H11.693zm13.058 13.058-4.612 4.612V9.484l4.612-4.548zm-18.27 4.249 4.707 4.711-4.765 4.745H9.133l-.01-.01 4.078-4.059H1.332v-1.333h11.896l-4.05-4.054z"/>
</svg>
