<svg viewBox="0 0 32 32" xmlns="http://www.w3.org/2000/svg">
  <path d="m24.097 4.59-1.562 1.559h-2.209l1.562-1.56zm6.437-3.124v15.16L23.83 23.33l-8.284.001V22l6.989-.001V9.132h-6.99V8.036c0-.081-.014-.158-.023-.237h7.72l5.046-5H15.924l-3.095 3.09h-1.887l4.43-4.423zm-1.333 14.607V3.77l-5.334 5.286v12.35zM14.878 7.797v21.707c0 .814-.666 1.48-1.48 1.48H2.515c-.814 0-1.48-.666-1.48-1.48V7.797c0-.814.666-1.48 1.48-1.48h10.883c.814 0 1.48.666 1.48 1.48m-12.51 0v16.76h11.177V7.797a.15.15 0 0 0-.147-.147H2.515a.15.15 0 0 0-.147.147m11.177 21.707v-3.613H2.368v3.613a.15.15 0 0 0 .147.147h10.883a.15.15 0 0 0 .147-.147m-7.16-.995h3.112v-1.333H6.384zm6.088-9.23H3.6v-7.26h8.873zm-1-6.26H4.6v5.26h6.873zm-.808.648H5.018v.666h5.647zM7.842 15H5.018v.667h2.824zm-.807 1.333H5.018V17h2.017zm2-.349v-.666h-.667v2h.667v-.667h.667v-.667zm.667 1.334h.666v-.667h-.666zm0-2v.666h.666v.667h.667v-1.333z"/>
</svg>
