<svg viewBox="0 0 32 32" xmlns="http://www.w3.org/2000/svg">
  <path d="M5.335 22.667h1.333V32H5.335zm1.333-14a5.333 5.333 0 1 1 10.667 0 5.333 5.333 0 0 1-10.667 0m1.333 0c0 2.205 1.795 4 4 4s4-1.795 4-4-1.794-4-4-4-4 1.794-4 4M32 17.31v8.079a2.667 2.667 0 0 1-2.667 2.666h-5.332V32h-1.333v-3.945h-4V32h-1.333v-3.945h-.485a2.667 2.667 0 0 1-2.667-2.666v-8.056H6.038a4.71 4.71 0 0 0-4.703 4.703V32H0v-9.964A6.043 6.043 0 0 1 6.038 16h8.502a2.66 2.66 0 0 1 2.31-1.357h12.483A2.667 2.667 0 0 1 32 17.31m-1.333 0c0-.735-.598-1.333-1.334-1.333H16.85c-.735 0-1.333.598-1.333 1.333v8.079c0 .735.598 1.333 1.333 1.333h12.483c.736 0 1.334-.598 1.334-1.333zm-14.138-.054h7.412v7.783H16.53zm1.333 6.45h.42v-1.05c0-.581.55-1.052 1.23-1.052h1.365c.679 0 1.229.47 1.229 1.052v1.05h.502V18.59h-4.746zm2.332-2.427a1 1 0 1 0 0-2 1 1 0 0 0 0 2m8.072.922H24.93v1.333h3.335zm-3.335 3.556h4.447v-1.334H24.93zm3.7-9.24h-1.334v1.143h-1.333v1.333h1.333v1.333h1.334v-1.333h1.333V17.66H28.63z"/>
</svg>
