<svg viewBox="0 0 32 32" xmlns="http://www.w3.org/2000/svg">
  <path d="M25.334 22.667h1.333V32h-1.333zm-10.666-14a5.333 5.333 0 1 1 10.667 0 5.333 5.333 0 0 1-10.667 0m1.334 0c0 2.205 1.794 4 4 4s4-1.795 4-4-1.795-4-4-4-4 1.794-4 4M32 22.037V32h-1.333v-9.964a4.71 4.71 0 0 0-4.703-4.703h-8.148v8.056a2.667 2.667 0 0 1-2.666 2.666h-.481V32h-1.334v-3.945h-4V32H8.002v-3.945H2.667A2.667 2.667 0 0 1 0 25.39v-8.08a2.667 2.667 0 0 1 2.667-2.666h5.31L.859 7.523l2.8-2.799 9.918 9.92h1.574c.994 0 1.85.55 2.31 1.356h8.504A6.044 6.044 0 0 1 32 22.036m-18.706-5.551-.695.695.813.143zm-.823-1.063L5.393 8.346l-.913.913 7.077 7.078zm-9.727-7.9.793.794.914-.914-.794-.793zm13.74 9.787c0-.735-.599-1.333-1.334-1.333h-.581l.418 2.977-3.273-.575-2.403-2.402H2.667c-.735 0-1.333.598-1.333 1.333v8.079c0 .735.598 1.333 1.333 1.333H15.15c.735 0 1.333-.598 1.333-1.333zm-14.138-.054h7.412v7.783H2.346zm1.333 6.45h.42v-1.05c0-.581.55-1.052 1.23-1.052h1.365c.679 0 1.229.47 1.229 1.052v1.05h.502V18.59H3.679zm2.332-2.427a1 1 0 1 0 0-2 1 1 0 0 0 0 2m8.072.922h-3.336v1.333h3.336zm-3.336 3.556h4.448v-1.334h-4.448z"/>
</svg>
