<svg viewBox="0 0 32 32" xmlns="http://www.w3.org/2000/svg">
  <path d="M27.388 3.388H4.612a1.95 1.95 0 0 0-1.945 1.945v15.389a1.95 1.95 0 0 0 1.945 1.945H12V28H6.667v1.333h18.666V28h-5.418v-5.333h7.473a1.95 1.95 0 0 0 1.945-1.945V5.333a1.95 1.95 0 0 0-1.945-1.945M18.582 28h-5.249v-5.333h5.249zM28 20.722a.62.62 0 0 1-.612.611H4.612A.62.62 0 0 1 4 20.722V5.333a.62.62 0 0 1 .612-.611h22.776a.62.62 0 0 1 .612.611zM23.333 10a2 2 0 0 0-2-2c-.4 0-.772.12-1.085.324L17.99 7.42c.001-.03.009-.058.009-.088a2 2 0 1 0-4 0c0 .058.012.112.017.169l-2.189.875A2 2 0 0 0 10.667 8a2 2 0 0 0-.408 3.958v3.026a2 2 0 0 0-.926 1.683 2 2 0 0 0 2 2c.584 0 1.105-.255 1.47-.654l1.214.485c-.005.057-.017.11-.017.169a2 2 0 1 0 4 0c0-.03-.008-.058-.009-.088l1.759-.703a1.99 1.99 0 0 0 1.583.79 1.993 1.993 0 0 0 .618-3.893v-2.88A1.99 1.99 0 0 0 23.333 10M22 10a.667.667 0 1 1-1.335-.002A.667.667 0 0 1 22 10m-6-3.333a.667.667 0 1 1-.002 1.335A.667.667 0 0 1 16 6.667m0 2.666c.595 0 1.123-.264 1.49-.677l1.936.775c-.055.181-.093.37-.093.569 0 .166.026.324.064.478l-1.971.789a1.987 1.987 0 0 0-2.787-.058l-2.013-.806q.04-.196.04-.403a2 2 0 0 0-.068-.494l1.965-.786A2 2 0 0 0 16 9.333M16 12a.667.667 0 1 1-.002 1.335A.667.667 0 0 1 16 12m-6-2a.667.667 0 1 1 1.335.002A.667.667 0 0 1 10 10m1.333 7.333a.667.667 0 1 1 .002-1.335.667.667 0 0 1-.002 1.335m1.989-.55c.002-.039.011-.076.011-.116 0-1.016-.76-1.846-1.74-1.974v-2.93q.17-.09.32-.21l2.114.846c-.012.089-.027.176-.027.268 0 .908.61 1.666 1.439 1.91v2.18a2 2 0 0 0-.876.523zM16 19.334a.667.667 0 1 1 .002-1.335.667.667 0 0 1-.002 1.335m.772-2.511v-2.31A2 2 0 0 0 18 12.666c0-.064-.013-.124-.019-.187l2.175-.87q.213.157.462.252v2.942a1.99 1.99 0 0 0-1.278 1.8l-1.85.74a2 2 0 0 0-.718-.522m4.561.511a.667.667 0 1 1 .002-1.335.667.667 0 0 1-.002 1.335"/>
</svg>
