<svg viewBox="0 0 32 32" xmlns="http://www.w3.org/2000/svg">
  <path d="M28.26 8.178c-1.67-.188-2.32-.398-2.829-1.227-.371-.606-.51-1.36-.784-2.035-.087-.212-.239-.482-.423-.554q-3.916-1.516-7.858-2.964a1.2 1.2 0 0 0-.403-.065 1.5 1.5 0 0 0-.507.088c-2.425.903-4.833 1.855-7.26 2.75-.575.212-.854.502-.965 1.152-.311 1.827-1.28 2.662-3.073 2.8-.102.007-.202.034-.341.058-.044.404-.11.79-.124 1.179-.096 2.52.062 5.014.63 7.478 1.44 6.245 4.745 10.923 10.583 13.496.207.091.398.22.597.333h.89c.072-.044.14-.098.215-.13 4.861-1.978 8.201-5.502 10.103-10.51.95-2.505 1.44-5.11 1.594-7.777.077-1.359-.025-2.728-.045-4.072m-1.287 3.996c-.154 2.698-.648 5.111-1.508 7.379-1.796 4.728-4.857 7.917-9.36 9.75l-.07.03h-.169a4 4 0 0 0-.422-.22c-5.184-2.283-8.396-6.397-9.821-12.575-.502-2.174-.697-4.506-.598-7.128l.003-.06c1.97-.387 3.153-1.663 3.518-3.803q.009-.056.018-.087.032-.015.093-.038c1.312-.484 2.618-.984 3.924-1.484a400 400 0 0 1 3.335-1.266l.037-.005c2.393.878 4.91 1.827 7.487 2.822.074.193.137.393.2.592.157.49.334 1.045.655 1.567.66 1.076 1.542 1.477 2.662 1.691l.005.141c.032.935.062 1.817.011 2.694m-6.779 4.344h-.654V7.285h-1.282v9.36a3.8 3.8 0 0 0-.91.367V15.59l-.985-3.377c-.708-2.48-2.547-3.359-3.906-3.359H9.625v9.64h1.625a2.21 2.21 0 0 1 2.208 2.208v.666h3.257l-.01-.985a2.533 2.533 0 0 1 2.53-2.531h5.432v-4.846h-4.473zm-7.737-6.33c.324 0 1.974.115 2.626 2.4l.93 3.1v.833h-.334l-1.278-1.278h-3.443v-5.055zm2.931 9.847h-.66a3.55 3.55 0 0 0-3.478-2.875h-.292v-.583h2.891l1.278 1.277h.887v.4a3.84 3.84 0 0 0-.626 1.781m6.14-5.696h1.805v1.82h-1.805zm-1.959 3.855a2.236 2.236 0 1 0 0 4.473 2.236 2.236 0 0 0 0-4.473m0 3.14a.904.904 0 0 1 0-1.806.904.904 0 0 1 0 1.805m-8.819-2.5a1.917 1.917 0 1 0 0 3.833 1.917 1.917 0 0 0 0-3.834m0 2.5a.584.584 0 1 1 .001-1.169.584.584 0 0 1-.001 1.168"/>
</svg>
