<svg viewBox="0 0 32 32" xmlns="http://www.w3.org/2000/svg">
  <path d="M29.333 4.667a.666.666 0 0 0-.666.666v1.335a2 2 0 0 1-1.999 1.999h-1.335v-.87a2.463 2.463 0 0 0-2.463-2.464H10.671c-1.978 0-3.615 1.446-3.936 3.334H5.332a2 2 0 0 1-1.999-1.999V5.333a.666.666 0 1 0-1.333 0v1.335A3.336 3.336 0 0 0 5.332 10h1.335v17.333H22v-6h3.333V10h1.335A3.336 3.336 0 0 0 30 6.668V5.333a.666.666 0 0 0-.667-.666m-6.463 2c.623 0 1.13.506 1.13 1.13v.87h-2v-.665c0-.013.038-1.335.667-1.335zm-12.199 0h2.09c-.36.688-.678 1.73-.678 3.333a.666.666 0 1 0 1.333 0c0-2.522.869-3.25.982-3.333h1.029c-.36.688-.678 1.73-.678 3.333a.666.666 0 1 0 1.334 0c0-2.522.868-3.25.981-3.333h3.85A3.8 3.8 0 0 0 20.667 8v14.587H8V9.337a2.675 2.675 0 0 1 2.671-2.67M8 26v-2.08h12.667V26zm14-6v-1.426h2V20zm2-2.76h-2V10h2z"/>
</svg>
