<svg viewBox="0 0 32 32" xmlns="http://www.w3.org/2000/svg">
  <path d="M16.707 8.013h-4.04a.666.666 0 1 1 0-1.333h4.04a.666.666 0 1 1 0 1.333M6 22.013h4.04a.666.666 0 1 0 0-1.333H6a.666.666 0 1 0 0 1.333m24.667-2.68h-1.334v11.334H16V19.333h-1.333v11.334H1.333V19.333H0v-4h8v-10H6.667v-4h16v4h-1.334v10h9.334zM8 4h13.333V2.667H8zm1.333 11.333H20v-10H9.333zm4 4H2.667v10h10.666zm1.334-2.666H1.333V18h13.334zM28 19.333H17.333v10H28zm1.333-2.666H16V18h13.333zm-8.666 5.346h4.04a.666.666 0 1 0 0-1.333h-4.04a.666.666 0 1 0 0 1.333"/>
</svg>
