<svg viewBox="0 0 32 32" xmlns="http://www.w3.org/2000/svg">
  <path d="M16.717 13.04s-1.551-4.276-6.329-4.276a6.8 6.8 0 0 0-2.707.543L6.368 8.006l-.938.946 1.043 1.035C4.717 11.25 4.059 13.04 4.059 13.04s1.398 4.277 6.33 4.277c1.142 0 2.089-.238 2.88-.593l1.336 1.325.94-.947-1.086-1.076c1.68-1.259 2.258-2.986 2.258-2.986m-6.329-2.942c2.962 0 4.38 2.037 4.87 2.958a5.54 5.54 0 0 1-1.77 2.008l-1.25-1.24a2.024 2.024 0 0 0-2.65-2.626l-.852-.846a5.6 5.6 0 0 1 1.652-.254m0 5.885c-3.051 0-4.412-2.013-4.871-2.923a5.86 5.86 0 0 1 1.926-2.111l1.155 1.144c-.16.29-.26.619-.26.974a2.022 2.022 0 0 0 2.812 1.865c.07-.03.135-.072.2-.11l.877.87a5.8 5.8 0 0 1-1.839.291M30.407 26.76l-9.51-18.358a1.71 1.71 0 0 0-1.567-1.027q-.21.001-.411.055l-1.386-2.676a1.71 1.71 0 0 0-1.568-1.027c-.341 0-.677.11-.968.313l-.829-1.6a1.71 1.71 0 0 0-1.567-1.028 1.71 1.71 0 0 0-1.568 1.028l-.798 1.541c-4.92.057-8.89 4.057-8.89 8.99 0 1.896.589 3.652 1.59 5.102l-1.411 2.725c-.581 1.265.37 2.586 1.558 2.586.234 0 .477-.051.72-.164l1.358-.633-.271.525c-.582 1.265.37 2.586 1.558 2.586.234 0 .477-.051.72-.164l2.27-1.057 1.003-1.939-3.836 1.787a.4.4 0 0 1-.157.04c-.115 0-.241-.081-.321-.206-.067-.104-.125-.274-.053-.434l1.066-2.06.356-.165h-.001a9 9 0 0 0 2.845.466c.138 0 .273-.015.409-.02L8.253 26.76c-.58 1.266.37 2.586 1.558 2.586.234 0 .478-.05.72-.164l6.37-2.967a5.75 5.75 0 0 1 4.857 0l6.37 2.967c.243.113.487.164.72.164 1.19 0 2.14-1.32 1.559-2.586M15.965 5.06c.11 0 .261.043.384.307l1.073 2.072a9 9 0 0 0-1.415-1.45l-.37-.712c.096-.166.227-.217.328-.217m-3.364-2.314c.11 0 .26.043.383.307l.842 1.624a9 9 0 0 0-2.146-.59l.565-1.09c.095-.208.246-.251.356-.251M3.239 22.01a.4.4 0 0 1-.157.04c-.115 0-.24-.081-.321-.206-.067-.104-.125-.274-.053-.434l1.147-2.216a9 9 0 0 0 2.03 1.584zm-.562-9.04c0-4.225 3.438-7.662 7.662-7.662s7.662 3.437 7.662 7.662-3.437 7.662-7.662 7.662-7.662-3.437-7.662-7.662M29.17 27.806c-.08.125-.207.206-.321.206a.4.4 0 0 1-.158-.04l-6.37-2.966a7 7 0 0 0-2.991-.665 7 7 0 0 0-2.991.665l-6.37 2.967a.4.4 0 0 1-.158.04c-.114 0-.24-.082-.32-.207-.067-.104-.126-.273-.054-.433l2.923-5.644c3.993-.919 6.974-4.487 6.974-8.76a9 9 0 0 0-.673-3.407l.313-.604c.095-.207.246-.25.356-.25s.26.043.384.306l9.481 18.302a.49.49 0 0 1-.025.49"/>
</svg>
