<svg viewBox="0 0 32 32" xmlns="http://www.w3.org/2000/svg">
  <path d="M26.667 18.014h3.978l-14.726-8.11-14.552 8.11h3.966v8.653H2.667v4h26.65v-4h-2.65zm-1.334 8.653h-2.666v-8.653h2.666zm-12.007 0h-2.66v-8.653h2.66zm1.333-8.653h2.667v8.653h-2.667zm4 0h2.674v8.653H18.66zm-2.736-6.585 9.537 5.252H6.499zm-9.256 6.585h2.666v8.653H6.667zM27.984 28v1.333H4V28zM11.464 8.825l.965.92a4.85 4.85 0 0 1 3.462-1.456 4.84 4.84 0 0 1 3.35 1.338c.147.14.263.3.389.453l.215.025.818-.859c-.163-.198-.312-.404-.503-.585-2.453-2.336-6.334-2.252-8.697.164m10.187-.617.945-.993a9 9 0 0 0-.53-.555c-3.556-3.387-9.195-3.266-12.607.256l.968.923a7.6 7.6 0 0 1 5.464-2.312c1.89 0 3.782.696 5.256 2.099.189.18.336.388.504.582m-6.016-5.446.26-.003c2.678 0 5.21 1.012 7.157 2.865.19.182.364.365.538.548l.919-.965c-.176-.184-.347-.367-.538-.549a11.6 11.6 0 0 0-8.369-3.229A11.64 11.64 0 0 0 7.457 5.01l.966.92a10.3 10.3 0 0 1 7.212-3.168"/>
</svg>
