<svg viewBox="0 0 32 32" xmlns="http://www.w3.org/2000/svg">
  <path d="M14.374 28h3.252v1.333h-3.252zM31.12 11.982c.156.9-.45 1.759-1.349 1.915l-.904.156v.9c.407.229.694.649.694 1.15v1.845c0 .501-.287.92-.694 1.15v2.043a1.956 1.956 0 0 1-1.954 1.954h-1.58v6.31A2.6 2.6 0 0 1 22.737 32H9.262a2.6 2.6 0 0 1-2.595-2.595V2.595A2.6 2.6 0 0 1 9.262 0h13.476a2.6 2.6 0 0 1 2.595 2.596V3.3l2.53-.437a1.66 1.66 0 0 1 1.914 1.35zM14.194 9.548h-.928a.691.691 0 0 0 0 1.38l1.167.001zM28.702 5.82 15.326 8.273l.081.467 13.376-2.452zm-13.374.564a.33.33 0 0 0-.264.373l.035.2 13.376-2.45-.011-.068a.326.326 0 0 0-.374-.264zM24 29.405v-2.738H8v2.738c0 .696.566 1.262 1.262 1.262h13.476c.696 0 1.262-.566 1.262-1.262m0-6.31H13.152a1.913 1.913 0 0 1-1.91-1.911V10.238c0-1.116.908-2.024 2.024-2.024h.697l-.212-1.228a1.657 1.657 0 0 1 1.35-1.915L24 3.531v-.935c0-.696-.566-1.263-1.262-1.263H9.262C8.566 1.333 8 1.9 8 2.596v22.737h16zm3.535-1.954v-1.854h-2.967c-.74 0-1.339-.6-1.339-1.339v-1.846c0-.74.6-1.338 1.339-1.338h2.967V12.89a.62.62 0 0 0-.62-.62l-13.65-.01q-.364-.002-.69-.12v9.043c0 .319.259.578.577.578h13.762a.62.62 0 0 0 .621-.621m.694-5.039-.006-.005h-3.655l-.005 1.851 3.66.006zm1.578-3.893-.797-4.607-13.376 2.451.152.877 11.128.007a1.95 1.95 0 0 1 1.936 1.767l.694-.12a.33.33 0 0 0 .263-.375m-4.316 4.135a.681.681 0 1 0 0 1.363.681.681 0 0 0 0-1.363"/>
</svg>
