<svg viewBox="0 0 32 32" xmlns="http://www.w3.org/2000/svg">
  <path d="M16.792 24.417a3.792 3.792 0 1 0 0 7.583 3.792 3.792 0 0 0 0-7.583m0 6.25a2.46 2.46 0 0 1-2.459-2.459c0-1.355 1.103-2.458 2.459-2.458s2.458 1.103 2.458 2.458a2.46 2.46 0 0 1-2.458 2.459M3.25 25.5a3.25 3.25 0 1 0 0 6.5 3.25 3.25 0 0 0 0-6.5m0 5.167a1.92 1.92 0 0 1-1.917-1.917c0-1.057.86-1.917 1.917-1.917s1.917.86 1.917 1.917-.86 1.917-1.917 1.917m23.417-14.955V22h-1.334V12h-4v10H20v-6.288h-4v6.342a6 6 0 0 0-.667.12V2h-3.417v13.981l-.441-1.497c-1.13-3.955-4.035-5.359-6.178-5.359H.958v15.417H3.25a4.213 4.213 0 0 1 4.208 4.208v.667h4.59l-.012-1.209c0-2.681 2.066-4.86 4.609-4.875h14.022v-7.621zm-4-2.379H24V22h-1.333zm-4 3.712v4.952h-1.334v-4.952zM13.249 3.333H14V22h-.75zm-7.952 7.125c.608 0 3.701.212 4.898 4.4l1.597 5.323v1.944h-1.224L8.4 19.958H2.29v-9.5zm5.407 17.625H8.752a5.55 5.55 0 0 0-5.502-4.875h-.958v-1.916h5.557l2.167 2.166h1.776v1.179a6.36 6.36 0 0 0-1.088 3.446M28 22v-4.955h1.333V22zM17.152 9.411l-.93-.955 4.19-4.076 3.266 3.964 3.439-3.416h-2.488V3.595h4.704v5.371H28V5.93l-4.42 4.392-3.277-3.977z"/>
</svg>
