<svg viewBox="0 0 32 32" xmlns="http://www.w3.org/2000/svg">
  <path d="M31.333 5.355c-1.517 0-2.822.863-3.493 2.114l-.004.001c-1.535.402-2.815 1.587-3.788 3.492l-2.284 3.91c-.013.026-.05.107-.174.074-.116-.027-.121-.117-.123-.147l-.4-6.703a1.523 1.523 0 0 0-1.518-1.43H18.1c-1.578-3.144-4.788-5.314-8.522-5.314C4.287 1.352 0 5.676 0 11.01a9.65 9.65 0 0 0 3.545 7.48l-.742 9.53a2.27 2.27 0 0 0 2.26 2.443H20.72c.839 0 1.52-.683 1.52-1.522v-2.968l5.44-12.37a3.7 3.7 0 0 1 1.05-1.286c.7.611 1.603.994 2.603.994H32V5.355zM4.342 25.435l.728-9.348h12.55c-1.382 1.108-2.287 2.797-2.287 4.711 0 1.872.867 3.527 2.198 4.637zM5.44 11.333h14.485l.204 3.42H5.173zm14.297-3.157L19.846 10H5.544l.143-1.84A.19.19 0 0 1 5.873 8h13.676c.1 0 .181.077.188.176M1.333 11.01c0-4.59 3.698-8.324 8.244-8.324 2.964 0 5.547 1.602 6.999 3.98H5.873a1.52 1.52 0 0 0-1.512 1.356l-.685 8.789a8.33 8.33 0 0 1-2.343-5.801M20.72 29.129H5.062a.92.92 0 0 1-.684-.3.92.92 0 0 1-.246-.705l.106-1.356h16.366q.169.022.339.035l-.035 2.138a.19.19 0 0 1-.188.188m5.738-16.064-5.438 12.37h-.414a4.69 4.69 0 0 1-3.94-4.637 4.685 4.685 0 0 1 4.322-4.676c.095.045.187.096.293.121a1.49 1.49 0 0 0 1.636-.7l2.3-3.942c.616-1.204 1.343-2.025 2.16-2.49-.003.076-.022.146-.022.222 0 .708.202 1.364.527 1.94-.694.543-1.182 1.244-1.424 1.792m4.209-1.172a2.65 2.65 0 0 1-1.978-2.56 2.65 2.65 0 0 1 1.978-2.56z"/>
</svg>
