<svg viewBox="0 0 32 32" xmlns="http://www.w3.org/2000/svg">
  <path d="M28.833 20.511a5.9 5.9 0 0 0-4.193-1.737c-.767 0-1.534.15-2.255.447l-1.754-3.186-.033-.033 5.347-5.349a6.59 6.59 0 0 0 0-9.32L15.939 11.342 5.933 1.333a6.59 6.59 0 0 0 0 9.32l5.347 5.349-1.73 3.25a5.9 5.9 0 0 0-2.313-.478 5.932 5.932 0 0 0 0 11.863 5.9 5.9 0 0 0 4.193-1.738 5.92 5.92 0 0 0 1.621-5.35l2.888-2.887 2.887 2.888a5.92 5.92 0 0 0 1.621 5.35 5.9 5.9 0 0 0 4.193 1.737 5.932 5.932 0 0 0 4.193-10.125M6.053 3.341l8.943 8.943-2.774 2.775L6.875 9.71a5.27 5.27 0 0 1-.821-6.37m4.434 24.616a4.57 4.57 0 0 1-3.25 1.346 4.57 4.57 0 0 1-3.25-1.346 4.604 4.604 0 0 1 0-6.503c.867-.868 2.022-1.346 3.25-1.346s2.382.478 3.25 1.346a4.604 4.604 0 0 1 0 6.503m.943-7.446a6 6 0 0 0-.725-.592l1.66-3.117L25.822 3.34a5.27 5.27 0 0 1-.821 6.37L12.575 22.14l-.037-.037a5.9 5.9 0 0 0-1.108-1.592m7.872 1.63-2.42-2.422 2.744-2.745 1.598 2.903a6 6 0 0 0-.777.634 5.9 5.9 0 0 0-1.108 1.593zm8.589 5.816a4.57 4.57 0 0 1-3.25 1.346 4.57 4.57 0 0 1-3.251-1.346 4.604 4.604 0 0 1 0-6.503 4.57 4.57 0 0 1 3.25-1.346c1.228 0 2.383.478 3.25 1.346a4.604 4.604 0 0 1 0 6.503m-3.25-6.296a3.044 3.044 0 1 0 .002 6.088 3.044 3.044 0 0 0-.003-6.088m1.209 4.254a1.7 1.7 0 0 1-1.21.501 1.713 1.713 0 0 1 0-3.421c.457 0 .887.178 1.21.5a1.713 1.713 0 0 1 0 2.42M7.237 21.661a3.044 3.044 0 1 0 .002 6.088 3.044 3.044 0 0 0-.002-6.088m1.209 4.254c-.323.323-.752.501-1.21.501s-.886-.178-1.209-.501a1.713 1.713 0 0 1 1.21-2.92c.457 0 .886.178 1.209.5a1.713 1.713 0 0 1 0 2.42M16 15.333a.667.667 0 1 1 0 1.334.667.667 0 0 1 0-1.334"/>
</svg>
