<svg viewBox="0 0 32 32" xmlns="http://www.w3.org/2000/svg">
  <path d="M15.683 18.624a3.605 3.605 0 0 1-.011 5.075l-5.358 5.357a3.57 3.57 0 0 1-2.542 1.053h-.008a3.57 3.57 0 0 1-2.549-1.066l-1.851-1.869a3.604 3.604 0 0 1 .012-5.075l5.356-5.357a3.57 3.57 0 0 1 2.544-1.053h.008a3.57 3.57 0 0 1 2.547 1.065l-.946.939a2.25 2.25 0 0 0-1.604-.67h-.005c-.605 0-1.173.234-1.6.662l-5.358 5.357a2.27 2.27 0 0 0-.007 3.195l1.851 1.868c.428.431.998.67 1.605.671h.005a2.25 2.25 0 0 0 1.6-.663l5.357-5.356a2.27 2.27 0 0 0 .007-3.196zM29.426 4.55l-1.852-1.869a3.57 3.57 0 0 0-2.547-1.065h-.009c-.96 0-1.864.374-2.544 1.054l-5.357 5.356a3.605 3.605 0 0 0-.01 5.077l.946-.94a2.27 2.27 0 0 1 .007-3.194l5.357-5.357a2.25 2.25 0 0 1 1.601-.662h.005a2.25 2.25 0 0 1 1.603.67l1.852 1.869a2.27 2.27 0 0 1-.007 3.194l-5.358 5.357a2.25 2.25 0 0 1-1.6.663h-.004a2.25 2.25 0 0 1-1.604-.67l-.948.939a3.58 3.58 0 0 0 2.55 1.065h.006a3.57 3.57 0 0 0 2.543-1.054l5.358-5.357a3.606 3.606 0 0 0 .012-5.076M19.86 18.324l-5.76-5.759-.942.943 5.759 5.759zM14.667 8h-1.334v2.656h1.334zm-2.196 2.74-1.878-1.878-.943.943 1.879 1.878zm-1.148 1.927H8.667V14h2.656zM18.667 24H20v-2.656h-1.333zm2.195-2.74 1.879 1.878.943-.943-1.88-1.879zm1.148-1.927h2.657V18H22.01z"/>
</svg>
