<svg viewBox="0 0 32 32" xmlns="http://www.w3.org/2000/svg">
  <path d="M30 29.333V8.414c.41-.469.667-1.075.667-1.747A2.667 2.667 0 0 0 28 4c-.693 0-1.318.271-1.792.704C23.393 2.529 19.819 1.333 16 1.333S8.606 2.528 5.792 4.704A2.65 2.65 0 0 0 4 4a2.667 2.667 0 0 0-2.667 2.667c0 .671.257 1.278.667 1.747v20.92H0v1.333h32v-1.333h-2zM19.336 14.299l1.998 1.142v1.595l-1.998-1.142zm-.001 3.131 3.332 1.904v-4.667l-3.33-1.903.001-5.797L26 10.774v16.929l-6.667-3.809zm7.998-8.191c.215.056.435.094.667.094s.452-.039.667-.094V14h-1.333V9.239zm1.334 11.428h-1.333v-5.333h1.333zm.666-14C29.333 7.402 28.735 8 28 8a1.335 1.335 0 0 1 0-2.667c.735 0 1.333.598 1.333 1.334m-16.666 6.095-3.333 1.905v4.667l3.333-1.905v6.464L6 27.702V10.774l6.667-3.809zm0 3.131-2 1.143V15.44l2-1.143zm-8 4.774H3.333v-5.256h1.333zm0-6.59H3.333V9.239c.215.056.435.094.667.094s.452-.039.667-.094zM4 5.333A1.335 1.335 0 0 1 4 8a1.335 1.335 0 0 1 0-2.667M3.333 22h1.333v7.333H3.333zM6 29.333v-.095l8-4.571V6.962c0-.777-.638-1.334-1.334-1.334-.22 0-.446.056-.659.178L6 9.238v-.824c.41-.469.667-1.075.667-1.747 0-.294-.059-.572-.147-.837C9.114 3.791 12.438 2.667 16 2.667s6.886 1.124 9.48 3.163a2.6 2.6 0 0 0-.147.837c0 .672.257 1.278.667 1.747v.825l-6.007-3.432A1.332 1.332 0 0 0 18 6.962v17.705l8 4.571v.095zm21.333 0V22h1.333v7.333z"/>
</svg>
