<svg viewBox="0 0 32 32" xmlns="http://www.w3.org/2000/svg">
  <path d="M21 0c-6.058 0-11 4.231-11 9.308a8.63 8.63 0 0 0 3.046 6.414L10 21.763l9.68-3.148a13 13 0 0 0 1.32 0c6.058 0 11-4.18 11-9.308C32 4.18 27.058 0 21 0m0 17.282h-.035l-.035.002a12 12 0 0 1-1.182 0l-.247-.013-.235.076-6.636 2.158 1.605-3.184.473-.938-.801-.679a7.3 7.3 0 0 1-2.575-5.397c0-4.323 4.427-7.974 9.667-7.974 5.33 0 9.667 3.577 9.667 7.974.001 4.398-4.336 7.975-9.666 7.975M2.642 28.602h1.333V32H2.642zm4.8-.11h1.333V32H7.442zM5.77 24.334a3.107 3.107 0 1 0 0-6.214 3.107 3.107 0 0 0 0 6.214m0-4.88c.978 0 1.774.796 1.774 1.774s-.796 1.774-1.774 1.774-1.774-.796-1.774-1.774.796-1.774 1.774-1.774m13.91-7.24h1.867V14H19.68zm4.04-5.334q0 .293-.066.566a2.4 2.4 0 0 1-.22.554 4.4 4.4 0 0 1-.4.593 9 9 0 0 1-.607.687q-.36.387-.56.667a3 3 0 0 0-.294.493 1.4 1.4 0 0 0-.112.387 3 3 0 0 0-.021.333v.173h-1.628v-.173q0-.373.042-.654a2.4 2.4 0 0 1 .453-1.093q.2-.28.52-.64a7 7 0 0 0 .686-.88q.234-.374.234-.773 0-.613-.435-.867Q20.879 6 20.24 6q-.507 0-1.052.14a4.5 4.5 0 0 0-1 .38L18 4.987a8 8 0 0 1 2.586-.454q1.454 0 2.294.594.84.593.84 1.753M11.54 28.768V32h-1.333v-3.232c0-1.23-1.001-2.23-2.23-2.23H3.564a2.233 2.233 0 0 0-2.23 2.23V32H0v-3.232a3.575 3.575 0 0 1 3.564-3.564h4.413a3.574 3.574 0 0 1 3.563 3.564"/>
</svg>
