<svg viewBox="0 0 32 32" xmlns="http://www.w3.org/2000/svg">
  <path d="M32 11.37s-2.22-7.79-2.83-8.62-1.45-1.35-2.38-1.35H5.33c-.97 0-1.84.56-2.46 1.46C2.3 3.68 0 11.37 0 11.37c0 .07.02.13.03.19-.01.1-.03.2-.03.3v6.12c0 1.26 1.02 2.27 2.27 2.27h1.2c.4 1.39 1.67 2.42 3.19 2.42h18.67c1.1 0 2 .9 2 2s-.9 2-2 2h-12v-.93c0-.92-.75-1.67-1.67-1.67H7.34v1.23h-2c-.37 0-.67.3-.67.67v2.67c0 .37.3.67.67.67h2v1.23h4.32c.92 0 1.67-.75 1.67-1.67V28h12c1.84 0 3.33-1.49 3.33-3.33s-1.49-3.33-3.33-3.33H6.67c-.77 0-1.43-.44-1.77-1.08h24.83c1.26 0 2.27-1.02 2.27-2.27v-6.12c0-.1-.02-.19-.03-.29.01-.08.03-.14.03-.21M7.31 27.97H6v-1.34h1.31zm4.69.88c0 .18-.16.34-.34.34H8.67v-3.8h2.99c.18 0 .34.16.34.34zM3.97 3.61c.22-.33.7-.88 1.36-.88h21.46c.62 0 1.09.5 1.28.77.29.49 1.18 3.25 2.03 6.12-.12-.02-.24-.04-.37-.04H2.27c-.12 0-.23.02-.34.03.89-2.87 1.78-5.55 2.04-6m26.7 14.37c0 .52-.42.94-.94.94H2.27c-.52 0-.94-.42-.94-.94v-6.12c0-.52.42-.94.94-.94h27.45c.52 0 .94.42.94.94v6.12zM3.33 16.92h5.33v-4H3.33zm1.34-2.67h2.67v1.33H4.67zM10 16.92h5.33v-4H10zm1.33-2.67H14v1.33h-2.67zm5.34 2.67H22v-4h-5.33zM18 14.25h2.67v1.33H18zm8.67-1.58c-1.1 0-2 .9-2 2s.9 2 2 2 2-.9 2-2-.9-2-2-2m0 2.66a.67.67 0 0 1-.67-.67.67.67 0 0 1 1.34.01c-.01.36-.31.66-.67.66m-10.4-8.86h-2.93l3.91-2.85-.98 2.04h2.93l-3.91 2.85z"/>
</svg>
