<svg viewBox="0 0 32 32" xmlns="http://www.w3.org/2000/svg">
  <path d="M18.91 1.33v4.24l.85.33c2.71 1.06 4.87 3.15 6.01 5.76h-2.62c-1.53-2.57-4.31-4.19-7.32-4.19-4.7 0-8.52 3.82-8.52 8.52s3.82 8.52 8.52 8.52c2.6 0 5.03-1.18 6.64-3.19h2.8a10.9 10.9 0 0 1-5.51 4.75l-.85.33v4.25h-1.33v-3.89l-1.38.05c-.1 0-.2.01-.29.02l-.08.01c-.44 0-.9-.04-1.47-.11l-1.51-.21v4.13h-1.33v-4.66l-.71-.37C7.2 23.73 4.97 20.04 4.97 16S7.2 8.27 10.8 6.38l.71-.37V1.33h1.33v4.13l1.51-.21c.56-.08 1.03-.11 1.45-.11l.08.01.31.03 1.38.05v-3.9zM20.24 0h-4v3.84c-.14 0-.27-.04-.41-.04-.56 0-1.11.05-1.64.12V0h-4v5.2C6.3 7.24 3.64 11.31 3.64 16s2.66 8.76 6.55 10.8V32h4v-3.93c.54.07 1.09.12 1.64.12.14 0 .27-.03.41-.03V32h4v-4.67c3.3-1.3 5.92-3.96 7.09-7.33H21.8a7.2 7.2 0 0 1-5.97 3.19c-3.97 0-7.19-3.23-7.19-7.19 0-3.97 3.23-7.19 7.19-7.19 2.89 0 5.37 1.72 6.52 4.19h5.29c-.97-3.83-3.77-6.91-7.39-8.33V0z"/>
</svg>
