<svg viewBox="0 0 32 32" xmlns="http://www.w3.org/2000/svg">
  <path d="M18.53 2.67c1.27 0 2.52.18 3.72.53-4.97 2.26-8.24 7.3-8.23 12.82s3.3 10.54 8.28 12.79c-1.21.35-2.47.53-3.76.54-3.55 0-6.89-1.38-9.41-3.89a13.26 13.26 0 0 1-3.92-9.42c-.01-3.58 1.37-6.93 3.88-9.45s5.86-3.92 9.42-3.92zm0-1.34h-.02c-3.92.01-7.6 1.54-10.36 4.32-2.77 2.77-4.28 6.46-4.27 10.38s1.54 7.6 4.31 10.36 6.44 4.28 10.35 4.28h.03c1.75-.01 3.47-.32 5.1-.92l2.48-.92-2.48-.91c-4.96-1.83-8.3-6.62-8.31-11.91s3.31-10.09 8.26-11.94l2.47-.92-2.47-.91c-1.63-.6-3.34-.91-5.09-.91"/>
</svg>
