<svg viewBox="0 0 32 32" xmlns="http://www.w3.org/2000/svg">
  <path d="M28 23.33v-18H1.33v22H6a.67.67 0 0 0 1.34 0c0-.7.11-1.38.32-2.04.89-2.77 3.44-4.63 6.35-4.63s5.46 1.86 6.35 4.63c.21.66.32 1.34.32 2.04a.67.67 0 0 0 1.34 0h3.28l1.37-2.67h3.97v.67a.67.67 0 0 0 1.34 0v-.67h.05v-1.33h-4ZM6.38 24.88c-.12.37-.2.74-.26 1.12H2.67v-1.33h3.81c-.03.07-.07.14-.09.22ZM24.46 26h-2.58c-.06-.38-.15-.75-.27-1.12-.02-.08-.06-.14-.09-.22h3.62l-.69 1.33Zm2.21-2.67h-5.76c-1.41-2.44-4-4-6.91-4s-5.5 1.56-6.91 4H2.67V6.67h24v16.67Zm-12.71-2c-2.95 0-5.33 2.39-5.33 5.33s2.39 5.33 5.33 5.33 5.33-2.39 5.33-5.33-2.39-5.33-5.33-5.33m0 9.34c-2.21 0-4-1.79-4-4s1.79-4 4-4 4 1.79 4 4-1.79 4-4 4m0-6.59a2.59 2.59 0 1 0 .001 5.181 2.59 2.59 0 0 0-.001-5.181m0 3.84a1.261 1.261 0 1 1 .002-2.522 1.261 1.261 0 0 1-.002 2.522"/>
</svg>
