<svg viewBox="0 0 32 32" xmlns="http://www.w3.org/2000/svg">
  <path d="M19.61 1.33H5.33v29.33h21.33V8.39L19.6 1.33ZM20 3.61 24.39 8H20zm5.33 25.72H6.67V2.67h12v6.67h6.67v20ZM8 17.93s1.77 5.41 8 5.41 8-5.41 8-5.41-1.96-5.41-8-5.41-8 5.41-8 5.41m14.55.01C22.01 19.08 20.22 22 16 22s-6.02-2.92-6.55-4.05c.57-1.14 2.44-4.09 6.55-4.09s5.98 2.95 6.55 4.09Zm-9.88-.01c0 1.84 1.49 3.33 3.33 3.33s3.33-1.49 3.33-3.33S17.84 14.6 16 14.6s-3.33 1.49-3.33 3.33m5.33 0c0 1.1-.9 2-2 2s-2-.9-2-2 .9-2 2-2 2 .9 2 2"/>
</svg>
