<svg viewBox="0 0 32 32" xmlns="http://www.w3.org/2000/svg">
  <path d="M16 .01C7.17.01.02 7.17.02 16v5.95H0v10.04h16.01c8.83 0 15.98-7.16 15.98-15.99S24.83.01 16 .01m0 30.65H5.99c3.38-1.81 5.74-5.29 5.98-9.33h4.2a5.16 5.16 0 0 0 5.16-5.16v-.33a5.16 5.16 0 0 0-5.16-5.16h-.33a5.16 5.16 0 0 0-5.16 5.16v4.81c0 5.29-4.12 9.64-9.32 9.99V16.01C1.35 7.92 7.92 1.34 16 1.34S30.65 7.92 30.65 16 24.08 30.66 16 30.66M12.01 18.5v-2.66c0-2.11 1.72-3.83 3.83-3.83h.33c2.11 0 3.83 1.72 3.83 3.83v.33c0 2.11-1.72 3.83-3.83 3.83h-4.16z"/>
</svg>
