<svg viewBox="0 0 32 32" xmlns="http://www.w3.org/2000/svg">
  <path d="m32 12.19-2.9-1.59V6.02L18.01-.06l-2 1.1L14-.06 2.91 6.02v4.57L0 12.19v9.17l5.84 3.2v2.91l8.17 4.48 2-1.09 2 1.09 8.17-4.48v-2.91l5.83-3.19V12.2Zm-4.24-5.37v3.05L24.36 8c-.22-.12-.47-.18-.72-.18s-.5.06-.72.18l-6.18 3.39V2.17l1.28-.7 9.76 5.35ZM1.34 20.57v-7.58l2.21-1.21.69-.38 4.03-2.22c.02-.01.05-.02.08-.02s.06 0 .08.02l6.83 3.75v.06l-8.71 4.73c-.46.25-.74.71-.74 1.21v4.1l-4.48-2.46Zm5.84 6.1.02-7.78 8.08-4.39v15.22l-1.27.7zM4.24 6.82 14 1.47l1.28.7v9.23L9.09 8c-.22-.12-.47-.18-.72-.18s-.5.06-.72.18L4.26 9.86V6.81Zm20.6 19.85L18 30.42l-1.27-.7V14.5l8.12 4.42v7.74Zm5.83-6.1-4.49 2.46v-4.1c0-.5-.27-.96-.73-1.21l-8.71-4.73v-.06l6.82-3.74s.05-.02.08-.02.06 0 .08.02L30.66 13v7.58Z"/>
</svg>
