<svg viewBox="0 0 32 32" xmlns="http://www.w3.org/2000/svg">
  <path d="M28.12 23.71a6.08 6.08 0 0 1 0-6.27l3.6-5.99c.61-1.02-.12-2.31-1.31-2.31h-7.16l4.12-6.83C27.98 1.29 27.25 0 26.06 0H9.47a9.15 9.15 0 0 0-7.86 4.44 9.13 9.13 0 0 0 0 9.41l2.16 3.59a6.08 6.08 0 0 1 0 6.27L.16 29.69C-.45 30.71.28 32 1.47 32h17.01c.54 0 1.04-.28 1.31-.74l.7-1.17.7 1.17c.28.46.77.74 1.31.74h7.9c1.19 0 1.92-1.29 1.31-2.31l-3.6-5.99ZM1.31 30.57c-.05-.1-.01-.17 0-.19l3.6-5.99a7.38 7.38 0 0 0 0-7.64l-2.16-3.59a7.79 7.79 0 0 1 0-8.04 7.88 7.88 0 0 1 6.72-3.79h16.58s.11 0 .17.1c.05.1.01.17 0 .19l-4.53 7.52h-.04l-1.15 1.9-.7-1.17c-.28-.46-.77-.74-1.31-.74h-7.9c-1.19 0-1.92 1.29-1.31 2.31l3.6 5.99a6.08 6.08 0 0 1 0 6.27l-3.6 5.99c-.19.31-.24.65-.19.97H1.47s-.11 0-.17-.1Zm17.33 0c-.03.06-.1.09-.16.09h-7.9s-.11 0-.17-.1c-.05-.1-.01-.17 0-.19l3.6-5.99a7.38 7.38 0 0 0 0-7.64l-3.6-5.99s-.06-.1 0-.19c.05-.1.14-.1.17-.1h7.9c.07 0 .13.04.16.09l3.6 5.99a7.79 7.79 0 0 1 0 8.04zm11.94 0c-.05.1-.14.1-.17.1h-7.9a.19.19 0 0 1-.16-.09l-1.07-1.77 2.12-3.52a9.13 9.13 0 0 0 0-9.41l-2.1-3.49 1.15-1.9h7.97s.11 0 .17.1c.05.1.01.17 0 .19l-3.6 5.99a7.38 7.38 0 0 0 0 7.64l3.6 5.99s.06.1 0 .19Z"/>
</svg>
