<svg viewBox="0 0 32 32" xmlns="http://www.w3.org/2000/svg">
  <path d="M10.04 15.67c0-.37.3-.68.67-.68s.67.3.67.68-.3.68-.67.68-.67-.3-.67-.68m.67 3.18c.37 0 .67-.3.67-.68s-.3-.68-.67-.68-.67.3-.67.68.3.68.67.68m0-7.48c.37 0 .67-.3.67-.68s-.3-.68-.67-.68-.67.3-.67.68.3.68.67.68m0 2.5c.37 0 .67-.3.67-.68s-.3-.68-.67-.68-.67.3-.67.68.3.68.67.68m-5.35 2.48c.37 0 .67-.3.67-.68s-.3-.68-.67-.68-.67.3-.67.68.3.68.67.68m0 2.5c.37 0 .67-.3.67-.68s-.3-.68-.67-.68-.67.3-.67.68.3.68.67.68m0-7.48c.37 0 .67-.3.67-.68s-.3-.68-.67-.68-.67.3-.67.68.3.68.67.68m26.63 6.77v4.29c0 .69-.56 1.25-1.24 1.25h-.72c-.39 1.84-2.01 3.23-3.95 3.23-1.83 0-3.35-1.24-3.85-2.92H3.94c-.5 1.68-2.03 2.92-3.86 2.92H0v-1.34h.08c1.49 0 2.71-1.23 2.71-2.74S1.57 20.09.08 20.09H0v-1.34h.08c.97 0 1.85.36 2.54.93h4.66V9.14H0V7.79h5.21c.28-1.27 1.4-2.22 2.74-2.22s2.46.95 2.74 2.22h2.92c3.62 0 6.56 2.96 6.56 6.62 0 2.33-1.2 4.37-3.01 5.55h3.85V9.2s2.72.69 5.07 1.28l3.38.85c.84.43 1.27 1.28 1.69 3.41l.84 3.41Zm-23.37-9v10.54h5c2.88 0 5.23-2.37 5.23-5.27s-2.34-5.27-5.23-5.27zm.61-1.49c-.26-.44-.73-.73-1.27-.73s-1.03.31-1.29.76c1.15-.07 1.97-.07 2.56-.03m11.76 13.66H3.83c.17.42.26.87.28 1.34H21v-1.34zm6.43-4.94h2.62l-.2-1.41c-.04-.2-.08-.38-.12-.55-.3-1.3-.55-1.67-.76-1.83-.56-.14-1.06-.27-1.55-.39v4.18zm1.38 6.46c0-1.51-1.22-2.74-2.71-2.74s-2.71 1.23-2.71 2.74 1.22 2.74 2.71 2.74 2.71-1.23 2.71-2.74m1.86-4.52-.15-.59h-4.43v-5.86c-1.72-.43-2.91-.74-3.73-.94v10.36c.61-1.48 2.05-2.52 3.73-2.52 2.06 0 3.75 1.57 3.99 3.59h.59v-4.03Zm-25.3-4.44c.37 0 .67-.3.67-.68s-.3-.68-.67-.68-.67.3-.67.68.3.68.67.68"/>
</svg>
