<svg viewBox="0 0 32 32" xmlns="http://www.w3.org/2000/svg">
  <path d="M12 14c0-2.21 1.79-4 4-4a.67.67 0 0 1 0 1.34c-1.47 0-2.67 1.2-2.67 2.67a.67.67 0 0 1-1.34 0Zm13.17 8.72v3.9c0 .4-.32.72-.72.72h-3.9v4.67h-1.33v-4.67h-2.57v4.67h-1.33v-4.67h-2.53v4.67h-1.33v-4.67H7.23c-.4 0-.72-.32-.72-.72v-3.9c0-.4.32-.72.72-.72h2.11v-8c0-3.68 2.98-6.67 6.67-6.67s6.67 2.98 6.67 6.67v8h1.78c.4 0 .72.32.72.72ZM10.67 22h2v-3.33c0-1.84 1.49-3.33 3.33-3.33s3.33 1.49 3.33 3.33V22h2v-8c0-2.94-2.39-5.33-5.33-5.33s-5.33 2.39-5.33 5.33zm6-2.67V22H18v-3.33c0-1.1-.9-2-2-2s-2 .9-2 2V22h1.33v-2.67a.67.67 0 0 1 1.34 0m7.16 4h-16V26h16zM16.67 2h-1.33v2.67h1.33zM8.46 7.51 6.57 5.62l-.94.94 1.89 1.89zm-5.13 9.16H6v-1.33H3.33zm23.04-10.1-.94-.94-1.89 1.89.94.94zM26 15.33v1.33h2.67v-1.33z"/>
</svg>
