<svg viewBox="0 0 32 32" xmlns="http://www.w3.org/2000/svg">
  <path d="M31.65 3.25 28.76.36a1.204 1.204 0 0 0-1.7 0L0 27.4l4.59 4.59L31.65 4.95c.47-.47.47-1.23 0-1.7M1.89 27.4 24.01 5.29l2.7 2.7L4.6 30.11l-2.7-2.7ZM29.2 5.52l-2.7-2.7 1.42-1.42 2.7 2.7zm-4.78 11.41-1.73 3.2-3.2 1.73 3.2 1.73 1.73 3.2 1.73-3.2 3.2-1.73-3.2-1.73zm.74 5.66-.74 1.37-.74-1.37-1.37-.74 1.37-.74.74-1.37.74 1.37 1.37.74zM7.73 17.64l1.73-3.2 3.2-1.73-3.2-1.73-1.73-3.2L6 10.98l-3.2 1.73L6 14.44zm-.74-5.67.74-1.37.74 1.37 1.37.74-1.37.74-.74 1.37-.74-1.37-1.37-.74zM13 9.84l1.73-3.2 3.2-1.73-3.2-1.73L13 0l-1.73 3.2-3.2 1.73 3.2 1.73L13 9.86Zm-.74-5.66L13 2.81l.74 1.37 1.37.74-1.37.74L13 7.03l-.74-1.37-1.37-.74z"/>
</svg>
