<svg viewBox="0 0 32 32" xmlns="http://www.w3.org/2000/svg">
  <path d="M26.8 26.67H11.86l-1.1-3.99 17.09-.02 3.97-14.69h-4.83C26.86 3.55 23.2 0 18.69 0s-8.17 3.55-8.3 7.98H6.5L3.95 5.52c-.09-.11-.19-.2-.3-.29l-.04-.04c-.4-.3-.89-.49-1.43-.49C.86 4.69-.19 5.73-.19 7.02S.86 9.34 2.16 9.34c1.02 0 1.88-.65 2.2-1.55l1.22 1.18.77 2.82L9.34 22.7l1.13 4.12c-1.08.34-1.87 1.34-1.87 2.52 0 1.47 1.21 2.66 2.69 2.66s2.69-1.19 2.69-2.66c0-.48-.14-.93-.37-1.32h10.84c-.23.39-.37.84-.37 1.32 0 1.47 1.21 2.66 2.69 2.66s2.69-1.19 2.69-2.66-1.21-2.66-2.69-2.66ZM18.69 1.33c3.84 0 6.96 3.09 6.96 6.88s-3.12 6.88-6.96 6.88-6.96-3.09-6.96-6.88 3.12-6.88 6.96-6.88m-8.23 7.98c.55 4.01 4.02 7.11 8.23 7.11s7.68-3.1 8.23-7.11h3.14l-3.25 12.02-16.42.02-2.7-9.84-.6-2.21h3.38Zm-7.3-2.29a1 1 0 0 1-2 0c0-.55.45-.99 1-.99.24 0 .44.09.61.23l.15.14c.14.17.24.38.24.62m9.49 22.32c0 .73-.6 1.33-1.34 1.33s-1.34-.6-1.34-1.33.59-1.31 1.32-1.32h.04c.73.01 1.32.6 1.32 1.32m14.15 1.33c-.74 0-1.34-.6-1.34-1.33s.6-1.33 1.34-1.33 1.34.6 1.34 1.33-.6 1.33-1.34 1.33m-9-19.51-2.95-2.92.95-.94 2 1.97 4.47-4.42.95.94-5.43 5.36Z"/>
</svg>
