<svg viewBox="0 0 32 32" xmlns="http://www.w3.org/2000/svg">
  <path d="M7.33 24H6v1.33H4v5.33h5.33v-5.33h-2zM8 26.67v2.67H5.33v-2.67zm2.67 4h6.67v-7.33h-6.67zM12 29.33V28h4v1.33zm1.33-4.66V26h1.33v-1.33h1.33v2h-4v-2h1.33Zm5.33 6h9.33V24h-9.33zM20 25.33h6.67v4H20zm1.15 1.34h4.36V28h-4.36zM31.99 9.26l-4.54-8.1H4.52L.01 9.25H0v1.66c0 1.4.78 2.6 1.91 3.23v16.52h1.33v-9.33h26.09v9.47h1.33V13.75c.81-.68 1.33-1.69 1.33-2.83zm-1.52 0h-4.79l-1.9-6.76h2.9zm.19 1.66a2.39 2.39 0 1 1-4.78 0v-.33h4.78zm-23.2-.33h4.78v.33a2.39 2.39 0 1 1-4.78 0zm.19-1.33L9.56 2.5h3.59l-.79 6.76zm10.67.02H13.7l.79-6.78h3.03l.79 6.78Zm-4.72 1.33h4.78v.33a2.39 2.39 0 1 1-4.78 0zm2.4 4.06c.47 0 .92-.1 1.33-.26v.26h1.33v-1.14c.15-.15.29-.32.41-.49.25.36.57.68.93.93v2.04h-4v-1.33Zm3.74-3.75v-.33h4.78v.33a2.39 2.39 0 1 1-4.78 0m-.08-1.66-.79-6.76h3.52l1.9 6.76h-4.64ZM5.3 2.5h2.87l-1.9 6.75H1.51zm-3.97 8.08h4.78v.33a2.39 2.39 0 1 1-4.78 0zm4 9.42v-2.67h1.33v1.33h1.33v-1.33h1.33v1.33h1.33v-1.33h1.33V20H5.31Zm8 0v-4H4v4h-.76v-5.41c.16.02.31.05.48.05 1.27 0 2.39-.64 3.06-1.61.67.98 1.79 1.62 3.07 1.62s2.39-.64 3.06-1.61c.43.63 1.04 1.11 1.76 1.38v5.59h-1.33ZM16 20v-2.67h1.33v1.33h1.33v-1.33h1.33V20h-4Zm8 0v-1.33h2.67V20zm2.66-2.67h-2.67V16h2.67zM29.33 20H28v-5.33h-5.33V20h-1.33v-5.45a3.7 3.7 0 0 0 3.87-1.53c.67.98 1.79 1.62 3.07 1.62.37 0 .72-.07 1.06-.17V20Z"/>
</svg>
