<svg viewBox="0 0 32 32" xmlns="http://www.w3.org/2000/svg">
  <path d="M26.69 17.33h1.47c.28.77 1 1.32 1.86 1.32 1.09 0 1.99-.89 1.99-1.98s-.89-1.98-1.99-1.98c-.86 0-1.59.55-1.86 1.32H27c.22-1.14.36-2.3.43-3.47.03-.5.02-1 .01-1.5h.72c.28.77 1 1.32 1.86 1.32 1.09 0 1.99-.89 1.99-1.98s-.89-1.98-1.99-1.98c-.86 0-1.59.55-1.86 1.32h-.74l-.03-.94c-1.55-.17-2.15-.37-2.63-1.14-.35-.56-.47-1.26-.73-1.89-.08-.2-.22-.45-.39-.51-2.42-.94-4.86-1.86-7.3-2.75-.11-.04-.24-.06-.37-.06-.16 0-.33.03-.47.08-2.25.84-4.49 1.72-6.74 2.55-.53.2-.79.47-.9 1.07-.29 1.7-1.19 2.47-2.85 2.6-.09 0-.19.03-.32.05-.03.32-.08.63-.1.94h-.74c-.28-.77-1-1.32-1.86-1.32C.89 8.37 0 9.26 0 10.35s.89 1.98 1.98 1.98c.86 0 1.59-.55 1.86-1.32h.72c0 1.67.13 3.33.45 4.98H3.84c-.28-.77-1-1.32-1.86-1.32-1.09.01-1.98.9-1.98 1.99s.89 1.98 1.98 1.98c.86 0 1.59-.55 1.86-1.32h1.47c.46 1.81 1.1 3.48 1.93 4.98h-3.4c-.28-.77-1-1.32-1.86-1.32-1.09.01-1.98.9-1.98 1.99s.89 1.98 1.98 1.98c.86 0 1.59-.55 1.86-1.32h4.24c1.66 2.42 3.91 4.35 6.9 5.66.19.08.37.21.55.31h.83c.07-.04.13-.09.2-.12 3.12-1.27 5.54-3.24 7.34-5.85h4.25c.28.77 1 1.32 1.86 1.32 1.09 0 1.99-.89 1.99-1.98s-.89-1.98-1.99-1.98c-.86 0-1.59.55-1.86 1.32h-3.42c.45-.81.87-1.65 1.21-2.57.3-.79.53-1.6.74-2.41Zm3.32-1.32c.36 0 .65.29.65.65s-.29.65-.65.65-.65-.29-.65-.65.29-.65.65-.65M1.98 23.62c-.36 0-.65-.29-.65-.65s.29-.65.65-.65.65.29.65.65-.29.65-.65.65m28.03-1.3c.36 0 .65.29.65.65s-.29.65-.65.65-.65-.29-.65-.65.29-.65.65-.65m0-12.62c.36 0 .65.29.65.65s-.29.65-.65.65-.65-.29-.65-.65.29-.65.65-.65M1.98 11c-.36 0-.65-.29-.65-.65s.29-.65.65-.65.65.29.65.65-.29.65-.65.65m0 6.31c-.36 0-.65-.29-.65-.65s.29-.65.65-.65.65.29.65.65-.29.65-.65.65m14.08 10.94s-.03.01-.05.02h-.11c-.12-.07-.25-.14-.38-.2-4.78-2.11-7.75-5.9-9.06-11.6-.46-2-.64-4.15-.55-6.57 1.83-.38 2.93-1.59 3.27-3.59v-.03c.01 0 .02 0 .04-.01 1.22-.45 2.43-.91 3.64-1.38q1.545-.6 3.09-1.17c2.2.81 4.52 1.68 6.89 2.59.06.16.12.33.17.5.15.46.31.98.62 1.48.62 1.01 1.43 1.39 2.46 1.6v.05c.03.86.06 1.68.01 2.49-.14 2.49-.6 4.72-1.39 6.82-1.66 4.36-4.48 7.3-8.64 8.99Zm-1.28-11.94c0-.6.48-1.08 1.08-1.08s1.08.48 1.08 1.08c0 .34-.17.63-.41.83v.61a.67.67 0 0 1-1.34 0v-.61c-.25-.2-.41-.49-.41-.83m5.08-5.1c0-2.26-1.79-4.1-4-4.1s-4 1.84-4 4.1v1.14H10.1v9.3h11.51v-9.3h-1.76v-1.14Zm-6.67 0c0-1.53 1.2-2.77 2.67-2.77s2.67 1.24 2.67 2.77v1.14H13.2v-1.14Zm7.09 9.11h-8.84v-6.63h8.84z"/>
</svg>
