<svg viewBox="0 0 32 32" xmlns="http://www.w3.org/2000/svg">
  <path d="M8.04 22.13h15.85v1.34H8.04zm14.9-11.65h1.14v6.13h-1.62v5.08H9.44v-7.22c0-1.22 1-2.22 2.22-2.22h5.19v-1.76H18v-.63c0-1.42 1.11-2.58 2.47-2.58s2.47 1.16 2.47 2.58v.63Zm-3.6 0h2.27v-.63c0-.69-.51-1.24-1.14-1.24s-1.13.56-1.13 1.24zm1.79 6.13h-4.28v-3.03h-5.19c-.48 0-.89.41-.89.89v5.89h10.36zm1.62-4.79h-4.56v3.46h4.56zm-2.93 2.16a.67.67 0 0 0 1.34 0v-.44c.11-.14.19-.32.19-.51 0-.47-.38-.86-.86-.86s-.86.38-.86.86c0 .2.08.37.19.51zM18.06 5.2V3.33l-1.87 1.86V.02h-1.33v5.15l-1.85-1.86V5.2l2.53 2.54 2.54-2.54ZM6.56 4.02v2.64L2.91 3.01l-.94.94L5.6 7.59H2.98l1.33 1.33h3.58V5.34L6.57 4.02zm21.13 4.91 1.33-1.33H26.4l3.63-3.64-.94-.94-3.65 3.65V4.03h-.02L24.1 5.35v3.59h3.58ZM4.31 25.01l-1.33 1.33H5.6l-3.63 3.64.94.94 3.65-3.65v2.64h.02l1.32-1.32V25H4.32Zm24.71 1.34-1.33-1.34h-3.58v3.58l1.32 1.32h.01v-2.64l3.65 3.65.94-.94-3.63-3.64h2.62Zm-15.99.49v1.87h.01l1.86-1.86v5.17h1.33v-5.15l1.85 1.86v-1.89l-2.53-2.54-2.54 2.54Zm-9.74-6.98h1.88l2.54-2.53-2.53-2.54H3.31l1.86 1.88H0v1.34h5.14l-1.86 1.85Zm23.56-3.19 1.86-1.87h-.01l-1.86-.01-2.53 2.54 2.54 2.53h1.88L26.87 18h5.14v-1.34h-5.16Z"/>
</svg>
