<svg viewBox="0 0 32 32" xmlns="http://www.w3.org/2000/svg">
  <path d="M23.61 14.09v.02c0 .46-.08.9-.2 1.32l3.31 1.09-10.48 5.82c-.17.1-.36.15-.56.15-.45 0-.85-.27-1.04-.71L9.68 10.9l11.2 3.69c.03-.16.06-.32.06-.49v-.9l-5.26-1.73V4.16c.86-.28 1.48-1.08 1.48-2.03 0-1.18-.96-2.14-2.14-2.14s-2.15.96-2.15 2.15c0 .95.63 1.75 1.48 2.03v6.87l-6.67-2.2-.16.5-5.08 15.43 21.9 7.22 5.25-15.93-5.96-1.97ZM15.02 1.32c.45 0 .82.37.82.82s-.37.82-.82.82-.82-.37-.82-.82.37-.82.82-.82m12.67 16.19L23.8 29.32l-3.55-7.68zm-12.01 6.31c.42 0 .84-.11 1.23-.34l2.17-1.2 3.58 7.75-17.74-5.85 7.48-4.1 1.03 2.25c.4.94 1.31 1.49 2.25 1.49m-3.83-4.95-7.42 4.07 3.89-11.81zm9.76-8.06c-.62.3-1.35.44-2 .49 1.09-.89 2.14-1.93 2.67-3.25.55 1.32 1.54 2.41 2.67 3.25-.6-.02-1.38-.18-2-.48v3.29c0 2.37-1.93 4.3-4.3 4.3-1.66 0-3.19-.97-3.9-2.48a.67.67 0 0 1 .32-.89c.33-.15.73-.01.89.32a2.98 2.98 0 0 0 2.69 1.71c1.63 0 2.96-1.33 2.96-2.96z"/>
</svg>
