<svg viewBox="0 0 32 32" xmlns="http://www.w3.org/2000/svg">
  <path d="M16.03 20.53c-1.55 0-2.81 1.25-2.81 2.79s1.26 2.79 2.81 2.79 2.81-1.25 2.81-2.79-1.26-2.79-2.81-2.79m0 4.25c-.81 0-1.47-.65-1.47-1.46s.66-1.46 1.47-1.46 1.47.65 1.47 1.46-.66 1.46-1.47 1.46m8.06-2.13h-2.44c-.07-.55-.18-1.07-.39-1.56l1.13-.65.96-.55c.32-.19.43-.59.25-.91a.67.67 0 0 0-.92-.24l-.96.55-1.14.65q-.495-.645-1.14-1.14l.81-1.39.41-.7c.19-.32.08-.73-.25-.91a.683.683 0 0 0-.92.24l-.55.95-.65 1.12a5.5 5.5 0 0 0-1.57-.39V15.3a.67.67 0 0 0-1.34 0v2.42c-.55.06-1.08.18-1.57.39l-.8-1.37-.41-.7a.67.67 0 0 0-.92-.24.67.67 0 0 0-.25.91l.55.95.66 1.14c-.43.32-.82.7-1.14 1.14l-1.15-.66-.96-.55a.67.67 0 0 0-.92.24c-.19.32-.08.73.25.91l.71.4 1.38.79c-.21.49-.33 1.01-.39 1.56H7.98a.67.67 0 0 0 0 1.34h2.44c.07.55.18 1.07.39 1.56l-1.38.79-.71.41a.67.67 0 0 0-.25.91c.12.21.35.33.58.33.11 0 .23-.03.34-.09l.96-.55 1.15-.66q.495.645 1.14 1.14l-.66 1.14-.55.95c-.19.32-.08.73.25.91.11.06.22.09.34.09.23 0 .46-.12.58-.33l.41-.7.8-1.37c.49.21 1.02.33 1.57.39v2.42a.67.67 0 0 0 1.34 0v-2.42a5.5 5.5 0 0 0 1.57-.39l.65 1.12.55.95c.12.21.35.33.58.33a.67.67 0 0 0 .59-1l-.41-.7-.81-1.39c.43-.32.82-.7 1.14-1.14l1.14.65.96.55c.11.06.22.09.34.09.23 0 .46-.12.58-.33a.67.67 0 0 0-.25-.91l-.96-.55-1.13-.65c.21-.49.33-1.01.39-1.56h2.44a.67.67 0 0 0 0-1.34Zm-8.06 4.99c-2.4 0-4.35-1.94-4.35-4.32S13.63 19 16.03 19s4.35 1.94 4.35 4.32-1.95 4.32-4.35 4.32M2.25 13.02h1.34v2.79H2.25zm6.76 2.79H7.67v-2.79h1.34zM5.63 8.62c1.41 0 2.55-1.14 2.55-2.54S7.04 3.54 5.63 3.54 3.08 4.68 3.08 6.08s1.14 2.54 2.55 2.54m0-3.74c.67 0 1.21.54 1.21 1.2s-.54 1.2-1.21 1.2-1.21-.54-1.21-1.2.54-1.2 1.21-1.2m8.19 7.38h-1.34V9.47h1.34zm5.41 0h-1.34V9.47h1.34zm-3.38-7.19c1.41 0 2.55-1.14 2.55-2.54S17.26 0 15.85 0 13.3 1.14 13.3 2.54s1.14 2.54 2.55 2.54Zm0-3.74c.67 0 1.21.54 1.21 1.2s-.54 1.2-1.21 1.2-1.21-.54-1.21-1.2.54-1.2 1.21-1.2m16 11.36v3.12h-1.34v-3.12c0-1.18-.78-2.14-1.75-2.14h-5.38c-.96 0-1.75.96-1.75 2.14v1.72h-1.34v-1.72c0-.15.02-.29.04-.44h-.04V9.13c0-1.18-.78-2.14-1.75-2.14h-5.38c-.96 0-1.75.96-1.75 2.14v3.12h-.04c.02.14.04.29.04.44v1.72h-1.34v-1.72c0-1.18-.78-2.14-1.75-2.14H2.94c-.96 0-1.75.96-1.75 2.14v3.12H-.15v-3.12c0-1.91 1.39-3.47 3.09-3.47h5.38c.65 0 1.25.23 1.75.61v-.69c0-1.91 1.39-3.47 3.09-3.47h5.38c1.71 0 3.09 1.56 3.09 3.47v.69c.5-.39 1.1-.61 1.75-.61h5.38c1.71 0 3.09 1.56 3.09 3.47m-7.82 3.12h-1.34v-2.79h1.34zm4.07-2.79h1.34v2.79H28.1zm-2.03-4.4c1.41 0 2.55-1.14 2.55-2.54s-1.14-2.54-2.55-2.54-2.55 1.14-2.55 2.54 1.14 2.54 2.55 2.54m0-3.74c.67 0 1.21.54 1.21 1.2s-.54 1.2-1.21 1.2-1.21-.54-1.21-1.2.54-1.2 1.21-1.2"/>
</svg>
