<svg viewBox="0 0 32 32" xmlns="http://www.w3.org/2000/svg">
  <path d="M29.15 21.66V6.05c0-1.22-1-2.22-2.21-2.22h-4.62l.21.33c.21.33.38.67.56 1h3.85c.48 0 .89.41.89.89v3.94h-3.29c.02.24.06.49.06.73 0 .21-.02.4-.03.6h3.13v2.65h-3.62v-.2c-.04.12-.1.22-.14.34-.18.42-.37.83-.61 1.19h1.9v2.65h-3.56v-.8c-.3.23-.61.43-.94.61-.08.05-.17.09-.25.14a7.5 7.5 0 0 1-3.43.85c-.11 0-.22-.01-.33-.02-.28-.01-.55-.04-.81-.07-.1-.01-.21-.03-.31-.04-.82-.13-1.55-.36-2.19-.67h-1.65V16.8a8 8 0 0 1-.68-.73c-.08-.09-.14-.19-.21-.28q-.195-.255-.36-.51c-.03-.05-.05-.09-.08-.14-.23-.39-.44-.78-.6-1.18h-.58V11.7c-.02-.2-.03-.39-.03-.56 0-.41.03-.8.07-1.17H4.21V6.03c0-.48.41-.89.89-.89h6.28c.27-.35.55-.69.81-1l.27-.33H5.1c-1.22 0-2.21 1-2.21 2.22v15.61H0v3.01c0 1.22 1 2.22 2.21 2.22h27.57c1.22 0 2.21-1 2.21-2.22v-3.01h-2.86ZM4.28 15.31h1.15v2.65H4.28zm23.41 0v2.65h-1.12v-2.65zM15.37 19.3h12.45v2.34H4.19V19.3zm-4.96-3.99v2.65H6.79v-2.65zm-6.17-3.99h3.62v2.65H4.24zm26.44 13.35c0 .48-.41.89-.88.89H2.22c-.48 0-.88-.41-.88-.89v-1.68h29.34zm-13.65-7.23c3.11 0 6.23-2.35 6.23-6.71 0-2.1-.66-3.99-1.85-5.84 0 2.18-1.27 3.14-2.17 3.14.9-6.46-3.75-8.03-3.75-8.03 0 4.71-4.96 5.49-4.96 11.16 0 1.19 1 6.28 6.5 6.28m-.3-1.51c-.53 0-1.4-.32-1.51-1.47.13.03.27.04.4.04h1.33v-1.33c0-.39.05-.72.12-1.01.15.18.31.35.45.5.53.56.85.9.85 1.72 0 .02-.07 1.55-1.65 1.55Zm-.25-13.7c.91.92 1.86 2.63 1.44 5.61l-.21 1.52h1.53c.83 0 1.67-.39 2.32-1.1.25.81.37 1.62.37 2.47 0 2.31-1.06 3.88-2.47 4.7.18-.45.24-.86.24-1.04 0-2.6-2.27-2.63-2.27-4.79 0 0-1.81.84-1.81 3.57-.68 0-.9-.84-.9-1.65-.54.85-.84 1.71-.85 2.68 0 .39.07.74.17 1.06-2.01-1.41-2.18-4.04-2.18-4.08 0-2.48 1.09-3.78 2.34-5.29.85-1.02 1.78-2.14 2.27-3.64Z"/>
</svg>
