<svg viewBox="0 0 32 32" xmlns="http://www.w3.org/2000/svg">
  <path d="M32.01 15.93h-1.36C30.61 8.11 24.43 1.75 16.68 1.4V0h-1.33v1.39c-7.77.35-13.96 6.71-14 14.54H0v1.33h1.4c.62 7.28 6.57 13.03 13.93 13.36v1.39h1.33v-1.39c7.36-.34 13.3-6.08 13.92-13.36H32v-1.33Zm-2.7 0h-2.02C27.25 9.96 22.57 5.1 16.67 4.75V2.73c7 .35 12.6 6.12 12.64 13.2M16 25.96c-5.49 0-9.96-4.47-9.96-9.96S10.51 6.05 16 6.05s9.96 4.47 9.96 9.96-4.47 9.96-9.96 9.96Zm-.66-23.23v2.02c-5.9.34-10.59 5.2-10.63 11.18H2.69c.04-7.08 5.65-12.85 12.66-13.2ZM2.74 17.26h2.03c.6 5.43 5.05 9.68 10.56 10v2.02c-6.62-.33-11.98-5.49-12.6-12.03Zm13.93 12.02v-2.02c5.5-.33 9.95-4.58 10.55-10h2.03c-.61 6.53-5.97 11.69-12.58 12.02m3.78-12.19h2.22a.67.67 0 0 0 0-1.34h-2.23c0-.37-.06-.72-.15-1.06L22 12.98a.664.664 0 1 0-.94-.94l-1.34 1.33c-.39-.59-.91-1.08-1.53-1.44 0-.05.02-.09.02-.15 0-.51-.18-.98-.48-1.36l.39-.39a.664.664 0 1 0-.94-.94l-.56.56s0 .01-.01.02c-.2-.06-.41-.1-.63-.1s-.43.04-.63.1c0 0 0-.01-.01-.02l-.56-.56a.664.664 0 1 0-.94.94l.39.39c-.29.38-.48.84-.48 1.36 0 .05.02.1.02.15-.62.36-1.14.84-1.53 1.44l-1.34-1.33a.664.664 0 1 0-.94.94l1.71 1.71c-.09.34-.15.7-.15 1.06H9.29a.67.67 0 0 0 0 1.34h2.22V18c0 .1.02.18.03.28l-1.59 1.59c-.26.26-.26.68 0 .94.13.13.3.2.47.2s.34-.07.47-.2l1.01-1.01c.7 1.55 2.25 2.64 4.05 2.64s3.36-1.09 4.05-2.64l1.01 1.01c.13.13.3.2.47.2s.34-.07.47-.2c.26-.26.26-.68 0-.94l-1.59-1.59c0-.09.03-.18.03-.28v-.91ZM16 13.48c-.95 0-1.81.21-2.53.5.56-.79 1.49-1.31 2.53-1.31s1.97.52 2.53 1.31c-.72-.29-1.58-.5-2.53-.5m0-2.58c.35 0 .65.21.79.51-.26-.05-.52-.08-.79-.08s-.54.03-.79.08c.14-.3.44-.51.79-.51m.62 10.14v-2.85a.67.67 0 0 0-1.34 0v2.82a3.11 3.11 0 0 1-2.4-3.02V15.8c.49-.39 1.35-.79 2.4-.93v1.03a.67.67 0 0 0 1.34 0v-1.03c1.09.13 1.98.54 2.49.94V18c0 1.5-1.07 2.76-2.49 3.05Z"/>
</svg>
