<svg viewBox="0 0 32 32" xmlns="http://www.w3.org/2000/svg">
  <path d="M9.56 16.75c0 .32-.25.58-.62.58s-.62-.26-.62-.58.25-.58.62-.58.62.27.62.58m-1.17-2.44.2 1.55h.68l.2-1.55v-1.18H8.39zm.6-6.04 6.3 10.89H2.7L9 8.27Zm3.99 9.55L9 10.93l-3.98 6.89h7.97ZM2.79 27.1h4v-1.33h-4zm0-2.68h5.62v-1.33H2.79zm0-2.62h9.93v-1.33H2.79zM32 20.48l-2.64 2.64-5.27-5.3c-1.01.57-2.16.92-3.39.92-.96 0-1.88-.2-2.71-.55v11.55H0V4.44h4.19V3.19h9.61v1.25h4.19v.94c.83-.35 1.75-.55 2.71-.55 3.84 0 6.96 3.11 6.96 6.95 0 1.24-.35 2.39-.92 3.4l5.27 5.29ZM5.53 5.93h6.94v-1.4H5.53zm11.12 11.49c-1.76-1.26-2.91-3.31-2.91-5.64s1.15-4.37 2.91-5.64v-.37H13.8v1.49H4.19V5.77H1.34V28.4h15.31zm9.67-5.63c0-3.1-2.52-5.62-5.62-5.62s-5.62 2.52-5.62 5.62 2.52 5.62 5.62 5.62 5.62-2.52 5.62-5.62m3.04 9.44.75-.75-4.09-4.11c-.23.26-.49.51-.76.75l4.1 4.12Z"/>
</svg>
