<svg viewBox="0 0 32 32" xmlns="http://www.w3.org/2000/svg">
  <path d="M16.13 8.48c1.95.16 3.73.97 5.08 2.28.88.85 1.59 1.86 2.04 2.91a9.5 9.5 0 0 1 .06 7.4 8.6 8.6 0 0 1-1.74 2.7 8.2 8.2 0 0 1-5.42 2.64h-.62q-.705 0-1.53-.15c-1.78-.35-3.35-1.22-4.53-2.53a8.6 8.6 0 0 1-1.73-2.69c-.98-2.33-.96-5.02.06-7.37.45-1.05 1.16-2.06 2.04-2.91a8.37 8.37 0 0 1 5.02-2.28c.35-.04.63-.04.96-.02.09 0 .19.01.3.01Zm-4.11-3.03c-.05.38-.15.79-.3 1.21v.04c-.13.4.04.68.14.86.04.07.09.16.14.28l.25.44h.47l.21-.03c1.74-.57 3.6-.57 5.37 0l.74.03.17-.4c.05-.12.1-.21.14-.27.11-.18.27-.46.17-.88l-.05-.14c-.18-.37-.25-.77-.3-1.08 0-.13.13-.47.22-.7.14-.36.27-.7.27-1.01 0-.59-.56-.99-1.28-1.49-.3-.21-.61-.43-.8-.62-.2-.19-.39-.43-.57-.67-.44-.56-.82-1.05-1.42-1.05s-1.03.55-1.48 1.13c-.17.22-.34.45-.5.61-.2.19-.48.39-.76.58-.73.52-1.31.93-1.31 1.52 0 .31.13.65.27 1.01.09.23.22.57.22.61Zm16.42 2.14h-.02c-.66-.44-4.51-.19-6.75 1.69l-.58.48.55.51c.89.84 1.61 1.86 2.14 3.03l.27.59.6-.25c.5-.21 1.05-.32 1.59-.28.61 0 1.77-.22 2.36-2.03.33-1 .57-3.23-.16-3.74M7.18 21.29l-.28-.65-.63.32c-1.89.96-2.71 2.92-3.03 4-.02.08-.55 1.89-.19 2.57s0 .02 0 .02c.29.49 1.29.64 2.22.64.57 0 1.11-.06 1.45-.12 1.91-.38 2.3-1.44 2.37-2.06.03-.35.1-.69.23-1.03l.16-.41-.31-.31c-.83-.83-1.5-1.83-2-2.97Zm17.64-.3-.58-.29-.31.57c-.33.61-1.33 2.34-2 3.03l-.3.31.15.4c.13.34.21.68.23 1.05.07.64.51 1.76 2.68 2.12.01 0 .66.1 1.4.1.85 0 1.8-.12 2.04-.64.4-.8-.34-5.13-3.32-6.64Zm-5.73 9.27c-1.4-.24-1.55-1.55-1.44-2.6l.1-.85-.85.11c-.43.06-.85.09-1.33.12-.49.04-1.03-.06-1.56-.15l-.76-.13v.77c-.05 2.15 1.52 4.04 3.66 4.4.19.02.38.04.57.04.7 0 1.39-.16 2.01-.47l2.53-1.26h-2.93ZM4.72 13.36c.53-.03 1.07.07 1.57.29l.6.25.27-.59a9.6 9.6 0 0 1 2.14-3.03l.55-.51-.58-.48C7.03 7.42 3.18 7.17 2.5 7.6c-.73.51-.49 2.74-.16 3.74.59 1.81 1.74 2.06 2.38 2.03Z"/>
</svg>
