<svg viewBox="0 0 32 32" xmlns="http://www.w3.org/2000/svg">
  <path d="m16.61 29.41 4.98-4.98v1.88L15.9 32l-5.7-5.72V24.4l5.07 5.08V17.56h1.33V29.4Zm7.51-24.06v16.83h-6.23v-1.33h4.89V6.72h-5.23V1.33H9.21v6.91h6.94v8.24H9.21v4.37h4.68v1.33H7.88v-5.71H1.93V8.23h5.95V0h10.88l5.36 5.36Zm-9.3 4.22H3.26v5.57h11.56zm7.45-4.18-3.38-3.38v3.38zM8.02 13.36h-1.7l1.67-2.03v-.62H5.35v.74h1.59l-1.72 2.03v.62h2.8zm1.57-2.66h-.87v3.4h.87zm1.73 3.4h-.87v-3.4h1.19c.87 0 1.51.24 1.51 1.13s-.64 1.13-1.51 1.13h-.32zm0-1.83h.35c.34 0 .59-.07.59-.44s-.25-.44-.59-.44h-.35z"/>
</svg>
