<svg viewBox="0 0 32 32" xmlns="http://www.w3.org/2000/svg">
  <path d="M8.47 8.49 8 8.26V0H2.67v8.25l-.47.23C.84 9.16 0 10.52 0 12.04v17.95c0 .8.53 2 2 2h6.67c.8 0 2-.53 2-2V12.05c0-1.52-.84-2.88-2.2-3.56M9.33 30c0 .6-.47.67-.67.67H2c-.6 0-.67-.47-.67-.67V12.05c0-1.01.56-1.92 1.46-2.37l.47-.23.74-.37V1.33h2.67v7.74l.74.37.47.23c.9.45 1.46 1.36 1.46 2.37v17.95Zm22.66-10-.87-7.03h-7.63L22.61 20c-.19 2.33 1.74 4.3 4.02 4.62v6.04h-2.85v1.33h7.03v-1.33h-2.85v-6.05c2.26-.34 4.19-2.31 4.02-4.62Zm-4.71 3.36c-.95 0-1.9-.43-2.56-1.14-.56-.61-.84-1.36-.79-2.05l.73-5.86h5.28l.72 5.8c.06.74-.23 1.49-.8 2.11-.67.72-1.63 1.15-2.58 1.15Zm-8.4-6.13-.38-.19V12.5h-4.33v4.54l-.38.19c-1.1.55-1.79 1.66-1.79 2.89v10.25c0 .65.43 1.62 1.62 1.62h5.42c.65 0 1.62-.43 1.62-1.62V20.12c0-1.23-.68-2.34-1.79-2.89Zm.45 13.14c0 .09 0 .29-.29.29h-5.42c-.09 0-.29 0-.29-.29V20.12c0-.72.4-1.37 1.05-1.7l.38-.19.74-.37v-4.03h1.67v4.03l.74.37.38.19c.65.32 1.05.97 1.05 1.7v10.25Z"/>
</svg>
