<svg viewBox="0 0 32 32" xmlns="http://www.w3.org/2000/svg">
  <path d="M13.85 26.7v1.33l-8.02.06h-.04c-1.64 0-3.1-.84-3.92-2.25a4.47 4.47 0 0 1 0-4.55l3.11-5.41L.76 17.1l-.37-1.28 5.55-1.61.06-.11.1.06.82-.24.22.84 1.49 5.6-1.29.34-1.15-4.31L3 21.93a3.2 3.2 0 0 0 0 3.22 3.17 3.17 0 0 0 2.77 1.58h.02l8.03-.06Zm8.39-6.56v-4.78H21v2.56c0 .92-.32 1.35-.98 1.35-.77 0-.83-.59-.83-1.28v-2.62h-1.23v2.94c0 1.22.39 1.95 1.61 1.95.76 0 1.15-.32 1.44-.79v.67h1.24Zm-8.9-15.87c.59-1.01 1.61-1.55 2.79-1.6 1.16 0 2.19.62 2.76 1.64l3.13 5.57-4.29-1.21-.36 1.28 5.58 1.58.84.24.22-.83.1-.06-.06-.11 1.45-5.59-1.29-.33-1.1 4.25-3.06-5.44c-.81-1.44-2.27-2.31-3.92-2.32-1.7-.01-3.12.83-3.95 2.26l-4.05 6.94 1.15.67 4.05-6.94Zm16.62 16.78-3.98-6.98-1.16.66 3.98 6.98c.58 1.02.57 2.22-.01 3.22-.58.99-1.61 1.57-2.77 1.57h-.04l-6.39-.07 3.2-3.11-.93-.96-4.16 4.04-.63.61.61.6v.12h.12l4.12 4.05.93-.95-3.13-3.08 6.24.07h.06c1.63 0 3.09-.83 3.91-2.23.83-1.41.84-3.12.02-4.55Zm-15.79-2.21c0 .45 0 .86.04 1.3h-1.16l-.03-.7c-.34.55-.85.81-1.48.81-.93 0-1.66-.62-1.66-1.46 0-1.19 1.18-1.64 3.06-1.76-.07-.61-.45-.78-1.04-.78s-1.18.21-1.61.45v-1.07c.33-.18 1.06-.37 1.79-.37 1.36 0 2.07.62 2.07 2.13v1.45Zm-1.16-1.04c-1.19 0-1.86.24-1.86.88 0 .37.26.7.77.7S13 19.05 13 17.86v-.06Zm2.44 2.34h1.23v-6.71h-1.23z"/>
</svg>
