<svg viewBox="0 0 32 32" xmlns="http://www.w3.org/2000/svg">
  <path d="M18.27 5.64c0-1.25-1.02-2.27-2.28-2.27s-2.28 1.02-2.28 2.27 1.02 2.27 2.28 2.27 2.28-1.02 2.28-2.27m-3.22 0a.939.939 0 1 1 1.88 0 .939.939 0 1 1-1.88 0m16.97 19.21-.02-.07c0-.09.01-.17.01-.26 0-1.21-.3-2.35-.81-3.36l-2.52-11.4-6.59-2.02-1.01.34c.34-.84.57-1.68.57-2.47 0-3.11-2.54-5.64-5.65-5.64s-5.65 2.53-5.65 5.65c0 .9.28 1.86.71 2.81l-1.04-.28-6.66 1.62-1.53 6.92-1.81 8.16 7.99-1.62 8.01 1.62 1.09-.27c.03 4.08 3.36 7.39 7.45 7.39s7.27-3.17 7.44-7.12zM9.64 15.73l5.71 1.33v6.3l-6.59-1.33.87-6.3Zm7.04 1.3 5.72-1.66.27 1.97c-2.77.73-4.91 3-5.44 5.84l-.55.14v-6.28Zm7.31.08-.23-1.64 5.19 1.7.36 1.63a7.42 7.42 0 0 0-4.75-1.71q-.285 0-.57.03Zm4.63-1.45L23.56 14l-.64-4.61 4.63 1.42 1.07 4.84Zm-7.05-6.33.65 4.7-5.53 1.61V14.4c.6-.62 2.31-2.49 3.56-4.63zM16 1.3c2.38 0 4.32 1.93 4.32 4.31 0 2.62-3.11 6.25-4.32 7.57-1.21-1.31-4.32-4.94-4.32-7.57 0-2.38 1.94-4.31 4.32-4.31m-.65 13.14v1.24L9.82 14.4l.66-4.74 1.43.39c1.27 2.08 2.91 3.85 3.44 4.4Zm-6.23-4.7-.64 4.63-5.06 1.33 1.07-4.83 4.64-1.13Zm-6.03 7.43 5.19-1.37-.86 6.19-5.65 1.14 1.32-5.97Zm21.47 13.47c-3.37 0-6.12-2.74-6.12-6.11s2.75-6.11 6.12-6.11 6.12 2.74 6.12 6.11-2.75 6.11-6.12 6.11m.67-6.8h3.24v1.33h-3.24v3.23h-1.34v-3.23h-3.22v-1.33h3.22v-3.19h1.34z"/>
</svg>
