<svg viewBox="0 0 32 32" xmlns="http://www.w3.org/2000/svg">
  <path d="M30.67 8.33s-3.29 1.45-5.53 2.75c-.63.37-1.96 2.01-2.31 2.45-.09 1.1-.3 2.2-.65 3.27-.45 1.49-1.14 2.89-1.98 4.18s-1.84 2.48-2.96 3.55c-.56.54-1.14 1.05-1.75 1.52-.16.12-.33.26-.51.38 1.7.14 2.92.54 2.92 1 0 .58-1.98 1.05-4.43 1.05s-4.43-.47-4.43-1.05c0-.45 1.21-.84 2.89-1 .05.03.1.07.16.1-.49-.35-.98-.73-1.45-1.14-.86-.72-1.64-1.52-2.38-2.36-.86-1-1.63-2.08-2.26-3.25-.58-.4-1.14-.82-1.71-1.26-.96-.72-1.91-1.45-2.83-2.2-.14-.12-.17-.33-.05-.47.05-.07.14-.12.24-.12.93-.07 1.84-.12 2.76-.14-.12-.52-.21-1.07-.28-1.59-.07-.56-.1-1.12-.1-1.68s.05-1.14.16-1.7c.21-1.12.61-2.19 1.19-3.17.58-.96 1.35-1.82 2.24-2.52.1-.09.23-.17.33-.26.05-.03.12-.09.17-.12.02-.02.05-.03.07-.05-.02 0-.03-.02-.05-.02-.12-.03-.24-.07-.37-.1l-.4-.09c-.07-.02-.14-.03-.21-.05-.03-.02-.07-.02-.1-.03l-.14-.07s-.03-.02-.05-.05c-.02-.02-.05-.07-.05-.12s.02-.1.03-.14c.02-.03.03-.05.05-.05.07-.05.1-.05.14-.07.09-.03.16-.05.23-.05.14-.02.28-.03.42-.05.26-.02.52-.05.77-.09l-.02-.03c-.03-.12-.09-.26-.12-.38-.05-.14-.09-.26-.12-.42 0-.03-.02-.09-.02-.16 0-.02 0-.03.02-.07l.02-.05s.03-.05.07-.07.09-.05.1-.05h.09s.05.02.07.02c.05.02.09.05.12.07l.09.07c.23.17.45.33.66.49.05.03.1.07.16.1.02.02.03.02.03.02.02-.03.02-.05.03-.09.03-.07.05-.14.1-.21.02-.02.02-.03.05-.07.02-.02.03-.05.09-.09.02 0 .03-.02.05-.02s.03-.02.07-.02c.05-.02.1-.02.14 0 .09.02.12.07.16.09.05.05.07.09.1.12.02.03.03.07.07.1.02.03.05.09.07.12l.16-.02.42-.05c.28-.03.56-.05.84-.07.56-.03 1.12-.07 1.68-.05.58.02 1.14.07 1.7.19 2.24.44 4.32 1.75 5.65 3.6.16.23.33.47.47.72.03.05.07.12.1.19l.03.05s.07.02.1.02l.19.03c.14.02.26.03.45.09.02 0 .05.02.09.03 0 0 .02.02.03.02s.02.02.03.03c.03.03.07.05.1.17.02.09 0 .09 0 .1v.03s-.02.03-.02.05l-.02.07c-.03.07-.07.14-.09.21l-.09.09c1.47-.35 3.08-.51 4.3-.59 3.46-.24 3.87.19 3.87.19l.07.23Zm-8.3 5.17c-.33-.23-.72-.7-1-1.17-.24-.4-.44-.82-.49-1.1-.1-.03-.19-.05-.3-.09-.28-.1-.58-.21-.8-.38.28.07.58.07.86.05s.56-.07.84-.12c.16-.03.3-.07.44-.12-.98-.16-.28-1.54-.14-1.8 0-.02 0-.03.02-.03.03-.09.07-.14.09-.21l.17-.37s0-.02.02-.02c-.07-.02-.12-.02-.19-.03l-.21-.03c-.07-.02-.14-.02-.24-.07-.03-.02-.05-.02-.12-.07-.02-.02-.03-.05-.05-.07v-.02l-.02-.02-.05-.09-.1-.17c-.14-.23-.3-.45-.45-.66a8.76 8.76 0 0 0-5.34-3.31c-.52-.1-1.05-.16-1.59-.16s-1.08 0-1.63.03c-.28.02-.54.03-.82.05l-.4.03-.21.02h-.1s-.05 0-.09-.02c-.03 0-.05-.02-.07-.02s-.03-.02-.05-.02a.3.3 0 0 1-.1-.09c-.02-.03-.03-.05-.05-.07v-.02s-.02.05-.03.07c-.02.02-.03.05-.05.07-.02.03-.05.07-.12.1-.02.02-.03.02-.07.03-.02.02-.05.02-.09.02h-.1c-.05-.02-.09-.02-.12-.03-.1-.05-.17-.09-.23-.14-.07-.03-.12-.09-.17-.12-.07-.05-.14-.1-.21-.17.02.05.03.1.05.16.02.07.05.14.05.28v.09s0 .03-.02.07c-.02.03-.03.09-.07.12-.03.05-.14.09-.16.09h-.05l-.1.02c-.14.02-.28.03-.42.05.05.02.09.03.14.05.07.03.16.05.26.14.03.02.05.05.09.1a.38.38 0 0 1 0 .38c-.03.05-.05.07-.07.1-.1.1-.14.1-.21.16-.05.03-.1.07-.16.12-.1.09-.21.16-.31.24a8.77 8.77 0 0 0-2.9 4.2c-.12.4-.23.8-.3 1.21-.09.52-.14 1.07-.14 1.61s.03 1.08.09 1.63c.07.56.16 1.1.28 1.64h.75c.65 0 1.29.02 1.94.05 1 .05 1.98.14 2.97.3.98.16 1.96.37 2.87.75-.93-.33-1.91-.49-2.89-.59-.98-.09-1.96-.12-2.96-.1-.98.02-1.98.05-2.96.14-.72.05-1.45.12-2.17.21.38.35.79.68 1.19 1.03l8.22.09-7.47.56c.07.05.12.1.19.16.31.26.65.52.98.79l6.44-.44-5.98.8c.38.31.77.61 1.17.91l4.83-.66-4.41.98c.38.28.75.56 1.14.84l3.46-.7-3.1.96c.38.28.79.56 1.19.82 1 .65 2.01 1.28 3.13 1.73-1.14-.38-2.19-.98-3.22-1.57-1.03-.61-2.03-1.28-3.03-1.94-.09-.05-.17-.12-.26-.19.49.8 1.05 1.56 1.66 2.27.7.84 1.49 1.61 2.31 2.33.79.68 1.64 1.33 2.54 1.87.59-.37 1.19-.79 1.75-1.22.59-.47 1.15-.96 1.7-1.5 1.08-1.05 2.06-2.22 2.89-3.48s1.49-2.64 1.92-4.08c.26-1.1.47-2.17.56-3.24Zm-2.83 1.64c-.45-.3-.94-.51-1.45-.68s-1.01-.33-1.54-.44c-1.05-.21-2.12-.31-3.18-.31-1.07-.02-2.13.09-3.18.31-.52.12-1.03.28-1.52.49-.24.1-.49.21-.72.35-.23.12-.47.26-.66.44.16-.23.37-.42.58-.61.14-.12.3-.23.45-.33-.1-.23-.21-.44-.31-.68-.05-.12-.09-.24-.14-.35-.03-.12-.09-.24-.12-.37-.16-.49-.26-1-.33-1.52-.05-.52-.05-1.05.02-1.57s.21-1.05.44-1.56c.42-1 1.22-1.85 2.17-2.4.96-.54 2.06-.77 3.13-.77s2.17.23 3.13.75 1.77 1.35 2.24 2.34c.47.98.61 2.08.49 3.13a6.7 6.7 0 0 1-.37 1.5c-.03.12-.09.24-.14.37-.05.12-.09.24-.16.35l-.09.17-.03.09-.05.1c-.03.05-.05.09-.09.14.03.02.07.03.12.05.47.28.94.58 1.33 1ZM12 8.33c-.38-.21-.94.07-1.22.63-.28.54-.19 1.15.19 1.36s.94-.07 1.22-.63c.28-.54.19-1.15-.19-1.36m6 5.52c.03-.09.09-.23.14-.33.05-.12.09-.23.12-.35s.09-.23.1-.35c.14-.47.23-.96.26-1.45.07-.98-.1-1.99-.56-2.87a4.8 4.8 0 0 0-2.05-2.06c-.87-.47-1.87-.66-2.85-.66s-1.99.21-2.85.68c-.44.24-.82.54-1.17.89-.33.37-.61.77-.82 1.21-.44.89-.58 1.89-.52 2.89.05.96.3 1.91.65 2.82l.1-.03c.24-.14.49-.26.75-.38.12-.07.26-.1.38-.16.1-.03.21-.07.31-.1-1.77-3.08-.24-6.25 3.1-6.35 3.32-.12 5.23 3.29 3.41 6.26.07.02.12.03.19.05.44.14.86.3 1.28.51-.04-.09-.02-.14.02-.19Z"/>
</svg>
