<svg viewBox="0 0 32 32" xmlns="http://www.w3.org/2000/svg">
  <path d="M25.33 13.33V0H0v18.61h6.67V32H32V13.33zm-24 3.95V1.33H24v12H6.67v3.95zm29.34 13.39H8v-16h22.67zm-8-28h-5.33V8h5.33zm-1.34 4h-2.67V4h2.67zM12 8H4V6.67h8zm0 2.63H4V9.3h8zm1.57 13.94h3.84l.93 2.6h1.35l-3.48-9.2H14.8l-3.48 9.2h1.32zm1.92-5.29 1.52 4.21h-3.04zm7.69 8.05c-1 0-1.84-.29-2.35-.56v-1.21c.63.36 1.41.71 2.3.71 1.2 0 2.21-.61 2.21-1.99s-1.05-1.99-2.17-1.99c-.75 0-1.45.2-2.16.52l.45-4.84h4.84v1.09h-3.76l-.23 2.37c.47-.13.87-.19 1.17-.19 1.51 0 3.15.83 3.15 3.01s-1.72 3.07-3.46 3.07Z"/>
</svg>
