<svg viewBox="0 0 32 32" xmlns="http://www.w3.org/2000/svg">
  <path d="M25.33 13.33V0H0v18.61h6.67V32H32V13.33zm-24 3.95V1.33H24v12H6.67v3.95zm29.34 13.39H8v-16h22.67zm-8-28h-5.33V8h5.33zm-1.34 4h-2.67V4h2.67zM12 8H4V6.67h8zm0 2.63H4V9.3h8zm1.57 13.94h3.84l.93 2.6h1.35l-3.48-9.2H14.8l-3.48 9.2h1.32zm1.92-5.29 1.52 4.21h-3.04zm8.33 8.05c1.88 0 3.09-1.39 3.09-3.17s-1.11-3.07-2.81-3.07c-.92 0-1.73.36-2.2.96.21-2.24 1.25-3.16 2.72-3.16.71 0 1.21.16 1.71.36v-1.16c-.51-.17-1.03-.27-1.67-.27-2.68 0-4.05 2-4.05 5.29 0 2.69 1.15 4.21 3.21 4.21Zm0-5.22c1.11 0 1.81.85 1.81 2.12s-.72 2.08-1.83 2.08-1.81-.83-1.81-2.12c0-1.2.71-2.08 1.83-2.08"/>
</svg>
