<svg viewBox="0 0 32 32" xmlns="http://www.w3.org/2000/svg">
  <path d="M18.67 13.34V-.01H0v18.65h13.33v13.35H32V13.34zm12 14.65h-5.39c1.16-3.56.62-6.24.07-7.7 1.58.07 2.84 1.25 2.86 1.27l.93-.96c-.08-.08-1.85-1.75-4.14-1.64.13-.56.59-1.62 2.32-1.62v-1.33c-1.74 0-2.73.8-3.23 1.67-1.06-1.34-2.57-1.7-3.45-1.67l.05 1.33c.07 0 1.6 0 2.54 1.46-2.08-.56-3.76.7-4.43 1.6l1.07.8c.12-.16 1.05-1.29 2.48-1.2-1.38 1.13-1.75 2.79-1.73 3.72l1.33-.03c0-.1.01-2.23 2.07-3.12.5 1.21 1.15 3.81-.15 7.44h-9.21V14.69h16v13.32ZM1.33 17.31V1.32h16v12.02h-4v3.97zm13.34 13.35v-1.33h16v1.33zM16 2.68h-5.33v5.33H16zm-1.33 4H12V4.02h2.67zm-12 2.66h5.34v1.33H2.67zm0 2.63h5.34v1.33H2.67z"/>
</svg>
