<svg viewBox="0 0 32 32" xmlns="http://www.w3.org/2000/svg">
  <path d="M24.72 6.73h-4.67v4.66h4.67zm-1.34 3.33h-2v-2h2zm-7.34 2.02H9.48v-1.33h6.56zm0 2.39H9.48v-1.33h6.56zM24.89.02H8.39l-2.86 3.8v15.6L.67 32.02h22.36l4.62-11.96V3.81zM9.06 1.35h15.15l1.75 2.4H7.25zm13.05 29.34H2.61l4.08-10.56h3.44c-1.07 2.47-.69 4.39-.18 5.55-1.57-.09-2.81-.93-2.82-.94l-.78 1.08c.08.06 1.72 1.21 3.85 1.21h.1c-.24.38-.81.85-2.21.85v1.33c1.74 0 2.72-.63 3.23-1.31 1.24 1.23 3.03 1.31 3.39 1.31h.06l-.04-1.33c-.06 0-1.23 0-2.16-.66.22.03.44.05.65.05 1.99 0 3.26-1.23 3.32-1.3l-.94-.95s-.85.78-2.12.88c1.02-.85 1.33-1.93 1.3-2.57l-1.33.04c0 .17-.07 1.56-2.11 2.15-.47-.86-1.1-2.72.21-5.33l-.13-.07h14.76L22.1 30.68Zm4.2-11.9H6.87V5.08h19.45v13.71Z"/>
</svg>
