<svg viewBox="0 0 32 32" xmlns="http://www.w3.org/2000/svg">
  <path d="M8.7 5.36c1.48 0 2.67-1.19 2.67-2.66S10.18.03 8.7.03 6.03 1.22 6.03 2.69s1.2 2.66 2.67 2.66Zm0-4c.74 0 1.34.6 1.34 1.33s-.6 1.33-1.34 1.33-1.34-.6-1.34-1.33.6-1.33 1.34-1.33m6.93 14.65h-3.59v-5.99c0-1.84-1.5-3.33-3.34-3.33s-3.34 1.49-3.34 3.33v4.21c-3.28 1.54-5.39 4.79-5.39 8.44 0 5.16 4.22 9.36 9.4 9.36 2.96 0 5.67-1.39 7.43-3.68l.36 1.36 3.88-.92-2.88-10.91A2.65 2.65 0 0 0 15.64 16ZM9.37 30.7c-4.45 0-8.07-3.6-8.07-8.03 0-2.91 1.57-5.51 4.05-6.93v2.94c0 1.84 1.5 3.33 3.34 3.33h.67v-2h5.22l1.76 6.66a8.04 8.04 0 0 1-6.98 4.04Zm8.75-2.58-2.49-9.45H9.37v-8.66H8.03v10.54a1.99 1.99 0 0 1-1.34-1.88v-8.66c0-1.1.9-2 2.01-2s2.01.9 2.01 2v7.32h4.93c.57 0 1.08.38 1.23.9l2.53 9.57-1.28.3ZM25.29.08c-3.69 0-6.68 2.98-6.68 6.65s2.99 6.65 6.68 6.65 6.68-2.98 6.68-6.65S28.98.08 25.29.08m0 11.98c-2.95 0-5.34-2.39-5.34-5.32s2.4-5.32 5.34-5.32 5.34 2.39 5.34 5.32-2.4 5.32-5.34 5.32m2.66-6.82c0-1.57-1.24-1.98-2.89-1.98h-2.23v6.43h1.64V7.25h.44l1.72 2.44h1.89l-1.93-2.64c.9-.26 1.36-.85 1.36-1.81m-2.8.78h-.66V4.57h.66c.64 0 1.1.09 1.1.73s-.46.73-1.09.73Z"/>
</svg>
