<svg viewBox="0 0 32 32" xmlns="http://www.w3.org/2000/svg">
  <path d="M20.3 6.7c1.4 0 2.53-1.13 2.53-2.53S21.7 1.64 20.3 1.64s-2.53 1.13-2.53 2.53S18.9 6.7 20.3 6.7m0-3.72c.66 0 1.19.54 1.19 1.2s-.54 1.2-1.19 1.2-1.19-.54-1.19-1.2.54-1.2 1.19-1.2M5.46 5.12a2.524 2.524 0 1 0 0-5.05C4.07.07 2.93 1.2 2.93 2.6s1.13 2.53 2.53 2.53Zm0-3.72c.66 0 1.19.54 1.19 1.2s-.54 1.2-1.19 1.2-1.19-.54-1.19-1.2.54-1.2 1.19-1.2M32 28.98l-2.73-10.39a2.53 2.53 0 0 0-2.41-1.81H23.5v-5.66a3.2 3.2 0 0 0-3.19-3.2c-1.33 0-2.47.82-2.95 1.97-3.3-1.51-8.04-3.62-8.75-3.62H3.19A3.23 3.23 0 0 0 0 9.49v6.32c0 1.53 1.08 2.82 2.53 3.13v11.19h6.39V11.02c1.3.4 3.74 1.16 4.88 1.56 1.43.62 2.53.5 3.33.09v2.43c-3.1 1.48-5.09 4.57-5.09 8.04 0 4.92 4 8.93 8.92 8.93 2.78 0 5.33-1.3 7-3.45l.33 1.26 3.73-.89ZM18.44 11.13c0-1.03.83-1.86 1.86-1.86s1.86.84 1.86 1.86v6.99h4.69c.52 0 .99.35 1.13.83l2.38 9.06-1.14.27-2.35-8.96h-5.9v-8.18h-1.33v9.96c-.7-.27-1.19-.95-1.19-1.74v-8.22Zm-4.17.21c-1.65-.59-5.67-1.81-5.84-1.86l-.86-.26v19.57H6.38V17.7H5.05v11.09H3.86V10.12H2.53v7.43c-.7-.27-1.19-.95-1.19-1.74V9.49c0-1.03.83-1.86 1.86-1.86h5.37c.56.08 4.58 1.82 8.39 3.56-.43.41-1.25.78-2.68.15Zm6.66 19.39c-4.18 0-7.58-3.41-7.58-7.59 0-2.73 1.46-5.17 3.76-6.52v2.73a3.2 3.2 0 0 0 3.19 3.2h.67v-1.9h4.87l1.65 6.28c-1.36 2.35-3.83 3.81-6.56 3.81Z"/>
</svg>
