<svg viewBox="0 0 32 32" xmlns="http://www.w3.org/2000/svg">
  <path d="M20.58 22.09a2.246 2.246 0 0 0-2.22-2.21l-8.64-.07s-.04-.01-.06-.01h-.95l-.45-2.02h8.12v-1.6c0-.86-.26-1.58-.76-2.07-.46-.46-1.09-.7-1.84-.7H7.3L5.49 5.23a3.3 3.3 0 0 0-3.2-2.57H.01L4.46 24l.13.53h1.35l1.3 7.45 10.64.02-.08-7.47h2.8zm-6.79-7.35c.39 0 .7.1.9.31.24.24.37.64.37 1.13v.27H4.32l-.02-.08c-.09-.39 0-.8.25-1.12s.63-.5 1.03-.5h8.2ZM2.31 3.99c.91 0 1.7.64 1.9 1.53l1.74 7.9h-.36c-.69 0-1.33.28-1.82.75L1.65 3.99zm2.21 13.79h2.39l.6 2.7c-.16.11-.32.23-.47.38-.59.59-.94 1.38-1.05 2.33h-.34l-1.13-5.42Zm3.85 12.87L7.3 24.57l9.17.02.07 6.08zM7.35 23.2c.29-1.7 1.61-2.01 2.13-2.06l8.88.07c.49 0 .89.4.9.89v1.1H7.36Zm18-23.2c-3.68 0-6.66 2.98-6.66 6.66s2.98 6.66 6.66 6.66 6.66-2.98 6.66-6.66S29.03 0 25.35 0m0 11.98c-2.94 0-5.33-2.39-5.33-5.33s2.39-5.33 5.33-5.33 5.33 2.39 5.33 5.33-2.39 5.33-5.33 5.33m2.66-6.82c0-1.58-1.24-1.99-2.88-1.99h-2.22v6.44h1.63V7.17h.44l1.72 2.44h1.89l-1.92-2.64c.9-.26 1.35-.85 1.35-1.81Zm-2.8.77h-.66V4.47h.65c.63 0 1.1.09 1.1.73s-.46.73-1.09.73"/>
</svg>
