<svg viewBox="0 0 32 32" xmlns="http://www.w3.org/2000/svg">
  <path d="M17.97 8.05h-5.33c-1.87 0-3.38 1.52-3.38 3.38v6.52a3.37 3.37 0 0 0 2.73 3.31v10.75h6.68V21.26a3.38 3.38 0 0 0 2.69-3.31v-6.52c0-1.86-1.52-3.38-3.38-3.38Zm-.66 9.4H14l.65-.92h2.66zm-1.72-2.26 1.71-2.44v2.44zm3.05.74v-1.44h1.38v1.44zm1.38-2.78h-1.38v-1.13h-.82l1.5-2.13c.43.38.71.92.71 1.53v1.72Zm-1.98-3.76-4.73 6.73v-1.75l3.5-4.98zm-7.45 8.56v-6.52c0-1.13.92-2.05 2.05-2.05h2.54l-1.87 2.67v-.02h-1.33l.01 7.86a2.04 2.04 0 0 1-1.39-1.93Zm2.74 12.73-.02-11.9h4v5.87h-1.34v-4.64h-1.33v10.66h-1.31Zm2.64-2.41v-2.29h1.35v2.29zm0 2.41v-1.07h1.35v1.07zm2.68-10.8v-2.62h1.37v.69c0 .89-.58 1.64-1.37 1.92ZM15.29 6.7c1.84 0 3.35-1.51 3.35-3.35S17.13.01 15.29.01s-3.35 1.51-3.35 3.35 1.51 3.35 3.35 3.35Zm-2.02-3.34c0-.49.19-.94.48-1.29l2.83 2.82c-.35.3-.8.48-1.29.48-1.11 0-2.02-.9-2.02-2.01m4.03 0c0 .11-.02.23-.03.34l-2.32-2.32a2.02 2.02 0 0 1 2.36 1.98Z"/>
</svg>
