<svg viewBox="0 0 32 32" xmlns="http://www.w3.org/2000/svg">
  <path d="M29.55 3.56c-.54-1.48-1.61-2.52-3.19-3.08-.13-.05-3.35-1.2-6.56.26-.08.03-.15.06-.22.09h-.17s-4.56.66-7.17-.08C8.98-.74 5.76.42 5.63.46c-1.58.57-2.66 1.6-3.19 3.08-1.55 4.29 2.06 11 2.74 12.2-.09 1.61-.56 11.73 1.11 15.2.28.57.94.93 1.86 1.02.96.09 2.21-.12 2.7-.78l.11-.14.02-.18c.32-2.89 1.94-11.14 5.01-11.14s4.68 8.25 5.01 11.14l.02.18.11.14c.42.57 1.39.8 2.26.8.15 0 .3 0 .44-.02.93-.09 1.59-.45 1.86-1.02 1.67-3.46 1.2-13.59 1.11-15.2.68-1.2 4.29-7.91 2.74-12.2v.02Zm-5.06 26.82s-.17.18-.59.25c-.64.1-1.33-.03-1.6-.16-.26-2.08-1.72-12.06-6.3-12.06s-6.04 9.97-6.3 12.06c-.28.14-.96.27-1.6.16-.42-.07-.58-.21-.6-.25-1.28-2.65-1.15-10.13-1.04-13.29.68.19 1.48.06 2.12.3.06.03.12-.05.08-.1-.3-.53-1.1-.76-1.52-1.11-.2-.25-.39-.42-.62-.54v-.19l-.09-.18c-.04-.07-4.2-7.21-2.74-11.25.4-1.1 1.18-1.85 2.39-2.28.03 0 2.85-1.01 5.69.28 1.96.56 4.64.46 6.31.32-.81 1.11-1.65 2.25-3.92 2.25a.67.67 0 0 0 0 1.34c.61 0 1.13-.08 1.6-.2l2.22 1.11c-1.27.81-3.72 2.38-4.15 2.65 1.21.59 2.44 1.22 3.69 1.72-.12.94-.21 1.92-.04 2.88.85-.97 1.16-2.45 1.58-3.66-.89-.45-1.83-.82-2.77-1.17 1.26-.9 3.32-2.38 3.58-2.57-.29-.13-1.85-.81-3.06-1.33 1.15-.58 1.81-1.49 2.36-2.23.38-.52.71-.97 1.12-1.12 2.75-1.25 5.57-.26 5.61-.24 1.21.43 1.99 1.18 2.39 2.28 1.46 4.04-2.69 11.18-2.74 11.25l-.1.18c-.27.16-.51.37-.76.63-.53.4-1.45.63-1.84 1.24-.04.05.02.14.08.1.77-.27 1.79-.24 2.58-.5.12 3.05.27 10.77-1.03 13.47v-.04Z"/>
</svg>
