<svg viewBox="0 0 32 32" xmlns="http://www.w3.org/2000/svg">
  <path d="M29.27 27.62V26.4c0-1.16-.95-2.11-2.11-2.11h-1.87V9.3C25.29 4.17 21.12 0 16 0S6.71 4.17 6.71 9.3v14.99H4.84c-1.16 0-2.11.95-2.11 2.11v1.22H0V32h32v-4.38h-2.72ZM8.04 9.3c0-4.39 3.57-7.96 7.96-7.96s7.96 3.57 7.96 7.96v14.99H8.05V9.3ZM4.06 26.4c0-.43.35-.78.78-.78h22.33c.43 0 .78.35.78.78v1.19H4.06zm26.61 4.27H1.33v-1.72h29.33v1.72ZM22.65 7.86H9.08v4.8h13.57zm-1.33 3.46h-10.9V9.19h10.9zM9.34 13.69h13.33v1.33H9.34zm0 3.99h5.55v1.33H9.34zm0 2.57h3.07v1.33H9.34zm7.78-2.57h5.55v1.33h-5.55zm0 2.57h3.07v1.33h-3.07z"/>
</svg>
