<svg viewBox="0 0 32 32" xmlns="http://www.w3.org/2000/svg">
  <path d="M22 3.31a2.68 2.68 0 1 0 0 5.36 2.68 2.68 0 0 0 0-5.36m0 4.03c-.75 0-1.35-.61-1.35-1.35s.61-1.35 1.35-1.35 1.35.61 1.35 1.35-.61 1.35-1.35 1.35m-2.04 2.71c-.01-.12-.14-1.2-1.07-1.91-.58-.45-1.34-.61-2.23-.52-3.43-1.66-4.17-1.46-4.51-1.34L9.43 7.34c-.12.04-1.15.43-1.61 1.53-.34.8-.27 1.73.2 2.76l.27.59 4.83-2.02.42.18-3.45 3.63c-1.58-1.02-3.21-1.94-4.87-2.83.59-.66 1.15-1.34 1.65-2.06a84 84 0 0 0-3.24-4.06c.7 1.35 1.44 2.67 2.21 3.97-1 .76-1.91 1.62-2.78 2.5 2.19 1.14 4.38 2.26 6.67 3.17l-.24 1.04c-.77.05-1.54.13-2.31.22-.14-.74-.4-1.48-.72-2.16-1.27.56-2.53 1.15-3.74 1.89 1.03-.13 2.02-.35 3.01-.59.05.79.24 1.55.47 2.3q1.545-.3 3.06-.69l-1.17 5.05-3.73 6.52 3.59 2.01 4.26-7.47.4-1.06.77 2.34v6.61h4.03v-6.74l-2.15-7.81.8-.81c.11.54.31 1.12.68 1.55l2.03 2.09c.08.09.85.89 2.03.89.87 0 1.7-.42 2.46-1.26l.43-.48-3.74-3.67v-4.4Zm-6.83-1.3-4.11 1.72c-.1-.41-.1-.77.03-1.07.23-.57.83-.8.85-.81l2.68-1.05c.19-.04 1.02.14 2.76.93l-.82.86-1.4-.59Zm7.69 9.78c-.61.05-1.06-.45-1.08-.47l-2.02-2.07c-.37-.44-.48-1.53-.46-2.12l.06-1.71-3.55 3.6 2.31 8.28v5.32h-1.36v-5.38l-2.02-6.21-1.7 4.47-3.56 6.23-1.26-.71 3.11-5.44 1.42-6.04c.6-.18 1.19-.38 1.78-.6-.55-.02-1.09-.02-1.64 0l.12-.52c.5.18 1 .37 1.51.52-.42-.32-.86-.62-1.29-.92l5.52-5.81c.57-.07 1.02.02 1.34.26.46.34.55.92.55.92v4.9l3.18 3.12q-.51.39-.99.39Z"/>
</svg>
