<svg viewBox="0 0 32 32" xmlns="http://www.w3.org/2000/svg">
  <path d="M15.55 12.09c2.76 0 5.03-2.26 5.03-5.03s-2.26-5.03-5.03-5.03-5.03 2.26-5.03 5.03 2.26 5.03 5.03 5.03m2.91-2.79L13.3 4.14c.41-.31.87-.55 1.39-.67l4.44 4.44c-.12.51-.36.98-.67 1.39m.59-3.34-2.4-2.4c1.15.36 2.04 1.26 2.4 2.4m-6.64-.82 5.06 5.06c-.56.35-1.22.55-1.92.55-2.04 0-3.69-1.66-3.69-3.69 0-.71.21-1.36.55-1.92m8.18 9.65c-.03-.27-.12-.54-.27-.79-.34-.53-.92-.85-1.56-.85h-2.38c-.73 0-1.39.43-1.69 1.09l-.23.51h-3.61c-3.02 0-5.48 2.46-5.48 5.47v5.12c0 1.42 1.16 2.58 2.58 2.58h2.23l.04 4.07h1.33l-.04-4.06h5.3c1.03 0 1.99-.3 2.81-.8l.04 4.86h1.33l-.01-1.89c2.69-.35 4.78-2.62 4.78-5.4v-4.47c0-2.92-2.3-5.29-5.18-5.44Zm-4.21-.3h2.38c.26 0 .39.17.44.24s.14.26.04.5l-5.17 11.22h-3.38l5.22-11.65c.08-.19.27-.31.47-.31M6.71 25.35v-5.12c0-2.28 1.86-4.14 4.14-4.14h3.01L9.15 26.6H7.96c-.69 0-1.25-.56-1.25-1.25m10.12 1.26h-1.37l1.6-3.48h3.86a4.15 4.15 0 0 1-4.09 3.48m7.61-1.9c0 2.05-1.5 3.74-3.45 4.07l-.02-2.77c.82-.96 1.33-2.18 1.33-3.54v-.67H21v-2.26h-1.33v2.26h-2l2.63-5.7c2.28 0 4.14 1.86 4.14 4.14z"/>
</svg>
