<svg viewBox="0 0 32 32" xmlns="http://www.w3.org/2000/svg">
  <path d="M24.23 5.04s1.05-1.03 1.01-2.37c0 0 .96.16 1.46 1.87 0 0 .3-.19.13-.89 0 0 1.09.93 1.12 2.29 0 0 .01 1.18-1.46 1.97 0 0 .85-1.84-.81-3.08 0 0 .14 1.01-.42 1.46 0 0 .1-.43-.16-.78 0 .01.09.34-.42.95 0 0-.46.65-.04 1.47 0 0-1.14-.43-1.32-1.65 0 0 .08-.65.42-1.28 0 0 .31-.45.29-.78 0 0 .32.29.19.83ZM14.01 2.52h6.71V6.6h-6.71zm1.33 2.74h4.05V3.85h-4.05zm5.99 11.09h3.51v-5.63h1.33v5.63h3.16v3.69h-3.16v1.19h-1.33v-1.19h-3.51zm1.33 2.36h5.33v-1.02h-5.33zM15.43 7.99H14.1v1.33h1.33zm2.65 0h-1.33v1.33h1.33zm2.66 0h-1.33v1.33h1.33zm-5.31 2.69H14.1v1.33h1.33zm2.65 0h-1.33v1.33h1.33zm2.66 0h-1.33v1.33h1.33zM14.1 14.7h1.33v-1.33H14.1zm2.65 0h1.33v-1.33h-1.33zm2.66 0h1.33v-1.33h-1.33zM10.8 0v14.67h.53v1.29l.8-.8V1.33h18.54v29.33H14.54l-1.33 1.33h18.81V0zm4.27 28.25-2.83 2.83-1.68-1.69h-.08c-.08 0-.16.01-.23.04-.09.04-.17.1-.24.19V32h-4v-2.38a.7.7 0 0 0-.25-.2.5.5 0 0 0-.22-.04h-.09l-1.69 1.68-2.82-2.83 1.68-1.68c.01-.12 0-.22-.04-.32a.6.6 0 0 0-.19-.24H0v-4h2.38c.09-.07.16-.16.2-.25s.05-.19.03-.31L.93 19.75l2.83-2.83 1.68 1.68h.09c.08 0 .16-.01.23-.04.09-.04.17-.1.24-.19v-2.38h4v2.38a.56.56 0 0 0 .47.23h.09l1.69-1.68 2.82 2.83-1.69 1.68c-.01.1 0 .21.04.31.04.09.1.18.2.25H16v4h-2.38c-.09.07-.16.16-.2.25s-.05.19-.04.31l1.68 1.69Zm-1.89 0-.74-.75-.33-.33-.05-.46c-.04-.34 0-.67.13-.97.12-.29.31-.55.58-.77l.37-.3h1.53v-1.33h-1.52l-.37-.3c-.26-.21-.46-.47-.59-.77-.13-.31-.17-.63-.13-.97l.05-.47.33-.33.74-.74-.94-.94-.74.74-.34.34-.48.04h-.2c-.26 0-.5-.05-.73-.14a1.9 1.9 0 0 1-.78-.6l-.29-.37v-1.52H7.35v1.52l-.29.37c-.21.26-.47.46-.77.58-.24.1-.49.15-.74.15-.07 0-.15 0-.23-.01l-.47-.05-.33-.33-.74-.74-.94.94.74.74.33.33.05.46q.06.51-.12.96c-.14.32-.33.58-.6.79l-.37.29H1.35v1.33h1.52l.37.29c.26.21.46.47.59.76.13.32.17.65.14.99l-.05.47-.33.33-.74.74.94.94.74-.74.32-.32.45-.06c.09-.01.17-.02.26-.02.25 0 .49.05.72.14.32.14.57.33.79.6l.29.37v1.52h1.33v-1.52l.29-.36c.21-.27.47-.47.77-.59q.36-.15.75-.15c.08 0 .15 0 .23.01l.47.05.33.33.74.74.94-.94ZM11 24c0 1.65-1.34 3-3 3s-3-1.35-3-3 1.35-3 3-3 3 1.35 3 3m-1.33 0c0-.92-.75-1.67-1.67-1.67s-1.67.75-1.67 1.67.75 1.67 1.67 1.67 1.67-.75 1.67-1.67m18.99-.49-.7.7c.24.4.38.87.38 1.37 0 1.51-1.23 2.74-2.74 2.74-.5 0-.96-.15-1.37-.38l-.72.72-.94-.94.71-.71c-.26-.42-.41-.9-.41-1.43 0-1.51 1.23-2.74 2.74-2.74.53 0 1.01.16 1.43.41l.69-.69.94.94ZM24.28 26l1.74-1.74c-.14-.04-.27-.09-.42-.09-.78 0-1.41.63-1.41 1.41 0 .15.04.29.09.42m2.66-.77-1.68 1.68c.11.03.22.07.35.07.78 0 1.41-.63 1.41-1.41 0-.12-.04-.23-.07-.35Z"/>
</svg>
