<svg viewBox="0 0 32 32" xmlns="http://www.w3.org/2000/svg">
  <path d="m31.39 20.9-.06-.06-8.04-8.22a2.1 2.1 0 0 0-.58-.41c-.01 0-.02-.01-.03-.02a2.1 2.1 0 0 0-.92-.21H16V1.25h-3.2V0H3.2v1.25H0v19.3h2.67v8.67h2.72C5.65 30.8 7.02 32 8.67 32s3.01-1.21 3.28-2.78h9.44c.26 1.58 1.63 2.78 3.28 2.78s3.01-1.21 3.28-2.78h1.91c1.18 0 2.15-.96 2.15-2.15V22.4c0-.56-.22-1.1-.61-1.5Zm-8.72-7.02L28.65 20h-5.98zM4.53 1.34h6.93v1.4H4.53zm-3.2 1.25H3.2v1.49h9.6V2.59h1.87v16.63H1.33zm7.34 28.08c-1.1 0-2-.9-2-2s.9-2 2-2 2 .9 2 2-.9 2-2 2m16 0c-1.1 0-2-.9-2-2s.9-2 2-2 2 .9 2 2-.9 2-2 2m6-3.6c0 .45-.36.81-.81.81H27.9c-.35-1.46-1.66-2.55-3.23-2.55s-2.88 1.09-3.23 2.55H11.9c-.35-1.46-1.66-2.55-3.23-2.55s-2.88 1.09-3.23 2.55H4v-7.33h12v-7.24h5.33v8.02h8.61l.49.5c.15.15.23.35.23.57v4.67ZM11.86 7.43l1.01.87-5.8 6.78-3.18-3.18.94-.94 2.16 2.16 4.86-5.68Z"/>
</svg>
