<svg viewBox="0 0 32 32" xmlns="http://www.w3.org/2000/svg">
  <path d="M32 17.96v.67c0 2.59-2.09 4.71-4.67 4.71h-6.7l.02 8.66h-1.33l-.04-15.73h1.33l.01 5.74h6.7c1.61 0 2.96-1.17 3.27-2.71h-6.6v1.08h-1.35v-3.7c0-2.57-2.09-4.67-4.67-4.67h-5.33c-2.57 0-4.67 2.09-4.67 4.67v3.7h-.01v4.72c0 1.39.84 2.58 2.04 3.1l-.03-11.92h1.33l.04 15.73h-1.33v-2.42c-1.95-.58-3.38-2.36-3.38-4.49v-8.42c0-3.31 2.69-6 6-6h5.36c3.31 0 6 2.69 6 6v1.29h8ZM10.97 4.33C10.97 1.95 12.92 0 15.3 0s4.33 1.95 4.33 4.33-1.95 4.33-4.33 4.33-4.33-1.95-4.33-4.33m1.33 0c0 1.65 1.35 3 3 3s3-1.35 3-3-1.35-3-3-3-3 1.35-3 3"/>
</svg>
