<svg viewBox="0 0 32 32" xmlns="http://www.w3.org/2000/svg">
  <path d="M9.33 18.35c2.41 0 4.36-1.95 4.36-4.35s-1.95-4.35-4.36-4.35S4.97 11.6 4.97 14s1.95 4.35 4.36 4.35m0-7.37c1.67 0 3.02 1.35 3.02 3.02s-1.36 3.02-3.02 3.02S6.31 15.67 6.31 14s1.36-3.02 3.02-3.02m8.01 13.52v7.51h-1.33V24.5c0-1.8-1.46-3.26-3.27-3.26H4.6a3.27 3.27 0 0 0-3.27 3.26v7.51H0V24.5c0-2.53 2.06-4.59 4.6-4.59h8.14c2.54 0 4.6 2.06 4.6 4.59M3.99 26.67h1.33V32H3.99zm9.27 0h1.33V32h-1.33zM23.93 0c-3.26 0-6.06 1.65-7.33 4.02-.52-.53-1.3-.87-2.17-.87-1.53 0-2.77 1.03-2.84 2.32-.06 0-.11-.01-.17-.01-1.23 0-2.23.85-2.23 1.9s1 1.9 2.23 1.9c1.01 0 1.86-.58 2.13-1.37a3.16 3.16 0 0 0 2.38-.24c.45 3.43 3.87 6.1 8.01 6.1 4.46 0 8.07-3.08 8.07-6.88S28.39 0 23.93 0M11.41 7.94c-.51 0-.9-.3-.9-.57s.38-.57.9-.57.9.3.9.57-.38.57-.9.57m3.01-1.24c-.83 0-1.52-.51-1.52-1.1s.7-1.1 1.52-1.1 1.52.51 1.52 1.1-.7 1.1-1.52 1.1m9.51 5.74c-3.71 0-6.73-2.49-6.73-5.55s3.02-5.55 6.73-5.55 6.73 2.49 6.73 5.55-3.02 5.55-6.73 5.55m2.44-6.95c0 .64-.33 1.09-.95 1.51-.63.44-.75.55-.75 1.06v.06h-1.42V7.9c0-.78.3-1.12.8-1.46.55-.39.69-.53.69-.8 0-.33-.29-.55-.95-.55-.52 0-1.12.16-1.6.38V4.12c.43-.18 1.15-.34 1.84-.34 1.3 0 2.33.59 2.33 1.72ZM24.94 9.5c0 .49-.38.91-.97.91S23 10 23 9.5s.38-.9.97-.9.97.42.97.9"/>
</svg>
