<svg viewBox="0 0 32 32" xmlns="http://www.w3.org/2000/svg">
  <path fill="currentColor" d="M22.51 2.21 19.1 5.59H24l3.41-3.38zm.95 2.04h-1.12l.72-.71h1.12zM32 .95V0H15.55L8.97 6.58l-.45.45v5.24H7.39l-2.35 3.29H0V32h21.9v-8.5h3.06l7.03-7.04V.96Zm-15.9.38h13.62L24.4 6.58H10.86l5.25-5.25Zm4.47 29.34H1.33V16.9h4.39l.4-.56 1.95-2.73h5.76l1.95 2.73.4.56h4.39zm-3.7-15.11-2.35-3.29H9.85V7.91h14.2v14.25H21.9v-6.6h-5.04Zm13.79.35-5.28 5.28V7.48l5.28-5.21V15.9Zm-19.71 1.85c-3.02 0-5.47 2.46-5.47 5.48s2.46 5.48 5.47 5.48 5.47-2.46 5.47-5.48-2.46-5.48-5.47-5.48m0 9.62c-2.28 0-4.14-1.86-4.14-4.14s1.86-4.14 4.14-4.14 4.14 1.86 4.14 4.14-1.86 4.14-4.14 4.14" class="st0"/>
</svg>
