<svg viewBox="0 0 32 32" xmlns="http://www.w3.org/2000/svg">
  <path fill="currentColor" d="M7.19 5.58c1.54 0 2.79-1.25 2.79-2.8S8.73 0 7.19 0 4.4 1.25 4.4 2.8s1.25 2.8 2.79 2.8Zm0-4.26c.81 0 1.46.66 1.46 1.46s-.66 1.46-1.46 1.46-1.46-.66-1.46-1.46.66-1.46 1.46-1.46m9.65 11.05h-1.53v-1.33h1.53zM32 16.63V0h-8.33v1.33h2.12v8.05l-5.85 1.65.15.62c.27 1.09.8 1.86 1.59 2.28.49.26 1 .34 1.43.34.63 0 1.09-.17 1.09-.17l1.6-.37v1.53l-7.01.03v-6.3h-7.42v5.54L7.88 8.34c-.12-.15-1.24-1.43-2.71-1.32-.91.07-1.69.66-2.32 1.73L0 18.29l.04 13.67h4.98l.23-10.1 1.58-6.97.32.51c.02.05.63 1.33 1.94 1.73.85.26 1.77.09 2.73-.49l.29-.17h5.53v2.7h3.48v12.79h1.33V19.17h8.2v12.82h1.34V17.83H18.97v-1.21h13.02Zm-4.87-15.3h3.53v13.91l-3.53.02zm-3.3 11.49s-.84.29-1.52-.08c-.29-.16-.53-.43-.7-.8l4.2-1.18v1.6l-1.98.47ZM9.5 15.86c-.74-.22-1.13-1.01-1.17-1.09l-2.07-3.33L3.94 21.7l-.21 8.93H1.38l-.04-12.15 2.72-9.13c.39-.63.8-.97 1.23-1.01.67-.07 1.37.59 1.51.74l3.76 6.7c-.39.14-.75.17-1.07.07Zm7.96-.72h-4.75v-4.81h4.75z" class="st0"/>
</svg>
