<svg viewBox="0 0 32 32" xmlns="http://www.w3.org/2000/svg">
  <path d="M25.11 12.63c2.09 0 3.75-.66 4.93-1.94 2.4-2.6 1.93-6.85 1.91-7.03l-.07-.59h-5.11c0-1.86-.17-3.07-.17-3.07H5.4s-.17 1.21-.18 3.07H.12l-.07.59c-.02.18-.49 4.42 1.91 7.03 1.18 1.27 2.82 1.92 4.88 1.94 1.22 3.12 3.3 6.13 6.82 8.08.11 1.37-.03 4.69-3.72 6.37l-.22.1H6c-1.15 0-2.07.9-2.07 2.01v2.82h24.14v-2.82c0-1.11-.93-2.01-2.07-2.01h-3.72l-.22-.1c-3.72-1.69-3.83-5.05-3.72-6.4 3.49-1.95 5.56-4.94 6.78-8.05Zm1.57 16.55v1.49H5.3v-1.49c0-.37.31-.67.7-.67h19.99c.38 0 .7.3.7.67ZM30.62 4.4c.03 1.16-.09 3.76-1.61 5.4-.82.89-1.98 1.36-3.42 1.45.77-2.45 1.07-4.88 1.15-6.86h3.88ZM3 9.8C1.48 8.16 1.36 5.56 1.39 4.4h3.86c.08 1.98.36 4.4 1.13 6.85-1.42-.1-2.56-.57-3.37-1.45Zm4.18-.88c-.67-3.13-.62-6.04-.52-7.58h18.68c.09 1.55.13 4.45-.55 7.58-1.24 5.72-4.21 9.56-8.82 11.41-.36-.14-.69-.32-1.03-.49-4.01-1.99-6.63-5.64-7.76-10.91Zm12.26 18.09h-6.9c2.05-1.77 2.47-4.11 2.5-5.63.3.13.6.26.92.37.34-.12.66-.26.97-.39.02 1.52.44 3.88 2.5 5.65ZM11.9 14.47l4.1-2.08 4.1 2.08-.78-4.41 3.32-3.12-4.58-.64-2.05-4.01-2.05 4.01-4.58.64 3.32 3.12-.78 4.41Zm.42-6.6 1.82-.26.72-.1.32-.63.81-1.59.81 1.59.32.63.72.1 1.82.26-1.32 1.24-.52.49.12.69.31 1.75-1.63-.83-.64-.33-.64.33-1.63.83.31-1.75.12-.69-.52-.49-1.32-1.24Z"/>
</svg>
