<svg viewBox="0 0 32 32" xmlns="http://www.w3.org/2000/svg">
  <path d="m29 24.54 1.5 1.18 1.43-2.74-.84-1.64.6-3.34-1.4-1.29-1.85 1.56-1.29-1.35-2.02-.31 1.11-2.64-3.47-2.12c.62-1.14.97-2.44.97-3.83 0-4.4-3.57-7.99-7.95-7.99S7.84 3.62 7.84 8.04c0 1.93.68 3.69 1.81 5.08l-.6.36-.93-.63-2.35 1.41.76 1.51-.98 1.33-2.43 1.47.1 1.52L1 22.05l-.41 2.06.38 1.9-1.05.79v2.35h3.56l1.06-2.35.73-.66.67.03-.11 2 2.18 3.25 3.37-1.23 2.26.69 2.46-2.79-.48-1.1 1.2-1 .81 2.48 1.39.66-.22.95 1.57 1.93 2.16-1.19v-1.45l1.1-4.26.22.04.02 1.59 1.71.62 1.46.33 1.03 1 1.58-1.09v-1.88l-.8-.85.07-.32.07-.02ZM15.79 1.37c3.65 0 6.62 2.99 6.62 6.67s-2.97 6.67-6.62 6.67-6.62-2.99-6.62-6.67 2.97-6.67 6.62-6.67m12.83 21.89-.07.02-.74.22-.17.76-.07.32-.16.7.49.52.44.46v.64l-.11.07-.25-.24-.27-.26-.36-.08-1.38-.31-.77-.28v-.66l-.03-1.12-1.1-.18-.22-.04-1.19-.19-.3 1.18-1.1 4.26-.04.17v.83l-.5.27-.46-.56.07-.31.25-1.05-.97-.46-.87-.41-.63-1.94-.61-1.87-1.5 1.26-1.2 1-.77.64.4.92.14.31-1.33 1.51-1.45-.44-.42-.13-.41.15-2.4.87-1.35-2.01.08-1.55.07-1.35-1.34-.06-.67-.03-.54-.02-.4.37-.73.66-.21.19-.11.25-.71 1.57H1.27v-.35l.51-.39.67-.51-.17-.83-.33-1.64.27-1.35L4.1 21.1l.5-.44-.05-.66-.05-.7 1.73-1.05.23-.14.16-.21.98-1.33.49-.66-.37-.74-.2-.39.56-.34.24.16.7.47.72-.44.87-.53a7.87 7.87 0 0 0 5.18 1.95c2.53 0 4.78-1.2 6.24-3.06l2.54 1.55-.66 1.57-.67 1.59 1.69.26 1.57.24.98 1.03.86.9.95-.81.95-.81-.47 2.6-.08.45.21.4.52 1.02-.37.7-.25-.2-.54-.43-.66.2ZM16.5 10.74c0 .49-.39.88-.88.88s-.88-.39-.88-.88.39-.87.88-.87.88.39.88.87m-.86-5.43c-.63 0-1.36.24-1.83.48V4.51c.41-.18 1.23-.38 1.96-.38 1.26 0 2.43.62 2.43 1.95 0 .73-.36 1.17-1.07 1.71-.8.6-.88.73-.88 1.3v.13h-1.26v-.33c0-.9.36-1.31 1.05-1.78.46-.32.73-.6.73-1 0-.52-.46-.79-1.13-.79Z"/>
</svg>
