<svg viewBox="0 0 32 32" xmlns="http://www.w3.org/2000/svg">
  <path d="M2.91 14.49h5.34V9.14H2.91zm1.33-4.01h2.67v2.68H4.24zM2.91 22.52h5.34v-5.35H2.91zm1.33-4.01h2.67v2.68H4.24zm6.54-4.02h5.34V9.14h-5.34zm1.33-4.01h2.67v2.68h-2.67zm-1.33 12.04h5.34v-5.35h-5.34zm1.33-4.01h2.67v2.68h-2.67zm6.54 4.01h5.34v-5.35h-5.34zm1.34-4.01h2.67v2.68h-2.67zM32 7.12c0-3.92-3.18-7.1-7.09-7.1-3.26 0-5.98 2.23-6.81 5.24H0v26.76h10.68v-5.35h5.34v5.35H26.7V13.96c3.04-.8 5.29-3.55 5.29-6.84ZM19.99 12.2c.37.37.8.68 1.24.95h-1.24zm5.38 18.48h-8.01v-5.35H9.35v5.35H1.34V6.59h16.55c-.01.18-.05.35-.05.53 0 1.18.31 2.27.82 3.25v4.13H24v-.37c.31.04.61.09.92.09.16 0 .3-.04.46-.05v16.51Zm-.46-17.8c-3.17 0-5.75-2.58-5.75-5.76s2.58-5.76 5.75-5.76 5.75 2.58 5.75 5.76-2.58 5.76-5.75 5.76m2.4-7.51c0 .7-.34 1.12-1.03 1.64-.77.58-.85.7-.85 1.24v.12h-1.21v-.31c0-.86.34-1.25 1.01-1.71.44-.3.71-.58.71-.96 0-.5-.44-.76-1.09-.76-.61 0-1.31.23-1.76.45V3.86c.39-.17 1.18-.36 1.89-.36 1.21 0 2.34.6 2.34 1.87Zm-1.63 4.46c0 .46-.37.84-.85.84s-.85-.37-.85-.84.37-.83.85-.83.85.37.85.83"/>
</svg>
