<svg viewBox="0 0 32 32" xmlns="http://www.w3.org/2000/svg">
  <path d="m29.07 24.59-.07.32.8.84v1.86l-1.58 1.08-1.03-1-1.46-.33-1.71-.61-.02-1.57-.22-.04-1.1 4.23v1.44l-2.16 1.18-1.57-1.92.22-.95-1.39-.66-.81-2.46-1.2 1 .48 1.09-2.46 2.76-2.26-.69-3.37 1.22-2.18-3.22.11-1.98-.67-.03-.73.65-1.06 2.33H.07V26.8l1.05-.78-.38-.56.41-2.04 2.22-1.95-.1-1.51L5.7 18.5l.98-1.32-.76-1.49 2.35-1.4.93.62 2.12-1.28 1.6.22 1.07-.31v1.39l-.7.2-.27.08-.28-.04-1.13-.16-1.72 1.03-.72.44-.7-.47-.23-.15-.55.33.19.38.37.73-.49.66-.98 1.32-.16.21-.23.14-1.73 1.04.05.69.05.66-.5.44-1.88 1.65-.21 1.05.07.1.72 1.05-1.02.76-.51.38v.33H2.8l.71-1.55.12-.25.21-.19.73-.65.41-.37.55.02.67.03 1.35.06-.07 1.35-.08 1.54 1.34 1.99 2.39-.86.42-.15.42.13 1.45.44 1.33-1.49-.13-.31-.4-.92.77-.64 1.2-1 1.51-1.26.61 1.87.63 1.92.87.41.98.46-.25 1.05-.07.3.45.55.49-.27v-.82l.04-.17 1.1-4.23.31-1.17 1.2.19.22.04 1.11.18.02 1.12v.65l.77.27 1.38.31.37.08.27.26.25.24.1-.07v-.63l-.43-.46-.49-.52.16-.7.07-.32.17-.75.74-.22.07-.02.66-.2.54.43.24.19.26-.49-.24-.27-.45-.51.15-.66.41-1.81-.89.75-.96.8-.87-.9-.98-1.02-1.57-.24-1.7-.26.67-1.58.66-1.55-3.38-2.04-1.5-.27-.43-.08-.3-.32-.63-.66-.48.3v-.85c0-.26.04-.51.08-.77l.62-.39 1.38 1.45 1.75.31 4.58 2.77L25.35 18l2.02.3 1.29 1.34 1.85-1.55 1.4 1.28-.6 2.64.84.96-1.43 2.72-1.5-1.18-.07.02ZM16.65 12.06c0-3.76 3.06-6.83 6.83-6.83h6.06L25.37 9.4h1.89l4.7-4.7L27.25 0h-1.89l3.9 3.9h-5.78c-4.5 0-8.17 3.66-8.17 8.16v7.01h1.33v-7.01Z"/>
</svg>
