<svg viewBox="0 0 32 32" xmlns="http://www.w3.org/2000/svg">
  <path d="M31.99 15.78H32l-.01-.02v-.11l-.16-.02L17.69 4.98c.27-.39.44-.86.44-1.37 0-.93-.55-1.73-1.33-2.12V-.04h-1.33v1.29h-.42v1.34h.73c.57 0 1.03.46 1.03 1.03 0 .21-.08.39-.18.55l-.8-.6-.04-.04-.84.65a1 1 0 0 1-.19-.56h-1.33c0 .52.17 1 .46 1.39L0 15.72v13.99l9.99 2.25 22-2.25zM20.3 14.44l-9.29-.96 4.71-7.44zm1.61.17L17.48 6.5l11.77 8.87-7.35-.76Zm-8.33-7.69-4.29 6.7-6.08 1.33zM1.34 16.73l2.82-.62v13.14l-2.82-.62V16.72Zm4.15 12.82V15.82l3.79-.83v15.4l-3.79-.83Zm25.17-1.05-19.97 2.06V14.79l19.97 2.06zm-17.65-.05v-11.5h1.33v11.5zm6.03-.44h-1.33V17.35h1.33zm4.71-.46h-1.33v-9.73h1.33zm4.7-.46h-1.33v-8.81h1.33zM3.5 22.01v1.34H2.17v-1.34zm3.83 0v1.34H6v-1.34z"/>
</svg>
