<svg viewBox="0 0 32 32" xmlns="http://www.w3.org/2000/svg">
  <path d="M5.01 11.08h5.09c.8 0 1.46-.65 1.46-1.46V4.53c0-.8-.65-1.46-1.46-1.46H5.01c-.8 0-1.46.65-1.46 1.46v5.09c0 .8.65 1.46 1.46 1.46m-.13-2.17h1.81V7.58H4.88V6.52h1.81V5.19H4.88v-.64c0-.07.06-.12.12-.12h5.09c.07 0 .12.06.12.12v.64H8.5v1.33h1.71v1.15H8.5V9h1.71v.64c0 .07-.06.12-.12.12H5c-.07 0-.12-.06-.12-.12v-.72Zm-1.22 4.35h5.76v1.33H3.66zm0 2.93h12.76v1.33H3.66zM28.54-.01H3.47A3.47 3.47 0 0 0 0 3.45v14.42a3.47 3.47 0 0 0 3.46 3.47h13.86v6.65c0 2.21 3.28 4 7.33 4s7.33-1.79 7.33-4V3.45c0-1.91-1.54-3.47-3.46-3.47Zm2.12 28c0 1.09-2.34 2.67-6 2.67s-6-1.58-6-2.67v-.44c.24.19.51.37.81.53 1.33.72 3.16 1.17 5.19 1.17 2.48 0 4.67-.68 6-1.71v.44Zm-6-.07c-3.66 0-6-1.58-6-2.67 0-.12.04-.24.1-.37l.24.18a8 8 0 0 0 1.22.64c.45.19.93.34 1.45.47.91.22 1.92.35 2.99.35s1.98-.11 2.85-.31c1.1-.25 2.06-.65 2.8-1.14.09-.06.16-.12.24-.18.05.13.1.25.1.37 0 1.09-2.34 2.67-6 2.67Zm0-2.74c-3.66 0-6-1.58-6-2.67 0-.12.03-.24.09-.37.22.16.46.32.72.47 1.33.72 3.16 1.17 5.19 1.17 2.43 0 4.57-.65 5.91-1.64.06.13.09.25.09.37 0 1.09-2.34 2.67-6 2.67m0-2.74c-3.66 0-6-1.58-6-2.67 0-.12.04-.24.1-.37 1.34.99 3.48 1.63 5.9 1.63s4.56-.64 5.9-1.63c.06.13.1.25.1.37 0 1.09-2.34 2.67-6 2.67m0-2.73c-3.66 0-6-1.58-6-2.67s2.34-2.67 6-2.67 6 1.58 6 2.67-2.34 2.67-6 2.67m6.01-4.96c-1.33-1.03-3.52-1.71-6.01-1.71-4.05 0-7.33 1.79-7.33 4V20H3.47c-1.17 0-2.13-.96-2.13-2.13V3.45c0-1.18.96-2.13 2.13-2.13h25.07c1.17 0 2.13.96 2.13 2.13v11.29ZM24.72 7.8c0 .97-.83 1.59-2.09 1.59-.54 0-1.06-.12-1.34-.25l.22-1.02c.27.13.61.29 1.19.29h.05c.35 0 .72-.14.72-.46 0-.2-.16-.35-.62-.58-.46-.22-1.06-.6-1.05-1.27 0-.91.84-1.54 2.03-1.54.46 0 .84.1 1.13.21l-.21.99c-.39-.18-.75-.22-.98-.22-.09 0-.16 0-.21.01-.35.05-.51.22-.51.39-.01.55 1.69.62 1.69 1.84Zm-3.27-3.13-.99 4.65h-1.2l1-4.65h1.2Zm-1.72 0-1.95 4.65h-1.27l-.96-3.71c-.06-.23-.11-.31-.29-.41-.29-.16-.77-.3-1.19-.4l.03-.14h2.05c.26 0 .5.17.55.47l.51 2.69 1.25-3.17h1.26Zm7.24 0c-.23 0-.43.13-.51.34l-1.81 4.31h1.26l.25-.69h1.54l.15.69h1.11l-.97-4.65h-1.03Zm-.46 3 .63-1.75.36 1.75h-1Z"/>
</svg>
