<svg viewBox="0 0 32 32" xmlns="http://www.w3.org/2000/svg">
  <path d="m32 15.66-1.42-1.39c.9-1.26 1.44-2.8 1.44-4.46 0-4.24-3.44-7.68-7.67-7.68-1.72 0-3.3.57-4.58 1.53L16.04 0 .02 15.67h5.33V32h8v-8.56h5.33V32h8V17.13c.98-.31 1.87-.82 2.63-1.47h2.7Zm-1.32-5.85c0 3.5-2.84 6.35-6.34 6.35S18 13.31 18 9.81s2.84-6.35 6.34-6.35 6.34 2.85 6.34 6.35m-5.35 20.85H20V22.1h-8v8.56H6.67V14.32H3.28L16.03 1.87l2.73 2.68a7.63 7.63 0 0 0-2.1 5.26c0 4.24 3.44 7.68 7.67 7.68.34 0 .66-.03.99-.07v13.24ZM24.19 7.24c-.6 0-1.31.23-1.76.45V6.47c.39-.17 1.18-.36 1.88-.36 1.21 0 2.34.59 2.34 1.86 0 .69-.34 1.12-1.03 1.63-.76.57-.85.69-.85 1.24v.12h-1.21v-.31c0-.86.34-1.25 1.01-1.7.44-.3.71-.57.71-.96 0-.49-.44-.76-1.09-.76Zm.82 5.18c0 .46-.37.84-.85.84s-.85-.37-.85-.84.37-.83.85-.83.85.37.85.83"/>
</svg>
