<svg viewBox="0 0 32 32" xmlns="http://www.w3.org/2000/svg">
  <path d="m4.24 10.24 1.09.77-2.02 2.88-1.59-1.59.94-.94.47.47 1.11-1.58ZM3.14 20.6l-.47-.47-.94.94 1.59 1.59 2.02-2.88-1.09-.77-1.11 1.58Zm11.88-8.9H8.37v1.33h6.65zm0 2.38H8.37v1.33h6.65zm-2.05 2.38h-4.6v1.33h4.6zm9.95 10.25h7.73v1.33h-8.67v3.95h-1.34V19.67l-1.37 1.4v6.07H2.59V24.3H0v-6.93h2.58v-1.85H0V8.59h2.58V3.32h11.17l5.5 5.5v4.96c.58-.26 1.21-.41 1.85-.41h9.53a.67.67 0 0 1 0 1.34H21.1c-.87 0-1.71.36-2.31.98l-5.72 5.94c-.53.53-.53 1.38 0 1.9.52.52 1.37.52 1.89 0l7.01-7.12v9.36l8.85-8.74.94.95zM14.15 8.43h2.84l-2.84-2.84zM1.34 14.18h4.27V9.91H1.34zm0 8.78h4.27v-4.27H1.34zm16.59-.54-2.02 2.05a2.67 2.67 0 0 1-3.78 0 2.68 2.68 0 0 1 0-3.78l5.72-5.93s.06-.04.08-.07V9.77h-5.11V4.66h-8.9v3.93h3.02v6.93H3.92v1.85h3.02v6.93H3.92v1.5h14.01zM21.31 5.3h-2.65V3.97h2.33L19.67.66l11 .02v6.05c0 2.54-2.1 4.6-4.68 4.6s-4.68-2.07-4.68-4.6V5.31Zm8.02 1.41V5.29h-6.69v1.42c0 1.8 1.5 3.27 3.35 3.27s3.35-1.47 3.35-3.27Zm-6.94-2.75h6.94V1.99h-7.69z"/>
</svg>
