<svg viewBox="0 0 32 32" xmlns="http://www.w3.org/2000/svg">
  <path d="M32.01 2.77H19.86v4.66h12.15zM30.72 6.1h-9.56v-2h9.56zM32 1.72H19.86c0-.94.74-1.7 1.66-1.7h8.83c.91 0 1.66.76 1.66 1.7Zm.02 6.92L32 32h-1.3l.02-22.03H19.85V8.64zM18.89 24.61h4.03v-5.72H.79v5.72H4.6v2.11H-.14v1.33h1.97v3.96h1.3v-3.96h17.24v3.96h1.3v-3.96h1.97v-1.33h-4.75zm-16.8-4.38h19.52v3.05H2.09zm3.82 4.38h11.68v2.11H5.91zM9.83 3.02h-1.3v-3h1.3v2.99Zm4.04 1.33H9.84V3.02h4.03zm.1-3.01h-2.92V0h2.92v1.33Zm0 5.91h-1.53v1.46h-1.3V5.92h2.83zm-1.3 7.13v-3.03H11.1v-1.33h2.87v4.36zM8.2 13.03h2.92v1.33H8.2zm-1.25 1.33H4.17v-1.33h1.48v-1.47h1.3zm2.73-2.8H6.95V8.71h1.27V5.88h1.3v2.83H8.25v1.52h1.43zm-5.64-.1h-1.3v-2.8h2.78v1.33H4.04zM1.3 8.71v2.83H0V8.71zM0 13.03h2.76v1.33H0zm3.99-8.97h-1.3V2.73h1.3zM6.91.01H0V7.1h6.91zm-1.3 5.76H1.29V1.35h4.32z"/>
</svg>
