<svg viewBox="0 0 32 32" xmlns="http://www.w3.org/2000/svg">
  <path d="M22.63 15.05 19.4 5.62l12.59-4.35V0h-.39L21.32 3.56c.06-.19.1-.4.1-.61 0-1.13-.91-2.04-2.04-2.04a2.036 2.036 0 0 0-1.15 3.72l-2.03.7c.05-.18.09-.37.09-.57 0-1.13-.91-2.04-2.04-2.04a2.036 2.036 0 0 0-1.19 3.69l-1.98.69c.04-.17.07-.34.07-.52 0-1.13-.91-2.04-2.04-2.04A2.036 2.036 0 0 0 7.88 8.2L0 10.93v1.41L11.97 8.2l-2.36 6.86H.02V32H32V15.05zM19.38 2.23c.39 0 .71.32.71.71s-.32.71-.71.71-.71-.32-.71-.71.32-.71.71-.71m-5.14 1.82c.39 0 .71.32.71.71s-.32.71-.71.71-.71-.32-.71-.71.32-.71.71-.71M9.1 5.87c.39 0 .71.32.71.71s-.32.71-.71.71-.71-.32-.71-.71.32-.71.71-.71m21.57 18.37h-8.91v-7.85h8.91zm-10.25-7.85v7.85h-8.78v-7.85zm-6.85-8.74 4.57-1.58 3.08 8.99h-10.2zm-3.26 8.74v7.85H1.35v-7.85zM1.35 30.66v-5.09h29.32v5.09z"/>
</svg>
