<svg viewBox="0 0 32 32" xmlns="http://www.w3.org/2000/svg">
  <path d="M10.83 10.29c0 .52-.43.95-.95.95s-.95-.43-.95-.95.43-.95.95-.95.95.43.95.95m2.18-.95c-.52 0-.95.43-.95.95s.43.95.95.95.95-.43.95-.95-.43-.95-.95-.95m-2.33 14.24H3.82c-2.07 0-3.75 1.91-3.75 4.27v4H1.4v-4c0-1.62 1.09-2.94 2.43-2.94h6.86c1.34 0 2.43 1.32 2.43 2.94v4h1.33v-4c0-2.35-1.68-4.27-3.75-4.27Zm-7 8.27h1.33v-3.58H3.68zm5.82 0h1.33v-3.58H9.5zM3.99 19.68a3.26 3.26 0 1 1 6.521.001 3.26 3.26 0 0 1-6.521-.001m1.33 0c0 1.07.87 1.93 1.93 1.93s1.93-.87 1.93-1.93-.87-1.93-1.93-1.93-1.93.87-1.93 1.93m26.75-10.6V32H15.51v-1.33h15.23v-16.4H7.55v1.03H6.22V9.07A2.57 2.57 0 0 1 8.79 6.5h7.2V3.91h1.66v-.8c0-1.72 1.34-3.11 2.97-3.11s2.97 1.39 2.97 3.11v.8h1.66V6.5h4.24a2.57 2.57 0 0 1 2.57 2.57ZM18.98 3.91h3.29v-.8c0-.98-.74-1.78-1.64-1.78s-1.65.8-1.65 1.78zm-1.66 6.51h6.61V5.24h-6.61zm13.42 2.53V9.08c0-.69-.56-1.25-1.25-1.25h-4.24v3.91h-9.26V7.83h-7.2c-.69 0-1.25.56-1.25 1.25v3.87h23.19Zm-10.1-6.88c-.61 0-1.1.49-1.1 1.1 0 .35.18.65.43.85v.37a.66.66 0 1 0 1.32 0v-.37c.26-.2.43-.5.43-.85 0-.61-.49-1.1-1.1-1.1Zm-3.59 12.68v1.73h-.6v1.33h12.88v-1.33h-.65v-3.33h-1.33v3.33H26.1v-1.94h-1.33v1.94h-1.25v-2.52h-1.33v2.52h-1.25v-4.55h-1.33v4.55h-1.25v-1.73h-1.33Z"/>
</svg>
