<svg viewBox="0 0 32 32" xmlns="http://www.w3.org/2000/svg">
  <path d="m13.37 2.77-.17.13.86.89-.93.93-.75.74.06.44.1.78-.64.47-.82.6-.89.65-.81-.75-.86-.8-.05.02.2 1.39.03.2-.03.2-.26 1.57-.05.27.41.26-.46 1.06-.85 1.93-.27.62-.67.14-.62.13.14.52.07.26-.03.27-.29 2.18.41.66.27.43-.09.5-.19 1.12.37.32.51.44-.06.68-.06.72 2.17.94.07.03.07.04 1.13.66.93.55-.34 1.03-1.04 3.12.51-.27.58-.31.6.27 3.95 1.8 2.35-.56 1.54-.66.39-.17.42.09.75.16-.11-.55-.17-.86.72-.49 1.44-.98-.7-1.18c-.39-.27-1.02-.71-1.33-1.03l-.23-.24-.09-.32c-.41-1.39-1.38-3.38-1.39-3.4l-.56-1.14 1.12-.61 2.07-1.13.18-.1.2-.04 2.01-.41.99-1.02.68-.7.77.39-1.33-3.66-.1-.27.02-.29.31-3.87-1.07-2.23-.86-.54-.91-.05-.58-.03-.37-.45-.51-.62-.29-.07-1.36 1.39-.27.28-.38.09-1.46.34-1.94.46.32-1.97.05-.33-.46.05-.51.05-.41-.3-.93-.66-.29-.21M12.57 0l2.4 1-.53.9.93.66 2.2-.24-.33 2.05 1.46-.34 1.89-1.93 1.07.25h.31l.86 1.05 1.26.06 1.47.94 1.38 2.89-.34 4.23 1.57 4.33-.76 1.66-1.24-.63-1.28 1.32-2.42.49-2.07 1.13s1.02 2.09 1.47 3.6c.33.34 1.37 1.02 1.37 1.02l1.5 2.51-2.47 1.69.49 2.53-2.73-.59-1.64.71-2.91.69-4.37-1.99-1.63.87L8.25 30l1.49-4.46-1.13-.66-3.05-1.32.14-1.67-.94-.81.32-1.87-.66-1.06.35-2.65-.51-1.88 1.99-.43.85-1.93-.78-.49.79-.78.26-1.57-.34-2.41 1.79-.75 1.49 1.39.82-.6-.14-1.09 1.21-1.21-.99-1.03 1.11-.85-.46-.66-.48-1.15 1.19-.09zM5.92 23.07v-.02z"/>
</svg>
