<svg viewBox="0 0 32 32" xmlns="http://www.w3.org/2000/svg">
  <path d="M22.65 6.9v2.67h-2.66v4h2.66v2.67h3.99v-2.67h2.66v-4h-2.66V6.9zm5.33 4v1.33h-2.66v2.67h-1.33v-2.67h-2.66V10.9h2.66V8.23h1.33v2.67zM9.27 16.89c1.29 0 2.33-1.04 2.33-2.33s-1.04-2.33-2.33-2.33-2.33 1.04-2.33 2.33 1.04 2.33 2.33 2.33m0-3.33c.55 0 1 .45 1 1s-.45 1-1 1-1-.45-1-1 .45-1 1-1m13.72 11.33 1.33 1.33H2.68a2.65 2.65 0 0 1-2.66-2.66V7.17c0-1.46 1.17-2.63 2.61-2.66l1.33 1.33H2.69c-.73 0-1.33.6-1.33 1.33v16.39c0 .74.6 1.33 1.33 1.33zm9.03-17.72v16.39c0 1.47-1.19 2.67-2.66 2.67h-1.28l-1.33-1.33h2.61c.73 0 1.33-.6 1.33-1.33V7.17c0-.74-.6-1.33-1.33-1.33H7.72L6.39 4.51h22.97c1.47 0 2.66 1.19 2.66 2.67Zm-17.35 5.62v-1.9h-1.89l-1.33-1.33H16v4.56zM2.68 9.56v14h13.31v-5.67l-1.33-1.33v5.67h-.67v-1.95c0-1.5-1.29-2.72-2.87-2.72H7.55c-1.58 0-2.87 1.22-2.87 2.72v1.95h-.67V10.9H9L7.67 9.57H2.68Zm3.33 10.72c0-.76.69-1.39 1.54-1.39h3.57c.85 0 1.54.62 1.54 1.39v1.95H12v-2h-1.33v2H8.01v-2H6.68v2h-.67zm13.42-2.72h3.89v1.33h-2.56zm-1.1 2.67 1.33 1.33h-2.33v-1.33zm3.76 0h3.22v1.33h-1.89zM.96 0l31.01 31.06-.94.94L.02.95z"/>
</svg>
