<svg viewBox="0 0 32 32" xmlns="http://www.w3.org/2000/svg">
  <path d="M4.94 21.8h5.08c.8 0 1.45-.65 1.45-1.46v-5.1c0-.81-.65-1.46-1.45-1.46H4.94c-.8 0-1.45.65-1.45 1.46v5.1c0 .81.65 1.46 1.45 1.46m0-6.68h5.08c.07 0 .12.06.12.12v.64H8.43v1.34h1.71v1.15H8.43v1.34h1.71v.64c0 .07-.06.12-.12.12H4.94c-.07 0-.12-.06-.12-.12v-.72h1.8v-1.34h-1.8v-1.07h1.8v-1.34h-1.8v-.64c0-.07.06-.12.12-.12M3.6 23.98h5.75v1.34H3.6zm0 2.92h12.73v1.34H3.6zm25.03-16.24V7.18H27V5.34C27.01 2.4 24.69.01 21.84.01s-5.16 2.39-5.16 5.32v1.84h-1.63v3.47H3.41a3.47 3.47 0 0 0-3.46 3.47v14.43c0 1.92 1.55 3.47 3.46 3.47H28.5c1.91 0 3.46-1.55 3.46-3.47V14.11a3.46 3.46 0 0 0-3.32-3.46ZM18.01 5.34c0-2.2 1.72-3.98 3.83-3.98s3.83 1.79 3.83 3.98v1.84H18V5.34Zm-1.62 3.17h10.92v9.68H16.39zm14.23 20.04c0 1.18-.95 2.13-2.13 2.13H3.41c-1.17 0-2.13-.96-2.13-2.13V14.12c0-1.18.95-2.13 2.13-2.13h11.65v7.55h13.58V12c1.11.07 1.99.99 1.99 2.12v14.43Zm-7.44-15.46c0 .49-.27.9-.67 1.13v.77a.67.67 0 0 1-1.34 0v-.77c-.39-.23-.67-.64-.67-1.13 0-.74.6-1.34 1.33-1.34s1.33.6 1.33 1.34Z"/>
</svg>
