<svg viewBox="0 0 32 32" xmlns="http://www.w3.org/2000/svg">
  <path d="M28.49 0H3.41C1.5 0-.05 1.55-.05 3.46v14.41c0 1.91 1.55 3.46 3.46 3.46h3.37l-6.75 6.9L3.79 32l8.88-9.07c1.74 1.09 3.79 1.73 5.99 1.73 3.12 0 5.95-1.27 7.99-3.32h1.83c1.91 0 3.46-1.55 3.46-3.46V3.46A3.446 3.446 0 0 0 28.49 0M3.79 30.1l-1.88-1.89 7.79-7.95c.55.7 1.2 1.36 1.87 1.89l-7.78 7.94Zm14.88-6.78c-1.83 0-3.55-.51-5.03-1.38h.01c-.12-.07-.25-.15-.38-.22a9.99 9.99 0 0 1-4.59-8.41c0-5.52 4.48-10 9.98-10s9.79 4.31 9.96 9.68h-6.96v1.33h6.92c-.5 5.05-4.76 9-9.93 9ZM4.82 9.01h1.8V7.68h-1.8V6.62h1.8V5.29h-1.8v-.64c0-.07.06-.12.12-.12h5.08c.07 0 .12.06.12.12v.64H8.43v1.33h1.13c-.27.37-.52.75-.75 1.15h-.39v.76c-.2.43-.38.87-.53 1.33H4.93c-.07 0-.12-.06-.12-.12v-.72Zm25.8 8.87c0 1.17-.95 2.13-2.13 2.13h-.71c1.37-1.88 2.19-4.18 2.19-6.69 0-6.26-5.06-11.34-11.31-11.34-2.74 0-5.25.98-7.21 2.6-.03-.78-.66-1.4-1.44-1.4H4.93c-.8 0-1.45.65-1.45 1.46v5.09c0 .8.65 1.46 1.45 1.46h2.62c-.13.69-.21 1.41-.21 2.14v.04H3.58v1.33h3.85c.07.54.17 1.07.31 1.59H3.6v1.33h4.61c.21.52.47 1.02.75 1.49l-.88.89H3.41c-1.17 0-2.13-.96-2.13-2.13V3.46c0-1.17.95-2.13 2.13-2.13H28.5c1.17 0 2.13.96 2.13 2.13v14.41ZM17.64 14.3l1.33-1.32v4.01h-6.61v-6.63h5.49l-1.33 1.33h-2.83v3.96h3.95v-1.36Zm1.57-4.4.94.94-4.39 4.41-1.86-1.72.9-.98.92.85 3.48-3.5Z"/>
</svg>
