<svg viewBox="0 0 32 32" xmlns="http://www.w3.org/2000/svg">
  <path d="M5.32 23.95c-1.47 0-2.67 1.19-2.67 2.67s1.19 2.67 2.67 2.67 2.67-1.19 2.67-2.67-1.19-2.67-2.67-2.67m0 3.99a1.33 1.33 0 1 1-.001-2.659 1.33 1.33 0 0 1 .001 2.659m5.34-7.33h1.33v8.66h-1.33zm21.32-3.55c0-2.21-3.29-4-7.34-4s-7.34 1.79-7.34 4v.89H-.02v13.99h23.5c.38.03.77.06 1.17.06 4.05 0 7.34-1.79 7.34-4V17.04Zm-13.25 5.1c.22.16.46.32.72.46 1.33.72 3.16 1.17 5.19 1.17 2.43 0 4.58-.65 5.91-1.64.05.13.09.25.09.37 0 1.09-2.34 2.67-6.01 2.67s-6.01-1.58-6.01-2.67c0-.12.04-.24.09-.37Zm11.92-2.36c0 1.09-2.34 2.67-6.01 2.67s-6.01-1.58-6.01-2.67c0-.12.04-.24.09-.37 1.34.99 3.48 1.64 5.91 1.64s4.58-.65 5.91-1.64c.05.13.09.25.09.37Zm-13.23.69s0-.03-.01-.04c0 .01 0 .03.01.04m0 2.74s0-.03-.01-.04c0 .01 0 .03.01.04m0 2.73s0-.03-.01-.04c0 .01 0 .03.01.04m.68 1.11-.03-.03c0 .01.02.02.03.03m.63-2.18c.22.16.46.32.72.46 1.33.72 3.16 1.17 5.19 1.17 2.43 0 4.58-.65 5.91-1.64.05.13.09.25.09.37 0 1.09-2.34 2.67-6.01 2.67s-6.01-1.58-6.01-2.67c0-.12.04-.24.09-.37Zm5.91-10.49c3.67 0 6.01 1.58 6.01 2.67s-2.34 2.67-6.01 2.67-6.01-1.58-6.01-2.67 2.34-2.67 6.01-2.67m-7.22 3.36s0-.03-.01-.04c0 .01 0 .03.01.04m1.67 12.85H1.32V19.28h15.99v8.74c0 1 .68 1.91 1.79 2.61Zm5.55.06c-3.67 0-6.01-1.58-6.01-2.67v-.44c.24.19.52.37.82.53 1.33.72 3.16 1.17 5.19 1.17 2.48 0 4.68-.67 6.01-1.7V28c0 1.09-2.34 2.67-6.01 2.67m6.54-3.6.03-.03c0 .01-.02.02-.03.03m.68-1.11s0-.03.01-.04c0 .01 0 .03-.01.04m0-2.73s0-.03.01-.04c0 .01 0 .03-.01.04m0-2.74s0-.03.01-.04c0 .01 0 .03-.01.04m0-2.73s0-.03.01-.04c0 .01 0 .03-.01.04M10.81 11.2c1.77 0 3.2-1.43 3.2-3.2s-1.44-3.2-3.2-3.2-3.2 1.43-3.2 3.2 1.44 3.2 3.2 3.2m0-5.07c1.03 0 1.87.84 1.87 1.87s-.84 1.87-1.87 1.87S8.94 9.03 8.94 8s.84-1.87 1.87-1.87m-5.43 4.1c.04.09.05.2.04.32l-1.69 1.68 2.83 2.83 1.69-1.68h.09c.08 0 .15.01.22.04.09.04.17.1.25.2V16h4v-2.38a.59.59 0 0 1 .48-.23h.09l1.68 1.69 2.83-2.83-1.69-1.69a.59.59 0 0 1 .24-.56h2.38V6h-2.39a.8.8 0 0 1-.2-.25.7.7 0 0 1-.04-.31l1.69-1.68L15.05.93l-1.69 1.68h-.09c-.09 0-.16-.01-.23-.04a.7.7 0 0 1-.25-.19V0h-4v2.38c-.07.09-.16.15-.25.19-.07.03-.14.04-.23.04h-.09L6.54.93 3.71 3.76l1.68 1.68c.01.12 0 .22-.03.31-.04.09-.11.18-.2.25H2.78v4h2.38c.09.07.15.15.19.24Zm-1.25-2.9h1.52l.37-.29c.27-.21.46-.47.6-.79.12-.29.16-.62.12-.95l-.05-.46-.33-.33-.74-.74.94-.94.74.74.33.33.47.05c.08 0 .16.01.23.01.26 0 .5-.05.74-.15.3-.12.55-.32.77-.58l.3-.37V1.34h1.33v1.52l.29.37c.22.27.48.47.79.59.23.09.47.14.73.14h.2l.48-.04.34-.34.74-.74.94.94-.74.74-.34.33-.05.47c-.04.34 0 .66.13.97.13.3.32.56.59.77l.37.3h1.52v1.33h-1.53l-.37.3c-.27.22-.46.48-.58.77-.13.3-.17.63-.13.97l.05.46.33.33.74.75-.95.94-.74-.74-.33-.33-.47-.05c-.08 0-.16-.01-.23-.01-.26 0-.5.05-.75.15-.3.12-.56.32-.77.59l-.29.36v1.52h-1.33v-1.52l-.29-.37c-.21-.26-.47-.46-.79-.6-.23-.09-.47-.14-.72-.14-.08 0-.17 0-.26.02l-.45.06-.32.32-.74.74-.94-.94.74-.74.33-.33.05-.47c.04-.34 0-.66-.14-.99-.13-.29-.32-.55-.59-.76l-.37-.29H4.1V7.36Z"/>
</svg>
