<svg viewBox="0 0 32 32" xmlns="http://www.w3.org/2000/svg">
  <path d="M15.96-.03c-8.84 0-16 7.17-16 16s7.16 16 16 16 16-7.16 16-16-7.16-16-16-16m0 30.67c-8.09 0-14.67-6.58-14.67-14.67S7.87 1.31 15.96 1.31s14.67 6.58 14.67 14.67-6.58 14.67-14.67 14.67ZM9.13 9.02l.94.94-1.82 1.82-1.26-1.2.92-.96.32.31.9-.9Zm0 7.13.94.94-1.82 1.82-1.26-1.2.92-.97.32.3.9-.9Zm7.18-2.58h-3.68v-1.33h3.68zm-3.68 2.85h2.28v1.33h-2.28zm3.5-2.09c-.14.41-.23.84-.23 1.3v.03h-3.28v-1.33zm1.11 1.3a2.86 2.86 0 1 0 5.719.001 2.86 2.86 0 0 0-5.719-.001m4.38 0a1.52 1.52 0 1 1-3.039.001 1.52 1.52 0 0 1 3.039-.001m1.48 3.62h-6.01c-1.29 0-2.39.83-2.96 2.03H9v-.75h2.52v-6H9V13.4h2.52v-6H9V6.12h6.52v3.93h3.93v1.46c.21-.03.42-.07.65-.07.24 0 .46.03.69.07V9.1l-4.32-4.32h-8.8V7.4H5.52v6h2.15v1.13H5.52v6h2.15v2.09h6.09c-.02.15-.04.3-.04.46v2.86h1.33v-2.86c0-1.37.92-2.49 2.04-2.49h6.01c1.13 0 2.04 1.12 2.04 2.49v2.86h1.33v-2.86c0-2.11-1.51-3.83-3.37-3.83m-6.24-12.2 1.65 1.65h-1.65zM6.85 8.73h3.33v3.33H6.85zm0 7.13h3.33v3.33H6.85zm10.22 7.03h1.33v3.04h-1.33zm4.72 0h1.33v3.04h-1.33z"/>
</svg>
