<svg viewBox="0 0 32 32" xmlns="http://www.w3.org/2000/svg">
  <rect/>
  <path d="M16 6.7c1.5 0 2.7-1.2 2.7-2.7S17.5 1.3 16 1.3 13.3 2.5 13.3 4s1.2 2.7 2.7 2.7m0-4c.7 0 1.4.6 1.4 1.3s-.6 1.3-1.4 1.3c-.7 0-1.4-.6-1.4-1.3.1-.7.7-1.3 1.4-1.3m11.6 28.2-7.5-13.4c.1-.1.3-.1.4-.2l.5-.3-4.3-7.7c-.1-.1-1.2-1.4-2.6-1.3-.9.1-1.6.6-2.2 1.7L8.1 23.1l-3.7 6.5 3.6 2 4.3-7.5.4-1.1.8 2.3V32h4l-.1-7.2-2-7.6.4-1.6.3.5c0 .1.6 1.3 1.9 1.7.3.1.6.1.9.1l7.7 13.7zM17.1 15.5l-1.4-2.3-.7-1.1-1.1.7.8 1.3-.8 3.2L16 25v5.8h-1.4v-5.4l-2-6.2-1.6 4.4-3.6 6.2-1.3-.7 3.1-5.4L13 10.3q.6-.9 1.2-.9c.6-.1 1.3.6 1.4.7l3.6 6.4c-.4.1-.7.1-1 .1-.7-.3-1-1-1.1-1.1"/>
</svg>
