<svg viewBox="0 0 32 32" xmlns="http://www.w3.org/2000/svg">
  <path d="M8.786 14.013h3.527v.787l-1.3-.02v3.887h-.953V14.78l-1.274.02zm4.16.567h.894v-.853h-.894zm0 4.087h.894v-3.434h-.894zm3.714-3.513a.94.94 0 0 0-.61.196q-.244.197-.377.537h-.013q0-.067-.004-.157l-.006-.18-.007-.173a2 2 0 0 0-.01-.144h-.84a7 7 0 0 1 .027.48q.006.267.006.54v2.414h.907v-1.4q0-1.354.893-1.354.167 0 .307.047l.02-.767a.6.6 0 0 0-.144-.033 2 2 0 0 0-.15-.006m3.347.45q.379.45.38 1.383a2 2 0 0 1-.015.213h-2.3q.014.4.304.633.29.234.757.233a1.9 1.9 0 0 0 1-.28l.013.735q-.219.106-.507.166-.287.06-.613.06-.42 0-.767-.12a1.6 1.6 0 0 1-.59-.354 1.6 1.6 0 0 1-.376-.57 2.1 2.1 0 0 1-.133-.77q0-.387.123-.713a1.6 1.6 0 0 1 .893-.934 1.8 1.8 0 0 1 .703-.132q.748 0 1.128.45m-.44.983q0-.42-.195-.61-.193-.19-.526-.19a.78.78 0 0 0-.523.2q-.23.2-.263.6zm3.537-1.427a2 2 0 0 0-.15-.006.93.93 0 0 0-.61.196q-.246.197-.378.537h-.013l-.002-.157-.008-.18-.007-.173a2 2 0 0 0-.009-.144h-.841q.02.215.027.48.006.267.007.54v2.414h.906v-1.4q0-1.353.893-1.354.167 0 .308.047l.02-.767a.6.6 0 0 0-.143-.033"/>
</svg>
