<svg viewBox="0 0 32 32" xmlns="http://www.w3.org/2000/svg">
  <path d="M11.77 14.294q-.27-.16-.627-.22a4.4 4.4 0 0 0-.743-.061H9.227v4.654h.94v-1.774h.233q.4 0 .757-.07.356-.069.623-.24c.267-.17.319-.262.423-.446q.157-.277.157-.697 0-.433-.16-.71a1.2 1.2 0 0 0-.43-.436m-.446 1.516a.6.6 0 0 1-.217.226.9.9 0 0 1-.337.114 3 3 0 0 1-.437.03h-.166v-1.46h.166q.527 0 .797.157.27.156.27.57a.8.8 0 0 1-.076.363m4.733 2.377q.003.267.03.48h-.834a3 3 0 0 1-.02-.25 8 8 0 0 1-.006-.317h-.013q-.167.267-.447.457t-.734.19q-.273 0-.497-.093a1.04 1.04 0 0 1-.38-.27 1.3 1.3 0 0 1-.243-.423 1.6 1.6 0 0 1-.086-.547v-2.18h.88v1.779q0 .228.026.41a.9.9 0 0 0 .1.314.5.5 0 0 0 .2.203q.128.074.32.073c.193-.001.244-.027.344-.083a.8.8 0 0 0 .256-.227q.106-.142.16-.34.054-.196.054-.416v-1.714h.886v2.414q0 .273.004.54m3.022-.914a1 1 0 0 1 .067.38q0 .268-.103.47-.104.203-.286.344-.184.14-.445.21c-.26.07-.364.07-.572.07a3 3 0 0 1-.544-.044 3 3 0 0 1-.516-.137l.047-.705q.252.12.496.175.243.058.47.058t.393-.09c.167-.09.167-.152.167-.277a.4.4 0 0 0-.03-.153.35.35 0 0 0-.103-.127 1 1 0 0 0-.205-.117 5 5 0 0 0-.336-.13q-.492-.166-.703-.39-.21-.223-.21-.604 0-.245.097-.44c.097-.194.156-.238.277-.33q.18-.135.429-.21.25-.072.557-.072.539-.001.934.16l-.075.666a2 2 0 0 0-.819-.194.7.7 0 0 0-.373.094.3.3 0 0 0-.147.266q0 .088.03.15.03.064.1.114c.07.05.11.067.194.1q.122.05.303.11.227.074.406.163t.306.21q.128.12.194.28m3.908-.6v1.994h-.88v-1.654a6 6 0 0 0-.016-.456 1.2 1.2 0 0 0-.083-.364.56.56 0 0 0-.195-.24.6.6 0 0 0-.347-.086q-.42 0-.626.333-.207.334-.207.913v1.554h-.88v-5.04h.88v1.353q0 .226-.007.454l-.013.38h.013q.186-.3.46-.48.273-.18.647-.18.341 0 .58.106a.96.96 0 0 1 .39.306 1.3 1.3 0 0 1 .216.48q.068.28.068.627"/>
</svg>
