<svg viewBox="0 0 32 32" xmlns="http://www.w3.org/2000/svg">
  <rect/>
  <path d="M21.6 16.5c.2 0 .5-.1.7-.3l2.5-2.5c1-1 1-2.7 0-3.8l-.9-.9-3.1 3-1-1c-.6-.6-1.5-1-2.4-1h-2.8c-.9 0-1.7.3-2.4 1l-1 1-3-2.9-.9.9c-1 1-1 2.7 0 3.8l2.5 2.5c.2.2.5.4.7.4.4 0 .8-.2 1.5-.6V18l-1.2 2.5-2.3 2.3c-.8.8-.8 2 0 2.8l4.2 4.2 2.8-2.8-2.4-2.4 1-1h3.5l1 1-2.4 2.4 2.8 2.8 4.2-4.2c.8-.8.8-2 0-2.8l-2.3-2.3-.9-2.7V16c.5.2 1.1.5 1.6.5m-8.4 1.9.1-.3v-.8h2v1.4h1.3v-1.4h2v.8l.1.3 1 2.1L18 22h-4.2l-1.6-1.5zm.5 8.4-.9.9-3.3-3.3c-.2-.2-.2-.4-.2-.5s0-.3.2-.5l1.9-1.9 1.4 1.3-.5.5-.9.9.9.9zm8.8-3.3c.3.3.3.7 0 .9l-3.3 3.3-.9-.9 1.5-1.5.9-.9-.9-.9-.6-.6 1.5-1.2zm-3.8-9.6V16h-5.3v-2.2l-2 1h-.1c-.3.1-.6.3-.7.4l-2.4-2.4c-.5-.5-.5-1.4 0-1.9l2 2 .9.9.9-.9 1-1c.4-.4.9-.6 1.4-.6h3c.5 0 1 .2 1.4.6l1 1 .9.9.9-.9 2-2c.3.3.4.6.4.9 0 .4-.1.7-.4.9L21.3 15c-.2-.1-.5-.2-.6-.3l-.3-.1zM16 9.4c1.9 0 3.4-1.5 3.4-3.4S17.9 2.6 16 2.6 12.6 4.1 12.6 6s1.5 3.4 3.4 3.4m0-5.5c1.1 0 2.1.9 2.1 2.1 0 1.1-.9 2.1-2.1 2.1-1.1 0-2.1-.9-2.1-2.1 0-1.1 1-2.1 2.1-2.1"/>
</svg>
