<svg viewBox="0 0 32 32" xmlns="http://www.w3.org/2000/svg">
  <path d="M12 22.7v2h-1.3V24H8v.7H6.7v-2zm6.7 9.3h-4.1v-2.7H4.1V32H0V21.4c0-1.1.6-2 1.6-2.4l.6-3c.3-1.5 1.6-2.6 3.1-2.6h8.1c1.5 0 2.8 1.1 3.1 2.6l.6 3c.9.4 1.6 1.4 1.6 2.5zm-1.4-6.7v-2.7h-.8c-.3 0-.6.3-.6.6v1.5c0 .3.3.6.6.6zM3.5 16.1 3 18.6h12.7l-.5-2.5c-.2-.9-.9-1.5-1.8-1.5H5.3c-.9 0-1.7.6-1.8 1.5M.4 27.9q0 .15 0 0 0 .15 0 0m-.3-.6v.1zm1.2-2h.8c.3 0 .6-.3.6-.6v-1.5c0-.3-.3-.6-.6-.6h-.8zm1.4 4c-.5 0-1-.1-1.4-.4v1.7h1.4zM16 28c.7 0 1.3-.6 1.4-1.3h-.8c-1 0-1.9-.8-1.9-1.9v-1.5c0-1 .8-1.9 1.9-1.9h.8c0-.7-.5-1.2-1.1-1.3H2.4c-.6.1-1.1.7-1.1 1.3h.8c1 0 1.9.8 1.9 1.9v1.5c0 1-.8 1.9-1.9 1.9h-.8c.1.7.7 1.3 1.4 1.3zm1.4.9c-.4.3-.9.4-1.4.4v1.3h1.4zM28 19.3V32h-1l-2.4-2.4-2.3 2.4h-1V19.3c0-1.8 1.5-3.3 3.3-3.3 1.9 0 3.4 1.5 3.4 3.3m-3.3-2c-1.1 0-2 .9-2 2s.9 2 2 2 2-.9 2-2-.9-2-2-2m2 12.4V22c-.6.4-1.2.7-2 .7s-1.4-.3-2-.7v7.8l1.1-1.1.9-.9.9.9zM32 9.9V32h-1.3V10.8h-8.1v-8H10.7v9.1H9.3V1.5h14.2zm-8.1-.4h5.7l-5.7-5.7z"/>
</svg>
