<svg viewBox="0 0 32 32" xmlns="http://www.w3.org/2000/svg">
  <path d="M20.67 22.67c-2.54 0-4.67 2.13-4.67 4.66S18.13 32 20.67 32s4.67-2.13 4.67-4.67-2.13-4.67-4.67-4.67m0 8c-1.87 0-3.33-1.47-3.33-3.33S18.81 24 20.67 24 24 25.47 24 27.33s-1.47 3.33-3.33 3.33M4 24c-2.27 0-4 1.73-4 4s1.73 4 4 4 4-1.73 4-4-1.73-4-4-4m0 6.67c-1.47 0-2.67-1.2-2.67-2.67s1.2-2.67 2.67-2.67 2.67 1.2 2.67 2.67-1.2 2.67-2.67 2.67m18.67-17.34V20h-1.33V0h-4v20.8c-.53.27-.93.53-1.33.93v-4.8l-2-7.47c-.8-3.2-3.73-5.47-7.07-5.47h-5.6v18.67h2.67c2.93 0 5.33 2.4 5.33 5.33v.67h5.33v-1.33c0-3.33 2.67-6 6-6H32v-8zm-8 9.87c-.8 1.2-1.33 2.67-1.33 4.13h-2.67c-.4-3.33-3.2-6-6.67-6H2.67v-2.67h7.07l2.67 2.67h2.27zm0-3.2h-1.73l-2.67-2.67h-7.6v-12h4.27c2.67 0 5.07 1.87 5.73 4.4l1.87 7.2V20zM20 20c-.4 0-.93.13-1.33.27V1.33H20zm10.67 0H24v-5.33h6.67z"/>
</svg>
