<svg viewBox="0 0 32 32" xmlns="http://www.w3.org/2000/svg">
  <rect/>
  <path d="M4 0v32h24V0zm22.7 30.7H5.3V1.3h21.4zM16 29.3c4.1 0 7.3-3.3 7.3-7.3 0-4.1-3.3-7.3-7.3-7.3S8.7 17.9 8.7 22s3.2 7.3 7.3 7.3M16 16c3.3 0 6 2.7 6 6s-2.7 6-6 6-6-2.7-6-6 2.7-6 6-6m-2.8 9.5 2.2-2.2v-2.4l-2.2-2.2-.5.4c-.9.8-1.4 1.9-1.4 3s.5 2.2 1.4 3zm0-5 .8.8v1.3l-.8.8c-.3-.4-.5-1-.5-1.5 0-.4.1-.9.5-1.4m6.1 4.5c.9-.8 1.4-1.9 1.4-3s-.5-2.2-1.4-3l-.5-.4-2.2 2.2v2.4l2.2 2.2zM18 21.4l.8-.8c.3.4.5 1 .5 1.5s-.2 1.1-.5 1.5l-.8-.9zM14.6 8.9h.8c.5 0 .9 0 1.4-.1s.9-.2 1.2-.4.6-.5.8-.9.3-.8.3-1.4-.1-1-.3-1.4-.5-.6-.8-.8-.7-.3-1.2-.4-1-.1-1.5-.1h-2.1v9.3h1.4zm0-4.4h.7c.4 0 .8 0 1.1.1s.6.1.8.3c.2.1.4.3.5.5s.2.5.2.8-.1.6-.2.8-.3.4-.5.5-.5.2-.8.3c-.3 0-.7.1-1.1.1h-.7z"/>
</svg>
