<svg viewBox="0 0 32 32" xmlns="http://www.w3.org/2000/svg">
  <path d="M15.333 2.667c-7.733 0-14 6.267-14 14s6.267 14 14 14 14-6.267 14-14-6.267-14-14-14M10.8 4.8a13.6 13.6 0 0 0-2.667 4.533H5.066c1.467-2 3.467-3.6 5.733-4.533zm-6.667 5.867h3.6c-.4 1.6-.667 3.467-.8 5.333H2.666a14.4 14.4 0 0 1 1.467-5.333m-1.466 6.666h4.4c0 1.867.267 3.733.8 5.333H4.134a14.4 14.4 0 0 1-1.467-5.333M5.067 24h3.2a13.6 13.6 0 0 0 2.667 4.533C8.534 27.6 6.534 26 5.067 24m9.6 5.333c-2-.4-3.867-2.4-4.933-5.333h4.933zm0-6.666H9.2c-.533-1.6-.8-3.467-.8-5.333h6.267zm0-6.667H8.4c0-1.867.4-3.733.8-5.333h5.467zm0-6.667H9.734C10.801 6.4 12.667 4.4 14.667 4zM28 16h-4.4c0-1.867-.267-3.733-.8-5.333h3.6c.933 1.6 1.467 3.467 1.6 5.333m-2.4-6.667h-3.2A13.6 13.6 0 0 0 19.733 4.8c2.4.933 4.4 2.533 5.867 4.533M16 4c2 .4 3.867 2.4 4.933 5.333H16zm0 6.667h5.467c.533 1.6.8 3.467.8 5.333H16zm0 6.666h6.267c0 1.867-.4 3.733-.8 5.333H16zm0 12V24h4.933C19.866 26.933 18 28.933 16 29.333m3.867-.8A13.6 13.6 0 0 0 22.534 24h3.2c-1.6 2-3.6 3.6-5.867 4.533m6.666-5.866h-3.6c.4-1.6.667-3.467.8-5.333H28a14.4 14.4 0 0 1-1.467 5.333"/>
</svg>
