<svg viewBox="0 0 32 32" xmlns="http://www.w3.org/2000/svg">
  <path d="M25.47 1.33H6.53A3.87 3.87 0 0 0 2.67 5.2v21.6a3.87 3.87 0 0 0 3.87 3.87h18.93a3.87 3.87 0 0 0 3.87-3.87V5.2a3.87 3.87 0 0 0-3.87-3.87M28 26.8c0 1.33-1.07 2.53-2.53 2.53H6.53C5.2 29.33 4 28.26 4 26.8V5.2c0-1.47 1.07-2.53 2.53-2.53h18.93C26.8 2.67 28 3.73 28 5.2zM6.67 8h18.67V4H6.67zM8 5.33h16v1.33H8zm-1.33 9.34H12V9.33H6.67zm1.33-4h2.67v2.67H8zm5.33 4h5.33V9.33h-5.33zm1.33-4h2.67v2.67h-2.67zm5.34 4h5.33V9.33H20zm1.33-4H24v2.67h-2.67zM6.67 21.33H12V16H6.67zm1.33-4h2.67V20H8zm5.33 4h5.33V16h-5.33zm1.33-4h2.67V20h-2.67zM6.67 28H12v-5.33H6.67zM8 24h2.67v2.67H8zm5.33 4h5.33v-5.33h-5.33zm1.33-4h2.67v2.67h-2.67zM20 28h5.33v-5.33H20zm1.33-4H24v2.67h-2.67zM20 21.33h5.33V16H20zm1.33-4H24V20h-2.67z"/>
</svg>
