<svg viewBox="0 0 32 32" xmlns="http://www.w3.org/2000/svg">
  <path d="M26.933 8h-5.6V6.4a2.39 2.39 0 0 0-2.4-2.4h-5.867a2.39 2.39 0 0 0-2.4 2.4V8h-5.6a2.39 2.39 0 0 0-2.4 2.4v15.067a2.39 2.39 0 0 0 2.4 2.4h21.733a2.39 2.39 0 0 0 2.4-2.4V10.4c.133-1.333-.933-2.4-2.267-2.4zM12 6.4c0-.533.533-1.067 1.067-1.067H18.8c.667 0 1.2.533 1.2 1.067V8h-8zm16 19.2c0 .667-.533 1.067-1.067 1.067H5.066c-.533 0-1.067-.533-1.067-1.067V10.4c0-.533.533-1.067 1.067-1.067h21.733c.667 0 1.2.533 1.2 1.067v15.2z"/>
</svg>
