<svg viewBox="0 0 32 32" xmlns="http://www.w3.org/2000/svg">
  <path d="M21.2 13.33c-1.07 0-2 .93-2 2s.8 2 2 2c1.07 0 2-.93 2-2s-.93-2-2-2m0 2.67c-.4 0-.67-.27-.67-.67s.27-.67.67-.67.67.27.67.67-.4.67-.67.67m8.13-1.33H26q-.4-1-1.2-2l1.6-5.87c.13-.4-.13-.67-.4-.8a4.5 4.5 0 0 0-3.87.53C21.07 7.07 20.4 8 20 9.2 18.13 8.4 16.27 8 14.13 8h-.27c.13-.4.13-.93.13-1.33 0-3.07-2.4-5.47-5.47-5.47S3.2 3.6 3.2 6.67c0 1.6.67 3.07 1.87 4-1.33 1.07-2.4 2.27-3.07 3.73-.4-.13-.67-.53-.67-1.07v-.67c0-.4-.27-.67-.67-.67s-.67.27-.67.67v.67c0 1.07.67 2 1.6 2.4-.13.8-.27 1.47-.27 2.27q0 5.6 4 8v5.33c0 .4.27.67.67.67h4.4c.27 0 .53-.27.67-.53l.93-3.6c.67 0 1.47.13 2.13.13s1.2 0 1.73-.13l.93 3.6c.13.27.4.53.67.53h4.4c.4 0 .67-.27.67-.67V26q2.2-1.4 3.2-3.6l3.6-.8c.8-.27 1.33-.93 1.33-1.6v-4c0-.8-.53-1.33-1.33-1.33zm-24.53-8c0-2.14 1.73-3.87 3.87-3.87s3.87 1.73 3.87 3.87-1.73 3.87-3.87 3.87S4.8 8.8 4.8 6.67M29.33 20c0 .13-.13.27-.13.27l-3.87.93-.4.13c-.67 1.87-1.73 3.2-3.6 4v5.33h-3.2l-.8-2.93-.13-.27-.13-.67-.13-.4c-.8.27-1.73.27-2.8.27-1.2 0-2.27-.13-3.2-.13l-.4 1.33-.67 2.8h-3.2v-5.47q-4-2-4-7.2c0-3.33 1.87-5.33 3.6-6.53.4.27.93.4 1.47.53-1.07.67-1.87 1.33-2.67 2.27-.27.27-.13.67.13.93.13.13.27.13.4.13.27 0 .4-.13.53-.27 2-2.53 6.13-3.87 10-3.07.4.13.67-.13.8-.53s-.13-.67-.53-.8c-1.33-.27-2.67-.27-3.87-.13l.8-1.2h.8c2.53 0 4.8.67 6.8 1.73 0-.53 0-.8.13-1.07q.4-1.6 1.6-2.4c.67-.4 1.47-.53 2.27-.53l-1.2 4.4-.13.27-.27.93v.27a9.5 9.5 0 0 1 1.73 2.93h4.27v4.13z"/>
</svg>
