<svg viewBox="0 0 32 32" xmlns="http://www.w3.org/2000/svg">
  <path d="m23.87 11.87-.93-.93-5.6 5.47c-.4-.27-.8-.4-1.33-.4-1.47 0-2.67 1.2-2.67 2.67s1.2 2.67 2.67 2.67 2.67-1.2 2.67-2.67a2.25 2.25 0 0 0-.4-1.33l5.6-5.47zM16 20c-.8 0-1.33-.53-1.33-1.33s.53-1.34 1.33-1.34 1.33.53 1.33 1.33S16.8 20 16 20m-.67-12h1.33v4h-1.33zm0 17.33h1.33v4h-1.33zM22.67 18h4v1.33h-4zM5.33 18h4v1.33h-4zm24.8-7.87.93-.93-5.6-5.6-.93.93 2.4 2.4-1.86 1.87c-2.4-2-5.2-3.33-8.4-3.47V2.67H20V1.33h-8v1.33h3.33v2.67c-7.07.4-12.67 6.27-12.67 13.33 0 7.33 6 13.33 13.33 13.33s13.33-6 13.33-13.33c0-3.47-1.33-6.53-3.47-8.93l1.87-1.87 2.4 2.27zM16 30.67c-6.67 0-12-5.33-12-12s5.33-12 12-12 12 5.33 12 12-5.33 12-12 12"/>
</svg>
