<svg viewBox="0 0 32 32" xmlns="http://www.w3.org/2000/svg">
  <rect/>
  <path d="m12 13.6-5.4-2V10l5.3-2v1.5s-4.3 1.3-4.4 1.3c.1 0 4.5 1.3 4.5 1.3zM6.8 19l.5.7 1.2-.9V24h1.2v-6.4h-1zm8.5 1.8c0 1.9-.7 3.3-2.2 3.3-1.6 0-2.2-1.7-2.2-3.3 0-1.5.6-3.2 2.2-3.2s2.2 1.5 2.2 3.2m-1.1 0c0-.8-.1-1.2-.3-1.6s-.4-.6-.8-.6c-.3 0-.6.2-.8.6-.2.3-.3.8-.3 1.6s.1 1.3.3 1.7.4.6.8.6c.3 0 .6-.2.8-.6s.3-.9.3-1.7m6.1 0c0 1.9-.7 3.3-2.2 3.3-1.6 0-2.2-1.7-2.2-3.3 0-1.5.6-3.2 2.2-3.2s2.2 1.5 2.2 3.2m-1.1 0c0-.8-.1-1.2-.3-1.6s-.4-.6-.8-.6c-.3 0-.6.2-.8.6-.2.3-.3.8-.3 1.6s.1 1.3.3 1.7.4.6.8.6c.3 0 .6-.2.8-.6s.3-.9.3-1.7m6.2 0c0 1.9-.7 3.3-2.2 3.3-1.6 0-2.2-1.7-2.2-3.3 0-1.5.6-3.2 2.2-3.2s2.2 1.5 2.2 3.2m-1.1 0c0-.8-.1-1.2-.3-1.6s-.4-.6-.8-.6c-.3 0-.6.2-.8.6s-.3.9-.3 1.6c0 .8.1 1.3.3 1.7s.4.6.8.6c.3 0 .6-.2.8-.6s.3-.9.3-1.7"/>
</svg>
