<svg viewBox="0 0 32 32" xmlns="http://www.w3.org/2000/svg">
  <path d="m30.667 16.667-4-14.8c-.133-.267-.4-.533-.667-.533h-8.4c-.4-.8-1.333-1.333-2.267-1.333s-1.867.533-2.267 1.333h-8.4c-.267 0-.533.267-.667.533l-4 14.8v.267c.133 2.4 2.133 4.4 4.667 4.4s4.533-2 4.667-4.4v-.267l-3.733-14h7.067c0 1.2.8 2.267 2 2.533v25.467h-8V32H24v-1.333h-8V5.2c1.2-.267 2-1.333 2-2.533h7.067l-3.733 14v.267c.133 2.533 2.133 4.4 4.667 4.4s4.533-2 4.667-4.4zM4.667 20c-1.6 0-2.933-1.2-3.2-2.667h6.4C7.6 18.8 6.267 20 4.667 20m3.066-4H1.6L4.667 4.533 7.734 16zm7.6-12C14.533 4 14 3.467 14 2.667s.533-1.333 1.333-1.333 1.333.533 1.333 1.333S16.133 4 15.333 4M26 4.533 29.067 16h-6.133l3.067-11.467zM26 20c-1.6 0-2.933-1.2-3.2-2.667h6.4C28.933 18.8 27.6 20 26 20"/>
</svg>
