<svg viewBox="0 0 32 32" xmlns="http://www.w3.org/2000/svg">
  <rect/>
  <path d="M7 15.6c2.8-1.1 4.3-3.5 3.5-5.5C10 8.7 8.1 7.7 6 7.7c-.8 0-1.6.1-2.3.4-2.4 1-3.8 3-3.7 4.8V32h1.3V15.1c2 1.3 4.9.8 5.7.5m-5.6-2.4c-.4-1.2.6-3 2.8-3.8C4.8 9.1 5.4 9 6 9c1.5 0 2.9.7 3.3 1.6.3.8-.1 1.5-.3 1.9-.5.8-1.4 1.5-2.4 1.9-.6.2-1.3.4-1.9.4-1.6-.1-2.9-.7-3.3-1.6M16 24.5c-.8-.6-2-1-3.3-1-.8 0-1.6.1-2.4.4C7.5 25 6 27.4 6.8 29.4c.6 1.4 2.4 2.4 4.5 2.4.8 0 1.6-.1 2.3-.4 2.4-.9 3.9-2.9 3.7-4.7V7.6H16zm-2.8 5.7q-.9.3-1.8.3c-1.5 0-2.9-.7-3.3-1.6-.3-.8.1-1.5.3-1.9.5-.8 1.4-1.5 2.4-1.9.6-.2 1.3-.4 1.9-.4 1.5 0 2.8.6 3.2 1.5.5 1.3-.5 3.2-2.7 4M32 0h-1.3v15.6c-.8-.6-2-.9-3.3-.9-.8 0-1.6.1-2.4.4-2.8 1.1-4.3 3.5-3.5 5.5.5 1.5 2.4 2.4 4.5 2.4.8 0 1.6-.1 2.3-.4 2.4-.9 3.8-2.8 3.7-4.6zm-1.8 19.5c-.5.8-1.4 1.5-2.4 1.9q-.9.3-1.8.3c-1.5 0-2.9-.7-3.3-1.6-.3-.8.1-1.5.3-1.9.5-.8 1.4-1.5 2.4-1.9.6-.2 1.3-.4 1.9-.4 1.5 0 2.8.6 3.2 1.5.1.1.3 1.5-.3 2.1"/>
</svg>
