<svg viewBox="0 0 32 32" xmlns="http://www.w3.org/2000/svg">
  <path d="M32 29.33H0V4.67c0-1.07.93-2 2-2h6.67c.8 0 1.6.27 2.13.8l2.8 2.8c.4.27.8.4 1.33.4H30c1.07 0 2 .93 2 2zM1.33 28h29.33V8.67c0-.4-.27-.67-.67-.67H14.93c-.8 0-1.6-.27-2.27-.8L10 4.4c-.4-.27-.8-.4-1.33-.4H2c-.4 0-.67.27-.67.67zM20 21.33c-1.47 0-2.67-1.2-2.67-2.67s1.2-2.67 2.67-2.67 2.67 1.2 2.67 2.67-1.2 2.67-2.67 2.67m0-4c-.8 0-1.33.53-1.33 1.33S19.2 20 20 20s1.33-.53 1.33-1.33-.53-1.34-1.33-1.34m4.67 9.34h-1.33v-2c0-.4-.27-.67-.67-.67h-5.33c-.4 0-.67.27-.67.67v2h-1.33v-2c0-1.07.93-2 2-2h5.33c1.07 0 2 .93 2 2zM6.93 16.13c-2 0-3.73-1.73-3.73-3.73s1.73-3.73 3.73-3.73 3.73 1.73 3.73 3.73-1.73 3.73-3.73 3.73m0-6.13c-1.33 0-2.4 1.07-2.4 2.4s1.07 2.4 2.4 2.4 2.4-1.07 2.4-2.4a2.39 2.39 0 0 0-2.4-2.4M14 26.67h-1.33v-6c0-1.07-.93-2-2-2h-8v-1.33h8A3.3 3.3 0 0 1 14 20.67zm-4-4h1.33v4H10z"/>
</svg>
