<svg viewBox="0 0 32 32" xmlns="http://www.w3.org/2000/svg">
  <path d="M18.67 23.33V32H20v-8.67A3.3 3.3 0 0 1 23.33 20H32v-1.33h-8.67c-2.53 0-4.67 2.13-4.67 4.67zm8.66-6c2.53 0 4.67-2.13 4.67-4.67s-2.13-4.67-4.67-4.67-4.67 2.13-4.67 4.67 2.13 4.67 4.67 4.67m0-8c1.87 0 3.33 1.47 3.33 3.33s-1.47 3.33-3.33 3.33S24 14.53 24 12.67a3.3 3.3 0 0 1 3.33-3.33m-4.66 15.99H24V32h-1.33zM0 17.33h18.67v1.33H0zM18.67 0h-5.33v16h5.33zm-1.33 14.67h-2.67V1.33h2.67zM12 5.33H6.67V16H12zm-1.33 9.33H8v-8h2.67zM5.33 2.67H0V16h5.33zM4 14.67H1.33V4H4z"/>
</svg>
