<svg viewBox="0 0 32 32" xmlns="http://www.w3.org/2000/svg">
  <path d="M16 13.33c3.73 0 6.67-2.93 6.67-6.67S19.73 0 16 0 9.33 2.93 9.33 6.67s2.93 6.67 6.67 6.67m0-12c2.93 0 5.33 2.4 5.33 5.33S18.93 12 16 12s-5.33-2.4-5.33-5.33 2.4-5.33 5.33-5.33M22.67 20H9.33c-3.73 0-6.67 2.93-6.67 6.67V32H4v-5.33c0-2.93 2.4-5.33 5.33-5.33h13.33c2.93 0 5.33 2.4 5.33 5.33V32h1.33v-5.33c0-3.73-2.93-6.67-6.67-6.67zM8 28h1.33v4H8zm14.67 0H24v4h-1.33zM7.6 10.67c1.2 2.53 3.33 4.27 6 5.07-.27.13-.27.4-.27.67v.67c0 .93.8 1.73 1.73 1.73h2c.93 0 1.73-.8 1.73-1.73v-.67c0-.93-.8-1.73-1.73-1.73h-1.07c-3.2 0-6.13-1.87-7.33-4.93l-.27-.4h-.4c-.67 0-1.33-.4-1.33-1.33V6.67c0-.93.4-1.33 1.33-1.33V4c-1.73 0-2.67.93-2.67 2.67V8c0 1.33.93 2.4 2.27 2.67zM16.93 16q.4 0 .4.4v.67q0 .4-.4.4h-2q-.4 0-.4-.4v-.67q0-.4.4-.4z"/>
</svg>
