<svg viewBox="0 0 32 32" xmlns="http://www.w3.org/2000/svg">
  <path d="M30.67 1.33H1.33v18.8c-.8.8-1.33 2-1.33 3.2V32h1.33v-8.67A3.3 3.3 0 0 1 4.67 20h7.6c.93 0 1.73-.4 2.4-.93L21.73 12a1.29 1.29 0 0 1 1.87 0c.27.13.4.53.4.93s-.13.67-.4.93l-8.53 8.53c-1.2 1.07-1.73 2.67-1.73 4.27v5.33h1.33v-5.47c0-.4.13-.8.13-1.2h15.87v-24zM29.33 24H15.47c.13-.27.4-.53.53-.67l8.53-8.53c.53-.53.8-1.2.8-1.87s-.27-1.33-.8-1.87l3.87-3.87-.93-.93-4.13 4.13c-.93-.27-1.87 0-2.67.67l-7.07 7.07c-.27.27-.8.53-1.33.53h-7.6c-.67 0-1.33.13-2 .53V2.67h26.67V24zM10 17.33c2.53 0 4.67-2.13 4.67-4.67S12.53 8 10 8s-4.67 2.13-4.67 4.67 2.14 4.66 4.67 4.66m0-8c1.87 0 3.33 1.47 3.33 3.33S11.87 16 10 16s-3.33-1.47-3.33-3.33A3.3 3.3 0 0 1 10 9.33M4 24.67h1.33V32H4z"/>
</svg>
