<svg viewBox="0 0 32 32" xmlns="http://www.w3.org/2000/svg">
  <path d="m30.7 19.4-5.7-.8-2.6-5.2-2.6 5.2-5.7.8 4.1 4-1 5.7 5.1-2.7 5.1 2.7-1-5.7zM23 25.2l-.6-.3-.6.3-2.8 1.5.5-3 .1-.7-.5-.5-2.2-2.2 3.1-.4.7-.1.3-.6 1.4-2.8 1.4 2.8.3.6.7.1 3.1.4-2.2 2.2-.5.5.1.7.5 3zM17.3 10c0-4-3.3-7.3-7.3-7.3S2.7 6 2.7 10c0 1.3.3 2.6 1 3.7l6.3 11 6.3-11c.7-1.1 1-2.4 1-3.7m-2.1 3L10 22l-5.2-9c-.5-.9-.8-2-.8-3 0-3.3 2.7-6 6-6s6 2.7 6 6c0 1.1-.3 2.1-.8 3M10 7.3c-1.5 0-2.7 1.2-2.7 2.7s1.2 2.7 2.7 2.7 2.7-1.2 2.7-2.7-1.2-2.7-2.7-2.7m0 4c-.7 0-1.3-.6-1.3-1.3s.6-1.3 1.3-1.3 1.3.6 1.3 1.3-.6 1.3-1.3 1.3"/>
</svg>
