<svg viewBox="0 0 32 32" xmlns="http://www.w3.org/2000/svg">
  <path d="M16 13.3H6.7V12H16zm-9.3 1.4V16h6.6v-1.3zm0 4H16v-1.3H6.7zM28 16h1.3v4.7c0 1.1-.9 2-2 2H20v5.4h5.3v1.3H6.7v-1.3H12v-5.4H4.6c-1.1 0-2-.9-2-2V5.9c0-1.1.9-2 2-2H20v1.3H4.6c-.3.1-.6.4-.6.7v14.8c0 .3.3.6.6.6h22.7c.3 0 .6-.3.6-.6V16zm-9.3 6.7h-5.4v5.4h5.4zM32 4.2v7.1c0 1.9-2.4 3.5-5.3 3.5s-5.2-1.5-5.3-3.4V3.8C21.6 2 23.9.6 26.7.6s5 1.4 5.3 3.2zq0-.15 0 0m-9.3-.1c0 1 1.7 2.1 4 2.1 2.1 0 3.7-1 3.9-1.9v-.4C30.4 3 28.8 2 26.7 2c-2.3 0-4 1.1-4 2.1m0 2.4c0 1 1.7 2.1 4 2.1 2.1 0 3.7-1 3.9-1.9v-.3c-1 .7-2.4 1.2-3.9 1.2-1.6 0-3-.5-4-1.1m0 2.3c0 1 1.7 2.1 4 2.1 2.1 0 3.7-1 3.9-1.9v-.2c-1 .7-2.4 1.2-3.9 1.2-1.6-.1-3-.5-4-1.2m8 2.5v-.1c-1 .7-2.4 1.2-3.9 1.2-1.6 0-3-.5-4-1.2v.1c0 1 1.7 2.1 4 2.1 2.1-.1 3.8-1.1 3.9-2.1"/>
</svg>
