<svg viewBox="0 0 32 32" xmlns="http://www.w3.org/2000/svg">
  <path d="m25.9 8-6.2-5.9c-.5-.5-1.2-.7-1.9-.7H8c-.7 0-1.4.3-1.9.8-.5.4-.8 1.1-.8 1.8v25.3C5.3 30.8 6.5 32 8 32h16c1.5 0 2.7-1.2 2.7-2.7V10c0-.8-.3-1.5-.8-2m-.5 21.3c0 .7-.6 1.4-1.4 1.4H8c-.7 0-1.4-.6-1.4-1.4L6.7 4c0-.4.1-.7.4-1s.6-.4 1-.4h9.8c.4 0 .7.1.9.4L25 9c.3.3.4.6.4 1zm-5-14.6h-8.8c-1.3 0-2.3 1-2.3 2.3v8.8c0 1.2 1 2.3 2.3 2.3h8.8c1.3 0 2.3-1 2.3-2.3V17c0-1.3-1.1-2.3-2.3-2.3m.9 2.2v1.7h-2.7V16h1.7c.6 0 1 .4 1 .9M18.7 20h2.7v2.6h-2.7zm-7.1-4h5.7v10.7h-2.6v-8h-4V17c0-.6.4-1 .9-1m1.7 6.6h-2.7V20h2.7zm-2.6 3.2V24h2.7v2.7h-1.7c-.6 0-1-.4-1-.9m9.7.9h-1.7V24h2.7v1.8c-.1.5-.5.9-1 .9"/>
</svg>
