<svg viewBox="0 0 32 32" xmlns="http://www.w3.org/2000/svg">
  <path d="M26.7 17.3c0-1.5-1.2-2.7-2.7-2.7-.6 0-1.1.2-1.5.5-.4-1-1.3-1.8-2.5-1.8-.5 0-1.1.2-1.5.4-.3-1.1-1.3-1.9-2.5-1.9-.5 0-1 .1-1.4.4v-1.8c5.1-.8 8.5-3.8 8.7-4l.7-.5-6-4.2c-.8-.5-2.5-.5-3.4-.1l-.7.4c-.5-.5-1.1-.7-1.9-.7-.7 0-1.4.3-1.9.7l-.7-.4c-.9-.4-2.6-.3-3.4.2L0 5.9l.6.6c.2.1 3.6 3.1 8.7 4v2.6c-.8-.7-1.9-1.1-2.8-1.1H5.3v12c.2 2.8.9 3.5 3.5 6.1l2 2 1-.9-2-2c-2.6-2.6-3-2.9-3.1-5.2V13.4c1.2.1 2.7 1.1 2.7 2.3V23h1.3V4c0-.7.6-1.2 1.3-1.2s1.3.5 1.3 1.2v18.8c0 1.5 1.2 2.7 2.7 2.7.8 0 1.5-.4 2-.9.5.6 1.2.9 2 .9s1.5-.4 2-.9c.5.6 1.2.9 2 .9.5 0 .9-.1 1.3-.4v.3c0 4.4-2.2 5.6-2.3 5.6h-.1l1 1c.7-.4 2.8-2.1 2.8-6.7zM6.7 2.9c1.1-.8 2.8.3 2.8.3-.1.2-.2.5-.2.7v1.4H3.2zM3.1 6.6h6.2V9c-2.6-.4-4.8-1.5-6.2-2.4m11.6 0h6.2c-1.4.9-3.5 2-6.2 2.4zm2.6-3.7 3.5 2.4h-6.1V3.9c0-.2 0-.5-.1-.7 0 0 1.1-1.2 2.7-.3m.1 19.8c0 .7-.6 1.3-1.3 1.3s-1.3-.6-1.3-1.3v-8.1c0-.7.6-1.3 1.3-1.3s1.3.6 1.3 1.3zm4 0c0 .7-.6 1.3-1.3 1.3s-1.3-.6-1.3-1.3V16c0-.7.6-1.3 1.3-1.3s1.3.6 1.3 1.3zM24 24c-.7 0-1.3-.6-1.3-1.3v-5.4c0-.7.6-1.3 1.3-1.3s1.3.6 1.3 1.3v5.6c-.1.6-.6 1.1-1.3 1.1"/>
</svg>
