<svg viewBox="0 0 32 32" xmlns="http://www.w3.org/2000/svg">
  <rect/>
  <path d="M10.9 10h10.2l-2.6-4.7h-10zm7.9-1.4h-7.1l-1-2h7zm10.5 16.7c-.3 0-2-.1-2-2.3 0-1.9 1.1-2.3 1.9-2.3h.3s.1 0 .1-.1c.1-.1.2-.2.2-.3v-.2c0-.1 0-.2-.1-.3L21.1 2.6H4.7c-1.8 0-3.3 2.2-3.3 4 0 1.5 6 14.3 7.8 18.2.6 1.1 1.6 1.8 2.8 1.8v4l3.3-2.5 3.3 2.5v-4h10.8c.3 0 .6-.3.6-.7 0-.3-.3-.6-.7-.6m-1.1-6H12.8L5.7 4h14.6zM4.3 4l7.1 15.4c-1 .2-1.9 1-2.4 2C6.2 15.3 2.7 7.6 2.7 6.6S3.4 4.4 4.3 4m13 24-2-1.5-2 1.5v-4h4zm1.4-2.7V24H24v-1.3H12v2.6c-1.1 0-2-1-2-2.3s.9-2.3 2-2.3h14.7c-.5.6-.7 1.3-.7 2.3 0 .9.2 1.7.7 2.3z"/>
</svg>
