<svg viewBox="0 0 32 32" xmlns="http://www.w3.org/2000/svg">
  <rect/>
  <path d="M21.1 29.3c3.1-1.7 5.5-5.1 5.5-10.1 0-3.6-1.1-6.8-3.1-9.9 0 3.7-2.2 5.3-3.7 5.3C21.3 3.7 13.4 1 13.4 1c0 8-8.5 9.3-8.5 19 0 1.5 1 6.8 5.5 9.3H1.3v1.3h29.3v-1.3zm-5.6-.3c-1.7 0-3.5-1.2-3.5-3.9 0-.3 0-.6.1-1 .5.4 1 .5 1.6.5H15v-1.3c0-1.7.5-2.8 1-3.6.4.9 1.1 1.5 1.6 2.1 1 1 1.7 1.8 1.7 3.6 0 .1-.2 3.6-3.8 3.6m1.2-11.7s-3.1 1.4-3.1 6.1c-1.2 0-1.5-1.4-1.5-2.8-.9 1.4-1.4 2.9-1.4 4.5 0 1.4.4 2.5 1.1 3.3-5-2.3-5.4-8.4-5.4-8.5 0-4.6 2-7 4.2-9.6 1.7-2.1 3.5-4.2 4.1-7.3 1.9 1.4 4.9 4.6 3.9 11.3l-.3 1.7h1.5c1.4 0 3.2-.9 4.2-2.9.9 2 1.3 4 1.3 6.2 0 5-2.7 8.2-6 9.5 1-1.2 1.3-2.7 1.3-3.2 0-4.5-3.9-4.6-3.9-8.3"/>
</svg>
