<svg viewBox="0 0 32 32" xmlns="http://www.w3.org/2000/svg">
  <rect/>
  <path d="M22 15.7c1.7-.6 2.9-1.5 3.8-2.5.9-1.1 1.3-2.5 1.3-4.4 0-1.3-.2-2.4-.7-3.3s-1.1-1.7-2-2.3-1.9-1.1-3-1.4c-1.2-.3-2.4-.5-3.8-.5H4.1v29.3h12.4c1.3 0 2.7-.1 4-.3 1.4-.2 2.6-.7 3.7-1.3s2-1.5 2.7-2.6 1.1-2.5 1.1-4.3c-.1-3.4-2.1-5.6-6-6.4M11.9 6.9h2.3c.6 0 1.3 0 1.9.1s1.2.2 1.6.4q.75.3 1.2.9c.3.4.4.9.4 1.6 0 .6-.2 1.1-.5 1.5q-.45.6-1.2.9c-.5.2-1 .4-1.7.5-.6.1-1.2.1-1.9.1h-2.2v-6zm7.7 16.6c-.3.4-.8.8-1.3 1-.6.2-1.2.4-1.9.5s-1.4.1-2.1.1H12v-6.9h2.4c.7 0 1.4 0 2 .1.7.1 1.3.2 1.8.4s1 .6 1.3 1.1c.4.5.5 1.1.5 1.9.1.8-.1 1.4-.4 1.8"/>
</svg>
