<svg viewBox="0 0 32 32" xmlns="http://www.w3.org/2000/svg">
  <path d="M23.4 6.9c.5.9.5 3.9.3 5.9v.9s.3.3.8.3c.4 0 .9-.1 1.4-.4.2-.1.3-.1.4-.1.2 0 .4 0 .5.1.4.2.7.4.7.8 0 .3-.2.7-1.3 1.2-.1 0-.3.1-.4.1-.6.2-1.6.5-1.9 1.2-.2.4-.1.8.2 1.4.1.2 2 4.5 6.2 5.2.2 0 .3.2.3.3v.2c-.2.4-1 1-3.7 1.4-.2 0-.3.3-.4.9 0 .2-.1.4-.2.7-.1.2-.2.3-.4.3-.1 0-.4 0-.6-.1-.5-.1-1-.2-1.6-.2-.4 0-.8 0-1.2.1-.8.1-1.5.6-2.3 1.2-1.1.8-2.2 1.5-3.9 1.5H16c-1.7 0-2.8-.8-3.9-1.5-.7-.5-1.4-1-2.3-1.2-.4-.1-.8-.1-1.2-.1-.7 0-1.2.1-1.6.2-.2 0-.5.1-.6.1-.2 0-.3 0-.4-.3-.1-.2-.1-.5-.2-.7-.1-.6-.2-.9-.4-.9-2.7-.4-3.5-1-3.7-1.4v-.2q0-.3.3-.3c4.2-.7 6.1-5 6.2-5.2.3-.5.3-1 .2-1.4-.3-.7-1.2-1-1.9-1.2-.2 0-.3-.1-.4-.1-1.2-.5-1.4-1-1.3-1.3.1-.4.7-.7 1.1-.7.1 0 .2 0 .3.1.6.3 1.1.4 1.5.4.6 0 .9-.3.9-.3 0-.3 0-.6-.1-.9-.1-2-.3-4.5.3-5.9 2.8-5.8 11-6.6 14.6-.1M16.3 1h-.6c-1.4 0-6.1.4-8.3 5.4-.7 1.6-.6 4.1-.5 6.2-.1 0-.3-.1-.4-.2-.3-.1-.6-.2-.9-.2-1 0-2.2.7-2.5 1.8-.1.7 0 1.9 2.1 2.7.1.1.3.1.5.2s.8.3 1 .4c0 0 0 .1-.1.2 0 0-1.7 3.8-5.2 4.4-.8.1-1.4.9-1.4 1.7 0 .2.1.4.1.6.4 1 1.7 2.3 4.1 2.7.1.2.1.5.2.8.2.8.9 1.3 1.7 1.3.3 0 .6-.1.9-.1.4-.1.8-.2 1.4-.2.3 0 .6 0 1 .1.5.1 1.1.5 1.7.9 1.1.8 2.5 1.8 4.7 1.8h.4c2.2 0 3.6-1 4.7-1.8.6-.5 1.2-.8 1.7-.9.3-.1.7-.1 1-.1.5 0 .9.1 1.4.2.4.1.6.1.9.1.8 0 1.5-.5 1.7-1.3.1-.3.1-.5.2-.8 2.4-.4 3.6-1.1 4.1-2.1.1-.2.1-.4.1-.6 0-.8-.5-2.2-1.4-2.3-3.5-.6-5.2-4.4-5.2-4.4-.1-.1-.1-.2-.1-.2.2-.2.8-.4 1-.4.2-.1.4-.1.5-.2C28.6 16 29 15 29 14.3c0-.9-.6-1.7-1.6-2-.3-.1-.6-.2-1-.2-.3 0-.6 0-1 .2-.1 0-.2.1-.3.1.1-2.1.2-4.5-.5-6.1-2.2-5-6.9-5.3-8.3-5.3"/>
</svg>
