<svg viewBox="0 0 32 32" xmlns="http://www.w3.org/2000/svg">
  <path d="M14.1 14.3c.7 0 1.4-.1 2.1-.2s1.4-.3 2-.6c.7-.3 1.3-.8 1.7-1.4.5-.6.7-1.4.7-2.3 0-1-.2-1.8-.7-2.4-.4-.6-1-1-1.7-1.3-.6-.2-1.3-.4-2-.5s-1.3-.1-2-.1h-3.6v8.8zm-2.2-7.4h2.3c.6 0 1.3 0 1.9.1s1.2.2 1.6.4q.75.3 1.2.9c.3.4.4.9.4 1.6 0 .6-.2 1.1-.5 1.5s-.7.7-1.2.9-1 .4-1.7.5c-.6.1-1.2.1-1.9.1h-2.2zM22 15.7c1.7-.6 2.9-1.5 3.8-2.5.9-1.1 1.3-2.5 1.3-4.4 0-1.3-.2-2.4-.7-3.3s-1.1-1.7-2-2.3-1.9-1.1-3-1.4c-1.2-.3-2.4-.5-3.8-.5H4.1v29.3h12.4c1.3 0 2.7-.1 4-.3 1.4-.2 2.6-.7 3.7-1.3s2-1.5 2.7-2.6 1.1-2.5 1.1-4.3c-.1-3.4-2.1-5.6-6-6.4m3.7 10c-.6.9-1.3 1.6-2.2 2.1s-2 .9-3.2 1.1c-1.3.2-2.6.3-3.8.3h-11V2.7h12.2c1.3 0 2.4.1 3.5.4 1 .3 1.9.7 2.6 1.2s1.2 1.1 1.6 1.8.6 1.7.6 2.7c0 1.5-.3 2.7-1 3.5-.7.9-1.8 1.6-3.2 2l-.9.3v2.2l1.1.2c4.4.9 4.9 3.4 4.9 5.2-.3 1.5-.6 2.7-1.2 3.5m-7-8.2c-.7-.3-1.4-.5-2.2-.5-.7-.1-5.9-.1-5.9-.1v9.5h3.6c.7 0 1.5 0 2.2-.1.8-.1 1.6-.3 2.3-.6.8-.3 1.4-.8 1.9-1.5s.8-1.6.8-2.6c0-1.1-.3-2-.8-2.7-.5-.5-1.1-1-1.9-1.4m.9 6c-.3.4-.8.8-1.3 1-.6.2-1.2.4-1.9.5s-1.4.1-2.1.1H12v-6.9s3.8 0 4.4.1c.7.1 1.3.2 1.8.4s1 .6 1.3 1.1c.4.5.5 1.1.5 1.9.1.8-.1 1.4-.4 1.8"/>
</svg>
