<?xml version="1.0" encoding="UTF-8"?>
<svg id="a" data-name="3219" xmlns="http://www.w3.org/2000/svg" viewBox="0 0 64 64">
  <path d="M32,0C14.36,0,0,14.35,0,32s14.36,32,32,32,32-14.36,32-32S49.64,0,32,0ZM33.38,61.21v-16.72c0-.76-.62-1.38-1.38-1.38s-1.38.62-1.38,1.38v16.72c-15.03-.7-27.14-12.8-27.84-27.84h16.72c.76,0,1.38-.62,1.38-1.38s-.62-1.38-1.38-1.38H2.79C3.49,15.59,15.59,3.48,30.62,2.78v16.72c0,.76.62,1.38,1.38,1.38s1.38-.62,1.38-1.38V2.78c15.03.7,27.14,12.8,27.84,27.84h-16.72c-.76,0-1.38.62-1.38,1.38s.62,1.38,1.38,1.38h16.72c-.7,15.03-12.8,27.14-27.84,27.84Z" fill="#1e1e1c"/>
</svg>