<?xml version="1.0" encoding="UTF-8"?>
<svg id="a" data-name="3219" xmlns="http://www.w3.org/2000/svg" viewBox="0 0 16 16">
  <path d="M8,0C3.59,0,0,3.59,0,8s3.59,8,8,8,8-3.59,8-8S12.41,0,8,0ZM9.25,13.34v-2.09c0-.69-.56-1.25-1.25-1.25s-1.25.56-1.25,1.25v2.09c-2.02-.47-3.62-2.07-4.09-4.09h2.09c.69,0,1.25-.56,1.25-1.25s-.56-1.25-1.25-1.25h-2.09c.47-2.02,2.07-3.62,4.09-4.09v2.09c0,.69.56,1.25,1.25,1.25s1.25-.56,1.25-1.25v-2.09c2.02.47,3.62,2.07,4.09,4.09h-2.09c-.69,0-1.25.56-1.25,1.25s.56,1.25,1.25,1.25h2.09c-.47,2.02-2.07,3.62-4.09,4.09Z" fill="#1e1e1c"/>
</svg>