<?xml version="1.0" encoding="UTF-8"?>
<svg id="a" data-name="3219" xmlns="http://www.w3.org/2000/svg" viewBox="0 0 24 24">
  <rect y="-.02" width="24" height="24" fill="none"/>
  <path d="M22.63,12.15h-.64v-.8c0-.74-.32-1.41-.82-1.89,1.67-.81,2.83-2.51,2.83-4.48C24,2.22,21.75-.02,19-.02s-5,2.24-5,5c0,.13.03.26.04.39h-1.32c-.64-.85-1.64-1.4-2.78-1.4s-2.14.56-2.78,1.4H2.37C1.09,5.37.05,6.39,0,7.66H0v.07s0,0,0,0v2.74h0v.87s0,0,0,0v10c0,1.45,1.18,2.63,2.62,2.63h16.74c1.45,0,2.62-1.18,2.62-2.63v-.7h.64c.76,0,1.37-.62,1.37-1.38v-5.75c0-.76-.62-1.38-1.37-1.38ZM19,1.73c1.79,0,3.25,1.46,3.25,3.25s-1.46,3.25-3.25,3.25-3.25-1.46-3.25-3.25,1.46-3.25,3.25-3.25ZM14.46,7.05c.31.68.78,1.27,1.35,1.75h-2.64c.17-.41.27-.86.27-1.33,0-.14-.03-.28-.04-.42h1.07ZM9.93,5.72c.96,0,1.75.79,1.75,1.75s-.79,1.75-1.75,1.75-1.75-.79-1.75-1.75.79-1.75,1.75-1.75ZM1.85,7.92c0-.48.39-.88.87-.88h3.74c-.02.14-.04.27-.04.42,0,.47.1.92.27,1.33h-3.97c-.48,0-.87-.39-.87-.88ZM22.25,18.9h-6.25v-5h6.25v5ZM17.21,16.4c0-.67.55-1.22,1.22-1.22s1.22.55,1.22,1.22-.55,1.22-1.22,1.22-1.22-.55-1.22-1.22Z" fill="#1e1e1c"/>
</svg>