<?xml version="1.0" encoding="UTF-8"?>
<svg id="a" data-name="3219" xmlns="http://www.w3.org/2000/svg" viewBox="0 0 16 16">
  <rect width="16" height="16" fill="none"/>
  <path d="M14.74,7.77h-.25v-.03c0-.43-.13-.83-.34-1.17,1.1-.59,1.85-1.74,1.85-3.07C16.01,1.57,14.44,0,12.51,0s-3.34,1.44-3.47,3.25h-.91c-.42-.79-1.24-1.34-2.2-1.34s-1.78.55-2.2,1.34h-1.48C1.15,3.25.23,4.06.05,5.12H0v8.63c0,1.24,1.01,2.25,2.25,2.25h9.99c1.23,0,2.23-.99,2.24-2.22h.25c.69,0,1.25-.56,1.25-1.25v-3.5c0-.69-.56-1.25-1.25-1.25ZM14.49,12.28h-4.5v-3h4.5v3ZM12.51,1.5c1.1,0,2,.9,2,2s-.9,2-2,2-2-.9-2-2,.9-2,2-2ZM10.09,6.02h-2.27c.35-.41.57-.93.59-1.5h.77c.18.58.49,1.09.91,1.5ZM5.93,3.41c.55,0,1,.45,1,1s-.45,1-1,1-1-.45-1-1,.45-1,1-1ZM1.6,5.27c0-.41.34-.75.75-.75h1.09c.03.57.25,1.09.59,1.5h-1.69c-.41,0-.75-.34-.75-.75ZM10.8,10.77c0-.54.44-.98.98-.98s.98.44.98.98-.44.98-.98.98-.98-.44-.98-.98Z" fill="#1e1e1c"/>
</svg>