<?xml version="1.0" encoding="UTF-8"?>
<svg id="a" data-name="3219" xmlns="http://www.w3.org/2000/svg" viewBox="0 0 40 40">
  <path d="M38.36,21.54h-1.36v-3.43c0-1.21-.65-2.27-1.61-2.86,2.72-1.28,4.61-4.04,4.61-7.24C40,3.6,36.41,0,32,0s-8,3.59-8,8.01c0,.47.05.92.13,1.37h-3.09c-1.01-1.28-2.57-2.11-4.32-2.11s-3.32.83-4.32,2.11H3.37C1.51,9.38,0,10.89,0,12.76v4.48h0S0,18.08,0,18.08c0,0,0,.02,0,.03v18.51c0,1.86,1.51,3.38,3.37,3.38h30.25c1.86,0,3.37-1.51,3.37-3.38v-2.83h1.36c.9,0,1.62-.73,1.62-1.63v-9.01c0-.9-.73-1.63-1.62-1.63ZM32,2.26c3.17,0,5.75,2.58,5.75,5.75s-2.58,5.75-5.75,5.75-5.75-2.58-5.75-5.75,2.58-5.75,5.75-5.75ZM24.87,11.63c.65,1.27,1.62,2.34,2.8,3.11h-5.85c.24-.61.38-1.27.38-1.97,0-.39-.04-.77-.12-1.14h2.79ZM16.71,9.52c1.79,0,3.25,1.46,3.25,3.25,0,.74-.25,1.42-.68,1.97h-5.15c-.42-.54-.68-1.22-.68-1.97,0-1.79,1.46-3.25,3.25-3.25ZM3.37,11.63h7.96c-.08.37-.12.75-.12,1.14,0,.7.14,1.35.38,1.97H3.37c-.39,0-.76.08-1.11.2v-1.85h-.01v-.34c0-.62.5-1.13,1.12-1.13ZM34.75,36.63c0,.62-.5,1.13-1.12,1.13H3.37c-.62,0-1.12-.51-1.12-1.13v-16.3h.01v-2.26c.03-.6.51-1.07,1.11-1.07h30.25c.62,0,1.12.51,1.12,1.13v3.43h-6.64c-.9,0-1.62.73-1.62,1.63v9.01c0,.9.73,1.63,1.62,1.63h6.64v2.83ZM37.74,31.55h-9v-7.76h9v7.76ZM30.37,27.67c0-.94.76-1.71,1.7-1.71s1.71.77,1.71,1.71-.77,1.71-1.71,1.71-1.7-.77-1.7-1.71Z" fill="#1e1e1c"/>
</svg>