<?xml version="1.0" encoding="UTF-8"?>
<svg id="a" data-name="3219" xmlns="http://www.w3.org/2000/svg" viewBox="0 0 48 48">
  <path d="M46.3,26.45h-1.48v-4.8c0-1.61-1.02-2.97-2.44-3.5,3.28-1.5,5.57-4.8,5.57-8.64C47.94,4.26,43.69,0,38.46,0s-9.48,4.26-9.48,9.5c0,.68.07,1.34.21,1.97h-3.92c-1.18-1.6-3.07-2.64-5.21-2.64s-4.03,1.04-5.21,2.64H3.79C1.72,11.47.04,13.15.04,15.22v29.03c0,2.07,1.68,3.75,3.74,3.75h37.28c2.06,0,3.74-1.68,3.74-3.75v-4.3h1.48c.96,0,1.75-.79,1.75-1.75v-10c0-.96-.78-1.75-1.75-1.75ZM38.46,2.5c3.85,0,6.99,3.14,6.99,7s-3.13,7-6.99,7-6.99-3.14-6.99-7,3.13-7,6.99-7ZM30.47,14.58c.77,1.22,1.81,2.24,3.04,3h-7.37c.26-.7.41-1.46.41-2.26,0-.25-.02-.5-.05-.74h3.97ZM20.06,11.33c2.2,0,3.99,1.79,3.99,4s-1.79,4-3.99,4-3.99-1.79-3.99-4,1.79-4,3.99-4ZM2.54,16.08c0-.83.67-1.5,1.5-1.5h9.58c-.03.24-.05.49-.05.74,0,.79.15,1.55.41,2.26H4.04c-.83,0-1.5-.67-1.5-1.5ZM45.55,37.45h-10.98v-8.5h10.98v8.5ZM36.73,33.2c0-1.07.87-1.95,1.94-1.95s1.94.87,1.94,1.95-.87,1.95-1.94,1.95-1.94-.87-1.94-1.95Z" fill="#1e1e1c"/>
</svg>