<svg viewBox="0 0 32 32" xmlns="http://www.w3.org/2000/svg">
  <path d="M17.33 18.67h4V20h-4zM16 14c2.93 0 5.33-2.4 5.33-5.33V7.33H24V6h-2.67c0-2.53-2.13-4.67-4.67-4.67h-1.33c-2.53 0-4.67 2.13-4.67 4.67v2.67c0 2.93 2.4 5.33 5.33 5.33zm-.67-11.33h1.33A3.3 3.3 0 0 1 20 6h-8a3.3 3.3 0 0 1 3.33-3.33M12 7.33h8v1.33c0 2.27-1.73 4-4 4s-4-1.73-4-4zM22 16H10c-3.33 0-6 2.67-6 6v10h1.33V22c0-2.53 2.13-4.67 4.67-4.67h12c2.53 0 4.67 2.13 4.67 4.67v10H28V22c0-3.33-2.67-6-6-6M9.33 22.67h1.33V32H9.33zm12 0h1.33V32h-1.33z"/>
</svg>
