<svg viewBox="0 0 32 32" xmlns="http://www.w3.org/2000/svg">
  <path d="M16 22.67c-1.47 0-2.67 1.2-2.67 2.67s1.2 2.67 2.67 2.67 2.67-1.2 2.67-2.67-1.2-2.67-2.67-2.67m0 4c-.8 0-1.33-.53-1.33-1.33S15.2 24 16 24s1.33.53 1.33 1.33-.53 1.34-1.33 1.34M16 4c5.73 0 11.07 2.27 15.07 6.27l.93-.94c-4.27-4.27-10-6.67-16-6.67q-5.4 0-10 2.4L.93 0 0 .93l4.8 4.8A20.6 20.6 0 0 0 0 9.33l.93.93a20.6 20.6 0 0 1 4.8-3.6l6 6c-1.87.67-3.73 1.73-5.2 3.2l.93.93a11.94 11.94 0 0 1 5.33-3.07l14 14 .93-.93-13.33-13.33c.53-.13 1.07-.13 1.6-.13 3.2 0 6.27 1.2 8.53 3.47l.93-.93C22.93 13.33 19.6 12 16 12c-.93 0-1.87.13-2.8.27L6.93 6C9.73 4.67 12.8 4 16 4"/>
</svg>
