<svg viewBox="0 0 32 32" xmlns="http://www.w3.org/2000/svg">
  <path d="M26.667 26.667h-14.8l-1.067-4h16.8L31.467 8h-24.8L4 5.467c-.4-.533-1.067-.8-1.6-.8-1.333 0-2.4 1.067-2.4 2.267s1.067 2.4 2.4 2.4c1.067 0 1.867-.667 2.133-1.6l1.333 1.333 4.8 17.733c-1.067.267-1.867 1.333-1.867 2.533 0 1.467 1.2 2.667 2.667 2.667s2.667-1.2 2.667-2.667a2.25 2.25 0 0 0-.4-1.333h10.8c-.267.4-.4.8-.4 1.333 0 1.467 1.2 2.667 2.667 2.667s2.667-1.2 2.667-2.667-1.333-2.667-2.8-2.667zM9.067 16h5.6v5.333h-4.133zM16 14.667V9.334h5.333v5.333zM21.333 16v5.333H16V16zm-6.666-1.333h-6L7.334 9.334h7.333zm12 6.666h-4V16h5.467zm1.733-6.666h-5.733V9.334h7.2zM2.4 8c-.667 0-1.067-.4-1.067-1.067s.4-1.067 1.067-1.067 1.067.4 1.067 1.067S2.934 8 2.4 8m8.933 22.667c-.8 0-1.333-.533-1.333-1.333s.533-1.333 1.333-1.333 1.333.533 1.333 1.333-.533 1.333-1.333 1.333m15.334 0c-.8 0-1.333-.533-1.333-1.333s.533-1.333 1.333-1.333S28 28.534 28 29.334s-.533 1.333-1.333 1.333"/>
</svg>
