<svg viewBox="0 0 32 32" xmlns="http://www.w3.org/2000/svg">
  <path d="M24.133 14.667c-3.733 0-6.533-2.8-6.533-6.667s2.8-6.667 6.533-6.667c3.333 0 6.4 1.867 6.4 5.333 0 2.533-1.6 4.8-3.2 4.8-.4 0-.533-.267-.533-.533s.133-.667.267-1.067l1.867-6h-1.333l-.4 1.333c-.533-1.2-1.467-1.733-2.4-1.733-3.067 0-5.067 3.067-5.067 6 0 1.867 1.2 3.333 2.933 3.333 1.467 0 2.133-.667 2.667-1.333.133.933.8 1.333 1.733 1.333C28.8 12.799 32 10.532 32 6.666c0-4.4-4-6.667-7.867-6.667-5.333 0-8 4-8 8 0 1.333.267 2.8.933 4h-11.6l-2-2c-.4-.4-.933-.667-1.467-.667-1.067 0-2 .933-2 2s.933 2 2 2c.8 0 1.467-.533 1.733-1.2l.8.8 3.733 13.867c-.933.4-1.6 1.467-1.6 2.533 0 1.467 1.2 2.667 2.667 2.667s2.667-1.2 2.667-2.667a2.25 2.25 0 0 0-.4-1.333h8.133c-.267.4-.4.8-.4 1.333 0 1.467 1.2 2.667 2.667 2.667s2.667-1.2 2.667-2.667-1.2-2.667-2.667-2.667h-12.4l-.667-2.667h13.067l2.133-8c3.2 0 5.867-1.467 7.2-3.733h-1.333c-1.2 1.467-3.333 2.4-5.867 2.4zm-1.333-3.2c-.933 0-1.6-.8-1.6-2.133 0-2.667 2-4.533 3.467-4.533.8 0 1.733.4 1.733 2 0 1.733-1.467 4.667-3.6 4.667zm0 4.4-.4 1.467h-3.733v-3.333c1.067.933 2.4 1.6 4.133 1.867zM6.133 13.333h4.533v4H7.199l-1.067-4zm5.867 0h5.333v4H12zM2 12c-.4 0-.667-.267-.667-.667s.267-.667.667-.667.667.267.667.667S2.4 12 2 12m8.667 17.333c0 .8-.533 1.333-1.333 1.333s-1.333-.533-1.333-1.333S8.534 28 9.334 28s1.333.533 1.333 1.333m12.666 0c0 .8-.533 1.333-1.333 1.333s-1.333-.533-1.333-1.333S21.2 28 22 28s1.333.533 1.333 1.333m-14.8-6.666-1.067-4h3.2v4zm3.467 0v-4h5.333v4zm8.933 0h-2.267v-4h3.333z"/>
</svg>
