<svg viewBox="0 0 32 32" xmlns="http://www.w3.org/2000/svg">
  <path d="M4 4h5.33V2.67H2.67v26.67h6.67v-1.33H4zm18.67-1.33V4H28v24h-5.33v1.33h6.67V2.67zm-8 18.66h-1.33v1.33h2.67v-2.67h-1.33zm-1.34-2.66h1.33v-1.33h-2.67v2.67h1.33zm-4 0V20h1.33v-2.67H9.33zm0 2.66v1.33H12v-1.33h-1.33zM18.67 16v-1.33h-1.33v2.67h1.33zm0-5.33V9.33h-1.33V12h1.33zM20 13.33h2.67V12h-4v1.33zm2.67-2.66V9.33H20v1.33h1.33zm-2.67 4v2.67h1.33v-1.33h1.33v-1.33h-1.33zM18.67 20v-1.33h-1.33v-1.33h-1.33v2.67h1.33zm-1.34 1.33v1.33H20v-1.33h-1.33zm4 1.34h1.33v-4h-2.67V20h1.33v1.33zm-5.33-8V9.33H9.33V16H16zm-1.33 0h-4v-4h4zM12 12h1.33v1.33H12z"/>
</svg>
