<svg viewBox="0 0 32 32" xmlns="http://www.w3.org/2000/svg">
  <rect/>
  <path d="M28.6 0H3.3C1.5 0 0 1.5 0 3.3V18c0 1.9 1.5 3.3 3.3 3.3h3.4V32l10.2-10.7h11.8c1.8 0 3.3-1.4 3.3-3.3V3.3C32 1.5 30.5 0 28.6 0m2.1 18c0 1.1-.8 2-2 2H16.3l-.4.4L8 28.7V20H3.3c-1.1 0-2-.8-2-2V3.3c0-1.1.9-2 2-2h25.3c1.1 0 2.1.9 2.1 2zM9.2 8c-1.4 0-2.6 1.1-2.6 2.6s1.2 2.7 2.6 2.7c1.5 0 2.6-1.3 2.6-2.7S10.6 8 9.2 8m0 4c-.6 0-1.2-.7-1.2-1.4 0-.8.6-1.3 1.3-1.3s1.3.6 1.3 1.3c-.1.7-.6 1.4-1.4 1.4m6.5-3.9c-1.4 0-2.6 1.2-2.6 2.6s1.1 2.6 2.6 2.6 2.7-1.2 2.7-2.6-1.2-2.6-2.7-2.6m0 3.9c-.8 0-1.3-.6-1.3-1.3s.6-1.3 1.3-1.3 1.4.6 1.4 1.3-.6 1.3-1.4 1.3m6.5-3.9c-1.5 0-2.7 1.2-2.7 2.6s1.2 2.6 2.7 2.6c1.4 0 2.7-1.2 2.7-2.6s-1.2-2.6-2.7-2.6m0 3.9c-.7 0-1.4-.6-1.4-1.3s.6-1.3 1.4-1.3 1.4.6 1.4 1.3c0 .6-.7 1.3-1.4 1.3"/>
</svg>
