<svg viewBox="0 0 32 32" xmlns="http://www.w3.org/2000/svg">
  <path d="M30 21.9s-7.1-2.2-7.5-2.5l-3.4-2.9c-.4-.3-.9-.5-1.5-.5H5.4c-.6 0-1.1.2-1.5.5L.6 19.3c-.4.4-.6.8-.6 1.3v7c0 1 .9 1.7 2.1 1.7h.6C3 30.9 4.3 32 5.9 32s2.9-1.1 3.3-2.7h12.1c.3 1.5 1.7 2.7 3.3 2.7s2.9-1.1 3.3-2.7h2c1.2 0 2.1-.8 2.1-1.7v-1.7c-.1-2 .4-3.7-2-4m-19.4-4.6h7c.2 0 .5.1.6.2l2.7 2.3-1.5 1.5h-8.9zm-5.8.2c.2-.1.4-.2.6-.2h3.8v4h-5l-2.4-1.2zm1.1 13.2c-1.1 0-2-.9-2-2s.9-2 2-2 2 .9 2 2-.9 2-2 2m18.6 0c-1.1 0-2-.9-2-2s.9-2 2-2 2 .9 2 2-.9 2-2 2m6.1-5.7v2.6c0 .1-.3.4-.8.4h-2c-.3-1.5-1.6-2.7-3.3-2.7-1.6 0-3 1.1-3.3 2.7h-12c-.3-1.5-1.6-2.7-3.3-2.7-1.6 0-3 1.1-3.3 2.7h-.5c-.5 0-.8-.3-.8-.4v-6.3l2.6 1.3H20l2-2c.6.3 2.2.9 7.6 2.5h.2c.8.2.9.2.8 1.9M11.9 3.7l-.6-1.2C14.9.8 18.9.6 22.7 1.9s6.8 4.1 8.5 7.7c.1.3.3.6.4.9l-1.2.6c-.1-.3-.2-.6-.4-.9-1.6-3.3-4.3-5.8-7.8-7-1.5-.5-3-.8-4.6-.8-1.9 0-3.9.5-5.7 1.3M21 6.6c-1.1-.4-2.2-.6-3.4-.6-1.4 0-2.9.3-4.2.9l-.6-1.2c2.7-1.3 5.8-1.4 8.6-.4 2.9 1 5.2 3.1 6.5 5.9.1.3.3.6.4.9l-1.2.6c-.1-.3-.2-.6-.4-.9-1.1-2.5-3.2-4.3-5.7-5.2m-3.4 3q-1.35 0-2.7.6L14.3 9c3.9-1.8 8.5-.1 10.3 3.7.1.3.3.6.4.9l-1.2.6-.3-.9c-1.1-2.3-3.4-3.7-5.9-3.7m.9 2.1c.9 0 1.7.7 1.7 1.7 0 .9-.7 1.7-1.7 1.7-.9 0-1.7-.7-1.7-1.7.1-.9.8-1.7 1.7-1.7"/>
  <rect/>
</svg>
