<svg viewBox="0 0 32 32" xmlns="http://www.w3.org/2000/svg">
  <path d="M18.41 24.016c.385.041.879.078 1.44.078 1.616 0 3.743-.3 5.1-1.657 2.432-2.432 2.936-8.808 2.936-8.808s-6.376.503-8.808 2.936c-1.805 1.805-1.74 4.97-1.586 6.484l-.825.84v-8.642c2.906-.417 5.146-2.892 5.146-5.914V4h-.48c-.821 0-1.603.167-2.316.466-.527-1.332-1.755-1.755-3.003-3.8-1.27 2.037-2.542 2.465-3.077 3.785A6 6 0 0 0 10.667 4h-.48v5.333c0 3.022 2.24 5.497 5.146 5.914v8.642l-.825-.84c.153-1.514.22-4.679-1.586-6.484-2.432-2.433-8.808-2.936-8.808-2.936s.504 6.376 2.936 8.808c1.357 1.357 3.484 1.657 5.1 1.657.561 0 1.055-.037 1.44-.078l1.743 1.775v2.26c-2.981.253-5.453 2.13-6.326 3.949h1.554c.94-1.275 2.976-2.667 5.436-2.667S20.49 30.725 21.432 32h1.554c-.872-1.817-3.341-3.693-6.32-3.949v-2.26zm1.61-6.508c1.29-1.29 4.256-2.013 6.332-2.345-.332 2.076-1.055 5.041-2.345 6.331-1.046 1.047-2.838 1.266-4.156 1.266-.07 0-.133-.003-.201-.004l4.159-4.231a.666.666 0 1 0-.95-.935l-4.101 4.172c-.009-1.452.242-3.234 1.263-4.254m-7.87 5.252c-1.32 0-3.11-.22-4.157-1.266-1.29-1.29-2.013-4.255-2.345-6.331 2.076.332 5.041 1.054 6.331 2.345 1.02 1.02 1.272 2.803 1.263 4.254l-4.1-4.172a.666.666 0 1 0-.95.935l4.158 4.23c-.068.002-.13.005-.2.005m8.33-13.427a4.674 4.674 0 0 1-3.813 4.589V10a4.674 4.674 0 0 1 3.813-4.589zM15.112 3.79c.27-.26.572-.548.89-.9.304.345.592.63.85.886.478.471.77.76.933 1.168-.504.483-1.191 1.148-1.792 1.92-.614-.776-1.317-1.444-1.83-1.928.16-.39.451-.67.949-1.146M11.52 9.333V5.411A4.674 4.674 0 0 1 15.333 10v3.922a4.674 4.674 0 0 1-3.813-4.589"/>
</svg>
