<svg viewBox="0 0 32 32" xmlns="http://www.w3.org/2000/svg">
  <path d="M31.333 15.333h-2.212l1.478-2.716a.667.667 0 0 0-1.172-.637l-1.823 3.353H25.69l.88-1.455a.667.667 0 0 0-1.14-.69l-1.299 2.145h-1.183l-2.897-5.018.539-.932 2.547.176h.047a.667.667 0 0 0 .044-1.331l-1.896-.13 1.047-1.815 3.745.086h.015a.667.667 0 0 0 .016-1.333l-3.016-.07 1.104-1.912a.666.666 0 1 0-1.153-.667l-1.106 1.916-1.614-2.637a.668.668 0 0 0-1.138.697l1.993 3.255-.957 1.657-.82-1.49a.667.667 0 0 0-1.17.643l1.21 2.197-.591 1.024h-5.794l-.539-.933 1.426-2.117a.666.666 0 1 0-1.106-.745l-1.061 1.577-1.048-1.815 1.946-3.2a.667.667 0 0 0-1.139-.692L10.015 4.3 8.911 2.387a.666.666 0 1 0-1.155.667L8.862 4.97l-3.09.079a.667.667 0 0 0 .016 1.333h.017l3.816-.098.957 1.658-1.701-.035c-.33.012-.672.285-.68.653a.67.67 0 0 0 .653.68l2.507.051.591 1.025-2.896 5.017H7.974l-1.12-2.293a.666.666 0 1 0-1.198.586l.834 1.707H4.395l-1.798-3.285a.666.666 0 1 0-1.17.64l1.448 2.645H.667a.666.666 0 1 0 0 1.334h2.212l-1.477 2.716a.667.667 0 0 0 1.172.638l1.822-3.354H6.31l-.88 1.455a.666.666 0 1 0 1.14.69l1.298-2.145h1.184l2.896 5.017-.54.934-2.544-.177a.66.66 0 0 0-.712.62.667.667 0 0 0 .62.711l1.895.13-1.047 1.814-3.744-.084c-.403.016-.674.285-.682.65a.667.667 0 0 0 .652.683l3.014.068-1.104 1.912a.666.666 0 1 0 1.155.667l1.106-1.915 1.614 2.636a.665.665 0 1 0 1.137-.695l-1.992-3.256.956-1.657.82 1.491a.667.667 0 0 0 1.169-.643l-1.21-2.197.592-1.025h5.794l.538.932-1.425 2.118a.668.668 0 0 0 1.107.745l1.061-1.577 1.047 1.814-1.945 3.2a.665.665 0 0 0 .569 1.013.67.67 0 0 0 .569-.32l1.567-2.577 1.105 1.913a.665.665 0 1 0 1.153-.667l-1.105-1.915 3.091-.078a.667.667 0 0 0 .65-.684c-.01-.367-.288-.638-.684-.65l-3.817.097-.956-1.656 1.7.035h.015a.667.667 0 0 0 .014-1.334l-2.509-.052-.59-1.023 2.896-5.018h1.078l1.121 2.293a.666.666 0 1 0 1.198-.586l-.834-1.707h2.094l1.797 3.285a.665.665 0 0 0 .905.264.666.666 0 0 0 .265-.905l-1.448-2.644h2.21a.666.666 0 1 0 0-1.334m-9.924 0h-1.945l-1.155-2 .972-1.684zM17.155 18h-2.31l-1.154-2 1.154-2h2.31l1.154 2zm.972-7.018-.972 1.685h-2.31l-.972-1.685zm-5.409.667.973 1.684-1.155 2H10.59zm-2.127 5.018h1.945l1.155 2-.973 1.684zm3.282 4.35.972-1.684h2.31l.972 1.684zm5.408-.666-.972-1.684 1.155-2h1.945z"/>
</svg>
