<svg viewBox="0 0 32 32" xmlns="http://www.w3.org/2000/svg">
  <rect/>
  <path d="M12 17.8c0 .4-.3.7-.7.7-1.2 0-2.2 1-2.2 2.3 0 .4-.3.7-.7.7s-.7-.3-.7-.7c0-.8.3-1.5.7-2.1-.6-.4-1-1.1-1-1.9 0-.4.3-.7.7-.7s.7.3.7.7c0 .5.3.8.7.8.5-.3 1.1-.5 1.7-.5.5 0 .8.3.8.7m15.2 3.7c.1.3.1.6.1 1 0 1.8-1.1 3.4-2.7 4-.2 2.4-2.2 4.3-4.6 4.3-1.7 0-3.2-.9-4-2.3-.8 1.4-2.3 2.3-4 2.3-2.5 0-4.5-1.9-4.6-4.3-1.6-.6-2.7-2.2-2.7-4 0-.3 0-.7.1-1-1.3-.8-2.1-2.1-2.1-3.7 0-1.7 1-3.1 2.4-3.9-.7-.7-1.1-1.7-1.1-2.8 0-2.3 1.8-4.2 4.1-4.3 0-.3-.1-.7-.1-1 0-2.4 1.9-4.3 4.3-4.3 1.6 0 2.9.8 3.7 2 .8-1.2 2.1-2 3.7-2 2.4 0 4.3 1.9 4.3 4.3 0 .4-.1.7-.1 1 2.3.1 4.1 2 4.1 4.3 0 1.1-.4 2.1-1.1 2.8 1.4.7 2.4 2.2 2.4 3.9 0 1.6-.8 2.9-2.1 3.7m-11.9 4.6V24c-.4 0-.7.4-.7.8s-.3.7-.7.7-.7-.3-.7-.7c0-1.2.9-2.1 2-2.2V13C14 13 13 14 13 15.3c0 .4-.3.7-.7.7s-.7-.3-.7-.7c0-1 .4-1.9 1-2.6 0-.4-.3-.7-.7-.7s-.7-.3-.7-.7.3-.7.7-.7c.8 0 1.6.5 1.9 1.3.4-.2.8-.3 1.3-.3V5.8c0-1.7-1.3-3-3-3s-3 1.3-3 3c0 .2 0 .4.1.7l.1.6c.1.5.4.9.8 1.1.4.3 1 .4 1.5.3.4-.1.7.2.8.5s-.2.7-.5.8c-.2 0-.4.1-.7.1q-1.05 0-1.8-.6c-.2-.3-.6-.7-.8-1.2h-.4c-1.6.1-2.9 1.4-2.9 3 0 .9.4 1.6.7 1.9l.3.4c.9-.2 1.6-1 1.6-2 0-.4.3-.7.7-.7s.7.3.7.7c0 1.7-1.3 3.1-2.9 3.3l-.7.4c-1 .5-1.7 1.5-1.7 2.7 0 1.1.5 2 1.5 2.6l.8.5-.2.9c-.1.2-.1.4-.1.6 0 1.1.6 2 1.5 2.6.5-1.7 2-2.9 3.8-2.9.4 0 .7.3.7.7s-.3.7-.7.7c-1.4 0-2.6 1.2-2.7 2.6v.3c.1 1.7 1.6 3.1 3.3 3.1 1.9-.1 3.4-1.6 3.4-3.4M28 17.8c0-1.1-.6-2.1-1.7-2.7l-.7-.4c-1.6-.2-2.9-1.6-2.9-3.3 0-.4.3-.7.7-.7s.7.3.7.7c0 1 .7 1.8 1.6 2l.3-.4c.3-.4.7-1 .7-1.9 0-1.6-1.3-2.9-2.9-3h-.4c-.3.5-.6.9-1.1 1.2q-.9.6-1.8.6c-.2 0-.4 0-.7-.1-.4-.1-.6-.4-.5-.8s.4-.6.8-.5c.5.1 1.1 0 1.5-.3s.7-.7.8-1.1l.1-.6c.1-.3.1-.5.1-.7 0-1.7-1.3-3-3-3s-3 1.3-3 3v5.9c.5 0 .9.1 1.3.3.3-.7 1-1.3 1.9-1.3.4 0 .7.3.7.7s-.3.7-.7.7-.7.3-.7.7c.6.7 1 1.6 1 2.6 0 .4-.3.7-.7.7s-.7-.3-.7-.7c0-1.3-1-2.3-2.2-2.3v9.6c1.1 0 2 1 2 2.2 0 .4-.3.7-.7.7s-.7-.3-.7-.7-.3-.8-.7-.8v2.1c0 1.8 1.5 3.3 3.3 3.3 1.7 0 3.2-1.4 3.3-3.1v-.3c0-1.4-1.2-2.6-2.7-2.6-.4 0-.7-.3-.7-.7s.3-.7.7-.7c1.8 0 3.3 1.2 3.8 2.9.9-.5 1.5-1.5 1.5-2.6 0-.2 0-.4-.1-.7l-.2-.9.8-.5c1.4-.5 1.9-1.5 1.9-2.5m-3.5-1c0-.4-.3-.7-.7-.7s-.7.3-.7.7c0 .5-.3.8-.7.8-.5-.3-1.1-.5-1.7-.5-.4 0-.7.3-.7.7s.3.7.7.7c1.2 0 2.2 1 2.2 2.3 0 .4.3.7.7.7s.7-.3.7-.7c0-.8-.3-1.5-.7-2.1.5-.4.9-1.1.9-1.9"/>
</svg>
