<svg viewBox="0 0 32 32" xmlns="http://www.w3.org/2000/svg">
  <path d="m29.166 16.298-7.583-4.573a1.34 1.34 0 0 0-.811-1.249l-1.218-.519c-.07-.03-.143-.026-.215-.044a2.3 2.3 0 0 0-.072-.514c.03-.026.066-.053.066-.07V8.005c0-.076-.03-.142-.043-.215a2.33 2.33 0 0 0-.957-4.457H3c-1.488 0-2.463.981-2.463 2.116 0 1.06.314 1.912 1.506 2.341-.012.073-.043.14-.043.215v1.324c0 .559.344 1.035.83 1.235L4 19.334h.034c.173 1.866 1.725 3.333 3.636 3.333h1.391l-.207.486A2.333 2.333 0 0 0 11 26.4c.583 0 1.133-.24 1.563-.632.067.044.12.102.197.135l1.218.519c.17.073.348.107.523.107.349 0 .678-.147.928-.39l8.55 2.333a3.7 3.7 0 0 0 1.113.194 3.67 3.67 0 0 0 3.379-2.233l2.349-5.513c.706-1.659-.146-3.643-1.654-4.623zM2 5.667c0-.552.449-1 1-1h15.333a1.001 1.001 0 0 1 0 2H3c-.551 0-1-.449-1-1m1.333 3.662L3.338 8h12.409s-.615.418-.883 1.046l-.122.286zM5.167 18l-.977-7.333h9.984L11.049 18zm2.503 3.333a2.34 2.34 0 0 1-2.312-2h5.123l-.852 2zM11 25.068a.99.99 0 0 1-.927-.627 1 1 0 0 1 .008-.766L16.09 9.57a1 1 0 1 1 1.84.784l-5.652 13.265-.358.841a1 1 0 0 1-.921.609zm2.28-.397 5.745-13.486.005-.002v-.011.012l1.221.525-5.75 13.487zm7.864-11.656 6.364 3.774-4.311 10.119-7.13-1.975zm8.449 7.383-2.349 5.513a2.336 2.336 0 0 1-2.746 1.345l4.137-9.71c.357.276.655.646.856 1.07.169.359.407 1.067.102 1.782"/>
</svg>
