<svg viewBox="0 0 32 32" xmlns="http://www.w3.org/2000/svg">
  <path d="M29.956 24.5v6.824h-1.33V24.5a3.37 3.37 0 0 0-3.362-3.37h-8.318a3.37 3.37 0 0 0-3.362 3.37v6.824h-1.33V24.5c0-2.592 2.105-4.702 4.692-4.702h8.318a4.703 4.703 0 0 1 4.692 4.702m-13.702 6.824h1.33v-6.35h-1.33zm8.444 0h1.33v-6.35h-1.33zm-12.69-11.35c0 .736-.596 1.333-1.33 1.333s-1.33-.597-1.33-1.333c0-.488.275-.896.665-1.129v-3.513h-10V.006h22.602v10.638a3.99 3.99 0 0 1 2.804 3.806 4.006 4.006 0 0 1-4 4.01 4 4 0 0 1-3.896-3.128h-6.18v3.513c.39.233.664.64.664 1.129m9.41-8.2a2.676 2.676 0 0 0 0 5.353 2.676 2.676 0 0 0 0-5.353m-3.954 2.225a3.98 3.98 0 0 1 3.821-3.544V1.339H1.342v12.66zM7.354 5.337h1.33V4.004h-1.33zM9.88 4.004v1.333h5.451V4.004zM7.354 8.002h1.33V6.669h-1.33zm2.526 0h5.451V6.669h-5.45zm-2.526 2.665h1.33V9.335h-1.33zm2.526 0h5.451V9.335h-5.45z"/>
</svg>
