<svg viewBox="0 0 32 32" xmlns="http://www.w3.org/2000/svg">
  <path d="M30.667 10.667a2 2 0 1 0-4 0c0 .87.558 1.602 1.333 1.877v.788c-.001.19-.078 4.668-4.667 4.668h-6.666v-5.333c6.59 0 6.666-6.292 6.666-6.356v-.433s1.231-.426 1.231-1.875c0-1.325-1.043-2.009-1.897-2.003-1.056 0-2.01.77-2.01 2.003 0 1.35 1.343 1.875 1.343 1.875v.432c-.001.204-.089 5.023-5.333 5.023V8.544s1.339-.445 1.339-1.87c0-.887-.617-2.007-2.006-2.007a1.97 1.97 0 0 0-2.015 1.971c0 1.59 1.348 1.907 1.348 1.907v4.747c-3.922-.416-3.998-4.446-4-4.625V4.544s1.339-.495 1.339-1.887c0-.883-.671-1.99-2.005-1.99-1.394 0-1.994 1.141-1.994 1.99C8.673 4.061 10 4.545 10 4.545v4.122c0 1.973 1.14 5.612 5.333 5.965V16h-8c-4.746 0-6 3.924-6 6v.79s-1.336.317-1.336 1.901c0 .414.358 1.975 2.003 1.975a1.975 1.975 0 0 0 1.993-1.998c0-1.506-1.326-1.88-1.326-1.88V22c.001-.19.078-4.668 4.666-4.668h8v5.334c0 3.933-2.71 4.966-4.152 5.237a2 2 0 1 0-1.848 2.763c.907 0 1.664-.608 1.91-1.435 1.465-.251 4.237-1.147 5.134-4.333.127.15.245.307.395.44 1.323 1.177 3.205 1.359 4.241 1.359.18 0 .449-.013.449-.013s.373 1.35 2.012 1.35c1.124 0 1.859-1.057 1.859-2.034 0-1.504-1.358-1.962-1.94-1.962-1.477 0-1.943 1.312-1.943 1.312s-2.577.077-3.795-1.01c-.665-.594-.988-1.425-.988-2.54v-2.467h6.666c4.746 0 6-3.924 6-6v-.789a1.99 1.99 0 0 0 1.334-1.877m-8-7.334a.668.668 0 0 1-.002 1.335.668.668 0 0 1 .002-1.335M10.667 2a.668.668 0 1 1-.002 1.335A.668.668 0 0 1 10.667 2M2 25.333a.667.667 0 1 1 .002-1.335A.667.667 0 0 1 2 25.333m7.333 4a.668.668 0 0 1 .002-1.335.668.668 0 0 1-.002 1.335m14-4a.668.668 0 0 1-.001 1.335.668.668 0 0 1 .001-1.335M16 6a.668.668 0 1 1-.002 1.335A.668.668 0 0 1 16 6m12.667 5.333a.668.668 0 1 1 .001-1.335.668.668 0 0 1-.001 1.335"/>
</svg>
