<svg viewBox="0 0 32 32" xmlns="http://www.w3.org/2000/svg">
  <path d="M13.165 12.82H8.943a2.813 2.813 0 0 0-2.817 2.803v5.143c0 1.32.924 2.421 2.16 2.718l.01 8.507h5.556l-.01-8.513c1.225-.303 2.14-1.399 2.14-2.712v-5.143a2.813 2.813 0 0 0-2.817-2.803m1.483 7.946c0 .569-.334 1.048-.809 1.295l-.007-5.968h-1.333l.018 14.572h-.796v-8.272h-1.334v8.272h-.759L9.61 16.093H8.276l.008 5.978a1.47 1.47 0 0 1-.824-1.305v-5.143c0-.814.665-1.477 1.483-1.477h4.222c.818 0 1.483.663 1.483 1.477zM8.39 8.854c0 1.451 1.194 2.639 2.652 2.639s2.652-1.188 2.652-2.639S12.5 6.215 11.04 6.215 8.39 7.403 8.39 8.854m2.652-1.312c.727 0 1.319.589 1.319 1.312s-.592 1.312-1.319 1.312a1.317 1.317 0 0 1-1.318-1.312c0-.723.591-1.312 1.318-1.312m12.856-3.45h-3.692l1.539-2.757h-4.308l-2.77 5.971h3.078l-.41 4.644zm-7.146 1.887 1.538-3.317h1.189l-.438.785-1.1 1.971h3.115l-2.02 2.419.037-.415.127-1.443zM9.23 2.764H5.538L7.077.01H2.769L0 5.979h3.077l-.41 4.644zM2.084 4.653l1.538-3.318h1.189l-.438.785-1.1 1.971h3.115L4.369 6.51l.037-.414.128-1.443zm22.816 7.96c-5.36 0-7.1 4.774-7.1 4.774s1.568 4.774 7.1 4.774c5.51 0 7.1-4.774 7.1-4.774s-1.74-4.773-7.1-4.773m0 7.126a2.36 2.36 0 0 1-2.363-2.352 2.36 2.36 0 0 1 2.363-2.351 2.36 2.36 0 0 1 2.363 2.351A2.36 2.36 0 0 1 24.9 19.74m-5.647-2.332c.424-.821 1.572-2.533 3.8-3.188-1.1.637-1.85 1.81-1.85 3.168 0 1.38.773 2.568 1.903 3.197-2.328-.627-3.452-2.355-3.853-3.177m7.447 3.174c1.126-.63 1.896-1.816 1.896-3.194 0-1.358-.748-2.531-1.85-3.168 2.229.655 3.377 2.366 3.8 3.185-.407.826-1.535 2.548-3.846 3.177"/>
</svg>
