<svg viewBox="0 0 32 32" xmlns="http://www.w3.org/2000/svg">
  <path d="M6.562 13.604a2.469 2.469 0 1 0 0-4.937 2.469 2.469 0 0 0 0 4.937m0-3.604c.626 0 1.136.51 1.136 1.135s-.51 1.136-1.136 1.136-1.136-.51-1.136-1.136S5.936 10 6.562 10m7.863 13.712a2.49 2.49 0 0 0-2.373-1.774H9.697v-4.014c0-1.729-1.406-3.135-3.135-3.135s-3.136 1.406-3.136 3.135v6.532c0 .03.008.057.01.087h-.847V12.667H1.256v13.21h.002v6.083h1.334v-6.084h1.19a3.13 3.13 0 0 0 2.78 1.715h.667v-1.715h3.413l.04 1.98v4.104h.084v.032h3.705l-.019-8.092zm-2.353 6.947-.127-6.253H7.23v-6.482H5.895v8.206a1.81 1.81 0 0 1-1.135-1.674v-6.532c0-.993.808-1.802 1.802-1.802s1.802.809 1.802 1.802v5.347h3.688c.474 0 .901.3 1.067.738l.016 6.65zm10.783-19.524a2.469 2.469 0 1 0 4.938 0 2.469 2.469 0 0 0-4.938 0m3.604 0a1.136 1.136 0 0 1-2.271 0 1.137 1.137 0 0 1 2.271 0m4.171 1.532h-1.333v11.876h-.846c0-.03.009-.057.009-.087v-6.532c0-1.729-1.407-3.135-3.136-3.135s-3.135 1.406-3.135 3.135v4.014h-2.356a2.49 2.49 0 0 0-2.372 1.774l-.046 8.28h3.705v-.032h.083v-4.051l.042-2.033h3.413v1.715h.666c1.215 0 2.26-.702 2.78-1.715h1.19v6.084h1.334v-6.084h.002zm-3.504 11.789c0 .758-.471 1.409-1.135 1.674v-8.206h-1.333v6.482H19.94l-.128 6.253h-1.06l.015-6.65a1.15 1.15 0 0 1 1.066-.738h3.69v-5.347c0-.993.808-1.802 1.801-1.802s1.802.809 1.802 1.802zM24.264 7.132a.868.868 0 1 1 1.736 0 .868.868 0 0 1-1.736 0m-2.264-2a.868.868 0 1 1 1.736 0 .868.868 0 0 1-1.736 0m-.667.873c0-2.575-2.505-4.663-5.595-4.663s-5.595 2.088-5.595 4.663c0 1.117.491 2.13 1.278 2.932L10 11.756l4.068-1.323a6.5 6.5 0 0 0 1.67.236c3.09 0 5.595-2.088 5.595-4.663m-5.595 3.33c-.41 0-.834-.062-1.332-.192l-.378-.1-.372.122-1.024.332.409-.811-.668-.682c-.41-.417-.897-1.103-.897-2 0-1.835 1.912-3.329 4.262-3.329S20 4.17 20 6.005s-1.912 3.33-4.262 3.33"/>
</svg>
