<svg viewBox="0 0 32 32" xmlns="http://www.w3.org/2000/svg">
  <rect/>
  <path d="M28.667 14.667V8.474l-9.884 6.14v-6.14l-9.97 6.193H8V2H1.333v28.667h29.334v-16zm-1.334-3.795v3.795h-6.11zm-9.883 0v3.795h-6.11zM6.667 7.333h-4V6h4zm-4-4h4v1.334h-4zm12.45 26H11.45v-4.666h3.667zm1.333 0v-4.666h3.667v4.666zm12.883 0H21.45v-6H10.117v6h-7.45V8.667h4V16h22.666zM5.333 22h6v-4.667h-6zm1.334-3.333H10v2H6.667zm6 3.333h6v-4.667h-6zM14 18.667h3.333v2H14zM20 22h6v-4.667h-6zm1.333-3.333h3.334v2h-3.334z"/>
</svg>
