<svg viewBox="0 0 32 32" xmlns="http://www.w3.org/2000/svg">
  <path d="M2 1.425V28.09h8.524L14.433 32l3.908-3.909H30V1.425zM25.014 18h-2.227l-5.052-5.052-.254-.254L12.175 18H7.333v-6.575h17.681zm-8.223 4.818a.33.33 0 0 1-.091.256c-.038.04-.118.106-.294.106h-.01l-7.23-.286 7.338-7.338zm1.022-7.907 5.063 5.064-4.866-.069zm-14.48-3.486H6V18l-2.667 6.727zm.63 15.333 2.943-7.425h3.935l-4.537 4.538 2.887 2.887zm4.558-2.555 5.01.198.388 5.2zm6.713 5.11-.363-4.86 1.472.059q.055.003.11.003c.957 0 1.73-.81 1.669-1.782l-.06-1.493 5.172.073zm4.44-2.555 5.936-5.935-1.49-1.49h.974l2.943 7.425zm6.674-7.881v-7.452h2.319v13.302zM3.333 2.757h25.334v7.208H3.333zm2 2.668h13.334v1.333H5.333zM20.667 8H28V4.667h-7.333zM22 6h4.667v.667H22z"/>
</svg>
