<svg viewBox="0 0 32 32" xmlns="http://www.w3.org/2000/svg">
  <path d="M24 13.333V4C22.547 1.984 18.675.667 16 .667S9.453 1.984 8 4v9.333H2V30h28V13.333zM9.333 4.667v-.192C10.672 3.039 13.83 2 16 2s5.328 1.04 6.667 2.475v8.858H9.333zm6 24H12v-5.334h3.333zm1.334 0v-5.334H20v5.334zm12 0h-7.334V22H10.667v6.667H3.333v-14h25.334zM9.333 16H4.667v4.667h4.666zM8 19.333H6v-2h2zM15.333 16h-4.666v4.667h4.666zM14 19.333h-2v-2h2zM21.333 16h-4.666v4.667h4.666zM20 19.333h-2v-2h2zM27.333 16h-4.666v4.667h4.666zM26 19.333h-2v-2h2zM9.333 22H4.667v4.667h4.666zM8 25.333H6v-2h2zM27.333 22h-4.666v4.667h4.666zM26 25.333h-2v-2h2zM18 5.835V3.333h-4v2.502h-2.667v4H14v2.832h4V9.835h2.667v-4zm1.333 2.667h-2.666v2.831h-1.334V8.502h-2.666V7.169h2.666V4.667h1.334v2.502h2.666z"/>
</svg>
