<svg viewBox="0 0 32 32" xmlns="http://www.w3.org/2000/svg">
  <path d="M14.662 19.53H8.216c-1.01 0-1.93-.55-2.459-1.473a3.29 3.29 0 0 1 .01-3.293l2.541-4.347-3.681 1.002-.002-.008.94-1.629 4.394-1.195 1.29 4.476-.915 1.584-.016.005-.97-3.37-2.43 4.155a1.96 1.96 0 0 0-.005 1.956c.293.51.768.804 1.303.804h6.446zm11.093-4.72-2.937-5.225-1.162.653 2.938 5.225c.337.602.33 1.347-.018 1.943-.295.503-.766.79-1.296.79h-5.018l2.552-2.588H18.94l-3.222 3.27 3.208 3.254h1.872l-2.565-2.602h5.046c1 0 1.914-.542 2.447-1.45a3.3 3.3 0 0 0 .028-3.27m-11.6-11.752a2.02 2.02 0 0 1 1.749-1 1.99 1.99 0 0 1 1.734 1.03l2.222 3.953-3.485-.986v.001l.954 1.655 4.427 1.252 1.197-4.608-.929-1.608-.03-.008-.955 3.68-2.24-3.985a3.31 3.31 0 0 0-2.883-1.71c-1.24.023-2.298.61-2.912 1.66L10.2 7.179l1.151.673zm1.16 7.502q.393.627.392 1.82a5 5 0 0 1-.083.914 2.4 2.4 0 0 1-.27.756 1.45 1.45 0 0 1-.49.513 1.36 1.36 0 0 1-.737.19q-.44 0-.74-.19a1.4 1.4 0 0 1-.483-.52 2.6 2.6 0 0 1-.266-.773 5 5 0 0 1-.084-.95q0-1.147.4-1.767t1.2-.62q.767 0 1.16.627m-.287 1.773q0-.906-.234-1.38t-.66-.473q-.434 0-.666.473-.234.474-.234 1.374 0 .933.237 1.406.238.474.676.473.434 0 .657-.473t.224-1.4m2.302-1.41q-.356.47-.376 1.324h.02a.9.9 0 0 1 .207-.237q.127-.103.277-.17.149-.066.313-.1.163-.034.324-.034.312 0 .566.114c.254.114.313.178.434.307q.179.193.28.46.099.265.099.567 0 .333-.103.623-.104.29-.304.503a1.5 1.5 0 0 1-.483.34 1.6 1.6 0 0 1-.643.127q-.794 0-1.207-.57t-.413-1.684q0-1.22.506-1.89c.506-.67.822-.67 1.454-.67q.24 0 .457.027t.443.1l-.067.553a1.9 1.9 0 0 0-.8-.16q-.626 0-.984.47m-.283 2.257q0 .226.067.424.067.196.186.34.121.142.28.226a.83.83 0 0 0 .717.003.8.8 0 0 0 .277-.22q.113-.14.177-.33a1.3 1.3 0 0 0 .064-.403q0-.207-.051-.39a.9.9 0 0 0-.156-.323.74.74 0 0 0-.278-.22.9.9 0 0 0-.402-.08.8.8 0 0 0-.348.076.93.93 0 0 0-.466.514 1.1 1.1 0 0 0-.067.383m-.942 13.53q.143.27.143.696 0 .427-.16.697a1.2 1.2 0 0 1-.42.427 1.7 1.7 0 0 1-.6.216q-.34.06-.7.061h-.393v1.86h-.68v-4.654h1.073q.4 0 .743.06.344.06.597.213.253.154.397.424m-.53.703a.9.9 0 0 0-.084-.403.6.6 0 0 0-.247-.256 1.2 1.2 0 0 0-.4-.134 3.4 3.4 0 0 0-.543-.04h-.326v1.66h.333q.307 0 .543-.037t.397-.126a.6.6 0 0 0 .243-.25.9.9 0 0 0 .084-.414m2.772.574a4 4 0 0 1-.449-.227 1.4 1.4 0 0 1-.267-.207.5.5 0 0 1-.13-.203.7.7 0 0 1-.034-.224q0-.28.235-.46.231-.18.605-.179a2 2 0 0 1 .867.2l.087-.58a2.7 2.7 0 0 0-.493-.133 3 3 0 0 0-.494-.04q-.333 0-.61.092-.276.094-.47.258-.193.162-.3.396a1.2 1.2 0 0 0-.106.513q0 .215.053.39a.9.9 0 0 0 .183.33q.13.155.344.297.213.143.54.29.266.12.44.224.173.102.277.21.103.106.143.229t.039.27q0 .34-.26.544c-.26.204-.401.203-.687.203q-.213 0-.449-.056a2.5 2.5 0 0 1-.516-.197l-.074.62q.254.106.52.154.267.045.566.045.354 0 .647-.103t.503-.286.324-.436a1.4 1.4 0 0 0 .113-.562q0-.466-.27-.786t-.877-.586"/>
</svg>
