<svg viewBox="0 0 32 32" xmlns="http://www.w3.org/2000/svg">
  <path d="M26 1.958h-1.333v25.375h-16V1.958H7.333v26.709h3.186c-.32.354-.519.818-.519 1.333a2 2 0 1 0 4 0c0-.515-.2-.979-.519-1.333h6.371A1.98 1.98 0 0 0 19.333 30a2 2 0 1 0 4 0c0-.515-.2-.979-.519-1.333H26zM12 30.667a.667.667 0 1 1 .002-1.335.667.667 0 0 1-.002 1.335m9.333 0a.667.667 0 1 1 .002-1.335.667.667 0 0 1-.002 1.335M16 20h-5.333v5.333H16zm-1.333 4H12v-2.667h.667v1.334H14v-1.334h.667zm8-4h-5.334v5.333h5.334zm-1.334 4h-2.666v-2.667h.666v1.334h1.334v-1.334h.666zM16 13.333h-5.333v5.334H16zm-1.333 4H12v-2.666h.667V16H14v-1.333h.667zm8-4h-5.334v5.334h5.334zm-1.334 4h-2.666v-2.666h.666V16h1.334v-1.333h.666zM16 6.667h-5.333V12H16zm-1.333 4H12V8h.667v1.333H14V8h.667zm8-4h-5.334V12h5.334zm-1.334 4h-2.666V8h.666v1.333h1.334V8h.666zM16 0h-5.333v5.333H16zm-1.333 4H12V1.333h.667v1.334H14V1.333h.667zm8-4h-5.334v5.333h5.334zm-1.334 4h-2.666V1.333h.666v1.334h1.334V1.333h.666z"/>
</svg>
