<svg viewBox="0 0 32 32" xmlns="http://www.w3.org/2000/svg">
  <path d="m20.714 17.847 9.993-5.996-.992-.992A1.84 1.84 0 0 0 30 9.822c-.005-1.325-1.077-3.16-2.797-4.79-1.884-1.785-4.329-3.069-5.792-2.477l-.697-.697-5.996 9.993-8.993 8.993-2.998 2.998 5.995 5.996 2.998-2.998zm-4.274-6.274.779-1.298 5.071 5.07-1.299.78zM26.286 6c1.62 1.535 2.365 3.043 2.378 3.808l-6.002-6.002c.845.177 2.171.818 3.624 2.194M20.98 4.008l7.578 7.578-5.088 3.053-5.543-5.543zM8.722 27.952l-4.11-4.11 1.056-1.055 4.11 4.11zm2.056-2.055-4.11-4.11 8.993-8.993 4.11 4.11zm1.274-8.05 2.666 2.666 2.667-2.666-2.667-2.667zm2.666.78-.78-.78.78-.781.781.78z"/>
</svg>
