<svg viewBox="0 0 32 32" xmlns="http://www.w3.org/2000/svg">
  <path d="M16.7 20c4.1-.4 7.6-3.9 7.3-8L22.5 0h-13L8 12c-.3 4.1 3.2 7.6 7.3 8v10.7H10V32h12v-1.3h-5.3zm-.3-18.7.8 1.3-2.2 3c-.2.3-.2.7.1.9l2 1.6-2 2.4.5-1.7c.1-.3 0-.5-.2-.7l-2.1-1.7 1-2.2c.1-.2.1-.5-.1-.7l-1.9-2.2zM9.3 12.2l1.3-10.5 2.2 2.5-1.1 2.3c-.1.3-.1.6.2.8L14.1 9 13 13.2c-.1.3.1.6.3.8.1.1.2.1.3.1.2 0 .4-.1.5-.2l4.4-5.3c.1-.1.2-.3.1-.5 0-.2-.1-.3-.2-.5l-2-1.6 2.1-2.8c.2-.2.2-.5 0-.8l-.6-1h3.4l1.3 10.8c.1 1.5-.5 3.1-1.6 4.3-1.3 1.4-3.2 2.3-5.1 2.3s-3.8-.8-5.1-2.2c-1-1.4-1.6-2.9-1.5-4.4"/>
</svg>
