<svg viewBox="0 0 32 32" xmlns="http://www.w3.org/2000/svg">
  <path d="M17.33 9.656H6.004V8.322H17.33zm-1.999 1.839H6.004v1.333h9.327zM12 14.667H6.004V16H12zm9.993 3.042V30H3.34V3.333h3.998V2h11.325v1.333h3.331v7.64l5.296-5.299 3.365 3.368zm-9.819 6.458 1.499-.375-1.124-1.125zm14.822-13.35-1.481-1.482-12.203 12.21 1.481 1.483zm.293-3.257-.832.832 1.481 1.482.832-.832zM8.669 4.667h8.66V3.333H8.67zm11.992 14.375-5.83 5.835L10.342 26l1.122-4.491 9.196-9.202v-7.64h-1.999V6H7.337V4.667H4.672v24H20.66z"/>
</svg>
