<svg viewBox="0 0 32 32" xmlns="http://www.w3.org/2000/svg">
  <path d="M18.698 9.355H9.337v5.334h9.361zm-1.331 4h-6.699V10.69h6.699zm14.038.903-.056-.057-8.025-8.222a2.1 2.1 0 0 0-.583-.413l-.032-.018a2.1 2.1 0 0 0-.699-.193c-.073-.007-.145-.022-.219-.022H2.678V6.69l18.684-.022v8.022h8.6l.49.501a.8.8 0 0 1 .231.568v4.67a.813.813 0 0 1-.81.812h-1.955c-.352-1.462-1.659-2.551-3.227-2.551s-2.875 1.09-3.228 2.551H13.23c-.353-1.462-1.66-2.551-3.227-2.551s-2.875 1.09-3.228 2.551H4.01v-5.218H2.678v6.552h4.05c.265 1.577 1.625 2.781 3.275 2.781s3.01-1.204 3.273-2.781h8.141a3.324 3.324 0 0 0 3.274 2.781c1.65 0 3.01-1.204 3.274-2.781h1.907a2.144 2.144 0 0 0 2.143-2.146v-4.67a2.15 2.15 0 0 0-.61-1.5m-8.712-.903V7.241l5.968 6.114zm-12.69 10.667a2.001 2.001 0 0 1 0-4 2.001 2.001 0 0 1 0 4m14.688 0a2.001 2.001 0 0 1 0-4 2.001 2.001 0 0 1 0 4M8.005 9.405H.015V8.072h7.99zm-1.332 2.644H.015v-1.334h6.658zm-1.331 2.643H.015V13.36h5.327z"/>
</svg>
