<svg viewBox="0 0 32 32" xmlns="http://www.w3.org/2000/svg">
  <path d="M27.767 10.667h-7.52a2.907 2.907 0 0 0-2.906 2.907V27.76a2.907 2.907 0 0 0 2.907 2.907h7.52a2.907 2.907 0 0 0 2.906-2.907V13.574a2.907 2.907 0 0 0-2.907-2.907m1.574 17.093c0 .867-.706 1.573-1.574 1.573h-7.52a1.575 1.575 0 0 1-1.573-1.573V13.574c0-.868.706-1.574 1.574-1.574h7.52c.867 0 1.573.706 1.573 1.574zm-2.682-14.427h-5.303c-.745 0-1.349.604-1.349 1.349v5.303c0 .744.604 1.348 1.349 1.348h5.303c.745 0 1.348-.604 1.348-1.348v-5.303c0-.745-.603-1.349-1.348-1.349m0 6.667-5.318-.015.015-5.318h5.303l.015.015zm-2.652 2.667a2.667 2.667 0 1 0 0 5.333 2.667 2.667 0 0 0 0-5.333m0 4a1.335 1.335 0 0 1-1.333-1.334 1.335 1.335 0 0 1 2.667 0c0 .736-.598 1.334-1.334 1.334M9.992 24.08v-5.414h3.333V5.333h-2V2H1.992v16h4.24c.466.41 1.07.667 1.74.667h.687v5.414a3.257 3.257 0 0 0 3.253 3.252h5.413V26h-5.413c-1.059 0-1.92-.86-1.92-1.92M3.325 3.333h6.667v2H7.978a2.653 2.653 0 0 0-2.653 2.653v8.034c0 .224.037.439.09.647h-2.09zm4.647 14a1.314 1.314 0 0 1-1.313-1.313V7.986c0-.728.591-1.32 1.319-1.32h4.014v10.667z"/>
</svg>
