<svg viewBox="0 0 32 32" xmlns="http://www.w3.org/2000/svg">
  <path d="M26 18.21c-.33 0-.649.046-.964.098l-.29-1.316c.408-.07.826-.115 1.254-.115 1.79 0 3.512.65 4.85 1.833a.667.667 0 0 0 .883-1A8.66 8.66 0 0 0 26 15.544c-.528 0-1.043.055-1.545.146q-.163-.723-.327-1.432c.415.38.964.619 1.572.619 1.289 0 1.289-4.667 0-4.667a2.33 2.33 0 0 0-2.176 1.51c-.39-1.583-.732-2.823-.928-3.215-.895-1.791-4.192-.582-4.843-.321l.494 1.238c1.276-.511 2.935-.766 3.157-.321.268.537.996 3.547 1.759 6.93a8.7 8.7 0 0 0-4.496 3.582V18a2 2 0 0 0-1.37-1.888L18.988 14h.346a.666.666 0 1 0 0-1.333h-4v-4a.666.666 0 1 0-1.333 0v4.666c0 .369.298.667.667.667h2.612l-1.6 2h-3.012V5.333H1.333v11.605a8 8 0 0 0-1.065.772.667.667 0 1 0 .882 1 7.3 7.3 0 0 1 2.317-1.377h.657A2 2 0 0 0 4 18v.578c-2.325.826-4 3.024-4 5.632a6 6 0 0 0 6 6c2.609 0 4.806-1.675 5.633-4h5.034c1.1 0 1.999-.899 2-1.998v-.001c0-3.149 1.997-5.832 4.79-6.87l.29 1.315A5.995 5.995 0 0 0 26 30.21a6 6 0 1 0 0-12m-.746-6.561c.11.5.11 1.29 0 1.79a1.001 1.001 0 0 1 0-1.79M6 16H2.667V9.333h2.666V12h4V9.333h2V16zm.667-6.667H8v1.334H6.667zm4.666-2.666V8H2.667V6.667zM6 28.877a4.67 4.67 0 0 1-4.667-4.667c0-2.573 2.094-4.666 4.667-4.666s4.667 2.093 4.667 4.666A4.67 4.67 0 0 1 6 28.877m10.667-4h-4.734c.025-.222.067-.438.067-.667a6 6 0 0 0-6-6c-.228 0-.445.043-.667.068V18c0-.361.306-.667.667-.667h2.562a7.3 7.3 0 0 1 4.67 5.655.667.667 0 0 0 1.315-.221 8.6 8.6 0 0 0-3.29-5.434h5.41c.361 0 .666.306.666.667v6.21a.676.676 0 0 1-.666.667m9.333 4a4.67 4.67 0 0 1-4.667-4.667c0-1.87 1.113-3.474 2.704-4.218.212.98.411 1.915.59 2.77A2 2 0 0 0 24 24.21a2 2 0 1 0 2-2c-.042 0-.082.01-.123.013-.121-.573-.317-1.496-.558-2.61.224-.034.448-.07.681-.07a4.67 4.67 0 0 1 4.667 4.667A4.67 4.67 0 0 1 26 28.877m0-5.333a.667.667 0 1 1-.002 1.335.667.667 0 0 1 .002-1.335M6 22.21a2 2 0 1 0 0 4 2 2 0 0 0 0-4m0 2.667a.667.667 0 1 1 .002-1.335A.667.667 0 0 1 6 24.877"/>
</svg>
