<svg viewBox="0 0 32 32" xmlns="http://www.w3.org/2000/svg">
  <path d="M5.333 2.51v26.667h21.678V2.51zm20.345 25.333H6.667v-24h19.011zM14.759 17.176H9.103v-1.333h5.656zm-.943 2.666H9.103v-1.333h4.714zm0 5.334H9.103v-1.333h4.714zm2.827-9.334h6.598v1.333h-6.598zm0 2.667h5.656v1.333h-5.656zm-1.884 4H9.103v-1.333h5.656zm5.241 0h-3.357v-1.333H20zm-3.357 1.333h4.023v1.333h-4.023zm-4.379-12.93H10V7.691h2.264V5.333h3.338v3.105h-.794V6.08h-1.751v2.358h-2.264v1.727h2.264v2.358h1.751v-2.358h.794v3.105h-3.338zm5.953 0H19.5c1.576 0 2.8-1.202 2.8-2.756a2.804 2.804 0 0 0-2.8-2.823h-3.431v7.936h2.148zm0-3.688h.898c.612 0 1.054.394 1.054.935 0 .563-.465 1.003-1.054 1.003h-.898z"/>
</svg>
