<svg viewBox="0 0 32 32" xmlns="http://www.w3.org/2000/svg">
  <path d="M13.915 8.75V.026H5.19L1.333 3.88v8.73l8.724-.002zm-3.378 1.491V4.34l2.044-2.026v5.884zm-4.794-8.88h3.082l-1.124 1.1h1.73l1.125-1.1h1.092L9.602 3.388h-5.89zm-3.076 9.914V4.721h6.537v6.54h.314l-.014.013zm10.52 1.41c2.063 0 3.74 1.677 3.74 3.74s-1.677 3.74-3.74 3.74h-4.78l2.227 2.228H8.75l-2.895-2.894 2.942-2.943h1.885l-2.275 2.276h4.781a2.41 2.41 0 0 0 2.407-2.408 2.41 2.41 0 0 0-2.406-2.406h-1.403v-1.334zm17.73 5.648c-.542-2.708-1.084-3.25-2.167-3.791 0 0-10.84-1.625-10.833-1.625v11.375H0v1.333h17.917v1.667H0v1.333h20.555C20.82 30.527 22.442 32 24.417 32s3.595-1.473 3.862-3.375h2.129c.88 0 1.592-.713 1.592-1.592v-4.366zM25.75 15.51l2.599.325c.507.276.83.65 1.255 2.736l.28 1.679H25.75zm-1.333 15.157a2.586 2.586 0 0 1-2.584-2.584 2.586 2.586 0 0 1 2.584-2.583A2.586 2.586 0 0 1 27 28.083a2.586 2.586 0 0 1-2.583 2.584m6.25-3.634a.26.26 0 0 1-.26.259h-2.154a3.92 3.92 0 0 0-3.836-3.125 3.92 3.92 0 0 0-3.836 3.125H19.25V14.465l.162.025 3.724.558 1.28.192v6.343h5.939l.312 1.248z"/>
</svg>
