<svg viewBox="0 0 32 32" xmlns="http://www.w3.org/2000/svg">
  <path d="m28.97 20.344-.074.32.8.844v1.861l-1.576 1.08-1.03-.995-1.457-.326-1.707-.61-.025-1.573-.22-.035-1.1 4.223v1.437l-2.154 1.177-1.569-1.918.223-.946-1.388-.655-.807-2.462-1.197.996.476 1.09-2.462 2.762-2.262-.686-3.365 1.216-2.174-3.219.11-1.983-.665-.03-.727.654-1.06 2.33H0v-2.333l1.045-.784-.382-.56.411-2.04 2.22-1.945-.104-1.506 2.427-1.455.978-1.321-.756-1.494 2.344-1.395.932.621 2.12-1.277 1.594.22 1.58-.46v1.389l-1.208.35-.273.08-.281-.039-1.127-.155-1.717 1.034-.725.437-.703-.47-.232-.154-.552.328.194.382.372.735-.49.661-.98 1.321-.157.214-.228.136-1.725 1.035.048.69.046.66-.497.436-1.882 1.648-.211 1.047.066.097.717 1.053-1.019.764-.512.384v.333h1.37l.704-1.55.115-.252.207-.186.726-.654.406-.366.546.025.665.03 1.345.06-.074 1.345-.085 1.536L8.6 25.537l2.39-.863.416-.15.424.128 1.446.439 1.326-1.488-.134-.307-.4-.918.769-.64 1.197-.997 1.51-1.255.61 1.865.628 1.917.869.41.976.46-.248 1.05-.071.306.452.552.488-.267v-.816l.043-.166 1.1-4.224.306-1.17 1.195.19.22.035 1.106.176.017 1.12.01.65.76.271 1.377.308.366.081.27.261.247.24.098-.068v-.627l-.434-.458-.493-.52.162-.698.074-.32.174-.753.74-.223.07-.021.662-.2.544.427.243.19.26-.492-.237-.27-.447-.51.15-.662.408-1.805-.893.75-.954.803-.865-.899-.977-1.015-1.57-.237-1.698-.256.67-1.582.657-1.553-3.373-2.043-1.5-.268-.431-.077-.301-.317-.594-.624V6.782l.185-.115 1.375 1.446 1.745.311 4.571 2.769-1.107 2.616 2.017.304 1.292 1.342 1.844-1.55 1.397 1.275-.598 2.644.84.96-1.43 2.714-1.5-1.174zM12 11.54v1.89l4.418 4.437 4.791-4.788v-1.854l-.015-.016-4.12 4.117V2.667h-1.332v12.63z"/>
</svg>
