<svg viewBox="0 0 32 32" xmlns="http://www.w3.org/2000/svg">
  <path d="M28.26 8.178c-1.67-.188-2.32-.398-2.829-1.227-.371-.606-.51-1.36-.784-2.035-.087-.212-.239-.482-.423-.554q-3.916-1.516-7.858-2.964a1.2 1.2 0 0 0-.403-.065 1.5 1.5 0 0 0-.507.088c-2.425.903-4.833 1.855-7.26 2.75-.575.212-.854.502-.965 1.152-.311 1.827-1.28 2.662-3.073 2.8-.102.007-.202.034-.341.058-.044.404-.11.79-.124 1.179-.096 2.52.062 5.014.63 7.478 1.44 6.245 4.745 10.923 10.583 13.496.207.091.398.22.597.333h.89c.072-.044.14-.098.215-.13 4.861-1.978 8.201-5.502 10.103-10.51.95-2.505 1.44-5.11 1.594-7.777.077-1.359-.025-2.728-.045-4.072m-1.287 3.996c-.154 2.698-.648 5.111-1.508 7.379-1.796 4.728-4.857 7.917-9.36 9.75l-.07.03h-.169a4 4 0 0 0-.422-.22c-5.184-2.283-8.396-6.397-9.821-12.575-.502-2.174-.697-4.506-.598-7.128l.003-.06c1.97-.387 3.153-1.663 3.518-3.803q.009-.056.018-.087.032-.015.093-.038c1.312-.484 2.618-.984 3.924-1.484a400 400 0 0 1 3.335-1.266l.037-.005c2.393.878 4.91 1.827 7.487 2.822.074.193.137.393.2.592.157.49.334 1.045.655 1.567.66 1.076 1.542 1.477 2.662 1.691l.005.141c.032.935.062 1.817.011 2.694m-3.72 6.227h.939v-2.367c0-3.7-3.562-6.7-9.391-6.7h-.525L15.609 8l-.666-.667h3.724V6H9.333v1.333h3.724l.667.667-1.333 1.333H9.333v1.334h5.468c.99 0 1.914.101 2.762.282a.9.9 0 0 0-.23.596v2.091c0 .483.377.879.836.879h4.405c.182.475.284.982.284 1.519v1.033H9.333v1.334h.48a1.58 1.58 0 0 0 1.349 1.18H9.333v1.333h14.878v-1.333h-2.307a1.58 1.58 0 0 0 1.348-1.18m-7.449 0h1.458a1.58 1.58 0 0 0 1.348 1.18h-4.154a1.58 1.58 0 0 0 1.348-1.18m4.453.28a1.6 1.6 0 0 0 1.267.9H18.99a1.6 1.6 0 0 0 1.268-.9m-1.59-5.5V12h1.363c.58.353 1.075.75 1.477 1.181zm-5.858 5.5a1.6 1.6 0 0 0 1.267.9h-2.535a1.6 1.6 0 0 0 1.268-.9M10.667 12v3.714H16V12zm4 2.38H12v-1.047h2.667z"/>
</svg>
