<svg viewBox="0 0 32 32" xmlns="http://www.w3.org/2000/svg">
  <path d="M30 25.33a2.667 2.667 0 0 0-2.664-2.663h-2.003V3.333c0-1.103-.897-2-2-2s-2 .897-2 2v19.334h-2.002a2.667 2.667 0 0 0-2.664 2.664v1.336h.666v4h12v-4H30zM22.667 3.334a.668.668 0 0 1 1.333 0v1.334h-1.333zm0 2.667H24v16.667h-1.333zM18 25.33c0-.734.596-1.33 1.33-1.33h8.006c.734 0 1.33.596 1.33 1.33L18 25.334zm10 4.003h-9.333v-2.666H28zm-11.333-8v-3.8h-2v-.866c0-2.888-2.437-5.067-5.667-5.067s-5.667 2.179-5.667 5.067v.866h-2v3.8H2.77l1.058 9.334h10.344l1.058-9.334zm-12-4.666c0-2.163 1.822-3.733 4.333-3.733s4.333 1.57 4.333 3.733v.866H4.667zm-2 2.2h12.666V20H2.667zm2.352 10.466L4.868 28h8.264l-.15 1.333zm8.265-2.666H4.716l-.604-5.334h9.776z"/>
</svg>
