<svg viewBox="0 0 32 32" xmlns="http://www.w3.org/2000/svg">
  <path d="M10.98 9.333v1.334h-5.1V9.333zM12.667 12h-6.8v1.333h6.8zm14.575 10.466c0 .736-.598 1.334-1.334 1.334H4a1.335 1.335 0 0 1-1.333-1.334V9.333C2.667 8.598 3.265 8 4 8h21.908c.736 0 1.334.598 1.334 1.333v1.334h1.333V9.333a2.667 2.667 0 0 0-2.667-2.666H4a2.667 2.667 0 0 0-2.667 2.666v13.133A2.667 2.667 0 0 0 4 25.133h21.908a2.667 2.667 0 0 0 2.667-2.667v-1.133h-1.333zM9.2 15.333a3.337 3.337 0 0 1 3.333 3.334C12.533 20.505 11.038 22 9.2 22s-3.333-1.495-3.333-3.333A3.337 3.337 0 0 1 9.2 15.333m0 1.334c-1.103 0-2 .897-2 2s.897 2 2 2 2-.897 2-2-.897-2-2-2m17.999-.944 3.218-3.254-.948-.938-3.215 3.252-3.267-3.255-.94.944 3.27 3.258-3.218 3.256.948.937 3.215-3.252 3.268 3.256.94-.945z"/>
</svg>
