<svg viewBox="0 0 32 32" xmlns="http://www.w3.org/2000/svg">
  <path d="M22.71 21.663a7.42 7.42 0 0 1-2.179 5.272l-.94-.943a6.1 6.1 0 0 0 1.79-4.33 6.1 6.1 0 0 0-1.79-4.33l.94-.943a7.42 7.42 0 0 1 2.18 5.274m-5.812-2.025c.617.546.956 1.264.956 2.025 0 .759-.339 1.479-.956 2.024l.88 1c.908-.803 1.407-1.877 1.407-3.024 0-1.149-.499-2.223-1.406-3.025zm5.654-6.775-.94.941a11.07 11.07 0 0 1 3.243 7.859c0 2.97-1.155 5.764-3.253 7.866l.941.942a12.38 12.38 0 0 0 3.643-8.808c0-3.323-1.29-6.449-3.634-8.8m-8.094 1.742c-.517-1.202-.964-2.241-.964-3.685 0-1.393-.654-4.28-.69-4.434C10.797-.663.417.216-.023.256L.1 1.584c.098-.008 9.715-.827 11.416 5.231.006.029.648 2.862.648 4.105 0 1.72.522 2.93 1.073 4.213.271.63.55 1.278.778 2.021l-1.774.593-.068.395s-.07.417-.122 1.174l-.018.684h-1.267c-.778 0-1.411.634-1.411 1.414v1.172c0 .78.633 1.414 1.411 1.414h1.211c-.16 1.659-.887 3.333-3.953 3.333H4.696V32h1.33v-3.333h1.997c2.353 0 5.187-.904 5.322-5.31l.025-.69-2.686-.081.081-1.253h2.564l.05-1.954q.027-.381.055-.626l2.186-.73-.15-.599c-.276-1.106-.666-2.016-1.012-2.819"/>
</svg>
