<svg viewBox="0 0 32 32" xmlns="http://www.w3.org/2000/svg">
  <path d="m30.123 29.018-6.685-6.236a8.4 8.4 0 0 0-.971-10.351V6.99L15.474 0H1.333v29.052h21.133v-1.398L27.142 32zm-8.419-6.185-.72.726c-1.248 1.085-2.857 1.766-4.637 1.766-3.634 0-6.605-2.755-7.018-6.28h8.284l-4.15 4.131h1.89l4.833-4.811-4.803-4.807h-1.885l4.15 4.153h-8.35c.268-3.673 3.31-6.588 7.05-6.588a7.11 7.11 0 0 1 7.1 7.101c0 1.767-.672 3.365-1.744 4.61M15.866 2.276 20.19 6.6h-4.324zm5.267 25.443H2.667V1.333h11.866v6.6h6.6v3.349a8.42 8.42 0 0 0-11.93 2.475H4.588v1.333H8.52a8.4 8.4 0 0 0-.608 3.134 8.434 8.434 0 0 0 12.41 7.438l.81.752zm.365-2.786.155-.156c.349-.283.67-.597.97-.932l5.582 5.207-1.097 1.096z"/>
</svg>
