<svg viewBox="0 0 32 32" xmlns="http://www.w3.org/2000/svg">
  <path d="m31.48 14.69-5.62-6.11s-.07-.04-.1-.07l-6.35-6.9c-.37-.41-.88-.61-1.39-.61s-1.02.2-1.39.61l-.99 1.07-.85-.97c-.38-.43-.9-.64-1.42-.64s-1.05.21-1.42.64L.46 14.76c-.62.71-.62 1.77 0 2.48l11.46 13.04c.38.43.9.64 1.42.64s1.05-.21 1.42-.64l.85-.97.99 1.07c.37.41.88.61 1.39.61s1.02-.2 1.39-.61l6.35-6.9s.07-.04.1-.07l5.62-6.11c.68-.74.68-1.88 0-2.63Zm-6.68 7.86s-.07-.02-.08-.03l-5.5-5.97a.79.79 0 0 1 0-1.09l5.5-5.97s.03-.03.08-.03h.02l5.68 6.17c.19.21.19.53 0 .74l-5.68 6.17h-.02ZM17.6 2.51c.14-.16.32-.18.41-.18s.27.02.41.18l5.48 5.95c-.05.04-.11.06-.16.11l-5.4 5.86c-.06-.08-.11-.16-.18-.24l-5.67-6.15 5.1-5.54ZM13.77 29.4c-.15.17-.33.19-.42.19s-.28-.02-.42-.19L1.46 16.36a.55.55 0 0 1 0-.72L12.93 2.6c.15-.17.33-.19.42-.19s.28.02.42.19l.95 1.08-3.21 3.48c-.47.51-.47 1.28 0 1.79l5.67 6.16c.47.51.47 1.28 0 1.79l-5.67 6.16c-.47.51-.47 1.28 0 1.79l3.21 3.48-.95 1.08Zm4.65.09c-.14.16-.32.18-.41.18s-.27-.02-.41-.18l-5.1-5.53 5.67-6.16c.07-.08.12-.16.18-.24l5.4 5.86c.05.05.11.07.16.11l-5.48 5.95Z"/>
</svg>
