<svg viewBox="0 0 32 32" xmlns="http://www.w3.org/2000/svg">
  <path d="M7.64 14.99H3.9a2.57 2.57 0 0 0-2.57 2.57v4.58c0 1.19.81 2.18 1.91 2.47V32h5.08v-7.39c1.08-.3 1.89-1.29 1.89-2.47v-4.58a2.57 2.57 0 0 0-2.57-2.57m1.24 7.15c0 .43-.23.79-.56 1.01v-5.17H6.98L7 30.67h-.55v-7.08H5.12v7.08H4.6l-.02-12.69H3.25v5.18c-.34-.22-.58-.58-.58-1.02v-4.58c0-.68.55-1.24 1.24-1.24h3.74c.68 0 1.24.55 1.24 1.24v4.58Zm20.74 1.37c.73-.44 1.2-1.19 1.2-2.03l-.98-4.29c-.24-.71-.75-2.2-2.44-2.2h-3c-1.77 0-2.27 1.67-2.45 2.27l-.93 4.1-.02.15c0 .85.5 1.62 1.26 2.05l-.78 3.03h1.89l.02 5.42h5.07l-.02-5.42h1.96l-.79-3.07Zm-4.91 3.07h.53v4.09h-.52v-4.09Zm2.42 4.09h-.55v-4.09h.54v4.09Zm-3.93-5.43 1.63-6.35-1.29-.33-.93 3.61c-.16-.17-.26-.38-.28-.61l.9-3.97c.32-1.06.68-1.27 1.16-1.27h3c.49 0 .81.2 1.16 1.23l.93 3.99c-.01.2-.1.38-.23.54l-.9-3.52-1.29.33 1.63 6.33H23.2Zm-5.31-10.25h-3.42c-1.77 0-2.27 1.67-2.45 2.27l-.93 4.1-.02.15c0 .85.5 1.62 1.26 2.05l-.78 3.03h1.89l.02 5.42h5.11v-7.39c1.08-.3 1.88-1.29 1.88-2.47v-4.58A2.57 2.57 0 0 0 17.88 15Zm-3.1 11.59h.53v4.09h-.52v-4.09Zm4.34-4.44c0 .43-.23.79-.56 1.01v-5.17h-1.34l.02 12.69h-.55v-7.08h-1.33v1.66h-2.08l1.63-6.35-1.29-.33-.93 3.61c-.16-.17-.26-.38-.28-.61l.9-3.97c.32-1.06.68-1.27 1.16-1.27h3.42c.68 0 1.24.55 1.24 1.24v4.58Zm-13.37-7.9c1.29 0 2.35-1.06 2.35-2.35S7.05 9.54 5.76 9.54s-2.35 1.06-2.35 2.35 1.06 2.35 2.35 2.35m0-3.36c.56 0 1.01.45 1.01 1.01s-.45 1.01-1.01 1.01-1.01-.45-1.01-1.01.45-1.01 1.01-1.01m20.17 3.36c1.29 0 2.35-1.06 2.35-2.35s-1.06-2.35-2.35-2.35-2.35 1.06-2.35 2.35 1.06 2.35 2.35 2.35m0-3.36c.56 0 1.01.45 1.01 1.01s-.46 1.01-1.01 1.01-1.01-.45-1.01-1.01.45-1.01 1.01-1.01m-9.92-1.33c-1.29 0-2.35 1.06-2.35 2.35s1.06 2.35 2.35 2.35 2.35-1.06 2.35-2.35-1.06-2.35-2.35-2.35m0 3.36c-.56 0-1.01-.45-1.01-1.01s.45-1.01 1.01-1.01 1.01.45 1.01 1.01-.45 1.01-1.01 1.01m-1.75 1.43A3.02 3.02 0 0 1 13 11.9c0-.85.36-1.62.93-2.17h-.83c-.07-.55-.13-1.12-.13-1.73s.05-1.18.13-1.73h2.26v2.69a2.84 2.84 0 0 1 1.33 0v-2.7h2.22c.07.55.13 1.12.13 1.73s-.05 1.18-.13 1.73h-.81c.57.55.93 1.32.93 2.17 0 1-.49 1.88-1.24 2.43h.11c.74 0 1.42.26 1.96.68A7.99 7.99 0 0 0 24 7.99c0-4.42-3.58-8-8-8s-8 3.58-8 8c0 3.14 1.81 5.84 4.44 7.15.49-.5 1.1-.77 1.82-.81Zm4.63-.36c.49-.8.88-1.79 1.14-2.92h1.85a6.7 6.7 0 0 1-2.99 2.92M22.67 8c0 .6-.11 1.17-.26 1.73h-2.15c.07-.56.11-1.13.11-1.73s-.04-1.17-.11-1.73h2.15c.15.56.26 1.13.26 1.73m-.79-3.07h-1.85c-.26-1.12-.65-2.12-1.14-2.91a6.68 6.68 0 0 1 2.99 2.91m-5.19-3.37c.79.47 1.53 1.69 1.96 3.37h-1.96zm-1.34-.02v3.4h-2c.44-1.71 1.2-2.95 2-3.4m-2.24.48c-.49.8-.88 1.79-1.14 2.91h-1.85a6.63 6.63 0 0 1 2.99-2.91M9.33 8c0-.61.11-1.2.27-1.76v.03h2.14c-.07.56-.11 1.14-.11 1.73s.04 1.17.11 1.73H9.59C9.44 9.18 9.33 8.6 9.33 8m.78 3.06h1.85c.26 1.13.65 2.12 1.14 2.92a6.65 6.65 0 0 1-2.99-2.92"/>
</svg>
