<svg viewBox="0 0 32 32" xmlns="http://www.w3.org/2000/svg">
  <rect/>
  <path d="M14 5.3c1.5 0 2.7-1.2 2.7-2.7C16.7 1.2 15.5 0 14 0s-2.7 1.2-2.7 2.7c0 1.4 1.2 2.6 2.7 2.6m0-4c.7 0 1.3.6 1.3 1.3S14.7 4 14 4s-1.3-.6-1.3-1.3.6-1.4 1.3-1.4m12.3 27.5-2.9-10.9c-.3-1.1-1.4-1.9-2.5-1.9h-3.6v-6c0-1.8-1.5-3.3-3.3-3.3s-3.3 1.5-3.3 3.3v4.2c-3.3 1.5-5.4 4.8-5.4 8.4 0 5.2 4.2 9.4 9.4 9.4 2.9 0 5.7-1.4 7.4-3.7l.4 1.3zM12 10c0-1.1.9-2 2-2s2 .9 2 2v7.3h4.9c.6 0 1.1.4 1.2.9l2.5 9.6-1.3.3-2.5-9.4h-6.2V10h-1.3v10.5c-.8-.3-1.3-1-1.3-1.9zm2.7 20.7c-4.4 0-8-3.6-8-8 0-2.9 1.6-5.5 4-7v3c0 1.8 1.5 3.3 3.3 3.3h.7v-2h5.2l1.8 6.7c-1.5 2.4-4.1 4-7 4"/>
</svg>
