<svg viewBox="0 0 32 32" xmlns="http://www.w3.org/2000/svg">
  <rect/>
  <path d="M10 10.7h12c.4 0 .7-.3.7-.7V7.3c0-.4-.3-.7-.7-.7-1.8 0-3.3-1.5-3.3-3.3v-2h-5.3v2c0 1.8-1.5 3.3-3.3 3.3-.5.1-.8.4-.8.7V10c0 .4.3.7.7.7m.7-2.7c2.3-.3 4-2.3 4-4.6v-.7h2.7v.7c0 2.3 1.7 4.3 4 4.6v1.4H10.7zm.1 9c0 .5-.4.8-.8.8s-.8-.3-.8-.8.4-.8.8-.8.8.3.8.8m-1.3 4.3c0 .5-.4.8-.8.8s-.8-.4-.8-.8c0-.5.4-.8.8-.8s.8.4.8.8m-1.3 4.4c0 .5-.4.8-.8.8s-.8-.4-.8-.8c0-.5.4-.8.8-.8s.8.3.8.8m7.1-13c0 .5-.4.8-.8.8-.5 0-.8-.4-.8-.8 0-.5.4-.8.8-.8.4-.1.8.3.8.8m-.5 4.3c0 .5-.4.8-.8.8s-.8-.4-.8-.8.4-.8.8-.8.8.3.8.8m-.4 4.3c0 .5-.4.8-.8.8-.5 0-.8-.4-.8-.8 0-.5.4-.8.8-.8s.8.4.8.8m-.9 8.7c0 .5-.4.8-.8.8s-.8-.4-.8-.8.4-.8.8-.8.8.3.8.8m.4-4.3c0 .5-.4.8-.8.8-.5 0-.8-.4-.8-.8 0-.5.4-.8.8-.8.5-.1.8.3.8.8m3.7-12.2c-.5 0-.8-.4-.8-.8 0-.5.4-.8.8-.8.5 0 .8.4.8.8s-.4.8-.8.8m.4 4.3c-.5 0-.8-.4-.8-.8s.4-.8.8-.8.8.4.8.8-.3.8-.8.8m.4 4.4c-.5 0-.8-.4-.8-.8 0-.5.4-.8.8-.8.5 0 .8.4.8.8.1.4-.3.8-.8.8m1.8 7.8c0 .5-.4.8-.8.8-.5 0-.8-.4-.8-.8s.4-.8.8-.8.8.3.8.8m-1.3-3.5c-.5 0-.8-.4-.8-.8 0-.5.4-.8.8-.8.5 0 .8.4.8.8s-.4.8-.8.8m1.8-13c-.5 0-.8-.4-.8-.8 0-.5.4-.8.8-.8.5 0 .8.4.8.8s-.4.8-.8.8m1.3 4.3c-.5 0-.8-.4-.8-.8s.4-.8.8-.8.8.4.8.8-.3.8-.8.8m1.3 4.4c-.5 0-.8-.4-.8-.8 0-.5.4-.8.8-.8.5 0 .8.4.8.8.1.4-.3.8-.8.8m3.5 7.8c0 .5-.4.8-.8.8s-.8-.4-.8-.8.4-.8.8-.8.8.3.8.8M11.3 13.5c-.5 0-.8-.4-.8-.8 0-.5.4-.8.8-.8s.8.4.8.8c.1.4-.3.8-.8.8M6.8 30c0 .5-.4.8-.8.8s-.8-.3-.8-.8.4-.8.8-.8.8.3.8.8m17.9-3.5c-.5 0-.8-.4-.8-.8 0-.5.4-.8.8-.8.5 0 .8.4.8.8s-.4.8-.8.8"/>
</svg>
