<svg viewBox="0 0 32 32" xmlns="http://www.w3.org/2000/svg">
  <rect/>
  <path d="M6.5 18.7h5.6c.3.8 1 1.3 1.9 1.3s1.6-.6 1.9-1.3h1.6c.7 0 1.2-.5 1.2-1.2v-2.3c0-1.4-1-2.6-2.4-2.9l-1.1-.2c-.3 0-.6-.2-.8-.4l-2-2c-.2-.2-.5-.4-.9-.4H3.2c-.3 0-.6.1-.9.4l-2 2c-.2.2-.3.5-.3.8v4.9c0 .7.5 1.2 1.2 1.2h1.6c.3.8 1 1.3 1.9 1.3s1.6-.5 1.8-1.2m7.5 0c-.4 0-.7-.3-.7-.7s.3-.7.7-.7.7.3.7.7-.3.7-.7.7m-6-8.1h3.4l2 2c.1.1.2.1.2.2l-.6.6H8zm-6.7 1.9 1.9-1.9h3.4v2.7H1.3zm1.5 4.8H1.3v-2.7h12.3l1.3-1.3 1.1.2c.8.1 1.3.8 1.3 1.5v2.2h-1.5c-.3-.8-1-1.3-1.9-1.3s-1.6.6-1.9 1.3H6.5c-.3-.8-1-1.3-1.9-1.3s-1.5.7-1.8 1.4m1.9 1.4c-.4 0-.7-.3-.7-.7s.3-.7.7-.7.7.3.7.7-.4.7-.7.7m25.8-1.2-2.7-1.3-2.4-4.7c-.2-.5-.7-.8-1.3-.8h-2.8c-.8 0-1.4.6-1.4 1.4V20H0v.9l3.7 3.7c.5.5 1.1.7 1.7.7h1.3c0 1.5 1.2 2.7 2.7 2.7s2.7-1.2 2.7-2.7h12c0 1.5 1.2 2.7 2.7 2.7s2.7-1.2 2.7-2.7h1.2c.8 0 1.5-.7 1.5-1.5v-3.9c-.2-1-.8-1.9-1.7-2.4M21.4 12l2.9.1 2 3.9h-4.9zM9.3 26.7c-.7 0-1.3-.6-1.3-1.3 0-.8.6-1.4 1.3-1.4s1.3.6 1.3 1.3c.1.8-.5 1.4-1.3 1.4m17.4 0c-.7 0-1.3-.6-1.3-1.3s.6-1.3 1.3-1.3 1.3.6 1.3 1.3-.6 1.3-1.3 1.3m4-2.9c0 .1-.1.2-.2.2H29c-.5-.8-1.3-1.3-2.3-1.3s-1.8.5-2.3 1.3H11.6c-.5-.8-1.3-1.3-2.3-1.3S7.5 23.2 7 24H5.4c-.3 0-.6-.1-.8-.3l-2.3-2.3h19.1v-4h5.8l2.7 1.4c.5.2.7.7.7 1.2v3.8z"/>
</svg>
