<svg viewBox="0 0 32 32" xmlns="http://www.w3.org/2000/svg">
  <path d="M10 4.2c-.5 0-.8-.4-.8-.8s.3-.9.8-.9.8.4.8.8-.3.9-.8.9m-.7 3.1c.2-.2.2-.4.2-.6 0-.5-.4-.8-.8-.8s-.9.3-.9.8c0 .2.1.4.2.6.2.2.4.2.6.2s.5-.1.7-.2m5.1-.6c0-.5-.4-.8-.8-.8-.5 0-.8.4-.8.8 0 .2.1.4.2.6.2.2.4.2.6.2s.4-.1.6-.2c.1-.2.2-.4.2-.6m4 .8c.5 0 .8-.4.8-.8 0-.3-.2-.6-.5-.8-.1 0-.2-.1-.3-.1-.5 0-.8.4-.8.8 0 .2.1.4.2.6q.3.3.6.3m4.9 0c.2 0 .4-.1.6-.2.2-.2.2-.4.2-.6 0-.5-.4-.8-.8-.8-.5 0-.8.4-.8.8 0 .2.1.4.2.6.2.1.4.2.6.2M8.2 10c0-.5-.4-.8-.8-.8-.5 0-.8.4-.8.8s.4.8.8.8c.4.1.8-.3.8-.8m5.8 0c0-.5-.4-.8-.8-.8-.5 0-.8.4-.8.8s.4.8.8.8c.4.1.8-.3.8-.8m4.9.9c.5 0 .8-.4.8-.8s-.4-.8-.8-.8c-.5-.1-.9.3-.9.7s.4.9.9.9m5.8 0c.5 0 .8-.4.8-.8s-.4-.8-.8-.8c-.5 0-.8.4-.8.8s.3.8.8.8M6 12.5c-.5 0-.8.4-.8.8 0 .5.4.8.8.8.5 0 .8-.4.8-.8s-.4-.8-.8-.8m5.8.8c0 .5.4.8.8.8.5 0 .8-.4.8-.8 0-.5-.4-.8-.8-.8s-.8.4-.8.8m7.5.9c.5 0 .8-.4.8-.8 0-.5-.4-.8-.8-.8-.5 0-.8.4-.8.8s.4.8.8.8m6.7 0c.5 0 .8-.4.8-.8 0-.5-.4-.8-.8-.8-.5 0-.8.4-.8.8s.3.8.8.8M14.8 3.4c0-.5-.4-.8-.8-.8-.5 0-.8.4-.8.8s.4.8.8.8c.5 0 .8-.4.8-.8m4.1 0c0-.5-.4-.8-.8-.8-.2 0-.4.1-.6.2-.2.2-.2.4-.2.6s.1.4.2.6c.2.2.4.2.6.2.4 0 .8-.4.8-.8m3.1-.9c-.5 0-.8.4-.8.8s.4.8.8.8.8-.4.8-.8-.3-.8-.8-.8M31.9 0H0v1.3h32V0zm0 26v1.7c0 1-.9 1.7-2.1 1.7h-2c-.3 1.5-1.7 2.6-3.3 2.6s-2.9-1.1-3.3-2.6h-12C8.9 30.9 7.6 32 6 32s-2.9-1.1-3.3-2.6h-.6C1 29.4 0 28.6 0 27.6v-7q0-.75.6-1.2L4 16.6q.6-.6 1.5-.6h12.2c.6 0 1.1.2 1.5.5l3.4 2.9c.4.3 7.5 2.5 7.5 2.5 2.3.3 1.8 2.1 1.8 4.1m-14.2-8.6h-7v4h8.9l1.5-1.5-2.7-2.3c-.2-.2-.5-.2-.7-.2M1.8 20.1l2.4 1.2h5.1v-4H5.5c-.2 0-.5.1-.6.2zM8 28.7c0-1.1-.9-2-2-2s-2 .9-2 2 .9 2 2 2 2-.9 2-2m18.6 0c0-1.1-.9-2-2-2s-2 .9-2 2 .9 2 2 2 2-.9 2-2m3.2-5.5h-.2c-5.3-1.6-7-2.2-7.6-2.5l-2 2H3.9l-2.6-1.3v6.3c0 .1.3.4.8.4h.6c.3-1.6 1.7-2.7 3.3-2.7s3 1.1 3.3 2.7h12.1c.3-1.5 1.6-2.7 3.3-2.7 1.6 0 3 1.1 3.3 2.7h2c.5 0 .8-.3.8-.4v-2.6c-.1-1.8-.2-1.8-1-1.9"/>
</svg>
