<svg viewBox="0 0 32 32" xmlns="http://www.w3.org/2000/svg">
  <rect/>
  <path d="M16 6C10.5 6 6 10.5 6 16s4.5 10 10 10 10-4.5 10-10S21.5 6 16 6m2.6 9.3 5.2-3c.5 1.1.9 2.4.9 3.7s-.3 2.6-.9 3.7l-5.2-3c.1-.2.1-.5.1-.7s-.1-.5-.1-.7m4.5-4.2-5.2 3c-.3-.3-.8-.6-1.2-.7v-6c2.7.2 5 1.6 6.4 3.7M16 17.3c-.7 0-1.3-.6-1.3-1.3s.6-1.3 1.3-1.3 1.3.6 1.3 1.3-.6 1.3-1.3 1.3m-.7-9.9v6.1c-.5.1-.9.4-1.2.7l-5.2-3c1.4-2.2 3.7-3.6 6.4-3.8m-7.1 4.9 5.2 3c-.1.2-.1.5-.1.7s0 .5.1.7l-5.2 3c-.5-1.1-.9-2.4-.9-3.7s.3-2.6.9-3.7m.7 8.6 5.2-3c.3.3.8.6 1.2.7v6.1c-2.7-.3-5-1.7-6.4-3.8m7.8 3.7v-6.1c.5-.1.9-.4 1.2-.7l5.2 3c-1.4 2.2-3.7 3.6-6.4 3.8M16 2.7C8.6 2.7 2.7 8.6 2.7 16s6 13.3 13.3 13.3 13.3-6 13.3-13.3c0-7.4-5.9-13.3-13.3-13.3M16 28C9.4 28 4 22.6 4 16S9.4 4 16 4s12 5.4 12 12-5.4 12-12 12"/>
</svg>
