<svg viewBox="0 0 32 32" xmlns="http://www.w3.org/2000/svg">
  <rect/>
  <path d="M1.3 7.7h1.5c.7 0 1.4-.1 2-.2.6-.2 1.1-.4 1.6-.7.4-.3.8-.7 1-1.2.3-.5.4-1 .4-1.7 0-1.3-.4-2.3-1.3-2.9-.9-.7-2.1-1-3.6-1H0v13.3h1.3zm0-6.5h1.4c1.2 0 2.1.2 2.8.6q.9.6.9 2.1c0 1.5-.3 1.6-.9 2s-1.5.6-2.7.6H1.3zM32 2.7V1.3h-2.7V0h-3.2C24.9 0 24 .9 24 2.1v.5h-9c-.9 0-1.7.7-1.7 1.7v10.3H5.5c-.6 0-1.1.2-1.5.5L.6 17.9c-.4.3-.6.8-.6 1.2v7c0 1 .9 1.7 2.1 1.7h.7c.3 1.5 1.7 2.7 3.3 2.7s2.9-1.1 3.3-2.7h11.8c.4 2 2 2.7 3.6 2.7s2.9-1.1 3.3-2.7h2c1.2 0 1.9-.8 1.9-1.7v-1.7c0-1.3.1-3.5-1.7-4.1 0 0-7.1-2.2-7.5-2.5l-3.4-2.7c-.4-.3-.9-.5-1.5-.5h-3V4.3q0-.3.3-.3h9v.6c0 1.2.9 2.1 2.1 2.1h3.2V5.3H32V4h-2.7V2.7zM4.9 16.1c.1-.1.3-.2.6-.2h3.8v4h-5l-2.5-1.2zM6 29.2c-1.1 0-2-.9-2-2s.9-2 2-2 2 .9 2 2-.9 2-2 2m18.6 0c-1.1 0-2-.9-2-2s.9-2 2-2 2 .9 2 2-.9 2-2 2m5.2-7.5c.8.1.8 1.1.8 1.8v2.6c0 .1-.3.4-.8.4h-2c-.3-1.5-1.6-2.7-3.3-2.7-1.6 0-3 1.1-3.3 2.7H9.3C9 25.1 7.6 23.9 6 23.9S3 25 2.7 26.6H2c-.5 0-.8-.3-.8-.4v-6.3L4 21.2h16.1l2-2c.6.3 7.7 2.5 7.7 2.5m-11.5-5.6 2.7 2.3-1.5 1.5h-8.9v-4h7c.3 0 .6.1.7.2M28 5.3h-1.9c-.4 0-.8-.4-.8-.8V2.1c0-.4.4-.8.8-.8H28z"/>
</svg>
