<svg viewBox="0 0 32 32" xmlns="http://www.w3.org/2000/svg">
  <path d="m20.4 26.133-1.6-1.867.267-.933-1.333-.667-.8-2.4-1.2.933.533 1.067-2.4 2.8-2.267-.667-3.333 1.2-2.133-3.2.133-2H5.6l-.667.667-1.067 2.267H-.001v-2.4l1.067-.8-.4-.533.4-2 2.267-2-.133-1.467 2.4-1.467.933-1.333-.667-1.467 2.4-1.333.933.667 2.133-1.333L12.799 8l2.133-.667 1.6-.133-.133-.933 2.267-1.333 1.333 1.467 1.733.267 4.533 2.8-1.067 2.667 2 .267 1.333 1.333 1.867-1.6 1.333 1.333-.533 2.667.8.933-1.467 2.667-1.467-1.2h-.133l-.133.267.8.8v1.867l-1.6 1.067-1.067-.933-1.467-.267-1.733-.667v-1.6h-.267l-1.067 4.267v1.467l-2 1.333zm-.133-2.266.4.533.533-.267V23.2l1.467-5.467 2.533.4v1.733l.8.267 1.733.4.533.533.133-.133v-.667l-.933-.933.4-1.733 1.467-.267.8.667.267-.533-.667-.8.533-2.4-1.867 1.6L26.532 14l-3.2-.667 1.333-3.2L21.198 8l-1.867-.267-.933-.933-.533.4.267 1.467-3.067.133-2.133.667-1.467-.267-2.4 1.467-.933-.533-.533.267.533 1.067-1.733 2.267-1.867 1.067.133 1.333-2.4 2.133-.267 1.067.8 1.2-1.467 1.067v.267h1.333l.933-1.867 1.2-1.067 2.533.133-.133 2.933 1.333 2 2.8-1.067 1.867.533L14.53 22l-.533-1.2 3.467-2.933 1.2 3.733 1.867.933-.267 1.333z"/>
</svg>
