<svg viewBox="0 0 32 32" xmlns="http://www.w3.org/2000/svg">
  <path d="M15.73 4H4.27c-.8 0-1.6.67-1.6 1.6v20.8c0 .93.8 1.6 1.6 1.6h11.47c.93 0 1.6-.67 1.6-1.6V5.6c0-.93-.67-1.6-1.6-1.6M4.27 5.33h11.47c.13 0 .27.13.27.27v15.73h-12V5.6c0-.13.13-.27.27-.27zm11.47 21.33H4.27a.29.29 0 0 1-.27-.27v-3.73h12v3.74a.29.29 0 0 1-.27.27zM8.67 24h2.67v1.33H8.67zm-1.34-9.33c.4 0 .67 0 .93-.13v-.67c-.27.13-.53.13-.8.13-.67 0-1.07-.4-1.07-1.07s.4-1.07 1.07-1.07c.27 0 .53.13.93.27l.13-.67c-.53-.13-.93-.27-1.2-.27-1.2 0-2 .67-2 1.87s1.07 1.6 2 1.6zm2.4-1.47h1.07v1.47h.93v-3.33h-.93v1.2H9.73v-1.2h-.8v3.33h.8zm3.6.13h1.33v-.67h-1.33v-.67h1.33v-.67h-2.13v3.33h.8zm6.8-1.73c.8.8.8 2.13 0 2.93l.93.93a3.38 3.38 0 0 0 0-4.8zM23.6 8l-.93.93c2.27 2.27 2.27 5.87 0 8l.93.93c2.8-2.67 2.8-7.07 0-9.87zm2.67-2.53-.93.93c3.6 3.6 3.6 9.6 0 13.2l.93.93c4.13-4.13 4.13-10.93 0-15.06"/>
</svg>
