<svg viewBox="0 0 32 32" xmlns="http://www.w3.org/2000/svg">
  <path d="M26.676 10.693a4.022 4.022 0 1 0 0-8.044 4.022 4.022 0 0 0 0 8.044m0-6.71c1.482 0 2.688 1.206 2.688 2.688s-1.206 2.688-2.688 2.688-2.689-1.206-2.689-2.688 1.206-2.688 2.689-2.688m-.684 7.956a4.67 4.67 0 0 0-3.868 2.064c-.115.17-.41.665-.782 1.306V3.322H2.617v18.026h8.092c.238 2.4 1.75 3.979 3.936 3.979h6.682v4.015h1.333v-4.015h.016v-1.334h-.016v-.237l3.594-6.223h-1.54l-3.73 6.46h-6.34c-1.683 0-2.433-1.266-2.609-2.64h5.804v-.005h1.569l.212-.365.009.005.38-.671 1.333-2.281v-.057c.854-1.492 1.693-2.944 1.886-3.229a3.34 3.34 0 0 1 2.764-1.477 3.337 3.337 0 0 1 3.334 3.333v12.731h1.333v-12.73a4.67 4.67 0 0 0-4.667-4.668M3.95 4.656h16.058v12.968c-.457.8-.889 1.56-1.178 2.07l-.188.32H3.95zm3.467 9.38h.66v.615H5.392v-.654q.474-.384.81-.686.334-.301.55-.55.215-.248.312-.462a1 1 0 0 0 .1-.43.65.65 0 0 0-.055-.273.5.5 0 0 0-.149-.188.6.6 0 0 0-.226-.108 1 1 0 0 0-.276-.034q-.446 0-.908.265l-.08-.654q.239-.112.542-.172c.303-.06.414-.06.632-.06q.27 0 .516.071.246.072.432.212.186.142.293.355.107.214.107.502a1.43 1.43 0 0 1-.206.742q-.109.195-.296.412a6 6 0 0 1-.457.471q-.254.237-.44.381t-.344.25v.012q.27-.01.587-.014c.317-.004.404-.003.581-.003m2.521-3.39q-.761 0-1.12.505-.358.505-.358 1.565 0 .469.085.838.084.37.259.629t.449.398.657.138q.378 0 .652-.142.273-.14.445-.406.173-.264.254-.642a3.3 3.3 0 0 0 .082-.858q0-2.025-1.405-2.025m.449 3.128q-.167.364-.477.364-.322 0-.488-.37t-.166-1.12q0-.71.166-1.066.167-.355.482-.355.316 0 .483.36.165.362.166 1.101 0 .721-.166 1.086m3.889-.736 1.303 1.613h-.942l-.564-.762-.124-.172a12 12 0 0 1-.26-.378l-.112-.166h-.012v1.478h-.767v-4.265h.767v2.59h.012a7 7 0 0 1 .24-.316 19 19 0 0 1 .267-.333l.497-.58h.868zm4.445-1.292h-.699v.22q0 .107.012.242h-.012a1.06 1.06 0 0 0-.355-.383 1 1 0 0 0-.565-.147q-.299 0-.538.113t-.41.316q-.168.203-.259.485-.09.282-.09.62 0 .322.09.587.09.266.254.454.165.19.395.294.231.104.513.104.344 0 .573-.152c.23-.152.271-.226.358-.373H18q-.012.08-.012.153v.146q0 .236-.06.41a.8.8 0 0 1-.177.284.7.7 0 0 1-.27.167 1.1 1.1 0 0 1-.35.053 2.2 2.2 0 0 1-.508-.062 2.2 2.2 0 0 1-.53-.209l-.057.644q.288.106.573.15.285.041.584.042.395 0 .685-.11.29-.111.477-.305.186-.195.277-.466.09-.27.09-.598zm-.794 1.777a.8.8 0 0 1-.148.282.7.7 0 0 1-.228.186.6.6 0 0 1-.29.068.58.58 0 0 1-.497-.248q-.18-.25-.18-.638 0-.191.048-.361a.9.9 0 0 1 .138-.29.7.7 0 0 1 .211-.193.62.62 0 0 1 .57 0 .7.7 0 0 1 .228.192.9.9 0 0 1 .148.288q.05.166.05.358 0 .193-.05.356M5.313 6.327l2.911 1.084v.846l-2.91 1.077v-.739L6.75 8.11l.212-.068.26-.082q.131-.042.254-.078.12-.038.2-.054v-.01a6 6 0 0 1-.454-.12q-.133-.039-.26-.079l-.212-.068-1.438-.49z"/>
</svg>
