<svg viewBox="0 0 32 32" xmlns="http://www.w3.org/2000/svg">
  <path d="M3.6 3.6C3.6-.1 7.6.5 8.5 1l-.1 1.2C8.1 2.1 5.2.9 5.2 3.6s3 1.6 3.2 1.5l.1 1.1c-.2.1-.4.1-.7.2-3.8.7-4.2-2.3-4.2-2.8m19.6.4h.8v-.8h.8v-.8H24v-.8h-.7v.8h-.8v.8h.8zm-.8 1.3H26v1.3h-3.1l-3.6 3.6V24c.8.9 1.3 2 1.3 3.2 0 2.6-2.1 4.7-4.7 4.7s-4.7-2.1-4.7-4.7c0-1.2.5-2.4 1.3-3.2v-7.2L9.6 20H6v-1.3h3.1l3.6-3.6V3.3C12.7 1.5 14.2 0 16 0s3.3 1.5 3.3 3.3v5.1zM14 13.7l4-4V3.3c0-1.1-.9-2-2-2s-2 .9-2 2zm2 13c-.4 0-.7.3-.7.7s.3.6.7.6.7-.3.7-.7-.3-.6-.7-.6m3.3.6c0-.9-.4-1.9-1.1-2.5l-.2-.2V11.5l-1.3 1.3v12.5c.8.3 1.3 1 1.3 1.9 0 1.1-.9 2-2 2s-2-.9-2-2c0-.9.6-1.6 1.3-1.9v-11L14 15.6v9c-.1.1-.2.1-.2.2-.7.6-1.1 1.5-1.1 2.5 0 1.8 1.5 3.3 3.3 3.3s3.3-1.4 3.3-3.3M8.5 22.5c0-.2-.2-1.6-2.5-1v.9c.7-.4 1.4-.2 1.4.5 0 .1-.7.7-1.5 1v.9h2.6V24H7.2c0-.6 1.3-.8 1.3-1.5M29.1 3.1c0 .2 0 .3-.1.5-.1.1-.3.4-1 .4h-.6c-1.1 0-1.3-.4-1.4-.5s-.1-.3-.1-.5c0-.7.5-.7.7-.8a.7.7 0 0 1-.6-.7c0-.8.8-.9 1-.9h1c.2 0 1 .3 1 .9 0 .2 0 .7-.6.8.1 0 .7.1.7.8m-2-1.5c0 .1 0 .2.1.3s.2.1.3.1.2 0 .3-.1.1-.2.1-.3 0-.4-.4-.4-.4.3-.4.4m.8 1.3c0-.1 0-.4-.4-.4-.3 0-.4.3-.4.4s0 .4.4.4c.5 0 .4-.3.4-.4M4 22.3h-.8v.8h-.8v.8h.8v.8H4v-.8h.8v-.8H4zM1.7 3C1 3 .5 2.5.5 1.8.5 1.2 1 .7 1.7.7s1.2.5 1.2 1.1c0 .7-.5 1.2-1.2 1.2m.6-1.1c0-.3-.3-.6-.6-.6s-.6.3-.6.6.3.6.6.6.6-.3.6-.6"/>
</svg>
