<?xml version="1.0" encoding="UTF-8"?>
<svg id="a" data-name="3219" xmlns="http://www.w3.org/2000/svg" viewBox="0 0 48 48">
  <path d="M34.54,0v3.29H5.73c-1.3,0-2.41.97-2.6,2.25L.05,26.61v.14c-.01,1.75,1.41,3.17,3.16,3.17h11.47l-1.48,10.36v.14c0,4.88,2.22,7.57,6.27,7.57,1.08,0,2.06-.67,2.46-1.67l8.41-16.4h4.2v3.29h13.5V0h-13.5ZM29.11,27.92l-8.99,17.54-.05.11c-.09.25-.34.43-.61.43-1.05,0-4.26,0-4.28-5.5l1.51-10.59h3.89c.55,0,1-.45,1-1s-.45-1-1-1h-9.71s-.08.02-.12.02H3.2c-.62,0-1.13-.49-1.16-1.1L5.11,5.81c.04-.3.31-.53.62-.53h28.81v22.64h-5.42ZM46.04,31.2h-9.5V1.99h9.5v29.21Z" fill="#1e1e1c"/>
</svg>