<?xml version="1.0" encoding="UTF-8"?>
<svg id="a" data-name="3219" xmlns="http://www.w3.org/2000/svg" viewBox="0 0 24 24">
  <path d="M9.55,17.23h-2.75v-2.75h2.75v2.75ZM18.57,15.55l-.5.5v2.68l-5.4,5.28h0s0,0,0,0H0v-12.66h0,0s6.24-5.45,6.24-5.45h5.67C12,2.63,14.67,0,17.95,0s6.05,2.71,6.05,6.05c0,4.02-5.21,9.27-5.43,9.49ZM13.65,6.06c0,2.38,2.7,5.85,4.3,7.6,1.6-1.76,4.3-5.22,4.3-7.6s-1.93-4.3-4.3-4.3-4.3,1.93-4.3,4.3ZM2.66,11.35h3.16l3.67-3.7h-2.59l-4.24,3.7ZM10.92,13.1H1.76v9.16h9.16v-9.16ZM13,9.76c-.36-.7-.67-1.41-.86-2.12h-.18l-3.67,3.7h3.14l1.57-1.59ZM16.32,17.99v-3.53c-.68-.77-1.58-1.88-2.4-3.13l-1.25,1.26v8.98l3.65-3.57ZM17.95,8.54c-1.35,0-2.45-1.1-2.45-2.45s1.1-2.45,2.45-2.45,2.45,1.1,2.45,2.45-1.1,2.45-2.45,2.45ZM17.95,6.79c.39,0,.7-.32.7-.7s-.32-.7-.7-.7-.7.32-.7.7.32.7.7.7Z" fill="#1e1e1c"/>
</svg>