<?xml version="1.0" encoding="UTF-8"?>
<svg id="a" data-name="3219" xmlns="http://www.w3.org/2000/svg" viewBox="0 0 64 64">
  <path d="M26.01,44.48h-5.98v-5.98h5.98v5.98ZM48.28,43.97l-.97.97v5.18l-14.58,13.89-.28-.29v.3H0V31.56h.23l-.21-.23,16.45-14.73h14.13C30.68,7.44,38.14.02,47.3.02s16.7,7.49,16.7,16.71c0,11.39-15.08,26.61-15.73,27.25ZM33.35,16.72c0,8.7,10.63,20.75,13.95,24.29,3.31-3.54,13.95-15.59,13.95-24.29,0-7.69-6.26-13.95-13.95-13.95s-13.95,6.26-13.95,13.95ZM3.89,31.56h10.68l12.91-12.21h-9.96L3.89,31.56ZM29.69,34.31H2.75v26.95h26.94v-26.95ZM34.1,27.92c-1.45-2.66-2.6-5.41-3.15-8.06l-12.37,11.7h11.92l3.61-3.64ZM44.55,48.94v-6.84c-2.18-2.38-5.94-6.76-9.02-11.72l-3.09,3.12v26.98l12.11-11.54ZM47.3,23.01c-3.42,0-6.2-2.78-6.2-6.21s2.78-6.21,6.2-6.21,6.21,2.78,6.21,6.21-2.78,6.21-6.21,6.21ZM47.3,20.26c1.9,0,3.45-1.55,3.45-3.45s-1.55-3.46-3.45-3.46-3.45,1.55-3.45,3.46,1.55,3.45,3.45,3.45Z" fill="#1e1e1c"/>
</svg>