<?xml version="1.0" encoding="UTF-8"?>
<svg id="a" data-name="3219" xmlns="http://www.w3.org/2000/svg" viewBox="0 0 16 16">
  <path d="M6.11,11.72h-1.8v-1.82h1.8v1.82ZM12.59,10.12l-.44.45v1.86l-3.52,3.57h0s-8.58,0-8.58,0V7.35h.02,0s4.16-3.58,4.16-3.58h3.9C8.24,1.67,9.95,0,12.07,0s3.98,1.8,3.98,4.01c0,2.56-3.1,5.76-3.45,6.11ZM9.58,4.01c0,1.37,1.5,3.36,2.49,4.49.99-1.12,2.49-3.12,2.49-4.49s-1.12-2.51-2.49-2.51-2.49,1.13-2.49,2.51ZM2.35,7.35h1.41l2.33-2.08h-1.32l-2.42,2.08ZM7.14,8.85H1.53v5.65h5.61v-5.65ZM7.58,7.35l1.11-1.13c-.15-.31-.27-.62-.37-.93l-2.31,2.06h1.57ZM10.66,11.81v-2.66c-.37-.43-.8-.98-1.2-1.59l-.83.84v5.46l2.03-2.06ZM12.07,5.34c.72,0,1.3-.59,1.3-1.31s-.59-1.32-1.3-1.32-1.3.59-1.3,1.32.59,1.31,1.3,1.31Z" fill="#1e1e1c"/>
</svg>