<?xml version="1.0" encoding="UTF-8"?>
<svg id="a" data-name="3219" xmlns="http://www.w3.org/2000/svg" viewBox="0 0 16 16">
  <path d="M2.77,7.46H0l3.36-2.77h2.56l-3.14,2.77ZM0,8.96h7.04v7.04H0v-7.04ZM3.63,12.39h1.88v-1.88h-1.88v1.88ZM8.54,8.45v7.1l2.73-2.84v-2.52c-.54-.62-1.28-1.52-1.95-2.53l-.78.79ZM7.89,4.69h-.44l-3.07,2.77h3.04l1.13-1.14c-.28-.54-.51-1.09-.66-1.64ZM15.99,3.4c0,1.88-2.12,4.61-3.4,6.02-.91-1.01-2.23-2.68-2.93-4.23h0s0,0,0,0c-.28-.63-.47-1.25-.47-1.79C9.2,1.52,10.72,0,12.6,0s3.4,1.53,3.4,3.4ZM13.88,3.42c0-.71-.57-1.28-1.28-1.28s-1.28.58-1.28,1.28.57,1.28,1.28,1.28,1.28-.58,1.28-1.28Z" fill="#1e1e1c"/>
</svg>