<?xml version="1.0" encoding="UTF-8"?>
<svg id="a" data-name="3219" xmlns="http://www.w3.org/2000/svg" viewBox="0 0 40 40">
  <path d="M19.49,17.55c4.84,0,8.77-3.94,8.77-8.77S24.33,0,19.49,0s-8.77,3.94-8.77,8.77,3.94,8.77,8.77,8.77ZM19.49,2.25c3.6,0,6.52,2.93,6.52,6.52s-2.93,6.52-6.52,6.52-6.52-2.93-6.52-6.52,2.93-6.52,6.52-6.52ZM24.71,24.24h-14.68c-4.3,0-7.8,3.5-7.8,7.8v7.96H-.02v-7.96C-.02,26.5,4.49,21.99,10.03,21.99h14.68v2.25ZM10.72,32.04h2.25v7.96h-2.25v-7.96ZM39.98,32.34l-7.32,7.32c-.22.22-.51.33-.8.33s-.58-.11-.8-.33c-.44-.44-.44-1.15,0-1.59l4.61-4.61h-14.37v-2.25h14.37l-4.61-4.61c-.44-.44-.44-1.15,0-1.59.44-.44,1.15-.44,1.59,0l7.32,7.32Z" fill="#1e1e1c"/>
</svg>