<?xml version="1.0" encoding="UTF-8"?>
<svg id="a" data-name="3219" xmlns="http://www.w3.org/2000/svg" viewBox="0 0 24 24">
  <path d="M11.82,10.85c3,0,5.44-2.43,5.44-5.42S14.82,0,11.82,0s-5.44,2.43-5.44,5.42,2.44,5.42,5.44,5.42ZM11.82,1.76c2.03,0,3.68,1.65,3.68,3.67s-1.65,3.67-3.68,3.67-3.68-1.65-3.68-3.67,1.65-3.67,3.68-3.67ZM14.93,14.83H6.18c-2.45,0-4.44,1.99-4.44,4.43v4.74H-.02v-4.74C-.02,15.86,2.76,13.08,6.18,13.08h8.75v1.75ZM6.39,19.27h1.75v4.74h-1.75v-4.74ZM23.98,19.36l-4.39,4.38c-.17.17-.4.26-.62.26s-.45-.08-.62-.26c-.34-.34-.34-.9,0-1.24l2.28-2.27h-7.76v-1.75h7.76l-2.28-2.27c-.34-.34-.34-.9,0-1.24.34-.34.9-.34,1.24,0l4.39,4.38Z" fill="#1e1e1c"/>
</svg>