<?xml version="1.0" encoding="UTF-8"?>
<svg id="a" data-name="3219" xmlns="http://www.w3.org/2000/svg" viewBox="0 0 16 16">
  <path d="M7.95,7.48c2.05,0,3.71-1.67,3.71-3.73S10,.01,7.95.01s-3.71,1.67-3.71,3.73,1.67,3.73,3.71,3.73ZM7.95,2.52c.67,0,1.22.55,1.22,1.23s-.55,1.23-1.22,1.23-1.22-.55-1.22-1.23.55-1.23,1.22-1.23ZM4.69,10.63c-1.24,0-2.24,1.01-2.24,2.25v3.13H-.05v-3.13c0-2.62,2.12-4.76,4.73-4.76h4.74v2.5h-4.74ZM4.07,12.88h2.49v3.13h-2.49v-3.13ZM15.95,12.6l-3.01,3.02c-.24.24-.56.37-.88.37s-.64-.12-.88-.37c-.49-.49-.49-1.28,0-1.77h-3.4v-2.5h3.4c-.49-.49-.49-1.28,0-1.77s1.27-.49,1.76,0l3.01,3.02Z" fill="#1e1e1c"/>
</svg>