<?xml version="1.0" encoding="UTF-8"?>
<svg id="a" data-name="3219" xmlns="http://www.w3.org/2000/svg" viewBox="0 0 48 48">
  <path d="M23.47,21.04c5.79,0,10.5-4.68,10.5-10.44S29.26.15,23.47.15s-10.5,4.68-10.5,10.44,4.71,10.44,10.5,10.44ZM23.47,2.64c4.41,0,8,3.57,8,7.96s-3.59,7.95-8,7.95-8-3.57-8-7.95,3.59-7.96,8-7.96ZM29.77,29.08H12.02c-5.26,0-9.54,4.26-9.54,9.49v9.58H-.01v-9.58C-.01,31.97,5.39,26.6,12.02,26.6h17.75v2.49ZM12.97,38.57h2.5v9.58h-2.5v-9.58ZM47.99,38.78l-8.78,8.73c-.24.24-.56.36-.88.36s-.64-.12-.88-.36c-.49-.49-.49-1.27,0-1.76l5.76-5.73h-17.64v-2.49h17.64l-5.76-5.73c-.49-.49-.49-1.27,0-1.76s1.28-.49,1.77,0l8.78,8.73Z" fill="#1e1e1c"/>
</svg>