<?xml version="1.0" encoding="UTF-8"?>
<svg id="a" data-name="3219" xmlns="http://www.w3.org/2000/svg" viewBox="0 0 64 64">
  <path d="M31.01,27.37c7.55,0,13.7-6.14,13.7-13.69S38.56-.02,31.01-.02s-13.7,6.14-13.7,13.7,6.15,13.69,13.7,13.69ZM31.01,2.73c6.04,0,10.95,4.91,10.95,10.95s-4.91,10.95-10.95,10.95-10.95-4.91-10.95-10.95S24.97,2.73,31.01,2.73ZM39.41,38.15H15.75c-7.17,0-13.01,5.83-13.01,13v12.83H0v-12.83C0,42.46,7.07,35.4,15.75,35.4h23.66v2.75ZM17.31,51.15h2.75v12.83h-2.75v-12.83ZM64,51.75l-11.82,11.81c-.27.27-.62.4-.97.4s-.7-.13-.97-.4c-.54-.54-.54-1.41,0-1.94l8.5-8.5h-25.08v-2.75h25.08l-8.5-8.5c-.54-.54-.54-1.41,0-1.94.54-.54,1.41-.54,1.94,0l11.82,11.81Z" fill="#1e1e1c"/>
</svg>