<svg viewBox="0 0 32 28" xmlns="http://www.w3.org/2000/svg">
  <path
    fill="#fc0" stroke="#523178" stroke-width="1.5"
    d="M4.62 7.29001H3.87V8.04001V22V22.75H4.62H7.42H8.17V22V16.63H12.27V22V22.75H13.02H15.82H16.57V22V8.04001V7.29001H15.82H13.02H12.27V8.04001V12.93H8.17V8.04001V7.29001H7.42H4.62ZM20.8736 10.95H20.1236V11.7V22V22.75H20.8736H23.5536H24.3036V22V18.22C24.3036 17.8364 24.3164 17.4175 24.3424 16.9628L24.3424 16.9616C24.3658 16.5402 24.4355 16.1496 24.5483 15.7873C24.6633 15.4336 24.8234 15.182 25.0114 15.0025L25.0178 14.9965L25.0239 14.9903C25.1395 14.8748 25.3397 14.77 25.7336 14.77C26.2016 14.77 26.4609 14.8391 26.5856 14.9044L27.6836 15.4795V14.24V11.54V10.9194L27.0739 10.8033C26.7508 10.7417 26.4305 10.71 26.1136 10.71H26.1011L26.0886 10.7104C25.2856 10.7372 24.58 10.9969 24.0036 11.489V10.95H23.2536H20.8736Z"
  />
</svg>
