<?xml version="1.0" encoding="UTF-8"?>
<svg id="a" data-name="3219" xmlns="http://www.w3.org/2000/svg" viewBox="0 0 24 24">
  <path d="M6.1,11.88L0,17.98v-4.92l2.32-2.32c.71-.71,1.94-.71,2.64,0l1.14,1.14ZM1.08,9.5l-1.08,1.08v-3.94c.21-.47.33-.97.33-1.5s-.12-1.03-.33-1.5V1.22l.94.94,1.24-1.24L1.25,0h2.44C4.62.41,5.68.41,6.6,0h3.97l-1.06,1.06c-1.41,1.41-1.41,3.71,0,5.12l1.14,1.14-1.04,1.04-2.33-2.33-1.24,1.24,2.33,2.33-1.04,1.04-1.14-1.14c-1.41-1.41-3.71-1.41-5.12,0ZM2.36,3.59l2.42,2.42,1.24-1.24-2.42-2.42-1.24,1.24ZM20.39,14.58c.71.71,1.94.71,2.64,0l.97-.97v-6.24l-5.41,5.41,1.8,1.8ZM10.75,4.94l1.14,1.14L17.97,0h-4.92l-2.3,2.3c-.73.73-.73,1.91,0,2.64ZM23.35,2.65l.65-.65v2.9L4.9,24h2.47l5.42-5.42,1.8,1.8c.35.35.55.82.55,1.32s-.19.97-.55,1.32l-.98.98h2.43c1.18-1.42,1.12-3.53-.21-4.86l-1.8-1.8,1.04-1.04.78.78,1.24-1.24-.78-.78,1.04-1.04,1.8,1.8c1.33,1.33,3.43,1.39,4.85.22v6.71l-1.61-1.61-1.24,1.24,1.62,1.62h1.22s-24,0-24,0h0s2,0,2,0l1.68-1.68-1.24-1.24-2.44,2.44v-3.07L20.45,0h3.07l-1.41,1.41,1.24,1.24ZM17.14,18.37l2.42,2.42,1.24-1.24-2.42-2.42-1.24,1.24ZM8.22,17.78l-1.24-1.24-3.04,3.04,1.24,1.24,3.04-3.04ZM12.76,13.24l-1.24-1.24-3.04,3.04,1.24,1.24,3.04-3.04ZM17.31,8.7l-1.24-1.24-3.04,3.04,1.24,1.24,3.04-3.04ZM21.85,4.15l-1.24-1.24-3.04,3.04,1.24,1.24,3.04-3.04Z" fill="#1d1d1b"/>
</svg>