<?xml version="1.0" encoding="UTF-8"?>
<svg id="a" data-name="3219" xmlns="http://www.w3.org/2000/svg" viewBox="0 0 32 32">
  <path d="M19.11,32h-3.11C7.18,32,0,24.82,0,16,0,11.64,1.73,7.56,4.86,4.52,7.99,1.48,12.12-.12,16.49,0c8.55.26,15.51,7.7,15.51,16.6v6.58c0,2.83-2.3,5.13-5.13,5.13s-5.13-2.3-5.13-5.13v-.58c-2.02,1.77-4.81,2.52-7.55,1.97-3.28-.66-5.99-3.29-6.72-6.55-.6-2.68.02-5.42,1.71-7.51,1.69-2.09,4.24-3.3,6.89-3.26,4.78.04,8.67,4.14,8.67,9.14h0v6.8c0,1.17.95,2.12,2.12,2.12s2.12-.95,2.12-2.12v-6.58c0-7.29-5.65-13.39-12.59-13.6-3.57-.1-6.91,1.19-9.45,3.66s-3.95,5.78-3.95,9.33c0,7.17,5.83,13,13,13h3.11c.83,0,1.5.67,1.5,1.5s-.67,1.5-1.5,1.5ZM16,10.25c-1.75,0-3.37.78-4.47,2.14-1.11,1.38-1.52,3.19-1.12,4.96.48,2.12,2.24,3.83,4.38,4.27,1.94.39,3.85-.16,5.23-1.52.05-.04,1.73-1.64,1.73-3.71,0-3.3-2.61-6.11-5.69-6.14h-.05Z" fill="#1e1e1c"/>
</svg>