<?xml version="1.0" encoding="UTF-8"?>
<svg id="a" data-name="3219" xmlns="http://www.w3.org/2000/svg" viewBox="0 0 64 64">
  <path d="M38.32,64h-6.32C14.36,64,0,49.64,0,32,0,23.27,3.45,15.12,9.72,9.03,15.98,2.95,24.23-.25,32.98.01c17.1.51,31.02,15.42,31.02,33.22v13.38c0,5.45-4.43,9.88-9.88,9.88s-9.88-4.43-9.88-9.88v-2.46c-.12.12-.2.2-.23.22-4.03,3.95-9.87,5.66-15.57,4.51-6.47-1.3-11.8-6.49-13.25-12.91-1.19-5.28.04-10.68,3.37-14.82,3.3-4.09,8.19-6.43,13.43-6.43.05,0,.11,0,.16,0,9.42.09,17.09,8.18,17.09,18.04h0v13.83c0,2.68,2.18,4.87,4.87,4.87s4.87-2.18,4.87-4.87v-13.38c0-15.12-11.73-27.78-26.16-28.21-7.37-.23-14.34,2.48-19.63,7.61-5.28,5.13-8.19,12.01-8.19,19.37,0,14.88,12.11,26.99,26.99,26.99h6.32c1.38,0,2.51,1.12,2.51,2.51s-1.12,2.51-2.51,2.51ZM32,19.76c-3.72,0-7.19,1.66-9.53,4.56-2.37,2.93-3.23,6.78-2.38,10.56,1.02,4.52,4.78,8.18,9.34,9.1,4.13.83,8.19-.35,11.13-3.24.09-.08,3.67-3.48,3.68-7.95,0-7.13-5.44-12.97-12.13-13.04-.04,0-.08,0-.11,0Z" fill="#1e1e1c"/>
</svg>