<?xml version="1.0" encoding="UTF-8"?>
<svg id="a" data-name="3219" xmlns="http://www.w3.org/2000/svg" viewBox="0 0 32 32">
  <path d="M19.21,32h-3.21C7.18,32,0,24.82,0,16,0,11.64,1.73,7.56,4.86,4.52,7.99,1.48,12.12-.12,16.49,0c8.55.26,15.51,7.71,15.51,16.62v6.81c0,2.62-2.13,4.75-4.75,4.75s-4.75-2.13-4.75-4.75v-1.96c-.31.37-.54.59-.57.62-2.02,1.98-4.83,2.8-7.68,2.23-3.19-.64-5.81-3.2-6.52-6.36-.59-2.6.02-5.27,1.66-7.3,1.64-2.04,4.06-3.16,6.7-3.17,4.64.04,8.42,4.03,8.42,8.9h0v7.03c0,1.52,1.23,2.75,2.75,2.75s2.75-1.23,2.75-2.75v-6.81c0-7.84-6.09-14.39-13.57-14.62-3.81-.13-7.44,1.29-10.18,3.94-2.74,2.66-4.25,6.23-4.25,10.05,0,7.72,6.28,14,14,14h3.21c.55,0,1,.45,1,1s-.45,1-1,1ZM16,9.5c-1.98,0-3.82.88-5.06,2.42-1.26,1.56-1.72,3.6-1.27,5.6.54,2.4,2.54,4.35,4.97,4.83,2.19.44,4.34-.19,5.91-1.72.04-.04,1.95-1.84,1.95-4.24,0-3.77-2.89-6.87-6.44-6.9h-.06Z" fill="#1e1e1c"/>
</svg>