<?xml version="1.0" encoding="UTF-8"?>
<svg id="a" data-name="3219" xmlns="http://www.w3.org/2000/svg" viewBox="0 0 24 24">
  <path d="M14.25,24h-2.25C5.38,24,0,18.62,0,12c0-3.27,1.29-6.33,3.64-8.61C5.99,1.11,9.08-.12,12.37,0c6.41.19,11.63,5.77,11.63,12.43v4.76c0,2.27-1.85,4.13-4.13,4.13-2.14,0-3.9-1.64-4.11-3.72-1.47.99-3.33,1.37-5.15,1.01-2.54-.51-4.62-2.54-5.19-5.06-.47-2.06.02-4.17,1.32-5.79s3.23-2.53,5.32-2.51c3.69.03,6.69,3.19,6.69,7.03h0v4.92c0,.62.5,1.12,1.12,1.12s1.12-.5,1.12-1.12v-4.76c0-5.06-3.91-9.29-8.72-9.43-2.45-.07-4.78.83-6.54,2.54-1.76,1.71-2.73,4-2.73,6.46,0,4.96,4.04,9,9,9h2.25c.83,0,1.5.67,1.5,1.5s-.67,1.5-1.5,1.5ZM12,8.25c-1.14,0-2.2.51-2.92,1.4-.74.91-.99,2.06-.73,3.24.31,1.38,1.46,2.49,2.85,2.77,1.27.26,2.51-.11,3.42-.99.04-.04,1.13-1.08,1.13-2.39,0-2.17-1.7-4.01-3.71-4.03h-.04Z" fill="#1e1e1c"/>
</svg>