<?xml version="1.0" encoding="UTF-8"?>
<svg id="a" data-name="3219" xmlns="http://www.w3.org/2000/svg" viewBox="0 0 40 40">
  <path d="M24.25,28.33v-4.01c2.02,0,3.66-1.65,3.66-3.67s-1.64-3.67-3.66-3.67v-4.01c4.22,0,7.66,3.44,7.66,7.68s-3.44,7.68-7.66,7.68ZM24.25,4.9v4.01c6.46,0,11.72,5.27,11.72,11.75s-5.26,11.75-11.72,11.75v4.01c8.67,0,15.72-7.07,15.72-15.75s-7.05-15.75-15.72-15.75ZM-.03,13.46v12.95c0,1.73,1.4,3.13,3.12,3.13h4.14V10.33H3.09C1.37,10.33-.03,11.73-.03,13.46ZM9.73,30.04l11.73,9.9V-.06l-11.73,9.92v20.18Z" fill="#1e1e1c"/>
</svg>