<?xml version="1.0" encoding="UTF-8"?>
<svg id="a" data-name="3219" xmlns="http://www.w3.org/2000/svg" viewBox="0 0 48 48">
  <path d="M29.25,33.86v-4.48c2.5,0,4.54-2.03,4.54-4.53s-2.04-4.53-4.54-4.53v-4.48c4.98,0,9.03,4.04,9.03,9.01s-4.05,9.01-9.03,9.01ZM29.25,6.22v4.48c7.83,0,14.19,6.35,14.19,14.16s-6.37,14.16-14.19,14.16v4.48c10.3,0,18.68-8.36,18.68-18.64S39.55,6.22,29.25,6.22ZM-.07,16.48v15.05c0,2.2,1.79,3.98,3.99,3.98h5.4V12.49H3.92C1.72,12.49-.07,14.28-.07,16.48ZM12.06,36.43l13.36,11.57V0l-13.36,11.59v24.84Z" fill="#1e1e1c"/>
</svg>