<svg width="58" height="50" viewBox="0 0 58 50" fill="none" xmlns="http://www.w3.org/2000/svg">
<path d="M0 0H58V50H0V0Z" fill="white"/>
<path d="M45.438 23.3478V20.1738H49.417V23.3478H52.476V26.0848H49.417V30.2708C49.417 31.8348 49.992 32.3868 51.211 32.3868C51.717 32.3868 52.108 32.2948 52.522 32.1568V35.0318C51.901 35.2158 51.119 35.3768 50.245 35.3768C46.933 35.3768 45.438 33.9968 45.438 30.8458V26.0848H43.207V23.3478H45.438Z" fill="#FFCC00"/>
<path d="M52.476 26.0848V23.3478H49.417V20.1738H45.438V23.3478H43.207V26.0848H45.438V30.8458L45.4424 31.1357C45.5302 33.9865 46.9408 35.2917 49.9395 35.373L50.245 35.3768C51.119 35.3768 51.901 35.2158 52.522 35.0318V32.1568C52.108 32.2948 51.717 32.3868 51.211 32.3868C49.992 32.3868 49.417 31.8348 49.417 30.2708V26.0848H52.476ZM51.8174 20.9482H54.876V28.4844H51.8174V29.8613L54.9219 28.8271V36.8242L53.2041 37.333C52.4277 37.563 51.4099 37.7764 50.2451 37.7764C48.3238 37.7764 46.3906 37.3867 44.958 36.043C43.4913 34.6673 43.0381 32.7582 43.0381 30.8457V28.4844H40.8066V20.9482H43.0381V17.7734H51.8174V20.9482Z" fill="black"/>
<path d="M39.2805 34.111C37.7165 34.847 35.3935 35.399 33.0935 35.399C28.1945 35.399 24.3535 32.593 24.3535 27.28C24.3535 22.013 28.2405 19 33.8295 19C35.4165 19 37.1875 19.184 38.2915 19.483V23.025C37.1875 22.611 35.7385 22.266 33.9905 22.266C31.1155 22.266 28.6085 23.554 28.6085 27.303C28.6085 30.822 30.8855 32.133 33.1625 32.133C34.0365 32.133 34.9105 32.018 35.4855 31.834V29.005H31.8055V25.808H39.2805V34.111Z" fill="#FFCC00"/>
<path d="M38.2915 19.483C37.1875 19.184 35.4165 19 33.8295 19C28.2405 19 24.3535 22.013 24.3535 27.28L24.3643 27.7705C24.5867 32.6045 28.1092 35.2266 32.6377 35.3906L33.0935 35.399C35.3935 35.399 37.7165 34.847 39.2805 34.111V25.808H31.8055V29.005H35.4855V31.834C34.9105 32.018 34.0365 32.133 33.1625 32.133C30.8855 32.133 28.6085 30.822 28.6085 27.303C28.6085 23.554 31.1155 22.266 33.9905 22.266C35.7385 22.266 37.1875 22.611 38.2915 23.025V19.483ZM40.6914 23.4082H41.6807V35.6338L40.3027 36.2822C38.3987 37.1782 35.7237 37.7988 33.0938 37.7988C30.2057 37.7988 27.4167 36.9708 25.3125 35.1436C23.1636 33.2773 21.9532 30.5602 21.9531 27.2803C21.9531 24.0081 23.1868 21.2416 25.4463 19.332C27.6568 17.4639 30.6256 16.5997 33.8291 16.5996C35.5372 16.5996 37.5382 16.7921 38.9189 17.166L40.6914 17.6465V23.4082Z" fill="black"/>
<path d="M9.255 35.1239H5L10.543 19.2539H15.764L21.353 35.1239H16.96L15.856 31.4899H10.382L9.255 35.1239ZM11.394 28.2469H14.867L13.142 22.6349L11.394 28.2469Z" fill="#FFCC00"/>
<path d="M13.876 16.8535H17.4629L24.7432 37.5234H15.1807L14.0771 33.8896H12.1504L11.0234 37.5234H1.61914L8.83887 16.8535H12.4287L13.1572 14.5156L13.876 16.8535ZM10.543 19.2539L5 35.1239H9.255L10.382 31.4899H15.856L16.96 35.1239H21.353L15.764 19.2539H10.543ZM14.867 28.2469H11.394L13.142 22.6349L14.867 28.2469Z" fill="black"/>
<path d="M6 9H19V17H6V9Z" fill="white"/>
<path d="M0 0H58V50H0V0Z" fill="white"/>
<path d="M45.438 23.3478V20.1738H49.417V23.3478H52.476V26.0848H49.417V30.2708C49.417 31.8348 49.992 32.3868 51.211 32.3868C51.717 32.3868 52.108 32.2948 52.522 32.1568V35.0318C51.901 35.2158 51.119 35.3768 50.245 35.3768C46.933 35.3768 45.438 33.9968 45.438 30.8458V26.0848H43.207V23.3478H45.438Z" fill="#FFCC00"/>
<path d="M52.476 26.0848V23.3478H49.417V20.1738H45.438V23.3478H43.207V26.0848H45.438V30.8458L45.4424 31.1357C45.5302 33.9865 46.9408 35.2917 49.9395 35.373L50.245 35.3768C51.119 35.3768 51.901 35.2158 52.522 35.0318V32.1568C52.108 32.2948 51.717 32.3868 51.211 32.3868C49.992 32.3868 49.417 31.8348 49.417 30.2708V26.0848H52.476ZM51.8174 20.9482H54.876V28.4844H51.8174V29.8613L54.9219 28.8271V36.8242L53.2041 37.333C52.4277 37.563 51.4099 37.7764 50.2451 37.7764C48.3238 37.7764 46.3906 37.3867 44.958 36.043C43.4913 34.6673 43.0381 32.7582 43.0381 30.8457V28.4844H40.8066V20.9482H43.0381V17.7734H51.8174V20.9482Z" fill="black"/>
<path d="M39.2805 34.111C37.7165 34.847 35.3935 35.399 33.0935 35.399C28.1945 35.399 24.3535 32.593 24.3535 27.28C24.3535 22.013 28.2405 19 33.8295 19C35.4165 19 37.1875 19.184 38.2915 19.483V23.025C37.1875 22.611 35.7385 22.266 33.9905 22.266C31.1155 22.266 28.6085 23.554 28.6085 27.303C28.6085 30.822 30.8855 32.133 33.1625 32.133C34.0365 32.133 34.9105 32.018 35.4855 31.834V29.005H31.8055V25.808H39.2805V34.111Z" fill="#FFCC00"/>
<path d="M38.2915 19.483C37.1875 19.184 35.4165 19 33.8295 19C28.2405 19 24.3535 22.013 24.3535 27.28L24.3643 27.7705C24.5867 32.6045 28.1092 35.2266 32.6377 35.3906L33.0935 35.399C35.3935 35.399 37.7165 34.847 39.2805 34.111V25.808H31.8055V29.005H35.4855V31.834C34.9105 32.018 34.0365 32.133 33.1625 32.133C30.8855 32.133 28.6085 30.822 28.6085 27.303C28.6085 23.554 31.1155 22.266 33.9905 22.266C35.7385 22.266 37.1875 22.611 38.2915 23.025V19.483ZM40.6914 23.4082H41.6807V35.6338L40.3027 36.2822C38.3987 37.1782 35.7237 37.7988 33.0938 37.7988C30.2057 37.7988 27.4167 36.9708 25.3125 35.1436C23.1636 33.2773 21.9532 30.5602 21.9531 27.2803C21.9531 24.0081 23.1868 21.2416 25.4463 19.332C27.6568 17.4639 30.6256 16.5997 33.8291 16.5996C35.5372 16.5996 37.5382 16.7921 38.9189 17.166L40.6914 17.6465V23.4082Z" fill="black"/>
<path d="M9.255 35.1239H5L10.543 19.2539H15.764L21.353 35.1239H16.96L15.856 31.4899H10.382L9.255 35.1239ZM11.394 28.2469H14.867L13.142 22.6349L11.394 28.2469Z" fill="#FFCC00"/>
<path d="M13.876 16.8535H17.4629L24.7432 37.5234H15.1807L14.0771 33.8896H12.1504L11.0234 37.5234H1.61914L8.83887 16.8535H12.4287L13.1572 14.5156L13.876 16.8535ZM10.543 19.2539L5 35.1239H9.255L10.382 31.4899H15.856L16.96 35.1239H21.353L15.764 19.2539H10.543ZM14.867 28.2469H11.394L13.142 22.6349L14.867 28.2469Z" fill="black"/>
<path d="M6 9H19V17H6V9Z" fill="white"/>
</svg>
