<svg width="58" height="50" viewBox="0 0 58 50" fill="none" xmlns="http://www.w3.org/2000/svg">
<rect width="58" height="50" fill="white"/>
<mask id="path-2-outside-1_209_87" maskUnits="userSpaceOnUse" x="15" y="8" width="27" height="32" fill="black">
<rect fill="white" x="15" y="8" width="27" height="32"/>
<path d="M38.3513 36.42C37.5538 36.6858 36.6354 36.8912 35.5963 37.0363C34.5813 37.1813 33.53 37.2538 32.4425 37.2538C30.4125 37.2538 28.5517 36.9637 26.86 36.3837C25.1683 35.8037 23.7183 34.9579 22.51 33.8462C21.3017 32.7346 20.3592 31.3812 19.6825 29.7862C19.03 28.1912 18.7038 26.3787 18.7038 24.3487C18.7038 22.3912 19.0421 20.615 19.7188 19.02C20.3954 17.425 21.3258 16.0717 22.51 14.96C23.7183 13.8242 25.1442 12.9542 26.7875 12.35C28.4308 11.7458 30.2071 11.4437 32.1163 11.4437C33.2038 11.4437 34.2308 11.5042 35.1975 11.625C36.1642 11.7458 37.1792 11.9875 38.2425 12.35L37.88 16.7362C36.9617 16.3254 36.0796 16.0354 35.2338 15.8662C34.4121 15.6729 33.5058 15.5762 32.515 15.5762C31.2583 15.5762 30.1104 15.7696 29.0713 16.1562C28.0563 16.5187 27.1742 17.0625 26.425 17.7875C25.7 18.5125 25.1321 19.4187 24.7213 20.5062C24.3346 21.5696 24.1413 22.8021 24.1413 24.2037C24.1413 25.6054 24.3588 26.8621 24.7938 27.9737C25.2288 29.0612 25.8208 29.9796 26.57 30.7287C27.3433 31.4779 28.2375 32.0458 29.2525 32.4325C30.2917 32.8192 31.4033 33.0125 32.5875 33.0125C33.5058 33.0125 34.4121 32.9521 35.3062 32.8312C36.2004 32.6862 37.155 32.4204 38.17 32.0337L38.3513 36.42Z"/>
</mask>
<path d="M38.3513 36.42C37.5538 36.6858 36.6354 36.8912 35.5963 37.0363C34.5813 37.1813 33.53 37.2538 32.4425 37.2538C30.4125 37.2538 28.5517 36.9637 26.86 36.3837C25.1683 35.8037 23.7183 34.9579 22.51 33.8462C21.3017 32.7346 20.3592 31.3812 19.6825 29.7862C19.03 28.1912 18.7038 26.3787 18.7038 24.3487C18.7038 22.3912 19.0421 20.615 19.7188 19.02C20.3954 17.425 21.3258 16.0717 22.51 14.96C23.7183 13.8242 25.1442 12.9542 26.7875 12.35C28.4308 11.7458 30.2071 11.4437 32.1163 11.4437C33.2038 11.4437 34.2308 11.5042 35.1975 11.625C36.1642 11.7458 37.1792 11.9875 38.2425 12.35L37.88 16.7362C36.9617 16.3254 36.0796 16.0354 35.2338 15.8662C34.4121 15.6729 33.5058 15.5762 32.515 15.5762C31.2583 15.5762 30.1104 15.7696 29.0713 16.1562C28.0563 16.5187 27.1742 17.0625 26.425 17.7875C25.7 18.5125 25.1321 19.4187 24.7213 20.5062C24.3346 21.5696 24.1413 22.8021 24.1413 24.2037C24.1413 25.6054 24.3588 26.8621 24.7938 27.9737C25.2288 29.0612 25.8208 29.9796 26.57 30.7287C27.3433 31.4779 28.2375 32.0458 29.2525 32.4325C30.2917 32.8192 31.4033 33.0125 32.5875 33.0125C33.5058 33.0125 34.4121 32.9521 35.3062 32.8312C36.2004 32.6862 37.155 32.4204 38.17 32.0337L38.3513 36.42Z" fill="#FFCC00"/>
<path d="M38.3513 36.42L39.211 38.9992L41.1522 38.3522L41.0677 36.3078L38.3513 36.42ZM35.5963 37.0363L35.2205 34.3436L35.2118 34.3448L35.5963 37.0363ZM26.86 36.3837L27.7418 33.812L27.7418 33.812L26.86 36.3837ZM22.51 33.8462L24.3507 31.8454L24.3507 31.8454L22.51 33.8462ZM19.6825 29.7862L17.1662 30.8157L17.1728 30.8319L17.1797 30.8481L19.6825 29.7862ZM19.7188 19.02L17.2159 17.9582L17.2159 17.9582L19.7188 19.02ZM22.51 14.96L24.3708 16.9422L24.3721 16.941L22.51 14.96ZM26.7875 12.35L27.7256 14.9018L27.7256 14.9018L26.7875 12.35ZM38.2425 12.35L40.952 12.5739L41.1266 10.4608L39.1198 9.77668L38.2425 12.35ZM37.88 16.7362L36.7698 19.218L40.2734 20.7854L40.5895 16.9602L37.88 16.7362ZM35.2338 15.8662L34.611 18.5127L34.6556 18.5232L34.7006 18.5322L35.2338 15.8662ZM29.0713 16.1562L29.9857 18.7166L30.0026 18.7106L30.0194 18.7043L29.0713 16.1562ZM26.425 17.7875L24.5343 15.8338L24.5183 15.8493L24.5026 15.8651L26.425 17.7875ZM24.7213 20.5062L22.1779 19.5454L22.172 19.5613L22.1662 19.5771L24.7213 20.5062ZM24.7938 27.9737L22.2619 28.9645L22.2657 28.974L22.2695 28.9835L24.7938 27.9737ZM26.57 30.7287L24.6476 32.6512L24.6628 32.6665L24.6783 32.6815L26.57 30.7287ZM29.2525 32.4325L28.2846 34.9731L28.2945 34.9769L28.3044 34.9806L29.2525 32.4325ZM35.3062 32.8312L35.6703 35.5255L35.706 35.5207L35.7414 35.5149L35.3062 32.8312ZM38.17 32.0337L40.8864 31.9215L40.7305 28.149L37.2021 29.4931L38.17 32.0337ZM37.4915 33.8408C36.8846 34.0431 36.1338 34.2162 35.2205 34.3436L35.972 39.7289C37.1371 39.5663 38.2229 39.3286 39.211 38.9992L37.4915 33.8408ZM35.2118 34.3448C34.3315 34.4706 33.4091 34.535 32.4425 34.535V39.9725C33.6509 39.9725 34.831 39.8919 35.9807 39.7277L35.2118 34.3448ZM32.4425 34.535C30.6725 34.535 29.1141 34.2825 27.7418 33.812L25.9782 38.9555C27.9892 39.645 30.1525 39.9725 32.4425 39.9725V34.535ZM27.7418 33.812C26.3738 33.3429 25.2585 32.6805 24.3507 31.8454L20.6693 35.8471C22.1782 37.2353 23.9629 38.2646 25.9782 38.9555L27.7418 33.812ZM24.3507 31.8454C23.4431 31.0104 22.7192 29.983 22.1853 28.7244L17.1797 30.8481C17.9991 32.7795 19.1602 34.4587 20.6693 35.8471L24.3507 31.8454ZM22.1988 28.7568C21.7016 27.5413 21.4225 26.0875 21.4225 24.3487H15.985C15.985 26.67 16.3584 28.8412 17.1662 30.8157L22.1988 28.7568ZM21.4225 24.3487C21.4225 22.7088 21.7048 21.3 22.2216 20.0818L17.2159 17.9582C16.3794 19.93 15.985 22.0737 15.985 24.3487H21.4225ZM22.2216 20.0818C22.7606 18.8113 23.4804 17.778 24.3708 16.9422L20.6492 12.9778C19.1712 14.3653 18.0302 16.0387 17.2159 17.9582L22.2216 20.0818ZM24.3721 16.941C25.2993 16.0694 26.4061 15.3869 27.7256 14.9018L25.8494 9.79824C23.8822 10.5214 22.1374 11.5789 20.6479 12.979L24.3721 16.941ZM27.7256 14.9018C29.0425 14.4176 30.4982 14.1625 32.1163 14.1625V8.725C29.9159 8.725 27.8192 9.07404 25.8494 9.79824L27.7256 14.9018ZM32.1163 14.1625C33.1038 14.1625 34.0175 14.2174 34.8603 14.3228L35.5347 8.92724C34.4442 8.79093 33.3037 8.725 32.1163 8.725V14.1625ZM34.8603 14.3228C35.6177 14.4174 36.4512 14.6117 37.3652 14.9233L39.1198 9.77668C37.9072 9.36329 36.7106 9.07423 35.5347 8.92724L34.8603 14.3228ZM35.533 12.1261L35.1705 16.5123L40.5895 16.9602L40.952 12.5739L35.533 12.1261ZM38.9902 14.2545C37.9168 13.7743 36.841 13.4151 35.7669 13.2003L34.7006 18.5322C35.3182 18.6557 36.0066 18.8765 36.7698 19.218L38.9902 14.2545ZM35.8565 13.2198C34.7991 12.971 33.6803 12.8575 32.515 12.8575V18.295C33.3314 18.295 34.0251 18.3749 34.611 18.5127L35.8565 13.2198ZM32.515 12.8575C30.9774 12.8575 29.5033 13.0946 28.1231 13.6082L30.0194 18.7043C30.7175 18.4445 31.5393 18.295 32.515 18.295V12.8575ZM28.1568 13.5959C26.7896 14.0842 25.5715 14.8301 24.5343 15.8338L28.3157 19.7412C28.7769 19.2949 29.3229 18.9533 29.9857 18.7166L28.1568 13.5959ZM24.5026 15.8651C23.4704 16.8972 22.7069 18.1453 22.1779 19.5454L27.2646 21.4671C27.5573 20.6922 27.9296 20.1278 28.3474 19.7099L24.5026 15.8651ZM22.1662 19.5771C21.6489 20.9998 21.4225 22.5581 21.4225 24.2037H26.86C26.86 23.0461 27.0203 22.1394 27.2763 21.4354L22.1662 19.5771ZM21.4225 24.2037C21.4225 25.8864 21.6839 27.4873 22.2619 28.9645L27.3256 26.983C27.0336 26.2369 26.86 25.3244 26.86 24.2037H21.4225ZM22.2695 28.9835C22.8267 30.3766 23.6118 31.6154 24.6476 32.6512L28.4924 28.8063C28.0299 28.3437 27.6308 27.7459 27.318 26.964L22.2695 28.9835ZM24.6783 32.6815C25.7189 33.6895 26.9281 34.4564 28.2846 34.9731L30.2204 29.8919C29.5469 29.6353 28.9678 29.2663 28.4617 28.776L24.6783 32.6815ZM28.3044 34.9806C29.667 35.4876 31.1018 35.7312 32.5875 35.7312V30.2937C31.7049 30.2937 30.9163 30.1507 30.2006 29.8844L28.3044 34.9806ZM32.5875 35.7312C33.6254 35.7312 34.6534 35.6629 35.6703 35.5255L34.9422 30.137C34.1708 30.2412 33.3862 30.2937 32.5875 30.2937V35.7312ZM35.7414 35.5149C36.8492 35.3353 37.9835 35.0142 39.1379 34.5744L37.2021 29.4931C36.3265 29.8267 35.5516 30.0372 34.8711 30.1476L35.7414 35.5149ZM35.4536 32.146L35.6348 36.5322L41.0677 36.3078L40.8864 31.9215L35.4536 32.146Z" fill="black" mask="url(#path-2-outside-1_209_87)"/>
</svg>
