<svg width="58" height="50" viewBox="0 0 58 50" fill="none" xmlns="http://www.w3.org/2000/svg">
<rect width="58" height="50" fill="white"/>
<mask id="path-2-outside-1_204_68" maskUnits="userSpaceOnUse" x="15" y="8" width="27" height="32" fill="black">
<rect fill="white" x="15" y="8" width="27" height="32"/>
<path d="M18.045 11.6975H23.1925V21.775H33.3425V11.6975H38.4538V37H33.3425V26.0525H23.1925V37H18.045V11.6975Z"/>
</mask>
<path d="M18.045 11.6975H23.1925V21.775H33.3425V11.6975H38.4538V37H33.3425V26.0525H23.1925V37H18.045V11.6975Z" fill="#FFCC00"/>
<path d="M18.045 11.6975V8.97875H15.3263V11.6975H18.045ZM23.1925 11.6975H25.9113V8.97875H23.1925V11.6975ZM23.1925 21.775H20.4738V24.4937H23.1925V21.775ZM33.3425 21.775V24.4937H36.0613V21.775H33.3425ZM33.3425 11.6975V8.97875H30.6238V11.6975H33.3425ZM38.4538 11.6975H41.1725V8.97875H38.4538V11.6975ZM38.4538 37V39.7188H41.1725V37H38.4538ZM33.3425 37H30.6238V39.7188H33.3425V37ZM33.3425 26.0525H36.0613V23.3337H33.3425V26.0525ZM23.1925 26.0525V23.3337H20.4738V26.0525H23.1925ZM23.1925 37V39.7188H25.9113V37H23.1925ZM18.045 37H15.3263V39.7188H18.045V37ZM18.045 14.4162H23.1925V8.97875H18.045V14.4162ZM20.4738 11.6975V21.775H25.9113V11.6975H20.4738ZM23.1925 24.4937H33.3425V19.0562H23.1925V24.4937ZM36.0613 21.775V11.6975H30.6238V21.775H36.0613ZM33.3425 14.4162H38.4538V8.97875H33.3425V14.4162ZM35.735 11.6975V37H41.1725V11.6975H35.735ZM38.4538 34.2812H33.3425V39.7188H38.4538V34.2812ZM36.0613 37V26.0525H30.6238V37H36.0613ZM33.3425 23.3337H23.1925V28.7712H33.3425V23.3337ZM20.4738 26.0525V37H25.9113V26.0525H20.4738ZM23.1925 34.2812H18.045V39.7188H23.1925V34.2812ZM20.7638 37V11.6975H15.3263V37H20.7638Z" fill="black" mask="url(#path-2-outside-1_204_68)"/>
</svg>
