<?xml version="1.0" encoding="UTF-8"?>
<svg id="a" data-name="3219" xmlns="http://www.w3.org/2000/svg" viewBox="0 0 48 48">
  <path d="M46.06,47.56c.52-.47,1.22-.7,1.95-.82v1.27h-2.34c.12-.16.24-.32.39-.45ZM48.02,35.28v3.61c-.54-.08-1.15-.15-1.79-.19-.69-.03-1.28.49-1.31,1.18-.04.69.49,1.28,1.18,1.31.71.04,1.36.13,1.93.22v2.78c-1.26.14-2.56.55-3.61,1.48-.69.62-1.2,1.4-1.54,2.33h-9.2c-.54-2.45-1.31-7.87,1.58-10.98,2.31-2.49,6.63-3.06,12.77-1.75ZM41.43,40.52c-.39-.57-1.17-.71-1.74-.32-1.33.92-2.25,2.23-2.73,3.89-.19.66.19,1.36.85,1.55.12.03.23.05.35.05.54,0,1.04-.35,1.2-.9.32-1.11.9-1.94,1.75-2.53.57-.39.71-1.17.32-1.74ZM13.51,33.34C9.79,29.54,4.14,28.62.02,28.53v4.36c3.19.76,6.47,2.19,9.05,4.82,2.56,2.62,4.08,6.07,4.56,10.3h3.73c.65-6.47-.63-11.4-3.83-14.67ZM.02,43.37v4.65h3.62c-.34-1.32-.92-2.44-1.78-3.31-.55-.56-1.18-.99-1.84-1.34ZM.02,35.49v5.13c1.3.51,2.56,1.25,3.62,2.34,1.31,1.34,2.17,3.04,2.58,5.06h4.89c-.45-3.54-1.72-6.4-3.82-8.54-2.03-2.08-4.64-3.29-7.27-3.98ZM9.51,10.1C12.11,7.49,12.47,3.22,12.31.01h-2.94c-.1.59-.24,1.26-.45,1.97-.16.54-.66.89-1.2.89-.12,0-.24-.02-.36-.05-.66-.2-1.04-.9-.83-1.56.13-.44.23-.86.31-1.25H.02v7.92c.15-.28.41-.5.73-.6,1.16-.35,2.18-.9,3.03-1.64.53-.45,1.32-.39,1.76.13.45.52.39,1.31-.13,1.76-1.12.96-2.44,1.68-3.94,2.13-.12.04-.24.05-.36.05-.46,0-.88-.27-1.1-.68v3.23c4.26.54,7.46-.2,9.5-2.24ZM43.27,26.82c1.51,0,3.1-.09,4.75-.26v6.16c-6.82-1.36-11.73-.48-14.61,2.63-3.48,3.75-2.91,9.6-2.3,12.67h-3.84c.06-.45.11-.9.16-1.34.07-.69-.44-1.3-1.13-1.36-.69-.07-1.3.44-1.36,1.13-.05.51-.11,1.04-.18,1.57h-4.9c.66-7.12-.86-12.64-4.57-16.43C10.94,27.14,4.58,26.1.02,26.01v-11.14c.88.1,1.73.16,2.54.16,3.71,0,6.64-1.06,8.74-3.17C14.49,8.63,14.99,3.69,14.82.01h4.43c-.26,5.43.38,14.26,6.23,20.35,4.12,4.29,10.09,6.45,17.8,6.45ZM8.61,20.94c.11-.68-.34-1.33-1.03-1.44-1.32-.22-2.69-.38-4.1-.47-.71-.05-1.29.48-1.33,1.16-.05.69.48,1.28,1.16,1.33,1.32.09,2.62.24,3.85.44.07.01.14.02.21.02.6,0,1.13-.43,1.23-1.04ZM17.41,22.9c-1.17-.69-2.45-1.29-3.8-1.8-.65-.24-1.37.08-1.61.73-.24.65.08,1.37.73,1.61,1.22.46,2.37,1,3.42,1.62.2.12.42.17.63.17.43,0,.85-.22,1.08-.62.35-.6.15-1.36-.45-1.71ZM24.3,32.11c.6-.33.83-1.09.49-1.7-.69-1.26-1.51-2.43-2.45-3.49-.46-.52-1.25-.56-1.76-.11-.52.46-.57,1.25-.11,1.76.81.92,1.53,1.94,2.13,3.04.23.41.66.65,1.1.65.2,0,.41-.05.6-.15ZM27.54,40.49c-.1-1.44-.29-2.83-.57-4.13-.15-.67-.81-1.11-1.49-.96-.67.15-1.1.81-.96,1.49.26,1.19.43,2.46.52,3.77.04.66.59,1.17,1.25,1.17.03,0,.06,0,.08,0,.69-.05,1.21-.64,1.16-1.33ZM47.58,12.64c.14,0,.29-.02.43-.02v11.43c-9.35.99-16.32-.82-20.73-5.4C22.07,13.22,21.53,5.01,21.77.01h4.52c.21.37.59.64,1.04.65h.03c.46,0,.86-.27,1.07-.65h5.15c.25,2.87,1.13,6.25,3.59,8.82,2.42,2.53,5.91,3.8,10.4,3.8ZM30.39,8.61c-.51-1.08-.92-2.27-1.22-3.52-.16-.67-.83-1.09-1.5-.93-.67.16-1.09.83-.93,1.5.33,1.43.8,2.78,1.39,4.03.21.45.66.71,1.13.71.18,0,.36-.04.54-.12.62-.3.89-1.04.59-1.67ZM36.61,15.2c-1.1-.61-2.11-1.34-2.99-2.15-.5-.47-1.3-.44-1.77.07-.47.51-.44,1.3.07,1.77,1.03.95,2.2,1.8,3.48,2.51.19.11.4.16.61.16.44,0,.87-.23,1.09-.64.33-.6.12-1.36-.49-1.7ZM46.78,19.12c.07-.69-.44-1.3-1.13-1.36-1.33-.12-2.6-.33-3.78-.6-.67-.16-1.34.27-1.5.94-.16.67.26,1.34.94,1.5,1.29.3,2.67.52,4.11.65.04,0,.08,0,.12,0,.64,0,1.18-.49,1.24-1.13ZM41.35.01h-5.25c.23,2.39.97,5.1,2.89,7.1,2,2.09,5.04,3.08,9.02,3.01v-4.45c-1.87-.7-3.47-1.73-4.78-3.09-.76-.79-1.38-1.66-1.89-2.56ZM44.34.01c.22.29.45.57.71.84.83.86,1.83,1.54,2.96,2.08V.01h-3.67Z" fill="#1d1d1b"/>
</svg>