<?xml version="1.0" encoding="UTF-8"?>
<svg id="a" data-name="3219" xmlns="http://www.w3.org/2000/svg" viewBox="0 0 64 64">
  <path d="M11.43,53.2c2.72,2.79,4.46,6.4,5.22,10.8h-7.78c-.63-2.14-1.67-3.97-3.14-5.47-1.66-1.7-3.68-2.8-5.75-3.49v-7.8c4.1.93,8.27,2.71,11.45,5.97ZM58.58,0c.36.49.74.96,1.17,1.41,1.18,1.23,2.6,2.21,4.24,2.96V0h-5.41ZM20.18,44.65C14.58,38.91,5.93,37.77-.01,37.75v6.63c4.71.99,9.62,3,13.41,6.89,3.22,3.3,5.23,7.56,6.03,12.73h6.3c.62-8.44-1.23-14.93-5.54-19.35ZM60.42,64h3.57v-2.04c-1.05.15-2.08.5-2.87,1.21-.27.24-.49.52-.69.83ZM63.99,46.74v5.42c-.34-.05-.7-.1-1.08-.15-.75-.09-1.44.46-1.52,1.21-.08.75.46,1.44,1.21,1.52.5.06.96.13,1.39.2v4.26c-1.65.17-3.34.7-4.69,1.9-.86.77-1.5,1.74-1.93,2.89h-5.61c-.03-.41-.05-.81-.05-1.18,0-.73.05-1.41.15-2.04.12-.75-.39-1.45-1.14-1.57-.75-.12-1.45.39-1.57,1.14-.12.77-.18,1.6-.18,2.46,0,.38.03.79.05,1.19h-4.51c-.73-3.35-1.72-10.62,2.18-14.82,3.16-3.4,8.98-4.22,17.3-2.44ZM56.45,52.31c-1.61.4-3,1.08-4.12,2.02-.58.49-.66,1.35-.17,1.94.27.33.66.49,1.05.49.31,0,.62-.11.88-.32.79-.67,1.81-1.15,3.01-1.46.74-.18,1.19-.93,1-1.67-.18-.74-.93-1.19-1.67-1ZM57.59,35.48c2.04,0,4.18-.13,6.4-.36v8.8c-9.05-1.83-15.54-.69-19.32,3.38-4.56,4.92-3.79,12.66-2.98,16.69h-13.2c.63-9.16-1.48-16.3-6.33-21.27C15.84,36.26,6.41,34.98-.01,34.97v-7.39c.23.43.67.72,1.19.73,1.33.02,2.64.07,3.91.17.04,0,.07,0,.11,0,.71,0,1.31-.55,1.37-1.27.06-.76-.51-1.42-1.26-1.48-1.33-.1-2.71-.17-4.09-.18h-.02c-.53,0-.98.31-1.21.75v-6.75c1.18.14,2.32.22,3.4.22,4.86,0,8.69-1.38,11.42-4.14,4.22-4.25,4.85-10.8,4.61-15.65h6.49c-.08,1.68-.1,3.61.03,5.7.52,8.9,3.34,16.26,8.17,21.29,5.43,5.66,13.3,8.5,23.48,8.5ZM15.42,27.56c-1.28-.38-2.63-.71-4.01-.99-.74-.15-1.47.34-1.62,1.08-.15.75.34,1.47,1.08,1.62,1.3.26,2.56.57,3.76.92.13.04.26.06.39.06.59,0,1.14-.39,1.32-.98.22-.73-.2-1.49-.92-1.71ZM24.83,31.97c-1.12-.78-2.33-1.49-3.61-2.13-.68-.34-1.5-.06-1.85.61-.34.68-.07,1.51.61,1.85,1.16.58,2.26,1.23,3.27,1.93.24.17.51.25.78.25.44,0,.86-.21,1.13-.59.43-.62.28-1.48-.35-1.91ZM32.07,39.55c-.74-1.2-1.59-2.34-2.51-3.39-.5-.57-1.37-.63-1.94-.12s-.63,1.37-.12,1.94c.82.94,1.58,1.95,2.24,3.02.26.42.71.65,1.17.65.25,0,.5-.07.72-.21.65-.4.85-1.25.45-1.89ZM34.41,50.93c.09,0,.17,0,.26-.02.75-.14,1.23-.86,1.09-1.61-.27-1.39-.62-2.75-1.05-4.04-.24-.72-1.02-1.11-1.74-.87-.72.24-1.11,1.02-.87,1.74.39,1.17.71,2.41.96,3.69.13.66.7,1.12,1.35,1.12ZM36.46,57.03c0-.53,0-1.06-.03-1.57-.03-.76-.7-1.37-1.42-1.33-.76.03-1.35.66-1.33,1.42.02.48.02.98.02,1.48,0,.78-.02,1.58-.06,2.4-.04.76.55,1.4,1.3,1.44.02,0,.05,0,.07,0,.73,0,1.34-.57,1.37-1.31.04-.87.06-1.71.06-2.54ZM63.33,16.6c.21,0,.44-.01.66-.01v8.74c-.02.09-.03.17-.03.26s0,.18.03.26v6.51c-12.57,1.34-21.95-1.09-27.89-7.28-7.03-7.33-7.75-18.4-7.42-25.09h16.29c.32,3.78,1.47,8.25,4.72,11.63,3.17,3.31,7.75,4.97,13.64,4.97ZM37.72,9.22c.73-.19,1.17-.94.98-1.68-.31-1.19-.55-2.45-.7-3.75-.09-.75-.77-1.3-1.53-1.2-.75.09-1.29.77-1.2,1.53.17,1.42.43,2.8.77,4.12.16.62.72,1.03,1.33,1.03.12,0,.23-.01.35-.04ZM42.86,15.87c-.79-.94-1.49-1.98-2.1-3.08-.37-.67-1.2-.91-1.87-.54s-.91,1.2-.54,1.87c.69,1.25,1.5,2.44,2.39,3.51.27.33.66.5,1.06.5.31,0,.62-.1.88-.32.58-.49.66-1.35.18-1.94ZM50.31,21.42c-1.17-.53-2.28-1.14-3.29-1.82-.63-.42-1.48-.25-1.91.38-.42.63-.25,1.49.38,1.91,1.14.76,2.38,1.45,3.69,2.04.18.08.38.12.56.12.52,0,1.02-.3,1.25-.81.31-.69,0-1.51-.69-1.82ZM59.52,23.87c-1.31-.16-2.59-.38-3.8-.66-.74-.17-1.48.29-1.65,1.04s.29,1.48,1.04,1.65c1.3.3,2.67.53,4.07.71.06,0,.11,0,.17,0,.68,0,1.28-.51,1.36-1.21.09-.75-.45-1.44-1.2-1.53ZM55.31,0h-7.56c.3,3.26,1.3,6.99,3.93,9.74,2.74,2.85,6.87,4.22,12.31,4.1v-6.5c-2.44-.91-4.52-2.26-6.23-4.04-.98-1.02-1.79-2.14-2.45-3.3ZM-.01,57.98v6.02h5.96c-.51-1.37-1.22-2.57-2.18-3.55-1.09-1.12-2.4-1.9-3.78-2.47ZM-.01,16.81v-3.63c.14-.03.3-.04.44-.07.74-.16,1.22-.88,1.06-1.63-.15-.7-.8-1.16-1.5-1.08V0h9.4c-.04.21-.08.42-.13.64-.17.74.3,1.48,1.04,1.64.1.02.2.03.3.03.63,0,1.2-.43,1.34-1.07.1-.44.18-.85.24-1.25h4.48c.23,4.33-.25,10.14-3.8,13.71-2.77,2.79-7.09,3.83-12.87,3.1ZM4.48,10.19c.27.35.68.54,1.09.54.29,0,.59-.09.84-.28,1.16-.89,2.17-1.97,3.02-3.22.43-.63.26-1.48-.37-1.91-.63-.43-1.48-.26-1.91.37-.68,1.01-1.5,1.88-2.42,2.58-.6.46-.72,1.33-.25,1.93Z" fill="#1d1d1b"/>
</svg>