<?xml version="1.0" encoding="UTF-8"?>
<svg id="a" data-name="3219" xmlns="http://www.w3.org/2000/svg" viewBox="0 0 64 64">
  <path d="M51.67,43c-5.79,0-10.49,4.71-10.49,10.49s4.71,10.49,10.49,10.49,10.49-4.71,10.49-10.49-4.71-10.49-10.49-10.49ZM51.67,61.24c-4.27,0-7.74-3.47-7.74-7.74s3.47-7.74,7.74-7.74,7.74,3.47,7.74,7.74-3.47,7.74-7.74,7.74ZM10.55,43C4.76,43,.06,47.71.06,53.5s4.71,10.49,10.49,10.49,10.49-4.71,10.49-10.49-4.71-10.49-10.49-10.49ZM10.55,61.24c-4.27,0-7.74-3.47-7.74-7.74s3.47-7.74,7.74-7.74,7.74,3.47,7.74,7.74-3.47,7.74-7.74,7.74ZM46.72,36.42c-.3-.03-1.31-.08-2.62.11V2.9c0-.9-.73-1.63-1.62-1.63h-5.58c-.9,0-1.62.73-1.62,1.63v7.22C30.08.15,19.3,0,19.16,0H0v37.11h9.76c9.51,0,17.25,7.74,17.25,17.25v5.55h11.02v-11.76c0-3.22.85-5.61,2.52-7.12,2.44-2.2,5.93-1.86,5.96-1.86h17.49s0-2.74,0-2.74h-17.27ZM38.02,4.03h3.33v32.53l-3.33.42V4.03ZM19.16,2.74c.66,0,16.12.31,16.12,20.19v6.64h-8.38l-7.42-6.97H2.75V2.74h16.41ZM35.27,57.16h-5.53v-2.8c0-11.03-8.97-20-20-20H2.75v-9h15.64l7.42,6.97h9.46v24.83Z" fill="#1e1e1c"/>
</svg>