<?xml version="1.0" encoding="UTF-8"?>
<svg id="a" data-name="3219" xmlns="http://www.w3.org/2000/svg" viewBox="0 0 40 40">
  <path d="M39.02,33.02c0,3.72-3.03,6.75-6.75,6.75s-6.75-3.03-6.75-6.75,3.03-6.75,6.75-6.75,6.75,3.03,6.75,6.75ZM6.74,26.45C3.02,26.45-.01,29.47-.01,33.19s3.03,6.75,6.75,6.75,6.75-3.03,6.75-6.75-3.03-6.75-6.75-6.75ZM39.99,21.52v4h-11.21s-1.69-.15-2.79.86c-.77.7-1.16,1.89-1.16,3.52v8.4h-8.88v-4.46c0-4.95-4.03-8.98-8.98-8.98-1.25,0-4.95.02-4.95.02H.01S.01-.03.01-.03l12.51-.02c.09,0,6.85.1,10.31,6.13V1.59c0-.14.11-.25.25-.25h3.25c.14,0,.25.11.25.25v20.14c1.16-.27,2.14-.25,2.51-.22h10.9ZM4.01,3.96v9.91h8.34l4.58,4.3h3.9v-3.51c0-10.29-7.44-10.7-8.32-10.72l-8.5.02Z" fill="#1e1e1c"/>
</svg>