<?xml version="1.0" encoding="UTF-8"?>
<svg id="a" data-name="3219" xmlns="http://www.w3.org/2000/svg" viewBox="0 0 48 48">
  <path d="M46.64,39.99c0,4.42-3.6,8.02-8.03,8.02s-8.02-3.6-8.02-8.02,3.6-8.02,8.02-8.02,8.03,3.6,8.03,8.02ZM8.06,31.97C3.63,31.97.03,35.57.03,39.99s3.6,8.02,8.02,8.02,8.03-3.6,8.03-8.02-3.6-8.02-8.03-8.02ZM48,26.09v4.5h-13.36s-2.1-.19-3.49,1.07c-.96.88-1.45,2.34-1.45,4.36v9.96h-10.4v-5.23c0-6.08-4.95-11.02-11.03-11.02H0V.01h14.98c.11,0,8.37.12,12.47,7.57V1.49c0-.14.11-.25.25-.25h4.02c.14,0,.25.11.25.25v24.86c1.4-.33,2.58-.29,3.02-.26h13.01ZM4.5,4.51v12.31h10.28l5.51,5.17h4.9v-4.37c0-12.61-9.16-13.1-10.23-13.12H4.5Z" fill="#1e1e1c"/>
</svg>