<?xml version="1.0" encoding="UTF-8"?>
<svg id="a" data-name="3219" xmlns="http://www.w3.org/2000/svg" viewBox="0 0 24 24">
  <path d="M20.66,8.23h-2.78v-2.35C17.89,2.63,15.25-.01,12-.01s-5.89,2.64-5.89,5.89v2.35h-2.78c-.67,0-1.22.55-1.22,1.22v11.91c0,1.45,1.18,2.63,2.63,2.63h14.52c1.45,0,2.63-1.18,2.63-2.63v-11.91c0-.67-.55-1.22-1.22-1.22ZM7.86,5.88c0-2.28,1.86-4.14,4.14-4.14s4.14,1.86,4.14,4.14v2.35H7.86v-2.35ZM20.13,21.36c0,.48-.39.88-.88.88H4.74c-.48,0-.88-.39-.88-.88v-11.38h16.27v11.38ZM9.83,17.78c0,1.22.99,2.21,2.21,2.21s2.21-.99,2.21-2.21v-.84c.43-.51.67-1.16.67-1.83,0-1.59-1.29-2.88-2.88-2.88s-2.88,1.29-2.88,2.88c0,.67.24,1.32.67,1.83v.84ZM12.03,13.98c.62,0,1.13.51,1.13,1.13,0,.32-.13.61-.38.83l-.29.26v1.58c0,.25-.21.46-.46.46s-.46-.21-.46-.46v-1.58l-.29-.26c-.24-.22-.38-.51-.38-.83,0-.62.51-1.13,1.13-1.13Z" fill="#1e1e1c"/>
</svg>