<?xml version="1.0" encoding="UTF-8"?>
<svg id="a" data-name="3219" xmlns="http://www.w3.org/2000/svg" viewBox="0 0 16 16">
  <path d="M14.11,9.53V-.01H0v11.04h.02v2.67h3v-.75c0-2.21,1.77-4.01,3.94-4.01s3.94,1.8,3.94,4.01v.75h1.77l1.46-2.67h.37v.77c0,.41.34.75.75.75s.75-.34.75-.75v-2.26h-1.89ZM6.97,7.44c-1.73,0-3.27.82-4.26,2.09h-1.21V1.48h11.12v8.05h-1.41c-1-1.27-2.52-2.09-4.24-2.09ZM6.95,9.55c-1.77,0-3.2,1.44-3.2,3.22s1.44,3.22,3.2,3.22,3.2-1.44,3.2-3.22-1.44-3.22-3.2-3.22ZM6.95,14.49c-.94,0-1.71-.77-1.71-1.72s.77-1.72,1.71-1.72,1.71.77,1.71,1.72-.77,1.72-1.71,1.72ZM7.82,12.77c0,.48-.39.87-.87.87s-.87-.39-.87-.87.39-.87.87-.87.87.39.87.87Z" fill="#1e1e1c"/>
</svg>