<?xml version="1.0" encoding="UTF-8"?>
<svg id="a" data-name="3219" xmlns="http://www.w3.org/2000/svg" viewBox="0 0 16 16">
  <path d="M16,9.56v2.27c0,.41-.34.75-.75.75s-.75-.34-.75-.75v-.77h-.86l-1.46,2.67h-1.01c.02-.16.05-.32.05-.48,0-2.34-1.9-4.25-4.25-4.25s-4.25,1.9-4.25,4.25c0,.17.03.32.05.48H0V0h14.12v8.06h-1.94c-1.34-1.44-3.21-2.27-5.19-2.27s-3.78.8-5.11,2.19H0v1.5h2.55s.22-.26.22-.26c1.06-1.23,2.59-1.93,4.21-1.93s3.21.73,4.28,2.01l.23.27h2.63s0-.01,0-.01h1.88ZM9.72,13.25c0,1.51-1.23,2.75-2.75,2.75s-2.75-1.23-2.75-2.75,1.23-2.75,2.75-2.75,2.75,1.23,2.75,2.75ZM7.9,13.25c0-.51-.42-.92-.93-.92s-.93.42-.93.92.42.92.93.92.93-.42.93-.92Z" fill="#1e1e1c"/>
</svg>