<?xml version="1.0" encoding="UTF-8"?>
<svg id="a" data-name="3219" xmlns="http://www.w3.org/2000/svg" viewBox="0 0 64 64">
  <path d="M56.44,39.95V0H0v53.39h10.36v-1.38c0-9.76,7.82-17.69,17.42-17.69s17.42,7.94,17.42,17.69v1.38h6.13l5.84-10.69h4.06v4.69c0,.76.62,1.38,1.38,1.38s1.38-.62,1.38-1.38v-7.44h-7.56ZM2.75,50.64v-7.93h7.1c-1.22,2.41-2,5.09-2.19,7.93H2.75ZM27.78,31.57c-6.68,0-12.61,3.31-16.28,8.39H2.75V2.75h50.94v37.2h-9.63c-3.67-5.08-9.6-8.38-16.27-8.38ZM49.71,50.64h-1.8c-.19-2.84-.97-5.52-2.19-7.93h8.33l-4.34,7.93ZM27.71,37.96c-7.14,0-12.95,5.84-12.95,13.02s5.81,13.02,12.95,13.02,12.95-5.84,12.95-13.02-5.81-13.02-12.95-13.02ZM27.71,61.25c-5.62,0-10.2-4.61-10.2-10.27s4.57-10.27,10.2-10.27,10.2,4.6,10.2,10.27-4.57,10.27-10.2,10.27ZM27.71,46.05c-2.72,0-4.93,2.21-4.93,4.93s2.21,4.93,4.93,4.93,4.93-2.21,4.93-4.93-2.21-4.93-4.93-4.93ZM27.71,53.16c-1.2,0-2.18-.98-2.18-2.18s.98-2.18,2.18-2.18,2.18.98,2.18,2.18-.98,2.18-2.18,2.18Z" fill="#1e1e1c"/>
</svg>