<?xml version="1.0" encoding="UTF-8"?>
<svg id="a" data-name="3219" xmlns="http://www.w3.org/2000/svg" viewBox="0 0 48 48">
  <path d="M42.32,29.76V-.06H-.01v40.37H7.99v-1.25c0-7.22,5.76-13.09,12.85-13.09s12.85,5.87,12.85,13.09v1.25h4.72l4.38-8.04h2.7v3.31c0,.69.56,1.25,1.25,1.25s1.25-.56,1.25-1.25v-5.82h-5.67ZM2.49,37.8v-5.53h4.53c-.81,1.7-1.33,3.56-1.48,5.53h-3.05ZM20.84,23.46c-5.04,0-9.52,2.48-12.32,6.31H2.49V2.45h37.33v27.31h-6.66c-2.8-3.82-7.28-6.3-12.32-6.3ZM36.92,37.8h-.79c-.15-1.97-.67-3.83-1.48-5.53h5.28l-3.01,5.53ZM20.78,28.61c-5.29,0-9.59,4.34-9.59,9.67s4.3,9.67,9.59,9.67,9.59-4.34,9.59-9.67-4.3-9.67-9.59-9.67ZM20.78,45.44c-3.91,0-7.09-3.21-7.09-7.16s3.18-7.16,7.09-7.16,7.09,3.21,7.09,7.16-3.18,7.16-7.09,7.16ZM20.78,34.45c-2.1,0-3.81,1.72-3.81,3.83s1.71,3.83,3.81,3.83,3.81-1.72,3.81-3.83-1.71-3.83-3.81-3.83ZM20.78,39.6c-.72,0-1.31-.59-1.31-1.32s.59-1.32,1.31-1.32,1.31.59,1.31,1.32-.59,1.32-1.31,1.32Z" fill="#1e1e1c"/>
</svg>