<?xml version="1.0" encoding="UTF-8"?>
<svg id="a" data-name="3219" xmlns="http://www.w3.org/2000/svg" viewBox="0 0 32 32">
  <rect x=".02" y="0" width="32" height="32" fill="none"/>
  <path d="M16.26,5.58h-.39c-.92,0-4,.26-5.44,3.54-.46,1.05-.39,2.69-.33,4.07-.07,0-.2-.07-.26-.13-.2-.07-.39-.13-.59-.13-.66,0-1.44.46-1.64,1.18-.07.46,0,1.25,1.38,1.77.07.07.2.07.33.13s.52.2.66.26c0,0,0,.07-.07.13h0s-1.11,2.49-3.41,2.89c-.52.07-.92.59-.92,1.11,0,.13.07.26.07.39.26.66,1.11,1.51,2.69,1.77h0c.07.13.07.33.13.52.13.52.59.85,1.11.85.2,0,.39-.07.59-.07.26-.07.52-.13.92-.13.2,0,.39,0,.66.07.33.07.72.33,1.11.59.72.52,1.64,1.18,3.08,1.18h.26c1.44,0,2.36-.66,3.08-1.18.39-.33.79-.52,1.11-.59.2-.07.46-.07.66-.07.33,0,.59.07.92.13.26.07.39.07.59.07.52,0,.98-.33,1.11-.85.07-.2.07-.33.13-.52h0c1.57-.26,2.36-.72,2.69-1.38.07-.13.07-.26.07-.39,0-.52-.33-1.44-.92-1.51-2.3-.39-3.41-2.89-3.41-2.89h0c-.07-.07-.07-.13-.07-.13.13-.13.52-.26.66-.26.13-.07.26-.07.33-.13,1.18-.46,1.44-1.11,1.44-1.57,0-.59-.39-1.11-1.05-1.31-.2-.07-.39-.13-.66-.13-.2,0-.39,0-.66.13-.07,0-.13.07-.2.07.07-1.38.13-2.95-.33-4-1.44-3.28-4.52-3.48-5.44-3.48h0Z" fill="#010101"/>
</svg>