<?xml version="1.0" encoding="UTF-8"?>
<svg id="a" data-name="3219" xmlns="http://www.w3.org/2000/svg" viewBox="0 0 16 16">
  <rect x="0" y="0" width="16" height="16" fill="none"/>
  <path d="M8.12,2.79h-.2c-.46,0-2,.13-2.72,1.77-.23.52-.2,1.34-.16,2.03-.03,0-.1-.03-.13-.07-.1-.03-.2-.07-.3-.07-.33,0-.72.23-.82.59-.03.23,0,.62.69.89.03.03.1.03.16.07s.26.1.33.13c0,0,0,.03-.03.07h0s-.56,1.25-1.7,1.44c-.26.03-.46.3-.46.56,0,.07.03.13.03.2.13.33.56.75,1.34.89h0c.03.07.03.16.07.26.07.26.3.43.56.43.1,0,.2-.03.3-.03.13-.03.26-.07.46-.07.1,0,.2,0,.33.03.16.03.36.16.56.3.36.26.82.59,1.54.59h.13c.72,0,1.18-.33,1.54-.59.2-.16.39-.26.56-.3.1-.03.23-.03.33-.03.16,0,.3.03.46.07.13.03.2.03.3.03.26,0,.49-.16.56-.43.03-.1.03-.16.07-.26h0c.79-.13,1.18-.36,1.34-.69.03-.07.03-.13.03-.2,0-.26-.16-.72-.46-.75-1.15-.2-1.7-1.44-1.7-1.44h0s-.03-.07-.03-.07c.07-.07.26-.13.33-.13.07-.03.13-.03.16-.07.59-.23.72-.56.72-.79,0-.3-.2-.56-.52-.66-.1-.03-.2-.07-.33-.07-.1,0-.2,0-.33.07-.03,0-.07.03-.1.03.03-.69.07-1.48-.16-2-.72-1.64-2.26-1.74-2.72-1.74h0Z" fill="#010101"/>
</svg>