<?xml version="1.0" encoding="UTF-8"?>
<svg id="a" data-name="3219" xmlns="http://www.w3.org/2000/svg" viewBox="0 0 24 24">
  <path d="M.01.04v24h24V.04H.01ZM19.87,15.92c-.25.49-.84.84-2.02,1.03-.05.15-.05.25-.1.39-.1.39-.44.64-.84.64-.15,0-.25,0-.44-.05-.25-.05-.44-.1-.69-.1-.15,0-.34,0-.49.05-.25.05-.54.2-.84.44-.54.39-1.23.89-2.31.89h-.2c-1.08,0-1.77-.49-2.31-.89-.3-.2-.59-.39-.84-.44-.2-.05-.34-.05-.49-.05-.3,0-.49.05-.69.1-.15,0-.3.05-.44.05-.39,0-.74-.25-.84-.64-.05-.15-.05-.3-.1-.39-1.18-.2-1.82-.84-2.02-1.33,0-.1-.05-.2-.05-.3,0-.39.3-.79.69-.84,1.72-.3,2.56-2.16,2.56-2.16.05-.05.05-.1.05-.1-.1-.05-.39-.15-.49-.2-.1-.05-.2-.05-.25-.1-1.03-.39-1.08-.98-1.03-1.33.15-.54.74-.89,1.23-.89.15,0,.3.05.44.1.05.05.15.1.2.1-.05-1.03-.1-2.26.25-3.05,1.08-2.46,3.39-2.66,4.08-2.66h.3c.69,0,3,.15,4.08,2.61.34.79.3,1.97.25,3,.05,0,.1-.05.15-.05.2-.1.34-.1.49-.1.2,0,.34.05.49.1.49.15.79.54.79.98,0,.34-.2.84-1.08,1.18-.05.05-.15.05-.25.1-.1,0-.39.1-.49.2,0,0,0,.05.05.1,0,0,.84,1.87,2.56,2.16.44.05.69.74.69,1.13,0,.1,0,.2-.05.3Z" fill="#1d1d1b"/>
</svg>