<?xml version="1.0" encoding="UTF-8"?>
<svg id="a" data-name="3219" xmlns="http://www.w3.org/2000/svg" viewBox="0 0 64 64">
  <path d="M61.12,0H2.88C1.29,0,0,1.29,0,2.87v61.12h64V2.87C64,1.29,62.71,0,61.12,0ZM2.88,2.75h58.25c.07,0,.13.06.13.13v9.79H2.75V2.87c0-.07.06-.13.13-.13ZM2.75,61.25V15.41h58.5v45.84H2.75ZM5.62,7.94c0-1.07.87-1.95,1.95-1.95s1.95.87,1.95,1.95-.87,1.95-1.95,1.95-1.95-.87-1.95-1.95ZM11.12,7.94c0-1.07.87-1.95,1.95-1.95s1.95.87,1.95,1.95-.87,1.95-1.95,1.95-1.95-.87-1.95-1.95ZM32,30.77c-4.31,0-7.82,3.48-7.82,7.76s3.51,7.76,7.82,7.76,7.82-3.48,7.82-7.76-3.51-7.76-7.82-7.76ZM32,43.55c-2.8,0-5.07-2.25-5.07-5.01s2.28-5.01,5.07-5.01,5.07,2.25,5.07,5.01-2.28,5.01-5.07,5.01ZM45.96,23.77l-5.04,2.89c-.93-.69-1.94-1.27-3-1.73v-5.77h-11.84v5.77c-1.06.46-2.06,1.03-3,1.73l-5.05-2.89-5.93,10.17,5.01,2.86c-.08.61-.12,1.17-.12,1.73s.04,1.12.12,1.73l-5.01,2.86,5.93,10.17,5.05-2.89c.94.69,1.94,1.27,3,1.73v5.77h11.84v-5.77c1.06-.46,2.07-1.03,3-1.73l5.05,2.89,5.93-10.17-5.01-2.86c.08-.61.12-1.18.12-1.73s-.04-1.13-.12-1.73l5.01-2.87-5.93-10.17ZM44.02,36.33c.16.83.23,1.53.23,2.2s-.07,1.37-.23,2.2l-.18.96,4.27,2.44-3.16,5.42-4.32-2.47-.74.62c-1.14.97-2.43,1.71-3.82,2.2l-.92.32v4.93h-6.33v-4.93l-.92-.32c-1.39-.49-2.68-1.23-3.82-2.2l-.73-.62-4.32,2.47-3.16-5.42,4.27-2.44-.18-.96c-.15-.83-.23-1.53-.23-2.2s.07-1.37.23-2.2l.18-.96-4.27-2.44,3.16-5.42,4.32,2.47.73-.62c1.15-.97,2.43-1.71,3.82-2.2l.92-.32v-4.93h6.33v4.93l.92.32c1.39.49,2.68,1.23,3.82,2.2l.74.62,4.32-2.47,3.16,5.42-4.27,2.45.18.96Z" fill="#1e1e1c"/>
</svg>