<?xml version="1.0" encoding="UTF-8"?>
<svg id="a" data-name="3219" xmlns="http://www.w3.org/2000/svg" viewBox="0 0 24 24">
  <path d="M24,0H0v24h24v-1.75h-9.63v-7.67h9.63v-1.75h-9.63v-4.8h9.63v-1.75h-9.63V1.75h9.63V0ZM12.61,22.25H1.74v-7.67h10.87v7.67ZM12.61,12.82H1.74v-4.8h10.87v4.8ZM12.61,6.27H1.74V1.75h10.87v4.52ZM10.32,4.93h-2.26v-1.75h2.26v1.75ZM8.06,11.3v-1.75h2.26v1.75h-2.26ZM8.06,17.86v-1.75h2.26v1.75h-2.26ZM20.15,4.93v-1.75h2.26v1.75h-2.26ZM20.15,11.3v-1.75h2.26v1.75h-2.26ZM20.15,17.86v-1.75h2.26v1.75h-2.26Z" fill="#1e1e1c"/>
</svg>