<?xml version="1.0" encoding="UTF-8"?>
<svg id="a" data-name="3219" xmlns="http://www.w3.org/2000/svg" viewBox="0 0 32 32">
  <path d="M17.02,8.49V.02H.07s-.01,0-.01,0v8.47h16.96ZM10.72,4.35h3.04v2h-3.04v-2ZM.06,17.28h16.96v-6.79H.06v6.79ZM13.76,12.89v2h-3.04v-2h3.04ZM32.06,10.49h-13.04v6.79h13.04v-6.79ZM26.98,14.88v-2h3.04v2h-3.04ZM19.02,8.49h13.04V.02h-13.04v8.47ZM30.02,4.35v2h-3.04v-2h3.04ZM17.02,19.28H.06v12.75h16.96v-12.75ZM10.72,23.19v-2h3.04v2h-3.04ZM19.02,19.28v12.75h13.04v-.04h0v-12.7h-13.04ZM30.02,23.19h-3.04v-2h3.04v2Z" fill="#1e1e1c"/>
</svg>