<?xml version="1.0" encoding="UTF-8"?>
<svg id="a" data-name="3219" xmlns="http://www.w3.org/2000/svg" viewBox="0 0 16 16">
  <path d="M16,0H0v16H16v-1.5h-6.14v-4.51h6.14v-1.5h-6.14v-2.84h6.14v-1.5h-6.14V1.5h6.14V0ZM8.36,14.5H1.5v-4.51h6.86v4.51ZM8.36,8.49H1.5v-2.84h6.86v2.84ZM8.36,4.15H1.5V1.5h6.86v2.65ZM7.01,3.61h-1.5v-1.5h1.5v1.5ZM5.51,7.82v-1.5h1.5v1.5h-1.5ZM5.51,12.5v-1.5h1.5v1.5h-1.5ZM13.53,3.61v-1.5h1.5v1.5h-1.5ZM13.53,7.82v-1.5h1.5v1.5h-1.5ZM13.53,12.5v-1.5h1.5v1.5h-1.5Z" fill="#1e1e1c"/>
</svg>