<?xml version="1.0" encoding="UTF-8"?>
<svg id="a" data-name="3219" xmlns="http://www.w3.org/2000/svg" viewBox="0 0 32 32">
  <path d="M31.99,0H0V31.99H31.99v-2h-13.04v-10.77h13.04v-2h-13.04v-6.8h13.04v-2h-13.04V1.99h13.04V0ZM16.95,29.99H1.99v-10.77h14.96v10.77ZM16.95,17.23H1.99v-6.8h14.96v6.8ZM16.95,8.42H1.99V1.99h14.96v6.43ZM13.7,6.27h-3.04v-2h3.04v2ZM10.65,14.83v-2h3.04v2h-3.04ZM10.65,23.15v-2h3.04v2h-3.04ZM26.91,6.27v-2h3.04v2h-3.04ZM26.91,14.83v-2h3.04v2h-3.04ZM26.91,23.15v-2h3.04v2h-3.04Z" fill="#1e1e1c"/>
</svg>