<?xml version="1.0" encoding="UTF-8"?>
<svg id="a" data-name="3219" xmlns="http://www.w3.org/2000/svg" viewBox="0 0 64 64">
  <path d="M36.66,16.88h27.32V2.77h0V.02h-27.32v16.86ZM59.3,8.59v2.75h-6.09v-2.75h6.09ZM-.02,34.48h33.93v-14.85H-.02v14.85ZM26.77,25.68v2.75h-6.09v-2.75h6.09ZM33.91,16.88V.03H-.02v16.86h33.93ZM20.68,8.59h6.09v2.75h-6.09v-2.75ZM63.98,19.63h-27.32v14.85h27.32v-14.85ZM53.21,28.43v-2.75h6.09v2.75h-6.09ZM63.98,37.22h-27.32v26.8h27.32v-.04h0v-2.75h0v-24.02ZM59.3,45.06h-6.09v-2.75h6.09v2.75ZM33.91,64.02v-26.8H-.02v26.77H0v.03h33.92ZM20.68,42.31h6.09v2.75h-6.09v-2.75Z" fill="#1e1e1c"/>
</svg>