<?xml version="1.0" encoding="UTF-8"?>
<svg id="a" data-name="3219" xmlns="http://www.w3.org/2000/svg" viewBox="0 0 40 40">
  <path d="M-.01,21.48h21.21v-8.75H-.01v8.75ZM17,15.98v2.25h-3.8v-2.25h3.8ZM39.99,12.73h-16.54v8.75h16.54v-8.75ZM33.53,18.23v-2.25h3.8v2.25h-3.8ZM21.2,10.48V-.05h-4.71S-.01-.05-.01-.05v10.53h21.21ZM13.2,5.3h3.8v2.25h-3.8v-2.25ZM23.45-.05v10.53h16.54V-.05h0s-16.53,0-16.53,0ZM37.33,7.55h-3.8v-2.25h3.8v2.25ZM23.45,23.72v16.22h16.53s0,0,0,0v-16.22h-16.54ZM37.33,28.62h-3.8v-2.25h3.8v2.25ZM21.2,39.94v-16.22H-.01v16.22h0s21.21,0,21.21,0ZM13.2,26.37h3.8v2.25h-3.8v-2.25Z" fill="#1e1e1c"/>
</svg>