<?xml version="1.0" encoding="UTF-8"?>
<svg id="a" data-name="3219" xmlns="http://www.w3.org/2000/svg" viewBox="0 0 64 64">
  <path d="M64-.02H0V63.98H64v-2.76h-27.32s0-24.03,0-24.03h27.32v-2.75h-27.32s0-14.85,0-14.85h27.32v-2.75h-27.32s0-14.11,0-14.11h27.32V-.02ZM33.92,61.23H2.75s0-24.03,0-24.03h31.18s0,24.03,0,24.03ZM33.92,34.45H2.75s0-14.85,0-14.85h31.18s0,14.85,0,14.85ZM33.92,16.85H2.75s0-14.11,0-14.11h31.18s0,14.11,0,14.11ZM26.78,11.3h-6.09v-2.75h6.09v2.75ZM20.69,28.4v-2.75h6.09v2.75h-6.09ZM20.69,45.04v-2.75h6.09v2.75h-6.09ZM53.22,11.3v-2.75h6.09v2.75h-6.09ZM53.22,28.4v-2.75h6.09v2.75h-6.09ZM53.22,45.04v-2.75h6.09v2.75h-6.09Z" fill="#1e1e1c"/>
</svg>