<?xml version="1.0" encoding="UTF-8"?>
<svg id="a" data-name="3219" xmlns="http://www.w3.org/2000/svg" viewBox="0 0 32 32">
  <path d="M10.79,27.24s0,.03,0,.05c-.34,2.66-2.61,4.72-5.36,4.72C2.43,32.01,0,29.58,0,26.6c0-.17.01-.33.03-.5H.03s0,0,0,0c.03-.33.09-.66.18-.97,0-.01,0-.03.01-.04.09-.3.2-.59.34-.87.01-.02.02-.05.03-.07.14-.27.3-.52.48-.76.02-.03.04-.05.06-.08.18-.23.38-.45.59-.65.03-.03.05-.05.08-.08.22-.19.45-.37.69-.53.03-.02.06-.04.1-.06.25-.15.51-.29.79-.4.03-.01.06-.02.09-.03.28-.11.58-.2.88-.26.02,0,.04,0,.07,0,.32-.06.65-.09.98-.09,2.98,0,5.41,2.43,5.41,5.41,0,.22-.02.43-.04.64ZM30.09,20.59c.59.36,1.36.18,1.72-.41.36-.59.18-1.36-.41-1.72-1.52-.94-3.26-1.44-5.05-1.52l-.27-1.88c.43.31.96.49,1.52.49h1v-5.28h-1c-.84,0-1.59.4-2.07,1.02l-.37-2.56c-.11-1.17-1.07-2.05-2.24-2.05h-2.4c-.69,0-1.25.56-1.25,1.25s.56,1.25,1.25,1.25h2.18l1.15,7.92c-1.9.37-3.66,1.26-5.11,2.6v-2.14c0-.66-.32-1.23-.8-1.61l1.76-2.3h.3c.69,0,1.25-.56,1.25-1.25s-.56-1.25-1.25-1.25h-2.68v-3.99c0-.69-.56-1.25-1.25-1.25s-1.25.56-1.25,1.25v6.49h1.73l-1.43,1.87h-1.23V7.05h-6.13v1.02h-2v-1.02H0v10.31h.03c0,.06-.02.12-.02.18v4c1.35-1.45,3.28-2.36,5.41-2.36,4.09,0,7.41,3.33,7.41,7.41,0,.44-.05.87-.12,1.29h3.99c1.12,0,2.03-.91,2.03-2.03v-2.11c.42-.79.94-1.51,1.59-2.12,1.09-1.04,2.43-1.73,3.88-2.04l.27,1.89c-2.13.73-3.67,2.74-3.67,5.12,0,2.98,2.43,5.41,5.41,5.41s5.41-2.43,5.41-5.41c0-2.73-2.03-4.98-4.66-5.35l-.26-1.78c1.19.12,2.34.5,3.37,1.13ZM5.75,3.8h2v1.24h6.13V1.42C13.88.64,13.25,0,12.47,0H1.41C.63,0,0,.64,0,1.42v3.62h5.75v-1.24Z" fill="#1e1e1c"/>
</svg>