<?xml version="1.0" encoding="UTF-8"?>
<svg id="a" data-name="3219" xmlns="http://www.w3.org/2000/svg" viewBox="0 0 24 24">
  <path d="M17.94,0C14.6,0,11.89,2.72,11.89,6.06c0,1.85,1.11,3.96,2.32,5.72l-1.96-.3-2.92-6.22-2.92,6.22L0,12.46l4.64,4.76-1.11,6.79,5.8-3.21,5.8,3.21-1.11-6.79,2.48-2.54c.45.5.76.82.81.87l.62.62.62-.62c.22-.22,5.43-5.48,5.43-9.49C23.99,2.72,21.28,0,17.94,0ZM12.16,16.63l.67,4.1-3.5-1.93-3.5,1.93.67-4.1-2.88-2.95,3.98-.61,1.73-3.69,1.73,3.69,3.98.61-2.88,2.95ZM17.94,13.66c-1.6-1.76-4.3-5.22-4.3-7.6s1.93-4.3,4.3-4.3,4.3,1.93,4.3,4.3-2.7,5.85-4.3,7.6ZM17.94,3.63c-1.35,0-2.45,1.1-2.45,2.45s1.1,2.45,2.45,2.45,2.45-1.1,2.45-2.45-1.1-2.45-2.45-2.45ZM17.94,6.79c-.39,0-.7-.32-.7-.7s.32-.7.7-.7.7.32.7.7-.32.7-.7.7Z" fill="#1e1e1c"/>
</svg>