<?xml version="1.0" encoding="UTF-8"?>
<svg id="a" data-name="3219" xmlns="http://www.w3.org/2000/svg" viewBox="0 0 40 40">
  <path d="M29.84.04c-5.61,0-10.17,4.58-10.17,10.2,0,3.3,2.08,7.11,4.28,10.23l-4.22-.65-4.69-10.01-4.69,10.01L.01,21.41l7.48,7.69-1.78,10.94,9.33-5.17,9.33,5.17-1.78-10.94,4.5-4.63c1.06,1.22,1.85,2.02,1.96,2.13l.79.8.79-.8c.38-.38,9.38-9.48,9.38-16.36C40.01,4.61,35.45.04,29.84.04ZM20.19,28.33l1.22,7.48-6.36-3.53-6.36,3.53,1.22-7.48-5.22-5.36,7.2-1.1,3.16-6.75,3.16,6.75,7.2,1.1-5.22,5.36ZM29.84,24.16c-2.15-2.34-7.93-9.07-7.93-13.92,0-4.38,3.56-7.95,7.93-7.95s7.93,3.57,7.93,7.95c0,4.86-5.78,11.59-7.93,13.92ZM29.8,6.26c-2.19,0-3.98,1.79-3.98,3.99s1.78,3.99,3.98,3.99,3.98-1.79,3.98-3.99-1.78-3.99-3.98-3.99ZM29.8,11.98c-.95,0-1.73-.78-1.73-1.73s.78-1.73,1.73-1.73,1.73.78,1.73,1.73-.78,1.73-1.73,1.73Z" fill="#1e1e1c"/>
</svg>