<?xml version="1.0" encoding="UTF-8"?>
<svg id="a" data-name="3219" xmlns="http://www.w3.org/2000/svg" viewBox="0 0 16 16">
  <path d="M11.19,9.71l-1.6,1.64.76,4.65-3.97-2.2-3.97,2.2.76-4.65L0,8.09l4.38-.67,2-4.27,2,4.27,1.2.18c.55.82,1.13,1.55,1.61,2.1ZM12.7,9.16c-.14-.16-.3-.34-.46-.53h0s0,0,0,0c-1.23-1.46-2.84-3.71-2.84-5.33C9.4,1.48,10.88,0,12.7,0s3.3,1.48,3.3,3.3-2.05,4.47-3.3,5.86ZM11.25,3.32c0,.8.65,1.45,1.45,1.45s1.45-.65,1.45-1.45-.65-1.45-1.45-1.45-1.45.65-1.45,1.45Z" fill="#1e1e1c"/>
</svg>