<?xml version="1.0" encoding="UTF-8"?>
<svg id="a" data-name="3219" xmlns="http://www.w3.org/2000/svg" viewBox="0 0 32 32">
  <path d="M27.67,6.47H2.05v-2h25.63v2ZM10.51,13.01H2.05v2h7.51c.24-.71.56-1.38.96-2ZM2.05,21.55v2h8.79c-.44-.62-.82-1.29-1.1-2H2.05ZM31.84,28.86c0,.69-.27,1.33-.75,1.81-.48.48-1.13.75-1.81.75h0c-.68,0-1.33-.27-1.81-.75l-5.24-5.25c-1.17.61-2.49.96-3.9.96-4.67,0-8.48-3.8-8.48-8.48s3.8-8.48,8.48-8.48,8.48,3.8,8.48,8.48c0,1.4-.35,2.72-.95,3.89l5.25,5.25c.48.48.75,1.13.75,1.81ZM18.32,24.39c3.57,0,6.48-2.91,6.48-6.48s-2.91-6.48-6.48-6.48-6.48,2.91-6.48,6.48,2.91,6.48,6.48,6.48ZM29.68,28.46l-4.98-4.98c-.25.28-.52.55-.8.8l4.98,4.98c.22.22.58.22.8,0,.22-.22.22-.58,0-.8Z" fill="#1e1e1c"/>
</svg>