<?xml version="1.0" encoding="UTF-8"?>
<svg id="a" data-name="3219" xmlns="http://www.w3.org/2000/svg" viewBox="0 0 64 64">
  <rect x="4.06" y="25.52" width="45.41" height="5" fill="#1e1e1c"/>
  <rect x="4.06" y="42.61" width="45.41" height="5" fill="#1e1e1c"/>
  <rect x="4.06" y="8.44" width="51.25" height="5" fill="#1e1e1c"/>
  <g>
    <path d="M51.83,36.49c0,7.86-6.37,14.24-14.24,14.24-7.86,0-14.24-6.37-14.24-14.24,0-7.86,6.37-14.24,14.24-14.24,7.86,0,14.24,6.37,14.24,14.24Z" fill="#fff"/>
    <path d="M37.59,55.73c-10.61,0-19.24-8.63-19.24-19.24s8.63-19.24,19.24-19.24,19.24,8.63,19.24,19.24-8.63,19.24-19.24,19.24ZM37.59,27.25c-5.09,0-9.24,4.14-9.24,9.24s4.14,9.24,9.24,9.24,9.24-4.14,9.24-9.24-4.14-9.24-9.24-9.24Z" fill="#fff"/>
  </g>
  <path d="M37.56,53.11c-9.17,0-16.62-7.46-16.62-16.62s7.46-16.62,16.62-16.62,16.62,7.46,16.62,16.62-7.46,16.62-16.62,16.62ZM37.56,24.87c-6.41,0-11.62,5.21-11.62,11.62s5.21,11.62,11.62,11.62,11.62-5.21,11.62-11.62-5.21-11.62-11.62-11.62Z" fill="#1e1e1c"/>
  <path d="M58.41,62.8c-1.47,0-2.85-.57-3.89-1.61l-10.84-10.84c-.98-.98-.98-2.56,0-3.54l4.24-4.24c.98-.98,2.56-.98,3.54,0l10.84,10.84c2.14,2.14,2.14,5.63,0,7.77-1.04,1.04-2.42,1.61-3.89,1.61Z" fill="#1e1e1c"/>
</svg>