<?xml version="1.0" encoding="UTF-8"?>
<svg id="a" data-name="3219" xmlns="http://www.w3.org/2000/svg" viewBox="0 0 32 32">
  <path d="M15.37,17.01c.46,1,1.08,1.93,2.04,2.81-1.31.23-2.2.58-3.51,1.08.39-.73,1.12-2.62,1.46-3.89ZM9.67,24.69c.65-.15,1.61-1.27,2.55-2.7l.19-.3-.63.37c-1.93,1.29-2.15,2.28-2.11,2.62ZM22.17,20.04c-.56-.17-1.81-.09-3.01.04,1.29.82,2.97,1.42,3.65.56,0-.04.04-.39-.64-.6ZM15.48,11.88c-.56.64-.21,2.66.04,3.57.39-1.42,1.07-2.92-.04-3.57ZM28.43,7.07v24.92H3.61V0h19.11l5.71,7.08ZM23.68,19.41c-.8-1.35-2.98-1.07-4.57-.86-.09.01-.18.02-.26.03-1.01-.7-1.79-1.81-2.19-2.73.44-1.32.86-2.57.46-3.86-.25-.95-1.07-1.56-1.9-1.45-.71.09-1.37.54-1.7,1.2-.37.84-.23,2.25.47,4.67-.45,1.29-1.26,2.85-2.08,4.2-3.21,1.62-3.66,2.73-3.72,3.43-.03.35.03,1.01.76,1.55.05.03.09.06.14.09.12.06.25.12.42.18.19.07.41.11.67.11.99,0,2.45-.69,4.09-3.76,1.27-.42,2.3-.69,3.55-.92,1.89,1.21,3.4,1.57,4.57,1.1.6-.2,1.15-.76,1.36-1.41,0-.03.02-.05.02-.08,0,0,0,0,0,0,.06-.25.21-.83-.11-1.47ZM26.07,8.07l-5.72-7.06v5.71c0,.74.6,1.35,1.35,1.35h4.37Z" fill="#1e1e1c"/>
</svg>