<?xml version="1.0" encoding="UTF-8"?>
<svg id="a" data-name="3219" xmlns="http://www.w3.org/2000/svg" viewBox="0 0 64 64">
  <path d="M23.55,44.15l1.27-.74-.38.6c-1.89,2.85-3.81,5.08-5.1,5.39-.09-.69.34-2.66,4.21-5.24ZM30.93,23.8c-1.12,1.29-.43,5.32.09,7.13.77-2.83,2.15-5.84-.09-7.13ZM30.72,34.05c-.69,2.54-2.16,6.31-2.93,7.78,2.62-1,4.39-1.69,7.01-2.16-1.92-1.77-3.16-3.62-4.08-5.62ZM56.76,14.06v49.99H7.42V.04h38.03l11.3,14.01ZM46.68,39.22c-1.35-2.28-5.41-1.74-8.38-1.36-.29.04-.57.07-.81.1-2.35-1.55-4.14-4.13-4.98-6.21l.06-.17c.9-2.68,1.68-4.99.93-7.36-.4-1.53-1.69-2.54-2.99-2.36-1.18.15-2.27.89-2.79,1.94-.85,1.95.11,5.85,1.03,9.03v.03c-.9,2.65-2.63,6.03-4.42,8.95-.02,0-.04.02-.06.03-6.9,3.45-7.08,5.59-7.14,6.3-.05.54.05,1.57,1.21,2.42.06.04.12.08.19.11.22.11.43.21.74.32.37.13.75.19,1.14.19,2.43,0,5.09-2.56,7.62-7.39,2.78-.94,5.04-1.52,7.78-2.02,3.67,2.41,6.55,3.15,8.74,2.27.8-.27,1.84-1.11,2.25-2.34.01-.04.02-.08.03-.12v-.02c.12-.44.35-1.37-.14-2.35ZM53.39,15.85L40.95,1.42v11.68c0,1.52,1.23,2.76,2.76,2.76h9.68ZM44.31,40.11c-1.12-.34-3.61-.17-6.01.09,2.58,1.63,5.93,2.83,7.3,1.12,0-.09.09-.77-1.29-1.2Z" fill="#1e1e1c"/>
</svg>