<?xml version="1.0" encoding="UTF-8"?>
<svg id="a" data-name="3219" xmlns="http://www.w3.org/2000/svg" viewBox="0 0 40 40">
  <path d="M19.39,19.27c-.32-1.13-.75-3.66-.05-4.46,1.4.81.54,2.69.05,4.46ZM12.08,30.84c.81-.19,2.01-1.59,3.19-3.37l.24-.37-.79.47c-2.42,1.61-2.69,2.85-2.63,3.28ZM17.37,26.1c1.64-.63,2.75-1.06,4.39-1.35-1.21-1.11-1.98-2.27-2.56-3.52-.43,1.59-1.35,3.95-1.83,4.87ZM35.5,8.75v31.18H4.54V-.07h23.85l7.11,8.82ZM29.5,24.29c-.96-1.62-3.64-1.27-5.59-1.01-.13.02-.26.03-.38.05-1.32-.9-2.33-2.35-2.84-3.55.58-1.72,1.08-3.21.58-4.8-.3-1.12-1.26-1.87-2.24-1.72-.85.11-1.63.64-2.02,1.42-.45,1.03-.27,2.77.61,5.8-.58,1.64-1.6,3.63-2.64,5.34-4,2-4.55,3.36-4.62,4.2-.03.41.04,1.19.89,1.82.05.04.11.07.16.1.15.08.3.15.51.22.22.08.49.13.8.13,1.2,0,3-.86,5.03-4.69,1.64-.55,2.95-.89,4.56-1.19,2.35,1.52,4.22,1.96,5.66,1.39.72-.24,1.37-.91,1.63-1.68.01-.03.02-.07.03-.1,0,0,0,0,0-.01.07-.29.25-.98-.13-1.73ZM32.88,9.96L25.48,1.06v7.2c0,.94.76,1.7,1.7,1.7h5.7ZM27.72,25.02c-.7-.22-2.26-.11-3.76.05,1.61,1.02,3.71,1.77,4.57.7,0-.05.05-.48-.81-.75Z" fill="#1e1e1c"/>
</svg>