<?xml version="1.0" encoding="UTF-8"?>
<svg id="a" data-name="3219" xmlns="http://www.w3.org/2000/svg" viewBox="0 0 16 16">
  <path d="M4.43,5.23c-.15-.49.12-1.01.61-1.16.09-.03.18-.04.28-.04.15,0,.29.04.43.11.22.11.38.31.45.54l.51,1.61h0l.31,1c-.11.06-.22.13-.33.22-.46.38-.72.9-.75,1.47,0,.15,0,.3.04.45-.18-.12-.32-.28-.39-.49l-1.16-3.71ZM2.11,7.36l.52,1.66c.15.49.67.75,1.16.61.24-.07.43-.24.54-.45s.14-.47.06-.7l-.62-1.99s0,0,0,0h0s-.04-.09-.07-.13c-.16-.31-.47-.51-.81-.51-.09,0-.18.01-.27.04-.49.15-.76.67-.61,1.16l.1.33h0ZM5.26,12.94c.54,0,1.03.22,1.41.58.26-.76.73-1.34,1.31-1.64l-1.35-1.31c-.05,0-.11.02-.16.02-.31,0-.61-.07-.89-.22-.21-.11-.4-.26-.55-.44-.24.31-.56.53-.94.65-.19.06-.38.09-.57.09-.56,0-1.08-.26-1.45-.68v1.97c0,1.89,1.54,3.43,3.44,3.43h.95s-.02-.05-.02-.08c0-.76-.53-1.37-1.18-1.37-.28,0-.5-.22-.5-.5s.22-.5.5-.5ZM13,.68c-.49-.1-.99.21-1.1.71l-1.25,5.29c-.05.23-.28.41-.5.38-.24,0-.44-.17-.48-.41l-1.11-5.86c-.04-.26-.17-.48-.37-.62-.2-.15-.44-.2-.69-.17-.25.04-.46.17-.61.37s-.21.44-.17.69l.6,3.91.64,2.03c.68-.06,1.39.15,1.88.64l2.59,2.34v-2.43c0-.07,0-.19,1.27-5.78.1-.5-.22-.99-.71-1.09ZM12.71,11.58l-.08-.08h0l-3.46-3.13c-.12-.12-.26-.21-.41-.27-.15-.06-.31-.1-.48-.11,0,0,0,0,0,0h0c-.34-.02-.69.07-.96.29-.09.07-.14.16-.2.24-.1.15-.18.31-.18.49,0,.13.02.26.07.38h0c.05.14.14.27.25.38l.4.39h0l2.81,2.74c.2.19.2.51,0,.71-.1.1-.23.15-.36.15s-.25-.05-.35-.14l-.98-.96c-.74.04-1.36,1.06-1.36,2.28,0,.02,0,.04-.01.06.01.1.03.2.03.31,0,.03-.01.06-.02.08h1.51c.11,0,.22.04.31.11.42.33.91.5,1.41.5,1.38,0,2.51-1.28,2.51-2.85,0-.56-.15-1.09-.43-1.56,0,0-.01,0-.02,0Z" fill="#1e1e1c"/>
</svg>