<?xml version="1.0" encoding="UTF-8"?>
<svg id="a" data-name="3219" xmlns="http://www.w3.org/2000/svg" viewBox="0 0 64 64">
  <path d="M19.21,23.81c-.31-.99-.22-2.05.26-2.97.48-.92,1.29-1.6,2.29-1.91.39-.12.78-.18,1.16-.18,1.66,0,3.2,1.07,3.72,2.73l1.77,5.64h0l1.38,4.4c-.52.26-1.02.57-1.47.95-1.59,1.31-2.51,3.11-2.59,5.07-.04.88.11,1.74.4,2.56-.24-.07-.48-.17-.71-.29-.92-.48-1.6-1.29-1.91-2.29l-.62-1.99s0,0,0,0l-3.67-11.72ZM17.45,40.02c.99-.31,1.8-.99,2.29-1.91.1-.2.18-.4.25-.61.03-.08.05-.17.07-.25.03-.12.05-.24.07-.35.04-.28.06-.56.04-.84,0,0,0,0,0,0h0c-.02-.3-.07-.61-.16-.9l-2.31-7.37c-.31-.99-.99-1.81-1.91-2.29-.57-.3-1.18-.45-1.8-.45-.39,0-.79.06-1.17.18-2.05.64-3.19,2.83-2.55,4.88l2.31,7.37c.64,2.05,2.83,3.19,4.88,2.55ZM52.71,2.07c-2.1-.45-4.17.9-4.62,3l-5.87,25.34c-.15.64-.75,1.06-1.38,1.06-.65-.02-1.2-.49-1.32-1.13l-4.82-27.06c-.33-2.12-2.31-3.57-4.44-3.24-2.12.32-3.58,2.32-3.26,4.44l2.91,18.25,2.5,7.99c2.5-.33,5.14.42,6.98,2.21l10.39,9.01v-9.65c0-.2,0-.66,5.92-25.61.44-2.1-.91-4.16-3-4.61ZM50,45.74s-.09-.04-.13-.07l-12.34-10.71c-.23-.22-.47-.41-.73-.58-.05-.03-.1-.07-.15-.1-.23-.14-.46-.27-.71-.37-.1-.05-.21-.09-.32-.13-.17-.06-.34-.12-.52-.16-.21-.06-.42-.1-.64-.14-.05,0-.1-.01-.16-.02-.35-.05-.71-.06-1.06-.04h0c-1.15.06-2.29.44-3.2,1.19-.98.81-1.54,1.89-1.59,3.07,0,.24.01.48.05.72.02.11.04.21.06.31.02.09.05.18.08.27.21.69.58,1.33,1.14,1.88l11.88,11.58c.54.53.56,1.4.03,1.94-.27.28-.63.42-.99.42s-.69-.13-.96-.39l-3.8-3.71s-.01,0-.02,0c-3.07,0-5.67,4.09-5.67,8.92,0,.07-.01.14-.02.21.05.38.08.76.08,1.15,0,.29-.09.56-.25.79h6.25c.31,0,.6.1.84.29,1.64,1.27,3.54,1.95,5.5,1.95,5.37,0,9.75-4.95,9.75-11.03,0-2.6-.82-5.06-2.36-7.11-.03-.03-.04-.08-.06-.11ZM22.75,52.66c2.11,0,4.02.95,5.4,2.48.96-3.29,2.95-5.78,5.45-6.75l-5.58-5.44c-.27.03-.54.06-.81.06-1.06,0-2.11-.25-3.07-.76-.99-.52-1.81-1.25-2.42-2.15-.84,1.2-2.04,2.09-3.46,2.54-.66.21-1.33.3-1.98.3-2.4,0-4.65-1.32-5.82-3.45v9.08c0,7.27,5.91,13.18,13.18,13.18h4.19c-.16-.22-.25-.49-.25-.79,0-3.07-2.17-5.56-4.84-5.56-.76,0-1.38-.62-1.38-1.38s.62-1.38,1.38-1.38Z" fill="#1e1e1c"/>
</svg>