<?xml version="1.0" encoding="UTF-8"?>
<svg id="a" data-name="3219" xmlns="http://www.w3.org/2000/svg" viewBox="0 0 64 64">
  <path d="M45.31,4.27c-.98-.98-.98-2.56,0-3.54s2.56-.98,3.54,0l15.17,15.18-15.17,15.18c-.49.49-1.13.73-1.77.73s-1.28-.24-1.77-.73c-.98-.98-.98-2.56,0-3.54l9.2-9.21h-5.21c-14.87,0-26.97,12.11-26.97,26.99v2.84h-5.01v-2.84c0-17.65,14.35-32,31.98-32h5.05l-9.05-9.05ZM58.97,58.99H8.84c-2.1,0-3.81-1.71-3.81-3.82V5.01h24.87V0H.02v55.18c0,4.87,3.96,8.82,8.82,8.82h55.14v-27.79h-5.01v22.78Z" fill="#1e1e1c"/>
</svg>