<?xml version="1.0" encoding="UTF-8"?>
<svg id="a" data-name="3219" xmlns="http://www.w3.org/2000/svg" viewBox="0 0 24 24">
  <path d="M17.09,1.5c-.34-.34-.34-.9,0-1.24.34-.34.9-.34,1.24,0l5.67,5.68-5.67,5.68c-.17.17-.4.26-.62.26s-.45-.09-.62-.26c-.34-.34-.34-.9,0-1.24l3.59-3.59h-2.13c-5.65,0-10.24,4.6-10.24,10.25v1.07h-1.75v-1.07c0-6.62,5.38-12,11.99-12h2.07l-3.53-3.53ZM22.24,22.25H3.26c-.83,0-1.51-.68-1.51-1.51V1.75h9.45V0H0v20.74c0,1.8,1.46,3.26,3.26,3.26h20.73v-10.41h-1.75v8.66Z" fill="#1e1e1c"/>
</svg>