<?xml version="1.0" encoding="UTF-8" standalone="no"?>
<svg
   width="1000"
   height="999.99689"
   viewBox="0 0 1000 999.99689"
   fill="none"
   version="1.1"
   id="svg24"
   sodipodi:docname="Microsoft_Edge.svg"
   inkscape:version="1.3.2 (091e20e, 2023-11-25, custom)"
   xmlns:inkscape="http://www.inkscape.org/namespaces/inkscape"
   xmlns:sodipodi="http://sodipodi.sourceforge.net/DTD/sodipodi-0.dtd"
   xmlns="http://www.w3.org/2000/svg"
   xmlns:svg="http://www.w3.org/2000/svg">
  <sodipodi:namedview
     id="namedview24"
     pagecolor="#ffffff"
     bordercolor="#000000"
     borderopacity="0.25"
     inkscape:showpageshadow="2"
     inkscape:pageopacity="0.0"
     inkscape:pagecheckerboard="0"
     inkscape:deskcolor="#d1d1d1"
     inkscape:zoom="0.50900159"
     inkscape:cx="500.98075"
     inkscape:cy="499.99844"
     inkscape:window-width="1366"
     inkscape:window-height="705"
     inkscape:window-x="-8"
     inkscape:window-y="-8"
     inkscape:window-maximized="1"
     inkscape:current-layer="svg24" />
  <g
     clip-path="url(#clip0)"
     id="g6"
     transform="scale(15.625)">
    <path
       d="m 57.7627,47.6333 c -0.8412,0.441 -1.7201,0.8355 -2.6333,1.1785 -2.7453,1.0313 -5.7771,1.6159 -8.9749,1.6159 -11.8303,0 -22.1358,-8.138 -22.1358,-18.5806 0,-2.9364 1.6988,-5.4815 4.1063,-6.8222 -10.6988,0.4485 -13.4491,11.6 -13.4491,18.1327 0,18.4681 17.0223,20.3424 20.6901,20.3424 1.9767,0 4.9602,-0.5757 6.7577,-1.1396 0.1096,-0.0365 0.2187,-0.0732 0.3277,-0.1108 6.9398,-2.3933 12.797,-7.1018 16.6471,-13.205 0.5521,-0.8753 -0.4188,-1.8921 -1.3358,-1.4113 z"
       fill="url(#paint0_linear)"
       id="path1"
       style="fill:url(#paint0_linear)" />
    <path
       opacity="0.35"
       d="m 57.7627,47.6333 c -0.8412,0.441 -1.7201,0.8355 -2.6333,1.1785 -2.7453,1.0313 -5.7771,1.6159 -8.9749,1.6159 -11.8303,0 -22.1358,-8.138 -22.1358,-18.5806 0,-2.9364 1.6988,-5.4815 4.1063,-6.8222 -10.6988,0.4485 -13.4491,11.6 -13.4491,18.1327 0,18.4681 17.0223,20.3424 20.6901,20.3424 1.9767,0 4.9602,-0.5757 6.7577,-1.1396 0.1096,-0.0365 0.2187,-0.0732 0.3277,-0.1108 6.9398,-2.3933 12.797,-7.1018 16.6471,-13.205 0.5521,-0.8753 -0.4188,-1.8921 -1.3358,-1.4113 z"
       fill="url(#paint1_radial)"
       id="path2"
       style="fill:url(#paint1_radial)" />
    <path
       d="m 26.4278,60.3533 c -2.2236,-1.3784 -4.1539,-3.1959 -5.6839,-5.3439 -2.3674,-3.3239 -3.7828,-7.4126 -3.7828,-11.8518 0,-6.5326 3.0419,-12.3187 7.7308,-15.9848 1.0649,-0.8325 2.4284,-1.6723 3.433,-2.1479 0.7802,-0.3693 2.1143,-1.0343 3.8864,-1.0092 2.9379,0.0417 5.1577,1.5395 6.4213,3.2406 0.9708,1.307 1.5695,2.9173 1.5895,4.6653 7e-4,-0.0526 6.116,-19.9011 -20.0123,-19.9011 C 9.03657,12.0205 0,22.4379 0,31.5743 0,37.3698 1.34483,41.9968 3.02864,45.5826 6.77879,53.5699 13.7331,59.752 22.2401,62.4758 c 3.0808,0.9864 6.3626,1.524 9.7712,1.524 3.5352,0 6.9327,-0.5814 10.1123,-1.6394 -1.7976,0.5639 -3.7032,0.8725 -5.6799,0.8725 -3.6678,0 -7.0863,-1.0637 -10.0159,-2.8796 z"
       fill="url(#paint2_linear)"
       id="path3"
       style="fill:url(#paint2_linear)" />
    <path
       opacity="0.41"
       d="m 26.4278,60.3533 c -2.2236,-1.3784 -4.1539,-3.1959 -5.6839,-5.3439 -2.3674,-3.3239 -3.7828,-7.4126 -3.7828,-11.8518 0,-6.5326 3.0419,-12.3187 7.7308,-15.9848 1.0649,-0.8325 2.4284,-1.6723 3.433,-2.1479 0.7802,-0.3693 2.1143,-1.0343 3.8864,-1.0092 2.9379,0.0417 5.1577,1.5395 6.4213,3.2406 0.9708,1.307 1.5695,2.9173 1.5895,4.6653 7e-4,-0.0526 6.116,-19.9011 -20.0123,-19.9011 C 9.03657,12.0205 0,22.4379 0,31.5743 0,37.3698 1.34483,41.9968 3.02864,45.5826 6.77879,53.5699 13.7331,59.752 22.2401,62.4758 c 3.0808,0.9864 6.3626,1.524 9.7712,1.524 3.5352,0 6.9327,-0.5814 10.1123,-1.6394 -1.7976,0.5639 -3.7032,0.8725 -5.6799,0.8725 -3.6678,0 -7.0863,-1.0637 -10.0159,-2.8796 z"
       fill="url(#paint3_radial)"
       id="path4"
       style="fill:url(#paint3_radial)" />
    <path
       d="m 38.0786,37.2144 c -0.2026,0.2623 -0.8259,0.6244 -0.8259,1.4159 0,0.6511 0.4251,1.2793 1.1805,1.8065 3.5951,2.5091 10.3714,2.1709 10.3895,2.1709 2.7975,-0.0097 5.3141,-0.779 7.5683,-2.0969 1.0256,-0.5997 1.9747,-1.3119 2.8305,-2.125 2.9369,-2.7907 4.7274,-6.7235 4.7771,-11.0932 0.0637,-5.6039 -1.99,-9.3294 -2.8342,-10.9791 C 55.8662,5.95899 44.4295,0 31.9945,0 14.4659,0 0.236746,14.0865 0.00152588,31.55 0.120356,22.4143 9.19996,15.0372 19.993,15.0372 c 0.8751,0 5.8655,0.0853 10.5013,2.5183 4.0836,2.1432 6.2246,4.7329 7.7126,7.302 1.5451,2.6674 1.8199,6.0365 1.8199,7.3797 0,1.3432 -0.6772,3.332 -1.9482,4.9772 z"
       fill="url(#paint4_radial)"
       id="path5"
       style="fill:url(#paint4_radial)" />
    <path
       d="m 38.0786,37.2144 c -0.2026,0.2623 -0.8259,0.6244 -0.8259,1.4159 0,0.6511 0.4251,1.2793 1.1805,1.8065 3.5951,2.5091 10.3714,2.1709 10.3895,2.1709 2.7975,-0.0097 5.3141,-0.779 7.5683,-2.0969 1.0256,-0.5997 1.9747,-1.3119 2.8305,-2.125 2.9369,-2.7907 4.7274,-6.7235 4.7771,-11.0932 0.0637,-5.6039 -1.99,-9.3294 -2.8342,-10.9791 C 55.8662,5.95899 44.4295,0 31.9945,0 14.4659,0 0.236746,14.0865 0.00152588,31.55 0.120356,22.4143 9.19996,15.0372 19.993,15.0372 c 0.8751,0 5.8655,0.0853 10.5013,2.5183 4.0836,2.1432 6.2246,4.7329 7.7126,7.302 1.5451,2.6674 1.8199,6.0365 1.8199,7.3797 0,1.3432 -0.6772,3.332 -1.9482,4.9772 z"
       fill="url(#paint5_radial)"
       id="path6"
       style="fill:url(#paint5_radial)" />
  </g>
  <defs
     id="defs24">
    <linearGradient
       id="paint0_linear"
       x1="14.6759"
       y1="44.262402"
       x2="59.259701"
       y2="44.262402"
       gradientUnits="userSpaceOnUse">
      <stop
         stop-color="#0C59A4"
         id="stop6" />
      <stop
         offset="1"
         stop-color="#114A8B"
         id="stop7" />
    </linearGradient>
    <radialGradient
       id="paint1_radial"
       cx="0"
       cy="0"
       r="1"
       gradientUnits="userSpaceOnUse"
       gradientTransform="matrix(23.846,0,0,22.6792,39.3011,44.5956)">
      <stop
         offset="0.71659"
         stop-opacity="0"
         id="stop8" />
      <stop
         offset="0.9459"
         stop-opacity="0.53"
         id="stop9" />
      <stop
         offset="1"
         id="stop10" />
    </radialGradient>
    <linearGradient
       id="paint2_linear"
       x1="38.180801"
       y1="24.920799"
       x2="10.332"
       y2="55.2547"
       gradientUnits="userSpaceOnUse">
      <stop
         stop-color="#1B9DE2"
         id="stop11" />
      <stop
         offset="0.16164"
         stop-color="#1595DF"
         id="stop12" />
      <stop
         offset="0.66749"
         stop-color="#0680D7"
         id="stop13" />
      <stop
         offset="1"
         stop-color="#0078D4"
         id="stop14" />
    </linearGradient>
    <radialGradient
       id="paint3_radial"
       cx="0"
       cy="0"
       r="1"
       gradientUnits="userSpaceOnUse"
       gradientTransform="matrix(5.3151288,-35.412139,28.535367,4.2829707,17.8262,49.6658)">
      <stop
         offset="0.76293"
         stop-opacity="0"
         id="stop15" />
      <stop
         offset="0.9459"
         stop-opacity="0.5"
         id="stop16" />
      <stop
         offset="1"
         id="stop17" />
    </radialGradient>
    <radialGradient
       id="paint4_radial"
       cx="0"
       cy="0"
       r="1"
       gradientUnits="userSpaceOnUse"
       gradientTransform="matrix(-1.8800587,50.572966,-107.7116,-4.004197,6.30857,11.7013)">
      <stop
         stop-color="#35C1F1"
         id="stop18" />
      <stop
         offset="0.11079"
         stop-color="#34C1ED"
         id="stop19" />
      <stop
         offset="0.23164"
         stop-color="#2FC2DF"
         id="stop20" />
      <stop
         offset="0.31446"
         stop-color="#2BC3D2"
         id="stop21" />
      <stop
         offset="0.67338"
         stop-color="#36C752"
         id="stop22" />
    </radialGradient>
    <radialGradient
       id="paint5_radial"
       cx="0"
       cy="0"
       r="1"
       gradientUnits="userSpaceOnUse"
       gradientTransform="matrix(6.8401687,23.353268,-19.066755,5.5846499,60.6175,19.3937)">
      <stop
         stop-color="#66EB6E"
         id="stop23" />
      <stop
         offset="1"
         stop-color="#66EB6E"
         stop-opacity="0"
         id="stop24" />
    </radialGradient>
    <clipPath
       id="clip0">
      <rect
         width="64"
         height="64"
         fill="#ffffff"
         id="rect24"
         x="0"
         y="0" />
    </clipPath>
  </defs>
</svg>
