<?xml version="1.0" encoding="UTF-8"?>
<svg id="a" data-name="3219" xmlns="http://www.w3.org/2000/svg" viewBox="0 0 48 48">
  <path d="M33.48,13.83h14.52v-2.5h-14.52c-1.52,0-2.75,1.23-2.75,2.75v16.75c0,1.52,1.23,2.75,2.75,2.75h9.45v6.35h-17.65V5.69c0-.96-.79-1.75-1.75-1.75H6.53c-.96,0-1.75.79-1.75,1.75v34.25H0v2.5h8.57v5.56h2.5v-5.56h36.93v-2.5h-2.57v-6.35h2.57v-2.5h-14.52c-.14,0-.25-.11-.25-.25V14.08c0-.14.11-.25.25-.25ZM7.28,39.94V6.44h15.5v33.5H7.28ZM19.78,11.6c0,.69-.56,1.25-1.25,1.25h-7c-.69,0-1.25-.56-1.25-1.25s.56-1.25,1.25-1.25h7c.69,0,1.25.56,1.25,1.25ZM19.78,15.84c0,.69-.56,1.25-1.25,1.25h-7c-.69,0-1.25-.56-1.25-1.25s.56-1.25,1.25-1.25h7c.69,0,1.25.56,1.25,1.25ZM19.78,19.87c0,.69-.56,1.25-1.25,1.25h-7c-.69,0-1.25-.56-1.25-1.25s.56-1.25,1.25-1.25h7c.69,0,1.25.56,1.25,1.25ZM16.78,34.25c0,.96-.79,1.75-1.75,1.75s-1.75-.79-1.75-1.75.79-1.75,1.75-1.75,1.75.79,1.75,1.75Z" fill="#1e1e1c"/>
</svg>