<?xml version="1.0" encoding="UTF-8"?>
<svg id="a" data-name="3219" xmlns="http://www.w3.org/2000/svg" viewBox="0 0 40 40">
  <path d="M39.99,27.85V9.3h-12.09c-1.31,0-2.37,1.07-2.37,2.38v13.96c0,1.31,1.06,2.38,2.37,2.38h8.11v4.25h-14.86V4.77c0-.9-.73-1.62-1.62-1.62H5.53c-.9,0-1.62.73-1.62,1.62v27.5H0v4h6.18v3.68h4v-3.68h29.8v-2h.02v-6.41h-.02ZM12.53,30.02c-.85,0-1.54-.69-1.54-1.54s.69-1.54,1.54-1.54,1.54.69,1.54,1.54-.69,1.54-1.54,1.54ZM15.44,16.61h-5.83c-.62,0-1.12-.5-1.12-1.12s.5-1.12,1.12-1.12h5.83c.62,0,1.12.5,1.12,1.12s-.5,1.12-1.12,1.12ZM15.44,12.37h-5.83c-.62,0-1.12-.5-1.12-1.12s.5-1.12,1.12-1.12h5.83c.62,0,1.12.5,1.12,1.12s-.5,1.12-1.12,1.12Z" fill="#1e1e1c"/>
</svg>