<?xml version="1.0" encoding="UTF-8"?>
<svg id="a" data-name="3219" xmlns="http://www.w3.org/2000/svg" viewBox="0 0 64 64">
  <path d="M0,17.28V0h13.12v3.92h2.75V0h32.25v3.92h2.75V0h13.12v17.28H0ZM64,20.03v39.84c0,2.28-1.85,4.13-4.13,4.13H4.13c-2.28,0-4.13-1.85-4.13-4.13V20.03h64ZM16.75,45.94h-4.94v4.94h4.94v-4.94ZM16.75,30.63h-4.94v4.94h4.94v-4.94ZM28.56,45.94h-4.94v4.94h4.94v-4.94ZM28.56,30.63h-4.94v4.94h4.94v-4.94ZM40.38,45.94h-4.94v4.94h4.94v-4.94ZM40.38,30.63h-4.94v4.94h4.94v-4.94ZM52.19,45.94h-4.94v4.94h4.94v-4.94ZM52.19,30.63h-4.94v4.94h4.94v-4.94Z" fill="#1e1e1c"/>
</svg>