<?xml version="1.0" encoding="UTF-8"?>
<svg id="a" data-name="3219" xmlns="http://www.w3.org/2000/svg" viewBox="0 0 48 48">
  <path d="M0,0v44.25c0,2.07,1.68,3.75,3.75,3.75h40.5c2.07,0,3.75-1.68,3.75-3.75V0H0ZM9.75,2.5v2.96h2.5v-2.96h23.5v2.96h2.5v-2.96h7.25v10.34H2.5V2.5h7.25ZM44.25,45.5H3.75c-.69,0-1.25-.56-1.25-1.25V15.34h43v28.91c0,.69-.56,1.25-1.25,1.25ZM17.55,22.75h4.13v4.13h-4.13v-4.13ZM26.32,22.75h4.13v4.13h-4.13v-4.13ZM35.1,22.75h4.13v4.13h-4.13v-4.13ZM17.55,34.12h4.13v4.13h-4.13v-4.13ZM8.77,22.75h4.13v4.13h-4.13v-4.13ZM8.77,34.12h4.13v4.13h-4.13v-4.13ZM26.32,34.12h4.13v4.13h-4.13v-4.13ZM35.1,34.12h4.13v4.13h-4.13v-4.13Z" fill="#1e1e1c"/>
</svg>