<?xml version="1.0" encoding="UTF-8"?>
<svg id="a" data-name="3219" xmlns="http://www.w3.org/2000/svg" viewBox="0 0 16 16">
  <path d="M0,0v13.75c0,1.24,1.01,2.25,2.25,2.25h11.5c1.24,0,2.25-1.01,2.25-2.25V0H0ZM3.11,1.5v1.32h1.5v-1.32h6.79v1.32h1.5v-1.32h1.61v2.59H1.5V1.5h1.61ZM13.75,14.5H2.25c-.41,0-.75-.34-.75-.75V5.59h13v8.16c0,.41-.34.75-.75.75ZM3.37,7.25h2.02v2.02h-2.02v-2.02ZM6.99,7.25h2.02v2.02h-2.02v-2.02ZM10.62,7.25h2.02v2.02h-2.02v-2.02ZM3.37,10.88h2.02v2.02h-2.02v-2.02ZM6.99,10.88h2.02v2.02h-2.02v-2.02ZM10.62,10.88h2.02v2.02h-2.02v-2.02Z" fill="#1e1e1c"/>
</svg>