<?xml version="1.0" encoding="UTF-8"?>
<svg id="a" data-name="3219" xmlns="http://www.w3.org/2000/svg" viewBox="0 0 24 24">
  <path d="M12,.02C5.38.02,0,5.41,0,12.02s5.38,12,12,12,12-5.38,12-12S18.61.02,12,.02ZM16.46,15.24c.34.34.34.9,0,1.24-.17.17-.4.26-.62.26s-.45-.08-.62-.26l-3.22-3.22-3.22,3.22c-.17.17-.4.26-.62.26s-.45-.08-.62-.26c-.34-.34-.34-.9,0-1.24l3.22-3.22-3.22-3.22c-.34-.34-.34-.9,0-1.24.34-.34.9-.34,1.24,0l3.22,3.22,3.22-3.22c.34-.34.9-.34,1.24,0,.34.34.34.9,0,1.24l-3.22,3.22,3.22,3.22Z" fill="#1e1e1c"/>
</svg>