<?xml version="1.0" encoding="UTF-8"?>
<svg id="a" data-name="3219" xmlns="http://www.w3.org/2000/svg" viewBox="0 0 64 64">
  <path d="M31.98.02C14.34.02-.02,14.38-.02,32.02s14.36,32,32,32,32-14.36,32-32S49.62.02,31.98.02ZM31.98,61.27c-16.13,0-29.25-13.12-29.25-29.25S15.85,2.77,31.98,2.77s29.25,13.12,29.25,29.25-13.12,29.25-29.25,29.25ZM43.51,22.43l-9.59,9.59,9.59,9.59c.54.54.54,1.41,0,1.94-.27.27-.62.4-.97.4s-.7-.13-.97-.4l-9.59-9.59-9.59,9.59c-.27.27-.62.4-.97.4s-.7-.13-.97-.4c-.54-.54-.54-1.41,0-1.94l9.59-9.59-9.59-9.59c-.54-.54-.54-1.41,0-1.94.54-.54,1.41-.54,1.94,0l9.59,9.59,9.59-9.59c.54-.54,1.41-.54,1.94,0,.54.54.54,1.41,0,1.94Z" fill="#1e1e1c"/>
</svg>