<?xml version="1.0" encoding="UTF-8"?>
<svg id="a" data-name="3219" xmlns="http://www.w3.org/2000/svg" viewBox="0 0 64 64">
  <path d="M45.94,19.69v4.37h-5.52L29.23,2.25C28.69.9,27.37,0,25.91,0,20.49,0,17.5,3.59,17.5,10.12l1.98,13.94H4.26c-2.35,0-4.26,1.91-4.26,4.26l4.12,28.27c.25,1.73,1.76,3.03,3.5,3.03h38.31v4.38h18.06V19.69h-18.06ZM6.84,56.2L2.75,28.24c.04-.79.7-1.43,1.51-1.43h13.99c6.86,0,10.19,5.27,10.19,16.12s-8.64,13.68-9.72,13.94H7.62c-.39,0-.73-.29-.78-.68ZM24.83,56.87c.12-.09.25-.19.37-.29,2.73-2.18,5.98-6.33,5.98-13.65s-1.65-15.96-8.85-18.27l-2.09-14.64c.04-7.28,4.27-7.28,5.66-7.28.34,0,.65.22.77.54l12.05,23.52h7.2v30.06h-21.11ZM61.25,61.25h-12.56V22.44h12.56v38.81Z" fill="#1e1e1c"/>
</svg>