<?xml version="1.0" encoding="UTF-8"?>
<svg id="a" data-name="3219" xmlns="http://www.w3.org/2000/svg" viewBox="0 0 48 48">
  <path d="M34.12,14.63v3.25h-3.73L22.15,1.81C21.71.73,20.65,0,19.48,0,15.36,0,13,2.83,13,7.75l1.43,10.12H3.39c-1.87,0-3.39,1.52-3.39,3.39l3.06,21.04c.2,1.39,1.42,2.45,2.83,2.45h28.23v3.25h13.88V14.63h-13.88ZM5.54,41.95l-3.03-20.75c.04-.46.42-.82.89-.82h10.39c1.82,0,7.34,0,7.34,11.75,0,8.11-6.12,9.91-7.02,10.12H5.89c-.18,0-.33-.13-.35-.31ZM19.28,42.26c2.21-1.84,4.35-4.94,4.35-10.12,0-8.99-3.12-12.55-6.59-13.74l-1.53-10.73c.03-4.62,2.28-5.16,3.98-5.16.16,0,.3.1.36.25l9.02,17.62h5.26v21.88h-14.84ZM45.5,45.5h-8.87v-28.37h8.87v28.37Z" fill="#1e1e1c"/>
</svg>