<svg xmlns="http://www.w3.org/2000/svg"><defs><symbol id="i-2347" viewBox="0 0 32 32"><path d="m30.17 20.96-6.57-7.07a1.7 1.7 0 0 0-1.25-.55h-5.02V7.32l-4.98-4.65H2.66v8.82h.17c-.88.33-1.51 1.17-1.51 2.15v9.03l2.33-1.9 1 .82v6.48h2.13a2.84 2.84 0 0 0 2.8 2.38 2.84 2.84 0 0 0 2.8-2.38h9.21a2.84 2.84 0 0 0 2.8 2.38 2.84 2.84 0 0 0 2.8-2.38h1.72c.96 0 1.74-.82 1.74-1.83v-3.99c0-.48-.18-.94-.5-1.28M27.32 20h-4.45v-4.55zM12.67 4.78l2.42 2.26h-2.42zM11.33 4v4.38H16V20H6v-6.36c0-1.16-.87-2.11-2-2.27V4zm-7.67 8.67c.55 0 1 .46 1 1.02s-.45 1.02-1 1.02-1-.46-1-1.02.45-1.02 1-1.02m-.84 7.06-.16.13v-4.05c.3.15.64.24 1 .24s.7-.09 1-.24v4.05l-.16-.13-.84-.69zm6.77 9.37c-.83 0-1.51-.68-1.51-1.51s.68-1.51 1.51-1.51c.84 0 1.51.68 1.51 1.51 0 .84-.68 1.51-1.51 1.51m14.81 0c-.83 0-1.51-.68-1.51-1.51s.68-1.51 1.51-1.51 1.51.68 1.51 1.51c0 .84-.68 1.51-1.51 1.51m4.93-2.87c0 .27-.19.5-.41.5H27.1a2.84 2.84 0 0 0-2.7-1.99c-1.27 0-2.33.84-2.7 1.99h-9.41a2.84 2.84 0 0 0-2.7-1.98c-1.27 0-2.33.84-2.7 1.99H6v-5.39h11.33v-6.67h4.23v6.65h7.13l.51.54a.55.55 0 0 1 .14.37zM7.72 11.63h5.82v1.33H7.72zm-.04 2.24h4.15v1.33H7.68zm.04 2.24h5.79v1.33H7.72z"/></symbol></defs><use href="#i-2347"/></svg>