<svg xmlns="http://www.w3.org/2000/svg"><defs><symbol id="i-accessrestricted"><symbol id="s16" viewBox="0 0 16 16"><path d="M7.96 7.5c2.07 0 3.75-1.68 3.75-3.75S10.03 0 7.96 0 4.21 1.68 4.21 3.75 5.89 7.5 7.96 7.5m0-6c1.24 0 2.25 1.01 2.25 2.25S9.2 6 7.96 6 5.71 4.99 5.71 3.75 6.72 1.5 7.96 1.5M4.25 8.63h3.79v1.5H4.25c-1.52 0-2.75 1.23-2.75 2.75V16H0v-3.12c0-2.35 1.9-4.25 4.25-4.25m-.04 4.25h1.5V16h-1.5zM14.97 9.5v-.84c0-1.23-1-2.23-2.23-2.23h-.47c-1.23 0-2.23 1-2.23 2.23v.84H8.99V16H16V9.5zm-3.43-.85c0-.4.33-.73.73-.73h.47c.4 0 .73.33.73.73v.82h-1.93zm2.95 5.85h-4V11h4zm-2.7-1.48a.9.9 0 0 1-.23-.6c0-.52.43-.95.95-.95s.95.43.95.95c0 .19-.07.37-.17.52v.32c0 .41-.34.75-.75.75s-.75-.34-.75-.75v-.23Z"/></symbol><symbol id="s24" viewBox="0 0 24 24"><path d="M12.06 10.85c2.99 0 5.42-2.43 5.42-5.42S15.05 0 12.06 0 6.64 2.43 6.64 5.43s2.43 5.42 5.42 5.42m0-9.1c2.02 0 3.67 1.65 3.67 3.67s-1.65 3.67-3.67 3.67-3.67-1.65-3.67-3.67 1.65-3.67 3.67-3.67M6.28 12.8h5.9v1.75h-5.9c-2.52 0-4.58 2.06-4.58 4.58V24H-.05v-4.87c0-3.49 2.84-6.33 6.32-6.33Zm.23 6.33h1.75V24H6.51zm15.88-4.48v-1.18c0-1.92-1.56-3.47-3.47-3.47s-3.47 1.56-3.47 3.47v1.18h-1.59v9.33h10.08v-9.33h-1.56Zm-5.19-1.19a1.72 1.72 0 1 1 3.44 0v1.15H17.2zm5 8.77h-6.58V16.4h6.58zm-4.43-3.41c0-.65.53-1.18 1.18-1.18s1.18.53 1.18 1.18c0 .27-.11.51-.26.71v.55c0 .48-.39.88-.87.88s-.87-.39-.87-.88v-.43c-.21-.21-.35-.51-.35-.83Z"/></symbol><symbol id="s32" viewBox="0 0 32 32"><path d="M16.13 14.24c3.92 0 7.11-3.19 7.11-7.12S20.05 0 16.13 0 9.02 3.19 9.02 7.12s3.19 7.12 7.11 7.12m0-12.24c2.82 0 5.11 2.3 5.11 5.12s-2.29 5.12-5.11 5.12-5.11-2.3-5.11-5.12S13.31 2 16.13 2M8.35 17.19h7.93v2H8.35c-3.49 0-6.33 2.84-6.33 6.34V32h-2v-6.47c0-4.6 3.74-8.34 8.33-8.34m.5 8.34h2V32h-2zm21.08-5.75v-1.77c0-2.48-2.01-4.5-4.49-4.5s-4.49 2.02-4.49 4.5v1.77h-2.13v12.2h13.2v-12.2zm-6.98-1.77c0-1.38 1.12-2.49 2.49-2.49s2.49 1.12 2.49 2.49v1.72h-4.98zm7.08 11.97h-9.2v-8.2h9.2zm-5.53-3.76c-.25-.26-.41-.61-.41-.99 0-.78.63-1.41 1.41-1.41a1.408 1.408 0 0 1 1 2.4v.7c0 .55-.45 1-1 1s-1-.45-1-1z"/></symbol><symbol id="s40" viewBox="0 0 40 40"><path d="M20.17 17.72c4.86 0 8.82-3.95 8.82-8.8S25.03.11 20.17.11s-8.82 3.95-8.82 8.8 3.95 8.8 8.82 8.8Zm0-15.35c3.61 0 6.55 2.94 6.55 6.54s-2.94 6.54-6.55 6.54-6.55-2.94-6.55-6.54 2.94-6.54 6.55-6.54m-9.79 19.29h9.97v2.26h-9.97c-4.46 0-8.09 3.62-8.09 8.07v8.11H.03v-8.11c0-5.69 4.64-10.33 10.35-10.33M11.13 32h2.26v8.11h-2.26zm26.27-7.09v-2.34c0-3.04-2.48-5.52-5.52-5.52s-5.52 2.47-5.52 5.52v2.34h-2.68v15.05h16.35V24.91zm-8.78-2.33a3.26 3.26 0 0 1 6.52 0v2.28h-6.52zm9.15 15.12H25.94V27.17h11.83zm-7.47-6.09c0-.91.74-1.64 1.65-1.64s1.65.74 1.65 1.64c0 .47-.2.89-.51 1.19v.94c0 .62-.51 1.13-1.13 1.13s-1.13-.51-1.13-1.13v-.94c-.32-.3-.51-.72-.51-1.19Z"/></symbol><symbol id="s48" viewBox="0 0 48 48"><path d="M24.13 20.99c5.78 0 10.49-4.7 10.49-10.48S29.92.03 24.13.03s-10.49 4.7-10.49 10.48 4.7 10.48 10.49 10.48m0-18.46c4.4 0 7.98 3.58 7.98 7.98s-3.58 7.98-7.98 7.98-7.98-3.58-7.98-7.98 3.58-7.98 7.98-7.98M12.32 25.95H24.3v2.5H12.32c-5.42 0-9.83 4.41-9.83 9.82v9.76H0v-9.76c0-6.8 5.53-12.32 12.32-12.32m1.06 12.32h2.5v9.76h-2.5zm31.47-8.04v-2.89c0-3.58-2.91-6.49-6.49-6.49s-6.49 2.91-6.49 6.49v2.89h-3.2v17.79H48V30.23h-3.14Zm-10.48-2.9c0-2.2 1.79-3.99 3.99-3.99s3.99 1.79 3.99 3.99v2.83h-7.98zm11.12 18.19H31.16V32.73h14.33zm-8.91-7.39c0-1.03.84-1.87 1.86-1.87s1.87.84 1.87 1.87c0 .55-.24 1.03-.61 1.37v1.17a1.25 1.25 0 0 1-2.5 0V39.5c-.37-.34-.61-.83-.61-1.37Z"/></symbol><symbol id="s64" viewBox="0 0 64 64"><path d="M32.2 27.58c7.61 0 13.8-6.19 13.8-13.79S39.81 0 32.2 0 18.4 6.19 18.4 13.79s6.19 13.79 13.8 13.79m0-24.83c6.09 0 11.05 4.95 11.05 11.04S38.29 24.83 32.2 24.83s-11.05-4.95-11.05-11.04S26.11 2.75 32.2 2.75M16.31 34.49h16.18v2.75H16.31c-7.49 0-13.58 6.09-13.58 13.57v13.17H-.02V50.81c0-9 7.32-16.32 16.33-16.32m1.67 16.32h2.75v13.17h-2.75zm41.77-10.12v-4.27c0-4.61-3.75-8.36-8.36-8.36h-.13c-4.61 0-8.36 3.75-8.36 8.36v4.27h-4.31V64h25.39V40.69zm-14.1-4.27a5.62 5.62 0 0 1 5.61-5.61h.13A5.62 5.62 0 0 1 57 36.42v4.17H45.65zm15.58 24.83H41.34V43.44h19.89zM49.24 51.01c0-1.21.99-2.2 2.2-2.2s2.2.99 2.2 2.2c0 .69-.33 1.3-.83 1.71v1.72c0 .76-.62 1.38-1.38 1.38s-1.38-.62-1.38-1.38v-1.72c-.5-.4-.83-1.01-.83-1.71Z"/></symbol><use style="display: var(--s16, none)" href="#s16"/><use style="display: var(--s24, none)" href="#s24"/><use style="display: var(--s32, none)" href="#s32"/><use style="display: var(--s40, none)" href="#s40"/><use style="display: var(--s48, none)" href="#s48"/><use style="display: var(--s64, none)" href="#s64"/></symbol></defs><style>@media (max-width: 23.98px) {g{--s16:block;}}@media (min-width: 24px) and (max-width: 31.98px) {g{--s24:block;}}@media (min-width: 32px) and (max-width: 39.98px) {g{--s32:block;}}@media (min-width: 40px) and (max-width: 47.98px) {g{--s40:block;}}@media (min-width: 48px) and (max-width: 63.98px) {g{--s48:block;}}@media (min-width: 64px) {g{--s64:block;}}</style><g><use href="#i-accessrestricted"/></g></svg>