<svg xmlns="http://www.w3.org/2000/svg"><defs><symbol id="i-accessblocked-solid"><symbol id="s16" viewBox="0 0 16 16"><path d="M1.85 2.38C1.85 1.07 2.92 0 4.24 0a2.38 2.38 0 1 1 0 4.76c-1.31 0-2.39-1.06-2.39-2.38m8.83 1.74c.76 0 1.48.13 2.16.37.77-.4 1.31-1.19 1.31-2.11C14.14 1.07 13.07 0 11.76 0S9.37 1.07 9.37 2.38c0 .7.31 1.33.8 1.77.17-.01.34-.03.51-.03m-6.56 6.57c0-2.19 1.09-4.13 2.75-5.32-.32-.14-.67-.22-1.05-.22H2.66C1.19 5.15 0 6.34 0 7.8v2.9h1.43l.48 5.29h4.55l.02-.27a6.53 6.53 0 0 1-2.37-5.04Zm11.88 0c0 2.93-2.38 5.31-5.31 5.31s-5.31-2.38-5.31-5.31 2.38-5.31 5.31-5.31S16 7.76 16 10.69m-7.98.87 3.53-3.53c-.28-.09-.57-.15-.87-.15-1.55 0-2.81 1.26-2.81 2.81 0 .31.06.6.15.87m5.48-.87c0-.32-.06-.62-.16-.9l-3.55 3.55c.29.1.59.16.9.16 1.55 0 2.81-1.26 2.81-2.81"/></symbol><symbol id="s24" viewBox="0 0 24 24"><path d="M2.79 3.33C2.79 1.49 4.28 0 6.12 0s3.33 1.49 3.33 3.33-1.49 3.33-3.33 3.33-3.33-1.49-3.33-3.33M17.9 6.66a3.329 3.329 0 1 0-3.33-3.33c0 1.84 1.49 3.33 3.33 3.33m1.26 1.07c2 .64 3.71 1.95 4.84 3.67a3.737 3.737 0 0 0-3.73-3.67zm-7.94 1.21A3.68 3.68 0 0 0 8.5 7.73H3.75C1.69 7.73 0 9.4 0 11.46v4.11h2.13l.72 8.42h6.38l.15-1.8A9.05 9.05 0 0 1 7.3 16.4c0-3.09 1.55-5.82 3.91-7.46Zm12.79 7.46c0 4.19-3.41 7.6-7.6 7.6s-7.6-3.41-7.6-7.6 3.41-7.6 7.6-7.6 7.6 3.41 7.6 7.6m-11.73 1.98 6.11-6.11c-.6-.29-1.27-.46-1.98-.46-2.53 0-4.6 2.06-4.6 4.6 0 .71.18 1.38.46 1.98Zm8.73-1.98c0-.73-.19-1.41-.49-2.02l-6.13 6.13c.61.3 1.29.49 2.02.49 2.53 0 4.6-2.06 4.6-4.6"/></symbol><symbol id="s32" viewBox="0 0 32 32"><path d="M3.71 4.27C3.71 1.92 5.63 0 7.98 0s4.27 1.91 4.27 4.27-1.92 4.27-4.27 4.27-4.27-1.92-4.27-4.27m20.32 4.27c2.35 0 4.27-1.91 4.27-4.27S26.38 0 24.03 0s-4.27 1.92-4.27 4.27 1.92 4.27 4.27 4.27m-8.44 3.98c-.73-1.74-2.44-2.97-4.44-2.97H4.82C2.17 9.55 0 11.71 0 14.36v5.31h2.81L3.77 32h8.21l.29-3.71a11.56 11.56 0 0 1-1.78-6.16 11.6 11.6 0 0 1 5.1-9.61m11.6-2.97h-6.33c-1.71 0-3.21.9-4.06 2.25 1.6-.83 3.4-1.3 5.32-1.3 4.17 0 7.83 2.22 9.88 5.52v-1.66a4.82 4.82 0 0 0-4.82-4.81ZM32 22.13c0 5.44-4.43 9.87-9.88 9.87s-9.88-4.43-9.88-9.87 4.43-9.87 9.88-9.87S32 16.69 32 22.13m-16.25 0c0 1.11.29 2.16.79 3.07l8.66-8.65a6.4 6.4 0 0 0-3.07-.79c-3.52 0-6.38 2.86-6.38 6.37m12.75 0c0-1.13-.3-2.2-.82-3.12L19 27.68c.92.52 1.99.82 3.12.82 3.52 0 6.38-2.86 6.38-6.37"/></symbol><symbol id="s40" viewBox="0 0 40 40"><path d="M4.62 5.23C4.62 2.36 6.96.02 9.83.02s5.21 2.33 5.21 5.2-2.34 5.2-5.21 5.2-5.21-2.33-5.21-5.2Zm25.53 5.2c2.87 0 5.21-2.33 5.21-5.2S33.02.03 30.15.03s-5.21 2.33-5.21 5.2 2.34 5.2 5.21 5.2m3.95 1.39h-7.9c-2.52 0-4.67 1.59-5.51 3.81 2.1-1.23 4.53-1.94 7.13-1.94 5.18 0 9.71 2.8 12.17 6.96v-2.94c0-3.24-2.64-5.88-5.89-5.88ZM19.53 16.4c-.6-2.62-2.94-4.58-5.74-4.58h-7.9C2.63 11.82 0 14.46 0 17.7v6.5h3.5l1.2 15.82h10.03l.44-5.9c-.95-1.9-1.5-4.03-1.5-6.29 0-4.7 2.32-8.86 5.86-11.43m20.44 11.43c0 6.69-5.45 12.14-12.15 12.14s-12.15-5.45-12.15-12.14 5.45-12.14 12.15-12.14 12.15 5.45 12.15 12.14m-20.31 0c0 1.51.42 2.92 1.14 4.13l11.15-11.14a8.1 8.1 0 0 0-4.14-1.14c-4.5 0-8.16 3.65-8.16 8.14Zm16.31 0c0-1.54-.44-2.97-1.18-4.2L23.61 34.79c1.23.74 2.66 1.18 4.2 1.18 4.5 0 8.16-3.65 8.16-8.14"/></symbol><symbol id="s48" viewBox="0 0 48 48"><path d="M5.57 6.15C5.57 2.76 8.33 0 11.72 0s6.15 2.76 6.15 6.15-2.76 6.15-6.15 6.15-6.15-2.76-6.15-6.15m30.71 6.16c3.39 0 6.15-2.76 6.15-6.15S39.67 0 36.28 0s-6.15 2.76-6.15 6.15 2.76 6.15 6.15 6.15Zm11.71 12.87V21c0-3.84-3.13-6.97-6.97-6.97h-9.48c-3.3 0-6.06 2.31-6.78 5.39 2.56-1.61 5.58-2.55 8.82-2.55 6.15 0 11.51 3.35 14.41 8.31M42.06 48v-.11c-.05.03-.11.07-.17.11zM23.4 20.36c-.32-3.55-3.31-6.34-6.94-6.34H6.98c-3.84 0-6.96 3.13-6.96 6.97v7.71h4.19l1.44 19.29h11.86l.61-8.22c-.78-1.93-1.22-4.02-1.22-6.22 0-5.37 2.56-10.14 6.5-13.19m24.62 13.19c0 7.96-6.48 14.43-14.43 14.43S19.16 41.5 19.16 33.55s6.47-14.44 14.43-14.44 14.43 6.48 14.43 14.44m-22.89 5.2L38.78 25.1a9.83 9.83 0 0 0-5.2-1.49c-5.48 0-9.93 4.46-9.93 9.94 0 1.91.55 3.69 1.49 5.2Zm18.39-5.2c0-1.94-.57-3.75-1.54-5.28L28.3 41.95c1.53.97 3.34 1.54 5.28 1.54 5.48 0 9.93-4.46 9.93-9.93Z"/></symbol><symbol id="s64" viewBox="0 0 64 64"><path d="M7.42 7.91C7.42 3.54 10.97 0 15.34 0s7.91 3.55 7.91 7.91-3.55 7.91-7.91 7.91-7.91-3.55-7.91-7.91Zm41.26 7.91c4.36 0 7.91-3.55 7.91-7.91S53.04 0 48.68 0s-7.91 3.55-7.91 7.91 3.55 7.91 7.91 7.91M55 18.04H42.35c-4.96 0-9 4.04-9 9v.6c3.4-2.3 7.5-3.65 11.9-3.65 8.12 0 15.18 4.57 18.76 11.28v-8.22c0-4.96-4.04-9-9-9Zm-24.33 8.99c0-4.96-4.04-9-9-9H9.02c-4.97 0-9.02 4.04-9.02 9v9.99h5.57L7.49 64h15.28l1.27-17.8c-.01-.32-.05-.64-.05-.96 0-1.42.15-2.8.41-4.14l.29-4.08h.95c1.16-2.74 2.88-5.18 5.02-7.2v-2.79ZM64 45.23c0 10.34-8.41 18.75-18.75 18.75S26.5 55.57 26.5 45.23s8.41-18.75 18.75-18.75S64 34.89 64 45.23m-30.11 7.74 19.1-19.09a13.66 13.66 0 0 0-7.74-2.39c-7.58 0-13.75 6.17-13.75 13.75 0 2.87.89 5.53 2.39 7.74ZM59 45.23c0-2.91-.92-5.61-2.47-7.83L37.41 56.52c2.23 1.55 4.92 2.46 7.83 2.46 7.58 0 13.75-6.17 13.75-13.75Z"/></symbol><use style="display: var(--s16, none)" href="#s16"/><use style="display: var(--s24, none)" href="#s24"/><use style="display: var(--s32, none)" href="#s32"/><use style="display: var(--s40, none)" href="#s40"/><use style="display: var(--s48, none)" href="#s48"/><use style="display: var(--s64, none)" href="#s64"/></symbol></defs><style>@media (max-width: 23.98px) {g{--s16:block;}}@media (min-width: 24px) and (max-width: 31.98px) {g{--s24:block;}}@media (min-width: 32px) and (max-width: 39.98px) {g{--s32:block;}}@media (min-width: 40px) and (max-width: 47.98px) {g{--s40:block;}}@media (min-width: 48px) and (max-width: 63.98px) {g{--s48:block;}}@media (min-width: 64px) {g{--s64:block;}}</style><g><use href="#i-accessblocked-solid"/></g></svg>