<svg xmlns="http://www.w3.org/2000/svg"><defs><symbol id="i-accessepr-solid"><symbol id="s16" viewBox="0 0 16 16"><path d="M13.78 0H2.28C1.04 0 .03 1.02.03 2.26v2.5h16v-2.5c0-1.24-1.01-2.26-2.25-2.26M2.89 3.69c-.49 0-.89-.4-.89-.89s.4-.89.89-.89.89.4.89.89-.4.89-.89.89m2.5 0c-.49 0-.89-.4-.89-.89s.4-.89.89-.89.89.4.89.89-.4.89-.89.89m9.87 2.57h.77v1.26c-.16-.48-.43-.9-.77-1.26m-15.23 0v9.75h7.74V8.25h1.09c.09-.77.44-1.45.95-1.99zm7.24 5.96h-2v2h-2.5v-2h-2v-2.5h2v-2h2.5v2h2zm7.98-3.57a2.48 2.48 0 0 0-2.48-2.48h-.47a2.48 2.48 0 0 0-2.48 2.48h2c0-.26.21-.48.48-.48h.47c.26 0 .48.21.48.48v.84H9.03v6.5h7v-6.5h-.78zm-1.92 4.29v.32c0 .41-.34.75-.75.75s-.75-.34-.75-.75v-.23a.9.9 0 0 1-.23-.6c0-.52.43-.95.95-.95s.95.43.95.95c0 .19-.07.37-.17.52Z"/></symbol><symbol id="s24" viewBox="0 0 24 24"><path d="M0 23.99h11.78V12.53h1.7a5.61 5.61 0 0 1 5.49-4.5c2.22 0 4.13 1.32 5.03 3.2V7.61H0zm1.63-9.72h3.11v-3.11h3.31v3.11h3.11v3.31H8.05v3.11H4.74v-3.11H1.63zM21.62 0H2.37C1.06 0 0 1.06 0 2.37v3.49h24V2.37C24 1.06 22.93 0 21.62 0M3.21 4.29c-.6 0-1.09-.49-1.09-1.09s.49-1.09 1.09-1.09S4.3 2.6 4.3 3.2s-.49 1.09-1.09 1.09m3.25 0c-.6 0-1.09-.49-1.09-1.09s.49-1.09 1.09-1.09 1.09.49 1.09 1.09-.49 1.09-1.09 1.09m16.6 9.34c0-2.26-1.84-4.1-4.1-4.1s-4.1 1.84-4.1 4.1h3c0-.61.49-1.1 1.1-1.1s1.1.49 1.1 1.1v1.03H13.9V24h10.09v-9.34h-.93zm-3.16 5.91v.55c0 .48-.39.88-.88.88s-.88-.39-.88-.88v-.43c-.21-.21-.35-.51-.35-.83 0-.65.53-1.18 1.18-1.18s1.18.53 1.18 1.18c0 .27-.11.51-.26.71Z"/></symbol><symbol id="s32" viewBox="0 0 32 32"><path d="M29.49 0h-27C1.11 0 0 1.13 0 2.51v4.51h31.99V2.51A2.51 2.51 0 0 0 29.49 0M4.28 5.26c-.71 0-1.29-.58-1.29-1.29s.58-1.28 1.29-1.28 1.29.58 1.29 1.28-.58 1.29-1.29 1.29m3.5 0c-.71 0-1.29-.58-1.29-1.29s.58-1.28 1.29-1.28 1.29.58 1.29 1.28-.58 1.29-1.29 1.29M0 32.01h16.28v-14.7h2.18c.39-3.49 3.35-6.2 6.95-6.2 3.04 0 5.63 1.95 6.59 4.67V9.03H0v22.99Zm2.34-13.14h4.22v-4.22h4.11v4.22h4.22v4.11h-4.22v4.22H6.56v-4.22H2.34zm28.31-.79c0-2.89-2.35-5.24-5.24-5.24s-5.24 2.35-5.24 5.24h3.5a1.741 1.741 0 0 1 3.48 0v1.72h-8.37v12.18h13.21V19.8h-1.34zm-4.19 8.14v.7c0 .55-.45 1-1 1s-1-.45-1-1v-.7a1.408 1.408 0 0 1 1-2.4 1.408 1.408 0 0 1 1 2.4"/></symbol><symbol id="s40" viewBox="0 0 40 40"><path d="M37.37-.07H2.62C1.17-.07 0 1.11 0 2.56v6.28h40V2.56c0-1.45-1.18-2.62-2.63-2.62ZM5.47 6.51c-.82 0-1.48-.66-1.48-1.48s.67-1.48 1.48-1.48 1.48.66 1.48 1.48-.67 1.48-1.48 1.48m4.38 0c-.82 0-1.48-.66-1.48-1.48s.67-1.48 1.48-1.48 1.48.66 1.48 1.48-.67 1.48-1.48 1.48M0 39.93h20.85V22.09h2.71c.36-4.28 3.95-7.66 8.33-7.66 3.93 0 7.22 2.72 8.11 6.37v-9.72H0zm3.78-16.54H9.1v-5.32h4.91v5.32h5.32v4.91h-5.32v5.32H9.1V28.3H3.78zm34.47-.6c0-3.51-2.86-6.36-6.37-6.36s-6.37 2.85-6.37 6.36h4c0-1.3 1.06-2.36 2.37-2.36s2.37 1.06 2.37 2.36v2.18H23.72v14.97h16.27V24.97h-1.74zM33.07 32.8v.93c0 .62-.5 1.12-1.13 1.12s-1.13-.5-1.13-1.12v-.93c-.31-.3-.51-.72-.51-1.18a1.641 1.641 0 0 1 3.28 0c0 .47-.2.88-.51 1.18"/></symbol><symbol id="s48" viewBox="0 0 48 48"><path d="M47.98 2.76c0-1.52-1.23-2.76-2.75-2.76H2.75C1.23 0 0 1.24 0 2.76v7.5h47.99v-7.5ZM6.17 7.36c-.93 0-1.68-.75-1.68-1.68S5.24 4 6.17 4s1.68.75 1.68 1.68-.75 1.68-1.68 1.68m4.75 0c-.93 0-1.68-.75-1.68-1.68S9.99 4 10.92 4s1.68.75 1.68 1.68-.75 1.68-1.68 1.68M38.37 17.9c4.88 0 8.92 3.61 9.62 8.3V12.75H0V48h25.43V26.96h3.24c.35-5.06 4.56-9.07 9.71-9.07Zm-15.6 15.85h-6.43v6.43h-5.71v-6.43H4.2v-5.72h6.43V21.6h5.71v6.43h6.43zm23.09-3.53v-2.58c0-4.13-3.36-7.49-7.49-7.49s-7.49 3.36-7.49 7.49h4.5c0-1.65 1.34-2.99 2.99-2.99s2.99 1.34 2.99 2.99v2.58H28.68V48H48V30.22zm-6.16 9.27v1.17a1.25 1.25 0 0 1-2.5 0v-1.17c-.37-.34-.61-.83-.61-1.37 0-1.03.84-1.86 1.86-1.86s1.86.84 1.86 1.86c0 .55-.24 1.03-.61 1.37"/></symbol><symbol id="s64" viewBox="0 0 64 64"><path d="M61.11 0H2.87A2.88 2.88 0 0 0-.01 2.88v9.79h64V2.88A2.88 2.88 0 0 0 61.11 0M7.05 9.39c-1.07 0-1.95-.87-1.95-1.95s.87-1.95 1.95-1.95S9 6.36 9 7.44s-.87 1.95-1.95 1.95m5.51 0c-1.07 0-1.95-.87-1.95-1.95s.87-1.95 1.95-1.95 1.95.87 1.95 1.95-.87 1.95-1.95 1.95M-.01 64h34.97V37.04h4.31v-.37c0-6.61 5.38-11.99 11.99-11.99h.13c6.61 0 11.99 5.38 11.99 11.99v.37h.61V15.42h-64v48.59Zm6.49-26.68h8.65v-8.64h7.07v8.64h8.64v7.07H22.2v8.64h-7.07v-8.64H6.48zm54.4-.65c0-5.23-4.26-9.49-9.49-9.49h-.13c-5.23 0-9.49 4.26-9.49 9.49h5c0-2.47 2.01-4.49 4.49-4.49h.13c2.47 0 4.49 2.01 4.49 4.49v4H38.59v23.31h25.4V40.67h-3.1v-4ZM52.81 52.7v1.72c0 .76-.62 1.38-1.38 1.38s-1.38-.62-1.38-1.38V52.7c-.5-.4-.83-1.01-.83-1.71 0-1.21.99-2.2 2.2-2.2s2.2.99 2.2 2.2c0 .69-.33 1.3-.83 1.71Z"/></symbol><use style="display: var(--s16, none)" href="#s16"/><use style="display: var(--s24, none)" href="#s24"/><use style="display: var(--s32, none)" href="#s32"/><use style="display: var(--s40, none)" href="#s40"/><use style="display: var(--s48, none)" href="#s48"/><use style="display: var(--s64, none)" href="#s64"/></symbol></defs><style>@media (max-width: 23.98px) {g{--s16:block;}}@media (min-width: 24px) and (max-width: 31.98px) {g{--s24:block;}}@media (min-width: 32px) and (max-width: 39.98px) {g{--s32:block;}}@media (min-width: 40px) and (max-width: 47.98px) {g{--s40:block;}}@media (min-width: 48px) and (max-width: 63.98px) {g{--s48:block;}}@media (min-width: 64px) {g{--s64:block;}}</style><g><use href="#i-accessepr-solid"/></g></svg>