<svg xmlns="http://www.w3.org/2000/svg"><defs><symbol id="i-accessrestricted-solid"><symbol id="s16" viewBox="0 0 16 16"><path d="M7.88 7.61c2.08 0 3.77-1.7 3.77-3.79S9.95.03 7.88.03s-3.77 1.7-3.77 3.79S5.8 7.61 7.88 7.61m0-5.08a1.291 1.291 0 0 1 0 2.58 1.291 1.291 0 0 1 0-2.58m-3.42 6.1h3.49v2.5H4.46c-1.09 0-1.98.89-1.98 2v2.9H0v-2.9c0-2.48 2-4.5 4.46-4.5m-.59 4.5h2.48v2.9H3.87zM15.22 9.5v-.84c0-1.37-1.1-2.48-2.46-2.48h-.47c-1.36 0-2.46 1.11-2.46 2.48v.84h-.79V16h6.95V9.5zm-3.4-.84c0-.26.21-.48.47-.48h.47c.26 0 .47.21.47.48v.57h-1.42v-.57Zm1.49 4.29v.32c0 .41-.33.75-.74.75s-.74-.34-.74-.75v-.24a.97.97 0 0 1-.23-.6c0-.52.42-.95.94-.95s.94.43.94.95c0 .19-.07.37-.17.52"/></symbol><symbol id="s24" viewBox="0 0 24 24"><path d="M11.74 11.29c3.11 0 5.64-2.53 5.64-5.64S14.85.02 11.74.02 6.1 2.55 6.1 5.66s2.53 5.64 5.64 5.64Zm0-8.27c1.45 0 2.64 1.18 2.64 2.63s-1.18 2.63-2.64 2.63S9.1 7.1 9.1 5.65s1.18-2.63 2.64-2.63m-5.27 10.1h5.37v3H6.47c-1.91 0-3.46 1.55-3.46 3.46v4.43H0v-4.43c0-3.56 2.91-6.46 6.47-6.46m-.49 6.46h3v4.43h-3zm17.1-4.9v-.53c0-2.26-1.84-4.1-4.1-4.1s-4.1 1.84-4.1 4.1v.53h-.96v9.34h10.1v-9.34h-.93Zm-5.2-.53c0-.61.49-1.1 1.1-1.1s1.1.49 1.1 1.1v.52h-2.2zm2.03 5.42v.55c0 .48-.39.88-.88.88s-.88-.39-.88-.88v-.43c-.21-.21-.35-.51-.35-.83 0-.65.53-1.18 1.18-1.18s1.18.53 1.18 1.18c0 .27-.11.51-.26.71Z"/></symbol><symbol id="s32" viewBox="0 0 32 32"><path d="M15.93 15.17c4.18 0 7.58-3.4 7.58-7.58S20.11 0 15.93 0 8.35 3.4 8.35 7.58s3.4 7.58 7.58 7.58Zm0-11.66c2.25 0 4.08 1.83 4.08 4.08s-1.83 4.08-4.08 4.08-4.08-1.83-4.08-4.08 1.83-4.08 4.08-4.08M8.78 17.09h7.57v3.5H8.78c-2.89 0-5.25 2.35-5.25 5.25v6.17H.03v-6.17c0-4.82 3.92-8.75 8.75-8.75m-.6 8.75h3.5v6.17h-3.5zm22.51-6.04v-.97c0-2.89-2.35-5.24-5.24-5.24s-5.24 2.35-5.24 5.24v.97h-1.38v12.19h13.21V19.8H30.7Zm-4.19 6.43v.7c0 .55-.45 1-1 1s-1-.45-1-1v-.7a1.408 1.408 0 0 1 1-2.4 1.408 1.408 0 0 1 1 2.4m.69-6.43h-3.48v-.97a1.741 1.741 0 0 1 3.48 0z"/></symbol><symbol id="s40" viewBox="0 0 40 40"><path d="M19.83 18.32c5.08 0 9.21-4.12 9.21-9.19S24.91-.05 19.83-.05s-9.2 4.12-9.2 9.19 4.13 9.19 9.2 9.19Zm0-14.37c2.87 0 5.2 2.33 5.2 5.19s-2.33 5.19-5.2 5.19-5.2-2.33-5.2-5.19 2.33-5.19 5.2-5.19m-9.17 17.73H20v4h-9.34c-3.66 0-6.63 2.97-6.63 6.62v7.6H.02v-7.6c0-5.85 4.77-10.62 10.64-10.62m-.24 10.62h4.01v7.6h-4.01zm27.86-7.34v-1.43c0-3.51-2.86-6.37-6.38-6.37s-6.38 2.86-6.38 6.37v1.43h-1.8v14.99h16.29V24.96h-1.74Zm-5.18 7.85v.94c0 .62-.5 1.13-1.13 1.13s-1.13-.5-1.13-1.13v-.94c-.31-.3-.51-.72-.51-1.18 0-.9.74-1.64 1.64-1.64s1.64.73 1.64 1.64c0 .47-.2.88-.51 1.18m1.17-7.88h-4.74v-1.39c0-1.31 1.06-2.37 2.37-2.37s2.37 1.06 2.37 2.37z"/></symbol><symbol id="s48" viewBox="0 0 48 48"><path d="M23.85 22.18c6.12 0 11.1-4.98 11.1-11.09S29.97 0 23.85 0s-11.1 4.98-11.1 11.09 4.98 11.09 11.1 11.09m0-17.68c3.64 0 6.6 2.96 6.6 6.59s-2.96 6.59-6.6 6.59-6.6-2.96-6.6-6.59 2.96-6.59 6.6-6.59m-11 21.29h11.48v4.5H12.85c-4.61 0-8.36 3.75-8.36 8.35v9.35h-4.5v-9.35c0-7.08 5.77-12.85 12.86-12.85m-.04 12.86h4.5V48h-4.5zm33.04-8.44v-1.83c0-4.13-3.36-7.49-7.49-7.49s-7.49 3.36-7.49 7.49v1.83h-2.2v17.78h19.32V30.21zm-6.16 9.27v1.17a1.25 1.25 0 0 1-2.5 0v-1.17c-.37-.34-.61-.83-.61-1.37 0-1.03.84-1.86 1.86-1.86s1.86.84 1.86 1.86c0 .55-.24 1.03-.61 1.37m1.66-9.28h-5.98v-1.82c0-1.65 1.34-2.99 2.99-2.99s2.99 1.34 2.99 2.99z"/></symbol><symbol id="s64" viewBox="0 0 64 64"><path d="M31.69 28.47c7.86 0 14.25-6.38 14.25-14.23S39.55 0 31.69 0 17.44 6.38 17.44 14.23s6.39 14.23 14.25 14.23Zm0-23.46c5.1 0 9.24 4.14 9.24 9.23s-4.14 9.22-9.24 9.22-9.24-4.14-9.24-9.22 4.14-9.23 9.24-9.23M16.66 34.88h15.29v5H16.66c-6.41 0-11.63 5.21-11.63 11.62v12.44H.02V51.5c0-9.16 7.47-16.62 16.64-16.62m.38 16.62h5.01v12.44h-5.01zm43.88-10.83v-3c0-5.24-4.26-9.49-9.5-9.49h-.13c-5.24 0-9.5 4.26-9.5 9.49v3H38.6V64h25.42V40.67h-3.11Zm-8.08 12.04v1.72c0 .76-.62 1.38-1.38 1.38s-1.38-.62-1.38-1.38v-1.72c-.5-.4-.83-1.02-.83-1.71 0-1.22.99-2.2 2.21-2.2s2.2.99 2.2 2.2c0 .69-.33 1.3-.83 1.71Zm3.07-12.04h-9.12v-3a4.49 4.49 0 0 1 4.49-4.49h.13a4.49 4.49 0 0 1 4.49 4.49v3Z"/></symbol><use style="display: var(--s16, none)" href="#s16"/><use style="display: var(--s24, none)" href="#s24"/><use style="display: var(--s32, none)" href="#s32"/><use style="display: var(--s40, none)" href="#s40"/><use style="display: var(--s48, none)" href="#s48"/><use style="display: var(--s64, none)" href="#s64"/></symbol></defs><style>@media (max-width: 23.98px) {g{--s16:block;}}@media (min-width: 24px) and (max-width: 31.98px) {g{--s24:block;}}@media (min-width: 32px) and (max-width: 39.98px) {g{--s32:block;}}@media (min-width: 40px) and (max-width: 47.98px) {g{--s40:block;}}@media (min-width: 48px) and (max-width: 63.98px) {g{--s48:block;}}@media (min-width: 64px) {g{--s64:block;}}</style><g><use href="#i-accessrestricted-solid"/></g></svg>