<svg xmlns="http://www.w3.org/2000/svg"><defs><symbol id="i-adduser-solid"><symbol id="s16" viewBox="0 0 16 16"><path d="M7.96 7.5c2.07 0 3.75-1.68 3.75-3.75S10.03 0 7.96 0 4.21 1.68 4.21 3.75 5.89 7.5 7.96 7.5m0-5a1.25 1.25 0 1 1 0 2.5 1.25 1.25 0 0 1 0-2.5m-3.2 8.13c-1.24 0-2.25 1.01-2.25 2.25V16H0v-3.12c0-2.62 2.14-4.75 4.76-4.75H9.5v2.5zm-.54 2.25h2.5V16h-2.5zm11.79.87h-2.2V16h-2.5v-2.25H9v-2.5h2.31V9h2.5v2.25h2.2z"/></symbol><symbol id="s24" viewBox="0 0 24 24"><path d="M11.82 11.01c3.04 0 5.51-2.46 5.51-5.48S14.85.05 11.82.05 6.31 2.51 6.31 5.53s2.47 5.48 5.51 5.48m0-7.97c1.38 0 2.5 1.12 2.5 2.49s-1.12 2.49-2.5 2.49-2.5-1.12-2.5-2.49 1.12-2.49 2.5-2.49M6.83 15.53c-2.1 0-3.81 1.7-3.81 3.8v4.72H.01v-4.72c0-3.75 3.06-6.79 6.82-6.79h8.69v2.99zm-.42 3.79h3v4.72h-3zm17.6 1.69h-2.97v3.04h-3v-3.04H14.9v-2.99h3.14v-3.04h3v3.04h2.97z"/></symbol><symbol id="s32" viewBox="0 0 32 32"><path d="M15.51 14.53c4 0 7.26-3.26 7.26-7.26S19.52.02 15.51.02 8.25 3.28 8.25 7.28s3.26 7.26 7.26 7.26Zm0-11.01a3.76 3.76 0 0 1 3.76 3.75 3.76 3.76 0 0 1-7.52 0 3.76 3.76 0 0 1 3.76-3.75M8.84 20.31a5.36 5.36 0 0 0-5.36 5.36v6.35H-.03v-6.35c0-4.89 3.98-8.86 8.87-8.86h12.14v3.5zm-.31 5.36h3.51v6.35H8.53zm23.44 2h-4.23v4.34h-3.51v-4.34h-4.45v-3.5h4.45v-4.34h3.51v4.34h4.23z"/></symbol><symbol id="s40" viewBox="0 0 40 40"><path d="M19.48 17.9c4.97 0 9.01-4.03 9.01-8.98S24.45-.05 19.48-.05s-9 4.03-9 8.98 4.04 8.98 9.01 8.98Zm0-13.95c2.76 0 5 2.23 5 4.98s-2.24 4.98-5 4.98-5-2.23-5-4.98 2.24-4.98 5-4.98m-8.52 21.14c-3.83 0-6.94 3.1-6.94 6.91v7.95h-4V32c0-6.02 4.91-10.91 10.94-10.91h15.65v4zM10.78 32h4v7.95h-4zm29.24 2.31H34.5v5.63h-4v-5.63h-5.8v-4h5.8v-5.63h4v5.63h5.52z"/></symbol><symbol id="s48" viewBox="0 0 48 48"><path d="M23.38 21.45c5.93 0 10.75-4.81 10.75-10.72S29.31 0 23.38 0 12.63 4.81 12.63 10.72s4.82 10.72 10.75 10.72Zm0-16.94c3.45 0 6.25 2.79 6.25 6.22s-2.8 6.22-6.25 6.22-6.25-2.79-6.25-6.22 2.8-6.22 6.25-6.22m-10.4 25.52c-4.67 0-8.48 3.79-8.48 8.44v9.54H0v-9.54c0-7.14 5.82-12.95 12.98-12.95h18.57v4.5H12.98Zm-.07 8.44h4.5v9.54h-4.5zM48 41.09h-6.78V48h-4.5v-6.91h-7.11v-4.5h7.11v-6.91h4.5v6.91H48z"/></symbol><symbol id="s64" viewBox="0 0 64 64"><path d="M31.44 28.93c8 0 14.5-6.49 14.5-14.46S39.44 0 31.44 0s-14.5 6.49-14.5 14.46 6.51 14.46 14.5 14.46Zm0-23.92c5.24 0 9.5 4.24 9.5 9.46s-4.26 9.46-9.5 9.46-9.5-4.24-9.5-9.46 4.26-9.46 9.5-9.46m10.3 34.52H16.81c-6.51 0-11.8 5.27-11.8 11.75V64H0V51.28c0-9.23 7.54-16.75 16.81-16.75h24.93zM17.22 51.28h5V64h-5zm46.79 3.01h-9.53v9.72h-5v-9.72H39.5v-5h9.98v-9.71h5v9.71h9.53z"/></symbol><use style="display: var(--s16, none)" href="#s16"/><use style="display: var(--s24, none)" href="#s24"/><use style="display: var(--s32, none)" href="#s32"/><use style="display: var(--s40, none)" href="#s40"/><use style="display: var(--s48, none)" href="#s48"/><use style="display: var(--s64, none)" href="#s64"/></symbol></defs><style>@media (max-width: 23.98px) {g{--s16:block;}}@media (min-width: 24px) and (max-width: 31.98px) {g{--s24:block;}}@media (min-width: 32px) and (max-width: 39.98px) {g{--s32:block;}}@media (min-width: 40px) and (max-width: 47.98px) {g{--s40:block;}}@media (min-width: 48px) and (max-width: 63.98px) {g{--s48:block;}}@media (min-width: 64px) {g{--s64:block;}}</style><g><use href="#i-adduser-solid"/></g></svg>