<svg xmlns="http://www.w3.org/2000/svg"><defs><symbol id="i-ambulance"><symbol id="s16" viewBox="0 0 16 16"><path d="m12.37 4.19-.21-.25h-1.67l-.36-1.91C10.02 1.41 9.47.96 8.84.96H7.6c-.63 0-1.17.45-1.29 1.07l-.36 1.91H0v10.33h1.97c.24.99 1.12 1.73 2.18 1.73s1.95-.74 2.18-1.73h2.96c.24.99 1.12 1.73 2.18 1.73s1.95-.74 2.18-1.73h.08c1.24 0 2.25-1.01 2.25-2.25V8.57l-3.63-4.38Zm1.27 3.9h-1.45V6.33zM7.77 2.46h.92l.28 1.48H7.5l.28-1.48ZM1.5 5.44h5.99v7.32H6.17c-.37-.75-1.13-1.27-2.02-1.27s-1.65.52-2.02 1.27h-.64V5.44Zm2.66 9.05c-.41 0-.75-.34-.75-.75s.34-.75.75-.75.75.34.75.75-.34.75-.75.75m7.32 0c-.41 0-.75-.34-.75-.75s.34-.75.75-.75.75.34.75.75-.34.75-.75.75m2.27-1.73h-.25c-.37-.75-1.13-1.27-2.02-1.27s-1.65.52-2.02 1.27h-.47V5.44h1.69v2.9c0 .69.56 1.25 1.25 1.25h2.56v2.42c0 .41-.34.75-.75.75ZM3.68 9.47H2.66v-1.5h1.02V6.95h1.5v1.02H6.2v1.5H5.18v1.02h-1.5z"/></symbol><symbol id="s24" viewBox="0 0 24 24"><path d="m18.48 6.34-.23-.27h-3.07l-.51-2.7c-.14-.77-.82-1.33-1.6-1.33H11.4c-.78 0-1.46.56-1.6 1.33l-.51 2.69H0v15.29h2.98C3.23 22.85 4.53 24 6.11 24s2.87-1.15 3.13-2.65h4.99c.25 1.5 1.55 2.65 3.13 2.65s2.87-1.15 3.13-2.65h.35c1.75 0 3.18-1.43 3.18-3.18v-5.19L18.5 6.33Zm2.76 6.09h-3.09V8.69zm-9.73-8.64h1.47l.43 2.27h-2.32l.43-2.27ZM1.75 7.82h9.75v11.79H9.04c-.48-1.15-1.61-1.95-2.93-1.95s-2.45.81-2.93 1.95H1.76V7.82ZM6.1 22.26a1.43 1.43 0 1 1 0-2.86 1.43 1.43 0 0 1 0 2.86m11.24 0a1.43 1.43 0 1 1 0-2.86 1.43 1.43 0 0 1 0 2.86m3.48-2.65h-.55c-.48-1.15-1.61-1.95-2.93-1.95s-2.45.81-2.93 1.95h-1.16V7.82h3.15v4.72c0 .91.74 1.64 1.64 1.64h4.2v4c0 .79-.64 1.43-1.43 1.43ZM5.65 14H3.8v-1.75h1.85V10.4H7.4v1.85h1.85V14H7.4v1.85H5.65z"/></symbol><symbol id="s32" viewBox="0 0 32 32"><path d="m24.79 8.69-.44-.53h-4.2l-.71-3.78a2.024 2.024 0 0 0-1.98-1.65h-2.25c-.97 0-1.8.69-1.98 1.65l-.71 3.78H0v20.26h4C4.26 30.43 5.97 32 8.05 32s3.79-1.56 4.05-3.58h7.05c.26 2.01 1.97 3.58 4.05 3.58s3.79-1.56 4.05-3.58h.64c2.26 0 4.11-1.84 4.11-4.11v-6.93zm4.05 8.05-4.72-.03v-5.69zM15.21 4.73h2.27l.64 3.43h-3.56zM2 10.16h13.51v16.26h-3.64c-.59-1.54-2.08-2.63-3.82-2.63s-3.23 1.1-3.82 2.63H2zM8.05 30c-1.16 0-2.11-.95-2.11-2.11s.95-2.11 2.11-2.11 2.11.95 2.11 2.11S9.21 30 8.05 30m15.15 0c-1.16 0-2.11-.95-2.11-2.11s.95-2.11 2.11-2.11 2.11.95 2.11 2.11S24.37 30 23.2 30m4.69-3.58h-.87c-.59-1.54-2.08-2.63-3.82-2.63s-3.23 1.1-3.82 2.63h-1.87V10.16h4.61v6.55c0 1.12.91 2.04 2.04 2.04H30v5.57c0 1.16-.94 2.11-2.11 2.11ZM7.36 18.75H4.94v-2.5h2.42v-2.42h2.5v2.42h2.42v2.5H9.86v2.42h-2.5z"/></symbol><symbol id="s40" viewBox="0 0 40 40"><path d="m30.88 10.82-.43-.52h-5.34l-.91-4.87a2.4 2.4 0 0 0-2.36-1.96h-2.83c-1.16 0-2.15.83-2.36 1.96l-.91 4.87H0v25.23h5.02c.27 2.52 2.39 4.5 4.98 4.5s4.71-1.98 4.98-4.5h9.11c.27 2.52 2.39 4.5 4.98 4.5s4.71-1.98 4.98-4.5h.92c2.78 0 5.03-2.26 5.03-5.03v-8.67l-9.12-11Zm5.57 10.29h-6.19a.18.18 0 0 1-.18-.18V13.4l6.36 7.71ZM18.85 5.85a.16.16 0 0 1 .15-.13h2.83c.08 0 .14.05.15.13l.83 4.45H18l.83-4.45Zm-16.6 6.7h17.26v20.73H14.7c-.71-1.93-2.54-3.32-4.71-3.32s-4.01 1.39-4.71 3.32H2.25zM10 37.78c-1.53 0-2.78-1.25-2.78-2.78s1.25-2.78 2.78-2.78 2.78 1.25 2.78 2.78-1.25 2.78-2.78 2.78m19.07 0c-1.53 0-2.78-1.25-2.78-2.78s1.25-2.78 2.78-2.78 2.78 1.25 2.78 2.78-1.25 2.78-2.78 2.78m5.9-4.5h-1.19c-.71-1.93-2.54-3.32-4.71-3.32s-4.01 1.39-4.71 3.32h-2.59V12.55h6.07v8.37c0 1.34 1.09 2.43 2.43 2.43h7.49v7.14c0 1.53-1.25 2.78-2.78 2.78ZM9.21 23.42H6.09v-3h3.12V17.3h3v3.12h3.12v3h-3.12v3.12h-3z"/></symbol><symbol id="s48" viewBox="0 0 48 48"><path d="m36.97 12.9-.42-.51h-6.47l-1.12-5.95a2.8 2.8 0 0 0-2.75-2.28h-3.42c-1.34 0-2.5.96-2.75 2.28l-1.12 5.95H0v30.2h6.01c.27 3.04 2.83 5.43 5.94 5.43s5.66-2.39 5.93-5.43H29c.27 3.04 2.83 5.43 5.93 5.43s5.66-2.39 5.94-5.43h1.18c3.29 0 5.96-2.67 5.96-5.96V26.21L36.98 12.9Zm7.08 12.51h-7.68c-.18 0-.32-.14-.32-.32v-9.37zM22.51 6.9c.03-.14.15-.24.29-.24h3.42c.14 0 .26.1.29.24l1.03 5.49h-6.05l1.03-5.49ZM11.94 45.51a3.461 3.461 0 0 1 0-6.92 3.461 3.461 0 0 1 0 6.92m0-9.42c-2.6 0-4.81 1.67-5.62 4H2.5v-25.2h21.02v25.19h-5.96c-.81-2.32-3.02-4-5.62-4Zm22.99 9.42a3.461 3.461 0 0 1 0-6.92 3.461 3.461 0 0 1 0 6.92m7.11-5.42h-1.49c-.81-2.32-3.02-4-5.62-4s-4.81 1.67-5.62 4h-3.28v-25.2h7.53v10.2c0 1.56 1.27 2.82 2.82 2.82h9.13v8.72c0 1.91-1.55 3.46-3.46 3.46ZM14.55 28.04v3.82h-3.5v-3.82H7.23v-3.5h3.82v-3.82h3.5v3.82h3.82v3.5z"/></symbol><symbol id="s64" viewBox="0 0 64 64"><path d="m48.96 16.92-.22-.26h-8.82l-1.55-8.27a3.46 3.46 0 0 0-3.39-2.82h-4.6c-1.66 0-3.09 1.18-3.39 2.82l-1.55 8.26H0v40.03h8.07c.22 4.06 3.58 7.3 7.7 7.3s7.48-3.24 7.7-7.3h15.55c.22 4.06 3.58 7.3 7.7 7.3s7.48-3.24 7.7-7.3h1.88c4.26 0 7.72-3.46 7.72-7.72V35.05L48.98 16.91Zm10.68 17.26H48.65c-.41 0-.74-.33-.74-.74V19.97zM29.69 8.9c.06-.33.35-.57.69-.57h4.6c.34 0 .63.24.69.57l1.45 7.76h-8.89l1.45-7.76ZM15.77 61.24c-2.74 0-4.97-2.23-4.97-4.97s2.23-4.97 4.97-4.97 4.97 2.23 4.97 4.97-2.23 4.97-4.97 4.97m0-12.68c-3.44 0-6.36 2.26-7.35 5.38H2.75V19.41h28.91v34.53h-8.54c-.99-3.12-3.91-5.38-7.35-5.38m30.94 12.68c-2.74 0-4.97-2.23-4.97-4.97s2.23-4.97 4.97-4.97 4.97 2.23 4.97 4.97-2.23 4.97-4.97 4.97m9.57-7.3h-2.22c-.99-3.12-3.91-5.38-7.35-5.38s-6.36 2.26-7.35 5.38h-4.94V19.41h10.75v14.04a3.5 3.5 0 0 0 3.49 3.49h12.6v12.04c0 2.74-2.23 4.97-4.97 4.97ZM19.17 37.31v5.24h-4.5v-5.24H9.43v-4.5h5.24v-5.24h4.5v5.24h5.24v4.5z"/></symbol><use style="display: var(--s16, none)" href="#s16"/><use style="display: var(--s24, none)" href="#s24"/><use style="display: var(--s32, none)" href="#s32"/><use style="display: var(--s40, none)" href="#s40"/><use style="display: var(--s48, none)" href="#s48"/><use style="display: var(--s64, none)" href="#s64"/></symbol></defs><style>@media (max-width: 23.98px) {g{--s16:block;}}@media (min-width: 24px) and (max-width: 31.98px) {g{--s24:block;}}@media (min-width: 32px) and (max-width: 39.98px) {g{--s32:block;}}@media (min-width: 40px) and (max-width: 47.98px) {g{--s40:block;}}@media (min-width: 48px) and (max-width: 63.98px) {g{--s48:block;}}@media (min-width: 64px) {g{--s64:block;}}</style><g><use href="#i-ambulance"/></g></svg>