<svg xmlns="http://www.w3.org/2000/svg"><defs><symbol id="i-ambulance-solid"><symbol id="s16" viewBox="0 0 16 16"><path d="M5.84 14.25v.02c0 .96-.79 1.73-1.75 1.73s-1.74-.78-1.75-1.73 0-.01 0-.02c0-.97.78-1.75 1.75-1.75s1.75.78 1.75 1.75M16 8.57v3.45c0 .97-.62 1.79-1.47 2.1-.07-1.73-1.49-3.12-3.24-3.12s-3.25 1.46-3.25 3.25v.02h-.7v-.02c0-1.79-1.46-3.25-3.25-3.25S.84 12.46.84 14.25v.02H.01V3.95h5.96l.36-1.91c.12-.62.66-1.07 1.29-1.07h1.24c.63 0 1.17.45 1.29 1.07l.36 1.91h1.67l3.84 4.63ZM7.49 3.95h1.47l-.28-1.48h-.92l-.28 1.48ZM6.2 7.23H5.18V6.21h-1.5v1.02H2.66v1.5h1.02v1.02h1.5V8.73H6.2zm8.11 1.26-2.56-3.1h-.31v3.04c0 .23.19.42.42.42h2.45zm-3.02 4.01c-.97 0-1.75.78-1.75 1.75v.02c0 .96.79 1.73 1.75 1.73s1.74-.78 1.75-1.73 0-.01 0-.02c0-.97-.78-1.75-1.75-1.75"/></symbol><symbol id="s24" viewBox="0 0 24 24"><path d="M8.77 21.01c0 .11-.02.22-.03.33-.16 1.5-1.42 2.68-2.97 2.68s-2.8-1.17-2.97-2.68c-.01-.11-.03-.21-.03-.33 0-.83.34-1.58.88-2.12.14-.14.28-.26.44-.37a3.03 3.03 0 0 1 3.36 0c.16.11.31.23.44.37.54.54.88 1.29.88 2.12m15.22-8.04v5.19c0 1.33-.83 2.47-1.99 2.95v-.09c0-2.76-2.25-5-5-5s-5 2.25-5 5c0 .11.03.22.03.33h-1.29c0-.11.03-.21.03-.33 0-2.76-2.25-5-5-5s-5 2.23-5 4.99c0 .11.03.22.03.33h-.81V6.04h9.3l.51-2.69c.15-.77.82-1.33 1.6-1.33h1.67c.78 0 1.46.56 1.6 1.33l.51 2.7h3.07l5.74 6.93ZM11.08 6.04h2.32l-.43-2.27H11.5l-.43 2.27Zm-1.85 4.34H7.38V8.53H5.63v1.85H3.78v1.75h1.85v1.85h1.75v-1.85h1.85zm12.39 2.9-4.71-5.71h-.57v5.6c0 .42.34.77.77.77h4.51zm-2.5 5.61c-.14-.14-.28-.26-.44-.37a3.03 3.03 0 0 0-3.36 0c-.16.11-.31.23-.44.37-.54.54-.88 1.29-.88 2.12 0 .11.02.22.03.33.16 1.5 1.42 2.68 2.97 2.68s2.8-1.17 2.97-2.68c.01-.11.03-.21.03-.33 0-.83-.34-1.58-.88-2.12"/></symbol><symbol id="s32" viewBox="0 0 32 32"><path d="M11.19 28.5c0 .14-.02.27-.04.4-.2 1.74-1.66 3.1-3.46 3.1s-3.26-1.36-3.46-3.1c-.02-.13-.04-.26-.04-.4 0-1.93 1.57-3.5 3.5-3.5s3.5 1.57 3.5 3.5M32 17.86v6.93c0 1.83-1.21 3.36-2.86 3.89v-.18c0-3.58-2.92-6.5-6.5-6.5s-6.5 2.92-6.5 6.5c0 .13.01.27.02.4h-2c0-.13.02-.26.02-.4 0-3.58-2.92-6.5-6.5-6.5s-6.5 2.92-6.5 6.5c0 .13.01.27.02.4H0V8.64h12.26l.72-3.83c.2-1.07 1.14-1.85 2.23-1.85h2.25c1.09 0 2.03.78 2.23 1.85l.72 3.83h3.95l7.65 9.22ZM14.85 8.39h2.96l-.55-2.93h-1.87l-.55 2.93Zm-3.49 6.36H8.94v-2.42h-2.5v2.42H4.02v2.5h2.42v2.42h2.5v-2.42h2.42zm17.87 3.59-6.35-7.7h-.76v7.55c0 .57.46 1.04 1.04 1.04h6.08v-.89ZM22.65 25c-1.93 0-3.5 1.57-3.5 3.5 0 .14.02.27.04.4.2 1.74 1.66 3.1 3.46 3.1s3.26-1.36 3.46-3.1c.02-.13.04-.26.04-.4 0-1.93-1.57-3.5-3.5-3.5"/></symbol><symbol id="s40" viewBox="0 0 40 40"><path d="M12.99 32.98c.49.72.77 1.58.77 2.52a4.5 4.5 0 1 1-8.23-2.52c.32-.48.74-.89 1.22-1.22.72-.49 1.58-.77 2.52-.77s1.8.28 2.52.77c.48.32.89.74 1.22 1.22Zm27-11.16v8.67c0 1.83-.99 3.42-2.46 4.3-.36-4.08-3.79-7.29-7.96-7.29-4.41 0-8 3.59-8 8v.03h-4.32v-.03c0-4.41-3.59-8-8-8s-8 3.59-8 8v.03H0V10.3h15.34l.93-4.94c.25-1.31 1.4-2.27 2.73-2.27h2.83c1.34 0 2.49.95 2.73 2.27l.93 4.94h4.95zM18.46 9.92h3.91l-.72-3.83h-2.47zm-3.52 8.12h-3.12v-3.12h-3v3.12H5.7v3h3.12v3.12h3v-3.12h3.12zm21.82 4.21-8-9.69h-.96v9.5c0 .72.58 1.3 1.3 1.3h7.65v-1.12Zm-4.67 9.52c-.72-.49-1.58-.77-2.52-.77s-1.8.28-2.52.77c-.48.32-.89.74-1.22 1.22-.49.72-.77 1.58-.77 2.52a4.5 4.5 0 1 0 8.23-2.52c-.32-.48-.74-.89-1.22-1.22Z"/></symbol><symbol id="s48" viewBox="0 0 48 48"><path d="M15.55 40.01c.63.84 1.01 1.86 1.01 2.99 0 2.76-2.24 5-5 5s-5-2.24-5-5c0-1.13.39-2.15 1.01-2.99.01-.02.03-.03.04-.05.17-.22.35-.43.55-.62.04-.04.1-.08.14-.12.18-.16.36-.31.56-.44.1-.06.2-.11.3-.16.17-.09.33-.19.51-.26.16-.07.34-.11.51-.16.13-.04.26-.09.39-.12.32-.06.64-.1.98-.1s.66.04.98.1c.14.03.26.08.39.12.17.05.35.09.51.16.18.07.34.17.51.26.1.06.21.1.3.16.2.13.38.28.56.44.05.04.1.07.14.12.2.19.38.4.55.62.01.02.03.03.04.05Zm22.96-.05c-.17-.22-.35-.43-.55-.62-.04-.04-.1-.08-.14-.12a5 5 0 0 0-.56-.44c-.1-.06-.2-.11-.3-.16-.17-.09-.33-.19-.51-.26-.16-.07-.34-.11-.51-.16-.13-.04-.26-.09-.39-.12-.32-.06-.64-.1-.98-.1s-.66.04-.98.1c-.14.03-.26.08-.39.12-.17.05-.35.09-.51.16-.18.07-.34.17-.51.26-.1.06-.21.1-.3.16-.2.13-.38.28-.56.44-.05.04-.1.07-.14.12-.2.19-.38.4-.55.62-.01.02-.03.03-.04.05-.63.84-1.01 1.86-1.01 2.99 0 2.76 2.24 5 5 5s5-2.24 5-5c0-1.13-.39-2.15-1.01-2.99-.01-.02-.03-.03-.04-.05ZM48 26.19v10.42c0 2.4-1.43 4.48-3.49 5.42-.49-5.06-4.77-9.03-9.95-9.03s-9.76 4.26-9.98 9.58h-3.03c-.23-5.32-4.61-9.58-9.98-9.58s-9.76 4.25-9.99 9.57H0v-30.2h18.43l1.13-6.04a3.29 3.29 0 0 1 3.24-2.69h3.42a3.3 3.3 0 0 1 3.24 2.69l1.13 6.04h5.96l11.46 13.82ZM22.09 11.87h4.85l-.89-4.73h-3.07zm-4.39 9.97h-3.82v-3.82h-3.5v3.82H6.56v3.5h3.82v3.82h3.5v-3.82h3.82zm26.4 4.95-9.64-11.67H33.3v11.45c0 .87.7 1.57 1.57 1.57h9.22v-1.35Z"/></symbol><symbol id="s64" viewBox="0 0 64 64"><path d="M54.3 56.68c0 .11.02.21.02.32 0 3.87-3.13 7-7 7s-7-3.13-7-7c0-.11.01-.22.02-.32a6.9 6.9 0 0 1 1.29-3.73c0-.01.02-.02.02-.03.12-.16.24-.32.38-.48.02-.02.03-.04.05-.05l.39-.42c.03-.03.06-.05.08-.08.13-.12.26-.24.4-.35.04-.03.08-.06.13-.09.13-.1.26-.2.4-.29.06-.04.12-.07.18-.11.13-.08.25-.16.39-.23.07-.04.15-.07.23-.11.12-.06.24-.12.37-.17.09-.04.19-.07.28-.1.12-.04.23-.09.35-.12.11-.03.23-.06.35-.09.1-.03.21-.06.31-.08.14-.03.29-.05.43-.07.08-.01.17-.03.25-.04.23-.02.47-.04.71-.04s.47.01.71.04c.09 0 .17.03.25.04.14.02.29.04.43.07.11.02.21.05.31.08.12.03.23.05.34.09.12.04.23.08.35.12.09.03.19.07.28.1.13.05.25.11.37.17.08.04.15.07.23.11.13.07.26.15.39.23.06.04.12.07.17.11.14.09.27.19.4.29.04.03.08.06.13.09.14.11.27.23.4.35.03.03.06.05.08.08q.21.195.39.42c.02.02.03.04.05.05.13.15.26.31.38.48 0 .01.02.02.02.03.12.17.24.35.35.54.55.95.88 2.03.94 3.19m-33.24 0a6.9 6.9 0 0 0-.94-3.19c-.11-.18-.22-.36-.35-.54 0-.01-.02-.02-.02-.03-.12-.16-.24-.32-.38-.48-.02-.02-.03-.04-.05-.05l-.39-.42c-.03-.03-.06-.05-.08-.08-.13-.12-.26-.24-.4-.35-.04-.03-.08-.06-.13-.09-.13-.1-.26-.2-.4-.29-.06-.04-.12-.07-.18-.11-.13-.08-.25-.16-.39-.23-.07-.04-.15-.07-.23-.11-.12-.06-.24-.12-.37-.17-.09-.04-.19-.07-.28-.1-.12-.04-.23-.09-.35-.12-.11-.03-.23-.06-.35-.09-.1-.03-.21-.06-.31-.08-.14-.03-.29-.05-.43-.07-.08-.01-.17-.03-.25-.04-.23-.02-.47-.04-.71-.04s-.47.01-.71.04c-.09 0-.17.03-.25.04-.14.02-.29.04-.43.07-.11.02-.21.05-.31.08-.12.03-.23.05-.34.09-.12.04-.23.08-.35.12-.09.03-.19.07-.28.1-.13.05-.25.11-.37.17-.08.04-.15.07-.23.11-.13.07-.26.15-.39.23-.06.04-.12.07-.17.11-.14.09-.27.19-.4.29-.04.03-.08.06-.13.09-.14.11-.27.23-.4.35-.03.03-.06.05-.08.08-.14.13-.27.27-.39.41-.02.02-.03.04-.05.06-.13.15-.26.31-.38.48 0 .01-.02.02-.02.03-.12.17-.24.35-.35.54-.55.95-.88 2.03-.94 3.19 0 .11-.02.21-.02.32 0 3.87 3.13 7 7 7s7-3.13 7-7c0-.11-.01-.22-.02-.32M64 35.05v13.91c0 3.2-1.96 5.95-4.74 7.12C58.79 49.89 53.61 45 47.31 45S35.5 50.21 35.33 56.68h-9.27C25.89 50.21 20.58 45 14.08 45S2.27 50.21 2.1 56.68H0V16.64h24.55l1.58-8.43a4.32 4.32 0 0 1 4.25-3.53h4.6a4.32 4.32 0 0 1 4.25 3.53l1.58 8.43h7.93zM29.29 15.77h6.78l-1.23-6.58h-4.31l-1.23 6.58Zm-5.24 13.98h-5.24v-5.24h-4.5v5.24H9.07v4.5h5.24v5.24h4.5v-5.24h5.24zm34.66 6.34L45.74 20.37h-1.56v15.41c0 1.17.95 2.11 2.11 2.11H58.7v-1.81Z"/></symbol><use style="display: var(--s16, none)" href="#s16"/><use style="display: var(--s24, none)" href="#s24"/><use style="display: var(--s32, none)" href="#s32"/><use style="display: var(--s40, none)" href="#s40"/><use style="display: var(--s48, none)" href="#s48"/><use style="display: var(--s64, none)" href="#s64"/></symbol></defs><style>@media (max-width: 23.98px) {g{--s16:block;}}@media (min-width: 24px) and (max-width: 31.98px) {g{--s24:block;}}@media (min-width: 32px) and (max-width: 39.98px) {g{--s32:block;}}@media (min-width: 40px) and (max-width: 47.98px) {g{--s40:block;}}@media (min-width: 48px) and (max-width: 63.98px) {g{--s48:block;}}@media (min-width: 64px) {g{--s64:block;}}</style><g><use href="#i-ambulance-solid"/></g></svg>