<svg xmlns="http://www.w3.org/2000/svg"><defs><symbol id="i-apirest-solid"><symbol id="s16" viewBox="0 0 16 16"><path d="M10.53 1.23c-1.13 0-2.2.44-3 1.25L6.24 3.77l6.01 6.01 1.29-1.29c1.35-1.35 1.58-3.38.73-4.98L16 1.78V0h-1.77L12.5 1.73c-.6-.32-1.27-.5-1.97-.5m1.62 4.91L9.86 3.85c.63-.26 1.41-.11 1.9.38.33.33.51.77.51 1.24 0 .23-.04.46-.13.67ZM1.76 16l1.72-1.72c.62.33 1.3.51 1.99.51 1.09 0 2.18-.41 3.01-1.24l1.29-1.29-.9-.9 1.19-1.19c.49-.49.49-1.28 0-1.77s-1.28-.49-1.77 0L7.1 9.59l-.85-.85 1.19-1.19c.49-.49.49-1.28 0-1.77s-1.28-.49-1.77 0L4.48 6.97l-.73-.73-1.29 1.29C1.12 8.87.88 10.89 1.72 12.5L0 14.22V16zm2.09-6.12 2.29 2.29c-.63.26-1.41.11-1.9-.38-.33-.33-.51-.77-.51-1.24 0-.23.04-.46.13-.67Z"/></symbol><symbol id="s24" viewBox="0 0 24 24"><path d="M8.21 21.81c1.6 0 3.11-.62 4.24-1.76l1.67-1.67-1.69-1.69 2.05-2.05c.59-.59.59-1.54 0-2.12s-1.54-.59-2.12 0l-2.05 2.05-1-1 2.05-2.05c.59-.59.59-1.54 0-2.12s-1.54-.59-2.12 0l-2.05 2.05-1.56-1.56-1.67 1.67A5.97 5.97 0 0 0 2.2 15.8c0 1.08.29 2.12.82 3.03l-3.03 3.03v2.13h2.12l3.03-3.03c.92.55 1.97.85 3.06.85Zm-2.52-7.62.42.42s.01.02.02.03.02.01.03.02l3.06 3.06s.01.02.02.03.02.01.03.02l.55.55c-1.14.74-2.76.58-3.75-.4-.57-.57-.88-1.32-.88-2.12 0-.59.17-1.14.48-1.62ZM21.89 0l-3.06 3.06c-2.3-1.35-5.3-1.06-7.27.92L9.89 5.65l8.48 8.48 1.67-1.67c1.97-1.97 2.26-4.98.91-7.28L24 2.13V0zm-3.56 9.84-4.15-4.15c1.16-.75 2.73-.61 3.75.4a3.02 3.02 0 0 1 .4 3.75"/></symbol><symbol id="s32" viewBox="0 0 32 32"><path d="m15.6 5.32-2.05 2.06L24.51 18.4l2.05-2.06c2.6-2.61 2.96-6.63 1.09-9.64l4.36-4.38V0h-2.64l-4.2 4.22a7.74 7.74 0 0 0-9.57 1.1m8.88 8.08-5.95-5.98a4.23 4.23 0 0 1 5.56.4c1.51 1.52 1.64 3.92.39 5.59ZM2.47 32l4.36-4.38c1.22.78 2.64 1.2 4.12 1.2 2.07 0 4.02-.81 5.48-2.28l2.05-2.06-2.25-2.26 2.91-2.92c.68-.69.68-1.8 0-2.49s-1.79-.69-2.47 0l-2.91 2.92-1.68-1.69 2.91-2.92c.68-.69.68-1.8 0-2.49s-1.79-.69-2.47 0l-2.91 2.92-2.08-2.09-2.05 2.06a7.78 7.78 0 0 0-2.27 5.51c0 1.47.41 2.88 1.16 4.1L0 29.51V32zm5.08-13.55.74.74s.04.06.07.08.05.04.08.07l4.01 4.04s.04.06.07.08.05.04.08.07l.91.92c-.73.55-1.62.86-2.55.86-1.13 0-2.2-.44-3-1.25s-1.25-1.88-1.25-3.02c0-.94.3-1.83.85-2.57Z"/></symbol><symbol id="s40" viewBox="0 0 40 40"><path d="m37.09.06-5.6 5.6c-3.68-2.37-8.64-1.95-11.86 1.27L17.2 9.36l13.43 13.43 2.43-2.43c3.22-3.22 3.64-8.2 1.25-11.88l5.68-5.68V.06h-2.91Zm-6.47 17.05-7.74-7.74c2.16-1.76 5.35-1.64 7.36.38s2.14 5.2.38 7.36M13.69 35.79c2.54 0 4.92-.99 6.72-2.78l2.43-2.43-2.81-2.81 3.76-3.76c.78-.78.78-2.05 0-2.83s-2.05-.78-2.83 0l-3.76 3.76-2.37-2.37 3.76-3.76c.78-.78.78-2.05 0-2.83s-2.05-.78-2.83 0L12 19.74l-2.59-2.59-2.43 2.43A9.45 9.45 0 0 0 4.2 26.3c0 1.84.53 3.61 1.5 5.12L0 37.12v2.95h2.71l5.8-5.8c1.53 1 3.31 1.54 5.18 1.54ZM9.43 22.82l1.07 1.07s.05.07.08.1.07.05.1.08l5.01 5.01s.05.07.08.1.07.05.1.08l1.29 1.29c-.98.8-2.19 1.23-3.47 1.23-1.47 0-2.85-.57-3.89-1.61s-1.61-2.42-1.61-3.89c0-1.28.43-2.49 1.23-3.47Z"/></symbol><symbol id="s48" viewBox="0 0 48 48"><path d="m3.15 48 7.03-7.01a11.3 11.3 0 0 0 6.25 1.88c2.89 0 5.77-1.1 7.97-3.29l2.82-2.81-3.38-3.38 4.63-4.62c.88-.88.88-2.3 0-3.18s-2.31-.88-3.19 0l-4.63 4.62-3.06-3.06 4.63-4.62c.88-.88.88-2.3 0-3.18s-2.31-.88-3.19 0l-4.63 4.62-3.12-3.11-2.82 2.81C4.62 27.5 4.14 33.43 7.01 37.8L.04 44.74V48zm8.13-20.77 1.39 1.39s.06.09.1.13.09.07.13.1l6.02 6s.06.09.1.13.09.07.13.1l1.66 1.66a6.777 6.777 0 0 1-9.17-.35h-.01a6.767 6.767 0 0 1-.35-9.17ZM23.67 8.48l-2.82 2.81L36.79 27.2l2.82-2.81c3.85-3.85 4.33-9.81 1.42-14.17l7.01-7V0h-3.15l-7.05 7.04c-4.37-2.88-10.33-2.4-14.17 1.44m13.11 12.34-9.54-9.52c2.65-2.27 6.67-2.15 9.18.36a6.754 6.754 0 0 1 .36 9.16"/></symbol><symbol id="s64" viewBox="0 0 64 64"><path d="m31.92 11.66-3.4 3.39 20.51 20.5 3.39-3.4c2.74-2.74 4.25-6.38 4.25-10.25 0-3.03-.94-5.92-2.65-8.34L64 3.58V0h-3.48L50.48 10.04c-5.65-3.96-13.51-3.43-18.56 1.62m17.11 16.83L35.6 15.06c3.71-3.56 9.64-3.52 13.29.14 1.79 1.79 2.78 4.18 2.78 6.72s-.94 4.8-2.64 6.57M3.53 64.01l10.02-10.02c2.5 1.77 5.43 2.67 8.36 2.67 3.71 0 7.43-1.41 10.25-4.24l3.39-3.4-4.5-4.5L37.57 38c.98-.98.98-2.56 0-3.53s-2.56-.98-3.54 0l-6.52 6.52-4.78-4.78 6.52-6.52c.98-.98.98-2.56 0-3.53s-2.56-.98-3.54 0l-6.52 6.52-4.15-4.15-3.4 3.39C6.6 36.96 6.07 44.8 10 50.45L0 60.47v3.54zm11.53-28.42 2.23 2.23c.05.05.08.11.14.17s.11.09.17.14l8.02 8.01c.05.05.08.11.13.16s.11.09.16.13l2.58 2.58c-3.71 3.56-9.64 3.52-13.29-.14-3.66-3.66-3.7-9.58-.14-13.29Z"/></symbol><use style="display: var(--s16, none)" href="#s16"/><use style="display: var(--s24, none)" href="#s24"/><use style="display: var(--s32, none)" href="#s32"/><use style="display: var(--s40, none)" href="#s40"/><use style="display: var(--s48, none)" href="#s48"/><use style="display: var(--s64, none)" href="#s64"/></symbol></defs><style>@media (max-width: 23.98px) {g{--s16:block;}}@media (min-width: 24px) and (max-width: 31.98px) {g{--s24:block;}}@media (min-width: 32px) and (max-width: 39.98px) {g{--s32:block;}}@media (min-width: 40px) and (max-width: 47.98px) {g{--s40:block;}}@media (min-width: 48px) and (max-width: 63.98px) {g{--s48:block;}}@media (min-width: 64px) {g{--s64:block;}}</style><g><use href="#i-apirest-solid"/></g></svg>