<svg xmlns="http://www.w3.org/2000/svg"><defs><symbol id="i-archive"><symbol id="s16" viewBox="0 0 16 16"><path d="M4.26 11.5c0-.41.34-.75.75-.75h5.98c.41 0 .75.34.75.75s-.34.75-.75.75H5.01c-.41 0-.75-.34-.75-.75M16 7.01V16H0V7l2.07-4.56c.12-.27.39-.44.68-.44h.88V0h6.94l1.61 2h1.07c.29 0 .56.17.68.44zm-3.03-3.07V7h1.39zM9.85 1.5h-.02v1.24h1.02zm-4.72 0V7h6.34V4.24H9.48c-.63 0-1.15-.52-1.15-1.15V1.5zM1.65 7h1.98V3.5h-.39zM14.5 8.5h-13v6h12.99v-6Z"/></symbol><symbol id="s24" viewBox="0 0 24 24"><path d="M23.99 10.74 20.85 3.6a.87.87 0 0 0-.8-.52h-1.74L15.83 0H5.59v3.08H3.95a.88.88 0 0 0-.8.52L.01 10.74H0V24h24V10.74zm-1.91 0h-2.71V4.82h.11zM16.97 4.2h-1.98V1.74l1.98 2.45Zm-3.73-2.46v2.71c0 .82.67 1.49 1.49 1.49h2.88v4.79H7.34V1.74zM4.52 4.82h1.07v5.92H1.92zm17.73 17.42H1.75v-9.75h20.5zM6.54 17.36c0-.48.39-.88.87-.88h9.18c.48 0 .87.39.87.88s-.39.88-.87.88H7.41c-.48 0-.87-.39-.87-.88"/></symbol><symbol id="s32" viewBox="0 0 32 32"><path d="M8.81 23.25c0-.55.45-1 1-1h12.37c.55 0 1 .45 1 1s-.45 1-1 1H9.81c-.55 0-1-.45-1-1M32 14.5V32H0V14.5l4.24-9.64c.16-.36.52-.6.91-.6h2.39V0h13.53l3.44 4.27h2.33c.4 0 .76.23.91.6l4.24 9.63Zm-5.8-8.23h-.45v8.23h4.07zM20.12 2v3.66h2.95zM9.54 2v12.5h14.21V7.66h-3.8a1.83 1.83 0 0 1-1.83-1.83V2zM2.18 14.5h5.36V6.27H5.8zm27.82 2H2V30h27.99V16.5Z"/></symbol><symbol id="s40" viewBox="0 0 40 40"><path d="M11.1 29.13c0-.62.5-1.12 1.12-1.12h15.56c.62 0 1.12.5 1.12 1.12s-.5 1.12-1.12 1.12H12.22c-.62 0-1.12-.5-1.12-1.12m28.7-10.88h.17V40H.04V18.25H.2l-.2-.09L5.33 6.03c.18-.41.58-.67 1.03-.67H9.5V0h16.82l4.32 5.36h3.01c.45 0 .85.26 1.03.67l5.33 12.13-.2.09Zm-14.56-16h-.05v4.88h3.98zm-22.82 16h35.17L32.92 7.61h-.79v10.61h-2.25V9.38h-4.76c-1.2 0-2.17-.97-2.17-2.17V2.25h-11.2v15.97H9.5V7.61H7.09zm35.31 2.25H2.28v17.25h35.44V20.5Z"/></symbol><symbol id="s48" viewBox="0 0 48 48"><path d="M13.35 35c0-.69.56-1.25 1.25-1.25h18.8a1.25 1.25 0 0 1 0 2.5H14.6c-.69 0-1.25-.56-1.25-1.25m34.64-12.93v25.94H0V22h.02l6.4-14.55c.2-.45.65-.75 1.15-.75h3.85V.01h20.16l5.41 6.69h3.45c.5 0 .95.29 1.15.75l6.39 14.54H48v.07ZM39.62 9.2h-1.08v12.79h6.7zM30.6 2.78V8.6h4.7zm-16.68-.27V22h22.12V11.11h-5.43c-1.39 0-2.51-1.13-2.51-2.51V2.51zM2.76 22h8.65V9.21H8.38zm42.73 2.5H2.51v21.02h42.98z"/></symbol><symbol id="s64" viewBox="0 0 64 64"><path d="M17.99 46.81c0-.76.61-1.37 1.37-1.37h25.28c.76 0 1.37.61 1.37 1.37s-.61 1.37-1.37 1.37H19.36c-.76 0-1.37-.61-1.37-1.37M63.8 29.6h.17v34.42H.04V29.6H.2l-.2-.09L8.63 9.82c.22-.5.71-.82 1.26-.82h5.49V.03h26.66l7.24 8.98h4.82c.55 0 1.04.32 1.26.82l8.63 19.69-.2.09ZM53.21 11.75h-1.96V29.6h9.79zM40.73 2.77h-.17v8.5c0 .18.15.32.32.32h6.96l-7.12-8.83Zm-22.6 0V29.6h30.38V14.35H40.9c-1.69 0-3.07-1.38-3.07-3.07V2.77H18.14ZM2.96 29.6h12.42V11.75h-4.59zm58.26 2.75H2.78v28.93h58.43V32.35Z"/></symbol><use style="display: var(--s16, none)" href="#s16"/><use style="display: var(--s24, none)" href="#s24"/><use style="display: var(--s32, none)" href="#s32"/><use style="display: var(--s40, none)" href="#s40"/><use style="display: var(--s48, none)" href="#s48"/><use style="display: var(--s64, none)" href="#s64"/></symbol></defs><style>@media (max-width: 23.98px) {g{--s16:block;}}@media (min-width: 24px) and (max-width: 31.98px) {g{--s24:block;}}@media (min-width: 32px) and (max-width: 39.98px) {g{--s32:block;}}@media (min-width: 40px) and (max-width: 47.98px) {g{--s40:block;}}@media (min-width: 48px) and (max-width: 63.98px) {g{--s48:block;}}@media (min-width: 64px) {g{--s64:block;}}</style><g><use href="#i-archive"/></g></svg>