<svg xmlns="http://www.w3.org/2000/svg"><defs><symbol id="i-archive-solid"><symbol id="s16" viewBox="0 0 16 16"><path d="m16 7-2.07-4.57a.75.75 0 0 0-.68-.44h-1.07L10.57 0H3.63v2h-.88c-.29 0-.56.17-.68.44L0 7v9h15.99V7.01Zm-1.65 0h-1.39V3.95zm-3.5-4.26H9.83V1.5h.02zM8.33 1.5v1.59c0 .64.52 1.15 1.15 1.15h1.99V7H5.13V1.5zm-5.09 2h.39V7H1.65zm7.75 8.75H5.01c-.41 0-.75-.34-.75-.75s.34-.75.75-.75h5.98c.41 0 .75.34.75.75s-.34.75-.75.75"/></symbol><symbol id="s24" viewBox="0 0 24 24"><path d="m23.99 10.74-3.14-7.15a.87.87 0 0 0-.8-.52H18.3L15.83 0H5.59v3.07H3.95a.88.88 0 0 0-.8.52L.01 10.74H0V24h24V10.74zm-1.91 0h-2.71V4.82h.11zM16.97 4.2h-1.98V1.75zm-3.73-2.45v2.71c0 .82.67 1.49 1.49 1.49h2.88v4.79H7.34V1.75zM4.52 4.82h1.07v5.92H1.92zm12.07 13.42H7.41c-.48 0-.87-.39-.87-.88s.39-.88.87-.88h9.18c.48 0 .87.39.87.88s-.39.88-.87.88"/></symbol><symbol id="s32" viewBox="0 0 32 32"><path d="m32 14.5-4.24-9.64c-.16-.36-.52-.6-.91-.6h-2.34L21.07 0H7.54v4.26H5.15c-.4 0-.76.23-.91.6L0 14.5V32h31.99V14.5Zm-2.18 0h-4.07V6.27h.45zm-6.75-8.83h-2.95V2.01zM18.12 2v3.83c0 1.01.82 1.83 1.83 1.83h3.8v6.83H9.54V2zM5.8 6.27h1.74v8.23H2.18zm16.39 17.98H9.82c-.55 0-1-.45-1-1s.45-1 1-1h12.37c.55 0 1 .45 1 1s-.45 1-1 1"/></symbol><symbol id="s40" viewBox="0 0 40 40"><path d="m39.99 18.25-5.3-12.21c-.18-.41-.58-.68-1.03-.68h-3.02L26.32 0H9.48v5.36H6.34c-.45 0-.85.27-1.03.68L0 18.25V40h40V18.25Zm-2.45 0h-5.4V7.61h.78zM29.19 7.13H25.2V2.25h.05zm-6.24-4.88v4.96c0 1.2.97 2.17 2.17 2.17h4.77v8.87H11.73v-16zM7.08 7.61h2.41v10.64H2.45zm20.71 22.64H12.21c-.62 0-1.12-.5-1.12-1.12s.5-1.12 1.12-1.12h15.58c.62 0 1.12.5 1.12 1.12s-.5 1.12-1.12 1.12"/></symbol><symbol id="s48" viewBox="0 0 48 48"><path d="M48 22 41.57 7.44c-.2-.45-.65-.75-1.14-.75h-3.47L31.57.03H11.43V6.7H7.58c-.5 0-.94.29-1.14.75L0 21.99v26.03h48V21.99Zm-2.74 0h-6.74V9.2h1.08zM35.29 8.62h-4.7V2.79zm-7.2-6.09v6.09c0 1.38 1.13 2.51 2.51 2.51h5.43V22h-22.1V2.53H28.1ZM8.39 9.19h3.03v12.8H2.74zm25 27.07H14.61a1.25 1.25 0 0 1 0-2.5h18.78a1.25 1.25 0 0 1 0 2.5"/></symbol><symbol id="s64" viewBox="0 0 64 64"><path d="M64.02 29.59 55.38 9.83c-.22-.5-.71-.82-1.26-.82H49.3L42.05.03H15.37v8.98H9.88c-.55 0-1.04.32-1.26.83L.02 29.6v34.42h63.97V29.6l.04-.02Zm-3 .01h-9.76V11.75h1.96zm-13.16-18h-6.97c-.18 0-.32-.15-.32-.32V2.77h.17zM37.82 2.77v8.5c0 1.69 1.38 3.07 3.07 3.07h7.62v15.25H18.12V2.77zm-27.04 8.98h4.59V29.6H3.01zm33.87 36.44H19.36c-.76 0-1.37-.61-1.37-1.37s.61-1.37 1.37-1.37h25.29c.76 0 1.37.61 1.37 1.37s-.61 1.37-1.37 1.37"/></symbol><use style="display: var(--s16, none)" href="#s16"/><use style="display: var(--s24, none)" href="#s24"/><use style="display: var(--s32, none)" href="#s32"/><use style="display: var(--s40, none)" href="#s40"/><use style="display: var(--s48, none)" href="#s48"/><use style="display: var(--s64, none)" href="#s64"/></symbol></defs><style>@media (max-width: 23.98px) {g{--s16:block;}}@media (min-width: 24px) and (max-width: 31.98px) {g{--s24:block;}}@media (min-width: 32px) and (max-width: 39.98px) {g{--s32:block;}}@media (min-width: 40px) and (max-width: 47.98px) {g{--s40:block;}}@media (min-width: 48px) and (max-width: 63.98px) {g{--s48:block;}}@media (min-width: 64px) {g{--s64:block;}}</style><g><use href="#i-archive-solid"/></g></svg>