<svg xmlns="http://www.w3.org/2000/svg"><defs><symbol id="i-arrowleft"><symbol id="s16" viewBox="0 0 16 16"><path d="M4.74 3.27c.29-.29.77-.29 1.06 0s.29.77 0 1.06L2.88 7.25h13.13v1.5H2.88l2.92 2.92c.29.29.29.77 0 1.06-.15.15-.34.22-.53.22s-.38-.07-.53-.22L.01 8z"/></symbol><symbol id="s24" viewBox="0 0 24 24"><path d="M6.92 5.08c.34-.34.9-.34 1.24 0s.34.9 0 1.24l-4.81 4.81h20.64v1.75H3.36l4.81 4.81a.881.881 0 0 1-.62 1.5c-.22 0-.45-.08-.62-.26L0 12z"/></symbol><symbol id="s32" viewBox="0 0 32 32"><path d="M9.11 6.89a.996.996 0 1 1 1.41 1.41l-6.69 6.69H32v2H3.83l6.69 6.69a.996.996 0 0 1-.71 1.7c-.26 0-.51-.1-.71-.29L0 16z"/></symbol><symbol id="s40" viewBox="0 0 40 40"><path d="M11.29 8.7c.44-.44 1.15-.44 1.59 0s.44 1.15 0 1.59L4.3 18.87h35.69v2.25H4.3l8.58 8.58a1.123 1.123 0 0 1-.8 1.92c-.29 0-.58-.11-.8-.33L0 20z"/></symbol><symbol id="s48" viewBox="0 0 48 48"><path d="M13.49 10.54c.49-.49 1.28-.49 1.77 0s.49 1.28 0 1.77L4.79 22.78h43.2v2.5H4.79l10.47 10.47c.49.49.49 1.28 0 1.77-.24.24-.56.37-.88.37s-.64-.12-.88-.37L0 24.02l13.48-13.48Z"/></symbol><symbol id="s64" viewBox="0 0 64 64"><path d="M17.79 14.23c.54-.54 1.41-.54 1.95 0s.54 1.41 0 1.95L5.29 30.63h58.72v2.75H5.28l14.45 14.45a1.376 1.376 0 0 1-1.94 1.95L.01 32z"/></symbol><use style="display: var(--s16, none)" href="#s16"/><use style="display: var(--s24, none)" href="#s24"/><use style="display: var(--s32, none)" href="#s32"/><use style="display: var(--s40, none)" href="#s40"/><use style="display: var(--s48, none)" href="#s48"/><use style="display: var(--s64, none)" href="#s64"/></symbol></defs><style>@media (max-width: 23.98px) {g{--s16:block;}}@media (min-width: 24px) and (max-width: 31.98px) {g{--s24:block;}}@media (min-width: 32px) and (max-width: 39.98px) {g{--s32:block;}}@media (min-width: 40px) and (max-width: 47.98px) {g{--s40:block;}}@media (min-width: 48px) and (max-width: 63.98px) {g{--s48:block;}}@media (min-width: 64px) {g{--s64:block;}}</style><g><use href="#i-arrowleft"/></g></svg>