<svg xmlns="http://www.w3.org/2000/svg"><defs><symbol id="i-arrowdownright-solid"><symbol id="s16" viewBox="0 0 16 16"><path d="M10.93 15.63c-.49.49-1.28.49-1.77 0s-.49-1.28 0-1.77l2.07-2.07H6.74c-1.52 0-2.75-1.23-2.75-2.75V0h2.5v9.05c0 .14.11.25.25.25h4.49L9.16 7.23a1.25 1.25 0 0 1 0-1.77c.24-.24.56-.37.88-.37s.64.12.88.37L16 10.54l-5.08 5.08Z"/></symbol><symbol id="s24" viewBox="0 0 24 24"><path d="M22.54 14.63 24 16.08l-1.46 1.45v.05h-.05l-5.98 5.97c-.59.58-1.54.59-2.12 0s-.58-1.54 0-2.12l3.85-3.85H9.72c-1.93 0-3.5-1.57-3.5-3.5V0h3v14.09c0 .28.22.5.5.5h8.52l-3.85-3.85a1.49 1.49 0 0 1 0-2.12c.29-.29.68-.44 1.06-.44s.77.15 1.06.44l5.98 5.97h.05v.05Z"/></symbol><symbol id="s32" viewBox="0 0 32 32"><path d="M22.15 31.5c-.68.68-1.79.68-2.47 0s-.68-1.79 0-2.47l5.62-5.62h-12c-2.62 0-4.75-2.13-4.75-4.75V0h3.5v18.65c0 .69.56 1.25 1.25 1.25h12l-5.62-5.62a1.75 1.75 0 0 1 0-2.47c.34-.34.79-.51 1.24-.51s.9.17 1.24.51L32 21.65l-9.84 9.84Z"/></symbol><symbol id="s40" viewBox="0 0 40 40"><path d="M27.85 39.37c-.78.78-2.05.78-2.83 0s-.78-2.05 0-2.83l7.37-7.36H16.93c-3.31 0-6-2.69-6-6L10.88-.03h4l.04 23.22c0 1.1.9 2 2 2h15.46l-7.37-7.36a2.004 2.004 0 0 1 1.41-3.42c.51 0 1.02.2 1.41.59l12.19 12.19-12.19 12.19Z"/></symbol><symbol id="s48" viewBox="0 0 48 48"><path d="M33.45 47.36c-.88.88-2.3.88-3.18 0s-.88-2.3 0-3.18l9.14-9.13H20.27c-3.9 0-7.07-3.17-7.07-7.06V.02h4.5v27.97a2.57 2.57 0 0 0 2.57 2.57h19.14l-9.14-9.13c-.88-.88-.88-2.3 0-3.18.44-.44 1.01-.66 1.59-.66s1.15.22 1.59.66l14.57 14.56-14.57 14.56Z"/></symbol><symbol id="s64" viewBox="0 0 64 64"><path d="M44.9 63.23c-.98.98-2.56.98-3.54 0s-.98-2.56 0-3.54L54.45 46.6H27.06c-4.93 0-8.94-4.01-8.94-8.95L18.1-.03h5l.02 37.69c0 2.17 1.77 3.94 3.94 3.94h27.39L41.36 28.5a2.499 2.499 0 0 1 1.77-4.27c.64 0 1.28.24 1.77.73l19.12 19.13L44.9 63.22Z"/></symbol><use style="display: var(--s16, none)" href="#s16"/><use style="display: var(--s24, none)" href="#s24"/><use style="display: var(--s32, none)" href="#s32"/><use style="display: var(--s40, none)" href="#s40"/><use style="display: var(--s48, none)" href="#s48"/><use style="display: var(--s64, none)" href="#s64"/></symbol></defs><style>@media (max-width: 23.98px) {g{--s16:block;}}@media (min-width: 24px) and (max-width: 31.98px) {g{--s24:block;}}@media (min-width: 32px) and (max-width: 39.98px) {g{--s32:block;}}@media (min-width: 40px) and (max-width: 47.98px) {g{--s40:block;}}@media (min-width: 48px) and (max-width: 63.98px) {g{--s48:block;}}@media (min-width: 64px) {g{--s64:block;}}</style><g><use href="#i-arrowdownright-solid"/></g></svg>