<svg xmlns="http://www.w3.org/2000/svg"><defs><symbol id="i-arrowright"><symbol id="s16" viewBox="0 0 16 16"><path d="m16 8-4.73 4.73c-.15.15-.34.22-.53.22s-.38-.07-.53-.22a.754.754 0 0 1 0-1.06l2.92-2.92H0v-1.5h13.13l-2.92-2.92c-.29-.29-.29-.77 0-1.06s.77-.29 1.06 0z"/></symbol><symbol id="s24" viewBox="0 0 24 24"><path d="m23.95 12-6.92 6.92c-.17.17-.4.26-.62.26s-.45-.08-.62-.26a.88.88 0 0 1 0-1.24l4.81-4.81H-.05v-1.75h20.64l-4.81-4.81a.88.88 0 0 1 0-1.24c.34-.34.9-.34 1.24 0l6.92 6.92Z"/></symbol><symbol id="s32" viewBox="0 0 32 32"><path d="m31.95 16-9.11 9.11c-.2.2-.45.29-.71.29s-.51-.1-.71-.29a.996.996 0 0 1 0-1.41l6.69-6.69H-.05v-2h28.17l-6.69-6.69a.996.996 0 1 1 1.41-1.41l9.11 9.11Z"/></symbol><symbol id="s40" viewBox="0 0 40 40"><path d="M39.95 20 28.66 31.3c-.22.22-.51.33-.8.33s-.58-.11-.8-.33c-.44-.44-.44-1.15 0-1.59l8.58-8.58H-.05v-2.25h35.69l-8.58-8.58c-.44-.44-.44-1.15 0-1.59s1.15-.44 1.59 0l11.29 11.3Z"/></symbol><symbol id="s48" viewBox="0 0 48 48"><path d="M47.94 24.02 34.46 37.5c-.24.24-.56.37-.88.37s-.64-.12-.88-.37a1.25 1.25 0 0 1 0-1.77l10.47-10.47H-.05v-2.5h43.2L32.68 12.29c-.49-.49-.49-1.28 0-1.77s1.28-.49 1.77 0L47.93 24Z"/></symbol><symbol id="s64" viewBox="0 0 64 64"><path d="M63.94 32 46.17 49.77c-.27.27-.62.4-.97.4s-.7-.13-.97-.4c-.54-.54-.54-1.41 0-1.95l14.45-14.45H-.05v-2.75h58.72L44.22 16.17c-.54-.54-.54-1.41 0-1.95s1.41-.54 1.95 0l17.77 17.77Z"/></symbol><use style="display: var(--s16, none)" href="#s16"/><use style="display: var(--s24, none)" href="#s24"/><use style="display: var(--s32, none)" href="#s32"/><use style="display: var(--s40, none)" href="#s40"/><use style="display: var(--s48, none)" href="#s48"/><use style="display: var(--s64, none)" href="#s64"/></symbol></defs><style>@media (max-width: 23.98px) {g{--s16:block;}}@media (min-width: 24px) and (max-width: 31.98px) {g{--s24:block;}}@media (min-width: 32px) and (max-width: 39.98px) {g{--s32:block;}}@media (min-width: 40px) and (max-width: 47.98px) {g{--s40:block;}}@media (min-width: 48px) and (max-width: 63.98px) {g{--s48:block;}}@media (min-width: 64px) {g{--s64:block;}}</style><g><use href="#i-arrowright"/></g></svg>