<svg xmlns="http://www.w3.org/2000/svg"><defs><symbol id="i-arrowdownright"><symbol id="s16" viewBox="0 0 16 16"><path d="M11.23 15.79c-.29.29-.77.29-1.06 0s-.29-.77 0-1.06l2.92-2.92H6.7c-1.24 0-2.25-1.01-2.25-2.25V0h1.5v9.55c0 .41.34.75.75.75h6.39l-2.92-2.92a.754.754 0 0 1 0-1.06c.15-.15.34-.22.53-.22s.38.07.53.22l4.73 4.73-4.73 4.73Z"/></symbol><symbol id="s24" viewBox="0 0 24 24"><path d="M16.87 23.77c-.34.34-.9.34-1.24 0a.88.88 0 0 1 0-1.24l4.92-4.92H9.65c-1.58 0-2.88-1.29-2.88-2.88V.02h1.75v14.7c0 .62.5 1.13 1.12 1.13h10.9l-4.92-4.92a.881.881 0 0 1 .62-1.5c.23 0 .45.09.62.26l7.04 7.04-7.04 7.04Z"/></symbol><symbol id="s32" viewBox="0 0 32 32"><path d="M22.71 31.71a.996.996 0 1 1-1.41-1.41l6.9-6.9H13.33c-2.21 0-4-1.79-4-4V0h2v19.4c0 1.1.9 2 2 2H28.2l-6.9-6.9a.996.996 0 0 1 .71-1.7c.26 0 .51.1.71.29l9.31 9.31-9.31 9.31Z"/></symbol><symbol id="s40" viewBox="0 0 40 40"><path d="M28.41 39.67c-.44.44-1.15.44-1.59 0s-.44-1.15 0-1.59l8.86-8.87h-18.8c-2.83 0-5.12-2.3-5.12-5.13V0h2.25v24.08a2.88 2.88 0 0 0 2.88 2.88h18.8l-8.86-8.87a1.123 1.123 0 0 1 .8-1.92c.29 0 .58.11.8.33L40 28.09 28.43 39.68Z"/></symbol><symbol id="s48" viewBox="0 0 48 48"><path d="M34.13 47.6c-.49.49-1.28.49-1.77 0s-.49-1.28 0-1.77l10.85-10.84H20.26c-3.34 0-6.07-2.72-6.07-6.06V-.03h2.5v28.96c0 1.97 1.6 3.57 3.57 3.57h22.95L32.36 21.66a1.25 1.25 0 0 1 0-1.77c.24-.24.56-.37.88-.37s.64.12.88.37l13.86 13.86-13.86 13.86Z"/></symbol><symbol id="s64" viewBox="0 0 64 64"><path d="M45.67 63.6c-.54.54-1.41.54-1.95 0s-.54-1.41 0-1.95l15.01-15.03h-31.7c-4.31 0-7.82-3.51-7.82-7.83V0h2.75v38.79c0 2.8 2.27 5.07 5.07 5.07h31.7L43.72 28.83a1.376 1.376 0 0 1 1.94-1.95l18.33 18.36-18.33 18.35Z"/></symbol><use style="display: var(--s16, none)" href="#s16"/><use style="display: var(--s24, none)" href="#s24"/><use style="display: var(--s32, none)" href="#s32"/><use style="display: var(--s40, none)" href="#s40"/><use style="display: var(--s48, none)" href="#s48"/><use style="display: var(--s64, none)" href="#s64"/></symbol></defs><style>@media (max-width: 23.98px) {g{--s16:block;}}@media (min-width: 24px) and (max-width: 31.98px) {g{--s24:block;}}@media (min-width: 32px) and (max-width: 39.98px) {g{--s32:block;}}@media (min-width: 40px) and (max-width: 47.98px) {g{--s40:block;}}@media (min-width: 48px) and (max-width: 63.98px) {g{--s48:block;}}@media (min-width: 64px) {g{--s64:block;}}</style><g><use href="#i-arrowdownright"/></g></svg>