<svg xmlns="http://www.w3.org/2000/svg"><defs><symbol id="i-arrowupright-solid"><symbol id="s16" viewBox="0 0 16 16"><path d="m16.01 5.45-5.08 5.08c-.24.24-.56.37-.88.37s-.64-.12-.88-.37a1.25 1.25 0 0 1 0-1.77l2.07-2.07H6.75c-.14 0-.25.11-.25.25v9.05H4V6.95C4 5.43 5.23 4.2 6.75 4.2h4.49L9.17 2.13c-.49-.49-.49-1.28 0-1.77s1.28-.49 1.77 0l5.08 5.08Z"/></symbol><symbol id="s24" viewBox="0 0 24 24"><path d="M22.54 9.41h-.05l-5.98 5.97c-.29.29-.68.44-1.06.44s-.77-.15-1.06-.44c-.58-.59-.58-1.54 0-2.12l3.85-3.85H9.72c-.28 0-.5.22-.5.5V24h-3V9.91c0-1.93 1.57-3.5 3.5-3.5h8.52l-3.85-3.85a1.49 1.49 0 0 1 0-2.12 1.49 1.49 0 0 1 2.12 0l5.98 5.97h.05v.05L24 7.91l-1.46 1.45z"/></symbol><symbol id="s32" viewBox="0 0 32 32"><path d="m31.99 10.36-9.84 9.84c-.34.34-.79.51-1.24.51s-.9-.17-1.24-.51a1.75 1.75 0 0 1 0-2.47l5.62-5.62h-12c-.69 0-1.25.56-1.25 1.25v18.65h-3.5V13.36c0-2.62 2.13-4.75 4.75-4.75h12l-5.62-5.62c-.68-.68-.68-1.79 0-2.47s1.79-.68 2.47 0l9.84 9.84Z"/></symbol><symbol id="s40" viewBox="0 0 40 40"><path d="M40.04 12.74 27.85 24.93c-.39.39-.9.59-1.41.59s-1.02-.2-1.41-.59c-.78-.78-.78-2.05 0-2.83l7.37-7.36H16.94c-1.1 0-2 .9-2 2l-.04 23.22h-4l.04-23.23c0-3.3 2.69-6 6-6H32.4l-7.37-7.36c-.78-.78-.78-2.05 0-2.83s2.05-.78 2.83 0l12.19 12.19Z"/></symbol><symbol id="s48" viewBox="0 0 48 48"><path d="M48.02 15.24 33.45 29.8c-.44.44-1.01.66-1.59.66s-1.15-.22-1.59-.66c-.88-.88-.88-2.3 0-3.18l9.14-9.13H20.27a2.57 2.57 0 0 0-2.57 2.57v27.97h-4.5V20.06c0-3.89 3.17-7.06 7.07-7.06h19.14l-9.14-9.14c-.88-.88-.88-2.3 0-3.18s2.3-.88 3.18 0z"/></symbol><symbol id="s64" viewBox="0 0 64 64"><path d="M64.02 19.83 44.9 38.96c-.49.49-1.13.73-1.77.73s-1.28-.24-1.77-.73c-.98-.98-.98-2.56 0-3.54l13.09-13.1H27.06c-2.17 0-3.94 1.77-3.94 3.94l-.02 37.69h-5l.02-37.69c0-4.93 4.01-8.95 8.94-8.95h27.39L41.36 4.22c-.98-.98-.98-2.56 0-3.54s2.56-.98 3.54 0l19.12 19.13Z"/></symbol><use style="display: var(--s16, none)" href="#s16"/><use style="display: var(--s24, none)" href="#s24"/><use style="display: var(--s32, none)" href="#s32"/><use style="display: var(--s40, none)" href="#s40"/><use style="display: var(--s48, none)" href="#s48"/><use style="display: var(--s64, none)" href="#s64"/></symbol></defs><style>@media (max-width: 23.98px) {g{--s16:block;}}@media (min-width: 24px) and (max-width: 31.98px) {g{--s24:block;}}@media (min-width: 32px) and (max-width: 39.98px) {g{--s32:block;}}@media (min-width: 40px) and (max-width: 47.98px) {g{--s40:block;}}@media (min-width: 48px) and (max-width: 63.98px) {g{--s48:block;}}@media (min-width: 64px) {g{--s64:block;}}</style><g><use href="#i-arrowupright-solid"/></g></svg>