<svg xmlns="http://www.w3.org/2000/svg"><defs><symbol id="i-arrowleftdown-solid"><symbol id="s16" viewBox="0 0 16 16"><path d="m15.65 10.9-5.08 5.08-5.08-5.08c-.49-.49-.49-1.28 0-1.77s1.28-.49 1.77 0l2.05 2.05-.03-5.92c0-.14-.11-.26-.25-.26H.01V2.5h9c1.52 0 2.75 1.23 2.75 2.75l.03 5.96 2.08-2.08c.49-.49 1.28-.49 1.77 0s.49 1.28 0 1.77Z"/></symbol><symbol id="s24" viewBox="0 0 24 24"><path d="M23.57 16.64 16.21 24l-7.36-7.36c-.59-.59-.59-1.54 0-2.12s1.54-.59 2.12 0l3.72 3.72-.06-10.36c0-.42-.34-.76-.75-.76H0v-3h13.87c2.07 0 3.75 1.68 3.75 3.75l.06 10.41 3.76-3.76c.59-.59 1.54-.59 2.12 0s.59 1.54 0 2.12Z"/></symbol><symbol id="s32" viewBox="0 0 32 32"><path d="m31.49 22.33-9.64 9.64-9.64-9.64c-.68-.68-.68-1.79 0-2.48s1.79-.68 2.48 0l5.39 5.39L20 10.5c0-.7-.56-1.26-1.25-1.26H0v-3.5h18.74c2.62 0 4.75 2.13 4.75 4.75l.08 14.8 5.44-5.44c.68-.68 1.79-.68 2.48 0s.68 1.79 0 2.48"/></symbol><symbol id="s40" viewBox="0 0 40 40"><path d="M39.41 25.18c-.78-.78-2.05-.78-2.83 0l-7.14 7.14-.2-19.16c0-3.17-2.58-5.75-5.74-5.75L.02 7.25l-.02 4 23.5.15c.96 0 1.75.79 1.75 1.77l.2 19.03-7.03-7.03c-.78-.78-2.05-.78-2.83 0s-.78 2.05 0 2.83L27.5 39.91 39.41 28c.78-.78.78-2.05 0-2.83Z"/></symbol><symbol id="s48" viewBox="0 0 48 48"><path d="M47.35 30.61c-.88-.88-2.3-.88-3.18 0l-8.81 8.81-.25-23.46c0-3.72-3.03-6.75-6.73-6.75L.04 9.03 0 13.52l28.35.18c1.24 0 2.25 1.01 2.25 2.27l.24 23.33-8.7-8.7c-.88-.88-2.3-.88-3.18 0s-.88 2.3 0 3.18l14.19 14.19 14.19-14.19c.88-.88.88-2.3 0-3.18Z"/></symbol><symbol id="s64" viewBox="0 0 64 64"><path d="M63.25 41.9c-.98-.98-2.56-.98-3.53 0L47.13 54.49l-.34-33.25c0-4.69-3.81-8.5-8.48-8.5L.01 12.5l-.03 5 38.3.24c1.93 0 3.5 1.57 3.5 3.53l.34 33.1L29.65 41.9c-.98-.98-2.56-.98-3.53 0s-.98 2.56 0 3.53L44.69 64l18.57-18.57c.98-.98.98-2.56 0-3.53Z"/></symbol><use style="display: var(--s16, none)" href="#s16"/><use style="display: var(--s24, none)" href="#s24"/><use style="display: var(--s32, none)" href="#s32"/><use style="display: var(--s40, none)" href="#s40"/><use style="display: var(--s48, none)" href="#s48"/><use style="display: var(--s64, none)" href="#s64"/></symbol></defs><style>@media (max-width: 23.98px) {g{--s16:block;}}@media (min-width: 24px) and (max-width: 31.98px) {g{--s24:block;}}@media (min-width: 32px) and (max-width: 39.98px) {g{--s32:block;}}@media (min-width: 40px) and (max-width: 47.98px) {g{--s40:block;}}@media (min-width: 48px) and (max-width: 63.98px) {g{--s48:block;}}@media (min-width: 64px) {g{--s64:block;}}</style><g><use href="#i-arrowleftdown-solid"/></g></svg>