<svg xmlns="http://www.w3.org/2000/svg"><defs><symbol id="i-attachment"><symbol id="s16" viewBox="0 0 16 16"><path d="M10.5 16.01H1.97V4.94c0-.73.35-1.41.95-1.83L6.7.42a2.27 2.27 0 0 1 2.61 0l3.78 2.68c.59.42.95 1.11.95 1.83v9.31c0 .41-.34.75-.75.75s-.75-.34-.75-.75v-9.3a.75.75 0 0 0-.32-.61L8.44 1.65a.735.735 0 0 0-.87 0L3.79 4.33a.75.75 0 0 0-.32.61v9.56H9V6.06l-1-.72-1.01.72v6.68c0 .41-.34.75-.75.75s-.75-.34-.75-.75V5.8c0-.32.16-.63.42-.82l1.5-1.07a.99.99 0 0 1 1.16 0l1.51 1.07c.26.19.42.49.42.81v10.2Zm-3.71-9.8"/></symbol><symbol id="s24" viewBox="0 0 24 24"><path d="M15.51 24H3.21V7.15c0-1.01.49-1.96 1.31-2.55L10.19.58c1.08-.77 2.54-.77 3.62 0l5.66 4.03c.82.58 1.31 1.54 1.31 2.55v14.47c0 .48-.39.88-.88.88s-.88-.39-.88-.88V7.15c0-.44-.22-.86-.58-1.12L12.78 2c-.48-.34-1.12-.34-1.6 0L5.52 6.03c-.36.26-.58.68-.58 1.12v15.1h8.79V8.7l-1.76-1.25-1.76 1.25v10.65c0 .48-.39.88-.88.88s-.88-.39-.88-.88V8.44c0-.4.2-.78.52-1.02l2.26-1.61c.43-.31 1.02-.31 1.45 0l2.26 1.61c.33.23.52.62.52 1.02v15.55ZM12.29 7.25"/></symbol><symbol id="s32" viewBox="0 0 32 32"><path d="M20.51 32H4.44V9.37c0-1.29.63-2.51 1.68-3.26L13.68.74c1.39-.99 3.25-.99 4.64 0l7.55 5.37c1.05.75 1.68 1.97 1.68 3.26V29c0 .55-.45 1-1 1s-1-.45-1-1V9.37c0-.65-.31-1.26-.84-1.63l-7.55-5.37c-.69-.49-1.63-.49-2.32 0L7.28 7.74c-.53.37-.84.98-.84 1.63v20.62H18.5V11.36l-2.51-1.79-2.51 1.79v14.61c0 .55-.45 1-1 1s-1-.45-1-1V11.1c0-.48.24-.94.63-1.22l3.01-2.14c.52-.37 1.22-.37 1.74 0l3.01 2.15c.39.28.63.74.63 1.22v20.9Z"/></symbol><symbol id="s40" viewBox="0 0 40 40"><path d="M25.39 40H5.81V11.46c0-1.54.75-2.98 2-3.87L17.25.87a4.76 4.76 0 0 1 5.51 0l9.44 6.71c1.25.89 2 2.34 2 3.87v25.04c0 .55-.45 1-1 1s-1-.45-1-1V11.46c0-.89-.43-1.73-1.16-2.24L21.6 2.51a2.75 2.75 0 0 0-3.19 0L8.97 9.22c-.72.51-1.16 1.35-1.16 2.24V38h15.58V13.81l-3.38-2.41-3.39 2.41v18.9c0 .55-.45 1-1 1s-1-.45-1-1V13.62c0-.53.26-1.02.68-1.32l3.76-2.68c.56-.4 1.32-.4 1.89 0l3.76 2.68c.43.3.68.8.68 1.32z"/></symbol><symbol id="s48" viewBox="0 0 48 48"><path d="M30.48 48.02H6.94V13.8c0-1.86.9-3.61 2.42-4.68l11.3-8.04a5.76 5.76 0 0 1 6.65 0l11.3 8.04a5.74 5.74 0 0 1 2.41 4.68v29.98a1.25 1.25 0 0 1-2.5 0V13.8c0-1.05-.51-2.04-1.36-2.64L25.87 3.11c-1.12-.8-2.64-.8-3.76 0L10.8 11.15c-.86.61-1.37 1.6-1.37 2.65v31.73h18.55V16.65l-4-2.85-4.01 2.85v22.61a1.25 1.25 0 0 1-2.5 0V16.4c0-.64.31-1.25.84-1.63l4.51-3.21c.7-.5 1.63-.49 2.32 0l4.5 3.21c.52.37.84.98.84 1.63v31.64Z"/></symbol><symbol id="s64" viewBox="0 0 64 64"><path d="M40.37 64H9.5V18.11c0-2.38 1.16-4.63 3.1-6.01L27.71 1.36a7.38 7.38 0 0 1 8.55 0l15.1 10.74a7.4 7.4 0 0 1 3.1 6.01v40.51c0 .76-.62 1.38-1.38 1.38s-1.38-.62-1.38-1.38V18.11c0-1.49-.73-2.9-1.94-3.77L34.66 3.6a4.63 4.63 0 0 0-5.36 0L14.2 14.34a4.64 4.64 0 0 0-1.95 3.77v43.14h25.37V21.76l-5.64-4.02-5.65 4.02v30.35c0 .76-.62 1.38-1.38 1.38s-1.38-.62-1.38-1.38V21.57c0-.77.37-1.49 1-1.93l6.02-4.29c.82-.59 1.93-.59 2.76 0l6.02 4.29c.63.45 1 1.17 1 1.93z"/></symbol><use style="display: var(--s16, none)" href="#s16"/><use style="display: var(--s24, none)" href="#s24"/><use style="display: var(--s32, none)" href="#s32"/><use style="display: var(--s40, none)" href="#s40"/><use style="display: var(--s48, none)" href="#s48"/><use style="display: var(--s64, none)" href="#s64"/></symbol></defs><style>@media (max-width: 23.98px) {g{--s16:block;}}@media (min-width: 24px) and (max-width: 31.98px) {g{--s24:block;}}@media (min-width: 32px) and (max-width: 39.98px) {g{--s32:block;}}@media (min-width: 40px) and (max-width: 47.98px) {g{--s40:block;}}@media (min-width: 48px) and (max-width: 63.98px) {g{--s48:block;}}@media (min-width: 64px) {g{--s64:block;}}</style><g><use href="#i-attachment"/></g></svg>