<svg xmlns="http://www.w3.org/2000/svg"><defs><symbol id="i-attachment-solid"><symbol id="s16" viewBox="0 0 16 16"><path d="M11 16.02H1.52V5.26c0-.92.46-1.77 1.22-2.28L6.48.48c.93-.62 2.12-.62 3.05 0l3.75 2.5c.76.51 1.22 1.36 1.22 2.28v8.57a1.25 1.25 0 0 1-2.5 0V5.26a.26.26 0 0 0-.11-.21l-3.75-2.5a.24.24 0 0 0-.28 0l-3.74 2.5c-.07.05-.11.12-.11.21v8.26H8.5V6.96L8 6.63l-.49.33v4.32a1.25 1.25 0 0 1-2.5 0V6.43c0-.5.25-.97.67-1.25l1.48-1c.5-.34 1.16-.34 1.66 0l1.51 1c.42.28.67.74.67 1.25zM8.56 6.25"/></symbol><symbol id="s24" viewBox="0 0 24 24"><path d="M15.98 24.02H3.04V7.43c0-1.17.57-2.27 1.52-2.95L9.9.69c1.25-.89 2.94-.89 4.2 0l5.33 3.79c.95.68 1.52 1.78 1.52 2.95v13.05c0 .83-.67 1.5-1.5 1.5s-1.5-.67-1.5-1.5V7.43c0-.2-.1-.39-.26-.51l-5.34-3.79a.63.63 0 0 0-.72 0L6.29 6.92a.63.63 0 0 0-.26.51v13.58h6.93V9.25l-.98-.7-.98.7v8.23c0 .83-.67 1.5-1.5 1.5S8 18.31 8 17.48V8.66c0-.6.29-1.17.78-1.51l2.12-1.51c.64-.46 1.51-.46 2.15 0l2.12 1.51c.49.35.78.91.78 1.51v15.35ZM10.54 9.6"/></symbol><symbol id="s32" viewBox="0 0 32 32"><path d="M21.08 32H4.25V9.69c0-1.48.72-2.89 1.93-3.75L13.34.85a4.61 4.61 0 0 1 5.33 0l7.16 5.09c1.21.86 1.93 2.26 1.93 3.74v18.56c0 .97-.78 1.75-1.75 1.75s-1.75-.78-1.75-1.75V9.69c0-.35-.17-.69-.46-.89l-7.16-5.09c-.38-.27-.89-.27-1.27 0L8.21 8.8c-.29.2-.46.54-.46.89V28.5h9.83V11.98L16 10.86l-1.58 1.12v12.77c0 .97-.78 1.75-1.75 1.75s-1.75-.78-1.75-1.75V11.33c0-.72.35-1.4.94-1.81l2.85-2.03c.77-.55 1.81-.55 2.58 0l2.85 2.04c.58.42.93 1.09.93 1.81v20.68Zm-7.19-19.64"/></symbol><symbol id="s40" viewBox="0 0 40 40"><path d="M26.16 39.94H5.5V11.86c0-1.79.87-3.49 2.34-4.53L16.78.97a5.56 5.56 0 0 1 6.44 0l8.94 6.36a5.57 5.57 0 0 1 2.34 4.53v23.72a2 2 0 1 1-4 0V11.86c0-.5-.24-.98-.65-1.27l-8.94-6.36c-.54-.39-1.26-.38-1.8 0l-8.95 6.36c-.41.29-.65.76-.65 1.27v24.08h12.65V14.63l-2.15-1.54-2.16 1.54v17.36a2 2 0 1 1-4 0V13.9c0-.84.41-1.63 1.1-2.12l3.56-2.54a2.6 2.6 0 0 1 3.01 0l3.56 2.54c.68.48 1.09 1.27 1.09 2.11v26.04Zm-8.9-24.9"/></symbol><symbol id="s48" viewBox="0 0 48 48"><path d="M31.25 48.01H6.63V14.24c0-2.11 1.03-4.11 2.75-5.34l10.81-7.68a6.57 6.57 0 0 1 7.59 0l10.8 7.68a6.57 6.57 0 0 1 2.75 5.33v28.52c0 1.24-1.01 2.25-2.25 2.25s-2.25-1.01-2.25-2.25V14.24c0-.66-.32-1.28-.86-1.66L25.17 4.9c-.71-.5-1.66-.51-2.37 0l-10.81 7.68c-.54.38-.86 1.01-.86 1.67v29.27h15.62V17.51l-2.77-1.97-2.77 1.98v20.74c0 1.24-1.01 2.25-2.25 2.25s-2.25-1.01-2.25-2.25V16.73c0-.96.47-1.86 1.25-2.42l4.3-3.07c1.03-.74 2.42-.74 3.45 0l4.3 3.07c.78.56 1.24 1.46 1.24 2.42v31.3Zm-6.37-33.12"/></symbol><symbol id="s64" viewBox="0 0 64 64"><path d="M41.23 64H9.15V18.62c0-2.68 1.3-5.2 3.48-6.75L27.18 1.53a8.29 8.29 0 0 1 9.6 0l14.54 10.34a8.29 8.29 0 0 1 3.48 6.75v39.02a2.5 2.5 0 0 1-5 0V18.62c0-1.06-.52-2.06-1.38-2.68L33.88 5.6a3.275 3.275 0 0 0-3.8 0L15.53 15.94c-.86.61-1.38 1.61-1.38 2.67v40.38h22.09V22.74l-4.26-3.04-4.26 3.04v28.63a2.5 2.5 0 0 1-5 0V21.95c0-1.12.54-2.17 1.45-2.82l5.8-4.13c1.2-.86 2.81-.86 4.02 0l5.8 4.13c.91.65 1.45 1.7 1.45 2.82V64Zm-8.36-44.93"/></symbol><use style="display: var(--s16, none)" href="#s16"/><use style="display: var(--s24, none)" href="#s24"/><use style="display: var(--s32, none)" href="#s32"/><use style="display: var(--s40, none)" href="#s40"/><use style="display: var(--s48, none)" href="#s48"/><use style="display: var(--s64, none)" href="#s64"/></symbol></defs><style>@media (max-width: 23.98px) {g{--s16:block;}}@media (min-width: 24px) and (max-width: 31.98px) {g{--s24:block;}}@media (min-width: 32px) and (max-width: 39.98px) {g{--s32:block;}}@media (min-width: 40px) and (max-width: 47.98px) {g{--s40:block;}}@media (min-width: 48px) and (max-width: 63.98px) {g{--s48:block;}}@media (min-width: 64px) {g{--s64:block;}}</style><g><use href="#i-attachment-solid"/></g></svg>