<svg xmlns="http://www.w3.org/2000/svg"><defs><symbol id="i-audiotrack-solid"><symbol id="s16" viewBox="0 0 16 16"><path d="M5.92 2.48v11.04a1.25 1.25 0 0 1-2.5 0V2.48a1.25 1.25 0 0 1 2.5 0m5.5-2.25c-.69 0-1.25.56-1.25 1.25v13.04a1.25 1.25 0 0 0 2.5 0V1.48c0-.69-.56-1.25-1.25-1.25M1.29 4.24C.6 4.24.04 4.8.04 5.49v5.02a1.25 1.25 0 0 0 2.5 0V5.49c0-.69-.56-1.25-1.25-1.25m6.75-1c-.69 0-1.25.56-1.25 1.25v7.02a1.25 1.25 0 0 0 2.5 0V4.49c0-.69-.56-1.25-1.25-1.25m6.75 2c-.69 0-1.25.56-1.25 1.25v3.02a1.25 1.25 0 0 0 2.5 0V6.49c0-.69-.56-1.25-1.25-1.25"/></symbol><symbol id="s24" viewBox="0 0 24 24"><path d="M8.29 3.74v16.55c0 .83-.67 1.5-1.5 1.5s-1.5-.67-1.5-1.5V3.74c0-.83.67-1.5 1.5-1.5s1.5.67 1.5 1.5m9-3c-.83 0-1.5.67-1.5 1.5v19.55c0 .83.67 1.5 1.5 1.5s1.5-.67 1.5-1.5V2.24c0-.83-.67-1.5-1.5-1.5M1.54 6.75c-.83 0-1.5.68-1.5 1.5v7.53c0 .83.67 1.5 1.5 1.5s1.5-.67 1.5-1.5V8.25c0-.83-.67-1.5-1.5-1.5m10.5-1.5c-.83 0-1.5.67-1.5 1.5v10.53c0 .83.67 1.5 1.5 1.5s1.5-.67 1.5-1.5V6.75c0-.83-.67-1.5-1.5-1.5m10.5 3c-.83 0-1.5.67-1.5 1.5v4.53c0 .83.67 1.5 1.5 1.5s1.5-.67 1.5-1.5V9.75c0-.83-.67-1.5-1.5-1.5"/></symbol><symbol id="s32" viewBox="0 0 32 32"><path d="M9.28 4.96v22.07c0 .97-.78 1.75-1.75 1.75S5.78 28 5.78 27.03V4.96c0-.97.78-1.75 1.75-1.75s1.75.78 1.75 1.75M18.93.21c-.97 0-1.75.78-1.75 1.75v28.07c0 .97.78 1.75 1.75 1.75s1.75-.78 1.75-1.75V1.96c0-.97-.78-1.75-1.75-1.75m-17.1 11c-.97 0-1.75.78-1.75 1.75v5.57c0 .97.78 1.75 1.75 1.75s1.75-.78 1.75-1.75v-5.57c0-.97-.78-1.75-1.75-1.75m28.5 1.02c-.97 0-1.75.78-1.75 1.75v4.04c0 .97.78 1.75 1.75 1.75s1.75-.78 1.75-1.75v-4.04c0-.97-.78-1.75-1.75-1.75m-17.1-5c-.97 0-1.75.78-1.75 1.75v14.04c0 .97.78 1.75 1.75 1.75s1.75-.78 1.75-1.75V8.98c0-.97-.78-1.75-1.75-1.75m11.4 0c-.97 0-1.75.78-1.75 1.75v14.04c0 .97.78 1.75 1.75 1.75s1.75-.78 1.75-1.75V8.98c0-.97-.78-1.75-1.75-1.75"/></symbol><symbol id="s40" viewBox="0 0 40 40"><path d="M11.22 6.15v27.59c0 1.1-.9 2-2 2s-2-.9-2-2V6.15c0-1.1.9-2 2-2s2 .9 2 2M23.62.4a2 2 0 0 0-2 2v35.09c0 1.1.9 2 2 2s2-.9 2-2V2.4c0-1.1-.9-2-2-2M2.02 14.15a2 2 0 0 0-2 2v6.97c0 1.1.9 2 2 2s2-.9 2-2v-6.97c0-1.1-.9-2-2-2m36 2.02a2 2 0 0 0-2 2v3.54c0 1.1.9 2 2 2s2-.9 2-2v-3.54c0-1.1-.9-2-2-2m-21.6-7a2 2 0 0 0-2 2v17.54c0 1.1.9 2 2 2s2-.9 2-2V11.17c0-1.1-.9-2-2-2m14.4 0a2 2 0 0 0-2 2v17.54c0 1.1.9 2 2 2s2-.9 2-2V11.17c0-1.1-.9-2-2-2"/></symbol><symbol id="s48" viewBox="0 0 48 48"><path d="M13.23 7.45v33.11c0 1.24-1.01 2.25-2.25 2.25s-2.25-1.01-2.25-2.25V7.45c0-1.24 1.01-2.25 2.25-2.25s2.25 1.01 2.25 2.25M28.38.7c-1.24 0-2.25 1.01-2.25 2.25v42.11c0 1.24 1.01 2.25 2.25 2.25s2.25-1.01 2.25-2.25V2.95c0-1.24-1.01-2.25-2.25-2.25M2.28 17.2c-1.24 0-2.25 1-2.25 2.25v8.36c0 1.24 1.01 2.25 2.25 2.25s2.25-1.01 2.25-2.25v-8.36c0-1.24-1.01-2.25-2.25-2.25m43.5 2.02c-1.24 0-2.25 1.01-2.25 2.25v5.05c0 1.24 1.01 2.25 2.25 2.25s2.25-1.01 2.25-2.25v-5.05c0-1.24-1.01-2.25-2.25-2.25m-26.1-8c-1.24 0-2.25 1.01-2.25 2.25v21.05c0 1.24 1.01 2.25 2.25 2.25s2.25-1.01 2.25-2.25V13.47c0-1.24-1.01-2.25-2.25-2.25m17.4 0c-1.24 0-2.25 1.01-2.25 2.25v21.05c0 1.24 1.01 2.25 2.25 2.25s2.25-1.01 2.25-2.25V13.47c0-1.24-1.01-2.25-2.25-2.25"/></symbol><symbol id="s64" viewBox="0 0 64 64"><path d="M16.84 9.99v44.14a2.5 2.5 0 0 1-5 0V9.99a2.5 2.5 0 0 1 5 0m21.1-8.5a2.5 2.5 0 0 0-2.5 2.5v56.14a2.5 2.5 0 0 0 5 0V3.99a2.5 2.5 0 0 0-2.5-2.5m-35.4 22a2.5 2.5 0 0 0-2.5 2.5v11.14a2.5 2.5 0 0 0 5 0V25.99a2.5 2.5 0 0 0-2.5-2.5m59 1.03a2.5 2.5 0 0 0-2.5 2.5v10.07a2.5 2.5 0 0 0 5 0V27.02a2.5 2.5 0 0 0-2.5-2.5m-35.4-9a2.5 2.5 0 0 0-2.5 2.5v28.07a2.5 2.5 0 0 0 5 0V18.02a2.5 2.5 0 0 0-2.5-2.5m23.6 0a2.5 2.5 0 0 0-2.5 2.5v28.07a2.5 2.5 0 0 0 5 0V18.02a2.5 2.5 0 0 0-2.5-2.5"/></symbol><use style="display: var(--s16, none)" href="#s16"/><use style="display: var(--s24, none)" href="#s24"/><use style="display: var(--s32, none)" href="#s32"/><use style="display: var(--s40, none)" href="#s40"/><use style="display: var(--s48, none)" href="#s48"/><use style="display: var(--s64, none)" href="#s64"/></symbol></defs><style>@media (max-width: 23.98px) {g{--s16:block;}}@media (min-width: 24px) and (max-width: 31.98px) {g{--s24:block;}}@media (min-width: 32px) and (max-width: 39.98px) {g{--s32:block;}}@media (min-width: 40px) and (max-width: 47.98px) {g{--s40:block;}}@media (min-width: 48px) and (max-width: 63.98px) {g{--s48:block;}}@media (min-width: 64px) {g{--s64:block;}}</style><g><use href="#i-audiotrack-solid"/></g></svg>