<svg xmlns="http://www.w3.org/2000/svg"><defs><symbol id="i-audiofile-solid"><symbol id="s16" viewBox="0 0 16 16"><path d="M8.74 7.95h-2.5v-.5h2.5zm5.58-4.36V16H1.79V0h9.63zm-4.07 2.35H4.74l-.02 4.14c-.69.07-1.23.65-1.23 1.35 0 .75.61 1.37 1.37 1.37s1.37-.61 1.37-1.37V9.44h2.52v.64c-.69.07-1.23.65-1.23 1.35 0 .75.61 1.37 1.37 1.37s1.37-.61 1.37-1.37v-5.5Zm2.82-1.77L10.15.75v2.92c0 .28.22.5.5.5h2.41Z"/></symbol><symbol id="s24" viewBox="0 0 24 24"><path d="M17.03 0H2.66v24h18.67V5.33zm-1.98 17.48c0 .99-.81 1.8-1.8 1.8s-1.8-.81-1.8-1.8.81-1.8 1.8-1.8h.04v-1.91H9.01v3.7c0 .99-.81 1.8-1.8 1.8s-1.8-.81-1.8-1.8.81-1.8 1.8-1.8h.04l.03-6.16h7.76v7.96Zm1.17-11.36c-.55 0-1-.45-1-1V.88l4.74 5.24zm-2.92 5.91H9.05v-.75h4.26v.75Z"/></symbol><symbol id="s32" viewBox="0 0 32 32"><path d="M17.78 16.54h-6v-1.33h6.01v1.33Zm10.64-9.47v24.92H3.6V0h19.11l5.71 7.08Zm-8.63 6.13H9.78l-.04 8.23c-.08 0-.15-.02-.23-.02-1.23 0-2.23 1-2.23 2.23s1 2.23 2.23 2.23 2.23-1 2.23-2.23v-5.1h6.04v2.89c-.08 0-.15-.02-.23-.02-1.23 0-2.23 1-2.23 2.23s1 2.23 2.23 2.23 2.23-1 2.23-2.23V13.2Zm6.28-5.14L20.35.99v5.72c0 .75.6 1.35 1.35 1.35z"/></symbol><symbol id="s40" viewBox="0 0 40 40"><path d="M22.17 20.53h-7.74v-1.92h7.76v1.92ZM35.49 8.75v31.18H4.53v-40h23.85zm-11.05 7.61H12.18l-.05 10.3c-.13-.02-.27-.04-.41-.04-1.47 0-2.66 1.19-2.66 2.66s1.19 2.66 2.66 2.66 2.66-1.19 2.66-2.66v-6.5h7.79v3.88c-.13-.02-.27-.04-.41-.04-1.47 0-2.66 1.19-2.66 2.66s1.19 2.66 2.66 2.66 2.66-1.19 2.66-2.66V16.36Zm8.43-6.4-7.4-8.9v7.2c0 .94.76 1.7 1.7 1.7z"/></symbol><symbol id="s48" viewBox="0 0 48 48"><path d="M26.54 24.6h-9.49v-2.5h9.51v2.5Zm16.07-14.01v37.44H5.51v-48H34.1l8.52 10.56ZM29.06 19.6H14.55l-.06 12.37a3 3 0 0 0-.59-.06c-1.7 0-3.09 1.39-3.09 3.09s1.39 3.09 3.09 3.09 3.09-1.39 3.09-3.09v-7.9h9.55v4.87a3 3 0 0 0-.59-.06c-1.7 0-3.09 1.39-3.09 3.09s1.39 3.09 3.09 3.09 3.09-1.39 3.09-3.09V19.6Zm10.8-7.59L30.64 1.28v8.68c0 1.13.92 2.05 2.05 2.05h7.18Z"/></symbol><symbol id="s64" viewBox="0 0 64 64"><path d="M36.59 32.59H22.87v-3.91h13.74zm20.16-18.53v49.99H7.41V.04h38.03l11.3 14.01ZM39.36 25.93H20.13l-.08 16.56c-.34-.1-.7-.17-1.08-.17-2.11 0-3.82 1.72-3.82 3.82s1.72 3.82 3.82 3.82 3.65-1.57 3.79-3.54c.02-.09.03-.18.03-.28v-10.8h13.79v7.15c-.34-.1-.7-.17-1.08-.17-2.11 0-3.82 1.72-3.82 3.82s1.72 3.82 3.82 3.82 3.65-1.57 3.79-3.54c.02-.09.03-.18.03-.28l.02-20.21Zm14.02-10.08L40.94 1.42V13.1a2.76 2.76 0 0 0 2.76 2.76h9.68Z"/></symbol><use style="display: var(--s16, none)" href="#s16"/><use style="display: var(--s24, none)" href="#s24"/><use style="display: var(--s32, none)" href="#s32"/><use style="display: var(--s40, none)" href="#s40"/><use style="display: var(--s48, none)" href="#s48"/><use style="display: var(--s64, none)" href="#s64"/></symbol></defs><style>@media (max-width: 23.98px) {g{--s16:block;}}@media (min-width: 24px) and (max-width: 31.98px) {g{--s24:block;}}@media (min-width: 32px) and (max-width: 39.98px) {g{--s32:block;}}@media (min-width: 40px) and (max-width: 47.98px) {g{--s40:block;}}@media (min-width: 48px) and (max-width: 63.98px) {g{--s48:block;}}@media (min-width: 64px) {g{--s64:block;}}</style><g><use href="#i-audiofile-solid"/></g></svg>