<svg xmlns="http://www.w3.org/2000/svg"><defs><symbol id="i-audiofile"><symbol id="s16" viewBox="0 0 16 16"><path d="M11.42 0H1.79v16h12.53V3.59zm-.51 1.75 1.34 1.67h-1.34zM3.3 14.5v-13h6.1v2.16c0 .69.56 1.25 1.25 1.25h2.16v9.58H3.3Zm2.05-4.41c-.69.07-1.23.65-1.23 1.35 0 .75.61 1.37 1.37 1.37s1.37-.61 1.37-1.37V9.45h2.52v.64c-.69.07-1.23.65-1.23 1.35 0 .75.61 1.37 1.37 1.37s1.37-.61 1.37-1.37v-5.5H5.38l-.02 4.14Zm1.53-2.64h2.5v.5h-2.5z"/></symbol><symbol id="s24" viewBox="0 0 24 24"><path d="M17.03 0H2.66v24h18.67V5.33zm1.98 5.24h-2.8c-.07 0-.13-.06-.13-.13V1.75h.1L19 5.24ZM4.41 22.25V1.75h9.93v3.37c0 1.04.84 1.88 1.88 1.88h3.37v15.25zm3.89-6.57h-.04c-.99 0-1.8.81-1.8 1.8s.81 1.8 1.8 1.8 1.8-.81 1.8-1.8v-3.7h4.28v1.91h-.04c-.99 0-1.8.81-1.8 1.8s.81 1.8 1.8 1.8 1.8-.81 1.8-1.8V9.53H8.35l-.03 6.16Zm1.79-4.41h4.26v.75h-4.26z"/></symbol><symbol id="s32" viewBox="0 0 32 32"><path d="M22.71 0H3.6v31.99h24.82V7.07zm3.13 7.06h-4.15c-.19 0-.35-.16-.35-.35V1.99h.4l4.09 5.07ZM5.6 29.99v-28h13.74v4.72c0 1.3 1.05 2.35 2.35 2.35h4.72v20.92H5.6Zm5.21-8.55c-.08 0-.15-.02-.23-.02-1.23 0-2.23 1-2.23 2.23s1 2.23 2.23 2.23 2.23-1 2.23-2.23v-5.1h6.04v2.89c-.08 0-.15-.02-.23-.02-1.23 0-2.23 1-2.23 2.23s1 2.23 2.23 2.23 2.23-1 2.23-2.23V13.21h-10zm2.04-6.23h6.01v1.33h-6.01z"/></symbol><symbol id="s40" viewBox="0 0 40 40"><path d="M28.38-.01H4.53v40h30.96V8.81zm4.28 8.9h-5.5a.57.57 0 0 1-.57-.57V2.24h.71zM6.78 37.74V2.24h17.56v6.07c0 1.56 1.27 2.82 2.83 2.82h6.07v26.6H6.78Zm7-11.35c-.13-.02-.27-.04-.41-.04-1.47 0-2.66 1.19-2.66 2.66s1.19 2.66 2.66 2.66 2.66-1.19 2.66-2.66v-6.5h7.79v3.88c-.13-.02-.27-.04-.41-.04-1.47 0-2.66 1.19-2.66 2.66s1.19 2.66 2.66 2.66 2.66-1.19 2.66-2.66V16.09H13.82l-.05 10.3Zm2.31-8.05h7.76v1.92h-7.76z"/></symbol><symbol id="s48" viewBox="0 0 48 48"><path d="M34.1.04H5.51v48h37.11V10.6zm5.43 10.72h-6.85c-.44 0-.8-.36-.8-.8V2.54h1.01l6.63 8.22ZM8.01 45.54v-43h21.38v7.43c0 1.82 1.48 3.3 3.3 3.3h7.43v32.27zm8.14-13.6a3 3 0 0 0-.59-.06c-1.7 0-3.09 1.39-3.09 3.09s1.39 3.09 3.09 3.09 3.09-1.39 3.09-3.09v-7.9h9.55v4.87a3 3 0 0 0-.59-.06c-1.7 0-3.09 1.39-3.09 3.09s1.39 3.09 3.09 3.09 3.09-1.39 3.09-3.09v-15.4H16.2l-.06 12.37Zm2.56-9.87h9.51v.84s-.01.05-.01.07v1.59h-9.49v-2.5Z"/></symbol><symbol id="s64" viewBox="0 0 64 64"><path d="M45.44.04H7.41v64h49.33V14.06zm8.12 14.44h-9.87c-.76 0-1.38-.62-1.38-1.38V2.79h1.82zM10.16 61.3V2.79h29.4V13.1c0 2.28 1.85 4.13 4.13 4.13H54V61.3zm11.05-18.81c-.34-.1-.7-.17-1.08-.17-2.11 0-3.82 1.72-3.82 3.82s1.72 3.82 3.82 3.82 3.65-1.57 3.79-3.54c.02-.09.03-.18.03-.28v-10.8h13.79v7.15c-.34-.1-.7-.17-1.08-.17-2.11 0-3.82 1.72-3.82 3.82s1.72 3.82 3.82 3.82 3.65-1.57 3.79-3.54c.02-.09.03-.18.03-.28v-10.8h.02v-9.41H21.27l-.08 16.56Zm2.82-13.81h13.74l-.02 3.91H24.03z"/></symbol><use style="display: var(--s16, none)" href="#s16"/><use style="display: var(--s24, none)" href="#s24"/><use style="display: var(--s32, none)" href="#s32"/><use style="display: var(--s40, none)" href="#s40"/><use style="display: var(--s48, none)" href="#s48"/><use style="display: var(--s64, none)" href="#s64"/></symbol></defs><style>@media (max-width: 23.98px) {g{--s16:block;}}@media (min-width: 24px) and (max-width: 31.98px) {g{--s24:block;}}@media (min-width: 32px) and (max-width: 39.98px) {g{--s32:block;}}@media (min-width: 40px) and (max-width: 47.98px) {g{--s40:block;}}@media (min-width: 48px) and (max-width: 63.98px) {g{--s48:block;}}@media (min-width: 64px) {g{--s64:block;}}</style><g><use href="#i-audiofile"/></g></svg>