<svg xmlns="http://www.w3.org/2000/svg"><defs><symbol id="i-authorization"><symbol id="s16" viewBox="0 0 16 16"><path d="M4.23 12.87h1.5v3.12h-1.5zm11.78-1.71c0 2.68-2.19 4.86-4.87 4.86s-4.87-2.18-4.87-4.86c0-.36.04-.7.12-1.03H4.27c-1.52 0-2.75 1.23-2.75 2.74v3.12H.01v-3.12a4.26 4.26 0 0 1 4.25-4.25H7c.26-.42.59-.8.96-1.12-2.06 0-3.74-1.68-3.74-3.74S5.91.02 7.98.02s3.75 1.68 3.75 3.74c0 1-.4 1.91-1.05 2.58.15-.01.3-.05.46-.05 2.69 0 4.87 2.18 4.87 4.86ZM7.98 6.01c1.24 0 2.25-1.01 2.25-2.25S9.22 1.51 7.98 1.51 5.73 2.52 5.73 3.76s1.01 2.25 2.25 2.25m6.53 5.15c0-1.85-1.51-3.36-3.37-3.36s-3.37 1.51-3.37 3.36 1.51 3.36 3.37 3.36 3.37-1.51 3.37-3.36m-2.56-1.64-1.26 1.89-.68-.48a.76.76 0 0 0-1.05.18.74.74 0 0 0 .18 1.04l1.94 1.36 2.12-3.17c.23-.34.13-.81-.21-1.04a.753.753 0 0 0-1.04.21Z"/></symbol><symbol id="s24" viewBox="0 0 24 24"><path d="M6.39 19.33h1.75v4.73H6.39zm17.6-2.69c0 4.05-3.3 7.34-7.37 7.34s-7.37-3.29-7.37-7.34c0-.6.08-1.18.22-1.73H6.18c-2.45 0-4.44 1.98-4.44 4.42v4.73H0v-4.73c0-3.4 2.77-6.17 6.19-6.17h3.96c.45-.83 1.06-1.57 1.79-2.17h-.11c-3.03 0-5.49-2.45-5.49-5.47S8.8.06 11.83.06s5.49 2.45 5.49 5.47c0 1.5-.61 2.85-1.59 3.84.29-.04.59-.06.89-.06 4.06 0 7.37 3.29 7.37 7.34ZM11.83 9.25c2.06 0 3.74-1.67 3.74-3.72s-1.68-3.72-3.74-3.72-3.74 1.67-3.74 3.72 1.68 3.72 3.74 3.72m10.41 7.39c0-3.08-2.52-5.59-5.61-5.59s-5.61 2.51-5.61 5.59 2.52 5.59 5.61 5.59 5.61-2.51 5.61-5.59m-4.09-2.4-2.16 3.24-1.33-.93a.88.88 0 0 0-1.22.21.88.88 0 0 0 .21 1.22l2.8 1.96 3.16-4.73c.27-.4.16-.94-.24-1.21a.883.883 0 0 0-1.22.24"/></symbol><symbol id="s32" viewBox="0 0 32 32"><path d="M8.57 25.66h2V32h-2zm23.45-3.55c0 5.45-4.44 9.89-9.89 9.89s-9.89-4.44-9.89-9.89c0-.88.13-1.74.35-2.55H8.12c-3.36 0-6.1 2.74-6.1 6.1V32h-2v-6.34c0-4.47 3.63-8.1 8.1-8.1h5.25a9.8 9.8 0 0 1 2.72-3.25c-.14 0-.29.02-.43.02-3.95 0-7.16-3.21-7.16-7.17S11.7 0 15.65 0s7.16 3.21 7.16 7.17c0 2.05-.87 3.89-2.24 5.2.51-.08 1.03-.14 1.56-.14 5.45 0 9.89 4.44 9.89 9.89Zm-16.37-9.78c2.85 0 5.16-2.32 5.16-5.17s-2.32-5.17-5.16-5.17-5.16 2.32-5.16 5.17 2.32 5.17 5.16 5.17m14.37 9.78c0-4.35-3.54-7.89-7.89-7.89s-7.89 3.54-7.89 7.89S17.78 30 22.13 30s7.89-3.54 7.89-7.89m-5.64-3.2-3.07 4.62-1.99-1.4a.994.994 0 0 0-1.39.24.994.994 0 0 0 .24 1.39l3.67 2.58 4.21-6.33a1.001 1.001 0 1 0-1.67-1.11Z"/></symbol><symbol id="s40" viewBox="0 0 40 40"><path d="M10.72 32.05h2.25V40h-2.25zm29.25-4.35c0 6.78-5.52 12.3-12.29 12.3s-12.29-5.52-12.29-12.3c0-1.19.18-2.34.5-3.43h-5.85c-4.3 0-7.81 3.49-7.81 7.78V40H-.03v-7.95c0-5.53 4.51-10.03 10.05-10.03h6.76c.92-1.75 2.24-3.26 3.85-4.39-.37.05-.75.08-1.13.08-4.89 0-8.88-3.97-8.88-8.86S14.6 0 19.5 0s8.88 3.97 8.88 8.86c0 2.73-1.24 5.17-3.19 6.79.81-.17 1.64-.26 2.49-.26 6.78 0 12.29 5.52 12.29 12.3ZM19.5 15.46c3.65 0 6.63-2.96 6.63-6.61s-2.97-6.61-6.63-6.61-6.63 2.96-6.63 6.61 2.97 6.61 6.63 6.61M37.72 27.7c0-5.54-4.51-10.05-10.05-10.05S17.62 22.16 17.62 27.7s4.51 10.05 10.05 10.05 10.05-4.51 10.05-10.05m-7.1-3.95-3.94 5.93-2.61-1.84c-.51-.36-1.21-.23-1.57.27-.36.51-.23 1.21.27 1.57l4.5 3.16 5.21-7.85c.34-.52.2-1.22-.31-1.56-.52-.35-1.21-.21-1.56.31Z"/></symbol><symbol id="s48" viewBox="0 0 48 48"><path d="M12.94 38.47h2.5v9.54h-2.5zm35.08-5.21c0 8.12-6.61 14.73-14.74 14.73s-14.74-6.61-14.74-14.73c0-1.47.22-2.89.63-4.23h-7.16c-5.23 0-9.48 4.23-9.48 9.44v9.54H.02v-9.54c0-6.59 5.38-11.94 11.99-11.94h8.18a14.8 14.8 0 0 1 5.17-5.66c-.64.12-1.29.19-1.96.19-5.83 0-10.57-4.72-10.57-10.53S17.56 0 23.39 0s10.57 4.72 10.57 10.53c0 3.48-1.71 6.57-4.34 8.48 1.17-.3 2.39-.48 3.66-.48 8.13 0 14.74 6.61 14.74 14.73m-24.63-14.7c4.45 0 8.07-3.6 8.07-8.03S27.84 2.5 23.39 2.5s-8.07 3.6-8.07 8.03 3.62 8.03 8.07 8.03m22.13 14.7c0-6.74-5.49-12.23-12.24-12.23s-12.24 5.48-12.24 12.23 5.49 12.23 12.24 12.23S45.52 40 45.52 33.26m-8.6-4.7L32.1 35.8l-3.24-2.28a1.249 1.249 0 0 0-1.44 2.04l5.34 3.75L39 29.94c.38-.58.23-1.35-.35-1.73s-1.35-.23-1.73.35"/></symbol><symbol id="s64" viewBox="0 0 64 64"><path d="M17.26 51.29h2.75v12.72h-2.75zm46.77-6.99c0 10.87-8.84 19.71-19.71 19.71S24.61 55.17 24.61 44.3c0-2.05.32-4.03.9-5.9h-9.79c-7.13 0-12.93 5.78-12.93 12.88V64H.03V51.28c0-8.62 7.04-15.63 15.68-15.63h10.91c1.77-3.61 4.6-6.6 8.1-8.56-1.06.26-2.15.41-3.29.41-7.61 0-13.8-6.17-13.8-13.75S23.84 0 31.45 0s13.8 6.17 13.8 13.75c0 4.92-2.61 9.23-6.51 11.66 1.77-.53 3.65-.82 5.59-.82 10.87 0 19.71 8.84 19.71 19.71ZM31.45 24.76c6.09 0 11.04-4.93 11.04-11s-4.95-11-11.04-11-11.05 4.93-11.05 11 4.96 11 11.05 11M61.28 44.3c0-9.35-7.61-16.96-16.96-16.96S27.36 34.95 27.36 44.3s7.61 16.95 16.96 16.95 16.96-7.61 16.96-16.95m-11.74-6.21-6.73 10.12-4.68-3.29a1.378 1.378 0 0 0-1.59 2.25l6.99 4.91 8.29-12.47c.42-.63.25-1.49-.38-1.91s-1.49-.25-1.91.38Z"/></symbol><use style="display: var(--s16, none)" href="#s16"/><use style="display: var(--s24, none)" href="#s24"/><use style="display: var(--s32, none)" href="#s32"/><use style="display: var(--s40, none)" href="#s40"/><use style="display: var(--s48, none)" href="#s48"/><use style="display: var(--s64, none)" href="#s64"/></symbol></defs><style>@media (max-width: 23.98px) {g{--s16:block;}}@media (min-width: 24px) and (max-width: 31.98px) {g{--s24:block;}}@media (min-width: 32px) and (max-width: 39.98px) {g{--s32:block;}}@media (min-width: 40px) and (max-width: 47.98px) {g{--s40:block;}}@media (min-width: 48px) and (max-width: 63.98px) {g{--s48:block;}}@media (min-width: 64px) {g{--s64:block;}}</style><g><use href="#i-authorization"/></g></svg>