<svg xmlns="http://www.w3.org/2000/svg"><defs><symbol id="i-authorization-solid"><symbol id="s16" viewBox="0 0 16 16"><path d="M4.23 12.88h2.5V16h-2.5zm1.94-2.25c.16-.94.55-1.79 1.12-2.5H4.77c-2.62 0-4.75 2.13-4.75 4.75V16h2.5v-3.12c0-1.24 1.01-2.25 2.25-2.25zM4.22 3.75C4.22 1.68 5.91 0 7.98 0s3.75 1.68 3.75 3.75c0 .91-.34 1.73-.87 2.37-1.13.14-2.16.64-2.96 1.37-2.03-.05-3.67-1.7-3.67-3.74Zm2.51 0a1.25 1.25 0 1 0 2.5 0 1.25 1.25 0 0 0-2.5 0m9.29 7.79c0 2.46-2 4.46-4.46 4.46S7.1 14 7.1 11.54c0-.31.03-.62.1-.92.05-.26.13-.51.23-.75.07-.16.15-.31.23-.46.04-.07.07-.14.11-.21.12-.19.25-.36.39-.53.01-.02.03-.03.04-.05.82-.94 2.01-1.55 3.36-1.55 2.47 0 4.46 2 4.46 4.46Zm-2.5-1.95a.753.753 0 0 0-1.04.21l-1.4 2.11-.79-.56a.753.753 0 1 0-.87 1.23l2.05 1.44 2.26-3.39c.23-.34.13-.81-.21-1.04"/></symbol><symbol id="s24" viewBox="0 0 24 24"><path d="M6.42 19.32h3.01v4.72H6.42zm-6.4 0v4.72h3.01v-4.72c0-2.09 1.71-3.8 3.81-3.8h2.33c.24-1.09.7-2.1 1.33-2.99H6.85c-3.77.01-6.83 3.05-6.83 6.79m6.3-13.79c0-3.02 2.47-5.48 5.51-5.48s5.51 2.46 5.51 5.48c0 1.36-.5 2.6-1.32 3.56-1.56.25-2.98.93-4.13 1.92h-.05c-3.04 0-5.51-2.46-5.51-5.48Zm3 0c0 1.37 1.12 2.49 2.5 2.49s2.5-1.12 2.5-2.49-1.12-2.49-2.5-2.49-2.5 1.12-2.5 2.49m14.7 11.8c0 3.66-2.98 6.62-6.65 6.62s-6.65-2.96-6.65-6.62c0-1.25.35-2.41.96-3.41 0-.01.02-.03.03-.04.3-.49.67-.94 1.09-1.34a6.62 6.62 0 0 1 4.58-1.82c3.67 0 6.65 2.96 6.65 6.62Zm-3.86-2.69a.883.883 0 0 0-1.22.24l-2.23 3.33-1.38-.97a.88.88 0 0 0-1.22.21.88.88 0 0 0 .21 1.22l2.85 2 3.22-4.82c.27-.4.16-.94-.24-1.21Z"/></symbol><symbol id="s32" viewBox="0 0 32 32"><path d="M8.56 25.66h3.5V32h-3.5zm.3-8.85c-4.87 0-8.84 3.97-8.84 8.85V32h3.5v-6.34c0-2.95 2.4-5.35 5.35-5.35h3.78c.34-1.27.91-2.46 1.66-3.5zm-.58-9.53c0-4 3.25-7.25 7.24-7.25s7.24 3.25 7.24 7.25c0 2.11-.91 4.01-2.36 5.34-1.38.36-2.66.98-3.77 1.82q-.54.09-1.11.09c-4 0-7.24-3.25-7.24-7.25m3.5 0c0 2.07 1.68 3.75 3.75 3.75s3.75-1.68 3.75-3.75-1.68-3.75-3.75-3.75-3.75 1.68-3.75 3.75m20.24 15.87c0 4.91-3.98 8.89-8.88 8.89s-8.88-3.98-8.88-8.89c0-.99.17-1.95.47-2.84.11-.32.23-.63.37-.93.02-.03.03-.07.05-.1.13-.27.28-.53.43-.79.02-.04.04-.07.07-.11a8.86 8.86 0 0 1 7.48-4.11c4.9 0 8.88 3.98 8.88 8.89Zm-5.25-3.48c-.46-.31-1.08-.18-1.39.28l-3.07 4.62-1.99-1.4a.996.996 0 0 0-1.39.24.994.994 0 0 0 .24 1.39l3.67 2.58 4.21-6.33c.31-.46.18-1.08-.28-1.39Z"/></symbol><symbol id="s40" viewBox="0 0 40 40"><path d="M10.79 32h4v7.95h-4zm-.31-23.07c0-4.95 4.05-8.98 9.02-8.98s9.01 4.03 9.01 8.98c0 2.77-1.26 5.24-3.24 6.89-1.49.41-2.88 1.07-4.12 1.93-.54.1-1.08.16-1.65.16-4.97 0-9.01-4.03-9.01-8.98Zm4.01 0c0 2.74 2.25 4.98 5.01 4.98s5.01-2.23 5.01-4.98-2.25-4.98-5.01-4.98-5.01 2.23-5.01 4.98m-3.52 12.16C4.93 21.09.02 25.98.02 32v7.95h4V32c0-3.81 3.12-6.91 6.94-6.91h4.93c.41-1.45 1.05-2.8 1.9-4h-6.83Zm29.05 7.66c0 6.17-5.01 11.18-11.19 11.18s-11.19-5.01-11.19-11.18c0-1.7.39-3.3 1.07-4.74 0-.01.01-.03.02-.04.16-.34.34-.67.53-.99.01-.02.02-.04.03-.05.19-.32.4-.62.63-.92.01-.01.02-.03.03-.04 2.05-2.67 5.26-4.4 8.88-4.4 6.18 0 11.19 5.01 11.19 11.18m-6.68-4.26c-.52-.35-1.22-.2-1.56.31l-3.95 5.93-2.62-1.84c-.51-.36-1.21-.23-1.57.27-.36.51-.23 1.21.27 1.57l4.51 3.16 5.23-7.85c.35-.52.2-1.22-.31-1.56Z"/></symbol><symbol id="s48" viewBox="0 0 48 48"><path d="M12.93 38.46h4.5V48h-4.5zm.06-12.94C5.84 25.52.02 31.33.02 38.46V48h4.5v-9.54c0-4.65 3.8-8.44 8.47-8.44h6.23c.48-1.62 1.2-3.14 2.13-4.5zm-.35-14.79C12.64 4.82 17.47 0 23.39 0s10.75 4.81 10.75 10.72c0 3.46-1.66 6.54-4.22 8.5-1.48.45-2.87 1.11-4.14 1.95-.77.17-1.56.28-2.39.28-5.93 0-10.75-4.81-10.75-10.72m4.5 0c0 3.43 2.8 6.22 6.25 6.22s6.25-2.79 6.25-6.22-2.8-6.22-6.25-6.22-6.25 2.79-6.25 6.22m30.88 23.8c0 7.45-6.03 13.48-13.48 13.48s-13.48-6.04-13.48-13.48c0-2.52.7-4.87 1.91-6.89.22-.38.47-.74.73-1.09 2.45-3.33 6.39-5.5 10.84-5.5 7.44 0 13.48 6.04 13.48 13.48m-8.1-5.06c-.57-.38-1.35-.23-1.73.35l-4.81 7.24-3.24-2.28a1.249 1.249 0 0 0-1.44 2.04l5.34 3.75 6.23-9.37c.38-.58.23-1.35-.35-1.73"/></symbol><symbol id="s64" viewBox="0 0 64 64"><path d="M17.23 51.28h5V64h-5zm-.41-16.75c-9.27 0-16.8 7.52-16.8 16.75V64h5V51.28c0-6.48 5.29-11.75 11.8-11.75h8.71c.54-1.78 1.33-3.45 2.3-5zm.13-20.06C16.95 6.49 23.45 0 31.45 0s14.5 6.49 14.5 14.46c0 4.19-1.81 7.96-4.67 10.6-3.03.65-5.81 1.96-8.21 3.76-.53.06-1.07.1-1.62.1-8 0-14.5-6.49-14.5-14.46Zm5 0c0 5.22 4.26 9.46 9.5 9.46s9.5-4.24 9.5-9.46-4.26-9.46-9.5-9.46-9.5 4.24-9.5 9.46m42.07 31.21c0 10.12-8.21 18.33-18.33 18.33S27.36 55.8 27.36 45.68c0-4.2 1.43-8.05 3.8-11.14 3.35-4.36 8.6-7.18 14.53-7.18 10.12 0 18.33 8.21 18.33 18.33Zm-11.21-6.6c-.63-.42-1.49-.25-1.91.38l-6.73 10.12-4.68-3.29a1.378 1.378 0 0 0-1.59 2.25l6.99 4.91 8.29-12.47c.42-.63.25-1.49-.38-1.91Z"/></symbol><use style="display: var(--s16, none)" href="#s16"/><use style="display: var(--s24, none)" href="#s24"/><use style="display: var(--s32, none)" href="#s32"/><use style="display: var(--s40, none)" href="#s40"/><use style="display: var(--s48, none)" href="#s48"/><use style="display: var(--s64, none)" href="#s64"/></symbol></defs><style>@media (max-width: 23.98px) {g{--s16:block;}}@media (min-width: 24px) and (max-width: 31.98px) {g{--s24:block;}}@media (min-width: 32px) and (max-width: 39.98px) {g{--s32:block;}}@media (min-width: 40px) and (max-width: 47.98px) {g{--s40:block;}}@media (min-width: 48px) and (max-width: 63.98px) {g{--s48:block;}}@media (min-width: 64px) {g{--s64:block;}}</style><g><use href="#i-authorization-solid"/></g></svg>