<svg xmlns="http://www.w3.org/2000/svg"><defs><symbol id="i-barcode-solid"><symbol id="s16" viewBox="0 0 16 16"><path d="M0 0v16h16V0zm9.52 1H15v5.66h-1.5V2.5H9.52zm1.83 10.62V3.45h.85v8.17zm.64.5v.43h-.43v-.43zm-1.89 0v.43h-.43v-.43zm-.4-.5V3.45h.21v8.17zm.39 0V3.45h.85v8.17zm.53.5h.43v.43h-.43zM9.04 3.45h.43v8.17h-.43zm-3.15 8.67h.43v.43h-.43zm-.04-.5V3.45h.21v8.17zm.46 0V3.45h.85v8.17zM.98 1.02h5.66v1.5H2.48V6.5H.98zm4.28 10.6V3.45h.43v8.17zm.11.5v.43h-.43v-.43zm-1.79-.5V3.45h1.28v8.17zm.85.5v.43H4v-.43zM6.46 15H.98V9.34h1.5v4.16h3.98zm.8-2.45h-.43v-.43h.43zm.95 0h-.43v-.43h.43zm0-.93h-.43V3.45h.43zm.31-8.17h.21v8.17h-.21zm.63 9.1h-.43v-.43h.43zm5.86 2.44H9.35v-1.5h4.16V9.51h1.5z"/></symbol><symbol id="s24" viewBox="0 0 24 24"><path d="M0 0v24h24V0zm13.67 4.79h.68v12.97h-.68zm-5 13.76h.68v.68h-.68zm-.07-.8V4.79h.34v12.97H8.6Zm.73 0V4.79h1.35v12.97H9.33ZM1.51 1.5h8.17v1.75H3.26v6.1H1.51zm6.16 16.25V4.79h.68v12.97h-.68Zm.18.8v.68h-.68v-.68zM5 17.75V4.79h2.03v12.97H5Zm1.35.8v.68h-.68v-.68zm3.01 3.95H1.51v-8.17h1.75v6.42h6.1zm1.49-3.28h-.68v-.68h.68zm1.5 0h-.68v-.68h.68zm0-1.47h-.68V4.79h.68v12.97Zm.49-12.96h.34v12.97h-.34zm1.01 14.43h-.68v-.68h.68zm8.66 3.27h-8.17v-1.75h6.42v-6.1h1.75zm-7.17-3.94v.68h-.68v-.68zm-.62-.8V4.79h.34v12.97h-.34Zm1.96 0h-1.35V4.79h1.35v12.97Zm.16.8v.68h-.68v-.68zm.49-.8V4.79h1.35v12.97h-1.35Zm1.01.8v.68h-.68v-.68zm4.17-8.88h-1.75V3.25h-6.1V1.5h7.85z"/></symbol><symbol id="s32" viewBox="0 0 32 32"><path d="M0 0v32h32V0zm20.57 6.11h1.85v17.77h-1.85zm2.08 18.86v.93h-.93v-.93zM19.73 6.11h.46v17.77h-.46zm-7.37 0h1.85v17.77h-1.85zM1.51 1.51h9.23v2H3.51v6.8h-2zm4.9 22.37V6.11h2.78v17.77zm1.86 1.09v.93h-.93v-.93zm2.04 5.53h-8.8v-9.23h2v7.23h6.8zm.01-4.61h-.93v-.93h.93zm.68-2.01h-.93V6.11H11zm.36-17.77h.46v17.77h-.46zm1.01 19.78h-.93v-.93h.93zm2.06 0h-.93v-.93h.93zm2.05 0h-.93v-.93h.93zm0-2.01h-.93V6.11h.93zm.68-17.77h.46v17.77h-.46zm1.38 19.78h-.93v-.93h.93zm.68-2.01h-.93V6.11h.93zm1.37 2.01h-.93v-.93h.93zm9.92 4.61h-9.23v-2h7.23v-6.8h2zm-7.2-6.62V6.11h1.85v17.77zm1.39 1.09v.93h-.93v-.93zm5.82-14.22h-2V3.52h-6.8v-2h8.8z"/></symbol><symbol id="s40" viewBox="0 0 40 40"><path d="M0-.06v40h40v-40zm27.57 1.55h10.87V12.9h-2.25V3.74h-8.62zm1.62 28.46V7.5h2.34v22.45zm1.76 1.37v1.17h-1.17v-1.17zM25.73 7.5h2.34v22.45h-2.34zm2.62 23.82v1.17h-1.17v-1.17zM24.67 7.5h.59v22.45h-.59zm-9.32 0h2.34v22.45h-2.34zm-13.89-6h11.41v2.25H3.71v8.62H1.46zm6.38 28.45V7.5h3.51v22.45zm2.34 1.37v1.17H9.01v-1.17zm2.15 7.17H1.46V27.08h2.25v9.16h8.62zm.45-6h-1.17v-1.17h1.17zm.86-2.54h-1.17V7.5h1.17zm.45-22.45h.59v22.45h-.59zm1.28 24.99H14.2v-1.17h1.17zm2.6 0H16.8v-1.17h1.17zm2.59 0h-1.17v-1.17h1.17zm0-2.54h-1.17V7.5h1.17zm.86-22.45h.59v22.45h-.59zm1.74 24.99h-1.17v-1.17h1.17zm.86-2.54h-1.17V7.5h1.17zm1.73 2.54h-1.17v-1.17h1.17zm12.72 6H27.06v-2.25h9.16v-8.62h2.25z"/></symbol><symbol id="s48" viewBox="0 0 48 48"><path d="M0 0v48h48V0zm32.97 2.08h12.95v13.59h-2.5V4.58H32.97zm2.94 34.68V7.98h3v28.78zm2.25 1.76v1.5h-1.5v-1.5zM31.48 7.98h3v28.78h-3zm3.36 30.54v1.5h-1.5v-1.5zM30.12 7.98h.75v28.78h-.75zm-11.95 0h3v28.78h-3zM2.06 2.08h13.59v2.5H4.56v10.45h-2.5zm11.31 36.44h1.5v1.5h-1.5zm-4.82-1.76V7.98h4.5v28.78zm3 1.76v1.5h-1.5v-1.5zM14.96 46H2.01V32.41h2.5V43.5h10.45zm1.02-9.24h-1.5V7.98h1.5zm.57-28.78h.75v28.78h-.75zm1.65 32.04h-1.5v-1.5h1.5zm3.33 0h-1.5v-1.5h1.5zm3.32 0h-1.5v-1.5h1.5zm0-3.26h-1.5V7.98h1.5zm1.1-28.78h.75v28.78h-.75zm2.23 32.04h-1.5v-1.5h1.5zm1.11-3.26h-1.5V7.98h1.5zm2.22 3.26h-1.5v-1.5h1.5zm14.46 5.93H32.38v-2.5h11.09V33h2.5z"/></symbol><symbol id="s64" viewBox="0 0 64 64"><path d="M0 0v64h64V0zm41.97 10.64h4v38.38h-4zm4.48 40.71v2h-2v-2zm-6.29-40.71h1v38.38h-1zm-15.93 0h4v38.38h-4zM3.02 3.21h17.83v2.75H5.77v14.22H3.02zm14.81 48.14h2v2h-2zm-6.43-2.34V10.64h6v38.38h-6Zm4 2.34v2h-2v-2zm4.6 9.66H3.03V43.18h2.75v15.08H20zm1.31-12h-2V10.64h2v38.38Zm.76-38.37h1v38.38h-1zm2.2 42.71h-2v-2h2zm4.44 0h-2v-2h2zm4.43 0h-2v-2h2zm0-4.34h-2V10.64h2v38.38Zm1.46-38.37h1v38.38h-1zm2.98 42.71h-2v-2h2zm1.48-4.34h-2V10.64h2v38.38Zm2.95 4.34h-2v-2h2zm19 7.66H43.18v-2.75h15.08V44.04h2.75zm-13.12-12V10.64h4v38.38h-4Zm3 2.34v2h-2v-2zm10.12-30.5h-2.75V5.77H44.04V3.02h16.97z"/></symbol><use style="display: var(--s16, none)" href="#s16"/><use style="display: var(--s24, none)" href="#s24"/><use style="display: var(--s32, none)" href="#s32"/><use style="display: var(--s40, none)" href="#s40"/><use style="display: var(--s48, none)" href="#s48"/><use style="display: var(--s64, none)" href="#s64"/></symbol></defs><style>@media (max-width: 23.98px) {g{--s16:block;}}@media (min-width: 24px) and (max-width: 31.98px) {g{--s24:block;}}@media (min-width: 32px) and (max-width: 39.98px) {g{--s32:block;}}@media (min-width: 40px) and (max-width: 47.98px) {g{--s40:block;}}@media (min-width: 48px) and (max-width: 63.98px) {g{--s48:block;}}@media (min-width: 64px) {g{--s64:block;}}</style><g><use href="#i-barcode-solid"/></g></svg>