<svg xmlns="http://www.w3.org/2000/svg"><defs><symbol id="i-battery"><symbol id="s16" viewBox="0 0 16 16"><path d="M11.48 2.48h-.75V1.25C10.73.56 10.17 0 9.48 0h-3c-.69 0-1.25.56-1.25 1.25v1.23h-.75c-.69 0-1.25.56-1.25 1.25v11.01c0 .69.56 1.25 1.25 1.25h7.01c.69 0 1.25-.56 1.25-1.25v-11c0-.69-.56-1.25-1.25-1.25ZM6.73 1.5h2.5v.98h-2.5zm4.5 13H4.72V3.99h6.51zM7.17 9.86H5.56l3.55-3.94v2.46h1.32l-3.25 4.16V9.86Z"/></symbol><symbol id="s24" viewBox="0 0 24 24"><path d="M17.48 3.22h-1.63V1.37A1.36 1.36 0 0 0 14.48 0h-5C8.72 0 8.1.62 8.1 1.38v1.85H6.47c-.76 0-1.38.62-1.38 1.38v18.02c0 .76.62 1.38 1.38 1.38h11.01c.76 0 1.38-.62 1.38-1.38V4.6c0-.76-.62-1.38-1.38-1.38M9.85 1.75h4.25v1.47H9.85zm7.26 3.22v1.54H6.85V4.97zm0 3.29v10.98H6.85V8.26zM6.85 22.24v-1.25h10.26v1.25zm6.56-12.96v3.29h1.71l-4.11 5.26v-3.54H8.9l4.51-5Z"/></symbol><symbol id="s32" viewBox="0 0 32 32"><path d="M23.49 4.3h-2.5V1.5C20.98.67 20.31 0 19.48 0h-7.01c-.83 0-1.5.67-1.5 1.5v2.8h-2.5c-.83 0-1.5.67-1.5 1.5v24.7c0 .83.67 1.5 1.5 1.5h15.01c.83 0 1.5-.67 1.5-1.5V5.8c0-.83-.67-1.5-1.5-1.5ZM12.98 2h6v2.3h-6zm10.01 4.3v2.39H8.98V6.3zm0 4.39v15.13H8.98V10.69zM8.97 30v-2.17h14.01V30zm8.75-16.86v4.11h2.11l-4.97 6.36V19.2h-2.6l5.46-6.07Z"/></symbol><symbol id="s40" viewBox="0 0 40 40"><path d="M29.49 4.36h-3.38V1.61c0-.9-.73-1.63-1.63-1.63h-9.01c-.9 0-1.63.73-1.63 1.63v2.75h-3.38c-.9 0-1.63.73-1.63 1.63v32.37c0 .9.73 1.63 1.63 1.63h19.02c.9 0 1.63-.73 1.63-1.63V5.98c0-.9-.73-1.63-1.63-1.63ZM16.1 2.23h7.76v2.12H16.1zm12.76 4.38v3.24H11.1V6.61h17.77Zm0 5.49v20.41H11.1V12.1h17.77ZM11.1 37.73v-2.97h17.77v2.97zM22.15 16v4.94h2.5l-5.84 7.46v-5.27h-3.09z"/></symbol><symbol id="s48" viewBox="0 0 48 48"><path d="M35.48 5.25h-4.25v-3.5c0-.96-.78-1.75-1.75-1.75h-11c-.96 0-1.75.79-1.75 1.75v3.5h-4.25c-.96 0-1.75.79-1.75 1.75v39.25c0 .96.79 1.75 1.75 1.75h23c.96 0 1.75-.79 1.75-1.75V7c0-.96-.79-1.75-1.75-1.75M19.23 2.5h9.5v2.74h-9.5zm15.5 5.25v4.08h-21.5V7.75zm0 6.58v24.91h-21.5V14.33zM13.23 45.5v-3.76h21.5v3.76zm13.25-26.13v5.77h2.9l-6.69 8.56v-6.13H19.1l7.38-8.19Z"/></symbol><symbol id="s64" viewBox="0 0 64 64"><path d="M47.49 6.99h-6.13V1.87c0-1.03-.84-1.88-1.88-1.88H24.47c-1.03 0-1.88.84-1.88 1.88v5.12h-6.13c-1.03 0-1.88.84-1.88 1.88v53.25c0 1.03.84 1.88 1.88 1.88h31.02c1.03 0 1.88-.84 1.88-1.88V8.87c0-1.03-.84-1.88-1.88-1.88ZM25.35 2.74h13.26v4.24H25.35zm21.26 7v6.03H17.34V9.74zm0 8.78v34.37H17.34V18.52zM17.35 61.24v-5.6h29.27v5.6zm17.67-35.41v7.22h3.56l-8.04 10.28v-7.62h-4.42z"/></symbol><use style="display: var(--s16, none)" href="#s16"/><use style="display: var(--s24, none)" href="#s24"/><use style="display: var(--s32, none)" href="#s32"/><use style="display: var(--s40, none)" href="#s40"/><use style="display: var(--s48, none)" href="#s48"/><use style="display: var(--s64, none)" href="#s64"/></symbol></defs><style>@media (max-width: 23.98px) {g{--s16:block;}}@media (min-width: 24px) and (max-width: 31.98px) {g{--s24:block;}}@media (min-width: 32px) and (max-width: 39.98px) {g{--s32:block;}}@media (min-width: 40px) and (max-width: 47.98px) {g{--s40:block;}}@media (min-width: 48px) and (max-width: 63.98px) {g{--s48:block;}}@media (min-width: 64px) {g{--s64:block;}}</style><g><use href="#i-battery"/></g></svg>