<svg xmlns="http://www.w3.org/2000/svg"><defs><symbol id="i-battery-solid"><symbol id="s16" viewBox="0 0 16 16"><path d="M11.53 2.48h-.75V1.25c0-.7-.56-1.25-1.25-1.25h-3c-.69 0-1.25.56-1.25 1.25v1.23h-.75c-.69 0-1.25.56-1.25 1.25v11.01c0 .69.56 1.25 1.25 1.25h7.01c.69 0 1.25-.56 1.25-1.25V3.73c0-.69-.56-1.25-1.25-1.25Zm-4.75-.99h2.5v.98h-2.5zm.44 11.04V9.85H5.61l3.55-3.94v2.46h1.32l-3.25 4.16Z"/></symbol><symbol id="s24" viewBox="0 0 24 24"><path d="M17.54 3.21h-1.5V1.5C16.03.66 15.36 0 14.53 0H9.52c-.83 0-1.5.67-1.5 1.5v1.71h-1.5c-.76 0-1.38.62-1.38 1.38v18.03c0 .76.62 1.38 1.38 1.38h11.01c.76 0 1.38-.62 1.38-1.38V4.58c0-.76-.62-1.38-1.38-1.38Zm-7.51-1.22h4V3.2h-4zm6.87 19.12H7.2v-2h9.69v2Zm-1.72-8.56-4.12 5.26v-3.54H8.95l4.51-5v3.29h1.71Zm1.72-4.17H7.2v-2h9.69v2Z"/></symbol><symbol id="s32" viewBox="0 0 32 32"><path d="M23.53 4.3h-2V2a2 2 0 0 0-2-2h-7c-1.11 0-2 .89-2 2v2.31h-2c-.83 0-1.5.67-1.5 1.5V30.5c0 .83.67 1.5 1.5 1.5h15.01c.83 0 1.5-.67 1.5-1.5V5.81c0-.83-.67-1.5-1.5-1.5Zm-10-1.3h5v1.3h-5zm8.56 24.82H10.02v-2h12.07zm-2.21-10.57-4.97 6.36V19.2h-2.6l5.46-6.06v4.11zm2.21-6.55H10.02v-2h12.07z"/></symbol><symbol id="s40" viewBox="0 0 40 40"><path d="M29.55 4.36h-3.01V2.02c0-1.11-.9-2.01-2-2.01h-9.02c-1.1 0-2 .9-2 2v2.34h-3.01c-.9 0-1.63.73-1.63 1.63v32.4c0 .9.73 1.63 1.63 1.63h19.04c.9 0 1.63-.73 1.63-1.63V5.99c0-.9-.73-1.63-1.63-1.63M16.52 3.02h7.01v1.34h-7.01zm11.71 31.74H11.89v-2.25h16.34zm-3.54-13.81-5.83 7.46v-5.27h-3.09l6.42-7.13v4.94zm3.54-8.83H11.89V9.87h16.34z"/></symbol><symbol id="s48" viewBox="0 0 48 48"><path d="M35.53 5.25h-3.5V2.49c0-1.37-1.12-2.49-2.5-2.49h-11a2.5 2.5 0 0 0-2.5 2.5v2.76h-3.5c-.96 0-1.75.79-1.75 1.75v39.24c0 .96.79 1.75 1.75 1.75h23c.96 0 1.75-.79 1.75-1.75V7c0-.96-.79-1.75-1.75-1.75M20.03 4h8v1.24h-8zm13.3 37.74H14.81v-2.5h18.53v2.5Zm-3.91-16.61-6.69 8.56v-6.13h-3.58l7.38-8.19v5.77h2.9Zm3.91-10.79H14.81v-2.5h18.53v2.5Z"/></symbol><symbol id="s64" viewBox="0 0 64 64"><path d="M47.54 6.97h-5V2.99a3 3 0 0 0-3-2.99H24.53c-1.66 0-3 1.35-3 3v3.98h-5c-1.04 0-1.88.84-1.88 1.88v53.27c0 1.04.84 1.88 1.88 1.88h31.03c1.04 0 1.88-.84 1.88-1.88V8.85c0-1.04-.84-1.88-1.88-1.88ZM26.52 5h11.01v1.98H26.52zm17.92 50.62H19.72v-2.75h24.72zm-5.82-22.57-8.03 10.27V35.7h-4.42l8.89-9.87v7.22h3.55Zm5.82-14.53H19.72v-2.75h24.72z"/></symbol><use style="display: var(--s16, none)" href="#s16"/><use style="display: var(--s24, none)" href="#s24"/><use style="display: var(--s32, none)" href="#s32"/><use style="display: var(--s40, none)" href="#s40"/><use style="display: var(--s48, none)" href="#s48"/><use style="display: var(--s64, none)" href="#s64"/></symbol></defs><style>@media (max-width: 23.98px) {g{--s16:block;}}@media (min-width: 24px) and (max-width: 31.98px) {g{--s24:block;}}@media (min-width: 32px) and (max-width: 39.98px) {g{--s32:block;}}@media (min-width: 40px) and (max-width: 47.98px) {g{--s40:block;}}@media (min-width: 48px) and (max-width: 63.98px) {g{--s48:block;}}@media (min-width: 64px) {g{--s64:block;}}</style><g><use href="#i-battery-solid"/></g></svg>