<svg xmlns="http://www.w3.org/2000/svg"><defs><symbol id="i-bill-line"><symbol id="s16" viewBox="0 0 16 16"><path d="M0 2.25v11.5h15.99V2.25zm14.49 10h-13v-8.5h13zM7.96 5.98h-1.5v-1.5h1.5zm-2.41 0H2.02v-1.5h3.53zm2.41 2.77h-1.5v-1.5h1.5zm2.76 1.18h-1.5v-1.5h1.5zm0 1.5v-1.5h1.5v-1.5h1.5v3zm-2.76.14h-1.5v-1.5h1.5zm2.39-5.59c0-.83.67-1.5 1.5-1.5s1.5.67 1.5 1.5-.67 1.5-1.5 1.5-1.5-.67-1.5-1.5m-8.34 4.09c0-.83.67-1.5 1.5-1.5s1.5.67 1.5 1.5-.67 1.5-1.5 1.5-1.5-.67-1.5-1.5"/></symbol><symbol id="s24" viewBox="0 0 24 24"><path d="M-.01 3.47v17.05h24V3.47zm22.25 15.31H1.74V5.22h20.49v13.55ZM8.23 8.28H2.81V6.53h5.42zm-2.39 2.88H2.81V9.41h3.03zm5.83-3.43H9.92V5.98h1.75zm5.35 10.44h-1.75v-1.75h1.75v-1.74h-1.75v-1.75h1.75v1.74h1.73v-1.74h1.75v3.49h-3.48v1.74Zm-5.35-7.01H9.92V9.41h1.75zm0 3.43H9.92v-1.75h1.75zm0 3.43H9.92v-1.75h1.75zm6.23-6.74c1.31 0 2.38-1.07 2.38-2.38s-1.07-2.38-2.38-2.38-2.38 1.07-2.38 2.38 1.07 2.38 2.38 2.38m0-3c.35 0 .63.28.63.62s-.28.62-.63.62-.63-.28-.63-.62.28-.62.63-.62M5.12 17.54c1.31 0 2.38-1.07 2.38-2.38s-1.07-2.38-2.38-2.38-2.38 1.07-2.38 2.38 1.07 2.38 2.38 2.38m0-3c.35 0 .63.28.63.62s-.28.62-.63.62-.63-.28-.63-.62.28-.62.63-.62"/></symbol><symbol id="s32" viewBox="0 0 32 32"><path d="M-.01 4.67v22.67h32V4.67zm29.99 20.66H15.37v-1.99h-2v1.99H1.99V6.67h11.39v1.99h2V6.67h14.61v18.67ZM3.61 8.8h7.31v2H3.61zm4.09 5.88H3.61v-2h4.08v2Zm12.59 8.77h4v-2h2v2h2v-2h-2v-4h-2v2h-2v-2h-2v2h-2v2h2zm0-4h2v2h-2zm-6.92-8.62h2v2h-2zm0 4.17h2v2h-2zm0 4.17h2v2h-2zm10.59-3.85c1.93 0 3.5-1.57 3.5-3.5s-1.57-3.5-3.5-3.5-3.5 1.57-3.5 3.5 1.57 3.5 3.5 3.5m0-5c.83 0 1.5.67 1.5 1.5s-.67 1.5-1.5 1.5-1.5-.67-1.5-1.5.67-1.5 1.5-1.5M6.72 16.78c-1.93 0-3.5 1.57-3.5 3.5s1.57 3.5 3.5 3.5 3.5-1.57 3.5-3.5-1.57-3.5-3.5-3.5m0 5c-.83 0-1.5-.67-1.5-1.5s.67-1.5 1.5-1.5 1.5.67 1.5 1.5-.67 1.5-1.5 1.5"/></symbol><symbol id="s40" viewBox="0 0 40 40"><path d="M0 5.87v28.25h39.95V5.87zm37.71 26.01H2.25V8.12H37.7v23.75ZM13.62 13.32H4.43v-2.25h9.19zm-4.06 3.84H4.43v-2.25h5.13zm9.52-5.64h-2.25V9.27h2.25zm13.99 11.72h2.25v2.25h-4.5v-4.48h2.25zm-6.75 2.25h-2.25v-2.25h2.25v-2.23h2.25v2.25h-2.25zm0 4.5h-2.25v-2.25h2.25v-2.25h6.75v2.25h2.25v2.25h-2.25v-2.25h-2.25v2.25h-2.25v-2.25h-2.25zM19.08 16.3h-2.25v-2.25h2.25zm0 4.79h-2.25v-2.25h2.25zm0 4.79h-2.25v-2.25h2.25zm0 4.78h-2.25v-2.25h2.25zm12.86-12.85c2.35 0 4.27-1.92 4.27-4.27s-1.92-4.27-4.27-4.27-4.27 1.92-4.27 4.27 1.92 4.27 4.27 4.27m0-6.29c1.11 0 2.02.91 2.02 2.02s-.91 2.02-2.02 2.02-2.02-.91-2.02-2.02.91-2.02 2.02-2.02M7.58 30.66c2.35 0 4.27-1.92 4.27-4.27s-1.92-4.27-4.27-4.27-4.27 1.92-4.27 4.27 1.92 4.27 4.27 4.27m0-6.29c1.11 0 2.02.91 2.02 2.02s-.91 2.02-2.02 2.02-2.02-.91-2.02-2.02.91-2.02 2.02-2.02"/></symbol><symbol id="s48" viewBox="0 0 48 48"><path d="M0 7.08v33.88h48V7.08zm45.5 31.38h-43V9.58h43zM16.32 15.85H5.23v-2.5h11.09zm-4.9 4.73H5.23v-2.5h6.19zm11.39-6.9h-2.5v-2.5h2.5zM39.9 28.5h2.5V31h-5v-5h2.5zM32.4 31h-2.5v-2.5h2.5V26h2.5v2.5h-2.5zm0 4.97h-2.5v-2.5h2.5v-2.46h7.5v2.46h2.5v2.5h-2.5v-2.46h-2.5v2.46h-2.5v-2.46h-2.5zm-9.59-16.52h-2.5v-2.5h2.5zm0 5.78h-2.5v-2.5h2.5zm0 5.77h-2.5v-2.5h2.5zm0 5.78h-2.5v-2.5h2.5zm15.62-15.51c2.78 0 5.04-2.26 5.04-5.05s-2.26-5.04-5.04-5.04-5.05 2.26-5.05 5.04 2.26 5.05 5.05 5.05m0-7.59c1.4 0 2.54 1.14 2.54 2.54s-1.14 2.55-2.54 2.55-2.55-1.14-2.55-2.55 1.14-2.54 2.55-2.54m-29.4 23.1c2.78 0 5.04-2.26 5.04-5.04s-2.26-5.04-5.04-5.04-5.05 2.26-5.05 5.04 2.26 5.04 5.05 5.04m0-7.59c1.4 0 2.54 1.14 2.54 2.54s-1.14 2.54-2.54 2.54-2.55-1.14-2.55-2.54 1.14-2.54 2.55-2.54"/></symbol><symbol id="s64" viewBox="0 0 64 64"><path d="M0 9.72v44.99h64V9.72zm61.25 42.24H2.75V12.47h58.5zM21.66 20.91H6.74v-2.75h14.92zm-6.59 5.53H6.74v-2.75h8.34v2.75Zm15.02-8.45h-2.75v-2.75h2.75zm15.37 20.03h-2.75v2.75h2.75v2.74h-2.75v2.74h-2.75V49h2.75v-2.74h2.75V49h2.75v-2.74h2.75V49h2.75v-2.74h2.75v-2.75h-2.75v-2.74h2.75v-2.75h-2.75v-2.75h2.75v-2.75h-2.75v2.75h-2.75v5.49h-5.5zh2.75v-2.75h2.75v-2.75h-2.75v2.75h-2.75v-2.75h-2.75v2.75h2.75zm8.25 8.23h-2.75v-2.74h2.75zm-5.5-2.74v2.74h-2.75v-2.74zm-5.5-5.49h-2.75v-5.5h2.75zm0 5.48h-2.75v-2.75h2.75zM30.09 25.76h-2.75v-2.75h2.75zm0 7.77h-2.75v-2.75h2.75zm0 7.78h-2.75v-2.75h2.75zm0 7.77h-2.75v-2.75h2.75zM51.43 28.2c3.58 0 6.48-2.91 6.48-6.48s-2.91-6.48-6.48-6.48-6.48 2.91-6.48 6.48 2.91 6.48 6.48 6.48m0-10.21c2.06 0 3.73 1.67 3.73 3.73s-1.68 3.73-3.73 3.73-3.73-1.67-3.73-3.73 1.68-3.73 3.73-3.73M11.85 49.08c3.58 0 6.48-2.91 6.48-6.48s-2.91-6.48-6.48-6.48-6.48 2.91-6.48 6.48 2.91 6.48 6.48 6.48m0-10.21c2.06 0 3.73 1.67 3.73 3.73s-1.68 3.73-3.73 3.73-3.73-1.67-3.73-3.73 1.68-3.73 3.73-3.73"/></symbol><use style="display: var(--s16, none)" href="#s16"/><use style="display: var(--s24, none)" href="#s24"/><use style="display: var(--s32, none)" href="#s32"/><use style="display: var(--s40, none)" href="#s40"/><use style="display: var(--s48, none)" href="#s48"/><use style="display: var(--s64, none)" href="#s64"/></symbol></defs><style>@media (max-width: 23.98px) {g{--s16:block;}}@media (min-width: 24px) and (max-width: 31.98px) {g{--s24:block;}}@media (min-width: 32px) and (max-width: 39.98px) {g{--s32:block;}}@media (min-width: 40px) and (max-width: 47.98px) {g{--s40:block;}}@media (min-width: 48px) and (max-width: 63.98px) {g{--s48:block;}}@media (min-width: 64px) {g{--s64:block;}}</style><g><use href="#i-bill-line"/></g></svg>