<svg xmlns="http://www.w3.org/2000/svg"><defs><symbol id="i-bill-solid"><symbol id="s16" viewBox="0 0 16 16"><path d="M-.02 2.25v11.5h16V2.25zm11.85 2.23c.83 0 1.5.67 1.5 1.5s-.67 1.5-1.5 1.5-1.5-.67-1.5-1.5.67-1.5 1.5-1.5M3.5 11.57c-.83 0-1.5-.67-1.5-1.5s.67-1.5 1.5-1.5 1.5.67 1.5 1.5-.67 1.5-1.5 1.5m2.03-5.59H2v-1.5h3.53zm2.42 5.59h-1.5v-1.5h1.5zm0-2.82h-1.5v-1.5h1.5zm0-2.77h-1.5v-1.5h1.5zm5.76 3.95v1.5h-3v-1.5h-1.5v-1.5h1.5v1.5h1.5v-1.5h1.5z"/></symbol><symbol id="s24" viewBox="0 0 24 24"><path d="M17.25 8.91c0-.34.28-.62.62-.62s.62.28.62.62-.28.62-.62.62-.62-.28-.62-.62M5.12 14.54c-.34 0-.62.28-.62.62s.28.62.62.62.62-.28.62-.62-.28-.62-.62-.62M23.94 3.47v17.05H0V3.47zM15.5 8.91c0 1.31 1.07 2.38 2.38 2.38s2.38-1.07 2.38-2.38-1.07-2.38-2.38-2.38S15.5 7.6 15.5 8.91M2.82 11.16h3.02V9.41H2.82zm4.67 4.01c0-1.31-1.07-2.38-2.38-2.38s-2.38 1.07-2.38 2.38 1.07 2.38 2.38 2.38 2.38-1.07 2.38-2.38m.74-8.64H2.82v1.75h5.41zm3.43 9.74H9.91v1.75h1.75zm0-3.43H9.91v1.75h1.75zm0-3.43H9.91v1.75h1.75zm0-3.43H9.91v1.75h1.75zm8.81 6.96h-1.75v1.74h-1.73v-1.74h-1.75v1.75h1.75v1.74h-1.75v1.75h1.75v-1.74h3.48v-3.49Z"/></symbol><symbol id="s32" viewBox="0 0 32 32"><path d="M8.21 20.28c0 .83-.67 1.5-1.5 1.5s-1.5-.67-1.5-1.5.67-1.5 1.5-1.5 1.5.67 1.5 1.5m15.72-6.96c.83 0 1.5-.67 1.5-1.5s-.67-1.5-1.5-1.5-1.5.67-1.5 1.5.67 1.5 1.5 1.5m-1.66 6.13h-2v2h2zm9.68-14.78v22.67H-.02V4.67zm-11.52 7.15c0 1.93 1.57 3.5 3.5 3.5s3.5-1.57 3.5-3.5-1.57-3.5-3.5-3.5-3.5 1.57-3.5 3.5M3.61 14.68h4.08v-2H3.61zm6.6 5.6c0-1.93-1.57-3.5-3.5-3.5s-3.5 1.57-3.5 3.5 1.57 3.5 3.5 3.5 3.5-1.57 3.5-3.5m.7-11.48h-7.3v2h7.3zm4.45 14.55h-2v2h2zm0-4.18h-2v2h2zm0-4.17h-2v2h2zm0-4.17h-2v2h2zm0-4.17h-2v2h2zm12.91 14.79h-2v-4h-2v2h-2v-2h-2v2h-2v2h2v2h4v-2h2v2h2z"/></symbol><symbol id="s40" viewBox="0 0 40 40"><path d="M9.58 26.34c0 1.11-.91 2.02-2.02 2.02s-2.02-.91-2.02-2.02.91-2.02 2.02-2.02 2.02.91 2.02 2.02m22.35-14.88c-1.11 0-2.02.91-2.02 2.02s.91 2.02 2.02 2.02 2.02-.91 2.02-2.02-.91-2.02-2.02-2.02m8.01-5.64v28.25H-.01V5.82zM24.05 25.43h2.25V23.2h2.25v-2.25H26.3v2.23h-2.25zM4.42 17.11h5.13v-2.25H4.42zm7.41 9.23c0-2.35-1.92-4.27-4.27-4.27s-4.27 1.92-4.27 4.27 1.92 4.27 4.27 4.27 4.27-1.92 4.27-4.27m1.77-15.32H4.42v2.25h9.19v-2.25Zm5.47 17.34h-2.25v2.25h2.25zm0-4.79h-2.25v2.25h2.25zm0-4.79h-2.25v2.25h2.25zm0-4.78h-2.25v2.25h2.25zm0-4.79h-2.25v2.25h2.25zM35.3 23.18h-2.25v-2.23H30.8v4.48h-4.5v2.25h-2.25v2.25h2.25v-2.25h2.25v2.25h2.25v-2.25h2.25v2.25h2.25v-2.25h-2.25v-2.25h2.25zm.9-9.7c0-2.35-1.92-4.27-4.27-4.27s-4.27 1.92-4.27 4.27 1.92 4.27 4.27 4.27 4.27-1.92 4.27-4.27"/></symbol><symbol id="s48" viewBox="0 0 48 48"><path d="M11.56 31.73c0 1.4-1.14 2.54-2.55 2.54s-2.54-1.14-2.54-2.54 1.14-2.55 2.54-2.55 2.55 1.14 2.55 2.55M47.98 7.07v33.88h-48V7.07zM29.88 31h2.5v-2.5h2.5V26h-2.5v2.5h-2.5zM5.22 20.57h6.19v-2.5H5.22zm8.84 11.16c0-2.78-2.26-5.05-5.05-5.05s-5.04 2.26-5.04 5.05 2.26 5.04 5.04 5.04 5.05-2.26 5.05-5.04m2.24-18.38H5.22v2.5h11.09v-2.5Zm6.49 20.92h-2.5v2.5h2.5zm0-5.77h-2.5V31h2.5zm0-5.78h-2.5v2.5h2.5zm0-5.77h-2.5v2.5h2.5zm0-5.78h-2.5v2.5h2.5zM42.38 28.5h-2.5V26h-2.5v5h-5v2.46h-2.5v2.5h2.5V33.5h2.5v2.46h2.5V33.5h2.5v2.46h2.5v-2.5h-2.5V31h2.5zm1.08-12.28c0-2.78-2.26-5.05-5.05-5.05s-5.04 2.26-5.04 5.05 2.26 5.04 5.04 5.04 5.05-2.26 5.05-5.04m-5.04-2.55c-1.4 0-2.54 1.14-2.54 2.55s1.14 2.54 2.54 2.54 2.55-1.14 2.55-2.54-1.14-2.55-2.55-2.55"/></symbol><symbol id="s64" viewBox="0 0 64 64"><path d="M15.57 42.6a3.73 3.73 0 1 1-7.46 0 3.73 3.73 0 0 1 7.46 0m35.37 3.65h2.75v-2.74h-2.75zM63.98 9.72v44.99H-.01V9.72zM6.73 26.44h8.33v-2.75H6.73zM18.32 42.6c0-3.57-2.91-6.48-6.48-6.48s-6.48 2.91-6.48 6.48 2.91 6.48 6.48 6.48 6.48-2.91 6.48-6.48m3.33-24.44H6.73v2.75h14.92zm8.42 28.17h-2.75v2.75h2.75zm0-7.77h-2.75v2.75h2.75zm0-7.78h-2.75v2.75h2.75zm0-7.77h-2.75v2.75h2.75zm0-7.77h-2.75v2.75h2.75zm9.87 28.26h2.75v-2.75h-2.75zm16.5-5.48h-2.75v-2.75h2.75v-2.75h-2.75v2.75h-2.75v5.49h-5.5v-2.74h2.75v-2.75h2.75v-2.75h-2.75v2.75h-2.75v-2.75h-5.5v5.5h2.75v-2.75h2.75v2.75h-2.75v2.75h2.75v2.74h-2.75v2.74h-2.75V49h2.75v-2.74h2.75V49h2.75v-2.74h2.75V49h2.75v-2.74h2.75v-2.75h-2.75v-2.74h2.75zm1.45-16.3c0-3.58-2.91-6.48-6.48-6.48s-6.48 2.91-6.48 6.48 2.91 6.48 6.48 6.48 6.48-2.91 6.48-6.48M45.44 46.25h2.75v-2.74h-2.75zm5.97-28.26a3.73 3.73 0 1 0 0 7.46 3.73 3.73 0 0 0 0-7.46"/></symbol><use style="display: var(--s16, none)" href="#s16"/><use style="display: var(--s24, none)" href="#s24"/><use style="display: var(--s32, none)" href="#s32"/><use style="display: var(--s40, none)" href="#s40"/><use style="display: var(--s48, none)" href="#s48"/><use style="display: var(--s64, none)" href="#s64"/></symbol></defs><style>@media (max-width: 23.98px) {g{--s16:block;}}@media (min-width: 24px) and (max-width: 31.98px) {g{--s24:block;}}@media (min-width: 32px) and (max-width: 39.98px) {g{--s32:block;}}@media (min-width: 40px) and (max-width: 47.98px) {g{--s40:block;}}@media (min-width: 48px) and (max-width: 63.98px) {g{--s48:block;}}@media (min-width: 64px) {g{--s64:block;}}</style><g><use href="#i-bill-solid"/></g></svg>