<svg xmlns="http://www.w3.org/2000/svg"><defs><symbol id="i-bluetooth-solid"><symbol id="s16" viewBox="0 0 16 16"><path d="M6.58 16v-4.23l-1.81 1.62-1.68-1.86L6.57 8.4v-.86L3.04 4.39l1.67-1.87 1.86 1.66V0l7.58 4.95-3.34 3 3.33 2.97-7.57 5.07Zm2.51-6.23v1.54l.99-.66zm0-5.14v1.52l.98-.88z"/></symbol><symbol id="s24" viewBox="0 0 24 24"><path d="M10.86 24v-7.48l-3.51 3.5-2.12-2.13 5.63-5.61v-.66L5.15 5.98l2.11-2.14 3.59 3.55V0l9.18 7.37-4.58 4.56 4.57 4.51L10.85 24Zm3.01-9.41v3.04l1.68-1.38zm0-8.32v3l1.67-1.66z"/></symbol><symbol id="s32" viewBox="0 0 32 32"><path d="M14.76 32V21.47l-5.48 5.46-2.47-2.48 7.95-7.92v-1.2L6.7 7.36l2.46-2.49 5.6 5.53V0l11.93 9.58-6.35 6.33 6.34 6.26-11.92 9.82Zm3.5-13.22v5.8l3.2-2.64zm0-11.48v5.74l3.19-3.18z"/></symbol><symbol id="s40" viewBox="0 0 40 40"><path d="M18.65 39.94V26.37l-7.45 7.42-2.82-2.83 10.27-10.23v-1.75L8.25 8.7l2.81-2.84 7.6 7.5V-.06l14.68 11.79-8.13 8.1 8.12 8.02-14.67 12.09Zm4-17.02v8.55l4.72-3.89zm0-14.65v8.47l4.71-4.69z"/></symbol><symbol id="s48" viewBox="0 0 48 48"><path d="M22.55 47.99V31.38l-9.4 9.37-3.18-3.19 12.58-12.53v-2.29L9.8 10.15l3.16-3.2 9.58 9.47V-.01L39.98 14l-9.9 9.86 9.89 9.77-17.43 14.36Zm4.5-20.81v11.27l6.22-5.13zm0-17.81v11.17l6.2-6.18-6.2-4.98Z"/></symbol><symbol id="s64" viewBox="0 0 64 64"><path d="M30.6 63.97V40.75L16.5 54.8l-3.54-3.55 17.63-17.57v-3.69L12.73 12.34l3.52-3.56L30.6 22.95V-.03l22.66 18.2-13.69 13.64 13.67 13.5zm5.01-28.21v17.6l10.16-8.38-9.75-9.63zm0-7.86.4.39 9.75-9.71-10.15-8.15z"/></symbol><use style="display: var(--s16, none)" href="#s16"/><use style="display: var(--s24, none)" href="#s24"/><use style="display: var(--s32, none)" href="#s32"/><use style="display: var(--s40, none)" href="#s40"/><use style="display: var(--s48, none)" href="#s48"/><use style="display: var(--s64, none)" href="#s64"/></symbol></defs><style>@media (max-width: 23.98px) {g{--s16:block;}}@media (min-width: 24px) and (max-width: 31.98px) {g{--s24:block;}}@media (min-width: 32px) and (max-width: 39.98px) {g{--s32:block;}}@media (min-width: 40px) and (max-width: 47.98px) {g{--s40:block;}}@media (min-width: 48px) and (max-width: 63.98px) {g{--s48:block;}}@media (min-width: 64px) {g{--s64:block;}}</style><g><use href="#i-bluetooth-solid"/></g></svg>