<svg xmlns="http://www.w3.org/2000/svg"><defs><symbol id="i-blueprint"><symbol id="s16" viewBox="0 0 16 16"><path d="M4.15 2.63V.75C4.15.33 3.81 0 3.4 0c-.03 0-.05.01-.08.02-.03 0-.05-.02-.08-.02C1.45 0-.01 1.46-.01 3.25v9.5c0 1.79 1.46 3.25 3.25 3.25h12.75V2.63zM2.64 1.61v7.95c-.42.08-.81.24-1.16.46V3.25c0-.76.48-1.39 1.16-1.64M14.49 14.5H3.24c-.97 0-1.75-.79-1.75-1.75S2.28 11 3.24 11c.03 0 .05-.01.08-.02.03 0 .05.02.08.02.41 0 .75-.34.75-.75V4.13h10.34v10.36Zm-1.01-9.37H5.15v3.65h8.34V5.13Zm-1.5 2.15H6.64v-.65h5.34zm-.99 6.22V9.78H5.15v3.72zm-4.34-2.22h2.84V12H6.65zm5.33-1.5h1.5v3.73h-1.5z"/></symbol><symbol id="s24" viewBox="0 0 24 24"><path d="M5.82 4.03c-.09 0-.17.03-.25.05V.86c0-.48-.39-.87-.88-.87C2.09-.01-.02 2.1-.02 4.7v14.58c0 2.6 2.11 4.71 4.71 4.71h19.29V4.03zm-2-2.15v12.77c-.79.15-1.49.5-2.09.99V4.7c0-1.33.88-2.44 2.09-2.81Zm18.41 20.36H4.69c-1.63 0-2.96-1.33-2.96-2.96s1.33-2.96 2.96-2.96c.48 0 .88-.39.88-.87V5.73c.08.03.16.05.25.05h16.4v16.46ZM20.72 7.28H7.08v6.39h13.65V7.28Zm-1.75 4.64H8.82V9.03h10.15zm-2.88 3.26H7.08v5.56h9.01zm-1.75 3.81H8.83v-2.06h5.51zm4.63-3.82h1.75v5.57h-1.75z"/></symbol><symbol id="s32" viewBox="0 0 32 32"><path d="M7.15 5.43V.98c0-.55-.45-1-1-1-3.41 0-6.18 2.77-6.18 6.17v19.66c0 3.4 2.77 6.17 6.17 6.17h25.83V5.43zm-2-3.32v17.61c-1.22.2-2.31.75-3.18 1.55V6.15c0-1.96 1.36-3.59 3.18-4.04m24.82 27.87H6.15c-2.3 0-4.17-1.87-4.17-4.17s1.87-4.17 4.17-4.17c.55 0 1-.45 1-1V7.43h22.83v22.55Zm-2-20.56H9.17v8.64h18.8zm-2 6.65h-14.8v-4.65h14.8zm-6.56 11.91v-7.91H9.17v7.91zm-8.24-5.91h6.24v3.91h-6.24zm10.24 5.91h6.56v-7.91h-6.56zm2-5.91h2.56v3.91h-2.56z"/></symbol><symbol id="s40" viewBox="0 0 40 40"><path d="M8.77 6.86V1.12C8.77.5 8.26 0 7.64 0 3.43 0 0 3.42 0 7.63v24.73c0 4.21 3.43 7.63 7.64 7.63H40V6.86zM6.52 2.37v22.45a7.56 7.56 0 0 0-4.26 2.14V7.63c0-2.58 1.83-4.74 4.26-5.26m31.23 35.38H7.64c-2.97 0-5.39-2.41-5.39-5.38s2.42-5.38 5.39-5.38c.62 0 1.13-.5 1.13-1.13V9.11h28.98zm-2.51-26.14H11.27v10.88h23.97zm-2.25 8.63H13.52v-6.38h19.47zm-7.64 15V24.99H11.27v10.25zm-11.83-8h9.57v5.75h-9.57zm14.33 8h7.39V24.99h-7.39zm2.25-8h2.89v5.75H30.1z"/></symbol><symbol id="s48" viewBox="0 0 48 48"><path d="M10.34 8.27V1.25c0-.52-.32-.96-.77-1.15-.15-.06-.31-.1-.49-.1C4.07 0-.01 4.08-.01 9.09V38.9c0 5.01 4.08 9.09 9.1 9.09h38.9V8.27zm-7.85.82c0-3.21 2.31-5.89 5.35-6.47v27.29a9.1 9.1 0 0 0-5.35 2.75zm43 36.41H9.08c-3.64 0-6.6-2.96-6.6-6.59s2.96-6.59 6.6-6.59c.17 0 .34-.04.49-.1.45-.19.77-.63.77-1.15V10.76h35.15v34.73Zm-3.01-31.74H13.35V26.9h29.13zm-2.5 10.64H15.85v-8.14h24.13zM30.3 42.51v-12.6H13.35v12.6h16.96Zm-14.45-10.1H27.8v7.6H15.85zm17.45 10.1h9.19v-12.6H33.3zm2.5-10.1h4.19v7.6H35.8z"/></symbol><symbol id="s64" viewBox="0 0 64 64"><path d="M63.99 11.12H13.31V1.36c0-.76-.62-1.37-1.38-1.37C5.34-.01-.01 5.34-.01 11.92v40.13c0 6.58 5.36 11.93 11.94 11.93h52.06zM10.56 2.85V40.2c-3.13.36-5.9 1.93-7.82 4.24V11.92c0-4.6 3.4-8.41 7.82-9.07m1.37 58.39c-5.07 0-9.19-4.12-9.19-9.19s4.12-9.19 9.19-9.19c.76 0 1.38-.62 1.38-1.37V13.87h47.93v47.37zm45.31-43.36H17.33v18.11h39.91zm-2.75 15.35H20.08V20.62h34.41zm-12.68 6.76H17.33v17.27h24.48zM20.08 54.51V42.74h18.98v11.77zm37.16-14.52H45.8v17.27h11.44zm-8.69 14.52V42.74h5.94v11.77z"/></symbol><use style="display: var(--s16, none)" href="#s16"/><use style="display: var(--s24, none)" href="#s24"/><use style="display: var(--s32, none)" href="#s32"/><use style="display: var(--s40, none)" href="#s40"/><use style="display: var(--s48, none)" href="#s48"/><use style="display: var(--s64, none)" href="#s64"/></symbol></defs><style>@media (max-width: 23.98px) {g{--s16:block;}}@media (min-width: 24px) and (max-width: 31.98px) {g{--s24:block;}}@media (min-width: 32px) and (max-width: 39.98px) {g{--s32:block;}}@media (min-width: 40px) and (max-width: 47.98px) {g{--s40:block;}}@media (min-width: 48px) and (max-width: 63.98px) {g{--s48:block;}}@media (min-width: 64px) {g{--s64:block;}}</style><g><use href="#i-blueprint"/></g></svg>