<svg xmlns="http://www.w3.org/2000/svg"><defs><symbol id="i-bookmark-solid"><symbol id="s16" viewBox="0 0 16 16"><path d="M12.52 0H3.37v.04C2.02.21.97 1.35.97 2.75v2.99h2.42l.02 10.25 5.88-4.57L15.17 16V2.64c0-1.46-1.18-2.64-2.64-2.64Zm.14 10.88L9.28 8.25l-3.39 2.64-.02-7.51V2.5h6.64c.08 0 .14.06.14.14v8.24Z"/></symbol><symbol id="s24" viewBox="0 0 24 24"><path d="M18.94-.03H5.32a3.75 3.75 0 0 0-3.69 3.74v4.21h3.7l.03 16.04 8.6-6.68 8.6 6.68V3.59c0-2-1.63-3.62-3.63-3.62Zm.63 17.87-5.59-4.35-5.62 4.36-.03-12.63V2.96h10.61c.35 0 .63.28.63.63z"/></symbol><symbol id="s32" viewBox="0 0 32 32"><path d="M25.27-.01H7.15c-2.63 0-4.76 2.13-4.76 4.75v5.39h4.95l.05 21.84 11.24-8.74 11.24 8.75V4.59a4.6 4.6 0 0 0-4.6-4.6M5.89 6.63V4.74c0-.69.56-1.25 1.25-1.25h.19v3.14zm20.48 18.19-7.73-6.03-7.76 6.04-.04-18.02V3.49h14.43c.61 0 1.1.49 1.1 1.1v20.24Z"/></symbol><symbol id="s40" viewBox="0 0 40 40"><path d="M31.62-.05H8.89c-3.17 0-5.75 2.58-5.75 5.76v6.58h6.2l.06 27.66 13.9-10.81 13.89 10.82V5.53c0-3.08-2.5-5.58-5.57-5.58M9.33 8.28H7.14V5.7c0-.97.79-1.75 1.75-1.75h.44v4.32Zm23.86 23.48-9.89-7.7-9.92 7.71-.05-23.5V3.96h18.28c.87 0 1.57.7 1.57 1.57v26.24Z"/></symbol><symbol id="s48" viewBox="0 0 48 48"><path d="M37.95-.02h-27.3C6.93-.02 3.9 3.01 3.9 6.74v7.75h7.45l.07 33.48L27.96 35.1l16.53 12.88V6.52c0-3.6-2.93-6.54-6.54-6.54M8.4 9.98V6.73c0-1.24 1.01-2.25 2.25-2.25h.68v5.5zm31.59 28.79L27.96 29.4 15.9 38.78 15.84 9.8V4.49h22.11c1.12 0 2.04.91 2.04 2.04v32.25Z"/></symbol><symbol id="s64" viewBox="0 0 64 64"><path d="M50.75.01H14.01C9.33 0 5.52 3.82 5.52 8.51v9.94h10.01l.09 45.54L37.33 47.1 59.02 64V8.28C59.01 3.72 55.31.01 50.75.01M15.51 13.45h-5V8.51c0-1.93 1.57-3.5 3.5-3.5h1.48l.02 8.29zm38.5 40.32-16.69-13-16.73 13.02-.08-40.48v-8.3h30.24c1.8 0 3.26 1.46 3.26 3.26z"/></symbol><use style="display: var(--s16, none)" href="#s16"/><use style="display: var(--s24, none)" href="#s24"/><use style="display: var(--s32, none)" href="#s32"/><use style="display: var(--s40, none)" href="#s40"/><use style="display: var(--s48, none)" href="#s48"/><use style="display: var(--s64, none)" href="#s64"/></symbol></defs><style>@media (max-width: 23.98px) {g{--s16:block;}}@media (min-width: 24px) and (max-width: 31.98px) {g{--s24:block;}}@media (min-width: 32px) and (max-width: 39.98px) {g{--s32:block;}}@media (min-width: 40px) and (max-width: 47.98px) {g{--s40:block;}}@media (min-width: 48px) and (max-width: 63.98px) {g{--s48:block;}}@media (min-width: 64px) {g{--s64:block;}}</style><g><use href="#i-bookmark-solid"/></g></svg>