<svg xmlns="http://www.w3.org/2000/svg"><defs><symbol id="i-bug"><symbol id="s16" viewBox="0 0 16 16"><path d="M14.17 8.52h-.91V7.28a2.76 2.76 0 0 0 2.25-2.71V3.11c0-.67.02-1.79-.69-2.5-.39-.4-.92-.6-1.57-.6-.41 0-.75.34-.75.75s.34.75.75.75c.36 0 .47.11.51.15.27.27.26 1 .26 1.43v1.47c0 .6-.44 1.08-1 1.21a3.7 3.7 0 0 0-2.33-2.19c.11-.05.21-.11.29-.21l.09-.11c.77-.94.63-2.33-.31-3.1a.76.76 0 0 0-1.06.1c-.26.32-.22.79.1 1.06.3.25.34.69.1.99l-.09.11-.03.06c-.43-.55-1.07-.91-1.79-.91s-1.34.35-1.78.9c-.01-.01-.01-.03-.02-.04l-.09-.11c-.25-.3-.2-.74.1-.99.32-.26.37-.74.1-1.06a.75.75 0 0 0-1.06-.1c-.94.77-1.08 2.16-.3 3.1l.09.11c.08.1.19.17.31.21a3.68 3.68 0 0 0-2.32 2.19c-.57-.12-1.01-.6-1.01-1.21V3.1c0-.43-.01-1.16.26-1.43.04-.04.15-.15.51-.15.41 0 .75-.34.75-.75S3.17.02 2.76.02c-.66 0-1.18.2-1.58.6-.71.71-.69 1.83-.69 2.5v1.46c0 1.35.98 2.47 2.26 2.71v1.23h-.92c-1 0-1.83.82-1.83 1.83v.9c0 .41.34.75.75.75s.75-.34.75-.75v-.9c0-.18.15-.33.33-.33h.92v.73c0 .65.13 1.26.35 1.84-1.2.29-2.1 1.36-2.1 2.65 0 .41.34.75.75.75s.75-.34.75-.75c0-.68.55-1.23 1.23-1.23h.17c.96 1.21 2.43 2 4.09 2s3.13-.79 4.09-2h.17c.68 0 1.23.55 1.23 1.23 0 .41.34.75.75.75s.75-.34.75-.75c0-1.28-.9-2.36-2.09-2.65.22-.57.35-1.19.35-1.84v-.73h.91c.18 0 .33.15.33.33v.9c0 .41.34.75.75.75s.75-.34.75-.75v-.9c0-1.01-.82-1.83-1.83-1.83ZM8.6 3.4H7.37c.31-.39.91-.39 1.23 0M6.39 4.91h3.24c.89.03 1.65.59 1.97 1.37H9.84c-.73 0-1.37.41-1.84 1-.47-.59-1.11-1-1.83-1H4.42c.32-.79 1.08-1.35 1.97-1.37m-2.14 5.84V7.78h1.91c.47 0 1.03.8 1.08 1.49v.1l-.02 5.04c-1.69-.36-2.97-1.87-2.97-3.66m4.52 3.67-.02-5.05v-.1c.05-.69.62-1.49 1.08-1.49h1.93v2.97c0 1.8-1.28 3.31-2.99 3.67"/></symbol><symbol id="s24" viewBox="0 0 24 24"><path d="M21.45 13.03h-1.69v-2.49c.01-.23 0-.45-.02-.67 1.85-.33 3.27-1.94 3.27-3.88v-1.5c.01-1.04.03-2.62-.98-3.64-.55-.55-1.29-.83-2.22-.83-.48 0-.88.39-.88.87s.39.87.88.87c.45 0 .77.1.97.31.49.5.48 1.64.48 2.39v1.52c0 1.13-.86 2.05-1.96 2.18a6.14 6.14 0 0 0-3.73-3.41s.01 0 .02-.01l.14-.17c.53-.64.77-1.45.69-2.27A3.07 3.07 0 0 0 15.3.21a.874.874 0 1 0-1.11 1.35c.28.23.45.55.49.91.02.21-.02.41-.09.6-.62-.85-1.55-1.41-2.62-1.41s-1.98.54-2.6 1.37a1.33 1.33 0 0 1 .4-1.5A.874.874 0 1 0 8.66.18a3.096 3.096 0 0 0-.43 4.36l.14.17s.04.03.06.04c-1.68.55-3.04 1.8-3.72 3.4a2.21 2.21 0 0 1-1.93-2.18V4.45c0-.75-.02-1.89.47-2.39.21-.21.53-.31.97-.31.48 0 .88-.39.88-.87S4.69.03 4.21.03c-.93 0-1.67.28-2.22.83C.98 1.88 1 3.45 1.01 4.5V6c0 1.93 1.4 3.54 3.24 3.88-.02.22-.04.44-.04.66v2.49H2.52c-1.4 0-2.53 1.13-2.53 2.53v1.38c0 .48.39.87.88.87s.88-.39.88-.87v-1.38c0-.43.35-.78.78-.78h1.66v1.58c0 1.08.22 2.11.63 3.04-1.61.49-2.79 1.96-2.79 3.72 0 .48.39.87.88.87s.88-.39.88-.87c0-1.13.87-2.05 1.98-2.14 1.4 1.81 3.59 2.99 6.05 2.99h.3c2.47 0 4.66-1.18 6.05-2.99 1.13.07 2.03 1 2.03 2.15 0 .48.39.87.88.87s.88-.39.88-.87c0-1.78-1.21-3.27-2.84-3.74.4-.93.63-1.95.63-3.02v-1.59h1.71c.43 0 .78.35.78.78v1.38c0 .48.39.87.88.87s.88-.39.88-.87v-1.38a2.54 2.54 0 0 0-2.53-2.53Zm-9.5-9.61c.62 0 1.16.42 1.42 1.04h-2.85c.27-.62.81-1.04 1.42-1.04Zm-1.76 2.81h3.61c1.76.04 3.26 1.12 3.9 2.65h-1.47c-1.76 0-3.32.89-4.24 2.24a5.15 5.15 0 0 0-4.25-2.24H6.3a4.33 4.33 0 0 1 3.9-2.65ZM5.92 16.37l.03-5.74h1.77c1.81 0 3.29 1.44 3.37 3.23 0 .05-.02.1-.02.15l-.03 8.17c-2.89-.37-5.13-2.83-5.13-5.81Zm6.97 5.8-.03-8.16c0-.05-.01-.1-.02-.15a3.38 3.38 0 0 1 3.37-3.23h1.8l-.03 5.73c0 2.97-2.23 5.42-5.1 5.81Z"/></symbol><symbol id="s32" viewBox="0 0 32 32"><path d="M28.79 17.41h-2.62l.02-3.48c0-.37-.03-.73-.08-1.08 2.47-.36 4.38-2.46 4.38-5.03v-2c.01-1.36.03-3.43-1.26-4.73-.7-.7-1.65-1.06-2.84-1.06-.55 0-1 .45-1 1s.45 1 1 1c.64 0 1.11.15 1.42.47.71.71.69 2.27.68 3.31v2.02c0 1.64-1.29 2.97-2.9 3.08a8 8 0 0 0-5.28-4.63c.12-.06.24-.14.33-.25l.18-.22a3.967 3.967 0 0 0-.55-5.58 1 1 0 0 0-1.41.14.99.99 0 0 0 .14 1.4c.76.62.93 1.7.44 2.52-.78-1.21-2.06-2.01-3.5-2.01s-2.72.8-3.5 2c-.19-.35-.28-.74-.24-1.14.05-.52.3-1 .71-1.33a.99.99 0 0 0 .14-1.4 1 1 0 0 0-1.41-.14 3.9 3.9 0 0 0-1.43 2.68c-.1 1.05.21 2.09.88 2.9l.18.22c.08.1.19.17.3.23a7.97 7.97 0 0 0-5.19 4.6c-1.6-.13-2.86-1.45-2.86-3.08V5.8c-.01-1.03-.03-2.59.68-3.31.31-.31.77-.47 1.42-.47.55 0 1-.45 1-1s-.45-.99-1-.99c-1.19 0-2.14.36-2.84 1.06-1.29 1.3-1.27 3.36-1.26 4.73v2c0 2.55 1.89 4.65 4.34 5.02-.05.35-.08.71-.08 1.08l-.02 3.49H3.2a3.21 3.21 0 0 0-3.2 3.2v1.84c0 .55.45 1 1 1s1-.45 1-1v-1.84c0-.66.54-1.21 1.21-1.21h2.54v2.28c-.01 1.57.36 3.07 1 4.42-2.23.52-3.91 2.51-3.91 4.9 0 .55.45 1 1 1s1-.45 1-1c0-1.67 1.36-3.04 3.04-3.04 1.84 2.42 4.69 4.01 7.83 4.01h.41c3.15 0 6.01-1.59 7.87-4.01h.02c1.68 0 3.05 1.37 3.05 3.04 0 .55.45 1 1 1s1-.45 1-1c0-2.39-1.69-4.4-3.93-4.91.64-1.34 1.02-2.84 1.02-4.4v-2.28h2.65c.67 0 1.21.54 1.21 1.21v1.84c0 .55.45 1 1 1s1-.45 1-1v-1.84c0-1.77-1.44-3.2-3.21-3.2ZM15.93 4.28c.97 0 1.8.72 2.14 1.73h-4.28c.34-1.01 1.17-1.73 2.14-1.73m-2.48 3.73h5.06a5.94 5.94 0 0 1 5.31 3.89H21.7c-2.42 0-4.54 1.3-5.71 3.23a6.68 6.68 0 0 0-5.71-3.23H8.14a5.94 5.94 0 0 1 5.31-3.89M7.74 21.69l.04-7.76v-.03h2.51c2.58 0 4.67 2.09 4.67 4.66v11.32l.01.04c-3.99-.4-7.24-4.01-7.24-8.24Zm9.23 8.22.06-8.34v-3.01c0-2.57 2.1-4.66 4.67-4.66h2.48v.03l-.04 7.76c0 4.19-3.2 7.77-7.17 8.23Z"/></symbol><symbol id="s40" viewBox="0 0 40 40"><path d="M36.09 21.76h-3.43l.03-4.48c0-.49-.05-.97-.12-1.44 3.11-.38 5.53-3.01 5.53-6.2V7.13c.02-1.69.04-4.24-1.55-5.83C35.69.45 34.52.02 33.07.02c-.62 0-1.13.5-1.13 1.12s.51 1.12 1.13 1.12c.84 0 1.45.2 1.87.62.92.93.91 2.91.89 4.23v2.53c0 2.15-1.72 3.9-3.86 3.99a9.89 9.89 0 0 0-6.83-5.86c0-.04 0-.07-.01-.11.23-.06.45-.16.61-.35l.23-.28c.83-1 1.21-2.26 1.08-3.54A4.77 4.77 0 0 0 25.29.23c-.49-.39-1.2-.32-1.59.16-.4.48-.33 1.19.16 1.58a2.554 2.554 0 0 1 .48 3.47c-.95-1.57-2.57-2.61-4.41-2.61s-3.46 1.04-4.41 2.61c-.32-.49-.48-1.07-.42-1.66.07-.69.4-1.31.94-1.75.48-.39.55-1.1.16-1.58-.4-.48-1.11-.55-1.59-.16a4.8 4.8 0 0 0-1.76 3.26c-.13 1.29.26 2.54 1.08 3.54l.23.28c.15.18.35.28.56.34 0 .03 0 .06-.01.09-3.05.78-5.54 2.96-6.7 5.82-2.12-.12-3.81-1.85-3.81-3.99V7.1c-.02-1.31-.03-3.3.89-4.23.42-.42 1.03-.62 1.87-.62.62 0 1.13-.5 1.13-1.12S7.57.02 6.94.02C5.48.02 4.31.45 3.46 1.3 1.87 2.89 1.89 5.44 1.91 7.13v2.51c0 3.17 2.39 5.79 5.48 6.2-.07.47-.12.95-.12 1.44l-.03 4.49H3.9A3.88 3.88 0 0 0 0 25.64v2.3c0 .62.51 1.12 1.13 1.12s1.13-.5 1.13-1.12v-2.3c0-.9.74-1.63 1.65-1.63h3.33l-.02 2.97c0 2.07.5 4.05 1.37 5.81-2.85.57-5 3.07-5 6.06 0 .62.51 1.12 1.13 1.12s1.13-.5 1.13-1.12c0-2.17 1.78-3.93 3.96-3.93h.09c2.3 3.05 5.84 5.06 9.74 5.06h.51c3.92 0 7.48-2.01 9.79-5.06h.13c2.18 0 3.96 1.76 3.96 3.93 0 .62.51 1.12 1.13 1.12s1.13-.5 1.13-1.12c0-3.01-2.17-5.52-5.04-6.07.87-1.76 1.38-3.73 1.38-5.8l.02-2.98h3.44c.91 0 1.65.73 1.65 1.63v2.3c0 .62.51 1.12 1.13 1.12s1.13-.5 1.13-1.12v-2.3c0-2.14-1.75-3.88-3.91-3.88ZM19.92 5.07c1.33 0 2.46 1.01 2.86 2.41h-5.72c.4-1.4 1.53-2.41 2.86-2.41m-3.13 4.68h6.38c3.19.14 5.87 2.24 6.85 5.12h-2.84A8.3 8.3 0 0 0 20 19.02a8.28 8.28 0 0 0-7.18-4.15H9.94a7.6 7.6 0 0 1 6.85-5.12M9.48 26.99l.06-9.71v-.16h3.27c3.31 0 6.01 2.67 6.01 5.96v14.53l.01.08c-5.07-.47-9.35-5.26-9.35-10.69ZM21.1 37.67l.07-10.83v-3.77c0-3.29 2.69-5.96 6-5.96h3.24v.16l-.06 9.71c0 5.39-4.23 10.15-9.27 10.69Z"/></symbol><symbol id="s48" viewBox="0 0 48 48"><path d="M43.44 26.11h-4.43l.03-5.47c0-.62-.06-1.22-.15-1.81 3.71-.41 6.61-3.55 6.61-7.36V8.46c.02-2.01.05-5.04-1.82-6.92-1-1-2.37-1.51-4.08-1.51a1.25 1.25 0 0 0 0 2.5c1.03 0 1.79.25 2.3.77 1.13 1.14 1.11 3.55 1.1 5.14v3.03c0 2.66-2.13 4.82-4.78 4.89a11.7 11.7 0 0 0-8.18-7.06c-.01-.09-.02-.17-.04-.26.29-.05.56-.19.76-.43l.27-.33A5.66 5.66 0 0 0 32.3 4.1 5.66 5.66 0 0 0 30.24.25c-.53-.44-1.32-.36-1.76.17s-.36 1.32.17 1.76a3.2 3.2 0 0 1 1.16 2.16c.08.82-.16 1.62-.66 2.27-1.1-1.93-3.04-3.22-5.25-3.22s-4.15 1.29-5.25 3.21c-.99-1.36-.77-3.28.55-4.36.53-.44.61-1.22.17-1.76s-1.23-.61-1.76-.17c-2.44 1.99-2.79 5.59-.79 8.02l.27.33c.18.22.43.37.7.43l-.03.24c-3.67.92-6.65 3.56-8.02 7.01-2.62-.11-4.71-2.25-4.71-4.89V8.42c-.02-1.59-.04-4 1.09-5.14.52-.52 1.27-.77 2.3-.77.69 0 1.25-.56 1.25-1.25S9.1.03 8.41.03C6.7.03 5.33.54 4.33 1.54 2.46 3.42 2.49 6.45 2.51 8.46v3.01c0 3.79 2.87 6.92 6.55 7.35-.09.59-.16 1.19-.16 1.81l-.03 5.48h-4.3C2.06 26.11 0 28.16 0 30.67v2.76a1.25 1.25 0 0 0 2.5 0v-2.76c0-1.14.93-2.06 2.06-2.06h4.29l-.02 3.86c0 2.53.62 4.93 1.69 7.07-3.42.62-6.03 3.6-6.03 7.19a1.25 1.25 0 0 0 2.5 0c0-2.66 2.17-4.82 4.83-4.82h.17c2.72 3.65 6.93 6.04 11.56 6.04h.61c4.66 0 8.89-2.4 11.62-6.04h.23c2.66 0 4.83 2.16 4.83 4.82a1.25 1.25 0 0 0 2.5 0c0-3.61-2.63-6.6-6.07-7.2 1.08-2.13 1.7-4.53 1.7-7.05l.02-3.87h4.45c1.14 0 2.06.92 2.06 2.06v2.76a1.25 1.25 0 0 0 2.5 0v-2.76c0-2.51-2.05-4.56-4.57-4.56ZM23.9 5.9c1.67 0 3.08 1.3 3.55 3.09h-6.86c-.08 0-.15.01-.23.01.46-1.79 1.88-3.1 3.55-3.1Zm-3.74 5.61h7.63a9.18 9.18 0 0 1 8.31 6.34h-3.53c-3.69 0-6.91 2.05-8.57 5.08-1.66-3.02-4.88-5.08-8.57-5.08h-3.58a9.17 9.17 0 0 1 8.31-6.34m-8.82 20.97.07-11.84c0-.1.01-.2.02-.3h4c4.01 0 7.27 3.25 7.27 7.25l.02 17.56v.26c-6.15-.5-11.37-6.33-11.37-12.93ZM25.21 45.4v-.09l.09-13.2v-4.52c0-4 3.26-7.25 7.27-7.25h3.96c0 .1.01.19.01.29l-.07 11.84c0 6.55-5.15 12.33-11.26 12.93"/></symbol><symbol id="s64" viewBox="0 0 64 64"><path d="M58.22 34.82h-6.53l.04-8.8c0-.84-.09-1.66-.22-2.46 4.93-.4 8.81-4.52 8.81-9.54V11c.03-2.63.07-6.6-2.33-9.02C56.72.7 54.96.05 52.76.05c-.76 0-1.37.61-1.37 1.37s.62 1.37 1.37 1.37c1.46 0 2.53.37 3.28 1.12 1.59 1.61 1.56 4.89 1.54 7.06v3.04c0 3.75-3.04 6.79-6.77 6.83a15.3 15.3 0 0 0-10.4-9.54c.13-.08.26-.18.37-.3l.36-.44a7.27 7.27 0 0 0 1.63-5.36A7.28 7.28 0 0 0 40.13.26c-.59-.48-1.45-.4-1.94.19s-.4 1.45.19 1.93c.94.77 1.53 1.87 1.65 3.08.11 1.13-.21 2.22-.87 3.13-1.24-3.1-4.04-5.28-7.29-5.28s-6.05 2.17-7.29 5.28a4.5 4.5 0 0 1-.81-3.04c.12-1.21.7-2.31 1.65-3.08.59-.48.67-1.35.19-1.93a1.38 1.38 0 0 0-1.94-.19 7.26 7.26 0 0 0-2.64 4.94c-.19 1.94.39 3.85 1.63 5.36l.36.44c.09.11.19.19.3.26-4.74 1.33-8.54 4.9-10.2 9.48-3.7-.08-6.69-3.11-6.69-6.83v-3.04C6.4 8.79 6.37 5.51 7.97 3.9c.75-.75 1.82-1.12 3.28-1.12.76 0 1.37-.61 1.37-1.37S12 .04 11.24.04c-2.2 0-3.96.65-5.23 1.93-2.4 2.42-2.36 6.39-2.34 9.02v3.02c0 4.99 3.85 9.1 8.74 9.54-.13.8-.22 1.62-.22 2.46l-.04 8.81H5.81C2.6 34.82 0 37.42 0 40.61v3.68c0 .76.62 1.37 1.37 1.37s1.37-.61 1.37-1.37v-3.68c0-1.68 1.36-3.04 3.04-3.04h6.33l-.03 6.02c0 3.45.87 6.74 2.38 9.63-4.61.64-8.18 4.59-8.18 9.37 0 .76.62 1.37 1.37 1.37s1.37-.61 1.37-1.37c0-3.7 3.02-6.72 6.72-6.72h.38c3.57 4.87 9.13 8.09 15.27 8.09h.81c6.17 0 11.76-3.22 15.35-8.09h.41c3.71 0 6.72 3.01 6.72 6.72 0 .76.62 1.37 1.37 1.37s1.37-.61 1.37-1.37c0-4.79-3.58-8.74-8.2-9.37 1.52-2.88 2.39-6.17 2.39-9.62l.03-6.03h6.54c1.68 0 3.04 1.36 3.04 3.04v3.68c0 .76.62 1.37 1.37 1.37s1.37-.61 1.37-1.37v-3.68c0-3.19-2.6-5.78-5.79-5.78ZM31.86 6.07c2.48 0 4.56 2.02 5.09 4.73-.16 0-.32-.02-.48-.02h-9.04c-.19 0-.37.02-.56.03h-.12c.54-2.71 2.62-4.73 5.1-4.73Zm-4.98 7.48h10.15c5.46.24 10.01 3.99 11.46 9.04H43.4c-5.16 0-9.39 3.7-11.41 8.19-2.03-4.49-6.25-8.19-11.41-8.19h-5.15c1.45-5.05 6-8.79 11.46-9.04ZM14.85 43.6l.09-17.58c0-.23.02-.46.03-.69h5.61c5.71 0 9.97 5.9 9.97 11.17l.02 24.02v.62c-8.47-.51-15.72-8.49-15.72-17.56Zm18.47 17.54v-.41l.12-18.19v-6.03c0-5.27 4.26-11.17 9.97-11.17h5.55c.01.23.03.45.03.68L48.9 43.6c0 9-7.16 16.91-15.58 17.55Z"/></symbol><use style="display: var(--s16, none)" href="#s16"/><use style="display: var(--s24, none)" href="#s24"/><use style="display: var(--s32, none)" href="#s32"/><use style="display: var(--s40, none)" href="#s40"/><use style="display: var(--s48, none)" href="#s48"/><use style="display: var(--s64, none)" href="#s64"/></symbol></defs><style>@media (max-width: 23.98px) {g{--s16:block;}}@media (min-width: 24px) and (max-width: 31.98px) {g{--s24:block;}}@media (min-width: 32px) and (max-width: 39.98px) {g{--s32:block;}}@media (min-width: 40px) and (max-width: 47.98px) {g{--s40:block;}}@media (min-width: 48px) and (max-width: 63.98px) {g{--s48:block;}}@media (min-width: 64px) {g{--s64:block;}}</style><g><use href="#i-bug"/></g></svg>