<svg xmlns="http://www.w3.org/2000/svg"><defs><symbol id="i-burger-solid"><symbol id="s16" viewBox="0 0 16 16"><path d="M0-.02v16h16v-16zm14 12.75H2v-1.5h12zm0-4H2v-1.5h12zm0-4H2v-1.5h12z"/></symbol><symbol id="s24" viewBox="0 0 24 24"><path d="M0 0v24h24V0zm21 18.88H3v-1.75h18zm0-6H3v-1.75h18zm0-6H3V5.13h18z"/></symbol><symbol id="s32" viewBox="0 0 32 32"><path d="M0 0v32h32V0zm27 25H5v-2h22zm0-8H5v-2h22zm0-8H5V7h22z"/></symbol><symbol id="s40" viewBox="0 0 40 40"><path d="M0 0v40h40V0zm32 31.13H8v-2.25h24zm0-10H8v-2.25h24zm0-10H8V8.88h24z"/></symbol><symbol id="s48" viewBox="0 0 48 48"><path d="M0 0v48h48V0zm38 37.25H10v-2.5h28zm0-12H10v-2.5h28zm0-12H10v-2.5h28z"/></symbol><symbol id="s64" viewBox="0 0 64 64"><path d="M0 0v64h64V0zm54 49.38H10v-2.75h44zm0-16H10v-2.75h44zm0-16H10v-2.75h44z"/></symbol><use style="display: var(--s16, none)" href="#s16"/><use style="display: var(--s24, none)" href="#s24"/><use style="display: var(--s32, none)" href="#s32"/><use style="display: var(--s40, none)" href="#s40"/><use style="display: var(--s48, none)" href="#s48"/><use style="display: var(--s64, none)" href="#s64"/></symbol></defs><style>@media (max-width: 23.98px) {g{--s16:block;}}@media (min-width: 24px) and (max-width: 31.98px) {g{--s24:block;}}@media (min-width: 32px) and (max-width: 39.98px) {g{--s32:block;}}@media (min-width: 40px) and (max-width: 47.98px) {g{--s40:block;}}@media (min-width: 48px) and (max-width: 63.98px) {g{--s48:block;}}@media (min-width: 64px) {g{--s64:block;}}</style><g><use href="#i-burger-solid"/></g></svg>