<svg xmlns="http://www.w3.org/2000/svg"><defs><symbol id="i-camerapicture-solid"><symbol id="s16" viewBox="0 0 16 16"><path d="M14.3 2.73 12.08.39c-.24-.25-.57-.39-.91-.39H1.34v16h13.31V3.59c0-.32-.12-.63-.34-.86ZM12 11.18c0 .34-.27.61-.61.61H4.61c-.34 0-.61-.27-.61-.61V6.3h2.11l.41-1.51h2.95l.41 1.51h2.11v4.88ZM8.02 6.74c-1.1 0-2 .9-2 2s.9 2 2 2 2-.9 2-2-.9-2-2-2m0 3c-.55 0-1-.45-1-1s.45-1 1-1 1 .45 1 1-.45 1-1 1"/></symbol><symbol id="s24" viewBox="0 0 24 24"><path d="M21.28 4.03 17.94.51c-.31-.32-.73-.5-1.18-.5H2.26v24h19.46V5.14c0-.42-.16-.82-.45-1.12Zm-3.27 12.73c0 .5-.41.91-.91.91H6.92c-.5 0-.91-.41-.91-.91V9.44h3.16l.62-2.26h4.43l.62 2.26H18v7.32Zm-5.98-6.54c-1.58 0-2.87 1.29-2.87 2.87s1.29 2.87 2.87 2.87 2.87-1.29 2.87-2.87-1.29-2.87-2.87-2.87m0 4.5a1.62 1.62 0 1 1 0-3.24 1.62 1.62 0 0 1 0 3.24"/></symbol><symbol id="s32" viewBox="0 0 32 32"><path d="M16.04 13.55c-2.07 0-3.75 1.68-3.75 3.75s1.68 3.75 3.75 3.75 3.75-1.68 3.75-3.75-1.68-3.75-3.75-3.75m0 6.01c-1.24 0-2.25-1.01-2.25-2.25s1.01-2.25 2.25-2.25 2.25 1.01 2.25 2.25-1.01 2.25-2.25 2.25M28.2 5.24 23.88.7a2.24 2.24 0 0 0-1.63-.7H3.16v31.99h25.65V6.79c0-.58-.22-1.13-.62-1.55Zm-4.18 16.95c0 .67-.55 1.22-1.22 1.22H9.22c-.67 0-1.22-.55-1.22-1.22v-9.77h4.22l.83-3.01h5.92l.83 3.01h4.22z"/></symbol><symbol id="s40" viewBox="0 0 40 40"><path d="M20.04 16.76c-2.55 0-4.63 2.08-4.63 4.63s2.08 4.63 4.63 4.63 4.63-2.08 4.63-4.63-2.08-4.63-4.63-4.63m0 7.5a2.88 2.88 0 1 1 .001-5.761 2.88 2.88 0 0 1-.001 5.761M35.09 6.45 29.81.89c-.54-.57-1.3-.9-2.08-.9H4.09v40h31.79V8.43c0-.74-.28-1.44-.79-1.98m-5.07 21.04c0 .84-.68 1.52-1.52 1.52H11.53c-.84 0-1.52-.68-1.52-1.52V15.28h5.27l1.03-3.77h7.39l1.03 3.77H30v12.21Z"/></symbol><symbol id="s48" viewBox="0 0 48 48"><path d="M24.05 20.17c-3.03 0-5.5 2.47-5.5 5.5s2.47 5.5 5.5 5.5 5.5-2.47 5.5-5.5-2.47-5.5-5.5-5.5m0 9c-1.93 0-3.5-1.57-3.5-3.5s1.57-3.5 3.5-3.5 3.5 1.57 3.5 3.5-1.57 3.5-3.5 3.5M42.03 7.74l-6.34-6.68A3.38 3.38 0 0 0 33.26.02H5.01v48h37.95V10.05c0-.86-.33-1.68-.92-2.31Zm-6.01 25.25c0 1.01-.82 1.83-1.83 1.83H13.84c-1.01 0-1.82-.82-1.82-1.83V18.34h6.33l1.24-4.52h8.87l1.24 4.52h6.33v14.65Z"/></symbol><symbol id="s64" viewBox="0 0 64 64"><path d="M32.07 26.97c-4 0-7.25 3.25-7.25 7.25s3.25 7.25 7.25 7.25 7.25-3.25 7.25-7.25-3.25-7.25-7.25-7.25m0 11.99c-2.62 0-4.75-2.13-4.75-4.75s2.13-4.75 4.75-4.75 4.75 2.13 4.75 4.75-2.13 4.75-4.75 4.75m23.75-28.77-8.44-8.9A4.22 4.22 0 0 0 44.35 0H6.98v64h49.99V13.06c0-1.07-.41-2.09-1.15-2.87m-7.8 33.79c0 1.34-1.09 2.43-2.43 2.43H18.47c-1.34 0-2.43-1.09-2.43-2.43V24.45h8.43l1.65-6.02h11.82l1.65 6.02h8.43z"/></symbol><use style="display: var(--s16, none)" href="#s16"/><use style="display: var(--s24, none)" href="#s24"/><use style="display: var(--s32, none)" href="#s32"/><use style="display: var(--s40, none)" href="#s40"/><use style="display: var(--s48, none)" href="#s48"/><use style="display: var(--s64, none)" href="#s64"/></symbol></defs><style>@media (max-width: 23.98px) {g{--s16:block;}}@media (min-width: 24px) and (max-width: 31.98px) {g{--s24:block;}}@media (min-width: 32px) and (max-width: 39.98px) {g{--s32:block;}}@media (min-width: 40px) and (max-width: 47.98px) {g{--s40:block;}}@media (min-width: 48px) and (max-width: 63.98px) {g{--s48:block;}}@media (min-width: 64px) {g{--s64:block;}}</style><g><use href="#i-camerapicture-solid"/></g></svg>