<svg xmlns="http://www.w3.org/2000/svg"><defs><symbol id="i-camera"><symbol id="s16" viewBox="0 0 16 16"><path d="M12.21 2.47 11.53 0H4.47l-.68 2.48H0v11.77C0 15.22.79 16 1.75 16h12.5c.96 0 1.75-.79 1.75-1.75V2.47zM4.94 3.98l.68-2.48h4.77l.68 2.48h3.43v8.01h-13V3.98h3.43Zm9.31 10.51H1.75c-.14 0-.25-.11-.25-.25v-.75h13v.75c0 .14-.11.25-.25.25M8 11.35a3.76 3.76 0 0 0 0-7.52 3.76 3.76 0 0 0 0 7.52m0-6.01c1.24 0 2.25 1.01 2.25 2.25S9.24 9.84 8 9.84 5.75 8.83 5.75 7.59 6.76 5.34 8 5.34m-.8 1.15c0-.41.34-.75.75-.75.69 0 1.33.37 1.69.96.21.36.1.82-.26 1.03-.12.07-.25.11-.38.11-.25 0-.5-.13-.64-.36a.48.48 0 0 0-.4-.23c-.41 0-.75-.34-.75-.75Zm6.54-.29h-1.5V4.7h1.5z"/></symbol><symbol id="s24" viewBox="0 0 24 24"><path d="M18.25 3.8 17.21 0H6.8L5.76 3.8H0v17.79C0 22.92 1.08 24 2.41 24h19.18c1.33 0 2.41-1.08 2.41-2.41V3.8zM7.09 5.55l1.04-3.8h7.75l1.04 3.8h5.33v13.21H1.75V5.55h5.33Zm14.5 16.7H2.41c-.36 0-.66-.3-.66-.66v-1.08h20.5v1.08c0 .36-.3.66-.66.66M12 16.84c3.02 0 5.48-2.46 5.48-5.48S15.02 5.88 12 5.88s-5.48 2.46-5.48 5.48 2.46 5.48 5.48 5.48m0-9.21a3.73 3.73 0 1 1 0 7.46 3.73 3.73 0 0 1 0-7.46m-.95 2.04c0-.48.39-.87.88-.87.96 0 1.86.51 2.35 1.33a.87.87 0 0 1-.75 1.32c-.3 0-.59-.15-.75-.42-.18-.3-.5-.48-.85-.48a.88.88 0 0 1-.88-.87Zm9.49-.71h-1.75V7.21h1.75z"/></symbol><symbol id="s32" viewBox="0 0 32 32"><path d="M24.3 5.12 22.89 0H9.12L7.71 5.12H0v23.81C0 30.62 1.38 32 3.07 32h25.86c1.69 0 3.07-1.38 3.07-3.07V5.12h-7.71Zm-15.06 2L10.65 2h10.72l1.4 5.12h7.24v18.87h-28V7.12zM28.94 30H3.08c-.59 0-1.07-.48-1.07-1.07v-.94h28v.94c0 .59-.48 1.07-1.07 1.07m-12.93-6.37c4.41 0 8-3.59 8-8s-3.59-8-8-8-8 3.59-8 8 3.59 8 8 8m0-14c3.31 0 6 2.69 6 6s-2.69 6-6 6-6-2.69-6-6 2.69-6 6-6m-1.17 2.63c0-.55.45-1 1-1 1.8 0 3.44.92 4.37 2.47a.995.995 0 0 1-.85 1.51c-.34 0-.67-.17-.86-.48-.57-.94-1.56-1.5-2.65-1.5-.55 0-1-.45-1-1Zm13.42-.6h-2.5v-2.5h2.5z"/></symbol><symbol id="s40" viewBox="0 0 40 40"><path d="M30.34 6.45 28.57 0H11.45L9.68 6.44H.01v29.83A3.73 3.73 0 0 0 3.74 40h32.54a3.73 3.73 0 0 0 3.73-3.73V6.45zM11.4 8.7l1.77-6.44h13.69l1.77 6.44h9.14v24.51H2.26V8.7zm24.88 29.06H3.74c-.81 0-1.48-.66-1.48-1.48v-.82h35.5v.82c0 .81-.66 1.48-1.48 1.48m-16.27-8.28c5.48 0 9.94-4.46 9.94-9.93s-4.46-9.93-9.94-9.93-9.94 4.46-9.94 9.93 4.46 9.93 9.94 9.93m0-17.62c4.24 0 7.68 3.45 7.68 7.68s-3.45 7.68-7.68 7.68-7.68-3.45-7.68-7.68 3.45-7.68 7.68-7.68m-1.34 3.44c0-.62.5-1.13 1.13-1.13 2.19 0 4.25 1.17 5.38 3.04.32.53.15 1.22-.38 1.55a1.13 1.13 0 0 1-1.55-.39 4.01 4.01 0 0 0-3.45-1.95c-.62 0-1.13-.5-1.13-1.13Zm16.76-.75h-3.15V11.4h3.15z"/></symbol><symbol id="s48" viewBox="0 0 48 48"><path d="M36.38 7.77 34.25 0H13.78l-2.13 7.77H.01v35.84C.01 46.03 1.98 48 4.4 48h39.22c2.42 0 4.39-1.97 4.39-4.39V7.77zm-22.83 2.51 2.13-7.77h16.66l2.13 7.77h11.04v29.75h-43V10.28zm30.08 35.23H4.4c-1.04 0-1.89-.85-1.89-1.89v-1.09h43v1.09c0 1.04-.85 1.89-1.89 1.89ZM24.01 35.32c6.55 0 11.87-5.32 11.87-11.87s-5.33-11.87-11.87-11.87-11.87 5.32-11.87 11.87 5.33 11.87 11.87 11.87m0-21.24c5.17 0 9.37 4.2 9.37 9.37s-4.2 9.37-9.37 9.37-9.37-4.2-9.37-9.37 4.2-9.37 9.37-9.37m-1.51 4.25c0-.69.56-1.25 1.25-1.25a7.4 7.4 0 0 1 6.39 3.61c.36.59.17 1.36-.43 1.72a1.24 1.24 0 0 1-1.71-.43 4.92 4.92 0 0 0-4.25-2.4c-.69 0-1.25-.56-1.25-1.25m20.1-.91h-3.79v-3.79h3.79z"/></symbol><symbol id="s64" viewBox="0 0 64 64"><path d="M48.44 10.48 45.57.02h-27.1L15.6 10.48H.02v47.95c0 3.09 2.51 5.6 5.6 5.6h52.8c3.09 0 5.6-2.51 5.6-5.6V10.48zM17.7 13.23l2.87-10.46h22.9l2.87 10.46h14.93v41.32H2.77V13.23zm40.72 48.05H5.62c-1.57 0-2.85-1.28-2.85-2.85v-1.12h58.5v1.12c0 1.57-1.28 2.85-2.85 2.85m-26.4-14.34c8.64 0 15.67-7.03 15.67-15.67S40.66 15.6 32.02 15.6s-15.67 7.03-15.67 15.67 7.03 15.67 15.67 15.67m0-28.58c7.12 0 12.92 5.8 12.92 12.92S39.14 44.2 32.02 44.2 19.1 38.4 19.1 31.28s5.8-12.92 12.92-12.92m-1.72 6.03c0-.76.62-1.37 1.37-1.37a9.79 9.79 0 0 1 8.34 4.72 1.383 1.383 0 0 1-1.18 2.09c-.47 0-.92-.24-1.18-.67-1.28-2.12-3.51-3.39-5.99-3.39-.76 0-1.37-.61-1.37-1.37Zm27.56-1.23h-5.11v-5.1h5.11z"/></symbol><use style="display: var(--s16, none)" href="#s16"/><use style="display: var(--s24, none)" href="#s24"/><use style="display: var(--s32, none)" href="#s32"/><use style="display: var(--s40, none)" href="#s40"/><use style="display: var(--s48, none)" href="#s48"/><use style="display: var(--s64, none)" href="#s64"/></symbol></defs><style>@media (max-width: 23.98px) {g{--s16:block;}}@media (min-width: 24px) and (max-width: 31.98px) {g{--s24:block;}}@media (min-width: 32px) and (max-width: 39.98px) {g{--s32:block;}}@media (min-width: 40px) and (max-width: 47.98px) {g{--s40:block;}}@media (min-width: 48px) and (max-width: 63.98px) {g{--s48:block;}}@media (min-width: 64px) {g{--s64:block;}}</style><g><use href="#i-camera"/></g></svg>