<svg xmlns="http://www.w3.org/2000/svg"><defs><symbol id="i-camerapicture"><symbol id="s16" viewBox="0 0 16 16"><path d="M14.32 2.74 12.09.39c-.24-.25-.57-.39-.91-.39H1.33v16h13.33V3.6c0-.32-.12-.63-.34-.86M13.16 14.5H2.83V1.51h8.24l2.09 2.2v10.8ZM9.02 8.72c0 .55-.45 1-1 1s-1-.45-1-1 .45-1 1-1 1 .45 1 1m.47-3.95H6.53l-.41 1.51H4.01v4.89c0 .34.27.61.61.61h6.79c.34 0 .61-.27.61-.61V6.28H9.91L9.5 4.77Zm-1.47 5.96c-1.1 0-2-.9-2-2s.9-2 2-2 2 .9 2 2-.9 2-2 2"/></symbol><symbol id="s24" viewBox="0 0 24 24"><path d="M13.65 13.08a1.62 1.62 0 1 1-3.24 0 1.62 1.62 0 0 1 3.24 0m1.2-3.66h3.16v7.32c0 .5-.41.91-.91.91H6.93c-.5 0-.91-.41-.91-.91V9.42h3.16l.62-2.26h4.43zm.05 3.66c0-1.58-1.29-2.87-2.87-2.87s-2.87 1.29-2.87 2.87 1.29 2.87 2.87 2.87 2.87-1.29 2.87-2.87m6.82-7.95v18.86H2.26V0h14.5c.44 0 .87.18 1.18.51l3.34 3.51c.29.3.45.7.45 1.12Zm-1.75 0-3.3-3.43-12.66.04v20.5h15.96z"/></symbol><symbol id="s32" viewBox="0 0 32 32"><path d="M18.97 9.41h-5.92l-.83 3.01H8v9.77c0 .67.55 1.22 1.22 1.22H22.8c.67 0 1.22-.55 1.22-1.22v-9.77H19.8zm-2.93 11.65c-2.07 0-3.75-1.68-3.75-3.75s1.68-3.75 3.75-3.75 3.75 1.68 3.75 3.75-1.68 3.75-3.75 3.75m2.25-3.75c0 1.24-1.01 2.25-2.25 2.25s-2.25-1.01-2.25-2.25 1.01-2.25 2.25-2.25 2.25 1.01 2.25 2.25M28.2 5.24 23.88.7a2.24 2.24 0 0 0-1.63-.7H3.17v32h25.65V6.79c0-.58-.22-1.13-.62-1.55M26.81 30H5.17V2h17.08c.07 0 .13.03.18.08l4.31 4.54s.07.11.07.17v23.2Z"/></symbol><symbol id="s40" viewBox="0 0 40 40"><path d="M23.71 11.51h-7.39l-1.03 3.77h-5.27v12.21c0 .84.68 1.52 1.52 1.52H28.5c.84 0 1.52-.68 1.52-1.52V15.28h-5.27l-1.03-3.77Zm-3.67 14.5c-2.55 0-4.63-2.08-4.63-4.63s2.08-4.63 4.63-4.63 4.63 2.08 4.63 4.63-2.08 4.63-4.63 4.63m2.88-4.62a2.88 2.88 0 1 1-5.761-.001 2.88 2.88 0 0 1 5.761.001M35.09 6.45 29.81.89C29.27.32 28.51 0 27.73 0H4.09v40h31.79V8.43c0-.74-.28-1.44-.79-1.98m-1.46 31.29H6.34V2.24h21.39c.17 0 .34.07.45.19l5.28 5.56c.11.12.17.27.17.43v29.31Z"/></symbol><symbol id="s48" viewBox="0 0 48 48"><path d="M27.55 25.65c0 1.93-1.57 3.5-3.5 3.5s-3.5-1.57-3.5-3.5 1.57-3.5 3.5-3.5 3.5 1.57 3.5 3.5m2.14-7.33h6.33v14.65c0 1.01-.82 1.82-1.83 1.82H13.84c-1.01 0-1.83-.82-1.83-1.82V18.32h6.33l1.24-4.52h8.87zm-.14 7.33c0-3.03-2.47-5.5-5.5-5.5s-5.5 2.47-5.5 5.5 2.47 5.5 5.5 5.5 5.5-2.47 5.5-5.5m13.41-15.63V48H5.01V0h28.26c.91 0 1.8.38 2.43 1.04l6.34 6.67c.59.63.92 1.45.92 2.31m-2.5 0c0-.22-.08-.43-.23-.59l-6.34-6.67a.84.84 0 0 0-.62-.26H7.51v43h32.95z"/></symbol><symbol id="s64" viewBox="0 0 64 64"><path d="M36.84 34.2c0 2.62-2.13 4.76-4.76 4.76s-4.76-2.13-4.76-4.76 2.13-4.76 4.76-4.76 4.76 2.13 4.76 4.76m2.77-9.79h8.44v19.56c0 1.35-1.09 2.44-2.44 2.44H18.44c-1.35 0-2.44-1.09-2.44-2.44V24.41h8.44l1.66-6.03h11.84l1.66 6.03Zm-.27 9.79c0-4-3.26-7.26-7.26-7.26s-7.26 3.26-7.26 7.26 3.26 7.26 7.26 7.26 7.26-3.26 7.26-7.26m17.69-21.11V64H6.95V0h37.43c1.14 0 2.25.47 3.03 1.3l8.46 8.91c.74.78 1.15 1.8 1.15 2.88Zm-2.76 0c0-.37-.14-.72-.39-.98L45.42 3.2c-.27-.28-.65-.44-1.03-.44H9.71v58.49h44.57V13.09Z"/></symbol><use style="display: var(--s16, none)" href="#s16"/><use style="display: var(--s24, none)" href="#s24"/><use style="display: var(--s32, none)" href="#s32"/><use style="display: var(--s40, none)" href="#s40"/><use style="display: var(--s48, none)" href="#s48"/><use style="display: var(--s64, none)" href="#s64"/></symbol></defs><style>@media (max-width: 23.98px) {g{--s16:block;}}@media (min-width: 24px) and (max-width: 31.98px) {g{--s24:block;}}@media (min-width: 32px) and (max-width: 39.98px) {g{--s32:block;}}@media (min-width: 40px) and (max-width: 47.98px) {g{--s40:block;}}@media (min-width: 48px) and (max-width: 63.98px) {g{--s48:block;}}@media (min-width: 64px) {g{--s64:block;}}</style><g><use href="#i-camerapicture"/></g></svg>