<svg xmlns="http://www.w3.org/2000/svg"><defs><symbol id="i-car-solid"><symbol id="s16" viewBox="0 0 16 16"><path d="M15.05 8.01H16v1.5h-.95zm-9.58 4.8c0 .06.02.12.02.19 0 .83-.67 1.5-1.5 1.5s-1.5-.67-1.5-1.5c0-.06.01-.13.02-.19.02-.18.08-.35.16-.51.08-.15.19-.29.31-.4 0 0 .02-.01.03-.02.13-.11.27-.2.42-.26.01 0 .03 0 .04-.01.16-.06.33-.1.51-.1s.35.04.51.1c.01 0 .03 0 .04.01.16.06.3.15.42.26 0 0 .02.01.03.02.13.11.23.25.31.4.08.16.14.33.16.51Zm7.09 0c-.02-.18-.08-.35-.16-.51-.08-.15-.19-.29-.31-.4 0 0-.02-.01-.03-.02-.13-.11-.27-.2-.42-.26-.01 0-.03 0-.04-.01-.16-.06-.33-.1-.51-.1s-.35.04-.51.1c-.01 0-.03 0-.04.01-.16.06-.3.15-.42.26 0 0-.02.01-.03.02-.13.11-.23.25-.31.4-.08.16-.14.33-.16.51 0 .06-.02.12-.02.19 0 .83.67 1.5 1.5 1.5s1.5-.67 1.5-1.5c0-.06-.01-.13-.02-.19ZM16 10.56c0 1.13-.85 2.06-1.94 2.22-.11-1.55-1.4-2.78-2.98-2.78S8.2 11.25 8.1 12.81H6.97C6.87 11.24 5.58 10 3.99 10s-2.88 1.25-2.98 2.81H0v-2.69h1.43c.41 0 .75-.34.75-.75s-.34-.75-.75-.75H0v-4.6c0-.7.56-1.26 1.25-1.26h7.26s.8.01 1.16.38l2.57 2.57.15.15L16 6.97v1.04h-1.54c-.41 0-.75.34-.75.75s.34.75.75.75H16zM2.66 6.77v-2.5H1.5v2.5zm4.35-1.13V4.27H4.17v2.5h2.84zm3.73.69L8.68 4.27h-.17v2.5h2.23z"/></symbol><symbol id="s24" viewBox="0 0 24 24"><path d="M8.08 18.75c.08.23.13.48.13.74 0 1.31-1.06 2.38-2.37 2.38s-2.37-1.07-2.37-2.38c0-.26.05-.51.13-.74 0-.03.02-.06.03-.09.04-.1.08-.19.13-.28l.06-.12c.05-.08.1-.15.16-.23l.1-.13c.06-.06.11-.12.17-.18.05-.04.1-.09.15-.13.06-.05.12-.09.18-.13.07-.04.13-.08.2-.11.06-.03.12-.06.18-.08.09-.03.18-.06.27-.08.05-.01.1-.03.15-.04.15-.03.3-.05.45-.05s.31.02.45.05c.05.01.1.03.15.04.09.02.18.05.27.08.06.02.12.05.17.08.07.04.14.07.21.11.06.04.12.08.18.13.05.04.1.08.15.13.06.05.12.11.17.17.04.04.07.09.11.13.06.07.11.14.15.22.02.04.04.08.07.12.05.09.09.18.13.27.01.03.02.06.03.1Zm11.26.32c-.02-.11-.05-.21-.08-.31a.4.4 0 0 0-.04-.11c-.03-.09-.08-.17-.12-.25-.02-.05-.05-.09-.07-.14q-.06-.105-.15-.21c-.04-.05-.08-.1-.12-.14-.05-.06-.11-.11-.16-.17-.05-.05-.11-.09-.16-.13-.06-.04-.11-.08-.17-.12-.07-.04-.14-.08-.21-.11-.06-.03-.11-.06-.17-.08-.09-.04-.18-.06-.27-.08-.05-.01-.1-.03-.15-.04-.15-.03-.3-.05-.45-.05s-.31.02-.45.05c-.05.01-.1.03-.15.04-.09.02-.18.05-.27.08-.06.02-.12.05-.17.08-.07.04-.14.07-.21.11-.06.04-.12.08-.17.12s-.11.08-.16.13c-.06.05-.11.11-.17.17-.04.04-.08.09-.11.14l-.15.21c-.03.04-.05.09-.07.13-.04.08-.09.17-.12.26-.01.03-.02.07-.03.11-.03.1-.07.21-.09.32-.02.14-.04.28-.04.42 0 1.31 1.06 2.38 2.37 2.38s2.37-1.07 2.37-2.38c0-.15-.02-.29-.04-.42Zm4.65-3.25c0 1.59-1.15 2.92-2.67 3.19-.24-2.18-2.08-3.89-4.32-3.89s-4.12 1.74-4.33 3.96h-2.5c-.21-2.21-2.06-3.96-4.33-3.96s-4.12 1.75-4.33 3.97H0v-4.04h2.01c.55 0 1-.45 1-1s-.45-1-1-1H0V6.01c0-.96.78-1.75 1.75-1.75h11.28v.02h.63c.32.02.62.11.88.29.1.06.19.14.27.22l3.73 3.73.37.37L24 10.52v1.61h-2.18c-.55 0-1 .45-1 1s.45 1 1 1h2.19v1.68ZM3.48 6.28H1.99v4h1.49zm7.54 2.23V6.27H5.48v4h5.54zm5.6.93-3.16-3.17h-.43v4h3.6v-.83Z"/></symbol><symbol id="s32" viewBox="0 0 32 32"><path d="M10.31 25.07c.09.29.16.59.16.91 0 1.65-1.34 3-3 3s-3-1.35-3-3c0-.32.06-.62.16-.91.05-.17.12-.32.2-.47a3.4 3.4 0 0 1 .28-.44c.02-.03.04-.05.06-.07.09-.11.18-.21.29-.31.04-.04.08-.07.12-.1.09-.08.19-.15.29-.22.07-.04.14-.08.21-.11.09-.05.18-.1.27-.14.1-.04.21-.07.32-.1.07-.02.14-.05.22-.06a2.8 2.8 0 0 1 1.16 0c.07.01.14.04.22.06.11.03.22.06.32.1.09.04.18.09.27.14.07.04.14.07.21.11.1.07.2.14.29.22.04.03.08.07.12.1.1.1.2.2.29.31.02.02.04.05.06.07.1.13.18.26.26.4a3 3 0 0 1 .22.51m15.21-.01a2.5 2.5 0 0 0-.2-.47 3.4 3.4 0 0 0-.28-.44c-.02-.03-.04-.05-.06-.07-.09-.11-.18-.21-.29-.31-.04-.04-.08-.07-.12-.1-.09-.08-.19-.15-.29-.22-.07-.04-.14-.08-.21-.11-.09-.05-.18-.1-.27-.14-.1-.04-.21-.07-.32-.1-.07-.02-.14-.05-.22-.06a2.8 2.8 0 0 0-1.16 0c-.07.01-.14.04-.22.06-.11.03-.22.06-.32.1-.09.04-.18.09-.27.13-.07.04-.14.07-.21.11-.1.07-.2.14-.29.22-.04.03-.08.07-.12.1-.1.1-.2.2-.29.31-.02.02-.04.05-.06.07-.1.13-.18.26-.26.4a3 3 0 0 0-.22.51c-.09.29-.16.59-.16.91 0 1.65 1.34 3 3 3s3-1.35 3-3c0-.32-.06-.62-.16-.91Zm6.47-3.96c0 2.07-1.44 3.81-3.35 4.33-.28-3.05-2.85-5.45-5.97-5.45s-5.78 2.49-5.97 5.62h-3.25c-.19-3.13-2.8-5.62-5.97-5.62S1.7 22.47 1.51 25.6H-.01V8.03c0-1.38 1.12-2.5 2.49-2.5h15.6c.67 0 1.29.26 1.77.73l5.45 5.46 6.68 2.23v2.06h-2.56c-.83 0-1.5.67-1.5 1.5s.67 1.5 1.5 1.5h2.56v2.09ZM3.86 18.73c0-.83-.67-1.5-1.5-1.5H0v3h2.35c.83 0 1.5-.67 1.5-1.5ZM4.99 8.5H2.98v5.03h2.01zm8.81 0H7.99v5.03h5.81zm8.19 4.15-4.11-4.12h-.36l.02 5h4.45z"/></symbol><symbol id="s40" viewBox="0 0 40 40"><path d="M13.03 31.64c.06.27.09.56.09.85 0 2.27-1.85 4.12-4.12 4.12s-4.12-1.85-4.12-4.12c0-.29.03-.57.09-.85.05-.25.13-.48.22-.71.04-.09.08-.17.13-.25.07-.14.14-.28.22-.41a5.4 5.4 0 0 1 .46-.59c.07-.08.15-.15.23-.22.11-.1.22-.19.34-.28.08-.06.17-.12.26-.18.13-.08.26-.15.4-.22.09-.04.18-.09.27-.13.16-.06.32-.11.49-.15.08-.02.16-.05.24-.07.25-.05.51-.08.78-.08s.53.03.78.08c.08.02.16.04.24.07.17.04.33.09.49.15.09.04.18.08.27.13.14.07.27.14.4.22.09.06.17.11.26.18.12.09.23.18.34.28.08.07.15.14.23.22.1.11.19.22.28.34.06.08.13.16.18.25.08.13.16.27.22.41.04.08.09.16.13.25.09.23.17.47.22.71ZM40 26.39c0 1.4-.55 2.72-1.54 3.71a5.2 5.2 0 0 1-2.66 1.43c-.47-3.48-3.45-6.17-7.05-6.17s-6.65 2.75-7.07 6.28h-5.61c-.42-3.53-3.43-6.28-7.07-6.28s-6.65 2.75-7.07 6.28H0V10.01c0-1.52 1.23-2.75 2.75-2.75h19.19v.03h1.07c.73 0 1.43.29 1.95.81l5.96 5.96.92.92L40 17.71v2.68h-1.34v.02c-.05 0-.11-.02-.16-.02h-1.3c-.83 0-1.5.67-1.5 1.5s.67 1.5 1.5 1.5h1.3c.06 0 .11-.01.16-.02v.02H40v2.99Zm-17.1-16.1h-.97v7h6.33v-1.63l-5.37-5.37Zm-16.64-.03H3v7.03h3.26zm3 7.03h9.67v-3.15l-.02-3.89H9.25v7.03Zm-5.17 6.13c0-.83-.67-1.5-1.5-1.5H0v3h2.58c.83 0 1.5-.67 1.5-1.5Zm25.41 5.01c-.11-.02-.22-.02-.33-.03-.12-.01-.24-.04-.37-.04h-.05c-1.98 0-3.64 1.41-4.04 3.28h.05q-.09.405-.09.84c0 2.27 1.85 4.12 4.12 4.12s4.12-1.85 4.12-4.12c0-2.04-1.49-3.72-3.43-4.05Z"/></symbol><symbol id="s48" viewBox="0 0 48 48"><path d="M37.89 36.46c.52.71.84 1.57.84 2.52 0 2.34-1.9 4.25-4.24 4.25s-4.24-1.91-4.24-4.25c0-.11.02-.21.03-.31.06-.82.35-1.58.81-2.21 0 0 .01-.02.02-.02.15-.2.31-.38.48-.55.03-.03.07-.06.11-.09.16-.14.32-.27.49-.39.08-.05.16-.09.25-.13.15-.08.29-.17.45-.23.14-.06.29-.09.43-.13.11-.03.22-.08.34-.1.27-.05.55-.08.83-.08s.56.03.83.08c.12.02.23.07.34.1.14.04.29.08.43.13.16.06.3.15.45.23.08.05.17.08.25.13.18.11.34.25.49.39.03.03.07.06.11.09.18.17.34.35.49.55l.02.02Zm-23.7-.02c-.15-.2-.31-.38-.49-.55-.03-.03-.07-.06-.11-.09a6 6 0 0 0-.49-.39c-.08-.05-.16-.09-.25-.13-.15-.08-.29-.17-.45-.23-.14-.06-.29-.09-.43-.13-.11-.03-.22-.08-.34-.1-.27-.05-.55-.08-.83-.08s-.56.03-.83.08c-.12.02-.23.07-.34.1-.14.04-.29.08-.43.13-.16.06-.3.15-.45.23-.08.05-.17.08-.25.13-.18.11-.34.25-.49.39-.03.03-.07.06-.11.09-.18.17-.34.35-.48.55 0 0-.01.02-.02.02-.46.63-.75 1.38-.81 2.21 0 .11-.03.21-.03.31 0 2.34 1.9 4.25 4.24 4.25s4.24-1.91 4.24-4.25c0-.95-.32-1.81-.84-2.52l-.02-.02ZM48 31.67c0 1.87-.73 3.63-2.05 4.95-.66.66-1.43 1.17-2.26 1.52-.43-4.71-4.39-8.4-9.2-8.4s-9.06 3.98-9.23 8.94h-5.23c-.17-4.96-4.24-8.94-9.23-8.94s-9.06 3.98-9.23 8.94H0V12.02c0-2.21 1.79-4 3.99-4h22.03v.04h1.58c1.07 0 2.07.42 2.83 1.18l5.85 5.86 2.3 2.3 9.4 3.41v10.87ZM5.63 28.1a2.5 2.5 0 0 0-2.5-2.5H.03v5h3.1a2.5 2.5 0 0 0 2.5-2.5m2.2-15.05H4.99v7h2.84zm13.2 3.96-.02-3.96h-8.18v7h8.2zm12.18 2.08-6.03-6.03h-1.16v7h7.19zm14.78 4.69h-3.37a2.5 2.5 0 0 0 0 5h3.37z"/></symbol><symbol id="s64" viewBox="0 0 64 64"><path d="M52.88 49.64c.27.71.42 1.47.42 2.28 0 3.58-2.91 6.5-6.49 6.5s-6.49-2.92-6.49-6.5c0-.8.15-1.57.42-2.28.01-.03.02-.06.04-.1.12-.32.27-.62.44-.91.02-.04.04-.07.06-.1.18-.29.37-.56.59-.82.02-.02.04-.04.05-.06.23-.26.47-.51.74-.73.26-.22.54-.41.83-.58.04-.02.08-.05.12-.07.28-.16.58-.3.88-.42.05-.02.11-.04.16-.06.31-.11.63-.2.95-.26.05 0 .1-.01.14-.02.35-.06.7-.09 1.06-.09s.71.04 1.06.09c.05 0 .1.01.14.02.33.06.64.15.95.26.05.02.11.04.16.06.3.12.6.25.88.42.04.02.08.05.12.07.29.17.57.37.83.58a6.4 6.4 0 0 1 .79.79c.22.26.41.53.59.82.02.03.04.07.06.1.17.29.32.59.44.91.01.03.02.06.04.1Zm-33.26-.09c-.12-.32-.27-.62-.44-.91-.02-.04-.04-.07-.06-.1-.18-.29-.37-.56-.59-.82-.02-.02-.04-.04-.05-.06-.23-.26-.47-.51-.74-.73-.26-.22-.54-.41-.83-.58-.04-.02-.08-.05-.12-.07-.28-.16-.58-.3-.88-.42-.05-.02-.11-.04-.16-.06-.31-.11-.63-.2-.95-.26a.6.6 0 0 1-.14-.02c-.35-.06-.7-.09-1.06-.09s-.71.04-1.06.09c-.05 0-.1.01-.14.02-.33.06-.64.15-.95.26-.05.02-.11.04-.16.06-.3.12-.6.25-.88.42-.04.02-.08.05-.12.07-.29.17-.57.37-.83.58-.27.22-.51.47-.74.73-.02.02-.04.04-.05.06-.22.26-.41.53-.59.82-.02.03-.04.07-.06.1-.17.29-.32.59-.44.91-.01.03-.02.06-.04.1-.12.33-.23.67-.3 1.03-.08.4-.12.82-.12 1.25 0 3.58 2.91 6.5 6.49 6.5s6.49-2.92 6.49-6.5c0-.8-.15-1.57-.42-2.28-.01-.03-.02-.06-.04-.1Zm44.37-7.38c0 2.27-.88 4.41-2.49 6.01-.95.95-2.1 1.65-3.34 2.06a11.54 11.54 0 0 0-3.09-6.29c-.19-.2-.39-.38-.6-.57-.06-.05-.12-.11-.18-.17-.18-.15-.36-.3-.55-.44-.1-.07-.19-.15-.29-.22-.17-.12-.35-.24-.53-.35-.13-.08-.25-.16-.38-.23-.17-.1-.34-.19-.51-.28a7 7 0 0 0-.46-.22c-.16-.07-.33-.15-.49-.22-.17-.07-.35-.13-.53-.19-.16-.05-.32-.11-.48-.16-.2-.06-.4-.11-.6-.16-.15-.04-.3-.08-.45-.1-.24-.05-.47-.08-.72-.11-.13-.02-.25-.04-.37-.05a11 11 0 0 0-2.26 0c-.13.01-.25.04-.37.05-.25.03-.49.06-.73.11-.15.03-.29.07-.44.1-.21.05-.42.1-.63.16l-.45.15c-.19.07-.38.13-.57.21-.15.06-.3.13-.45.2-.18.08-.35.16-.52.25-.15.08-.3.16-.45.25-.16.09-.32.19-.48.29-.15.1-.29.19-.43.3-.15.1-.29.21-.43.32s-.28.23-.42.34c-.13.11-.26.23-.38.35-.13.13-.27.26-.39.39-.12.12-.23.24-.34.37-.13.14-.25.29-.37.44-.1.12-.19.25-.29.38-.12.16-.23.32-.34.49l-.24.39c-.11.18-.21.35-.31.54-.06.12-.12.25-.18.38-.1.2-.19.4-.28.6-.04.11-.08.22-.12.32-.33.89-.57 1.82-.68 2.79H24.99c-.63-5.75-5.51-10.25-11.42-10.25S2.77 44.9 2.15 50.65H0V39.9h3.35a2.5 2.5 0 0 0 0-5H0V15.96c0-2.48 2.01-4.5 4.49-4.5h30.2v.05h2.94c1.2 0 2.33.47 3.18 1.32l8.85 8.86 2.16 2.16 12.17 4.41v4.22h-3.67a2.5 2.5 0 0 0 0 5H64v-.88 5.56ZM10.45 16.46H5v11.05h5.45zm19.24 6.13-.03-6.13H15.45v11.05h14.24zm16.25 2.46-8.52-8.53h-2.73v6.09l.02 4.91h11.23z"/></symbol><use style="display: var(--s16, none)" href="#s16"/><use style="display: var(--s24, none)" href="#s24"/><use style="display: var(--s32, none)" href="#s32"/><use style="display: var(--s40, none)" href="#s40"/><use style="display: var(--s48, none)" href="#s48"/><use style="display: var(--s64, none)" href="#s64"/></symbol></defs><style>@media (max-width: 23.98px) {g{--s16:block;}}@media (min-width: 24px) and (max-width: 31.98px) {g{--s24:block;}}@media (min-width: 32px) and (max-width: 39.98px) {g{--s32:block;}}@media (min-width: 40px) and (max-width: 47.98px) {g{--s40:block;}}@media (min-width: 48px) and (max-width: 63.98px) {g{--s48:block;}}@media (min-width: 64px) {g{--s64:block;}}</style><g><use href="#i-car-solid"/></g></svg>