<svg xmlns="http://www.w3.org/2000/svg"><defs><symbol id="i-chatbot"><symbol id="s16" viewBox="0 0 16 16"><path d="M5.58 4.5c-.83 0-1.5.67-1.5 1.5s.67 1.5 1.5 1.5 1.5-.67 1.5-1.5-.67-1.5-1.5-1.5m4.77 0c-.83 0-1.5.67-1.5 1.5s.67 1.5 1.5 1.5 1.5-.67 1.5-1.5-.67-1.5-1.5-1.5M13.76 0H2.17C.92 0-.09 1.01-.09 2.25v7.9c0 1.24 1.01 2.25 2.25 2.25h6.29l2.08 3.6 2.08-3.6h1.13c1.24 0 2.25-1.01 2.25-2.25v-7.9C16.01 1.01 15 0 13.76 0m.75 10.14c0 .41-.34.75-.75.75h-2l-1.22 2.1-1.22-2.1H2.17c-.41 0-.75-.34-.75-.75V2.25c0-.41.34-.75.75-.75h11.59c.41 0 .75.34.75.75v7.9Z"/></symbol><symbol id="s24" viewBox="0 0 24 24"><path d="M10.46 9.05c0 1.13-.91 2.05-2.02 2.05s-2.02-.92-2.02-2.05S7.33 7 8.44 7s2.02.92 2.02 2.05M15.49 7c-1.11 0-2.02.92-2.02 2.05s.91 2.05 2.02 2.05 2.02-.92 2.02-2.05S16.6 7 15.49 7M24 3.22v12.26c0 1.77-1.42 3.22-3.17 3.22h-1.85l-3.02 5.31-3.02-5.31H3.17C1.42 18.7 0 17.26 0 15.48V3.22C0 1.44 1.42 0 3.17 0h17.67c1.75 0 3.17 1.44 3.17 3.22Zm-1.74 0c0-.8-.64-1.45-1.42-1.45H3.17c-.78 0-1.42.65-1.42 1.45v12.26c0 .8.64 1.45 1.42 1.45h10.78l2.02 3.54 2.02-3.54h2.85c.78 0 1.42-.65 1.42-1.45z"/></symbol><symbol id="s32" viewBox="0 0 32 32"><path d="M13.52 11.87c0 1.42-1.14 2.57-2.54 2.57s-2.54-1.15-2.54-2.57S9.58 9.3 10.98 9.3s2.54 1.15 2.54 2.57m7.32-2.58c-1.4 0-2.54 1.15-2.54 2.57s1.14 2.57 2.54 2.57 2.54-1.15 2.54-2.57-1.14-2.57-2.54-2.57m11.09-5.25V20.5c0 2.28-1.84 4.14-4.09 4.14h-2.58L20.8 31.9l-4.46-7.26H4.03c-2.26 0-4.1-1.86-4.1-4.14V4.04c0-2.29 1.84-4.14 4.1-4.14h23.81c2.26 0 4.09 1.86 4.09 4.14m-1.99 0c0-1.17-.94-2.12-2.1-2.12H4.03c-1.16 0-2.1.95-2.1 2.12V20.5c0 1.17.94 2.12 2.1 2.12h13.42l3.35 5.45 3.35-5.45h3.69c1.16 0 2.1-.95 2.1-2.12z"/></symbol><symbol id="s40" viewBox="0 0 40 40"><path d="M17.13 14.83c0 1.7-1.38 3.08-3.07 3.08s-3.07-1.38-3.07-3.08 1.38-3.08 3.07-3.08 3.07 1.38 3.07 3.08m8.61-3.08c-1.69 0-3.07 1.38-3.07 3.08s1.38 3.08 3.07 3.08 3.07-1.38 3.07-3.08-1.38-3.08-3.07-3.08m14.18-6.71v20.58c0 2.78-2.25 5.04-5.02 5.04h-3.3l-5.55 9.33-5.55-9.33H4.94c-2.76.01-5.02-2.25-5.02-5.03V5.04C-.08 2.26 2.18 0 4.94 0H34.9c2.77 0 5.02 2.26 5.02 5.04m-2.24 0c0-1.54-1.25-2.79-2.78-2.79H4.94c-1.53 0-2.78 1.25-2.78 2.79v20.58c0 1.54 1.25 2.79 2.78 2.79h16.84l4.28 7.19 4.28-7.19h4.57c1.53 0 2.78-1.25 2.78-2.79V5.04Z"/></symbol><symbol id="s48" viewBox="0 0 48 48"><path d="M20.26 17.68c0 1.98-1.61 3.6-3.59 3.6s-3.59-1.61-3.59-3.6 1.61-3.6 3.59-3.6 3.59 1.61 3.59 3.6m10.85-3.6c-1.98 0-3.59 1.61-3.59 3.6s1.61 3.6 3.59 3.6 3.59-1.61 3.59-3.6-1.61-3.6-3.59-3.6m16.86-8.14v25.02a5.94 5.94 0 0 1-5.94 5.94h-4.11L31.3 47.99 24.68 36.9H5.9c-3.27 0-5.93-2.67-5.93-5.94V5.94C-.03 2.66 2.63 0 5.9 0h36.13c3.27 0 5.94 2.67 5.94 5.94m-2.5 0c0-1.9-1.54-3.44-3.44-3.44H5.9C4 2.5 2.46 4.05 2.46 5.94v25.02c0 1.9 1.54 3.44 3.44 3.44h20.2l5.2 8.72 5.2-8.72h5.53c1.9 0 3.44-1.55 3.44-3.44z"/></symbol><symbol id="s64" viewBox="0 0 64 64"><path d="M27.31 23.45c0 2.77-2.24 5.03-5 5.03s-5-2.26-5-5.03 2.24-5.03 5-5.03 5 2.26 5 5.03m14.12-5.03c-2.76 0-5 2.26-5 5.03s2.24 5.03 5 5.03 5-2.26 5-5.03-2.24-5.03-5-5.03M63.99 7.58v33.83c0 4.26-3.45 7.73-7.68 7.73h-5.74l-8.73 14.71-8.73-14.71H7.67c-4.24 0-7.68-3.47-7.68-7.74V7.58c0-4.27 3.44-7.73 7.68-7.73h48.64c4.24 0 7.68 3.47 7.68 7.73m-2.75 0c0-2.74-2.21-4.96-4.93-4.96H7.67c-2.72 0-4.93 2.23-4.93 4.96v33.83c0 2.74 2.21 4.96 4.93 4.96h27l7.17 12.08 7.17-12.08h7.3c2.72 0 4.93-2.23 4.93-4.96z"/></symbol><use style="display: var(--s16, none)" href="#s16"/><use style="display: var(--s24, none)" href="#s24"/><use style="display: var(--s32, none)" href="#s32"/><use style="display: var(--s40, none)" href="#s40"/><use style="display: var(--s48, none)" href="#s48"/><use style="display: var(--s64, none)" href="#s64"/></symbol></defs><style>@media (max-width: 23.98px) {g{--s16:block;}}@media (min-width: 24px) and (max-width: 31.98px) {g{--s24:block;}}@media (min-width: 32px) and (max-width: 39.98px) {g{--s32:block;}}@media (min-width: 40px) and (max-width: 47.98px) {g{--s40:block;}}@media (min-width: 48px) and (max-width: 63.98px) {g{--s48:block;}}@media (min-width: 64px) {g{--s64:block;}}</style><g><use href="#i-chatbot"/></g></svg>