<svg xmlns="http://www.w3.org/2000/svg"><defs><symbol id="i-chatbot-solid"><symbol id="s16" viewBox="0 0 16 16"><path d="M13.74 0H2.23C1 0-.01 1.01-.01 2.25v7.9c0 1.24 1.01 2.25 2.25 2.25h6.28L10.6 16l2.08-3.6h1.07c1.24 0 2.25-1.01 2.25-2.25v-7.9A2.27 2.27 0 0 0 13.74 0m-8.1 7.51c-.83 0-1.5-.67-1.5-1.5s.67-1.5 1.5-1.5 1.5.67 1.5 1.5-.67 1.5-1.5 1.5m4.76 0c-.83 0-1.5-.67-1.5-1.5s.67-1.5 1.5-1.5 1.5.67 1.5 1.5-.67 1.5-1.5 1.5"/></symbol><symbol id="s24" viewBox="0 0 24 24"><path d="M20.83 0H3.17C1.42 0 0 1.45 0 3.22v12.25c0 1.77 1.42 3.22 3.17 3.22h9.8L16 24l3.03-5.31h1.8c1.75 0 3.17-1.45 3.17-3.22V3.22C24 1.45 22.58 0 20.83 0M8.46 11.11c-1.12 0-2.03-.91-2.03-2.03s.91-2.03 2.03-2.03 2.03.91 2.03 2.03-.91 2.03-2.03 2.03m7.08 0c-1.12 0-2.03-.91-2.03-2.03s.91-2.03 2.03-2.03 2.03.91 2.03 2.03-.91 2.03-2.03 2.03"/></symbol><symbol id="s32" viewBox="0 0 32 32"><path d="M27.88-.11H4.07C1.81-.1-.03 1.75-.03 4.04V20.5c0 2.28 1.84 4.14 4.1 4.14H16.4l4.46 7.26 4.46-7.26h2.54c2.26 0 4.1-1.86 4.1-4.15V4.03c.01-2.28-1.82-4.14-4.08-4.14M11.01 14.45c-1.41 0-2.55-1.15-2.55-2.55s1.15-2.55 2.55-2.55 2.55 1.15 2.55 2.55-1.15 2.55-2.55 2.55m9.91 0c-1.41 0-2.55-1.15-2.55-2.55s1.15-2.55 2.55-2.55 2.55 1.15 2.55 2.55-1.15 2.55-2.55 2.55"/></symbol><symbol id="s40" viewBox="0 0 40 40"><path d="M34.93-.05H4.98C2.21-.05-.05 2.21-.05 4.99v20.58c0 2.78 2.25 5.04 5.03 5.04h15.59l5.56 9.33 5.56-9.33h3.25c2.77 0 5.03-2.26 5.03-5.04V4.99c-.02-2.78-2.27-5.04-5.04-5.04M14.09 17.86c-1.7 0-3.08-1.38-3.08-3.08s1.38-3.08 3.08-3.08 3.08 1.38 3.08 3.08-1.38 3.08-3.08 3.08m11.72 0c-1.7 0-3.08-1.38-3.08-3.08s1.38-3.08 3.08-3.08 3.08 1.38 3.08 3.08-1.38 3.08-3.08 3.08"/></symbol><symbol id="s48" viewBox="0 0 48 48"><path d="M42.05-.01H5.93C2.66-.01-.01 2.66-.01 5.93v25.02c0 3.28 2.67 5.94 5.94 5.94h18.8l6.63 11.09 6.63-11.09h4.06c3.28 0 5.94-2.67 5.94-5.94V5.93c0-3.27-2.67-5.94-5.94-5.94M16.71 21.27c-1.98 0-3.6-1.61-3.6-3.6s1.61-3.6 3.6-3.6 3.6 1.61 3.6 3.6-1.61 3.6-3.6 3.6m14.47 0c-1.98 0-3.6-1.61-3.6-3.6s1.61-3.6 3.6-3.6 3.6 1.61 3.6 3.6-1.61 3.6-3.6 3.6"/></symbol><symbol id="s64" viewBox="0 0 64 64"><path d="M56.29 0H7.68C3.44 0-.01 3.47-.01 7.73v33.83c0 4.26 3.45 7.73 7.7 7.73h25.48L41.91 64l8.74-14.71h5.64c4.24 0 7.7-3.47 7.7-7.73V7.73c0-4.26-3.45-7.73-7.7-7.73M22.36 28.5c-2.76 0-5-2.24-5-5s2.24-5 5-5 5 2.24 5 5-2.24 5-5 5m19.13 0c-2.76 0-5-2.24-5-5s2.24-5 5-5 5 2.24 5 5-2.24 5-5 5"/></symbol><use style="display: var(--s16, none)" href="#s16"/><use style="display: var(--s24, none)" href="#s24"/><use style="display: var(--s32, none)" href="#s32"/><use style="display: var(--s40, none)" href="#s40"/><use style="display: var(--s48, none)" href="#s48"/><use style="display: var(--s64, none)" href="#s64"/></symbol></defs><style>@media (max-width: 23.98px) {g{--s16:block;}}@media (min-width: 24px) and (max-width: 31.98px) {g{--s24:block;}}@media (min-width: 32px) and (max-width: 39.98px) {g{--s32:block;}}@media (min-width: 40px) and (max-width: 47.98px) {g{--s40:block;}}@media (min-width: 48px) and (max-width: 63.98px) {g{--s48:block;}}@media (min-width: 64px) {g{--s64:block;}}</style><g><use href="#i-chatbot-solid"/></g></svg>