<svg xmlns="http://www.w3.org/2000/svg"><defs><symbol id="i-checkmark"><symbol id="s16" viewBox="0 0 16 16"><path d="M7.42 12.18 4.21 8.74c-.28-.3-.27-.78.04-1.06.3-.28.78-.27 1.06.04l1.91 2.05 3.4-5.15c.23-.35.69-.44 1.04-.21s.44.69.21 1.04l-4.45 6.74Z"/></symbol><symbol id="s24" viewBox="0 0 24 24"><path d="m11.09 17.86-4.6-4.93a.88.88 0 0 1 .04-1.24c.35-.33.91-.31 1.24.04l3.08 3.3 5.27-7.99c.27-.4.81-.51 1.21-.25.4.27.51.81.25 1.21l-6.5 9.84Z"/></symbol><symbol id="s32" viewBox="0 0 32 32"><path d="m14.77 23.48-5.99-6.42a.99.99 0 0 1 .05-1.41.99.99 0 0 1 1.41.05l4.26 4.56 7.15-10.83c.3-.46.92-.59 1.39-.28.46.3.59.92.28 1.39l-8.55 12.95Z"/></symbol><symbol id="s40" viewBox="0 0 40 40"><path d="m18.45 29.15-7.38-7.9c-.42-.45-.4-1.17.05-1.59s1.17-.4 1.59.05l5.43 5.81 9.02-13.67a1.127 1.127 0 0 1 1.88 1.24l-10.6 16.06Z"/></symbol><symbol id="s48" viewBox="0 0 48 48"><path d="m22.12 34.79-8.77-9.39c-.47-.5-.44-1.3.06-1.77s1.3-.45 1.77.06l6.6 7.07 10.9-16.51c.38-.58 1.16-.74 1.73-.35.58.38.74 1.16.35 1.73L22.11 34.79Z"/></symbol><symbol id="s64" viewBox="0 0 64 64"><path d="M29.46 46.09 18.02 33.84c-.52-.55-.49-1.42.07-1.94.55-.52 1.42-.49 1.94.07l9.06 9.7 14.74-22.33c.42-.63 1.27-.81 1.91-.39.63.42.81 1.27.39 1.91L29.47 46.1Z"/></symbol><use style="display: var(--s16, none)" href="#s16"/><use style="display: var(--s24, none)" href="#s24"/><use style="display: var(--s32, none)" href="#s32"/><use style="display: var(--s40, none)" href="#s40"/><use style="display: var(--s48, none)" href="#s48"/><use style="display: var(--s64, none)" href="#s64"/></symbol></defs><style>@media (max-width: 23.98px) {g{--s16:block;}}@media (min-width: 24px) and (max-width: 31.98px) {g{--s24:block;}}@media (min-width: 32px) and (max-width: 39.98px) {g{--s32:block;}}@media (min-width: 40px) and (max-width: 47.98px) {g{--s40:block;}}@media (min-width: 48px) and (max-width: 63.98px) {g{--s48:block;}}@media (min-width: 64px) {g{--s64:block;}}</style><g><use href="#i-checkmark"/></g></svg>