<svg xmlns="http://www.w3.org/2000/svg"><defs><symbol id="i-chevrondownwide"><symbol id="s16" viewBox="0 0 16 16"><path d="M7.99 12.68.22 4.91c-.29-.29-.29-.77 0-1.06s.77-.29 1.06 0l6.71 6.71 6.71-6.71c.29-.29.77-.29 1.06 0s.29.77 0 1.06z"/></symbol><symbol id="s24" viewBox="0 0 24 24"><path d="M12 18.8.25 7.06a.88.88 0 0 1 0-1.24c.34-.34.9-.34 1.24 0L12 16.33 22.51 5.82c.34-.34.9-.34 1.24 0s.34.9 0 1.24L12 18.81Z"/></symbol><symbol id="s32" viewBox="0 0 32 32"><path d="M16 24.92.29 9.21A.996.996 0 1 1 1.7 7.8l14.29 14.29 14.3-14.3A.996.996 0 1 1 31.7 9.2L15.99 24.91Z"/></symbol><symbol id="s40" viewBox="0 0 40 40"><path d="M20 30.99.34 11.33c-.44-.44-.44-1.15 0-1.59s1.15-.44 1.59 0L20 27.81 38.08 9.73c.44-.44 1.15-.44 1.59 0s.44 1.15 0 1.59z"/></symbol><symbol id="s48" viewBox="0 0 48 48"><path d="M23.99 37.14.37 13.52c-.49-.49-.49-1.28 0-1.77s1.28-.49 1.77 0L23.99 33.6l21.87-21.87c.49-.49 1.28-.49 1.77 0s.49 1.28 0 1.77L24 37.13Z"/></symbol><symbol id="s64" viewBox="0 0 64 64"><path d="M31.98 49.28.4 17.7c-.54-.54-.54-1.41 0-1.95s1.41-.54 1.95 0l29.64 29.64 29.65-29.66c.54-.54 1.41-.54 1.95 0s.54 1.41 0 1.95l-31.6 31.6Z"/></symbol><use style="display: var(--s16, none)" href="#s16"/><use style="display: var(--s24, none)" href="#s24"/><use style="display: var(--s32, none)" href="#s32"/><use style="display: var(--s40, none)" href="#s40"/><use style="display: var(--s48, none)" href="#s48"/><use style="display: var(--s64, none)" href="#s64"/></symbol></defs><style>@media (max-width: 23.98px) {g{--s16:block;}}@media (min-width: 24px) and (max-width: 31.98px) {g{--s24:block;}}@media (min-width: 32px) and (max-width: 39.98px) {g{--s32:block;}}@media (min-width: 40px) and (max-width: 47.98px) {g{--s40:block;}}@media (min-width: 48px) and (max-width: 63.98px) {g{--s48:block;}}@media (min-width: 64px) {g{--s64:block;}}</style><g><use href="#i-chevrondownwide"/></g></svg>