<svg xmlns="http://www.w3.org/2000/svg"><defs><symbol id="i-chevronend-solid"><symbol id="s16" viewBox="0 0 16 16"><path d="M4.51.37 12.14 8l-7.63 7.63c-.24.24-.56.37-.88.37s-.64-.12-.88-.37a1.25 1.25 0 0 1 0-1.77L8.61 8 2.74 2.14c-.49-.49-.49-1.28 0-1.77s1.28-.49 1.77 0m9-.37v16h2.5V0z"/></symbol><symbol id="s24" viewBox="0 0 24 24"><path d="M5.82.45 17.37 12 5.82 23.55c-.29.29-.68.44-1.06.44s-.77-.15-1.06-.44a1.49 1.49 0 0 1 0-2.12L13.13 12 3.7 2.57c-.59-.59-.59-1.54 0-2.12s1.54-.59 2.12 0M20.98 0v24h3V0z"/></symbol><symbol id="s32" viewBox="0 0 32 32"><path d="M7.37.52 22.85 16 7.37 31.48c-.34.34-.79.51-1.24.51s-.9-.17-1.24-.51a1.75 1.75 0 0 1 0-2.47l13-13L4.9 2.99c-.68-.68-.68-1.79 0-2.47s1.79-.68 2.47 0M28.51 0v32h3.5V0z"/></symbol><symbol id="s40" viewBox="0 0 40 40"><path d="m9.16.55 19.4 19.4-19.4 19.4c-.39.39-.9.59-1.41.59s-1.02-.2-1.41-.59c-.78-.78-.78-2.05 0-2.83l16.57-16.57L6.34 3.38c-.78-.78-.78-2.05 0-2.83s2.05-.78 2.83 0Zm26.8-.6v40h4v-40z"/></symbol><symbol id="s48" viewBox="0 0 48 48"><path d="M10.72.67 34.05 24 10.72 47.33c-.44.44-1.01.66-1.59.66s-1.15-.22-1.59-.66c-.88-.88-.88-2.3 0-3.18L27.69 24 7.54 3.85c-.88-.88-.88-2.3 0-3.18s2.3-.88 3.18 0M43.48 0v48h4.5V0z"/></symbol><symbol id="s64" viewBox="0 0 64 64"><path d="M12.03.75 43.28 32 12.03 63.25c-.49.49-1.13.73-1.77.73s-1.28-.24-1.77-.73c-.98-.98-.98-2.56 0-3.54L36.2 31.99 8.49 4.28c-.98-.98-.98-2.56 0-3.54s2.56-.98 3.54 0ZM59 0v64h5V0z"/></symbol><use style="display: var(--s16, none)" href="#s16"/><use style="display: var(--s24, none)" href="#s24"/><use style="display: var(--s32, none)" href="#s32"/><use style="display: var(--s40, none)" href="#s40"/><use style="display: var(--s48, none)" href="#s48"/><use style="display: var(--s64, none)" href="#s64"/></symbol></defs><style>@media (max-width: 23.98px) {g{--s16:block;}}@media (min-width: 24px) and (max-width: 31.98px) {g{--s24:block;}}@media (min-width: 32px) and (max-width: 39.98px) {g{--s32:block;}}@media (min-width: 40px) and (max-width: 47.98px) {g{--s40:block;}}@media (min-width: 48px) and (max-width: 63.98px) {g{--s48:block;}}@media (min-width: 64px) {g{--s64:block;}}</style><g><use href="#i-chevronend-solid"/></g></svg>