<svg xmlns="http://www.w3.org/2000/svg"><defs><symbol id="i-chevronup"><symbol id="s16" viewBox="0 0 16 16"><path d="M14 10.78c0 .19-.07.38-.22.53-.29.29-.77.29-1.06 0L8 6.59l-4.72 4.72c-.29.29-.77.29-1.06 0s-.29-.77 0-1.06L8 4.47l5.78 5.78c.15.15.22.34.22.53"/></symbol><symbol id="s24" viewBox="0 0 24 24"><path d="M20.75 16.08c0 .22-.08.45-.26.62-.34.34-.9.34-1.24 0l-7.26-7.26-7.26 7.26c-.34.34-.9.34-1.24 0a.88.88 0 0 1 0-1.24L12 6.97l8.49 8.49c.17.17.26.4.26.62"/></symbol><symbol id="s32" viewBox="0 0 32 32"><path d="M27.47 21.45c0 .26-.1.51-.29.71a.996.996 0 0 1-1.41 0l-9.79-9.79-9.8 9.8a.996.996 0 1 1-1.41-1.41L15.98 9.55l11.21 11.21c.2.2.29.45.29.71Z"/></symbol><symbol id="s40" viewBox="0 0 40 40"><path d="M34.24 26.75a1.123 1.123 0 0 1-1.92.8L19.99 15.22 7.65 27.56c-.44.44-1.15.44-1.59 0s-.44-1.15 0-1.59l13.93-13.93 13.92 13.92c.22.22.33.51.33.8Z"/></symbol><symbol id="s48" viewBox="0 0 48 48"><path d="M40.97 32.13c0 .32-.12.64-.37.88-.49.49-1.28.49-1.77 0L23.96 18.14 9.08 33.02c-.49.49-1.28.49-1.77 0s-.49-1.28 0-1.77l16.66-16.64L40.6 31.24c.24.24.37.56.37.88Z"/></symbol><symbol id="s64" viewBox="0 0 64 64"><path d="M54.36 42.8a1.38 1.38 0 0 1-2.35.97L31.98 23.74 11.94 43.78c-.54.54-1.41.54-1.95 0s-.54-1.41 0-1.95l21.99-21.98 21.97 21.97c.27.27.4.62.4.97ZM0 .03h64v64H0z"/></symbol><use style="display: var(--s16, none)" href="#s16"/><use style="display: var(--s24, none)" href="#s24"/><use style="display: var(--s32, none)" href="#s32"/><use style="display: var(--s40, none)" href="#s40"/><use style="display: var(--s48, none)" href="#s48"/><use style="display: var(--s64, none)" href="#s64"/></symbol></defs><style>@media (max-width: 23.98px) {g{--s16:block;}}@media (min-width: 24px) and (max-width: 31.98px) {g{--s24:block;}}@media (min-width: 32px) and (max-width: 39.98px) {g{--s32:block;}}@media (min-width: 40px) and (max-width: 47.98px) {g{--s40:block;}}@media (min-width: 48px) and (max-width: 63.98px) {g{--s48:block;}}@media (min-width: 64px) {g{--s64:block;}}</style><g><use href="#i-chevronup"/></g></svg>