<svg xmlns="http://www.w3.org/2000/svg"><defs><symbol id="i-chevrondown-solid"><symbol id="s16" viewBox="0 0 16 16"><path d="M1.5 5.13c0-.32.12-.64.37-.88a1.25 1.25 0 0 1 1.77 0l4.37 4.37 4.37-4.37c.49-.49 1.28-.49 1.77 0s.49 1.28 0 1.77l-6.14 6.14-6.15-6.15c-.24-.24-.37-.56-.37-.88Z"/></symbol><symbol id="s24" viewBox="0 0 24 24"><path d="M2.62 7.74c0-.38.15-.77.44-1.06a1.49 1.49 0 0 1 2.12 0l6.81 6.82 6.82-6.82c.59-.59 1.54-.59 2.12 0s.59 1.54 0 2.12l-8.94 8.94L3.06 8.8c-.29-.29-.44-.68-.44-1.06"/></symbol><symbol id="s32" viewBox="0 0 32 32"><path d="M3.75 10.33c0-.45.17-.9.51-1.24a1.75 1.75 0 0 1 2.47 0l9.26 9.26 9.27-9.27c.68-.68 1.79-.68 2.47 0s.68 1.79 0 2.47L15.99 23.29 4.26 11.57c-.34-.34-.51-.79-.51-1.24"/></symbol><symbol id="s40" viewBox="0 0 40 40"><path d="M4.87 12.97a2.004 2.004 0 0 1 3.42-1.41L20 23.27l11.72-11.72c.78-.78 2.05-.78 2.83 0s.78 2.05 0 2.83L20 28.93 5.46 14.39c-.39-.39-.59-.9-.59-1.41Z"/></symbol><symbol id="s48" viewBox="0 0 48 48"><path d="M6 15.63c0-.58.22-1.15.66-1.59.88-.88 2.3-.88 3.18 0L24 28.2l14.17-14.17c.88-.88 2.3-.88 3.18 0s.88 2.3 0 3.18L24 34.56 6.65 17.22c-.44-.44-.66-1.01-.66-1.59Z"/></symbol><symbol id="s64" viewBox="0 0 64 64"><path d="M8.49 20.99a2.499 2.499 0 0 1 4.27-1.77l19.23 19.23L51.24 19.2c.98-.98 2.56-.98 3.54 0s.98 2.56 0 3.54L32 45.52 9.23 22.76a2.5 2.5 0 0 1-.73-1.77Z"/></symbol><use style="display: var(--s16, none)" href="#s16"/><use style="display: var(--s24, none)" href="#s24"/><use style="display: var(--s32, none)" href="#s32"/><use style="display: var(--s40, none)" href="#s40"/><use style="display: var(--s48, none)" href="#s48"/><use style="display: var(--s64, none)" href="#s64"/></symbol></defs><style>@media (max-width: 23.98px) {g{--s16:block;}}@media (min-width: 24px) and (max-width: 31.98px) {g{--s24:block;}}@media (min-width: 32px) and (max-width: 39.98px) {g{--s32:block;}}@media (min-width: 40px) and (max-width: 47.98px) {g{--s40:block;}}@media (min-width: 48px) and (max-width: 63.98px) {g{--s48:block;}}@media (min-width: 64px) {g{--s64:block;}}</style><g><use href="#i-chevrondown-solid"/></g></svg>