<svg xmlns="http://www.w3.org/2000/svg"><defs><symbol id="i-chevrondown"><symbol id="s16" viewBox="0 0 16 16"><path d="M2.01 5.22c0-.19.07-.38.22-.53.29-.29.77-.29 1.06 0l4.72 4.72 4.72-4.72c.29-.29.77-.29 1.06 0s.29.77 0 1.06l-5.78 5.78-5.78-5.78a.74.74 0 0 1-.22-.53"/></symbol><symbol id="s24" viewBox="0 0 24 24"><path d="M3.26 7.85c0-.22.08-.45.26-.62.34-.34.9-.34 1.24 0l7.26 7.26 7.26-7.26c.34-.34.9-.34 1.24 0s.34.9 0 1.24l-8.5 8.5-8.51-8.5a.9.9 0 0 1-.26-.62Z"/></symbol><symbol id="s32" viewBox="0 0 32 32"><path d="M4.5 10.54c0-.26.1-.51.29-.71a.996.996 0 0 1 1.41 0l9.79 9.79 9.8-9.8a.996.996 0 1 1 1.41 1.41L15.99 22.44 4.8 11.25c-.2-.2-.29-.45-.29-.71Z"/></symbol><symbol id="s40" viewBox="0 0 40 40"><path d="M5.8 13.17a1.123 1.123 0 0 1 1.92-.8L20.05 24.7l12.34-12.34c.44-.44 1.15-.44 1.59 0s.44 1.15 0 1.59L20.05 27.88 6.13 13.97c-.22-.22-.33-.51-.33-.8"/></symbol><symbol id="s48" viewBox="0 0 48 48"><path d="M7 15.87c0-.32.12-.64.37-.88a1.25 1.25 0 0 1 1.77 0l14.87 14.87 14.88-14.88c.49-.49 1.28-.49 1.77 0s.49 1.28 0 1.77L24.02 33.39 7.37 16.75c-.24-.24-.37-.56-.37-.88"/></symbol><symbol id="s64" viewBox="0 0 64 64"><path d="M9.63 21.24a1.38 1.38 0 0 1 2.35-.97L32.01 40.3l20.04-20.04c.54-.54 1.41-.54 1.95 0s.54 1.41 0 1.95L32.01 44.19 10.03 22.22c-.27-.27-.4-.62-.4-.97ZM0 .03h64v64H0z"/></symbol><use style="display: var(--s16, none)" href="#s16"/><use style="display: var(--s24, none)" href="#s24"/><use style="display: var(--s32, none)" href="#s32"/><use style="display: var(--s40, none)" href="#s40"/><use style="display: var(--s48, none)" href="#s48"/><use style="display: var(--s64, none)" href="#s64"/></symbol></defs><style>@media (max-width: 23.98px) {g{--s16:block;}}@media (min-width: 24px) and (max-width: 31.98px) {g{--s24:block;}}@media (min-width: 32px) and (max-width: 39.98px) {g{--s32:block;}}@media (min-width: 40px) and (max-width: 47.98px) {g{--s40:block;}}@media (min-width: 48px) and (max-width: 63.98px) {g{--s48:block;}}@media (min-width: 64px) {g{--s64:block;}}</style><g><use href="#i-chevrondown"/></g></svg>