<svg xmlns="http://www.w3.org/2000/svg"><defs><symbol id="i-chevronleftwide-solid"><symbol id="s16" viewBox="0 0 16 16"><path d="M11.36 16c-.32 0-.64-.12-.88-.37L2.85 8 10.48.37c.49-.49 1.28-.49 1.77 0s.49 1.28 0 1.77L6.38 8.01l5.86 5.86c.49.49.49 1.28 0 1.77-.24.24-.56.37-.88.37Z"/></symbol><symbol id="s24" viewBox="0 0 24 24"><path d="M17.24 24c-.38 0-.77-.15-1.06-.44L4.62 12 16.19.44c.59-.59 1.54-.59 2.12 0s.59 1.54 0 2.12L8.87 12l9.44 9.44c.59.59.59 1.54 0 2.12-.29.29-.68.44-1.06.44Z"/></symbol><symbol id="s32" viewBox="0 0 32 32"><path d="M23.12 32c-.45 0-.9-.17-1.24-.51L6.4 16.01 21.89.51c.68-.68 1.79-.68 2.48 0s.68 1.79 0 2.48L11.35 16.01l13.01 13.01c.68.68.68 1.79 0 2.48-.34.34-.79.51-1.24.51Z"/></symbol><symbol id="s40" viewBox="0 0 40 40"><path d="M28.99 40.01c-.51 0-1.02-.2-1.41-.59L8.17 20.01 27.59.59c.78-.78 2.05-.78 2.83 0s.78 2.05 0 2.83L13.83 20.01l16.58 16.58A2.004 2.004 0 0 1 29 40.01Z"/></symbol><symbol id="s48" viewBox="0 0 48 48"><path d="M34.86 48c-.58 0-1.15-.22-1.59-.66L9.94 24.01 33.29.66c.88-.88 2.3-.88 3.18 0s.88 2.3 0 3.18L16.3 24.01l20.15 20.15c.88.88.88 2.3 0 3.18-.44.44-1.01.66-1.59.66"/></symbol><symbol id="s64" viewBox="0 0 64 64"><path d="M46.73 64c-.64 0-1.28-.24-1.77-.73L13.7 32.01 44.98.73c.98-.98 2.56-.98 3.53 0s.98 2.56 0 3.53L20.77 32 48.5 59.73c.98.98.98 2.56 0 3.53-.49.49-1.13.73-1.77.73Z"/></symbol><use style="display: var(--s16, none)" href="#s16"/><use style="display: var(--s24, none)" href="#s24"/><use style="display: var(--s32, none)" href="#s32"/><use style="display: var(--s40, none)" href="#s40"/><use style="display: var(--s48, none)" href="#s48"/><use style="display: var(--s64, none)" href="#s64"/></symbol></defs><style>@media (max-width: 23.98px) {g{--s16:block;}}@media (min-width: 24px) and (max-width: 31.98px) {g{--s24:block;}}@media (min-width: 32px) and (max-width: 39.98px) {g{--s32:block;}}@media (min-width: 40px) and (max-width: 47.98px) {g{--s40:block;}}@media (min-width: 48px) and (max-width: 63.98px) {g{--s48:block;}}@media (min-width: 64px) {g{--s64:block;}}</style><g><use href="#i-chevronleftwide-solid"/></g></svg>