<svg xmlns="http://www.w3.org/2000/svg"><defs><symbol id="i-closex"><symbol id="s16" viewBox="0 0 16 16"><path d="M13.66 2.35c.29.29.29.77 0 1.06L9.07 8l4.59 4.59c.29.29.29.77 0 1.06s-.77.29-1.06 0L8.01 9.06l-4.59 4.59c-.29.29-.77.29-1.06 0s-.29-.77 0-1.06L6.95 8l-4.6-4.59c-.29-.29-.29-.77 0-1.06s.77-.29 1.06 0L8 6.94l4.59-4.59c.29-.29.77-.29 1.06 0Z"/></symbol><symbol id="s24" viewBox="0 0 24 24"><path d="M20.47 3.52c.34.34.34.9 0 1.24l-7.25 7.25 7.25 7.25c.34.34.34.9 0 1.24s-.9.34-1.24 0l-7.25-7.25-7.25 7.25c-.34.34-.9.34-1.24 0s-.34-.9 0-1.24l7.25-7.25-7.23-7.26c-.34-.34-.34-.9 0-1.24s.9-.34 1.24 0L12 10.76l7.25-7.25c.34-.34.9-.34 1.24 0Z"/></symbol><symbol id="s32" viewBox="0 0 32 32"><path d="M27.28 4.68c.39.39.39 1.02 0 1.41l-9.9 9.9 9.9 9.9a.996.996 0 1 1-1.41 1.41l-9.9-9.9-9.9 9.9a.996.996 0 1 1-1.41-1.41l9.9-9.9-9.9-9.89a.996.996 0 1 1 1.41-1.41l9.9 9.9 9.9-9.9a.996.996 0 0 1 1.41 0Z"/></symbol><symbol id="s40" viewBox="0 0 40 40"><path d="M34.14 5.86c.44.44.44 1.15 0 1.59L21.59 20l12.55 12.55c.44.44.44 1.15 0 1.59s-1.15.44-1.59 0L20 21.59 7.45 34.14c-.44.44-1.15.44-1.59 0s-.44-1.15 0-1.59L18.41 20 5.86 7.45c-.44-.44-.44-1.15 0-1.59s1.15-.44 1.59 0L20 18.41 32.55 5.86c.44-.44 1.15-.44 1.59 0"/></symbol><symbol id="s48" viewBox="0 0 48 48"><path d="M40.89 7.1c.49.49.49 1.28 0 1.77L25.76 24l15.13 15.13c.49.49.49 1.28 0 1.77s-1.28.49-1.77 0L23.99 25.77 8.86 40.9c-.49.49-1.28.49-1.77 0s-.49-1.28 0-1.77L22.22 24 7.09 8.86c-.49-.49-.49-1.28 0-1.77s1.28-.49 1.77 0l15.13 15.13L39.12 7.09a1.25 1.25 0 0 1 1.77 0Z"/></symbol><symbol id="s64" viewBox="0 0 64 64"><path d="M54.62 9.36c.54.54.54 1.41 0 1.94L33.94 31.98l20.68 20.68c.54.54.54 1.41 0 1.94s-1.41.54-1.94 0L32 33.92 11.32 54.6c-.54.54-1.41.54-1.94 0s-.54-1.41 0-1.94l20.68-20.68L9.37 11.3c-.54-.54-.54-1.41 0-1.94s1.41-.54 1.94 0l20.68 20.68L52.67 9.36c.54-.54 1.41-.54 1.94 0Z"/></symbol><use style="display: var(--s16, none)" href="#s16"/><use style="display: var(--s24, none)" href="#s24"/><use style="display: var(--s32, none)" href="#s32"/><use style="display: var(--s40, none)" href="#s40"/><use style="display: var(--s48, none)" href="#s48"/><use style="display: var(--s64, none)" href="#s64"/></symbol></defs><style>@media (max-width: 23.98px) {g{--s16:block;}}@media (min-width: 24px) and (max-width: 31.98px) {g{--s24:block;}}@media (min-width: 32px) and (max-width: 39.98px) {g{--s32:block;}}@media (min-width: 40px) and (max-width: 47.98px) {g{--s40:block;}}@media (min-width: 48px) and (max-width: 63.98px) {g{--s48:block;}}@media (min-width: 64px) {g{--s64:block;}}</style><g><use href="#i-closex"/></g></svg>