<svg xmlns="http://www.w3.org/2000/svg"><defs><symbol id="i-closexwide"><symbol id="s16" viewBox="0 0 16 16"><path d="M15.78 14.72c.29.29.29.77 0 1.06-.15.15-.34.22-.53.22s-.38-.07-.53-.22L8 9.06l-6.72 6.72c-.15.15-.34.22-.53.22s-.38-.07-.53-.22a.754.754 0 0 1 0-1.06L6.94 8 .22 1.28C-.08.99-.08.51.22.22s.77-.29 1.06 0L8 6.94 14.72.22c.29-.29.77-.29 1.06 0s.29.77 0 1.06L9.06 8z"/></symbol><symbol id="s24" viewBox="0 0 24 24"><path d="M23.74 22.51a.881.881 0 0 1-.62 1.5c-.22 0-.45-.08-.62-.26L11.99 13.24l-10.5 10.5c-.17.17-.4.26-.62.26s-.45-.08-.62-.26a.88.88 0 0 1 0-1.24l10.51-10.51L.25 1.49a.87.87 0 0 1 0-1.23c.34-.35.89-.35 1.24 0L12 10.77 22.5.26c.34-.34.9-.34 1.24 0s.34.9 0 1.24L13.23 12.01l10.51 10.51Z"/></symbol><symbol id="s32" viewBox="0 0 32 32"><path d="M31.68 30.29a.996.996 0 0 1-.71 1.7c-.26 0-.51-.1-.71-.29L15.97 17.41 1.68 31.7c-.2.2-.45.29-.71.29s-.51-.1-.71-.29a.996.996 0 0 1 0-1.41L14.55 16 .26 1.7C-.13 1.31-.13.68.26.29s1.03-.39 1.42 0l14.29 14.29L30.26.29a.996.996 0 1 1 1.41 1.41L17.38 15.99l14.29 14.29Z"/></symbol><symbol id="s40" viewBox="0 0 40 40"><path d="M39.67 38.08a1.123 1.123 0 0 1-.8 1.92c-.29 0-.58-.11-.8-.33L19.99 21.59 1.92 39.67c-.22.22-.51.33-.8.33s-.58-.11-.8-.33c-.44-.44-.44-1.15 0-1.59L18.4 20 .33 1.92C-.11 1.48-.11.77.33.33s1.15-.44 1.59 0L20 18.41 38.08.33c.44-.44 1.15-.44 1.59 0s.44 1.15 0 1.59L21.59 20z"/></symbol><symbol id="s48" viewBox="0 0 48 48"><path d="M47.63 45.86c.49.49.49 1.28 0 1.77-.24.24-.56.37-.88.37s-.64-.12-.88-.37L24 25.76 2.13 47.63c-.24.24-.56.37-.88.37s-.64-.12-.88-.37a1.25 1.25 0 0 1 0-1.77l21.87-21.87L.36 2.13C-.13 1.64-.13.85.36.36s1.28-.49 1.77 0L24 22.23 45.86.36c.49-.49 1.28-.49 1.77 0s.49 1.28 0 1.77L25.76 24l21.87 21.87Z"/></symbol><symbol id="s64" viewBox="0 0 64 64"><path d="M63.6 61.63a1.376 1.376 0 0 1-1.94 1.95L32.01 33.93 2.35 63.58c-.27.27-.62.4-.97.4s-.7-.13-.97-.4c-.54-.54-.54-1.41 0-1.95l29.65-29.65L.4 2.33C-.14 1.79-.14.92.4.38c.54-.53 1.41-.53 1.95 0L32 30.03 61.65.38c.54-.54 1.41-.54 1.95 0s.54 1.41 0 1.95L33.95 31.98z"/></symbol><use style="display: var(--s16, none)" href="#s16"/><use style="display: var(--s24, none)" href="#s24"/><use style="display: var(--s32, none)" href="#s32"/><use style="display: var(--s40, none)" href="#s40"/><use style="display: var(--s48, none)" href="#s48"/><use style="display: var(--s64, none)" href="#s64"/></symbol></defs><style>@media (max-width: 23.98px) {g{--s16:block;}}@media (min-width: 24px) and (max-width: 31.98px) {g{--s24:block;}}@media (min-width: 32px) and (max-width: 39.98px) {g{--s32:block;}}@media (min-width: 40px) and (max-width: 47.98px) {g{--s40:block;}}@media (min-width: 48px) and (max-width: 63.98px) {g{--s48:block;}}@media (min-width: 64px) {g{--s64:block;}}</style><g><use href="#i-closexwide"/></g></svg>