<svg xmlns="http://www.w3.org/2000/svg"><defs><symbol id="i-closexwide-solid"><symbol id="s16" viewBox="0 0 16 16"><path d="M15.64 13.87c.49.49.49 1.28 0 1.77-.24.24-.56.37-.88.37s-.64-.12-.88-.37L8.01 9.77l-5.87 5.87c-.24.24-.56.37-.88.37s-.64-.12-.88-.37a1.25 1.25 0 0 1 0-1.77L6.25 8 .37 2.13C-.12 1.64-.12.85.37.36s1.28-.48 1.76 0L8 6.23 13.87.36c.49-.49 1.28-.49 1.77 0s.49 1.28 0 1.77L9.77 8z"/></symbol><symbol id="s24" viewBox="0 0 24 24"><path d="M23.56 21.44c.59.59.59 1.54 0 2.12-.29.29-.68.44-1.06.44s-.77-.15-1.06-.44L12 14.12l-9.44 9.44c-.29.29-.68.44-1.06.44s-.77-.15-1.06-.44a1.49 1.49 0 0 1 0-2.12L9.88 12 .44 2.56c-.59-.58-.59-1.53 0-2.12s1.54-.59 2.12 0L12 9.88 21.44.44c.59-.59 1.54-.59 2.12 0s.59 1.54 0 2.12L14.12 12z"/></symbol><symbol id="s32" viewBox="0 0 32 32"><path d="M31.49 31.49c-.34.34-.79.51-1.24.51s-.9-.17-1.24-.51L16 18.48 2.99 31.49c-.34.34-.79.51-1.24.51s-.9-.17-1.24-.51a1.75 1.75 0 0 1 0-2.47l13.01-13.01L.51 2.99C-.17 2.3-.17 1.2.51.51s1.8-.68 2.48 0L16 13.52 29.01.51c.68-.68 1.79-.68 2.47 0s.68 1.79 0 2.47L18.47 15.99 31.48 29c.68.68.68 1.79 0 2.47Z"/></symbol><symbol id="s40" viewBox="0 0 40 40"><path d="M39.41 36.53A2.004 2.004 0 0 1 38 39.95c-.51 0-1.02-.2-1.41-.59L20.01 22.78 3.42 39.36c-.39.39-.9.59-1.41.59s-1.02-.2-1.41-.59c-.78-.78-.78-2.05 0-2.83l16.58-16.58L.59 3.36C-.2 2.58-.2 1.31.59.53s2.04-.78 2.83 0L20 17.11 36.58.53c.78-.78 2.05-.78 2.83 0s.78 2.05 0 2.83L22.83 19.94l16.58 16.58Z"/></symbol><symbol id="s48" viewBox="0 0 48 48"><path d="M47.34 44.16A2.25 2.25 0 0 1 45.75 48c-.57 0-1.15-.22-1.59-.66L24 27.18 3.84 47.34c-.44.44-1.02.66-1.59.66a2.25 2.25 0 0 1-1.59-3.84L20.82 24 .66 3.84c-.88-.88-.88-2.3 0-3.18s2.3-.88 3.18 0L24 20.82 44.16.66c.88-.88 2.3-.88 3.18 0s.88 2.3 0 3.18L27.18 24z"/></symbol><symbol id="s64" viewBox="0 0 64 64"><path d="M63.27 59.73A2.499 2.499 0 0 1 61.5 64c-.64 0-1.28-.24-1.77-.73L32 35.54 4.27 63.27c-.49.49-1.13.73-1.77.73s-1.28-.24-1.77-.73c-.98-.98-.98-2.56 0-3.54L28.46 32 .73 4.27c-.97-.98-.97-2.56 0-3.54s2.56-.97 3.54 0L32 28.46 59.73.73c.98-.98 2.56-.98 3.54 0s.98 2.56 0 3.54L35.54 32z"/></symbol><use style="display: var(--s16, none)" href="#s16"/><use style="display: var(--s24, none)" href="#s24"/><use style="display: var(--s32, none)" href="#s32"/><use style="display: var(--s40, none)" href="#s40"/><use style="display: var(--s48, none)" href="#s48"/><use style="display: var(--s64, none)" href="#s64"/></symbol></defs><style>@media (max-width: 23.98px) {g{--s16:block;}}@media (min-width: 24px) and (max-width: 31.98px) {g{--s24:block;}}@media (min-width: 32px) and (max-width: 39.98px) {g{--s32:block;}}@media (min-width: 40px) and (max-width: 47.98px) {g{--s40:block;}}@media (min-width: 48px) and (max-width: 63.98px) {g{--s48:block;}}@media (min-width: 64px) {g{--s64:block;}}</style><g><use href="#i-closexwide-solid"/></g></svg>