<svg xmlns="http://www.w3.org/2000/svg"><defs><symbol id="i-cloudupload"><symbol id="s16" viewBox="0 0 16 16"><path d="M16 7.4c0 2.35-1.91 4.25-4.26 4.25h-1.53v-1.5h1.53c1.52 0 2.75-1.23 2.75-2.75s-1.24-2.75-2.75-2.75c-.28 0-.58.05-.9.17l-.7.24-.25-.7A4.34 4.34 0 0 0 5.83 1.5C3.45 1.5 1.5 3.44 1.5 5.82s1.94 4.33 4.33 4.33v1.5C2.62 11.65 0 9.04 0 5.82S2.62 0 5.83 0c2.21 0 4.22 1.26 5.2 3.21 2.64-.49 4.98 1.6 4.98 4.19Zm-5.48 1.91c.19 0 .38-.07.53-.22.29-.29.29-.77 0-1.06L8 4.98 4.95 8.03c-.29.29-.29.77 0 1.06s.77.29 1.06 0l1.24-1.24v8.14h1.5V7.85l1.24 1.24c.15.15.34.22.53.22"/></symbol><symbol id="s24" viewBox="0 0 24 24"><path d="M24 11.08c0 3.45-2.81 6.25-6.26 6.25H15.4v-1.75h2.34c2.48 0 4.5-2.02 4.5-4.5s-2.02-4.5-4.5-4.5c-.47 0-.95.09-1.48.27l-.82.29-.3-.82c-.99-2.74-3.59-4.57-6.48-4.57-3.82 0-6.92 3.1-6.92 6.91s3.1 6.91 6.92 6.91v1.75C3.89 17.33 0 13.45 0 8.67S3.89 0 8.68 0c3.34 0 6.39 1.97 7.81 4.97.43-.09.84-.14 1.26-.14 3.45 0 6.26 2.8 6.26 6.25Zm-7.59 2.12c.34-.34.34-.9 0-1.24l-4.4-4.4-4.4 4.4a.881.881 0 0 0 .62 1.5c.22 0 .45-.09.62-.26l2.29-2.28v13.09h1.76V10.92l2.29 2.28c.34.34.9.34 1.24 0Z"/></symbol><symbol id="s32" viewBox="0 0 32 32"><path d="M32 14.76c0 4.55-3.7 8.25-8.25 8.25h-3.16v-2h3.16c3.45 0 6.25-2.8 6.25-6.25s-2.8-6.25-6.25-6.25c-.65 0-1.32.12-2.05.38l-.93.33-.34-.93C19.07 4.53 15.49 2 11.52 2 6.27 1.99 2 6.26 2 11.5s4.27 9.51 9.51 9.51v2C5.17 23.01 0 17.85 0 11.5S5.17 0 11.52 0c4.49 0 8.57 2.66 10.43 6.73a7.5 7.5 0 0 1 1.8-.22c4.55 0 8.25 3.7 8.25 8.25m-10.96 3.03c.26 0 .51-.1.71-.29a.996.996 0 0 0 0-1.41l-5.74-5.74-5.74 5.74c-.39.39-.39 1.02 0 1.41s1.02.39 1.42 0l3.33-3.33v17.82h2V14.17l3.33 3.33c.2.2.45.29.71.29Z"/></symbol><symbol id="s40" viewBox="0 0 40 40"><path d="M40 18.46c0 5.66-4.6 10.26-10.25 10.26h-3.98v-2.25h3.98c4.41 0 8-3.59 8-8.01s-3.59-8.01-8-8.01c-.84 0-1.7.16-2.63.48l-1.05.37-.38-1.05c-1.73-4.79-6.29-8.01-11.34-8.01-6.67 0-12.1 5.44-12.1 12.12s5.43 12.12 12.11 12.12v2.25C6.44 28.73 0 22.28 0 14.36S6.44 0 14.36 0C20 0 25.12 3.37 27.41 8.5c.8-.2 1.57-.3 2.34-.3C35.4 8.2 40 12.8 40 18.46m-13.72 3.66a1.123 1.123 0 0 0 .8-1.92L20 13.12l-7.08 7.08c-.44.44-.44 1.15 0 1.59s1.15.44 1.59 0l4.36-4.37v22.57h2.25V17.42l4.36 4.37c.22.22.51.33.8.33"/></symbol><symbol id="s48" viewBox="0 0 48 48"><path d="M48.02 22.15c0 6.76-5.5 12.26-12.25 12.26h-4.79v-2.5h4.79c5.38 0 9.75-4.38 9.75-9.76s-4.37-9.76-9.75-9.76c-1.02 0-2.07.19-3.2.59l-1.17.41-.42-1.16c-2.1-5.82-7.63-9.73-13.77-9.73-8.1 0-14.7 6.6-14.7 14.71s6.59 14.71 14.7 14.71v2.5C7.73 34.41.02 26.69.02 17.2S7.73 0 17.21 0C24 0 30.16 4.07 32.89 10.26c.98-.25 1.93-.38 2.88-.38 6.76 0 12.25 5.5 12.25 12.26Zm-16.47 4.28c.32 0 .64-.12.88-.37.49-.49.49-1.28 0-1.77L24 15.86l-8.43 8.43c-.49.49-.49 1.28 0 1.77s1.28.49 1.77 0l5.41-5.41v27.34h2.5V20.65l5.41 5.42c.24.24.56.37.88.37Z"/></symbol><symbol id="s64" viewBox="0 0 64 64"><path d="M63.9 29.53c0 8.94-7.26 16.22-16.18 16.22h-6.45V43h6.45c7.41 0 13.44-6.04 13.44-13.46s-6.03-13.46-13.44-13.46c-1.41 0-2.86.26-4.41.81l-1.28.45-.46-1.28C38.69 8.1 31.13 2.75 22.75 2.75c-11.09-.02-20.1 9.01-20.1 20.11s9.01 20.13 20.09 20.13v2.75C10.15 45.74-.1 35.48-.1 22.86S10.15-.03 22.74-.03c9.1 0 17.35 5.54 20.93 13.91 1.39-.38 2.72-.57 4.05-.57 8.92 0 16.18 7.27 16.18 16.22m-21.85 5.4a1.376 1.376 0 0 0 .97-2.35L32 21.54 20.98 32.58c-.54.54-.54 1.41 0 1.95s1.41.54 1.94 0l7.7-7.72v37.16h2.75V26.81l7.7 7.72c.27.27.62.4.97.4Z"/></symbol><use style="display: var(--s16, none)" href="#s16"/><use style="display: var(--s24, none)" href="#s24"/><use style="display: var(--s32, none)" href="#s32"/><use style="display: var(--s40, none)" href="#s40"/><use style="display: var(--s48, none)" href="#s48"/><use style="display: var(--s64, none)" href="#s64"/></symbol></defs><style>@media (max-width: 23.98px) {g{--s16:block;}}@media (min-width: 24px) and (max-width: 31.98px) {g{--s24:block;}}@media (min-width: 32px) and (max-width: 39.98px) {g{--s32:block;}}@media (min-width: 40px) and (max-width: 47.98px) {g{--s40:block;}}@media (min-width: 48px) and (max-width: 63.98px) {g{--s48:block;}}@media (min-width: 64px) {g{--s64:block;}}</style><g><use href="#i-cloudupload"/></g></svg>