<svg xmlns="http://www.w3.org/2000/svg"><defs><symbol id="i-cloud"><symbol id="s16" viewBox="0 0 16 16"><path d="M11.74 13.82H5.83C2.61 13.82 0 11.21 0 8s2.61-5.82 5.83-5.82c2.2 0 4.21 1.27 5.19 3.21 2.62-.48 4.97 1.6 4.97 4.18 0 2.34-1.91 4.25-4.26 4.25ZM5.83 3.68C3.44 3.68 1.5 5.62 1.5 8s1.94 4.32 4.33 4.32h5.91c1.52 0 2.75-1.23 2.75-2.75s-1.24-2.75-2.75-2.75c-.29 0-.58.05-.9.17l-.7.24-.25-.7a4.34 4.34 0 0 0-4.06-2.86Z"/></symbol><symbol id="s24" viewBox="0 0 24 24"><path d="M17.73 20.63H8.66c-4.79 0-8.68-3.88-8.68-8.66s3.89-8.66 8.67-8.66c3.35 0 6.39 1.97 7.81 4.97.42-.09.84-.14 1.26-.14 3.45 0 6.26 2.8 6.26 6.25s-2.81 6.25-6.26 6.25ZM8.65 5.06c-3.82 0-6.92 3.1-6.92 6.91s3.1 6.91 6.92 6.91h9.07c2.48 0 4.5-2.02 4.5-4.5s-2.02-4.5-4.5-4.5c-.47 0-.95.09-1.48.27l-.82.29-.3-.81c-.99-2.73-3.6-4.57-6.48-4.57Z"/></symbol><symbol id="s32" viewBox="0 0 32 32"><path d="M23.74 27.47H11.51C5.16 27.47 0 22.31 0 15.97s5.16-11.5 11.51-11.5c4.49 0 8.57 2.67 10.43 6.73.61-.15 1.2-.22 1.8-.22 4.55 0 8.25 3.7 8.25 8.24s-3.7 8.24-8.25 8.24Zm-12.23-21C6.26 6.47 2 10.73 2 15.97s4.27 9.5 9.51 9.5h12.23c3.45 0 6.25-2.8 6.25-6.24s-2.8-6.24-6.25-6.24c-.65 0-1.32.12-2.05.38l-.93.33-.34-.93c-1.36-3.76-4.94-6.28-8.91-6.28Z"/></symbol><symbol id="s40" viewBox="0 0 40 40"><path d="M29.74 34.3H14.35C6.43 34.3 0 27.87 0 19.95S6.43 5.61 14.35 5.61c5.64 0 10.76 3.37 13.05 8.5.8-.2 1.57-.3 2.34-.3 5.65 0 10.25 4.6 10.25 10.25s-4.6 10.25-10.25 10.25ZM14.35 7.86c-6.67 0-12.1 5.43-12.1 12.1s5.43 12.1 12.1 12.1h15.39c4.41 0 8-3.59 8-8s-3.59-8-8-8c-.84 0-1.7.16-2.62.48l-1.05.37-.38-1.05c-1.73-4.79-6.29-8-11.34-8"/></symbol><symbol id="s48" viewBox="0 0 48 48"><path d="M35.74 41.15H17.19C7.71 41.15 0 33.44 0 23.97S7.71 6.79 17.19 6.79c6.78 0 12.94 4.07 15.67 10.25.98-.25 1.93-.38 2.88-.38 6.76 0 12.25 5.49 12.25 12.24s-5.5 12.24-12.25 12.24ZM17.19 9.29c-8.1 0-14.69 6.58-14.69 14.68s6.59 14.68 14.69 14.68h18.55c5.38 0 9.75-4.37 9.75-9.74s-4.37-9.74-9.75-9.74c-1.02 0-2.07.19-3.2.58l-1.17.41-.42-1.16c-2.1-5.81-7.63-9.71-13.76-9.71"/></symbol><symbol id="s64" viewBox="0 0 64 64"><path d="M47.81 54.75H22.84C10.24 54.75 0 44.52 0 31.94S10.24 9.13 22.84 9.13c9.1 0 17.35 5.52 20.92 13.85 1.39-.38 2.72-.56 4.05-.56 8.93 0 16.19 7.25 16.19 16.16s-7.26 16.16-16.19 16.16ZM22.84 11.88c-11.08 0-20.09 9-20.09 20.06S11.76 52 22.84 52h24.97c7.41 0 13.43-6.02 13.43-13.41s-6.03-13.41-13.43-13.41c-1.41 0-2.85.26-4.41.8l-1.29.45-.46-1.28c-2.88-7.93-10.44-13.26-18.82-13.26Z"/></symbol><use style="display: var(--s16, none)" href="#s16"/><use style="display: var(--s24, none)" href="#s24"/><use style="display: var(--s32, none)" href="#s32"/><use style="display: var(--s40, none)" href="#s40"/><use style="display: var(--s48, none)" href="#s48"/><use style="display: var(--s64, none)" href="#s64"/></symbol></defs><style>@media (max-width: 23.98px) {g{--s16:block;}}@media (min-width: 24px) and (max-width: 31.98px) {g{--s24:block;}}@media (min-width: 32px) and (max-width: 39.98px) {g{--s32:block;}}@media (min-width: 40px) and (max-width: 47.98px) {g{--s40:block;}}@media (min-width: 48px) and (max-width: 63.98px) {g{--s48:block;}}@media (min-width: 64px) {g{--s64:block;}}</style><g><use href="#i-cloud"/></g></svg>