<svg xmlns="http://www.w3.org/2000/svg"><defs><symbol id="i-cloudupload-solid"><symbol id="s16" viewBox="0 0 16 16"><path d="M16.07 7.52c0 2.04-1.35 3.75-3.2 4.32.51-.84.48-1.91-.08-2.73.47-.37.78-.94.78-1.59 0-1.12-.9-2.02-2.01-2.02q-.3 0-.66.12l-1.12.39-.09-.09-.38-1.07c-.5-1.38-1.81-2.31-3.26-2.31-1.92 0-3.48 1.57-3.48 3.5 0 1.04.46 1.96 1.17 2.6l-.18.19c-.62.63-.85 1.5-.67 2.31a6.03 6.03 0 0 1-2.82-5.1C.07 2.73 2.76.03 6.06.03c2.13 0 4.08 1.16 5.14 2.96 2.63-.23 4.88 1.9 4.88 4.52Zm-8-1.45L4.44 9.71c-.49.49-.49 1.29 0 1.78.24.25.56.37.88.37s.64-.12.88-.37l.61-.61v5.15h2.5v-5.15l.55.55c.49.49 1.28.49 1.77 0s.49-1.29 0-1.78L8.06 6.06Z"/></symbol><symbol id="s24" viewBox="0 0 24 24"><path d="M24.07 11.13c0 3.32-2.47 6.06-5.66 6.51.74-.92.86-2.15.36-3.18 1.34-.52 2.3-1.81 2.3-3.33 0-1.97-1.6-3.58-3.58-3.58-.37 0-.75.07-1.17.22l-1.4.49-.5-1.4c-.84-2.32-3.04-3.88-5.48-3.88-3.23 0-5.86 2.63-5.86 5.86 0 2.08 1.09 3.91 2.73 4.95a3.01 3.01 0 0 0-.67 3.05C2.15 15.42.07 12.38.07 8.85.07 3.97 4.04 0 8.93 0c3.25 0 6.21 1.8 7.75 4.61q.405-.06.81-.06c3.63 0 6.58 2.95 6.58 6.58m-12-1.49L6.9 14.81a1.49 1.49 0 0 0 0 2.12c.29.29.68.44 1.06.44s.77-.15 1.06-.44l1.55-1.55v8.6h3v-8.6l1.46 1.46c.59.59 1.54.59 2.12 0s.59-1.54 0-2.12l-5.09-5.09Z"/></symbol><symbol id="s32" viewBox="0 0 32 32"><path d="M32.07 14.83c0 4.76-3.88 8.64-8.64 8.64h-.09c.19-.13.38-.27.55-.44.89-.89 1.19-2.13.92-3.27 2.16-.61 3.75-2.57 3.75-4.92 0-2.83-2.31-5.14-5.14-5.14-.53 0-1.08.1-1.68.31l-1.64.57-.59-1.63C18.33 5.69 15.23 3.5 11.8 3.5c-4.53 0-8.23 3.69-8.23 8.23 0 3.02 1.64 5.65 4.07 7.09a3.47 3.47 0 0 0 .13 3.91c-4.49-1.65-7.7-5.95-7.7-11C.07 5.26 5.33 0 11.81 0c4.36 0 8.35 2.47 10.36 6.29.42-.07.84-.1 1.26-.1 4.76 0 8.64 3.88 8.64 8.64m-16-2.09-6.72 6.72a1.75 1.75 0 0 0 0 2.47c.34.34.79.51 1.24.51s.9-.17 1.24-.51l2.49-2.49V32h3.5V19.44l2.38 2.38c.68.68 1.79.68 2.48 0s.68-1.79 0-2.47l-6.61-6.6Z"/></symbol><symbol id="s40" viewBox="0 0 40 40"><path d="M40.03 18.51c0 5.9-4.8 10.7-10.71 10.7h-.74c.36-.18.7-.41 1-.71.94-.94 1.3-2.22 1.11-3.44 3.04-.64 5.32-3.33 5.32-6.55 0-3.69-3.01-6.7-6.7-6.7-.69 0-1.41.13-2.2.41l-1.87.65-.67-1.86c-1.52-4.2-5.51-7.02-9.94-7.02-5.85 0-10.61 4.76-10.61 10.6 0 4.06 2.3 7.59 5.65 9.37-.78 1.46-.59 3.29.57 4.57C4.34 26.67.03 21.13.03 14.6.03 6.54 6.59 0 14.65 0c5.49 0 10.5 3.13 12.97 7.96q.855-.15 1.71-.15c5.9 0 10.71 4.8 10.71 10.7Zm-11.82 5.77-8.13-8.13-8.28 8.27a2.004 2.004 0 1 0 2.84 2.83l3.44-3.44v16.17h4.01V23.81l3.3 3.29c.78.78 2.05.78 2.83 0s.78-2.05 0-2.83Z"/></symbol><symbol id="s48" viewBox="0 0 48 48"><path d="M33.73 32.44c-.88.88-2.31.88-3.19 0l-4.21-4.21v19.75h-4.51V28.23l-4.38 4.38c-.44.44-1.02.66-1.59.66a2.25 2.25 0 0 1-1.59-3.84l9.82-9.81 9.65 9.64c.88.88.88 2.3 0 3.18m1.52-23.01c-.71 0-1.43.07-2.15.2-2.94-5.84-8.97-9.64-15.58-9.64C7.87-.01.03 7.83.03 17.46c0 7.96 5.37 14.69 12.68 16.78-.01-.01-.03-.02-.05-.04-1.39-1.39-1.66-3.45-.86-5.12-4.29-2.12-7.26-6.53-7.26-11.62 0-7.15 5.83-12.97 12.99-12.97 5.42 0 10.3 3.45 12.16 8.58l.76 2.09 2.1-.73c.97-.34 1.86-.5 2.71-.5 4.56 0 8.26 3.7 8.26 8.25 0 4.11-3.02 7.51-6.96 8.14.14 1.31-.27 2.67-1.27 3.67-.43.43-.93.72-1.45.94h1.42c7.04 0 12.77-5.72 12.77-12.75S42.3 9.43 35.26 9.43Z"/></symbol><symbol id="s64" viewBox="0 0 64 64"><path d="m41.07 42.9-6.48-6.47v27.56h-5.02V36.43l-6.71 6.69c-.49.49-1.13.73-1.77.73s-1.28-.24-1.77-.73c-.98-.98-.98-2.56 0-3.54l12.77-12.73 12.54 12.51c.98.98.98 2.56 0 3.54s-2.57.98-3.55 0Zm6.17-30.13c-1.07 0-2.14.11-3.23.35C40.18 5.18 32.09-.01 23.19-.01 10.41-.01 0 10.36 0 23.1c0 11.26 8.12 20.66 18.82 22.7-.46-.23-.91-.52-1.29-.91-1.37-1.36-1.76-3.32-1.22-5.04C9.7 37.14 5.02 30.66 5.02 23.09c.01-9.97 8.15-18.1 18.17-18.1 7.57 0 14.41 4.81 17.01 11.98l.84 2.33 2.34-.82c1.37-.48 2.63-.71 3.85-.71 6.48 0 11.75 5.26 11.75 11.72S54 40.89 47.78 41.18a5 5 0 0 1-1.46 3.43c-1.09 1.09-2.55 1.55-3.97 1.43l.11.18h4.77c9.25 0 16.77-7.5 16.77-16.72s-7.52-16.72-16.77-16.72Z"/></symbol><use style="display: var(--s16, none)" href="#s16"/><use style="display: var(--s24, none)" href="#s24"/><use style="display: var(--s32, none)" href="#s32"/><use style="display: var(--s40, none)" href="#s40"/><use style="display: var(--s48, none)" href="#s48"/><use style="display: var(--s64, none)" href="#s64"/></symbol></defs><style>@media (max-width: 23.98px) {g{--s16:block;}}@media (min-width: 24px) and (max-width: 31.98px) {g{--s24:block;}}@media (min-width: 32px) and (max-width: 39.98px) {g{--s32:block;}}@media (min-width: 40px) and (max-width: 47.98px) {g{--s40:block;}}@media (min-width: 48px) and (max-width: 63.98px) {g{--s48:block;}}@media (min-width: 64px) {g{--s64:block;}}</style><g><use href="#i-cloudupload-solid"/></g></svg>