<svg xmlns="http://www.w3.org/2000/svg"><defs><symbol id="i-cloud-solid"><symbol id="s16" viewBox="0 0 16 16"><path d="M11.48 13.97h-5.5C2.68 13.97 0 11.3 0 8.01s2.68-5.97 5.98-5.97c2.13 0 4.07 1.15 5.14 2.94.12-.01.24-.02.37-.02 2.49 0 4.52 2.02 4.52 4.5s-2.03 4.5-4.52 4.5Zm-5.5-9.43C4.06 4.54 2.5 6.09 2.5 8s1.56 3.46 3.48 3.46h5.5c1.11 0 2.01-.9 2.01-2s-.9-2-2.01-2q-.3 0-.66.12l-1.17.41-.42-1.16c-.5-1.37-1.8-2.29-3.25-2.29"/></symbol><symbol id="s24" viewBox="0 0 24 24"><path d="M17.42 20.84H8.86C3.97 20.84 0 16.87 0 11.99s3.97-8.85 8.86-8.85c3.25 0 6.21 1.81 7.75 4.62q.405-.06.81-.06c3.63 0 6.58 2.95 6.58 6.57s-2.95 6.57-6.58 6.57M8.86 6.14C5.63 6.14 3 8.77 3 11.99s2.63 5.85 5.86 5.85h8.56c1.97 0 3.58-1.6 3.58-3.57s-1.6-3.57-3.58-3.57c-.37 0-.75.07-1.17.22l-1.4.49-.51-1.39a5.855 5.855 0 0 0-5.49-3.87Z"/></symbol><symbol id="s32" viewBox="0 0 32 32"><path d="M23.36 27.73H11.74C5.27 27.73 0 22.47 0 15.99S5.27 4.26 11.74 4.26c4.37 0 8.35 2.47 10.36 6.3.42-.07.84-.1 1.26-.1 4.76 0 8.64 3.88 8.64 8.64s-3.88 8.64-8.64 8.64ZM11.74 7.76C7.2 7.76 3.5 11.46 3.5 16s3.7 8.24 8.24 8.24h11.62c2.83 0 5.14-2.31 5.14-5.14s-2.31-5.14-5.14-5.14c-.53 0-1.08.1-1.69.31l-1.63.57-.59-1.63c-1.18-3.26-4.28-5.45-7.71-5.45"/></symbol><symbol id="s40" viewBox="0 0 40 40"><path d="M29.3 34.54H14.62C6.56 34.54 0 27.99 0 19.94s6.56-14.6 14.62-14.6c5.49 0 10.5 3.14 12.97 7.97q.855-.15 1.71-.15c5.9 0 10.71 4.8 10.71 10.7s-4.8 10.7-10.71 10.7ZM14.62 9.34c-5.85 0-10.61 4.76-10.61 10.6s4.76 10.6 10.61 10.6H29.3c3.69 0 6.7-3 6.7-6.7s-3.01-6.7-6.7-6.7c-.69 0-1.41.13-2.2.41l-1.87.65-.67-1.86c-1.52-4.2-5.51-7.01-9.94-7.01Z"/></symbol><symbol id="s48" viewBox="0 0 48 48"><path d="M35.23 41.43H17.49C7.84 41.43 0 33.58 0 23.95S7.84 6.47 17.49 6.47c6.61 0 12.64 3.8 15.58 9.65.73-.14 1.44-.2 2.16-.2 7.04 0 12.77 5.72 12.77 12.76s-5.73 12.76-12.77 12.76ZM17.49 10.97c-7.16 0-12.99 5.82-12.99 12.98s5.83 12.98 12.99 12.98h17.74c4.56 0 8.27-3.71 8.27-8.26s-3.71-8.26-8.27-8.26c-.86 0-1.74.16-2.71.5l-2.1.74-.76-2.09c-1.86-5.14-6.75-8.59-12.17-8.59"/></symbol><symbol id="s64" viewBox="0 0 64 64"><path d="M47.23 55.11H23.17C10.39 55.11 0 44.72 0 31.95S10.39 8.79 23.17 8.79c8.9 0 17 5.2 20.82 13.16 1.09-.23 2.16-.35 3.23-.35 9.25 0 16.77 7.52 16.77 16.76s-7.52 16.75-16.77 16.75ZM23.17 13.79C13.15 13.79 5 21.94 5 31.95s8.15 18.16 18.17 18.16h24.06c6.49 0 11.76-5.27 11.76-11.75S53.71 26.6 47.23 26.6c-1.23 0-2.49.23-3.86.71l-2.34.81-.84-2.32c-2.6-7.18-9.44-12.01-17.02-12.01"/></symbol><use style="display: var(--s16, none)" href="#s16"/><use style="display: var(--s24, none)" href="#s24"/><use style="display: var(--s32, none)" href="#s32"/><use style="display: var(--s40, none)" href="#s40"/><use style="display: var(--s48, none)" href="#s48"/><use style="display: var(--s64, none)" href="#s64"/></symbol></defs><style>@media (max-width: 23.98px) {g{--s16:block;}}@media (min-width: 24px) and (max-width: 31.98px) {g{--s24:block;}}@media (min-width: 32px) and (max-width: 39.98px) {g{--s32:block;}}@media (min-width: 40px) and (max-width: 47.98px) {g{--s40:block;}}@media (min-width: 48px) and (max-width: 63.98px) {g{--s48:block;}}@media (min-width: 64px) {g{--s64:block;}}</style><g><use href="#i-cloud-solid"/></g></svg>