<svg xmlns="http://www.w3.org/2000/svg"><defs><symbol id="i-coffee"><symbol id="s16" viewBox="0 0 16 16"><path d="M5.05 2.81c-.62-.55-.71-1.09-.68-1.45.06-.76.7-1.19.78-1.24a.751.751 0 0 1 .82 1.26c-.04.03-.09.08-.1.11 0-.02.05.07.18.19.58.51.69 1.05.68 1.41-.02.81-.64 1.34-.71 1.4-.14.11-.31.17-.48.17-.22 0-.43-.09-.58-.28a.75.75 0 0 1 .11-1.06c.06-.05.16-.19.16-.27 0-.05-.05-.14-.18-.25Zm2.55.26c0 .08-.1.21-.16.27-.32.26-.37.74-.1 1.06.15.18.36.28.58.28.17 0 .34-.06.48-.17.07-.06.69-.59.71-1.4 0-.36-.11-.89-.68-1.41-.14-.12-.18-.2-.18-.19 0-.03.06-.08.1-.11.34-.23.44-.69.22-1.03A.756.756 0 0 0 7.53.14c-.07.05-.72.48-.78 1.24-.03.36.07.9.68 1.45.13.12.18.21.18.25Zm8.39 4.38v1.66c0 .97-.79 1.75-1.75 1.75h-1.56c-.07.15-.16.3-.25.45 1.41.41 2.48 1.05 2.48 2.05 0 2.09-4.69 2.65-7.46 2.65s-7.46-.56-7.46-2.65c0-.9.88-1.52 2.1-1.92-.93-1.41-.9-3.27-.87-4.93V4.92h11.99v.78h1.02c.97 0 1.75.79 1.75 1.75ZM3.64 10.99c.69.71 1.86 1.05 3.58 1.05s2.88-.34 3.58-1.05c.99-1.01.96-2.76.93-4.45v-.12H2.72v.12c-.03 1.69-.06 3.45.92 4.45m9.72 2.37c-.21-.22-.93-.54-2.13-.8-.97.65-2.28.98-4.01.98s-2.94-.3-3.89-.9c-1 .24-1.61.52-1.8.72.38.39 2.35 1.15 5.91 1.15s5.54-.76 5.91-1.15Zm1.12-5.91c0-.14-.11-.25-.25-.25h-1c0 .72-.02 1.45-.13 2.16h1.13c.14 0 .25-.11.25-.25zm-7.86 3.99c.41 0 .75-.34.75-.75s-.34-.75-.75-.75c-1.37 0-1.61-.52-1.64-1.7 0-.42-.33-.74-.77-.74-.41 0-.74.35-.74.77.02.79.07 3.18 3.14 3.18Z"/></symbol><symbol id="s24" viewBox="0 0 24 24"><path d="M8 4.29c-.63-.72-.92-1.48-.86-2.25C7.23.94 8.01.27 8.1.2c.38-.31.93-.25 1.23.13.3.37.25.92-.12 1.22-.02.02-.31.28-.33.64-.02.28.12.59.43.94 1.58 1.78.67 3.63-.02 4.35-.17.18-.4.27-.63.27s-.44-.08-.61-.24a.88.88 0 0 1-.03-1.24c.2-.22.82-1.04-.02-1.98m3.58 1.98c-.33.35-.32.9.03 1.24.17.16.39.24.61.24.23 0 .46-.09.63-.27.7-.73 1.6-2.57.02-4.35-.3-.34-.45-.66-.43-.94.02-.36.31-.63.33-.64A.874.874 0 0 0 11.66.2c-.09.07-.87.74-.96 1.84-.06.78.22 1.54.86 2.25.84.95.23 1.76.02 1.98m12.38 6.21v1.98c0 1.48-1.2 2.68-2.68 2.68h-2.29c-.04.09-.08.17-.12.26 2.04.62 3.44 1.55 3.44 2.82 0 2.59-5.76 3.77-11.11 3.77S.09 22.81.09 20.22c0-1.15 1.14-2.01 2.86-2.63-1.05-2.01-1.03-4.53-.99-6.81 0-.44.02-.87.02-1.29v-.88h17.75v1.2h1.54c1.48 0 2.68 1.2 2.68 2.68ZM5.21 17.79c1.11 1.13 2.96 1.68 5.65 1.68s4.54-.55 5.65-1.68c1.59-1.62 1.54-4.34 1.49-6.98v-.45H3.72v.45c-.05 2.64-.1 5.37 1.49 6.98m12.63 1.13s-.05.07-.08.1c-1.46 1.49-3.72 2.21-6.9 2.21s-5.38-.71-6.84-2.15c-1.4.42-2.13.89-2.18 1.15.11.55 3.16 2.01 9.36 2.01s9.22-1.46 9.36-2.02c-.07-.3-.97-.85-2.72-1.3m4.37-6.44c0-.51-.42-.93-.93-.93h-1.52c.02 1.29-.01 2.62-.26 3.87l1.78-.03c.51 0 .93-.42.93-.93zM9.5 18.24c.48 0 .88-.39.88-.88s-.39-.88-.88-.88c-2.29 0-2.73-.96-2.77-2.86 0-.48-.42-.86-.89-.86-.48 0-.87.41-.86.89.02 1.13.09 4.58 4.52 4.58Z"/></symbol><symbol id="s32" viewBox="0 0 32 32"><path d="M11.68 5.45c-.82-.92-1.19-1.89-1.11-2.88.12-1.4 1.11-2.25 1.23-2.34a1.002 1.002 0 0 1 1.27 1.55c-.02.02-.46.42-.5.97-.03.42.18.88.61 1.37 2.03 2.29.87 4.65-.03 5.59-.2.2-.46.31-.72.31-.25 0-.5-.09-.69-.28-.4-.38-.41-1.02-.03-1.42.21-.23 1.22-1.46-.03-2.87m4.78 2.87c-.38.4-.37 1.03.03 1.42.19.19.44.28.69.28.26 0 .53-.1.72-.31.9-.93 2.05-3.3.03-5.59-.43-.49-.64-.95-.61-1.37.04-.56.48-.95.5-.97A1.002 1.002 0 0 0 16.55.23c-.11.09-1.11.94-1.23 2.34-.08.99.29 1.96 1.11 2.88 1.25 1.41.24 2.65.03 2.87m15.51 8.07v2.69c0 1.93-1.57 3.5-3.51 3.5h-2.77q-.195.48-.45.93c2.59.8 4.34 1.98 4.34 3.59 0 3.37-7.68 4.9-14.81 4.9s-14.8-1.53-14.8-4.9c0-1.54 1.62-2.7 4.06-3.5-1.59-2.77-1.53-6.35-1.47-9.58.01-.6.02-1.2.02-1.78v-1h24.06v1.64h1.81c1.93 0 3.51 1.57 3.51 3.5ZM6.68 23.82c1.57 1.6 4.17 2.38 7.93 2.38s6.36-.78 7.93-2.38c2.25-2.29 2.18-6.09 2.12-9.76 0-.27 0-.55-.01-.82H4.58c0 .27 0 .54-.01.82-.07 3.68-.13 7.48 2.12 9.76Zm17.29 1.41c-1.97 2-5.03 2.97-9.36 2.97s-7.3-.95-9.28-2.9c-2.22.62-3.36 1.36-3.36 1.8 0 .87 4.36 2.9 12.8 2.9s12.81-2.03 12.81-2.9c0-.46-1.23-1.24-3.62-1.87Zm5.99-8.84c0-.83-.67-1.5-1.5-1.5h-1.78c.03 1.89 0 3.86-.38 5.69h2.16c.83 0 1.5-.67 1.5-1.5zm-17.22 7.7c.55 0 1-.45 1-1s-.45-1-1-1c-3.29 0-3.97-1.52-4.03-4.14a1 1 0 0 0-1-.98h-.02c-.55.01-.99.47-.98 1.02.04 1.67.13 6.1 6.03 6.1"/></symbol><symbol id="s40" viewBox="0 0 40 40"><path d="M15.17 6.63c-1.01-1.12-1.47-2.3-1.37-3.5.14-1.7 1.36-2.72 1.5-2.84a1.122 1.122 0 0 1 1.42 1.74c-.03.02-.62.55-.68 1.29-.04.56.23 1.16.8 1.8 2.5 2.79 1.07 5.67-.03 6.81-.22.23-.51.34-.81.34s-.56-.11-.78-.32c-.45-.43-.46-1.14-.02-1.59.28-.3 1.62-1.9-.03-3.74Zm5.01 3.74c-.43.45-.42 1.16.02 1.59.22.21.5.32.78.32s.59-.11.81-.34c1.1-1.14 2.53-4.02.03-6.81-.57-.64-.84-1.24-.8-1.8.05-.75.65-1.27.68-1.29.48-.39.55-1.09.16-1.57S20.77-.09 20.28.3c-.14.11-1.36 1.14-1.5 2.84-.1 1.2.36 2.38 1.37 3.5 1.65 1.84.31 3.45.03 3.74ZM40 20.32v3.71a4.13 4.13 0 0 1-4.13 4.12h-3.75c-.19.47-.41.93-.66 1.36 3.34.99 5.61 2.47 5.61 4.48 0 4.15-9.61 6.04-18.54 6.04S0 38.15 0 34c0-1.91 2.05-3.34 5.12-4.33-2.08-3.49-2.01-8.06-1.93-12.17.01-.76.03-1.51.03-2.25v-1.12h30.07v1.12c0 .31 0 .63.01.95h2.58c2.27 0 4.13 1.85 4.13 4.12ZM8.14 29.95c2.01 2.05 5.32 3.04 10.1 3.04s8.09-1 10.11-3.04c2.88-2.92 2.79-7.75 2.71-12.41 0-.39-.01-.78-.02-1.16H5.45c0 .39-.01.77-.02 1.16-.08 4.66-.17 9.49 2.71 12.41m21.88 1.51s-.04.05-.06.07c-2.46 2.5-6.29 3.72-11.71 3.72s-9.19-1.2-11.65-3.66c-2.85.79-4.34 1.76-4.34 2.42 0 1.29 5.75 3.8 16.29 3.8s16.29-2.51 16.29-3.8c0-.69-1.66-1.72-4.81-2.54Zm7.73-11.14c0-1.03-.84-1.87-1.88-1.87h-2.55c.04 2.47.02 5.06-.51 7.46h3.06c1.03 0 1.88-.84 1.88-1.87v-3.71ZM15.9 30.05c.62 0 1.13-.5 1.13-1.12s-.5-1.12-1.13-1.12c-4.27 0-5.15-1.96-5.22-5.36-.01-.61-.51-1.1-1.13-1.1h-.02c-.62.01-1.11.53-1.1 1.15.04 2.07.16 7.56 7.47 7.56Z"/></symbol><symbol id="s48" viewBox="0 0 48 48"><path d="M18.25 7.77c-1.19-1.33-1.74-2.72-1.62-4.14.17-2 1.61-3.21 1.77-3.34.54-.43 1.33-.35 1.76.19s.35 1.32-.18 1.75c-.03.03-.78.68-.85 1.63-.05.7.28 1.46.99 2.25 2.96 3.3 1.27 6.72-.03 8.06-.25.25-.57.38-.9.38s-.63-.12-.87-.35a1.25 1.25 0 0 1-.03-1.77c.35-.37 2.01-2.36-.03-4.65Zm6.05 4.65c-.48.5-.47 1.29.03 1.77.24.24.56.35.87.35s.65-.13.9-.38c1.31-1.34 2.99-4.76.03-8.06-.71-.79-1.04-1.55-.99-2.25.07-.95.82-1.6.85-1.63.53-.43.61-1.22.18-1.75-.43-.54-1.22-.63-1.76-.19-.16.13-1.6 1.34-1.77 3.34-.12 1.42.43 2.81 1.62 4.14 2.05 2.29.38 4.28.03 4.65ZM48 24.25v4.69c0 2.62-2.14 4.75-4.76 4.75h-4.7c-.25.63-.55 1.25-.9 1.83 4.1 1.2 6.83 2.98 6.83 5.31 0 4.71-11.19 7.18-22.24 7.18S0 45.54 0 40.83c0-2.21 2.47-3.93 6.24-5.12-2.58-4.2-2.49-9.75-2.4-14.74.02-.92.03-1.82.03-2.71v-1.25h36.04v1.25c0 .41 0 .83.01 1.25h3.32c2.62 0 4.76 2.13 4.76 4.75ZM9.64 36.03c2.45 2.49 6.46 3.7 12.25 3.7s9.81-1.21 12.25-3.7c3.5-3.55 3.39-9.38 3.29-15.02 0-.51-.02-1.01-.02-1.51H6.37c0 .5-.01 1-.02 1.51-.1 5.64-.2 11.47 3.29 15.02m26.39 1.64s-.07.08-.1.12c-2.94 2.99-7.53 4.44-14.04 4.44s-11.06-1.44-14-4.41c-3.52.98-5.38 2.19-5.38 3.01 0 1.59 6.97 4.68 19.74 4.68s19.73-3.09 19.73-4.68c0-.86-2.05-2.15-5.94-3.16Zm9.47-13.42c0-1.24-1.01-2.25-2.25-2.25h-3.29c.05 3.05.03 6.25-.64 9.19h3.93c1.24 0 2.25-1.01 2.25-2.25zM19.06 35.97a1.25 1.25 0 0 0 0-2.5c-5.23 0-6.3-2.4-6.39-6.55-.01-.68-.57-1.22-1.25-1.22h-.03c-.69.01-1.24.59-1.23 1.28.05 2.46.19 9 8.89 9Z"/></symbol><symbol id="s64" viewBox="0 0 64 64"><path d="M24.51 9.93c-1.54-1.73-2.25-3.53-2.1-5.35.22-2.62 2.18-4.22 2.26-4.29.59-.48 1.46-.38 1.93.21s.38 1.45-.2 1.93c-.04.03-1.15.99-1.26 2.4-.08 1.03.4 2.13 1.41 3.27 3.82 4.28 1.65 8.7-.04 10.44-.27.28-.63.42-.99.42s-.69-.13-.96-.39c-.54-.53-.56-1.4-.03-1.94.31-.33 2.97-3.33-.04-6.69Zm8.11 6.69a1.373 1.373 0 0 0 .99 2.33c.35 0 .72-.14.99-.42 1.68-1.74 3.86-6.16.04-10.44-1.01-1.13-1.49-2.23-1.41-3.27.1-1.41 1.22-2.37 1.26-2.4.58-.48.68-1.34.2-1.93-.47-.59-1.34-.69-1.93-.21-.08.07-2.05 1.67-2.26 4.29-.15 1.82.56 3.62 2.1 5.35 3 3.36.35 6.37.04 6.69Zm31.33 15v7.76c0 2.96-2.41 5.37-5.37 5.37H52c-.43 1.07-.94 2.11-1.56 3.08 5.21 1.57 8.67 3.84 8.67 6.8 0 6.14-14.88 9.36-29.58 9.36S-.05 60.77-.05 54.63c0-2.96 3.47-5.24 8.7-6.81-3.69-5.71-3.56-13.43-3.44-20.35.02-1.26.04-2.5.04-3.72v-1.37h48.58v1.37c0 .82.02 1.67.03 2.51h4.71c2.96 0 5.37 2.41 5.37 5.37ZM12.56 48.34c3.41 3.48 8.97 5.17 16.99 5.17s13.58-1.69 16.99-5.17c4.88-4.97 4.74-13.03 4.6-20.83-.01-.81-.03-1.6-.04-2.4H8c0 .79-.02 1.59-.04 2.4-.14 7.8-.28 15.86 4.6 20.83m36.02 1.84s-.05.06-.08.09c-3.95 4.03-10.15 5.99-18.95 5.99S14.56 54.3 10.6 50.27c-.03-.03-.06-.07-.09-.1-4.99 1.34-7.82 3.06-7.82 4.46 0 2.7 10.45 6.61 26.83 6.61s26.83-3.92 26.83-6.61c0-1.39-2.81-3.11-7.78-4.45Zm12.63-18.56c0-1.45-1.18-2.62-2.62-2.62h-4.67c.06 4.33.02 8.88-1.02 13h5.69c1.45 0 2.62-1.18 2.62-2.62zM25.68 47.69c.76 0 1.37-.61 1.37-1.37s-.61-1.37-1.37-1.37c-7.39 0-8.95-3.56-9.07-9.31-.02-.76-.66-1.36-1.4-1.35-.76.02-1.36.64-1.34 1.4.12 5.59 1.57 12 11.82 12Z"/></symbol><use style="display: var(--s16, none)" href="#s16"/><use style="display: var(--s24, none)" href="#s24"/><use style="display: var(--s32, none)" href="#s32"/><use style="display: var(--s40, none)" href="#s40"/><use style="display: var(--s48, none)" href="#s48"/><use style="display: var(--s64, none)" href="#s64"/></symbol></defs><style>@media (max-width: 23.98px) {g{--s16:block;}}@media (min-width: 24px) and (max-width: 31.98px) {g{--s24:block;}}@media (min-width: 32px) and (max-width: 39.98px) {g{--s32:block;}}@media (min-width: 40px) and (max-width: 47.98px) {g{--s40:block;}}@media (min-width: 48px) and (max-width: 63.98px) {g{--s48:block;}}@media (min-width: 64px) {g{--s64:block;}}</style><g><use href="#i-coffee"/></g></svg>