<svg xmlns="http://www.w3.org/2000/svg"><defs><symbol id="i-comment-solid"><symbol id="s16" viewBox="0 0 16 16"><path d="M16 7.43C16 3.71 12.41.68 8 .68S0 3.71 0 7.43s3.59 6.75 8 6.75c1.29 0 2.57-.27 3.71-.78l4.28 1.99-1-4.7c.66-1 1-2.12 1-3.26ZM9.02 9.76H4.49v-1.5h4.53zm2.66-3.02H4.41v-1.5h7.27z"/></symbol><symbol id="s24" viewBox="0 0 24 24"><path d="M24.01 11.14c0-5.56-5.38-10.08-12-10.08S0 5.58 0 11.14s5.38 10.08 12 10.08c1.98 0 3.95-.42 5.7-1.22l6.19 2.87-1.44-6.79c1.02-1.51 1.55-3.22 1.55-4.95Zm-10.45 2.84H6.63v-1.75h6.93zm4.07-3.88H6.5V8.35h11.13z"/></symbol><symbol id="s32" viewBox="0 0 32 32"><path d="M32.01 14.84c0-7.4-7.18-13.41-16-13.41S0 7.44 0 14.84s7.18 13.41 16 13.41c2.68 0 5.32-.57 7.69-1.66l8.09 3.76-1.89-8.87c1.38-2.03 2.11-4.31 2.11-6.64ZM18.1 18.49H8.75v-2h9.35zm5.49-5.23H8.58v-2h15.01z"/></symbol><symbol id="s40" viewBox="0 0 40 40"><path d="M40.02 19.1c0-9.23-8.97-16.75-20-16.75S.02 9.86.02 19.1s8.97 16.75 20 16.75c3.37 0 6.7-.73 9.67-2.1l9.99 4.64-2.33-10.96c1.74-2.54 2.66-5.41 2.66-8.32Zm-13.45 7.2H10.88v-2.25h15.69zm-15.69-5.85V18.2h10.27v2.25zm18.69-5.85H10.66v-2.25h18.91z"/></symbol><symbol id="s48" viewBox="0 0 48 48"><path d="M47.93 22.98c0-11.07-10.77-20.08-24-20.08s-24 9.01-24 20.08 10.77 20.08 24 20.08c4.07 0 8.08-.88 11.66-2.55l11.89 5.52-2.77-13.04c2.11-3.05 3.22-6.5 3.22-10.01m-16.07 8.59H12.89v-2.5h18.97zM12.89 24.5V22h12.42v2.5zm22.6-7.08H12.62v-2.5h22.87z"/></symbol><symbol id="s64" viewBox="0 0 64 64"><path d="M64.01 30.62c0-14.73-14.36-26.72-32-26.72S0 15.89 0 30.62s14.36 26.72 32 26.72c5.48 0 10.89-1.19 15.7-3.46l15.59 7.24-3.63-17.09c2.85-4.09 4.35-8.71 4.35-13.41M42.65 41.86H17.19v-2.75h25.46zm-25.47-9.5v-2.75h16.67v2.75zm30.34-9.49H16.83v-2.75h30.69z"/></symbol><use style="display: var(--s16, none)" href="#s16"/><use style="display: var(--s24, none)" href="#s24"/><use style="display: var(--s32, none)" href="#s32"/><use style="display: var(--s40, none)" href="#s40"/><use style="display: var(--s48, none)" href="#s48"/><use style="display: var(--s64, none)" href="#s64"/></symbol></defs><style>@media (max-width: 23.98px) {g{--s16:block;}}@media (min-width: 24px) and (max-width: 31.98px) {g{--s24:block;}}@media (min-width: 32px) and (max-width: 39.98px) {g{--s32:block;}}@media (min-width: 40px) and (max-width: 47.98px) {g{--s40:block;}}@media (min-width: 48px) and (max-width: 63.98px) {g{--s48:block;}}@media (min-width: 64px) {g{--s64:block;}}</style><g><use href="#i-comment-solid"/></g></svg>