<svg xmlns="http://www.w3.org/2000/svg"><defs><symbol id="i-comment"><symbol id="s16" viewBox="0 0 16 16"><path d="M16 7.43C16 3.71 12.41.68 8 .68S0 3.71 0 7.43s3.59 6.75 8 6.75c1.29 0 2.57-.27 3.71-.78l4.28 1.99-1-4.7c.66-1 1-2.12 1-3.26Zm-2.09 5.34-2.2-1.02-.32.16c-1.02.51-2.19.77-3.38.77-3.58 0-6.5-2.36-6.5-5.25s2.92-5.25 6.5-5.25 6.5 2.36 6.5 5.25c0 .93-.31 1.85-.91 2.66l-.2.27zM4.4 5.24h7.27v1.5H4.4zm.09 3.02h4.53v1.5H4.49z"/></symbol><symbol id="s24" viewBox="0 0 24 24"><path d="M24 11.14c0-5.56-5.38-10.08-12-10.08S0 5.58 0 11.14s5.38 10.08 12 10.08c1.98 0 3.95-.42 5.7-1.22l6.19 2.87-1.44-6.79c1.02-1.51 1.55-3.22 1.55-4.95Zm-2.55 8.67-3.76-1.75-.38.19c-1.61.8-3.44 1.22-5.31 1.22-5.65 0-10.25-3.74-10.25-8.33S6.35 2.81 12 2.81s10.25 3.74 10.25 8.33c0 1.48-.5 2.95-1.45 4.24l-.23.32.87 4.11ZM6.48 8.34h11.16v1.75H6.48zm.14 3.89h6.95v1.75H6.62z"/></symbol><symbol id="s32" viewBox="0 0 32 32"><path d="M32 14.84c0-7.4-7.18-13.41-16-13.41S0 7.44 0 14.84s7.18 13.41 16 13.41c2.68 0 5.33-.57 7.69-1.66l8.09 3.76-1.89-8.87c1.38-2.03 2.11-4.31 2.11-6.64m-8.33 9.54-.43.21c-2.19 1.09-4.7 1.66-7.24 1.66-7.72 0-14-5.12-14-11.41S8.28 3.43 16 3.43s14 5.12 14 11.41c0 2.04-.69 4.05-1.98 5.83l-.27.36 1.24 5.82zM8.56 11.25h15.05v2H8.56zm.18 5.24h9.37v2H8.74z"/></symbol><symbol id="s40" viewBox="0 0 40 40"><path d="M40.01 19.15c0-9.23-8.97-16.75-20-16.75s-20 7.52-20 16.75 8.97 16.75 20 16.75c3.37 0 6.7-.73 9.67-2.1l9.99 4.64-2.33-10.96c1.74-2.54 2.66-5.41 2.66-8.32ZM29.66 31.3l-.48.24c-2.78 1.38-5.95 2.1-9.17 2.1-9.79 0-17.75-6.5-17.75-14.49S10.23 4.66 20.01 4.66s17.75 6.5 17.75 14.49c0 2.59-.87 5.16-2.52 7.41l-.3.41 1.6 7.53-6.88-3.19ZM10.65 12.39h18.93v2.25H10.65zm10.5 5.86v2.25H10.87v-2.25zm-10.28 5.86h15.7v2.25h-15.7z"/></symbol><symbol id="s48" viewBox="0 0 48 48"><path d="M47.93 22.98c0-11.07-10.77-20.08-24-20.08s-24 9.01-24 20.08 10.77 20.08 24 20.08c4.07 0 8.08-.88 11.66-2.55l11.89 5.52-2.77-13.04c2.11-3.06 3.22-6.5 3.22-10.01M35.56 37.75l-.54.27c-3.37 1.67-7.21 2.55-11.1 2.55-11.86 0-21.51-7.89-21.51-17.58S12.07 5.4 23.93 5.4s21.5 7.89 21.5 17.58c0 3.15-1.06 6.26-3.06 9l-.33.45L44 41.67zm-22.92-22.8h22.82v2.49H12.64zm12.66 7.06v2.49H12.9v-2.49zm-12.39 7.06h18.93v2.49H12.91z"/></symbol><symbol id="s64" viewBox="0 0 64 64"><path d="M64 30.62C64 15.89 49.65 3.9 32 3.9S0 15.89 0 30.62s14.35 26.72 32 26.72c5.48 0 10.89-1.19 15.69-3.46l15.59 7.24-3.63-17.09C62.5 39.94 64 35.32 64 30.62M47.67 50.84l-.59.29c-4.57 2.26-9.79 3.46-15.07 3.46-16.13 0-29.25-10.75-29.25-23.97S15.88 6.66 32 6.66s29.25 10.75 29.25 23.97c0 4.31-1.45 8.56-4.18 12.29l-.36.5 2.74 12.9-11.78-5.47ZM16.81 20.11h30.72v2.75H16.81zm17.04 9.5v2.75H17.16v-2.75zm-16.68 9.51h25.48v2.75H17.17z"/></symbol><use style="display: var(--s16, none)" href="#s16"/><use style="display: var(--s24, none)" href="#s24"/><use style="display: var(--s32, none)" href="#s32"/><use style="display: var(--s40, none)" href="#s40"/><use style="display: var(--s48, none)" href="#s48"/><use style="display: var(--s64, none)" href="#s64"/></symbol></defs><style>@media (max-width: 23.98px) {g{--s16:block;}}@media (min-width: 24px) and (max-width: 31.98px) {g{--s24:block;}}@media (min-width: 32px) and (max-width: 39.98px) {g{--s32:block;}}@media (min-width: 40px) and (max-width: 47.98px) {g{--s40:block;}}@media (min-width: 48px) and (max-width: 63.98px) {g{--s48:block;}}@media (min-width: 64px) {g{--s64:block;}}</style><g><use href="#i-comment"/></g></svg>