<svg xmlns="http://www.w3.org/2000/svg"><defs><symbol id="i-component-solid"><symbol id="s16" viewBox="0 0 16 16"><path d="m15.99 5.82-.02 6.84-7.23 3.35V9.17zM0 12.66l7.23 3.35V9.17L-.01 5.82zm11.98-9.38v.55c0 .08-.01.15-.03.22-.22 1.33-1.96 2.31-4.15 2.31s-3.93-.98-4.15-2.32a.8.8 0 0 1-.03-.21v-.39l-2.59 1.2L8 7.86l6.96-3.22-2.97-1.37ZM7.79 2.2c1.61 0 2.68-.66 2.68-1.1S9.41 0 7.79 0 5.11.66 5.11 1.1s1.07 1.1 2.68 1.1m0 2.66c1.59 0 2.64-.64 2.67-1.08v-.67c-.72.37-1.64.59-2.68.59s-1.97-.22-2.68-.59v.67c.03.44 1.09 1.08 2.67 1.08Z"/></symbol><symbol id="s24" viewBox="0 0 24 24"><path d="M7.92 1.66C7.92.99 9.41.02 11.73.02s3.81.97 3.81 1.64c0 .39-.52.89-1.42 1.23-.01 0-.02 0-.03.01-.18.07-.37.13-.58.18l-.11.03c-.19.04-.4.08-.61.11-.06 0-.12.02-.18.03-.28.03-.56.05-.87.05-.28 0-.55-.02-.81-.04-.16-.02-.31-.05-.46-.07-.08-.01-.17-.02-.25-.04-.21-.04-.39-.1-.58-.15-.01 0-.03 0-.05-.01-1.05-.34-1.66-.89-1.66-1.32Zm4.97 11.8v10.56l11.1-5.14.03-10.56-11.12 5.14ZM.04 18.88l11.1 5.14V13.46L.02 8.32l.03 10.56ZM17.29 3.86v1.51c0 .09-.01.19-.04.27-.29 1.74-2.6 3.03-5.52 3.03S6.49 7.38 6.21 5.63a.8.8 0 0 1-.04-.26V4.1L1.21 6.4l10.8 4.99L22.8 6.4l-5.52-2.54Zm-5.56 3.07c2.28 0 3.75-.94 3.79-1.61 0-.04 0-.08.01-.11V4.17c-.98.56-2.3.89-3.81.89s-2.83-.34-3.81-.89v1.04s.01.07.01.11c.04.67 1.51 1.61 3.79 1.61Z"/></symbol><symbol id="s32" viewBox="0 0 32 32"><path d="m31.98 10.73-.04 14.31-14.96 6.95V17.68zM.02 25.04l14.96 6.95V17.68l-15-6.95zM22.79 5.56V7.8c0 .11-.02.22-.05.32-.35 2.24-3.35 3.89-7.13 3.89s-6.78-1.66-7.13-3.9c-.03-.1-.05-.2-.05-.31V5.88L1.36 9.16l14.63 6.77 14.62-6.77-7.81-3.61ZM12.33 4.07c.21.08.42.15.66.22.04.01.09.02.13.04q.3.075.63.15c.12.02.25.04.38.06.16.02.32.05.49.07a10.6 10.6 0 0 0 2.05 0c.25-.03.48-.07.71-.11.08-.02.18-.02.26-.04.3-.06.58-.14.85-.22h.01c.27-.09.52-.19.75-.29.96-.45 1.54-1.04 1.54-1.6 0-1.13-2.22-2.36-5.18-2.36s-5.18 1.23-5.18 2.33c0 .63.74 1.29 1.91 1.75Zm3.28 5.94c2.95 0 5.09-1.2 5.16-2.28 0-.05 0-.09.02-.14V5.34c-1.3.81-3.12 1.31-5.18 1.31s-3.88-.5-5.18-1.31v2.25s.02.09.02.14c.07 1.08 2.21 2.28 5.16 2.28"/></symbol><symbol id="s40" viewBox="0 0 40 40"><path d="m39.98 13.16-.05 18.08L21.1 40V21.92zM.03 31.23l18.83 8.76V21.91L-.02 13.16zM28.32 6.72v3.53c0 .13-.02.26-.06.38-.42 2.73-4.1 4.75-8.74 4.75s-8.33-2.03-8.74-4.76q-.06-.165-.06-.36V7.13l-9.2 4.26 18.46 8.56 18.45-8.56-10.11-4.68ZM15.93 5.5h.01c.33.11.69.2 1.06.28h.04c.37.08.76.14 1.16.18h.05a13 13 0 0 0 2.7-.02h.07c.44-.05.86-.12 1.25-.22.02 0 .04-.01.06-.02.4-.09.77-.21 1.12-.33 0 0 .02 0 .03-.01.36-.13.68-.28.97-.44 1.02-.56 1.63-1.25 1.63-1.91C26.07 1.59 23.27 0 19.51 0s-6.56 1.59-6.56 3.02c0 .91 1.16 1.89 2.97 2.48Zm3.59 7.62c3.73 0 6.44-1.55 6.53-2.95q0-.09.03-.18V6.55c-1.6 1.06-3.92 1.73-6.56 1.73s-4.96-.66-6.56-1.73V10l.03.17c.09 1.39 2.8 2.95 6.53 2.95"/></symbol><symbol id="s48" viewBox="0 0 48 48"><path d="m47.98 15.61-.06 21.83L25.22 48V26.17l22.75-10.56ZM.04 37.44 22.74 48V26.17L-.02 15.61zM33.85 7.91v4.46c0 .15-.03.29-.07.42-.49 3.22-4.85 5.61-10.35 5.61s-9.88-2.4-10.36-5.63c-.05-.13-.07-.26-.07-.4V8.39L1.69 13.65 23.98 24l22.28-10.34zm-16.18-1.7c.7.36 1.55.66 2.51.87.48.11.99.19 1.53.25a15 15 0 0 0 2.6.06c.1 0 .2-.02.3-.02.2-.01.39-.03.58-.05.11-.01.22-.03.33-.04.17-.02.34-.05.51-.08a19 19 0 0 0 .79-.16c.1-.02.2-.05.3-.08l.44-.12.27-.09.42-.15c.08-.03.16-.06.23-.09.15-.06.29-.12.42-.19.06-.03.12-.05.17-.08.19-.09.37-.19.53-.29 1.1-.66 1.73-1.47 1.73-2.24C31.36 1.96 28.1 0 23.42 0s-7.93 1.95-7.93 3.71c0 .87.8 1.79 2.19 2.5Zm5.75 9.69c4.52 0 7.79-1.9 7.9-3.61 0-.07.01-.14.03-.2V7.78c-1.9 1.32-4.72 2.15-7.93 2.15s-6.04-.83-7.93-2.15v4.31c.02.06.03.13.03.2.11 1.71 3.39 3.61 7.9 3.61"/></symbol><symbol id="s64" viewBox="0 0 64 64"><path d="m63.98 20.32-.08 29.44-30.55 14.21V34.53zM.05 49.76 30.6 63.97V34.53L-.02 20.32l.08 29.44Zm44.69-39.61v6.42q0 .255-.09.48c-.6 4.13-6.26 7.2-13.42 7.2s-12.83-3.08-13.42-7.22c-.06-.15-.09-.3-.09-.46v-5.79L1.85 18.17l30.13 13.97 30.11-13.97-17.34-8.02Zm-13.5 11.37c6.21 0 10.56-2.6 10.72-5.03 0-.09.02-.17.04-.25V9.97c-2.45 1.89-6.32 3.1-10.76 3.1s-8.32-1.21-10.76-3.1v6.27c.02.08.04.16.04.25.16 2.43 4.51 5.03 10.72 5.03m0-11.2C37.58 10.32 42 7.59 42 5.15S37.58-.03 31.24-.03 20.48 2.7 20.48 5.14s4.42 5.17 10.76 5.17Z"/></symbol><use style="display: var(--s16, none)" href="#s16"/><use style="display: var(--s24, none)" href="#s24"/><use style="display: var(--s32, none)" href="#s32"/><use style="display: var(--s40, none)" href="#s40"/><use style="display: var(--s48, none)" href="#s48"/><use style="display: var(--s64, none)" href="#s64"/></symbol></defs><style>@media (max-width: 23.98px) {g{--s16:block;}}@media (min-width: 24px) and (max-width: 31.98px) {g{--s24:block;}}@media (min-width: 32px) and (max-width: 39.98px) {g{--s32:block;}}@media (min-width: 40px) and (max-width: 47.98px) {g{--s40:block;}}@media (min-width: 48px) and (max-width: 63.98px) {g{--s48:block;}}@media (min-width: 64px) {g{--s64:block;}}</style><g><use href="#i-component-solid"/></g></svg>