<svg xmlns="http://www.w3.org/2000/svg"><defs><symbol id="i-component"><symbol id="s16" viewBox="0 0 16 16"><path d="M15.99 4.87a.7.7 0 0 0-.08-.33.8.8 0 0 0-.24-.28s-.01-.02-.02-.02h-.03c-.02-.01-.04-.03-.06-.04l-4.34-2v-.37c0-.25-.13-.45-.31-.59C10.39.48 9.24-.01 7.83-.01s-2.55.5-3.08 1.24c-.18.14-.31.34-.31.59v.51L.43 4.19s-.04.03-.06.04H.34s-.01.02-.02.02c-.09.06-.17.14-.23.24 0 0 0 .02-.01.03-.05.1-.09.22-.09.34v.01l.02 7.01c0 .29.17.56.43.68l7.23 3.35h.04a.67.67 0 0 0 .56 0h.04l7.23-3.35c.26-.12.43-.39.43-.68l.02-7.02Zm-10.04-.9c.53.22 1.18.35 1.88.35s1.35-.13 1.88-.35v.22c-.01.17-.67.67-1.88.67s-1.86-.49-1.88-.67zm3.77-1.82c0 .17-.67.67-1.88.67s-1.88-.5-1.88-.67.67-.67 1.88-.67 1.88.5 1.88.67m-5.24 2.3c.19 1.12 1.56 1.91 3.36 1.91s3.16-.79 3.35-1.9q.03-.105.03-.21v-.4l2.23 1.03L7.99 7.4 2.53 4.88l1.92-.89v.26q0 .105.03.21ZM1.5 6.04l4.81 2.22.94.43v5.37l-5.73-2.65V6.04Zm7.24 8.02V8.69l5.74-2.65v5.37z"/></symbol><symbol id="s24" viewBox="0 0 24 24"><path d="M23.99 7.16v-.02a.7.7 0 0 0-.03-.21c0-.03-.02-.05-.03-.08-.02-.05-.04-.09-.06-.13-.02-.03-.04-.05-.06-.08-.03-.04-.05-.07-.09-.1-.03-.02-.05-.05-.08-.07-.02-.01-.03-.03-.05-.04 0 0-.02 0-.03-.01-.03-.02-.05-.04-.07-.05l-6.82-3.15v-.29c0-.12-.03-.24-.07-.35C16.25 1.08 14.29 0 11.75 0S7.25 1.08 6.9 2.58c-.05.11-.07.22-.07.35v.5L.5 6.37s-.05.03-.07.05c0 0-.02 0-.03.01a.12.12 0 0 0-.05.05.3.3 0 0 0-.08.07c-.03.03-.05.06-.08.09-.02.03-.05.06-.07.09s-.03.07-.05.1c-.02.04-.03.07-.04.11 0 .03 0 .06-.01.08 0 .05-.02.09-.02.14v.02l.03 10.79c0 .34.2.65.51.79l11.1 5.15h.04c.1.04.21.07.33.07s.22-.03.33-.07h.04l11.1-5.15c.31-.14.51-.45.51-.79l.03-10.81ZM8.58 5.41c.85.43 1.93.7 3.17.7s2.32-.27 3.17-.7v.7s-.01.07-.01.1c-.04.52-1.28 1.28-3.16 1.28s-3.12-.76-3.16-1.28c0-.03 0-.07-.01-.1zm3.17-3.66c1.91 0 3.17.79 3.17 1.3s-1.26 1.3-3.17 1.3-3.17-.79-3.17-1.3 1.26-1.3 3.17-1.3M6.87 6.53c.26 1.56 2.3 2.72 4.88 2.72s4.61-1.15 4.88-2.71c.03-.08.04-.17.04-.27V5.14l4.37 2.02-8.38 3.88-.66.31-9.05-4.19 3.88-1.8v.91c0 .09.01.18.04.26m-5.12 2 7.77 3.6 1.6.74v8.88l-9.35-4.34-.02-8.87Zm20.46 8.88-9.35 4.34v-8.88l9.37-4.34z"/></symbol><symbol id="s32" viewBox="0 0 32 32"><path d="M31.99 9.46v-.02q0-.12-.03-.24c0-.03-.02-.06-.04-.09-.02-.05-.04-.1-.07-.15a.6.6 0 0 0-.07-.09c-.03-.04-.06-.08-.1-.12a.6.6 0 0 0-.09-.07c-.02-.02-.04-.04-.06-.05s-.05-.02-.07-.03c-.02 0-.03-.02-.05-.03l-9.3-4.29v-.5s-.02-.07-.02-.11c-.22-2.13-2.91-3.69-6.43-3.69S9.45 1.54 9.23 3.64c0 .04-.02.07-.02.11v.79L.57 8.55s-.03.02-.05.03-.04.02-.07.03c-.02.02-.04.04-.06.05-.03.03-.07.05-.1.08s-.06.06-.08.1c-.03.04-.06.07-.08.11-.02.03-.03.07-.05.1-.02.05-.04.09-.06.15v.06c-.01.06-.03.13-.03.2v.03l.04 14.55c0 .39.23.74.58.91l14.96 6.95s.03 0 .05.01c.12.05.24.08.37.08s.25-.03.37-.08c.02 0 .03 0 .05-.01l14.96-6.95c.35-.16.58-.52.58-.91l.04-14.57ZM11.21 6.82c1.14.65 2.69 1.04 4.45 1.04s3.31-.39 4.45-1.04v1.74s-.01.09-.02.13c-.05.79-1.76 1.9-4.44 1.9s-4.38-1.11-4.43-1.9c0-.04 0-.09-.02-.13V6.82Zm4.45-4.84c2.72 0 4.45 1.15 4.45 1.94s-1.73 1.94-4.45 1.94-4.45-1.15-4.45-1.94 1.73-1.94 4.45-1.94M9.25 9.06c.32 2.03 3.01 3.53 6.4 3.53s6.07-1.5 6.4-3.52c.03-.1.05-.2.05-.31v-2.3l6.49 3-12.24 5.67-.37.17L3.37 9.46l5.84-2.71v2.01c0 .11.02.21.05.3Zm-7.26 1.97 12.99 6.02v12.37L2.02 23.4l-.03-12.36Zm27.96 12.36-12.96 6.02V17.04l3.76-1.74 9.23-4.28z"/></symbol><symbol id="s40" viewBox="0 0 40 40"><path d="M39.98 11.79v-.02c0-.09-.02-.19-.04-.28 0-.03-.03-.06-.04-.1-.02-.06-.05-.12-.08-.18-.02-.03-.04-.06-.07-.1-.04-.05-.07-.09-.12-.14-.03-.03-.06-.05-.09-.08-.03-.02-.05-.04-.07-.06-.03-.02-.05-.02-.08-.04-.02-.01-.04-.03-.06-.04L27.56 5.31v-.72l-.03-.13C27.25 1.9 23.93 0 19.57 0s-7.68 1.9-7.96 4.48c0 .05-.03.09-.03.13v1.07L.64 10.77s-.04.03-.06.04-.05.02-.07.03c-.03.02-.04.04-.07.06-.04.03-.08.06-.11.09s-.06.07-.09.11-.07.08-.09.13c-.02.03-.03.07-.05.1-.03.06-.05.11-.07.17v.04c-.02.08-.04.16-.04.25v.03l.05 18.3c0 .44.25.84.65 1.02l18.82 8.74s.04 0 .05.01c.14.05.28.09.42.09s.28-.04.42-.09c.02 0 .04 0 .05-.01l18.82-8.74c.4-.18.65-.58.65-1.02l.05-18.34ZM13.83 8.21c1.44.89 3.46 1.44 5.74 1.44s4.29-.55 5.74-1.44v2.84c-.01.05-.02.1-.02.16-.08 1.19-2.45 2.51-5.71 2.51s-5.63-1.33-5.71-2.51c0-.05-.01-.11-.02-.16V8.21Zm5.74-5.96c3.28 0 5.74 1.36 5.74 2.57s-2.45 2.57-5.74 2.57-5.74-1.36-5.74-2.57 2.45-2.57 5.74-2.57m-7.93 9.38c.38 2.5 3.72 4.35 7.93 4.35s7.53-1.84 7.93-4.33q.06-.165.06-.36V7.82l8.62 3.98-16.19 7.5-16.2-7.51 7.79-3.62v3.11c0 .12.02.24.06.35m-9.4 1.93 16.62 7.7v15.85l-16.57-7.7-.04-15.85Zm35.45 15.85-16.57 7.7V21.26l16.62-7.7-.04 15.85Z"/></symbol><symbol id="s48" viewBox="0 0 48 48"><path d="M47.98 14.1v-.02c0-.11-.02-.21-.04-.31-.01-.04-.03-.07-.04-.11-.03-.07-.05-.14-.09-.2-.02-.04-.05-.07-.07-.1a1 1 0 0 0-.14-.16c-.03-.03-.06-.06-.1-.08-.03-.02-.05-.05-.09-.07-.03-.02-.06-.03-.09-.04-.02-.01-.04-.03-.06-.04L33.01 6.39v-.93c0-.06-.03-.11-.04-.17C32.61 2.28 28.58 0 23.48 0s-9.13 2.29-9.49 5.28c0 .06-.04.11-.04.17v1.36L.71 12.97s-.04.03-.07.04c-.02.01-.05.02-.07.03-.03.02-.05.04-.07.06-.05.04-.09.07-.13.11-.03.03-.06.07-.09.11-.04.05-.08.1-.12.16-.02.03-.03.06-.04.09-.08.17-.13.34-.13.53v.05l.06 22.06c0 .49.28.93.72 1.13l22.69 10.54s.08.03.12.04l.09.03c.1.03.21.04.31.04s.21-.02.31-.04c.03 0 .06-.02.09-.03.04-.01.08-.02.12-.04l22.69-10.54c.44-.2.72-.65.72-1.13l.06-22.1ZM16.46 9.59c1.73 1.12 4.21 1.82 7.02 1.82s5.29-.7 7.02-1.82v3.63c-.01.06-.02.12-.03.19-.1 1.48-2.99 3.13-6.99 3.13s-6.89-1.65-6.99-3.13c0-.06-.01-.13-.03-.19zm7.02-7.09c4.02 0 7.02 1.69 7.02 3.2s-3 3.21-7.02 3.21-7.02-1.69-7.02-3.21 3-3.2 7.02-3.2m-9.45 11.39c.45 2.96 4.43 5.15 9.45 5.15s8.99-2.19 9.45-5.14c.04-.13.07-.27.07-.41V9.14l10.74 4.96-19.76 9.16L4.22 14.1l9.75-4.53v3.92c0 .14.02.27.07.4ZM2.5 16.07l20.24 9.37v19.34L2.55 35.41zm22.74 28.71V25.44l20.24-9.38-.05 19.34z"/></symbol><symbol id="s64" viewBox="0 0 64 64"><path d="M63.98 18.7v-.03c0-.11-.02-.23-.05-.34a.6.6 0 0 0-.05-.12c-.03-.07-.06-.15-.1-.22-.02-.04-.05-.08-.08-.12a.8.8 0 0 0-.15-.17c-.04-.03-.07-.07-.11-.1-.03-.02-.06-.05-.09-.08-.03-.02-.07-.03-.1-.05-.02-.01-.04-.03-.07-.04L43.82 8.49V7.04c0-.13-.02-.26-.06-.38C43.15 2.88 37.9.02 31.31.02S19.46 2.89 18.86 6.67c-.04.12-.06.25-.06.38v2.03L.77 17.45s-.05.03-.07.05c-.03.01-.06.02-.08.04-.03.02-.05.05-.08.07l-.15.12c-.04.04-.07.08-.1.11-.05.06-.09.12-.13.18a.3.3 0 0 1-.04.08c-.09.18-.15.39-.15.6v.06l.08 29.69c0 .54.31 1.02.8 1.25l30.54 14.19s.09.03.13.04c.03.01.07.03.1.04.11.03.23.05.35.05s.23-.02.35-.05c.04 0 .07-.02.1-.04.04-.02.09-.02.13-.04L63.09 49.7c.49-.23.8-.71.8-1.25l.08-29.75Zm-42.43-6.64c2.28 1.66 5.77 2.71 9.75 2.71s7.48-1.05 9.75-2.71v5.48c-.02.08-.03.16-.04.24-.14 2.17-4.08 4.5-9.72 4.5s-9.57-2.33-9.72-4.5c0-.08-.02-.16-.04-.23v-5.48Zm9.76-9.28c5.75 0 9.75 2.44 9.75 4.62s-4.01 4.62-9.75 4.62-9.75-2.44-9.75-4.62 4.01-4.62 9.75-4.62M18.88 18.33c.56 3.85 5.8 6.71 12.43 6.71s11.85-2.85 12.42-6.69c.05-.15.09-.31.09-.48v-6.33l15.5 7.16-27.33 12.66L4.64 18.7l14.16-6.58v5.75c0 .16.03.31.08.46M2.75 20.87l27.86 12.9v26.71L2.82 47.57zm58.39 26.7L33.35 60.48V33.77l27.86-12.91z"/></symbol><use style="display: var(--s16, none)" href="#s16"/><use style="display: var(--s24, none)" href="#s24"/><use style="display: var(--s32, none)" href="#s32"/><use style="display: var(--s40, none)" href="#s40"/><use style="display: var(--s48, none)" href="#s48"/><use style="display: var(--s64, none)" href="#s64"/></symbol></defs><style>@media (max-width: 23.98px) {g{--s16:block;}}@media (min-width: 24px) and (max-width: 31.98px) {g{--s24:block;}}@media (min-width: 32px) and (max-width: 39.98px) {g{--s32:block;}}@media (min-width: 40px) and (max-width: 47.98px) {g{--s40:block;}}@media (min-width: 48px) and (max-width: 63.98px) {g{--s48:block;}}@media (min-width: 64px) {g{--s64:block;}}</style><g><use href="#i-component"/></g></svg>