<svg xmlns="http://www.w3.org/2000/svg"><defs><symbol id="i-compass"><symbol id="s16" viewBox="0 0 16 16"><path d="M10.49 4.25 3.77 6.72c-.3.11-.49.39-.49.71s.2.6.49.7l2.84 1.03.94 2.74c.1.3.38.5.7.51.31 0 .59-.2.7-.49l2.48-6.71c.1-.27.03-.58-.17-.79a.73.73 0 0 0-.79-.17ZM8.3 9.43l-.38-1.09a.76.76 0 0 0-.45-.46l-1.25-.45 3.26-1.2-1.19 3.21ZM8-.01c-4.41 0-8 3.59-8 8s3.59 8 8 8 8-3.59 8-8-3.59-8-8-8m0 14.5c-3.58 0-6.5-2.92-6.5-6.5s2.92-6.5 6.5-6.5 6.5 2.92 6.5 6.5-2.92 6.5-6.5 6.5"/></symbol><symbol id="s24" viewBox="0 0 24 24"><path d="M15.91 6.53 5.6 10.32c-.34.13-.57.46-.57.82 0 .37.23.7.58.82l4.49 1.63 1.49 4.34c.12.35.45.59.82.59s.69-.23.82-.57l3.8-10.29a.87.87 0 0 0-1.12-1.12Zm-3.47 8.51-.83-2.41a.89.89 0 0 0-.53-.54l-2.63-.95 6.28-2.31zM11.99 0c-6.62 0-12 5.39-12 12.01s5.38 12 12 12 12-5.38 12-12S18.61 0 11.99 0m0 22.26c-5.65 0-10.25-4.6-10.25-10.25S6.34 1.76 11.99 1.76s10.25 4.6 10.25 10.25-4.6 10.25-10.25 10.25"/></symbol><symbol id="s32" viewBox="0 0 32 32"><path d="m21.32 8.8-13.9 5.11c-.39.14-.66.52-.65.94s.26.79.66.94l6.13 2.23 2.03 5.93c.14.4.51.67.93.68h.01c.42 0 .79-.26.94-.65L22.6 10.1c.13-.37.04-.78-.23-1.05a.98.98 0 0 0-1.05-.23Zm-4.74 11.84-1.28-3.73a.98.98 0 0 0-.6-.61l-4.01-1.46 9.3-3.42-3.4 9.22ZM15.98.01c-8.82 0-16 7.18-16 16s7.18 16 16 16 16-7.18 16-16-7.18-16-16-16m0 30c-7.72 0-14-6.28-14-14s6.28-14 14-14 14 6.28 14 14-6.28 14-14 14"/></symbol><symbol id="s40" viewBox="0 0 40 40"><path d="M26.75 11.04 9.27 17.47c-.45.16-.74.59-.74 1.06s.3.9.74 1.06l7.77 2.82 2.58 7.52c.15.45.58.76 1.05.76h.01c.47 0 .89-.29 1.06-.74l6.45-17.46c.15-.41.05-.88-.26-1.19s-.78-.41-1.19-.26ZM20.72 26.2l-1.73-5.03a1.11 1.11 0 0 0-.68-.69l-5.38-1.95 12.3-4.52-4.51 12.2ZM19.97 0c-11.02 0-20 8.97-20 19.99s8.97 20 20 20 20-8.97 20-20S31 0 19.97 0m0 37.74c-9.78 0-17.74-7.96-17.74-17.75S10.19 2.25 19.97 2.25s17.75 7.96 17.75 17.74-7.96 17.75-17.75 17.75"/></symbol><symbol id="s48" viewBox="0 0 48 48"><path d="m32.17 13.32-21.08 7.75c-.49.18-.82.65-.82 1.18s.33.99.82 1.17l9.42 3.42 3.13 9.11c.17.5.64.84 1.17.84h.01c.52 0 .99-.33 1.17-.82l7.77-21.05c.17-.46.06-.97-.29-1.32s-.86-.46-1.32-.29Zm-7.3 18.5-2.18-6.36c-.12-.36-.4-.64-.76-.77l-6.76-2.46 15.32-5.63zm-.9-31.8c-13.23 0-24 10.76-24 23.99s10.77 24 24 24 24-10.77 24-24S37.2.02 23.97.02m0 45.49c-11.85 0-21.5-9.64-21.5-21.5s9.64-21.49 21.5-21.49 21.5 9.64 21.5 21.5-9.64 21.5-21.5 21.5Z"/></symbol><symbol id="s64" viewBox="0 0 64 64"><path d="M43.11 17.92 14.74 28.35c-.54.2-.9.72-.9 1.3s.36 1.09.91 1.29l12.82 4.66L31.83 48c.19.55.7.92 1.29.93h.02c.58 0 1.09-.36 1.29-.9L44.89 19.7c.19-.5.06-1.07-.32-1.45s-.94-.51-1.45-.32Zm-9.95 25.52-3.22-9.37c-.13-.39-.44-.7-.83-.85l-9.9-3.59 22.04-8.1zM31.96.02c-17.64 0-32 14.35-32 32s14.36 32 32 32 32-14.36 32-32-14.35-32-32-32m0 61.25c-16.13 0-29.25-13.12-29.25-29.25S15.84 2.77 31.96 2.77s29.25 13.12 29.25 29.25-13.12 29.25-29.25 29.25"/></symbol><use style="display: var(--s16, none)" href="#s16"/><use style="display: var(--s24, none)" href="#s24"/><use style="display: var(--s32, none)" href="#s32"/><use style="display: var(--s40, none)" href="#s40"/><use style="display: var(--s48, none)" href="#s48"/><use style="display: var(--s64, none)" href="#s64"/></symbol></defs><style>@media (max-width: 23.98px) {g{--s16:block;}}@media (min-width: 24px) and (max-width: 31.98px) {g{--s24:block;}}@media (min-width: 32px) and (max-width: 39.98px) {g{--s32:block;}}@media (min-width: 40px) and (max-width: 47.98px) {g{--s40:block;}}@media (min-width: 48px) and (max-width: 63.98px) {g{--s48:block;}}@media (min-width: 64px) {g{--s64:block;}}</style><g><use href="#i-compass"/></g></svg>