<svg xmlns="http://www.w3.org/2000/svg"><defs><symbol id="i-company"><symbol id="s16" viewBox="0 0 16 16"><path d="M6.99.02v5.44h-.72V4.38c0-.69-.56-1.25-1.25-1.25h-2c-.69 0-1.25.56-1.25 1.25v1.08H0v10.52L16 16V.02zM3.27 4.63h1.5v.82h-1.5zm2.3 9.85v-1.8H2.83v1.8H1.49V6.96h5.49v7.52H5.56Zm8.93.02h-6V1.52h6zm-3.42-7.05H9.33V5.7h1.75zm2.59 0h-1.75V5.7h1.75zm-2.59-3H9.33V2.7h1.75zm2.59 0h-1.75V2.7h1.75zm-2.59 5.99H9.33V8.69h1.75zm2.59 0h-1.75V8.69h1.75zm-2.59 2.99H9.33v-1.75h1.75zm2.59 0h-1.75v-1.75h1.75zM2.06 10.16h1.75v1.75H2.06zm2.59 0H6.4v1.75H4.65zM2.06 7.65h1.75V9.4H2.06zm4.34 0V9.4H4.65V7.65z"/></symbol><symbol id="s24" viewBox="0 0 24 24"><path d="M10.73.01v8.36H9.07V6.7c0-.76-.62-1.38-1.38-1.38H4.08c-.76 0-1.38.62-1.38 1.38v1.67H0v15.61l24 .03v-24zM4.46 7.08h2.85v1.28H4.46zM7 22.23H5.44v-1.36H7zm1.75 0v-3.11H3.69v3.11H1.75V10.12h8.98v12.11zm13.5.03H12.5V8.37h-.01V1.76h9.76zm-5.81-11.39H14.3V8.74h2.14zm3.98 0h-2.14V8.74h2.14zm-3.98-4.6H14.3V4.14h2.14zm3.98 0h-2.14V4.14h2.14zm-3.98 9.2H14.3v-2.13h2.14zm3.98 0h-2.14v-2.13h2.14zm-3.98 4.59H14.3v-2.13h2.14zm3.98 0h-2.14v-2.13h2.14zM3.16 15.59H5.3v2.13H3.16zm3.97 0h2.14v2.13H7.13zm-3.97-3.85H5.3v2.13H3.16zm6.11 0v2.13H7.13v-2.13z"/></symbol><symbol id="s32" viewBox="0 0 32 32"><path d="M14.47 0v11.27h-2.6V8.66c0-.83-.67-1.5-1.5-1.5H5.16c-.83 0-1.5.67-1.5 1.5v2.61H0v20.69L32 32V0zM5.66 9.17h4.21v2.08H5.66zm3.78 20.65H6.98v-2.2h2.46zm5.03.14h-3.03v-4.34H4.98v4.34H2V13.28h12.47v16.69Zm15.52.04H16.48V2h13.51zm-9.42-15.72h-2.52v-2.52h2.52zm8.02 0h-2.52v-2.52h2.52zm-8.02-6.2h-2.52V5.56h2.52zm8.02 0h-2.52V5.56h2.52zm-8.02 12.4h-2.52v-2.52h2.52zm8.02 0h-2.52v-2.52h2.52zm-8.02 6.2h-2.52v-2.52h2.52zm8.02 0h-2.52v-2.52h2.52zm-4.01-12.4h-2.52v-2.52h2.52zm0-6.2h-2.52V5.56h2.52zm0 12.4h-2.52v-2.52h2.52zm0 6.2h-2.52v-2.52h2.52zM5.6 23.53H3.08v-2.52H5.6zm7.69 0h-2.52v-2.52h2.52zM5.6 18.34H3.08v-2.52H5.6zm7.69 0h-2.52v-2.52h2.52zm-3.76 5.19H7.01v-2.52h2.52zm0-5.19H7.01v-2.52h2.52z"/></symbol><symbol id="s40" viewBox="0 0 40 40"><path d="M18.21.02v14.19h-3.13v-2.85c0-.9-.73-1.62-1.63-1.62H6.64c-.9 0-1.63.73-1.63 1.62v2.85H0v25.81h40l-.01-40H18.2ZM7.26 11.98h5.56v2.19H7.26zm1.25 25.56v-3.03h3.36v3.03zm5.62.23v-5.51H6.27v5.51H2.24V16.46H18.2v21.31h-4.08Zm23.61 0H20.46V2.27h17.28zM25.61 17.72h-2.9v-2.9h2.9zm10.09 0h-2.9v-2.9h2.9zM25.61 9.93h-2.9v-2.9h2.9zm10.09 0h-2.9v-2.9h2.9zM25.61 25.52h-2.9v-2.9h2.9zm10.09 0h-2.9v-2.9h2.9zm-10.09 7.8h-2.9v-2.9h2.9zm10.09 0h-2.9v-2.9h2.9zm-5.04-15.6h-2.9v-2.9h2.9zm0-7.79h-2.9v-2.9h2.9zm0 15.59h-2.9v-2.9h2.9zm0 7.8h-2.9v-2.9h2.9zM3.88 26.46h2.9v2.9h-2.9zm9.68 0h2.9v2.9h-2.9zm-9.68-6.54h2.9v2.9h-2.9zm12.58 0v2.9h-2.9v-2.9zm-7.64 6.54h2.9v2.9h-2.9zm0-6.54h2.9v2.9h-2.9z"/></symbol><symbol id="s48" viewBox="0 0 48 48"><path d="M21.94 0v17.11h-3.99v-3.64c0-.97-.79-1.75-1.75-1.75H7.79c-.96 0-1.75.79-1.75 1.75v3.64H0V48h48V0H21.95ZM8.54 14.22h6.92v2.86H8.54zm1.51 31.03v-3.87h4.27v3.87zm6.76.25v-6.62H7.55v6.62H2.49V19.61h19.45V45.5zm28.68 0H24.44v-43h21.05zM30.66 21.14h-3.28v-3.29h3.28zm12.16 0h-3.29v-3.29h3.29zm-12.16-9.41h-3.28V8.44h3.28zm12.16 0h-3.29V8.44h3.29zM30.66 30.55h-3.28v-3.29h3.28zm12.16 0h-3.29v-3.29h3.29zm-12.16 9.4h-3.28v-3.29h3.28zm12.16 0h-3.29v-3.29h3.29zm-6.08-18.81h-3.28v-3.29h3.28zm0-9.41h-3.28V8.44h3.28zm0 18.82h-3.28v-3.29h3.28zm0 9.4h-3.28v-3.29h3.28zM4.67 31.88h3.29v3.29H4.67zm11.67 0h3.29v3.29h-3.29zM4.67 24.01h3.29v3.29H4.67zm14.96 0v3.29h-3.29v-3.29zm-9 7.87h3.29v3.29h-3.29zm0-7.87h3.29v3.29h-3.29z"/></symbol><symbol id="s64" viewBox="0 0 64 64"><path d="M63.99 0H29.54v23.03h-5.98v-5.39c0-1.03-.84-1.88-1.87-1.88H10.01c-1.03 0-1.87.84-1.87 1.88v5.39H-.01V64h64zM10.88 18.52h9.93v4.46h-9.93zm-8.14 7.26h26.8v35.47h-7.52v-8.91H10.16v8.91H2.74zm10.17 35.13v-5.82h6.36v5.82zm48.33.34H32.29V2.75h28.95zM40.65 27.83h-3.81v-3.81h3.81zm16.38 0h-3.81v-3.81h3.81zM40.65 15.17h-3.81v-3.81h3.81zm16.38 0h-3.81v-3.81h3.81zM40.65 40.5h-3.81v-3.81h3.81zm16.38 0h-3.81v-3.81h3.81zM40.65 53.16h-3.81v-3.81h3.81zm16.38 0h-3.81v-3.81h3.81zm-8.19-25.33h-3.81v-3.81h3.81zm0-12.66h-3.81v-3.81h3.81zm0 25.33h-3.81v-3.81h3.81zm0 12.66h-3.81v-3.81h3.81zM6.29 42.92h3.81v3.81H6.29zm19.52 3.8H22v-3.81h3.81zM10.1 32.31v3.81H6.29v-3.81zm15.71 3.81H22v-3.81h3.81zm-7.69 10.6h-3.81v-3.81h3.81zm0-10.6h-3.81v-3.81h3.81z"/></symbol><use style="display: var(--s16, none)" href="#s16"/><use style="display: var(--s24, none)" href="#s24"/><use style="display: var(--s32, none)" href="#s32"/><use style="display: var(--s40, none)" href="#s40"/><use style="display: var(--s48, none)" href="#s48"/><use style="display: var(--s64, none)" href="#s64"/></symbol></defs><style>@media (max-width: 23.98px) {g{--s16:block;}}@media (min-width: 24px) and (max-width: 31.98px) {g{--s24:block;}}@media (min-width: 32px) and (max-width: 39.98px) {g{--s32:block;}}@media (min-width: 40px) and (max-width: 47.98px) {g{--s40:block;}}@media (min-width: 48px) and (max-width: 63.98px) {g{--s48:block;}}@media (min-width: 64px) {g{--s64:block;}}</style><g><use href="#i-company"/></g></svg>