<svg xmlns="http://www.w3.org/2000/svg"><defs><symbol id="i-compass-solid"><symbol id="s16" viewBox="0 0 16 16"><path d="M7.99-.02c-4.42 0-8 3.59-8 8s3.58 8 8 8 8-3.59 8-8-3.59-8-8-8m.27 11.68L7.2 8.58 4.02 7.42l6.72-2.47z"/></symbol><symbol id="s24" viewBox="0 0 24 24"><path d="M11.97 0c-6.61 0-12 5.39-12 12s5.38 12 12 12 12-5.38 12-12-5.38-12-12-12m.42 17.64-1.62-4.73-4.88-1.77 10.3-3.79z"/></symbol><symbol id="s32" viewBox="0 0 32 32"><path d="M15.96 0c-8.82 0-16 7.18-16 16s7.18 16 16 16 16-7.18 16-16-7.18-16-16-16m.57 23.61-2.19-6.38-6.59-2.39 13.91-5.11-5.13 13.89Z"/></symbol><symbol id="s40" viewBox="0 0 40 40"><path d="M19.96-.03c-11.03 0-20 8.98-20 20s8.97 20 20 20 20-8.97 20-20-8.97-20-20-20m.71 29.55-2.75-8.01-8.26-3 17.45-6.41-6.44 17.43Z"/></symbol><symbol id="s48" viewBox="0 0 48 48"><path d="M23.95.05c-13.23 0-24 10.76-24 24s10.77 24 24 24 24-10.77 24-24-10.76-24-24-24m.86 35.53-3.32-9.67-9.98-3.62 21.07-7.74-7.77 21.04Z"/></symbol><symbol id="s64" viewBox="0 0 64 64"><path d="M31.95.02c-17.65 0-32 14.35-32 32s14.36 32 32 32 32-14.36 32-32-14.36-32-32-32m1.15 47.5-4.47-13.01-13.42-4.88 28.34-10.42-10.45 28.3Z"/></symbol><use style="display: var(--s16, none)" href="#s16"/><use style="display: var(--s24, none)" href="#s24"/><use style="display: var(--s32, none)" href="#s32"/><use style="display: var(--s40, none)" href="#s40"/><use style="display: var(--s48, none)" href="#s48"/><use style="display: var(--s64, none)" href="#s64"/></symbol></defs><style>@media (max-width: 23.98px) {g{--s16:block;}}@media (min-width: 24px) and (max-width: 31.98px) {g{--s24:block;}}@media (min-width: 32px) and (max-width: 39.98px) {g{--s32:block;}}@media (min-width: 40px) and (max-width: 47.98px) {g{--s40:block;}}@media (min-width: 48px) and (max-width: 63.98px) {g{--s48:block;}}@media (min-width: 64px) {g{--s64:block;}}</style><g><use href="#i-compass-solid"/></g></svg>