<svg xmlns="http://www.w3.org/2000/svg"><defs><symbol id="i-creditcard"><symbol id="s16" viewBox="0 0 16 16"><path d="M13.75 1.74H2.25C1.01 1.74 0 2.75 0 3.99v8c0 1.24 1.01 2.25 2.25 2.25h11.5c1.24 0 2.25-1.01 2.25-2.25v-8c0-1.24-1.01-2.25-2.25-2.25M1.5 3.99c0-.41.34-.75.75-.75h11.5c.41 0 .75.34.75.75v.24h-13zm12.25 8.75H2.25c-.41 0-.75-.34-.75-.75V6.23h13v5.76c0 .41-.34.75-.75.75M4.83 7.2H3.26c-.69 0-1.25.56-1.25 1.25v1.57c0 .69.56 1.25 1.25 1.25h1.57c.69 0 1.25-.56 1.25-1.25V8.45c0-.69-.56-1.25-1.25-1.25m-.25 2.57H3.51V8.7h1.07zm6.55.75c0 .41-.34.75-.75.75H7.66c-.41 0-.75-.34-.75-.75s.34-.75.75-.75h2.72c.41 0 .75.34.75.75m2.72-2.36c0 .41-.34.75-.75.75H7.66c-.41 0-.75-.34-.75-.75s.34-.75.75-.75h5.44c.41 0 .75.34.75.75"/></symbol><symbol id="s24" viewBox="0 0 24 24"><path d="M21.32 3.4H2.55C1.11 3.4-.07 4.58-.07 6.03v11.92c0 1.45 1.17 2.62 2.61 2.62h18.78a2.62 2.62 0 0 0 2.61-2.62V6.03c0-1.45-1.17-2.62-2.61-2.62Zm.87 14.55c0 .48-.39.88-.87.88H2.55c-.48 0-.87-.39-.87-.88V9.76H22.2v8.19ZM1.68 7.24V6.03c0-.48.39-.88.87-.88h18.78c.48 0 .87.39.87.88v1.21zm3.26 9.97H6.9c1.03 0 1.87-.84 1.87-1.88v-1.97c0-1.03-.84-1.88-1.87-1.88H4.94c-1.03 0-1.87.84-1.87 1.88v1.97c0 1.03.84 1.88 1.87 1.88m-.12-3.84c0-.07.06-.12.12-.12H6.9c.07 0 .12.06.12.12v1.97c0 .07-.06.12-.12.12H4.94c-.07 0-.12-.06-.12-.12zm5.79 2.47c0-.48.39-.88.87-.88h4.18c.48 0 .87.39.87.88s-.39.88-.87.88h-4.18c-.48 0-.87-.39-.87-.88m0-3.15c0-.48.39-.88.87-.88h8.35c.48 0 .87.39.87.88s-.39.88-.87.88h-8.35c-.48 0-.87-.39-.87-.88"/></symbol><symbol id="s32" viewBox="0 0 32 32"><path d="M29.01 4.71h-26a3.01 3.01 0 0 0-3.01 3v16.7c0 1.65 1.35 3 3 3h26c1.65 0 3-1.35 3-3V7.71c0-1.65-1.35-3-3-3Zm-27 5.5h28v1.5h-28zm28 14.2c0 .55-.45 1-1 1h-26c-.55 0-1-.45-1-1v-10.7h28zm-28-16.2v-.5c0-.55.45-1 1-1h26c.55 0 1 .45 1 1v.5zM5.9 23.23h4c1.1 0 2-.9 2-2v-4c0-1.1-.9-2-2-2h-4c-1.1 0-2 .9-2 2v4c0 1.1.9 2 2 2m4-6v1H8.63v2h1.28v1h-4v-1h1.33v-2H5.91v-1h4Zm4.49 3.33c0-.55.45-1 1-1h5.63c.55 0 1 .45 1 1s-.45 1-1 1h-5.63c-.55 0-1-.45-1-1m0-3.56c0-.55.45-1 1-1h11.26c.55 0 1 .45 1 1s-.45 1-1 1H15.39c-.55 0-1-.45-1-1"/></symbol><symbol id="s40" viewBox="0 0 40 40"><path d="M37.38 5.93H2.63C1.18 5.93 0 7.1 0 8.55v23.04c0 1.45 1.18 2.62 2.62 2.62h34.75c1.45 0 2.62-1.18 2.62-2.62V8.55c0-1.45-1.18-2.62-2.62-2.62ZM2.26 12.42h35.5v1.75H2.26zm35.5 19.17c0 .21-.17.38-.37.38H2.63c-.21 0-.37-.17-.37-.38V16.41h35.5zM2.26 10.17V8.55c0-.21.17-.38.37-.38h34.75c.21 0 .37.17.37.38v1.62zm4.77 18.79h5.55c1.17 0 2.12-.95 2.12-2.12v-5.55c0-1.17-.95-2.12-2.12-2.12H7.03c-1.17 0-2.12.95-2.12 2.12v5.55c0 1.17.95 2.12 2.12 2.12m5.43-7.55v1.53h-1.6v2.25h1.6v1.53h-5.3v-1.53h1.67v-2.25H7.16v-1.53zm5.65 4.16c0-.62.5-1.12 1.12-1.12h7.08c.62 0 1.12.5 1.12 1.12s-.5 1.12-1.12 1.12h-7.08c-.62 0-1.12-.5-1.12-1.12m0-4.32c0-.62.5-1.12 1.12-1.12H33.4c.62 0 1.12.5 1.12 1.12s-.5 1.12-1.12 1.12H19.23c-.62 0-1.12-.5-1.12-1.12"/></symbol><symbol id="s48" viewBox="0 0 48 48"><path d="M44.26 7.14H3.76C1.69 7.14 0 8.83 0 10.89v26.38c0 2.07 1.68 3.75 3.75 3.75h40.5c2.07 0 3.75-1.68 3.75-3.75V10.89c0-2.07-1.68-3.75-3.75-3.75ZM2.51 15.67h43v3h-43zm43 21.6c0 .69-.56 1.25-1.25 1.25H3.76c-.69 0-1.25-.56-1.25-1.25v-16.1h43zm-43-24.1v-2.28c0-.69.56-1.25 1.25-1.25h40.5c.69 0 1.25.56 1.25 1.25v2.28zm5.21 22.89h8c1.24 0 2.25-1.01 2.25-2.25v-8c0-1.24-1.01-2.25-2.25-2.25h-8c-1.24 0-2.25 1.01-2.25 2.25v8c0 1.24 1.01 2.25 2.25 2.25m7.75-10v.72h-2.79v2.5h2.79v1.06h-2.79v2.5h2.79v.72h-7.5v-.72h2.82v-2.5H7.97v-1.06h2.82v-2.5H7.97v-.72zm6.35 5.27c0-.69.56-1.25 1.25-1.25h8.54a1.25 1.25 0 0 1 0 2.5h-8.54c-.69 0-1.25-.56-1.25-1.25m0-4.9c0-.69.56-1.25 1.25-1.25h17.07a1.25 1.25 0 0 1 0 2.5H23.07c-.69 0-1.25-.56-1.25-1.25"/></symbol><symbol id="s64" viewBox="0 0 64 64"><path d="M59.87 9.82H4.12A4.13 4.13 0 0 0 0 13.95v36.74a4.13 4.13 0 0 0 4.13 4.12h55.75c2.27 0 4.13-1.85 4.13-4.12V13.95a4.13 4.13 0 0 0-4.13-4.12ZM2.75 19.49h58.5v3.75H2.75zm58.5 31.2c0 .76-.62 1.38-1.38 1.38H4.12c-.76 0-1.38-.62-1.38-1.38V26h58.5v24.69ZM2.75 16.74v-2.8c0-.76.62-1.38 1.38-1.38h55.75c.76 0 1.38.62 1.38 1.38v2.8zm7.58 29.54h10.25c1.31 0 2.38-1.07 2.38-2.38V33.65c0-1.31-1.07-2.38-2.38-2.38H10.33c-1.31 0-2.38 1.07-2.38 2.38V43.9c0 1.31 1.07 2.38 2.38 2.38m9.87-12.24v1.18h-3.11v2.75h3.11v1.63h-3.11v2.75h3.11v1.19h-9.5v-1.19h3.22V39.6H10.7v-1.63h3.22v-2.75H10.7v-1.18zm9.17 5.79c0-.76.62-1.38 1.38-1.38h11.49c.76 0 1.38.62 1.38 1.38s-.62 1.38-1.38 1.38H30.75c-.76 0-1.38-.62-1.38-1.38m0-5.59c0-.76.62-1.38 1.38-1.38h22.98c.76 0 1.38.62 1.38 1.38s-.62 1.38-1.38 1.38H30.75c-.76 0-1.38-.62-1.38-1.38"/></symbol><use style="display: var(--s16, none)" href="#s16"/><use style="display: var(--s24, none)" href="#s24"/><use style="display: var(--s32, none)" href="#s32"/><use style="display: var(--s40, none)" href="#s40"/><use style="display: var(--s48, none)" href="#s48"/><use style="display: var(--s64, none)" href="#s64"/></symbol></defs><style>@media (max-width: 23.98px) {g{--s16:block;}}@media (min-width: 24px) and (max-width: 31.98px) {g{--s24:block;}}@media (min-width: 32px) and (max-width: 39.98px) {g{--s32:block;}}@media (min-width: 40px) and (max-width: 47.98px) {g{--s40:block;}}@media (min-width: 48px) and (max-width: 63.98px) {g{--s48:block;}}@media (min-width: 64px) {g{--s64:block;}}</style><g><use href="#i-creditcard"/></g></svg>