<svg xmlns="http://www.w3.org/2000/svg"><defs><symbol id="i-danger"><symbol id="s16" viewBox="0 0 16 16"><path d="M7.99 0C3.83 0 .69 2.92.69 6.8c0 2.21 1.01 4.3 2.73 5.69v1.26c0 1.24 1.01 2.26 2.26 2.26h5.01c1.24 0 2.26-1.01 2.26-2.26v-1.58a7.27 7.27 0 0 0 2.35-5.36c0-3.88-3.14-6.8-7.3-6.8Zm3.72 11.25-.27.23v2.27c0 .32-.2.59-.48.7v-2.4h-1.5v2.45h-.53v-2.45h-1.5v2.45H6.9v-2.45H5.4v2.4a.75.75 0 0 1-.48-.7v-2.02l-.31-.23a5.83 5.83 0 0 1-2.42-4.7c.01-3.07 2.44-5.3 5.8-5.3s5.8 2.23 5.8 5.3c0 1.72-.76 3.34-2.08 4.45M6.77 8.11c-.75.76-1.4 1.02-1.94 1.02s-.97-.27-1.29-.59A2.59 2.59 0 0 1 7.2 4.88c.64.64 1.08 1.72-.43 3.23m5.69.52c-.32.32-.75.59-1.29.59S9.98 8.95 9.23 8.2C7.72 6.69 8.16 5.61 8.8 4.97a2.59 2.59 0 0 1 3.66 3.66m-3.71.47v1a.749.749 0 1 1-1.5 0v-1a.749.749 0 1 1 1.5 0"/></symbol><symbol id="s24" viewBox="0 0 24 24"><path d="M11.99 0C5.76 0 1.06 4.37 1.06 10.16c0 3.35 1.56 6.53 4.19 8.59v2.87c0 1.31 1.07 2.38 2.38 2.38h9.31c1.31 0 2.38-1.07 2.38-2.38v-3.35c2.3-2.07 3.61-5.01 3.61-8.11C22.92 4.37 18.22 0 11.99 0m6.45 14.36c-.48 0-.88.39-.88.88v6.39c0 .34-.28.63-.63.63h-.66v-3.77h-1.75v3.77h-1.36v-3.77h-1.75v3.77h-1.36v-3.77H8.3v3.77h-.66c-.34 0-.63-.28-.63-.63v-6.38c0-.48-.39-.88-.88-.88s-.88.39-.88.88v1.12c-1.54-1.68-2.44-3.89-2.44-6.2 0-4.88 3.86-8.42 9.18-8.42s9.18 3.54 9.18 8.41c0 2.02-.66 3.95-1.86 5.53v-.45c0-.48-.39-.88-.88-.88Zm-8.53-2.39c-.99.99-1.92 1.49-2.78 1.49-.64 0-1.23-.28-1.79-.83a3.706 3.706 0 0 1 0-5.23 3.706 3.706 0 0 1 5.23 0c1.29 1.29 1.07 2.83-.67 4.57Zm8.74.8c-.55.55-1.15.83-1.79.83-.86 0-1.79-.5-2.78-1.49-1.74-1.74-1.96-3.27-.67-4.57a3.706 3.706 0 0 1 5.23 0 3.706 3.706 0 0 1 0 5.23Zm-5.06 2.05c.23.43.07.96-.36 1.19a.884.884 0 0 1-1.18-.36l-.06-.1-.06.1a.884.884 0 0 1-1.18.36.876.876 0 0 1-.36-1.19l.83-1.54s.04-.04.05-.06c.03-.05.07-.09.11-.13s.09-.08.13-.11c.02-.01.04-.04.06-.05.03-.01.06-.01.08-.02.06-.02.11-.04.17-.05s.11-.02.16-.02c.06 0 .11 0 .16.02.06.01.11.03.17.05.03.01.06.01.08.03.02.01.04.04.06.05.05.03.09.07.13.11s.08.09.11.14c.01.02.04.04.05.06l.83 1.54Z"/></symbol><symbol id="s32" viewBox="0 0 32 32"><path d="M15.99 0C7.73 0 1.51 5.78 1.51 13.45c0 4.46 2.09 8.7 5.62 11.43v4.6c0 1.39 1.13 2.51 2.51 2.51h13.48c1.39 0 2.51-1.13 2.51-2.51v-5.24a14.45 14.45 0 0 0 4.84-10.8C30.47 5.78 24.24 0 15.99 0m9.64 21.32v-1.07c0-.56-.45-1.01-1.01-1.01s-1.01.45-1.01 1.01v9.23c0 .28-.23.5-.5.5h-.58v-4.47h-2.01v4.47h-1.48v-4.54h-2.01v4.54h-1.48v-4.54h-2.01v4.54h-1.48v-4.54h-2.01v4.54h-.41c-.28 0-.5-.23-.5-.5v-9.23c0-.56-.45-1.01-1.01-1.01s-1.01.45-1.01 1.01v1.92c-2.28-2.32-3.6-5.44-3.6-8.72C3.52 7.29 8.06 2.7 14.5 2.09L13.53 4l2.29 2.11 1.36-1.48-1.17-1.08.77-1.51c6.81.34 11.67 5.02 11.67 11.4 0 2.9-1.02 5.66-2.82 7.87Zm-12.46-5.97c-.6.6-2.03 2.03-3.71 2.03-.76 0-1.57-.3-2.37-1.1-.94-.94-1.45-2.18-1.45-3.51s.52-2.57 1.45-3.51c.94-.94 2.18-1.45 3.51-1.45s2.57.52 3.51 1.45c2.58 2.58-.06 5.22-.93 6.08Zm11.74 1.1c-.8.8-1.61 1.1-2.38 1.1-1.68 0-3.11-1.44-3.71-2.03-.87-.87-3.51-3.51-.93-6.08a4.96 4.96 0 0 1 7.02 0c1.93 1.93 1.93 5.08 0 7.02Zm-6.93 2.82a1.004 1.004 0 0 1-1.77.95l-.22-.42-.22.42a1.003 1.003 0 0 1-1.36.41c-.49-.26-.67-.87-.41-1.36l1.11-2.07s.04-.04.06-.07c.04-.06.08-.11.13-.15.05-.05.1-.09.16-.13.03-.02.04-.04.07-.06s.06-.02.09-.03c.06-.03.13-.05.2-.06.06-.01.12-.02.19-.02.06 0 .12 0 .19.02.07.01.13.03.2.06.03.01.06.01.09.03.03.01.04.04.07.06a1 1 0 0 1 .29.29c.02.03.04.04.06.07l1.11 2.07Z"/></symbol><symbol id="s40" viewBox="0 0 40 40"><path d="M19.99 0C9.62 0 1.81 7.26 1.81 16.87c0 5.62 2.65 10.96 7.11 14.4v6.1c0 1.45 1.18 2.63 2.63 2.63h17.87c1.45 0 2.63-1.18 2.63-2.63v-6.9a18.13 18.13 0 0 0 6.12-13.6C38.16 7.26 30.35 0 19.99 0m12.05 27.24v-1.75c0-.62-.5-1.13-1.13-1.13s-1.13.5-1.13 1.13v11.89c0 .21-.17.38-.38.38h-1.29V32.3h-2.25v5.46h-2.17v-5.54h-2.25v5.54h-2.17v-5.54h-2.25v5.54h-2.17v-5.54H12.6v5.54h-1.08a.38.38 0 0 1-.38-.38V25.49c0-.62-.5-1.13-1.13-1.13s-1.13.5-1.13 1.13v2.81c-3.07-2.98-4.86-7.1-4.86-11.42C4.02 9 9.82 3.13 18.06 2.35L16.5 5.4l3.07 2.83 1.53-1.66-1.82-1.68 1.34-2.62c8.87.3 15.25 6.33 15.25 14.59 0 3.84-1.4 7.49-3.87 10.36ZM18.88 15.81c-.33 1.1-1.1 2.23-2.44 3.57-1.33 1.33-2.47 2.11-3.57 2.44-.34.1-.74.18-1.18.18-.91 0-1.97-.32-3.03-1.38-2.48-2.49-2.48-6.53 0-9.01 2.49-2.48 6.53-2.48 9.01 0 1.57 1.57 1.52 3.16 1.2 4.21Zm14.32.51c0 1.7-.66 3.3-1.87 4.51-1.01 1.01-2.04 1.39-3 1.39-2.15 0-4-1.85-4.78-2.62-1.11-1.12-4.51-4.51-1.24-7.78 1.2-1.2 2.81-1.87 4.51-1.87s3.3.66 4.51 1.87 1.87 2.8 1.87 4.51Zm-10.82 7.99a1.12 1.12 0 0 1-.99 1.65c-.4 0-.79-.22-.99-.59l-.41-.77-.41.77c-.2.38-.59.59-.99.59-.18 0-.36-.04-.53-.13-.55-.29-.75-.98-.46-1.52l1.4-2.62s.05-.05.06-.08a1.2 1.2 0 0 1 .32-.32c.03-.02.05-.05.08-.06.03-.02.07-.02.1-.03.07-.03.14-.05.22-.07.07-.01.14-.02.21-.02s.14 0 .21.02c.08.01.15.04.22.07.03.01.07.01.1.03s.05.05.08.06a1.2 1.2 0 0 1 .31.31c.02.03.05.05.06.08l1.4 2.62Z"/></symbol><symbol id="s48" viewBox="0 0 48 48"><path d="M23.98.01C11.6.01 2.27 8.67 2.27 20.16c0 6.73 3.18 13.13 8.53 17.23v7.87c0 1.52 1.23 2.75 2.75 2.75H35.6c1.52 0 2.75-1.23 2.75-2.75v-8.83a21.66 21.66 0 0 0 7.35-16.27C45.7 8.67 36.36.01 23.98.01M38.35 32.9v-2.41a1.25 1.25 0 0 0-2.5 0v14.77c0 .14-.11.25-.25.25h-1.94v-6.55h-2.5v6.55h-2.8v-6.65h-2.5v6.65h-2.8v-6.65h-2.5v6.65h-2.8v-6.65h-2.5v6.65h-1.7c-.14 0-.25-.11-.25-.25V30.49a1.25 1.25 0 0 0-2.5 0v3.61C7 30.49 4.78 25.45 4.78 20.16c-.01-9.57 7.07-16.69 17.11-17.55l-1.92 3.76 3.64 3.35 1.7-1.84-2.24-2.06 1.67-3.27c10.74.33 18.46 7.62 18.46 17.61 0 4.74-1.74 9.24-4.84 12.73Zm-18.7-8.81c-.91.91-3.11 3.11-5.66 3.11-1.14 0-2.34-.44-3.53-1.63-2.94-2.94-2.94-7.73 0-10.68s7.73-2.94 10.68 0c3.85 3.85-.16 7.87-1.48 9.19Zm17.88 1.75c-1.19 1.19-2.4 1.63-3.53 1.63-2.55 0-4.75-2.2-5.66-3.11-1.32-1.32-5.34-5.34-1.48-9.19 2.94-2.95 7.73-2.94 10.68 0 2.94 2.94 2.94 7.73 0 10.68Zm-10.76 3.3c.33.61.1 1.37-.51 1.69-.19.1-.39.15-.59.15-.45 0-.88-.24-1.1-.66l-.58-1.09-.58 1.09c-.23.42-.66.66-1.1.66-.2 0-.4-.05-.59-.15-.61-.33-.84-1.09-.51-1.69L22.89 26s.05-.05.07-.09a1.5 1.5 0 0 1 .35-.35c.03-.02.05-.05.09-.07s.08-.02.11-.03c.08-.03.16-.06.25-.07.08-.01.15-.02.23-.02s.15 0 .23.02c.09.02.16.04.25.07.04.02.08.01.11.03s.05.05.09.07a1.5 1.5 0 0 1 .35.35c.02.03.05.05.07.09l1.69 3.14Zm-7.69 5.14c0 .83-.67 1.5-1.5 1.5s-1.5-.67-1.5-1.5.67-1.5 1.5-1.5 1.5.67 1.5 1.5m13.35 0c0 .83-.67 1.5-1.5 1.5s-1.5-.67-1.5-1.5.67-1.5 1.5-1.5 1.5.67 1.5 1.5"/></symbol><symbol id="s64" viewBox="0 0 64 64"><path d="M31.98.11C15.69.11 3.41 11.5 3.41 26.6c0 8.93 4.22 17.39 11.34 22.78v11.86c0 1.58 1.29 2.87 2.87 2.87h30.3c1.58 0 2.87-1.29 2.87-2.87V48.1a28.53 28.53 0 0 0 9.76-21.5C60.55 11.5 48.26.11 31.98.11m18.81 44.18v-3.67c0-.76-.61-1.37-1.37-1.37s-1.37.61-1.37 1.37v20.62c0 .07-.06.12-.12.12h-3.37v-8.71h-2.74v8.71h-4.3v-8.83h-2.74v8.83h-4.3v-8.83h-2.74v8.83h-4.3v-8.83H20.7v8.83h-3.05c-.07 0-.12-.06-.12-.12V40.62c0-.76-.61-1.37-1.37-1.37s-1.37.61-1.37 1.37v5.2C9.37 40.95 6.2 33.95 6.2 26.6 6.15 13.55 15.92 3.9 29.69 2.94L27 8.21l4.67 4.3 1.86-2.02-3.14-2.89 2.41-4.73c14.53.36 24.99 10.23 24.99 23.73 0 6.63-2.53 12.92-7.02 17.69ZM25.56 31.95c-1.44 1.44-4.52 4.52-8.07 4.52-1.6 0-3.29-.62-4.97-2.3-4.21-4.21-4.21-11.05 0-15.26 4.21-4.2 11.05-4.2 15.26 0 5.41 5.41-.13 10.95-2.22 13.04m25.91 2.57c-1.68 1.68-3.37 2.3-4.97 2.3-3.55 0-6.63-3.08-8.07-4.52-2.32-2.32-3.65-4.26-4.21-6.13-.75-2.51-.08-4.84 1.99-6.91 4.21-4.21 11.05-4.21 15.26 0s4.21 11.05 0 15.26m-16.04 4.43a1.37 1.37 0 0 1-1.21 2.02c-.49 0-.96-.26-1.21-.72l-1.03-1.92-1.03 1.92c-.25.46-.72.72-1.21.72a1.37 1.37 0 0 1-1.21-2.02l2.24-4.18.06-.09c.03-.04.05-.09.09-.13l.12-.12c.02-.02.04-.05.07-.07.06-.05.12-.09.19-.13.01 0 .02-.02.04-.02.08-.04.16-.08.25-.1l.14-.03c.04 0 .08-.02.13-.02h.27c.03 0 .06.01.09.02.1.02.2.04.29.08.04.02.09.03.13.05s.07.05.1.07c.04.03.08.05.11.08.04.03.08.08.12.11.02.03.05.05.07.08.05.06.09.12.13.19 0 .01.02.02.03.04s0 0 0 .01l2.23 4.17Zm-8.77 6.71a1.705 1.705 0 0 1-3.41 0c0-.93.77-1.7 1.7-1.7s1.71.77 1.71 1.7m14.75 0c0 .94-.77 1.7-1.7 1.7s-1.7-.77-1.7-1.7.77-1.7 1.7-1.7 1.7.77 1.7 1.7"/></symbol><use style="display: var(--s16, none)" href="#s16"/><use style="display: var(--s24, none)" href="#s24"/><use style="display: var(--s32, none)" href="#s32"/><use style="display: var(--s40, none)" href="#s40"/><use style="display: var(--s48, none)" href="#s48"/><use style="display: var(--s64, none)" href="#s64"/></symbol></defs><style>@media (max-width: 23.98px) {g{--s16:block;}}@media (min-width: 24px) and (max-width: 31.98px) {g{--s24:block;}}@media (min-width: 32px) and (max-width: 39.98px) {g{--s32:block;}}@media (min-width: 40px) and (max-width: 47.98px) {g{--s40:block;}}@media (min-width: 48px) and (max-width: 63.98px) {g{--s48:block;}}@media (min-width: 64px) {g{--s64:block;}}</style><g><use href="#i-danger"/></g></svg>