<svg xmlns="http://www.w3.org/2000/svg"><defs><symbol id="i-danger-solid"><symbol id="s16" viewBox="0 0 16 16"><path d="M7.99 0C3.83 0 .69 2.92.69 6.8c0 2.3 1.07 4.35 2.73 5.68v1.26c0 .97.62 1.79 1.48 2.11v-3.81h1.5V16h1.03v-3.96h1.5V16h1.03v-3.96h1.5v3.81c.86-.32 1.48-1.14 1.48-2.11v-1.59a7.28 7.28 0 0 0 2.35-5.35c0-3.88-3.14-6.8-7.3-6.8M6.26 8.11c-.76.76-1.4 1.02-1.94 1.02s-.97-.27-1.29-.59a2.59 2.59 0 0 1 3.66-3.66c.64.64 1.08 1.72-.43 3.23m2.49 2a.749.749 0 1 1-1.5 0v-1a.749.749 0 1 1 1.5 0zm2.92-.89c-.54 0-1.19-.27-1.94-1.02-1.51-1.51-1.07-2.59-.43-3.23a2.59 2.59 0 0 1 3.66 3.66c-.32.32-.75.59-1.29.59"/></symbol><symbol id="s24" viewBox="0 0 24 24"><path d="M11.99 0C5.76 0 1.06 4.37 1.06 10.16c0 3.48 1.64 6.58 4.19 8.59v2.88c0 1.31 1.07 2.38 2.38 2.38h.16v-5.52h1.75v5.52h1.86v-5.52h1.75v5.52h1.86v-5.52h1.75v5.52h.16c1.31 0 2.38-1.07 2.38-2.38v-3.37c2.21-2 3.61-4.88 3.61-8.09C22.92 4.37 18.22 0 11.99 0M9.41 11.97c-1 .99-1.93 1.49-2.78 1.49-.64 0-1.23-.28-1.79-.83a3.706 3.706 0 0 1 0-5.23 3.706 3.706 0 0 1 5.23 0c1.29 1.29 1.07 2.83-.67 4.57Zm3.82 4.04a.884.884 0 0 1-1.18-.36l-.06-.1-.06.1c-.16.3-.46.46-.77.46-.14 0-.28-.03-.41-.1a.876.876 0 0 1-.36-1.19l.83-1.54s.04-.04.05-.06c.03-.05.07-.09.11-.13s.09-.08.13-.11c.02-.02.04-.04.06-.05.03-.01.06-.01.08-.02.05-.02.11-.04.17-.05s.11-.02.16-.02c.06 0 .11 0 .16.02.06.01.11.03.17.05.03.01.06.01.08.03.02.01.04.04.06.05.05.03.09.07.13.11s.08.09.11.14c.02.02.04.04.05.06l.83 1.54c.23.43.07.96-.36 1.19Zm5.92-3.24c-.55.55-1.15.83-1.79.83-.86 0-1.78-.5-2.78-1.49-1.73-1.74-1.96-3.27-.67-4.57a3.706 3.706 0 0 1 5.23 0 3.706 3.706 0 0 1 0 5.23Z"/></symbol><symbol id="s32" viewBox="0 0 32 32"><path d="M15.93.02C7.67.02 1.45 5.8 1.45 13.47c0 4.64 2.21 8.77 5.62 11.42v4.61c0 1.36 1.08 2.46 2.43 2.51v-6.54h2.01v6.55h1.98v-6.55h2.01v6.55h1.98v-6.55h2.01v6.55h1.98v-6.46h2.01v6.41c1.18-.2 2.09-1.23 2.09-2.47v-5.27c2.96-2.65 4.84-6.49 4.84-10.77C30.41 5.8 24.18.02 15.93.02M12.6 15.37c-.6.6-2.03 2.03-3.71 2.03-.76 0-1.57-.3-2.37-1.1-.94-.94-1.45-2.18-1.45-3.51s.52-2.57 1.45-3.51c.94-.94 2.18-1.45 3.51-1.45s2.57.52 3.51 1.45c2.58 2.58-.06 5.22-.93 6.08Zm4.91 5.29a1.003 1.003 0 0 1-1.36-.41l-.22-.42-.22.42a1.003 1.003 0 0 1-1.36.41c-.49-.26-.67-.87-.41-1.36l1.11-2.07s.04-.04.06-.07c.04-.06.08-.11.13-.15.05-.05.1-.09.16-.13.02-.02.04-.04.07-.06s.06-.01.09-.03c.07-.03.13-.05.2-.06.06-.01.12-.02.19-.02.06 0 .12 0 .19.02.07.01.13.03.2.06.03.01.06.01.09.03.03.01.04.04.07.06.06.04.11.08.16.13s.09.1.13.15c.02.03.04.04.06.07l1.11 2.07c.26.49.08 1.1-.41 1.36Zm7.84-4.19c-.8.8-1.62 1.1-2.38 1.1-1.68 0-3.11-1.44-3.71-2.03-.87-.87-3.51-3.51-.93-6.08a4.96 4.96 0 0 1 7.02 0c1.93 1.93 1.93 5.08 0 7.02Z"/></symbol><symbol id="s40" viewBox="0 0 40 40"><path d="M19.99-.05C9.62-.05 1.81 7.2 1.81 16.82c0 5.86 2.79 11.06 7.11 14.39v6.11c0 1.45 1.18 2.63 2.63 2.63h14.83v-7.7h2.25v7.7h.79c1.45 0 2.63-1.18 2.63-2.63v-6.93c3.74-3.33 6.12-8.17 6.12-13.57C38.16 7.2 30.35-.05 19.99-.05m-5.61 39.9h-2.25v-7.7h2.25zm-2.01-18.09c-.34.1-.74.18-1.18.18-.91 0-1.98-.32-3.03-1.38-2.48-2.48-2.48-6.53 0-9.01 2.49-2.48 6.53-2.48 9.01 0 3.27 3.27-.12 6.66-1.24 7.78-1.34 1.33-2.47 2.11-3.57 2.44Zm6.76 18.09h-2.25v-7.7h2.25zm1.27-14.52-.41-.77-.41.77c-.2.38-.59.59-.99.59-.18 0-.36-.04-.53-.13-.55-.29-.75-.98-.46-1.52l1.4-2.62s.04-.05.06-.08a1.2 1.2 0 0 1 .32-.32c.03-.02.05-.05.08-.06.03-.02.07-.02.1-.03.07-.03.14-.05.22-.07.07-.01.14-.02.21-.02s.14 0 .21.02c.08.01.15.04.22.07.03.01.07.01.1.03s.05.04.08.06c.07.04.12.09.18.15.05.05.1.11.14.17.02.03.05.05.07.08l1.4 2.62a1.12 1.12 0 0 1-.99 1.65c-.4 0-.79-.22-.99-.59Zm3.48 14.52h-2.25v-7.7h2.25zm7.95-19.07c-1.01 1.01-2.04 1.39-3 1.39-2.15 0-4-1.85-4.78-2.62-1.11-1.12-4.51-4.51-1.24-7.78 2.49-2.48 6.53-2.48 9.01 0a6.4 6.4 0 0 1 0 9.02Z"/></symbol><symbol id="s48" viewBox="0 0 48 48"><path d="M23.98 0C11.6 0 2.27 8.67 2.27 20.15c0 7.02 3.35 13.27 8.53 17.24v7.86c0 1.52 1.23 2.75 2.75 2.75h17.6v-9.03h2.5V48h1.94c1.52 0 2.75-1.23 2.75-2.75v-8.84c4.5-3.98 7.35-9.79 7.35-16.26C45.7 8.67 36.36 0 23.98 0m-6.23 47.89h-2.5v-9.03h2.5zm-.17-12.11c-.83 0-1.5-.67-1.5-1.5s.67-1.5 1.5-1.5 1.5.67 1.5 1.5-.67 1.5-1.5 1.5m-2.66-8.79c-.4.12-.87.21-1.39.21-1.07 0-2.32-.38-3.57-1.62-2.94-2.94-2.94-7.73 0-10.68s7.73-2.94 10.68 0c3.85 3.85-.16 7.87-1.48 9.19-1.59 1.59-2.94 2.51-4.24 2.9m8.13 20.9h-2.5v-9.03h2.5zm1.52-17.58-.58-1.09-.58 1.09c-.23.42-.66.66-1.1.66-.2 0-.4-.05-.59-.15-.61-.33-.84-1.09-.51-1.69l1.68-3.14s.05-.05.07-.09a1.5 1.5 0 0 1 .35-.35c.03-.02.05-.05.09-.07s.08-.02.12-.04c.08-.03.16-.06.24-.07.08-.02.16-.02.24-.02s.15 0 .23.02c.09.02.16.04.24.07.04.02.08.01.12.03.03.02.05.05.09.07a1.5 1.5 0 0 1 .35.35c.02.03.05.05.07.09l1.69 3.14c.33.61.1 1.37-.51 1.69-.19.1-.39.15-.59.15-.45 0-.88-.24-1.1-.66Zm3.78 17.58h-2.5v-9.03h2.5zm2.58-12.11c-.83 0-1.5-.67-1.5-1.5s.67-1.5 1.5-1.5 1.5.67 1.5 1.5-.67 1.5-1.5 1.5m7.1-9.95c-1.19 1.19-2.4 1.63-3.53 1.63-2.54 0-4.75-2.2-5.66-3.11-1.32-1.32-5.34-5.34-1.48-9.19 2.94-2.94 7.73-2.94 10.68 0 2.94 2.94 2.94 7.73 0 10.68Z"/></symbol><symbol id="s64" viewBox="0 0 64 64"><path d="M31.98.03C15.65.03 3.34 11.45 3.34 26.59c0 9.31 4.47 17.59 11.36 22.82v11.75a2.88 2.88 0 0 0 2.88 2.88h3.05V52.59h2.75v11.45h4.31V52.59h2.75v11.45h4.31V52.59h2.75v11.45h4.31v-11.3h2.75v11.3h3.38a2.88 2.88 0 0 0 2.88-2.88V48.12c5.99-5.25 9.79-12.95 9.79-21.53C60.62 11.45 48.3.03 31.98.03M24.94 47.4c-.94 0-1.71-.77-1.71-1.71s.77-1.71 1.71-1.71 1.71.77 1.71 1.71-.77 1.71-1.71 1.71m.11-15.45c-1.44 1.44-4.53 4.53-8.09 4.53-1.6 0-3.3-.63-4.98-2.31-2.04-2.04-3.17-4.76-3.17-7.65s1.12-5.61 3.17-7.65c4.22-4.22 11.08-4.22 15.29 0 2.08 2.08 2.75 4.41 2 6.93-.56 1.87-1.9 3.82-4.22 6.14Zm9.82 8.88c-.21.11-.43.16-.65.16-.49 0-.97-.26-1.21-.73l-1.03-1.93-1.03 1.93c-.25.46-.72.72-1.21.72a1.37 1.37 0 0 1-1.21-2.02l2.25-4.19c.08-.15.2-.29.34-.41 0 0 .02 0 .02-.02.06-.05.12-.09.2-.13.04-.02.09-.02.13-.04.09-.04.17-.06.26-.08s.17-.03.26-.03.17 0 .26.03c.09.02.18.04.26.08.04.02.09.02.13.04.07.04.14.09.2.13 0 0 .01 0 .02.01.14.12.26.26.34.41s0 0 0 .01l2.24 4.18c.36.67.11 1.5-.56 1.86Zm4.86 6.57c-.94 0-1.71-.77-1.71-1.71s.77-1.71 1.71-1.71 1.71.77 1.71 1.71-.77 1.71-1.71 1.71m7.31-10.57c-3.56 0-6.65-3.09-8.09-4.53-2.09-2.09-7.65-7.65-2.23-13.07 4.22-4.22 11.08-4.22 15.3 0s4.22 11.08 0 15.29c-1.68 1.68-3.38 2.31-4.98 2.31"/></symbol><use style="display: var(--s16, none)" href="#s16"/><use style="display: var(--s24, none)" href="#s24"/><use style="display: var(--s32, none)" href="#s32"/><use style="display: var(--s40, none)" href="#s40"/><use style="display: var(--s48, none)" href="#s48"/><use style="display: var(--s64, none)" href="#s64"/></symbol></defs><style>@media (max-width: 23.98px) {g{--s16:block;}}@media (min-width: 24px) and (max-width: 31.98px) {g{--s24:block;}}@media (min-width: 32px) and (max-width: 39.98px) {g{--s32:block;}}@media (min-width: 40px) and (max-width: 47.98px) {g{--s40:block;}}@media (min-width: 48px) and (max-width: 63.98px) {g{--s48:block;}}@media (min-width: 64px) {g{--s64:block;}}</style><g><use href="#i-danger-solid"/></g></svg>