<svg xmlns="http://www.w3.org/2000/svg"><defs><symbol id="i-database"><symbol id="s16" viewBox="0 0 16 16"><path d="M8 0C4.91 0 1.78 1.04 1.78 3.03v9.93c0 1.99 3.13 3.03 6.22 3.03s6.22-1.04 6.22-3.03V3.03C14.22 1.04 11.09 0 8 0m4.72 3.03c0 .54-1.79 1.53-4.72 1.53s-4.71-.99-4.72-1.53C3.28 2.49 5.07 1.5 8 1.5s4.72.99 4.72 1.53M8 14.5c-2.93 0-4.72-.99-4.72-1.53v-1.18c1.2.65 2.96.99 4.72.99s3.52-.34 4.72-.99v1.18c0 .54-1.79 1.53-4.72 1.53m4.72-4.75c0 .54-1.79 1.53-4.72 1.53s-4.72-.99-4.72-1.53V8.46c1.2.65 2.96.99 4.72.99s3.52-.34 4.72-.99zm0-3.33c0 .54-1.79 1.53-4.72 1.53s-4.72-.99-4.72-1.53V5.07c1.2.65 2.96.99 4.72.99s3.52-.34 4.72-.99z"/></symbol><symbol id="s24" viewBox="0 0 24 24"><path d="M14.52.16C13.69.05 12.84 0 12 0s-1.69.05-2.52.16C5.89.62 2.74 2.07 2.74 4.37v15.25C2.74 22.46 7.51 24 12 24s9.26-1.53 9.26-4.38V4.37c0-2.31-3.15-3.75-6.74-4.21M12 1.75c.29 0 .57 0 .84.02 4.1.17 6.67 1.6 6.67 2.61C19.51 5.45 16.58 7 12 7S4.49 5.45 4.49 4.38c0-1 2.57-2.43 6.67-2.61.27-.01.55-.02.84-.02m0 20.5c-4.59 0-7.51-1.55-7.51-2.62v-2.31c1.79 1.14 4.71 1.74 7.51 1.74s5.72-.6 7.51-1.74v2.31c0 1.07-2.93 2.62-7.51 2.62m7.51-7.57c0 1.07-2.93 2.62-7.51 2.62s-7.51-1.55-7.51-2.62v-2.47c1.79 1.14 4.71 1.74 7.51 1.74s5.72-.6 7.51-1.74zm0-5.11c0 1.07-2.93 2.62-7.51 2.62s-7.51-1.55-7.51-2.62V7.01C6.28 8.15 9.2 8.75 12 8.75s5.72-.6 7.51-1.74z"/></symbol><symbol id="s32" viewBox="0 0 32 32"><path d="M16 0C8.98 0 3.69 2.46 3.69 5.72v20.56C3.69 29.54 8.98 32 16 32s12.31-2.46 12.31-5.72V5.72C28.31 2.46 23.02 0 16 0m0 2c6.39 0 10.31 2.16 10.31 3.72S22.39 9.44 16 9.44 5.69 7.28 5.69 5.72 9.61 2 16 2m0 28c-6.39 0-10.31-2.16-10.31-3.72v-3.46c2.16 1.54 5.89 2.51 10.31 2.51s8.15-.98 10.31-2.51v3.46C26.31 27.83 22.39 30 16 30m10.31-10.39c0 1.55-3.92 3.72-10.31 3.72S5.69 21.17 5.69 19.61v-3.68c2.16 1.54 5.89 2.51 10.31 2.51s8.15-.98 10.31-2.51zm0-6.88c0 1.55-3.92 3.72-10.31 3.72S5.69 14.29 5.69 12.73v-3.8c2.16 1.54 5.89 2.51 10.31 2.51s8.15-.98 10.31-2.51z"/></symbol><symbol id="s40" viewBox="0 0 40 40"><path d="M21.62.03C21.09.01 20.55-.01 20-.01s-1.09.01-1.62.04C10.44.38 4.64 3.29 4.64 7.06v25.87c0 4.03 6.6 7.06 15.36 7.06s15.36-3.04 15.36-7.06V7.06c0-3.77-5.8-6.68-13.74-7.03M20 2.25c.94 0 1.85.04 2.72.11 6.1.52 10.39 2.71 10.39 4.7 0 2.27-5.61 4.81-13.11 4.81S6.89 9.33 6.89 7.06c0-1.99 4.29-4.18 10.39-4.7.87-.07 1.78-.11 2.72-.11m0 35.5c-7.5 0-13.11-2.54-13.11-4.81v-4.62c2.65 2 7.42 3.29 13.11 3.29s10.46-1.29 13.11-3.29v4.62c0 2.27-5.61 4.81-13.11 4.81m13.11-13.2c0 2.27-5.61 4.81-13.11 4.81S6.89 26.82 6.89 24.55v-4.89c2.65 2 7.42 3.29 13.11 3.29s10.46-1.29 13.11-3.29zm0-8.66c0 2.27-5.61 4.81-13.11 4.81S6.89 18.16 6.89 15.89v-5.05c2.65 2 7.42 3.29 13.11 3.29s10.46-1.29 13.11-3.29z"/></symbol><symbol id="s48" viewBox="0 0 48 48"><path d="M24 0C13.55 0 5.67 3.62 5.67 8.42V39.6c0 4.8 7.88 8.41 18.33 8.41s18.33-3.62 18.33-8.41V8.42C42.33 3.62 34.45 0 24 0m0 2.52c9.33 0 15.83 3.11 15.83 5.9s-6.5 5.9-15.83 5.9-15.83-3.11-15.83-5.9 6.5-5.9 15.83-5.9m0 42.97c-9.33 0-15.83-3.11-15.83-5.9v-5.76c3.12 2.47 8.9 4.06 15.83 4.06s12.71-1.59 15.83-4.06v5.76c0 2.79-6.5 5.9-15.83 5.9m15.83-16c0 2.79-6.5 5.9-15.83 5.9s-15.83-3.11-15.83-5.9V23.4c3.12 2.47 8.9 4.06 15.83 4.06s12.71-1.59 15.83-4.06zm0-10.44c0 2.79-6.5 5.9-15.83 5.9s-15.83-3.11-15.83-5.9v-6.28c3.12 2.47 8.9 4.06 15.83 4.06s12.71-1.59 15.83-4.06z"/></symbol><symbol id="s64" viewBox="0 0 64 64"><path d="M32 0C18.06 0 7.54 4.73 7.54 11.01v41.98C7.54 59.27 18.05 64 32 64s24.46-4.73 24.46-11.01V11.01C56.46 4.73 45.95 0 32 0m0 2.75c12.79 0 21.71 4.35 21.71 8.26S44.79 19.27 32 19.27s-21.71-4.35-21.71-8.26S19.21 2.75 32 2.75m0 58.5c-12.79 0-21.71-4.35-21.71-8.26v-8.38c4 3.5 12.03 5.78 21.71 5.78s17.7-2.28 21.71-5.78v8.38c0 3.9-8.92 8.26-21.71 8.26m21.71-21.87c0 3.9-8.92 8.26-21.71 8.26s-21.71-4.35-21.71-8.26v-8.91c4.04 3.51 12.15 5.86 21.71 5.86s17.67-2.35 21.71-5.86zm0-14.06c0 3.9-8.92 8.26-21.71 8.26s-21.71-4.35-21.71-8.26v-9.17c4.04 3.51 12.15 5.86 21.71 5.86s17.67-2.35 21.71-5.86z"/></symbol><use style="display: var(--s16, none)" href="#s16"/><use style="display: var(--s24, none)" href="#s24"/><use style="display: var(--s32, none)" href="#s32"/><use style="display: var(--s40, none)" href="#s40"/><use style="display: var(--s48, none)" href="#s48"/><use style="display: var(--s64, none)" href="#s64"/></symbol></defs><style>@media (max-width: 23.98px) {g{--s16:block;}}@media (min-width: 24px) and (max-width: 31.98px) {g{--s24:block;}}@media (min-width: 32px) and (max-width: 39.98px) {g{--s32:block;}}@media (min-width: 40px) and (max-width: 47.98px) {g{--s40:block;}}@media (min-width: 48px) and (max-width: 63.98px) {g{--s48:block;}}@media (min-width: 64px) {g{--s64:block;}}</style><g><use href="#i-database"/></g></svg>