<svg xmlns="http://www.w3.org/2000/svg"><defs><symbol id="i-designsystem"><symbol id="s16" viewBox="0 0 16 16"><path d="m7.1 11.54 1.22 1.22-.24.86H5.19l-.67-2.37c-.23-.11-.46-.25-.68-.4l-2.4.61-1.45-2.5L1.71 7.2c-.01-.13-.02-.26-.02-.4s0-.27.02-.4L-.01 4.65l1.45-2.5 2.4.61c.22-.15.45-.28.68-.4L5.18 0h2.89l.67 2.37c.23.11.46.24.68.4l2.4-.61 1.45 2.5-1.72 1.76c.01.13.02.26.02.4 0 .13 0 .25-.02.37l-.82-.82a1.9 1.9 0 0 0-.77-.46s1.44-1.48 1.44-1.48l-.31-.53-2.01.51-.29-.24c-.29-.24-.61-.42-.94-.55l-.35-.13-.56-1.98h-.61l-.56 1.98-.35.13c-.33.13-.64.31-.94.55l-.29.24-2.01-.51-.31.53L3.31 5.9l-.06.37c-.03.18-.06.36-.06.54s.03.37.06.54l.06.37-1.44 1.47.31.53 2.01-.51.29.24c.29.24.61.42.94.55l.35.13.56 1.98h.61l.16-.58ZM15.99 16l-3.93-.57-6.07-6.06h-.01v-.01L4.46 7.84c-.45-.45-.45-1.18 0-1.63L6.17 4.5c.45-.45 1.18-.45 1.64 0l7.61 7.59.59 3.91Zm-2.92-4.12L8.81 7.63 7.58 8.84l4.27 4.26zM5.75 7.02l.76.76 1.23-1.2-.77-.76-1.22 1.21Zm8.45 7.2-.18-1.17-1 1z"/></symbol><symbol id="s24" viewBox="0 0 24 24"><path d="m10.61 16.67 1.43 1.38-.5 1.79H7.61l-.97-3.47c-.4-.19-.79-.41-1.17-.68l-3.5.89L0 13.18l2.51-2.57c-.03-.22-.05-.45-.05-.69s.02-.47.05-.69L0 6.66l1.96-3.41 3.5.89q.555-.405 1.17-.69L7.61 0h3.93l.97 3.47q.6.285 1.17.69l3.5-.89 1.97 3.41-2.51 2.57c.03.22.05.45.05.69s-.02.47-.05.69c0 0-.07.29-.23.4l-1.5-1.45c-.02-.16-.04-.33-.07-.49l-.07-.43 2.19-2.25-.64-1.11-3.05.78-.34-.28a5.6 5.6 0 0 0-1.46-.86l-.41-.16-.85-3.02H8.93l-.85 3.02-.41.16c-.51.2-1 .48-1.46.86l-.34.28-3.05-.78-.64 1.11 2.19 2.25-.07.43c-.05.29-.09.58-.09.85s.04.56.09.85l.07.43-2.19 2.25.64 1.11 3.05-.78.34.28c.46.37.95.66 1.46.85l.41.16.85 3.02h1.28l.4-1.42ZM24 23.99l-5.61-.74-9.5-9.18s-.05-.02-.07-.04-.02-.04-.04-.06L6.43 11.7c-.29-.28-.45-.66-.46-1.06 0-.4.15-.78.43-1.07l2.61-2.68c.28-.29.65-.45 1.05-.45.37.02.78.15 1.07.43l11.95 11.56.91 5.58ZM12.98 11.07l-2.28 2.31 7.19 6.95 2.26-2.32zm-5.14-.46 1.6 1.55 2.28-2.31-1.62-1.57-2.26 2.32ZM21.9 21.95l-.44-2.68-.05-.05-2.26 2.32.05.04 2.7.36Z"/></symbol><symbol id="s32" viewBox="0 0 32 32"><path d="m14.3 22.29 1.63 1.6-.71 2.53h-5.03l-1.3-4.62a8.8 8.8 0 0 1-1.69-.99L2.53 22 0 17.64l3.35-3.44c-.04-.32-.07-.64-.07-.99s.03-.67.07-.99L0 8.79l2.52-4.36 4.67 1.19c.54-.4 1.1-.73 1.69-.99L10.18 0h5.03l1.3 4.63c.59.26 1.15.59 1.69.99l4.67-1.19 2.52 4.36-3.35 3.44c.04.32.07.64.07.99s-.03.67-.07.99c0 0-.06.22-.16.29l-1.8-1.77c-.02-.22-.05-.45-.09-.68l-.08-.5 2.99-3.07-1-1.74-4.16 1.06-.39-.32c-.63-.51-1.31-.91-2.02-1.18l-.47-.18L13.7 2h-2l-1.16 4.12-.47.18c-.71.27-1.39.67-2.02 1.18l-.39.32L3.5 6.74l-1 1.74 2.99 3.07-.08.5c-.06.4-.12.8-.12 1.18s.06.77.12 1.18l.08.5-2.99 3.07 1 1.74 4.16-1.06.39.32c.63.52 1.32.91 2.02 1.18l.47.18 1.16 4.12h2l.6-2.13ZM32 32l-7.27-.96L8.62 15.2c-.72-.71-.74-1.88-.03-2.6l3.52-3.62c.34-.35.8-.55 1.3-.56h.03c.48 0 .94.19 1.29.52l16.1 15.84L32.01 32ZM16.93 13.92l-3.33 3.37 10.38 10.22 3.3-3.39-10.36-10.19Zm-6.8-.04 2.04 2.01 3.33-3.37-2.07-2.04-3.3 3.39Zm19.46 15.79-.64-3.92-.24-.23-3.3 3.39.24.23 3.94.52Z"/></symbol><symbol id="s40" viewBox="0 0 40 40"><path d="m18.05 27.74 1.83 1.8-.98 3.49h-6.14l-1.63-5.79c-.77-.34-1.51-.77-2.22-1.3l-5.85 1.49-3.08-5.32 4.2-4.3c-.06-.41-.1-.84-.1-1.3s.04-.88.1-1.3l-4.2-4.3 3.07-5.32L8.9 7.08c.71-.52 1.45-.96 2.22-1.3l1.64-5.79h6.14l1.63 5.79c.77.34 1.51.78 2.22 1.3l5.85-1.49 3.07 5.32-4.2 4.3c.06.41.1.84.1 1.3s-.04.88-.1 1.3c0 0-.09.31-.33.41l-1.83-1.8c0-.47-.07-.93-.15-1.41l-.09-.56 3.8-3.89-1.37-2.37-5.28 1.35-.44-.36a9.5 9.5 0 0 0-2.59-1.52l-.53-.2-1.47-5.22h-2.73l-1.47 5.22-.53.2c-.91.35-1.78.86-2.59 1.52l-.44.36-5.28-1.35-1.37 2.37 3.8 3.89-.09.56c-.08.51-.16 1-.16 1.5s.07.99.16 1.5l.09.56-3.8 3.89 1.37 2.37 5.28-1.34.44.36c.81.66 1.68 1.17 2.59 1.51l.53.2 1.47 5.23h2.73l.85-3.04Zm21.93 12.25-8.94-1.18-20.25-19.93a2.176 2.176 0 0 1-.04-3.08l4.43-4.56c.84-.86 2.22-.88 3.09-.04l20.25 19.92 1.45 8.87ZM21.16 17.18l-4.42 4.47 13.31 13.03 4.35-4.47zm-8.8.18 2.77 2.71 4.42-4.47-2.85-2.8zm24.91 20-.85-5.16-.42-.42-4.35 4.47.43.42z"/></symbol><symbol id="s48" viewBox="0 0 48 48"><path d="m21.82 33.22 2.04 2.01-1.24 4.4h-7.26l-1.96-6.96c-.95-.42-1.87-.95-2.74-1.6l-7.03 1.79L0 26.58l5.05-5.17c-.07-.51-.12-1.04-.12-1.6s.05-1.09.12-1.6L0 13.05l3.63-6.28 7.03 1.79c.87-.65 1.79-1.18 2.74-1.6L15.37 0h7.26l1.96 6.96c.95.42 1.87.95 2.74 1.6l7.03-1.79 3.63 6.28-5.05 5.17c.07.52.12 1.04.12 1.6s-.05 1.08-.12 1.6c0 0-.16.57-.36.67l-2.04-2.01c0-.09.02-.17.02-.26 0-.6-.09-1.21-.19-1.83l-.1-.62 4.6-4.71-1.73-2.99-6.4 1.63-.49-.4c-.99-.8-2.05-1.42-3.15-1.84l-.59-.22-1.78-6.32h-3.45L15.5 8.84l-.59.22c-1.1.42-2.16 1.04-3.15 1.84l-.49.4-6.4-1.63-1.73 2.99 4.6 4.71-.1.62c-.1.62-.19 1.22-.19 1.83s.09 1.21.19 1.83l.1.62-4.6 4.71 1.73 2.99 6.4-1.63.49.4c.99.8 2.05 1.42 3.15 1.84l.59.22 1.78 6.32h3.45l1.1-3.9ZM48.01 48l-10.62-1.4-.3-.29-24.11-23.7c-1-.97-1.02-2.58-.04-3.58l5.35-5.49c.98-1 2.59-1.02 3.59-.05l24.41 23.99 1.73 10.53ZM25.42 20.49l-5.41 5.47 16.15 15.9 5.38-5.53zm-10.68.29 3.48 3.42 5.41-5.47-3.51-3.45zm30.24 24.29-1.05-6.38-.61-.6-5.38 5.53.61.6z"/></symbol><symbol id="s64" viewBox="0 0 64 64"><path d="m29.58 43.8 2.24 2.2-1.91 6.76h-9.32l-2.62-9.29c-1.35-.58-2.66-1.34-3.89-2.27l-9.41 2.39-4.64-8.04 6.75-6.91c-.11-.74-.19-1.48-.19-2.26s.08-1.52.19-2.26L.03 17.21l4.66-8.05 9.41 2.39a18.5 18.5 0 0 1 3.89-2.27L20.6 0h9.32l2.62 9.29c1.35.58 2.66 1.34 3.89 2.27l9.41-2.39 4.66 8.05-6.75 6.91c.1.72.19 1.48.19 2.26s-.08 1.54-.19 2.26c0 0-.35 1.35-.56 1.53l-2.15-2.11c.08-.56.14-1.13.14-1.69 0-.84-.12-1.66-.26-2.51l-.11-.68 6.26-6.4-2.57-4.44-8.71 2.21-.54-.44c-1.36-1.1-2.82-1.95-4.34-2.53l-.65-.25-2.42-8.6H22.7l-2.42 8.6-.65.25c-1.52.58-2.98 1.43-4.34 2.53l-.54.44-8.71-2.21-2.57 4.44 6.26 6.4-.11.68c-.14.85-.26 1.69-.26 2.51s.12 1.66.26 2.51l.11.68-6.26 6.4 2.57 4.44 8.71-2.21.54.44c1.36 1.1 2.82 1.95 4.34 2.53l.65.25 2.42 8.6h5.14l1.75-6.22Zm34.45 20.19-13.91-1.84-33.18-32.57a3.11 3.11 0 0 1-.06-4.4l7.29-7.48a3.124 3.124 0 0 1 4.41-.06l33.18 32.57 2.26 13.78ZM33.65 26.47l-7.86 7.94 22.5 22.09 7.8-8-22.44-22.02Zm-14.79 1.15 4.96 4.86 7.86-7.94-5.02-4.93c-.08-.08-.17-.08-.26-.1-.07 0-.17.02-.26.11l-7.29 7.48c-.14.14-.14.38 0 .52Zm41.85 33.16-1.52-9.24-1.14-1.12-7.8 8 1.15 1.13 9.32 1.23Z"/></symbol><use style="display: var(--s16, none)" href="#s16"/><use style="display: var(--s24, none)" href="#s24"/><use style="display: var(--s32, none)" href="#s32"/><use style="display: var(--s40, none)" href="#s40"/><use style="display: var(--s48, none)" href="#s48"/><use style="display: var(--s64, none)" href="#s64"/></symbol></defs><style>@media (max-width: 23.98px) {g{--s16:block;}}@media (min-width: 24px) and (max-width: 31.98px) {g{--s24:block;}}@media (min-width: 32px) and (max-width: 39.98px) {g{--s32:block;}}@media (min-width: 40px) and (max-width: 47.98px) {g{--s40:block;}}@media (min-width: 48px) and (max-width: 63.98px) {g{--s48:block;}}@media (min-width: 64px) {g{--s64:block;}}</style><g><use href="#i-designsystem"/></g></svg>