<svg xmlns="http://www.w3.org/2000/svg"><defs><symbol id="i-desktop"><symbol id="s16" viewBox="0 0 16 16"><path d="M16 4.94v-1.5h-4.84c-.69 0-1.25.56-1.25 1.25v5.58c0 .69.56 1.25 1.25 1.25h2.82v1.45H8.76V2.23c0-.69-.56-1.25-1.25-1.25h-5c-.69 0-1.25.56-1.25 1.25v10.75H0v1.5h2.52V16h1.5v-1.52H16v-1.5h-.52v-1.45H16v-1.5h-4.59V4.95H16ZM2.76 12.98V2.48h4.5v10.5zm4-8.46c0 .41-.34.75-.75.75h-2c-.41 0-.75-.34-.75-.75s.34-.75.75-.75h2c.41 0 .75.34.75.75m0 2.14c0 .41-.34.75-.75.75h-2c-.41 0-.75-.34-.75-.75s.34-.75.75-.75h2c.41 0 .75.34.75.75m-.88 4.75c0 .48-.39.88-.88.88s-.88-.39-.88-.88.39-.88.88-.88.88.39.88.88"/></symbol><symbol id="s24" viewBox="0 0 24 24"><path d="M24 7.16V5.41h-7.26c-.9 0-1.62.73-1.62 1.62v8.38c0 .9.73 1.62 1.62 1.62h4.47v2.68h-8.33V3.09c0-.76-.62-1.38-1.38-1.38H3.51c-.76 0-1.38.62-1.38 1.38v16.62H0v1.75h4.04v2.53h1.75v-2.53H24v-1.75h-1.04v-2.68H24v-1.75h-7.13V7.16zM3.89 19.72V3.47h7.25v16.25zm6.25-12.94c0 .48-.39.88-.88.88h-3.5c-.48 0-.88-.39-.88-.88s.39-.88.88-.88h3.5c.48 0 .88.39.88.88m0 2.89c0 .48-.39.88-.88.88h-3.5c-.48 0-.88-.39-.88-.88s.39-.88.88-.88h3.5c.48 0 .88.39.88.88m-1.5 7.45c0 .62-.5 1.12-1.12 1.12s-1.12-.5-1.12-1.12S6.9 16 7.52 16s1.12.5 1.12 1.12"/></symbol><symbol id="s32" viewBox="0 0 32 32"><path d="M32 9.38v-2h-9.68c-1.1 0-2 .9-2 2v11.17c0 1.1.9 2 2 2h6.13v3.9H17.02V3.96c0-.83-.67-1.5-1.5-1.5h-11c-.83 0-1.5.67-1.5 1.5v22.5H0v2h5.55V32h2v-3.54H32v-2h-1.55v-3.9H32v-2h-9.68V9.39H32ZM5.02 26.46v-22h10v22zm8.33-17.42c0 .55-.45 1-1 1H7.68c-.55 0-1-.45-1-1s.45-1 1-1h4.67c.55 0 1 .45 1 1m0 3.4c0 .55-.45 1-1 1H7.68c-.55 0-1-.45-1-1s.45-1 1-1h4.67c.55 0 1 .45 1 1m-2 10.39a1.33 1.33 0 1 1-2.659.001 1.33 1.33 0 0 1 2.659-.001"/></symbol><symbol id="s40" viewBox="0 0 40 40"><path d="M27.9 11.61H40V9.36H27.9c-1.31 0-2.38 1.07-2.38 2.38V25.7c0 1.31 1.07 2.38 2.38 2.38h7.79v5.13H21.15V4.82c0-.9-.73-1.62-1.62-1.62H5.52c-.9 0-1.62.73-1.62 1.62V33.2H0v2.25h7.06V40h2.25v-4.55H40V33.2h-2.06v-5.13H40v-2.25H27.9c-.07 0-.12-.06-.12-.12V11.74c0-.07.06-.12.12-.12ZM6.15 33.2V5.45H18.9V33.2zm10.42-21.9c0 .62-.5 1.12-1.12 1.12H9.62c-.62 0-1.12-.5-1.12-1.12s.5-1.12 1.12-1.12h5.83c.62 0 1.12.5 1.12 1.12m0 4.24c0 .62-.5 1.12-1.12 1.12H9.62c-.62 0-1.12-.5-1.12-1.12s.5-1.12 1.12-1.12h5.83c.62 0 1.12.5 1.12 1.12m-2.5 12.99a1.54 1.54 0 1 1-3.081-.001 1.54 1.54 0 0 1 3.081.001"/></symbol><symbol id="s48" viewBox="0 0 48 48"><path d="M33.48 13.83H48v-2.5H33.48c-1.52 0-2.75 1.23-2.75 2.75v16.75c0 1.52 1.23 2.75 2.75 2.75h9.45v6.35H25.28V5.69c0-.96-.79-1.75-1.75-1.75h-17c-.96 0-1.75.79-1.75 1.75v34.25H0v2.5h8.57V48h2.5v-5.56H48v-2.5h-2.57v-6.35H48v-2.5H33.48c-.14 0-.25-.11-.25-.25V14.08c0-.14.11-.25.25-.25M7.28 39.94V6.44h15.5v33.5zm12.5-28.34c0 .69-.56 1.25-1.25 1.25h-7a1.25 1.25 0 0 1 0-2.5h7c.69 0 1.25.56 1.25 1.25m0 4.24c0 .69-.56 1.25-1.25 1.25h-7a1.25 1.25 0 0 1 0-2.5h7c.69 0 1.25.56 1.25 1.25m0 4.03c0 .69-.56 1.25-1.25 1.25h-7a1.25 1.25 0 0 1 0-2.5h7c.69 0 1.25.56 1.25 1.25m-3 14.38c0 .96-.79 1.75-1.75 1.75s-1.75-.79-1.75-1.75.79-1.75 1.75-1.75 1.75.79 1.75 1.75"/></symbol><symbol id="s64" viewBox="0 0 64 64"><path d="M44.65 18.14H64v-2.75H44.65c-1.86 0-3.38 1.51-3.38 3.38v22.34c0 1.86 1.51 3.38 3.38 3.38h14.31v9.05H33.42V7.41c0-1.03-.84-1.88-1.88-1.88h-23c-1.03 0-1.88.84-1.88 1.88v46.12H0v2.75h11.72v7.71h2.75v-7.71H64v-2.75h-2.3v-9.05H64v-2.75H44.65c-.34 0-.62-.28-.62-.62V18.77c0-.34.28-.62.62-.62ZM9.41 53.54V8.29h21.25v45.25zm16.67-38.08c0 .76-.62 1.38-1.38 1.38h-9.33c-.76 0-1.38-.62-1.38-1.38s.62-1.38 1.38-1.38h9.33c.76 0 1.38.62 1.38 1.38m0 5.65c0 .76-.62 1.38-1.38 1.38h-9.33c-.76 0-1.38-.62-1.38-1.38s.62-1.38 1.38-1.38h9.33c.76 0 1.38.62 1.38 1.38m0 5.38c0 .76-.62 1.38-1.38 1.38h-9.33c-.76 0-1.38-.62-1.38-1.38s.62-1.38 1.38-1.38h9.33c.76 0 1.38.62 1.38 1.38m-4 19.16c0 1.13-.92 2.04-2.04 2.04S18 46.77 18 45.65s.92-2.04 2.04-2.04 2.04.92 2.04 2.04"/></symbol><use style="display: var(--s16, none)" href="#s16"/><use style="display: var(--s24, none)" href="#s24"/><use style="display: var(--s32, none)" href="#s32"/><use style="display: var(--s40, none)" href="#s40"/><use style="display: var(--s48, none)" href="#s48"/><use style="display: var(--s64, none)" href="#s64"/></symbol></defs><style>@media (max-width: 23.98px) {g{--s16:block;}}@media (min-width: 24px) and (max-width: 31.98px) {g{--s24:block;}}@media (min-width: 32px) and (max-width: 39.98px) {g{--s32:block;}}@media (min-width: 40px) and (max-width: 47.98px) {g{--s40:block;}}@media (min-width: 48px) and (max-width: 63.98px) {g{--s48:block;}}@media (min-width: 64px) {g{--s64:block;}}</style><g><use href="#i-desktop"/></g></svg>