<svg xmlns="http://www.w3.org/2000/svg"><defs><symbol id="i-directionarrow"><symbol id="s16" viewBox="0 0 16 16"><path d="m7.71 16-.82-6.89L0 8.32 16.01 0zM5.03 7.39l3.19.37.39 3.25 3.89-7.5z"/></symbol><symbol id="s24" viewBox="0 0 24 24"><path d="M11.63 24.09 10.32 13.7-.04 12.44l24-12.35-12.34 24Zm-5.82-12.7 6.07.73.77 6.15 7.27-14.15z"/></symbol><symbol id="s32" viewBox="0 0 32 32"><path d="m15.37 31.99-1.62-13.78L.01 16.65l32-16.66zM6.74 15.4l8.81 1 1.05 8.91L27.32 4.68z"/></symbol><symbol id="s40" viewBox="0 0 40 40"><path d="m19.2 40-2.03-17.23L0 20.83 40 0zM7.57 19.42l11.62 1.31 1.38 11.74L34.71 5.28z"/></symbol><symbol id="s48" viewBox="0 0 48 48"><path d="m23.04 48.01-2.43-20.67L0 25.01 48 0 23.03 48ZM8.43 23.44l14.43 1.63 1.71 14.57L42.13 5.89z"/></symbol><symbol id="s64" viewBox="0 0 64 64"><path d="m30.59 64.11-3.24-27.57-27.47-3.1 64-33.33zM9.11 31.73l20.7 2.34 2.46 20.88L57.44 6.56z"/></symbol><use style="display: var(--s16, none)" href="#s16"/><use style="display: var(--s24, none)" href="#s24"/><use style="display: var(--s32, none)" href="#s32"/><use style="display: var(--s40, none)" href="#s40"/><use style="display: var(--s48, none)" href="#s48"/><use style="display: var(--s64, none)" href="#s64"/></symbol></defs><style>@media (max-width: 23.98px) {g{--s16:block;}}@media (min-width: 24px) and (max-width: 31.98px) {g{--s24:block;}}@media (min-width: 32px) and (max-width: 39.98px) {g{--s32:block;}}@media (min-width: 40px) and (max-width: 47.98px) {g{--s40:block;}}@media (min-width: 48px) and (max-width: 63.98px) {g{--s48:block;}}@media (min-width: 64px) {g{--s64:block;}}</style><g><use href="#i-directionarrow"/></g></svg>