<svg xmlns="http://www.w3.org/2000/svg"><defs><symbol id="i-disabledblind-solid"><symbol id="s16" viewBox="0 0 16 16"><path d="M3.59 2.26C3.59 1.02 4.61 0 5.86 0s2.26 1.01 2.26 2.25S7.1 4.5 5.86 4.5 3.6 3.49 3.6 2.25Zm12.25 12.47-4.51-4.61.3-.29L8.94 6.6a2.65 2.65 0 0 0-2.37-1.45H5.39c-1.36 0-2.39.93-2.85 2.6l-.56 2.99-1.93 5.27h3.67l.93-1.56.26 1.56h3.46l-.79-5.13.02-.16.33.32c.34.33.78.49 1.22.49.38 0 .75-.13 1.07-.37l4.54 4.63a.76.76 0 0 0 1.07.02c.3-.29.3-.76.01-1.06Z"/></symbol><symbol id="s24" viewBox="0 0 24 24"><path d="M6.19 2.89C6.19 1.3 7.48.01 9.06.01s2.87 1.29 2.87 2.88-1.29 2.88-2.87 2.88-2.87-1.29-2.87-2.88m17.53 19.63-6.92-7.09.41-.39-4.25-6.43s-.02-.01-.02-.02c-.67-.97-1.79-1.6-3.05-1.6H8.13c-1.9 0-3.35 1.32-3.99 3.71l-.72 4.18-3.45 9.13H5l1.98-4.1.63 4.1h4.65l-1.13-7.7.13-1.64 1.25 1.38c.51.49 1.16.74 1.82.74.38 0 .75-.09 1.11-.26l7.04 7.21c.17.17.4.26.62.26s.44-.08.61-.25c.34-.34.35-.89.01-1.24Z"/></symbol><symbol id="s32" viewBox="0 0 32 32"><path d="M7.99 4.04C7.99 1.82 9.8.01 12.02.01s4.03 1.81 4.03 4.03-1.81 4.03-4.03 4.03-4.03-1.81-4.03-4.03m23.72 26.27-9.49-9.69.57-.55-5.67-8.54-.03-.03a4.84 4.84 0 0 0-3.98-2.08h-2.38c-2.52 0-4.36 1.69-5.22 4.85l-.97 5.66L0 32.01h6.42l2.79-5.75.74 5.75h6.19l-1.49-10.19.21-2.65 1.96 2.17c.65.63 1.49.94 2.33.94.53 0 1.05-.14 1.53-.39l9.61 9.81c.2.2.45.3.71.3s.5-.09.7-.28c.39-.39.4-1.02.02-1.41Z"/></symbol><symbol id="s40" viewBox="0 0 40 40"><path d="M10.29 4.97c0-2.73 2.22-4.95 4.95-4.95s4.95 2.22 4.95 4.94-2.22 4.94-4.95 4.94-4.95-2.22-4.95-4.94ZM39.71 38.1 27.66 25.81l.74-.71-7.08-10.66s-.01 0-.02-.02a5.97 5.97 0 0 0-4.92-2.58h-2.99c-3.11 0-5.39 2.09-6.42 5.89l-1.25 7.24L.03 40.02h7.82l3.7-7.61 1.02 7.61h7.46l-1.86-12.69.28-3.65 2.67 2.95c.8.77 1.82 1.15 2.84 1.15.68 0 1.35-.18 1.96-.52L38.1 39.68c.22.22.51.34.81.34s.57-.11.79-.32c.45-.43.45-1.15.02-1.59Z"/></symbol><symbol id="s48" viewBox="0 0 48 48"><path d="M12.29 5.87c0-3.23 2.63-5.85 5.85-5.85s5.85 2.62 5.85 5.85a5.851 5.851 0 0 1-11.7 0m35.35 40.01L33 30.93l.83-.79-8.47-12.77s-.02-.01-.02-.02a7.1 7.1 0 0 0-5.83-3.07h-3.6c-3.68 0-6.39 2.49-7.62 7.02l-1.5 8.72-6.79 18h9.19l4.57-9.42 1.26 9.42h8.76l-2.23-15.18.36-4.66 3.38 3.73c.94.9 2.14 1.35 3.35 1.35.86 0 1.71-.24 2.47-.69l14.75 15.07c.25.25.57.38.89.38s.63-.12.87-.36c.49-.48.5-1.27.02-1.77Z"/></symbol><symbol id="s64" viewBox="0 0 64 64"><path d="M16.51 7.59c0-4.17 3.4-7.56 7.58-7.56s7.59 3.4 7.59 7.57-3.4 7.57-7.59 7.57-7.59-3.4-7.59-7.57Zm47.21 54.12L43.68 39.85l1.19-1.14-11.29-16.98-.03-.03c-1.68-2.41-4.46-3.99-7.62-3.99h-4.86c-4.82 0-8.37 3.27-9.99 9.22L9.32 38.44.08 64.03h11.75l6.48-14.05 1.84 14.05h11.2L28.39 43.9l.61-8.88 4.86 5.79.1.11a6.2 6.2 0 0 0 4.3 1.74c1.17 0 2.33-.33 3.35-.99l20.07 21.89c.27.3.64.45 1.02.45a1.375 1.375 0 0 0 1.02-2.3"/></symbol><use style="display: var(--s16, none)" href="#s16"/><use style="display: var(--s24, none)" href="#s24"/><use style="display: var(--s32, none)" href="#s32"/><use style="display: var(--s40, none)" href="#s40"/><use style="display: var(--s48, none)" href="#s48"/><use style="display: var(--s64, none)" href="#s64"/></symbol></defs><style>@media (max-width: 23.98px) {g{--s16:block;}}@media (min-width: 24px) and (max-width: 31.98px) {g{--s24:block;}}@media (min-width: 32px) and (max-width: 39.98px) {g{--s32:block;}}@media (min-width: 40px) and (max-width: 47.98px) {g{--s40:block;}}@media (min-width: 48px) and (max-width: 63.98px) {g{--s48:block;}}@media (min-width: 64px) {g{--s64:block;}}</style><g><use href="#i-disabledblind-solid"/></g></svg>