<svg xmlns="http://www.w3.org/2000/svg"><defs><symbol id="i-disabledwalking"><symbol id="s16" viewBox="0 0 16 16"><path d="M4.04 4.75c1.31 0 2.38-1.07 2.38-2.38S5.35 0 4.04 0 1.66 1.06 1.66 2.37s1.07 2.38 2.38 2.38m0-3.26c.49 0 .88.4.88.88s-.4.88-.88.88-.88-.4-.88-.88.4-.88.88-.88m10.7 10.65v-.93c0-.96-.78-1.75-1.75-1.75h-2.4V9c0-.96-.78-1.75-1.74-1.75h-.44L5.44 5.58s-.03 0-.04-.01c-.41-.26-.88-.41-1.4-.41H2.83C1.3 5.16 0 6.41-.01 7.89l.05 8.1h4.61l.49-6.29.91.32A1.74 1.74 0 0 0 8 9.46l.57-.72h.27c.14 0 .25.11.25.25v1.14L8.7 12.1c-.79.27-1.36 1.01-1.36 1.88 0 1.1.9 2 2 2s2-.9 2-2c0-.79-.46-1.46-1.13-1.79l.24-1.24h2.53c.14 0 .25.11.25.25v.93c-.73.3-1.25 1.01-1.25 1.85 0 1.1.9 2 2 2s2-.9 2-2c0-.84-.52-1.55-1.25-1.85ZM6.83 8.53c-.07.08-.18.12-.28.08l-2.44-.87c-.39-.14-.82.07-.96.46s.07.82.46.96l.07.02-.41 5.32H1.53l-.04-6.6c0-.66.63-1.24 1.34-1.24H4c.27 0 .5.11.7.26V6.9l2.38 1.33-.25.31Zm2.51 5.96c-.28 0-.5-.22-.5-.5s.22-.5.5-.5.5.22.5.5-.22.5-.5.5m4.65 0c-.28 0-.5-.22-.5-.5s.22-.5.5-.5.5.22.5.5-.22.5-.5.5"/></symbol><symbol id="s24" viewBox="0 0 24 24"><path d="M5.91 6.75c1.86 0 3.38-1.52 3.38-3.38S7.78 0 5.91 0 2.53 1.52 2.53 3.38s1.52 3.38 3.38 3.38Zm0-5.01a1.63 1.63 0 1 1 0 3.26 1.63 1.63 0 0 1 0-3.26m16.17 16.81v-1.63c0-1.33-1.08-2.41-2.41-2.41H15.7v-1.23c0-1.33-1.07-2.41-2.4-2.41h-.75L7.93 8.28s-.03 0-.04-.01a3.73 3.73 0 0 0-2.03-.61h-1.8C1.87 7.66 0 9.45 0 11.58v12.41h6.07l1.27-10.02 1.76.62c.26.09.54.14.81.14.72 0 1.42-.32 1.88-.9l.97-1.21h.55c.36 0 .66.29.66.66v2.02l-.63 3.21a2.79 2.79 0 0 0-2.05 2.68 2.791 2.791 0 0 0 5.58 0c0-1.18-.74-2.18-1.77-2.59l.46-2.33h4.11c.36 0 .66.29.66.66v1.63c-1.11.37-1.92 1.4-1.92 2.63a2.791 2.791 0 0 0 5.58 0c0-1.23-.81-2.27-1.92-2.63Zm-11.67-5.81c-.17.22-.47.3-.73.21l-3.75-1.33a.884.884 0 0 0-1.12.53c-.16.45.08.96.53 1.12l.3.11-1.13 8.87H1.75V11.6c0-1.18 1.06-2.18 2.31-2.18h1.8c.46 0 .88.16 1.22.41S11 12.02 11 12.02l-.58.73Zm3.66 9.49c-.57 0-1.04-.47-1.04-1.04s.47-1.04 1.04-1.04 1.04.47 1.04 1.04-.47 1.04-1.04 1.04m7.13 0c-.57 0-1.04-.47-1.04-1.04s.47-1.04 1.04-1.04 1.04.47 1.04 1.04-.47 1.04-1.04 1.04"/></symbol><symbol id="s32" viewBox="0 0 32 32"><path d="M7.81 8.76c2.41 0 4.38-1.96 4.38-4.38S10.23 0 7.81 0 3.43 1.97 3.43 4.38s1.96 4.38 4.38 4.38m0-6.76c1.31 0 2.38 1.07 2.38 2.38S9.12 6.76 7.81 6.76 5.43 5.69 5.43 4.38 6.5 2 7.81 2M29.4 25.13v-2.48c0-1.69-1.38-3.07-3.07-3.07H20.8v-2.26a3.056 3.056 0 0 0-3.06-3.07h-1.05l-6.28-3.52h-.01c-.78-.51-1.7-.81-2.7-.81H5.27C2.43 9.91.01 12.25 0 15.02V32h7.78l1.55-14.08 2.82 1c.34.12.68.18 1.03.18.91 0 1.8-.41 2.4-1.15l1.36-1.7h.84c.59 0 1.07.48 1.07 1.07v3.16l-.92 4.64c-1.5.39-2.62 1.75-2.62 3.37 0 1.93 1.57 3.5 3.5 3.5s3.5-1.57 3.5-3.5c0-1.53-.99-2.82-2.36-3.29l.71-3.62h5.69c.59 0 1.07.48 1.07 1.07v2.54c-1.39.46-2.41 1.76-2.41 3.31 0 1.93 1.57 3.5 3.5 3.5s3.5-1.57 3.5-3.5c0-1.61-1.1-2.96-2.59-3.36ZM14 16.7c-.28.36-.76.49-1.19.34l-5.06-1.8a1.003 1.003 0 0 0-.67 1.89l.3.11-1.41 12.77H1.99V15.04c.01-1.69 1.52-3.12 3.29-3.12h2.43c.65 0 1.24.22 1.73.57s5.47 3.06 5.47 3.06l-.92 1.15Zm4.79 13.29c-.83 0-1.5-.67-1.5-1.5s.67-1.5 1.5-1.5 1.5.67 1.5 1.5-.67 1.5-1.5 1.5m9.7 0c-.83 0-1.5-.67-1.5-1.5s.67-1.5 1.5-1.5 1.5.67 1.5 1.5-.67 1.5-1.5 1.5"/></symbol><symbol id="s40" viewBox="0 0 40 40"><path d="M9.7 10.76c2.96 0 5.38-2.41 5.38-5.38S12.66 0 9.7 0 4.32 2.41 4.32 5.38s2.41 5.38 5.38 5.38m0-8.5c1.72 0 3.13 1.4 3.13 3.13s-1.4 3.13-3.13 3.13-3.13-1.4-3.13-3.13 1.4-3.13 3.13-3.13M37 31.93v-3.57a3.73 3.73 0 0 0-3.73-3.73h-7.35V21.6c0-2.06-1.66-3.73-3.72-3.73h-1.36l-7.93-4.45h-.01c-.96-.63-2.1-1-3.33-1H6.52c-3.51 0-6.5 2.88-6.52 6.29V40h9.22l2.09-17.89 3.88 1.38c.41.14.83.21 1.25.21 1.11 0 2.19-.5 2.91-1.4l1.74-2.18h1.11c.81 0 1.48.66 1.48 1.48v4.07l-.95 6.16c-1.9.37-3.35 2.04-3.35 4.05a4.131 4.131 0 0 0 8.26 0c0-1.76-1.11-3.25-2.66-3.84l.8-5.15h7.5c.81 0 1.48.66 1.48 1.48v3.57c-1.73.49-3 2.07-3 3.95a4.131 4.131 0 0 0 8.26 0c0-1.88-1.27-3.46-3-3.95ZM17.59 20.9c-.39.49-1.06.68-1.65.47l-6.36-2.26c-.59-.21-1.23.1-1.44.68-.21.59.1 1.23.68 1.44l.31.11-1.92 16.41H2.25V18.72c.01-2.2 1.97-4.05 4.27-4.05h3.05c.84 0 1.61.28 2.24.74v-.02l7.03 3.94-1.26 1.57Zm5.92 16.85c-1.03 0-1.88-.84-1.88-1.88s.84-1.88 1.88-1.88 1.88.84 1.88 1.88-.84 1.88-1.88 1.88m12.36 0c-1.03 0-1.88-.84-1.88-1.88s.84-1.88 1.88-1.88 1.88.84 1.88 1.88-.84 1.88-1.88 1.88"/></symbol><symbol id="s48" viewBox="0 0 48 48"><path d="M11.58 12.75c3.52 0 6.37-2.86 6.37-6.38S15.1 0 11.58 0 5.21 2.86 5.21 6.38s2.86 6.38 6.37 6.38Zm0-10.25c2.14 0 3.87 1.74 3.87 3.87s-1.74 3.88-3.87 3.88-3.87-1.74-3.87-3.88S9.45 2.5 11.58 2.5m32.8 35.95v-4.37c0-2.42-1.97-4.39-4.39-4.39h-8.96v-3.76a4.38 4.38 0 0 0-4.38-4.39h-1.67l-9.58-5.38s-.02 0-.03-.01a7.15 7.15 0 0 0-3.95-1.19H7.74c-4.17 0-7.72 3.43-7.74 7.49v25.56h10.89l2.87-21.46h.09l4.39 1.56a4.41 4.41 0 0 0 4.9-1.4l2.14-2.67h1.39c1.04 0 1.89.85 1.89 1.89v4.92l-1.16 7.51c-2.28.4-4.02 2.39-4.02 4.78a4.87 4.87 0 1 0 9.74 0c0-2.1-1.35-3.88-3.22-4.56l.99-6.38h9.13c1.04 0 1.89.85 1.89 1.89v4.37c-2.08.56-3.62 2.44-3.62 4.68a4.87 4.87 0 1 0 9.74 0c0-2.25-1.54-4.13-3.62-4.68Zm-23.21-13.3c-.5.63-1.35.87-2.1.6l-7.67-2.73c-.65-.23-1.37.11-1.6.76s.11 1.37.76 1.6l.79.28L8.7 45.5H2.5V22.45c.02-2.7 2.42-4.99 5.25-4.99h3.68c1.03 0 1.98.34 2.75.9v-.02l8.58 4.81-1.59 1.99Zm9.42 17.98c0 1.3-1.06 2.37-2.37 2.37s-2.37-1.06-2.37-2.37 1.06-2.37 2.37-2.37 2.37 1.06 2.37 2.37m12.54 2.37c-1.3 0-2.37-1.06-2.37-2.37s1.06-2.37 2.37-2.37 2.37 1.06 2.37 2.37-1.06 2.37-2.37 2.37"/></symbol><symbol id="s64" viewBox="0 0 64 64"><path d="M15.28 16.54c4.56 0 8.27-3.71 8.27-8.27S19.85 0 15.28 0 7.01 3.71 7.01 8.27s3.71 8.27 8.27 8.27m0-13.79c3.05 0 5.52 2.48 5.52 5.52s-2.48 5.52-5.52 5.52-5.52-2.48-5.52-5.52 2.48-5.52 5.52-5.52m43.85 48.91v-6.11c0-3.09-2.51-5.6-5.6-5.6H41.16v-5.37c.01-3.09-2.5-5.6-5.58-5.6h-2.33L20.29 21.7s-.04-.01-.06-.02a9.35 9.35 0 0 0-5.14-1.55h-4.96C4.67 20.13.03 24.6 0 29.9V64h14.09l3.86-28.91.45.03 5.95 2.11c.61.22 1.25.32 1.87.32 1.67 0 3.29-.75 4.37-2.1l2.97-3.71h2.02c1.57 0 2.85 1.28 2.85 2.85v6.64l-1.6 10.35c-3.03.42-5.38 3.03-5.38 6.18 0 3.44 2.8 6.24 6.24 6.24s6.24-2.8 6.24-6.24c0-2.79-1.84-5.15-4.36-5.95l1.41-9.09h12.55c1.57 0 2.85 1.28 2.85 2.85v6.11c-2.78.63-4.87 3.12-4.87 6.09 0 3.44 2.8 6.24 6.24 6.24s6.24-2.8 6.24-6.24c0-2.97-2.09-5.46-4.87-6.09ZM28.44 33.73c-.76.95-2.03 1.31-3.18.9l-10.32-3.67c-.71-.25-1.5.12-1.76.84-.25.71.12 1.5.84 1.76l1.29.46-3.64 27.22H2.75V29.9c.02-3.81 3.4-7.02 7.38-7.02h4.96c1.44 0 2.77.46 3.86 1.24s11.85 6.64 11.85 6.64l-2.37 2.96Zm12.74 24.02c0 1.93-1.57 3.49-3.49 3.49s-3.49-1.57-3.49-3.49 1.57-3.49 3.49-3.49 3.49 1.57 3.49 3.49m16.57 3.49c-1.93 0-3.49-1.57-3.49-3.49s1.57-3.49 3.49-3.49 3.49 1.57 3.49 3.49-1.57 3.49-3.49 3.49"/></symbol><use style="display: var(--s16, none)" href="#s16"/><use style="display: var(--s24, none)" href="#s24"/><use style="display: var(--s32, none)" href="#s32"/><use style="display: var(--s40, none)" href="#s40"/><use style="display: var(--s48, none)" href="#s48"/><use style="display: var(--s64, none)" href="#s64"/></symbol></defs><style>@media (max-width: 23.98px) {g{--s16:block;}}@media (min-width: 24px) and (max-width: 31.98px) {g{--s24:block;}}@media (min-width: 32px) and (max-width: 39.98px) {g{--s32:block;}}@media (min-width: 40px) and (max-width: 47.98px) {g{--s40:block;}}@media (min-width: 48px) and (max-width: 63.98px) {g{--s48:block;}}@media (min-width: 64px) {g{--s64:block;}}</style><g><use href="#i-disabledwalking"/></g></svg>