<svg xmlns="http://www.w3.org/2000/svg"><defs><symbol id="i-documentprotocol-solid"><symbol id="s16" viewBox="0 0 16 16"><path d="M11.37 0H1.76v16h12.5V3.59zM5.4 13.87l-1.94-1.49.91-1.19.7.53 1.29-1.84 1.23.86-2.19 3.12Zm0-4.39L3.46 7.99l.91-1.19.69.53 1.29-1.84 1.23.86-2.19 3.12Zm7.01 3.39H8.28v-1.5h4.13zm0-4.39H8.28v-1.5h4.13zM10.6 4.17c-.28 0-.5-.22-.5-.5V.75l2.91 3.42z"/></symbol><symbol id="s24" viewBox="0 0 24 24"><path d="M17.02 0H2.67v24h18.65V5.33zM8.04 20.73l-2.7-2.07 1.06-1.39 1.25.96 2.08-2.97 1.43 1.01-3.13 4.47Zm0-6.12-2.7-2.07 1.06-1.39 1.25.96 2.08-2.97 1.43 1.01-3.13 4.46Zm10.95 4.73h-6.57v-1.75h6.57zm0-6.12h-6.57v-1.75h6.57zm-2.79-7.1c-.55 0-1-.45-1-1V.88l4.74 5.24z"/></symbol><symbol id="s32" viewBox="0 0 32 32"><path d="M22.69 0H3.61v31.99H28.4V7.07zm-12.5 27.55-3.46-2.66 1.22-1.59 1.8 1.38 2.88-4.1 1.64 1.15-4.08 5.81Zm0-8.03-3.46-2.66 1.22-1.59 1.8 1.38 2.88-4.1 1.64 1.15-4.08 5.81Zm15.25 6.24h-9.36v-2h9.36zm0-8.03h-9.36v-2h9.36zm-3.76-9.67c-.74 0-1.35-.6-1.35-1.35V.99l5.72 7.07z"/></symbol><symbol id="s40" viewBox="0 0 40 40"><path d="M28.36-.07H4.54v40h30.93V8.75zM13.34 34.34 9.12 31.1l1.37-1.79 2.36 1.81 3.67-5.23 1.84 1.29-5.02 7.15Zm0-9.82-4.22-3.24 1.37-1.79 2.36 1.81 3.67-5.23 1.84 1.29-5.02 7.15Zm18.4 7.64H20.72v-2.25h11.02zm0-9.83H20.72v-2.25h11.02zM27.15 9.96c-.94 0-1.7-.76-1.7-1.7v-7.2l7.39 8.9z"/></symbol><symbol id="s48" viewBox="0 0 48 48"><path d="M34.08.03H5.51v48h37.08V10.59zm-18.85 41.2-4.98-3.82 1.52-1.99 2.91 2.24 4.46-6.36 2.05 1.44-5.96 8.5Zm0-11.78-4.98-3.82 1.52-1.99 2.91 2.24 4.46-6.36 2.05 1.44-5.96 8.5Zm23.45 9.2H24.86v-2.5h13.82zm0-11.78H24.86v-2.5h13.82zm-6.01-14.86c-1.13 0-2.05-.92-2.05-2.05V1.28L39.84 12h-7.17Z"/></symbol><symbol id="s64" viewBox="0 0 64 64"><path d="M45.45.04H7.38v64h49.38V14.06zm-24.7 54.74-6.4-4.9 1.67-2.18 4.12 3.16 6.13-8.72 2.25 1.58-7.78 11.06Zm0-15.68-6.4-4.9 1.67-2.18 4.12 3.16 6.13-8.72 2.25 1.58-7.78 11.06Zm30.84 12.38H33.15v-2.75h18.44zm0-15.68H33.15v-2.75h18.44zm-7.9-19.95a2.76 2.76 0 0 1-2.76-2.76V1.42l12.45 14.44h-9.69Z"/></symbol><use style="display: var(--s16, none)" href="#s16"/><use style="display: var(--s24, none)" href="#s24"/><use style="display: var(--s32, none)" href="#s32"/><use style="display: var(--s40, none)" href="#s40"/><use style="display: var(--s48, none)" href="#s48"/><use style="display: var(--s64, none)" href="#s64"/></symbol></defs><style>@media (max-width: 23.98px) {g{--s16:block;}}@media (min-width: 24px) and (max-width: 31.98px) {g{--s24:block;}}@media (min-width: 32px) and (max-width: 39.98px) {g{--s32:block;}}@media (min-width: 40px) and (max-width: 47.98px) {g{--s40:block;}}@media (min-width: 48px) and (max-width: 63.98px) {g{--s48:block;}}@media (min-width: 64px) {g{--s64:block;}}</style><g><use href="#i-documentprotocol-solid"/></g></svg>