<svg xmlns="http://www.w3.org/2000/svg"><defs><symbol id="i-documentscan"><symbol id="s16" viewBox="0 0 16 16"><path d="M3.9 13.57h8.71V5.09l-2.14-2.66H3.9v11.15Zm6.93-8.3H9.76V3.95zM5.39 3.93h2.87v1.68c0 .64.52 1.17 1.17 1.17h1.68v5.3H5.4V3.93ZM1.5 4.5H0V0h4.51v1.5H1.5zm0 9.99h3v1.5H0v-4.51h1.5zm13-3H16v4.5h-4.51v-1.5h3.01zM16 0v4.51h-1.5V1.49h-3V0z"/></symbol><symbol id="s24" viewBox="0 0 24 24"><path d="M5.94 20.09h12.7V7.57L15.52 3.7H5.94zM16.77 8.02h-2.44V5.45h.37zM7.69 5.45h4.89v2.81c0 .83.68 1.51 1.51 1.51h2.81v8.58H7.69zM1.76 6.58H.02V0H6.6v1.75H1.76v4.82Zm.01 15.68h4.82v1.75H.02v-6.58h1.75zm22.25-4.82v6.57h-6.58v-1.75h4.83v-4.82zM22.26 1.76h-4.82V0h6.57v6.58h-1.75z"/></symbol><symbol id="s32" viewBox="0 0 32 32"><path d="M7.96 26.8h16.88V10.04L20.7 4.91H7.96zM22.17 9.91h-2.34v-2.9zm-12.21-3h7.87v3.27c0 .96.78 1.73 1.73 1.73h3.27v12.88H9.95V6.91ZM2 8.73H0V-.01h8.75v2H2zm0 21.26h6.74v2H0v-8.75h2zm28-6.74h2v8.74h-8.75v-2H30zM32 0v8.75h-2V2h-6.74V0z"/></symbol><symbol id="s40" viewBox="0 0 40 40"><path d="M10.1 33.34h20.81V12.6l-5.1-6.32H10.09v27.05Zm17.87-20.81h-3.3v-4h.07zM12.35 8.54h10.07v4.2c0 1.12.92 2.04 2.04 2.04h4.21v16.31H12.35zM2.26 10.79H0V.02h10.8v2.25H2.26v8.53Zm-.01 26.97h8.53v2.25H0V29.22h2.25zm35.48-8.55h2.25v10.77h-10.8v-2.25h8.55V29.2ZM40.01.01V10.8h-2.25V2.26h-8.53V.01z"/></symbol><symbol id="s48" viewBox="0 0 48 48"><path d="M12.18 40.01h24.87V15.18l-6.09-7.54H12.18v32.38Zm21.64-24.85h-4.3v-5.03h.25l4.06 5.03Zm-19.15-5.03h12.35v5.17c0 1.3 1.06 2.35 2.35 2.35h5.18v19.86H14.67zM2.51 12.9H.02V.03h12.91v2.5H2.51v10.38ZM2.5 45.5h10.39V48H0V35.1h2.5zm42.96-10.35h2.5v12.87H35.05v-2.5h10.41V35.14ZM48.01.03v12.9h-2.5V2.52H35.12V.03H48Z"/></symbol><symbol id="s64" viewBox="0 0 64 64"><path d="M16.42 53.19h32.81v-33l-8.02-9.95H16.42zm29.42-32.83h-6.61c-.06 0-.11-.05-.11-.11v-7.26h.78zm-26.67-7.37h17.2v7.26a2.86 2.86 0 0 0 2.86 2.86h7.26v27.33H19.17zM2.78 17.02H.03V0h17.04v2.75H2.78zm-.03 44.23h14.26V64H0V46.96h2.75zm58.48-14.3h2.75v17.02H46.94v-2.75h14.29zM64.01 0v17.04h-2.75V2.75H47V0z"/></symbol><use style="display: var(--s16, none)" href="#s16"/><use style="display: var(--s24, none)" href="#s24"/><use style="display: var(--s32, none)" href="#s32"/><use style="display: var(--s40, none)" href="#s40"/><use style="display: var(--s48, none)" href="#s48"/><use style="display: var(--s64, none)" href="#s64"/></symbol></defs><style>@media (max-width: 23.98px) {g{--s16:block;}}@media (min-width: 24px) and (max-width: 31.98px) {g{--s24:block;}}@media (min-width: 32px) and (max-width: 39.98px) {g{--s32:block;}}@media (min-width: 40px) and (max-width: 47.98px) {g{--s40:block;}}@media (min-width: 48px) and (max-width: 63.98px) {g{--s48:block;}}@media (min-width: 64px) {g{--s64:block;}}</style><g><use href="#i-documentscan"/></g></svg>