<svg xmlns="http://www.w3.org/2000/svg"><defs><symbol id="i-documentonenote"><symbol id="s16" viewBox="0 0 16 16"><path d="M11.43 0H1.8v3.87C.77 4.08 0 4.99 0 6.08v5.01c0 1.09.78 2 1.81 2.21V16h12.53V3.59L11.44 0Zm-.52 1.75 1.34 1.67h-1.34zM1.5 11.09V6.08c0-.41.34-.75.75-.75h5.64c.41 0 .75.34.75.75v5.76H2.25c-.41 0-.75-.34-.75-.75m1.81 3.41v-1.15h6.83V6.08c0-1.24-1.01-2.26-2.26-2.26H3.31V1.5h6.1v2.16c0 .69.56 1.25 1.25 1.25h2.16v9.58H3.31Zm1.01-3.7H3.1V6.65h1.31l1.37 2.46V6.65H7v4.15H5.7L4.32 8.33z"/></symbol><symbol id="s24" viewBox="0 0 24 24"><path d="M17.02.02H2.67v5.95h-.28C1.08 5.97.01 7.04.01 8.35v9c0 1.31 1.07 2.38 2.38 2.38h.28V24h18.65V5.35zM19 5.26h-2.79c-.07 0-.12-.06-.12-.12V1.77h.1zM1.76 17.35v-9c0-.34.28-.62.62-.62h9.93c.34 0 .62.28.62.62v9.62H2.39c-.34 0-.62-.28-.62-.62Zm2.66 4.89v-2.52H14.7V8.34c0-1.31-1.07-2.38-2.38-2.38h-7.9V1.77h9.91v3.36c0 1.03.84 1.88 1.88 1.88h3.36v15.23zM8.46 9.95h1.83v6.21H8.34l-2.06-3.7v3.7H4.45V9.95h1.96l2.05 3.68z"/></symbol><symbol id="s32" viewBox="0 0 32 32"><path d="M22.73 0H3.62v8.1H2.49A2.48 2.48 0 0 0 0 10.59v13.02a2.5 2.5 0 0 0 2.5 2.5h1.13v5.88h24.82V7.07zm3.13 7.06h-4.14c-.19 0-.35-.16-.35-.35V1.99h.4zM1.99 23.61V10.59c0-.28.22-.5.5-.5h14.26c.28 0 .5.22.5.5v13.52H2.49c-.28 0-.5-.22-.5-.5m3.63 6.38v-3.88h13.64V10.59a2.5 2.5 0 0 0-2.5-2.5H5.62v-6.1h13.74v4.72c0 1.3 1.06 2.35 2.35 2.35h4.72v20.92H5.62Zm5.44-16.75h2.44v8.29h-2.61l-2.75-4.94v4.94H5.7v-8.29h2.62l2.74 4.91z"/></symbol><symbol id="s40" viewBox="0 0 40 40"><path d="M28.4-.01H4.55v10.23H2.64C1.18 10.22 0 11.39 0 12.84v17.02c0 1.45 1.18 2.63 2.63 2.63h1.91v7.5H35.5V8.81zm4.28 8.9h-5.5a.57.57 0 0 1-.57-.57V2.24h.71zM2.26 29.86V12.84c0-.21.17-.38.38-.38h18.57c.21 0 .38.17.38.38v17.39H2.63a.38.38 0 0 1-.38-.38Zm4.54 7.88v-5.25h17.04V12.84c0-1.45-1.18-2.63-2.63-2.63H6.8V2.24h17.56v6.07c0 1.56 1.27 2.82 2.83 2.82h6.07v26.6H6.8Zm6.89-21.22h3.05v10.36h-3.26l-3.44-6.17v6.17H6.99V16.52h3.27l3.42 6.14v-6.14Z"/></symbol><symbol id="s48" viewBox="0 0 48 48"><path d="M34.07.04H5.48v12.34H2.69c-1.51 0-2.75 1.24-2.75 2.75v21.02c0 1.52 1.23 2.75 2.75 2.75h2.79v9.14h37.11V10.6zm5.44 10.72h-6.85c-.44 0-.8-.36-.8-.8V2.54h1.01l6.63 8.22ZM2.45 36.15V15.13c0-.14.11-.25.25-.25h22.88c.14 0 .25.11.25.25V36.4H2.7c-.14 0-.25-.11-.25-.25m5.53 9.39v-6.63h20.35V15.13c0-1.52-1.23-2.75-2.75-2.75H7.98V2.54h21.38v7.43c0 1.82 1.48 3.3 3.3 3.3h7.43v32.27zm8.48-25.7h3.66v12.43h-3.91l-4.13-7.41v7.41H8.42V19.84h3.93l4.11 7.37z"/></symbol><symbol id="s64" viewBox="0 0 64 64"><path d="M45.46.01H7.39v16.78H2.88C1.3 16.79 0 18.08 0 19.66v29c0 1.58 1.29 2.88 2.88 2.88h4.51v12.53h49.38V14.04zm8.12 14.45H43.7c-.76 0-1.38-.62-1.38-1.38V2.76h1.82zM2.76 48.66v-29c0-.07.06-.12.12-.12h31.49c.07 0 .12.06.12.12v29.12H2.88c-.07 0-.12-.05-.12-.12m7.38 12.66v-9.78h27.11V19.66c0-1.58-1.29-2.88-2.88-2.88H10.14V2.76h29.43v10.32c0 2.28 1.85 4.13 4.13 4.13h10.32v44.11zm11.68-34.88h4.87V43h-5.21l-5.5-9.87V43h-4.87V26.44h5.23l5.47 9.82v-9.82Z"/></symbol><use style="display: var(--s16, none)" href="#s16"/><use style="display: var(--s24, none)" href="#s24"/><use style="display: var(--s32, none)" href="#s32"/><use style="display: var(--s40, none)" href="#s40"/><use style="display: var(--s48, none)" href="#s48"/><use style="display: var(--s64, none)" href="#s64"/></symbol></defs><style>@media (max-width: 23.98px) {g{--s16:block;}}@media (min-width: 24px) and (max-width: 31.98px) {g{--s24:block;}}@media (min-width: 32px) and (max-width: 39.98px) {g{--s32:block;}}@media (min-width: 40px) and (max-width: 47.98px) {g{--s40:block;}}@media (min-width: 48px) and (max-width: 63.98px) {g{--s48:block;}}@media (min-width: 64px) {g{--s64:block;}}</style><g><use href="#i-documentonenote"/></g></svg>