<svg xmlns="http://www.w3.org/2000/svg"><defs><symbol id="i-document"><symbol id="s16" viewBox="0 0 16 16"><path d="M11.42 0H1.81v16h12.5V3.59zm-.52 1.75 1.34 1.67H10.9zM3.31 14.5v-13H9.4v2.16c0 .69.56 1.25 1.25 1.25h2.16v9.58h-9.5Zm1.24-5.95h7.04v1.5H4.55zm0 2.97h5.02v1.5H4.55z"/></symbol><symbol id="s24" viewBox="0 0 24 24"><path d="M17.03 0H2.67v24h18.65V5.33zM19 5.24h-2.79c-.07 0-.12-.06-.12-.13V1.75h.1zM4.42 22.25V1.75h9.91v3.37c0 1.04.84 1.88 1.88 1.88h3.36v15.25zm2.19-9.13h10.81v1.75H6.61zm0 4.57h7.71v1.75H6.61z"/></symbol><symbol id="s32" viewBox="0 0 32 32"><path d="M22.7 0H3.62v31.99h24.79V7.07zm3.13 7.06h-4.14c-.19 0-.35-.16-.35-.35V1.99h.4l4.08 5.07ZM5.62 29.99v-28h13.72v4.72c0 1.3 1.05 2.35 2.35 2.35h4.71v20.92H5.62Zm3.12-11.3h14.58v2H8.74zm0-5.16h14.58v2H8.74zm0 10.31h10.39v2H8.74z"/></symbol><symbol id="s40" viewBox="0 0 40 40"><path d="M28.37-.01H4.55v40h30.93V8.81zm4.28 8.9h-5.49a.57.57 0 0 1-.57-.57V2.24h.71l5.36 6.65ZM6.8 37.74V2.24h17.54v6.07c0 1.56 1.27 2.82 2.82 2.82h6.07v26.6H6.8Zm4.07-14.23h18.35v2.25H10.87zm0-6.48h18.35v2.25H10.87zm0 12.97h13.08v2.25H10.87z"/></symbol><symbol id="s48" viewBox="0 0 48 48"><path d="M34.09.04H5.52v48H42.6V10.6zm5.43 10.72h-6.84c-.44 0-.8-.36-.8-.8V2.54h1.01zM8.02 45.54v-43h21.36v7.43c0 1.82 1.48 3.3 3.3 3.3h7.42v32.27zm5.02-17.15h22.12v2.5H13.04zm0-7.81h22.12v2.5H13.04zm0 15.62h15.77v2.5H13.04z"/></symbol><symbol id="s64" viewBox="0 0 64 64"><path d="M45.46 0H7.39v63.99h49.38V14.01zm8.12 14.43H43.7c-.76 0-1.38-.62-1.38-1.38V2.74h1.82zM10.14 61.25V2.74h29.43v10.31c0 2.28 1.85 4.13 4.13 4.13h10.32v44.07zm7.07-23.08h29.83v2.75H17.21zm0-10.52h29.83v2.75H17.21zm0 21.03h21.27v2.75H17.21z"/></symbol><use style="display: var(--s16, none)" href="#s16"/><use style="display: var(--s24, none)" href="#s24"/><use style="display: var(--s32, none)" href="#s32"/><use style="display: var(--s40, none)" href="#s40"/><use style="display: var(--s48, none)" href="#s48"/><use style="display: var(--s64, none)" href="#s64"/></symbol></defs><style>@media (max-width: 23.98px) {g{--s16:block;}}@media (min-width: 24px) and (max-width: 31.98px) {g{--s24:block;}}@media (min-width: 32px) and (max-width: 39.98px) {g{--s32:block;}}@media (min-width: 40px) and (max-width: 47.98px) {g{--s40:block;}}@media (min-width: 48px) and (max-width: 63.98px) {g{--s48:block;}}@media (min-width: 64px) {g{--s64:block;}}</style><g><use href="#i-document"/></g></svg>