<svg xmlns="http://www.w3.org/2000/svg"><defs><symbol id="i-documentauditrecordrepository"><symbol id="s16" viewBox="0 0 16 16"><path d="M3.31 1.52H9.4v2.16c0 .69.56 1.25 1.25 1.25h2.16v.77c.55.01 1.06.17 1.5.44V3.6L11.42.02H1.81v15.97h6.45v-1.5H3.31zm8.93 1.91H10.9V1.77zM8.36 8.76V7.52h-1v1.75H5.61v1h1.75v1.75h.89v1.5H5.86v-1.75H4.11v-4h1.75V6.02h4v.92c-.35.49-.56 1.08-.56 1.72v.09h-.94Zm6.62.75v-.84c0-1.23-1-2.23-2.23-2.23h-.47c-1.23 0-2.23 1-2.23 2.23v.84H9v6.5h7v-6.5h-1.03Zm-3.43-.84c0-.4.33-.73.73-.73h.47c.4 0 .73.33.73.73v.82h-1.93zm2.96 5.85h-4v-3.5h4zm-2.7-1.48a.9.9 0 0 1-.23-.6c0-.52.43-.95.95-.95s.95.43.95.95c0 .19-.07.37-.17.52v.32c0 .41-.34.75-.75.75s-.75-.34-.75-.75z"/></symbol><symbol id="s24" viewBox="0 0 24 24"><path d="M4.5 1.75h9.93v3.6c0 .91.74 1.64 1.64 1.64h3.6v2.23c.64.11 1.24.34 1.75.69V5.33L17.12 0H2.75v24h10.29v-1.75H4.5zm14.61 3.49h-2.93V1.75h.11l2.82 3.5Zm-6.27 10.54h.2v4.44H8.99v-2.69H6.3v-5.6h2.69V9.24h5.6v2.69h.34c-.19.49-.3 1.01-.3 1.56v.19h-1.79v-2.69h-2.1v2.69H8.05v2.1h2.69v2.69h2.1zm9.6-1.1V13.5c0-1.91-1.56-3.47-3.47-3.47s-3.47 1.56-3.47 3.47v1.18h-1.59V24H24v-9.32zm-5.19-1.19a1.72 1.72 0 1 1 3.44 0v1.15h-3.44zm5 8.76h-6.59v-5.83h6.59zm-4.09-2.57c-.21-.21-.35-.51-.35-.83 0-.65.53-1.18 1.18-1.18s1.18.53 1.18 1.18c0 .27-.11.51-.26.71v.55c0 .48-.39.87-.88.87s-.88-.39-.88-.87v-.43Z"/></symbol><symbol id="s32" viewBox="0 0 32 32"><path d="M17.3 21.26h.49v5.63h-5.67v-3.63H8.49v-7.18h3.63v-3.63h7.18v3.63h.99a5.4 5.4 0 0 0-.37 1.97v.02H17.3v-3.63h-3.18v3.63h-3.63v3.18h3.63v3.63h3.18v-3.63ZM5.71 29.97h12.07v2H3.71V0h19.1l5.7 7.07v6.45c-.59-.41-1.27-.7-2-.85V9.06h-5.03c-1.12 0-2.04-.91-2.04-2.04V2.01H5.71zM21.85 2.01h-.41v5.03l4.48.03-4.08-5.05ZM32 19.82v12.19H18.79V19.82h2.13v-1.77c0-2.48 2.02-4.49 4.49-4.49s4.49 2.01 4.49 4.49v1.77h2.09Zm-9.08-.04h4.99v-1.72c0-1.37-1.12-2.49-2.49-2.49s-2.49 1.12-2.49 2.49v1.72ZM30 21.82h-9.21v8.19H30zm-5.53 5.13c0 .55.45 1 1 1s1-.45 1-1v-.7a1.408 1.408 0 0 0-1-2.4 1.408 1.408 0 0 0-1 2.4z"/></symbol><symbol id="s40" viewBox="0 0 40 40"><path d="M21.77 26.75h.83v6.8h-7.35V29h-4.56v-8.75h4.56V15.7h8.77v4.55h1.76c-.29.7-.46 1.45-.49 2.25h-3.51v-4.55h-4.27v4.55h-4.56v4.26h4.56v4.55h4.27v-4.55ZM6.93 37.7H22.6v2.25H4.68V.06H28.5l7.1 8.79v8.48c-.67-.46-1.43-.79-2.25-.98v-5.18h-6.46a2.43 2.43 0 0 1-2.43-2.42V2.3H6.93v35.39Zm20.5-35.4h-.71v6.45c0 .1.08.18.18.18h5.88zm12.56 22.81v14.95H23.72V25.11h2.67v-2.32c0-3.02 2.46-5.48 5.49-5.48s5.49 2.46 5.49 5.48v2.32zm-11.35-.06h6.48v-2.27c0-1.78-1.45-3.23-3.24-3.23s-3.24 1.45-3.24 3.23zm9.1 2.3H25.97v10.46h11.77zm-6.91 5.59v.93c0 .62.5 1.12 1.12 1.12s1.12-.5 1.12-1.12v-.93c.31-.3.51-.72.51-1.18 0-.9-.73-1.63-1.64-1.63s-1.64.73-1.64 1.63c0 .47.2.88.51 1.18Z"/></symbol><symbol id="s48" viewBox="0 0 48 48"><path d="M26.24 32.26h1.16v8h-9.02v-5.5h-5.5V24.4h5.5v-5.5h10.36v5.5h2.46a7.7 7.7 0 0 0-.57 2.5h-4.39v-5.5h-5.36v5.5h-5.5v5.36h5.5v5.5h5.36zM8.13 45.48h19.28v2.5H5.63V.02h28.58l8.51 10.55v10.42c-.75-.51-1.59-.89-2.5-1.12v-6.64h-7.9c-1.56 0-2.82-1.26-2.82-2.82V2.52H8.13v42.95ZM33.01 2.52H32v7.89c0 .18.14.32.32.32h7.32zm14.96 27.74v17.76H28.65V30.26h3.2v-2.89c0-3.58 2.91-6.49 6.49-6.49s6.49 2.91 6.49 6.49v2.89zm-13.61-.07h7.98v-2.82c0-2.2-1.79-3.99-3.99-3.99s-3.99 1.79-3.99 3.99zm11.11 2.57H31.15v12.77h14.32zm-8.29 6.77v1.17a1.25 1.25 0 0 0 2.5 0v-1.17c.37-.34.61-.83.61-1.37 0-1.03-.84-1.86-1.86-1.86s-1.86.84-1.86 1.86c0 .54.24 1.03.61 1.37"/></symbol><symbol id="s64" viewBox="0 0 64 64"><path d="M10.31 2.75h29.41V13.7c0 1.93 1.57 3.49 3.49 3.49h10.95v9.92c.99.29 1.92.74 2.75 1.31v-14.4L45.6 0H7.56v64h29.66v-2.75H10.31zm43.4 11.69H43.2c-.41 0-.74-.33-.74-.74V2.75h1.82zm-18.38 29h1.89V53.6H24.74v-7.41h-7.41V32.85h7.41v-7.41h13.34v7.41h4.14c-.34.86-.57 1.79-.65 2.75h-6.24v-7.41h-7.84v7.41h-7.41v7.84h7.41v7.41h7.84zm24.42-2.75v-4.27c0-4.61-3.75-8.36-8.36-8.36h-.13c-4.61 0-8.36 3.75-8.36 8.36v4.27h-4.31v23.3h25.39v-23.3h-4.22Zm-14.1-4.26a5.62 5.62 0 0 1 5.61-5.61h.13A5.62 5.62 0 0 1 57 36.43v4.17H45.65zm15.58 24.82H41.34V43.44h19.89zM49.24 51.01c0-1.21.99-2.2 2.2-2.2s2.2.99 2.2 2.2c0 .69-.33 1.3-.83 1.7v1.72c0 .76-.62 1.37-1.37 1.37s-1.37-.62-1.37-1.37v-1.72c-.5-.4-.83-1.01-.83-1.7"/></symbol><use style="display: var(--s16, none)" href="#s16"/><use style="display: var(--s24, none)" href="#s24"/><use style="display: var(--s32, none)" href="#s32"/><use style="display: var(--s40, none)" href="#s40"/><use style="display: var(--s48, none)" href="#s48"/><use style="display: var(--s64, none)" href="#s64"/></symbol></defs><style>@media (max-width: 23.98px) {g{--s16:block;}}@media (min-width: 24px) and (max-width: 31.98px) {g{--s24:block;}}@media (min-width: 32px) and (max-width: 39.98px) {g{--s32:block;}}@media (min-width: 40px) and (max-width: 47.98px) {g{--s40:block;}}@media (min-width: 48px) and (max-width: 63.98px) {g{--s48:block;}}@media (min-width: 64px) {g{--s64:block;}}</style><g><use href="#i-documentauditrecordrepository"/></g></svg>