<svg xmlns="http://www.w3.org/2000/svg"><defs><symbol id="i-document-solid"><symbol id="s16" viewBox="0 0 16 16"><path d="M11.42 0H1.81v16h12.5V3.59zM9.57 13.03H4.55v-1.5h5.02zm2.02-2.98H4.55v-1.5h7.04zm-.94-5.88c-.28 0-.5-.22-.5-.5V.75l2.91 3.42z"/></symbol><symbol id="s24" viewBox="0 0 24 24"><path d="M17.03 0H2.67v24h18.65V5.33zm-2.71 19.44H6.61v-1.75h7.71zm3.1-4.56H6.61v-1.75h10.81zm-1.21-8.76c-.55 0-1-.45-1-1V.88l4.74 5.24z"/></symbol><symbol id="s32" viewBox="0 0 32 32"><path d="M22.7 0H3.62v31.99h24.79V7.07zm-3.56 25.83H8.75v-2h10.39zm4.18-5.15H8.74v-2h14.58zm0-5.14H8.74v-2h14.58zm-1.63-7.47c-.74 0-1.35-.6-1.35-1.35V1.01l5.72 7.06z"/></symbol><symbol id="s40" viewBox="0 0 40 40"><path d="M28.37 0H4.55v40h30.93V8.82zm-4.42 32.25H10.87V30h13.08zm5.26-6.48H10.87v-2.25h18.35v2.25Zm0-6.47H10.87v-2.25h18.35v2.25Zm-2.05-9.27c-.94 0-1.7-.76-1.7-1.7V1.14l7.39 8.89z"/></symbol><symbol id="s48" viewBox="0 0 48 48"><path d="M34.09 0H5.52v48H42.6V10.56zm-5.28 38.67H13.04v-2.5h15.77zm6.34-7.81H13.04v-2.5h22.12v2.5Zm0-7.82H13.04v-2.5h22.12v2.5Zm-2.47-11.06c-1.13 0-2.05-.92-2.05-2.05V1.25l9.22 10.72h-7.17Z"/></symbol><symbol id="s64" viewBox="0 0 64 64"><path d="M45.46.04H7.39v64h49.38V14.06zm-6.98 51.44H17.21v-2.75h21.27zm8.56-10.51H17.21v-2.75h29.83zm0-10.52H17.21V27.7h29.83zm-3.34-14.6a2.76 2.76 0 0 1-2.76-2.76V1.42l12.45 14.44H43.7Z"/></symbol><use style="display: var(--s16, none)" href="#s16"/><use style="display: var(--s24, none)" href="#s24"/><use style="display: var(--s32, none)" href="#s32"/><use style="display: var(--s40, none)" href="#s40"/><use style="display: var(--s48, none)" href="#s48"/><use style="display: var(--s64, none)" href="#s64"/></symbol></defs><style>@media (max-width: 23.98px) {g{--s16:block;}}@media (min-width: 24px) and (max-width: 31.98px) {g{--s24:block;}}@media (min-width: 32px) and (max-width: 39.98px) {g{--s32:block;}}@media (min-width: 40px) and (max-width: 47.98px) {g{--s40:block;}}@media (min-width: 48px) and (max-width: 63.98px) {g{--s48:block;}}@media (min-width: 64px) {g{--s64:block;}}</style><g><use href="#i-document-solid"/></g></svg>