<svg xmlns="http://www.w3.org/2000/svg"><defs><symbol id="i-documentmedical"><symbol id="s16" viewBox="0 0 16 16"><path d="M11.42 0H1.81v16h12.5V3.59zm-.52 1.75 1.34 1.67H10.9zM3.31 14.5v-13H9.4v2.16c0 .69.56 1.25 1.25 1.25h2.16v9.58h-9.5Zm6.55-8.48h-4v1.75H4.11v4.01h1.75v1.75h4v-1.75h1.75V7.77H9.86zm.25 3.26v1H8.36v1.75h-1v-1.75H5.61v-1h1.75V7.53h1v1.75z"/></symbol><symbol id="s24" viewBox="0 0 24 24"><path d="M17.12 0H2.75v24h18.68V5.33zm1.99 5.24h-2.93V1.75h.11l2.82 3.5ZM4.5 22.25V1.75h9.93v3.6c0 .91.74 1.64 1.64 1.64h3.6v15.26zM14.59 9.24h-5.6v2.69H6.3v5.6h2.69v2.69h5.6v-2.69h2.69v-5.6h-2.69zm.94 4.44v2.1h-2.69v2.69h-2.1v-2.69H8.05v-2.1h2.69v-2.69h2.1v2.69z"/></symbol><symbol id="s32" viewBox="0 0 32 32"><path d="M22.81 0H3.71v31.99h24.8V7.07zm3.12 7.05-4.48-.03V1.99h.41l4.08 5.06ZM5.71 29.99v-28h13.74v5.03c0 1.12.91 2.04 2.04 2.04h5.03v20.93zM19.3 12.45h-7.18v3.63H8.49v7.19h3.63v3.63h7.18v-3.63h3.63v-7.19H19.3zm1.63 5.63v3.18H17.3v3.63h-3.18v-3.63h-3.63v-3.18h3.63v-3.63h3.18v3.63z"/></symbol><symbol id="s40" viewBox="0 0 40 40"><path d="M28.5 0H4.68v40h30.93V8.82zm4.28 8.9H26.9a.18.18 0 0 1-.18-.18V2.25h.71l5.35 6.64ZM6.93 37.75V2.25h17.54v6.47c0 1.34 1.09 2.43 2.43 2.43h6.46v26.6zm17.09-22.07h-8.77v4.57h-4.56v8.78h4.56v4.57h8.77v-4.57h4.56v-8.78h-4.56zm2.31 6.82v4.27h-4.56v4.57H17.5v-4.57h-4.56V22.5h4.56v-4.57h4.27v4.57z"/></symbol><symbol id="s48" viewBox="0 0 48 48"><path d="M34.2 0H5.63v48h37.09V10.56zm5.44 10.72h-7.32c-.18 0-.32-.14-.32-.32V2.5h1.01zM8.13 45.5v-43H29.5v7.9c0 1.56 1.27 2.82 2.82 2.82h7.9v32.27H8.13Zm20.61-26.6H18.38v5.51h-5.5v10.37h5.5v5.51h10.36v-5.51h5.5V24.41h-5.5zm3.01 8.01v5.36h-5.5v5.51h-5.36v-5.51h-5.5v-5.36h5.5V21.4h5.36v5.51z"/></symbol><symbol id="s64" viewBox="0 0 64 64"><path d="M45.6 0H7.56v64h49.35V14.01zm8.11 14.44H43.2c-.41 0-.74-.33-.74-.74V2.75h1.82zm-43.4 46.81V2.75h29.41V13.7c0 1.93 1.57 3.49 3.49 3.49h10.95v44.06zm27.77-35.81H24.74v7.41h-7.41v13.34h7.41v7.41h13.34v-7.41h7.41V32.85h-7.41zm4.66 10.16v7.84h-7.41v7.41h-7.84v-7.41h-7.41V35.6h7.41v-7.41h7.84v7.41z"/></symbol><use style="display: var(--s16, none)" href="#s16"/><use style="display: var(--s24, none)" href="#s24"/><use style="display: var(--s32, none)" href="#s32"/><use style="display: var(--s40, none)" href="#s40"/><use style="display: var(--s48, none)" href="#s48"/><use style="display: var(--s64, none)" href="#s64"/></symbol></defs><style>@media (max-width: 23.98px) {g{--s16:block;}}@media (min-width: 24px) and (max-width: 31.98px) {g{--s24:block;}}@media (min-width: 32px) and (max-width: 39.98px) {g{--s32:block;}}@media (min-width: 40px) and (max-width: 47.98px) {g{--s40:block;}}@media (min-width: 48px) and (max-width: 63.98px) {g{--s48:block;}}@media (min-width: 64px) {g{--s64:block;}}</style><g><use href="#i-documentmedical"/></g></svg>