<svg xmlns="http://www.w3.org/2000/svg"><defs><symbol id="i-documentauditrecordrepository-solid"><symbol id="s16" viewBox="0 0 16 16"><path d="M6.61 11.03h-2v-2.5h2v-2h2.5v2h.2c.07-1.58 1.37-2.85 2.96-2.85h.47c.57 0 1.11.17 1.56.45V3.59L11.42.01H1.81v15.98h6.44v-2.96H6.61zM10.15.76l2.91 3.41h-2.41c-.28 0-.5-.22-.5-.5zm5.07 8.74v-.84a2.48 2.48 0 0 0-2.48-2.48h-.47a2.48 2.48 0 0 0-2.48 2.48v.84h-.8v6.51h7V9.5h-.78Zm-3.42-.84c0-.26.21-.48.48-.48h.47c.26 0 .48.21.48.48v.57H11.8zm1.5 4.29v.32c0 .41-.34.75-.75.75s-.75-.34-.75-.75v-.24a.9.9 0 0 1-.23-.6c0-.52.43-.95.95-.95s.95.43.95.95c0 .19-.07.37-.17.52"/></symbol><symbol id="s24" viewBox="0 0 24 24"><path d="M13.99 13.11a5.106 5.106 0 0 1 4.99-4.06c.88 0 1.69.24 2.41.64V5.31L17.11 0H2.78v23.99h10.26v-4.47h-2.69v-3.11H7.24V13.1h3.11V9.99h3.3v3.11h.33ZM15.34.76l4.52 5.3h-3.75c-.43 0-.78-.35-.78-.78V.76Zm7.73 13.92v-.53c0-2.26-1.84-4.1-4.1-4.1s-4.1 1.84-4.1 4.1v.53h-.96v9.33H24v-9.33zm-5.19-.53c0-.6.49-1.1 1.1-1.1s1.1.49 1.1 1.1v.52h-2.19v-.52Zm2.03 5.41v.55c0 .48-.39.88-.88.88s-.88-.39-.88-.88v-.43c-.21-.21-.35-.51-.35-.83 0-.65.52-1.17 1.17-1.18h.02c.65 0 1.17.53 1.17 1.18 0 .27-.11.51-.26.71Z"/></symbol><symbol id="s32" viewBox="0 0 32 32"><path d="M19.04 17.69a6.49 6.49 0 0 1 9.44-4.6V7.01L22.81 0H3.75v32h13.8v-5.98h-3.9V21.8H9.43v-4.11h4.22v-4.22h4.11v4.22zM20.53.75l6.14 7.19h-5.09c-.58 0-1.06-.47-1.06-1.05V.75Zm10.14 19.03v-.97c0-2.89-2.35-5.24-5.24-5.24s-5.24 2.35-5.24 5.24v.97h-1.38v12.18h13.21V19.78h-1.34Zm-6.98-.96a1.741 1.741 0 0 1 3.48 0v.97h-3.49v-.97Zm2.79 7.38v.7c0 .55-.45 1-1 1s-1-.45-1-1v-.7a1.408 1.408 0 0 1 1-2.4 1.408 1.408 0 0 1 1 2.4"/></symbol><symbol id="s40" viewBox="0 0 40 40"><path d="M24.15 22.22c.63-3.71 3.86-6.55 7.75-6.55 1.31 0 2.54.33 3.63.9V8.69L28.48-.05H4.76v39.99h17.32v-7.49h-4.91v-5.32h-5.32v-4.91h5.32V16.9h4.91v5.32h2.06ZM25.71.7l7.74 9.07h-6.41c-.73 0-1.33-.6-1.33-1.33zm12.55 24.26v-1.43c0-3.51-2.86-6.37-6.37-6.37s-6.37 2.86-6.37 6.37v1.43h-1.79v14.99H40V24.96zm-8.73-1.43c0-1.31 1.06-2.37 2.37-2.37s2.37 1.06 2.37 2.37v1.39h-4.73v-1.39Zm3.56 9.28v.94c0 .62-.5 1.13-1.12 1.13s-1.12-.5-1.12-1.13v-.94c-.31-.3-.51-.72-.51-1.18a1.641 1.641 0 0 1 3.28 0c0 .47-.2.88-.51 1.18Z"/></symbol><symbol id="s48" viewBox="0 0 48 48"><path d="M28.78 26.85c.74-4.64 4.76-8.2 9.6-8.2 1.51 0 2.94.36 4.22.97v-9.18L34.17 0H5.75v47.99h20.66v-9H20.7v-6.43h-6.43v-5.71h6.43v-6.43h5.71v6.43zM30.89.76l9.35 10.96H32.5c-.89 0-1.61-.72-1.61-1.61zm14.98 29.47V28.4c0-4.13-3.36-7.49-7.49-7.49s-7.49 3.36-7.49 7.49v1.83h-2.2v17.78h19.32V30.23zM35.39 28.4c0-1.65 1.34-2.99 2.99-2.99s2.99 1.34 2.99 2.99v1.82h-5.98zm4.31 11.11v.88a1.25 1.25 0 0 1-2.5 0v-.9c-.37-.34-.6-.82-.6-1.36 0-1.03.84-1.86 1.86-1.86s1.86.84 1.86 1.86c0 .55-.25 1.04-.63 1.38Z"/></symbol><symbol id="s64" viewBox="0 0 64 64"><path d="M39.43 36.14c.78-5.85 5.8-10.39 11.87-10.39h.13c1.91 0 3.71.46 5.32 1.26V13.89L45.55.02H7.71v63.96h27.11V51.84h-6.97V43.2h-8.64v-7.07h8.64v-8.64h7.07v8.64h4.51ZM41.27.77l12.57 14.72H43.43c-1.19 0-2.16-.97-2.16-2.16zm19.65 39.95v-3c0-5.23-4.25-9.48-9.49-9.48h-.13c-5.23 0-9.48 4.25-9.48 9.48v3h-3.18v23.3h25.39v-23.3h-3.1Zm-14.11-2.99c0-2.47 2.01-4.48 4.48-4.48h.13c2.47 0 4.49 2.01 4.49 4.48v3h-9.1zm6.04 15.01v1.71c0 .76-.62 1.37-1.38 1.37s-1.38-.61-1.38-1.37v-1.71c-.5-.4-.83-1.01-.83-1.7 0-1.21.99-2.2 2.2-2.2s2.2.99 2.2 2.2c0 .69-.33 1.3-.83 1.7Z"/></symbol><use style="display: var(--s16, none)" href="#s16"/><use style="display: var(--s24, none)" href="#s24"/><use style="display: var(--s32, none)" href="#s32"/><use style="display: var(--s40, none)" href="#s40"/><use style="display: var(--s48, none)" href="#s48"/><use style="display: var(--s64, none)" href="#s64"/></symbol></defs><style>@media (max-width: 23.98px) {g{--s16:block;}}@media (min-width: 24px) and (max-width: 31.98px) {g{--s24:block;}}@media (min-width: 32px) and (max-width: 39.98px) {g{--s32:block;}}@media (min-width: 40px) and (max-width: 47.98px) {g{--s40:block;}}@media (min-width: 48px) and (max-width: 63.98px) {g{--s48:block;}}@media (min-width: 64px) {g{--s64:block;}}</style><g><use href="#i-documentauditrecordrepository-solid"/></g></svg>