<svg xmlns="http://www.w3.org/2000/svg"><defs><symbol id="i-documentonenote-solid"><symbol id="s16" viewBox="0 0 16 16"><path d="M11.45 0H1.82v3.89C.78 4.09 0 5.01 0 6.1v5.01c0 1.1.79 2.01 1.83 2.21v2.67h12.53V3.59L11.46 0ZM1.5 11.12V6.11c0-.41.34-.75.75-.75h5.64c.41 0 .75.34.75.75v5.76H2.25c-.41 0-.75-.34-.75-.75m9.18-6.95c-.28 0-.5-.22-.5-.5V.75l2.92 3.42h-2.41Zm-6.23 6.39H3.33v-3.8h1.2l1.26 2.25V6.76h1.12v3.8h-1.2L4.45 8.3z"/></symbol><symbol id="s24" viewBox="0 0 24 24"><path d="M17.03 0H2.66v5.96h-.28C1.07 5.96 0 7.03 0 8.34v9.01c0 1.31 1.07 2.38 2.38 2.38h.28V24h18.67V5.33zM1.75 17.35V8.34c0-.35.28-.63.63-.63h9.95c.35 0 .63.28.63.63v9.64H2.38c-.35 0-.63-.28-.63-.63M16.21 6.12c-.55 0-1-.45-1-1V.88l4.74 5.24zM8.62 9.94h1.83v6.22H8.49l-2.06-3.7v3.7H4.6V9.94h1.97l2.06 3.69V9.94Z"/></symbol><symbol id="s32" viewBox="0 0 32 32"><path d="M22.74.01H3.65V8.1H2.51C1.13 8.11 0 9.23 0 10.61v13a2.5 2.5 0 0 0 2.5 2.5h1.14v5.86h24.79V7.08zM2.01 23.61v-13c0-.28.22-.5.5-.5h14.24c.28 0 .5.22.5.5v13.5H2.51c-.28 0-.5-.22-.5-.5M21.72 8.07c-.74 0-1.35-.6-1.35-1.35V1.01l5.72 7.06zM10.9 13.25h2.44v8.28h-2.6L7.99 16.6v4.93H5.56v-8.28h2.61l2.73 4.91z"/></symbol><symbol id="s40" viewBox="0 0 40 40"><path d="M29.64-.05H5.81V10.2H2.64a2.64 2.64 0 0 0-2.62 2.63v17c0 1.45 1.18 2.62 2.62 2.62h3.17v7.46h30.93V8.76zM2.27 29.83v-17c0-.21.17-.38.38-.38h18.56c.21 0 .38.17.38.38v17.38H2.65a.38.38 0 0 1-.38-.38M28.43 9.97c-.94 0-1.7-.76-1.7-1.7V1.08l7.39 8.89zm-14.71 6.54h3.04v10.35h-3.25l-3.43-6.17v6.17H7.04V16.51h3.27l3.42 6.13v-6.13Z"/></symbol><symbol id="s48" viewBox="0 0 48 48"><path d="M34.14 0H5.57v12.36H2.71a2.77 2.77 0 0 0-2.75 2.76v21c0 1.52 1.23 2.75 2.75 2.75h2.86v9.1h37.08V10.56zM2.46 36.12v-21c0-.14.11-.25.25-.25h22.87c.14 0 .25.11.25.25v21.25H2.71c-.14 0-.25-.11-.25-.25m30.27-24.14c-1.13 0-2.05-.92-2.05-2.05V1.26l9.22 10.72zm-16.27 7.85h3.66v12.42h-3.91l-4.12-7.4v7.4H8.43V19.83h3.92l4.11 7.36z"/></symbol><symbol id="s64" viewBox="0 0 64 64"><path d="M45.48.01H7.41v16.8H2.88C1.3 16.81 0 18.1 0 19.69v29c0 1.58 1.29 2.88 2.88 2.88h4.53v12.51h49.38V14.04zM2.76 48.69v-29c0-.07.06-.12.12-.12h31.49c.07 0 .12.06.12.12v29.12H2.88c-.07 0-.12-.05-.12-.12m40.97-32.85c-1.52 0-2.76-1.24-2.76-2.76V1.39l12.45 14.45zM21.5 26.47h4.87v16.56h-5.21l-5.5-9.87v9.87h-4.87V26.47h5.23l5.47 9.82v-9.82Z"/></symbol><use style="display: var(--s16, none)" href="#s16"/><use style="display: var(--s24, none)" href="#s24"/><use style="display: var(--s32, none)" href="#s32"/><use style="display: var(--s40, none)" href="#s40"/><use style="display: var(--s48, none)" href="#s48"/><use style="display: var(--s64, none)" href="#s64"/></symbol></defs><style>@media (max-width: 23.98px) {g{--s16:block;}}@media (min-width: 24px) and (max-width: 31.98px) {g{--s24:block;}}@media (min-width: 32px) and (max-width: 39.98px) {g{--s32:block;}}@media (min-width: 40px) and (max-width: 47.98px) {g{--s40:block;}}@media (min-width: 48px) and (max-width: 63.98px) {g{--s48:block;}}@media (min-width: 64px) {g{--s64:block;}}</style><g><use href="#i-documentonenote-solid"/></g></svg>