<svg xmlns="http://www.w3.org/2000/svg"><defs><symbol id="i-dragleftright"><symbol id="s16" viewBox="0 0 16 16"><path d="M4.25 5.87 3.19 4.81 0 7.99l3.21 3.21 1.06-1.06-2.15-2.15 2.12-2.12Zm8.54-1.09-1.06 1.06 2.15 2.15-2.12 2.12 1.06 1.06 3.19-3.19-3.21-3.21ZM6 5.74c-.41 0-.75.34-.75.75s.34.75.75.75h4c.41 0 .75-.34.75-.75s-.34-.75-.75-.75zm0 3c-.41 0-.75.34-.75.75s.34.75.75.75h4c.41 0 .75-.34.75-.75s-.34-.75-.75-.75z"/></symbol><symbol id="s24" viewBox="0 0 24 24"><path d="M5.98 8.49 4.74 7.25 0 11.99l4.78 4.78 1.24-1.24-3.54-3.54zM19.22 7.2l-1.24 1.24 3.54 3.54-3.5 3.5 1.24 1.24L24 11.98zM8.89 9.36c-.48 0-.88.39-.88.88s.39.88.88.88h6.21c.48 0 .88-.39.88-.88s-.39-.88-.88-.88zm0 3.5c-.48 0-.88.39-.88.88s.39.88.88.88h6.21c.48 0 .88-.39.88-.88s-.39-.88-.88-.88z"/></symbol><symbol id="s32" viewBox="0 0 32 32"><path d="M7.71 11.11 6.29 9.69 0 15.98l6.35 6.35 1.42-1.42-4.93-4.93zm17.94-1.48-1.42 1.42 4.93 4.93-4.87 4.87 1.42 1.42L32 15.98zm-13.86 5.35c-.55 0-1 .45-1 1s.45 1 1 1h8.42c.55 0 1-.45 1-1s-.45-1-1-1zm0 4.01c-.55 0-1 .45-1 1s.45 1 1 1h8.42c.55 0 1-.45 1-1s-.45-1-1-1zm0-8.03c-.55 0-1 .45-1 1s.45 1 1 1h8.42c.55 0 1-.45 1-1s-.45-1-1-1z"/></symbol><symbol id="s40" viewBox="0 0 40 40"><path d="m9.44 13.73-1.6-1.6L0 19.97l7.91 7.91 1.6-1.6-6.32-6.32 6.25-6.25Zm22.65-1.67-1.6 1.6 6.32 6.32-6.25 6.24 1.6 1.6L40 19.98l-7.91-7.91Zm-6.78 6.79H14.69c-.62 0-1.13.51-1.13 1.13s.51 1.13 1.13 1.13h10.62c.62 0 1.13-.51 1.13-1.13s-.51-1.13-1.13-1.13m0 4.51H14.69c-.62 0-1.13.51-1.13 1.13s.51 1.13 1.13 1.13h10.62c.62 0 1.13-.51 1.13-1.13s-.51-1.13-1.13-1.13m0-9.02H14.69c-.62 0-1.13.51-1.13 1.13s.51 1.13 1.13 1.13h10.62c.62 0 1.13-.51 1.13-1.13s-.51-1.13-1.13-1.13"/></symbol><symbol id="s48" viewBox="0 0 48 48"><path d="m11.16 16.36-1.77-1.77L0 23.97l9.48 9.48 1.77-1.77-7.71-7.71 7.62-7.62Zm27.36-1.86-1.77 1.77 7.71 7.71-7.62 7.62 1.77 1.77L48 23.98zm-8.11 8.22H17.58a1.25 1.25 0 0 0 0 2.5h12.83a1.25 1.25 0 0 0 0-2.5m0 5.01H17.58a1.25 1.25 0 0 0 0 2.5h12.83a1.25 1.25 0 0 0 0-2.5m0-10.02H17.58a1.25 1.25 0 0 0 0 2.5h12.83a1.25 1.25 0 0 0 0-2.5"/></symbol><symbol id="s64" viewBox="0 0 64 64"><path d="m14.43 21.44-1.95-1.95L0 31.96l12.59 12.59 1.95-1.95L3.9 31.96l10.52-10.52Zm36.98-2.07-1.95 1.95L60.1 31.96 49.58 42.48l1.95 1.95L64 31.96zM23.33 30.58c-.76 0-1.38.62-1.38 1.38s.62 1.38 1.38 1.38h17.34c.76 0 1.38-.62 1.38-1.38s-.62-1.38-1.38-1.38zm0 5.52c-.76 0-1.38.62-1.38 1.38s.62 1.38 1.38 1.38h17.34c.76 0 1.38-.62 1.38-1.38s-.62-1.38-1.38-1.38zm0-11.04c-.76 0-1.38.62-1.38 1.38s.62 1.38 1.38 1.38h17.34c.76 0 1.38-.62 1.38-1.38s-.62-1.38-1.38-1.38z"/></symbol><use style="display: var(--s16, none)" href="#s16"/><use style="display: var(--s24, none)" href="#s24"/><use style="display: var(--s32, none)" href="#s32"/><use style="display: var(--s40, none)" href="#s40"/><use style="display: var(--s48, none)" href="#s48"/><use style="display: var(--s64, none)" href="#s64"/></symbol></defs><style>@media (max-width: 23.98px) {g{--s16:block;}}@media (min-width: 24px) and (max-width: 31.98px) {g{--s24:block;}}@media (min-width: 32px) and (max-width: 39.98px) {g{--s32:block;}}@media (min-width: 40px) and (max-width: 47.98px) {g{--s40:block;}}@media (min-width: 48px) and (max-width: 63.98px) {g{--s48:block;}}@media (min-width: 64px) {g{--s64:block;}}</style><g><use href="#i-dragleftright"/></g></svg>