<svg xmlns="http://www.w3.org/2000/svg"><defs><symbol id="i-dragupdown"><symbol id="s16" viewBox="0 0 16 16"><path d="M5.85 4.26 4.79 3.2 8 0l3.19 3.19-1.06 1.06-2.12-2.12-2.15 2.15ZM8 13.87l-2.12-2.12-1.06 1.06L8.01 16l3.21-3.21-1.06-1.06-2.15 2.15ZM6 5.74c-.41 0-.75.34-.75.75s.34.75.75.75h4c.41 0 .75-.34.75-.75s-.34-.75-.75-.75zm0 3c-.41 0-.75.34-.75.75s.34.75.75.75h4c.41 0 .75-.34.75-.75s-.34-.75-.75-.75z"/></symbol><symbol id="s24" viewBox="0 0 24 24"><path d="M8.46 6 7.22 4.76 12-.02l4.74 4.74-1.24 1.24-3.5-3.5zM12 21.51l-3.5-3.5-1.24 1.24L12 23.99l4.78-4.78-1.24-1.24zM8.89 9.36c-.48 0-.88.39-.88.88s.39.88.88.88h6.21c.48 0 .88-.39.88-.88s-.39-.88-.88-.88zm0 3.5c-.48 0-.88.39-.88.88s.39.88.88.88h6.21c.48 0 .88-.39.88-.88s-.39-.88-.88-.88z"/></symbol><symbol id="s32" viewBox="0 0 32 32"><path d="M11.07 7.75 9.65 6.33 16-.02l6.29 6.29-1.42 1.42L16 2.82zM16 29.14l-4.87-4.87-1.42 1.42L16 31.98l6.35-6.35-1.42-1.42zm-4.21-14.16c-.55 0-1 .45-1 1s.45 1 1 1h8.42c.55 0 1-.45 1-1s-.45-1-1-1zm0 4.01c-.55 0-1 .45-1 1s.45 1 1 1h8.42c.55 0 1-.45 1-1s-.45-1-1-1zm0-8.03c-.55 0-1 .45-1 1s.45 1 1 1h8.42c.55 0 1-.45 1-1s-.45-1-1-1z"/></symbol><symbol id="s40" viewBox="0 0 40 40"><path d="m13.68 9.48-1.6-1.6L20-.03l7.84 7.84-1.6 1.6-6.25-6.25-6.32 6.32ZM20 36.79l-6.25-6.25-1.6 1.6 7.84 7.84 7.91-7.91-1.6-1.6-6.32 6.32Zm5.31-17.94H14.69c-.62 0-1.13.51-1.13 1.13s.51 1.13 1.13 1.13h10.62c.62 0 1.13-.51 1.13-1.13s-.51-1.13-1.13-1.13m0 4.51H14.69c-.62 0-1.13.51-1.13 1.13s.51 1.13 1.13 1.13h10.62c.62 0 1.13-.51 1.13-1.13s-.51-1.13-1.13-1.13m0-9.02H14.69c-.62 0-1.13.51-1.13 1.13s.51 1.13 1.13 1.13h10.62c.62 0 1.13-.51 1.13-1.13s-.51-1.13-1.13-1.13"/></symbol><symbol id="s48" viewBox="0 0 48 48"><path d="m16.29 11.23-1.77-1.77L24-.02l9.39 9.39-1.77 1.77L24 3.52zM24 44.43l-7.62-7.62-1.77 1.77L24 47.97l9.48-9.48-1.77-1.77zm6.41-21.71H17.58a1.25 1.25 0 0 0 0 2.5h12.83a1.25 1.25 0 0 0 0-2.5m0 5.01H17.58a1.25 1.25 0 0 0 0 2.5h12.83a1.25 1.25 0 0 0 0-2.5m0-10.02H17.58a1.25 1.25 0 0 0 0 2.5h12.83a1.25 1.25 0 0 0 0-2.5"/></symbol><symbol id="s64" viewBox="0 0 64 64"><path d="m21.36 14.5-1.95-1.95L32-.04l12.47 12.47-1.95 1.95L32 3.86zM32 60.06 21.48 49.54l-1.95 1.95L32 63.96l12.59-12.59-1.95-1.95zm-8.67-29.48c-.76 0-1.38.62-1.38 1.38s.62 1.38 1.38 1.38h17.34c.76 0 1.38-.62 1.38-1.38s-.62-1.38-1.38-1.38zm0 5.52c-.76 0-1.38.62-1.38 1.38s.62 1.38 1.38 1.38h17.34c.76 0 1.38-.62 1.38-1.38s-.62-1.38-1.38-1.38zm0-11.04c-.76 0-1.38.62-1.38 1.38s.62 1.38 1.38 1.38h17.34c.76 0 1.38-.62 1.38-1.38s-.62-1.38-1.38-1.38z"/></symbol><use style="display: var(--s16, none)" href="#s16"/><use style="display: var(--s24, none)" href="#s24"/><use style="display: var(--s32, none)" href="#s32"/><use style="display: var(--s40, none)" href="#s40"/><use style="display: var(--s48, none)" href="#s48"/><use style="display: var(--s64, none)" href="#s64"/></symbol></defs><style>@media (max-width: 23.98px) {g{--s16:block;}}@media (min-width: 24px) and (max-width: 31.98px) {g{--s24:block;}}@media (min-width: 32px) and (max-width: 39.98px) {g{--s32:block;}}@media (min-width: 40px) and (max-width: 47.98px) {g{--s40:block;}}@media (min-width: 48px) and (max-width: 63.98px) {g{--s48:block;}}@media (min-width: 64px) {g{--s64:block;}}</style><g><use href="#i-dragupdown"/></g></svg>