<svg xmlns="http://www.w3.org/2000/svg"><defs><symbol id="i-drop"><symbol id="s16" viewBox="0 0 16 16"><path d="M8.54.56 8 0l-.54.55c-.22.23-5.47 5.66-5.47 9.43C1.99 13.3 4.69 16 8 16s6.01-2.7 6.01-6.02c0-3.74-5.25-9.19-5.47-9.42M8 14.51a4.52 4.52 0 0 1-4.51-4.52c0-2.34 2.88-6.01 4.51-7.8 1.62 1.8 4.51 5.49 4.51 7.8A4.52 4.52 0 0 1 8 14.51m1.01-1.85c0 .41-.34.75-.75.75-2.09 0-3.79-1.7-3.79-3.79 0-.41.34-.75.75-.75s.75.34.75.75c0 1.26 1.03 2.29 2.29 2.29.41 0 .75.34.75.75"/></symbol><symbol id="s24" viewBox="0 0 24 24"><path d="M12.65.65 12.03 0l-.63.64c-.34.35-8.37 8.64-8.37 14.35 0 4.97 4.04 9.01 9 9.01s9-4.04 9-9.01C21.02 9.34 13 1.01 12.65.65m-.62 21.61c-4 0-7.25-3.25-7.25-7.25s5.38-10.42 7.24-12.46c1.86 2.05 7.25 8.34 7.25 12.46s-3.25 7.25-7.25 7.25Zm1.28-3.14c0 .48-.39.88-.88.88-3.07 0-5.57-2.5-5.57-5.57 0-.48.39-.88.88-.88s.88.39.88.88a3.82 3.82 0 0 0 3.82 3.82c.48 0 .88.39.88.88Z"/></symbol><symbol id="s32" viewBox="0 0 32 32"><path d="M16.95 25.9c0 .55-.45 1-1 1-4.04 0-7.33-3.3-7.33-7.35 0-.55.45-1 1-1s1 .45 1 1c0 2.95 2.39 5.34 5.33 5.34.55 0 1 .45 1 1Zm11.04-5.86c0 6.61-5.37 11.99-11.97 11.99S4.05 26.65 4.05 20.04C4.05 12.4 14.84 1.24 15.3.77l.72-.73.71.74c.46.47 11.25 11.69 11.25 19.27Zm-2 0c0-5.73-7.58-14.48-9.97-17.11-2.4 2.61-9.97 11.33-9.97 17.11s4.47 9.99 9.97 9.99 9.97-4.48 9.97-9.99"/></symbol><symbol id="s40" viewBox="0 0 40 40"><path d="M20.81.84 20 0l-.81.83c-.58.59-14.16 14.62-14.16 24.2 0 8.26 6.71 14.98 14.96 14.98s14.96-6.72 14.96-14.98c.02-9.5-13.56-23.6-14.14-24.19M20 37.76c-7.01 0-12.71-5.71-12.71-12.73 0-7.41 9.8-18.6 12.71-21.76 2.91 3.17 12.72 14.41 12.72 21.76s-5.7 12.73-12.71 12.73Zm.55-4.85c0 .62-.5 1.13-1.12 1.13-5.03 0-9.12-4.09-9.12-9.12 0-.62.5-1.13 1.12-1.13s1.12.5 1.12 1.13c0 3.79 3.08 6.87 6.87 6.87.62 0 1.12.5 1.12 1.13Z"/></symbol><symbol id="s48" viewBox="0 0 48 48"><path d="m24.92.93-.9-.93-.9.92c-.7.71-17.05 17.61-17.05 29.12 0 9.9 8.05 17.96 17.95 17.96s17.95-8.06 17.95-17.96c0-11.42-16.35-28.39-17.05-29.11m-.9 44.58c-8.52 0-15.45-6.94-15.45-15.46C8.57 21 20.6 7.34 24.02 3.63c3.42 3.72 15.45 17.44 15.45 26.42s-6.93 15.46-15.45 15.46m.55-5.96c0 .69-.56 1.25-1.25 1.25-6.01 0-10.89-4.89-10.89-10.9a1.25 1.25 0 0 1 2.5 0c0 4.63 3.76 8.4 8.39 8.4.69 0 1.25.56 1.25 1.25"/></symbol><symbol id="s64" viewBox="0 0 64 64"><path d="M33.04 1.11 32.06.1l-.99 1.01c-.94.96-22.91 23.66-22.91 39.07 0 13.19 10.72 23.92 23.89 23.92s23.89-10.73 23.89-23.92c0-15.29-21.97-38.1-22.91-39.06Zm-.99 60.24c-11.66 0-21.14-9.5-21.14-21.17 0-12.53 16.84-31.47 21.14-36.1 4.29 4.64 21.14 23.67 21.14 36.1 0 11.67-9.48 21.17-21.14 21.17m.43-8.36c0 .76-.62 1.38-1.38 1.38-7.93 0-14.38-6.46-14.38-14.4 0-.76.62-1.38 1.38-1.38s1.38.62 1.38 1.38c0 6.42 5.22 11.64 11.63 11.64.76 0 1.38.62 1.38 1.38Z"/></symbol><use style="display: var(--s16, none)" href="#s16"/><use style="display: var(--s24, none)" href="#s24"/><use style="display: var(--s32, none)" href="#s32"/><use style="display: var(--s40, none)" href="#s40"/><use style="display: var(--s48, none)" href="#s48"/><use style="display: var(--s64, none)" href="#s64"/></symbol></defs><style>@media (max-width: 23.98px) {g{--s16:block;}}@media (min-width: 24px) and (max-width: 31.98px) {g{--s24:block;}}@media (min-width: 32px) and (max-width: 39.98px) {g{--s32:block;}}@media (min-width: 40px) and (max-width: 47.98px) {g{--s40:block;}}@media (min-width: 48px) and (max-width: 63.98px) {g{--s48:block;}}@media (min-width: 64px) {g{--s64:block;}}</style><g><use href="#i-drop"/></g></svg>