<svg xmlns="http://www.w3.org/2000/svg"><defs><symbol id="i-edit"><symbol id="s16" viewBox="0 0 16 16"><path d="M15.61 2.76 13.24.39a1.31 1.31 0 0 0-1.85 0L.74 11.05 0 16l4.97-.73 9.09-9.1 1.55-1.55c.51-.51.51-1.34 0-1.85ZM2.81 11.1l7.51-7.51 2.12 2.09-7.52 7.53-2.1-2.11Zm-.77 1.36 1.51 1.51-1.77.26zM13.5 4.61l-2.12-2.09.94-.94 2.1 2.11z"/></symbol><symbol id="s24" viewBox="0 0 24 24"><path d="M23.5 4.17 19.84.52C19.51.18 19.08 0 18.61 0c-.46 0-.9.18-1.23.51L1.05 16.84 0 24l7.16-1.04L23.5 6.62c.68-.68.68-1.78 0-2.46ZM3.48 16.89 15.52 4.83l3.67 3.62L7.11 20.53l-3.64-3.64Zm-.9 1.58 2.96 2.96-3.46.51.5-3.46ZM20.44 7.21l-3.67-3.62 1.84-1.84 3.66 3.64-1.82 1.82Z"/></symbol><symbol id="s32" viewBox="0 0 32 32"><path d="M31.38 5.55 26.46.62c-.84-.84-2.22-.84-3.06 0L1.42 22.6.01 31.99l9.4-1.4L31.38 8.61c.84-.84.84-2.22 0-3.06M4.28 22.58l16.49-16.5 5.19 5.12L9.44 27.73l-5.15-5.16Zm-1.09 1.74 4.5 4.5-5.3.79zM29.97 7.2l-2.58 2.58-5.19-5.12 2.62-2.62a.17.17 0 0 1 .23 0l4.93 4.93c.06.06.06.17 0 .23Z"/></symbol><symbol id="s40" viewBox="0 0 40 40"><path d="m39.22 7.14-6.2-6.2c-.98-.98-2.69-.98-3.66 0L1.71 28.56-.02 40.2l11.61-1.78 23.44-23.43.13-.13 4.07-4.07a2.59 2.59 0 0 0 0-3.66ZM4.39 29.07 25.96 7.52l6.73 6.63-21.61 21.6-6.68-6.68Zm-.83 2.35 5.16 5.16-6.07.93zM37.63 9.21l-3.35 3.34-6.73-6.63 3.4-3.4c.16-.16.31-.16.48 0l6.2 6.2c.13.13.13.35 0 .48Z"/></symbol><symbol id="s48" viewBox="0 0 48 48"><path d="M47.09 8.36 39.61.88c-1.14-1.14-3.12-1.14-4.27 0L2.04 34.19-.03 48.03l13.81-2.09 33.31-33.31a3.02 3.02 0 0 0 0-4.27M5.03 34.74 31.78 7.98l8.27 8.15-26.82 26.82-8.21-8.21Zm-.93 2.6 6.54 6.54-7.69 1.16zm41.22-26.48-3.5 3.5-8.27-8.15 3.56-3.56c.2-.2.53-.2.73 0l7.48 7.48c.2.2.2.53 0 .73"/></symbol><symbol id="s64" viewBox="0 0 64 64"><path d="M62.92 11.17 52.85 1.09a3.754 3.754 0 0 0-5.3 0L2.78 45.88.02 63.99l18.14-2.72 44.76-44.79a3.766 3.766 0 0 0 0-5.31M6.08 46.47 42.89 9.64l11.58 11.41-36.9 36.92zm-1.04 2.85L14.72 59 3.3 60.71l1.74-11.4Zm55.93-34.79-4.56 4.57L44.83 7.69l4.65-4.66a.996.996 0 0 1 1.41 0l10.07 10.08c.39.39.39 1.03 0 1.42Z"/></symbol><use style="display: var(--s16, none)" href="#s16"/><use style="display: var(--s24, none)" href="#s24"/><use style="display: var(--s32, none)" href="#s32"/><use style="display: var(--s40, none)" href="#s40"/><use style="display: var(--s48, none)" href="#s48"/><use style="display: var(--s64, none)" href="#s64"/></symbol></defs><style>@media (max-width: 23.98px) {g{--s16:block;}}@media (min-width: 24px) and (max-width: 31.98px) {g{--s24:block;}}@media (min-width: 32px) and (max-width: 39.98px) {g{--s32:block;}}@media (min-width: 40px) and (max-width: 47.98px) {g{--s40:block;}}@media (min-width: 48px) and (max-width: 63.98px) {g{--s48:block;}}@media (min-width: 64px) {g{--s64:block;}}</style><g><use href="#i-edit"/></g></svg>