<svg xmlns="http://www.w3.org/2000/svg"><defs><symbol id="i-edit-solid"><symbol id="s16" viewBox="0 0 16 16"><path d="m1.5 10.99 8.5-8.5s.03.05.05.07l3.5 3.45-8.52 8.51zm-.92 1.2-.56 3.8 3.81-.56-3.24-3.24Zm15.25-9.37L13.19.18a.63.63 0 0 0-.88 0l-1.27 1.27s.04.02.06.04l3.5 3.45 1.23-1.23c.24-.24.24-.64 0-.88Z"/></symbol><symbol id="s24" viewBox="0 0 24 24"><path d="M5.84 23.15.02 24l.85-5.82zm1.41-1.08L20.49 8.83l-5.25-5.17s-.04-.07-.07-.1L1.95 16.78l5.3 5.3Zm16.5-17.83L19.78.27a.936.936 0 0 0-1.33 0l-2.09 2.09s.06.03.09.06l5.26 5.18 2.03-2.03c.37-.37.37-.96 0-1.33Z"/></symbol><symbol id="s32" viewBox="0 0 32 32"><path d="m8.07 30.77-8.04 1.2 1.21-8.07zm1.53-1.31 17.83-17.84-6.99-6.89s-.06-.09-.09-.14L2.56 22.38l7.03 7.07ZM31.66 5.62 26.37.33c-.49-.49-1.28-.49-1.76 0l-2.89 2.89s.09.04.12.08l7.01 6.9 2.82-2.82c.49-.49.49-1.28 0-1.76Z"/></symbol><symbol id="s40" viewBox="0 0 40 40"><path d="M2.41 28.79 25.52 5.71c.04.06.06.12.11.17l8.74 8.6L11.23 37.6zm-1.02 2.16L.04 40.01l9.04-1.39-7.69-7.68ZM39.58 7.07 32.97.47c-.61-.61-1.6-.61-2.21 0l-3.7 3.7c.05.04.11.06.15.1l8.76 8.61 3.61-3.61c.61-.61.61-1.6 0-2.2"/></symbol><symbol id="s48" viewBox="0 0 48 48"><path d="M2.83 34.58 31.3 6.11c.05.07.08.14.14.2l10.49 10.33-28.55 28.54zm-1.18 2.36L0 48l10.99-1.66zM47.46 8.47 39.53.54c-.73-.73-1.92-.73-2.65 0l-3.87 3.87c.06.04.13.07.19.12l10.51 10.34 3.75-3.75c.73-.73.73-1.92 0-2.65"/></symbol><symbol id="s64" viewBox="0 0 64 64"><path d="M15.08 61.72 0 63.98l2.3-15.04zM42.52 7.84c-.08-.08-.13-.18-.19-.28L3.59 46.34l14.09 14.09-1.07 1.07h.02L56.5 21.6zm20.76 3.45L52.71.71c-.97-.97-2.55-.97-3.53 0l-4.99 5c.09.05.18.1.26.17l13.99 13.78 4.84-4.84c.97-.97.97-2.55 0-3.53"/></symbol><use style="display: var(--s16, none)" href="#s16"/><use style="display: var(--s24, none)" href="#s24"/><use style="display: var(--s32, none)" href="#s32"/><use style="display: var(--s40, none)" href="#s40"/><use style="display: var(--s48, none)" href="#s48"/><use style="display: var(--s64, none)" href="#s64"/></symbol></defs><style>@media (max-width: 23.98px) {g{--s16:block;}}@media (min-width: 24px) and (max-width: 31.98px) {g{--s24:block;}}@media (min-width: 32px) and (max-width: 39.98px) {g{--s32:block;}}@media (min-width: 40px) and (max-width: 47.98px) {g{--s40:block;}}@media (min-width: 48px) and (max-width: 63.98px) {g{--s48:block;}}@media (min-width: 64px) {g{--s64:block;}}</style><g><use href="#i-edit-solid"/></g></svg>