<svg xmlns="http://www.w3.org/2000/svg"><defs><symbol id="i-emergencyaccess-solid"><symbol id="s16" viewBox="0 0 16 16"><path d="M11.77 5.23a2.245 2.245 0 0 0-2.11-1.46H6.34c-1.08 0-2.01.77-2.21 1.83l-1.16 6.16h4.77V8.25h1.09a3.45 3.45 0 0 1 2.93-3.02ZM7.66 6.74h-.68c-.14 0-.27.1-.29.24l-.37 1.89a.75.75 0 0 1-.74.61c-.05 0-.1 0-.15-.01a.744.744 0 0 1-.59-.88l.37-1.89c.16-.84.9-1.46 1.77-1.46h.68c.41 0 .75.34.75.75s-.34.75-.75.75M1.43 2.87a.747.747 0 1 1 1.16-.94l.9 1.11c.26.32.21.79-.11 1.05-.14.11-.31.17-.47.17-.22 0-.43-.09-.58-.28zM12.5 4.13a.75.75 0 0 1-.1-1.06l.95-1.16c.26-.32.74-.37 1.06-.1.32.26.37.74.1 1.06l-.95 1.16c-.15.18-.36.27-.58.27-.17 0-.34-.06-.48-.17M7.26 2.25V.76a.751.751 0 1 1 1.5-.01v1.49c0 .41-.34.75-.75.75s-.75-.34-.75-.75ZM0 8.09c0-.41.34-.75.75-.75h1.5c.41 0 .75.34.75.75s-.34.75-.75.75H.75C.34 8.84 0 8.5 0 8.09M15.22 9.5v-.84a2.48 2.48 0 0 0-2.48-2.48h-.47a2.48 2.48 0 0 0-2.48 2.48h2c0-.26.21-.48.48-.48h.47c.26 0 .48.21.48.48v.84H9V16h7V9.5zm-1.92 3.44v.32c0 .41-.34.75-.75.75s-.75-.34-.75-.75v-.23a.9.9 0 0 1-.23-.6c0-.52.43-.95.95-.95s.95.43.95.95c0 .19-.07.36-.17.52Zm-11.05.33h5.5v2.74H0v-.47c0-1.26 1.01-2.27 2.25-2.27"/></symbol><symbol id="s24" viewBox="0 0 24 24"><path d="M11.13 3.59V.9c0-.48.39-.87.88-.87s.88.39.88.87v2.69c0 .48-.39.87-.88.87s-.88-.39-.88-.87M.88 12.87h2.69c.48 0 .88-.39.88-.87s-.39-.87-.88-.87H.88c-.49-.01-.88.38-.88.86s.39.87.88.87Zm2.97-6.83c.17.21.42.31.67.31.2 0 .4-.07.56-.21.37-.31.42-.86.11-1.23L3.46 2.85a.873.873 0 1 0-1.34 1.12l1.73 2.06Zm15.55.31c.25 0 .5-.11.67-.31l1.73-2.06a.873.873 0 1 0-1.34-1.12l-1.73 2.06c-.31.37-.26.92.11 1.23.16.14.36.21.56.21ZM0 22.79v1.23h11.78v-4.11h-8.9C1.29 19.92 0 21.21 0 22.79m13.41-10.24h-1.62v5.59h-7.3l1.8-9.58c.3-1.59 1.7-2.75 3.32-2.75h4.81c1.34 0 2.52.8 3.06 1.97-2.17.61-3.81 2.47-4.06 4.77ZM12.2 8.7c0-.48-.39-.87-.88-.87h-1.06c-1.2 0-2.23.85-2.45 2.02l-.57 2.91c-.09.47.22.93.69 1.03.06.01.11.02.17.02.41 0 .78-.29.86-.71l.57-2.91c.07-.35.37-.6.73-.6h1.06c.48 0 .88-.39.88-.87ZM24 14.68V24H13.91v-9.32h6.16v-1.53c0-.6-.49-1.1-1.1-1.1s-1.1.49-1.1 1.1h-3c0-2.26 1.84-4.09 4.1-4.09s4.1 1.84 4.1 4.09v1.53zm-3.83 4.17c0-.65-.53-1.18-1.18-1.18s-1.18.53-1.18 1.18c0 .32.13.62.35.83v.43c0 .48.39.87.88.87s.88-.39.88-.87v-.55c.16-.2.26-.44.26-.71Z"/></symbol><symbol id="s32" viewBox="0 0 32 32"><path d="M15 4.58V1c0-.56.45-1 1-1s1 .45 1 1v3.59c0 .55-.45 1-1 1s-1-.45-1-1ZM1.01 17.16H4.6c.55 0 1-.45 1-1s-.45-1-1-1H1.01c-.56 0-1.01.45-1.01 1s.45 1 1 1Zm4.25-9.04c.2.23.48.36.77.36.23 0 .46-.08.64-.24a1 1 0 0 0 .12-1.41L4.48 4.09a1 1 0 1 0-1.53 1.29zm20.6.36c.29 0 .57-.12.77-.36l2.31-2.74a1 1 0 1 0-1.53-1.29L25.1 6.83a1 1 0 0 0 .12 1.41 1 1 0 0 0 .64.24m-7.39 8.83h-2.18v7.19H6.12l2.35-12.54a4.75 4.75 0 0 1 4.67-3.87h5.72c2.09 0 3.9 1.37 4.52 3.32-2.62.8-4.59 3.1-4.91 5.9m-2.39-5.89c0-.55-.45-1-1-1h-1.41c-1.52 0-2.82 1.08-3.1 2.56l-.76 3.88c-.11.54.25 1.07.79 1.17a.995.995 0 0 0 1.17-.79l.76-3.89c.1-.54.58-.94 1.13-.94h1.41c.55 0 1-.45 1-1ZM0 30.28v1.71h16.28v-5.46H3.76A3.76 3.76 0 0 0 0 30.28m32.01-10.47V32H18.79V19.81h8.37v-1.72a1.741 1.741 0 0 0-3.48 0h-3.5c0-2.89 2.35-5.24 5.24-5.24s5.24 2.35 5.24 5.24v1.72H32Zm-5.13 5.43c0-.78-.63-1.41-1.41-1.41a1.408 1.408 0 0 0-1 2.4v.7c0 .55.45 1 1 1s1-.45 1-1v-.7c.25-.25.41-.6.41-.99"/></symbol><symbol id="s40" viewBox="0 0 40 40"><path d="M18.88 5.59V1.08c0-.62.5-1.13 1.13-1.13s1.13.5 1.13 1.13v4.51c0 .62-.5 1.13-1.13 1.13s-1.13-.5-1.13-1.13M1.14 21.44h4.51c.62 0 1.13-.5 1.13-1.13s-.5-1.13-1.13-1.13H1.14c-.62 0-1.13.5-1.13 1.13s.5 1.13 1.13 1.13m5.45-11.32c.22.26.54.4.86.4a1.127 1.127 0 0 0 .86-1.85L5.4 5.22c-.4-.48-1.11-.54-1.59-.14s-.54 1.11-.14 1.59l2.91 3.45Zm25.82.4c.32 0 .64-.14.86-.4l2.91-3.45a1.128 1.128 0 1 0-1.73-1.45l-2.91 3.45c-.4.47-.34 1.18.14 1.59.21.18.47.26.72.26Zm-8.85 11.57h-2.7v8.73H7.75l2.99-15.95c.5-2.66 2.82-4.59 5.53-4.59h7.46c2.7 0 5.02 1.92 5.53 4.57-3.11 1.04-5.42 3.85-5.7 7.23Zm-3.54-7.72c0-.62-.5-1.13-1.13-1.13h-1.76c-1.84 0-3.41 1.31-3.75 3.1l-.95 4.85a1.126 1.126 0 0 0 1.11 1.34c.53 0 1-.37 1.1-.91l.95-4.86c.14-.74.79-1.28 1.54-1.28h1.76c.62 0 1.13-.5 1.13-1.13ZM0 37.69v2.25h20.85v-6.88H4.63C2.08 33.07 0 35.14 0 37.69m40.01-12.72v14.98H23.73V24.97h10.53v-2.18c0-1.3-1.06-2.37-2.37-2.37s-2.37 1.06-2.37 2.37h-4c0-3.51 2.86-6.37 6.37-6.37s6.37 2.86 6.37 6.37v2.18H40Zm-6.41 6.67a1.641 1.641 0 0 0-3.28 0c0 .47.2.88.51 1.18v.94c0 .62.5 1.13 1.13 1.13s1.13-.5 1.13-1.13v-.94c.31-.3.51-.72.51-1.18"/></symbol><symbol id="s48" viewBox="0 0 48 48"><path d="M22.75 6.71V1.25a1.25 1.25 0 0 1 2.5 0v5.46a1.25 1.25 0 0 1-2.5 0M1.26 25.78h5.46a1.25 1.25 0 0 0 0-2.5H1.26a1.25 1.25 0 0 0 0 2.5m6.62-13.66a1.26 1.26 0 0 0 1.76.15c.53-.45.59-1.23.15-1.76L6.28 6.34a1.25 1.25 0 0 0-1.76-.15c-.53.45-.59 1.23-.15 1.76zm31.11.44c.36 0 .71-.15.96-.44l3.51-4.17c.44-.53.38-1.32-.15-1.76-.53-.45-1.32-.38-1.76.15l-3.51 4.17c-.44.53-.38 1.32.15 1.76.23.2.52.29.8.29M0 45.55v2.44h25.44V39.8H5.74C2.57 39.8 0 42.38 0 45.55m28.67-18.58h-3.23v10.3H9.39l3.63-19.37c.57-3.07 3.26-5.3 6.39-5.3h9.19c3.12 0 5.81 2.23 6.39 5.3l.11.58c-3.55 1.28-6.15 4.56-6.42 8.49Zm-4.63-8.88c0-.69-.56-1.25-1.25-1.25h-2.11c-2.15 0-4 1.54-4.4 3.64l-1.14 5.82c-.13.68.31 1.33.99 1.47.08.02.16.02.24.02.59 0 1.11-.41 1.23-1.01l1.14-5.83c.18-.93.99-1.61 1.94-1.61h2.11c.69 0 1.25-.56 1.25-1.25M48 30.22V48H28.69V30.22h12.67v-2.58c0-1.65-1.34-2.99-2.99-2.99s-2.99 1.34-2.99 2.99h-4.5c0-4.13 3.36-7.49 7.48-7.49s7.49 3.36 7.49 7.49v2.58h2.14Zm-7.68 7.9c0-1.03-.84-1.86-1.86-1.86s-1.86.84-1.86 1.86c0 .55.24 1.03.61 1.37v1.17a1.25 1.25 0 0 0 2.5 0v-1.17c.37-.34.61-.83.61-1.37"/></symbol><symbol id="s64" viewBox="0 0 64 64"><path d="M30.63 8.72V1.38c0-.76.62-1.38 1.38-1.38s1.38.62 1.38 1.38v7.34c0 .76-.62 1.38-1.38 1.38s-1.38-.62-1.38-1.38M1.45 34.45h7.33c.76 0 1.38-.62 1.38-1.38s-.62-1.38-1.38-1.38H1.45c-.76 0-1.38.62-1.38 1.38s.62 1.38 1.38 1.38m9.12-18.26c.27.32.66.49 1.05.49.31 0 .63-.11.88-.32.58-.49.66-1.36.17-1.94L7.94 8.81c-.49-.58-1.36-.66-1.94-.17s-.66 1.36-.17 1.94l4.73 5.61Zm41.59.49c.39 0 .78-.17 1.05-.49l4.73-5.61c.49-.58.42-1.45-.17-1.94a1.37 1.37 0 0 0-1.94.17l-4.73 5.61c-.49.58-.42 1.45.17 1.94.26.22.57.32.88.32ZM0 58.93v5.06h34.98V53.05H5.87C2.63 53.05 0 55.68 0 58.93m39.28-21.88h-4.31v13.19H12.76l4.89-26.08a8.39 8.39 0 0 1 8.23-6.84h12.26a8.38 8.38 0 0 1 8.23 6.84l.27 1.45c-4.32 1.81-7.36 6.09-7.36 11.06v.37Zm-8.05-13.78c0-.76-.62-1.38-1.38-1.38h-2.82c-2.73 0-5.08 1.95-5.58 4.62l-1.52 7.76c-.15.75.34 1.47 1.09 1.62q.135.03.27.03c.64 0 1.22-.45 1.35-1.11l1.52-7.77a2.926 2.926 0 0 1 2.88-2.39h2.82c.76 0 1.38-.62 1.38-1.38Zm32.76 17.41v23.33H38.6V40.68h17.29v-4c0-2.47-2.01-4.49-4.48-4.49h-.13c-2.47 0-4.49 2.01-4.49 4.49h-5c0-5.23 4.26-9.49 9.49-9.49h.13c5.23 0 9.49 4.26 9.49 9.49v4H64ZM53.65 51.01c0-1.21-.99-2.2-2.2-2.2s-2.2.99-2.2 2.2c0 .69.33 1.3.83 1.71v1.72c0 .76.62 1.38 1.38 1.38s1.38-.62 1.38-1.38v-1.72c.5-.4.83-1.01.83-1.71Z"/></symbol><use style="display: var(--s16, none)" href="#s16"/><use style="display: var(--s24, none)" href="#s24"/><use style="display: var(--s32, none)" href="#s32"/><use style="display: var(--s40, none)" href="#s40"/><use style="display: var(--s48, none)" href="#s48"/><use style="display: var(--s64, none)" href="#s64"/></symbol></defs><style>@media (max-width: 23.98px) {g{--s16:block;}}@media (min-width: 24px) and (max-width: 31.98px) {g{--s24:block;}}@media (min-width: 32px) and (max-width: 39.98px) {g{--s32:block;}}@media (min-width: 40px) and (max-width: 47.98px) {g{--s40:block;}}@media (min-width: 48px) and (max-width: 63.98px) {g{--s48:block;}}@media (min-width: 64px) {g{--s64:block;}}</style><g><use href="#i-emergencyaccess-solid"/></g></svg>