<svg xmlns="http://www.w3.org/2000/svg"><defs><symbol id="i-emergency"><symbol id="s16" viewBox="0 0 16 16"><path d="M13.75 11.76h-.72L11.88 5.6a2.25 2.25 0 0 0-2.21-1.83H6.35c-1.08 0-2.01.77-2.21 1.83l-1.15 6.16h-.72C1.01 11.76 0 12.77 0 14.01v2h16v-2c0-1.24-1.01-2.25-2.25-2.25M5.61 5.87a.76.76 0 0 1 .74-.61h3.32c.36 0 .67.26.74.61l1.1 5.88h-7zm8.89 8.64h-13v-.5c0-.41.34-.75.75-.75h11.5c.41 0 .75.34.75.75zM7.26 2.25V.76a.751.751 0 1 1 1.5-.01v1.5c0 .41-.34.75-.75.75s-.75-.34-.75-.75M0 8.09c0-.41.34-.75.75-.75h1.5c.41 0 .75.34.75.75s-.34.75-.75.75H.76C.34 8.84 0 8.5 0 8.09m13.76-.87h1.5c.41 0 .75.34.75.75s-.34.75-.75.75h-1.5c-.41 0-.75-.34-.75-.75s.34-.75.75-.75M1.44 2.87a.76.76 0 0 1 .11-1.06.76.76 0 0 1 1.06.11l.9 1.11c.26.32.21.79-.11 1.06-.14.11-.31.17-.47.17-.22 0-.43-.09-.58-.28l-.9-1.11ZM12.5 4.13a.747.747 0 0 1-.11-1.05l.95-1.16a.747.747 0 0 1 1.16.94l-.95 1.16c-.15.18-.36.28-.58.28-.17 0-.34-.06-.47-.17M9.12 6.71c0 .41-.34.75-.75.75h-.68c-.14 0-.27.1-.29.24l-.37 1.89a.75.75 0 0 1-.74.61c-.05 0-.1 0-.15-.01a.744.744 0 0 1-.59-.88l.37-1.89c.16-.84.9-1.46 1.77-1.46h.68c.41 0 .75.34.75.75"/></symbol><symbol id="s24" viewBox="0 0 24 24"><path d="M21.13 18.13h-1.62L17.69 8.4c-.28-1.51-1.6-2.6-3.13-2.6H9.45c-1.53 0-2.85 1.09-3.13 2.6L4.5 18.13H2.88A2.88 2.88 0 0 0 0 21.01v3h24v-3c0-1.59-1.29-2.88-2.87-2.88M8.04 8.73c.13-.68.72-1.17 1.41-1.17h5.11c.69 0 1.28.49 1.41 1.17l1.76 9.4H6.28zm14.22 13.53H1.75v-1.25c0-.62.5-1.13 1.12-1.13h18.26c.62 0 1.12.51 1.12 1.13v1.25ZM11.13 3.58V.89c0-.48.39-.88.87-.88s.87.39.87.88v2.69c0 .48-.39.88-.87.88s-.87-.39-.87-.88m9.31 7.54h2.69c.48 0 .87.39.87.88s-.39.88-.87.88h-2.69c-.48 0-.87-.39-.87-.88s.39-.88.87-.88m-20.42.87c0-.48.39-.88.87-.88h2.69c.48 0 .87.39.87.88s-.39.88-.87.88H.9c-.48 0-.87-.39-.87-.88Zm2.11-8.01a.873.873 0 0 1 .11-1.23c.37-.31.92-.27 1.23.11L5.2 4.92c.31.37.26.92-.11 1.23-.16.14-.36.21-.56.21-.25 0-.5-.11-.67-.31L2.13 3.99Zm16.7 2.16a.873.873 0 0 1-.11-1.23l1.73-2.06a.873.873 0 1 1 1.34 1.12l-1.73 2.06c-.17.21-.42.31-.67.31-.2 0-.4-.07-.56-.21Zm-5.7 3.65c0 .48-.39.88-.87.88H11.2c-.36 0-.66.25-.72.6l-.57 2.92c-.08.42-.45.71-.86.71-.06 0-.11 0-.17-.02a.88.88 0 0 1-.69-1.03l.57-2.91a2.486 2.486 0 0 1 2.44-2.02h1.06c.48 0 .87.39.87.88Z"/></symbol><symbol id="s32" viewBox="0 0 32 32"><path d="M28.25 24.5h-2.36L23.5 11.75a4.5 4.5 0 0 0-4.42-3.67h-6.13a4.5 4.5 0 0 0-4.42 3.67L6.14 24.5H3.78C1.7 24.5.02 26.18.02 28.25V32H32v-3.75c0-2.07-1.68-3.75-3.75-3.75M10.48 12.12a2.5 2.5 0 0 1 2.46-2.04h6.13c1.2 0 2.24.86 2.46 2.04l2.32 12.38H8.16zM30 30H2.02v-1.75c0-.96.79-1.75 1.75-1.75h24.48c.96 0 1.75.78 1.75 1.75zM15 4.58V.99c0-.55.45-.99 1-.99s1 .45 1 1v3.58c0 .55-.45 1-1 1s-1-.45-1-1m12.42 10.57h3.59c.55 0 1 .45 1 1s-.45 1-1 1h-3.59c-.55 0-1-.45-1-1s.45-1 1-1m-27.41 1c0-.55.45-1 1-1H4.6c.55 0 1 .45 1 1s-.45 1-1 1H1.01c-.55 0-1-.45-1-1M2.95 5.37a1 1 0 1 1 1.53-1.29l2.31 2.74a1 1 0 0 1-.12 1.41.99.99 0 0 1-1.41-.12zm22.27 2.86a1 1 0 0 1-.12-1.41l2.31-2.74a1 1 0 1 1 1.53 1.29l-2.31 2.74c-.2.23-.48.36-.77.36-.23 0-.46-.08-.64-.24m-8.15 4.61c0 .55-.45 1-1 1h-1.41c-.55 0-1.03.4-1.13.94l-.76 3.88c-.09.48-.51.81-.98.81-.06 0-.13 0-.19-.02a1 1 0 0 1-.79-1.17l.76-3.88a3.15 3.15 0 0 1 3.1-2.56h1.41c.55 0 1 .45 1 1Z"/></symbol><symbol id="s40" viewBox="0 0 40 40"><path d="M35.38 30.87h-3.12l-3.01-16.05a5.51 5.51 0 0 0-5.41-4.49h-7.67c-2.65 0-4.92 1.89-5.41 4.49L7.75 30.87H4.64A4.64 4.64 0 0 0 .01 35.5V40h40v-4.5c0-2.55-2.08-4.62-4.63-4.62ZM12.97 15.23a3.25 3.25 0 0 1 3.2-2.65h7.67c1.56 0 2.91 1.11 3.2 2.65l2.93 15.64H10.04zm24.79 22.52H2.26V35.5c0-1.31 1.07-2.38 2.38-2.38h30.74c1.31 0 2.38 1.07 2.38 2.38zM18.88 5.63V1.12C18.88.5 19.38 0 20 0s1.13.5 1.13 1.12v4.51c0 .62-.5 1.12-1.13 1.12s-1.13-.5-1.13-1.12Zm15.49 13.61h4.51c.62 0 1.13.5 1.13 1.12s-.5 1.12-1.13 1.12h-4.51c-.62 0-1.13-.5-1.13-1.12s.5-1.12 1.13-1.12M.02 20.36c0-.62.5-1.12 1.13-1.12h4.51c.62 0 1.13.5 1.13 1.12s-.5 1.12-1.13 1.12H1.14c-.62 0-1.13-.5-1.13-1.12ZM3.68 6.71c-.4-.47-.34-1.18.14-1.58.47-.4 1.18-.34 1.59.14l2.91 3.45c.4.47.34 1.18-.14 1.58-.21.18-.47.26-.72.26-.32 0-.64-.14-.86-.4L3.69 6.71Zm28 3.58c-.47-.4-.54-1.11-.13-1.59l2.91-3.45c.4-.47 1.11-.53 1.59-.13.47.4.54 1.11.13 1.59l-2.91 3.45c-.22.26-.54.4-.86.4-.26 0-.51-.09-.72-.26Zm-10.47 5.87c0 .62-.5 1.12-1.13 1.12h-1.76c-.75 0-1.4.54-1.54 1.28l-.95 4.86c-.1.54-.58.91-1.1.91-.07 0-.14 0-.22-.02-.61-.12-1.01-.71-.89-1.32l.95-4.85c.34-1.79 1.91-3.1 3.75-3.1h1.76c.62 0 1.13.5 1.13 1.12"/></symbol><symbol id="s48" viewBox="0 0 48 48"><path d="M42.24 37.27h-3.62l-3.63-19.36a6.505 6.505 0 0 0-6.39-5.3h-9.2c-3.13 0-5.81 2.23-6.39 5.3L9.38 37.27H5.73C2.57 37.27 0 39.85 0 43.02v5h47.99v-5c0-3.17-2.58-5.75-5.75-5.75m-26.76-18.9a4 4 0 0 1 3.93-3.26h9.2c1.92 0 3.58 1.37 3.93 3.26l3.54 18.9H11.93l3.54-18.9Zm30.01 27.15h-43v-2.5c0-1.79 1.46-3.25 3.25-3.25h36.5c1.79 0 3.25 1.46 3.25 3.25zM22.75 6.73V1.27a1.25 1.25 0 0 1 2.5 0v5.46a1.25 1.25 0 0 1-2.5 0m18.54 16.56h5.46a1.25 1.25 0 0 1 0 2.5h-5.46a1.25 1.25 0 0 1 0-2.5M0 24.54c0-.69.56-1.25 1.25-1.25h5.46a1.25 1.25 0 0 1 0 2.5H1.26c-.69 0-1.25-.56-1.25-1.25ZM4.36 7.96a1.25 1.25 0 0 1 .15-1.76 1.25 1.25 0 0 1 1.76.15l3.52 4.17c.44.53.38 1.32-.15 1.76-.23.2-.52.29-.8.29-.36 0-.71-.15-.96-.44zm33.83 4.32c-.53-.45-.59-1.23-.15-1.76l3.52-4.17c.44-.53 1.23-.6 1.76-.15s.59 1.23.15 1.76l-3.52 4.17a1.26 1.26 0 0 1-1.76.15m-12.84 7.13c0 .69-.56 1.25-1.25 1.25h-2.11c-.95 0-1.77.68-1.94 1.61l-1.14 5.83c-.12.6-.64 1.01-1.23 1.01-.08 0-.16 0-.24-.02-.68-.13-1.12-.79-.99-1.47l1.14-5.82c.39-2.11 2.25-3.64 4.4-3.64h2.11c.69 0 1.25.56 1.25 1.25"/></symbol><symbol id="s64" viewBox="0 0 64 64"><path d="M58.12 50.22h-6.86l-4.88-26.05a8.37 8.37 0 0 0-8.23-6.83H25.89c-4.03 0-7.49 2.87-8.23 6.83l-4.88 26.05H5.89C2.63 50.22 0 52.86 0 56.1v7.93h64V56.1c0-3.24-2.64-5.88-5.87-5.88ZM20.35 24.68c.5-2.66 2.82-4.59 5.53-4.59h12.26c2.7 0 5.03 1.93 5.53 4.59l4.79 25.55h-32.9zm40.9 36.6H2.75V56.1c0-1.72 1.4-3.13 3.12-3.13h52.25c1.72 0 3.12 1.4 3.12 3.13v5.18ZM30.64 8.73V1.4c0-.76.62-1.38 1.37-1.38s1.37.62 1.37 1.38v7.33c0 .76-.62 1.38-1.37 1.38s-1.37-.62-1.37-1.38m24.6 22.97h7.33a1.38 1.38 0 0 1 0 2.76h-7.33a1.38 1.38 0 0 1 0-2.76M.08 33.07c0-.76.62-1.38 1.37-1.38h7.33a1.38 1.38 0 0 1 0 2.76H1.45c-.76 0-1.37-.62-1.37-1.38M5.85 10.6a1.37 1.37 0 0 1 .17-1.94 1.37 1.37 0 0 1 1.94.17l4.72 5.61c.49.58.42 1.45-.17 1.94-.26.22-.57.32-.88.32-.39 0-.78-.17-1.05-.49L5.86 10.6Zm45.42 5.77c-.58-.49-.66-1.36-.17-1.94l4.72-5.61c.49-.58 1.36-.65 1.94-.17.58.49.66 1.36.17 1.94l-4.72 5.61c-.27.32-.66.49-1.05.49-.31 0-.63-.11-.88-.32Zm-17.75 9.74c0 .76-.62 1.38-1.37 1.38h-2.82c-1.41 0-2.62 1-2.88 2.39l-1.52 7.77c-.13.66-.7 1.11-1.35 1.11-.09 0-.18 0-.27-.03-.75-.15-1.23-.87-1.08-1.61l1.52-7.76c.5-2.67 2.85-4.62 5.58-4.62h2.82c.76 0 1.37.62 1.37 1.38Z"/></symbol><use style="display: var(--s16, none)" href="#s16"/><use style="display: var(--s24, none)" href="#s24"/><use style="display: var(--s32, none)" href="#s32"/><use style="display: var(--s40, none)" href="#s40"/><use style="display: var(--s48, none)" href="#s48"/><use style="display: var(--s64, none)" href="#s64"/></symbol></defs><style>@media (max-width: 23.98px) {g{--s16:block;}}@media (min-width: 24px) and (max-width: 31.98px) {g{--s24:block;}}@media (min-width: 32px) and (max-width: 39.98px) {g{--s32:block;}}@media (min-width: 40px) and (max-width: 47.98px) {g{--s40:block;}}@media (min-width: 48px) and (max-width: 63.98px) {g{--s48:block;}}@media (min-width: 64px) {g{--s64:block;}}</style><g><use href="#i-emergency"/></g></svg>