<svg xmlns="http://www.w3.org/2000/svg"><defs><symbol id="i-emoteneutry-solid"><symbol id="s16" viewBox="0 0 16 16"><path d="M8 0C3.59 0 0 3.59 0 8s3.59 8 8 8 8-3.59 8-8-3.59-8-8-8m2.35 4.07c.69 0 1.25.9 1.25 2s-.56 2-1.25 2-1.25-.9-1.25-2 .56-2 1.25-2m-4.45 0c.69 0 1.25.9 1.25 2s-.56 2-1.25 2-1.25-.9-1.25-2 .56-2 1.25-2m5.41 7.43H4.69c-.41 0-.75-.34-.75-.75s.34-.75.75-.75h6.62c.41 0 .75.34.75.75s-.34.75-.75.75"/></symbol><symbol id="s24" viewBox="0 0 24 24"><path d="M12 0C5.38 0 0 5.38 0 12s5.38 12 12 12 12-5.38 12-12S18.62 0 12 0m3.6 5.97c1.06 0 1.92 1.37 1.92 3.07s-.86 3.07-1.92 3.07-1.92-1.37-1.92-3.07.86-3.07 1.92-3.07m-6.83 0c1.06 0 1.92 1.37 1.92 3.07s-.86 3.07-1.92 3.07-1.92-1.37-1.92-3.07.86-3.07 1.92-3.07m8.34 11.1H6.89c-.48 0-.88-.39-.88-.88s.39-.88.88-.88H17.1c.48 0 .88.39.88.88s-.39.88-.88.88Z"/></symbol><symbol id="s32" viewBox="0 0 32 32"><path d="M16 0C7.18 0 0 7.18 0 16s7.18 16 16 16 16-7.18 16-16S24.82 0 16 0m4.86 7.87c1.43 0 2.59 1.85 2.59 4.14s-1.16 4.14-2.59 4.14-2.59-1.85-2.59-4.14 1.16-4.14 2.59-4.14m-9.21 0c1.43 0 2.59 1.85 2.59 4.14s-1.16 4.14-2.59 4.14-2.59-1.85-2.59-4.14 1.16-4.14 2.59-4.14m11.26 14.76H9.08c-.55 0-1-.45-1-1s.45-1 1-1h13.83c.55 0 1 .45 1 1s-.45 1-1 1"/></symbol><symbol id="s40" viewBox="0 0 40 40"><path d="M20-.06c-11.03 0-20 8.98-20 20s8.97 20 20 20 20-8.97 20-20-8.97-20-20-20m6.11 9.78c1.8 0 3.25 2.33 3.25 5.2s-1.46 5.2-3.25 5.2-3.25-2.33-3.25-5.2 1.46-5.2 3.25-5.2m-11.58 0c1.8 0 3.25 2.33 3.25 5.2s-1.46 5.2-3.25 5.2-3.25-2.33-3.25-5.2 1.46-5.2 3.25-5.2M29.2 27.63H10.8c-.62 0-1.12-.5-1.12-1.12s.5-1.12 1.12-1.12h18.41c.62 0 1.12.5 1.12 1.12s-.5 1.12-1.12 1.12Z"/></symbol><symbol id="s48" viewBox="0 0 48 48"><path d="M24 0C10.77 0 0 10.77 0 24s10.77 24 24 24 24-10.77 24-24S37.23 0 24 0m7.37 11.68c2.16 0 3.92 2.81 3.92 6.27s-1.76 6.27-3.92 6.27-3.92-2.81-3.92-6.27 1.76-6.27 3.92-6.27m-13.97 0c2.16 0 3.92 2.81 3.92 6.27s-1.76 6.27-3.92 6.27-3.92-2.81-3.92-6.27 1.76-6.27 3.92-6.27m17.61 21.57H12.99a1.25 1.25 0 0 1 0-2.5h22.02a1.25 1.25 0 0 1 0 2.5"/></symbol><symbol id="s64" viewBox="0 0 64 64"><path d="M32 0C14.36 0 0 14.35 0 32s14.36 32 32 32 32-14.36 32-32S49.64 0 32 0m9.92 15.4c2.92 0 5.28 3.78 5.28 8.45s-2.36 8.45-5.28 8.45-5.28-3.78-5.28-8.45S39 15.4 41.92 15.4m-18.8 0c2.92 0 5.28 3.78 5.28 8.45s-2.36 8.45-5.28 8.45-5.28-3.78-5.28-8.45 2.36-8.45 5.28-8.45m24.07 28.39H17.81c-.76 0-1.38-.62-1.38-1.38s.62-1.38 1.38-1.38h29.38c.76 0 1.38.62 1.38 1.38s-.62 1.38-1.38 1.38"/></symbol><use style="display: var(--s16, none)" href="#s16"/><use style="display: var(--s24, none)" href="#s24"/><use style="display: var(--s32, none)" href="#s32"/><use style="display: var(--s40, none)" href="#s40"/><use style="display: var(--s48, none)" href="#s48"/><use style="display: var(--s64, none)" href="#s64"/></symbol></defs><style>@media (max-width: 23.98px) {g{--s16:block;}}@media (min-width: 24px) and (max-width: 31.98px) {g{--s24:block;}}@media (min-width: 32px) and (max-width: 39.98px) {g{--s32:block;}}@media (min-width: 40px) and (max-width: 47.98px) {g{--s40:block;}}@media (min-width: 48px) and (max-width: 63.98px) {g{--s48:block;}}@media (min-width: 64px) {g{--s64:block;}}</style><g><use href="#i-emoteneutry-solid"/></g></svg>