<svg xmlns="http://www.w3.org/2000/svg"><defs><symbol id="i-emotefrowny-solid"><symbol id="s16" viewBox="0 0 16 16"><path d="M8 0C3.59 0 0 3.59 0 8s3.59 8 8 8 8-3.59 8-8-3.59-8-8-8m2.35 4.07c.69 0 1.25.9 1.25 2s-.56 2-1.25 2-1.25-.9-1.25-2 .56-2 1.25-2m-4.45 0c.69 0 1.25.9 1.25 2s-.56 2-1.25 2-1.25-.9-1.25-2 .56-2 1.25-2m5.63 8.49c-.12.07-.25.1-.38.1-.26 0-.51-.13-.65-.37-.52-.89-1.48-1.45-2.5-1.45s-1.99.55-2.5 1.45a.752.752 0 1 1-1.3-.76c.79-1.35 2.24-2.2 3.8-2.2s3.02.84 3.8 2.2c.21.36.08.82-.27 1.03"/></symbol><symbol id="s24" viewBox="0 0 24 24"><path d="M12 0C5.38 0 0 5.38 0 12s5.38 12 12 12 12-5.38 12-12S18.62 0 12 0m3.61 5.97c1.06 0 1.92 1.37 1.92 3.07s-.86 3.07-1.92 3.07-1.92-1.37-1.92-3.07.86-3.07 1.92-3.07m-6.84 0c1.06 0 1.92 1.37 1.92 3.07s-.86 3.07-1.92 3.07-1.92-1.37-1.92-3.07.86-3.07 1.92-3.07m8.53 12.8c-.14.08-.29.12-.44.12-.3 0-.6-.16-.76-.44-.85-1.46-2.42-2.37-4.11-2.37s-3.26.91-4.11 2.37a.88.88 0 0 1-1.2.32.88.88 0 0 1-.32-1.2c1.16-2 3.32-3.25 5.62-3.25s4.46 1.25 5.62 3.25c.24.42.1.95-.32 1.2Z"/></symbol><symbol id="s32" viewBox="0 0 32 32"><path d="M16 0C7.18 0 0 7.18 0 16s7.18 16 16 16 16-7.18 16-16S24.82 0 16 0m4.86 7.87c1.43 0 2.59 1.85 2.59 4.14s-1.16 4.14-2.59 4.14-2.59-1.85-2.59-4.14 1.16-4.14 2.59-4.14m-9.21 0c1.43 0 2.59 1.85 2.59 4.14s-1.16 4.14-2.59 4.14-2.59-1.85-2.59-4.14 1.16-4.14 2.59-4.14m11.63 17.16c-.47.28-1.09.11-1.37-.36-1.22-2.11-3.49-3.42-5.92-3.42s-4.69 1.31-5.92 3.42c-.19.32-.52.5-.87.5-.17 0-.34-.04-.5-.13a1 1 0 0 1-.36-1.37c1.58-2.73 4.51-4.42 7.65-4.42s6.07 1.69 7.65 4.42c.28.48.11 1.09-.36 1.37Z"/></symbol><symbol id="s40" viewBox="0 0 40 40"><path d="M20-.06c-11.03 0-20 8.98-20 20s8.97 20 20 20 20-8.97 20-20-8.97-20-20-20m-5.48 9.77c1.8 0 3.25 2.33 3.25 5.21s-1.46 5.21-3.25 5.21-3.25-2.33-3.25-5.21 1.46-5.21 3.25-5.21m14.15 21.36a1.13 1.13 0 0 1-1.54-.41c-1.47-2.54-4.2-4.11-7.12-4.11s-5.65 1.58-7.12 4.11a1.126 1.126 0 1 1-1.95-1.13c1.87-3.23 5.35-5.24 9.06-5.24s7.19 2.01 9.06 5.24c.31.54.13 1.23-.41 1.54Zm-2.55-10.94c-1.8 0-3.25-2.33-3.25-5.21s1.46-5.21 3.25-5.21 3.25 2.33 3.25 5.21-1.46 5.21-3.25 5.21"/></symbol><symbol id="s48" viewBox="0 0 48 48"><path d="M24 0C10.77 0 0 10.77 0 24s10.77 24 24 24 24-10.77 24-24S37.23 0 24 0m7.37 11.67c2.17 0 3.92 2.81 3.92 6.28s-1.76 6.28-3.92 6.28-3.92-2.81-3.92-6.28 1.76-6.28 3.92-6.28m-13.97 0c2.17 0 3.92 2.81 3.92 6.28s-1.76 6.28-3.92 6.28-3.92-2.81-3.92-6.28 1.76-6.28 3.92-6.28m18.52 26.09c-.2.11-.41.17-.63.17-.43 0-.85-.22-1.08-.62-2.11-3.64-6.02-5.9-10.21-5.9s-8.1 2.26-10.21 5.9c-.35.6-1.11.8-1.71.46-.6-.35-.8-1.11-.46-1.71 2.56-4.41 7.3-7.15 12.38-7.15s9.82 2.74 12.38 7.15c.35.6.14 1.36-.46 1.71Z"/></symbol><symbol id="s64" viewBox="0 0 64 64"><path d="M32 0C14.36 0 0 14.35 0 32s14.36 32 32 32 32-14.36 32-32S49.64 0 32 0m9.93 15.39c2.92 0 5.28 3.78 5.28 8.45s-2.36 8.45-5.28 8.45-5.28-3.78-5.28-8.45 2.36-8.45 5.28-8.45m-18.82 0c2.92 0 5.28 3.78 5.28 8.45s-2.36 8.45-5.28 8.45-5.28-3.78-5.28-8.45 2.36-8.45 5.28-8.45M47.9 50.26c-.22.13-.45.19-.69.19-.47 0-.94-.25-1.19-.69-2.9-5-8.27-8.1-14.02-8.1s-11.12 3.1-14.02 8.1c-.38.66-1.22.88-1.88.5s-.88-1.22-.5-1.88c3.39-5.84 9.67-9.47 16.4-9.47s13.01 3.63 16.4 9.47c.38.66.16 1.5-.5 1.88"/></symbol><use style="display: var(--s16, none)" href="#s16"/><use style="display: var(--s24, none)" href="#s24"/><use style="display: var(--s32, none)" href="#s32"/><use style="display: var(--s40, none)" href="#s40"/><use style="display: var(--s48, none)" href="#s48"/><use style="display: var(--s64, none)" href="#s64"/></symbol></defs><style>@media (max-width: 23.98px) {g{--s16:block;}}@media (min-width: 24px) and (max-width: 31.98px) {g{--s24:block;}}@media (min-width: 32px) and (max-width: 39.98px) {g{--s32:block;}}@media (min-width: 40px) and (max-width: 47.98px) {g{--s40:block;}}@media (min-width: 48px) and (max-width: 63.98px) {g{--s48:block;}}@media (min-width: 64px) {g{--s64:block;}}</style><g><use href="#i-emotefrowny-solid"/></g></svg>