<svg xmlns="http://www.w3.org/2000/svg"><defs><symbol id="i-emotesmiley-solid"><symbol id="s16" viewBox="0 0 16 16"><path d="M8 0C3.59 0 0 3.59 0 8s3.59 8 8 8 8-3.59 8-8-3.59-8-8-8m2.35 4.07c.69 0 1.25.9 1.25 2s-.56 2-1.25 2-1.25-.9-1.25-2 .56-2 1.25-2m-4.45 0c.69 0 1.25.9 1.25 2s-.56 2-1.25 2-1.25-.9-1.25-2 .56-2 1.25-2m7.06 6.06c-1.02 1.77-2.92 2.86-4.96 2.86s-3.93-1.1-4.96-2.86a.76.76 0 0 1 .27-1.03.76.76 0 0 1 1.03.27C5.1 10.68 6.5 11.49 8 11.49s2.9-.81 3.66-2.12a.752.752 0 1 1 1.3.76"/></symbol><symbol id="s24" viewBox="0 0 24 24"><path d="M12 0C5.38 0 0 5.38 0 12s5.38 12 12 12 12-5.38 12-12S18.62 0 12 0m3.6 5.97c1.06 0 1.92 1.37 1.92 3.07s-.86 3.07-1.92 3.07-1.92-1.37-1.92-3.07.86-3.07 1.92-3.07m-6.83 0c1.06 0 1.92 1.37 1.92 3.07s-.86 3.07-1.92 3.07-1.92-1.37-1.92-3.07.86-3.07 1.92-3.07m10.59 9.16c-1.52 2.62-4.34 4.25-7.36 4.25s-5.84-1.63-7.36-4.25c-.24-.42-.1-.95.32-1.2.42-.24.95-.1 1.2.32 1.21 2.09 3.45 3.38 5.85 3.38s4.64-1.3 5.85-3.38a.88.88 0 0 1 1.2-.32c.42.24.56.78.32 1.2Z"/></symbol><symbol id="s32" viewBox="0 0 32 32"><path d="M16 0C7.18 0 0 7.18 0 16s7.18 16 16 16 16-7.18 16-16S24.82 0 16 0m4.86 7.87c1.43 0 2.59 1.85 2.59 4.14s-1.16 4.14-2.59 4.14-2.59-1.85-2.59-4.14 1.16-4.14 2.59-4.14m-9.21 0c1.43 0 2.59 1.85 2.59 4.14s-1.16 4.14-2.59 4.14-2.59-1.85-2.59-4.14 1.16-4.14 2.59-4.14m14.13 12.26c-2.02 3.49-5.77 5.65-9.78 5.65s-7.76-2.17-9.78-5.65c-.28-.48-.11-1.09.36-1.37.48-.28 1.09-.11 1.37.36 1.66 2.87 4.75 4.65 8.05 4.65s6.39-1.78 8.05-4.65c.28-.48.89-.64 1.37-.36s.64.89.36 1.37"/></symbol><symbol id="s40" viewBox="0 0 40 40"><path d="M20-.06c-11.03 0-20 8.98-20 20s8.97 20 20 20 20-8.97 20-20-8.97-20-20-20m6.11 9.78c1.8 0 3.25 2.33 3.25 5.2s-1.46 5.2-3.25 5.2-3.25-2.33-3.25-5.2 1.46-5.2 3.25-5.2m-11.58 0c1.8 0 3.25 2.33 3.25 5.2s-1.46 5.2-3.25 5.2-3.25-2.33-3.25-5.2 1.46-5.2 3.25-5.2m17.65 15.35C29.67 29.41 25 32.11 20 32.11s-9.66-2.7-12.18-7.04a1.126 1.126 0 1 1 1.95-1.13c2.11 3.65 6.03 5.91 10.23 5.91s8.12-2.27 10.23-5.91a1.126 1.126 0 1 1 1.95 1.13"/></symbol><symbol id="s48" viewBox="0 0 48 48"><path d="M24 0C10.77 0 0 10.77 0 24s10.77 24 24 24 24-10.77 24-24S37.23 0 24 0m7.37 11.68c2.16 0 3.92 2.81 3.92 6.27s-1.76 6.27-3.92 6.27-3.92-2.81-3.92-6.27 1.76-6.27 3.92-6.27m-13.97 0c2.16 0 3.92 2.81 3.92 6.27s-1.76 6.27-3.92 6.27-3.92-2.81-3.92-6.27 1.76-6.27 3.92-6.27m21.19 18.45c-3.01 5.2-8.6 8.43-14.59 8.43s-11.58-3.23-14.59-8.43c-.35-.6-.14-1.36.46-1.71s1.36-.14 1.71.46c2.57 4.43 7.33 7.18 12.43 7.18s9.86-2.75 12.43-7.18c.35-.6 1.11-.8 1.71-.46.6.35.8 1.11.46 1.71Z"/></symbol><symbol id="s64" viewBox="0 0 64 64"><path d="M32 0C14.36 0 0 14.35 0 32s14.36 32 32 32 32-14.36 32-32S49.64 0 32 0m9.92 15.4c2.92 0 5.28 3.78 5.28 8.45s-2.36 8.45-5.28 8.45-5.28-3.78-5.28-8.45S39 15.4 41.92 15.4m-18.8 0c2.92 0 5.28 3.78 5.28 8.45s-2.36 8.45-5.28 8.45-5.28-3.78-5.28-8.45 2.36-8.45 5.28-8.45m28.26 24.7c-4 6.91-11.43 11.2-19.38 11.2s-15.38-4.29-19.38-11.2c-.38-.66-.16-1.5.5-1.88s1.5-.16 1.88.5c3.51 6.06 10.03 9.83 17 9.83s13.49-3.77 17-9.83c.38-.66 1.22-.88 1.88-.5s.88 1.22.5 1.88"/></symbol><use style="display: var(--s16, none)" href="#s16"/><use style="display: var(--s24, none)" href="#s24"/><use style="display: var(--s32, none)" href="#s32"/><use style="display: var(--s40, none)" href="#s40"/><use style="display: var(--s48, none)" href="#s48"/><use style="display: var(--s64, none)" href="#s64"/></symbol></defs><style>@media (max-width: 23.98px) {g{--s16:block;}}@media (min-width: 24px) and (max-width: 31.98px) {g{--s24:block;}}@media (min-width: 32px) and (max-width: 39.98px) {g{--s32:block;}}@media (min-width: 40px) and (max-width: 47.98px) {g{--s40:block;}}@media (min-width: 48px) and (max-width: 63.98px) {g{--s48:block;}}@media (min-width: 64px) {g{--s64:block;}}</style><g><use href="#i-emotesmiley-solid"/></g></svg>