<svg xmlns="http://www.w3.org/2000/svg"><defs><symbol id="i-emoteneutry"><symbol id="s16" viewBox="0 0 16 16"><path d="M8 0C3.59 0 0 3.59 0 8s3.59 8 8 8 8-3.59 8-8-3.59-8-8-8m0 14.5c-3.58 0-6.5-2.92-6.5-6.5S4.42 1.5 8 1.5s6.5 2.92 6.5 6.5-2.92 6.5-6.5 6.5m1.1-8.43c0-1.1.56-2 1.25-2s1.25.9 1.25 2-.56 2-1.25 2-1.25-.9-1.25-2m-4.45 0c0-1.1.56-2 1.25-2s1.25.9 1.25 2-.56 2-1.25 2-1.25-.9-1.25-2m7.41 4.69c0 .41-.34.75-.75.75H4.69c-.41 0-.75-.34-.75-.75s.34-.75.75-.75h6.62c.41 0 .75.34.75.75"/></symbol><symbol id="s24" viewBox="0 0 24 24"><path d="M12 0C5.38 0 0 5.38 0 12s5.38 12 12 12 12-5.38 12-12S18.62 0 12 0m0 22.25c-5.65 0-10.25-4.6-10.25-10.25S6.35 1.75 12 1.75 22.25 6.35 22.25 12 17.65 22.25 12 22.25m1.69-13.21c0-1.7.86-3.07 1.92-3.07s1.92 1.37 1.92 3.07-.86 3.07-1.92 3.07-1.92-1.37-1.92-3.07m-6.84 0c0-1.7.86-3.07 1.92-3.07s1.92 1.37 1.92 3.07-.86 3.07-1.92 3.07-1.92-1.37-1.92-3.07m11.14 7.15c0 .48-.39.88-.88.88H6.89c-.48 0-.88-.39-.88-.88s.39-.88.88-.88h10.22c.48 0 .88.39.88.88"/></symbol><symbol id="s32" viewBox="0 0 32 32"><path d="M16 0C7.18 0 0 7.18 0 16s7.18 16 16 16 16-7.18 16-16S24.82 0 16 0m0 30C8.28 30 2 23.72 2 16S8.28 2 16 2s14 6.28 14 14-6.28 14-14 14m2.27-17.99c0-2.29 1.16-4.14 2.59-4.14s2.59 1.85 2.59 4.14-1.16 4.14-2.59 4.14-2.59-1.85-2.59-4.14m-9.21 0c0-2.29 1.16-4.14 2.59-4.14s2.59 1.85 2.59 4.14-1.16 4.14-2.59 4.14-2.59-1.85-2.59-4.14m14.86 9.62c0 .55-.45 1-1 1H9.09c-.55 0-1-.45-1-1s.45-1 1-1h13.83c.55 0 1 .45 1 1"/></symbol><symbol id="s40" viewBox="0 0 40 40"><path d="M20 0C8.97 0 0 8.97 0 20s8.97 20 20 20 20-8.97 20-20S31.03 0 20 0m0 37.75c-9.79 0-17.75-7.96-17.75-17.75S10.21 2.25 20 2.25 37.75 10.21 37.75 20 29.79 37.75 20 37.75m2.86-22.78c0-2.88 1.46-5.21 3.25-5.21s3.25 2.33 3.25 5.21-1.46 5.21-3.25 5.21-3.25-2.33-3.25-5.21m-11.59 0c0-2.88 1.46-5.21 3.25-5.21s3.25 2.33 3.25 5.21-1.46 5.21-3.25 5.21-3.25-2.33-3.25-5.21m19.07 11.6c0 .62-.5 1.13-1.13 1.13H10.79c-.62 0-1.13-.5-1.13-1.13s.5-1.13 1.13-1.13h18.43c.62 0 1.13.5 1.13 1.13Z"/></symbol><symbol id="s48" viewBox="0 0 48 48"><path d="M24 0C10.77 0 0 10.77 0 24s10.77 24 24 24 24-10.77 24-24S37.23 0 24 0m0 45.5C12.15 45.5 2.5 35.86 2.5 24S12.15 2.51 24 2.51s21.5 9.64 21.5 21.5-9.64 21.5-21.5 21.5Zm3.45-27.55c0-3.47 1.76-6.28 3.92-6.28s3.92 2.81 3.92 6.28-1.76 6.28-3.92 6.28-3.92-2.81-3.92-6.28m-13.98 0c0-3.47 1.76-6.28 3.92-6.28s3.92 2.81 3.92 6.28-1.76 6.28-3.92 6.28-3.92-2.81-3.92-6.28m22.8 14.07c0 .69-.56 1.25-1.25 1.25H12.98a1.25 1.25 0 0 1 0-2.5h22.04c.69 0 1.25.56 1.25 1.25"/></symbol><symbol id="s64" viewBox="0 0 64 64"><path d="M32 0C14.36 0 0 14.35 0 32s14.36 32 32 32 32-14.36 32-32S49.64 0 32 0m0 61.25C15.87 61.25 2.75 48.13 2.75 32S15.87 2.75 32 2.75 61.25 15.87 61.25 32 48.13 61.25 32 61.25m4.64-37.41c0-4.67 2.36-8.45 5.28-8.45s5.28 3.78 5.28 8.45-2.36 8.45-5.28 8.45-5.28-3.78-5.28-8.45m-18.81 0c0-4.67 2.36-8.45 5.28-8.45s5.28 3.78 5.28 8.45-2.36 8.45-5.28 8.45-5.28-3.78-5.28-8.45m30.74 18.57c0 .76-.62 1.38-1.38 1.38h-29.4c-.76 0-1.38-.62-1.38-1.38s.62-1.38 1.38-1.38h29.4c.76 0 1.38.62 1.38 1.38"/></symbol><use style="display: var(--s16, none)" href="#s16"/><use style="display: var(--s24, none)" href="#s24"/><use style="display: var(--s32, none)" href="#s32"/><use style="display: var(--s40, none)" href="#s40"/><use style="display: var(--s48, none)" href="#s48"/><use style="display: var(--s64, none)" href="#s64"/></symbol></defs><style>@media (max-width: 23.98px) {g{--s16:block;}}@media (min-width: 24px) and (max-width: 31.98px) {g{--s24:block;}}@media (min-width: 32px) and (max-width: 39.98px) {g{--s32:block;}}@media (min-width: 40px) and (max-width: 47.98px) {g{--s40:block;}}@media (min-width: 48px) and (max-width: 63.98px) {g{--s48:block;}}@media (min-width: 64px) {g{--s64:block;}}</style><g><use href="#i-emoteneutry"/></g></svg>