<svg xmlns="http://www.w3.org/2000/svg"><defs><symbol id="i-error"><symbol id="s16" viewBox="0 0 16 16"><path d="M8 0C3.59 0 0 3.59 0 8s3.59 8 8 8 8-3.59 8-8-3.59-8-8-8m0 14.5c-3.58 0-6.5-2.92-6.5-6.5S4.42 1.5 8 1.5s6.5 2.92 6.5 6.5-2.92 6.5-6.5 6.5m3.03-8.47L9.06 8l1.97 1.97c.29.29.29.77 0 1.06-.15.15-.34.22-.53.22s-.38-.07-.53-.22L8 9.06l-1.97 1.97c-.15.15-.34.22-.53.22s-.38-.07-.53-.22a.754.754 0 0 1 0-1.06L6.94 8 4.97 6.03c-.29-.29-.29-.77 0-1.06s.77-.29 1.06 0L8 6.94l1.97-1.97c.29-.29.77-.29 1.06 0s.29.77 0 1.06"/></symbol><symbol id="s24" viewBox="0 0 24 24"><path d="M12 0C5.38 0 0 5.39 0 12s5.38 12 12 12 12-5.38 12-12S18.62 0 12 0m0 22.25c-5.65 0-10.25-4.6-10.25-10.25S6.35 1.75 12 1.75 22.25 6.35 22.25 12 17.65 22.25 12 22.25m4.46-13.47L13.24 12l3.22 3.22a.881.881 0 0 1-.62 1.5c-.22 0-.45-.08-.62-.26L12 13.24l-3.22 3.22c-.17.17-.4.26-.62.26s-.45-.08-.62-.26a.88.88 0 0 1 0-1.24L10.76 12 7.54 8.78a.88.88 0 0 1 0-1.24c.34-.34.9-.34 1.24 0L12 10.76l3.22-3.22c.34-.34.9-.34 1.24 0s.34.9 0 1.24"/></symbol><symbol id="s32" viewBox="0 0 32 32"><path d="M16 0C7.18 0 0 7.18 0 16s7.18 16 16 16 16-7.18 16-16S24.82 0 16 0m0 30C8.28 30 2 23.72 2 16S8.28 2 16 2s14 6.28 14 14-6.28 14-14 14m5.88-18.47L17.41 16l4.47 4.47a.996.996 0 0 1-.71 1.7c-.26 0-.51-.1-.71-.29l-4.47-4.47-4.47 4.47c-.2.2-.45.29-.71.29s-.51-.1-.71-.29a.996.996 0 0 1 0-1.41L14.57 16l-4.47-4.47a.996.996 0 1 1 1.41-1.41l4.47 4.47 4.47-4.47a.996.996 0 1 1 1.41 1.41Z"/></symbol><symbol id="s40" viewBox="0 0 40 40"><path d="M20 0C8.97 0 0 8.97 0 20s8.97 20 20 20 20-8.97 20-20S31.03 0 20 0m0 37.75c-9.79 0-17.75-7.96-17.75-17.75S10.21 2.25 20 2.25 37.75 10.21 37.75 20 29.79 37.75 20 37.75m7.3-23.46L21.59 20l5.71 5.71a1.123 1.123 0 0 1-.8 1.92c-.29 0-.58-.11-.8-.33l-5.71-5.71-5.71 5.71c-.22.22-.51.33-.8.33s-.58-.11-.8-.33c-.44-.44-.44-1.15 0-1.59L18.39 20l-5.71-5.71c-.44-.44-.44-1.15 0-1.59s1.15-.44 1.59 0l5.71 5.71 5.71-5.71c.44-.44 1.15-.44 1.59 0s.44 1.15 0 1.59Z"/></symbol><symbol id="s48" viewBox="0 0 48 48"><path d="M23.98 0c-13.23 0-24 10.77-24 24.01s10.77 24 24 24 24-10.77 24-24S37.22 0 23.98 0m0 45.5c-11.85 0-21.5-9.64-21.5-21.5s9.65-21.49 21.5-21.49 21.5 9.64 21.5 21.5-9.64 21.5-21.5 21.5Zm8.73-28.45-6.96 6.96 6.96 6.96c.49.49.49 1.28 0 1.77-.24.24-.56.37-.88.37s-.64-.12-.88-.37l-6.96-6.96-6.96 6.96c-.24.24-.56.37-.88.37s-.64-.12-.88-.37a1.25 1.25 0 0 1 0-1.77l6.96-6.96-6.96-6.96c-.49-.49-.49-1.28 0-1.77s1.28-.49 1.77 0L24 22.24l6.96-6.96c.49-.49 1.28-.49 1.77 0s.49 1.28 0 1.77Z"/></symbol><symbol id="s64" viewBox="0 0 64 64"><path d="M31.98.02c-17.64 0-32 14.36-32 32s14.36 32 32 32 32-14.36 32-32-14.36-32-32-32m0 61.25c-16.13 0-29.25-13.12-29.25-29.25S15.85 2.77 31.98 2.77s29.25 13.12 29.25 29.25-13.12 29.25-29.25 29.25m11.53-38.84-9.59 9.59 9.59 9.59c.54.54.54 1.41 0 1.94-.27.27-.62.4-.97.4s-.7-.13-.97-.4l-9.59-9.59-9.59 9.59c-.27.27-.62.4-.97.4s-.7-.13-.97-.4c-.54-.54-.54-1.41 0-1.94l9.59-9.59-9.59-9.59c-.54-.54-.54-1.41 0-1.94.54-.54 1.41-.54 1.94 0l9.59 9.59 9.59-9.59c.54-.54 1.41-.54 1.94 0 .54.54.54 1.41 0 1.94"/></symbol><use style="display: var(--s16, none)" href="#s16"/><use style="display: var(--s24, none)" href="#s24"/><use style="display: var(--s32, none)" href="#s32"/><use style="display: var(--s40, none)" href="#s40"/><use style="display: var(--s48, none)" href="#s48"/><use style="display: var(--s64, none)" href="#s64"/></symbol></defs><style>@media (max-width: 23.98px) {g{--s16:block;}}@media (min-width: 24px) and (max-width: 31.98px) {g{--s24:block;}}@media (min-width: 32px) and (max-width: 39.98px) {g{--s32:block;}}@media (min-width: 40px) and (max-width: 47.98px) {g{--s40:block;}}@media (min-width: 48px) and (max-width: 63.98px) {g{--s48:block;}}@media (min-width: 64px) {g{--s64:block;}}</style><g><use href="#i-error"/></g></svg>