<svg xmlns="http://www.w3.org/2000/svg"><defs><symbol id="i-error-solid"><symbol id="s16" viewBox="0 0 16 16"><path d="M8 .02c-4.41 0-8 3.59-8 8s3.59 8 8 8 8-3.59 8-8-3.59-8-8-8m3.03 9.97c.29.29.29.77 0 1.06-.15.15-.34.22-.53.22s-.38-.07-.53-.22L8 9.08l-1.97 1.97c-.15.15-.34.22-.53.22s-.38-.07-.53-.22a.754.754 0 0 1 0-1.06l1.97-1.97-1.97-1.97c-.29-.29-.29-.77 0-1.06s.77-.29 1.06 0L8 6.96l1.97-1.97c.29-.29.77-.29 1.06 0s.29.77 0 1.06L9.06 8.02z"/></symbol><symbol id="s24" viewBox="0 0 24 24"><path d="M12 .02c-6.62 0-12 5.39-12 12s5.38 12 12 12 12-5.38 12-12-5.39-12-12-12m4.46 15.22a.881.881 0 0 1-.62 1.5c-.22 0-.45-.08-.62-.26L12 13.26l-3.22 3.22c-.17.17-.4.26-.62.26s-.45-.08-.62-.26a.88.88 0 0 1 0-1.24l3.22-3.22L7.54 8.8a.88.88 0 0 1 0-1.24c.34-.34.9-.34 1.24 0L12 10.78l3.22-3.22c.34-.34.9-.34 1.24 0s.34.9 0 1.24l-3.22 3.22z"/></symbol><symbol id="s32" viewBox="0 0 32 32"><path d="M16 0C7.17 0 0 7.19 0 16.01s7.18 16 16 16 16-7.18 16-16S24.82 0 16 0m5.88 20.47a.996.996 0 0 1-.71 1.7c-.26 0-.51-.1-.71-.29L16 17.42l-4.46 4.46c-.2.2-.45.29-.71.29s-.51-.1-.71-.29a.996.996 0 0 1 0-1.41l4.46-4.46-4.46-4.46a.996.996 0 1 1 1.41-1.41l4.46 4.46 4.46-4.46a.996.996 0 1 1 1.41 1.41l-4.46 4.46 4.46 4.46Z"/></symbol><symbol id="s40" viewBox="0 0 40 40"><path d="M20-.08c-11.03 0-20 8.97-20 20s8.97 20 20 20 20-8.97 20-20-8.97-20-20-20m7.3 25.71a1.123 1.123 0 0 1-.8 1.92c-.29 0-.58-.11-.8-.33l-5.71-5.71-5.71 5.71c-.22.22-.51.33-.8.33s-.58-.11-.8-.33c-.44-.44-.44-1.15 0-1.59l5.71-5.71-5.71-5.71c-.44-.44-.44-1.15 0-1.59s1.15-.44 1.59 0l5.71 5.71 5.71-5.71c.44-.44 1.15-.44 1.59 0s.44 1.15 0 1.59l-5.71 5.71 5.71 5.71Z"/></symbol><symbol id="s48" viewBox="0 0 48 48"><path d="M23.98.04c-13.23 0-24 10.76-24 24s10.77 24 24 24 24-10.77 24-24-10.76-24-24-24m8.72 30.95c.49.49.49 1.28 0 1.77-.24.24-.56.37-.88.37s-.64-.12-.88-.37l-6.95-6.95-6.95 6.95c-.24.24-.56.37-.88.37s-.64-.12-.88-.37a1.25 1.25 0 0 1 0-1.77l6.95-6.95-6.95-6.95c-.49-.49-.49-1.28 0-1.77s1.28-.49 1.77 0L24 22.27l6.95-6.95c.49-.49 1.28-.49 1.77 0s.49 1.28 0 1.77l-6.95 6.95 6.95 6.95Z"/></symbol><symbol id="s64" viewBox="0 0 64 64"><path d="M31.98.04c-17.65 0-32 14.36-32 32s14.36 32 32 32 32-14.36 32-32-14.36-32-32-32m11.53 41.59a1.376 1.376 0 0 1-1.94 1.95l-9.59-9.59-9.59 9.59c-.27.27-.62.4-.97.4s-.7-.13-.97-.4c-.54-.54-.54-1.41 0-1.95l9.59-9.59-9.59-9.59c-.54-.54-.54-1.41 0-1.95s1.41-.54 1.95 0l9.59 9.59 9.59-9.59c.54-.54 1.41-.54 1.95 0s.54 1.41 0 1.95l-9.59 9.59 9.59 9.59Z"/></symbol><use style="display: var(--s16, none)" href="#s16"/><use style="display: var(--s24, none)" href="#s24"/><use style="display: var(--s32, none)" href="#s32"/><use style="display: var(--s40, none)" href="#s40"/><use style="display: var(--s48, none)" href="#s48"/><use style="display: var(--s64, none)" href="#s64"/></symbol></defs><style>@media (max-width: 23.98px) {g{--s16:block;}}@media (min-width: 24px) and (max-width: 31.98px) {g{--s24:block;}}@media (min-width: 32px) and (max-width: 39.98px) {g{--s32:block;}}@media (min-width: 40px) and (max-width: 47.98px) {g{--s40:block;}}@media (min-width: 48px) and (max-width: 63.98px) {g{--s48:block;}}@media (min-width: 64px) {g{--s64:block;}}</style><g><use href="#i-error-solid"/></g></svg>