<svg xmlns="http://www.w3.org/2000/svg"><defs><symbol id="i-favoritedelete"><symbol id="s16" viewBox="0 0 16 16"><path d="m6.52 6.68-3.4.52 2.46 2.52L5 13.26l.89-.47.7 1.33-3.55 1.87.94-5.77L.01 6.16l5.49-.84L8 0l2.5 5.32 5.48.84-2.89 3.01-1.08-1.04.89-.93-3.41-.52-1.48-3.15-1.48 3.15Zm6.51 3.52a.754.754 0 0 0-1.06 0l-1.33 1.33-1.33-1.33c-.29-.29-.77-.29-1.06 0s-.29.77 0 1.06l1.33 1.33-1.33 1.33c-.29.29-.29.77 0 1.06.15.15.34.22.53.22s.38-.07.53-.22l1.33-1.33 1.33 1.33c.15.15.34.22.53.22s.38-.07.53-.22c.29-.29.29-.77 0-1.06l-1.33-1.33 1.33-1.33c.29-.29.29-.77 0-1.06"/></symbol><symbol id="s24" viewBox="0 0 24 24"><path d="m9.48 9.49-5.74.88 4.15 4.26-.98 5.99 1.92-1.01.81 1.55-5.03 2.65 1.4-8.58L.12 9.15 8.3 7.9 12 0l3.71 7.9 8.16 1.25-4.12 4.3-1.26-1.21 1.79-1.87-5.75-.88-2.52-5.36-2.52 5.36Zm10.17 5.98a.88.88 0 0 0-1.24 0l-2.29 2.29-2.29-2.29a.88.88 0 0 0-1.24 0c-.34.34-.34.9 0 1.24L14.88 19l-2.29 2.29a.881.881 0 0 0 .62 1.5c.22 0 .45-.08.62-.26l2.29-2.29 2.29 2.29c.17.17.4.26.62.26s.45-.08.62-.26c.34-.34.34-.9 0-1.24L17.36 19l2.29-2.29c.34-.34.34-.9 0-1.24"/></symbol><symbol id="s32" viewBox="0 0 32 32"><path d="m12.45 12.34-8.06 1.23 5.84 5.99-1.37 8.42 2.95-1.55.93 1.77-6.5 3.42L8.1 20.23.24 12.18l10.86-1.66L16 .06l4.91 10.46 10.84 1.66-5.35 5.58-1.44-1.38 2.69-2.8-8.08-1.23-3.55-7.57-3.55 7.57Zm13.82 8.43a.996.996 0 0 0-1.41 0l-3.25 3.25-3.25-3.25a.996.996 0 1 0-1.41 1.41l3.25 3.25-3.25 3.25a.996.996 0 0 0 .71 1.7c.26 0 .51-.1.71-.29l3.25-3.25 3.25 3.25c.2.2.45.29.71.29s.51-.1.71-.29a.996.996 0 0 0 0-1.41l-3.25-3.25 3.25-3.25a.996.996 0 0 0 0-1.41Z"/></symbol><symbol id="s40" viewBox="0 0 40 40"><path d="M15.42 15.05 5.04 16.64l7.51 7.7-1.77 10.84 3.97-2.09 1.05 1.99-7.97 4.2 2.31-14.18L.37 15.08l13.52-2.07L20 0l6.11 13.01 13.5 2.06-6.58 6.86-1.62-1.56 3.58-3.73-10.4-1.59-4.58-9.76-4.58 9.76Zm17.45 10.88c-.44-.44-1.15-.44-1.59 0l-4.21 4.21-4.21-4.21c-.44-.44-1.15-.44-1.59 0s-.44 1.15 0 1.59l4.21 4.21-4.21 4.21a1.123 1.123 0 0 0 .8 1.92c.29 0 .58-.11.8-.33l4.21-4.21 4.21 4.21c.22.22.51.33.8.33s.58-.11.8-.33c.44-.44.44-1.15 0-1.59l-4.21-4.21 4.21-4.21c.44-.44.44-1.15 0-1.59Z"/></symbol><symbol id="s48" viewBox="0 0 48 48"><path d="M18.39 17.89 5.67 19.83l9.21 9.44-2.17 13.29 5.01-2.64 1.16 2.21-9.45 4.97 2.77-17L.48 18.09l16.21-2.48L24.01.03l7.32 15.59 16.19 2.47-7.81 8.14-1.8-1.73 4.48-4.67-12.74-1.95-5.62-11.97-5.62 11.97Zm21.12 13.35a1.25 1.25 0 0 0-1.77 0l-5.17 5.17-5.17-5.17c-.49-.49-1.28-.49-1.77 0s-.49 1.28 0 1.77l5.17 5.17-5.17 5.17a1.25 1.25 0 0 0 0 1.77c.24.24.56.37.88.37s.64-.12.88-.37l5.17-5.17 5.17 5.17c.24.24.56.37.88.37s.64-.12.88-.37c.49-.49.49-1.28 0-1.77l-5.17-5.17 5.17-5.17c.49-.49.49-1.28 0-1.77Z"/></symbol><symbol id="s64" viewBox="0 0 64 64"><path d="m24.16 23.18-17.7 2.7 12.81 13.13-3.02 18.51 7.36-3.88 1.28 2.43-12.25 6.45 3.68-22.59L.75 23.97l21.54-3.29L32 0l9.71 20.68 21.51 3.29-10.17 10.6-1.98-1.9 6.5-6.78-17.73-2.71L32 6.47zM52.8 41.8c-.54-.54-1.41-.54-1.95 0l-7.24 7.24-7.24-7.24c-.54-.54-1.41-.54-1.95 0s-.54 1.41 0 1.95l7.24 7.24-7.24 7.24a1.376 1.376 0 0 0 1.94 1.95l7.24-7.24 7.24 7.24c.27.27.62.4.97.4s.7-.13.97-.4c.54-.54.54-1.41 0-1.95l-7.24-7.24 7.24-7.24c.54-.54.54-1.41 0-1.95Z"/></symbol><use style="display: var(--s16, none)" href="#s16"/><use style="display: var(--s24, none)" href="#s24"/><use style="display: var(--s32, none)" href="#s32"/><use style="display: var(--s40, none)" href="#s40"/><use style="display: var(--s48, none)" href="#s48"/><use style="display: var(--s64, none)" href="#s64"/></symbol></defs><style>@media (max-width: 23.98px) {g{--s16:block;}}@media (min-width: 24px) and (max-width: 31.98px) {g{--s24:block;}}@media (min-width: 32px) and (max-width: 39.98px) {g{--s32:block;}}@media (min-width: 40px) and (max-width: 47.98px) {g{--s40:block;}}@media (min-width: 48px) and (max-width: 63.98px) {g{--s48:block;}}@media (min-width: 64px) {g{--s64:block;}}</style><g><use href="#i-favoritedelete"/></g></svg>