<svg xmlns="http://www.w3.org/2000/svg"><defs><symbol id="i-favoritestar-solid"><symbol id="s16" viewBox="0 0 16 16"><path d="m12.02 10.21.95 5.79L8 13.26 3.03 16l.95-5.79L0 6.15l5.5-.84L8 0l2.5 5.31 5.5.84z"/></symbol><symbol id="s24" viewBox="0 0 24 24"><path d="m18.03 15.32 1.42 8.69L12 19.9l-7.45 4.11 1.42-8.69L0 9.21l8.26-1.26L12 0l3.74 7.95L24 9.21l-5.97 6.1Z"/></symbol><symbol id="s32" viewBox="0 0 32 32"><path d="m24.03 20.43 1.89 11.58L16 26.54l-9.92 5.47 1.89-11.58L0 12.29l11.02-1.68L16 .02l4.98 10.59L32 12.29l-7.97 8.15Z"/></symbol><symbol id="s40" viewBox="0 0 40 40"><path d="m30.03 25.49 2.37 14.48L20 33.13 7.6 39.97l2.37-14.48L0 15.3l13.78-2.1L20-.03l6.22 13.23L40 15.3z"/></symbol><symbol id="s48" viewBox="0 0 48 48"><path d="m36.04 30.65 2.84 17.37L24 39.81 9.12 48.02l2.84-17.37L0 18.42l16.54-2.52L24 .03l7.46 15.87L48 18.42 36.04 30.66Z"/></symbol><symbol id="s64" viewBox="0 0 64 64"><path d="m48.04 40.88 3.78 23.16L31.99 53.1 12.16 64.04l3.78-23.16L0 24.55l22.06-3.36L32 .04l9.94 21.14L64 24.54 48.04 40.87Z"/></symbol><use style="display: var(--s16, none)" href="#s16"/><use style="display: var(--s24, none)" href="#s24"/><use style="display: var(--s32, none)" href="#s32"/><use style="display: var(--s40, none)" href="#s40"/><use style="display: var(--s48, none)" href="#s48"/><use style="display: var(--s64, none)" href="#s64"/></symbol></defs><style>@media (max-width: 23.98px) {g{--s16:block;}}@media (min-width: 24px) and (max-width: 31.98px) {g{--s24:block;}}@media (min-width: 32px) and (max-width: 39.98px) {g{--s32:block;}}@media (min-width: 40px) and (max-width: 47.98px) {g{--s40:block;}}@media (min-width: 48px) and (max-width: 63.98px) {g{--s48:block;}}@media (min-width: 64px) {g{--s64:block;}}</style><g><use href="#i-favoritestar-solid"/></g></svg>