<svg xmlns="http://www.w3.org/2000/svg"><defs><symbol id="i-favoriteadd-solid"><symbol id="s16" viewBox="0 0 16 16"><path d="m6.21 12 .91 1.7-4.11 2.14.94-5.7-3.96-4.01 5.49-.83L8 0l2.52 5.31 5.46.82-3.27 3.36-1.67-1.58-2.24-.34-.81-1.7-.81 1.7-1.96.29L6.64 9.3 6.19 12Zm7.04-1.1h-1.33V9.75c0-.69-.57-1.25-1.26-1.25S9.4 9.06 9.4 9.75v1.15H8.2c-.7 0-1.26.56-1.26 1.25s.57 1.25 1.26 1.25h1.2v1.35c0 .69.57 1.25 1.26 1.25s1.26-.56 1.26-1.25V13.4h1.33c.7 0 1.26-.56 1.26-1.25s-.57-1.25-1.26-1.25"/></symbol><symbol id="s24" viewBox="0 0 24 24"><path d="m8.88 18.32 1.4 2.65-5.74 3.02 1.41-8.64L0 9.25l8.25-1.26 3.76-8L15.78 8 24 9.25l-4.62 4.8-2.17-2.08.61-.63-4.07-.62-1.73-3.67-1.73 3.67-4.04.62 2.93 3-.69 4.19.4-.21Zm10.4-1.38h-2.13v-2.13c0-.83-.67-1.5-1.5-1.5s-1.5.67-1.5 1.5v2.13h-2.13c-.83 0-1.5.67-1.5 1.5s.67 1.5 1.5 1.5h2.13v2.13c0 .83.67 1.5 1.5 1.5s1.5-.67 1.5-1.5v-2.13h2.13c.83 0 1.5-.67 1.5-1.5s-.67-1.5-1.5-1.5"/></symbol><symbol id="s32" viewBox="0 0 32 32"><path d="m11.81 25.01 1.63 3.1-7.39 3.88 1.89-11.53-7.96-8.14 11-1.68L16-.01l5.02 10.66 10.97 1.67-5.97 6.21-2.53-2.42 1.29-1.35-6.14-.94-2.63-5.6-2.63 5.6-6.1.93 4.42 4.52-1.04 6.34 1.16-.61Zm14.32-1.89h-3.31v-3.3c0-.97-.79-1.75-1.75-1.75s-1.75.78-1.75 1.75v3.3h-3.31c-.97 0-1.75.78-1.75 1.75s.79 1.75 1.75 1.75h3.31v3.3c0 .97.79 1.75 1.75 1.75s1.75-.78 1.75-1.75v-3.3h3.31c.97 0 1.75-.78 1.75-1.75s-.79-1.75-1.75-1.75"/></symbol><symbol id="s40" viewBox="0 0 40 40"><path d="m14.76 31.65 1.87 3.55-9.04 4.75 2.36-14.42L0 15.35l13.76-2.1L20.02-.06l6.26 13.31L40 15.34l-7.33 7.63-2.9-2.78 1.98-2.06-8.19-1.25-3.54-7.52-3.54 7.52-8.15 1.24 5.9 6.04-1.39 8.47 1.91-1Zm18.23-2.39h-4.48v-4.47c0-1.11-.9-2-2.01-2s-2.01.9-2.01 2v4.47h-4.48c-1.11 0-2.01.9-2.01 2s.9 2 2.01 2h4.48v4.47c0 1.11.9 2 2.01 2s2.01-.9 2.01-2v-4.47h4.48c1.11 0 2.01-.9 2.01-2s-.9-2-2.01-2"/></symbol><symbol id="s48" viewBox="0 0 48 48"><path d="m17.68 38.38 2.1 3.99-10.69 5.62 2.83-17.31L-.02 18.46l16.52-2.52L24.01-.02l7.51 15.96 16.47 2.51-8.69 9.04-3.26-3.12 2.67-2.78-10.25-1.56-4.44-9.45-4.44 9.45-10.21 1.56 7.4 7.56-1.74 10.62 2.67-1.4Zm22.15-2.89h-5.65v-5.64c0-1.24-1.01-2.25-2.26-2.25s-2.26 1.01-2.26 2.25v5.64h-5.65c-1.25 0-2.26 1.01-2.26 2.25s1.01 2.25 2.26 2.25h5.65v5.64c0 1.24 1.01 2.25 2.26 2.25s2.26-1.01 2.26-2.25v-5.64h5.65c1.25 0 2.26-1.01 2.26-2.25s-1.01-2.25-2.26-2.25"/></symbol><symbol id="s64" viewBox="0 0 64 64"><path d="m23.52 52.05 2.35 4.43-13.73 7.17 3.77-22.95L-.02 24.49l22.03-3.34L32 .02l9.99 21.13 21.99 3.33L52.75 36.1l-3.64-3.46 4.51-4.66-15.05-2.28L32 11.81 25.43 25.7l-15 2.27 10.86 11.05-2.55 15.53zm30.4-3.91h-8.44v-8.38c0-1.38-1.13-2.5-2.52-2.5s-2.52 1.12-2.52 2.5v8.38H32c-1.39 0-2.52 1.12-2.52 2.5s1.13 2.5 2.52 2.5h8.44v8.38c0 1.38 1.13 2.5 2.52 2.5s2.52-1.12 2.52-2.5v-8.38h8.44c1.39 0 2.52-1.12 2.52-2.5s-1.13-2.5-2.52-2.5"/></symbol><use style="display: var(--s16, none)" href="#s16"/><use style="display: var(--s24, none)" href="#s24"/><use style="display: var(--s32, none)" href="#s32"/><use style="display: var(--s40, none)" href="#s40"/><use style="display: var(--s48, none)" href="#s48"/><use style="display: var(--s64, none)" href="#s64"/></symbol></defs><style>@media (max-width: 23.98px) {g{--s16:block;}}@media (min-width: 24px) and (max-width: 31.98px) {g{--s24:block;}}@media (min-width: 32px) and (max-width: 39.98px) {g{--s32:block;}}@media (min-width: 40px) and (max-width: 47.98px) {g{--s40:block;}}@media (min-width: 48px) and (max-width: 63.98px) {g{--s48:block;}}@media (min-width: 64px) {g{--s64:block;}}</style><g><use href="#i-favoriteadd-solid"/></g></svg>