<svg xmlns="http://www.w3.org/2000/svg"><defs><symbol id="i-filter"><symbol id="s16" viewBox="0 0 16 16"><path d="M16.02 11.33c0-1.25-.85-2.3-2-2.63V0h-1.5v8.7c-1.15.33-2 1.38-2 2.63s.85 2.3 2 2.63v2.03h1.5v-2.03c1.15-.33 2-1.38 2-2.63m-2.76 1.25a1.25 1.25 0 1 1 0-2.5 1.25 1.25 0 0 1 0 2.5m-2.51-7.91c0-1.25-.85-2.3-2-2.63V0h-1.5v2.04c-1.15.33-2 1.38-2 2.63s.85 2.3 2 2.63V16h1.5V7.3c1.15-.33 2-1.38 2-2.63M7.99 5.92a1.25 1.25 0 1 1 0-2.5 1.25 1.25 0 0 1 0 2.5m-4.46 2.8V0h-1.5v8.72C.87 9.05.02 10.1.02 11.35s.85 2.3 2 2.63V16h1.5v-2.02c1.15-.33 2-1.38 2-2.63s-.85-2.3-2-2.63Zm-.76 3.88a1.25 1.25 0 1 1 0-2.5 1.25 1.25 0 0 1 0 2.5"/></symbol><symbol id="s24" viewBox="0 0 24 24"><path d="M24 17c0-1.83-1.29-3.37-3-3.77V0h-1.75v13.23c-1.72.4-3 1.93-3 3.77s1.29 3.37 3 3.77V24H21v-3.23c1.72-.4 3-1.93 3-3.77m-3.88 2.12c-1.17 0-2.13-.95-2.13-2.12s.95-2.12 2.13-2.12 2.13.95 2.13 2.12-.95 2.12-2.13 2.12M12.86 3.23V0h-1.75v3.23c-1.72.4-3 1.93-3 3.77s1.29 3.37 3 3.77V24h1.75V10.77c1.72-.4 3-1.93 3-3.77s-1.29-3.37-3-3.77m-.87 5.9c-1.17 0-2.13-.95-2.13-2.12s.95-2.12 2.13-2.12 2.13.95 2.13 2.12-.95 2.12-2.13 2.12m-7.23 4.13V0H3.01v13.26C1.29 13.66 0 15.19 0 17.03s1.29 3.37 3 3.77v3.21h1.75V20.8c1.72-.4 3-1.93 3-3.77s-1.29-3.37-3-3.77Zm-.88 5.89c-1.17 0-2.13-.95-2.13-2.12s.95-2.12 2.13-2.12 2.13.95 2.13 2.12-.95 2.12-2.13 2.12"/></symbol><symbol id="s32" viewBox="0 0 32 32"><path d="M32 22.67c0-2.41-1.72-4.43-4-4.9V0h-2v17.77a5 5 0 0 0 0 9.8v4.44h2v-4.44a5 5 0 0 0 4-4.9m-5 3c-1.65 0-3-1.35-3-3s1.35-3 3-3 3 1.35 3 3-1.35 3-3 3M16.99 4.44V0h-2v4.44a5 5 0 0 0 0 9.8v17.77h2V14.23a5 5 0 0 0 0-9.8Zm-1 7.89c-1.65 0-3-1.35-3-3s1.35-3 3-3 3 1.35 3 3-1.35 3-3 3M6 17.8V0H4v17.8c-2.28.47-4 2.49-4 4.9s1.72 4.43 4 4.9V32h2v-4.4a5 5 0 0 0 0-9.8m-1 7.9c-1.65 0-3-1.35-3-3s1.35-3 3-3 3 1.35 3 3-1.35 3-3 3"/></symbol><symbol id="s40" viewBox="0 0 40 40"><path d="M40 28.33c0-2.99-2.16-5.49-5-6.02V0h-2.25v22.31c-2.84.53-5 3.02-5 6.02s2.16 5.49 5 6.02V40H35v-5.65c2.84-.53 5-3.02 5-6.02m-6.13 3.88c-2.14 0-3.88-1.74-3.88-3.88s1.74-3.88 3.88-3.88 3.88 1.74 3.88 3.88-1.74 3.88-3.88 3.88M21.11 5.65V0h-2.25v5.65c-2.84.53-5 3.02-5 6.02s2.16 5.49 5 6.02v22.32h2.25V17.69c2.84-.53 5-3.02 5-6.02s-2.16-5.49-5-6.02m-1.13 9.89c-2.14 0-3.88-1.74-3.88-3.88s1.74-3.88 3.88-3.88 3.88 1.74 3.88 3.88-1.74 3.88-3.88 3.88M7.25 22.36V0H5v22.36c-2.84.53-5 3.03-5 6.02s2.16 5.49 5 6.02v5.61h2.25V34.4c2.84-.53 5-3.02 5-6.02s-2.16-5.49-5-6.02m-1.13 9.89c-2.14 0-3.88-1.74-3.88-3.88s1.74-3.88 3.88-3.88S10 26.23 10 28.37s-1.74 3.88-3.88 3.88"/></symbol><symbol id="s48" viewBox="0 0 48 48"><path d="M48 34c0-3.57-2.6-6.54-6-7.13V0h-2.5v26.86c-3.4.59-6 3.56-6 7.13s2.6 6.54 6 7.13v6.87H42v-6.87c3.4-.59 6-3.56 6-7.13Zm-7.25 4.75C38.13 38.75 36 36.62 36 34s2.13-4.75 4.75-4.75S45.5 31.38 45.5 34s-2.13 4.75-4.75 4.75M25.23 6.87V0h-2.5v6.87c-3.4.59-6 3.56-6 7.13s2.6 6.54 6 7.13v26.86h2.5V21.13c3.4-.59 6-3.56 6-7.13s-2.6-6.54-6-7.13m-1.25 11.89c-2.62 0-4.75-2.13-4.75-4.75s2.13-4.75 4.75-4.75 4.75 2.13 4.75 4.75-2.13 4.75-4.75 4.75M8.5 26.93V0H6v26.92c-3.4.6-6 3.57-6 7.14s2.6 6.54 6 7.13V48h2.5v-6.81c3.4-.59 6-3.56 6-7.13s-2.6-6.54-6-7.13M7.25 38.81c-2.62 0-4.75-2.13-4.75-4.75s2.13-4.75 4.75-4.75S12 31.44 12 34.06s-2.13 4.75-4.75 4.75"/></symbol><symbol id="s64" viewBox="0 0 64 64"><path d="M63.99 45.33c0-4.7-3.48-8.59-8-9.26V0h-2.75v36.07c-4.52.67-8 4.56-8 9.26s3.48 8.59 8 9.26V64h2.75v-9.41c4.52-.67 8-4.56 8-9.26m-9.38 6.63c-3.65 0-6.63-2.97-6.63-6.62s2.97-6.62 6.63-6.62 6.63 2.97 6.63 6.62-2.97 6.62-6.63 6.62M33.35 9.41V0H30.6v9.41c-4.52.67-8 4.56-8 9.26s3.48 8.59 8 9.26V64h2.75V27.93c4.52-.67 8-4.56 8-9.26s-3.48-8.59-8-9.26m-1.38 15.88c-3.65 0-6.63-2.97-6.63-6.62s2.97-6.62 6.63-6.62 6.63 2.97 6.63 6.62-2.97 6.62-6.63 6.62M10.74 36.14V0H7.99v36.14c-4.52.67-8 4.56-8 9.27s3.48 8.59 8 9.26V64h2.75v-9.33c4.52-.67 8-4.56 8-9.26s-3.48-8.59-8-9.26ZM9.37 52.03c-3.65 0-6.63-2.97-6.63-6.62s2.97-6.62 6.63-6.62S16 41.76 16 45.41s-2.97 6.62-6.63 6.62"/></symbol><use style="display: var(--s16, none)" href="#s16"/><use style="display: var(--s24, none)" href="#s24"/><use style="display: var(--s32, none)" href="#s32"/><use style="display: var(--s40, none)" href="#s40"/><use style="display: var(--s48, none)" href="#s48"/><use style="display: var(--s64, none)" href="#s64"/></symbol></defs><style>@media (max-width: 23.98px) {g{--s16:block;}}@media (min-width: 24px) and (max-width: 31.98px) {g{--s24:block;}}@media (min-width: 32px) and (max-width: 39.98px) {g{--s32:block;}}@media (min-width: 40px) and (max-width: 47.98px) {g{--s40:block;}}@media (min-width: 48px) and (max-width: 63.98px) {g{--s48:block;}}@media (min-width: 64px) {g{--s64:block;}}</style><g><use href="#i-filter"/></g></svg>