<svg xmlns="http://www.w3.org/2000/svg"><defs><symbol id="i-filter-solid"><symbol id="s16" viewBox="0 0 16 16"><path d="M16 11.33c0-1.35-.83-2.51-2-3V0h-2.5v8.33c-1.17.49-2 1.65-2 3s.83 2.51 2 3V16H14v-1.67c1.17-.49 2-1.65 2-3m-3.25.75c-.41 0-.75-.34-.75-.75s.34-.75.75-.75.75.34.75.75-.34.75-.75.75m-1.51-7.41c0-1.35-.83-2.51-2-3V0h-2.5v1.67c-1.17.49-2 1.65-2 3s.83 2.51 2 3V16h2.5V7.67c1.17-.49 2-1.65 2-3m-3.25-.75c.41 0 .75.34.75.75s-.34.75-.75.75-.75-.34-.75-.75.34-.75.75-.75M4.5 8.35V0H2v8.35c-1.17.49-2 1.65-2 3s.83 2.51 2 3V16h2.5v-1.65c1.17-.49 2-1.65 2-3s-.83-2.51-2-3M3.25 12.1c-.41 0-.75-.34-.75-.75s.34-.75.75-.75.75.34.75.75-.34.75-.75.75"/></symbol><symbol id="s24" viewBox="0 0 24 24"><path d="M24.01 17c0-1.95-1.26-3.6-3-4.22V0h-3v12.78c-1.74.62-3 2.27-3 4.22s1.26 3.6 3 4.22V24h3v-2.78c1.74-.62 3-2.27 3-4.22m-4.51 1.5c-.83 0-1.5-.67-1.5-1.5s.67-1.5 1.5-1.5 1.5.67 1.5 1.5-.67 1.5-1.5 1.5M16.5 7c0-1.95-1.26-3.6-3-4.22V0h-3v2.78c-1.74.62-3 2.27-3 4.22s1.26 3.6 3 4.22V24h3V11.22c1.74-.62 3-2.27 3-4.22m-4.51-1.5c.83 0 1.5.67 1.5 1.5s-.67 1.5-1.5 1.5-1.5-.67-1.5-1.5.67-1.5 1.5-1.5m-5.97 7.3V0h-3v12.8C1.27 13.42 0 15.07 0 17.03s1.26 3.6 3 4.22V24h3v-2.75c1.74-.62 3-2.27 3-4.22s-1.26-3.6-3-4.22Zm-1.51 5.73c-.83 0-1.5-.67-1.5-1.5s.67-1.5 1.5-1.5 1.5.67 1.5 1.5-.67 1.5-1.5 1.5"/></symbol><symbol id="s32" viewBox="0 0 32 32"><path d="M31.99 22.67c0-2.56-1.69-4.73-4.01-5.48V0h-3.51v17.19c-2.32.74-4.01 2.92-4.01 5.48s1.69 4.73 4.01 5.48v3.86h3.51v-3.86c2.32-.74 4.01-2.92 4.01-5.48m-5.76 2.25c-1.24 0-2.25-1.01-2.25-2.25s1.01-2.25 2.25-2.25 2.25 1.01 2.25 2.25-1.01 2.25-2.25 2.25M21.75 9.33c0-2.56-1.69-4.73-4.01-5.48V0h-3.51v3.86c-2.32.74-4.01 2.92-4.01 5.48s1.69 4.73 4.01 5.48v17.19h3.51v-17.2c2.32-.74 4.01-2.92 4.01-5.48m-5.76 2.25c-1.24 0-2.25-1.01-2.25-2.25s1.01-2.25 2.25-2.25 2.25 1.01 2.25 2.25-1.01 2.25-2.25 2.25M7.5 17.23V0H3.99v17.23c-2.32.74-4 2.91-4 5.47S1.68 27.43 4 28.18V32h3.51v-3.82c2.32-.74 4.01-2.92 4.01-5.48s-1.69-4.73-4.01-5.48Zm-1.75 7.72c-1.24 0-2.25-1.01-2.25-2.25s1.01-2.25 2.25-2.25S8 21.46 8 22.7s-1.01 2.25-2.25 2.25"/></symbol><symbol id="s40" viewBox="0 0 40 40"><path d="M40 28.34c0-3.16-2.11-5.84-5-6.71V0h-4v21.63c-2.89.86-5 3.54-5 6.71s2.11 5.84 5 6.71v4.96h4v-4.96c2.89-.86 5-3.54 5-6.71m-7 3c-1.65 0-3-1.35-3-3s1.35-3 3-3 3 1.35 3 3-1.35 3-3 3m-6.02-19.66c0-3.16-2.11-5.84-5-6.71V0h-4v4.96c-2.89.86-5 3.54-5 6.71s2.11 5.84 5 6.71v21.63h4V18.38c2.89-.86 5-3.54 5-6.71Zm-7 3c-1.65 0-3-1.35-3-3s1.35-3 3-3 3 1.35 3 3-1.35 3-3 3M9 21.68V0H5v21.67c-2.89.87-5 3.55-5 6.72s2.11 5.84 5 6.71v4.92h4V35.1c2.89-.86 5-3.54 5-6.71s-2.11-5.84-5-6.71m-2 9.71c-1.65 0-3-1.35-3-3s1.35-3 3-3 3 1.35 3 3-1.35 3-3 3"/></symbol><symbol id="s48" viewBox="0 0 48 48"><path d="M47.99 34c0-3.77-2.55-6.95-6.01-7.93V0h-4.51v26.07c-3.46.98-6.01 4.16-6.01 7.93s2.55 6.95 6.01 7.93V48h4.51v-6.07c3.46-.98 6.01-4.16 6.01-7.93m-8.26 3.75A3.76 3.76 0 0 1 35.97 34a3.76 3.76 0 0 1 7.52 0 3.76 3.76 0 0 1-3.76 3.75M32.24 14c0-3.77-2.55-6.95-6.01-7.93V0h-4.51v6.07c-3.46.98-6.01 4.16-6.01 7.93s2.55 6.95 6.01 7.93V48h4.51V21.93c3.46-.98 6.01-4.16 6.01-7.93m-8.26 3.75A3.76 3.76 0 0 1 20.22 14a3.76 3.76 0 0 1 7.52 0 3.76 3.76 0 0 1-3.76 3.75m-13.47 8.37V0H6v26.12c-3.46.99-6 4.17-6 7.93S2.55 41 6.01 41.98V48h4.51v-6.02c3.46-.98 6.01-4.16 6.01-7.93s-2.55-6.95-6.01-7.93ZM8.26 37.8a3.76 3.76 0 0 1-3.76-3.75 3.76 3.76 0 0 1 7.52 0 3.76 3.76 0 0 1-3.76 3.75"/></symbol><symbol id="s64" viewBox="0 0 64 64"><path d="M64.02 45.33c0-4.93-3.41-9.06-8-10.19V0h-5v35.14c-4.58 1.13-8 5.26-8 10.19s3.41 9.06 8 10.19V64h5v-8.48c4.58-1.13 8-5.26 8-10.19m-10.49 5.5c-3.03 0-5.5-2.47-5.5-5.5s2.47-5.5 5.5-5.5 5.5 2.47 5.5 5.5-2.47 5.5-5.5 5.5M34.47 8.48V0h-5v8.48c-4.58 1.13-8 5.26-8 10.19s3.41 9.06 8 10.19V64h5V28.86c4.58-1.13 8-5.26 8-10.19s-3.41-9.06-8-10.19m-2.5 15.69c-3.03 0-5.5-2.47-5.5-5.5s2.47-5.5 5.5-5.5 5.5 2.47 5.5 5.5-2.47 5.5-5.5 5.5M13.02 35.22V0h-5v35.22c-4.58 1.12-8 5.26-8 10.19s3.41 9.06 8 10.19v8.41h5V55.6c4.58-1.13 8-5.26 8-10.19s-3.41-9.06-8-10.19m-2.5 15.69c-3.03 0-5.5-2.47-5.5-5.5s2.47-5.5 5.5-5.5 5.5 2.47 5.5 5.5-2.47 5.5-5.5 5.5"/></symbol><use style="display: var(--s16, none)" href="#s16"/><use style="display: var(--s24, none)" href="#s24"/><use style="display: var(--s32, none)" href="#s32"/><use style="display: var(--s40, none)" href="#s40"/><use style="display: var(--s48, none)" href="#s48"/><use style="display: var(--s64, none)" href="#s64"/></symbol></defs><style>@media (max-width: 23.98px) {g{--s16:block;}}@media (min-width: 24px) and (max-width: 31.98px) {g{--s24:block;}}@media (min-width: 32px) and (max-width: 39.98px) {g{--s32:block;}}@media (min-width: 40px) and (max-width: 47.98px) {g{--s40:block;}}@media (min-width: 48px) and (max-width: 63.98px) {g{--s48:block;}}@media (min-width: 64px) {g{--s64:block;}}</style><g><use href="#i-filter-solid"/></g></svg>