<svg xmlns="http://www.w3.org/2000/svg"><defs><symbol id="i-flag-solid"><symbol id="s16" viewBox="0 0 16 16"><path d="m15.93.46-2.37.98s-2.09.84-4.16 0C7.1.5 5.08.95 4.14 1.26V.51c0-.29-.22-.51-.5-.51H2.45c-.28 0-.5.22-.5.5V16h2.19v-5.06l.59-.31s1.96-1.01 3.58-.03c2.8 1.69 6.3.13 6.45.07l1.04-.47-1.43-4.15zM9.6 8.45c-.98-.59-1.99-.79-2.89-.79-.47 0-.92.05-1.31.13v-4.3c.68-.16 1.8-.25 3.05.26 1.39.57 2.74.63 3.82.52l-.52 1.85.9 2.61c-.86.2-2.08.31-3.04-.27Z"/></symbol><symbol id="s24" viewBox="0 0 24 24"><path d="M23.96.91 21.1 2.1s-3.44 1.39-6.86 0c-3.6-1.47-6.73-.69-8.04-.22V.52c0-.28-.22-.5-.5-.5H3.2c-.28 0-.5.22-.5.5v23.5h3.5V16l.71-.37s3.3-1.7 6.05-.04c4.18 2.52 9.44.18 9.67.08l1.24-.56-2.14-6.22L23.97.91Zm-9.45 12.11c-1.46-.88-2.95-1.17-4.3-1.17-.93 0-1.79.14-2.51.32V4.52c1.09-.3 3.11-.6 5.41.34 2.39.98 4.72.96 6.43.7l-.96 3.41 1.52 4.4c-1.42.39-3.76.75-5.59-.36Z"/></symbol><symbol id="s32" viewBox="0 0 32 32"><path d="m31.95 1.83-3.34 1.33s-5.04 1.96-10.1 0c-5.16-2.01-9.61-.84-11.29-.24V.5a.517.517 0 0 0-.51-.5h-3.5c-.28 0-.5.23-.5.5V32h4.5V21.45l.82-.41s4.91-2.42 9.04-.04c1.99 1.14 4.17 1.52 6.17 1.52 3.78 0 6.96-1.35 7.16-1.43l1.51-.65-3-8.3 3.03-10.3ZM18.82 17.95c-1.99-1.15-4.04-1.53-5.89-1.53-1.5 0-2.86.25-3.94.55V6.03c1.55-.44 4.71-.99 8.25.39 3.58 1.4 7.06 1.25 9.47.84l-1.47 4.98 2.22 6.15c-2.06.58-5.75 1.23-8.64-.44"/></symbol><symbol id="s40" viewBox="0 0 40 40"><path d="m36.23 14.94 3.74-12.69-3.82 1.52c-.06.03-6.46 2.52-12.94 0-6.5-2.53-12.12-1.03-14.19-.28V.44c0-.28-.22-.5-.5-.5H3.89c-.28 0-.5.22-.5.5v39.5h5.62V26.48l.91-.46c.06-.03 6.31-3.12 11.65-.05 2.48 1.43 5.2 1.9 7.7 1.9 4.74 0 8.72-1.69 8.98-1.8l1.73-.75-3.75-10.39ZM23.57 22.5c-2.49-1.43-5.04-1.91-7.35-1.91-2 0-3.8.36-5.2.76V7.04c1.94-.57 6.08-1.35 10.73.46 4.67 1.82 9.19 1.55 12.21.99l-1.94 6.57L34.89 23c-2.59.76-7.49 1.7-11.32-.51Z"/></symbol><symbol id="s48" viewBox="0 0 48 48"><path d="m43.52 17.91 4.43-15.02-4.3 1.71c-.08.03-7.86 3.06-15.75 0-7.87-3.06-14.64-1.2-17.07-.32V.49c0-.28-.22-.5-.5-.5H4.58c-.28 0-.5.22-.5.5v47.5h6.75V31.63l1.03-.52c.08-.04 7.69-3.8 14.23-.05 2.97 1.71 6.22 2.27 9.22 2.27 5.68 0 10.47-2.03 10.77-2.16l1.94-.84zm-15.2 9.24c-2.97-1.71-6.04-2.28-8.79-2.28-2.5 0-4.74.46-6.44.97V8.26c2.31-.7 7.43-1.72 13.19.52 5.74 2.23 11.3 1.84 14.92 1.14l-2.4 8.13 3.51 9.68c-3.1.93-9.21 2.16-13.97-.58Z"/></symbol><symbol id="s64" viewBox="0 0 64 64"><path d="m57.83 23.1 5.83-18.89-4.8 1.84c-.11.04-10.99 4.11-22.06 0-10.83-4.03-20.09-1.43-23.11-.34V.53c0-.28-.22-.5-.5-.5h-6.5c-.28 0-.5.22-.5.5v63.5h7.5V40.55l1.09-.53c.11-.05 10.84-5.15 20.11-.06 3.96 2.18 8.29 2.9 12.3 2.9 7.63 0 14.07-2.61 14.47-2.78l2.24-.93-6.07-16.06ZM37.29 35.58c-3.96-2.18-8.04-2.9-11.72-2.9s-7.04.74-9.39 1.47V10.14c3.06-.94 10.48-2.54 18.88.58 8.22 3.06 16.16 2.29 20.96 1.29l-3.47 11.26 4.9 12.98c-4.16 1.25-13.17 3.19-20.16-.66Z"/></symbol><use style="display: var(--s16, none)" href="#s16"/><use style="display: var(--s24, none)" href="#s24"/><use style="display: var(--s32, none)" href="#s32"/><use style="display: var(--s40, none)" href="#s40"/><use style="display: var(--s48, none)" href="#s48"/><use style="display: var(--s64, none)" href="#s64"/></symbol></defs><style>@media (max-width: 23.98px) {g{--s16:block;}}@media (min-width: 24px) and (max-width: 31.98px) {g{--s24:block;}}@media (min-width: 32px) and (max-width: 39.98px) {g{--s32:block;}}@media (min-width: 40px) and (max-width: 47.98px) {g{--s40:block;}}@media (min-width: 48px) and (max-width: 63.98px) {g{--s48:block;}}@media (min-width: 64px) {g{--s64:block;}}</style><g><use href="#i-flag-solid"/></g></svg>