<svg xmlns="http://www.w3.org/2000/svg"><defs><symbol id="i-flag-line"><symbol id="s16" viewBox="0 0 16 16"><path d="M14.59 5.89 16 .87l-1.43.6s-2.46 1-4.92 0a7.5 7.5 0 0 0-4.74-.33C4.85.49 4.33-.02 3.67-.02H2.32c-.69 0-1.25.56-1.25 1.25v14.75h3.85v-5.86c.73-.29 2.51-.82 4.08.13.95.57 1.99.76 2.95.76 1.81 0 3.34-.68 3.43-.72l.62-.28-1.42-4.12ZM3.42 14.48h-.85v-13h.85zm6.36-5.52c-.95-.57-1.93-.76-2.81-.76-.77 0-1.46.14-2 .31V2.67c.72-.23 2.29-.56 4.1.18 1.8.73 3.54.62 4.7.39l-.75 2.68 1.11 3.22c-.98.3-2.87.7-4.34-.19Z"/></symbol><symbol id="s24" viewBox="0 0 24 24"><path d="m21.57 8.68 2-7.1-1.67.7s-3.77 1.55-7.58 0c-3.04-1.24-5.72-.84-7.21-.42v-.47C7.11.64 6.49.03 5.73.03h-2.5c-.75 0-1.37.61-1.37 1.37v22.63h5.25v-9.2c1.05-.44 3.92-1.37 6.48.17 1.38.83 2.89 1.11 4.29 1.11 2.66 0 4.9-1 5.04-1.06l.72-.33-2.08-6.03ZM5.36 22.28H3.61V1.77h1.75v20.5Zm9.13-8.78c-1.38-.83-2.81-1.11-4.09-1.11s-2.43.28-3.24.55V3.69c1.04-.35 3.6-.97 6.5.21 2.86 1.17 5.63.88 7.3.49l-1.22 4.34 1.72 4.99c-1.41.47-4.54 1.23-6.96-.23Z"/></symbol><symbol id="s32" viewBox="0 0 32 32"><path d="m29.06 11.68 2.77-9.32-1.92.76c-.06.02-5.56 2.16-11.17 0-4.53-1.75-8.5-1.06-10.5-.47V1.49C8.24.67 7.57 0 6.74 0h-3.5c-.83 0-1.5.67-1.5 1.49V32h6.5V19.92c1.47-.59 5.84-2.01 9.72.2 1.94 1.11 4.07 1.48 6.04 1.48 3.76 0 6.95-1.34 7.15-1.42l.86-.37-2.96-8.13ZM6.24 30.02h-2.5V1.99h2.5zM18.96 18.4c-1.94-1.11-3.95-1.48-5.75-1.48-2.01 0-3.77.46-4.94.86V4.73c1.43-.48 5.32-1.47 9.75.24 4.31 1.67 8.47 1.12 10.78.56l-1.85 6.21 2.53 6.93c-1.96.64-6.79 1.86-10.52-.27"/></symbol><symbol id="s40" viewBox="0 0 40 40"><path d="m36.3 14.61 3.42-11.57-2.16.86c-.07.03-7.04 2.75-14.14 0a20.47 20.47 0 0 0-13.26-.55v-1.7c0-.9-.73-1.62-1.62-1.62H3.92c-.9 0-1.62.73-1.62 1.62v38.38h7.88v-15.1c1.81-.75 7.4-2.62 12.39.24 2.42 1.39 5.08 1.85 7.53 1.85 4.7 0 8.68-1.68 8.93-1.79l.97-.42zM7.92 37.79H4.54V2.28h3.38zm15.76-14.56c-2.42-1.39-4.92-1.85-7.17-1.85-2.61 0-4.89.62-6.34 1.14V5.72c1.74-.61 6.73-1.94 12.44.28 5.54 2.15 10.86 1.37 13.7.65l-2.38 8.04 3.21 8.86c-2.39.81-8.64 2.46-13.46-.31Z"/></symbol><symbol id="s48" viewBox="0 0 48 48"><path d="m43.57 17.47 4.07-13.78-2.4.96c-.08.03-8.51 3.34-17.1 0C21.11 1.92 15 3.13 12.1 4.03V1.75C12.1.79 11.32 0 10.35 0H4.6c-.96 0-1.75.79-1.75 1.75V48h9.25V29.85c2.12-.88 8.97-3.24 15.08.27 2.9 1.67 6.08 2.22 9.02 2.22 5.64 0 10.42-2.02 10.71-2.15l1.08-.47-4.43-12.25ZM9.6 45.5H5.35v-43H9.6zm18.83-17.55c-2.9-1.67-5.89-2.22-8.59-2.22-3.21 0-6.01.79-7.74 1.42V6.67c2.04-.72 8.15-2.4 15.13.31C34 9.61 40.5 8.59 43.84 7.71l-2.91 9.84 3.89 10.75c-2.82.96-10.49 3.05-16.4-.35Z"/></symbol><symbol id="s64" viewBox="0 0 64 64"><path d="m57.96 22.58 5.4-17.51-2.64 1.02c-.12.04-11.73 4.41-23.59 0-9.84-3.66-18.35-1.84-22.04-.67V1.83c0-1.03-.84-1.88-1.88-1.88h-6.5c-1.03 0-1.88.84-1.88 1.88v62.12h10.25v-25.4c2.76-1.12 12.44-4.43 21.06.31 3.89 2.14 8.16 2.85 12.12 2.85 7.6 0 14.04-2.61 14.45-2.78l1.23-.51-5.99-15.84ZM7.59 61.2V2.7h4.75v58.5zm29.88-24.75c-3.89-2.14-7.9-2.85-11.52-2.85-4.62 0-8.6 1.16-10.86 1.99V8.31c2.63-.92 11.22-3.32 21.08.35 9.52 3.54 18.64 1.95 22.96.8l-4.08 13.21 5.36 14.17c-3.65 1.23-14.55 4.23-22.94-.39"/></symbol><use style="display: var(--s16, none)" href="#s16"/><use style="display: var(--s24, none)" href="#s24"/><use style="display: var(--s32, none)" href="#s32"/><use style="display: var(--s40, none)" href="#s40"/><use style="display: var(--s48, none)" href="#s48"/><use style="display: var(--s64, none)" href="#s64"/></symbol></defs><style>@media (max-width: 23.98px) {g{--s16:block;}}@media (min-width: 24px) and (max-width: 31.98px) {g{--s24:block;}}@media (min-width: 32px) and (max-width: 39.98px) {g{--s32:block;}}@media (min-width: 40px) and (max-width: 47.98px) {g{--s40:block;}}@media (min-width: 48px) and (max-width: 63.98px) {g{--s48:block;}}@media (min-width: 64px) {g{--s64:block;}}</style><g><use href="#i-flag-line"/></g></svg>