<svg xmlns="http://www.w3.org/2000/svg"><defs><symbol id="i-flash"><symbol id="s16" viewBox="0 0 16 16"><path d="M6.88 16c-.08 0-.16-.01-.23-.04a.75.75 0 0 1-.52-.71v-5.3H2.99c-.28 0-.54-.16-.67-.41s-.1-.55.06-.78L8.5.31a.755.755 0 0 1 1.36.44v5.3H13c.28 0 .54.16.67.41s.1.55-.06.78l-6.12 8.45a.74.74 0 0 1-.61.31M4.46 8.45h2.42c.41 0 .75.34.75.75v3.73l3.9-5.38H9.11c-.41 0-.75-.34-.75-.75V3.07l-3.9 5.39Z"/></symbol><symbol id="s24" viewBox="0 0 24 24"><path d="M10.28 24a.88.88 0 0 1-.88-.87v-8.41H4.3a.88.88 0 0 1-.71-1.39L13 .36a.88.88 0 0 1 1.59.51v8.41h5.09a.88.88 0 0 1 .71 1.39L11 23.64c-.17.23-.43.36-.71.36ZM6.03 12.97h4.26c.48 0 .88.39.88.87v6.58l6.8-9.39h-4.26a.88.88 0 0 1-.88-.87V3.57l-6.8 9.39Z"/></symbol><symbol id="s32" viewBox="0 0 32 32"><path d="M13.69 31.99a1 1 0 0 1-1-1V19.48H5.65c-.38 0-.72-.21-.89-.55a1 1 0 0 1 .08-1.04L17.5.41c.25-.35.7-.5 1.12-.36a1 1 0 0 1 .69.95v11.51h7.04c.38 0 .72.21.89.55s.14.74-.08 1.04L14.5 31.59c-.19.26-.5.41-.81.41ZM7.61 17.48h6.09c.55 0 1 .45 1 1v9.43l9.7-13.4h-6.09c-.55 0-1-.45-1-1V4.08z"/></symbol><symbol id="s40" viewBox="0 0 40 40"><path d="M17.09 40c-.12 0-.23-.02-.35-.05-.46-.15-.78-.58-.78-1.07V24.26h-9a1.122 1.122 0 0 1-.91-1.78L21.99.47c.29-.39.79-.56 1.26-.41.46.15.78.58.78 1.07v14.62h9a1.122 1.122 0 0 1 .91 1.78l-15.93 22c-.22.3-.56.46-.91.46ZM9.17 22h7.92c.62 0 1.12.5 1.12 1.13V35.4l12.6-17.41h-7.92c-.62 0-1.12-.5-1.12-1.13V4.6L9.17 22.01Z"/></symbol><symbol id="s48" viewBox="0 0 48 48"><path d="M20.49 48.01q-.195 0-.39-.06c-.51-.17-.86-.65-.86-1.19V29.03H8.29c-.47 0-.9-.26-1.11-.68s-.17-.92.1-1.3L26.47.53c.32-.44.88-.62 1.4-.46.51.17.86.65.86 1.19v17.73h10.95c.47 0 .9.26 1.11.68s.17.92-.1 1.3L21.5 47.49c-.24.33-.62.52-1.01.52m-9.75-21.48h9.75c.69 0 1.25.56 1.25 1.25V42.9l15.49-21.41h-9.75c-.69 0-1.25-.56-1.25-1.25V5.12z"/></symbol><symbol id="s64" viewBox="0 0 64 64"><path d="M27.29 63.99c-.14 0-.28-.02-.42-.07-.57-.18-.95-.71-.95-1.31V38.44H10.87c-.52 0-.99-.29-1.22-.75s-.19-1.01.11-1.43L35.6.56c.35-.48.97-.69 1.54-.5.57.18.95.71.95 1.31v24.17h15.05c.52 0 .99.29 1.22.75s.19 1.01-.11 1.43l-25.84 35.7c-.26.36-.68.57-1.11.57Zm-13.73-28.3h13.73c.76 0 1.38.62 1.38 1.38v21.3l21.77-30.08H36.71c-.76 0-1.38-.62-1.38-1.38V5.61z"/></symbol><use style="display: var(--s16, none)" href="#s16"/><use style="display: var(--s24, none)" href="#s24"/><use style="display: var(--s32, none)" href="#s32"/><use style="display: var(--s40, none)" href="#s40"/><use style="display: var(--s48, none)" href="#s48"/><use style="display: var(--s64, none)" href="#s64"/></symbol></defs><style>@media (max-width: 23.98px) {g{--s16:block;}}@media (min-width: 24px) and (max-width: 31.98px) {g{--s24:block;}}@media (min-width: 32px) and (max-width: 39.98px) {g{--s32:block;}}@media (min-width: 40px) and (max-width: 47.98px) {g{--s40:block;}}@media (min-width: 48px) and (max-width: 63.98px) {g{--s48:block;}}@media (min-width: 64px) {g{--s64:block;}}</style><g><use href="#i-flash"/></g></svg>