<svg xmlns="http://www.w3.org/2000/svg"><defs><symbol id="i-flash-solid"><symbol id="s16" viewBox="0 0 16 16"><path d="m13.61 7.22-6.1 8.45a.74.74 0 0 1-.84.27.75.75 0 0 1-.52-.72v-5.3H3.02c-.28 0-.54-.16-.67-.41s-.1-.55.06-.78L8.51.29a.76.76 0 0 1 .84-.28c.31.1.52.39.52.72v5.3H13c.28 0 .54.16.67.41s.1.55-.06.78"/></symbol><symbol id="s24" viewBox="0 0 24 24"><path d="m20.39 10.66-9.4 12.97c-.17.23-.43.36-.71.36a.88.88 0 0 1-.88-.87v-8.41H4.3a.88.88 0 0 1-.71-1.39L12.99.36a.88.88 0 0 1 1.59.51v8.41h5.1a.88.88 0 0 1 .71 1.39Z"/></symbol><symbol id="s32" viewBox="0 0 32 32"><path d="M27.16 14.09 14.5 31.57c-.19.26-.5.41-.81.41a1 1 0 0 1-1-1V19.47H5.65c-.38 0-.72-.21-.89-.55a1 1 0 0 1 .08-1.04L17.5.4c.25-.35.7-.5 1.12-.36a1 1 0 0 1 .69.95V12.5h7.04c.38 0 .72.21.89.55s.14.74-.08 1.04"/></symbol><symbol id="s40" viewBox="0 0 40 40"><path d="M33.93 17.53 18 39.53c-.22.3-.56.46-.91.46-.12 0-.23-.02-.35-.05-.46-.15-.78-.58-.78-1.07V24.25h-9a1.122 1.122 0 0 1-.91-1.78L21.99.46c.29-.39.79-.56 1.26-.41.46.15.78.58.78 1.07v14.62h9a1.122 1.122 0 0 1 .91 1.78Z"/></symbol><symbol id="s48" viewBox="0 0 48 48"><path d="M40.7 20.97 21.51 47.49a1.26 1.26 0 0 1-1.4.46c-.51-.17-.86-.65-.86-1.19V29.03H8.3c-.47 0-.9-.26-1.11-.68s-.17-.92.1-1.3L26.47.52c.32-.44.88-.62 1.4-.46s.86.65.86 1.19v17.73h10.95c.47 0 .9.26 1.11.68s.17.92-.1 1.3Z"/></symbol><symbol id="s64" viewBox="0 0 64 64"><path d="m54.25 27.71-25.84 35.7c-.26.36-.68.57-1.11.57-.14 0-.28-.02-.42-.07-.57-.18-.95-.71-.95-1.31V38.43H10.88c-.52 0-.99-.29-1.22-.75s-.19-1.01.11-1.43L35.6.55c.35-.48.97-.69 1.54-.5.57.18.95.71.95 1.31v24.17h15.05c.52 0 .99.29 1.22.75s.19 1.01-.11 1.43"/></symbol><use style="display: var(--s16, none)" href="#s16"/><use style="display: var(--s24, none)" href="#s24"/><use style="display: var(--s32, none)" href="#s32"/><use style="display: var(--s40, none)" href="#s40"/><use style="display: var(--s48, none)" href="#s48"/><use style="display: var(--s64, none)" href="#s64"/></symbol></defs><style>@media (max-width: 23.98px) {g{--s16:block;}}@media (min-width: 24px) and (max-width: 31.98px) {g{--s24:block;}}@media (min-width: 32px) and (max-width: 39.98px) {g{--s32:block;}}@media (min-width: 40px) and (max-width: 47.98px) {g{--s40:block;}}@media (min-width: 48px) and (max-width: 63.98px) {g{--s48:block;}}@media (min-width: 64px) {g{--s64:block;}}</style><g><use href="#i-flash-solid"/></g></svg>