<svg xmlns="http://www.w3.org/2000/svg"><defs><symbol id="i-flashoff-solid"><symbol id="s16" viewBox="0 0 16 16"><path d="M11.81 9.7 5.94 3.83 8.5.3a.755.755 0 0 1 1.36.44v5.3H13c.28 0 .54.16.67.41s.1.55-.06.78L11.82 9.7Zm-9.43-.94c-.17.23-.19.53-.06.78s.39.41.67.41h3.14v5.3c0 .33.21.61.52.71.08.02.15.04.23.04.24 0 .46-.11.61-.31l2.55-3.52L4.17 6.3 2.39 8.76Zm12.14 4.71L2.5 1.44c-.29-.29-.77-.29-1.06 0s-.29.77 0 1.06l12.03 12.03c.15.15.34.22.53.22s.38-.07.53-.22c.29-.29.29-.77 0-1.06Z"/></symbol><symbol id="s24" viewBox="0 0 24 24"><path d="m17.32 14.87-8.6-8.61 4.26-5.9a.88.88 0 0 1 1.59.51v8.4h5.09a.878.878 0 0 1 .71 1.39l-3.04 4.2ZM3.6 13.33a.88.88 0 0 0 .71 1.39H9.4v8.4c0 .38.24.72.61.83.09.03.18.04.27.04.28 0 .54-.13.71-.36l4.26-5.89-8.61-8.61zm18.01 7.07L3.57 2.34a.88.88 0 0 0-1.24 0c-.34.34-.34.9 0 1.24l18.04 18.06c.17.17.4.26.62.26s.45-.09.62-.26c.34-.34.34-.9 0-1.24"/></symbol><symbol id="s32" viewBox="0 0 32 32"><path d="M22.84 20.04 11.48 8.68l6-8.27c.25-.35.71-.5 1.12-.36a1 1 0 0 1 .69.95v11.51h7.05a.997.997 0 0 1 .81 1.58l-4.3 5.94ZM4.81 17.9a.997.997 0 0 0 .81 1.58h7.05v11.51a1 1 0 0 0 1 1c.31 0 .62-.15.81-.41l5.99-8.26L9.11 11.96l-4.3 5.93Zm24.03 9.55L4.49 3.1a.996.996 0 1 0-1.41 1.41l24.36 24.35c.2.2.45.29.71.29s.51-.1.71-.29a.996.996 0 0 0 0-1.41Z"/></symbol><symbol id="s40" viewBox="0 0 40 40"><path d="m28.35 25.21-14.09-14.1L21.96.46a1.129 1.129 0 0 1 2.04.66v14.62h8.99a1.122 1.122 0 0 1 .91 1.78l-5.55 7.68ZM6.04 22.46a1.123 1.123 0 0 0 .91 1.78h8.99v14.62a1.116 1.116 0 0 0 1.13 1.12c.35 0 .7-.17.91-.47l7.69-10.63-14.09-14.1-5.54 7.66Zm30.01 12.05L5.44 3.87c-.44-.44-1.15-.44-1.59 0s-.44 1.15 0 1.59L34.47 36.1c.22.22.51.33.8.33s.58-.11.8-.33c.44-.44.44-1.15 0-1.59Z"/></symbol><symbol id="s48" viewBox="0 0 48 48"><path d="M33.86 30.38 17.03 13.54 26.45.52c.32-.44.88-.62 1.4-.46.51.17.86.65.86 1.19v17.73h10.95c.47 0 .9.26 1.11.68s.17.92-.1 1.3l-6.81 9.41Zm-26.6-3.34c-.28.38-.31.88-.1 1.3s.64.68 1.11.68h10.95v17.73c0 .54.35 1.02.86 1.19q.195.06.39.06c.39 0 .77-.19 1.01-.52l9.41-13-16.83-16.84zm36.02 14.53L6.36 4.64c-.49-.49-1.28-.49-1.77 0s-.49 1.28 0 1.77L41.5 43.34c.24.24.56.37.88.37s.64-.12.88-.37c.49-.49.49-1.28 0-1.77Z"/></symbol><symbol id="s64" viewBox="0 0 64 64"><path d="M44.7 40.87 22.47 18.64 35.55.57c.35-.48.97-.69 1.54-.5.57.18.95.71.95 1.31v24.17h15.05c.52 0 .99.29 1.22.75s.19 1.01-.11 1.43l-9.51 13.14Zm-35-4.6c-.3.42-.35.97-.11 1.43s.71.75 1.22.75h15.05v24.17c0 .6.38 1.12.95 1.31.14.05.28.07.42.07.43 0 .85-.21 1.11-.57l13.07-18.05-22.23-22.23-9.5 13.12Zm48.04 19.59L8.03 6.15c-.54-.54-1.41-.54-1.95 0s-.54 1.41 0 1.95l49.71 49.72c.27.27.62.4.97.4s.7-.13.97-.4c.54-.54.54-1.41 0-1.95Z"/></symbol><use style="display: var(--s16, none)" href="#s16"/><use style="display: var(--s24, none)" href="#s24"/><use style="display: var(--s32, none)" href="#s32"/><use style="display: var(--s40, none)" href="#s40"/><use style="display: var(--s48, none)" href="#s48"/><use style="display: var(--s64, none)" href="#s64"/></symbol></defs><style>@media (max-width: 23.98px) {g{--s16:block;}}@media (min-width: 24px) and (max-width: 31.98px) {g{--s24:block;}}@media (min-width: 32px) and (max-width: 39.98px) {g{--s32:block;}}@media (min-width: 40px) and (max-width: 47.98px) {g{--s40:block;}}@media (min-width: 48px) and (max-width: 63.98px) {g{--s48:block;}}@media (min-width: 64px) {g{--s64:block;}}</style><g><use href="#i-flashoff-solid"/></g></svg>