<svg xmlns="http://www.w3.org/2000/svg"><defs><symbol id="i-folder-solid"><symbol id="s16" viewBox="0 0 16 16"><path d="M0 4.94V2.25C0 1.56.56 1 1.25 1h6.59c.7 0 1.33.42 1.61 1.06l.61 1.42H1.5c-.81 0-1.47.65-1.5 1.46m14.75-.44h-4.26v-.02H1.5c-.28 0-.5.22-.5.5v5.77h15v1H1V15h15V5.75c0-.69-.56-1.25-1.25-1.25"/></symbol><symbol id="s24" viewBox="0 0 24 24"><path d="M17.59 7h4.03C22.93 7 24 8.07 24 9.38v7.86H1.25V8.38c0-.76.62-1.38 1.38-1.38H17.6ZM2.62 5.75h12.17l-1.1-2.56a2.39 2.39 0 0 0-2.19-1.44H2.37C1.06 1.75 0 2.82 0 4.12v4.24c0-1.44 1.18-2.62 2.63-2.62ZM1.25 18.49v3.76H24v-3.76z"/></symbol><symbol id="s32" viewBox="0 0 32 32"><path d="M32 12.5v10.3H2.03V11.25c0-.96.79-1.75 1.75-1.75h25.23a3 3 0 0 1 2.99 3M2.03 24.8v4.7H32v-4.7zM0 11.25C0 9.18 1.71 7.5 3.78 7.5h15.53l-1.36-3.18a3.01 3.01 0 0 0-2.76-1.82H3.01A3.01 3.01 0 0 0 0 5.5z"/></symbol><symbol id="s40" viewBox="0 0 40 40"><path d="M4.59 9.74C2.07 9.74.02 11.79.02 14.3L0 6.62c0-1.86 1.51-3.37 3.37-3.37H19c1.35 0 2.57.8 3.1 2.04l1.91 4.44H4.59ZM2.28 31.26v5.49H40v-5.49zM36.62 12H24.98l-20.39-.01c-1.28 0-2.31 1.04-2.31 2.31v14.71H40V15.38c0-1.86-1.51-3.38-3.38-3.38"/></symbol><symbol id="s48" viewBox="0 0 48 48"><path d="M47.99 18.74v16.43H2.51V17.44c0-1.63 1.32-2.95 2.95-2.95h38.28a4.26 4.26 0 0 1 4.25 4.25M2.51 37.68V44h45.47v-6.32zM.01 17.44c0-3 2.45-5.45 5.45-5.45h23.16l-3.17-6.8a4.27 4.27 0 0 0-3.85-2.45H4.26C1.92 2.74.01 4.64.01 6.99z"/></symbol><symbol id="s64" viewBox="0 0 64 64"><path d="M63.99 25v24.09H2.74V24.25c0-2.55 2.08-4.62 4.63-4.62h51.25c2.96 0 5.38 2.41 5.38 5.38ZM2.74 58.37h61.25v-6.54H2.74zm35.35-41.5-3.43-7.99a5.37 5.37 0 0 0-4.94-3.26H5.37C2.4 5.62 0 8.03 0 11v13.15c.05-4.02 3.34-7.28 7.37-7.28z"/></symbol><use style="display: var(--s16, none)" href="#s16"/><use style="display: var(--s24, none)" href="#s24"/><use style="display: var(--s32, none)" href="#s32"/><use style="display: var(--s40, none)" href="#s40"/><use style="display: var(--s48, none)" href="#s48"/><use style="display: var(--s64, none)" href="#s64"/></symbol></defs><style>@media (max-width: 23.98px) {g{--s16:block;}}@media (min-width: 24px) and (max-width: 31.98px) {g{--s24:block;}}@media (min-width: 32px) and (max-width: 39.98px) {g{--s32:block;}}@media (min-width: 40px) and (max-width: 47.98px) {g{--s40:block;}}@media (min-width: 48px) and (max-width: 63.98px) {g{--s48:block;}}@media (min-width: 64px) {g{--s64:block;}}</style><g><use href="#i-folder-solid"/></g></svg>