<svg xmlns="http://www.w3.org/2000/svg"><defs><symbol id="i-foreward"><symbol id="s16" viewBox="0 0 16 16"><path d="M8 0C3.59 0 0 3.59 0 8s3.59 8 8 8 8-3.59 8-8-3.58-8-8-8m0 14.5c-3.58 0-6.5-2.92-6.5-6.5S4.42 1.5 8 1.5s6.5 2.92 6.5 6.5-2.92 6.5-6.5 6.5M12.99 8l-3.82 3.82c-.15.15-.34.22-.53.22s-.38-.07-.53-.22a.754.754 0 0 1 0-1.06l2.01-2.01H2.97v-1.5h7.14L8.1 5.24c-.29-.29-.29-.77 0-1.06s.77-.29 1.06 0L12.98 8Z"/></symbol><symbol id="s24" viewBox="0 0 24 24"><path d="M12.01 0C5.39 0 0 5.38 0 12s5.38 12 12 12 12-5.38 12-12S18.62 0 12.01 0m0 22.25c-5.65 0-10.25-4.6-10.25-10.25S6.35 1.75 12.01 1.75 22.26 6.35 22.26 12s-4.6 10.25-10.25 10.25m7.26-10.26-5.66 5.66c-.17.17-.4.26-.62.26s-.45-.09-.62-.26a.88.88 0 0 1 0-1.24l3.55-3.55H4.29v-1.75h11.63l-3.55-3.55a.88.88 0 0 1 0-1.24c.34-.34.9-.34 1.24 0l5.66 5.66Z"/></symbol><symbol id="s32" viewBox="0 0 32 32"><path d="M16.01 0C7.19 0 0 7.18 0 16s7.18 16 16 16 16-7.18 16-16S24.83 0 16.01 0m0 30c-7.72 0-14-6.28-14-14s6.28-14 14-14 14 6.28 14 14-6.28 14-14 14m2.03-21.52 7.51 7.51-7.51 7.51c-.2.2-.45.29-.71.29s-.51-.1-.71-.29a.996.996 0 0 1 0-1.41L21.71 17H5.6v-2h16.11l-5.09-5.09a.996.996 0 1 1 1.41-1.41Z"/></symbol><symbol id="s40" viewBox="0 0 40 40"><path d="M20.01 0C8.98 0 0 8.97 0 20s8.97 20 20 20 20-8.97 20-20S31.04 0 20.01 0m0 37.75c-9.79 0-17.75-7.96-17.75-17.75S10.22 2.25 20.01 2.25 37.76 10.21 37.76 20 29.8 37.75 20.01 37.75m2.46-27.11 9.35 9.35-9.35 9.35c-.22.22-.51.33-.8.33s-.58-.11-.8-.33c-.44-.44-.44-1.15 0-1.59l6.63-6.63H6.92v-2.25h20.59l-6.63-6.63c-.44-.44-.44-1.15 0-1.59s1.15-.44 1.59 0Z"/></symbol><symbol id="s48" viewBox="0 0 48 48"><path d="M24.01 0c-13.23 0-24 10.77-24 24s10.77 24 24 24 24-10.77 24-24-10.76-24-24-24m0 45.5c-11.86 0-21.5-9.65-21.5-21.5s9.65-21.5 21.5-21.5 21.5 9.65 21.5 21.5-9.65 21.5-21.5 21.5m2.89-32.71 11.2 11.2-11.2 11.2c-.24.24-.56.37-.88.37s-.64-.12-.88-.37a1.25 1.25 0 0 1 0-1.77l8.18-8.18H8.23v-2.5h25.08l-8.18-8.18c-.49-.49-.49-1.28 0-1.77s1.28-.49 1.77 0"/></symbol><symbol id="s64" viewBox="0 0 64 64"><path d="M32.01 0C14.37 0 .02 14.36.02 32s14.35 32 32 32 32-14.36 32-32S49.66 0 32.01 0m0 61.25C15.88 61.25 2.76 48.13 2.76 32S15.89 2.75 32.01 2.75 61.26 15.87 61.26 32 48.14 61.25 32.01 61.25m3.68-44.12 14.86 14.86-14.86 14.86c-.27.27-.62.4-.97.4s-.7-.13-.97-.4c-.54-.54-.54-1.41 0-1.95l11.53-11.53H10.77v-2.75h34.5L33.74 19.09c-.54-.54-.54-1.41 0-1.95s1.41-.54 1.95 0Z"/></symbol><use style="display: var(--s16, none)" href="#s16"/><use style="display: var(--s24, none)" href="#s24"/><use style="display: var(--s32, none)" href="#s32"/><use style="display: var(--s40, none)" href="#s40"/><use style="display: var(--s48, none)" href="#s48"/><use style="display: var(--s64, none)" href="#s64"/></symbol></defs><style>@media (max-width: 23.98px) {g{--s16:block;}}@media (min-width: 24px) and (max-width: 31.98px) {g{--s24:block;}}@media (min-width: 32px) and (max-width: 39.98px) {g{--s32:block;}}@media (min-width: 40px) and (max-width: 47.98px) {g{--s40:block;}}@media (min-width: 48px) and (max-width: 63.98px) {g{--s48:block;}}@media (min-width: 64px) {g{--s64:block;}}</style><g><use href="#i-foreward"/></g></svg>