<svg xmlns="http://www.w3.org/2000/svg"><defs><symbol id="i-gear-solid"><symbol id="s16" viewBox="0 0 16 16"><path d="M13.75 8c0-.19-.01-.36-.03-.53l2.02-2.07-1.61-2.79-2.82.72c-.29-.21-.59-.38-.91-.53L9.62.01H6.39L5.61 2.8c-.31.15-.62.32-.91.53l-2.82-.72L.27 5.4l2.02 2.07a4.6 4.6 0 0 0 0 1.06L.27 10.6l1.61 2.79 2.82-.72c.29.21.59.38.91.53l.78 2.79h3.23l.78-2.79c.31-.15.62-.32.91-.53l2.82.72 1.61-2.79-2.02-2.07c.02-.17.03-.35.03-.53M8 10.25c-1.24 0-2.25-1.01-2.25-2.25S6.76 5.75 8 5.75 10.25 6.76 10.25 8 9.24 10.25 8 10.25"/></symbol><symbol id="s24" viewBox="0 0 24 24"><path d="M20.55 12c0-.32-.03-.62-.07-.91l3.05-3.12-2.27-3.93-4.25 1.08c-.5-.37-1.02-.67-1.56-.92L14.27 0H9.73L8.55 4.2c-.54.24-1.06.55-1.56.92L2.74 4.04.47 7.96l3.05 3.12c-.04.29-.07.6-.07.91s.03.62.07.91L.47 16.02l2.27 3.93 4.25-1.08c.5.37 1.02.67 1.56.92l1.18 4.2h4.54l1.18-4.2c.54-.24 1.06-.55 1.56-.92l4.25 1.08 2.27-3.93-3.05-3.12c.04-.29.07-.6.07-.91ZM12 15.45c-1.91 0-3.45-1.55-3.45-3.45S10.1 8.55 12 8.55s3.45 1.55 3.45 3.45-1.55 3.45-3.45 3.45"/></symbol><symbol id="s32" viewBox="0 0 32 32"><path d="M27.34 16c0-.45-.04-.88-.1-1.29l4.07-4.18-2.92-5.06-5.68 1.45c-.7-.53-1.45-.96-2.22-1.3L18.91 0h-5.84l-1.58 5.62c-.77.34-1.51.77-2.22 1.3L3.59 5.47.68 10.53l4.07 4.18c-.06.41-.1.85-.1 1.29s.04.88.1 1.29L.68 21.47l2.92 5.06 5.68-1.45c.7.53 1.45.96 2.22 1.3L13.08 32h5.84l1.58-5.62c.77-.34 1.51-.77 2.22-1.3l5.68 1.45 2.92-5.06-4.07-4.18c.06-.41.1-.85.1-1.29ZM16 21.01c-2.77 0-5.01-2.24-5.01-5.01s2.24-5.01 5.01-5.01 5.01 2.24 5.01 5.01-2.24 5.01-5.01 5.01"/></symbol><symbol id="s40" viewBox="0 0 40 40"><path d="M34.14 20.01c0-.58-.06-1.14-.14-1.68l5.1-5.23-3.57-6.19-7.11 1.81q-1.365-1.035-2.88-1.68L23.57 0h-7.15l-1.98 7.03c-1 .43-1.96 1-2.88 1.68L4.45 6.9.89 13.1l5.1 5.23c-.08.54-.14 1.1-.14 1.68s.06 1.14.14 1.68l-5.1 5.22 3.57 6.19 7.11-1.81q1.365 1.035 2.88 1.68L16.43 40h7.15l1.98-7.03c1-.43 1.97-1 2.88-1.68l7.11 1.81 3.57-6.19-5.1-5.23c.08-.54.14-1.1.14-1.68ZM20 26.47c-3.57 0-6.46-2.89-6.46-6.46s2.89-6.46 6.46-6.46 6.46 2.89 6.46 6.46-2.89 6.46-6.46 6.46"/></symbol><symbol id="s48" viewBox="0 0 48 48"><path d="M40.94 24c0-.71-.07-1.39-.17-2.06l6.13-6.28-4.23-7.32-8.54 2.18c-1.12-.85-2.3-1.54-3.53-2.07L28.23 0h-8.46l-2.38 8.45c-1.23.53-2.41 1.22-3.53 2.07L5.32 8.34 1.1 15.66l6.13 6.28c-.1.67-.17 1.34-.17 2.06s.07 1.39.17 2.06L1.1 32.34l4.23 7.32 8.54-2.18c1.12.85 2.3 1.54 3.53 2.07L19.78 48h8.46l2.38-8.45c1.23-.53 2.41-1.22 3.53-2.07l8.54 2.18 4.23-7.32-6.13-6.28c.1-.67.17-1.34.17-2.06ZM24 31.78c-4.3 0-7.78-3.49-7.78-7.78s3.49-7.78 7.78-7.78 7.78 3.49 7.78 7.78-3.49 7.78-7.78 7.78"/></symbol><symbol id="s64" viewBox="0 0 64 64"><path d="M54.49 32c0-1-.11-1.96-.25-2.87l8.2-8.4-5.46-9.45-11.41 2.91c-1.56-1.2-3.22-2.17-4.94-2.89L37.46 0H26.55l-3.18 11.29c-1.72.72-3.38 1.69-4.94 2.89L7.02 11.27l-5.46 9.45 8.2 8.4c-.14.92-.25 1.88-.25 2.87s.11 1.96.25 2.87l-8.2 8.41 5.46 9.45 11.41-2.91c1.56 1.2 3.22 2.17 4.94 2.89l3.18 11.29h10.91l3.18-11.29c1.72-.72 3.38-1.69 4.94-2.89l11.41 2.91 5.46-9.45-8.2-8.4c.14-.92.25-1.88.25-2.87ZM32 42.48c-5.79 0-10.48-4.69-10.48-10.48S26.21 21.52 32 21.52 42.48 26.21 42.48 32 37.79 42.48 32 42.48"/></symbol><use style="display: var(--s16, none)" href="#s16"/><use style="display: var(--s24, none)" href="#s24"/><use style="display: var(--s32, none)" href="#s32"/><use style="display: var(--s40, none)" href="#s40"/><use style="display: var(--s48, none)" href="#s48"/><use style="display: var(--s64, none)" href="#s64"/></symbol></defs><style>@media (max-width: 23.98px) {g{--s16:block;}}@media (min-width: 24px) and (max-width: 31.98px) {g{--s24:block;}}@media (min-width: 32px) and (max-width: 39.98px) {g{--s32:block;}}@media (min-width: 40px) and (max-width: 47.98px) {g{--s40:block;}}@media (min-width: 48px) and (max-width: 63.98px) {g{--s48:block;}}@media (min-width: 64px) {g{--s64:block;}}</style><g><use href="#i-gear-solid"/></g></svg>