<svg xmlns="http://www.w3.org/2000/svg"><defs><symbol id="i-genderfemale-solid"><symbol id="s16" viewBox="0 0 16 16"><path d="M13.52 5.51C13.52 2.48 11.05 0 8.01 0s-5.5 2.48-5.5 5.51a5.5 5.5 0 0 0 4.25 5.35v1.2H4.97v2.5h1.79V16h2.5v-1.44h1.79v-2.5H9.26v-1.2c2.43-.57 4.25-2.75 4.25-5.35Zm-8.51 0c0-1.66 1.35-3 3-3s3 1.35 3 3-1.35 3-3 3-3-1.35-3-3"/></symbol><symbol id="s24" viewBox="0 0 24 24"><path d="M20.89 8.88c0-4.9-3.98-8.88-8.88-8.88S3.13 3.98 3.13 8.88c0 4.38 3.2 8.03 7.38 8.74v1.54H8.14v3h2.37V24h3v-1.84h2.37v-3h-2.37v-1.54c4.18-.72 7.38-4.36 7.38-8.74m-14.76 0C6.13 5.64 8.77 3 12.01 3s5.88 2.64 5.88 5.88-2.64 5.88-5.88 5.88-5.88-2.64-5.88-5.88"/></symbol><symbol id="s32" viewBox="0 0 32 32"><path d="M27.69 11.69C27.69 5.25 22.45.01 16.01.01S4.34 5.25 4.34 11.69c0 5.84 4.31 10.68 9.92 11.53v2.57h-3.45v3.5h3.45v2.73h3.5v-2.73h3.46v-3.5h-3.46v-2.57c5.61-.85 9.92-5.69 9.92-11.53Zm-19.85 0c0-4.51 3.66-8.17 8.17-8.17s8.17 3.66 8.17 8.17-3.66 8.17-8.17 8.17-8.17-3.66-8.17-8.17"/></symbol><symbol id="s40" viewBox="0 0 40 40"><path d="M34.48 14.41C34.48 6.43 28-.05 20.02-.05S5.56 6.43 5.56 14.41c0 7.3 5.43 13.33 12.46 14.31v3.6h-4.54v4h4.54v3.63h4v-3.63h4.54v-4h-4.54v-3.6c7.03-.98 12.46-7.01 12.46-14.31m-24.92 0c0-5.77 4.69-10.46 10.46-10.46s10.46 4.69 10.46 10.46-4.69 10.46-10.46 10.46S9.56 20.18 9.56 14.41"/></symbol><symbol id="s48" viewBox="0 0 48 48"><path d="M41.25 17.28C41.25 7.76 33.51.02 23.99.02S6.74 7.76 6.74 17.28c0 8.75 6.55 15.98 15 17.09v4.62h-5.62v4.5h5.62v4.53h4.5v-4.53h5.62v-4.5h-5.62v-4.62c8.45-1.11 15-8.34 15-17.09Zm-30.01 0c0-7.03 5.72-12.75 12.75-12.75s12.75 5.72 12.75 12.75-5.72 12.75-12.75 12.75-12.75-5.72-12.75-12.75"/></symbol><symbol id="s64" viewBox="0 0 64 64"><path d="M54.68 22.67C54.68 10.17 44.51 0 32.01 0S9.34 10.17 9.34 22.67c0 11.66 8.84 21.28 20.17 22.53v7.18h-8.08v5h8.08V64h5v-6.62h8.08v-5h-8.08V45.2c11.33-1.25 20.17-10.87 20.17-22.53m-40.34 0C14.34 12.93 22.27 5 32.01 5s17.67 7.93 17.67 17.67-7.93 17.67-17.67 17.67-17.67-7.93-17.67-17.67"/></symbol><use style="display: var(--s16, none)" href="#s16"/><use style="display: var(--s24, none)" href="#s24"/><use style="display: var(--s32, none)" href="#s32"/><use style="display: var(--s40, none)" href="#s40"/><use style="display: var(--s48, none)" href="#s48"/><use style="display: var(--s64, none)" href="#s64"/></symbol></defs><style>@media (max-width: 23.98px) {g{--s16:block;}}@media (min-width: 24px) and (max-width: 31.98px) {g{--s24:block;}}@media (min-width: 32px) and (max-width: 39.98px) {g{--s32:block;}}@media (min-width: 40px) and (max-width: 47.98px) {g{--s40:block;}}@media (min-width: 48px) and (max-width: 63.98px) {g{--s48:block;}}@media (min-width: 64px) {g{--s64:block;}}</style><g><use href="#i-genderfemale-solid"/></g></svg>