<svg xmlns="http://www.w3.org/2000/svg"><defs><symbol id="i-genderfemale"><symbol id="s16" viewBox="0 0 16 16"><path d="M13.76 5.75C13.76 2.58 11.18 0 8.01 0S2.26 2.58 2.26 5.75c0 2.92 2.18 5.33 5 5.7v1.54H5.39v1.5h1.87V16h1.5v-1.51h1.87v-1.5H8.76v-1.54c2.82-.37 5-2.78 5-5.7m-10 0c0-2.34 1.91-4.25 4.25-4.25s4.25 1.91 4.25 4.25S10.35 10 8.01 10 3.76 8.09 3.76 5.75"/></symbol><symbol id="s24" viewBox="0 0 24 24"><path d="M20.47 8.46C20.47 3.8 16.68 0 12.01 0S3.55 3.8 3.55 8.46c0 4.37 3.33 7.97 7.58 8.41v2.82h-3.1v1.75h3.1v2.55h1.75v-2.55h3.1v-1.75h-3.1v-2.82c4.25-.44 7.58-4.04 7.58-8.41Zm-15.17 0c0-3.7 3.01-6.71 6.71-6.71s6.71 3.01 6.71 6.71-3.01 6.71-6.71 6.71S5.3 12.16 5.3 8.46"/></symbol><symbol id="s32" viewBox="0 0 32 32"><path d="M27.17 11.16C27.17 5.01 22.16 0 16 0S4.84 5.01 4.84 11.16c0 5.82 4.48 10.61 10.17 11.12v4.12h-4.34v2h4.34v3.59h2V28.4h4.34v-2h-4.34v-4.12c5.69-.51 10.17-5.3 10.17-11.12Zm-20.33 0C6.84 6.11 10.95 2 16 2s9.17 4.11 9.17 9.17-4.11 9.17-9.17 9.17-9.17-4.11-9.17-9.17Z"/></symbol><symbol id="s40" viewBox="0 0 40 40"><path d="M33.88 13.87C33.88 6.22 27.66 0 20.01 0S6.13 6.22 6.13 13.87s5.62 13.24 12.75 13.82v5.42h-5.57v2.25h5.57V40h2.25v-4.64h5.57v-2.25h-5.57v-5.42c7.12-.58 12.75-6.55 12.75-13.82m-25.5 0C8.38 7.46 13.59 2.25 20 2.25s11.62 5.21 11.62 11.62S26.41 25.49 20 25.49 8.38 20.28 8.38 13.87"/></symbol><symbol id="s48" viewBox="0 0 48 48"><path d="M40.59 16.59C40.59 7.44 33.15 0 24.01 0S7.42 7.44 7.42 16.59s6.77 15.88 15.33 16.52v7.22h-6.8v2.5h6.8v5.18h2.5v-5.18h6.8v-2.5h-6.8v-7.22c8.56-.64 15.33-7.8 15.33-16.52Zm-30.67 0C9.92 8.83 16.24 2.51 24 2.51s14.08 6.32 14.08 14.08S31.76 30.67 24 30.67 9.92 24.35 9.92 16.59"/></symbol><symbol id="s64" viewBox="0 0 64 64"><path d="M53.92 21.91C53.92 9.83 44.09 0 32.01 0S10.09 9.83 10.09 21.91s9.09 21.15 20.54 21.87v10.56h-9.4v2.75h9.4V64h2.75v-6.91h9.4v-2.75h-9.4V43.78c11.44-.71 20.54-10.25 20.54-21.87m-41.08 0c0-10.57 8.6-19.16 19.16-19.16s19.16 8.6 19.16 19.16S42.56 41.07 32 41.07s-19.16-8.6-19.16-19.16"/></symbol><use style="display: var(--s16, none)" href="#s16"/><use style="display: var(--s24, none)" href="#s24"/><use style="display: var(--s32, none)" href="#s32"/><use style="display: var(--s40, none)" href="#s40"/><use style="display: var(--s48, none)" href="#s48"/><use style="display: var(--s64, none)" href="#s64"/></symbol></defs><style>@media (max-width: 23.98px) {g{--s16:block;}}@media (min-width: 24px) and (max-width: 31.98px) {g{--s24:block;}}@media (min-width: 32px) and (max-width: 39.98px) {g{--s32:block;}}@media (min-width: 40px) and (max-width: 47.98px) {g{--s40:block;}}@media (min-width: 48px) and (max-width: 63.98px) {g{--s48:block;}}@media (min-width: 64px) {g{--s64:block;}}</style><g><use href="#i-genderfemale"/></g></svg>