<svg xmlns="http://www.w3.org/2000/svg"><defs><symbol id="i-globemeridian"><symbol id="s16" viewBox="0 0 16 16"><path d="M-.02-.02h16v16h-16z"/><circle cx="7.98" cy="7.98" r="7.25"/><ellipse cx="7.98" cy="7.98" rx="3.55" ry="7.2"/><path d="M7.98.78v14.4M.78 7.97h14.4M1.49 4.53h12.99M1.49 11.41h12.99"/></symbol><symbol id="s24" viewBox="0 0 24 24"><path d="M12 0C5.38 0 0 5.37 0 11.99s5.38 12 12 12 12-5.38 12-12S18.61 0 12 0M1.8 12.92h3.86c.05 1.24.19 2.43.41 3.53H2.78c-.53-1.08-.87-2.27-.99-3.53Zm11.04-7.03V2.11c1.02.5 2.01 1.84 2.71 3.78zm3.22 1.75c.24 1.07.41 2.25.46 3.53h-3.68V7.64zm-4.97-5.53v3.78H8.38c.7-1.94 1.69-3.28 2.71-3.78m0 5.53v3.53H7.41c.05-1.28.21-2.46.46-3.53zm-5.43 3.53H1.79c.1-1.25.43-2.44.94-3.53h3.34c-.23 1.1-.37 2.28-.42 3.53Zm1.75 1.75h3.68v3.53H7.87c-.24-1.07-.4-2.25-.46-3.53m3.68 5.28V22c-1.02-.5-2.01-1.85-2.71-3.8zm1.75 3.8v-3.8h2.71c-.7 1.95-1.69 3.29-2.71 3.8m0-5.55v-3.53h3.68a19 19 0 0 1-.46 3.53zm5.43-3.53h3.92c-.11 1.26-.46 2.44-.99 3.53h-3.35c.23-1.1.37-2.28.41-3.53Zm0-1.75c-.05-1.24-.19-2.43-.42-3.53h3.4c.51 1.09.84 2.27.94 3.53h-3.93Zm1.94-5.28h-2.8c-.42-1.34-.98-2.49-1.64-3.41 1.78.71 3.31 1.9 4.44 3.41M8.14 2.5c-.65.92-1.2 2.06-1.61 3.38H3.79C4.9 4.39 6.4 3.21 8.15 2.5ZM3.87 18.2h2.66c.39 1.25.9 2.34 1.5 3.23-1.65-.7-3.08-1.83-4.16-3.23m12.02 3.27c.61-.9 1.13-2 1.52-3.26h2.72c-1.1 1.43-2.55 2.57-4.24 3.26"/></symbol><symbol id="s32" viewBox="0 0 32 32"><path d="M15.98-.04c-8.82 0-16 7.18-16 16s7.18 16 16 16 16-7.18 16-16-7.17-16-16-16M2.04 16.95h5.62c.06 1.81.26 3.53.6 5.12H3.41a14 14 0 0 1-1.37-5.12m14.95-9.12V2.27c1.57.6 3.1 2.58 4.12 5.56zm4.68 2c.36 1.53.58 3.25.65 5.12h-5.33V9.83zm-6.69-7.56v5.56h-4.12c1.02-2.98 2.55-4.95 4.12-5.56m0 7.56v5.12H9.65c.06-1.87.29-3.59.65-5.12zm-7.32 5.12H2.04c.13-1.83.61-3.55 1.38-5.12h4.83c-.34 1.58-.54 3.31-.6 5.12Zm2 2h5.33v5.12H10.3c-.35-1.53-.58-3.25-.64-5.12m5.32 7.12v5.58c-1.58-.6-3.11-2.59-4.13-5.58zm2.01 5.58v-5.58h4.13c-1.02 2.99-2.55 4.98-4.13 5.58m0-7.58v-5.12h5.33c-.06 1.87-.29 3.59-.64 5.12zm7.32-5.12h5.62a14 14 0 0 1-1.37 5.12h-4.84c.34-1.59.54-3.31.6-5.12Zm0-2c-.06-1.81-.26-3.54-.6-5.12h4.84c.77 1.57 1.25 3.29 1.38 5.12zm3.05-7.12h-4.17c-.62-2-1.45-3.72-2.45-5.02 2.68.97 4.99 2.74 6.62 5.02M11.24 2.81c-1 1.3-1.84 3.02-2.45 5.02H4.62c1.64-2.28 3.94-4.05 6.62-5.02M4.6 24.07h4.18c.62 2.01 1.45 3.74 2.46 5.04-2.69-.98-5-2.75-6.64-5.04m16.13 5.04c1.01-1.3 1.85-3.03 2.46-5.04h4.18a14.05 14.05 0 0 1-6.64 5.04"/></symbol><symbol id="s40" viewBox="0 0 40 40"><path d="M19.99-.03C8.96-.03 0 8.95 0 19.97s8.97 20 20 20 20-8.97 20-20-8.98-20-20.01-20M2.3 21.09h7.34c.07 2.38.33 4.64.78 6.71H4.08a17.6 17.6 0 0 1-1.78-6.71M21.12 9.87V2.55c2.23.71 4.2 3.45 5.48 7.32zm6.11 2.25c.49 2.05.79 4.32.86 6.71h-6.98v-6.71h6.11Zm-8.37-9.57v7.32h-5.48c1.28-3.87 3.25-6.61 5.48-7.32m0 9.57v6.71h-6.98c.07-2.39.38-4.66.86-6.71h6.11Zm-9.22 6.71H2.3c.15-2.4.78-4.66 1.8-6.71h6.33c-.45 2.07-.72 4.33-.79 6.71m2.25 2.26h6.98v6.71h-6.12c-.49-2.06-.79-4.32-.86-6.71m6.97 8.96v7.35c-2.24-.71-4.21-3.47-5.49-7.35zm2.26 7.35v-7.35h5.49c-1.28 3.88-3.25 6.64-5.49 7.35m0-9.6v-6.71h6.98c-.07 2.38-.37 4.65-.86 6.71zm9.22-6.71h7.34c-.15 2.4-.77 4.66-1.78 6.71h-6.34c.45-2.07.71-4.33.78-6.71m0-2.26c-.07-2.38-.33-4.64-.79-6.71h6.33c1.02 2.05 1.64 4.31 1.8 6.71zm4.23-8.96h-5.6c-.83-2.75-2-5.06-3.41-6.74 3.69 1.22 6.84 3.61 9.01 6.74M14.43 3.13c-1.41 1.68-2.57 3.99-3.41 6.74h-5.6c2.17-3.13 5.33-5.52 9.01-6.74M5.39 30.05h5.62c.83 2.77 2.01 5.08 3.42 6.77-3.7-1.22-6.86-3.63-9.03-6.77Zm20.16 6.77c1.41-1.69 2.58-4.01 3.42-6.77h5.62a17.84 17.84 0 0 1-9.03 6.77Z"/></symbol><symbol id="s48" viewBox="0 0 48 48"><path d="M24-.02c-13.24 0-24 10.77-24 24s10.77 24 24 24 24-10.77 24-24-10.77-24-24-24M2.56 25.22h9.05c.07 2.95.42 5.75.98 8.3H4.75a21.3 21.3 0 0 1-2.2-8.3Zm22.69-13.3V2.83c2.8.8 5.28 4.24 6.86 9.09zm7.56 2.5c.61 2.54.99 5.35 1.07 8.3h-8.63v-8.3zM22.75 2.83v9.09h-6.86c1.58-4.85 4.06-8.29 6.86-9.09m0 11.59v8.3h-8.63c.08-2.95.46-5.76 1.07-8.3zm-11.14 8.3H2.56c.17-2.97.95-5.77 2.21-8.3h7.83c-.57 2.55-.91 5.35-.99 8.3m2.5 2.5h8.64v8.3h-7.57c-.61-2.54-.98-5.35-1.07-8.3m8.64 10.8v9.13c-2.81-.8-5.29-4.26-6.87-9.13zm2.5 9.12v-9.13h6.87c-1.58 4.87-4.06 8.32-6.87 9.13m0-11.62v-8.3h8.64c-.08 2.95-.46 5.76-1.07 8.3zm11.13-8.3h9.05c-.17 2.97-.94 5.77-2.2 8.3h-7.84c.56-2.55.91-5.35.98-8.3Zm0-2.5c-.08-2.95-.42-5.75-.99-8.3h7.83c1.26 2.53 2.04 5.33 2.21 8.3zm5.4-10.8h-7.03c-1.05-3.5-2.54-6.41-4.35-8.46 4.68 1.46 8.68 4.49 11.39 8.46ZM17.6 3.46c-1.81 2.05-3.3 4.96-4.35 8.46H6.22c2.7-3.97 6.7-7 11.39-8.46ZM6.19 36.02h7.05c1.05 3.51 2.55 6.44 4.36 8.49a21.57 21.57 0 0 1-11.41-8.49m24.2 8.49c1.81-2.06 3.31-4.98 4.36-8.49h7.05c-2.71 3.99-6.71 7.03-11.41 8.49"/></symbol><symbol id="s64" viewBox="0 0 64 64"><path d="M32 .04c-17.65 0-32 14.35-32 32s14.36 32 32 32 32-14.36 32-32-14.36-32-32-32M2.79 33.39h12.83c.09 4.21.58 8.18 1.4 11.78H5.88c-1.8-3.57-2.9-7.56-3.09-11.78M33.38 16.1V3.16c4.09.92 7.72 5.89 9.94 12.94zm10.71 2.75c.88 3.59 1.43 7.58 1.53 11.78H33.38V18.85zM30.62 3.16V16.1h-9.94c2.23-7.04 5.85-12.02 9.94-12.94m0 15.69v11.78H18.38c.1-4.2.64-8.2 1.53-11.78zm-15 11.78H2.79c.2-4.22 1.31-8.21 3.12-11.78h11.13c-.83 3.6-1.32 7.57-1.41 11.78Zm2.76 2.76h12.24v11.78H19.9c-.88-3.59-1.42-7.58-1.52-11.78m12.24 14.54v12.99c-4.1-.92-7.73-5.92-9.96-12.99zm2.76 12.98V47.92h9.96c-2.22 7.07-5.85 12.06-9.96 12.99m0-15.74V33.39h12.24c-.1 4.2-.64 8.19-1.52 11.78zm14.99-11.78H61.2c-.19 4.22-1.29 8.21-3.09 11.78H46.97c.82-3.6 1.31-7.57 1.4-11.78m0-2.76c-.09-4.21-.59-8.18-1.41-11.78h11.13c1.81 3.57 2.92 7.56 3.12 11.78H48.38ZM56.5 16.1H46.25c-1.54-5.24-3.82-9.5-6.59-12.28 7 1.9 12.97 6.35 16.84 12.28M24.34 3.82c-2.77 2.78-5.05 7.04-6.59 12.28H7.5c3.87-5.93 9.84-10.38 16.84-12.28M7.47 47.93h10.27c1.54 5.26 3.82 9.54 6.6 12.33-7.02-1.91-13-6.37-16.87-12.33m32.18 12.33c2.78-2.79 5.07-7.07 6.6-12.33h10.27c-3.87 5.96-9.85 10.42-16.87 12.33"/></symbol><use style="display: var(--s16, none)" href="#s16"/><use style="display: var(--s24, none)" href="#s24"/><use style="display: var(--s32, none)" href="#s32"/><use style="display: var(--s40, none)" href="#s40"/><use style="display: var(--s48, none)" href="#s48"/><use style="display: var(--s64, none)" href="#s64"/></symbol></defs><style>@media (max-width: 23.98px) {g{--s16:block;}}@media (min-width: 24px) and (max-width: 31.98px) {g{--s24:block;}}@media (min-width: 32px) and (max-width: 39.98px) {g{--s32:block;}}@media (min-width: 40px) and (max-width: 47.98px) {g{--s40:block;}}@media (min-width: 48px) and (max-width: 63.98px) {g{--s48:block;}}@media (min-width: 64px) {g{--s64:block;}}</style><g><use href="#i-globemeridian"/></g></svg>