<svg xmlns="http://www.w3.org/2000/svg"><defs><symbol id="i-group"><symbol id="s16" viewBox="0 0 16 16"><path d="M5.43 5.39c1.48 0 2.69-1.21 2.69-2.69S6.91 0 5.43 0 2.74 1.21 2.74 2.69s1.21 2.69 2.69 2.69Zm0-3.88c.66 0 1.19.53 1.19 1.19s-.53 1.19-1.19 1.19-1.19-.53-1.19-1.19.53-1.19 1.19-1.19M3.02 7.62c-.84 0-1.51.68-1.51 1.52v2.56H0V9.14a3.03 3.03 0 0 1 3.02-3.02h3.85v1.5zm-.34 1.52h1.5v2.56h-1.5zm7.86.56c1.48 0 2.69-1.21 2.69-2.69s-1.21-2.69-2.69-2.69-2.69 1.21-2.69 2.69S9.06 9.7 10.54 9.7m0-3.88c.66 0 1.19.53 1.19 1.19S11.2 8.2 10.54 8.2s-1.19-.53-1.19-1.19.53-1.19 1.19-1.19m5.47 7.63v2.56h-1.5v-2.56c0-.84-.68-1.52-1.52-1.52H8.14c-.84 0-1.52.68-1.52 1.52v2.56h-1.5v-2.56c0-1.66 1.35-3.02 3.02-3.02h4.85c1.66 0 3.02 1.35 3.02 3.02m-8.21 0h1.5v2.56H7.8zm4 0h1.5v2.56h-1.5z"/></symbol><symbol id="s24" viewBox="0 0 24 24"><path d="M7.97 7.66c2.11 0 3.83-1.72 3.83-3.83S10.08 0 7.97 0 4.14 1.72 4.14 3.83s1.72 3.83 3.83 3.83m0-5.9c1.14 0 2.08.93 2.08 2.08s-.93 2.08-2.08 2.08-2.08-.93-2.08-2.08.93-2.08 2.08-2.08m-3.65 9.3a2.57 2.57 0 0 0-2.57 2.57v3.89H0v-3.89c0-2.38 1.94-4.32 4.32-4.32h5.85v1.75zm-.26 2.57h1.75v3.89H4.06zm11.89.53c2.11 0 3.83-1.72 3.83-3.83S18.06 6.5 15.95 6.5s-3.83 1.72-3.83 3.83 1.72 3.83 3.83 3.83m0-5.91c1.14 0 2.08.93 2.08 2.08s-.93 2.08-2.08 2.08-2.08-.93-2.08-2.08.93-2.08 2.08-2.08M24 20.12v3.89h-1.75v-3.89a2.57 2.57 0 0 0-2.57-2.57h-7.37a2.57 2.57 0 0 0-2.57 2.57v3.89H7.99v-3.89c0-2.38 1.94-4.32 4.32-4.32h7.37c2.38 0 4.32 1.94 4.32 4.32m-11.96 0h1.75v3.89h-1.75zm6.09 0h1.75v3.89h-1.75z"/></symbol><symbol id="s32" viewBox="0 0 32 32"><path d="M10.49 9.9c2.73 0 4.95-2.22 4.95-4.96S13.22-.02 10.49-.02 5.54 2.2 5.54 4.94 7.76 9.9 10.49 9.9m0-7.92c1.63 0 2.95 1.33 2.95 2.95s-1.32 2.95-2.95 2.95a2.949 2.949 0 1 1 0-5.9M5.6 14.45c-1.99 0-3.61 1.62-3.61 3.61v5.21H0v-5.21c0-3.1 2.51-5.62 5.6-5.62h7.83v2.01zm-.18 3.61h2v5.21h-2zm15.87.36c2.76 0 5-2.25 5-5.01s-2.24-5.01-5-5.01-5 2.25-5 5.01 2.24 5.01 5 5.01m0-8.01c1.65 0 3 1.35 3 3s-1.34 3-3 3-3-1.35-3-3 1.34-3 3-3m10.7 16.29v5.28h-2V26.7a3.67 3.67 0 0 0-3.66-3.67h-9.99a3.67 3.67 0 0 0-3.66 3.67v5.28h-2V26.7c0-3.13 2.54-5.68 5.67-5.68h9.99c3.12 0 5.67 2.55 5.67 5.68Zm-15.82 0h2v5.28h-2zm8.24 0h2v5.28h-2z"/></symbol><symbol id="s40" viewBox="0 0 40 40"><path d="M13.02 12.16c3.35 0 6.07-2.73 6.07-6.08S16.37 0 13.02 0 6.95 2.73 6.95 6.08s2.72 6.08 6.07 6.08m0-9.9c2.11 0 3.82 1.72 3.82 3.83s-1.72 3.83-3.82 3.83S9.2 8.2 9.2 6.09s1.72-3.83 3.82-3.83M6.9 17.86a4.66 4.66 0 0 0-4.65 4.65v6.53H0v-6.53c0-3.8 3.09-6.9 6.9-6.9h9.81v2.25zm-.09 4.66h2.25v6.53H6.81zm19.9.38c3.38 0 6.13-2.75 6.13-6.14s-2.75-6.14-6.13-6.14-6.13 2.75-6.13 6.14 2.75 6.14 6.13 6.14m0-10.03c2.14 0 3.88 1.74 3.88 3.89s-1.74 3.89-3.88 3.89-3.88-1.74-3.88-3.89 1.74-3.89 3.88-3.89M40 33.4v6.61h-2.25V33.4c0-2.6-2.12-4.72-4.72-4.72H20.51c-2.6 0-4.72 2.12-4.72 4.72v6.61h-2.25V33.4c0-3.85 3.13-6.98 6.97-6.98h12.52c3.84 0 6.97 3.13 6.97 6.98m-19.56 0h2.25v6.61h-2.25zm10.32 0h2.25v6.61h-2.25z"/></symbol><symbol id="s48" viewBox="0 0 48 48"><path d="M15.54 14.41c3.97 0 7.2-3.23 7.2-7.21S19.51 0 15.54 0s-7.2 3.23-7.2 7.21 3.23 7.21 7.2 7.21Zm0-11.91c2.59 0 4.7 2.11 4.7 4.71s-2.11 4.71-4.7 4.71-4.7-2.11-4.7-4.71 2.11-4.71 4.7-4.71M8.17 21.27a5.71 5.71 0 0 0-5.7 5.7v7.85H-.02v-7.85c0-4.53 3.67-8.21 8.19-8.21h11.81v2.5H8.17Zm0 5.7h2.5v7.85h-2.5zm23.88.3c4.02 0 7.29-3.27 7.29-7.3s-3.27-7.3-7.29-7.3-7.29 3.27-7.29 7.3 3.27 7.3 7.29 7.3m0-12.09c2.64 0 4.79 2.15 4.79 4.8s-2.15 4.8-4.79 4.8-4.79-2.15-4.79-4.8 2.15-4.8 4.79-4.8m15.93 24.85V48h-2.5v-7.97c0-3.2-2.6-5.8-5.8-5.8h-15.1c-3.2 0-5.8 2.6-5.8 5.8V48h-2.5v-7.97c0-4.58 3.72-8.3 8.3-8.3h15.1c4.58 0 8.3 3.73 8.3 8.3m-23.39 0h2.5V48h-2.5zm12.46 0h2.5V48h-2.5z"/></symbol><symbol id="s64" viewBox="0 0 64 64"><path d="M21.73 19.63c5.42 0 9.83-4.41 9.83-9.83S27.15-.03 21.73-.03 11.9 4.38 11.9 9.8s4.41 9.83 9.83 9.83m0-16.91c3.9 0 7.08 3.17 7.08 7.08s-3.18 7.08-7.08 7.08-7.08-3.17-7.08-7.08 3.18-7.08 7.08-7.08m6.3 23.98H11.26c-4.68 0-8.49 3.81-8.49 8.49v11.14H.02V35.19c0-6.2 5.04-11.24 11.24-11.24h16.77zm-16.38 8.49h2.75v11.14h-2.75zm31.19 3.02c5.26 0 9.53-4.28 9.53-9.53s-4.28-9.53-9.53-9.53-9.53 4.28-9.53 9.53 4.28 9.53 9.53 9.53m0-16.31c3.74 0 6.78 3.04 6.78 6.78s-3.04 6.78-6.78 6.78-6.78-3.04-6.78-6.78 3.04-6.78 6.78-6.78m21.18 31.33v10.74h-2.75V53.23c0-4.49-3.65-8.14-8.14-8.14H32.75c-4.49 0-8.14 3.65-8.14 8.14v10.74h-2.75V53.23c0-6 4.89-10.89 10.89-10.89h20.38c6.01 0 10.89 4.88 10.89 10.89m-30.95 0h2.75v10.74h-2.75zm16.82 0h2.75v10.74h-2.75z"/></symbol><use style="display: var(--s16, none)" href="#s16"/><use style="display: var(--s24, none)" href="#s24"/><use style="display: var(--s32, none)" href="#s32"/><use style="display: var(--s40, none)" href="#s40"/><use style="display: var(--s48, none)" href="#s48"/><use style="display: var(--s64, none)" href="#s64"/></symbol></defs><style>@media (max-width: 23.98px) {g{--s16:block;}}@media (min-width: 24px) and (max-width: 31.98px) {g{--s24:block;}}@media (min-width: 32px) and (max-width: 39.98px) {g{--s32:block;}}@media (min-width: 40px) and (max-width: 47.98px) {g{--s40:block;}}@media (min-width: 48px) and (max-width: 63.98px) {g{--s48:block;}}@media (min-width: 64px) {g{--s64:block;}}</style><g><use href="#i-group"/></g></svg>