<svg xmlns="http://www.w3.org/2000/svg"><defs><symbol id="i-handstop-solid"><symbol id="s16" viewBox="0 0 16 16"><path d="M0 0h16v16H0zm15.15 9.28-3.63 5.07s-.07.09-.11.17c-.57.98-1.3 1.48-2.18 1.48-.44 0-.88-.15-1.25-.44a.5.5 0 0 0-.31-.11h-.64v-.25s.02-.05.02-.08c0-.06-.01-.11-.02-.17v-.2c0-1.23.64-2.27 1.4-2.27.28 0 .5-.22.5-.5s-.22-.5-.5-.5c-.96 0-1.77.75-2.15 1.84-.38-.35-.86-.57-1.4-.57-.28 0-.5.22-.5.5s.22.5.5.5c.6 0 1.08.52 1.16 1.19v.51h-.85a3.06 3.06 0 0 1-3.06-3.06l-.08-.9-.02.05-.54-6.5c0-.44.36-.8.8-.8.42 0 .75.32.79.73v2.27h.01v.46c0 .11.03.19.08.27 0 .02.02.03.03.05.05.07.12.13.2.16.06.02.12.04.19.04.28 0 .5-.22.5-.5v-.05h-.01V2.63c0-.44.36-.8.8-.8s.8.36.8.8v5.02h-.02v.07c0 .28.22.5.5.5s.5-.22.5-.5V.79A.78.78 0 1 1 8.21.78v6.86c.01.27.23.48.49.48s.5-.22.5-.5V1.95c0-.44.35-.79.79-.79s.79.35.79.79v8.2c0 .2.12.39.31.46s.41.03.55-.12l2.46-2.6c.29-.32.77-.32 1.06 0 .33.37.33.98-.03 1.39Z"/></symbol><symbol id="s24" viewBox="0 0 24 24"><path d="M0 .01h24v24H0zm22.57 14.18-5.31 7.41a.9.9 0 0 0-.17.26c-.83 1.43-1.89 2.16-3.17 2.16-.64 0-1.27-.22-1.81-.64a.76.76 0 0 0-.46-.16h-.92s.03-.09.03-.13c0-.15-.02-.3-.04-.45 0-.03.02-.06.02-.09 0-1.79.93-3.3 2.02-3.3.41 0 .75-.34.75-.75s-.34-.75-.75-.75c-1.41 0-2.59 1.09-3.16 2.68-.56-.51-1.26-.82-2.04-.82-.41 0-.75.34-.75.75s.34.75.75.75c.94 0 1.7.89 1.7 1.98 0 .05.02.09.03.13H8.01c-2.46 0-4.46-2-4.46-4.45v-1.35L2.61 7.36c0-.63.52-1.15 1.15-1.15s1.15.51 1.15 1.15v4.54s0 .05.01.08c.07.34.36.59.72.59.41 0 .75-.34.75-.75V3.83c0-.63.52-1.15 1.15-1.15s1.15.51 1.15 1.15v7.99h-.02v.11c0 .41.34.75.75.75.35 0 .63-.24.71-.56.03-.07.04-.14.05-.22s0-10.77 0-10.77c-.01-.61.49-1.12 1.11-1.12s1.12.5 1.12 1.12v10.68c.02.4.34.72.74.72s.75-.34.75-.75V3.4c0-.18 0-.34.01-.45 0-.04.01-.08.01-.13 0-.62.51-1.13 1.14-1.13s1.13.51 1.13 1.13v12.64c0 .31.18.58.46.7.29.11.61.04.82-.18l3.6-3.8c.42-.46 1.11-.47 1.53 0 .47.53.47 1.42-.05 2.01Z"/></symbol><symbol id="s32" viewBox="0 0 32 32"><path d="M29.99 19s-.05.06-.07.08l-7.05 9.82c-.06.08-.11.16-.17.28-1.08 1.88-2.49 2.84-4.17 2.84-.85 0-1.67-.29-2.38-.84a.96.96 0 0 0-.61-.21h-1.18s.02-.07.02-.11c0-.2-.03-.39-.05-.59 0-.04.02-.08.02-.12 0-2.35 1.22-4.33 2.66-4.33.55 0 1-.45 1-1s-.45-1-1-1c-1.86 0-3.43 1.42-4.18 3.51-.73-.66-1.65-1.07-2.67-1.07-.55 0-1 .45-1 1s.45 1 1 1c1.23 0 2.23 1.16 2.23 2.59 0 .04.02.07.02.11h-1.66c-3.23 0-5.86-2.62-5.86-5.85v-1.76L3.65 9.67c0-.83.67-1.5 1.5-1.5s1.5.67 1.5 1.5v6.4s.01.06.01.1c.1.45.48.8.96.8.55 0 1-.45 1-1V5.04c0-.83.67-1.5 1.5-1.5s1.5.67 1.5 1.5v10.94h-.03v.14c0 .55.45 1 1 1 .46 0 .83-.32.95-.75.04-.09.05-.19.06-.29s0-14.59 0-14.59c.02-.81.67-1.47 1.48-1.47s1.47.66 1.47 1.46v14.48c.02.53.45.96.99.96s1-.45 1-1V4.52c0-.26.01-.48.01-.63 0-.05.01-.11.01-.17 0-.82.67-1.48 1.48-1.48s1.48.66 1.48 1.48v17.06a.99.99 0 0 0 1.71.69l4.75-5.01c.27-.3.63-.47 1-.47s.72.17 1 .47c.62.69.62 1.85 0 2.54Z"/></symbol><symbol id="s40" viewBox="0 0 40 40"><path d="M37.49 23.81s-.05.06-.08.1l-8.76 12.21c-.07.09-.13.19-.21.33-1.37 2.38-3.15 3.58-5.29 3.58-1.08 0-2.13-.37-3.03-1.07-.2-.15-.44-.24-.69-.24h-1.59s.03-.08.03-.13q0-.405-.06-.78c0-.03.02-.06.02-.09 0-2.98 1.57-5.51 3.42-5.51.62 0 1.12-.5 1.12-1.12s-.5-1.12-1.12-1.12c-2.3 0-4.24 1.79-5.13 4.43-.9-.87-2.08-1.4-3.38-1.4-.62 0-1.12.5-1.12 1.12s.5 1.12 1.12 1.12c1.59 0 2.89 1.5 2.89 3.34 0 .05.02.08.03.13h-2.18c-4.08 0-7.4-3.31-7.4-7.39v-2L4.55 12.14c0-1.09.89-1.98 1.99-1.98s1.99.89 1.99 1.98v7.95s.01.07.02.11c.11.5.54.88 1.07.88.62 0 1.12-.5 1.12-1.12V6.38c0-1.09.89-1.98 1.99-1.98s1.99.89 1.99 1.98v13.59h-.04v.17c0 .62.5 1.12 1.12 1.12.52 0 .94-.37 1.07-.85.04-.1.05-.21.07-.31h-.01V1.96c0-1.07.87-1.94 1.94-1.94s1.94.87 1.94 1.94V19.9c0 .62.5 1.12 1.12 1.12s1.12-.5 1.12-1.12V5.75c0-.34.01-.63.02-.82.01-.06.02-.13.02-.19 0-1.08.88-1.96 1.96-1.96s1.96.88 1.96 1.96v21.2c0 .46.27.87.7 1.04s.91.06 1.23-.27l5.89-6.22c.72-.81 1.93-.8 2.65 0 .81.9.81 2.42 0 3.32Z"/></symbol><symbol id="s48" viewBox="0 0 48 48"><path d="M44.89 28.71s-.06.07-.09.11L34.38 43.34c-.08.1-.15.22-.24.39-1.65 2.86-3.79 4.3-6.36 4.3-1.3 0-2.57-.45-3.65-1.29-.22-.17-.49-.26-.77-.26h-2.01c.03-.11.07-.23.07-.35 0-.32-.03-.63-.07-.93 0-.04.02-.07.02-.11 0-3.6 1.9-6.64 4.15-6.64a1.25 1.25 0 0 0 0-2.5c-2.74 0-5.04 2.17-6.07 5.35-1.07-1.07-2.49-1.73-4.06-1.73a1.25 1.25 0 0 0 0 2.5c1.94 0 3.52 1.82 3.52 4.06 0 .12.04.24.07.35h-2.72c-4.9 0-8.89-3.98-8.89-8.88v-2.01l-.01.02-1.69-20.94c0-1.35 1.1-2.45 2.45-2.45s2.45 1.1 2.45 2.45v9.7c0 .16.04.3.09.44.23.31.58.53.99.53.69 0 1.25-.56 1.25-1.25V7.67c0-1.35 1.1-2.45 2.45-2.45s2.45 1.1 2.45 2.45v16.41h-.05v.21c0 .69.56 1.25 1.25 1.25.59 0 1.06-.41 1.19-.96.05-.11.07-.22.09-.34h-.03V2.41C20.28 1.1 21.36.03 22.68.03s2.4 1.07 2.4 2.39V24a1.25 1.25 0 0 0 2.5 0V6.99c0-.43.02-.8.02-1.05.01-.07.02-.14.02-.22 0-1.33 1.09-2.42 2.42-2.42s2.42 1.08 2.42 2.41v25.46c-.01.51.3.97.77 1.16s1.01.07 1.37-.3l7.01-7.4c.89-1 2.39-1 3.29 0 .99 1.1.99 2.96 0 4.06Z"/></symbol><symbol id="s64" viewBox="0 0 64 64"><path d="m59.57 38.61-.09.12-13.63 19.01c-.09.12-.17.26-.3.48-2.2 3.82-5.08 5.76-8.55 5.76-1.76 0-3.47-.6-4.94-1.75-.24-.19-.54-.29-.84-.29h-2.81v-.08c0-.39-.03-.77-.08-1.14.01-.07.02-.14.02-.22 0-4.85 2.61-8.94 5.69-8.94.76 0 1.38-.62 1.38-1.38s-.62-1.38-1.38-1.38c-3.59 0-6.58 2.95-7.82 7.23-1.38-1.54-3.3-2.49-5.42-2.49-.76 0-1.38.62-1.38 1.38s.62 1.38 1.38 1.38c2.68 0 4.86 2.5 4.86 5.57v.08h-3.73c-6.55 0-11.89-5.32-11.89-11.87L7.65 19.21c.03-1.89 1.57-3.41 3.47-3.41s3.47 1.55 3.47 3.46V32.6c0 .1.02.2.05.29.2.52.69.88 1.28.88.76 0 1.38-.62 1.38-1.38V10.27c0-1.91 1.55-3.46 3.47-3.46s3.47 1.55 3.47 3.46l-.05 22.11v.28c0 .76.62 1.38 1.38 1.38.71 0 1.28-.54 1.36-1.22.04-.13.07-.28.07-.43v-.81l-.06-28.19C26.92 1.53 28.44 0 30.31 0s3.39 1.52 3.39 3.38v28.95c.03.73.63 1.32 1.37 1.32s1.38-.62 1.38-1.38V9.39c.01-.6.02-1.1.03-1.42.02-.08.02-.17.02-.25 0-1.88 1.54-3.42 3.43-3.42s3.43 1.53 3.43 3.42l-.02 33.96c0 .56.34 1.07.87 1.28.52.21 1.12.08 1.51-.33l9.17-9.67a3.118 3.118 0 0 1 4.68 0c1.4 1.56 1.4 4.1 0 5.66Z"/></symbol><use style="display: var(--s16, none)" href="#s16"/><use style="display: var(--s24, none)" href="#s24"/><use style="display: var(--s32, none)" href="#s32"/><use style="display: var(--s40, none)" href="#s40"/><use style="display: var(--s48, none)" href="#s48"/><use style="display: var(--s64, none)" href="#s64"/></symbol></defs><style>@media (max-width: 23.98px) {g{--s16:block;}}@media (min-width: 24px) and (max-width: 31.98px) {g{--s24:block;}}@media (min-width: 32px) and (max-width: 39.98px) {g{--s32:block;}}@media (min-width: 40px) and (max-width: 47.98px) {g{--s40:block;}}@media (min-width: 48px) and (max-width: 63.98px) {g{--s48:block;}}@media (min-width: 64px) {g{--s64:block;}}</style><g><use href="#i-handstop-solid"/></g></svg>