<svg xmlns="http://www.w3.org/2000/svg"><defs><symbol id="i-handblood"><symbol id="s16" viewBox="0 0 16 16"><path d="m13.25 8.8-.54.55c-.37.38-2.22 2.34-2.22 3.9S11.72 16 13.24 16s2.75-1.23 2.75-2.75-1.84-3.52-2.21-3.9l-.54-.55Zm0 5.71c-.69 0-1.25-.56-1.25-1.25 0-.55.62-1.5 1.25-2.25.63.76 1.25 1.71 1.25 2.25 0 .69-.56 1.25-1.25 1.25m-2.11-6.52q0-.135-.03-.27c.77 0 1.39-.01 1.88-.03h.76c.1 0 .2-.02.29-.06h.14c1-.02 1.8-.84 1.8-1.84s-.83-1.84-1.85-1.84h-6.1l.82-.78c.38-.34.6-.83.6-1.33S9.23.86 8.85.51C8.09-.17 6.9-.17 6.2.46L1.85 3.59C.32 4.47 0 5.64 0 6.47c0 .55.16 1.08.46 1.55V9.9c0 2.08 1.7 3.78 3.78 3.78h1.2c.34.34.8.55 1.31.55h.5c1.02 0 1.86-.83 1.86-1.85 0-.16-.03-.32-.07-.47.69-.27 1.19-.94 1.19-1.73 0-.19-.04-.37-.09-.55.6-.3 1.01-.92 1.01-1.63Zm-4.37 4.03h.54c.17.03.3.17.3.34 0 .2-.16.36-.36.36h-.5c-.2 0-.36-.16-.36-.36 0-.19.14-.33.33-.35h.05Zm1.96-1.85c0 .2-.16.36-.36.36H7.36s-.08-.01-.12-.01h-.52c-.17-.02-.31-.17-.31-.35s.13-.32.3-.34h1.73c.16.03.29.17.29.34m-.36-1.85H6.7c-.17-.02-.31-.16-.31-.33 0-.19.15-.34.34-.34H9.3c.19 0 .34.15.34.34s-.15.34-.34.34h-.8s-.09-.01-.14-.01ZM1.96 9.9v-.96c.44.13.81.36 1.01.65.07.1.15.25.12.41-.07.41.2.8.61.87.04 0 .09.01.13.01.36 0 .67-.25.74-.62.09-.52-.03-1.05-.37-1.53-.17-.24-.4-.45-.65-.64.24-.28.42-.61.49-1a.75.75 0 0 0-.61-.87c-.4-.07-.8.2-.87.61-.05.3-.37.51-.75.52 0 0 0-.02-.01-.02-.2-.26-.31-.56-.31-.86 0-.63.36-1.15 1.1-1.57.02-.01.12-.07.14-.09l4.43-3.17c.1-.08.23-.13.36-.13s.26.04.36.13c.07.06.11.13.11.21s-.04.15-.12.22L5.66 4.16a.76.76 0 0 0-.18.82c.11.28.39.47.7.47h7.99c.19 0 .35.15.35.34s-.16.35-.35.35h-.07c-.38 0-1.71.03-3.02.04H9.69c-.12-.02-.24-.04-.36-.04H6.76c-1.01 0-1.84.82-1.84 1.84 0 .41.14.79.38 1.1-.22.3-.35.67-.35 1.08s.13.78.36 1.08c-.2.26-.33.58-.36.93h-.66c-1.26 0-2.28-1.02-2.28-2.28Z"/></symbol><symbol id="s24" viewBox="0 0 24 24"><path d="M19.7 19.32c0 .3.25.55.55.55.48 0 .88.39.88.87s-.39.87-.88.87a2.3 2.3 0 0 1-2.3-2.3c0-.48.39-.87.88-.87s.88.39.88.87Zm4.3.48c0 2.31-1.88 4.19-4.19 4.19s-4.19-1.88-4.19-4.19c0-2.49 3.2-5.84 3.57-6.21l.63-.64.63.64c.36.37 3.56 3.73 3.56 6.21Zm-1.75 0c0-1.12-1.32-3-2.44-4.3-1.12 1.3-2.44 3.18-2.44 4.3 0 1.35 1.09 2.44 2.44 2.44s2.44-1.09 2.44-2.44m-7.59-5.75c.12.29.19.61.19.94 0 1.17-.78 2.14-1.84 2.44.1.27.16.56.16.86 0 1.41-1.13 2.54-2.53 2.54h-.77c-.73 0-1.38-.32-1.84-.81h-1.9c-2.98 0-5.42-2.44-5.42-5.43V11.7C.24 11.02 0 10.24 0 9.44c0-1.17.46-2.84 2.65-4.1s-.02.02-.04.04L9.23.65c.97-.88 2.62-.88 3.67.06.53.48.82 1.12.82 1.8s-.29 1.33-.82 1.8l-1.7 1.61h9.78a2.515 2.515 0 0 1 .07 5.03s-.05 0-.07 0c-.05 0-.11 0-.16-.01-.82.09-2.26.12-4.71.13.06.21.1.43.1.66 0 1.05-.65 1.95-1.56 2.32Zm-.95-1.56a.76.76 0 1 0 0-1.52H9.85c-.42 0-.76.34-.76.76s.32.72.71.75c.04 0 .07-.01.1-.01h2.42c.07 0 .13.01.2.02zm-3.89 5.04c-.41.02-.73.35-.73.77v.02c0 .43.35.78.78.78h.77c.43 0 .78-.35.78-.78s-.31-.73-.69-.78h-.9Zm-3.7.74h1.22c0-.63.25-1.2.64-1.64-.37-.44-.6-1-.6-1.62v-.02c0-.62.23-1.17.6-1.61-.39-.44-.64-1.02-.64-1.65 0-1.38 1.13-2.51 2.51-2.51h10.42c.26 0 .48 0 .61-.01h.1c.43 0 .77-.35.77-.77s-.35-.77-.77-.77H9a.86.86 0 0 1-.81-.54.88.88 0 0 1 .21-.96l3.31-3.13c.17-.16.26-.33.26-.52s-.09-.36-.24-.5c-.19-.17-.45-.26-.7-.26s-.51.09-.7.26L3.71 6.75s-.08.06-.19.12c-1.19.69-1.78 1.53-1.78 2.58 0 .51.18 1.01.51 1.44.03.04.05.08.07.13.34.02.68-.03.96-.2.3-.19.5-.46.55-.77a.87.87 0 0 1 1.02-.71c.48.08.79.54.71 1.02-.11.6-.4 1.14-.85 1.57.25.16.48.34.68.54.78.77 1.13 1.73.97 2.65-.08.42-.44.72-.86.72-.05 0-.1 0-.16-.01a.88.88 0 0 1-.71-1.02c.08-.46-.26-.88-.47-1.09-.41-.41-1.04-.71-1.72-.86v1.76c0 2.02 1.65 3.67 3.67 3.67Zm6.97-3.26c0-.41-.3-.72-.67-.77h-2.6c-.39.04-.69.36-.69.76v.02c0 .4.31.73.71.76h.8c.06 0 .11.01.16.02h1.52c.43 0 .78-.35.78-.78Z"/></symbol><symbol id="s32" viewBox="0 0 32 32"><path d="M26.67 27.04c.55 0 1 .45 1 1s-.45 1-1 1c-1.59 0-2.89-1.3-2.89-2.89 0-.55.45-1 1-1s1 .45 1 1c0 .49.4.9.89.9Zm5.31-.5c0 3.01-2.45 5.46-5.46 5.46s-5.46-2.45-5.46-5.46c0-3.29 4.26-7.75 4.74-8.24l.72-.73.71.74c.49.5 4.74 4.98 4.74 8.24Zm-2 0c0-1.59-1.9-4.29-3.46-6.07-1.56 1.77-3.46 4.46-3.46 6.07 0 1.91 1.55 3.47 3.46 3.47s3.46-1.55 3.46-3.47m-10.7-7.89c.19.41.31.87.31 1.35 0 1.6-1.08 2.88-2.52 3.2.16.38.25.81.25 1.25 0 1.84-1.43 3.27-3.19 3.27h-1.09c-.95 0-1.8-.43-2.38-1.09H8.03A7.136 7.136 0 0 1 .92 19.5v-3.95c-.61-.91-.94-1.94-.94-3 0-1.53.6-3.71 3.48-5.36L12.28.87C13.63-.3 15.7-.28 17.03.91c.68.61 1.05 1.42 1.05 2.3s-.37 1.69-1.05 2.3l-2.61 2.48h13.61c1.77 0 3.21 1.44 3.21 3.21s-1.39 3.16-3.12 3.21-.06 0-.09 0c-.06 0-.12 0-.18-.02-1.07.13-3.04.17-6.6.18.11.33.19.67.19 1.04a3.2 3.2 0 0 1-2.16 3.04m-9.42 5.97s-.01-.07-.01-.1v-.08c0-.86.35-1.64.9-2.21-.52-.57-.85-1.32-.85-2.15V20c0-.83.32-1.58.84-2.15-.55-.57-.89-1.35-.89-2.2v-.04c0-1.75 1.42-3.18 3.18-3.18h14.04c.37 0 .66-.01.84-.01h.12c.67 0 1.22-.55 1.22-1.22s-.55-1.22-1.22-1.22H11.91a.99.99 0 0 1-.93-.62c-.15-.38-.06-.81.24-1.1l4.45-4.22c.27-.24.4-.53.4-.83s-.14-.59-.38-.81c-.58-.52-1.55-.52-2.13 0-.03.02-.06.05-.08.07L4.71 8.76c-.07.06-.15.1-.26.16-1.67.96-2.48 2.15-2.48 3.63 0 .73.25 1.44.73 2.06.06.08.1.16.14.25.53.05 1.06-.05 1.48-.31.45-.28.74-.69.83-1.16a1 1 0 1 1 1.97.35c-.15.85-.6 1.59-1.27 2.15 1.68 1.02 2.63 2.62 2.34 4.25-.09.48-.51.82-.98.82-.06 0-.12 0-.18-.02-.54-.1-.91-.62-.81-1.16.21-1.19-1.33-2.54-3.31-2.89v2.61c0 2.82 2.3 5.12 5.12 5.12zm4.28 1.1c.66 0 1.2-.54 1.2-1.2 0-.69-.48-1.19-1.09-1.25H13.1s-.07 0-.11-.01c-.63.03-1.14.54-1.14 1.18v.08c0 .66.54 1.2 1.19 1.2h1.09Zm3.46-5.64c0-.69-.47-1.18-1.07-1.25h-3.54c-.61.06-1.09.55-1.09 1.17v.08c0 .63.49 1.13 1.1 1.18h1.13c.08 0 .15.02.22.02h2.04c.66 0 1.19-.54 1.19-1.2Zm1.85-4.43c0-.69-.53-1.22-1.18-1.22h-5.24c-.65 0-1.18.53-1.18 1.18v.04c0 .63.49 1.13 1.11 1.17.04 0 .09-.01.13-.01h3.31c.09 0 .17.02.26.03h1.61c.65 0 1.18-.53 1.18-1.18Z"/></symbol><symbol id="s40" viewBox="0 0 40 40"><path d="M33.81 34.35c.62 0 1.12.5 1.12 1.13s-.5 1.13-1.12 1.13a4.08 4.08 0 0 1-4.07-4.07c0-.62.5-1.13 1.12-1.13s1.12.5 1.12 1.13c0 1 .82 1.82 1.82 1.82Zm6.17-1.09c0 3.72-3.02 6.74-6.74 6.74s-6.74-3.03-6.74-6.74c0-4.08 5.32-9.66 5.93-10.28l.81-.83.8.83c.61.63 5.93 6.22 5.93 10.28Zm-2.25 0c0-2.26-2.76-5.87-4.49-7.83-1.73 1.96-4.49 5.55-4.49 7.83a4.49 4.49 0 1 0 8.98 0m-13.8-10.01c.28.54.46 1.15.46 1.8 0 1.98-1.41 3.58-3.25 3.9.25.52.4 1.09.4 1.7 0 2.21-1.75 3.96-3.91 3.96H16.3c-1.18 0-2.23-.54-2.95-1.38H9.97c-4.86-.01-8.82-3.97-8.82-8.84v-5.01c-.76-1.12-1.17-2.4-1.17-3.73 0-1.89.75-4.58 4.31-6.63l.1-.06 11.02-7.89c1.64-1.43 4.18-1.41 5.81.04.82.74 1.28 1.73 1.28 2.79s-.45 2.05-1.28 2.79l-3.53 3.34h17.46c2.16 0 3.91 1.75 3.91 3.91s-1.69 3.85-3.79 3.91-3.89.17-8.84.2c.19.45.29.95.29 1.47 0 1.76-1.18 3.24-2.79 3.72Zm-11.5 7.73c0-.09-.03-.19-.03-.28v-.05c0-1.1.46-2.09 1.19-2.8a3.88 3.88 0 0 1-1.13-2.74v-.05c0-1.06.43-2.03 1.12-2.73a3.86 3.86 0 0 1-1.18-2.79c0-2.15 1.75-3.89 3.89-3.89h4.66s13.83-.01 14.05-.02c.05 0 .13-.01.15 0 .92 0 1.66-.75 1.66-1.66s-.75-1.66-1.66-1.66H14.86c-.46 0-.87-.27-1.04-.7s-.06-.92.27-1.23l5.61-5.31c.36-.33.55-.72.55-1.14s-.19-.81-.53-1.12c-.78-.69-2.08-.69-2.85 0-.03.03-.06.05-.1.08L5.73 10.8c-.09.07-.18.12-.31.2-2.11 1.22-3.18 2.79-3.18 4.68 0 .95.33 1.87.95 2.67q.12.165.18.36c.73.09 1.44-.04 2.03-.41.6-.37.99-.92 1.1-1.55a1.127 1.127 0 1 1 2.22.4c-.2 1.11-.82 2.06-1.72 2.76.57.33 1.1.7 1.54 1.13 1.25 1.23 1.8 2.71 1.53 4.17-.1.55-.57.93-1.11.93-.07 0-.13 0-.2-.02-.61-.11-1.02-.69-.91-1.31.17-.95-.49-1.76-.9-2.17-.81-.79-2.03-1.39-3.37-1.63-.04 0-.08-.03-.12-.05h-.04v3.46c0 3.63 2.95 6.58 6.57 6.58h2.44Zm5.21 1.38c.91 0 1.66-.74 1.66-1.66 0-.87-.6-1.55-1.38-1.68h-1.55c-.06 0-.11-.01-.17-.02-.86.06-1.55.77-1.55 1.65v.05c0 .92.74 1.66 1.66 1.66zm4.5-7.25c0-.85-.57-1.52-1.32-1.68h-4.53s-.09-.01-.13-.01c-.81.1-1.45.79-1.45 1.64v.05c0 .86.65 1.55 1.49 1.64.04 0 .07-.01.11-.01h1.33c.1 0 .19.02.28.03h2.57c.91 0 1.66-.74 1.66-1.66Zm2.33-5.58c0-.91-.74-1.64-1.64-1.64h-6.54c-.91 0-1.64.74-1.64 1.64s.67 1.56 1.51 1.63c.07 0 .14-.02.21-.02h4.12c.12 0 .22.02.34.03h2.01c.91 0 1.64-.74 1.64-1.64Z"/></symbol><symbol id="s48" viewBox="0 0 48 48"><path d="M40.65 41.41a1.25 1.25 0 0 1 0 2.5c-2.65 0-4.8-2.15-4.8-4.8a1.25 1.25 0 0 1 2.5 0 2.3 2.3 0 0 0 2.3 2.3m7.33-1.42c0 4.42-3.6 8.02-8.01 8.02s-8.01-3.6-8.01-8.02c0-4.88 6.39-11.57 7.12-12.32l.9-.92.89.92c.73.75 7.12 7.47 7.12 12.31Zm-2.5 0c0-2.79-3.42-7.24-5.52-9.6-2.09 2.35-5.51 6.79-5.51 9.6 0 3.04 2.47 5.52 5.51 5.52s5.51-2.48 5.51-5.52ZM28.59 27.86c.37.66.6 1.42.6 2.23 0 2.39-1.74 4.3-3.98 4.61.34.64.55 1.36.55 2.13 0 2.61-2.06 4.67-4.6 4.67h-1.61a4.54 4.54 0 0 1-3.5-1.66l-4.12-.02c-5.8 0-10.52-4.73-10.52-10.53v-6.08a7.63 7.63 0 0 1-1.43-4.44c0-2.25.89-5.45 5.14-7.9l.12-.07 13.3-9.53c1.94-1.69 4.94-1.68 6.86.05.97.87 1.5 2.04 1.5 3.29s-.53 2.42-1.5 3.29l-4.45 4.22h21.31c2.54 0 4.61 2.06 4.61 4.6s-1.99 4.53-4.46 4.61-.15 0-.15 0c-.18.01-.35.02-.51.02h-.66s-.01.01-.02.01h-.24l-1.04.02c-1.62.02-3.8.06-6.03.09-.73 0-1.48.02-2.22.03.28.6.46 1.26.46 1.96 0 2.12-1.45 3.89-3.41 4.42ZM15 37.35c-.01-.15-.04-.29-.04-.44v-.07c0-1.33.58-2.53 1.49-3.37a4.58 4.58 0 0 1-1.41-3.3v-.07c0-1.29.54-2.46 1.4-3.3-.9-.84-1.48-2.03-1.48-3.35 0-2.53 2.06-4.59 4.58-4.59h21.33c.53 0 .96-.02 1.22-.02.06 0 .12-.01.17-.01 1.16 0 2.11-.95 2.11-2.11s-.95-2.11-2.11-2.11H17.81c-.51.01-.97-.3-1.16-.78s-.07-1.02.3-1.37l6.76-6.4c.46-.41.7-.92.7-1.45s-.24-1.03-.67-1.42c-.97-.87-2.61-.87-3.58 0-.03.03-.07.06-.11.09L6.74 12.8c-.1.08-.21.14-.36.23-2.58 1.49-3.89 3.42-3.89 5.73 0 1.17.4 2.3 1.16 3.28.11.14.17.3.21.47 3.11 0 3.87-1.88 3.97-2.44.12-.68.75-1.14 1.45-1.01.68.12 1.13.77 1.01 1.45-.24 1.35-.99 2.52-2.11 3.35 2.64 1.47 4.18 3.89 3.74 6.36-.11.6-.64 1.03-1.23 1.03-.07 0-.15 0-.22-.02-.68-.12-1.13-.77-1.01-1.45.35-1.97-2.04-4.12-5.23-4.69-.05 0-.09-.04-.14-.06-.06 0-.11-.01-.17-.02v4.28c0 4.43 3.6 8.03 8.02 8.03H15Zm8.26-.45c0-1.11-.77-1.98-1.76-2.14h-1.87c-.07 0-.14-.02-.21-.02-1.1.07-1.97.97-1.97 2.09v.07c0 1.16.94 2.1 2.1 2.1h1.61a2.1 2.1 0 0 0 2.1-2.1m3.43-6.74c0-1.08-.73-1.94-1.69-2.13h-5.47c-.06 0-.11-.01-.16-.02-1.04.13-1.85 1-1.85 2.08v.07c0 1.09.83 1.98 1.89 2.08.04 0 .09-.01.13-.01h1.61c.12 0 .22.03.34.03h3.09a2.1 2.1 0 0 0 2.1-2.1Zm2.81-6.72c0-1.15-.93-2.09-2.08-2.09h-7.88c-1.15 0-2.08.94-2.08 2.09s.85 1.99 1.92 2.07c.09 0 .17-.03.25-.03h4.97c.14 0 .28.03.42.04h2.41c1.15 0 2.08-.94 2.08-2.09Z"/></symbol><symbol id="s64" viewBox="0 0 64 64"><path d="M55.81 57.11c0 .76-.61 1.38-1.37 1.38-3.39 0-6.15-2.76-6.15-6.16 0-.76.61-1.38 1.37-1.38s1.37.62 1.37 1.38c0 1.88 1.53 3.41 3.4 3.41.76 0 1.37.62 1.37 1.38Zm8.18-3.59c0 5.79-4.7 10.49-10.48 10.49S43.03 59.3 43.03 53.52c0-6.56 9.11-15.97 9.5-16.37l.99-1.01.98 1.01c.39.4 9.5 9.86 9.5 16.37Zm-2.75 0c0-3.96-4.92-10.26-7.73-13.39-2.82 3.12-7.73 9.4-7.73 13.39 0 4.27 3.47 7.74 7.73 7.74s7.73-3.47 7.73-7.74M41.71 28.3c.49.85.78 1.84.78 2.9 0 2.91-2.03 5.28-4.71 5.81.58.91.93 1.99.93 3.14v.2c0 3.11-2.44 5.65-5.49 5.82.55.89.87 1.94.87 3.06v.2c0 3.22-2.62 5.84-5.83 5.84h-2.27c-1.86 0-3.51-.87-4.58-2.23l-5.63-.02c-7.64 0-13.85-6.23-13.85-13.88v-8.28C.65 29.08 0 27.04 0 24.94c0-2.95 1.17-7.15 6.76-10.38.07-.04.13-.08.18-.1 0 0 .01 0 .02-.01l17.9-12.84c2.46-2.15 6.41-2.13 8.84.05 1.24 1.11 1.92 2.6 1.92 4.2s-.68 3.08-1.92 4.2l-6.56 6.22H56.6c3.25-.01 5.89 2.63 5.89 5.89s-2.53 5.79-5.69 5.9-.12 0-.12 0h-.08c-.23.02-.47.02-.71.03h-.86s-.03.02-.05.02h-.25l-1.46.02c-2.18.03-5.11.07-8.12.12-1.15.02-2.3.03-3.45.05Zm-21.5 21.97c-.04-.28-.07-.56-.07-.85v-.2c0-1.8.82-3.42 2.11-4.49-1.23-1.07-2-2.64-2-4.4v-.2c0-1.75.77-3.31 1.99-4.39a5.82 5.82 0 0 1-2.1-4.47v-.09c0-3.21 2.61-5.82 5.82-5.82H54.8c.7-.01 1.25-.02 1.59-.03.07-.01.14-.02.21-.02a3.15 3.15 0 1 0 0-6.3H23.69c-.56.01-1.07-.33-1.28-.85s-.08-1.12.33-1.51l9.09-8.62c.68-.61 1.03-1.37 1.03-2.17s-.36-1.56-1.01-2.15c-1.42-1.27-3.81-1.27-5.23 0-.04.03-.08.07-.12.09L8.58 16.65c-.12.09-.25.17-.46.29-3.58 2.06-5.39 4.75-5.39 7.99 0 1.64.56 3.24 1.63 4.61.16.21.25.46.27.72h.01c1.39.25 2.77 0 3.9-.69 1.08-.67 1.78-1.67 1.99-2.82.13-.75.85-1.25 1.59-1.11.75.13 1.24.85 1.11 1.6-.34 1.89-1.45 3.51-3.12 4.59 3.72 1.89 5.91 5.16 5.32 8.48-.12.67-.7 1.13-1.35 1.13-.08 0-.16 0-.24-.02-.75-.13-1.24-.85-1.11-1.6.5-2.82-2.83-5.88-7.29-6.68-.07-.01-.13-.03-.19-.05-.2-.01-.4-.03-.59-.05v6.08c0 6.13 4.99 11.13 11.11 11.13zm11.13-1.05c0-1.55-1.14-2.82-2.62-3.04h-2.63c-.13 0-.25-.01-.38-.02a3.08 3.08 0 0 0-2.81 3.06v.2c0 1.7 1.38 3.09 3.09 3.09h2.27c1.7 0 3.09-1.39 3.09-3.09v-.2Zm4.61-9.08c0-1.52-1.1-2.78-2.55-3.03h-7.45c-.09 0-.19 0-.28-.01-1.51.2-2.69 1.48-2.69 3.05v.2c0 1.59 1.2 2.88 2.74 3.06.08 0 .16-.01.24-.01h2.27c.24 0 .47.02.7.05h3.91c1.7 0 3.09-1.39 3.09-3.09v-.2Zm3.78-8.86c0-1.79-1.38-3.16-3.07-3.16h-10.7c-1.69 0-3.07 1.38-3.07 3.07v.09c0 1.58 1.21 2.88 2.75 3.04.15-.01.29-.02.44-.02h6.79c.26 0 .51.02.76.05h3.04c1.69 0 3.07-1.38 3.07-3.07Z"/></symbol><use style="display: var(--s16, none)" href="#s16"/><use style="display: var(--s24, none)" href="#s24"/><use style="display: var(--s32, none)" href="#s32"/><use style="display: var(--s40, none)" href="#s40"/><use style="display: var(--s48, none)" href="#s48"/><use style="display: var(--s64, none)" href="#s64"/></symbol></defs><style>@media (max-width: 23.98px) {g{--s16:block;}}@media (min-width: 24px) and (max-width: 31.98px) {g{--s24:block;}}@media (min-width: 32px) and (max-width: 39.98px) {g{--s32:block;}}@media (min-width: 40px) and (max-width: 47.98px) {g{--s40:block;}}@media (min-width: 48px) and (max-width: 63.98px) {g{--s48:block;}}@media (min-width: 64px) {g{--s64:block;}}</style><g><use href="#i-handblood"/></g></svg>