<svg xmlns="http://www.w3.org/2000/svg"><defs><symbol id="i-handsignlanguage"><symbol id="s16" viewBox="0 0 16 16"><path d="M14.32 10.13c-.01-.32-.09-.63-.23-.9L14.13 5c0-1.17-.95-2.12-2.12-2.12-.5 0-.96.18-1.32.48-.38-.37-.9-.6-1.47-.6-.52 0-.99.2-1.36.51-.37-.31-.84-.51-1.36-.51-.22 0-.42.04-.62.1v-.72C5.88.96 4.93.01 3.76.01S1.64.96 1.64 2.13l.02 8.75c0 2.5 2.03 4.54 4.54 4.54h3.06c.57.38 1.22.58 1.89.58 2.01 0 3.64-1.79 3.64-3.98 0-.67-.16-1.32-.46-1.9ZM11.4 4.99c0-.34.28-.62.62-.62s.62.28.62.62v2.08c0 .34-.28.62-.62.62s-.62-.28-.62-.62zm-2.17-.74c.34 0 .62.28.62.62V7.2c0 .34-.28.62-.62.62s-.59-.26-.61-.58V4.81a.62.62 0 0 1 .61-.58Zm-2.73 0c.33 0 .59.26.61.58v2.43a.62.62 0 0 1-.61.58c-.34 0-.62-.28-.62-.62V4.89c0-.34.28-.62.62-.62Zm-3.34 6.64-.02-8.75c0-.34.28-.62.62-.62s.62.28.62.62v5.07c0 .97.65 1.78 1.54 2.03v.97c0 .38.1.73.27 1.04-.18-.04-.36-.06-.55-.06-.41 0-.75.34-.75.75s.34.75.75.75c.64 0 1.18.53 1.31 1.24H6.2c-1.67 0-3.04-1.36-3.04-3.04m7.98 3.62c-.42 0-.83-.15-1.19-.42l-.2-.16h-1.3v-.04c0-.03.02-.05.02-.08 0-.54.19-1.02.5-1.37h2.26c.41 0 .75-.34.75-.75s-.34-.75-.75-.75H8.17c-.41 0-.74-.33-.74-.74v-.74h4.67c1.16 0 1.19 2.07 1.19 2.57 0 1.37-.96 2.48-2.14 2.48Z"/></symbol><symbol id="s24" viewBox="0 0 24 24"><path d="M20.99 15.06a2.5 2.5 0 0 0-.09-.54v-3.05c.04-.2.07-.41.07-.62V7.73c0-1.62-1.31-2.93-2.93-2.93-.78 0-1.48.31-2.01.81a2.9 2.9 0 0 0-4.23-.16 2.91 2.91 0 0 0-3.22-.59V2.92C8.57 1.32 7.26 0 5.64 0S2.71 1.32 2.71 2.93v7.54c0 .1 0 .19.03.31v5.79c0 3.62 2.94 6.56 6.55 6.56h4.66c.83.57 1.78.87 2.76.87 2.88 0 5.21-2.56 5.21-5.72 0-1.16-.33-2.26-.94-3.23Zm-4.13-7.32c0-.65.53-1.18 1.18-1.18s1.18.53 1.18 1.18v3.12c0 .65-.53 1.18-1.18 1.18s-1.18-.53-1.18-1.18zm-3.02-1.37c.65 0 1.18.53 1.18 1.18v3.5c0 .65-.53 1.18-1.18 1.18s-1.13-.5-1.17-1.12V7.49c.04-.62.54-1.12 1.17-1.12m-4.09 0c.63 0 1.13.5 1.17 1.12v3.62c-.04.62-.54 1.12-1.17 1.12s-1.18-.53-1.18-1.18v-3.5c0-.65.53-1.18 1.18-1.18m-5.26 10.2L4.46 2.93c0-.65.53-1.18 1.18-1.18s1.18.53 1.18 1.18v8.12c0 1.31.87 2.41 2.07 2.79v1.46c0 1.63 1.26 2.95 2.85 3.08-.17.22-.31.45-.44.69-.73-.79-1.73-1.28-2.84-1.28-.48 0-.88.39-.88.88s.39.88.88.88c.4 0 .76.13 1.09.34l.86.96q.135.255.21.54H9.31c-2.65 0-4.8-2.16-4.8-4.81Zm12.22 5.68c-.69 0-1.36-.24-1.94-.69l-.24-.18h-2.09c.05-1.58 1.13-2.85 2.49-2.97h1.65c.48 0 .88-.39.88-.88s-.39-.88-.88-.88h-4.59c-.75 0-1.36-.61-1.36-1.36v-1.36h7.26c1.79 0 2.28 3.43 2.28 4.35 0 2.19-1.55 3.97-3.46 3.97"/></symbol><symbol id="s32" viewBox="0 0 32 32"><path d="M27.81 20.28c-.02-.24-.05-.48-.11-.71l.09-9.09c0-2.06-1.68-3.74-3.74-3.74-1.06 0-2.01.45-2.69 1.16-.69-.85-1.72-1.41-2.9-1.41-1.08 0-2.04.47-2.73 1.2A3.73 3.73 0 0 0 13 6.49c-.63 0-1.22.17-1.74.45v-3.2a3.74 3.74 0 0 0-7.48 0v10.39c0 .13.01.25.03.41v7.72c0 4.73 3.84 8.57 8.57 8.57h6.27c1.09.76 2.34 1.16 3.63 1.16 3.74 0 6.79-3.35 6.79-7.46 0-1.54-.44-2.99-1.26-4.26Zm-5.5-9.8a1.741 1.741 0 0 1 3.48 0v4.16a1.741 1.741 0 0 1-3.48 0zm-3.85-1.99c.96 0 1.74.78 1.74 1.74v4.67c0 .81-.56 1.49-1.32 1.68h-.85a1.74 1.74 0 0 1-1.3-1.55c0-.05.01-.09.01-.14v-4.67s-.01-.09-.01-.14c.07-.9.81-1.61 1.73-1.61Zm-5.46 0c.91 0 1.66.71 1.73 1.61 0 .05-.01.09-.01.14v4.67s.01.09.01.14a1.74 1.74 0 0 1-1.3 1.55h-.85c-.75-.19-1.32-.87-1.32-1.68v-4.67c0-.96.78-1.74 1.74-1.74ZM5.82 22.26v-7.79l-.02-.21s-.02-.09-.02-.14V3.74a1.741 1.741 0 0 1 3.48 0V14.9c0 1.72 1.17 3.16 2.75 3.59v2.07c0 2.18 1.76 3.96 3.94 3.98-.34.41-.63.86-.87 1.36-.95-1.13-2.31-1.84-3.82-1.84-.55 0-1 .45-1 1s.45 1 1 1c.39 0 .77.09 1.12.24l1.84 2.05c.05.15.09.32.13.48h-1.97c-3.62 0-6.57-2.95-6.57-6.57Zm16.47 7.73c-.96 0-1.89-.33-2.69-.95l-.27-.21h-2.91v-.02c0-2.27 1.55-4.12 3.5-4.27h2.19c.55 0 1-.45 1-1s-.45-1-1-1h-6.12c-1.09 0-1.98-.89-1.98-1.98v-1.98h9.84c2.12 0 3.21 4.76 3.21 5.96 0 3.01-2.15 5.46-4.79 5.46Z"/></symbol><symbol id="s40" viewBox="0 0 40 40"><path d="M34.64 25.5c-.02-.28-.07-.55-.13-.82v-5.27c.07-.32.11-.65.11-.99v-5.2c0-2.51-2.04-4.55-4.55-4.55-1.34 0-2.53.59-3.36 1.51-.83-1.1-2.14-1.83-3.62-1.83-1.36 0-2.57.61-3.41 1.57a4.53 4.53 0 0 0-3.41-1.57c-.84 0-1.62.25-2.3.65V4.54C13.96 2.04 11.92 0 9.41 0S4.86 2.04 4.86 4.55v13.23c0 .15.02.29.04.5v9.66c0 5.84 4.75 10.59 10.59 10.59h7.88c1.35.95 2.9 1.46 4.5 1.46 4.61 0 8.36-4.13 8.36-9.2 0-1.91-.56-3.73-1.58-5.3Zm-6.88-12.28a2.3 2.3 0 0 1 4.6 0v5.2a2.3 2.3 0 0 1-4.6 0zm-4.68-2.61a2.3 2.3 0 0 1 2.3 2.3v5.83c0 1.27-1.03 2.3-2.3 2.3s-2.2-.94-2.28-2.13c0-.06.02-.11.02-.17v-5.83c0-.06-.01-.11-.02-.17a2.29 2.29 0 0 1 2.28-2.13m-6.82 0c1.21 0 2.2.94 2.28 2.13 0 .06-.02.11-.02.17v5.83c0 .06.01.11.02.17-.09 1.19-1.07 2.13-2.28 2.13s-2.3-1.03-2.3-2.3v-5.83a2.3 2.3 0 0 1 2.3-2.3M7.15 27.94V18.2l-.02-.25c0-.06-.02-.11-.02-.17V4.55a2.3 2.3 0 0 1 4.6 0v14.19c0 2.13 1.47 3.9 3.44 4.4v1.49c0 3.03 2.21 5.54 5.1 6.03-.55.6-1 1.3-1.35 2.06-1.17-1.48-2.89-2.42-4.81-2.42-.62 0-1.12.5-1.12 1.13s.5 1.13 1.12 1.13c.43 0 .83.1 1.22.24l2.66 2.97c.05.17.11.34.14.52h-2.62c-4.6 0-8.34-3.74-8.34-8.34Zm20.71 9.8c-1.22 0-2.41-.42-3.44-1.22l-.31-.24h-3.74v-.02c0-.04.03-.08.03-.13 0-2.64 1.64-4.86 3.82-5.38h3.42c.62 0 1.12-.5 1.12-1.13s-.5-1.13-1.12-1.13h-6.37c-2.14 0-3.88-1.74-3.88-3.88v-1.33h12.43c1.43 0 2.6 1.17 2.6 2.6 0 .2.06.37.15.53h-.01c.91 1.28 1.4 2.78 1.4 4.36 0 3.83-2.74 6.95-6.11 6.95Z"/></symbol><symbol id="s48" viewBox="0 0 48 48"><path d="M41.5 30.77c-.02-.41-.09-.81-.19-1.19v-6.2c.08-.38.14-.76.14-1.17v-6.24c0-2.96-2.41-5.36-5.36-5.36-1.62 0-3.05.74-4.04 1.87a5.33 5.33 0 0 0-4.35-2.25c-1.65 0-3.11.76-4.09 1.94-.98-1.17-2.44-1.94-4.09-1.94-1.05 0-2.03.32-2.86.84V5.35C16.65 2.41 14.24 0 11.29 0S5.93 2.41 5.93 5.36v16.08c0 .19.02.38.05.57v11.63c0 6.95 5.66 12.61 12.61 12.61h9.48c1.61 1.14 3.46 1.75 5.37 1.75 5.47 0 9.93-4.91 9.93-10.94 0-2.27-.65-4.43-1.87-6.3Zm-8.28-14.79a2.86 2.86 0 1 1 5.72 0v6.24a2.86 2.86 0 1 1-5.72 0zm-5.53-3.24a2.86 2.86 0 0 1 2.86 2.86v7c0 1.35-.93 2.47-2.19 2.77h-1.35a2.86 2.86 0 0 1-2.17-2.58c0-.07.02-.13.02-.2v-7c0-.07-.02-.13-.02-.2.1-1.48 1.33-2.66 2.84-2.66Zm-8.18 0c1.51 0 2.74 1.18 2.84 2.66 0 .07-.02.13-.02.2v7c0 .07.02.13.02.2a2.86 2.86 0 0 1-2.17 2.58h-1.35c-1.25-.31-2.19-1.43-2.19-2.77v-7a2.86 2.86 0 0 1 2.86-2.86ZM8.48 33.64V21.95l-.03-.29c-.01-.07-.02-.15-.02-.22V5.36a2.86 2.86 0 1 1 5.72 0V22.6c0 2.53 1.77 4.65 4.13 5.21v1.76c0 3.68 2.75 6.72 6.31 7.18a9.3 9.3 0 0 0-1.88 2.82c-1.38-1.82-3.47-2.98-5.79-2.98a1.25 1.25 0 0 0 0 2.5c2.45 0 4.49 2.01 4.94 4.67h-3.27c-5.57 0-10.11-4.54-10.11-10.11ZM33.44 45.5c-1.49 0-2.94-.51-4.19-1.48l-.34-.26h-4.54s-.01-.08-.02-.12c0-.05.03-.1.03-.16 0-3.44 2.29-6.28 5.22-6.66h3.57a1.25 1.25 0 0 0 0-2.5h-7.65c-2.62 0-4.75-2.13-4.75-4.75v-1.69h15.01c3.13 0 5.07 7.27 5.07 9.19 0 4.65-3.33 8.43-7.43 8.43Z"/></symbol><symbol id="s64" viewBox="0 0 64 64"><path d="M55.04 41.17c-.03-.55-.12-1.08-.26-1.6v-9.15c0-.12.02-.24.02-.36v-8.39c0-3.82-3.08-6.92-6.86-6.92-2.05 0-3.89.92-5.15 2.36-1.2-2.01-3.38-3.36-5.87-3.36-2.23 0-4.2 1.08-5.45 2.75-1.25-1.66-3.23-2.75-5.45-2.75-1.54 0-2.96.52-4.11 1.39V6.9c0-3.81-3.08-6.92-6.86-6.92S8.19 3.09 8.19 6.9v21.64c0 .25.03.49.06.72v15.69c0 9.19 7.42 16.68 16.52 16.68h12.74c2.11 1.54 4.54 2.35 7.06 2.35 7.14 0 12.95-6.47 12.95-14.42 0-3.03-.86-5.9-2.49-8.39Zm-11.2-19.49c0-2.29 1.84-4.15 4.11-4.15s4.11 1.86 4.11 4.15v8.39c0 2.23-1.75 4.03-3.93 4.13-.13 0-.26-.02-.39-.02h-.16a4.123 4.123 0 0 1-3.74-4.11zm-6.92-5.15c2.26 0 4.11 1.86 4.11 4.15v9.42c0 2.07-1.51 3.78-3.48 4.08H36.3c-1.85-.29-3.28-1.82-3.45-3.73 0-.12.02-.24.02-.36v-9.42c0-.12-.01-.24-.02-.36.18-2.12 1.93-3.79 4.07-3.79Zm-10.9 0c2.14 0 3.89 1.67 4.07 3.79 0 .12-.02.24-.02.36v9.42c0 .12.01.24.02.36a4.115 4.115 0 0 1-3.45 3.73h-1.25a4.125 4.125 0 0 1-3.48-4.08v-9.42c0-2.29 1.84-4.15 4.11-4.15ZM11.01 44.96V29.24l-.03-.34c-.02-.11-.04-.23-.04-.35V6.9c0-2.29 1.84-4.15 4.11-4.15s4.11 1.86 4.11 4.15v23.19c0 3.35 2.37 6.15 5.51 6.79v2.64c0 4.99 3.85 9.09 8.71 9.43a12 12 0 0 0-3.05 4.57c-1.78-2.62-4.6-4.32-7.78-4.32-.76 0-1.38.62-1.38 1.39s.62 1.39 1.38 1.39c3.51 0 6.42 2.99 6.92 6.87h-4.69c-7.59 0-13.77-6.24-13.77-13.9Zm33.57 16.25c-2.05 0-4.05-.71-5.76-2.06l-.37-.29h-6.2c-.01-.13-.04-.25-.05-.37.02-.1.03-.19.03-.3 0-4.66 3.01-8.52 6.91-9.2h5.1c.76 0 1.38-.62 1.38-1.39s-.62-1.39-1.38-1.39h-10.2c-3.65 0-6.62-3-6.62-6.69v-2.57h8.62c.29.04.58.06.88.06s.59-.03.88-.06h9.42c.23.02.47.04.71.04h.1c2.38.17 4.27 2.15 4.27 4.6 0 .27.08.52.21.74l-.03.02c1.49 2.11 2.28 4.6 2.28 7.22 0 6.42-4.57 11.64-10.2 11.64Z"/></symbol><use style="display: var(--s16, none)" href="#s16"/><use style="display: var(--s24, none)" href="#s24"/><use style="display: var(--s32, none)" href="#s32"/><use style="display: var(--s40, none)" href="#s40"/><use style="display: var(--s48, none)" href="#s48"/><use style="display: var(--s64, none)" href="#s64"/></symbol></defs><style>@media (max-width: 23.98px) {g{--s16:block;}}@media (min-width: 24px) and (max-width: 31.98px) {g{--s24:block;}}@media (min-width: 32px) and (max-width: 39.98px) {g{--s32:block;}}@media (min-width: 40px) and (max-width: 47.98px) {g{--s40:block;}}@media (min-width: 48px) and (max-width: 63.98px) {g{--s48:block;}}@media (min-width: 64px) {g{--s64:block;}}</style><g><use href="#i-handsignlanguage"/></g></svg>