<svg xmlns="http://www.w3.org/2000/svg"><defs><symbol id="i-handpoint-solid"><symbol id="s16" viewBox="0 0 16 16"><path d="M2.35 9.09c-.44 0-.79-.36-.79-.79V6.94c0-.44.36-.79.8-.79s.8.36.8.79V8.3c0 .22-.1.43-.25.57-.01.01-.03.02-.04.03-.06.05-.13.1-.21.14-.09.04-.2.06-.3.06Zm2.59-.04q.165 0 .3-.06.105-.045.18-.12c.02-.01.04-.02.05-.04.14-.13.23-.31.25-.51s.01-.04.01-.07V5.3c0-.44-.36-.79-.8-.79s-.8.36-.8.79v2.95c0 .44.36.79.79.79Zm2.56.04c.43 0 .78-.35.78-.78V3.96a.781.781 0 0 0-1.56 0v4.35c0 .43.35.78.78.78m7.75-1.2a.705.705 0 0 0-1.06 0l-2.46 2.6a.51.51 0 0 1-.55.12.5.5 0 0 1-.31-.46V.78c0-.43-.35-.79-.78-.79S9.3.34 9.3.78v7.53c0 .98-.8 1.78-1.78 1.78-.51 0-.97-.22-1.29-.56-.33.32-.77.52-1.27.52s-.95-.2-1.27-.53c-.33.35-.79.57-1.3.57-.06 0-.11-.01-.16-.02v2.32c0 1.68 1.38 3.05 3.06 3.05h.88s0-.18-.02-.33c-.08-.75-.53-1.36-1.17-1.36-.28 0-.5-.22-.5-.5s.22-.5.5-.5c.54 0 1.02.22 1.4.57.38-1.09 1.19-1.84 2.15-1.84.28 0 .5.22.5.5s-.22.5-.5.5c-.76 0-1.4 1.04-1.4 2.27 0 .02 0 .04-.01.06.01.1.02.53.02.64 0 .02.63 0 .63 0 .11 0 .22.04.31.11a2 2 0 0 0 1.24.44c.88 0 1.62-.5 2.18-1.48.04-.08.07-.12.11-.17l3.63-5.07c.36-.41.36-1.02.03-1.39Z"/></symbol><symbol id="s24" viewBox="0 0 24 24"><path d="M3.19 13.71c-.53-.11-.93-.56-.93-1.12v-2.03c0-.64.52-1.16 1.19-1.16s1.16.52 1.16 1.16v2.08c-.01.31-.14.59-.35.79-.02.02-.04.03-.06.04a1.05 1.05 0 0 1-.74.29h-.02c-.08 0-.15-.03-.23-.05Zm4.05-.01h.02c.15 0 .3-.03.43-.09.1-.04.19-.11.27-.17.02-.02.05-.03.08-.05.23-.21.38-.51.38-.85V8.15c0-.64-.52-1.16-1.16-1.16s-1.19.52-1.19 1.16v4.39c0 .64.52 1.16 1.16 1.16Zm3.81.06c.63 0 1.14-.51 1.14-1.14V6.16a1.14 1.14 0 1 0-2.28 0v6.46c0 .63.51 1.14 1.14 1.14m11.47-1.77c-.43-.48-1.13-.48-1.56 0l-3.65 3.85a.76.76 0 0 1-.82.18.74.74 0 0 1-.47-.7V1.16C16.03.52 15.51 0 14.87 0s-1.16.52-1.16 1.16v.11c-.01.59-.01 11.34-.01 11.34 0 1.46-1.19 2.64-2.64 2.64-.75 0-1.43-.32-1.91-.83-.24.24-.52.43-.84.56l-.09.03c-.13.05-.26.1-.4.13-.17.04-.35.05-.53.05h-.02c-.73 0-1.4-.3-1.88-.78-.49.51-1.17.83-1.92.83h-.02c-.08 0-.15-.02-.22-.02v3.43c.01 2.49 2.04 4.52 4.53 4.52h1.3s-.03-.09-.03-.14c0-1.11-.78-2.02-1.73-2.02-.41 0-.75-.34-.75-.75s.34-.75.75-.75c.79 0 1.51.32 2.07.84.57-1.62 1.77-2.72 3.19-2.72.41 0 .75.34.75.75s-.34.75-.75.75c-1.12 0-2.06 1.54-2.06 3.36 0 .03-.01.06-.02.09.02.15.04.3.04.45 0 .05-.02.09-.03.14h.94c.17 0 .33.06.46.16.55.43 1.18.65 1.84.65 1.3 0 2.39-.74 3.22-2.19.07-.11.1-.18.17-.26l5.38-7.52c.53-.6.53-1.51.05-2.05Z"/></symbol><symbol id="s32" viewBox="0 0 32 32"><path d="M8.09 16.77V10.9c0-.85.69-1.54 1.58-1.54s1.54.69 1.54 1.54v5.87c0 .26-.07.51-.19.72v.01c-.08.15-.19.29-.32.41 0 0-.02.01-.03.02-.13.11-.27.2-.43.27-.01 0-.03 0-.04.01-.16.06-.34.1-.52.1h-.04c-.85 0-1.54-.69-1.54-1.54Zm6.62 1.62c.84 0 1.52-.68 1.52-1.53V8.24c0-.84-.68-1.53-1.52-1.53s-1.52.68-1.52 1.53v8.62c0 .84.68 1.53 1.52 1.53m-10.13 0c.1 0 .21-.01.3-.03.04 0 .08-.03.13-.04.05-.02.11-.03.15-.05.06-.02.11-.06.17-.09.03-.02.06-.03.08-.05.07-.04.13-.09.19-.15.01 0 .02-.02.03-.03a1 1 0 0 0 .18-.21c.19-.26.3-.57.3-.91v-2.72c0-.85-.69-1.54-1.54-1.54-.89 0-1.58.69-1.58 1.54v2.72c0 .85.69 1.54 1.54 1.54h.04Zm25.41-2.36c-.57-.63-1.5-.64-2.07 0l-4.86 5.14a1.003 1.003 0 0 1-1.73-.69V1.6c0-.85-.68-1.54-1.53-1.54s-1.54.69-1.54 1.54c0 .05 0 .1-.01.15-.02.78-.02 15.11-.02 15.11 0 1.95-1.58 3.53-3.52 3.53-1 0-1.9-.43-2.54-1.1-.64.64-1.52 1.03-2.49 1.03h-.04c-.97 0-1.86-.4-2.5-1.04-.65.68-1.55 1.11-2.56 1.11h-.04c-.1 0-.19-.02-.29-.03v4.58c.01 3.33 2.71 6.03 6.03 6.03h1.71s-.01-.04-.01-.06c0-1.48-1.03-2.69-2.3-2.69-.55 0-1-.45-1-1s.45-1 1-1c1.05 0 2 .43 2.74 1.11.76-2.16 2.36-3.62 4.27-3.62.55 0 1 .45 1 1s-.45 1-1 1c-1.49 0-2.74 2.05-2.74 4.48 0 .04-.02.08-.02.12.02.2.06.4.06.6 0 .02-.01.04-.01.06h1.22c.22 0 .44.07.61.21.73.57 1.58.87 2.45.87 1.73 0 3.18-.98 4.29-2.92.07-.12.12-.2.18-.28l7.21-10.09s.04-.06.07-.09c.64-.72.64-1.93 0-2.64Z"/></symbol><symbol id="s40" viewBox="0 0 40 40"><path d="M16.36 21.11V10.56c0-1.16.94-2.1 2.09-2.1s2.09.94 2.09 2.1v10.55c0 1.15-.94 2.09-2.09 2.09s-2.09-.94-2.09-2.09m-10.97 2c.08.02.17.05.26.06q.165.03.33.03h.05c.14 0 .28-.01.42-.04.06-.01.12-.04.17-.05.07-.02.14-.04.21-.07.08-.03.16-.08.23-.12.04-.02.08-.04.11-.06.09-.06.18-.13.26-.21.01-.01.03-.02.04-.03.38-.36.62-.86.65-1.41s.01-.08.01-.12v-3.33c0-1.17-.95-2.12-2.12-2.12s-2.17.95-2.17 2.12v3.33c0 .96.65 1.76 1.53 2.02Zm31.98-3.16c-.78-.87-2.1-.87-2.88 0l-5.95 6.29a1.003 1.003 0 0 1-1.73-.69V2.06c0-1.17-.94-2.12-2.11-2.12s-2.12.95-2.12 2.12c0 .05 0 .11-.01.16-.02.97-.02 18.89-.02 18.89 0 2.26-1.84 4.1-4.09 4.1-1.25 0-2.37-.58-3.12-1.47a4.1 4.1 0 0 1-3.05 1.38h-.05c-1.22 0-2.31-.55-3.06-1.39-.76.9-1.87 1.48-3.14 1.48h-.05c-.2 0-.39-.03-.58-.06l.02 5.86c0 4.2 3.41 7.61 7.61 7.61h2.38a.9.9 0 0 1-.07-.37c0-1.94-1.37-3.52-3.05-3.52-.55 0-1-.45-1-1s.45-1 1-1c1.34 0 2.56.58 3.47 1.52.85-2.73 2.8-4.6 5.13-4.6.55 0 1 .45 1 1s-.45 1-1 1c-1.94 0-3.59 2.61-3.59 5.71 0 .03-.02.06-.02.1.03.26.06.52.06.79 0 .13-.03.26-.07.37h1.78c.22 0 .44.07.61.21.93.73 2.02 1.11 3.14 1.11 2.21 0 4.05-1.24 5.46-3.69.08-.15.14-.24.2-.32l8.85-12.36s.04-.06.07-.09c.86-.96.86-2.58 0-3.54ZM10.13 21.2a2.14 2.14 0 0 0 .44 1.1c.07.09.14.17.23.25.02.02.05.04.07.06.07.06.15.12.23.18.04.03.09.05.13.07.07.04.14.08.21.11s.15.05.22.07c.05.02.1.04.16.05.13.03.27.04.41.04h.05c.14 0 .28-.02.41-.04.05-.01.1-.03.15-.04a1.4 1.4 0 0 0 .42-.17c.05-.03.1-.05.14-.08.08-.05.15-.11.22-.16a.5.5 0 0 0 .08-.07c.08-.07.15-.15.21-.23.01-.01.02-.03.03-.04.07-.09.13-.19.19-.3v-.02c.15-.29.25-.62.25-.97v-7.19c0-1.17-.95-2.12-2.12-2.12s-2.17.95-2.17 2.12v7.19c0 .07.01.13.02.2Z"/></symbol><symbol id="s48" viewBox="0 0 48 48"><path d="M6.56 27.87a2.48 2.48 0 0 1-1.83-2.38V21.5c0-1.36 1.11-2.47 2.54-2.47s2.47 1.11 2.47 2.47v3.99s-.01.09-.01.14c-.03.49-.19.94-.46 1.31-.09.12-.19.24-.29.34-.02.01-.03.03-.05.04q-.15.135-.3.24c-.04.03-.09.05-.13.07-.09.05-.18.1-.27.14-.08.03-.16.05-.25.08-.07.02-.13.05-.21.06-.16.03-.32.05-.49.05h-.07c-.13 0-.26-.02-.38-.04-.09-.01-.18-.03-.26-.06Zm5.93-1.36c.07.13.14.25.23.37 0 .01.02.02.03.03.08.1.17.2.26.29a.5.5 0 0 1 .08.07c.09.07.17.14.27.2.05.03.1.06.16.09.08.04.16.09.24.12s.17.06.26.08c.06.02.12.04.19.06.16.03.32.05.48.05h.07c.16 0 .32-.02.48-.05.06-.01.12-.04.18-.05.09-.02.18-.05.26-.08s.15-.07.23-.11c.06-.03.11-.06.17-.09.09-.06.17-.12.25-.19.03-.03.07-.05.1-.08.09-.08.17-.17.25-.27.01-.02.03-.03.04-.05.08-.11.15-.22.22-.34 0 0 0-.01.01-.02.07-.13.12-.26.17-.4.07-.23.12-.48.12-.73V16.8c0-1.36-1.11-2.47-2.47-2.47-1.44 0-2.54 1.11-2.54 2.47v8.61c0 .4.11.78.28 1.12Zm32.22-2.35c-.92-1.02-2.45-1.02-3.36 0l-7.12 7.53c-.35.37-.89.49-1.37.3s-.79-.65-.79-1.16V2.49c.01-1.37-1.1-2.48-2.47-2.48s-2.48 1.11-2.48 2.48c0 .07 0 .13-.01.19-.03 1.18-.03 22.83-.03 22.83 0 2.73-2.22 4.95-4.95 4.95-1.49 0-2.82-.68-3.73-1.73-.91.99-2.2 1.62-3.65 1.62h-.07c-1.45 0-2.75-.64-3.66-1.63-.91 1.06-2.24 1.74-3.75 1.74H7.2c-.22 0-.43-.04-.64-.06l.02 6.96c0 5 4.06 9.06 9.05 9.06h2.78a1.2 1.2 0 0 1-.08-.39c0-2.29-1.61-4.16-3.59-4.16a1.25 1.25 0 0 1 0-2.5c1.59 0 3.04.68 4.13 1.78 1.04-3.24 3.37-5.46 6.16-5.46a1.25 1.25 0 0 1 0 2.5c-2.3 0-4.24 3.1-4.24 6.78 0 .04-.02.07-.02.11.04.31.07.63.07.95 0 .14-.04.27-.08.39h2.07c.28 0 .55.09.77.26 1.11.87 2.4 1.32 3.72 1.32 2.62 0 4.8-1.48 6.48-4.39.1-.17.17-.29.25-.39l10.58-14.79s.06-.07.09-.11c1.01-1.13 1.01-3.04 0-4.17ZM19.7 25.68c.03.48.2.92.47 1.28.09.12.18.22.28.32.02.02.04.03.06.05.09.08.19.16.29.23.04.03.09.05.14.07.09.05.17.1.26.14.08.03.16.05.24.08.07.02.13.05.2.06.16.03.32.05.48.05 1.35 0 2.45-1.1 2.45-2.45V12.9c0-1.35-1.1-2.45-2.45-2.45s-2.45 1.1-2.45 2.45v12.61c0 .06.01.11.02.16Z"/></symbol><symbol id="s64" viewBox="0 0 64 64"><path d="M16.34 34.49c-.01-.12-.04-.25-.04-.37V22.83c0-1.93 1.57-3.5 3.5-3.5h.11c1.93 0 3.5 1.57 3.5 3.5v11.29c0 .15-.03.3-.04.44-.03.21-.07.42-.14.62v.01c-.06.19-.14.37-.23.55 0 .02-.02.03-.03.05-.09.16-.19.31-.3.46-.02.03-.05.06-.07.09q-.15.195-.33.36l-.15.12c-.11.09-.22.18-.34.25-.08.05-.16.09-.25.13-.1.05-.2.11-.31.16-.12.05-.25.08-.37.12-.08.02-.16.05-.25.07-.22.04-.44.07-.68.07h-.11c-.23 0-.46-.02-.68-.07-.09-.02-.17-.05-.26-.08-.12-.04-.25-.07-.37-.11-.12-.05-.22-.11-.33-.17-.08-.04-.16-.08-.23-.12-.13-.08-.25-.18-.37-.28-.04-.03-.08-.07-.12-.1q-.195-.18-.36-.39c-.02-.02-.03-.04-.05-.06-.12-.16-.22-.33-.32-.5v-.02c-.19-.37-.32-.78-.36-1.22Zm-6.35 3.26h.11c.23 0 .46-.02.68-.07.1-.02.18-.06.28-.08.12-.03.24-.06.36-.11.13-.05.24-.12.36-.19.07-.04.14-.07.21-.11.14-.09.27-.2.4-.31.03-.03.07-.05.1-.08.14-.13.27-.28.39-.44 0 0 .01-.02.02-.03.38-.51.62-1.13.68-1.8 0-.09.03-.19.03-.28v-5.24c0-1.93-1.57-3.5-3.5-3.5H10c-1.93 0-3.5 1.57-3.5 3.5v5.24c0 1.73 1.26 3.16 2.91 3.44.19.04.39.06.59.06Zm49.38-5.43a3.192 3.192 0 0 0-4.8 0l-9.33 9.86a1.381 1.381 0 0 1-2.38-.95l.02-37.73c0-1.94-1.58-3.51-3.51-3.51s-3.51 1.58-3.51 3.51c0 .08 0 .15-.02.23-.03 1.58-.12 7.15-.2 12.61.11.45.17.92.17 1.41v16.54c0 3.43-2.79 6.23-6.23 6.23-1.98 0-3.74-.93-4.88-2.37a6.22 6.22 0 0 1-4.78 2.24h-.11c-1.92 0-3.65-.88-4.79-2.25-1.15 1.45-2.91 2.39-4.9 2.39h-.11c-.37 0-.74-.04-1.1-.1l.03 9.39c0 6.69 5.44 12.13 12.12 12.13h3.81c-.02-3.13-2.24-5.66-4.97-5.66-.76 0-1.38-.62-1.38-1.37s.62-1.37 1.38-1.37c2.17 0 4.13.99 5.53 2.57 1.25-4.37 4.3-7.39 7.95-7.39.76 0 1.38.62 1.38 1.37s-.62 1.37-1.38 1.37c-3.15 0-5.82 4.19-5.82 9.14 0 .08-.01.15-.02.22.05.37.08.74.08 1.12h2.88c.31 0 .6.1.84.29 1.5 1.17 3.24 1.78 5.04 1.78 3.54 0 6.48-1.98 8.72-5.89.13-.22.21-.36.3-.48l13.88-19.38.09-.12c1.43-1.6 1.43-4.2 0-5.81Zm-33.24 2.29q.06.66.36 1.23c.09.18.2.35.32.52.01.02.03.03.04.05.11.14.23.28.37.41.04.03.08.06.11.09.12.1.24.2.38.29.07.05.15.08.22.12.11.06.22.13.34.17.12.05.24.08.36.11.09.03.17.06.27.08.22.04.45.07.68.07 1.92 0 3.48-1.56 3.48-3.48V17.73c0-1.92-1.56-3.48-3.48-3.48s-3.48 1.56-3.48 3.48v16.54c0 .12.02.23.03.34"/></symbol><use style="display: var(--s16, none)" href="#s16"/><use style="display: var(--s24, none)" href="#s24"/><use style="display: var(--s32, none)" href="#s32"/><use style="display: var(--s40, none)" href="#s40"/><use style="display: var(--s48, none)" href="#s48"/><use style="display: var(--s64, none)" href="#s64"/></symbol></defs><style>@media (max-width: 23.98px) {g{--s16:block;}}@media (min-width: 24px) and (max-width: 31.98px) {g{--s24:block;}}@media (min-width: 32px) and (max-width: 39.98px) {g{--s32:block;}}@media (min-width: 40px) and (max-width: 47.98px) {g{--s40:block;}}@media (min-width: 48px) and (max-width: 63.98px) {g{--s48:block;}}@media (min-width: 64px) {g{--s64:block;}}</style><g><use href="#i-handpoint-solid"/></g></svg>