<svg xmlns="http://www.w3.org/2000/svg"><defs><symbol id="i-handvictory-solid"><symbol id="s16" viewBox="0 0 16 16"><path d="M4.43 5.23a.926.926 0 0 1 .89-1.2c.15 0 .29.04.43.11.22.11.38.31.45.54l.51 1.61.31 1c-.11.06-.22.13-.33.22-.46.38-.72.9-.75 1.47 0 .15 0 .3.04.45a.95.95 0 0 1-.39-.49zM2.11 7.36l.52 1.66c.15.49.67.75 1.16.61.24-.07.43-.24.54-.45s.14-.47.06-.7l-.62-1.99s-.04-.09-.07-.13a.92.92 0 0 0-.81-.51.926.926 0 0 0-.88 1.2l.1.33Zm3.15 5.58c.54 0 1.03.22 1.41.58.26-.76.73-1.34 1.31-1.64l-1.35-1.31c-.05 0-.11.02-.16.02-.31 0-.61-.07-.89-.22-.21-.11-.4-.26-.55-.44-.24.31-.56.53-.94.65q-.285.09-.57.09c-.56 0-1.08-.26-1.45-.68v1.97c0 1.89 1.54 3.43 3.44 3.43h.95s-.02-.05-.02-.08c0-.76-.53-1.37-1.18-1.37-.28 0-.5-.22-.5-.5s.22-.5.5-.5M13 .68c-.49-.1-.99.21-1.1.71l-1.25 5.29c-.05.23-.28.41-.5.38-.24 0-.44-.17-.48-.41L8.56.79a.9.9 0 0 0-.37-.62c-.2-.15-.44-.2-.69-.17-.25.04-.46.17-.61.37s-.21.44-.17.69l.6 3.91L7.96 7c.68-.06 1.39.15 1.88.64l2.59 2.34V7.55c0-.07 0-.19 1.27-5.78.1-.5-.22-.99-.71-1.09Zm-.29 10.9-.08-.08-3.46-3.13c-.12-.12-.26-.21-.41-.27s-.31-.1-.48-.11c-.34-.02-.69.07-.96.29-.09.07-.14.16-.2.24-.1.15-.18.31-.18.49a1.05 1.05 0 0 0 .32.76l.4.39 2.81 2.74c.2.19.2.51 0 .71a.51.51 0 0 1-.71.01l-.98-.96c-.74.04-1.36 1.06-1.36 2.28 0 .02 0 .04-.01.06.01.1.03.2.03.31 0 .03-.01.06-.02.08h1.51c.11 0 .22.04.31.11.42.33.91.5 1.41.5 1.38 0 2.51-1.28 2.51-2.85 0-.56-.15-1.09-.43-1.56h-.02Z"/></symbol><symbol id="s24" viewBox="0 0 24 24"><path d="m3.71 11.35-.13-.41a1.32 1.32 0 0 1 1.27-1.72c.47 0 .9.26 1.14.67.05.08.1.16.12.25s0 0 0 .01l.91 2.91v.01c.05.16.07.33.05.5s-.06.34-.15.49c-.17.31-.44.55-.78.65-.34.11-.7.07-1.01-.09s-.55-.44-.65-.78l-.78-2.49Zm5.1 2.37c.09.28.28.5.51.67-.03-.2-.05-.4-.04-.61.03-.83.42-1.6 1.1-2.15.15-.12.3-.22.47-.31l-1.19-3.8a1.33 1.33 0 0 0-1.26-.93 1.33 1.33 0 0 0-1.18.71c-.16.31-.2.67-.09 1.01l1.69 5.41ZM20.7 1.18c-.19-.3-.49-.5-.84-.58-.35-.07-.7 0-1 .18-.3.19-.5.49-.58.84l-2.09 8.81a.76.76 0 0 1-.75.58c-.35 0-.65-.26-.72-.61l-1.75-9.27C12.85.38 12.2-.1 11.45.02c-.35.05-.66.24-.87.53s-.3.64-.24.99l1 6.39.93 2.96c.99-.08 2.02.23 2.75.94l3.75 3.37v-3.48c0-.1 0-.28 2.12-9.54.07-.34 0-.7-.19-.99ZM8.31 19.54c.78 0 1.49.32 2.04.82.38-1.08 1.05-1.93 1.88-2.36l-1.92-1.87c-.08 0-.16.02-.24.02-.45 0-.9-.11-1.31-.32-.3-.16-.57-.37-.79-.62-.35.44-.82.77-1.37.94-.28.09-.56.13-.84.13-.8 0-1.55-.35-2.09-.93v2.79c0 2.75 2.24 4.99 4.99 4.99h1.37s-.02-.07-.02-.1c0-1.09-.76-1.98-1.7-1.98-.41 0-.75-.34-.75-.75s.34-.75.75-.75Zm10.82-2.01L14 12.92c-.17-.16-.37-.29-.58-.38-.68-.29-1.52-.21-2.09.26-.17.14-.31.31-.4.5v.02c-.04.08-.07.16-.1.25s-.04.19-.05.29c0 .09 0 .18.02.27.05.3.2.59.44.83l4.69 4.56.07.1a.744.744 0 0 1-.6 1.19c-.2 0-.38-.07-.52-.21l-1.43-1.39c-1.07.06-1.96 1.54-1.96 3.3 0 .03-.01.06-.02.09.02.15.04.29.04.45 0 .04-.02.07-.02.1h2.18c.17 0 .33.06.46.16.61.47 1.32.72 2.04.72 2 0 3.64-1.86 3.64-4.14 0-.84-.24-1.63-.67-2.33 0 0-.01 0-.02-.01Z"/></symbol><symbol id="s32" viewBox="0 0 32 32"><path d="M9.56 11.31c-.14-.44-.1-.91.12-1.33.22-.41.58-.72 1.02-.85.17-.05.35-.08.52-.08.28 0 .55.07.8.2.41.22.71.58.85 1.02l.98 3.13.58 1.87c-.21.12-.42.25-.61.41-.89.73-1.4 1.74-1.45 2.85-.01.27 0 .54.05.81-.3-.21-.53-.51-.65-.89l-.45-1.44-1.78-5.69Zm-4.48 4.01 1.03 3.28c.14.44.44.81.85 1.02.41.22.88.26 1.32.12s.81-.44 1.02-.85c.05-.1.09-.21.13-.31.03-.09.04-.19.06-.29v-.04c.02-.23 0-.46-.07-.69l-1.2-3.83c-.23-.74-.92-1.22-1.66-1.22a1.75 1.75 0 0 0-1.54.93c-.21.41-.26.88-.12 1.33l.17.55ZM26.58.79c-.94-.2-1.86.4-2.06 1.34l-2.98 12c-.11.45-.51.76-.97.76h-.03c-.47-.01-.87-.35-.96-.81L17.16 1.49A1.716 1.716 0 0 0 15.17.03c-.95.15-1.6 1.03-1.46 1.98l1.41 8.74 1.23 3.94c1.31-.11 2.66.3 3.62 1.24l4.91 4.44V15.8c0-.15 0-.38 3.02-12.96.19-.93-.41-1.85-1.34-2.05ZM24.9 23.08l-.09-.08-6.2-5.6a2 2 0 0 0-.36-.29c-.1-.06-.2-.11-.3-.16-.03-.02-.06-.04-.1-.05-.9-.39-2-.28-2.74.33-.23.19-.41.41-.53.66 0 .01 0 .02-.01.03a1.8 1.8 0 0 0-.18.7c0 .12 0 .24.03.35.06.4.26.78.58 1.08l.8.78 5.37 5.23s.03.05.05.07a.99.99 0 0 1-.75 1.65 1 1 0 0 1-.7-.28l-1.88-1.83c-1.4.08-2.57 2.03-2.57 4.34 0 .04-.02.08-.02.12.02.19.05.39.05.59 0 .04-.02.08-.03.12h2.86c.22 0 .44.07.61.21.8.62 1.73.95 2.68.95 2.64 0 4.78-2.45 4.78-5.45 0-1.19-.36-2.31-1.01-3.27-.13-.04-.25-.11-.36-.2Zm-13.77 3.03c1.02 0 1.94.41 2.68 1.07.51-1.42 1.38-2.52 2.47-3.09l-2.51-2.45c-.1 0-.21.02-.31.02-.59 0-1.19-.14-1.73-.43-.4-.21-.74-.49-1.03-.81-.46.58-1.08 1.01-1.8 1.23-.37.12-.75.17-1.12.17-.6 0-1.19-.14-1.73-.43-.39-.2-.72-.47-1-.78v3.65c0 3.62 2.94 6.57 6.56 6.57h1.78s-.03-.08-.03-.12c0-1.44-1-2.6-2.23-2.6-.55 0-1-.45-1-1s.45-1 1-1"/></symbol><symbol id="s40" viewBox="0 0 40 40"><path d="M11.92 14.39a2.37 2.37 0 0 1 2.26-3.07c.38 0 .75.09 1.09.27.56.29.97.79 1.16 1.39l1.15 3.68.82 2.63q-.465.24-.87.57c-1.04.86-1.64 2.04-1.7 3.33-.02.49.07.97.2 1.43-.64-.26-1.16-.77-1.38-1.47l-2.74-8.75Zm-1.27 10.26c.6-.19 1.1-.6 1.39-1.16.09-.18.16-.37.2-.56 0-.03.01-.07.02-.1.04-.19.05-.38.04-.58-.01-.19-.04-.38-.1-.56l-1.47-4.7a2.37 2.37 0 0 0-2.26-1.66 2.37 2.37 0 0 0-2.26 3.07l1.47 4.7a2.37 2.37 0 0 0 2.96 1.55Zm3.42 8.06c1.31 0 2.5.56 3.39 1.47.62-1.96 1.82-3.46 3.32-4.12l-3.39-3.3c-.15.02-.31.03-.46.03-1.38 0-2.7-.67-3.52-1.78-.54.72-1.29 1.26-2.17 1.54-.43.14-.87.2-1.3.2-1.43 0-2.78-.71-3.59-1.89v5.36c0 4.57 3.72 8.29 8.29 8.29h2.47a1 1 0 0 1-.08-.38c0-1.89-1.33-3.43-2.97-3.43-.55 0-1-.45-1-1s.45-1 1-1ZM34.66 1.87c-.34-.53-.87-.89-1.49-1.02s-1.25-.01-1.78.33-.89.87-1.02 1.49l-3.75 16a.99.99 0 0 1-1 .77c-.47-.01-.87-.36-.96-.82L21.65 1.94a2.363 2.363 0 0 0-2.7-1.97c-1.29.2-2.18 1.41-1.98 2.69l1.78 11.02 1.57 5.02c1.6-.18 3.28.3 4.46 1.45L31.2 26v-6.17c0-.15 0-.44 3.78-16.2.13-.61 0-1.24-.33-1.77ZM23.41 21.61c-.16-.16-.34-.3-.53-.42-.03-.02-.07-.03-.1-.05-.16-.1-.33-.18-.51-.25-.02 0-.04-.01-.06-.02-.2-.07-.4-.13-.6-.16-.22-.04-.44-.06-.67-.05-.68 0-1.35.21-1.91.6-.07.05-.15.09-.22.15-.6.49-.94 1.16-.97 1.87a3 3 0 0 0 .07.65c.04.19.12.38.21.56.13.27.31.52.53.74l7.58 7.39a.996.996 0 0 1-.7 1.71 1 1 0 0 1-.7-.28l-2.39-2.33c-1.88.03-3.46 2.57-3.46 5.57 0 .03-.02.06-.02.09.03.25.06.51.06.78 0 .14-.03.26-.08.38h3.78c.22 0 .44.07.61.21 1.02.8 2.21 1.22 3.44 1.22 3.36 0 6.1-3.1 6.1-6.92 0-1.53-.47-2.98-1.33-4.22-.18-.03-8.15-7.19-8.15-7.19Z"/></symbol><symbol id="s48" viewBox="0 0 48 48"><path d="M14.42 17.47c-.22-.71-.15-1.46.19-2.12s.92-1.14 1.63-1.36c.27-.09.55-.13.83-.13.44 0 .88.11 1.28.32.66.34 1.14.92 1.36 1.63l2.35 7.5c-.35.19-.69.41-1.01.67-1.26 1.04-1.98 2.47-2.05 4.02-.02.55.04 1.09.18 1.61-.68-.32-1.24-.9-1.48-1.68l-.49-1.58-2.78-8.9Zm-1.6 12.24a2 2 0 0 0 .63-.31l.27-.18c.06-.05.11-.1.17-.15.06-.06.13-.12.18-.19.06-.06.11-.13.16-.2.04-.06.08-.12.11-.18.05-.08.1-.17.15-.26.02-.04.03-.08.05-.11a2.9 2.9 0 0 0 .11-1.91l-1.76-5.63a2.79 2.79 0 0 0-2.65-1.95 2.79 2.79 0 0 0-2.65 3.61l1.76 5.63a2.78 2.78 0 0 0 3.47 1.82ZM41.5 2.32c-.4-.62-1.02-1.05-1.75-1.2s-1.46-.02-2.09.39c-.62.4-1.05 1.03-1.2 1.75l-4.48 19.36c-.13.58-.67.96-1.25.97-.59-.02-1.09-.45-1.2-1.03L25.94 2.37c-.12-.75-.5-1.39-1.09-1.82-.6-.43-1.33-.6-2.07-.49-.73.11-1.38.5-1.82 1.1s-.62 1.33-.51 2.06l2.14 13.46 1.85 5.93c1.91-.21 3.92.38 5.33 1.76l7.59 6.59v-6.93c0-.18 0-.53 4.53-19.61.15-.72.01-1.46-.39-2.08Zm-3.92 32.09s-.05-.02-.08-.04l-.13-.11-9.29-8.06c-.19-.19-.4-.35-.62-.49-.03-.02-.07-.04-.11-.06q-.285-.18-.6-.3c-.02 0-.04-.01-.05-.02-1.28-.49-2.76-.34-3.87.47-.06.05-.13.08-.19.13-.7.58-1.11 1.36-1.14 2.19q0 .345.06.69v.03c.05.22.13.43.23.64.16.33.37.65.66.93l9.07 8.84c.5.48.5 1.27.02 1.77-.25.25-.57.38-.9.38s-.63-.12-.87-.35l-2.84-2.77c-2.21.06-4.06 3.06-4.06 6.61 0 .04-.02.07-.02.11.04.3.07.61.07.93 0 .14-.04.27-.08.4h4.46c.28 0 .55.09.77.26 1.21.95 2.62 1.45 4.08 1.45 3.99 0 7.24-3.69 7.24-8.23 0-1.94-.61-3.78-1.76-5.31l-.03-.06Zm-20.65 4.95c1.55 0 2.97.66 4.03 1.72.74-2.29 2.15-4.05 3.9-4.85l-3.98-3.88c-.18.02-.36.04-.53.04-1.65 0-3.21-.79-4.2-2.09-.64.82-1.51 1.47-2.58 1.8-.52.16-1.05.24-1.57.24-1.67 0-3.25-.8-4.24-2.14v6.24c0 5.44 4.42 9.87 9.86 9.87h2.88c-.04-.13-.08-.26-.08-.4 0-2.23-1.57-4.05-3.49-4.05a1.25 1.25 0 0 1 0-2.5"/></symbol><symbol id="s64" viewBox="0 0 64 64"><path d="M19.21 23.81a3.884 3.884 0 0 1 2.55-4.88c.39-.12.78-.18 1.16-.18 1.66 0 3.2 1.07 3.72 2.73l1.77 5.64 1.38 4.4c-.52.26-1.02.57-1.47.95-1.59 1.31-2.51 3.11-2.59 5.07-.04.88.11 1.74.4 2.56-.24-.07-.48-.17-.71-.29-.92-.48-1.6-1.29-1.91-2.29l-.62-1.99-3.67-11.72Zm-1.76 16.21c.99-.31 1.8-.99 2.29-1.91.1-.2.18-.4.25-.61.03-.08.05-.17.07-.25.03-.12.05-.24.07-.35.04-.28.06-.56.04-.84-.02-.3-.07-.61-.16-.9l-2.31-7.37c-.31-.99-.99-1.81-1.91-2.29a3.84 3.84 0 0 0-2.97-.27 3.897 3.897 0 0 0-2.55 4.88l2.31 7.37a3.897 3.897 0 0 0 4.88 2.55ZM52.71 2.07c-2.1-.45-4.17.9-4.62 3l-5.87 25.34c-.15.64-.75 1.06-1.38 1.06-.65-.02-1.2-.49-1.32-1.13L34.7 3.28A3.883 3.883 0 0 0 30.26.04C28.14.36 26.68 2.36 27 4.48l2.91 18.25 2.5 7.99c2.5-.33 5.14.42 6.98 2.21l10.39 9.01v-9.65c0-.2 0-.66 5.92-25.61.44-2.1-.91-4.16-3-4.61ZM50 45.74s-.09-.04-.13-.07L37.53 34.96c-.23-.22-.47-.41-.73-.58-.05-.03-.1-.07-.15-.1-.23-.14-.46-.27-.71-.37-.1-.05-.21-.09-.32-.13-.17-.06-.34-.12-.52-.16-.21-.06-.42-.1-.64-.14-.05 0-.1-.01-.16-.02-.35-.05-.71-.06-1.06-.04-1.15.06-2.29.44-3.2 1.19-.98.81-1.54 1.89-1.59 3.07 0 .24.01.48.05.72.02.11.04.21.06.31.02.09.05.18.08.27.21.69.58 1.33 1.14 1.88l11.88 11.58a1.373 1.373 0 0 1-.96 2.36c-.36 0-.69-.13-.96-.39l-3.8-3.71h-.02c-3.07 0-5.67 4.09-5.67 8.92 0 .07-.01.14-.02.21.05.38.08.76.08 1.15 0 .29-.09.56-.25.79h6.25c.31 0 .6.1.84.29 1.64 1.27 3.54 1.95 5.5 1.95 5.37 0 9.75-4.95 9.75-11.03 0-2.6-.82-5.06-2.36-7.11-.03-.03-.04-.08-.06-.11Zm-27.25 6.92c2.11 0 4.02.95 5.4 2.48.96-3.29 2.95-5.78 5.45-6.75l-5.58-5.44c-.27.03-.54.06-.81.06a6.5 6.5 0 0 1-3.07-.76 6.6 6.6 0 0 1-2.42-2.15 6.66 6.66 0 0 1-3.46 2.54c-.66.21-1.33.3-1.98.3-2.4 0-4.65-1.32-5.82-3.45v9.08c0 7.27 5.91 13.18 13.18 13.18h4.19c-.16-.22-.25-.49-.25-.79 0-3.07-2.17-5.56-4.84-5.56-.76 0-1.38-.62-1.38-1.38s.62-1.38 1.38-1.38Z"/></symbol><use style="display: var(--s16, none)" href="#s16"/><use style="display: var(--s24, none)" href="#s24"/><use style="display: var(--s32, none)" href="#s32"/><use style="display: var(--s40, none)" href="#s40"/><use style="display: var(--s48, none)" href="#s48"/><use style="display: var(--s64, none)" href="#s64"/></symbol></defs><style>@media (max-width: 23.98px) {g{--s16:block;}}@media (min-width: 24px) and (max-width: 31.98px) {g{--s24:block;}}@media (min-width: 32px) and (max-width: 39.98px) {g{--s32:block;}}@media (min-width: 40px) and (max-width: 47.98px) {g{--s40:block;}}@media (min-width: 48px) and (max-width: 63.98px) {g{--s48:block;}}@media (min-width: 64px) {g{--s64:block;}}</style><g><use href="#i-handvictory-solid"/></g></svg>