<svg xmlns="http://www.w3.org/2000/svg"><defs><symbol id="i-handsignlanguage-solid"><symbol id="s16" viewBox="0 0 16 16"><path d="M8.31 7.11s-.01-.04-.01-.05V4.32c0-.61.5-1.11 1.11-1.11s1.11.5 1.11 1.11v2.74c0 .61-.5 1.11-1.11 1.11a1 1 0 0 1-.42-.09c-.1-.04-.19-.11-.28-.18-.02-.02-.04-.02-.06-.04-.2-.19-.32-.45-.34-.74Zm-2.1 1.06q.225 0 .42-.09c.1-.04.19-.11.28-.18.02-.02.04-.02.06-.04.2-.19.32-.45.34-.74s.01-.04.01-.05V4.33c0-.61-.5-1.11-1.11-1.11s-1.11.5-1.11 1.11v2.74c0 .61.5 1.11 1.11 1.11Zm6.48-.16c.14 0 .27-.03.39-.08.07-.03.12-.07.18-.1.04-.03.09-.05.13-.09.08-.06.14-.14.2-.22 0-.01.02-.02.02-.03.11-.17.19-.37.19-.58V4.47c0-.61-.5-1.11-1.11-1.11s-1.11.5-1.11 1.11v2.44c0 .61.5 1.11 1.11 1.11Zm-6.78 2.56V9.13A2.11 2.11 0 0 1 4.1 7.05V1.11C4.1.5 3.6 0 2.99 0S1.88.5 1.88 1.11l.02 10.26c0 2.18 1.77 3.94 3.94 3.94h1.3c-.01-1.23-.89-2.22-1.96-2.22-.28 0-.5-.22-.5-.5s.22-.5.5-.5c.92 0 1.74.48 2.28 1.2.08-.18.16-.36.27-.52a2.254 2.254 0 0 1-1.83-2.21Zm6.86-1.25H6.91v1.25c0 .69.56 1.25 1.25 1.25h3.59c.09 0 .16.02.23.06 0 0 .02.01.02.02.06.04.12.09.16.16.05.08.08.16.08.26 0 .28-.22.5-.5.5H8.98c-.5.48-.82 1.19-.82 1.98 0 .07-.02.14-.05.21 0 .1.03.2.03.31h1.74l.13.11c.49.38 1.05.58 1.63.58 1.6 0 2.9-1.47 2.9-3.29 0-.66-.2-3.39-1.78-3.39Z"/></symbol><symbol id="s24" viewBox="0 0 24 24"><path d="M21.56 19.16c0 2.65-1.89 4.8-4.22 4.8-.85 0-1.67-.29-2.38-.84l-.2-.16h-2.59s.03-.08.03-.13c0-2.01 1.38-3.65 3.11-3.78h1.89c.41 0 .75-.34.75-.75 0-.15-.05-.28-.13-.39a.8.8 0 0 0-.24-.24c-.01 0-.02-.02-.03-.02-.1-.06-.22-.1-.35-.1h-5.26c-1 0-1.81-.81-1.81-1.81v-1.81h8.57c2.53 0 2.87 4.14 2.87 5.23ZM9.35 12.48c.89 0 1.61-.72 1.61-1.61V6.86a1.609 1.609 0 1 0-3.22 0v4.01c0 .89.72 1.61 1.61 1.61m4.69 0c.89 0 1.61-.72 1.61-1.61V6.86a1.609 1.609 0 1 0-3.22 0v4.01c0 .89.72 1.61 1.61 1.61m4.81-.23c.89 0 1.61-.72 1.61-1.61V7.07a1.609 1.609 0 1 0-3.22 0v3.57c0 .89.72 1.61 1.61 1.61m-6.92 6.8c-1.83 0-3.31-1.49-3.31-3.31v-1.86a3.11 3.11 0 0 1-2.37-3.01v-9.3a1.609 1.609 0 1 0-3.22 0l.03 15.63c0 3.18 2.58 5.76 5.76 5.76h1.83c-.27-1.49-1.42-2.61-2.79-2.61-.41 0-.75-.34-.75-.75s.34-.75.75-.75c1.33 0 2.51.67 3.31 1.7.25-.57.59-1.07.99-1.5h-.24Z"/></symbol><symbol id="s32" viewBox="0 0 32 32"><path d="M28.66 25.68c0 3.48-2.49 6.32-5.56 6.32-1.11 0-2.2-.38-3.13-1.11l-.27-.21h-3.4v-.04c0-.04.02-.07.02-.12 0-2.65 1.82-4.8 4.1-4.97h2.49c.55 0 1-.45 1-1 0-.2-.07-.37-.17-.52-.07-.11-.16-.2-.27-.28l-.11-.08c-.04-.02-.08-.04-.12-.05a.9.9 0 0 0-.33-.07h-6.93c-1.31 0-2.38-1.07-2.38-2.38v-2.38h11.29c3.2 0 3.78 5.45 3.78 6.89ZM11.6 21.17v-2.44a4.1 4.1 0 0 1-3.12-3.98V2.11C8.48.95 7.53 0 6.37 0S4.26.95 4.26 2.11L4.3 23.1c0 4.18 3.4 7.58 7.58 7.58h2.41c-.36-1.95-1.87-3.42-3.67-3.42-.55 0-1-.45-1-1s.45-1 1-1c1.74 0 3.3.86 4.36 2.2.32-.72.76-1.36 1.27-1.91h-.27c-2.41 0-4.38-1.96-4.38-4.38m5.07-6.27c.03.46.21.87.49 1.2l.02.02c.39.45.95.74 1.59.74.51 0 .98-.19 1.35-.5a.3.3 0 0 0 .08-.07c.05-.05.1-.11.15-.16.04-.04.07-.08.1-.13.04-.05.07-.1.11-.16s.07-.12.1-.18c.02-.05.05-.1.07-.15.03-.08.05-.15.07-.23.01-.04.03-.09.03-.13.02-.13.04-.26.04-.39V9.47a2.11 2.11 0 0 0-4.22 0v5.29c0 .05.01.1.02.15Zm-6.12.38c.02.08.04.16.07.24.02.05.05.1.07.15.03.06.06.12.1.18.03.06.07.11.11.16l.1.13c.05.06.1.11.15.16.03.02.06.05.08.07.37.31.83.5 1.35.5.64 0 1.2-.29 1.59-.74l.02-.02c.28-.33.45-.74.49-1.2 0-.05.02-.1.02-.15V9.47a2.11 2.11 0 0 0-4.22 0v5.29c0 .14.02.27.04.4 0 .05.02.09.03.13Zm14.55 1.57c.13 0 .26-.02.39-.04.04 0 .09-.02.13-.03.08-.02.15-.04.23-.07.05-.02.11-.04.16-.07.06-.03.11-.06.16-.09.06-.04.12-.07.17-.11.03-.02.05-.04.08-.06.48-.39.79-.97.79-1.63V9.76c0-1.16-.95-2.11-2.11-2.11s-2.11.95-2.11 2.11v4.99c0 1.16.94 2.11 2.11 2.11Z"/></symbol><symbol id="s40" viewBox="0 0 40 40"><path d="M13.12 19.06c-.03-.17-.05-.33-.05-.51v-6.53c0-1.5 1.22-2.71 2.71-2.71s2.71 1.22 2.71 2.71v6.53c0 .65-.24 1.25-.63 1.71-.02.02-.03.04-.05.06-.08.09-.16.17-.25.25-.03.02-.05.04-.08.06-.09.07-.18.15-.28.21 0 0-.02 0-.03.01-.23.14-.49.25-.76.32-.2.05-.41.08-.63.08-.65 0-1.25-.24-1.72-.63-.04-.03-.08-.07-.12-.1-.07-.06-.13-.13-.19-.2-.05-.05-.1-.11-.14-.17l-.14-.2c-.05-.07-.09-.15-.13-.23-.03-.06-.06-.13-.09-.2q-.06-.15-.09-.3c-.01-.06-.03-.11-.04-.17Zm7.47 12.66a6.724 6.724 0 0 1-5.91-6.67v-1.67c-2.2-.5-3.86-2.47-3.86-4.83V2.66c0-1.49-1.22-2.71-2.71-2.71S5.4 1.17 5.4 2.66v14.81c0 .07.01.14.02.21l.03.26v10.9c0 5.22 4.25 9.47 9.47 9.47h3.1c-.41-2.52-2.34-4.44-4.66-4.44-.62 0-1.12-.5-1.12-1.13s.5-1.13 1.12-1.13c2.18 0 4.12 1.1 5.41 2.81a8.5 8.5 0 0 1 1.83-2.73ZM31.24 20.9c.17 0 .34-.02.5-.05.06-.01.11-.03.17-.04.1-.03.2-.05.29-.09.07-.03.14-.06.2-.09.07-.03.14-.07.2-.11.08-.05.15-.09.22-.15.04-.03.07-.06.1-.09.42-.34.73-.79.88-1.32.07-.25.13-.51.13-.78v-5.82c0-1.5-1.22-2.71-2.71-2.71s-2.71 1.22-2.71 2.71v5.82c0 1.5 1.22 2.71 2.71 2.71Zm-.27 2.53H16.92v1.62c0 2.47 2.01 4.47 4.47 4.47h7.13c.13 0 .25.03.37.07.05.02.09.04.14.06s.09.06.13.09c.12.09.22.19.3.32.11.17.19.37.19.59 0 .62-.5 1.13-1.12 1.13h-3.34c-2.76.35-4.91 3.02-4.91 6.25 0 .05-.02.1-.03.15 0 .05.02.1.02.15h4.25l.3.24c1.17.91 2.53 1.39 3.93 1.39 3.84 0 6.97-3.55 6.97-7.91 0-1.75-.56-8.61-4.77-8.61Zm-9.59-3.11c.08.09.16.17.25.25.02.02.05.04.08.06.09.08.18.15.29.21 0 0 .02 0 .03.01.41.25.88.4 1.4.4.22 0 .43-.03.63-.08.41-.1.77-.29 1.08-.55.04-.03.08-.07.12-.1.07-.06.13-.13.19-.2.05-.05.1-.11.14-.17l.14-.2c.05-.07.09-.15.13-.23.03-.06.06-.13.09-.2q.06-.15.09-.3c.01-.06.03-.11.04-.17.03-.17.05-.33.05-.51v-6.53c0-1.5-1.22-2.71-2.71-2.71s-2.71 1.22-2.71 2.71v6.53c0 .65.24 1.25.63 1.71.02.02.03.04.05.06Z"/></symbol><symbol id="s48" viewBox="0 0 48 48"><path d="M15.69 23.07c-.04-.2-.06-.41-.06-.62v-7.77c0-1.83 1.49-3.32 3.32-3.32s3.32 1.49 3.32 3.32v7.77c0 .1-.02.2-.03.3-.06.7-.34 1.33-.77 1.84-.01.02-.03.04-.04.05q-.15.165-.3.3a1 1 0 0 1-.1.08q-.165.135-.33.24c-.03.02-.06.03-.09.05-.27.16-.56.28-.87.35-.25.06-.5.1-.76.1s-.52-.04-.76-.1c-.5-.12-.94-.35-1.32-.66l-.16-.13c-.08-.08-.15-.16-.23-.24l-.18-.21c-.06-.08-.11-.16-.16-.24-.06-.09-.11-.19-.16-.29-.04-.08-.08-.16-.11-.24-.05-.12-.08-.25-.12-.37-.02-.07-.04-.13-.05-.2Zm21.34 5.09H20.21v2.01c0 2.98 2.43 5.41 5.42 5.41h8.49c.14 0 .28.04.41.08.05.02.1.04.15.07s.09.06.14.1c.13.1.25.21.34.35.12.19.21.41.21.65 0 .69-.56 1.25-1.25 1.25h-3.97c-3.33.42-5.93 3.63-5.93 7.53 0 .06-.03.12-.04.18.01.09.03.18.04.27h5.11l.34.26c1.41 1.1 3.04 1.67 4.73 1.67 4.63 0 8.39-4.26 8.39-9.5 0-2.16-1.13-10.34-5.77-10.34Zm-19.31 2.02v-2.05a5.82 5.82 0 0 1-4.59-5.68V3.31C13.13 1.49 11.64 0 9.81 0S6.49 1.49 6.49 3.32v17.85l.06 13.54c0 6.26 5.1 11.36 11.37 11.36h3.79c-.45-3.09-2.81-5.46-5.65-5.46a1.25 1.25 0 0 1 0-2.5c2.62 0 4.95 1.35 6.46 3.44a10 10 0 0 1 2.35-3.5c-4-.39-7.14-3.77-7.14-7.87Zm19.63-4.85c.21 0 .41-.02.61-.06.07-.01.14-.04.21-.05.12-.03.24-.07.36-.11.09-.03.17-.07.25-.11.09-.04.17-.09.25-.14.09-.06.19-.11.27-.18.05-.03.09-.07.13-.11.51-.42.89-.97 1.08-1.62.09-.3.15-.61.15-.94v-6.92c0-1.83-1.49-3.31-3.32-3.31s-3.32 1.49-3.32 3.31v6.92c0 1.83 1.49 3.32 3.32 3.32Zm-12.6-2.59c.06.7.34 1.33.77 1.84.01.02.03.04.04.05q.15.165.3.3a1 1 0 0 0 .1.08q.165.135.33.24c.03.02.06.03.09.05.27.16.56.28.87.35.25.06.5.1.76.1s.52-.04.76-.1c.5-.12.94-.35 1.32-.66l.16-.13c.08-.08.15-.16.23-.24l.18-.21c.06-.08.11-.16.16-.24.06-.09.11-.19.16-.29.04-.08.08-.16.11-.24.05-.12.08-.25.12-.37.02-.07.04-.13.05-.2.04-.2.06-.41.06-.62v-7.77c0-1.83-1.49-3.32-3.32-3.32s-3.32 1.49-3.32 3.32v7.77c0 .1.02.2.03.3Z"/></symbol><symbol id="s64" viewBox="0 0 64 64"><path d="M20.8 30.85c-.05-.28-.09-.57-.09-.86V19.72c0-2.57 2.09-4.66 4.66-4.66s4.67 2.09 4.67 4.66v10.27c0 2.12-1.43 3.89-3.37 4.45-.41.12-.84.21-1.3.21-1.45 0-2.73-.68-3.59-1.72-.05-.06-.11-.12-.16-.19a6 6 0 0 1-.6-1.09c-.06-.16-.11-.33-.16-.5-.03-.1-.06-.19-.08-.29Zm24.39.55c.05.19.1.38.17.56.03.08.06.17.09.25q.135.315.33.6c.08.13.18.25.27.37l.15.18c.39.45.86.82 1.39 1.09.64.33 1.36.54 2.13.54 1.12 0 2.13-.41 2.93-1.06l.02-.02c1.04-.86 1.71-2.13 1.71-3.58v-9.15c0-2.57-2.09-4.66-4.66-4.66s-4.67 2.09-4.67 4.66v9.15c0 .28.03.56.08.83.02.08.03.16.05.25ZM21.56 50.97c3.55 0 6.69 1.93 8.61 4.88.79-2.2 2.1-4.11 3.78-5.54h.1c-5.62 0-10.19-4.57-10.19-10.18v-2.89c-3.37-.7-5.91-3.68-5.91-7.25V4.71C17.97 2.14 15.87.05 13.3.05S8.63 2.14 8.63 4.71V28.3c0 .13.02.26.04.39l.04.36v17.14c0 8.43 6.87 15.29 15.31 15.29h5.33c-.5-4.38-3.8-7.77-7.79-7.77-.76 0-1.37-.61-1.37-1.37s.62-1.37 1.37-1.37m27.58-13.78H26.62v2.94c0 4.1 3.34 7.43 7.44 7.43h11.23c.11 0 .22.02.32.04.03 0 .06.02.08.03.08.02.15.05.22.09.02.01.05.02.07.04q.135.075.24.18a1.4 1.4 0 0 1 .42.99c0 .76-.62 1.37-1.38 1.37h-4s-.08.01-.12.01c-5.01 0-9.09 4.62-9.09 10.29 0 .11-.02.21-.04.31.02.18.06.37.07.55h6.91l.37.29c1.91 1.49 4.14 2.27 6.43 2.27 6.27 0 11.37-5.76 11.37-12.83 0-2.85-1.13-14.02-8.07-14.02Zm-16.38-6.54c.02.38.09.75.2 1.11l.03.11c.18.53.45 1.02.8 1.44.01.02.03.03.04.05.86 1.03 2.13 1.69 3.57 1.69s2.71-.67 3.56-1.69c.05-.05.09-.11.14-.16.09-.12.18-.24.26-.37.09-.15.18-.31.25-.47a4 4 0 0 0 .32-.91c.02-.08.04-.16.05-.24.05-.27.08-.54.08-.83V20.11c0-2.57-2.09-4.66-4.66-4.66s-4.67 2.09-4.67 4.66v10.27c0 .09.02.17.03.26Z"/></symbol><use style="display: var(--s16, none)" href="#s16"/><use style="display: var(--s24, none)" href="#s24"/><use style="display: var(--s32, none)" href="#s32"/><use style="display: var(--s40, none)" href="#s40"/><use style="display: var(--s48, none)" href="#s48"/><use style="display: var(--s64, none)" href="#s64"/></symbol></defs><style>@media (max-width: 23.98px) {g{--s16:block;}}@media (min-width: 24px) and (max-width: 31.98px) {g{--s24:block;}}@media (min-width: 32px) and (max-width: 39.98px) {g{--s32:block;}}@media (min-width: 40px) and (max-width: 47.98px) {g{--s40:block;}}@media (min-width: 48px) and (max-width: 63.98px) {g{--s48:block;}}@media (min-width: 64px) {g{--s64:block;}}</style><g><use href="#i-handsignlanguage-solid"/></g></svg>