<svg xmlns="http://www.w3.org/2000/svg"><defs><symbol id="i-handblood-solid"><symbol id="s16" viewBox="0 0 16 16"><path d="M14.26 10.69c.29.3 1.72 1.83 1.72 3.07s-1.01 2.26-2.26 2.26-2.26-1.01-2.26-2.26 1.43-2.78 1.72-3.07l.54-.55zm-5.94 1.69H6.96c-.22 0-.43.1-.57.25-.01.01-.02.03-.03.04-.05.06-.1.13-.14.2a.8.8 0 0 0 .73 1.1h1.36c.44 0 .79-.36.79-.79s-.36-.8-.79-.8Zm1.62-2.57H6.99c-.23 0-.43.1-.58.26-.01.02-.02.04-.04.05-.05.06-.09.11-.12.18a.7.7 0 0 0-.06.3q0 .165.06.3c.03.07.08.13.12.19.01.02.02.04.03.05.15.15.35.25.58.25h2.95c.44 0 .79-.36.79-.79s-.36-.8-.79-.8Zm2.13-1.77c0-.43-.35-.78-.78-.78H6.94a.78.78 0 0 0-.72 1.08c.03.07.08.14.13.2.01.01.02.03.03.04.13.14.32.23.53.24s.02 0 .03 0h4.35c.43 0 .78-.35.78-.78m-6.34 3.84c-.33-.33-.53-.78-.53-1.27 0-.5.2-.95.53-1.27-.34-.32-.56-.78-.56-1.29 0-.98.8-1.77 1.78-1.77h4.38c1.6-.02 3.36-.05 3.83-.06h.07c.43 0 .79-.35.79-.79s-.35-.79-.79-.79H5.86c-.2 0-.39-.12-.46-.31a.49.49 0 0 1 .12-.55l2.59-2.45c.17-.15.26-.34.26-.54S8.28.41 8.12.26C7.94.1 7.69.02 7.45.02s-.49.08-.67.24L1.62 3.95s-.05.04-.13.08C.51 4.6 0 5.33 0 6.21a2 2 0 0 0 .44 1.24c.07.09.11.19.11.31v.63h.04c.1 0 .2.02.3.03.02 0 .04-.01.06-.01 1.23 0 2.27-.64 2.27-1.39 0-.28.22-.5.5-.5s.5.22.5.5c0 .96-.75 1.77-1.84 2.15.35.38.57.86.57 1.4 0 .28-.22.5-.5.5s-.5-.22-.5-.5c0-.65-.61-1.17-1.36-1.17H.55v.87c0 1.68 1.37 3.05 3.05 3.05h1.57s-.01-.07-.01-.11c0-.52.22-.98.57-1.31Z"/></symbol><symbol id="s24" viewBox="0 0 24 24"><path d="m20.64 14.23-.54-.55-.54.55c-.35.35-3.38 3.5-3.38 5.83 0 2.14 1.76 3.89 3.92 3.89s3.92-1.74 3.92-3.89c0-2.31-3.03-5.48-3.38-5.83m-.65 8.27c-1.2 0-2.18-.97-2.18-2.16a.749.749 0 1 1 1.5 0c0 .37.3.67.68.67a.749.749 0 1 1 0 1.5Zm-6.33-2.95c0 .65-.53 1.17-1.18 1.17h-2.05c-.59 0-1.06-.44-1.15-1.01 0-.06-.03-.1-.03-.16v-.03q0-.24.09-.45c.05-.11.12-.21.2-.3.02-.02.03-.04.04-.06.21-.22.51-.36.85-.36h2.05c.65 0 1.18.53 1.18 1.2m2.44-3.84c0 .65-.53 1.17-1.18 1.17h-4.44s-.06-.01-.09-.02c-.3-.02-.58-.15-.77-.36-.02-.02-.03-.05-.05-.07-.07-.09-.14-.17-.18-.28-.06-.14-.09-.28-.09-.44v-.03c0-.16.03-.3.09-.44.04-.1.11-.19.18-.27.02-.03.03-.06.05-.08.22-.23.52-.38.86-.38h4.44c.65 0 1.18.53 1.18 1.2m.84-4.97c.64 0 1.16.52 1.16 1.15s-.52 1.15-1.16 1.15h-6.52s-.03 0-.05-.01c-.31-.01-.58-.14-.78-.35-.02-.02-.03-.04-.04-.06a.9.9 0 0 1-.19-.29c-.06-.13-.09-.28-.09-.44 0-.64.52-1.15 1.16-1.15h6.52Zm-9.19 8.79v.03c0 .05.01.1.02.16H5.42c-2.52 0-4.57-2.04-4.57-4.55V14s.04.01.06.01c1.06 0 1.92.72 1.92 1.62 0 .48.39.87.88.87s.88-.39.88-.87c0-.77-.29-1.46-.77-2.03 1.59-.61 2.67-1.82 2.67-3.25 0-.48-.39-.87-.88-.87s-.88.39-.88.87c0 1.04-1.53 1.95-3.27 1.95-.03 0-.06.02-.09.02-.15-.02-.3-.04-.46-.04-.02 0-.04.01-.06.01v-.8c0-.17-.06-.33-.16-.46-.44-.57-.67-1.21-.67-1.87 0-1.3.75-2.39 2.22-3.23.12-.07.19-.11.2-.12l7.71-5.5c.27-.24.64-.36 1-.36s.73.12 1.01.36c.24.21.37.49.37.79s-.13.57-.39.8L8.26 5.54c-.22.21-.3.53-.18.82.11.28.39.47.7.47h14.04c.65 0 1.18.52 1.18 1.16s-.53 1.17-1.18 1.17h-.1c-.71.01-3.36.06-5.76.09h-6.55c-1.47 0-2.66 1.19-2.66 2.65 0 .75.32 1.43.84 1.91-.48.48-.78 1.15-.78 1.88v.03c0 .74.3 1.4.79 1.88-.52.49-.84 1.17-.84 1.93Z"/></symbol><symbol id="s32" viewBox="0 0 32 32"><path d="m27 18.78-.54.55c-.46.47-4.45 4.64-4.45 7.69 0 2.75 2.24 4.99 4.99 4.99s4.99-2.24 4.99-4.99c0-3.02-4-7.21-4.45-7.68l-.54-.55Zm-.14 11.4c-1.54 0-2.79-1.25-2.79-2.79 0-.48.39-.87.88-.87s.88.39.88.87c0 .57.47 1.04 1.04 1.04.48 0 .88.39.88.87s-.39.87-.88.87Zm-8.66-3.84c0 .87-.71 1.58-1.58 1.58h-2.73c-.87 0-1.58-.71-1.58-1.58v-.03c0-.11.01-.21.03-.31 0-.05.03-.09.04-.13.02-.05.03-.11.05-.15.03-.06.06-.12.09-.17.02-.03.03-.06.05-.09.05-.07.1-.13.15-.19 0-.01.02-.02.03-.03.07-.07.14-.13.21-.19.24-.17.52-.28.83-.3s.06 0 .09 0h2.73c.87 0 1.58.71 1.58 1.6Zm3.26-5.16c0 .87-.71 1.58-1.58 1.58h-5.91c-.26 0-.5-.07-.72-.18-.08-.04-.16-.09-.23-.14 0 0-.02-.01-.03-.02-.06-.05-.12-.1-.18-.16-.02-.02-.03-.04-.04-.05-.05-.05-.09-.11-.13-.17-.02-.03-.04-.07-.06-.1-.03-.05-.06-.1-.08-.15a1 1 0 0 1-.05-.16c-.01-.04-.03-.08-.03-.12-.02-.1-.03-.2-.03-.31v-.03c0-.19.04-.37.1-.54 0-.01 0-.03.01-.04.07-.16.16-.31.27-.44 0 0 .02-.02.02-.03q.18-.195.42-.33h.01c.22-.12.47-.19.74-.19h5.91c.87 0 1.58.71 1.58 1.6Zm1.11-6.68c.86 0 1.55.7 1.55 1.55s-.7 1.55-1.55 1.55h-8.7s-.07 0-.11-.01a1.54 1.54 0 0 1-1.01-.48.1.1 0 0 1-.03-.04c-.05-.06-.1-.12-.14-.18-.02-.03-.03-.06-.05-.09-.03-.05-.06-.11-.09-.16-.02-.05-.03-.11-.05-.16-.01-.04-.03-.08-.04-.12a1.55 1.55 0 0 1 1.52-1.86zM10.31 26.31v.03c0 .07.02.14.02.21H7.19c-3.37-.01-6.1-2.75-6.1-6.11V18.6c1.46.05 2.63 1.07 2.63 2.33 0 .55.45 1 1 1s1-.45 1-1c0-1.06-.44-2.03-1.13-2.78 2.19-.76 3.67-2.38 3.67-4.31 0-.55-.45-1-1-1s-1 .45-1 1c0 1.51-2.08 2.78-4.53 2.78-.04 0-.08.02-.12.03-.17-.02-.33-.04-.51-.05v-1.12c0-.22-.07-.44-.21-.61C.3 14.12 0 13.26 0 12.38c0-1.76.99-3.22 2.96-4.35.12-.07.21-.12.28-.18L13.43.56s.06-.04.09-.07c.73-.65 1.96-.65 2.69 0 .32.29.5.66.5 1.06s-.18.77-.52 1.07l-5.17 4.9a1.003 1.003 0 0 0 .69 1.73h18.73a1.564 1.564 0 1 1 0 3.13s-.09 0-.13 0c-.97.02-4.68.08-7.95.12h-8.48a3.56 3.56 0 0 0-3.56 3.55c0 1.01.43 1.93 1.12 2.57-.65.65-1.05 1.54-1.05 2.52v.03c0 .99.41 1.89 1.06 2.53-.69.65-1.13 1.57-1.13 2.59Z"/></symbol><symbol id="s40" viewBox="0 0 40 40"><path d="m33.92 23.84-.54.55c-.23.23-5.51 5.7-5.51 9.5 0 3.34 2.71 6.06 6.04 6.06s6.04-2.72 6.04-6.06c0-3.77-5.28-9.27-5.51-9.5l-.54-.55Zm-.18 13.93c-1.87 0-3.39-1.52-3.39-3.4 0-.55.45-1 1-1s1 .45 1 1c0 .77.62 1.39 1.39 1.39.55 0 1 .45 1 1s-.45 1-1 1Zm-10.77-4.91c0 1.21-.98 2.19-2.18 2.19h-3.38c-1.2 0-2.18-.98-2.18-2.19v-.05c0-.15.02-.29.04-.43.01-.06.04-.12.05-.18.02-.07.04-.15.07-.22.04-.09.08-.17.13-.25.02-.04.04-.08.06-.11.06-.1.14-.19.22-.27.01-.01.02-.03.03-.04.37-.39.89-.64 1.46-.67s.08-.01.11-.01h3.38c1.2 0 2.18.98 2.18 2.23Zm4.02-6.4c0 1.21-.98 2.19-2.18 2.19h-7.32c-.49 0-.94-.17-1.31-.45 0 0-.02-.01-.03-.02-.09-.07-.18-.15-.26-.24-.02-.02-.04-.05-.06-.07-.07-.08-.13-.15-.18-.24-.03-.04-.05-.09-.07-.14-.04-.07-.08-.14-.11-.22-.03-.07-.05-.15-.07-.23-.02-.06-.04-.11-.05-.17-.03-.14-.04-.28-.04-.43v-.05c0-.15.02-.29.04-.42a1 1 0 0 1 .05-.16c.02-.08.04-.16.07-.23s.07-.14.1-.2c.03-.05.05-.1.08-.15.05-.08.11-.15.17-.22a.3.3 0 0 1 .07-.08c.07-.08.15-.15.24-.22.01-.01.03-.02.04-.04.1-.07.2-.14.3-.19h.02c.3-.16.64-.26 1-.26h7.32c1.2 0 2.18.98 2.18 2.23Zm1.14-8.52c1.19 0 2.16.97 2.16 2.16s-.97 2.16-2.16 2.16H17.38s-.09-.01-.14-.01c-.42-.03-.81-.17-1.13-.41-.1-.08-.2-.16-.29-.25-.01-.02-.03-.03-.04-.05a3 3 0 0 1-.2-.26c-.03-.04-.04-.08-.07-.12-.04-.08-.09-.15-.12-.23-.03-.07-.05-.14-.07-.22-.02-.06-.04-.12-.05-.18-.03-.14-.04-.28-.04-.43 0-1.19.97-2.16 2.16-2.16h10.75ZM13.22 32.81v.05c0 .17.03.33.05.49l-4.14-.02c-4.29 0-7.78-3.5-7.78-7.8V23c1.96.03 3.54 1.42 3.54 3.13 0 .55.45 1 1 1s1-.45 1-1c0-1.38-.6-2.63-1.57-3.56 2.79-.86 4.7-2.86 4.7-5.23 0-.55-.45-1-1-1s-1 .45-1 1c0 2-2.67 3.69-5.84 3.69-.04 0-.07.02-.1.02-.24-.03-.49-.05-.74-.06v-1.62c0-.22-.07-.44-.21-.62a5.22 5.22 0 0 1-1.12-3.21c0-2.27 1.27-4.15 3.78-5.6.15-.08.24-.14.32-.2L16.7.69s.06-.05.08-.07c.99-.89 2.65-.89 3.64 0 .45.4.7.93.7 1.49s-.25 1.08-.72 1.51l-6.39 6.07a1.003 1.003 0 0 0 .69 1.73h23.13c1.2 0 2.18.97 2.18 2.18s-.98 2.18-2.18 2.18c-.05 0-.1 0-.15.01-1.15.02-5.57.09-9.55.15H17.38c-2.29 0-4.15 1.87-4.15 4.17 0 1.29.6 2.42 1.51 3.19a4.16 4.16 0 0 0-1.42 3.13v.05c0 1.25.56 2.37 1.44 3.14-.92.77-1.52 1.92-1.52 3.21Z"/></symbol><symbol id="s48" viewBox="0 0 48 48"><path d="m40.89 29.09-.54.55c-.27.27-6.56 6.77-6.56 11.26 0 3.91 3.18 7.1 7.09 7.1s7.09-3.18 7.09-7.1c0-4.45-6.29-10.98-6.55-11.25l-.54-.55Zm1.03 15.24c0 .69-.56 1.25-1.25 1.25-2.27 0-4.11-1.85-4.11-4.12a1.25 1.25 0 0 1 2.5 0c0 .89.72 1.62 1.61 1.62.69 0 1.25.56 1.25 1.25M17.6 35.51c-1.09.93-1.79 2.29-1.79 3.83v.09c0 .18.04.36.05.54l-4.92-.02c-5.13 0-9.3-4.18-9.3-9.31v-2.98c2.31.06 4.17 1.69 4.17 3.71a1.25 1.25 0 0 0 2.5 0c0-1.64-.7-3.14-1.84-4.25 3.33-1.05 5.61-3.45 5.61-6.3a1.25 1.25 0 0 0-2.5 0c0 2.37-3.19 4.38-6.97 4.38-.04 0-.08.02-.12.02-.28-.04-.56-.06-.85-.07v-1.9c0-.28-.09-.55-.26-.77C.49 21.35.02 20.02.02 18.65c0-2.7 1.52-4.95 4.51-6.67.18-.1.29-.17.4-.25L20.07.87s.07-.06.11-.09c1.17-1.05 3.14-1.05 4.31 0 .53.48.82 1.1.82 1.75s-.29 1.27-.85 1.77l-7.68 7.28a1.252 1.252 0 0 0 .86 2.16h27.81c1.42-.01 2.57 1.14 2.57 2.56s-1.15 2.57-2.57 2.57c-.06 0-.13 0-.19.01-1.38.03-6.61.11-11.36.18-.04 0-.07-.01-.11-.01H20.84a5.04 5.04 0 0 0-5.03 5.03v.03c0 1.53.7 2.89 1.78 3.81-1.02.93-1.68 2.25-1.68 3.74v.09c0 1.49.66 2.82 1.69 3.75Zm9.93 3.92c0 1.41-1.15 2.56-2.56 2.56h-4.11c-1.41 0-2.56-1.15-2.56-2.56v-.09c0-.17.02-.34.05-.51.01-.07.04-.14.06-.21.03-.09.05-.17.08-.26.04-.1.1-.19.15-.28.03-.05.05-.09.08-.14.07-.11.16-.21.25-.31.02-.02.03-.04.04-.05.11-.11.23-.21.35-.31.42-.31.94-.49 1.49-.49h4.11c1.41 0 2.56 1.15 2.56 2.65Zm4.83-7.67c0 1.41-1.15 2.56-2.56 2.56h-8.84c-.08 0-.16-.02-.25-.02-.32-.03-.63-.12-.91-.26a3 3 0 0 1-.38-.24c-.01 0-.02-.02-.03-.03q-.165-.12-.3-.27a.5.5 0 0 0-.07-.08 2 2 0 0 1-.21-.28c-.03-.05-.06-.11-.09-.16-.05-.08-.09-.16-.13-.25-.03-.08-.06-.17-.08-.26l-.06-.2c-.03-.16-.05-.33-.05-.5v-.09c0-.17.02-.34.05-.5.01-.07.04-.13.05-.19.03-.09.05-.18.08-.27.03-.08.08-.16.12-.24.03-.06.06-.12.09-.17.06-.09.13-.18.2-.26.03-.03.05-.07.08-.1.09-.09.18-.18.28-.26.02-.01.03-.03.05-.04.11-.09.23-.16.36-.23 0 0 .01 0 .02-.01.35-.18.75-.3 1.17-.3h8.84c1.41 0 2.56 1.15 2.56 2.65Zm1.43-5.1H20.84c-.56 0-1.07-.19-1.49-.5-.12-.09-.24-.19-.34-.3-.02-.02-.03-.04-.05-.06q-.135-.15-.24-.3c-.03-.04-.05-.09-.08-.14-.05-.09-.1-.18-.14-.27-.03-.08-.05-.17-.08-.25-.02-.07-.05-.14-.06-.21-.03-.16-.05-.33-.05-.5v-.03c0-1.4 1.13-2.53 2.53-2.53h12.95c1.4 0 2.53 1.14 2.53 2.56s-1.13 2.53-2.53 2.53"/></symbol><symbol id="s64" viewBox="0 0 64 64"><path d="m54.76 39.54-.54.55c-.35.36-8.6 8.9-8.6 14.74 0 5.05 4.1 9.16 9.13 9.16s9.13-4.11 9.13-9.16c0-5.8-8.24-14.37-8.59-14.74l-.54-.55Zm1.09 19.84c0 .76-.61 1.38-1.37 1.38-2.84 0-5.15-2.32-5.15-5.17 0-.76.61-1.38 1.37-1.38s1.37.62 1.37 1.38a2.42 2.42 0 0 0 2.41 2.42c.76 0 1.37.62 1.37 1.38ZM24.02 47.35a6.43 6.43 0 0 0-2.5 5.08v.1c0 .33.03.66.08.98l-6.79-.02c-6.93 0-12.58-5.66-12.58-12.62v-4.25s.08.01.12.01c3.28 0 5.95 2.34 5.95 5.21 0 .76.61 1.38 1.37 1.38s1.37-.62 1.37-1.38c0-2.27-1.04-4.31-2.71-5.76 4.55-1.28 7.69-4.43 7.69-8.22 0-.76-.61-1.38-1.37-1.38s-1.37.62-1.37 1.38c0 3.3-4.35 6.08-9.49 6.08-.08 0-.16.01-.23.02-.4-.05-.8-.09-1.21-.09-.04 0-.08 0-.12.01v-2.8c0-.31-.1-.6-.29-.84C.73 28.68.08 26.86.08 24.98c0-3.69 2.05-6.75 6.11-9.08.23-.13.37-.21.49-.31L26.72 1.21l.12-.09c1.67-1.5 4.39-1.5 6.06 0 .76.68 1.18 1.58 1.18 2.53s-.42 1.84-1.21 2.55l-10.16 9.65c-.41.39-.54.99-.33 1.51s.71.87 1.27.87l36.76-.02c2.03 0 3.68 1.66 3.68 3.69s-1.65 3.69-3.68 3.69c-.08 0-.15 0-.23.02-1.91.04-9.42.16-15.92.24H27.9c-3.52 0-6.38 2.87-6.38 6.4 0 2.06.98 3.89 2.48 5.06a6.42 6.42 0 0 0-2.34 4.96v.1c0 2 .92 3.8 2.36 4.98m12.99 5.08v.1c0 2.03-1.65 3.68-3.67 3.68h-5.41c-1.68 0-3.08-1.14-3.52-2.69-.04-.14-.07-.27-.09-.42-.03-.19-.06-.38-.06-.57v-.1c0-.25.03-.49.07-.72.02-.1.06-.19.09-.29.04-.13.07-.26.12-.38.05-.13.13-.25.2-.38.04-.07.07-.15.12-.22q.15-.225.33-.42c.03-.03.05-.07.08-.1.14-.15.3-.29.46-.41.01 0 .02-.02.03-.02.54-.4 1.18-.65 1.89-.71.1 0 .2-.03.3-.03h5.41c2.02 0 3.67 1.65 3.67 3.68Zm6.39-10.16v.1c0 2.03-1.65 3.68-3.67 3.68H28.07c-.13 0-.26-.03-.39-.04a3.7 3.7 0 0 1-1.28-.38h-.02c-.19-.1-.36-.21-.53-.33-.02-.02-.04-.03-.06-.05-.15-.12-.29-.24-.41-.38-.04-.04-.07-.09-.11-.13-.1-.12-.2-.25-.29-.38-.05-.08-.09-.16-.13-.24-.06-.12-.13-.23-.18-.35s-.08-.25-.12-.38c-.03-.09-.06-.18-.08-.28-.05-.23-.07-.47-.07-.72v-.1c0-.24.03-.48.07-.71.02-.09.05-.17.08-.26.04-.13.07-.27.12-.39.05-.11.11-.22.16-.33.05-.09.09-.18.14-.26.08-.13.17-.24.26-.36.04-.05.08-.11.13-.16.12-.13.24-.24.37-.35.03-.03.06-.05.09-.08.15-.12.31-.22.48-.31.02 0 .03-.02.05-.03q.27-.15.57-.24h.02c.35-.11.72-.19 1.11-.19h11.66c2.02 0 3.67 1.65 3.67 3.68Zm1.59-6.37H27.91c-.12 0-.24-.02-.35-.04a3.57 3.57 0 0 1-1.83-.72c-.02-.01-.03-.03-.05-.04-.15-.12-.3-.25-.43-.39-.03-.04-.06-.08-.1-.12-.11-.13-.21-.25-.3-.4-.05-.07-.08-.15-.13-.23-.06-.12-.13-.23-.18-.36-.05-.12-.08-.25-.12-.38-.03-.09-.06-.18-.08-.28a3.65 3.65 0 0 1 3.57-4.36h17.08c2.01 0 3.64 1.64 3.64 3.65s-1.63 3.65-3.64 3.65Z"/></symbol><use style="display: var(--s16, none)" href="#s16"/><use style="display: var(--s24, none)" href="#s24"/><use style="display: var(--s32, none)" href="#s32"/><use style="display: var(--s40, none)" href="#s40"/><use style="display: var(--s48, none)" href="#s48"/><use style="display: var(--s64, none)" href="#s64"/></symbol></defs><style>@media (max-width: 23.98px) {g{--s16:block;}}@media (min-width: 24px) and (max-width: 31.98px) {g{--s24:block;}}@media (min-width: 32px) and (max-width: 39.98px) {g{--s32:block;}}@media (min-width: 40px) and (max-width: 47.98px) {g{--s40:block;}}@media (min-width: 48px) and (max-width: 63.98px) {g{--s48:block;}}@media (min-width: 64px) {g{--s64:block;}}</style><g><use href="#i-handblood-solid"/></g></svg>