<svg xmlns="http://www.w3.org/2000/svg"><defs><symbol id="i-handvictory"><symbol id="s16" viewBox="0 0 16 16"><path d="M12.49.65c-.51-.11-1.04-.01-1.47.27-.44.29-.74.73-.85 1.22l-.25 1.05-.28-1.49c-.08-.52-.35-.98-.78-1.29a1.95 1.95 0 0 0-2.74.42c-.31.42-.44.94-.36 1.46l.18 1.19c-.27-.03-.54-.01-.82.07-.5.16-.91.5-1.15.97-.08.16-.13.32-.17.49a1.94 1.94 0 0 0-1.88 1.05c-.24.47-.29 1-.13 1.5v3.85c0 2.26 1.83 4.11 4.09 4.11h2.67c.51.34 1.09.52 1.7.52 1.82 0 3.3-1.62 3.3-3.61 0-.74-.21-1.45-.61-2.07v-2.6c.04-.25.66-3.06 1.05-4.77.22-1.06-.45-2.11-1.51-2.33Zm-1.92 6.34 1.06-4.51c.03-.12.1-.22.2-.29s.22-.09.34-.06.22.1.29.2.09.22.07.34c-1.08 4.8-1.08 4.89-1.08 5v1.31L9.88 7.57c.32-.02.62-.24.7-.57ZM7.34 1.74c.07-.1.18-.16.3-.18.13-.01.24.01.34.08s.16.18.19.33l.94 4.99s.02.06.04.09c-.29-.13-.61-.2-.93-.21l-.45-1.46-.5-3.31c-.02-.12.01-.24.08-.34ZM5.32 5.23c.06-.11.15-.19.27-.23.05-.01.09-.02.14-.02.07 0 .15.02.21.05.11.06.19.15.23.27l.62 2s-.07.04-.1.07c-.27.22-.46.5-.59.8l-.02-.07v-.02l-.53-1.7v-.01l-.25-.8a.43.43 0 0 1 .03-.35Zm-.99 3.89c-.25.08-.5-.06-.57-.3l-.53-1.7c-.04-.12-.03-.24.03-.35s.15-.19.27-.23a.5.5 0 0 1 .35.03c.11.06.18.15.22.27l.53 1.71c.07.24-.06.5-.3.57m-1.03 2.3v-.99c.28.15.59.22.9.22.2 0 .39-.03.59-.09.27-.09.51-.23.71-.41.09.07.2.14.31.2.28.15.59.22.91.22h.02l.74.73c-.29.24-.55.55-.74.93-.31-.19-.67-.3-1.05-.3-.41 0-.75.34-.75.75s.34.75.75.75c.3 0 .55.25.63.59h-.43a2.6 2.6 0 0 1-2.59-2.6m6.95 3.11c-.35 0-.7-.12-.99-.36a.76.76 0 0 0-.46-.16h-.97c0-.02.01-.03.01-.05 0-.82.36-1.45.72-1.59l.72.7c.15.14.33.21.52.21s.39-.08.54-.23c.29-.3.28-.78-.01-1.07L7.61 9.31a.52.52 0 0 1-.17-.4c0-.15.08-.28.21-.39.31-.26.83-.24 1.14.07l2.92 2.62s.01 0 .02.01c.17.28.33.68.33 1.19 0 1.16-.81 2.11-1.8 2.11Z"/></symbol><symbol id="s24" viewBox="0 0 24 24"><path d="M20.89 1.73c-.39-.6-.99-1.02-1.7-1.17-1.45-.31-2.88.62-3.18 2.05l-.87 3.68-.76-4.02c-.11-.71-.49-1.34-1.07-1.76s-1.28-.59-1.99-.48S9.99.52 9.56 1.1c-.42.58-.6 1.29-.49 2l.43 2.73c-.46-.11-.95-.12-1.43.04a2.67 2.67 0 0 0-1.85 2.22 2.65 2.65 0 0 0-2.81 1.4c-.33.64-.4 1.36-.18 2.05l.02.08s-.01.09-.01.14v5.6a5.89 5.89 0 0 0 5.88 5.88h4.08c.74.51 1.59.77 2.47.77 2.59 0 4.7-2.31 4.7-5.14 0-1.09-.31-2.12-.91-3.01v-4.03c.12-.61 1.16-5.21 1.81-8.06v-.01c.15-.7.02-1.42-.37-2.02ZM8.59 7.54a.95.95 0 0 1 1.18.62l.99 3.16c-.1.06-.2.12-.29.19-.6.5-.95 1.17-1.02 1.92l-.3-.95v-.01l-.79-2.53v-.02l-.37-1.19a.95.95 0 0 1 .61-1.18ZM7.41 13.7c-.12.22-.31.38-.55.46s-.49.05-.71-.06a.96.96 0 0 1-.46-.55l-.79-2.53a1 1 0 0 1 .06-.72c.12-.22.31-.38.55-.46a.94.94 0 0 1 1.17.61l.8 2.55c.07.24.05.49-.07.71Zm-2.42 3.65v-1.94c.11.08.23.16.35.23.39.2.81.31 1.24.31q.405 0 .81-.12c.44-.14.82-.39 1.13-.72.17.16.36.31.58.43.39.2.81.31 1.24.31h.13l1.4 1.37c-.58.38-1.05.98-1.37 1.72a2.82 2.82 0 0 0-1.69-.57c-.48 0-.88.39-.88.88s.39.88.88.88c.66 0 1.2.61 1.25 1.38h-.94c-2.28 0-4.13-1.85-4.13-4.13Zm10.67 4.91c-.58 0-1.15-.2-1.65-.59a.86.86 0 0 0-.54-.18H11.8c0-.09-.01-.17-.02-.26 0-.03.02-.05.02-.08 0-1.48.72-2.52 1.41-2.64l1.17 1.14c.17.17.39.25.61.25s.46-.09.63-.26c.34-.35.33-.9-.02-1.24l-4.09-3.98c-.23-.22-.35-.5-.34-.79s.15-.56.4-.76c.57-.47 1.49-.43 2.02.08l4.09 3.98c.14.14.33.21.51.23.28.52.42 1.11.42 1.71 0 1.87-1.32 3.39-2.95 3.39m3.9-18.88c-1.85 8.1-1.85 8.24-1.85 8.37v2.75l-2.89-2.82c-.65-.63-1.53-.93-2.4-.9l-.75-2.39-.87-5.56c-.08-.51.27-.99.79-1.07.25-.04.5.02.7.17.2.14.33.36.37.63l1.53 8.08c.08.41.43.7.84.71.39-.01.78-.27.87-.67l1.82-7.69a.934.934 0 0 1 1.7-.31c.13.21.18.46.13.7Z"/></symbol><symbol id="s32" viewBox="0 0 32 32"><path d="M27.92 2.21c-.5-.77-1.26-1.29-2.16-1.48-.89-.19-1.8-.02-2.57.48s-1.29 1.26-1.47 2.12l-1.53 6.16-1.27-6.62c-.14-.9-.62-1.7-1.36-2.23a3.4 3.4 0 0 0-2.53-.6c-.9.14-1.7.62-2.24 1.35-.54.74-.76 1.64-.62 2.55l.68 4.2c-.66-.21-1.36-.22-2.04 0a3.415 3.415 0 0 0-2.38 2.99 3.4 3.4 0 0 0-1.73.07c-.87.27-1.58.87-2.01 1.68-.42.81-.51 1.74-.23 2.61l.04.14c0 .07-.02.14-.02.21v7.47c0 4.23 3.44 7.68 7.67 7.68h5.49c.97.67 2.09 1.03 3.24 1.03 3.36 0 6.1-3 6.1-6.69 0-1.43-.42-2.8-1.21-3.96v-5.44c.15-.78 1.63-6.99 2.62-11.09v-.03c.19-.89.02-1.81-.48-2.57ZM11.4 10.04c.14-.04.28-.07.42-.07.23 0 .45.05.66.16.33.18.58.47.7.83l1.35 4.33c-.16.1-.32.2-.47.32-.81.67-1.28 1.59-1.32 2.6 0 .14.02.28.03.42-.14-.15-.26-.32-.32-.53l-.4-1.28v-.02l-1.06-3.38s0-.02-.01-.02l-.5-1.59c-.23-.75.18-1.54.93-1.78Zm-2.2 9.15c-.75.23-1.54-.18-1.78-.93l-1.06-3.38c-.11-.36-.08-.75.1-1.08s.47-.58.83-.7c.14-.04.28-.07.43-.07.22 0 .45.05.65.16.33.17.57.47.69.82l1.07 3.42c.22.74-.2 1.52-.93 1.75Zm-2.72 4.1v-2.94c.62.57 1.44.9 2.3.9.34 0 .68-.05 1.02-.16.63-.2 1.15-.56 1.55-1.03.64.66 1.52 1.04 2.45 1.04.07 0 .15-.01.22-.02l2.06 2.01c-.88.51-1.59 1.41-2.03 2.55-.65-.53-1.44-.86-2.31-.86-.55 0-1 .45-1 1s.45 1 1 1c1.02 0 1.85.97 1.85 2.17h-1.44c-3.13 0-5.67-2.55-5.67-5.68Zm14.4 6.7c-.82 0-1.61-.28-2.3-.82a.98.98 0 0 0-.61-.21h-2.38c0-.18-.03-.34-.05-.51 0-.04.02-.07.02-.1 0-.73.14-1.43.38-2.02l.88-1.29c.26-.22.55-.36.84-.39l1.62 1.57c.19.19.45.28.7.28s.52-.1.72-.3c.38-.4.38-1.03-.02-1.41l-5.45-5.31c-.34-.33-.52-.75-.5-1.18s.23-.84.59-1.14c.82-.67 2.15-.62 2.91.12l5.45 5.31c.19.18.43.27.67.28a5 5 0 0 1 .63 2.43c0 2.59-1.84 4.69-4.1 4.69m5.56-25.63c-2.67 11.11-2.67 11.31-2.67 11.46v4.06l-4.14-4.03c-.87-.84-2.04-1.22-3.2-1.15l-1.05-3.37-1.25-7.71a1.417 1.417 0 0 1 1.19-1.61 1.393 1.393 0 0 1 1.62 1.2l2.13 11.11c.09.46.49.8.96.81h.03c.46 0 .86-.31.97-.76l2.64-10.6c.08-.37.3-.69.61-.89.32-.21.7-.28 1.07-.2s.69.3.89.61.27.69.2 1.06Z"/></symbol><symbol id="s40" viewBox="0 0 40 40"><path d="M34.89 2.67c-.6-.93-1.53-1.57-2.61-1.8s-2.19-.03-3.12.58-1.57 1.53-1.79 2.59l-2.12 9.07-1.73-9.61A4.03 4.03 0 0 0 21.87.8c-.89-.64-1.98-.9-3.07-.74-1.09.17-2.06.75-2.71 1.64-.66.89-.92 1.99-.76 3.09l.92 5.71c-.86-.32-1.79-.36-2.67-.08-1.63.51-2.72 1.95-2.89 3.55-.73-.19-1.51-.18-2.25.05-2.18.68-3.4 3.02-2.72 5.2l.07.24c-.01.15-.04.29-.04.45v9.34c0 5.22 4.25 9.47 9.47 9.47h6.9A6.95 6.95 0 0 0 26.13 40c4.14 0 7.5-3.7 7.5-8.24 0-1.78-.52-3.47-1.51-4.92v-6.85c.18-.94 2.08-8.92 3.35-14.19v-.03c.23-1.08.02-2.19-.58-3.12Zm-20.66 9.91q.285-.09.57-.09c.3 0 .6.07.88.22.45.24.78.63.93 1.11l1.72 5.5c-.23.13-.45.27-.66.44-.98.81-1.55 1.93-1.61 3.16-.01.29.01.57.06.85-.31-.24-.55-.56-.67-.94l-.36-1.16c-.03-.23-.07-.46-.14-.69l-1.32-4.23c-.07-.23-.17-.44-.28-.65l-.36-1.14c-.31-1 .25-2.06 1.24-2.38m-5.13 3.6c.19-.06.38-.09.56-.09.67 0 1.28.37 1.62.95l1.59 5.08c.02.33-.05.67-.21.97-.23.45-.63.78-1.11.93-1 .31-2.06-.24-2.38-1.24l-1.32-4.22c-.31-1 .25-2.06 1.24-2.38ZM8 29.26v-4.18c.78.81 1.86 1.29 3 1.29a4.1 4.1 0 0 0 3.11-1.42 4.14 4.14 0 0 0 3.16 1.46c.11 0 .23-.02.34-.03l2.74 2.67c-1.18.63-2.14 1.84-2.7 3.38-.81-.72-1.82-1.16-2.94-1.16-.62 0-1.12.5-1.12 1.13s.5 1.13 1.12 1.13c1.34 0 2.44 1.28 2.44 2.85 0 .04.02.08.02.12h-1.94c-3.98 0-7.22-3.24-7.22-7.22Zm18.13 8.5c-1.05 0-2.07-.36-2.95-1.05-.2-.15-.44-.24-.69-.24h-3.13s.02-.07.02-.12c0-.22-.03-.44-.06-.65 0-.04.03-.08.03-.13 0-.76.13-1.48.33-2.13l1.6-2.34c.28-.17.57-.27.87-.29l2.06 2.01a1.137 1.137 0 0 0 1.6-.02c.43-.45.42-1.16-.02-1.59l-6.81-6.64c-.45-.44-.69-1-.66-1.57s.3-1.11.79-1.51c1.07-.88 2.81-.81 3.83.18l6.87 6.26c.14.13.3.2.47.24a6.4 6.4 0 0 1 1.11 3.59c0 3.3-2.36 5.99-5.25 5.99Zm7.14-32.45c-3.4 14.19-3.4 14.44-3.4 14.61v5.03l-5.38-4.9c-1.06-1.03-2.55-1.49-4-1.38l-1.36-4.33-1.6-9.89c-.08-.5.05-1 .35-1.41s.74-.68 1.24-.75c.51-.08 1.01.04 1.42.34.4.29.67.72.75 1.25l2.7 14.99c.09.53.54.91 1.08.93.54 0 1-.35 1.12-.87l3.37-14.39c.11-.5.4-.92.82-1.19.42-.28.93-.37 1.43-.26s.92.4 1.19.82.37.92.27 1.41Z"/></symbol><symbol id="s48" viewBox="0 0 48 48"><path d="M41.83 3.16a4.9 4.9 0 0 0-3.07-2.12 4.84 4.84 0 0 0-3.67.68c-1.09.71-1.84 1.8-2.11 3.05l-2.66 11.47-2.16-12.15c-.2-1.29-.89-2.42-1.94-3.18a4.88 4.88 0 0 0-3.61-.86c-1.29.2-2.42.88-3.19 1.93a4.85 4.85 0 0 0-.89 3.63l1.15 7.25c-1.06-.44-2.22-.52-3.32-.17a4.85 4.85 0 0 0-2.86 2.39c-.31.6-.49 1.24-.54 1.89-.9-.25-1.85-.24-2.76.04-2.56.8-4 3.55-3.19 6.11l.09.29c-.02.19-.05.37-.05.56v11.21c0 6.21 5.05 11.27 11.26 11.27h8.32c1.43 1.01 3.08 1.54 4.78 1.54 4.91 0 8.9-4.39 8.9-9.79 0-2.12-.63-4.15-1.82-5.87v-8.26c.21-1.08 2.5-10.81 4.02-17.22v-.03c.27-1.27.03-2.58-.68-3.67ZM15.71 16.25a2.37 2.37 0 0 1 4.37.39l2.09 6.67c-.29.16-.58.35-.84.56-1.16.96-1.83 2.28-1.89 3.71-.02.42.02.82.11 1.22-.48-.29-.86-.74-1.04-1.31l-.45-1.42c-.04-.26-.08-.53-.16-.79l-1.59-5.07c-.08-.27-.2-.53-.33-.77l-.43-1.38c-.19-.61-.13-1.25.16-1.81m-4.77 3.16c.23-.07.47-.11.71-.11.38 0 .75.09 1.1.27.38.2.69.5.91.86l1.94 6.18c.06 1.06-.6 2.07-1.65 2.4-1.25.39-2.58-.31-2.98-1.56l-1.59-5.07c-.39-1.25.31-2.59 1.56-2.98ZM9.55 35.19V29.9a4.9 4.9 0 0 0 3.7 1.72c.48 0 .97-.07 1.45-.22.93-.29 1.71-.85 2.29-1.55.92 1.13 2.31 1.82 3.78 1.82.14 0 .29-.02.43-.03l3.42 3.34c-1.49.74-2.68 2.24-3.35 4.17-.97-.9-2.22-1.45-3.58-1.45a1.25 1.25 0 0 0 0 2.5c.6 0 1.15.21 1.62.56l.87.97c.34.57.53 1.25.53 1.99 0 .08.03.16.05.24h-2.45c-4.83 0-8.76-3.93-8.76-8.77M31.4 45.5c-1.28 0-2.53-.44-3.6-1.28-.22-.17-.49-.26-.77-.26h-3.87c.02-.08.05-.15.05-.24q0-.435-.06-.84c0-.03.02-.06.02-.1 0-.79.1-1.55.29-2.25l2.27-3.33c.3-.15.61-.23.93-.25l2.52 2.45c.24.24.56.35.87.35s.65-.13.9-.38c.48-.49.47-1.29-.02-1.77l-8.17-7.97c-.56-.55-.85-1.24-.82-1.96s.38-1.39.98-1.89c1.32-1.09 3.47-1 4.75.24l8.49 7.37.06.03c0 .01.01.03.02.05a7.8 7.8 0 0 1 1.56 4.71c0 4.02-2.87 7.29-6.4 7.29Zm8.67-39.2c-4.08 17.2-4.08 17.51-4.08 17.69v5.98l-6.63-5.75c-1.27-1.24-3.07-1.78-4.8-1.62l-1.64-5.24-1.93-12.11c-.1-.63.06-1.25.43-1.77.38-.51.93-.85 1.56-.94.63-.1 1.26.05 1.77.42s.84.91.94 1.56l3.24 18.19c.1.59.6 1.02 1.2 1.03.56.02 1.12-.39 1.25-.97l4.04-17.44a2.377 2.377 0 0 1 4.32-.8c.34.53.46 1.16.33 1.78Z"/></symbol><symbol id="s64" viewBox="0 0 64 64"><path d="M55.53 4.65a6.13 6.13 0 0 0-3.92-2.69 6.15 6.15 0 0 0-4.67.86c-1.39.9-2.35 2.3-2.69 3.89L40.39 23.4 37.15 5.22a6.1 6.1 0 0 0-2.47-4.05 6.22 6.22 0 0 0-4.6-1.1 6.207 6.207 0 0 0-5.2 7.09l1.71 10.75c-1.4-.73-3.08-.92-4.71-.42-2.62.82-4.3 3.22-4.35 5.82a6.14 6.14 0 0 0-3.86-.06c-1.58.5-2.88 1.58-3.65 3.05s-.92 3.15-.42 4.74l.13.42c-.03.27-.06.53-.06.81v14.94c0 8.12 6.61 14.73 14.73 14.73h11.18c1.88 1.35 4.04 2.05 6.28 2.05 6.38 0 11.58-5.73 11.58-12.76 0-2.8-.84-5.47-2.42-7.73V32.36c.24-1.32 3.32-14.38 5.37-23.01v-.03c.35-1.62.04-3.28-.87-4.67ZM20.68 21.82a3.46 3.46 0 0 1 3.07-1.86c.55 0 1.1.13 1.6.4.82.43 1.42 1.15 1.7 2.03l2.85 9.12c-.45.23-.89.51-1.29.84-1.48 1.22-2.34 2.9-2.42 4.74-.03.74.07 1.46.29 2.15a3.44 3.44 0 0 1-2.1-2.2l-.57-1.82c-.05-.38-.12-.76-.24-1.13l-2.12-6.76c-.11-.36-.26-.7-.44-1.03l-.58-1.85c-.28-.88-.19-1.82.24-2.64Zm-8.21 5.76a3.46 3.46 0 0 1 3.07-1.86 3.46 3.46 0 0 1 2.95 1.68l2.61 8.33c.04.63-.08 1.25-.38 1.82-.43.82-1.15 1.42-2.03 1.7s-1.82.19-2.64-.24-1.42-1.15-1.7-2.03l-2.12-6.76c-.28-.88-.19-1.82.24-2.64m-.04 19.63v-7.94c.58.91 1.36 1.67 2.34 2.18.9.47 1.88.71 2.87.71.62 0 1.25-.09 1.86-.29 1.28-.4 2.35-1.2 3.13-2.26a6.21 6.21 0 0 0 5.05 2.6c.23 0 .46-.03.69-.05l4.95 4.83c-2.2.93-3.96 3.14-4.85 6.02-1.27-1.34-3-2.17-4.9-2.17-.76 0-1.38.62-1.38 1.38s.62 1.38 1.38 1.38c2.39 0 4.33 2.24 4.33 4.99 0 .22.06.42.15.61h-3.64c-6.6 0-11.98-5.38-11.98-11.98Zm29.44 14.04c-1.78 0-3.5-.61-4.98-1.76-.24-.19-.54-.29-.84-.29h-5.54c.09-.18.15-.39.15-.61 0-.36-.03-.71-.07-1.05 0-.06.02-.13.02-.2 0-4.36 2.31-8.05 5.06-8.07l3.45 3.36c.27.26.61.39.96.39s.72-.14.99-.42c.53-.54.52-1.41-.03-1.95l-10.9-10.62c-.81-.79-1.23-1.79-1.19-2.84.04-1.04.55-2.01 1.42-2.73 1.9-1.57 4.89-1.45 6.71.33l11.32 9.83s.07.04.11.06c.02.03.03.06.05.09 1.4 1.87 2.15 4.1 2.15 6.46 0 5.52-3.96 10.01-8.83 10.01ZM53.71 8.74c-5.44 22.91-5.44 23.33-5.44 23.53v8.61l-9.34-8.1c-1.69-1.65-4.11-2.35-6.41-2.07l-2.26-7.24-2.67-16.73c-.14-.91.08-1.83.63-2.57s1.35-1.23 2.26-1.37c1.89-.29 3.66.99 3.95 2.88l4.42 24.83c.11.64.67 1.12 1.32 1.13.65 0 1.23-.43 1.38-1.07l5.39-23.26a3.456 3.456 0 0 1 6.28-1.16c.5.77.67 1.69.49 2.59"/></symbol><use style="display: var(--s16, none)" href="#s16"/><use style="display: var(--s24, none)" href="#s24"/><use style="display: var(--s32, none)" href="#s32"/><use style="display: var(--s40, none)" href="#s40"/><use style="display: var(--s48, none)" href="#s48"/><use style="display: var(--s64, none)" href="#s64"/></symbol></defs><style>@media (max-width: 23.98px) {g{--s16:block;}}@media (min-width: 24px) and (max-width: 31.98px) {g{--s24:block;}}@media (min-width: 32px) and (max-width: 39.98px) {g{--s32:block;}}@media (min-width: 40px) and (max-width: 47.98px) {g{--s40:block;}}@media (min-width: 48px) and (max-width: 63.98px) {g{--s48:block;}}@media (min-width: 64px) {g{--s64:block;}}</style><g><use href="#i-handvictory"/></g></svg>