<svg xmlns="http://www.w3.org/2000/svg"><defs><symbol id="i-hardware-solid"><symbol id="s16" viewBox="0 0 16 16"><path d="M15 .02H.99c-.55 0-.99.45-.99 1v2.84c0 .55.45 1 1 1h14c.55 0 1-.45 1-1V1.02c0-.55-.45-1-1-1M2.97 3.19h-1.5v-1.5h1.5zm2.51 0h-1.5v-1.5h1.5zm8.92 0H8.91a.749.749 0 1 1 0-1.5h5.49a.749.749 0 1 1 0 1.5m.6 2.42H.99c-.55 0-.99.45-.99 1v2.84c0 .55.45 1 1 1h14c.55 0 1-.45 1-1V6.61c0-.55-.45-1-1-1M2.97 8.75h-1.5v-1.5h1.5zm2.51 0h-1.5v-1.5h1.5zm8.92 0H8.91a.749.749 0 1 1 0-1.5h5.49a.749.749 0 1 1 0 1.5m.6 2.44H.99c-.55 0-.99.45-.99 1v2.84c0 .55.45 1 1 1h14c.55 0 1-.45 1-1v-2.84c0-.55-.45-1-1-1M2.97 14.31h-1.5v-1.5h1.5zm2.51 0h-1.5v-1.5h1.5zm8.92 0H8.91a.749.749 0 1 1 0-1.5h5.49a.749.749 0 1 1 0 1.5"/></symbol><symbol id="s24" viewBox="0 0 24 24"><path d="M22.99.04h-22C.44.04 0 .48 0 1.03v5.42c0 .55.45 1 1 1h22c.55 0 1-.45 1-1V1.03c0-.55-.45-1-1-1ZM3.8 4.62H2.01V2.87H3.8zm3.32 0H5.33V2.87h1.79zm14.66 0h-8.43a.87.87 0 0 1 0-1.74h8.43a.87.87 0 0 1 0 1.74m1.21 3.71h-22c-.55 0-1 .45-1 1v5.42c0 .55.45 1 1 1h22c.55 0 1-.45 1-1V9.33c0-.55-.45-1-1-1M3.8 12.87H2.01v-1.75H3.8zm3.32 0H5.33v-1.75h1.79zm14.66 0h-8.43a.87.87 0 0 1 0-1.74h8.43a.87.87 0 0 1 0 1.74m1.21 3.75h-22c-.55 0-1 .45-1 1v5.42c0 .55.45 1 1 1h22c.55 0 1-.45 1-1v-5.42c0-.55-.45-1-1-1M3.8 21.13H2.01v-1.75H3.8zm3.32 0H5.33v-1.75h1.79zm14.66 0h-8.43a.87.87 0 0 1 0-1.74h8.43a.87.87 0 0 1 0 1.74"/></symbol><symbol id="s32" viewBox="0 0 32 32"><path d="M30.49.05H1.48C.66.05-.01.72-.01 1.54v7c0 .83.67 1.5 1.5 1.5h29c.83 0 1.5-.67 1.5-1.5v-7c0-.83-.67-1.5-1.5-1.5ZM4.63 6.04h-2V4.05h2zm3.76 0h-2V4.05h2zm3.66 0h-2V4.05h2zm17.11 0H17.8c-.55 0-1-.45-1-1s.45-1 1-1h11.36c.55 0 1 .45 1 1s-.45 1-1 1m1.33 5.01H1.48c-.82 0-1.49.67-1.49 1.5v7c0 .83.67 1.5 1.5 1.5h29c.83 0 1.5-.67 1.5-1.5v-7c0-.83-.67-1.5-1.5-1.5M4.63 17h-2v-1.99h2zm3.76 0h-2v-1.99h2zm3.66 0h-2v-1.99h2zm17.11 0H17.8c-.55 0-1-.45-1-1s.45-1 1-1h11.36c.55 0 1 .45 1 1s-.45 1-1 1m1.33 5.06H1.48c-.83 0-1.5.67-1.5 1.5v7c0 .83.67 1.5 1.5 1.5h29c.83 0 1.5-.67 1.5-1.5v-7c0-.83-.67-1.5-1.5-1.5ZM4.63 27.95h-2v-1.99h2zm3.76 0h-2v-1.99h2zm3.66 0h-2v-1.99h2zm17.11 0H17.8c-.55 0-1-.45-1-1s.45-1 1-1h11.36c.55 0 1 .45 1 1s-.45 1-1 1"/></symbol><symbol id="s40" viewBox="0 0 40 40"><path d="M38.02-.06H2.03C.92-.06.02.83.02 1.92v8.58c0 1.1.9 1.99 2 1.99h36c1.11 0 2-.89 2-1.99V1.92c0-1.1-.9-1.99-2-1.99ZM5.93 7.34H3.68V5.1h2.25zm4.62 0H8.3V5.1h2.25zm4.49 0h-2.25V5.1h2.25zm20.61 0H21.29c-.62 0-1.13-.5-1.13-1.12s.5-1.12 1.13-1.12h14.36c.62 0 1.13.5 1.13 1.12s-.5 1.12-1.13 1.12m2.37 6.3H2.03c-1.11 0-2.01.89-2.01 1.98v8.58c0 1.1.9 1.99 2 1.99h36c1.11 0 2-.89 2-1.99v-8.58c0-1.1-.9-1.99-2-1.99ZM5.93 20.97H3.68v-2.24h2.25zm4.62 0H8.3v-2.24h2.25zm4.49 0h-2.25v-2.24h2.25zm20.61 0H21.29c-.62 0-1.13-.5-1.13-1.12s.5-1.12 1.13-1.12h14.36c.62 0 1.13.5 1.13 1.12s-.5 1.12-1.13 1.12m2.37 6.41H2.03a2 2 0 0 0-2.01 1.99v8.58c0 1.1.9 1.99 2 1.99h36c1.11 0 2-.89 2-1.99v-8.58c0-1.1-.9-1.99-2-1.99M5.93 34.65H3.68v-2.24h2.25zm4.62 0H8.3v-2.24h2.25zm4.49 0h-2.25v-2.24h2.25zm20.61 0H21.29c-.62 0-1.13-.5-1.13-1.12s.5-1.12 1.13-1.12h14.36c.62 0 1.13.5 1.13 1.12s-.5 1.12-1.13 1.12"/></symbol><symbol id="s48" viewBox="0 0 48 48"><path d="M1.98 15.03H45.9c1.1 0 2-.9 2-2V2.02c0-1.11-.89-2-2-2H1.98C.88.01-.01.91-.01 2.02v11.01c0 1.11.89 2 2 2Zm24.18-8.76h17.28a1.25 1.25 0 0 1 0 2.5H26.16a1.25 1.25 0 0 1 0-2.5m-11.71 0h2.5v2.5h-2.5zm-4.81 0h2.5v2.5h-2.5zm-4.96 0h2.5v2.5h-2.5zm41.31 10.35H2.07c-1.1 0-2 .9-2 2v11.01c0 1.11.89 2 2 2h43.92c1.1 0 2-.9 2-2V18.62c0-1.11-.89-2-2-2M7.26 25.3h-2.5v-2.5h2.5zm4.96 0h-2.5v-2.5h2.5zm4.81 0h-2.5v-2.5h2.5zm26.49 0H26.24a1.25 1.25 0 0 1 0-2.5h17.28a1.25 1.25 0 0 1 0 2.5m2.41 7.7H2.01c-1.1 0-2 .9-2 2v11.01c0 1.11.89 2 2 2h43.92c1.1 0 2-.9 2-2V35c0-1.11-.89-2-2-2M7.29 41.52h-2.5v-2.5h2.5zm4.96 0h-2.5v-2.5h2.5zm4.81 0h-2.5v-2.5h2.5zm26.49 0H26.27a1.25 1.25 0 0 1 0-2.5h17.28a1.25 1.25 0 0 1 0 2.5"/></symbol><symbol id="s64" viewBox="0 0 64 64"><path d="M2.5 20.02h58.93a2.5 2.5 0 0 0 2.5-2.5V2.56a2.5 2.5 0 0 0-2.5-2.5H2.5A2.5 2.5 0 0 0 0 2.56v14.97a2.5 2.5 0 0 0 2.5 2.5ZM35.08 8.67h23.29c.76 0 1.37.61 1.37 1.37s-.62 1.37-1.37 1.37H35.08c-.76 0-1.37-.61-1.37-1.37s.62-1.37 1.37-1.37m-13.25 0h2.75v2.74h-2.75zm-5.33 0h2.75v2.74H16.5zm-5.48 0h2.75v2.74h-2.75zm-5.68 0h2.75v2.74H5.34zm55.91 13.51H2.82c-1.52 0-2.75 1.23-2.75 2.74v14.47a2.74 2.74 0 0 0 2.75 2.74h58.43c1.52 0 2.75-1.23 2.75-2.74V24.92a2.74 2.74 0 0 0-2.75-2.74M8.16 33.43H5.41v-2.74h2.75zm5.68 0h-2.75v-2.74h2.75zm5.48 0h-2.75v-2.74h2.75zm5.33 0H21.9v-2.74h2.75zm33.79 0H35.15c-.76 0-1.37-.61-1.37-1.37s.62-1.37 1.37-1.37h23.29c.76 0 1.37.61 1.37 1.37s-.62 1.37-1.37 1.37m2.81 10.67H2.82C1.3 44.1.07 45.33.07 46.84v14.47a2.74 2.74 0 0 0 2.75 2.74h58.43c1.52 0 2.75-1.23 2.75-2.74V46.84a2.74 2.74 0 0 0-2.75-2.74M8.16 55.25H5.41v-2.74h2.75zm5.68 0h-2.75v-2.74h2.75zm5.48 0h-2.75v-2.74h2.75zm5.33 0H21.9v-2.74h2.75zm33.79 0H35.15c-.76 0-1.37-.61-1.37-1.37s.62-1.37 1.37-1.37h23.29c.76 0 1.37.61 1.37 1.37s-.62 1.37-1.37 1.37"/></symbol><use style="display: var(--s16, none)" href="#s16"/><use style="display: var(--s24, none)" href="#s24"/><use style="display: var(--s32, none)" href="#s32"/><use style="display: var(--s40, none)" href="#s40"/><use style="display: var(--s48, none)" href="#s48"/><use style="display: var(--s64, none)" href="#s64"/></symbol></defs><style>@media (max-width: 23.98px) {g{--s16:block;}}@media (min-width: 24px) and (max-width: 31.98px) {g{--s24:block;}}@media (min-width: 32px) and (max-width: 39.98px) {g{--s32:block;}}@media (min-width: 40px) and (max-width: 47.98px) {g{--s40:block;}}@media (min-width: 48px) and (max-width: 63.98px) {g{--s48:block;}}@media (min-width: 64px) {g{--s64:block;}}</style><g><use href="#i-hardware-solid"/></g></svg>