<svg xmlns="http://www.w3.org/2000/svg"><defs><symbol id="i-heart-solid"><symbol id="s16" viewBox="0 0 16 16"><path d="M16 6c0 4.54-7.44 8.62-7.75 8.79l-.36.2-.36-.2C7.22 14.62.01 10.53.01 6 0 3.31 2.2 1.11 4.89 1.11c1.14 0 2.23.41 3.11 1.13.87-.73 1.97-1.13 3.11-1.13C13.81 1.11 16 3.3 16 6"/></symbol><symbol id="s24" viewBox="0 0 24 24"><path d="M24 8.92c0 6.78-11.27 12.96-11.75 13.22l-.42.23-.42-.24C10.94 21.87.01 15.69.01 8.92 0 4.94 3.25 1.71 7.23 1.71c1.76 0 3.45.65 4.77 1.82a7.2 7.2 0 0 1 4.77-1.82c3.99 0 7.23 3.24 7.23 7.21"/></symbol><symbol id="s32" viewBox="0 0 32 32"><path d="M32 12.36c0 9.07-15.11 17.39-15.75 17.74l-.48.26-.48-.27C14.67 29.74.01 21.42.01 12.36 0 7.08 4.29 2.78 9.57 2.78A9.5 9.5 0 0 1 16 5.31a9.5 9.5 0 0 1 6.43-2.53c5.28 0 9.57 4.3 9.57 9.58"/></symbol><symbol id="s40" viewBox="0 0 40 40"><path d="M40 14.24c0 11.33-18.95 21.74-19.75 22.18l-.54.29-.54-.3C18.39 35.97.01 25.56.01 14.24 0 7.67 5.34 2.32 11.91 2.32c3 0 5.89 1.16 8.09 3.23 2.2-2.06 5.09-3.23 8.09-3.23C34.66 2.32 40 7.66 40 14.23ZM0-.06h40v40H0z"/></symbol><symbol id="s48" viewBox="0 0 48 48"><path d="M48 17.76c0 13.53-22.78 26-23.75 26.53l-.61.33-.6-.34C22.1 43.75 0 31.28 0 17.76c0-7.83 6.39-14.2 14.25-14.2 3.62 0 7.1 1.41 9.75 3.91 2.65-2.5 6.13-3.91 9.75-3.91C41.61 3.56 48 9.93 48 17.76M0 0h48v48H0z"/></symbol><symbol id="s64" viewBox="0 0 64 64"><path d="M64 23.56c0 18.11-30.51 34.87-31.81 35.58l-.67.36-.66-.37C29.6 58.42 0 41.66 0 23.56 0 13.16 8.47 4.69 18.88 4.69c4.89 0 9.59 1.96 13.12 5.41 3.53-3.46 8.23-5.41 13.12-5.41C55.53 4.69 64 13.16 64 23.56M0 0h64v64H0z"/></symbol><use style="display: var(--s16, none)" href="#s16"/><use style="display: var(--s24, none)" href="#s24"/><use style="display: var(--s32, none)" href="#s32"/><use style="display: var(--s40, none)" href="#s40"/><use style="display: var(--s48, none)" href="#s48"/><use style="display: var(--s64, none)" href="#s64"/></symbol></defs><style>@media (max-width: 23.98px) {g{--s16:block;}}@media (min-width: 24px) and (max-width: 31.98px) {g{--s24:block;}}@media (min-width: 32px) and (max-width: 39.98px) {g{--s32:block;}}@media (min-width: 40px) and (max-width: 47.98px) {g{--s40:block;}}@media (min-width: 48px) and (max-width: 63.98px) {g{--s48:block;}}@media (min-width: 64px) {g{--s64:block;}}</style><g><use href="#i-heart-solid"/></g></svg>