<svg xmlns="http://www.w3.org/2000/svg"><defs><symbol id="i-hearingimpaired"><symbol id="s16" viewBox="0 0 16 16"><path d="M13.95 5.2c.08.41.13.84.13 1.27 0 2-.92 3.85-2.52 5.09-.06.13-.11.53-.13.79-.14 1.26-.4 3.61-3.72 3.61-.81 0-1.58-.25-2.22-.73-.3-.22-.55-.49-.77-.78l1.05-1.05s.07.05.09.09c.14.21.32.39.52.54.39.29.84.44 1.33.44 1.98 0 2.09-1 2.23-2.27.07-.67.14-1.3.59-1.72 1.3-.98 2.02-2.37 2.05-3.88l1.38-1.38ZM16 1.06 1.06 16 0 14.94l4.38-4.38a.74.74 0 0 1-.2-.98c.4-.66 1.06-.56 1.35-.51.12.02.23.04.32.02l.14-.14c.16-.32.16-.83.12-1.14-.76 0-1.22-.31-1.48-.59a.75.75 0 0 1-.17-.33.7.7 0 0 1-.17-.4l-.03-.35c-.11-.92.18-1.48.75-2.21.58-.73 1.42-1.2 2.35-1.31s1.85.15 2.58.74c.31.25.56.55.76.87l.8-.8a4.9 4.9 0 0 0-3.87-1.9c-1.47 0-2.85.65-3.79 1.78l-.6-.46-.55-.51C3.92.88 5.72.04 7.64.04s3.75.91 4.93 2.33L14.94 0zM7.54 7.4l2.07-2.07c-.13-.3-.32-.58-.59-.8-.42-.33-.95-.48-1.48-.42s-1.01.33-1.34.75c-.41.52-.49.71-.44 1.13l.02.23c.11.08.31.11.59.07.16-.02.92-.05 1.18 1.11Z"/></symbol><symbol id="s24" viewBox="0 0 24 24"><path d="M20.69 7.02c.24.84.38 1.73.38 2.65 0 3.04-1.42 5.85-3.89 7.7-.07.09-.15.84-.21 1.33-.22 1.99-.59 5.31-5.45 5.31-1.18 0-2.31-.37-3.26-1.07-.5-.37-.93-.82-1.27-1.33a.84.84 0 0 1-.07-.81l.47-.47c.38-.15.82-.05 1.05.3.24.35.53.66.87.91.64.48 1.41.73 2.21.73 3.29 0 3.5-1.82 3.71-3.75.11-.98.21-1.9.82-2.48 2.1-1.58 3.26-3.87 3.26-6.35 0-.4-.04-.79-.1-1.18l1.47-1.47Zm3.33-5.78L1.25 23.98.02 22.74l6.86-6.85a.9.9 0 0 1-.25-.1.875.875 0 0 1-.3-1.19c.52-.86 1.38-.72 1.8-.66.21.03.41.06.61.04.02 0 .04 0 .07-.01l.3-.3s.04-.06.06-.11c.3-.66.25-1.64.13-2.11-1.29.07-1.98-.41-2.34-.85-.3-.37-.41-.99-.45-1.44-.16-1.34.27-2.17 1.1-3.22a5.143 5.143 0 0 1 7.21-.83c.55.43.99.97 1.31 1.56l1.64-1.64c-1.44-1.95-3.73-3.22-6.33-3.22-2.35 0-4.56 1.03-6.06 2.84l-.7-.53-.66-.58A9.52 9.52 0 0 1 11.43.03c3.08 0 5.82 1.47 7.58 3.73L22.78 0zM11.1 11.67l3.71-3.7a3.385 3.385 0 0 0-5.83-.95c-.68.85-.81 1.22-.73 1.95.02.23.08.51.12.59.11.12.55.19 1.13.11.41-.06.81.12 1.09.48.27.34.44.91.51 1.53Z"/></symbol><symbol id="s32" viewBox="0 0 32 32"><path d="M27.38 8.79c.42 1.27.66 2.62.66 4.03 0 4.02-1.86 7.73-5.11 10.19-.22.26-.33 1.24-.41 1.96-.29 2.62-.78 7-7.17 7-1.56 0-3.04-.49-4.28-1.41a7.1 7.1 0 0 1-1.67-1.75 1 1 0 0 1 .27-1.39 1 1 0 0 1 1.39.27c.33.49.74.91 1.21 1.27.9.67 1.97 1.02 3.09 1.02 4.6 0 4.88-2.53 5.18-5.22.15-1.34.28-2.5 1.05-3.23l.08-.07c2.77-2.08 4.37-5.22 4.37-8.63 0-.83-.1-1.63-.28-2.4l1.62-1.62ZM32 1.41 1.42 32 0 30.58l9.62-9.62c-.09.02-.17.05-.26.05a1 1 0 0 1-.52-.15c-.45-.3-.61-.85-.33-1.31.63-1.05 1.68-.89 2.24-.8.3.05.58.09.87.05a.5.5 0 0 0 .25-.09l.31-.31c.06-.09.12-.2.18-.34.43-1.02.32-2.45.11-3.05-1.75.14-2.67-.5-3.14-1.08-.39-.48-.52-1.36-.57-1.85-.2-1.76.33-2.8 1.44-4.21a6.7 6.7 0 0 1 4.5-2.51c1.79-.21 3.55.29 4.95 1.41.8.63 1.41 1.42 1.84 2.29l2.52-2.52c-1.96-2.76-5.17-4.56-8.8-4.56-3.22 0-6.24 1.42-8.31 3.89l-.07.08a.997.997 0 1 1-1.48-1.34C7.83 1.68 11.41 0 15.22 0c4.19 0 7.9 2.02 10.24 5.13L30.59 0zM14.64 15.94l5.34-5.34a4.7 4.7 0 0 0-1.56-2.25 4.66 4.66 0 0 0-3.48-.99 4.7 4.7 0 0 0-3.16 1.76c-.89 1.12-1.15 1.65-1.02 2.76.03.34.12.74.17.86.21.26.85.37 1.71.25.49-.07.97.14 1.31.58.4.52.64 1.41.69 2.38Z"/></symbol><symbol id="s40" viewBox="0 0 40 40"><path d="M34.09 10.68c.59 1.67.93 3.46.93 5.33 0 5.02-2.33 9.66-6.39 12.73-.31.35-.45 1.57-.56 2.56-.36 3.25-.97 8.69-8.9 8.69a8.87 8.87 0 0 1-7.39-3.93 1.124 1.124 0 0 1 1.86-1.26c.43.63.95 1.18 1.56 1.63a6.6 6.6 0 0 0 3.97 1.31c5.92 0 6.29-3.4 6.66-6.69.19-1.66.34-3.1 1.29-3.98l.09-.08c3.53-2.64 5.55-6.65 5.55-10.98 0-1.22-.18-2.41-.48-3.54l1.8-1.79ZM40 1.59 1.6 40 0 38.41 12.61 25.8h-.06c-.22.3-.57.47-.93.47-.2 0-.39-.05-.57-.16-.53-.32-.71-1-.39-1.53.75-1.25 1.96-1.06 2.68-.94.38.06.74.12 1.14.06a.8.8 0 0 0 .34-.11l.49-.49c.08-.13.17-.28.25-.48.55-1.39.36-3.27.09-3.98-2.21.19-3.37-.58-3.95-1.3-.47-.58-.63-1.66-.69-2.26-.25-2.17.41-3.46 1.79-5.2a8.3 8.3 0 0 1 5.58-3.11c2.22-.26 4.4.37 6.14 1.75 1.03.82 1.83 1.85 2.36 3l3.38-3.38C27.77 4.58 23.66 2.25 19 2.25c-4.09 0-7.94 1.8-10.57 4.95l-.08.09c-.42.46-1.13.5-1.59.08s-.5-1.13-.08-1.59C9.78 2.1 14.26 0 19.02 0c5.27 0 9.96 2.57 12.87 6.52L38.41 0zM18.16 20.25l7-7a6.05 6.05 0 0 0-2.03-2.97c-2.63-2.09-6.47-1.64-8.56.99-1.13 1.43-1.48 2.14-1.32 3.57.04.45.16.98.23 1.13.32.39 1.15.54 2.3.38.44-.06 1.89-.04 2.29 2.85.05.35.07.69.08 1.04Z"/></symbol><symbol id="s48" viewBox="0 0 48 48"><path d="M40.73 12.62a18.9 18.9 0 0 1 1.21 6.62c0 6-2.78 11.54-7.64 15.21-.4.44-.56 1.87-.7 3.13-.43 3.87-1.15 10.35-10.58 10.35-2.29 0-4.48-.72-6.32-2.09-.97-.72-1.8-1.59-2.47-2.59-.39-.57-.24-1.35.34-1.74.57-.39 1.35-.24 1.74.34.52.76 1.15 1.43 1.89 1.98a8.03 8.03 0 0 0 4.82 1.59c7.19 0 7.65-4.13 8.09-8.12.22-1.98.41-3.69 1.51-4.72l.1-.09c4.26-3.19 6.7-8.03 6.7-13.26 0-1.62-.24-3.17-.67-4.65l1.97-1.97ZM19.4 30.37 1.77 48.01 0 46.24l15.32-15.32a2 2 0 0 0-.3-.03 1.28 1.28 0 0 1-1.69.39c-.59-.36-.8-1.1-.44-1.7.87-1.45 2.27-1.22 3.12-1.09.47.08.91.15 1.39.08.08-.01.22-.03.39-.11l.72-.72c.1-.16.2-.35.28-.58.66-1.74.4-4.05.05-4.86-2.66.26-4.04-.67-4.72-1.51-.54-.68-.73-1.96-.8-2.66-.3-2.57.48-4.1 2.13-6.18s4-3.39 6.63-3.69 5.22.43 7.3 2.08c1.26 1 2.22 2.27 2.86 3.67l4.22-4.22c-3-4.32-7.98-7.17-13.63-7.17-4.94 0-9.59 2.18-12.76 5.98l-.09.11c-.46.52-1.25.56-1.77.1a1.26 1.26 0 0 1-.1-1.77C11.79 2.63 17.14.13 22.82.13c6.33 0 11.96 3.1 15.44 7.86L46.23 0 48 1.77l-8.38 8.38s0 .02.01.02l-1.87 1.87s0-.02-.01-.03l-4.74 4.74v.03l-2.5 2.5v-.04L20.38 29.37s-.05.08-.08.12l-.79.79s-.08.05-.12.08Zm2.29-5.82 8.6-8.6a7.4 7.4 0 0 0-2.47-3.66 7.4 7.4 0 0 0-5.46-1.56 7.38 7.38 0 0 0-4.96 2.76c-1.38 1.74-1.8 2.61-1.6 4.36.05.56.19 1.21.29 1.39.42.51 1.45.71 2.86.51.65-.09 1.28.19 1.73.77.66.85 1 2.39 1 4.01Z"/></symbol><symbol id="s64" viewBox="0 0 64 64"><path d="M53.96 15.85c1.24 2.99 1.92 6.27 1.92 9.71 0 8.02-3.72 15.41-10.21 20.31-.63.66-.84 2.57-1.05 4.43C44.01 55.75 43.1 64 30.65 64c-3.03 0-5.92-.95-8.34-2.76-1.28-.95-2.38-2.1-3.27-3.42a1.38 1.38 0 0 1 .37-1.91c.63-.43 1.48-.26 1.91.37.72 1.06 1.6 1.99 2.63 2.75 1.95 1.45 4.27 2.21 6.7 2.21 9.99 0 10.65-5.98 11.24-11.25.29-2.61.54-4.86 1.94-6.17l.11-.1c5.84-4.37 9.18-10.99 9.18-18.16 0-2.66-.46-5.21-1.3-7.58l2.13-2.13ZM63.99 1.94 1.94 64 0 62.05l20.95-20.94c-.08-.01-.16-.02-.24-.04-.35-.06-.88-.14-1.02-.09 0 0-.03.03-.08.11a1.374 1.374 0 0 1-1.89.47 1.38 1.38 0 0 1-.47-1.89c1.07-1.77 2.76-1.5 3.89-1.32.63.1 1.28.2 1.98.11.25-.04.49-.11.71-.23l.98-.98c.2-.33.39-.71.54-1.16.88-2.62.39-5.83-.13-6.75-3.61.4-5.43-.8-6.32-1.91-.71-.88-.94-2.69-1.01-3.42-.39-3.37.64-5.38 2.8-8.12 2.17-2.74 5.27-4.47 8.75-4.87 3.47-.41 6.89.57 9.63 2.74 1.79 1.42 3.12 3.24 3.96 5.27l6.21-6.21C45.15 6.78 38.24 2.8 30.41 2.8c-6.76 0-13.13 2.98-17.47 8.18l-.12.13c-.5.57-1.37.62-1.94.11-.57-.5-.62-1.37-.11-1.94l.09-.1A25.37 25.37 0 0 1 30.39.05c8.59 0 16.18 4.28 20.81 10.8L62.05 0l1.94 1.95ZM28.54 33.51 40.85 21.2c-.58-2.04-1.77-3.9-3.51-5.27a10.3 10.3 0 0 0-7.6-2.17c-2.74.32-5.19 1.68-6.91 3.85-1.89 2.38-2.51 3.67-2.22 6.12.08.82.28 1.76.43 2 .85 1.05 2.74 1.04 4.17.84.77-.11 2.63.09 3.21 4.24.12.89.16 1.8.12 2.69Z"/></symbol><use style="display: var(--s16, none)" href="#s16"/><use style="display: var(--s24, none)" href="#s24"/><use style="display: var(--s32, none)" href="#s32"/><use style="display: var(--s40, none)" href="#s40"/><use style="display: var(--s48, none)" href="#s48"/><use style="display: var(--s64, none)" href="#s64"/></symbol></defs><style>@media (max-width: 23.98px) {g{--s16:block;}}@media (min-width: 24px) and (max-width: 31.98px) {g{--s24:block;}}@media (min-width: 32px) and (max-width: 39.98px) {g{--s32:block;}}@media (min-width: 40px) and (max-width: 47.98px) {g{--s40:block;}}@media (min-width: 48px) and (max-width: 63.98px) {g{--s48:block;}}@media (min-width: 64px) {g{--s64:block;}}</style><g><use href="#i-hearingimpaired"/></g></svg>