<svg xmlns="http://www.w3.org/2000/svg"><defs><symbol id="i-help-solid"><symbol id="s16" viewBox="0 0 16 16"><path d="M8.01 0c-4.41 0-8 3.59-8 8s3.59 8 8 8 8-3.59 8-8-3.59-8-8-8M8 11.69c-.69 0-1.14-.48-1.14-1.07S7.31 9.56 8 9.56s1.14.5 1.14 1.06-.45 1.07-1.14 1.07m1.72-4.02c-.65.45-.88.59-.88 1.24v.07H7.17v-.26c0-.91.35-1.32.92-1.72.44-.31.81-.56.81-.95s-.33-.65-1.1-.65c-.63 0-1.32.19-1.89.45v-1.6c.52-.21 1.36-.4 2.18-.4 1.53 0 2.74.69 2.74 2.02 0 .76-.4 1.29-1.11 1.78Z"/></symbol><symbol id="s24" viewBox="0 0 24 24"><path d="M11.99 0C5.38 0 0 5.38 0 12s5.38 12 12 12 12-5.38 12-12S18.61 0 11.99 0m.06 17.75c-1.07 0-1.77-.75-1.77-1.65s.7-1.63 1.77-1.63 1.77.77 1.77 1.63-.7 1.65-1.77 1.65m2.65-6.21c-1 .7-1.36.92-1.36 1.92v.1h-2.59v-.41c0-1.41.54-2.04 1.43-2.65.68-.48 1.26-.87 1.26-1.46s-.51-1-1.7-1c-.97 0-2.04.29-2.93.7V6.27c.8-.32 2.11-.61 3.37-.61 2.37 0 4.24 1.07 4.24 3.13 0 1.17-.61 1.99-1.72 2.76Z"/></symbol><symbol id="s32" viewBox="0 0 32 32"><path d="M15.98 0c-8.82 0-16 7.18-16 16s7.18 16 16 16 16-7.18 16-16-7.18-16-16-16m-.02 23.23c-1.45 0-2.4-1.01-2.4-2.24s.94-2.21 2.4-2.21 2.4 1.04 2.4 2.21-.94 2.24-2.4 2.24m3.6-8.41c-1.36.94-1.84 1.24-1.84 2.6v.14h-3.5v-.55c0-1.91.74-2.77 1.94-3.59.92-.65 1.7-1.18 1.7-1.98s-.69-1.36-2.3-1.36c-1.31 0-2.77.39-3.96.95V7.69c1.08-.44 2.86-.83 4.56-.83 3.2 0 5.74 1.45 5.74 4.24 0 1.59-.83 2.7-2.33 3.73Z"/></symbol><symbol id="s40" viewBox="0 0 40 40"><path d="M20-.06c-11.03 0-20 8.98-20 20s8.97 20 20 20 20-8.97 20-20-8.97-20-20-20m0 29.65c-1.83 0-3.02-1.28-3.02-2.81S18.17 24 20 24s3.01 1.31 3.01 2.78-1.19 2.81-3.01 2.81M24.53 19c-1.71 1.19-2.32 1.57-2.32 3.28v.17H17.8v-.7c0-2.41.93-3.48 2.44-4.52 1.16-.81 2.15-1.48 2.15-2.49s-.87-1.71-2.9-1.71c-1.65 0-3.48.49-4.99 1.19v-4.2c1.36-.55 3.6-1.04 5.74-1.04 4.03 0 7.22 1.83 7.22 5.34 0 2-1.04 3.39-2.93 4.7Z"/></symbol><symbol id="s48" viewBox="0 0 48 48"><path d="M23.99 0c-13.24 0-24 10.77-24 24s10.77 24 24 24 24-10.77 24-24-10.77-24-24-24m-.04 35.29c-2.21 0-3.65-1.54-3.65-3.4s1.44-3.37 3.65-3.37 3.65 1.58 3.65 3.37-1.44 3.4-3.65 3.4m5.46-12.79c-2.07 1.44-2.8 1.89-2.8 3.96v.21h-5.33v-.84c0-2.91 1.12-4.21 2.94-5.47 1.4-.98 2.59-1.79 2.59-3.02s-1.05-2.07-3.51-2.07c-2 0-4.21.6-6.03 1.44v-5.08c1.65-.67 4.35-1.26 6.94-1.26 4.87 0 8.73 2.21 8.73 6.45 0 2.42-1.26 4.1-3.54 5.68Z"/></symbol><symbol id="s64" viewBox="0 0 64 64"><path d="M31.97.14c-17.65 0-32 14.36-32 32s14.36 32 32 32 32-14.36 32-32-14.36-32-32-32m.02 47.76c-3.03 0-5-2.11-5-4.66s1.97-4.61 5-4.61 4.99 2.16 4.99 4.61-1.97 4.66-4.99 4.66m7.5-17.53c-2.83 1.97-3.84 2.59-3.84 5.43v.48h-7.3v-1.35c0-3.99 1.54-5.76 4.03-7.49 1.92-1.34 3.55-2.45 3.55-4.13s-1.44-2.83-4.8-2.83c-2.74 0-5.76.82-8.26 1.97v-6.96c2.26-.91 5.95-1.73 9.51-1.73 6.68 0 11.96 3.03 11.96 8.84 0 3.31-1.73 5.62-4.85 7.78Z"/></symbol><use style="display: var(--s16, none)" href="#s16"/><use style="display: var(--s24, none)" href="#s24"/><use style="display: var(--s32, none)" href="#s32"/><use style="display: var(--s40, none)" href="#s40"/><use style="display: var(--s48, none)" href="#s48"/><use style="display: var(--s64, none)" href="#s64"/></symbol></defs><style>@media (max-width: 23.98px) {g{--s16:block;}}@media (min-width: 24px) and (max-width: 31.98px) {g{--s24:block;}}@media (min-width: 32px) and (max-width: 39.98px) {g{--s32:block;}}@media (min-width: 40px) and (max-width: 47.98px) {g{--s40:block;}}@media (min-width: 48px) and (max-width: 63.98px) {g{--s48:block;}}@media (min-width: 64px) {g{--s64:block;}}</style><g><use href="#i-help-solid"/></g></svg>