<svg xmlns="http://www.w3.org/2000/svg"><defs><symbol id="i-home"><symbol id="s16" viewBox="0 0 16 16"><path d="M13 15.97H9.24v-4.51H6.75v4.51H3c-.69 0-1.25-.56-1.25-1.25V6.87H0l8-6.9 8 6.9h-1.75v7.85c0 .69-.56 1.25-1.25 1.25m-2.25-1.49h2.01V6.05L8 1.95l-4.75 4.1v8.43h1.99V9.97h5.51z"/></symbol><symbol id="s24" viewBox="0 0 24 24"><path d="M19.7 24.02h-5.5v-6.95H9.82v6.95H4.34c-.91 0-1.64-.74-1.64-1.64V10H0L12.02.02 24.01 10h-2.66v12.38c0 .91-.74 1.64-1.64 1.64Zm-3.75-1.76h3.64V8.59l-7.57-6.3-7.57 6.29v13.68h3.61v-6.95h7.91v6.95Z"/></symbol><symbol id="s32" viewBox="0 0 32 32"><path d="M26.35 32.02h-7.24l.02-9.39h-6.29l-.02 9.39H5.63c-1.12 0-2.04-.91-2.04-2.04V13.07H.01L15.99.02l16.02 13.05h-3.63v16.91c0 1.12-.91 2.04-2.04 2.04Zm-5.23-2h5.23l.04-18.95-10.4-8.47L5.6 11.09v18.89l5.23.03.02-9.38h10.29z"/></symbol><symbol id="s40" viewBox="0 0 40 40"><path d="M33.05 40.01h-8.99l.03-11.83h-8.2l-.02 11.83H6.93c-1.34 0-2.43-1.09-2.43-2.43V16.14H0L19.98.01 40 16.14h-4.53v21.44c0 1.34-1.09 2.43-2.43 2.43Zm-6.74-2.25h6.73c.1 0 .18-.08.18-.18V13.89h.39L19.99 2.9 6.38 13.89h.36v23.69c0 .1.08.18.18.18h6.69l.02-11.83h12.7l-.03 11.83Z"/></symbol><symbol id="s48" viewBox="0 0 48 48"><path d="M39.74 48.02H29l.03-14.27h-10.1l-.03 14.27H8.23c-1.56 0-2.83-1.27-2.83-2.83V19.22H.01L23.98.02l24.03 19.2h-5.45v25.97c0 1.56-1.27 2.83-2.83 2.83Zm-8.23-2.5h8.23c.18 0 .33-.15.33-.33V16.72h.81L23.99 3.23 7.14 16.72h.77v28.47c0 .18.15.33.33.33h8.18l.03-14.27h15.1l-.03 14.27Z"/></symbol><symbol id="s64" viewBox="0 0 64 64"><path d="M53.19 64.03H39.03l.04-19.24H24.83l-.04 19.24H10.72c-1.93 0-3.5-1.57-3.5-3.5V25.2H0L31.96.03 64.01 25.2h-7.32v35.33c0 1.93-1.57 3.5-3.5 3.5m-11.4-2.75h11.4c.41 0 .75-.34.75-.75V22.45h2.11L31.96 3.53 7.95 22.45h2.03v38.08c0 .41.34.75.75.75h11.33l.04-19.24h19.73z"/></symbol><use style="display: var(--s16, none)" href="#s16"/><use style="display: var(--s24, none)" href="#s24"/><use style="display: var(--s32, none)" href="#s32"/><use style="display: var(--s40, none)" href="#s40"/><use style="display: var(--s48, none)" href="#s48"/><use style="display: var(--s64, none)" href="#s64"/></symbol></defs><style>@media (max-width: 23.98px) {g{--s16:block;}}@media (min-width: 24px) and (max-width: 31.98px) {g{--s24:block;}}@media (min-width: 32px) and (max-width: 39.98px) {g{--s32:block;}}@media (min-width: 40px) and (max-width: 47.98px) {g{--s40:block;}}@media (min-width: 48px) and (max-width: 63.98px) {g{--s48:block;}}@media (min-width: 64px) {g{--s64:block;}}</style><g><use href="#i-home"/></g></svg>