<svg xmlns="http://www.w3.org/2000/svg"><defs><symbol id="i-homeservice"><symbol id="s16" viewBox="0 0 16 16"><path d="M16.04 6.86H14.7v9.15h-1.51V13.8c0-.95-.77-1.73-1.72-1.73H6.92c-.95 0-1.72.78-1.72 1.73v2.21H3.71V13.8c0-1.78 1.44-3.23 3.22-3.23h4.55c.64 0 1.24.19 1.74.52V6.42L7.98 1.98 2.8 6.45v9.56H1.31V6.86H.04L7.98 0l8.07 6.85Zm-4.1.47c0 .07-.02.13-.02.2v.06c-.14 1.46-1.35 2.61-2.84 2.61s-2.7-1.14-2.84-2.6h-.95a.749.749 0 1 1 0-1.5h1a2.88 2.88 0 0 1 2.73-1.99c1.46 0 2.67 1.11 2.83 2.55.05.22.09.44.09.67M7.97 6.11h2.1c-.5-.6-1.59-.61-2.1 0m2.45 1.5H7.73c.13.63.68 1.1 1.34 1.1s1.22-.47 1.34-1.1Zm-1.17 7.07h2.29v-1.5H9.25z"/></symbol><symbol id="s24" viewBox="0 0 24 24"><path d="M21.85 20.55c0 .06.02.11.02.16v3.32h-1.76v-3.48c-.09-1.5-1.32-2.69-2.83-2.69h-6.85c-1.57 0-2.84 1.28-2.84 2.85v3.32H5.84v-3.32c0-2.54 2.06-4.61 4.59-4.61h6.85c1.07 0 2.05.39 2.83 1V8.9l-8.18-6.61-8.09 6.66v15.07H2.09V9.82H.02L11.92.03l12.09 9.8h-2.17v10.72ZM7.1 10.28c0-.48.39-.88.87-.88h1.69a4.07 4.07 0 0 1 3.92-2.99c2.08 0 3.8 1.58 4.02 3.63.07.31.12.62.12.95 0 2.25-1.82 4.07-4.06 4.07s-3.95-1.74-4.04-3.91H7.97c-.48 0-.87-.39-.87-.88Zm4.43-.88h4.09c-.39-.74-1.16-1.24-2.05-1.24s-1.65.49-2.05 1.24Zm4.43 1.76h-4.59c.09 1.2 1.08 2.15 2.3 2.15s2.21-.95 2.3-2.15Zm1.74 7.62h-3.44v1.75h3.44zm-8.13 5.25h1.75v-2.51H9.57zm7.2 0h1.75v-2.51h-1.75z"/></symbol><symbol id="s32" viewBox="0 0 32 32"><path d="M32.02 12.76h-2.91v19.25h-2.05v-4.45c0-2.21-1.8-4.01-4.01-4.01h-9.23c-2.21 0-4.01 1.8-4.01 4.01v4.45h-2v-4.45c0-3.31 2.7-6.01 6.01-6.01h9.23c1.57 0 2.99.61 4.06 1.59V11.43L15.92 2.56 4.85 11.44V32h-2V12.76H.02L15.91 0l16.1 12.75Zm-22.5.78c0-.55.45-1 1-1h2.42c.58-2.34 2.7-4.02 5.14-4.02 2.72 0 4.98 2.07 5.24 4.74.1.4.16.81.16 1.23 0 2.92-2.38 5.3-5.29 5.3s-5.26-2.35-5.29-5.25h-2.38c-.55 0-1-.45-1-1m5.52-1.01h6.08a3.296 3.296 0 0 0-6.08 0m6.43 2.01h-6.58c.03 1.79 1.49 3.25 3.29 3.25s3.26-1.45 3.29-3.25m2.15 10.59h-4.64v2h4.64zM12.85 32h2v-3.37h-2zm9.69 0h2v-3.37h-2z"/></symbol><symbol id="s40" viewBox="0 0 40 40"><path d="M36.21 33.87c.01.19.03.37.03.56v5.59h-2.28v-5.87c-.15-2.71-2.38-4.88-5.13-4.88H17.26c-2.84 0-5.16 2.32-5.16 5.16v5.59H9.85v-5.59c0-4.09 3.32-7.42 7.41-7.42h11.57c1.99 0 3.8.79 5.13 2.08V13.88L19.81 2.89 5.79 14.02v26H3.54V15.73H.01L19.79.02l20.22 15.71h-3.8zM16.23 18.03v-.07h-3.11c-.62 0-1.12-.5-1.12-1.13s.5-1.13 1.12-1.13h3.13a6.524 6.524 0 0 1 6.34-5.05c3.36 0 6.15 2.56 6.47 5.86.11.48.18.99.18 1.51 0 3.59-2.92 6.52-6.51 6.52s-6.51-2.92-6.51-6.52Zm10.77 0v-.07h-8.51v.07c0 2.35 1.91 4.27 4.26 4.27s4.26-1.91 4.26-4.27Zm-8.4-2.32h8c-.59-1.64-2.17-2.8-4-2.8s-3.4 1.14-4 2.8m10.96 15.81h-5.82v2.25h5.82zm-13.38 8.5h2.25v-4.23h-2.25zm12.15 0h2.25v-4.23h-2.25z"/></symbol><symbol id="s48" viewBox="0 0 48 48"><path d="M42.34 40.36c.03.31.05.62.05.94V48h-2.55v-7.47c-.38-3.11-3.03-5.52-6.23-5.52H19.73c-3.47 0-6.29 2.82-6.29 6.29V48h-2.5v-6.7c0-4.85 3.94-8.79 8.78-8.79H33.6c2.44 0 4.64 1 6.23 2.61V16.28h.87L23.77 3.18 7.22 16.28h.63V48h-2.5V18.78H.03L23.75 0l24.28 18.78h-5.69zM18.59 22.64v-.18h-3.83a1.25 1.25 0 0 1 0-2.5h3.84a7.716 7.716 0 0 1 7.53-6.05c3.98 0 7.28 3.03 7.65 6.94.14.58.22 1.18.22 1.79 0 4.25-3.46 7.71-7.71 7.71s-7.71-3.46-7.71-7.71Zm12.92 0c0-.06-.01-.12-.02-.18H21.1c0 .06-.02.12-.02.18 0 2.87 2.34 5.21 5.21 5.21s5.21-2.34 5.21-5.21Zm-10.32-2.68h9.88c-.69-2.07-2.65-3.55-4.94-3.55s-4.24 1.46-4.94 3.55m13.29 17.95h-6.97v2.5h6.97zM18.53 48h2.5v-5.07h-2.5zm14.58 0h2.5v-5.07h-2.5z"/></symbol><symbol id="s64" viewBox="0 0 64 64"><path d="M64.02 24.68h-7.45V64h-2.88v-9.08c0-4.87-3.96-8.84-8.83-8.84h-18.8c-4.87 0-8.83 3.96-8.83 8.84V64h-2.75v-9.08c0-6.39 5.2-11.59 11.58-11.59h18.8c3.61 0 6.84 1.66 8.96 4.26V21.92h2.07L31.71 3.47 8.02 21.93h1.81V64H7.08V24.68H.02L31.69 0l32.32 24.68Zm-39.2 4.98c0-.19.02-.38.03-.57h-5.53c-.76 0-1.37-.62-1.37-1.37s.61-1.37 1.37-1.37h5.46s0-.04.01-.07c.94-4.71 5.12-8.13 9.93-8.13 5.23 0 9.58 3.99 10.06 9.15.18.76.29 1.55.29 2.36 0 5.58-4.54 10.13-10.12 10.13s-10.12-4.54-10.12-10.13Zm17.5 0c0-.19-.02-.38-.04-.57H27.61c-.02.19-.04.37-.04.57 0 4.07 3.31 7.38 7.38 7.38s7.38-3.31 7.38-7.38Zm-7.6-8.77a7.39 7.39 0 0 0-7.12 5.45h14.24a7.374 7.374 0 0 0-7.12-5.45m11.31 29.76h-9.45v2.75h9.45zM24.74 64h2.75v-6.86h-2.75zm19.75 0h2.75v-6.86h-2.75z"/></symbol><use style="display: var(--s16, none)" href="#s16"/><use style="display: var(--s24, none)" href="#s24"/><use style="display: var(--s32, none)" href="#s32"/><use style="display: var(--s40, none)" href="#s40"/><use style="display: var(--s48, none)" href="#s48"/><use style="display: var(--s64, none)" href="#s64"/></symbol></defs><style>@media (max-width: 23.98px) {g{--s16:block;}}@media (min-width: 24px) and (max-width: 31.98px) {g{--s24:block;}}@media (min-width: 32px) and (max-width: 39.98px) {g{--s32:block;}}@media (min-width: 40px) and (max-width: 47.98px) {g{--s40:block;}}@media (min-width: 48px) and (max-width: 63.98px) {g{--s48:block;}}@media (min-width: 64px) {g{--s64:block;}}</style><g><use href="#i-homeservice"/></g></svg>