<svg xmlns="http://www.w3.org/2000/svg"><defs><symbol id="i-import"><symbol id="s16" viewBox="0 0 16 16"><path d="M14.75 3.51h-4.26L9.45 1.07A1.77 1.77 0 0 0 7.84 0H1.25C.56 0 0 .57 0 1.26v12.77h5.22v-1.5H1.51v-2.25h.01V5.77c0-.41.34-.75.75-.75h12.24v7.51h-3.76v1.5h5.26V4.77c0-.69-.56-1.25-1.25-1.25Zm-13.24.15V1.51h6.34c.1 0 .19.06.23.15l.79 1.85h-6.6c-.27 0-.52.06-.76.14Zm9.14 7.05-1.9-1.9v7.2h-1.5v-7.2l-1.9 1.9c-.29.29-.77.29-1.06 0s-.29-.77 0-1.06L8 5.93l3.71 3.72c.29.29.29.77 0 1.06-.15.15-.34.22-.53.22s-.38-.07-.53-.22"/></symbol><symbol id="s24" viewBox="0 0 24 24"><path d="M21.62 5.28h-6.29L13.7 1.46A2.38 2.38 0 0 0 11.51.02H2.37C1.06.02 0 1.09 0 2.4v18.15h8.64V18.8H1.75v-2.76h.02V8.16c0-.62.51-1.13 1.13-1.13h18.73c.34 0 .63.28.63.63V18.8H16.4v1.75h7.61V7.65c0-1.31-1.07-2.38-2.38-2.38Zm-18.73 0c-.41 0-.79.09-1.14.24V2.4c0-.35.28-.63.63-.63h9.13c.25 0 .48.15.57.38l1.34 3.13zm10.49 7.33v11.41h-1.75V12.61l-3.28 3.28c-.34.34-.9.34-1.24 0s-.34-.9 0-1.24l5.4-5.4 5.4 5.4a.881.881 0 0 1-.62 1.5c-.22 0-.45-.09-.62-.26l-3.28-3.28Z"/></symbol><symbol id="s32" viewBox="0 0 32 32"><path d="M29 7.01h-8.84l-2.22-5.18A2.99 2.99 0 0 0 15.18 0H3.01C1.35 0 0 1.35 0 3.01v24.01h11.98v-2H2.01v-3.79h.02V10.77c0-.97.79-1.75 1.75-1.75h25.23c.55 0 1 .45 1 1v15.01h-10v2h12V10.01c0-1.65-1.35-3-3-3Zm-26.99.46V3.01c0-.55.45-1 1-1h12.18c.4 0 .76.24.92.61l1.88 4.4H3.78c-.64 0-1.24.18-1.77.47Zm15 7.93V32h-2V15.4l-4.66 4.66a.996.996 0 1 1-1.41-1.41l7.07-7.07 7.07 7.07a.996.996 0 0 1-.71 1.7c-.26 0-.51-.1-.71-.29L17 15.4Z"/></symbol><symbol id="s40" viewBox="0 0 40 40"><path d="M36.62 8.76H24.98l-2.87-6.71A3.38 3.38 0 0 0 19 0H3.37A3.38 3.38 0 0 0 0 3.38v30.13h16.4v-2.25H2.25v-4.37h.03V13.32c0-1.28 1.04-2.31 2.31-2.31h32.03c.62 0 1.13.5 1.13 1.13v19.13h-13.1v2.25H40V12.13c0-1.86-1.51-3.38-3.38-3.38Zm-34.37.66V3.38c0-.62.51-1.13 1.13-1.13h15.63c.45 0 .86.27 1.03.68l2.49 5.82H4.59c-.86 0-1.65.25-2.34.67m19.38 8.78V40h-2.25V18.2l-6.04 6.04c-.44.44-1.15.44-1.59 0s-.44-1.15 0-1.59l8.75-8.75 8.75 8.75a1.123 1.123 0 0 1-.8 1.92c-.29 0-.58-.11-.8-.33l-6.04-6.04Z"/></symbol><symbol id="s48" viewBox="0 0 48 48"><path d="M43.75 11.76H29.8l-4.34-9.3A4.28 4.28 0 0 0 21.6 0H4.25C1.91 0 0 1.91 0 4.26v37.01h19.25v-2.5H2.5V33.7h.03V17.22c0-1.63 1.32-2.95 2.95-2.95h38.27c.97 0 1.75.79 1.75 1.75v22.75H29.77v2.5H48V16.02a4.26 4.26 0 0 0-4.25-4.25Zm-41.25.9v-8.4c0-.96.79-1.75 1.75-1.75H21.6c.68 0 1.3.4 1.59 1.01l3.84 8.25H5.48c-1.1 0-2.12.33-2.98.89M25.75 23v25h-2.5V23l-7.42 7.41c-.49.49-1.28.49-1.77 0s-.49-1.28 0-1.77l10.43-10.43 10.43 10.43c.49.49.49 1.28 0 1.77-.24.24-.56.37-.88.37s-.64-.12-.88-.37L25.74 23Z"/></symbol><symbol id="s64" viewBox="0 0 64 64"><path d="M58.62 14H39.27L34.66 3.26A5.37 5.37 0 0 0 29.72 0H5.37C2.4 0 0 2.41 0 5.37v47.38h26.1V50H2.74v-5.33h.04V21.38a4.64 4.64 0 0 1 4.63-4.63h51.2c1.45 0 2.63 1.18 2.63 2.63v30.63H38.82v2.75h25.17V19.37c0-2.96-2.41-5.38-5.38-5.38ZM2.74 15.67V5.37c0-1.45 1.18-2.63 2.63-2.63h24.35c1.05 0 2 .62 2.41 1.59l4.14 9.66H7.41c-1.77 0-3.4.63-4.67 1.67Zm31.14 12.62V64h-2.75V28.29L20.75 38.67c-.54.54-1.41.54-1.95 0s-.54-1.41 0-1.95l13.71-13.7 13.71 13.7a1.376 1.376 0 0 1-1.94 1.95L33.9 28.29Z"/></symbol><use style="display: var(--s16, none)" href="#s16"/><use style="display: var(--s24, none)" href="#s24"/><use style="display: var(--s32, none)" href="#s32"/><use style="display: var(--s40, none)" href="#s40"/><use style="display: var(--s48, none)" href="#s48"/><use style="display: var(--s64, none)" href="#s64"/></symbol></defs><style>@media (max-width: 23.98px) {g{--s16:block;}}@media (min-width: 24px) and (max-width: 31.98px) {g{--s24:block;}}@media (min-width: 32px) and (max-width: 39.98px) {g{--s32:block;}}@media (min-width: 40px) and (max-width: 47.98px) {g{--s40:block;}}@media (min-width: 48px) and (max-width: 63.98px) {g{--s48:block;}}@media (min-width: 64px) {g{--s64:block;}}</style><g><use href="#i-import"/></g></svg>