<svg xmlns="http://www.w3.org/2000/svg"><defs><symbol id="i-import-solid"><symbol id="s16" viewBox="0 0 16 16"><path d="M7.73 14.01h1.5v2h-1.5zm2.32-11.52-.61-1.42C9.17.42 8.54 0 7.83 0H1.24C.56 0 0 .56 0 1.25v2.68c.03-.8.69-1.44 1.49-1.44zm4.7 1.01h-4.26v-.02h-9c-.28 0-.5.22-.5.5V14h6.74V8.8l-1.9 1.9c-.15.15-.34.22-.53.22s-.38-.07-.53-.22a.754.754 0 0 1 0-1.06l3.71-3.71 3.71 3.71c.29.29.29.77 0 1.06s-.77.29-1.06 0l-1.9-1.9V14H16V4.75c0-.69-.56-1.25-1.25-1.25"/></symbol><symbol id="s24" viewBox="0 0 24 24"><path d="M2.61 4.01C1.17 4.01 0 5.18-.01 6.63V2.38A2.38 2.38 0 0 1 2.37 0h9.13c.95 0 1.81.57 2.19 1.44L14.79 4H2.61Zm21.38 3.63v12.88H1.24V6.64c0-.76.62-1.38 1.38-1.38h19c1.31 0 2.38 1.07 2.38 2.38Zm-6.09 7.01-5.4-5.39-5.4 5.39c-.34.34-.34.9 0 1.24s.9.34 1.24 0l3.28-3.28v7.89h1.75v-7.89l3.28 3.28c.17.17.4.26.62.26s.45-.08.62-.26c.34-.34.34-.9 0-1.24Zm-6.28 9.36h1.75v-3.49h-1.75z"/></symbol><symbol id="s32" viewBox="0 0 32 32"><path d="M3.77 5.01C1.7 5.01.02 6.69.02 8.76v18.26H0V3.01A3.01 3.01 0 0 1 3 0h12.18c1.2 0 2.29.71 2.76 1.82L19.3 5H3.77Zm25.23 2H3.77c-.97 0-1.75.79-1.75 1.75v18.26h13.55v-12.1l-4.66 4.66a.996.996 0 1 1-1.41-1.41l7.07-7.07 7.07 7.07a.996.996 0 0 1-.71 1.7c-.26 0-.51-.1-.71-.29l-4.66-4.66v12.1h14.43V10.01c0-1.66-1.35-3-3-3Zm-13.43 25h2v-4.96h-2z"/></symbol><symbol id="s40" viewBox="0 0 40 40"><path d="M4.58 6.5C2.06 6.5.01 8.55.01 11.06v22.46h-.02V3.38A3.38 3.38 0 0 1 3.36 0h15.63c1.35 0 2.57.8 3.1 2.05l1.9 4.45zm35.41 27.02H21.74v6.49h-2.25v-6.49H2.26V11.06c0-1.28 1.04-2.31 2.31-2.31h20.4l11.64.01c1.86 0 3.38 1.51 3.38 3.38zM29.36 21.48l-8.75-8.75-8.75 8.75c-.44.44-.44 1.15 0 1.59s1.15.44 1.59 0l6.04-6.04v16.45h2.25V17.03l6.04 6.04c.22.22.51.33.8.33s.58-.11.8-.33c.44-.44.44-1.15 0-1.59Z"/></symbol><symbol id="s48" viewBox="0 0 48 48"><path d="M47.99 16.02a4.26 4.26 0 0 0-4.25-4.25H5.45c-1.63 0-2.95 1.32-2.95 2.95v26.56h20.91V48h2.5v-6.72h22.08zM35.09 32.5c-.24.24-.56.37-.88.37s-.64-.12-.88-.37l-7.42-7.42v16.21h-2.5V25.08l-7.42 7.42c-.49.49-1.28.49-1.77 0s-.49-1.28 0-1.77L24.65 20.3l10.44 10.43c.49.49.49 1.28 0 1.77M5.45 9.27C2.44 9.27 0 11.72 0 14.72v26.56V4.26C0 1.92 1.9.01 4.24.01h17.35c1.65 0 3.16.96 3.85 2.46l3.17 6.8z"/></symbol><symbol id="s64" viewBox="0 0 64 64"><path d="M7.36 11.26c-4.04 0-7.33 3.27-7.37 7.3V5.38C-.01 2.42 2.4 0 5.36 0h24.35c2.15 0 4.09 1.28 4.94 3.26l3.43 7.99H7.36Zm56.63 41.51H33.87V64h-2.75V52.77H2.73V18.63A4.64 4.64 0 0 1 7.36 14h51.25c2.96 0 5.38 2.41 5.38 5.38v33.38ZM46.2 35.12l-13.71-13.7-13.71 13.7c-.54.54-.54 1.41 0 1.95s1.41.54 1.95 0l10.38-10.38v26.09h2.75V26.69l10.38 10.38c.27.27.62.4.97.4s.7-.13.97-.4c.54-.54.54-1.41 0-1.95Z"/></symbol><use style="display: var(--s16, none)" href="#s16"/><use style="display: var(--s24, none)" href="#s24"/><use style="display: var(--s32, none)" href="#s32"/><use style="display: var(--s40, none)" href="#s40"/><use style="display: var(--s48, none)" href="#s48"/><use style="display: var(--s64, none)" href="#s64"/></symbol></defs><style>@media (max-width: 23.98px) {g{--s16:block;}}@media (min-width: 24px) and (max-width: 31.98px) {g{--s24:block;}}@media (min-width: 32px) and (max-width: 39.98px) {g{--s32:block;}}@media (min-width: 40px) and (max-width: 47.98px) {g{--s40:block;}}@media (min-width: 48px) and (max-width: 63.98px) {g{--s48:block;}}@media (min-width: 64px) {g{--s64:block;}}</style><g><use href="#i-import-solid"/></g></svg>