<svg xmlns="http://www.w3.org/2000/svg"><defs><symbol id="i-instagram"><symbol id="s16" viewBox="0 0 16 16"><path d="M10.23 3H5.79C4.26 3 3.01 4.25 3.01 5.78v4.44c0 1.53 1.25 2.78 2.78 2.78h4.44c1.53 0 2.78-1.25 2.78-2.78V5.78c0-1.53-1.25-2.78-2.78-2.78m1.84 7.22c0 1.03-.84 1.84-1.84 1.84H5.79c-1.03 0-1.84-.81-1.84-1.84V5.78c0-1.03.81-1.84 1.84-1.84h4.44c1.03 0 1.84.81 1.84 1.84zM8.01 5.34C6.54 5.34 5.35 6.53 5.35 8s1.19 2.66 2.66 2.66S10.67 9.47 10.67 8 9.48 5.34 8.01 5.34m0 4.38c-.94 0-1.72-.78-1.72-1.72s.78-1.72 1.72-1.72S9.73 7.06 9.73 8s-.78 1.72-1.72 1.72m3.28-4.44a.591.591 0 0 1-1.18 0c0-.34.25-.59.59-.59.31.03.59.28.59.59"/></symbol><symbol id="s24" viewBox="0 0 24 24"><path d="M15.34 4.48H8.68a4.18 4.18 0 0 0-4.17 4.17v6.66c0 2.3 1.88 4.17 4.17 4.17h6.66c2.3 0 4.17-1.88 4.17-4.17V8.65c0-2.3-1.87-4.17-4.17-4.17m2.76 10.83c0 1.55-1.27 2.77-2.77 2.77H8.67c-1.55 0-2.77-1.22-2.77-2.77V8.65c0-1.55 1.22-2.77 2.77-2.77h6.66c1.55 0 2.77 1.22 2.77 2.77zM12.01 8c-2.2 0-3.98 1.78-3.98 3.98s1.78 3.98 3.98 3.98 3.98-1.78 3.98-3.98S14.21 8 12.01 8m0 6.56c-1.41 0-2.58-1.17-2.58-2.58S10.6 9.4 12.01 9.4s2.58 1.17 2.58 2.58-1.17 2.58-2.58 2.58m4.92-6.65c0 .47-.37.89-.89.89-.47 0-.89-.38-.89-.89s.37-.89.89-.89c.47.05.89.42.89.89"/></symbol><symbol id="s32" viewBox="0 0 32 32"><path d="M20.45 6h-8.88c-3.06 0-5.56 2.5-5.56 5.56v8.87c0 3.06 2.5 5.56 5.56 5.56h8.87c3.06 0 5.56-2.5 5.56-5.56v-8.88c0-3.06-2.5-5.56-5.56-5.56Zm3.68 14.44c0 2.06-1.69 3.69-3.69 3.69h-8.88c-2.06 0-3.69-1.63-3.69-3.69v-8.88c0-2.06 1.63-3.69 3.69-3.69h8.87c2.06 0 3.69 1.63 3.69 3.69v8.88Zm-8.12-9.75c-2.94 0-5.31 2.38-5.31 5.31s2.38 5.31 5.31 5.31 5.31-2.37 5.31-5.31-2.37-5.31-5.31-5.31m0 8.75c-1.88 0-3.44-1.56-3.44-3.44s1.56-3.44 3.44-3.44 3.44 1.56 3.44 3.44-1.56 3.44-3.44 3.44m6.56-8.88c0 .63-.5 1.19-1.19 1.19-.63 0-1.19-.5-1.19-1.19s.5-1.19 1.19-1.19c.63.06 1.19.56 1.19 1.19"/></symbol><symbol id="s40" viewBox="0 0 40 40"><path d="M25.56 7.49H14.47c-3.83 0-6.95 3.13-6.95 6.95v11.09c0 3.83 3.13 6.95 6.95 6.95h11.09c3.83 0 6.95-3.13 6.95-6.95V14.44c0-3.83-3.12-6.95-6.95-6.95m4.6 18.05c0 2.58-2.11 4.61-4.61 4.61H14.46c-2.58 0-4.61-2.03-4.61-4.61V14.45c0-2.58 2.03-4.61 4.61-4.61h11.09c2.58 0 4.61 2.03 4.61 4.61zM20.01 13.35c-3.67 0-6.64 2.97-6.64 6.64s2.97 6.64 6.64 6.64 6.64-2.97 6.64-6.64-2.97-6.64-6.64-6.64m0 10.94c-2.34 0-4.3-1.95-4.3-4.3s1.95-4.3 4.3-4.3 4.3 1.95 4.3 4.3-1.95 4.3-4.3 4.3m8.2-11.09c0 .78-.62 1.48-1.48 1.48-.78 0-1.48-.63-1.48-1.48s.62-1.48 1.48-1.48c.78.08 1.48.7 1.48 1.48"/></symbol><symbol id="s48" viewBox="0 0 48 48"><path d="M30.66 9.13H17.35c-4.59 0-8.34 3.75-8.34 8.34v13.31c0 4.59 3.75 8.34 8.34 8.34h13.31c4.59 0 8.34-3.75 8.34-8.34V17.47c0-4.59-3.75-8.34-8.34-8.34m5.54 21.65c0 3.09-2.53 5.53-5.53 5.53H17.36c-3.09 0-5.53-2.44-5.53-5.53V17.47c0-3.09 2.44-5.53 5.53-5.53h13.31c3.09 0 5.53 2.44 5.53 5.53zM24.01 16.16c-4.41 0-7.97 3.56-7.97 7.97s3.56 7.97 7.97 7.97 7.97-3.56 7.97-7.97-3.56-7.97-7.97-7.97m0 13.12c-2.81 0-5.16-2.34-5.16-5.16s2.34-5.16 5.16-5.16 5.16 2.34 5.16 5.16-2.34 5.16-5.16 5.16m9.84-13.31c0 .94-.75 1.78-1.78 1.78-.94 0-1.78-.75-1.78-1.78s.75-1.78 1.78-1.78c.94.09 1.78.84 1.78 1.78"/></symbol><symbol id="s64" viewBox="0 0 64 64"><path d="M40.89 11.99H23.14c-6.12 0-11.13 5-11.13 11.13v17.75c0 6.13 5 11.13 11.13 11.13h17.75c6.12 0 11.13-5 11.13-11.13V23.12c0-6.12-5-11.13-11.12-11.13Zm7.38 28.87c0 4.12-3.38 7.37-7.37 7.37H23.15c-4.12 0-7.37-3.25-7.37-7.37V23.11c0-4.12 3.25-7.37 7.37-7.37H40.9c4.13 0 7.38 3.25 7.38 7.37v17.75Zm-16.25-19.5c-5.88 0-10.63 4.75-10.63 10.63s4.75 10.63 10.63 10.63 10.63-4.75 10.63-10.63-4.75-10.63-10.63-10.63m0 17.5c-3.75 0-6.88-3.13-6.88-6.88s3.13-6.88 6.88-6.88 6.88 3.13 6.88 6.88-3.13 6.88-6.88 6.88m13.12-17.75c0 1.25-1 2.37-2.37 2.37-1.25 0-2.37-1-2.37-2.38s1-2.38 2.37-2.38c1.25.13 2.37 1.13 2.37 2.38Z"/></symbol><use style="display: var(--s16, none)" href="#s16"/><use style="display: var(--s24, none)" href="#s24"/><use style="display: var(--s32, none)" href="#s32"/><use style="display: var(--s40, none)" href="#s40"/><use style="display: var(--s48, none)" href="#s48"/><use style="display: var(--s64, none)" href="#s64"/></symbol></defs><style>@media (max-width: 23.98px) {g{--s16:block;}}@media (min-width: 24px) and (max-width: 31.98px) {g{--s24:block;}}@media (min-width: 32px) and (max-width: 39.98px) {g{--s32:block;}}@media (min-width: 40px) and (max-width: 47.98px) {g{--s40:block;}}@media (min-width: 48px) and (max-width: 63.98px) {g{--s48:block;}}@media (min-width: 64px) {g{--s64:block;}}</style><g><use href="#i-instagram"/></g></svg>