<svg xmlns="http://www.w3.org/2000/svg"><defs><symbol id="i-key-solid"><symbol id="s16" viewBox="0 0 16 16"><path d="M7.67 5.49a4.21 4.21 0 0 0-3.42-1.75C1.91 3.74 0 5.65 0 7.99s1.91 4.25 4.25 4.25c1.41 0 2.65-.69 3.42-1.75H9l.65-.42 1.27.98 1.59-.96h1.6L16 5.49zM3.8 9.26a1.25 1.25 0 1 1 0-2.5 1.25 1.25 0 0 1 0 2.5"/></symbol><symbol id="s24" viewBox="0 0 24 24"><path d="M11.15 8.5a6.12 6.12 0 0 0-5.02-2.62C2.75 5.88 0 8.63 0 12s2.75 6.12 6.13 6.12c2.08 0 3.91-1.04 5.02-2.62h.77l1.79.6 1.7-1.25 1.95 1.5 1.79-1.44h2.23l2.63-6.4H11.16Zm-6.09 5.53c-1.1 0-2-.9-2-2s.9-2 2-2 2 .9 2 2-.9 2-2 2"/></symbol><symbol id="s32" viewBox="0 0 32 32"><path d="M14.85 11.5a8.04 8.04 0 0 0-5.09-3.33h-.03c-.23-.04-.46-.08-.7-.11q-.255-.03-.51-.03c-.1 0-.2-.02-.29-.02h-.1C3.7 8 .1 11.59.1 16s3.61 8 8.04 8h.1c.1 0 .2-.02.29-.02.17 0 .34-.02.51-.03.24-.02.47-.06.7-.11h.03c2.06-.4 3.89-1.59 5.09-3.33h1.34l2.33.78 2.3-1.7 2.61 1.99 2.34-1.87h2.94l3.38-8.21zm-7.6 7.54c-1.65 0-3-1.35-3-3s1.35-3 3-3 3 1.35 3 3-1.35 3-3 3m18.72-2.77h-8.48c-.55 0-1-.45-1-1s.45-1 1-1h8.48c.55 0 1 .45 1 1s-.45 1-1 1"/></symbol><symbol id="s40" viewBox="0 0 40 40"><path d="M18.07 14.44c-.07-.11-.15-.21-.23-.31-.08-.11-.17-.23-.26-.34-.22-.28-.45-.54-.7-.79-.05-.05-.11-.1-.16-.15-.24-.23-.49-.45-.75-.65l-.26-.2c-.25-.19-.51-.36-.78-.52-.06-.04-.13-.08-.19-.12-.69-.39-1.43-.7-2.21-.92l-.25-.06c-.31-.08-.62-.14-.93-.19-.1-.02-.2-.03-.29-.04-.4-.05-.79-.08-1.2-.08-5.49 0-9.94 4.43-9.94 9.87s4.45 9.88 9.92 9.88c.41 0 .81-.03 1.2-.08.1-.01.2-.03.29-.04.32-.05.63-.11.93-.19l.25-.06c.78-.22 1.52-.53 2.21-.92.07-.04.13-.08.2-.12.27-.16.53-.33.78-.52.09-.07.18-.13.27-.2.26-.2.51-.42.74-.64l.18-.18c.24-.24.47-.5.69-.77.09-.11.18-.23.26-.35.07-.1.16-.2.23-.3h2.19l2.87.96 2.9-2.14 3.26 2.49 2.88-2.31h3.63l4.12-10.01zm-9.01 9.05c-1.94 0-3.51-1.57-3.51-3.5s1.58-3.5 3.51-3.5 3.51 1.57 3.51 3.5-1.58 3.5-3.51 3.5m23.46-3.33H21.88c-.62 0-1.13-.5-1.13-1.12s.51-1.12 1.13-1.12h10.64c.62 0 1.13.5 1.13 1.12s-.51 1.12-1.13 1.12"/></symbol><symbol id="s48" viewBox="0 0 48 48"><path d="M21.53 17.5c-.09-.14-.19-.27-.29-.4-.1-.14-.21-.28-.32-.42-.26-.33-.54-.65-.83-.94-.06-.06-.12-.11-.18-.17q-.435-.42-.9-.78c-.1-.08-.2-.15-.3-.23-.3-.22-.62-.43-.95-.63-.07-.04-.14-.09-.21-.13-.82-.47-1.7-.83-2.63-1.09-.09-.03-.19-.05-.28-.07a14 14 0 0 0-1.46-.28c-.47-.06-.94-.1-1.43-.1C5.27 12.25 0 17.52 0 24s5.27 11.75 11.75 11.75c.48 0 .96-.04 1.43-.1.12-.01.23-.03.34-.05.38-.06.75-.13 1.12-.23.09-.02.19-.05.28-.07.93-.26 1.81-.63 2.63-1.1.07-.04.14-.09.21-.13.33-.2.64-.41.95-.63.1-.07.2-.15.3-.22.32-.25.62-.51.91-.8.05-.05.11-.1.16-.15.3-.3.58-.63.85-.96.11-.13.21-.27.31-.41s.2-.27.3-.41h3.12l3.4 1.14 3.49-2.58 3.9 2.98 3.41-2.74h4.31l4.85-11.81H21.56ZM10.62 28.31c-2.34 0-4.25-1.91-4.25-4.25s1.91-4.25 4.25-4.25 4.25 1.91 4.25 4.25-1.91 4.25-4.25 4.25m28.67-4.15H25.56a1.25 1.25 0 0 1 0-2.5h13.73a1.25 1.25 0 0 1 0 2.5"/></symbol><symbol id="s64" viewBox="0 0 64 64"><path d="M28.26 23.61c-.3-.47-.63-.91-.98-1.34-.03-.04-.07-.08-.1-.12-.59-.7-1.23-1.35-1.92-1.93-.09-.07-.17-.14-.26-.21q-.405-.33-.84-.63c-.09-.06-.17-.12-.26-.18-.32-.22-.66-.41-1-.61-.16-.09-.33-.18-.5-.27-.22-.11-.44-.22-.67-.32-.23-.11-.47-.21-.71-.3-.28-.11-.55-.21-.84-.31-.18-.06-.37-.12-.56-.17-.28-.08-.56-.15-.85-.22-.15-.03-.3-.07-.45-.1-.4-.08-.8-.14-1.21-.18-.13-.01-.26-.03-.39-.04-.45-.04-.91-.07-1.37-.07C6.89 16.61 0 23.51 0 31.99s6.9 15.38 15.38 15.38c.46 0 .92-.03 1.37-.07a17 17 0 0 0 1.61-.23c.15-.03.29-.07.43-.1.29-.07.57-.14.86-.22a13 13 0 0 0 1.41-.49c.23-.09.45-.19.67-.29l.69-.33a15 15 0 0 0 1.5-.87c.08-.05.15-.11.23-.16.3-.21.59-.42.87-.65.08-.07.16-.13.24-.2.7-.59 1.35-1.24 1.94-1.94a1 1 0 0 0 .08-.1q.525-.645.99-1.35h5.09l4.44 1.49 4.7-3.48 5.19 3.97 4.44-3.58h5.65L64 23.61zM13.53 37.44c-2.96 0-5.38-2.41-5.38-5.38s2.41-5.38 5.38-5.38 5.38 2.41 5.38 5.38-2.41 5.38-5.38 5.38m38.86-5.53H33.43c-.76 0-1.38-.62-1.38-1.38s.62-1.38 1.38-1.38h18.96c.76 0 1.38.62 1.38 1.38s-.62 1.38-1.38 1.38"/></symbol><use style="display: var(--s16, none)" href="#s16"/><use style="display: var(--s24, none)" href="#s24"/><use style="display: var(--s32, none)" href="#s32"/><use style="display: var(--s40, none)" href="#s40"/><use style="display: var(--s48, none)" href="#s48"/><use style="display: var(--s64, none)" href="#s64"/></symbol></defs><style>@media (max-width: 23.98px) {g{--s16:block;}}@media (min-width: 24px) and (max-width: 31.98px) {g{--s24:block;}}@media (min-width: 32px) and (max-width: 39.98px) {g{--s32:block;}}@media (min-width: 40px) and (max-width: 47.98px) {g{--s40:block;}}@media (min-width: 48px) and (max-width: 63.98px) {g{--s48:block;}}@media (min-width: 64px) {g{--s64:block;}}</style><g><use href="#i-key-solid"/></g></svg>