<svg xmlns="http://www.w3.org/2000/svg"><defs><symbol id="i-key"><symbol id="s16" viewBox="0 0 16 16"><path d="M7.69 5.5a4.22 4.22 0 0 0-2.32-1.59c-.09-.03-.18-.05-.28-.07-.08-.02-.17-.03-.26-.05-.2-.03-.39-.05-.59-.05C1.91 3.75 0 5.66 0 8s1.91 4.25 4.25 4.25c.21 0 .41-.02.61-.05.07 0 .13-.02.2-.04.13-.03.27-.06.4-.1.07-.02.15-.04.22-.07.16-.06.32-.13.47-.2.11-.05.21-.12.31-.18.06-.04.13-.08.19-.12.11-.07.21-.15.31-.23.03-.03.06-.05.09-.08.23-.2.45-.43.63-.68H9l.65-.42 1.27.98 1.59-.96h1.6L16 5.5zm5.42 3.1H12.1l-1.07.64-1.3-1-1.16.75h-.21c0-.33-.19-.64-.53-.74-.4-.12-.82.11-.93.51-.04.13-.09.26-.15.38l-.13.22c-.24.42-.58.75-.96.98-.02.01-.04.03-.07.04q-.27.15-.57.24c-.05.01-.09.02-.14.04-.2.05-.41.08-.63.08-1.52 0-2.75-1.23-2.75-2.75s1.23-2.75 2.75-2.75c.22 0 .44.03.65.09.03 0 .07.01.1.02.67.19 1.25.63 1.62 1.27l.12.21c.05.11.1.22.14.34a.747.747 0 0 0 1.46-.18h5.43l-.66 1.6ZM3.8 6.77a1.25 1.25 0 1 0 0 2.5 1.25 1.25 0 0 0 0-2.5m-.25 1.25c0-.14.11-.25.25-.25s.25.11.25.25c0 .28-.5.28-.5 0"/></symbol><symbol id="s24" viewBox="0 0 24 24"><path d="M11.14 8.65c-.67-.96-1.6-1.7-2.67-2.14a3 3 0 0 0-.27-.11c-.14-.05-.28-.09-.42-.13-.15-.04-.31-.08-.46-.11-.11-.02-.22-.05-.33-.06-.28-.04-.56-.07-.85-.07C2.75 6.02 0 8.77 0 12.15s2.75 6.12 6.13 6.12c.29 0 .57-.03.85-.07.1-.01.21-.04.31-.06.17-.03.33-.07.49-.12.13-.04.25-.08.38-.12.12-.04.24-.09.35-.14a6.25 6.25 0 0 0 2.63-2.12h.78l1.79.6 1.7-1.25 1.95 1.5 1.79-1.44h2.23l2.63-6.4H11.15Zm9.06 4.65h-1.68l-1.2.96-1.91-1.46-2.02 1.5-1.06-.35h-.41a.89.89 0 0 0-.57-.79.877.877 0 0 0-1.13.52c-.05.14-.12.27-.19.41l-.15.25c-.29.49-.65.91-1.07 1.24-.03.02-.06.05-.09.07-.09.07-.19.13-.29.19-.09.06-.18.11-.28.16-.07.04-.14.07-.22.11-.13.06-.26.11-.39.16l-.18.06c-.15.05-.3.08-.46.11-.05 0-.1.02-.16.03-.21.03-.42.05-.64.05-2.41 0-4.38-1.96-4.38-4.38S3.68 7.76 6.1 7.76c.22 0 .43.02.64.05.06 0 .12.03.18.04.14.03.29.06.43.1.08.02.15.05.22.08.11.04.23.09.34.14.09.04.18.09.27.13l.21.12c.59.37 1.1.89 1.48 1.53l.16.27c.07.15.15.3.2.45.16.46.67.7 1.12.53a.88.88 0 0 0 .58-.83h9.45l-1.19 2.9ZM5.56 10.18c-1.1 0-2 .9-2 2s.9 2 2 2 2-.9 2-2-.9-2-2-2m0 2.5c-.28 0-.5-.22-.5-.5s.22-.5.5-.5.5.22.5.5-.22.5-.5.5"/></symbol><symbol id="s32" viewBox="0 0 32 32"><path d="M14.77 11.47c-.03-.05-.08-.1-.11-.15-.15-.21-.3-.41-.47-.6-.03-.04-.07-.07-.1-.11a8 8 0 0 0-2.93-2.05c-.1-.04-.19-.08-.29-.11-.21-.07-.42-.14-.63-.2-.17-.05-.35-.08-.52-.12-.16-.03-.33-.07-.49-.09-.36-.05-.73-.08-1.1-.08C3.7 7.97.1 11.56.1 15.97s3.61 8 8.04 8c.38 0 .75-.03 1.13-.09.11-.02.22-.04.34-.06.26-.05.52-.11.77-.18.12-.03.24-.07.35-.11.25-.09.5-.19.74-.3.1-.04.19-.08.29-.13.32-.16.63-.34.92-.54 0 0 .02-.01.03-.02.3-.21.59-.44.86-.69.09-.08.16-.17.25-.25.17-.17.34-.35.5-.54.1-.12.19-.24.29-.37.06-.08.13-.15.18-.23h1.41l2.33.78 2.3-1.7 2.61 1.99 2.34-1.87h2.94l3.38-8.21H14.77Zm12.6 6.2h-2.3L23.41 19l-2.56-1.95-2.68 1.97-1.65-.55h-.81a1.002 1.002 0 0 0-1.94-.37c-.1.27-.23.53-.37.77l-.05.09c-.1.18-.22.34-.34.51-.04.05-.07.11-.11.16-.08.11-.18.2-.27.3-.1.11-.2.23-.31.33-.09.09-.18.16-.28.24-.12.11-.25.21-.38.31-.1.07-.19.13-.29.19-.14.09-.29.18-.44.26-.1.05-.2.1-.31.15-.16.07-.32.14-.49.2-.1.04-.2.07-.31.11-.18.05-.37.09-.56.13l-.27.06c-.28.04-.57.07-.86.07-3.32 0-6.03-2.69-6.03-6s2.7-6 6.03-6q.435 0 .84.06c.15.02.3.06.45.09.11.02.22.05.33.08.19.05.38.12.57.19.05.02.11.04.16.06.21.09.41.19.61.3.02.01.04.03.07.04.21.12.42.26.62.41a6.1 6.1 0 0 1 1.56 1.76l.05.08c.13.23.25.47.35.73.2.51.79.77 1.3.57.38-.15.61-.5.63-.87h13.42l-1.73 4.21ZM7.21 13.01a3.01 3.01 0 0 0-3.01 3 3.01 3.01 0 0 0 6.02 0c0-1.65-1.35-3-3.01-3m0 4c-.55 0-1-.45-1-1s.45-1 1-1 1 .45 1 1-.45 1-1 1m19.81-1.77c0 .55-.45 1-1 1H17.5c-.56 0-1-.45-1-1s.45-1 1-1h8.52c.56 0 1 .45 1 1"/></symbol><symbol id="s40" viewBox="0 0 40 40"><path d="M18.06 14.5c-.06-.09-.13-.16-.19-.24-.18-.25-.36-.49-.55-.72-.01-.02-.03-.03-.05-.05a10 10 0 0 0-2.61-2.1c-.08-.04-.15-.09-.23-.13-.26-.14-.53-.26-.8-.37-.15-.06-.3-.12-.45-.17-.24-.08-.48-.16-.72-.23-.23-.06-.46-.11-.69-.16-.19-.04-.38-.08-.58-.11-.44-.06-.89-.1-1.35-.1-5.47 0-9.92 4.43-9.92 9.88s4.45 9.88 9.92 9.88c.39 0 .77-.03 1.14-.07.05 0 .09 0 .14-.02a9.83 9.83 0 0 0 6.95-4.29h2.18l2.87.96 2.9-2.14 3.26 2.49 2.88-2.31h3.63l4.12-10.01H18.05Zm16.23 7.76h-2.91l-2.12 1.7-3.2-2.44-3.32 2.45-2.11-.71h-1.51c0-.44-.27-.85-.71-1.02a1.13 1.13 0 0 0-1.47.62c-.13.32-.28.62-.45.91l-.03.05a7.6 7.6 0 0 1-1.2 1.55l-.04.04a8 8 0 0 1-.69.6c-.03.02-.05.04-.08.06-.23.18-.48.34-.73.48-.05.03-.09.05-.14.08-.24.13-.48.25-.73.36-.08.04-.17.07-.25.1-.23.09-.45.17-.69.23-.15.04-.3.07-.45.1-.18.04-.36.08-.55.11-.35.05-.71.08-1.07.08-4.22 0-7.66-3.42-7.66-7.62s3.43-7.62 7.66-7.62c.36 0 .72.03 1.07.08.18.03.36.07.53.11.16.03.32.06.47.11.23.06.45.14.66.23.09.04.19.07.28.11.24.1.48.22.71.35.06.03.12.06.17.1.24.14.47.3.7.46l.12.09q.345.27.66.57l.09.09c.21.21.41.43.59.67.02.02.04.05.05.08.19.25.36.5.52.77v.02c.18.29.33.58.46.9.24.58.9.85 1.47.61.41-.17.66-.56.69-.97h17.47l-2.27 5.51ZM8.56 16.55c-1.94 0-3.51 1.57-3.51 3.5s1.58 3.5 3.51 3.5 3.51-1.57 3.51-3.5-1.58-3.5-3.51-3.5m0 5c-.83 0-1.51-.67-1.51-1.5s.68-1.5 1.51-1.5 1.51.67 1.51 1.5-.68 1.5-1.51 1.5m25.09-2.46c0 .62-.51 1.12-1.13 1.12H21.88c-.62 0-1.13-.5-1.13-1.12s.51-1.12 1.13-1.12h10.64c.62 0 1.13.5 1.13 1.12"/></symbol><symbol id="s48" viewBox="0 0 48 48"><path d="M21.53 17.5a11.76 11.76 0 0 0-6.9-4.89h-.01c-.44-.11-.89-.2-1.35-.26-.06 0-.11-.01-.17-.02-.45-.05-.9-.09-1.35-.09C5.27 12.25 0 17.53 0 24s5.27 11.75 11.75 11.75q.69 0 1.35-.09c.06 0 .11-.01.17-.02a11.7 11.7 0 0 0 8.26-5.15h3.11l3.4 1.14 3.49-2.58 3.9 2.98 3.41-2.74h4.31L48 17.48H21.54Zm19.94 9.31h-3.51l-2.56 2.06-3.83-2.94-3.95 2.92-2.55-.86h-2.39c-.03-.46-.3-.89-.75-1.08a1.25 1.25 0 0 0-1.64.67c-.15.37-.34.71-.54 1.05-.17.3-.37.58-.57.85-.05.06-.09.13-.14.19-.21.26-.43.51-.66.74-.06.06-.11.12-.17.18-.23.23-.48.44-.73.64-.07.06-.14.11-.21.16-.25.19-.51.36-.78.52-.09.05-.18.11-.28.16-.26.14-.52.28-.8.39-.13.06-.26.1-.39.15-.25.09-.5.19-.75.26-.2.06-.4.09-.61.14-.2.04-.4.09-.61.12-.42.06-.85.1-1.29.1-5.1 0-9.25-4.15-9.25-9.25s4.15-9.25 9.25-9.25c.43 0 .86.04 1.29.1.21.03.41.08.61.12s.41.08.61.14c.26.07.51.16.75.26l.39.15c.27.12.54.25.8.39.09.05.19.1.28.16.27.16.53.33.78.52.07.05.14.11.21.17.25.2.5.41.73.64.06.06.12.12.18.19.23.23.45.48.65.74l.15.21a9.3 9.3 0 0 1 1.1 1.88 1.245 1.245 0 0 0 2.39-.4h21.61l-2.79 6.81Zm-31.35-7c-2.34 0-4.25 1.91-4.25 4.25s1.91 4.25 4.25 4.25 4.25-1.91 4.25-4.25-1.91-4.25-4.25-4.25m0 6c-.97 0-1.75-.79-1.75-1.75s.79-1.75 1.75-1.75 1.75.79 1.75 1.75-.79 1.75-1.75 1.75m30.42-2.9c0 .69-.56 1.25-1.25 1.25H25.56a1.25 1.25 0 0 1 0-2.5h13.73c.69 0 1.25.56 1.25 1.25"/></symbol><symbol id="s64" viewBox="0 0 64 64"><path d="M28.26 23.62a15.45 15.45 0 0 0-8.14-6.24c-.02 0-.03-.01-.05-.02-.25-.08-.5-.15-.75-.22-.09-.02-.18-.05-.28-.07-.21-.05-.43-.1-.64-.14-.14-.03-.29-.05-.43-.08-.18-.03-.36-.06-.55-.09-.2-.03-.4-.05-.59-.07-.14-.01-.28-.03-.42-.04-.35-.02-.7-.04-1.05-.04C6.89 16.62 0 23.52 0 32s6.9 15.38 15.38 15.38c.35 0 .7-.01 1.05-.04.14 0 .29-.03.43-.04l.59-.06.56-.09c.14-.02.28-.05.41-.08q.33-.06.66-.15c.08-.02.16-.04.25-.06 3.66-.97 6.86-3.27 8.95-6.48h5.09l4.44 1.49 4.7-3.48 5.19 3.97 4.44-3.58h5.65l6.22-15.16zm27.67 12.41h-4.77l-3.52 2.83-5.12-3.92-5.21 3.86-3.51-1.18h-4.23c0-.53-.31-1.03-.82-1.25-.7-.31-1.51.01-1.81.71-.12.27-.25.53-.38.79l-.26.45c-1.69 2.91-4.45 5-7.61 5.87-.02 0-.05.01-.07.02-.5.13-1.01.24-1.53.31-.04 0-.09 0-.13.01-.52.07-1.05.11-1.58.11-6.96 0-12.63-5.66-12.63-12.62S8.41 19.4 15.38 19.4c.53 0 1.06.04 1.58.11.04 0 .09 0 .13.01.52.07 1.03.18 1.53.31.03 0 .06.01.08.02 3.16.87 5.92 2.95 7.61 5.86l.25.44c.13.25.26.51.38.77a1.367 1.367 0 0 0 2.62-.53H59.9l-3.96 9.66Zm-42.4-9.33c-2.96 0-5.38 2.41-5.38 5.38s2.41 5.38 5.38 5.38 5.38-2.41 5.38-5.38-2.41-5.38-5.38-5.38m0 8c-1.45 0-2.63-1.18-2.63-2.62a2.631 2.631 0 0 1 5.26 0c0 1.44-1.18 2.62-2.63 2.62m40.23-4.16c0 .76-.62 1.38-1.38 1.38H33.41c-.76 0-1.38-.62-1.38-1.38s.62-1.38 1.38-1.38h18.97c.76 0 1.38.62 1.38 1.38"/></symbol><use style="display: var(--s16, none)" href="#s16"/><use style="display: var(--s24, none)" href="#s24"/><use style="display: var(--s32, none)" href="#s32"/><use style="display: var(--s40, none)" href="#s40"/><use style="display: var(--s48, none)" href="#s48"/><use style="display: var(--s64, none)" href="#s64"/></symbol></defs><style>@media (max-width: 23.98px) {g{--s16:block;}}@media (min-width: 24px) and (max-width: 31.98px) {g{--s24:block;}}@media (min-width: 32px) and (max-width: 39.98px) {g{--s32:block;}}@media (min-width: 40px) and (max-width: 47.98px) {g{--s40:block;}}@media (min-width: 48px) and (max-width: 63.98px) {g{--s48:block;}}@media (min-width: 64px) {g{--s64:block;}}</style><g><use href="#i-key"/></g></svg>