<svg xmlns="http://www.w3.org/2000/svg"><defs><symbol id="i-keyboard-solid"><symbol id="s16" viewBox="0 0 16 16"><path d="M14.74 2.75H1.24C.55 2.75 0 3.31 0 4v8c0 .69.56 1.25 1.25 1.25h13.5c.69 0 1.25-.56 1.25-1.25V4c0-.69-.56-1.25-1.25-1.25ZM7.25 4.99h1.5v1.5h-1.5zm0 2.23h1.5v1.5h-1.5zM4.63 4.99h1.5v1.5h-1.5zm0 2.23h1.5v1.5h-1.5zm-1.12 3.79h-1.5v-1.5h1.5zm0-2.29h-1.5v-1.5h1.5zm0-2.23h-1.5v-1.5h1.5zm7.86 4.52H4.63v-1.5h6.74zm0-2.29h-1.5v-1.5h1.5zm0-2.23h-1.5v-1.5h1.5zm2.62 4.52h-1.5v-1.5h1.5zm0-2.29h-1.5v-1.5h1.5zm0-2.23h-1.5v-1.5h1.5z"/></symbol><symbol id="s24" viewBox="0 0 24 24"><path d="M22.11 4.22H1.87C.83 4.22 0 5.06 0 6.1v11.8c0 1.03.84 1.88 1.88 1.88h20.25c1.03 0 1.88-.84 1.88-1.88V6.1c0-1.03-.84-1.88-1.88-1.88Zm-9.37 3.43h1.75V9.4h-1.75zm0 3.43h1.75v1.75h-1.75zM9.52 7.65h1.75V9.4H9.52zm0 3.43h1.75v1.75H9.52zM6.31 7.65h1.75V9.4H6.31zm0 3.43h1.75v1.75H6.31zm-1.47 5.27H3.09V14.6h1.75zm0-3.52H3.09v-1.75h1.75zm0-3.43H3.09V7.65h1.75zm12.86 6.95H6.31V14.6h11.4v1.75Zm0-3.52h-1.75v-1.75h1.75zm0-3.43h-1.75V7.65h1.75zm3.22 6.95h-1.75V14.6h1.75zm0-3.52h-1.75v-1.75h1.75zm0-3.43h-1.75V7.65h1.75z"/></symbol><symbol id="s32" viewBox="0 0 32 32"><path d="M29.49 5.68h-27C1.11 5.68 0 6.8 0 8.18v15.63a2.5 2.5 0 0 0 2.5 2.5h27a2.5 2.5 0 0 0 2.5-2.5V8.18a2.5 2.5 0 0 0-2.5-2.5ZM18.62 9.66h2v2h-2zm0 3.8h2v2h-2zm0 3.79h2v2h-2zm-3.61-7.59h2v2h-2zm0 3.8h2v2h-2zm0 3.79h2v2h-2zm-3.62-7.59h2v2h-2zm0 3.8h2v2h-2zm0 3.79h2v2h-2zM7.78 9.66h2v2h-2zm0 3.8h2v2h-2zm0 3.79h2v2h-2zm-1.61 5.8h-2v-2h2zm0-3.8h-2v-2h2zm0-3.79h-2v-2h2zm0-3.8h-2v-2h2zm18.06 11.39H7.78v-2h16.45zm0-3.8h-2v-2h2zm0-3.79h-2v-2h2zm0-3.8h-2v-2h2zm3.61 11.39h-2v-2h2zm0-3.8h-2v-2h2zm0-3.79h-2v-2h2zm0-3.8h-2v-2h2z"/></symbol><symbol id="s40" viewBox="0 0 40 40"><path d="M37.87 7.17H2.13C.95 7.17 0 8.12 0 9.29v21.42c0 1.17.95 2.12 2.13 2.12h35.75c1.17 0 2.13-.95 2.13-2.12V9.29c0-1.17-.95-2.12-2.13-2.12Zm-13.13 5h2.25v2.25h-2.25zm0 4.77h2.25v2.25h-2.25zm0 4.78h2.25v2.25h-2.25zm-3.9-9.55h2.25v2.25h-2.25zm0 4.77h2.25v2.25h-2.25zm0 4.78h2.25v2.25h-2.25zm-3.89-9.55h2.25v2.25h-2.25zm0 4.77h2.25v2.25h-2.25zm0 4.78h2.25v2.25h-2.25zm-3.9-9.55h2.25v2.25h-2.25zm0 4.77h2.25v2.25h-2.25zm0 4.78h2.25v2.25h-2.25zm-3.9-9.55h2.25v2.25H9.15zm0 4.77h2.25v2.25H9.15zm0 4.78h2.25v2.25H9.15zm-1.64 7.02H5.26v-2.25h2.25zm0-4.77H5.26v-2.25h2.25zm0-4.78H5.26v-2.25h2.25zm0-4.77H5.26v-2.25h2.25zm23.38 14.32H9.15v-2.25h21.73v2.25Zm0-4.77h-2.25v-2.25h2.25zm0-4.78h-2.25v-2.25h2.25zm0-4.77h-2.25v-2.25h2.25zm3.89 14.32h-2.25v-2.25h2.25zm0-4.77h-2.25v-2.25h2.25zm0-4.78h-2.25v-2.25h2.25zm0-4.77h-2.25v-2.25h2.25z"/></symbol><symbol id="s48" viewBox="0 0 48 48"><path d="M44.74 8.62H3.24C1.45 8.62 0 10.08 0 11.87v24.24c0 1.79 1.46 3.25 3.25 3.25h41.5c1.79 0 3.25-1.46 3.25-3.25V11.87c0-1.79-1.46-3.25-3.25-3.25Zm-10.23 4.93h2.5v2.5h-2.5zm0 4.6h2.5v2.5h-2.5zm0 4.59h2.5v2.5h-2.5zm0 4.59h2.5v2.5h-2.5zm-4.7-13.78h2.5v2.5h-2.5zm0 4.6h2.5v2.5h-2.5zm0 4.59h2.5v2.5h-2.5zm0 4.59h2.5v2.5h-2.5zm-4.7-13.78h2.5v2.5h-2.5zm0 4.6h2.5v2.5h-2.5zm0 4.59h2.5v2.5h-2.5zm0 4.59h2.5v2.5h-2.5zm-4.69-13.78h2.5v2.5h-2.5zm0 4.6h2.5v2.5h-2.5zm0 4.59h2.5v2.5h-2.5zm0 4.59h2.5v2.5h-2.5zm-4.7-13.78h2.5v2.5h-2.5zm0 4.6h2.5v2.5h-2.5zm0 4.59h2.5v2.5h-2.5zm0 4.59h2.5v2.5h-2.5zm-4.69-13.78h2.5v2.5h-2.5zm0 4.6h2.5v2.5h-2.5zm0 4.59h2.5v2.5h-2.5zm0 4.59h2.5v2.5h-2.5zm-2.2 7.1h-2.5v-2.5h2.5zm0-4.6h-2.5v-2.5h2.5zm0-4.59h-2.5v-2.5h2.5zm0-4.59h-2.5v-2.5h2.5zm0-4.6h-2.5v-2.5h2.5zm28.28 18.38H10.92v-2.5h26.19zm4.59 0h-2.5v-2.5h2.5zm0-4.6h-2.5v-2.5h2.5zm0-4.59h-2.5v-2.5h2.5zm0-4.59h-2.5v-2.5h2.5zm0-4.6h-2.5v-2.5h2.5z"/></symbol><symbol id="s64" viewBox="0 0 64 64"><path d="M60.11 11.63H3.87C1.73 11.63 0 13.37 0 15.5v33c0 2.14 1.74 3.88 3.88 3.88h56.25c2.14 0 3.88-1.74 3.88-3.88v-33c0-2.14-1.74-3.88-3.88-3.88Zm-17.9 6.63h2.75v2.75h-2.75zm0 6.18h2.75v2.75h-2.75zm0 6.18h2.75v2.75h-2.75zm0 6.18h2.75v2.75h-2.75zm-5.78-18.54h2.75v2.75h-2.75zm0 6.18h2.75v2.75h-2.75zm0 6.18h2.75v2.75h-2.75zm0 6.18h2.75v2.75h-2.75zm-5.78-18.54h2.75v2.75h-2.75zm0 6.18h2.75v2.75h-2.75zm0 6.18h2.75v2.75h-2.75zm0 6.18h2.75v2.75h-2.75zm-5.78-18.54h2.75v2.75h-2.75zm0 6.18h2.75v2.75h-2.75zm0 6.18h2.75v2.75h-2.75zm0 6.18h2.75v2.75h-2.75zm-5.78-18.54h2.75v2.75h-2.75zm0 6.18h2.75v2.75h-2.75zm0 6.18h2.75v2.75h-2.75zm0 6.18h2.75v2.75h-2.75zM13.3 18.26h2.75v2.75H13.3zm0 6.18h2.75v2.75H13.3zm0 6.18h2.75v2.75H13.3zm-3.03 15.11H7.52v-2.75h2.75zm0-6.18H7.52V36.8h2.75zm0-6.18H7.52v-2.75h2.75zm0-6.18H7.52v-2.75h2.75zm0-6.18H7.52v-2.75h2.75zM13.3 36.8h2.75v2.75H13.3zm36.35 8.93H14.39v-2.75h35.26zm1.09-6.18h-2.75V36.8h2.75zm0-6.18h-2.75v-2.75h2.75zm0-6.18h-2.75v-2.75h2.75zm0-6.18h-2.75v-2.75h2.75zm5.79 24.72h-2.75v-2.75h2.75zm0-6.18h-2.75V36.8h2.75zm0-6.18h-2.75v-2.75h2.75zm0-6.18h-2.75v-2.75h2.75zm0-6.18h-2.75v-2.75h2.75z"/></symbol><use style="display: var(--s16, none)" href="#s16"/><use style="display: var(--s24, none)" href="#s24"/><use style="display: var(--s32, none)" href="#s32"/><use style="display: var(--s40, none)" href="#s40"/><use style="display: var(--s48, none)" href="#s48"/><use style="display: var(--s64, none)" href="#s64"/></symbol></defs><style>@media (max-width: 23.98px) {g{--s16:block;}}@media (min-width: 24px) and (max-width: 31.98px) {g{--s24:block;}}@media (min-width: 32px) and (max-width: 39.98px) {g{--s32:block;}}@media (min-width: 40px) and (max-width: 47.98px) {g{--s40:block;}}@media (min-width: 48px) and (max-width: 63.98px) {g{--s48:block;}}@media (min-width: 64px) {g{--s64:block;}}</style><g><use href="#i-keyboard-solid"/></g></svg>