<svg xmlns="http://www.w3.org/2000/svg"><defs><symbol id="i-labtubes-solid"><symbol id="s16" viewBox="0 0 16 16"><path d="M15.27 4.91c-.41 0-.75.34-.75.75v3.3h-.76V1.5h.65V0H1.72v1.5h.66v7.46h-.86v-3.3c0-.41-.34-.75-.75-.75s-.75.34-.75.75v8.08c0 1.24 1.01 2.25 2.25 2.25h11.51c1.24 0 2.25-1.01 2.25-2.25V5.66c0-.41-.34-.75-.75-.75ZM10.21 1.5h2.06v.98h-2.06zm1.29 6.57h.01c.41 0 .75.34.75.75s-.34.75-.75.75-.75-.34-.75-.75.33-.75.74-.75m-1.24-2.31c0-.41.33-.75.74-.75h.01c.41 0 .75.34.75.75s-.34.75-.75.75-.75-.34-.75-.75M7.43 1.5h1.28v7.46H7.43zm-1.2 6.64c0 .41-.34.75-.75.75s-.75-.34-.75-.75.33-.75.74-.75.75.34.75.75Zm-1.39 2.47c.41 0 .75.34.75.75s-.34.75-.75.75-.75-.34-.75-.75.33-.75.74-.75Zm-.91-5.12c0-.41.33-.75.74-.75s.75.34.75.75-.34.75-.75.75-.75-.34-.75-.75ZM3.88 1.5h2.06v1.02H3.88zm10.64 12.25c0 .41-.34.75-.75.75H2.26c-.41 0-.75-.34-.75-.75v-3.28h.86v1.19c0 1.4 1.13 2.53 2.53 2.53s2.53-1.14 2.53-2.53v-1.19h1.28v1.19c0 1.4 1.13 2.53 2.53 2.53s2.53-1.14 2.53-2.53v-1.19h.76v3.28Z"/></symbol><symbol id="s24" viewBox="0 0 24 24"><path d="M23.11 7.58c-.48 0-.88.39-.88.88v5.15h-1.71V1.75h1.27V0H2.33v1.75h1.28v11.86H1.74V8.46c0-.48-.39-.88-.88-.88s-.87.39-.87.87v12.37c0 1.75 1.42 3.17 3.17 3.17h17.65c1.75 0 3.17-1.42 3.17-3.17V8.45c0-.48-.39-.88-.88-.88Zm-8.03-5.83h3.7v2.13h-3.7zm2.43 10.56h.02c.48 0 .88.39.88.88s-.39.88-.88.88-.88-.39-.88-.88.38-.88.87-.88Zm-.97-3c-.48 0-.88-.39-.88-.88s.38-.88.87-.88h.02c.48 0 .88.39.88.88s-.39.88-.88.88Zm-5.73-7.56h2.51v11.86h-2.51zm-5.45 0h3.7v2.13h-3.7zm1.74 14.9h.02c.48 0 .88.39.88.88s-.39.88-.88.88-.88-.39-.88-.88.38-.88.87-.88ZM5.46 7.26c0-.48.38-.88.87-.88h.02c.48 0 .88.39.88.88s-.39.88-.88.88-.88-.39-.88-.88Zm2.4 5.03c-.48 0-.88-.39-.88-.88s.38-.88.87-.88h.02c.48 0 .88.39.88.88s-.39.88-.88.88Zm14.38 8.54c0 .78-.64 1.42-1.42 1.42H3.16c-.78 0-1.42-.64-1.42-1.42v-5.47h1.87v2.26a3.55 3.55 0 0 0 3.55 3.55h.11a3.55 3.55 0 0 0 3.55-3.55v-2.26h2.51v2.26a3.55 3.55 0 0 0 3.55 3.55h.11a3.55 3.55 0 0 0 3.55-3.55v-2.26h1.71v5.47Z"/></symbol><symbol id="s32" viewBox="0 0 32 32"><path d="M30.98 10.21c-.55 0-1 .45-1 1v7.13h-2.66V2.01h1.89V0H2.96v2h1.91v16.34H1.98v-7.13c0-.55-.45-1-1-1s-1 .45-1 1V27.9c0 2.26 1.84 4.1 4.1 4.1h23.8c2.26 0 4.1-1.84 4.1-4.1V11.21c0-.55-.45-1-1-1m-11.01-8.2h5.35v3.17h-5.35zm3.65 14.61h.02c.62 0 1.12.5 1.12 1.12s-.5 1.12-1.12 1.12-1.14-.5-1.14-1.12.49-1.12 1.11-1.12Zm-1.86-4.42c-.62 0-1.13-.5-1.13-1.12s.49-1.12 1.11-1.12h.02c.62 0 1.12.5 1.12 1.12s-.5 1.12-1.12 1.12M14.22 2.01h3.75v16.34h-3.75zm-7.35 0h5.35v3.17H6.87zm2.7 20.03h.02c.62 0 1.12.5 1.12 1.12s-.5 1.12-1.12 1.12-1.14-.5-1.14-1.12.49-1.12 1.11-1.12ZM7.79 9.87c0-.62.49-1.12 1.11-1.12h.02c.62 0 1.12.5 1.12 1.12s-.5 1.12-1.12 1.12-1.14-.5-1.14-1.12Zm2.48 6.91c-.62 0-1.14-.5-1.14-1.12s.49-1.12 1.11-1.12h.02c.62 0 1.12.5 1.12 1.12s-.5 1.12-1.12 1.12Zm19.71 11.13a2.1 2.1 0 0 1-2.1 2.1H4.08a2.1 2.1 0 0 1-2.1-2.1v-7.56h2.89v3.18c0 2.58 2.1 4.68 4.67 4.68s4.67-2.1 4.67-4.68v-3.18h3.75v3.18c0 2.58 2.1 4.68 4.67 4.68s4.68-2.1 4.68-4.68v-3.18h2.66v7.56Z"/></symbol><symbol id="s40" viewBox="0 0 40 40"><path d="M38.84 12.86c-.62 0-1.13.5-1.13 1.13v9.11h-3.62V2.27h2.51V.01H3.58v2.25h2.53v20.83h-3.9v-9.11c0-.62-.5-1.13-1.13-1.13s-1.12.51-1.12 1.13v21c0 2.77 2.25 5.03 5.02 5.03h29.95c2.77 0 5.02-2.26 5.02-5.03v-21c0-.62-.5-1.13-1.13-1.13Zm-14-10.59h7v4.26h-7zm4.74 18.54h.03c.76 0 1.38.62 1.38 1.38s-.62 1.38-1.38 1.38-1.39-.62-1.39-1.38.6-1.38 1.36-1.38m-2.34-5.63c-.76 0-1.39-.62-1.39-1.38s.6-1.38 1.36-1.38h.03c.76 0 1.38.62 1.38 1.38s-.62 1.38-1.38 1.38M17.61 2.27h4.98V23.1h-4.98zm-9.25 0h7v4.26h-7zm3.54 26.37h.03c.76 0 1.38.62 1.38 1.38s-.62 1.38-1.38 1.38-1.39-.62-1.39-1.38.6-1.38 1.36-1.38M9.7 12.29c0-.76.6-1.38 1.36-1.38h.03c.76 0 1.38.62 1.38 1.38s-.62 1.38-1.38 1.38-1.39-.62-1.39-1.38m3.19 8.61c-.76 0-1.39-.62-1.39-1.38s.6-1.38 1.36-1.38h.03c.76 0 1.38.62 1.38 1.38s-.62 1.38-1.38 1.38m24.82 14.09a2.77 2.77 0 0 1-2.77 2.77H4.99a2.77 2.77 0 0 1-2.77-2.77v-9.64h3.9v5.13c0 3.17 2.58 5.75 5.75 5.75s5.75-2.58 5.75-5.75v-5.13h4.98v5.13c0 3.17 2.58 5.75 5.75 5.75s5.75-2.58 5.75-5.75v-5.13h3.62v9.64Z"/></symbol><symbol id="s48" viewBox="0 0 48 48"><path d="M46.75 15.55c-.69 0-1.25.56-1.25 1.25v10.99h-4.57V2.52h3.13V.02H4.26v2.5h3.15v25.27H2.5V16.8a1.25 1.25 0 0 0-2.5 0v25.27c0 3.28 2.67 5.94 5.95 5.94h36.1c3.28 0 5.95-2.67 5.95-5.94V16.8c0-.69-.56-1.25-1.25-1.25M29.78 2.52h8.65v5.37h-8.65zm5.81 22.58h.03c.83 0 1.5.67 1.5 1.5s-.67 1.5-1.5 1.5-1.52-.67-1.52-1.5.66-1.5 1.48-1.5ZM32.77 18c-.83 0-1.52-.67-1.52-1.5s.66-1.5 1.48-1.5h.03c.83 0 1.5.67 1.5 1.5s-.67 1.5-1.5 1.5ZM21.06 2.52h6.22v25.27h-6.22zm-11.15 0h8.65v5.37H9.91zm4.37 32h.03c.83 0 1.5.67 1.5 1.5s-.67 1.5-1.5 1.5-1.52-.67-1.52-1.5.66-1.5 1.48-1.5Zm-2.49-19.84c0-.83.66-1.5 1.48-1.5h.03c.83 0 1.5.67 1.5 1.5s-.67 1.5-1.5 1.5-1.52-.67-1.52-1.5Zm3.93 10.33c-.83 0-1.52-.67-1.52-1.5s.66-1.5 1.48-1.5h.03c.83 0 1.5.67 1.5 1.5s-.67 1.5-1.5 1.5ZM45.5 42.08c0 1.9-1.55 3.44-3.45 3.44H5.95c-1.9 0-3.45-1.55-3.45-3.44V30.29h4.91v6.28c0 3.76 3.06 6.82 6.82 6.82s6.82-3.06 6.82-6.82v-6.28h6.22v6.28c0 3.76 3.06 6.82 6.82 6.82s6.82-3.06 6.82-6.82v-6.28h4.57v11.79Z"/></symbol><symbol id="s64" viewBox="0 0 64 64"><path d="M63.99 22.25c0-.76-.62-1.38-1.38-1.38s-1.38.62-1.38 1.38v15.16h-6.77V2.75h4.52V0H5.41v2.75h4.55v34.66H2.74V22.25a1.374 1.374 0 1 0-2.75 0V56.3c0 4.24 3.46 7.7 7.7 7.7h48.6c4.25 0 7.7-3.45 7.7-7.7zM39.46 2.75h12.26v7.81H39.46zm8.13 30.76h.04a2 2 0 1 1 0 4c-1.1 0-2.02-.9-2.02-2s.87-2 1.98-2m-3.8-9.61c-1.11 0-2.02-.9-2.02-2s.87-2 1.98-2h.04a2 2 0 1 1 0 4M27.72 2.75h8.98v34.66h-8.98zm-15 0h12.26v7.81H12.72zm6.18 43.44h.04a2 2 0 1 1 0 4c-1.1 0-2.02-.9-2.02-2s.87-2 1.98-2m-3.33-26.74c0-1.1.87-2 1.98-2h.04a2 2 0 1 1 0 4c-1.1 0-2.02-.9-2.02-2m5.27 13.9c-1.11 0-2.02-.9-2.02-2s.87-2 1.98-2h.04a2 2 0 1 1 0 4m40.4 22.95c0 2.73-2.22 4.95-4.95 4.95H7.69c-2.73 0-4.95-2.22-4.95-4.95V40.16h7.22v8.77c0 4.89 3.98 8.88 8.88 8.88s8.88-3.98 8.88-8.88v-8.77h8.98v8.77c0 4.89 3.98 8.88 8.88 8.88s8.88-3.98 8.88-8.88v-8.77h6.77V56.3Z"/></symbol><use style="display: var(--s16, none)" href="#s16"/><use style="display: var(--s24, none)" href="#s24"/><use style="display: var(--s32, none)" href="#s32"/><use style="display: var(--s40, none)" href="#s40"/><use style="display: var(--s48, none)" href="#s48"/><use style="display: var(--s64, none)" href="#s64"/></symbol></defs><style>@media (max-width: 23.98px) {g{--s16:block;}}@media (min-width: 24px) and (max-width: 31.98px) {g{--s24:block;}}@media (min-width: 32px) and (max-width: 39.98px) {g{--s32:block;}}@media (min-width: 40px) and (max-width: 47.98px) {g{--s40:block;}}@media (min-width: 48px) and (max-width: 63.98px) {g{--s48:block;}}@media (min-width: 64px) {g{--s64:block;}}</style><g><use href="#i-labtubes-solid"/></g></svg>