<svg xmlns="http://www.w3.org/2000/svg"><defs><symbol id="i-language"><symbol id="s16" viewBox="0 0 16 16"><path d="M8.78 0C4.97 0 1.86 2.94 1.57 6.67.65 7.55.09 8.7.09 9.97c0 .82.24 1.63.7 2.35L0 15.99l3.34-1.55c.82.35 1.72.53 2.63.53s1.82-.19 2.61-.53c.06 0 .12.01.18.01 3.99 0 7.23-3.24 7.23-7.23S12.76 0 8.78 0m5.67 6.48h-2.32c-.03-.65-.1-1.29-.2-1.9h1.92c.31.58.51 1.22.6 1.9m-1.73-3.4h-1.14c-.12-.38-.25-.73-.4-1.05.57.27 1.09.62 1.55 1.05ZM8.78 1.53c.37 0 .84.56 1.21 1.55H7.56c.38-.98.84-1.55 1.21-1.55Zm1.62 3.05c.11.57.19 1.21.23 1.9h-.45c-.83-.72-1.9-1.22-3.11-1.42a6 6 0 0 1 .08-.48zM6.37 2.03c-.15.32-.29.67-.4 1.05H4.83c.45-.43.97-.79 1.55-1.05ZM3.7 4.58h1.92c-.02.13-.03.28-.05.41-.81.05-1.57.23-2.25.53.1-.33.23-.64.39-.94Zm-.02 8.36-.32-.16-1.26.58.29-1.37-.2-.27c-.4-.54-.6-1.13-.6-1.75 0-1.93 1.97-3.5 4.39-3.5s4.39 1.57 4.39 3.5-1.97 3.5-4.39 3.5c-.81 0-1.6-.18-2.3-.53m7.5-.52c.05-.12.1-.25.15-.37.09-.17.18-.35.25-.54h.99c-.41.37-.88.67-1.39.91m2.6-2.4h-1.87c.12-.65.2-1.34.23-2.04h2.32c-.1.73-.33 1.42-.67 2.04Z"/></symbol><symbol id="s24" viewBox="0 0 24 24"><path d="M13.12 0C7.32 0 2.58 4.55 2.27 10.27.87 11.58 0 13.31 0 15.22c0 1.25.38 2.47 1.09 3.57L-.01 24l4.76-2.21c1.25.55 2.65.84 4.06.84 1.55 0 3-.34 4.26-.93h.05c6 0 10.87-4.87 10.87-10.85S19.11 0 13.12 0m8 6.49c.58 1.05.95 2.23 1.07 3.48h-4.16c-.04-1.18-.18-2.36-.39-3.48zm-1.26-1.75h-2.64c-.27-.92-.61-1.75-1.02-2.45a9.1 9.1 0 0 1 3.66 2.45M13.12 1.8c.73 0 1.63 1.05 2.28 2.94h-4.56c.65-1.89 1.55-2.94 2.28-2.94m2.75 4.69c.21 1.02.36 2.18.41 3.48h-1.26c-1.29-1.09-2.99-1.84-4.88-2.08.06-.49.13-.97.22-1.4zm-5.84-4.2c-.4.7-.74 1.53-1.02 2.45H6.37a9.2 9.2 0 0 1 3.66-2.45m-4.92 4.2h3.48c-.08.43-.15.88-.2 1.32-1.53.06-2.95.45-4.18 1.08.19-.85.49-1.66.9-2.41Zm.03 13.55-.38-.19-2.33 1.08.54-2.54-.23-.32c-.64-.87-.98-1.86-.98-2.86 0-3.12 3.16-5.67 7.04-5.67s7.04 2.54 7.04 5.67-3.16 5.67-7.04 5.67c-1.29 0-2.56-.29-3.67-.84Zm11.06-.63c.11-.18.2-.39.29-.6.34-.51.6-1.06.79-1.64h2.38c-.96.99-2.14 1.76-3.47 2.23Zm4.79-3.99H17.6c.24-1.18.39-2.44.43-3.7h4.16a9 9 0 0 1-1.2 3.7"/></symbol><symbol id="s32" viewBox="0 0 32 32"><path d="M17.52-.02c-7.83 0-14.21 6.3-14.4 14.1-1.97 1.73-3.18 4.06-3.18 6.64 0 1.63.49 3.23 1.43 4.65l-1.4 6.61 6.01-2.8c1.64.73 3.46 1.12 5.3 1.12 2.18 0 4.2-.53 5.93-1.43.1 0 .2.02.3.02 7.95 0 14.42-6.48 14.42-14.45S25.47-.02 17.52-.02m10.84 8.4a12.2 12.2 0 0 1 1.52 5.05h-5.95a31 31 0 0 0-.54-5.05zm-1.38-2h-4.06c-.44-1.51-1.01-2.81-1.68-3.83 2.26.71 4.24 2.06 5.74 3.83m-8.35 7.05c-1.51-1.09-3.35-1.84-5.38-2.14.1-1.03.24-2.02.44-2.91h7.66c.33 1.5.54 3.21.6 5.05h-3.31Zm3.31 2.01c-.02.61-.07 1.19-.12 1.77-.29-.62-.66-1.22-1.09-1.77zM17.52 2.06c1.17 0 2.41 1.64 3.29 4.32h-6.58c.87-2.68 2.12-4.32 3.29-4.32m-3.72.49c-.67 1.02-1.24 2.31-1.68 3.83H8.06a12.4 12.4 0 0 1 5.74-3.83M6.67 8.38h4.97c-.17.87-.29 1.8-.38 2.75-2.2 0-4.26.55-6 1.48.22-1.51.7-2.94 1.41-4.23m-.25 18.8-.43-.21-3.24 1.51.75-3.55-.26-.36c-.86-1.17-1.31-2.5-1.31-3.85 0-4.18 4.19-7.58 9.35-7.58s9.35 3.4 9.35 7.58-4.19 7.58-9.35 7.58c-1.7 0-3.38-.39-4.86-1.12m14.82-.87c.62-.95 1.16-2.15 1.59-3.53h3.88a12.44 12.44 0 0 1-5.47 3.53m6.95-5.53h-4.85c.34-1.62.55-3.42.6-5.34h5.95c-.16 1.94-.76 3.75-1.7 5.34"/></symbol><symbol id="s40" viewBox="0 0 40 40"><path d="M21.95 0c-9.84 0-17.85 7.95-18 17.77-2.47 2.15-3.99 5.07-3.99 8.29 0 2.04.62 4.04 1.81 5.82L.05 39.99l7.38-3.43c2.06.93 4.35 1.42 6.67 1.42 2.82 0 5.44-.71 7.65-1.91h.2c9.93 0 18.01-8.09 18.01-18.04S31.88 0 21.95 0m13.72 10.29c1.12 1.98 1.81 4.23 1.98 6.62H29.9c-.06-2.38-.31-4.61-.71-6.62zm-1.53-2.25h-5.49c-.6-2.08-1.39-3.84-2.32-5.17 3.1.9 5.82 2.72 7.82 5.17Zm-11 8.87c-1.89-1.33-4.2-2.24-6.74-2.6.13-1.44.33-2.8.6-4.02h9.89c.42 1.94.7 4.17.76 6.62zm4.51 2.25c-.03 1.05-.1 2.06-.2 3.02-.45-1.09-1.07-2.1-1.85-3.02zm-5.7-16.82c1.56 0 3.21 2.14 4.34 5.7h-8.68c1.13-3.56 2.78-5.7 4.34-5.7m-4.38.53c-.93 1.33-1.72 3.08-2.32 5.17h-5.5c2-2.44 4.71-4.27 7.82-5.17m-9.34 7.42h6.48c-.24 1.2-.41 2.51-.53 3.85h-.08c-2.86 0-5.52.73-7.75 1.96.26-2.09.89-4.06 1.88-5.81m-.3 24.02-.48-.24-4.26 1.98.99-4.67-.3-.41c-1.09-1.5-1.67-3.2-1.67-4.92 0-5.33 5.34-9.67 11.89-9.67s11.89 4.34 11.89 9.67-5.34 9.67-11.89 9.67c-2.16 0-4.3-.49-6.17-1.42Zm18.39-1.12c.88-1.25 1.63-2.87 2.21-4.8h5.28a15.84 15.84 0 0 1-7.49 4.8m9.13-7.04h-6.34c.45-2.1.73-4.46.79-6.99h7.75c-.18 2.54-.96 4.92-2.21 6.99Z"/></symbol><symbol id="s48" viewBox="0 0 48 48"><path d="M26.39 0C14.58 0 4.96 9.59 4.86 21.42 1.81 23.99-.07 27.54-.07 31.46c0 2.44.75 4.84 2.18 6.97L.08 48l8.7-4.05c2.46 1.12 5.21 1.71 8 1.71 3.5 0 6.74-.9 9.44-2.45h.18c11.87 0 21.54-9.69 21.54-21.61S38.27 0 26.39 0m16.55 12.19a19.1 19.1 0 0 1 2.46 8.17h-9.55c-.07-2.95-.37-5.7-.88-8.17zm-1.69-2.5h-6.88c-.75-2.66-1.76-4.86-2.96-6.49 3.93 1.08 7.36 3.38 9.85 6.49ZM27.26 20.36c-2.18-1.47-4.79-2.48-7.65-2.89.16-1.9.41-3.69.77-5.28h12.03c.53 2.38.86 5.15.94 8.17h-6.08Zm6.08 2.5c-.04 1.68-.17 3.27-.37 4.76-.58-1.75-1.55-3.36-2.83-4.76h3.19ZM26.39 2.62c1.92 0 3.97 2.65 5.35 7.07H21.05c1.38-4.41 3.42-7.07 5.35-7.07Zm-5.01.58c-1.2 1.63-2.21 3.83-2.96 6.49h-6.88c2.48-3.11 5.91-5.41 9.85-6.49ZM9.85 12.19h7.97c-.32 1.58-.56 3.29-.7 5.08-.12 0-.23-.01-.34-.01-3.44 0-6.64.88-9.31 2.38.28-2.68 1.11-5.2 2.39-7.44Zm-.51 29.26-.54-.27-5.25 2.45 1.22-5.76-.33-.45c-1.32-1.81-2.02-3.87-2.02-5.96 0-6.45 6.44-11.7 14.35-11.7s14.35 5.25 14.35 11.7-6.44 11.7-14.35 11.7c-2.61 0-5.18-.59-7.44-1.71Zm22.06-1.42c1.13-1.54 2.1-3.59 2.84-6.05h6.65a19.06 19.06 0 0 1-9.48 6.05Zm11.27-8.55h-7.8c.56-2.58.89-5.49.97-8.62h9.55c-.21 3.14-1.18 6.07-2.72 8.62"/></symbol><symbol id="s64" viewBox="0 0 64 64"><path d="M63.85 28.72C63.85 12.89 51.04.01 35.3.01S6.74 12.89 6.74 28.72v.05C2.5 32.19-.15 37-.15 42.32c0 3.26 1.02 6.46 2.94 9.3L.18 64.01l11.24-5.25c3.29 1.53 6.98 2.33 10.71 2.33 4.94 0 9.5-1.36 13.2-3.66 15.73-.01 28.53-12.89 28.53-28.71Zm-6.54 13.55H46.26c.83-3.63 1.34-7.76 1.42-12.17h13.4c-.23 4.44-1.58 8.59-3.77 12.17m3.77-14.92h-13.4c-.08-4.18-.54-8.09-1.29-11.58h11.27c1.98 3.44 3.2 7.38 3.42 11.58m-5.25-14.34H45.7c-1.13-4.03-2.7-7.32-4.56-9.57 5.94 1.39 11.1 4.84 14.68 9.57ZM44.05 39.04c-.71-3.38-2.49-6.45-5.05-8.95h5.93c-.07 3.01-.38 6.06-.89 8.95Zm-8.52-11.69c-2.79-1.78-6.08-3.01-9.67-3.52.23-2.77.62-5.52 1.19-8.06h16.47c.82 3.62 1.31 7.64 1.41 11.58h-9.41ZM35.3 2.92c3.18 0 5.81 4.23 7.53 10.09H27.78c1.71-5.86 4.35-10.09 7.53-10.09Zm-5.86.53c-1.86 2.24-3.42 5.54-4.56 9.57H14.75c3.58-4.73 8.74-8.18 14.68-9.57Zm-16.5 12.32h11.27c-.52 2.41-.88 5.04-1.09 7.81-.33-.01-.65-.02-.99-.02-4.66 0-8.99 1.22-12.57 3.29.29-4.01 1.48-7.77 3.38-11.07Zm-.91 40.24-.59-.29-7.45 3.48 1.73-8.19-.36-.5c-1.81-2.49-2.77-5.32-2.77-8.18 0-8.83 8.76-16.02 19.53-16.02s19.53 7.18 19.53 16.02-8.76 16.02-19.53 16.02c-3.54 0-7.04-.81-10.1-2.33ZM41.15 54c1.77-2.13 3.27-5.22 4.38-8.97h9.83c-3.56 4.42-8.53 7.64-14.22 8.97Z"/></symbol><use style="display: var(--s16, none)" href="#s16"/><use style="display: var(--s24, none)" href="#s24"/><use style="display: var(--s32, none)" href="#s32"/><use style="display: var(--s40, none)" href="#s40"/><use style="display: var(--s48, none)" href="#s48"/><use style="display: var(--s64, none)" href="#s64"/></symbol></defs><style>@media (max-width: 23.98px) {g{--s16:block;}}@media (min-width: 24px) and (max-width: 31.98px) {g{--s24:block;}}@media (min-width: 32px) and (max-width: 39.98px) {g{--s32:block;}}@media (min-width: 40px) and (max-width: 47.98px) {g{--s40:block;}}@media (min-width: 48px) and (max-width: 63.98px) {g{--s48:block;}}@media (min-width: 64px) {g{--s64:block;}}</style><g><use href="#i-language"/></g></svg>