<svg xmlns="http://www.w3.org/2000/svg"><defs><symbol id="i-language-solid"><symbol id="s16" viewBox="0 0 16 16"><path d="M14.69 3.07h-2.41c-.24-.99-.56-1.89-.97-2.63 1.37.52 2.55 1.44 3.38 2.63m-1.96 3.42h3.24c-.07-.67-.23-1.31-.47-1.91h-2.94c.09.63.15 1.27.17 1.91M8.76.04c-.64 0-1.45 1.11-1.97 3.03h3.95C10.21 1.15 9.4.04 8.76.04m-2.54.4a7.27 7.27 0 0 0-3.38 2.63h2.41c.24-.99.56-1.89.97-2.63m6.31 9.6h2.91c.27-.64.45-1.33.52-2.05h-3.24c-.03.69-.09 1.38-.19 2.05m-1.3-3.55c-.03-.68-.09-1.32-.18-1.91H6.48c-.03.18-.05.36-.07.55 1.51.11 2.88.6 3.99 1.36zM4.96 4.58H2.02a7 7 0 0 0-.42 1.65c.96-.57 2.09-.95 3.31-1.08.02-.19.03-.38.05-.57m7.77 8.71c.71-.47 1.34-1.05 1.85-1.73H13.1c-.03.6-.15 1.19-.37 1.73M5.79 6.6c-1.61 0-3.07.53-4.13 1.39h-.11s.01.06.02.09c-.99.84-1.6 1.98-1.6 3.23 0 .83.28 1.65.81 2.38l.2.27-.44 2.08 1.9-.89.32.16c.92.46 1.97.7 3.03.7 3.21 0 5.82-2.11 5.82-4.71S9 6.59 5.79 6.59Z"/></symbol><symbol id="s24" viewBox="0 0 24 24"><path d="M16.46 4.75H9.85c.61-2.37 1.53-4.06 2.47-4.71.28-.02.55-.04.84-.04s.56.02.84.04c.95.65 1.86 2.34 2.47 4.71Zm5.69 0c-1.3-1.9-3.2-3.37-5.42-4.14.65 1.1 1.18 2.5 1.56 4.14zM9.58.61c-2.22.77-4.11 2.24-5.42 4.14h3.86c.38-1.64.91-3.04 1.56-4.14m9.34 9.38H24c-.1-1.23-.4-2.4-.88-3.49h-4.5c.17 1.09.27 2.26.3 3.49m-.33 5.46h4.43c.53-1.14.88-2.39.98-3.7h-5.08c-.04 1.31-.15 2.55-.34 3.7ZM9.48 6.5c-.12.69-.19 1.44-.25 2.21 1.62.13 3.12.58 4.43 1.28h3.51c-.04-1.24-.15-2.41-.33-3.49H9.49ZM7.47 8.71c.05-.76.12-1.5.23-2.2H3.2c-.48 1.08-.78 2.26-.88 3.49h.61c1.33-.71 2.88-1.17 4.54-1.28Zm9.8 12.2c1.9-.78 3.53-2.07 4.72-3.71h-3.65c-.01 1.33-.4 2.59-1.07 3.71m-.19-7.87c.03-.43.07-.85.09-1.3h-1.13c.4.4.74.84 1.05 1.3Zm-3.87-1.3c-1.38-.82-3.08-1.32-4.92-1.32-4.57 0-8.29 3.01-8.29 6.71 0 1.19.4 2.37 1.16 3.4l.23.32L.72 24l2.89-1.34.38.19c1.31.65 2.8.99 4.31.99 4.57 0 8.29-3.01 8.29-6.7 0-2.21-1.33-4.16-3.38-5.39Z"/></symbol><symbol id="s32" viewBox="0 0 32 32"><path d="M13.16 6.4C14.19 2.45 15.9.03 17.5 0h.04c1.6.02 3.31 2.44 4.34 6.39h-8.72Zm16.38 0A14.53 14.53 0 0 0 21.57.59c1.01 1.44 1.83 3.43 2.4 5.81zm-7.97 21.91c3.17-.92 5.89-2.9 7.76-5.52H23.9c-.57 2.25-1.36 4.13-2.32 5.52Zm3.25-14.86h7.13c-.12-1.79-.57-3.49-1.3-5.05h-6.29c.26 1.57.42 3.26.46 5.05M13.48.59c-3.29.96-6.1 3.04-7.97 5.81h5.57c.57-2.38 1.39-4.37 2.4-5.81m10.84 20.2h6.2c.8-1.63 1.31-3.43 1.44-5.34h-7.13c-.05 1.9-.22 3.69-.51 5.34m-1.5-5.34h-2.04c.75.7 1.39 1.49 1.9 2.34.07-.75.12-1.53.14-2.34M10.69 8.4H4.4c-.8 1.72-1.27 3.63-1.32 5.63 2.03-1.31 4.53-2.13 7.25-2.25.08-1.17.19-2.31.37-3.38Zm11.63 0h-9.6c-.19 1.06-.33 2.2-.41 3.41 2.07.17 3.99.76 5.66 1.64h4.85c-.05-1.82-.22-3.52-.5-5.05m-4.85 7.05c-1.82-1.06-4.04-1.7-6.45-1.7s-4.63.63-6.45 1.7c-.24.14-.48.29-.7.44-.08.05-.15.11-.22.16-.15.11-.31.22-.45.34-2.01 1.62-3.25 3.86-3.25 6.32 0 1.59.54 3.17 1.56 4.56l.27.36L.85 32l4.01-1.86.43.21c1.74.86 3.72 1.31 5.74 1.31 6.1 0 11.07-4.02 11.07-8.96 0-2.99-1.82-5.64-4.61-7.27Z"/></symbol><symbol id="s40" viewBox="0 0 40 40"><path d="M16.36 7.98C17.49 3.58 19.3.67 21.1-.03c.28-.01.55-.04.84-.04s.56.03.84.04c1.8.7 3.61 3.61 4.75 8.01zm20.61 0A18.13 18.13 0 0 0 26.82.61c1.29 1.81 2.34 4.32 3.06 7.37zm-6.7 18.12h7.79c1.08-2.13 1.74-4.49 1.89-6.99h-9.02c-.05 2.49-.28 4.85-.66 6.99M17.06.61A18.13 18.13 0 0 0 6.91 7.98H14c.72-3.04 1.77-5.56 3.06-7.37m13.87 16.24h9.02a18 18 0 0 0-1.72-6.62h-7.91c.35 2.04.55 4.27.61 6.62m-17.38-6.62H5.64a17.9 17.9 0 0 0-1.77 7.74c2.55-1.65 5.7-2.66 9.14-2.74.09-1.75.28-3.43.54-4.99ZM28.3 23.91c.2-1.5.34-3.11.38-4.81h-4.02c1.6 1.35 2.84 2.99 3.64 4.81m.67 7.13c-.36 1.53-1.05 2.96-1.98 4.25 3.98-1.16 7.39-3.64 9.72-6.94h-6.93c-.24.96-.51 1.85-.81 2.69M26.7 26.1c-.1-.36-.22-.72-.36-1.07 0-.02-.02-.04-.03-.06-.14-.33-.29-.65-.46-.97-.01-.02-.03-.05-.04-.07a10 10 0 0 0-.57-.91c-.02-.02-.03-.04-.05-.06-.21-.3-.44-.58-.68-.86-.01-.02-.03-.03-.04-.05-.25-.28-.52-.56-.8-.82 0 0-.02-.01-.02-.02-.29-.27-.6-.52-.92-.77-.65-.5-1.37-.94-2.13-1.33-2.07-1.04-4.49-1.65-7.1-1.65s-5.03.61-7.1 1.65c-.41.21-.81.43-1.19.67-.01 0-.02.01-.03.02C2 21.81-.05 24.94-.05 28.45c0 1.96.66 3.9 1.91 5.6l.3.41L1 39.92l4.99-2.32.48.24c2.13 1.05 4.55 1.61 7.01 1.61 7.46 0 13.54-4.93 13.54-11 0-.81-.12-1.6-.32-2.36Zm1.32-15.87H15.86c-.29 1.56-.49 3.25-.59 5.06 2.1.2 4.07.74 5.84 1.56h7.58c-.06-2.4-.29-4.63-.66-6.62Z"/></symbol><symbol id="s48" viewBox="0 0 48 48"><path d="M19.71 9.68C21.2 3.97 23.64.37 25.99 0h.78c2.35.36 4.79 3.96 6.28 9.68H19.7Zm16.45 2.51c.46 2.52.73 5.28.8 8.18h10.98c-.17-2.92-.91-5.68-2.13-8.18zM21.03.67C15.78 2.01 11.3 5.29 8.38 9.69h8.75c.92-3.76 2.26-6.87 3.9-9.02m23.35 9.01c-2.92-4.4-7.4-7.67-12.64-9.02 1.63 2.14 2.98 5.26 3.9 9.02h8.75Zm-8.3 21.81h9.51c1.35-2.61 2.18-5.53 2.35-8.62H36.96c-.07 3.07-.37 5.98-.88 8.62m11.9-9.95v.15-.16Zm-32.1-3.02c.12-2.23.36-4.35.72-6.34H6.95c-1.21 2.5-1.96 5.26-2.13 8.18h2.53c2.55-1.15 5.45-1.81 8.52-1.84ZM33.9 29.39c.3-2.01.5-4.19.55-6.52h-5.43c2.22 1.78 3.92 4.01 4.88 6.52m.31 8.65c-.48 1.6-1.26 3.11-2.28 4.47 4.98-1.33 9.26-4.4 12.15-8.52h-8.55c-.37 1.46-.82 2.81-1.31 4.04Zm-.59-25.85H19.15c-.38 1.97-.63 4.13-.76 6.45 2.34.24 4.55.83 6.54 1.73h9.52c-.07-2.98-.36-5.73-.83-8.18m-1.66 19.3c-.11-.45-.26-.88-.43-1.31-.03-.08-.08-.16-.11-.25-.14-.34-.3-.69-.48-1.02-.05-.09-.11-.18-.16-.27-.18-.32-.38-.63-.59-.94-.06-.08-.12-.15-.17-.23-.23-.31-.47-.62-.72-.91-.05-.06-.11-.12-.16-.18-.28-.31-.57-.61-.88-.89-.04-.04-.09-.08-.13-.12a13 13 0 0 0-1.13-.92c-.39-.29-.79-.56-1.22-.82-.01 0-.03-.02-.04-.02-.44-.27-.9-.51-1.37-.74-2.41-1.17-5.22-1.85-8.22-1.85-8.92-.01-16.17 5.9-16.17 13.17 0 2.35.79 4.67 2.29 6.72l.33.45-1.41 6.63 6.05-2.81.54.27c2.54 1.26 5.43 1.92 8.36 1.92 8.91 0 16.16-5.91 16.16-13.18 0-.92-.12-1.83-.34-2.7"/></symbol><symbol id="s64" viewBox="0 0 64 64"><path d="M26.16 13.02C28.02 5.69 31.09.98 34.18.04c.38-.01.75-.03 1.13-.03s.75.01 1.13.03c3.09.94 6.16 5.65 8.03 12.98zm33.16 0C55.33 6.94 49.1 2.46 41.8.76c2.3 2.79 4.19 7.05 5.46 12.26zM49.01 27.36h14.97a28.4 28.4 0 0 0-3.07-11.58H47.85c.67 3.55 1.08 7.45 1.15 11.58Zm-1.26 14.93h12.87c1.97-3.66 3.16-7.79 3.37-12.18H49.02c-.08 4.37-.52 8.48-1.26 12.18ZM28.82.77C21.53 2.46 15.3 6.94 11.3 13.03h12.06c1.27-5.21 3.16-9.47 5.46-12.26m-6.05 15.01H9.71a28.5 28.5 0 0 0-3.09 12.45c4.17-2.82 9.43-4.54 15.17-4.64.19-2.74.51-5.36.98-7.8Zm22.32 0H25.54c-.47 2.41-.81 5.05-1 7.88 4.51.32 8.68 1.65 12.19 3.71h9.53c-.08-4.26-.5-8.15-1.17-11.58Zm.71 21.25c.25-2.18.42-4.48.46-6.91h-5.71c2.25 1.98 4.05 4.32 5.25 6.91m-2.57 19.31c6.45-1.85 11.97-5.9 15.7-11.29H47.49c-.1 4.17-1.65 8.05-4.26 11.29m-.51-19.31c-.3-.54-.64-1.07-1.01-1.59-.37-.51-.76-1.01-1.18-1.49v-.01q-.63-.72-1.35-1.38c-.48-.44-.98-.87-1.51-1.27-2.24-1.71-4.91-3.05-7.85-3.91-.41-.12-.82-.23-1.24-.32-.04 0-.07-.02-.11-.03-.41-.1-.83-.18-1.25-.26h-.03a27.4 27.4 0 0 0-4.78-.43c-.24 0-.47 0-.71.01-1.17.03-2.32.13-3.44.31q-1.68.255-3.27.72C6.24 29.87-.02 36.66-.02 44.62c0 3.28 1.1 6.51 3.18 9.36l.36.5-2.03 9.54 8.71-4.05.59.29c3.5 1.74 7.5 2.66 11.55 2.66 12.34 0 22.38-8.21 22.38-18.3 0-2.71-.73-5.27-2.02-7.58Z"/></symbol><use style="display: var(--s16, none)" href="#s16"/><use style="display: var(--s24, none)" href="#s24"/><use style="display: var(--s32, none)" href="#s32"/><use style="display: var(--s40, none)" href="#s40"/><use style="display: var(--s48, none)" href="#s48"/><use style="display: var(--s64, none)" href="#s64"/></symbol></defs><style>@media (max-width: 23.98px) {g{--s16:block;}}@media (min-width: 24px) and (max-width: 31.98px) {g{--s24:block;}}@media (min-width: 32px) and (max-width: 39.98px) {g{--s32:block;}}@media (min-width: 40px) and (max-width: 47.98px) {g{--s40:block;}}@media (min-width: 48px) and (max-width: 63.98px) {g{--s48:block;}}@media (min-width: 64px) {g{--s64:block;}}</style><g><use href="#i-language-solid"/></g></svg>