<svg xmlns="http://www.w3.org/2000/svg"><defs><symbol id="i-laptop"><symbol id="s16" viewBox="0 0 16 16"><path d="M14.96 10V2.25c0-.69-.56-1.25-1.25-1.25H2.21C1.52 1 .96 1.56.96 2.25V10h-1v3.25c0 .69.56 1.25 1.25 1.25h13.5c.69 0 1.25-.56 1.25-1.25V10zM2.46 2.5h11V10h-11zm12 10.5h-13v-1.5H5.5c.12.57.6 1 1.2 1h2.52c.6 0 1.08-.43 1.2-1h4.04z"/></symbol><symbol id="s24" viewBox="0 0 24 24"><path d="M22.34 15.35V2.93c0-.76-.62-1.38-1.38-1.38H2.95c-.76 0-1.38.62-1.38 1.38v12.42H-.04v4.47c0 1.03.84 1.88 1.88 1.88h20.25c1.04 0 1.88-.84 1.88-1.88v-4.47h-1.62ZM3.33 3.31h17.26v12.04H3.33zm18.88 16.51c0 .07-.06.12-.13.12H1.84c-.07 0-.13-.06-.13-.12V17.1h6.68v.16c0 .76.62 1.38 1.38 1.38h4.39c.76 0 1.38-.62 1.38-1.38v-.16h6.68v2.72Z"/></symbol><symbol id="s32" viewBox="0 0 32 32"><path d="M30.27 20.63V3.74c0-.83-.67-1.5-1.5-1.5H3.22c-.83 0-1.5.67-1.5 1.5v16.89H0v6.5c0 .83.67 1.5 1.5 1.5h29c.83 0 1.5-.67 1.5-1.5v-6.5h-1.72Zm-16.86 2h5.18v1h-5.18zM3.72 4.24h24.55v16.38H3.72zM30 26.63H2v-4h9.41v1.5c0 .83.67 1.5 1.5 1.5h6.18c.83 0 1.5-.67 1.5-1.5v-1.5H30z"/></symbol><symbol id="s40" viewBox="0 0 40 40"><path d="M37.83 25.97V4.44c0-.9-.73-1.62-1.62-1.62H3.79c-.9 0-1.62.73-1.62 1.62v21.53H0v7.68c0 1.17.95 2.12 2.12 2.12h35.75c1.17 0 2.12-.95 2.12-2.12v-7.68h-2.17ZM16.6 28.22h6.79v1.53H16.6zM4.41 5.07h31.17v20.9H4.41zm33.34 28.46H2.25v-5.31h12.11v2.15c0 .9.73 1.62 1.62 1.62h8.04c.9 0 1.62-.73 1.62-1.62v-2.15h12.11z"/></symbol><symbol id="s48" viewBox="0 0 48 48"><path d="M45.38 31.37V5.15c0-.96-.78-1.75-1.75-1.75H4.36c-.96 0-1.75.79-1.75 1.75v26.22H0v8.75c0 1.52 1.23 2.75 2.75 2.75h42.51c1.51 0 2.75-1.23 2.75-2.75v-8.75H45.4Zm-25.58 2.5h8.39v2H19.8zM5.11 5.9h37.78v25.42H5.11zM45.5 40.12c0 .14-.11.25-.25.25H2.74c-.14 0-.25-.11-.25-.25v-6.25H17.3v2.75c0 .96.78 1.75 1.75 1.75h9.89c.96 0 1.75-.79 1.75-1.75v-2.75H45.5z"/></symbol><symbol id="s64" viewBox="0 0 64 64"><path d="M60.48 42.23V6.46c0-1.03-.84-1.88-1.87-1.88H5.39c-1.03 0-1.87.84-1.87 1.88v35.77H0v11.49a3.38 3.38 0 0 0 3.37 3.38h57.25c1.86 0 3.37-1.51 3.37-3.38V42.23h-3.52Zm-34.44 2.75h11.91v3.17H26.04zM6.26 7.33h51.47v34.81H6.26zm54.99 46.38c0 .34-.28.62-.62.62H3.37c-.34 0-.62-.28-.62-.62v-8.74H23.3v4.04c0 1.03.84 1.88 1.87 1.88h13.66c1.03 0 1.87-.84 1.87-1.88v-4.04h20.55z"/></symbol><use style="display: var(--s16, none)" href="#s16"/><use style="display: var(--s24, none)" href="#s24"/><use style="display: var(--s32, none)" href="#s32"/><use style="display: var(--s40, none)" href="#s40"/><use style="display: var(--s48, none)" href="#s48"/><use style="display: var(--s64, none)" href="#s64"/></symbol></defs><style>@media (max-width: 23.98px) {g{--s16:block;}}@media (min-width: 24px) and (max-width: 31.98px) {g{--s24:block;}}@media (min-width: 32px) and (max-width: 39.98px) {g{--s32:block;}}@media (min-width: 40px) and (max-width: 47.98px) {g{--s40:block;}}@media (min-width: 48px) and (max-width: 63.98px) {g{--s48:block;}}@media (min-width: 64px) {g{--s64:block;}}</style><g><use href="#i-laptop"/></g></svg>