<svg xmlns="http://www.w3.org/2000/svg"><defs><symbol id="i-letterrecieved"><symbol id="s16" viewBox="0 0 16 16"><path d="M16 0H0v12.48h6.43C7.02 14.51 8.87 16 11.08 16s4.06-1.49 4.65-3.52h.26V0ZM6.23 10.99H2.24l3.64-3.64.1.11c.34.37.77.62 1.23.76-.59.78-.95 1.73-.98 2.77m2.69-4.55c-.5.53-1.34.53-1.84 0L2.48 1.5h11.05zm-4.06-.19L1.5 9.61V2.65zm9.64-3.6v5.03c-.87-.86-2.07-1.4-3.38-1.41l3.38-3.63Zm-3.42 11.86c-1.86 0-3.37-1.51-3.37-3.37s1.51-3.37 3.37-3.37 3.37 1.51 3.37 3.37-1.51 3.37-3.37 3.37m1.85-5.22c.34.23.44.69.21 1.04l-2.11 3.18-1.94-1.36a.74.74 0 0 1-.18-1.04c.24-.34.7-.42 1.04-.18l.68.48 1.26-1.89c.23-.35.69-.44 1.04-.21Z"/></symbol><symbol id="s24" viewBox="0 0 24 24"><path d="M23.99 18.61V0h-24v18.6h9.54c.86 3.11 3.7 5.4 7.08 5.4h.1c3 0 5.57-1.84 6.65-4.45.13-.3.24-.62.33-.95h.3Zm-7.33 3.65c-2.98-.03-5.39-2.45-5.39-5.44s2.44-5.44 5.44-5.44 5.44 2.44 5.44 5.44c0 .73-.15 1.42-.41 2.05a5.6 5.6 0 0 1-5.09 3.38ZM7.55 9.33l-5.81 5.81V3.1zM2.87 1.76H21.1L13.6 9.8c-.43.46-1.01.72-1.61.72s-1.18-.26-1.61-.72zm13.74 7.55h-.17l5.8-6.21v8.83a7.33 7.33 0 0 0-5.63-2.63ZM2.49 16.86l6.25-6.25.35.38c.5.53 1.11.89 1.77 1.09a7.3 7.3 0 0 0-1.61 4.58c0 .07 0 .13.01.2zm17.22-2.21c.09.25.08.54-.08.78l-3.08 4.64-2.75-1.93s-.05-.06-.08-.08l-.09-.06a.87.87 0 0 1-.21-1.22.87.87 0 0 1 1.22-.21l1.33.93 2.16-3.24c.27-.4.81-.51 1.21-.24.23.15.35.39.37.64Z"/></symbol><symbol id="s32" viewBox="0 0 32 32"><path d="M31.98 0h-32v24.72h12.49C13.62 28.91 17.45 32 22 32s8.38-3.09 9.53-7.28h.45zM10.25 12.4l-8.27 8.26V3.55l8.26 8.86ZM3.28 2.01h25.4L18.54 12.87c-.84.31-1.62.74-2.33 1.25-.92.07-1.86-.25-2.53-.97zm26.7 1.54v12.76c-1.8-2.46-4.7-4.07-7.98-4.07h-.13zM2.75 22.73l8.87-8.86.6.65c.6.65 1.34 1.09 2.13 1.36a9.8 9.8 0 0 0-2.24 6.25c0 .2.02.41.03.61H2.75ZM22 30.01c-4.35 0-7.89-3.54-7.89-7.89s3.54-7.89 7.89-7.89 7.89 3.54 7.89 7.89-3.54 7.89-7.89 7.89m3.64-11.37c.46.31.59.93.28 1.39l-4.21 6.33-3.67-2.58a.996.996 0 0 1-.24-1.39c.32-.45.94-.56 1.39-.24l1.99 1.4 3.07-4.62c.31-.46.93-.59 1.39-.28Z"/></symbol><symbol id="s40" viewBox="0 0 40 40"><path d="M39.98 0h-40v30.84h15.77C17.14 36.1 21.94 40 27.63 40s10.49-3.9 11.88-9.16h.47zM12.95 15.47 2.23 26.19V3.99l10.72 11.49ZM3.7 2.26h32.57L23.23 16.24c-1.03.4-1.99.92-2.86 1.57-.13.01-.25.04-.38.04-1.13 0-2.19-.47-2.99-1.34zm34.03 1.73V20.7c-2.23-3.19-5.92-5.29-10.1-5.29-.2 0-.39.02-.58.03zM3.01 28.6l11.48-11.48.85.92c.8.86 1.79 1.46 2.86 1.78a12.27 12.27 0 0 0-2.88 7.89c0 .3.02.6.05.89zm24.62 9.16c-5.55 0-10.06-4.51-10.06-10.05s4.51-10.05 10.06-10.05 10.06 4.51 10.06 10.05-4.51 10.05-10.06 10.05m4.51-14.32c.52.34.66 1.04.31 1.56l-5.22 7.85-4.5-3.16c-.51-.36-.63-1.06-.27-1.57s1.06-.63 1.57-.27l2.61 1.84 3.94-5.92c.34-.52 1.04-.66 1.56-.31Z"/></symbol><symbol id="s48" viewBox="0 0 48 48"><path d="M47.99 0h-48v36.99h18.95C20.6 43.31 26.34 48 33.17 48s12.58-4.69 14.23-11.01h.59zM15.66 18.56 2.49 31.74V4.43zM4.11 2.51h39.75L28.04 19.48c-1.32.49-2.55 1.17-3.66 2-.13.01-.26.04-.39.04-1.39 0-2.7-.59-3.69-1.65zm41.38 1.92v20.79c-2.63-4.02-7.17-6.68-12.32-6.68-.3 0-.58.03-.87.04zM3.27 34.5l14.1-14.11 1.11 1.19a7.57 7.57 0 0 0 3.5 2.15c-2.19 2.57-3.53 5.9-3.53 9.54 0 .41.03.82.06 1.22H3.27Zm29.9 11.01c-6.74 0-12.23-5.49-12.23-12.23s5.49-12.23 12.23-12.23S45.4 26.54 45.4 33.28s-5.49 12.23-12.23 12.23m5.37-17.29c.57.38.73 1.16.35 1.73l-6.23 9.38-5.34-3.76c-.57-.4-.7-1.18-.3-1.74.4-.57 1.18-.7 1.74-.3L32 35.81l4.81-7.24c.38-.58 1.16-.73 1.73-.35"/></symbol><symbol id="s64" viewBox="0 0 64 64"><path d="M63.94 46.16c.06-.62.09-1.24.09-1.87s-.04-1.25-.09-1.87V0H.04v49.18h25.3C27.52 57.69 35.21 64 44.37 64s16.86-6.31 19.03-14.82h.54zM44.36 24.58c-.54 0-1.07.04-1.6.08l18.43-19.8v29.28c-3.45-5.72-9.69-9.56-16.83-9.56m-23.14.09L2.78 43.14V4.86zM4.57 2.74h54.84L38.12 25.61c-2.23.75-4.28 1.88-6.08 3.33h-.05c-1.95 0-3.79-.82-5.18-2.31zM3.4 46.42l19.7-19.74 1.7 1.83c1.33 1.42 2.96 2.39 4.74 2.86-3.01 3.46-4.85 7.97-4.85 12.91 0 .72.04 1.43.12 2.14zm40.96 14.82c-9.33 0-16.92-7.61-16.92-16.96s7.59-16.96 16.92-16.96 16.92 7.61 16.92 16.96-7.59 16.96-16.92 16.96m7.12-23.55c.63.42.8 1.27.38 1.91l-8.28 12.47-6.98-4.91c-.62-.44-.77-1.3-.33-1.92s1.29-.77 1.91-.33l4.67 3.29 6.72-10.12a1.36 1.36 0 0 1 1.9-.38Z"/></symbol><use style="display: var(--s16, none)" href="#s16"/><use style="display: var(--s24, none)" href="#s24"/><use style="display: var(--s32, none)" href="#s32"/><use style="display: var(--s40, none)" href="#s40"/><use style="display: var(--s48, none)" href="#s48"/><use style="display: var(--s64, none)" href="#s64"/></symbol></defs><style>@media (max-width: 23.98px) {g{--s16:block;}}@media (min-width: 24px) and (max-width: 31.98px) {g{--s24:block;}}@media (min-width: 32px) and (max-width: 39.98px) {g{--s32:block;}}@media (min-width: 40px) and (max-width: 47.98px) {g{--s40:block;}}@media (min-width: 48px) and (max-width: 63.98px) {g{--s48:block;}}@media (min-width: 64px) {g{--s64:block;}}</style><g><use href="#i-letterrecieved"/></g></svg>