<svg xmlns="http://www.w3.org/2000/svg"><defs><symbol id="i-letteropen-solid"><symbol id="s16" viewBox="0 0 16 16"><path d="M14.93 16.02H1.06l4.76-4.54.2.17c.54.46 1.24.68 1.94.68s1.4-.23 1.94-.68l.2-.17 4.82 4.54Zm-7.94-5.51c.52.44 1.42.44 1.95 0l6.44-5.41L9.95.69c-1.11-.9-2.86-.9-3.97 0L.65 5zm-2.3-.02L0 6.41v8.56l4.7-4.48Zm6.58.01 4.72 4.45V6.54l-4.72 3.97Z"/></symbol><symbol id="s24" viewBox="0 0 24 24"><path d="M0 22.83V9.46l7.38 6.34zm15.31-5.88-.49.42c-.79.66-1.8.99-2.82.99s-2.02-.33-2.8-.99l-.49-.42-7.42 7.06h21.46zm-4.97-.91c.9.76 2.44.76 3.36 0l9.62-8.24L14.89 1C13.28-.3 10.75-.3 9.14 1L.73 7.78zm6.31-.23L24 22.79V9.51z"/></symbol><symbol id="s32" viewBox="0 0 32 32"><path d="M-.01 30.63V12.56l9.99 8.57zm20.48-8.19-.81.7c-1.03.87-2.35 1.3-3.67 1.3s-2.63-.43-3.66-1.3l-.82-.7-10.03 9.53h29.1zm-6.85-.83c1.28 1.08 3.45 1.08 4.74 0l13.01-11.18-11.64-9.21c-2.1-1.66-5.39-1.66-7.48 0L.59 10.44zm18.37-9.07L22 21.12l9.99 9.43z"/></symbol><symbol id="s40" viewBox="0 0 40 40"><path d="M38.5 39.94H1.58l12.77-12.02 1.13.97c1.27 1.07 2.91 1.6 4.54 1.6s3.28-.54 4.56-1.61l1.13-.96zm-25.88-13.5L.03 15.69V38.3zm4.33.73c1.67 1.4 4.49 1.4 6.17 0l16.35-13.95L24.65 1.48c-2.59-2.05-6.66-2.05-9.25 0L.59 13.21l16.35 13.96Zm10.48-.73 12.59 11.84V15.69z"/></symbol><symbol id="s48" viewBox="0 0 48 48"><path d="M-.04 46.41V18.67l15.36 13.21zm30.9-12.89-1.43 1.23c-1.51 1.28-3.46 1.92-5.4 1.92s-3.87-.64-5.38-1.91l-1.43-1.23L1.86 48.06h44.5l-15.5-14.53Zm-10.58-.66c2.07 1.74 5.45 1.74 7.53 0L47.4 16.04 29.45 1.88c-3.08-2.43-7.91-2.43-10.99 0L.62 15.94l19.66 16.91Zm12.49-.98 15.18 14.24V18.84z"/></symbol><symbol id="s64" viewBox="0 0 64 64"><path d="M-.24 62.07V24.78l20.87 17.77zm41.51-17.72-2.15 1.83c-1.96 1.64-4.54 2.47-7.11 2.47s-5.14-.82-7.1-2.46l-2.16-1.84L1.73 64.01h60.54zm-14.56-.25c2.92 2.45 7.69 2.45 10.62 0l26.24-22.33h-.05L38.96 2.4c-4.04-3.18-10.36-3.19-14.4 0L.25 21.57zm16.67-1.54 20.38 19.07V25.21L43.38 42.55Z"/></symbol><use style="display: var(--s16, none)" href="#s16"/><use style="display: var(--s24, none)" href="#s24"/><use style="display: var(--s32, none)" href="#s32"/><use style="display: var(--s40, none)" href="#s40"/><use style="display: var(--s48, none)" href="#s48"/><use style="display: var(--s64, none)" href="#s64"/></symbol></defs><style>@media (max-width: 23.98px) {g{--s16:block;}}@media (min-width: 24px) and (max-width: 31.98px) {g{--s24:block;}}@media (min-width: 32px) and (max-width: 39.98px) {g{--s32:block;}}@media (min-width: 40px) and (max-width: 47.98px) {g{--s40:block;}}@media (min-width: 48px) and (max-width: 63.98px) {g{--s48:block;}}@media (min-width: 64px) {g{--s64:block;}}</style><g><use href="#i-letteropen-solid"/></g></svg>