<svg xmlns="http://www.w3.org/2000/svg"><defs><symbol id="i-letteropen"><symbol id="s16" viewBox="0 0 16 16"><path d="M16 5.53 9.99.69c-1.12-.9-2.87-.9-3.99 0L0 5.53l.02.02v10.46H16V5.56h-.01l.02-.02Zm-1.51 7.8-3.18-2.85 3.18-2.67zM1.51 7.85l3.15 2.64-3.15 2.82zm4.31 3.61.22.19c.54.46 1.24.68 1.94.68s1.4-.23 1.94-.68l.22-.19 3.41 3.05H2.41zm1.12-9.6c.57-.46 1.53-.46 2.1 0l5.21 4.2-5.29 4.44c-.53.45-1.43.45-1.96 0L1.72 6.07z"/></symbol><symbol id="s24" viewBox="0 0 24 24"><path d="m23.97 8.4-.08-.06v-.09h-.12L14.84.99c-1.61-1.3-4.12-1.3-5.73 0L.17 8.24H.05v.09l-.08.07.08.1v15.51h23.84V8.5zm-1.82 12.35-5.51-4.95 5.51-4.63v9.59ZM1.8 11.17l5.51 4.63-5.51 4.95v-9.59Zm6.86 5.77.52.44c.78.66 1.79.99 2.79.99s2.01-.33 2.79-.99l.52-.44 5.93 5.33H2.73zm1.55-14.59c.96-.78 2.58-.78 3.54 0l8.23 6.68-8.33 7c-.91.76-2.44.76-3.35 0l-8.33-7z"/></symbol><symbol id="s32" viewBox="0 0 32 32"><path d="m32.01 10.97-.02-.02h-.01L19.74 1.23c-2.09-1.66-5.37-1.66-7.46 0L.04 10.94H.03l-.02.03.02.03v20.99h31.96V11zm-2.02 17.26-7.93-7.1 7.93-6.69zM2.03 14.45l7.93 6.69-7.93 7.1zm9.47 7.98.85.72c1.03.86 2.34 1.3 3.66 1.3s2.63-.43 3.66-1.3l.85-.72 8.43 7.55H3.07zM13.52 2.8c1.35-1.07 3.63-1.07 4.98 0l11.43 9.08-11.55 9.75c-1.28 1.08-3.46 1.08-4.74 0L2.09 11.88z"/></symbol><symbol id="s40" viewBox="0 0 40 40"><path d="m40 13.68-.02-.02L24.6 1.52c-2.58-2.04-6.62-2.04-9.2 0L.02 13.67l-.02.02.02.03V40h39.96V13.71zm-2.27 22.05-10.32-9.25 10.32-8.72zM2.27 17.76l10.32 8.72-10.32 9.25zm12.05 10.19 1.17.99c1.26 1.07 2.89 1.61 4.51 1.61s3.25-.53 4.51-1.61l1.17-.99 10.92 9.79H3.4zm2.47-24.66c1.74-1.38 4.68-1.38 6.42 0l14.52 11.47v.05l-14.67 12.4c-1.66 1.4-4.47 1.4-6.13 0L2.27 14.81v-.05z"/></symbol><symbol id="s48" viewBox="0 0 48 48"><path d="M48.01 16.38 29.5 1.81c-3.07-2.41-7.87-2.41-10.93 0L.06 16.38H.01V48h47.98V16.4zM45.5 43.19 32.81 31.83 45.5 21.11zM2.51 21.09l12.71 10.74L2.51 43.21V21.1Zm14.64 12.37 1.48 1.25c1.48 1.25 3.43 1.88 5.38 1.88s3.9-.63 5.38-1.88l1.48-1.25L44.33 45.5H3.7l13.46-12.04Zm2.97-29.68c2.13-1.67 5.72-1.67 7.84 0l17.54 13.8v.25L27.78 32.79c-2.08 1.76-5.46 1.75-7.53 0L2.51 17.82v-.19z"/></symbol><symbol id="s64" viewBox="0 0 64 64"><path d="m64.02 21.78-.04-.03L39.16 2.36c-4.01-3.13-10.29-3.13-14.29 0L.06 21.75l-.04.03.04.05v42.18h63.93V21.83l.04-.05ZM2.8 27.45l17.86 15.09L2.8 58.53zm19.98 16.88 2.2 1.86c1.94 1.64 4.49 2.46 7.04 2.46s5.1-.82 7.04-2.46l2.2-1.86 18.91 16.93H3.87zm20.59-1.79 17.86-15.09v31.08zM26.56 4.53c3.01-2.35 7.9-2.35 10.91 0L61.23 23.1v.76L37.28 44.09c-2.91 2.45-7.63 2.45-10.53 0L2.8 23.85v-.76z"/></symbol><use style="display: var(--s16, none)" href="#s16"/><use style="display: var(--s24, none)" href="#s24"/><use style="display: var(--s32, none)" href="#s32"/><use style="display: var(--s40, none)" href="#s40"/><use style="display: var(--s48, none)" href="#s48"/><use style="display: var(--s64, none)" href="#s64"/></symbol></defs><style>@media (max-width: 23.98px) {g{--s16:block;}}@media (min-width: 24px) and (max-width: 31.98px) {g{--s24:block;}}@media (min-width: 32px) and (max-width: 39.98px) {g{--s32:block;}}@media (min-width: 40px) and (max-width: 47.98px) {g{--s40:block;}}@media (min-width: 48px) and (max-width: 63.98px) {g{--s48:block;}}@media (min-width: 64px) {g{--s64:block;}}</style><g><use href="#i-letteropen"/></g></svg>