<svg xmlns="http://www.w3.org/2000/svg"><defs><symbol id="i-like-solid"><symbol id="s16" viewBox="0 0 16 16"><path d="M10.25 5.7h1.12v9.27H2.23c-.62 0-1.16-.47-1.25-1.08L0 7.14c0-.79.64-1.43 1.43-1.43h3.11l-.4-2.87c0-1.77.9-2.82 2.42-2.82.53 0 1.01.33 1.19.83l2.5 4.86Zm2.43-1.04V16H16V4.66z"/></symbol><symbol id="s24" viewBox="0 0 24 24"><path d="M15.29 8.74h2.15v13.67H3.14c-.82 0-1.53-.61-1.65-1.42L0 10.66C0 9.6.86 8.74 1.92 8.74h5.09l-.66-4.69C6.35 1.47 7.6 0 9.78 0c.68 0 1.29.41 1.55 1.04l3.95 7.71Zm3.4-1.59V24H24V7.15z"/></symbol><symbol id="s32" viewBox="0 0 32 32"><path d="M20.32 11.79H23v18.07H4.06c-1.02 0-1.89-.76-2.04-1.76L0 14.2c0-1.33 1.08-2.41 2.41-2.41h7.08l-.92-6.5C8.57 1.93 10.19 0 13.02 0c.84 0 1.61.52 1.92 1.29l5.38 10.49ZM25 9.64V32h7V9.64z"/></symbol><symbol id="s40" viewBox="0 0 40 40"><path d="M25.36 14.83h3.71V37.3H4.98c-1.21 0-2.26-.9-2.43-2.1L0 17.73c0-1.6 1.3-2.9 2.9-2.9h9.06l-1.18-8.31c0-4.14 1.99-6.52 5.46-6.52 1.01 0 1.92.62 2.3 1.55l6.81 13.28Zm5.95-2.7V40H40V12.13z"/></symbol><symbol id="s48" viewBox="0 0 48 48"><path d="M30.39 17.87h4.74v26.88H5.89c-1.41 0-2.62-1.05-2.83-2.45L0 21.27c0-1.87 1.52-3.4 3.39-3.4h11.04L13 7.75C13 2.83 15.36 0 19.48 0c1.17 0 2.24.72 2.67 1.8zm7.24-3.25V48H48V14.62z"/></symbol><symbol id="s64" viewBox="0 0 64 64"><path d="M40.41 24.06h4.27v35.56H7.63c-1.74 0-3.25-1.3-3.5-3.03L0 28.32c0-2.35 1.91-4.26 4.26-4.26h15.21l-1.98-13.93C17.5 3.6 20.49 0 25.91 0c1.46 0 2.78.9 3.32 2.25zm9.52-4.37V64h14.06V19.69z"/></symbol><use style="display: var(--s16, none)" href="#s16"/><use style="display: var(--s24, none)" href="#s24"/><use style="display: var(--s32, none)" href="#s32"/><use style="display: var(--s40, none)" href="#s40"/><use style="display: var(--s48, none)" href="#s48"/><use style="display: var(--s64, none)" href="#s64"/></symbol></defs><style>@media (max-width: 23.98px) {g{--s16:block;}}@media (min-width: 24px) and (max-width: 31.98px) {g{--s24:block;}}@media (min-width: 32px) and (max-width: 39.98px) {g{--s32:block;}}@media (min-width: 40px) and (max-width: 47.98px) {g{--s40:block;}}@media (min-width: 48px) and (max-width: 63.98px) {g{--s48:block;}}@media (min-width: 64px) {g{--s64:block;}}</style><g><use href="#i-like-solid"/></g></svg>