<svg xmlns="http://www.w3.org/2000/svg"><defs><symbol id="i-linkedin-solid"><symbol id="s16" viewBox="0 0 16 16"><path d="M0-.03v16h16v-16zm5.59 13.01H3.53V6.32h2.06zM4.56 5.42c-.69.03-1.22-.53-1.22-1.22s.53-1.22 1.22-1.22 1.22.56 1.22 1.22-.53 1.22-1.22 1.22m8.78 7.56h-2.06v-3.5c0-.97-.38-1.5-1.12-1.5-.81 0-1.25.56-1.25 1.5v3.5H6.94V6.29h1.97v.91s.59-1.09 2-1.09 2.44.88 2.44 2.66v4.22Z"/></symbol><symbol id="s24" viewBox="0 0 24 24"><path d="M0-.02v24h24v-24zM8.38 19.5H5.29V9.52h3.09zM6.84 8.15c-1.03.05-1.83-.8-1.83-1.83s.8-1.83 1.83-1.83a1.83 1.83 0 0 1 0 3.66M20.01 19.5h-3.09v-5.25c0-1.45-.56-2.25-1.69-2.25-1.22 0-1.88.84-1.88 2.25v5.25H10.4V9.47h2.95v1.36s.89-1.64 3-1.64 3.66 1.31 3.66 3.98z"/></symbol><symbol id="s32" viewBox="0 0 32 32"><path d="M0 .05v32h32v-32zm11.18 26.03H7.06V12.77h4.12zM9.11 10.95c-1.38.06-2.44-1.06-2.44-2.44s1.06-2.44 2.44-2.44 2.44 1.12 2.44 2.44-1.06 2.44-2.44 2.44m17.57 15.13h-4.12v-7c0-1.94-.75-3-2.25-3-1.62 0-2.5 1.12-2.5 3v7h-3.94V12.7h3.94v1.81s1.19-2.19 4-2.19 4.88 1.75 4.88 5.31v8.44Z"/></symbol><symbol id="s40" viewBox="0 0 40 40"><path d="M0-.01v40h40v-40zm13.97 32.53H8.81V15.88h5.16zm-2.58-18.9c-1.72.08-3.05-1.33-3.05-3.05s1.33-3.05 3.05-3.05 3.05 1.41 3.05 3.05-1.33 3.05-3.05 3.05m21.95 18.9h-5.16v-8.75c0-2.42-.94-3.75-2.81-3.75-2.03 0-3.12 1.41-3.12 3.75v8.75h-4.92V15.8h4.92v2.27s1.48-2.73 5-2.73 6.09 2.19 6.09 6.64v10.55Z"/></symbol><symbol id="s48" viewBox="0 0 48 48"><path d="M0-.02v48h48v-48zm16.76 39.04h-6.19V19.05h6.19zm-3.09-22.69c-2.06.09-3.66-1.59-3.66-3.66s1.59-3.66 3.66-3.66 3.66 1.69 3.66 3.66-1.59 3.66-3.66 3.66m26.34 22.69h-6.19v-10.5c0-2.91-1.12-4.5-3.38-4.5-2.44 0-3.75 1.69-3.75 4.5v10.5h-5.91V18.96h5.91v2.72s1.78-3.28 6-3.28S40 21.02 40 26.37v12.66Z"/></symbol><symbol id="s64" viewBox="0 0 64 64"><path d="M0-.02v64h64v-64zm22.35 52.06H14.1V25.42h8.25zm-4.13-30.25c-2.75.12-4.88-2.12-4.88-4.88s2.12-4.88 4.88-4.88 4.88 2.25 4.88 4.88-2.12 4.88-4.88 4.88m35.13 30.25H45.1v-14c0-3.88-1.5-6-4.5-6-3.25 0-5 2.25-5 6v14h-7.88V25.29h7.88v3.62s2.38-4.38 8-4.38 9.75 3.5 9.75 10.62v16.88Z"/></symbol><use style="display: var(--s16, none)" href="#s16"/><use style="display: var(--s24, none)" href="#s24"/><use style="display: var(--s32, none)" href="#s32"/><use style="display: var(--s40, none)" href="#s40"/><use style="display: var(--s48, none)" href="#s48"/><use style="display: var(--s64, none)" href="#s64"/></symbol></defs><style>@media (max-width: 23.98px) {g{--s16:block;}}@media (min-width: 24px) and (max-width: 31.98px) {g{--s24:block;}}@media (min-width: 32px) and (max-width: 39.98px) {g{--s32:block;}}@media (min-width: 40px) and (max-width: 47.98px) {g{--s40:block;}}@media (min-width: 48px) and (max-width: 63.98px) {g{--s48:block;}}@media (min-width: 64px) {g{--s64:block;}}</style><g><use href="#i-linkedin-solid"/></g></svg>