<svg xmlns="http://www.w3.org/2000/svg"><defs><symbol id="i-linkexternal"><symbol id="s16" viewBox="0 0 16 16"><path d="M14.51 8.62H16v5.63c0 .96-.78 1.75-1.74 1.75H1.74C.78 16 0 15.22 0 14.25V1.75C0 .78.78 0 1.74 0h5.01v1.5H1.74c-.14 0-.25.11-.25.25v12.5c0 .14.11.25.25.25h12.51c.14 0 .25-.11.25-.25V8.62ZM16 0H9.85a.749.749 0 1 0 0 1.5h3.65L6.03 8.99l1.06 1.06 7.43-7.45v3.57a.749.749 0 1 0 1.5 0V0Z"/></symbol><symbol id="s24" viewBox="0 0 24 24"><path d="M22.26 12.93H24v8.4C24 22.8 22.81 24 21.34 24H2.66A2.68 2.68 0 0 1 0 21.32V2.68C0 1.21 1.19.01 2.66.01h7.44v1.75H2.66c-.5 0-.91.41-.91.92v18.65c0 .51.41.92.91.92h18.69c.5 0 .91-.41.91-.92zM24-.01h-9.17a.87.87 0 0 0 0 1.74h6.3L9.06 13.85l1.23 1.24L22.26 3.08V9.2a.87.87 0 0 0 1.74 0z"/></symbol><symbol id="s32" viewBox="0 0 32 32"><path d="M30 17.25h2V28.3c0 2.04-1.66 3.7-3.7 3.7H3.7C1.66 32 0 30.34 0 28.3V3.7C0 1.66 1.66 0 3.7 0h9.8v2H3.7C2.76 2 2 2.76 2 3.7v24.6c0 .94.76 1.7 1.7 1.7h24.6c.94 0 1.7-.76 1.7-1.7zM19.75 0c-.55 0-1 .45-1 1s.45 1 1 1h8.84L11.54 19.04l1.41 1.41L30 3.41v8.84c0 .55.45 1 1 1s1-.45 1-1V0z"/></symbol><symbol id="s40" viewBox="0 0 40 40"><path d="M37.75 21.57H40v13.91c0 2.49-2.03 4.52-4.52 4.52H4.52C2.03 40 0 37.97 0 35.48V4.52C0 2.03 2.03 0 4.52 0h12.33v2.25H4.52c-1.25 0-2.27 1.02-2.27 2.27v30.96c0 1.25 1.02 2.27 2.27 2.27h30.96c1.25 0 2.27-1.02 2.27-2.27zM24.72 0c-.62 0-1.13.5-1.13 1.13s.5 1.13 1.13 1.13h11.53L14.7 23.8l1.59 1.59L37.75 3.93v11.35c0 .62.5 1.13 1.13 1.13s1.13-.5 1.13-1.13V0H24.73Z"/></symbol><symbol id="s48" viewBox="0 0 48 48"><path d="M45.5 25.9H48v16.76c0 2.95-2.4 5.34-5.34 5.34H5.34C2.39 48 0 45.6 0 42.66V5.35C0 2.4 2.4 0 5.34 0h14.87v2.5H5.34C3.77 2.5 2.5 3.77 2.5 5.34v37.32c0 1.57 1.27 2.84 2.84 2.84h37.32c1.57 0 2.84-1.27 2.84-2.84zM29.69 0a1.25 1.25 0 0 0 0 2.5H43.8L17.19 29.11l1.77 1.77L45.5 4.34v13.98a1.25 1.25 0 0 0 2.5 0V0z"/></symbol><symbol id="s64" viewBox="0 0 64 64"><path d="M61.25 34.55H64v22.57c0 3.8-3.09 6.88-6.88 6.88H6.88C3.08 64 0 60.91 0 57.12V6.88C0 3.09 3.09 0 6.88 0h20.01v2.75H6.88c-2.28 0-4.13 1.85-4.13 4.13v50.23c0 2.28 1.85 4.13 4.13 4.13h50.23c2.28 0 4.13-1.85 4.13-4.13V34.54ZM39.66 0c-.76 0-1.37.62-1.37 1.37s.62 1.37 1.37 1.37h19.65L23.37 38.68l1.94 1.94L61.25 4.69v19.65c0 .76.62 1.37 1.37 1.37s1.37-.62 1.37-1.37V0H39.65Z"/></symbol><use style="display: var(--s16, none)" href="#s16"/><use style="display: var(--s24, none)" href="#s24"/><use style="display: var(--s32, none)" href="#s32"/><use style="display: var(--s40, none)" href="#s40"/><use style="display: var(--s48, none)" href="#s48"/><use style="display: var(--s64, none)" href="#s64"/></symbol></defs><style>@media (max-width: 23.98px) {g{--s16:block;}}@media (min-width: 24px) and (max-width: 31.98px) {g{--s24:block;}}@media (min-width: 32px) and (max-width: 39.98px) {g{--s32:block;}}@media (min-width: 40px) and (max-width: 47.98px) {g{--s40:block;}}@media (min-width: 48px) and (max-width: 63.98px) {g{--s48:block;}}@media (min-width: 64px) {g{--s64:block;}}</style><g><use href="#i-linkexternal"/></g></svg>