<svg xmlns="http://www.w3.org/2000/svg"><defs><symbol id="i-loadingtransporter-solid"><symbol id="s16" viewBox="0 0 16 16"><path d="M7.19 0v11.61L.9 13.53c-.66.2-1.03.9-.83 1.56.17.54.66.88 1.2.88.12 0 .24-.02.37-.05l6.99-2.14h1.16c.41 1.28 1.6 2.21 3.01 2.21s2.6-.93 3.01-2.21h.2v-2.5h-.46c-.54-.97-1.57-1.63-2.76-1.63s-2.21.66-2.76 1.63h-.35V2.51H16V0zm5.61 12.17a.67.67 0 1 1 0 1.34.67.67 0 0 1 0-1.34m-2.2-9.02h5.42v2.5h-2.91v1.18h2.91v2.5h-5.41V3.15ZM2.07 8.14H.02v-2.5h2.05l-.22-.22c-.49-.49-.49-1.28 0-1.77s1.28-.49 1.77 0l3.25 3.24-3.25 3.24a1.257 1.257 0 0 1-1.78 0 1.25 1.25 0 0 1 0-1.77l.22-.22Z"/></symbol><symbol id="s24" viewBox="0 0 24 24"><path d="M19.48 15.01c-1.77 0-3.29 1.04-4.02 2.53h-1.25V2.99h9.81V-.02h-12.8v17.94L1.11 21.05a1.497 1.497 0 0 0 .44 2.93c.15 0 .3-.02.44-.07l10.95-3.39h2.2c.47 1.97 2.24 3.44 4.35 3.44s3.87-1.47 4.35-3.44h.18v-3h-.51c-.73-1.49-2.25-2.53-4.02-2.53Zm0 5.96c-.82 0-1.48-.67-1.48-1.48s.67-1.48 1.48-1.48 1.48.67 1.48 1.48-.67 1.48-1.48 1.48m.03-13.6v2.64h4.52v3h-7.51V4.37h7.52v3h-4.52ZM4.73 11.68H.03v-3h4.71L3.42 7.36a1.49 1.49 0 0 1 0-2.12 1.49 1.49 0 0 1 2.12 0l4.94 4.94-4.94 4.94c-.29.29-.68.44-1.06.44s-.77-.15-1.06-.44a1.49 1.49 0 0 1 0-2.12l1.32-1.32Z"/></symbol><symbol id="s32" viewBox="0 0 32 32"><path d="M25.86 20.42a5.81 5.81 0 0 0-5.29 3.43h-2.14V3.51h13.58V0L14.94.02v24.29L1.25 28.56a1.75 1.75 0 0 0 .52 3.42c.17 0 .35-.03.52-.08l14.66-4.56h3.23c.53 2.65 2.87 4.66 5.68 4.66s5.15-2.01 5.68-4.66h.45v-3.5h-.85c-.91-2.02-2.93-3.43-5.28-3.43Zm0 8.08c-1.26 0-2.29-1.03-2.29-2.3s1.03-2.3 2.29-2.3 2.29 1.03 2.29 2.3-1.03 2.3-2.29 2.3m-.25-19v4.15h6.4v3.5h-9.9V6h9.91v3.5zM7.06 15.11H.02v-3.5h7.05L4.88 9.42a1.75 1.75 0 0 1 0-2.47 1.75 1.75 0 0 1 2.47 0l6.41 6.41-6.41 6.41c-.34.34-.79.51-1.24.51s-.9-.17-1.24-.51a1.75 1.75 0 0 1 0-2.47z"/></symbol><symbol id="s40" viewBox="0 0 40 40"><path d="M32.23 25.77c-2.93 0-5.44 1.78-6.53 4.31h-3.06V4.01h17.38V-.01L18.64.01v30.6L1.42 36.09a2.007 2.007 0 0 0-1.3 2.51c.27.85 1.06 1.4 1.91 1.4.2 0 .41-.03.61-.09l18.32-5.82h4.28c.57 3.35 3.49 5.92 7 5.92s6.43-2.56 7-5.92h.79v-4h-1.26c-1.09-2.53-3.61-4.31-6.53-4.31Zm0 10.23c-1.71 0-3.11-1.4-3.11-3.11s1.39-3.11 3.11-3.11 3.11 1.4 3.11 3.11S33.95 36 32.23 36m7.8-18.81v4H27.71V7.52h12.31v4h-8.31v5.67zM9.67 18.68H.06v-4h9.62l-3.1-3.1c-.78-.78-.78-2.05 0-2.83s2.05-.78 2.83 0l7.92 7.93-7.92 7.93c-.39.39-.9.59-1.42.59s-1.02-.2-1.41-.59c-.78-.78-.78-2.05 0-2.83l3.1-3.1Z"/></symbol><symbol id="s48" viewBox="0 0 48 48"><path d="M38.63 31.15c-3.49 0-6.48 2.16-7.74 5.21h-3.92V4.52l21.02-.02V0L22.47.02v36.93L1.6 43.57a2.24 2.24 0 0 0-1.46 2.82c.3.96 1.19 1.57 2.14 1.57.23 0 .46-.03.68-.11l22.1-7h5.29c.62 4.04 4.09 7.15 8.27 7.15s7.66-3.11 8.27-7.15h1.08v-4.5h-1.61c-1.26-3.05-4.25-5.21-7.74-5.21Zm0 12.36c-2.14 0-3.88-1.76-3.88-3.93s1.74-3.93 3.88-3.93 3.88 1.76 3.88 3.93-1.74 3.93-3.88 3.93m9.36-22.73v4.5H33.35V9.09h14.63v4.5H37.85v7.19zm-36.31 1.5H-.01v-4.5h11.69L7.73 13.8c-.88-.88-.87-2.31.01-3.18s2.31-.87 3.18.01l9.32 9.4-9.32 9.4c-.44.44-1.02.67-1.6.67s-1.15-.22-1.58-.65c-.88-.87-.89-2.3-.01-3.18l3.95-3.98Z"/></symbol><symbol id="s64" viewBox="0 0 64 64"><path d="M51.29 42.19c-4.62 0-8.55 2.94-10.09 7.06h-6.23V5.01l29.02-.02V-.02L29.98 0v49.93L1.79 59.09a2.513 2.513 0 0 0-1.61 3.15 2.49 2.49 0 0 0 2.38 1.73c.26 0 .52-.04.77-.12l29.54-9.59h7.7c.59 5.44 5.17 9.69 10.72 9.69s10.13-4.25 10.72-9.69h1.97v-5h-2.6c-1.54-4.12-5.48-7.06-10.09-7.06Zm0 16.76c-3.2 0-5.8-2.64-5.8-5.88s2.6-5.87 5.8-5.87 5.8 2.64 5.8 5.87-2.6 5.88-5.8 5.88M49.7 17.3v10.84h14.28v5H44.7V12.29h19.28v5H49.7ZM18.38 29.12H-.01v-5h18.39l-5.7-5.75c-.97-.98-.97-2.57.01-3.54s2.56-.96 3.53.01l11.66 11.78L16.22 38.4c-.49.49-1.13.74-1.77.74s-1.27-.24-1.76-.73c-.98-.97-.99-2.56-.01-3.54z"/></symbol><use style="display: var(--s16, none)" href="#s16"/><use style="display: var(--s24, none)" href="#s24"/><use style="display: var(--s32, none)" href="#s32"/><use style="display: var(--s40, none)" href="#s40"/><use style="display: var(--s48, none)" href="#s48"/><use style="display: var(--s64, none)" href="#s64"/></symbol></defs><style>@media (max-width: 23.98px) {g{--s16:block;}}@media (min-width: 24px) and (max-width: 31.98px) {g{--s24:block;}}@media (min-width: 32px) and (max-width: 39.98px) {g{--s32:block;}}@media (min-width: 40px) and (max-width: 47.98px) {g{--s40:block;}}@media (min-width: 48px) and (max-width: 63.98px) {g{--s48:block;}}@media (min-width: 64px) {g{--s64:block;}}</style><g><use href="#i-loadingtransporter-solid"/></g></svg>