<svg xmlns="http://www.w3.org/2000/svg"><defs><symbol id="i-locationpackage"><symbol id="s16" viewBox="0 0 16 16"><path d="M6.11 11.72h-1.8V9.9h1.8zm6.48-1.6-.44.45v1.86L8.63 16H.05V7.35h.02l4.16-3.58h3.9C8.24 1.67 9.95 0 12.07 0s3.98 1.8 3.98 4.01c0 2.56-3.1 5.76-3.45 6.11ZM9.58 4.01c0 1.37 1.5 3.36 2.49 4.49.99-1.12 2.49-3.12 2.49-4.49S13.44 1.5 12.07 1.5 9.58 2.63 9.58 4.01M2.35 7.35h1.41l2.33-2.08H4.77zm4.79 1.5H1.53v5.65h5.61zm.44-1.5 1.11-1.13c-.15-.31-.27-.62-.37-.93L6.01 7.35zm3.08 4.46V9.15c-.37-.43-.8-.98-1.2-1.59l-.83.84v5.46l2.03-2.06Zm1.41-6.47c.72 0 1.3-.59 1.3-1.31s-.59-1.32-1.3-1.32-1.3.59-1.3 1.32.59 1.31 1.3 1.31"/></symbol><symbol id="s24" viewBox="0 0 24 24"><path d="M9.55 17.23H6.8v-2.75h2.75zm9.02-1.68-.5.5v2.68l-5.4 5.28H0V11.35L6.24 5.9h5.67C12 2.63 14.67 0 17.95 0S24 2.71 24 6.05c0 4.02-5.21 9.27-5.43 9.49Zm-4.92-9.49c0 2.38 2.7 5.85 4.3 7.6 1.6-1.76 4.3-5.22 4.3-7.6a4.3 4.3 0 1 0-8.6 0M2.66 11.35h3.16l3.67-3.7H6.9zm8.26 1.75H1.76v9.16h9.16zM13 9.76c-.36-.7-.67-1.41-.86-2.12h-.18l-3.67 3.7h3.14L13 9.75Zm3.32 8.23v-3.53c-.68-.77-1.58-1.88-2.4-3.13l-1.25 1.26v8.98L16.32 18Zm1.63-9.45c-1.35 0-2.45-1.1-2.45-2.45s1.1-2.45 2.45-2.45 2.45 1.1 2.45 2.45-1.1 2.45-2.45 2.45m0-1.75c.39 0 .7-.32.7-.7s-.32-.7-.7-.7-.7.32-.7.7.32.7.7.7"/></symbol><symbol id="s32" viewBox="0 0 32 32"><path d="M12.52 22.87H9.17v-3.35h3.35zM32.01 7.98c0 5.34-6.98 12.38-7.27 12.67l-.71.71-.02-.02V25l-7.29 6.94v.07H0V15.3h.07l8.22-7.35h7.75C16.07 3.56 19.64 0 24.03 0s7.98 3.58 7.98 7.98M3.07 15.3H7.8l5.31-5.35H9.06L3.08 15.3Zm11.65 2H2.01v12.71h12.71zm.58-2 2.26-2.28c-.54-1.01-.98-2.05-1.24-3.07h-.4l-5.31 5.35h4.68Zm6.7 8.84v-4.9c-.95-1.07-2.25-2.66-3.39-4.44l-1.89 1.91v12.47l5.29-5.03Zm8.01-16.16c0-3.3-2.68-5.98-5.98-5.98s-5.98 2.68-5.98 5.98 3.83 8.18 5.98 10.52c2.15-2.34 5.98-7.18 5.98-10.52m-2.73.04c0 1.79-1.46 3.25-3.25 3.25s-3.25-1.46-3.25-3.25 1.46-3.25 3.25-3.25 3.25 1.46 3.25 3.25m-2 0a1.25 1.25 0 1 0-2.5 0 1.25 1.25 0 0 0 2.5 0"/></symbol><symbol id="s40" viewBox="0 0 40 40"><path d="M16.01 28.38h-4.25v-4.25h4.25zm24-18.17c0 6.86-9.01 15.95-9.39 16.34l-.79.8-.07-.07v4.06l-9.11 8.67-20.64.01V19.38h.02l10.27-9.2h9.35C19.65 4.57 24.21.02 29.82.02s10.19 4.57 10.19 10.19M3.39 19.37h6.29l6.88-6.95h-5.41zm15.01 2.26H2.26v16.14H18.4zm3.24-4.86c-.76-1.43-1.37-2.9-1.71-4.34h-.21l-6.88 6.95h6.21l2.58-2.61Zm5.86 13.59v-5.45c-1.27-1.42-3.1-3.64-4.69-6.14l-2.17 2.19v15.93zm10.26-20.15c0-4.38-3.56-7.94-7.94-7.94s-7.94 3.56-7.94 7.94c0 4.85 5.78 11.57 7.94 13.91 2.15-2.33 7.94-9.05 7.94-13.91m-3.96.04c0 2.2-1.79 3.98-3.98 3.98s-3.98-1.79-3.98-3.98 1.79-3.98 3.98-3.98 3.98 1.79 3.98 3.98m-2.25 0c0-.96-.78-1.73-1.73-1.73s-1.73.78-1.73 1.73.78 1.73 1.73 1.73 1.73-.78 1.73-1.73"/></symbol><symbol id="s48" viewBox="0 0 48 48"><path d="M18.99 34.04h-4.9v-4.9h4.9zm17.48-1.57-.87.87v4.22L24.7 47.95l-.14-.14v.21H0V23.46h.19l-.1-.11 12.29-11h10.78C23.22 5.52 28.77 0 35.58 0S48 5.57 48 12.43C48 20.84 36.93 32 36.46 32.47ZM25.66 12.43c0 6.11 7.34 14.56 9.92 17.34 2.58-2.78 9.92-11.24 9.92-17.34 0-5.47-4.45-9.93-9.92-9.93s-9.92 4.45-9.92 9.93M3.72 23.44h7.16l9.31-8.62h-6.85zm18.34 2.5H2.5V45.5h19.56zm3.6-5.4c-.95-1.78-1.73-3.61-2.15-5.38l-8.95 8.28h8.23l2.87-2.89Zm7.44 15.94v-5.71c-1.58-1.75-4.05-4.68-6.14-7.99l-2.4 2.42v19.41l8.54-8.14Zm2.48-19.22c-2.63 0-4.77-2.14-4.77-4.77s2.14-4.77 4.77-4.77 4.77 2.14 4.77 4.77-2.14 4.77-4.77 4.77m0-2.5c1.25 0 2.27-1.02 2.27-2.27s-1.02-2.27-2.27-2.27-2.27 1.02-2.27 2.27 1.02 2.27 2.27 2.27"/></symbol><symbol id="s64" viewBox="0 0 64 64"><path d="M26.01 44.48h-5.98V38.5h5.98zm22.27-.51-.97.97v5.18L32.73 64.01l-.28-.29v.3H0V31.56h.23l-.21-.23L16.47 16.6H30.6C30.68 7.44 38.14.02 47.3.02S64 7.51 64 16.73c0 11.39-15.08 26.61-15.73 27.25ZM33.35 16.72c0 8.7 10.63 20.75 13.95 24.29 3.31-3.54 13.95-15.59 13.95-24.29 0-7.69-6.26-13.95-13.95-13.95S33.35 9.03 33.35 16.72M3.89 31.56h10.68l12.91-12.21h-9.96zm25.8 2.75H2.75v26.95h26.94zm4.41-6.39c-1.45-2.66-2.6-5.41-3.15-8.06l-12.37 11.7H30.5l3.61-3.64Zm10.45 21.02V42.1c-2.18-2.38-5.94-6.76-9.02-11.72l-3.09 3.12v26.98zm2.75-25.93c-3.42 0-6.2-2.78-6.2-6.21s2.78-6.21 6.2-6.21 6.21 2.78 6.21 6.21-2.78 6.21-6.21 6.21m0-2.75c1.9 0 3.45-1.55 3.45-3.45s-1.55-3.46-3.45-3.46-3.45 1.55-3.45 3.46 1.55 3.45 3.45 3.45"/></symbol><use style="display: var(--s16, none)" href="#s16"/><use style="display: var(--s24, none)" href="#s24"/><use style="display: var(--s32, none)" href="#s32"/><use style="display: var(--s40, none)" href="#s40"/><use style="display: var(--s48, none)" href="#s48"/><use style="display: var(--s64, none)" href="#s64"/></symbol></defs><style>@media (max-width: 23.98px) {g{--s16:block;}}@media (min-width: 24px) and (max-width: 31.98px) {g{--s24:block;}}@media (min-width: 32px) and (max-width: 39.98px) {g{--s32:block;}}@media (min-width: 40px) and (max-width: 47.98px) {g{--s40:block;}}@media (min-width: 48px) and (max-width: 63.98px) {g{--s48:block;}}@media (min-width: 64px) {g{--s64:block;}}</style><g><use href="#i-locationpackage"/></g></svg>