<svg xmlns="http://www.w3.org/2000/svg"><defs><symbol id="i-locationletter"><symbol id="s16" viewBox="0 0 16 16"><path d="M16 4.01C16 1.8 14.21 0 12.02 0S8.04 1.8 8.04 4.01c0 .67.21 1.38.53 2.08H0v9.92h12.52v-5.85l.03-.03C12.9 9.77 16 6.58 16 4.01M12.02 1.5c1.37 0 2.49 1.13 2.49 2.51s-1.5 3.37-2.49 4.49c-.99-1.12-2.49-3.12-2.49-4.49s1.12-2.51 2.49-2.51m-2.6 6.08c.09.13.18.27.27.4l-2.86 3.09a.78.78 0 0 1-1.14 0L2.46 7.58zM1.49 8.74l2.14 2.31-2.14 2.15zm.81 5.76 2.34-2.36c.44.44 1 .69 1.61.69s1.18-.25 1.61-.69l2.34 2.36zm6.59-3.45 1.73-1.87c.15.17.28.33.4.46v3.56l-2.14-2.15Zm3.13-5.71c-.72 0-1.31-.59-1.31-1.31s.59-1.32 1.31-1.32 1.31.59 1.31 1.32-.59 1.31-1.31 1.31"/></symbol><symbol id="s24" viewBox="0 0 24 24"><path d="M24 6.06C24 2.72 21.28 0 17.94 0s-6.05 2.71-6.05 6.05c0 1.21.48 2.53 1.14 3.8H0V24h18.12v-8.01l.44-.44c.22-.22 5.43-5.48 5.43-9.49Zm-6.06-4.31c2.37 0 4.3 1.93 4.3 4.3s-2.7 5.85-4.3 7.6c-1.6-1.76-4.3-5.22-4.3-7.6s1.93-4.3 4.3-4.3m-3.85 9.85c.16.24.33.47.49.7l-4.5 4.83c-.55.59-1.48.59-2.03 0L2.89 11.6zM1.75 12.95l3.72 3.99-3.72 3.72zm.88 9.3 4.04-4.03.1.1c.61.65 1.42 1.01 2.3 1.01s1.67-.36 2.28-1l3.92 3.92zm9.91-5.19 3.13-3.36c.25.3.49.59.7.82v6.36l-3.83-3.83ZM20.4 6.08c0-1.35-1.1-2.45-2.45-2.45s-2.45 1.1-2.45 2.45 1.1 2.45 2.45 2.45 2.45-1.1 2.45-2.45m-3.16 0c0-.39.32-.7.7-.7s.7.32.7.7-.32.7-.7.7-.7-.32-.7-.7"/></symbol><symbol id="s32" viewBox="0 0 32 32"><path d="M24.02 0c-4.41 0-7.99 3.58-7.99 7.98 0 1.72.72 3.61 1.71 5.39H0V32h23.96V21.3l.06.06.71-.71c.3-.3 7.28-7.33 7.28-12.67C32 3.58 28.42 0 24.02 0m-5.04 15.38q.36.525.72 1.02l-6.23 6.68c-.8.86-2.17.86-2.98 0l-7.19-7.7h15.67ZM2 16.91l5.41 5.79L2 28.1V16.9ZM2.94 30l5.84-5.83.25.27a3.994 3.994 0 0 0 5.9 0l.25-.27L21.02 30zm13.61-7.29L20.94 18c.36.45.71.85 1.02 1.2v8.91zm7.47-4.21c-2.15-2.34-5.98-7.18-5.98-10.52S20.72 2 24.02 2 30 4.68 30 7.98s-3.83 8.18-5.98 10.52m0-13.73c-1.79 0-3.25 1.46-3.25 3.25s1.46 3.25 3.25 3.25 3.25-1.46 3.25-3.25-1.46-3.25-3.25-3.25m0 4.5a1.25 1.25 0 1 1 0-2.5 1.25 1.25 0 0 1 0 2.5"/></symbol><symbol id="s40" viewBox="0 0 40 40"><path d="M40 10.2C40 4.58 35.43 0 29.81 0S19.62 4.57 19.62 10.2c0 2.11.86 4.43 2.05 6.65H0v23.16h29.82V27.34l.79-.79c.38-.38 9.39-9.48 9.39-16.35M29.81 2.26c4.38 0 7.94 3.56 7.94 7.94 0 4.86-5.78 11.58-7.94 13.91-2.15-2.34-7.94-9.06-7.94-13.91 0-4.38 3.56-7.94 7.94-7.94m-6.8 16.84c.43.66.87 1.3 1.31 1.91l-7.45 8a2.686 2.686 0 0 1-3.93 0L3.71 19.1zM2.25 20.83l7.1 7.62-7.1 7.11zm.99 16.92 7.65-7.65.41.44c.96 1.03 2.24 1.6 3.61 1.6s2.65-.57 3.61-1.6l.41-.44 7.65 7.65zm17.23-9.3 5.25-5.63c.68.85 1.32 1.59 1.85 2.18v10.56zm13.32-18.2c0-2.2-1.79-3.98-3.98-3.98s-3.98 1.79-3.98 3.98 1.79 3.98 3.98 3.98 3.98-1.79 3.98-3.98m-5.71 0c0-.96.78-1.73 1.73-1.73s1.73.78 1.73 1.73-.78 1.73-1.73 1.73-1.73-.78-1.73-1.73"/></symbol><symbol id="s48" viewBox="0 0 48 48"><path d="M48 12.43C48 5.58 42.43 0 35.57 0S23.15 5.57 23.15 12.43c0 2.54 1.01 5.33 2.43 8H0v27.58h35.59V33.34l.87-.87C36.93 32 48 20.83 48 12.43M35.57 2.5c5.47 0 9.92 4.45 9.92 9.93 0 6.11-7.34 14.56-9.92 17.34-2.58-2.78-9.92-11.24-9.92-17.34 0-5.47 4.45-9.93 9.92-9.93m-8.52 20.43c.6.95 1.24 1.87 1.87 2.73l-8.69 9.32c-.66.7-1.52 1.09-2.43 1.09s-1.78-.39-2.43-1.09L4.13 22.93zM2.5 24.85l8.78 9.41-8.78 8.78zM3.57 45.5l9.41-9.41.55.59c1.13 1.21 2.64 1.88 4.26 1.88 1.61 0 3.13-.67 4.26-1.88l.55-.59 9.41 9.41zm20.74-11.24 6.14-6.59c.98 1.23 1.9 2.29 2.63 3.1v12.27l-8.78-8.78Zm16.04-21.77c0-2.63-2.14-4.77-4.77-4.77s-4.77 2.14-4.77 4.77 2.14 4.77 4.77 4.77 4.77-2.14 4.77-4.77m-7.05 0c0-1.25 1.02-2.27 2.27-2.27s2.27 1.02 2.27 2.27-1.02 2.27-2.27 2.27-2.27-1.02-2.27-2.27"/></symbol><symbol id="s64" viewBox="0 0 64 64"><path d="M63.99 16.77C63.99 7.59 56.5.12 47.29.12s-16.7 7.47-16.7 16.65c0 3.47 1.41 7.29 3.39 10.95H0v36.4h47.3V44.9l.97-.97C48.91 43.29 64 28.12 64 16.77Zm-16.7-13.9c7.69 0 13.95 6.24 13.95 13.91 0 8.67-10.63 20.68-13.95 24.21-3.31-3.53-13.95-15.54-13.95-24.21 0-7.67 6.26-13.91 13.95-13.91m-11.71 27.6c.97 1.55 2 3.04 3.03 4.43L27.14 47.16c-.94 1.01-2.18 1.56-3.5 1.56s-2.56-.55-3.5-1.56L4.53 30.47zM2.74 32.58 15.29 46 2.74 58.51zm1.01 28.8L17.17 48l.96 1.03c1.47 1.57 3.42 2.43 5.51 2.43s4.04-.86 5.51-2.43l.96-1.03 13.42 13.38zm28.24-15.39 8.31-8.88c1.62 2.04 3.13 3.75 4.24 4.96v16.44L31.99 46ZM53.5 16.85c0-3.41-2.78-6.19-6.21-6.19s-6.2 2.77-6.2 6.19 2.78 6.19 6.2 6.19 6.21-2.77 6.21-6.19m-9.66 0c0-1.9 1.55-3.44 3.45-3.44s3.45 1.54 3.45 3.44-1.55 3.44-3.45 3.44-3.45-1.54-3.45-3.44"/></symbol><use style="display: var(--s16, none)" href="#s16"/><use style="display: var(--s24, none)" href="#s24"/><use style="display: var(--s32, none)" href="#s32"/><use style="display: var(--s40, none)" href="#s40"/><use style="display: var(--s48, none)" href="#s48"/><use style="display: var(--s64, none)" href="#s64"/></symbol></defs><style>@media (max-width: 23.98px) {g{--s16:block;}}@media (min-width: 24px) and (max-width: 31.98px) {g{--s24:block;}}@media (min-width: 32px) and (max-width: 39.98px) {g{--s32:block;}}@media (min-width: 40px) and (max-width: 47.98px) {g{--s40:block;}}@media (min-width: 48px) and (max-width: 63.98px) {g{--s48:block;}}@media (min-width: 64px) {g{--s64:block;}}</style><g><use href="#i-locationletter"/></g></svg>