<svg xmlns="http://www.w3.org/2000/svg"><defs><symbol id="i-locationfavorite"><symbol id="s16" viewBox="0 0 16 16"><path d="M0 0h16v16H0zm12.01 0c-2.2 0-3.99 1.8-3.99 4.01 0 1.27.76 2.69 1.57 3.84l-1.44-.22L6.2 3.46 4.25 7.63l-4.26.65 3.08 3.18L2.33 16l3.86-2.15L10.05 16l-.74-4.54 1.73-1.78c.21.23.36.38.42.45l.53.53.53-.53c.35-.36 3.46-3.55 3.46-6.12C15.98 1.8 14.19 0 11.99 0ZM8.1 13.19l-1.89-1.05-1.9 1.05.36-2.24-1.58-1.63 2.18-.34.93-2 .93 2 2.18.34-1.58 1.63.36 2.24Zm3.91-4.69c-.99-1.12-2.49-3.12-2.49-4.49s1.12-2.51 2.49-2.51 2.5 1.13 2.5 2.51-1.5 3.36-2.5 4.49m1.31-4.47c0 .72-.59 1.31-1.31 1.31s-1.31-.59-1.31-1.31.59-1.32 1.31-1.32 1.31.59 1.31 1.32"/></symbol><symbol id="s24" viewBox="0 0 24 24"><path d="M17.94 0c-3.34 0-6.05 2.72-6.05 6.06 0 1.85 1.11 3.96 2.32 5.72l-1.96-.3-2.92-6.22-2.92 6.22-6.41.98 4.64 4.76-1.11 6.79 5.8-3.21 5.8 3.21-1.11-6.79 2.48-2.54c.45.5.76.82.81.87l.62.62.62-.62c.22-.22 5.43-5.48 5.43-9.49.01-3.34-2.7-6.06-6.04-6.06m-5.78 16.63.67 4.1-3.5-1.93-3.5 1.93.67-4.1-2.88-2.95 3.98-.61 1.73-3.69 1.73 3.69 3.98.61zm5.78-2.97c-1.6-1.76-4.3-5.22-4.3-7.6a4.3 4.3 0 1 1 8.6 0c0 2.37-2.7 5.85-4.3 7.6m0-10.03c-1.35 0-2.45 1.1-2.45 2.45s1.1 2.45 2.45 2.45 2.45-1.1 2.45-2.45-1.1-2.45-2.45-2.45m0 3.16c-.39 0-.7-.32-.7-.7s.32-.7.7-.7.7.32.7.7-.32.7-.7.7"/></symbol><symbol id="s32" viewBox="0 0 32 32"><path d="M24.05.06c-4.42 0-8.02 3.57-8.02 7.95 0 2.74 1.86 5.93 3.71 8.42l-3.7-.56-3.8-8.02-3.8 8.02-8.37 1.27 6.05 6.15-1.44 8.76 7.56-4.14 7.56 4.14-1.44-8.76 3.82-3.89c.64.71 1.09 1.17 1.16 1.24l.71.7.71-.7c.3-.3 7.31-7.31 7.31-12.63 0-4.39-3.6-7.95-8.02-7.95m-7.84 22.56.94 5.71-4.91-2.69-4.91 2.69.94-5.71-4.03-4.1 5.56-.84 2.43-5.14 2.43 5.14 5.56.84-4.03 4.1Zm7.84-4.13c-2.16-2.33-6.01-7.16-6.01-10.48s2.7-5.96 6.01-5.96 6.01 2.67 6.01 5.96-3.85 8.16-6.01 10.48m0-13.68c-1.8 0-3.27 1.45-3.27 3.24s1.47 3.24 3.27 3.24 3.27-1.45 3.27-3.24-1.47-3.24-3.27-3.24m0 4.48c-.69 0-1.26-.56-1.26-1.25s.56-1.25 1.26-1.25 1.26.56 1.26 1.25-.56 1.25-1.26 1.25"/></symbol><symbol id="s40" viewBox="0 0 40 40"><path d="M29.84.04c-5.61 0-10.17 4.58-10.17 10.2 0 3.3 2.08 7.11 4.28 10.23l-4.22-.65-4.69-10.01-4.69 10.01L.01 21.41l7.48 7.69-1.78 10.94 9.33-5.17 9.33 5.17-1.78-10.94 4.5-4.63c1.06 1.22 1.85 2.02 1.96 2.13l.79.8.79-.8c.38-.38 9.38-9.48 9.38-16.36 0-5.63-4.56-10.2-10.17-10.2m-9.65 28.29 1.22 7.48-6.36-3.53-6.36 3.53 1.22-7.48-5.22-5.36 7.2-1.1 3.16-6.75 3.16 6.75 7.2 1.1zm9.65-4.17c-2.15-2.34-7.93-9.07-7.93-13.92 0-4.38 3.56-7.95 7.93-7.95s7.93 3.57 7.93 7.95c0 4.86-5.78 11.59-7.93 13.92m-.04-17.9c-2.19 0-3.98 1.79-3.98 3.99s1.78 3.99 3.98 3.99 3.98-1.79 3.98-3.99S32 6.26 29.8 6.26m0 5.72c-.95 0-1.73-.78-1.73-1.73s.78-1.73 1.73-1.73 1.73.78 1.73 1.73-.78 1.73-1.73 1.73"/></symbol><symbol id="s48" viewBox="0 0 48 48"><path d="M35.57 0c-6.85 0-12.42 5.58-12.42 12.43 0 3.94 2.43 8.48 5.06 12.25l-4.71-.72-5.59-11.9-5.59 11.9L0 25.85 8.92 35 6.8 48.01l11.12-6.15 11.12 6.15L26.92 35l5.19-5.32c1.4 1.62 2.44 2.67 2.57 2.8l.88.88.88-.88c.47-.47 11.54-11.64 11.54-20.04C48 5.58 42.42 0 35.57 0M24.25 34.15l1.5 9.17-7.82-4.33-7.83 4.33 1.5-9.17-6.41-6.57 8.85-1.35 3.89-8.29 3.89 8.29 8.54 1.3c.05.07.11.13.16.2l-6.26 6.41Zm11.32-4.38c-2.58-2.78-9.92-11.24-9.92-17.34 0-5.47 4.45-9.93 9.92-9.93s9.92 4.45 9.92 9.93c0 6.11-7.34 14.56-9.92 17.34m0-22.05c-2.63 0-4.77 2.14-4.77 4.77s2.14 4.77 4.77 4.77 4.77-2.14 4.77-4.77-2.14-4.77-4.77-4.77m0 7.04c-1.25 0-2.27-1.02-2.27-2.27s1.02-2.27 2.27-2.27 2.27 1.02 2.27 2.27-1.02 2.27-2.27 2.27"/></symbol><symbol id="s64" viewBox="0 0 64 64"><path d="M47.28 0c-9.2 0-16.69 7.5-16.69 16.72 0 5.09 3.01 10.95 6.4 15.93l-5.58-.85-7.46-15.92-7.46 15.92-16.52 2.52 11.95 12.27-2.84 17.42 14.87-8.23 14.87 8.23-2.84-17.42 6.56-6.73c2.04 2.38 3.57 3.93 3.77 4.12l.97.97.97-.97c.64-.64 15.72-15.86 15.72-27.26C63.97 7.5 56.48 0 47.28 0M33.05 45.65l2.15 13.2-11.25-6.23-11.25 6.23 2.15-13.2-9.18-9.42 12.68-1.94 5.6-11.94 5.6 11.94 9.7 1.48q.78 1.02 1.53 1.95zm14.23-4.64c-3.31-3.54-13.94-15.59-13.94-24.3 0-7.7 6.25-13.96 13.94-13.96s13.94 6.26 13.94 13.96c0 8.7-10.63 20.75-13.94 24.3m0-30.42c-3.42 0-6.2 2.78-6.2 6.21s2.78 6.21 6.2 6.21 6.2-2.78 6.2-6.21-2.78-6.21-6.2-6.21m0 9.66c-1.9 0-3.45-1.55-3.45-3.46s1.55-3.46 3.45-3.46 3.45 1.55 3.45 3.46-1.55 3.46-3.45 3.46"/></symbol><use style="display: var(--s16, none)" href="#s16"/><use style="display: var(--s24, none)" href="#s24"/><use style="display: var(--s32, none)" href="#s32"/><use style="display: var(--s40, none)" href="#s40"/><use style="display: var(--s48, none)" href="#s48"/><use style="display: var(--s64, none)" href="#s64"/></symbol></defs><style>@media (max-width: 23.98px) {g{--s16:block;}}@media (min-width: 24px) and (max-width: 31.98px) {g{--s24:block;}}@media (min-width: 32px) and (max-width: 39.98px) {g{--s32:block;}}@media (min-width: 40px) and (max-width: 47.98px) {g{--s40:block;}}@media (min-width: 48px) and (max-width: 63.98px) {g{--s48:block;}}@media (min-width: 64px) {g{--s64:block;}}</style><g><use href="#i-locationfavorite"/></g></svg>