<svg xmlns="http://www.w3.org/2000/svg"><defs><symbol id="i-lockopen-solid"><symbol id="s16" viewBox="0 0 16 16"><path d="M5.91 5.49v-.9c0-1.15.94-2.09 2.09-2.09s2.09.94 2.09 2.09h2.5C12.59 2.06 10.53 0 8 0S3.41 2.06 3.41 4.59v.9H1.24v8.76c0 .97.79 1.75 1.75 1.75h10.02c.97 0 1.75-.79 1.75-1.75V5.49zm3 5.35v.79c0 .49-.4.89-.89.89s-.89-.4-.89-.89v-.79c-.27-.24-.44-.59-.44-.99a1.33 1.33 0 1 1 2.66 0c0 .39-.17.74-.44.99"/></symbol><symbol id="s24" viewBox="0 0 24 24"><path d="M20.66 8.23H8.48V6.51C8.48 4.57 10.06 3 11.99 3s3.51 1.58 3.51 3.51h3C18.51 2.91 15.59 0 12 0S5.49 2.92 5.49 6.51v1.72H3.34c-.67 0-1.22.55-1.22 1.22v11.91c0 1.45 1.18 2.63 2.63 2.63h14.52c1.45 0 2.63-1.18 2.63-2.63V9.45c0-.67-.55-1.22-1.22-1.22Zm-7.29 8.36v1.19a1.33 1.33 0 1 1-2.66 0v-1.19c-.41-.37-.67-.89-.67-1.48a2 2 0 1 1 4 0c0 .59-.26 1.12-.67 1.48"/></symbol><symbol id="s32" viewBox="0 0 32 32"><path d="M27.67 10.98H11.06V8.44c0-2.72 2.21-4.93 4.94-4.93s4.94 2.21 4.94 4.93h3.5C24.44 3.79 20.65 0 16 0S7.56 3.79 7.56 8.44v2.54H4.33c-.74 0-1.35.6-1.35 1.35V29c0 1.66 1.35 3 3 3h20.04c1.66 0 3-1.35 3-3V12.33c0-.74-.6-1.35-1.35-1.35m-9.84 10.99v1.58c0 .98-.8 1.78-1.78 1.78s-1.78-.8-1.78-1.78v-1.58c-.54-.49-.89-1.19-.89-1.98 0-1.47 1.2-2.67 2.67-2.67s2.67 1.2 2.67 2.67c0 .79-.35 1.49-.89 1.98"/></symbol><symbol id="s40" viewBox="0 0 40 40"><path d="M34.66 13.68H13.65v-3.4c0-3.5 2.85-6.35 6.35-6.35s6.35 2.85 6.35 6.35h4C30.35 4.58 25.71-.06 20-.06S9.65 4.58 9.65 10.29v3.4H5.34c-.81 0-1.47.66-1.47 1.47v21.41c0 1.86 1.51 3.37 3.37 3.37h25.51c1.86 0 3.37-1.51 3.37-3.37V15.15c0-.81-.66-1.47-1.47-1.47ZM22.28 27.27v1.98c0 1.23-.99 2.22-2.22 2.22s-2.22-.99-2.22-2.22v-1.98a3.3 3.3 0 0 1-1.11-2.47c0-1.84 1.49-3.33 3.33-3.33s3.33 1.49 3.33 3.33c0 .98-.43 1.86-1.11 2.47"/></symbol><symbol id="s48" viewBox="0 0 48 48"><path d="M41.66 16.48H16.23v-4.22c0-4.28 3.48-7.77 7.77-7.77s7.77 3.49 7.77 7.77h4.5C36.27 5.5 30.76 0 24 0S11.73 5.5 11.73 12.27v4.22H6.34c-.88 0-1.59.72-1.59 1.6v26.17c0 2.07 1.68 3.75 3.75 3.75h31.02c2.07 0 3.75-1.68 3.75-3.75V18.09c0-.88-.72-1.6-1.59-1.6ZM26.73 32.7v2.37c0 1.47-1.19 2.67-2.67 2.67s-2.67-1.19-2.67-2.67V32.7a3.97 3.97 0 0 1-1.33-2.96c0-2.21 1.79-4 4-4s4 1.79 4 4c0 1.18-.52 2.23-1.33 2.96"/></symbol><symbol id="s64" viewBox="0 0 64 64"><path d="M55.68 21.97H21.14v-6.1c0-5.99 4.87-10.86 10.86-10.86s10.86 4.87 10.86 10.86h5C47.87 7.12 40.75 0 32 0S16.13 7.12 16.13 15.87v6.1H8.32c-.95 0-1.72.77-1.72 1.72v36.18c0 2.28 1.85 4.13 4.13 4.13h42.54c2.28 0 4.13-1.85 4.13-4.13V23.69c0-.95-.77-1.72-1.72-1.72M35.65 43.31v3.16c0 1.96-1.59 3.56-3.56 3.56s-3.56-1.59-3.56-3.56v-3.16c-1.08-.98-1.78-2.38-1.78-3.95 0-2.95 2.39-5.33 5.33-5.33s5.33 2.39 5.33 5.33c0 1.57-.69 2.97-1.78 3.95Z"/></symbol><use style="display: var(--s16, none)" href="#s16"/><use style="display: var(--s24, none)" href="#s24"/><use style="display: var(--s32, none)" href="#s32"/><use style="display: var(--s40, none)" href="#s40"/><use style="display: var(--s48, none)" href="#s48"/><use style="display: var(--s64, none)" href="#s64"/></symbol></defs><style>@media (max-width: 23.98px) {g{--s16:block;}}@media (min-width: 24px) and (max-width: 31.98px) {g{--s24:block;}}@media (min-width: 32px) and (max-width: 39.98px) {g{--s32:block;}}@media (min-width: 40px) and (max-width: 47.98px) {g{--s40:block;}}@media (min-width: 48px) and (max-width: 63.98px) {g{--s48:block;}}@media (min-width: 64px) {g{--s64:block;}}</style><g><use href="#i-lockopen-solid"/></g></svg>