<svg xmlns="http://www.w3.org/2000/svg"><defs><symbol id="i-login"><symbol id="s16" viewBox="0 0 16 16"><path d="M9.46 8.75H0v-1.5h9.46L7.45 5.24c-.29-.29-.29-.77 0-1.06s.77-.29 1.06 0l3.82 3.83-3.82 3.83c-.15.15-.34.22-.53.22s-.38-.07-.53-.22a.754.754 0 0 1 0-1.06l2.01-2.01ZM14.22 0H2.85v1.5h11.36c.16 0 .28.13.28.28V14.2c0 .16-.13.28-.28.28H2.85v1.5h11.36c.98 0 1.78-.8 1.78-1.79V1.79c0-.99-.8-1.79-1.78-1.79Z"/></symbol><symbol id="s24" viewBox="0 0 24 24"><path d="M14.98 12.76h-15v-1.75h14.99l-3.49-3.49a.88.88 0 0 1 0-1.24c.34-.34.9-.34 1.24 0l5.61 5.6-5.61 5.6c-.17.17-.4.26-.62.26s-.45-.08-.62-.26a.88.88 0 0 1 0-1.24l3.49-3.49ZM21.36 0H4.31v1.75h17.04c.48 0 .88.39.88.88v18.75c0 .48-.39.88-.88.88H4.31v1.75h17.04c1.45 0 2.63-1.18 2.63-2.63V2.62C23.98 1.17 22.8 0 21.36 0"/></symbol><symbol id="s32" viewBox="0 0 32 32"><path d="M20.5 17H0v-2h20.5l-4.97-4.98a.996.996 0 1 1 1.41-1.41L24.33 16l-7.39 7.39c-.2.2-.45.29-.71.29s-.51-.1-.71-.29a.996.996 0 0 1 0-1.41L20.49 17ZM29 0H5.79v2h23.2c.55 0 1 .45 1 1v26c0 .55-.45 1-1 1H5.79v2h23.2c1.65 0 3-1.35 3-3V3c0-1.65-1.35-3-3-3Z"/></symbol><symbol id="s40" viewBox="0 0 40 40"><path d="M25.95 21.13H0v-2.25h25.95l-6.44-6.45c-.44-.44-.44-1.15 0-1.59s1.15-.44 1.59 0l9.16 9.17-9.16 9.17c-.22.22-.51.33-.8.33s-.58-.11-.8-.33c-.44-.44-.44-1.15 0-1.59l6.44-6.45ZM36.36 0H7.21v2.25h29.14c.76 0 1.39.62 1.39 1.39v32.71c0 .77-.62 1.39-1.39 1.39H7.21v2.25h29.14c2.01 0 3.64-1.64 3.64-3.64V3.64A3.64 3.64 0 0 0 36.35 0Z"/></symbol><symbol id="s48" viewBox="0 0 48 48"><path d="M31.38 25.25H0v-2.5h31.38l-7.9-7.9c-.49-.49-.49-1.28 0-1.77s1.28-.49 1.77 0L36.17 24 25.25 34.92c-.24.24-.56.37-.88.37s-.64-.12-.88-.37a1.25 1.25 0 0 1 0-1.77l7.9-7.9ZM43.72.01H8.66v2.5h35.06c.98 0 1.77.8 1.77 1.78v39.42c0 .98-.79 1.78-1.77 1.78H8.66v2.5h35.06c2.36 0 4.27-1.92 4.27-4.28V4.29c0-2.36-1.91-4.28-4.27-4.28"/></symbol><symbol id="s64" viewBox="0 0 64 64"><path d="M42.55 33.37H0v-2.75h42.56L31.53 19.59c-.54-.54-.54-1.41 0-1.95s1.41-.54 1.95 0l14.35 14.35-14.35 14.35c-.27.27-.62.4-.97.4s-.7-.13-.97-.4c-.54-.54-.54-1.41 0-1.95l11.03-11.03ZM58.56 0H11.54v2.75h47.02c1.48 0 2.68 1.22 2.68 2.71v53.08c0 1.49-1.2 2.71-2.68 2.71H11.54V64h47.02c2.99 0 5.43-2.45 5.43-5.46V5.46c0-3.01-2.44-5.46-5.43-5.46"/></symbol><use style="display: var(--s16, none)" href="#s16"/><use style="display: var(--s24, none)" href="#s24"/><use style="display: var(--s32, none)" href="#s32"/><use style="display: var(--s40, none)" href="#s40"/><use style="display: var(--s48, none)" href="#s48"/><use style="display: var(--s64, none)" href="#s64"/></symbol></defs><style>@media (max-width: 23.98px) {g{--s16:block;}}@media (min-width: 24px) and (max-width: 31.98px) {g{--s24:block;}}@media (min-width: 32px) and (max-width: 39.98px) {g{--s32:block;}}@media (min-width: 40px) and (max-width: 47.98px) {g{--s40:block;}}@media (min-width: 48px) and (max-width: 63.98px) {g{--s48:block;}}@media (min-width: 64px) {g{--s64:block;}}</style><g><use href="#i-login"/></g></svg>