<svg xmlns="http://www.w3.org/2000/svg"><defs><symbol id="i-logistics"><symbol id="s16" viewBox="0 0 16 16"><path d="M13.25 10.5c-1.52 0-2.75 1.23-2.75 2.75S11.74 16 13.25 16 16 14.77 16 13.25s-1.24-2.75-2.75-2.75m0 4a1.25 1.25 0 1 1 0-2.5 1.25 1.25 0 0 1 0 2.5m-10.48-4c-1.52 0-2.76 1.23-2.76 2.75S1.25 16 2.76 16s2.75-1.23 2.75-2.75-1.24-2.75-2.75-2.75Zm0 4a1.25 1.25 0 1 1 0-2.5 1.25 1.25 0 0 1 0 2.5m9.26-6V1c0-.55-.45-1-1-1h-1.5c-.55 0-1 .45-1 1v.56C7.07.03 5.07 0 5.04 0H.01v9.5h2.75a3.76 3.76 0 0 1 3.76 3.75v1.76h3.51v-3.26c0-.65.16-1.12.47-1.41.31-.28.73-.34.98-.34h4.54V8.5h-3.98Zm-2-7h.5v7h-.5zm-4.99 0c.14 0 3.48.05 3.48 4.46v.39H7.08l-1.8-1.68H1.51V1.5zm3.49 12.01h-.5v-.26C8.03 10.35 5.67 8 2.77 8H1.52V6.17H4.7l1.8 1.68h2.04v5.66Z"/></symbol><symbol id="s24" viewBox="0 0 24 24"><path d="M19.81 16.17a3.91 3.91 0 1 0 3.91 3.91 3.91 3.91 0 0 0-3.91-3.91m0 6.07c-1.19 0-2.16-.97-2.16-2.16s.97-2.16 2.16-2.16 2.16.97 2.16 2.16-.97 2.16-2.16 2.16M3.94 16.17c-2.15 0-3.9 1.75-3.9 3.91a3.91 3.91 0 1 0 7.82 0 3.91 3.91 0 0 0-3.91-3.91Zm0 6.07c-1.19 0-2.16-.97-2.16-2.16s.97-2.16 2.16-2.16 2.16.97 2.16 2.16-.97 2.16-2.16 2.16m13.77-9.1V1.38c0-.62-.5-1.13-1.12-1.13h-2.53c-.62 0-1.12.51-1.12 1.13V2.8C10.79.04 7.44 0 7.39 0H0v14.14h3.95c3.28 0 5.95 2.67 5.95 5.95v2.41h4.78v-4.68c0-1.07.27-1.85.8-2.33.48-.44 1.11-.56 1.54-.59h6.99v-1.75h-6.29ZM14.67 2h1.28v11.13h-1.28zm-7.28-.26c.25 0 5.54.15 5.54 7.03v1.11h-2.55L7.66 7.33H1.75V1.74zm5.53 19h-1.28v-.66c0-4.25-3.45-7.7-7.7-7.7H1.75v-3.3h5.21l2.72 2.55h3.24v9.1Z"/></symbol><symbol id="s32" viewBox="0 0 32 32"><path d="M25.67 21.09c-3.02 0-5.48 2.45-5.48 5.47s2.46 5.47 5.48 5.47 5.48-2.45 5.48-5.47-2.46-5.47-5.48-5.47m0 8.94a3.48 3.48 0 0 1-3.48-3.47 3.48 3.48 0 0 1 6.96 0 3.48 3.48 0 0 1-3.48 3.47m-20.2-8.94C2.45 21.09 0 23.55 0 26.56s2.46 5.47 5.48 5.47 5.48-2.45 5.48-5.47-2.46-5.47-5.48-5.47Zm0 8.94a3.48 3.48 0 0 1-3.48-3.47 3.48 3.48 0 0 1 6.96 0 3.48 3.48 0 0 1-3.48 3.47m17.78-12.16c-.14-.01-.5-.03-.97.02V1.9c0-.69-.56-1.25-1.25-1.25h-2.49c-.69 0-1.25.56-1.25 1.25v2.23C14.5.1 9.77.02 9.7.02H-.04v18.83h5.12c4.49 0 8.15 3.65 8.15 8.13v3.04h6.07v-6.08c0-1.48.38-2.57 1.13-3.24 1.08-.98 2.67-.84 2.68-.83h8.87v-1.99h-8.71ZM19.29 2.65h.99v15.22h-.99zM9.7 2.02c.33 0 7.59.18 7.59 9.57v2.93h-3.66l-3.65-3.41H1.96V2.02h7.73Zm7.59 26.01h-2.06v-1.05c0-5.58-4.55-10.12-10.15-10.12H1.96V13.1h7.23l3.65 3.41h4.45v11.51Z"/></symbol><symbol id="s40" viewBox="0 0 40 40"><path d="M32.08 26.46c-3.72 0-6.74 3.03-6.74 6.74s3.02 6.74 6.74 6.74 6.74-3.03 6.74-6.74-3.02-6.74-6.74-6.74m0 11.25c-2.48 0-4.49-2.02-4.49-4.5s2.02-4.5 4.49-4.5 4.49 2.02 4.49 4.5-2.02 4.5-4.49 4.5M6.75 26.46C3.03 26.46 0 29.49 0 33.21s3.02 6.74 6.74 6.74 6.74-3.03 6.74-6.74-3.02-6.74-6.74-6.74Zm0 11.25c-2.48 0-4.49-2.02-4.49-4.5s2.02-4.5 4.49-4.5 4.49 2.02 4.49 4.5-2.02 4.5-4.49 4.5m22.29-15.3c-.19-.01-.69-.04-1.35.03V2.12c0-.76-.62-1.37-1.37-1.37h-3.25c-.76 0-1.37.62-1.37 1.37v3.3C18.28.04 12.14-.05 12.05-.05H-.03v23.43h6.29c5.71 0 10.35 4.64 10.35 10.35v3.7h7.34v-7.52c0-1.9.49-3.31 1.46-4.18 1.41-1.27 3.45-1.08 3.46-1.08h11.1v-2.24zM23.95 2.99h1.5v19.42h-1.5zm-11.9-.79c.41 0 9.65.22 9.65 12.17v3.82h-4.77l-4.57-4.29H2.22V2.2zm9.65 32.99h-2.85v-1.45c0-6.95-5.65-12.6-12.59-12.6H2.22v-4.99h9.25l4.57 4.29h5.66z"/></symbol><symbol id="s48" viewBox="0 0 48 48"><path d="M38.61 31.95c-4.42 0-8.02 3.6-8.02 8.02s3.6 8.02 8.02 8.02 8.02-3.6 8.02-8.02-3.6-8.02-8.02-8.02m0 13.55c-3.05 0-5.52-2.48-5.52-5.52s2.48-5.52 5.52-5.52 5.52 2.48 5.52 5.52-2.48 5.52-5.52 5.52M8.06 31.95c-4.42 0-8.02 3.6-8.02 8.03S3.64 48 8.06 48s8.02-3.6 8.02-8.02-3.6-8.02-8.02-8.02Zm0 13.55c-3.05 0-5.52-2.48-5.52-5.52s2.48-5.52 5.52-5.52 5.52 2.48 5.52 5.52-2.48 5.52-5.52 5.52m26.88-18.43c-.22-.02-.88-.05-1.73.05V2.45c0-.83-.67-1.5-1.5-1.5h-4.02c-.83 0-1.5.67-1.5 1.5v4.42C22.14.12 14.56 0 14.46 0H0v28.03h7.47c6.94 0 12.58 5.65 12.58 12.59v4.35h8.65v-8.96c0-2.32.6-4.04 1.79-5.12 1.73-1.56 4.23-1.32 4.25-1.33h13.25v-2.49zM28.7 3.45h2.02v23.61H28.7zM14.46 2.5c.48 0 11.74.17 11.74 14.77v4.71h-5.9l-5.51-5.18H2.49V2.5h11.96ZM26.2 42.47h-3.65v-1.85c0-8.32-6.77-15.09-15.08-15.09H2.49V19.3h11.3l5.51 5.18h6.89v17.99Z"/></symbol><symbol id="s64" viewBox="0 0 64 64"><path d="M51.67 43c-5.79 0-10.49 4.71-10.49 10.49s4.71 10.49 10.49 10.49 10.49-4.71 10.49-10.49S57.45 43 51.67 43m0 18.24c-4.27 0-7.74-3.47-7.74-7.74s3.47-7.74 7.74-7.74 7.74 3.47 7.74 7.74-3.47 7.74-7.74 7.74M10.55 43C4.76 43 .06 47.71.06 53.5s4.71 10.49 10.49 10.49 10.49-4.71 10.49-10.49-4.71-10.49-10.49-10.49Zm0 18.24c-4.27 0-7.74-3.47-7.74-7.74s3.47-7.74 7.74-7.74 7.74 3.47 7.74 7.74-3.47 7.74-7.74 7.74m36.17-24.82c-.3-.03-1.31-.08-2.62.11V2.9c0-.9-.73-1.63-1.62-1.63H36.9c-.9 0-1.62.73-1.62 1.63v7.22C30.08.15 19.3 0 19.16 0H0v37.11h9.76c9.51 0 17.25 7.74 17.25 17.25v5.55h11.02V48.15c0-3.22.85-5.61 2.52-7.12 2.44-2.2 5.93-1.86 5.96-1.86H64v-2.74H46.73Zm-8.7-32.39h3.33v32.53l-3.33.42zM19.16 2.74c.66 0 16.12.31 16.12 20.19v6.64H26.9l-7.42-6.97H2.75V2.74zm16.11 54.42h-5.53v-2.8c0-11.03-8.97-20-20-20H2.75v-9h15.64l7.42 6.97h9.46z"/></symbol><use style="display: var(--s16, none)" href="#s16"/><use style="display: var(--s24, none)" href="#s24"/><use style="display: var(--s32, none)" href="#s32"/><use style="display: var(--s40, none)" href="#s40"/><use style="display: var(--s48, none)" href="#s48"/><use style="display: var(--s64, none)" href="#s64"/></symbol></defs><style>@media (max-width: 23.98px) {g{--s16:block;}}@media (min-width: 24px) and (max-width: 31.98px) {g{--s24:block;}}@media (min-width: 32px) and (max-width: 39.98px) {g{--s32:block;}}@media (min-width: 40px) and (max-width: 47.98px) {g{--s40:block;}}@media (min-width: 48px) and (max-width: 63.98px) {g{--s48:block;}}@media (min-width: 64px) {g{--s64:block;}}</style><g><use href="#i-logistics"/></g></svg>