<svg xmlns="http://www.w3.org/2000/svg"><defs><symbol id="i-logistics-solid"><symbol id="s16" viewBox="0 0 16 16"><path d="M15.74 13.5a2.5 2.5 0 0 1-5 0 2.5 2.5 0 0 1 5 0M2.77 11a2.5 2.5 0 0 0 0 5 2.5 2.5 0 0 0 0-5M16 8v2.5h-4.48c-.11 0-.48.01-.7.22-.25.23-.3.69-.3 1.03v3.76H6.13v-2.2c0-1.65-1.34-3-3-3H0V0h5.28c1.11 0 2.83.49 3.99 1.99V1c0-.14.11-.25.25-.25h1.5c.14 0 .25.11.25.25v7c.2-.01.37 0 .47 0zM2.5 2.5v2.92h2.24L6.53 7.1h1.49v-.93c0-3.42-2.28-3.65-2.75-3.67z"/></symbol><symbol id="s24" viewBox="0 0 24 24"><path d="M23.72 20.08a3.91 3.91 0 1 1-7.82 0 3.91 3.91 0 1 1 7.82 0M3.94 16.17c-2.15 0-3.91 1.76-3.91 3.91s1.75 3.91 3.91 3.91a3.91 3.91 0 1 0 0-7.82M24 12.51v3h-7.33s-.82-.06-1.37.39v7.21H9.42v-2.96c0-2.75-2.24-4.99-4.98-4.99-.74 0-2.92.02-2.92.02H0V.02L7.71 0c1.71 0 4.41.81 6.09 3.35V1.24c0-.14.11-.25.25-.25h2.53c.14 0 .25.11.25.25v11.27h7.16ZM3 3.01V8.2h5.22l2.72 2.56h1.36V9.01c0-5.74-4.1-6-4.6-6.01H3Z"/></symbol><symbol id="s32" viewBox="0 0 32 32"><path d="M31.44 26.74c0 2.9-2.36 5.25-5.25 5.25s-5.25-2.36-5.25-5.25 2.36-5.25 5.25-5.25 5.25 2.36 5.25 5.25M5.48 21.48c-2.89 0-5.25 2.36-5.25 5.25s2.36 5.25 5.25 5.25 5.25-2.36 5.25-5.25-2.36-5.25-5.25-5.25M32 17.14v3.5h-8.99s-1.28-.11-2.1.64c-.58.53-.87 1.43-.87 2.69v6.85h-7.38v-3.71c0-3.85-3.13-6.98-6.97-6.98H0V0h10.1c.07 0 5.36.08 8.19 4.71V1.38c0-.14.11-.25.25-.25h2.48c.14 0 .25.11.25.25v15.93c.92-.21 1.7-.19 2.01-.17zM3.5 3.49v7.61h6.49l3.64 3.42h2.91v-2.68c0-8.26-6.18-8.35-6.44-8.35z"/></symbol><symbol id="s40" viewBox="0 0 40 40"><path d="M39.02 33.02c0 3.72-3.03 6.75-6.75 6.75s-6.75-3.03-6.75-6.75 3.03-6.75 6.75-6.75 6.75 3.03 6.75 6.75M6.74 26.45c-3.72 0-6.75 3.02-6.75 6.74s3.03 6.75 6.75 6.75 6.75-3.03 6.75-6.75-3.03-6.75-6.75-6.75Zm33.25-4.93v4H28.78s-1.69-.15-2.79.86c-.77.7-1.16 1.89-1.16 3.52v8.4h-8.88v-4.46c0-4.95-4.03-8.98-8.98-8.98-1.25 0-4.95.02-4.95.02H.01V-.03l12.51-.02c.09 0 6.85.1 10.31 6.13V1.59c0-.14.11-.25.25-.25h3.25c.14 0 .25.11.25.25v20.14c1.16-.27 2.14-.25 2.51-.22h10.9ZM4.01 3.96v9.91h8.34l4.58 4.3h3.9v-3.51c0-10.29-7.44-10.7-8.32-10.72z"/></symbol><symbol id="s48" viewBox="0 0 48 48"><path d="M46.64 39.99c0 4.42-3.6 8.02-8.03 8.02s-8.02-3.6-8.02-8.02 3.6-8.02 8.02-8.02 8.03 3.6 8.03 8.02M8.06 31.97c-4.43 0-8.03 3.6-8.03 8.02s3.6 8.02 8.02 8.02 8.03-3.6 8.03-8.02-3.6-8.02-8.03-8.02ZM48 26.09v4.5H34.64s-2.1-.19-3.49 1.07c-.96.88-1.45 2.34-1.45 4.36v9.96H19.3v-5.23c0-6.08-4.95-11.02-11.03-11.02H0V.01h14.98c.11 0 8.37.12 12.47 7.57V1.49c0-.14.11-.25.25-.25h4.02c.14 0 .25.11.25.25v24.86c1.4-.33 2.58-.29 3.02-.26zM4.5 4.51v12.31h10.28l5.51 5.17h4.9v-4.37c0-12.61-9.16-13.1-10.23-13.12H4.5Z"/></symbol><symbol id="s64" viewBox="0 0 64 64"><path d="M62.17 53.5c0 5.79-4.71 10.5-10.49 10.5s-10.49-4.71-10.49-10.5S45.9 43 51.68 43s10.49 4.71 10.49 10.5M10.55 43.01C4.76 43.01.05 47.72.05 53.5S4.76 64 10.54 64s10.49-4.71 10.49-10.5S16.32 43 10.54 43ZM64 35.3v5l-17.62-.02s-3.05-.27-5.1 1.59c-1.42 1.29-2.13 3.4-2.13 6.27h-.04c.02 7.23.04 10.31.04 10.37l.02 2.52H26.16v-6.54c0-8.54-6.95-15.49-15.49-15.49H0V0h19.68c.15 0 11.8.17 16.97 11.1V1.89c0-.14.11-.25.25-.25h5.58c.14 0 .25.11.25.25v33.78c1.91-.47 3.51-.41 4.03-.37zM5 5v17.6h14.47l7.42 6.97h7.18v-6.24c0-7.62-2.38-13-7.09-15.99C23.44 5.09 19.78 5 19.66 5z"/></symbol><use style="display: var(--s16, none)" href="#s16"/><use style="display: var(--s24, none)" href="#s24"/><use style="display: var(--s32, none)" href="#s32"/><use style="display: var(--s40, none)" href="#s40"/><use style="display: var(--s48, none)" href="#s48"/><use style="display: var(--s64, none)" href="#s64"/></symbol></defs><style>@media (max-width: 23.98px) {g{--s16:block;}}@media (min-width: 24px) and (max-width: 31.98px) {g{--s24:block;}}@media (min-width: 32px) and (max-width: 39.98px) {g{--s32:block;}}@media (min-width: 40px) and (max-width: 47.98px) {g{--s40:block;}}@media (min-width: 48px) and (max-width: 63.98px) {g{--s48:block;}}@media (min-width: 64px) {g{--s64:block;}}</style><g><use href="#i-logistics-solid"/></g></svg>