<svg xmlns="http://www.w3.org/2000/svg"><defs><symbol id="i-logout"><symbol id="s16" viewBox="0 0 16 16"><path d="m11.1 10.76 2.01-2.01H3.62v-1.5h9.49L11.1 5.24c-.29-.29-.29-.77 0-1.06s.77-.29 1.06 0l3.83 3.83-3.83 3.83c-.15.15-.34.22-.53.22s-.39-.07-.53-.22a.754.754 0 0 1 0-1.06Zm-9.61 3.45V1.79c0-.16.13-.28.28-.28h11.4V0H1.78C.79 0-.01.8-.01 1.79v12.42c0 .99.8 1.79 1.79 1.79h11.4v-1.5H1.78a.28.28 0 0 1-.28-.28Z"/></symbol><symbol id="s24" viewBox="0 0 24 24"><path d="m17.14 16.25 3.49-3.49H5.66v-1.75h14.97l-3.49-3.49a.88.88 0 0 1 0-1.24c.34-.34.9-.34 1.24 0l5.6 5.6-5.6 5.6c-.17.17-.4.26-.62.26s-.45-.08-.62-.26a.88.88 0 0 1 0-1.24ZM1.73 21.37V2.62c0-.48.39-.88.87-.88h17.02V0H2.6C1.15 0-.02 1.17-.02 2.62v18.75C-.02 22.82 1.16 24 2.6 24h17.02v-1.75H2.6c-.48 0-.87-.39-.87-.88"/></symbol><symbol id="s32" viewBox="0 0 32 32"><path d="M23.2 21.98 28.17 17H7.68v-2h20.49l-4.97-4.98a.996.996 0 1 1 1.41-1.41L32 16l-7.39 7.39c-.2.2-.45.29-.71.29s-.51-.1-.71-.29a.996.996 0 0 1 0-1.41ZM2 29V3c0-.55.45-1 1-1h23.19V0H3C1.34 0 0 1.35 0 3v26c0 1.65 1.35 3 3 3h23.19v-2H3c-.55 0-1-.45-1-1"/></symbol><symbol id="s40" viewBox="0 0 40 40"><path d="m29.25 27.58 6.44-6.45H9.72v-2.25h25.97l-6.45-6.45c-.44-.44-.44-1.15 0-1.59s1.15-.44 1.59 0l9.16 9.17-9.16 9.17c-.22.22-.51.33-.8.33s-.58-.11-.8-.33c-.44-.44-.44-1.15 0-1.59ZM2.26 36.36V3.64c0-.77.62-1.39 1.39-1.39h29.16V0H3.64C1.64 0 0 1.64 0 3.64v32.71a3.64 3.64 0 0 0 3.64 3.64H32.8v-2.25H3.64c-.77 0-1.39-.62-1.39-1.39Z"/></symbol><symbol id="s48" viewBox="0 0 48 48"><path d="m35.3 33.16 7.89-7.9H11.83v-2.5H43.2l-7.89-7.9c-.49-.49-.49-1.28 0-1.77s1.28-.49 1.77 0l10.91 10.92-10.91 10.92c-.24.24-.56.37-.88.37s-.64-.12-.88-.37a1.25 1.25 0 0 1 0-1.77ZM2.48 43.72V4.29c0-.98.8-1.78 1.77-1.78H39.3V0H4.25C1.89 0-.02 1.93-.02 4.29v39.43C-.02 46.08 1.9 48 4.25 48H39.3v-2.5H4.25c-.98 0-1.77-.8-1.77-1.78"/></symbol><symbol id="s64" viewBox="0 0 64 64"><path d="m47.7 44.4 11.04-11.03H16.16v-2.75h42.58L47.7 19.59c-.54-.54-.54-1.41 0-1.95s1.41-.54 1.95 0l14.36 14.35-14.36 14.35c-.27.27-.62.4-.97.4s-.7-.13-.97-.4c-.54-.54-.54-1.41 0-1.95ZM2.76 58.54V5.46c0-1.49 1.2-2.71 2.68-2.71h47.04V0H5.44C2.44 0 0 2.45 0 5.46v53.08C0 61.55 2.44 64 5.43 64h47.04v-2.75H5.44c-1.48 0-2.68-1.22-2.68-2.71"/></symbol><use style="display: var(--s16, none)" href="#s16"/><use style="display: var(--s24, none)" href="#s24"/><use style="display: var(--s32, none)" href="#s32"/><use style="display: var(--s40, none)" href="#s40"/><use style="display: var(--s48, none)" href="#s48"/><use style="display: var(--s64, none)" href="#s64"/></symbol></defs><style>@media (max-width: 23.98px) {g{--s16:block;}}@media (min-width: 24px) and (max-width: 31.98px) {g{--s24:block;}}@media (min-width: 32px) and (max-width: 39.98px) {g{--s32:block;}}@media (min-width: 40px) and (max-width: 47.98px) {g{--s40:block;}}@media (min-width: 48px) and (max-width: 63.98px) {g{--s48:block;}}@media (min-width: 64px) {g{--s64:block;}}</style><g><use href="#i-logout"/></g></svg>