<svg xmlns="http://www.w3.org/2000/svg"><defs><symbol id="i-logout-solid"><symbol id="s16" viewBox="0 0 16 16"><path d="m10.28 10.18.93-.93H4.5v-2.5h6.71l-.93-.93c-.49-.49-.49-1.28 0-1.77s1.28-.49 1.77 0L16 8l-3.95 3.95c-.24.24-.56.37-.88.37s-.64-.12-.88-.37a1.25 1.25 0 0 1 0-1.77ZM2.5 2.5h10.3V0H2.22C1 0 0 .99 0 2.22v11.57c0 1.22.99 2.22 2.21 2.22H12.8v-2.5H2.5z"/></symbol><symbol id="s24" viewBox="0 0 24 24"><path d="m16.11 15.54 2.14-2.14H6.1v-3h12.15l-2.14-2.14a1.49 1.49 0 0 1 0-2.12 1.49 1.49 0 0 1 2.12 0l5.76 5.76-5.76 5.76c-.29.29-.68.44-1.06.44s-.77-.15-1.06-.44a1.49 1.49 0 0 1 0-2.12m-13.12 5.3V3.15c0-.08.07-.15.15-.15h16.07V0H3.15A3.15 3.15 0 0 0 0 3.15v17.7A3.15 3.15 0 0 0 3.15 24h16.07v-3H3.15c-.08 0-.15-.07-.15-.15Z"/></symbol><symbol id="s32" viewBox="0 0 32 32"><path d="m21.96 21.11 3.35-3.36H7.01v-3.5h18.3l-3.35-3.36c-.68-.68-.68-1.79 0-2.48s1.79-.68 2.47 0L32.01 16l-7.58 7.59c-.34.34-.79.51-1.24.51s-.9-.17-1.24-.51c-.68-.68-.68-1.79 0-2.48ZM3.51 28.35V3.65c0-.08.07-.15.15-.15h22.01V0H3.66C1.65 0 0 1.64 0 3.65v24.7C0 30.36 1.64 32 3.65 32h22.01v-3.5h-22c-.08 0-.15-.07-.15-.15"/></symbol><symbol id="s40" viewBox="0 0 40 40"><path d="m27.78 26.56 4.55-4.55H8.85v-4h23.48l-4.55-4.55c-.78-.78-.78-2.05 0-2.83s2.05-.78 2.83 0L40 20.01l-9.39 9.38c-.39.39-.9.59-1.42.59s-1.02-.2-1.42-.59c-.78-.78-.78-2.05 0-2.83ZM4 35.61V4.41c0-.22.18-.4.39-.4h27.78V0H4.39C1.97 0 0 1.98 0 4.41v31.2a4.4 4.4 0 0 0 4.4 4.4h27.78v-4H4.39c-.22 0-.39-.18-.39-.4"/></symbol><symbol id="s48" viewBox="0 0 48 48"><path d="m33.58 32.01 5.8-5.77H10.84v-4.48h28.55l-5.8-5.77c-.88-.88-.88-2.29 0-3.17s2.3-.88 3.18 0L48 24 36.77 35.18c-.44.44-1.01.66-1.59.66s-1.15-.22-1.59-.66c-.88-.88-.88-2.29 0-3.17ZM4.5 42.86V5.14c0-.37.29-.66.66-.66h33.7V0H5.15C2.31 0 0 2.31 0 5.14v37.72C0 45.7 2.31 48 5.16 48h33.7v-4.48H5.15c-.36 0-.66-.3-.66-.66Z"/></symbol><symbol id="s64" viewBox="0 0 64 64"><path d="m45.83 43.11 8.59-8.6H14.97V29.5h39.44l-8.59-8.6c-.98-.98-.98-2.57 0-3.54.98-.98 2.56-.98 3.54 0l14.62 14.65-14.62 14.65c-.49.49-1.13.73-1.77.73s-1.28-.24-1.77-.73c-.98-.98-.98-2.57 0-3.54ZM4.99 57.56V6.44c0-.79.63-1.43 1.39-1.43h45.18V0H6.39C2.86 0-.01 2.89-.01 6.44v51.12c0 3.55 2.87 6.44 6.4 6.44h45.18v-5.01H6.39c-.77 0-1.39-.64-1.39-1.43Z"/></symbol><use style="display: var(--s16, none)" href="#s16"/><use style="display: var(--s24, none)" href="#s24"/><use style="display: var(--s32, none)" href="#s32"/><use style="display: var(--s40, none)" href="#s40"/><use style="display: var(--s48, none)" href="#s48"/><use style="display: var(--s64, none)" href="#s64"/></symbol></defs><style>@media (max-width: 23.98px) {g{--s16:block;}}@media (min-width: 24px) and (max-width: 31.98px) {g{--s24:block;}}@media (min-width: 32px) and (max-width: 39.98px) {g{--s32:block;}}@media (min-width: 40px) and (max-width: 47.98px) {g{--s40:block;}}@media (min-width: 48px) and (max-width: 63.98px) {g{--s48:block;}}@media (min-width: 64px) {g{--s64:block;}}</style><g><use href="#i-logout-solid"/></g></svg>