<svg xmlns="http://www.w3.org/2000/svg"><defs><symbol id="i-magicwand-solid"><symbol id="s16" viewBox="0 0 16 16"><path d="M12.71 6.45 3.18 16 0 12.82l9.54-9.55zm2.87-2.88c.49-.49.49-1.28 0-1.77L14.17.39c-.49-.49-1.28-.49-1.76 0l-1.16 1.17 3.17 3.18zM3.93 7.91l.86-3.08 3.1-.87-3.1-.87L3.93.01l-.88 3.08-3.08.87 3.09.87.88 3.08Zm8.97 3.23-.87-3.11-.87 3.11-3.07.87 3.07.88.87 3.11.87-3.11 3.07-.88z"/></symbol><symbol id="s24" viewBox="0 0 24 24"><path d="M19.31 9.05 4.41 24.01 0 19.58 14.9 4.62zm4.14-4.16c.31-.31.47-.72.47-1.15s-.17-.84-.47-1.15L21.33.47c-.61-.61-1.68-.61-2.29 0L17.12 2.4l4.41 4.43 1.92-1.93ZM4.09 13.61l.9-3.2 3.19-.91-3.19-.91-.9-3.2-.9 3.2L0 9.5l3.19.91zm5.68-5.39.9-3.2 3.19-.91-3.19-.91-.9-3.2-.9 3.2-3.19.91 3.19.91zm11.02 7.36-.9-3.2-.9 3.2-3.19.91 3.19.91.9 3.21.9-3.21 3.2-.91z"/></symbol><symbol id="s32" viewBox="0 0 32 32"><path d="M25.88 11.76 5.73 31.95l-5.7-5.72L20.18 6.04l5.71 5.72Zm5.48-5.49c.78-.78.78-2.05 0-2.83L28.48.55c-.78-.78-2.05-.78-2.83 0l-2.73 2.74 5.71 5.72 2.74-2.74ZM5.55 18.57l1.22-4.33 4.34-1.23-4.34-1.22-1.22-4.34-1.22 4.34-4.35 1.22 4.34 1.23 1.22 4.33Zm7.47-7.47 1.23-4.35 4.32-1.23-4.32-1.23-1.23-4.34L11.8 4.3 7.47 5.53l4.33 1.23 1.22 4.35Zm14.64 9.72-1.22-4.33-1.22 4.33-4.32 1.23 4.32 1.23 1.22 4.33 1.22-4.33 4.32-1.23z"/></symbol><symbol id="s40" viewBox="0 0 40 40"><path d="M33.13 13.16 6.4 39.93.01 33.54 26.74 6.77l6.39 6.4Zm6.09-6.1c.93-.93.97-2.4.1-3.28L36.1.56c-.88-.87-2.34-.83-3.27.1L30 3.49l6.39 6.4zM6.11 21.11l1.35-4.78 4.77-1.35-4.77-1.35-1.35-4.78-1.35 4.78-4.78 1.34 4.77 1.35L6.1 21.1Zm11.36-8.91 1.35-4.78 4.77-1.35-4.77-1.35-1.35-4.79-1.35 4.78-4.77 1.35 4.77 1.35 1.35 4.78Zm17.74 14.2-1.35-4.78-1.35 4.78-4.78 1.35 4.78 1.35 1.35 4.78 1.35-4.78 4.78-1.35z"/></symbol><symbol id="s48" viewBox="0 0 48 48"><path d="M43.72 11.8 36.2 4.27l3.39-3.4c.54-.54 1.27-.85 2-.85.68 0 1.31.26 1.78.73l3.86 3.86c1.01 1.01.95 2.71-.12 3.79zm-11.3-3.75L0 40.49l7.52 7.53 32.43-32.44-7.52-7.53ZM7 25.03l1.54-5.45 5.44-1.54-5.44-1.54L7 11.05 5.46 16.5.02 18.04l5.44 1.54zM21 14l1.54-5.45 5.44-1.54-5.44-1.54L21 .02l-1.54 5.45-5.44 1.54 5.44 1.54zm21.56 17.83-1.54-5.45-1.54 5.45-5.45 1.54 5.45 1.54 1.54 5.45 1.54-5.45L48 33.37z"/></symbol><symbol id="s64" viewBox="0 0 64 64"><path d="M53.63 19.78 9.51 63.93.07 54.49 44.2 10.33l9.44 9.44Zm9.28-9.28c1.27-1.27 1.35-3.27.16-4.46L57.93.89c-1.18-1.18-3.18-1.11-4.45.16l-4.83 4.84 9.44 9.44 4.83-4.84ZM9.45 33.47l2.09-7.41 7.4-2.1-7.4-2.1-2.09-7.41-2.1 7.41-7.39 2.11 7.4 2.1 2.1 7.41ZM28 18.94l2.1-7.41 7.4-2.1-7.4-2.09L28-.07l-2.09 7.41-7.4 2.09 7.4 2.1zm28.56 23.42-2.1-7.41-2.09 7.41-7.4 2.1 7.4 2.09 2.09 7.41 2.1-7.41 7.4-2.09z"/></symbol><use style="display: var(--s16, none)" href="#s16"/><use style="display: var(--s24, none)" href="#s24"/><use style="display: var(--s32, none)" href="#s32"/><use style="display: var(--s40, none)" href="#s40"/><use style="display: var(--s48, none)" href="#s48"/><use style="display: var(--s64, none)" href="#s64"/></symbol></defs><style>@media (max-width: 23.98px) {g{--s16:block;}}@media (min-width: 24px) and (max-width: 31.98px) {g{--s24:block;}}@media (min-width: 32px) and (max-width: 39.98px) {g{--s32:block;}}@media (min-width: 40px) and (max-width: 47.98px) {g{--s40:block;}}@media (min-width: 48px) and (max-width: 63.98px) {g{--s48:block;}}@media (min-width: 64px) {g{--s64:block;}}</style><g><use href="#i-magicwand-solid"/></g></svg>