<svg xmlns="http://www.w3.org/2000/svg"><defs><symbol id="i-mailboxpublic"><symbol id="s16" viewBox="0 0 16 16"><path d="M7.99 0C5.73 0 .47.22.47 2.25v11.46C.47 15.78 5.73 16 7.99 16s7.52-.22 7.52-2.25V2.25C15.51.22 10.25 0 7.99 0m6.02 13.62c-.49.38-2.9.88-6.02.88s-5.57-.52-6.02-.9V2.38c.49-.38 2.9-.88 6.02-.88s5.53.49 6.02.88zM2.76 4.03v6.81c0 1.41 2.84 1.7 5.22 1.7s5.22-.29 5.22-1.68V4.02c0-1.38-2.84-1.67-5.22-1.67s-5.22.29-5.22 1.67Zm6.72-.11v1.82H6.5V3.92c.46-.04.96-.06 1.49-.06s1.03.02 1.49.06m-1.49 7.13c-1.77 0-3.24-.25-3.72-.46V9.42h7.45v1.18c-.5.21-1.97.45-3.72.45Zm3.72-3.13H4.26V4.3c.16-.06.41-.13.74-.19v3.13h5.98V4.11c.32.06.58.13.74.19v3.62ZM4.5 13.01c0 .41-.4.81-.81.81s-.81-.4-.81-.81.4-.81.81-.81.81.4.81.81"/></symbol><symbol id="s24" viewBox="0 0 24 24"><path d="M11.98 0C9.39 0 .95.22.95 3.11v17.7C.95 23.77 9.4 24 11.98 24s11.03-.22 11.03-3.12V3.11C23.02.22 14.57 0 11.98 0m9.29 20.79c-.53.62-4.23 1.45-9.28 1.45s-8.92-.89-9.28-1.43V3.19c.53-.62 4.23-1.45 9.28-1.45s8.75.83 9.28 1.45zM4.4 5.79v10.72c0 2.01 4.75 2.3 7.59 2.3s7.59-.29 7.59-2.26V5.79c0-1.97-4.75-2.26-7.59-2.26S4.4 3.82 4.4 5.79m10.81-.32V8.6H8.75V5.47a27.7 27.7 0 0 1 6.46 0m2.61 8.8H6.15v-1.11h11.67zm-5.84 2.79c-2.91 0-5.23-.43-5.84-.78v-.26h11.67v.28c-.63.33-3 .76-5.84.76Zm5.84-5.66H6.15V6.04c.17-.09.47-.18.85-.28v4.59h9.96V5.76c.39.09.69.19.85.28v5.36ZM6.5 19.76a.97.97 0 1 1-1.942-.002.97.97 0 0 1 1.942.002"/></symbol><symbol id="s32" viewBox="0 0 32 32"><path d="M15.98 0C13.55 0 1.43.19 1.43 3.98v23.93c0 3.88 12.12 4.08 14.54 4.08S30.51 31.8 30.51 28V3.98C30.52.19 18.41 0 15.98 0m0 29.99c-7.1 0-12.18-1.26-12.54-2.08V4.06C3.86 3.22 8.97 2 15.98 2S28.1 3.22 28.52 3.99v23.95c-.42.84-5.53 2.06-12.54 2.06Zm0-26.03c-3.22 0-10.7.28-10.7 2.85v15.38c0 2.62 7.48 2.91 10.7 2.91s10.7-.28 10.7-2.85V6.81c0-2.57-7.48-2.85-10.7-2.85M7.28 17.2h17.4v2.16H7.28zM21.2 6.28v4.44H10.75V6.28c1.52-.19 3.36-.33 5.23-.33s3.71.13 5.23.33Zm-12.45.33v6.11H23.2V6.61c.69.15 1.21.31 1.47.46v8.13H7.28V7.07c.26-.15.78-.31 1.47-.46m7.23 16.48c-3.98 0-7.84-.61-8.7-1.15v-.58h17.4v.61c-.9.53-4.75 1.12-8.7 1.12m-8.23 3.43c0 .62-.5 1.13-1.12 1.13s-1.12-.51-1.12-1.13.5-1.13 1.12-1.13 1.12.51 1.12 1.13"/></symbol><symbol id="s40" viewBox="0 0 40 40"><path d="M20-.02c-3.04 0-18.19.23-18.19 4.89v30.11c0 4.76 15.15 5 18.19 5s18.19-.24 18.19-4.89V4.87C38.19.21 23.04-.02 20-.02m0 37.75c-9.3 0-15.66-1.63-15.94-2.75V4.9C4.48 3.81 10.9 2.23 20 2.23s15.53 1.58 15.94 2.64v30.19c-.42 1.09-6.84 2.67-15.94 2.67m0-32.76c-3.13 0-13.34.25-13.34 3.45v19.36c0 3.27 10.21 3.52 13.34 3.52s13.34-.25 13.34-3.45V8.42c0-3.2-10.21-3.45-13.34-3.45M8.91 21.37H31.1v2.99H8.91zM26.72 7.64v5.84H13.28V7.64c1.94-.25 4.31-.43 6.72-.43s4.78.17 6.72.43m-15.69.37v7.72h17.94V8.01c1.04.21 1.79.44 2.12.67v10.44H8.91V8.68c.33-.22 1.09-.45 2.12-.67M20 29.05c-5.17 0-10.12-.8-11.09-1.5v-.94H31.1v.98c-1.03.68-5.97 1.46-11.09 1.46ZM9.58 33.23c0 .71-.58 1.28-1.28 1.28s-1.28-.57-1.28-1.28.58-1.28 1.28-1.28 1.28.57 1.28 1.28"/></symbol><symbol id="s48" viewBox="0 0 48 48"><path d="M37.97 1.14C34.09.4 29-.02 24-.02S13.91.4 10.03 1.14C4.68 2.15 2.19 3.62 2.19 5.76v36.3c0 5.64 18.17 5.92 21.81 5.92 5 0 10.09-.42 13.97-1.16 5.35-1.01 7.84-2.49 7.84-4.63V5.76c0-2.14-2.49-3.61-7.84-4.63ZM24 45.48c-11.98 0-19.31-2.22-19.31-3.42V5.77C5.03 4.46 12.9 2.48 24 2.48s18.97 1.98 19.31 3.28v36.42c-.34 1.31-8.21 3.3-19.31 3.3m0-39.49c-2.67 0-15.97.2-15.97 4.05v23.33c0 3.94 13.3 4.14 15.97 4.14s15.97-.2 15.97-4.05V10.04c0-3.86-13.3-4.05-15.97-4.05M10.53 25.55h26.94v3.81H10.53zM32.2 9.02v7.23H15.8V9.02c2.36-.31 5.24-.53 8.2-.53s5.84.21 8.2.53m-18.9.4v9.32h21.4V9.42c1.38.28 2.37.58 2.77.88v12.75H10.53V10.3c.4-.29 1.39-.6 2.77-.88M24 35.01c-6.36 0-12.39-1-13.47-1.86v-1.29h26.94v1.34c-1.15.84-7.17 1.81-13.47 1.81m-12.66 4.94c0 .79-.65 1.44-1.44 1.44s-1.44-.65-1.44-1.44.65-1.44 1.44-1.44 1.44.65 1.44 1.44"/></symbol><symbol id="s64" viewBox="0 0 64 64"><path d="M32-.04c-2.97 0-29.03.21-29.03 7.48V56.3c0 7.45 26.06 7.66 29.03 7.66s29.03-.21 29.03-7.48V7.44C61.03.17 34.97-.04 32-.04m26.28 56.53c0 1.3-8.08 4.73-26.28 4.73-16.04 0-26.28-2.91-26.28-4.91V7.44c0-1.3 8.08-4.73 26.28-4.73s26.28 3.43 26.28 4.73v49.04ZM32 8.06c-2.17 0-21.18.14-21.18 5.15v31.4c0 2.08 2.45 3.36 8.19 4.29 3.73.6 8.71.98 12.99.98 2.17 0 21.18-.14 21.18-5.15V13.21c0-5-19.01-5.15-21.18-5.15M13.57 33.77h36.86v5.75H13.57zm29.77-22.22v10.32H20.66V11.55c3.22-.44 7.21-.74 11.34-.74s8.12.3 11.34.74M17.91 12v12.62h28.18V12c2.27.43 3.85.93 4.34 1.4v17.62H13.57V13.4c.49-.47 2.07-.97 4.34-1.4M32 47.12c-8.99 0-17.29-1.45-18.43-2.67v-2.18h36.86v2.26c-1.24 1.19-9.52 2.59-18.43 2.59m-17.34 6.35a1.63 1.63 0 1 1-3.26 0 1.63 1.63 0 0 1 3.26 0"/></symbol><use style="display: var(--s16, none)" href="#s16"/><use style="display: var(--s24, none)" href="#s24"/><use style="display: var(--s32, none)" href="#s32"/><use style="display: var(--s40, none)" href="#s40"/><use style="display: var(--s48, none)" href="#s48"/><use style="display: var(--s64, none)" href="#s64"/></symbol></defs><style>@media (max-width: 23.98px) {g{--s16:block;}}@media (min-width: 24px) and (max-width: 31.98px) {g{--s24:block;}}@media (min-width: 32px) and (max-width: 39.98px) {g{--s32:block;}}@media (min-width: 40px) and (max-width: 47.98px) {g{--s40:block;}}@media (min-width: 48px) and (max-width: 63.98px) {g{--s48:block;}}@media (min-width: 64px) {g{--s64:block;}}</style><g><use href="#i-mailboxpublic"/></g></svg>