<svg xmlns="http://www.w3.org/2000/svg"><defs><symbol id="i-mail-solid"><symbol id="s16" viewBox="0 0 16 16"><path d="M9.45 16H8c-4.41 0-8-3.59-8-8 0-2.18.86-4.22 2.43-5.74A7.96 7.96 0 0 1 8.24 0C12.52.13 16 3.84 16 8.28v3.06a2.939 2.939 0 0 1-5.79.72c-.94.51-2.06.68-3.16.46-1.74-.35-3.17-1.74-3.56-3.47-.32-1.41.01-2.86.91-3.97.89-1.11 2.19-1.73 3.64-1.72 2.53.02 4.58 2.18 4.58 4.81v3.16c0 .24.19.43.43.43s.43-.19.43-.43V8.27c0-3.1-2.39-5.69-5.32-5.77-1.53-.02-2.92.5-4 1.55a5.42 5.42 0 0 0-1.67 3.94c0 3.03 2.46 5.49 5.49 5.49h1.45a1.25 1.25 0 0 1 0 2.5ZM8 5.88c-.64 0-1.25.29-1.65.79-.42.52-.56 1.17-.41 1.84.17.76.83 1.41 1.61 1.56.72.14 1.43-.06 1.94-.56.19-.18.64-.74.64-1.33 0-1.24-.96-2.29-2.1-2.3h-.02Z"/></symbol><symbol id="s24" viewBox="0 0 24 24"><path d="M14.25 24H12C5.38 24 0 18.62 0 12a11.9 11.9 0 0 1 3.64-8.61C5.99 1.11 9.08-.12 12.37 0 18.78.19 24 5.77 24 12.43v4.76c0 2.27-1.85 4.13-4.13 4.13-2.14 0-3.9-1.64-4.11-3.72-1.47.99-3.33 1.37-5.15 1.01-2.54-.51-4.62-2.54-5.19-5.06-.47-2.06.02-4.17 1.32-5.79s3.23-2.53 5.32-2.51c3.69.03 6.69 3.19 6.69 7.03v4.92c0 .62.5 1.12 1.12 1.12s1.12-.5 1.12-1.12v-4.76c0-5.06-3.91-9.29-8.72-9.43-2.45-.07-4.78.83-6.54 2.54S3 9.55 3 12.01c0 4.96 4.04 9 9 9h2.25c.83 0 1.5.67 1.5 1.5s-.67 1.5-1.5 1.5ZM12 8.25c-1.14 0-2.2.51-2.92 1.4-.74.91-.99 2.06-.73 3.24.31 1.38 1.46 2.49 2.85 2.77a3.76 3.76 0 0 0 3.42-.99c.04-.04 1.13-1.08 1.13-2.39 0-2.17-1.7-4.01-3.71-4.03z"/></symbol><symbol id="s32" viewBox="0 0 32 32"><path d="M19.11 32H16C7.18 32 0 24.82 0 16c0-4.36 1.73-8.44 4.86-11.48S12.12-.12 16.49 0C25.04.26 32 7.7 32 16.6v6.58c0 2.83-2.3 5.13-5.13 5.13s-5.13-2.3-5.13-5.13v-.58c-2.02 1.77-4.81 2.52-7.55 1.97-3.28-.66-5.99-3.29-6.72-6.55-.6-2.68.02-5.42 1.71-7.51s4.24-3.3 6.89-3.26c4.78.04 8.67 4.14 8.67 9.14v6.8a2.121 2.121 0 0 0 4.24 0v-6.58c0-7.29-5.65-13.39-12.59-13.6-3.57-.1-6.91 1.19-9.45 3.66S2.99 12.45 2.99 16c0 7.17 5.83 13 13 13h3.11c.83 0 1.5.67 1.5 1.5s-.67 1.5-1.5 1.5ZM16 10.25c-1.75 0-3.37.78-4.47 2.14-1.11 1.38-1.52 3.19-1.12 4.96.48 2.12 2.24 3.83 4.38 4.27 1.94.39 3.85-.16 5.23-1.52.05-.04 1.73-1.64 1.73-3.71 0-3.3-2.61-6.11-5.69-6.14h-.05Z"/></symbol><symbol id="s40" viewBox="0 0 40 40"><path d="M23.86 39.94H20c-11.03 0-20-8.97-20-20C0 14.48 2.16 9.39 6.07 5.59s9.09-5.8 14.54-5.64C31.3.27 40 9.58 40 20.7v8.17c0 3.59-2.92 6.5-6.5 6.5s-6.5-2.92-6.5-6.5v-.43c-2.52 2.09-5.93 2.95-9.26 2.28-4.13-.83-7.53-4.14-8.45-8.24-.76-3.37.02-6.81 2.15-9.44 2.1-2.61 5.22-4.1 8.57-4.1h.1c6.01.05 10.9 5.21 10.9 11.49v8.44a2.5 2.5 0 0 0 5 0V20.7c0-8.97-6.95-16.48-15.5-16.74-4.37-.12-8.5 1.47-11.63 4.51s-4.86 7.12-4.86 11.48c0 8.82 7.17 15.99 15.99 15.99h3.86a2 2 0 1 1 0 4ZM20 12.95c-2.13 0-4.11.95-5.45 2.61-1.35 1.68-1.85 3.88-1.36 6.04.58 2.58 2.73 4.67 5.33 5.19 2.36.47 4.68-.2 6.37-1.85.06-.06 2.1-2 2.1-4.51 0-4.02-3.17-7.45-6.93-7.48z"/></symbol><symbol id="s48" viewBox="0 0 48 48"><path d="M28.66 48H24C10.77 48 0 37.23 0 24c0-6.55 2.59-12.66 7.29-17.23 4.7-4.55 10.9-6.96 17.45-6.76C37.57.39 48 11.56 48 24.91v9.87c0 4.24-3.45 7.69-7.69 7.69s-7.69-3.45-7.69-7.69v-.87c-3.03 2.65-7.23 3.76-11.32 2.95-4.93-.99-8.98-4.94-10.08-9.83-.91-4.02.03-8.13 2.56-11.27 2.54-3.14 6.31-4.89 10.34-4.89 7.17.06 13 6.21 13.01 13.71v10.2c0 1.75 1.43 3.18 3.18 3.18s3.18-1.43 3.18-3.18v-9.87c0-10.93-8.47-20.08-18.88-20.39-5.33-.14-10.36 1.79-14.17 5.49-3.82 3.7-5.92 8.67-5.92 13.99 0 10.74 8.74 19.49 19.49 19.49h4.66c1.25 0 2.26 1.01 2.26 2.26s-1.01 2.26-2.26 2.26ZM24 15.39c-2.62 0-5.06 1.17-6.71 3.21-1.67 2.07-2.28 4.78-1.68 7.44.72 3.18 3.36 5.75 6.57 6.39 2.91.59 5.77-.24 7.84-2.28.07-.07 2.59-2.46 2.59-5.57 0-4.95-3.91-9.16-8.53-9.2H24Z"/></symbol><symbol id="s64" viewBox="0 0 64 64"><path d="M38.32 64H32C14.36 64 0 49.64 0 32c0-8.73 3.45-16.88 9.72-22.97C15.98 2.95 24.23-.25 32.98.01 50.08.52 64 15.43 64 33.23v13.38c0 5.45-4.43 9.88-9.88 9.88s-9.88-4.43-9.88-9.88v-2.46c-.12.12-.2.2-.23.22-4.03 3.95-9.87 5.66-15.57 4.51-6.47-1.3-11.8-6.49-13.25-12.91-1.19-5.28.04-10.68 3.37-14.82 3.3-4.09 8.19-6.43 13.43-6.43h.16c9.42.09 17.09 8.18 17.09 18.04v13.83a4.87 4.87 0 1 0 9.74 0V33.21C58.98 18.09 47.25 5.43 32.82 5c-7.37-.23-14.34 2.48-19.63 7.61C7.91 17.74 5 24.62 5 31.98c0 14.88 12.11 26.99 26.99 26.99h6.32c1.38 0 2.51 1.12 2.51 2.51s-1.12 2.51-2.51 2.51ZM32 19.76c-3.72 0-7.19 1.66-9.53 4.56-2.37 2.93-3.23 6.78-2.38 10.56 1.02 4.52 4.78 8.18 9.34 9.1 4.13.83 8.19-.35 11.13-3.24.09-.08 3.67-3.48 3.68-7.95 0-7.13-5.44-12.97-12.13-13.04H32Z"/></symbol><use style="display: var(--s16, none)" href="#s16"/><use style="display: var(--s24, none)" href="#s24"/><use style="display: var(--s32, none)" href="#s32"/><use style="display: var(--s40, none)" href="#s40"/><use style="display: var(--s48, none)" href="#s48"/><use style="display: var(--s64, none)" href="#s64"/></symbol></defs><style>@media (max-width: 23.98px) {g{--s16:block;}}@media (min-width: 24px) and (max-width: 31.98px) {g{--s24:block;}}@media (min-width: 32px) and (max-width: 39.98px) {g{--s32:block;}}@media (min-width: 40px) and (max-width: 47.98px) {g{--s40:block;}}@media (min-width: 48px) and (max-width: 63.98px) {g{--s48:block;}}@media (min-width: 64px) {g{--s64:block;}}</style><g><use href="#i-mail-solid"/></g></svg>