<svg xmlns="http://www.w3.org/2000/svg"><defs><symbol id="i-mail"><symbol id="s16" viewBox="0 0 16 16"><path d="M9.55 16H8c-4.41 0-8-3.59-8-8 0-2.18.86-4.22 2.43-5.74S6.07-.05 8.25 0C12.53.13 16 3.85 16 8.3v3.29c0 1.41-1.15 2.56-2.56 2.56s-2.56-1.15-2.56-2.56v-.29c-1.01.89-2.41 1.26-3.78.99-1.64-.33-2.99-1.65-3.36-3.28-.3-1.34 0-2.71.85-3.76s2.13-1.61 3.45-1.63c2.39.02 4.33 2.07 4.34 4.57v3.4c0 .59.48 1.06 1.06 1.06s1.06-.48 1.06-1.06V8.3c0-3.65-2.83-6.7-6.3-6.8-1.76-.05-3.45.6-4.73 1.83S1.5 6.22 1.5 7.99c0 3.58 2.92 6.5 6.5 6.5h1.55c.41 0 .75.34.75.75s-.34.75-.75.75ZM8 5.13c-.87 0-1.69.39-2.24 1.07-.56.69-.76 1.59-.56 2.48a2.84 2.84 0 0 0 2.19 2.13c.97.2 1.92-.08 2.62-.76.02-.02.86-.82.86-1.86 0-1.65-1.3-3.06-2.85-3.07h-.03Z"/></symbol><symbol id="s24" viewBox="0 0 24 24"><path d="M14.38 24H12C5.38 24 0 18.62 0 12a11.9 11.9 0 0 1 3.64-8.61C5.99 1.11 9.08-.08 12.37 0 18.78.19 24 5.78 24 12.46v5.05c0 2.02-1.64 3.66-3.66 3.66s-3.66-1.64-3.66-3.66v-1.1c-.11.12-.19.19-.2.2-1.53 1.5-3.66 2.12-5.81 1.68-2.42-.49-4.4-2.42-4.94-4.82-.45-1.97.01-3.99 1.26-5.53A6.39 6.39 0 0 1 12 5.54h.06c3.52.03 6.38 3.05 6.38 6.74v5.22c0 1.05.86 1.9 1.91 1.9s1.9-.85 1.9-1.9v-5.05c0-5.74-4.46-10.55-9.93-10.71-2.82-.11-5.45.94-7.45 2.89a10.16 10.16 0 0 0-3.11 7.36c0 5.65 4.6 10.25 10.25 10.25h2.38c.48 0 .88.39.88.88s-.39.88-.88.88ZM12 7.31c-1.42 0-2.75.63-3.65 1.75-.91 1.12-1.24 2.6-.91 4.04.39 1.73 1.83 3.13 3.58 3.49 1.58.32 3.13-.13 4.26-1.24.03-.03 1.41-1.33 1.41-3.05 0-2.73-2.08-4.96-4.64-4.99h-.04Z"/></symbol><symbol id="s32" viewBox="0 0 32 32"><path d="M19.21 32H16C7.18 32 0 24.82 0 16c0-4.36 1.73-8.44 4.86-11.48S12.12-.12 16.49 0C25.04.26 32 7.71 32 16.62v6.81c0 2.62-2.13 4.75-4.75 4.75s-4.75-2.13-4.75-4.75v-1.96c-.31.37-.54.59-.57.62-2.02 1.98-4.83 2.8-7.68 2.23-3.19-.64-5.81-3.2-6.52-6.36-.59-2.6.02-5.27 1.66-7.3 1.64-2.04 4.06-3.16 6.7-3.17 4.64.04 8.42 4.03 8.42 8.9v7.03c0 1.52 1.23 2.75 2.75 2.75s2.75-1.23 2.75-2.75v-6.81c0-7.84-6.09-14.39-13.57-14.62C12.63 1.86 9 3.28 6.26 5.93a13.9 13.9 0 0 0-4.25 10.05c0 7.72 6.28 14 14 14h3.21c.55 0 1 .45 1 1s-.45 1-1 1ZM16 9.5c-1.98 0-3.82.88-5.06 2.42-1.26 1.56-1.72 3.6-1.27 5.6.54 2.4 2.54 4.35 4.97 4.83 2.19.44 4.34-.19 5.91-1.72.04-.04 1.95-1.84 1.95-4.24 0-3.77-2.89-6.87-6.44-6.9H16Z"/></symbol><symbol id="s40" viewBox="0 0 40 40"><path d="M24.05 40H20C8.97 40 0 31.03 0 20 0 14.54 2.16 9.45 6.07 5.65 9.99 1.85 15.14-.18 20.61.01 31.3.33 40 9.65 40 20.79v8.57c0 3.22-2.62 5.84-5.84 5.84s-5.84-2.62-5.84-5.84v-2.84c-.5.64-.9 1.01-.95 1.06-2.52 2.47-6 3.48-9.55 2.77-3.96-.8-7.22-3.97-8.1-7.89-.73-3.24.02-6.55 2.06-9.08 2.02-2.5 5.01-3.93 8.22-3.93h.1c5.77.05 10.46 5.02 10.46 11.07v8.85c0 1.98 1.61 3.6 3.59 3.6s3.6-1.61 3.6-3.6V20.8c0-9.94-7.72-18.25-17.21-18.54-4.85-.13-9.43 1.63-12.91 5S2.24 15.16 2.24 20c0 9.79 7.96 17.75 17.75 17.75h4.05c.62 0 1.12.5 1.12 1.12s-.5 1.12-1.12 1.12ZM20 11.69c-2.53 0-4.88 1.12-6.47 3.1-1.61 1.99-2.2 4.61-1.62 7.17.69 3.08 3.25 5.56 6.35 6.19 2.81.56 5.56-.24 7.56-2.2.05-.05 2.49-2.35 2.5-5.43 0-4.82-3.7-8.78-8.24-8.82H20Z"/></symbol><symbol id="s48" viewBox="0 0 48 48"><path d="M28.87 48H24C10.77 48 0 37.23 0 24c0-6.55 2.59-12.66 7.29-17.22S18.21-.2 24.74.01C37.57.4 48 11.58 48 24.95v10.32c0 3.83-3.11 6.94-6.94 6.94s-6.94-3.11-6.94-6.94v-3.73c-.69.91-1.26 1.44-1.32 1.5-3.01 2.95-7.19 4.17-11.41 3.32-4.74-.95-8.63-4.75-9.69-9.44-.87-3.87.03-7.82 2.47-10.85 2.41-2.99 5.99-4.7 9.83-4.7h.12c6.9.06 12.51 6 12.51 13.24v10.67c0 2.45 1.99 4.44 4.44 4.44s4.44-1.99 4.44-4.44V24.96c0-12.03-9.35-22.1-20.83-22.44C18.8 2.36 13.25 4.5 9.05 8.58c-4.21 4.09-6.53 9.56-6.53 15.43 0 11.85 9.64 21.5 21.5 21.5h4.87a1.25 1.25 0 0 1 0 2.5ZM24 13.88c-3.08 0-5.95 1.37-7.88 3.77-1.96 2.43-2.68 5.61-1.97 8.73.84 3.75 3.95 6.77 7.74 7.54 3.4.69 6.76-.29 9.2-2.68.06-.05 3.04-2.86 3.04-6.62 0-5.87-4.5-10.69-10.03-10.74h-.09Z"/></symbol><symbol id="s64" viewBox="0 0 64 64"><path d="M38.56 64H32C14.35 64 0 49.64 0 32c0-8.73 3.45-16.89 9.72-22.97C15.98 2.96 24.24-.26 32.98.02 50.08.53 64 15.46 64 33.29v13.9c0 4.98-4.05 9.03-9.03 9.03s-9.03-4.05-9.03-9.03V41.2c-1.13 1.67-2.2 2.67-2.29 2.76-3.98 3.9-9.49 5.51-15.1 4.39-6.26-1.26-11.4-6.27-12.8-12.47-1.16-5.12.03-10.34 3.26-14.34 3.19-3.96 7.92-6.22 12.99-6.22h.16c9.12.08 16.53 7.94 16.53 17.51v14.36c0 3.46 2.82 6.28 6.28 6.28s6.28-2.82 6.28-6.28v-13.9c0-16.36-12.72-30.05-28.35-30.52-8.01-.23-15.55 2.69-21.27 8.24C5.9 16.56 2.75 24.02 2.75 32c0 16.13 13.12 29.25 29.25 29.25h6.56c.76 0 1.37.61 1.37 1.37s-.61 1.37-1.37 1.37ZM32 18.06c-4.24 0-8.19 1.89-10.85 5.19-2.69 3.34-3.68 7.72-2.72 12.01 1.17 5.16 5.45 9.33 10.66 10.38 4.69.94 9.31-.4 12.66-3.69.07-.07 4.18-3.93 4.18-9.13 0-8.07-6.2-14.7-13.81-14.76h-.13Z"/></symbol><use style="display: var(--s16, none)" href="#s16"/><use style="display: var(--s24, none)" href="#s24"/><use style="display: var(--s32, none)" href="#s32"/><use style="display: var(--s40, none)" href="#s40"/><use style="display: var(--s48, none)" href="#s48"/><use style="display: var(--s64, none)" href="#s64"/></symbol></defs><style>@media (max-width: 23.98px) {g{--s16:block;}}@media (min-width: 24px) and (max-width: 31.98px) {g{--s24:block;}}@media (min-width: 32px) and (max-width: 39.98px) {g{--s32:block;}}@media (min-width: 40px) and (max-width: 47.98px) {g{--s40:block;}}@media (min-width: 48px) and (max-width: 63.98px) {g{--s48:block;}}@media (min-width: 64px) {g{--s64:block;}}</style><g><use href="#i-mail"/></g></svg>