<svg xmlns="http://www.w3.org/2000/svg"><defs><symbol id="i-mailcarrier-solid"><symbol id="s16" viewBox="0 0 16 16"><path d="M11.76 8.62h-7.5a4.26 4.26 0 0 0-4.25 4.25v3.12h3.71v-2.62h1.5v2.62h5.51v-2.62h1.5v2.62H16v-3.12a4.26 4.26 0 0 0-4.25-4.25Zm-.74 3.51H7.9v-1.5h3.12zM2.91 4.5H4.3a3.756 3.756 0 0 0 7.36 0h.07v-.74A3.76 3.76 0 0 0 7.98 0c-.24 0-.48.03-.71.07-.07.01-.14.04-.21.06a3.5 3.5 0 0 0-.46.14c-.08.03-.15.07-.23.11-.13.06-.26.13-.38.21l-.21.15q-.18.135-.33.27l-.18.18c-.1.11-.19.22-.28.34-.05.06-.1.13-.14.19-.09.14-.16.28-.24.43-.03.06-.06.11-.09.17a4 4 0 0 0-.21.67H2.92c-.41 0-.75.34-.75.75s.34.75.75.75Zm3.33-1.75a1.996 1.996 0 0 1 3.46 0z"/></symbol><symbol id="s24" viewBox="0 0 24 24"><path d="M17.77 12.99H6.27c-3.45 0-6.25 2.8-6.25 6.24V24h24.01v-4.77c0-3.44-2.8-6.24-6.25-6.24ZM7.23 24H5.48v-4h1.75zm9.4-5.68h-4.79v-1.75h4.79zM18.46 24h-1.75v-4h1.75zM3.89 6.04h2.62c.28 2.75 2.62 4.9 5.45 4.9s4.98-1.99 5.4-4.6h.08v-.88A5.484 5.484 0 0 0 11.96 0C9.43 0 7.31 1.71 6.68 4.04H3.89c-.55 0-1 .45-1 1s.45 1 1 1m8.07-3.66c1.16 0 2.18.64 2.71 1.59H9.25c.53-.95 1.54-1.59 2.71-1.59"/></symbol><symbol id="s32" viewBox="0 0 32 32"><path d="M23.77 17.33H8.26c-4.55 0-8.25 3.7-8.25 8.24v6.44h32v-6.44c0-4.55-3.7-8.24-8.24-8.24M9.22 32.01h-2v-5.4h2zm13.01-7.84h-6.46v-2h6.46zm2.43 7.84h-2v-5.4h2zM5.93 8.44h2.99c.61 3.31 3.52 5.83 7 5.83s6.56-2.67 7.05-6.12h.08v-1c0-3.94-3.2-7.14-7.13-7.14-3.34 0-6.15 2.32-6.91 5.42H5.93c-.83 0-1.5.67-1.5 1.5s.67 1.5 1.5 1.5Zm9.99-5.67c1.79 0 3.33 1.08 4.01 2.62h-8.02a4.39 4.39 0 0 1 4.01-2.62"/></symbol><symbol id="s40" viewBox="0 0 40 40"><path d="M29.77 21.6H10.25C4.6 21.6 0 26.19 0 31.84v8.1h8.96v-6.79h2.25v6.79h17.4v-6.79h2.25v6.79H40v-8.1c0-5.65-4.59-10.24-10.24-10.24Zm-1.94 8.34H19.7v-2.25h8.13zM8.11 9.98h3.11c.61 4.25 4.27 7.52 8.68 7.52s8.14-3.34 8.7-7.65h.08V8.72c0-4.84-3.94-8.78-8.78-8.78-4.07 0-7.48 2.78-8.48 6.54H8.11c-.97 0-1.75.78-1.75 1.75s.78 1.75 1.75 1.75m6.88-3.51c.86-1.86 2.74-3.15 4.91-3.15s4.06 1.29 4.91 3.15z"/></symbol><symbol id="s48" viewBox="0 0 48 48"><path d="M35.78 25.99H12.25C5.51 25.99.02 31.48.02 38.23V48h48v-9.77c0-6.75-5.49-12.24-12.24-12.24M12.73 48h-2.5v-8.19h2.5zm20.71-12.16h-9.8v-2.5h9.8zM37.59 48h-2.5v-8.19h2.5zM9.57 12.34h4.05c.9 4.85 5.15 8.54 10.25 8.54s9.73-4.02 10.35-9.19h.08v-1.25C34.31 4.68 29.63 0 23.87 0c-5.03 0-9.24 3.59-10.22 8.34H9.57c-1.1 0-2 .9-2 2s.9 2 2 2m7.75-4.15c.94-2.72 3.52-4.68 6.56-4.68s5.62 1.96 6.56 4.68z"/></symbol><symbol id="s64" viewBox="0 0 64 64"><path d="M47.86 34.71H16.19C7.27 34.71.02 41.96.02 50.86v13.13h64.01V50.86c0-8.9-7.25-16.14-16.17-16.14Zm-31.3 29.28h-2.75V52.98h2.75zm28.15-16.66H31.52v-2.75h13.19zm5.24 16.66H47.2V52.98h2.75zM12.1 15.75h6.28c1.03 6.49 6.66 11.48 13.45 11.48s12.87-5.38 13.56-12.24h.07v-1.38c0-7.51-6.11-13.62-13.63-13.62-6.71 0-12.29 4.87-13.41 11.25H12.1c-1.24 0-2.25 1.01-2.25 2.25s1.01 2.25 2.25 2.25Zm10.3-4.65c1.11-4.16 4.92-7.24 9.43-7.24s8.32 3.08 9.43 7.24z"/></symbol><use style="display: var(--s16, none)" href="#s16"/><use style="display: var(--s24, none)" href="#s24"/><use style="display: var(--s32, none)" href="#s32"/><use style="display: var(--s40, none)" href="#s40"/><use style="display: var(--s48, none)" href="#s48"/><use style="display: var(--s64, none)" href="#s64"/></symbol></defs><style>@media (max-width: 23.98px) {g{--s16:block;}}@media (min-width: 24px) and (max-width: 31.98px) {g{--s24:block;}}@media (min-width: 32px) and (max-width: 39.98px) {g{--s32:block;}}@media (min-width: 40px) and (max-width: 47.98px) {g{--s40:block;}}@media (min-width: 48px) and (max-width: 63.98px) {g{--s48:block;}}@media (min-width: 64px) {g{--s64:block;}}</style><g><use href="#i-mailcarrier-solid"/></g></svg>