<svg xmlns="http://www.w3.org/2000/svg"><defs><symbol id="i-mailcarrier"><symbol id="s16" viewBox="0 0 16 16"><path d="M15.99 12.88V16h-1.5v-3.12c0-1.52-1.23-2.75-2.75-2.75h-7.5c-1.52 0-2.75 1.23-2.75 2.75V16H0v-3.12c0-2.35 1.9-4.25 4.25-4.25h7.5A4.26 4.26 0 0 1 16 12.88ZM4.21 16h1.5v-2.62h-1.5zm6.01 0h1.5v-2.62h-1.5zm.79-5.04H7.89v1.5h3.12zM2.14 3.75c0-.41.34-.75.75-.75h1.39c.35-1.71 1.87-3 3.68-3 2.07 0 3.75 1.68 3.75 3.75S10.03 7.5 7.96 7.5c-1.81 0-3.33-1.29-3.68-3H2.89c-.41 0-.75-.34-.75-.75m7.93.75H5.85C6.16 5.37 6.99 6 7.96 6s1.8-.63 2.11-1.5M5.85 3h4.22c-.31-.87-1.14-1.5-2.11-1.5s-1.8.63-2.11 1.5"/></symbol><symbol id="s24" viewBox="0 0 24 24"><path d="M24.01 19.24v4.77h-1.75v-4.77c0-2.48-2.02-4.49-4.5-4.49H6.25c-2.48 0-4.5 2.01-4.5 4.49v4.77H0v-4.77c0-3.45 2.81-6.25 6.25-6.25h11.5c3.45 0 6.25 2.8 6.25 6.24ZM6.47 24.01h1.75v-4H6.47zm9.22 0h1.75v-4h-1.75zm.92-7.43h-4.79v1.75h4.79zM3.3 5.48c0-.48.39-.88.88-.88h2.36C6.96 2 9.22 0 11.94 0c3.02 0 5.48 2.46 5.48 5.48s-2.46 5.47-5.48 5.47c-2.72 0-4.98-1.99-5.4-4.6H4.18c-.48 0-.88-.39-.88-.88Zm12.25.87H8.33c.4 1.63 1.86 2.84 3.61 2.84s3.21-1.22 3.61-2.84M8.33 4.6h7.22c-.4-1.63-1.86-2.84-3.61-2.84S8.73 2.98 8.33 4.6"/></symbol><symbol id="s32" viewBox="0 0 32 32"><path d="M32 25.57v6.44h-2v-6.44c0-3.44-2.8-6.24-6.24-6.24H8.25c-3.44 0-6.24 2.8-6.24 6.24v6.44H0v-6.44c0-4.54 3.7-8.24 8.24-8.24h15.51c4.55 0 8.24 3.7 8.24 8.24ZM8.21 32.01h2v-5.4h-2zm13.43 0h2v-5.4h-2zm.57-9.84h-6.46v2h6.46zM4.56 7.14c0-.55.45-1 1-1h3.29C9.35 2.68 12.32 0 15.91 0c3.93 0 7.13 3.2 7.13 7.13s-3.2 7.13-7.13 7.13c-3.59 0-6.56-2.67-7.05-6.12H5.57c-.55 0-1-.45-1-1Zm16.37 1H10.88c.47 2.35 2.54 4.12 5.02 4.12s4.56-1.78 5.02-4.12ZM10.88 6.13h10.05c-.47-2.35-2.54-4.12-5.02-4.12s-4.56 1.78-5.02 4.12Z"/></symbol><symbol id="s40" viewBox="0 0 40 40"><path d="M39.99 31.89v8.1h-2.25v-8.1c0-4.4-3.58-7.99-7.99-7.99H10.23c-4.41 0-7.99 3.58-7.99 7.99v8.1H0v-8.1c0-5.64 4.59-10.24 10.23-10.24h19.52c5.65 0 10.24 4.59 10.24 10.24m-29.54 8.1h2.25V33.2h-2.25zm16.65 0h2.25V33.2H27.1zm.71-12.25h-8.13v2.25h8.13zM5.84 8.77c0-.62.5-1.13 1.13-1.13h4.22C11.74 3.34 15.42 0 19.88 0c4.84 0 8.78 3.93 8.78 8.77s-3.94 8.78-8.78 8.78c-4.46 0-8.14-3.34-8.7-7.65H6.96c-.62 0-1.13-.5-1.13-1.13ZM26.31 9.9H13.46c.54 3.06 3.21 5.4 6.43 5.4s5.89-2.34 6.43-5.4ZM13.46 7.65h12.85c-.54-3.06-3.21-5.4-6.43-5.4s-5.89 2.34-6.43 5.4Z"/></symbol><symbol id="s48" viewBox="0 0 48 48"><path d="M48 38.23V48h-2.5v-9.77c0-5.37-4.37-9.74-9.74-9.74H12.24c-5.37 0-9.74 4.37-9.74 9.74V48H0v-9.77c0-6.75 5.49-12.24 12.24-12.24h23.53c6.75 0 12.24 5.49 12.24 12.24ZM12.21 48h2.5v-8.19h-2.5zm20.86 0h2.5v-8.19h-2.5zm.36-14.67h-9.8v2.5h9.8zM7.11 10.44c0-.69.56-1.25 1.25-1.25h5.15C14.13 4.02 18.53 0 23.86 0c5.75 0 10.43 4.68 10.43 10.44s-4.68 10.44-10.43 10.44c-5.33 0-9.73-4.02-10.35-9.19H8.36c-.69 0-1.25-.56-1.25-1.25m24.58 1.25H16.04c.6 3.78 3.88 6.69 7.83 6.69s7.22-2.9 7.83-6.69Zm-15.66-2.5h15.65c-.6-3.78-3.88-6.68-7.83-6.68s-7.22 2.9-7.83 6.68Z"/></symbol><symbol id="s64" viewBox="0 0 64 64"><path d="M64.01 50.87V64h-2.75V50.87c0-7.39-6.02-13.39-13.41-13.39H16.18c-7.4 0-13.41 6.01-13.41 13.39V64H0V50.87c0-8.91 7.26-16.15 16.17-16.15h31.67c8.91 0 16.17 7.24 16.17 16.15M16.29 63.99h2.75V52.98h-2.75zm28.39 0h2.75V52.98h-2.75zm.02-19.4H31.51v2.75H44.7zM9.75 13.61c0-.76.62-1.38 1.38-1.38h7.12C18.94 5.37 24.76 0 31.82 0c7.52 0 13.63 6.11 13.63 13.62s-6.12 13.62-13.63 13.62c-7.05 0-12.87-5.38-13.56-12.24h-7.12c-.76 0-1.38-.62-1.38-1.38Zm32.85 1.38H21.03c.68 5.34 5.25 9.49 10.78 9.49s10.1-4.15 10.78-9.49Zm-21.57-2.76H42.6c-.68-5.34-5.25-9.49-10.78-9.49s-10.1 4.15-10.78 9.49Z"/></symbol><use style="display: var(--s16, none)" href="#s16"/><use style="display: var(--s24, none)" href="#s24"/><use style="display: var(--s32, none)" href="#s32"/><use style="display: var(--s40, none)" href="#s40"/><use style="display: var(--s48, none)" href="#s48"/><use style="display: var(--s64, none)" href="#s64"/></symbol></defs><style>@media (max-width: 23.98px) {g{--s16:block;}}@media (min-width: 24px) and (max-width: 31.98px) {g{--s24:block;}}@media (min-width: 32px) and (max-width: 39.98px) {g{--s32:block;}}@media (min-width: 40px) and (max-width: 47.98px) {g{--s40:block;}}@media (min-width: 48px) and (max-width: 63.98px) {g{--s48:block;}}@media (min-width: 64px) {g{--s64:block;}}</style><g><use href="#i-mailcarrier"/></g></svg>