<svg xmlns="http://www.w3.org/2000/svg"><defs><symbol id="i-map-solid"><symbol id="s16" viewBox="0 0 16 16"><path d="m0 0 4.33 1.79v10.02L0 10.02zm11.67 0v4.65c.22-.03.43-.07.66-.07 1.44 0 2.74.59 3.67 1.55V1.79zm-1.5 5.07V0L5.84 1.79v10.02l1.56-.65c-.14-.48-.22-.96-.22-1.43 0-2.07 1.23-3.84 2.99-4.66m5.81 4.67c0 2.61-3.65 6.26-3.65 6.26s-3.65-3.65-3.65-6.26c0-2.02 1.64-3.65 3.65-3.65s3.65 1.64 3.65 3.65m-2.27.02c0-.76-.62-1.38-1.38-1.38s-1.38.62-1.38 1.38.62 1.38 1.38 1.38 1.38-.62 1.38-1.38"/></symbol><symbol id="s24" viewBox="0 0 24 24"><path d="m0 0 6.83 2.82v15.03L0 15.03zm17.17 0v7.89c.48-.1.97-.16 1.47-.16 2.14 0 4.05.95 5.36 2.45V2.82zm-1.75 8.51V0L8.59 2.82v15.03l3.18-1.31c-.15-.58-.23-1.15-.23-1.71 0-2.75 1.58-5.14 3.88-6.32m3.22 5.5a.85.85 0 1 0-.001 1.699.85.85 0 0 0 .001-1.699m5.36.82c0 3.82-5.35 9.17-5.35 9.17s-5.35-5.35-5.35-9.17c0-2.95 2.4-5.35 5.35-5.35S24 11.88 24 14.83m-2.75.03c0-1.43-1.17-2.6-2.6-2.6s-2.6 1.17-2.6 2.6 1.17 2.6 2.6 2.6 2.6-1.17 2.6-2.6"/></symbol><symbol id="s32" viewBox="0 0 32 32"><path d="m0 0 9.33 3.86v20.08l-9.34-3.86V0Zm22.66 0v11.19c.73-.19 1.49-.3 2.28-.3 2.85 0 5.39 1.33 7.05 3.4V3.87zm-2 11.98V0l-9.33 3.86v20.08l4.85-2.01c-.16-.68-.26-1.35-.26-2.01 0-3.43 1.92-6.43 4.75-7.96Zm4.28 6.56a1.43 1.43 0 1 0 0 2.86 1.43 1.43 0 0 0 0-2.86m7.03 1.39c0 5.03-7.03 12.07-7.03 12.07s-7.03-7.04-7.03-12.07c0-3.89 3.15-7.04 7.03-7.04s7.03 3.15 7.03 7.04m-3.6.04c0-1.89-1.54-3.43-3.43-3.43s-3.43 1.54-3.43 3.43 1.54 3.43 3.43 3.43 3.43-1.54 3.43-3.43"/></symbol><symbol id="s40" viewBox="0 0 40 40"><path d="m.01-.05 11.83 4.9v25.08L.01 25.03zm28.17 0v14.5c.99-.29 2.03-.46 3.11-.46 3.56 0 6.72 1.71 8.73 4.35V4.85zM25.93 15.4V-.05l-11.84 4.9v25.08l6.5-2.69c-.17-.76-.28-1.52-.28-2.26 0-4.11 2.27-7.69 5.61-9.58Zm5.36 7.73c-1.04 0-1.89.85-1.89 1.89s.85 1.89 1.89 1.89 1.89-.85 1.89-1.89-.85-1.89-1.89-1.89m8.72 1.84c0 6.24-8.72 14.97-8.72 14.97s-8.72-8.73-8.72-14.97c0-4.82 3.91-8.74 8.72-8.74s8.72 3.91 8.72 8.74m-4.59.05c0-2.28-1.86-4.14-4.14-4.14s-4.14 1.86-4.14 4.14 1.86 4.14 4.14 4.14 4.14-1.86 4.14-4.14"/></symbol><symbol id="s48" viewBox="0 0 48 48"><path d="m0 0 14.32 5.92v30.1L0 30.1zm47.97 22.53V5.92L33.65 0v17.88c1.24-.4 2.57-.62 3.94-.62 4.26 0 8.03 2.08 10.38 5.27m-16.83-3.52V0L16.82 5.92v30.1l8.14-3.37c-.18-.84-.28-1.67-.28-2.49 0-4.77 2.61-8.93 6.46-11.16Zm6.45 8.87c-1.29 0-2.34 1.05-2.34 2.34s1.05 2.34 2.34 2.34 2.34-1.05 2.34-2.34-1.05-2.34-2.34-2.34m10.4 2.29C47.99 37.6 37.58 48 37.58 48S27.17 37.6 27.17 30.17c0-5.75 4.66-10.4 10.41-10.4s10.41 4.66 10.41 10.4m-5.56.05c0-2.67-2.17-4.84-4.84-4.84s-4.84 2.17-4.84 4.84 2.17 4.84 4.84 4.84 4.84-2.17 4.84-4.84"/></symbol><symbol id="s64" viewBox="0 0 64 64"><path d="m0 0 19.5 8.06v40.07L0 40.07zm44.5 0v25.06c1.79-.67 3.73-1.06 5.76-1.06C56 24 61.06 26.96 64 31.42V8.06zm-2.75 26.39V0l-19.5 8.06v40.07l11.82-4.89c-.17-.94-.28-1.87-.28-2.78 0-5.97 3.2-11.19 7.96-14.08Zm8.51 10.79c-1.85 0-3.36 1.51-3.36 3.37s1.51 3.36 3.36 3.36 3.36-1.51 3.36-3.36-1.51-3.37-3.36-3.37m13.71 3.29C63.97 50.28 50.25 64 50.25 64S36.53 50.28 36.53 40.47c0-7.58 6.14-13.72 13.72-13.72s13.72 6.14 13.72 13.72m-7.6.07c0-3.37-2.74-6.12-6.11-6.12s-6.11 2.74-6.11 6.12a6.11 6.11 0 1 0 12.22 0"/></symbol><use style="display: var(--s16, none)" href="#s16"/><use style="display: var(--s24, none)" href="#s24"/><use style="display: var(--s32, none)" href="#s32"/><use style="display: var(--s40, none)" href="#s40"/><use style="display: var(--s48, none)" href="#s48"/><use style="display: var(--s64, none)" href="#s64"/></symbol></defs><style>@media (max-width: 23.98px) {g{--s16:block;}}@media (min-width: 24px) and (max-width: 31.98px) {g{--s24:block;}}@media (min-width: 32px) and (max-width: 39.98px) {g{--s32:block;}}@media (min-width: 40px) and (max-width: 47.98px) {g{--s40:block;}}@media (min-width: 48px) and (max-width: 63.98px) {g{--s48:block;}}@media (min-width: 64px) {g{--s64:block;}}</style><g><use href="#i-map-solid"/></g></svg>