<svg xmlns="http://www.w3.org/2000/svg"><defs><symbol id="i-maskface-solid"><symbol id="s16" viewBox="0 0 16 16"><path d="M13.88 4.95c-.16-.49-.6-.85-1.13-.85-1.35 0-1.65-.3-2.04-.69-.57-.57-1.17-1.05-2.74-1.05s-2.17.48-2.73 1.06c-.37.38-.66.68-2.01.68-.53 0-.96.36-1.13.85C.74 5.02 0 5.36 0 6.5v3.16c0 1.16.77 1.5 2.19 1.56.2.41.6.71 1.07.71.8 0 1.12.25 1.6.63.63.49 1.41 1.11 3.18 1.11s2.54-.62 3.16-1.11c.47-.38.78-.63 1.57-.63.31 0 .61-.13.84-.35.1-.1.17-.23.23-.35 1.19-.05 2.15-.32 2.15-1.56V6.51c0-1.23-.94-1.5-2.12-1.56ZM1.5 9.63v-3.1c.09-.02.27-.05.54-.07 0 .98 0 2.3.01 3.25-.28-.02-.46-.05-.55-.07Zm1.73-3.74c1.5 0 1.85-.17 2.22-.35.56-.27 1.07-.46 2.51-.46s1.96.19 2.53.46c.39.18.75.35 2.25.35v1.5c-1.7 0-2.29-.22-2.89-.5-.36-.17-.67-.32-1.89-.32s-1.51.14-1.86.31c-.59.28-1.17.5-2.88.5v-1.5Zm9.52 4.09c-.86 0-1.21.19-1.68.45-.6.33-1.34.75-3.05.75s-2.46-.42-3.07-.75c-.49-.27-.84-.46-1.7-.46v-1.5c1.25 0 1.87.34 2.42.64.53.29 1.03.56 2.35.56s1.81-.27 2.32-.56c.54-.3 1.15-.65 2.41-.65v1.5Zm1.74-.35c-.09.02-.26.05-.52.07V6.45c.26.02.43.05.52.07v3.1Z"/></symbol><symbol id="s24" viewBox="0 0 24 24"><path d="M20.83 7.57c-.16-.73-.78-1.29-1.53-1.29-2.19 0-2.72-.53-3.32-1.14-.86-.87-1.7-1.53-4.01-1.53s-3.14.67-3.98 1.54c-.59.61-1.09 1.13-3.28 1.13-.41 0-.79.16-1.09.46-.23.23-.38.52-.45.83C1.06 7.65 0 8.09 0 9.7v4.84c0 1.62 1.1 2.05 3.26 2.12.22.63.8 1.08 1.47 1.08 1.32 0 1.87.43 2.62 1.03.93.73 2.08 1.64 4.71 1.64s3.76-.91 4.67-1.65c.74-.59 1.27-1.02 2.59-1.02.41 0 .79-.16 1.09-.46.17-.17.3-.39.38-.62 2.12-.07 3.2-.51 3.2-2.12V9.7c0-1.61-1.07-2.05-3.16-2.12ZM1.74 14.7V9.54c.12-.06.48-.16 1.39-.21 0 1.62.01 4.03.02 5.58-.92-.04-1.28-.15-1.41-.21m2.94-5.54c2.36 0 2.93-.27 3.53-.56.83-.4 1.58-.68 3.74-.68 2.32 0 3.05.34 3.76.68.62.29 1.21.57 3.57.57v1.75c-2.75 0-3.58-.39-4.31-.73-.58-.27-1.09-.51-3.02-.51s-2.41.23-2.98.51c-.72.35-1.53.74-4.29.74V9.18Zm14.61 5.46c-1.4 0-1.98.32-2.71.73-.94.52-2 1.12-4.55 1.12s-3.63-.59-4.59-1.11c-.75-.41-1.35-.74-2.75-.74v-1.75c1.85 0 2.73.48 3.59.95.85.46 1.65.9 3.75.9s2.87-.44 3.7-.9c.8-.45 1.71-.95 3.56-.95zm2.95-.08v.16c-.12.05-.47.16-1.35.21l-.02-5.58c.9.04 1.25.15 1.37.21z"/></symbol><symbol id="s32" viewBox="0 0 32 32"><path d="M27.74 10.17c-.14-.98-.94-1.73-1.91-1.73-3.03 0-3.76-.74-4.61-1.59-.94-.94-2-2.01-5.28-2.01s-4.33 1.07-5.24 2.02c-.82.85-1.53 1.58-4.56 1.58-.5 0-.98.2-1.34.56-.31.31-.51.73-.57 1.17-3.18.12-4.24.83-4.24 2.69v6.53c0 1.88 1.09 2.59 4.35 2.69.24.83.98 1.45 1.85 1.45 1.84 0 2.64.63 3.65 1.42 1.23.97 2.76 2.17 6.24 2.17s4.98-1.21 6.19-2.18c.98-.79 1.76-1.42 3.6-1.42.5 0 .98-.2 1.34-.56.24-.25.41-.55.51-.89 3.2-.11 4.27-.81 4.27-2.69v-6.53c0-1.87-1.06-2.58-4.24-2.69ZM2 19.74c-.02-.05-.02-.23-.02-.35v-6.84c.04-.03.38-.3 2.24-.37 0 2.24.02 5.76.03 7.9-1.87-.07-2.22-.33-2.24-.33Zm4.13-7.34c3.23 0 4.05-.4 4.84-.78.92-.44 1.86-.9 4.96-.9s4.06.46 4.99.89c.86.4 1.67.78 4.89.78v2c-3.67 0-4.72-.49-5.74-.97-.81-.38-1.5-.71-4.14-.71s-3.31.32-4.09.7c-1 .48-2.03.98-5.71.98v-2Zm19.69 6.84c-1.93 0-2.73.45-3.74 1.01-1.25.7-2.66 1.49-6.05 1.49s-4.83-.79-6.1-1.48c-1.04-.57-1.86-1.01-3.79-1.01v-2c2.44 0 3.62.64 4.75 1.26 1.16.64 2.26 1.24 5.14 1.24s3.94-.6 5.07-1.23c1.11-.62 2.26-1.26 4.72-1.26v2Zm1.98.83c0-1.11 0-2.6-.01-4.09 0-1.37 0-2.73-.01-3.81 1.83.07 2.18.33 2.19.33.02.05.02.24.02.36v6.85c-.04.03-.38.29-2.19.37Z"/></symbol><symbol id="s40" viewBox="0 0 40 40"><path d="M34.68 12.68c-.12-1.22-1.1-2.17-2.29-2.17-3.87 0-4.8-.94-5.89-2.04-1.16-1.17-2.48-2.49-6.55-2.49s-5.37 1.33-6.5 2.5c-1.05 1.09-1.96 2.03-5.83 2.03-.59 0-1.16.24-1.59.67-.4.4-.64.94-.7 1.51-4.04.11-5.33.94-5.33 3.24v8.21c0 2.32 1.3 3.15 5.45 3.26.26 1.04 1.16 1.82 2.23 1.82 2.36 0 3.38.8 4.67 1.82 1.61 1.27 3.44 2.71 7.77 2.71s6.13-1.44 7.7-2.71c1.26-1.01 2.25-1.81 4.61-1.81.6 0 1.16-.24 1.59-.67.31-.32.53-.72.63-1.15 4.06-.11 5.34-.94 5.34-3.25v-8.21c0-2.31-1.28-3.14-5.33-3.25ZM2.29 24.64c-.03-.07-.03-.32-.03-.49v-8.21c0-.17 0-.42.03-.48.04-.05.44-.43 3.04-.52 0 2.87.02 7.5.04 10.21-2.63-.09-3.04-.47-3.07-.51Zm4.96-9.09c4.18 0 5.25-.51 6.28-1 1.16-.55 2.36-1.11 6.28-1.11s5.14.56 6.33 1.11c1.07.49 2.17 1 6.35 1v2.25c-4.67 0-6-.61-7.29-1.21-1.01-.46-1.96-.9-5.39-.9s-4.34.44-5.32.9c-1.26.6-2.56 1.21-7.25 1.21v-2.25Zm25.26 8.21c-2.53 0-3.62.6-4.88 1.29-1.58.87-3.37 1.85-7.67 1.85s-6.13-.98-7.74-1.84c-1.3-.7-2.42-1.3-4.94-1.3v-2.25c3.09 0 4.57.8 6.01 1.56 1.51.81 2.94 1.58 6.67 1.58s5.12-.76 6.59-1.57c1.41-.77 2.86-1.57 5.96-1.57zm5.24.38c0 .17 0 .43-.03.49-.04.05-.43.42-2.99.51 0-1.54-.01-3.7-.02-5.81 0-1.6 0-3.16-.01-4.4 2.58.09 2.98.46 3.01.5.03.07.03.33.03.5v8.21Z"/></symbol><symbol id="s48" viewBox="0 0 48 48"><path d="M41.6 15.4c-.1-1.46-1.25-2.62-2.66-2.62-4.71 0-5.9-1.21-7.17-2.48-1.38-1.39-2.95-2.97-7.82-2.97s-6.41 1.58-7.76 2.98c-1.28 1.33-2.39 2.47-7.1 2.47-.69 0-1.34.28-1.84.77s-.77 1.15-.82 1.84C1.55 15.53 0 16.5 0 19.22v9.9c0 2.74 1.56 3.7 6.54 3.82.27 1.25 1.34 2.19 2.61 2.19 2.89 0 4.13.98 5.7 2.22 1.93 1.52 4.11 3.24 9.29 3.24s7.33-1.72 9.22-3.25c1.53-1.23 2.74-2.21 5.63-2.21.69 0 1.34-.28 1.84-.78.38-.39.64-.88.76-1.41 4.88-.13 6.41-1.1 6.41-3.82v-9.9c0-2.72-1.54-3.69-6.41-3.82ZM2.69 29.86c-.17-.1-.18-.11-.18-.75v-9.9c0-.64.01-.65.18-.75.4-.23 1.38-.5 3.73-.57.01 3.48.03 9.24.05 12.53-2.39-.07-3.37-.34-3.77-.57Zm5.95-10.69c5.1 0 6.42-.62 7.69-1.21 1.39-.65 2.84-1.33 7.58-1.33s6.21.67 7.64 1.33c1.31.6 2.67 1.22 7.76 1.22v2.5c-5.64 0-7.25-.73-8.8-1.44-1.24-.57-2.41-1.1-6.6-1.1s-5.32.53-6.52 1.09c-1.52.71-3.09 1.45-8.75 1.45v-2.5Zm30.68 9.08c-3.1 0-4.44.73-5.99 1.57-1.91 1.04-4.07 2.21-9.26 2.21s-7.4-1.17-9.34-2.21c-1.59-.85-2.97-1.58-6.06-1.58v-2.5c3.72 0 5.51.95 7.24 1.87 1.77.94 3.6 1.91 8.17 1.91s6.26-.93 8.07-1.91c1.7-.92 3.45-1.88 7.19-1.88v2.5Zm6.19.87c0 .64-.02.65-.18.75-.39.23-1.35.49-3.66.56 0-1.71-.01-4.08-.02-6.48 0-2.19-.01-4.38-.02-6.05 2.34.07 3.31.34 3.7.57.16.09.18.1.18.75z"/></symbol><symbol id="s64" viewBox="0 0 64 64"><path d="M55.42 20.5v-.05c0-1.91-1.49-3.46-3.29-3.46-6.46 0-8.12-1.67-9.88-3.44-1.82-1.83-3.88-3.91-10.3-3.91s-8.45 2.08-10.23 3.92c-1.7 1.76-3.31 3.42-9.78 3.42-.84 0-1.64.34-2.26.95-.66.66-1.04 1.59-1.04 2.53v.03C2 20.64.02 21.82.02 25.34v13.32c0 3.55 2.01 4.72 8.76 4.84.25 1.66 1.61 2.94 3.24 2.94 3.99 0 5.79 1.41 7.86 3.05 2.56 2.01 5.45 4.29 12.32 4.29s9.71-2.29 12.22-4.3c2.11-1.7 3.78-3.04 7.77-3.04.85 0 1.65-.34 2.26-.96.53-.53.87-1.24.98-1.98 6.62-.13 8.59-1.31 8.59-4.84V25.34c0-3.54-1.97-4.71-8.6-4.84M2.77 38.67V25.35c0-1.05 0-1.97 5.88-2.09.01 4.75.04 13.04.06 17.5-5.94-.12-5.94-1.04-5.94-2.09m8.46-13.33c7.01 0 8.83-.85 10.59-1.66 1.86-.86 3.79-1.76 10.16-1.76s8.33.89 10.24 1.76c1.81.82 3.69 1.67 10.69 1.67v2.75c-7.59 0-9.74-.97-11.82-1.91-1.72-.78-3.34-1.51-9.11-1.51s-7.34.73-9 1.5c-2.03.94-4.13 1.92-11.75 1.92v-2.75Zm41.7 12.1c-4.3 0-6.15 1-8.3 2.16-2.56 1.38-5.45 2.94-12.43 2.94s-9.93-1.56-12.54-2.93c-2.2-1.16-4.1-2.16-8.4-2.16V34.7c4.98 0 7.37 1.26 9.68 2.48 2.44 1.29 4.97 2.62 11.26 2.62s8.74-1.33 11.12-2.61c2.27-1.22 4.61-2.49 9.61-2.49v2.75Zm8.34 1.23c0 1.05 0 1.96-5.79 2.09 0-2.32-.02-5.67-.03-9.04 0-3.09-.02-6.18-.02-8.47 5.83.12 5.84 1.04 5.84 2.09v13.32Z"/></symbol><use style="display: var(--s16, none)" href="#s16"/><use style="display: var(--s24, none)" href="#s24"/><use style="display: var(--s32, none)" href="#s32"/><use style="display: var(--s40, none)" href="#s40"/><use style="display: var(--s48, none)" href="#s48"/><use style="display: var(--s64, none)" href="#s64"/></symbol></defs><style>@media (max-width: 23.98px) {g{--s16:block;}}@media (min-width: 24px) and (max-width: 31.98px) {g{--s24:block;}}@media (min-width: 32px) and (max-width: 39.98px) {g{--s32:block;}}@media (min-width: 40px) and (max-width: 47.98px) {g{--s40:block;}}@media (min-width: 48px) and (max-width: 63.98px) {g{--s48:block;}}@media (min-width: 64px) {g{--s64:block;}}</style><g><use href="#i-maskface-solid"/></g></svg>