<svg xmlns="http://www.w3.org/2000/svg"><defs><symbol id="i-medicalpersonneldoctor"><symbol id="s16" viewBox="0 0 16 16"><path d="M7.96 7.5c2.07 0 3.75-1.68 3.75-3.75S10.03 0 7.96 0 4.21 1.68 4.21 3.75 5.89 7.5 7.96 7.5m0-6c1.24 0 2.25 1.01 2.25 2.25S9.2 6 7.96 6 5.71 4.99 5.71 3.75 6.72 1.5 7.96 1.5m3.79 7.13h-7.5A4.26 4.26 0 0 0 0 12.88V16h1.5v-3.12c0-1.24.84-2.29 1.97-2.62v1.8a2.04 2.04 0 1 0 2.79 1.9c0-.86-.54-1.6-1.29-1.9v-1.93h.58l1.66 3.22V16h1.5v-2.65l1.72-3.23h1.31c1.52 0 2.75 1.23 2.75 2.75v3.12h1.5v-3.12a4.26 4.26 0 0 0-4.25-4.25ZM4.22 14.5c-.3 0-.54-.24-.54-.54s.24-.54.54-.54.54.24.54.54-.24.54-.54.54m3.76-2.95-.74-1.42h1.5zm4.29 1.09h1.06v1.25h-1.06v1.1h-1.25v-1.1H9.88v-1.25h1.14v-1.1h1.25z"/></symbol><symbol id="s24" viewBox="0 0 24 24"><path d="M12.06 10.85c2.97 0 5.39-2.43 5.39-5.43S15.04 0 12.06 0s-5.4 2.43-5.4 5.42 2.42 5.43 5.4 5.43m0-9.1c2.01 0 3.65 1.65 3.65 3.67S14.07 9.1 12.06 9.1 8.41 7.45 8.41 5.42s1.64-3.67 3.65-3.67m5.61 11.15H6.16c-3.44 0-6.24 2.82-6.24 6.28V24h1.74v-4.82c0-2.29 1.7-4.16 3.89-4.47v3.5a2.83 2.83 0 0 0-1.95 2.68c0 1.56 1.27 2.84 2.82 2.84s2.82-1.27 2.82-2.84c0-1.26-.82-2.31-1.95-2.68v-3.56h1.2l2.7 5.27v4.09h1.74v-4.08l2.8-5.27h1.94c2.48 0 4.5 2.03 4.5 4.53v4.82h1.74v-4.82c0-3.46-2.8-6.28-6.25-6.28ZM6.42 21.98c-.6 0-1.08-.49-1.08-1.09s.48-1.09 1.08-1.09 1.08.49 1.08 1.09-.48 1.09-1.08 1.09m5.66-4.16-1.63-3.17h3.31zm6.52 1.04h1.55v2H18.6v1.61h-1.99v-1.61h-1.66v-2h1.66v-1.61h1.99z"/></symbol><symbol id="s32" viewBox="0 0 32 32"><path d="M16.03 14.13c3.89 0 7.06-3.17 7.06-7.06S19.93 0 16.03 0 8.97 3.17 8.97 7.06s3.17 7.06 7.06 7.06Zm0-12.13c2.79 0 5.06 2.27 5.06 5.06s-2.27 5.06-5.06 5.06-5.06-2.27-5.06-5.06S13.24 2 16.03 2m7.71 15.11H8.23c-4.55 0-8.25 3.7-8.25 8.25v6.65h2v-6.65c0-3.23 2.46-5.89 5.6-6.22v5.04c-1.51.44-2.63 1.82-2.63 3.47 0 2 1.63 3.63 3.63 3.63s3.63-1.63 3.63-3.63a3.62 3.62 0 0 0-2.63-3.47V19.1h1.89l3.71 7.2V32h2v-5.69l3.84-7.2h2.72c3.44 0 6.24 2.8 6.24 6.25v6.65h2v-6.65c0-4.55-3.7-8.25-8.24-8.25M10.2 27.66a1.63 1.63 0 0 1-3.26 0c0-.79.57-1.45 1.31-1.6h.64c.75.15 1.31.81 1.31 1.6m5.99-3.75-2.48-4.8h5.04zm8.7 1.11h2.18v2.5h-2.18v2.26h-2.5v-2.26h-2.33v-2.5h2.33v-2.26h2.5z"/></symbol><symbol id="s40" viewBox="0 0 40 40"><path d="M20.04 17.42c4.8 0 8.7-3.91 8.7-8.71S24.84 0 20.04 0s-8.7 3.91-8.7 8.71 3.9 8.71 8.7 8.71m0-15.17c3.56 0 6.45 2.9 6.45 6.46s-2.89 6.46-6.45 6.46-6.45-2.9-6.45-6.46 2.89-6.46 6.45-6.46m9.71 19.02H10.23C4.58 21.27 0 25.87 0 31.52V40h2.25v-8.48c0-4.18 3.22-7.61 7.31-7.96v6.59c-1.9.5-3.31 2.22-3.31 4.27 0 2.45 1.99 4.44 4.43 4.44s4.43-1.99 4.43-4.44c0-2.06-1.41-3.77-3.31-4.27v-6.62h2.6l4.72 9.16v7.32h2.25V32.7l4.88-9.16h3.5c4.41 0 7.99 3.59 7.99 8v8.48h2.25v-8.48c0-5.65-4.59-10.25-10.24-10.25ZM12.86 34.42c0 1.21-.98 2.19-2.19 2.19s-2.18-.98-2.18-2.19.98-2.19 2.18-2.19 2.19.98 2.19 2.19m7.4-4.43-3.33-6.46h6.78l-3.44 6.46Zm10.88 1.18h2.81v3h-2.81v2.91h-3v-2.91h-3.01v-3h3.01v-2.91h3z"/></symbol><symbol id="s48" viewBox="0 0 48 48"><path d="M24.05 20.7c5.7 0 10.33-4.64 10.33-10.35S29.75 0 24.05 0 13.72 4.64 13.72 10.35 18.35 20.7 24.05 20.7m0-18.19c4.32 0 7.83 3.52 7.83 7.85s-3.51 7.85-7.83 7.85-7.84-3.52-7.84-7.85 3.51-7.85 7.84-7.85m11.7 22.96H12.23c-6.75 0-12.24 5.5-12.24 12.26v10.28h2.5V37.73c0-5.14 3.99-9.35 9.02-9.72v8.14c-2.28.56-3.99 2.62-3.99 5.08 0 2.89 2.35 5.24 5.24 5.24S18 44.12 18 41.23c0-2.46-1.7-4.51-3.99-5.08v-8.18h3.3l5.74 11.13v8.91h2.5v-8.9l5.93-11.14h4.29c5.37 0 9.74 4.38 9.74 9.76v10.28h2.5V37.73c0-6.76-5.49-12.26-12.24-12.26ZM15.5 41.23c0 1.51-1.23 2.74-2.74 2.74s-2.74-1.23-2.74-2.74 1.23-2.74 2.74-2.74 2.74 1.23 2.74 2.74m8.81-5.12-4.19-8.13h8.52zm13.05 1.25h3.45v3.5h-3.45v3.57h-3.49v-3.57h-3.68v-3.5h3.68v-3.57h3.49z"/></symbol><symbol id="s64" viewBox="0 0 64 64"><path d="M32.06 27.01c7.44 0 13.5-6.06 13.5-13.5S39.51 0 32.06 0s-13.5 6.06-13.5 13.5S24.61 27 32.06 27Zm0-24.26c5.93 0 10.75 4.82 10.75 10.75s-4.82 10.75-10.75 10.75-10.75-4.82-10.75-10.75S26.13 2.75 32.06 2.75M47.81 33.7H16.14C7.22 33.7-.03 40.96-.03 49.88V64h2.75V49.88c0-7.18 5.67-13.04 12.76-13.39v11.49c-3.06.64-5.37 3.36-5.37 6.61 0 3.72 3.02 6.75 6.74 6.75s6.74-3.03 6.74-6.75c0-3.25-2.31-5.97-5.37-6.61V36.46h4.94L31 51.66v12.35h2.75V51.67l8.11-15.21h5.95c7.4 0 13.42 6.02 13.42 13.43v14.12h2.75V49.89c0-8.92-7.25-16.18-16.16-16.18ZM20.85 54.58c0 2.2-1.79 4-4 4s-3.99-1.79-3.99-4 1.79-4 3.99-4 4 1.79 4 4m11.55-6.22-6.14-11.9h12.49zm17.72.88h4.5v5h-4.5v4.66h-5v-4.66h-4.81v-5h4.81v-4.66h5z"/></symbol><use style="display: var(--s16, none)" href="#s16"/><use style="display: var(--s24, none)" href="#s24"/><use style="display: var(--s32, none)" href="#s32"/><use style="display: var(--s40, none)" href="#s40"/><use style="display: var(--s48, none)" href="#s48"/><use style="display: var(--s64, none)" href="#s64"/></symbol></defs><style>@media (max-width: 23.98px) {g{--s16:block;}}@media (min-width: 24px) and (max-width: 31.98px) {g{--s24:block;}}@media (min-width: 32px) and (max-width: 39.98px) {g{--s32:block;}}@media (min-width: 40px) and (max-width: 47.98px) {g{--s40:block;}}@media (min-width: 48px) and (max-width: 63.98px) {g{--s48:block;}}@media (min-width: 64px) {g{--s64:block;}}</style><g><use href="#i-medicalpersonneldoctor"/></g></svg>