<svg xmlns="http://www.w3.org/2000/svg"><defs><symbol id="i-medicalpersonnel"><symbol id="s16" viewBox="0 0 16 16"><path d="M6.3 6.14c1.69 0 3.07-1.38 3.07-3.08S7.99 0 6.3 0 3.23 1.38 3.23 3.08 4.61 6.16 6.3 6.16Zm0-4.64c.87 0 1.57.71 1.57 1.57s-.7 1.57-1.57 1.57-1.57-.71-1.57-1.57.7-1.57 1.57-1.57M3.43 8.18c-1.08 0-1.96.88-1.96 1.96v2.92h-1.5v-2.92c0-1.91 1.55-3.46 3.46-3.46h4.54v1.5zm-.2 1.96h1.5v2.92h-1.5zm7.43 2.91H9.52V11.8h1.14v-1.1h1.25v1.1h1.06v1.25h-1.06v1.1h-1.25zm4.06-4.19h-1.29V8c0-.55-.45-1-1-1h-2.01c-.55 0-1 .45-1 1v.86H7.78c-.69 0-1.25.56-1.25 1.25v4.64c0 .69.56 1.25 1.25 1.25h6.94c.69 0 1.25-.56 1.25-1.25v-4.64c0-.69-.56-1.25-1.25-1.25m-3.8-.36h1.01v.36h-1.01zm3.55 5.99H8.03v-4.14h6.44z"/></symbol><symbol id="s24" viewBox="0 0 24 24"><path d="M9.39 8.88c2.45 0 4.44-1.99 4.44-4.44S11.84 0 9.39 0 4.95 1.99 4.95 4.44s1.99 4.44 4.44 4.44m0-7.14c1.48 0 2.69 1.21 2.69 2.69s-1.21 2.69-2.69 2.69S6.7 5.91 6.7 4.43s1.21-2.69 2.69-2.69M4.98 12c-1.81 0-3.28 1.47-3.28 3.29v4.48H-.05v-4.48c0-2.78 2.26-5.04 5.03-5.04h6.96V12zm-.03 3.28H6.7v4.48H4.95zm11.1 4.51h-1.7v-2h1.7v-1.65h2v1.65h1.59v2h-1.59v1.65h-2zm6.26-6.2h-2.26V12c0-.69-.56-1.26-1.26-1.26h-3.08c-.69 0-1.26.56-1.26 1.26v1.59h-2.79c-.9 0-1.64.74-1.64 1.64v7.11c0 .91.74 1.64 1.64 1.64H22.3c.9 0 1.64-.74 1.64-1.64v-7.11c0-.91-.74-1.64-1.64-1.64Zm-6.1-1.1h2.1v1.1h-2.1zm5.99 9.75H11.77v-6.9H22.2z"/></symbol><symbol id="s32" viewBox="0 0 32 32"><path d="M12.53 11.61a5.804 5.804 0 0 0 0-11.61c-3.2 0-5.8 2.61-5.8 5.81s2.6 5.81 5.8 5.81Zm0-9.62c2.1 0 3.8 1.71 3.8 3.81s-1.71 3.81-3.8 3.81-3.8-1.71-3.8-3.81 1.71-3.81 3.8-3.81m3.44 13.83H6.59a4.61 4.61 0 0 0-4.6 4.61v6.04h-2v-6.04c0-3.65 2.96-6.61 6.6-6.61h9.39v2Zm-9.24 4.61h2v6.04h-2zm17.5 3.35h2.11v2.75h-2.11v2.2h-2.75v-2.2h-2.27v-2.75h2.27v-2.19h2.75zm5.72-5.45h-3.23v-2.32c0-.84-.68-1.52-1.52-1.52h-4.15c-.84 0-1.52.68-1.52 1.52v2.32h-3.94c-1.12 0-2.03.91-2.03 2.04v9.59c0 1.12.91 2.04 2.03 2.04h14.35c1.12 0 2.03-.91 2.03-2.04v-9.59c0-1.12-.91-2.04-2.03-2.04Zm-8.41-1.84h3.18v1.84h-3.18zm8.41 13.5-14.38-.04.04-9.63h14.35s.04.02.04.04l-.04 9.63Z"/></symbol><symbol id="s40" viewBox="0 0 40 40"><path d="M15.64 14.34c3.95 0 7.17-3.22 7.17-7.18S19.59 0 15.64 0 8.47 3.22 8.47 7.18s3.22 7.18 7.17 7.18Zm0-12.1c2.71 0 4.92 2.21 4.92 4.93s-2.21 4.93-4.92 4.93-4.92-2.21-4.92-4.93 2.21-4.93 4.92-4.93m4.33 17.4H8.16c-3.27 0-5.93 2.66-5.93 5.93v7.61H-.02v-7.61c0-4.51 3.67-8.18 8.18-8.18h11.81zm-11.5 5.93h2.25v7.61H8.47zm21.91 4.21h2.64v3.5h-2.64v2.74h-3.5v-2.74h-2.84v-3.5h2.84v-2.74h3.5zm7.18-6.72h-4.19V20c0-.98-.8-1.78-1.77-1.78h-5.22c-.98 0-1.77.8-1.77 1.78v3.06h-5.09c-1.34 0-2.43 1.09-2.43 2.43v12.07c0 1.34 1.09 2.43 2.43 2.43h18.06c1.34 0 2.43-1.09 2.43-2.43V25.49c0-1.34-1.09-2.43-2.43-2.43Zm-10.72-2.58h4.27v2.58h-4.27zm10.89 17.08c0 .1-.08.18-.18.18H19.49a.18.18 0 0 1-.18-.18V25.49c0-.1.08-.18.18-.18h18.06c.1 0 .18.08.18.18z"/></symbol><symbol id="s48" viewBox="0 0 48 48"><path d="M18.74 17.07c4.71 0 8.53-3.83 8.53-8.55S23.45-.02 18.74-.02s-8.53 3.83-8.53 8.55 3.83 8.55 8.53 8.55Zm0-14.59c3.33 0 6.03 2.71 6.03 6.04s-2.71 6.04-6.03 6.04-6.03-2.71-6.03-6.04 2.71-6.04 6.03-6.04m5.22 20.97H9.73c-4 0-7.25 3.26-7.25 7.26v9.17h-2.5v-9.17c0-5.38 4.37-9.76 9.75-9.76h14.23zm-13.75 7.26h2.5v9.17h-2.5zm26.19 5.17h3.29v4H36.4v3.41h-4v-3.41h-3.53v-4h3.53v-3.41h4zm8.76-8.09H40V24c0-1.12-.91-2.04-2.03-2.04h-6.29c-1.12 0-2.03.91-2.03 2.04v3.79h-6.24a2.83 2.83 0 0 0-2.82 2.82v14.55c0 1.56 1.26 2.82 2.82 2.82h21.76a2.83 2.83 0 0 0 2.82-2.82V30.61c0-1.56-1.26-2.82-2.82-2.82Zm-13.02-3.33h5.36v3.32h-5.36zm13.34 20.7c0 .18-.14.32-.32.32H23.4c-.18 0-.32-.14-.32-.32V30.61c0-.18.14-.32.32-.32h21.76c.18 0 .32.14.32.32z"/></symbol><symbol id="s64" viewBox="0 0 64 64"><path d="M24.92 22.38c6.17 0 11.18-5.02 11.18-11.18S31.09.02 24.92.02 13.74 5.04 13.74 11.2s5.02 11.18 11.18 11.18m0-19.61c4.65 0 8.43 3.78 8.43 8.43s-3.78 8.43-8.43 8.43-8.43-3.78-8.43-8.43 3.78-8.43 8.43-8.43m7.03 28.19H12.79c-5.55 0-10.07 4.52-10.07 10.07v12.33H-.03V41.03c0-7.07 5.75-12.82 12.81-12.82h19.16v2.75ZM13.74 41.03h2.75v12.33h-2.75zm34.51 7.47h4.87V53h-4.87v5.03h-4.5V53h-5.19v-4.5h5.19v-5.03h4.5zm12.24-11.02h-7.25v-5.41c0-1.34-1.09-2.43-2.43-2.43h-8.47c-1.34 0-2.43 1.09-2.43 2.43v5.41H31.2c-1.92 0-3.49 1.56-3.49 3.49v19.57c0 1.92 1.56 3.49 3.49 3.49h29.29c1.92 0 3.49-1.56 3.49-3.49V40.97c0-1.92-1.56-3.49-3.49-3.49m-17.84-5.09h7.83v5.09h-7.83zm18.57 28.14c0 .41-.33.74-.74.74H31.19c-.41 0-.74-.33-.74-.74V40.96c0-.41.33-.74.74-.74h29.29c.41 0 .74.33.74.74z"/></symbol><use style="display: var(--s16, none)" href="#s16"/><use style="display: var(--s24, none)" href="#s24"/><use style="display: var(--s32, none)" href="#s32"/><use style="display: var(--s40, none)" href="#s40"/><use style="display: var(--s48, none)" href="#s48"/><use style="display: var(--s64, none)" href="#s64"/></symbol></defs><style>@media (max-width: 23.98px) {g{--s16:block;}}@media (min-width: 24px) and (max-width: 31.98px) {g{--s24:block;}}@media (min-width: 32px) and (max-width: 39.98px) {g{--s32:block;}}@media (min-width: 40px) and (max-width: 47.98px) {g{--s40:block;}}@media (min-width: 48px) and (max-width: 63.98px) {g{--s48:block;}}@media (min-width: 64px) {g{--s64:block;}}</style><g><use href="#i-medicalpersonnel"/></g></svg>