<svg xmlns="http://www.w3.org/2000/svg"><defs><symbol id="i-messagerecieved"><symbol id="s16" viewBox="0 0 16 16"><path d="M3.26 4.22c0-.41.34-.75.75-.75h7.87c.41 0 .75.34.75.75s-.34.75-.75.75H4.01c-.41 0-.75-.34-.75-.75M16 9.98c0 .17-.02.34-.06.5.03.21.06.42.06.64 0 2.69-2.19 4.87-4.87 4.87-1.74 0-3.25-.92-4.12-2.29L5.4 16l-2.73-3.9h-.56C.95 12.1 0 11.15 0 9.98V2.12C0 .95.95 0 2.12 0h11.76C15.05 0 16 .95 16 2.12zm-9.66 2.06c-.06-.3-.09-.6-.09-.91 0-1.11.39-2.12 1.01-2.93H4.01c-.41 0-.75-.34-.75-.75s.34-.75.75-.75h5.12c.61-.28 1.28-.44 1.99-.44 1.31 0 2.5.53 3.37 1.37V2.12c0-.34-.28-.62-.62-.62H2.12c-.34 0-.62.28-.62.62v7.86c0 .34.28.62.62.62h1.34l1.95 2.79.94-1.35Zm8.16-.92c0-1.86-1.51-3.37-3.37-3.37s-3.37 1.51-3.37 3.37 1.51 3.37 3.37 3.37 3.37-1.51 3.37-3.37m-2.57-1.64-1.26 1.9-.68-.48a.753.753 0 0 0-1.05.18.74.74 0 0 0 .18 1.04l1.94 1.37 2.12-3.18c.23-.34.13-.81-.21-1.04a.745.745 0 0 0-1.04.21"/></symbol><symbol id="s24" viewBox="0 0 24 24"><path d="M18.62 6.14c0 .48-.39.88-.88.88H5.82c-.48 0-.88-.39-.88-.88s.39-.88.88-.88h11.93c.48 0 .88.39.88.88ZM24 14.87c0 .24-.04.47-.09.69.05.36.09.72.09 1.09 0 4.06-3.3 7.35-7.36 7.35-2.65 0-4.98-1.42-6.27-3.53L8.07 24l-4.02-6.18h-1.1C1.32 17.82 0 16.5 0 14.87V2.95C0 1.33 1.32 0 2.95 0h18.1C22.68 0 24 1.32 24 2.95zm-1.75 1.77c0-3.09-2.51-5.6-5.6-5.6s-5.61 2.51-5.61 5.6 2.51 5.6 5.61 5.6 5.6-2.51 5.6-5.6m0-4.75V2.95c0-.66-.54-1.2-1.2-1.2H2.95c-.66 0-1.2.54-1.2 1.2v11.92c0 .66.54 1.2 1.2 1.2H5l3.07 4.72 1.47-2.26c-.16-.6-.26-1.24-.26-1.89 0-1.81.66-3.47 1.75-4.75H5.81c-.48 0-.88-.39-.88-.88s.39-.88.88-.88h7.4a7.33 7.33 0 0 1 9.03 1.75Zm-4.08 2.34-2.16 3.24-1.33-.93a.88.88 0 0 0-1.22.21c-.28.4-.18.94.21 1.22l2.8 1.97 3.15-4.74a.87.87 0 0 0-.24-1.21.87.87 0 0 0-1.21.24"/></symbol><symbol id="s32" viewBox="0 0 32 32"><path d="M6.66 8.1c0-.55.45-1 1-1h16.07c.55 0 1 .45 1 1s-.45 1-1 1H7.66c-.55 0-1-.45-1-1m25.35 14.01c0 5.45-4.44 9.89-9.89 9.89-3.68 0-6.9-2.03-8.6-5.02l-3.21 5.04-5.32-8.36H3.8c-2.09-.01-3.8-1.71-3.8-3.8V3.81C0 1.72 1.71.01 3.8.01h24.37c2.09 0 3.79 1.7 3.79 3.79v16.05c0 .26-.03.52-.09.77.07.48.12.98.12 1.48Zm-19.42 2.61c-.23-.83-.36-1.7-.36-2.61 0-2.46.91-4.7 2.4-6.43H7.67c-.55 0-1-.45-1-1s.45-1 1-1h9.32c1.5-.92 3.25-1.45 5.14-1.45 3.2 0 6.04 1.54 7.85 3.9V3.81c0-.99-.8-1.79-1.79-1.79H3.8c-.99 0-1.79.8-1.79 1.79v16.05c0 .99.8 1.79 1.79 1.79h2.28l4.23 6.64zM30 22.11c0-4.35-3.54-7.89-7.89-7.89s-7.89 3.54-7.89 7.89S17.76 30 22.11 30 30 26.46 30 22.11m-5.63-3.2-3.07 4.62-1.99-1.4a.994.994 0 0 0-1.39.24.994.994 0 0 0 .24 1.39l3.67 2.58 4.21-6.33a1.001 1.001 0 1 0-1.67-1.11Z"/></symbol><symbol id="s40" viewBox="0 0 40 40"><path d="M8.39 10.06c0-.62.5-1.13 1.13-1.13h20.24c.62 0 1.13.5 1.13 1.13s-.5 1.13-1.13 1.13H9.51c-.62 0-1.13-.5-1.13-1.13Zm31.62 17.65c0 6.79-5.52 12.31-12.31 12.31-4.49 0-8.42-2.43-10.57-6.04l-3.81 6.03-6.63-10.49H4.66C2.09 29.52 0 27.43 0 24.87V4.66A4.66 4.66 0 0 1 4.65.01h30.7C37.91.01 40 2.09 40 4.65v20.22c0 .36-.06.7-.14 1.04.09.59.15 1.18.15 1.8m-24 3.82c-.4-1.21-.62-2.49-.62-3.83 0-3.17 1.22-6.06 3.19-8.24H9.51c-.62 0-1.13-.5-1.13-1.13s.5-1.13 1.13-1.13H21.3c1.87-1.14 4.05-1.81 6.4-1.81 4.15 0 7.82 2.07 10.05 5.22V4.66a2.39 2.39 0 0 0-2.39-2.39H4.65a2.39 2.39 0 0 0-2.39 2.39v20.22a2.39 2.39 0 0 0 2.39 2.39h3.27l5.4 8.53 2.69-4.26Zm21.75-3.82c0-5.55-4.51-10.06-10.06-10.06s-10.06 4.51-10.06 10.06 4.51 10.06 10.06 10.06 10.06-4.51 10.06-10.06m-7.12-3.96-3.94 5.93-2.61-1.84c-.51-.36-1.21-.24-1.57.27s-.24 1.21.27 1.57l4.5 3.17L32.51 25c.34-.52.2-1.22-.31-1.56-.52-.35-1.22-.21-1.56.31"/></symbol><symbol id="s48" viewBox="0 0 48 48"><path d="M10.1 12c0-.69.56-1.25 1.25-1.25h24.38a1.25 1.25 0 0 1 0 2.5H11.35c-.69 0-1.25-.56-1.25-1.25m37.91 21.27C48.01 41.39 41.4 48 33.28 48c-5.57 0-10.43-3.11-12.93-7.68l-4.8 7.66-7.94-12.66H5.5c-3.03 0-5.5-2.46-5.5-5.49V5.49C0 2.46 2.47 0 5.49 0h36.98c3.03 0 5.49 2.46 5.49 5.49v24.35c0 .41-.06.81-.15 1.19.11.73.19 1.48.19 2.25Zm-28.84 4.22a14.7 14.7 0 0 1-.62-4.22c0-3.89 1.53-7.42 4-10.06h-11.2a1.25 1.25 0 0 1 0-2.5h14.27c2.23-1.37 4.85-2.17 7.65-2.17 5.06 0 9.54 2.57 12.19 6.47V5.49c0-1.65-1.34-2.99-2.99-2.99H5.49C3.84 2.5 2.5 3.84 2.5 5.49v24.35c0 1.65 1.34 2.99 2.99 2.99h3.5l6.55 10.45 3.62-5.78Zm26.34-4.22c0-6.74-5.49-12.23-12.23-12.23s-12.23 5.49-12.23 12.23S26.54 45.5 33.28 45.5s12.23-5.48 12.23-12.23m-8.6-4.7-4.81 7.24-3.24-2.28a1.249 1.249 0 0 0-1.44 2.04l5.34 3.75 6.23-9.37c.38-.58.23-1.35-.35-1.73s-1.35-.23-1.73.35"/></symbol><symbol id="s64" viewBox="0 0 64 64"><path d="M13.61 15.87c0-.76.62-1.38 1.38-1.38h32.83c.76 0 1.38.62 1.38 1.38s-.62 1.38-1.38 1.38H14.99c-.76 0-1.38-.62-1.38-1.38m50.4 28.44c0 10.87-8.84 19.71-19.71 19.71-7.5 0-14.03-4.21-17.36-10.39l-6.42 10.39L9.99 46.99h-2.9c-3.9-.01-7.08-3.19-7.08-7.1V7.1C.01 3.19 3.19.01 7.1.01h49.81C60.82.01 64 3.19 64 7.09v32.8c0 .55-.09 1.08-.21 1.6.13.92.22 1.85.22 2.81Zm-38.39 6.22a19.7 19.7 0 0 1-1.02-6.22c0-5.29 2.11-10.09 5.51-13.64H14.99c-.76 0-1.38-.62-1.38-1.38s.62-1.38 1.38-1.38h18.39c3.13-2.09 6.89-3.32 10.93-3.32 7.21 0 13.5 3.9 16.94 9.69V7.1c0-2.39-1.94-4.33-4.33-4.33H7.1c-2.39 0-4.33 1.94-4.33 4.33v32.8c0 2.39 1.94 4.33 4.33 4.33h4.43l8.99 14.55 5.1-8.24Zm35.64-6.22c0-9.35-7.61-16.96-16.96-16.96s-16.96 7.61-16.96 16.96 7.61 16.96 16.96 16.96 16.96-7.61 16.96-16.96m-11.74-6.22-6.73 10.12-4.68-3.29a1.378 1.378 0 0 0-1.59 2.25l6.99 4.91 8.29-12.47c.42-.63.25-1.49-.38-1.91s-1.49-.25-1.91.38Z"/></symbol><use style="display: var(--s16, none)" href="#s16"/><use style="display: var(--s24, none)" href="#s24"/><use style="display: var(--s32, none)" href="#s32"/><use style="display: var(--s40, none)" href="#s40"/><use style="display: var(--s48, none)" href="#s48"/><use style="display: var(--s64, none)" href="#s64"/></symbol></defs><style>@media (max-width: 23.98px) {g{--s16:block;}}@media (min-width: 24px) and (max-width: 31.98px) {g{--s24:block;}}@media (min-width: 32px) and (max-width: 39.98px) {g{--s32:block;}}@media (min-width: 40px) and (max-width: 47.98px) {g{--s40:block;}}@media (min-width: 48px) and (max-width: 63.98px) {g{--s48:block;}}@media (min-width: 64px) {g{--s64:block;}}</style><g><use href="#i-messagerecieved"/></g></svg>