<svg xmlns="http://www.w3.org/2000/svg"><defs><symbol id="i-messagerecieved-solid"><symbol id="s16" viewBox="0 0 16 16"><path d="M15.85 10.8a4.13 4.13 0 0 0-1.51-2.19c-.11-.08-.22-.15-.34-.22-.1-.06-.21-.12-.32-.17-.1-.05-.2-.1-.31-.14-.14-.06-.29-.1-.44-.14-.09-.02-.17-.05-.26-.07-.25-.05-.5-.08-.76-.08-2.26 0-4.1 1.84-4.1 4.1 0 .2.03.39.06.58.29 1.98 1.98 3.51 4.04 3.51 2.26 0 4.1-1.84 4.1-4.1 0-.38-.07-.75-.17-1.1Zm-1.9.3-2.1 3.17-1.93-1.36a.753.753 0 1 1 .87-1.23l.67.47 1.25-1.88c.23-.35.69-.44 1.04-.21.34.23.44.7.21 1.04ZM4.02 8.19c-.41 0-.75-.34-.75-.75s.34-.75.75-.75h5.37c.11 0 .21.03.31.07.68-.3 1.43-.46 2.22-.46 1.62 0 3.07.69 4.09 1.79V2.12C16.01.95 15.06 0 13.89 0H2.13C.97 0 .02.95.02 2.12v7.87c0 1.17.95 2.12 2.12 2.12h.56L5.43 16l1.34-1.92c-.28-.67-.44-1.41-.44-2.18 0-1.42.54-2.72 1.41-3.71H4.03Zm0-4.72h7.87c.41 0 .75.34.75.75s-.34.75-.75.75H4.02c-.41 0-.75-.34-.75-.75s.34-.75.75-.75"/></symbol><symbol id="s24" viewBox="0 0 24 24"><path d="M21.07.01H2.97C1.34.01.02 1.34.02 2.96v11.91c0 1.63 1.32 2.95 2.95 2.95h1.11L8.1 24l1.98-3.04a7 7 0 0 1-.32-.8c-.09-.26-.16-.52-.22-.78 0-.02-.01-.05-.02-.07-.05-.24-.09-.49-.12-.74 0-.04-.02-.09-.02-.13-.03-.29-.05-.59-.05-.88 0-.28.01-.55.04-.82.01-.13.04-.26.06-.4.02-.13.03-.27.06-.4.04-.18.08-.35.13-.53.02-.08.04-.16.06-.23.06-.21.14-.41.21-.6.02-.04.03-.08.05-.12.09-.22.19-.43.3-.65 0-.02.01-.03.02-.05.12-.22.25-.44.38-.65.28-.43.59-.83.95-1.2H5.84c-.48 0-.88-.39-.88-.87s.39-.87.88-.87h8.15c.26-.13.53-.24.81-.34.01 0 .03-.01.04-.02.25-.09.51-.16.77-.23.04 0 .08-.02.12-.03.24-.05.49-.1.73-.13.06 0 .11-.02.17-.03.3-.03.6-.05.91-.05s.61.02.91.05c.09.01.18.03.27.04.21.03.42.07.62.11.1.02.19.05.29.07.2.05.39.11.59.18.09.03.17.06.26.09.21.08.41.17.61.26l.18.09c.24.12.48.26.7.4.01 0 .03.02.04.03.77.5 1.45 1.13 2.01 1.85V2.96c0-1.62-1.33-2.95-2.95-2.95m-3.31 7.01H5.83c-.48 0-.88-.39-.88-.87s.39-.87.88-.87h11.93c.48 0 .88.39.88.87s-.39.87-.88.87m-.22 4.06c-3.57 0-6.47 2.9-6.47 6.47s2.9 6.47 6.47 6.47 6.47-2.9 6.47-6.47-2.9-6.47-6.47-6.47m3.28 4.77-3.51 5.27-3.07-2.16a.87.87 0 0 1-.21-1.22c.28-.39.82-.49 1.22-.21l1.6 1.13 2.51-3.77a.871.871 0 1 1 1.45.97Z"/></symbol><symbol id="s32" viewBox="0 0 32 32"><path d="M15.24 15.66H7.68c-.55 0-1-.45-1-1s.45-1 1-1h10.11c1.58-.9 3.41-1.42 5.36-1.42 3.65 0 6.88 1.81 8.85 4.57V3.8A3.82 3.82 0 0 0 28.19 0H3.81C1.72 0 .02 1.71.02 3.8v16.05c0 2.09 1.7 3.79 3.8 3.79h.94L10.09 32l3.01-4.72a10.84 10.84 0 0 1 2.15-11.62ZM7.67 7.09h16.07c.55 0 1 .45 1 1s-.45 1-1 1H7.67c-.55 0-1-.45-1-1s.45-1 1-1m15.47 7.15c-4.9 0-8.88 3.98-8.88 8.88S18.24 32 23.14 32s8.88-3.98 8.88-8.88-3.98-8.88-8.88-8.88m4.26 6.5-4.62 6.94-3.98-2.8a.996.996 0 0 1-.24-1.39c.32-.45.94-.56 1.39-.24l2.3 1.62 3.48-5.23a1.001 1.001 0 1 1 1.67 1.11Z"/></symbol><symbol id="s40" viewBox="0 0 40 40"><path d="M35.37-.05H4.66C2.1-.05.02 2.03.02 4.59V24.8c0 2.56 2.08 4.64 4.65 4.64H6.2l6.64 10.49 3.72-5.87a13.3 13.3 0 0 1-1.08-5.25c0-3.67 1.48-6.99 3.88-9.41H9.54c-.62 0-1.13-.5-1.13-1.13s.5-1.13 1.13-1.13h12.78c1.94-1.1 4.18-1.73 6.56-1.73 4.65 0 8.75 2.38 11.15 5.98V4.59a4.667 4.667 0 0 0-4.66-4.64m-5.6 11.17H9.53c-.62 0-1.13-.5-1.13-1.13s.5-1.13 1.13-1.13h20.24c.62 0 1.13.5 1.13 1.13s-.5 1.13-1.13 1.13m-.9 6.55c-6.15 0-11.15 5-11.15 11.14s5 11.14 11.15 11.14 11.15-5 11.15-11.14-5-11.14-11.15-11.14m5.19 8.11-5.67 8.52-4.85-3.41c-.51-.36-.63-1.06-.27-1.57s1.06-.63 1.57-.27l2.96 2.08 4.39-6.6c.34-.52 1.04-.66 1.56-.31.52.34.66 1.04.31 1.56"/></symbol><symbol id="s48" viewBox="0 0 48 48"><path d="M23.38 23.21H11.37a1.25 1.25 0 0 1 0-2.5H26.7c2.33-1.33 5.01-2.1 7.88-2.1 5.63 0 10.58 2.94 13.42 7.35V5.48C47.98 2.46 45.52 0 42.49 0H5.51C2.48 0 .02 2.46.02 5.48v24.34c0 3.03 2.46 5.49 5.49 5.49h2.11l7.94 12.65 4.4-7.02c-.86-1.96-1.35-4.12-1.35-6.39 0-4.44 1.83-8.45 4.77-11.35ZM11.36 10.74h24.38a1.25 1.25 0 0 1 0 2.5H11.36a1.25 1.25 0 0 1 0-2.5m23.21 10.37c-7.42 0-13.45 6.03-13.45 13.44s6.03 13.44 13.45 13.44 13.45-6.03 13.45-13.44-6.03-13.44-13.45-13.44m6.14 9.76-6.73 10.12-5.73-4.03c-.56-.4-.7-1.18-.3-1.74s1.18-.7 1.74-.3l3.63 2.55 5.31-7.98c.38-.57 1.16-.73 1.73-.35s.73 1.16.35 1.73"/></symbol><symbol id="s64" viewBox="0 0 64 64"><path d="M30.94 30.67H15c-.76 0-1.38-.62-1.38-1.38s.62-1.38 1.38-1.38h19.42c3.27-2.08 7.13-3.3 11.28-3.3 7.84 0 14.69 4.32 18.32 10.69V7.1c0-3.91-3.18-7.09-7.09-7.09H7.11C3.2.01.02 3.19.02 7.1v32.8c0 3.91 3.18 7.08 7.09 7.08h8.4l10.53 17.03 3.21-5.19c-2.88-3.61-4.62-8.17-4.62-13.13 0-5.88 2.42-11.19 6.32-15.02ZM15 14.5h32.84c.76 0 1.38.62 1.38 1.38s-.62 1.38-1.38 1.38H15c-.76 0-1.38-.62-1.38-1.38s.62-1.38 1.38-1.38m30.7 12.87c-10.1 0-18.32 8.22-18.32 18.32S35.6 64.01 45.7 64.01s18.32-8.22 18.32-18.32S55.8 27.37 45.7 27.37m7.98 13.23-8.85 13.31-7.43-5.22c-.62-.44-.77-1.29-.33-1.92s1.29-.77 1.92-.33l5.12 3.6 7.29-10.96a1.37 1.37 0 0 1 1.91-.38c.63.42.8 1.27.38 1.91Z"/></symbol><use style="display: var(--s16, none)" href="#s16"/><use style="display: var(--s24, none)" href="#s24"/><use style="display: var(--s32, none)" href="#s32"/><use style="display: var(--s40, none)" href="#s40"/><use style="display: var(--s48, none)" href="#s48"/><use style="display: var(--s64, none)" href="#s64"/></symbol></defs><style>@media (max-width: 23.98px) {g{--s16:block;}}@media (min-width: 24px) and (max-width: 31.98px) {g{--s24:block;}}@media (min-width: 32px) and (max-width: 39.98px) {g{--s32:block;}}@media (min-width: 40px) and (max-width: 47.98px) {g{--s40:block;}}@media (min-width: 48px) and (max-width: 63.98px) {g{--s48:block;}}@media (min-width: 64px) {g{--s64:block;}}</style><g><use href="#i-messagerecieved-solid"/></g></svg>