<svg xmlns="http://www.w3.org/2000/svg"><defs><symbol id="i-messurement-solid"><symbol id="s16" viewBox="0 0 16 16"><path d="M8.38 6.56H1.25C.57 6.56 0 6 0 5.31V1.25C0 .56.57 0 1.25 0h1.74v3h1.5V0h1.5v2h1.5V0h1.5v3h1.5V0h4.45L8.37 6.56Zm4.57 6.46v-1.5H16v-1.5h-2.05v-1.5H16v-1.5h-3.05v-1.5H16V1.06L9.44 7.62v7.12c0 .69.56 1.25 1.25 1.25h4.06c.69 0 1.25-.56 1.25-1.25v-1.72z"/></symbol><symbol id="s24" viewBox="0 0 24 24"><path d="M13.27 9.51H1.63C.74 9.51 0 8.78 0 7.88V1.64C0 .74.74.01 1.63.01h1.88v2.44h1.75V0h1.77v3.69h1.75V0h1.77v2.44h1.75V0h1.77v3.7h1.75V0h6.96zm8.27 10.97v-1.75h2.47v-1.77h-3.72v-1.75h3.72v-1.77h-2.47v-1.75h2.47V9.92h-3.72V8.17h3.72V1.25l-9.5 9.5v11.63c0 .9.73 1.63 1.63 1.63h6.25c.9 0 1.63-.73 1.63-1.63v-1.89h-2.47Z"/></symbol><symbol id="s32" viewBox="0 0 32 32"><path d="M18.13 12.44H2.01c-1.1 0-2-.9-2-2V2c0-1.1.9-2 2-2h2v4.55h2V0h2.01v3.05h2V0h2.01v4.55h2V0h2.01v3.05h2V0h2.01v4.55h2V0h8.52zM27.36 28v-2h4.65v-2.01h-3.15v-2h3.15v-2.01h-4.65v-2h4.65v-2.01h-3.15v-2h3.15v-2.01h-4.65v-2h4.65V1.39L19.54 13.86 19.51 30c0 .54.21 1.04.59 1.42s.88.59 1.42.59h8.5c1.1 0 2-.9 2-2v-2h-4.65Z"/></symbol><symbol id="s40" viewBox="0 0 40 40"><path d="M23 15.33H2.39c-1.31 0-2.38-1.06-2.38-2.37V2.32A2.39 2.39 0 0 1 2.38-.06h2.13v5.57h2.25V-.06h2.25v3.57h2.25V-.06h2.25v5.57h2.25V-.06h2.25v3.57h2.25V-.06h2.25v5.57h2.25V-.06h2.25v3.57h2.25V-.06h9.12L22.99 15.33Zm11.43 20.11v-2.25h5.58v-2.25h-3.58v-2.25h3.58v-2.25h-5.58v-2.25h5.58v-2.25h-3.58v-2.25h3.58v-2.25h-5.58v-2.25h5.58v-2.25h-3.58v-2.25h3.58V1.51L24.59 16.93l-.04 20.63c0 .64.25 1.23.69 1.68s1.05.7 1.68.7h10.71c1.31 0 2.38-1.07 2.38-2.38v-2.13h-5.58Z"/></symbol><symbol id="s48" viewBox="0 0 48 48"><path d="M27.87 18.33H3.01a3.01 3.01 0 0 1-3.01-3V2.76C0 1.23 1.25 0 2.77 0h2.24v6.51h2.5V0H10v4.01h2.5V0h2.49v6.51h2.5V0h2.49v4.01h2.5V0h2.49v6.51h2.5V0h2.49v4.01h2.5V0h13.76L27.88 18.33ZM41.5 43v-2.5h6.51v-2.51H44v-2.5h4.01v-2.51H41.5v-2.5h6.51v-2.51H44v-2.5h4.01v-2.51H41.5v-2.5h6.51v-2.51H44v-2.5h4.01V1.73L29.63 20.11 29.59 45c0 .8.31 1.56.88 2.12.57.57 1.32.88 2.12.88h12.42c1.65 0 3-1.35 3-3v-2z"/></symbol><symbol id="s64" viewBox="0 0 64 64"><path d="M37.95 24.07H3.74c-2.06 0-3.73-1.68-3.73-3.73V3.4C.01 1.53 1.54 0 3.41 0h2.11v8.15h2.75V0h2.76v5.65h2.75V0h2.76v8.15h2.75V0h2.76v5.65h2.75V0h2.76v8.4h2.75V0h2.76v5.65h2.75V0h2.76v8.15h2.75V0h2.76v5.65h2.75V0h15.18zm17.9 34.46v-2.75h8.16v-2.75h-5.66v-2.75h5.66v-2.75h-8.16v-2.75h8.16v-2.75h-5.66v-2.75h5.66v-2.75h-8.16v-2.75h8.16v-2.75h-5.66v-2.75h5.66v-2.75h-8.16v-2.75h8.16v-2.75h-5.66v-2.75h5.66V1.9L39.89 26.02l-.06 34.24c0 1 .39 1.94 1.09 2.64.7.71 1.64 1.09 2.64 1.09h16.72a3.73 3.73 0 0 0 3.73-3.73v-1.74h-8.16Z"/></symbol><use style="display: var(--s16, none)" href="#s16"/><use style="display: var(--s24, none)" href="#s24"/><use style="display: var(--s32, none)" href="#s32"/><use style="display: var(--s40, none)" href="#s40"/><use style="display: var(--s48, none)" href="#s48"/><use style="display: var(--s64, none)" href="#s64"/></symbol></defs><style>@media (max-width: 23.98px) {g{--s16:block;}}@media (min-width: 24px) and (max-width: 31.98px) {g{--s24:block;}}@media (min-width: 32px) and (max-width: 39.98px) {g{--s32:block;}}@media (min-width: 40px) and (max-width: 47.98px) {g{--s40:block;}}@media (min-width: 48px) and (max-width: 63.98px) {g{--s48:block;}}@media (min-width: 64px) {g{--s64:block;}}</style><g><use href="#i-messurement-solid"/></g></svg>