<svg xmlns="http://www.w3.org/2000/svg"><defs><symbol id="i-minus-solid"><symbol id="s16" viewBox="0 0 16 16"><path d="M10.75 9.24h-5.5a1.25 1.25 0 0 1 0-2.5h5.5a1.25 1.25 0 0 1 0 2.5"/></symbol><symbol id="s24" viewBox="0 0 24 24"><path d="M16.49 13.49H7.51c-.83 0-1.5-.67-1.5-1.5s.67-1.5 1.5-1.5h8.99c.83 0 1.5.67 1.5 1.5s-.67 1.5-1.5 1.5Z"/></symbol><symbol id="s32" viewBox="0 0 32 32"><path d="M22.26 17.74H9.76c-.97 0-1.75-.78-1.75-1.75s.78-1.75 1.75-1.75h12.5c.97 0 1.75.78 1.75 1.75s-.78 1.75-1.75 1.75"/></symbol><symbol id="s40" viewBox="0 0 40 40"><path d="M27.98 21.94H12.02c-1.1 0-2-.9-2-2s.9-2 2-2h15.96c1.1 0 2 .9 2 2s-.9 2-2 2"/></symbol><symbol id="s48" viewBox="0 0 48 48"><path d="M33.78 26.24H14.26c-1.24 0-2.25-1.01-2.25-2.25s1.01-2.25 2.25-2.25h19.51c1.24 0 2.25 1.01 2.25 2.25s-1.01 2.25-2.25 2.25Z"/></symbol><symbol id="s64" viewBox="0 0 64 64"><path d="M45.5 34.49H18.51a2.5 2.5 0 0 1 0-5H45.5a2.5 2.5 0 0 1 0 5"/></symbol><use style="display: var(--s16, none)" href="#s16"/><use style="display: var(--s24, none)" href="#s24"/><use style="display: var(--s32, none)" href="#s32"/><use style="display: var(--s40, none)" href="#s40"/><use style="display: var(--s48, none)" href="#s48"/><use style="display: var(--s64, none)" href="#s64"/></symbol></defs><style>@media (max-width: 23.98px) {g{--s16:block;}}@media (min-width: 24px) and (max-width: 31.98px) {g{--s24:block;}}@media (min-width: 32px) and (max-width: 39.98px) {g{--s32:block;}}@media (min-width: 40px) and (max-width: 47.98px) {g{--s40:block;}}@media (min-width: 48px) and (max-width: 63.98px) {g{--s48:block;}}@media (min-width: 64px) {g{--s64:block;}}</style><g><use href="#i-minus-solid"/></g></svg>