<svg xmlns="http://www.w3.org/2000/svg"><defs><symbol id="i-mobileout-solid"><symbol id="s16" viewBox="0 0 16 16"><path d="M.02 14.25C.02 15.22.8 16 1.77 16h6.98c.96 0 1.75-.79 1.75-1.75v-2.82H.02zm4.49-1.5h1.5v1.5h-1.5zm4.76-2.83H.02V1.75C.02.79.8 0 1.76 0h6.98c.5 0 .94.21 1.26.55-.15.1-.3.21-.44.35-.59.6-.82 1.42-.69 2.19H3.34V8.1h5.54c-.11.62.02 1.28.38 1.82Zm6.75-4.32-3.8 3.82c-.24.24-.56.37-.88.37s-.64-.12-.88-.37a1.25 1.25 0 0 1 0-1.77l.79-.8H4.37V4.34h6.88l-.79-.79c-.49-.49-.49-1.28 0-1.77s1.28-.49 1.76 0z"/></symbol><symbol id="s24" viewBox="0 0 24 24"><path d="M15.46 15.18c.07.07.15.12.22.18v1.32H.04V2.59c0-1.45 1.18-2.62 2.63-2.62h10.39c1.3 0 2.37.95 2.58 2.19-.06.05-.12.09-.18.14-.94.93-1.11 2.33-.55 3.45H5.37v5.98h9.54c-.57 1.12-.39 2.52.55 3.46ZM.04 18.43h15.64v2.92c0 1.44-1.18 2.62-2.62 2.62H2.67c-1.45 0-2.62-1.17-2.62-2.62v-2.92Zm6.94 3.06h1.75v-1.75H6.98zM18.64 3.35c-.59-.58-1.54-.58-2.12 0s-.59 1.53 0 2.12l1.77 1.77H6.84v2.99H18.3l-1.78 1.78a1.49 1.49 0 0 0 0 2.12c.29.29.68.44 1.06.44s.77-.15 1.06-.44l5.4-5.39z"/></symbol><symbol id="s32" viewBox="0 0 32 32"><path d="M7.23 15h13.52v7.81H.06V3c0-1.66 1.35-3 3-3h14.68c1.66 0 3 1.35 3 3v5H7.23zM.06 24.82h20.69V29c0 1.66-1.35 3-3 3H3.06c-1.66 0-3-1.35-3-3zm9.34 3.66h2v-2h-2zM25 4.45c-.68-.68-1.79-.68-2.48 0s-.68 1.79 0 2.48l2.83 2.82H9.13v3.5h16.22l-2.83 2.82c-.68.68-.68 1.79 0 2.48.34.34.79.51 1.24.51s.9-.17 1.24-.51l7.06-7.05z"/></symbol><symbol id="s40" viewBox="0 0 40 40"><path d="M9.14 18.87h16.65v9.81H.04V3.32A3.38 3.38 0 0 1 3.41-.06H22.4c1.86 0 3.38 1.51 3.38 3.38v7.55H9.14zM.04 30.93h25.75v5.64c0 1.86-1.51 3.38-3.38 3.38h-19c-1.86 0-3.38-1.51-3.38-3.38v-5.64Zm11.75 4.86h2.25v-2.25h-2.25zM31.24 6.07c-.78-.78-2.05-.78-2.83 0s-.78 2.05 0 2.83l3.97 3.97H11.07v4h21.31l-3.97 3.97a2.004 2.004 0 0 0 1.41 3.42c.51 0 1.02-.2 1.41-.59l8.8-8.8-8.8-8.8Z"/></symbol><symbol id="s48" viewBox="0 0 48 48"><path d="M11.97 21.73h18.89v14.02H.03V3.76A3.76 3.76 0 0 1 3.78 0h23.33c2.07 0 3.75 1.68 3.75 3.75v8.97H11.97v9ZM.03 38.24h30.83v6.01c0 2.07-1.68 3.75-3.75 3.75H3.78C1.71 48 .03 46.32.03 44.25zm14.16 5.37h2.5V40.9h-2.5zM37.77 6.97c-.88-.88-2.3-.88-3.18 0s-.88 2.3 0 3.18l4.82 4.82H14.03v4.5h25.38l-4.82 4.82a2.25 2.25 0 0 0 1.59 3.84c.57 0 1.15-.22 1.59-.66l10.26-10.25z"/></symbol><symbol id="s64" viewBox="0 0 64 64"><path d="M15.83 28.95h25.11v20.99H.04V4.13C.04 1.85 1.89 0 4.17 0h32.64a4.13 4.13 0 0 1 4.13 4.12v14.82H15.83v10ZM.04 52.69h40.9v7.19A4.13 4.13 0 0 1 36.81 64H4.17a4.13 4.13 0 0 1-4.13-4.12zm19.07 2.82v2.75h2.75v-2.74h-2.75ZM50.6 10.52c-.98-.98-2.56-.98-3.54 0s-.98 2.56 0 3.53l7.4 7.4H18.51v5h35.96l-7.4 7.4c-.98.98-.98 2.56 0 3.53.49.49 1.13.73 1.77.73s1.28-.24 1.77-.73l13.44-13.43-13.44-13.43Z"/></symbol><use style="display: var(--s16, none)" href="#s16"/><use style="display: var(--s24, none)" href="#s24"/><use style="display: var(--s32, none)" href="#s32"/><use style="display: var(--s40, none)" href="#s40"/><use style="display: var(--s48, none)" href="#s48"/><use style="display: var(--s64, none)" href="#s64"/></symbol></defs><style>@media (max-width: 23.98px) {g{--s16:block;}}@media (min-width: 24px) and (max-width: 31.98px) {g{--s24:block;}}@media (min-width: 32px) and (max-width: 39.98px) {g{--s32:block;}}@media (min-width: 40px) and (max-width: 47.98px) {g{--s40:block;}}@media (min-width: 48px) and (max-width: 63.98px) {g{--s48:block;}}@media (min-width: 64px) {g{--s64:block;}}</style><g><use href="#i-mobileout-solid"/></g></svg>