<svg xmlns="http://www.w3.org/2000/svg"><defs><symbol id="i-moon"><symbol id="s16" viewBox="0 0 16 16"><path d="M5.88 16c-1.14 0-2.26-.24-3.31-.72a.745.745 0 0 1 0-1.36c2.31-1.05 3.81-3.38 3.81-5.91S4.88 3.15 2.57 2.1a.745.745 0 0 1 0-1.36C3.62.25 4.73 0 5.88 0c4.41 0 8 3.59 8 8s-3.59 8-8 8m-1.2-1.61c.39.07.79.11 1.2.11 3.58 0 6.5-2.92 6.5-6.5s-2.92-6.5-6.5-6.5c-.4 0-.8.04-1.2.11C6.66 3.1 7.88 5.46 7.88 8s-1.21 4.9-3.2 6.39"/></symbol><symbol id="s24" viewBox="0 0 24 24"><path d="M8.74 23.98c-1.71 0-3.38-.36-4.96-1.08a.882.882 0 0 1 0-1.6c3.64-1.66 6-5.31 6-9.31s-2.35-7.64-6-9.3a.882.882 0 0 1 0-1.6A12 12 0 0 1 8.74.02C15.35.02 20.72 5.39 20.72 12S15.34 23.98 8.74 23.98m-2.49-2.06c.81.21 1.65.31 2.49.31 5.64 0 10.23-4.59 10.23-10.23S14.38 1.77 8.74 1.77c-.84 0-1.68.1-2.49.31C9.51 4.29 11.53 8 11.53 12s-2.02 7.72-5.28 9.92"/></symbol><symbol id="s32" viewBox="0 0 32 32"><path d="M11.61 31.98c-2.28 0-4.51-.49-6.61-1.44a1.005 1.005 0 0 1 0-1.82c4.98-2.27 8.19-7.26 8.19-12.71S9.97 5.56 5 3.29a1.005 1.005 0 0 1 0-1.82C7.1.51 9.33.03 11.61.03 20.42.03 27.58 7.19 27.58 16s-7.17 15.97-15.97 15.97Zm-3.79-2.53c1.23.35 2.5.53 3.79.53 7.7 0 13.97-6.27 13.97-13.97S19.31 2.03 11.61 2.03c-1.29 0-2.56.18-3.79.53 4.54 2.91 7.37 7.97 7.37 13.44s-2.83 10.54-7.37 13.44Z"/></symbol><symbol id="s40" viewBox="0 0 40 40"><path d="M14.47 39.98c-2.86 0-5.64-.61-8.27-1.81-.4-.18-.66-.58-.66-1.02s.26-.84.66-1.02c6.31-2.88 10.39-9.21 10.39-16.13S12.52 6.75 6.2 3.88c-.4-.18-.66-.58-.66-1.02s.26-.84.66-1.02C8.83.63 11.61.02 14.47.02 25.49.02 34.45 8.98 34.45 20s-8.96 19.98-19.98 19.98m-5.09-3.01c1.65.5 3.36.75 5.09.75 9.78 0 17.73-7.95 17.73-17.73S24.25 2.27 14.47 2.27c-1.74 0-3.44.25-5.09.76C15.2 6.64 18.85 13.06 18.85 20S15.2 33.36 9.38 36.97"/></symbol><symbol id="s48" viewBox="0 0 48 48"><path d="M17.34 47.97c-3.43 0-6.77-.73-9.92-2.17-.45-.2-.73-.65-.73-1.14s.29-.93.73-1.14c7.65-3.48 12.59-11.15 12.59-19.53S15.07 7.96 7.42 4.47c-.45-.2-.73-.65-.73-1.14s.29-.93.73-1.14C10.57.76 13.91.03 17.34.03 30.56.03 41.31 10.78 41.31 24S30.56 47.97 17.34 47.97m-6.39-3.48c2.07.65 4.21.98 6.39.98 11.84 0 21.47-9.63 21.47-21.47S29.18 2.53 17.34 2.53c-2.18 0-4.32.33-6.39.98C18.05 7.82 22.51 15.59 22.51 24s-4.46 16.18-11.56 20.49"/></symbol><symbol id="s64" viewBox="0 0 64 64"><path d="M23.04 63.92c-4.57 0-9.01-.97-13.22-2.89-.49-.22-.8-.71-.8-1.25s.31-1.03.8-1.25c10.39-4.74 17.11-15.16 17.11-26.54S20.22 10.18 9.83 5.44c-.49-.22-.8-.71-.8-1.25s.31-1.03.8-1.25C14.03 1.02 18.47.05 23.04.05c17.61 0 31.93 14.33 31.93 31.94S40.64 63.92 23.04 63.92m-9.33-4.3c3.02 1.03 6.14 1.55 9.33 1.55 16.09 0 29.18-13.09 29.18-29.18S39.13 2.8 23.04 2.8c-3.19 0-6.32.52-9.33 1.55 9.8 5.67 15.98 16.2 15.98 27.63s-6.18 21.97-15.98 27.63Z"/></symbol><use style="display: var(--s16, none)" href="#s16"/><use style="display: var(--s24, none)" href="#s24"/><use style="display: var(--s32, none)" href="#s32"/><use style="display: var(--s40, none)" href="#s40"/><use style="display: var(--s48, none)" href="#s48"/><use style="display: var(--s64, none)" href="#s64"/></symbol></defs><style>@media (max-width: 23.98px) {g{--s16:block;}}@media (min-width: 24px) and (max-width: 31.98px) {g{--s24:block;}}@media (min-width: 32px) and (max-width: 39.98px) {g{--s32:block;}}@media (min-width: 40px) and (max-width: 47.98px) {g{--s40:block;}}@media (min-width: 48px) and (max-width: 63.98px) {g{--s48:block;}}@media (min-width: 64px) {g{--s64:block;}}</style><g><use href="#i-moon"/></g></svg>