<svg xmlns="http://www.w3.org/2000/svg"><defs><symbol id="i-newsletter"><symbol id="s16" viewBox="0 0 16 16"><path d="M4.81 6.23c.42.44.97.68 1.55.72a5.93 5.93 0 0 1 2.82-1.8l2.3-2.47v2.27c.52.06 1.03.2 1.5.39V0H0v10.23h4.95c.05-.52.17-1.02.35-1.5H2.31l2.5-2.51Zm-1.02-1.1L1.5 7.42V2.67zm3.32.04c-.33.36-.89.36-1.23 0l-3.4-3.66h8.03zm3.88.48a5.18 5.18 0 0 0-3.76 1.46 5.14 5.14 0 0 0-1.57 3.72c0 2.86 2.32 5.18 5.17 5.18h.95c.41 0 .75-.34.75-.75s-.34-.75-.75-.75h-.95c-2.02 0-3.67-1.65-3.67-3.68 0-1 .4-1.94 1.11-2.64.72-.7 1.66-1.09 2.67-1.04 1.96.06 3.55 1.79 3.55 3.86v2.01c0 .2-.16.35-.35.35s-.35-.16-.35-.35v-2.08c0-1.69-1.31-3.07-2.93-3.09h-.03c-.9 0-1.74.4-2.3 1.11-.57.71-.78 1.64-.58 2.54.25 1.11 1.16 2 2.27 2.22.74.15 1.48.02 2.1-.34.17.85.92 1.49 1.82 1.49 1.02 0 1.85-.83 1.85-1.86V11c0-2.87-2.25-5.28-5.01-5.36Zm.86 6.22c-.35.34-.84.48-1.33.38-.54-.11-.99-.54-1.11-1.08-.1-.46 0-.91.28-1.27.28-.35.69-.55 1.14-.55h.01c.78 0 1.44.73 1.44 1.58 0 .5-.42.91-.44.93Z"/></symbol><symbol id="s24" viewBox="0 0 24 24"><path d="m7.1 8.88.15.16c.64.69 1.5 1.07 2.42 1.07.16 0 .32-.03.48-.05l.06-.06c.76-.74 1.65-1.32 2.6-1.73l4.78-5.14v4.48c.6.09 1.19.25 1.75.46V.02H0v15.12h7.62c.08-.6.22-1.19.42-1.75H2.61l4.5-4.51Zm-5.35 2.89V3.12l4.16 4.47zm9.06-3.92c-.62.66-1.66.66-2.28 0L2.89 1.77h13.57l-5.65 6.07Zm5.77.82c-2.07-.05-4.07.71-5.57 2.16a7.64 7.64 0 0 0-2.33 5.51c0 4.23 3.43 7.68 7.66 7.68h1.45c.48 0 .87-.39.87-.88s-.39-.88-.87-.88h-1.45c-3.26 0-5.91-2.66-5.91-5.92 0-1.62.64-3.13 1.79-4.25a5.8 5.8 0 0 1 4.3-1.67c3.16.09 5.73 2.88 5.73 6.21v3.09c0 .45-.37.82-.82.82s-.82-.37-.82-.82v-3.19c0-2.44-1.9-4.44-4.23-4.46h-.04c-1.3 0-2.5.58-3.32 1.59a4.3 4.3 0 0 0-.83 3.67c.36 1.59 1.67 2.88 3.28 3.2a4.26 4.26 0 0 0 3.39-.73c.04 1.38 1.18 2.49 2.57 2.49S24 21.13 24 19.71v-3.09c0-4.27-3.33-7.84-7.42-7.96Zm1.53 9.48c-.61.6-1.44.83-2.29.67-.94-.19-1.71-.94-1.92-1.87-.18-.79 0-1.57.49-2.18.48-.6 1.2-.94 1.96-.94h.02c1.35.01 2.49 1.25 2.49 2.71 0 .89-.73 1.6-.76 1.62Z"/></symbol><symbol id="s32" viewBox="0 0 32 32"><path d="m9.41 11.48.33.35c.83.89 1.94 1.38 3.13 1.38s2.3-.49 3.13-1.38l.33-.35.07.07c.64-.34 1.31-.61 2-.82l-.71-.71 6.03-6.47v6.8c.69.12 1.36.29 2 .53V0H0v19.97h10.33c.11-.68.28-1.35.51-2H2.9l6.5-6.5Zm-7.4 4.56V3.54l6.03 6.47zm10.86-4.83c-.63 0-1.22-.27-1.67-.75L3.31 2.01h19.12l-7.89 8.46c-.45.48-1.04.75-1.67.75Zm9.3.52c-2.78-.07-5.39.93-7.37 2.86a10.05 10.05 0 0 0-3.08 7.28c0 5.59 4.55 10.14 10.14 10.14h1.96c.55 0 1-.45 1-1s-.45-1-1-1h-1.96c-4.49 0-8.14-3.65-8.14-8.14 0-2.22.88-4.3 2.47-5.84a8 8 0 0 1 5.92-2.29c4.35.13 7.89 3.95 7.89 8.52v4.15c0 .71-.58 1.29-1.29 1.29s-1.29-.58-1.29-1.29v-4.28c0-3.18-2.48-5.79-5.52-5.82-1.75.02-3.31.74-4.39 2.07s-1.47 3.08-1.09 4.78c.47 2.07 2.19 3.75 4.28 4.17 1.7.34 3.44-.1 4.72-1.18v.25c0 1.81 1.47 3.29 3.29 3.29S32 28.22 32 26.4v-4.15c0-5.64-4.41-10.36-9.83-10.52m2.19 12.69c-.86.84-2.04 1.19-3.25.94-1.33-.27-2.43-1.33-2.72-2.65-.25-1.11 0-2.23.69-3.09.68-.85 1.7-1.33 2.78-1.33h.03c1.92.02 3.54 1.77 3.54 3.82 0 1.28-1.04 2.28-1.07 2.3Z"/></symbol><symbol id="s40" viewBox="0 0 40 40"><path d="m11.75 14.15.51.54c1.02 1.1 2.39 1.7 3.84 1.7s2.82-.6 3.84-1.7l.51-.54.29.29c.73-.37 1.49-.67 2.27-.92l-1.03-1.03 7.9-8.47v9.03c.77.14 1.53.33 2.26.59V.04H.05V24.9h13.01c.13-.77.33-1.52.58-2.26H3.26zM2.31 20.4V4.03l7.9 8.47zm11.6-7.24L3.78 2.3h24.65L18.3 13.16a3.005 3.005 0 0 1-4.39 0m13.9 1.63c-3.47-.14-6.71 1.16-9.19 3.56-2.47 2.4-3.83 5.62-3.83 9.06 0 6.96 5.67 12.63 12.63 12.63h2.47c.62 0 1.13-.51 1.13-1.13s-.51-1.13-1.13-1.13h-2.47c-5.72 0-10.37-4.65-10.37-10.37 0-2.83 1.12-5.47 3.15-7.44s4.69-3 7.55-2.92c5.54.17 10.06 5.03 10.06 10.85v5.22c0 .96-.78 1.75-1.75 1.75s-1.75-.78-1.75-1.75v-5.39c0-3.93-3.06-7.16-6.82-7.19-2.13 0-4.09.91-5.42 2.56s-1.82 3.8-1.34 5.9c.58 2.56 2.7 4.63 5.28 5.15 2.2.44 4.45-.18 6.04-1.64v.61c0 2.21 1.8 4 4 4s4-1.8 4-4V27.9c0-7.02-5.49-12.9-12.24-13.1Zm2.84 15.93c-1.11 1.09-2.64 1.54-4.21 1.22-1.72-.35-3.14-1.73-3.53-3.43-.32-1.43 0-2.88.9-3.99a4.59 4.59 0 0 1 3.6-1.72h.04c2.53.02 4.58 2.23 4.58 4.93 0 1.67-1.35 2.96-1.39 2.99Z"/></symbol><symbol id="s48" viewBox="0 0 48 48"><path d="m14.01 16.74.69.74c1.21 1.3 2.83 2.01 4.55 2.01s3.34-.71 4.55-2.01l.69-.74.55.54c.81-.41 1.66-.73 2.52-1.01l-1.36-1.36 9.79-10.49v11.31c.85.16 1.69.37 2.5.65V0H.01v29.75h15.7c.15-.85.37-1.69.65-2.5H3.5zM2.51 24.7V4.42l9.79 10.49zm14.01-8.92L4.14 2.5h30.22L21.97 15.78c-1.46 1.57-3.98 1.57-5.45 0m16.84 2c-4.11-.13-8.03 1.39-10.99 4.26a14.98 14.98 0 0 0-4.59 10.84c0 8.33 6.78 15.11 15.12 15.11h2.97a1.25 1.25 0 0 0 0-2.5H32.9c-6.96 0-12.62-5.66-12.62-12.61 0-3.44 1.36-6.65 3.83-9.05s5.73-3.66 9.18-3.56c6.74.2 12.23 6.12 12.23 13.19v6.29c0 1.22-.99 2.22-2.22 2.22s-2.22-.99-2.22-2.22v-6.5c0-4.68-3.64-8.51-8.11-8.56h-.08c-2.49 0-4.81 1.11-6.37 3.05-1.58 1.96-2.16 4.52-1.6 7.02.69 3.04 3.21 5.5 6.28 6.12 2.7.54 5.46-.26 7.37-2.13v.99c0 2.6 2.12 4.72 4.72 4.72s4.72-2.12 4.72-4.72v-6.29c0-8.41-6.57-15.44-14.65-15.69Zm3.51 19.17c-1.37 1.34-3.25 1.89-5.17 1.5-2.12-.43-3.86-2.12-4.34-4.22-.4-1.75 0-3.54 1.1-4.9a5.66 5.66 0 0 1 4.43-2.12h.05c3.1.03 5.63 2.74 5.63 6.06 0 2.07-1.66 3.64-1.71 3.69Z"/></symbol><symbol id="s64" viewBox="0 0 64 64"><path d="M18.54 21.77 19.68 23c1.57 1.68 3.67 2.61 5.9 2.61s4.33-.93 5.9-2.61l1.14-1.23 1.17 1.17c.9-.43 1.82-.81 2.77-1.12l-2.06-2.06L48.41 4.85v16.22c.94.19 1.86.44 2.75.75V-.02H0v39.43h21.06c.18-.94.42-1.85.72-2.75H3.64l14.89-14.89ZM2.75 33.66V4.84l13.91 14.91zm26.73-12.54c-1.04 1.12-2.43 1.74-3.89 1.74s-2.85-.62-3.89-1.74L4.54 2.73h42.09L29.47 21.12Zm15.09 2.79c-5.47-.18-10.65 1.84-14.57 5.65s-6.08 8.91-6.08 14.38c0 11.05 8.99 20.04 20.04 20.04h4c.76 0 1.38-.62 1.38-1.38s-.62-1.38-1.38-1.38h-4c-9.53 0-17.29-7.75-17.29-17.28 0-4.71 1.86-9.12 5.25-12.4 3.38-3.28 7.85-5 12.57-4.87 9.24.28 16.76 8.38 16.76 18.06v8.47c0 1.81-1.48 3.29-3.29 3.29s-3.29-1.48-3.29-3.29v-8.75c0-6.13-4.76-11.16-10.61-11.21h-.1c-3.26 0-6.29 1.45-8.34 3.99-2.07 2.56-2.83 5.92-2.09 9.19.9 3.98 4.2 7.2 8.22 8.01 3.59.72 7.13-.31 9.67-2.8.03-.03.22-.21.5-.51v2.08c0 3.33 2.71 6.04 6.04 6.04S64 56.53 64 53.2v-8.47c0-11.15-8.72-20.49-19.43-20.81Zm4.95 25.71c-1.91 1.88-4.55 2.64-7.24 2.1-2.97-.6-5.41-2.98-6.08-5.92-.55-2.45.01-4.95 1.55-6.86a7.9 7.9 0 0 1 6.2-2.96h.07c4.35.04 7.88 3.83 7.88 8.46 0 2.92-2.34 5.13-2.39 5.18Z"/></symbol><use style="display: var(--s16, none)" href="#s16"/><use style="display: var(--s24, none)" href="#s24"/><use style="display: var(--s32, none)" href="#s32"/><use style="display: var(--s40, none)" href="#s40"/><use style="display: var(--s48, none)" href="#s48"/><use style="display: var(--s64, none)" href="#s64"/></symbol></defs><style>@media (max-width: 23.98px) {g{--s16:block;}}@media (min-width: 24px) and (max-width: 31.98px) {g{--s24:block;}}@media (min-width: 32px) and (max-width: 39.98px) {g{--s32:block;}}@media (min-width: 40px) and (max-width: 47.98px) {g{--s40:block;}}@media (min-width: 48px) and (max-width: 63.98px) {g{--s48:block;}}@media (min-width: 64px) {g{--s64:block;}}</style><g><use href="#i-newsletter"/></g></svg>