<svg xmlns="http://www.w3.org/2000/svg"><defs><symbol id="i-notesadd-solid"><symbol id="s16" viewBox="0 0 16 16"><path d="M2.96 4.32V.75c0-.41.34-.75.75-.75s.75.34.75.75v3.57c0 .41-.34.75-.75.75s-.75-.34-.75-.75m3.72.75c.41 0 .75-.34.75-.75V.75c0-.41-.34-.75-.75-.75s-.75.34-.75.75v3.57c0 .41.34.75.75.75m2.97 0c.41 0 .75-.34.75-.75V.75c0-.41-.34-.75-.75-.75S8.9.34 8.9.75v3.57c0 .41.34.75.75.75m2.96 0c.41 0 .75-.34.75-.75V.75c0-.41-.34-.75-.75-.75s-.75.34-.75.75v3.57c0 .41.34.75.75.75m1.5-3.32v2.57c0 .83-.67 1.5-1.5 1.5-.77 0-1.4-.58-1.48-1.33-.09.75-.71 1.33-1.48 1.33s-1.4-.58-1.48-1.33c-.09.75-.71 1.33-1.48 1.33s-1.4-.59-1.48-1.34a1.495 1.495 0 0 1-2.98-.16V1.75H0v12C0 14.99 1.01 16 2.25 16h5.83a5.55 5.55 0 0 1-1.78-3.49H4v-1.5h2.34c.1-.63.29-1.22.58-1.76H4v-1.5h4.08c1-.92 2.34-1.49 3.8-1.49 1.63 0 3.1.7 4.13 1.82V1.75zM16 11.87c0 2.27-1.85 4.12-4.12 4.12s-4.12-1.85-4.12-4.12 1.85-4.12 4.12-4.12S16 9.6 16 11.87m-1.41 0c0-.41-.34-.75-.75-.75h-1.21V9.91c0-.41-.34-.75-.75-.75s-.75.34-.75.75v1.21H9.92c-.41 0-.75.34-.75.75s.34.75.75.75h1.21v1.21c0 .41.34.75.75.75s.75-.34.75-.75v-1.21h1.21c.41 0 .75-.34.75-.75"/></symbol><symbol id="s24" viewBox="0 0 24 24"><path d="M4.55 6.35V.87a.87.87 0 0 1 1.74 0v5.48a.87.87 0 0 1-1.74 0m5.42.88c.48 0 .87-.39.87-.87V.87a.87.87 0 0 0-1.74 0v5.48c0 .48.39.87.87.87Zm4.55 0c.48 0 .87-.39.87-.87V.87a.87.87 0 0 0-1.74 0v5.48c0 .48.39.87.87.87Zm4.56 0c.48 0 .87-.39.87-.87V.87a.87.87 0 0 0-1.74 0v5.48c0 .48.39.87.87.87Zm1.74-4.54v3.67c0 .97-.78 1.75-1.75 1.75s-1.75-.78-1.75-1.75V2.69h-1.05v3.67c0 .97-.78 1.75-1.75 1.75s-1.75-.78-1.75-1.75V2.69h-1.05v3.67c0 .97-.78 1.75-1.75 1.75s-1.75-.78-1.75-1.75V2.69H7.17v3.67c0 .97-.78 1.75-1.75 1.75s-1.75-.78-1.75-1.75V2.69H.01v18.69C.01 22.83 1.19 24 2.63 24h10.34a7.82 7.82 0 0 1-2.93-5.87H5.86v-1.75h4.31c.19-1 .58-1.93 1.12-2.76H5.86v-1.75h6.97a7.84 7.84 0 0 1 5.06-1.85c2.48 0 4.69 1.15 6.13 2.95V2.69h-3.19Zm3.17 15.19c0 3.37-2.74 6.11-6.11 6.11s-6.11-2.74-6.11-6.11 2.74-6.11 6.11-6.11 6.11 2.74 6.11 6.11m-2.42 0a.87.87 0 0 0-.87-.87h-1.93v-1.93a.87.87 0 0 0-1.74 0v1.93H15.1a.87.87 0 0 0 0 1.74h1.93v1.93a.87.87 0 0 0 1.74 0v-1.93h1.93c.48 0 .87-.39.87-.87"/></symbol><symbol id="s32" viewBox="0 0 32 32"><path d="M6.13 8.39V1c0-.55.45-1 1-1s1 .45 1 1v7.39c0 .55-.45 1-1 1s-1-.45-1-1m7.14 1c.55 0 1-.45 1-1V1c0-.55-.45-1-1-1s-1 .45-1 1v7.39c0 .55.45 1 1 1m6.13 0c.55 0 1-.45 1-1V1c0-.55-.45-1-1-1s-1 .45-1 1v7.39c0 .55.45 1 1 1m6.14 0c.55 0 1-.45 1-1V1c0-.55-.45-1-1-1s-1 .45-1 1v7.39c0 .55.45 1 1 1M13.91 26.46H7.72v-2h5.85a8 8 0 0 1-.04-.7c0-.8.1-1.57.27-2.32H7.71v-2h6.78c.53-1.13 1.26-2.16 2.14-3.02H7.72v-2h11.87c1.28-.58 2.7-.91 4.19-.91 3.38 0 6.37 1.65 8.24 4.18V3.62h-4.48v4.76c0 1.1-.9 2-2 2s-2-.9-2-2V3.62H21.4v4.76c0 1.1-.9 2-2 2s-2-.9-2-2V3.62h-2.14v4.76c0 1.1-.9 2-2 2s-2-.9-2-2V3.62H9.12v4.76c0 1.1-.9 2-2 2s-2-.9-2-2V3.62H.02V29c0 1.65 1.35 3 3 3h14.71c-1.83-1.35-3.2-3.29-3.82-5.54m18.11-2.7c0 4.54-3.7 8.24-8.24 8.24s-8.24-3.7-8.24-8.24 3.7-8.24 8.24-8.24 8.24 3.7 8.24 8.24m-3.53 0c0-.55-.45-1-1-1h-2.71v-2.72c0-.55-.45-1-1-1s-1 .45-1 1v2.72h-2.71c-.55 0-1 .45-1 1s.45 1 1 1h2.71v2.71c0 .55.45 1 1 1s1-.45 1-1v-2.71h2.71c.55 0 1-.45 1-1"/></symbol><symbol id="s40" viewBox="0 0 40 40"><path d="M7.71 10.42v-9.3C7.71.5 8.21 0 8.83 0s1.12.5 1.12 1.12v9.3c0 .62-.5 1.12-1.12 1.12s-1.12-.5-1.12-1.12m8.85 1.13c.62 0 1.12-.5 1.12-1.12V1.12c0-.62-.5-1.12-1.12-1.12s-1.12.5-1.12 1.12v9.3c0 .62.5 1.12 1.12 1.12Zm7.72 0c.62 0 1.12-.5 1.12-1.12V1.12C25.4.5 24.9 0 24.28 0s-1.12.5-1.12 1.12v9.3c0 .62.5 1.12 1.12 1.12Zm7.72 0c.62 0 1.12-.5 1.12-1.12V1.12C33.12.5 32.62 0 32 0s-1.12.5-1.12 1.12v9.3c0 .62.5 1.12 1.12 1.12Zm2.25-6.99v5.86c0 1.24-1.01 2.25-2.25 2.25s-2.25-1.01-2.25-2.25V4.56h-3.22v5.86c0 1.24-1.01 2.25-2.25 2.25s-2.25-1.01-2.25-2.25V4.56h-3.22v5.86c0 1.24-1.01 2.25-2.25 2.25s-2.25-1.01-2.25-2.25V4.56h-3.22v5.86c0 1.24-1.01 2.25-2.25 2.25s-2.25-1.01-2.25-2.25V4.56H.02v32.07C.02 38.49 1.53 40 3.39 40h19.17a12.6 12.6 0 0 1-5.01-7.16H9.57v-2.25h7.6c-.02-.3-.05-.6-.05-.9 0-1.09.16-2.15.42-3.16H9.56v-2.25h8.8c.75-1.56 1.81-2.94 3.11-4.07H9.56v-2.25h15.68c1.38-.52 2.87-.82 4.43-.82 4.28 0 8.06 2.15 10.33 5.43V4.56h-5.77Zm5.74 25.12c0 5.68-4.62 10.3-10.3 10.3s-10.3-4.62-10.3-10.3 4.62-10.3 10.3-10.3 10.3 4.62 10.3 10.3m-4.58 0c0-.62-.5-1.12-1.12-1.12h-3.47v-3.47c0-.62-.5-1.12-1.12-1.12s-1.12.5-1.12 1.12v3.47h-3.47c-.62 0-1.12.5-1.12 1.12s.5 1.12 1.12 1.12h3.47v3.47c0 .62.5 1.12 1.12 1.12s1.12-.5 1.12-1.12V30.8h3.47c.62 0 1.12-.5 1.12-1.12"/></symbol><symbol id="s48" viewBox="0 0 48 48"><path d="M9.28 12.46V1.26C9.28.57 9.84 0 10.53 0s1.25.56 1.25 1.25v11.2a1.25 1.25 0 0 1-2.5 0Zm10.55 1.25c.69 0 1.25-.56 1.25-1.25V1.26c0-.69-.56-1.26-1.25-1.26s-1.25.56-1.25 1.25v11.2c0 .69.56 1.25 1.25 1.25Zm9.31 0c.69 0 1.25-.56 1.25-1.25V1.26c0-.69-.56-1.26-1.25-1.26s-1.25.56-1.25 1.25v11.2c0 .69.56 1.25 1.25 1.25Zm9.3 0c.69 0 1.25-.56 1.25-1.25V1.26a1.25 1.25 0 0 0-2.5 0v11.2c0 .69.56 1.25 1.25 1.25M21.01 38.22h-9.58v-2.5h9.35v-.08c0-1.49.23-2.92.63-4.28h-9.98v-2.5h11c.85-1.66 2.01-3.14 3.4-4.36h-14.4V22h18.31c1.81-.79 3.81-1.23 5.91-1.23 5.14 0 9.68 2.62 12.35 6.6V5.5h-7.05v6.96a2.5 2.5 0 0 1-5 0V5.5h-4.3v6.96a2.5 2.5 0 0 1-5 0V5.5h-4.3v6.96a2.5 2.5 0 0 1-5 0V5.5h-4.3v6.96a2.5 2.5 0 0 1-5 0V5.5H.01v38.75C.01 46.32 1.69 48 3.76 48H27.4a14.9 14.9 0 0 1-6.39-9.79Zm27-2.59c0 6.82-5.55 12.37-12.37 12.37s-12.37-5.55-12.37-12.37 5.55-12.37 12.37-12.37 12.37 5.55 12.37 12.37m-5.64 0c0-.69-.56-1.25-1.25-1.25h-4.23v-4.23a1.25 1.25 0 0 0-2.5 0v4.23h-4.23a1.25 1.25 0 0 0 0 2.5h4.23v4.23a1.25 1.25 0 0 0 2.5 0v-4.23h4.23c.69 0 1.25-.56 1.25-1.25"/></symbol><symbol id="s64" viewBox="0 0 64 64"><path d="M12.48 16.46V1.38a1.374 1.374 0 1 1 2.75 0v15.08c0 .76-.62 1.38-1.37 1.38s-1.37-.62-1.37-1.38Zm13.9 1.38c.76 0 1.37-.62 1.37-1.38V1.38c0-.76-.62-1.38-1.37-1.38s-1.37.62-1.37 1.38v15.08c0 .76.62 1.38 1.37 1.38m12.51 0c.76 0 1.37-.62 1.37-1.38V1.38c0-.76-.62-1.38-1.37-1.38s-1.37.62-1.37 1.38v15.08c0 .76.62 1.38 1.37 1.38m12.52 0c.76 0 1.37-.62 1.37-1.38V1.38c0-.76-.62-1.38-1.37-1.38s-1.37.62-1.37 1.38v15.08c0 .76.62 1.38 1.37 1.38M28.43 49.89H15.07v-2.75h13.21c.04-2.28.49-4.46 1.26-6.48H15.07v-2.75h15.77c1.5-2.6 3.59-4.83 6.09-6.48H15.07v-2.75h28.4c1.31-.28 2.66-.44 4.05-.44 6.99 0 13.11 3.76 16.48 9.36V7.4h-9.84v9.06c0 1.52-1.23 2.75-2.75 2.75s-2.75-1.23-2.75-2.75V7.4h-7.02v9.06c0 1.52-1.23 2.75-2.75 2.75s-2.75-1.23-2.75-2.75V7.4h-7.02v9.06c0 1.52-1.23 2.75-2.75 2.75s-2.75-1.23-2.75-2.75V7.4H16.6v9.06c0 1.52-1.23 2.75-2.75 2.75s-2.75-1.23-2.75-2.75V7.4H.01v52.47A4.13 4.13 0 0 0 4.13 64h33.49c-4.95-2.98-8.46-8.11-9.2-14.1Zm35.58-2.4c0 9.1-7.4 16.51-16.5 16.51s-16.5-7.41-16.5-16.51 7.4-16.51 16.5-16.51 16.5 7.41 16.5 16.51m-7.94 0c0-.76-.62-1.38-1.37-1.38h-5.81v-5.82c0-.76-.62-1.38-1.37-1.38s-1.37.62-1.37 1.38v5.82h-5.81a1.38 1.38 0 0 0 0 2.76h5.81v5.82c0 .76.62 1.38 1.37 1.38s1.37-.62 1.37-1.38v-5.82h5.81c.76 0 1.37-.62 1.37-1.38"/></symbol><use style="display: var(--s16, none)" href="#s16"/><use style="display: var(--s24, none)" href="#s24"/><use style="display: var(--s32, none)" href="#s32"/><use style="display: var(--s40, none)" href="#s40"/><use style="display: var(--s48, none)" href="#s48"/><use style="display: var(--s64, none)" href="#s64"/></symbol></defs><style>@media (max-width: 23.98px) {g{--s16:block;}}@media (min-width: 24px) and (max-width: 31.98px) {g{--s24:block;}}@media (min-width: 32px) and (max-width: 39.98px) {g{--s32:block;}}@media (min-width: 40px) and (max-width: 47.98px) {g{--s40:block;}}@media (min-width: 48px) and (max-width: 63.98px) {g{--s48:block;}}@media (min-width: 64px) {g{--s64:block;}}</style><g><use href="#i-notesadd-solid"/></g></svg>