<svg xmlns="http://www.w3.org/2000/svg"><defs><symbol id="i-onlineservice"><symbol id="s16" viewBox="0 0 16 16"><path d="M13.75 0H2.25C1.01 0 0 1.01 0 2.25V16h16V2.25C16 1.01 14.99 0 13.75 0M2.25 1.5h11.5c.41 0 .75.34.75.75v2.5h-13v-2.5c0-.41.34-.75.75-.75m-.75 13V6.25h13v8.25zm.75-11.36c0-.49.4-.89.89-.89s.89.4.89.89-.4.89-.89.89-.89-.4-.89-.89m2.5 0c0-.49.4-.89.89-.89s.89.4.89.89-.4.89-.89.89-.89-.4-.89-.89m5.87 4.85-.91.52c-.24-.21-.52-.37-.83-.48V6.99H7.11v1.04c-.31.11-.58.27-.83.48l-.91-.52-.88 1.52.9.51c-.03.16-.05.31-.05.48s.02.32.05.48l-.9.51.88 1.52.91-.52c.24.21.52.37.83.48v1.04h1.77v-1.04c.31-.11.58-.27.83-.48l.91.52.88-1.52-.9-.51c.03-.16.05-.31.05-.48s-.02-.32-.05-.48l.9-.51zM8 11.5c-.55 0-1-.45-1-1s.45-1 1-1 1 .45 1 1-.45 1-1 1"/></symbol><symbol id="s24" viewBox="0 0 24 24"><path d="M21.62 0H2.38C1.07 0 0 1.07 0 2.38V24h24V2.38C24 1.07 22.93 0 21.62 0M2.38 1.75h19.25c.34 0 .63.28.63.63v3.49H1.75V2.38c0-.35.28-.63.63-.63m-.63 20.5V7.62h20.5v14.63zM3.12 3.71c0-.6.49-1.09 1.09-1.09s1.09.49 1.09 1.09S4.81 4.8 4.21 4.8s-1.09-.49-1.09-1.09m3.25 0c0-.6.49-1.09 1.09-1.09s1.09.49 1.09 1.09S8.06 4.8 7.46 4.8s-1.09-.49-1.09-1.09m5.73 8.41c-1.49 0-2.71 1.22-2.71 2.71s1.22 2.71 2.71 2.71 2.71-1.22 2.71-2.71-1.22-2.71-2.71-2.71m0 3.67a.96.96 0 1 1 0-1.92.96.96 0 0 1 0 1.92m4.43-6.1-1.68.96c-.16-.1-.32-.2-.49-.28V8.44H9.83v1.93c-.17.08-.33.18-.49.28l-1.68-.96-2.27 3.9 1.67.96v.56l-1.67.96 2.27 3.9 1.68-.96c.16.1.32.2.49.28v1.93h4.53v-1.93c.17-.08.33-.18.49-.28l1.68.96 2.27-3.9-1.67-.96v-.56l1.67-.96zm-1.2 4.55c.04.22.06.41.06.59s-.02.37-.06.59l-.11.61 1.19.68-.51.87-1.2-.69-.47.39c-.31.26-.65.46-1.03.59l-.58.21v1.37h-1.03v-1.37l-.58-.21a3.3 3.3 0 0 1-1.03-.59l-.47-.39-1.2.69-.51-.87 1.19-.68-.11-.61c-.04-.22-.06-.41-.06-.59s.02-.36.06-.59l.11-.61-1.19-.68.51-.87 1.2.69.47-.39c.31-.26.65-.46 1.03-.59l.58-.21v-1.37h1.03v1.37l.58.21c.37.13.72.33 1.03.59l.47.39 1.2-.69.51.87-1.19.68z"/></symbol><symbol id="s32" viewBox="0 0 32 32"><path d="M29.5 0h-27A2.5 2.5 0 0 0 0 2.5V32h32V2.5A2.5 2.5 0 0 0 29.5 0m-27 2h27c.28 0 .5.22.5.5v4.51H2V2.5c0-.28.22-.5.5-.5M2 30V9.01h28V30zM3.5 4.47a1.291 1.291 0 0 1 2.58 0 1.291 1.291 0 0 1-2.58 0m3.5 0a1.291 1.291 0 0 1 2.58 0 1.291 1.291 0 0 1-2.58 0m15.35 8.11-2.36 1.35c-.31-.21-.63-.4-.97-.56v-2.7h-6.04v2.7c-.34.16-.66.34-.97.56l-2.36-1.35-3.03 5.19 2.34 1.34c-.02.19-.03.38-.03.56s0 .37.03.56l-2.34 1.34 3.03 5.19 2.36-1.35c.31.21.63.4.97.56v2.7h6.04v-2.7c.34-.16.66-.34.97-.56l2.36 1.35 3.03-5.19-2.34-1.34c.02-.19.03-.38.03-.56s0-.37-.03-.56l2.34-1.34-3.03-5.18Zm-.73 11.45-1.82-1.04-.54.45c-.47.4-1 .7-1.58.91l-.67.24v2.07h-2.04v-2.07l-.67-.24c-.57-.2-1.1-.51-1.58-.91l-.54-.45-1.82 1.04-1.01-1.73 1.8-1.03-.13-.7c-.06-.34-.09-.63-.09-.91s.03-.56.09-.91l.13-.7-1.8-1.03 1.01-1.74 1.82 1.04.53-.45c.47-.4 1-.7 1.58-.91l.67-.24v-2.07H17v2.07l.67.24c.58.2 1.11.51 1.58.91l.53.45 1.82-1.04 1.01 1.73-1.8 1.03.13.7c.06.34.09.63.09.91s-.03.57-.09.91l-.13.7 1.8 1.03-1.01 1.73ZM16 15.83c-2.13 0-3.87 1.72-3.87 3.84S13.86 23.5 16 23.5s3.87-1.72 3.87-3.83-1.73-3.84-3.87-3.84m0 5.67c-1.03 0-1.87-.82-1.87-1.84s.84-1.84 1.87-1.84 1.87.82 1.87 1.84-.84 1.84-1.87 1.84"/></symbol><symbol id="s40" viewBox="0 0 40 40"><path d="M37.37-.02H2.63C1.18-.02 0 1.16 0 2.6v37.38h40V2.6c0-1.45-1.18-2.62-2.63-2.62M2.63 2.23h34.75c.21 0 .38.17.38.37v6.28H2.25V2.6c0-.21.17-.37.38-.37m-.38 35.5v-26.6h35.5v26.6zM4.5 5.58c0-.82.67-1.48 1.48-1.48s1.48.66 1.48 1.48-.67 1.48-1.48 1.48S4.5 6.4 4.5 5.58m4.37 0c0-.82.67-1.48 1.48-1.48s1.48.66 1.48 1.48-.67 1.48-1.48 1.48-1.48-.66-1.48-1.48m19.02 10.31-2.91 1.66a10 10 0 0 0-1.33-.77v-3.33h-7.3v3.33c-.46.21-.91.47-1.33.76l-2.91-1.66-3.66 6.27 2.89 1.65c-.03.26-.04.52-.04.77s.01.5.04.77l-2.89 1.65 3.66 6.27 2.91-1.67c.42.29.86.55 1.33.76v3.33h7.3v-3.33c.46-.21.91-.47 1.33-.77l2.91 1.67 3.66-6.27-2.89-1.65c.03-.27.04-.52.04-.77s-.01-.5-.04-.77l2.89-1.65-3.66-6.27Zm-1.57 7.53c.08.44.12.81.12 1.16s-.04.72-.12 1.16l-.14.78 2.28 1.3-1.39 2.39-2.31-1.32-.6.51c-.6.51-1.28.9-2.01 1.16l-.75.26v2.63h-2.8v-2.63l-.75-.26c-.73-.26-1.41-.65-2.01-1.15l-.6-.51-2.31 1.32-1.39-2.39 2.28-1.3-.14-.78c-.08-.44-.12-.81-.12-1.16s.04-.72.12-1.16l.14-.78-2.28-1.3 1.39-2.39 2.31 1.32.6-.51c.6-.51 1.28-.9 2.01-1.16l.75-.26v-2.63h2.8v2.63l.75.26c.73.26 1.41.65 2.01 1.16l.6.51 2.31-1.32 1.39 2.38-2.28 1.3.15.79ZM20 19.91c-2.6 0-4.71 2.1-4.71 4.67s2.11 4.67 4.71 4.67 4.71-2.1 4.71-4.67-2.11-4.67-4.71-4.67M20 27c-1.35 0-2.46-1.09-2.46-2.42s1.1-2.42 2.46-2.42 2.46 1.09 2.46 2.42S21.36 27 20 27"/></symbol><symbol id="s48" viewBox="0 0 48 48"><path d="M45.25 0H2.75C1.23 0 0 1.24 0 2.75V48h48V2.75C48 1.24 46.77 0 45.25 0M2.75 2.5h42.5c.14 0 .25.11.25.25v7.5h-43v-7.5c0-.14.11-.25.25-.25m-.25 43V12.75h43V45.5zM5.49 6.18c0-.93.75-1.68 1.68-1.68s1.68.75 1.68 1.68-.75 1.68-1.68 1.68-1.68-.75-1.68-1.68m4.75 0c0-.93.75-1.68 1.68-1.68s1.68.75 1.68 1.68-.75 1.68-1.68 1.68-1.68-.75-1.68-1.68M24 23.64c-3.26 0-5.91 2.63-5.91 5.87s2.65 5.87 5.91 5.87 5.91-2.63 5.91-5.87-2.65-5.87-5.91-5.87m0 9.23c-1.88 0-3.41-1.51-3.41-3.37s1.53-3.36 3.41-3.36 3.41 1.51 3.41 3.36-1.53 3.37-3.41 3.37m10.18-14.38-3.72 2.13c-.61-.44-1.25-.81-1.93-1.11v-4.26h-9.06v4.26c-.68.3-1.32.67-1.93 1.11l-3.72-2.13-4.54 7.79 3.69 2.11c-.04.39-.07.76-.07 1.11s.02.73.07 1.11l-3.69 2.11 4.54 7.79 3.72-2.13c.61.43 1.25.81 1.93 1.11v4.26h9.06V39.5c.68-.3 1.32-.67 1.93-1.11l3.72 2.13 4.54-7.79-3.69-2.11c.04-.39.07-.76.07-1.11s-.02-.73-.07-1.11l3.69-2.11-4.54-7.79Zm-1.91 8.6.16.87c.11.59.16 1.08.16 1.55s-.05.96-.16 1.55l-.16.87 3.02 1.73-2.02 3.47-3.05-1.75-.67.56c-.8.68-1.71 1.2-2.68 1.54l-.83.3v3.48h-4.06v-3.48l-.83-.3c-.98-.34-1.88-.86-2.68-1.54l-.67-.56-3.06 1.75-2.02-3.47 3.02-1.73-.16-.87c-.11-.59-.16-1.08-.16-1.55s.05-.96.16-1.54l.16-.87-3.02-1.73 2.02-3.47 3.06 1.75.67-.56c.8-.68 1.7-1.2 2.68-1.54l.83-.29v-3.49h4.06v3.48l.83.3c.98.34 1.88.86 2.68 1.54l.67.56 3.05-1.75 2.02 3.47-3.02 1.73Z"/></symbol><symbol id="s64" viewBox="0 0 64 64"><path d="M61.12 0H2.88C1.29 0 0 1.29 0 2.87v61.12h64V2.87C64 1.29 62.71 0 61.12 0M2.88 2.75h58.25c.07 0 .13.06.13.13v9.79H2.75v-9.8c0-.07.06-.13.13-.13Zm-.13 58.5V15.41h58.5v45.84zM5.62 7.94c0-1.07.87-1.95 1.95-1.95s1.95.87 1.95 1.95-.87 1.95-1.95 1.95-1.95-.87-1.95-1.95m5.5 0c0-1.07.87-1.95 1.95-1.95s1.95.87 1.95 1.95-.87 1.95-1.95 1.95-1.95-.87-1.95-1.95M32 30.77c-4.31 0-7.82 3.48-7.82 7.76s3.51 7.76 7.82 7.76 7.82-3.48 7.82-7.76-3.51-7.76-7.82-7.76m0 12.78c-2.8 0-5.07-2.25-5.07-5.01s2.28-5.01 5.07-5.01 5.07 2.25 5.07 5.01-2.28 5.01-5.07 5.01m13.96-19.78-5.04 2.89c-.93-.69-1.94-1.27-3-1.73v-5.77H26.08v5.77c-1.06.46-2.06 1.03-3 1.73l-5.05-2.89-5.93 10.17 5.01 2.86c-.08.61-.12 1.17-.12 1.73s.04 1.12.12 1.73l-5.01 2.86 5.93 10.17 5.05-2.89c.94.69 1.94 1.27 3 1.73v5.77h11.84v-5.77c1.06-.46 2.07-1.03 3-1.73l5.05 2.89 5.93-10.17-5.01-2.86c.08-.61.12-1.18.12-1.73s-.04-1.13-.12-1.73l5.01-2.87-5.93-10.17Zm-1.94 12.56c.16.83.23 1.53.23 2.2s-.07 1.37-.23 2.2l-.18.96 4.27 2.44-3.16 5.42-4.32-2.47-.74.62a12.1 12.1 0 0 1-3.82 2.2l-.92.32v4.93h-6.33v-4.93l-.92-.32a12.1 12.1 0 0 1-3.82-2.2l-.73-.62-4.32 2.47-3.16-5.42 4.27-2.44-.18-.96c-.15-.83-.23-1.53-.23-2.2s.07-1.37.23-2.2l.18-.96-4.27-2.44 3.16-5.42 4.32 2.47.73-.62c1.15-.97 2.43-1.71 3.82-2.2l.92-.32v-4.93h6.33v4.93l.92.32c1.39.49 2.68 1.23 3.82 2.2l.74.62 4.32-2.47 3.16 5.42-4.27 2.45.18.96Z"/></symbol><use style="display: var(--s16, none)" href="#s16"/><use style="display: var(--s24, none)" href="#s24"/><use style="display: var(--s32, none)" href="#s32"/><use style="display: var(--s40, none)" href="#s40"/><use style="display: var(--s48, none)" href="#s48"/><use style="display: var(--s64, none)" href="#s64"/></symbol></defs><style>@media (max-width: 23.98px) {g{--s16:block;}}@media (min-width: 24px) and (max-width: 31.98px) {g{--s24:block;}}@media (min-width: 32px) and (max-width: 39.98px) {g{--s32:block;}}@media (min-width: 40px) and (max-width: 47.98px) {g{--s40:block;}}@media (min-width: 48px) and (max-width: 63.98px) {g{--s48:block;}}@media (min-width: 64px) {g{--s64:block;}}</style><g><use href="#i-onlineservice"/></g></svg>