<svg xmlns="http://www.w3.org/2000/svg"><defs><symbol id="i-parcel"><symbol id="s16" viewBox="0 0 16 16"><path d="M5.54.01.02 4.84v11.15h11.2v-.06l.09.09 4.71-4.69V.01zm5.43 1.5h2.49l-3.31 3.33H7.42zm-4.87 0h2.67L5.22 4.84H2.3zm3.61 12.98H1.52V6.33h8.19v8.15Zm1.5-.5v-8.1l3.3-3.31v8.12l-3.3 3.28Zm-2.96-3.72H5.71V7.74h2.54z"/></symbol><symbol id="s24" viewBox="0 0 24 24"><path d="M8.3 0 0 7.41v16.57h16.63L24 16.99V0zm8.12 1.75h4.6l-5.63 5.66h-5zm-7.46 0h4.9L7.83 7.41H2.62zm5.92 20.49H1.75V9.16h13.13zm1.75-.65V8.65L22.25 3v13.25zM13 14.34H9.66v-3.33H13z"/></symbol><symbol id="s32" viewBox="0 0 32 32"><path d="M11.08 0 0 10v22h22.06l9.93-9.31V0zm10.81 2h6.71l-7.95 8h-7.27zM11.85 2h7.12l-8.51 8H2.99zm8.21 28H2V12h18.06zm2-.74V11.41L30 3.42v18.39l-7.94 7.44Zm-3.44-15.4h-8v6h8zm-2 4h-4v-2h4z"/></symbol><symbol id="s40" viewBox="0 0 40 40"><path d="M40 0H13.87L0 12.59V40h27.5l12.49-11.64V0ZM27.37 2.26h8.81L25.92 12.59h-9.54zm-12.63 0h9.34L13.09 12.59H3.35zm10.52 35.49H2.25V14.84h23.01zm2.25-.83V14.18L37.75 3.86v23.52l-10.24 9.55Zm-4.03-19.93H13.23v7.25h10.25zm-2.25 5h-5.75v-2.75h5.75z"/></symbol><symbol id="s48" viewBox="0 0 48 48"><path d="M16.64 0 0 15.17h-.01V48h32.94l15.06-13.97V0zm16.18 2.51h10.91L31.15 15.17H19.34L32.81 2.51Zm-15.21 0h11.56L15.7 15.17h-12zM30.43 45.5H2.49V17.67h27.94zm2.5-.91V16.93L45.49 4.28v28.65zm-4.86-24.12H15.93V29h12.14zm-2.5 6.03h-7.14v-3.53h7.14z"/></symbol><symbol id="s64" viewBox="0 0 64 64"><path d="M22.22 0 0 20.41h-.02v43.58h43.73l20.26-18.64V0zm21.54 2.75h15.55L41.77 20.42h-16.8zm-20.47 0h16.46L20.96 20.42H4.07zm17.68 58.5H2.74V23.16h38.23v38.08Zm2.75-.99V22.35L61.24 4.71v39.44zm-6.54-32.71H21.45v10.86h15.73zm-2.75 8.12H24.2v-5.36h10.23z"/></symbol><use style="display: var(--s16, none)" href="#s16"/><use style="display: var(--s24, none)" href="#s24"/><use style="display: var(--s32, none)" href="#s32"/><use style="display: var(--s40, none)" href="#s40"/><use style="display: var(--s48, none)" href="#s48"/><use style="display: var(--s64, none)" href="#s64"/></symbol></defs><style>@media (max-width: 23.98px) {g{--s16:block;}}@media (min-width: 24px) and (max-width: 31.98px) {g{--s24:block;}}@media (min-width: 32px) and (max-width: 39.98px) {g{--s32:block;}}@media (min-width: 40px) and (max-width: 47.98px) {g{--s40:block;}}@media (min-width: 48px) and (max-width: 63.98px) {g{--s48:block;}}@media (min-width: 64px) {g{--s64:block;}}</style><g><use href="#i-parcel"/></g></svg>