<svg xmlns="http://www.w3.org/2000/svg"><defs><symbol id="i-parcel-solid"><symbol id="s16" viewBox="0 0 16 16"><path d="m14.97 0-4.3 4.34H6.91L11.43 0zm-3.24 5.39v10.59l4.28-4.65V1.08zM9.27 0H5.68L.75 4.34h3.99zM0 5.83h10.22V16H0zm5.7 4.32h2.74V7.41H5.7z"/></symbol><symbol id="s24" viewBox="0 0 24 24"><path d="M0 24h15.48V8.58H0zm9.79-13h3.59v3.58H9.79zM22.78 0 16 6.83H9.81L17.07 0zM7.25 6.84H.81L8.45 0h6.06L7.24 6.83ZM24 1.25v15.74l-6.77 6.44V8.07z"/></symbol><symbol id="s32" viewBox="0 0 32 32"><path d="M11.38 15.7h4.8v2.53h-4.8zM.01 11.32h20.74v20.67H.01zm9.37 8.92h8.8v-6.53h-8.8zm13.37-9.51v20.59l9.26-8.69V1.41zM22.63-.01 12.7 9.32h8.64l9.27-9.33zm-2.92 0h-8.46L.91 9.32h8.86z"/></symbol><symbol id="s40" viewBox="0 0 40 40"><path d="M0 39.95h26.02V14.04H0v25.92Zm11.89-23.24h11.2v7.85h-11.2zm2.25 2.25h6.7v3.35h-6.7zm-1.82-7.17H1.02L14.06-.05H24.9L12.32 11.78ZM40 1.56v26.71L28.27 39.21V13.38zM38.42-.05 26.67 11.78H15.6L28.19-.05h10.24Z"/></symbol><symbol id="s48" viewBox="0 0 48 48"><path d="M17.7 22.7h8.2v4.19h-8.2zM0 16.82h31.29v31.17H0zm15.2 12.57h13.2V20.2H15.2zM33.76-.02 18.52 14.31h13.51L46.26-.02zm.04 16.1v31.08l14.21-13.2V1.76zM30.11-.02H16.88L1.14 14.32h13.72z"/></symbol><symbol id="s64" viewBox="0 0 64 64"><path d="M0 64h41.91V22.25H0zm20.63-36.72h16.89v11.59H20.63zm2.75 2.75h11.4v6.09h-11.4zM20.02 19.5H1.24L22.46 0h18.3zM63.99 1.96V45.3L44.65 63.09V21.44zM62.06 0 42.7 19.5H24.02L44.77 0h17.3Z"/></symbol><use style="display: var(--s16, none)" href="#s16"/><use style="display: var(--s24, none)" href="#s24"/><use style="display: var(--s32, none)" href="#s32"/><use style="display: var(--s40, none)" href="#s40"/><use style="display: var(--s48, none)" href="#s48"/><use style="display: var(--s64, none)" href="#s64"/></symbol></defs><style>@media (max-width: 23.98px) {g{--s16:block;}}@media (min-width: 24px) and (max-width: 31.98px) {g{--s24:block;}}@media (min-width: 32px) and (max-width: 39.98px) {g{--s32:block;}}@media (min-width: 40px) and (max-width: 47.98px) {g{--s40:block;}}@media (min-width: 48px) and (max-width: 63.98px) {g{--s48:block;}}@media (min-width: 64px) {g{--s64:block;}}</style><g><use href="#i-parcel-solid"/></g></svg>