<svg xmlns="http://www.w3.org/2000/svg"><defs><symbol id="i-pause"><symbol id="s16" viewBox="0 0 16 16"><path d="M6.16 2v12c0 .41-.34.75-.75.75s-.75-.34-.75-.75V2c0-.41.34-.75.75-.75s.75.34.75.75m4.57-.75c-.41 0-.75.34-.75.75v12c0 .41.34.75.75.75s.75-.34.75-.75V2c0-.41-.34-.75-.75-.75"/></symbol><symbol id="s24" viewBox="0 0 24 24"><path d="M8.93 3v18c0 .48-.39.88-.88.88s-.88-.39-.88-.88V3c0-.48.39-.88.88-.88s.88.39.88.88m7.11-.88c-.48 0-.88.39-.88.88v18c0 .48.39.88.88.88s.88-.39.88-.88V3c0-.48-.39-.88-.88-.88"/></symbol><symbol id="s32" viewBox="0 0 32 32"><path d="M11.75 4v24c0 .55-.45 1-1 1s-1-.45-1-1V4c0-.55.45-1 1-1s1 .45 1 1m9.64-1c-.55 0-1 .45-1 1v24c0 .55.45 1 1 1s1-.45 1-1V4c0-.55-.45-1-1-1"/></symbol><symbol id="s40" viewBox="0 0 40 40"><path d="M14.57 4.99v30c0 .62-.5 1.12-1.12 1.12s-1.12-.5-1.12-1.12v-30c0-.62.5-1.12 1.12-1.12s1.12.5 1.12 1.12m12.17-1.13c-.62 0-1.12.5-1.12 1.12v30c0 .62.5 1.12 1.12 1.12s1.12-.5 1.12-1.12V4.99c0-.62-.5-1.12-1.12-1.12Z"/></symbol><symbol id="s48" viewBox="0 0 48 48"><path d="M17.39 6.04v36a1.25 1.25 0 0 1-2.5 0v-36a1.25 1.25 0 0 1 2.5 0m14.7-1.25c-.69 0-1.25.56-1.25 1.25v36a1.25 1.25 0 0 0 2.5 0v-36c0-.69-.56-1.25-1.25-1.25"/></symbol><symbol id="s64" viewBox="0 0 64 64"><path d="M22.9 7.99v48c0 .76-.62 1.38-1.38 1.38s-1.38-.62-1.38-1.38v-48c0-.76.62-1.38 1.38-1.38s1.38.62 1.38 1.38m19.89-1.37c-.76 0-1.38.62-1.38 1.38v48c0 .76.62 1.38 1.38 1.38s1.38-.62 1.38-1.38V7.99c0-.76-.62-1.38-1.38-1.38Z"/></symbol><use style="display: var(--s16, none)" href="#s16"/><use style="display: var(--s24, none)" href="#s24"/><use style="display: var(--s32, none)" href="#s32"/><use style="display: var(--s40, none)" href="#s40"/><use style="display: var(--s48, none)" href="#s48"/><use style="display: var(--s64, none)" href="#s64"/></symbol></defs><style>@media (max-width: 23.98px) {g{--s16:block;}}@media (min-width: 24px) and (max-width: 31.98px) {g{--s24:block;}}@media (min-width: 32px) and (max-width: 39.98px) {g{--s32:block;}}@media (min-width: 40px) and (max-width: 47.98px) {g{--s40:block;}}@media (min-width: 48px) and (max-width: 63.98px) {g{--s48:block;}}@media (min-width: 64px) {g{--s64:block;}}</style><g><use href="#i-pause"/></g></svg>