<svg xmlns="http://www.w3.org/2000/svg"><defs><symbol id="i-pause-solid"><symbol id="s16" viewBox="0 0 16 16"><path d="M6.65 1.99v12a1.25 1.25 0 0 1-2.5 0v-12a1.25 1.25 0 0 1 2.5 0M10.72.74c-.69 0-1.25.56-1.25 1.25v12a1.25 1.25 0 0 0 2.5 0v-12c0-.69-.56-1.25-1.25-1.25"/></symbol><symbol id="s24" viewBox="0 0 24 24"><path d="M9.6 2.99v18c0 .83-.67 1.5-1.5 1.5s-1.5-.67-1.5-1.5v-18c0-.83.67-1.5 1.5-1.5s1.5.67 1.5 1.5m6.47-1.5c-.83 0-1.5.67-1.5 1.5v18c0 .83.67 1.5 1.5 1.5s1.5-.67 1.5-1.5v-18c0-.83-.67-1.5-1.5-1.5"/></symbol><symbol id="s32" viewBox="0 0 32 32"><path d="M12.54 4v24c0 .97-.78 1.75-1.75 1.75S9.04 28.97 9.04 28V4c0-.97.78-1.75 1.75-1.75s1.75.78 1.75 1.75m8.88-1.75c-.97 0-1.75.78-1.75 1.75v24c0 .97.78 1.75 1.75 1.75s1.75-.78 1.75-1.75V4c0-.97-.78-1.75-1.75-1.75"/></symbol><symbol id="s40" viewBox="0 0 40 40"><path d="M15.48 4.94v30c0 1.1-.9 2-2 2s-2-.9-2-2v-30c0-1.1.9-2 2-2s2 .9 2 2m11.3-2c-1.1 0-2 .9-2 2v30c0 1.1.9 2 2 2s2-.9 2-2v-30c0-1.1-.9-2-2-2"/></symbol><symbol id="s48" viewBox="0 0 48 48"><path d="M18.42 5.99v36c0 1.24-1.01 2.25-2.25 2.25s-2.25-1.01-2.25-2.25v-36c0-1.24 1.01-2.25 2.25-2.25s2.25 1.01 2.25 2.25m13.71-2.25c-1.24 0-2.25 1.01-2.25 2.25v36c0 1.24 1.01 2.25 2.25 2.25s2.25-1.01 2.25-2.25v-36c0-1.24-1.01-2.25-2.25-2.25"/></symbol><symbol id="s64" viewBox="0 0 64 64"><path d="M24.06 7.98v48a2.5 2.5 0 0 1-5 0v-48a2.5 2.5 0 0 1 5 0m18.77-2.5a2.5 2.5 0 0 0-2.5 2.5v48a2.5 2.5 0 0 0 5 0v-48a2.5 2.5 0 0 0-2.5-2.5"/></symbol><use style="display: var(--s16, none)" href="#s16"/><use style="display: var(--s24, none)" href="#s24"/><use style="display: var(--s32, none)" href="#s32"/><use style="display: var(--s40, none)" href="#s40"/><use style="display: var(--s48, none)" href="#s48"/><use style="display: var(--s64, none)" href="#s64"/></symbol></defs><style>@media (max-width: 23.98px) {g{--s16:block;}}@media (min-width: 24px) and (max-width: 31.98px) {g{--s24:block;}}@media (min-width: 32px) and (max-width: 39.98px) {g{--s32:block;}}@media (min-width: 40px) and (max-width: 47.98px) {g{--s40:block;}}@media (min-width: 48px) and (max-width: 63.98px) {g{--s48:block;}}@media (min-width: 64px) {g{--s64:block;}}</style><g><use href="#i-pause-solid"/></g></svg>