<svg xmlns="http://www.w3.org/2000/svg"><defs><symbol id="i-picture-solid"><symbol id="s16" viewBox="0 0 16 16"><path d="m8.17 9.54 3.01-1.24L13 9.46V3.02H3v4.43l1.19-1.89 3.99 3.99Zm2.46-5.65c.83 0 1.5.67 1.5 1.5s-.67 1.5-1.5 1.5-1.5-.67-1.5-1.5.67-1.5 1.5-1.5M0 0v16h16V0zm14.5 14.5h-13V1.52h13.01V14.5ZM13 13H3v-2.73l1.46-2.33 3.37 3.36 3.22-1.32 1.97 1.26v1.75Z"/></symbol><symbol id="s24" viewBox="0 0 24 24"><path d="M20.5 20.45h-17v-4.89l2.66-4.24 5.62 5.62 5.19-2.13 3.52 2.25v3.38ZM5.85 8.53 3.5 12.27V3.51h16.99V15l-3.34-2.13-4.95 2.03-6.35-6.36Zm8.34-.81a2.1 2.1 0 1 0 4.2 0 2.1 2.1 0 0 0-4.2 0M24 0v24H0V0zm-1.75 1.76H1.75v20.45h20.49V1.76Z"/></symbol><symbol id="s32" viewBox="0 0 32 32"><path d="M27.99 27.97H4.01v-7.13l3.85-6.14 7.88 7.88 7.17-2.93 5.07 3.24v5.09ZM7.51 11.51l-3.5 5.58V3.99h23.98v16.52l-4.86-3.11-6.9 2.82zm11.74-1.46c0 1.48 1.21 2.69 2.69 2.69s2.69-1.21 2.69-2.69-1.21-2.69-2.69-2.69-2.69 1.21-2.69 2.69M32 0v32H0V0zm-2.01 1.99H2.01v27.98h27.98z"/></symbol><symbol id="s40" viewBox="0 0 40 40"><path d="M35.49 35.47H4.51v-9.32s.03-.02.04-.04l5.03-8.02 10.15 10.15 9.15-3.74 6.62 4.23v6.74ZM9.17 14.5l-4.66 7.43V4.49h30.98v21.57l-6.39-4.08-8.84 3.62L9.17 14.51Zm15.14-2.12c0 1.81 1.48 3.29 3.29 3.29s3.29-1.48 3.29-3.29-1.48-3.29-3.29-3.29-3.29 1.48-3.29 3.29M40 0v40H0V0zm-2.26 2.24H2.26v35.48h35.48z"/></symbol><symbol id="s48" viewBox="0 0 48 48"><path d="m24.29 30.9 10.77-4.41 7.91 5.05V4.96H5.03v21.76l5.81-9.26L24.28 30.9Zm8.96-20.1c2.14 0 3.88 1.74 3.88 3.88s-1.74 3.88-3.88 3.88-3.89-1.74-3.89-3.88 1.74-3.88 3.89-3.88m9.72 32.09H5.03v-11.5s.05-.04.06-.07l6.2-9.88 12.4 12.4 11.11-4.55 8.13 5.2s.02 0 .03.01v8.39ZM0-.05v48h48v-48zm45.47 45.44H2.53V2.46h42.93v42.93Z"/></symbol><symbol id="s64" viewBox="0 0 64 64"><path d="M58.44 58.39H5.56v-16.3c.04-.05.1-.09.14-.15l8.76-13.96 17.2 17.2 15.24-6.24 11.34 7.25c.06.04.13.06.2.09zM13.96 23.6l-8.4 13.39V5.52h52.87v37.54l-11.26-7.19-14.87 6.09zm25.77-4.35c0 2.76 2.24 5 5 5s5-2.24 5-5-2.24-5-5-5-5 2.24-5 5M64 0v63.99H0V0zm-2.81 2.77H2.81v58.37h58.37V2.77Z"/></symbol><use style="display: var(--s16, none)" href="#s16"/><use style="display: var(--s24, none)" href="#s24"/><use style="display: var(--s32, none)" href="#s32"/><use style="display: var(--s40, none)" href="#s40"/><use style="display: var(--s48, none)" href="#s48"/><use style="display: var(--s64, none)" href="#s64"/></symbol></defs><style>@media (max-width: 23.98px) {g{--s16:block;}}@media (min-width: 24px) and (max-width: 31.98px) {g{--s24:block;}}@media (min-width: 32px) and (max-width: 39.98px) {g{--s32:block;}}@media (min-width: 40px) and (max-width: 47.98px) {g{--s40:block;}}@media (min-width: 48px) and (max-width: 63.98px) {g{--s48:block;}}@media (min-width: 64px) {g{--s64:block;}}</style><g><use href="#i-picture-solid"/></g></svg>