<svg xmlns="http://www.w3.org/2000/svg"><defs><symbol id="i-picture"><symbol id="s16" viewBox="0 0 16 16"><path d="M0 0v16h16V0zm14.5 14.5h-13v-2.33L3.99 8.2l3.83 3.83 3.61-1.48 3.07 1.96zm-2.92-5.63-3.41 1.4L3.72 5.8 1.5 9.34V1.5h13v9.22l-2.91-1.86ZM10.95 2C9.39 2 8.13 3.27 8.13 4.82s1.27 2.82 2.82 2.82 2.82-1.27 2.82-2.82S12.5 2 10.95 2m0 4.14c-.73 0-1.32-.59-1.32-1.32s.59-1.32 1.32-1.32 1.32.59 1.32 1.32-.59 1.32-1.32 1.32"/></symbol><symbol id="s24" viewBox="0 0 24 24"><path d="M0 0v24h24V0zm22.25 22.25H1.75v-3.93l4.05-6.46 5.99 5.99 5.5-2.25 4.95 3.17v3.49Zm-4.78-8.61L12.2 15.8 5.48 9.08l-3.73 5.95V1.75h20.5v14.93l-4.78-3.05Zm-.44-11.08c-2.24 0-4.05 1.82-4.05 4.05s1.82 4.05 4.05 4.05 4.05-1.82 4.05-4.05-1.82-4.05-4.05-4.05m0 6.36a2.3 2.3 0 1 1 0-4.6 2.3 2.3 0 0 1 0 4.6"/></symbol><symbol id="s32" viewBox="0 0 32 32"><path d="M0 0v32h32V0zm30 30H2v-6.53l5.61-8.94 8.15 8.15 7.39-3.03 6.84 4.37V30Zm-6.64-12.59-7.12 2.92-8.99-8.99L2 19.71V2h28v19.65zm-.25-13.78c-2.91 0-5.29 2.37-5.29 5.29s2.37 5.29 5.29 5.29 5.29-2.37 5.29-5.29-2.37-5.29-5.29-5.29m0 8.57c-1.81 0-3.29-1.47-3.29-3.29s1.47-3.29 3.29-3.29 3.29 1.47 3.29 3.29-1.47 3.29-3.29 3.29"/></symbol><symbol id="s40" viewBox="0 0 40 40"><path d="M0 0v40h40V0zm37.75 37.75H2.25v-8.64l7.17-11.43L19.74 28l9.29-3.8 8.73 5.58v7.97Zm-8.5-16.07-8.98 3.68L9.01 14.1 2.25 24.88V2.25h35.5v24.86zM29.19 3.7c-3.59 0-6.52 2.92-6.52 6.52a6.521 6.521 0 0 0 13.04 0c0-3.6-2.92-6.52-6.52-6.52m0 10.79c-2.35 0-4.27-1.91-4.27-4.27s1.91-4.27 4.27-4.27 4.27 1.91 4.27 4.27-1.91 4.27-4.27 4.27"/></symbol><symbol id="s48" viewBox="0 0 48 48"><path d="M0 0v48h48V0zm45.51 45.52H2.49V33.97l8.73-13.92L23.7 32.54l11.18-4.58 10.63 6.79v10.78ZM35.14 25.16 24.3 29.6 10.78 16.08 2.49 29.29V2.49h43.03v29.29l-10.37-6.63Zm.62-20.88c-4.27 0-7.75 3.47-7.75 7.75a7.75 7.75 0 1 0 7.75-7.75m0 13.01c-2.9 0-5.26-2.36-5.26-5.26s2.36-5.26 5.26-5.26 5.26 2.36 5.26 5.26-2.36 5.26-5.26 5.26"/></symbol><symbol id="s64" viewBox="0 0 64 64"><path d="M0 0v63.99h64V0zm61.25 61.24H2.75V42.31l12-19.13 16.93 16.93 15.01-6.15 14.57 9.31v17.97ZM46.96 30.88l-14.63 5.99L14.26 18.8 2.75 37.14V2.74h58.5V40l-14.29-9.13Zm.87-25.13c-5.58 0-10.13 4.54-10.13 10.12S42.24 26 47.83 26s10.13-4.54 10.13-10.13S53.42 5.75 47.83 5.75m0 17.5c-4.07 0-7.37-3.31-7.37-7.37s3.31-7.37 7.37-7.37 7.37 3.31 7.37 7.37-3.31 7.37-7.37 7.37"/></symbol><use style="display: var(--s16, none)" href="#s16"/><use style="display: var(--s24, none)" href="#s24"/><use style="display: var(--s32, none)" href="#s32"/><use style="display: var(--s40, none)" href="#s40"/><use style="display: var(--s48, none)" href="#s48"/><use style="display: var(--s64, none)" href="#s64"/></symbol></defs><style>@media (max-width: 23.98px) {g{--s16:block;}}@media (min-width: 24px) and (max-width: 31.98px) {g{--s24:block;}}@media (min-width: 32px) and (max-width: 39.98px) {g{--s32:block;}}@media (min-width: 40px) and (max-width: 47.98px) {g{--s40:block;}}@media (min-width: 48px) and (max-width: 63.98px) {g{--s48:block;}}@media (min-width: 64px) {g{--s64:block;}}</style><g><use href="#i-picture"/></g></svg>