<svg xmlns="http://www.w3.org/2000/svg"><defs><symbol id="i-piggybank-solid"><symbol id="s16" viewBox="0 0 16 16"><path d="M1.19 2.63C1.19 1.18 2.36 0 3.8 0s2.61 1.18 2.61 2.62S5.24 5.25 3.8 5.25c-.16 0-.32-.02-.47-.05-.06-.01-.12-.03-.19-.05-.08-.02-.16-.05-.24-.08s-.15-.06-.23-.1c-.05-.02-.1-.05-.15-.08a2.62 2.62 0 0 1-1.34-2.28Zm14.78 3.74-.4 3.17c-.05.42-.37.76-.77.84l-.04.02c-.84.09-2.11.01-3.79-.71a.745.745 0 1 0-.59 1.37c.92.4 1.75.61 2.48.73v.01l.78 1.46c.16.28.19.64.08.97-.12.36-.4.66-.76.81l-1.95.83c-.18.08-.36.11-.54.11-.45 0-.87-.23-1.09-.62l-.43-.8c-.95.22-1.93.22-2.89-.02l-.4.79c-.33.58-1.03.8-1.65.53l-1.94-.83c-.36-.16-.64-.45-.76-.81-.11-.33-.08-.69.09-.99l.78-1.52c-.43-.69-.71-1.44-.85-2.22H1.3c-.4 0-.77-.2-1.01-.56-.2-.3-.31-.68-.31-1.14 0-.41.33-.75.75-.75.23 0 .43.11.57.28.07-.43.16-.84.31-1.24.57.37 1.24.59 1.95.64a.74.74 0 0 0 .72.96c.32 0 .62-.21.71-.53.09-.29.25-.55.45-.76.32-.14.61-.33.89-.54.35-.1.73-.1 1.09.01.39.12.81-.1.93-.5a.74.74 0 0 0-.5-.93c-.11-.03-.22-.04-.32-.07.25-.53.4-1.12.4-1.75 0-.24-.03-.48-.07-.71.13 0 .25 0 .39.02L10.58.2c.24-.21.65-.27 1-.11.34.16.57.51.57.89v2.93c.39.41.72.87.98 1.37h1.88c.28 0 .54.12.73.33.18.21.27.49.24.77Zm-4.59.77a.98.98 0 0 0-.97-.98.98.98 0 0 0 0 1.96c.53 0 .97-.44.97-.98"/></symbol><symbol id="s24" viewBox="0 0 24 24"><path d="M2.08 3.82C2.08 1.7 3.8-.02 5.92-.02s3.84 1.73 3.84 3.85-1.72 3.84-3.84 3.84c-.24 0-.47-.03-.69-.07-.1-.02-.2-.05-.3-.08-.11-.03-.22-.06-.32-.1-.13-.05-.26-.1-.38-.17-.06-.03-.11-.06-.16-.09C2.9 6.5 2.1 5.26 2.1 3.82Zm21.87 5.66-.61 4.86c-.07.54-.48.96-1 1.05l-1.14.45c-1.2 0-2.8-.24-4.77-1.09a.873.873 0 0 0-1.15.46c-.19.45.02.96.46 1.15 1.34.58 2.55.91 3.61 1.08-.08.13-.15.26-.24.39l1.27 2.38c.21.37.25.84.1 1.27-.16.48-.53.87-1.01 1.08l-2.98 1.27q-.36.15-.72.15c-.59 0-1.15-.29-1.44-.81l-.75-1.4c-1.55.4-3.16.39-4.71-.03l-.72 1.4c-.43.76-1.36 1.05-2.18.69l-2.98-1.27c-.48-.21-.85-.6-1.02-1.08-.15-.43-.1-.91.12-1.29l1.27-2.48a9.6 9.6 0 0 1-1.41-3.68c-.09.02-.17.03-.26.03-.52 0-1.01-.27-1.33-.74-.28-.41-.42-.95-.42-1.59 0-.48.39-.88.87-.88s.87.39.87.88c0 .14.01.26.03.35.02-.09.04-.21.04-.36 0-.18.06-.33.15-.47a9.5 9.5 0 0 1 .82-2.81c.85.59 1.88.94 2.99.98-.12.24-.23.48-.31.74-.14.46.12.95.58 1.09.08.03.17.04.25.04.37 0 .72-.24.84-.62.25-.83.81-1.51 1.58-1.92.76-.41 1.64-.49 2.47-.24.46.14.95-.12 1.09-.58a.875.875 0 0 0-.58-1.09c-.31-.09-.61-.15-.92-.18.48-.83.77-1.79.77-2.82 0-.3-.03-.6-.08-.89.32 0 .64.02.99.07L16.08.29c.32-.28.82-.35 1.26-.14.44.2.71.63.71 1.12v4.6c.65.68 1.19 1.43 1.61 2.26h3.04c.35 0 .69.15.92.42.23.26.34.61.29.96Zm-6.69.93c0-.67-.55-1.22-1.22-1.22s-1.22.55-1.22 1.22.55 1.22 1.22 1.22 1.22-.55 1.22-1.22"/></symbol><symbol id="s32" viewBox="0 0 32 32"><path d="M2.42 5.22c0-2.89 2.34-5.24 5.23-5.24 2.53 0 4.65 1.82 5.12 4.24.06.33.1.66.1 1 0 2.89-2.34 5.24-5.23 5.24a4.8 4.8 0 0 1-1.26-.18c-.19-.05-.37-.1-.55-.17-.13-.05-.25-.1-.37-.15-.15-.07-.29-.15-.44-.24-1.54-.91-2.6-2.58-2.6-4.5m29.52 7.34-.82 6.56c-.08.65-.58 1.16-1.21 1.27l-1.1.44c-1.4.23-3.72.23-6.88-1.13a1 1 0 0 0-1.31.53c-.22.51.02 1.1.52 1.31 1.86.8 3.49 1.18 4.87 1.33-.19.33-.38.66-.6.98l1.76 3.3c.26.46.31 1.03.13 1.58-.2.6-.66 1.09-1.27 1.35l-4.02 1.71c-.3.13-.6.19-.9.19-.74 0-1.42-.36-1.79-1l-1.08-2.01c-2.15.58-4.39.56-6.53-.04l-1.03 2.02c-.53.94-1.69 1.29-2.71.85l-4.02-1.72c-.6-.26-1.07-.75-1.27-1.35-.18-.54-.13-1.11.14-1.6l1.76-3.45c-1.04-1.58-1.7-3.33-1.97-5.18-.16.04-.33.07-.49.07-.64 0-1.24-.33-1.64-.92-.36-.53-.54-1.22-.54-2.05 0-.55.45-1 1-1s1 .45 1 1c0 .68.19.94.24.97 0-.04.22-.34.22-.99 0-.22.08-.4.2-.57.17-1.32.54-2.59 1.08-3.75 1.14.75 2.5 1.2 3.96 1.2h.11c-.18.34-.33.71-.45 1.09-.16.53.14 1.09.66 1.25a1.014 1.014 0 0 0 1.25-.67c.73-2.41 3.28-3.78 5.68-3.04.53.16 1.08-.14 1.25-.67.16-.53-.14-1.09-.66-1.25-.54-.17-1.09-.25-1.63-.27a7.2 7.2 0 0 0 1.01-3.68c0-.44-.05-.87-.12-1.28.1 0 .2-.02.31-.02.49 0 1 .04 1.56.11L21.66.31c.38-.34.99-.42 1.52-.18s.86.76.86 1.34v6.28c.91.94 1.66 2 2.24 3.16h4.21a1.48 1.48 0 0 1 1.46 1.65Zm-8.75.81c0-.97-.78-1.75-1.75-1.75s-1.75.79-1.75 1.75.78 1.75 1.75 1.75 1.75-.79 1.75-1.75"/></symbol><symbol id="s40" viewBox="0 0 40 40"><path d="M3 6.48C3 2.88 5.93-.05 9.53-.05s6.53 2.93 6.53 6.54-2.93 6.54-6.53 6.54c-.31 0-.61-.03-.91-.07-.07 0-.13-.02-.2-.03q-.45-.075-.87-.21h-.01c-.29-.09-.56-.21-.83-.34-.04-.02-.07-.04-.11-.05C4.47 11.25 3 9.05 3 6.5Zm36.98 9.15-1.03 8.25c-.1.77-.69 1.36-1.43 1.48l-1.15.46c-1.95.35-4.89.25-8.52-1.83a1.13 1.13 0 0 0-1.12 1.96c2.23 1.28 4.25 1.91 6.02 2.16-.31.6-.64 1.18-1.02 1.73l2.26 4.23c.31.55.37 1.23.15 1.88-.24.72-.8 1.31-1.53 1.61l-5.07 2.16c-.36.15-.73.22-1.09.22-.88 0-1.71-.43-2.14-1.2l-1.4-2.62c-2.76.75-5.63.74-8.38-.06l-1.36 2.64c-.63 1.12-2.02 1.54-3.25 1.01l-5.07-2.16c-.73-.31-1.28-.9-1.53-1.61a2.3 2.3 0 0 1 .17-1.9l2.26-4.42a15.74 15.74 0 0 1-2.52-6.67c-.2.06-.41.1-.61.1-.77 0-1.48-.4-1.96-1.09-.44-.64-.66-1.48-.66-2.5 0-.62.5-1.13 1.13-1.13s1.13.5 1.13 1.13c0 .99.32 1.32.38 1.34.09-.02.47-.38.47-1.36 0-.14.03-.28.08-.41.21-1.85.73-3.61 1.52-5.22 1.39.92 3.05 1.46 4.84 1.46.12 0 .24-.01.36-.02-.3.52-.55 1.08-.73 1.68-.18.59.15 1.22.75 1.4a1.13 1.13 0 0 0 1.41-.75c.94-3.11 4.24-4.87 7.34-3.92.6.18 1.22-.15 1.4-.75s-.15-1.22-.75-1.4c-.78-.24-1.58-.35-2.36-.35a8.7 8.7 0 0 0 1.36-4.67c0-.53-.05-1.04-.14-1.54.21 0 .42-.03.64-.03.63 0 1.29.05 2 .14L27.22.33c.45-.39 1.16-.49 1.78-.21.62.29 1 .89 1 1.57v7.96c1.17 1.2 2.14 2.56 2.88 4.06h5.4c.49 0 .96.21 1.28.58.33.37.48.86.42 1.35Zm-11.57.55c-.02-.57-.26-1.09-.67-1.48-.42-.39-.94-.59-1.53-.57a2.131 2.131 0 0 0-1.38 3.68c.4.37.91.57 1.45.57h.08a2.117 2.117 0 0 0 2.05-2.2"/></symbol><symbol id="s48" viewBox="0 0 48 48"><path d="M3.69 7.92C3.69 3.55 7.24 0 11.6 0c4.06 0 7.41 3.08 7.86 7.03v.03c.03.28.05.57.05.87 0 4.37-3.55 7.92-7.91 7.92-.4 0-.78-.04-1.16-.1l-.21-.03c-.38-.07-.75-.16-1.11-.28-.02 0-.04-.01-.05-.02-.77-.26-1.49-.64-2.13-1.11-1.96-1.44-3.25-3.76-3.25-6.38Zm44.29 10.79-1.24 9.95c-.11.88-.8 1.57-1.65 1.7l-2.41.96c-2.35.16-5.51-.28-9.28-2.44-.6-.34-1.36-.14-1.71.46-.34.6-.14 1.36.46 1.71 2.64 1.51 5.03 2.28 7.14 2.61-.39.76-.81 1.5-1.29 2.2l2.75 5.16c.36.64.43 1.43.18 2.18-.28.84-.93 1.52-1.78 1.88l-6.12 2.6c-.42.18-.85.26-1.27.26-1.02 0-1.98-.5-2.48-1.39l-1.73-3.24c-3.35.94-6.84.92-10.19-.06l-.17.35c-.03.07-.08.12-.12.18l-1.4 2.73c-.73 1.3-2.35 1.78-3.78 1.17l-6.12-2.6c-.85-.36-1.5-1.05-1.78-1.88-.25-.75-.19-1.54.19-2.21l2.76-5.39a19.06 19.06 0 0 1-3.07-8.18c-.27.09-.55.15-.83.15-.89 0-1.72-.46-2.27-1.27-.51-.76-.77-1.75-.77-2.96a1.25 1.25 0 0 1 2.5 0c0 .91.21 1.36.34 1.54.09.13.17.18.21.18.15 0 .69-.44.69-1.75 0-.17.04-.33.1-.47.25-2.26.9-4.41 1.87-6.36a10.36 10.36 0 0 0 5.91 1.85c.1 0 .2-.01.31-.02-.36.63-.66 1.3-.87 2-.2.66.17 1.36.83 1.56.12.04.24.05.36.05.54 0 1.03-.35 1.2-.89a7.14 7.14 0 0 1 2.74-3.79c.42-.21.83-.43 1.22-.69 1.58-.71 3.35-.83 5.03-.32a1.25 1.25 0 0 0 .73-2.39c-.9-.27-1.82-.41-2.73-.42 1.01-1.6 1.6-3.49 1.6-5.52 0-.68-.07-1.34-.19-1.98.25 0 .49-.04.74-.04.77 0 1.57.06 2.45.18l7.73-5.7c.52-.45 1.33-.56 2.04-.23s1.14 1.01 1.14 1.79v9.64c1.44 1.46 2.61 3.12 3.51 4.95h6.58a1.964 1.964 0 0 1 1.95 2.2Zm-13.95.89c-.05-1.35-1.21-2.43-2.54-2.37-.66.02-1.26.3-1.71.78a2.45 2.45 0 0 0-.66 1.76 2.465 2.465 0 0 0 2.45 2.37h.09a2.47 2.47 0 0 0 2.37-2.54"/></symbol><symbol id="s64" viewBox="0 0 64 64"><path d="M4.92 10.6C4.92 4.76 9.67 0 15.51 0c5.45 0 9.95 4.14 10.53 9.45v.02q.06.555.06 1.14c0 5.85-4.75 10.61-10.6 10.61-.33 0-.66-.02-.98-.05-.12-.01-.23-.03-.34-.04-.2-.03-.4-.05-.6-.09l-.42-.09-.47-.12c-.16-.04-.32-.09-.48-.14l-.24-.09c-.7-.25-1.36-.57-1.98-.95l-.06-.03c-.22-.14-.44-.29-.65-.44-2.64-1.93-4.37-5.05-4.37-8.56Zm59.06 14.3-1.67 13.4c-.09.72-.51 1.32-1.09 1.68-.19.09-.4.18-.64.28-.09.02-.18.05-.27.06l-.75.3c-2.94.9-8.22 1.42-15.06-2.5a1.376 1.376 0 1 0-1.37 2.39c3.63 2.09 6.9 3.04 9.71 3.37-.65 1.44-1.44 2.82-2.35 4.12l3.8 7.11c.45.8.53 1.76.22 2.69-.35 1.04-1.16 1.9-2.23 2.35l-8.23 3.5c-.52.22-1.06.33-1.59.33-1.27 0-2.45-.62-3.07-1.71l-2.45-4.57c-4.55 1.32-9.31 1.3-13.87-.05l-.33.66c-.12.24-.3.43-.52.57l-1.72 3.34c-.9 1.6-2.91 2.2-4.69 1.43l-8.23-3.5c-1.06-.45-1.87-1.31-2.23-2.35-.31-.93-.23-1.9.24-2.72l3.8-7.43a25.3 25.3 0 0 1-4.23-11.41c-.44.21-.91.32-1.38.32-1.1 0-2.12-.58-2.8-1.58-.64-.96-.98-2.27-.98-3.81 0-.76.62-1.38 1.37-1.38s1.37.62 1.37 1.38c0 1.31.32 1.97.51 2.25.1.14.3.38.53.38.43 0 1.24-.78 1.24-2.66 0-.2.05-.39.12-.56.35-3.23 1.3-6.28 2.73-9.03a13.24 13.24 0 0 0 7.63 2.42c.29 0 .58-.03.87-.04-.65.99-1.18 2.09-1.54 3.28-.22.73.19 1.5.91 1.72a1.365 1.365 0 0 0 1.71-.92c1.61-5.28 7.21-8.27 12.48-6.67a1.38 1.38 0 0 0 .81-2.64c-1.42-.43-2.85-.59-4.26-.53 1.48-2.15 2.36-4.76 2.36-7.56 0-.88-.09-1.73-.25-2.56.48-.03.97-.05 1.46-.05 1.05 0 2.16.08 3.37.26L43.95.5c.7-.57 1.64-.69 2.46-.31.84.39 1.37 1.21 1.37 2.13v13.1c1.99 2.01 3.62 4.31 4.84 6.85h9.05c.67 0 1.3.29 1.75.79s.65 1.17.57 1.83Zm-18.66.3a3.126 3.126 0 0 0-3.23-3.02 3.13 3.13 0 0 0-3.01 3.24 3.126 3.126 0 0 0 3.12 3.02h.11a3.126 3.126 0 0 0 3.01-3.23Z"/></symbol><use style="display: var(--s16, none)" href="#s16"/><use style="display: var(--s24, none)" href="#s24"/><use style="display: var(--s32, none)" href="#s32"/><use style="display: var(--s40, none)" href="#s40"/><use style="display: var(--s48, none)" href="#s48"/><use style="display: var(--s64, none)" href="#s64"/></symbol></defs><style>@media (max-width: 23.98px) {g{--s16:block;}}@media (min-width: 24px) and (max-width: 31.98px) {g{--s24:block;}}@media (min-width: 32px) and (max-width: 39.98px) {g{--s32:block;}}@media (min-width: 40px) and (max-width: 47.98px) {g{--s40:block;}}@media (min-width: 48px) and (max-width: 63.98px) {g{--s48:block;}}@media (min-width: 64px) {g{--s64:block;}}</style><g><use href="#i-piggybank-solid"/></g></svg>