<svg xmlns="http://www.w3.org/2000/svg"><defs><symbol id="i-piggybank"><symbol id="s16" viewBox="0 0 16 16"><path d="M11.38 7.14c0 .54-.44.98-.97.98a.98.98 0 0 1 0-1.96c.53 0 .97.44.97.98m4.59-.78-.4 3.17c-.05.42-.37.76-.77.84l-1.48.59c-.13.29-.28.57-.46.84l.78 1.46c.16.28.19.64.08.97-.12.36-.4.66-.76.81l-1.95.83c-.18.08-.36.11-.54.11-.45 0-.87-.23-1.09-.62l-.43-.8c-.95.22-1.93.22-2.89-.02l-.4.79c-.33.58-1.03.8-1.65.54l-1.94-.83c-.36-.16-.64-.45-.76-.81-.11-.33-.08-.69.09-.99l.78-1.52c-.43-.69-.71-1.44-.85-2.22H1.3c-.4 0-.77-.2-1.01-.56-.2-.3-.31-.68-.31-1.14 0-.41.33-.75.75-.75.23 0 .42.11.56.27.11-.74.36-1.43.7-2.07-.47-.56-.77-1.27-.77-2.06C1.22 1.45 2.64.02 4.38.02c1.29 0 2.39.77 2.89 1.88.09 0 .19-.01.28-.01.22 0 .44.01.68.04L10.58.19c.24-.21.65-.27 1-.11s.57.51.57.89V3.9c.39.41.72.87.98 1.37h1.88c.28 0 .54.12.73.33.18.21.27.49.24.77ZM2.71 3.2c0 .93.75 1.68 1.67 1.68s1.67-.75 1.67-1.68-.75-1.68-1.67-1.68-1.67.75-1.67 1.68m11.71 3.56h-2.24l-.2-.45c-.26-.59-.63-1.12-1.09-1.57l-.23-.22V1.99L8.62 3.5l-.31-.05c-.29-.05-.53-.07-.76-.07h-.02c-.02.33-.09.65-.2.95.17.02.34.05.51.1.39.12.62.54.5.94a.74.74 0 0 1-.93.5c-.49-.15-1.02-.1-1.48.14s-.79.65-.94 1.15a.747.747 0 0 1-1.43-.43c.05-.15.11-.29.18-.43-.18-.04-.35-.1-.52-.16-.32.65-.51 1.39-.51 2.17 0 1.05.33 2.06.95 2.92l.27.37-1.09 2.14 1.62.69.32-.62s0-.05.02-.07l.69-1.39c.18-.37.63-.52 1-.34s.52.63.34 1l-.07.14c.5.09 1 .09 1.5.02l-.02-.04a.75.75 0 0 1 .33-1.01c.37-.19.82-.04 1 .33l.57 1.11.46.87 1.62-.69-1.1-2.06.26-.35a3.6 3.6 0 0 1-.98-.28.745.745 0 0 1-.39-.98c.16-.38.6-.56.98-.39.75.32 1.14.15 1.16.14h.04l1.96-.79.28-2.26Z"/></symbol><symbol id="s24" viewBox="0 0 24 24"><path d="M17.26 10.4c0 .68-.55 1.23-1.22 1.23s-1.22-.55-1.22-1.23.55-1.23 1.22-1.23 1.22.55 1.22 1.23m6.69-.93-.61 4.86c-.07.54-.48.96-1 1.05l-2.4.96c-.23.52-.5 1.01-.81 1.49l1.27 2.38c.21.37.25.84.1 1.28-.16.48-.53.87-1.01 1.08l-2.98 1.27q-.36.15-.72.15c-.59 0-1.15-.3-1.44-.82l-.75-1.4c-1.55.4-3.16.39-4.71-.03l-.72 1.4c-.43.76-1.36 1.05-2.18.7l-2.98-1.27c-.48-.21-.85-.6-1.01-1.08-.15-.44-.11-.9.11-1.3l1.27-2.49a9.6 9.6 0 0 1-1.41-3.69c-.09.02-.17.03-.26.03-.52 0-1.01-.27-1.33-.74-.28-.41-.42-.95-.42-1.6 0-.49.39-.88.87-.88s.87.39.87.88c0 .14.01.26.03.35.02-.09.04-.21.04-.36 0-.17.06-.33.15-.46.16-1.25.57-2.43 1.16-3.48a4.56 4.56 0 0 1-1.23-3.11C1.86 2.11 3.92.04 6.44.04c1.92 0 3.57 1.2 4.25 2.89.2-.02.4-.03.61-.03.35 0 .72.03 1.12.08L16.11.25c.32-.28.82-.35 1.26-.14.44.2.71.63.71 1.12v4.6c.65.67 1.19 1.43 1.61 2.26h3.04c.35 0 .69.15.92.42s.34.62.29.96ZM3.61 4.64c0 1.57 1.27 2.85 2.83 2.85s2.83-1.28 2.83-2.85S8 1.79 6.44 1.79 3.61 3.07 3.61 4.64m18.53 5.2h-3.57l-.23-.53c-.41-.94-.99-1.78-1.74-2.5l-.27-.26V2.26l-3.46 2.57-.36-.06c-.46-.07-.84-.11-1.21-.11-.09 0-.18 0-.27.01 0 .69-.17 1.35-.45 1.93.36.02.72.09 1.09.2.46.14.72.63.58 1.1-.14.46-.63.73-1.09.58-.83-.25-1.71-.17-2.47.24a3.27 3.27 0 0 0-1.58 1.93.867.867 0 0 1-1.09.58.88.88 0 0 1-.58-1.1c.1-.34.24-.66.4-.96-.46-.06-.91-.19-1.31-.38-.58 1.1-.93 2.34-.93 3.68 0 1.67.52 3.28 1.51 4.63l.32.44-1.72 3.38 2.98 1.29.7-1.37 1.01-2.05c.21-.44.74-.61 1.17-.4s.61.74.4 1.18l-.26.53c1.02.22 2.05.23 3.07.03l-.19-.38a.88.88 0 0 1 .38-1.18c.43-.22.96-.05 1.18.38l1 1.96.69 1.28 2.99-1.27-1.74-3.27.34-.45c.08-.11.14-.22.22-.33-.52-.02-1.14-.14-1.87-.45a.88.88 0 0 1-.46-1.15c.19-.45.71-.65 1.15-.46 1.28.55 1.97.23 2 .22.05-.02.1-.03.15-.04v-.02l3.06-1.21.49-3.93Z"/></symbol><symbol id="s32" viewBox="0 0 32 32"><path d="M23.19 13.37c0 .97-.78 1.75-1.75 1.75s-1.75-.79-1.75-1.75.78-1.75 1.75-1.75 1.75.79 1.75 1.75m8.75-.81-.82 6.56c-.08.65-.58 1.16-1.21 1.27l-3.33 1.32c-.32.75-.71 1.46-1.17 2.14l1.76 3.3c.26.46.31 1.03.13 1.58-.2.6-.66 1.09-1.27 1.35l-4.02 1.72c-.3.13-.6.19-.9.19-.74 0-1.42-.36-1.79-1.01l-.87-1.64a.8.8 0 0 1-.15-.21l-.08-.16c-2.14.57-4.36.55-6.49-.05l-.05.1s-.04.05-.05.08l-.94 1.84c-.53.94-1.69 1.29-2.71.86l-4.02-1.72c-.6-.26-1.07-.75-1.27-1.35a1.98 1.98 0 0 1 .14-1.6l1.76-3.45c-1.04-1.58-1.7-3.33-1.97-5.18-.16.04-.33.07-.49.07-.64 0-1.24-.33-1.64-.92-.36-.53-.54-1.22-.54-2.05 0-.55.45-1 1-1s1 .45 1 1c0 .68.19.94.24.97 0-.04.22-.34.22-.99 0-.21.08-.4.19-.56.22-1.72.77-3.33 1.6-4.77a6.03 6.03 0 0 1-1.69-4.18c0-3.31 2.69-6.01 6-6.01 2.56 0 4.75 1.63 5.61 3.9.31-.03.62-.04.94-.04.49 0 1 .04 1.56.11L21.66.3c.38-.34.99-.42 1.52-.18s.86.76.86 1.34v6.28c.91.94 1.66 2 2.24 3.16h4.21a1.48 1.48 0 0 1 1.46 1.65ZM4.51 6.08c0 2.22 1.8 4.02 4 4.02s4-1.8 4-4.02-1.8-4.02-4-4.02-4 1.8-4 4.02m25.37 6.83h-4.9l-.26-.6c-.56-1.29-1.36-2.44-2.38-3.43l-.31-.3V2.51l-4.9 3.63-.41-.07c-.61-.1-1.16-.15-1.66-.15-.19 0-.37.01-.55.03v.14c0 1.02-.26 1.98-.7 2.82.56.02 1.12.1 1.68.27.53.16.82.72.66 1.25s-.71.83-1.25.67c-2.4-.73-4.95.63-5.68 3.05a1.005 1.005 0 0 1-1.25.67.997.997 0 0 1-.66-1.25c.16-.53.39-1.02.66-1.47-.77-.07-1.5-.29-2.16-.62-.85 1.54-1.33 3.31-1.33 5.2 0 2.3.72 4.49 2.07 6.36l.36.5-2.33 4.58s.04.1.15.15l4.02 1.72c.1.04.18.02.19.01l1.22-2.39 1.14-2.32c.24-.5.84-.7 1.34-.45.49.25.7.85.45 1.34l-.46.93c1.54.37 3.11.39 4.65.05l-.33-.65c-.25-.49-.06-1.1.43-1.35a.99.99 0 0 1 1.34.44l.61 1.21 1.73 3.23s.06-.01.16-.06l4.02-1.72c.12-.05.16-.13.16-.16l-2.35-4.4.39-.51c.18-.23.32-.48.48-.73h-.06c-.72 0-1.64-.15-2.71-.61-.51-.22-.74-.81-.52-1.32s.81-.75 1.31-.53c1.81.78 2.8.31 2.85.29.08-.04.17-.05.26-.07l.02-.04 4.14-1.65.7-5.61Z"/></symbol><symbol id="s40" viewBox="0 0 40 40"><path d="M27.73 14.73c.42.39.65.91.67 1.48s-.18 1.11-.57 1.53c-.39.41-.91.66-1.48.67h-.08a2.12 2.12 0 0 1-2.12-2.05c-.04-1.17.88-2.16 2.05-2.2.59-.03 1.11.18 1.53.57m12.25.93-1.03 8.26c-.1.77-.69 1.36-1.43 1.48l-4.26 1.69c-.42.97-.93 1.9-1.53 2.78l2.26 4.23c.31.55.37 1.23.15 1.88-.24.72-.8 1.31-1.53 1.61l-5.07 2.16c-.36.15-.73.22-1.09.22-.88 0-1.71-.43-2.14-1.2l-1.41-2.63c-2.75.76-5.63.74-8.38-.06l-1.36 2.64c-.64 1.12-2.02 1.53-3.25 1.01l-5.07-2.16c-.73-.31-1.28-.9-1.53-1.61-.22-.65-.16-1.33.17-1.91l2.26-4.42a15.74 15.74 0 0 1-2.52-6.67c-.2.06-.41.1-.61.1-.77 0-1.48-.4-1.96-1.09C.22 21.35 0 20.5 0 19.48c0-.62.5-1.13 1.13-1.13s1.13.5 1.13 1.13c0 .99.32 1.32.38 1.34.09-.02.47-.38.47-1.36 0-.16.03-.31.09-.44.26-2.27.98-4.39 2.08-6.27a7.45 7.45 0 0 1-2.16-5.24C3.11 3.41 6.44.07 10.54.07c3.22 0 5.95 2.06 6.99 4.92.42-.04.85-.06 1.28-.06.63 0 1.29.05 2 .14L27.22.35c.45-.39 1.16-.49 1.78-.21.62.29 1 .89 1 1.57v7.96c1.17 1.2 2.14 2.56 2.88 4.06h5.4c.49 0 .96.21 1.28.58.33.37.48.86.42 1.35M5.36 7.52c0 2.86 2.33 5.19 5.19 5.19s5.19-2.33 5.19-5.19-2.33-5.19-5.19-5.19-5.19 2.33-5.19 5.19m32.32 8.46h-6.25l-.3-.67c-.72-1.64-1.74-3.1-3.04-4.35l-.34-.33V2.75l-6.36 4.69-.47-.08c-.78-.13-1.48-.19-2.12-.19-.28 0-.56.02-.84.04 0 .1.02.2.02.3 0 1.34-.36 2.59-.98 3.68.77 0 1.54.1 2.31.33.59.18.93.81.75 1.41s-.81.93-1.4.75c-3.1-.95-6.4.81-7.34 3.92a1.12 1.12 0 0 1-1.41.75c-.59-.18-.93-.81-.75-1.41.22-.73.55-1.4.95-2.01a7.4 7.4 0 0 1-3.03-.84 13.6 13.6 0 0 0-1.76 6.72c0 2.92.91 5.71 2.64 8.08l.41.56-2.92 5.8c.03.08.12.2.27.26l5.07 2.16c.2.08.36.03.39-.01l1.23-2.4s0-.03.01-.05l1.79-3.62c.27-.56.95-.79 1.51-.51s.79.95.51 1.51l-.7 1.42c2.09.54 4.24.55 6.33.06l-.55-1.08a1.14 1.14 0 0 1 .49-1.52c.55-.28 1.23-.06 1.51.49l1.7 3.33v.01l1.27 2.37s.16.08.37-.01l5.07-2.16c.16-.07.25-.18.28-.26l-2.94-5.58.44-.57c.27-.36.51-.73.75-1.11-.07 0-.14.01-.21.01-.92 0-2.05-.23-3.31-.96-.54-.31-.72-1-.42-1.54s1-.73 1.54-.42c2.1 1.21 3.44.39 3.49.36.06-.03.12-.04.18-.07v-.03l5.25-2.08.91-7.29Z"/></symbol><symbol id="s48" viewBox="0 0 48 48"><path d="M34.03 19.64c.02.66-.21 1.28-.66 1.76s-1.06.76-1.71.78h-.09c-.62 0-1.21-.23-1.67-.66-.48-.45-.76-1.06-.78-1.71-.02-.66.21-1.28.66-1.76s1.05-.76 1.71-.78c1.33-.04 2.49 1.01 2.54 2.37m13.95-.89-1.24 9.95c-.11.88-.8 1.57-1.65 1.7l-5.19 2.06c-.51 1.2-1.14 2.35-1.89 3.43l2.75 5.16c.36.64.43 1.43.18 2.18-.28.84-.93 1.52-1.78 1.88l-6.12 2.6c-.42.18-.85.26-1.27.26-1.02 0-1.98-.5-2.48-1.39l-1.73-3.24c-3.34.93-6.84.92-10.19-.06l-.17.35c-.03.07-.08.12-.12.18l-1.4 2.73c-.73 1.3-2.35 1.78-3.78 1.17l-6.12-2.6c-.85-.36-1.5-1.05-1.78-1.88-.25-.75-.19-1.54.19-2.21l2.76-5.39a19 19 0 0 1-3.07-8.18c-.27.09-.55.15-.83.15-.89 0-1.72-.46-2.27-1.27-.52-.75-.78-1.74-.78-2.95a1.25 1.25 0 0 1 2.5 0c0 .91.21 1.36.34 1.54.09.13.17.18.21.18.15 0 .69-.44.69-1.75 0-.18.04-.35.11-.5a19 19 0 0 1 2.54-7.6 8.86 8.86 0 0 1-2.63-6.3C3.74 4.07 7.72.09 12.6.09c3.86 0 7.14 2.49 8.35 5.94.53-.05 1.06-.09 1.61-.09.77 0 1.57.06 2.45.18L32.77.4c.52-.45 1.33-.56 2.04-.24s1.15 1.01 1.15 1.79v9.64c1.44 1.46 2.61 3.12 3.51 4.95h6.58a1.964 1.964 0 0 1 1.95 2.2ZM12.6 15.33c3.51 0 6.36-2.86 6.36-6.37s-2.85-6.37-6.36-6.37-6.36 2.86-6.36 6.37 2.85 6.37 6.36 6.37m32.83 3.72h-7.58l-.33-.75c-.87-1.99-2.11-3.77-3.68-5.28l-.38-.37V3l-7.79 5.75-.52-.08c-.95-.15-1.79-.23-2.57-.23-.38 0-.75.02-1.13.05 0 .15.02.31.02.46 0 1.66-.47 3.21-1.27 4.54.97-.02 1.97.1 2.95.4a1.25 1.25 0 0 1-.73 2.39c-3.8-1.16-7.83 1-8.99 4.8-.16.54-.66.89-1.2.89-.12 0-.24-.02-.36-.05-.66-.2-1.03-.9-.83-1.56.28-.94.71-1.78 1.23-2.55-1.4-.05-2.72-.42-3.89-1.05A16.64 16.64 0 0 0 6.2 25c0 3.54 1.11 6.93 3.2 9.8l.45.62-3.47 6.79c-.05.09-.05.15-.02.22.05.16.2.3.39.38l6.11 2.6c.28.12.54.05.6-.06l2.31-4.49 1.33-2.7c.31-.62 1.05-.87 1.67-.57.62.31.87 1.06.57 1.68L18.49 41c2.61.69 5.31.7 7.91.06l-.73-1.43c-.31-.62-.07-1.37.54-1.68a1.25 1.25 0 0 1 1.68.55l2.05 4.02s0 .02.01.04l1.52 2.83c.04.08.3.15.59.03l6.12-2.6c.19-.08.34-.22.39-.38.02-.07.02-.13 0-.17l-3.51-6.58.49-.64c.37-.49.7-1 1.01-1.52-.15.01-.29.02-.45.02-1.09 0-2.43-.27-3.94-1.14-.6-.34-.81-1.11-.46-1.71.34-.6 1.11-.81 1.71-.46 2.6 1.49 4.25.47 4.32.43.07-.05.16-.06.24-.09v-.03l6.34-2.52 1.12-8.97Z"/></symbol><symbol id="s64" viewBox="0 0 64 64"><path d="M45.72 25.73c.06 1.72-1.29 3.18-3.01 3.24h-.11a3.13 3.13 0 0 1-3.12-3.02c-.06-1.72 1.29-3.18 3.01-3.24a3.13 3.13 0 0 1 3.23 3.02m18.26-.84-1.67 13.4a2.334 2.334 0 0 1-2 2.02l-7.14 2.84c-.71 1.7-1.61 3.32-2.67 4.83l3.8 7.11c.45.8.53 1.76.22 2.69-.35 1.04-1.16 1.9-2.23 2.35l-8.23 3.5c-.52.22-1.06.33-1.59.33-1.27 0-2.46-.62-3.08-1.71l-2.45-4.57c-4.6 1.33-9.43 1.31-14.04-.09l-.35.7c-.04.08-.1.15-.15.22l-1.9 3.69c-.9 1.6-2.9 2.2-4.69 1.44l-8.23-3.5c-1.06-.45-1.87-1.31-2.23-2.35-.31-.93-.23-1.9.24-2.72l3.8-7.43a25.35 25.35 0 0 1-4.23-11.41c-.44.21-.91.32-1.38.32-1.1 0-2.12-.58-2.8-1.58C.34 34.02 0 32.7 0 31.16c0-.76.62-1.38 1.37-1.38s1.37.62 1.37 1.38c0 1.31.32 1.97.51 2.25.1.14.3.38.53.38.43 0 1.24-.78 1.24-2.66 0-.21.05-.41.13-.58.41-3.77 1.64-7.29 3.51-10.38-2.23-2.12-3.63-5.11-3.63-8.42C5.04 5.33 10.25.11 16.66.11c5.14 0 9.51 3.36 11.03 8.01.78-.08 1.57-.13 2.38-.13 1.05 0 2.16.08 3.37.26L43.95.5c.7-.57 1.64-.69 2.46-.31.84.39 1.37 1.21 1.37 2.13v13.1c1.99 2.01 3.62 4.31 4.84 6.85h9.05c.67 0 1.3.29 1.75.79s.65 1.17.57 1.83Zm-47.32-4.27c4.89 0 8.87-3.98 8.87-8.88s-3.98-8.88-8.87-8.88-8.87 3.99-8.87 8.88 3.98 8.88 8.87 8.88m44.53 4.4H50.84l-.36-.82a22.4 22.4 0 0 0-5.03-7.21l-.42-.41V3.12l-10.88 8.02-.57-.09c-1.3-.21-2.45-.31-3.51-.31-.62 0-1.23.03-1.84.08.02.3.05.61.05.91 0 2.38-.72 4.59-1.95 6.43 1.46-.09 2.95.06 4.43.51.73.22 1.14.99.91 1.72-.22.73-.99 1.14-1.72.92-5.27-1.61-10.87 1.39-12.48 6.67-.18.59-.73.98-1.32.98-.13 0-.27-.02-.4-.06-.73-.22-1.14-.99-.91-1.72.43-1.42 1.1-2.69 1.93-3.82h-.12c-2.11 0-4.08-.57-5.78-1.56a22.6 22.6 0 0 0-3.14 11.51c0 4.83 1.51 9.46 4.37 13.38l.5.68-4.59 8.98c-.1.19-.11.35-.05.53.1.3.36.56.7.7l8.23 3.5c.48.21 1.02.11 1.2-.21l2.98-5.81 1.92-3.89a1.37 1.37 0 0 1 1.84-.62c.68.34.96 1.16.62 1.84l-1.31 2.65a21.77 21.77 0 0 0 11.55.08l-1.15-2.26c-.35-.68-.08-1.51.6-1.85.67-.35 1.5-.08 1.85.6l2.76 5.41c.03.06.05.11.07.17l1.98 3.7c.17.29.7.39 1.18.18l8.23-3.5c.34-.14.6-.41.7-.7.06-.18.05-.35-.02-.48l-4.63-8.68.53-.7c.63-.83 1.2-1.7 1.7-2.6-.37.05-.76.09-1.19.09-1.42 0-3.18-.36-5.16-1.5a1.376 1.376 0 1 1 1.37-2.39c3.68 2.12 6.04.63 6.14.57.12-.08.26-.12.4-.16v-.03l8.58-3.4 1.57-12.61Z"/></symbol><use style="display: var(--s16, none)" href="#s16"/><use style="display: var(--s24, none)" href="#s24"/><use style="display: var(--s32, none)" href="#s32"/><use style="display: var(--s40, none)" href="#s40"/><use style="display: var(--s48, none)" href="#s48"/><use style="display: var(--s64, none)" href="#s64"/></symbol></defs><style>@media (max-width: 23.98px) {g{--s16:block;}}@media (min-width: 24px) and (max-width: 31.98px) {g{--s24:block;}}@media (min-width: 32px) and (max-width: 39.98px) {g{--s32:block;}}@media (min-width: 40px) and (max-width: 47.98px) {g{--s40:block;}}@media (min-width: 48px) and (max-width: 63.98px) {g{--s48:block;}}@media (min-width: 64px) {g{--s64:block;}}</style><g><use href="#i-piggybank"/></g></svg>