<svg xmlns="http://www.w3.org/2000/svg"><defs><symbol id="i-pillprotection-solid"><symbol id="s16" viewBox="0 0 16 16"><path d="M8.8 4.34a.754.754 0 0 1 0-1.06c1.16-1.16 3.18-1.16 4.34 0 .29.29.29.77 0 1.06-.15.15-.34.22-.53.22s-.39-.07-.53-.22c-.59-.59-1.62-.59-2.21 0-.29.29-.77.29-1.06 0ZM7.36 6.93h.24L5.92 5.25l2.74-2.74c.64-.64 1.5-1 2.41-1s1.77.36 2.41 1 1 1.5 1 2.41a3.4 3.4 0 0 1-.66 2h1.73a4.85 4.85 0 0 0-1-5.47C13.62.53 12.39.01 11.07.01S8.52.52 7.59 1.45L4.85 4.19l-3.41 3.4c-.24.24-.44.49-.63.77-.03.05-.05.1-.08.15-.14.23-.27.46-.37.71 0 .02-.01.05-.02.07-.22.56-.34 1.16-.34 1.78s.12 1.22.34 1.78c0 .02.01.05.02.07.1.25.23.48.37.71.03.05.05.1.08.15.18.27.39.53.63.76.93.93 2.16 1.44 3.48 1.44 1.14 0 2.21-.4 3.08-1.11-.4-.72-.65-1.54-.65-2.42V6.93Zm8.65 1.51v4.01c0 1.97-1.6 3.57-3.57 3.57s-3.57-1.6-3.57-3.57V8.44zm-1.75 2.81h-1.21v-1.21H11.8v1.21h-1.21v1.25h1.21v1.21h1.25V12.5h1.21z"/></symbol><symbol id="s24" viewBox="0 0 24 24"><path d="M19.7 4.64c.34.34.34.9 0 1.24s-.9.34-1.24 0a2.686 2.686 0 0 0-3.8 0 .87.87 0 0 1-1.24 0 .88.88 0 0 1 0-1.24 4.436 4.436 0 0 1 6.27 0Zm-8.98 5.46L8.41 7.79 12.8 3.4c1.04-1.04 2.43-1.62 3.91-1.62s2.87.58 3.91 1.62 1.62 2.43 1.62 3.91c0 .97-.27 1.9-.74 2.72h1.96a7.27 7.27 0 0 0-1.6-7.87C20.49.78 18.66.03 16.71.03s-3.77.76-5.15 2.13L7.17 6.55l-.03-.03-5.02 5.02A7.26 7.26 0 0 0 0 16.69v.06a7.273 7.273 0 0 0 11.95 5.58 7.44 7.44 0 0 1-1.22-4.08V10.1Zm1.75 1.68h11.5v6.47a5.75 5.75 0 0 1-11.5 0zm2.76 6.55h1.96v1.96h2v-1.96h1.96v-2h-1.96v-1.96h-2v1.96h-1.96z"/></symbol><symbol id="s32" viewBox="0 0 32 32"><path d="M22.14 4.5c1.55 0 3.01.6 4.1 1.7a.996.996 0 0 1-.71 1.7c-.26 0-.51-.1-.71-.29a3.8 3.8 0 0 0-5.37 0 .996.996 0 1 1-1.41-1.41c1.09-1.1 2.55-1.7 4.1-1.7m-7.43 9.61-3.8-3.8 6.04-6.04c1.44-1.44 3.36-2.24 5.39-2.24s3.95.79 5.39 2.24a7.6 7.6 0 0 1 2.23 5.4c0 1.47-.42 2.88-1.2 4.1h2.27c.6-1.27.92-2.66.92-4.1 0-2.57-1-4.99-2.82-6.81C27.34 1.04 24.92.03 22.35.03s-4.99 1-6.81 2.82L2.81 15.59c-.1.1-.18.21-.28.31-.13.14-.26.27-.38.42-.02.02-.03.04-.05.06a9.62 9.62 0 0 0-2.11 6.03c0 2.57 1 4.99 2.82 6.81 1.88 1.88 4.34 2.82 6.81 2.82s4.72-.87 6.56-2.59a9.6 9.6 0 0 1-1.46-5.08V14.12Zm17.28 1.65v8.6c0 4.22-3.42 7.64-7.64 7.64s-7.64-3.42-7.64-7.64v-8.6h15.27Zm-3.74 6.12h-2.68v-2.69h-2.5v2.69h-2.68v2.5h2.68v2.69h2.5v-2.69h2.68z"/></symbol><symbol id="s40" viewBox="0 0 40 40"><path d="M32.8 7.66a1.123 1.123 0 0 1-.8 1.92c-.29 0-.58-.11-.8-.33-.93-.93-2.16-1.44-3.48-1.44s-2.55.51-3.48 1.44c-.44.44-1.15.44-1.59 0s-.44-1.15 0-1.59a7.19 7.19 0 0 1 10.14 0ZM18.62 17.95l-5.21-5.21 7.7-7.7c1.9-1.9 4.39-2.85 6.89-2.85s4.99.95 6.89 2.85c3.35 3.35 3.74 8.55 1.18 12.33h2.61c2.29-4.5 1.57-10.16-2.2-13.92-2.27-2.26-5.28-3.51-8.49-3.51s-6.21 1.25-8.48 3.51L3.49 19.48q-.435.435-.81.9c-.04.05-.08.11-.12.16a16 16 0 0 0-.63.86C.67 23.33-.02 25.59-.02 27.95s.68 4.62 1.95 6.56c0 .01.02.03.03.04.19.28.39.55.6.82.04.05.08.11.12.16q.39.465.81.9.435.435.9.81c.06.05.12.09.18.14.26.2.52.4.79.58.03.02.06.03.08.05 1.93 1.25 4.17 1.93 6.52 1.93s4.6-.68 6.52-1.93c.03-.02.06-.03.08-.05.27-.18.53-.38.79-.58.06-.05.12-.09.18-.14.28-.23.55-.48.81-.73-1.1-1.79-1.74-3.89-1.74-6.13V17.96Zm21.36 1.68v10.75c0 5.28-4.28 9.56-9.56 9.56s-9.56-4.28-9.56-9.56V19.63h19.11Zm-4.68 7.71h-3.42v-3.42h-3v3.42h-3.42v3h3.42v3.42h3v-3.42h3.42z"/></symbol><symbol id="s48" viewBox="0 0 48 48"><path d="M33.34 6.76c2.28 0 4.42.89 6.03 2.5.49.49.49 1.28 0 1.77-.24.24-.56.37-.88.37s-.64-.12-.88-.37a6.04 6.04 0 0 0-8.53 0c-.49.49-1.28.49-1.77 0s-.49-1.28 0-1.77a8.47 8.47 0 0 1 6.03-2.5M22.3 21.71l-6.38-6.38 9.36-9.37c2.31-2.31 5.34-3.46 8.38-3.46s6.07 1.16 8.37 3.46a11.76 11.76 0 0 1 3.47 8.38c0 2.35-.68 4.59-1.95 6.51h2.88c1.02-1.99 1.57-4.21 1.57-6.51 0-3.83-1.49-7.43-4.2-10.14-5.59-5.59-14.69-5.59-20.28 0l-9.36 9.37-9.95 9.95C1.5 26.22 0 29.82 0 33.65s1.49 7.43 4.2 10.14 6.31 4.2 10.14 4.2 7.25-1.43 9.93-4.01a13.4 13.4 0 0 1-1.98-7.01V21.7Zm2.5 1.64h23.18v13.63c0 6.08-4.93 11.01-11.01 11.01H35.8c-6.08 0-11.01-4.93-11.01-11.01V23.35Zm5.56 12.93h4.22v4.22h3.5v-4.22h4.22v-3.5h-4.22v-4.22h-3.5v4.22h-4.22z"/></symbol><symbol id="s64" viewBox="0 0 64 64"><path d="M44.56 9.12c2.99 0 5.79 1.16 7.9 3.27a1.376 1.376 0 0 1-1.94 1.95c-1.59-1.59-3.71-2.47-5.96-2.47s-4.37.88-5.96 2.47c-.54.54-1.41.54-1.95 0s-.54-1.41 0-1.95c2.11-2.11 4.92-3.27 7.9-3.27ZM30.54 30.21l-9.86-9.86L33.5 7.53c3.17-3.17 7.33-4.75 11.49-4.75s8.32 1.58 11.49 4.75c3.07 3.07 4.76 7.15 4.76 11.49 0 3.5-1.12 6.82-3.15 9.59h3.28c4.26-7.28 3.29-16.8-2.94-23.03-7.41-7.41-19.46-7.41-26.87 0l-26 25.99c-7.41 7.41-7.41 19.47 0 26.88.46.46.93.89 1.43 1.29.08.07.17.12.26.19.42.33.84.65 1.29.95.03.02.05.03.08.05 3.06 2.01 6.64 3.09 10.38 3.09s7.32-1.08 10.38-3.09c.03-.02.05-.03.08-.05.44-.29.87-.61 1.29-.95.08-.07.17-.12.26-.19.49-.4.97-.83 1.43-1.29l.46-.46c-1.48-2.57-2.35-5.53-2.35-8.71V30.2Zm33.47 1.15v17.93c0 8.13-6.59 14.72-14.71 14.72h-1.29c-8.12 0-14.71-6.59-14.71-14.72V31.36h30.72Zm-7.52 12.57h-5.66v-5.66h-4.5v5.66h-5.66v4.5h5.66v5.66h4.5v-5.66h5.66z"/></symbol><use style="display: var(--s16, none)" href="#s16"/><use style="display: var(--s24, none)" href="#s24"/><use style="display: var(--s32, none)" href="#s32"/><use style="display: var(--s40, none)" href="#s40"/><use style="display: var(--s48, none)" href="#s48"/><use style="display: var(--s64, none)" href="#s64"/></symbol></defs><style>@media (max-width: 23.98px) {g{--s16:block;}}@media (min-width: 24px) and (max-width: 31.98px) {g{--s24:block;}}@media (min-width: 32px) and (max-width: 39.98px) {g{--s32:block;}}@media (min-width: 40px) and (max-width: 47.98px) {g{--s40:block;}}@media (min-width: 48px) and (max-width: 63.98px) {g{--s48:block;}}@media (min-width: 64px) {g{--s64:block;}}</style><g><use href="#i-pillprotection-solid"/></g></svg>