<svg xmlns="http://www.w3.org/2000/svg"><defs><symbol id="i-pin"><symbol id="s16" viewBox="0 0 16 16"><path d="M15.47 4.69 11.18.5a1.75 1.75 0 0 0-2.47.03L6.79 2.5l1.43 1.4-2.46 2.52-4.67 1 3.23 3.16L0 14.95 1.07 16l4.32-4.38 3.42 3.34.88-4.7 2.46-2.52 1.43 1.4 1.92-1.97c.67-.69.66-1.8-.03-2.48m-7.62 7.24L4.13 8.3l1.76-.38 2.29 2.23-.33 1.77Zm1.13-3.09L7.19 7.09l2.09-2.15 1.79 1.75zm5.45-2.72-.87.89-.66-.64-3.63-3.55-.36-.35.87-.9c.1-.1.25-.1.35 0l4.29 4.19c.1.1.1.25 0 .35Z"/></symbol><symbol id="s24" viewBox="0 0 24 24"><path d="M23.26 7.1 16.7.69c-.46-.45-1.09-.67-1.71-.68-.64 0-1.24.27-1.69.73l-2.75 2.82 2.19 2.13-4 4.11L2 11.23l4.78 4.66-6.79 6.89 1.25 1.23 6.79-6.89 5.07 4.94 1.27-6.77 4-4.11 2.19 2.14 2.75-2.82a2.404 2.404 0 0 0-.05-3.4M5.57 12.26l3.33-.71 3.7 3.61-.63 3.34-6.41-6.25Zm7.96 1.37-3.12-3.05 3.58-3.67 3.12 3.04-3.58 3.67Zm8.52-4.35-1.52 1.56-.93-.91-5.11-4.99-1.45-1.42 1.52-1.56c.12-.12.28-.19.46-.2.14 0 .34.06.46.19l6.57 6.41c.12.12.19.28.2.46 0 .17-.06.34-.19.46Z"/></symbol><symbol id="s32" viewBox="0 0 32 32"><path d="M31.07 9.5 22.23.87C21.64.3 20.86 0 20.06 0c-.82 0-1.58.34-2.15.92l-3.57 3.66 2.95 2.87-5.56 5.7-8.79 1.87 6.32 6.17-9.27 9.41 1.42 1.41 9.27-9.41 6.71 6.54 1.65-8.83 5.56-5.7 2.95 2.87 3.57-3.66c.57-.59.88-1.36.87-2.17 0-.82-.34-1.58-.92-2.15M7.01 16.21l4.9-1.04 2.56 2.5 2.56 2.5-.92 4.93L7 16.21Zm11.09 2.2-2.23-2.18-2.23-2.18 5.07-5.2 4.46 4.35-5.07 5.2Zm11.59-5.98-2.18 2.23-10.35-10.1 2.18-2.23c.2-.2.46-.32.74-.32h.01c.28 0 .54.11.74.3l8.84 8.63a1.047 1.047 0 0 1 .02 1.49"/></symbol><symbol id="s40" viewBox="0 0 40 40"><path d="M38.87 11.9 27.76 1.06C27.06.38 26.14 0 25.17 0h-.05c-.99.01-1.92.41-2.61 1.12l-4.4 4.51 3.7 3.61-7.11 7.29-10.84 2.31 7.86 7.67L0 38.42 1.6 40l11.75-11.92 8.35 8.15 2.04-10.9 7.11-7.29 3.7 3.61 4.4-4.51a3.72 3.72 0 0 0 1.06-2.64c-.01-.99-.41-1.92-1.12-2.61ZM20.25 31.68 8.44 20.16l6.48-1.38 3.27 3.19 3.27 3.19-1.22 6.51Zm2.42-8.49-2.9-2.83-2.9-2.83 6.56-6.73 5.8 5.66zm14.66-7.61-2.83 2.9-2.1-2.04-9.02-8.8-2.09-2.04 2.83-2.9c.27-.28.64-.44 1.03-.44.4-.01.76.14 1.04.42L37.3 13.52c.58.56.59 1.49.03 2.07Z"/></symbol><symbol id="s48" viewBox="0 0 48 48"><path d="M46.67 14.31 33.29 1.25C32.45.44 31.34.03 30.19.01c-1.17.01-2.26.48-3.07 1.32l-5.23 5.36 4.46 4.35-8.66 8.87-12.9 2.75 9.41 9.18L-.01 46.25l1.78 1.76 14.22-14.43 9.99 9.75 2.43-12.97 8.65-8.87 4.46 4.35 5.23-5.36c.81-.83 1.26-1.94 1.24-3.1a4.28 4.28 0 0 0-1.32-3.07M9.88 24.13l8.05-1.71 6.73 6.57 1.23 1.2-1.52 8.09-14.5-14.15Zm17.34 3.86-.97-.95-6.16-6.01 8.05-8.25 1.52 1.48 5.62 5.48-8.05 8.25Zm17.74-9.25-3.48 3.57-2.67-2.61L28.1 9.25l-2.67-2.61 3.48-3.57c.35-.36.81-.56 1.31-.56.47 0 .97.18 1.33.53L44.93 16.1c.36.35.56.81.56 1.31s-.18.97-.53 1.33"/></symbol><symbol id="s64" viewBox="0 0 64 64"><path d="M62.3 19.14 44.31 1.59C43.25.55 41.85.04 40.36 0c-1.49.02-2.88.61-3.91 1.68l-6.81 6.98 6 5.85-11.91 12.21-16.88 3.59 12.46 12.16L-.02 62.08l1.96 1.93L21.27 44.4l13.24 12.92 3.18-16.96L49.6 28.15l6 5.85 6.81-6.98a5.5 5.5 0 0 0 1.58-3.95 5.48 5.48 0 0 0-1.68-3.91ZM32.75 51.75 12.44 31.94l11.54-2.46 5.47 5.34 5.47 5.34-2.17 11.6Zm3.63-14.01-5.01-4.89-5.01-4.89L37.6 16.44l5.01 4.89 5.01 4.89zm24.05-12.65-4.89 5.01-4.03-3.93-13.96-13.62-4.03-3.93 4.89-5.01a2.82 2.82 0 0 1 3.98-.05l17.99 17.55c.54.53.84 1.23.85 1.98 0 .75-.28 1.46-.8 2"/></symbol><use style="display: var(--s16, none)" href="#s16"/><use style="display: var(--s24, none)" href="#s24"/><use style="display: var(--s32, none)" href="#s32"/><use style="display: var(--s40, none)" href="#s40"/><use style="display: var(--s48, none)" href="#s48"/><use style="display: var(--s64, none)" href="#s64"/></symbol></defs><style>@media (max-width: 23.98px) {g{--s16:block;}}@media (min-width: 24px) and (max-width: 31.98px) {g{--s24:block;}}@media (min-width: 32px) and (max-width: 39.98px) {g{--s32:block;}}@media (min-width: 40px) and (max-width: 47.98px) {g{--s40:block;}}@media (min-width: 48px) and (max-width: 63.98px) {g{--s48:block;}}@media (min-width: 64px) {g{--s64:block;}}</style><g><use href="#i-pin"/></g></svg>