<svg xmlns="http://www.w3.org/2000/svg"><defs><symbol id="i-play-solid"><symbol id="s16" viewBox="0 0 16 16"><path d="M14.37 8c0 .25-.12.49-.33.62l-9 6a.73.73 0 0 1-.77.04.76.76 0 0 1-.4-.66V2c0-.28.15-.53.4-.66.24-.13.54-.12.77.04l9 6c.21.14.33.37.33.62"/></symbol><symbol id="s24" viewBox="0 0 24 24"><path d="M21.31 12c0 .29-.15.57-.39.73l-13.5 9a.88.88 0 0 1-.9.05.88.88 0 0 1-.46-.77V3c0-.32.18-.62.46-.77.29-.15.63-.13.9.04l13.5 9c.24.16.39.44.39.73"/></symbol><symbol id="s32" viewBox="0 0 32 32"><path d="M28.24 16c0 .33-.17.65-.45.83l-18 12c-.17.11-.36.17-.55.17-.16 0-.32-.04-.47-.12a.98.98 0 0 1-.53-.88V4c0-.37.2-.71.53-.88.32-.17.72-.15 1.03.05l18 12c.28.19.45.5.45.83Z"/></symbol><symbol id="s40" viewBox="0 0 40 40"><path d="M35.18 19.94c0 .38-.19.73-.5.94l-22.5 15a1.12 1.12 0 0 1-1.15.06c-.37-.2-.59-.58-.59-.99V4.94c0-.42.23-.8.59-.99.37-.2.81-.17 1.16.06l22.5 15c.31.21.5.56.5.94Z"/></symbol><symbol id="s48" viewBox="0 0 48 48"><path d="M42.11 24c0 .42-.21.81-.56 1.04l-27 18a1.24 1.24 0 0 1-1.28.06c-.41-.22-.66-.64-.66-1.1V6a1.252 1.252 0 0 1 1.94-1.04l27 18c.35.23.56.62.56 1.04"/></symbol><symbol id="s64" viewBox="0 0 64 64"><path d="M55.86 32c0 .46-.23.89-.61 1.14l-36 24c-.23.15-.5.23-.76.23A1.38 1.38 0 0 1 17.11 56V8c0-.51.28-.97.73-1.21s.99-.21 1.41.07l36 24c.38.26.61.68.61 1.14"/></symbol><use style="display: var(--s16, none)" href="#s16"/><use style="display: var(--s24, none)" href="#s24"/><use style="display: var(--s32, none)" href="#s32"/><use style="display: var(--s40, none)" href="#s40"/><use style="display: var(--s48, none)" href="#s48"/><use style="display: var(--s64, none)" href="#s64"/></symbol></defs><style>@media (max-width: 23.98px) {g{--s16:block;}}@media (min-width: 24px) and (max-width: 31.98px) {g{--s24:block;}}@media (min-width: 32px) and (max-width: 39.98px) {g{--s32:block;}}@media (min-width: 40px) and (max-width: 47.98px) {g{--s40:block;}}@media (min-width: 48px) and (max-width: 63.98px) {g{--s48:block;}}@media (min-width: 64px) {g{--s64:block;}}</style><g><use href="#i-play-solid"/></g></svg>