<svg xmlns="http://www.w3.org/2000/svg"><defs><symbol id="i-pluswide-solid"><symbol id="s16" viewBox="0 0 16 16"><path d="M16 7.99c0 .69-.56 1.25-1.25 1.25H9.27v5.51a1.25 1.25 0 0 1-2.5 0V9.24H1.26a1.25 1.25 0 1 1-.01-2.5h5.51V1.26C6.77.56 7.33 0 8.02 0s1.25.56 1.25 1.25v5.48h5.48c.69 0 1.25.56 1.25 1.25Z"/></symbol><symbol id="s24" viewBox="0 0 24 24"><path d="M24.02 12c0 .83-.67 1.5-1.5 1.5H13.5v9a1.496 1.496 0 1 1-2.99 0v-9h-9C.69 13.5.02 12.83.02 12s.67-1.5 1.5-1.5h8.98v-9c-.01-.83.66-1.5 1.49-1.5s1.5.67 1.5 1.5v9h9.03c.83 0 1.5.67 1.5 1.5"/></symbol><symbol id="s32" viewBox="0 0 32 32"><path d="M32 16.06c0 .97-.78 1.75-1.75 1.75H17.78l.02 12.45c0 .96-.78 1.75-1.75 1.75s-1.75-.78-1.75-1.75l-.02-12.46H1.75C.79 17.81 0 17.02 0 16.06s.78-1.75 1.75-1.75h12.53l-.02-12.55c0-.96.78-1.75 1.75-1.75s1.75.78 1.75 1.75l.02 12.56h12.48c.97 0 1.75.78 1.75 1.75Z"/></symbol><symbol id="s40" viewBox="0 0 40 40"><path d="M40.01 19.93c0 1.1-.89 1.99-2 1.99H22v16.03c0 1.1-.89 1.99-2 1.99s-2-.89-2-1.99V21.92H2c-1.1-.01-2-.9-2-1.99s.89-1.99 2-1.99h16.01V1.91c0-1.1.89-1.99 2-1.99s2 .89 2 1.99v16.03h16.01c1.1 0 2 .89 2 1.99Z"/></symbol><symbol id="s48" viewBox="0 0 48 48"><path d="M48.01 25.18c0 1.24-1.01 2.25-2.25 2.25l-19.51-.03v18.35c0 1.24-1.02 2.25-2.26 2.25s-2.25-1.01-2.25-2.25V27.39l-19.47-.03a2.256 2.256 0 0 1 0-4.51l19.47.03V2.26c0-1.24 1.02-2.25 2.26-2.25s2.25 1.01 2.25 2.25V22.9l19.51.03c1.24 0 2.25 1.01 2.25 2.26Z"/></symbol><symbol id="s64" viewBox="0 0 64 64"><path d="M63.95 32.03a2.5 2.5 0 0 1-2.5 2.5H34.57v26.95a2.5 2.5 0 0 1-5 0V34.53H2.45a2.5 2.5 0 0 1 0-5h27.14V2.48c-.01-1.38 1.11-2.5 2.49-2.5s2.5 1.12 2.5 2.5v27.05h26.88a2.5 2.5 0 0 1 2.5 2.5Z"/></symbol><use style="display: var(--s16, none)" href="#s16"/><use style="display: var(--s24, none)" href="#s24"/><use style="display: var(--s32, none)" href="#s32"/><use style="display: var(--s40, none)" href="#s40"/><use style="display: var(--s48, none)" href="#s48"/><use style="display: var(--s64, none)" href="#s64"/></symbol></defs><style>@media (max-width: 23.98px) {g{--s16:block;}}@media (min-width: 24px) and (max-width: 31.98px) {g{--s24:block;}}@media (min-width: 32px) and (max-width: 39.98px) {g{--s32:block;}}@media (min-width: 40px) and (max-width: 47.98px) {g{--s40:block;}}@media (min-width: 48px) and (max-width: 63.98px) {g{--s48:block;}}@media (min-width: 64px) {g{--s64:block;}}</style><g><use href="#i-pluswide-solid"/></g></svg>