<svg xmlns="http://www.w3.org/2000/svg"><defs><symbol id="i-portal"><symbol id="s16" viewBox="0 0 16 16"><path d="M8 0C3.59 0 0 3.59 0 8s3.59 8 8 8 8-3.59 8-8-3.59-8-8-8m6.5 8c0 .09 0 .18-.01.27l-3.23.87 1.49-5.56a6.5 6.5 0 0 1 1.75 4.43Zm-8.66.58.58-2.16 2.16-.58 1.58 1.58-.58 2.16-2.16.58zm5.63-6.06-.87 3.23-4.07-4.08a6.43 6.43 0 0 1 4.94.85m-6.48-.27 2.37 2.37-5.57 1.49a6.54 6.54 0 0 1 3.2-3.86M1.5 8c0-.09 0-.18.01-.27l3.23-.87-1.49 5.56A6.5 6.5 0 0 1 1.5 7.99Zm3.03 5.48.87-3.23 4.08 4.08a6.43 6.43 0 0 1-4.94-.85Zm6.48.27-2.37-2.37 5.57-1.49a6.54 6.54 0 0 1-3.2 3.86"/></symbol><symbol id="s24" viewBox="0 0 24 24"><path d="M12 0C5.38 0 0 5.38 0 12s5.38 12 12 12 12-5.38 12-12S18.62 0 12 0m10.25 12c0 .21-.02.42-.03.62l-5.61 1.5 2.54-9.46c1.91 1.86 3.11 4.46 3.11 7.34Zm-13.87.97.97-3.62 3.62-.97 2.65 2.65-.97 3.62-3.62.97zm9.27-9.51-1.5 5.62-6.93-6.93a10.15 10.15 0 0 1 8.43 1.32ZM7.43 2.84l4.11 4.11-9.46 2.54c.74-2.91 2.72-5.33 5.35-6.64ZM1.75 12c0-.21.02-.42.03-.62l5.61-1.5-2.54 9.46A10.22 10.22 0 0 1 1.74 12Zm4.6 8.54 1.5-5.62 6.93 6.93a10.15 10.15 0 0 1-8.43-1.32Zm10.22.62-4.11-4.11 9.46-2.54c-.74 2.91-2.72 5.33-5.35 6.64Z"/></symbol><symbol id="s32" viewBox="0 0 32 32"><path d="M16 0C7.18 0 0 7.18 0 16s7.18 16 16 16 16-7.18 16-16S24.82 0 16 0m14 16c0 .33-.03.65-.05.98l-7.99 2.14 3.58-13.34c2.74 2.56 4.47 6.19 4.47 10.22Zm-19.08 1.36 1.36-5.08 5.08-1.36 3.72 3.72-1.36 5.08-5.08 1.36zM23.83 4.4l-2.14 8-9.79-9.78C13.2 2.22 14.58 2 16 2c2.9 0 5.59.88 7.83 2.4M9.88 3.43l5.85 5.85-13.35 3.58c.96-4.15 3.76-7.6 7.51-9.43ZM2 16c0-.33.03-.65.05-.98l7.99-2.14-3.57 13.34C3.73 23.66 2 20.03 2 16m6.17 11.6 2.14-8 9.78 9.78c-1.3.4-2.68.62-4.1.62-2.9 0-5.59-.88-7.83-2.4Zm13.95.97-5.85-5.85 13.35-3.58c-.96 4.15-3.76 7.6-7.51 9.43Z"/></symbol><symbol id="s40" viewBox="0 0 40 40"><path d="M20 0C8.97 0 0 8.97 0 20s8.97 20 20 20 20-8.97 20-20S31.03 0 20 0m17.75 20c0 .45-.03.9-.07 1.34L27.3 24.12l4.62-17.23c3.57 3.25 5.83 7.92 5.83 13.11m-24.3 1.75 1.73-6.47-.13-.03 6.69-1.79 4.79 4.79-1.75 6.55-6.55 1.75-4.79-4.79ZM30 5.35l-2.78 10.39L14.58 3.1c1.71-.55 3.53-.85 5.42-.85 3.71 0 7.15 1.15 10 3.1M12.32 4.02l7.6 7.6-17.26 4.62c1.17-5.4 4.81-9.88 9.66-12.22M2.25 20c0-.45.03-.9.07-1.34l10.38-2.78-4.62 17.23C4.51 29.86 2.25 25.19 2.25 20M10 34.65l2.78-10.39L25.41 36.9A17.65 17.65 0 0 1 10 34.65m17.68 1.33-7.6-7.6 17.26-4.62c-1.17 5.4-4.81 9.88-9.66 12.22"/></symbol><symbol id="s48" viewBox="0 0 48 48"><path d="M24 0C10.77 0 0 10.77 0 24s10.77 24 24 24 24-10.77 24-24S37.23 0 24 0m21.5 24c0 .57-.04 1.14-.09 1.7l-12.76 3.42 5.66-21.11c4.4 3.94 7.19 9.64 7.19 16Zm-29.51 2.15 2.11-7.86-.25-.07 8.3-2.22 5.86 5.86-2.15 8.01-8.01 2.15-5.86-5.86ZM36.18 6.31l-3.42 12.76L17.28 3.6a21.36 21.36 0 0 1 18.9 2.71M14.77 4.62l9.33 9.33-21.15 5.67c1.38-6.64 5.85-12.15 11.81-15ZM2.5 24c0-.57.04-1.13.09-1.7l12.76-3.42-5.66 21.11c-4.4-3.94-7.19-9.64-7.19-16Zm9.32 17.7 3.42-12.76 15.47 15.47a21.36 21.36 0 0 1-18.9-2.71Zm21.41 1.69-9.33-9.33 21.15-5.67c-1.38 6.64-5.85 12.15-11.81 15Z"/></symbol><symbol id="s64" viewBox="0 0 64 64"><path d="M32 0C14.36 0 0 14.35 0 31.99s14.36 32 32 32 32-14.36 32-32S49.64 0 32 0m29.25 31.99q0 1.275-.12 2.52l-17.92 4.8L51.1 9.87c6.21 5.37 10.15 13.29 10.15 22.12m-40.37 2.98 2.98-11.12 11.12-2.98 8.14 8.14-2.98 11.12-11.12 2.98zM48.75 8.03l-4.8 17.91L22.38 4.38A29.2 29.2 0 0 1 32 2.75c6.23 0 12 1.96 16.75 5.29ZM19.62 5.5l13.12 13.12-29.47 7.9C5.04 17.2 11.25 9.43 19.61 5.51ZM2.75 31.99q0-1.275.12-2.52l17.92-4.8-7.89 29.44C6.69 48.74 2.75 40.82 2.75 31.99m12.5 23.96 4.8-17.91 21.57 21.57A29.2 29.2 0 0 1 32 61.24c-6.23 0-12-1.96-16.75-5.29m29.13 2.53L31.26 45.36l29.46-7.89c-1.77 9.32-7.98 17.09-16.34 21.01"/></symbol><use style="display: var(--s16, none)" href="#s16"/><use style="display: var(--s24, none)" href="#s24"/><use style="display: var(--s32, none)" href="#s32"/><use style="display: var(--s40, none)" href="#s40"/><use style="display: var(--s48, none)" href="#s48"/><use style="display: var(--s64, none)" href="#s64"/></symbol></defs><style>@media (max-width: 23.98px) {g{--s16:block;}}@media (min-width: 24px) and (max-width: 31.98px) {g{--s24:block;}}@media (min-width: 32px) and (max-width: 39.98px) {g{--s32:block;}}@media (min-width: 40px) and (max-width: 47.98px) {g{--s40:block;}}@media (min-width: 48px) and (max-width: 63.98px) {g{--s48:block;}}@media (min-width: 64px) {g{--s64:block;}}</style><g><use href="#i-portal"/></g></svg>