<svg xmlns="http://www.w3.org/2000/svg"><defs><symbol id="i-profile"><symbol id="s16" viewBox="0 0 16 16"><path d="M7.96 7.5c2.07 0 3.75-1.68 3.75-3.75S10.03 0 7.96 0 4.21 1.68 4.21 3.75 5.89 7.5 7.96 7.5m0-6c1.24 0 2.25 1.01 2.25 2.25S9.2 6 7.96 6 5.71 4.99 5.71 3.75 6.72 1.5 7.96 1.5M16 12.88V16h-1.5v-3.12c0-1.52-1.23-2.75-2.75-2.75h-7.5c-1.52 0-2.75 1.23-2.75 2.75V16H0v-3.12a4.26 4.26 0 0 1 4.25-4.25h7.5A4.26 4.26 0 0 1 16 12.88m-11.79 0h1.5V16h-1.5zm6.02 0h1.5V16h-1.5z"/></symbol><symbol id="s24" viewBox="0 0 24 24"><path d="M12 10.85c2.99 0 5.43-2.43 5.43-5.43S14.99 0 12 0 6.57 2.43 6.57 5.43s2.44 5.43 5.43 5.43Zm0-9.1c2.03 0 3.68 1.65 3.68 3.68S14.03 9.11 12 9.11 8.32 7.46 8.32 5.43 9.97 1.75 12 1.75m12 16.51V24h-1.75v-5.74c0-2.45-2.02-4.44-4.5-4.44H6.25c-2.48 0-4.5 1.99-4.5 4.44V24H0v-5.74c0-3.41 2.8-6.19 6.25-6.19h11.5c3.45 0 6.25 2.77 6.25 6.19m-18.48 0h1.75V24H5.52zm11.13 0h1.75V24h-1.75z"/></symbol><symbol id="s32" viewBox="0 0 32 32"><path d="M16 14.27c3.94 0 7.14-3.2 7.14-7.14S19.94 0 16 0 8.86 3.2 8.86 7.13s3.2 7.14 7.14 7.14M16 2c2.83 0 5.14 2.3 5.14 5.13s-2.31 5.14-5.14 5.14-5.14-2.3-5.14-5.14S13.17 2 16 2m16 22.43V32h-2v-7.57c0-3.39-2.8-6.16-6.24-6.16H8.25c-3.44 0-6.24 2.76-6.24 6.16V32H0v-7.57c0-4.5 3.7-8.16 8.24-8.16h15.51c4.55 0 8.24 3.66 8.24 8.16Zm-24.56 0h2V32h-2zm15 0h2V32h-2z"/></symbol><symbol id="s40" viewBox="0 0 40 40"><path d="M20 17.66c4.87 0 8.83-3.96 8.83-8.83S24.87 0 20 0s-8.83 3.96-8.83 8.83 3.96 8.83 8.83 8.83m0-15.41c3.63 0 6.58 2.95 6.58 6.58s-2.95 6.58-6.58 6.58-6.58-2.95-6.58-6.58S16.37 2.25 20 2.25m20 28.31V40h-2.25v-9.44c0-4.34-3.58-7.87-7.99-7.87H10.24c-4.41 0-7.99 3.53-7.99 7.87V40H0v-9.44c0-5.58 4.6-10.12 10.24-10.12h19.52c5.65 0 10.24 4.54 10.24 10.11Zm-30.61 0h2.25V40H9.39zm18.83 0h2.25V40h-2.25z"/></symbol><symbol id="s48" viewBox="0 0 48 48"><path d="M24 21c5.79 0 10.5-4.71 10.5-10.5S29.79 0 24 0 13.5 4.71 13.5 10.5 18.21 21 24 21m0-18.49c4.41 0 8 3.59 8 8s-3.59 8-8 8-8-3.59-8-8 3.59-8 8-8m24 34.07v11.43h-2.5V36.58c0-5.26-4.37-9.54-9.74-9.54H12.24c-5.37 0-9.74 4.28-9.74 9.54v11.43H0V36.58c0-6.64 5.49-12.04 12.24-12.04h23.53c6.75 0 12.24 5.4 12.24 12.04Zm-36.64 0h2.5v11.43h-2.5zm22.6 0h2.5v11.43h-2.5z"/></symbol><symbol id="s64" viewBox="0 0 64 64"><path d="M32 27.43c7.56 0 13.7-6.15 13.7-13.71S39.56.01 32 .01 18.3 6.16 18.3 13.72 24.45 27.43 32 27.43m0-24.67c6.04 0 10.95 4.92 10.95 10.96S38.04 24.68 32 24.68s-10.95-4.92-10.95-10.96S25.96 2.76 32 2.76M64.01 48.5v15.51h-2.75V48.5c0-7.18-6.02-13.02-13.41-13.02H16.18c-7.4 0-13.41 5.84-13.41 13.02v15.51H0V48.5c0-8.7 7.26-15.77 16.17-15.77h31.67C56.75 32.73 64 39.8 64 48.5Zm-49.57 0h2.75v15.51h-2.75zm32.13 0h2.75v15.51h-2.75z"/></symbol><use style="display: var(--s16, none)" href="#s16"/><use style="display: var(--s24, none)" href="#s24"/><use style="display: var(--s32, none)" href="#s32"/><use style="display: var(--s40, none)" href="#s40"/><use style="display: var(--s48, none)" href="#s48"/><use style="display: var(--s64, none)" href="#s64"/></symbol></defs><style>@media (max-width: 23.98px) {g{--s16:block;}}@media (min-width: 24px) and (max-width: 31.98px) {g{--s24:block;}}@media (min-width: 32px) and (max-width: 39.98px) {g{--s32:block;}}@media (min-width: 40px) and (max-width: 47.98px) {g{--s40:block;}}@media (min-width: 48px) and (max-width: 63.98px) {g{--s48:block;}}@media (min-width: 64px) {g{--s64:block;}}</style><g><use href="#i-profile"/></g></svg>