<svg xmlns="http://www.w3.org/2000/svg"><defs><symbol id="i-protocolview"><symbol id="s16" viewBox="0 0 16 16"><path d="M8.29 6.99h3.69v1.5H8.29zM6.86 5.51 5.57 7.35l-.7-.53-.91 1.19L5.9 9.5l2.19-3.12-1.23-.86Zm-1.99 5.7-.91 1.19 1.94 1.49 2.19-3.12-1.23-.86-1.29 1.84-.7-.53Zm4.58 4.8H1.79v-16h9.63l2.9 3.59v6.35c-.44-.26-.94-.46-1.5-.56V4.93h-2.16c-.69 0-1.25-.56-1.25-1.25V1.52H3.29v12.99h4.6c.37.53.89 1.08 1.56 1.5M10.9 1.76v1.67h1.34zm5.11 11.28-.14.31c-.05.11-1.22 2.67-3.9 2.67s-3.85-2.56-3.9-2.67l-.14-.31.14-.31c.05-.11 1.22-2.67 3.9-2.67s3.85 2.56 3.9 2.67zm-1.68 0c-.32-.51-1.08-1.47-2.35-1.47s-2.04.96-2.35 1.47c.32.51 1.08 1.47 2.35 1.47s2.04-.96 2.35-1.47m-2.35-1.08c-.6 0-1.08.48-1.08 1.08s.48 1.08 1.08 1.08 1.08-.48 1.08-1.08-.48-1.08-1.08-1.08"/></symbol><symbol id="s24" viewBox="0 0 24 24"><path d="M12.43 11.46h5.52v1.75h-5.52zM10.5 9.14l-2.08 2.97-1.25-.96-1.06 1.39 2.7 2.07 3.13-4.46-1.43-1.01Zm-3.34 8.13L6.1 18.66l2.7 2.07 3.13-4.46-1.43-1.01-2.08 2.97-1.25-.96Zm7.83 6.74H2.96V0h14.05l4.21 5.22v10.23c-.52-.27-1.1-.48-1.75-.6V6.87h-3.49c-.9 0-1.63-.73-1.63-1.63V1.76H4.71v20.5h8.25c.5.6 1.17 1.25 2.04 1.75Zm1.18-22.25h-.07v3.36h2.78zM24 19.81l-.16.36c-.07.16-1.75 3.85-5.61 3.85s-5.54-3.69-5.61-3.85l-.16-.36.16-.36c.07-.16 1.75-3.85 5.61-3.85s5.54 3.69 5.61 3.85zm-1.95 0c-.44-.76-1.68-2.45-3.82-2.45s-3.37 1.69-3.82 2.45c.44.76 1.68 2.45 3.82 2.45s3.37-1.69 3.82-2.45m-3.82-1.62c-.89 0-1.62.73-1.62 1.62s.73 1.62 1.62 1.62 1.62-.73 1.62-1.62-.73-1.62-1.62-1.62"/></symbol><symbol id="s32" viewBox="0 0 32 32"><path d="M16.58 15.74h7.37v2h-7.37zm-2.45-3.16-2.88 4.1-1.81-1.38-1.22 1.59 3.46 2.65 4.08-5.81-1.64-1.15ZM9.45 23.31 8.23 24.9l3.46 2.65 4.08-5.81-1.64-1.15-2.88 4.1-1.81-1.38ZM20.55 32H4.11V0H22.6l5.52 6.85v14.11a8 8 0 0 0-2-.66V8.83H21.3c-1.1 0-2-.9-2-2V2H6.11v28h11.93c.65.72 1.48 1.44 2.52 2Zm1.09-30h-.34v4.82h4.23zM32 26.56l-.18.41c-.09.21-2.29 5.03-7.32 5.03s-7.23-4.82-7.32-5.03l-.18-.41.18-.41c.09-.21 2.29-5.03 7.32-5.03s7.23 4.83 7.32 5.03zm-2.22 0c-.57-.99-2.26-3.44-5.28-3.44s-4.72 2.44-5.28 3.44c.56.99 2.26 3.44 5.28 3.44s4.72-2.44 5.28-3.44m-2.89 0a2.4 2.4 0 1 1-4.801-.001 2.4 2.4 0 0 1 4.801.001m-1.29-.86c0-.31-.25-.55-.55-.55s-.55.25-.55.55.25.55.55.55.55-.25.55-.55"/></symbol><symbol id="s40" viewBox="0 0 40 40"><path d="M20.72 20.15h9.21v2.25h-9.21zm-2.95-4.01-3.67 5.23-2.36-1.81-1.37 1.79 4.22 3.24 5.02-7.15-1.84-1.29Zm-6.03 13.23-1.37 1.79 4.22 3.24 5.02-7.15-1.84-1.29-3.67 5.23-2.36-1.81Zm11.4 8.39c.79.82 1.78 1.63 2.98 2.25H5.26V0h22.92l6.84 8.48v18c-.68-.32-1.43-.57-2.25-.73V10.78h-6.15c-1.31 0-2.38-1.07-2.38-2.38V2.26H7.51v35.5h15.62Zm3.97-35.5h-.61v6.15c0 .07.06.13.13.13h5.55l-5.06-6.27ZM40 33.34l-.2.46c-.11.25-2.83 6.21-9.04 6.21s-8.92-5.96-9.04-6.21l-.2-.46.2-.46c.11-.25 2.83-6.21 9.04-6.21s8.92 5.96 9.04 6.21zm-2.5 0c-.68-1.22-2.84-4.42-6.74-4.42s-6.06 3.2-6.74 4.42c.68 1.22 2.84 4.42 6.74 4.42s6.06-3.2 6.74-4.42m-3.75 0c0 1.66-1.34 3-3 3s-3-1.34-3-3 1.34-3 3-3 3 1.34 3 3m-1.61-1.08c0-.38-.31-.69-.69-.69s-.69.31-.69.69.31.69.69.69.69-.31.69-.69"/></symbol><symbol id="s48" viewBox="0 0 48 48"><path d="M24.87 24.38h11.04v2.5H24.87zm-3.46-4.86-4.46 6.36-2.91-2.23-1.52 1.98 4.98 3.82 5.96-8.49zm-7.38 15.9-1.52 1.98 4.98 3.82 5.96-8.49-2.05-1.44-4.46 6.36zM28.26 45.5c.92.92 2.05 1.81 3.42 2.5H6.42V0h27.34l8.15 10.1V32c-.76-.35-1.6-.62-2.5-.8V12.73h-7.48c-1.52 0-2.75-1.23-2.75-2.75V2.5H8.92v43zm4.31-43h-.88v7.48c0 .14.11.25.25.25h6.86zm15.42 37.6-.23.51c-.13.3-3.37 7.39-10.75 7.39s-10.61-7.09-10.75-7.39l-.23-.51.23-.51c.13-.3 3.37-7.39 10.75-7.39s10.61 7.09 10.75 7.39zm-2.77 0c-.79-1.44-3.41-5.4-8.2-5.4s-7.41 3.96-8.2 5.4c.79 1.44 3.41 5.4 8.2 5.4s7.41-3.96 8.2-5.4m-4.61 0c0 1.99-1.61 3.6-3.6 3.6s-3.6-1.61-3.6-3.6 1.61-3.6 3.6-3.6 3.6 1.61 3.6 3.6m-1.93-1.29c0-.46-.37-.83-.83-.83s-.83.37-.83.83.37.83.83.83.83-.37.83-.83"/></symbol><symbol id="s64" viewBox="0 0 64 64"><path d="M33.16 33.06h14.73v2.75H33.16zm-4.38-6.6-6.13 8.73-4.13-3.17-1.67 2.18 6.4 4.91 7.78-11.08-2.25-1.58ZM18.53 47.73l-1.67 2.18 6.4 4.91 7.78-11.08-2.25-1.58-6.13 8.73-4.13-3.17Zm20.61 13.51a16.6 16.6 0 0 0 4.17 2.75H8.84V0h36.05l10.72 13.29v30.02c-.85-.36-1.77-.65-2.75-.85V16.39H42.59c-1.86 0-3.38-1.51-3.38-3.38V2.74H11.59v58.5zm4.43-58.5h-1.61V13c0 .34.28.63.63.63h9.76zM64 53.75l-.25.56c-.18.4-4.42 9.69-14.07 9.69s-13.9-9.29-14.07-9.69l-.25-.56.25-.56c.18-.4 4.42-9.69 14.07-9.69s13.9 9.29 14.07 9.69zm-3.04 0c-.99-1.84-4.57-7.5-11.28-7.5s-10.29 5.65-11.28 7.5c.99 1.84 4.56 7.5 11.28 7.5s10.29-5.65 11.28-7.5m-6.48 0a4.801 4.801 0 0 1-9.6 0 4.801 4.801 0 0 1 9.6 0m-2.59-1.73c0-.61-.5-1.11-1.11-1.11s-1.11.5-1.11 1.11.5 1.11 1.11 1.11 1.11-.5 1.11-1.11"/></symbol><use style="display: var(--s16, none)" href="#s16"/><use style="display: var(--s24, none)" href="#s24"/><use style="display: var(--s32, none)" href="#s32"/><use style="display: var(--s40, none)" href="#s40"/><use style="display: var(--s48, none)" href="#s48"/><use style="display: var(--s64, none)" href="#s64"/></symbol></defs><style>@media (max-width: 23.98px) {g{--s16:block;}}@media (min-width: 24px) and (max-width: 31.98px) {g{--s24:block;}}@media (min-width: 32px) and (max-width: 39.98px) {g{--s32:block;}}@media (min-width: 40px) and (max-width: 47.98px) {g{--s40:block;}}@media (min-width: 48px) and (max-width: 63.98px) {g{--s48:block;}}@media (min-width: 64px) {g{--s64:block;}}</style><g><use href="#i-protocolview"/></g></svg>