<svg xmlns="http://www.w3.org/2000/svg"><defs><symbol id="i-protocolview-solid"><symbol id="s16" viewBox="0 0 16 16"><path d="m7.39 13.65-.27-.61.27-.61c.51-1.16 2.06-3.11 4.58-3.11.9 0 1.66.25 2.31.62V3.6L11.38.01H1.77v15.98h7.65a5.7 5.7 0 0 1-2.03-2.34M10.12.76l2.91 3.41h-2.41c-.28 0-.5-.22-.5-.5zM8.3 6.98h4.13v1.5H8.3zM4.39 6.8l.7.53 1.29-1.84 1.23.86-2.19 3.12-1.94-1.49.91-1.19Zm-.92 5.58.91-1.19.7.53 1.29-1.84 1.23.86-2.19 3.12-1.94-1.49Zm12.39.36c-.05-.11-1.22-2.66-3.89-2.66s-3.84 2.56-3.89 2.66l-.13.3.13.3c.05.11 1.22 2.67 3.89 2.67s3.84-2.56 3.89-2.67l.13-.3zm-3.89 1.77c-1.27 0-2.04-.96-2.35-1.47.32-.51 1.08-1.47 2.35-1.47s2.03.96 2.35 1.47c-.32.51-1.08 1.47-2.35 1.47m1.08-1.47c0 .6-.48 1.08-1.08 1.08s-1.08-.48-1.08-1.08.48-1.08 1.08-1.08 1.08.48 1.08 1.08"/></symbol><symbol id="s24" viewBox="0 0 24 24"><path d="m11.82 20.51-.32-.71.32-.71c.08-.18 1.99-4.37 6.41-4.37 1.22 0 2.25.33 3.1.8V5.34L17.03 0H2.67v23.99h12.31c-2.12-1.24-3.1-3.36-3.15-3.49ZM15.22.88l4.74 5.24h-3.74c-.55 0-1-.45-1-1zm-2.79 10.59H19v1.75h-6.57zm-4.38 9.26-2.7-2.07 1.07-1.39 1.25.96 2.09-2.97 1.43 1.01zm0-6.12-2.7-2.07 1.07-1.39 1.25.96 2.09-2.97 1.43 1.01zm15.79 4.83c-.07-.16-1.76-3.85-5.61-3.85s-5.54 3.69-5.61 3.85l-.16.36.16.36c.07.16 1.75 3.85 5.61 3.85s5.54-3.69 5.61-3.85l.16-.36zm-5.61 2.81c-2.14 0-3.38-1.7-3.82-2.45.44-.76 1.68-2.45 3.82-2.45s3.37 1.69 3.82 2.45c-.45.76-1.68 2.45-3.82 2.45m1.62-2.45a1.62 1.62 0 1 1-3.24 0 1.62 1.62 0 0 1 3.24 0"/></symbol><symbol id="s32" viewBox="0 0 32 32"><path d="m16.25 27.36-.36-.81.36-.81c.1-.23 2.57-5.63 8.24-5.63 1.54 0 2.84.4 3.92.99V7.07L22.71 0H3.6v31.99h16.95c-2.9-1.57-4.23-4.46-4.3-4.63M20.35.99l5.72 7.07H21.7c-.75 0-1.35-.6-1.35-1.35zm-4.27 14.74h9.37v2h-9.37zm-5.89 11.82-3.46-2.66 1.22-1.59 1.81 1.39 2.88-4.1 1.64 1.15-4.08 5.81Zm0-8.03-3.46-2.66 1.22-1.59 1.81 1.39 2.88-4.1 1.64 1.15-4.08 5.81Zm21.63 6.62c-.09-.21-2.3-5.03-7.33-5.03s-7.24 4.83-7.33 5.03l-.18.41.18.41c.09.21 2.3 5.03 7.33 5.03s7.24-4.83 7.33-5.03l.18-.41zm-7.32 3.85c-3.03 0-4.72-2.45-5.29-3.44.57-1 2.26-3.44 5.29-3.44s4.72 2.44 5.29 3.44c-.57 1-2.26 3.44-5.29 3.44m0-5.84c-1.33 0-2.4 1.07-2.4 2.4s1.07 2.4 2.4 2.4 2.4-1.07 2.4-2.4-1.07-2.4-2.4-2.4m.55 2.09c-.31 0-.55-.25-.55-.55s.25-.55.55-.55.55.25.55.55-.25.55-.55.55"/></symbol><symbol id="s40" viewBox="0 0 40 40"><path d="m20.72 34.27-.41-.91.41-.91c.12-.28 3.14-6.88 10.06-6.88 1.85 0 3.42.48 4.73 1.18V8.84L28.4.03H4.57V40h21.52c-3.62-1.9-5.28-5.52-5.37-5.72ZM25.5 1.15l7.39 8.89H27.2c-.94 0-1.7-.76-1.7-1.7zm-4.74 19.01h11.02v2.25H20.76zm-7.38 14.25-4.22-3.24 1.37-1.79 2.36 1.81 3.67-5.23 1.84 1.29-5.02 7.15Zm0-9.82-4.22-3.24 1.37-1.79 2.36 1.81 3.67-5.23 1.84 1.29-5.02 7.15ZM35.47 40l.04-.02V40zm4.35-7.1c-.11-.25-2.83-6.21-9.04-6.21s-8.92 5.96-9.04 6.21l-.2.46.2.46c.11.25 2.83 6.21 9.04 6.21s8.92-5.96 9.04-6.21l.2-.46zm-9.04 4.88c-3.91 0-6.06-3.2-6.74-4.42.68-1.22 2.84-4.42 6.74-4.42s6.06 3.2 6.74 4.42c-.68 1.22-2.84 4.42-6.74 4.42m0-7.42c-1.66 0-3 1.34-3 3s1.34 3 3 3 3-1.34 3-3-1.34-3-3-3m.69 2.61c-.38 0-.69-.31-.69-.69s.31-.69.69-.69.69.31.69.69-.31.69-.69.69"/></symbol><symbol id="s48" viewBox="0 0 48 48"><path d="M31.71 48.03H5.5v-48h28.59l8.52 10.56v21.75c-1.55-.82-3.4-1.39-5.59-1.39-8.19 0-11.75 7.81-11.9 8.14l-.45 1.02.45 1.02c.11.25 2.14 4.69 6.59 6.91ZM30.64 9.96c0 1.13.92 2.05 2.05 2.05h7.18L30.64 1.28zm-5.77 16.91H38.7v-2.5H24.87zm-3.67 5.86-2.05-1.44-4.47 6.36-2.91-2.24-1.52 1.99 4.98 3.82 5.97-8.5Zm0-11.78-2.05-1.44-4.47 6.36-2.91-2.24-1.52 1.99 4.98 3.82 5.97-8.5Zm26.81 19.16-.23.51c-.13.3-3.37 7.4-10.76 7.4s-10.62-7.1-10.76-7.4l-.23-.51.23-.51c.13-.3 3.37-7.4 10.76-7.4s10.62 7.1 10.76 7.4zm-2.78 0c-.8-1.44-3.42-5.41-8.21-5.41s-7.42 3.96-8.21 5.41c.79 1.44 3.41 5.41 8.21 5.41s7.42-3.96 8.21-5.41m-4.61 0c0 1.99-1.61 3.6-3.6 3.6s-3.6-1.61-3.6-3.6 1.61-3.6 3.6-3.6 3.6 1.61 3.6 3.6m-1.94-1.3c0-.46-.37-.83-.83-.83s-.83.37-.83.83.37.83.83.83.83-.37.83-.83"/></symbol><symbol id="s64" viewBox="0 0 64 64"><path d="m34.35 54.78-.5-1.12.5-1.12c.19-.43 4.78-10.49 15.31-10.49 2.77 0 5.12.7 7.09 1.73V14.01L45.45 0H7.42v64h36.1c-6.21-2.72-9.02-8.89-9.17-9.22m6.59-53.41 12.44 14.44H43.7a2.76 2.76 0 0 1-2.76-2.76zM20.78 54.74l-6.39-4.9 1.67-2.18 4.12 3.16 6.12-8.72 2.25 1.58zm0-15.68-6.39-4.9 1.67-2.18 4.12 3.16 6.12-8.72L28.55 28zm12.39-6.05h18.42v2.75H33.17zM63.71 53.1c-.18-.4-4.41-9.68-14.05-9.68S35.78 52.7 35.61 53.1l-.25.56.25.56c.18.4 4.41 9.68 14.05 9.68s13.88-9.28 14.05-9.68l.25-.56zm-14.05 8.05c-6.71 0-10.28-5.65-11.26-7.49.99-1.84 4.56-7.49 11.26-7.49s10.28 5.65 11.26 7.49c-.99 1.84-4.56 7.49-11.26 7.49m0-12.28c-2.65 0-4.79 2.14-4.79 4.79s2.14 4.79 4.79 4.79 4.79-2.14 4.79-4.79-2.14-4.79-4.79-4.79m1.1 4.17c-.61 0-1.11-.49-1.11-1.11s.49-1.11 1.11-1.11 1.11.49 1.11 1.11-.49 1.11-1.11 1.11"/></symbol><use style="display: var(--s16, none)" href="#s16"/><use style="display: var(--s24, none)" href="#s24"/><use style="display: var(--s32, none)" href="#s32"/><use style="display: var(--s40, none)" href="#s40"/><use style="display: var(--s48, none)" href="#s48"/><use style="display: var(--s64, none)" href="#s64"/></symbol></defs><style>@media (max-width: 23.98px) {g{--s16:block;}}@media (min-width: 24px) and (max-width: 31.98px) {g{--s24:block;}}@media (min-width: 32px) and (max-width: 39.98px) {g{--s32:block;}}@media (min-width: 40px) and (max-width: 47.98px) {g{--s40:block;}}@media (min-width: 48px) and (max-width: 63.98px) {g{--s48:block;}}@media (min-width: 64px) {g{--s64:block;}}</style><g><use href="#i-protocolview-solid"/></g></svg>