<svg xmlns="http://www.w3.org/2000/svg"><defs><symbol id="i-protocolaccess"><symbol id="s16" viewBox="0 0 16 16"><path d="M8.06 6.38 5.87 9.5 3.93 8.01l.91-1.19.7.53 1.29-1.84 1.23.86Zm1.18 9.63H1.77V.02h9.62l2.9 3.59v4.08c-.46-.27-.96-.48-1.5-.59V4.94h-2.16c-.69 0-1.25-.56-1.25-1.25V1.52H3.27v12.99h4.45c.39.61.91 1.12 1.52 1.5m1.63-14.24v1.67h1.34zM8.26 8.5h.06A4.87 4.87 0 0 1 11.83 7c.04 0 .08.01.12.01v-.02H8.26v1.5ZM6.83 9.9l-1.29 1.84-.7-.53-.91 1.19 1.94 1.49 1.12-1.59c-.01-.14-.04-.27-.04-.41 0-.59.12-1.15.32-1.68l-.43-.3Zm9.13 1.98a4.131 4.131 0 0 1-8.26 0 4.131 4.131 0 0 1 8.26 0m-1.5 0c0-1.45-1.18-2.63-2.63-2.63S9.2 10.43 9.2 11.88s1.18 2.63 2.63 2.63 2.63-1.18 2.63-2.63m-4-1.02 1.15 1.15-1.15 1.15 1.06 1.06 2.21-2.21-2.21-2.21z"/></symbol><symbol id="s24" viewBox="0 0 24 24"><path d="M11.9 10.14 8.77 14.6l-2.7-2.07 1.06-1.39 1.25.96 2.08-2.97 1.43 1.01Zm-4.76 7.12-1.06 1.39 2.7 2.07 3.13-4.46-1.43-1.01-2.08 2.97-1.25-.96ZM14.7 24H2.93V0h14.05l4.21 5.22v6.81a6.7 6.7 0 0 0-1.75-.63V6.88h-3.49c-.9 0-1.63-.73-1.63-1.63V1.76H4.68v20.5h7.99c.56.71 1.24 1.31 2.03 1.75Zm1.44-22.24h-.07v3.36h2.78zM12.4 13.21h.84c.85-.84 1.93-1.45 3.12-1.75h-3.97v1.75Zm11.57 4.85c0 3.28-2.66 5.94-5.94 5.94s-5.94-2.67-5.94-5.94 2.67-5.94 5.94-5.94 5.94 2.66 5.94 5.94m-1.75 0c0-2.31-1.88-4.19-4.19-4.19s-4.19 1.88-4.19 4.19 1.88 4.19 4.19 4.19 4.19-1.88 4.19-4.19m-6.07-1.7 1.9 1.9-1.9 1.9 1.24 1.24 3.14-3.14-3.14-3.14z"/></symbol><symbol id="s32" viewBox="0 0 32 32"><path d="m15.74 13.72-4.08 5.81-3.46-2.65 1.22-1.59 1.8 1.38 2.88-4.1zM9.42 23.3 8.2 24.89l3.46 2.65 4.08-5.81-1.64-1.15-2.88 4.1zm10.73 8.69H4.08V0h18.48l5.52 6.85v9.56c-.63-.31-1.3-.55-2-.71V8.82h-4.82c-1.1 0-2-.9-2-2V2H6.08v27.99h11.54a8.9 8.9 0 0 0 2.52 2ZM21.61 2h-.34v4.82h4.23zm-5.06 15.74h1.84a8.7 8.7 0 0 1 3.82-2h-5.66zm15.42 6.51c0 4.27-3.48 7.75-7.75 7.75s-7.75-3.48-7.75-7.75 3.48-7.75 7.75-7.75 7.75 3.48 7.75 7.75m-2 0c0-3.17-2.58-5.75-5.75-5.75s-5.75 2.58-5.75 5.75S21.05 30 24.22 30s5.75-2.58 5.75-5.75m-8.14-2.39 2.65 2.65-2.65 2.65 1.41 1.41 4.06-4.06-4.06-4.06z"/></symbol><symbol id="s40" viewBox="0 0 40 40"><path d="m19.58 17.43-5.02 7.15-4.22-3.24 1.37-1.79 2.36 1.81 3.67-5.23 1.84 1.29Zm-7.87 11.94-1.37 1.79 4.22 3.24 5.02-7.15-1.84-1.29-3.67 5.23-2.36-1.81Zm10.9 8.38c.87.92 1.89 1.68 3.03 2.25H5.23V0h22.92l6.84 8.48V20.8c-.71-.34-1.46-.61-2.25-.79v-9.24h-6.15c-1.31 0-2.38-1.07-2.38-2.38V2.25H7.49v35.5h15.13Zm4.47-35.5h-.61V8.4c0 .07.06.13.13.13h5.55l-5.06-6.27Zm-6.39 20.14h2.67c1.19-1.04 2.61-1.82 4.18-2.25h-6.85zm19.26 8.05c0 5.27-4.29 9.57-9.57 9.57s-9.57-4.29-9.57-9.57 4.29-9.57 9.57-9.57 9.57 4.29 9.57 9.57m-2.25 0c0-4.03-3.28-7.31-7.31-7.31s-7.31 3.28-7.31 7.31 3.28 7.31 7.31 7.31 7.31-3.28 7.31-7.31m-10.21-3.08 3.4 3.4-3.4 3.4 1.59 1.59 4.99-4.99-4.99-4.99z"/></symbol><symbol id="s48" viewBox="0 0 48 48"><path d="M24.84 24.37h11.04v2.5H24.84zm-3.46-4.85-4.46 6.36-2.91-2.23-1.52 1.98 4.98 3.82 5.96-8.49zm-7.37 15.89-1.52 1.98 4.98 3.82 5.96-8.49-2.05-1.44-4.46 6.36zM33.21 48H6.39V0h27.34l8.15 10.1V28c-.8-.28-1.63-.48-2.5-.57V12.72H31.9c-1.52 0-2.75-1.23-2.75-2.75V2.5H8.89v43h21.15c.89 1.02 1.96 1.87 3.16 2.5Zm-.67-45.5h-.88v7.48c0 .14.11.25.25.25h6.86zm15.42 35.81c0 5.34-4.35 9.69-9.69 9.69s-9.69-4.35-9.69-9.69 4.35-9.69 9.69-9.69 9.69 4.35 9.69 9.69m-2.5 0c0-3.96-3.22-7.19-7.19-7.19a7.191 7.191 0 0 0 0 14.38c3.97 0 7.19-3.22 7.19-7.19m-10.17-2.99 3.31 3.31-3.31 3.31 1.77 1.77 5.07-5.07-5.08-5.08-1.77 1.77Z"/></symbol><symbol id="s64" viewBox="0 0 64 64"><path d="M33.13 33.06h14.73v2.75H33.13zm-4.38-6.6-6.13 8.73-4.13-3.16-1.67 2.18 6.4 4.91L31 28.05l-2.25-1.58ZM18.5 47.72l-1.67 2.18 6.4 4.91 7.78-11.07-2.25-1.58-6.13 8.73-4.13-3.16Zm22.9 13.51a14 14 0 0 0 3.88 2.75H8.82V0h36.03l10.72 13.29v24.74c-.88-.28-1.8-.48-2.75-.58V16.38H42.56c-1.86 0-3.38-1.51-3.38-3.38V2.75H11.57v58.48zm2.14-58.48h-1.6v10.26c0 .34.28.63.63.63h9.76L43.55 2.75Zm20.43 48.62c0 6.96-5.66 12.63-12.63 12.63s-12.63-5.66-12.63-12.63 5.66-12.63 12.63-12.63 12.63 5.66 12.63 12.63m-2.75 0c0-5.45-4.43-9.88-9.88-9.88s-9.88 4.43-9.88 9.88 4.43 9.88 9.88 9.88 9.88-4.43 9.88-9.88m-13.65-4.18 4.62 4.62-4.62 4.62 1.95 1.95 6.56-6.56-6.56-6.57-1.95 1.95Z"/></symbol><use style="display: var(--s16, none)" href="#s16"/><use style="display: var(--s24, none)" href="#s24"/><use style="display: var(--s32, none)" href="#s32"/><use style="display: var(--s40, none)" href="#s40"/><use style="display: var(--s48, none)" href="#s48"/><use style="display: var(--s64, none)" href="#s64"/></symbol></defs><style>@media (max-width: 23.98px) {g{--s16:block;}}@media (min-width: 24px) and (max-width: 31.98px) {g{--s24:block;}}@media (min-width: 32px) and (max-width: 39.98px) {g{--s32:block;}}@media (min-width: 40px) and (max-width: 47.98px) {g{--s40:block;}}@media (min-width: 48px) and (max-width: 63.98px) {g{--s48:block;}}@media (min-width: 64px) {g{--s64:block;}}</style><g><use href="#i-protocolaccess"/></g></svg>