<svg xmlns="http://www.w3.org/2000/svg"><defs><symbol id="i-protocolaccess-solid"><symbol id="s16" viewBox="0 0 16 16"><path d="M10.09 8.48H8.3v-1.5h4.13v.79c.07 0 .13-.02.2-.02.58 0 1.13.12 1.65.31V3.6L11.38 0H1.76v15.98H9.1a4.85 4.85 0 0 1-1.36-3.36c0-1.76.94-3.29 2.34-4.15Zm.03-7.72 2.91 3.41h-2.41c-.28 0-.5-.22-.5-.5zM5.41 13.87l-1.94-1.49.91-1.19.7.53 1.29-1.84 1.23.86-2.19 3.12Zm0-4.39L3.47 7.99l.92-1.19.7.53 1.29-1.84 1.23.86-2.19 3.12Zm7.22-.23c-1.87 0-3.38 1.51-3.38 3.38s1.51 3.38 3.38 3.38 3.38-1.51 3.38-3.38-1.51-3.38-3.38-3.38m-.31 5.72-1.06-1.06 1.15-1.15-1.15-1.15 1.06-1.06 2.21 2.21z"/></symbol><symbol id="s24" viewBox="0 0 24 24"><path d="M12.09 18.93c0-2.4 1.25-4.51 3.13-5.73H12.4v-1.75h6.57v.66c.82 0 1.6.16 2.33.44V5.32L17 0H2.64v23.99h11.71c-1.38-1.25-2.26-3.05-2.26-5.05ZM15.18.88l4.74 5.24h-3.74c-.55 0-1-.45-1-1zM8.01 20.72l-2.7-2.07 1.07-1.39 1.25.96 2.08-2.97 1.43 1.01zm0-6.12-2.7-2.07 1.07-1.39 1.25.96 2.08-2.97 1.43 1.01zm10.9-.73a5.07 5.07 0 1 0 0 10.14 5.07 5.07 0 0 0 0-10.14m-.64 8.39-1.24-1.24 1.9-1.9-1.9-1.9 1.24-1.24 3.14 3.14-3.13 3.14Z"/></symbol><symbol id="s32" viewBox="0 0 32 32"><path d="M16.47 25.25c0-3.2 1.73-5.99 4.3-7.52h-4.71v-2h9.36v.78c1.04.02 2.04.23 2.96.59V7.07L22.67 0H3.58v31.97h16.04a8.73 8.73 0 0 1-3.16-6.72Zm3.84-24.24 5.72 7.06h-4.37c-.74 0-1.35-.6-1.35-1.35zM10.17 27.54l-3.46-2.65 1.22-1.59 1.81 1.38 2.88-4.1 1.64 1.15-4.08 5.81Zm0-8.02-3.46-2.65 1.22-1.59 1.81 1.38 2.88-4.1 1.64 1.15-4.08 5.81Zm15.05-1.02c-3.73 0-6.75 3.02-6.75 6.75S21.49 32 25.22 32s6.75-3.02 6.75-6.75-3.02-6.75-6.75-6.75m-.97 11.07-1.41-1.41 2.65-2.65-2.65-2.65 1.41-1.41 4.06 4.06z"/></symbol><symbol id="s40" viewBox="0 0 40 40"><path d="M20.84 31.51c0-3.9 2.11-7.31 5.23-9.18h-5.38v-2.25h11.02v.74c1.32.02 2.57.29 3.73.74V8.75l-7.1-8.8H4.51v39.97h20.44c-2.5-1.96-4.11-5-4.11-8.41m4.59-30.44 7.39 8.89h-5.69c-.94 0-1.7-.76-1.7-1.7zM13.31 34.33l-4.22-3.24 1.37-1.79 2.36 1.81 3.67-5.23 1.84 1.29-5.02 7.15Zm0-9.82-4.22-3.24 1.37-1.79 2.36 1.81 3.67-5.23 1.84 1.29-5.02 7.15Zm18.22-1.44c-4.66 0-8.44 3.78-8.44 8.44s3.78 8.44 8.44 8.44 8.44-3.78 8.44-8.44-3.78-8.44-8.44-8.44m-.98 13.75-1.59-1.59 3.4-3.4-3.4-3.4 1.59-1.59 4.99 4.99z"/></symbol><symbol id="s48" viewBox="0 0 48 48"><path d="M25.21 37.89c0-4.72 2.61-8.85 6.46-11.01h-6.84v-2.5h13.83v.92c1.37.09 2.69.39 3.91.89V10.6L34.06.03H5.47v48h24.88c-3.11-2.3-5.14-5.99-5.14-10.15ZM30.6 1.28 39.82 12h-7.18c-1.13 0-2.05-.92-2.05-2.05V1.28ZM15.2 41.23l-4.98-3.82 1.52-1.99 2.91 2.24 4.47-6.36 2.05 1.44-5.97 8.5Zm0-11.78-4.98-3.82 1.52-1.99 2.91 2.24 4.47-6.36 2.05 1.44-5.97 8.5Zm22.65-1.7c-5.6 0-10.13 4.54-10.13 10.13s4.54 10.13 10.13 10.13 10.13-4.54 10.13-10.13-4.54-10.13-10.13-10.13m-1.24 16.44-1.77-1.77 4.15-4.15-4.15-4.15 1.77-1.77 5.92 5.92z"/></symbol><symbol id="s64" viewBox="0 0 64 64"><path d="M34.28 50.44c0-6.49 3.84-12.08 9.35-14.68h-10.5v-2.75h18.42v1.25c1.82.12 3.56.52 5.17 1.18V14.01L45.41 0H7.38v64h34.23c-4.41-2.91-7.34-7.9-7.34-13.56Zm6.63-49.07 12.44 14.44h-9.68a2.76 2.76 0 0 1-2.76-2.76zM20.74 54.74l-6.39-4.9 1.67-2.18 4.12 3.16 6.12-8.72 2.25 1.58zm0-15.68-6.39-4.9 1.67-2.18 4.12 3.16 6.12-8.72L28.51 28zm29.78-2.11c-7.45 0-13.49 6.04-13.49 13.49s6.04 13.49 13.49 13.49 13.49-6.04 13.49-13.49-6.04-13.49-13.49-13.49m-1.87 21.68-1.94-1.94 5.73-5.73-5.73-5.73 1.94-1.94 7.68 7.68-7.67 7.67Z"/></symbol><use style="display: var(--s16, none)" href="#s16"/><use style="display: var(--s24, none)" href="#s24"/><use style="display: var(--s32, none)" href="#s32"/><use style="display: var(--s40, none)" href="#s40"/><use style="display: var(--s48, none)" href="#s48"/><use style="display: var(--s64, none)" href="#s64"/></symbol></defs><style>@media (max-width: 23.98px) {g{--s16:block;}}@media (min-width: 24px) and (max-width: 31.98px) {g{--s24:block;}}@media (min-width: 32px) and (max-width: 39.98px) {g{--s32:block;}}@media (min-width: 40px) and (max-width: 47.98px) {g{--s40:block;}}@media (min-width: 48px) and (max-width: 63.98px) {g{--s48:block;}}@media (min-width: 64px) {g{--s64:block;}}</style><g><use href="#i-protocolaccess-solid"/></g></svg>