<svg xmlns="http://www.w3.org/2000/svg"><defs><symbol id="i-qrcode"><symbol id="s16" viewBox="0 0 16 16"><path d="M8.87 13.28h4.47V10.3h-1.49V8.81h-1.49V5.84h1.49v1.49h1.49V4.35h-1.49V2.86h-1.49v1.49H8.87V2.86H7.38v2.97H4.4V4.35h1.49V2.86H4.4v1.49H2.91v1.49H4.4v1.48H2.91v2.98H4.4v1.48H2.91v1.49h4.47v-1.49h1.49v1.49Zm2.98-1.49h-1.49v-1.48h1.49zM8.87 8.82h1.49v1.48H8.87zM7.38 5.85h1.49v1.48H7.38zM5.89 7.34v1.48H4.4V7.34zm1.49 4.45H5.89V8.82h1.49zM1.54 5.5H.05V.05h5.62v1.49H1.54zM16.05-.04v5.63h-1.49V1.46h-3.95v-1.5zM14.48 10.5h1.49v5.45h-5.62v-1.49h4.13zM1.54 14.47h3.95v1.49H.05v-5.63h1.49z"/></symbol><symbol id="s24" viewBox="0 0 24 24"><path d="M1.77 8.13H.02V0h8.4v1.75H1.77zM15.89 0v1.75h6.38V8.4h1.75V0zm6.37 22.23h-6.65v1.75h8.4v-8.13h-1.75zM1.77 15.6H.02V24h8.13v-1.75H1.77zm11.56 4.54v-2.29h-2.3v2.29h-6.9v-2.3h2.3v-2.28h-2.3v-4.59h2.3V8.69h-2.3v-2.3h2.3V4.1h2.3v2.3h-2.3v2.28h4.6V4.1h2.3v2.29h2.3V4.1h2.3v2.29h2.3v4.59h-2.3V8.69h-2.3v4.57h2.3v2.29h2.3v4.59zm2.3-4.58v2.28h2.3v-2.28zm-2.3-2.3v2.29h2.3v-2.29zm-6.91 0h2.3v-2.28h-2.3zm4.6.01h-2.3v4.57h2.3zm2.31-2.3V8.69h-2.3v2.28z"/></symbol><symbol id="s32" viewBox="0 0 32 32"><path d="M2.02 10.77h-2V0h11.15v2H2.02v8.78ZM21.24.02v2h8.78v9.15h2V.02zm8.77 29.95h-9.15v2h11.15V21.19h-2zM2.03 20.84H.02v11.15H10.8v-2H2.03zm15.75 6.13v-3.09h-3.1v3.09H5.37v-3.1h3.1V20.8h-3.1v-6.19h3.1v-3.07h-3.1v-3.1h3.1V5.35h3.1v3.1h-3.1v3.07h6.21V5.34h3.1v3.09h3.1V5.34h3.1v3.09h3.1v6.19h-3.1v-3.09h-3.1v6.16h3.1v3.09h3.1v6.19h-9.31Zm3.1-6.18v3.07h3.1v-3.07zm-3.1-3.1v3.09h3.1V17.7h-3.1Zm-9.31 0h3.1v-3.07h-3.1zm6.21.02h-3.1v6.16h3.1zm3.1-3.11v-3.07h-3.1v3.07z"/></symbol><symbol id="s40" viewBox="0 0 40 40"><path d="M2.27 13.41H.02V0h13.87v2.25H2.27zm35.5.46h2.25V0H26.61v2.25h11.16zm0 12.71v11.16H26.15v2.25h13.87V26.58zm-35.5-.46H.02v13.87h13.41v-2.25H2.27zm19.96 7.64v-3.88h-3.9v3.88H6.64v-3.9h3.9V26h-3.9v-7.78h3.9v-3.86h-3.9v-3.9h3.9V6.58h3.9v3.9h-3.9v3.86h7.79V6.58h3.9v3.88h3.9V6.58h3.9v3.88h3.9v7.78h-3.9v-3.88h-3.9v7.74h3.9v3.88h3.9v7.78H22.24ZM26.12 26v3.86h3.9V26zm-3.89-3.9v3.88h3.9v-3.87h-3.89Zm-11.69 0h3.9v-3.86h-3.9zm7.79.02h-3.9v7.74h3.9zm3.9-3.9v-3.86h-3.9v3.86z"/></symbol><symbol id="s48" viewBox="0 0 48 48"><path d="M2.52 16.05H.02V0h16.61v2.5H2.52v13.54Zm43 .58h2.5V.03H31.97v2.5h13.55zm0 15.34v13.54H31.41v2.5h16.61V31.97zm-43-.58H.02v16.6h16.05v-2.5H2.52zm24.16 9.18V35.9h-4.7v4.67H7.9v-4.69h4.7v-4.65H7.9v-9.36h4.7v-4.65H7.9v-4.69h4.7V7.86h4.7v4.69h-4.7v4.65h9.39V7.86h4.7v4.67h4.7V7.86h4.7v4.67h4.7v9.36h-4.7v-4.67h-4.7v9.32h4.7v4.67h4.7v9.36H26.7Zm4.7-9.34v4.65h4.7v-4.65zm-4.7-4.69v4.67h4.7v-4.66h-4.7Zm-14.09 0h4.7v-4.65h-4.7zm9.4.02h-4.7v9.32h4.7zm4.69-4.69v-4.65h-4.7v4.65z"/></symbol><symbol id="s64" viewBox="0 0 64 64"><path d="M2.77 2.77h19.22V.02H.02v21.23h2.75zM42.8-.02v2.75h18.47v19.23h2.75V-.02zm18.44 61.25H42.01v2.75h21.98V42.75h-2.75zM2.81 41.99H.06v21.98h21.22v-2.75H2.81zm51.67 12.19V41.61h-6.3v-6.27H41.9l-.02-12.51h6.3v6.27h6.3V16.53h-6.3v-6.27h-6.3v6.27h-6.3v-6.27h-6.3V22.8H16.69v-6.24h6.3v-6.3h-6.3v6.27h-6.3v6.3h6.3v6.24h-6.3v12.57h6.3v6.24h-6.3v6.3h18.89v-6.27h6.3v6.27h18.89Zm-6.3-12.54v6.24h-6.3v-6.24zm-12.58-6.3 6.28.01v6.26h-6.3v-6.27h.01ZM16.7 29.1H23v6.24h-6.3zm12.59 18.78h-6.3V35.37h6.3zm0-18.81v-6.24h6.3v6.24z"/></symbol><use style="display: var(--s16, none)" href="#s16"/><use style="display: var(--s24, none)" href="#s24"/><use style="display: var(--s32, none)" href="#s32"/><use style="display: var(--s40, none)" href="#s40"/><use style="display: var(--s48, none)" href="#s48"/><use style="display: var(--s64, none)" href="#s64"/></symbol></defs><style>@media (max-width: 23.98px) {g{--s16:block;}}@media (min-width: 24px) and (max-width: 31.98px) {g{--s24:block;}}@media (min-width: 32px) and (max-width: 39.98px) {g{--s32:block;}}@media (min-width: 40px) and (max-width: 47.98px) {g{--s40:block;}}@media (min-width: 48px) and (max-width: 63.98px) {g{--s48:block;}}@media (min-width: 64px) {g{--s64:block;}}</style><g><use href="#i-qrcode"/></g></svg>