<svg xmlns="http://www.w3.org/2000/svg"><defs><symbol id="i-recieving"><symbol id="s16" viewBox="0 0 16 16"><path d="M8 7.5c2.07 0 3.75-1.68 3.75-3.75S10.07 0 8 0 4.25 1.68 4.25 3.75 5.93 7.5 8 7.5m0-6c1.24 0 2.25 1.01 2.25 2.25S9.24 6 8 6 5.75 4.99 5.75 3.75 6.76 1.5 8 1.5m8 11.38V16h-1.5v-3.12c0-1.52-1.23-2.75-2.75-2.75H6.99v-1.5h4.76A4.26 4.26 0 0 1 16 12.88m-5.71 0h1.5V16h-1.5zm-5.12-2.76L8 12.95l-2.83 2.83c-.15.15-.34.22-.53.22s-.38-.07-.53-.22a.754.754 0 0 1 0-1.06l1.02-1.02H0v-1.5h5.13l-1.02-1.02c-.29-.29-.29-.77 0-1.06s.77-.29 1.06 0"/></symbol><symbol id="s24" viewBox="0 0 24 24"><path d="M12.16 10.85c2.99 0 5.43-2.43 5.43-5.42S15.16 0 12.16 0 6.73 2.43 6.73 5.42s2.44 5.42 5.43 5.42Zm0-9.09c2.03 0 3.68 1.65 3.68 3.67a3.681 3.681 0 0 1-7.36 0c0-2.02 1.65-3.67 3.68-3.67m11.83 17.51v4.74h-1.75v-4.74a4.44 4.44 0 0 0-4.44-4.43H9.06v-1.75h8.74c3.41 0 6.19 2.77 6.19 6.18m-8.15 0h1.75v4.74h-1.75zM6.7 14.98l4.39 4.38-4.39 4.38c-.17.17-.4.26-.62.26s-.45-.08-.62-.26a.88.88 0 0 1 0-1.24l2.27-2.27H-.01v-1.75h7.75l-2.27-2.27a.88.88 0 0 1 0-1.24c.34-.34.9-.34 1.24 0Z"/></symbol><symbol id="s32" viewBox="0 0 32 32"><path d="M16.28 14.21c3.92 0 7.1-3.19 7.1-7.11S20.2 0 16.28 0s-7.1 3.19-7.1 7.11 3.19 7.11 7.1 7.11Zm0-12.21c2.81 0 5.1 2.29 5.1 5.11s-2.29 5.11-5.1 5.11-5.1-2.29-5.1-5.11S13.47 2 16.28 2m15.71 23.64V32h-2v-6.36c0-3.38-2.75-6.12-6.12-6.12H12.16v-2h11.71c4.48 0 8.12 3.64 8.12 8.12m-10.57 0h2V32h-2zM9.05 19.96l5.87 5.87-5.87 5.87c-.2.2-.45.29-.71.29s-.51-.1-.71-.29a.996.996 0 0 1 0-1.41l3.45-3.45H0v-2h11.09l-3.45-3.45a.996.996 0 1 1 1.41-1.41Z"/></symbol><symbol id="s40" viewBox="0 0 40 40"><path d="M20.5 17.55c4.84 0 8.77-3.94 8.77-8.77S25.33 0 20.5 0s-8.77 3.94-8.77 8.77 3.93 8.77 8.77 8.77Zm0-15.3c3.6 0 6.52 2.93 6.52 6.52s-2.93 6.52-6.52 6.52-6.52-2.93-6.52-6.52 2.93-6.52 6.52-6.52M40 32.04V40h-2.25v-7.96c0-4.3-3.5-7.8-7.8-7.8H15.27v-2.25h14.68C35.49 21.99 40 26.5 40 32.04m-12.98 0h2.25V40h-2.25zm-15.66-7.03 7.32 7.32-7.32 7.32c-.22.22-.51.33-.8.33s-.58-.11-.8-.33c-.44-.44-.44-1.15 0-1.59l4.61-4.61H0V31.2h14.37l-4.61-4.61c-.44-.44-.44-1.15 0-1.59s1.15-.44 1.59 0Z"/></symbol><symbol id="s48" viewBox="0 0 48 48"><path d="M24.52 20.99c5.79 0 10.51-4.71 10.51-10.5S30.31 0 24.52 0 14.01 4.71 14.01 10.5 18.72 21 24.52 21Zm0-18.49c4.41 0 8.01 3.59 8.01 8s-3.59 8-8.01 8-8-3.59-8-8 3.59-8 8-8m23.51 35.87V48h-2.5v-9.63c0-5.26-4.28-9.54-9.55-9.54H18.21v-2.5h17.77c6.64 0 12.05 5.4 12.05 12.04m-15.5 0h2.5V48h-2.5zM13.69 29.8l8.79 8.78-8.79 8.78c-.24.24-.56.37-.88.37s-.64-.12-.88-.37a1.25 1.25 0 0 1 0-1.77l5.77-5.76H.03v-2.5h17.66l-5.76-5.76c-.49-.49-.49-1.28 0-1.77s1.28-.49 1.77 0Z"/></symbol><symbol id="s64" viewBox="0 0 64 64"><path d="M32.98 27.37c7.56 0 13.71-6.14 13.71-13.69S40.54-.02 32.98-.02s-13.7 6.14-13.7 13.7 6.15 13.69 13.7 13.69m0-24.64c6.04 0 10.96 4.91 10.96 10.95s-4.91 10.95-10.96 10.95-10.95-4.91-10.95-10.95S26.94 2.73 32.98 2.73M64 51.15v12.83h-2.75V51.15c0-7.17-5.84-13-13.01-13H24.57V35.4h23.67C56.93 35.4 64 42.47 64 51.15m-20.07 0h2.75v12.83h-2.75zm-25.4-11.22 11.82 11.81-11.82 11.81c-.27.27-.62.4-.97.4s-.7-.13-.97-.4c-.54-.54-.54-1.41 0-1.94l8.5-8.5H0v-2.75h25.08l-8.5-8.5c-.54-.54-.54-1.41 0-1.94.54-.54 1.41-.54 1.95 0Z"/></symbol><use style="display: var(--s16, none)" href="#s16"/><use style="display: var(--s24, none)" href="#s24"/><use style="display: var(--s32, none)" href="#s32"/><use style="display: var(--s40, none)" href="#s40"/><use style="display: var(--s48, none)" href="#s48"/><use style="display: var(--s64, none)" href="#s64"/></symbol></defs><style>@media (max-width: 23.98px) {g{--s16:block;}}@media (min-width: 24px) and (max-width: 31.98px) {g{--s24:block;}}@media (min-width: 32px) and (max-width: 39.98px) {g{--s32:block;}}@media (min-width: 40px) and (max-width: 47.98px) {g{--s40:block;}}@media (min-width: 48px) and (max-width: 63.98px) {g{--s48:block;}}@media (min-width: 64px) {g{--s64:block;}}</style><g><use href="#i-recieving"/></g></svg>