<svg xmlns="http://www.w3.org/2000/svg"><defs><symbol id="i-reloadright"><symbol id="s16" viewBox="0 0 16 16"><path d="M15.5 9.59C14.88 13.3 11.75 16 8.05 16 3.88 16 .5 12.54.5 8.29S3.89.58 8.05.58c2.05 0 3.97.83 5.41 2.33l.11.1V.75c0-.42.33-.75.73-.75s.73.34.73.75v4.81H9.75c-.41 0-.73-.34-.73-.75s.33-.75.73-.75h2.76l-.09-.08c-1.18-1.23-2.72-1.9-4.38-1.9-3.36 0-6.08 2.79-6.08 6.21s2.73 6.21 6.08 6.21c2.98 0 5.5-2.17 6-5.16l1.45.25Z"/></symbol><symbol id="s24" viewBox="0 0 24 24"><path d="M23.46 14.39c-.95 5.56-5.73 9.6-11.38 9.6C5.71 24 .54 18.81.54 12.44S5.71.89 12.08.89c3.14 0 6.07 1.24 8.26 3.49l.64.63V.87c0-.48.39-.88.88-.88s.88.39.88.88v7.11h-7.99c-.48 0-.88-.39-.88-.88s.39-.88.88-.88h4.99l-.63-.62a9.72 9.72 0 0 0-7.03-2.97c-5.4.01-9.79 4.4-9.79 9.81s4.39 9.8 9.79 9.8c4.79 0 8.85-3.43 9.65-8.14l1.72.29Z"/></symbol><symbol id="s32" viewBox="0 0 32 32"><path d="M31.26 19.19a15.33 15.33 0 0 1-15.15 12.8C7.63 31.98.73 25.08.73 16.58s6.9-15.4 15.38-15.4c4.18 0 8.09 1.65 11 4.65l1.17 1.15V.99c0-.55.45-1 1-1s1 .45 1 1v9.4H19.7c-.55 0-1-.45-1-1s.45-1 1-1h7.16L25.7 7.25c-2.56-2.62-5.96-4.06-9.59-4.06-7.37 0-13.37 6.01-13.37 13.4s6 13.4 13.37 13.4c6.54 0 12.09-4.68 13.18-11.13l1.97.34Z"/></symbol><symbol id="s40" viewBox="0 0 40 40"><path d="M39.09 24.03a19.174 19.174 0 0 1-18.96 15.99C9.53 40.02.9 31.39.9 20.77S9.53 1.53 20.13 1.53c5.23 0 10.11 2.06 13.77 5.81l1.71 1.67V1.15c0-.62.5-1.13 1.12-1.13s1.12.5 1.12 1.13v11.7H24.66c-.62 0-1.12-.5-1.12-1.13s.5-1.13 1.12-1.13h9.35l-1.7-1.66c-3.24-3.33-7.56-5.15-12.17-5.15-9.37 0-16.99 7.62-16.99 16.99s7.62 16.99 16.98 16.99c8.31 0 15.34-5.94 16.74-14.12l2.22.38Z"/></symbol><symbol id="s48" viewBox="0 0 48 48"><path d="M46.91 28.81A23.01 23.01 0 0 1 24.16 48C11.43 48 1.08 37.64 1.08 24.91S11.43 1.82 24.16 1.82c6.27 0 12.14 2.47 16.52 6.97l2.24 2.19V1.25a1.25 1.25 0 0 1 2.5 0v13.99h-15.8a1.25 1.25 0 0 1 0-2.5h11.53l-2.24-2.19c-3.93-4.03-9.16-6.23-14.75-6.23-11.35 0-20.58 9.24-20.58 20.59S12.81 45.5 24.16 45.5c10.07 0 18.6-7.19 20.29-17.11z"/></symbol><symbol id="s64" viewBox="0 0 64 64"><path d="M62.52 38.41C60 53.23 47.25 63.98 32.21 63.98c-16.96 0-30.75-13.81-30.75-30.77S15.25 2.43 32.21 2.43c8.36 0 16.17 3.3 22.01 9.29l3.54 3.46V1.36c0-.76.62-1.38 1.38-1.38s1.38.62 1.38 1.38v18.53H39.56c-.76 0-1.38-.62-1.38-1.38s.62-1.38 1.38-1.38h16.27l-3.55-3.47c-5.34-5.48-12.46-8.48-20.07-8.48-15.44 0-28 12.57-28 28.02s12.56 28.02 28 28.02c13.7 0 25.31-9.79 27.6-23.28l2.71.46Z"/></symbol><use style="display: var(--s16, none)" href="#s16"/><use style="display: var(--s24, none)" href="#s24"/><use style="display: var(--s32, none)" href="#s32"/><use style="display: var(--s40, none)" href="#s40"/><use style="display: var(--s48, none)" href="#s48"/><use style="display: var(--s64, none)" href="#s64"/></symbol></defs><style>@media (max-width: 23.98px) {g{--s16:block;}}@media (min-width: 24px) and (max-width: 31.98px) {g{--s24:block;}}@media (min-width: 32px) and (max-width: 39.98px) {g{--s32:block;}}@media (min-width: 40px) and (max-width: 47.98px) {g{--s40:block;}}@media (min-width: 48px) and (max-width: 63.98px) {g{--s48:block;}}@media (min-width: 64px) {g{--s64:block;}}</style><g><use href="#i-reloadright"/></g></svg>