<svg xmlns="http://www.w3.org/2000/svg"><defs><symbol id="i-resizeshrink"><symbol id="s16" viewBox="0 0 16 16"><path d="M13.91 6.99H9.02V2.1c0-.41.34-.75.75-.75s.75.34.75.75v2.33L14.95 0l1.06 1.06-4.43 4.43h2.33c.41 0 .75.34.75.75s-.34.75-.75.75M1.35 9.76c0 .41.34.75.75.75h2.33L.01 14.93l1.06 1.06 4.42-4.42v2.33c0 .41.34.75.75.75s.75-.34.75-.75V9.01H2.1c-.41 0-.75.34-.75.75m4.89-8.42c-.41 0-.75.34-.75.75v2.33L1.07 0 0 1.06l4.43 4.43H2.1c-.41 0-.75.34-.75.75s.34.75.75.75h4.89V2.1c0-.41-.34-.75-.75-.75Zm7.67 9.17c.41 0 .75-.34.75-.75s-.34-.75-.75-.75H9.02v4.72c0 .41.34.75.75.75s.75-.34.75-.75v-2.15L14.94 16 16 14.94l-4.42-4.43h2.34Z"/></symbol><symbol id="s24" viewBox="0 0 24 24"><path d="M21.31 9.98h-7.3v-7.3c0-.48.39-.88.88-.88s.88.39.88.88v4.31L22.75 0l1.24 1.24-7 7h4.31c.48 0 .88.39.88.88s-.39.88-.88.88ZM1.82 14.86c0 .48.39.88.88.88h4.31L0 22.75l1.24 1.24 7.02-7.02v4.31c0 .48.39.88.88.88s.88-.39.88-.88v-7.31H2.69c-.48 0-.88.39-.88.88Zm.87-6.63c-.48 0-.88.39-.88.88s.39.88.88.88H10V2.68c0-.48-.39-.88-.88-.88s-.88.39-.88.88v4.31L1.25 0 0 1.23l7 7zm18.63 7.53c.48 0 .88-.39.88-.88s-.39-.88-.88-.88h-7.3v7.03c0 .48.39.88.88.88s.88-.39.88-.88v-4.04l6.99 6.99 1.24-1.24-6.98-6.98h4.31Z"/></symbol><symbol id="s32" viewBox="0 0 32 32"><path d="M28.57 12.99H19V3.41c0-.55.45-1 1-1s1 .45 1 1v6.16l9.58-9.59L32 1.4l-9.59 9.59h6.16c.55 0 1 .45 1 1s-.45 1-1 1m-26.16 7c0 .55.45 1 1 1h6.16L0 30.57l1.42 1.42 9.57-9.57v6.16c0 .55.45 1 1 1s1-.45 1-1V19H3.41c-.55 0-1 .45-1 1ZM12 2.41c-.55 0-1 .45-1 1v6.16L1.42-.01 0 1.4l9.59 9.59H3.43c-.55 0-1 .45-1 1s.45 1 1 1h9.58V3.41c0-.55-.45-1-1-1ZM28.59 21c.55 0 1-.45 1-1s-.45-1-1-1h-9.58v9.21c0 .55.45 1 1 1s1-.45 1-1v-5.79l9.56 9.56 1.42-1.42L22.43 21z"/></symbol><symbol id="s40" viewBox="0 0 40 40"><path d="M35.92 15.99H24.01V4.08c0-.62.5-1.13 1.13-1.13s1.13.5 1.13 1.13v8.07L38.4 0l1.59 1.59-12.14 12.14h8.07c.62 0 1.13.5 1.13 1.13s-.5 1.13-1.13 1.13M2.96 25.13c0 .62.5 1.13 1.13 1.13h8.07L0 38.41 1.59 40l12.15-12.15v8.07c0 .62.5 1.13 1.13 1.13s1.13-.5 1.13-1.13V24.01H4.08c-.62 0-1.13.5-1.13 1.13Zm1.12-11.38c-.62 0-1.13.5-1.13 1.13s.5 1.13 1.13 1.13h11.91V4.09c0-.62-.5-1.13-1.13-1.13s-1.13.5-1.13 1.13v8.07L1.59 0 0 1.6l12.16 12.16H4.08ZM40 38.4 27.85 26.25h8.07c.62 0 1.13-.5 1.13-1.13s-.5-1.13-1.13-1.13H24.01v11.45c0 .62.5 1.13 1.13 1.13s1.13-.5 1.13-1.13v-7.61l12.15 12.15 1.59-1.59Z"/></symbol><symbol id="s48" viewBox="0 0 48 48"><path d="M43.26 18.99H29.01V4.74a1.25 1.25 0 0 1 2.5 0v9.98L46.23 0 48 1.77 33.28 16.49h9.98a1.25 1.25 0 0 1 0 2.5M3.5 30.25c0 .69.56 1.25 1.25 1.25h9.98L0 46.23 1.77 48 16.5 33.27v9.98a1.25 1.25 0 0 0 2.5 0V29H4.75c-.69 0-1.25.56-1.25 1.25m1.25-13.74a1.25 1.25 0 0 0 0 2.5H19V4.76a1.25 1.25 0 0 0-2.5 0v9.98L1.77.01 0 1.78l14.73 14.73zm38.5 14.99a1.25 1.25 0 0 0 0-2.5H29v13.69a1.25 1.25 0 0 0 2.5 0v-9.42L46.23 48 48 46.23 33.27 31.5z"/></symbol><symbol id="s64" viewBox="0 0 64 64"><path d="M58.08 24.77H39.21V5.9c0-.76.62-1.38 1.38-1.38s1.38.62 1.38 1.38v14.18L62.04 0l1.95 1.95-20.08 20.08h14.17c.76 0 1.38.62 1.38 1.38s-.62 1.38-1.38 1.38ZM4.54 40.59c0 .76.62 1.38 1.38 1.38h14.17L.03 62.03l1.95 1.95 20.07-20.07v14.18c0 .76.62 1.38 1.38 1.38s1.38-.62 1.38-1.38V39.22H5.92c-.76 0-1.38.62-1.38 1.38ZM23.43 4.57c-.76 0-1.38.62-1.38 1.38v14.18L1.93 0-.01 1.94l20.12 20.13H5.93c-.76 0-1.38.62-1.38 1.38s.62 1.38 1.38 1.38H24.8V5.94c0-.76-.62-1.38-1.38-1.38Zm40.56 57.48L43.91 41.97h14.17c.76 0 1.38-.62 1.38-1.38s-.62-1.38-1.38-1.38H39.21v18.12c0 .76.62 1.38 1.38 1.38s1.38-.62 1.38-1.38V43.9l20.08 20.09L64 62.04Z"/></symbol><use style="display: var(--s16, none)" href="#s16"/><use style="display: var(--s24, none)" href="#s24"/><use style="display: var(--s32, none)" href="#s32"/><use style="display: var(--s40, none)" href="#s40"/><use style="display: var(--s48, none)" href="#s48"/><use style="display: var(--s64, none)" href="#s64"/></symbol></defs><style>@media (max-width: 23.98px) {g{--s16:block;}}@media (min-width: 24px) and (max-width: 31.98px) {g{--s24:block;}}@media (min-width: 32px) and (max-width: 39.98px) {g{--s32:block;}}@media (min-width: 40px) and (max-width: 47.98px) {g{--s40:block;}}@media (min-width: 48px) and (max-width: 63.98px) {g{--s48:block;}}@media (min-width: 64px) {g{--s64:block;}}</style><g><use href="#i-resizeshrink"/></g></svg>