<svg xmlns="http://www.w3.org/2000/svg"><defs><symbol id="i-save-solid"><symbol id="s16" viewBox="0 0 16 16"><path d="M9.73 9.11c0 .96-.78 1.74-1.73 1.74s-1.73-.78-1.73-1.74S7.05 7.38 8 7.38s1.73.78 1.73 1.73m6.26-8.01v13.79c0 .61-.49 1.1-1.1 1.1H1.1C.49 16 0 15.5 0 14.89V3.33L3.33 0h11.56c.61 0 1.1.49 1.1 1.1M3.94 4.44h6.81c1.02 0 1.85-.83 1.85-1.85V0h-1.5v2.59c0 .2-.16.35-.35.35H5.44V0h-1.5zm7.29 4.67c0-1.78-1.45-3.23-3.23-3.23S4.77 7.33 4.77 9.11 6.22 12.35 8 12.35s3.23-1.45 3.23-3.24m2.29 4.13h-1.65v1.5h1.65z"/></symbol><symbol id="s24" viewBox="0 0 24 24"><path d="M14.89 13.67c0 1.6-1.3 2.9-2.89 2.9a2.9 2.9 0 0 1 0-5.8 2.9 2.9 0 0 1 2.89 2.9M17.38 24h2.25v-2.12h-2.25zm6.61-22.12v20.23c0 1.04-.84 1.89-1.88 1.89h-.73v-3.87h-5.75V24H1.87c-1.04 0-1.88-.85-1.88-1.89V5l5-5h17.12c1.04 0 1.88.84 1.88 1.89Zm-7.35 11.79c0-2.56-2.08-4.65-4.64-4.65s-4.64 2.08-4.64 4.65 2.08 4.65 4.64 4.65 4.64-2.08 4.64-4.65M18.66 0h-1.75v3.65c0 .56-.45 1.01-1.01 1.01H7.91V0H6.16v6.41h9.74c1.52 0 2.76-1.24 2.76-2.76z"/></symbol><symbol id="s32" viewBox="0 0 32 32"><path d="M23.9 29h3v3h-3zM16 14.22c-2.21 0-4 1.79-4 4s1.79 4 4 4 4-1.79 4-4-1.79-4-4-4M31.99 2.13v27.73c0 1.18-.95 2.13-2.13 2.13h-.96v-5h-7v5H2.12C.94 32-.01 31.04-.01 29.86V6.66L6.66 0h23.2c1.18 0 2.13.96 2.13 2.13M13.02 3.87h5.75V0h-1.75v2.12h-2.25V0h-1.75v3.88ZM22 18.22c0-3.31-2.69-6-6-6s-6 2.69-6 6 2.69 6 6 6 6-2.69 6-6M24.72 0h-2v5.25c0 .62-.51 1.13-1.13 1.13h-11.2V0h-2v8.38h13.2c1.73 0 3.13-1.41 3.13-3.13z"/></symbol><symbol id="s40" viewBox="0 0 40 40"><path d="M37.6 0H23.22v5.14h-7.25V0H8.32L-.02 8.34v29.28A2.38 2.38 0 0 0 2.36 40h25.61v-5.3h7.54V40h2.08a2.38 2.38 0 0 0 2.38-2.38V2.38A2.364 2.364 0 0 0 37.6 0M20 30.97c-4.48 0-8.12-3.65-8.12-8.14s3.64-8.14 8.12-8.14 8.12 3.65 8.12 8.14-3.64 8.14-8.12 8.14M30.62 6.76c0 1.86-1.64 3.37-3.66 3.37H10.37V0h2.25v7.87h14.34c.78 0 1.41-.5 1.41-1.12V0h2.25v6.75Zm-12.4-3.87V0h2.75v2.89zm7.65 19.93c0 3.25-2.64 5.89-5.88 5.89s-5.88-2.64-5.88-5.89 2.64-5.89 5.88-5.89 5.88 2.64 5.88 5.89m4.36 14.13h3.04V40h-3.04z"/></symbol><symbol id="s48" viewBox="0 0 48 48"><path d="M31.25 27.22c0 4-3.25 7.25-7.25 7.25s-7.25-3.25-7.25-7.25S20 19.97 24 19.97s7.25 3.25 7.25 7.25M47.98 2.63v42.72a2.64 2.64 0 0 1-2.65 2.64H2.63c-1.46 0-2.65-1.18-2.65-2.64V10l10-10h35.35c1.46 0 2.65 1.19 2.65 2.64ZM18.86 5.26h8.5V.01h-2.5v2.75h-3.5V.01h-2.5zm-6.11 6H31.4c2.12 0 3.85-1.6 3.85-3.56V.01h-2.5V7.7c0 .58-.62 1.06-1.35 1.06H15.25V.01h-2.5zm21 15.96c0-5.38-4.37-9.75-9.75-9.75s-9.75 4.37-9.75 9.75 4.37 9.75 9.75 9.75 9.75-4.37 9.75-9.75m8.76 13.07h-8.82v7.55h2.5v-5.05h3.82v5.05h2.5z"/></symbol><symbol id="s64" viewBox="0 0 64 64"><path d="M60.47.03H48.53v12.06c0 2.76-2.33 5.01-5.19 5.01H16.51V.03h-3.18L0 13.36V60.5c0 1.94 1.58 3.52 3.53 3.52h56.95c1.95 0 3.53-1.58 3.53-3.52V3.55c0-1.94-1.59-3.52-3.53-3.52ZM32 50.21c-7.68 0-13.92-6.25-13.92-13.93S24.32 22.35 32 22.35s13.92 6.25 13.92 13.93S39.68 50.21 32 50.21M56.1 64h-2.75v-5.62H48.1V64h-2.75v-8.38H56.1zM31.51 5.45h-4.05V.03h4.05zm11.84 8.89H19.27V.03h5.45V8.2h9.55V.03h11.52v12.06c0 1.25-1.09 2.26-2.44 2.26Zm-.18 21.94c0 6.16-5.01 11.18-11.17 11.18s-11.17-5.01-11.17-11.18S25.84 25.1 32 25.1s11.17 5.01 11.17 11.18"/></symbol><use style="display: var(--s16, none)" href="#s16"/><use style="display: var(--s24, none)" href="#s24"/><use style="display: var(--s32, none)" href="#s32"/><use style="display: var(--s40, none)" href="#s40"/><use style="display: var(--s48, none)" href="#s48"/><use style="display: var(--s64, none)" href="#s64"/></symbol></defs><style>@media (max-width: 23.98px) {g{--s16:block;}}@media (min-width: 24px) and (max-width: 31.98px) {g{--s24:block;}}@media (min-width: 32px) and (max-width: 39.98px) {g{--s32:block;}}@media (min-width: 40px) and (max-width: 47.98px) {g{--s40:block;}}@media (min-width: 48px) and (max-width: 63.98px) {g{--s48:block;}}@media (min-width: 64px) {g{--s64:block;}}</style><g><use href="#i-save-solid"/></g></svg>