<svg xmlns="http://www.w3.org/2000/svg"><defs><symbol id="i-scooter"><symbol id="s16" viewBox="0 0 16 16"><path d="m13.5 10.03-.07-.8c.49.08.97.23 1.4.5.35.22.81.11 1.03-.25.22-.35.11-.81-.25-1.03-.7-.43-1.5-.69-2.32-.76l-.05-.62c.28.26.65.42 1.06.42h.75V4.36h-.75c-.51 0-.96.25-1.24.63l-.07-.8c-.06-.65-.59-1.14-1.24-1.14h-1.19a.749.749 0 1 0 0 1.5h.97l.29 3.2c-.89.17-1.7.57-2.41 1.16-.05-.41-.23-.78-.51-1.05l.82-1.07h.09a.749.749 0 1 0 0-1.5H8.6V3.42a.749.749 0 1 0-1.5 0v3.37h.73l-.43.56h-.74V1.17C6.65.52 6.13 0 5.49 0h-4.3C.55 0 .03.52.03 1.17v11.07c0 .11.02.21.04.31-.02.15-.05.3-.05.45 0 1.66 1.34 3.01 2.98 3.01 1.29 0 2.38-.83 2.8-1.99h1.83c.98 0 1.78-.8 1.78-1.78v-1.07c.19-.34.42-.66.71-.93.51-.48 1.14-.8 1.81-.95l.08.9A3 3 0 0 0 10.05 13c0 1.66 1.34 3.01 2.98 3.01s2.99-1.35 2.99-3.01c0-1.5-1.1-2.73-2.52-2.96ZM1.52 4.46h1.07v.47h1.49v-.47h1.06v2.8H1.52zM5.16 1.5v1.46H4.1v-.57H2.61v.57H1.54V1.5h3.63Zm-2.15 13c-.82 0-1.49-.68-1.49-1.51s.67-1.51 1.49-1.51 1.49.68 1.49 1.51-.67 1.51-1.49 1.51m4.63-1.99H5.95c-.23-1.43-1.45-2.53-2.94-2.53-.54 0-1.05.16-1.49.41V9.11c0-.16.13-.28.28-.28h5.83c.15 0 .28.13.28.28v3.11c0 .16-.13.28-.28.28Zm5.4 1.99c-.82 0-1.49-.68-1.49-1.51 0-.5.24-.94.61-1.21l.11 1.28c.04.39.36.68.74.68h.07c.41-.04.72-.4.68-.81l-.12-1.31c.52.24.89.76.89 1.38 0 .83-.67 1.51-1.49 1.51Z"/></symbol><symbol id="s24" viewBox="0 0 24 24"><path d="m20.07 15.5-.16-1.25c.98.07 1.92.36 2.76.87.41.25.95.12 1.2-.29s.12-.95-.29-1.2a7.8 7.8 0 0 0-3.9-1.14l-.16-1.29c.35.27.79.43 1.26.43h.88V7.42h-.88c-.67 0-1.26.32-1.64.8l-.22-1.69c-.08-.84-.77-1.48-1.62-1.48h-1.8c-.48 0-.88.39-.88.88s.39.88.88.88h1.69l.74 5.82c-1.44.29-2.78.97-3.86 2.01 0 0-.01.02-.02.03v-1.26c0-.62-.3-1.17-.76-1.52l1.33-1.73h.26c.48 0 .88-.39.88-.88s-.39-.88-.88-.88h-2.07V5.35c0-.48-.39-.88-.88-.88s-.88.39-.88.88v4.8h1.36l-1.03 1.34H10.3V1.29C10.31.58 9.73 0 9.02 0H1.3C.58 0 0 .58 0 1.29v17.82c0 .09.03.18.04.26-.01.12-.04.24-.04.36C0 22.08 1.9 24 4.24 24c1.89 0 3.48-1.26 4.03-2.98h3.86c1.05 0 1.91-.86 1.91-1.91v-1.57c.32-.61.73-1.17 1.23-1.64.81-.77 1.81-1.28 2.88-1.52l.17 1.36a4.25 4.25 0 0 0-2.82 4c0 2.35 1.91 4.27 4.25 4.27s4.24-1.91 4.24-4.27-1.74-4.07-3.94-4.23ZM1.76 6.38h2.66v1.03h1.75V6.38h2.39v5h-6.8zm6.8-4.63v2.87H6.17v-1.2H4.42v1.2H1.76V1.75zm-4.3 20.5c-1.38 0-2.49-1.13-2.49-2.52s1.12-2.52 2.49-2.52 2.5 1.13 2.5 2.52-1.12 2.52-2.5 2.52m8.04-3.14c0 .09-.07.16-.16.16H8.45c-.24-2.13-2.02-3.8-4.2-3.8-.94 0-1.79.32-2.5.83v-2.9c0-.09.07-.16.16-.16h10.23c.09 0 .16.07.16.16zm7.46 3.14a2.512 2.512 0 0 1-1.2-4.71l.29 2.3c.06.44.43.77.87.77h.11c.48-.06.82-.5.76-.98l-.3-2.34a2.51 2.51 0 0 1 1.96 2.45c0 1.39-1.12 2.52-2.49 2.52Z"/></symbol><symbol id="s32" viewBox="0 0 32 32"><path d="m26.66 21-.27-1.85c1.44.05 2.84.45 4.06 1.2.47.29 1.09.14 1.38-.33s.14-1.09-.33-1.38a10.3 10.3 0 0 0-5.38-1.52h-.02l-.34-2.34c.47.45 1.11.73 1.81.73h1v-5.28h-1c-.98 0-1.82.54-2.28 1.33l-.41-2.85a1.985 1.985 0 0 0-1.99-1.82h-2.4c-.55 0-1 .45-1 1s.45 1 1 1l2.41.05 1.21 8.37c-1.89.38-3.65 1.28-5.08 2.64-.11.1-.21.22-.31.32v-2.76c0-.75-.41-1.39-1.01-1.75l1.84-2.41h.42c.55 0 1-.45 1-1s-.45-1-1-1h-2.93V7.11c0-.55-.45-1-1-1s-1 .45-1 1v6.24h1.99l-1.62 2.12h-1.56V1.42c0-.78-.63-1.42-1.41-1.42H1.41C.63 0 0 .64 0 1.42v15.93h.03c0 .06-.02.12-.02.18v8.3c0 .05.02.1.02.15-.02.17-.03.33-.03.5C0 29.53 2.47 32 5.5 32c2.56 0 4.71-1.76 5.32-4.13h5.86c1.12 0 2.03-.91 2.03-2.03V23.7c.43-.85 1-1.61 1.69-2.27a8.27 8.27 0 0 1 3.99-2.1l.29 1.98a5.5 5.5 0 0 0-3.69 5.19c0 3.04 2.47 5.51 5.5 5.51s5.5-2.47 5.5-5.51-2.38-5.41-5.33-5.5M1.99 7.05h3.74v1.02h2V7.05h4.12v8.3H1.99zm9.86-5.04v3.03H7.73V3.8h-2v1.24H1.99V2.01zM5.5 30C3.57 30 2 28.43 2 26.5S3.57 23 5.5 23 9 24.57 9 26.5 7.43 30 5.5 30m11.18-4.13h-5.72c-.32-2.75-2.64-4.88-5.46-4.88-1.32 0-2.53.47-3.48 1.25l.02-4.74h14.65l.03.03-.03 8.34Zm9.81 4.14c-1.93 0-3.5-1.57-3.5-3.5 0-1.39.82-2.58 1.99-3.15l.48 3.29c.07.5.5.86.99.86.05 0 .1 0 .14-.01a1 1 0 0 0 .85-1.13l-.48-3.31c1.71.23 3.04 1.68 3.04 3.46 0 1.93-1.57 3.5-3.5 3.5Z"/></symbol><symbol id="s40" viewBox="0 0 40 40"><path d="m33.35 26.53-.37-2.56c1.87.03 3.7.55 5.29 1.53.53.32 1.22.16 1.55-.37s.16-1.22-.37-1.55c-2-1.23-4.31-1.88-6.66-1.88h-.14l-.37-2.55c.55.44 1.23.72 1.99.72h1.13v-6.34h-1.13c-1.08 0-2.03.54-2.61 1.37l-.55-3.81a2.365 2.365 0 0 0-2.37-2.16h-3c-.62 0-1.13.5-1.13 1.12s.5 1.12 1.13 1.12h3c.07 0 .12.05.13.18L30.4 21.9c-2.39.45-4.61 1.58-6.41 3.28-.21.2-.41.41-.6.62v-4.01c0-.72-.36-1.36-.91-1.75l1.69-2.32h.59c.62 0 1.13-.5 1.13-1.12s-.5-1.12-1.13-1.12h-3.79v-5.42c0-.62-.5-1.12-1.13-1.12s-1.13.5-1.13 1.12v7.66h2.67l-1.4 1.91h-2.53V1.55A1.52 1.52 0 0 0 15.93 0H1.54C.69 0 0 .7 0 1.55V32.7c0 .33.08.63.21.91.18 3.56 3.13 6.4 6.74 6.4 3.17 0 5.83-2.2 6.55-5.15h7.74c1.19 0 2.16-.97 2.16-2.16v-2.97c.55-1.08 1.27-2.05 2.15-2.88 1.46-1.38 3.25-2.3 5.18-2.68l.39 2.71c-2.68.89-4.63 3.42-4.63 6.4 0 3.72 3.03 6.74 6.75 6.74s6.75-3.03 6.75-6.74-2.98-6.69-6.65-6.74ZM7.71 8.81v1.41h2.25V8.81h5.27v10.67H2.25V8.81H7.7Zm7.51-6.55v4.3H9.95V4.87H7.7v1.69H2.25v-4.3zM6.94 37.75c-2.48 0-4.5-2.02-4.5-4.5s2.02-4.5 4.5-4.5 4.5 2.02 4.5 4.5-2.02 4.5-4.5 4.5m14.21-5.15h-7.48a6.76 6.76 0 0 0-6.72-6.09c-1.82 0-3.48.73-4.69 1.91v-6.5h18.89v10.69Zm12.1 5.16c-2.48 0-4.5-2.02-4.5-4.5 0-1.84 1.12-3.42 2.71-4.12l.62 4.28c.08.56.56.96 1.11.96.05 0 .11 0 .16-.01.61-.09 1.04-.66.95-1.27l-.62-4.29c2.28.22 4.07 2.12 4.07 4.45 0 2.48-2.02 4.5-4.5 4.5"/></symbol><symbol id="s48" viewBox="0 0 48 48"><path d="m40.09 32.02-.48-3.28c2.31.02 4.56.66 6.52 1.87a1.25 1.25 0 1 0 1.31-2.13 15.2 15.2 0 0 0-7.94-2.24c-.08 0-.17.01-.25.01l-.35-2.44c.67.67 1.59 1.08 2.61 1.08h1.25v-7.41h-1.25c-1.41 0-2.62.8-3.25 1.96l-.87-6.01a2.744 2.744 0 0 0-2.74-2.51h-3.6a1.25 1.25 0 0 0 0 2.5h3.6c.13 0 .24.1.26.3l1.86 12.78a15.2 15.2 0 0 0-8.62 4.85v-5.28c0-.83-.45-1.55-1.11-1.95l1.94-2.48h.76a1.25 1.25 0 0 0 0-2.5H25.1v-6.61a1.25 1.25 0 0 0-2.5 0v9.11h3.21l-1.68 2.15h-3.02V1.68c0-.92-.75-1.66-1.67-1.66H1.72C.81.02.06.77.06 1.68v37.86c0 .53.19 1.02.5 1.4.47 3.97 3.85 7.07 7.94 7.07 3.79 0 6.96-2.65 7.79-6.19h9.57c1.26 0 2.28-1.02 2.28-2.28v-3.8c.67-1.31 1.55-2.49 2.61-3.5a12.63 12.63 0 0 1 6.37-3.27l.5 3.44c-3.22 1.03-5.56 4.06-5.56 7.62 0 4.41 3.59 8 8 8s8-3.59 8-8-3.57-7.98-7.97-8ZM2.56 23.78V9.94h7.01v1.39h2.5V9.94h6.52v13.84zM18.59 2.52v4.92h-6.52V5.71h-2.5v1.73H2.56V2.52zM8.5 45.51c-3.03 0-5.5-2.47-5.5-5.5s2.47-5.5 5.5-5.5 5.5 2.47 5.5 5.5-2.47 5.5-5.5 5.5m17.14-6.19h-9.17C16.12 35.23 12.68 32 8.5 32c-2.36 0-4.47 1.03-5.94 2.66v-8.38h23.08zm14.42 6.2a5.51 5.51 0 0 1-5.5-5.5c0-2.3 1.42-4.27 3.43-5.09l.77 5.27c.09.62.63 1.07 1.24 1.07.06 0 .12 0 .18-.01.68-.1 1.16-.73 1.06-1.42l-.77-5.3c2.85.21 5.1 2.58 5.1 5.48s-2.47 5.5-5.5 5.5Z"/></symbol><symbol id="s64" viewBox="0 0 64 64"><path d="M53.59 43.24c-.07 0-.14 0-.21.01l-.72-4.96h.19c3.18 0 6.29.88 9 2.54.65.4 1.49.2 1.89-.45s.19-1.49-.45-1.89a19.96 19.96 0 0 0-10.44-2.94c-.2 0-.39.02-.59.03l-.5-3.42c.85 1.01 2.11 1.67 3.54 1.67h1.38v-9.3H55.3a4.64 4.64 0 0 0-4.24 2.77l-1.32-9.1a3.365 3.365 0 0 0-3.36-3.08h-4.8c-.76 0-1.38.62-1.38 1.38s.62 1.38 1.38 1.38h4.8c.33 0 .59.25.63.64l2.52 17.33a19.97 19.97 0 0 0-10.44 5.2c-.6.57-1.16 1.19-1.68 1.83v-8.19c0-.89-.49-1.66-1.21-2.07l2.22-3.2h1.15c.76 0 1.38-.62 1.38-1.38s-.62-1.38-1.38-1.38h-6.48v-9.1c0-.76-.62-1.38-1.38-1.38s-1.38.62-1.38 1.38v11.85h4.74l-1.99 2.87h-4.76V1.78c0-.98-.8-1.78-1.79-1.78H1.76C.77 0-.03.8-.03 1.78v51.54c0 .94.55 1.75 1.34 2.15.88 4.83 5.12 8.51 10.2 8.51s9.17-3.54 10.16-8.25H35c1.33 0 2.41-1.08 2.41-2.41v-5.49c.91-1.8 2.11-3.42 3.57-4.81 2.5-2.37 5.6-3.91 8.94-4.48l.74 5.12c-4.3 1.27-7.45 5.24-7.45 9.95 0 5.72 4.66 10.38 10.38 10.38s10.38-4.66 10.38-10.38-4.66-10.38-10.38-10.38Zm.34-15.39v2.61c-.32-.34-.52-.8-.52-1.31s.2-.97.52-1.31ZM2.72 32.26V12.57h10.26v1.72h2.75v-1.72h9.84v19.69zM25.57 2.74v7.07h-9.84V7.63h-2.75v2.18H2.72V2.74zM11.51 61.23c-4.21 0-7.63-3.42-7.63-7.63s3.42-7.63 7.63-7.63 7.63 3.42 7.63 7.63-3.42 7.63-7.63 7.63m23.15-8.25h-12.8c-.32-5.43-4.83-9.75-10.35-9.75-3.71 0-6.96 1.96-8.79 4.89V35.03h25.6l6.34-.01v17.97Zm18.93 8.26c-4.21 0-7.63-3.42-7.63-7.63 0-3.32 2.14-6.14 5.1-7.19l1.07 7.39c.1.68.69 1.18 1.36 1.18.07 0 .13 0 .2-.01.75-.11 1.27-.81 1.16-1.56L53.77 46c4.12.1 7.44 3.48 7.44 7.62s-3.42 7.63-7.63 7.63Z"/></symbol><use style="display: var(--s16, none)" href="#s16"/><use style="display: var(--s24, none)" href="#s24"/><use style="display: var(--s32, none)" href="#s32"/><use style="display: var(--s40, none)" href="#s40"/><use style="display: var(--s48, none)" href="#s48"/><use style="display: var(--s64, none)" href="#s64"/></symbol></defs><style>@media (max-width: 23.98px) {g{--s16:block;}}@media (min-width: 24px) and (max-width: 31.98px) {g{--s24:block;}}@media (min-width: 32px) and (max-width: 39.98px) {g{--s32:block;}}@media (min-width: 40px) and (max-width: 47.98px) {g{--s40:block;}}@media (min-width: 48px) and (max-width: 63.98px) {g{--s48:block;}}@media (min-width: 64px) {g{--s64:block;}}</style><g><use href="#i-scooter"/></g></svg>