<svg xmlns="http://www.w3.org/2000/svg"><defs><symbol id="i-screen"><symbol id="s16" viewBox="0 0 16 16"><path d="M14.75 0H1.25C.56 0 0 .56 0 1.25v9c0 .69.56 1.25 1.25 1.25h6v3H3V16h10v-1.5H8.75v-3h6c.69 0 1.25-.56 1.25-1.25v-9C16 .56 15.44 0 14.75 0m-.25 10h-13V1.5h13z"/></symbol><symbol id="s24" viewBox="0 0 24 24"><path d="M22.62 0H1.37C.61 0 0 .62 0 1.38v14.36c0 .76.62 1.38 1.38 1.38h9.75v5.13h-6.8V24h15.34v-1.75h-6.8v-5.13h9.75c.76 0 1.38-.62 1.38-1.38V1.38C24 .62 23.38 0 22.62 0m-.38 15.36H1.75V1.75h20.5v13.61Z"/></symbol><symbol id="s32" viewBox="0 0 32 32"><path d="M30.02-.02h-28c-1.1 0-2 .9-2 2v18.7c0 1.1.9 2 2 2H12.5v7.29H5.65v2h20.69v-2h-6.83v-7.29h10.52c1.1 0 2-.9 2-2V1.98c-.01-1.1-.91-2-2.01-2m-12.52 30h-3v-7.29h3zm-15.48-9.3V1.98h28v18.7z"/></symbol><symbol id="s40" viewBox="0 0 40 40"><path d="M37.86-.02H2.12C.94-.02 0 .94 0 2.11v24.07c0 1.17.95 2.13 2.13 2.13h13.61v9.42H6.97v2.25H33v-2.25h-8.73v-9.42h13.59c1.17 0 2.13-.96 2.13-2.13V2.11c0-1.17-.95-2.13-2.13-2.13M22.02 37.73h-4.04v-9.42h4.04zm15.72-11.68H2.24V2.24h35.5v23.82Z"/></symbol><symbol id="s48" viewBox="0 0 48 48"><path d="M45.17-.03H2.67C1.15-.03-.08 1.2-.08 2.72v28.4c0 1.52 1.23 2.76 2.75 2.76h16.28v11.58H8.29v2.5h31.38v-2.5H29.04V33.88h16.12c1.52 0 2.75-1.24 2.75-2.76V2.72c0-1.52-1.23-2.76-2.75-2.76ZM26.54 45.46h-5.09V33.88h5.09zm18.88-14.34c0 .14-.11.25-.25.25H2.67c-.14 0-.25-.11-.25-.25V2.72c0-.14.11-.25.25-.25h42.49c.14 0 .25.11.25.25v28.4Z"/></symbol><symbol id="s64" viewBox="0 0 64 64"><path d="M60.61.03H3.36A3.38 3.38 0 0 0-.02 3.4v38.18c0 1.86 1.51 3.37 3.38 3.37h22.16v16.33H10.87v2.75h42.24v-2.75H38.49V44.95h22.12a3.38 3.38 0 0 0 3.38-3.37V3.4c0-1.86-1.51-3.37-3.38-3.37M35.73 61.28h-7.46V44.95h7.46zm25.5-19.7c0 .34-.28.62-.63.62H3.36c-.34 0-.63-.28-.63-.62V3.4c0-.34.28-.62.63-.62h57.25c.34 0 .63.28.63.62v38.18Z"/></symbol><use style="display: var(--s16, none)" href="#s16"/><use style="display: var(--s24, none)" href="#s24"/><use style="display: var(--s32, none)" href="#s32"/><use style="display: var(--s40, none)" href="#s40"/><use style="display: var(--s48, none)" href="#s48"/><use style="display: var(--s64, none)" href="#s64"/></symbol></defs><style>@media (max-width: 23.98px) {g{--s16:block;}}@media (min-width: 24px) and (max-width: 31.98px) {g{--s24:block;}}@media (min-width: 32px) and (max-width: 39.98px) {g{--s32:block;}}@media (min-width: 40px) and (max-width: 47.98px) {g{--s40:block;}}@media (min-width: 48px) and (max-width: 63.98px) {g{--s48:block;}}@media (min-width: 64px) {g{--s64:block;}}</style><g><use href="#i-screen"/></g></svg>