<svg xmlns="http://www.w3.org/2000/svg"><defs><symbol id="i-scrolling"><symbol id="s16" viewBox="0 0 16 16"><path d="M9.18 0H6.81a4.76 4.76 0 0 0-4.75 4.75v5.31C2.06 13.33 4.72 16 8 16s5.94-2.66 5.94-5.94V4.75C13.94 2.13 11.81 0 9.19 0Zm3.26 4.75v.95h-2.13v-.34c0-1-.66-1.83-1.56-2.13V1.5h.43c1.79 0 3.25 1.46 3.25 3.25Zm-4.5-.14h.11c.41 0 .75.34.75.75v1.67c0 .41-.34.75-.75.75h-.11c-.41 0-.75-.34-.75-.75V5.36c0-.41.34-.75.75-.75M6.82 1.5h.43v1.73c-.9.29-1.56 1.13-1.56 2.13v.34H3.56v-.95c0-1.79 1.46-3.25 3.25-3.25ZM8 14.5c-2.45 0-4.44-1.99-4.44-4.44V7.2h2.15a2.237 2.237 0 0 0 2.23 2.07h.11c1.18 0 2.14-.92 2.23-2.07h2.15v2.86c0 2.45-1.99 4.44-4.44 4.44Z"/></symbol><symbol id="s24" viewBox="0 0 24 24"><path d="M13.96 0h-3.93C6.25 0 3.16 3.08 3.16 6.87v8.48c0 4.77 3.88 8.65 8.65 8.65h.37c4.77 0 8.65-3.88 8.65-8.65V6.87c0-3.79-3.08-6.87-6.88-6.87Zm5.13 6.87v1.88h-3.82v-.72c0-1.49-1.02-2.74-2.39-3.13V1.75h1.09c2.83 0 5.12 2.3 5.12 5.12M12 6.52c.83 0 1.51.68 1.51 1.51v2.39c0 .83-.68 1.51-1.51 1.51s-1.51-.68-1.51-1.51V8.03c0-.83.68-1.51 1.51-1.51m-1.96-4.77h1.09v3.16c-1.37.39-2.39 1.63-2.39 3.13v.72H4.92V6.88c0-2.83 2.3-5.12 5.12-5.12Zm2.14 20.5h-.37c-3.81 0-6.9-3.1-6.9-6.9v-4.84h3.83c.04 1.76 1.48 3.18 3.26 3.18s3.21-1.42 3.26-3.18h3.83v4.84c0 3.81-3.1 6.9-6.9 6.9Z"/></symbol><symbol id="s32" viewBox="0 0 32 32"><path d="M18.72 0h-5.44c-4.96 0-9 4.04-9 9.01v11.26C4.28 26.74 9.54 32 16 32s11.72-5.26 11.72-11.73V9.01c0-4.97-4.04-9.01-9-9.01m7 9.01v2.79h-5.5v-1.18c0-1.96-1.36-3.6-3.22-4.05V2h1.72c3.86 0 7 3.14 7 7.01m-9.69-.57c1.2 0 2.18.98 2.18 2.19v3.28c0 1.21-.98 2.19-2.18 2.19h-.06c-1.2 0-2.18-.98-2.18-2.19v-3.28c0-1.21.98-2.19 2.25-2.19ZM13.28 2H15v4.56a4.19 4.19 0 0 0-3.22 4.07v1.18h-5.5V9.02c0-3.86 3.14-7.01 7-7.01ZM16 30c-5.36 0-9.72-4.36-9.72-9.73v-6.46h5.5v.1c0 2.31 1.88 4.19 4.18 4.19h.06c2.31 0 4.18-1.88 4.18-4.19v-.1h5.5v6.46c0 5.37-4.36 9.73-9.72 9.73Z"/></symbol><symbol id="s40" viewBox="0 0 40 40"><path d="M23.51 0h-7.02C10.35 0 5.36 4.99 5.36 11.12v14.25C5.36 33.44 11.93 40 20 40s14.64-6.56 14.64-14.63V11.12C34.64 4.99 29.65 0 23.51 0m8.88 11.12v3.73h-7.21v-1.63c0-2.46-1.74-4.51-4.05-5.01V2.25h2.39c4.89 0 8.88 3.98 8.88 8.87Zm-12.44-.77h.11c1.58 0 2.88 1.29 2.88 2.87v4.16c0 1.58-1.29 2.87-2.88 2.87h-.11c-1.58 0-2.88-1.29-2.88-2.87v-4.16c0-1.58 1.29-2.87 2.88-2.87m-3.46-8.1h2.39v5.97a5.13 5.13 0 0 0-4.05 5.01v1.63H7.62v-3.73c0-4.89 3.98-8.87 8.88-8.87ZM20 37.75c-6.83 0-12.39-5.55-12.39-12.38V17.1h7.21v.28c0 2.82 2.3 5.12 5.12 5.12h.11c2.83 0 5.12-2.3 5.12-5.12v-.28h7.21v8.27c0 6.83-5.56 12.38-12.39 12.38Z"/></symbol><symbol id="s48" viewBox="0 0 48 48"><path d="M28.27 0h-8.54C12.42 0 6.48 5.95 6.48 13.26v17.28c0 9.63 7.83 17.47 17.46 17.47h.12c9.63 0 17.46-7.83 17.46-17.47V13.26C41.52 5.95 35.58 0 28.27 0m10.75 13.26v4.65h-8.89v-2.02c0-2.94-2.09-5.4-4.88-5.98v-7.4h3.02c5.93 0 10.75 4.82 10.75 10.75m-15-.99c1.99 0 3.61 1.62 3.61 3.62v4.92c0 1.99-1.62 3.62-3.61 3.62h-.04c-1.99 0-3.61-1.62-3.61-3.62v-4.92c0-1.99 1.62-3.62 3.65-3.62m-4.29-9.76h3.02V9.9a6.125 6.125 0 0 0-4.88 5.99v2.02H8.98v-4.65c0-5.93 4.82-10.75 10.75-10.75m4.33 42.99h-.12c-8.25 0-14.96-6.71-14.96-14.97V20.4h8.89v.39c0 3.37 2.74 6.12 6.11 6.12h.04c3.37 0 6.11-2.74 6.11-6.12v-.39h8.89v10.13c0 8.25-6.71 14.97-14.96 14.97"/></symbol><symbol id="s64" viewBox="0 0 64 64"><path d="M37.7 0H26.31C16.72 0 8.93 7.79 8.93 17.38v23.53c0 12.73 10.35 23.08 23.07 23.08s23.07-10.35 23.07-23.08V17.38C55.07 7.79 47.28 0 37.7 0m14.62 17.38v6.49H39.88V20.9c0-3.88-2.82-7.11-6.51-7.76V2.75h4.32c8.06 0 14.62 6.56 14.62 14.63ZM32 15.77c2.83 0 5.13 2.3 5.13 5.14v6.51c0 2.83-2.3 5.14-5.13 5.14s-5.13-2.3-5.13-5.14v-6.51c0-2.83 2.3-5.14 5.13-5.14M26.3 2.75h4.32v10.4c-3.69.65-6.51 3.88-6.51 7.76v2.97H11.67v-6.49c0-8.07 6.56-14.63 14.62-14.63Zm5.7 58.5c-11.21 0-20.32-9.12-20.32-20.33V26.63h12.44v.79c0 4.35 3.54 7.89 7.88 7.89s7.88-3.54 7.88-7.89v-.79h12.44v14.29c0 11.21-9.12 20.33-20.32 20.33"/></symbol><use style="display: var(--s16, none)" href="#s16"/><use style="display: var(--s24, none)" href="#s24"/><use style="display: var(--s32, none)" href="#s32"/><use style="display: var(--s40, none)" href="#s40"/><use style="display: var(--s48, none)" href="#s48"/><use style="display: var(--s64, none)" href="#s64"/></symbol></defs><style>@media (max-width: 23.98px) {g{--s16:block;}}@media (min-width: 24px) and (max-width: 31.98px) {g{--s24:block;}}@media (min-width: 32px) and (max-width: 39.98px) {g{--s32:block;}}@media (min-width: 40px) and (max-width: 47.98px) {g{--s40:block;}}@media (min-width: 48px) and (max-width: 63.98px) {g{--s48:block;}}@media (min-width: 64px) {g{--s64:block;}}</style><g><use href="#i-scrolling"/></g></svg>