<svg xmlns="http://www.w3.org/2000/svg"><defs><symbol id="i-sending"><symbol id="s16" viewBox="0 0 16 16"><path d="M7.95 7.5c2.07 0 3.75-1.68 3.75-3.75S10.02 0 7.95 0 4.2 1.68 4.2 3.75 5.88 7.5 7.95 7.5m0-6c1.24 0 2.25 1.01 2.25 2.25S9.19 6 7.95 6 5.7 4.99 5.7 3.75 6.71 1.5 7.95 1.5m-3.71 8.63c-1.52 0-2.75 1.23-2.75 2.75V16h-1.5v-3.12c0-2.35 1.9-4.25 4.25-4.25H10v1.5zm-.04 2.75h1.5V16H4.2zm11.79-.12-2.83 2.83c-.15.15-.34.22-.53.22s-.38-.07-.53-.22a.754.754 0 0 1 0-1.06l1.02-1.02H7.99v-1.5h5.13l-1.02-1.02a.754.754 0 0 1 0-1.06c.29-.29.77-.29 1.06 0z"/></symbol><symbol id="s24" viewBox="0 0 24 24"><path d="M11.82 10.85c3 0 5.44-2.43 5.44-5.42S14.82 0 11.82 0 6.38 2.43 6.38 5.42s2.44 5.42 5.44 5.42Zm0-9.09c2.03 0 3.68 1.65 3.68 3.67a3.681 3.681 0 0 1-7.36 0c0-2.02 1.65-3.67 3.68-3.67m3.11 13.07H6.18a4.44 4.44 0 0 0-4.44 4.43V24H-.02v-4.74c0-3.4 2.78-6.18 6.2-6.18h8.75zm-8.54 4.44h1.75v4.74H6.39zm17.59.09-4.39 4.38c-.17.17-.4.26-.62.26s-.45-.08-.62-.26a.88.88 0 0 1 0-1.24l2.28-2.27h-7.76v-1.75h7.76l-2.28-2.27a.88.88 0 0 1 0-1.24c.34-.34.9-.34 1.24 0l4.39 4.38Z"/></symbol><symbol id="s32" viewBox="0 0 32 32"><path d="M15.7 14.21c3.92 0 7.11-3.19 7.11-7.11S19.62 0 15.7 0 8.59 3.19 8.59 7.11s3.19 7.11 7.11 7.11ZM15.7 2c2.82 0 5.11 2.29 5.11 5.11s-2.29 5.11-5.11 5.11-5.11-2.29-5.11-5.11S12.89 2 15.7 2m4.13 17.52H8.11c-3.38 0-6.12 2.75-6.12 6.12V32H-.02v-6.36c0-4.48 3.65-8.12 8.13-8.12h11.72zM8.56 25.64h2V32h-2zm23.42.19-5.87 5.87c-.2.2-.45.29-.71.29s-.51-.1-.71-.29a.996.996 0 0 1 0-1.41l3.45-3.45h-11.1v-2h11.1l-3.45-3.45a.996.996 0 1 1 1.41-1.41l5.87 5.87Z"/></symbol><symbol id="s40" viewBox="0 0 40 40"><path d="M19.49 17.55c4.84 0 8.77-3.94 8.77-8.77S24.33 0 19.49 0s-8.77 3.94-8.77 8.77 3.94 8.77 8.77 8.77Zm0-15.3c3.6 0 6.52 2.93 6.52 6.52s-2.93 6.52-6.52 6.52-6.52-2.93-6.52-6.52 2.93-6.52 6.52-6.52m5.22 21.99H10.03c-4.3 0-7.8 3.5-7.8 7.8V40H-.02v-7.96c0-5.54 4.51-10.05 10.05-10.05h14.68zm-13.99 7.8h2.25V40h-2.25zm29.26.3-7.32 7.32c-.22.22-.51.33-.8.33s-.58-.11-.8-.33c-.44-.44-.44-1.15 0-1.59l4.61-4.61H21.3v-2.25h14.37l-4.61-4.61c-.44-.44-.44-1.15 0-1.59s1.15-.44 1.59 0l7.32 7.32Z"/></symbol><symbol id="s48" viewBox="0 0 48 48"><path d="M23.47 21.04c5.79 0 10.5-4.68 10.5-10.44S29.26.15 23.47.15s-10.5 4.68-10.5 10.44 4.71 10.44 10.5 10.44Zm0-18.4c4.41 0 8 3.57 8 7.96s-3.59 7.95-8 7.95-8-3.57-8-7.95 3.59-7.96 8-7.96m6.3 26.44H12.02c-5.26 0-9.54 4.26-9.54 9.49v9.58H-.01v-9.58c0-6.6 5.4-11.97 12.03-11.97h17.75v2.49Zm-16.8 9.49h2.5v9.58h-2.5zm35.02.21-8.78 8.73c-.24.24-.56.36-.88.36a1.24 1.24 0 0 1-.88-2.12l5.76-5.73H25.57v-2.49h17.64l-5.76-5.73c-.49-.49-.49-1.27 0-1.76s1.28-.49 1.77 0L48 38.77Z"/></symbol><symbol id="s64" viewBox="0 0 64 64"><path d="M31.01 27.37c7.55 0 13.7-6.14 13.7-13.69S38.56-.02 31.01-.02s-13.7 6.14-13.7 13.7 6.15 13.69 13.7 13.69m0-24.64c6.04 0 10.95 4.91 10.95 10.95s-4.91 10.95-10.95 10.95-10.95-4.91-10.95-10.95S24.97 2.73 31.01 2.73m8.4 35.42H15.75c-7.17 0-13.01 5.83-13.01 13v12.83H0V51.15C0 42.46 7.07 35.4 15.75 35.4h23.66zm-22.1 13h2.75v12.83h-2.75zm46.69.6L52.18 63.56c-.27.27-.62.4-.97.4s-.7-.13-.97-.4c-.54-.54-.54-1.41 0-1.94l8.5-8.5H33.66v-2.75h25.08l-8.5-8.5c-.54-.54-.54-1.41 0-1.94.54-.54 1.41-.54 1.94 0L64 51.74Z"/></symbol><use style="display: var(--s16, none)" href="#s16"/><use style="display: var(--s24, none)" href="#s24"/><use style="display: var(--s32, none)" href="#s32"/><use style="display: var(--s40, none)" href="#s40"/><use style="display: var(--s48, none)" href="#s48"/><use style="display: var(--s64, none)" href="#s64"/></symbol></defs><style>@media (max-width: 23.98px) {g{--s16:block;}}@media (min-width: 24px) and (max-width: 31.98px) {g{--s24:block;}}@media (min-width: 32px) and (max-width: 39.98px) {g{--s32:block;}}@media (min-width: 40px) and (max-width: 47.98px) {g{--s40:block;}}@media (min-width: 48px) and (max-width: 63.98px) {g{--s48:block;}}@media (min-width: 64px) {g{--s64:block;}}</style><g><use href="#i-sending"/></g></svg>