<svg xmlns="http://www.w3.org/2000/svg"><defs><symbol id="i-share-solid"><symbol id="s16" viewBox="0 0 16 16"><path d="M10.26 2.13c-.49-.49-.49-1.28 0-1.77s1.28-.49 1.77 0l3.95 3.95-3.95 3.95c-.24.24-.56.37-.88.37s-.64-.12-.88-.37a1.25 1.25 0 0 1 0-1.77l.93-.93c-2.82.24-5.04 2.6-5.04 5.48v.65h-2.5v-.65c0-4.26 3.35-7.74 7.55-7.98l-.94-.94Zm3.24 6.83v4.54H2.7a.2.2 0 0 1-.2-.2V2.5h5.02V0H0v13.3C0 14.79 1.21 16 2.7 16H16V8.96z"/></symbol><symbol id="s24" viewBox="0 0 24 24"><path d="M16 2.55c-.58-.58-.58-1.53 0-2.11s1.53-.58 2.11 0l5.83 5.83-5.83 5.83c-.29.29-.67.44-1.06.44s-.76-.15-1.06-.44c-.58-.58-.58-1.53 0-2.11l2.25-2.25h-.4c-4.97 0-9.01 4.04-9.01 9.01v1.01H5.84v-1.01c0-6.62 5.38-12 12-12h.35l-2.2-2.2Zm5.01 10.95v7.51H3.75a.76.76 0 0 1-.76-.76V2.99h8.26V0H0v20.25C0 22.32 1.68 24 3.75 24H24V13.5z"/></symbol><symbol id="s32" viewBox="0 0 32 32"><path d="M21.78 2.98c-.68-.68-.68-1.79 0-2.47s1.79-.68 2.47 0l7.71 7.71-7.71 7.71c-.34.34-.79.51-1.23.51s-.89-.17-1.23-.51a1.75 1.75 0 0 1 0-2.47l3.54-3.54h-1.22c-6.9 0-12.51 5.61-12.51 12.51v1.37H8.11v-1.37c0-8.82 7.18-16 16-16h1.15L21.8 2.97Zm6.73 15.06v10.47H4.8c-.72 0-1.31-.59-1.31-1.31V3.49h11.49V0H0v27.2C0 29.85 2.15 32 4.8 32H32V18.04z"/></symbol><symbol id="s40" viewBox="0 0 40 40"><path d="M27.56 3.36c-.78-.78-.78-2.05 0-2.83s2.05-.78 2.83 0l9.6 9.6-9.6 9.6c-.39.39-.9.59-1.41.59s-1.02-.2-1.41-.59c-.78-.78-.78-2.05 0-2.83l4.81-4.81h-2.04c-8.82 0-16 7.18-16 16v1.73h-4v-1.73c0-11.03 8.97-20 20-20h1.94l-4.72-4.72ZM36 22.52v13.43H5.86c-1.02 0-1.86-.83-1.86-1.86V3.95h14.71V-.06H0v34.14c0 3.23 2.63 5.86 5.86 5.86H40V22.51h-4Z"/></symbol><symbol id="s48" viewBox="0 0 48 48"><path d="M33.33 3.85c-.88-.88-.88-2.31 0-3.19s2.3-.88 3.18 0L48 12.14 36.51 23.62c-.44.44-1.01.66-1.59.66s-1.15-.22-1.59-.66c-.88-.88-.88-2.31 0-3.19l6.09-6.09h-2.86c-10.75 0-19.5 8.74-19.5 19.49v2.09h-4.5v-2.09c0-13.23 10.77-24 24-24h2.74l-5.97-5.97Zm10.16 39.64H6.9a2.41 2.41 0 0 1-2.41-2.4V4.51h17.95V0H0v41.08C0 44.89 3.1 48 6.91 48H48V27.11h-4.5v16.38Z"/></symbol><symbol id="s64" viewBox="0 0 64 64"><path d="M45.31 4.27c-.98-.98-.98-2.56 0-3.54s2.56-.98 3.54 0l15.17 15.18-15.17 15.18c-.49.49-1.13.73-1.77.73s-1.28-.24-1.77-.73c-.98-.98-.98-2.56 0-3.54l9.2-9.21H49.3c-14.87 0-26.97 12.11-26.97 26.99v2.84h-5.01v-2.84c0-17.65 14.35-32 31.98-32h5.05L45.3 4.28Zm13.66 54.72H8.84c-2.1 0-3.81-1.71-3.81-3.82V5.01H29.9V0H.02v55.18C.02 60.05 3.98 64 8.84 64h55.14V36.21h-5.01z"/></symbol><use style="display: var(--s16, none)" href="#s16"/><use style="display: var(--s24, none)" href="#s24"/><use style="display: var(--s32, none)" href="#s32"/><use style="display: var(--s40, none)" href="#s40"/><use style="display: var(--s48, none)" href="#s48"/><use style="display: var(--s64, none)" href="#s64"/></symbol></defs><style>@media (max-width: 23.98px) {g{--s16:block;}}@media (min-width: 24px) and (max-width: 31.98px) {g{--s24:block;}}@media (min-width: 32px) and (max-width: 39.98px) {g{--s32:block;}}@media (min-width: 40px) and (max-width: 47.98px) {g{--s40:block;}}@media (min-width: 48px) and (max-width: 63.98px) {g{--s48:block;}}@media (min-width: 64px) {g{--s64:block;}}</style><g><use href="#i-share-solid"/></g></svg>