<svg xmlns="http://www.w3.org/2000/svg"><defs><symbol id="i-shipmentfragile"><symbol id="s16" viewBox="0 0 16 16"><path d="M11.96 5.54V0H4.04v5.54a3.95 3.95 0 0 0 3.21 3.88v5.08H4.79c-.41 0-.75.34-.75.75s.34.75.75.75h6.42c.41 0 .75-.34.75-.75s-.34-.75-.75-.75H8.75V9.42a3.96 3.96 0 0 0 3.21-3.88m-6.42 0V1.5h1.73l-.83 1.23.83 1.54-.94.25.39 1.45 2.77-.75-1.31-2.41.88-1.31h1.38v4.04C10.44 6.9 9.34 8 7.98 8S5.52 6.9 5.52 5.54Z"/></symbol><symbol id="s24" viewBox="0 0 24 24"><path d="M17.69 8.06V0H6.31v8.05c0 2.84 2.09 5.19 4.82 5.61v8.59H7.19c-.48 0-.88.39-.88.87s.39.87.88.87h9.63c.48 0 .88-.39.88-.87s-.39-.87-.88-.87h-3.94v-8.59c2.72-.42 4.82-2.77 4.82-5.61Zm-9.63 0v-6.3h3.32L9.96 3.87l1.38 2.55-1.66.64.63 1.63 3.51-1.36-1.83-3.37 1.48-2.2h2.46v6.3c0 2.17-1.77 3.94-3.94 3.94s-3.94-1.77-3.94-3.94Z"/></symbol><symbol id="s32" viewBox="0 0 32 32"><path d="M23.42 10.55V-.02H8.58v10.56c0 3.75 2.8 6.84 6.42 7.33v12.11H9.58c-.55 0-1 .45-1 1s.45 1 1 1h12.84c.55 0 1-.45 1-1s-.45-1-1-1H17V17.87c3.62-.49 6.42-3.59 6.42-7.33Zm-12.84 0V1.98h4.9l-2.01 2.99 1.88 3.47-1.76.67.71 1.87 3.9-1.48-2.4-4.42 2.08-3.1h3.53v8.56c0 2.98-2.43 5.41-5.42 5.41s-5.42-2.43-5.42-5.41Z"/></symbol><symbol id="s40" viewBox="0 0 40 40"><path d="M29.03 12.96V0H10.97v12.96c0 4.63 3.52 8.46 8.03 8.96v16.09h-7.03c-.55 0-1 .45-1 1s.45 1 1 1h16.05c.55 0 1-.45 1-1s-.45-1-1-1h-7.03V21.92c4.51-.5 8.03-4.32 8.03-8.96Zm-16.06 0V2h6.85l-2.68 4 2.42 4.46-2.47.94.71 1.87 4.61-1.75-2.93-5.41L22.24 2h4.8v10.96c0 3.87-3.15 7.02-7.03 7.02s-7.03-3.15-7.03-7.02Z"/></symbol><symbol id="s48" viewBox="0 0 48 48"><path d="M34.88 15.62V0H13.12v15.61c0 5.58 4.22 10.18 9.63 10.8v19.08h-8.38a1.25 1.25 0 0 0 0 2.5h19.26a1.25 1.25 0 0 0 0-2.5h-8.38V26.41c5.41-.62 9.63-5.23 9.63-10.8Zm-19.26 0V2.5h8.03l-3.14 4.69 2.89 5.34-2.91 1.11.89 2.34 5.58-2.12-3.53-6.52 3.23-4.82h5.72v13.11c0 4.62-3.76 8.38-8.38 8.38s-8.38-3.76-8.38-8.38Z"/></symbol><symbol id="s64" viewBox="0 0 64 64"><path d="M46.22 20.53V0H17.79v20.53c0 7.37 5.65 13.45 12.84 14.15v26.55H19.16c-.76 0-1.38.62-1.38 1.38s.62 1.38 1.38 1.38h11.47v.02h2.75v-.02h11.47c.76 0 1.38-.62 1.38-1.38s-.62-1.38-1.38-1.38H33.38V34.68c7.2-.69 12.84-6.77 12.84-14.15m-25.69 0V2.75h11.54l-4.4 6.55 3.93 7.26-4.19 1.6.98 2.57 7.13-2.72-4.63-8.55 4.5-6.71h8.08v17.78C43.47 26.85 38.33 32 32 32s-11.47-5.14-11.47-11.47"/></symbol><use style="display: var(--s16, none)" href="#s16"/><use style="display: var(--s24, none)" href="#s24"/><use style="display: var(--s32, none)" href="#s32"/><use style="display: var(--s40, none)" href="#s40"/><use style="display: var(--s48, none)" href="#s48"/><use style="display: var(--s64, none)" href="#s64"/></symbol></defs><style>@media (max-width: 23.98px) {g{--s16:block;}}@media (min-width: 24px) and (max-width: 31.98px) {g{--s24:block;}}@media (min-width: 32px) and (max-width: 39.98px) {g{--s32:block;}}@media (min-width: 40px) and (max-width: 47.98px) {g{--s40:block;}}@media (min-width: 48px) and (max-width: 63.98px) {g{--s48:block;}}@media (min-width: 64px) {g{--s64:block;}}</style><g><use href="#i-shipmentfragile"/></g></svg>