<svg xmlns="http://www.w3.org/2000/svg"><defs><symbol id="i-shipmentbroken"><symbol id="s16" viewBox="0 0 16 16"><path d="M16.01 0H5.49L3.36 1.86l.18.34-.91.3L.09 4.67 0 4.82v4.51l.41 1.12L0 12.2v3.81h3.01l1.51-.85.94.85h5.83L16 11.33V8.27l-.96-1.46.96-1.53V0Zm-5.07 1.5h2.5l-.76.77-.5 1.14-.87.23-1.19 1.19H7.38zM3.39 3.83l2.33-.77-.46-.86.81-.7h2.68L5.37 4.66l-.87-.4-1.36.57h-.89l1.15-1Zm6.31 8.41-.02 2.25H6.03l-1.28-1.16-2.16 1.16H1.46v-2.02L2 10.33l-.54-1.3v-2.7h1.98l1.03-.43.93.43h4.29v.93l-.58 1.56 1.03 1.71-.43 1.71Zm4.8-1.53-3.31 3.28v-1.47l.56-2.22-.98-1.62.38-1.01.03-1.75.92-.92 1.18-.31.68-1.55.55-.55v2.28l-.87 1.4c-.14.13-.26.3-.39.44-.43.43-.84.87-1.22 1.37l.08.13c.61-.11 1.19-.28 1.75-.47l.66 1v1.99ZM5.66 7.74h2.55v2.53H5.66z"/></symbol><symbol id="s24" viewBox="0 0 24 24"><path d="M24 7.75V0H8.3L5.28 2.65l.33.61-1.66.55L0 7.41v6.58l.73 1.75-.7 2.78L0 24h4.27l2.48-1.34L8.23 24h8.4l7.36-6.99V12.5l-1.46-2.22c.1-.17.18-.36.24-.58l1.21-1.95Zm-7.58-6h4.6l-1.6 1.61-.8 1.83-1.39.37-1.85 1.86h-5.01l6.03-5.67ZM4.85 5.35l3.29-1.09-.66-1.22 1.48-1.29h4.9L8.05 7.21l-1.38-.64-2.02.85H2.6l2.26-2.06Zm10.03 16.9H8.91l-1.9-1.73-3.18 1.73H1.75v-3.41l.81-3.24-.81-1.96V9.16H5l1.63-.69 1.48.69h6.77v1.75l-.86 2.32 1.57 2.61-.68 2.74-.03 3.66Zm7.37-6-5.62 5.33V18.9l.83-3.34-1.51-2.51.68-1.82V8.65l1.51-1.52 1.74-.47 1.01-2.3L22.25 3v4.25l-1.41 2.26c-.25.19-.45.46-.69.66-.7.6-1.35 1.25-1.98 1.94l.09.15c.89-.25 1.77-.54 2.62-.9.08-.02.16-.04.24-.07l1.13 1.72zM8.74 11.88h3.34v3.33H8.74z"/></symbol><symbol id="s32" viewBox="0 0 32 32"><path d="M9.53 19.86h8v-6h-8zm2-4h4v2h-4zM32 0H11.08L7.16 3.43l.48.89-2.42.8L0 10v8.65l.99 2.38L0 24.84V32h5.54l3.42-1.85L10.99 32h11.07v-.03h.01l9.92-9.3v-5.95l-1.97-3c.25-.33.46-.72.6-1.2l-.03-.05 1.4-2.25V0ZM21.88 2.01h6.71l-2.44 2.45-1.1 2.51-1.91.51L20.63 10h-7.28l8.52-7.99ZM6.27 6.88l4.26-1.41-.85-1.58 2.15-1.88h7.13L10.7 9.76l-1.9-.89L6.12 10H2.94zm13.79 23.13h-8.3l-2.51-2.29-4.22 2.29H2v-4.8l1.09-4.33L2 18.26V12h4.52l2.24-.94 2.03.94h9.27v2.58l-1.14 3.08 2.11 3.51-.94 3.77-.03 5.08ZM30 21.8l-7.94 7.45v-3.96l1.11-4.45-2.04-3.39.93-2.51v-3.53l2.13-2.14 2.31-.62 1.33-3.05 2.16-2.17v6.21l-1.95 3.13c-.36.25-.65.61-.99.89-.95.78-1.86 1.62-2.73 2.51l.11.17c1.18-.38 2.34-.82 3.46-1.32.17-.05.33-.1.48-.16l1.61 2.46v4.49Z"/></symbol><symbol id="s40" viewBox="0 0 40 40"><path d="M12 24.72h9.8v-7.28H12zm2.25-5.03h5.3v2.78h-5.3zM40 0H13.87L9.06 4.21l.63 1.16-3.16 1.05L0 12.58v10.69l1.27 3.06L0 31.25l.02 8.76h6.8l4.35-2.36 2.59 2.36H27.5L40 28.33v-7.39l-2.49-3.8c.37-.42.68-.92.9-1.55l-.11-.18 1.7-2.74zM27.36 2.26h8.81L32.9 5.55 31.65 8.4l-.41.42-2.16.58-3.17 3.19h-9.54zM7.71 8.41l5.24-1.74-1.05-1.94 2.82-2.47h9.35L13.37 12.3l-2.42-1.13-3.35 1.41H3.28zm17.54 29.35H14.63l-3.13-2.85-5.26 2.85H2.26v-6.19l1.36-5.42-1.36-3.29v-8.03h5.8l2.85-1.2 2.57 1.2h11.77v3.4l-1.42 3.83 2.65 4.41-1.19 4.8-.03 6.49Zm12.5-10.4L27.5 36.99v-5.3l1.38-5.57-2.57-4.28 1.19-3.2v-4.47l2.74-2.76 2.88-.77 1.66-3.8 2.96-2.98v8.18l-2.49 3.99c-.46.31-.85.76-1.28 1.11-1.21.97-2.37 2-3.48 3.07l.12.19c1.46-.51 2.9-1.09 4.31-1.73q.375-.12.72-.27l2.1 3.21v5.74Z"/></symbol><symbol id="s48" viewBox="0 0 48 48"><path d="M14.46 29.59h11.6v-8.56h-11.6zm2.5-6.06h6.6v3.56h-6.6zM48 .02H16.65l-5.7 4.99.78 1.44-3.92 1.3-7.8 7.41h-.02v12.8L1.5 31.6.04 37.46 0 47.98h8.06l5.29-2.87L16.51 48h16.53l14.95-14.02v-8.82l-3.02-4.6c.49-.5.99-2.09.95-2.09l2.07-3.32V.02Zm-15.18 2.5h10.92l-4.11 4.13-1.39 3.17-.85.85-2.41.65-3.83 3.85H19.33L32.81 2.52ZM9.13 9.94l6.21-2.06-1.24-2.3 3.49-3.06h11.58L16.03 14.85l-2.95-1.37-4.01 1.68H3.63l5.5-5.23Zm21.3 35.55H17.47l-3.75-3.41-6.3 3.41H2.5v-7.57l1.64-6.51-1.64-3.95v-9.8h7.07l3.46-1.45 3.13 1.45h14.28v4.22l-1.7 4.59 3.19 5.3-1.45 5.82-.04 7.9ZM45.5 25.91v7l-12.57 11.8v-6.66l1.66-6.67-3.11-5.16 1.44-3.88v-5.41l3.36-3.38 3.45-.93 1.99-4.55 3.76-3.78v10.14l-3.03 4.86c-.57.38-1.04.9-1.58 1.33a70 70 0 0 0-4.24 3.64l.13.21a67 67 0 0 0 5.15-2.15c.33-.11.65-.24.96-.38l2.6 3.96Z"/></symbol><symbol id="s64" viewBox="0 0 64 64"><path d="M19.46 39.14h14.99V28.25H19.46zM22.21 31h9.49v5.4h-9.49zM63.99.02H22.22l-7.4 6.47 1.1 2.04-5.55 1.84L0 20.37v16.81l2.05 4.92-2.02 7.97-.04 13.75h10.47l7.25-3.91 4.31 3.91H43.7v-.06l.25.26 20.04-18.79V33.6l-4.36-6.64 4.36-7zM43.74 2.76H59.3l-6.01 6.03-1.53 3.48-2.18 2.18-2.64.71-5.18 5.2h-16.8zM11.82 12.77l8.08-2.67-1.62-2.99 4.97-4.35h16.47l-18.4 17.25-4.04-1.87-5.33 2.23H3.81l8-7.6Zm29.13 48.31H23.08l-4.97-4.51-8.35 4.51H2.74v-10.5l2.19-8.68-2.19-5.26V23.12h9.77l4.72-1.98 4.27 1.98h19.45v6.03l-2.26 6.07 4.29 7.1L41 50.25l-.04 10.83Zm16.33-35.54c-.19.07-.39.15-.58.23-1.16.47-2.02 1.43-3.01 2.18-1.99 1.5-3.93 3.07-5.81 4.71l.14.23c2.31-.95 4.59-1.97 6.82-3.07.91-.35 1.78-.75 2.57-1.24l3.84 5.84v9.63L43.71 60.49v-9.74l2.22-8.87-4.19-6.94 1.97-5.3v-7.32l4.67-4.68 4.59-1.23 2.64-6.03 5.64-5.66v14.47l-3.97 6.36Z"/></symbol><use style="display: var(--s16, none)" href="#s16"/><use style="display: var(--s24, none)" href="#s24"/><use style="display: var(--s32, none)" href="#s32"/><use style="display: var(--s40, none)" href="#s40"/><use style="display: var(--s48, none)" href="#s48"/><use style="display: var(--s64, none)" href="#s64"/></symbol></defs><style>@media (max-width: 23.98px) {g{--s16:block;}}@media (min-width: 24px) and (max-width: 31.98px) {g{--s24:block;}}@media (min-width: 32px) and (max-width: 39.98px) {g{--s32:block;}}@media (min-width: 40px) and (max-width: 47.98px) {g{--s40:block;}}@media (min-width: 48px) and (max-width: 63.98px) {g{--s48:block;}}@media (min-width: 64px) {g{--s64:block;}}</style><g><use href="#i-shipmentbroken"/></g></svg>