<svg xmlns="http://www.w3.org/2000/svg"><defs><symbol id="i-shipmentbroken-solid"><symbol id="s16" viewBox="0 0 16 16"><path d="m11.72 13.44.66-2.64-1.19-1.97.48-1.29.03-2.13 1.18-1.19 1.38-.37.8-1.82.94-.95v3.17l-1.13 1.81c-.65.5-1.51 1.5-2.01 2.02l.08.13c.72-.18 1.4-.42 2.08-.67.04 0 .08-.03.12-.04L16 8.82v2.5l-4.28 4.16zm-7.63 1.19L1.56 16H0v-2.61l.64-2.56L0 9.28V5.83h2.51l1.27-.53 1.15.53h5.29v1.31l-.69 1.84 1.24 2.06-.53 2.13-.02 2.83H5.6zm1.31-4.04h2.75V7.85H5.4zm6.7-7.71 1.08-.29.62-1.42L14.95 0h-3.44l-4.6 4.33h3.74l1.44-1.45ZM2.21 4.33l1.6-.67 1.09.51L9.33 0H5.67l-1.1.97.53.98-2.65.88-1.71 1.5h1.48Z"/></symbol><symbol id="s24" viewBox="0 0 24 24"><path d="M15.98 6.83h-6.2L17.06 0h5.71L20.7 2.08l-.94 2.15-1.63.44zm1.24 16.58L24 16.98v-3.84l-1.37-2.1c-.13.05-.26.09-.4.13-.97.43-1.97.8-2.98 1.12l-.09-.15c.94-.87 2.05-2.08 3.13-2.84l1.72-2.76v-5.3l-1.82 1.83-1.15 2.62-1.99.54-1.82 1.83v3.02l-.8 2.15 1.75 2.91-.95 3.83v3.44ZM3.52 6.83l2.31-.97 1.63.76L14.5 0H8.43L6.6 1.6l.74 1.36-3.68 1.22-2.9 2.65zm6.68 6.92h-.09v.08h.09zm6.1 2.67-.8 3.23-.03 4.34h-7.1l-2.16-1.97-3.63 1.97H0v-4.1l.94-3.72L0 13.92V8.57h3.87l1.92-.81 1.73.81h7.95v2.19l-.98 2.64 1.81 3.01ZM11.95 12H8.36v3.58h3.59z"/></symbol><symbol id="s32" viewBox="0 0 32 32"><path d="m32.99-.99-4.53 4.56-1.38 3.14-2.39.64-2.96 2.98m-6.14 7.91h-4.8v-2.53h4.8zM7.84 8.06l2.18 1.02L19.69 0h-8.47L8.67 2.23l.94 1.75L4.9 5.54.86 9.33h3.96l3.01-1.27Zm24.15.77v-7.4L29.3 4.14l-1.5 3.42-2.6.7-2.48 2.49v4.03l-1.07 2.88 2.32 3.86-1.25 5.01v4.81l9.26-8.7v-5.18l-1.9-2.9c-.21.09-.43.17-.66.25-1.27.58-2.56 1.1-3.88 1.57l-.11-.17c1.25-1.11 2.81-2.67 4.24-3.66l2.31-3.7Zm-10.68.5 2.86-2.87 2.19-.59 1.26-2.88L30.59 0h-7.98l-9.93 9.32h8.64Zm-1.86 8.53 2.39 3.97-1.08 4.32-.03 5.85h-9.59l-2.82-2.56L3.59 32H0v-5.58l1.23-4.88L0 18.58v-7.25h5.23l2.57-1.08 2.32 1.08h10.61v3.08zm-1.86-4.15h-8.8v6.53h8.8z"/></symbol><symbol id="s40" viewBox="0 0 40 40"><path d="M19.63 22.84h-6.19v-3.38h6.19zM9.86 10.21l2.75 1.28L24.9-.05H14.05l-3.27 2.87 1.15 2.13-5.74 1.9-5.23 4.92h5.19l3.72-1.56Zm16.81 1.56 3.56-3.58 2.74-.74 1.58-3.61 3.87-3.89H28.19L15.6 11.77zm-2.24 10.47 2.96 4.93-1.35 5.42-.03 7.36H13.93l-3.47-3.16-5.83 3.16H0v-7.07l1.52-6.04L0 23.17v-9.15h6.6l3.22-1.35 2.91 1.35h13.29v3.97l-1.58 4.25Zm-2.55-5.03H11.19v7.88h10.69zM40 11.07V1.55l-3.56 3.58-1.85 4.21-3.2.86-3.13 3.15v5.03L26.92 22l2.89 4.8-1.54 6.19v6.26l11.74-11.02v-6.52L37.58 18c-.24.12-.53.23-.92.37a63 63 0 0 1-4.77 2.02l-.12-.19c1.55-1.33 3.58-3.27 5.35-4.47l2.89-4.65Z"/></symbol><symbol id="s48" viewBox="0 0 48 48"><path d="M42.8 20.35a82 82 0 0 0-4.75 3.96l.13.21c1.92-.75 3.82-1.57 5.67-2.47.48-.18.85-.34 1.15-.52l2.99 4.56v7.87L33.77 47.32v-7.74l1.84-7.37-3.45-5.74 1.62-4.35v-6.04l3.79-3.81 3.81-1.02 2.19-5.02L48 1.78v11.64l-3.4 5.47c-.64.42-1.18.99-1.79 1.46ZM32 14.33l4.26-4.29 3.3-.89 1.9-4.34L46.24 0h-12.5L18.49 14.32h13.52Zm-20.13-1.86 3.3 1.54L30.08 0H16.83l-4 3.5 1.36 2.51-6.77 2.25-6.38 6.07h6.4l4.42-1.86Zm11.77 10.87h-7.6v4.23h7.6zm5.75 3.4 3.54 5.88-1.62 6.51-.04 8.87H16.7l-4.13-3.76L5.64 48H0v-8.56l1.81-7.2L0 27.88V16.83h7.96l3.87-1.63 3.5 1.63h15.95v4.85l-1.88 5.06Zm-3.25-5.9h-12.6v9.23h12.6z"/></symbol><symbol id="s64" viewBox="0 0 64 64"><path d="M58.99 25.35c-3.12 1.88-6.75 5.09-9.68 7.43l.14.23c2.5-1.07 4.97-2.21 7.39-3.43 1.02-.41 1.99-.88 2.88-1.44l4.27 6.52v10.6L44.63 63.45V52.56l2.41-9.67-4.57-7.6 2.16-5.83v-8.04l5.14-5.18 4.97-1.34 2.87-6.55 6.38-6.41v16.14l-4.35 6.99-.66.27Zm-43.02-8.3 4.42 2.06L40.74 0H22.43L16.9 4.84l1.74 3.22-8.69 2.88-8.98 8.54h9.21l5.78-2.43Zm26.72 2.43 5.67-5.7 4.41-1.18 2.54-5.81L62.05 0h-17.3L24.01 19.48zM31.81 30.84H21.22v6.15h10.59zm7.62 4.74 4.67 7.76-2.17 8.72L41.89 64H22.25l-5.39-4.9L7.81 64H0V52.37l2.38-9.47L0 37.17V22.23h10.74l5.17-2.18 4.68 2.18h21.3v6.74l-2.45 6.61Zm-4.87-7.49H18.47v11.65h16.09z"/></symbol><use style="display: var(--s16, none)" href="#s16"/><use style="display: var(--s24, none)" href="#s24"/><use style="display: var(--s32, none)" href="#s32"/><use style="display: var(--s40, none)" href="#s40"/><use style="display: var(--s48, none)" href="#s48"/><use style="display: var(--s64, none)" href="#s64"/></symbol></defs><style>@media (max-width: 23.98px) {g{--s16:block;}}@media (min-width: 24px) and (max-width: 31.98px) {g{--s24:block;}}@media (min-width: 32px) and (max-width: 39.98px) {g{--s32:block;}}@media (min-width: 40px) and (max-width: 47.98px) {g{--s40:block;}}@media (min-width: 48px) and (max-width: 63.98px) {g{--s48:block;}}@media (min-width: 64px) {g{--s64:block;}}</style><g><use href="#i-shipmentbroken-solid"/></g></svg>