<svg xmlns="http://www.w3.org/2000/svg"><defs><symbol id="i-shipmentfragile-solid"><symbol id="s16" viewBox="0 0 16 16"><path d="M12.46 14.74c0 .69-.56 1.25-1.25 1.25H4.79a1.25 1.25 0 0 1 0-2.5h1.96V9.27c-1.57-.53-2.71-1.99-2.71-3.74V0h4.24L6.45 2.73l.83 1.54-.94.25.39 1.45 2.77-.75-1.31-2.41L10.08 0h1.88v5.54c0 1.74-1.14 3.21-2.71 3.74v4.22h1.96c.69 0 1.25.56 1.25 1.25Z"/></symbol><symbol id="s24" viewBox="0 0 24 24"><path d="M18.32 22.51c0 .83-.67 1.5-1.5 1.5H7.18c-.83 0-1.5-.67-1.5-1.5s.67-1.5 1.5-1.5h3.32v-7.48c-2.41-.66-4.19-2.86-4.19-5.48V.01h6.24L9.96 3.87l1.38 2.55-1.66.64.63 1.63 3.51-1.36-1.83-3.37L14.66.01h3.03v8.05c0 2.61-1.78 4.82-4.19 5.48v7.48h3.32c.83 0 1.5.67 1.5 1.5Z"/></symbol><symbol id="s32" viewBox="0 0 32 32"><path d="M24.17 30.24c0 .97-.78 1.75-1.75 1.75H9.58c-.97 0-1.75-.78-1.75-1.75s.78-1.75 1.75-1.75h4.67V17.73c-3.25-.79-5.67-3.71-5.67-7.19V-.01h8.24l-3.35 4.98 1.88 3.47-1.76.67.71 1.87 3.9-1.48-2.4-4.42 3.43-5.09h4.19v10.56c0 3.48-2.42 6.4-5.67 7.19V28.5h4.67c.97 0 1.75.78 1.75 1.75Z"/></symbol><symbol id="s40" viewBox="0 0 40 40"><path d="M30.03 37.93c0 1.1-.9 2-2 2H11.97c-1.1 0-2-.9-2-2s.9-2 2-2H18V21.69c-4.02-.91-7.03-4.5-7.03-8.79V-.06h10.18l-4.02 6 2.42 4.47-2.47.94.71 1.87 4.61-1.75-2.93-5.41 4.09-6.12h5.46v12.97c0 4.29-3.01 7.88-7.03 8.79v14.24h6.03c1.1 0 2 .9 2 2Z"/></symbol><symbol id="s48" viewBox="0 0 48 48"><path d="M35.88 45.73c0 1.24-1.01 2.25-2.25 2.25h-7.38V48h-4.5v-.02h-7.38c-1.24 0-2.25-1.01-2.25-2.25s1.01-2.25 2.25-2.25h7.38V26.26c-4.92-1.04-8.63-5.41-8.63-10.64V0h12.2L20.5 7.18l2.89 5.34-2.91 1.11.89 2.34 5.58-2.12-3.53-6.52L28.33 0h6.55v15.61c0 5.23-3.71 9.6-8.63 10.64v17.22h7.38c1.24 0 2.25 1.01 2.25 2.25Z"/></symbol><symbol id="s64" viewBox="0 0 64 64"><path d="M47.34 61.45a2.5 2.5 0 0 1-2.5 2.5H34.5V64h-5v-.05H19.16a2.5 2.5 0 0 1 0-5H29.5V34.51c-6.65-1.19-11.72-7-11.72-13.98V0h16.14l-6.24 9.3 3.93 7.26-4.19 1.6.98 2.57 7.13-2.72-4.63-8.55L37.23 0h8.98v20.53c0 6.98-5.07 12.8-11.72 13.98v24.44h10.34a2.5 2.5 0 0 1 2.5 2.5Z"/></symbol><use style="display: var(--s16, none)" href="#s16"/><use style="display: var(--s24, none)" href="#s24"/><use style="display: var(--s32, none)" href="#s32"/><use style="display: var(--s40, none)" href="#s40"/><use style="display: var(--s48, none)" href="#s48"/><use style="display: var(--s64, none)" href="#s64"/></symbol></defs><style>@media (max-width: 23.98px) {g{--s16:block;}}@media (min-width: 24px) and (max-width: 31.98px) {g{--s24:block;}}@media (min-width: 32px) and (max-width: 39.98px) {g{--s32:block;}}@media (min-width: 40px) and (max-width: 47.98px) {g{--s40:block;}}@media (min-width: 48px) and (max-width: 63.98px) {g{--s48:block;}}@media (min-width: 64px) {g{--s64:block;}}</style><g><use href="#i-shipmentfragile-solid"/></g></svg>