<svg xmlns="http://www.w3.org/2000/svg"><defs><symbol id="i-shop"><symbol id="s16" viewBox="0 0 16 16"><path d="m14.59 11.23 1.39-6.61c.08-.38-.02-.76-.26-1.06s-.6-.47-.98-.47H3.04L2.67 0H0v1.5h1.33l1.54 12.79h1.16c-.01.07-.02.14-.02.21 0 .83.67 1.5 1.5 1.5s1.5-.67 1.5-1.5c0-.07-.01-.14-.02-.21h3.73c-.01.07-.02.14-.02.21 0 .83.67 1.5 1.5 1.5s1.5-.67 1.5-1.5c0-.07-.01-.14-.02-.21h1.33v-1.5H4.2l-.19-1.55h10.57Zm-4.18-3.34v1.84h-3V7.89zm-3-1.5v-1.8h3v1.8zm4.5 3.34V7.89h1.85l-.39 1.84zm2.16-3.34h-2.16v-1.8h2.54zm-8.16-1.8v1.8H3.44l-.22-1.8zm-2.3 3.3H5.9v1.84H3.83z"/></symbol><symbol id="s24" viewBox="0 0 24 24"><path d="M23.96 6.94c.12-.55-.02-1.12-.38-1.56s-.89-.69-1.46-.69H4.36L3.8 0H0v1.75h2.25l2.33 19.66h1.85c-.06.19-.1.38-.1.58a2.01 2.01 0 0 0 4.02 0c0-.2-.04-.4-.1-.58h6.29c-.06.19-.1.38-.1.58a2.01 2.01 0 0 0 4.02 0c0-.2-.04-.4-.1-.58h1.84v-1.75H6.13l-.26-2.19h16.1zM8.08 22c0-.14.12-.26.26-.26s.26.12.26.26c0 .29-.52.29-.52 0m10.12 0c0-.14.12-.26.26-.26s.26.12.26.26c0 .29-.52.29-.52 0m4.02-15.52s.03.07.02.12l-.68 3.57h-3.8V6.43h4.36s.07.02.1.05m-11.27 3.7V6.44h5.06v3.74zm5.07 1.74v3.8h-5.06v-3.8zM9.2 6.43v3.74H5.01l-.44-3.74h4.64Zm-3.98 5.49h3.99v3.8H5.67zm12.55 3.81v-3.8h3.47l-.72 3.8z"/></symbol><symbol id="s32" viewBox="0 0 32 32"><path d="M31.48 7.13c-.45-.55-1.11-.86-1.82-.86H5.69L4.95.01H0v2h3.16l3.12 26.54h2.56c-.12.29-.19.61-.19.94 0 1.39 1.13 2.52 2.53 2.52s2.53-1.13 2.53-2.52c0-.33-.07-.65-.19-.94h8.88c-.12.29-.19.61-.19.94 0 1.39 1.13 2.52 2.53 2.52s2.53-1.13 2.53-2.52c0-.33-.07-.65-.19-.94h1.85v-2H8.07l-.42-3.53H29.3l2.64-13.94c.15-.69-.03-1.4-.47-1.95Zm-20.3 22.88c-.28 0-.52-.23-.52-.51s.23-.52.52-.52.52.23.52.52-.23.51-.52.51m13.57 0c-.29 0-.52-.23-.52-.51s.23-.52.52-.52.52.23.52.52-.23.51-.52.51m5.16-21.62s.1.14.06.3l-.93 4.91h-5.4V8.27h6.01c.14 0 .22.08.26.12m-15.4 5.21V8.27h7.12v5.33zm7.12 2v5.41h-7.12V15.6zM12.5 8.27v5.33H6.55l-.63-5.33zM6.79 15.6h5.72v5.41H7.43zm16.86 5.42v-5.41h5.02l-1.03 5.41h-4Z"/></symbol><symbol id="s40" viewBox="0 0 40 40"><path d="M39.36 8.91a2.8 2.8 0 0 0-2.18-1.04H7L6.08 0H-.01v2.25h4.09l3.91 33.4h3.31c-.2.4-.32.85-.32 1.32 0 1.67 1.36 3.03 3.03 3.03s3.04-1.36 3.04-3.03c0-.48-.12-.92-.32-1.32H28.3c-.2.4-.32.85-.32 1.32 0 1.67 1.36 3.03 3.04 3.03s3.03-1.36 3.03-3.03c0-.48-.12-.92-.32-1.32h2.43V33.4H9.99l-.55-4.72h27.19l3.29-17.43c.17-.83-.03-1.68-.57-2.34ZM14.01 37.76a.781.781 0 0 1 0-1.56.781.781 0 0 1 0 1.56m17.02 0a.781.781 0 0 1 0-1.56.781.781 0 0 1 0 1.56m-3.77-17.51h-9.2v-3.94h9.2zm2.25-3.94h7.17l-.74 3.94h-6.43zm-2.25 6.19v3.94h-9.2V22.5zM7.99 16.31h7.81v3.94H8.45zm10.07-2.25v-3.94h9.2v3.94zm-2.26-3.93v3.94H7.73l-.46-3.94h8.54ZM8.72 22.5h7.09v3.94H9.18zm20.79 3.94V22.5h6l-.74 3.94zm7.6-12.38h-7.6v-3.94h7.67c.23 0 .37.13.43.2.06.08.16.24.11.49z"/></symbol><symbol id="s48" viewBox="0 0 48 48"><path d="M47.26 10.66a3.25 3.25 0 0 0-2.54-1.21H8.33L7.21 0H0v2.5h5l4.77 40.28h4.04c-.28.5-.45 1.07-.45 1.69 0 1.95 1.59 3.54 3.54 3.54s3.54-1.59 3.54-3.54c0-.61-.17-1.18-.45-1.69h14.22c-.28.5-.45 1.07-.45 1.69 0 1.95 1.59 3.54 3.54 3.54s3.54-1.59 3.54-3.54c0-.61-.17-1.18-.45-1.69h3.39v-2.5h-31.8l-.72-6.05h32.73l3.93-20.84c.2-.97-.04-1.96-.66-2.73M16.9 45.51c-.57 0-1.04-.47-1.04-1.04s.47-1.04 1.04-1.04 1.04.47 1.04 1.04-.47 1.04-1.04 1.04m20.4 0c-.57 0-1.04-.47-1.04-1.04s.47-1.04 1.04-1.04 1.04.47 1.04 1.04-.47 1.04-1.04 1.04M32.93 24.3H21.57v-4.93h11.36zm2.5-4.93h8.82l-.93 4.93h-7.89zm-2.5 7.43v4.93H21.57V26.8zM9.51 19.37h9.56v4.93h-8.98zm12.06-2.5v-4.93h11.36v4.93zm-2.5-4.92v4.93H9.21l-.58-4.93zM10.39 26.8h8.68v4.93h-8.1zm25.04 4.93V26.8h7.42l-.93 4.93zM45.47 12.9l-.75 3.98h-9.3v-4.93h9.3c.32 0 .51.18.59.28.09.11.22.33.15.67Z"/></symbol><symbol id="s64" viewBox="0 0 64 64"><path d="M63.08 14.06a4.06 4.06 0 0 0-3.16-1.51H10.83L9.36-.07H-.01v2.76h6.92l6.36 54.26h5.64c-.51.72-.81 1.6-.81 2.55 0 2.45 1.99 4.44 4.43 4.44s4.43-1.99 4.43-4.44c0-.95-.3-1.82-.81-2.55h19.98c-.51.72-.81 1.6-.81 2.55 0 2.45 1.99 4.44 4.43 4.44s4.43-1.99 4.43-4.44c0-.95-.3-1.82-.81-2.55h5.03v-2.76H15.72l-1.07-9.11H58.7l5.2-27.62c.25-1.21-.05-2.45-.82-3.4M22.53 61.17c-.93 0-1.68-.75-1.68-1.68s.75-1.68 1.68-1.68 1.68.75 1.68 1.68-.75 1.68-1.68 1.68m27.21 0c-.93 0-1.68-.75-1.68-1.68s.75-1.68 1.68-1.68 1.68.75 1.68 1.68-.75 1.68-1.68 1.68m11.2-45.38c.25.31.35.71.26 1.13l-1.05 5.55H47.44V15.3h12.48c.4 0 .77.18 1.02.49M28.96 32.4v-7.17h15.73v7.17zm15.74 2.76v7.17H28.97v-7.17zm-32.38-9.93h13.89v7.17H13.16zm16.64-2.75v-7.17h15.73v7.17zm18.49 2.75h12.19l-1.35 7.17H47.45zm-21.24-9.92v7.17H12l-.84-7.17zM13.48 35.16h12.73v7.17H14.32zm33.97 7.17v-7.17h10.32l-1.35 7.17z"/></symbol><use style="display: var(--s16, none)" href="#s16"/><use style="display: var(--s24, none)" href="#s24"/><use style="display: var(--s32, none)" href="#s32"/><use style="display: var(--s40, none)" href="#s40"/><use style="display: var(--s48, none)" href="#s48"/><use style="display: var(--s64, none)" href="#s64"/></symbol></defs><style>@media (max-width: 23.98px) {g{--s16:block;}}@media (min-width: 24px) and (max-width: 31.98px) {g{--s24:block;}}@media (min-width: 32px) and (max-width: 39.98px) {g{--s32:block;}}@media (min-width: 40px) and (max-width: 47.98px) {g{--s40:block;}}@media (min-width: 48px) and (max-width: 63.98px) {g{--s48:block;}}@media (min-width: 64px) {g{--s64:block;}}</style><g><use href="#i-shop"/></g></svg>