<svg xmlns="http://www.w3.org/2000/svg"><defs><symbol id="i-smartwatch-solid"><symbol id="s16" viewBox="0 0 16 16"><path d="M13.89 7.49v.64c0 .46-.26.85-.64 1.07v1.81c0 1.24-1.01 2.25-2.25 2.25H5c-1.24 0-2.25-1.01-2.25-2.25v-6c0-1.24 1.01-2.25 2.25-2.25h6c1.24 0 2.25 1.01 2.25 2.25v1.42c.37.22.64.6.64 1.07ZM11.09.65c-.14-.39-.52-.66-.94-.66h-4.3c-.42 0-.8.26-.94.66L4.5 1.77h6.99L11.08.65ZM4.91 15.34c.14.39.52.66.94.66h4.3c.42 0 .8-.26.94-.66l.4-1.1H4.51z"/></symbol><symbol id="s24" viewBox="0 0 24 24"><path d="M21.03 10.95v1.51c0 .71-.54 1.29-1.23 1.36v3.35c0 1.45-1.18 2.63-2.63 2.63H6.83c-1.45 0-2.63-1.18-2.63-2.63V6.84c0-1.45 1.18-2.63 2.63-2.63h10.33c1.45 0 2.63 1.18 2.63 2.63v2.75c.69.07 1.23.65 1.23 1.36ZM16.73 1c-.21-.6-.79-1-1.42-1H8.7c-.64 0-1.21.4-1.43 1l-.81 2.23h11.1L16.74 1ZM7.27 23c.22.6.79 1 1.43 1h6.61c.64 0 1.21-.4 1.43-1l.82-2.23H6.45z"/></symbol><symbol id="s32" viewBox="0 0 32 32"><path d="M27.97 14.92v1.39c0 .99-.72 1.8-1.66 1.97v5.06c0 1.65-1.35 3-3 3H8.68c-1.65 0-3-1.35-3-3V8.71c0-1.65 1.35-3 3-3h14.63c1.65 0 3 1.35 3 3v4.25a2 2 0 0 1 1.66 1.97ZM22.24 1.25C21.96.5 21.24 0 20.44 0h-8.9c-.8 0-1.52.5-1.79 1.26L8.57 4.51h14.86l-1.18-3.25ZM9.75 30.74c.27.75.99 1.26 1.79 1.26h8.9c.8 0 1.52-.5 1.79-1.25l1.18-3.24H8.56l1.18 3.24Z"/></symbol><symbol id="s40" viewBox="0 0 40 40"><path d="M34.95 18.83v1.27c0 1.27-.9 2.32-2.09 2.57v6.8c0 1.86-1.51 3.38-3.38 3.38h-19c-1.86 0-3.38-1.51-3.38-3.38V10.48c0-1.86 1.51-3.38 3.38-3.38h19c1.86 0 3.38 1.51 3.38 3.38v5.78c1.19.25 2.09 1.31 2.09 2.57M27.76 1.46c-.33-.91-1.2-1.52-2.17-1.52H14.36c-.96 0-1.84.61-2.17 1.52l-1.57 4.31h18.71zM12.14 38.43c.33.91 1.2 1.51 2.17 1.51h11.23c.96 0 1.83-.61 2.17-1.52l1.57-4.3H10.57l1.57 4.3Z"/></symbol><symbol id="s48" viewBox="0 0 48 48"><path d="M41.91 22.8v1.14c0 1.54-1.08 2.83-2.52 3.16v8.51c0 2.07-1.68 3.75-3.75 3.75H12.38c-2.07 0-3.75-1.68-3.75-3.75V12.36c0-2.07 1.68-3.75 3.75-3.75h23.26c2.07 0 3.75 1.68 3.75 3.75v7.29c1.44.33 2.52 1.62 2.52 3.16ZM33.29 1.77A2.69 2.69 0 0 0 30.76 0h-13.5c-1.13 0-2.15.71-2.53 1.77L12.78 7.1h22.46zM14.73 46.22a2.7 2.7 0 0 0 2.53 1.77h13.5c1.13 0 2.15-.71 2.53-1.77l1.95-5.34H12.78z"/></symbol><symbol id="s64" viewBox="0 0 64 64"><path d="M55.79 30.26v1.93c0 1.97-1.49 3.59-3.4 3.83v12.35c0 2.28-1.85 4.13-4.13 4.13H15.63c-2.28 0-4.13-1.85-4.13-4.13V15.73c0-2.28 1.85-4.13 4.13-4.13h32.64c2.28 0 4.13 1.85 4.13 4.13v10.7c1.91.24 3.4 1.85 3.4 3.83ZM44.22 2.14A3.26 3.26 0 0 0 41.17 0H22.95c-1.36 0-2.58.86-3.05 2.13l-2.77 7.6h29.86l-2.77-7.6ZM19.77 61.87A3.25 3.25 0 0 0 22.82 64h18.22c1.36 0 2.58-.86 3.05-2.13l2.77-7.61H16.99l2.77 7.61Z"/></symbol><use style="display: var(--s16, none)" href="#s16"/><use style="display: var(--s24, none)" href="#s24"/><use style="display: var(--s32, none)" href="#s32"/><use style="display: var(--s40, none)" href="#s40"/><use style="display: var(--s48, none)" href="#s48"/><use style="display: var(--s64, none)" href="#s64"/></symbol></defs><style>@media (max-width: 23.98px) {g{--s16:block;}}@media (min-width: 24px) and (max-width: 31.98px) {g{--s24:block;}}@media (min-width: 32px) and (max-width: 39.98px) {g{--s32:block;}}@media (min-width: 40px) and (max-width: 47.98px) {g{--s40:block;}}@media (min-width: 48px) and (max-width: 63.98px) {g{--s48:block;}}@media (min-width: 64px) {g{--s64:block;}}</style><g><use href="#i-smartwatch-solid"/></g></svg>