<svg xmlns="http://www.w3.org/2000/svg"><defs><symbol id="i-smartwatchpulse-solid"><symbol id="s16" viewBox="0 0 16 16"><path d="M13.24 6.42V5c0-1.24-1.01-2.25-2.25-2.25h-6C3.75 2.75 2.74 3.76 2.74 5v6c0 1.24 1.01 2.25 2.25 2.25h6c1.24 0 2.25-1.01 2.25-2.25V9.19c.37-.22.64-.6.64-1.07v-.64c0-.46-.26-.85-.64-1.07Zm-3.94 2a.75.75 0 0 1-.72-.53l-.03-.09-.81 2.04a.76.76 0 0 1-.63.47h-.07a.75.75 0 0 1-.63-.35l-1.02-1.6H3.8v-1.5h2c.26 0 .5.13.63.35l.45.71 1.05-2.66c.12-.3.37-.5.73-.47.32.01.59.22.69.53l.49 1.61h1.89v1.5H9.29Zm2.18-6.65h-7L4.89.65c.15-.39.53-.65.94-.65h4.3c.42 0 .8.26.94.66l.41 1.12ZM4.49 14.24h6.98l-.4 1.1c-.14.39-.52.66-.94.66h-4.3c-.42 0-.8-.26-.94-.66z"/></symbol><symbol id="s24" viewBox="0 0 24 24"><path d="M19.78 9.59V6.84c0-1.45-1.18-2.63-2.63-2.63H6.82c-1.45 0-2.63 1.18-2.63 2.63v10.33c0 1.45 1.18 2.63 2.63 2.63h10.33c1.45 0 2.63-1.18 2.63-2.63v-3.35c.69-.07 1.23-.65 1.23-1.36v-1.51c0-.71-.54-1.29-1.23-1.36m-5.79 2.82a.88.88 0 0 1-.84-.62l-.27-.89-1.53 3.85c-.12.31-.4.52-.73.55h-.08c-.3 0-.58-.15-.74-.41l-1.64-2.58H5.58v-1.75h3.06c.3 0 .58.15.74.41l.98 1.53 1.81-4.58c.14-.35.48-.59.85-.55.37.01.69.26.8.62l.81 2.66h3.4v1.75h-4.05Zm3.54-9.18H6.44L7.26 1c.21-.6.78-1 1.42-1h6.61c.64 0 1.21.4 1.43 1zM6.44 20.77h11.1L16.72 23c-.22.6-.79 1-1.43 1H8.68c-.64 0-1.21-.4-1.43-1l-.82-2.23Z"/></symbol><symbol id="s32" viewBox="0 0 32 32"><path d="M26.29 12.96V8.71c0-1.65-1.35-3-3-3H8.66c-1.65 0-3 1.35-3 3v14.63c0 1.65 1.35 3 3 3h14.63c1.65 0 3-1.35 3-3v-5.06a2 2 0 0 0 1.66-1.97v-1.39c0-.99-.72-1.8-1.66-1.97Zm-7.61 3.48c-.44 0-.83-.29-.96-.71l-.52-1.7-2.25 5.69c-.14.35-.46.59-.83.63h-.09c-.34 0-.66-.17-.84-.46l-2.27-3.56H7.34v-2h4.13c.34 0 .66.17.84.46l1.51 2.38 2.58-6.52c.16-.39.51-.65.97-.63.42.02.79.3.92.71l1.14 3.72h4.88v2h-5.62ZM23.41 4.5H8.55l1.18-3.25c.28-.75 1-1.25 1.8-1.25h8.9c.8 0 1.52.5 1.79 1.26l1.18 3.25Zm-14.86 23H23.4l-1.18 3.24c-.28.75-1 1.25-1.79 1.25h-8.9c-.8 0-1.52-.5-1.79-1.25L8.56 27.5Z"/></symbol><symbol id="s40" viewBox="0 0 40 40"><path d="M32.84 16.26v-5.78c0-1.86-1.51-3.38-3.38-3.38H10.47c-1.86 0-3.38 1.51-3.38 3.38v19c0 1.86 1.51 3.38 3.38 3.38h19c1.86 0 3.38-1.51 3.38-3.38v-6.8a2.636 2.636 0 0 0 2.09-2.57v-1.27c0-1.27-.9-2.32-2.09-2.57Zm-9.47 4.06c-.49 0-.93-.32-1.08-.8l-.76-2.49-2.97 7.5c-.16.39-.52.67-.94.71h-.11c-.38 0-.74-.19-.95-.52l-2.89-4.55H9.09v-2.25h5.2c.38 0 .74.2.95.52l2.04 3.21 3.34-8.44c.17-.45.58-.75 1.09-.71.48.02.89.34 1.03.8l1.46 4.77h6.39v2.25h-7.23Zm5.95-14.55h-18.7l1.57-4.31c.33-.91 1.2-1.52 2.17-1.52h11.23c.97 0 1.84.61 2.17 1.52l1.57 4.31ZM10.56 34.13h18.69l-1.57 4.3c-.33.91-1.2 1.52-2.17 1.52H14.28c-.96 0-1.83-.61-2.17-1.51l-1.57-4.3Z"/></symbol><symbol id="s48" viewBox="0 0 48 48"><path d="M39.38 19.64v-7.29c0-2.07-1.68-3.75-3.75-3.75H12.37c-2.07 0-3.75 1.68-3.75 3.75v23.26c0 2.07 1.68 3.75 3.75 3.75h23.26c2.07 0 3.75-1.68 3.75-3.75V27.1a3.25 3.25 0 0 0 2.52-3.16V22.8c0-1.54-1.08-2.83-2.52-3.16m-11.32 4.69c-.55 0-1.03-.36-1.2-.88l-1.01-3.29-3.69 9.31c-.17.44-.58.74-1.04.78H21c-.42 0-.82-.22-1.06-.58l-3.52-5.52h-5.57v-2.5h6.26c.43 0 .83.22 1.06.58l2.57 4.03 4.1-10.35c.2-.49.68-.8 1.21-.79.53.02.99.38 1.15.88l1.78 5.81h7.9v2.5h-8.82ZM35.22 7.1H12.77l1.95-5.33C15.1.71 16.12 0 17.24 0h13.5c1.13 0 2.15.71 2.53 1.77zM12.76 40.88h22.46l-1.95 5.34a2.7 2.7 0 0 1-2.53 1.77h-13.5a2.69 2.69 0 0 1-2.53-1.77z"/></symbol><symbol id="s64" viewBox="0 0 64 64"><path d="M52.38 26.43v-10.7c0-2.28-1.85-4.13-4.13-4.13H15.62c-2.28 0-4.13 1.85-4.13 4.13v32.64c0 2.28 1.85 4.13 4.13 4.13h32.64c2.28 0 4.13-1.85 4.13-4.13V36.02c1.91-.24 3.4-1.85 3.4-3.83v-1.93c0-1.97-1.49-3.59-3.4-3.83Zm-2.78 5.75H37.47c-.6 0-1.14-.39-1.32-.97l-1.62-5.27-5.29 13.37c-.19.48-.63.81-1.15.86h-.13c-.47 0-.91-.24-1.16-.64l-4.83-7.58h-7.68V29.2h8.44c.47 0 .91.24 1.16.64l3.79 5.95 5.75-14.51c.21-.54.72-.89 1.33-.87.58.02 1.09.41 1.26.97l2.47 8.05H49.6zM46.98 9.74H17.12l2.77-7.6A3.25 3.25 0 0 1 22.94 0h18.22c1.36 0 2.58.86 3.05 2.13l2.77 7.6ZM16.99 54.26h29.87l-2.77 7.61A3.25 3.25 0 0 1 41.04 64H22.82c-1.36 0-2.58-.86-3.05-2.13L17 54.26Z"/></symbol><use style="display: var(--s16, none)" href="#s16"/><use style="display: var(--s24, none)" href="#s24"/><use style="display: var(--s32, none)" href="#s32"/><use style="display: var(--s40, none)" href="#s40"/><use style="display: var(--s48, none)" href="#s48"/><use style="display: var(--s64, none)" href="#s64"/></symbol></defs><style>@media (max-width: 23.98px) {g{--s16:block;}}@media (min-width: 24px) and (max-width: 31.98px) {g{--s24:block;}}@media (min-width: 32px) and (max-width: 39.98px) {g{--s32:block;}}@media (min-width: 40px) and (max-width: 47.98px) {g{--s40:block;}}@media (min-width: 48px) and (max-width: 63.98px) {g{--s48:block;}}@media (min-width: 64px) {g{--s64:block;}}</style><g><use href="#i-smartwatchpulse-solid"/></g></svg>