<svg xmlns="http://www.w3.org/2000/svg"><defs><symbol id="i-smartwatchpulse"><symbol id="s16" viewBox="0 0 16 16"><path d="M13.26 6.42V5c0-.82-.45-1.54-1.11-1.93L11.33.83c-.18-.5-.65-.83-1.17-.83H5.85c-.52 0-1 .33-1.18.82l-.82 2.24c-.66.39-1.11 1.11-1.11 1.93V11c0 .82.45 1.54 1.11 1.93l.82 2.24c.18.49.65.82 1.18.82h4.31c.52 0 1-.33 1.18-.82l.82-2.24c.66-.39 1.11-1.11 1.11-1.93V9.19c.38-.22.64-.61.64-1.07v-.64c0-.46-.26-.85-.64-1.07Zm-8.27 5.34c-.41 0-.75-.34-.75-.75V5c0-.41.34-.75.75-.75H11c.41 0 .75.34.75.75v6.01c0 .41-.33.75-.75.75H4.98ZM6.02 1.5h3.96l.45 1.24H5.57zm3.96 13H6.02l-.45-1.24h4.86zm-.2-7.32h1.32v1.5H9.23c-.33 0-.62-.22-.72-.53l-.03-.09-.81 2.04a.76.76 0 0 1-.63.47h-.07c-.26 0-.49-.13-.63-.35l-1.02-1.6h-.34v-1.5h.75c.26 0 .5.13.63.35l.45.71 1.05-2.66c.12-.3.37-.51.73-.47.32.01.59.22.69.53l.49 1.61Z"/></symbol><symbol id="s24" viewBox="0 0 24 24"><path d="M19.79 9.59V6.84c0-1.14-.73-2.1-1.74-2.46l-1.2-3.3C16.61.44 15.99 0 15.31 0H8.7c-.69 0-1.31.43-1.54 1.08l-1.2 3.3c-1.01.37-1.74 1.33-1.74 2.46v10.33c0 1.14.73 2.1 1.74 2.46l1.2 3.29c.23.65.86 1.08 1.54 1.08h6.61c.69 0 1.31-.43 1.54-1.08l1.2-3.3c1.01-.37 1.74-1.33 1.74-2.46v-3.34c.69-.07 1.23-.65 1.23-1.36v-1.51c0-.71-.54-1.29-1.23-1.36M6.84 18.04a.87.87 0 0 1-.87-.87V6.84c0-.48.39-.88.88-.88h10.33c.48 0 .88.39.88.88v10.33c0 .48-.39.87-.87.87zM8.78 1.75h6.46l.9 2.46H7.88zm6.45 20.5H8.77l-.9-2.46h8.25l-.9 2.46Zm-.68-11.33h2.5v1.75H13.9c-.38 0-.72-.25-.84-.62l-.27-.88-1.52 3.85c-.12.31-.4.52-.73.55h-.08c-.3 0-.58-.15-.74-.41l-1.64-2.57H7v-1.75h1.56c.3 0 .58.15.74.41l.98 1.53 1.81-4.57c.14-.35.48-.59.85-.55.37.01.69.26.8.62l.81 2.65Z"/></symbol><symbol id="s32" viewBox="0 0 32 32"><path d="M26.32 12.95V8.7c0-1.43-1-2.62-2.34-2.92l-1.61-4.42C22.08.56 21.31.02 20.46.02h-8.91c-.85 0-1.62.54-1.91 1.34L8.03 5.78A3 3 0 0 0 5.69 8.7v14.64c0 1.43 1.01 2.62 2.34 2.92l1.61 4.42c.29.8 1.06 1.34 1.91 1.34h8.91c.85 0 1.62-.54 1.91-1.34l1.61-4.42a3 3 0 0 0 2.34-2.92v-5.06a2 2 0 0 0 1.66-1.97v-1.39c0-.99-.72-1.8-1.66-1.97M8.67 24.34c-.55 0-.99-.45-.99-1V8.7c0-.55.45-1 1-1h14.64c.55 0 1 .45 1 1v14.64a1 1 0 0 1-.99 1zm2.87-22.32 8.94.02 1.33 3.66H10.18zm-.03 27.97-1.33-3.65h11.63l-1.36 3.68-8.94-.02Zm7.84-15.35h3.71v2h-4.44c-.44 0-.83-.29-.96-.71l-.52-1.7-2.25 5.69c-.14.35-.46.59-.84.63h-.09c-.34 0-.66-.17-.84-.46l-2.27-3.57H9.02v-2h2.38c.34 0 .66.17.84.46l1.51 2.38 2.58-6.52c.16-.39.52-.66.97-.63.42.02.79.3.92.71l1.14 3.72Z"/></symbol><symbol id="s40" viewBox="0 0 40 40"><path d="M32.84 16.34v-5.77c0-1.71-1.28-3.11-2.93-3.33l-2.04-5.6c-.35-.95-1.26-1.6-2.28-1.6H14.38c-1.02 0-1.93.64-2.28 1.6l-2.04 5.6a3.37 3.37 0 0 0-2.93 3.33v18.97c0 1.71 1.28 3.11 2.93 3.33l2.04 5.6c.35.95 1.27 1.59 2.28 1.59h11.21c1.02 0 1.93-.64 2.28-1.59l2.04-5.59a3.37 3.37 0 0 0 2.93-3.33v-6.79c1.19-.25 2.09-1.3 2.09-2.57v-1.27c0-1.26-.9-2.32-2.09-2.57ZM10.5 30.65c-.61 0-1.11-.51-1.11-1.12V10.56c0-.62.5-1.12 1.12-1.12h18.97c.62 0 1.12.5 1.12 1.12v18.97c0 .62-.5 1.12-1.11 1.12zm3.71-28.24c.03-.07.09-.12.17-.12h11.21c.08 0 .14.05.17.12l1.74 4.78H12.46l1.74-4.78Zm11.55 35.27c-.03.07-.09.12-.17.12H14.38c-.08 0-.14-.05-.17-.12l-1.74-4.78H27.5zm-1.64-19.32H29v2.25h-5.72c-.49 0-.93-.32-1.07-.79l-.76-2.49-2.97 7.49c-.16.39-.52.67-.94.71h-.11c-.38 0-.74-.19-.95-.52l-2.89-4.54h-2.58v-2.25h3.19c.38 0 .74.2.95.52l2.04 3.2 3.34-8.43c.17-.44.58-.75 1.09-.71.48.02.89.34 1.03.79l1.46 4.76Z"/></symbol><symbol id="s48" viewBox="0 0 48 48"><path d="M39.4 19.66v-7.29c0-1.99-1.55-3.6-3.51-3.73l-2.47-6.78A2.84 2.84 0 0 0 30.77 0H17.26c-1.18 0-2.25.75-2.65 1.85l-2.47 6.78c-1.95.13-3.51 1.74-3.51 3.73v23.27c0 1.99 1.56 3.6 3.51 3.73l2.47 6.78A2.83 2.83 0 0 0 17.26 48h13.51c1.18 0 2.25-.74 2.65-1.86l2.47-6.78c1.95-.13 3.51-1.74 3.51-3.73v-8.52a3.25 3.25 0 0 0 2.52-3.16v-1.14c0-1.54-1.08-2.83-2.52-3.16ZM16.96 2.71c.04-.13.17-.21.3-.21h13.51c.13 0 .26.09.3.21l2.15 5.9H14.81zm14.11 42.58c-.05.13-.17.21-.3.21H17.26c-.13 0-.25-.08-.3-.21l-2.15-5.9h18.41zm5.83-9.65c0 .68-.55 1.24-1.24 1.25h-23.3c-.68 0-1.24-.56-1.24-1.25V12.37c0-.69.56-1.25 1.25-1.25h23.27c.69 0 1.25.56 1.25 1.25v23.27Zm-7.99-13.52h5.83v2.5h-6.75c-.55 0-1.04-.36-1.2-.88l-1.01-3.29-3.69 9.32c-.17.44-.58.74-1.04.78h-.12c-.43 0-.82-.22-1.06-.58l-3.52-5.52h-3.07v-2.5h3.76c.43 0 .83.22 1.06.58l2.57 4.04 4.1-10.36c.2-.49.69-.82 1.21-.79.53.02.99.38 1.15.88z"/></symbol><symbol id="s64" viewBox="0 0 64 64"><path d="M52.36 26.44V15.76c0-2.27-1.85-4.12-4.12-4.12h-.52l-3.39-9.3A3.5 3.5 0 0 0 41.05.05H22.86c-1.46 0-2.78.92-3.28 2.29l-3.39 9.3h-.52c-2.27 0-4.12 1.85-4.12 4.12v32.57c0 2.27 1.85 4.12 4.12 4.12h.52l3.39 9.3c.5 1.37 1.82 2.29 3.28 2.29h18.19c1.46 0 2.78-.92 3.28-2.29l3.39-9.3h.52c2.27 0 4.12-1.85 4.12-4.12V36c1.91-.24 3.39-1.85 3.39-3.82v-1.93c0-1.97-1.49-3.58-3.39-3.82ZM22.17 3.28c.11-.29.39-.49.7-.49h18.19c.31 0 .59.2.7.49l3.05 8.36H19.13l3.05-8.36Zm19.58 57.53c-.11.29-.39.49-.7.49H22.86c-.31 0-.59-.2-.7-.49l-3.05-8.36h25.68l-3.05 8.36Zm7.87-12.47c0 .74-.59 1.34-1.32 1.37H15.62c-.73-.03-1.32-.63-1.32-1.37V15.76c0-.76.62-1.37 1.37-1.37h32.57c.76 0 1.37.62 1.37 1.37v32.57ZM38.4 29.69h8.34v2.75h-9.36c-.6 0-1.14-.39-1.31-.97l-1.61-5.27-5.29 13.35c-.19.48-.63.81-1.15.86h-.13c-.47 0-.9-.24-1.16-.64l-4.82-7.57h-4.67v-2.75h5.42c.47 0 .91.24 1.16.64l3.78 5.94 5.74-14.49c.21-.54.72-.89 1.33-.87.58.02 1.09.41 1.26.97l2.46 8.04Z"/></symbol><use style="display: var(--s16, none)" href="#s16"/><use style="display: var(--s24, none)" href="#s24"/><use style="display: var(--s32, none)" href="#s32"/><use style="display: var(--s40, none)" href="#s40"/><use style="display: var(--s48, none)" href="#s48"/><use style="display: var(--s64, none)" href="#s64"/></symbol></defs><style>@media (max-width: 23.98px) {g{--s16:block;}}@media (min-width: 24px) and (max-width: 31.98px) {g{--s24:block;}}@media (min-width: 32px) and (max-width: 39.98px) {g{--s32:block;}}@media (min-width: 40px) and (max-width: 47.98px) {g{--s40:block;}}@media (min-width: 48px) and (max-width: 63.98px) {g{--s48:block;}}@media (min-width: 64px) {g{--s64:block;}}</style><g><use href="#i-smartwatchpulse"/></g></svg>