<svg xmlns="http://www.w3.org/2000/svg"><defs><symbol id="i-somediashare-solid"><symbol id="s16" viewBox="0 0 16 16"><path d="M12.49 9.01c-.91 0-1.73.35-2.35.92L6.98 8.34c.01-.11.03-.22.03-.34 0-.13-.02-.26-.04-.39l3.14-1.56c.63.58 1.45.94 2.37.94 1.93 0 3.51-1.57 3.51-3.5s-1.57-3.5-3.51-3.5-3.51 1.57-3.51 3.5c0 .11.02.22.03.33L5.82 5.4c-.62-.55-1.43-.9-2.32-.9C1.57 4.5 0 6.07 0 8s1.57 3.5 3.51 3.5c.91 0 1.74-.36 2.36-.93l3.15 1.58c-.01.12-.04.23-.04.35 0 1.93 1.57 3.5 3.51 3.5S16 14.43 16 12.5 14.43 9 12.49 9Zm0-6.52c.56 0 1.01.45 1.01 1.01s-.45 1.01-1.01 1.01-1.01-.45-1.01-1.01.45-1.01 1.01-1.01M3.5 9.01c-.56 0-1.01-.45-1.01-1.01s.45-1.01 1.01-1.01S4.51 7.44 4.51 8 4.06 9.01 3.5 9.01m8.99 4.5c-.56 0-1.01-.45-1.01-1.01s.45-1.01 1.01-1.01 1.01.45 1.01 1.01-.45 1.01-1.01 1.01"/></symbol><symbol id="s24" viewBox="0 0 24 24"><path d="M19 13.99c-1.41 0-2.68.59-3.59 1.53l-5.49-2.75c.04-.26.08-.51.08-.78s-.04-.52-.08-.78l5.5-2.75c.91.94 2.18 1.53 3.59 1.53 2.76 0 5-2.24 5-5S21.76 0 19 0s-5 2.24-5 5c0 .27.04.52.08.78l-5.5 2.75A4.98 4.98 0 0 0 4.99 7C2.25 6.99 0 9.24 0 12s2.24 5 5 5c1.41 0 2.68-.59 3.59-1.53l5.49 2.75c-.04.26-.08.51-.08.78 0 2.76 2.24 5 5 5s5-2.24 5-5-2.24-5-5-5ZM19 3c1.1 0 1.99.89 1.99 1.99s-.89 2-1.99 2-1.99-.89-1.99-2S17.9 3 19 3M5 13.99c-1.1 0-1.99-.89-1.99-1.99S3.9 10.01 5 10.01s1.99.89 1.99 1.99S6.1 13.99 5 13.99m14 7c-1.1 0-1.99-.89-1.99-1.99s.89-2 1.99-2 1.99.89 1.99 2-.89 1.99-1.99 1.99"/></symbol><symbol id="s32" viewBox="0 0 32 32"><path d="M25.47 18.94c-1.92 0-3.64.83-4.83 2.15l-7.7-3.85c.08-.4.12-.82.12-1.24s-.04-.84-.12-1.24l7.69-3.85c1.2 1.32 2.92 2.16 4.83 2.16 3.6 0 6.53-2.93 6.53-6.53S29.06 0 25.46 0s-6.53 2.93-6.53 6.53c0 .42.04.84.12 1.24l-7.69 3.85c-1.2-1.32-2.92-2.16-4.83-2.16C2.93 9.47 0 12.4 0 16s2.93 6.53 6.53 6.53c1.92 0 3.64-.83 4.83-2.15l7.7 3.85c-.08.4-.12.82-.12 1.24 0 3.6 2.93 6.53 6.53 6.53S32 29.07 32 25.47s-2.93-6.53-6.53-6.53m-.01-15.43c1.67 0 3.02 1.36 3.02 3.02s-1.36 3.02-3.02 3.02-3.02-1.36-3.02-3.02 1.36-3.02 3.02-3.02M6.53 19.02c-1.67 0-3.02-1.36-3.02-3.02s1.36-3.02 3.02-3.02S9.55 14.34 9.55 16s-1.36 3.02-3.02 3.02m18.94 9.47c-1.67 0-3.02-1.36-3.02-3.02s1.36-3.02 3.02-3.02 3.02 1.36 3.02 3.02-1.36 3.02-3.02 3.02"/></symbol><symbol id="s40" viewBox="0 0 40 40"><path d="M31.96 23.87c-2.42 0-4.58 1.08-6.06 2.77l-10.01-5.01c.12-.54.18-1.11.18-1.69s-.06-1.14-.18-1.69l10-5a8.02 8.02 0 0 0 6.06 2.77c4.43 0 8.04-3.61 8.04-8.04s-3.6-8.03-8.04-8.03-8.04 3.61-8.04 8.04c0 .58.06 1.14.18 1.69l-10 5a8.02 8.02 0 0 0-6.06-2.77C3.6 11.9 0 15.51 0 19.94s3.61 8.04 8.04 8.04c2.42 0 4.58-1.08 6.06-2.77l10.01 5.01c-.12.54-.18 1.11-.18 1.69 0 4.43 3.61 8.04 8.04 8.04s8.04-3.61 8.04-8.04-3.61-8.04-8.04-8.04Zm-.01-19.91c2.22 0 4.03 1.81 4.03 4.03s-1.81 4.03-4.03 4.03-4.03-1.81-4.03-4.03 1.81-4.03 4.03-4.03M8.04 23.97c-2.22 0-4.03-1.81-4.03-4.03s1.81-4.03 4.03-4.03 4.03 1.81 4.03 4.03-1.81 4.03-4.03 4.03m23.92 11.97c-2.22 0-4.03-1.81-4.03-4.03s1.81-4.03 4.03-4.03 4.03 1.81 4.03 4.03-1.81 4.03-4.03 4.03"/></symbol><symbol id="s48" viewBox="0 0 48 48"><path d="M38.45 28.91a9.51 9.51 0 0 0-7.28 3.39l-12.34-6.17c.16-.69.25-1.4.25-2.13s-.09-1.44-.25-2.13l12.33-6.16a9.51 9.51 0 0 0 7.28 3.39c5.26 0 9.54-4.28 9.54-9.55S43.71 0 38.45 0s-9.54 4.28-9.54 9.55c0 .73.09 1.44.25 2.13l-12.33 6.16a9.51 9.51 0 0 0-7.28-3.39C4.28 14.45 0 18.74 0 24s4.28 9.55 9.54 9.55a9.51 9.51 0 0 0 7.28-3.39l12.34 6.17c-.16.69-.25 1.4-.25 2.13 0 5.26 4.28 9.55 9.54 9.55s9.54-4.28 9.54-9.55-4.28-9.55-9.54-9.55m0-24.4c2.78 0 5.04 2.26 5.04 5.04s-2.26 5.04-5.04 5.04-5.04-2.26-5.04-5.04 2.26-5.04 5.04-5.04M9.54 29.04c-2.78 0-5.04-2.26-5.04-5.04s2.26-5.04 5.04-5.04 5.04 2.26 5.04 5.04-2.26 5.04-5.04 5.04M38.45 43.5c-2.78 0-5.04-2.26-5.04-5.04s2.26-5.04 5.04-5.04 5.04 2.26 5.04 5.04-2.26 5.04-5.04 5.04"/></symbol><symbol id="s64" viewBox="0 0 64 64"><path d="M51.6 39.21c-3.94 0-7.45 1.86-9.72 4.74l-17.53-8.77c.27-1.02.43-2.08.43-3.19s-.16-2.17-.43-3.18l17.53-8.76c2.27 2.88 5.78 4.74 9.72 4.74 6.83 0 12.39-5.56 12.39-12.39S58.43 0 51.6 0 39.21 5.56 39.21 12.4c0 1.1.16 2.17.43 3.18l-17.53 8.76c-2.27-2.88-5.78-4.74-9.73-4.74C5.55 19.6 0 25.16 0 32s5.56 12.39 12.39 12.39c3.94 0 7.45-1.86 9.72-4.74l17.53 8.77c-.27 1.02-.43 2.08-.43 3.19 0 6.83 5.56 12.4 12.39 12.4s12.39-5.56 12.39-12.4-5.56-12.39-12.39-12.39Zm0-34.2c4.08 0 7.39 3.32 7.39 7.39s-3.32 7.39-7.39 7.39-7.39-3.32-7.39-7.39 3.32-7.39 7.39-7.39M12.39 39.39C8.31 39.39 5 36.07 5 32s3.32-7.39 7.39-7.39 7.39 3.32 7.39 7.39-3.32 7.39-7.39 7.39M51.6 59c-4.08 0-7.39-3.32-7.39-7.39s3.32-7.39 7.39-7.39 7.39 3.32 7.39 7.39S55.67 59 51.6 59"/></symbol><use style="display: var(--s16, none)" href="#s16"/><use style="display: var(--s24, none)" href="#s24"/><use style="display: var(--s32, none)" href="#s32"/><use style="display: var(--s40, none)" href="#s40"/><use style="display: var(--s48, none)" href="#s48"/><use style="display: var(--s64, none)" href="#s64"/></symbol></defs><style>@media (max-width: 23.98px) {g{--s16:block;}}@media (min-width: 24px) and (max-width: 31.98px) {g{--s24:block;}}@media (min-width: 32px) and (max-width: 39.98px) {g{--s32:block;}}@media (min-width: 40px) and (max-width: 47.98px) {g{--s40:block;}}@media (min-width: 48px) and (max-width: 63.98px) {g{--s48:block;}}@media (min-width: 64px) {g{--s64:block;}}</style><g><use href="#i-somediashare-solid"/></g></svg>