<svg xmlns="http://www.w3.org/2000/svg"><defs><symbol id="i-somediashare"><symbol id="s16" viewBox="0 0 16 16"><path d="M12.82 9.67c-.96 0-1.82.44-2.4 1.12L6.27 8.71c.05-.23.09-.46.09-.7 0-.26-.04-.51-.1-.75l4.15-2.05a3.14 3.14 0 0 0 2.42 1.13c1.75 0 3.18-1.42 3.18-3.17S14.57 0 12.82 0 9.64 1.42 9.64 3.17c0 .24.03.47.08.69L5.55 5.92a3.17 3.17 0 0 0-2.38-1.09C1.42 4.84 0 6.26 0 8s1.43 3.17 3.18 3.17c.97 0 1.83-.44 2.41-1.13l4.14 2.08c-.05.23-.09.47-.09.71 0 1.75 1.43 3.17 3.18 3.17S16 14.58 16 12.83s-1.43-3.17-3.18-3.17Zm0-8.17c.92 0 1.67.75 1.67 1.67s-.75 1.67-1.67 1.67-1.67-.75-1.67-1.67.75-1.67 1.67-1.67M3.17 9.67C2.25 9.67 1.5 8.92 1.5 8s.75-1.67 1.67-1.67S4.84 7.08 4.84 8s-.75 1.67-1.67 1.67m9.65 4.84c-.92 0-1.67-.75-1.67-1.67s.75-1.67 1.67-1.67 1.67.75 1.67 1.67-.75 1.67-1.67 1.67"/></symbol><symbol id="s24" viewBox="0 0 24 24"><path d="M19.42 14.83c-1.48 0-2.78.71-3.61 1.8l-6.83-3.41c.11-.39.19-.79.19-1.22s-.08-.83-.19-1.22l6.83-3.41c.84 1.09 2.14 1.8 3.61 1.8 2.53 0 4.58-2.06 4.58-4.58S21.95 0 19.42 0s-4.58 2.06-4.58 4.58c0 .42.08.83.19 1.22L8.2 9.21c-.84-1.09-2.14-1.8-3.61-1.8C2.06 7.42 0 9.47 0 12s2.05 4.58 4.58 4.58c1.47 0 2.77-.71 3.61-1.8l6.83 3.41c-.11.39-.19.79-.19 1.22a4.58 4.58 0 1 0 4.58-4.58Zm0-13.08c1.56 0 2.83 1.27 2.83 2.83s-1.27 2.83-2.83 2.83-2.83-1.27-2.83-2.83 1.27-2.83 2.83-2.83M4.58 14.83c-1.56 0-2.83-1.27-2.83-2.83s1.27-2.83 2.83-2.83S7.41 10.44 7.41 12s-1.27 2.83-2.83 2.83m14.84 7.42c-1.56 0-2.83-1.27-2.83-2.83s1.27-2.83 2.83-2.83 2.83 1.27 2.83 2.83-1.27 2.83-2.83 2.83"/></symbol><symbol id="s32" viewBox="0 0 32 32"><path d="M25.97 19.94c-2 0-3.77.98-4.86 2.48l-9.31-4.66c.17-.56.26-1.15.26-1.76s-.09-1.2-.26-1.76l9.31-4.65c1.1 1.5 2.87 2.48 4.86 2.48 3.32 0 6.03-2.71 6.03-6.03S29.29 0 25.96 0a6.037 6.037 0 0 0-5.77 7.79l-9.31 4.65a6.03 6.03 0 0 0-4.86-2.48C2.7 9.97 0 12.67 0 16s2.71 6.03 6.03 6.03c2 0 3.77-.98 4.86-2.48l9.31 4.66A6.037 6.037 0 0 0 25.97 32c3.32 0 6.03-2.71 6.03-6.03s-2.7-6.03-6.03-6.03m-.01-17.93c2.22 0 4.03 1.81 4.03 4.03s-1.81 4.03-4.03 4.03-4.03-1.81-4.03-4.03 1.81-4.03 4.03-4.03M6.03 20.03C3.81 20.03 2 18.22 2 16s1.81-4.03 4.03-4.03 4.03 1.81 4.03 4.03-1.81 4.03-4.03 4.03M25.97 30c-2.22 0-4.03-1.81-4.03-4.03s1.81-4.03 4.03-4.03S30 23.75 30 25.97 28.19 30 25.97 30"/></symbol><symbol id="s40" viewBox="0 0 40 40"><path d="M32.54 25.09c-2.51 0-4.73 1.25-6.08 3.16l-11.92-5.96c.23-.72.36-1.49.36-2.29s-.13-1.56-.36-2.28l11.91-5.96a7.44 7.44 0 0 0 6.08 3.16c4.11 0 7.45-3.34 7.45-7.46S36.65 0 32.54 0s-7.45 3.34-7.45 7.46c0 .8.13 1.56.36 2.29l-11.91 5.96a7.44 7.44 0 0 0-6.08-3.16C3.34 12.54 0 15.89 0 20s3.34 7.46 7.45 7.46c2.51 0 4.73-1.25 6.08-3.16l11.92 5.96c-.23.72-.36 1.49-.36 2.29 0 4.11 3.34 7.46 7.45 7.46s7.45-3.34 7.45-7.46-3.34-7.46-7.45-7.46m0-22.83c2.87 0 5.2 2.34 5.2 5.2s-2.33 5.2-5.2 5.2-5.2-2.33-5.2-5.2 2.33-5.2 5.2-5.2M7.45 25.2c-2.87 0-5.2-2.34-5.2-5.2s2.33-5.2 5.2-5.2 5.2 2.33 5.2 5.2-2.33 5.2-5.2 5.2m25.09 12.55c-2.87 0-5.2-2.34-5.2-5.2s2.33-5.2 5.2-5.2 5.2 2.33 5.2 5.2-2.33 5.2-5.2 5.2"/></symbol><symbol id="s48" viewBox="0 0 48 48"><path d="M39.12 30.25c-3.02 0-5.69 1.52-7.3 3.83l-14.54-7.27c.3-.88.46-1.83.46-2.81s-.17-1.92-.46-2.81l14.53-7.26c1.6 2.31 4.27 3.84 7.3 3.84 4.9 0 8.88-3.98 8.88-8.88S44.01.01 39.11.01s-8.88 3.98-8.88 8.88c0 .98.17 1.92.46 2.81l-14.53 7.26c-1.6-2.31-4.27-3.84-7.3-3.84C3.98 15.13 0 19.11 0 24s3.98 8.88 8.88 8.88c3.02 0 5.69-1.52 7.3-3.83l14.54 7.27c-.3.88-.46 1.83-.46 2.81 0 4.9 3.98 8.88 8.88 8.88s8.88-3.98 8.88-8.88-3.98-8.88-8.88-8.88Zm-.01-27.74c3.52 0 6.38 2.86 6.38 6.38s-2.86 6.38-6.38 6.38-6.38-2.86-6.38-6.38 2.86-6.38 6.38-6.38M8.87 30.39c-3.52 0-6.38-2.86-6.38-6.38s2.86-6.38 6.38-6.38 6.38 2.86 6.38 6.38-2.86 6.38-6.38 6.38m30.25 15.12c-3.52 0-6.38-2.86-6.38-6.38s2.86-6.38 6.38-6.38 6.38 2.86 6.38 6.38-2.86 6.38-6.38 6.38"/></symbol><symbol id="s64" viewBox="0 0 64 64"><path d="M52.35 40.71c-4.06 0-7.63 2.09-9.72 5.25L22.58 35.93c.44-1.23.7-2.55.7-3.93s-.25-2.7-.7-3.93l20.04-10.02c2.08 3.16 5.66 5.25 9.72 5.25 6.42 0 11.64-5.22 11.64-11.65S58.77 0 52.34 0 40.7 5.22 40.7 11.65c0 1.38.25 2.7.7 3.93L21.36 25.6c-2.08-3.16-5.66-5.25-9.72-5.25C5.22 20.35 0 25.58 0 32s5.22 11.65 11.64 11.65c4.06 0 7.63-2.09 9.72-5.25l20.05 10.03c-.44 1.23-.7 2.55-.7 3.94 0 6.42 5.22 11.65 11.64 11.65s11.64-5.22 11.64-11.65-5.22-11.65-11.64-11.65Zm-.01-37.95c4.9 0 8.89 3.99 8.89 8.9s-3.99 8.9-8.89 8.9-8.89-3.99-8.89-8.9 3.99-8.9 8.89-8.9M11.64 40.9c-4.9 0-8.89-3.99-8.89-8.9s3.99-8.9 8.89-8.9 8.89 3.99 8.89 8.9-3.99 8.9-8.89 8.9m40.71 20.36c-4.9 0-8.89-3.99-8.89-8.9s3.99-8.9 8.89-8.9 8.89 3.99 8.89 8.9-3.99 8.9-8.89 8.9"/></symbol><use style="display: var(--s16, none)" href="#s16"/><use style="display: var(--s24, none)" href="#s24"/><use style="display: var(--s32, none)" href="#s32"/><use style="display: var(--s40, none)" href="#s40"/><use style="display: var(--s48, none)" href="#s48"/><use style="display: var(--s64, none)" href="#s64"/></symbol></defs><style>@media (max-width: 23.98px) {g{--s16:block;}}@media (min-width: 24px) and (max-width: 31.98px) {g{--s24:block;}}@media (min-width: 32px) and (max-width: 39.98px) {g{--s32:block;}}@media (min-width: 40px) and (max-width: 47.98px) {g{--s40:block;}}@media (min-width: 48px) and (max-width: 63.98px) {g{--s48:block;}}@media (min-width: 64px) {g{--s64:block;}}</style><g><use href="#i-somediashare"/></g></svg>