<svg xmlns="http://www.w3.org/2000/svg"><defs><symbol id="i-sortup-solid"><symbol id="s16" viewBox="0 0 16 16"><path d="M6.81 6.74 5.72 5.65v8.97h-2.5V5.65L2.13 6.74c-.49.49-1.28.49-1.77 0s-.49-1.28 0-1.77L4.48.86l4.11 4.1c.49.49.49 1.28 0 1.77-.24.24-.56.37-.88.37s-.64-.12-.88-.37Zm.69 7.87H16v-2.5H7.5zm2-4.76H16v-2.5H9.5zm1.99-7.27v2.5H16v-2.5z"/></symbol><symbol id="s24" viewBox="0 0 24 24"><path d="M10.12 9.81 7.85 7.54l-.03 13.98h-3l.03-13.99L2.57 9.8A1.5 1.5 0 0 1 .45 7.68l5.91-5.89 5.89 5.9a1.5 1.5 0 0 1-2.12 2.12Zm.38 11.7h13.51v-3H10.5zm3.01-7.14h10.51v-3H13.51zm2.98-10.16v3h7.52v-3z"/></symbol><symbol id="s32" viewBox="0 0 32 32"><path d="M13.7 25.14h18.27v3.5H13.7zm2.36-12.26c.68-.68.68-1.79 0-2.47L8.27 2.63.49 10.4a1.75 1.75 0 0 0 0 2.47c.34.34.79.51 1.24.51s.9-.17 1.24-.51l3.55-3.55v19.32h3.5V9.33l3.56 3.55c.68.68 1.79.68 2.48 0m5.74-7.1v3.5h10.18v-3.5zm-4.04 13.19h14.22v-3.5H17.76z"/></symbol><symbol id="s40" viewBox="0 0 40 40"><path d="M17.12 31.32h22.83v4.5H17.12zm10.14-24.2v4.5h12.73v-4.5zm-7.05 8.97c.88-.88.88-2.3 0-3.18l-9.78-9.77L.65 12.9c-.88.88-.88 2.3 0 3.18s2.31.88 3.19 0l4.34-4.33v24.06h4.51V11.75l4.34 4.33c.44.44 1.02.66 1.59.66s1.15-.22 1.59-.66Zm1.99 7.64h17.79v-4.5H22.2z"/></symbol><symbol id="s48" viewBox="0 0 48 48"><path d="M14.38 12.97v29.75H9.87V12.97l-6.05 6.04c-.88.88-2.31.88-3.19 0s-.88-2.3 0-3.18L9.87 6.6v-.08h.08l2.18-2.17 2.18 2.17h.08v.08l9.23 9.22a2.25 2.25 0 0 1-1.59 3.84c-.57 0-1.15-.22-1.59-.66l-6.05-6.04Zm5.96 29.74h27.64v-4.5H20.34zm6.15-14.6h21.49v-4.5H26.49zM32.6 8.97v4.5h15.38v-4.5z"/></symbol><symbol id="s64" viewBox="0 0 64 64"><path d="M18.25 15.99v40.55h-5.01V15.99l-8.98 8.96c-.98.98-2.56.98-3.54 0s-.98-2.56 0-3.54L15.74 6.42l15.02 14.99a2.499 2.499 0 0 1-1.77 4.27c-.64 0-1.28-.24-1.77-.73l-8.98-8.96Zm8.71 40.55h37.02v-5H26.96zm8.24-19.56h28.79v-5H35.2zm8.18-24.56v5h20.6v-5z"/></symbol><use style="display: var(--s16, none)" href="#s16"/><use style="display: var(--s24, none)" href="#s24"/><use style="display: var(--s32, none)" href="#s32"/><use style="display: var(--s40, none)" href="#s40"/><use style="display: var(--s48, none)" href="#s48"/><use style="display: var(--s64, none)" href="#s64"/></symbol></defs><style>@media (max-width: 23.98px) {g{--s16:block;}}@media (min-width: 24px) and (max-width: 31.98px) {g{--s24:block;}}@media (min-width: 32px) and (max-width: 39.98px) {g{--s32:block;}}@media (min-width: 40px) and (max-width: 47.98px) {g{--s40:block;}}@media (min-width: 48px) and (max-width: 63.98px) {g{--s48:block;}}@media (min-width: 64px) {g{--s64:block;}}</style><g><use href="#i-sortup-solid"/></g></svg>