<svg xmlns="http://www.w3.org/2000/svg"><defs><symbol id="i-sortdown"><symbol id="s16" viewBox="0 0 16 16"><path d="M7.74 9.62c.29.29.29.77 0 1.06l-3.75 3.75-3.76-3.75c-.29-.29-.29-.77 0-1.06s.77-.29 1.06 0l1.94 1.94V1.88h1.5v9.68l1.94-1.94c.29-.29.77-.29 1.06 0ZM7 1.88v1.5h9.01v-1.5zm2 6.27h7v-1.5H9zm2 4.77h5.01v-1.5H11z"/></symbol><symbol id="s24" viewBox="0 0 24 24"><path d="M11.16 14.6c.34.34.34.9 0 1.24l-5.45 5.45-5.45-5.45a.88.88 0 0 1 0-1.24c.34-.34.9-.34 1.24 0l3.34 3.34V3.07h1.75v14.87l3.34-3.34c.34-.34.9-.34 1.24 0ZM10.5 3.07v1.75H24V3.07zm3 8.91H24v-1.75H13.5zm2.99 7.14H24v-1.75h-7.51z"/></symbol><symbol id="s32" viewBox="0 0 32 32"><path d="m13.4 19.65-4.84 4.83V4.1h-2v20.38l-4.84-4.83c-.39-.39-1.03-.39-1.42 0s-.39 1.02 0 1.41l7.26 7.25 7.26-7.25c.39-.39.39-1.02 0-1.41s-1.03-.39-1.42 0m-5.85 5.83h.02ZM32 4.1v2H13.69v-2zm-14.24 9.69H32v2H17.76zm4.05 9.67H32v2H21.81z"/></symbol><symbol id="s40" viewBox="0 0 40 40"><path d="M18.37 24.65c.44.44.44 1.15 0 1.59l-9.02 8.97-9.02-8.96c-.44-.44-.44-1.15 0-1.59s1.16-.44 1.6 0l6.29 6.25V5.25h2.26V30.9l6.29-6.25c.44-.44 1.16-.44 1.6 0m-1.33-19.4V7.5H40V5.25zm5.11 14.36H40v-2.25H22.15zm5.07 12.09H40v-2.25H27.22z"/></symbol><symbol id="s48" viewBox="0 0 48 48"><path d="M21.9 29.71c.49.49.49 1.28 0 1.77L11.13 42.24.37 31.47c-.49-.49-.49-1.28 0-1.77s1.28-.49 1.77 0l7.75 7.75V6.29h2.5v31.16l7.75-7.75a1.25 1.25 0 0 1 1.77 0ZM20.38 6.29v2.5H48v-2.5zm6.15 17.14H48v-2.5H26.53zm6.1 14.6H48v-2.5H32.63z"/></symbol><symbol id="s64" viewBox="0 0 64 64"><path d="M28.83 39.84c.54.54.54 1.41 0 1.95l-14.21 14.2L.4 41.79c-.54-.54-.54-1.41 0-1.95s1.41-.54 1.95 0l10.89 10.88V8.58h2.75v42.15l10.89-10.88c.54-.54 1.41-.54 1.95 0ZM27.01 8.58v2.75H64V8.58zm8.23 22.34H64v-2.75H35.24zm8.18 19.56H64v-2.75H43.42z"/></symbol><use style="display: var(--s16, none)" href="#s16"/><use style="display: var(--s24, none)" href="#s24"/><use style="display: var(--s32, none)" href="#s32"/><use style="display: var(--s40, none)" href="#s40"/><use style="display: var(--s48, none)" href="#s48"/><use style="display: var(--s64, none)" href="#s64"/></symbol></defs><style>@media (max-width: 23.98px) {g{--s16:block;}}@media (min-width: 24px) and (max-width: 31.98px) {g{--s24:block;}}@media (min-width: 32px) and (max-width: 39.98px) {g{--s32:block;}}@media (min-width: 40px) and (max-width: 47.98px) {g{--s40:block;}}@media (min-width: 48px) and (max-width: 63.98px) {g{--s48:block;}}@media (min-width: 64px) {g{--s64:block;}}</style><g><use href="#i-sortdown"/></g></svg>