<svg xmlns="http://www.w3.org/2000/svg"><defs><symbol id="i-sortup"><symbol id="s16" viewBox="0 0 16 16"><path d="M6.68 6.38 4.74 4.44v9.68h-1.5V4.44L1.3 6.38c-.29.29-.77.29-1.06 0s-.29-.77 0-1.06l3.74-3.75 3.75 3.75c.29.29.29.77 0 1.06-.15.15-.34.22-.53.22s-.38-.07-.53-.22ZM7 13.92h9.01v-1.5H7zm2-4.77h7v-1.5H9zm2-6.27v1.5h5.01v-1.5z"/></symbol><symbol id="s24" viewBox="0 0 24 24"><path d="M9.92 9.4 6.58 6.06v14.87H4.83V6.06L1.49 9.4c-.34.34-.9.34-1.24 0a.88.88 0 0 1 0-1.24l5.46-5.45 5.45 5.45a.881.881 0 0 1-.62 1.5c-.22 0-.45-.08-.62-.26m.58 11.53H24v-1.75H10.5zm3-7.15H24v-1.75H13.5zm2.99-8.9v1.75H24V4.88z"/></symbol><symbol id="s32" viewBox="0 0 32 32"><path d="M14.82 12.35a.996.996 0 0 0 0-1.41L7.56 3.69.29 10.93a.996.996 0 0 0 .71 1.7c.26 0 .51-.1.71-.29l4.84-4.83v20.38h2V7.52l4.84 4.83c.39.39 1.03.39 1.42 0ZM7.55 6.52h-.02Zm6.14 19.37H32v2H13.69zm4.07-9.67H32v2H17.76zM32 6.53v2H21.81v-2z"/></symbol><symbol id="s40" viewBox="0 0 40 40"><path d="M17.04 32.5H40v2.25H17.04zm.53-16.82a1.123 1.123 0 0 0 .8-1.92L9.35 4.79.33 13.75c-.44.44-.44 1.15 0 1.59s1.16.44 1.6 0l6.29-6.25v25.65h2.26V9.09l6.29 6.25c.22.22.51.33.8.33Zm4.58 6.98H40v-2.25H22.15zm5.07-14.33v2.25H40V8.33z"/></symbol><symbol id="s48" viewBox="0 0 48 48"><path d="M21.06 18.67c-.32 0-.64-.12-.88-.37l-7.75-7.75v31.16h-2.5V10.56l-7.75 7.75c-.49.49-1.28.49-1.77 0s-.49-1.28 0-1.77L11.17 5.77l10.77 10.76c.49.49.49 1.28 0 1.77-.24.24-.56.37-.88.37m-.66 23.05h27.63v-2.5H20.4zm6.14-14.61h21.49v-2.5H26.54zm6.11-17.13v2.5h15.37v-2.5z"/></symbol><symbol id="s64" viewBox="0 0 64 64"><path d="M26.85 24.15 15.97 13.27v42.15h-2.75V13.27L2.34 24.15c-.27.27-.62.4-.97.4s-.7-.13-.97-.4c-.54-.54-.54-1.41 0-1.95L14.6 8l14.2 14.2c.54.54.54 1.41 0 1.95s-1.41.54-1.95 0m.2 31.27H64v-2.75H27.05zm8.21-22.31v2.75h28.73v-2.75zm28.66-19.6H43.36v2.75h20.56z"/></symbol><use style="display: var(--s16, none)" href="#s16"/><use style="display: var(--s24, none)" href="#s24"/><use style="display: var(--s32, none)" href="#s32"/><use style="display: var(--s40, none)" href="#s40"/><use style="display: var(--s48, none)" href="#s48"/><use style="display: var(--s64, none)" href="#s64"/></symbol></defs><style>@media (max-width: 23.98px) {g{--s16:block;}}@media (min-width: 24px) and (max-width: 31.98px) {g{--s24:block;}}@media (min-width: 32px) and (max-width: 39.98px) {g{--s32:block;}}@media (min-width: 40px) and (max-width: 47.98px) {g{--s40:block;}}@media (min-width: 48px) and (max-width: 63.98px) {g{--s48:block;}}@media (min-width: 64px) {g{--s64:block;}}</style><g><use href="#i-sortup"/></g></svg>