<svg xmlns="http://www.w3.org/2000/svg"><defs><symbol id="i-soundoff"><symbol id="s16" viewBox="0 0 16 16"><path d="M1.8 4.15C.84 4.15.06 4.94.06 5.9v4.21c0 .96.78 1.75 1.74 1.75h1.83l5.12 4.15V0L3.64 4.15H1.81Zm-.25 5.95V5.89c0-.14.11-.25.25-.25h1.5v4.71H1.8c-.14 0-.25-.11-.25-.25m5.71 2.77-2.46-2V5.14l2.46-2zm8.6-2.17c-.15.15-.34.23-.54.23s-.37-.07-.52-.21L12.73 8.7l-1.86 1.8c-.14.14-.33.21-.52.21s-.39-.08-.54-.23c-.29-.3-.28-.77.02-1.06l1.82-1.77-1.78-1.73c-.3-.29-.3-.76-.02-1.06.29-.3.76-.3 1.05-.02l1.82 1.77 2.03-1.98c.3-.29.77-.28 1.05.02.29.3.28.77-.02 1.06l-2 1.94 2.04 1.98c.3.29.3.76.02 1.06Z"/></symbol><symbol id="s24" viewBox="0 0 24 24"><path d="M2.42 6.2C1.11 6.2.05 7.27.05 8.58v6.82c0 1.31 1.06 2.37 2.37 2.37h3.09l7.71 6.22v-24l-7.7 6.22H2.41Zm-.62 9.19V8.57c0-.34.28-.62.62-.62h2.51v8.07H2.42c-.34 0-.62-.28-.62-.62Zm9.68 4.94-4.81-3.87V7.52l4.81-3.88zm12.32-3.48c-.17.18-.4.27-.63.27s-.44-.08-.61-.25l-3.3-3.19-2.97 2.87c-.17.16-.39.25-.61.25-.23 0-.46-.09-.63-.27a.89.89 0 0 1 .02-1.24L18 12.46l-2.87-2.77a.87.87 0 0 1-.02-1.24.86.86 0 0 1 1.23-.02l2.91 2.81 3.24-3.13a.87.87 0 0 1 1.23.02c.33.35.32.9-.02 1.24l-3.2 3.09 3.26 3.15c.35.34.36.89.02 1.24Z"/></symbol><symbol id="s32" viewBox="0 0 32 32"><path d="M3.04 8.29c-1.65 0-2.99 1.34-2.99 3v9.42a3 3 0 0 0 2.99 3h4.35L17.66 32V0L7.4 8.29zm-1 12.42v-9.42c0-.55.45-1 1-1h3.72v11.42H3.04c-.55 0-1-.45-1-1m13.62 7.11-6.91-5.58V9.76l6.91-5.58zm16.11-6.12c-.2.2-.46.31-.72.31s-.5-.09-.69-.28l-4.52-4.37-4.08 3.94c-.19.19-.44.28-.69.28s-.52-.1-.72-.31a.996.996 0 0 1 .03-1.41l4.02-3.89-3.94-3.82a.996.996 0 1 1 1.38-1.44l3.99 3.87 4.43-4.29a.996.996 0 1 1 1.38 1.44l-4.38 4.24 4.46 4.32c.4.38.41 1.02.03 1.41Z"/></symbol><symbol id="s40" viewBox="0 0 40 40"><path d="M3.59 10.36C1.6 10.36-.03 11.99-.03 14v11.99c0 2.01 1.62 3.64 3.62 3.64h5.57l12.8 10.36V0L9.18 10.36zM2.22 26V14.01c0-.76.62-1.38 1.37-1.38h4.86v14.76H3.59c-.76 0-1.37-.62-1.37-1.38Zm17.49 9.28-9.01-7.29V12.03l9.01-7.3zm19.91-9.09a1.135 1.135 0 0 1-.78 1.95c-.3 0-.56-.11-.78-.32l-5.74-5.57-5.07 4.93c-.22.21-.5.32-.78.32s-.59-.12-.81-.35c-.43-.45-.42-1.16.03-1.6l5.02-4.87-5.03-4.88c-.45-.43-.46-1.15-.03-1.6s1.14-.46 1.59-.03l5.08 4.94 5.75-5.59c.45-.43 1.16-.42 1.59.03s.42 1.16-.03 1.6l-5.69 5.53 5.68 5.52Z"/></symbol><symbol id="s48" viewBox="0 0 48 48"><path d="M4.24 12.44A4.25 4.25 0 0 0 0 16.69v14.63c0 2.35 1.9 4.25 4.24 4.25h6.85L26.48 48V0L11.11 12.43H4.23ZM2.49 31.32V16.69c0-.97.78-1.75 1.74-1.75h6.07v18.13H4.23c-.96 0-1.74-.79-1.74-1.75m21.5 11.46L12.8 33.75V14.29l11.19-9.05zm23.62-12.1a1.25 1.25 0 0 1-.87 2.15c-.33 0-.62-.12-.87-.35l-6.95-6.73-6.15 5.95c-.24.23-.55.35-.87.35s-.65-.13-.9-.38c-.48-.5-.46-1.29.03-1.77l6.08-5.89-6.1-5.91a1.25 1.25 0 0 1-.03-1.77c.48-.5 1.27-.51 1.76-.03l6.16 5.97 6.96-6.74c.49-.48 1.29-.47 1.76.03.48.5.46 1.29-.03 1.77l-6.9 6.68 6.88 6.67Z"/></symbol><symbol id="s64" viewBox="0 0 64 64"><path d="M4.92 16.51c-2.69 0-4.88 2.19-4.88 4.88v21.1c0 2.69 2.19 4.88 4.88 4.88h10.07l20.59 16.57v-64L15.02 16.51zM2.79 42.49v-21.1c0-1.17.95-2.13 2.13-2.13h9.22v25.36H4.92c-1.17 0-2.13-.95-2.13-2.13M32.83 58.2 16.88 45.37V18.55L32.83 5.7v52.51ZM63.6 41.05c.55.53.56 1.4.03 1.94-.27.28-.63.42-.99.42s-.69-.13-.96-.39l-9.49-9.16-8.42 8.13c-.27.26-.61.39-.96.39s-.72-.14-.99-.42c-.53-.55-.51-1.42.03-1.94l8.35-8.06-8.37-8.08c-.55-.53-.56-1.4-.03-1.94.53-.55 1.4-.56 1.94-.03l8.44 8.15 9.51-9.18a1.373 1.373 0 0 1 1.91 1.97l-9.44 9.11 9.42 9.09Z"/></symbol><use style="display: var(--s16, none)" href="#s16"/><use style="display: var(--s24, none)" href="#s24"/><use style="display: var(--s32, none)" href="#s32"/><use style="display: var(--s40, none)" href="#s40"/><use style="display: var(--s48, none)" href="#s48"/><use style="display: var(--s64, none)" href="#s64"/></symbol></defs><style>@media (max-width: 23.98px) {g{--s16:block;}}@media (min-width: 24px) and (max-width: 31.98px) {g{--s24:block;}}@media (min-width: 32px) and (max-width: 39.98px) {g{--s32:block;}}@media (min-width: 40px) and (max-width: 47.98px) {g{--s40:block;}}@media (min-width: 48px) and (max-width: 63.98px) {g{--s48:block;}}@media (min-width: 64px) {g{--s64:block;}}</style><g><use href="#i-soundoff"/></g></svg>