<svg xmlns="http://www.w3.org/2000/svg"><defs><symbol id="i-soundon"><symbol id="s16" viewBox="0 0 16 16"><path d="M1.75 4.15C.78 4.15 0 4.93 0 5.9v4.21c0 .96.79 1.75 1.75 1.75h1.84l5.16 4.15V0L3.6 4.15zM1.5 10.1V5.89c0-.14.11-.25.25-.25h1.51v4.71H1.75c-.14 0-.25-.11-.25-.25m5.75 2.77-2.49-2V5.14l2.49-2zm2.73-1.68v-1.5c.78 0 1.42-.64 1.42-1.42s-.64-1.42-1.42-1.42v-1.5c1.61 0 2.92 1.31 2.92 2.92s-1.31 2.92-2.92 2.92M16 8.27c0 3.31-2.7 6-6.01 6v-1.5c2.49 0 4.51-2.02 4.51-4.5s-2.02-4.5-4.51-4.5v-1.5c3.32 0 6.01 2.69 6.01 6"/></symbol><symbol id="s24" viewBox="0 0 24 24"><path d="M2.38 6.2A2.38 2.38 0 0 0 0 8.58v6.82c0 1.31 1.07 2.37 2.38 2.37h3.11l7.75 6.22v-24L5.51 6.21H2.39Zm-.63 9.19V8.57c0-.34.28-.62.63-.62H4.9v8.07H2.38c-.35 0-.63-.28-.63-.62Zm9.73 4.94-4.83-3.87V7.52l4.83-3.88zm3.56-3.71v-1.75c1.35 0 2.46-1.1 2.46-2.45s-1.1-2.45-2.46-2.45V8.22c2.32 0 4.21 1.88 4.21 4.2s-1.89 4.2-4.21 4.2m8.96-4.2c0 4.92-4.02 8.93-8.95 8.93V19.6c3.97 0 7.2-3.22 7.2-7.18s-3.23-7.18-7.2-7.18V3.49c4.94 0 8.95 4 8.95 8.93"/></symbol><symbol id="s32" viewBox="0 0 32 32"><path d="M3 8.29c-1.66 0-3 1.34-3 3v9.42c0 1.65 1.35 3 3 3h4.36L17.67 32V0L7.38 8.29zM2 20.71v-9.42c0-.55.45-1 1-1h3.73v11.42H3c-.55 0-1-.45-1-1m13.66 7.11-6.93-5.58V9.76l6.93-5.58zm4.45-5.76v-2c1.93 0 3.49-1.57 3.49-3.49s-1.57-3.49-3.49-3.49v-2c3.03 0 5.5 2.46 5.5 5.49s-2.47 5.49-5.5 5.49m11.88-5.49c0 6.55-5.33 11.88-11.89 11.88v-2c5.45 0 9.89-4.43 9.89-9.88s-4.43-9.88-9.89-9.88v-2c6.56 0 11.89 5.33 11.89 11.88"/></symbol><symbol id="s40" viewBox="0 0 40 40"><path d="M3.61 10.36C1.61 10.36 0 11.99 0 14v11.99c0 2.01 1.62 3.64 3.62 3.64h5.56l12.79 10.36V0L9.21 10.36zM2.24 26V14.01c0-.76.62-1.38 1.37-1.38h4.86v14.76H3.61c-.76 0-1.37-.62-1.37-1.38Zm17.47 9.28-9-7.29V12.03l9-7.3zm5.46-7.74v-2.26c2.5 0 4.53-2.05 4.53-4.57s-2.03-4.56-4.53-4.56v-2.26c3.74 0 6.78 3.06 6.78 6.83s-3.04 6.83-6.78 6.83Zm14.82-6.82c0 8.23-6.65 14.93-14.83 14.93v-2.26c6.94 0 12.58-5.68 12.58-12.67S32.1 8.05 25.16 8.05V5.79c8.17 0 14.83 6.7 14.83 14.93"/></symbol><symbol id="s48" viewBox="0 0 48 48"><path d="M4.15 12.44c-2.34 0-4.25 1.9-4.25 4.25v14.63c0 2.35 1.9 4.25 4.24 4.25H11L26.42 48V0L11.03 12.43H4.14ZM2.4 31.32V16.69c0-.97.78-1.75 1.75-1.75h6.08v18.13H4.15c-.96 0-1.75-.79-1.75-1.75m21.53 11.46-11.2-9.03V14.29l11.2-9.05zm6.27-9.86v-2.5c3.06 0 5.54-2.49 5.54-5.56s-2.49-5.55-5.54-5.55v-2.5c4.43 0 8.04 3.61 8.04 8.06s-3.61 8.06-8.04 8.06Zm17.7-8.06c0 9.78-7.94 17.74-17.7 17.74v-2.5c8.38 0 15.2-6.84 15.2-15.24S38.58 9.62 30.2 9.62v-2.5c9.76 0 17.7 7.96 17.7 17.74"/></symbol><symbol id="s64" viewBox="0 0 64 64"><path d="M4.9 16.51c-2.69 0-4.88 2.19-4.88 4.88v21.1c0 2.69 2.19 4.88 4.88 4.88h10.07l20.61 16.57v-64L15.01 16.51zM2.77 42.49v-21.1c0-1.17.95-2.13 2.13-2.13h9.22v25.36H4.9c-1.17 0-2.13-.95-2.13-2.13M32.83 58.2 16.87 45.37V18.55L32.83 5.7v52.51Zm7.65-14.53v-2.75c4.29 0 7.77-3.49 7.77-7.77s-3.49-7.77-7.77-7.77v-2.75c5.8 0 10.53 4.72 10.53 10.52s-4.72 10.52-10.53 10.52m23.54-10.52c0 12.97-10.56 23.53-23.54 23.53v-2.75c11.46 0 20.79-9.32 20.79-20.78s-9.33-20.78-20.79-20.78V9.62c12.98 0 23.54 10.55 23.54 23.53"/></symbol><use style="display: var(--s16, none)" href="#s16"/><use style="display: var(--s24, none)" href="#s24"/><use style="display: var(--s32, none)" href="#s32"/><use style="display: var(--s40, none)" href="#s40"/><use style="display: var(--s48, none)" href="#s48"/><use style="display: var(--s64, none)" href="#s64"/></symbol></defs><style>@media (max-width: 23.98px) {g{--s16:block;}}@media (min-width: 24px) and (max-width: 31.98px) {g{--s24:block;}}@media (min-width: 32px) and (max-width: 39.98px) {g{--s32:block;}}@media (min-width: 40px) and (max-width: 47.98px) {g{--s40:block;}}@media (min-width: 48px) and (max-width: 63.98px) {g{--s48:block;}}@media (min-width: 64px) {g{--s64:block;}}</style><g><use href="#i-soundon"/></g></svg>