<svg xmlns="http://www.w3.org/2000/svg"><defs><symbol id="i-soundlow"><symbol id="s16" viewBox="0 0 16 16"><path d="M9.69 8.27c0 .71-.38 1.33-.95 1.67v6.05l-5.16-4.15H1.74C.78 11.85 0 11.07 0 10.1V5.89c0-.96.79-1.75 1.75-1.75H3.6L8.75 0v6.6c.57.35.95.96.95 1.67Zm-7.95 2.08h1.51V5.64H1.74c-.14 0-.25.11-.25.25v4.21c0 .14.11.25.25.25m5.5-7.21-2.49 2v5.73l2.49 2z"/></symbol><symbol id="s24" viewBox="0 0 24 24"><path d="M14.91 12.42c0 1.07-.71 1.96-1.69 2.26v9.31l-7.75-6.22H2.36C1.06 17.77 0 16.7 0 15.39V8.57C0 7.27 1.06 6.2 2.37 6.2h3.12l7.74-6.21v10.18c.97.3 1.69 1.19 1.69 2.26Zm-12.54 3.6h2.52V7.95H2.37c-.35 0-.63.28-.63.62v6.82c0 .34.28.62.63.62Zm9.1-12.38L6.64 7.52v8.94l4.83 3.87z"/></symbol><symbol id="s32" viewBox="0 0 32 32"><path d="M19.64 16.57c0 1.22-.84 2.25-1.98 2.54V32L7.35 23.71H2.99c-1.65 0-3-1.34-3-3v-9.42c0-1.65 1.35-3 3-3h4.38L17.66 0v14.02c1.13.3 1.98 1.32 1.98 2.54ZM2.99 21.71h3.73V10.29H2.99c-.55 0-1 .45-1 1v9.42c0 .55.45 1 1 1M15.66 4.18 8.73 9.76v12.48l6.93 5.58z"/></symbol><symbol id="s40" viewBox="0 0 40 40"><path d="M24.15 20.72c0 1.37-.94 2.51-2.19 2.84v16.45L9.17 29.65H3.61c-2-.01-3.62-1.64-3.62-3.65V14.01c0-2.01 1.62-3.64 3.62-3.64h5.58L21.95 0v17.88c1.26.33 2.19 1.47 2.19 2.84ZM3.61 27.38h4.86V12.62H3.61c-.76 0-1.37.62-1.37 1.38v11.99c0 .76.62 1.38 1.37 1.38Zm16.1-22.65-9 7.3v15.96l9 7.29z"/></symbol><symbol id="s48" viewBox="0 0 48 48"><path d="M28.89 24.86c0 1.73-1.01 3.21-2.47 3.92V48L11 35.57H4.14A4.25 4.25 0 0 1-.1 31.32V16.69c0-2.35 1.9-4.25 4.24-4.25h6.89L26.42 0v20.94c1.45.71 2.47 2.19 2.47 3.92M4.14 33.07h6.08V14.94H4.14c-.96 0-1.75.79-1.75 1.75v14.63c0 .97.78 1.75 1.75 1.75M23.92 5.24l-11.2 9.05v19.46l11.2 9.03z"/></symbol><symbol id="s64" viewBox="0 0 64 64"><path d="M39.78 33.15a5.76 5.76 0 0 1-4.2 5.54v25.25L14.97 47.37H4.89c-2.69 0-4.87-2.19-4.87-4.88v-21.1c0-2.69 2.19-4.88 4.88-4.88h10.11L35.58-.06V27.6c2.42.68 4.2 2.91 4.2 5.54ZM4.89 44.62h9.22V19.26H4.89c-1.17 0-2.13.95-2.13 2.13v21.1c0 1.17.95 2.13 2.13 2.13M32.82 5.69 16.86 18.54v26.82l15.96 12.83zm4.21 27.46c0-1.09-.58-2.03-1.45-2.56v5.13c.87-.53 1.45-1.48 1.45-2.56Z"/></symbol><use style="display: var(--s16, none)" href="#s16"/><use style="display: var(--s24, none)" href="#s24"/><use style="display: var(--s32, none)" href="#s32"/><use style="display: var(--s40, none)" href="#s40"/><use style="display: var(--s48, none)" href="#s48"/><use style="display: var(--s64, none)" href="#s64"/></symbol></defs><style>@media (max-width: 23.98px) {g{--s16:block;}}@media (min-width: 24px) and (max-width: 31.98px) {g{--s24:block;}}@media (min-width: 32px) and (max-width: 39.98px) {g{--s32:block;}}@media (min-width: 40px) and (max-width: 47.98px) {g{--s40:block;}}@media (min-width: 48px) and (max-width: 63.98px) {g{--s48:block;}}@media (min-width: 64px) {g{--s64:block;}}</style><g><use href="#i-soundlow"/></g></svg>