<svg xmlns="http://www.w3.org/2000/svg"><defs><symbol id="i-speechtotext-solid"><symbol id="s16" viewBox="0 0 16 16"><path d="M3.61 11.32c-.83 0-1.5-.67-1.5-1.5v-3.5c0-.83.67-1.5 1.5-1.5s1.5.67 1.5 1.5v3.5c0 .83-.67 1.5-1.5 1.5m0-1.5v.75zm0 3.97c-1.98 0-3.58-1.61-3.58-3.59V9.07c0-.41.34-.75.75-.75s.75.34.75.75v1.13c0 1.15.94 2.09 2.09 2.09s2.09-.94 2.09-2.09V9.07c0-.41.34-.75.75-.75s.75.34.75.75v1.13c0 1.98-1.61 3.59-3.59 3.59Zm-.75-1h1.5v3.2h-1.5zm-1.7 1.7h4.9v1.5h-4.9zm8.29-6.77 1.4 1.56 1.4-1.56h2.17c.45 0 .82-.37.82-.82V1.59c0-.45-.37-.82-.82-.82h-6.3c-.45 0-.82.37-.82.82V6.9c0 .45.37.82.82.82h1.32Zm1.4 2.68L9.11 8.47h-.98c-.87 0-1.57-.71-1.57-1.57V1.59c0-.87.7-1.57 1.57-1.57h6.3c.87 0 1.57.7 1.57 1.57V6.9c0 .87-.71 1.57-1.57 1.57h-1.84zM8.13 1.52 8.06 6.9s.03.07.07.07h1.65l1.07 1.19 1.07-1.19h2.51s.07-.03.07-.07V1.59s-.03-.07-.07-.07zm4.47 1.95H9.45c-.41 0-.75-.34-.75-.75s.34-.75.75-.75h3.15c.41 0 .75.34.75.75s-.34.75-.75.75m-1.5 2.85H9.45c-.41 0-.75-.34-.75-.75s.34-.75.75-.75h1.65c.41 0 .75.34.75.75s-.34.75-.75.75"/></symbol><symbol id="s24" viewBox="0 0 24 24"><path d="M6.19 15.82c-1.24 0-2.25-1.01-2.25-2.25v-5.5c0-1.24 1.01-2.25 2.25-2.25s2.25 1.01 2.25 2.25v5.5c0 1.24-1.01 2.25-2.25 2.25m.01 4.47c-3.42 0-6.2-2.78-6.2-6.2v-1.41c0-.83.67-1.5 1.5-1.5s1.5.67 1.5 1.5v1.41c0 1.76 1.43 3.19 3.19 3.19s3.19-1.43 3.19-3.19v-1.41c0-.83.67-1.5 1.5-1.5s1.5.67 1.5 1.5v1.41c0 3.42-2.78 6.19-6.19 6.19Zm-1.51-1.76h3v5.46h-3zm-2.46 2.46h7.92v3H2.23zm12.45-10.97 1.66 2.4 1.66-2.4h3.84c.7 0 1.26-.56 1.26-1.26V2.11c0-.7-.56-1.26-1.26-1.26h-9.68c-.7 0-1.26.56-1.26 1.26v6.65c0 .7.56 1.26 1.26 1.26h2.53Zm1.65 3.93-2.12-3.06h-2.07c-1.18 0-2.14-.96-2.14-2.14V2.11c.01-1.18.97-2.14 2.15-2.14h9.68c1.18 0 2.14.96 2.14 2.14v6.65c0 1.18-.96 2.14-2.14 2.14h-3.39l-2.12 3.06ZM12.15 1.72a.39.39 0 0 0-.39.39v6.65c0 .21.17.39.39.39h2.99l1.2 1.73 1.2-1.73h4.3c.21 0 .39-.17.39-.39V2.11a.39.39 0 0 0-.39-.39h-9.68Zm6.91 2.84h-4.84c-.48 0-.88-.39-.88-.88s.39-.88.88-.88h4.84c.48 0 .88.39.88.88s-.39.88-.88.88m-2.31 3.27h-2.54c-.48 0-.88-.39-.88-.88s.39-.88.88-.88h2.54c.48 0 .88.39.88.88s-.39.88-.88.88"/></symbol><symbol id="s32" viewBox="0 0 32 32"><path d="M8.18 21.63c-1.65 0-3-1.35-3-3v-7.5c0-1.65 1.35-3 3-3s3 1.35 3 3v7.5c0 1.65-1.35 3-3 3m0 5.8c-4.5 0-8.16-3.67-8.16-8.17v-2.57c0-.97.78-1.75 1.75-1.75s1.75.78 1.75 1.75v2.57a4.67 4.67 0 1 0 9.34 0v-2.57c0-.97.78-1.75 1.75-1.75s1.75.78 1.75 1.75v2.57c0 4.5-3.66 8.17-8.17 8.17Zm-1.75-2.47h3.5v7.03h-3.5zm-3.52 3.53h10.55v3.5H2.91zm17.18-15.72 2.17 2.92 2.17-2.92h5.03c.85 0 1.54-.69 1.54-1.54V2.54C31 1.69 30.31 1 29.46 1H17.17c-.85 0-1.54.69-1.54 1.54v8.7c0 .85.69 1.54 1.54 1.54h2.92Zm2.17 4.59-2.67-3.59h-2.42c-1.4 0-2.54-1.14-2.54-2.54V2.54C14.64 1.14 15.78 0 17.17 0h12.29C30.86 0 32 1.14 32 2.54v8.7c0 1.4-1.14 2.54-2.54 2.54h-4.53l-2.67 3.59ZM17.17 2c-.3 0-.54.24-.54.54v8.7c0 .3.24.54.54.54h3.42l1.67 2.24 1.67-2.24h5.53c.3 0 .54-.24.54-.54v-8.7c0-.29-.24-.54-.54-.54zm9.39 3.52h-6.7c-.55 0-1-.45-1-1s.45-1 1-1h6.7c.55 0 1 .45 1 1s-.45 1-1 1m-2.81 3.82h-3.89c-.55 0-1-.45-1-1s.45-1 1-1h3.89c.55 0 1 .45 1 1s-.45 1-1 1"/></symbol><symbol id="s40" viewBox="0 0 40 40"><rect width="4.5" height="15" x="8.02" y="10.93" rx="2.25" ry="2.25"/><path d="M10.27 27.93a4.26 4.26 0 0 1-4.25-4.25v-10.5c0-2.34 1.91-4.25 4.25-4.25s4.25 1.91 4.25 4.25v10.5a4.26 4.26 0 0 1-4.25 4.25m0-15c-.14 0-.25.11-.25.25v10.5c0 .28.5.28.5 0v-10.5c0-.14-.11-.25-.25-.25m0 21.27C4.63 34.2.03 29.61.03 23.96v-2.79c0-1.1.9-2 2-2s2 .9 2 2v2.79c0 3.44 2.8 6.24 6.24 6.24s6.24-2.8 6.24-6.24v-2.79c0-1.1.9-2 2-2s2 .9 2 2v2.79c0 5.65-4.59 10.24-10.24 10.24m-2-4h4v9.74h-4zm-4.43 5.74h12.87v4H3.84zm20.57-19.27 2.88 3.86 2.88-3.86h6.66c1.12 0 2.04-.91 2.04-2.04V3.11c0-1.12-.91-2.04-2.04-2.04H20.54c-1.12 0-2.04.91-2.04 2.04v11.53c0 1.12.91 2.04 2.04 2.04h3.87Zm2.88 5.75-3.44-4.62h-3.3c-1.74 0-3.16-1.42-3.16-3.16V3.11c0-1.74 1.42-3.16 3.16-3.16h16.29C38.58-.05 40 1.37 40 3.11v11.53c0 1.74-1.42 3.16-3.16 3.16h-6.1l-3.44 4.62ZM20.55 2.2c-.5 0-.91.41-.91.91v11.53c0 .5.41.91.91.91h4.43l2.31 3.11 2.32-3.11h7.23c.5 0 .91-.41.91-.91V3.11c0-.5-.41-.91-.91-.91zm12.43 5.38H24.1c-.62 0-1.12-.5-1.12-1.12s.5-1.12 1.12-1.12h8.88c.62 0 1.12.5 1.12 1.12s-.5 1.12-1.12 1.12m-3.72 4.65H24.1c-.62 0-1.12-.5-1.12-1.12s.5-1.12 1.12-1.12h5.16c.62 0 1.12.5 1.12 1.12s-.5 1.12-1.12 1.12"/></symbol><symbol id="s48" viewBox="0 0 48 48"><rect width="4.5" height="16" x="8.91" y="15.2" rx="2.25" ry="2.25"/><path d="M11.16 33.45c-2.48 0-4.5-2.02-4.5-4.5v-11.5c0-2.48 2.02-4.5 4.5-4.5s4.5 2.02 4.5 4.5v11.5c0 2.48-2.02 4.5-4.5 4.5m0-16v11.5zm0 23.62C5 41.07 0 36.06 0 29.91v-3.57c0-1.24 1.01-2.25 2.25-2.25S4.5 25.1 4.5 26.34v3.57a6.66 6.66 0 0 0 13.33 0v-3.57c0-1.24 1.01-2.25 2.25-2.25s2.25 1.01 2.25 2.25v3.57c0 6.16-5.01 11.16-11.16 11.16Zm-2.25-4.5h4.5v11.42h-4.5zm-5.35 6.92h15.2v4.5H3.56zm24.87-22.47 3.65 4.89 3.65-4.89h8.44a2.58 2.58 0 0 0 2.58-2.58V3.84a2.58 2.58 0 0 0-2.58-2.58H23.54a2.58 2.58 0 0 0-2.58 2.58v14.6a2.58 2.58 0 0 0 2.58 2.58h4.9Zm3.64 6.99-4.27-5.74h-4.27c-2.11 0-3.83-1.72-3.83-3.83V3.84c0-2.11 1.72-3.82 3.83-3.82h20.63c2.11 0 3.83 1.72 3.83 3.83v14.6c0 2.11-1.72 3.83-3.83 3.83h-7.81l-4.27 5.74ZM23.53 2.52c-.73 0-1.33.6-1.33 1.33v14.6c0 .73.6 1.33 1.33 1.33h5.52l3.02 4.05 3.02-4.05h9.07c.73 0 1.33-.6 1.33-1.33V3.84c0-.73-.6-1.33-1.33-1.33H23.53Zm15.75 6.81H28.03a1.25 1.25 0 0 1 0-2.5h11.25a1.25 1.25 0 0 1 0 2.5m-4.71 5.39h-6.53a1.25 1.25 0 0 1 0-2.5h6.53a1.25 1.25 0 0 1 0 2.5"/></symbol><symbol id="s64" viewBox="0 0 64 64"><rect width="8" height="24.34" x="10.5" y="19.02" rx="4" ry="4"/><path d="M14.5 45.85c-3.58 0-6.5-2.92-6.5-6.5V23.01c0-3.58 2.92-6.5 6.5-6.5s6.5 2.92 6.5 6.5v16.34c0 3.58-2.92 6.5-6.5 6.5m0-24.33c-.83 0-1.5.67-1.5 1.5v16.34c0 .83.67 1.5 1.5 1.5s1.5-.67 1.5-1.5V23.02c0-.83-.67-1.5-1.5-1.5m0 33.18C6.51 54.7.01 48.2.01 40.21v-4.8a2.5 2.5 0 0 1 5 0v4.8c0 5.23 4.26 9.49 9.49 9.49s9.49-4.26 9.49-9.49v-4.8a2.5 2.5 0 0 1 5 0v4.8c0 7.99-6.5 14.49-14.49 14.49m-2.5-5h5v14.31h-5zm-7.19 9.31H24.2v5H4.81zm33.17-31.05 4.91 6.58 4.91-6.58h11.35c1.92 0 3.47-1.55 3.47-3.47V4.86c0-1.92-1.55-3.47-3.47-3.47H31.4c-1.92 0-3.47 1.55-3.47 3.47V24.5c0 1.92 1.55 3.47 3.47 3.47h6.59Zm4.9 8.88-5.6-7.51h-5.9c-2.67 0-4.84-2.17-4.84-4.84V4.86c.01-2.67 2.18-4.85 4.85-4.85h27.75c2.67 0 4.84 2.17 4.84 4.84v19.64c0 2.67-2.17 4.84-4.84 4.84H48.48zM31.39 2.76c-1.15 0-2.09.94-2.09 2.09v19.64c0 1.15.94 2.09 2.09 2.09h7.28l4.22 5.66 4.22-5.66h12.04c1.15 0 2.09-.94 2.09-2.09V4.86c0-1.15-.94-2.09-2.09-2.09H31.4Zm21.19 8.66H36.45c-.83 0-1.5-.67-1.5-1.5s.67-1.5 1.5-1.5h16.13c.83 0 1.5.67 1.5 1.5s-.67 1.5-1.5 1.5m-6.34 8.38h-9.79c-.83 0-1.5-.67-1.5-1.5s.67-1.5 1.5-1.5h9.79c.83 0 1.5.67 1.5 1.5s-.67 1.5-1.5 1.5"/></symbol><use style="display: var(--s16, none)" href="#s16"/><use style="display: var(--s24, none)" href="#s24"/><use style="display: var(--s32, none)" href="#s32"/><use style="display: var(--s40, none)" href="#s40"/><use style="display: var(--s48, none)" href="#s48"/><use style="display: var(--s64, none)" href="#s64"/></symbol></defs><style>@media (max-width: 23.98px) {g{--s16:block;}}@media (min-width: 24px) and (max-width: 31.98px) {g{--s24:block;}}@media (min-width: 32px) and (max-width: 39.98px) {g{--s32:block;}}@media (min-width: 40px) and (max-width: 47.98px) {g{--s40:block;}}@media (min-width: 48px) and (max-width: 63.98px) {g{--s48:block;}}@media (min-width: 64px) {g{--s64:block;}}</style><g><use href="#i-speechtotext-solid"/></g></svg>