<svg xmlns="http://www.w3.org/2000/svg"><defs><symbol id="i-speechtotext"><symbol id="s16" viewBox="0 0 16 16"><path d="M3.6 11.32c.83 0 1.5-.67 1.5-1.5V6.31c0-.83-.67-1.5-1.5-1.5s-1.5.67-1.5 1.5v3.51c0 .83.67 1.5 1.5 1.5m0-1.5v.75zm3.6-.75v1.14c0 1.72-1.22 3.16-2.84 3.51v.79h1.71v1.5H1.15v-1.5h1.71v-.79a3.6 3.6 0 0 1-2.85-3.51V9.07c0-.41.34-.75.75-.75s.75.34.75.75v1.14c0 1.15.94 2.09 2.09 2.09s2.09-.94 2.09-2.09V9.07c0-.41.34-.75.75-.75s.75.34.75.75ZM14.44 0H8.13c-.87 0-1.57.71-1.57 1.57v5.32c0 .87.71 1.57 1.57 1.57h.99l1.74 1.93 1.74-1.93h1.84c.87 0 1.57-.71 1.57-1.57V1.58c0-.87-.7-1.58-1.57-1.58m.07 6.9s-.03.07-.07.07h-2.51l-1.07 1.19-1.07-1.19H8.14s-.07-.03-.07-.07l.07-5.39h6.31s.07.03.07.07V6.9Zm-.88-3.97c0 .41-.34.75-.75.75H9.73c-.41 0-.75-.34-.75-.75s.34-.75.75-.75h3.15c.41 0 .75.34.75.75m-1.5 2.43c0 .41-.34.75-.75.75H9.73c-.41 0-.75-.34-.75-.75s.34-.75.75-.75h1.65c.41 0 .75.34.75.75"/></symbol><symbol id="s24" viewBox="0 0 24 24"><path d="M5.2 16.95h.08c1.31 0 2.38-1.06 2.38-2.37v-5c0-1.31-1.07-2.37-2.45-2.37-1.31 0-2.38 1.06-2.38 2.37v5c0 1.31 1.07 2.37 2.38 2.37Zm-.63-7.37c0-.34.28-.62.7-.62.35 0 .63.28.63.62v1.62H4.57zm1.33 3.37v1.62c0 .34-.28.62-.63.62h-.08c-.35 0-.63-.28-.63-.62v-1.62h1.33Zm4.58.66v1.74c0 2.59-1.89 4.73-4.37 5.15v1.72h2.62v1.75H1.74v-1.75h2.62V20.5A5.215 5.215 0 0 1 0 15.36v-1.74c0-.48.39-.87.88-.87s.88.39.88.87v1.74c0 1.92 1.57 3.49 3.49 3.49s3.49-1.56 3.49-3.49v-1.74c0-.48.39-.87.88-.87s.88.39.88.87ZM21.85-.02h-9.7c-1.18 0-2.14.96-2.14 2.14v7.14c0 1.18.96 2.14 2.14 2.14h1.64l2.55 2.83 2.55-2.83h2.96c1.18 0 2.14-.96 2.14-2.14V2.12c0-1.18-.96-2.14-2.14-2.14m.39 9.28c0 .21-.17.39-.39.39h-3.74l-1.77 1.96-1.77-1.96h-2.42a.39.39 0 0 1-.39-.39V2.12c0-.21.17-.39.39-.39h9.7c.21 0 .39.17.39.39zm-1.91-5.07c0 .48-.39.87-.88.87H14.6c-.48 0-.88-.39-.88-.87s.39-.87.88-.87h4.85c.48 0 .88.39.88.87m-2.31 2.88c0 .48-.39.87-.88.87H14.6c-.48 0-.88-.39-.88-.87s.39-.87.88-.87h2.54c.48 0 .88.39.88.87"/></symbol><symbol id="s32" viewBox="0 0 32 32"><path d="M6.87 22.87c1.79 0 3.25-1.46 3.25-3.25v-7.01c0-1.79-1.46-3.25-3.25-3.25s-3.25 1.46-3.25 3.25v7.01c0 1.79 1.46 3.25 3.25 3.25m0-2c-.69 0-1.25-.56-1.25-1.25v-2.5h2.5v2.5c0 .69-.56 1.25-1.25 1.25m0-9.51c.69 0 1.25.56 1.25 1.25v2.5h-2.5v-2.5c0-.69.56-1.25 1.25-1.25m6.87 6.83v2.35c0 3.45-2.56 6.31-5.87 6.8v2.64h3.52v2H2.35v-2h3.52v-2.64A6.87 6.87 0 0 1 0 20.54v-2.35c0-.55.45-1 1-1s1 .45 1 1v2.35c0 2.69 2.19 4.88 4.87 4.88s4.87-2.19 4.87-4.88v-2.35c0-.55.45-1 1-1s1 .45 1 1M29.3-.01H15.71c-1.49 0-2.7 1.21-2.7 2.7v9.63c0 1.49 1.21 2.7 2.7 2.7h2.72l2.9 3.9 2.91-3.9h5.06c1.49 0 2.7-1.21 2.7-2.7V2.69c0-1.49-1.21-2.7-2.7-2.7m.7 12.33c0 .39-.31.7-.7.7h-6.06l-1.9 2.55-1.9-2.55h-3.73c-.39 0-.7-.31-.7-.7V2.69c0-.39.31-.7.7-.7H29.3c.39 0 .7.31.7.7zm-2.92-6.84c0 .55-.45 1-1 1h-7.41c-.55 0-1-.45-1-1s.45-1 1-1h7.41c.55 0 1 .45 1 1m-3.1 3.89c0 .55-.45 1-1 1h-4.3c-.55 0-1-.45-1-1s.45-1 1-1h4.3c.55 0 1 .45 1 1"/></symbol><symbol id="s40" viewBox="0 0 40 40"><path d="M8.51 28.78c2.41 0 4.38-1.97 4.38-4.38v-8.51c0-2.41-1.96-4.38-4.38-4.38s-4.38 1.97-4.38 4.38v8.51c0 2.41 1.96 4.38 4.38 4.38M6.38 15.89c0-1.17.95-2.13 2.13-2.13s2.13.95 2.13 2.13v3.13H6.39v-3.13Zm4.25 5.39v3.13c0 1.17-.95 2.13-2.13 2.13s-2.13-.95-2.13-2.13v-3.13h4.25Zm6.4 1.48v2.96c0 4.32-3.23 7.89-7.39 8.44v3.57h4.43v2.25H2.95v-2.25h4.43v-3.57C3.22 33.6 0 30.04 0 25.72v-2.96c0-.62.5-1.13 1.13-1.13s1.13.5 1.13 1.13v2.96c0 3.46 2.81 6.27 6.26 6.27s6.27-2.81 6.27-6.27v-2.96c0-.62.5-1.13 1.13-1.13s1.13.5 1.13 1.13ZM36.73-.01h-17.1a3.27 3.27 0 0 0-3.26 3.27v12.12c0 1.8 1.46 3.27 3.26 3.27h3.5l3.59 4.82 3.59-4.82h6.43c1.8 0 3.26-1.47 3.26-3.27V3.25a3.276 3.276 0 0 0-3.27-3.26m1.01 15.38c0 .56-.45 1.01-1.01 1.01h-7.56l-2.46 3.3-2.46-3.3h-4.63c-.56 0-1.01-.45-1.01-1.01V3.25c0-.56.45-1.01 1.01-1.01h17.1c.56 0 1.01.45 1.01 1.01v12.12Zm-3.93-8.6c0 .62-.5 1.13-1.13 1.13h-9.32c-.62 0-1.13-.5-1.13-1.13s.5-1.13 1.13-1.13h9.32c.62 0 1.13.5 1.13 1.13m-3.91 4.88c0 .62-.5 1.13-1.13 1.13h-5.42c-.62 0-1.13-.5-1.13-1.13s.5-1.13 1.13-1.13h5.42c.62 0 1.13.5 1.13 1.13"/></symbol><symbol id="s48" viewBox="0 0 48 48"><path d="M10.15 34.54c2.85 0 5.17-2.32 5.17-5.17V19.12c0-2.85-2.32-5.17-5.17-5.17s-5.17 2.32-5.17 5.17v10.25c0 2.85 2.32 5.17 5.17 5.17M7.48 19.12c0-1.47 1.2-2.67 2.67-2.67s2.67 1.2 2.67 2.67v3.87H7.48zm5.34 6.37v3.88c0 1.47-1.2 2.67-2.67 2.67s-2.67-1.2-2.67-2.67v-3.88zm7.5 1.89v3.57c0 5.18-3.9 9.46-8.92 10.08v4.5h5.35v2.5H3.55v-2.5H8.9v-4.5c-5.01-.62-8.91-4.9-8.91-10.08v-3.57a1.25 1.25 0 0 1 2.5 0v3.57c0 4.22 3.44 7.66 7.66 7.66s7.67-3.44 7.67-7.66v-3.57a1.25 1.25 0 0 1 2.5 0M44.16.03H23.53c-2.11 0-3.83 1.72-3.83 3.83v14.59c0 2.11 1.72 3.83 3.83 3.83h4.27l4.27 5.73 4.27-5.73h7.81c2.11 0 3.83-1.72 3.83-3.83V3.86c0-2.11-1.72-3.83-3.83-3.83Zm1.33 18.42c0 .73-.6 1.33-1.33 1.33h-9.07l-3.02 4.05-3.02-4.05h-5.52c-.73 0-1.33-.6-1.33-1.33V3.86c0-.73.6-1.33 1.33-1.33h20.63c.73 0 1.33.6 1.33 1.33zM40.53 8.09c0 .69-.56 1.25-1.25 1.25H28.03a1.25 1.25 0 0 1 0-2.5h11.25c.69 0 1.25.56 1.25 1.25m-4.71 5.39c0 .69-.56 1.25-1.25 1.25h-6.53a1.25 1.25 0 0 1 0-2.5h6.53c.69 0 1.25.56 1.25 1.25"/></symbol><symbol id="s64" viewBox="0 0 64 64"><path d="M13.38 45.84c3.67 0 6.65-2.98 6.65-6.65v-13.8c0-3.67-2.98-6.65-6.65-6.65s-6.65 2.98-6.65 6.65v13.8c0 3.67 2.98 6.65 6.65 6.65m-3.9-20.45c0-2.15 1.75-3.9 3.9-3.9s3.9 1.75 3.9 3.9v5.52h-7.8zm7.81 8.27v5.52c0 2.15-1.75 3.9-3.9 3.9s-3.9-1.75-3.9-3.9v-5.52zm9.47 2.86v4.8c0 6.91-5.27 12.61-12 13.3v6.63h7.2V64H4.81v-2.75h7.2v-6.63C5.28 53.93 0 48.23 0 41.32v-4.8c0-.76.62-1.38 1.38-1.38s1.38.62 1.38 1.38v4.8c0 5.86 4.77 10.62 10.62 10.62S24 47.18 24 41.32v-4.8c0-.76.62-1.38 1.38-1.38s1.38.62 1.38 1.38M59.16 0H31.39c-2.67 0-4.85 2.17-4.85 4.84v19.64c0 2.67 2.17 4.85 4.85 4.85h5.9l5.6 7.51 5.6-7.51h10.67c2.67 0 4.85-2.17 4.85-4.85V4.84c0-2.67-2.18-4.84-4.85-4.84m2.1 24.49c0 1.15-.94 2.09-2.09 2.09H47.12l-4.22 5.66-4.22-5.66H31.4a2.09 2.09 0 0 1-2.09-2.09V4.84c0-1.15.94-2.09 2.09-2.09h27.77c1.16 0 2.09.94 2.09 2.09v19.64Zm-7.29-13.95c0 .76-.62 1.38-1.38 1.38H37.45c-.76 0-1.38-.62-1.38-1.38s.62-1.38 1.38-1.38h15.14c.76 0 1.38.62 1.38 1.38m-6.34 7.25c0 .76-.62 1.38-1.38 1.38h-8.79c-.76 0-1.38-.62-1.38-1.38s.62-1.38 1.38-1.38h8.79c.76 0 1.38.62 1.38 1.38"/></symbol><use style="display: var(--s16, none)" href="#s16"/><use style="display: var(--s24, none)" href="#s24"/><use style="display: var(--s32, none)" href="#s32"/><use style="display: var(--s40, none)" href="#s40"/><use style="display: var(--s48, none)" href="#s48"/><use style="display: var(--s64, none)" href="#s64"/></symbol></defs><style>@media (max-width: 23.98px) {g{--s16:block;}}@media (min-width: 24px) and (max-width: 31.98px) {g{--s24:block;}}@media (min-width: 32px) and (max-width: 39.98px) {g{--s32:block;}}@media (min-width: 40px) and (max-width: 47.98px) {g{--s40:block;}}@media (min-width: 48px) and (max-width: 63.98px) {g{--s48:block;}}@media (min-width: 64px) {g{--s64:block;}}</style><g><use href="#i-speechtotext"/></g></svg>