<svg xmlns="http://www.w3.org/2000/svg"><defs><symbol id="i-stampbpost"><symbol id="s16" viewBox="0 0 16 16"><path d="M16 1.54V.75c-.41 0-.75-.34-.75-.75h-.79c0 .41-.34.75-.75.75s-.75-.34-.75-.75h-.79c0 .41-.34.75-.75.75s-.75-.34-.75-.75h-.79c0 .41-.34.75-.75.75S8.38.41 8.38 0h-.79c0 .41-.34.75-.75.75S6.09.41 6.09 0H5.3c0 .41-.34.75-.75.75S3.8.41 3.8 0h-.79c0 .41-.34.75-.75.75S1.51.41 1.51 0H.72C.75.41.42.75 0 .75v.79a.749.749 0 1 1 0 1.5v.79a.749.749 0 1 1 0 1.5v.79a.749.749 0 1 1 0 1.5v.79c.41 0 .75.34.75.75s-.34.75-.75.75v.79c.41 0 .75.34.75.75s-.34.75-.75.75v.79c.41 0 .75.34.75.75s-.34.75-.75.75v.79c.41 0 .74.33.75.73h.79c0-.41.34-.75.75-.75s.75.34.75.75h.79c0-.41.34-.75.75-.75s.75.34.75.75h.79c0-.41.34-.75.75-.75s.75.34.75.75h.79c0-.41.34-.75.75-.75s.75.34.75.75h.79c0-.41.34-.75.75-.75s.75.34.75.75h.79c0-.41.34-.75.75-.75s.75.34.75.75h.79c0-.41.34-.75.75-.75v-.77c-.41 0-.75-.34-.75-.75s.34-.75.75-.75v-.79c-.41 0-.75-.34-.75-.75s.34-.75.75-.75v-.79c-.41 0-.75-.34-.75-.75s.34-.75.75-.75v-.79c-.41 0-.75-.34-.75-.75s.34-.75.75-.75v-.79c-.41 0-.75-.34-.75-.75s.34-.75.75-.75v-.79c-.41 0-.75-.34-.75-.75s.34-.75.75-.75ZM14.5 14.5h-13v-13h13zm-3.18-4.97c0-.95-.42-1.5-1.31-1.91.7-.49.97-1.03.97-1.76 0-1.7-1.36-2.11-3.06-2.11H5.07v8.28h3.07c1.86 0 3.18-.7 3.18-2.5M6.7 5.11h1.34c.78 0 1.26.34 1.26 1 0 .7-.47 1.04-1.26 1.04H6.7zm0 3.27h1.43c1.01 0 1.5.38 1.5 1.13s-.49 1.15-1.47 1.15H6.71V8.38Z"/></symbol><symbol id="s24" viewBox="0 0 24 24"><path d="M24 2.31V1.13c-.62 0-1.12-.5-1.12-1.12H21.7c0 .62-.5 1.12-1.12 1.12S19.46.63 19.46.01h-1.18c0 .62-.5 1.12-1.12 1.12S16.04.63 16.04.01h-1.18c0 .62-.5 1.12-1.12 1.12S12.62.63 12.62.01h-1.18c0 .62-.5 1.12-1.12 1.12S9.2.63 9.2.01H8.02c0 .62-.5 1.12-1.12 1.12S5.78.63 5.78.01H4.6c0 .62-.5 1.12-1.12 1.12S2.36.63 2.36.01H1.18C1.13.62.63 1.12 0 1.12V2.3c.62 0 1.12.5 1.12 1.12S.63 4.56 0 4.56v1.18c.62 0 1.12.5 1.12 1.12S.63 7.99 0 7.99v1.18c.62 0 1.12.5 1.12 1.12S.63 11.42 0 11.42v1.18c.62 0 1.12.5 1.12 1.12S.63 14.86 0 14.86v1.18c.62 0 1.12.5 1.12 1.12S.62 18.28 0 18.28v1.18c.62 0 1.12.5 1.12 1.12S.62 21.7 0 21.7v1.18c.61 0 1.1.49 1.12 1.1H2.3c0-.62.5-1.12 1.12-1.12s1.12.5 1.12 1.12h1.18c0-.62.5-1.12 1.12-1.12s1.12.5 1.12 1.12h1.18c0-.62.5-1.12 1.12-1.12s1.12.5 1.12 1.12h1.18c0-.62.5-1.12 1.12-1.12s1.12.5 1.12 1.12h1.18c0-.62.5-1.12 1.12-1.12s1.12.5 1.12 1.12h1.18c0-.62.5-1.12 1.12-1.12s1.12.5 1.12 1.12h1.18c0-.62.5-1.12 1.12-1.12v-1.15c-.62 0-1.12-.5-1.12-1.12s.5-1.12 1.12-1.12v-1.18c-.62 0-1.12-.5-1.12-1.12s.5-1.12 1.12-1.12v-1.18c-.62 0-1.12-.5-1.12-1.12s.5-1.12 1.12-1.12v-1.18c-.62 0-1.12-.5-1.12-1.12s.5-1.12 1.12-1.12V8.03c-.62 0-1.12-.5-1.12-1.12s.5-1.12 1.12-1.12V4.61c-.62 0-1.12-.5-1.12-1.12s.5-1.12 1.12-1.12Zm-2.25 19.44H2.25V2.25h19.5zm-4.93-7.55c0-1.42-.63-2.25-1.96-2.86 1.04-.74 1.46-1.55 1.46-2.65 0-2.56-2.03-3.17-4.59-3.17H7.44v12.42h4.61c2.79 0 4.77-1.04 4.77-3.75ZM9.89 7.58h2.02c1.17 0 1.89.5 1.89 1.49 0 1.04-.7 1.57-1.89 1.57H9.89zm0 4.89h2.14c1.51 0 2.25.58 2.25 1.69s-.74 1.73-2.21 1.73H9.89z"/></symbol><symbol id="s32" viewBox="0 0 32 32"><path d="M32 3.08V1.5c-.83 0-1.5-.67-1.5-1.5h-1.57c0 .83-.67 1.5-1.5 1.5s-1.5-.67-1.5-1.5h-1.57c0 .83-.67 1.5-1.5 1.5s-1.5-.67-1.5-1.5h-1.57c0 .83-.67 1.5-1.5 1.5s-1.5-.67-1.5-1.5h-1.57c0 .83-.67 1.5-1.5 1.5s-1.5-.67-1.5-1.5h-1.57c0 .83-.67 1.5-1.5 1.5S7.65.83 7.65 0H6.08c0 .83-.67 1.5-1.5 1.5S3.08.83 3.08 0H1.51C1.5.83.83 1.5 0 1.5v1.58c.83 0 1.5.67 1.5 1.5S.83 6.08 0 6.08v1.58c.83 0 1.5.67 1.5 1.5S.83 10.65 0 10.65v1.58c.83 0 1.5.67 1.5 1.5s-.67 1.5-1.5 1.5v1.58c.83 0 1.5.67 1.5 1.5s-.67 1.5-1.5 1.5v1.58c.83 0 1.5.67 1.5 1.5s-.67 1.5-1.5 1.5v1.58c.83 0 1.5.67 1.5 1.5s-.67 1.5-1.5 1.5v1.58c.82 0 1.47.65 1.49 1.46h1.58c0-.83.67-1.5 1.5-1.5s1.5.67 1.5 1.5h1.57c0-.83.67-1.5 1.5-1.5s1.5.67 1.5 1.5h1.57c0-.83.67-1.5 1.5-1.5s1.5.67 1.5 1.5h1.57c0-.83.67-1.5 1.5-1.5s1.5.67 1.5 1.5h1.57c0-.83.67-1.5 1.5-1.5s1.5.67 1.5 1.5h1.57c0-.83.67-1.5 1.5-1.5s1.5.67 1.5 1.5h1.57c0-.83.67-1.5 1.5-1.5v-1.54c-.83 0-1.5-.67-1.5-1.5s.67-1.5 1.5-1.5v-1.58c-.83 0-1.5-.67-1.5-1.5s.67-1.5 1.5-1.5v-1.58c-.83 0-1.5-.67-1.5-1.5s.67-1.5 1.5-1.5v-1.58c-.83 0-1.5-.67-1.5-1.5s.67-1.5 1.5-1.5v-1.58c-.83 0-1.5-.67-1.5-1.5s.67-1.5 1.5-1.5V6.07c-.83 0-1.5-.67-1.5-1.5s.67-1.5 1.5-1.5Zm-2.99 25.93H3V3h26v26Zm-6.15-10.18c0-1.9-.84-3-2.62-3.82 1.39-.98 1.94-2.06 1.94-3.53 0-3.41-2.71-4.22-6.12-4.22h-5.71v16.56h6.14c3.72 0 6.36-1.39 6.36-4.99ZM13.62 10h2.69c1.56 0 2.52.67 2.52 1.99 0 1.39-.94 2.09-2.52 2.09h-2.69zm0 6.53h2.86c2.02 0 3 .77 3 2.26s-.98 2.3-2.95 2.3h-2.9v-4.56Z"/></symbol><symbol id="s40" viewBox="0 0 40 40"><path d="M40 3.85V1.88c-1.04 0-1.88-.84-1.88-1.88h-1.96c0 1.04-.84 1.88-1.88 1.88S32.4 1.04 32.4 0h-1.96c0 1.04-.84 1.88-1.88 1.88S26.68 1.04 26.68 0h-1.96c0 1.04-.84 1.88-1.88 1.88S20.96 1.04 20.96 0H19c0 1.04-.84 1.88-1.88 1.88S15.27 1.04 15.27 0h-1.96c0 1.04-.84 1.88-1.88 1.88S9.56 1.04 9.56 0H7.6c0 1.04-.84 1.88-1.88 1.88S3.84 1.04 3.84 0H1.88c0 1.04-.84 1.88-1.88 1.88v1.97c1.04 0 1.88.84 1.88 1.88S1.04 7.6 0 7.6v1.97c1.04 0 1.88.84 1.88 1.88S1.04 13.32 0 13.32v1.97c1.04 0 1.88.84 1.88 1.88S1.04 19.05 0 19.05v1.97c1.04 0 1.88.84 1.88 1.88S1.04 24.78 0 24.78v1.97c1.04 0 1.88.84 1.88 1.88S1.04 30.51 0 30.51v1.97c1.04 0 1.88.84 1.88 1.88S1.04 36.24 0 36.24v1.97c1.02 0 1.84.82 1.87 1.83h1.97c0-1.04.84-1.88 1.88-1.88S7.6 39 7.6 40.04h1.96c0-1.04.84-1.88 1.88-1.88s1.88.84 1.88 1.88h1.96c0-1.04.84-1.88 1.88-1.88s1.88.84 1.88 1.88H21c0-1.04.84-1.88 1.88-1.88s1.88.84 1.88 1.88h1.96c0-1.04.84-1.88 1.88-1.88s1.88.84 1.88 1.88h1.96c0-1.04.84-1.88 1.88-1.88s1.88.84 1.88 1.88h1.96c0-1.04.84-1.88 1.88-1.88v-1.92c-1.04 0-1.88-.84-1.88-1.88s.84-1.88 1.88-1.88v-1.97c-1.04 0-1.88-.84-1.88-1.88s.84-1.88 1.88-1.88v-1.97c-1.04 0-1.88-.84-1.88-1.88s.84-1.88 1.88-1.88v-1.97c-1.04 0-1.88-.84-1.88-1.88s.84-1.88 1.88-1.88v-1.97c-1.04 0-1.88-.84-1.88-1.88s.84-1.88 1.88-1.88V7.59c-1.04 0-1.88-.84-1.88-1.88s.84-1.88 1.88-1.88Zm-3.74 32.41H3.75V3.76h32.5v32.5ZM28.79 24.6c0-2.53-1.12-4-3.49-5.09 1.86-1.31 2.59-2.75 2.59-4.7 0-4.54-3.62-5.63-8.16-5.63h-7.62v22.08h8.19c4.96 0 8.48-1.86 8.48-6.66ZM16.47 12.82h3.58c2.08 0 3.36.9 3.36 2.66 0 1.86-1.25 2.78-3.36 2.78h-3.58zm0 8.71h3.81c2.69 0 4 1.02 4 3.01s-1.31 3.07-3.94 3.07h-3.87z"/></symbol><symbol id="s48" viewBox="0 0 48 48"><path d="M48 4.62V2.26c-1.24 0-2.25-1.01-2.25-2.25h-2.36c0 1.24-1.01 2.25-2.25 2.25S38.9 1.25 38.9 0h-2.36c0 1.24-1.01 2.25-2.25 2.25s-2.25-1-2.25-2.25h-2.36c0 1.24-1.01 2.25-2.25 2.25s-2.25-1-2.25-2.25h-2.36c0 1.24-1.01 2.25-2.25 2.25s-2.24-1-2.24-2.25h-2.36c0 1.24-1.01 2.25-2.25 2.25s-2.25-1-2.25-2.25H9.11c0 1.24-1.01 2.25-2.25 2.25S4.61 1.25 4.61 0H2.25c0 1.25-1 2.26-2.25 2.26v2.36c1.24 0 2.25 1.01 2.25 2.25S1.25 9.12 0 9.12v2.37c1.24 0 2.25 1.01 2.25 2.25s-1 2.25-2.25 2.25v2.36c1.24 0 2.25 1.01 2.25 2.25s-1 2.25-2.25 2.25v2.37c1.24 0 2.25 1.01 2.25 2.25s-1 2.25-2.25 2.25v2.37c1.24 0 2.25 1.01 2.25 2.25s-1 2.24-2.25 2.24v2.36a2.256 2.256 0 0 1 0 4.51v2.37c1.22 0 2.21.98 2.24 2.19h2.37c0-1.24 1.01-2.25 2.25-2.25s2.25 1.01 2.25 2.25h2.36c0-1.24 1.01-2.25 2.25-2.25s2.25 1.01 2.25 2.25h2.36c0-1.24 1.01-2.25 2.25-2.25s2.25 1.01 2.25 2.25h2.36c0-1.24 1.01-2.25 2.25-2.25s2.25 1.01 2.25 2.25h2.36c0-1.24 1.01-2.25 2.25-2.25s2.25 1.01 2.25 2.25h2.36c0-1.24 1.01-2.25 2.25-2.25s2.25 1.01 2.25 2.25h2.36c0-1.24 1.01-2.25 2.25-2.25v-2.31c-1.24 0-2.25-1.01-2.25-2.25s1.01-2.25 2.25-2.25v-2.36c-1.24 0-2.25-1.01-2.25-2.25s1.01-2.25 2.25-2.25v-2.37c-1.24 0-2.25-1.01-2.25-2.25s1.01-2.25 2.25-2.25v-2.37c-1.24 0-2.25-1.01-2.25-2.25s1.01-2.25 2.25-2.25v-2.36c-1.24 0-2.25-1.01-2.25-2.25s1.01-2.25 2.25-2.25V9.12c-1.24 0-2.25-1.01-2.25-2.25s1.01-2.25 2.25-2.25Zm-4.49 38.89H4.5v-39h39v39ZM34.83 28.6c0-3-1.33-4.75-4.14-6.04 2.2-1.56 3.08-3.27 3.08-5.58 0-5.39-4.29-6.69-9.69-6.69h-9.04v26.22h9.73c5.89 0 10.07-2.2 10.07-7.9ZM20.2 14.62h4.26c2.47 0 3.99 1.06 3.99 3.15 0 2.2-1.48 3.31-3.99 3.31H20.2zm0 10.33h4.52c3.19 0 4.75 1.22 4.75 3.57s-1.56 3.65-4.67 3.65h-4.6z"/></symbol><symbol id="s64" viewBox="0 0 64 64"><path d="M64 6.12V2.97c-1.66 0-3-1.34-3-3h-3.14c0 1.66-1.34 3-3 3s-3-1.34-3-3h-3.14c0 1.66-1.34 3-3 3s-3-1.34-3-3h-3.14c0 1.66-1.34 3-3 3s-3-1.34-3-3h-3.14c0 1.66-1.34 3-3 3s-3-1.34-3-3H21.3c0 1.66-1.34 3-3 3s-3.01-1.35-3.01-3h-3.14c0 1.66-1.34 3-3 3s-3-1.35-3-3H3.01c-.01 1.65-1.35 3-3.01 3v3.15c1.66 0 3 1.34 3 3s-1.34 3-3 3v3.15c1.66 0 3 1.34 3 3s-1.34 3-3 3v3.15c1.66 0 3 1.34 3 3s-1.34 3.01-3 3.01v3.15c1.66 0 3 1.34 3 3s-1.34 3-3 3v3.15c1.66 0 3 1.34 3 3s-1.34 3-3 3v3.15c1.66 0 3 1.34 3 3s-1.34 3.01-3 3.01v3.15c1.63 0 2.94 1.31 2.99 2.93h3.16c0-1.66 1.34-3 3-3s3 1.34 3 3h3.14c0-1.66 1.34-3 3-3s3 1.34 3 3h3.14c0-1.66 1.34-3 3-3s3 1.34 3 3h3.14c0-1.66 1.34-3 3-3s3 1.34 3 3h3.14c0-1.66 1.34-3 3-3s3 1.34 3 3h3.14c0-1.66 1.34-3 3-3s3 1.34 3 3h3.14c0-1.66 1.34-3 3-3v-3.08c-1.66 0-3-1.34-3-3s1.34-3 3-3v-3.15c-1.66 0-3-1.34-3-3s1.34-3 3-3v-3.15c-1.66 0-3-1.34-3-3s1.34-3 3-3v-3.15c-1.66 0-3-1.34-3-3s1.34-3 3-3v-3.15c-1.66 0-3-1.34-3-3s1.34-3 3-3v-3.15c-1.66 0-3-1.34-3-3s1.34-3 3-3Zm-5.99 51.86H6V5.97h52v52ZM45.83 38.3c0-3.95-1.75-6.25-5.45-7.95 2.9-2.05 4.05-4.3 4.05-7.35 0-7.1-5.65-8.8-12.75-8.8h-11.9v34.5h12.8c7.75 0 13.25-2.9 13.25-10.4M26.58 19.9h5.6c3.25 0 5.25 1.4 5.25 4.15 0 2.9-1.95 4.35-5.25 4.35h-5.6zm0 13.6h5.95c4.2 0 6.25 1.6 6.25 4.7S36.73 43 32.63 43h-6.05z"/></symbol><use style="display: var(--s16, none)" href="#s16"/><use style="display: var(--s24, none)" href="#s24"/><use style="display: var(--s32, none)" href="#s32"/><use style="display: var(--s40, none)" href="#s40"/><use style="display: var(--s48, none)" href="#s48"/><use style="display: var(--s64, none)" href="#s64"/></symbol></defs><style>@media (max-width: 23.98px) {g{--s16:block;}}@media (min-width: 24px) and (max-width: 31.98px) {g{--s24:block;}}@media (min-width: 32px) and (max-width: 39.98px) {g{--s32:block;}}@media (min-width: 40px) and (max-width: 47.98px) {g{--s40:block;}}@media (min-width: 48px) and (max-width: 63.98px) {g{--s48:block;}}@media (min-width: 64px) {g{--s64:block;}}</style><g><use href="#i-stampbpost"/></g></svg>