<svg xmlns="http://www.w3.org/2000/svg"><defs><symbol id="i-stampapost"><symbol id="s16" viewBox="0 0 16 16"><path d="M16.01 1.54V.75c-.41 0-.75-.34-.75-.75h-.79c0 .41-.34.75-.75.75s-.75-.34-.75-.75h-.79c0 .41-.34.75-.75.75s-.75-.34-.75-.75h-.79c0 .41-.34.75-.75.75S8.39.41 8.39 0H7.6c0 .41-.34.75-.75.75S6.1.41 6.1 0h-.79c0 .41-.34.75-.75.75S3.81.41 3.81 0h-.79c0 .41-.34.75-.75.75S1.52.41 1.52 0H.73C.76.41.43.75.01.75v.79a.749.749 0 1 1 0 1.5v.79c.41 0 .75.34.75.75s-.34.75-.75.75v.79c.41 0 .75.34.75.75s-.34.75-.75.75v.79c.41 0 .75.34.75.75s-.34.75-.75.75v.79c.41 0 .75.34.75.75s-.34.75-.75.75v.79c.41 0 .75.34.75.75s-.34.75-.75.75v.79c.41 0 .74.33.75.73h.79c0-.41.34-.75.75-.75s.75.34.75.75h.79c0-.41.34-.75.75-.75s.75.34.75.75h.79c0-.41.34-.75.75-.75s.75.34.75.75h.79c0-.41.34-.75.75-.75s.75.34.75.75h.79c0-.41.34-.75.75-.75s.75.34.75.75H13c0-.41.34-.75.75-.75s.75.34.75.75h.79c0-.41.34-.75.75-.75v-.77c-.41 0-.75-.34-.75-.75s.34-.75.75-.75v-.79c-.41 0-.75-.34-.75-.75s.34-.75.75-.75v-.79c-.41 0-.75-.34-.75-.75s.34-.75.75-.75v-.79c-.41 0-.75-.34-.75-.75s.34-.75.75-.75v-.79c-.41 0-.75-.34-.75-.75s.34-.75.75-.75v-.79c-.41 0-.75-.34-.75-.75s.34-.75.75-.75Zm-1.5 12.96h-13v-13h13zM6.5 9.56h3.09l.74 2.13h1.74L8.95 3.41H7.14l-3.09 8.28h1.7l.74-2.13Zm1.55-4.45 1.08 3.11H6.97z"/></symbol><symbol id="s24" viewBox="0 0 24 24"><path d="M24.01 2.31V1.13c-.62 0-1.12-.5-1.12-1.12h-1.18c0 .62-.5 1.12-1.12 1.12S19.47.63 19.47.01h-1.18c0 .62-.5 1.12-1.12 1.12S16.05.63 16.05.01h-1.18c0 .62-.5 1.12-1.12 1.12S12.63.63 12.63.01h-1.18c0 .62-.5 1.12-1.12 1.12S9.21.63 9.21.01H8.03c0 .62-.5 1.12-1.12 1.12S5.79.63 5.79.01H4.61c0 .62-.5 1.12-1.12 1.12S2.37.63 2.37.01H1.19C1.14.62.63 1.12.01 1.12V2.3c.62 0 1.12.5 1.12 1.12S.63 4.56.01 4.56v1.18c.62 0 1.12.5 1.12 1.12S.63 7.99.01 7.99v1.18c.62 0 1.12.5 1.12 1.12s-.5 1.13-1.12 1.13v1.18c.62 0 1.12.5 1.12 1.12s-.5 1.14-1.12 1.14v1.18c.62 0 1.12.5 1.12 1.12s-.5 1.12-1.12 1.12v1.18c.62 0 1.12.5 1.12 1.12S.63 21.7.01 21.7v1.18c.61 0 1.1.49 1.12 1.1h1.18c0-.62.5-1.12 1.12-1.12s1.12.5 1.12 1.12h1.18c0-.62.5-1.12 1.12-1.12s1.12.5 1.12 1.12h1.18c0-.62.5-1.12 1.12-1.12s1.12.5 1.12 1.12h1.18c0-.62.5-1.12 1.12-1.12s1.12.5 1.12 1.12h1.18c0-.62.5-1.12 1.12-1.12s1.12.5 1.12 1.12h1.18c0-.62.5-1.12 1.12-1.12s1.12.5 1.12 1.12h1.18c0-.62.5-1.12 1.12-1.12v-1.15c-.62 0-1.12-.5-1.12-1.12s.5-1.12 1.12-1.12v-1.18c-.62 0-1.12-.5-1.12-1.12s.5-1.12 1.12-1.12v-1.18c-.62 0-1.12-.5-1.12-1.12s.5-1.12 1.12-1.12v-1.18c-.62 0-1.12-.5-1.12-1.12s.5-1.12 1.12-1.12V8.03c-.62 0-1.12-.5-1.12-1.12s.5-1.12 1.12-1.12V4.61c-.62 0-1.12-.5-1.12-1.12s.5-1.12 1.12-1.12Zm-2.25 19.44H2.26V2.25h19.5zM9.75 14.33h4.65l1.12 3.21h2.61L13.45 5.12h-2.72L6.08 17.54h2.56l1.12-3.21Zm2.32-6.67 1.62 4.66h-3.24z"/></symbol><symbol id="s32" viewBox="0 0 32 32"><path d="M32.01 3.08V1.5c-.83 0-1.5-.67-1.5-1.5h-1.57c0 .83-.67 1.5-1.5 1.5s-1.5-.67-1.5-1.5h-1.57c0 .83-.67 1.5-1.5 1.5s-1.5-.67-1.5-1.5H19.8c0 .83-.67 1.5-1.5 1.5S16.8.83 16.8 0h-1.57c0 .83-.67 1.5-1.5 1.5s-1.5-.67-1.5-1.5h-1.57c0 .83-.67 1.5-1.5 1.5S7.66.83 7.66 0H6.09c0 .83-.67 1.5-1.5 1.5S3.09.83 3.09 0H1.52C1.51.83.84 1.5.01 1.5v1.58c.83 0 1.5.67 1.5 1.5s-.67 1.5-1.5 1.5v1.58c.83 0 1.5.67 1.5 1.5s-.67 1.49-1.5 1.49v1.58c.83 0 1.5.67 1.5 1.5s-.67 1.5-1.5 1.5v1.58c.83 0 1.5.67 1.5 1.5s-.67 1.5-1.5 1.5v1.58c.83 0 1.5.67 1.5 1.5s-.67 1.5-1.5 1.5v1.58c.83 0 1.5.67 1.5 1.5s-.67 1.5-1.5 1.5v1.58c.82 0 1.47.65 1.49 1.46h1.58c0-.83.67-1.5 1.5-1.5s1.5.67 1.5 1.5h1.57c0-.83.67-1.5 1.5-1.5s1.5.67 1.5 1.5h1.57c0-.83.67-1.5 1.5-1.5s1.5.67 1.5 1.5h1.57c0-.83.67-1.5 1.5-1.5s1.5.67 1.5 1.5h1.57c0-.83.67-1.5 1.5-1.5s1.5.67 1.5 1.5h1.57c0-.83.67-1.5 1.5-1.5s1.5.67 1.5 1.5h1.57c0-.83.67-1.5 1.5-1.5v-1.54c-.83 0-1.5-.67-1.5-1.5s.67-1.5 1.5-1.5v-1.58c-.83 0-1.5-.67-1.5-1.5s.67-1.5 1.5-1.5v-1.58c-.83 0-1.5-.67-1.5-1.5s.67-1.5 1.5-1.5v-1.58c-.83 0-1.5-.67-1.5-1.5s.67-1.5 1.5-1.5v-1.58c-.83 0-1.5-.67-1.5-1.5s.67-1.5 1.5-1.5V6.07c-.83 0-1.5-.67-1.5-1.5s.67-1.5 1.5-1.5Zm-3 25.93h-26V3h26v26ZM13.1 19.33h6.19l1.49 4.27h3.48L18.02 7.04H14.4L8.21 23.6h3.41l1.49-4.27Zm3.09-8.9 2.16 6.22h-4.32z"/></symbol><symbol id="s40" viewBox="0 0 40 40"><path d="M40.01 3.84V1.87c-1.04 0-1.88-.84-1.88-1.88h-1.96c0 1.04-.84 1.88-1.88 1.88s-1.88-.84-1.88-1.88h-1.96c0 1.04-.84 1.88-1.88 1.88s-1.88-.84-1.88-1.88h-1.96c0 1.04-.84 1.88-1.88 1.88s-1.88-.84-1.88-1.88h-1.96c0 1.04-.84 1.88-1.88 1.88S15.28 1.03 15.28 0h-1.96a1.876 1.876 0 1 1-3.75 0H7.61c0 1.04-.84 1.88-1.88 1.88S3.85 1.03 3.85 0H1.89c0 1.03-.84 1.87-1.88 1.87v1.97c1.04 0 1.88.84 1.88 1.88S1.05 7.59.01 7.59v1.97c1.04 0 1.88.84 1.88 1.88s-.84 1.88-1.88 1.88v1.97c1.04 0 1.88.84 1.88 1.88s-.84 1.88-1.88 1.88v1.97c1.04 0 1.88.84 1.88 1.88s-.84 1.88-1.88 1.88v1.97c1.04 0 1.88.84 1.88 1.88s-.84 1.88-1.88 1.88v1.97c1.04 0 1.88.84 1.88 1.88s-.84 1.88-1.88 1.88v1.97c1.02 0 1.84.82 1.87 1.83h1.97c0-1.04.84-1.88 1.88-1.88s1.88.84 1.88 1.88h1.96c0-1.04.84-1.88 1.88-1.88s1.88.84 1.88 1.88h1.96c0-1.04.84-1.88 1.88-1.88s1.88.84 1.88 1.88h1.96c0-1.04.84-1.88 1.88-1.88s1.88.84 1.88 1.88h1.96c0-1.04.84-1.88 1.88-1.88s1.88.84 1.88 1.88h1.96c0-1.04.84-1.88 1.88-1.88s1.88.84 1.88 1.88h1.96c0-1.04.84-1.88 1.88-1.88v-1.92c-1.04 0-1.88-.84-1.88-1.88s.84-1.88 1.88-1.88v-1.97c-1.04 0-1.88-.84-1.88-1.88s.84-1.88 1.88-1.88v-1.97c-1.04 0-1.88-.84-1.88-1.88s.84-1.88 1.88-1.88v-1.97c-1.04 0-1.88-.84-1.88-1.88s.84-1.88 1.88-1.88v-1.97c-1.04 0-1.88-.84-1.88-1.88s.84-1.88 1.88-1.88V7.59c-1.04 0-1.88-.84-1.88-1.88s.84-1.88 1.88-1.88Zm-3.75 32.41H3.76V3.75h32.5zM16.13 24.46h8.26l1.98 5.7h4.64L22.69 8.08h-4.83L9.61 30.16h4.54zm4.13-11.87 2.88 8.29h-5.76z"/></symbol><symbol id="s48" viewBox="0 0 48 48"><path d="M48.01 4.62V2.26c-1.24 0-2.25-1.01-2.25-2.25H43.4c0 1.24-1.01 2.25-2.25 2.25S38.91 1.25 38.91 0h-2.36c0 1.24-1.01 2.25-2.25 2.25s-2.25-1-2.25-2.25h-2.36c0 1.24-1.01 2.25-2.25 2.25s-2.25-1-2.25-2.25h-2.36c0 1.24-1.01 2.25-2.25 2.25s-2.25-1-2.25-2.25h-2.36c0 1.24-1.01 2.25-2.25 2.25s-2.24-1-2.24-2.25H9.12c0 1.24-1.01 2.25-2.25 2.25S4.62 1.25 4.62 0H2.26c0 1.25-1 2.26-2.25 2.26v2.36c1.24 0 2.25 1.01 2.25 2.25s-1 2.25-2.25 2.25v2.37c1.24 0 2.25 1.01 2.25 2.25s-1 2.25-2.25 2.25v2.36c1.24 0 2.25 1.01 2.25 2.25s-1 2.25-2.25 2.25v2.37c1.24 0 2.25 1.01 2.25 2.25s-1 2.25-2.25 2.25v2.37c1.24 0 2.25 1.01 2.25 2.25S1.25 36.59.01 36.59v2.36c1.24 0 2.25 1.01 2.25 2.25S1.25 43.45.01 43.45v2.37c1.22 0 2.21.98 2.24 2.19h2.37c0-1.24 1.01-2.25 2.25-2.25s2.25 1.01 2.25 2.25h2.36c0-1.24 1.01-2.25 2.25-2.25s2.25 1.01 2.25 2.25h2.36c0-1.24 1.01-2.25 2.25-2.25s2.25 1.01 2.25 2.25h2.36c0-1.24 1.01-2.25 2.25-2.25s2.25 1.01 2.25 2.25h2.36c0-1.24 1.01-2.25 2.25-2.25s2.25 1.01 2.25 2.25h2.36c0-1.24 1.01-2.25 2.25-2.25s2.25 1.01 2.25 2.25h2.36c0-1.24 1.01-2.25 2.25-2.25v-2.31c-1.24 0-2.25-1.01-2.25-2.25s1.01-2.25 2.25-2.25v-2.36c-1.24 0-2.25-1.01-2.25-2.25s1.01-2.25 2.25-2.25v-2.37c-1.24 0-2.25-1.01-2.25-2.25s1.01-2.25 2.25-2.25v-2.37c-1.24 0-2.25-1.01-2.25-2.25s1.01-2.25 2.25-2.25v-2.36c-1.24 0-2.25-1.01-2.25-2.25s1.01-2.25 2.25-2.25V9.12c-1.24 0-2.25-1.01-2.25-2.25s1.01-2.25 2.25-2.25Zm-4.5 38.89h-39v-39h39zM19.62 29.52h9.8l2.36 6.76h5.51l-9.88-26.22h-5.74l-9.8 26.22h5.39zm4.9-14.09 3.42 9.84H21.1z"/></symbol><symbol id="s64" viewBox="0 0 64 64"><path d="M64.01 6.15V3c-1.66 0-3-1.34-3-3h-3.14c0 1.66-1.34 3-3 3s-3-1.35-3-3h-3.14c0 1.66-1.34 3-3 3s-3-1.35-3-3h-3.14c0 1.66-1.34 3-3 3s-3.01-1.35-3.01-3h-3.14c0 1.66-1.34 3-3 3s-3-1.35-3-3H21.3c0 1.66-1.34 3-3 3s-3-1.35-3-3h-3.14c0 1.66-1.34 3-3 3s-3-1.35-3-3H3.02A3.01 3.01 0 0 1 .01 2.99v3.15c1.66 0 3 1.34 3 3s-1.34 3.01-3 3.01v3.15c1.66 0 3 1.34 3 3s-1.34 3-3 3v3.15c1.66 0 3 1.34 3 3s-1.34 3-3 3v3.15c1.66 0 3 1.34 3 3s-1.34 3-3 3v3.15c1.66 0 3 1.34 3 3s-1.34 3-3 3v3.15c1.66 0 3 1.34 3 3s-1.34 3-3 3v3.15c1.63 0 2.94 1.31 2.99 2.93h3.16c0-1.66 1.34-3 3-3s3 1.34 3 3h3.14c0-1.66 1.34-3 3-3s3 1.34 3 3h3.14c0-1.66 1.34-3 3-3s3 1.34 3 3h3.14c0-1.66 1.34-3 3-3s3 1.34 3 3h3.14c0-1.66 1.34-3 3-3s3 1.34 3 3h3.14c0-1.66 1.34-3 3-3s3 1.34 3 3H61c0-1.66 1.34-3 3-3V57.9c-1.66 0-3-1.34-3-3s1.34-3 3-3v-3.15c-1.66 0-3-1.34-3-3s1.34-3 3-3V39.6c-1.66 0-3-1.34-3-3s1.34-3 3-3v-3.15c-1.66 0-3-1.34-3-3s1.34-3 3-3V21.3c-1.66 0-3-1.34-3-3s1.34-3 3-3v-3.15c-1.66 0-3-1.34-3-3s1.34-3 3-3Zm-6 51.85h-52V6h52zM25.29 38.96h12.9l3.1 8.9h7.25l-13-34.5h-7.55l-12.9 34.5h7.1zm6.45-18.55 4.5 12.95h-9z"/></symbol><use style="display: var(--s16, none)" href="#s16"/><use style="display: var(--s24, none)" href="#s24"/><use style="display: var(--s32, none)" href="#s32"/><use style="display: var(--s40, none)" href="#s40"/><use style="display: var(--s48, none)" href="#s48"/><use style="display: var(--s64, none)" href="#s64"/></symbol></defs><style>@media (max-width: 23.98px) {g{--s16:block;}}@media (min-width: 24px) and (max-width: 31.98px) {g{--s24:block;}}@media (min-width: 32px) and (max-width: 39.98px) {g{--s32:block;}}@media (min-width: 40px) and (max-width: 47.98px) {g{--s40:block;}}@media (min-width: 48px) and (max-width: 63.98px) {g{--s48:block;}}@media (min-width: 64px) {g{--s64:block;}}</style><g><use href="#i-stampapost"/></g></svg>