<svg xmlns="http://www.w3.org/2000/svg"><defs><symbol id="i-stampbpost-solid"><symbol id="s16" viewBox="0 0 16 16"><path d="M9.84 9.37c0 .73-.49 1.15-1.47 1.15H6.92V8.24h1.43c1.01 0 1.5.38 1.5 1.13Zm4.43 4.88H1.77V1.75h12.5zm-2.73-4.86c0-.95-.42-1.5-1.31-1.91.7-.49.97-1.03.97-1.76 0-1.7-1.36-2.11-3.06-2.11H5.29v8.28h3.07c1.86 0 3.18-.7 3.18-2.5m3.73-7.1c0 .41.34.75.75.75v.79c-.41 0-.75.34-.75.75s.34.75.75.75v.79c-.41 0-.75.34-.75.75s.34.75.75.75v.79c-.41 0-.75.34-.75.75s.34.75.75.75v.79c-.41 0-.75.34-.75.75s.34.75.75.75v.79c-.41 0-.75.34-.75.75s.34.75.75.75v.77c-.41 0-.75.34-.75.75h-.79c0-.41-.34-.75-.75-.75s-.75.34-.75.75h-.79c0-.41-.34-.75-.75-.75s-.75.34-.75.75H9.9c0-.41-.34-.75-.75-.75s-.75.34-.75.75h-.79c0-.41-.34-.75-.75-.75s-.75.34-.75.75h-.79c0-.41-.34-.75-.75-.75s-.75.34-.75.75h-.79c0-.41-.34-.75-.75-.75s-.75.34-.75.75H.74a.745.745 0 0 0-.75-.73v-.79c.41 0 .75-.34.75-.75s-.34-.75-.75-.75v-.79c.41 0 .75-.34.75-.75s-.34-.75-.75-.75v-.79c.41 0 .75-.34.75-.75s-.34-.75-.75-.75v-.79c.41 0 .75-.34.75-.75s-.34-.75-.75-.75v-.79c.41 0 .75-.34.75-.75s-.31-.75-.72-.75v-.79c.41 0 .75-.34.75-.75s-.34-.75-.75-.75V.75C.43.75.77.41.77 0h.79c0 .41.34.75.75.75s.75-.34.75-.75h.79c0 .41.34.75.75.75s.75-.34.75-.75h.79c0 .41.34.75.75.75s.75-.34.75-.75h.79c0 .41.34.75.75.75s.75-.34.75-.75h.79c0 .41.34.75.75.75s.75-.34.75-.75h.79c0 .41.34.75.75.75s.75-.34.75-.75h.79c0 .41.34.75.75.75v.79c-.41 0-.75.34-.75.75Zm-.5-1.04H1.27v13.5h13.5zM9.52 5.97c0-.66-.48-1-1.26-1H6.92v2.04h1.34c.79 0 1.26-.35 1.26-1.04"/></symbol><symbol id="s24" viewBox="0 0 24 24"><path d="M12.25 10.61h-2.02V7.55h2.02c1.17 0 1.89.5 1.89 1.49 0 1.04-.7 1.57-1.89 1.57m9.27 10.89H2.51v-19h19v19Zm-4.36-7.32c0-1.42-.63-2.25-1.96-2.86 1.04-.74 1.46-1.55 1.46-2.65 0-2.56-2.03-3.17-4.59-3.17H7.78v12.42h4.61c2.79 0 4.77-1.04 4.77-3.75Zm5.73-10.75c0 .62.5 1.12 1.12 1.12v1.18c-.62 0-1.12.5-1.12 1.12s.5 1.12 1.12 1.12v1.18c-.62 0-1.12.5-1.12 1.12s.5 1.12 1.12 1.12v1.18c-.62 0-1.12.5-1.12 1.12s.5 1.12 1.12 1.12v1.18c-.62 0-1.12.5-1.12 1.12s.5 1.12 1.12 1.12v1.18c-.62 0-1.12.5-1.12 1.12s.5 1.12 1.12 1.12v1.15c-.62 0-1.12.5-1.12 1.12h-1.18c0-.62-.5-1.12-1.12-1.12s-1.12.5-1.12 1.12h-1.18c0-.62-.5-1.12-1.12-1.12s-1.12.5-1.12 1.12h-1.18c0-.62-.5-1.12-1.12-1.12s-1.12.5-1.12 1.12h-1.18c0-.62-.5-1.12-1.12-1.12s-1.12.5-1.12 1.12H8.03c0-.62-.5-1.12-1.12-1.12s-1.12.5-1.12 1.12H4.61c0-.62-.5-1.12-1.12-1.12s-1.12.5-1.12 1.12H1.19c-.02-.61-.51-1.1-1.12-1.1v-1.18c.62 0 1.12-.5 1.12-1.12S.69 19.4.07 19.4v-1.18c.62 0 1.12-.5 1.12-1.12s-.5-1.12-1.12-1.12V14.8c.62 0 1.12-.5 1.12-1.12S.64 12.61.02 12.61v-1.18c.62 0 1.12-.5 1.12-1.12S.64 9.17.02 9.17V7.99c.62 0 1.12-.5 1.12-1.12S.64 5.74.02 5.74V4.56c.62 0 1.12-.5 1.12-1.12S.64 2.31.02 2.31V1.13c.62 0 1.12-.5 1.12-1.12h1.18c0 .62.5 1.12 1.12 1.12S4.56.63 4.56.01h1.18c0 .62.5 1.12 1.12 1.12S7.98.63 7.98.01h1.18c0 .62.5 1.12 1.12 1.12S11.4.63 11.4.01h1.18c0 .62.5 1.12 1.12 1.12s1.12-.5 1.12-1.12H16c0 .62.5 1.12 1.12 1.12s1.12-.5 1.12-1.12h1.18c0 .62.5 1.12 1.12 1.12s1.12-.5 1.12-1.12h1.18c0 .62.5 1.12 1.12 1.12v1.18c-.62 0-1.12.5-1.12 1.12ZM22.02 2H2.01v20h20V2Zm-9.65 10.45h-2.14v3.42h2.18c1.48 0 2.21-.63 2.21-1.73s-.74-1.69-2.25-1.69"/></symbol><symbol id="s32" viewBox="0 0 32 32"><path d="M28.52 3.5H3.51v25h25v-25ZM16.51 23.82h-6.14V7.26h5.71c3.41 0 6.12.82 6.12 4.22 0 1.46-.55 2.54-1.94 3.53 1.78.82 2.62 1.92 2.62 3.82 0 3.6-2.64 4.99-6.36 4.99Zm2.98-5.04c0 1.46-.98 2.3-2.95 2.3h-2.9v-4.56h2.86c2.02 0 3 .77 3 2.26Zm12.53-15.7V1.5c-.83 0-1.5-.67-1.5-1.5h-1.57c0 .83-.67 1.5-1.5 1.5s-1.5-.67-1.5-1.5h-1.57c0 .83-.67 1.5-1.5 1.5s-1.5-.67-1.5-1.5h-1.57c0 .83-.67 1.5-1.5 1.5s-1.5-.67-1.5-1.5h-1.57c0 .83-.67 1.5-1.5 1.5s-1.5-.67-1.5-1.5h-1.57c0 .83-.67 1.5-1.5 1.5S7.67.83 7.67 0H6.1c0 .83-.67 1.5-1.5 1.5S3.1.83 3.1 0H1.53C1.52.83.84 1.5.02 1.5v1.58c.83 0 1.5.67 1.5 1.5s-.68 1.5-1.5 1.5v1.58a1.496 1.496 0 1 1 0 2.99v1.58c.83 0 1.5.67 1.5 1.5s-.68 1.5-1.5 1.5v1.58c.83 0 1.5.67 1.5 1.5s-.67 1.5-1.5 1.5v1.58c.83 0 1.5.67 1.5 1.5s-.67 1.5-1.5 1.5v1.58c.83 0 1.5.67 1.5 1.5s-.67 1.5-1.5 1.5v1.58c.82 0 1.47.65 1.49 1.46h1.58c0-.83.67-1.5 1.5-1.5s1.5.67 1.5 1.5h1.57c0-.83.67-1.5 1.5-1.5s1.5.67 1.5 1.5h1.57c0-.83.67-1.5 1.5-1.5s1.5.67 1.5 1.5h1.57c0-.83.67-1.5 1.5-1.5s1.5.67 1.5 1.5h1.57c0-.83.67-1.5 1.5-1.5s1.5.67 1.5 1.5h1.57c0-.83.67-1.5 1.5-1.5s1.5.67 1.5 1.5h1.57c0-.83.67-1.5 1.5-1.5v-1.54c-.83 0-1.5-.67-1.5-1.5s.67-1.5 1.5-1.5v-1.58c-.83 0-1.5-.67-1.5-1.5s.67-1.5 1.5-1.5v-1.58c-.83 0-1.5-.67-1.5-1.5s.67-1.5 1.5-1.5v-1.58c-.83 0-1.5-.67-1.5-1.5s.67-1.5 1.5-1.5v-1.58c-.83 0-1.5-.67-1.5-1.5s.67-1.5 1.5-1.5V6.07c-.83 0-1.5-.67-1.5-1.5s.67-1.5 1.5-1.5Zm-2.5 26.43H2.51V2.5h27v27Zm-13.2-15.43h-2.69V10h2.69c1.56 0 2.52.67 2.52 1.99 0 1.39-.94 2.09-2.52 2.09"/></symbol><symbol id="s40" viewBox="0 0 40 40"><path d="M20.72 17.71h-3.36v-5.1h3.36c1.95 0 3.15.84 3.15 2.49 0 1.74-1.17 2.61-3.15 2.61m.21 3.06h-3.57v5.7h3.63c2.46 0 3.69-1.05 3.69-2.88s-1.23-2.82-3.75-2.82M35.76 35.7H4.26V4.2h31.5zm-6.85-12.05c0-2.37-1.05-3.75-3.27-4.77 1.74-1.23 2.43-2.58 2.43-4.41 0-4.26-3.39-5.28-7.65-5.28h-7.14v20.7h7.68c4.65 0 7.95-1.74 7.95-6.24m9.22-17.98c0 1.04.84 1.88 1.88 1.88v1.97c-1.04 0-1.88.84-1.88 1.88s.84 1.88 1.88 1.88v1.97c-1.04 0-1.88.84-1.88 1.88s.84 1.88 1.88 1.88v1.97c-1.04 0-1.88.84-1.88 1.88s.84 1.88 1.88 1.88v1.97c-1.04 0-1.88.84-1.88 1.88s.84 1.88 1.88 1.88v1.97c-1.04 0-1.88.84-1.88 1.88s.84 1.88 1.88 1.88v1.92c-1.04 0-1.88.84-1.88 1.88h-1.96c0-1.04-.84-1.88-1.88-1.88s-1.88.84-1.88 1.88h-1.96c0-1.04-.84-1.88-1.88-1.88s-1.88.84-1.88 1.88h-1.96c0-1.04-.84-1.88-1.88-1.88s-1.88.84-1.88 1.88h-1.96c0-1.04-.84-1.88-1.88-1.88s-1.88.84-1.88 1.88h-1.96c0-1.04-.84-1.88-1.88-1.88s-1.88.84-1.88 1.88H7.57c0-1.04-.84-1.88-1.88-1.88s-1.88.84-1.88 1.88H1.84a1.88 1.88 0 0 0-1.87-1.83V36.2c1.04 0 1.88-.84 1.88-1.88s-.84-1.88-1.88-1.88v-1.97c1.04 0 1.88-.84 1.88-1.88s-.84-1.88-1.88-1.88v-1.97c1.04 0 1.88-.84 1.88-1.88s-.84-1.88-1.88-1.88v-1.97c1.04 0 1.88-.84 1.88-1.88s-.84-1.88-1.88-1.88v-1.97c1.04 0 1.88-.84 1.88-1.88S1.01 9.52-.03 9.52V7.55c1.04 0 1.88-.84 1.88-1.88S1.04 3.79 0 3.79V1.82c1.04 0 1.88-.84 1.88-1.88h1.96c0 1.04.84 1.88 1.88 1.88S7.6.98 7.6-.06h1.96c0 1.04.84 1.88 1.88 1.88s1.88-.84 1.88-1.88h1.96c0 1.04.84 1.88 1.88 1.88s1.88-.84 1.88-1.88H21c0 1.04.84 1.88 1.88 1.88s1.88-.84 1.88-1.88h1.96c0 1.04.84 1.88 1.88 1.88s1.88-.84 1.88-1.88h1.96c0 1.04.84 1.88 1.88 1.88S36.2.98 36.2-.06h1.96c0 1.04.84 1.88 1.88 1.88v1.97c-1.04 0-1.88.84-1.88 1.88ZM36.76 3.2H3.26v33.5h33.5z"/></symbol><symbol id="s48" viewBox="0 0 48 48"><path d="M24.47 21.24h-4.25v-6.46h4.25c2.47 0 3.99 1.06 3.99 3.15 0 2.2-1.48 3.31-3.99 3.31m18.55 21.72H5.01v-38h38v38Zm-8.18-14.2c0-3-1.33-4.75-4.14-6.04 2.2-1.56 3.08-3.27 3.08-5.58 0-5.39-4.29-6.69-9.69-6.69h-9.04v26.22h9.73c5.89 0 10.07-2.2 10.07-7.9Zm-10.11-3.64h-4.52v7.22h4.6c3.12 0 4.67-1.33 4.67-3.65s-1.56-3.57-4.75-3.57M45.77 6.81c0 1.24 1.01 2.25 2.25 2.25v2.37c-1.24 0-2.25 1.01-2.25 2.25s1.01 2.25 2.25 2.25v2.36c-1.24 0-2.25 1.01-2.25 2.25s1.01 2.25 2.25 2.25v2.37c-1.24 0-2.25 1.01-2.25 2.25s1.01 2.25 2.25 2.25v2.37c-1.24 0-2.25 1.01-2.25 2.25s1.01 2.25 2.25 2.25v2.36c-1.24 0-2.25 1.01-2.25 2.25s1.01 2.25 2.25 2.25v2.31c-1.24 0-2.25 1.01-2.25 2.25h-2.36c0-1.24-1.01-2.25-2.25-2.25s-2.25 1.01-2.25 2.25h-2.36c0-1.24-1.01-2.25-2.25-2.25s-2.25 1.01-2.25 2.25h-2.36c0-1.24-1.01-2.25-2.25-2.25s-2.25 1.01-2.25 2.25h-2.36c0-1.24-1.01-2.25-2.25-2.25s-2.25 1.01-2.25 2.25h-2.36c0-1.24-1.01-2.25-2.25-2.25s-2.25 1.01-2.25 2.25H9.11c0-1.24-1.01-2.25-2.25-2.25s-2.25 1.01-2.25 2.25H2.24A2.24 2.24 0 0 0 0 45.76v-2.37c1.24 0 2.25-1.01 2.25-2.25S1.24 38.89 0 38.89v-2.36c1.24 0 2.25-1.01 2.25-2.25S1.24 32.03 0 32.03v-2.37c1.24 0 2.25-1.01 2.25-2.25s-.99-2.25-2.23-2.25v-2.37c1.24 0 2.25-1.01 2.25-2.25S1.26 18.3.02 18.3v-2.36c1.24 0 2.25-1.01 2.25-2.25S1.26 11.43.02 11.43V9.06c1.24 0 2.25-1.01 2.25-2.25S1.26 4.56.02 4.56V2.2c1.24 0 2.25-1.01 2.25-2.25h2.36c0 1.24 1.01 2.25 2.25 2.25S9.12 1.19 9.12-.05h2.36c0 1.24 1.01 2.25 2.25 2.25s2.25-1.01 2.25-2.25h2.36c0 1.24 1.01 2.25 2.25 2.25s2.25-1.01 2.25-2.25h2.36c0 1.24 1.01 2.25 2.25 2.25S29.7 1.19 29.7-.05h2.36c0 1.24 1.01 2.25 2.25 2.25s2.25-1.01 2.25-2.25h2.36c0 1.24 1.01 2.25 2.25 2.25s2.25-1.01 2.25-2.25h2.36c0 1.24 1.01 2.25 2.25 2.25v2.36c-1.24 0-2.25 1.01-2.25 2.25Zm-1.75-2.85H4.01v40h40v-40Z"/></symbol><symbol id="s64" viewBox="0 0 64 64"><path d="M33.28 28h-5.6v-8.5h5.6c3.25 0 5.25 1.4 5.25 4.15 0 2.9-1.95 4.35-5.25 4.35m.35 5.1h-5.95v9.5h6.05c4.1 0 6.15-1.75 6.15-4.8s-2.05-4.7-6.25-4.7m23.89 24.41H6.51V6.5h51v51ZM46.93 37.9c0-3.95-1.75-6.25-5.45-7.95 2.9-2.05 4.05-4.3 4.05-7.35 0-7.1-5.65-8.8-12.75-8.8h-11.9v34.5h12.8c7.75 0 13.25-2.9 13.25-10.4M61.02 9.15c0 1.66 1.34 3 3 3v3.15c-1.66 0-3 1.34-3 3s1.34 3 3 3v3.15c-1.66 0-3 1.34-3 3s1.34 3 3 3v3.15c-1.66 0-3 1.34-3 3s1.34 3 3 3v3.15c-1.66 0-3 1.34-3 3s1.34 3 3 3v3.15c-1.66 0-3 1.34-3 3s1.34 3 3 3v3.08c-1.66 0-3 1.34-3 3h-3.14c0-1.66-1.34-3-3-3s-3 1.34-3 3h-3.14c0-1.66-1.34-3-3-3s-3 1.34-3 3H39.6c0-1.66-1.34-3-3-3s-3 1.34-3 3h-3.14c0-1.66-1.34-3-3-3s-3 1.34-3 3h-3.14c0-1.66-1.34-3-3-3s-3 1.34-3 3h-3.14c0-1.66-1.34-3-3-3s-3 1.34-3 3H3.02a2.993 2.993 0 0 0-2.99-2.93V57.9c1.66 0 3-1.34 3-3s-1.34-3-3-3v-3.15c1.66 0 3-1.34 3-3s-1.34-3-3-3V39.6c1.66 0 3-1.34 3-3s-1.34-3-3-3v-3.15c1.66 0 3-1.34 3-3S1.67 24.46.02 24.46v-3.15c1.66 0 3-1.34 3-3s-1.35-3.01-3-3.01v-3.15c1.66 0 3-1.34 3-3s-1.35-3-3-3V3c1.65 0 3-1.35 3-3h3.14c0 1.66 1.34 3 3 3s3-1.35 3-3h3.14c0 1.66 1.34 3 3 3s3-1.35 3-3h3.14c0 1.66 1.34 3 3 3s3-1.35 3-3h3.14c0 1.66 1.34 3 3 3s3.01-1.35 3.01-3h3.14c0 1.66 1.34 3 3 3s3-1.35 3-3h3.14c0 1.66 1.34 3 3 3s3-1.35 3-3h3.14c0 1.66 1.34 3 3 3v3.15c-1.66 0-3 1.34-3 3Zm-2.5-3.65H5.51v53h53v-53Z"/></symbol><use style="display: var(--s16, none)" href="#s16"/><use style="display: var(--s24, none)" href="#s24"/><use style="display: var(--s32, none)" href="#s32"/><use style="display: var(--s40, none)" href="#s40"/><use style="display: var(--s48, none)" href="#s48"/><use style="display: var(--s64, none)" href="#s64"/></symbol></defs><style>@media (max-width: 23.98px) {g{--s16:block;}}@media (min-width: 24px) and (max-width: 31.98px) {g{--s24:block;}}@media (min-width: 32px) and (max-width: 39.98px) {g{--s32:block;}}@media (min-width: 40px) and (max-width: 47.98px) {g{--s40:block;}}@media (min-width: 48px) and (max-width: 63.98px) {g{--s48:block;}}@media (min-width: 64px) {g{--s64:block;}}</style><g><use href="#i-stampbpost-solid"/></g></svg>