<svg xmlns="http://www.w3.org/2000/svg"><defs><symbol id="i-streetviewstreet-solid"><symbol id="s16" viewBox="0 0 16 16"><path d="m16 1.6-.3.3L14.64.84l.84-.84H1.08l.51.51L.53 1.57l-.49-.49V0H0v16h.04v-.56l1.49-1.49 1.06 1.06-1 1h1.46L16 3.06zM4.77 0c-.8.47-1.83.47-2.63 0h2.64ZM2.54 1.46l1.61 1.61-1.06 1.06-1.61-1.61zm-2.5.65c.49.81.49 1.83 0 2.64zm0 11.75v-2.12l3.81-3.81-.64-.64c-.42-.42-1.11-.42-1.53 0L.04 8.93V6.81l.59-.59a2.577 2.577 0 0 1 3.65 0l.64.64.46-.46-1.55-1.55 1.06-1.06 1.55 1.55.46-.46-.64-.64c-1-1-1-2.64 0-3.65L6.84 0h2.12L7.31 1.65c-.42.42-.42 1.1 0 1.52l.64.64L11.77 0h2.12zm3.55.14-1.06-1.06 2.03-2.03 1.06 1.06zm3.03-3.02L5.56 9.92l2.03-2.03 1.06 1.06zm3.03-3.03L8.59 6.89l2.03-2.03 1.06 1.06zm3.02-3.03-1.06-1.06 2.03-2.03 1.06 1.06zm1.06 4.69-1.08-1.08L16 5.18v3.69l-.75.75c-.42.42-1.11.42-1.52 0Zm-4.1 5.62-.77.77H5.17l3.37-3.37 1.08 1.08c.42.42.42 1.1 0 1.53Zm5.43-1.25.94.94v-4c-1.01.73-2.42.66-3.33-.25l-1.08-1.08-.46.46.4.4-1.06 1.06-.4-.4-.46.46 1.08 1.08c.91.91.99 2.34.24 3.35h4.03l-.96-.96zm-2.12 0-1.61-1.61 1.06-1.06L14 12.92z"/></symbol><symbol id="s24" viewBox="0 0 24 24"><path d="M6.1 11.88 0 17.98v-4.92l2.32-2.32c.71-.71 1.94-.71 2.64 0zM1.08 9.5 0 10.58V6.64c.21-.47.33-.97.33-1.5S.21 4.11 0 3.64V1.22l.94.94L2.18.92 1.25 0h2.44c.93.41 1.99.41 2.91 0h3.97L9.51 1.06a3.627 3.627 0 0 0 0 5.12l1.14 1.14-1.04 1.04-2.33-2.33-1.24 1.24L8.37 9.6l-1.04 1.04L6.19 9.5a3.627 3.627 0 0 0-5.12 0Zm1.28-5.91 2.42 2.42 1.24-1.24L3.6 2.35zm18.03 10.99c.71.71 1.94.71 2.64 0l.97-.97V7.37l-5.41 5.41zm-9.64-9.64 1.14 1.14L17.97 0h-4.92l-2.3 2.3c-.73.73-.73 1.91 0 2.64m12.6-2.29L24 2v2.9L4.9 24h2.47l5.42-5.42 1.8 1.8c.35.35.55.82.55 1.32s-.19.97-.55 1.32l-.98.98h2.43c1.18-1.42 1.12-3.53-.21-4.86l-1.8-1.8 1.04-1.04.78.78 1.24-1.24-.78-.78 1.04-1.04 1.8 1.8c1.33 1.33 3.43 1.39 4.85.22v6.71l-1.61-1.61-1.24 1.24L22.77 24h1.22-24 2l1.68-1.68-1.24-1.24-2.44 2.44v-3.07L20.45 0h3.07l-1.41 1.41zm-6.21 15.72 2.42 2.42 1.24-1.24-2.42-2.42zm-8.92-.59-1.24-1.24-3.04 3.04 1.24 1.24zm4.54-4.54L11.52 12l-3.04 3.04 1.24 1.24zm4.55-4.54-1.24-1.24-3.04 3.04 1.24 1.24zm4.54-4.55-1.24-1.24-3.04 3.04 1.24 1.24z"/></symbol><symbol id="s32" viewBox="0 0 32 32"><path d="M24.49 16.99 32 9.48v8.78l-1.25 1.25a2.653 2.653 0 0 1-3.75 0L24.49 17ZM32 21.06v9.52l-2.34-2.34-1.41 1.41L30.6 32h-9.54c1.67-1.82 1.64-4.66-.13-6.42l-2.51-2.51 1.62-1.62 1.15 1.15 1.41-1.41-1.15-1.15 1.62-1.62 2.51 2.51c1.76 1.76 4.59 1.8 6.42.14Zm-4.46 5.06-3.22-3.22-1.41 1.41 3.22 3.22zm-8.02.87-2.51-2.51L9.49 32h8.78l1.26-1.26a2.66 2.66 0 0 0 0-3.75ZM1.51 12.73 0 14.24V1.4l1.32 1.32 1.41-1.41L1.42 0h12.82l-1.5 1.5a4.666 4.666 0 0 0 0 6.58l1.64 1.64-1.62 1.62-2.98-2.98-1.41 1.41 2.98 2.98-1.62 1.62-1.64-1.64a4.666 4.666 0 0 0-6.58 0m1.71-8.1 3.22 3.22 1.41-1.41-3.22-3.22zm3.46 9.52a2.653 2.653 0 0 0-3.75 0L.01 17.07v7.03l8.31-8.31zm7.48-7.48 1.64 1.64L24.1 0h-7.03l-2.91 2.91a2.66 2.66 0 0 0 0 3.75Zm16.78-3.29L32 2.32v4.33L6.65 32H2.32l2.42-2.42-1.41-1.41L0 31.5v-4.56L26.93 0h4.56l-1.97 1.97 1.41 1.41ZM10.79 23.53l-1.41-1.41-4.05 4.05 1.41 1.41zm6.05-6.05-1.41-1.41-4.05 4.05 1.41 1.41zm6.05-6.05-1.41-1.41-4.05 4.05 1.41 1.41zm6.05-6.05-1.41-1.41-4.05 4.05 1.41 1.41z"/></symbol><symbol id="s40" viewBox="0 0 40 40"><path d="m32.22 26.05-3.31-3.31-2.4 2.4 1.64 1.59-1.41 1.41-1.64-1.59-2.35 2.35 3.31 3.31c1.05 1.05 1.63 2.45 1.63 3.93s-.56 2.81-1.56 3.85h12.46l-3.04-3.04 1.41-1.41L40 38.58V26.12c-2.18 2.09-5.64 2.07-7.78-.07m.68 8.26-4.02-4.02 1.41-1.41 4.02 4.02zm-8.26 4.36L23.31 40H11.64l9.68-9.68 3.31 3.31c.67.67 1.04 1.57 1.04 2.52s-.37 1.85-1.04 2.52Zm5.68-17.34L40 11.65v11.67l-1.33 1.33a3.567 3.567 0 0 1-5.04 0l-3.31-3.31ZM17.6 3.56 21.16 0h9.48L19.82 10.82 17.6 8.6c-.67-.67-1.04-1.57-1.04-2.52s.37-1.85 1.04-2.52m19.54-.83L39.87 0h-6.4L0 33.46v-2.83l10.82-10.82-2.22-2.22a3.567 3.567 0 0 0-5.04 0L0 21.15v-2.83l2.14-2.14c1.05-1.05 2.45-1.63 3.93-1.63s2.88.58 3.93 1.63l2.22 2.22 2.38-2.38-3.61-3.61L12.4 11l3.61 3.61 2.38-2.38-2.22-2.22c-1.05-1.05-1.63-2.45-1.63-3.93s.58-2.88 1.63-3.93L18.32 0H1.42l1.92 1.92-1.41 1.41L0 1.41V40v-.13l4.41-4.41 1.41 1.41L2.69 40h6.12L39.99 8.82V2.7l-1.45 1.45-1.41-1.41ZM5.7 4.29l4.02 4.02-1.41 1.41L4.29 5.7zm2.63 30.08-1.41-1.41 5.06-5.06 1.41 1.41zm7.56-7.55-1.41-1.41 5.06-5.06 1.41 1.41zm7.55-7.56-1.41-1.41 5.06-5.06 1.41 1.41zM31 11.7l-1.41-1.41 5.06-5.06 1.41 1.41z"/></symbol><symbol id="s48" viewBox="0 0 48 48"><path d="M0-.01 1.78 0l2.19 2.19L2.2 3.96 0 1.75v20.06l2.48-2.48c1.27-1.27 2.96-1.97 4.76-1.97s3.49.7 4.76 1.97l2.64 2.64 2.79-2.79-4.52-4.52 1.77-1.77 4.52 4.52 2.79-2.79-2.64-2.64c-1.27-1.27-1.97-2.96-1.97-4.76s.7-3.49 1.97-4.76l2.47-2.47h3.54l-4.23 4.23c-.8.8-1.24 1.86-1.24 3s.44 2.19 1.24 2.99l2.64 2.64L36.61 0h3.54L0 40.14v7.56l5.21-5.2 1.77 1.77-3.72 3.72h7.22L48 10.46V14L36.44 25.56l3.95 3.95c.8.8 1.86 1.24 3 1.24s2.19-.44 2.99-1.24L48 27.89v3.52c-1.25 1.18-2.88 1.84-4.61 1.84s-3.49-.7-4.76-1.97l-3.95-3.95-2.71 2.71 1.83 1.98-1.77 1.77-1.83-1.98-2.86 2.86 3.95 3.95c2.58 2.58 2.62 6.74.13 9.38h14.82l-3.61-3.61 1.77-1.77 3.61 3.61V48-.01zm9.89 11.65L5.06 6.81l1.77-1.77 4.83 4.83zm29.55 29.55-4.83-4.83 1.77-1.77 4.83 4.83zm-29.46.08L8.21 39.5l6.08-6.08 1.77 1.77zm9.08-9.08-1.77-1.77 6.08-6.08 1.77 1.77zm9.08-9.09-1.77-1.77 6.08-6.08 1.77 1.77zm9.08-9.08-1.77-1.77 6.08-6.08 1.77 1.77zM48 3.24l-1.69 1.69-1.77-1.77 3.17-3.17H48v3.24ZM29.51 40.38a4.243 4.243 0 0 1 0 5.99l-1.62 1.62H14l11.56-11.56zM12.87 23.74 0 36.61V25.35l4.25-4.25c.8-.8 1.86-1.24 2.99-1.24s2.2.44 3 1.24l2.64 2.64Z"/></symbol><symbol id="s64" viewBox="0 0 64 64"><path d="m64 3.66-2.77 2.77-1.95-1.95L63.76 0H52.93L0 52.94v-3.89l17.49-17.49-3.7-3.7c-2.3-2.3-6.04-2.3-8.34 0L.01 33.3v-3.89l3.5-3.5c3.37-3.37 8.86-3.37 12.23 0l3.7 3.7 4.12-4.12-6.41-6.41 1.95-1.95 6.41 6.41 4.07-4.07-3.7-3.7c-3.37-3.37-3.37-8.86 0-12.23l3.55-3.55H1.89l3.18 3.18-1.95 1.95L0 2V0v64-.23l7.12-7.12 1.95 1.95-5.4 5.4h10.37L64 14.03zM8.86 6.96l6.41 6.41-1.95 1.95-6.41-6.41zm4.18 47.66-1.95-1.95 8.07-8.07 1.95 1.95zm12.05-12.05-1.95-1.95 8.07-8.07 1.95 1.95zm12.05-12.04-1.95-1.95 8.07-8.07 1.95 1.95zm12.04-12.05-1.95-1.95 8.07-8.07 1.95 1.95zM27.82 5.5l5.5-5.5h15.74L31.52 17.54l-3.7-3.7c-2.3-2.3-2.3-6.04 0-8.34m25.57 33.91-5.44-5.44L64 17.92v19.22l-2.27 2.27c-2.3 2.3-6.04 2.3-8.35 0ZM39.36 61.78 37.14 64H17.92l16-16 5.44 5.44c1.12 1.11 1.73 2.6 1.73 4.17s-.61 3.06-1.73 4.17m19.33-4.99L64 62.1V41.03l-.32.32c-3.37 3.37-8.86 3.37-12.23 0l-5.44-5.44-4.1 4.1 2.73 2.73-1.95 1.95-2.73-2.73-4.1 4.1 5.44 5.44c1.63 1.63 2.53 3.81 2.53 6.12s-.9 4.48-2.53 6.12l-.27.27H62l-5.26-5.26 1.95-1.95Zm-6.17-2.27-6.41-6.41 1.95-1.95 6.41 6.41z"/></symbol><use style="display: var(--s16, none)" href="#s16"/><use style="display: var(--s24, none)" href="#s24"/><use style="display: var(--s32, none)" href="#s32"/><use style="display: var(--s40, none)" href="#s40"/><use style="display: var(--s48, none)" href="#s48"/><use style="display: var(--s64, none)" href="#s64"/></symbol></defs><style>@media (max-width: 23.98px) {g{--s16:block;}}@media (min-width: 24px) and (max-width: 31.98px) {g{--s24:block;}}@media (min-width: 32px) and (max-width: 39.98px) {g{--s32:block;}}@media (min-width: 40px) and (max-width: 47.98px) {g{--s40:block;}}@media (min-width: 48px) and (max-width: 63.98px) {g{--s48:block;}}@media (min-width: 64px) {g{--s64:block;}}</style><g><use href="#i-streetviewstreet-solid"/></g></svg>