<svg xmlns="http://www.w3.org/2000/svg"><defs><symbol id="i-streetviewsatellite-solid"><symbol id="s16" viewBox="0 0 16 16"><path d="M0 0v16h16V0zm1.6 2.03.94-.94a1.25 1.25 0 0 1 1.77 0l.52.52-2.71 2.71-.53-.53a1.25 1.25 0 0 1 0-1.77Zm7.47 9.23.82-.82-.97-.97-.9.9-.65-.65-.67.67c.78 1.28.62 2.97-.48 4.08l-.53.53-1.82-1.82-.68.68s.01.04.01.06c0 .3-.12.59-.33.8s-.5.33-.8.33-.59-.12-.8-.33-.33-.49-.33-.8.12-.59.33-.8.49-.33.8-.33.04.01.06.01l.68-.68L.99 10.3l.53-.53c1.09-1.09 2.87-1.23 4.15-.44l.65-.65-.7-.7.9-.9-1.17-1.17-.82.82L3.2 5.4l2.71-2.71 1.33 1.33-.82.82 1.17 1.17.94-.94.7.7.85-.85-1.05-1.05L11.4 1.5a1.25 1.25 0 0 1 1.77 0l1.37 1.37c.49.49.49 1.28 0 1.77l-2.37 2.37-1.03-1.03-.85.85.65.65-.94.94.97.97.82-.82 1.37 1.37-2.71 2.71-1.37-1.37Zm5.63 1.98-.94.94c-.24.24-.56.37-.88.37s-.64-.12-.88-.37l-.49-.49 2.71-2.71.49.49c.49.49.49 1.28 0 1.77Z"/></symbol><symbol id="s24" viewBox="0 0 24 24"><path d="M0 0v24h24V0zm4.91 3.8 1.5-1.5a1.4 1.4 0 0 1 1.97 0l.93.93-3.48 3.48-.93-.93c-.26-.26-.41-.62-.41-.99s.15-.72.41-.99Zm2.71 18.33c-.57.24-1.16.36-1.75.36a4.372 4.372 0 0 1-4-6.11c.19-.44.71-.65 1.15-.46s.65.71.46 1.15a2.62 2.62 0 0 0 3.45 3.45c.44-.19.96.01 1.15.46.19.44-.01.96-.46 1.15m14.08-4.55-1.5 1.5c-.27.27-.63.41-.99.41s-.71-.13-.98-.41l-.88-.88 3.47-3.47.88.88a1.385 1.385 0 0 1 0 1.97m.15-10.98-3.69 3.69-1.61-1.61-.87.87.91.91-1.14 1.14 1.14 1.14 1.12-1.12 1.86 1.86-3.47 3.47-1.86-1.86 1.12-1.12-1.14-1.14-1.05 1.05-.91-.91-.66.66c1.12 1.7.93 4.02-.56 5.51l-.62.62-2.48-2.48-.41.41c.06.44-.05.9-.39 1.24-.29.29-.66.43-1.04.43s-.75-.14-1.04-.43a1.46 1.46 0 0 1 0-2.08c.34-.34.8-.45 1.24-.39l.41-.41-2.48-2.48.62-.62c.83-.83 1.93-1.29 3.1-1.29.88 0 1.71.26 2.43.73l.66-.66-.92-.92 1.05-1.05-1.14-1.14-1.12 1.12L7.1 7.93l3.48-3.48 1.81 1.81-1.12 1.12 1.14 1.14 1.14-1.14.92.92.87-.87-1.62-1.62 3.69-3.69c.26-.26.62-.41.98-.41.35 0 .68.14.92.38l2.59 2.59c.52.52.5 1.37-.03 1.91Z"/></symbol><symbol id="s32" viewBox="0 0 32 32"><path d="M0 0v31.99h32V0zm8.13 4.5 2.04-2.04c.66-.66 1.75-.66 2.41 0l1.4 1.39L9.53 8.3l-1.4-1.4a1.7 1.7 0 0 1 0-2.41Zm1.1 25.52a5.49 5.49 0 0 1-6.09-1.16c-1.61-1.61-2.06-4-1.16-6.09.22-.51.81-.74 1.31-.52.51.22.74.81.52 1.31-.58 1.34-.29 2.86.74 3.89a3.53 3.53 0 0 0 3.89.74c.51-.22 1.1.02 1.31.52.22.51-.02 1.1-.52 1.31m1.69-3.47c-.54.23-1.1.34-1.66.34a4.15 4.15 0 0 1-2.94-1.22 4.16 4.16 0 0 1-.88-4.6c.22-.51.81-.74 1.31-.52.51.22.74.81.52 1.31-.35.82-.18 1.76.45 2.39s1.57.81 2.39.45c.5-.21 1.1.02 1.31.52.22.51-.02 1.1-.52 1.31Zm8.87-7.98 1.52-1.52-1.24-1.24-1.15 1.15-1.22-1.22-.65.65a5.73 5.73 0 0 1 1.08 3.33c0 1.54-.6 2.99-1.69 4.07l-.71.71-3.42-3.42-.7.7a1.59 1.59 0 0 1-1.59 1.78c-.43 0-.83-.17-1.14-.47a1.6 1.6 0 0 1 0-2.27c.3-.3.71-.47 1.14-.47.06 0 .12.01.18.02l.7-.7-3.32-3.32.71-.71c1.99-1.99 5.09-2.21 7.34-.66l.66-.66-1.27-1.27 1.15-1.15-1.25-1.25-1.52 1.52-2.46-2.46 4.45-4.45 2.46 2.46-1.52 1.52 1.25 1.25 1.37-1.37 1.27 1.27 1.12-1.12-2.02-2.02 4.33-4.33c.3-.3.7-.47 1.12-.47.41 0 .8.16 1.09.45l3.2 3.2c.29.29.45.68.45 1.1s-.17.82-.47 1.13l-4.32 4.32-1.97-1.97-1.12 1.12 1.22 1.22-1.37 1.37 1.24 1.24 1.52-1.52 2.53 2.53-4.45 4.45-2.53-2.53Zm9.72 3.23-2.04 2.04a1.71 1.71 0 0 1-2.42 0l-1.32-1.32 4.45-4.45 1.32 1.32a1.7 1.7 0 0 1 0 2.41Z"/></symbol><symbol id="s40" viewBox="0 0 40 40"><path d="M0 0v40h40V0zm9.99 4.94 2.67-2.67c.8-.8 2.1-.79 2.89 0l1.96 1.96-5.57 5.57-1.96-1.96c-.39-.39-.6-.9-.6-1.45s.21-1.06.6-1.45Zm2.34 32.4c-.95.41-1.95.61-2.93.61-1.91 0-3.77-.74-5.18-2.15a7.32 7.32 0 0 1-1.55-8.11c.24-.57.91-.84 1.48-.59s.83.91.59 1.48a5.09 5.09 0 0 0 1.07 5.63 5.055 5.055 0 0 0 5.63 1.07 1.126 1.126 0 1 1 .89 2.07Zm1.42-3.87c-.71.3-1.45.45-2.19.45-1.42 0-2.81-.56-3.87-1.61a5.44 5.44 0 0 1-1.15-6.05c.24-.57.9-.84 1.48-.59.57.25.83.91.59 1.48-.53 1.23-.26 2.63.68 3.57s2.35 1.21 3.57.68a1.126 1.126 0 1 1 .89 2.07m11.64-10.24 1.99-1.99-1.88-1.88-1.74 1.74-1.63-1.63-1.29 1.29c2.11 2.88 1.87 6.95-.73 9.55l-.8.8-4.41-4.41-1.1 1.1c.09.59-.08 1.21-.53 1.66-.38.38-.87.56-1.36.56s-.98-.19-1.36-.56c-.75-.75-.75-1.97 0-2.72.45-.45 1.07-.62 1.66-.53l1.1-1.1L8.9 20.7l.79-.79a7.32 7.32 0 0 1 5.2-2.16c1.58 0 3.09.51 4.34 1.43l1.29-1.29-1.63-1.63 1.74-1.74-1.89-1.89-1.99 1.99-3.22-3.22 5.57-5.57 3.22 3.22-1.99 1.99 1.89 1.89 1.74-1.74 1.63 1.63 1.8-1.8-2.61-2.61 5.46-5.46c.36-.36.83-.55 1.33-.55.49 0 .96.19 1.31.54l4.19 4.19c.72.72.72 1.91-.01 2.64l-5.46 5.46-2.61-2.61-1.8 1.8 1.63 1.63-1.74 1.74 1.88 1.88 1.99-1.99 3.31 3.31-5.57 5.57-3.31-3.31Zm12.33 4.1L35.05 30c-.4.4-.92.6-1.45.6s-1.05-.2-1.45-.6l-1.86-1.86 5.57-5.57 1.86 1.86c.8.8.8 2.1 0 2.89Z"/></symbol><symbol id="s48" viewBox="0 0 48 48"><path d="M0 0v48h48V0zm11.1 6.01 3.31-3.31c.93-.93 2.45-.93 3.38 0l2.53 2.53-6.7 6.7-2.53-2.53c-.93-.93-.93-2.45 0-3.38Zm.88 39.82c-.97.42-1.98.62-2.98.62-1.94 0-3.83-.76-5.27-2.19-2.17-2.17-2.79-5.41-1.57-8.25.27-.63 1.01-.93 1.64-.65.63.27.93 1.01.65 1.64a4.97 4.97 0 0 0 1.04 5.49 4.93 4.93 0 0 0 5.49 1.04c.64-.27 1.37.02 1.64.65s-.02 1.37-.65 1.64Zm2.34-4.78c-.72.31-1.48.46-2.24.46a5.6 5.6 0 0 1-3.95-1.64 5.58 5.58 0 0 1-1.18-6.19c.27-.63 1-.93 1.64-.65.63.27.93 1.01.65 1.64-.51 1.18-.25 2.53.65 3.43s2.25 1.16 3.43.65c.64-.27 1.37.02 1.64.65s-.02 1.37-.65 1.64Zm15.97-12.47 2.46-2.46-2.53-2.53-1.93 1.93-1.86-1.86-1.48 1.48a8.94 8.94 0 0 1 1.68 5.21c0 2.4-.93 4.65-2.63 6.35l-.88.88-5.47-5.47-1.51 1.51c.03.14.04.28.04.43 0 .6-.23 1.16-.66 1.58a2.29 2.29 0 0 1-2.01.61s-.01 0-.01 0a2.24 2.24 0 0 1-1.14-.61c-.32-.32-.53-.72-.61-1.14s0-.01 0-.01c-.14-.71.07-1.47.61-2.01.55-.54 1.31-.75 2.01-.61l1.51-1.51-5.47-5.47.88-.88c3.26-3.26 8.41-3.48 11.93-.68l1.44-1.44-2.18-2.18 1.93-1.93-2.55-2.55-2.46 2.46-3.99-3.99 6.7-6.7 3.99 3.99-2.46 2.46 2.55 2.55 2.19-2.19 2.18 2.18 2.09-2.09-3.63-3.63 6.9-6.9c.87-.87 2.28-.86 3.14 0l5.57 5.57c.42.42.65.98.65 1.57s-.23 1.15-.65 1.57l-6.9 6.9-3.31-3.31-2.09 2.09 1.86 1.86L32 21.8l2.53 2.53 2.46-2.46 4.11 4.11-6.7 6.7-4.11-4.11Zm14.99 4.98-3.31 3.31c-.45.45-1.05.7-1.69.7s-1.24-.25-1.69-.7l-2.41-2.41 6.7-6.7 2.41 2.41c.93.93.93 2.45 0 3.38Z"/></symbol><symbol id="s64" viewBox="0 0 64 64"><path d="M0 0v64h64V0zm11.07 7.79 4.91-4.91c1.2-1.2 3.14-1.2 4.34 0l4.09 4.09-9.26 9.26-4.09-4.09c-.58-.58-.9-1.35-.9-2.17s.32-1.59.9-2.17Zm7.41 53.19c-1.52.66-3.12.97-4.69.97-3.05 0-6.04-1.19-8.3-3.45-3.42-3.43-4.4-8.52-2.48-12.99a1.376 1.376 0 1 1 2.53 1.09c-1.47 3.43-.73 7.34 1.9 9.96 2.62 2.62 6.53 3.37 9.96 1.9a1.376 1.376 0 1 1 1.09 2.53Zm1.49-5.57c-1.12.48-2.29.71-3.45.71-2.24 0-4.44-.88-6.1-2.54-2.52-2.52-3.23-6.27-1.82-9.55a1.376 1.376 0 1 1 2.53 1.09c-.96 2.24-.48 4.8 1.24 6.52s4.28 2.2 6.52 1.24a1.376 1.376 0 1 1 1.09 2.53Zm19.91-14.47 3.66-3.66-4.44-4.44-2.89 2.89-2.79-2.79-2.09 2.09c3.87 5.03 3.51 12.29-1.09 16.9l-.97.97-8.11-8.11-1.5 1.5c.27.96.04 2.03-.71 2.78-.55.55-1.28.83-2.01.83a2.84 2.84 0 0 1-2.01-4.85c.75-.75 1.83-.98 2.78-.71l1.5-1.5-8.11-8.11.97-.97c4.75-4.75 12.32-4.99 17.36-.73l2.04-2.04-3.21-3.21 2.89-2.89-4.47-4.47-3.66 3.66-5.92-5.92 9.26-9.26 5.92 5.92-3.66 3.66 4.47 4.47 2.89-2.89 3.21 3.21 3.37-3.37-5.34-5.34L48.27 3.51c.54-.54 1.25-.87 1.98-.92.79-.05 1.57.22 2.11.77l8.11 8.11c.54.54.83 1.32.77 2.11-.05.74-.38 1.44-.92 1.98L49.26 26.61l-4.77-4.77-3.37 3.37L43.91 28l-2.89 2.89 4.44 4.44 3.66-3.66 6.09 6.09-9.26 9.26-6.09-6.09Zm21.21 7.05-4.91 4.91c-.58.58-1.35.9-2.17.9s-1.59-.32-2.17-.9l-3.92-3.92 9.26-9.26 3.92 3.92c.58.58.9 1.35.9 2.17s-.32 1.59-.9 2.17Z"/></symbol><use style="display: var(--s16, none)" href="#s16"/><use style="display: var(--s24, none)" href="#s24"/><use style="display: var(--s32, none)" href="#s32"/><use style="display: var(--s40, none)" href="#s40"/><use style="display: var(--s48, none)" href="#s48"/><use style="display: var(--s64, none)" href="#s64"/></symbol></defs><style>@media (max-width: 23.98px) {g{--s16:block;}}@media (min-width: 24px) and (max-width: 31.98px) {g{--s24:block;}}@media (min-width: 32px) and (max-width: 39.98px) {g{--s32:block;}}@media (min-width: 40px) and (max-width: 47.98px) {g{--s40:block;}}@media (min-width: 48px) and (max-width: 63.98px) {g{--s48:block;}}@media (min-width: 64px) {g{--s64:block;}}</style><g><use href="#i-streetviewsatellite-solid"/></g></svg>