<svg xmlns="http://www.w3.org/2000/svg"><defs><symbol id="i-streetviewsatellite"><symbol id="s16" viewBox="0 0 16 16"><path d="m11.82 8.64-1.08 1.08-.82-.83 1.18-1.18.93.93 3.62-3.63c.49-.49.49-1.28 0-1.77L12.79.37c-.49-.49-1.28-.49-1.76 0L7.41 4l.88.88-1.18 1.18-.82-.82 1.08-1.08L3.59.39C3.1-.1 2.31-.1 1.83.39L.38 1.84a1.25 1.25 0 0 0 0 1.77l3.76 3.77L5.22 6.3l.82.82-1.46 1.46c-.36-.1-.74-.17-1.12-.17-1.1 0-2.13.43-2.91 1.21l-.54.53 2.38 2.39-.97.98c-.37-.05-.76.05-1.04.34-.48.49-.48 1.28 0 1.77.24.24.56.37.88.37s.64-.12.88-.37c.28-.28.38-.67.33-1.04l.97-.98L5.82 16l.53-.53c.78-.78 1.21-1.82 1.21-2.92 0-.39-.07-.76-.17-1.13l1.46-1.46.82.83-1.08 1.08 3.76 3.77c.24.24.56.36.88.36s.64-.12.88-.36l1.44-1.45c.49-.49.49-1.28 0-1.77l-3.76-3.77ZM2.71 1.63l.78.79L2.4 3.51l-.78-.79zm.75 2.94 1.09-1.1.68.69-1.09 1.09-.68-.69Zm8.44-2.96.7.7-1.68 1.68 1.06 1.06 1.68-1.68.75.75-2.39 2.4L9.51 4l2.39-2.4ZM5.76 13.8 2.2 10.23c.98-.53 2.3-.36 3.11.45.5.5.77 1.16.77 1.86 0 .44-.11.87-.32 1.25Zm.26-4.53 3.32-3.33.71.71-3.32 3.33zm5.8 1.49.73.74-1.09 1.1-.73-.74 1.09-1.09Zm1.43 3.63-.73-.74 1.09-1.1.73.74z"/></symbol><symbol id="s24" viewBox="0 0 24 24"><path d="m18.64 11.31-1.4 1.4-1.21-1.21 1.69-1.68L18.9 11l4.66-4.66c.29-.29.45-.67.45-1.08s-.16-.79-.45-1.08L19.82.44a1.54 1.54 0 0 0-2.16 0L13 5.1l1.18 1.18-1.69 1.68-1.22-1.22 1.4-1.4L7.82.49c-.58-.58-1.59-.58-2.17 0L3.76 2.38c-.59.6-.59 1.56 0 2.16L8.6 9.38l1.4-1.4 1.22 1.22-2.02 2.02c-1.8-.53-3.82-.11-5.23 1.3l-.62.62 3.12 3.12-1.29 1.29c-.52-.1-1.1.04-1.49.43a1.62 1.62 0 0 0 1.15 2.77 1.62 1.62 0 0 0 1.63-1.62c0-.12-.02-.24-.04-.35l1.28-1.28 3.12 3.11.62-.62c1-1 1.55-2.32 1.55-3.73 0-.52-.1-1.02-.24-1.5l2.02-2.02 1.21 1.21-1.4 1.4 4.84 4.84c.29.29.67.45 1.08.45s.79-.16 1.08-.45l1.89-1.89c.29-.29.45-.67.45-1.08s-.16-.79-.45-1.08l-4.84-4.84ZM6.73 1.89 7.9 3.06 6.33 4.63 5.16 3.46zm.84 3.97 1.57-1.57 1.04 1.04L8.61 6.9zm11.16-4.03 1.09 1.09-1.77 1.77 1.24 1.24 1.77-1.77 1.09 1.09-3.26 3.26-3.42-3.42zm-7.97 16.23-4.84-4.84c1.35-.8 3.13-.62 4.29.54.67.67 1.03 1.55 1.03 2.5 0 .64-.17 1.26-.49 1.8Zm.69-5.54-.53-.53 4.48-4.48 1.07 1.07-4.48 4.48-.53-.53Zm7.19 1.27 1.1 1.1-1.57 1.57-1.1-1.1zm1.87 5.01-1.1-1.1 1.57-1.57 1.1 1.1zM7.82 22.4c.19.44-.01.96-.46 1.15-.68.29-1.4.44-2.1.44-1.37 0-2.71-.53-3.72-1.55C0 20.91-.43 18.62.43 16.62c.19-.44.7-.65 1.15-.46.44.19.65.71.46 1.15-.58 1.34-.28 2.86.74 3.89 1.03 1.03 2.55 1.31 3.89.74a.87.87 0 0 1 1.15.46"/></symbol><symbol id="s32" viewBox="0 0 32 32"><path d="m25.01 15.15-1.87 1.87-1.85-1.85 2.48-2.48 1.57 1.57 6.1-6.09a1.86 1.86 0 0 0 0-2.64l-1.72-1.72.02-.02-1.42-1.42-.02.02L26.45.54c-.73-.73-1.92-.73-2.64 0l-6.1 6.09 1.57 1.57-2.48 2.48-1.87-1.87 1.87-1.87L10.47.61c-.73-.73-1.91-.73-2.64 0L5.31 3.12c-.35.35-.55.82-.55 1.32s.19.97.55 1.32l6.34 6.33 1.87-1.87 1.87 1.87-1.52 1.52c-2.37-.74-5.05-.18-6.92 1.69l-.71.71 4.15 4.15-1.11 1.11c-.55-.09-1.13.07-1.53.47-.33.33-.51.77-.51 1.24a1.74 1.74 0 0 0 1.75 1.75 1.74 1.74 0 0 0 1.72-2.06l1.09-1.09 4.15 4.15.71-.71a6.87 6.87 0 0 0 1.69-6.92l1.52-1.52 1.85 1.85-1.87 1.87 6.33 6.33c.35.35.82.55 1.32.55s.97-.19 1.32-.55l2.52-2.51c.73-.73.73-1.91 0-2.64L25 15.15ZM9.14 2.12l1.79 1.79L8.6 6.24 6.81 4.45zm.88 5.53 2.33-2.33 1.62 1.62-2.33 2.33zm10.52-1.02 4.59-4.59 1.75 1.75-2.31 2.31 1.42 1.42 2.31-2.31 1.63 1.63-4.59 4.59-.15-.15-4.49-4.49-.15-.15Zm1.81 4.64-4.83 4.83-1.66-1.66 4.83-4.83zm-6.48 11.56-6.74-6.74a4.895 4.895 0 0 1 6.11.63 4.87 4.87 0 0 1 .63 6.11m9.14-4.85 1.7 1.7-2.33 2.33-1.71-1.7L25 17.98Zm2.5 7.15-1.7-1.7 2.33-2.33 1.71 1.7-2.33 2.33Zm-17.42 4.98c.22.51-.02 1.1-.52 1.32-.89.38-1.82.57-2.74.57-1.78 0-3.52-.69-4.84-2.01a6.86 6.86 0 0 1-1.44-7.58c.22-.51.81-.74 1.32-.52s.74.81.52 1.32a4.86 4.86 0 0 0 1.02 5.37 4.85 4.85 0 0 0 5.37 1.02c.51-.21 1.1.02 1.32.52Zm1.34-3.65c.22.51-.02 1.1-.53 1.31-.66.28-1.35.42-2.04.42a5.1 5.1 0 0 1-3.6-1.5 5.08 5.08 0 0 1-1.08-5.63c.22-.51.81-.74 1.32-.52s.74.81.52 1.32a3.099 3.099 0 0 0 4.08 4.08c.51-.22 1.1.02 1.32.52Z"/></symbol><symbol id="s40" viewBox="0 0 40 40"><path d="m31.41 19.01-2.34 2.34-2.49-2.49 3.28-3.28 1.96 1.96 7.53-7.52c.86-.86.86-2.27 0-3.13L33.13.67c-.86-.86-2.26-.86-3.13 0L22.48 8.2l1.96 1.96-3.28 3.28-2.51-2.51 2.34-2.34L13.16.75c-.86-.86-2.26-.86-3.13 0L6.89 3.89c-.42.42-.65.97-.65 1.56s.23 1.15.65 1.56l7.82 7.82 2.34-2.34L19.56 15l-2.05 2.05a8.45 8.45 0 0 0-8.59 2.06l-.8.8 5.19 5.19-1.5 1.5c-.66-.14-1.37.05-1.88.56s-.69 1.22-.56 1.88l-.03.03.06.06c.09.35.26.68.53.95s.6.44.95.53l.06.06.03-.03c.14.03.28.05.42.05.53 0 1.06-.2 1.46-.6.51-.51.69-1.22.56-1.88l1.5-1.5 5.19 5.19.8-.8c1.6-1.6 2.48-3.72 2.48-5.98 0-.9-.15-1.78-.42-2.62L25 20.46l2.49 2.49-2.34 2.34 7.82 7.82c.43.43 1 .65 1.56.65s1.13-.21 1.56-.65l3.14-3.14c.86-.86.86-2.26 0-3.13l-7.82-7.82ZM11.57 2.35l2.44 2.44-3.1 3.1-2.42-2.4zm3.14 9.32L12.5 9.48l3.1-3.1 2.2 2.2zm10.94-3.49 5.88-5.93 2.39 2.39-2.97 2.97 1.59 1.59 2.97-2.97 2.21 2.21-5.91 5.91-.37-.37-5.43-5.43-.37-.37Zm2.62 5.8-6.21 6.21-2.25-2.25 6.21-6.21zm-8.25 14.65-8.64-8.64a6.21 6.21 0 0 1 9.73 5.11c0 1.28-.38 2.5-1.1 3.52Zm11.39-6.44 2.32 2.3-3.1 3.1-2.31-2.31zm3.12 9.29-2.31-2.31 3.1-3.1 2.31 2.3-3.11 3.11Zm-22.15 6.36c.25.57-.02 1.23-.59 1.48a8.4 8.4 0 0 1-9.32-1.78C0 35.08-.69 31.42.69 28.21a1.126 1.126 0 1 1 2.07.89 6.18 6.18 0 0 0 1.3 6.84c1.81 1.81 4.49 2.31 6.84 1.3.57-.25 1.23.02 1.48.59Zm1.67-4.56c.25.57-.02 1.23-.59 1.48a6.22 6.22 0 0 1-6.9-1.31 6.23 6.23 0 0 1-1.32-6.9c.24-.57.9-.84 1.48-.59.57.25.84.91.59 1.48-.65 1.52-.32 3.26.84 4.42a4 4 0 0 0 4.42.84c.57-.25 1.23.02 1.48.59Z"/></symbol><symbol id="s48" viewBox="0 0 48 48"><path d="m37.77 22.86-2.81 2.81-3.13-3.13 4.08-4.08 2.35 2.35 8.96-8.96c1-1 1-2.61 0-3.61L39.75.77c-.99-1-2.62-1-3.61 0l-8.96 8.96 2.35 2.35-4.08 4.08-3.15-3.15 2.81-2.81L15.79.88c-.99-1-2.62-1-3.61 0L8.41 4.65c-.99.99-.99 2.61 0 3.61l9.32 9.32 2.81-2.81 3.15 3.15-2.57 2.57c-3.49-1.15-7.5-.35-10.27 2.42l-.88.88 6.23 6.23-1.91 1.91a2.4 2.4 0 0 0-.54-.07 2.377 2.377 0 0 0-2.31 2.92l-.08.08.14.14c.11.34.29.65.56.92.26.26.58.45.92.56l.14.14.08-.08c.18.04.36.07.54.07.64 0 1.23-.25 1.68-.7.6-.6.8-1.44.63-2.22l1.92-1.91 6.23 6.23.88-.88c2.77-2.77 3.57-6.78 2.42-10.27l2.57-2.57 3.13 3.13-2.81 2.81 9.32 9.32a2.56 2.56 0 0 0 3.61-.01l3.77-3.77c.99-.99.99-2.61 0-3.61l-9.32-9.32ZM14.02 2.65l3 3-3.82 3.82-3.03-3.05zm.95 8.6 3.83-3.83 2.78 2.78-3.84 3.84zm15.75-1.52 7.26-7.2 2.94 2.94-3.64 3.64 1.77 1.77 3.64-3.64L45.45 10v.07l-7.19 7.19-.59-.59-6.37-6.37-.58-.58Zm3.42 6.96-7.59 7.6-2.84-2.84 7.59-7.6zM24.11 34.42 13.57 23.88c2.95-2.1 7.08-1.83 9.73.81 2.64 2.65 2.91 6.78.81 9.73m13.66-8.02 2.9 2.92-3.83 3.83-2.91-2.91zm3.78 11.39s-.05.02-.08 0l-2.87-2.87 3.82-3.82 2.9 2.92zm-26.9 7.75c.27.63-.02 1.37-.66 1.64-1.3.56-2.66.83-4 .83-2.6 0-5.15-1.02-7.08-2.94A10.02 10.02 0 0 1 .8 33.99c.27-.63 1.01-.93 1.64-.66.64.27.93 1.01.66 1.64a7.53 7.53 0 0 0 1.58 8.33c2.19 2.19 5.46 2.81 8.32 1.58.64-.27 1.37.02 1.64.66Zm1.47-4.93c.27.63-.02 1.37-.66 1.64-.96.41-1.96.61-2.95.61-1.92 0-3.8-.75-5.22-2.17a7.38 7.38 0 0 1-1.56-8.17c.27-.63 1.01-.93 1.64-.66.64.27.93 1.01.66 1.64-.8 1.86-.4 3.99 1.03 5.42s3.55 1.83 5.42 1.03c.64-.27 1.37.02 1.64.66"/></symbol><symbol id="s64" viewBox="0 0 64 64"><path d="m49.86 32.7-4 4-5.03-5.03 6.38-6.38 3.35 3.35 12.48-12.48a3.235 3.235 0 0 0 0-4.57L52.4.95a3.235 3.235 0 0 0-4.57 0L35.35 13.43l3.35 3.35-6.38 6.38-5.06-5.07 4-4L18.27 1.11c-1.22-1.22-3.35-1.22-4.57 0L8.33 6.48a3.235 3.235 0 0 0 0 4.57l12.99 12.99 4-4 5.06 5.07-4.13 4.13c-4.89-1.71-10.55-.63-14.45 3.27l-.97.97 8.87 8.87-1.79 1.79a2.96 2.96 0 0 0-2.99.72 2.98 2.98 0 0 0 0 4.21c.56.56 1.31.87 2.11.87s1.55-.31 2.11-.87c.81-.81 1.04-1.97.72-2.99l1.79-1.79 8.87 8.87.97-.97a13.84 13.84 0 0 0 3.28-14.45l4.12-4.12 5.03 5.03-4 4 12.99 12.99c.61.61 1.42.95 2.29.95s1.68-.34 2.29-.95l5.37-5.37a3.235 3.235 0 0 0 0-4.57L49.87 32.71ZM10.27 8.43l5.37-5.37c.12-.12.26-.14.34-.14s.22.02.34.14l4.56 4.56-6.05 6.05-4.56-4.56a.477.477 0 0 1 0-.68m6.51 7.19 6.05-6.05 4.53 4.53-6.05 6.05zm33-12.72c.19-.19.49-.19.68 0l4.48 4.48-5.47 5.47 1.95 1.95 5.47-5.47 4.22 4.22c.19.19.19.49 0 .68L50.58 24.76l-1.41-1.41-4.25-4.25-5.66-5.66L49.79 2.91Zm-9.13 15.83 2.31 2.31 2.31 2.31-11.39 11.39-4.62-4.61 11.39-11.39Zm-10.2 30.49L14.78 33.55c4.38-3.42 10.74-3.11 14.76.91 2.11 2.11 3.27 4.91 3.27 7.9 0 2.52-.83 4.91-2.36 6.86M49.86 36.6l4.72 4.72-6.05 6.05-4.72-4.72zm11.05 11.72-5.37 5.37c-.12.12-.26.14-.34.14s-.22-.02-.34-.14l-4.38-4.38 6.05-6.05 4.38 4.38c.19.19.19.49 0 .68M20.12 61.05c.3.7-.02 1.51-.72 1.81-1.8.77-3.68 1.15-5.54 1.15-3.6 0-7.13-1.41-9.8-4.07-4.04-4.05-5.19-10.07-2.92-15.35a1.376 1.376 0 1 1 2.53 1.09c-1.82 4.23-.9 9.06 2.34 12.3s8.07 4.16 12.3 2.34c.7-.3 1.51.02 1.81.72Zm1.79-6.72c.3.7-.02 1.51-.72 1.81-1.31.56-2.69.84-4.05.84-2.63 0-5.2-1.03-7.15-2.97-2.95-2.95-3.79-7.35-2.14-11.2a1.376 1.376 0 1 1 2.53 1.09c-1.21 2.81-.6 6.01 1.55 8.16s5.35 2.76 8.16 1.55c.7-.3 1.51.02 1.81.72Z"/></symbol><use style="display: var(--s16, none)" href="#s16"/><use style="display: var(--s24, none)" href="#s24"/><use style="display: var(--s32, none)" href="#s32"/><use style="display: var(--s40, none)" href="#s40"/><use style="display: var(--s48, none)" href="#s48"/><use style="display: var(--s64, none)" href="#s64"/></symbol></defs><style>@media (max-width: 23.98px) {g{--s16:block;}}@media (min-width: 24px) and (max-width: 31.98px) {g{--s24:block;}}@media (min-width: 32px) and (max-width: 39.98px) {g{--s32:block;}}@media (min-width: 40px) and (max-width: 47.98px) {g{--s40:block;}}@media (min-width: 48px) and (max-width: 63.98px) {g{--s48:block;}}@media (min-width: 64px) {g{--s64:block;}}</style><g><use href="#i-streetviewsatellite"/></g></svg>