<svg xmlns="http://www.w3.org/2000/svg"><defs><symbol id="i-success-solid"><symbol id="s16" viewBox="0 0 16 16"><path d="M7.94-.02c-4.41 0-8 3.59-8 8s3.59 8 8 8 8-3.59 8-8-3.59-8-8-8m3.86 5.33-4.16 6.55L4 8.8c-.32-.27-.36-.74-.09-1.06s.74-.36 1.06-.09L7.3 9.61l3.24-5.1c.22-.35.69-.45 1.04-.23s.45.69.23 1.04Z"/></symbol><symbol id="s24" viewBox="0 0 24 24"><path d="M11.94.02c-6.62 0-12 5.39-12 12s5.38 12 12 12 12-5.38 12-12-5.39-12-12-12m5.69 7.76-6.21 9.78-5.35-4.49a.873.873 0 1 1 1.12-1.34l3.81 3.2 5.14-8.09c.26-.41.8-.53 1.21-.27s.53.8.27 1.21Z"/></symbol><symbol id="s32" viewBox="0 0 32 32"><path d="M16.02.05c-8.82 0-16 7.18-16 16s7.18 16 16 16 16-7.18 16-16-7.18-16-16-16m7.52 10.18-8.26 13.01-7.05-5.92a1 1 0 0 1-.12-1.41c.35-.42.98-.48 1.41-.12l5.3 4.45 7.04-11.09c.3-.47.92-.61 1.38-.31.47.3.6.91.31 1.38Z"/></symbol><symbol id="s40" viewBox="0 0 40 40"><path d="M19.99-.05C8.97-.05 0 8.92 0 19.95s8.97 20 20 20 20-8.97 20-20-8.98-20-20.01-20m9.36 12.61L19.03 28.81l-8.76-7.35c-.48-.4-.54-1.11-.14-1.59s1.11-.54 1.59-.14l6.78 5.69 8.94-14.07A1.14 1.14 0 0 1 29 11c.53.33.68 1.03.35 1.56"/></symbol><symbol id="s48" viewBox="0 0 48 48"><path d="M24 .02c-13.24 0-24 10.77-24 24s10.77 24 24 24 24-10.77 24-24-10.77-24-24-24m11.18 15.04L22.81 34.54l-10.46-8.78c-.53-.44-.6-1.23-.15-1.76.44-.53 1.23-.6 1.76-.15l8.27 6.94 10.84-17.07c.37-.58 1.14-.76 1.73-.39.58.37.76 1.14.39 1.73Z"/></symbol><symbol id="s64" viewBox="0 0 64 64"><path d="M32.01 0C14.36 0 0 14.36 0 32.01s14.36 32 32 32 32-14.36 32-32S49.65 0 32.01 0m14.8 19.77L30.35 45.7 16.54 34.11A1.378 1.378 0 0 1 18.31 32l11.4 9.57L44.49 18.3a1.376 1.376 0 1 1 2.32 1.48Z"/></symbol><use style="display: var(--s16, none)" href="#s16"/><use style="display: var(--s24, none)" href="#s24"/><use style="display: var(--s32, none)" href="#s32"/><use style="display: var(--s40, none)" href="#s40"/><use style="display: var(--s48, none)" href="#s48"/><use style="display: var(--s64, none)" href="#s64"/></symbol></defs><style>@media (max-width: 23.98px) {g{--s16:block;}}@media (min-width: 24px) and (max-width: 31.98px) {g{--s24:block;}}@media (min-width: 32px) and (max-width: 39.98px) {g{--s32:block;}}@media (min-width: 40px) and (max-width: 47.98px) {g{--s40:block;}}@media (min-width: 48px) and (max-width: 63.98px) {g{--s48:block;}}@media (min-width: 64px) {g{--s64:block;}}</style><g><use href="#i-success-solid"/></g></svg>