<svg xmlns="http://www.w3.org/2000/svg"><defs><symbol id="i-sun"><symbol id="s16" viewBox="0 0 16 16"><path d="M15.24 7.26h-2.57c-.05-.33-.13-.64-.25-.94l2.23-1.29c.36-.21.48-.67.27-1.02s-.66-.48-1.02-.27l-2.23 1.29c-.2-.25-.43-.48-.68-.69l1.29-2.24a.746.746 0 0 0-1.29-.75L9.71 3.57c-.3-.12-.61-.2-.94-.25V.75C8.75.34 8.42 0 8 0s-.75.34-.75.75v2.57c-.33.05-.64.13-.94.25L5.02 1.34A.74.74 0 0 0 4 1.07c-.36.21-.48.67-.27 1.02l1.29 2.23c-.25.2-.48.43-.69.68L2.09 3.71A.746.746 0 0 0 1.34 5l2.22 1.28c-.12.3-.2.61-.25.94H.74c-.41.02-.74.36-.74.77s.34.75.75.75h2.57c.05.33.13.64.25.94l-2.23 1.29c-.36.21-.48.67-.27 1.02.14.24.39.38.65.38.13 0 .26-.03.37-.1l2.23-1.29c.2.25.43.48.68.69l-1.29 2.24a.746.746 0 0 0 .64 1.12c.26 0 .51-.13.65-.38l1.28-2.22c.3.12.61.2.94.25v2.57c0 .41.34.75.75.75s.75-.34.75-.75v-2.57c.33-.05.64-.13.94-.25l1.29 2.23c.14.24.39.38.65.38.13 0 .26-.03.37-.1.36-.21.48-.67.27-1.02l-1.29-2.23c.25-.2.48-.43.69-.68l2.24 1.29c.12.07.25.1.37.1.26 0 .51-.13.65-.38.21-.36.08-.82-.27-1.02l-2.22-1.28c.12-.3.2-.61.25-.94h2.57c.41 0 .75-.34.75-.75s-.34-.75-.75-.75Zm-7.25 3.99C6.2 11.25 4.74 9.79 4.74 8S6.2 4.75 7.99 4.75 11.24 6.21 11.24 8s-1.46 3.25-3.25 3.25"/></symbol><symbol id="s24" viewBox="0 0 24 24"><path d="M23.12 11.14h-4.17c-.08-.65-.24-1.27-.49-1.85l3.61-2.08a.88.88 0 0 0 .32-1.2.88.88 0 0 0-1.2-.32l-3.61 2.09c-.39-.51-.84-.96-1.34-1.35l2.09-3.62a.88.88 0 0 0-.32-1.2.88.88 0 0 0-1.2.32l-2.08 3.6c-.58-.25-1.2-.41-1.85-.49V.87c0-.48-.39-.87-.87-.87s-.88.39-.88.88v4.17c-.65.08-1.27.24-1.85.49L7.2 1.93A.88.88 0 0 0 6 1.61a.88.88 0 0 0-.32 1.2l2.09 3.61c-.51.39-.96.84-1.35 1.34L2.8 5.67a.88.88 0 0 0-1.2.32c-.24.42-.1.96.32 1.2l3.6 2.08c-.25.58-.41 1.2-.49 1.85H.87c-.48-.01-.87.38-.87.86s.39.88.88.88h4.17c.08.65.24 1.27.49 1.85l-3.61 2.08a.88.88 0 0 0 .44 1.64c.15 0 .3-.04.44-.12l3.61-2.09c.39.51.84.96 1.34 1.35l-2.09 3.62a.88.88 0 0 0 .76 1.32c.3 0 .6-.16.76-.44l2.08-3.6c.58.25 1.2.41 1.85.49v4.17c0 .48.39.88.88.88s.88-.39.88-.88v-4.17c.65-.08 1.27-.24 1.85-.49l2.08 3.61c.16.28.46.44.76.44a.88.88 0 0 0 .76-1.32l-2.09-3.61c.51-.39.96-.84 1.35-1.34l3.62 2.09c.14.08.29.12.44.12a.881.881 0 0 0 .44-1.64l-3.6-2.08c.25-.58.41-1.2.49-1.85h4.17c.48 0 .88-.39.88-.88s-.39-.88-.88-.88Zm-11.13 6.12c-2.9 0-5.26-2.36-5.26-5.26s2.36-5.26 5.26-5.26S17.26 9.1 17.26 12s-2.36 5.26-5.27 5.26"/></symbol><symbol id="s32" viewBox="0 0 32 32"><path d="M30.99 15.02h-5.77c-.1-.97-.36-1.89-.73-2.75l5.01-2.89c.48-.28.64-.89.37-1.37a1.01 1.01 0 0 0-1.37-.37l-5.01 2.89a9.3 9.3 0 0 0-2-2.01l2.89-5.01c.28-.48.11-1.09-.37-1.37s-1.09-.11-1.37.37l-2.89 5c-.85-.38-1.78-.64-2.74-.75V1c0-.55-.44-1-1-1s-1 .45-1 1v5.77c-.97.1-1.89.36-2.75.73L9.37 2.49A1.01 1.01 0 0 0 8 2.12c-.48.28-.64.89-.37 1.37l2.89 5.01a9.3 9.3 0 0 0-2.01 2L3.5 7.61c-.48-.28-1.09-.11-1.37.37s-.11 1.09.37 1.37l5 2.89c-.38.85-.64 1.78-.75 2.74H.99c-.55 0-.99.45-.99 1s.45 1 1 1h5.77c.1.97.36 1.89.73 2.75l-5.01 2.89c-.48.28-.64.89-.37 1.37.19.32.52.5.87.5.17 0 .34-.04.5-.13l5.01-2.89a9.3 9.3 0 0 0 2 2.01l-2.89 5.01a1.002 1.002 0 0 0 .87 1.5c.35 0 .68-.18.87-.5l2.89-5c.85.38 1.77.64 2.74.75v5.78c0 .55.45 1 1 1s1-.45 1-1v-5.77c.97-.1 1.89-.36 2.75-.73l2.89 5.01c.19.32.52.5.87.5.17 0 .34-.04.5-.13.48-.28.64-.89.37-1.37l-2.89-5.01a9.3 9.3 0 0 0 2.01-2l5.01 2.89c.16.09.33.13.5.13a1.002 1.002 0 0 0 .5-1.87l-5-2.89c.38-.85.64-1.77.75-2.74h5.78c.55 0 1-.45 1-1s-.45-1-1-1Zm-15 8.26c-4.01 0-7.28-3.27-7.28-7.28s3.27-7.28 7.28-7.28 7.28 3.27 7.28 7.28-3.27 7.28-7.28 7.28"/></symbol><symbol id="s40" viewBox="0 0 40 40"><path d="M38.87 18.9h-7.38c-.12-1.29-.46-2.51-.97-3.64l6.41-3.7a1.126 1.126 0 1 0-1.13-1.95l-6.4 3.7c-.73-1.03-1.63-1.93-2.66-2.67l3.7-6.41a1.126 1.126 0 1 0-1.95-1.13l-3.7 6.4c-1.13-.52-2.35-.87-3.64-.99V1.13a1.129 1.129 0 1 0-2.26 0v7.38c-1.29.12-2.51.46-3.64.97l-3.7-6.41A1.126 1.126 0 1 0 9.6 4.2l3.7 6.4c-1.03.73-1.93 1.63-2.67 2.66l-6.41-3.7a1.126 1.126 0 1 0-1.13 1.95l6.4 3.7c-.52 1.13-.87 2.35-.99 3.64H1.12c-.62 0-1.12.5-1.12 1.12s.5 1.13 1.13 1.13h7.38c.12 1.29.46 2.51.97 3.64l-6.4 3.7a1.126 1.126 0 1 0 1.13 1.95l6.4-3.7c.73 1.03 1.63 1.93 2.66 2.67l-3.7 6.41a1.126 1.126 0 1 0 1.95 1.13l3.7-6.4c1.13.52 2.35.87 3.63.99v7.39c0 .62.5 1.13 1.13 1.13s1.13-.5 1.13-1.13V31.5c1.29-.12 2.51-.46 3.64-.97l3.7 6.41a1.13 1.13 0 0 0 1.54.41c.54-.31.72-1 .41-1.54l-3.7-6.4c1.03-.73 1.93-1.63 2.67-2.66l6.41 3.7a1.13 1.13 0 0 0 1.54-.41c.31-.54.13-1.23-.41-1.54l-6.4-3.7c.52-1.13.87-2.35.99-3.64h7.39c.62 0 1.13-.5 1.13-1.13s-.5-1.13-1.13-1.13ZM19.99 29.29c-5.12 0-9.29-4.17-9.29-9.29s4.17-9.29 9.29-9.29 9.29 4.17 9.29 9.29-4.17 9.29-9.29 9.29"/></symbol><symbol id="s48" viewBox="0 0 48 48"><path d="M46.74 22.83h-9c-.14-1.61-.56-3.14-1.21-4.54l7.81-4.51c.6-.35.8-1.11.46-1.71-.35-.6-1.11-.8-1.71-.46l-7.8 4.51c-.91-1.29-2.03-2.41-3.31-3.33l4.51-7.81c.34-.6.14-1.36-.46-1.71-.6-.34-1.36-.14-1.71.46l-4.51 7.81c-1.4-.65-2.93-1.09-4.53-1.24v-9a1.25 1.25 0 0 0-2.5 0v9c-1.61.14-3.14.56-4.54 1.21L13.73 3.7c-.35-.6-1.11-.8-1.71-.46-.6.35-.8 1.11-.46 1.71l4.51 7.8c-1.29.91-2.41 2.03-3.33 3.31l-7.81-4.51c-.6-.34-1.36-.14-1.71.46-.34.6-.14 1.36.46 1.71l7.81 4.51c-.65 1.4-1.09 2.93-1.24 4.53H1.24a1.25 1.25 0 0 0 0 2.5h9c.14 1.61.56 3.14 1.21 4.54l-7.81 4.51c-.6.34-.8 1.11-.46 1.71.23.4.65.62 1.08.62.21 0 .43-.05.62-.17l7.8-4.51c.91 1.29 2.03 2.41 3.31 3.33l-4.51 7.81a1.257 1.257 0 0 0 1.08 1.88c.43 0 .85-.22 1.08-.62l4.51-7.8c1.4.65 2.93 1.09 4.53 1.24v9.01a1.25 1.25 0 0 0 2.5 0v-9c1.61-.14 3.14-.56 4.54-1.21l4.51 7.81c.23.4.65.62 1.08.62.21 0 .43-.05.62-.17.6-.34.8-1.11.46-1.71l-4.51-7.8c1.29-.91 2.42-2.03 3.33-3.32l7.81 4.51c.2.11.41.17.62.17a1.248 1.248 0 0 0 .62-2.33l-7.8-4.51c.65-1.4 1.09-2.93 1.24-4.53h9.01a1.25 1.25 0 0 0 0-2.5ZM23.99 35.36c-6.24 0-11.31-5.07-11.31-11.31s5.07-11.31 11.31-11.31S35.3 17.81 35.3 24.05s-5.07 11.31-11.31 11.31"/></symbol><symbol id="s64" viewBox="0 0 64 64"><path d="M62.61 30.67H50.2c-.17-2.33-.78-4.53-1.74-6.54l10.75-6.21c.66-.38.88-1.22.5-1.88s-1.22-.88-1.88-.5l-10.74 6.2a18.5 18.5 0 0 0-4.78-4.8l6.2-10.75c.38-.66.15-1.5-.5-1.88s-1.5-.16-1.88.5l-6.21 10.75c-2-.97-4.2-1.59-6.53-1.77V1.38C33.41.62 32.79 0 32.03 0s-1.38.62-1.38 1.38v12.41c-2.33.17-4.53.78-6.54 1.74L17.9 4.78c-.38-.66-1.22-.88-1.88-.5s-.88 1.22-.5 1.88l6.2 10.74a18.5 18.5 0 0 0-4.8 4.78l-10.75-6.2c-.66-.38-1.5-.16-1.88.5s-.15 1.5.5 1.88l10.75 6.21c-.97 2-1.59 4.2-1.77 6.53H1.37c-.76 0-1.38.62-1.38 1.38s.62 1.38 1.38 1.38h12.41c.17 2.33.78 4.53 1.74 6.54L4.76 46.11c-.66.38-.88 1.22-.5 1.88.25.44.72.69 1.19.69.23 0 .47-.06.69-.18l10.74-6.2c1.28 1.88 2.91 3.51 4.78 4.8l-6.2 10.75c-.38.66-.15 1.5.5 1.88.22.13.45.18.69.18.48 0 .94-.25 1.19-.69l6.21-10.75c2 .97 4.2 1.59 6.53 1.77v12.41c0 .76.62 1.38 1.38 1.38s1.38-.62 1.38-1.38V50.24c2.33-.17 4.53-.78 6.54-1.74l6.21 10.76c.25.44.72.69 1.19.69.23 0 .47-.06.69-.18.66-.38.88-1.22.5-1.88l-6.2-10.74c1.88-1.28 3.51-2.91 4.8-4.78l10.75 6.2c.22.13.45.18.69.18.48 0 .94-.25 1.19-.69.38-.66.15-1.5-.5-1.88l-10.75-6.21c.97-2 1.59-4.2 1.77-6.53h12.41c.76 0 1.38-.62 1.38-1.38s-.62-1.38-1.38-1.38ZM31.99 47.53c-8.56 0-15.53-6.97-15.53-15.53s6.97-15.53 15.53-15.53S47.52 23.44 47.52 32s-6.97 15.53-15.53 15.53"/></symbol><use style="display: var(--s16, none)" href="#s16"/><use style="display: var(--s24, none)" href="#s24"/><use style="display: var(--s32, none)" href="#s32"/><use style="display: var(--s40, none)" href="#s40"/><use style="display: var(--s48, none)" href="#s48"/><use style="display: var(--s64, none)" href="#s64"/></symbol></defs><style>@media (max-width: 23.98px) {g{--s16:block;}}@media (min-width: 24px) and (max-width: 31.98px) {g{--s24:block;}}@media (min-width: 32px) and (max-width: 39.98px) {g{--s32:block;}}@media (min-width: 40px) and (max-width: 47.98px) {g{--s40:block;}}@media (min-width: 48px) and (max-width: 63.98px) {g{--s48:block;}}@media (min-width: 64px) {g{--s64:block;}}</style><g><use href="#i-sun"/></g></svg>