<svg xmlns="http://www.w3.org/2000/svg"><defs><symbol id="i-swissinnightexpress"><symbol id="s16" viewBox="0 0 16 16"><path d="M6.38 7.36H2.94V5.13H-.01v1.5h1.45v6.74H-.01v1.5h2.25c.38.67 1.09 1.13 1.91 1.13s1.53-.46 1.91-1.13h.9c.77 0 1.39-.63 1.39-1.4l.02-4.06c0-.15-.02-.3-.05-.45-.11-.91-.93-1.62-1.94-1.62Zm-.05 1.5c.14 0 .28.06.38.16.07.07.11.16.13.26v.79H5.9v-1.2h.43Zm-2.18 5.65c-.39 0-.7-.32-.7-.71s.31-.71.7-.71.7.32.7.71-.31.71-.7.71m2.16-1.13a2.21 2.21 0 0 0-2.16-1.79c-.45 0-.86.14-1.21.37V8.87h1.45v1.63c0 .59.5 1.08 1.12 1.08h1.34v1.81H6.3Zm6.3-8.85c-1.89 0-2.71 1.38-2.74 1.44a.74.74 0 0 0 .01.76c.14.23.41.39.68.36.21-.02.87.03 1.18.32.08.08.17.2.17.47s-.09.4-.17.47c-.31.29-.97.33-1.17.32a.77.77 0 0 0-.69.36c-.14.24-.14.54 0 .78.04.06.89 1.42 2.73 1.42s3.36-1.51 3.36-3.36-1.5-3.36-3.36-3.36Zm0 5.21c-.07 0-.14 0-.21-.01.13-.08.25-.17.36-.28.42-.4.64-.94.64-1.57s-.22-1.17-.64-1.57a2 2 0 0 0-.37-.28h.21c1.02 0 1.85.83 1.85 1.85s-.83 1.86-1.85 1.86ZM9.57 4.05l-.51-.3c.02-.12.04-.24.04-.36s-.02-.25-.04-.37l.51-.3a.752.752 0 1 0-.76-1.3l-.52.3c-.19-.16-.4-.28-.63-.37v-.6C7.67.34 7.34 0 6.92 0s-.75.34-.75.75v.6c-.23.09-.44.21-.63.37l-.52-.3a.752.752 0 1 0-.76 1.3l.51.3c-.02.12-.04.24-.04.37s.02.25.04.37l-.51.3c-.36.21-.48.67-.27 1.03.14.24.39.38.65.38.13 0 .26-.03.37-.1l.52-.3c.19.16.4.28.63.37v.6c0 .41.34.75.75.75s.75-.34.75-.75v-.6c.23-.09.44-.21.63-.37l.52.3c.12.07.25.1.37.1.26 0 .51-.13.65-.38.21-.36.09-.82-.27-1.03Zm-3.32-.67a.67.67 0 1 1 1.34 0 .67.67 0 0 1-1.34 0"/></symbol><symbol id="s24" viewBox="0 0 24 24"><path d="M10.58 11.3H5.17V7.95H-.01V9.7h3.43v10.61H-.01v1.75h3.43l.99.01c.45 1.12 1.55 1.91 2.82 1.91s2.37-.79 2.82-1.91h1.39c1.01 0 1.84-.83 1.84-1.84l.02-6.09c0-.21-.02-.42-.07-.62-.14-1.25-1.28-2.23-2.66-2.23Zm-.07 1.75c.28 0 .54.11.74.31.15.15.23.35.27.56v1.43H9.6v-2.3h.9Zm-3.27 9.19c-.72 0-1.3-.59-1.3-1.31s.58-1.31 1.3-1.31 1.3.59 1.3 1.31-.58 1.31-1.3 1.31m4.21-1.91h-1.22a3.056 3.056 0 0 0-2.99-2.46c-.8 0-1.52.32-2.06.82v-5.63h2.68v2.69c0 .75.64 1.36 1.43 1.36h2.27v3.13c-.01.05-.05.09-.1.09ZM19.2 7.05c-2.69 0-3.84 1.95-3.89 2.03-.16.28-.15.62.01.89s.49.42.79.42c.37-.02 1.42.05 1.95.55.23.22.34.5.34.89s-.11.67-.34.89c-.53.5-1.59.57-1.94.55a.85.85 0 0 0-.8.43c-.17.28-.17.63 0 .91.05.08 1.26 2.01 3.88 2.01s4.78-2.15 4.78-4.79-2.15-4.78-4.78-4.78m0 7.82c-.4 0-.75-.07-1.05-.18.39-.15.78-.37 1.11-.69.58-.55.89-1.3.89-2.17s-.31-1.62-.89-2.17c-.34-.32-.73-.54-1.12-.69.3-.1.65-.17 1.06-.17 1.67 0 3.03 1.36 3.03 3.03s-1.36 3.03-3.03 3.03ZM14.83 2.4a.88.88 0 0 0-1.2-.32l-.93.54c-.33-.31-.73-.53-1.17-.67V.87c.01-.48-.38-.87-.86-.87s-.88.39-.88.88v1.08c-.44.14-.84.36-1.17.67l-.93-.54a.88.88 0 0 0-1.2.32c-.24.42-.1.95.32 1.2l.92.53c-.05.22-.08.44-.08.68s.03.46.08.68l-.92.53a.88.88 0 0 0 .44 1.64c.15 0 .3-.04.44-.12l.93-.54c.33.31.73.53 1.17.67v1.08c0 .48.39.88.88.88s.88-.39.88-.88V7.68c.44-.14.84-.36 1.17-.67l.93.54c.14.08.29.12.44.12.3 0 .6-.16.76-.44.24-.42.1-.95-.32-1.2l-.92-.53c.05-.22.08-.44.08-.68s-.03-.46-.08-.68l.92-.53a.88.88 0 0 0 .32-1.2Zm-4.16 3.67a1.261 1.261 0 1 1 .002-2.522 1.261 1.261 0 0 1-.002 2.522"/></symbol><symbol id="s32" viewBox="0 0 32 32"><path d="M14.11 15.43H6.74v-4.46H-.01v2h4.75v14.47H-.01v2h4.75l1.28.01C6.57 30.94 7.99 32 9.66 32s3.09-1.07 3.64-2.55h1.97c1.26 0 2.28-1.03 2.28-2.29v-5.37l.03-2.74c0-.27-.03-.53-.09-.79-.18-1.58-1.62-2.83-3.39-2.83Zm-.09 2c.42 0 .81.17 1.11.46.21.21.34.46.41.74v2.19h-3.39v-3.4h1.87ZM9.66 30c-1.05 0-1.9-.86-1.9-1.92s.85-1.91 1.9-1.91 1.9.86 1.9 1.91S10.71 30 9.66 30m5.61-2.55h-1.78c-.3-1.86-1.9-3.28-3.84-3.28-1.17 0-2.2.53-2.92 1.34v-8.09h3.41v3.75c0 .91.78 1.65 1.73 1.65h3.69l-.02 4.34c0 .16-.13.29-.28.29ZM25.78 9.41c-3.5 0-4.98 2.52-5.04 2.62-.18.32-.17.71.02 1.02s.52.48.9.48c.5-.03 1.97.07 2.72.78.34.32.5.75.5 1.31s-.16.99-.5 1.31c-.75.71-2.23.8-2.72.78-.39-.02-.72.17-.92.49-.19.32-.19.72 0 1.04.06.11 1.63 2.6 5.03 2.6s6.21-2.79 6.21-6.21-2.79-6.21-6.21-6.21Zm0 10.42c-.76 0-1.37-.18-1.87-.42.63-.19 1.29-.51 1.83-1.02.74-.7 1.13-1.66 1.13-2.77s-.39-2.07-1.13-2.77c-.55-.52-1.22-.84-1.86-1.03.49-.24 1.11-.41 1.89-.41 2.32 0 4.21 1.89 4.21 4.21s-1.89 4.21-4.21 4.21Zm-5.97-16.7a1.01 1.01 0 0 0-1.37-.37l-1.34.77c-.47-.46-1.06-.8-1.71-.97V1c0-.55-.44-1-1-1s-1 .45-1 1v1.56c-.65.18-1.24.51-1.71.97l-1.34-.77c-.48-.28-1.09-.11-1.37.37s-.11 1.09.37 1.37l1.35.78c-.08.31-.14.64-.14.98s.06.67.14.98l-1.35.78c-.48.28-.64.89-.37 1.37.19.32.52.5.87.5.17 0 .34-.04.5-.13l1.34-.77c.47.46 1.06.8 1.71.97v1.56c0 .55.45 1 1 1s1-.45 1-1V9.96c.65-.18 1.24-.51 1.71-.97l1.34.77c.16.09.33.13.5.13a1.002 1.002 0 0 0 .5-1.87l-1.35-.78c.08-.31.14-.64.14-.98s-.06-.67-.14-.98l1.35-.78c.48-.28.64-.89.37-1.37m-5.42 4.96c-1.02 0-1.84-.83-1.84-1.84s.83-1.84 1.84-1.84 1.84.83 1.84 1.84-.83 1.84-1.84 1.84"/></symbol><symbol id="s40" viewBox="0 0 40 40"><path d="M17.64 19.53H8.3v-5.58H0v2.25h6.06v18.34H0v2.25h6.06v.02h1.56c.65 1.85 2.4 3.19 4.46 3.19s3.81-1.34 4.46-3.19h2.56c1.51 0 2.73-1.23 2.73-2.74v-6.72l.04-3.43c0-.33-.04-.65-.1-.96-.21-1.93-1.96-3.44-4.11-3.44Zm-.11 2.25c.56 0 1.08.22 1.47.62.28.28.46.63.55 1v2.88h-4.48v-4.5zm-5.46 15.98c-1.38 0-2.5-1.13-2.5-2.52s1.12-2.52 2.5-2.52 2.5 1.13 2.5 2.52-1.12 2.52-2.5 2.52m7.02-3.19h-2.34c-.33-2.31-2.29-4.1-4.68-4.1-1.54 0-2.9.75-3.77 1.9V21.78h4.51v4.81c0 1.07.92 1.94 2.04 1.94h4.74l-.02 5.55c0 .27-.21.49-.48.49m13.26-22.8c-4.3 0-6.12 3.09-6.2 3.22-.21.36-.2.8.02 1.15s.61.56 1.02.54c.64-.03 2.52.08 3.49 1.01.45.42.67.99.67 1.73s-.22 1.3-.67 1.73c-.97.92-2.84 1.04-3.49 1.01-.42-.02-.82.19-1.03.55s-.21.81 0 1.17c.08.13 2 3.19 6.18 3.19s7.64-3.43 7.64-7.64-3.43-7.64-7.64-7.64Zm0 13.02c-1.12 0-2-.3-2.67-.68.87-.23 1.79-.63 2.54-1.33.9-.85 1.37-2.02 1.37-3.37s-.48-2.52-1.37-3.37c-.75-.71-1.7-1.12-2.57-1.34.66-.37 1.55-.68 2.69-.68 2.97 0 5.39 2.42 5.39 5.39s-2.42 5.39-5.39 5.39ZM24.78 3.85c-.31-.54-1-.72-1.54-.41l-1.76 1.02a4.6 4.6 0 0 0-2.24-1.28V1.13c0-.62-.5-1.13-1.12-1.13s-1.13.5-1.13 1.13v2.04c-.86.22-1.64.66-2.24 1.28l-1.76-1.02a1.126 1.126 0 1 0-1.13 1.95l1.77 1.02c-.12.41-.2.84-.2 1.28s.08.87.2 1.28l-1.77 1.02a1.126 1.126 0 1 0 1.13 1.95l1.76-1.02c.6.62 1.37 1.07 2.24 1.28v2.04c0 .62.5 1.13 1.13 1.13s1.13-.5 1.13-1.13v-2.04c.86-.22 1.64-.66 2.24-1.28l1.76 1.02a1.13 1.13 0 0 0 1.54-.41c.31-.54.13-1.23-.41-1.54l-1.77-1.02c.12-.41.2-.84.2-1.28s-.08-.87-.2-1.28l1.77-1.02c.54-.31.72-1 .41-1.54Zm-6.66 6.27c-1.34 0-2.43-1.09-2.43-2.43s1.09-2.43 2.43-2.43 2.43 1.09 2.43 2.43-1.09 2.43-2.43 2.43"/></symbol><symbol id="s48" viewBox="0 0 48 48"><path d="M21.18 23.54H9.87v-6.71H0v2.51h7.37v22.27H0v2.51h7.37v.02H9.2c.75 2.23 2.84 3.84 5.3 3.84s4.55-1.61 5.3-3.84h3.12a3.19 3.19 0 0 0 3.18-3.19v-8.09l.05-4.12q0-.585-.12-1.14c-.24-2.27-2.31-4.05-4.84-4.05Zm-.14 2.51c.7 0 1.35.27 1.84.77.35.35.58.79.68 1.26v3.58h-5.58v-5.61zm-6.55 19.41c-1.71 0-3.1-1.4-3.1-3.13s1.39-3.13 3.1-3.13 3.1 1.4 3.1 3.13-1.39 3.13-3.1 3.13m8.43-3.83h-2.87c-.35-2.78-2.7-4.93-5.55-4.93-1.92 0-3.62.98-4.63 2.47V26.06h5.61v5.89c0 1.23 1.05 2.23 2.35 2.23h5.79l-.03 6.77c0 .38-.3.69-.68.69Zm16.01-27.52c-5.1 0-7.26 3.66-7.35 3.82-.23.4-.22.89.02 1.28s.68.62 1.13.6c.78-.04 3.07.1 4.27 1.24.56.53.83 1.24.83 2.15s-.27 1.62-.83 2.15c-1.19 1.14-3.47 1.28-4.26 1.24-.46-.02-.91.21-1.14.61s-.24.9 0 1.3c.09.15 2.37 3.79 7.33 3.79S48 28.21 48 23.2s-4.07-9.09-9.07-9.09m0 15.67c-1.49 0-2.64-.45-3.47-.97 1.1-.26 2.31-.74 3.25-1.63 1.07-1.02 1.62-2.36 1.62-3.98s-.54-2.96-1.62-3.98c-.95-.9-2.18-1.38-3.29-1.64.83-.52 1.98-.96 3.51-.96 3.62 0 6.57 2.95 6.57 6.58s-2.95 6.58-6.57 6.58M29.76 4.54c-.35-.6-1.11-.8-1.71-.46l-2.18 1.26a5.5 5.5 0 0 0-2.77-1.6V1.22a1.25 1.25 0 0 0-2.5 0v2.52a5.54 5.54 0 0 0-2.77 1.6l-2.18-1.26c-.6-.34-1.36-.14-1.71.46-.34.6-.14 1.37.46 1.71l2.17 1.26c-.15.51-.24 1.05-.24 1.6s.08 1.1.24 1.6l-2.17 1.26c-.6.35-.8 1.11-.46 1.71.23.4.65.63 1.08.63.21 0 .43-.05.62-.17l2.18-1.26c.73.78 1.69 1.35 2.77 1.6V17a1.25 1.25 0 0 0 2.5 0v-2.52a5.54 5.54 0 0 0 2.77-1.6l2.18 1.26a1.23 1.23 0 0 0 1.7-.46c.34-.6.14-1.37-.46-1.71l-2.17-1.26c.15-.51.24-1.05.24-1.6s-.08-1.1-.24-1.6l2.17-1.26c.6-.35.8-1.11.46-1.71Zm-7.9 7.59c-1.66 0-3.01-1.35-3.01-3.02s1.35-3.02 3.01-3.02 3.01 1.35 3.01 3.02-1.35 3.02-3.01 3.02"/></symbol><symbol id="s64" viewBox="0 0 64 64"><path d="M28.54 31.76H12.99v-9.03H.01v2.75h10.23v30.57H.01v2.75h10.23v.03h2.37c.9 2.98 3.66 5.16 6.92 5.16s6.02-2.18 6.92-5.16h4.43c2.19 0 3.97-1.79 3.97-3.99V43.96l.06-5.54q0-.69-.12-1.35c-.23-2.97-2.94-5.32-6.25-5.32Zm-.19 2.76c1.02 0 1.98.4 2.7 1.13.52.52.86 1.17 1.01 1.87v5.16h-8.03s-.08-.01-.11-.02v-8.15h4.43Zm-8.81 26.73c-2.47 0-4.48-2.03-4.48-4.52s2.01-4.52 4.48-4.52 4.48 2.03 4.48 4.52-2.01 4.52-4.48 4.52m11.34-5.16h-4.14c-.32-3.71-3.43-6.64-7.2-6.64-2.89 0-5.38 1.72-6.54 4.19V34.52h8.18v8.23c0 1.49 1.28 2.69 2.86 2.69h8.07v9.42c0 .68-.55 1.23-1.22 1.23Zm21.26-37.1c-6.68 0-9.49 4.77-9.61 4.97-.25.44-.24.98.02 1.41s.73.67 1.25.65c.04 0 3.92-.18 5.95 1.74.82.77 1.21 1.79 1.21 3.11s-.4 2.33-1.21 3.11c-2.03 1.93-5.91 1.75-5.95 1.74-.53-.02-1 .23-1.26.67s-.26.99 0 1.43c.12.2 3.1 4.94 9.59 4.94S64 37.43 64 30.88 58.67 19 52.13 19Zm0 21.01c-2.45 0-4.23-.87-5.42-1.75 1.59-.29 3.49-.91 4.92-2.26 1.38-1.3 2.08-3.03 2.08-5.12s-.7-3.81-2.08-5.12c-1.44-1.36-3.36-1.99-4.97-2.27 1.16-.88 2.95-1.74 5.47-1.74 5.03 0 9.12 4.1 9.12 9.13S57.17 40 52.14 40M39.07 16.07l-3.13-1.81c.25-.72.39-1.49.39-2.29s-.14-1.57-.39-2.29l3.13-1.81c.66-.38.88-1.22.5-1.88s-1.22-.88-1.88-.5L34.55 7.3A7.07 7.07 0 0 0 30.59 5V1.38C30.6.62 29.98 0 29.22 0s-1.38.62-1.38 1.38V5a7.07 7.07 0 0 0-3.96 2.3l-3.14-1.81c-.66-.38-1.5-.16-1.88.5s-.15 1.5.5 1.88l3.13 1.81c-.25.72-.39 1.49-.39 2.29s.14 1.57.39 2.29l-3.13 1.81c-.66.38-.88 1.22-.5 1.88.26.44.72.69 1.19.69.23 0 .47-.06.69-.18l3.14-1.81a7.07 7.07 0 0 0 3.96 2.3v3.62c0 .76.62 1.38 1.38 1.38s1.38-.62 1.38-1.38v-3.62a7.07 7.07 0 0 0 3.96-2.3l3.14 1.81c.22.13.45.18.69.18.47 0 .94-.25 1.19-.69.38-.66.16-1.5-.5-1.88Zm-9.85.25c-2.4 0-4.35-1.95-4.35-4.35s1.95-4.35 4.35-4.35 4.35 1.95 4.35 4.35-1.95 4.35-4.35 4.35"/></symbol><use style="display: var(--s16, none)" href="#s16"/><use style="display: var(--s24, none)" href="#s24"/><use style="display: var(--s32, none)" href="#s32"/><use style="display: var(--s40, none)" href="#s40"/><use style="display: var(--s48, none)" href="#s48"/><use style="display: var(--s64, none)" href="#s64"/></symbol></defs><style>@media (max-width: 23.98px) {g{--s16:block;}}@media (min-width: 24px) and (max-width: 31.98px) {g{--s24:block;}}@media (min-width: 32px) and (max-width: 39.98px) {g{--s32:block;}}@media (min-width: 40px) and (max-width: 47.98px) {g{--s40:block;}}@media (min-width: 48px) and (max-width: 63.98px) {g{--s48:block;}}@media (min-width: 64px) {g{--s64:block;}}</style><g><use href="#i-swissinnightexpress"/></g></svg>