<svg xmlns="http://www.w3.org/2000/svg"><defs><symbol id="i-syringe"><symbol id="s16" viewBox="0 0 16 16"><path d="M16.01 1.06V0h-1.06l-2.73 2.73c-.66-.36-1.55-.28-2.1.27l-.64.64c-.67-.38-1.53-.29-2.1.28L2.23 9.08l-.69-.69c-.29-.29-.77-.29-1.06 0s-.29.77 0 1.06l.69.69 1.05 1.05-.62.62-.52-.52L0 12.34 3.66 16l1.06-1.06-.55-.55.62-.62 1.08 1.08.69.69c.15.15.34.22.53.22s.38-.07.53-.22c.29-.29.29-.77 0-1.06l-.69-.69 5.16-5.16c.57-.57.65-1.43.27-2.1l.64-.64c.57-.57.66-1.44.28-2.1zm-4.84 3c.1-.1.26-.1.35 0l.41.41c.06.06.07.14.07.18s0 .11-.07.18l-.59.59-.77-.77.59-.59Zm-8.06 9.26-.47-.47.62-.62.47.47zm7.92-5.75-5.16 5.15-2.6-2.6.35-.35 1.3 1.3 1.06-1.06-1.3-1.3.75-.75.76.76 1.06-1.06-.76-.76.75-.75 1.3 1.3L9.6 6.39l-1.3-1.3.12-.12c.1-.1.26-.1.35 0l2.24 2.24c.1.1.1.26 0 .35Z"/></symbol><symbol id="s24" viewBox="0 0 24 24"><path d="M24 1.21V0h-1.26l-4.23 4.23c-.92-.61-2.23-.52-3.02.28L14.4 5.6c-.93-.63-2.2-.54-3.02.28l-8.26 8.25-1.21-1.21a.88.88 0 0 0-1.24 0c-.34.34-.34.9 0 1.24l2.78 2.78-1.28 1.28-.95-.95-1.24 1.24L5.47 24l1.24-1.24-1-1 1.28-1.28 2.83 2.83c.17.17.4.26.62.26s.45-.09.62-.26c.34-.34.34-.9 0-1.24l-1.21-1.21 8.25-8.25c.45-.45.7-1.05.7-1.68 0-.49-.15-.95-.42-1.34l1.09-1.09c.45-.45.7-1.05.7-1.68 0-.49-.15-.95-.42-1.34L24 1.23ZM4.46 20.51l-1.05-1.06 1.28-1.28 1.05 1.05-1.28 1.28Zm12.4-9.15-8.25 8.25-4.25-4.25 1.21-1.21 2.12 2.12 1.24-1.24-2.12-2.12 1.48-1.48 1.32 1.32 1.24-1.24-1.32-1.32 1.48-1.48 2.12 2.12 1.24-1.24-2.12-2.12.35-.35a.64.64 0 0 1 .89 0l3.36 3.36c.24.24.24.64 0 .89Zm1.37-4.11-1.06 1.06-1.51-1.51 1.06-1.06a.64.64 0 0 1 .89 0l.62.62c.12.12.18.27.18.44s-.07.32-.18.44Z"/></symbol><symbol id="s32" viewBox="0 0 32 32"><path d="M32 1.42V0h-1.41l-5.74 5.74a2.99 2.99 0 0 0-3.92.27l-1.56 1.56c-1.17-.88-2.85-.8-3.92.27L4.06 19.23 2.33 17.5a.996.996 0 1 0-1.41 1.41l1.73 1.73 2.09 2.09-1.94 1.94-1.38-1.38L0 24.7l7.31 7.31 1.41-1.41-1.46-1.46L9.2 27.2l2.16 2.16 1.73 1.73c.2.2.45.29.71.29s.51-.1.71-.29a.996.996 0 0 0 0-1.41l-1.73-1.73 11.39-11.39c.57-.57.88-1.32.88-2.12 0-.66-.22-1.28-.61-1.8L26 11.08a2.99 2.99 0 0 0 .26-3.92zM5.85 27.72l-1.64-1.64 1.94-1.94 1.64 1.64zm16.9-12.58L11.36 26.53l-5.89-5.89 2.14-2.14 2.95 2.95 1.41-1.41-2.95-2.95 2.21-2.21 1.88 1.88 1.41-1.41-1.88-1.88 2.21-2.21 2.95 2.95 1.41-1.41-2.95-2.95.59-.59a.996.996 0 0 1 1.41 0l2.24 2.24 2.24 2.24c.19.19.29.44.29.71s-.1.52-.29.71Zm1.83-5.48-1.53 1.53-2.24-2.24 1.53-1.53c.39-.39 1.02-.39 1.42 0l.83.83c.39.39.39 1.02 0 1.41Z"/></symbol><symbol id="s40" viewBox="0 0 40 40"><path d="M40.01 1.59V0h-1.59l-7.26 7.26c-1.4-1.1-3.54-1.03-4.82.25L24.3 9.54c-1.4-1.1-3.54-1.02-4.82.25L4.99 24.28l-2.25-2.25c-.44-.44-1.15-.44-1.59 0s-.44 1.15 0 1.59l4.86 4.86-2.6 2.6-1.82-1.82L0 30.86 9.14 40l1.59-1.59-1.91-1.91 2.6-2.6 4.95 4.95c.22.22.51.33.8.33s.58-.11.8-.33c.44-.44.44-1.15 0-1.59l-2.25-2.25 14.49-14.49c.69-.68 1.06-1.6 1.06-2.56 0-.83-.29-1.62-.81-2.26l2.03-2.03c1.32-1.32 1.39-3.4.25-4.82L40 1.59ZM7.24 34.9l-2.23-2.23 2.6-2.6 2.23 2.23zm21.38-15.97L14.13 33.42l-7.55-7.55 3.01-3.01 3.77 3.77 1.59-1.59-3.77-3.77 2.94-2.94 2.44 2.44 1.59-1.59-2.44-2.44 2.94-2.94 3.77 3.77 1.59-1.59-3.77-3.77.83-.83c.52-.52 1.42-.52 1.94 0l5.6 5.6c.26.26.4.6.4.97s-.14.71-.4.97Zm2.28-6.86-2 2.01-2.98-2.98 2.01-2c.52-.52 1.42-.52 1.95 0l1.03 1.03c.54.54.54 1.41 0 1.95Z"/></symbol><symbol id="s48" viewBox="0 0 48 48"><path d="M48 1.78V0h-1.77l-8.77 8.77a4.2 4.2 0 0 0-2.71-1.01c-1.14 0-2.2.44-3.01 1.25l-2.5 2.5a4.2 4.2 0 0 0-2.71-1.01c-1.14 0-2.2.44-3.01 1.25L5.91 29.37 3.14 26.6c-.49-.49-1.28-.49-1.77 0s-.49 1.28 0 1.77l2.77 2.77 3.14 3.14-3.26 3.26-2.25-2.25L0 37.05l10.96 10.96 1.77-1.77-2.36-2.36 3.26-3.26 3.24 3.24 2.77 2.77c.24.24.56.37.88.37s.64-.12.88-.37c.49-.49.49-1.28 0-1.77l-2.77-2.77 17.61-17.61c1.57-1.57 1.63-4.05.24-5.72l2.5-2.5c1.57-1.57 1.63-4.05.24-5.72zM8.6 42.11 5.79 39.3l3.26-3.26 2.81 2.81zm25.88-19.39L16.87 40.33l-9.19-9.19 3.9-3.9 4.6 4.6 1.77-1.77-4.6-4.6 3.67-3.67 2.99 2.99 1.77-1.77-2.99-2.99 3.67-3.67 4.6 4.6 1.77-1.77-4.6-4.6 1.06-1.06c.66-.66 1.81-.66 2.47 0l6.72 6.72c.68.68.68 1.79 0 2.48Zm2.75-8.22-2.48 2.47-3.71-3.71 2.48-2.47c.66-.66 1.81-.66 2.47 0l1.24 1.24c.68.68.68 1.79 0 2.48Z"/></symbol><symbol id="s64" viewBox="0 0 64 64"><path d="M64 1.95V0h-1.95L50.17 11.88c-2.11-1.95-5.4-1.91-7.44.13l-3.52 3.52c-1-.92-2.27-1.44-3.64-1.44-1.44 0-2.79.56-3.8 1.57L7.68 39.77l-3.9-3.9c-.54-.54-1.41-.54-1.95 0s-.54 1.41 0 1.95l8.08 8.08-4.76 4.76-3.21-3.21L0 49.39l14.62 14.62 1.95-1.95-3.35-3.35 4.76-4.76 8.22 8.22c.27.27.62.4.97.4s.7-.13.97-.4c.54-.54.54-1.41 0-1.95l-3.9-3.9 24.1-24.1c1.01-1.02 1.57-2.37 1.57-3.8s-.52-2.64-1.44-3.64l3.52-3.52a5.373 5.373 0 0 0 .13-7.44L64 1.94ZM11.27 56.76 7.11 52.6l4.76-4.76L16.03 52zm35.12-26.48-24.1 24.1L9.62 41.71l6.03-6.03 6.34 6.34 1.95-1.95-6.34-6.34 5.3-5.3 4.2 4.2 1.95-1.95-4.2-4.2 5.3-5.3 6.33 6.34 1.95-1.95-6.33-6.34 1.62-1.62a2.63 2.63 0 0 1 3.71 0l8.96 8.96a2.63 2.63 0 0 1 0 3.71m3.66-10.96-3.51 3.51-5.36-5.36 3.51-3.51a2.63 2.63 0 0 1 3.71 0l1.65 1.65a2.63 2.63 0 0 1 0 3.71"/></symbol><use style="display: var(--s16, none)" href="#s16"/><use style="display: var(--s24, none)" href="#s24"/><use style="display: var(--s32, none)" href="#s32"/><use style="display: var(--s40, none)" href="#s40"/><use style="display: var(--s48, none)" href="#s48"/><use style="display: var(--s64, none)" href="#s64"/></symbol></defs><style>@media (max-width: 23.98px) {g{--s16:block;}}@media (min-width: 24px) and (max-width: 31.98px) {g{--s24:block;}}@media (min-width: 32px) and (max-width: 39.98px) {g{--s32:block;}}@media (min-width: 40px) and (max-width: 47.98px) {g{--s40:block;}}@media (min-width: 48px) and (max-width: 63.98px) {g{--s48:block;}}@media (min-width: 64px) {g{--s64:block;}}</style><g><use href="#i-syringe"/></g></svg>