<svg xmlns="http://www.w3.org/2000/svg"><defs><symbol id="i-tablet"><symbol id="s16" viewBox="0 0 16 16"><path d="M13 0H3c-.96 0-1.75.79-1.75 1.75v12.49c0 .97.79 1.75 1.75 1.75h10c.96 0 1.75-.79 1.75-1.75V1.75C14.75.78 13.96 0 13 0M3 1.5h10c.14 0 .25.11.25.25v8.17H2.75V1.75c0-.14.11-.25.25-.25m10 13H3c-.14 0-.25-.11-.25-.25v-2.82h10.5v2.82c0 .14-.11.25-.25.25m-5.75-2.25h1.5v1.5h-1.5z"/></symbol><symbol id="s24" viewBox="0 0 24 24"><path d="M19.25-.03H4.75c-1.45 0-2.63 1.17-2.63 2.62v18.76c0 1.44 1.18 2.62 2.62 2.62h14.5c1.45 0 2.62-1.17 2.62-2.62V2.59c0-1.44-1.18-2.62-2.62-2.62ZM4.75 1.71h14.5c.48 0 .88.39.88.87v13.6H3.88V2.59c0-.48.39-.87.88-.87Zm14.5 20.51H4.75a.88.88 0 0 1-.88-.87v-3.42h16.25v3.42c0 .48-.39.87-.88.87Zm-8.13-2.98h1.75v1.75h-1.75z"/></symbol><symbol id="s32" viewBox="0 0 32 32"><path d="M26 0H6C4.35 0 3 1.34 3 3v26c0 1.66 1.35 3 3 3h20c1.65 0 3-1.35 3-3V3c0-1.66-1.35-3-3-3m1 29c0 .55-.45 1-1 1H6c-.55 0-1-.45-1-1v-4.68h22zm0-6.69H5V3c0-.55.45-1 1-1h20c.55 0 1 .45 1 1v19.32Zm-10 5.67h-2v-2h2z"/></symbol><symbol id="s40" viewBox="0 0 40 40"><path d="M32.75 0H7.25C5.39 0 3.88 1.51 3.88 3.38v33.25c0 1.86 1.51 3.38 3.38 3.38h25.5c1.86 0 3.38-1.51 3.38-3.38V3.38C36.12 1.51 34.61 0 32.75 0M7.25 2.25h25.5c.62 0 1.12.51 1.12 1.13v25.86H6.12V3.38c0-.62.5-1.13 1.12-1.13Zm25.5 35.5H7.25c-.62 0-1.12-.51-1.12-1.13v-5.14h27.75v5.14c0 .62-.5 1.13-1.12 1.13Zm-13.87-4.16h2.25v2.25h-2.25z"/></symbol><symbol id="s48" viewBox="0 0 48 48"><path d="M39.5.01h-31c-2.07 0-3.75 1.68-3.75 3.75v40.5c0 2.07 1.68 3.75 3.75 3.75h31c2.07 0 3.75-1.68 3.75-3.75V3.76c0-2.07-1.68-3.75-3.75-3.75m-31 2.5h31c.69 0 1.25.56 1.25 1.25v31.49H7.25V3.76c0-.69.56-1.25 1.25-1.25m31 43h-31c-.69 0-1.25-.56-1.25-1.25v-6.51h33.5v6.51c0 .69-.56 1.25-1.25 1.25M22.75 40.4h2.5v2.71h-2.5z"/></symbol><symbol id="s64" viewBox="0 0 64 64"><path d="M53.25 0h-42.5C8.48 0 6.62 1.85 6.62 4.13v55.75c0 2.27 1.85 4.12 4.12 4.12h42.5c2.27 0 4.12-1.85 4.12-4.12V4.13C57.38 1.85 55.52 0 53.25 0m-42.5 2.75h42.5c.76 0 1.38.62 1.38 1.37v45.81H9.38V4.13c0-.76.62-1.37 1.38-1.37Zm42.5 58.5h-42.5c-.76 0-1.38-.62-1.38-1.37v-7.19h45.25v7.19c0 .76-.62 1.37-1.38 1.37Zm-22.63-5.74h2.75v2.75h-2.75z"/></symbol><use style="display: var(--s16, none)" href="#s16"/><use style="display: var(--s24, none)" href="#s24"/><use style="display: var(--s32, none)" href="#s32"/><use style="display: var(--s40, none)" href="#s40"/><use style="display: var(--s48, none)" href="#s48"/><use style="display: var(--s64, none)" href="#s64"/></symbol></defs><style>@media (max-width: 23.98px) {g{--s16:block;}}@media (min-width: 24px) and (max-width: 31.98px) {g{--s24:block;}}@media (min-width: 32px) and (max-width: 39.98px) {g{--s32:block;}}@media (min-width: 40px) and (max-width: 47.98px) {g{--s40:block;}}@media (min-width: 48px) and (max-width: 63.98px) {g{--s48:block;}}@media (min-width: 64px) {g{--s64:block;}}</style><g><use href="#i-tablet"/></g></svg>