<svg xmlns="http://www.w3.org/2000/svg"><defs><symbol id="i-tablet-solid"><symbol id="s16" viewBox="0 0 16 16"><path d="M1.25 10.43V1.75C1.25.78 2.04 0 3 0h10c.96 0 1.75.79 1.75 1.75v8.67H1.25Zm13.5 1.5v2.32c0 .97-.79 1.75-1.75 1.75H3c-.96 0-1.75-.79-1.75-1.75v-2.32zm-6 1.09h-1.5v1.5h1.5z"/></symbol><symbol id="s24" viewBox="0 0 24 24"><path d="M2.12 18.43v2.92c0 1.44 1.18 2.62 2.62 2.62h14.5c1.45 0 2.62-1.17 2.62-2.62v-2.92zm10.76 3.06h-1.75v-1.75h1.75zM2.12 16.68V2.59c0-1.45 1.18-2.62 2.63-2.62h14.5c1.45 0 2.62 1.17 2.62 2.62v14.1H2.12Z"/></symbol><symbol id="s32" viewBox="0 0 32 32"><path d="M3 24.82V29c0 1.66 1.35 3 3 3h20c1.65 0 3-1.35 3-3v-4.18zm14 3.66h-2v-2h2zM3 22.81V3c0-1.66 1.35-3 3-3h20c1.65 0 3 1.35 3 3v19.82H3Z"/></symbol><symbol id="s40" viewBox="0 0 40 40"><path d="M3.83 29.73V3.37C3.83 1.51 5.34 0 7.2 0h25.5c1.86 0 3.38 1.51 3.38 3.38v26.36H3.83Zm32.25 2.25v4.64c0 1.86-1.51 3.38-3.38 3.38H7.2c-1.86 0-3.38-1.51-3.38-3.38v-4.64h32.25Zm-15 2.11h-2.25v2.25h2.25z"/></symbol><symbol id="s48" viewBox="0 0 48 48"><path d="M4.75 36.24V3.76A3.76 3.76 0 0 1 8.5 0h31c2.07 0 3.75 1.68 3.75 3.75v32.49zm38.5 2.5v5.51c0 2.07-1.68 3.75-3.75 3.75h-31c-2.07 0-3.75-1.68-3.75-3.75v-5.51zm-18 2.65h-2.5v2.71h2.5z"/></symbol><symbol id="s64" viewBox="0 0 64 64"><path d="M6.62 53.69v6.19c0 2.27 1.85 4.12 4.12 4.12h42.5c2.27 0 4.12-1.85 4.12-4.12v-6.19zm26.76 5.57h-2.75v-2.75h2.75zM6.62 50.94V4.13C6.62 1.85 8.48 0 10.75 0h42.5c2.27 0 4.12 1.85 4.12 4.12v46.81H6.62Z"/></symbol><use style="display: var(--s16, none)" href="#s16"/><use style="display: var(--s24, none)" href="#s24"/><use style="display: var(--s32, none)" href="#s32"/><use style="display: var(--s40, none)" href="#s40"/><use style="display: var(--s48, none)" href="#s48"/><use style="display: var(--s64, none)" href="#s64"/></symbol></defs><style>@media (max-width: 23.98px) {g{--s16:block;}}@media (min-width: 24px) and (max-width: 31.98px) {g{--s24:block;}}@media (min-width: 32px) and (max-width: 39.98px) {g{--s32:block;}}@media (min-width: 40px) and (max-width: 47.98px) {g{--s40:block;}}@media (min-width: 48px) and (max-width: 63.98px) {g{--s48:block;}}@media (min-width: 64px) {g{--s64:block;}}</style><g><use href="#i-tablet-solid"/></g></svg>