<svg xmlns="http://www.w3.org/2000/svg"><defs><symbol id="i-tag"><symbol id="s16" viewBox="0 0 16 16"><path d="M12.68 0 8.16.39.67 7.91c-.88.88-.88 2.31 0 3.19l4.24 4.25c.42.43.99.66 1.59.66s1.17-.23 1.59-.66l7.49-7.51.44-4.5zm1.46 7.16-7.11 7.12c-.29.29-.77.29-1.06 0l-4.24-4.24a.754.754 0 0 1 0-1.06l7.1-7.13 3.28-.28 2.34 2.34-.32 3.25ZM9.3 3.51c-.42.43-.66.99-.66 1.59s.23 1.17.66 1.59.99.66 1.59.66 1.17-.23 1.59-.66.66-.99.66-1.59-.23-1.17-.66-1.59c-.85-.85-2.33-.85-3.18 0m2.34 1.59c0 .2-.08.39-.22.53-.28.28-.78.28-1.06 0a.75.75 0 1 1 1.28-.53"/></symbol><symbol id="s24" viewBox="0 0 24 24"><path d="m19.21 0-6.57.57L.94 12.29a3.136 3.136 0 0 0 0 4.42l6.35 6.37c.61.61 1.41.91 2.21.91s1.6-.3 2.21-.91L23.4 11.36l.63-6.53zm2.51 10.57L10.47 21.84c-.53.54-1.4.54-1.94 0l-6.35-6.37c-.54-.54-.54-1.41 0-1.95L13.42 2.26l5.13-.44 3.66 3.67zm-7.31-5.41c-.59.59-.91 1.38-.91 2.21s.32 1.62.91 2.21 1.37.92 2.21.92 1.62-.33 2.21-.92.91-1.38.91-2.21-.32-1.62-.91-2.21c-1.18-1.18-3.24-1.18-4.41 0Zm3.18 1.24c.26.26.4.61.4.97s-.14.71-.4.97c-.52.52-1.42.52-1.94 0-.26-.26-.4-.61-.4-.97a1.37 1.37 0 0 1 2.34-.97"/></symbol><symbol id="s32" viewBox="0 0 32 32"><path d="m25.67-.04-8.64.75L1.17 16.6a4.02 4.02 0 0 0 0 5.67l8.49 8.51c.78.78 1.8 1.17 2.83 1.17s2.05-.39 2.83-1.17l15.85-15.89.83-8.58zm3.58 14.02L13.9 29.37c-.78.78-2.05.78-2.83 0l-8.49-8.51c-.78-.78-.78-2.05 0-2.84L17.93 2.64l6.98-.61 5.01 5.02zM19.44 6.8a4.02 4.02 0 0 0 0 5.67c.78.78 1.81 1.17 2.83 1.17s2.05-.39 2.83-1.17a4.02 4.02 0 0 0 0-5.67 4.01 4.01 0 0 0-5.66 0m4.24 1.42c.78.78.78 2.05 0 2.84-.78.78-2.05.78-2.83 0s-.78-2.05 0-2.84c.39-.39.9-.59 1.42-.59s1.02.19 1.41.59"/></symbol><symbol id="s40" viewBox="0 0 40 40"><path d="m32.16-.05-10.7.93L1.42 20.97c-1.9 1.91-1.9 5.01 0 6.91l10.61 10.64c.92.92 2.15 1.43 3.45 1.43s2.53-.51 3.45-1.43l20.03-20.08 1.03-10.63zm4.65 17.46L17.35 36.92c-.99 1-2.72.99-3.71 0L3.02 26.28a2.644 2.644 0 0 1 0-3.72L22.48 3.05l8.84-.77 6.34 6.36-.85 8.76Zm-12.3-8.95a4.913 4.913 0 0 0 0 6.92c.95.95 2.2 1.43 3.45 1.43s2.5-.48 3.45-1.43c1.9-1.91 1.9-5.01 0-6.91-.92-.92-2.15-1.43-3.45-1.43s-2.53.51-3.45 1.43Zm5.31 5.32c-.99 1-2.72 1-3.71 0a2.644 2.644 0 0 1 0-3.72c.5-.5 1.15-.77 1.86-.77s1.36.27 1.86.77a2.644 2.644 0 0 1 0 3.72Z"/></symbol><symbol id="s48" viewBox="0 0 48 48"><path d="M38.67-.06 25.91 1.05 1.69 25.33a5.794 5.794 0 0 0 0 8.16l12.74 12.77c1.09 1.09 2.53 1.69 4.07 1.69s2.98-.6 4.07-1.69l23.9-23.96.32-.32 1.23-12.67zm5.71 20.9L20.8 44.48c-1.23 1.23-3.37 1.23-4.6 0L3.46 31.71a3.265 3.265 0 0 1 0-4.61L27.04 3.47l10.69-.93 7.68 7.7zM29.59 10.12a5.794 5.794 0 0 0 0 8.16c1.09 1.09 2.53 1.69 4.07 1.69s2.98-.6 4.07-1.69 1.69-2.54 1.69-4.08-.6-2.99-1.69-4.08c-2.24-2.25-5.89-2.25-8.14 0m6.37 6.39c-1.23 1.23-3.37 1.23-4.6 0a3.265 3.265 0 0 1 0-4.61 3.257 3.257 0 0 1 4.6 0 3.265 3.265 0 0 1 0 4.61"/></symbol><symbol id="s64" viewBox="0 0 64 64"><path d="M51.7-.09 34.93 1.37 2.13 34.24c-2.88 2.88-2.88 7.58 0 10.47l16.99 17.03c1.39 1.4 3.25 2.17 5.22 2.17s3.83-.77 5.22-2.17l32.79-32.88 1.62-16.66zm8.01 27.7-32.1 32.18c-.87.88-2.04 1.36-3.27 1.36s-2.4-.48-3.27-1.36l-17-17.03c-1.8-1.81-1.81-4.75 0-6.56l32.1-32.18 14.5-1.26 10.44 10.46-1.39 14.38ZM45.14 11.22c-1.97 0-3.83.77-5.22 2.17s-2.16 3.26-2.16 5.23.77 3.84 2.16 5.23c1.44 1.44 3.33 2.16 5.22 2.16s3.78-.72 5.22-2.16a7.424 7.424 0 0 0 0-10.47 7.3 7.3 0 0 0-5.22-2.17Zm3.27 10.69c-1.8 1.81-4.74 1.81-6.55 0-.87-.88-1.36-2.04-1.36-3.28s.48-2.4 1.36-3.28 2.04-1.36 3.27-1.36 2.4.48 3.27 1.36a4.66 4.66 0 0 1 0 6.56Z"/></symbol><use style="display: var(--s16, none)" href="#s16"/><use style="display: var(--s24, none)" href="#s24"/><use style="display: var(--s32, none)" href="#s32"/><use style="display: var(--s40, none)" href="#s40"/><use style="display: var(--s48, none)" href="#s48"/><use style="display: var(--s64, none)" href="#s64"/></symbol></defs><style>@media (max-width: 23.98px) {g{--s16:block;}}@media (min-width: 24px) and (max-width: 31.98px) {g{--s24:block;}}@media (min-width: 32px) and (max-width: 39.98px) {g{--s32:block;}}@media (min-width: 40px) and (max-width: 47.98px) {g{--s40:block;}}@media (min-width: 48px) and (max-width: 63.98px) {g{--s48:block;}}@media (min-width: 64px) {g{--s64:block;}}</style><g><use href="#i-tag"/></g></svg>