<svg xmlns="http://www.w3.org/2000/svg"><defs><symbol id="i-target-solid"><symbol id="s16" viewBox="0 0 16 16"><path d="M8 0C3.59 0 0 3.59 0 8s3.59 8 8 8 8-3.59 8-8-3.59-8-8-8m1.25 13.34v-2.09a1.25 1.25 0 0 0-2.5 0v2.09a5.5 5.5 0 0 1-4.09-4.09h2.09a1.25 1.25 0 0 0 0-2.5H2.66a5.5 5.5 0 0 1 4.09-4.09v2.09a1.25 1.25 0 0 0 2.5 0V2.66c2.02.47 3.62 2.07 4.09 4.09h-2.09a1.25 1.25 0 0 0 0 2.5h2.09a5.5 5.5 0 0 1-4.09 4.09"/></symbol><symbol id="s24" viewBox="0 0 24 24"><path d="M12 0C5.38 0 0 5.38 0 12s5.38 12 12 12 12-5.38 12-12S18.62 0 12 0m1.5 20.86v-4.58c0-.83-.67-1.5-1.5-1.5s-1.5.67-1.5 1.5v4.58a9.01 9.01 0 0 1-7.36-7.36h4.58c.83 0 1.5-.67 1.5-1.5s-.67-1.5-1.5-1.5H3.14c.64-3.76 3.6-6.72 7.36-7.36v4.58c0 .83.67 1.5 1.5 1.5s1.5-.67 1.5-1.5V3.14c3.76.64 6.72 3.6 7.36 7.36h-4.58c-.83 0-1.5.67-1.5 1.5s.67 1.5 1.5 1.5h4.58a9.01 9.01 0 0 1-7.36 7.36"/></symbol><symbol id="s32" viewBox="0 0 32 32"><path d="M16-.01c-8.82 0-16 7.18-16 16s7.18 16 16 16 16-7.18 16-16-7.18-16-16-16m1.75 28.37V21.8c0-.96-.78-1.75-1.75-1.75s-1.75.78-1.75 1.75v6.56c-5.5-.77-9.85-5.13-10.62-10.62h6.55c.96 0 1.75-.78 1.75-1.75s-.78-1.75-1.75-1.75H3.63c.77-5.5 5.13-9.85 10.62-10.62v6.56c0 .96.78 1.75 1.75 1.75s1.75-.78 1.75-1.75V3.62c5.5.77 9.85 5.13 10.62 10.62h-6.55c-.96 0-1.75.78-1.75 1.75s.78 1.75 1.75 1.75h6.55c-.77 5.5-5.13 9.85-10.62 10.62"/></symbol><symbol id="s40" viewBox="0 0 40 40"><path d="M20-.06c-11.03 0-20 8.98-20 20s8.97 20 20 20 20-8.97 20-20-8.97-20-20-20m2 35.86v-8.51a2 2 0 1 0-4 0v8.51c-7.22-.91-12.94-6.63-13.85-13.85h8.51a2 2 0 1 0 0-4H4.15C5.06 10.73 10.78 5.01 18 4.1v8.51a2 2 0 1 0 4 0V4.09c7.22.91 12.94 6.63 13.85 13.85h-8.51a2 2 0 1 0 0 4h8.51c-.91 7.22-6.63 12.94-13.85 13.85Z"/></symbol><symbol id="s48" viewBox="0 0 48 48"><path d="M24 0C10.77 0 0 10.77 0 24s10.77 24 24 24 24-10.77 24-24S37.23 0 24 0m2.25 43.36V32.88c0-1.24-1.01-2.25-2.25-2.25s-2.25 1.01-2.25 2.25v10.48c-8.95-1.04-16.07-8.15-17.1-17.1h10.48c1.24 0 2.25-1.01 2.25-2.25s-1.01-2.25-2.25-2.25H4.64C5.68 12.8 12.8 5.68 21.75 4.64v10.48c0 1.24 1.01 2.25 2.25 2.25s2.25-1.01 2.25-2.25V4.64c8.95 1.04 16.07 8.15 17.1 17.1H32.87c-1.24 0-2.25 1.01-2.25 2.25s1.01 2.25 2.25 2.25h10.48c-1.04 8.95-8.15 16.07-17.1 17.1Z"/></symbol><symbol id="s64" viewBox="0 0 64 64"><path d="M32 0C14.35 0 0 14.35 0 32s14.35 32 32 32 32-14.36 32-32S49.65 0 32 0m2.5 58.88V44.04a2.5 2.5 0 0 0-5 0v14.84C16.61 57.69 6.31 47.4 5.12 34.5h14.84a2.5 2.5 0 0 0 0-5H5.12C6.31 16.61 16.6 6.31 29.5 5.12v14.84a2.5 2.5 0 0 0 5 0V5.12C47.39 6.31 57.69 16.6 58.88 29.5H44.04a2.5 2.5 0 0 0 0 5h14.84C57.69 47.39 47.4 57.69 34.5 58.88"/></symbol><use style="display: var(--s16, none)" href="#s16"/><use style="display: var(--s24, none)" href="#s24"/><use style="display: var(--s32, none)" href="#s32"/><use style="display: var(--s40, none)" href="#s40"/><use style="display: var(--s48, none)" href="#s48"/><use style="display: var(--s64, none)" href="#s64"/></symbol></defs><style>@media (max-width: 23.98px) {g{--s16:block;}}@media (min-width: 24px) and (max-width: 31.98px) {g{--s24:block;}}@media (min-width: 32px) and (max-width: 39.98px) {g{--s32:block;}}@media (min-width: 40px) and (max-width: 47.98px) {g{--s40:block;}}@media (min-width: 48px) and (max-width: 63.98px) {g{--s48:block;}}@media (min-width: 64px) {g{--s64:block;}}</style><g><use href="#i-target-solid"/></g></svg>