<svg xmlns="http://www.w3.org/2000/svg"><defs><symbol id="i-timereverse-solid"><symbol id="s16" viewBox="0 0 16 16"><path d="M14.99 8.89c0 3.91-3.18 7.1-7.1 7.1S.8 12.8.8 8.89c0-.51.05-1.02.16-1.51l2.44.53c-.07.32-.1.64-.1.98a4.6 4.6 0 0 0 9.2 0c0-2.1-1.42-3.85-3.35-4.4V6.1L5.58 3.05 9.15-.01v1.92C12.47 2.5 15 5.4 15 8.89ZM4.26 6.06 2.29 4.52c-.3.38-.56.79-.77 1.22l2.24 1.11c.14-.28.3-.54.5-.79m1.58-1.29L4.73 2.53c-.43.21-.84.47-1.22.77l1.54 1.97c.25-.19.51-.36.79-.5m3.3 5.39V6.45h-2.5v2.67l-1.27 1.27 1.77 1.77 1.99-1.99Z"/></symbol><symbol id="s24" viewBox="0 0 24 24"><path d="M23.18 13.13c0 5.98-4.87 10.85-10.85 10.85S1.49 19.13 1.48 13.15l-.02-.02c0-.78.08-1.55.25-2.3l2.93.63c-.12.55-.18 1.11-.18 1.67h.02c0 4.33 3.52 7.85 7.85 7.85s7.85-3.52 7.85-7.85c0-3.82-2.74-7-6.35-7.71v2.15l-4.44-3.8 4.44-3.78V2.4c5.27.73 9.35 5.26 9.35 10.74ZM6.22 8.17 3.9 6.27c-.62.76-1.13 1.59-1.52 2.48l2.74 1.21c.28-.64.66-1.25 1.1-1.79m2.92-2.22L7.93 3.21c-.89.39-1.72.91-2.48 1.52l1.9 2.32a7.7 7.7 0 0 1 1.79-1.1m4.68 2.18h-3v5.33L8.4 15.88 10.52 18l3.24-3.24-.03-.03h.09V8.14Z"/></symbol><symbol id="s32" viewBox="0 0 32 32"><path d="M30.74 17.41c0 8.05-6.55 14.6-14.6 14.6S1.53 25.46 1.53 17.41c0-.76.06-1.52.17-2.26l3.46.54c-.09.57-.13 1.15-.13 1.73 0 6.12 4.98 11.1 11.1 11.1s11.1-4.98 11.1-11.1c0-5.53-4.06-10.11-9.35-10.95v2.64l-5.31-4.54L17.89.01v2.91c7.23.87 12.85 7.03 12.85 14.49M12.01 7.09l-1.29-3.26C9.38 4.36 8.12 5.09 6.99 6l2.19 2.73c.86-.69 1.81-1.24 2.83-1.65Zm-4.57 3.39L4.71 8.29c-.91 1.13-1.63 2.38-2.17 3.73l3.25 1.29c.41-1.02.96-1.97 1.65-2.83m6.94-.63v7.96l-3.85 3.84L13 24.13l4.86-4.86h.01V9.84h-3.5Z"/></symbol><symbol id="s40" viewBox="0 0 40 40"><path d="M38.54 21.55c0 10.12-8.24 18.36-18.36 18.36S1.84 31.68 1.82 21.57l-.04-.02c0-.75.04-1.51.13-2.24l3.96.49c-.07.57-.11 1.16-.11 1.75h.03c0 7.92 6.44 14.36 14.36 14.36s14.36-6.44 14.36-14.36c0-7.24-5.39-13.23-12.37-14.21v3.13l-6.17-5.28L22.18-.1v3.4c9.19 1 16.36 8.8 16.36 18.24Zm-29.9-8.6-3.2-2.39c-.85 1.13-1.56 2.36-2.12 3.65l3.66 1.59c.44-1.01 1-1.97 1.66-2.86Zm5.77-4.58-1.6-3.66c-1.29.56-2.52 1.28-3.65 2.12l2.39 3.2c.88-.66 1.85-1.22 2.86-1.66m7.76 3.15h-3.99v10.49l-4.95 4.95 2.82 2.82 6.08-6.08h-.01l.05-.01z"/></symbol><symbol id="s48" viewBox="0 0 48 48"><path d="M45.71 25.89C45.71 38.08 35.79 48 23.6 48S1.49 38.08 1.49 25.89c0-.93.06-1.86.17-2.78l4.47.56c-.09.73-.14 1.48-.14 2.22 0 9.71 7.9 17.61 17.61 17.61s17.6-7.9 17.6-17.61c0-8.94-6.71-16.33-15.35-17.44v3.62L18.8 6.04 25.85 0v3.9c11.14 1.13 19.86 10.56 19.86 21.99M16.56 9.73 14.77 5.6c-1.59.69-3.1 1.57-4.49 2.61l2.7 3.6c1.11-.83 2.31-1.53 3.57-2.08Zm-7.08 5.58-3.6-2.71a22.4 22.4 0 0 0-2.61 4.49l4.13 1.79c.55-1.26 1.25-2.47 2.08-3.57m11.86-1.42v12.55l-5.71 5.71 3.18 3.18 7.01-7.01h.02V13.89z"/></symbol><symbol id="s64" viewBox="0 0 64 64"><path d="M61.89 34.23c0 16.4-13.34 29.75-29.75 29.75S2.4 50.64 2.4 34.23c0-1.46.11-2.92.32-4.35l4.95.73c-.17 1.19-.26 2.41-.26 3.63 0 13.65 11.1 24.75 24.75 24.75s24.75-11.1 24.75-24.75c0-12.8-9.77-23.36-22.25-24.62v4.37l-8.18-7 8.16-7.01V4.6c15.24 1.27 27.25 14.07 27.25 29.64Zm-39.18-22.9-1.9-4.63a29.7 29.7 0 0 0-7.07 4.12l3.09 3.93c1.8-1.41 3.78-2.56 5.88-3.43ZM12.6 18.97l-3.93-3.09c-1.7 2.16-3.08 4.54-4.12 7.07l4.63 1.9c.86-2.11 2.02-4.09 3.43-5.88Zm22 18.02h.03V18.37h-5v16.52l-7.8 7.8 3.54 3.54L34.6 37Z"/></symbol><use style="display: var(--s16, none)" href="#s16"/><use style="display: var(--s24, none)" href="#s24"/><use style="display: var(--s32, none)" href="#s32"/><use style="display: var(--s40, none)" href="#s40"/><use style="display: var(--s48, none)" href="#s48"/><use style="display: var(--s64, none)" href="#s64"/></symbol></defs><style>@media (max-width: 23.98px) {g{--s16:block;}}@media (min-width: 24px) and (max-width: 31.98px) {g{--s24:block;}}@media (min-width: 32px) and (max-width: 39.98px) {g{--s32:block;}}@media (min-width: 40px) and (max-width: 47.98px) {g{--s40:block;}}@media (min-width: 48px) and (max-width: 63.98px) {g{--s48:block;}}@media (min-width: 64px) {g{--s64:block;}}</style><g><use href="#i-timereverse-solid"/></g></svg>