<svg xmlns="http://www.w3.org/2000/svg"><defs><symbol id="i-toothcontrol"><symbol id="s16" viewBox="0 0 16 16"><path d="M13.18 6.72c.57-1.32 1.18-3.26.65-4.75-.29-.82-.91-1.41-1.76-1.72-.07-.03-1.75-.63-3.39.12-.02 0-.03.01-.05.02h-.05c-.56.08-2.21.24-3.2-.03C3.7-.38 2.05.21 1.99.24 1.11.57.5 1.16.21 1.98-.55 4.09.99 7.13 1.47 8c-.06 1.15-.23 5.6.58 7.26.2.41.64.67 1.23.73.55.05 1.31-.06 1.66-.54l.12-.16.02-.2c.18-1.61.66-3.35 1.2-4.25 0 .1-.03.2-.03.31 0 2.05 1.27 3.79 3.06 4.52.33.25.79.35 1.19.35.09 0 .17 0 .25-.01h.04c.11 0 .22.03.33.03 2.69 0 4.87-2.19 4.87-4.88 0-1.95-1.16-3.63-2.82-4.41Zm-9.53 7.76h-.3c-.41-1.05-.47-3.71-.4-5.68.17-.05.32-.12.55-.13.27-.1-.12-.49-.25-.61a.64.64 0 0 1-.26-.31v-.11l-.04-.09c0-.02-.02-.05-.03-.06l-.03-.05c-.52-.89-1.77-3.52-1.26-4.94.14-.4.42-.66.87-.82.01 0 1.19-.41 2.32.1l.1.04c.6.17 1.32.23 1.98.22-.19.09-.42.14-.73.14-.41 0-.75.34-.75.75s.34.75.75.75c1.61 0 2.3-.94 2.71-1.51.1-.13.24-.33.36-.39 1.13-.52 2.31-.11 2.32-.1.45.16.72.42.86.82.37 1.02-.17 2.65-.7 3.83-.2-.02-.39-.06-.59-.06-1.8 0-3.36 1-4.2 2.46-2.27.11-3.06 4.2-3.28 5.77Zm7.48.02c-1.86 0-3.37-1.51-3.37-3.37s1.51-3.37 3.37-3.37 3.37 1.51 3.37 3.37-1.51 3.37-3.37 3.37m1.84-5.22c.34.23.44.7.21 1.04l-2.12 3.18-1.94-1.37a.753.753 0 1 1 .87-1.23l.68.48 1.26-1.9c.23-.35.69-.44 1.04-.21Z"/></symbol><symbol id="s24" viewBox="0 0 24 24"><path d="M19.73 9.98c.86-1.99 1.81-4.95 1.01-7.14-.43-1.19-1.29-2.02-2.55-2.47-.1-.04-2.59-.93-5.04.19-.04.01-.08.03-.11.04h-.1c-.04 0-3.17.46-5.06-.05C5.39-.55 2.94.32 2.85.36 1.6.82.74 1.65.31 2.84-.84 6 1.65 10.79 2.27 11.92c-.09 1.62-.37 8.57.85 11.11.26.54.86.88 1.67.96.62.06 1.8-.03 2.31-.72l.14-.19.03-.23c.26-2.3 1.02-5.39 2.05-6.87-.02.22-.03.45-.03.67 0 3.25 2.12 6 5.05 6.97.47.29 1.1.38 1.58.38.12 0 .24 0 .34-.01h.04c.12 0 .23.02.35.02 4.06 0 7.36-3.3 7.36-7.35 0-2.95-1.76-5.5-4.28-6.66ZM5.59 22.21c-.29.06-.73.06-.92-.02-.76-1.71-.78-6.29-.69-9.04.4 0 .69-.16 1.14-.11.07 0 .14-.07.11-.14-.12-.44-.77-.74-1-1.06-.08-.1-.09-.28-.19-.36l-.12-.21c-.83-1.4-2.79-5.54-1.96-7.83.25-.68.74-1.15 1.5-1.42.02 0 1.93-.67 3.78.17l.12.05c1.16.33 2.65.36 3.83.3-.43.46-.99.79-1.99.79-.48 0-.88.39-.88.87s.39.87.88.87c2.34 0 3.31-1.32 3.95-2.2.21-.29.45-.61.66-.69 1.85-.84 3.76-.17 3.78-.16.76.27 1.25.74 1.5 1.42.59 1.62-.22 4.16-1.04 6-.46-.09-.93-.14-1.41-.14a7.36 7.36 0 0 0-6.6 4.12c-3.12.58-4.19 6.69-4.47 8.79Zm11.06.04c-3.09 0-5.61-2.51-5.61-5.6s2.52-5.6 5.61-5.6 5.61 2.51 5.61 5.6-2.52 5.6-5.61 5.6m2.74-8.26c.4.27.51.81.24 1.21l-3.15 4.74-2.8-1.96a.87.87 0 0 1-.21-1.22.87.87 0 0 1 1.22-.21l1.33.93 2.16-3.24c.27-.4.81-.51 1.21-.24Z"/></symbol><symbol id="s32" viewBox="0 0 32 32"><path d="M26.23 13.15c1.15-2.66 2.38-6.56 1.34-9.43-.56-1.55-1.68-2.63-3.33-3.22-.14-.05-3.42-1.22-6.67.26-.06.02-.11.04-.17.07-.05 0-.09 0-.14.01-.04 0-4.32.62-6.9-.08C7.06-.71 3.83.45 3.7.5 2.04 1.09.92 2.17.36 3.72c-1.54 4.24 1.87 10.71 2.66 12.13-.11 2.07-.52 11.52 1.13 14.92.33.67 1.07 1.1 2.11 1.19.79.08 2.31-.03 2.95-.9l.16-.22.03-.27c.36-3.18 1.37-7.28 2.78-9.31-.02.28-.04.56-.04.84 0 4.57 3.13 8.42 7.36 9.55.55.24 1.2.32 1.72.32h.19c.21.01.42.03.63.03 5.46 0 9.91-4.44 9.91-9.89 0-3.97-2.35-7.38-5.74-8.96ZM7.47 29.89c-.46.14-1.33.13-1.51 0-1.1-2.27-1.12-8.74-1-12.51.63.09 1.06-.15 1.72-.01.09.02.16-.08.12-.16-.2-.57-1.05-.92-1.39-1.31-.14-.15-.18-.39-.36-.49v-.05l-.15-.26C3.77 13.19 1.1 7.55 2.25 4.4c.35-.97 1.05-1.63 2.13-2.02.02 0 1.02-.36 2.38-.36.86 0 1.85.14 2.84.59l.14.05c1.68.48 3.89.48 5.53.38-.65.8-1.45 1.44-3.09 1.44-.55 0-1 .45-1 1s.45 1 1 1c3.07 0 4.34-1.74 5.18-2.89.33-.45.64-.87.96-.99 2.56-1.16 5.2-.24 5.23-.23 1.08.39 1.77 1.05 2.13 2.02.8 2.19-.26 5.59-1.35 8.09-.73-.17-1.49-.27-2.28-.27-4.07 0-7.58 2.47-9.1 5.98-1.6.59-4.42 2.9-5.49 11.69Zm14.59.12c-4.36 0-7.91-3.54-7.91-7.89s3.55-7.89 7.91-7.89 7.91 3.54 7.91 7.89-3.55 7.89-7.91 7.89m3.64-11.37c.46.31.59.93.28 1.39l-4.22 6.33-3.68-2.58a.996.996 0 0 1-.24-1.39c.32-.45.94-.56 1.4-.24l1.99 1.4 3.08-4.62c.31-.46.93-.59 1.39-.28Z"/></symbol><symbol id="s40" viewBox="0 0 40 40"><path d="M32.77 16.5c1.45-3.32 3.06-8.29 1.74-11.92-.69-1.91-2.08-3.25-4.11-3.98-.17-.06-4.26-1.52-8.3.32-.08.03-.15.06-.23.09-.06 0-.13 0-.19.01-.05 0-5.48.79-8.76-.11C8.81-.91 4.78.53 4.62.58c-2.04.75-3.43 2.09-4.12 4-1.93 5.32 2.41 13.5 3.36 15.2-.12 2.25-.65 14.5 1.41 18.77.39.8 1.29 1.31 2.54 1.43.18.02.36.03.55.03 1.16 0 2.47-.32 3.05-1.11l.18-.24.03-.3c.38-3.4 1.72-9.58 3.84-12.2-.06.51-.11 1.02-.11 1.54 0 5.67 3.86 10.44 9.09 11.86.8.38 1.86.5 2.74.42h.01c.16 0 .31.02.47.02 6.79 0 12.32-5.52 12.32-12.3 0-4.97-2.98-9.25-7.24-11.19ZM9.44 37.6c-.6.22-1.89.21-2.15-.03-1.41-2.92-1.43-11.29-1.26-16.02.84.18 1.41-.15 2.24.07.1.03.19-.09.14-.18-.29-.7-1.33-1.1-1.79-1.57-.18-.18-.26-.46-.48-.6v-.04l-.17-.3c-.05-.09-5.11-8.75-3.35-13.59.46-1.27 1.36-2.13 2.77-2.63.03-.01 3.41-1.19 6.68.29l.16.06c2.21.63 5.14.59 7.22.45-.88 1.15-1.9 2.11-4.19 2.11-.62 0-1.13.5-1.13 1.12s.5 1.12 1.13 1.12c3.79 0 5.37-2.16 6.42-3.58.42-.58.82-1.12 1.26-1.29 3.28-1.49 6.65-.3 6.69-.29 1.4.5 2.3 1.36 2.76 2.62 1.09 2.99-.43 7.44-1.76 10.42-.95-.23-1.93-.37-2.95-.37-5.06 0-9.42 3.07-11.31 7.43-4.9 1.44-6.57 12.04-6.93 14.77Zm18.24.14c-5.55 0-10.07-4.51-10.07-10.05s4.52-10.05 10.07-10.05 10.07 4.51 10.07 10.05-4.52 10.05-10.07 10.05m4.51-14.31c.52.34.66 1.04.31 1.56l-5.23 7.85-4.51-3.16c-.51-.36-.63-1.06-.27-1.57s1.06-.63 1.57-.27l2.62 1.84 3.95-5.92c.34-.52 1.04-.66 1.56-.31Z"/></symbol><symbol id="s48" viewBox="0 0 48 48"><path d="M39.23 19.82c1.75-3.99 3.7-9.97 2.11-14.34-.82-2.27-2.47-3.87-4.89-4.73-.21-.08-5.05-1.81-9.99.41-.08.03-.16.06-.24.1-.07 0-.15 0-.23.01-.07 0-6.64.96-10.6-.13C10.47-1.05 5.65.68 5.46.75c-2.43.86-4.08 2.46-4.9 4.73-2.32 6.4 2.94 16.28 4.05 18.26-.14 2.62-.8 17.46 1.69 22.6.45.93 1.51 1.52 2.98 1.66q.315.03.66.03c1.37 0 2.91-.38 3.59-1.29l.2-.27.04-.33c.56-4.96 2.28-12.19 4.89-15.05-.11.71-.18 1.43-.18 2.17 0 6.72 4.53 12.39 10.7 14.15.96.53 2.33.69 3.45.59.07 0 .12-.03.19-.03.14 0 .27.02.41.02 8.13 0 14.75-6.61 14.75-14.73 0-5.98-3.6-11.14-8.74-13.44ZM11.34 45.33c-.74.3-2.47.28-2.79-.07-1.73-3.58-1.73-13.93-1.52-19.6 1.07.3 1.8-.12 2.83.19.11.03.21-.1.16-.2-.37-.83-1.61-1.27-2.19-1.82-.26-.23-.37-.63-.71-.77l-.15-.26C6.91 22.69.79 12.21 2.92 6.33c.57-1.56 1.68-2.62 3.4-3.23.04-.02 4.14-1.46 8.13.36l.17.06c2.73.78 6.39.71 8.9.52-1.08 1.43-2.35 2.77-5.27 2.77a1.25 1.25 0 0 0 0 2.5c4.52 0 6.4-2.57 7.65-4.28.54-.74 1.01-1.38 1.47-1.54l.1-.04c3.99-1.81 8.09-.37 8.14-.35 1.72.61 2.83 1.67 3.39 3.23 1.32 3.65-.53 9.06-2.14 12.67-1.16-.3-2.38-.47-3.63-.47-6.1 0-11.35 3.72-13.59 9-5.9 1.7-7.89 14.61-8.29 17.79Zm21.88.16c-6.75 0-12.25-5.49-12.25-12.23s5.49-12.23 12.25-12.23 12.25 5.49 12.25 12.23-5.49 12.23-12.25 12.23m5.38-17.28c.58.38.73 1.16.35 1.73l-6.24 9.37-5.35-3.75c-.57-.4-.7-1.18-.3-1.74s1.18-.7 1.74-.3l3.25 2.28 4.82-7.24c.38-.57 1.16-.73 1.74-.35Z"/></symbol><symbol id="s64" viewBox="0 0 64 64"><path d="M52.18 26.18c2.33-5.32 4.9-13.27 2.81-19.05-1.07-2.97-3.22-5.05-6.38-6.18-.27-.1-6.67-2.4-13.18.55-.13.05-.25.1-.38.16h-.33c-.09.01-8.99 1.3-14.38-.19C13.86-1.43 7.49.85 7.24.94 4.07 2.08 1.91 4.16.84 7.13c-3.1 8.58 4.09 21.96 5.46 24.4-.17 3.25-1.11 23.45 2.23 30.37.56 1.16 1.89 1.89 3.75 2.06 1.91.18 4.43-.23 5.42-1.57l.22-.3.04-.37c.53-4.78 2.84-16.9 7.09-20.9-.2 1.12-.32 2.27-.32 3.45 0 9.06 6.14 16.69 14.47 18.98.97.51 2.27.74 3.48.74.3 0 .59-.01.87-.04.04 0 .08-.02.12-.02.24 0 .48.04.73.04 10.85 0 19.67-8.84 19.67-19.7 0-8.1-4.91-15.07-11.89-18.09M15.3 60.86c-.56.27-1.92.52-3.18.3-.82-.14-1.09-.4-1.12-.47-2.6-5.39-2.28-20.84-2.05-26.92.13.04.27.07.39.11 1.29.44 2.5-.03 3.78.48.12.05.25-.1.17-.22-.58-1.07-2.18-1.57-3.02-2.25-.41-.33-.61-.89-1.15-1.08-.03-.01-.05-.02-.08-.03l-.17-.29C8.79 30.35.5 16.11 3.41 8.05c.79-2.19 2.34-3.67 4.75-4.53.05-.02 5.67-2.01 11.14.49l.19.07c3.88 1.11 9.18.92 12.5.64-1.59 2.18-3.28 4.4-7.72 4.4-.76 0-1.37.62-1.37 1.38s.61 1.38 1.37 1.38c5.91 0 8.28-3.25 10.02-5.63.76-1.04 1.41-1.94 2.11-2.19l.11-.04c5.47-2.49 11.09-.51 11.15-.48 2.39.86 3.94 2.34 4.74 4.53 1.8 4.98-.67 12.3-2.85 17.22-1.65-.45-3.37-.71-5.16-.71-8.3 0-15.4 5.18-18.28 12.48-7.75 2.38-10.33 19.88-10.82 23.82Zm29.1.37c-9.33 0-16.92-7.61-16.92-16.95s7.59-16.95 16.92-16.95 16.92 7.61 16.92 16.95-7.59 16.95-16.92 16.95m7.12-23.55c.63.42.8 1.27.38 1.91l-8.28 12.47-6.98-4.91c-.62-.44-.77-1.3-.33-1.92s1.29-.77 1.91-.33l4.67 3.29 6.72-10.12c.42-.63 1.27-.8 1.9-.38Z"/></symbol><use style="display: var(--s16, none)" href="#s16"/><use style="display: var(--s24, none)" href="#s24"/><use style="display: var(--s32, none)" href="#s32"/><use style="display: var(--s40, none)" href="#s40"/><use style="display: var(--s48, none)" href="#s48"/><use style="display: var(--s64, none)" href="#s64"/></symbol></defs><style>@media (max-width: 23.98px) {g{--s16:block;}}@media (min-width: 24px) and (max-width: 31.98px) {g{--s24:block;}}@media (min-width: 32px) and (max-width: 39.98px) {g{--s32:block;}}@media (min-width: 40px) and (max-width: 47.98px) {g{--s40:block;}}@media (min-width: 48px) and (max-width: 63.98px) {g{--s48:block;}}@media (min-width: 64px) {g{--s64:block;}}</style><g><use href="#i-toothcontrol"/></g></svg>