<svg xmlns="http://www.w3.org/2000/svg"><defs><symbol id="i-tooth"><symbol id="s16" viewBox="0 0 16 16"><path d="M14.81 1.97c-.29-.82-.91-1.41-1.76-1.72-.07-.03-1.75-.63-3.39.12-.02 0-.03.01-.05.02h-.05C9 .47 7.35.63 6.36.36 4.68-.38 3.04.21 2.97.24c-.86.31-1.47.9-1.77 1.72-.76 2.11.78 5.15 1.26 6.02-.06 1.16-.23 5.6.58 7.27.2.41.64.67 1.23.73.55.05 1.31-.06 1.66-.54l.12-.16.02-.2C6.33 12.77 7.19 10.2 8 10.2s1.67 2.57 1.93 4.88l.02.2.12.16c.3.41.91.55 1.42.55.08 0 .17 0 .25-.01.6-.06 1.03-.31 1.23-.73.8-1.67.63-6.11.57-7.27.48-.87 2.02-3.91 1.26-6.02Zm-2.67 5.46-.12.2c-.03.08-.04.17-.09.23-.15.28-.67.51-.75.87-.02.06.03.12.09.12.33-.02.53.09.8.12.06 1.96-.01 4.5-.41 5.52-.08.02-.2.02-.3 0-.22-1.59-1.03-5.79-3.37-5.79s-3.15 4.19-3.37 5.79h-.3c-.41-1.04-.47-3.69-.4-5.66.17-.05.33-.12.56-.13.27-.1-.12-.49-.25-.62a.64.64 0 0 1-.26-.31c0-.01 0-.03-.01-.04v-.09l-.04-.08c0-.02-.01-.04-.03-.05l-.04-.07c-.52-.89-1.77-3.52-1.26-4.95.14-.4.42-.66.87-.82.01 0 1.19-.41 2.32.1l.1.04c.6.17 1.32.23 1.98.22-.19.09-.42.14-.73.14-.41 0-.75.34-.75.75s.34.75.75.75c1.61 0 2.3-.94 2.71-1.51.1-.13.24-.33.36-.39 1.13-.52 2.31-.11 2.32-.1.45.16.72.42.86.82.52 1.42-.73 4.06-1.26 4.95Z"/></symbol><symbol id="s24" viewBox="0 0 24 24"><path d="M22.21 2.84C21.78 1.65 20.92.82 19.66.37c-.1-.04-2.59-.93-5.03.19-.04.01-.08.03-.11.04h-.09c-.03 0-3.17.46-5.05-.05C6.89-.55 4.45.32 4.35.36 3.09.81 2.23 1.64 1.8 2.83c-1.15 3.16 1.33 7.95 1.96 9.08-.09 1.62-.37 8.57.85 11.11.26.54.86.88 1.67.96.62.06 1.8-.03 2.31-.72l.14-.19.03-.23c.35-3.12 1.62-7.73 3.25-7.73s2.9 4.61 3.25 7.73l.03.23.14.19c.43.58 1.33.74 1.98.74.12 0 .23 0 .33-.01.81-.08 1.41-.42 1.67-.96 1.23-2.54.94-9.48.85-11.11.63-1.13 3.11-5.91 1.96-9.08Zm-4.35 19.34c-.19.08-.63.09-.92.02-.29-2.21-1.45-8.85-4.94-8.85s-4.65 6.64-4.94 8.85c-.29.06-.73.06-.92-.02-.76-1.71-.78-6.29-.69-9.04.4 0 .69-.16 1.14-.11.07 0 .14-.07.11-.14-.12-.44-.77-.74-1-1.06-.08-.1-.09-.28-.19-.36l-.12-.21c-.83-1.4-2.79-5.54-1.96-7.83.25-.68.74-1.15 1.5-1.42.02 0 1.93-.67 3.78.17l.12.04c1.16.33 2.65.36 3.83.3-.43.46-.99.79-1.99.79-.48 0-.88.39-.88.87s.39.87.88.87c2.34 0 3.31-1.32 3.95-2.2.21-.29.45-.61.66-.69 1.84-.84 3.76-.18 3.78-.16.76.27 1.25.74 1.5 1.42.83 2.29-1.13 6.43-1.96 7.83l-.1.16c-.16.09-.2.31-.32.44-.3.34-1.05.65-1.23 1.15-.03.07.03.15.11.14.29-.05.52-.05.76 0 .16.03.43.04.71.02.09 2.76.06 7.31-.69 9.01Z"/></symbol><symbol id="s32" viewBox="0 0 32 32"><path d="M29.57 3.71c-.56-1.55-1.68-2.64-3.32-3.22-.14-.05-3.41-1.23-6.65.26-.06.02-.11.04-.17.07-.05 0-.09 0-.14.01-.04 0-4.31.62-6.88-.08C9.12-.71 5.89.44 5.76.49c-1.65.59-2.77 1.68-3.33 3.23C.9 7.96 4.29 14.44 5.08 15.86c-.11 2.08-.52 11.52 1.13 14.93.32.67 1.07 1.1 2.1 1.2.79.07 2.31-.03 2.95-.9l.16-.22.03-.27c.49-4.39 2.23-10.58 4.55-10.58s4.06 6.19 4.55 10.58l.03.27.16.22c.54.73 1.68.92 2.51.92.16 0 .31 0 .44-.02 1.03-.1 1.78-.52 2.1-1.2 1.64-3.41 1.24-12.86 1.13-14.93.79-1.42 4.18-7.9 2.65-12.14Zm-5.53 26.13c-.23.19-1.15.2-1.55.1-1.37-11.35-5.64-11.93-6.49-11.93s-5.11.58-6.48 11.9c-.46.14-1.32.13-1.51 0-1.09-2.27-1.12-8.75-.99-12.52.63.09 1.06-.15 1.71-.01.09.02.16-.08.12-.16-.2-.57-1.05-.92-1.39-1.31-.14-.15-.18-.39-.36-.49v-.05l-.15-.26C5.83 13.2 3.16 7.55 4.3 4.4c.35-.98 1.05-1.64 2.13-2.02.02 0 1.02-.36 2.38-.36.85 0 1.85.14 2.83.59l.14.05c1.68.48 3.88.48 5.52.38-.65.8-1.45 1.45-3.08 1.45-.55 0-1 .45-1 1s.45 1 1 1c3.06 0 4.33-1.74 5.17-2.89.33-.45.63-.87.96-.99 2.55-1.16 5.19-.24 5.22-.23 1.08.39 1.77 1.05 2.12 2.02 1.14 3.15-1.52 8.8-2.65 10.71l-.14.25c-.26.11-.35.42-.54.6-.45.43-1.42.79-1.7 1.44-.04.08.04.18.12.16.38-.1.69-.12 1.02-.07.28.03.74.02 1.19-.05.13 3.78.1 10.21-.94 12.42Z"/></symbol><symbol id="s40" viewBox="0 0 40 40"><path d="M36.98 4.58C36.29 2.67 34.9 1.33 32.87.6c-.17-.06-4.25-1.52-8.29.32-.08.03-.15.06-.23.09-.06 0-.12 0-.19.01-.06 0-5.48.79-8.74-.11C11.32-.91 7.29.53 7.13.58c-2.04.73-3.42 2.07-4.12 3.98-1.93 5.32 2.4 13.5 3.35 15.2-.12 2.25-.65 14.5 1.41 18.77.39.8 1.29 1.31 2.54 1.43 1.26.12 2.92-.17 3.6-1.08l.18-.24.03-.3c.49-4.38 2.57-13.44 5.87-13.44s5.38 9.05 5.87 13.44l.03.3.18.24c.58.78 1.89 1.11 3.05 1.11.19 0 .37 0 .55-.03 1.25-.12 2.15-.62 2.54-1.43 2.06-4.27 1.52-16.52 1.41-18.77.95-1.7 5.28-9.88 3.35-15.2Zm-6.75 32.94c-.29.29-1.63.3-2.18.11-.37-2.89-2.25-14.97-8.05-14.97s-7.67 12-8.05 14.94c-.6.22-1.89.21-2.15-.03-1.41-2.92-1.43-11.29-1.26-16.02.83.18 1.4-.15 2.24.07.1.03.19-.09.14-.18-.29-.7-1.33-1.1-1.79-1.57-.18-.18-.26-.46-.48-.6v-.04l-.17-.3c-.05-.09-5.1-8.75-3.35-13.59.46-1.27 1.36-2.13 2.76-2.63.03-.01 3.4-1.19 6.67.29l.16.06c2.21.63 5.14.59 7.21.45-.88 1.15-1.9 2.11-4.18 2.11-.62 0-1.12.5-1.12 1.12s.5 1.12 1.12 1.12c3.79 0 5.37-2.16 6.41-3.58.42-.58.82-1.12 1.26-1.29 3.27-1.49 6.64-.3 6.68-.29 1.4.5 2.3 1.36 2.76 2.62 1.75 4.84-3.3 13.51-3.35 13.59l-.12.2c-.29.17-.42.51-.67.72-.59.52-1.79.92-2.18 1.72-.06.09.04.21.14.18.46-.14.86-.19 1.27-.14.36.03.93 0 1.49-.1.17 4.73.16 13.12-1.23 16.01Z"/></symbol><symbol id="s48" viewBox="0 0 48 48"><path d="M44.36 5.45c-.82-2.27-2.47-3.87-4.89-4.73-.21-.08-5.05-1.81-9.97.41-.08.03-.16.06-.23.1-.07 0-.16 0-.23.01-.07 0-6.63.96-10.59-.13C13.54-1.08 8.73.65 8.53.72c-2.43.87-4.07 2.46-4.9 4.73-2.32 6.4 2.94 16.28 4.05 18.26-.14 2.62-.8 17.46 1.68 22.6.45.93 1.5 1.52 2.97 1.66 1.49.14 3.45-.19 4.24-1.26l.2-.27.04-.33c.71-6.3 3.28-16.29 7.18-16.29s6.47 9.99 7.18 16.29l.04.33.2.27c.68.91 2.22 1.29 3.58 1.29.23 0 .45 0 .66-.03 1.47-.14 2.52-.73 2.97-1.66 2.48-5.14 1.82-19.98 1.68-22.6 1.11-1.97 6.37-11.86 4.05-18.26ZM36.4 45.2c-.34.38-2.11.41-2.8.13-.42-3.37-2.67-18.01-9.6-18.01s-9.17 14.57-9.6 17.98c-.74.3-2.46.28-2.78-.07-1.73-3.58-1.73-13.93-1.52-19.59 1.07.3 1.79-.12 2.82.19.11.03.21-.1.16-.2-.37-.83-1.61-1.27-2.18-1.82-.26-.23-.37-.63-.71-.77l-.15-.26C9.98 22.67 3.87 12.19 6 6.31c.56-1.56 1.67-2.62 3.39-3.23.04-.02 4.14-1.46 8.12.36l.18.06c2.73.78 6.38.71 8.89.52-1.08 1.43-2.35 2.77-5.27 2.77a1.25 1.25 0 0 0 0 2.5c4.51 0 6.39-2.57 7.64-4.27.54-.74 1.01-1.38 1.46-1.54l.1-.04c3.98-1.81 8.08-.37 8.13-.35 1.71.61 2.82 1.67 3.39 3.23 2.13 5.88-3.98 16.37-4.04 16.47l-.19.33v.06h-.01c-.48.16-.65.66-1.01.95-.73.61-2.16 1.06-2.66 2.01-.07.1.04.24.16.2.55-.18 1.02-.25 1.53-.21.51.03 1.18.02 1.82-.18.1-.03.2-.05.3-.08.2 5.71.18 15.83-1.51 19.35Z"/></symbol><symbol id="s64" viewBox="0 0 64 64"><path d="M59.12 7.13c-1.07-2.97-3.23-5.05-6.39-6.18-.27-.1-6.68-2.4-13.2.55-.13.05-.25.1-.38.16h-.33c-.09.01-9.01 1.3-14.4-.19-6.5-2.91-12.88-.62-13.14-.53-3.17 1.14-5.33 3.22-6.4 6.19-3.11 8.58 4.09 21.96 5.47 24.4-.17 3.25-1.11 23.45 2.23 30.37.56 1.16 1.89 1.89 3.76 2.06 1.92.18 4.44-.23 5.43-1.57l.22-.3.04-.37c.64-5.76 3.86-22.21 9.97-22.21s9.32 16.45 9.97 22.21l.04.37.22.3c.85 1.14 2.81 1.61 4.56 1.61.3 0 .59-.01.87-.04 1.87-.18 3.2-.91 3.76-2.06 3.34-6.92 2.41-27.11 2.23-30.37 1.38-2.44 8.58-15.82 5.47-24.4M48.94 60.7c-.03.06-.31.32-1.12.47-1.27.22-2.63-.04-3.18-.29-.52-4.21-3.46-24.11-12.63-24.11S19.9 56.64 19.38 60.87c-.56.27-1.92.52-3.18.3-.82-.14-1.09-.4-1.12-.47-2.6-5.39-2.29-20.85-2.05-26.92.13.04.27.07.39.11 1.29.44 2.5-.03 3.79.48.12.05.25-.1.17-.22-.58-1.07-2.18-1.57-3.02-2.25-.41-.33-.61-.89-1.15-1.08-.03-.01-.05-.02-.08-.03l-.17-.29c-.08-.14-8.38-14.38-5.46-22.44.79-2.19 2.34-3.67 4.75-4.53.06-.02 5.68-2.01 11.16.49l.19.07c3.88 1.11 9.19.92 12.53.64-1.6 2.18-3.29 4.4-7.74 4.4-.76 0-1.38.62-1.38 1.38s.62 1.38 1.38 1.38c5.92 0 8.3-3.25 10.03-5.63.76-1.04 1.42-1.94 2.11-2.19l.11-.04c5.48-2.49 11.1-.51 11.17-.48 2.4.86 3.95 2.34 4.74 4.53 2.92 8.05-5.38 22.29-5.46 22.44l-.19.32c-.59.28-.89.87-1.38 1.23-1.05.78-2.91 1.26-3.66 2.5-.08.11.04.27.17.22.7-.28 1.35-.42 2.04-.41.76 0 1.63-.06 2.39-.32.18-.06.38-.11.57-.17.23 6.14.53 21.47-2.06 26.83Z"/></symbol><use style="display: var(--s16, none)" href="#s16"/><use style="display: var(--s24, none)" href="#s24"/><use style="display: var(--s32, none)" href="#s32"/><use style="display: var(--s40, none)" href="#s40"/><use style="display: var(--s48, none)" href="#s48"/><use style="display: var(--s64, none)" href="#s64"/></symbol></defs><style>@media (max-width: 23.98px) {g{--s16:block;}}@media (min-width: 24px) and (max-width: 31.98px) {g{--s24:block;}}@media (min-width: 32px) and (max-width: 39.98px) {g{--s32:block;}}@media (min-width: 40px) and (max-width: 47.98px) {g{--s40:block;}}@media (min-width: 48px) and (max-width: 63.98px) {g{--s48:block;}}@media (min-width: 64px) {g{--s64:block;}}</style><g><use href="#i-tooth"/></g></svg>