<svg xmlns="http://www.w3.org/2000/svg"><defs><symbol id="i-tourlist-solid"><symbol id="s16" viewBox="0 0 16 16"><path d="M0 .01h16v16H0zm0 16h6.56l.34-4.11h2.34l.32 4.11h6.45v-3.28L12.95 0h-4.3v.98H7.28V0H3.09L0 12.88zM7.28 4.66h1.58L9 7.03H7.08z"/></symbol><symbol id="s24" viewBox="0 0 24 24"><path d="M13.16 0v2h-2.64V0H4.71L0 19.61V24h9.48l.48-5.81h4.09L14.5 24h9.51v-3.75L19.15 0zm-2.97 11.69.35-4.19h2.94l.25 4.19z"/></symbol><symbol id="s32" viewBox="0 0 32 32"><path d="M0 0h31.99v31.99H0zm0 31.99h12.67l.73-8.84h5.39l.68 8.84h12.54v-2.75L25 0h-7.32v2.84h-3.57V0h-7.1L0 29.17zM14.03 9.56h3.93l.33 5.53h-4.72z"/></symbol><symbol id="s40" viewBox="0 0 40 40"><path d="M.01-.04h40v40h-40zm31.11.02h-8.89v3.59h-4.69V-.02H8.92L0 37.09v2.9h15.72l.93-11.35h6.94l.88 11.35H40v-2.92zM16.95 18.72l.6-7.13h5.12l.42 7.13z"/></symbol><symbol id="s48" viewBox="0 0 48 48"><path d="M0 0h48.01v48.01H0zm37.08 0H26.74v4.66h-5.77V0H10.95L-.03 45.68V48H18.8l1.13-13.69h8.43L29.42 48h18.55v-2.57zM20.26 22.18l.73-8.67h6.26l.52 8.67z"/></symbol><symbol id="s64" viewBox="0 0 64 64"><path d="M0 0h64v64H0zm48.91 0H35.88v6.7h-8.17V0h-12.6L0 62.96V64h24.84l1.53-18.66h11.64L39.45 64H64v-1.02zM26.76 30.91l1.01-12.01h8.79l.72 12.01H26.77Z"/></symbol><use style="display: var(--s16, none)" href="#s16"/><use style="display: var(--s24, none)" href="#s24"/><use style="display: var(--s32, none)" href="#s32"/><use style="display: var(--s40, none)" href="#s40"/><use style="display: var(--s48, none)" href="#s48"/><use style="display: var(--s64, none)" href="#s64"/></symbol></defs><style>@media (max-width: 23.98px) {g{--s16:block;}}@media (min-width: 24px) and (max-width: 31.98px) {g{--s24:block;}}@media (min-width: 32px) and (max-width: 39.98px) {g{--s32:block;}}@media (min-width: 40px) and (max-width: 47.98px) {g{--s40:block;}}@media (min-width: 48px) and (max-width: 63.98px) {g{--s48:block;}}@media (min-width: 64px) {g{--s64:block;}}</style><g><use href="#i-tourlist-solid"/></g></svg>