<svg xmlns="http://www.w3.org/2000/svg"><defs><symbol id="i-trailertransporter-solid"><symbol id="s16" viewBox="0 0 16 16"><path d="M16 9.56v2.27c0 .41-.34.75-.75.75s-.75-.34-.75-.75v-.77h-.86l-1.46 2.67h-1.01c.02-.16.05-.32.05-.48 0-2.34-1.9-4.25-4.25-4.25s-4.25 1.9-4.25 4.25c0 .17.03.32.05.48H0V0h14.12v8.06h-1.94c-1.34-1.44-3.21-2.27-5.19-2.27s-3.78.8-5.11 2.19H0v1.5h2.55l.22-.26c1.06-1.23 2.59-1.93 4.21-1.93s3.21.73 4.28 2.01l.23.27h2.63v-.01zm-6.28 3.69c0 1.51-1.23 2.75-2.75 2.75s-2.75-1.23-2.75-2.75 1.23-2.75 2.75-2.75 2.75 1.23 2.75 2.75m-1.82 0c0-.51-.42-.92-.93-.92s-.93.42-.93.92.42.92.93.92.93-.42.93-.92"/></symbol><symbol id="s24" viewBox="0 0 24 24"><path d="M0 12.62V0h21.04v12.72l-2.99.02c-1.96-2.17-4.71-3.41-7.63-3.41s-5.57 1.19-7.52 3.28H0Zm17.24 1.87-.26-.32c-1.63-1.97-4.03-3.1-6.57-3.1s-4.84 1.09-6.47 2.98l-.26.3H0v5.87h4.11v-.85h.04c.05-3.43 2.84-6.2 6.26-6.2s6.26 2.82 6.26 6.29c0 .24-.02.47-.04.7v.06h1.54l2.04-3.76H22v1.27c0 .55.44 1 .99 1s.99-.45.99-1v-3.27l-6.75.03Zm-2.3 4.97c0 2.51-2.03 4.54-4.52 4.54S5.9 21.96 5.9 19.46s2.03-4.54 4.52-4.54 4.52 2.04 4.52 4.54m-3.19 0c0-.74-.6-1.35-1.34-1.35s-1.34.6-1.34 1.35.6 1.35 1.34 1.35 1.34-.6 1.34-1.35"/></symbol><symbol id="s32" viewBox="0 0 32 32"><path d="M3.96 17.47H0V0h28.22v17.62l-4.09.02c-2.59-2.9-6.27-4.56-10.16-4.56s-7.42 1.59-10.01 4.38Zm15.02 4.15a6.36 6.36 0 0 1 1.37 3.96c0 3.54-2.88 6.42-6.42 6.42s-6.42-2.88-6.42-6.42a6.46 6.46 0 0 1 2.93-5.39.2.2 0 0 0 .06-.04c.17-.11.34-.21.52-.3.05-.03.1-.05.15-.07.15-.07.31-.14.46-.2.07-.03.14-.05.2-.07.15-.05.3-.1.45-.14l.23-.06c.16-.04.32-.06.48-.09l.21-.03c.23-.03.47-.04.71-.04s.48.02.71.04c.07 0 .14.02.21.03q.24.03.48.09l.23.06c.15.04.3.08.45.14.07.02.14.05.2.07.16.06.31.13.46.2.05.02.1.05.15.07.18.09.35.19.52.3.02.01.04.02.06.04.6.39 1.12.87 1.56 1.43Zm-1.57 3.96c0-1.92-1.56-3.47-3.49-3.47s-3.49 1.56-3.49 3.47 1.56 3.47 3.49 3.47 3.49-1.56 3.49-3.47m11.14-5.96-5.35.03-.3-.36c-2.23-2.67-5.48-4.2-8.94-4.2s-6.58 1.47-8.8 4.03l-.3.34-4.87.02v7.5H5.5v-1.12c0-.09-.01-.18-.01-.27 0-.24.02-.48.04-.71.44-4.26 4.02-7.58 8.36-7.58 4.64 0 8.41 3.8 8.41 8.46h.03q0 .3-.03.6v.62h2.23l2.92-5.35h2.53v2.04c0 .55.45 1 1 1s1-.45 1-1v-4.04h-3.44Zm-14.62 4.49c-.82 0-1.49.66-1.49 1.47s.67 1.47 1.49 1.47 1.49-.66 1.49-1.47-.67-1.47-1.49-1.47"/></symbol><symbol id="s40" viewBox="0 0 40 40"><path d="M40 24.65v4.92c0 .62-.5 1.13-1.13 1.13s-1.13-.5-1.13-1.13V26.9h-3.37l-3.65 6.68h-3v-1.13c0-.09 0-.18-.01-.27 0-.1.01-.19.01-.29 0-5.7-4.63-10.34-10.33-10.34S7.06 26.19 7.06 31.89c0 .1.01.19.01.29 0 .09-.01.18-.01.27v1.13H0v-9.12l6.03-.02.33-.38c2.8-3.23 6.84-5.08 11.09-5.08s8.46 1.93 11.27 5.29l.31.38zm-22.55-7.93c4.85 0 9.42 2.07 12.64 5.7l5.18-.03V-.02H0v22.23h5.01c3.21-3.5 7.71-5.49 12.45-5.49Zm-.04 13.23c-1.08 0-1.96.87-1.96 1.94s.88 1.94 1.96 1.94 1.96-.87 1.96-1.94-.88-1.94-1.96-1.94m8.08 1.94c0 4.46-3.63 8.09-8.08 8.09s-8.08-3.63-8.08-8.09 3.63-8.09 8.08-8.09 8.08 3.63 8.08 8.09m-3.87 0c0-2.31-1.89-4.19-4.21-4.19s-4.21 1.88-4.21 4.19 1.89 4.19 4.21 4.19 4.21-1.88 4.21-4.19"/></symbol><symbol id="s48" viewBox="0 0 48 48"><path d="M48 29.67v5.8a1.25 1.25 0 0 1-2.5 0v-3.3h-4.2l-4.38 8.01h-3.71v-1.25c0-.11 0-.22-.01-.33 0-.14.02-.28.02-.42 0-6.79-5.53-12.32-12.32-12.32S8.58 31.39 8.58 38.18c0 .14.02.28.02.42 0 .11-.01.22-.01.33v1.25H0V.01h42.32v27.17l-6.25.03c-3.84-4.35-9.32-6.83-15.13-6.83S9.88 22.77 6.05 26.95H0v2.51h4.96l2.24-.02.37-.43c3.37-3.9 8.25-6.13 13.38-6.13s10.21 2.33 13.59 6.38l.34.41h13.11Zm-27.1 6.09c-1.36 0-2.46 1.09-2.46 2.44s1.1 2.44 2.46 2.44 2.46-1.09 2.46-2.44-1.1-2.44-2.46-2.44m9.82 2.43c0 5.41-4.41 9.82-9.82 9.82s-9.82-4.4-9.82-9.82 4.41-9.82 9.82-9.82 9.82 4.4 9.82 9.82m-4.86 0c0-2.72-2.22-4.94-4.96-4.94s-4.96 2.22-4.96 4.94 2.22 4.94 4.96 4.94 4.96-2.21 4.96-4.94"/></symbol><symbol id="s64" viewBox="0 0 64 64"><path d="M64 39.85v7.44c0 .76-.62 1.38-1.38 1.38s-1.38-.62-1.38-1.38V42.6h-6.07l-5.84 10.68h-4.09v-1.81c0-9.67-7.83-17.54-17.44-17.54S10.37 41.8 10.37 51.47l.03 1.81H0V39.54h6.6l2.86-.03.41-.47c4.55-5.26 11.14-8.27 18.06-8.27s13.78 3.14 18.35 8.62l.38.46zM27.93 28.03c7.7 0 14.96 3.31 20.04 9.11l8.47-.04V0H0v36.8l8.2-.02c5.06-5.57 12.21-8.76 19.72-8.76Zm-.07 20.07c-1.83 0-3.31 1.47-3.31 3.29s1.49 3.29 3.31 3.29 3.31-1.47 3.31-3.29-1.49-3.29-3.31-3.29m12.62 3.28c0 6.96-5.66 12.62-12.62 12.62s-12.62-5.66-12.62-12.62 5.66-12.62 12.62-12.62 12.62 5.66 12.62 12.62m-6.56 0c0-3.33-2.72-6.04-6.06-6.04s-6.06 2.71-6.06 6.04 2.72 6.04 6.06 6.04 6.06-2.71 6.06-6.04"/></symbol><use style="display: var(--s16, none)" href="#s16"/><use style="display: var(--s24, none)" href="#s24"/><use style="display: var(--s32, none)" href="#s32"/><use style="display: var(--s40, none)" href="#s40"/><use style="display: var(--s48, none)" href="#s48"/><use style="display: var(--s64, none)" href="#s64"/></symbol></defs><style>@media (max-width: 23.98px) {g{--s16:block;}}@media (min-width: 24px) and (max-width: 31.98px) {g{--s24:block;}}@media (min-width: 32px) and (max-width: 39.98px) {g{--s32:block;}}@media (min-width: 40px) and (max-width: 47.98px) {g{--s40:block;}}@media (min-width: 48px) and (max-width: 63.98px) {g{--s48:block;}}@media (min-width: 64px) {g{--s64:block;}}</style><g><use href="#i-trailertransporter-solid"/></g></svg>