<svg xmlns="http://www.w3.org/2000/svg"><defs><symbol id="i-train"><symbol id="s16" viewBox="0 0 16 16"><path d="M7.76 10.69c.55 0 1-.45 1-1V4.64c0-.55-.45-1-1-1h-3c-.55 0-1 .45-1 1v5.05c0 .55.45 1 1 1zm-2.5-5.55h2v4.05h-2zm5.83 9.36c.94 0 1.74-.61 2.04-1.44h.6c1.24 0 2.25-1.01 2.25-2.25V5.37c0-2.25-1.82-4.06-4.05-4.06H5.97V0h-1.5v1.31H3.02V0h-1.5v1.31H0v1.5h9.69v3.67c0 .69.56 1.25 1.25 1.25h3.55v3.08c0 .41-.34.75-.75.75H-.01v4.45h16v-1.5h-4.9Zm.1-8.28V2.81h.75c1.41 0 2.55 1.14 2.55 2.55v.86zM.07 14.5c.94 0 1.74-.61 2.04-1.44h2.1c.31.84 1.1 1.44 2.04 1.44zm6.2 0c.94 0 1.74-.61 2.04-1.44h.71c.31.84 1.1 1.44 2.04 1.44h-4.8ZM1.99 8.22H0v-1.5h1.49v-1.5H0v-1.5h1.99c.55 0 1 .45 1 1v2.5c0 .55-.45 1-1 1"/></symbol><symbol id="s24" viewBox="0 0 24 24"><path d="M0 22.24h24v1.75H0zm7.52-5.72c-.76 0-1.38-.62-1.38-1.38V7.82c0-.76.62-1.38 1.38-1.38h4.25c.76 0 1.38.62 1.38 1.38v7.32c0 .76-.62 1.38-1.38 1.38zm.37-1.75h3.5V8.2h-3.5zm-3.41-3.34v-3.5c0-.76-.62-1.38-1.38-1.38H0V8.3h2.74v2.75H0v1.75h3.11c.76 0 1.38-.62 1.38-1.38ZM23.99 0v1.75H8.15l1.06 1.37h8.89A5.89 5.89 0 0 1 23.98 9v8.02a2.894 2.894 0 0 1-2.89 2.87h-.72c-.32 1.34-1.52 2.35-2.96 2.35s-2.64-1.01-2.96-2.35h-.83c-.32 1.34-1.52 2.35-2.96 2.35s-2.64-1.01-2.96-2.35H3.07c-.32 1.34-1.52 2.35-2.96 2.35-.04 0-.08-.01-.12-.01v-1.79c.4.03.81-.08 1.07-.36H-.01v-1.93h21.09c.62 0 1.12-.5 1.13-1.12V12.3h-5.56c-.9 0-1.63-.73-1.63-1.63V4.89H0V3.14h3.08l1.06-1.37H0V0h24ZM11.62 20.07h-1.9c.47.52 1.43.52 1.9 0m6.74 0h-1.9c.47.52 1.43.52 1.9 0m-1.58-9.55h5.45V9.03a4.13 4.13 0 0 0-4.12-4.13h-1.33v5.61ZM7 3.12l-.86-1.11-.86 1.11z"/></symbol><symbol id="s32" viewBox="0 0 32 32"><path d="M16.09 20.89c1.1 0 2-.9 2-2v-9c0-1.1-.9-2-2-2h-6c-1.1 0-2 .9-2 2v9c0 1.1.9 2 2 2zM14.14 9.88h1.94v9h-1.94zm-4.05 0h2.06v9h-2.06zm16.95 17.27h1.3c2.02 0 3.66-1.64 3.67-3.67l-.05-10.38c-.02-4.39-3.61-7.96-8-7.96H12.45l-2.03-3.12h21.55v-2H0v2h6.42L4.39 5.14H0v2h20.26v7.37a2.5 2.5 0 0 0 2.5 2.5h7.21l.02 4.73H0v2h29.97c-.12.8-.81 1.41-1.64 1.41H.01v2h1.51c-.32.51-.88.84-1.51.88v4h31.96v-2h-8.51a3.88 3.88 0 0 0 3.58-2.87ZM6.79 5.14l1.64-2.52 1.64 2.52zm23.08 9.87h-7.1c-.28 0-.5-.22-.5-.5V7.2h1.6c3.31 0 6 2.69 6 6zM.08 30.02a3.88 3.88 0 0 0 3.58-2.87h6.91a3.87 3.87 0 0 0 3.58 2.87zm12.64-2.87h3.2c-.33.53-.93.89-1.6.89s-1.26-.36-1.6-.89m1.76 2.87a3.88 3.88 0 0 0 3.58-2.87h1.5a3.87 3.87 0 0 0 3.58 2.87zm7.22-2.87h3.2c-.33.53-.93.89-1.6.89s-1.26-.36-1.6-.89M3.99 16.04H0v-2h3.98v-4H0v-2h3.98c1.1 0 2 .9 2 2v4c0 1.1-.9 2-2 2Z"/></symbol><symbol id="s40" viewBox="0 0 40 40"><path d="M17.91 37.75h22.07V40H0v-2.25zm-5.53-10.87c-1.17 0-2.12-.95-2.12-2.13V12.24c0-1.17.95-2.13 2.12-2.13h8c1.17 0 2.12.95 2.12 2.13v12.51c0 1.17-.95 2.13-2.12 2.13zm5.08-2.25h2.79V12.37h-2.79zm-4.96 0h2.71V12.37H12.5zM40 29.68s-.01.08-.01.12v.39h-.04c-.26 2.22-2.13 3.95-4.41 3.95h-1.81c-.51 2.07-2.37 3.61-4.59 3.61s-4.08-1.54-4.59-3.61h-2.06c-.51 2.07-2.37 3.61-4.59 3.61s-4.08-1.54-4.59-3.61H4.5a4.72 4.72 0 0 1-4.49 3.6v-2.26a2.5 2.5 0 0 0 2.12-1.35H.01v-2.25h35.53c1.04 0 1.91-.73 2.14-1.7H0v-2.25h37.73l-.03-6.48h-9.13c-1.65 0-3-1.35-3-3V9.12H0V6.87h5.57l2.85-4.63H0V0h39.98v2.25H12.67l2.85 4.63h14.54c5.42 0 9.85 4.41 9.87 9.83l.06 12.97ZM12.88 6.88l-2.33-3.79-2.33 3.79zm24.69 9.94c0-4.21-3.42-7.63-7.62-7.63h-2.12v9.27c0 .41.34.75.75.75h9v-2.39ZM20.13 34.14H15.7c.41.81 1.25 1.36 2.21 1.36s1.8-.55 2.22-1.36m11.23 0h-4.43c.41.81 1.25 1.36 2.21 1.36s1.8-.55 2.21-1.36ZM7.48 17.81v-5.5c0-1.17-.95-2.13-2.12-2.13H0v2.25h5.22v5.25H0v2.25h5.34c1.17 0 2.12-.95 2.12-2.13Z"/></symbol><symbol id="s48" viewBox="0 0 48 48"><path d="M47.93 20.93C47.9 14.22 42.4 8.75 35.68 8.75h-17l-3.76-6.24h33.06V.02H0v2.5h10.61L6.85 8.76H.01v2.5h31.01v11.33c0 1.93 1.57 3.5 3.5 3.5h10.93l.04 8.18H0v2.5h45.37a2.74 2.74 0 0 1-2.62 1.96H.01v2.5h2.82a3.08 3.08 0 0 1-2.82 1.83v4.98h47.97v-2.5H35.47a5.58 5.58 0 0 0 5.05-4.31h2.24c2.62 0 4.78-1.94 5.17-4.46h.06v-.54c0-.08.03-.16.03-.25l-.08-15.05ZM9.78 8.75l2.99-4.96 2.99 4.96zm35.64 14.83h-10.9c-.55 0-1-.45-1-1V11.37h2.15c5.37 0 9.75 4.37 9.75 9.74zM.4 45.52a5.58 5.58 0 0 0 5.05-4.31h10.72a5.59 5.59 0 0 0 5.05 4.31zm18.39-4.3h5.64c-.48 1.08-1.56 1.83-2.82 1.83s-2.34-.75-2.82-1.83m3.2 4.3a5.58 5.58 0 0 0 5.05-4.31h2.6a5.59 5.59 0 0 0 5.05 4.31zm13.09-2.47a3.09 3.09 0 0 1-2.82-1.83h5.64a3.08 3.08 0 0 1-2.82 1.83m-11.32-9.9c1.79 0 3.25-1.46 3.25-3.25V15.92c0-1.79-1.46-3.25-3.25-3.25h-8c-1.79 0-3.25 1.46-3.25 3.25V29.9c0 1.79 1.46 3.25 3.25 3.25zm-2.79-17.98h2.8c.41 0 .75.34.75.75V29.9c0 .41-.34.75-.75.75h-2.8zM15.02 29.9V15.92c0-.41.34-.75.75-.75h2.7v15.48h-2.7c-.41 0-.75-.34-.75-.75M.24 24.16c-.08 0-.16-.02-.24-.02v-2.52c.08.03.15.05.24.05h5c.41 0 .75-.34.75-.75v-4.99c0-.41-.34-.75-.75-.75h-5c-.08 0-.16.02-.24.05v-2.52c.08 0 .16-.02.24-.02h5c1.79 0 3.25 1.46 3.25 3.25v4.99c0 1.79-1.46 3.25-3.25 3.25h-5Z"/></symbol><symbol id="s64" viewBox="0 0 64 64"><path d="M32.1 45.5c2.14 0 3.88-1.74 3.88-3.88v-21c0-2.14-1.74-3.88-3.88-3.88h-11c-2.14 0-3.88 1.74-3.88 3.88v21c0 2.14 1.74 3.88 3.88 3.88zm-4.19-26h4.19c.62 0 1.12.5 1.12 1.12v21c0 .62-.5 1.12-1.12 1.12h-4.19V19.49Zm-7.93 22.12v-21c0-.62.5-1.12 1.12-1.12h4.06v23.25H21.1c-.62 0-1.12-.5-1.12-1.12ZM64 0H0v2.75h15.02l-5.47 9.06H0v2.75h41.74v14.35c0 2.96 2.41 5.38 5.38 5.38h14.04l.06 12.9H0v2.75h61.04c-.5 1.62-1.99 2.81-3.77 2.81l-57.28-.01v2.75h4.43a4.42 4.42 0 0 1-4.18 3.02c-.09 0-.17-.02-.25-.02v5.49H64v-2.75H47.56a7.16 7.16 0 0 0 6.5-5.75h3.21c3.69 0 6.7-3 6.71-6.7l-.1-21.02c-.04-8.8-7.24-15.96-16.05-15.96H24.98l-5.47-9.06h44.47V0ZM.77 61.24a7.16 7.16 0 0 0 6.5-5.75h14.77a7.17 7.17 0 0 0 6.5 5.75zm24.1-5.75h8.37c-.58 1.75-2.24 3.02-4.18 3.02s-3.6-1.27-4.18-3.02Zm4.71 5.75a7.16 7.16 0 0 0 6.5-5.75h3.93a7.17 7.17 0 0 0 6.5 5.75H29.57Zm17.45-2.72c-1.95 0-3.6-1.27-4.18-3.02h8.37a4.42 4.42 0 0 1-4.18 3.02Zm-2.54-43.86h2.83c7.52 0 13.63 6.11 13.63 13.63v3.25H47.12c-1.45 0-2.63-1.18-2.63-2.63zm-22.71-2.85h-9.02l4.51-7.48zM8.14 27.54v-7c0-.62-.5-1.12-1.12-1.12H.01v-2.75h7c2.14 0 3.88 1.74 3.88 3.88v7c0 2.14-1.74 3.88-3.88 3.88h-7v-2.75h7c.62 0 1.12-.5 1.12-1.12Z"/></symbol><use style="display: var(--s16, none)" href="#s16"/><use style="display: var(--s24, none)" href="#s24"/><use style="display: var(--s32, none)" href="#s32"/><use style="display: var(--s40, none)" href="#s40"/><use style="display: var(--s48, none)" href="#s48"/><use style="display: var(--s64, none)" href="#s64"/></symbol></defs><style>@media (max-width: 23.98px) {g{--s16:block;}}@media (min-width: 24px) and (max-width: 31.98px) {g{--s24:block;}}@media (min-width: 32px) and (max-width: 39.98px) {g{--s32:block;}}@media (min-width: 40px) and (max-width: 47.98px) {g{--s40:block;}}@media (min-width: 48px) and (max-width: 63.98px) {g{--s48:block;}}@media (min-width: 64px) {g{--s64:block;}}</style><g><use href="#i-train"/></g></svg>