<svg xmlns="http://www.w3.org/2000/svg"><defs><symbol id="i-train-solid"><symbol id="s16" viewBox="0 0 16 16"><path d="M11.31 13.5c.85-.09 1.55-.65 1.83-1.42h.6c1.96 0 2.25-1.09 2.25-1.75V4.89A4.05 4.05 0 0 0 11.94.85H5.98V0h-1.5v.86H3.03V0h-1.5v.86H0v2.42h2.49v2.5H0V16h16v-2.5zM5.02 3.23h2.5v4.49h-2.5zM.29 13.5c.85-.09 1.55-.65 1.83-1.42h6.91c.28.77.98 1.33 1.83 1.42zm10.9-11.13h.75c1.41 0 2.55 1.14 2.55 2.55v.85h-3.3z"/></symbol><symbol id="s24" viewBox="0 0 24 24"><path d="M23.99 0H.02v3h3.31l-.72.94H-.01v1.75L0 24h23.97v-3h-5.82c1.06-.08 1.93-.84 2.2-1.84h.73c1.58 0 2.87-1.2 2.87-2.67l.02-7.2c0-2.96-2.63-5.37-5.87-5.37h-6.38L11 2.98h12.99zM7.12 3h.1l.72.94H6.4zM0 9.69V6.94h2.75v2.75zm16.78-4h1.32c2.27 0 4.12 1.74 4.12 3.88v1.37h-5.44V5.7Zm-1.42 13.47h.21c.26 1 1.14 1.76 2.2 1.84h-4.61c1.06-.08 1.93-.84 2.2-1.84M12.77 21H.2c1.06-.08 1.94-.84 2.2-1.84h8.17c.26 1 1.14 1.76 2.2 1.84M11.4 6.83v6.56H7.9V6.83z"/></symbol><symbol id="s32" viewBox="0 0 32 32"><path d="M3.71 6.16H0v3.9h4v4l-4-.01v7.2h31.96v1.83c.01-.11.04-.22.04-.33l-.05-9.34c-.02-4-3.61-7.26-7.99-7.26h-9.7L12.54 3.5h19.43V.01H0v3.5h5.42L3.7 6.16Zm18.73 3.02h1.1c3.03 0 5.5 2.21 5.5 4.92v1.08h-6.59v-6Zm-8.29 1h1.94v8h-1.94zm-4.05 0h2.05v8H10.1zM8.98 4.46l1.11 1.7H7.88l1.11-1.7Zm18.05 21.7h1.31c1.83 0 3.34-1.26 3.61-2.9H0v8.76h31.96v-3.5h-7.54a3.39 3.39 0 0 0 2.6-2.36ZM.64 28.51a3.39 3.39 0 0 0 2.6-2.36h9.83c.37 1.2 1.36 2.12 2.6 2.36zm16.31 0a3.39 3.39 0 0 0 2.6-2.36h.99c.37 1.2 1.36 2.12 2.6 2.36h-6.2Z"/></symbol><symbol id="s40" viewBox="0 0 40 40"><path d="M39.98 36.02h-8.66a3.7 3.7 0 0 0 2.37-2.38h1.85c2.37 0 4.31-1.82 4.43-4.11H.02v-2.25h39.96v2.15s.01-.08.01-.12l-.06-12.46c-.03-5.23-4.45-9.49-9.87-9.49l-13.68-.07-2-3.26h25.59v-4H.02v4h6.72l-2 3.26-4.73.07v4.21h5.23v5.26H0v14.56h-.01l.02 4.81v3.83h39.96v-4ZM28.04 10.87h1.5c3.86 0 6.99 3.14 6.99 7.01v1.77h-8.37c-.07 0-.12-.05-.12-.13zm-10.57.74h2.79v10.76h-2.79zm-4.95 0h2.71v10.76h-2.71zm-1.96-6.16 1.17 1.91H9.38l1.17-1.91Zm15.18 28.19h.97a3.68 3.68 0 0 0 2.37 2.38h-5.71a3.7 3.7 0 0 0 2.37-2.38m-22.21 0h15.24a3.68 3.68 0 0 0 2.37 2.38H1.12a3.7 3.7 0 0 0 2.41-2.38"/></symbol><symbol id="s48" viewBox="0 0 48 48"><path d="m48.01 35.22-.08-14.07C47.9 14.83 42.4 9.68 35.68 9.68H21.49L18.37 4.5h29.61V0H.01v4.5h9.05L5.94 9.68H.02v23.57h47.96v2.2c0-.08.03-.15.03-.23M5.78 20.87c0 .41-.34.75-.75.75h-5v-6.5h5c.41 0 .75.34.75.75zm7.94-15.38 2.53 4.2h-5.06zm1.3 24.38V15.86c0-.41.34-.75.75-.75h2.7v15.51h-2.7c-.41 0-.75-.34-.75-.75m9.5 0c0 .41-.34.75-.75.75h-2.8V15.11h2.8c.41 0 .75.34.75.75zm20.31-5.84H34.18c-.41 0-.75-.29-.75-.64V13.02h1.9c5.24 0 9.5 4.02 9.5 8.97zM.01 33.26v2.5zM47.98 48v-4.5H36.53a4.54 4.54 0 0 0 3.94-3.29h2.28c2.69 0 4.9-1.95 5.19-4.45H.01V48zm-17.82-7.79h1.56a4.55 4.55 0 0 0 3.94 3.29h-9.45a4.54 4.54 0 0 0 3.94-3.29Zm-25.78 0H21.4a4.55 4.55 0 0 0 3.94 3.29H.44a4.54 4.54 0 0 0 3.94-3.29"/></symbol><symbol id="s64" viewBox="0 0 64 64"><path d="M0-.02v5h13.67l-4.63 7.68H0v6.66s.05-.02.08-.02h7c.62 0 1.12.51 1.12 1.13v7c0 .62-.5 1.13-1.12 1.13h-7s-.06-.02-.09-.02v17.89h63.97l-.09-18.49c-.04-8.43-7.24-15.28-16.04-15.28H25.51l-4.63-7.68h43.11v-5zm17.28 8.71 2.39 3.97h-4.79l2.39-3.97Zm7.26 33.97H21.1c-.62 0-1.12-.51-1.12-1.13V20.52c0-.62.5-1.13 1.12-1.13h3.44v23.26Zm20.25-25.84h2.2c7.17 0 13 5.83 13 13.01v2.63h-13.2c-1.1 0-2-.9-2-2V16.83ZM28.54 19.4h3.56c.62 0 1.12.51 1.12 1.13v21.01c0 .62-.5 1.13-1.12 1.13h-3.56V19.41Zm25.48 35.03h3.25c3.26 0 5.99-2.26 6.58-5.25H0l.02 14.8H64v-5H48.6a5.96 5.96 0 0 0 5.42-4.55m-6.16 4.55H34.33a5.96 5.96 0 0 0 5.42-4.55h2.68c.6 2.5 2.78 4.38 5.42 4.55ZM5.77 54.43h22.4c.6 2.5 2.78 4.38 5.42 4.55H.35a5.96 5.96 0 0 0 5.42-4.55"/></symbol><use style="display: var(--s16, none)" href="#s16"/><use style="display: var(--s24, none)" href="#s24"/><use style="display: var(--s32, none)" href="#s32"/><use style="display: var(--s40, none)" href="#s40"/><use style="display: var(--s48, none)" href="#s48"/><use style="display: var(--s64, none)" href="#s64"/></symbol></defs><style>@media (max-width: 23.98px) {g{--s16:block;}}@media (min-width: 24px) and (max-width: 31.98px) {g{--s24:block;}}@media (min-width: 32px) and (max-width: 39.98px) {g{--s32:block;}}@media (min-width: 40px) and (max-width: 47.98px) {g{--s40:block;}}@media (min-width: 48px) and (max-width: 63.98px) {g{--s48:block;}}@media (min-width: 64px) {g{--s64:block;}}</style><g><use href="#i-train-solid"/></g></svg>