<svg xmlns="http://www.w3.org/2000/svg"><defs><symbol id="i-trailerscooter-solid"><symbol id="s16" viewBox="0 0 16 16"><path d="M2.62 5.7H-.01V1.78C-.01.8.79 0 1.77 0h8.93c.98 0 1.78.8 1.78 1.78V5.7H9.95v-.8h-1.5v.8H4.12v-.8h-1.5zm13.37 2.98a.87.87 0 0 0-1.74 0v.76h-1.76v-.11a.8.8 0 0 0 .25-.2l1.21-1.58h.63a.87.87 0 0 0 0-1.74h-1.49l-1.07 1.4H9.97v.69h-1.5v-.69H4.14v.69h-1.5v-.69H-.01v3.86h.96v2.67h.7c-.02-.15-.05-.3-.05-.46 0-.82.24-1.57.64-2.21.07-.11.14-.21.22-.31.37-.49.84-.89 1.38-1.19h-.02c.59-.33 1.27-.51 1.99-.51s1.4.19 1.99.51h-.02c.54.29 1.01.7 1.38 1.19.07.1.15.2.21.3.4.64.64 1.4.64 2.21 0 .16-.03.3-.05.46h.57l1.43-2.54H16V8.68ZM8.5 13.27c0 1.5-1.21 2.72-2.7 2.72s-2.7-1.22-2.7-2.72c0-1.01.56-1.88 1.37-2.35.06-.03.12-.07.18-.1.07-.03.14-.06.22-.09.09-.03.18-.06.27-.08.06-.02.12-.03.18-.04.16-.03.32-.05.49-.05s.33.02.49.05c.06.01.12.03.18.04.09.02.18.05.27.08.07.03.15.06.22.09.06.03.12.06.18.1.08.04.16.09.23.14.69.49 1.14 1.3 1.14 2.21Zm-1.83 0a.87.87 0 1 0-1.741.001.87.87 0 0 0 1.741-.001"/></symbol><symbol id="s24" viewBox="0 0 24 24"><path d="M11.92 16.39c-.4-.4-.87-.72-1.39-.94-.04-.02-.08-.02-.12-.04-.23-.09-.46-.17-.71-.22a4.3 4.3 0 0 0-1.76 0c-.24.05-.48.13-.71.22-.04.01-.08.02-.12.04-.52.22-1 .54-1.39.94-.81.81-1.32 1.93-1.32 3.16C4.4 22 6.38 24 8.82 24s4.42-2 4.42-4.45c0-1.24-.5-2.35-1.32-3.16m-3.1 4.79a1.63 1.63 0 1 1 0-3.26 1.63 1.63 0 0 1 0 3.26M3.84 8.85H0V2.63C0 1.19 1.17 0 2.62 0h13.45c1.45 0 2.63 1.18 2.63 2.63v6.21h-4.07V7.63h-1.75v1.21h-7.3V7.63H3.83v1.21ZM24 16.52h-5.93l-2.25 4h-.91c.05-.31.08-.63.08-.96 0-1.18-.34-2.28-.91-3.22-.1-.17-.22-.33-.33-.49-.03-.05-.07-.09-.1-.14-.13-.16-.27-.32-.41-.47-.03-.03-.06-.07-.09-.1-1.11-1.1-2.64-1.79-4.32-1.79s-3.21.68-4.32 1.79c-.03.03-.06.07-.09.1-.14.15-.28.3-.41.46-.04.05-.07.1-.1.14a6.2 6.2 0 0 0-1.24 3.71c0 .33.03.65.08.96H1.51v-4.12H0v-5.8h3.84v1.02h1.75v-1.02h7.3v1.02h1.75v-1.02h4.07l1.23-1.6h2.09c.55 0 1 .45 1 1s-.45 1-1 1h-1.1l-1.91 2.49c-.09.11-.2.19-.31.25v.77H22v-1.46c0-.55.45-1 1-1s1 .45 1 1v3.46Z"/></symbol><symbol id="s32" viewBox="0 0 32 32"><path d="M12.87 25.99c0 .61-.49 1.1-1.1 1.1s-1.1-.49-1.1-1.1.49-1.1 1.1-1.1 1.1.49 1.1 1.1m4.89 0c0 3.31-2.69 6.01-6 6.01s-6-2.69-6-6.01c0-1.69.7-3.21 1.82-4.3.4-.39.86-.73 1.37-1 0 0 .02 0 .03-.01.16-.08.32-.16.49-.23.02-.01.05-.02.07-.03.15-.06.31-.12.46-.17.06-.02.11-.03.17-.04.13-.04.26-.07.39-.1.1-.02.19-.03.29-.04.1-.02.2-.03.3-.04a6 6 0 0 1 1.22 0c.1.01.2.03.3.04s.19.03.29.04c.13.03.26.06.39.1.06.02.11.03.17.04.16.05.31.11.46.17.02 0 .05.02.07.03.17.07.33.15.49.23 0 0 .02 0 .03.01.5.27.96.61 1.37 1a6 6 0 0 1 1.82 4.3m-2.89 0c0-1.71-1.39-3.1-3.1-3.1s-3.1 1.39-3.1 3.1 1.39 3.1 3.1 3.1 3.1-1.39 3.1-3.1m17.14-8.58a1.25 1.25 0 0 0-2.5 0v2.02h-4.5v-.2q.165-.105.3-.27l2.57-3.36h1.51a1.25 1.25 0 0 0 0-2.5h-2.74l-1.63 2.13v-1.27h-4.26v.91h-2v-.91H6.27v.91h-2v-.91H0v7.73h1.64v5.6h2.24a7.9 7.9 0 0 1 1.15-5.6c.17-.27.36-.53.56-.77.04-.05.08-.09.12-.14.16-.19.33-.37.5-.54.08-.08.17-.15.25-.23 1.41-1.25 3.26-2.03 5.29-2.03s3.88.77 5.29 2.03c.08.08.17.15.25.23.18.17.34.35.5.54.04.05.08.09.12.14.2.25.39.5.56.77.8 1.24 1.26 2.72 1.26 4.3 0 .44-.05.87-.11 1.3h1.54l3.01-5.35h7.81v-4.53ZM4.27 10.88h2v1.08h12.48v-1.08h2v1.08h4.26V3c0-1.65-1.35-3-3-3h-19A3.01 3.01 0 0 0 0 3v8.96h4.27z"/></symbol><symbol id="s40" viewBox="0 0 40 40"><path d="M15.31 32.56c0 .6-.48 1.08-1.08 1.08s-1.08-.48-1.08-1.08.48-1.08 1.08-1.08 1.08.48 1.08 1.08m6.32 0c0 4.1-3.32 7.44-7.4 7.44s-7.39-3.34-7.39-7.44c0-2.45 1.19-4.62 3.01-5.98.02-.01.03-.03.05-.04.15-.11.31-.22.47-.32.03-.02.07-.04.1-.06.15-.09.3-.17.46-.25.05-.03.11-.05.16-.08.14-.07.29-.13.43-.19.08-.03.15-.06.23-.08.13-.05.27-.1.4-.14.1-.03.21-.05.31-.08.12-.03.24-.06.36-.08.14-.03.27-.04.41-.06.09-.01.19-.03.28-.04.24-.02.48-.04.72-.04s.48.01.72.04c.1 0 .19.03.28.04l.41.06c.12.02.24.06.36.08.1.03.21.05.31.08.14.04.27.09.4.14.08.03.15.05.23.08.15.06.29.12.43.19.05.03.11.05.16.08.16.08.31.16.46.25.03.02.07.04.1.06.16.1.32.2.47.32.02.01.03.03.05.04.16.12.32.25.48.38a7.42 7.42 0 0 1 2.53 5.59Zm-4.07 0c0-1.84-1.5-3.33-3.33-3.33s-3.33 1.49-3.33 3.33 1.5 3.33 3.33 3.33 3.33-1.49 3.33-3.33m22.4-10.81c0-.83-.67-1.5-1.5-1.5s-1.5.67-1.5 1.5v2.59h-5.84v-.31c.17-.1.32-.22.45-.38l3.24-4.22h1.92c.83 0 1.5-.67 1.5-1.5s-.67-1.5-1.5-1.5h-3.4l-2.2 2.87v-1.98H25.8v1.26h-2.25v-1.26H7.67v1.26H5.42v-1.26H-.04v9.65h1.67v7.06h3.08c-.07-.48-.12-.97-.12-1.47 0-2.23.77-4.28 2.04-5.92.11-.15.22-.29.35-.43.14-.16.29-.31.44-.46.11-.11.21-.22.32-.32.18-.16.36-.31.55-.46 1.64-1.3 3.7-2.09 5.95-2.09s4.31.79 5.95 2.09c.19.15.37.3.55.46.11.1.21.21.32.32.15.15.3.3.44.46.12.14.23.29.35.43a9.62 9.62 0 0 1 2.04 5.92c0 .5-.05.99-.12 1.47h2.61l3.77-6.69h9.83v-5.59ZM5.42 13.6h2.25v1.47h15.87V13.6h2.25v1.47h5.33V3.13c0-1.72-1.4-3.13-3.13-3.13H3.09C1.37 0-.04 1.41-.04 3.13v11.94h5.45V13.6Z"/></symbol><symbol id="s48" viewBox="0 0 48 48"><path d="M18.68 39.03c0 .78-.64 1.42-1.42 1.42s-1.42-.64-1.42-1.42a1.419 1.419 0 1 1 2.84 0m7.48 0c0 4.94-3.99 8.97-8.89 8.97s-8.89-4.02-8.89-8.97c0-2.95 1.43-5.57 3.62-7.2.02-.02.04-.03.06-.05.18-.13.37-.26.56-.38.04-.03.08-.05.13-.08.18-.11.36-.21.55-.3.06-.03.13-.06.2-.1.17-.08.34-.16.52-.23.09-.04.18-.07.28-.1.16-.06.32-.11.48-.16.12-.04.25-.07.37-.1.14-.04.28-.07.43-.1.16-.03.33-.05.5-.08.11-.02.22-.04.34-.05.29-.03.57-.04.87-.04s.58.02.87.04c.11.01.22.03.34.05.17.02.34.04.5.08.14.03.29.07.43.1.12.03.25.06.37.1.16.05.32.11.48.16.09.03.18.07.28.1.18.07.35.15.52.23.07.03.13.06.2.1.19.09.37.2.55.3.04.03.08.05.13.08.19.12.38.25.56.38.02.01.04.03.06.05a8.97 8.97 0 0 1 3.62 7.2Zm-4.98 0c0-2.16-1.76-3.92-3.92-3.92s-3.92 1.76-3.92 3.92 1.76 3.92 3.92 3.92 3.92-1.76 3.92-3.92m26.8-12.92c0-.97-.78-1.75-1.75-1.75s-1.75.78-1.75 1.75v3.16h-7v-.42c.23-.12.43-.28.6-.49l3.89-5.09h2.33c.97 0 1.75-.78 1.75-1.75s-.78-1.75-1.75-1.75h-4.05l-2.76 3.61v-2.69H31.1v1.62h-2.5v-1.62H9.37v1.62h-2.5v-1.62H-.02v11.6h2.14v8.56h3.91c-.09-.59-.16-1.2-.16-1.82 0-2.64.91-5.06 2.4-7 .15-.19.3-.38.46-.57.14-.16.29-.31.43-.46.15-.15.3-.3.45-.44.18-.16.37-.32.56-.47 1.95-1.57 4.4-2.53 7.09-2.53s5.14.96 7.09 2.53c.19.15.38.31.56.47.15.14.3.29.45.44a9 9 0 0 1 .89 1.03c1.5 1.94 2.4 4.36 2.4 7 0 .62-.06 1.23-.16 1.82h3.28l4.53-8.06h11.67v-6.67ZM6.87 16.32h2.5v1.86h19.22v-1.86h2.5v1.86h6.39V3.75C37.48 1.68 35.8 0 33.73 0h-30C1.66 0-.02 1.68-.02 3.75v14.44h6.89v-1.86Z"/></symbol><symbol id="s64" viewBox="0 0 64 64"><path d="M24.79 51.85c0 1.23-1 2.23-2.23 2.23s-2.23-1-2.23-2.23 1-2.23 2.23-2.23 2.23 1 2.23 2.23m9.82 0c0 6.69-5.4 12.13-12.05 12.13s-12.05-5.44-12.05-12.13c0-3.64 1.61-6.89 4.13-9.12a11 11 0 0 1 .85-.68c.25-.18.5-.35.76-.51l.17-.11c.24-.14.49-.28.74-.41.09-.05.18-.09.27-.13.23-.11.46-.21.7-.31.13-.05.25-.09.38-.14.21-.08.43-.15.65-.22.17-.05.34-.09.51-.13.19-.05.38-.1.58-.14.22-.04.45-.07.68-.1.15-.02.3-.05.45-.06a11.5 11.5 0 0 1 2.34 0l.45.06c.23.03.45.06.68.1.2.04.39.09.58.14.17.04.34.08.51.13.22.07.43.14.65.22.13.05.25.09.38.14.24.09.47.2.7.31.09.04.18.09.27.13.25.13.5.26.74.41.06.03.11.07.17.11a13 13 0 0 1 .84.57c.27.2.53.41.77.63 2.53 2.22 4.13 5.48 4.13 9.12Zm-7.07 0a4.98 4.98 0 1 0-9.961.001 4.98 4.98 0 0 0 9.961-.001m36.44-17.06a2 2 0 1 0-4 0v4.55h-9.97v-1.13c.31-.13.6-.33.82-.62l5.29-6.91h3.27a2 2 0 1 0 0-4h-5.25L50 32.09v-4.81h-8.53v2.44h-2.75v-2.44H12.49v2.44H9.74v-2.44H-.02v15.46h1.95v11.58h6.06c-.13-.8-.22-1.62-.22-2.46 0-3.49 1.21-6.69 3.22-9.22.2-.25.41-.48.63-.72.16-.18.32-.37.49-.54.19-.19.4-.37.6-.55.21-.19.43-.39.65-.57 2.53-2.04 5.73-3.27 9.21-3.27s6.68 1.23 9.21 3.27c.23.18.44.38.65.57.2.18.41.36.6.55.17.17.33.36.49.54.21.24.43.47.63.72 2.01 2.54 3.22 5.74 3.22 9.22 0 .84-.09 1.66-.22 2.46h5.3l6.17-10.96h15.37v-8.55ZM9.74 21.74h2.75v2.78h26.23v-2.78h2.75v2.78H50V4.1c.01-2.27-1.84-4.12-4.12-4.12H4.11A4.13 4.13 0 0 0-.02 4.1v20.41h9.76v-2.78Z"/></symbol><use style="display: var(--s16, none)" href="#s16"/><use style="display: var(--s24, none)" href="#s24"/><use style="display: var(--s32, none)" href="#s32"/><use style="display: var(--s40, none)" href="#s40"/><use style="display: var(--s48, none)" href="#s48"/><use style="display: var(--s64, none)" href="#s64"/></symbol></defs><style>@media (max-width: 23.98px) {g{--s16:block;}}@media (min-width: 24px) and (max-width: 31.98px) {g{--s24:block;}}@media (min-width: 32px) and (max-width: 39.98px) {g{--s32:block;}}@media (min-width: 40px) and (max-width: 47.98px) {g{--s40:block;}}@media (min-width: 48px) and (max-width: 63.98px) {g{--s48:block;}}@media (min-width: 64px) {g{--s64:block;}}</style><g><use href="#i-trailerscooter-solid"/></g></svg>