<svg xmlns="http://www.w3.org/2000/svg"><defs><symbol id="i-trailertransporter"><symbol id="s16" viewBox="0 0 16 16"><path d="M14.11 9.53V-.01H0v11.04h.02v2.67h3v-.75c0-2.21 1.77-4.01 3.94-4.01s3.94 1.8 3.94 4.01v.75h1.77l1.46-2.67h.37v.77c0 .41.34.75.75.75s.75-.34.75-.75V9.54h-1.89ZM6.97 7.44c-1.73 0-3.27.82-4.26 2.09H1.5V1.48h11.12v8.05h-1.41c-1-1.27-2.52-2.09-4.24-2.09m-.02 2.11c-1.77 0-3.2 1.44-3.2 3.22s1.44 3.22 3.2 3.22 3.2-1.44 3.2-3.22-1.44-3.22-3.2-3.22m0 4.94c-.94 0-1.71-.77-1.71-1.72s.77-1.72 1.71-1.72 1.71.77 1.71 1.72-.77 1.72-1.71 1.72m.87-1.72a.87.87 0 1 1-1.741-.001.87.87 0 0 1 1.741.001"/></symbol><symbol id="s24" viewBox="0 0 24 24"><path d="M21.16 14.63V0H0v16.38h.02v4.01h4.22v-.88c0-3.46 2.77-6.28 6.18-6.28s6.17 2.82 6.17 6.28v.88h2.51l2.19-4.01h.95v1.4c0 .48.39.88.88.88s.88-.39.88-.88v-3.15zM1.77 18.64v-2.26h1.35c-.3.71-.5 1.46-.59 2.26zm8.65-7.15c-2.56 0-4.84 1.23-6.29 3.14H1.74V1.76H19.4v12.87h-2.71c-1.45-1.91-3.72-3.14-6.28-3.14Zm7.83 6.8c-.1-.67-.29-1.31-.54-1.91h1.59l-1.04 1.91Zm-7.86-3.8c-2.61 0-4.73 2.13-4.73 4.76s2.12 4.76 4.73 4.76 4.73-2.13 4.73-4.76-2.12-4.76-4.73-4.76m0 7.77c-1.65 0-2.98-1.35-2.98-3.01s1.34-3.01 2.98-3.01 2.98 1.35 2.98 3.01-1.34 3.01-2.98 3.01m1.12-3.01a1.129 1.129 0 1 1-1.13-1.13c.62 0 1.13.5 1.13 1.13"/></symbol><symbol id="s32" viewBox="0 0 32 32"><path d="M28.21 19.67V0H0v27.02h5.5v-1c0-4.71 3.77-8.53 8.4-8.53s8.4 3.83 8.4 8.53v1h3.25l2.92-5.34H30v2.03c0 .55.45 1 1 1s1-.45 1-1v-4.03h-3.78ZM2 25.02v-3.34h2.43c-.47 1.04-.78 2.16-.89 3.34zm11.89-9.54c-3.39 0-6.4 1.65-8.3 4.19H2V2h24.22v17.67h-4.03c-1.9-2.54-4.91-4.19-8.3-4.19m10.46 9.54h-.11c-.11-1.18-.42-2.3-.89-3.34h2.82l-1.83 3.34ZM13.85 19c-3.57 0-6.47 2.92-6.47 6.5s2.9 6.5 6.47 6.5 6.47-2.92 6.47-6.5-2.9-6.5-6.47-6.5m0 11c-2.46 0-4.47-2.02-4.47-4.5s2-4.5 4.47-4.5 4.47 2.02 4.47 4.5-2 4.5-4.47 4.5m0-7.18a2.68 2.68 0 1 0 0 5.36 2.68 2.68 0 0 0 0-5.36m0 3.36c-.38 0-.68-.31-.68-.68s.31-.68.68-.68.68.31.68.68-.31.68-.68.68"/></symbol><symbol id="s40" viewBox="0 0 40 40"><path d="M35.27 24.71V0H0v33.65h6.74v-1.13c0-5.95 4.77-10.8 10.62-10.8s10.62 4.84 10.62 10.8v1.13h3.99l3.65-6.68h2.12v2.67c0 .62.5 1.13 1.13 1.13s1.13-.5 1.13-1.13v-4.92h-4.73ZM2.25 31.39v-4.43h3.48c-.64 1.37-1.06 2.86-1.19 4.43zm15.11-11.92c-4.21 0-7.96 2.06-10.31 5.24h-4.8V2.24h30.77v22.47h-5.35c-2.35-3.18-6.1-5.24-10.31-5.24m13.28 11.92h-.45c-.13-1.57-.55-3.06-1.19-4.43h4.06zm-13.33-7.64c-4.45 0-8.08 3.64-8.08 8.12s3.62 8.12 8.08 8.12 8.08-3.64 8.08-8.12-3.62-8.12-8.08-8.12m0 13.99c-3.21 0-5.83-2.63-5.83-5.87S14.09 26 17.31 26s5.83 2.63 5.83 5.87-2.61 5.87-5.83 5.87m0-9.13a3.26 3.26 0 1 0 .001 6.521 3.26 3.26 0 0 0-.001-6.521m0 4.27c-.56 0-1.01-.45-1.01-1.01s.45-1.01 1.01-1.01 1.01.45 1.01 1.01-.45 1.01-1.01 1.01"/></symbol><symbol id="s48" viewBox="0 0 48 48"><path d="M42.32 29.76V-.06H-.01v40.37h8v-1.25c0-7.22 5.76-13.09 12.85-13.09s12.85 5.87 12.85 13.09v1.25h4.72l4.38-8.04h2.7v3.31a1.25 1.25 0 0 0 2.5 0v-5.82zM2.49 37.8v-5.53h4.53c-.81 1.7-1.33 3.56-1.48 5.53zm18.35-14.34c-5.04 0-9.52 2.48-12.32 6.31H2.49V2.45h37.33v27.31h-6.66c-2.8-3.82-7.28-6.3-12.32-6.3M36.92 37.8h-.79c-.15-1.97-.67-3.83-1.48-5.53h5.28zm-16.14-9.19c-5.29 0-9.59 4.34-9.59 9.67s4.3 9.67 9.59 9.67 9.59-4.34 9.59-9.67-4.3-9.67-9.59-9.67m0 16.83c-3.91 0-7.09-3.21-7.09-7.16s3.18-7.16 7.09-7.16 7.09 3.21 7.09 7.16-3.18 7.16-7.09 7.16m0-10.99c-2.1 0-3.81 1.72-3.81 3.83s1.71 3.83 3.81 3.83 3.81-1.72 3.81-3.83-1.71-3.83-3.81-3.83m0 5.15c-.72 0-1.31-.59-1.31-1.32s.59-1.32 1.31-1.32 1.31.59 1.31 1.32-.59 1.32-1.31 1.32"/></symbol><symbol id="s64" viewBox="0 0 64 64"><path d="M56.44 39.95V0H0v53.39h10.36v-1.38c0-9.76 7.82-17.69 17.42-17.69S45.2 42.26 45.2 52.01v1.38h6.13l5.84-10.69h4.06v4.69c0 .76.62 1.38 1.38 1.38s1.38-.62 1.38-1.38v-7.44h-7.56ZM2.75 50.64v-7.93h7.1c-1.22 2.41-2 5.09-2.19 7.93zm25.03-19.07c-6.68 0-12.61 3.31-16.28 8.39H2.75V2.75h50.94v37.2h-9.63c-3.67-5.08-9.6-8.38-16.27-8.38Zm21.93 19.07h-1.8c-.19-2.84-.97-5.52-2.19-7.93h8.33zm-22-12.68c-7.14 0-12.95 5.84-12.95 13.02S20.57 64 27.71 64s12.95-5.84 12.95-13.02-5.81-13.02-12.95-13.02m0 23.29c-5.62 0-10.2-4.61-10.2-10.27s4.57-10.27 10.2-10.27 10.2 4.6 10.2 10.27-4.57 10.27-10.2 10.27m0-15.2c-2.72 0-4.93 2.21-4.93 4.93s2.21 4.93 4.93 4.93 4.93-2.21 4.93-4.93-2.21-4.93-4.93-4.93m0 7.11c-1.2 0-2.18-.98-2.18-2.18s.98-2.18 2.18-2.18 2.18.98 2.18 2.18-.98 2.18-2.18 2.18"/></symbol><use style="display: var(--s16, none)" href="#s16"/><use style="display: var(--s24, none)" href="#s24"/><use style="display: var(--s32, none)" href="#s32"/><use style="display: var(--s40, none)" href="#s40"/><use style="display: var(--s48, none)" href="#s48"/><use style="display: var(--s64, none)" href="#s64"/></symbol></defs><style>@media (max-width: 23.98px) {g{--s16:block;}}@media (min-width: 24px) and (max-width: 31.98px) {g{--s24:block;}}@media (min-width: 32px) and (max-width: 39.98px) {g{--s32:block;}}@media (min-width: 40px) and (max-width: 47.98px) {g{--s40:block;}}@media (min-width: 48px) and (max-width: 63.98px) {g{--s48:block;}}@media (min-width: 64px) {g{--s64:block;}}</style><g><use href="#i-trailertransporter"/></g></svg>