<svg xmlns="http://www.w3.org/2000/svg"><defs><symbol id="i-transporter"><symbol id="s16" viewBox="0 0 16 16"><path d="m12.38 2.74-.22-.27H0v10.32h1.97c.24.99 1.12 1.73 2.18 1.73s1.95-.74 2.18-1.73h2.96c.24.99 1.12 1.73 2.18 1.73s1.95-.74 2.18-1.73h.08c1.24 0 2.25-1.01 2.25-2.25V7.1l-3.62-4.36Zm1.26 3.88h-1.45V4.87zm-9.48 6.4c-.41 0-.75-.34-.75-.75s.34-.75.75-.75.75.34.75.75-.34.75-.75.75m7.32 0c-.41 0-.75-.34-.75-.75s.34-.75.75-.75.75.34.75.75-.34.75-.75.75m2.27-1.73h-.25c-.37-.75-1.13-1.27-2.02-1.27s-1.65.52-2.02 1.27H6.17c-.37-.75-1.13-1.27-2.02-1.27s-1.65.52-2.02 1.27h-.64V3.97h9.19v2.9c0 .69.56 1.25 1.25 1.25h2.56v2.42c0 .41-.34.75-.75.75ZM2.67 9.01h6.82V4.67H2.67zm1.5-2.84h3.82v1.34H4.17z"/></symbol><symbol id="s24" viewBox="0 0 24 24"><path d="m18.48 4.06-.22-.26H0v15.27h2.98c.25 1.5 1.55 2.65 3.13 2.65s2.87-1.15 3.13-2.65h4.98c.25 1.5 1.55 2.65 3.13 2.65s2.87-1.15 3.13-2.65h.9c1.45 0 2.63-1.18 2.63-2.62v-5.73l-5.53-6.65Zm2.76 6.1h-2.96c-.07 0-.13-.06-.13-.12V6.43l3.08 3.73ZM6.11 19.97c-.79 0-1.43-.64-1.43-1.42s.64-1.42 1.43-1.42 1.43.64 1.43 1.42-.64 1.42-1.43 1.42m11.24 0c-.79 0-1.43-.64-1.43-1.42s.64-1.42 1.43-1.42 1.43.64 1.43 1.42-.64 1.42-1.43 1.42m4.03-2.65h-1.1c-.48-1.14-1.61-1.95-2.93-1.95s-2.45.81-2.93 1.95H9.05c-.48-1.14-1.61-1.95-2.93-1.95s-2.45.81-2.93 1.95H1.77V5.55h14.65v4.48c0 1.03.84 1.88 1.88 1.88h3.97v4.54c0 .48-.39.88-.88.88ZM4.09 13.27h9.92v-6.1H4.09zm1.76-4.35h6.41v2.6H5.85z"/></symbol><symbol id="s32" viewBox="0 0 32 32"><path d="M24.33 5.06H-.03v20.26h3.5c.26 2.01 1.97 3.58 4.05 3.58s3.79-1.56 4.05-3.58h8.05c.26 2.01 1.97 3.58 4.05 3.58s3.79-1.56 4.05-3.58h1.24c1.65 0 3-1.35 3-3v-8.04l-7.65-9.22Zm4.49 8.59h-4.23c-.28 0-.5-.22-.5-.5V7.92zM7.52 26.9c-1.16 0-2.11-.95-2.11-2.11s.95-2.11 2.11-2.11 2.11.95 2.11 2.11-.94 2.11-2.11 2.11m16.16 0c-1.16 0-2.11-.95-2.11-2.11s.95-2.11 2.11-2.11 2.11.95 2.11 2.11-.95 2.11-2.11 2.11m5.29-3.58H27.5c-.59-1.54-2.08-2.64-3.82-2.64s-3.23 1.1-3.82 2.64h-8.51c-.59-1.54-2.08-2.64-3.82-2.64s-3.23 1.1-3.82 2.64H1.98V7.06H22.1v6.08a2.5 2.5 0 0 0 2.5 2.5h5.38v6.68c0 .55-.45 1-1 1ZM5.49 17.49H18.5V9.62H5.49zm2-5.87h9.01v3.87H7.49z"/></symbol><symbol id="s40" viewBox="0 0 40 40"><path d="m30.92 6.98-.43-.52H.04v25.16h4.39c.27 2.52 2.39 4.49 4.98 4.49s4.71-1.97 4.98-4.49h10.36c.27 2.52 2.39 4.49 4.98 4.49s4.71-1.97 4.98-4.49h1.94c1.87 0 3.38-1.51 3.38-3.38v-10.3L30.91 6.97Zm5.56 10.25h-5.47c-.48 0-.88-.39-.88-.88v-6.8l6.35 7.67ZM9.41 33.86c-1.53 0-2.78-1.24-2.78-2.77s1.25-2.77 2.78-2.77 2.78 1.24 2.78 2.77-1.25 2.77-2.78 2.77m20.32 0c-1.53 0-2.78-1.24-2.78-2.77s1.25-2.77 2.78-2.77 2.78 1.24 2.78 2.77-1.25 2.77-2.78 2.77m6.93-4.49h-2.21c-.71-1.92-2.54-3.31-4.71-3.31s-4.01 1.38-4.71 3.31h-10.9c-.71-1.92-2.54-3.31-4.71-3.31s-4.01 1.38-4.71 3.31h-2.4V8.71h25.57v7.65c0 1.72 1.41 3.12 3.13 3.12h6.78v8.77c0 .62-.51 1.12-1.13 1.12M6.98 21.79h16.11v-9.62H6.98zm2.25-7.37h11.6v5.12H9.23z"/></symbol><symbol id="s48" viewBox="0 0 48 48"><path d="M36.68 7.8H.01v29.89H5.2c.28 3 2.81 5.37 5.88 5.37s5.61-2.36 5.88-5.37h12.97c.28 3 2.81 5.37 5.88 5.37s5.61-2.36 5.88-5.37h2.56c2.07 0 3.75-1.68 3.75-3.75V21.47L36.66 7.79Zm7.38 12.88h-7.12c-.41 0-.75-.34-.75-.75v-8.78zM11.09 40.56c-1.88 0-3.41-1.53-3.41-3.41s1.53-3.41 3.41-3.41 3.41 1.53 3.41 3.41-1.53 3.41-3.41 3.41m24.73 0c-1.88 0-3.41-1.53-3.41-3.41s1.53-3.41 3.41-3.41 3.41 1.53 3.41 3.41-1.53 3.41-3.41 3.41m8.44-5.36h-2.87c-.81-2.3-3-3.95-5.57-3.95s-4.76 1.65-5.57 3.95h-13.6c-.81-2.3-3-3.95-5.57-3.95S6.32 32.9 5.51 35.2h-3V10.3h31.18v9.63c0 1.79 1.46 3.25 3.25 3.25h8.57v10.76c0 .69-.56 1.25-1.25 1.25ZM8.28 25.95H27.3V14.64H8.28zm2.5-8.81H24.8v6.31H10.78z"/></symbol><symbol id="s64" viewBox="0 0 64 64"><path d="m49.38 11.1-.43-.52H.05v39.55h6.97c.22 4.01 3.55 7.21 7.63 7.21s7.4-3.2 7.63-7.21h18.04c.22 4.01 3.55 7.21 7.63 7.21s7.4-3.2 7.63-7.21h4.1c2.42 0 4.38-1.96 4.38-4.38v-17L49.39 11.09Zm10.3 16.78H49.26c-.62 0-1.13-.5-1.13-1.12V13.93l11.54 13.96ZM14.65 54.59c-2.7 0-4.89-2.19-4.89-4.88s2.2-4.88 4.89-4.88 4.89 2.19 4.89 4.88-2.19 4.88-4.89 4.88m33.29 0c-2.7 0-4.89-2.19-4.89-4.88s2.2-4.88 4.89-4.88 4.89 2.19 4.89 4.88-2.2 4.88-4.89 4.88m11.73-7.21h-4.44c-.99-3.08-3.88-5.31-7.28-5.31s-6.3 2.23-7.28 5.31H21.94c-.99-3.08-3.88-5.31-7.28-5.31s-6.3 2.23-7.28 5.31H2.8V13.33h42.58v13.42c0 2.14 1.74 3.88 3.88 3.88h12.03v15.12c0 .9-.73 1.62-1.63 1.62ZM11.18 34.35h24.99V19.76H11.18zm2.76-11.83h19.48v9.09H13.94z"/></symbol><use style="display: var(--s16, none)" href="#s16"/><use style="display: var(--s24, none)" href="#s24"/><use style="display: var(--s32, none)" href="#s32"/><use style="display: var(--s40, none)" href="#s40"/><use style="display: var(--s48, none)" href="#s48"/><use style="display: var(--s64, none)" href="#s64"/></symbol></defs><style>@media (max-width: 23.98px) {g{--s16:block;}}@media (min-width: 24px) and (max-width: 31.98px) {g{--s24:block;}}@media (min-width: 32px) and (max-width: 39.98px) {g{--s32:block;}}@media (min-width: 40px) and (max-width: 47.98px) {g{--s40:block;}}@media (min-width: 48px) and (max-width: 63.98px) {g{--s48:block;}}@media (min-width: 64px) {g{--s64:block;}}</style><g><use href="#i-transporter"/></g></svg>