<svg xmlns="http://www.w3.org/2000/svg"><defs><symbol id="i-translate-solid"><symbol id="s16" viewBox="0 0 16 16"><path d="M4.42 9.99c-.85.45-1.83.87-2.97 1.23L.69 8.84c.69-.22 1.29-.46 1.85-.72C1.07 6.07.85 3.9.84 3.75l2.49-.23c.01.11.2 1.8 1.39 3.31 1.68-1.3 2.29-2.71 2.52-3.66H0V.67h3.72V0h2.5v.67h4.87v2.5H9.77c-.2 1.33-.89 3.41-3.07 5.28.29.15.61.28.95.39l-.74 2.39A9.1 9.1 0 0 1 4.41 10Zm8.46 4.2H9l-.86 1.8-2.26-1.08 5.04-10.55 5.07 10.54-2.25 1.08-.87-1.8Zm-1.2-2.5-.74-1.54-.74 1.54z"/></symbol><symbol id="s24" viewBox="0 0 24 24"><path d="M6.77 14.59c-1.33.71-2.88 1.36-4.7 1.93l-.89-2.87c1.25-.39 2.35-.83 3.32-1.29-2.46-3.12-2.82-6.63-2.84-6.85l1.49-.13 1.49-.14c.02.18.34 3.14 2.49 5.61 3.37-2.37 4.22-5.04 4.4-6.58H0v-3h6.05V-.01h3v1.28h7.78v3h-2.28c-.17 2.04-1.09 5.51-5 8.54.58.33 1.22.62 1.95.84l-.89 2.87c-1.52-.47-2.79-1.15-3.84-1.93m12.63 5.44h-5.43l-1.89 3.96-2.71-1.3 7.29-15.26L24 22.69l-2.7 1.3zm-1.45-3.01-1.28-2.66-1.27 2.66z"/></symbol><symbol id="s32" viewBox="0 0 32 32"><path d="M9.08 19.05c-1.8.97-3.9 1.86-6.38 2.63l-1.04-3.34a33 33 0 0 0 4.75-1.86C2.99 12.31 2.5 7.51 2.48 7.21l3.48-.32c.02.25.48 4.41 3.55 7.8 4.96-3.4 6.02-7.3 6.2-9.38H0v-3.5h8.34V0h3.5v1.82H22.5v3.5h-3.28C19.05 8 17.89 12.84 12.32 17c.87.53 1.85.99 2.98 1.34l-1.04 3.34c-2.07-.64-3.77-1.56-5.18-2.64Zm17.16 7.51h-7.57l-2.59 5.43-3.16-1.51 9.51-19.9 9.58 19.9L28.86 32l-2.61-5.43Zm-1.69-3.5-2.11-4.39-2.1 4.39z"/></symbol><symbol id="s40" viewBox="0 0 40 40"><path d="M11.41 23.69c-2.27 1.23-4.94 2.37-8.09 3.36l-1.19-3.82c2.38-.74 4.44-1.57 6.23-2.46C3.95 15.53 3.33 9.41 3.3 9.03l1.99-.18 1.99-.18c.03.32.61 5.71 4.62 10.05 6.6-4.46 7.87-9.63 8.05-12.24H0V2.46h10.68V-.08h4v2.54h13.59v4h-4.31c-.17 3.32-1.55 9.58-8.84 14.9 1.17.73 2.5 1.37 4.04 1.85l-1.18 3.82c-2.63-.81-4.78-1.99-6.55-3.36Zm21.64 9.29h-9.76l-3.31 6.93-3.61-1.73 11.77-24.64 11.85 24.63-3.6 1.74-3.34-6.94Zm-1.93-4-2.97-6.17-2.95 6.17z"/></symbol><symbol id="s48" viewBox="0 0 48 48"><path d="M13.75 28.36c-2.74 1.51-5.96 2.9-9.79 4.11l-1.34-4.34c2.95-.93 5.49-1.97 7.69-3.08-5.39-6.34-6.14-13.84-6.18-14.3l2.24-.2 2.24-.21c.04.39.75 7.06 5.69 12.38 8.23-5.56 9.69-12.05 9.86-15.21H0V2.96h12.99V-.23h4.5v3.18h16.49v4.54h-5.32c-.16 3.98-1.77 11.71-10.76 18.25 1.46.95 3.14 1.77 5.09 2.38l-1.33 4.34c-3.18-.99-5.77-2.44-7.91-4.11Zm26.14 10.91H27.96l-4.03 8.5-4.06-1.96 14.02-29.59L48 45.81l-4.05 1.97zm-2.17-4.55-3.82-8.01-3.79 8.01z"/></symbol><symbol id="s64" viewBox="0 0 64 64"><path d="M18.49 37.18c-3.71 2.05-8.11 3.94-13.35 5.57l-1.49-4.77c4.25-1.33 7.87-2.83 10.98-4.43-7.51-8.39-8.54-18.58-8.6-19.19l4.98-.45c.05.54 1.03 9.82 8.06 17.06 12.05-7.88 13.75-17.26 13.86-21.39H-.01v-5h17.94V0h5v4.58h22.64v5h-7.64c-.1 5.08-2.01 15.82-14.85 24.76 2.14 1.46 4.64 2.73 7.59 3.64l-1.48 4.78c-4.32-1.34-7.83-3.3-10.7-5.57ZM53.9 52.41H37.24L31.7 63.99l-4.51-2.16L45.53 23.5l18.46 38.32-4.51 2.17L53.9 52.4Zm-2.41-5-5.95-12.35-5.91 12.35z"/></symbol><use style="display: var(--s16, none)" href="#s16"/><use style="display: var(--s24, none)" href="#s24"/><use style="display: var(--s32, none)" href="#s32"/><use style="display: var(--s40, none)" href="#s40"/><use style="display: var(--s48, none)" href="#s48"/><use style="display: var(--s64, none)" href="#s64"/></symbol></defs><style>@media (max-width: 23.98px) {g{--s16:block;}}@media (min-width: 24px) and (max-width: 31.98px) {g{--s24:block;}}@media (min-width: 32px) and (max-width: 39.98px) {g{--s32:block;}}@media (min-width: 40px) and (max-width: 47.98px) {g{--s40:block;}}@media (min-width: 48px) and (max-width: 63.98px) {g{--s48:block;}}@media (min-width: 64px) {g{--s64:block;}}</style><g><use href="#i-translate-solid"/></g></svg>