<svg xmlns="http://www.w3.org/2000/svg"><defs><symbol id="i-translate"><symbol id="s16" viewBox="0 0 16 16"><path d="M4.74 9.43c-.95.53-2.05 1.03-3.37 1.45L.92 9.45c1.03-.33 1.92-.7 2.69-1.11-1.87-2.17-2.13-4.73-2.15-4.89l1.49-.14c.01.14.26 2.41 1.95 4.23C7.64 5.63 8.24 3.39 8.35 2.3H0V.81h4.54V0h1.5v.81h5.75v1.5H9.88c-.1 1.33-.73 4-3.78 6.25.53.36 1.14.67 1.87.89l-.44 1.43a8.5 8.5 0 0 1-2.78-1.45Zm8.58 3.8H8.98L7.66 16l-1.35-.65 4.84-10.11 4.87 10.1-1.35.65-1.33-2.77Zm-.72-1.5-1.45-3.02-1.44 3.02h2.9Z"/></symbol><symbol id="s24" viewBox="0 0 24 24"><path d="M7.2 13.87c-1.45.82-3.17 1.57-5.23 2.21l-.52-1.67c1.72-.54 3.17-1.15 4.42-1.8-3-3.31-3.42-7.41-3.43-7.46l1.74-.16c.02.21.42 3.88 3.22 6.73 4.86-3.15 5.46-6.94 5.48-8.51H0V1.46h7.06V0h1.75v1.46h8.88v1.75h-3.08c-.05 1.91-.8 6.17-5.84 9.68.87.62 1.89 1.15 3.11 1.53l-.52 1.67c-1.69-.52-3.04-1.31-4.16-2.22m13.03 5.58h-6.58L11.47 24l-1.58-.76 7.03-14.69L24 23.24l-1.58.76zm-.84-1.75-2.46-5.1-2.44 5.1z"/></symbol><symbol id="s32" viewBox="0 0 32 32"><path d="M9.61 18.3c-1.94 1.1-4.25 2.12-7.02 2.99l-.6-1.91c2.38-.74 4.39-1.6 6.09-2.52C4 12.46 3.44 6.93 3.43 6.85l1.99-.18c.03.29.57 5.31 4.42 9.16 6.76-4.36 7.49-9.69 7.49-11.72H0v-2h9.57V0h2v2.11h12v2h-4.26c-.03 2.45-.91 8.31-7.92 13.08 1.21.89 2.65 1.65 4.39 2.19l-.59 1.91c-2.27-.7-4.1-1.76-5.59-2.99Zm17.63 7.53h-8.98l-2.94 6.16-1.81-.86 9.22-19.28 9.28 19.28-1.8.87-2.97-6.16Zm-.96-2-3.54-7.36-3.52 7.36z"/></symbol><symbol id="s40" viewBox="0 0 40 40"><path d="M12.02 22.73c-2.43 1.39-5.33 2.67-8.83 3.76l-.67-2.15c3.05-.95 5.61-2.05 7.78-3.23C5.12 15.62 4.41 8.65 4.4 8.55l2.24-.2c.03.37.7 6.76 5.62 11.61 8.73-5.58 9.54-12.47 9.52-14.94H0V2.77h12.09V0h2.25v2.77h15.13v2.25h-5.45c0 2.97-1.01 10.44-9.99 16.46 1.55 1.16 3.41 2.16 5.67 2.86l-.67 2.15c-2.85-.88-5.15-2.22-7.01-3.76m22.21 9.5H22.84L19.12 40l-2.03-.97L28.5 15.17l11.49 23.85-2.03.98-3.74-7.77Zm-1.08-2.25-4.63-9.61-4.6 9.61z"/></symbol><symbol id="s48" viewBox="0 0 48 48"><path d="M14.44 27.13c-2.92 1.67-6.42 3.22-10.64 4.53l-.74-2.39c3.72-1.16 6.84-2.5 9.47-3.94-6.27-6.57-7.12-14.98-7.13-15.09l2.49-.23c.04.44.85 8.19 6.83 14.04C25.42 17.25 26.3 8.81 26.25 5.9H.01V3.4h14.61V0h2.5v3.42h18.25v2.5h-6.64c.01 3.48-1.11 12.55-12.06 19.84 1.89 1.44 4.17 2.67 6.94 3.53l-.74 2.39c-3.44-1.06-6.2-2.67-8.43-4.53Zm26.8 11.49H27.45l-4.49 9.37-2.26-1.08 13.6-28.42L48 46.91l-2.25 1.08-4.52-9.37Zm-1.2-2.5-5.72-11.85-5.67 11.85z"/></symbol><symbol id="s64" viewBox="0 0 64 64"><path d="M19.29 35.85c-3.91 2.26-8.62 4.35-14.31 6.12l-.82-2.62c5.15-1.61 9.44-3.46 13.04-5.44-8.56-8.73-9.71-20.1-9.72-20.26l2.74-.25c.06.6 1.16 11.19 9.39 19.1 15.1-9.41 15.86-21.18 15.69-24.9H.02V4.85h19.77V0h2.75v4.85h24.63V7.6h-9.15c.08 4.37-1.14 16.84-16.28 26.74 2.6 2.04 5.77 3.8 9.66 5l-.81 2.63c-4.62-1.43-8.32-3.6-11.29-6.12Zm36.14 15.48H36.68L30.62 64l-2.48-1.19 17.88-37.36 18 37.36L61.54 64l-6.1-12.67Zm-1.32-2.75L46.02 31.8l-8.03 16.78H54.1Z"/></symbol><use style="display: var(--s16, none)" href="#s16"/><use style="display: var(--s24, none)" href="#s24"/><use style="display: var(--s32, none)" href="#s32"/><use style="display: var(--s40, none)" href="#s40"/><use style="display: var(--s48, none)" href="#s48"/><use style="display: var(--s64, none)" href="#s64"/></symbol></defs><style>@media (max-width: 23.98px) {g{--s16:block;}}@media (min-width: 24px) and (max-width: 31.98px) {g{--s24:block;}}@media (min-width: 32px) and (max-width: 39.98px) {g{--s32:block;}}@media (min-width: 40px) and (max-width: 47.98px) {g{--s40:block;}}@media (min-width: 48px) and (max-width: 63.98px) {g{--s48:block;}}@media (min-width: 64px) {g{--s64:block;}}</style><g><use href="#i-translate"/></g></svg>