<svg xmlns="http://www.w3.org/2000/svg"><defs><symbol id="i-transporter-solid"><symbol id="s16" viewBox="0 0 16 16"><path d="M7.13 6.69H3.31V5.35h3.82zm5.46 5.59c-.09-.15-.21-.28-.35-.39-.02-.02-.04-.04-.06-.05-.14-.1-.28-.19-.45-.25-.02 0-.05-.02-.08-.02-.17-.06-.35-.1-.55-.1s-.37.04-.55.1c-.03 0-.05.01-.08.02-.16.06-.31.15-.45.25-.02.02-.04.03-.06.05-.13.11-.25.24-.35.39 0 .01-.01.02-.02.04-.16.26-.26.57-.26.9 0 .97.78 1.75 1.75 1.75s1.75-.78 1.75-1.75c0-.33-.1-.63-.26-.9 0-.01-.01-.02-.02-.04Zm-7.2 0c-.09-.15-.21-.28-.35-.39-.02-.02-.04-.04-.06-.05-.14-.1-.28-.19-.45-.25-.02 0-.05-.02-.08-.02-.17-.06-.35-.1-.55-.1s-.37.04-.55.1c-.03 0-.05.01-.08.02-.16.06-.31.15-.45.25-.02.02-.04.03-.06.05-.13.11-.25.24-.35.39 0 .01-.01.02-.02.04-.16.26-.26.57-.26.9 0 .97.78 1.75 1.75 1.75s1.75-.78 1.75-1.75c0-.33-.1-.63-.26-.9 0-.01-.01-.02-.02-.04ZM16 7.14v3.44c0 1.04-.72 1.91-1.68 2.17-.23-1.57-1.57-2.79-3.21-2.79s-3.02 1.26-3.21 2.87h-.77c-.19-1.61-1.55-2.87-3.21-2.87S.9 11.22.71 12.83h-.7V2.51h12.16l3.84 4.62ZM8.63 3.86H1.81V8.2h6.82zm6.35 4.41L11.25 3.8v3.17c0 .72.58 1.3 1.3 1.3z"/></symbol><symbol id="s24" viewBox="0 0 24 24"><path d="M11.86 10.87H4.99V7.69h6.87zm8.3 7.71c-.05-.13-.11-.25-.17-.37a1 1 0 0 0-.07-.12c-.06-.11-.13-.21-.21-.31a5 5 0 0 0-.35-.38l-.18-.15c-.08-.06-.16-.12-.24-.17s-.17-.09-.25-.14c-.08-.04-.15-.08-.23-.11-.11-.04-.22-.07-.34-.1-.07-.02-.13-.04-.2-.05a2.8 2.8 0 0 0-1.16 0c-.07.01-.13.04-.2.05-.11.03-.23.06-.34.1-.08.03-.15.07-.23.11-.09.04-.17.09-.25.14s-.16.11-.24.17l-.18.15c-.08.07-.16.15-.23.24-.04.05-.08.09-.12.14-.08.1-.15.2-.21.31-.02.04-.04.08-.07.12-.07.12-.12.24-.17.37l-.03.09c-.1.3-.17.61-.17.95 0 1.66 1.35 3 3.01 3s3.01-1.34 3.01-3c0-.33-.07-.65-.17-.95 0-.03-.02-.06-.03-.09Zm-11.24 0c-.05-.13-.11-.25-.17-.37a1 1 0 0 0-.07-.12c-.06-.11-.13-.21-.21-.31a5 5 0 0 0-.35-.38l-.18-.15c-.08-.06-.16-.12-.24-.17s-.17-.09-.25-.14c-.08-.04-.15-.08-.23-.11-.11-.04-.22-.07-.34-.1-.07-.02-.13-.04-.2-.05a2.8 2.8 0 0 0-1.16 0c-.07.01-.13.04-.2.05-.11.03-.23.06-.34.1-.08.03-.15.07-.23.11-.09.04-.17.09-.25.14s-.16.11-.24.17l-.18.15c-.08.07-.16.15-.23.24-.04.05-.08.09-.12.14-.08.1-.15.2-.21.31-.02.04-.04.08-.07.12-.07.12-.12.24-.17.37l-.03.09c-.1.3-.17.61-.17.95 0 1.66 1.35 3 3.01 3s3.01-1.34 3.01-3c0-.33-.07-.65-.17-.95 0-.03-.02-.06-.03-.09Zm15.09-7.82v5.73c0 1.13-.72 2.08-1.72 2.45-.33-2.44-2.41-4.33-4.94-4.33s-4.7 1.98-4.96 4.5h-1.32c-.25-2.52-2.37-4.5-4.96-4.5s-4.7 1.98-4.96 4.5H0V3.84h18.26L24 10.76ZM13.86 5.68H2.99v7.18h10.88V5.68Zm8.74 7.28L16.45 5.6v5.22c0 1.18.96 2.14 2.15 2.14z"/></symbol><symbol id="s32" viewBox="0 0 32 32"><path d="M25.82 25.38c.02.15.05.3.05.45 0 1.93-1.57 3.5-3.5 3.5s-3.5-1.57-3.5-3.5c0-.16.03-.3.05-.45.03-.21.07-.42.14-.61v-.02c.06-.19.14-.37.23-.54 0-.02.02-.04.03-.05q.135-.24.3-.45c.02-.03.05-.06.08-.09.1-.12.21-.24.33-.35.05-.04.1-.08.15-.13.11-.09.22-.17.33-.25.08-.05.17-.09.25-.14.1-.05.2-.11.31-.15.12-.05.25-.08.37-.12.08-.02.16-.05.25-.07.22-.04.44-.07.68-.07s.46.02.68.07c.09.02.17.05.25.07.13.04.25.07.37.12.11.04.21.1.31.15.08.04.17.09.25.14.12.07.23.16.33.25a3.6 3.6 0 0 1 .48.48c.03.03.05.06.08.09q.165.21.3.45c0 .02.02.04.03.05.09.17.17.35.23.54v.02c.06.2.11.4.14.61m-14.95 0c-.03-.21-.07-.42-.14-.61v-.02c-.06-.19-.14-.37-.23-.54 0-.02-.02-.04-.03-.05a3.5 3.5 0 0 0-.3-.45c-.02-.03-.05-.06-.08-.09-.1-.12-.21-.24-.33-.35-.05-.04-.1-.08-.15-.13-.11-.09-.22-.17-.33-.25-.08-.05-.17-.09-.25-.14-.1-.05-.2-.11-.31-.15-.12-.05-.25-.08-.37-.12-.08-.02-.16-.05-.25-.07-.22-.04-.44-.07-.68-.07s-.46.02-.68.07c-.09.02-.17.05-.25.07-.13.04-.25.07-.37.12-.11.04-.21.1-.31.15-.08.04-.17.09-.25.14-.12.07-.23.16-.33.25a3.6 3.6 0 0 0-.48.48c-.03.03-.05.06-.08.09q-.165.21-.3.45c0 .02-.02.04-.03.05-.09.17-.17.35-.23.54v.02c-.06.2-.11.4-.14.61-.02.15-.05.3-.05.45 0 1.93 1.57 3.5 3.5 3.5s3.5-1.57 3.5-3.5c0-.16-.03-.3-.05-.45m4.15-14.28H7.01v2.87h8.01zm16.95 3.24v8.04c0 1.65-1.35 3-3 3h-.13c-.23-3.37-3.05-6.05-6.48-6.05s-6.24 2.67-6.48 6.05h-2c-.23-3.37-3.05-6.05-6.48-6.05S1.16 22 .92 25.38h-.95V5.11h24.35l7.65 9.22ZM18.02 8.1H4.01v8.87h14.01zm12.07 9.21-7.85-9.42v6.68c0 1.51 1.23 2.74 2.74 2.74z"/></symbol><symbol id="s40" viewBox="0 0 40 40"><path d="M12.96 29.39c.56.75.91 1.67.91 2.68a4.5 4.5 0 0 1-9 0c0-1.01.34-1.93.91-2.68 0-.01.02-.02.03-.04.15-.2.32-.39.5-.56.04-.04.08-.06.12-.1.16-.14.33-.28.52-.4.08-.05.18-.09.27-.14.15-.08.3-.17.47-.24.15-.06.3-.1.45-.14.12-.03.24-.08.36-.11q.42-.09.87-.09h.02q.45 0 .87.09c.12.02.24.07.36.11.15.04.31.08.45.14.16.07.31.16.47.24.09.05.18.09.27.14.18.12.35.26.51.4.04.03.08.06.12.1.18.17.35.36.5.56 0 .01.02.02.03.04Zm6.31-16.02H8.91v3.89h10.36zM40 18v10.32c0 1.49-.98 2.75-2.33 3.2-.29-4.15-3.75-7.45-7.98-7.45s-7.79 3.39-7.99 7.63h-4.36c-.19-4.24-3.7-7.63-7.99-7.63s-7.79 3.39-7.99 7.63H0V6.48h30.45zM22.77 9.87H5.41v10.89h17.36zM37.86 21 28.29 9.52v8.14c0 1.85 1.5 3.34 3.34 3.34zm-4.6 8.35c-.15-.2-.32-.39-.5-.56-.04-.04-.08-.07-.12-.1-.16-.14-.33-.28-.51-.4-.08-.05-.18-.09-.27-.14-.15-.08-.3-.17-.47-.24-.15-.06-.3-.1-.45-.14-.12-.03-.24-.08-.36-.11q-.42-.09-.87-.09h-.02q-.45 0-.87.09c-.12.02-.24.07-.36.11-.15.04-.31.08-.45.14-.16.07-.31.16-.47.24-.09.05-.18.09-.27.14-.18.12-.35.26-.52.4-.04.03-.08.06-.12.1-.18.17-.35.36-.5.56 0 .01-.02.02-.03.04-.56.75-.91 1.67-.91 2.68a4.5 4.5 0 0 0 9 0 4.4 4.4 0 0 0-.91-2.68c0-.01-.02-.02-.03-.04Z"/></symbol><symbol id="s48" viewBox="0 0 48 48"><path d="M16.03 37.74c.02.17.05.33.05.51 0 2.76-2.24 5-5 5s-5-2.24-5-5c0-.17.03-.34.05-.51.06-.63.24-1.22.52-1.76v-.01c.13-.26.28-.5.46-.73.02-.03.04-.05.06-.07.16-.2.33-.4.53-.58.05-.05.11-.09.17-.14.17-.14.34-.29.53-.41.1-.07.21-.12.32-.17.16-.09.32-.18.48-.25.17-.07.34-.11.52-.16.13-.04.25-.09.38-.11.31-.06.64-.1.97-.1s.66.04.97.1c.13.03.25.07.38.11.18.05.35.09.52.16s.32.16.48.25c.11.06.22.11.32.17.19.12.36.26.53.41l.17.14c.19.18.36.37.53.58.02.03.04.05.06.07.17.23.33.47.46.73v.01c.28.54.45 1.13.52 1.76Zm24.74 0c-.06-.63-.24-1.22-.52-1.76v-.01c-.13-.26-.28-.5-.46-.73-.02-.03-.04-.05-.06-.08-.16-.2-.33-.4-.52-.58-.05-.05-.11-.09-.17-.14-.17-.14-.34-.29-.53-.41-.1-.07-.21-.12-.32-.17-.16-.09-.32-.18-.48-.25-.17-.07-.34-.11-.52-.16-.13-.04-.25-.09-.38-.11-.31-.06-.64-.1-.97-.1s-.66.04-.97.1c-.13.03-.25.07-.38.11-.18.05-.35.09-.52.16s-.32.16-.48.25c-.11.06-.22.11-.32.17-.19.12-.36.26-.53.41l-.17.14c-.19.18-.36.37-.53.58-.02.03-.04.05-.06.07-.17.23-.33.47-.46.73v.01a5 5 0 0 0-.52 1.76c-.02.17-.05.33-.05.51 0 2.76 2.24 5 5 5s5-2.24 5-5c0-.17-.03-.34-.05-.51ZM23.8 16.1H11.78v4.31H23.8zm24.21 5.42v12.47c0 1.53-.92 2.84-2.24 3.42-.43-5.13-4.72-9.17-9.96-9.17s-9.71 4.22-9.97 9.49h-4.79c-.27-5.28-4.63-9.49-9.97-9.49s-9.7 4.22-9.97 9.5H.01V7.84h36.66zM28.3 11.6H7.28v13.31H28.3zm17.74 13.65L34.52 11.42v9.8c0 2.22 1.8 4.02 4.02 4.02h7.5Z"/></symbol><symbol id="s64" viewBox="0 0 64 64"><path d="M54.92 50.18c.02.22.03.44.03.67 0 3.87-3.14 7-7.01 7s-7.01-3.13-7.01-7c0-.4.04-.79.11-1.17 0-.05.01-.11.03-.17.03-.15.07-.3.11-.45.02-.07.03-.14.05-.21.04-.14.09-.27.14-.4.03-.08.05-.15.08-.23.05-.12.11-.25.17-.37.04-.08.07-.16.11-.23.06-.11.12-.23.19-.34.05-.08.09-.16.14-.23.07-.1.14-.21.21-.31l.17-.23c.07-.09.15-.19.23-.28.07-.07.13-.15.2-.22.08-.08.16-.17.25-.25.07-.07.15-.14.23-.21.09-.07.17-.15.26-.22.08-.07.17-.13.26-.19s.18-.13.27-.19.19-.12.29-.17c.09-.05.18-.11.28-.16s.21-.1.32-.15c.09-.04.19-.09.28-.13.11-.05.23-.09.35-.13.09-.03.19-.07.28-.1.13-.04.25-.07.38-.1.09-.02.18-.05.27-.07.15-.03.3-.05.45-.07.08-.01.15-.03.23-.03.23-.02.46-.03.7-.04.24 0 .47.01.7.04.08 0 .15.02.23.03.15.02.3.04.45.07l.27.06a4 4 0 0 1 .66.2c.12.04.23.08.35.13.09.04.19.08.28.13.11.05.21.1.32.15.09.05.18.1.28.16s.19.11.29.17c.09.06.18.12.27.19.09.06.17.13.26.19.09.07.17.14.26.22.08.07.16.14.23.21.08.08.17.16.24.24.07.07.14.15.2.22.08.09.15.18.23.27.06.08.12.15.17.23l.21.3c.05.08.1.16.14.24.06.11.13.22.19.33.04.08.08.16.11.24.06.12.11.24.16.36.03.08.06.15.09.23.05.13.1.26.14.4.02.07.04.14.06.22.04.14.08.29.11.44l.03.18c.03.16.05.33.07.5Zm-33.39-.68c-.03-.15-.07-.3-.11-.44-.02-.07-.03-.14-.05-.21-.04-.14-.09-.27-.14-.4-.03-.08-.05-.15-.08-.23-.05-.12-.11-.24-.16-.37-.04-.08-.07-.16-.11-.23-.06-.11-.12-.22-.19-.34-.05-.08-.09-.16-.14-.23l-.21-.3-.17-.23c-.07-.09-.15-.18-.23-.27-.07-.07-.13-.15-.2-.22-.08-.08-.16-.17-.25-.25-.07-.07-.15-.14-.23-.21s-.17-.15-.26-.22c-.08-.07-.17-.13-.26-.19s-.18-.13-.27-.19-.19-.12-.29-.17c-.09-.05-.18-.11-.28-.16s-.21-.1-.32-.15c-.09-.04-.19-.09-.28-.13-.11-.05-.23-.09-.35-.13-.09-.03-.19-.07-.28-.1-.13-.04-.25-.07-.38-.1-.09-.02-.18-.05-.27-.07-.15-.03-.3-.05-.45-.07-.08-.01-.15-.03-.23-.03-.23-.02-.46-.04-.7-.04s-.47.01-.7.04c-.08 0-.15.02-.23.03-.15.02-.3.04-.45.07l-.27.06c-.13.03-.26.06-.38.1-.1.03-.19.06-.28.1-.12.04-.23.08-.35.13-.09.04-.19.08-.28.13-.11.05-.21.1-.32.15-.09.05-.18.1-.28.16s-.19.11-.29.17c-.09.06-.18.12-.27.19-.09.06-.17.13-.26.19-.09.07-.17.14-.26.22-.08.07-.15.14-.23.21-.08.08-.17.16-.25.25-.07.07-.14.15-.2.22-.08.09-.16.18-.23.27-.06.08-.12.15-.17.23l-.21.3c-.05.08-.1.16-.14.23-.07.11-.13.22-.19.33-.04.08-.08.16-.11.24-.06.12-.11.24-.16.36-.03.08-.06.15-.08.23-.05.13-.1.26-.14.4-.02.07-.04.14-.05.21-.04.15-.08.29-.11.44l-.03.17c-.06.38-.11.77-.11 1.17 0 3.87 3.14 7 7.01 7s7.01-3.13 7.01-7c0-.4-.04-.79-.11-1.17 0-.06-.02-.12-.03-.17Zm10.76-28.13H15.06v6.84h17.22v-6.84Zm31.76 7.44v17c0 2.32-1.83 4.21-4.12 4.35-.36-6.29-5.59-11.31-11.99-11.31S36.3 43.88 35.95 50.18h-9.32c-.35-6.31-5.58-11.33-11.99-11.33S3 43.88 2.65 50.18H.05V10.63h48.9zM37.3 16.37H10.05v16.84h27.24V16.37Zm23.18 16.77L45.66 15.39v12.59c0 2.85 2.32 5.17 5.18 5.17h9.65Z"/></symbol><use style="display: var(--s16, none)" href="#s16"/><use style="display: var(--s24, none)" href="#s24"/><use style="display: var(--s32, none)" href="#s32"/><use style="display: var(--s40, none)" href="#s40"/><use style="display: var(--s48, none)" href="#s48"/><use style="display: var(--s64, none)" href="#s64"/></symbol></defs><style>@media (max-width: 23.98px) {g{--s16:block;}}@media (min-width: 24px) and (max-width: 31.98px) {g{--s24:block;}}@media (min-width: 32px) and (max-width: 39.98px) {g{--s32:block;}}@media (min-width: 40px) and (max-width: 47.98px) {g{--s40:block;}}@media (min-width: 48px) and (max-width: 63.98px) {g{--s48:block;}}@media (min-width: 64px) {g{--s64:block;}}</style><g><use href="#i-transporter-solid"/></g></svg>