<svg xmlns="http://www.w3.org/2000/svg"><defs><symbol id="i-trash"><symbol id="s16" viewBox="0 0 16 16"><path d="M8.75 12.08v-5a.749.749 0 1 1 1.5 0v5a.749.749 0 1 1-1.5 0M16 4.2c0 .41-.34.75-.75.75h-1.5v9.3c0 .96-.79 1.75-1.75 1.75H4c-.97 0-1.75-.79-1.75-1.75v-9.3H.75a.749.749 0 1 1 0-1.5h2.5v-1.7C3.25.79 4.03 0 5 0h6c.97 0 1.75.79 1.75 1.75v1.7h2.5c.41 0 .75.34.75.75M4.75 3.45h6.5v-1.7c0-.14-.11-.25-.25-.25H5c-.14 0-.25.11-.25.25zm7.5 1.5h-8.5v9.3c0 .14.11.25.25.25h8c.14 0 .25-.11.25-.25zm-5.74 7.88c.41 0 .75-.34.75-.75v-5c0-.41-.34-.75-.75-.75s-.75.34-.75.75v5c0 .41.34.75.75.75"/></symbol><symbol id="s24" viewBox="0 0 24 24"><path d="M13.13 18.51V9.5c0-.48.39-.88.87-.88s.88.39.88.88v9.01c0 .48-.39.88-.87.88s-.88-.39-.88-.88M24 5.49c0 .48-.39.88-.88.88h-2.26v15.76c0 1.04-.84 1.88-1.87 1.88H5c-1.03 0-1.87-.84-1.87-1.88V6.37H.88C.4 6.37 0 5.98 0 5.49s.39-.88.88-.88h4.24V1.88C5.12.84 5.96 0 6.99 0H17c1.03 0 1.88.84 1.88 1.88v2.74h4.25c.48 0 .88.39.88.88ZM6.87 4.62h10.26V1.88c0-.07-.06-.13-.13-.13H6.99c-.07 0-.13.06-.13.13v2.74Zm12.25 1.75H4.87v15.76c0 .07.06.13.12.13h13.99c.07 0 .12-.06.12-.13V6.37Zm-9.6 13.01c.48 0 .88-.39.88-.88V9.49c0-.48-.39-.88-.88-.88s-.88.39-.88.88v9.01c0 .48.39.88.88.88"/></symbol><symbol id="s32" viewBox="0 0 32 32"><path d="M17.99 25V12.49c0-.55.44-1 1-1s1 .45 1 1V25c0 .55-.44 1-1 1s-1-.45-1-1M32 7.14c0 .55-.45 1-1 1h-3.51v20.85c0 1.66-1.39 3-3.1 3H7.6c-1.71 0-3.1-1.35-3.1-3V8.14H1c-.55 0-1-.45-1-1s.45-1 1-1h5.99V2.99a3 3 0 0 1 3-2.99H22c1.65 0 3 1.35 3 3v3.15h6c.55 0 1 .45 1 1Zm-23.01-1H23V2.99c0-.55-.45-1-1-1H9.99c-.55 0-1 .45-1 1zm16.5 2H6.5v20.85c0 .54.5 1 1.1 1h16.79c.6 0 1.1-.46 1.1-1zM13.01 26c.55 0 1-.45 1-1V12.49c0-.55-.45-1-1-1s-1 .45-1 1V25c0 .55.45 1 1 1"/></symbol><symbol id="s40" viewBox="0 0 40 40"><path d="M25.38 32.51V14.5c0-.62.5-1.13 1.12-1.13s1.13.5 1.13 1.13v18.01c0 .62-.5 1.13-1.12 1.13s-1.13-.5-1.13-1.13M40 7.97c0 .62-.5 1.13-1.13 1.13h-4.26v27.79c0 1.72-1.47 3.13-3.28 3.13H8.66c-1.81 0-3.29-1.4-3.29-3.13V9.09H1.13C.51 9.09 0 8.59 0 7.97s.5-1.13 1.13-1.13h7.74V3.13A3.126 3.126 0 0 1 11.99 0H28c1.72 0 3.13 1.4 3.13 3.13v3.71h7.75c.62 0 1.13.5 1.13 1.13ZM11.11 6.84h17.76V3.13c0-.48-.39-.88-.88-.88h-16c-.48 0-.88.39-.88.88zm21.25 2.25H7.62v27.79c0 .48.46.88 1.03.88h22.67c.56 0 1.03-.4 1.03-.88V9.09ZM20.25 33.64c.62 0 1.13-.5 1.13-1.13V14.5a1.129 1.129 0 1 0-2.26 0v18.01c0 .62.51 1.13 1.13 1.13m-6.25 0c.62 0 1.13-.5 1.13-1.13V14.5a1.129 1.129 0 1 0-2.26 0v18.01c0 .62.51 1.13 1.13 1.13"/></symbol><symbol id="s48" viewBox="0 0 48 48"><path d="M30.7 38.52V17.49c0-.69.55-1.25 1.24-1.25s1.25.56 1.25 1.25v21.03c0 .69-.55 1.25-1.24 1.25s-1.25-.56-1.25-1.25M48.01 9.45c0 .69-.56 1.25-1.25 1.25h-5.02v33.54c0 2.07-1.8 3.75-4.01 3.75H10.25c-2.21 0-4-1.68-4-3.75V10.7H1.26C.57 10.7 0 10.14 0 9.45S.56 8.2 1.25 8.2h9.49V3.74A3.76 3.76 0 0 1 14.5 0h19.01c2.07 0 3.75 1.68 3.75 3.75V8.2h9.5c.69 0 1.25.56 1.25 1.25M13.25 8.2h21.51V3.74c0-.69-.56-1.25-1.25-1.25H14.5c-.69 0-1.25.56-1.25 1.25v4.45Zm25.99 2.5H8.76v33.54c0 .69.66 1.25 1.49 1.25h27.49c.83 0 1.5-.56 1.5-1.25zM24.5 39.77c.69 0 1.25-.56 1.25-1.25V17.49c0-.69-.57-1.25-1.26-1.25s-1.25.56-1.25 1.25v21.03c0 .69.57 1.25 1.26 1.25m-7.52 0c.69 0 1.25-.56 1.25-1.25V17.49c0-.69-.57-1.25-1.26-1.25s-1.25.56-1.25 1.25v21.03c0 .69.57 1.25 1.26 1.25"/></symbol><symbol id="s64" viewBox="0 0 64 64"><path d="M40.62 52.5v-30c0-.76.61-1.38 1.37-1.38s1.37.62 1.37 1.38v30c0 .76-.61 1.38-1.37 1.38s-1.37-.62-1.37-1.38M64 12.3c0 .76-.62 1.38-1.37 1.38h-8.26v46.2C54.36 62.15 52.45 64 50.1 64H13.89c-2.35 0-4.26-1.85-4.26-4.13v-46.2H1.38a1.374 1.374 0 1 1-.01-2.75h13.25v-6.8A4.14 4.14 0 0 1 18.75 0h26.51a4.13 4.13 0 0 1 4.12 4.13v6.8h13.24c.76 0 1.37.62 1.37 1.38Zm-46.62-1.38h29.26v-6.8c0-.76-.62-1.38-1.37-1.38H18.76c-.76 0-1.37.62-1.37 1.38v6.8Zm34.23 2.75H12.39v46.2c-.01.76.67 1.38 1.5 1.38h36.2c.83 0 1.51-.62 1.51-1.38v-46.2ZM31.99 53.88c.76 0 1.37-.62 1.37-1.38v-30a1.374 1.374 0 1 0-2.75 0v30c0 .76.62 1.38 1.38 1.38m-9.99 0c.76 0 1.37-.62 1.37-1.38v-30a1.374 1.374 0 1 0-2.75 0v30c0 .76.62 1.38 1.38 1.38"/></symbol><use style="display: var(--s16, none)" href="#s16"/><use style="display: var(--s24, none)" href="#s24"/><use style="display: var(--s32, none)" href="#s32"/><use style="display: var(--s40, none)" href="#s40"/><use style="display: var(--s48, none)" href="#s48"/><use style="display: var(--s64, none)" href="#s64"/></symbol></defs><style>@media (max-width: 23.98px) {g{--s16:block;}}@media (min-width: 24px) and (max-width: 31.98px) {g{--s24:block;}}@media (min-width: 32px) and (max-width: 39.98px) {g{--s32:block;}}@media (min-width: 40px) and (max-width: 47.98px) {g{--s40:block;}}@media (min-width: 48px) and (max-width: 63.98px) {g{--s48:block;}}@media (min-width: 64px) {g{--s64:block;}}</style><g><use href="#i-trash"/></g></svg>