<svg xmlns="http://www.w3.org/2000/svg"><defs><symbol id="i-trash-solid"><symbol id="s16" viewBox="0 0 16 16"><path d="M14.73 3.95h-2.5v-1.7C12.24 1.01 11.22 0 9.98 0H5.97C4.74 0 3.73 1.01 3.73 2.25v1.7h-2.5a1.25 1.25 0 0 0 0 2.5h1.24V15c0 .55.41 1 .92 1h9.17c.51 0 .92-.45.92-1V6.45h1.25a1.25 1.25 0 0 0 0-2.5m-8.42 9.61c-.41 0-.75-.34-.75-.75v-5a.749.749 0 1 1 1.5 0v5c0 .41-.33.75-.75.75m3.4 0c-.41 0-.75-.34-.75-.75v-5a.749.749 0 1 1 1.5 0v5c0 .41-.33.75-.75.75M6.23 2.5h3.51v1.45H6.23z"/></symbol><symbol id="s24" viewBox="0 0 24 24"><path d="M22.48 4.98h-3.99V2.49c0-1.38-1.13-2.51-2.51-2.51h-8c-1.38 0-2.51 1.13-2.51 2.51v2.49H1.48c-.83 0-1.5.68-1.5 1.51s.67 1.5 1.5 1.5h1.96v14.24c0 .97.83 1.75 1.86 1.75h13.29c1.03 0 1.86-.79 1.86-1.75V7.99h2.03c.83 0 1.5-.67 1.5-1.5s-.67-1.5-1.5-1.5ZM9.5 20.61c-.48 0-.88-.39-.88-.88v-9.02c0-.48.39-.88.87-.88s.88.39.88.88v9.02c0 .48-.39.88-.87.88m4.48 0c-.48 0-.88-.39-.88-.88v-9.02c0-.48.39-.88.87-.88s.88.39.88.88v9.02c0 .48-.39.88-.87.88M8.48 2.99h7.01v1.99H8.48z"/></symbol><symbol id="s32" viewBox="0 0 32 32"><path d="M30.23 6.4h-5V3.76c0-2.07-1.62-3.76-3.62-3.76H10.36C8.35 0 6.73 1.69 6.73 3.75v2.64h-5c-.97.01-1.75.79-1.75 1.76S.76 9.9 1.73 9.9h3.25v20.11c0 1.1.94 2 2.1 2h17.81c1.16 0 2.1-.9 2.1-2V9.9h3.25c.97 0 1.75-.78 1.75-1.75s-.78-1.75-1.75-1.75ZM13 27.2c-.55 0-1-.45-1-1V13.7c0-.55.44-1 1-1s1 .45 1 1v12.5c0 .55-.44 1-1 1m5.98 0c-.55 0-1-.45-1-1V13.7c0-.55.44-1 1-1s1 .45 1 1v12.5c0 .55-.44 1-1 1M10.23 3.75c0-.17.1-.25.12-.25H21.6s.12.08.12.25v2.64h-11.5V3.75Z"/></symbol><symbol id="s40" viewBox="0 0 40 40"><path d="M37.97 6.94h-6.99v-3c-.01-2.2-1.71-4-3.81-4H12.76c-2.1 0-3.8 1.79-3.8 4v3H1.97c-1.11 0-2 .89-2 2s.9 2 2 2h3.99v27.01c0 1.1 1 2 2.24 2h23.53c1.23 0 2.24-.9 2.24-2V10.94h4c1.11 0 2-.89 2-2s-.9-2-2-2m-24 27.13c-.62 0-1.13-.5-1.13-1.12V14.96c0-.62.5-1.12 1.12-1.12s1.13.5 1.13 1.12v17.99c0 .62-.5 1.12-1.12 1.12m6.25 0c-.62 0-1.13-.5-1.13-1.12V14.96c0-.62.5-1.12 1.12-1.12s1.13.5 1.13 1.12v17.99c0 .62-.5 1.12-1.12 1.12m6.26 0c-.62 0-1.13-.5-1.13-1.12V14.96c0-.62.5-1.12 1.12-1.12s1.13.5 1.13 1.12v17.99c0 .62-.5 1.12-1.12 1.12M12.98 3.94h13.99v3h-14v-3Z"/></symbol><symbol id="s48" viewBox="0 0 48 48"><path d="M45.74 8.19h-8.5V4.73c0-2.62-2.04-4.75-4.54-4.75H15.28c-2.5 0-4.54 2.13-4.54 4.76V8.2h-8.5C1 8.19-.01 9.2-.01 10.45S1 12.7 2.24 12.7h5.25v32.78c0 1.38 1.22 2.5 2.74 2.5h27.49c1.52 0 2.75-1.12 2.75-2.5V12.7h5.27c1.24 0 2.25-1.01 2.25-2.25S46.98 8.2 45.74 8.2ZM16.49 40.98c-.69 0-1.25-.56-1.25-1.25V18.71c0-.69.55-1.25 1.24-1.25s1.25.56 1.25 1.25v21.02c0 .69-.55 1.25-1.24 1.25m7.53 0c-.69 0-1.25-.56-1.25-1.25V18.71c0-.69.55-1.25 1.24-1.25s1.25.56 1.25 1.25v21.02c0 .69-.55 1.25-1.24 1.25m7.45 0c-.69 0-1.25-.56-1.25-1.25V18.71c0-.69.55-1.25 1.24-1.25s1.25.56 1.25 1.25v21.02c0 .69-.55 1.25-1.24 1.25M15.24 4.74c0-.16.08-.25.04-.25h17.36s.1.08.1.25V8.2h-17.5z"/></symbol><symbol id="s64" viewBox="0 0 64 64"><path d="M61.49 11.79h-11.5V6.51c0-3.59-2.86-6.51-6.37-6.51H20.36c-3.51 0-6.37 2.92-6.37 6.51v5.28H2.49a2.5 2.5 0 0 0 0 5h7.5V60c-.01 2.21 1.78 4 3.99 4h35.99c2.21 0 4-1.79 4-4V16.79h7.52a2.5 2.5 0 0 0 0-5M21.98 55.53c-.76 0-1.38-.62-1.38-1.38V24.14a1.374 1.374 0 1 1 2.75 0v30.01c0 .76-.61 1.38-1.37 1.38m9.99 0c-.76 0-1.38-.62-1.38-1.38V24.14a1.374 1.374 0 1 1 2.75 0v30.01c0 .76-.61 1.38-1.37 1.38m10.01 0c-.76 0-1.38-.62-1.38-1.38V24.14a1.374 1.374 0 1 1 2.75 0v30.01c0 .76-.61 1.38-1.37 1.38M18.99 6.51c0-.83.62-1.5 1.37-1.5h23.26c.76 0 1.37.67 1.37 1.5v5.28h-26z"/></symbol><use style="display: var(--s16, none)" href="#s16"/><use style="display: var(--s24, none)" href="#s24"/><use style="display: var(--s32, none)" href="#s32"/><use style="display: var(--s40, none)" href="#s40"/><use style="display: var(--s48, none)" href="#s48"/><use style="display: var(--s64, none)" href="#s64"/></symbol></defs><style>@media (max-width: 23.98px) {g{--s16:block;}}@media (min-width: 24px) and (max-width: 31.98px) {g{--s24:block;}}@media (min-width: 32px) and (max-width: 39.98px) {g{--s32:block;}}@media (min-width: 40px) and (max-width: 47.98px) {g{--s40:block;}}@media (min-width: 48px) and (max-width: 63.98px) {g{--s48:block;}}@media (min-width: 64px) {g{--s64:block;}}</style><g><use href="#i-trash-solid"/></g></svg>