<svg xmlns="http://www.w3.org/2000/svg"><defs><symbol id="i-tweezer-solid"><symbol id="s16" viewBox="0 0 16 16"><path d="M15.57.45C15-.13 14.12-.2 13.44.3L5.61 6.38c-.51-.92-1.48-1.56-2.6-1.56C1.37 4.82.04 6.16.04 7.81s1.34 2.99 2.98 2.99c.77 0 1.46-.3 1.99-.78s1.28-.99 1.28-.99l.69.69L5.99 11c-.47.53-.76 1.22-.76 1.98 0 1.65 1.34 2.99 2.98 2.99s2.98-1.34 2.98-2.99c0-1.12-.63-2.09-1.55-2.6l6.06-7.81c.49-.65.43-1.54-.14-2.12ZM3.01 8.29c-.26 0-.48-.21-.48-.48s.21-.48.48-.48.48.21.48.48-.21.48-.48.48m5.28-.81 1.08-.84-.84 1.08zm-.08 5.98c-.26 0-.48-.21-.48-.48s.21-.48.48-.48.48.21.48.48-.21.48-.48.48"/></symbol><symbol id="s24" viewBox="0 0 24 24"><path d="M23.43.61c-.73-.74-1.86-.82-2.72-.19l-12.6 9.8a4.19 4.19 0 0 0-3.89-2.65c-2.31 0-4.19 1.88-4.19 4.2s1.88 4.2 4.19 4.2c1.1 0 2.09-.43 2.83-1.12s3.22-2.5 3.22-2.5l1.43 1.43-2.5 3.23c-.67.75-1.09 1.72-1.09 2.8 0 2.31 1.88 4.2 4.19 4.2s4.19-1.88 4.19-4.2c0-1.77-1.1-3.28-2.66-3.9l9.77-12.6c.63-.83.55-1.96-.17-2.7M4.22 12.96c-.66 0-1.19-.54-1.19-1.19s.53-1.19 1.19-1.19 1.19.53 1.19 1.19-.53 1.19-1.19 1.19m8.09 8.03c-.66 0-1.19-.54-1.19-1.19s.53-1.19 1.19-1.19 1.19.53 1.19 1.19-.53 1.19-1.19 1.19m1.24-9.61-.89-.89 3.98-3.1z"/></symbol><symbol id="s32" viewBox="0 0 32 32"><path d="M31.28.76c-.89-.9-2.27-1-3.31-.23L10.56 14.07a5.41 5.41 0 0 0-5.15-3.78C2.43 10.3 0 12.72 0 15.7s2.42 5.41 5.4 5.41c1.43 0 2.73-.56 3.7-1.48l4.55-3.54 2.3 2.3-3.54 4.58A5.4 5.4 0 0 0 11 26.6c0 2.98 2.42 5.41 5.4 5.41s5.4-2.42 5.4-5.41c0-2.42-1.59-4.47-3.78-5.16l13.47-17.4c.76-1.01.67-2.39-.21-3.29ZM5.41 17.61c-1.05 0-1.91-.86-1.91-1.91s.86-1.91 1.91-1.91 1.91.86 1.91 1.91-.86 1.91-1.91 1.91m10.98 10.9c-1.05 0-1.91-.86-1.91-1.91s.86-1.91 1.91-1.91 1.91.86 1.91 1.91-.86 1.91-1.91 1.91m1.72-12.9-1.67-1.68 7.49-5.82-5.81 7.5Z"/></symbol><symbol id="s40" viewBox="0 0 40 40"><path d="M39.14.84C38.09-.22 36.46-.34 35.23.57L13 17.86c-.75-2.83-3.33-4.92-6.38-4.92C2.97 12.95 0 15.92 0 19.57s2.97 6.62 6.62 6.62c1.75 0 3.35-.69 4.53-1.81l5.89-4.59 3.16 3.16-4.59 5.92a6.63 6.63 0 0 0-1.74 4.46c0 3.65 2.97 6.62 6.62 6.62s6.61-2.97 6.61-6.62c0-3.07-2.1-5.64-4.93-6.39L39.39 4.72c.9-1.19.79-2.82-.25-3.88M6.62 22.18c-1.44 0-2.61-1.17-2.61-2.61s1.17-2.62 2.61-2.62 2.61 1.17 2.61 2.62-1.17 2.61-2.61 2.61M23.1 33.33c0 1.44-1.17 2.62-2.61 2.62s-2.61-1.17-2.61-2.62 1.17-2.61 2.61-2.61 2.61 1.17 2.61 2.61m-.43-13.57-2.44-2.45 10.93-8.5-8.48 10.95Z"/></symbol><symbol id="s48" viewBox="0 0 48 48"><path d="M47 1.06C45.79-.16 43.92-.31 42.5.75L15.44 21.81c-.8-3.47-3.91-6.06-7.62-6.06-4.31 0-7.82 3.51-7.82 7.83s3.51 7.83 7.83 7.83c2.08 0 3.98-.83 5.38-2.16l7.23-5.63 4.02 4.03-5.64 7.28a7.8 7.8 0 0 0-2.06 5.27c0 4.32 3.51 7.83 7.83 7.83s7.83-3.51 7.83-7.83c0-3.72-2.6-6.83-6.08-7.63L47.29 5.53c1.04-1.37.92-3.25-.29-4.47M7.82 26.91a3.329 3.329 0 1 1 0-6.66c1.84 0 3.33 1.49 3.33 3.33s-1.49 3.33-3.33 3.33m20.09 13.3c0 1.84-1.49 3.33-3.33 3.33s-3.33-1.49-3.33-3.33 1.49-3.33 3.33-3.33 3.33 1.49 3.33 3.33m-.67-16.14-3.22-3.23L38.44 9.62 27.25 24.06Z"/></symbol><symbol id="s64" viewBox="0 0 64 64"><path d="M62.82 1.21C61.38-.25 59.14-.42 57.45.83L20.02 29.96c-.69-4.89-4.88-8.67-9.95-8.67C4.52 21.29 0 25.81 0 31.36s4.51 10.07 10.06 10.07c2.69 0 5.13-1.07 6.94-2.8l10.21-7.95 6.15 6.15L25.4 47.1c-1.65 1.8-2.67 4.18-2.67 6.81 0 5.55 4.51 10.07 10.06 10.07s10.06-4.52 10.06-10.07c0-5.08-3.79-9.29-8.68-9.97l29-37.39a4.06 4.06 0 0 0-.35-5.34M10.07 36.43c-2.79 0-5.06-2.27-5.06-5.07s2.27-5.07 5.06-5.07 5.06 2.27 5.06 5.07-2.27 5.07-5.06 5.07m27.8 17.49c0 2.79-2.27 5.07-5.06 5.07s-5.06-2.27-5.06-5.07 2.27-5.07 5.06-5.07 5.06 2.27 5.06 5.07m-1.41-21.06L31.2 27.6 54.7 9.31 36.45 32.86Z"/></symbol><use style="display: var(--s16, none)" href="#s16"/><use style="display: var(--s24, none)" href="#s24"/><use style="display: var(--s32, none)" href="#s32"/><use style="display: var(--s40, none)" href="#s40"/><use style="display: var(--s48, none)" href="#s48"/><use style="display: var(--s64, none)" href="#s64"/></symbol></defs><style>@media (max-width: 23.98px) {g{--s16:block;}}@media (min-width: 24px) and (max-width: 31.98px) {g{--s24:block;}}@media (min-width: 32px) and (max-width: 39.98px) {g{--s32:block;}}@media (min-width: 40px) and (max-width: 47.98px) {g{--s40:block;}}@media (min-width: 48px) and (max-width: 63.98px) {g{--s48:block;}}@media (min-width: 64px) {g{--s64:block;}}</style><g><use href="#i-tweezer-solid"/></g></svg>