<svg xmlns="http://www.w3.org/2000/svg"><defs><symbol id="i-tweezer"><symbol id="s16" viewBox="0 0 16 16"><path d="M15.68.34c-.4-.41-1.03-.46-1.5-.11L5.15 7.24c-.27-1.16-1.3-2.03-2.53-2.03C1.18 5.21 0 6.38 0 7.83s1.17 2.61 2.6 2.61c.69 0 1.31-.27 1.78-.71s2.43-1.88 2.43-1.88L8.15 9.2l-1.88 2.43c-.42.47-.69 1.08-.69 1.76 0 1.44 1.17 2.62 2.6 2.62s2.6-1.17 2.6-2.62c0-1.24-.86-2.27-2.02-2.54l7.01-9.02c.34-.46.3-1.08-.1-1.49ZM2.61 8.94c-.61 0-1.11-.5-1.11-1.11S2 6.72 2.61 6.72s1.11.5 1.11 1.11-.5 1.11-1.11 1.11m6.69 4.44c0 .61-.5 1.11-1.11 1.11s-1.11-.5-1.11-1.11.5-1.11 1.11-1.11 1.11.5 1.11 1.11M9.08 8 8.01 6.92l4.81-3.74-3.74 4.81Z"/></symbol><symbol id="s24" viewBox="0 0 24 24"><path d="M23.58.45c-.52-.53-1.33-.59-1.94-.14L7.42 11.38c-.2-1.87-1.77-3.34-3.69-3.34C1.68 8.04 0 9.71 0 11.77s1.67 3.73 3.73 3.73c1 0 1.9-.4 2.57-1.04s3.91-3.04 3.91-3.04l2.4 2.41-3.04 3.92c-.61.67-1 1.55-1 2.53a3.73 3.73 0 0 0 7.46 0c0-1.93-1.47-3.5-3.34-3.69L23.7 2.37c.45-.59.4-1.4-.12-1.92M3.73 13.75c-1.09 0-1.98-.89-1.98-1.98s.89-1.98 1.98-1.98 1.98.89 1.98 1.98-.89 1.98-1.98 1.98m10.55 6.53c0 1.09-.89 1.98-1.98 1.98s-1.98-.89-1.98-1.98.89-1.98 1.98-1.98 1.98.89 1.98 1.98m-.59-7.84-2.09-2.1 9.36-7.28-7.26 9.37Z"/></symbol><symbol id="s32" viewBox="0 0 32 32"><path d="M31.45.55c-.65-.65-1.61-.73-2.37-.17L9.65 15.5c-.1-2.58-2.22-4.66-4.82-4.66s-4.85 2.17-4.85 4.84 2.17 4.85 4.84 4.85c1.3 0 2.48-.52 3.35-1.36s5.39-4.19 5.39-4.19l3.46 3.47-4.19 5.41c-.8.87-1.31 2.02-1.31 3.3 0 2.67 2.17 4.85 4.84 4.85s4.84-2.18 4.84-4.85-2.08-4.74-4.67-4.83L31.6 2.9c.56-.73.49-1.7-.16-2.36ZM4.83 18.53c-1.57 0-2.85-1.28-2.85-2.85s1.28-2.85 2.85-2.85 2.85 1.28 2.85 2.85-1.28 2.85-2.85 2.85m14.4 8.62c0 1.57-1.28 2.85-2.85 2.85s-2.85-1.28-2.85-2.85 1.28-2.85 2.85-2.85 2.85 1.28 2.85 2.85m-.96-10.29-3.11-3.11 13.9-10.82z"/></symbol><symbol id="s40" viewBox="0 0 40 40"><path d="M39.38.65c-.77-.78-1.91-.86-2.81-.2L11.93 19.63v-.02c0-3.29-2.67-5.97-5.96-5.97S0 16.32 0 19.61s2.67 5.97 5.96 5.97c1.61 0 3.07-.65 4.15-1.69l6.87-5.34 4.52 4.53-5.35 6.9a5.97 5.97 0 0 0-1.61 4.07c0 3.29 2.67 5.97 5.96 5.97s5.96-2.68 5.96-5.97-2.67-5.97-5.96-5.97h-.04l19.1-24.63c.66-.87.58-2.02-.18-2.79ZM5.97 23.33c-2.05 0-3.71-1.67-3.71-3.72s1.67-3.72 3.71-3.72 3.71 1.67 3.71 3.72-1.67 3.72-3.71 3.72m18.26 10.71c0 2.05-1.67 3.72-3.71 3.72s-3.71-1.67-3.71-3.72 1.67-3.72 3.71-3.72 3.71 1.67 3.71 3.72M22.9 21.28l-4.12-4.13L37.21 2.81 22.9 21.29Z"/></symbol><symbol id="s48" viewBox="0 0 48 48"><path d="M47.27.75c-.89-.9-2.21-1-3.25-.23L14.14 23.77c0-.08.01-.16.01-.25 0-3.91-3.18-7.09-7.08-7.09S0 19.62 0 23.52s3.18 7.09 7.08 7.09c1.91 0 3.65-.77 4.92-2s8.35-6.52 8.35-6.52l5.6 5.6-6.5 8.39a7.06 7.06 0 0 0-1.92 4.84c0 3.91 3.18 7.09 7.08 7.09s7.08-3.18 7.08-7.09-3.18-7.09-7.08-7.09c-.09 0-.18.01-.27.01L47.47 3.98c.76-1 .68-2.33-.21-3.23ZM7.07 28.11c-2.53 0-4.58-2.06-4.58-4.59s2.06-4.59 4.58-4.59 4.58 2.06 4.58 4.59-2.06 4.59-4.58 4.59m22.12 12.81c0 2.53-2.06 4.59-4.58 4.59s-4.58-2.06-4.58-4.59 2.06-4.59 4.58-4.59 4.58 2.06 4.58 4.59m-1.7-15.22-5.16-5.16L45.49 2.46 27.48 25.7Z"/></symbol><symbol id="s64" viewBox="0 0 64 64"><path d="M63.12.88c-1.08-1.09-2.7-1.22-3.96-.29L18.4 32.3c.03-.33.05-.65.05-.99 0-5.09-4.14-9.23-9.22-9.23S.01 26.23.01 31.32s4.14 9.23 9.22 9.23c2.51 0 4.78-1.01 6.44-2.64l11.46-8.92 7.9 7.91-8.92 11.51a9.2 9.2 0 0 0-2.52 6.32c0 5.09 4.14 9.23 9.22 9.23s9.22-4.14 9.22-9.23-4.14-9.23-9.22-9.23q-.51 0-1.02.06L63.38 4.83c.93-1.23.82-2.85-.26-3.94ZM9.24 37.8c-3.57 0-6.47-2.91-6.47-6.48s2.9-6.48 6.47-6.48 6.47 2.91 6.47 6.48-2.9 6.48-6.47 6.48m30.07 16.94c0 3.57-2.9 6.48-6.47 6.48s-6.47-2.91-6.47-6.48 2.9-6.48 6.47-6.48 6.47 2.91 6.47 6.48M61.2 3.15 36.75 34.71l-7.41-7.42 31.48-24.5c.07-.05.18-.14.34.03.16.16.07.28.03.33Z"/></symbol><use style="display: var(--s16, none)" href="#s16"/><use style="display: var(--s24, none)" href="#s24"/><use style="display: var(--s32, none)" href="#s32"/><use style="display: var(--s40, none)" href="#s40"/><use style="display: var(--s48, none)" href="#s48"/><use style="display: var(--s64, none)" href="#s64"/></symbol></defs><style>@media (max-width: 23.98px) {g{--s16:block;}}@media (min-width: 24px) and (max-width: 31.98px) {g{--s24:block;}}@media (min-width: 32px) and (max-width: 39.98px) {g{--s32:block;}}@media (min-width: 40px) and (max-width: 47.98px) {g{--s40:block;}}@media (min-width: 48px) and (max-width: 63.98px) {g{--s48:block;}}@media (min-width: 64px) {g{--s64:block;}}</style><g><use href="#i-tweezer"/></g></svg>