<svg xmlns="http://www.w3.org/2000/svg"><defs><symbol id="i-twitterx-solid"><symbol id="s16" viewBox="0 0 16 16"><path d="m5.47 3.78 6.05 8.02h-.94L4.47 3.78h1.01ZM16.01.02v16H0v-16h16Zm-2.48 12.79L9.18 7.05l3.7-4.24h-1.69L8.4 6.01l-2.41-3.2H2.5l4.17 5.47-3.95 4.53h1.69l3.05-3.5 2.67 3.5z"/></symbol><symbol id="s24" viewBox="0 0 24 24"><path d="m8.2 5.64 9.08 12.03h-1.41L6.7 5.64h1.51ZM24.01 0v24H0V0h24Zm-3.73 19.2-6.52-8.65L19.3 4.2h-2.54l-4.18 4.79L8.96 4.2H3.73l6.26 8.2-5.93 6.8H6.6l4.58-5.24 4 5.24h5.11Z"/></symbol><symbol id="s32" viewBox="0 0 32 32"><path d="M0 .03v32h32v-32zm20.23 25.59-5.33-6.99-6.1 6.99H5.41l7.91-9.06L4.97 5.62h6.98l4.82 6.39 5.58-6.39h3.38l-7.39 8.47 8.7 11.53zM10.94 7.55 23.05 23.6h-1.88L8.93 7.55z"/></symbol><symbol id="s40" viewBox="0 0 40 40"><path d="M13.67 9.37 28.8 29.43h-2.34L11.16 9.37zM40.01-.02v40H0v-40h40ZM33.8 31.97 22.93 17.56l9.24-10.59h-4.23l-6.97 7.99-6.03-7.99H6.22l10.43 13.67-9.88 11.33H11l7.63-8.74 6.67 8.74h8.51Z"/></symbol><symbol id="s48" viewBox="0 0 48 48"><path d="m16.4 11.22 18.16 24.07h-2.81L13.38 11.22zM48.01-.05v48H0v-48h48Zm-7.45 38.38L27.51 21.04 38.6 8.33h-5.08l-8.36 9.58-7.23-9.58H7.46l12.51 16.41L8.11 38.33h5.08l9.16-10.49 8 10.49z"/></symbol><symbol id="s64" viewBox="0 0 64 64"><path d="m21.87 15.03 24.21 32.09h-3.75L17.84 15.03h4.02ZM64.01 0v64H0V0h64Zm-9.93 51.19-17.4-23.06 14.79-16.94H44.7L33.55 23.97l-9.64-12.78H9.94l16.69 21.88-15.81 18.12h6.77L29.8 37.2l10.67 13.99h13.62Z"/></symbol><use style="display: var(--s16, none)" href="#s16"/><use style="display: var(--s24, none)" href="#s24"/><use style="display: var(--s32, none)" href="#s32"/><use style="display: var(--s40, none)" href="#s40"/><use style="display: var(--s48, none)" href="#s48"/><use style="display: var(--s64, none)" href="#s64"/></symbol></defs><style>@media (max-width: 23.98px) {g{--s16:block;}}@media (min-width: 24px) and (max-width: 31.98px) {g{--s24:block;}}@media (min-width: 32px) and (max-width: 39.98px) {g{--s32:block;}}@media (min-width: 40px) and (max-width: 47.98px) {g{--s40:block;}}@media (min-width: 48px) and (max-width: 63.98px) {g{--s48:block;}}@media (min-width: 64px) {g{--s64:block;}}</style><g><use href="#i-twitterx-solid"/></g></svg>