<svg xmlns="http://www.w3.org/2000/svg"><defs><symbol id="i-uploadautomated-solid"><symbol id="s16" viewBox="0 0 16 16"><path d="m7.39 6.34-.78-.2-1.72 2.98V4.78h-.01c-.49.5-1.28.5-1.77.01s-.49-1.28 0-1.77L6.14 0l3.03 3.03c.49.49.49 1.28 0 1.77-.24.24-.56.37-.88.37s-.64-.12-.88-.37H7.4v1.54Zm-4.88 3.72V5.8H0v4.81c0 1.07.87 1.95 1.95 1.95h2.88L6.35 11l-.92-.94H2.5Zm12.2 1.49 1.3 1.33-.72 1.25-1.81-.46c-.28.23-.6.42-.94.55l-.5 1.79H10.6l-.5-1.79c-.35-.13-.66-.32-.94-.55l-1.81.46-.72-1.25 1.3-1.33c-.03-.18-.06-.36-.06-.55s.03-.37.06-.55l-1.3-1.33.72-1.25 1.81.46c.28-.23.6-.42.94-.55l.5-1.79h1.44l.5 1.79c.35.13.66.32.94.55l1.81-.46.72 1.25-1.3 1.33c.03.18.06.36.06.55s-.03.37-.06.55M12.94 11c0-.9-.73-1.62-1.63-1.62s-1.63.73-1.63 1.62.73 1.62 1.63 1.62 1.63-.73 1.63-1.62"/></symbol><symbol id="s24" viewBox="0 0 24 24"><path d="M4.63 6.47a1.49 1.49 0 0 1 0-2.12L8.98 0l4.35 4.35c.59.58.59 1.54 0 2.12-.29.29-.68.44-1.06.44s-.77-.15-1.06-.44l-.73-.73v3.93l-.63-.16-2.31 4h-.07V5.74l-.73.73c-.59.59-1.53.59-2.12 0Zm5.13 9.86v-.21l-.83-.85H3V8.32H0v7.38a2.57 2.57 0 0 0 2.57 2.57h5.5l1.69-1.74v-.21Zm12.25.83L24 19.2l-1.11 1.92-2.77-.71c-.43.35-.91.64-1.44.84l-.77 2.74H15.7l-.77-2.74c-.53-.2-1.01-.49-1.44-.84l-2.77.71-1.11-1.92 1.99-2.04c-.04-.27-.08-.55-.08-.84s.04-.56.08-.84l-1.99-2.04 1.11-1.92 2.77.71c.43-.35.91-.64 1.44-.84l.77-2.74h2.21l.77 2.74c.53.2 1.01.49 1.44.84l2.77-.71L24 13.44l-1.99 2.04c.04.27.08.55.08.84s-.04.56-.08.84m-2.59-.83c0-1.45-1.17-2.62-2.62-2.62s-2.62 1.18-2.62 2.62 1.17 2.62 2.62 2.62 2.62-1.18 2.62-2.62"/></symbol><symbol id="s32" viewBox="0 0 32 32"><path d="M6.17 8.15a1.75 1.75 0 0 1 0-2.47L11.85 0l5.68 5.68c.68.68.68 1.79 0 2.47-.34.34-.79.51-1.24.51s-.9-.17-1.24-.51L13.6 6.7V13l-.5-.13-2.87 4.97h-.13V6.7L8.65 8.15c-.68.68-1.79.68-2.47 0Zm6.98 13.5c0-.14 0-.28.01-.42l-.73-.75H3.5v-9.65H0v9.96c0 1.76 1.43 3.19 3.19 3.19h8.1l1.87-1.92c0-.13-.01-.27-.01-.42Zm16.16 1.13L32 25.53l-1.49 2.58-3.74-.95c-.58.47-1.23.87-1.95 1.14L23.78 32H20.8l-1.04-3.7c-.72-.27-1.36-.66-1.95-1.14l-3.74.95-1.49-2.58 2.69-2.75c-.06-.37-.11-.74-.11-1.13s.05-.76.11-1.13l-2.69-2.75 1.49-2.58 3.74.95c.58-.47 1.23-.87 1.95-1.14l1.04-3.7h2.98l1.04 3.7c.72.27 1.36.66 1.95 1.14l3.74-.95L32 17.77l-2.69 2.75c.06.37.11.74.11 1.13s-.05.76-.11 1.13m-3.4-1.13c0-2-1.62-3.62-3.62-3.62s-3.62 1.62-3.62 3.62 1.62 3.62 3.62 3.62 3.62-1.62 3.62-3.62"/></symbol><symbol id="s40" viewBox="0 0 40 40"><path d="M7.9 10.01c-.78-.78-.78-2.05 0-2.83L15.07.01l7.16 7.17a2.004 2.004 0 0 1-1.41 3.42c-.51 0-1.02-.2-1.41-.59l-2.33-2.34v8.31l-1.38-.35-2.62 4.54V7.67l-2.34 2.34c-.78.78-2.05.78-2.83 0Zm8.03 16.6v-.18H3.99V13.67H0v12.89a3.88 3.88 0 0 0 3.87 3.87h9.03l3.07-3.15c-.02-.22-.03-.44-.03-.67Zm20.59 1.46L40 31.64l-1.93 3.35-4.84-1.23c-.76.62-1.59 1.12-2.52 1.47l-1.35 4.79H25.5l-1.35-4.79c-.93-.35-1.77-.86-2.52-1.47l-4.84 1.23-1.93-3.35 3.48-3.57c-.08-.48-.15-.96-.15-1.46s.07-.98.15-1.46l-3.48-3.57 1.93-3.35 4.84 1.23c.76-.61 1.59-1.12 2.52-1.47l1.35-4.79h3.86l1.35 4.79c.93.35 1.77.86 2.52 1.47l4.84-1.23L40 21.58l-3.48 3.57c.08.48.15.96.15 1.46s-.07.98-.15 1.46m-4.44-1.46c0-2.57-2.09-4.66-4.66-4.66s-4.66 2.09-4.66 4.66 2.09 4.66 4.66 4.66 4.66-2.09 4.66-4.66"/></symbol><symbol id="s48" viewBox="0 0 48 48"><path d="M9.17 11.48c-.88-.88-.88-2.3 0-3.18L17.44.01l8.28 8.28c.88.88.88 2.3 0 3.18-.44.44-1.01.66-1.59.66s-1.15-.22-1.59-.66L19.7 8.62v11.34l-3.67 6.37h-.82V8.63l-2.84 2.85c-.88.88-2.3.88-3.18 0Zm10.97 20.94c0-.28.01-.56.04-.82l-.88-.9H4.5V15.78H0v15c0 2.44 1.98 4.42 4.42 4.42h13.85l1.91-1.96c-.02-.26-.04-.54-.04-.82m23.81 1.7 4.04 4.15-2.25 3.89-5.63-1.43c-.88.72-1.85 1.3-2.93 1.71l-1.57 5.57h-4.49l-1.57-5.57c-1.08-.41-2.05-1-2.93-1.71l-5.63 1.43-2.25-3.89 4.04-4.15c-.09-.56-.17-1.12-.17-1.7s.08-1.14.17-1.7l-4.04-4.15 2.25-3.89 5.63 1.43c.88-.72 1.85-1.3 2.93-1.71l1.57-5.57h4.49l1.57 5.57c1.08.41 2.05 1 2.93 1.71l5.63-1.43 2.25 3.89-4.04 4.15c.09.56.17 1.12.17 1.7s-.08 1.14-.17 1.7m-5.07-1.7c0-3.04-2.46-5.5-5.5-5.5s-5.5 2.46-5.5 5.5 2.46 5.5 5.5 5.5 5.5-2.46 5.5-5.5"/></symbol><symbol id="s64" viewBox="0 0 64 64"><path d="M12.24 14.34c-.98-.98-.98-2.56 0-3.54L23.04 0l10.8 10.8a2.499 2.499 0 0 1-1.77 4.27c-.64 0-1.28-.24-1.77-.73l-4.76-4.76v18.2l-4.04 7h-.96V9.57l-4.76 4.76c-.98.98-2.56.98-3.54 0Zm14.83 29.95c-.04-.43-.07-.88-.07-1.34s.03-.91.07-1.34l-.39-.4H5.44c-.24 0-.43-.19-.43-.43V20.53H0v20.25c0 3 2.44 5.43 5.43 5.43h19.75l1.88-1.93Zm31.47.96 5.46 5.6-3.03 5.26-7.6-1.94a14.3 14.3 0 0 1-3.96 2.31L47.3 64h-6.07l-2.11-7.52c-1.46-.55-2.77-1.35-3.96-2.31l-7.6 1.94-3.03-5.26 5.46-5.6c-.12-.75-.23-1.51-.23-2.3s.11-1.54.23-2.3l-5.46-5.6 3.03-5.26 7.6 1.94c1.19-.97 2.5-1.76 3.96-2.31l2.11-7.52h6.07l2.11 7.52c1.46.55 2.77 1.35 3.96 2.31l7.6-1.94L64 35.05l-5.46 5.6c.12.75.23 1.51.23 2.3s-.11 1.54-.23 2.3m-6.78-2.3c0-4.14-3.36-7.5-7.5-7.5s-7.5 3.36-7.5 7.5 3.36 7.5 7.5 7.5 7.5-3.36 7.5-7.5"/></symbol><use style="display: var(--s16, none)" href="#s16"/><use style="display: var(--s24, none)" href="#s24"/><use style="display: var(--s32, none)" href="#s32"/><use style="display: var(--s40, none)" href="#s40"/><use style="display: var(--s48, none)" href="#s48"/><use style="display: var(--s64, none)" href="#s64"/></symbol></defs><style>@media (max-width: 23.98px) {g{--s16:block;}}@media (min-width: 24px) and (max-width: 31.98px) {g{--s24:block;}}@media (min-width: 32px) and (max-width: 39.98px) {g{--s32:block;}}@media (min-width: 40px) and (max-width: 47.98px) {g{--s40:block;}}@media (min-width: 48px) and (max-width: 63.98px) {g{--s48:block;}}@media (min-width: 64px) {g{--s64:block;}}</style><g><use href="#i-uploadautomated-solid"/></g></svg>