<svg xmlns="http://www.w3.org/2000/svg"><defs><symbol id="i-uploadautomated"><symbol id="s16" viewBox="0 0 16 16"><path d="M2.95 3.74a.754.754 0 0 1 0-1.06L5.63 0l2.68 2.68c.29.29.29.77 0 1.06-.15.15-.34.22-.53.22s-.38-.07-.53-.22l-.87-.87v2.68l-.72-.18-.78 1.36V2.88l-.87.87c-.29.29-.77.29-1.06 0ZM5.08 9.9l-3.58.02V5.1H0v4.82c0 .8.65 1.45 1.45 1.45H4.3l1.11-1.14-.32-.33Zm9.48.62L16 12l-1.29 2.24-2.01-.51c-.15.1-.31.2-.48.28l-.56 2H9.08l-.56-2c-.16-.08-.32-.17-.47-.28l-2.01.51L4.75 12l1.44-1.48c0-.09-.01-.19-.01-.28s0-.19.01-.28L4.75 8.48l1.29-2.24 2.01.51c.15-.1.31-.2.47-.28l.56-2h2.58l.56 2c.16.08.32.17.47.28l2.01-.51 1.29 2.24-1.44 1.48c0 .09.01.19.01.28s0 .19-.01.28Zm-1.6-1.08 1.17-1.2-.15-.27-1.62.41-.29-.24c-.23-.19-.48-.33-.73-.43l-.35-.14-.45-1.61h-.31l-.45 1.61-.35.14c-.26.1-.5.24-.74.43l-.29.24-1.62-.41-.15.27 1.17 1.2-.06.37c-.02.14-.05.28-.05.43s.02.29.05.43l.06.37-1.17 1.2.15.27 1.62-.41.29.24c.24.19.48.34.74.43l.35.13.45 1.61h.31l.45-1.61.35-.13c.25-.1.5-.24.73-.43l.29-.24 1.62.41.15-.27-1.17-1.2.06-.37c.02-.14.05-.28.05-.43s-.02-.29-.05-.43zm-2.59-.71c-.83 0-1.5.67-1.5 1.5s.67 1.5 1.5 1.5 1.5-.67 1.5-1.5-.67-1.5-1.5-1.5"/></symbol><symbol id="s24" viewBox="0 0 24 24"><path d="M4.46 5.15a.88.88 0 0 1 0-1.24L8.38 0l3.92 3.92a.881.881 0 0 1-.62 1.5c-.22 0-.45-.09-.62-.26l-1.8-1.8v5.39l-.5-.13-1.25 2.17V3.35l-1.8 1.8c-.34.34-.9.34-1.24 0Zm4.2 10.49v-.42l-.19-.2H1.96c-.11 0-.19-.09-.19-.2V7.43H0v7.39c0 1.07.87 1.95 1.95 1.95h5.6l1.11-1.14Zm13.19.33 2.16 2.21-1.77 3.07-3.01-.77c-.29.21-.6.38-.91.53l-.84 2.98h-3.54l-.84-2.98c-.31-.15-.62-.33-.91-.53l-3.01.77-1.77-3.07 2.16-2.21a5 5 0 0 1 0-1.07l-2.16-2.21 1.77-3.07 3.01.77c.29-.21.6-.38.91-.53l.84-2.98h3.54l.84 2.98c.31.15.61.33.91.53l3.01-.77 1.77 3.07-2.16 2.21a4.6 4.6 0 0 1 0 1.07m-1.86-1.67 1.84-1.88-.44-.77-2.56.65-.34-.28a4.4 4.4 0 0 0-1.21-.71l-.41-.16-.71-2.53h-.89l-.71 2.53-.41.16c-.42.16-.83.4-1.2.71l-.34.28-2.56-.65-.44.77 1.84 1.88-.07.44c-.04.23-.07.46-.07.7s.04.47.07.7l.07.44-1.84 1.89.44.77 2.56-.65.34.28c.38.31.78.54 1.21.71l.41.16.71 2.53h.89l.71-2.53.41-.16c.42-.16.83-.4 1.21-.71l.34-.28 2.56.65.44-.77L20 16.58l.07-.44c.04-.23.07-.46.07-.7s-.04-.47-.07-.7L20 14.3Zm-1.15 1.13c0 1.72-1.4 3.13-3.13 3.13s-3.13-1.4-3.13-3.13 1.4-3.13 3.13-3.13 3.13 1.4 3.13 3.13m-1.75 0c0-.76-.62-1.38-1.38-1.38s-1.38.62-1.38 1.38.62 1.38 1.38 1.38 1.38-.62 1.38-1.38"/></symbol><symbol id="s32" viewBox="0 0 32 32"><path d="M5.96 6.56c-.39-.39-.39-1.02 0-1.42L11.12 0l5.16 5.15c.39.39.39 1.02 0 1.42-.2.2-.45.29-.71.29s-.51-.1-.71-.29l-2.74-2.74v8.1l-.32-.08-1.69 2.92V3.82L7.37 6.56c-.39.39-1.03.39-1.42 0Zm5.91 14.49c0-.14-.01-.28-.01-.42s0-.28.01-.42l-.02-.02H2.44c-.24 0-.44-.2-.44-.44V9.78H0v9.97c0 1.35 1.1 2.44 2.45 2.44h8.31zm17.24.36 2.88 2.95-2.25 3.9-4.01-1.02c-.43.31-.88.57-1.34.78l-1.12 3.97h-4.51l-1.12-3.97c-.46-.21-.91-.48-1.34-.78l-4.01 1.02-2.25-3.9 2.88-2.95c-.03-.25-.05-.51-.05-.79s.02-.53.05-.79l-2.88-2.95 2.25-3.9L16.3 14c.43-.31.88-.57 1.34-.78l1.12-3.97h4.51l1.12 3.97c.46.21.91.48 1.34.78l4.01-1.02 2.25 3.9-2.88 2.95c.03.25.05.51.05.79s-.02.53-.05.79m-2.13.69.08-.5c.05-.35.1-.66.1-.97s-.05-.63-.1-.97l-.08-.5 2.51-2.57-.74-1.27-3.5.89-.39-.32c-.52-.43-1.09-.76-1.68-.98l-.47-.18-.97-3.46h-1.47l-.97 3.46-.47.18c-.59.22-1.15.55-1.68.98l-.39.32-3.5-.89-.74 1.27 2.51 2.57-.08.5c-.05.33-.1.66-.1.97s.05.64.1.97l.08.5-2.51 2.57.74 1.27 3.5-.89.39.32c.53.43 1.09.76 1.68.98l.47.18.97 3.46h1.47l.97-3.46.47-.18c.58-.22 1.15-.55 1.68-.98l.39-.32 3.5.89.74-1.27zm-1.71-1.47c0 2.35-1.91 4.25-4.26 4.25s-4.26-1.91-4.26-4.25 1.91-4.25 4.26-4.25 4.26 1.91 4.26 4.25m-2 0c0-1.24-1.01-2.25-2.25-2.25s-2.25 1.01-2.25 2.25 1.01 2.25 2.25 2.25 2.25-1.01 2.25-2.25"/></symbol><symbol id="s40" viewBox="0 0 40 40"><path d="M7.4 7.94c-.44-.44-.44-1.15 0-1.59L13.75 0l6.35 6.35a1.123 1.123 0 0 1-.8 1.92c-.29 0-.58-.11-.8-.33l-3.63-3.63v11.3l-2.25 3.9V4.3L8.99 7.93c-.44.44-1.15.44-1.59 0Zm7.9 18.6c-.02-.2-.02-.4-.02-.62s0-.42.02-.62l-.14-.14H2.93a.68.68 0 0 1-.68-.68V12.03H0v12.45c0 1.62 1.31 2.93 2.93 2.93h11.52l.85-.88Zm21.13.41 3.56 3.65-2.72 4.71-4.97-1.27c-.56.41-1.15.75-1.75 1.02l-1.38 4.92h-5.44l-1.38-4.92c-.61-.28-1.19-.62-1.75-1.02l-4.97 1.27-2.72-4.71 3.57-3.65c-.04-.33-.07-.67-.07-1.03s.03-.7.07-1.03l-3.57-3.65 2.72-4.71 4.97 1.27c.56-.41 1.15-.75 1.75-1.03l1.38-4.92h5.44l1.38 4.92c.61.27 1.19.62 1.75 1.03l4.97-1.27 2.72 4.71-3.56 3.65c.04.33.07.67.07 1.03s-.03.7-.07 1.03m-2.39.77.09-.56c.07-.42.13-.83.13-1.23s-.06-.82-.13-1.23l-.09-.56 3.16-3.24-1.01-1.76-4.4 1.12-.44-.36c-.67-.54-1.39-.96-2.13-1.24l-.53-.2-1.22-4.35h-2.03l-1.22 4.35-.53.2c-.74.28-1.46.7-2.13 1.24l-.44.36-4.4-1.12-1.01 1.76 3.16 3.24-.09.56c-.07.42-.13.83-.13 1.23s.06.81.13 1.23l.09.56-3.16 3.24 1.01 1.76 4.4-1.12.44.36c.67.54 1.38.96 2.13 1.24l.53.2 1.22 4.35h2.03l1.22-4.35.53-.2c.74-.28 1.46-.7 2.13-1.24l.44-.36 4.4 1.12 1.01-1.76zm-2.21-1.79c0 2.96-2.41 5.38-5.38 5.38s-5.38-2.41-5.38-5.38 2.41-5.38 5.38-5.38 5.38 2.41 5.38 5.38m-2.25 0c0-1.72-1.4-3.13-3.13-3.13s-3.13 1.4-3.13 3.13 1.4 3.13 3.13 3.13 3.13-1.4 3.13-3.13"/></symbol><symbol id="s48" viewBox="0 0 48 48"><path d="M8.88 9.33a1.25 1.25 0 0 1 0-1.77l7.58-7.57 7.58 7.58c.49.49.49 1.28 0 1.77a1.257 1.257 0 0 1-1.78 0L17.7 4.78V19.3l-2.5 4.33V4.78l-4.56 4.56c-.49.49-1.28.49-1.77 0Zm9.67 22.63c-.02-.26-.04-.54-.04-.82s.01-.56.04-.82l-.04-.05H3.41c-.51 0-.92-.41-.92-.92v-15H-.02v15c0 1.89 1.54 3.42 3.43 3.42h14.35zm25.16.45 4.28 4.38-3.2 5.54-5.96-1.52c-.69.51-1.42.94-2.18 1.27l-1.66 5.9h-6.4l-1.66-5.9c-.75-.34-1.48-.76-2.18-1.27l-5.96 1.52-3.2-5.54 4.28-4.38c-.05-.41-.09-.83-.09-1.27s.04-.86.09-1.27l-4.28-4.38 3.2-5.54 5.97 1.52c.69-.51 1.42-.94 2.18-1.27l1.66-5.9H35l1.66 5.9c.76.34 1.48.76 2.18 1.27l5.97-1.52 3.2 5.54-4.28 4.38c.05.41.09.83.09 1.27s-.04.86-.09 1.27Zm-2.67.86.1-.62c.08-.51.16-1.01.16-1.5s-.07-.99-.16-1.51l-.1-.62 3.83-3.92-1.3-2.25-5.33 1.35-.49-.4a9.7 9.7 0 0 0-2.59-1.52l-.59-.22-1.48-5.26h-2.6l-1.48 5.26-.59.22c-.91.35-1.78.86-2.59 1.52l-.49.4-5.33-1.35-1.3 2.25 3.83 3.92-.1.62c-.08.51-.16 1.02-.16 1.51s.07.99.16 1.5l.1.62-3.83 3.92 1.3 2.25 5.33-1.36.49.4A9.5 9.5 0 0 0 28.42 40l.59.22 1.48 5.26h2.6l1.48-5.26.59-.22a9.5 9.5 0 0 0 2.59-1.52l.49-.4 5.33 1.36 1.3-2.25zm-2.88-2.13c0 3.51-2.86 6.37-6.38 6.37s-6.38-2.86-6.38-6.37 2.86-6.37 6.38-6.37 6.38 2.86 6.38 6.37m-2.5 0c0-2.13-1.74-3.87-3.87-3.87s-3.87 1.74-3.87 3.87 1.74 3.87 3.87 3.87 3.87-1.74 3.87-3.87"/></symbol><symbol id="s64" viewBox="0 0 64 64"><path d="M11.84 11.96c-.54-.54-.54-1.41 0-1.94l10-10 10 9.99c.54.54.54 1.41 0 1.94-.27.27-.62.4-.97.4s-.7-.13-.97-.4l-6.68-6.68v22.17l-2.75 4.76V5.28l-6.68 6.68c-.54.54-1.41.54-1.94 0Zm13.47 31c-.04-.43-.07-.88-.07-1.34 0-.31.03-.6.05-.9H4.25c-.86 0-1.56-.7-1.56-1.56V18.93H-.06v20.23c0 2.37 1.93 4.3 4.31 4.3h20.56l.5-.51Zm32.93.49 5.71 5.85-4.07 7.05-7.95-2.03c-.99.74-2.04 1.36-3.13 1.83l-2.21 7.87h-8.15l-2.21-7.87c-1.09-.48-2.14-1.09-3.13-1.83l-7.95 2.03-4.07-7.05 5.71-5.85c-.08-.59-.14-1.19-.14-1.82s.06-1.23.14-1.82l-5.71-5.85 4.07-7.05 7.95 2.03c.99-.74 2.04-1.36 3.13-1.83l2.21-7.87h8.15l2.21 7.87c1.09.48 2.14 1.09 3.13 1.83l7.95-2.03 4.07 7.05-5.71 5.85c.08.58.14 1.19.14 1.83s-.06 1.24-.14 1.83Zm-2.93.93.11-.68c.11-.7.21-1.39.21-2.08s-.1-1.38-.21-2.08l-.11-.68 5.22-5.34-1.99-3.45-7.26 1.85-.54-.44c-1.12-.91-2.33-1.62-3.58-2.09l-.65-.25-2.02-7.17h-3.98l-2.02 7.17-.65.25c-1.25.48-2.46 1.18-3.58 2.09l-.54.44-7.26-1.85-1.99 3.45 5.21 5.34-.11.68c-.11.71-.21 1.4-.21 2.08s.1 1.37.21 2.08l.11.68-5.21 5.34 1.99 3.45 7.26-1.85.54.44c1.12.91 2.32 1.61 3.58 2.09l.65.25 2.02 7.17h3.98l2.02-7.17.65-.25a13 13 0 0 0 3.58-2.09l.54-.44 7.26 1.85 1.99-3.45zm-3.94-2.76c0 4.89-3.98 8.87-8.87 8.87s-8.87-3.98-8.87-8.87 3.98-8.87 8.87-8.87 8.87 3.98 8.87 8.87m-2.75 0c0-3.37-2.75-6.12-6.12-6.12s-6.12 2.75-6.12 6.12 2.75 6.12 6.12 6.12 6.12-2.75 6.12-6.12"/></symbol><use style="display: var(--s16, none)" href="#s16"/><use style="display: var(--s24, none)" href="#s24"/><use style="display: var(--s32, none)" href="#s32"/><use style="display: var(--s40, none)" href="#s40"/><use style="display: var(--s48, none)" href="#s48"/><use style="display: var(--s64, none)" href="#s64"/></symbol></defs><style>@media (max-width: 23.98px) {g{--s16:block;}}@media (min-width: 24px) and (max-width: 31.98px) {g{--s24:block;}}@media (min-width: 32px) and (max-width: 39.98px) {g{--s32:block;}}@media (min-width: 40px) and (max-width: 47.98px) {g{--s40:block;}}@media (min-width: 48px) and (max-width: 63.98px) {g{--s48:block;}}@media (min-width: 64px) {g{--s64:block;}}</style><g><use href="#i-uploadautomated"/></g></svg>