<svg xmlns="http://www.w3.org/2000/svg"><defs><symbol id="i-usersmultiple-solid"><symbol id="s16" viewBox="0 0 16 16"><path d="M1.63 1.91a1.91 1.91 0 1 1 3.82 0 1.91 1.91 0 0 1-3.82 0m5.48 4.48a2.1 2.1 0 0 0-2.1-2.1h-2.9C.94 4.29 0 5.23 0 6.39v.92h7.11zm5.32-2.57a1.91 1.91 0 1 0 0-3.82 1.91 1.91 0 0 0 0 3.82m1.47.47H11a2.1 2.1 0 0 0-2.1 2.1v.92h7.11v-.92a2.1 2.1 0 0 0-2.1-2.1ZM6.07 10.6c0 1.05.86 1.91 1.91 1.91s1.91-.86 1.91-1.91-.86-1.91-1.91-1.91-1.91.86-1.91 1.91m3.38 2.37h-2.9c-1.16 0-2.1.94-2.1 2.11V16h7.11v-.92c0-1.16-.94-2.11-2.1-2.11Zm-4.5-1.86h-.96c-.41 0-.75-.34-.75-.75v-1.8h-1.5v1.8c0 1.24 1.01 2.25 2.25 2.25h.96zm7.82-.75c0 .41-.34.75-.75.75h-.96v1.5h.96c1.24 0 2.25-1.01 2.25-2.25v-1.8h-1.5z"/></symbol><symbol id="s24" viewBox="0 0 24 24"><path d="M2.5 2.66C2.5 1.2 3.69 0 5.16 0s2.66 1.19 2.66 2.65S6.63 5.3 5.16 5.3 2.5 4.11 2.5 2.65Zm6.1 8.28h1.75V9.52c0-1.63-1.32-2.95-2.95-2.95H2.95C1.32 6.57 0 7.9 0 9.52v1.42zm10.2-5.62c1.47 0 2.66-1.19 2.66-2.65S20.27 0 18.8 0s-2.66 1.19-2.66 2.65S17.33 5.3 18.8 5.3Zm2.24 1.25h-4.45c-1.63 0-2.95 1.32-2.95 2.95v1.42h10.35V9.52c0-1.63-1.33-2.95-2.95-2.95M9.32 15.73c0 1.46 1.19 2.65 2.66 2.65s2.66-1.19 2.66-2.65-1.19-2.65-2.66-2.65-2.66 1.19-2.66 2.65m4.9 3.91H9.77c-1.63 0-2.95 1.32-2.95 2.95v1.42h10.36v-1.42c0-1.63-1.33-2.95-2.95-2.95ZM7.7 16.79H6.22c-.79 0-1.42-.64-1.42-1.42v-2.75H3.05v2.75a3.18 3.18 0 0 0 3.18 3.17h1.48v-1.75Zm11.51-1.43c0 .78-.64 1.42-1.42 1.42h-1.48v1.75h1.48a3.18 3.18 0 0 0 3.18-3.17v-2.75h-1.75v2.75Z"/></symbol><symbol id="s32" viewBox="0 0 32 32"><path d="M3.37 3.4C3.37 1.53 4.9 0 6.77 0s3.4 1.52 3.4 3.4-1.53 3.4-3.4 3.4-3.4-1.52-3.4-3.4M13.6 14.58v-2.91c0-2.1-1.7-3.8-3.8-3.8h-6c-2.1 0-3.8 1.7-3.8 3.8v2.91zM25.17 6.8c1.88 0 3.4-1.52 3.4-3.4S27.04 0 25.17 0s-3.4 1.52-3.4 3.4 1.53 3.4 3.4 3.4m3.03 1.07h-6c-2.1 0-3.8 1.7-3.8 3.8v2.91H32v-2.91c0-2.1-1.7-3.8-3.8-3.8M12.57 20.82c0 1.87 1.53 3.4 3.4 3.4s3.4-1.52 3.4-3.4-1.53-3.4-3.4-3.4-3.4 1.52-3.4 3.4M19 25.29h-6c-2.1 0-3.8 1.7-3.8 3.8V32h13.6v-2.91c0-2.1-1.7-3.8-3.8-3.8m-8.8-2.86H8.21c-1.16 0-2.11-.94-2.11-2.1v-3.71h-2v3.71c0 2.26 1.84 4.1 4.1 4.1h1.99v-2Zm15.7-2.11c0 1.16-.94 2.1-2.11 2.1H21.8v2h1.99c2.26 0 4.1-1.84 4.1-4.1v-3.71h-2v3.71Z"/></symbol><symbol id="s40" viewBox="0 0 40 40"><path d="M4.24 4.15a4.144 4.144 0 1 1 8.29 0c0 2.29-1.86 4.15-4.14 4.15S4.24 6.44 4.24 4.15m12.61 14.03v-3.67c0-2.57-2.09-4.65-4.65-4.65H4.65C2.08 9.85 0 11.94 0 14.51v3.67zM31.54 8.3c2.29 0 4.14-1.86 4.14-4.15S33.82 0 31.54 0s-4.15 1.86-4.15 4.15 1.86 4.15 4.15 4.15m3.81 1.55H27.8a4.66 4.66 0 0 0-4.65 4.65v3.67H40V14.5c0-2.57-2.09-4.65-4.65-4.65M19.96 30.12c2.29 0 4.14-1.86 4.14-4.15s-1.86-4.15-4.14-4.15-4.15 1.86-4.15 4.15 1.86 4.15 4.15 4.15m3.81 1.55h-7.55a4.66 4.66 0 0 0-4.65 4.65v3.67h16.85v-3.67c0-2.57-2.09-4.65-4.65-4.65M12.7 28.2h-2.51c-1.53 0-2.78-1.25-2.78-2.79v-4.68H5.16v4.68c0 2.78 2.26 5.04 5.03 5.04h2.51zm19.89-2.78c0 1.54-1.25 2.79-2.78 2.79H27.3v2.25h2.51c2.77 0 5.03-2.26 5.03-5.04v-4.68h-2.25z"/></symbol><symbol id="s48" viewBox="0 0 48 48"><path d="M5.11 4.9C5.11 2.2 7.31 0 10 0s4.89 2.2 4.89 4.9S12.7 9.79 10 9.79 5.11 7.59 5.11 4.9m14.98 16.91v-4.42c0-3.04-2.47-5.5-5.5-5.5H5.5C2.46 11.88 0 14.35 0 17.38v4.42h20.1ZM37.91 9.8c2.7 0 4.89-2.2 4.89-4.89S40.61 0 37.91 0s-4.89 2.2-4.89 4.9 2.19 4.89 4.89 4.89Zm4.59 2.08h-9.1a5.51 5.51 0 0 0-5.5 5.5v4.42h20.09v-4.42c0-3.04-2.47-5.5-5.5-5.5ZM23.96 36.09c2.7 0 4.89-2.2 4.89-4.9s-2.19-4.89-4.89-4.89-4.89 2.2-4.89 4.89 2.19 4.9 4.89 4.9m4.59 2.08h-9.1a5.51 5.51 0 0 0-5.5 5.5V48h20.1v-4.33c0-3.04-2.47-5.5-5.5-5.5M15.2 33.99h-3.02c-1.91 0-3.46-1.55-3.46-3.46v-5.64h-2.5v5.64c0 3.29 2.67 5.96 5.96 5.96h3.02zm24.09-3.46c0 1.91-1.55 3.46-3.46 3.46h-3.02v2.5h3.02c3.29 0 5.96-2.67 5.96-5.96v-5.64h-2.5z"/></symbol><symbol id="s64" viewBox="0 0 64 64"><path d="M6.9 6.28C6.9 2.82 9.71 0 13.18 0s6.28 2.81 6.28 6.27-2.82 6.27-6.28 6.27S6.9 9.73 6.9 6.27Zm19.55 22.71v-5.94c0-3.91-3.18-7.09-7.1-7.09H7.11c-3.91-.01-7.1 3.17-7.1 7.08v5.94h26.44Zm24.29-16.44c3.46 0 6.28-2.81 6.28-6.27S54.2 0 50.74 0s-6.28 2.81-6.28 6.27 2.82 6.27 6.28 6.27Zm6.18 3.4H44.67c-3.91 0-7.1 3.18-7.1 7.09v5.94h26.44v-5.94c0-3.91-3.18-7.09-7.1-7.09ZM31.96 47.69c3.46 0 6.28-2.81 6.28-6.27s-2.82-6.27-6.28-6.27-6.28 2.81-6.28 6.27 2.82 6.27 6.28 6.27m6.18 3.4H25.89c-3.91 0-7.1 3.18-7.1 7.09V64h26.44v-5.82c0-3.91-3.18-7.09-7.1-7.09Zm-17.97-5.42H16.1a4.96 4.96 0 0 1-4.96-4.96v-7.58H8.39v7.58c0 4.25 3.46 7.71 7.71 7.71h4.07zm32.73-4.96c0 2.73-2.23 4.96-4.96 4.96h-4.07v2.75h4.07c4.25 0 7.71-3.46 7.71-7.71v-7.58H52.9z"/></symbol><use style="display: var(--s16, none)" href="#s16"/><use style="display: var(--s24, none)" href="#s24"/><use style="display: var(--s32, none)" href="#s32"/><use style="display: var(--s40, none)" href="#s40"/><use style="display: var(--s48, none)" href="#s48"/><use style="display: var(--s64, none)" href="#s64"/></symbol></defs><style>@media (max-width: 23.98px) {g{--s16:block;}}@media (min-width: 24px) and (max-width: 31.98px) {g{--s24:block;}}@media (min-width: 32px) and (max-width: 39.98px) {g{--s32:block;}}@media (min-width: 40px) and (max-width: 47.98px) {g{--s40:block;}}@media (min-width: 48px) and (max-width: 63.98px) {g{--s48:block;}}@media (min-width: 64px) {g{--s64:block;}}</style><g><use href="#i-usersmultiple-solid"/></g></svg>