<svg xmlns="http://www.w3.org/2000/svg"><defs><symbol id="i-webpage"><symbol id="s16" viewBox="0 0 16 16"><path d="M13.75 0H2.25C1.01 0 0 1.01 0 2.25V16h16V2.25C16 1.01 14.99 0 13.75 0M2.25 1.5h11.5c.41 0 .75.34.75.75v2.5h-13v-2.5c0-.41.34-.75.75-.75m-.75 13V6.25h13v8.25zm.75-11.36c0-.49.4-.89.89-.89s.89.4.89.89-.4.89-.89.89-.89-.4-.89-.89m2.5 0c0-.49.4-.89.89-.89s.89.4.89.89-.4.89-.89.89-.89-.4-.89-.89m-.86 7.31 7.16-3.31-3.31 7.16-.07-3.78z"/></symbol><symbol id="s24" viewBox="0 0 24 24"><path d="M21.62 0H2.38C1.07 0 0 1.07 0 2.38V24h24V2.38C24 1.07 22.93 0 21.62 0M2.38 1.75h19.25c.34 0 .63.28.63.63v3.49H1.75V2.38c0-.35.28-.63.63-.63m9.24 20.5L17.8 8.87 4.17 15.18l7.2.13.12 6.94H1.75V7.62h20.5v14.63zm.21-8.69 2.38-1.1-1.1 2.38-.02-1.26zM3.12 3.71c0-.6.49-1.09 1.09-1.09s1.09.49 1.09 1.09S4.81 4.8 4.21 4.8s-1.09-.49-1.09-1.09m3.25 0c0-.6.49-1.09 1.09-1.09s1.09.49 1.09 1.09S8.06 4.8 7.46 4.8s-1.09-.49-1.09-1.09"/></symbol><symbol id="s32" viewBox="0 0 32 32"><path d="M29.5 0h-27A2.5 2.5 0 0 0 0 2.5V32h32V2.5A2.5 2.5 0 0 0 29.5 0m-27 2h27c.28 0 .5.22.5.5v4.51H2V2.5c0-.28.22-.5.5-.5M2 30V9.01h28V30zM3.5 4.47a1.291 1.291 0 0 1 2.58 0 1.291 1.291 0 0 1-2.58 0m3.5 0a1.291 1.291 0 0 1 2.58 0 1.291 1.291 0 0 1-2.58 0m8.36 14.95.17 9.73 8.52-18.41-18.43 8.51zm2.02.98-.05-2.94-2.94-.05 5.57-2.57-2.58 5.57Z"/></symbol><symbol id="s40" viewBox="0 0 40 40"><path d="M37.37-.02H2.63C1.18-.02 0 1.16 0 2.6v37.38h40V2.6c0-1.45-1.18-2.62-2.63-2.62M2.63 2.23h34.75c.21 0 .38.17.38.37v6.28H2.25V2.6c0-.21.17-.37.38-.37m-.38 35.5v-26.6h35.5v26.6zM4.5 5.58c0-.82.67-1.48 1.48-1.48s1.48.66 1.48 1.48-.67 1.48-1.48 1.48S4.5 6.4 4.5 5.58m4.37 0c0-.82.67-1.48 1.48-1.48s1.48.66 1.48 1.48-.67 1.48-1.48 1.48-1.48-.66-1.48-1.48m10.48 19.14.22 12.27 10.74-23.22L7.07 24.5zm2.29 2.42-.08-4.63-4.63-.08 8.77-4.05z"/></symbol><symbol id="s48" viewBox="0 0 48 48"><path d="M45.25 0H2.75C1.23 0 0 1.24 0 2.75V48h48V2.75C48 1.24 46.77 0 45.25 0M2.75 2.5h42.5c.14 0 .25.11.25.25v7.5h-43v-7.5c0-.14.11-.25.25-.25m-.25 43V12.75h43V45.5zM5.49 6.18c0-.93.75-1.68 1.68-1.68s1.68.75 1.68 1.68-.75 1.68-1.68 1.68-1.68-.75-1.68-1.68m4.75 0c0-.93.75-1.68 1.68-1.68s1.68.75 1.68 1.68-.75 1.68-1.68 1.68-1.68-.75-1.68-1.68M23.28 29.3l.24 13.76 12.04-26.04L9.52 29.06zm2.55 2.81-.09-5.27-5.27-.09 9.97-4.61z"/></symbol><symbol id="s64" viewBox="0 0 64 64"><path d="M61.12 0H2.88C1.29 0 0 1.29 0 2.87v61.12h64V2.87C64 1.29 62.71 0 61.12 0M2.88 2.75h58.25c.07 0 .13.06.13.13v9.79H2.75v-9.8c0-.07.06-.13.13-.13Zm-.13 58.5V15.41h58.5v45.84zM5.62 7.94c0-1.07.87-1.95 1.95-1.95s1.95.87 1.95 1.95-.87 1.95-1.95 1.95-1.95-.87-1.95-1.95m5.5 0c0-1.07.87-1.95 1.95-1.95s1.95.87 1.95 1.95-.87 1.95-1.95 1.95-1.95-.87-1.95-1.95m20.21 29.81.31 17.35 15.19-32.84-32.85 15.18zm2.84 5.31-.14-8.01-8.01-.14 15.17-7.01-7.01 15.16Z"/></symbol><use style="display: var(--s16, none)" href="#s16"/><use style="display: var(--s24, none)" href="#s24"/><use style="display: var(--s32, none)" href="#s32"/><use style="display: var(--s40, none)" href="#s40"/><use style="display: var(--s48, none)" href="#s48"/><use style="display: var(--s64, none)" href="#s64"/></symbol></defs><style>@media (max-width: 23.98px) {g{--s16:block;}}@media (min-width: 24px) and (max-width: 31.98px) {g{--s24:block;}}@media (min-width: 32px) and (max-width: 39.98px) {g{--s32:block;}}@media (min-width: 40px) and (max-width: 47.98px) {g{--s40:block;}}@media (min-width: 48px) and (max-width: 63.98px) {g{--s48:block;}}@media (min-width: 64px) {g{--s64:block;}}</style><g><use href="#i-webpage"/></g></svg>