<svg xmlns="http://www.w3.org/2000/svg"><defs><symbol id="i-webpage-solid"><symbol id="s16" viewBox="0 0 16 16"><path d="M16 4.75v-2.5C16 1.01 14.99 0 13.75 0H2.25C1.01 0 0 1.01 0 2.25v2.5zM5.35 1.89c.49 0 .89.4.89.89s-.4.89-.89.89-.89-.4-.89-.89.4-.89.89-.89m-2.5 0c.49 0 .89.4.89.89s-.4.89-.89.89-.89-.4-.89-.89.4-.89.89-.89M0 6.25V16h16V6.25zm7.91 7.82-.06-3.17-3.17-.06 6-2.77z"/></symbol><symbol id="s24" viewBox="0 0 24 24"><path d="M24 5.87V2.38C24 1.07 22.93 0 21.62 0H2.37C1.06 0 0 1.07 0 2.38v3.49zM6.46 2.11c.6 0 1.09.49 1.09 1.09s-.49 1.09-1.09 1.09S5.37 3.8 5.37 3.2s.49-1.09 1.09-1.09m-3.25 0c.6 0 1.09.49 1.09 1.09s-.49 1.09-1.09 1.09S2.12 3.8 2.12 3.2s.49-1.09 1.09-1.09M0 7.62V24h24V7.62zm12.37 13.15-.09-5.29-5.29-.09 10-4.63z"/></symbol><symbol id="s32" viewBox="0 0 32 32"><path d="M32 7.01V2.5A2.5 2.5 0 0 0 29.5 0h-27A2.5 2.5 0 0 0 0 2.5v4.51zM7.78 2.68c.71 0 1.29.58 1.29 1.28a1.291 1.291 0 0 1-2.58 0c0-.7.58-1.28 1.29-1.28m-3.5 0c.71 0 1.29.58 1.29 1.28a1.291 1.291 0 0 1-2.58 0c0-.7.58-1.28 1.29-1.28M0 9.01V32h32V9.01zm16.6 18.74-.15-8.44L8 19.16l16-7.39z"/></symbol><symbol id="s40" viewBox="0 0 40 40"><path d="M40 8.83V2.55c0-1.45-1.18-2.62-2.63-2.62H2.62A2.61 2.61 0 0 0 0 2.55v6.28zM9.85 3.54c.82 0 1.48.66 1.48 1.48S10.66 6.5 9.85 6.5s-1.48-.66-1.48-1.48.67-1.48 1.48-1.48m-4.37 0c.82 0 1.48.66 1.48 1.48S6.29 6.5 5.48 6.5 4 5.84 4 5.02s.67-1.48 1.48-1.48M0 11.08v28.85h40V11.08zM20.25 35.2l-.19-10.56-10.57-.19 20.01-9.24z"/></symbol><symbol id="s48" viewBox="0 0 48 48"><path d="M48 10.25v-7.5C48 1.23 46.76 0 45.25 0H2.75C1.23 0 0 1.23 0 2.75v7.5zM10.92 3.99c.93 0 1.68.75 1.68 1.68s-.75 1.68-1.68 1.68-1.68-.75-1.68-1.68.75-1.68 1.68-1.68m-4.75 0c.93 0 1.68.75 1.68 1.68S7.1 7.35 6.17 7.35 4.49 6.6 4.49 5.67s.75-1.68 1.68-1.68M0 12.75V48h48V12.75zm24.9 29.76-.23-12.68-12.68-.23L36 18.5z"/></symbol><symbol id="s64" viewBox="0 0 64 64"><path d="M0 15.41V64h64V15.41zm33.2 40.5L32.9 39l-16.91-.3L48 23.91zM64 12.66V2.87C64 1.29 62.71 0 61.12 0H2.87C1.29 0 0 1.29 0 2.87v9.79zM12.56 5.49c1.07 0 1.95.87 1.95 1.95s-.87 1.95-1.95 1.95-1.95-.87-1.95-1.95.87-1.95 1.95-1.95m-5.5 0c1.07 0 1.95.87 1.95 1.95s-.87 1.95-1.95 1.95-1.95-.87-1.95-1.95.87-1.95 1.95-1.95"/></symbol><use style="display: var(--s16, none)" href="#s16"/><use style="display: var(--s24, none)" href="#s24"/><use style="display: var(--s32, none)" href="#s32"/><use style="display: var(--s40, none)" href="#s40"/><use style="display: var(--s48, none)" href="#s48"/><use style="display: var(--s64, none)" href="#s64"/></symbol></defs><style>@media (max-width: 23.98px) {g{--s16:block;}}@media (min-width: 24px) and (max-width: 31.98px) {g{--s24:block;}}@media (min-width: 32px) and (max-width: 39.98px) {g{--s32:block;}}@media (min-width: 40px) and (max-width: 47.98px) {g{--s40:block;}}@media (min-width: 48px) and (max-width: 63.98px) {g{--s48:block;}}@media (min-width: 64px) {g{--s64:block;}}</style><g><use href="#i-webpage-solid"/></g></svg>