<svg xmlns="http://www.w3.org/2000/svg"><defs><symbol id="i-whatsapp-solid"><symbol id="s16" viewBox="0 0 16 16"><path d="M8.15 3.51c-.78 0-1.56.22-2.22.62a4.185 4.185 0 0 0-1.31 5.75l.09.16-.44 1.56 1.59-.41.16.03c.66.41 1.38.59 2.12.59 2.28 0 4.16-1.88 4.16-4.16s-1.88-4.16-4.16-4.16Zm2.38 5.94c-.16.31-.47.53-.84.59-.06 0-.16.03-.25.03-.16 0-.31-.03-.47-.06-.25-.06-.47-.16-.72-.25a5.45 5.45 0 0 1-2.09-1.84c-.31-.41-.5-.84-.53-1.31 0-.34.12-.72.41-.97.09-.12.22-.19.34-.19h.22c.12 0 .22.06.25.19l.16.38c.09.25.22.53.25.59s.03.16 0 .19c-.03.09-.06.16-.12.22l-.06.06c-.03.06-.09.09-.12.12l-.09.06.06.12c.16.34.41.69.69.94s.59.44.94.59l.19.06.09-.06c.19-.16.34-.31.47-.5.03-.06.09-.09.12-.09s.06 0 .12.03c.12.03.66.31.84.41l.06.03c.06.03.12.06.16.09.03.19.03.41-.06.56ZM0-.01v16h16v-16zm12.53 9.99a4.96 4.96 0 0 1-4.41 2.66c-.81 0-1.59-.19-2.31-.56l-.06-.03-2.62.69.72-2.56-.03-.06a4.97 4.97 0 0 1-.06-4.72c.84-1.66 2.53-2.66 4.38-2.66.81 0 1.62.19 2.34.56 2.41 1.25 3.34 4.28 2.06 6.69Z"/></symbol><symbol id="s24" viewBox="0 0 24 24"><path d="M12.23 5.26c-1.17 0-2.34.33-3.33.94-2.91 1.83-3.8 5.72-1.97 8.62l.14.23-.66 2.34 2.39-.61.23.05c.98.61 2.06.89 3.19.89 3.42 0 6.23-2.81 6.23-6.23s-2.81-6.23-6.23-6.23Zm3.56 8.91c-.23.47-.7.8-1.27.89-.09 0-.23.05-.38.05-.23 0-.47-.05-.7-.09-.38-.09-.7-.23-1.08-.38-1.27-.61-2.34-1.59-3.14-2.77-.47-.61-.75-1.27-.8-1.97 0-.52.19-1.08.61-1.45.14-.19.33-.28.52-.28h.33c.19 0 .33.09.38.28l.23.56c.14.38.33.8.38.89s.05.23 0 .28c-.05.14-.09.23-.19.33l-.09.09c-.05.09-.14.14-.19.19l-.14.09.09.19c.23.52.61 1.03 1.03 1.41s.89.66 1.41.89l.28.09.14-.09c.28-.23.52-.47.7-.75.05-.09.14-.14.19-.14s.09 0 .19.05c.19.05.98.47 1.27.61l.09.05c.09.05.19.09.23.14.05.28.05.61-.09.84M0-.02v24h24v-24zm18.79 14.98a7.44 7.44 0 0 1-6.61 3.98 7.5 7.5 0 0 1-3.47-.84l-.09-.05-3.94 1.03 1.08-3.84-.05-.09a7.41 7.41 0 0 1-.09-7.08c1.27-2.48 3.8-3.98 6.56-3.98 1.22 0 2.44.28 3.52.84 3.61 1.88 5.02 6.42 3.09 10.03"/></symbol><symbol id="s32" viewBox="0 0 32 32"><path d="M0 0v32h32V0zm25.05 19.98a9.91 9.91 0 0 1-8.81 5.31c-1.62 0-3.19-.38-4.62-1.12l-.12-.06-5.25 1.38 1.44-5.12-.06-.12c-1.62-2.94-1.69-6.44-.12-9.44C9.2 7.5 12.57 5.5 16.26 5.5c1.62 0 3.25.38 4.69 1.12 4.81 2.5 6.69 8.56 4.12 13.38ZM16.3 7.04c-1.56 0-3.12.44-4.44 1.25-3.88 2.44-5.06 7.62-2.62 11.5l.19.31-.88 3.12 3.19-.81.31.06c1.31.81 2.75 1.19 4.25 1.19 4.56 0 8.31-3.75 8.31-8.31s-3.75-8.31-8.31-8.31m4.75 11.88c-.31.62-.94 1.06-1.69 1.19-.12 0-.31.06-.5.06-.31 0-.62-.06-.94-.12-.5-.12-.94-.31-1.44-.5-1.69-.81-3.12-2.12-4.19-3.69-.62-.81-1-1.69-1.06-2.62 0-.69.25-1.44.81-1.94.19-.25.44-.38.69-.38h.44c.25 0 .44.12.5.38l.31.75c.19.5.44 1.06.5 1.19s.06.31 0 .38a.96.96 0 0 1-.25.44l-.12.12c-.06.12-.19.19-.25.25l-.19.12.12.25c.31.69.81 1.38 1.38 1.88s1.19.88 1.88 1.19l.38.12.19-.12c.38-.31.69-.62.94-1 .06-.12.19-.19.25-.19s.12 0 .25.06c.25.06 1.31.62 1.69.81l.12.06c.12.06.25.12.31.19.06.38.06.81-.12 1.12Z"/></symbol><symbol id="s40" viewBox="0 0 40 40"><path d="M20.38 8.77c-1.95 0-3.91.55-5.55 1.56-4.84 3.05-6.33 9.53-3.28 14.38l.23.39-1.09 3.91 3.98-1.02.39.08c1.64 1.02 3.44 1.48 5.31 1.48 5.7 0 10.39-4.69 10.39-10.39S26.07 8.77 20.37 8.77Zm5.94 14.85c-.39.78-1.17 1.33-2.11 1.48-.16 0-.39.08-.62.08-.39 0-.78-.08-1.17-.16-.62-.16-1.17-.39-1.8-.62-2.11-1.02-3.91-2.66-5.23-4.61-.78-1.02-1.25-2.11-1.33-3.28 0-.86.31-1.8 1.02-2.42.23-.31.55-.47.86-.47h.55c.31 0 .55.16.62.47l.39.94c.23.62.55 1.33.62 1.48s.08.39 0 .47c-.08.23-.16.39-.31.55l-.16.16c-.08.16-.23.23-.31.31l-.23.16.16.31c.39.86 1.02 1.72 1.72 2.34s1.48 1.09 2.34 1.48l.47.16.23-.16c.47-.39.86-.78 1.17-1.25.08-.16.23-.23.31-.23s.16 0 .31.08c.31.08 1.64.78 2.11 1.02l.16.08c.16.08.31.16.39.23.08.47.08 1.02-.16 1.41ZM0-.02v40h40v-40zm31.32 24.97a12.41 12.41 0 0 1-11.02 6.64c-2.03 0-3.98-.47-5.78-1.41l-.16-.08-6.56 1.72 1.8-6.41-.08-.16c-2.03-3.67-2.11-8.05-.16-11.8 2.11-4.14 6.33-6.64 10.94-6.64 2.03 0 4.06.47 5.86 1.41 6.02 3.12 8.36 10.7 5.16 16.72Z"/></symbol><symbol id="s48" viewBox="0 0 48 48"><path d="M24.45 10.6c-2.34 0-4.69.66-6.66 1.88-5.81 3.66-7.59 11.44-3.94 17.25l.28.47-1.31 4.69 4.78-1.22.47.09c1.97 1.22 4.12 1.78 6.38 1.78 6.84 0 12.47-5.62 12.47-12.47S31.3 10.6 24.45 10.6m7.13 17.81c-.47.94-1.41 1.59-2.53 1.78-.19 0-.47.09-.75.09-.47 0-.94-.09-1.41-.19-.75-.19-1.41-.47-2.16-.75-2.53-1.22-4.69-3.19-6.28-5.53-.94-1.22-1.5-2.53-1.59-3.94 0-1.03.38-2.16 1.22-2.91.28-.38.66-.56 1.03-.56h.66c.38 0 .66.19.75.56l.47 1.12c.28.75.66 1.59.75 1.78s.09.47 0 .56c-.09.28-.19.47-.38.66l-.19.19c-.09.19-.28.28-.38.38l-.28.19.19.38c.47 1.03 1.22 2.06 2.06 2.81s1.78 1.31 2.81 1.78l.56.19.28-.19c.56-.47 1.03-.94 1.41-1.5.09-.19.28-.28.38-.28s.19 0 .38.09c.38.09 1.97.94 2.53 1.22l.19.09c.19.09.38.19.47.28.09.56.09 1.22-.19 1.69ZM0 .04v48h48v-48zm37.58 29.97c-2.62 4.97-7.69 7.97-13.22 7.97-2.44 0-4.78-.56-6.94-1.69l-.19-.09-7.88 2.06 2.16-7.69-.09-.19c-2.44-4.41-2.53-9.66-.19-14.16 2.53-4.97 7.59-7.97 13.12-7.97 2.44 0 4.88.56 7.03 1.69C38.6 13.69 41.41 22.78 37.57 30Z"/></symbol><symbol id="s64" viewBox="0 0 64 64"><path d="M32.6 14.05c-3.12 0-6.25.88-8.88 2.5-7.75 4.88-10.12 15.25-5.25 23l.38.62-1.75 6.25 6.38-1.62.62.12c2.62 1.62 5.5 2.38 8.5 2.38 9.12 0 16.62-7.5 16.62-16.62s-7.5-16.62-16.62-16.62Zm9.5 23.75c-.62 1.25-1.88 2.13-3.38 2.38-.25 0-.62.13-1 .13-.62 0-1.25-.12-1.88-.25-1-.25-1.88-.62-2.88-1-3.38-1.62-6.25-4.25-8.38-7.38-1.25-1.62-2-3.38-2.12-5.25 0-1.38.5-2.88 1.62-3.88.38-.5.88-.75 1.38-.75h.88c.5 0 .88.25 1 .75l.62 1.5c.38 1 .88 2.12 1 2.38s.12.62 0 .75c-.12.38-.25.62-.5.88l-.25.25c-.12.25-.38.38-.5.5l-.38.25.25.5c.62 1.38 1.62 2.75 2.75 3.75s2.38 1.75 3.75 2.38l.75.25.38-.25c.75-.62 1.38-1.25 1.88-2 .12-.25.38-.38.5-.38s.25 0 .5.12c.5.12 2.62 1.25 3.38 1.62l.25.12c.25.12.5.25.62.38.12.75.12 1.62-.25 2.25ZM0-.02v64h64v-64zm50.1 39.95c-3.5 6.62-10.25 10.62-17.62 10.62-3.25 0-6.38-.75-9.25-2.25l-.25-.12-10.5 2.75 2.88-10.25-.12-.25c-3.25-5.88-3.38-12.88-.25-18.88 3.38-6.62 10.12-10.62 17.5-10.62 3.25 0 6.5.75 9.38 2.25 9.62 5 13.38 17.12 8.25 26.75Z"/></symbol><use style="display: var(--s16, none)" href="#s16"/><use style="display: var(--s24, none)" href="#s24"/><use style="display: var(--s32, none)" href="#s32"/><use style="display: var(--s40, none)" href="#s40"/><use style="display: var(--s48, none)" href="#s48"/><use style="display: var(--s64, none)" href="#s64"/></symbol></defs><style>@media (max-width: 23.98px) {g{--s16:block;}}@media (min-width: 24px) and (max-width: 31.98px) {g{--s24:block;}}@media (min-width: 32px) and (max-width: 39.98px) {g{--s32:block;}}@media (min-width: 40px) and (max-width: 47.98px) {g{--s40:block;}}@media (min-width: 48px) and (max-width: 63.98px) {g{--s48:block;}}@media (min-width: 64px) {g{--s64:block;}}</style><g><use href="#i-whatsapp-solid"/></g></svg>