<svg xmlns="http://www.w3.org/2000/svg"><defs><symbol id="i-whatsapp"><symbol id="s16" viewBox="0 0 16 16"><path d="M9.39 10.08c-.16 0-.31-.03-.47-.06-.25-.06-.47-.16-.72-.25a5.4 5.4 0 0 1-2.1-1.84c-.31-.41-.5-.84-.53-1.31 0-.34.13-.72.41-.97.09-.12.22-.19.34-.19h.22c.13 0 .22.06.25.19l.16.37c.09.25.22.53.25.59s.03.16 0 .19c-.03.09-.06.16-.13.22l-.06.06c-.03.06-.09.09-.13.12l-.09.06.06.12c.16.34.41.69.69.94s.59.44.94.59l.19.06.09-.06c.19-.16.34-.31.47-.5.03-.06.09-.09.13-.09s.06 0 .13.03c.13.03.66.31.85.41l.06.03c.06.03.13.06.16.09.03.19.03.41-.06.56-.16.31-.47.53-.85.59-.06 0-.16.03-.25.03Zm-6.33 2.66 2.63-.69.06.03c.72.38 1.5.56 2.32.56 1.85 0 3.54-1 4.41-2.66 1.28-2.41.34-5.44-2.07-6.69a5.15 5.15 0 0 0-2.35-.56c-1.85 0-3.54 1-4.38 2.66-.78 1.5-.75 3.25.06 4.72l.03.06-.72 2.56Zm2.76-1.53-1.6.41.44-1.56-.09-.16a4.18 4.18 0 0 1 1.32-5.75c.66-.41 1.44-.62 2.22-.62 2.29 0 4.16 1.88 4.16 4.16s-1.88 4.16-4.16 4.16c-.75 0-1.47-.19-2.13-.59l-.16-.03Z"/></symbol><symbol id="s24" viewBox="0 0 24 24"><path d="M14.1 15.12c-.23 0-.47-.05-.7-.09-.38-.09-.7-.23-1.08-.37-1.27-.61-2.35-1.59-3.15-2.77-.47-.61-.75-1.27-.8-1.97 0-.52.19-1.08.61-1.45.14-.19.33-.28.52-.28h.33c.19 0 .33.09.38.28l.23.56c.14.38.33.8.38.89s.05.23 0 .28c-.05.14-.09.23-.19.33l-.09.09c-.05.09-.14.14-.19.19l-.14.09.09.19c.23.52.61 1.03 1.03 1.41s.89.66 1.41.89l.28.09.14-.09c.28-.23.52-.47.7-.75.05-.09.14-.14.19-.14s.09 0 .19.05c.19.05.99.47 1.27.61l.09.05c.09.05.19.09.23.14.05.28.05.61-.09.84-.23.47-.7.8-1.27.89-.09 0-.23.05-.38.05ZM4.61 19.1l3.95-1.03.09.05c1.08.56 2.25.84 3.48.84 2.77 0 5.31-1.5 6.62-3.98 1.93-3.61.52-8.16-3.1-10.03-1.08-.56-2.3-.84-3.52-.84-2.77 0-5.31 1.5-6.58 3.98a7.44 7.44 0 0 0 .09 7.08l.05.09zm4.14-2.3-2.4.61.66-2.34-.14-.23c-1.83-2.91-.94-6.8 1.97-8.62.99-.61 2.16-.94 3.33-.94 3.43 0 6.25 2.81 6.25 6.23s-2.82 6.23-6.25 6.23c-1.13 0-2.21-.28-3.19-.89z"/></symbol><symbol id="s32" viewBox="0 0 32 32"><path d="M18.82 20.16c-.31 0-.63-.06-.94-.13-.5-.13-.94-.31-1.44-.5-1.69-.81-3.13-2.12-4.2-3.69-.63-.81-1-1.69-1.06-2.62 0-.69.25-1.44.81-1.94.19-.25.44-.38.69-.38h.44c.25 0 .44.12.5.38l.31.75c.19.5.44 1.06.5 1.19s.06.31 0 .38c-.06.19-.13.31-.25.44l-.13.12c-.06.12-.19.19-.25.25l-.19.12.13.25c.31.69.81 1.38 1.38 1.88s1.19.87 1.88 1.19l.38.13.19-.13c.38-.31.69-.62.94-1 .06-.13.19-.19.25-.19s.13 0 .25.06c.25.06 1.32.62 1.69.81l.13.06c.13.06.25.13.31.19.06.38.06.81-.13 1.12-.31.62-.94 1.06-1.69 1.19-.13 0-.31.06-.5.06ZM6.17 25.47l5.26-1.38.13.06c1.44.75 3.01 1.12 4.63 1.12 3.69 0 7.08-2 8.83-5.31 2.57-4.81.69-10.87-4.13-13.37-1.44-.75-3.07-1.12-4.7-1.12-3.69 0-7.08 2-8.77 5.31-1.57 3-1.5 6.5.13 9.44l.06.13zm5.51-3.06-3.19.81.88-3.12-.19-.31c-2.44-3.87-1.25-9.06 2.63-11.5a8.56 8.56 0 0 1 4.45-1.25c4.57 0 8.33 3.75 8.33 8.31s-3.76 8.31-8.33 8.31c-1.5 0-2.94-.38-4.26-1.19l-.31-.06Z"/></symbol><symbol id="s40" viewBox="0 0 40 40"><path d="M23.54 25.21c-.39 0-.78-.08-1.17-.16-.63-.16-1.17-.39-1.8-.62-2.11-1.02-3.91-2.66-5.24-4.61-.78-1.02-1.25-2.11-1.33-3.28 0-.86.31-1.8 1.02-2.42.23-.31.55-.47.86-.47h.55c.31 0 .55.16.63.47l.39.94c.23.63.55 1.33.63 1.48s.08.39 0 .47c-.08.23-.16.39-.31.55l-.16.16c-.08.16-.23.23-.31.31l-.23.16.16.31c.39.86 1.02 1.72 1.72 2.34s1.49 1.09 2.35 1.48l.47.16.23-.16c.47-.39.86-.78 1.17-1.25.08-.16.23-.23.31-.23s.16 0 .31.08c.31.08 1.64.78 2.11 1.02l.16.08c.16.08.31.16.39.23.08.47.08 1.02-.16 1.41-.39.78-1.17 1.33-2.11 1.48-.16 0-.39.08-.63.08ZM7.72 31.85l6.58-1.72.16.08c1.8.94 3.76 1.41 5.79 1.41 4.62 0 8.85-2.5 11.04-6.64 3.21-6.02.86-13.59-5.17-16.72-1.8-.94-3.84-1.41-5.87-1.41-4.62 0-8.85 2.5-10.96 6.64-1.96 3.75-1.88 8.12.16 11.8l.08.16-1.8 6.41Zm6.89-3.83-3.99 1.02 1.1-3.91-.23-.39c-3.05-4.84-1.57-11.33 3.29-14.37 1.64-1.02 3.6-1.56 5.56-1.56 5.71 0 10.41 4.69 10.41 10.39s-4.7 10.39-10.41 10.39c-1.88 0-3.68-.47-5.32-1.48l-.39-.08Z"/></symbol><symbol id="s48" viewBox="0 0 48 48"><path d="M28.25 30.25c-.47 0-.94-.09-1.41-.19-.75-.19-1.41-.47-2.16-.75-2.54-1.22-4.7-3.19-6.29-5.53-.94-1.22-1.5-2.53-1.6-3.94 0-1.03.38-2.16 1.22-2.91.28-.37.66-.56 1.03-.56h.66c.38 0 .66.19.75.56l.47 1.12c.28.75.66 1.59.75 1.78s.09.47 0 .56c-.09.28-.19.47-.38.66l-.19.19c-.09.19-.28.28-.38.37l-.28.19.19.37c.47 1.03 1.22 2.06 2.07 2.81s1.78 1.31 2.82 1.78l.56.19.28-.19c.56-.47 1.03-.94 1.41-1.5.09-.19.28-.28.38-.28s.19 0 .38.09c.38.09 1.97.94 2.54 1.22l.19.09c.19.09.38.19.47.28.09.56.09 1.22-.19 1.69-.47.94-1.41 1.59-2.54 1.78-.19 0-.47.09-.75.09ZM9.28 38.22l7.89-2.06.19.09c2.16 1.13 4.51 1.69 6.95 1.69 5.54 0 10.61-3 13.24-7.97 3.85-7.22 1.03-16.31-6.2-20.06-2.16-1.12-4.6-1.69-7.04-1.69-5.54 0-10.61 3-13.15 7.97-2.35 4.5-2.25 9.75.19 14.16l.09.19-2.16 7.69Zm8.26-4.59-4.79 1.22 1.32-4.69-.28-.47c-3.66-5.81-1.88-13.59 3.95-17.25 1.97-1.22 4.32-1.88 6.67-1.88 6.86 0 12.49 5.62 12.49 12.47S31.26 35.5 24.41 35.5c-2.25 0-4.41-.56-6.39-1.78l-.47-.09Z"/></symbol><symbol id="s64" viewBox="0 0 64 64"><path d="M37.68 40.32c-.63 0-1.25-.13-1.88-.25-1-.25-1.88-.62-2.88-1-3.38-1.62-6.26-4.25-8.39-7.37-1.25-1.63-2-3.37-2.13-5.25 0-1.38.5-2.88 1.63-3.87.38-.5.88-.75 1.38-.75h.88c.5 0 .88.25 1 .75l.63 1.5c.38 1 .88 2.12 1 2.37s.13.62 0 .75c-.13.38-.25.62-.5.87l-.25.25c-.13.25-.38.38-.5.5l-.38.25.25.5c.63 1.38 1.63 2.75 2.76 3.75s2.38 1.75 3.76 2.37l.75.25.38-.25c.75-.62 1.38-1.25 1.88-2 .13-.25.38-.37.5-.37s.25 0 .5.13c.5.13 2.63 1.25 3.38 1.62l.25.13c.25.13.5.25.63.37.13.75.13 1.62-.25 2.25-.63 1.25-1.88 2.13-3.38 2.37-.25 0-.63.13-1 .13ZM12.39 50.94l10.52-2.75.25.13c2.88 1.5 6.01 2.25 9.27 2.25 7.39 0 14.15-4 17.66-10.62 5.13-9.62 1.38-21.75-8.27-26.75-2.88-1.5-6.14-2.25-9.39-2.25-7.39 0-14.15 4-17.53 10.62-3.13 6-3.01 13 .25 18.88l.13.25-2.88 10.25Zm11.02-6.12-6.39 1.62 1.75-6.25-.38-.62c-4.88-7.75-2.5-18.12 5.26-23 2.63-1.62 5.76-2.5 8.89-2.5 9.14 0 16.66 7.5 16.66 16.63s-7.51 16.63-16.66 16.63c-3.01 0-5.89-.75-8.52-2.37l-.63-.13Z"/></symbol><use style="display: var(--s16, none)" href="#s16"/><use style="display: var(--s24, none)" href="#s24"/><use style="display: var(--s32, none)" href="#s32"/><use style="display: var(--s40, none)" href="#s40"/><use style="display: var(--s48, none)" href="#s48"/><use style="display: var(--s64, none)" href="#s64"/></symbol></defs><style>@media (max-width: 23.98px) {g{--s16:block;}}@media (min-width: 24px) and (max-width: 31.98px) {g{--s24:block;}}@media (min-width: 32px) and (max-width: 39.98px) {g{--s32:block;}}@media (min-width: 40px) and (max-width: 47.98px) {g{--s40:block;}}@media (min-width: 48px) and (max-width: 63.98px) {g{--s48:block;}}@media (min-width: 64px) {g{--s64:block;}}</style><g><use href="#i-whatsapp"/></g></svg>