<svg xmlns="http://www.w3.org/2000/svg"><defs><symbol id="i-wheelchair"><symbol id="s16" viewBox="0 0 16 16"><path d="M7.85 4.53c1.24 0 2.25-1.01 2.25-2.25S9.09.02 7.85.02 5.6 1.03 5.6 2.27s1.01 2.25 2.25 2.25Zm0-3.01c.41 0 .75.34.75.75s-.34.75-.75.75-.75-.34-.75-.75.34-.75.75-.75m5.94 6.99c-.18-.49-.65-.81-1.17-.81h-2.04V6.3c0-.69-.56-1.25-1.25-1.25H6.72c-.69 0-1.25.56-1.25 1.25v4.34c0 .69.56 1.25 1.25 1.25h2.94v.87a3.17 3.17 0 0 1-2.85 1.76c-1.76 0-3.2-1.44-3.2-3.21 0-1.03.47-1.96 1.29-2.58a.75.75 0 0 0-.9-1.2 4.74 4.74 0 0 0-1.9 3.78c0 2.6 2.11 4.71 4.7 4.71 1.08 0 2.09-.37 2.9-1.01h2.92c.69 0 1.25-.56 1.25-1.25V9c0-.16-.03-.32-.1-.48Zm-1.41 4.99h-1.22v-3.14H6.97V6.54h2.11v2.65h3.31v4.3Zm0-4.46v-.07.08Z"/></symbol><symbol id="s24" viewBox="0 0 24 24"><path d="M12.41 6.3c1.75 0 3.16-1.43 3.16-3.19S14.16-.08 12.41-.08 9.25 1.35 9.25 3.11s1.42 3.19 3.16 3.19m0-4.62c.78 0 1.41.64 1.41 1.42s-.63 1.42-1.41 1.42S11 3.88 11 3.1s.63-1.42 1.41-1.42m7.78 11.1c-.24-.64-.85-1.07-1.52-1.07H16.3V8.78c0-.91-.73-1.65-1.64-1.65h-4.49c-.9 0-1.64.74-1.64 1.66l.05 6.64a2.39 2.39 0 0 0 2.38 2.37h2.47v-1.22h2v2.69c-.88 1.79-2.64 2.9-4.62 2.9-2.84 0-5.15-2.33-5.15-5.19 0-1.66.76-3.18 2.08-4.17.39-.29.47-.84.18-1.23a.866.866 0 0 0-1.22-.18 7.01 7.01 0 0 0-2.79 5.59c0 3.83 3.1 6.95 6.9 6.95 2.08 0 4.04-.98 5.33-2.56h2.79c.76 0 1.38-.63 1.38-1.39v-6.54c0-.22-.04-.44-.13-.64Zm-1.61 6.81h-1.39V14.8h-3.75v-3.64h-1.75v4.86h-.72c-.35.03-.62-.28-.63-.62l-.05-6.52h4.26v4.58h4.03zm-.03-6.19.02.04s-.02-.02-.02-.04"/></symbol><symbol id="s32" viewBox="0 0 32 32"><path d="M16.44 8.21c2.26 0 4.11-1.84 4.11-4.11S18.7-.01 16.44-.01s-4.11 1.84-4.11 4.11 1.84 4.11 4.11 4.11m0-6.22c1.16 0 2.11.95 2.11 2.11s-.95 2.11-2.11 2.11-2.11-.95-2.11-2.11.95-2.11 2.11-2.11m10.39 15.22c-.3-.8-1.05-1.33-1.9-1.33h-3.4v-4.65c0-1.12-.91-2.04-2.04-2.04h-6.1c-1.12 0-2.04.91-2.04 2.04l.07 9.49a3.01 3.01 0 0 0 3 2.98h3.21v-1.64h3.1v3.86c-1.2 2.46-3.73 4.05-6.46 4.05-3.96 0-7.19-3.23-7.19-7.19 0-2.3 1.06-4.4 2.91-5.78.44-.33.54-.96.21-1.4s-.96-.54-1.4-.21a9.23 9.23 0 0 0-3.71 7.38c0 5.07 4.12 9.19 9.19 9.19 2.49 0 4.84-1.05 6.55-2.78h4.48c.93 0 1.69-.76 1.69-1.69v-9.51c0-.27-.06-.54-.17-.79Zm-4.09 10v-7.14h-5.1v-5.1h-2v6.76h-1.2a1 1 0 0 1-1-.99l-.04-9.52 6.13.04v6.65h5.41s.01.01.02.03l.04 9.29h-2.26Z"/></symbol><symbol id="s40" viewBox="0 0 40 40"><path d="M20.5 10.07c2.78 0 5.04-2.26 5.04-5.04S23.28 0 20.5 0s-5.04 2.26-5.04 5.04 2.26 5.04 5.04 5.04Zm0-7.82a2.791 2.791 0 0 1 0 5.58 2.791 2.791 0 0 1 0-5.58m12.95 19.34A2.43 2.43 0 0 0 31.19 20h-4.42v-5.98c0-1.34-1.09-2.43-2.43-2.43h-7.67c-1.34 0-2.43 1.09-2.43 2.44l.09 11.94c.02 2 1.65 3.62 3.64 3.62h3.9v-2.07h4.17v5.04a9.12 9.12 0 0 1-8.27 5.18c-5.06 0-9.18-4.12-9.18-9.18 0-2.94 1.35-5.62 3.71-7.38.5-.37.6-1.08.23-1.57-.37-.5-1.08-.6-1.57-.23a11.5 11.5 0 0 0-4.62 9.19C6.34 34.88 11.47 40 17.77 40c3.16 0 6.14-1.34 8.27-3.56v.06h5.62c1.1 0 2-.89 2-1.99V22.55c0-.32-.07-.64-.2-.95Zm-5.16 12.66v-8.99l-6.42.02v-6.57h-2.25v8.63h-1.65c-.76 0-1.39-.62-1.39-1.38l-.09-11.93c0-.1.08-.18.18-.18h7.67c.1 0 .18.08.18.18v8.23h6.67c.11 0 .15.1.16.13l.06 11.87H28.3Z"/></symbol><symbol id="s48" viewBox="0 0 48 48"><path d="M24.6 11.92c3.28 0 5.95-2.68 5.95-5.97S27.88-.02 24.6-.02s-5.95 2.68-5.95 5.97 2.67 5.97 5.95 5.97m0-9.43c1.9 0 3.45 1.55 3.45 3.46S26.5 9.41 24.6 9.41s-3.45-1.55-3.45-3.46 1.55-3.46 3.45-3.46m15.45 23.45c-.41-1.11-1.46-1.85-2.62-1.85h-5.41v-7.31c0-1.56-1.26-2.83-2.82-2.83h-9.21c-1.55 0-2.81 1.27-2.81 2.84l.11 15.4c.02 2.35 1.93 4.26 4.27 4.26h4.58v-3.5h5.2v6.2s-.01.02-.02.03c-1.88 3.89-5.71 6.3-10.01 6.3-6.13 0-11.12-5.01-11.12-11.17 0-3.57 1.64-6.84 4.5-8.97.55-.41.67-1.2.26-1.76s-1.2-.67-1.75-.26C9.75 25.89 7.7 30 7.7 34.31c0 7.54 6.11 13.68 13.62 13.68 3.84 0 7.48-1.67 10.03-4.44v.22h6.64c1.26 0 2.29-1.03 2.29-2.3V27.05c0-.37-.08-.75-.23-1.11m-2.27 15.31h-3.93V30.42l-7.7.02v-8.52h-2.5v12h-2.08c-.97 0-1.77-.79-1.77-1.77l-.11-15.39c0-.17.14-.32.31-.32h9.21c.17 0 .32.14.32.32v9.82h7.91c.15 0 .25.11.28.22l.04.1c.02.05.03.09.03.13v14.21Z"/></symbol><symbol id="s64" viewBox="0 0 64 64"><path d="M32.81 15.45c4.26 0 7.72-3.47 7.72-7.73S37.07 0 32.81 0s-7.72 3.47-7.72 7.73 3.46 7.73 7.72 7.73Zm0-12.7c2.74 0 4.97 2.23 4.97 4.97s-2.23 4.97-4.97 4.97-4.97-2.23-4.97-4.97 2.23-4.97 4.97-4.97m20.6 32c-.5-1.37-1.8-2.29-3.25-2.29h-7.62V22.3c0-1.93-1.57-3.49-3.49-3.49H26.6c-1.92 0-3.49 1.57-3.49 3.5l.14 20.73c.02 2.99 2.47 5.42 5.46 5.42h.01l5.87-.02v-4.69l7.66-.02v8.75l-.06.09c-2.59 5.34-7.88 8.66-13.81 8.66-8.46 0-15.34-6.89-15.34-15.35 0-4.91 2.26-9.4 6.2-12.33.61-.45.74-1.31.28-1.92s-1.31-.74-1.92-.28c-4.58 3.4-7.31 8.84-7.31 14.54 0 9.98 8.12 18.1 18.09 18.1 5.39 0 10.47-2.46 13.87-6.51v.83h8.66c1.54 0 2.79-1.25 2.79-2.79V36.11c0-.47-.1-.93-.29-1.37Zm-2.5 20.82H45V40.98L34.59 41V29.22h-2.75V45.7h-3.12c-1.48 0-2.7-1.21-2.71-2.69l-.14-20.72c0-.41.33-.74.74-.74h12.45c.41 0 .74.33.74.74V35.2h10.37c.37 0 .6.27.68.51l.04.11c.05.11.07.21.07.3l-.04 19.44Z"/></symbol><use style="display: var(--s16, none)" href="#s16"/><use style="display: var(--s24, none)" href="#s24"/><use style="display: var(--s32, none)" href="#s32"/><use style="display: var(--s40, none)" href="#s40"/><use style="display: var(--s48, none)" href="#s48"/><use style="display: var(--s64, none)" href="#s64"/></symbol></defs><style>@media (max-width: 23.98px) {g{--s16:block;}}@media (min-width: 24px) and (max-width: 31.98px) {g{--s24:block;}}@media (min-width: 32px) and (max-width: 39.98px) {g{--s32:block;}}@media (min-width: 40px) and (max-width: 47.98px) {g{--s40:block;}}@media (min-width: 48px) and (max-width: 63.98px) {g{--s48:block;}}@media (min-width: 64px) {g{--s64:block;}}</style><g><use href="#i-wheelchair"/></g></svg>