<svg xmlns="http://www.w3.org/2000/svg"><defs><symbol id="i-wheelchair-solid"><symbol id="s16" viewBox="0 0 16 16"><path d="M5.65 2.3C5.65 1.06 6.66.04 7.9.04s2.25 1.01 2.25 2.26S9.14 4.56 7.9 4.56 5.65 3.55 5.65 2.3m8.18 6.26c-.18-.49-.65-.82-1.17-.82h-2.04V6.33c0-.69-.56-1.26-1.25-1.26H6.76c-.69 0-1.25.56-1.25 1.26v4.71c0 .69.56 1.26 1.25 1.26h1.38a.4.4 0 0 1-.03-.16V8.25c0-.28.22-.5.5-.5s.5.22.5.5v3.89q0 .075-.03.15a.48.48 0 0 1-.25.29c-.5.57-1.2.93-1.98.93a2.71 2.71 0 0 1-2.7-2.71c0-.66.24-1.29.67-1.78.45-.52.4-1.32-.12-1.77a1.24 1.24 0 0 0-1.76.12c-.83.95-1.28 2.17-1.28 3.44 0 2.88 2.33 5.23 5.2 5.23 1.11 0 2.14-.35 3-.97h2.82c.69 0 1.25-.56 1.25-1.26V9.04c0-.16-.03-.32-.1-.48"/></symbol><symbol id="s24" viewBox="0 0 24 24"><path d="M9.3 3.2c0-1.75 1.42-3.17 3.16-3.17s3.16 1.42 3.16 3.17-1.42 3.17-3.16 3.17S9.3 4.95 9.3 3.2m10.94 9.62c-.24-.64-.85-1.07-1.53-1.07h-2.37V8.83c0-.91-.73-1.64-1.64-1.64h-4.49c-.9 0-1.64.74-1.64 1.65l.05 6.61c.01 1.31 1.04 2.37 2.38 2.36h.72v-6.6c0-.48.39-.88.88-.88s.88.39.88.88v5.39h2v1.25c-.23.14-.42.35-.55.61a4.5 4.5 0 0 1-4.08 2.56c-2.5 0-4.53-2.04-4.53-4.54 0-1.29.55-2.53 1.52-3.39a1.502 1.502 0 0 0-2-2.24 7.57 7.57 0 0 0-2.52 5.63c0 4.16 3.38 7.55 7.53 7.55 2.22 0 4.31-1.01 5.72-2.67h2.4c.76 0 1.38-.62 1.38-1.39v-6.51c0-.22-.04-.43-.13-.64Z"/></symbol><symbol id="s32" viewBox="0 0 32 32"><path d="M12.38 4.13c0-2.27 1.84-4.12 4.11-4.12s4.11 1.85 4.11 4.12-1.84 4.12-4.11 4.12-4.11-1.85-4.11-4.12m14.5 13.15c-.3-.8-1.05-1.33-1.9-1.33h-3.41v-4.66c0-1.13-.91-2.04-2.04-2.04h-6.1c-1.12 0-2.04.92-2.04 2.05l.07 9.51a3.013 3.013 0 0 0 3 2.99h1.21v-8.78c0-.55.45-1 1-1s1 .45 1 1v7.13h3.1v1.98c-.28.17-.52.42-.67.73a6.39 6.39 0 0 1-5.79 3.64c-3.55 0-6.44-2.9-6.44-6.45 0-1.88.82-3.67 2.24-4.9.73-.63.82-1.74.18-2.48-.63-.74-1.74-.82-2.47-.19a9.97 9.97 0 0 0-3.46 7.56c0 5.49 4.46 9.97 9.94 9.97 2.55 0 4.96-1.02 6.78-2.72h4.26c.93 0 1.69-.76 1.69-1.7v-9.53c0-.27-.05-.54-.16-.79Z"/></symbol><symbol id="s40" viewBox="0 0 40 40"><path d="M15.51 4.96c0-2.78 2.26-5.04 5.04-5.04s5.04 2.26 5.04 5.04S23.33 10 20.55 10s-5.04-2.26-5.04-5.04M33.5 21.51a2.43 2.43 0 0 0-2.26-1.59h-4.42v-5.98c0-1.34-1.09-2.43-2.43-2.43h-7.67c-1.34 0-2.43 1.09-2.43 2.44l.09 11.94c.02 2 1.65 3.62 3.64 3.62h1.66V18.62c0-.62.5-1.13 1.12-1.13s1.12.5 1.12 1.13v8.82h4.17v2.93c-.33.19-.61.48-.79.86a8.26 8.26 0 0 1-7.48 4.69c-4.58 0-8.31-3.73-8.31-8.31 0-2.38 1.03-4.65 2.81-6.23.83-.73.91-2 .18-2.82-.73-.83-2-.91-2.82-.18-2.65 2.34-4.17 5.7-4.17 9.23 0 6.79 5.52 12.31 12.31 12.31 3.24 0 6.31-1.3 8.58-3.5h5.31c1.1 0 2-.89 2-1.99V22.47c0-.32-.07-.64-.2-.95Z"/></symbol><symbol id="s48" viewBox="0 0 48 48"><path d="M18.7 5.98c0-3.29 2.67-5.96 5.95-5.96s5.95 2.67 5.95 5.96-2.67 5.96-5.95 5.96-5.95-2.67-5.95-5.96m21.4 19.95c-.41-1.11-1.46-1.85-2.62-1.85h-5.41v-7.3c0-1.56-1.26-2.82-2.82-2.82h-9.21c-1.55 0-2.81 1.27-2.81 2.83l.11 15.37c.02 2.35 1.93 4.25 4.27 4.25h2.09V21.75a1.25 1.25 0 0 1 2.5 0v11.17h5.2v3.87c-.39.22-.71.55-.92.98-1.71 3.53-5.2 5.72-9.11 5.72-5.58 0-10.12-4.55-10.12-10.15 0-3.24 1.49-6.21 4.09-8.15 1-.74 1.21-2.16.46-3.16-.74-1-2.15-1.21-3.15-.47-3.7 2.76-5.91 7.16-5.91 11.78C6.74 41.42 13.3 48 21.36 48c3.9 0 7.6-1.6 10.3-4.28h6.37c1.26 0 2.29-1.03 2.29-2.3V27.03c0-.38-.08-.75-.23-1.11Z"/></symbol><symbol id="s64" viewBox="0 0 64 64"><path d="M25.14 7.73C25.14 3.46 28.6 0 32.86 0s7.72 3.47 7.72 7.74-3.46 7.74-7.72 7.74-7.72-3.47-7.72-7.74ZM53.46 34.8c-.5-1.38-1.81-2.3-3.25-2.3h-7.62V22.33c0-1.93-1.57-3.5-3.49-3.5H26.65c-1.92 0-3.49 1.57-3.49 3.51l.14 20.76c.02 3 2.47 5.43 5.46 5.43h3.13V29.26c0-.76.62-1.38 1.38-1.38s1.38.62 1.38 1.38v14.56l7.66-.02v6.03a2.5 2.5 0 0 0-1.07 1.11c-2.4 4.96-7.3 8.04-12.8 8.04-7.84 0-14.22-6.39-14.22-14.25 0-4.55 2.1-8.73 5.75-11.45 1.11-.83 1.34-2.39.52-3.51a2.506 2.506 0 0 0-3.5-.52c-4.86 3.62-7.77 9.4-7.77 15.47 0 10.62 8.62 19.26 19.22 19.26 5.29 0 10.29-2.24 13.87-5.96v.38h8.66c1.54 0 2.79-1.25 2.79-2.79V36.17c0-.46-.1-.93-.29-1.38Z"/></symbol><use style="display: var(--s16, none)" href="#s16"/><use style="display: var(--s24, none)" href="#s24"/><use style="display: var(--s32, none)" href="#s32"/><use style="display: var(--s40, none)" href="#s40"/><use style="display: var(--s48, none)" href="#s48"/><use style="display: var(--s64, none)" href="#s64"/></symbol></defs><style>@media (max-width: 23.98px) {g{--s16:block;}}@media (min-width: 24px) and (max-width: 31.98px) {g{--s24:block;}}@media (min-width: 32px) and (max-width: 39.98px) {g{--s32:block;}}@media (min-width: 40px) and (max-width: 47.98px) {g{--s40:block;}}@media (min-width: 48px) and (max-width: 63.98px) {g{--s48:block;}}@media (min-width: 64px) {g{--s64:block;}}</style><g><use href="#i-wheelchair-solid"/></g></svg>