<svg xmlns="http://www.w3.org/2000/svg"><defs><symbol id="i-wifion"><symbol id="s16" viewBox="0 0 16 16"><path d="M8.01 11.51c-1.24 0-2.25 1.01-2.25 2.25s1.01 2.25 2.25 2.25 2.25-1.01 2.25-2.25-1.01-2.25-2.25-2.25m0 3c-.41 0-.75-.34-.75-.75s.34-.75.75-.75.75.34.75.75-.34.75-.75.75m7.83-10.62c-.15.18-.36.27-.58.27-.17 0-.34-.06-.48-.17-1.96-1.63-4.32-2.48-6.8-2.48s-4.8.84-6.75 2.43a.75.75 0 0 1-1.06-.11.76.76 0 0 1 .11-1.06C2.51.97 5.17 0 7.98 0s5.52.98 7.76 2.83c.32.26.36.74.1 1.06m-2.01 2.02c.32.26.36.74.1 1.06-.15.18-.36.27-.58.27-.17 0-.34-.06-.48-.17-1.41-1.17-3.1-1.79-4.89-1.79s-3.45.61-4.85 1.75a.76.76 0 0 1-1.06-.11.76.76 0 0 1 .11-1.06c1.68-1.37 3.68-2.09 5.8-2.09s4.16.74 5.84 2.13ZM11.6 8.93c.32.26.36.74.1 1.06-.15.18-.36.27-.58.27-.17 0-.34-.06-.48-.17a4.17 4.17 0 0 0-5.28-.02.76.76 0 0 1-1.06-.11.76.76 0 0 1 .11-1.06c2.08-1.7 5.11-1.68 7.18.02Z"/></symbol><symbol id="s24" viewBox="0 0 24 24"><path d="M12.01 17.65c-1.75 0-3.18 1.43-3.18 3.18s1.42 3.18 3.18 3.18 3.18-1.42 3.18-3.18-1.42-3.18-3.18-3.18m0 4.6c-.79 0-1.42-.64-1.42-1.42s.64-1.43 1.42-1.43 1.42.64 1.42 1.43-.64 1.42-1.42 1.42m11.8-16.74c-.17.21-.42.32-.68.32-.2 0-.39-.07-.56-.2-3.06-2.53-6.73-3.87-10.61-3.87S4.49 3.07 1.44 5.55c-.38.31-.93.25-1.23-.12A.87.87 0 0 1 .33 4.2C3.7 1.45 7.72 0 11.97 0s8.34 1.48 11.73 4.28c.37.31.43.86.12 1.23ZM20.77 9a.874.874 0 0 1-.55 1.55c-.2 0-.39-.07-.56-.2-2.22-1.83-4.87-2.8-7.68-2.8s-5.41.95-7.61 2.75c-.38.31-.93.25-1.23-.12a.87.87 0 0 1 .12-1.23C5.78 6.89 8.8 5.8 11.98 5.8s6.26 1.11 8.79 3.21Zm-3.42 4.63a.874.874 0 0 1-.55 1.55c-.2 0-.39-.07-.56-.2-1.22-1.01-2.69-1.55-4.24-1.55s-2.99.53-4.2 1.52c-.38.31-.93.25-1.23-.12a.87.87 0 0 1 .12-1.23c1.53-1.25 3.37-1.91 5.31-1.91s3.81.67 5.35 1.95Z"/></symbol><symbol id="s32" viewBox="0 0 32 32"><path d="M15.98 23.8c-2.24 0-4.07 1.83-4.07 4.14s1.82 4.07 4.07 4.07h.07c2.24 0 4.07-1.83 4.07-4.14s-1.83-4.07-4.14-4.07m.07 6.2h-.07c-1.14 0-2.07-.93-2.07-2.14 0-1.14.93-2.07 2.13-2.07 1.14 0 2.07.93 2.07 2.14 0 1.14-.93 2.07-2.07 2.07ZM31.79 7.14a.99.99 0 0 1-.77.36c-.22 0-.45-.08-.64-.23C26.22 3.83 21.23 2 15.96 2S5.79 3.79 1.65 7.18a1 1 0 0 1-1.41-.14 1 1 0 0 1 .14-1.41C4.89 1.95 10.27 0 15.96 0s11.17 1.98 15.7 5.72c.43.35.49.98.13 1.41Zm-4.08 4.96c.43.35.49.98.13 1.41a.99.99 0 0 1-.77.36c-.22 0-.45-.08-.64-.23-3.02-2.5-6.64-3.82-10.47-3.82s-7.37 1.3-10.38 3.75a1 1 0 0 1-1.41-.14 1 1 0 0 1 .14-1.41c3.37-2.75 7.4-4.2 11.65-4.2S24.31 9.3 27.7 12.1Zm-4.62 6.24c.43.35.49.98.13 1.41a.99.99 0 0 1-.77.36c-.22 0-.45-.08-.64-.23-1.68-1.39-3.7-2.13-5.83-2.13s-4.11.72-5.78 2.09a1 1 0 0 1-1.41-.14 1 1 0 0 1 .14-1.41c2.04-1.66 4.47-2.54 7.05-2.54s5.06.9 7.1 2.59Z"/></symbol><symbol id="s40" viewBox="0 0 40 40"><path d="M19.99 29.95c-2.76 0-5 2.24-5 5.06s2.24 5 5 5h.05c2.76 0 5-2.24 5-5.05s-2.24-5.01-5.05-5.01m.05 7.81h-.05c-1.52 0-2.75-1.23-2.75-2.8s1.23-2.75 2.8-2.75 2.75 1.23 2.75 2.8-1.23 2.75-2.75 2.75M39.76 8.77c-.22.27-.54.41-.87.41-.25 0-.51-.09-.72-.26-5.26-4.36-11.57-6.66-18.23-6.66S7.09 4.52 1.86 8.8c-.48.4-1.19.32-1.58-.16s-.32-1.19.16-1.58C6.08 2.44 12.82.01 19.94.01s14 2.48 19.67 7.17c.48.4.55 1.11.15 1.59m-5.11 6.42c.48.4.55 1.11.15 1.59-.22.27-.54.41-.87.41-.25 0-.51-.09-.72-.26-3.83-3.17-8.41-4.84-13.25-4.84s-9.34 1.64-13.15 4.75c-.48.39-1.19.32-1.58-.16s-.32-1.19.16-1.58c4.21-3.44 9.25-5.26 14.57-5.26s10.45 1.85 14.69 5.36Zm-5.81 7.86c.48.4.55 1.11.15 1.59-.22.27-.54.41-.87.41-.25 0-.51-.09-.72-.26-2.14-1.77-4.71-2.71-7.42-2.71s-5.23.92-7.36 2.66c-.48.4-1.19.32-1.58-.16s-.32-1.19.16-1.58c2.54-2.07 5.58-3.17 8.78-3.17s6.3 1.12 8.86 3.23Z"/></symbol><symbol id="s48" viewBox="0 0 48 48"><path d="M24 36.02c-3.27 0-5.94 2.66-5.94 5.98s2.66 5.94 5.94 5.94h.04c3.27 0 5.93-2.66 5.93-5.98s-2.66-5.94-5.97-5.94m.04 9.4H24c-1.89 0-3.43-1.54-3.43-3.47s1.54-3.43 3.47-3.43 3.43 1.54 3.43 3.47-1.54 3.43-3.43 3.43m23.7-35.11c-.25.3-.6.45-.96.45-.28 0-.56-.09-.8-.29-6.36-5.26-13.99-8.05-22.04-8.05S8.4 5.16 2.07 10.33c-.53.44-1.32.36-1.76-.18-.44-.53-.36-1.32.18-1.76C7.26 2.85 15.37-.07 23.93-.07s16.82 2.98 23.64 8.62c.53.44.61 1.23.17 1.76m-6.15 7.89c.53.44.61 1.23.17 1.76-.25.3-.6.45-.96.45-.28 0-.56-.09-.8-.29-4.63-3.83-10.18-5.86-16.04-5.86s-11.31 1.99-15.91 5.75c-.54.44-1.32.36-1.76-.18s-.36-1.32.18-1.76c5.06-4.13 11.11-6.31 17.5-6.31s12.55 2.22 17.64 6.43Zm-7 9.47c.53.44.61 1.23.17 1.76-.25.3-.61.45-.97.45-.28 0-.56-.09-.8-.29-2.6-2.15-5.72-3.29-9.01-3.29s-6.35 1.12-8.94 3.23c-.54.44-1.32.35-1.76-.18s-.36-1.32.18-1.76c3.04-2.48 6.68-3.79 10.52-3.79s7.55 1.34 10.61 3.86Z"/></symbol><symbol id="s64" viewBox="0 0 64 64"><path d="M32.1 48.48h-.13c-4.21 0-7.64 3.43-7.64 7.64v.13c0 4.21 3.43 7.64 7.64 7.64h.13c4.21 0 7.64-3.43 7.64-7.64v-.13c0-4.21-3.43-7.64-7.64-7.64m4.89 7.77c0 2.7-2.19 4.89-4.89 4.89h-.13a4.89 4.89 0 0 1-4.89-4.89v-.13c0-2.7 2.19-4.89 4.89-4.89h.13c2.7 0 4.89 2.19 4.89 4.89zm26.73-42.88a1.375 1.375 0 0 1-1.94.18c-8.62-7.13-18.95-10.9-29.87-10.9s-21.06 3.7-29.63 10.7c-.59.48-1.45.39-1.94-.2-.48-.59-.39-1.45.2-1.94C9.61 3.81 20.46-.1 31.91-.1s22.5 3.99 31.63 11.53c.59.48.67 1.35.18 1.94m-8.23 11.06c.59.48.67 1.35.18 1.94a1.375 1.375 0 0 1-1.94.18c-6.29-5.21-13.83-7.96-21.79-7.96s-15.36 2.7-21.62 7.81c-.59.48-1.45.39-1.94-.2-.48-.59-.39-1.45.2-1.94 6.75-5.51 14.83-8.43 23.36-8.43s16.76 2.97 23.55 8.59Zm-9.43 12.74c.59.48.67 1.35.18 1.94a1.375 1.375 0 0 1-1.94.18c-3.56-2.95-7.82-4.5-12.33-4.5s-8.69 1.53-12.23 4.42c-.59.48-1.45.39-1.94-.2-.48-.59-.39-1.45.2-1.94 4.04-3.3 8.87-5.04 13.97-5.04s10.02 1.78 14.08 5.13Z"/></symbol><use style="display: var(--s16, none)" href="#s16"/><use style="display: var(--s24, none)" href="#s24"/><use style="display: var(--s32, none)" href="#s32"/><use style="display: var(--s40, none)" href="#s40"/><use style="display: var(--s48, none)" href="#s48"/><use style="display: var(--s64, none)" href="#s64"/></symbol></defs><style>@media (max-width: 23.98px) {g{--s16:block;}}@media (min-width: 24px) and (max-width: 31.98px) {g{--s24:block;}}@media (min-width: 32px) and (max-width: 39.98px) {g{--s32:block;}}@media (min-width: 40px) and (max-width: 47.98px) {g{--s40:block;}}@media (min-width: 48px) and (max-width: 63.98px) {g{--s48:block;}}@media (min-width: 64px) {g{--s64:block;}}</style><g><use href="#i-wifion"/></g></svg>