<svg xmlns="http://www.w3.org/2000/svg"><defs><symbol id="i-wifino"><symbol id="s16" viewBox="0 0 16 16"><path d="M8.01 11.51c-1.24 0-2.25 1.01-2.25 2.25s1.01 2.25 2.25 2.25 2.25-1.01 2.25-2.25-1.01-2.25-2.25-2.25m0 2.99c-.41 0-.75-.34-.75-.75s.34-.75.75-.75.75.34.75.75-.34.75-.75.75M4.3 2.18 3.15 1.03A11.9 11.9 0 0 1 7.98 0c2.84 0 5.52.99 7.76 2.84.32.26.36.74.1 1.06-.15.18-.36.27-.58.27-.17 0-.34-.06-.48-.17-1.96-1.62-4.31-2.48-6.8-2.48-1.27 0-2.51.23-3.68.67Zm-3.8.44 1.07 1.07c-.11.09-.23.17-.34.26a.75.75 0 0 1-.95-1.16c.07-.06.15-.11.22-.16Zm12.38 4.45c-1.41-1.17-3.1-1.79-4.89-1.79-.19 0-.37.01-.56.02L6.11 3.98c.61-.13 1.24-.2 1.88-.2 2.14 0 4.16.74 5.84 2.13a.746.746 0 0 1-.48 1.32c-.17 0-.34-.06-.48-.17Zm-8.69-.76c-.36.21-.72.45-1.05.73a.76.76 0 0 1-1.06-.11.747.747 0 0 1 .11-1.05c.29-.24.6-.45.92-.65L4.2 6.32Zm6.06 1.82c.48.21.93.46 1.35.8.24.2.32.51.24.79zM7.12 9.24c-.63.13-1.23.4-1.75.83a.76.76 0 0 1-1.06-.11.747.747 0 0 1 .11-1.05c.46-.38.97-.65 1.51-.86zm8.88 5.7L14.94 16 0 1.06 1.07 0l14.94 14.94Z"/></symbol><symbol id="s24" viewBox="0 0 24 24"><path d="M12.01 17.64a3.171 3.171 0 0 0 0 6.34 3.171 3.171 0 0 0 0-6.34m0 4.6a1.419 1.419 0 1 1-.002-2.838 1.419 1.419 0 0 1 .002 2.838M5.56 3.08 4.23 1.75C6.64.6 9.26 0 11.97 0c4.28 0 8.34 1.49 11.72 4.28.37.31.42.86.12 1.23-.17.21-.42.32-.68.32-.2 0-.39-.07-.56-.2-3.06-2.53-6.73-3.87-10.61-3.87-2.23 0-4.39.46-6.41 1.32Zm-4.42.52 1.25 1.25c-.32.23-.63.45-.94.7-.38.31-.93.25-1.23-.12A.87.87 0 0 1 .34 4.2c.26-.21.53-.4.8-.6m18.51 6.75c-2.22-1.83-4.87-2.8-7.67-2.8-.61 0-1.21.05-1.81.15L8.68 6.21c1.07-.27 2.17-.41 3.29-.41 3.22 0 6.25 1.11 8.79 3.2.37.31.42.86.12 1.23-.17.21-.42.32-.67.32-.2 0-.39-.07-.56-.2M6.45 8.92c-.73.38-1.43.84-2.09 1.37-.38.31-.93.25-1.23-.12a.87.87 0 0 1 .12-1.23c.61-.49 1.24-.93 1.9-1.31l1.29 1.29Zm8.12 3.17c.99.33 1.93.84 2.77 1.53.37.31.42.86.12 1.23-.02.02-.05.03-.07.05l-2.82-2.82Zm-3.53 1.42c-1.18.17-2.29.65-3.25 1.44-.38.31-.93.25-1.23-.12a.87.87 0 0 1 .12-1.23c.88-.72 1.85-1.23 2.89-1.55l1.47 1.47Zm12.97 9.25L22.77 24 0 1.24 1.25 0z"/></symbol><symbol id="s32" viewBox="0 0 32 32"><path d="M15.98 23.79c-2.24 0-4.06 1.82-4.06 4.13s1.82 4.06 4.06 4.06h.07c2.24 0 4.07-1.82 4.07-4.13s-1.82-4.06-4.13-4.06Zm.07 6.2h-.07c-1.14 0-2.06-.93-2.06-2.13 0-1.14.93-2.06 2.13-2.06 1.14 0 2.07.93 2.07 2.13 0 1.14-.93 2.06-2.07 2.06m-9.23-26-1.5-1.5C8.63.87 12.23.02 15.96.02 21.69.02 27.12 2 31.64 5.74A1 1 0 0 1 31 7.51c-.22 0-.45-.08-.64-.23-4.16-3.44-9.14-5.26-14.41-5.26-3.19 0-6.27.67-9.13 1.96Zm-5.04.61 1.43 1.43c-.53.36-1.04.75-1.55 1.16a1 1 0 0 1-1.41-.14 1 1 0 0 1 .14-1.41c.45-.37.92-.71 1.38-1.04Zm24.65 9.04c-3.02-2.5-6.64-3.82-10.46-3.82-1.02 0-2.03.1-3.02.29l-1.68-1.68c1.52-.41 3.09-.61 4.7-.61 4.29 0 8.35 1.48 11.73 4.28a1 1 0 0 1-.64 1.77c-.22 0-.45-.08-.64-.23Zm-17.7-2.09c-1.1.55-2.15 1.22-3.13 2.02a1 1 0 0 1-1.41-.14 1 1 0 0 1 .14-1.41c.92-.75 1.9-1.4 2.91-1.96l1.48 1.48Zm6.26 6.26c-1.74.19-3.37.88-4.78 2.03a1 1 0 0 1-1.41-.14 1 1 0 0 1 .14-1.41c1.3-1.06 2.77-1.8 4.33-2.2zm4.02-1.63c1.47.42 2.84 1.14 4.07 2.16a1 1 0 0 1 .13 1.41c-.1.12-.23.21-.37.27L19 16.18Zm13 14.4-1.41 1.41L0 1.41 1.42 0l30.59 30.59Z"/></symbol><symbol id="s40" viewBox="0 0 40 40"><path d="M19.99 29.88c-2.75 0-5 2.24-5 5.05s2.24 5 5 5h.05c2.75 0 5-2.24 5-5.05s-2.24-5-5.05-5m.05 7.8h-.05c-1.52 0-2.75-1.23-2.75-2.8s1.23-2.75 2.8-2.75 2.75 1.23 2.75 2.8-1.23 2.75-2.75 2.75M8.06 4.83 6.37 3.14c4.21-2.1 8.81-3.2 13.57-3.2 7.18 0 13.98 2.48 19.64 7.17.48.4.55 1.11.15 1.59-.22.27-.54.41-.87.41-.25 0-.51-.09-.72-.26-5.26-4.35-11.55-6.66-18.21-6.66-4.15 0-8.17.9-11.88 2.64Zm-5.68.7L4 7.15c-.72.49-1.43 1.02-2.12 1.58-.48.39-1.19.32-1.58-.16s-.32-1.19.16-1.58c.63-.51 1.27-.99 1.92-1.45ZM33.2 16.86c-3.82-3.17-8.4-4.84-13.24-4.84-1.44 0-2.86.17-4.25.46l-1.87-1.87c1.97-.55 4.02-.85 6.12-.85 5.37 0 10.44 1.85 14.67 5.36.48.4.55 1.11.15 1.59-.22.27-.54.41-.87.41-.25 0-.51-.09-.72-.26Zm-22.22-2.75c-1.45.71-2.85 1.59-4.15 2.65-.48.39-1.19.32-1.58-.16s-.32-1.19.16-1.58c1.23-1.01 2.54-1.85 3.9-2.58zm12.45 6.08c1.95.51 3.78 1.44 5.4 2.79.48.4.55 1.11.15 1.59-.2.25-.49.37-.78.39l-4.77-4.76Zm-4.51 1.86c-2.29.21-4.44 1.1-6.29 2.61-.48.39-1.19.32-1.58-.16s-.32-1.19.16-1.58c1.72-1.41 3.67-2.35 5.75-2.82l1.96 1.96Zm21.09 16.29-1.59 1.6L.01 1.56 1.6-.03l38.41 38.38Z"/></symbol><symbol id="s48" viewBox="0 0 48 48"><path d="M24 35.99c-3.27 0-5.93 2.66-5.93 5.97s2.66 5.92 5.93 5.92h.04c3.27 0 5.93-2.66 5.93-5.97s-2.66-5.92-5.97-5.92m.04 9.39H24c-1.89 0-3.43-1.54-3.43-3.47s1.54-3.43 3.47-3.43 3.43 1.54 3.43 3.47-1.54 3.43-3.43 3.43M9.31 5.78 7.44 3.91A36.26 36.26 0 0 1 23.93-.03c8.64 0 16.81 2.98 23.62 8.61.53.44.61 1.23.17 1.76-.25.3-.6.45-.96.45-.28 0-.56-.09-.8-.29-6.36-5.25-13.97-8.03-22.02-8.03-5.12 0-10.06 1.13-14.62 3.3ZM3 6.55l1.8 1.8c-.93.62-1.84 1.29-2.72 2.01-.53.44-1.32.36-1.76-.18-.44-.53-.36-1.32.18-1.76.81-.66 1.65-1.29 2.5-1.87m10.22 10.2c-1.81.87-3.55 1.96-5.16 3.28-.54.44-1.32.36-1.76-.18-.44-.53-.36-1.32.18-1.76 1.54-1.26 3.18-2.31 4.89-3.2l1.86 1.85Zm26.76 3.39c-4.63-3.82-10.17-5.85-16.03-5.85-1.87 0-3.7.23-5.49.63l-2.06-2.06c2.43-.7 4.96-1.08 7.55-1.08 6.45 0 12.54 2.22 17.62 6.42.53.44.61 1.23.17 1.76-.25.3-.6.45-.96.45-.28 0-.56-.09-.8-.29Zm-12.16 4.13c2.44.59 4.74 1.72 6.76 3.39.53.44.61 1.23.17 1.76a1.24 1.24 0 0 1-1.4.37l-5.54-5.53Zm-4.99 2.08c-2.83.23-5.5 1.32-7.78 3.18-.54.44-1.32.35-1.76-.18s-.36-1.32.18-1.76c2.14-1.74 4.57-2.89 7.16-3.43l2.19 2.19Zm25.18 19.86-1.77 1.77L.01 1.79 1.78.03z"/></symbol><symbol id="s64" viewBox="0 0 64 64"><path d="M32.1 48.45h-.13c-4.21 0-7.64 3.42-7.64 7.63v.13c0 4.21 3.43 7.63 7.64 7.63h.13c4.21 0 7.64-3.42 7.64-7.63v-.13c0-4.21-3.43-7.63-7.64-7.63m4.89 7.76c0 2.69-2.19 4.88-4.89 4.88h-.13c-2.7 0-4.89-2.19-4.89-4.88v-.13c0-2.69 2.19-4.88 4.89-4.88h.13c2.7 0 4.89 2.19 4.89 4.88zM4.46 8.36l1.99 1.98a50 50 0 0 0-4.16 3.04c-.59.48-1.45.39-1.93-.2s-.39-1.45.2-1.93c1.27-1.03 2.58-1.99 3.91-2.89Zm6.93-.85L9.34 5.46A48.6 48.6 0 0 1 31.91-.06c11.56 0 22.5 3.98 31.62 11.52.59.48.67 1.35.18 1.93-.27.33-.67.5-1.06.5-.31 0-.62-.1-.87-.32C53.15 6.46 42.82 2.69 31.91 2.69c-7.2 0-14.15 1.65-20.52 4.81Zm6.44 14.2a35.5 35.5 0 0 0-7.5 4.7c-.59.48-1.45.39-1.93-.2s-.39-1.45.2-1.93c2.26-1.84 4.66-3.38 7.18-4.63l2.06 2.05Zm35.9 4.85c-6.29-5.2-13.82-7.94-21.79-7.94-2.86 0-5.66.36-8.38 1.06l-2.23-2.23a36.3 36.3 0 0 1 10.61-1.57c8.61 0 16.75 2.97 23.54 8.57.59.48.67 1.35.18 1.93-.27.33-.67.5-1.06.5-.31 0-.62-.1-.87-.32m-17.31 5.95c3.49.72 6.76 2.29 9.63 4.65.59.48.67 1.35.18 1.93-.27.33-.67.5-1.06.5-.31 0-.62-.1-.87-.32-1.05-.86-2.16-1.59-3.31-2.21l-4.56-4.56Zm-5.45 2.32c-4.08.21-7.94 1.7-11.21 4.37-.59.48-1.45.39-1.93-.2s-.39-1.45.2-1.93c3.09-2.52 6.66-4.13 10.45-4.74l2.5 2.5ZM1.96.04 64.01 62l-1.94 1.94L.02 1.98z"/></symbol><use style="display: var(--s16, none)" href="#s16"/><use style="display: var(--s24, none)" href="#s24"/><use style="display: var(--s32, none)" href="#s32"/><use style="display: var(--s40, none)" href="#s40"/><use style="display: var(--s48, none)" href="#s48"/><use style="display: var(--s64, none)" href="#s64"/></symbol></defs><style>@media (max-width: 23.98px) {g{--s16:block;}}@media (min-width: 24px) and (max-width: 31.98px) {g{--s24:block;}}@media (min-width: 32px) and (max-width: 39.98px) {g{--s32:block;}}@media (min-width: 40px) and (max-width: 47.98px) {g{--s40:block;}}@media (min-width: 48px) and (max-width: 63.98px) {g{--s48:block;}}@media (min-width: 64px) {g{--s64:block;}}</style><g><use href="#i-wifino"/></g></svg>