<svg xmlns="http://www.w3.org/2000/svg"><defs><symbol id="i-xing"><symbol id="s16" viewBox="0 0 16 16"><path d="M7.71 6.9 5.99 9.93H3.93L5.65 6.9l-1.16-2h2.06zm5.03-3.97h-2.06L7.34 8.9l2.22 4.03h2.03L9.4 8.9z"/></symbol><symbol id="s24" viewBox="0 0 24 24"><path d="m11.56 10.34-2.58 4.55H5.89l2.58-4.55-1.73-3h3.09zm7.55-5.96h-3.09L11 13.33l3.33 6.05h3.05l-3.28-6.05 5.02-8.95Z"/></symbol><symbol id="s32" viewBox="0 0 32 32"><path d="m15.42 13.78-3.44 6.06H7.86l3.44-6.06-2.31-4h4.12zm10.06-7.94h-4.13l-6.69 11.94 4.44 8.06h4.06l-4.38-8.06 6.69-11.94Z"/></symbol><symbol id="s40" viewBox="0 0 40 40"><path d="m19.27 17.25-4.3 7.58H9.81l4.3-7.58-2.89-5h5.16zm12.58-9.93h-5.16l-8.36 14.92 5.55 10.08h5.08l-5.47-10.08z"/></symbol><symbol id="s48" viewBox="0 0 48 48"><path d="m23.13 20.72-5.16 9.09h-6.19l5.16-9.09-3.47-6h6.19zM38.22 8.81h-6.19L22 26.72l6.66 12.09h6.09l-6.56-12.09z"/></symbol><symbol id="s64" viewBox="0 0 64 64"><path d="m30.84 27.6-6.88 12.12h-8.25l6.88-12.12-4.63-8h8.25l4.62 8Zm20.12-15.87h-8.25L29.34 35.61l8.87 16.12h8.13l-8.75-16.12 13.38-23.88Z"/></symbol><use style="display: var(--s16, none)" href="#s16"/><use style="display: var(--s24, none)" href="#s24"/><use style="display: var(--s32, none)" href="#s32"/><use style="display: var(--s40, none)" href="#s40"/><use style="display: var(--s48, none)" href="#s48"/><use style="display: var(--s64, none)" href="#s64"/></symbol></defs><style>@media (max-width: 23.98px) {g{--s16:block;}}@media (min-width: 24px) and (max-width: 31.98px) {g{--s24:block;}}@media (min-width: 32px) and (max-width: 39.98px) {g{--s32:block;}}@media (min-width: 40px) and (max-width: 47.98px) {g{--s40:block;}}@media (min-width: 48px) and (max-width: 63.98px) {g{--s48:block;}}@media (min-width: 64px) {g{--s64:block;}}</style><g><use href="#i-xing"/></g></svg>