<?xml version="1.0" encoding="UTF-8"?>
<svg id="a" data-name="3219" xmlns="http://www.w3.org/2000/svg" viewBox="0 0 48 48">
  <path d="M24,0C10.77,0,0,10.77,0,24s10.77,24,24,24,24-10.77,24-24S37.23,0,24,0ZM24,45.49c-11.85,0-21.49-9.64-21.49-21.49S12.15,2.52,24,2.52s21.49,9.64,21.49,21.49-9.64,21.49-21.49,21.49ZM24,15.78c2.52,0,4.57-2.05,4.57-4.57s-2.05-4.57-4.57-4.57-4.57,2.05-4.57,4.57,2.05,4.57,4.57,4.57ZM24,9.15c1.14,0,2.06.92,2.06,2.06s-.92,2.06-2.06,2.06-2.06-.92-2.06-2.06.92-2.06,2.06-2.06ZM39.92,17.31h0c-.52-1.75-2.37-2.74-4.11-2.22l-10.12,3.02h-3.37l-10.12-3.02c-1.75-.52-3.59.47-4.11,2.22-.52,1.75.48,3.59,2.22,4.11l8.34,2.49v3.12l-4.65,8.02c-.48.73-.64,1.6-.47,2.45.18.85.68,1.58,1.4,2.06.73.48,1.6.64,2.45.47.85-.18,1.58-.68,2.09-1.45l4.47-7.43,4.61,7.47c.48.73,1.21,1.23,2.06,1.4.22.05.45.07.67.07.63,0,1.24-.18,1.78-.53.73-.48,1.23-1.21,1.4-2.06.18-.85.01-1.72-.43-2.39l-4.69-8.08v-3.12l8.34-2.49c1.75-.52,2.74-2.37,2.22-4.11ZM36.98,19.01l-10.14,3.02v5.67l5.06,8.72c.11.17.15.37.11.56-.04.2-.16.36-.32.47-.17.11-.37.14-.56.11-.2-.04-.36-.16-.46-.29l-6.76-10.94-6.57,10.91c-.11.17-.28.28-.47.32-.2.04-.39,0-.56-.11-.17-.11-.28-.28-.32-.47-.04-.2,0-.39.14-.62l5.03-8.67v-5.67l-10.14-3.02c-.42-.12-.66-.57-.53-.99.13-.42.57-.66.99-.53l10.47,3.12h4.1l10.47-3.12c.42-.12.86.11.99.53.12.42-.12.86-.53.99Z" fill="#1e1e1c"/>
</svg>