<?xml version="1.0" encoding="UTF-8"?>
<svg id="a" data-name="3219" xmlns="http://www.w3.org/2000/svg" viewBox="0 0 32 32">
  <path d="M16,10.32c1.67,0,3.03-1.36,3.03-3.03s-1.36-3.03-3.03-3.03-3.03,1.36-3.03,3.03,1.36,3.03,3.03,3.03ZM16,6.26c.57,0,1.03.46,1.03,1.03s-.46,1.03-1.03,1.03-1.03-.46-1.03-1.03.46-1.03,1.03-1.03ZM26.66,11.53h0c-.37-1.24-1.68-1.95-2.93-1.58l-6.65,1.98h-2.17l-6.65-1.98c-1.24-.37-2.56.34-2.93,1.58-.37,1.24.34,2.56,1.58,2.93l5.38,1.6v1.88l-3.04,5.24c-.7,1.07-.4,2.51.67,3.21.38.25.82.38,1.27.38.16,0,.32-.02.48-.05.61-.13,1.13-.48,1.49-1.03l2.8-4.65,2.89,4.69c.34.52.86.87,1.47,1,.61.13,1.23,0,1.75-.33,1.07-.7,1.37-2.15.7-3.17l-3.07-5.29v-1.88l5.38-1.6c1.24-.37,1.95-1.68,1.58-2.93ZM24.51,12.54l-6.81,2.03v3.91l3.37,5.8c.1.15.05.35-.09.44-.1.06-.19.06-.24.04-.05,0-.14-.04-.19-.12l-4.6-7.46-4.47,7.43c-.06.1-.15.13-.2.14-.05.01-.14.02-.24-.04-.15-.1-.19-.3-.06-.49l3.34-5.76v-3.91l-6.81-2.03c-.18-.06-.29-.25-.24-.44.04-.15.18-.25.34-.25.03,0,.07,0,.1.01l6.79,2.03,2.75.04,7.08-2.07c.18-.05.38.05.44.23.05.19-.05.38-.24.44ZM16,0C7.18,0,0,7.18,0,16s7.18,16,16,16,16-7.18,16-16S24.82,0,16,0ZM16,30c-7.72,0-14-6.28-14-14S8.28,2,16,2s14,6.28,14,14-6.28,14-14,14Z" fill="#1e1e1c"/>
</svg>