<?xml version="1.0" encoding="UTF-8"?>
<svg id="a" data-name="3219" xmlns="http://www.w3.org/2000/svg" viewBox="0 0 16 16">
  <path d="M6.35,3.72c0-.91.74-1.65,1.65-1.65s1.65.74,1.65,1.65-.74,1.65-1.65,1.65-1.65-.74-1.65-1.65ZM12.88,6.17c-.1-.34-.33-.62-.64-.79-.31-.17-.67-.21-1.01-.1l-2.8.84h-.84l-2.8-.84c-.34-.1-.7-.06-1.01.1-.31.17-.54.45-.64.79-.1.34-.07.7.1,1.01s.45.54.79.64l2.08.62v.48l-1.25,2.15c-.19.29-.26.65-.19.99s.27.64.57.83c.22.14.47.22.72.22.09,0,.18,0,.27-.03.35-.07.64-.27.85-.59l.93-1.54.97,1.57c.19.3.49.5.83.57.35.07.7,0,.99-.19s.5-.49.57-.83,0-.7-.17-.95l-1.27-2.19v-.48l2.08-.62c.34-.1.62-.33.79-.64.17-.31.21-.67.1-1.01ZM16,8c0,4.41-3.59,8-8,8S0,12.41,0,8,3.59,0,8,0s8,3.59,8,8ZM14.5,8c0-3.58-2.92-6.5-6.5-6.5S1.5,4.42,1.5,8s2.92,6.5,6.5,6.5,6.5-2.92,6.5-6.5Z" fill="#1e1e1c"/>
</svg>