<?xml version="1.0" encoding="UTF-8"?>
<svg id="a" data-name="3219" xmlns="http://www.w3.org/2000/svg" viewBox="0 0 32 32">
  <path d="M24.02,0C19.61,0,16.03,3.58,16.03,7.98c0,1.72.72,3.61,1.71,5.39H0v18.63h23.96v-10.7l.06.06.71-.71c.3-.3,7.28-7.33,7.28-12.67C32,3.58,28.42,0,24.02,0ZM18.98,15.38c.24.35.48.69.72,1.02l-6.23,6.68c-.8.86-2.17.86-2.98,0l-7.19-7.7h15.67ZM2,16.91l5.41,5.79-5.41,5.4v-11.2ZM2.94,30l5.84-5.83.25.27c.78.84,1.83,1.3,2.95,1.3s2.17-.46,2.95-1.3l.25-.27,5.84,5.83H2.94ZM16.55,22.71l4.39-4.71c.36.45.71.85,1.02,1.2v8.91l-5.41-5.4ZM24.02,18.5c-2.15-2.34-5.98-7.18-5.98-10.52s2.68-5.98,5.98-5.98,5.98,2.68,5.98,5.98-3.83,8.18-5.98,10.52ZM24.02,4.77c-1.79,0-3.25,1.46-3.25,3.25s1.46,3.25,3.25,3.25,3.25-1.46,3.25-3.25-1.46-3.25-3.25-3.25ZM24.02,9.27c-.69,0-1.25-.56-1.25-1.25s.56-1.25,1.25-1.25,1.25.56,1.25,1.25-.56,1.25-1.25,1.25Z" fill="#1e1e1c"/>
</svg>