<?xml version="1.0" encoding="UTF-8"?>
<svg id="a" data-name="3219" xmlns="http://www.w3.org/2000/svg" viewBox="0 0 48 48">
  <path d="M48,12.43C48,5.58,42.43,0,35.57,0s-12.42,5.57-12.42,12.43c0,2.54,1.01,5.33,2.43,8H0v27.58h35.59v-14.67l.87-.87c.47-.47,11.54-11.64,11.54-20.04ZM35.57,2.5c5.47,0,9.92,4.45,9.92,9.93,0,6.11-7.34,14.56-9.92,17.34-2.58-2.78-9.92-11.24-9.92-17.34,0-5.47,4.45-9.93,9.92-9.93ZM27.05,22.93c.6.95,1.24,1.87,1.87,2.73l-8.69,9.32c-.66.7-1.52,1.09-2.43,1.09s-1.78-.39-2.43-1.09l-11.24-12.05h22.92ZM2.5,24.85l8.78,9.41-8.78,8.78v-18.19ZM3.57,45.5l9.41-9.41.55.59c1.13,1.21,2.64,1.88,4.26,1.88h0c1.61,0,3.13-.67,4.26-1.88l.55-.59,9.41,9.41H3.57ZM24.31,34.26l6.14-6.59c.98,1.23,1.9,2.29,2.63,3.1v12.27l-8.78-8.78ZM40.35,12.49c0-2.63-2.14-4.77-4.77-4.77s-4.77,2.14-4.77,4.77,2.14,4.77,4.77,4.77,4.77-2.14,4.77-4.77ZM33.3,12.49c0-1.25,1.02-2.27,2.27-2.27s2.27,1.02,2.27,2.27-1.02,2.27-2.27,2.27-2.27-1.02-2.27-2.27Z" fill="#1e1e1c"/>
</svg>