<?xml version="1.0" encoding="UTF-8"?>
<svg id="a" data-name="3219" xmlns="http://www.w3.org/2000/svg" viewBox="0 0 24 24">
  <path d="M5.43,16.95L-.03,22.4v-11.19l5.47,5.74ZM11.33,18.32c-.61.65-1.42,1.01-2.29,1.01s-1.69-.36-2.3-1.01l-.1-.1L.85,23.99h16.37l-5.79-5.78-.1.11ZM10.06,17.13l3.71-3.9c-.74-1.05-1.46-2.2-2.02-3.37H1.09l6.92,7.27c.56.6,1.49.6,2.04,0ZM14.83,14.65l-2.19,2.3,5.47,5.46v-4.09l-.54-.54c-.12-.12-1.35-1.36-2.74-3.13ZM18.18,15.88s-.05-.06-.07-.08h0s0,0,0,0c-.12-.13-.25-.28-.39-.43-.02-.03-.04-.05-.07-.08-.14-.16-.29-.33-.44-.51-.01-.01-.02-.03-.03-.04-1.9-2.22-4.77-6.06-4.77-8.98C12.4,2.58,15,0,18.18,0s5.78,2.59,5.78,5.77c0,3.51-4.17,8.38-5.78,10.12ZM15.28,5.8c0,1.6,1.3,2.9,2.91,2.9s2.91-1.3,2.91-2.9-1.3-2.9-2.91-2.9-2.91,1.3-2.91,2.9ZM18.18,6.95c.64,0,1.15-.52,1.15-1.15s-.52-1.15-1.15-1.15-1.15.52-1.15,1.15.52,1.15,1.15,1.15Z" fill="#1e1e1c"/>
</svg>