<?xml version="1.0" encoding="UTF-8"?>
<svg id="a" data-name="3219" xmlns="http://www.w3.org/2000/svg" viewBox="0 0 24 24">
  <path d="M24,6.06C24,2.72,21.28,0,17.94,0s-6.05,2.71-6.05,6.05c0,1.21.48,2.53,1.14,3.8H0v14.15h18.12v-8.01l.44-.44c.22-.22,5.43-5.48,5.43-9.49ZM17.94,1.75c2.37,0,4.3,1.93,4.3,4.3s-2.7,5.85-4.3,7.6c-1.6-1.76-4.3-5.22-4.3-7.6s1.93-4.3,4.3-4.3ZM14.09,11.6c.16.24.33.47.49.7l-4.5,4.83c-.55.59-1.48.59-2.03,0l-5.16-5.53h11.2ZM1.75,12.95l3.72,3.99-3.72,3.72v-7.71ZM2.63,22.25l4.04-4.03.1.1c.61.65,1.42,1.01,2.3,1.01s1.67-.36,2.28-1l3.92,3.92H2.63ZM12.54,17.06l3.13-3.36c.25.3.49.59.7.82v6.36l-3.83-3.83ZM20.4,6.08c0-1.35-1.1-2.45-2.45-2.45s-2.45,1.1-2.45,2.45,1.1,2.45,2.45,2.45,2.45-1.1,2.45-2.45ZM17.24,6.08c0-.39.32-.7.7-.7s.7.32.7.7-.32.7-.7.7-.7-.32-.7-.7Z" fill="#1e1e1c"/>
</svg>