<?xml version="1.0" encoding="UTF-8"?>
<svg id="a" data-name="3219" xmlns="http://www.w3.org/2000/svg" viewBox="0 0 32 32">
  <path d="M7.38,22.7L-.02,30.09v-15.2l7.4,7.81ZM14.91,24.43c-.78.83-1.83,1.3-2.95,1.3s-2.17-.46-2.95-1.3l-.26-.27L.92,31.98h22.09l-7.84-7.83-.26.27ZM13.45,23.06l4.77-5.04c-1.03-1.45-2.02-3.04-2.79-4.67H1.28l9.19,9.7c.81.87,2.18.86,2.98,0ZM19.43,19.66l-2.89,3.05,7.4,7.39v-5.36l-.66-.66c-.16-.16-1.91-1.93-3.85-4.42ZM23.99,9.91c1.05,0,1.9-.85,1.9-1.9s-.85-1.89-1.9-1.89-1.9.85-1.9,1.89.85,1.9,1.9,1.9ZM23.99,21.92s-.03-.03-.04-.05h0s0,0,0,0c-.17-.18-.36-.4-.58-.63-.03-.03-.05-.06-.08-.09-.69-.77-1.55-1.79-2.46-2.96,0,0,0,0,0,0h0c-.4-.52-.8-1.07-1.2-1.64h0s0,0,0,0c-1.91-2.74-3.63-5.93-3.63-8.58C15.99,3.57,19.58-.02,23.99-.02s7.99,3.58,7.99,7.98c0,4.91-5.92,11.72-7.99,13.95ZM20.09,8.01c0,2.15,1.75,3.9,3.9,3.9s3.9-1.75,3.9-3.9-1.75-3.89-3.9-3.89-3.9,1.75-3.9,3.89Z" fill="#1e1e1c"/>
</svg>