<?xml version="1.0" encoding="UTF-8"?>
<svg id="a" data-name="3219" xmlns="http://www.w3.org/2000/svg" viewBox="0 0 64 64">
  <path d="M15.25,46.01L-.03,61.25v-31.36l15.28,16.12ZM29.13,49.04c-1.46,1.56-3.42,2.42-5.51,2.42s-4.05-.86-5.51-2.43l-.97-1.02L.98,64.13h45.29l-16.17-16.12-.97,1.03ZM23.62,48.72c1.32,0,2.56-.55,3.5-1.56l9.42-9.94c-2.11-2.92-4.19-6.18-5.8-9.5H1.7l18.42,19.43c.95,1.01,2.19,1.57,3.51,1.57ZM46.26,48.73c-.34-.34-4.05-4.07-8.06-9.28l-6.21,6.56,15.28,15.24v-11.59l-.04.04-.97-.97ZM47.24,21.23c2.39,0,4.33-1.94,4.33-4.32s-1.94-4.32-4.33-4.32-4.33,1.94-4.33,4.32,1.94,4.32,4.33,4.32ZM47.28,45.74h0s-.03.03-.04.04c-.16-.17-.34-.36-.53-.57-.04-.04-.08-.08-.12-.12-.41-.45-.89-.97-1.42-1.57-.02-.02-.04-.05-.06-.07-.56-.63-1.17-1.34-1.82-2.11,0,0,0,0,0,0-.99-1.17-2.06-2.49-3.14-3.91,0,0,0,0,0,0h0c-.55-.72-1.11-1.47-1.66-2.24h0s0,0,0,0c-.42-.58-.83-1.18-1.24-1.78,0,0,0-.01-.01-.02-1.23-1.82-2.4-3.73-3.41-5.65,0,0,0,0,0,0h0c-1.96-3.73-3.31-7.53-3.31-10.91C30.51,7.61,38.01.13,47.24.13s16.73,7.48,16.73,16.68c0,10.46-12.94,24.95-16.69,28.93ZM40.15,16.91c0,3.89,3.18,7.06,7.08,7.06s7.08-3.17,7.08-7.06-3.18-7.06-7.08-7.06-7.08,3.17-7.08,7.06Z" fill="#1e1e1c"/>
</svg>