<?xml version="1.0" encoding="UTF-8"?>
<svg id="a" data-name="3219" xmlns="http://www.w3.org/2000/svg" viewBox="0 0 64 64">
  <path d="M63.99,16.77C63.99,7.59,56.5.12,47.29.12s-16.7,7.47-16.7,16.65c0,3.47,1.41,7.29,3.39,10.95H0v36.4h47.3v-19.22l.97-.97c.64-.64,15.73-15.81,15.73-27.16ZM47.29,2.87c7.69,0,13.95,6.24,13.95,13.91,0,8.67-10.63,20.68-13.95,24.21-3.31-3.53-13.95-15.54-13.95-24.21,0-7.67,6.26-13.91,13.95-13.91ZM35.58,30.47c.97,1.55,2,3.04,3.03,4.43l-11.47,12.26c-.94,1.01-2.18,1.56-3.5,1.56s-2.56-.55-3.5-1.56L4.53,30.47h31.05ZM2.74,32.58l12.55,13.42-12.55,12.51v-25.93ZM3.75,61.38l13.42-13.38.96,1.03c1.47,1.57,3.42,2.43,5.51,2.43s4.04-.86,5.51-2.43l.96-1.03,13.42,13.38H3.75ZM31.99,45.99l8.31-8.88c1.62,2.04,3.13,3.75,4.24,4.96v16.44l-12.55-12.51ZM53.5,16.85c0-3.41-2.78-6.19-6.21-6.19s-6.2,2.77-6.2,6.19,2.78,6.19,6.2,6.19,6.21-2.77,6.21-6.19ZM43.84,16.85c0-1.9,1.55-3.44,3.45-3.44s3.45,1.54,3.45,3.44-1.55,3.44-3.45,3.44-3.45-1.54-3.45-3.44Z" fill="#1e1e1c"/>
</svg>