<?xml version="1.0" encoding="UTF-8"?>
<svg id="a" data-name="3219" xmlns="http://www.w3.org/2000/svg" viewBox="0 0 40 40">
  <path d="M29.49,0H10.51C8.65,0,7.13,1.51,7.13,3.38v33.25c0,1.86,1.51,3.38,3.38,3.38h18.98c1.86,0,3.38-1.51,3.38-3.38V3.38C32.87,1.51,31.35,0,29.49,0ZM10.51,2.25h18.98c.62,0,1.12.51,1.12,1.13v25.86H9.38V3.38c0-.62.5-1.13,1.12-1.13ZM29.49,37.75H10.51c-.62,0-1.12-.51-1.12-1.13v-5.14h21.23v5.14c0,.62-.5,1.13-1.12,1.13ZM18.88,33.59h2.25v2.25h-2.25v-2.25Z" fill="#1e1e1c"/>
</svg>