<?xml version="1.0" encoding="UTF-8"?>
<svg id="a" data-name="3219" xmlns="http://www.w3.org/2000/svg" viewBox="0 0 48 48">
  <path d="M35.66.01H12.34c-2.07,0-3.75,1.68-3.75,3.75v40.5c0,2.07,1.68,3.75,3.75,3.75h23.32c2.07,0,3.75-1.68,3.75-3.75V3.76C39.41,1.69,37.73.01,35.66.01ZM12.34,2.51h23.32c.69,0,1.25.56,1.25,1.25v31.49H11.09V3.76c0-.69.56-1.25,1.25-1.25ZM35.66,45.51H12.34c-.69,0-1.25-.56-1.25-1.25v-6.51h25.82v6.51c0,.69-.56,1.25-1.25,1.25ZM22.75,40.4h2.5v2.71h-2.5v-2.71Z" fill="#1e1e1c"/>
</svg>