<?xml version="1.0" encoding="UTF-8"?>
<svg id="a" data-name="3219" xmlns="http://www.w3.org/2000/svg" viewBox="0 0 32 32">
  <path d="M.01.03v32h32V.03H.01ZM26.48,21.21c-.33.66-1.11,1.11-2.69,1.38-.07.2-.07.33-.13.52-.13.52-.59.85-1.11.85-.2,0-.33,0-.59-.07-.33-.07-.59-.13-.92-.13-.2,0-.46,0-.66.07-.33.07-.72.26-1.11.59-.72.52-1.64,1.18-3.08,1.18h-.26c-1.44,0-2.36-.66-3.08-1.18-.39-.26-.79-.52-1.11-.59-.26-.07-.46-.07-.66-.07-.39,0-.66.07-.92.13-.2,0-.39.07-.59.07-.52,0-.98-.33-1.11-.85-.07-.2-.07-.39-.13-.52-1.57-.26-2.43-1.11-2.69-1.77,0-.13-.07-.26-.07-.39,0-.52.39-1.05.92-1.11,2.3-.39,3.41-2.89,3.41-2.89.07-.07.07-.13.07-.13-.13-.07-.52-.2-.66-.26-.13-.07-.26-.07-.33-.13-1.38-.52-1.44-1.31-1.38-1.77.2-.72.98-1.18,1.64-1.18.2,0,.39.07.59.13.07.07.2.13.26.13-.07-1.38-.13-3.02.33-4.07,1.44-3.28,4.52-3.54,5.44-3.54h.39c.92,0,4,.2,5.44,3.48.46,1.05.39,2.62.33,4,.07,0,.13-.07.2-.07.26-.13.46-.13.66-.13.26,0,.46.07.66.13.66.2,1.05.72,1.05,1.31,0,.46-.26,1.11-1.44,1.57-.07.07-.2.07-.33.13-.13,0-.52.13-.66.26,0,0,0,.07.07.13,0,0,1.11,2.49,3.41,2.89.59.07.92.98.92,1.51,0,.13,0,.26-.07.39Z" fill="#1d1d1b"/>
</svg>