<?xml version="1.0" encoding="UTF-8"?>
<svg id="a" data-name="3219" xmlns="http://www.w3.org/2000/svg" viewBox="0 0 32 32">
  <path d="M22.43,2.28c-2.38,0-4.67.91-6.43,2.53-1.76-1.62-4.05-2.53-6.43-2.53C4.29,2.28,0,6.58,0,11.86c0,9.07,14.66,17.38,15.28,17.73l.48.27.48-.26c.64-.35,15.75-8.66,15.75-17.74,0-5.28-4.29-9.58-9.57-9.58ZM15.78,27.57c-2.49-1.49-13.78-8.64-13.78-15.71,0-4.18,3.4-7.58,7.57-7.58,1.91,0,3.74.75,5.15,2.07-.09.05-.19.11-.26.19-.21.22-.9,1-1.08,1.75-.13.53.2,1.06.73,1.19.08.02.16.03.24.03.45,0,.85-.31.97-.76.04-.15.33-.56.59-.84.04-.05.06-.1.09-.15l.75-.86c1.45-1.66,3.52-2.62,5.68-2.62,4.18,0,7.57,3.4,7.57,7.58,0,7.06-11.68,14.23-14.22,15.71Z" fill="#1e1e1c"/>
</svg>