<?xml version="1.0" encoding="UTF-8"?>
<svg id="a" data-name="3219" xmlns="http://www.w3.org/2000/svg" viewBox="0 0 24 24">
  <path d="M22.52,11.13s0,0,0,0c-.48-.53-1.12-.82-1.8-.82h0c-.69,0-1.33.29-1.79.81l-1.62,1.71V3.99c0-1.39-1.13-2.52-2.52-2.52-.34,0-.65.07-.95.19C13.49.7,12.57,0,11.49,0c-1.37,0-2.48,1.1-2.5,2.46-.24-.08-.5-.13-.77-.13-1.4,0-2.53,1.14-2.53,2.53v.68c-.24-.08-.5-.13-.77-.13-1.4,0-2.53,1.14-2.53,2.6l.8,10.16s.02.08.03.12c.21,2.8,2.55,5.01,5.4,5.01h2.89c.68.46,1.46.7,2.26.7,1.17,0,2.84-.46,4.12-2.69l4.62-6.45c.94-1.05.94-2.69,0-3.74ZM21.15,13.77l-4.62,6.45c-.07.08-.11.15-.17.26-.69,1.19-1.53,1.77-2.58,1.77-.51,0-1.01-.18-1.44-.51-.15-.12-.34-.18-.54-.18h-.59c.01-.06.04-.12.04-.18,0-.13-.02-.26-.04-.39,0-.03.02-.05.02-.08,0-1.57.81-2.66,1.55-2.66.48,0,.88-.39.88-.88s-.39-.88-.88-.88c-1.24,0-2.28.88-2.84,2.19-.48-.36-1.07-.57-1.69-.57-.48,0-.88.39-.88.88s.39.88.88.88c.69,0,1.26.67,1.26,1.5,0,.06.02.12.04.18h-.91c-2.02,0-3.67-1.64-3.67-3.66h-.03s-.79-9.95-.79-9.95c0-.43.35-.78.78-.78.4,0,.72.31.77.7v3.98c0,.12.03.24.07.35.12.35.43.6.82.6.48,0,.88-.39.88-.88v-3.96c0-.06-.01-.11-.02-.16v-2.91c0-.43.35-.78.78-.78.4,0,.71.3.76.68v7.16c0,.48.39.88.88.88.4,0,.72-.27.83-.63.04-.11.07-.22.07-.34v-6.97c0-.07-.01-.13-.02-.19v-2.16c0-.42.34-.75.76-.75s.76.34.76.75v9.29c0,.48.39.88.88.88s.88-.39.88-.88v-1.85s0,0,0-.01v-5.36s0,0,0-.01v-.07c0-.15,0-.27,0-.37,0-.04.01-.09.01-.13,0-.42.35-.77.77-.77s.77.34.77.77v11.03c0,.36.21.68.55.81.33.13.71.05.96-.21l3.15-3.32c.14-.16.32-.24.5-.24s.36.09.5.24c.34.38.34,1.02-.06,1.47Z" fill="#1e1e1c"/>
</svg>