<?xml version="1.0" encoding="UTF-8"?>
<svg id="a" data-name="3219" xmlns="http://www.w3.org/2000/svg" viewBox="0 0 40 40">
  <path d="M37.36,19c-.73-.82-1.72-1.27-2.77-1.27s-2.04.45-2.75,1.24l-3.3,3.49V6.34c0-2.14-1.73-3.88-3.87-3.88-.65,0-1.25.18-1.79.46C22.46,1.25,20.95,0,19.14,0c-2.13,0-3.86,1.73-3.86,3.86v.41c-.49-.23-1.04-.36-1.62-.36-2.15,0-3.9,1.75-3.9,3.9v1.62c-.5-.23-1.04-.36-1.62-.36-2.15,0-3.9,1.75-3.9,3.99l1.34,17.5c0,.07.04.14.06.21.33,4.51,4.11,8.08,8.71,8.08h4.95c1.11.77,2.38,1.17,3.69,1.17,1.87,0,4.53-.74,6.57-4.27l.06-.1h0s7.81-10.89,7.81-10.89c1.42-1.63,1.4-4.15-.04-5.76ZM35.68,23.3s-.05.06-.08.1l-7.82,10.91c-.07.09-.12.18-.19.31-1.2,2.08-2.75,3.14-4.62,3.14-.94,0-1.85-.32-2.63-.93-.2-.15-.44-.24-.69-.24h-1.5c.13-.19.23-.4.23-.65,0-.22-.04-.44-.06-.65,0-.04.03-.08.03-.13,0-.76.13-1.48.33-2.12l1.62-2.37c.31-.19.64-.31.98-.31.62,0,1.13-.5,1.13-1.13s-.5-1.13-1.13-1.13c-2.06,0-3.81,1.57-4.64,3.89-.81-.72-1.83-1.17-2.96-1.17-.62,0-1.13.5-1.13,1.13s.5,1.13,1.13,1.13c1.35,0,2.46,1.28,2.46,2.86,0,.25.1.46.23.65h-2.03c-3.58,0-6.51-2.64-6.51-6.22h0s-1.34-17.4-1.34-17.4c0-.91.74-1.65,1.65-1.65.81,0,1.49.59,1.62,1.37v7.27c0,.16.04.31.1.45.14.46.56.79,1.06.79.62,0,1.13-.5,1.13-1.13v-7.1c0-.1-.02-.19-.03-.28v-4.88c0-.91.74-1.65,1.65-1.65.8,0,1.47.57,1.62,1.32v12.63c0,.62.5,1.13,1.13,1.13.52,0,.94-.36,1.07-.84.06-.14.09-.28.09-.44V7.81c0-.11-.02-.22-.03-.33v-3.62c0-.89.72-1.61,1.61-1.61s1.61.72,1.61,1.61v16.03c0,.62.5,1.13,1.13,1.13s1.13-.5,1.13-1.13v-3.11s0-.01,0-.02V7.32s0-.01,0-.02v-.09c0-.28.01-.52.02-.68.01-.06.02-.12.02-.19,0-.9.73-1.63,1.63-1.63s1.63.73,1.63,1.63v18.94c0,.46.27.88.7,1.05.43.17.92.06,1.23-.27l5.27-5.56c.6-.67,1.59-.67,2.19,0h0c.68.76.68,2.04,0,2.8Z" fill="#1e1e1c"/>
</svg>