<?xml version="1.0" encoding="UTF-8"?>
<svg id="a" data-name="3219" xmlns="http://www.w3.org/2000/svg" viewBox="0 0 48 48">
  <path d="M45.17-.03H2.67C1.15-.03-.08,1.2-.08,2.72v28.4c0,1.52,1.23,2.76,2.75,2.76h16.28v11.58h-10.66v2.5h31.38v-2.5h-10.63v-11.58h16.12c1.52,0,2.75-1.24,2.75-2.76V2.72c0-1.52-1.23-2.76-2.75-2.76ZM26.54,45.46h-5.09v-11.58h5.09v11.58ZM45.42,31.12c0,.14-.11.25-.25.25H2.67c-.14,0-.25-.11-.25-.25V2.72c0-.14.11-.25.25-.25h42.49c.14,0,.25.11.25.25v28.4Z" fill="#1e1e1c"/>
</svg>