<?xml version="1.0" encoding="UTF-8"?>
<svg id="a" data-name="3219" xmlns="http://www.w3.org/2000/svg" viewBox="0 0 64 64">
  <rect x="-.04" y="-.01" width="64" height="64" fill="none"/>
  <path d="M37.68,40.32c-.63,0-1.25-.13-1.88-.25-1-.25-1.88-.62-2.88-1-3.38-1.62-6.26-4.25-8.39-7.37-1.25-1.63-2-3.37-2.13-5.25,0-1.38.5-2.88,1.63-3.87.38-.5.88-.75,1.38-.75h.88c.5,0,.88.25,1,.75l.63,1.5c.38,1,.88,2.12,1,2.37s.13.62,0,.75c-.13.38-.25.62-.5.87l-.25.25c-.13.25-.38.38-.5.5l-.38.25.25.5c.63,1.38,1.63,2.75,2.76,3.75s2.38,1.75,3.76,2.37l.75.25.38-.25c.75-.62,1.38-1.25,1.88-2,.13-.25.38-.37.5-.37s.25,0,.5.13c.5.13,2.63,1.25,3.38,1.62l.25.13c.25.13.5.25.63.37.13.75.13,1.62-.25,2.25-.63,1.25-1.88,2.13-3.38,2.37-.25,0-.63.13-1,.13h0ZM12.39,50.94l10.52-2.75.25.13c2.88,1.5,6.01,2.25,9.27,2.25,7.39,0,14.15-4,17.66-10.62,5.13-9.62,1.38-21.75-8.27-26.75-2.88-1.5-6.14-2.25-9.39-2.25-7.39,0-14.15,4-17.53,10.62-3.13,6-3.01,13,.25,18.88l.13.25-2.88,10.25ZM23.41,44.82l-6.39,1.62,1.75-6.25-.38-.62c-4.88-7.75-2.5-18.12,5.26-23,2.63-1.62,5.76-2.5,8.89-2.5,9.14,0,16.66,7.5,16.66,16.63s-7.51,16.63-16.66,16.63c-3.01,0-5.89-.75-8.52-2.37l-.63-.13Z" fill="#020303"/>
</svg>