<?xml version="1.0" encoding="UTF-8"?>
<svg id="a" data-name="3219" xmlns="http://www.w3.org/2000/svg" viewBox="0 0 24 24">
  <rect x="-.05" y="0" width="24" height="24" fill="none"/>
  <path d="M14.1,15.12c-.23,0-.47-.05-.7-.09-.38-.09-.7-.23-1.08-.37-1.27-.61-2.35-1.59-3.15-2.77-.47-.61-.75-1.27-.8-1.97,0-.52.19-1.08.61-1.45.14-.19.33-.28.52-.28h.33c.19,0,.33.09.38.28l.23.56c.14.38.33.8.38.89s.05.23,0,.28c-.05.14-.09.23-.19.33l-.09.09c-.05.09-.14.14-.19.19l-.14.09.09.19c.23.52.61,1.03,1.03,1.41s.89.66,1.41.89l.28.09.14-.09c.28-.23.52-.47.7-.75.05-.09.14-.14.19-.14s.09,0,.19.05c.19.05.99.47,1.27.61l.09.05c.09.05.19.09.23.14.05.28.05.61-.09.84-.23.47-.7.8-1.27.89-.09,0-.23.05-.38.05h0ZM4.61,19.1l3.95-1.03.09.05c1.08.56,2.25.84,3.48.84,2.77,0,5.31-1.5,6.62-3.98,1.93-3.61.52-8.16-3.1-10.03-1.08-.56-2.3-.84-3.52-.84-2.77,0-5.31,1.5-6.58,3.98-1.17,2.25-1.13,4.87.09,7.08l.05.09-1.08,3.84ZM8.75,16.8l-2.4.61.66-2.34-.14-.23c-1.83-2.91-.94-6.8,1.97-8.62.99-.61,2.16-.94,3.33-.94,3.43,0,6.25,2.81,6.25,6.23s-2.82,6.23-6.25,6.23c-1.13,0-2.21-.28-3.19-.89l-.23-.05Z" fill="#020303"/>
</svg>