<?xml version="1.0" encoding="UTF-8"?>
<svg id="a" data-name="3219" xmlns="http://www.w3.org/2000/svg" viewBox="0 0 48 48">
  <path d="M24.45,10.6c-2.34,0-4.69.66-6.66,1.88-5.81,3.66-7.59,11.44-3.94,17.25l.28.47-1.31,4.69,4.78-1.22.47.09c1.97,1.22,4.12,1.78,6.38,1.78,6.84,0,12.47-5.62,12.47-12.47s-5.62-12.47-12.47-12.47ZM31.58,28.41c-.47.94-1.41,1.59-2.53,1.78-.19,0-.47.09-.75.09-.47,0-.94-.09-1.41-.19-.75-.19-1.41-.47-2.16-.75-2.53-1.22-4.69-3.19-6.28-5.53-.94-1.22-1.5-2.53-1.59-3.94,0-1.03.38-2.16,1.22-2.91.28-.38.66-.56,1.03-.56h.66c.38,0,.66.19.75.56l.47,1.12c.28.75.66,1.59.75,1.78s.09.47,0,.56c-.09.28-.19.47-.38.66l-.19.19c-.09.19-.28.28-.38.38l-.28.19.19.38c.47,1.03,1.22,2.06,2.06,2.81s1.78,1.31,2.81,1.78l.56.19.28-.19c.56-.47,1.03-.94,1.41-1.5.09-.19.28-.28.38-.28s.19,0,.38.09c.38.09,1.97.94,2.53,1.22l.19.09c.19.09.38.19.47.28.09.56.09,1.22-.19,1.69ZM0,.04v48h48V.04H0ZM37.58,30.01c-2.62,4.97-7.69,7.97-13.22,7.97-2.44,0-4.78-.56-6.94-1.69l-.19-.09-7.88,2.06,2.16-7.69-.09-.19c-2.44-4.41-2.53-9.66-.19-14.16,2.53-4.97,7.59-7.97,13.12-7.97,2.44,0,4.88.56,7.03,1.69,7.22,3.75,10.03,12.84,6.19,20.06Z" fill="#1d1d1b"/>
</svg>