<?xml version="1.0" encoding="UTF-8"?>
<svg id="a" data-name="3219" xmlns="http://www.w3.org/2000/svg" viewBox="0 0 64 64">
  <path d="M32.6,14.05c-3.12,0-6.25.88-8.88,2.5-7.75,4.88-10.12,15.25-5.25,23l.38.62-1.75,6.25,6.38-1.62.62.12c2.62,1.62,5.5,2.38,8.5,2.38,9.12,0,16.62-7.5,16.62-16.62s-7.5-16.62-16.62-16.62ZM42.1,37.8c-.62,1.25-1.88,2.13-3.38,2.38-.25,0-.62.13-1,.13-.62,0-1.25-.12-1.88-.25-1-.25-1.88-.62-2.88-1-3.38-1.62-6.25-4.25-8.38-7.38-1.25-1.62-2-3.38-2.12-5.25,0-1.38.5-2.88,1.62-3.88.38-.5.88-.75,1.38-.75h.88c.5,0,.88.25,1,.75l.62,1.5c.38,1,.88,2.12,1,2.38s.12.62,0,.75c-.12.38-.25.62-.5.88l-.25.25c-.12.25-.38.38-.5.5l-.38.25.25.5c.62,1.38,1.62,2.75,2.75,3.75s2.38,1.75,3.75,2.38l.75.25.38-.25c.75-.62,1.38-1.25,1.88-2,.12-.25.38-.38.5-.38s.25,0,.5.12c.5.12,2.62,1.25,3.38,1.62l.25.12c.25.12.5.25.62.38.12.75.12,1.62-.25,2.25ZM0-.02V63.98h64V-.02H0ZM50.1,39.93c-3.5,6.62-10.25,10.62-17.62,10.62-3.25,0-6.38-.75-9.25-2.25l-.25-.12-10.5,2.75,2.88-10.25-.12-.25c-3.25-5.88-3.38-12.88-.25-18.88,3.38-6.62,10.12-10.62,17.5-10.62,3.25,0,6.5.75,9.38,2.25,9.62,5,13.38,17.12,8.25,26.75Z" fill="#1d1d1b"/>
</svg>