<?xml version="1.0" encoding="UTF-8"?>
<svg id="a" data-name="3219" xmlns="http://www.w3.org/2000/svg" viewBox="0 0 16 16">
  <path d="M7.69,5.5c-.56-.78-1.38-1.33-2.32-1.59-.09-.03-.18-.05-.28-.07-.08-.02-.17-.03-.26-.05-.2-.03-.39-.05-.59-.05C1.91,3.75,0,5.66,0,8s1.91,4.25,4.25,4.25c.21,0,.41-.02.61-.05.07,0,.13-.02.2-.04.13-.03.27-.06.4-.1.07-.02.15-.04.22-.07.16-.06.32-.13.47-.2.11-.05.21-.12.31-.18.06-.04.13-.08.19-.12.11-.07.21-.15.31-.23.03-.03.06-.05.09-.08.23-.2.45-.43.63-.68h1.32l.65-.42,1.27.98,1.59-.96h1.6l1.89-4.6H7.69ZM13.11,8.6h-1.01l-1.07.64-1.3-1-1.16.75h-.21c0-.33-.19-.64-.53-.74-.4-.12-.82.11-.93.51-.04.13-.09.26-.15.38l-.13.22c-.24.42-.58.75-.96.98-.02.01-.04.03-.07.04-.18.1-.37.18-.57.24-.05.01-.09.02-.14.04-.2.05-.41.08-.63.08-1.52,0-2.75-1.23-2.75-2.75s1.23-2.75,2.75-2.75c.22,0,.44.03.65.09.03,0,.07.01.1.02.67.19,1.25.63,1.62,1.27l.12.21c.05.11.1.22.14.34.12.39.54.62.94.49.31-.1.5-.37.52-.67h5.43l-.66,1.6ZM3.8,6.77c-.69,0-1.25.56-1.25,1.25s.56,1.25,1.25,1.25,1.25-.56,1.25-1.25-.56-1.25-1.25-1.25ZM3.55,8.02c0-.14.11-.25.25-.25s.25.11.25.25c0,.28-.5.28-.5,0Z" fill="#1e1e1c"/>
</svg>