<?xml version="1.0" encoding="UTF-8"?>
<svg id="a" data-name="3219" xmlns="http://www.w3.org/2000/svg" viewBox="0 0 32 32">
  <path d="M14.77,11.47c-.03-.05-.08-.1-.11-.15-.15-.21-.3-.41-.47-.6-.03-.04-.07-.07-.1-.11-.81-.9-1.81-1.59-2.93-2.05-.1-.04-.19-.08-.29-.11-.21-.07-.42-.14-.63-.2-.17-.05-.35-.08-.52-.12-.16-.03-.33-.07-.49-.09-.36-.05-.73-.08-1.1-.08C3.7,7.97.1,11.56.1,15.97s3.61,8,8.04,8c.38,0,.75-.03,1.13-.09.11-.02.22-.04.34-.06.26-.05.52-.11.77-.18.12-.03.24-.07.35-.11.25-.09.5-.19.74-.3.1-.04.19-.08.29-.13.32-.16.63-.34.92-.54,0,0,.02-.01.03-.02.3-.21.59-.44.86-.69.09-.08.16-.17.25-.25.17-.17.34-.35.5-.54.1-.12.19-.24.29-.37.06-.08.13-.15.18-.23h1.41l2.33.78,2.3-1.7,2.61,1.99,2.34-1.87h2.94l3.38-8.21H14.77ZM27.37,17.67h-2.3l-1.66,1.33-2.56-1.95-2.68,1.97-1.65-.55h-.81c0-.41-.23-.79-.64-.95-.52-.2-1.1.06-1.3.58-.1.27-.23.53-.37.77l-.05.09c-.1.18-.22.34-.34.51-.04.05-.07.11-.11.16-.08.11-.18.2-.27.3-.1.11-.2.23-.31.33-.09.09-.18.16-.28.24-.12.11-.25.21-.38.31-.1.07-.19.13-.29.19-.14.09-.29.18-.44.26-.1.05-.2.1-.31.15-.16.07-.32.14-.49.2-.1.04-.2.07-.31.11-.18.05-.37.09-.56.13-.09.02-.18.04-.27.06-.28.04-.57.07-.86.07-3.32,0-6.03-2.69-6.03-6s2.7-6,6.03-6c.29,0,.57.02.84.06.15.02.3.06.45.09.11.02.22.05.33.08.19.05.38.12.57.19.05.02.11.04.16.06.21.09.41.19.61.3.02.01.04.03.07.04.21.12.42.26.62.41,0,0,0,0,0,0,.62.47,1.15,1.07,1.56,1.76l.05.08c.13.23.25.47.35.73.2.51.79.77,1.3.57.38-.15.61-.5.63-.87h13.42l-1.73,4.21ZM7.21,13.01c-1.66,0-3.01,1.35-3.01,3s1.35,3,3.01,3,3.01-1.35,3.01-3-1.35-3-3.01-3ZM7.21,17.01c-.55,0-1-.45-1-1s.45-1,1-1,1,.45,1,1-.45,1-1,1ZM27.02,15.24c0,.55-.45,1-1,1h-8.52c-.56,0-1-.45-1-1s.45-1,1-1h8.52c.56,0,1,.45,1,1Z" fill="#1e1e1c"/>
</svg>