<?xml version="1.0" encoding="UTF-8"?>
<svg id="a" data-name="3219" xmlns="http://www.w3.org/2000/svg" viewBox="0 0 40 40">
  <path d="M18.06,14.5c-.06-.09-.13-.16-.19-.24-.18-.25-.36-.49-.55-.72-.01-.02-.03-.03-.05-.05-.75-.85-1.63-1.55-2.61-2.1-.08-.04-.15-.09-.23-.13-.26-.14-.53-.26-.8-.37-.15-.06-.3-.12-.45-.17-.24-.08-.48-.16-.72-.23-.23-.06-.46-.11-.69-.16-.19-.04-.38-.08-.58-.11-.44-.06-.89-.1-1.35-.1C4.37,10.12-.08,14.55-.08,20s4.45,9.88,9.92,9.88c.39,0,.77-.03,1.14-.07.05,0,.09,0,.14-.02,2.85-.36,5.37-1.93,6.95-4.29h2.18l2.87.96,2.9-2.14,3.26,2.49,2.88-2.31h3.63l4.12-10.01h-21.86ZM34.29,22.26h-2.91l-2.12,1.7-3.2-2.44-3.32,2.45-2.11-.71h-1.51c0-.44-.27-.85-.71-1.02-.57-.23-1.24.04-1.47.62-.13.32-.28.62-.45.91l-.03.05c-.33.57-.74,1.09-1.2,1.55-.01.01-.03.03-.04.04-.22.22-.45.41-.69.6-.03.02-.05.04-.08.06-.23.18-.48.34-.73.48-.05.03-.09.05-.14.08-.24.13-.48.25-.73.36-.08.04-.17.07-.25.1-.23.09-.45.17-.69.23-.15.04-.3.07-.45.1-.18.04-.36.08-.55.11-.35.05-.71.08-1.07.08-4.22,0-7.66-3.42-7.66-7.62s3.43-7.62,7.66-7.62c.36,0,.72.03,1.07.08.18.03.36.07.53.11.16.03.32.06.47.11.23.06.45.14.66.23.09.04.19.07.28.11.24.1.48.22.71.35.06.03.12.06.17.1.24.14.47.3.7.46.04.03.08.06.12.09.23.18.45.37.66.57.03.03.06.06.09.09.21.21.41.43.59.67.02.02.04.05.05.08.19.25.36.5.52.77v.02c.18.29.33.58.46.9.24.58.9.85,1.47.61.41-.17.66-.56.69-.97h17.47l-2.27,5.51ZM8.56,16.55c-1.94,0-3.51,1.57-3.51,3.5s1.58,3.5,3.51,3.5,3.51-1.57,3.51-3.5-1.58-3.5-3.51-3.5ZM8.56,21.55c-.83,0-1.51-.67-1.51-1.5s.68-1.5,1.51-1.5,1.51.67,1.51,1.5-.68,1.5-1.51,1.5ZM33.65,19.09c0,.62-.51,1.12-1.13,1.12h-10.64c-.62,0-1.13-.5-1.13-1.12s.51-1.12,1.13-1.12h10.64c.62,0,1.13.5,1.13,1.12Z" fill="#1e1e1c"/>
</svg>