<?xml version="1.0" encoding="UTF-8"?>
<svg id="a" data-name="3219" xmlns="http://www.w3.org/2000/svg" viewBox="0 0 32 32">
  <path d="M14.85,11.5c-1.2-1.74-3.03-2.93-5.09-3.33-.01,0-.02,0-.03,0-.23-.04-.46-.08-.7-.11-.17-.02-.34-.03-.51-.03-.1,0-.2-.02-.29-.02-.02,0-.03,0-.05,0-.02,0-.03,0-.05,0C3.7,8,.1,11.59.1,16s3.61,8,8.04,8c.02,0,.03,0,.05,0,.02,0,.03,0,.05,0,.1,0,.2-.02.29-.02.17,0,.34-.02.51-.03.24-.02.47-.06.7-.11.01,0,.02,0,.03,0,2.06-.4,3.89-1.59,5.09-3.33h1.34l2.33.78,2.3-1.7,2.61,1.99,2.34-1.87h2.94l3.38-8.21H14.85ZM7.25,19.04c-1.65,0-3-1.35-3-3s1.35-3,3-3,3,1.35,3,3-1.35,3-3,3ZM25.97,16.27h-8.48c-.55,0-1-.45-1-1s.45-1,1-1h8.48c.55,0,1,.45,1,1s-.45,1-1,1Z" fill="#1e1e1c"/>
</svg>