<?xml version="1.0" encoding="UTF-8"?>
<svg id="a" data-name="3219" xmlns="http://www.w3.org/2000/svg" viewBox="0 0 48 48">
  <path d="M21.53,17.5c-1.62-2.44-4.08-4.17-6.9-4.89,0,0,0,0-.01,0-.44-.11-.89-.2-1.35-.26-.06,0-.11-.01-.17-.02-.45-.05-.9-.09-1.35-.09C5.27,12.25,0,17.53,0,24s5.27,11.75,11.75,11.75c.46,0,.91-.03,1.35-.09.06,0,.11-.01.17-.02.46-.06.91-.15,1.36-.26,0,0,0,0,0,0,2.82-.71,5.29-2.45,6.9-4.89h3.11l3.4,1.14,3.49-2.58,3.9,2.98,3.41-2.74h4.31l4.85-11.81h-26.46ZM41.47,26.81h-3.51l-2.56,2.06-3.83-2.94-3.95,2.92-2.55-.86h-2.39c-.03-.46-.3-.89-.75-1.08-.64-.27-1.37.03-1.64.67-.15.37-.34.71-.54,1.05-.17.3-.37.58-.57.85-.05.06-.09.13-.14.19-.21.26-.43.51-.66.74-.06.06-.11.12-.17.18-.23.23-.48.44-.73.64-.07.06-.14.11-.21.16-.25.19-.51.36-.78.52-.09.05-.18.11-.28.16-.26.14-.52.28-.8.39-.13.06-.26.1-.39.15-.25.09-.5.19-.75.26-.2.06-.4.09-.61.14-.2.04-.4.09-.61.12-.42.06-.85.1-1.29.1-5.1,0-9.25-4.15-9.25-9.25s4.15-9.25,9.25-9.25c.43,0,.86.04,1.29.1.21.03.41.08.61.12.2.04.41.08.61.14.26.07.51.16.75.26.13.05.26.1.39.15.27.12.54.25.8.39.09.05.19.1.28.16.27.16.53.33.78.52.07.05.14.11.21.17.25.2.5.41.73.64.06.06.12.12.18.19.23.23.45.48.65.74.05.07.1.14.15.21.2.27.39.54.56.83.2.34.38.68.54,1.05.27.64,1,.93,1.64.66.45-.19.71-.61.75-1.06h21.61l-2.79,6.81ZM10.12,19.81c-2.34,0-4.25,1.91-4.25,4.25s1.91,4.25,4.25,4.25,4.25-1.91,4.25-4.25-1.91-4.25-4.25-4.25ZM10.12,25.81c-.97,0-1.75-.79-1.75-1.75s.79-1.75,1.75-1.75,1.75.79,1.75,1.75-.79,1.75-1.75,1.75ZM40.54,22.91c0,.69-.56,1.25-1.25,1.25h-13.73c-.69,0-1.25-.56-1.25-1.25s.56-1.25,1.25-1.25h13.73c.69,0,1.25.56,1.25,1.25Z" fill="#1e1e1c"/>
</svg>