<?xml version="1.0" encoding="UTF-8"?>
<svg id="a" data-name="3219" xmlns="http://www.w3.org/2000/svg" viewBox="0 0 24 24">
  <path d="M0,0v19.24s0,.03,0,.04,0,.03,0,.04v4.68h23.99V0H0ZM8.91,20.15v2.09h-2.69v-2.09h2.69ZM10.66,20.15h2.7v2.09h-2.7v-2.09ZM15.11,20.15h2.69v2.09h-2.69v-2.09ZM1.75,18.4V5.59h20.49v12.81H1.75ZM15.11,3.84V1.75h2.69v2.09h-2.69ZM13.36,3.84h-2.7V1.75h2.7v2.09ZM8.91,3.84h-2.69V1.75h2.69v2.09ZM4.47,3.84H1.77V1.75h2.7v2.09ZM22.25,3.84h-2.7V1.75h2.7v2.09ZM1.75,20.15h2.71v2.09H1.75v-2.09ZM19.55,22.25v-2.09h2.7v2.09h-2.7ZM16.45,11l-7.14-3.86c-.35-.19-.76-.18-1.11.03-.34.2-.55.56-.55.96l-.04,7.17c0,.39.19.74.52.95.18.12.39.18.61.18.16,0,.32-.04.47-.11l7.17-3.32c.39-.18.64-.56.65-.99.01-.43-.21-.82-.59-1.02ZM9.38,14.33l.03-5.14,5.12,2.76-5.14,2.38Z" fill="#1e1e1c"/>
</svg>