<svg width="58" height="50" viewBox="0 0 58 50" fill="none" xmlns="http://www.w3.org/2000/svg">
<rect width="58" height="50" fill="white"/>
<mask id="path-2-outside-1_204_69" maskUnits="userSpaceOnUse" x="11" y="7" width="36" height="33" fill="black">
<rect fill="white" x="11" y="7" width="36" height="33"/>
<path d="M14.0244 11.8685H19.1011V37H14.0244V11.8685ZM31.3642 17.0893C31.3642 17.9054 31.3522 18.7215 31.3282 19.5376C31.3042 20.3537 31.2802 21.0378 31.2562 21.5899H31.3282C32.0003 20.5097 32.8284 19.6456 33.8125 18.9975C34.7966 18.3494 35.9608 18.0254 37.305 18.0254C38.5292 18.0254 39.5733 18.2174 40.4374 18.6015C41.3015 18.9855 41.9976 19.5376 42.5257 20.2577C43.0778 20.9778 43.4738 21.8419 43.7139 22.8501C43.9539 23.8582 44.0739 24.9863 44.0739 26.2345V37H39.3213V28.0708C39.3213 27.1827 39.2853 26.3665 39.2132 25.6224C39.1652 24.8543 39.0212 24.1942 38.7812 23.6422C38.5412 23.0901 38.1931 22.658 37.737 22.346C37.281 22.0339 36.6569 21.8779 35.8648 21.8779C34.3526 21.8779 33.2244 22.478 32.4803 23.6782C31.7362 24.8783 31.3642 26.5226 31.3642 28.6108V37H26.6115V9.78026H31.3642V17.0893Z"/>
</mask>
<path d="M14.0244 11.8685H19.1011V37H14.0244V11.8685ZM31.3642 17.0893C31.3642 17.9054 31.3522 18.7215 31.3282 19.5376C31.3042 20.3537 31.2802 21.0378 31.2562 21.5899H31.3282C32.0003 20.5097 32.8284 19.6456 33.8125 18.9975C34.7966 18.3494 35.9608 18.0254 37.305 18.0254C38.5292 18.0254 39.5733 18.2174 40.4374 18.6015C41.3015 18.9855 41.9976 19.5376 42.5257 20.2577C43.0778 20.9778 43.4738 21.8419 43.7139 22.8501C43.9539 23.8582 44.0739 24.9863 44.0739 26.2345V37H39.3213V28.0708C39.3213 27.1827 39.2853 26.3665 39.2132 25.6224C39.1652 24.8543 39.0212 24.1942 38.7812 23.6422C38.5412 23.0901 38.1931 22.658 37.737 22.346C37.281 22.0339 36.6569 21.8779 35.8648 21.8779C34.3526 21.8779 33.2244 22.478 32.4803 23.6782C31.7362 24.8783 31.3642 26.5226 31.3642 28.6108V37H26.6115V9.78026H31.3642V17.0893Z" fill="#FFCC00"/>
<path d="M14.0244 11.8685V9.16818H11.324V11.8685H14.0244ZM19.1011 11.8685H21.8015V9.16818H19.1011V11.8685ZM19.1011 37V39.7004H21.8015V37H19.1011ZM14.0244 37H11.324V39.7004H14.0244V37ZM14.0244 14.5689H19.1011V9.16818H14.0244V14.5689ZM16.4007 11.8685V37H21.8015V11.8685H16.4007ZM19.1011 34.2996H14.0244V39.7004H19.1011V34.2996ZM16.7248 37V11.8685H11.324V37H16.7248ZM31.3282 19.5376L34.0274 19.617L34.0274 19.617L31.3282 19.5376ZM31.2562 21.5899L28.5583 21.4726L28.4358 24.2903H31.2562V21.5899ZM31.3282 21.5899V24.2903H32.8284L33.6209 23.0165L31.3282 21.5899ZM33.8125 18.9975L35.2977 21.2528L35.2977 21.2528L33.8125 18.9975ZM40.4374 18.6015L41.5341 16.1338L41.5341 16.1338L40.4374 18.6015ZM42.5257 20.2577L40.3481 21.8546L40.3651 21.8778L40.3827 21.9007L42.5257 20.2577ZM43.7139 22.8501L41.0869 23.4755L41.0869 23.4755L43.7139 22.8501ZM44.0739 37V39.7004H46.7743V37H44.0739ZM39.3213 37H36.6209V39.7004H39.3213V37ZM39.2132 25.6224L36.5181 25.7909L36.521 25.8368L36.5254 25.8826L39.2132 25.6224ZM37.737 22.346L36.2122 24.5746L36.2122 24.5746L37.737 22.346ZM32.4803 23.6782L30.1853 22.2552L30.1853 22.2552L32.4803 23.6782ZM31.3642 37V39.7004H34.0645V37H31.3642ZM26.6115 37H23.9111V39.7004H26.6115V37ZM26.6115 9.78026V7.07989H23.9111V9.78026H26.6115ZM31.3642 9.78026H34.0645V7.07989H31.3642V9.78026ZM28.6638 17.0893C28.6638 17.8789 28.6522 18.6685 28.629 19.4582L34.0274 19.617C34.0522 18.7744 34.0645 17.9319 34.0645 17.0893H28.6638ZM28.629 19.4582C28.6052 20.267 28.5816 20.9375 28.5583 21.4726L33.954 21.7072C33.9787 21.1381 34.0032 20.4404 34.0274 19.617L28.629 19.4582ZM31.2562 24.2903H31.3282V18.8895H31.2562V24.2903ZM33.6209 23.0165C34.1035 22.2409 34.6648 21.6696 35.2977 21.2528L32.3273 16.7423C30.9919 17.6217 29.897 18.7786 29.0354 20.1633L33.6209 23.0165ZM35.2977 21.2528C35.7811 20.9344 36.4123 20.7258 37.305 20.7258V15.325C35.5093 15.325 33.8122 15.7644 32.3273 16.7423L35.2977 21.2528ZM37.305 20.7258C38.258 20.7258 38.9076 20.8766 39.3407 21.0691L41.5341 16.1338C40.239 15.5582 38.8003 15.325 37.305 15.325V20.7258ZM39.3407 21.0691C39.8011 21.2737 40.1148 21.5365 40.3481 21.8546L44.7033 18.6608C43.8804 17.5387 42.802 16.6973 41.5341 16.1338L39.3407 21.0691ZM40.3827 21.9007C40.673 22.2794 40.9224 22.7844 41.0869 23.4755L46.3408 22.2246C46.0253 20.8994 45.4825 19.6762 44.6687 18.6147L40.3827 21.9007ZM41.0869 23.4755C41.2695 24.2421 41.3735 25.1557 41.3735 26.2345H46.7743C46.7743 24.817 46.6383 23.4743 46.3408 22.2246L41.0869 23.4755ZM41.3735 26.2345V37H46.7743V26.2345H41.3735ZM44.0739 34.2996H39.3213V39.7004H44.0739V34.2996ZM42.0216 37V28.0708H36.6209V37H42.0216ZM42.0216 28.0708C42.0216 27.1114 41.9828 26.2071 41.9011 25.3623L36.5254 25.8826C36.5877 26.526 36.6209 27.2539 36.6209 28.0708H42.0216ZM41.9084 25.454C41.846 24.4558 41.6521 23.4728 41.2576 22.5655L36.3048 24.7189C36.3903 24.9157 36.4845 25.2529 36.5181 25.7909L41.9084 25.454ZM41.2576 22.5655C40.8338 21.5908 40.1745 20.7417 39.2619 20.1174L36.2122 24.5746C36.2216 24.581 36.228 24.5867 36.2372 24.5981C36.2474 24.6107 36.2729 24.6457 36.3048 24.7189L41.2576 22.5655ZM39.2619 20.1174C38.2008 19.3913 36.9753 19.1776 35.8648 19.1776V24.5783C36.0888 24.5783 36.2167 24.6009 36.272 24.6147C36.3233 24.6275 36.2881 24.6266 36.2122 24.5746L39.2619 20.1174ZM35.8648 19.1776C33.4979 19.1776 31.4625 20.1953 30.1853 22.2552L34.7754 25.1011C34.9864 24.7608 35.2073 24.5783 35.8648 24.5783V19.1776ZM30.1853 22.2552C29.0783 24.0407 28.6638 26.2453 28.6638 28.6108H34.0645C34.0645 26.7998 34.3941 25.716 34.7754 25.1011L30.1853 22.2552ZM28.6638 28.6108V37H34.0645V28.6108H28.6638ZM31.3642 34.2996H26.6115V39.7004H31.3642V34.2996ZM29.3119 37V9.78026H23.9111V37H29.3119ZM26.6115 12.4806H31.3642V7.07989H26.6115V12.4806ZM28.6638 9.78026V17.0893H34.0645V9.78026H28.6638Z" fill="black" mask="url(#path-2-outside-1_204_69)"/>
</svg>
