<svg width="58" height="50" viewBox="0 0 58 50" fill="none" xmlns="http://www.w3.org/2000/svg">
<rect width="58" height="50" fill="white"/>
<mask id="path-2-outside-1_204_66" maskUnits="userSpaceOnUse" x="17.125" y="8.625" width="23" height="33" fill="black">
<rect fill="white" x="17.125" y="8.625" width="23" height="33"/>
<path d="M34.7275 16.9262C33.7125 16.5154 32.7942 16.2375 31.9725 16.0925C31.1508 15.9233 30.3533 15.8387 29.58 15.8387C28.2267 15.8387 27.1513 16.1046 26.3538 16.6362C25.5804 17.1437 25.1938 17.8325 25.1938 18.7025C25.1938 19.0892 25.2542 19.4517 25.375 19.79C25.4958 20.1042 25.7254 20.4183 26.0638 20.7325C26.4021 21.0225 26.8613 21.3246 27.4413 21.6387C28.0454 21.9287 28.8188 22.2429 29.7613 22.5812C32.1054 23.4271 33.8092 24.4421 34.8725 25.6262C35.9358 26.7862 36.4675 28.2967 36.4675 30.1575C36.4675 31.3658 36.2379 32.4654 35.7788 33.4562C35.3438 34.4229 34.7154 35.2567 33.8938 35.9575C33.0721 36.6342 32.0692 37.1537 30.885 37.5162C29.7008 37.8788 28.3838 38.06 26.9338 38.06C24.5654 38.06 22.33 37.6975 20.2275 36.9725L20.6988 32.5137C21.7863 33.0454 22.8254 33.42 23.8163 33.6375C24.8071 33.855 25.7496 33.9637 26.6438 33.9637C27.9971 33.9637 29.0967 33.6979 29.9425 33.1662C30.8125 32.6104 31.2475 31.825 31.2475 30.81C31.2475 30.3267 31.175 29.9037 31.03 29.5412C30.885 29.1546 30.6192 28.7921 30.2325 28.4537C29.87 28.1154 29.3746 27.7892 28.7463 27.475C28.1179 27.1608 27.3204 26.8225 26.3538 26.46C24.1063 25.6383 22.475 24.6717 21.46 23.56C20.445 22.4483 19.9375 20.9983 19.9375 19.21C19.9375 18.0983 20.155 17.0954 20.59 16.2012C21.025 15.2829 21.6413 14.5096 22.4388 13.8812C23.2363 13.2287 24.1908 12.7333 25.3025 12.395C26.4142 12.0567 27.6467 11.8875 29 11.8875C30.1358 11.8875 31.1871 11.96 32.1538 12.105C33.1204 12.2258 34.1113 12.4554 35.1263 12.7937L34.7275 16.9262Z"/>
</mask>
<path d="M34.7275 16.9262C33.7125 16.5154 32.7942 16.2375 31.9725 16.0925C31.1508 15.9233 30.3533 15.8387 29.58 15.8387C28.2267 15.8387 27.1513 16.1046 26.3538 16.6362C25.5804 17.1437 25.1938 17.8325 25.1938 18.7025C25.1938 19.0892 25.2542 19.4517 25.375 19.79C25.4958 20.1042 25.7254 20.4183 26.0638 20.7325C26.4021 21.0225 26.8613 21.3246 27.4413 21.6387C28.0454 21.9287 28.8188 22.2429 29.7613 22.5812C32.1054 23.4271 33.8092 24.4421 34.8725 25.6262C35.9358 26.7862 36.4675 28.2967 36.4675 30.1575C36.4675 31.3658 36.2379 32.4654 35.7788 33.4562C35.3438 34.4229 34.7154 35.2567 33.8938 35.9575C33.0721 36.6342 32.0692 37.1537 30.885 37.5162C29.7008 37.8788 28.3838 38.06 26.9338 38.06C24.5654 38.06 22.33 37.6975 20.2275 36.9725L20.6988 32.5137C21.7863 33.0454 22.8254 33.42 23.8163 33.6375C24.8071 33.855 25.7496 33.9637 26.6438 33.9637C27.9971 33.9637 29.0967 33.6979 29.9425 33.1662C30.8125 32.6104 31.2475 31.825 31.2475 30.81C31.2475 30.3267 31.175 29.9037 31.03 29.5412C30.885 29.1546 30.6192 28.7921 30.2325 28.4537C29.87 28.1154 29.3746 27.7892 28.7463 27.475C28.1179 27.1608 27.3204 26.8225 26.3538 26.46C24.1063 25.6383 22.475 24.6717 21.46 23.56C20.445 22.4483 19.9375 20.9983 19.9375 19.21C19.9375 18.0983 20.155 17.0954 20.59 16.2012C21.025 15.2829 21.6413 14.5096 22.4388 13.8812C23.2363 13.2287 24.1908 12.7333 25.3025 12.395C26.4142 12.0567 27.6467 11.8875 29 11.8875C30.1358 11.8875 31.1871 11.96 32.1538 12.105C33.1204 12.2258 34.1113 12.4554 35.1263 12.7937L34.7275 16.9262Z" fill="#FFCC00"/>
<path d="M34.7275 16.9262L33.7075 19.4464L37.0838 20.813L37.4337 17.1874L34.7275 16.9262ZM31.9725 16.0925L31.4243 18.7554L31.462 18.7632L31.5 18.7699L31.9725 16.0925ZM26.3538 16.6362L27.8454 18.9093L27.8536 18.9038L27.8618 18.8984L26.3538 16.6362ZM25.375 19.79L22.8146 20.7044L22.8257 20.7353L22.8375 20.766L25.375 19.79ZM26.0638 20.7325L24.2138 22.7248L24.2534 22.7616L24.2944 22.7967L26.0638 20.7325ZM27.4413 21.6387L26.1464 24.0293L26.2048 24.061L26.2648 24.0898L27.4413 21.6387ZM29.7613 22.5812L30.684 20.0239L30.6798 20.0224L29.7613 22.5812ZM34.8725 25.6262L32.8496 27.4427L32.8589 27.4531L32.8684 27.4634L34.8725 25.6262ZM35.7788 33.4562L33.312 32.3131L33.3057 32.3268L33.2995 32.3406L35.7788 33.4562ZM33.8938 35.9575L35.6221 38.0562L35.6402 38.0413L35.6581 38.026L33.8938 35.9575ZM30.885 37.5162L31.6808 40.1159L31.6808 40.1159L30.885 37.5162ZM20.2275 36.9725L17.5238 36.6867L17.2965 38.8377L19.3412 39.5427L20.2275 36.9725ZM20.6988 32.5137L21.8929 30.0713L18.4033 28.3653L17.9951 32.228L20.6988 32.5137ZM23.8163 33.6375L24.3992 30.982L24.3992 30.982L23.8163 33.6375ZM29.9425 33.1662L31.3893 35.468L31.3978 35.4627L31.4062 35.4573L29.9425 33.1662ZM31.03 29.5412L28.4844 30.4959L28.4947 30.5235L28.5057 30.551L31.03 29.5412ZM30.2325 28.4537L28.3775 30.4413L28.4094 30.4711L28.4422 30.4998L30.2325 28.4537ZM28.7463 27.475L27.5304 29.9067L27.5304 29.9067L28.7463 27.475ZM26.3538 26.46L27.3084 23.9144L27.2978 23.9104L27.2873 23.9065L26.3538 26.46ZM21.46 23.56L23.4678 21.7268L23.4678 21.7268L21.46 23.56ZM20.59 16.2012L23.0348 17.3906L23.041 17.3779L23.047 17.3651L20.59 16.2012ZM22.4388 13.8812L24.1213 16.0168L24.141 16.0013L24.1604 15.9854L22.4388 13.8812ZM25.3025 12.395L24.5109 9.79404L25.3025 12.395ZM32.1538 12.105L31.7505 14.7937L31.7834 14.7986L31.8165 14.8028L32.1538 12.105ZM35.1263 12.7937L37.8324 13.0549L38.0404 10.8993L35.986 10.2145L35.1263 12.7937ZM35.7476 14.4061C34.6074 13.9446 33.5018 13.6016 32.445 13.4151L31.5 18.7699C32.0865 18.8734 32.8176 19.0862 33.7075 19.4464L35.7476 14.4061ZM32.5207 13.4296C31.5338 13.2264 30.5523 13.12 29.58 13.12V18.5575C30.1544 18.5575 30.7679 18.6203 31.4243 18.7554L32.5207 13.4296ZM29.58 13.12C27.9022 13.12 26.2386 13.4455 24.8457 14.3741L27.8618 18.8984C28.0639 18.7637 28.5511 18.5575 29.58 18.5575V13.12ZM24.8621 14.3632C23.3808 15.3354 22.475 16.8494 22.475 18.7025H27.9125C27.9125 18.6874 27.914 18.7023 27.905 18.7386C27.8957 18.7762 27.879 18.8206 27.8545 18.8644C27.8302 18.9076 27.8074 18.9339 27.798 18.9435C27.7898 18.952 27.8009 18.9385 27.8454 18.9093L24.8621 14.3632ZM22.475 18.7025C22.475 19.377 22.5813 20.051 22.8146 20.7044L27.9354 18.8756C27.9271 18.8524 27.9125 18.8014 27.9125 18.7025H22.475ZM22.8375 20.766C23.1517 21.583 23.6785 22.2277 24.2138 22.7248L27.9137 18.7402C27.8489 18.6801 27.8285 18.6511 27.8329 18.6571C27.838 18.6641 27.8748 18.716 27.9125 18.814L22.8375 20.766ZM24.2944 22.7967C24.8304 23.2562 25.4696 23.6627 26.1464 24.0293L28.7361 19.2482C28.2529 18.9864 27.9737 18.7888 27.8331 18.6683L24.2944 22.7967ZM26.2648 24.0898C26.9831 24.4346 27.8507 24.784 28.8427 25.1401L30.6798 20.0224C29.7868 19.7018 29.1078 19.4229 28.6177 19.1877L26.2648 24.0898ZM28.8385 25.1386C30.9766 25.9101 32.2093 26.7296 32.8496 27.4427L36.8954 23.8098C35.4091 22.1546 33.2342 20.9441 30.684 20.0239L28.8385 25.1386ZM32.8684 27.4634C33.3902 28.0326 33.7488 28.8451 33.7488 30.1575H39.1863C39.1863 27.7482 38.4815 25.5399 36.8766 23.7891L32.8684 27.4634ZM33.7488 30.1575C33.7488 31.0134 33.5882 31.7171 33.312 32.3131L38.2455 34.5994C38.8876 33.2137 39.1863 31.7182 39.1863 30.1575H33.7488ZM33.2995 32.3406C33.0326 32.9336 32.6512 33.4439 32.1294 33.889L35.6581 38.026C36.7796 37.0694 37.6549 35.9122 38.258 34.5719L33.2995 32.3406ZM32.1654 33.8588C31.6599 34.2751 30.9877 34.6415 30.0892 34.9166L31.6808 40.1159C33.1507 39.666 34.4842 38.9932 35.6221 38.0562L32.1654 33.8588ZM30.0892 34.9166C29.2026 35.188 28.1589 35.3412 26.9338 35.3412V40.7788C28.6086 40.7788 30.1991 40.5695 31.6808 40.1159L30.0892 34.9166ZM26.9338 35.3412C24.8474 35.3412 22.9131 35.0227 21.1138 34.4023L19.3412 39.5427C21.7469 40.3723 24.2835 40.7788 26.9338 40.7788V35.3412ZM22.9312 37.2583L23.4024 32.7995L17.9951 32.228L17.5238 36.6867L22.9312 37.2583ZM19.5046 34.9562C20.7505 35.5653 21.995 36.0212 23.2333 36.293L24.3992 30.982C23.6558 30.8188 22.822 30.5255 21.8929 30.0713L19.5046 34.9562ZM23.2333 36.293C24.3905 36.547 25.5294 36.6825 26.6438 36.6825V31.245C25.9697 31.245 25.2237 31.163 24.3992 30.982L23.2333 36.293ZM26.6438 36.6825C28.3331 36.6825 29.982 36.3526 31.3893 35.468L28.4957 30.8645C28.2113 31.0432 27.6611 31.245 26.6438 31.245V36.6825ZM31.4062 35.4573C33.0418 34.4124 33.9663 32.772 33.9663 30.81H28.5288C28.5288 30.869 28.5225 30.8926 28.5232 30.8897C28.5243 30.8852 28.5298 30.8667 28.5429 30.8431C28.5559 30.8196 28.5668 30.8084 28.5648 30.8104C28.5617 30.8136 28.5379 30.8374 28.4788 30.8752L31.4062 35.4573ZM33.9663 30.81C33.9663 30.0604 33.8543 29.2816 33.5543 28.5315L28.5057 30.551C28.4957 30.5259 28.5288 30.5929 28.5288 30.81H33.9663ZM33.5756 28.5866C33.2389 27.6887 32.6664 26.9708 32.0228 26.4077L28.4422 30.4998C28.4741 30.5277 28.496 30.5496 28.51 30.5646C28.524 30.5796 28.5296 30.5873 28.5295 30.5871C28.5292 30.5869 28.5235 30.5789 28.5148 30.563C28.506 30.547 28.4951 30.5245 28.4844 30.4959L33.5756 28.5866ZM32.0876 26.4662C31.4734 25.893 30.735 25.4297 29.9621 25.0433L27.5304 29.9067C28.0142 30.1486 28.2666 30.3379 28.3775 30.4413L32.0876 26.4662ZM29.9621 25.0433C29.2194 24.6719 28.3269 24.2963 27.3084 23.9144L25.3991 29.0056C26.3139 29.3487 27.0164 29.6497 27.5304 29.9067L29.9621 25.0433ZM27.2873 23.9065C25.2332 23.1556 24.0637 22.3795 23.4678 21.7268L19.4522 25.3932C20.8863 26.9638 22.9793 28.1211 25.4202 29.0135L27.2873 23.9065ZM23.4678 21.7268C22.9937 21.2076 22.6563 20.455 22.6563 19.21H17.2187C17.2187 21.5416 17.8963 23.689 19.4522 25.3932L23.4678 21.7268ZM22.6563 19.21C22.6563 18.4614 22.8004 17.8725 23.0348 17.3906L18.1452 15.0119C17.5096 16.3183 17.2187 17.7353 17.2187 19.21H22.6563ZM23.047 17.3651C23.3025 16.8258 23.6538 16.3851 24.1213 16.0168L20.7562 11.7457C19.6287 12.634 18.7475 13.74 18.133 15.0374L23.047 17.3651ZM24.1604 15.9854C24.6503 15.5846 25.2787 15.2441 26.0941 14.996L24.5109 9.79404C23.103 10.2225 21.8222 10.8729 20.7171 11.777L24.1604 15.9854ZM26.0941 14.996C26.911 14.7473 27.8718 14.6062 29 14.6062V9.16875C27.4215 9.16875 25.9174 9.36599 24.5109 9.79404L26.0941 14.996ZM29 14.6062C30.0219 14.6062 30.9366 14.6716 31.7505 14.7937L32.5571 9.41632C31.4375 9.2484 30.2498 9.16875 29 9.16875V14.6062ZM31.8165 14.8028C32.5892 14.8993 33.405 15.0858 34.2665 15.373L35.986 10.2145C34.8175 9.82503 33.6517 9.55233 32.491 9.40724L31.8165 14.8028ZM32.4201 12.5326L32.0213 16.6651L37.4337 17.1874L37.8324 13.0549L32.4201 12.5326Z" fill="black" mask="url(#path-2-outside-1_204_66)"/>
</svg>
