<svg
   xmlns="http://www.w3.org/2000/svg"
   xmlns:xlink="http://www.w3.org/1999/xlink"
   fill="none"
   width="512"
   height="512"
   viewBox="0 0 512 512">
  <linearGradient
     id="a"
     gradientUnits="userSpaceOnUse"
     x1="34.908699"
     x2="7.6322398"
     y1="61.028999"
     y2="13.7847"
     gradientTransform="scale(8.1273582,8.1274613)">
    <stop
       offset="0"
       stop-color="#1e8e3e" />
    <stop
       offset="1"
       stop-color="#34a853" />
  </linearGradient>
  <linearGradient
     id="b"
     gradientUnits="userSpaceOnUse"
     x1="26.904301"
     x2="54.180801"
     y1="63.0788"
     y2="15.8345"
     gradientTransform="scale(8.1273582,8.1274613)">
    <stop
       offset="0"
       stop-color="#fcc934" />
    <stop
       offset="1"
       stop-color="#fbbc04" />
  </linearGradient>
  <linearGradient
     id="c"
     gradientUnits="userSpaceOnUse"
     x1="4.2214499"
     x2="58.774502"
     y1="19.6884"
     y2="19.6884"
     gradientTransform="scale(8.1273582,8.1274613)">
    <stop
       offset="0"
       stop-color="#d93025" />
    <stop
       offset="1"
       stop-color="#ea4335" />
  </linearGradient>
  <path
     d="m 256.00366,383.99491 c 70.69582,0 128.00589,-57.31079 128.00589,-128.00751 0,-70.69672 -57.31007,-128.00752 -128.00589,-128.00752 -70.69583,0 -128.0059,57.3108 -128.0059,128.00752 0,70.69672 57.31007,128.00751 128.0059,128.00751 z"
     fill="#fff" />
  <path
     d="M 145.1473,320.0196 34.308667,128.03921 C 11.834328,166.9535 0.00155053,211.09943 1.5362299e-7,256.03779 -0.00155022,300.97615 11.828232,345.12289 34.299808,384.0388 c 22.471658,38.91591 54.793105,71.22989 93.714212,93.69256 38.9211,22.46187 83.06973,34.28082 128.00752,34.26863 L 366.86001,320.0196 v -0.0333 c -11.22632,19.46852 -27.38107,35.63729 -46.83959,46.88001 -19.45852,11.24272 -41.53405,17.16357 -64.00701,17.16682 -22.47296,0.003 -44.55093,-5.91029 -64.0127,-17.14813 -19.46096,-11.23703 -35.6214,-27.40092 -46.85341,-46.86538 z"
     fill="url(#a)" />
  <path
     d="M 366.85188,320.01147 256.01422,511.99186 c 44.93779,0.007 89.08479,-11.81895 128.00264,-34.28732 38.91786,-22.46755 71.23467,-54.78559 93.70113,-93.70475 C 500.18363,345.07982 512.00731,300.93145 512,255.99309 511.992,211.05473 500.15275,166.91123 477.67247,127.99939 H 255.99553 l -0.0276,0.0171 c 22.47295,-0.0114 44.55255,5.89566 64.01838,17.12537 19.46584,11.23053 35.63115,27.38792 46.87048,46.84912 11.23932,19.4604 17.15604,41.53783 17.15604,64.01026 -8.1e-4,22.47325 -5.91916,44.54987 -17.15929,64.01026 z"
     fill="url(#b)" />
  <path
     d="m 256.00366,357.35472 c 55.96742,0 101.3384,-45.37155 101.3384,-101.33969 0,-55.96814 -45.37098,-101.33969 -101.3384,-101.33969 -55.96743,0 -101.3376,45.37155 -101.3376,101.33969 0,55.96814 45.37017,101.33969 101.3376,101.33969 z"
     fill="#1a73e8" />
  <path
     d="M 256.00447,128.00752 H 477.68141 C 455.2174,89.086729 422.90302,56.76601 383.98679,34.29553 345.07056,11.825131 300.92356,-0.00318881 255.98578,6.4550605e-7 211.04799,0.00319011 166.90343,11.837729 127.99045,34.313735 89.076658,56.789661 56.767077,89.115175 34.309155,128.0384 l 110.838145,191.98039 0.0284,0.0154 c -11.24583,-19.45714 -17.17067,-41.53133 -17.17799,-64.00457 -0.007,-22.47324 5.90372,-44.5523 17.13735,-64.01595 11.23282,-19.46364 27.39408,-35.62673 46.85585,-46.86213 19.46258,-11.23621 41.54055,-17.14894 64.01351,-17.14406 z"
     fill="url(#c)" />
</svg>
