<?xml version="1.0" encoding="UTF-8"?>
<svg id="a" data-name="3219" xmlns="http://www.w3.org/2000/svg" viewBox="0 0 32 32">
  <path d="M28.57,12.99h-9.57V3.41c0-.55.45-1,1-1s1,.45,1,1v6.16L30.58-.02l1.42,1.42-9.59,9.59h6.16c.55,0,1,.45,1,1s-.45,1-1,1ZM2.41,19.99c0,.55.45,1,1,1h6.16L0,30.57l1.42,1.42,9.57-9.57v6.16c0,.55.45,1,1,1s1-.45,1-1v-9.58H3.41c-.55,0-1,.45-1,1ZM12,2.41c-.55,0-1,.45-1,1v6.16L1.42-.01,0,1.4l9.59,9.59H3.43c-.55,0-1,.45-1,1s.45,1,1,1h9.58V3.41c0-.55-.45-1-1-1ZM28.59,21c.55,0,1-.45,1-1s-.45-1-1-1h-9.58v9.21c0,.55.45,1,1,1s1-.45,1-1v-5.79l9.56,9.56,1.42-1.42-9.56-9.56h6.16Z" fill="#1e1e1c"/>
</svg>