<?xml version="1.0" encoding="UTF-8"?>
<svg id="a" data-name="3219" xmlns="http://www.w3.org/2000/svg" viewBox="0 0 24 24">
  <path d="M21.31,9.98h-7.3V2.68c0-.48.39-.88.88-.88s.88.39.88.88v4.31L22.75,0l1.24,1.24-7,7h4.31c.48,0,.88.39.88.88s-.39.88-.88.88ZM1.82,14.86c0,.48.39.88.88.88h4.31L0,22.75l1.24,1.24,7.02-7.02v4.31c0,.48.39.88.88.88s.88-.39.88-.88v-7.31H2.69c-.48,0-.88.39-.88.88ZM2.69,8.23c-.48,0-.88.39-.88.88s.39.88.88.88h7.31V2.68c0-.48-.39-.88-.88-.88s-.88.39-.88.88v4.31L1.25,0,0,1.23l7,7H2.69ZM21.32,15.76c.48,0,.88-.39.88-.88s-.39-.88-.88-.88h-7.3v7.03c0,.48.39.88.88.88s.88-.39.88-.88v-4.04l6.99,6.99,1.24-1.24-6.98-6.98h4.31Z" fill="#1e1e1c"/>
</svg>