<?xml version="1.0" encoding="UTF-8"?>
<svg id="a" data-name="3219" xmlns="http://www.w3.org/2000/svg" viewBox="0 0 40 40">
  <path d="M35.91,16.32h-12.29V4.02c0-1.11.9-2,2-2s2,.9,2,2v5.46L37.16-.06l2.83,2.83-9.54,9.54h5.46c1.11,0,2,.9,2,2s-.9,2-2,2ZM2.09,25.57c0,1.11.9,2,2,2h5.46L0,37.11l2.83,2.83,9.54-9.54v5.46c0,1.11.9,2,2,2s2-.9,2-2v-12.29H4.09c-1.11,0-2,.9-2,2ZM4.08,12.32c-1.11,0-2,.9-2,2s.9,2,2,2h12.29V4.03c0-1.11-.9-2-2-2s-2,.9-2,2v5.46L2.82-.06,0,2.78l9.54,9.54h-5.46ZM35.91,27.57c1.11,0,2-.9,2-2s-.9-2-2-2h-12.29v11.85c0,1.11.9,2,2,2s2-.9,2-2v-5.02l9.54,9.54,2.83-2.83-9.54-9.54h5.46Z" fill="#1e1e1c"/>
</svg>