<?xml version="1.0" encoding="UTF-8"?>
<svg id="a" data-name="3219" xmlns="http://www.w3.org/2000/svg" viewBox="0 0 16 16">
  <path d="M10.5,16.01H1.97V4.94c0-.73.35-1.41.95-1.83L6.7.42c.78-.55,1.83-.55,2.61,0l3.78,2.68c.59.42.95,1.11.95,1.83v9.31c0,.41-.34.75-.75.75s-.75-.34-.75-.75V4.94c0-.24-.12-.47-.32-.61l-3.78-2.68c-.26-.19-.61-.19-.87,0l-3.78,2.68c-.2.14-.32.37-.32.61v9.56h5.53V6.06l-1-.72-1.01.72v6.68c0,.41-.34.75-.75.75s-.75-.34-.75-.75v-6.94c0-.32.16-.63.42-.82l1.5-1.07c.35-.25.81-.25,1.16,0l1.51,1.07c.26.19.42.49.42.81v10.2ZM6.79,6.21h0s0,0,0,0Z" fill="#1e1e1c"/>
</svg>