<?xml version="1.0" encoding="UTF-8"?>
<svg id="a" data-name="3219" xmlns="http://www.w3.org/2000/svg" viewBox="0 0 48 48">
  <path d="M30.48,48.02H6.94V13.8c0-1.86.9-3.61,2.42-4.68L20.66,1.08c1.99-1.41,4.67-1.41,6.65,0l11.3,8.04c1.51,1.07,2.41,2.82,2.41,4.68v29.98c0,.69-.56,1.25-1.25,1.25s-1.25-.56-1.25-1.25V13.8c0-1.05-.51-2.04-1.36-2.64L25.87,3.11c-1.12-.8-2.64-.8-3.76,0l-11.31,8.04c-.86.61-1.37,1.6-1.37,2.65v31.73h18.55v-28.88l-4-2.85-4.01,2.85v22.61c0,.69-.56,1.25-1.25,1.25s-1.25-.56-1.25-1.25v-22.86c0-.64.31-1.25.84-1.63l4.51-3.21c.7-.5,1.63-.49,2.32,0l4.5,3.21c.52.37.84.98.84,1.63v31.64Z" fill="#1e1e1c"/>
</svg>