<?xml version="1.0" encoding="UTF-8"?>
<svg id="a" data-name="3219" xmlns="http://www.w3.org/2000/svg" viewBox="0 0 64 64">
  <path d="M41.23,64H9.15V18.62c0-2.68,1.3-5.2,3.48-6.75L27.18,1.53c2.87-2.04,6.73-2.04,9.6,0l14.54,10.34c2.18,1.55,3.48,4.07,3.48,6.75v39.02c0,1.38-1.12,2.5-2.5,2.5s-2.5-1.12-2.5-2.5V18.62c0-1.06-.52-2.06-1.38-2.68l-14.54-10.34c-1.14-.81-2.67-.81-3.8,0l-14.55,10.34c-.86.61-1.38,1.61-1.38,2.67v40.38h22.09V22.74l-4.26-3.04-4.26,3.04v28.63c0,1.38-1.12,2.5-2.5,2.5s-2.5-1.12-2.5-2.5v-29.42c0-1.12.54-2.17,1.45-2.82l5.8-4.13c1.2-.86,2.81-.86,4.02,0l5.8,4.13c.91.65,1.45,1.7,1.45,2.82v42.05ZM36.88,23.2s0,0,0,0h0ZM32.87,19.07h0s0,0,0,0Z" fill="#1e1e1c"/>
</svg>