<?xml version="1.0" encoding="UTF-8"?>
<svg id="a" data-name="3219" xmlns="http://www.w3.org/2000/svg" viewBox="0 0 16 16">
  <path d="M11,16.02H1.52V5.26c0-.92.46-1.77,1.22-2.28L6.48.48c.93-.62,2.12-.62,3.05,0l3.75,2.5c.76.51,1.22,1.36,1.22,2.28v8.57c0,.69-.56,1.25-1.25,1.25s-1.25-.56-1.25-1.25V5.26c0-.08-.04-.16-.11-.21l-3.75-2.5c-.08-.06-.19-.06-.28,0l-3.74,2.5c-.07.05-.11.12-.11.21v8.26h4.49v-6.56l-.5-.33-.49.33v4.32c0,.69-.56,1.25-1.25,1.25s-1.25-.56-1.25-1.25v-4.85c0-.5.25-.97.67-1.25l1.48-1c.5-.34,1.16-.34,1.66,0l1.51,1c.42.28.67.74.67,1.25v9.59ZM8.95,7.25s0,0,0,0h0ZM7.08,7.24h0s0,0,0,0ZM8.56,6.25h0s0,0,0,0Z" fill="#1e1e1c"/>
</svg>