<?xml version="1.0" encoding="UTF-8"?>
<svg id="_x33_219" xmlns="http://www.w3.org/2000/svg" version="1.1" viewBox="0 0 16 16">
  <!-- Generator: Adobe Illustrator 29.0.1, SVG Export Plug-In . SVG Version: 2.1.0 Build 192)  -->
  <defs>
    <style>
      .st0 {
        fill: #1e1e1c;
      }
    </style>
  </defs>
  <path class="st0" d="M14.75,4.5h-4.26l-1.04-2.44c-.28-.64-.91-1.06-1.61-1.06H1.25C.56,1,0,1.56,0,2.25v12.75h16V5.75c0-.69-.56-1.25-1.25-1.25ZM14.51,6v4.5H1.52v-3.75c0-.41.34-.75.75-.75h12.24ZM7.84,2.5c.1,0,.19.06.23.15l.79,1.85H2.27c-.27,0-.52.06-.76.14v-2.14h6.34ZM1.51,13.5v-1.5h13v1.5H1.51Z"/>
</svg>