<?xml version="1.0" encoding="UTF-8"?>
<svg id="_x33_219" xmlns="http://www.w3.org/2000/svg" version="1.1" viewBox="0 0 40 40">
  <!-- Generator: Adobe Illustrator 29.0.1, SVG Export Plug-In . SVG Version: 2.1.0 Build 192)  -->
  <defs>
    <style>
      .st0 {
        fill: #1e1e1c;
      }
    </style>
  </defs>
  <path class="st0" d="M36.62,12h-11.64l-2.87-6.71c-.53-1.24-1.75-2.04-3.1-2.04H3.37C1.51,3.25,0,4.76,0,6.62v30.12h40V15.38c0-1.86-1.51-3.38-3.38-3.38ZM36.62,14.25c.62,0,1.13.5,1.13,1.12v13.63H2.27v-12.44c0-1.28,1.04-2.31,2.31-2.31h32.03ZM3.37,5.5h15.63c.45,0,.86.27,1.03.68l2.49,5.82H4.59c-.86,0-1.65.25-2.34.67v-6.04c0-.62.51-1.12,1.13-1.12ZM2.25,34.5v-3.25h35.5v3.25H2.25Z"/>
</svg>