<?xml version="1.0" encoding="UTF-8"?>
<svg id="a" data-name="3219" xmlns="http://www.w3.org/2000/svg" viewBox="0 0 48 48">
  <path d="M41.51,9.45H3.07v-2.5h38.44v2.5ZM16.43,19.76H3.07v2.5h12.08c.34-.88.77-1.72,1.28-2.5ZM3.07,32.58v2.5h13.6c-.54-.78-1.01-1.61-1.39-2.5H3.07ZM46.91,46.3c-.68.68-1.59,1.06-2.55,1.06s-1.87-.38-2.55-1.06l-8.02-8.03c-1.77.96-3.78,1.5-5.93,1.5-6.89,0-12.5-5.61-12.5-12.51s5.61-12.51,12.5-12.51,12.5,5.61,12.5,12.51c0,2.13-.54,4.14-1.48,5.9l8.03,8.03c1.41,1.41,1.41,3.7,0,5.1ZM27.87,37.28c5.52,0,10-4.49,10-10.01s-4.49-10.01-10-10.01-10,4.49-10,10.01,4.49,10.01,10,10.01ZM45.14,42.96l-7.69-7.69c-.47.57-1,1.09-1.56,1.57l7.69,7.69c.42.42,1.15.42,1.57,0s.43-1.14,0-1.57Z" fill="#1e1e1c"/>
</svg>