<?xml version="1.0" encoding="UTF-8"?>
<svg id="a" data-name="3219" xmlns="http://www.w3.org/2000/svg" viewBox="0 0 48 48">
  <path d="M45.5,25.9h2.5v16.76c0,2.95-2.4,5.34-5.34,5.34H5.34c-2.95,0-5.34-2.4-5.34-5.34V5.35C0,2.4,2.4,0,5.34,0h14.87v2.5H5.34c-1.57,0-2.84,1.27-2.84,2.84v37.32c0,1.57,1.27,2.84,2.84,2.84h37.32c1.57,0,2.84-1.27,2.84-2.84v-16.76ZM29.69,0c-.69,0-1.25.56-1.25,1.25s.56,1.25,1.25,1.25h14.11l-26.61,26.61,1.77,1.77L45.5,4.34v13.98c0,.69.56,1.25,1.25,1.25s1.25-.56,1.25-1.25V0h-18.31Z" fill="#1e1e1c"/>
</svg>