<svg viewBox="0 0 32 32" xmlns="http://www.w3.org/2000/svg">
  <path fill="#1e1e1c" d="M9.57 4.49a1.291 1.291 0 0 1-2.58 0 1.291 1.291 0 0 1 2.58 0M4.79 3.21c-.71 0-1.29.58-1.29 1.28a1.291 1.291 0 0 0 2.58 0c0-.7-.58-1.28-1.29-1.28m14.19 15.63h-1.19v4.7h-2.44v3.62H8.17v-3.62H4.54v-7.17h3.63v-3.62h7.18v3.62h3.63zm-2-.48h-3.63v-3.62h-3.18v3.62H6.54v3.18h3.63v3.62h3.18v-3.62h3.63zm7.5 8.6c0 .55.45 1 1 1s1-.45 1-1v-.7a1.408 1.408 0 0 0-1-2.4 1.408 1.408 0 0 0-1 2.4zM2 30.03h15.79v2H0V2.52C0 1.15 1.12.03 2.5.03h26.99a2.5 2.5 0 0 1 2.5 2.5v16.31H30.9v-.77c0-.25-.02-.49-.06-.74 0-.06-.02-.12-.03-.17-.04-.23-.09-.47-.16-.69-.07-.23-.16-.46-.27-.68l-.06-.12a8 8 0 0 0-.35-.62V9.04H2zM2 7.04h27.99V2.52c0-.28-.22-.5-.5-.5H2.5c-.28 0-.5.22-.5.5v4.51Zm30 12.79v12.18H18.79V19.83h9.12v-1.77c0-1.37-1.12-2.49-2.49-2.49s-2.49 1.12-2.49 2.49h-2c0-2.47 2.02-4.49 4.49-4.49s4.49 2.01 4.49 4.49v1.77zm-2 2h-9.21v8.18H30z"/>
</svg>
