<svg viewBox="0 0 24 24" xmlns="http://www.w3.org/2000/svg">
  <path fill="#1e1e1c" d="M12.06 10.85c2.99 0 5.42-2.43 5.42-5.42S15.05 0 12.06 0 6.64 2.43 6.64 5.43s2.43 5.42 5.42 5.42m0-9.1c2.02 0 3.67 1.65 3.67 3.67s-1.65 3.67-3.67 3.67-3.67-1.65-3.67-3.67 1.65-3.67 3.67-3.67M6.28 12.8h5.9v1.75h-5.9c-2.52 0-4.58 2.06-4.58 4.58V24H-.05v-4.87c0-3.49 2.84-6.33 6.32-6.33Zm.23 6.33h1.75V24H6.51zm15.88-4.48v-1.18c0-1.92-1.56-3.47-3.47-3.47s-3.47 1.56-3.47 3.47v1.18h-1.59v9.33h10.08v-9.33h-1.56Zm-5.19-1.19a1.72 1.72 0 1 1 3.44 0v1.15H17.2zm5 8.77h-6.58V16.4h6.58zm-4.43-3.41c0-.65.53-1.18 1.18-1.18s1.18.53 1.18 1.18c0 .27-.11.51-.26.71v.55c0 .48-.39.88-.87.88s-.87-.39-.87-.88v-.43c-.21-.21-.35-.51-.35-.83Z"/>
</svg>
