<svg viewBox="0 0 24 24" xmlns="http://www.w3.org/2000/svg">
  <path fill="#1e1e1c" d="M11.74 11.29c3.11 0 5.64-2.53 5.64-5.64S14.85.02 11.74.02 6.1 2.55 6.1 5.66s2.53 5.64 5.64 5.64Zm0-8.27c1.45 0 2.64 1.18 2.64 2.63s-1.18 2.63-2.64 2.63S9.1 7.1 9.1 5.65s1.18-2.63 2.64-2.63m-5.27 10.1h5.37v3H6.47c-1.91 0-3.46 1.55-3.46 3.46v4.43H0v-4.43c0-3.56 2.91-6.46 6.47-6.46m-.49 6.46h3v4.43h-3zm17.1-4.9v-.53c0-2.26-1.84-4.1-4.1-4.1s-4.1 1.84-4.1 4.1v.53h-.96v9.34h10.1v-9.34h-.93Zm-5.2-.53c0-.61.49-1.1 1.1-1.1s1.1.49 1.1 1.1v.52h-2.2zm2.03 5.42v.55c0 .48-.39.88-.88.88s-.88-.39-.88-.88v-.43c-.21-.21-.35-.51-.35-.83 0-.65.53-1.18 1.18-1.18s1.18.53 1.18 1.18c0 .27-.11.51-.26.71Z"/>
</svg>
