<svg viewBox="0 0 64 64" xmlns="http://www.w3.org/2000/svg">
  <path fill="#1e1e1c" d="M28.78 53.89v-7.41h7.42V33.14h-7.42v-7.41H15.44v7.41H8.02v13.34h7.42v7.41zM10.77 43.73v-7.84h7.42v-7.41h7.84v7.41h7.42v7.84h-7.42v7.41h-7.84v-7.41zM9.51 7.96c0 1.07-.87 1.95-1.95 1.95s-1.95-.87-1.95-1.95.87-1.95 1.95-1.95 1.95.87 1.95 1.95m5.51 0c0 1.07-.87 1.95-1.95 1.95s-1.95-.87-1.95-1.95.87-1.95 1.95-1.95 1.95.87 1.95 1.95M61.12.02H2.88A2.88 2.88 0 0 0 0 2.9v61.12h37.22v-2.75H2.75V15.43h58.5v23.9H64V2.9A2.88 2.88 0 0 0 61.12.02M2.75 12.68V2.9c0-.07.06-.13.13-.13h58.25c.07 0 .13.06.13.13v9.79H2.75Zm57.02 23.76c0-4.61-3.75-8.36-8.36-8.36h-.13c-4.61 0-8.36 3.75-8.36 8.36h2.75a5.62 5.62 0 0 1 5.61-5.61h.13a5.62 5.62 0 0 1 5.61 5.61v4.27H38.6v23.31H64V40.71h-4.23zm1.47 24.83H41.35V43.46h19.89zM49.25 51.03c0-1.21.99-2.2 2.2-2.2s2.2.99 2.2 2.2c0 .69-.33 1.3-.83 1.71v1.72c0 .76-.62 1.38-1.38 1.38s-1.38-.62-1.38-1.38v-1.72c-.5-.4-.83-1.01-.83-1.71Z"/>
</svg>
