<svg viewBox="0 0 16 16" xmlns="http://www.w3.org/2000/svg">
  <path fill="#1e1e1c" d="M1.85 2.38C1.85 1.07 2.92 0 4.24 0a2.38 2.38 0 1 1 0 4.76c-1.31 0-2.39-1.06-2.39-2.38m8.83 1.74c.76 0 1.48.13 2.16.37.77-.4 1.31-1.19 1.31-2.11C14.14 1.07 13.07 0 11.76 0S9.37 1.07 9.37 2.38c0 .7.31 1.33.8 1.77.17-.01.34-.03.51-.03m-6.56 6.57c0-2.19 1.09-4.13 2.75-5.32-.32-.14-.67-.22-1.05-.22H2.66C1.19 5.15 0 6.34 0 7.8v2.9h1.43l.48 5.29h4.55l.02-.27a6.53 6.53 0 0 1-2.37-5.04Zm11.88 0c0 2.93-2.38 5.31-5.31 5.31s-5.31-2.38-5.31-5.31 2.38-5.31 5.31-5.31S16 7.76 16 10.69m-7.98.87 3.53-3.53c-.28-.09-.57-.15-.87-.15-1.55 0-2.81 1.26-2.81 2.81 0 .31.06.6.15.87m5.48-.87c0-.32-.06-.62-.16-.9l-3.55 3.55c.29.1.59.16.9.16 1.55 0 2.81-1.26 2.81-2.81"/>
</svg>
