<svg viewBox="0 0 16 16" xmlns="http://www.w3.org/2000/svg">
  <path fill="#1e1e1c" d="M4.04 3.14c0 .49-.4.89-.89.89s-.89-.4-.89-.89.4-.89.89-.89.89.4.89.89m1.6-.89c-.49 0-.89.4-.89.89s.4.89.89.89.89-.4.89-.89-.4-.89-.89-.89m10.36 0v6.5h-.28v-.09c0-.98-.49-1.85-1.22-2.39s-.02-.01-.02-.01c-.49-.35-1.09-.57-1.74-.57h-.47c-.65 0-1.25.22-1.74.57H1.5v8.25h6.75v1.5H0V2.25C0 1.01 1.01 0 2.25 0h11.5C14.99 0 16 1.01 16 2.25m-1.5 2.5v-2.5c0-.41-.34-.75-.75-.75H2.25c-.41 0-.75.34-.75.75v2.5zM4.25 8.35H2.5v4h1.75v1.75h4v-3.25h-1.5v1.75h-1v-1.75H4v-1h1.75V8.1h1v1.75h1.5V6.6h-4zM14.97 9.5H16V16H9V9.5h4.47v-.84c0-.4-.33-.73-.73-.73h-.47c-.4 0-.73.33-.73.73h-1.5c0-1.23 1-2.23 2.23-2.23h.47c1.23 0 2.23 1 2.23 2.23zM14.5 11h-4v3.5h4zm-2.7 2.26c0 .41.34.75.75.75s.75-.34.75-.75v-.32c.1-.15.17-.32.17-.52 0-.52-.43-.95-.95-.95s-.95.43-.95.95c0 .23.09.43.23.6z"/>
</svg>
