<svg viewBox="0 0 48 48" xmlns="http://www.w3.org/2000/svg">
  <path fill="#1e1e1c" d="M24.13 20.99c5.78 0 10.49-4.7 10.49-10.48S29.92.03 24.13.03s-10.49 4.7-10.49 10.48 4.7 10.48 10.49 10.48m0-18.46c4.4 0 7.98 3.58 7.98 7.98s-3.58 7.98-7.98 7.98-7.98-3.58-7.98-7.98 3.58-7.98 7.98-7.98M12.32 25.95H24.3v2.5H12.32c-5.42 0-9.83 4.41-9.83 9.82v9.76H0v-9.76c0-6.8 5.53-12.32 12.32-12.32m1.06 12.32h2.5v9.76h-2.5zm31.47-8.04v-2.89c0-3.58-2.91-6.49-6.49-6.49s-6.49 2.91-6.49 6.49v2.89h-3.2v17.79H48V30.23h-3.14Zm-10.48-2.9c0-2.2 1.79-3.99 3.99-3.99s3.99 1.79 3.99 3.99v2.83h-7.98zm11.12 18.19H31.16V32.73h14.33zm-8.91-7.39c0-1.03.84-1.87 1.86-1.87s1.87.84 1.87 1.87c0 .55-.24 1.03-.61 1.37v1.17a1.25 1.25 0 0 1-2.5 0V39.5c-.37-.34-.61-.83-.61-1.37Z"/>
</svg>
