<svg viewBox="0 0 24 24" xmlns="http://www.w3.org/2000/svg">
  <path fill="#1e1e1c" d="M9.62 5.54c0-1.31 1.07-2.38 2.38-2.38s2.38 1.07 2.38 2.38S13.31 7.92 12 7.92 9.62 6.85 9.62 5.54M24 12c0 6.62-5.38 12-12 12S0 18.62 0 12 5.38 0 12 0s12 5.38 12 12m-1.75 0c0-5.65-4.6-10.25-10.25-10.25S1.75 6.35 1.75 12 6.35 22.25 12 22.25 22.25 17.65 22.25 12m-2.76-2.99c-.28-.95-1.29-1.5-2.24-1.21l-4.53 1.35h-1.43L6.76 7.8c-.95-.28-1.96.26-2.24 1.21s.26 1.96 1.21 2.24l3.55 1.06v1.1l-2.05 3.54c-.54.82-.31 1.93.51 2.47s1.93.31 2.49-.54l1.76-2.92 1.82 2.95a1.784 1.784 0 0 0 2.47.52c.82-.54 1.05-1.65.54-2.43l-2.08-3.58v-1.1l3.55-1.06c.95-.28 1.5-1.29 1.21-2.24Z"/>
</svg>
