<svg viewBox="0 0 16 16" xmlns="http://www.w3.org/2000/svg">
  <path fill="#1e1e1c" d="M6.25 4.65c0-.97.79-1.75 1.75-1.75s1.75.79 1.75 1.75S8.96 6.4 8 6.4s-1.75-.79-1.75-1.75M9.79 6.5l-1.74.64-1.66-.63-.1-.04c-.81-.24-1.67.22-1.91 1.04-.23.79.2 1.62.96 1.89l.59.24-.44.79a1.53 1.53 0 0 0 1.28 2.37c.1 0 .21-.01.32-.03.4-.08.75-.32 1.01-.72s.05.06.05.06c.46.71 1.41.91 2.13.44.34-.23.58-.57.66-.97s0-.81-.22-1.16l-.52-.79.57-.21c.81-.25 1.27-1.11 1.03-1.92s-1.1-1.27-1.99-1.01ZM16 8c0 4.41-3.59 8-8 8s-8-3.59-8-8 3.59-8 8-8 8 3.59 8 8m-2.5 0c0-3.03-2.47-5.5-5.5-5.5S2.5 4.97 2.5 8s2.47 5.5 5.5 5.5 5.5-2.47 5.5-5.5"/>
</svg>
