<svg viewBox="0 0 32 32" xmlns="http://www.w3.org/2000/svg">
  <path fill="#1e1e1c" d="M16 10.32c1.67 0 3.03-1.36 3.03-3.03S17.67 4.26 16 4.26s-3.03 1.36-3.03 3.03 1.36 3.03 3.03 3.03m0-4.06c.57 0 1.03.46 1.03 1.03S16.57 8.32 16 8.32s-1.03-.46-1.03-1.03.46-1.03 1.03-1.03m10.66 5.27a2.357 2.357 0 0 0-2.93-1.58l-6.65 1.98h-2.17L8.26 9.95c-1.24-.37-2.56.34-2.93 1.58s.34 2.56 1.58 2.93l5.38 1.6v1.88l-3.04 5.24a2.321 2.321 0 0 0 2.42 3.54c.61-.13 1.13-.48 1.49-1.03l2.8-4.65 2.89 4.69c.34.52.86.87 1.47 1s1.23 0 1.75-.33c1.07-.7 1.37-2.15.7-3.17l-3.07-5.29v-1.88l5.38-1.6a2.357 2.357 0 0 0 1.58-2.93m-2.15 1.01-6.81 2.03v3.91l3.37 5.8c.1.15.05.35-.09.44-.1.06-.19.06-.24.04-.05 0-.14-.04-.19-.12l-4.6-7.46-4.47 7.43c-.06.1-.15.13-.2.14s-.14.02-.24-.04c-.15-.1-.19-.3-.06-.49l3.34-5.76v-3.91l-6.81-2.03a.366.366 0 0 1-.24-.44c.04-.15.18-.25.34-.25.03 0 .07 0 .1.01l6.79 2.03 2.75.04 7.08-2.07c.18-.05.38.05.44.23.05.19-.05.38-.24.44ZM16 0C7.18 0 0 7.18 0 16s7.18 16 16 16 16-7.18 16-16S24.82 0 16 0m0 30C8.28 30 2 23.72 2 16S8.28 2 16 2s14 6.28 14 14-6.28 14-14 14"/>
</svg>
