<svg viewBox="0 0 16 16" xmlns="http://www.w3.org/2000/svg">
  <path fill="#1e1e1c" d="M4.24 4.77c1.31 0 2.38-1.07 2.38-2.38S5.55 0 4.24 0 1.85 1.07 1.85 2.39s1.07 2.38 2.38 2.38Zm0-3.26c.49 0 .88.4.88.88s-.4.88-.88.88-.88-.4-.88-.88.4-.88.88-.88m7.52 3.26c1.31 0 2.38-1.07 2.38-2.38S13.07 0 11.76 0 9.38 1.07 9.38 2.38s1.07 2.38 2.38 2.38Zm0-3.26c.49 0 .88.4.88.88s-.4.88-.88.88-.88-.4-.88-.88.4-.88.88-.88m2.19 14.5s.02-.01.03-.02v.02zm-8.33-4.82c0 1.17.37 2.26.99 3.16l-.15 1.66H1.91l-.48-5.29H0v-2.9c0-1.47 1.19-2.67 2.66-2.67h3.16c.91 0 1.69.48 2.17 1.18.48-.71 1.28-1.18 2.19-1.18h3.16C14.8 5.15 16 6.34 16 7.81v.59a5.56 5.56 0 0 0-4.81-2.78c-1.24 0-2.37.42-3.3 1.11-.35.26-.68.55-.95.88-.1-.54-.55-.96-1.12-.96H2.66c-.64 0-1.16.52-1.16 1.16v1.4h1.3l.48 5.29h1.81l.48-5.29h.42c-.23.61-.37 1.28-.37 1.97Zm5.57-4.81c-2.65 0-4.81 2.16-4.81 4.81S8.54 16 11.19 16 16 13.84 16 11.19s-2.16-4.81-4.81-4.81m-3.32 4.81c0-1.83 1.49-3.31 3.31-3.31.64 0 1.22.19 1.73.5l-4.54 4.54a3.3 3.3 0 0 1-.5-1.73m3.32 3.31c-.65 0-1.25-.19-1.76-.52l4.55-4.55c.32.51.52 1.11.52 1.76 0 1.83-1.49 3.31-3.31 3.31"/>
</svg>
