<svg viewBox="0 0 64 64" xmlns="http://www.w3.org/2000/svg">
  <path fill="#1e1e1c" d="M61.11 0H2.87A2.88 2.88 0 0 0-.01 2.88v9.79h64V2.88A2.88 2.88 0 0 0 61.11 0M7.05 9.39c-1.07 0-1.95-.87-1.95-1.95s.87-1.95 1.95-1.95S9 6.36 9 7.44s-.87 1.95-1.95 1.95m5.51 0c-1.07 0-1.95-.87-1.95-1.95s.87-1.95 1.95-1.95 1.95.87 1.95 1.95-.87 1.95-1.95 1.95M-.01 64h34.97V37.04h4.31v-.37c0-6.61 5.38-11.99 11.99-11.99h.13c6.61 0 11.99 5.38 11.99 11.99v.37h.61V15.42h-64v48.59Zm6.49-26.68h8.65v-8.64h7.07v8.64h8.64v7.07H22.2v8.64h-7.07v-8.64H6.48zm54.4-.65c0-5.23-4.26-9.49-9.49-9.49h-.13c-5.23 0-9.49 4.26-9.49 9.49h5c0-2.47 2.01-4.49 4.49-4.49h.13c2.47 0 4.49 2.01 4.49 4.49v4H38.59v23.31h25.4V40.67h-3.1v-4ZM52.81 52.7v1.72c0 .76-.62 1.38-1.38 1.38s-1.38-.62-1.38-1.38V52.7c-.5-.4-.83-1.01-.83-1.71 0-1.21.99-2.2 2.2-2.2s2.2.99 2.2 2.2c0 .69-.33 1.3-.83 1.71Z"/>
</svg>
