<svg viewBox="0 0 64 64" xmlns="http://www.w3.org/2000/svg">
  <path fill="#1e1e1c" d="M53.13 23.07a4.12 4.12 0 0 0-2-2.46 4.07 4.07 0 0 0-3.15-.32L34.3 24.37h-4.63L16 20.29c-1.06-.32-2.18-.2-3.15.32s-1.68 1.4-2 2.46-.2 2.18.32 3.15 1.4 1.68 2.46 2l11.46 3.42v4.52l-6.31 10.89a4.086 4.086 0 0 0 1.17 5.64c1.88 1.23 4.41.7 5.67-1.22l6.28-10.44 6.48 10.49a4.065 4.065 0 0 0 5.64 1.17c1.88-1.23 2.4-3.76 1.21-5.57l-6.35-10.95v-4.52l11.46-3.42a4.08 4.08 0 0 0 2.46-2c.53-.97.64-2.09.32-3.15Zm-2.74 1.84c-.18.32-.47.56-.82.67l-13.43 4v7.31l6.76 11.66c.4.61.23 1.43-.38 1.83s-1.43.23-1.81-.35l-8.83-14.3-8.58 14.26c-.4.61-1.22.78-1.83.38s-.78-1.22-.34-1.89l6.72-11.59v-7.31l-13.43-4c-.35-.11-.65-.34-.82-.67s-.21-.7-.11-1.05c.11-.35.34-.65.67-.82s.7-.21 1.05-.11l14.06 4.19h5.43l14.06-4.19c.35-.11.73-.07 1.05.11s.56.47.67.82.07.73-.11 1.05ZM32 20.61c3.22 0 5.84-2.62 5.84-5.84S35.22 8.93 32 8.93s-5.84 2.62-5.84 5.84 2.62 5.84 5.84 5.84m0-8.93c1.7 0 3.09 1.39 3.09 3.09S33.7 17.86 32 17.86s-3.09-1.39-3.09-3.09 1.39-3.09 3.09-3.09M32 0C14.35 0 0 14.35 0 32s14.35 32 32 32 32-14.35 32-32S49.65 0 32 0m0 61.25C15.87 61.25 2.75 48.13 2.75 32S15.87 2.75 32 2.75 61.25 15.87 61.25 32 48.13 61.25 32 61.25"/>
</svg>
