<svg viewBox="0 0 40 40" xmlns="http://www.w3.org/2000/svg">
  <path fill="#1e1e1c" d="M20.06 17.57c4.84 0 8.77-3.93 8.77-8.77S24.9.03 20.06.03s-8.77 3.93-8.77 8.77 3.93 8.77 8.77 8.77m0-15.29c3.6 0 6.52 2.92 6.52 6.52s-2.93 6.52-6.52 6.52-6.52-2.92-6.52-6.52 2.93-6.52 6.52-6.52m-9.73 19.37h9.92v2.25h-9.92c-4.44 0-8.05 3.61-8.05 8.04v8.08H.03v-8.08c0-5.68 4.62-10.29 10.3-10.29m.74 10.3h2.25v8.08h-2.25zM37.41 25v-2.33c0-3.03-2.46-5.49-5.49-5.49s-5.49 2.46-5.49 5.49h2.25a3.24 3.24 0 1 1 6.48 0V25h-11.4v14.99h16.27V25zm.37 12.73H26.01V27.24h11.77zm-7.42-6.06a1.641 1.641 0 0 1 3.28 0c0 .47-.2.89-.51 1.18v.94c0 .62-.5 1.13-1.13 1.13s-1.13-.5-1.13-1.13v-.94c-.31-.3-.51-.72-.51-1.18"/>
</svg>
