<svg viewBox="0 0 40 40" xmlns="http://www.w3.org/2000/svg">
  <path fill="#1e1e1c" d="M19.83 18.32c5.08 0 9.21-4.12 9.21-9.19S24.91-.05 19.83-.05s-9.2 4.12-9.2 9.19 4.13 9.19 9.2 9.19Zm0-14.37c2.87 0 5.2 2.33 5.2 5.19s-2.33 5.19-5.2 5.19-5.2-2.33-5.2-5.19 2.33-5.19 5.2-5.19m-9.17 17.73H20v4h-9.34c-3.66 0-6.63 2.97-6.63 6.62v7.6H.02v-7.6c0-5.85 4.78-10.62 10.64-10.62m-.24 10.62h4.01v7.6h-4.01zm27.86-7.34v-2.68c0-3.51-2.86-6.37-6.38-6.37s-6.38 2.86-6.38 6.37h4.01c0-1.31 1.06-2.37 2.37-2.37s2.37 1.06 2.37 2.37v2.68H23.73v14.99h16.29V24.96zm-5.18 7.85v.94c0 .62-.5 1.13-1.13 1.13s-1.13-.5-1.13-1.13v-.94c-.31-.3-.51-.72-.51-1.18 0-.9.74-1.64 1.64-1.64s1.64.73 1.64 1.64c0 .47-.2.88-.51 1.18"/>
</svg>
