<svg viewBox="0 0 64 64" xmlns="http://www.w3.org/2000/svg">
  <path fill="#1e1e1c" d="M15.34 15.83c4.36 0 7.91-3.55 7.91-7.91S19.7 0 15.34 0 7.43 3.55 7.43 7.91s3.55 7.91 7.91 7.91Zm0-13.08c2.85 0 5.16 2.32 5.16 5.16s-2.32 5.16-5.16 5.16-5.16-2.32-5.16-5.16 2.32-5.16 5.16-5.16m33.34 13.08c4.36 0 7.91-3.55 7.91-7.91S53.04 0 48.68 0s-7.91 3.55-7.91 7.91 3.55 7.91 7.91 7.91Zm0-13.07c2.85 0 5.16 2.32 5.16 5.16s-2.32 5.16-5.16 5.16-5.16-2.32-5.16-5.16 2.32-5.16 5.16-5.16m15.33 24.29v9.99h-.94c-.52-.98-1.13-1.89-1.81-2.76v-7.23c0-3.45-2.8-6.25-6.25-6.25H42.36c-3.45 0-6.25 2.8-6.25 6.25v2.61c-.98.6-1.9 1.27-2.75 2.03v-4.64c0-4.96 4.04-9 9-9h12.65c4.96 0 9 4.04 9 9M30.67 34.6v-7.56c0-4.96-4.04-9-9-9H9.02c-4.97 0-9.02 4.04-9.02 9v9.99h5.57l1.92 26.98h15.28l1.92-26.98h4.4c.46-.85.99-1.66 1.57-2.43Zm-2.76-.32h-5.78l-1.92 26.98H10.05L8.13 34.28H2.76v-7.24c0-3.45 2.8-6.25 6.25-6.25h12.65c3.45 0 6.25 2.8 6.25 6.25zm18.17-5.82c-9.72 0-17.63 7.91-17.63 17.62S36.36 63.7 46.08 63.7s17.63-7.91 17.63-17.62-7.91-17.62-17.63-17.62m0 2.75c3.59 0 6.88 1.28 9.45 3.4L34.6 55.54c-2.12-2.57-3.4-5.86-3.4-9.45 0-8.2 6.67-14.87 14.88-14.87Zm0 29.74c-3.63 0-6.96-1.31-9.54-3.47l20.94-20.93c2.17 2.58 3.48 5.91 3.48 9.54 0 8.2-6.67 14.87-14.88 14.87Z"/>
</svg>
