<svg viewBox="0 0 40 40" xmlns="http://www.w3.org/2000/svg">
  <path fill="#1e1e1c" d="M4.62 5.23C4.62 2.36 6.96.02 9.83.02s5.21 2.33 5.21 5.2-2.34 5.2-5.21 5.2-5.21-2.33-5.21-5.2Zm25.53 5.2c2.87 0 5.21-2.33 5.21-5.2S33.02.03 30.15.03s-5.21 2.33-5.21 5.2 2.34 5.2 5.21 5.2m3.95 1.39h-7.9c-2.52 0-4.67 1.59-5.51 3.81 2.1-1.23 4.53-1.94 7.13-1.94 5.18 0 9.71 2.8 12.17 6.96v-2.94c0-3.24-2.64-5.88-5.89-5.88ZM19.53 16.4c-.6-2.62-2.94-4.58-5.74-4.58h-7.9C2.63 11.82 0 14.46 0 17.7v6.5h3.5l1.2 15.82h10.03l.44-5.9c-.95-1.9-1.5-4.03-1.5-6.29 0-4.7 2.32-8.86 5.86-11.43m20.44 11.43c0 6.69-5.45 12.14-12.15 12.14s-12.15-5.45-12.15-12.14 5.45-12.14 12.15-12.14 12.15 5.45 12.15 12.14m-20.31 0c0 1.51.42 2.92 1.14 4.13l11.15-11.14a8.1 8.1 0 0 0-4.14-1.14c-4.5 0-8.16 3.65-8.16 8.14Zm16.31 0c0-1.54-.44-2.97-1.18-4.2L23.61 34.79c1.23.74 2.66 1.18 4.2 1.18 4.5 0 8.16-3.65 8.16-8.14"/>
</svg>
