<svg viewBox="0 0 24 24" xmlns="http://www.w3.org/2000/svg">
  <path fill="#1e1e1c" d="M6.12 6.66c1.84 0 3.33-1.49 3.33-3.33S7.96 0 6.12 0 2.79 1.49 2.79 3.33s1.49 3.33 3.33 3.33m0-4.91c.87 0 1.58.71 1.58 1.58s-.71 1.58-1.58 1.58-1.58-.71-1.58-1.58.71-1.58 1.58-1.58M17.9 6.66a3.329 3.329 0 1 0-3.33-3.33c0 1.84 1.49 3.33 3.33 3.33m0-4.9c.87 0 1.58.71 1.58 1.58s-.71 1.58-1.58 1.58-1.58-.71-1.58-1.58.71-1.58 1.58-1.58m6.11 9.72v1.96a8.1 8.1 0 0 0-1.78-2.29c-.16-.94-.97-1.66-1.95-1.66h-1.06a7.83 7.83 0 0 0-8.73 3.23v-1.24c0-1.1-.89-1.99-1.99-1.99H3.75c-1.1 0-1.99.89-1.99 1.99v2.36h1.98l.72 8.42h3.17l.72-8.42h1.52c-.44.98-.69 2.06-.69 3.2 0 .89.16 1.75.43 2.55l-.38 4.43H2.85l-.72-8.42H0v-4.11a3.76 3.76 0 0 1 3.75-3.76H8.5c1.63 0 3 1.05 3.51 2.51.51-1.46 1.88-2.51 3.51-2.51h4.75c2.06 0 3.74 1.68 3.74 3.74Zm-6.98-1.43c-3.85 0-6.97 3.13-6.97 6.98s3.13 6.98 6.97 6.98 6.98-3.13 6.98-6.98-3.13-6.98-6.98-6.98m-5.22 6.98c0-2.88 2.34-5.22 5.22-5.22 1.12 0 2.15.36 3 .96l-7.26 7.26a5.2 5.2 0 0 1-.96-3m5.22 5.22c-1.13 0-2.17-.37-3.03-.99l7.27-7.27c.61.86.99 1.9.99 3.03 0 2.88-2.34 5.22-5.22 5.22Z"/>
</svg>
