<svg viewBox="0 0 48 48" xmlns="http://www.w3.org/2000/svg">
  <path fill="#1e1e1c" d="M11.72 12.31c3.39 0 6.15-2.76 6.15-6.15S15.11 0 11.72 0 5.57 2.76 5.57 6.15s2.76 6.15 6.15 6.15Zm0-9.81c2.01 0 3.65 1.64 3.65 3.65S13.73 9.8 11.72 9.8 8.07 8.16 8.07 6.15 9.71 2.5 11.72 2.5m24.57 9.81c3.39 0 6.16-2.76 6.16-6.15S39.68 0 36.29 0s-6.15 2.76-6.15 6.15 2.76 6.15 6.15 6.15Zm0-9.8c2.02 0 3.65 1.64 3.65 3.65s-1.64 3.65-3.65 3.65-3.65-1.64-3.65-3.65 1.64-3.65 3.65-3.65M48 21v7.08c-.65-1.34-1.5-2.57-2.5-3.66v-3.43c0-2.46-2.01-4.47-4.47-4.47h-9.49c-2.46 0-4.47 2-4.47 4.47v.66c-.9.52-1.73 1.14-2.5 1.83v-2.49c0-3.84 3.13-6.97 6.97-6.97h9.49c3.84 0 6.97 3.13 6.97 6.97Zm-24.57 0c0-3.84-3.13-6.97-6.97-6.97H6.97C3.13 14.03 0 17.15 0 21v7.71h4.19L5.63 48h11.86l1.44-19.29h1.88c.64-1.5 1.54-2.87 2.61-4.07V21Zm-2.5 5.21h-4.32L15.17 45.5H7.95L6.51 26.21H2.5V21c0-2.46 2.01-4.47 4.47-4.47h9.49c2.47 0 4.47 2 4.47 4.47zm13.63-5.08c-7.41 0-13.44 6.03-13.44 13.44s6.03 13.44 13.44 13.44S48 41.98 48 34.57s-6.03-13.44-13.44-13.44m0 2.5c2.55 0 4.89.88 6.76 2.35L25.98 41.32c-1.47-1.86-2.35-4.2-2.35-6.75 0-6.03 4.91-10.94 10.94-10.94Zm0 21.87c-2.58 0-4.95-.9-6.83-2.41l15.36-15.36c1.5 1.87 2.41 4.24 2.41 6.83 0 6.03-4.91 10.94-10.94 10.94"/>
</svg>
