<svg viewBox="0 0 40 40" xmlns="http://www.w3.org/2000/svg">
  <path fill="#1e1e1c" d="M20.17 17.72c4.86 0 8.82-3.95 8.82-8.8S25.03.11 20.17.11s-8.82 3.95-8.82 8.8 3.95 8.8 8.82 8.8Zm0-15.35c3.61 0 6.55 2.94 6.55 6.54s-2.94 6.54-6.55 6.54-6.55-2.94-6.55-6.54 2.94-6.54 6.55-6.54m-9.79 19.29h9.97v2.26h-9.97c-4.46 0-8.09 3.62-8.09 8.07v8.11H.03v-8.11c0-5.69 4.64-10.33 10.35-10.33M11.13 32h2.26v8.11h-2.26zm26.27-7.09v-2.34c0-3.04-2.48-5.52-5.52-5.52s-5.52 2.47-5.52 5.52v2.34h-2.68v15.05h16.35V24.91zm-8.78-2.33a3.26 3.26 0 0 1 6.52 0v2.28h-6.52zm9.15 15.12H25.94V27.17h11.83zm-7.47-6.09c0-.91.74-1.64 1.65-1.64s1.65.74 1.65 1.64c0 .47-.2.89-.51 1.19v.94c0 .62-.51 1.13-1.13 1.13s-1.13-.51-1.13-1.13v-.94c-.32-.3-.51-.72-.51-1.19Z"/>
</svg>
