<svg viewBox="0 0 16 16" xmlns="http://www.w3.org/2000/svg">
  <path fill="#1e1e1c" d="M13.78 0H2.28C1.04 0 .03 1.02.03 2.26v2.5h16v-2.5c0-1.24-1.01-2.26-2.25-2.26M2.89 3.69c-.49 0-.89-.4-.89-.89s.4-.89.89-.89.89.4.89.89-.4.89-.89.89m2.5 0c-.49 0-.89-.4-.89-.89s.4-.89.89-.89.89.4.89.89-.4.89-.89.89m9.87 2.57h.77v1.26c-.16-.48-.43-.9-.77-1.26m-15.23 0v9.75h7.74V8.25h1.09c.09-.77.44-1.45.95-1.99zm7.24 5.96h-2v2h-2.5v-2h-2v-2.5h2v-2h2.5v2h2zm7.98-3.57a2.48 2.48 0 0 0-2.48-2.48h-.47a2.48 2.48 0 0 0-2.48 2.48h2c0-.26.21-.48.48-.48h.47c.26 0 .48.21.48.48v.84H9.03v6.5h7v-6.5h-.78zm-1.92 4.29v.32c0 .41-.34.75-.75.75s-.75-.34-.75-.75v-.23a.9.9 0 0 1-.23-.6c0-.52.43-.95.95-.95s.95.43.95.95c0 .19-.07.37-.17.52Z"/>
</svg>
