<svg viewBox="0 0 48 48" xmlns="http://www.w3.org/2000/svg">
  <path fill="#1e1e1c" d="M5.49 6.21c0-.93.75-1.68 1.68-1.68s1.68.75 1.68 1.68-.75 1.68-1.68 1.68-1.68-.75-1.68-1.68m6.44 1.68c.93 0 1.68-.75 1.68-1.68s-.75-1.68-1.68-1.68-1.68.75-1.68 1.68.75 1.68 1.68 1.68M2.5 45.53h24.92v2.5H0V2.78C0 1.26 1.23.03 2.75.03h42.5C46.77.03 48 1.26 48 2.78v26.2h-1.89v-1.64c0-1.07-.22-2.09-.61-3.02V12.78h-43zm0-42.75v7.5h43v-7.5c0-.14-.11-.25-.25-.25H2.75c-.14 0-.25.11-.25.25m20.36 21.91h5.5v4.29h-.94v6.08h-4.56v5.5H12.5v-5.5H7V24.7h5.5v-5.5h10.36v5.5Zm-2.5 2.5v-5.5H15v5.5H9.5v5.36H15v5.5h5.36v-5.5h5.5v-5.36zM48 30.23v17.78H28.67V30.23h13.68v-2.89c0-2.2-1.79-3.99-3.99-3.99s-3.99 1.79-3.99 3.99h-2.5c0-3.58 2.91-6.49 6.49-6.49s6.49 2.91 6.49 6.49v2.89h3.14Zm-2.5 2.5H31.18v12.78H45.5zm-8.3 6.77v1.17a1.25 1.25 0 0 0 2.5 0V39.5c.37-.34.61-.83.61-1.37 0-1.03-.84-1.86-1.86-1.86s-1.86.84-1.86 1.86c0 .55.24 1.03.61 1.37"/>
</svg>
