<svg viewBox="0 0 16 16" xmlns="http://www.w3.org/2000/svg">
  <path fill="#1e1e1c" d="M7.82 7.58c2.08 0 3.77-1.7 3.77-3.79S9.89 0 7.82 0 4.05 1.7 4.05 3.79s1.69 3.79 3.77 3.79m0-5.08a1.291 1.291 0 0 1 0 2.58 1.291 1.291 0 0 1 0-2.58M4.4 8.6h3.49v2.5H4.4c-1.09 0-1.98.89-1.98 1.99v2.9H-.06v-2.9c0-2.48 2-4.49 4.46-4.49m-.59 4.49h2.48v2.9H3.81zM15.16 9.5v-.87c0-1.36-1.1-2.48-2.46-2.48h-.47c-1.36 0-2.46 1.11-2.46 2.48h1.99c0-.26.21-.48.47-.48h.47c.26 0 .47.21.47.48v.87H8.98V16h6.95V9.5zm-1.91 3.44v.32c0 .41-.33.75-.74.75s-.74-.34-.74-.75v-.24a.97.97 0 0 1-.23-.6c0-.52.42-.95.94-.95s.94.43.94.95c0 .19-.07.37-.17.52"/>
</svg>
