<svg viewBox="0 0 40 40" xmlns="http://www.w3.org/2000/svg">
  <path fill="#1e1e1c" d="M9.84 10.52c2.87 0 5.21-2.35 5.21-5.23S12.72.07 9.84.07 4.63 2.41 4.63 5.3s2.34 5.23 5.21 5.23Zm0-8.2c1.63 0 2.96 1.33 2.96 2.97s-1.33 2.97-2.96 2.97-2.96-1.33-2.96-2.97 1.33-2.97 2.96-2.97m20.32 8.21c2.87 0 5.21-2.35 5.21-5.23S33.03.07 30.16.07s-5.21 2.34-5.21 5.23 2.34 5.23 5.21 5.23m0-8.2c1.63 0 2.96 1.33 2.96 2.97s-1.33 2.97-2.96 2.97S27.2 6.94 27.2 5.3s1.33-2.97 2.96-2.97M19.69 17.7c0-3.26-2.64-5.91-5.89-5.91H5.9c-3.26 0-5.9 2.65-5.9 5.91v6.53h3.5l1.2 15.71h10.03l1.2-15.71h.97c.63-1.65 1.58-3.13 2.79-4.37zm-2.25 4.27h-3.59l-1.2 15.71H6.78l-1.2-15.71H2.24V17.7c0-2.01 1.63-3.65 3.64-3.65h7.9c2.01 0 3.64 1.64 3.64 3.65v4.27ZM40 17.71v5.34c-.59-1.17-1.35-2.24-2.25-3.17V17.7c0-2.01-1.63-3.65-3.64-3.65h-7.9c-1.99 0-3.61 1.61-3.64 3.6-.81.45-1.56 1-2.26 1.62V17.7c0-3.26 2.64-5.91 5.89-5.91h7.9c3.25 0 5.89 2.65 5.89 5.91Zm-11.29-.28c-6.22 0-11.28 5.08-11.28 11.32s5.06 11.32 11.28 11.32 11.28-5.08 11.28-11.32-5.06-11.32-11.28-11.32m0 2.26c2.07 0 3.98.71 5.5 1.89L21.56 34.27a9 9 0 0 1-1.88-5.52c0-5 4.05-9.06 9.03-9.06m0 18.12c-2.1 0-4.03-.73-5.56-1.94l12.66-12.7a9.05 9.05 0 0 1 1.93 5.58c0 5-4.05 9.06-9.03 9.06"/>
</svg>
