<svg viewBox="0 0 32 32" xmlns="http://www.w3.org/2000/svg">
  <path fill="#1e1e1c" d="M7.98 8.54c2.35 0 4.27-1.92 4.27-4.27S10.34 0 7.98 0 3.72 1.92 3.72 4.27s1.91 4.27 4.27 4.27Zm0-6.54c1.25 0 2.27 1.02 2.27 2.27S9.23 6.54 7.98 6.54 5.71 5.52 5.71 4.27 6.73 2 7.98 2m16.05 6.54c2.35 0 4.27-1.91 4.27-4.27S26.38 0 24.03 0s-4.27 1.92-4.27 4.27 1.92 4.27 4.27 4.27m0-6.54c1.25 0 2.27 1.02 2.27 2.27s-1.02 2.27-2.27 2.27-2.27-1.02-2.27-2.27S22.78 2 24.03 2m-5.94 11.96c-.74.4-1.42.9-2.04 1.46v-1.06c0-2.65 2.16-4.81 4.81-4.81h6.33a4.82 4.82 0 0 1 4.82 4.81v4.15c-.51-1.05-1.18-2.01-2-2.82v-1.32c0-1.55-1.26-2.81-2.81-2.81h-6.33c-1.41 0-2.57 1.05-2.77 2.41Zm-2.13.4c0-2.65-2.16-4.81-4.81-4.81H4.82C2.17 9.55 0 11.71 0 14.36v5.31h2.81L3.77 32h8.21l.96-12.33h.33a10.1 10.1 0 0 1 2.68-4.16v-1.14Zm-2 3.31H11.1L10.14 30H5.63l-.96-12.33H2.01v-3.31c0-1.55 1.26-2.81 2.81-2.81h6.33c1.55 0 2.81 1.26 2.81 2.81zm8.92-3.92c-5.03 0-9.13 4.09-9.13 9.12s4.09 9.12 9.13 9.12 9.13-4.09 9.13-9.12-4.09-9.12-9.13-9.12m0 2c1.59 0 3.06.53 4.25 1.42l-9.96 9.95a7.07 7.07 0 0 1-1.42-4.25c0-3.93 3.2-7.12 7.13-7.12m0 14.25c-1.61 0-3.1-.55-4.3-1.45l9.97-9.97c.91 1.2 1.46 2.68 1.46 4.3 0 3.93-3.2 7.12-7.13 7.12"/>
</svg>
