<svg viewBox="0 0 24 24" xmlns="http://www.w3.org/2000/svg">
  <path d="M12 8.23c1.49 0 2.69-1.21 2.69-2.69S13.48 2.85 12 2.85 9.31 4.06 9.31 5.54 10.52 8.23 12 8.23m0-3.63a.939.939 0 1 1 0 1.88.939.939 0 1 1 0-1.88m4.67 3.22c-.24 0-.48.04-.72.1l-3.52 1.05h-.86L8.05 7.92a2.52 2.52 0 0 0-3.12 1.69c-.19.64-.12 1.32.2 1.91s.85 1.02 1.49 1.21l2.04.61-1.44 2.48a2.49 2.49 0 0 0 2.11 3.8c.84 0 1.62-.42 2.08-1.12l.02-.03.02-.03.54-.9.56.91c.49.74 1.26 1.16 2.11 1.16.49 0 .96-.14 1.36-.41.56-.36.94-.92 1.07-1.57.13-.63.02-1.27-.32-1.82l-1.44-2.48 2.04-.61c.64-.19 1.17-.62 1.49-1.21s.39-1.27.2-1.91a2.52 2.52 0 0 0-2.4-1.79Zm.21 3.23-3.38 1.01v1.61l1.78 3.06a.727.727 0 0 1-.61 1.13c-.24 0-.47-.12-.61-.33l-2.08-3.36-2.02 3.36c-.14.21-.37.33-.61.33a.729.729 0 0 1-.61-1.13l1.78-3.06v-1.61l-3.38-1.01a.744.744 0 0 1-.5-.93.756.756 0 0 1 .93-.51l3.77 1.12h1.37l3.77-1.12q.105-.03.21-.03c.32 0 .62.21.72.54.12.4-.11.81-.5.93ZM12 0C5.38 0 0 5.38 0 12s5.38 12 12 12 12-5.38 12-12S18.62 0 12 0m0 22.25c-5.65 0-10.25-4.6-10.25-10.25S6.35 1.75 12 1.75 22.25 6.35 22.25 12 17.65 22.25 12 22.25"/>
</svg>
