<svg viewBox="0 0 24 24" xmlns="http://www.w3.org/2000/svg">
  <path fill="#1e1e1c" d="M2.79 3.33C2.79 1.49 4.28 0 6.12 0s3.33 1.49 3.33 3.33-1.49 3.33-3.33 3.33-3.33-1.49-3.33-3.33M17.9 6.66a3.329 3.329 0 1 0-3.33-3.33c0 1.84 1.49 3.33 3.33 3.33m1.26 1.07c2 .64 3.71 1.95 4.84 3.67a3.737 3.737 0 0 0-3.73-3.67zm-7.94 1.21A3.68 3.68 0 0 0 8.5 7.73H3.75C1.69 7.73 0 9.4 0 11.46v4.11h2.13l.72 8.42h6.38l.15-1.8A9.05 9.05 0 0 1 7.3 16.4c0-3.09 1.55-5.82 3.91-7.46Zm12.79 7.46c0 4.19-3.41 7.6-7.6 7.6s-7.6-3.41-7.6-7.6 3.41-7.6 7.6-7.6 7.6 3.41 7.6 7.6m-11.73 1.98 6.11-6.11c-.6-.29-1.27-.46-1.98-.46-2.53 0-4.6 2.06-4.6 4.6 0 .71.18 1.38.46 1.98Zm8.73-1.98c0-.73-.19-1.41-.49-2.02l-6.13 6.13c.61.3 1.29.49 2.02.49 2.53 0 4.6-2.06 4.6-4.6"/>
</svg>
