<svg viewBox="0 0 24 24" xmlns="http://www.w3.org/2000/svg">
  <path fill="#1e1e1c" d="M3.11 3.73c0-.6.49-1.09 1.09-1.09s1.09.49 1.09 1.09S4.8 4.82 4.2 4.82s-1.09-.49-1.09-1.09m4.35 1.09c.6 0 1.09-.49 1.09-1.09s-.49-1.09-1.09-1.09-1.09.49-1.09 1.09.49 1.09 1.09 1.09M1.74 22.27h11.3v1.75H0V2.4C0 1.09 1.06.03 2.37.03h19.26c1.31 0 2.38 1.07 2.38 2.38v11.41h-.68v-.31c0-1.09-.41-2.07-1.07-2.83V7.65H1.74v14.63Zm0-19.87v3.49h20.52V2.4c0-.35-.28-.63-.63-.63H2.37c-.35 0-.63.28-.63.63M14.3 13.81h-1.26v4.01H11.6v2.7H6v-2.7H3.3v-5.61H6v-2.7h5.6v2.7h2.7v1.59Zm-1.75.16h-2.7v-2.7h-2.1v2.7h-2.7v2.1h2.7v2.7h2.1v-2.7h2.7zm11.46.72v9.34h-10.1v-9.34h6.79v-1.18a1.72 1.72 0 1 0-3.44 0h-1.75c0-1.92 1.56-3.48 3.48-3.48s3.48 1.56 3.48 3.48v1.18h1.56Zm-1.75 1.75h-6.59v5.83h6.59zm-4.09 3.69c0 .48.39.88.88.88s.88-.39.88-.88v-.55c.16-.2.26-.44.26-.71 0-.65-.53-1.18-1.18-1.18s-1.18.53-1.18 1.18c0 .33.13.62.35.83v.43Z"/>
</svg>
