<svg viewBox="0 0 64 64" xmlns="http://www.w3.org/2000/svg">
  <path fill="#1e1e1c" d="M32.2 27.58c7.61 0 13.8-6.19 13.8-13.79S39.81 0 32.2 0 18.4 6.19 18.4 13.79s6.19 13.79 13.8 13.79m0-24.83c6.09 0 11.05 4.95 11.05 11.04S38.29 24.83 32.2 24.83s-11.05-4.95-11.05-11.04S26.11 2.75 32.2 2.75M16.31 34.49h16.18v2.75H16.31c-7.49 0-13.58 6.09-13.58 13.57v13.17H-.02V50.81c0-9 7.32-16.32 16.33-16.32m1.67 16.32h2.75v13.17h-2.75zm41.77-10.12v-4.27c0-4.61-3.75-8.36-8.36-8.36h-.13c-4.61 0-8.36 3.75-8.36 8.36v4.27h-4.31V64h25.39V40.69zm-14.1-4.27a5.62 5.62 0 0 1 5.61-5.61h.13A5.62 5.62 0 0 1 57 36.42v4.17H45.65zm15.58 24.83H41.34V43.44h19.89zM49.24 51.01c0-1.21.99-2.2 2.2-2.2s2.2.99 2.2 2.2c0 .69-.33 1.3-.83 1.71v1.72c0 .76-.62 1.38-1.38 1.38s-1.38-.62-1.38-1.38v-1.72c-.5-.4-.83-1.01-.83-1.71Z"/>
</svg>
