<svg viewBox="0 0 32 32" xmlns="http://www.w3.org/2000/svg">
  <path d="m22.65 25.85.73 6.15-6.25-4a5.7 5.7 0 0 0 1.56-3.93v-8.1l-7.78-2.4-4.16-4.16 1.63.43 1.08-7.62 4.5 6 .9-6.72.8 6.11L21.33.02l.11 9.06 4.52-3.79-3.47 4.96 9.49-1.96-7.91 9.31 6.7.55-6.23 1.13 7.48 7.02-9.36-.46Zm-12.2.27a2.949 2.949 0 1 0 2.95 2.95c0-1.63-1.32-2.95-2.95-2.95M.01 16.99h7.44v-4.42l-3-3c-.37-.37-.89-.59-1.42-.59H.01v8Zm16.84 4.5h-3.27c-.55 0-1-.45-1-1s.45-1 1-1h3.27s.06.02.09.02v-2.25l-6.96-2.14-.53-.53V17c0 1.1-.9 2-2 2H.01v9.07H5.6a4.95 4.95 0 0 1 4.84-3.94c2.15 0 3.96 1.39 4.65 3.3a3.99 3.99 0 0 0 1.85-3.36v-2.6s-.06.02-.1.02Z"/>
</svg>
