<svg viewBox="0 0 40 40" xmlns="http://www.w3.org/2000/svg">
  <path d="m28.86 32.27-.55-.03.91 7.68-8.07-5.17a6.7 6.7 0 0 0 1.77-4.54v-9.8l-9.52-2.93-6.07-6.08 3.14.82 1.35-9.52 5.73 7.62 1.03-8.53.91 7.75 7.17-9.57.14 11.45 5.64-4.86-4.47 6.22 12.01-2.47L30 22.04l8.46.59-7.88 1.33 9.44 8.86zm-15.8.04c-2.11 0-3.83 1.72-3.83 3.83s1.72 3.83 3.83 3.83 3.83-1.72 3.83-3.83-1.72-3.83-3.83-3.83m3.91-5.44c-.62 0-1.12-.5-1.12-1.12s.5-1.12 1.12-1.12h4.08v-2.82l-8.64-2.66-.72-.72v2.96c0 1.31-1.07 2.37-2.37 2.37H.01V35.1h7.07a6.08 6.08 0 0 1 5.98-5.02c2.7 0 5 1.78 5.78 4.22a4.86 4.86 0 0 0 2.21-4.07v-3.35h-4.08ZM.01 21.5h9.3c.07 0 .12-.06.12-.12v-5.22L5.47 12.2c-.45-.45-1.04-.69-1.68-.69H.01v10Z"/>
</svg>
