<svg viewBox="0 0 16 16" xmlns="http://www.w3.org/2000/svg">
  <path d="m11.33 12.93.37 3.08-3.19-2.04c.37-.34.64-.78.8-1.27l.52.33-.2-1.69 1.77.09.61.03-1.29-1.21-1.04-.98.93-1.09 1.43-1.68-1 .21-1.78.37-.02-1.82v-.81l-.73.97-1.16 1.55-.09-.03-1.14-1.52-.39-.52-.03.23-.18 1.26L4 4.86l.22.06.54-3.81 1.93 2.57.65-2.6.42 2.86L10.67 0l.05 4.03 2.01-1.48-1.57 2.59 4.84-1-3.79 4.46 3.18.47-2.94.73 3.56 3.35-4.68-.23Zm-3.85.84a2.25 2.25 0 0 1-2.24 2.21c-1.14 0-2.08-.86-2.22-1.96H.01v-1.5h3.33c.4-.62 1.1-1.04 1.89-1.04.7 0 1.33.33 1.74.84.15-.14.26-.33.26-.56v-1.04H6.04c-.41 0-.75-.34-.75-.75s.34-.75.75-.75h1l-2.13-.66c-.15.52-.61.91-1.18.91H.01v-1.5h3.47v-.44L1.42 5.47H.01v-1.5h1.52c.33 0 .65.13.88.37l2.72 2.72 3.6 1.11v3.59c0 .88-.51 1.64-1.25 2.01m-1.5-.04c0-.41-.34-.75-.75-.75s-.75.34-.75.75.34.75.75.75.75-.34.75-.75"/>
</svg>
