<svg viewBox="0 0 16 16" xmlns="http://www.w3.org/2000/svg">
  <path d="m11.33 12.93.37 3.08-2.74-1.75a3.46 3.46 0 0 0 1.01-2.46V7.29L5.79 6 4.26 4.47l.47-3.35 1.93 2.57.65-2.6.42 2.86L10.67 0l.05 4.02 2.01-1.48-1.57 2.59 4.84-1-3.79 4.46 3.18.47-2.94.73 3.56 3.34-4.68-.23Zm-6.1-.17c-.89 0-1.62.73-1.62 1.62S4.34 16 5.23 16s1.62-.73 1.62-1.62-.73-1.62-1.62-1.62m3.47-2.01H7.06c-.41 0-.75-.34-.75-.75s.34-.75.75-.75h1.67V8.18l-3.6-1.11-.15-.15v1.33c0 .69-.56 1.25-1.25 1.25H.01V8h3.47V5.42L2.41 4.35c-.23-.23-.55-.37-.88-.37H.01v10.04h2.14c.18-1.55 1.49-2.76 3.08-2.76 1.33 0 2.46.84 2.91 2.02.36-.4.59-.93.59-1.51v-1.03H8.7Z"/>
</svg>
