<svg viewBox="0 0 48 48" xmlns="http://www.w3.org/2000/svg">
  <path d="m4.9 12.73-.02-.03.18.05c-.06 0-.11-.01-.17-.02Zm43.11 26.72L36.6 28.74l9.53-1.52-10.22-.62 12.05-14.18-14.53 3 5.49-7.5-6.77 5.94-.16-13.88-8.67 11.6-1.02-9.4-1.16 10.35-6.95-9.26-1.62 11.44-6.43-1.68c.46.2.89.48 1.25.84l2.8 2.8 1.75.46 2.71.71.39-2.78.77-5.46 4.06 5.41 2 2.67 2-2.67 5.7-7.62.1 8.31.04 3.03 2.97-.61 8.68-1.79-8.05 9.48-1.54 1.81 1.73 1.63 7.85 7.37-7.25-.36-2.95-.14.35 2.94.47 3.97-6.13-3.93c-.33.76-.8 1.47-1.39 2.08l10.62 6.81-1.1-9.23zm-24.54.94c-.6.6-1.31 1.02-2.09 1.3.02.17.03.35.03.52 0 3.17-2.58 5.75-5.75 5.75s-5.75-2.58-5.75-5.75v-.14H.01v-2.5h10.56c.96-1.85 2.88-3.12 5.1-3.12s3.97 1.16 4.97 2.87a3.24 3.24 0 0 0 2.02-3.01v-4.12H18.1a1.25 1.25 0 0 1 0-2.5h4.55v-1.57l-8.73-2.69v.27c0 1.52-1.23 2.75-2.75 2.75H.01v-2.5h11.16c.14 0 .25-.11.25-.25v-2.48l-6.69-6.7s-.11-.07-.18-.07H.01v-2.5h4.54c.72 0 1.43.29 1.94.81l8.33 8.35 10.32 3.18v10.04c0 1.54-.59 2.98-1.68 4.07Zm-4.55 1.82c0-1.79-1.46-3.25-3.25-3.25s-3.25 1.46-3.25 3.25 1.46 3.25 3.25 3.25 3.25-1.46 3.25-3.25"/>
</svg>
