<svg viewBox="0 0 64 64" xmlns="http://www.w3.org/2000/svg">
  <path d="m46.6 62.69.16 1.31-13.63-8.73a9.68 9.68 0 0 0 2.5-6.51V33.84L20.89 29.3 10.15 18.54c-.41-.41-.89-.73-1.39-1l8 2.09 2.16-15.25 9.5 12.66 1.31-14.11 1.14 12.83L42.65 0l.22 18.78 9.02-8.22-7.67 10.07 19.72-4.07-16.28 19.16 13.84.58-12.94 1.82L64 52.62l-18.72-.92 1.31 10.99ZM20.89 51.98c-3.31 0-6 2.7-6 6.01s2.69 6.01 6 6.01 6-2.7 6-6.01-2.69-6.01-6-6.01m12.35-9.02s-.08.01-.13.01h-6.54a1.38 1.38 0 0 1 0-2.76h6.54s.09 0 .13.01v-4.64l-13.62-4.2-1.35-1.36v4.57a3.38 3.38 0 0 1-3.37 3.38H.01v18.16h12.32c.85-3.94 4.36-6.91 8.55-6.91 3.9 0 7.21 2.57 8.34 6.1.68-.35 1.31-.8 1.86-1.35a7.35 7.35 0 0 0 2.16-5.22v-5.8ZM.01 35.23h14.88c.34 0 .62-.28.62-.63v-7.32l-7.06-7.07c-.64-.64-1.48-.99-2.39-.99H.01z"/>
</svg>
