<svg viewBox="0 0 16 16" xmlns="http://www.w3.org/2000/svg">
  <path d="M3.55 3.27C3.55 1.46 5.02 0 6.83 0s3.28 1.47 3.28 3.27a3.28 3.28 0 0 1-6.56 0M0 11.46v3.38h3.05v-3.38h1.5v3.38H6.8l-.51-.88-.56-.97.76-.81.34-.37c0-.1-.01-.2-.01-.3 0-.11 0-.22.01-.33l-.34-.36-.76-.81.56-.97.62-1.07.12-.22H3.68C1.66 7.76 0 9.42 0 11.46m15.16.9.82.87-.62 1.07-1.17-.28c-.4.38-.89.65-1.44.81l-.35 1.16h-1.24l-.35-1.18c-.54-.16-1.02-.44-1.41-.82l-1.18.28-.62-1.07.84-.9c-.06-.26-.1-.52-.1-.8s.04-.56.11-.82l-.84-.89.62-1.07 1.2.28c.39-.37.88-.65 1.41-.8l.35-1.17h1.24l.35 1.17c.54.16 1.03.44 1.43.82l1.17-.27.62 1.07-.83.88c.06.26.11.53.11.82s-.05.57-.11.84Zm-1.85-.84c0-.83-.67-1.5-1.5-1.5s-1.5.67-1.5 1.5.67 1.5 1.5 1.5 1.5-.67 1.5-1.5"/>
</svg>
