<svg viewBox="0 0 48 48" xmlns="http://www.w3.org/2000/svg">
  <path d="M20.35 20.57c5.67 0 10.27-4.6 10.27-10.27S26.02.03 20.35.03 10.08 4.63 10.08 10.3s4.6 10.27 10.27 10.27m0-18.04c4.29 0 7.78 3.49 7.78 7.77s-3.49 7.77-7.78 7.77-7.78-3.49-7.78-7.77 3.49-7.77 7.78-7.77m-9.19 33.46h2.5v8.26h-2.5zm34.42-.16c.06-.43.09-.86.09-1.27s-.03-.8-.08-1.21l1.16-1.23 1.27-1.35-.93-1.61-1.52-2.63-.93-1.61-1.81.43-1.65.39q-.975-.705-2.1-1.2l-.5-1.68-.54-1.78h-6.76l-.54 1.78-.51 1.68c-.73.32-1.42.71-2.05 1.17l-1.72-.41-1.81-.43-.36.62H10.51C4.73 25.49.02 30.2.02 35.99v8.26h2.5v-8.26c0-4.41 3.59-8.01 8.01-8.01h12.33l-.65 1.12-.93 1.61 1.27 1.35 1.19 1.26c-.05.42-.08.83-.08 1.23 0 .38.02.76.07 1.15l-1.21 1.28-1.27 1.35.93 1.61 1.52 2.63.93 1.61 1.81-.43 1.68-.4c.64.46 1.33.86 2.06 1.19l.51 1.69.54 1.78h6.75l.54-1.78.49-1.64c.75-.32 1.46-.72 2.12-1.2l1.67.39 1.81.43.93-1.61 1.52-2.63.93-1.61-1.27-1.35-1.14-1.21Zm-2.42-1.27c0 .71-.11 1.39-.28 2.05l2.01 2.14-1.52 2.63-2.88-.68c-.98.93-2.18 1.6-3.52 1.98l-.86 2.84h-3.04l-.87-2.88c-1.31-.4-2.5-1.07-3.46-2l-2.89.68-1.52-2.63 2.06-2.19c-.15-.63-.25-1.28-.25-1.95s.11-1.37.27-2.02l-2.06-2.19 1.52-2.63 2.93.69a8.6 8.6 0 0 1 3.46-1.97l.86-2.87h3.04l.86 2.87a8.45 8.45 0 0 1 3.49 2l2.86-.67 1.52 2.63-2.03 2.15c.16.65.26 1.31.26 2Zm-8.48-5.17c-2.85 0-5.17 2.32-5.17 5.17s2.32 5.17 5.17 5.17 5.17-2.32 5.17-5.17-2.32-5.17-5.17-5.17m0 7.84c-1.47 0-2.68-1.2-2.68-2.67s1.2-2.67 2.68-2.67 2.68 1.2 2.68 2.67-1.2 2.67-2.68 2.67"/>
</svg>
