<svg viewBox="0 0 24 24" xmlns="http://www.w3.org/2000/svg">
  <path d="M6.04 7.83c-.54-.8-.86-1.76-.86-2.8C5.18 2.26 7.43.02 10.2.02c1.39 0 2.64.56 3.55 1.47s1.47 2.16 1.47 3.55a5.021 5.021 0 0 1-9.18 2.8Zm5.15 4.75.23-.4H5.4c-2.98 0-5.4 2.42-5.4 5.39v4.91h4.95v-4.91H6.7v4.91h4.52l-.05-.08-.9-1.56-.65-1.13.89-.95.63-.67c-.02-.2-.03-.4-.03-.59 0-.21.01-.42.03-.64l-.62-.66-.89-.95.65-1.13.9-1.56Zm11.6 6.14 1.2 1.27-.9 1.56-1.71-.4a5.1 5.1 0 0 1-2.09 1.18l-.51 1.69h-1.8l-.51-1.71c-.78-.23-1.48-.64-2.05-1.19l-1.72.4-.9-1.56 1.23-1.3c-.09-.37-.15-.76-.15-1.16s.06-.81.16-1.2L11.82 15l.9-1.56 1.74.41c.57-.54 1.27-.94 2.05-1.17l.51-1.7h1.8l.51 1.7c.79.23 1.5.63 2.07 1.19l1.7-.4.9 1.56-1.2 1.28c.09.38.16.78.16 1.19s-.07.83-.17 1.22m-2.87-1.21c0-1.1-.9-2-2-2s-2 .89-2 2 .9 2 2 2 2-.89 2-2"/>
</svg>
