<svg viewBox="0 0 40 40" xmlns="http://www.w3.org/2000/svg">
  <path d="M23.09 19.16 11.85 7.91l1.59-1.59 1.94 1.94 3.34-3.34 7.35 7.35-3.34 3.34 1.95 1.96zm-3.04 13.75-.21.19c-1.32 1.16-3.01 1.8-4.76 1.8s-3.44-.64-4.76-1.79l-.21-.19H0V40h40v-7.09zM8.81 25.06c0-3.36 3.86-7.49 4.64-8.28l1.43-1.47 1.43 1.47c.77.8 4.64 4.94 4.64 8.27s-2.72 6.07-6.07 6.07-6.07-2.72-6.07-6.07Zm4 0c0 1.14.93 2.07 2.07 2.07s2.07-.93 2.07-2.07c0-.8-.93-2.37-2.07-3.83-1.14 1.46-2.07 3.03-2.07 3.83m13.57-1.73-3.73 3.73a1.75 1.75 0 0 0 0 2.47c.34.34.79.51 1.24.51s.9-.17 1.24-.51l3.73-3.73c.68-.68.68-1.79 0-2.47s-1.79-.68-2.47 0Zm-21.75 6.2c.34.34.79.51 1.24.51s.9-.17 1.24-.51c.68-.68.68-1.79 0-2.47l-3.73-3.73c-.68-.68-1.79-.68-2.47 0s-.68 1.79 0 2.47l3.73 3.73ZM36.25 2.08c.59-.59 1.02-1.31 1.27-2.08H23.64l-3.33 3.33 7.35 7.35 8.59-8.59Z"/>
</svg>
