<svg viewBox="0 0 48 48" xmlns="http://www.w3.org/2000/svg">
  <path d="m27.78 22.92-13.5-13.5 1.77-1.77 2.44 2.44 4.15-4.15 8.61 8.61-4.15 4.15 2.45 2.45zm-3.66 16.72-.21.19c-1.6 1.41-3.67 2.19-5.81 2.19s-4.2-.78-5.81-2.19l-.21-.19H0V48h48v-8.36zm-13.4-9.57c0-3.97 4.6-8.88 5.53-9.83l1.61-1.65 1.61 1.66c.92.95 5.52 5.88 5.52 9.83s-3.2 7.14-7.14 7.14-7.14-3.2-7.14-7.14Zm4.5 0c0 1.45 1.18 2.64 2.64 2.64s2.64-1.18 2.64-2.64c0-1.08-1.27-3.1-2.64-4.84-1.35 1.7-2.63 3.71-2.63 4.84Zm16.51-2.01-4.47 4.47a2.004 2.004 0 0 0 1.41 3.42c.51 0 1.02-.2 1.41-.59l4.47-4.47c.78-.78.78-2.05 0-2.83s-2.05-.78-2.83 0Zm-26.1 7.31c.39.39.9.59 1.41.59s1.02-.2 1.41-.59c.78-.78.78-2.05 0-2.83l-4.47-4.47c-.78-.78-2.05-.78-2.83 0s-.78 2.05 0 2.83l4.47 4.47ZM43.4 2.4c.68-.68 1.18-1.51 1.47-2.4H28.58l-4.17 4.17 8.61 8.61z"/>
</svg>
