<svg viewBox="0 0 32 32" xmlns="http://www.w3.org/2000/svg">
  <path d="M32 25.93V32h-2v-4.07H16.63c-1.3 1.03-2.9 1.59-4.57 1.59s-3.27-.56-4.57-1.58H2v4.07H0v-6.07h8.24l.28.25c.98.86 2.24 1.34 3.54 1.34s2.56-.47 3.54-1.34l.28-.25h16.11ZM7.65 20.71c0-2.5 3.18-5.83 3.54-6.2l.72-.73.71.74c.36.37 3.54 3.71 3.54 6.2 0 2.35-1.91 4.26-4.26 4.26s-4.26-1.91-4.26-4.26Zm2 0c0 1.25 1.01 2.26 2.26 2.26s2.26-1.01 2.26-2.26c0-1.03-1.19-2.76-2.26-4.02-1.06 1.25-2.26 2.98-2.26 4.02m11.74-1.76-2.98 2.98a.996.996 0 0 0 .71 1.7c.26 0 .51-.1.71-.29l2.98-2.98a.996.996 0 1 0-1.41-1.41Zm-17.4 4.39c.2.2.45.29.71.29s.51-.1.71-.29a.996.996 0 0 0 0-1.41l-2.98-2.98a.996.996 0 1 0-1.41 1.41L4 23.34ZM9.41 6.4l1.41-1.41 1.27 1.27L18.35 0h2.83l-4.12 4.12 3.62 3.62 7.19-7.2c.16-.16.29-.34.41-.54h2.16c-.21.73-.6 1.4-1.15 1.95L18.54 12.7l1.28 1.28-1.41 1.41zm4.1 1.27 3.62 3.62 2.13-2.13-3.62-3.62z"/>
</svg>
