<svg viewBox="0 0 40 40" xmlns="http://www.w3.org/2000/svg">
  <path d="M40 32.53V40h-2.25v-5.22H20.74c-1.6 1.28-3.6 1.98-5.67 1.98s-4.06-.7-5.66-1.98H2.25v5.21H0v-7.47h10.24l.32.28c1.25 1.1 2.85 1.7 4.51 1.7s3.27-.6 4.51-1.7l.32-.28H40ZM9.68 25.89c0-3.08 3.94-7.21 4.39-7.67l.81-.83.8.83c.45.46 4.39 4.61 4.39 7.67 0 2.87-2.33 5.2-5.2 5.2s-5.2-2.33-5.2-5.2Zm2.25 0a2.949 2.949 0 1 0 5.9 0c0-1.34-1.58-3.62-2.95-5.21-1.37 1.58-2.95 3.86-2.95 5.21m14.89-2.12-3.73 3.73a1.123 1.123 0 0 0 .8 1.92c.29 0 .58-.11.8-.33l3.73-3.73c.44-.44.44-1.15 0-1.59s-1.15-.44-1.59 0ZM5.07 29.09c.22.22.51.33.8.33s.58-.11.8-.33c.44-.44.44-1.15 0-1.59l-3.73-3.73c-.44-.44-1.15-.44-1.59 0s-.44 1.15 0 1.59l3.73 3.73Zm18.02-9.93L11.85 7.91l1.59-1.59L15.12 8l4.41-4.46L23.11 0h3.18l-5.15 5.15 4.7 4.7L34.93.76c.23-.23.4-.49.55-.76h2.44c-.26.87-.73 1.68-1.4 2.35L22.99 15.88l1.69 1.69zm-1.68-4.87 2.84-2.84-4.7-4.7-2.84 2.84z"/>
</svg>
