<svg viewBox="0 0 48 48" xmlns="http://www.w3.org/2000/svg">
  <path d="M9.2 22.78H0c.15-2.94.84-5.73 1.96-8.3h8.05c-.46 2.6-.74 5.39-.8 8.3ZM23.96.05c-.31 0-.62.01-.93.02h1.85c-.31-.01-.61-.02-.93-.02ZM11.7 22.78h11.01v-8.3H12.58c-.5 2.6-.8 5.39-.87 8.3Zm1.43-10.8h9.58V.08c-1.41.07-2.79.28-4.13.58-2.31 2.48-4.23 6.47-5.45 11.31ZM29.35.66a23.5 23.5 0 0 0-4.13-.58v11.9h9.58C33.58 7.13 31.66 3.14 29.35.67ZM9.2 25.28H-.01c.15 2.93.83 5.73 1.95 8.3H10c-.46-2.6-.74-5.39-.8-8.3m26.36-9.6c-.07-.4-.14-.81-.21-1.2H25.22v7.69c2.08-3.66 5.91-6.2 10.35-6.48Zm2.58.09c4.28.59 7.89 3.28 9.75 7h.05c-.15-2.94-.84-5.73-1.96-8.3h-8.05q.12.645.21 1.29ZM14.41 2.03c-4.7 2.05-8.62 5.56-11.18 9.95h7.29c.91-3.87 2.24-7.26 3.9-9.94ZM3.21 36.08a24.12 24.12 0 0 0 11.21 9.98c-1.66-2.69-3-6.09-3.9-9.98zm41.49-24.1a24.14 24.14 0 0 0-11.19-9.94c1.65 2.68 2.99 6.07 3.9 9.94zm-18.99 24.1h-.5v11.93c1.41-.07 2.79-.28 4.13-.58.76-.81 1.48-1.79 2.14-2.91-.72-.86-1.5-1.84-2.29-2.91-1.43-1.95-2.59-3.79-3.48-5.53m-13.14-2.5h10.14v-8.3H11.7c.07 2.9.37 5.69.87 8.3m6.01 13.85c1.34.31 2.72.51 4.13.58V36.08h-9.59c1.22 4.86 3.14 8.87 5.46 11.35m5.38.62c.31 0 .62-.01.93-.02h-1.85c.31.01.61.02.93.02Zm24.03-19.56c0 7.82-10.28 18.18-10.71 18.62l-.89.89-.89-.89c-.44-.44-10.71-10.8-10.71-18.62 0-6.39 5.2-11.59 11.6-11.59s11.6 5.2 11.6 11.59m-2.51 0c0-5.01-4.08-9.09-9.09-9.09s-9.09 4.08-9.09 9.09c0 5.57 6.65 13.27 9.09 15.91 2.44-2.64 9.09-10.35 9.09-15.91m-4.61.2c0 2.47-2.01 4.48-4.48 4.48s-4.48-2.01-4.48-4.48 2.01-4.48 4.48-4.48 4.48 2.01 4.48 4.48m-2.51 0c0-1.09-.89-1.98-1.98-1.98s-1.98.89-1.98 1.98.89 1.97 1.98 1.97 1.98-.89 1.98-1.97"/>
</svg>
