<svg viewBox="0 0 64 64" xmlns="http://www.w3.org/2000/svg">
  <path d="M12.5 30.62H.01a31.7 31.7 0 0 1 2.82-11.8h10.81c-.68 3.68-1.07 7.65-1.14 11.8m2.76 0h15.33v-11.8H16.5c-.73 3.69-1.16 7.66-1.24 11.8m1.85-14.55h13.48V.03c-2.22.09-4.39.42-6.47.94-2.98 3.44-5.43 8.74-7.01 15.1M39.81.97a31.4 31.4 0 0 0-6.47-.94v16.04h13.48C45.25 9.71 42.79 4.41 39.81.97M12.5 33.38H.01c.17 4.19 1.16 8.17 2.8 11.8h10.83c-.67-3.68-1.06-7.65-1.13-11.8Zm20.84 11.15v.65h.25c-.09-.22-.17-.43-.25-.65M50.7 21.45c5.67.69 10.46 4.24 12.91 9.17h.31a31.7 31.7 0 0 0-2.82-11.8H50.28c.16.86.29 1.74.42 2.63m-2.82-.09c-.13-.86-.28-1.7-.45-2.53H33.34v11.8h.41c2.61-5.28 7.92-8.97 14.12-9.27ZM-.01 32.41v-.77.78Zm59.69-16.34A32.23 32.23 0 0 0 44.41 2.52c2.26 3.63 4.07 8.25 5.29 13.55zM19.51 2.52A32.23 32.23 0 0 0 4.24 16.07h9.97c1.22-5.3 3.03-9.92 5.29-13.55Zm-3.02 42.66h14.1v-11.8H15.26c.08 4.13.51 8.11 1.24 11.8ZM4.22 47.93c3.47 6.04 8.84 10.86 15.29 13.6-2.26-3.64-4.08-8.28-5.3-13.6zm19.9 15.15c2.08.53 4.25.85 6.47.94V47.93H17.1c1.57 6.38 4.03 11.7 7.02 15.15m9.22-15.15v16.09c2.22-.09 4.39-.41 6.47-.94.96-1.11 1.87-2.41 2.71-3.88-2.48-2.96-5.5-6.99-7.67-11.27h-1.5Zm11.08 13.6s.06-.03.09-.04l-.04-.04c-.02.03-.03.06-.05.08m19.56-23.52c0 10.41-13.74 24.28-14.32 24.87l-.97.97-.97-.97c-.58-.59-14.32-14.46-14.32-24.87 0-8.45 6.86-15.32 15.29-15.32s15.3 6.87 15.3 15.32Zm-2.75 0c0-6.93-5.63-12.56-12.54-12.56s-12.54 5.64-12.54 12.56c0 7.79 9.44 18.57 12.54 21.9 3.1-3.33 12.54-14.11 12.54-21.9m-6.83.28c0 3.16-2.57 5.73-5.72 5.73s-5.72-2.57-5.72-5.73 2.56-5.73 5.72-5.73 5.72 2.57 5.72 5.73m-2.75 0a2.97 2.97 0 1 0-5.94 0 2.97 2.97 0 0 0 5.94 0"/>
</svg>
