<svg viewBox="0 0 48 48" xmlns="http://www.w3.org/2000/svg">
  <path d="M30.36 44.54c.2-.22.39-.46.58-.71a70 70 0 0 1-1.59-2.04c-1.23 1.76-2.63 2.95-4.14 3.38v-9.12h.5c-1.44-2.82-2.18-5.36-2.18-7.59s.61-4.45 1.68-6.32v-7.69h7.55c.12.52.23 1.06.34 1.6.8-.21 1.63-.35 2.49-.4-.08-.4-.15-.81-.23-1.2h7.82c.68 1.35 1.2 2.79 1.58 4.29 1.32 1.14 2.4 2.54 3.17 4.12C47.32 10.16 36.8.02 23.96.02S-.03 10.78-.03 24.02s10.76 24 23.99 24c3.2 0 6.25-.63 9.04-1.77-.51-.56-1.1-1.25-1.74-2.03-.3.11-.59.23-.89.32Zm11.37-32.59H34.7c-1.05-3.49-2.54-6.4-4.34-8.45a21.57 21.57 0 0 1 11.37 8.45M25.21 2.86c2.8.8 5.27 4.24 6.85 9.09h-6.85zm-7.65.63c-1.8 2.05-3.3 4.96-4.34 8.45H6.19c2.7-3.97 6.69-6.99 11.37-8.45M4.75 14.45h7.82c-.57 2.55-.91 5.34-.99 8.3H2.54c.17-2.97.95-5.77 2.21-8.3m-2.21 10.8h9.04c.07 2.95.42 5.74.98 8.3H4.73a21.3 21.3 0 0 1-2.19-8.3m3.63 10.8h7.04c1.05 3.51 2.54 6.43 4.35 8.49-4.69-1.47-8.69-4.5-11.4-8.49Zm16.54 9.12c-2.81-.8-5.29-4.26-6.86-9.12h6.86zm0-11.62h-7.56c-.61-2.54-.98-5.35-1.06-8.3h8.63v8.3Zm0-10.8h-8.63c.08-2.95.46-5.76 1.07-8.3h7.55v8.3Zm0-10.8h-6.85c1.58-4.84 4.05-8.28 6.85-9.09zm13.67 4.91c-6.39 0-11.59 5.2-11.59 11.6 0 7.82 10.27 18.18 10.71 18.62l.88.89.88-.89c.44-.44 10.71-10.8 10.71-18.62 0-6.39-5.2-11.6-11.59-11.6m0 27.51c-2.44-2.64-9.09-10.35-9.09-15.91 0-5.01 4.08-9.09 9.09-9.09s9.09 4.08 9.09 9.09c0 5.57-6.65 13.27-9.09 15.91m0-20.19c-2.47 0-4.48 2.01-4.48 4.48s2.01 4.48 4.48 4.48 4.48-2.01 4.48-4.48-2.01-4.48-4.48-4.48m0 6.46a1.976 1.976 0 0 1 0-3.95c1.08 0 1.97.89 1.97 1.97s-.89 1.98-1.97 1.98"/>
</svg>
