<svg viewBox="0 0 40 40" xmlns="http://www.w3.org/2000/svg">
  <path d="M25.53 36.84c.05-.06.1-.13.15-.2-.46-.56-.93-1.17-1.42-1.82-.95 1.32-2.03 2.23-3.17 2.59v-7.35h.18c-1.08-2.11-1.83-4.32-1.83-6.39s.61-4.06 1.65-5.72v-5.81h6.11c.08.35.15.72.23 1.09.72-.2 1.47-.32 2.24-.36-.05-.24-.09-.49-.14-.73h6.33c.49.98.88 2.01 1.18 3.08 1.19.95 2.16 2.15 2.87 3.51C39.24 8.3 30.57 0 19.97 0S-.02 8.97-.02 20s8.97 20 19.99 20c2.61 0 5.09-.52 7.37-1.43-.46-.5-.99-1.12-1.57-1.82zM34.54 9.9h-5.6c-.83-2.75-2-5.06-3.41-6.74 3.68 1.22 6.83 3.61 9.01 6.74M21.1 2.58c2.23.71 4.2 3.45 5.47 7.32H21.1zm-6.69.58C13 4.84 11.84 7.15 11 9.9H5.4c2.17-3.13 5.32-5.52 9.01-6.74M4.08 12.15h6.33c-.45 2.07-.72 4.33-.78 6.71H2.29c.15-2.4.78-4.66 1.8-6.71Zm-1.79 8.96h7.34c.07 2.38.33 4.64.78 6.71H4.08a17.6 17.6 0 0 1-1.78-6.71Zm3.09 8.96h5.61c.83 2.76 2 5.08 3.41 6.77a17.84 17.84 0 0 1-9.03-6.77Zm13.46 7.35c-2.24-.71-4.21-3.47-5.48-7.35h5.48zm0-9.6h-6.11c-.48-2.06-.79-4.32-.86-6.71h6.97zm0-8.96h-6.97c.07-2.39.38-4.65.86-6.71h6.11zm0-8.96h-5.47c1.28-3.87 3.25-6.61 5.47-7.32zm11.43 4.08c-5.35 0-9.7 4.35-9.7 9.71 0 6.52 8.54 15.14 8.91 15.51l.8.8.8-.8c.36-.36 8.91-8.99 8.91-15.51 0-5.35-4.35-9.71-9.7-9.71Zm0 22.78c-2.07-2.25-7.45-8.54-7.45-13.08 0-4.11 3.34-7.46 7.45-7.46s7.45 3.34 7.45 7.46c0 4.54-5.38 10.83-7.45 13.08m0-16.71c-2.1 0-3.8 1.71-3.8 3.8s1.71 3.8 3.8 3.8 3.8-1.71 3.8-3.8-1.71-3.8-3.8-3.8m0 5.36c-.85 0-1.55-.7-1.55-1.55s.7-1.55 1.55-1.55 1.55.7 1.55 1.55-.7 1.55-1.55 1.55"/>
</svg>
