<svg viewBox="0 0 40 40" xmlns="http://www.w3.org/2000/svg">
  <path d="M8.27 9.9H2.69c1.98-3.36 4.91-6.1 8.42-7.84-1.19 2.2-2.16 4.86-2.84 7.84m21.65 2.98-.12-.72h-8.7v5.83c1.86-2.97 5.1-4.97 8.82-5.1Zm-22.09-.72H1.52C.63 14.24.1 16.51-.03 18.89H7.2c.05-2.35.27-4.61.63-6.73M25.25.7C23.92.34 22.53.11 21.1.03V9.9h8.22c-.93-3.8-2.35-7.01-4.07-9.2m7 12.35c3.37.61 6.19 2.77 7.71 5.72-.15-2.33-.67-4.56-1.55-6.61h-6.3c.05.29.1.59.14.89m5-3.15c-1.98-3.36-4.91-6.1-8.42-7.84 1.19 2.2 2.16 4.86 2.84 7.84h5.59ZM7.2 21.15H-.03c.13 2.37.65 4.64 1.54 6.73h6.31c-.36-2.12-.57-4.38-.62-6.73m2.26-2.26h9.38v-6.73h-8.7c-.38 2.12-.62 4.38-.68 6.73m1.16-8.99h8.22V.03c-1.43.08-2.82.31-4.15.67-1.72 2.19-3.14 5.4-4.07 9.2M2.67 30.13c1.98 3.38 4.92 6.12 8.44 7.87-1.2-2.21-2.17-4.87-2.84-7.87zm18.43 0v9.9c1.43-.08 2.82-.31 4.15-.67.42-.53.81-1.12 1.19-1.76-1.6-1.87-3.68-4.57-5.16-7.47zm-10.97-2.26h8.71v-6.73H9.46c.06 2.34.29 4.61.68 6.73Zm4.56 11.49c1.33.36 2.72.59 4.15.67v-9.9h-8.23c.93 3.82 2.35 7.03 4.08 9.23m25.28-15.65c0 6.52-8.54 15.13-8.9 15.49l-.79.79-.79-.79c-.36-.36-8.9-8.98-8.9-15.49 0-5.35 4.35-9.7 9.7-9.7s9.7 4.35 9.7 9.7Zm-2.25 0c0-4.11-3.34-7.45-7.45-7.45s-7.45 3.34-7.45 7.45c0 4.54 5.38 10.82 7.45 13.06 2.07-2.25 7.45-8.53 7.45-13.06m-3.65.17c0 2.1-1.7 3.8-3.8 3.8s-3.8-1.7-3.8-3.8 1.7-3.8 3.8-3.8 3.8 1.7 3.8 3.8m-2.25 0c0-.85-.7-1.55-1.55-1.55s-1.55.7-1.55 1.55.7 1.55 1.55 1.55 1.55-.7 1.55-1.55"/>
</svg>
