<svg viewBox="0 0 24 24" xmlns="http://www.w3.org/2000/svg">
  <path d="M12.91 21.97V19c-.92-1.55-1.63-3.26-1.63-4.84 0-1.67.61-3.21 1.63-4.39V7.6h3.23s0 .04.01.06c.61-.18 1.26-.28 1.93-.28.59 0 1.15.08 1.7.22h1.52c.12.26.24.52.34.79.99.61 1.81 1.45 2.37 2.46C23.42 4.78 18.28.02 12.04.02 5.4.02 0 5.4 0 12.02s5.4 12 12.03 12c1.44 0 2.82-.27 4.11-.74-.52-.56-1.24-1.4-1.97-2.39-.4.5-.83.87-1.26 1.08m7.31-16.12h-2.74c-.41-1.29-.94-2.41-1.57-3.32 1.72.7 3.2 1.86 4.31 3.32m-7.31-3.78c1.02.5 2.01 1.84 2.72 3.78h-2.72zm-4.75.46c-.63.9-1.16 2.03-1.57 3.32H3.85c1.11-1.46 2.59-2.62 4.31-3.32M2.78 7.6h3.35c-.23 1.1-.37 2.29-.42 3.53h-3.9c.11-1.26.45-2.44.97-3.53m-.01 8.82a10 10 0 0 1-.96-3.53h3.91c.05 1.24.19 2.43.41 3.53zm1.07 1.75h2.74c.41 1.3.94 2.43 1.58 3.34a10.3 10.3 0 0 1-4.32-3.34m7.32 3.8c-1.02-.5-2.02-1.85-2.72-3.8h2.72zm0-5.55H7.93c-.24-1.07-.41-2.25-.46-3.53h3.69zm0-5.29H7.47c.05-1.28.22-2.46.46-3.53h3.23zm0-5.28H8.44c.7-1.94 1.7-3.28 2.72-3.78zm6.92 2.41c-3.26 0-5.92 2.65-5.92 5.9 0 3.91 5.08 9.02 5.3 9.23l.62.62.62-.62c.22-.22 5.3-5.33 5.3-9.23 0-3.25-2.65-5.9-5.92-5.9m0 13.24c-1.56-1.71-4.16-5.05-4.16-7.34a4.161 4.161 0 0 1 8.32 0c0 2.29-2.6 5.64-4.16 7.34m0-9.69c-1.35 0-2.45 1.1-2.45 2.44s1.1 2.44 2.45 2.44 2.45-1.1 2.45-2.44-1.1-2.44-2.45-2.44m0 3.14c-.38 0-.69-.31-.69-.69s.31-.69.69-.69.69.31.69.69-.31.69-.69.69"/>
</svg>
