<svg viewBox="0 0 16 16" xmlns="http://www.w3.org/2000/svg">
  <path d="M11.18 3.81H8.75V.19c.94.46 1.86 1.76 2.43 3.63Zm-2.42 12c.38-.19.75-.51 1.1-.94-.35-.41-.73-.9-1.1-1.44zM8 .02c-.09 0-.17.01-.25.01h.5C8.17.03 8.08.02 8 .02m7.93 6.71a7.6 7.6 0 0 0-.37-1.42h-1.19c.62.36 1.16.83 1.56 1.42M4.82 3.81h2.43V.19c-.94.46-1.86 1.76-2.43 3.63ZM8 15.98c.09 0 .18-.01.27-.01h-.54c.09 0 .18.01.27.01m.76-10.67v.6c.25-.23.53-.42.82-.6zM2.74 8.74H0c.06.67.22 1.32.44 1.94h2.49c-.1-.62-.16-1.27-.19-1.94m1.51-1.49h3V5.31H4.46c-.11.61-.18 1.25-.21 1.94M4.51.82c-1.38.66-2.54 1.7-3.34 2.99h2.08c.31-1.15.74-2.17 1.26-2.99M1.16 12.18c.8 1.29 1.97 2.34 3.35 3-.53-.83-.96-1.85-1.27-3zm13.67-8.37A8 8 0 0 0 11.49.82c.53.83.96 1.84 1.26 2.99zM7.25 15.82v-3.64H4.82c.57 1.87 1.49 3.17 2.43 3.64M2.93 5.31H.44C.22 5.93.07 6.57 0 7.25h2.74c.03-.67.09-1.32.19-1.94m1.53 5.37h2.79v-.66c-.03-.21-.05-.42-.05-.63 0-.18.03-.36.05-.53v-.11h-3c.03.68.1 1.33.21 1.94ZM16 9.39c0 2.56-3.14 5.75-3.49 6.1l-.53.53-.53-.53c-.36-.35-3.49-3.54-3.49-6.1 0-2.2 1.81-4 4.03-4s4.03 1.79 4.03 4Zm-1.51 0c0-1.38-1.13-2.5-2.52-2.5s-2.52 1.12-2.52 2.5 1.52 3.36 2.52 4.48c1-1.12 2.52-3.11 2.52-4.48M11.97 8.1c-.73 0-1.32.59-1.32 1.31s.59 1.31 1.32 1.31 1.32-.59 1.32-1.31-.59-1.31-1.32-1.31"/>
</svg>
