<svg viewBox="0 0 16 16" xmlns="http://www.w3.org/2000/svg">
  <path d="M16 14.17v1.84h-1.5v-1.84c0-1.52-1.23-2.75-2.75-2.75h-7.5c-1.52 0-2.75 1.23-2.75 2.75v1.84H0v-1.84c0-2.35 1.91-4.26 4.26-4.26h7.5a4.26 4.26 0 0 1 4.25 4.25ZM4.22 16.01h1.5v-2.59h-1.5zm6.01 0h1.5v-2.59h-1.5zM4.59 4.62l.09-.1v-.05l-.08-.09-.76-.81.56-.97.42-.72.56-.97 1.09.26.14.03s.02-.01.03-.02l.04-.12.3-1.06h3.06l.32 1.07.04.12s.03.02.05.03l.11-.03 1.09-.26.56.97.42.72.56.97-.76.81-.07.08v.08l.07.07.76.81-.56.97-.42.72-.56.97-1.09-.26-.12-.03s-.03.02-.05.03l-.03.11-.32 1.07H6.98l-.32-1.07-.04-.13-.04-.02-.12.03-1.09.26-.56-.97-.42-.72-.56-.97zm1.66.43-.57.6.42.72.79-.19c.26.25.59.44.95.55l.24.79h.83l.23-.78c.37-.1.69-.29.96-.54l.79.19.42-.72-.55-.59c.05-.18.08-.37.08-.56s-.03-.37-.07-.55l.55-.59-.42-.72-.78.18c-.27-.26-.59-.44-.96-.55l-.24-.79h-.83l-.24.79c-.36.11-.68.29-.95.54l-.8-.19-.42.72.56.6c-.04.18-.07.36-.07.55s.03.36.07.54Zm2.26.67c.66 0 1.2-.54 1.2-1.2s-.54-1.2-1.2-1.2-1.2.54-1.2 1.2.54 1.2 1.2 1.2"/>
</svg>
