<svg viewBox="0 0 64 64" xmlns="http://www.w3.org/2000/svg">
  <path d="M13.9 10.76C13.9 4.83 18.73 0 24.66 0s10.75 4.82 10.75 10.75S30.59 21.5 24.66 21.5s-10.75-4.82-10.75-10.75ZM28.71 46.9c-.13-.82-.19-1.61-.19-2.39s.07-1.64.21-2.51l-3.84-4.08L29.46 30l5.5 1.29c1.27-.99 2.71-1.81 4.24-2.41l1.05-3.49c-1.13-.32-2.31-.5-3.54-.5H12.62C5.65 24.89 0 30.41 0 37.2v15.3h10.98V37.2h2.75v15.3h11.98l-.86-1.49 3.87-4.11Zm31.71.66 3.52 3.75-3.46 5.99-5.04-1.19a15.4 15.4 0 0 1-5.19 2.93l-1.5 4.98h-6.91l-1.52-5.05c-1.9-.66-3.64-1.67-5.1-2.94l-5.07 1.19-3.46-5.99 3.62-3.84c-.2-1.01-.3-1.96-.3-2.87s.11-1.92.33-2.98l-3.6-3.83 3.46-5.99 5.13 1.21c1.46-1.26 3.2-2.25 5.09-2.89L41.93 25h6.91l1.51 5.04c1.92.65 3.68 1.66 5.16 2.95l5.02-1.18 3.45 5.99-3.55 3.77c.22 1.05.32 2.02.32 2.96s-.11 1.95-.34 3.05Zm-8.13-3.05c0-3.8-3.09-6.9-6.9-6.9a6.901 6.901 0 0 0 0 13.8c3.81 0 6.9-3.09 6.9-6.9"/>
</svg>
