<svg viewBox="0 0 24 24" xmlns="http://www.w3.org/2000/svg">
  <path d="M24.01 21.17v2.81h-5.55v-3.96h-1.75v3.96H7.23v-3.96H5.48v3.96H.01v-2.81c-.01-3.44 2.8-6.24 6.25-6.24h11.5c3.45 0 6.25 2.8 6.25 6.24m-12-12.99c.67 0 1.21-.54 1.21-1.21s-.54-1.21-1.21-1.21-1.21.54-1.21 1.21.54 1.21 1.21 1.21M5.47 9.6l1.31-1.39c-.09-.4-.16-.81-.16-1.24s.07-.87.17-1.28L5.48 4.3l.97-1.67 1.86.44c.61-.58 1.37-1.01 2.2-1.25l.55-1.84h1.93l.55 1.82c.84.25 1.61.68 2.22 1.27l1.82-.43.97 1.67-1.29 1.37c.1.41.17.83.17 1.27s-.07.89-.18 1.31l1.28 1.36-.97 1.67-1.83-.43c-.62.59-1.39 1.02-2.24 1.26l-.54 1.81h-1.93l-.55-1.83c-.83-.25-1.59-.68-2.2-1.27l-1.84.43-.97-1.67Zm3.58-2.63c0 1.63 1.33 2.96 2.97 2.96s2.97-1.33 2.97-2.96-1.33-2.96-2.97-2.96-2.97 1.33-2.97 2.96"/>
</svg>
