<svg viewBox="0 0 16 16" xmlns="http://www.w3.org/2000/svg">
  <path d="M2.97 2.86C2.97 1.28 4.26 0 5.84 0s2.87 1.29 2.87 2.87-1.29 2.87-2.87 2.87-2.87-1.29-2.87-2.87Zm.25 3.72C1.44 6.58 0 8.03 0 9.81v3.96h2.47V9.81h1.5v3.96h1.89l-.76-1.31.92-.98-.91-.97.93-1.61.48-.84.85-1.47H3.22Zm12.26 5.56.51.54-.37.64-.48.84-.37.64-.72-.17-.44-.1c-.17.12-.36.22-.55.31l-.13.43-.21.71h-2.46l-.21-.71-.14-.45c-.19-.09-.36-.19-.53-.31l-.45.11-.72.17-.37-.64-.48-.84-.37-.64.51-.54.32-.34c0-.1-.01-.2-.01-.3 0-.11 0-.21.02-.32l-.31-.33-.51-.54.37-.64.48-.84.37-.64.72.17.46.11c.17-.11.34-.21.53-.3l.13-.45.21-.71h2.46l.21.71.13.45c.19.09.37.19.54.31l.44-.1.72-.17.37.64.48.84.37.64-.51.54-.31.32c.01.11.02.21.02.32s0 .22-.02.33l.3.32Zm-2.5-.65c0-.83-.67-1.5-1.5-1.5s-1.5.67-1.5 1.5.67 1.5 1.5 1.5 1.5-.67 1.5-1.5"/>
</svg>
