<svg viewBox="0 0 24 24" xmlns="http://www.w3.org/2000/svg">
  <path d="M9.2 8.56c2.36 0 4.28-1.92 4.28-4.28S11.56 0 9.2 0 4.92 1.92 4.92 4.28 6.84 8.56 9.2 8.56m0-6.81c1.4 0 2.53 1.13 2.53 2.53S10.59 6.81 9.2 6.81 6.67 5.68 6.67 4.28 7.81 1.75 9.2 1.75M4.13 14.63h1.75v5.04H4.13zm.76-3.1c-1.73 0-3.14 1.39-3.14 3.1v5.04H0v-5.04c0-2.67 2.2-4.85 4.89-4.85h8.61c.29 0 .57.04.85.09l-.24.79c-.36.16-.7.36-1.02.58l-2.15-.5-.46.8h-5.6Zm17.88 5.19c0-.29-.03-.59-.08-.9l1.32-1.4-1.54-2.66-1.86.44c-.46-.37-1-.68-1.57-.9l-.56-1.87h-3.07l-.56 1.87c-.56.22-1.08.51-1.54.88l-1.91-.45-1.54 2.66 1.33 1.42c-.05.32-.08.62-.08.91s.02.57.07.87l-1.34 1.42 1.54 2.66 1.88-.44c.46.37.98.67 1.55.89l.56 1.87h3.07l.56-1.85c.57-.22 1.11-.52 1.58-.89l1.88.44L24 19.03l-1.31-1.39c.06-.33.09-.63.09-.93Zm-1.88-.96c.09.36.13.67.13.96s-.04.61-.14.99l-.12.46 1.06 1.12-.24.41-1.5-.35-.34.33c-.46.44-1.05.77-1.69.95l-.46.13-.45 1.49h-.47l-.45-1.51-.45-.14a3.9 3.9 0 0 1-1.66-.96l-.34-.33-1.52.36-.24-.41 1.08-1.15-.11-.46c-.08-.34-.12-.65-.12-.94s.04-.6.13-.97l.11-.46-1.08-1.15.24-.41 1.54.36.34-.33c.45-.43 1.03-.76 1.66-.94l.45-.13.45-1.51h.47l.45 1.51.45.13c.64.19 1.22.52 1.68.96l.34.33 1.5-.35.24.41-1.06 1.13.11.46Zm-3.96-1.89a2.86 2.86 0 1 0-.001 5.719 2.86 2.86 0 0 0 .001-5.719m0 3.96c-.61 0-1.11-.5-1.11-1.11s.5-1.11 1.11-1.11 1.11.5 1.11 1.11-.5 1.11-1.11 1.11"/>
</svg>
