<svg viewBox="0 0 48 48" xmlns="http://www.w3.org/2000/svg">
  <path d="M18.23 16.32c4.5 0 8.15-3.66 8.15-8.15S22.73.02 18.23.02s-8.15 3.65-8.15 8.15 3.66 8.15 8.15 8.15m0-13.8c3.12 0 5.65 2.53 5.65 5.65s-2.54 5.65-5.65 5.65-5.65-2.53-5.65-5.65 2.54-5.65 5.65-5.65m-9.75 25.1h2.5v11.52h-2.5zm.97-6.8c-3.83 0-6.95 3.05-6.95 6.8v11.52H0V27.62c0-5.13 4.24-9.3 9.45-9.3h17.56c.93 0 1.83.14 2.68.39l-.72 2.39c-.62-.18-1.28-.28-1.96-.28zm36.09 12.46c0-.66-.07-1.35-.21-2.09l2.68-2.84-2.8-4.84-3.78.89c-1.05-.89-2.29-1.6-3.64-2.08l-1.14-3.79h-5.6l-1.14 3.79c-1.32.47-2.54 1.16-3.58 2.04l-3.87-.91-2.8 4.84 2.71 2.88c-.14.74-.22 1.43-.22 2.1s.06 1.31.2 2.02l-2.73 2.9 2.8 4.84 3.82-.9c1.04.88 2.26 1.59 3.59 2.07l1.15 3.81h5.6l1.13-3.75c1.35-.47 2.59-1.17 3.66-2.07l3.81.9 2.8-4.84-2.66-2.82c.15-.76.23-1.47.23-2.15Zm-2.79-2.17c.2.81.29 1.5.29 2.17s-.1 1.39-.31 2.22l-.17.66 2.31 2.45-.94 1.63-3.29-.77-.49.46a9.2 9.2 0 0 1-3.8 2.14l-.66.19-.98 3.26h-1.88l-.99-3.29-.64-.19c-1.44-.43-2.73-1.18-3.74-2.16l-.49-.48-3.32.78-.94-1.63 2.36-2.51-.15-.65c-.18-.77-.27-1.46-.27-2.11s.1-1.38.29-2.18l.16-.66-2.36-2.5.94-1.63 3.35.79.49-.47c1.02-.97 2.32-1.71 3.74-2.13l.65-.19.99-3.29h1.88l.99 3.29.65.19c1.45.42 2.75 1.17 3.78 2.16l.49.47 3.27-.77.94 1.63-2.32 2.46.16.66Zm-8.9-3.25c-2.99 0-5.43 2.43-5.43 5.43s2.43 5.42 5.43 5.42 5.43-2.43 5.43-5.42-2.43-5.43-5.43-5.43m0 8.35c-1.61 0-2.93-1.31-2.93-2.93s1.31-2.93 2.93-2.93 2.93 1.31 2.93 2.93-1.31 2.93-2.93 2.93"/>
</svg>
