<svg viewBox="0 0 64 64" xmlns="http://www.w3.org/2000/svg">
  <path d="M64 56.03V64H49.11V52.88h-2.76V64H17.39V52.88h-2.76V64H0v-7.97c0-8.87 7.25-16.08 16.17-16.08h31.67c8.91 0 16.17 7.21 16.17 16.07ZM32.01 21.42c2.45 0 4.45-1.98 4.45-4.42s-2-4.42-4.45-4.42-4.45 1.98-4.45 4.42 2 4.42 4.45 4.42m-16.01 2 3.21-3.39c-.23-.97-.38-1.98-.38-3.02s.17-2.12.42-3.12l-3.2-3.38 2.37-4.07 4.56 1.07c1.5-1.42 3.34-2.45 5.38-3.05L29.69 0h4.73l1.35 4.45c2.06.6 3.93 1.65 5.44 3.09l4.45-1.04 2.37 4.07-3.15 3.33c.24 1 .41 2.03.41 3.1s-.18 2.16-.43 3.18l3.13 3.31-2.37 4.07-4.47-1.05c-1.52 1.44-3.4 2.48-5.47 3.07l-1.33 4.4h-4.73l-1.35-4.46c-2.04-.61-3.89-1.66-5.38-3.09l-4.5 1.05-2.37-4.07Zm8.81-6.41c0 3.95 3.23 7.17 7.21 7.17s7.2-3.22 7.2-7.17-3.23-7.17-7.2-7.17-7.21 3.22-7.21 7.17"/>
</svg>
