<svg viewBox="0 0 32 32" xmlns="http://www.w3.org/2000/svg">
  <path d="M6.85 5.74C6.85 2.58 9.43 0 12.6 0s5.74 2.58 5.74 5.74-2.58 5.74-5.74 5.74S6.86 8.9 6.86 5.74Zm7.19 17.56a8.3 8.3 0 0 1 .01-1.9l-1.96-2.09 2.7-4.67 2.82.66c.5-.36 1.05-.67 1.63-.93l.15-.5c-.26-.03-.52-.05-.79-.05H6.61C2.97 13.83 0 16.76 0 20.36v7.35h5.75v-7.35h2v7.35h5.64l-1.34-2.32 1.98-2.1Zm16.22.46 1.73 1.84-1.86 3.22-2.48-.58c-.68.57-1.48 1.02-2.34 1.32l-.74 2.45h-3.72l-.75-2.49c-.85-.31-1.63-.76-2.29-1.32l-2.49.59-1.86-3.22 1.78-1.89c-.08-.45-.12-.87-.12-1.29s.04-.87.13-1.34l-1.77-1.88 1.86-3.22 2.52.59c.67-.55 1.45-1 2.29-1.3l.74-2.48h3.72l.74 2.47c.86.31 1.64.76 2.32 1.33l2.47-.58L32 19.2l-1.74 1.85c.09.47.13.91.13 1.33s-.05.89-.14 1.37Zm-4.05-1.38a3.461 3.461 0 0 0-6.92 0 3.461 3.461 0 0 0 6.92 0"/>
</svg>
