<svg viewBox="0 0 32 32" xmlns="http://www.w3.org/2000/svg">
  <path d="M12.6 11.49c3.17 0 5.74-2.58 5.74-5.74S15.76 0 12.6 0 6.86 2.58 6.86 5.74s2.58 5.74 5.74 5.74Zm0-9.49c2.06 0 3.74 1.68 3.74 3.74s-1.68 3.74-3.74 3.74S8.86 7.8 8.86 5.74 10.54 2 12.6 2M5.76 19.61h2v7.35h-2zm.85-4.53c-2.53 0-4.59 2.03-4.59 4.53v7.35h-2v-7.35c0-3.6 2.96-6.53 6.59-6.53h11.98c.28 0 .56.02.83.06l-.34 1.12c-.52.23-1 .51-1.46.82H17l-2.36-.56-.32.56zm23.77 7.18c0-.42-.04-.84-.12-1.29l1.76-1.87-1.95-3.38-2.5.59c-.66-.54-1.42-.98-2.25-1.29l-.75-2.5h-3.91l-.75 2.5c-.81.3-1.56.73-2.22 1.26l-2.55-.6-1.95 3.38 1.79 1.9c-.08.46-.12.89-.12 1.3s.04.82.11 1.25l-1.8 1.91 1.95 3.38 2.52-.59c.65.54 1.41.97 2.22 1.28l.76 2.51h3.91l.74-2.48c.83-.3 1.6-.73 2.27-1.28l2.51.59L32 25.45l-1.75-1.86c.09-.47.13-.91.13-1.34Zm-2.19-1.36c.12.5.18.94.18 1.36s-.06.87-.19 1.4l-.13.53 1.47 1.56-.47.81-2.09-.49-.39.37c-.66.62-1.48 1.09-2.39 1.34l-.53.15-.62 2.08h-.93l-.63-2.1-.51-.16c-.9-.27-1.71-.74-2.35-1.35l-.39-.38-2.11.5-.47-.81 1.5-1.6-.12-.52c-.11-.48-.17-.91-.17-1.32s.06-.86.18-1.37l.13-.53-1.5-1.59.47-.81 2.13.5.39-.37c.65-.62 1.44-1.07 2.35-1.33l.52-.15.63-2.1h.94l.63 2.1.52.15c.91.27 1.73.74 2.37 1.35l.39.38 2.09-.49.47.81-1.48 1.57.13.53Zm-5.58-2.35c-2.04 0-3.71 1.66-3.71 3.71s1.66 3.71 3.71 3.71 3.71-1.66 3.71-3.71-1.66-3.71-3.71-3.71m0 5.41c-.94 0-1.71-.77-1.71-1.71s.77-1.71 1.71-1.71 1.71.77 1.71 1.71-.77 1.71-1.71 1.71"/>
</svg>
