<svg viewBox="0 0 40 40" xmlns="http://www.w3.org/2000/svg">
  <path d="M15.51 14.02c3.87 0 7.02-3.14 7.02-6.99S19.39.04 15.51.04 8.49 3.17 8.49 7.03s3.15 6.99 7.02 6.99m0-11.73c2.63 0 4.77 2.13 4.77 4.74s-2.14 4.74-4.77 4.74-4.77-2.13-4.77-4.74 2.14-4.74 4.77-4.74M7.13 24.32h2.26v9.18H7.13zm.92-5.72c-3.22 0-5.85 2.57-5.85 5.72v9.18H-.05v-9.18c0-4.39 3.63-7.97 8.1-7.97h14.93c.4 0 .8.04 1.18.1l-.39 1.29c-.57.24-1.1.53-1.61.86h-2.53l-1.67-.39-.23.39zm29.83 9.14c0-.54-.06-1.1-.17-1.7l2.24-2.37-2.4-4.13-3.17.74c-.87-.72-1.88-1.3-2.98-1.69l-.96-3.16h-4.79l-.96 3.16c-1.08.39-2.08.95-2.94 1.66l-3.24-.76-2.39 4.13 2.27 2.4a8.7 8.7 0 0 0-.01 3.37l-2.28 2.42 2.4 4.13 3.2-.75a9.9 9.9 0 0 0 2.94 1.69l.96 3.18h4.79l.95-3.13c1.1-.39 2.12-.96 3-1.68l3.19.75 2.39-4.13-2.23-2.35c.12-.62.18-1.2.18-1.76Zm-2.5-1.78c.16.66.24 1.23.24 1.78s-.08 1.14-.25 1.82l-.15.6 1.91 2.02-.72 1.24-2.72-.64-.44.42c-.86.81-1.94 1.42-3.13 1.76l-.59.17-.81 2.69h-1.43l-.82-2.71-.58-.17a7.56 7.56 0 0 1-3.08-1.77l-.44-.43-2.75.64-.72-1.24 1.95-2.07-.14-.59c-.15-.63-.22-1.2-.22-1.73s.08-1.12.24-1.79l.15-.59-1.95-2.06.72-1.24 2.77.65.44-.42c.84-.8 1.91-1.4 3.08-1.74l.59-.17.82-2.71h1.43l.82 2.71.59.17c1.19.35 2.27.96 3.11 1.77l.44.42 2.71-.64.72 1.24-1.92 2.03.14.59Zm-7.33-2.81c-2.54 0-4.61 2.06-4.61 4.58s2.07 4.58 4.61 4.58 4.61-2.06 4.61-4.58-2.07-4.58-4.61-4.58m0 6.93c-1.3 0-2.35-1.05-2.35-2.34s1.05-2.34 2.35-2.34 2.35 1.05 2.35 2.34-1.05 2.34-2.35 2.34"/>
</svg>
