<svg viewBox="0 0 40 40" xmlns="http://www.w3.org/2000/svg">
  <path d="M40 34.91v5.17h-2.26v-5.17c0-4.39-3.58-7.96-7.99-7.96H10.24c-4.4 0-7.99 3.57-7.99 7.96v5.17H0v-5.17C0 29.28 4.59 24.7 10.24 24.7h19.52C35.41 24.7 40 29.28 40 34.91m-29.67 5.17h2.26v-7.12h-2.26zm16.94 0h2.26v-7.12h-2.26zm-17.08-27.3.87-.93c-.03-.28-.04-.55-.04-.82 0-.29.02-.58.05-.88l-.86-.91-1.15-1.22.84-1.45 1.21-2.09.84-1.45 1.63.38 1.25.29c.46-.32.95-.6 1.47-.83l.37-1.21.48-1.6h5.77l.48 1.6.37 1.21c.53.24 1.03.53 1.5.86l1.19-.28 1.63-.38.84 1.45 1.21 2.09.84 1.45-1.15 1.22-.84.89c.03.29.05.58.05.87 0 .3-.02.6-.05.91l.82.87 1.15 1.22-.84 1.45-1.21 2.09-.84 1.45-1.63-.38-1.21-.28c-.47.33-.98.62-1.52.85l-.36 1.18-.48 1.6H17.1l-.48-1.6-.37-1.23c-.52-.24-1.02-.52-1.48-.85l-1.22.29-1.63.38-.84-1.45-1.21-2.09L9.03 14l1.15-1.22Zm3.28-.2-1.64 1.74 1.21 2.09 2.3-.54c.76.74 1.71 1.27 2.75 1.59l.69 2.28h2.42l.68-2.25c1.06-.3 2.02-.84 2.8-1.57l2.29.54 1.21-2.09-1.6-1.7c.13-.52.22-1.06.22-1.63s-.08-1.08-.21-1.59l1.61-1.71-1.21-2.09-2.27.53a6.7 6.7 0 0 0-2.78-1.59l-.69-2.28h-2.42l-.69 2.28c-1.04.31-1.98.83-2.75 1.56l-2.33-.55-1.21 2.09 1.64 1.73c-.13.52-.21 1.05-.21 1.6s.08 1.05.2 1.55Zm2.39-1.54c0-2.28 1.86-4.13 4.15-4.13s4.15 1.85 4.15 4.13-1.86 4.13-4.15 4.13-4.15-1.85-4.15-4.13m2.26 0c0 1.04.85 1.88 1.89 1.88s1.89-.85 1.89-1.88-.85-1.88-1.89-1.88-1.89.85-1.89 1.88"/>
</svg>
