<svg viewBox="0 0 16 16" xmlns="http://www.w3.org/2000/svg">
  <path d="M5.85 5.73c1.57 0 2.85-1.29 2.85-2.88S7.42-.03 5.85-.03 3 1.26 3 2.85s1.28 2.88 2.85 2.88m0-4.25a1.37 1.37 0 0 1 0 2.74 1.37 1.37 0 0 1 0-2.74M3.01 9.31H4.5v2.96H3.01zm.24-1.73c-.94 0-1.71.77-1.71 1.73v2.96H.05V9.31c0-1.78 1.44-3.23 3.2-3.23h3.6l-.82 1.43-.04.08H3.26Zm11.89 3.52v-.28l.16-.17.76-.82-.55-.97-.48-.84-.55-.97-1.08.26-.23.05c-.07-.04-.14-.09-.22-.13l-.07-.24-.32-1.07H9.38l-.32 1.07-.07.24c-.07.04-.14.08-.2.12l-.25-.06-1.08-.26-.55.97-.48.84-.55.97.76.82.16.18v.25l-.17.18-.76.82.55.97.48.84.55.97 1.08-.26.24-.06.21.12.07.25.32 1.07h3.18l.32-1.07.07-.23c.08-.04.15-.08.22-.13l.24.06 1.08.26.55-.97.48-.84.55-.97-.76-.82-.15-.16Zm-1.49-.15c0 .23-.04.45-.09.66l.64.68-.48.84-.91-.22c-.31.3-.69.51-1.11.64l-.27.91h-.96l-.27-.92c-.42-.13-.79-.34-1.1-.64l-.92.22-.48-.84.65-.7c-.05-.2-.08-.41-.08-.62s.03-.44.08-.65l-.65-.7.48-.84.93.22c.31-.29.68-.51 1.09-.63l.27-.92h.96l.27.92c.42.12.8.34 1.11.64l.91-.22.48.84-.64.69c.05.21.08.42.08.64Zm-2.7-2.01c-1.1 0-1.99.9-1.99 2.01s.89 2.01 1.99 2.01 1.99-.9 1.99-2.01-.89-2.01-1.99-2.01m0 2.51c-.27 0-.5-.23-.5-.5s.22-.5.5-.5.5.23.5.5-.22.5-.5.5"/>
</svg>
