<svg viewBox="0 0 16 16" xmlns="http://www.w3.org/2000/svg">
  <path d="M16 2.96c0-.97-.79-1.75-1.75-1.75h-.7V0H4.57C3.33 0 2.32 1.02 2.32 2.26v5.41l.09-.31h2.52c.16-.86.91-1.51 1.82-1.51h2.36c1.02 0 1.85.83 1.85 1.85v1.73H7.87l.94 1.63-.87.93v.16l.33.35h5.28V11h.7c.97 0 1.75-.79 1.75-1.75V7.11c0-.37-.12-.72-.32-1 .2-.28.32-.63.32-1V2.97ZM7.92 5.05c-.8 0-1.46-.65-1.46-1.46s.65-1.46 1.46-1.46 1.46.65 1.46 1.46-.65 1.46-1.46 1.46m6.33-2.34c.14 0 .25.11.25.25V5.1c0 .14-.11.25-.25.25h-.7V2.71zm.25 6.53c0 .14-.11.25-.25.25h-.7V6.85h.7c.14 0 .25.11.25.25zm-7.65-.02-1.01.24c-.18-.13-.39-.25-.6-.34l-.3-1.01h-2l-.3 1.01c-.21.09-.4.2-.58.33l-1.03-.24-1.02 1.73.72.77c-.01.12-.02.24-.02.35s0 .22.02.33l-.73.77 1 1.73 1.02-.24c.18.13.38.25.59.34l.31 1.02h2l.3-1c.21-.09.42-.21.6-.34l1.02.24 1-1.73-.71-.75c.02-.12.02-.24.02-.36s0-.23-.02-.35l.71-.76-1-1.73Zm-2.91 4.22c-.76 0-1.38-.62-1.38-1.38s.62-1.38 1.38-1.38 1.38.62 1.38 1.38-.62 1.38-1.38 1.38"/>
</svg>
