<svg viewBox="0 0 48 48" xmlns="http://www.w3.org/2000/svg">
  <path d="M5.63 22.25h3.18v25.76h-2.5V24.75H0L22.3.02l15.72 15.72h-3.54L22.39 3.65zm7.68 3.1h9.26v-2.5h-9.26zm0 6.16h9.26v-2.5h-9.26zm0 6.2h9.26v-2.5h-9.26zm34.7-8.35c0 7.46-9.78 17.32-10.2 17.74l-.88.88-.88-.88c-.42-.42-10.2-10.28-10.2-17.74 0-6.11 4.97-11.08 11.08-11.08s11.08 4.97 11.08 11.08m-2.5 0c0-4.73-3.85-8.58-8.58-8.58s-8.58 3.85-8.58 8.58c0 5.24 6.23 12.49 8.58 15.04 2.35-2.55 8.58-9.8 8.58-15.04m-4.12.05c0 2.47-2 4.47-4.47 4.47s-4.47-2-4.47-4.47 2-4.47 4.47-4.47 4.47 2 4.47 4.47m-2.5 0c0-1.08-.88-1.96-1.96-1.96s-1.96.88-1.96 1.96.88 1.96 1.96 1.96 1.96-.88 1.96-1.96"/>
</svg>
