<svg viewBox="0 0 48 48" xmlns="http://www.w3.org/2000/svg">
  <path d="m35.16 47.95.09.09H6.31V24.75H0L22.3.04 39.08 16.8v.43c-.7-.12-1.41-.2-2.15-.2-6.8 0-12.33 5.53-12.33 12.32 0 7.82 9.48 17.52 10.56 18.6M21.33 35.19h-9.26v2.5h9.26zm0-6.2h-9.26v2.5h9.26zm0-6.14h-9.26v2.5h9.26zm15.6 4.59c-1.08 0-1.96.88-1.96 1.96s.88 1.96 1.96 1.96 1.96-.88 1.96-1.96-.88-1.96-1.96-1.96m11.08 1.91c0 7.45-9.78 17.3-10.2 17.72l-.88.88-.88-.88c-.42-.42-10.2-10.27-10.2-17.72 0-6.1 4.97-11.07 11.08-11.07s11.08 4.96 11.08 11.07m-6.62.05c0-2.46-2-4.46-4.47-4.46s-4.47 2-4.47 4.46 2 4.46 4.47 4.46 4.47-2 4.47-4.46"/>
</svg>
