<svg viewBox="0 0 40 40" xmlns="http://www.w3.org/2000/svg">
  <path d="M39.96 7.16 34.19 0H14.9v9.59c-1.22.05-2.42.44-3.37 1.21L.06 20.01H.04v.02l-.07.06.07.09V40h30.29v-7.71h9.64V7.16Zm-2.24.8v.06l-5.77-.04V2.25h1.17zm-24.78 4.59c1.21-.97 3.25-.97 4.46 0l9.92 7.96H3.02zM2.28 37.75V22.77h25.79v14.98zm28.05-7.71v-9.89l.05-.06-.05-.04v-.04h-.05L18.81 10.8c-.49-.4-1.06-.69-1.66-.9V2.25h12.56v5.72a2.3 2.3 0 0 0 2.3 2.3h5.71v19.76h-7.39Zm-16.31 3.32h11.1v-7.83h-11.1zm2.25-5.59h6.6v3.33h-6.6z"/>
</svg>
