<svg viewBox="0 0 64 64" xmlns="http://www.w3.org/2000/svg">
  <path d="M63.98 8.49c0-1.87-1.52-3.39-3.39-3.39h-5.04V0H22.26c-2.27 0-4.13 1.85-4.13 4.13v21.54h5.34l1.55 5.16q.855.405 1.65.9v-3.07c0-3.21 2.61-5.81 5.82-5.81h10.04c3.21 0 5.81 2.61 5.81 5.81v5.31H34.3l3.76 6.52-3.63 3.86c.04.47.07.92.07 1.38 0 .48-.03.97-.08 1.46l2.16 2.3h18.96v-6.38h5.04c1.87 0 3.39-1.52 3.39-3.39V26.13c0-.76-.26-1.45-.68-2.02.42-.56.68-1.26.68-2.01V8.51ZM37.47 19.74c-2.59 0-4.7-2.11-4.7-4.71s2.11-4.71 4.7-4.71 4.71 2.11 4.71 4.71-2.11 4.71-4.71 4.71M60.6 7.85c.35 0 .64.29.64.64v13.59c0 .35-.29.64-.64.64h-5.04V7.85zm.63 31.84c0 .35-.29.64-.64.64h-5.04V25.47h5.04c.35 0 .64.29.64.64V39.7Zm-28.64 8.08c.11-.71.17-1.39.17-2.06s-.05-1.3-.15-1.98l1.9-2.02 1.4-1.49-1.02-1.77-2.15-3.72-1.02-1.77-1.99.47-2.69.63c-1.04-.8-2.2-1.46-3.44-1.96l-.82-2.73-.59-1.96H13.8l-.59 1.96-.82 2.73c-1.21.49-2.35 1.14-3.37 1.92l-2.79-.66-1.99-.47-1.02 1.77-2.15 3.72-1.05 1.77 1.4 1.49 1.94 2.06c-.1.69-.16 1.35-.16 2s.05 1.25.14 1.9l-1.96 2.08-1.4 1.5L1 52.95l2.15 3.72 1.02 1.77 1.99-.47 2.73-.64c1.02.79 2.17 1.45 3.39 1.95l.83 2.75.59 1.96h8.39l.59-1.96.8-2.67c1.25-.5 2.41-1.16 3.46-1.96l2.72.64 1.99.47 1.02-1.77 2.15-3.72 1.02-1.77-1.4-1.49-1.87-1.99Zm-14.57 4.48c-1.27 0-2.45-.37-3.45-.99-.14-.09-.28-.18-.42-.28-.27-.2-.52-.41-.75-.64s-.44-.49-.64-.75c-.1-.14-.2-.28-.28-.42-.63-1-.99-2.18-.99-3.45 0-3.61 2.93-6.54 6.54-6.54 1.27 0 2.45.37 3.45.99.14.09.28.18.42.28.27.2.52.41.75.64s.44.49.64.75c.1.14.2.28.28.42.63 1 .99 2.18.99 3.45 0 3.61-2.93 6.54-6.54 6.54"/>
</svg>
