<svg viewBox="0 0 16 16" xmlns="http://www.w3.org/2000/svg">
  <path d="M6.46 3.57c0-.8.65-1.46 1.46-1.46s1.46.65 1.46 1.46-.65 1.46-1.46 1.46-1.46-.65-1.46-1.46m9.55 1.5c0 .37-.12.72-.32 1 .2.28.32.63.32 1v2.14c0 .96-.79 1.75-1.75 1.75h-.7v1.5h-3.52l.02-.03-.63-.66.63-.67-.08-.14h2.06V1.48H4.56c-.41 0-.75.34-.75.75v4.32h-1.5V2.23C2.31.99 3.32-.02 4.57-.02h8.98v1.2h.7c.97 0 1.75.78 1.75 1.75v2.14Zm-2.46-2.39v2.64h.7c.14 0 .25-.11.25-.25V2.93c0-.14-.11-.25-.25-.25zm.96 4.39c0-.14-.11-.25-.25-.25h-.7v2.64h.7c.14 0 .25-.11.25-.25zm-3.54.59c0-1.02-.83-1.85-1.85-1.85H6.76c-.6 0-1.13.29-1.47.74h1.39l.27.88.89-.21L9.1 9.39h1.89V7.66Zm-2.95 4.13.76.81-.56.97-.37.65-.56.97-1.09-.26-.32 1.06H2.9l-.32-1.07-1.08.25-.56-.97-.37-.65-.57-.96.76-.81-.75-.81.56-.97.37-.65.56-.97 1.09.26.32-1.06h2.98l.32 1.07 1.08-.25.56.97.37.65.56.97-.76.81Zm-1.59-.5.5-.53-.37-.65-.7.17c-.24-.23-.53-.4-.86-.49l-.21-.71h-.75l-.21.71c-.32.09-.61.26-.85.48l-.72-.17-.37.65.51.54c-.04.16-.07.32-.07.5s.02.33.06.48l-.51.54.37.65.71-.17c.24.23.53.39.85.49l.21.71h.75l.21-.7c.33-.09.62-.26.86-.49l.71.17.37-.65-.5-.53c.04-.16.07-.33.07-.5s-.03-.33-.06-.49Zm-2.02-.67c-.65 0-1.17.52-1.17 1.17s.52 1.17 1.17 1.17 1.17-.52 1.17-1.17-.52-1.17-1.17-1.17"/>
</svg>
