<svg viewBox="0 0 64 64" xmlns="http://www.w3.org/2000/svg">
  <path d="m13.82 34.48 13.83 12.49h-2.49V64h-7.65l.02-9.49h-7.42L10.09 64h-7.6V46.97H0zm36.36 0L36.36 46.97h2.48V64h7.61l.02-9.49h7.42L53.87 64h7.65V46.97h2.49zM6.43 22.94c0-3.23 2.09-5.98 4.98-6.98V6.5c0-3.59 2.92-6.5 6.5-6.5h28.27c3.58 0 6.5 2.92 6.5 6.5v13.32l3.55-3.55c.98-.98 2.56-.98 3.54 0s.98 2.56 0 3.54l-9.58 9.58-9.58-9.58c-.98-.98-.98-2.56 0-3.54s2.56-.98 3.54 0l3.55 3.55V6.5c0-.83-.67-1.5-1.5-1.5H17.93c-.83 0-1.5.67-1.5 1.5v9.52c2.8 1.05 4.81 3.75 4.81 6.92 0 4.08-3.32 7.39-7.39 7.39s-7.39-3.32-7.39-7.39Zm9.79 0a2.39 2.39 0 1 0-4.78 0 2.39 2.39 0 0 0 4.78 0"/>
</svg>
