<svg viewBox="0 0 24 24" xmlns="http://www.w3.org/2000/svg">
  <path d="m18.21 12.83-4.15 3.74-1.59 1.53h1.4V24h8.67v-5.9h1.51l-5.84-5.26Zm2.58 9.41h-1.43v-2.05h-2.3v2.05h-1.43v-4.72l2.58-2.33 2.58 2.32v4.72ZM1.65 16.57l-1.6 1.52h1.4v5.9h8.67v-5.9h1.51l-5.84-5.26-4.15 3.74Zm6.72 5.67H6.94v-2.05h-2.3v2.05H3.21v-4.72l2.58-2.33 2.58 2.32v4.72ZM5.8 11.37c1.5 0 2.72-1.22 2.72-2.71 0-1.18-.76-2.17-1.81-2.55V2.36c0-.35.28-.63.63-.63h9.37c.35 0 .63.28.63.63v5.12L15.55 5.7a.88.88 0 0 0-1.24 0c-.34.34-.34.9 0 1.24l3.91 3.9 3.91-3.9c.34-.34.34-.9 0-1.24a.88.88 0 0 0-1.24 0l-1.78 1.78V2.37A2.42 2.42 0 0 0 16.7-.01H7.33c-1.31 0-2.38 1.07-2.38 2.38V6.1c-1.09.36-1.88 1.37-1.88 2.57 0 1.5 1.22 2.71 2.72 2.71Zm0-3.67a.96.96 0 1 1 0 1.92.96.96 0 0 1 0-1.92"/>
</svg>
