<svg viewBox="0 0 24 24" xmlns="http://www.w3.org/2000/svg">
  <path d="M5.8 12c1.85 0 3.35-1.5 3.35-3.34 0-1.29-.74-2.39-1.81-2.95V3h9.37v2.98L16 5.27c-.59-.59-1.54-.59-2.13 0s-.59 1.54 0 2.12l4.35 4.34 4.35-4.34c.59-.59.59-1.54 0-2.12-.59-.59-1.54-.59-2.13 0l-.71.71V3c-.01-1.66-1.37-3-3.03-3H7.33C5.67 0 4.32 1.34 4.32 3v2.68c-1.11.55-1.88 1.67-1.88 2.98 0 1.84 1.5 3.34 3.35 3.34Zm0-3.68c.19 0 .34.15.34.34S5.99 9 5.8 9s-.34-.15-.34-.34.15-.34.34-.34m-.01 5.01 5.84 5.26h-1.51v5.4H6.66v-3.15H4.9v3.15H1.46v-5.4H.05l1.59-1.53 4.15-3.74Zm18.26 5.26h-1.51v5.4h-3.46v-3.15h-1.76v3.15h-3.46v-5.4h-1.4l1.59-1.53 4.15-3.74 5.84 5.26Z"/>
</svg>
