<svg viewBox="0 0 40 40" xmlns="http://www.w3.org/2000/svg">
  <path fill="#1e1e1c" d="M6.61 39.94H3.37c-1.87 0-3.38-1.51-3.38-3.37V3.32A3.38 3.38 0 0 1 3.36-.06H6.6v40Zm33.38-26.97c0 .77-.29 1.46-.75 2 .46.54.75 1.24.75 2v6.78c0 .76-.29 1.46-.74 2 .46.54.74 1.24.74 2v6.78c0 1.72-1.4 3.13-3.13 3.13h-2.52v2.29H8.86V-.06h25.49v3.13h2.52c1.72 0 3.13 1.4 3.13 3.13v6.78Zm-22.03 1.69c0 1.63 1.33 2.96 2.96 2.96s2.96-1.33 2.96-2.96-1.33-2.96-2.96-2.96-2.96 1.33-2.96 2.96m10.06 8.87c0-2.2-1.79-3.99-4-3.99h-6.14c-2.2 0-3.99 1.79-3.99 3.99v3.69h14.13zm9.72 4.22a.87.87 0 0 0-.87-.87h-2.52v8.52h2.52c.48 0 .88-.39.88-.88v-6.78Zm0-10.78c0-.48-.39-.88-.88-.88h-2.52v8.52h2.52c.48 0 .87-.39.87-.87v-6.78Zm0-10.78c0-.48-.39-.88-.88-.88h-2.52v8.53h2.52c.48 0 .88-.39.88-.88V6.18Z"/>
</svg>
