<svg viewBox="0 0 32 32" xmlns="http://www.w3.org/2000/svg">
  <path d="M0 23.89h1.73v8.08h5.1v-3.56h1.26v3.56h5.11v-8.08h1.74l-7.47-6.74zm11.2 6.09h-1.11v-3.56H4.84v3.56H3.73v-6.76l3.73-3.37 3.73 3.37v6.76Zm13.33-12.83-7.47 6.74h1.73v8.08h5.1v-3.56h1.26v3.56h5.11v-8.08H32zm3.74 12.83h-1.11v-3.56h-5.25v3.56H20.8v-6.76l3.73-3.37 3.73 3.37v6.76ZM7.47 14.8c1.9 0 3.45-1.55 3.45-3.45 0-1.53-1.02-2.82-2.41-3.27V2.97c0-.55.45-1 1-1h13.05c.55 0 1 .45 1 1v7.42l-2.2-2.2a.996.996 0 1 0-1.41 1.41l4.62 4.61 4.62-4.61a.996.996 0 1 0-1.41-1.41l-2.2 2.2V2.97a3.015 3.015 0 0 0-3.01-2.99H9.52c-1.66 0-3.01 1.34-3.01 2.99v5.08c-1.43.42-2.49 1.73-2.49 3.29 0 1.9 1.55 3.45 3.45 3.45Zm0-4.89a1.451 1.451 0 0 1 0 2.9 1.451 1.451 0 0 1 0-2.9"/>
</svg>
