<svg viewBox="0 0 16 16" xmlns="http://www.w3.org/2000/svg">
  <path d="M6.71 5.27c0-.8.65-1.46 1.46-1.46s1.46.65 1.46 1.46-.65 1.46-1.46 1.46-1.46-.65-1.46-1.46M16 5.09c0 .37-.12.72-.32 1 .2.28.32.63.32 1v2.14c0 .39-.13.74-.34 1.03.21.29.34.64.34 1.03v2.14c0 .97-.79 1.75-1.75 1.75h-.7V16H2.25C1.01 16 0 14.99 0 13.75V2.25C0 1.01 1.01 0 2.25 0h11.29v1.2h.7c.97 0 1.75.79 1.75 1.75v2.14ZM13.54 2.7v2.64h.7c.14 0 .25-.11.25-.25V2.95c0-.14-.11-.25-.25-.25zM4.33 14.5h7.71v-13H4.33zM14.5 7.09c0-.14-.11-.25-.25-.25h-.7v2.64h.7c.14 0 .25-.11.25-.25zM2.25 14.5h.58v-13h-.58c-.41 0-.75.34-.75.75v11.5c0 .41.34.75.75.75m12.25-3.21c0-.14-.11-.25-.25-.25h-.7v2.64h.7c.14 0 .25-.11.25-.25zM9.35 7.52H6.99c-1.02 0-1.85.83-1.85 1.85v1.73h6.07V9.37c0-1.02-.83-1.85-1.85-1.85Z"/>
</svg>
