<svg viewBox="0 0 40 40" xmlns="http://www.w3.org/2000/svg">
  <path d="M40 5.55c0-1.31-1.07-2.37-2.38-2.37h-2.86V0H12.7a3.38 3.38 0 0 0-3.38 3.37v13.32h4.48l.94 3.13s.09.05.14.07V18.2c0-2.22 1.81-4.04 4.04-4.04h6.23c2.23 0 4.04 1.81 4.04 4.04v3.72H20.8l2.04 3.53-2.21 2.34c.05.38.07.74.07 1.11s-.03.76-.08 1.16l1.11 1.18h13.02v-3.96h2.86c1.31 0 2.38-1.07 2.38-2.37v-8.43c0-.46-.14-.89-.36-1.25.23-.36.36-.79.36-1.25V5.55ZM22.02 12.8a3.35 3.35 0 1 1 0-6.7 3.35 3.35 0 0 1 0 6.7m15.61-7.38c.07 0 .13.06.13.12v8.43c0 .07-.06.12-.13.12h-2.86V5.42zm.12 19.5c0 .07-.06.12-.13.12h-2.86v-8.68h2.86c.07 0 .13.06.13.12v8.43Zm-18.16 4c0-.47-.05-.96-.14-1.48l2.01-2.13-2.22-3.84-2.84.67a9 9 0 0 0-2.57-1.47l-.86-2.85H8.54l-.86 2.85c-.93.34-1.79.83-2.53 1.44l-2.91-.68-2.21 3.84 2.04 2.16c-.1.52-.14 1.01-.14 1.49s.04.93.13 1.43L0 32.52l2.22 3.84 2.87-.68c.74.62 1.61 1.11 2.54 1.46L8.49 40h4.43l.85-2.82a8.8 8.8 0 0 0 2.59-1.46l2.86.67 2.22-3.84-1.99-2.12c.1-.54.15-1.04.15-1.53Zm-8.81 4c-2.21 0-4-1.79-4-4s1.79-4 4-4 4 1.79 4 4-1.79 4-4 4"/>
</svg>
