<svg viewBox="0 0 40 40" xmlns="http://www.w3.org/2000/svg">
  <path d="M18.67 9.54c0-1.85 1.5-3.36 3.35-3.36s3.35 1.51 3.35 3.36-1.5 3.36-3.35 3.36-3.35-1.51-3.35-3.36m21.34 4.54c0 .46-.14.89-.36 1.25.23.37.36.79.36 1.25v8.46c0 1.31-1.07 2.38-2.38 2.38h-2.86v3.98H21.42L20.11 30c0-.15.01-.31.01-.46v-.4h12.4V2.31H12.7c-.62 0-1.13.51-1.13 1.13v14.6H9.32V3.44C9.33 1.57 10.84.05 12.7.05h22.07v3.18h2.86c1.31 0 2.38 1.07 2.38 2.38v8.46Zm-5.24-8.59v8.71h2.86c.07 0 .13-.06.13-.13V5.62c0-.07-.06-.13-.13-.13zm2.99 11.1c0-.07-.06-.13-.13-.13h-2.86v8.71h2.86c.07 0 .13-.06.13-.13v-8.46Zm-22.87 1.73v2.46l.07.25c.24.12.47.26.7.4l3-.71.77 1.33h9.77v-3.74a4.05 4.05 0 0 0-4.04-4.05h-6.24a4.05 4.05 0 0 0-4.04 4.05Zm4.92 12.83 1.15 1.22-.84 1.45-1.14 1.98-.84 1.45-1.63-.38-1.09-.26c-.42.29-.88.55-1.35.77l-.32 1.06-.48 1.61H7.65l-.48-1.61-.33-1.11c-.46-.22-.9-.47-1.31-.76l-1.09.26-1.63.38-.84-1.45-1.14-1.98L0 32.34l1.15-1.22.78-.84c-.02-.25-.03-.49-.03-.73 0-.26.01-.52.04-.79l-.77-.82-1.14-1.22.84-1.45 1.14-1.98.84-1.45 1.63.38 1.12.27c.41-.28.84-.53 1.3-.74l.33-1.09.48-1.61h5.62l.48 1.61.33 1.09c.47.22.92.47 1.34.77l1.07-.25 1.63-.38.84 1.45 1.14 1.98.84 1.45-1.15 1.22-.75.8c.03.26.04.52.04.78 0 .27-.01.54-.05.82l.73.78Zm-3.13-3.1 1.52-1.62-1.14-1.98-2.14.51c-.73-.7-1.62-1.21-2.62-1.5l-.65-2.16H9.37l-.65 2.16c-.98.29-1.87.79-2.59 1.48l-2.19-.52L2.8 26.4l1.54 1.64c-.12.49-.2.99-.2 1.52s.07.99.19 1.47l-1.55 1.65 1.14 1.98 2.17-.51c.72.7 1.61 1.2 2.59 1.5l.65 2.16h2.28l.64-2.13c1-.29 1.9-.79 2.63-1.49l2.15.51 1.14-1.98-1.51-1.61c.12-.5.21-1.01.21-1.54s-.08-1.02-.2-1.51Zm-2.23 1.51c0 2.17-1.75 3.93-3.91 3.93s-3.91-1.76-3.91-3.93 1.75-3.93 3.91-3.93 3.91 1.76 3.91 3.93m-2.26 0c0-.92-.75-1.67-1.66-1.67a1.67 1.67 0 0 0 0 3.34c.91 0 1.66-.75 1.66-1.67"/>
</svg>
