<svg viewBox="0 0 24 24" xmlns="http://www.w3.org/2000/svg">
  <path d="M10.29 8.34c0-1.08.88-1.96 1.96-1.96s1.96.88 1.96 1.96-.88 1.96-1.96 1.96-1.96-.88-1.96-1.96M24 7.58c0 .57-.21 1.09-.55 1.5.34.41.55.93.55 1.5v3.35c0 .59-.23 1.13-.59 1.55.36.42.59.95.59 1.55v3.35c0 1.31-1.07 2.38-2.38 2.38h-1.39v1.25H2.87C1.29 24.01 0 22.72 0 21.13V2.88C0 1.3 1.29 0 2.87 0h17.36v1.84h1.39c1.31 0 2.38 1.07 2.38 2.38v3.35ZM20.23 3.6v4.6h1.39c.34 0 .63-.28.63-.63V4.22c0-.34-.28-.63-.63-.63h-1.39Zm2.02 6.98c0-.34-.28-.63-.63-.63h-1.39v4.6h1.39c.34 0 .63-.28.63-.63v-3.35Zm-3.77-8.82H6.09v20.5h12.38V1.76ZM2.87 22.26h1.47V1.76H2.87c-.62 0-1.13.5-1.13 1.13v18.25c0 .62.5 1.13 1.13 1.13Zm19.38-5.24c0-.34-.28-.63-.63-.63h-1.39v4.6h1.39c.34 0 .63-.28.63-.63v-3.35Zm-5.6-.52v-2.39a2.57 2.57 0 0 0-2.57-2.57h-3.62a2.57 2.57 0 0 0-2.57 2.57v2.39h8.75Z"/>
</svg>
