<svg viewBox="0 0 32 32" xmlns="http://www.w3.org/2000/svg">
  <path fill="#1e1e1c" d="M14.27 11.44c0-1.42 1.16-2.58 2.57-2.58s2.57 1.16 2.57 2.58-1.16 2.58-2.57 2.58-2.57-1.16-2.57-2.58M32 10.08c0 .77-.29 1.46-.75 2 .46.54.75 1.24.75 2v4.49c0 .77-.29 1.46-.75 2.01.46.55.75 1.24.75 2.01v4.49c0 1.72-1.4 3.13-3.13 3.13h-1.41V32H3.37C1.51 32 0 30.49 0 28.63V3.38A3.38 3.38 0 0 1 3.37 0h24.09v2.46h1.41c1.72 0 3.13 1.4 3.13 3.13zm-4.54-5.36v6.24h1.41c.48 0 .88-.39.88-.88V5.59c0-.48-.39-.88-.88-.88h-1.41Zm2.29 9.37c0-.48-.39-.88-.88-.88h-1.41v6.24h1.41c.48 0 .88-.39.88-.88v-4.49ZM25.21 2.25H8.06v27.5H25.2V2.25ZM3.37 29.75H5.8V2.25H3.37c-.62 0-1.13.51-1.13 1.13v25.25c0 .62.51 1.13 1.13 1.13Zm26.38-7.15c0-.48-.39-.88-.88-.88h-1.41v6.24h1.41c.48 0 .88-.39.88-.88v-4.49Zm-7.08-.63v-3.14c0-1.87-1.52-3.39-3.39-3.39h-4.84c-1.87 0-3.39 1.52-3.39 3.39v3.14z"/>
</svg>
