<svg viewBox="0 0 24 24" xmlns="http://www.w3.org/2000/svg">
  <path d="m17.1 8.01-5.46-5.45-7.7 8.52h1.24v12.94H3.43V12.83H0L11.57.01 19.58 8H17.1ZM7.03 13.09h4.58v-1.75H7.03zm0 3.78h4.58v-1.75H7.03zm0 3.8h4.58v-1.75H7.03zm16.98-6.05c0 3.7-4.79 8.53-4.99 8.73l-.62.62-.62-.62c-.2-.2-5-5.03-5-8.73 0-3.09 2.52-5.61 5.62-5.61s5.61 2.51 5.61 5.61m-1.75 0c0-2.13-1.73-3.86-3.86-3.86s-3.86 1.73-3.86 3.86 2.4 5.22 3.86 6.84c1.46-1.61 3.86-4.71 3.86-6.84m-3.87-1.78a1.81 1.81 0 1 0 0 3.62 1.81 1.81 0 0 0 0-3.62"/>
</svg>
