<svg viewBox="0 0 48 48" xmlns="http://www.w3.org/2000/svg">
  <path d="M24.08 11.33c0-2.1 1.71-3.81 3.81-3.81s3.81 1.71 3.81 3.81-1.71 3.81-3.81 3.81-3.81-1.71-3.81-3.81M48 16.79c0 .56-.17 1.08-.46 1.51.29.43.46.95.46 1.51V30c0 1.52-1.24 2.76-2.76 2.76h-3.56v4.79H26.97l-1.82-1.93c.01-.19.02-.38.02-.57h14.01V2.51H16.93c-.69 0-1.25.56-1.25 1.25v16.65h-2.5V3.76C13.17 1.7 14.86.01 16.92.01h24.75v3.83h3.56c1.52 0 2.76 1.24 2.76 2.76v10.19ZM41.67 6.34v10.71h3.56c.14 0 .26-.12.26-.26V6.6c0-.14-.12-.26-.26-.26zm3.83 13.48c0-.14-.12-.26-.26-.26h-3.56v10.71h3.56c.14 0 .26-.12.26-.26zm-25.98 2.09v2.82s.04.02.06.04l3.8-.89 1.33 2.3h11.63v-4.26c0-2.56-2.08-4.64-4.64-4.64h-7.53c-2.56 0-4.64 2.08-4.64 4.64Zm5.13 15.37 1.27 1.35-.93 1.61-1.46 2.53-.93 1.61-1.81-.43-1.56-.37c-.61.44-1.27.81-1.97 1.11l-.46 1.53-.54 1.78H9.62l-.54-1.78-.48-1.58c-.68-.3-1.33-.68-1.92-1.11l-1.57.37-1.81.43-.93-1.61-1.46-2.53-.91-1.6 1.27-1.35 1.13-1.2c-.04-.36-.06-.72-.06-1.07 0-.37.02-.75.07-1.15L1.3 32.64.02 31.29l.93-1.61 1.46-2.53.93-1.61 1.81.43 1.61.38c.59-.42 1.23-.79 1.91-1.09l.47-1.57.54-1.78h6.64l.54 1.78.47 1.57c.69.31 1.35.68 1.96 1.12l1.54-.36 1.81-.43.93 1.61 1.46 2.53.93 1.61-1.27 1.35-1.08 1.15c.05.39.07.76.07 1.13s-.03.78-.08 1.19l1.06 1.13Zm-3.74-4.24 1.95-2.07-1.46-2.53-2.75.65c-.93-.9-2.08-1.55-3.36-1.92l-.83-2.76h-2.92l-.83 2.76a8.14 8.14 0 0 0-3.32 1.89l-2.81-.66-1.46 2.53 1.98 2.1c-.15.62-.26 1.27-.26 1.94s.09 1.27.24 1.88L3.1 38.96l1.46 2.53 2.78-.65a8.1 8.1 0 0 0 3.32 1.92l.83 2.77h2.92l.82-2.73c1.28-.37 2.44-1.01 3.38-1.91l2.76.65 1.46-2.53-1.93-2.06c.16-.64.27-1.29.27-1.97s-.1-1.31-.25-1.93Zm-2.86 1.93c0 2.77-2.25 5.02-5.02 5.02s-5.02-2.25-5.02-5.02 2.25-5.02 5.02-5.02 5.02 2.25 5.02 5.02m-2.5 0c0-1.39-1.13-2.52-2.52-2.52s-2.52 1.13-2.52 2.52 1.13 2.52 2.52 2.52 2.52-1.13 2.52-2.52"/>
</svg>
