<svg viewBox="0 0 16 16" xmlns="http://www.w3.org/2000/svg">
  <path d="M3.4 7.34h.59V16h-1.5V8.84H.04L7.99 0l5.32 5.33h-2.12L8.04 2.18zM5.19 8.9h2.99V7.4H5.19zm0 2.48h2.99v-1.5H5.19zm0 2.49h2.99v-1.5H5.19zm10.85-3.88c0 2.31-2.79 5.17-3.1 5.48l-.53.53-.53-.53c-.32-.32-3.1-3.17-3.1-5.48 0-2.01 1.63-3.64 3.63-3.64s3.63 1.63 3.63 3.64m-1.5 0c0-1.18-.96-2.14-2.14-2.14s-2.14.96-2.14 2.14 1.26 2.86 2.14 3.85c.87-1 2.14-2.69 2.14-3.85M12.41 8.9c-.61 0-1.1.49-1.1 1.11a1.099 1.099 0 1 0 2.2 0c0-.62-.49-1.11-1.1-1.11"/>
</svg>
