<svg viewBox="0 0 40 40" xmlns="http://www.w3.org/2000/svg">
  <path d="m9.12 21.46 9.11 8.24h-1.97V40h-5.21v-5.53H7.17V40H1.98V29.7H.01zm21.78 0-9.11 8.24h1.97V40h5.18v-5.53h3.9V40h5.2V29.7h1.97zM4.07 14.61c0-2.1 1.29-3.91 3.11-4.67V4.52c0-2.49 2.02-4.51 4.5-4.51h16.73c2.48 0 4.5 2.02 4.5 4.51v7.09l1.47-1.47c.78-.78 2.05-.78 2.83 0s.78 2.05 0 2.83l-6.29 6.3-6.29-6.3c-.78-.78-.78-2.05 0-2.83s2.05-.78 2.83 0l1.47 1.47V4.52c0-.28-.22-.5-.5-.5H11.68c-.28 0-.5.22-.5.5v5.47c1.76.79 3 2.56 3 4.62 0 2.79-2.27 5.06-5.05 5.06s-5.05-2.27-5.05-5.06Zm6.11 0a1.06 1.06 0 1 0-2.121.001 1.06 1.06 0 0 0 2.121-.001"/>
</svg>
