<svg viewBox="0 0 40 40" xmlns="http://www.w3.org/2000/svg">
  <path fill="#1e1e1c" d="M17.72 14.7c0-1.63 1.33-2.96 2.96-2.96s2.97 1.33 2.97 2.96-1.33 2.97-2.97 2.97-2.96-1.33-2.96-2.97M40 13.02c0 .77-.29 1.46-.75 2 .46.54.75 1.24.75 2v6.77c0 .76-.29 1.46-.74 2 .46.54.74 1.24.74 2v6.77c0 1.72-1.4 3.13-3.13 3.13h-3.26v2.29H3.38A3.374 3.374 0 0 1 0 36.61V3.37C0 1.5 1.52-.01 3.38-.01h30.23v3.13h3.26c1.72 0 3.13 1.4 3.13 3.13zm-6.39-7.65v8.52h3.26c.48 0 .88-.39.88-.88V6.24c0-.48-.39-.88-.88-.88h-3.26Zm4.14 11.65c0-.48-.39-.88-.88-.88h-3.26v8.52h3.26c.48 0 .87-.39.87-.88v-6.77ZM3.38 37.74h3.99V2.24H3.38c-.62 0-1.13.51-1.13 1.13v33.24c0 .62.51 1.13 1.13 1.13m27.98-.04h-.02l.02-35.46H9.62v35.5h21.74zm6.39-9.9c0-.48-.39-.87-.87-.88h-3.26v8.52h3.26c.48 0 .88-.39.88-.88v-6.77Zm-13.96-8.22h-6.15c-2.2 0-3.99 1.79-3.99 4v3.69h14.13v-3.69c0-2.2-1.79-4-3.99-4"/>
</svg>
