<svg viewBox="0 0 16 16" xmlns="http://www.w3.org/2000/svg">
  <path d="M1.38 5.94c0-.92.51-1.71 1.25-2.14V2.25C2.63 1.01 3.65 0 4.89 0h6.19c1.24 0 2.25 1.01 2.25 2.25v1.3l.05-.05c.49-.49 1.28-.49 1.77 0s.49 1.28 0 1.77l-3.08 3.07-3.08-3.07c-.49-.49-.49-1.28 0-1.77s1.28-.49 1.77 0l.05.05V2.5H5.13v1.33c.72.43 1.21 1.21 1.21 2.11a2.48 2.48 0 1 1-4.96 0m-.08 5.75L.03 12.98h1.1V16h2v-2.35h1.5V16h2v-3.02h1.16l-3.92-3.8-2.59 2.51Zm10.81-2.51-2.59 2.51-1.27 1.29h1.1V16h2v-2.35h1.5V16h2v-3.02h1.16l-3.92-3.8Z"/>
</svg>
