<svg viewBox="0 0 48 48" xmlns="http://www.w3.org/2000/svg">
  <path d="M47.98 6.61c0-1.52-1.24-2.76-2.76-2.76h-3.56V.02H16.93c-2.07 0-3.75 1.68-3.75 3.75v14.71h4.2l1.21 4.01c.32.14.63.31.94.47v-1.05c0-2.56 2.08-4.64 4.64-4.64h7.53c2.56 0 4.64 2.08 4.64 4.64v4.26h-9.49l2.08 3.6-2.82 3c.06.46.08.91.08 1.35s-.03.93-.09 1.42l1.89 2h13.69v-4.79h3.56c1.52 0 2.76-1.24 2.76-2.76V19.8c0-.56-.17-1.08-.46-1.51.29-.43.46-.95.46-1.51V6.61Zm-20.09 8.53c-2.1 0-3.81-1.71-3.81-3.81s1.71-3.81 3.81-3.81 3.81 1.71 3.81 3.81-1.71 3.81-3.81 3.81m17.33-8.79c.14 0 .26.12.26.26V16.8c0 .14-.12.26-.26.26h-3.56V6.35zM45.48 30c0 .14-.12.26-.26.26h-3.56V19.55h3.56c.14 0 .26.12.26.26zm-21.05 4.12c0-.61-.06-1.25-.19-1.93l2.52-2.68-2.68-4.64-3.56.84c-.98-.82-2.12-1.47-3.36-1.92l-1.08-3.57h-5.36l-1.07 3.57c-1.22.44-2.34 1.08-3.31 1.89l-3.64-.86-2.69 4.64 2.55 2.71c-.13.68-.2 1.33-.2 1.95s.06 1.21.18 1.87l-2.56 2.73 2.68 4.64 3.6-.85c.96.81 2.09 1.46 3.32 1.92l1.08 3.59h5.36l1.06-3.53c1.24-.44 2.39-1.09 3.38-1.91l3.58.84 2.68-4.64-2.5-2.66c.14-.7.21-1.36.21-1.99Zm-11.01 5.13c-2.83 0-5.12-2.29-5.12-5.12s2.29-5.12 5.12-5.12 5.12 2.29 5.12 5.12-2.29 5.12-5.12 5.12"/>
</svg>
