<svg viewBox="0 0 24 24" xmlns="http://www.w3.org/2000/svg">
  <path d="M13.37 17.49V19c0 .85-.69 1.54-1.54 1.54h-.93l-.76-4.58h1.69c.85 0 1.54.69 1.54 1.54Zm9.03-9.97c-.06 0-.12.01-.18.02V1.73c0-.55-.27-1.08-.72-1.4s-1.03-.41-1.64-.21l-8.75 3.96v10.06l8.68 4.27.08.03c.2.08.41.11.61.11.35 0 .69-.1.98-.31.47-.32.75-.86.75-1.42v-6.1c.06 0 .12.02.18.02a1.609 1.609 0 1 0 0-3.22ZM8.68 15.95H4.09l1.08 6.63c.14.83.86 1.43 1.7 1.43h1.08c.51 0 .99-.22 1.32-.62.33-.39.47-.91.38-1.4l-.98-6.04Zm.68-11.77H6.98v10.03h2.38zM5.22 14.21V4.18h-.88A4.34 4.34 0 0 0 .01 8.52v1.36c0 2.39 1.94 4.33 4.33 4.33z"/>
</svg>
