<svg viewBox="0 0 64 64" xmlns="http://www.w3.org/2000/svg">
  <path d="M61 46.39H4.03V13.37c0-1.03.84-1.87 1.87-1.87h14.09c-.1.13-.2.24-.29.38a4.47 4.47 0 0 0-.54 3.37l2.05 8.6a4.4 4.4 0 0 0 2 2.76c.71.44 1.51.66 2.32.66.35 0 .7-.04 1.04-.12l.51-.12 3.41 8.18c.61 1.42 1.98 2.29 3.51 2.29q.48 0 .96-.12l3.16-.87c1.1-.26 2.02-.99 2.53-2s.54-2.19.11-3.2l-.45-1.08.69-.17c.91-.22 1.69-.78 2.18-1.58s.64-1.75.43-2.66l8.17 1.85.23.04q.24.03.48.03a3.822 3.822 0 0 0 3.71-4.71l-1.78-7.45a4.27 4.27 0 0 0 1.1-3.96c-.01-.05-.03-.09-.04-.14h3.64c1.03 0 1.87.84 1.87 1.87v33.03Zm3.05 2.75v11.48c0 1.86-1.51 3.37-3.37 3.37H3.42c-1.86 0-3.37-1.51-3.37-3.37V49.14zm-23.29 4.05H23.35v4.87c0 1.03.84 1.87 1.87 1.87h13.66c1.03 0 1.87-.84 1.87-1.87v-4.87Zm-.33-25.56c.55-.13.88-.68.75-1.23l-.54-2.26c-.13-.55-.68-.89-1.23-.75l-2.18.53L38.95 28l1.47-.37Zm11.9-2.4c.91.12 1.66-.72 1.45-1.61l-2.21-9.27q.12 0 .24-.03c.94-.22 1.51-1.16 1.29-2.1a1.73 1.73 0 0 0-2.1-1.29c-.08.02-.15.05-.23.08l-2.38-9.99C48.18.15 47.18-.27 46.42.2L35.41 8.73l3.2 13.41 13.73 3.1Zm-23.04.55 3.51 8.43c.25.59.89.91 1.52.76l3.24-.89c.8-.19 1.23-1.05.9-1.8l-3.33-8.01zm7.69-3.84L34.02 9.53l-6.06 1.58 2.96 12.41zm-13.16 2c.16.68.84 1.09 1.51.93l3.96-.95-2.96-12.41-3.96.95c-.67.16-1.09.84-.93 1.51l2.38 9.96Z"/>
</svg>
