<svg viewBox="0 0 32 32" xmlns="http://www.w3.org/2000/svg">
  <path d="M30.33 23.62H1.77V7.11c0-.83.67-1.5 1.5-1.5H9.4c-.61.69-.89 1.66-.66 2.62l.93 3.88a2.944 2.944 0 0 0 2.86 2.26c.21 0 .43-.03.64-.08l1.81 4.34c.39.89 1.25 1.45 2.22 1.45.2 0 .4-.02.61-.07l1.56-.43c.69-.17 1.28-.62 1.6-1.26s.34-1.38.07-2.01v-.02a2.263 2.263 0 0 0 1.45-2.65l-.06-.24 4.08.92.16.03a2.41 2.41 0 0 0 2.65-2.95l-.83-3.47c.06-.08.12-.16.17-.25.37-.6.48-1.3.32-1.98 0-.03-.02-.05-.03-.07a1.5 1.5 0 0 1 1.36 1.49v16.51Zm1.72 2v4.88c0 .83-.67 1.5-1.5 1.5h-29c-.83 0-1.5-.67-1.5-1.5V24h.07v1.62zm-12.41 1.74h-7.18v2c0 .28.22.5.5.5h6.18c.28 0 .5-.22.5-.5zm.78-12.7c.27-.07.44-.34.38-.61l-.27-1.13a.52.52 0 0 0-.61-.38l-1.09.27.86 2.04.74-.18Zm6.49-2.04c.46.06.83-.36.73-.81l-1.11-4.65h.12a.873.873 0 1 0-.4-1.7c-.04 0-.07.04-.11.05L24.94.5c-.1-.44-.6-.64-.99-.41l-5.51 4.27 1.6 6.7 6.87 1.55Zm-12.07 1.11 1.76 4.21c.13.29.45.45.76.38l1.62-.44c.4-.1.61-.53.45-.9l-1.67-4zm3.67-2.5-1.48-6.2-3.03.79 1.48 6.2zm-7.14.42c.16.68.84 1.09 1.51.93l1.37-.33-1.48-6.2-1.37.33c-.68.16-1.09.84-.93 1.51z"/>
</svg>
