<svg viewBox="0 0 24 24" xmlns="http://www.w3.org/2000/svg">
  <path d="M24.03 9.03c0-1-.63-1.86-1.5-2.21V1.75c0-.55-.27-1.08-.72-1.4s-1.03-.41-1.63-.21L10.91 4.2H4.36C1.97 4.2.03 6.14.03 8.53v1.36c0 2.17 1.6 3.95 3.68 4.27l1.47 8.44c.15.83.86 1.43 1.71 1.43h3.09c.51 0 .99-.23 1.32-.62s.47-.91.38-1.41l-.76-4.35c.92 0 1.67-.75 1.67-1.67v-1.36l7.5 3.79.09.04c.2.08.41.11.61.11.35 0 .69-.1.98-.31.47-.32.75-.86.75-1.43v-5.58a2.38 2.38 0 0 0 1.5-2.21ZM5.23 5.95h4.94v6.52H5.23zM1.78 9.89V8.53c0-1.11.71-2.07 1.7-2.43v6.21c-.99-.36-1.7-1.31-1.7-2.43Zm5.13 12.4-1.4-8.06h3.03l.58 3.23.84 4.81zm3.41-8.06h.52v1.67h-.23zm1.61-1.92V5.66l8.84-3.88v15l-8.85-4.47Z"/>
</svg>
