<svg viewBox="0 0 32 32" xmlns="http://www.w3.org/2000/svg">
  <path d="M32.01 11.99c0-1.32-.85-2.43-2.03-2.85V2.17c0-.69-.33-1.34-.89-1.75-.56-.4-1.28-.51-2.02-.27L14.54 5.64H5.66C2.54 5.65 0 8.19 0 11.31v1.83a5.66 5.66 0 0 0 4.94 5.61l2 11.49a2.15 2.15 0 0 0 2.12 1.78h4.16a2.155 2.155 0 0 0 2.12-2.53l-1.06-6.07h.22c1.14 0 2.08-.93 2.08-2.08v-2.12l10.37 5.24.09.04c.25.09.51.14.76.14.43 0 .86-.13 1.22-.38.58-.4.93-1.07.93-1.77v-7.66a3.03 3.03 0 0 0 2.03-2.85ZM6.66 7.65h7.02v9.15H6.66zm-4.65 5.49v-1.83c0-1.67 1.12-3.08 2.66-3.52v8.87a3.674 3.674 0 0 1-2.66-3.52m11.34 16.83s-.07.05-.12.05H9.07c-.07 0-.14-.05-.15-.12L6.99 18.82h4.46l.58 3.27 1.35 7.76q0 .09-.03.12m1.24-8.62s-.03.08-.07.08h-.57l-.45-2.61h1.03s.07.03.07.07v2.46Zm13.39 1.14c0 .05-.02.09-.07.13-.03.02-.07.03-.11.02l-12.11-6.12V7.33l12.09-5.3s.09 0 .13.02q.06.045.06.12V22.5Zm2-10.27v-.46c.02.07.03.15.03.23s0 .16-.03.23"/>
</svg>
