<svg viewBox="0 0 24 24" xmlns="http://www.w3.org/2000/svg">
  <path d="M22.4 17.31H1.63V5.24c0-.76.62-1.37 1.38-1.37H7.3c-.2.18-.38.37-.52.6a2.63 2.63 0 0 0-.32 2.03l.56 2.34a2.7 2.7 0 0 0 2.62 2.06c.04 0 .09-.01.13-.02l1.32 3.16c.32.74 1.04 1.2 1.84 1.2q.255 0 .51-.06l1.17-.32a1.98 1.98 0 0 0 1.43-2.54c.34-.15.62-.4.81-.72.24-.4.32-.86.24-1.31l2.78.63.14.03c.08.01.17.02.25.02.56 0 1.1-.24 1.48-.66.44-.49.61-1.16.46-1.8l-.6-2.52s.06-.08.09-.13c.3-.49.39-1.07.26-1.63v-.01c.28.25.46.61.46 1.02V17.3Zm1.62 1.75v3.07c0 1.03-.84 1.87-1.88 1.87H1.89C.86 24 .02 23.16.02 22.13v-4.47h.1v1.4zm-9.31 1.38H9.32v1.03c0 .28.22.5.5.5h4.39c.28 0 .5-.22.5-.5zm.61-9.44c.21-.05.33-.26.28-.46l-.2-.85a.38.38 0 0 0-.46-.28l-.82.2.64 1.53.55-.14Zm4.87-1.53c.34.04.62-.27.54-.6l-.83-3.48h.09c.35-.08.57-.44.48-.79s-.44-.57-.79-.48c-.03 0-.05.03-.08.04L18.7.4a.497.497 0 0 0-.74-.31l-4.13 3.2 1.2 5.03 5.16 1.16Zm-9.06.83 1.32 3.16c.1.22.34.34.57.28l1.22-.33c.3-.07.46-.39.34-.68l-1.25-3-2.19.57Zm2.76-1.87-1.11-4.65-2.27.59 1.11 4.65zm-5.44 0c.16.68.84 1.09 1.52.93l.72-.17-1.11-4.65-.72.17c-.68.16-1.09.84-.93 1.51l.53 2.21Z"/>
</svg>
