<svg viewBox="0 0 16 16" xmlns="http://www.w3.org/2000/svg">
  <path d="M16.01 6.13c0-.65-.52-1.18-1.16-1.21V1.31c0-.42-.2-.81-.54-1.06-.34-.24-.78-.31-1.25-.15L7.24 2.73H3.01c-1.65-.01-3 1.34-3 3v.89c0 1.46 1.05 2.68 2.43 2.95l.94 5.37a1.3 1.3 0 0 0 1.29 1.08h2.01c.39 0 .75-.17 1-.47s.35-.69.29-1.07l-.54-3.07c.49-.14.86-.58.86-1.12v-.42L13 12.32l.08.04c.15.06.31.09.46.09.26 0 .52-.08.74-.23.35-.24.57-.65.57-1.08V7.35c.64-.04 1.16-.56 1.16-1.21ZM3.76 4.23h2.86v3.89H3.76zM1.51 6.61v-.89c0-.56.3-1.04.75-1.3v3.49c-.45-.26-.75-.75-.75-1.3m3.31 7.9-.85-4.88h1.62l.25 1.38.61 3.51H4.83Zm8.53-3.7L8.13 8.09V3.97l5.22-2.36z"/>
</svg>
