<svg viewBox="0 0 40 40" xmlns="http://www.w3.org/2000/svg">
  <path d="M37.88 28.01H2.22V8.66c0-.9.73-1.63 1.62-1.63h8q-.225.24-.39.51c-.45.73-.59 1.6-.39 2.43l1.28 5.38a3.22 3.22 0 0 0 3.88 2.38l.37-.09 2.32 5.57c.45 1.05 1.47 1.7 2.6 1.7.23 0 .47-.03.71-.08l1.96-.54a2.826 2.826 0 0 0 1.95-3.84l-.09-.21a2.627 2.627 0 0 0 1.89-3.15l-.14-.59 5.39 1.22.18.03c.12.02.24.02.36.02.79 0 1.56-.34 2.1-.93.62-.69.86-1.64.65-2.54l-1.06-4.43a3.09 3.09 0 0 0 .63-2.7c-.01-.05-.03-.09-.05-.14h.26c.9 0 1.62.73 1.62 1.63v19.35Zm2.17 2.25v7.61c0 1.17-.95 2.13-2.12 2.13H2.17C1 40 .05 39.05.05 37.87v-7.61zm-14.36 1.82H14.41v2.63c0 .9.73 1.63 1.62 1.63h8.04c.9 0 1.62-.73 1.62-1.63zm-.18-13.75c.34-.08.55-.43.47-.77l-.34-1.41a.637.637 0 0 0-.77-.47l-1.36.33 1.07 2.55.92-.23Zm8.11-2.56a.83.83 0 0 0 .91-1.01l-1.39-5.81h.15c.59-.14.95-.73.81-1.31-.14-.59-.73-.95-1.31-.81-.05.01-.09.05-.14.06L31.16.63a.822.822 0 0 0-1.23-.51l-6.88 5.33 2 8.38 8.58 1.94Zm-15.07 1.4 2.2 5.27c.16.37.56.57.95.48l2.02-.55c.5-.12.77-.66.56-1.13l-2.08-5-3.65.94Zm4.59-3.13-1.85-7.76-3.78.98 1.85 7.76zm-8.86.82c.16.68.84 1.09 1.51.93l2.02-.48-1.85-7.76-2.02.48c-.67.16-1.09.84-.93 1.51l1.27 5.31Z"/>
</svg>
