<svg viewBox="0 0 40 40" xmlns="http://www.w3.org/2000/svg">
  <path d="M37.85 30.17V8.62c0-.9-.73-1.63-1.62-1.63h-.37c.12.23.22.47.28.73.23.95.08 1.91-.41 2.72-.04.06-.09.12-.13.18v1.49l.64 2.59c.27 1.08.02 2.2-.64 3.08v12.38H4.43V9.25h6.71c.37-.92 1.03-1.71 1.89-2.25H3.81c-.9 0-1.62.73-1.62 1.63v21.55H.02v7.69C.02 39.04.97 40 2.14 40h35.75c1.17 0 2.12-.95 2.12-2.13v-7.69h-2.17Zm-21.23 2.25h6.79v1.53h-6.79zm21.15 5.31H2.27v-5.31h12.11v2.16c0 .9.73 1.63 1.62 1.63h8.04c.9 0 1.62-.73 1.62-1.63v-2.16h12.11zm-25.7-26.18.95 3.85c.2.79.69 1.46 1.38 1.88a3.03 3.03 0 0 0 2.31.35l.47-.12 3.13 7.11a1.92 1.92 0 0 0 2.23 1.09l2.83-.7c.55-.14 1.02-.51 1.27-1.02s.26-1.11.03-1.63l-1.8-4.08c.24-.15.45-.34.6-.59.24-.4.31-.87.2-1.32l-.13-.52 7.4 1.79.13.02c.08 0 .15.01.23.01.55 0 1.08-.23 1.44-.65.42-.48.58-1.13.43-1.74l-1.31-5.29c.41-.14.76-.4.99-.78.25-.42.32-.9.21-1.37-.12-.47-.41-.87-.82-1.12-.38-.23-.81-.3-1.24-.23l-1.24-5.02c-.15-.6-.58-1.1-1.15-1.33s-1.23-.17-1.75.16l-7.34 5.79-4.84 1.2-2.39.59c-1.63.4-2.63 2.06-2.22 3.69Zm10.19 11.91-2.86-6.49 2.19-.54.8 1.8 2.07 4.69-2.2.55ZM29.7 2.48l3.17 12.81-8.19-1.98-1.42-5.74 6.44-5.08ZM17.22 9.45l3.94-.98 1.33 5.39-3.94.98-1.18-4.79-.15-.61Zm-2.88.96c.11-.18.28-.31.49-.36l.21-.05 1.33 5.39-.21.05a.79.79 0 0 1-.96-.58l-.95-3.85a.8.8 0 0 1 .09-.6"/>
</svg>
