<svg viewBox="0 0 16 16" xmlns="http://www.w3.org/2000/svg">
  <path d="M15.02 11.5V3.74c0-.63-.47-1.13-1.07-1.22.13.18.23.38.29.6.11.47.04.94-.2 1.34-.03.05-.07.1-.1.15l.34 1.4c.14.58 0 1.19-.4 1.64-.1.12-.23.22-.36.3v3.53h-11V3.99h.74c.17-.66.64-1.22 1.29-1.5H2.27c-.69 0-1.25.56-1.25 1.25v7.76h-1v3.25c0 .69.56 1.25 1.25 1.25h13.5c.69 0 1.25-.56 1.25-1.25V11.5zm-.5 3h-13V13h4.04c.12.57.6 1 1.2 1h2.52c.6 0 1.08-.43 1.2-1h4.04zM3.97 4.87l.37 1.5a1.51 1.51 0 0 0 1.45 1.14c.1 0 .19-.02.29-.04L7.19 10c.17.39.56.63.97.63.08 0 .17 0 .26-.03l1.1-.27c.31-.08.56-.28.7-.56s.15-.61.02-.9l-.61-1.38s.09-.08.12-.14c.09-.14.12-.31.13-.47l2.43.59.08.02h.13c.3 0 .59-.13.79-.36.23-.26.32-.62.24-.96l-.45-1.81c.12-.08.22-.18.29-.31.14-.23.18-.5.12-.77-.07-.26-.23-.49-.46-.63a.94.94 0 0 0-.4-.13L12.23.81c-.08-.33-.32-.6-.64-.73-.31-.13-.67-.09-1.03.13L7.8 2.39l-1.94.48-.8.2c-.8.2-1.29 1.01-1.09 1.81Zm3.97.6-.92.23-.37-1.48.92-.23zm.47 3.58-.85-1.94.23-.06.25.56.6 1.37-.24.06Zm2.52-7.22.99 4-2.49-.6-.46-1.85z"/>
</svg>
