<svg viewBox="0 0 64 64" xmlns="http://www.w3.org/2000/svg">
  <path d="M63.96 23.76c0-2.57-1.76-4.72-4.14-5.33V3.72c0-1.21-.56-2.31-1.54-3.02s-2.2-.9-3.35-.52L29.1 11.49H10.85c-6 0-10.89 4.89-10.89 10.89v3.74c0 5.7 4.41 10.39 9.99 10.84l4.18 23.94a3.715 3.715 0 0 0 3.67 3.09h8.5c1.1 0 2.14-.48 2.85-1.33.71-.84 1.01-1.95.82-3.04l-2.3-13.18h1.25c1.97 0 3.57-1.6 3.57-3.57v-5.02c0-.15-.03-.28-.04-.42l22.19 11.2.13.06c.43.16.88.24 1.32.24a3.726 3.726 0 0 0 3.73-3.73V29.09a5.51 5.51 0 0 0 4.14-5.33m-51.74-9.52h15.67v20.01H12.22zM2.71 26.12v-3.74c0-4.02 2.93-7.37 6.76-8.02v19.78c-3.83-.66-6.76-4-6.76-8.02m24.34 34.77c-.11.13-.35.35-.75.35h-8.5c-.48 0-.88-.34-.96-.81l-4.08-23.39h10.45l1.31 7.32 2.75 15.74a1 1 0 0 1-.21.8Zm2.7-18.02c0 .45-.37.82-.82.82H27.2l-1.16-6.66h2.89c.45 0 .82.37.82.82zm27.32 2.34c0 .46-.29.72-.42.8-.12.08-.44.26-.85.13l-25.16-12.7V13.82l25.2-11.04c.29-.08.59-.03.83.15.26.19.4.47.4.79zm2.76-19.05v-4.79a2.766 2.766 0 0 1 0 4.8Z"/>
</svg>
