<svg viewBox="0 0 16 16" xmlns="http://www.w3.org/2000/svg">
  <path d="M15.01 11.03h-14V3.74c0-.69.56-1.25 1.25-1.25h2.58c-.47.56-.69 1.32-.51 2.08l.18.77c.23.98 1.05 1.67 1.98 1.8l.97 2.32c.25.58.81.94 1.44.94.13 0 .26-.02.4-.05l.74-.2c.45-.11.83-.41 1.04-.82.15-.3.19-.63.14-.94a1.45 1.45 0 0 0 .63-1.4l1.15.26.12.02c.07 0 .13.01.2.01a1.57 1.57 0 0 0 1.52-1.93l-.35-1.48c.16-.27.24-.58.23-.89.17.21.28.47.28.76v7.28Zm1 1.5v2.22c0 .69-.56 1.25-1.25 1.25H1.26c-.69 0-1.25-.56-1.25-1.25v-2.22zm-6.24.99H6.25v.5c0 .28.22.5.5.5h2.52c.28 0 .5-.22.5-.5zm.67-6.12c.13-.03.21-.16.18-.29l-.13-.54a.24.24 0 0 0-.29-.18l-.52.13.41.97zm2.85-1.37c.22.03.4-.17.35-.39l-.53-2.22h.06c.22-.05.36-.28.31-.5a.42.42 0 0 0-.5-.31c-.02 0-.04.02-.05.02l-.57-2.4a.317.317 0 0 0-.47-.2L9.26 2.07l.77 3.21 3.28.74Zm-5.51.93.84 2.02c.06.14.21.22.36.18l.77-.21c.19-.05.29-.25.22-.43l-.8-1.91-1.4.36Zm1.49-1.59L8.56 2.4l-1.45.38.71 2.97zM5.7 4.93c.16.68.84 1.09 1.51.93h.02l-.71-2.97H6.5c-.68.17-1.09.84-.93 1.52l.12.52Z"/>
</svg>
