<svg viewBox="0 0 64 64" xmlns="http://www.w3.org/2000/svg">
  <path d="M32.63 47.12v4.15c0 1.76-1.43 3.19-3.2 3.19h-1.7l-1.75-10.54h3.44a3.2 3.2 0 0 1 3.2 3.19Zm31.36-22.2c0-2.96-2.08-5.44-4.86-6.07V3.75c0-1.21-.56-2.31-1.54-3.02s-2.2-.9-3.35-.52L30.62 10.87v26.36l23.35 11.46.12.05c.43.16.88.24 1.32.24a3.726 3.726 0 0 0 3.73-3.73V30.98c2.77-.63 4.86-3.11 4.86-6.07ZM21.48 41.03H10.92l3.26 19.91a3.714 3.714 0 0 0 3.67 3.08h2.99c1.1 0 2.14-.48 2.86-1.33.71-.84 1.01-1.95.82-3.02zm5.17-29.5h-10.4v25.52h10.4zm-14.39 0h-1.37c-6.01 0-10.9 4.89-10.9 10.9v3.74c0 6.01 4.89 10.89 10.9 10.89h1.37z"/>
</svg>
