<svg viewBox="0 0 48 48" xmlns="http://www.w3.org/2000/svg">
  <path d="M24.7 35.23v3.09c0 1.43-1.17 2.6-2.6 2.6h-1.45l-1.38-8.29h2.83c1.44 0 2.6 1.17 2.6 2.6m23.29-16.49c0-2.24-1.54-4.11-3.61-4.67V3.01c0-.96-.46-1.87-1.24-2.43s-1.79-.72-2.7-.42L22.73 8.15v19.87L40.2 36.6l.11.05c.34.13.7.19 1.06.19a3.004 3.004 0 0 0 3-3V23.4c2.07-.56 3.61-2.43 3.61-4.67ZM16.38 30.48H8.07l2.47 15.06a2.985 2.985 0 0 0 2.95 2.48h2.22c.89 0 1.73-.39 2.3-1.07s.81-1.57.66-2.43zm3.87-21.91h-8.19v19.42h8.19zM9.57 27.98V8.57H8.32C3.73 8.57 0 12.3 0 16.89v2.78c0 4.58 3.73 8.31 8.32 8.31z"/>
</svg>
