<svg viewBox="0 0 40 40" xmlns="http://www.w3.org/2000/svg">
  <path d="m39.99 30.09-7.94 7.94c-.39.39-.9.59-1.41.59s-1.02-.2-1.41-.59c-.78-.78-.78-2.05 0-2.83l3.11-3.11H0v-4h4.65a12.44 12.44 0 0 1-3.36-8.51c0-4.64 2.54-8.69 6.3-10.85l1.65 3.68c-2.37 1.51-3.95 4.16-3.95 7.17 0 4.69 3.82 8.51 8.51 8.51s8.51-3.82 8.51-8.51c0-.36-.03-.71-.07-1.06-.01-.1-.03-.2-.05-.3-.04-.27-.1-.53-.17-.79-.02-.08-.04-.17-.07-.25-.1-.33-.21-.65-.34-.96-.02-.05-.05-.09-.07-.14-.12-.27-.26-.52-.4-.77-.05-.08-.1-.16-.14-.24-.15-.24-.31-.48-.49-.7-.03-.04-.06-.09-.1-.13-.21-.26-.44-.52-.69-.75-.05-.05-.1-.09-.15-.13-.21-.19-.42-.37-.64-.54-.07-.05-.13-.1-.2-.15-.28-.2-.56-.38-.86-.55-.8-.44-1.67-.74-2.6-.91l2.04 4.56c.45 1.01 0 2.19-1.01 2.64-.27.12-.54.17-.82.18-.76 0-1.49-.44-1.83-1.18L8.93 6.86l10.55-4.72c1.01-.45 2.19 0 2.64 1.01s0 2.19-1.01 2.64l-3.94 1.76c.9.26 1.77.6 2.58 1.04.31.17.61.35.9.55.09.06.17.12.26.17.24.17.48.35.71.53l.15.12c.27.22.52.46.77.7l.21.21c.2.2.39.42.58.63l.15.18q.33.405.63.84c.05.07.1.15.14.22.16.24.31.49.45.74.04.08.09.15.13.23.17.31.32.63.46.96.03.07.05.13.08.2.11.28.22.56.31.85l.09.27c.1.35.2.7.27 1.06 0 .05.02.09.02.14a15 15 0 0 1 .18 1.27c.03.38.06.75.06 1.14 0 3.29-1.28 6.27-3.36 8.51h9.41L29.24 25c-.78-.78-.78-2.05 0-2.83s2.05-.78 2.83 0l7.94 7.94Z"/>
</svg>
