<svg viewBox="0 0 32 32" xmlns="http://www.w3.org/2000/svg">
  <path d="m31.97 24.13-6.42 6.42c-.34.34-.79.51-1.24.51s-.9-.17-1.24-.51c-.68-.68-.68-1.79 0-2.48l2.19-2.19H-.03v-3.51h3.32a10.05 10.05 0 0 1-2.47-6.59c0-3.63 1.94-6.82 4.82-8.59l1.45 3.24c-1.67 1.2-2.77 3.15-2.77 5.36 0 3.63 2.96 6.59 6.59 6.59s6.59-2.96 6.59-6.59c0-.25-.02-.5-.05-.75 0-.07-.02-.15-.03-.22-.03-.17-.06-.35-.1-.52l-.06-.23c-.05-.17-.1-.34-.16-.5a6 6 0 0 0-.33-.77l-.03-.07c-.35-.67-.82-1.28-1.37-1.79 0 0-.01 0-.02-.01a6.54 6.54 0 0 0-2.99-1.58l1.49 3.33c.4.88 0 1.92-.88 2.32-.23.1-.48.15-.72.15-.67 0-1.31-.39-1.6-1.04L6.83 5.58l8.55-3.8c.88-.4 1.92 0 2.32.88s0 1.92-.88 2.32L14.09 6.2c1.95.65 3.64 1.88 4.86 3.48.03.03.05.07.08.1.22.3.43.61.62.94l.06.09c.2.36.39.73.55 1.11v.03c.14.35.26.71.37 1.07.03.11.06.21.08.32a13 13 0 0 1 .23 1.22c.05.4.08.81.08 1.22 0 2.52-.93 4.82-2.47 6.59h6.71l-2.19-2.19c-.68-.68-.68-1.79 0-2.48s1.79-.68 2.48 0l6.42 6.42Z"/>
</svg>
