<svg viewBox="0 0 48 48" xmlns="http://www.w3.org/2000/svg">
  <path d="M38.52 26.63c-.88-.88-2.3-.88-3.18 0s-.88 2.3 0 3.18l4.02 4.02H27.27c2.63-2.69 4.26-6.37 4.26-10.42 0-.46-.03-.91-.07-1.36-.01-.13-.03-.25-.04-.38-.04-.35-.09-.69-.16-1.04l-.06-.32c-.09-.41-.19-.82-.32-1.22-.04-.13-.09-.26-.13-.39-.09-.28-.19-.55-.3-.82-.06-.16-.13-.31-.19-.47q-.18-.42-.39-.81c-.12-.24-.25-.47-.39-.7-.11-.19-.22-.38-.34-.56-.13-.2-.26-.39-.39-.58-.09-.13-.19-.25-.28-.38-.54-.7-1.13-1.35-1.78-1.95-.05-.05-.1-.09-.16-.14a14.94 14.94 0 0 0-6.31-3.35l5.17-2.31a2.257 2.257 0 0 0 1.13-2.98 2.257 2.257 0 0 0-2.98-1.13L10.97 8.15l5.63 12.57c.37.84 1.2 1.33 2.06 1.33a2.257 2.257 0 0 0 2.05-3.18l-2.58-5.77c1 .15 1.96.44 2.85.85a10 10 0 0 1 1.92 1.16c.53.4 1.01.85 1.45 1.34.05.05.09.1.14.15.12.14.23.28.34.42.07.09.14.18.2.27.1.13.2.27.29.41.14.21.27.43.4.65.06.11.11.22.17.33.08.16.16.32.23.48.05.11.1.23.14.34.08.2.15.4.22.6a8 8 0 0 1 .3 1.1c.02.09.03.17.05.26.04.23.08.46.11.69l.03.28c.03.31.05.63.05.95 0 5.75-4.67 10.42-10.42 10.42S6.18 29.13 6.18 23.38c0-3.81 2.07-7.15 5.13-8.96l-1.85-4.14c-4.63 2.54-7.78 7.46-7.78 13.1 0 4.05 1.63 7.73 4.26 10.42H-.02v4.5h39.38l-4.02 4.02a2.25 2.25 0 0 0 1.59 3.84c.57 0 1.15-.22 1.59-.66l9.46-9.46-9.46-9.46Zm3.08 9.45v.01Z"/>
</svg>
