<svg viewBox="0 0 48 48" xmlns="http://www.w3.org/2000/svg">
  <path d="m48.01 35.79-8.94 8.94c-.22.22-.51.33-.8.33s-.58-.11-.8-.33c-.44-.44-.44-1.15 0-1.59l6.22-6.22H.01v-2.25h9.56c-3.96-2.53-6.59-6.95-6.59-11.99 0-5.88 3.58-10.93 8.68-13.1l1.28 1.92c-4.5 1.73-7.7 6.08-7.7 11.18 0 6.61 5.38 11.99 12 11.99s12-5.38 12-11.99c0-.4-.02-.8-.06-1.19-.01-.13-.04-.26-.06-.39-.03-.26-.07-.51-.12-.77-.03-.15-.07-.3-.11-.45-.05-.22-.11-.45-.17-.67-.05-.16-.1-.31-.16-.46-.07-.21-.14-.41-.22-.61-.06-.15-.13-.3-.2-.45l-.27-.57c-.08-.15-.16-.3-.25-.44-.1-.18-.21-.35-.32-.53-.09-.14-.19-.28-.29-.42-.12-.17-.24-.33-.36-.49-.11-.13-.22-.27-.33-.39-.13-.15-.27-.3-.41-.45l-.36-.36c-.15-.14-.3-.27-.45-.41l-.39-.33c-.16-.13-.32-.25-.49-.36-.14-.1-.28-.2-.42-.29a15 15 0 0 0-.96-.57c-.18-.1-.38-.18-.57-.27-.15-.07-.3-.14-.46-.21-.2-.08-.41-.15-.61-.22-.15-.05-.3-.11-.46-.16-.23-.07-.46-.12-.69-.18-.14-.03-.28-.08-.43-.11-.31-.06-.63-.11-.95-.15-.07 0-.14-.02-.2-.03-.4-.04-.81-.06-1.22-.06h-.48l5.06 7.62c.34.52.2 1.22-.32 1.56a1.1 1.1 0 0 1-.62.19c-.36 0-.72-.18-.94-.5L12.73 8.69 23.6 1.47a1.127 1.127 0 0 1 1.24 1.88l-7.69 5.1h.07c.73 0 1.44.07 2.14.18 3.35.51 6.31 2.18 8.47 4.59.06.07.13.14.19.21.19.22.37.45.55.68l.27.36c.15.21.29.43.43.65.1.16.2.31.29.47.12.21.23.42.34.63q.15.285.27.57c.09.2.18.4.26.61.09.22.16.43.24.66.07.2.14.39.19.59.07.25.13.5.19.75.04.18.09.37.13.55.06.29.1.59.14.88.02.16.05.31.06.46.04.46.07.92.07 1.39 0 5.03-2.63 9.46-6.59 11.99h18.82l-6.23-6.22c-.44-.44-.44-1.15 0-1.59s1.15-.44 1.59 0l8.94 8.94Z"/>
</svg>
