<svg viewBox="0 0 16 16" xmlns="http://www.w3.org/2000/svg">
  <path d="m7.66 8.34-1.63-4.4-1.63 4.4L0 9.97l4.4 1.63L6.03 16l1.63-4.4 4.4-1.63zm-.53 1.85-.65.24-.24.65-.22.6-.22-.6-.24-.65-.65-.24-.6-.22.6-.22.65-.24.24-.65.22-.6.22.6.24.65.65.24.6.22zM13.88 0H2.12C.95 0 0 .95 0 2.12v7.06l3.82-1.41 2.21-5.99 2.21 5.98 5.98 2.21-5.98 2.21-.02.06 2.62 3.75 2.73-3.9h.31c1.17 0 2.12-.95 2.12-2.12V2.12C16 .95 15.05 0 13.88 0m-1.51 5.35-.92 2.49-.92-2.49-2.49-.92 2.49-.92.92-2.49.92 2.49 2.49.92z"/>
</svg>
