<svg viewBox="0 0 48 48" xmlns="http://www.w3.org/2000/svg">
  <path d="M48 5.45v25.78c0 3-2.44 5.44-5.44 5.44h-2.01l-7.82 11.35-7.82-11.35h-1.3l.33-.89 2.7-1 6.08 8.83 6.5-9.44h3.33c1.62 0 2.94-1.32 2.94-2.94V5.45c0-1.62-1.32-2.94-2.94-2.94H5.44c-1.62 0-2.94 1.32-2.94 2.94v22.21l-2.5.93V5.45C0 2.45 2.44.02 5.44.02h37.12c3 0 5.44 2.44 5.44 5.44ZM7.89 34.17H5.44c-1.26 0-2.33-.8-2.75-1.92l-2.69-1a5.45 5.45 0 0 0 5.44 5.42h7.12l-.33-.89zm28.28-4.25-13.2 4.88L18.09 48l-4.88-13.2L0 29.92l13.2-4.88 4.88-13.2 4.88 13.2 13.2 4.88Zm-7.21 0-6.86-2.54-1.08-.4-.4-1.08-2.54-6.86-2.54 6.86-.4 1.08-1.08.4-6.86 2.54 6.86 2.54 1.08.4.4 1.08 2.54 6.86 2.54-6.86.4-1.08 1.08-.4zm6.95-13.57 6.41-2.37-6.41-2.37-2.37-6.41-2.37 6.41-6.41 2.37 6.41 2.37 2.37 6.41z"/>
</svg>
