<svg viewBox="0 0 40 40" xmlns="http://www.w3.org/2000/svg">
  <path d="m19.14 20.81-4.07-11-4.07 11-11 4.07 11 4.07 4.07 11 4.07-11 11-4.07zm-.78 6.03-.97.36-.36.97-1.96 5.3-1.96-5.3-.36-.97-.97-.36-5.3-1.96 5.3-1.96.97-.36.36-.97 1.96-5.3 1.96 5.3.36.97.97.36 5.3 1.96zm-8.24 2.98.28.76H4.62c-2.5.01-4.54-2-4.6-4.49l10.1 3.74ZM35.38-.04H4.63C2.08-.04 0 2.03 0 4.57v19.1l10.11-3.74 4.95-13.37 4.95 13.37 13.37 4.95-13.37 4.95-.28.76h.99l6.55 9.37 6.55-9.37h1.56c2.55 0 4.62-2.07 4.62-4.62V4.57a4.62 4.62 0 0 0-4.62-4.61m-4.45 12.6-1.98 5.35-1.98-5.35-5.34-1.98 5.34-1.98 1.98-5.35 1.98 5.35 5.34 1.98z"/>
</svg>
