<svg viewBox="0 0 24 24" xmlns="http://www.w3.org/2000/svg">
  <path d="m.15 15.94 5.7 2.11H2.98c-1.34 0-2.47-.89-2.83-2.11M17.77 5.62 16.65 2.6l-1.12 3.02-3.02 1.12 3.02 1.12 1.12 3.02 1.12-3.02 3.02-1.12zm-.16 9.51.47-.18-1.03-.38zm-7.49-1.25.75.28 1.28.47-2.79-2.79.47 1.28.28.75Zm-.69-6.93-.38-1.03-.18.47zm3.21 8.16-1.76.65-.75.28-.28.75-.8 2.16-.8-2.16-.28-.75-.75-.28-2.16-.8 2.16-.8.75-.28.28-.75.65-1.76-1.36-1.36-.93 2.51L0 14.96l6.6 2.44 2.44 6.59 2.44-6.59 2.51-.93-1.36-1.36Zm8.39-13.37c.67 0 1.22.55 1.22 1.22l-.02 12.1c0 .67-.55 1.22-1.22 1.22h-1.53l-.29.43 1.32 1.32h.51c1.64 0 2.97-1.33 2.97-2.96l.02-12.1A2.98 2.98 0 0 0 21.03 0L2.97.02c-.15 0-.29.02-.44.04l1.7 1.7 16.8-.03ZM1.76 13.38V4.23L.05 2.53c-.02.15-.05.3-.05.46v11.03l1.76-.65Zm14.61 7.49-2.36-3.48-1.71.63h.03l4.04 5.96 2.09-3.08-1.26-1.26-.83 1.22ZM.01 1.26l22.74 22.72 1.24-1.24L1.25.02z"/>
</svg>
