<svg viewBox="0 0 16 16" xmlns="http://www.w3.org/2000/svg">
  <path d="M16 2.12v7.86c0 1.17-.95 2.12-2.12 2.12h-.31L10.84 16l-2.62-3.75.02-.06 1.4-.52 1.2 1.72 1.95-2.78h1.09c.34 0 .62-.28.62-.62V2.12c0-.34-.28-.62-.62-.62H2.12c-.34 0-.62.28-.62.62v6.5L0 9.17V2.12C0 .95.95 0 2.12 0h11.76C15.05 0 16 .95 16 2.12m-3.94 7.85-4.4 1.63L6.03 16 4.4 11.6 0 9.97l4.4-1.63 1.63-4.4 1.63 4.4zm-4.33 0-.6-.22-.65-.24-.24-.65-.22-.6-.22.6-.24.65-.65.24-.6.22.6.22.65.24.24.65.22.6.22-.6.24-.65.65-.24zm2.97-1.38.92-2.49 2.49-.92-2.49-.92-.92-2.49-.92 2.49-2.49.92 2.49.92z"/>
</svg>
