<svg viewBox="0 0 64 64" xmlns="http://www.w3.org/2000/svg">
  <path d="m30.62 33.38-6.51-17.6-6.51 17.6L0 39.89l17.6 6.51L24.11 64l6.51-17.6 17.6-6.51zm-.95 10.44-1.19.44-.44 1.19-3.93 10.63-3.93-10.63-.44-1.19-1.19-.44-10.63-3.93 10.63-3.93 1.19-.44.44-1.19 3.93-10.63 3.93 10.63.44 1.19 1.19.44 10.63 3.93zm-13.14 3.65.56 1.51H7c-3.86 0-7-3.14-7-7v-.62l16.53 6.12ZM57 0H7C3.14 0 0 3.15 0 7.01v31.41l16.53-6.12 7.58-20.5 7.58 20.5 20.49 7.58-20.49 7.58-.56 1.51h2.25l10.34 15.02 10.34-15.02h2.93c3.8 0 7-3.3 7-7.21V7.01C64 3.15 60.86 0 57 0m-6.87 19.54-3.16 8.55-3.16-8.55-8.55-3.16 8.55-3.17 3.16-8.55 3.16 8.55 8.55 3.17z"/>
</svg>
