<svg viewBox="0 0 32 32" xmlns="http://www.w3.org/2000/svg">
  <path d="M28.21 0H3.8c-.3 0-.58.04-.86.11l7.98 7.98 1.14-3.08 2.48 6.71 5.75 5.75 6.7 2.48-3.08 1.14 3.35 3.35h.95c2.09 0 3.79-1.7 3.79-3.79V3.79C32 1.7 30.3 0 28.21 0m-4.27 10.89-1.58 4.28-1.58-4.28-4.28-1.58 4.28-1.58 1.58-4.28 1.58 4.28 4.28 1.58zM8.02 23.97l.17.45H3.8c-1.96 0-3.55-1.5-3.75-3.4l7.98 2.95Zm11.76-1.36 5.06 5.06-3.02 4.32-5.29-7.57h-.6l.17-.45 3.69-1.37ZM9.39 12.21 8.02 15.9 0 18.87V3.79c0-.29.04-.58.11-.85l9.27 9.27Zm14.72 7.73-.98.36-1.15-1.15zm-10.67-2.56-.65-1.77 3.6 3.6-1.77-.65-.86-.32zm-1.38-9.5.79 2.13-1.15-1.15zm6.95 13.95-3.69 1.37-3.26 8.8-3.26-8.8L0 19.94l8.8-3.26 1.37-3.69 1.56 1.56-1.05 2.83-.32.86-.86.32-3.73 1.38 3.73 1.38.86.32.32.86 1.38 3.73 1.38-3.73.32-.86.86-.32 2.83-1.05zM1.41 0l30.57 30.56-1.41 1.41L0 1.41z"/>
</svg>
