<svg viewBox="0 0 32 32" xmlns="http://www.w3.org/2000/svg">
  <path d="m15.31 16.69-3.26-8.8-3.26 8.8L0 19.94l8.8 3.26 3.26 8.8 3.26-8.8 8.8-3.26-8.8-3.26Zm-.69 4.63-.86.32-.32.86-1.38 3.73-1.38-3.73-.32-.86-.86-.32-3.73-1.38 3.73-1.38.86-.32.32-.86 1.38-3.73 1.38 3.73.32.86.86.32 3.73 1.38zm-6.6 2.66.17.45H3.8c-1.96 0-3.56-1.5-3.75-3.41l7.98 2.95ZM28.2 0H3.8C1.71 0 0 1.71 0 3.8v15.08l8.02-2.97L12.05 5l4.03 10.91 10.91 4.04-10.91 4.04-.17.45h.6l5.29 7.57 5.3-7.57h1.09c2.09 0 3.79-1.7 3.79-3.79V3.8C32 1.71 30.29 0 28.2 0m-3.51 10.14-1.58 4.28-1.58-4.28-4.28-1.58 4.28-1.58 1.58-4.28 1.58 4.28 4.28 1.58z"/>
</svg>
