<svg viewBox="0 0 24 24" xmlns="http://www.w3.org/2000/svg">
  <path d="m24 2.97-.02 12.12a2.97 2.97 0 0 1-2.97 2.97h-.61l-4.04 5.77-4.03-5.77h-.11L14 17.4l2.36 3.37 3.12-4.47h1.53c.67 0 1.22-.55 1.22-1.22l.02-12.12c0-.67-.55-1.22-1.22-1.22l-18.06.03c-.67 0-1.22.55-1.22 1.22v10.37L0 14.02V3.01A2.97 2.97 0 0 1 2.97.04L21.03 0A2.97 2.97 0 0 1 24 2.97M2.98 18.09h2.94L.13 15.94a2.964 2.964 0 0 0 2.84 2.15Zm15.1-3.13-6.6 2.44L9.04 24 6.6 17.4 0 14.96l6.6-2.44 2.44-6.6 2.44 6.6zm-5.04 0-2.16-.8-.75-.28-.28-.75-.8-2.16-.8 2.16-.28.75-.75.28-2.16.8 2.16.8.75.28.28.75.8 2.16.8-2.16.28-.75.75-.28zm4.72-7.11 3.02-1.12-3.02-1.12-1.12-3.02-1.12 3.02-3.02 1.12 3.02 1.12 1.12 3.02z"/>
</svg>
