<svg viewBox="0 0 40 40" xmlns="http://www.w3.org/2000/svg">
  <path d="m35.66 35.33-2.61-15.12v-6.82c0-4.63-3.41-8.5-7.93-9.43C24.66 1.73 22.54.04 20 .04s-4.59 1.64-5.1 3.81c-4.37.63-7.23 4.3-7.23 9.53v6.8L4.26 35.33h10c.53 2.68 2.89 4.71 5.73 4.71s5.2-2.03 5.73-4.71h9.93ZM20 2.29c1.17 0 2.19.6 2.67 1.46h-5.34c.48-.86 1.5-1.46 2.67-1.46M9.9 20.55l.03-7.17c0-4.49 2.49-7.39 6.35-7.39h6.76c4.28 0 7.76 3.31 7.76 7.39v6.92l2.19 12.78H7.08zM20 37.79c-1.59 0-2.93-1.03-3.41-2.46h6.81a3.59 3.59 0 0 1-3.41 2.46Z"/>
</svg>
