<svg viewBox="0 0 64 64" xmlns="http://www.w3.org/2000/svg">
  <path d="m56.83 56.36-4.14-24.05V21.2c0-7.39-5.51-13.56-12.78-14.91C39.33 2.73 36.01 0 32 0s-7.23 2.66-7.88 6.14c-7.03.87-11.63 6.69-11.63 15.06v11.08l-5.4 24.08h16.03c.67 4.32 4.39 7.64 8.89 7.64s8.23-3.32 8.89-7.64h15.94ZM32 2.75c2.35 0 4.35 1.37 5.02 3.26H26.98c.67-1.89 2.66-3.26 5.02-3.26M15.2 32.73l.03-11.53c0-7.56 4.21-12.44 10.73-12.44h10.95c7.18 0 13.02 5.58 13.02 12.44v11.23l3.63 21.18H10.51zM32 61.25c-2.98 0-5.48-2.09-6.11-4.89H38.1c-.63 2.79-3.13 4.89-6.11 4.89Z"/>
</svg>
