<svg viewBox="0 0 40 40" xmlns="http://www.w3.org/2000/svg">
  <path d="M7.67 13.32v6.8L4.26 35.29h9.35c.88 2.69 3.41 4.64 6.38 4.64s5.51-1.95 6.38-4.64h5.8L7.88 10.99c-.13.74-.21 1.51-.21 2.33m14.06 21.97a2.65 2.65 0 0 1-3.46 0h3.47Zm13.34-3.48L9.84 6.58c1.11-1.34 2.59-2.27 4.37-2.68C15 1.62 17.29-.05 20-.05s5.11 1.74 5.85 4.11c4.16 1.17 7.21 4.87 7.21 9.25v6.83l2.01 11.66Zm4.61 7.8c-.22.22-.51.33-.8.33s-.58-.11-.8-.33L.34 1.86C-.1 1.42-.1.71.34.27s1.15-.44 1.59 0l37.75 37.75c.44.44.44 1.15 0 1.59"/>
</svg>
