<svg viewBox="0 0 16 16" xmlns="http://www.w3.org/2000/svg">
  <path d="M4.34 2.21c.42-.34.92-.58 1.48-.69C6.12.65 6.98.01 8.01.01s1.93.66 2.21 1.57c1.78.45 3.1 2.01 3.1 3.86v2.59l.66 3.82-1.83-1.83-.33-1.93V5.44c0-1.39-1.19-2.51-2.65-2.51H6.58c-.49 0-.87.14-1.17.35zm7.72 11.96h-1.62c-.32 1.04-1.28 1.8-2.43 1.8s-2.11-.76-2.43-1.8H1.59l1.38-6.16V5.44c0-.12.02-.22.03-.34l1.47 1.47v1.69l-1 4.41h7.1l1.5 1.5Zm-3.31 0H7.27c.38.38 1.1.38 1.48 0m7.03.55L1.28.22C.99-.07.51-.07.22.22s-.29.77 0 1.06l14.5 14.5c.15.15.34.22.53.22s.38-.07.53-.22c.29-.29.29-.77 0-1.06"/>
</svg>
