<svg viewBox="0 0 40 40" xmlns="http://www.w3.org/2000/svg">
  <path d="M16.27 6h6.76c4.28 0 7.77 3.31 7.77 7.39v6.92l1.51 8.79 2.75 2.75-2.01-11.64v-6.82c0-4.62-3.41-8.5-7.93-9.42C24.66 1.74 22.54.05 20 .05s-4.59 1.64-5.1 3.81c-2.08.3-3.81 1.28-5.06 2.8l1.61 1.61C12.56 6.83 14.22 6 16.27 6M20 2.3c1.17 0 2.19.59 2.67 1.46h-5.35c.48-.86 1.5-1.46 2.67-1.46Zm9.93 30.77H7.08L9.9 20.54l.03-7.16v-.28l-2.05-2.05c-.13.73-.21 1.51-.21 2.32v6.79L4.26 35.3h10.01c.53 2.68 2.89 4.71 5.73 4.71s5.2-2.03 5.73-4.71h6.45l-2.25-2.25ZM20 37.78c-1.59 0-2.93-1.03-3.41-2.46h6.82A3.59 3.59 0 0 1 20 37.78m19.68 1.85c-.22.22-.51.33-.8.33s-.58-.11-.8-.33L.34 1.94a1.11 1.11 0 0 1 0-1.58c.44-.44 1.15-.44 1.59 0l37.75 37.69c.44.44.44 1.15 0 1.59Z"/>
</svg>
