<svg viewBox="0 0 48 48" xmlns="http://www.w3.org/2000/svg">
  <path d="M42.08 38.52 11.69 8.14a9.34 9.34 0 0 1 5.45-3.42C18.06 2 20.79.01 24 .01s6.06 2.08 6.91 4.9c5.01 1.37 8.7 5.8 8.7 11.06v8.23l2.47 14.31ZM9.54 13.06 38.8 42.32h-7.21c-.97 3.28-4.01 5.68-7.6 5.68s-6.63-2.4-7.6-5.68H5.19l4.08-18.14v-8.2c0-1.03.1-2 .27-2.92m11.88 29.26c.63.72 1.55 1.17 2.58 1.17s1.95-.46 2.58-1.17zm26.23 3.54L2.15.37C1.66-.12.87-.12.38.37s-.49 1.27 0 1.76l45.5 45.49c.24.24.56.37.88.37s.64-.12.88-.37c.49-.49.49-1.28 0-1.77Z"/>
</svg>
