<svg viewBox="0 0 64 64" xmlns="http://www.w3.org/2000/svg">
  <path d="M61.39 35.74V22.83c0-2.46-1.16-4.63-2.94-6.07V2.55a2.59 2.59 0 0 0-2.59-2.59h-5.99a2.59 2.59 0 0 0-2.59 2.59v14.21c-1.78 1.43-2.94 3.61-2.94 6.07v12.91H40.4V22.83c0-2.46-1.16-4.63-2.94-6.07V2.55a2.59 2.59 0 0 0-2.59-2.59h-5.99a2.59 2.59 0 0 0-2.59 2.59v14.21c-1.78 1.43-2.94 3.61-2.94 6.07v12.91h-3.94V22.83c0-2.46-1.16-4.63-2.94-6.07V2.55a2.616 2.616 0 0 0-2.61-2.6H7.87a2.59 2.59 0 0 0-2.59 2.59v14.21c-1.78 1.43-2.94 3.61-2.94 6.07v12.91H-.12v28.21h64V35.73h-2.49Zm-.25 2.75v17.63H2.62V38.49zM55.71 2.71v3.87h-5.7V2.71zm-6.72 16.2 1.03-.83V9.33h5.7v8.75l1.03.83c1.22.98 1.92 2.41 1.92 3.92v3.63H47.09v-3.63c0-1.51.7-2.94 1.92-3.92Zm-1.92 10.3h11.58v6.53H47.07zM34.71 2.71v3.87h-5.7V2.71zm-6.72 16.2 1.03-.83V9.33h5.7v8.75l1.03.83c1.22.98 1.92 2.41 1.92 3.92v3.63H26.09v-3.63c0-1.51.7-2.94 1.92-3.92Zm-1.91 10.3h11.58v6.53H26.08zM13.72 2.71v3.87h-5.7V2.71zm-6.73 16.2 1.03-.83V9.33h5.7v8.75l1.03.83c1.22.98 1.92 2.41 1.92 3.92v3.63H5.08v-3.63c0-1.51.7-2.94 1.92-3.92Zm-1.91 10.3h11.58v6.53H5.08zM2.62 61.2v-2.32h58.52v2.32z"/>
</svg>
