<svg viewBox="0 0 32 32" xmlns="http://www.w3.org/2000/svg">
  <path d="M29.98 17.84v-7.25c0-1.14-.54-2.14-1.36-2.81V.91c0-.5-.41-.91-.91-.91H23.6c-.5 0-.91.41-.91.91v6.87c-.82.66-1.36 1.67-1.36 2.81v7.25h-1.02v-7.25c0-1.14-.54-2.14-1.36-2.81V.91c0-.5-.41-.91-.91-.91h-4.11c-.5 0-.91.41-.91.91v6.87c-.82.66-1.36 1.67-1.36 2.81v7.25h-1.02v-7.25c0-1.14-.54-2.14-1.36-2.81V.91c0-.5-.41-.91-.91-.91H4.26c-.5 0-.91.41-.91.91v6.87c-.82.66-1.36 1.67-1.36 2.81v7.25H0V32h32V17.84zM26.62 2v.9H24.7V2zm-2.67 7.33.74-.6V4.9h1.92v3.83l.74.6c.23.19.62.59.62 1.25v1.32h-4.64v-1.32c0-.66.39-1.07.62-1.25m-.61 4.57h4.64v3.94h-4.64zM16.96 2v.9h-1.92V2zm-2.67 7.33.74-.6V4.9h1.92v3.83l.74.6c.23.19.62.59.62 1.25v1.32h-4.64v-1.32c0-.66.39-1.07.62-1.25m-.61 4.57h4.64v3.94h-4.64zM7.3 2v.9H5.38V2zM4.64 9.33l.74-.6V4.9H7.3v3.83l.74.6c.23.19.62.59.62 1.25v1.32H4.02v-1.32c0-.66.39-1.07.62-1.25m-.62 4.57h4.64v3.94H4.02zM30 19.84v6.32H2v-6.32zM2 30v-1.84h28V30z"/>
</svg>
