<svg viewBox="0 0 24 24" xmlns="http://www.w3.org/2000/svg">
  <path d="M15.24 12.5H8.76V7.93c0-.86.4-1.61 1.02-2.11V3.35h4.44v2.47c.08.06.14.14.21.21.3.3.53.66.66 1.07.09.26.15.53.15.83zM14.22 1.61V.68c0-.38-.3-.68-.68-.68h-3.08c-.09 0-.18.02-.26.05-.24.1-.42.34-.42.63v.93zm8.41 6.33c0-.86-.4-1.61-1.02-2.11V3.36h-4.44v2.47c-.62.5-1.02 1.25-1.02 2.11v4.57h6.48zM21.61.68c0-.38-.3-.68-.68-.68h-3.08c-.38 0-.68.3-.68.68v.93h4.44zM0 24h24v-2.51H0zm0-9.75v5.49h24v-5.49zm8.18-6.31c0-.85-.4-1.61-1.02-2.11V3.36H2.72v2.47c-.62.5-1.02 1.25-1.02 2.11v4.57h6.48zM7.16.68c0-.28-.17-.52-.42-.63A.8.8 0 0 0 6.48 0H3.4a.68.68 0 0 0-.68.68v.93h4.44z"/>
</svg>
