<svg viewBox="0 0 48 48" xmlns="http://www.w3.org/2000/svg">
  <path d="M32.43 17.32v-1.59c0-1.7.81-3.2 2.04-4.19v-6.2h8.88v6.2c.46.37.87.81 1.19 1.31.22.33.39.69.53 1.07.21.56.32 1.17.32 1.81v1.59zm0 2.49v5.75h12.96v-5.75zM43.35 2.84V1.72c0-.99-.81-1.79-1.8-1.79h-5.28c-.99 0-1.8.8-1.8 1.79v1.12zM17.58 25.56h12.96v-5.75H17.58zm-14.84 0H15.7v-5.75H2.74zM13.66 2.84v-.99c0-.99-.81-1.79-1.8-1.79H6.58c-.12 0-.25.01-.36.04-.47.1-.87.37-1.13.75-.06.1-.12.2-.17.3-.09.21-.14.45-.14.7v.99zM0 47.94h48v-4.22H0zm28.51-45.1v-.99c0-.12-.01-.24-.04-.36-.1-.47-.37-.87-.76-1.12-.1-.06-.2-.12-.31-.17-.22-.09-.45-.14-.7-.14h-5.28c-.12 0-.25.01-.36.04-.12.02-.23.06-.34.1-.22.09-.41.22-.57.38-.33.32-.53.77-.53 1.27v.99h8.88ZM0 41.23h48V28.06H0zm30.55-23.91v-1.46q0-.645-.15-1.23c-.05-.2-.11-.39-.17-.58-.34-.94-.95-1.76-1.72-2.38V5.34h-8.88v6.33c-.77.62-1.38 1.44-1.72 2.38-.07.19-.13.38-.17.58-.09.4-.15.81-.15 1.23v1.46zm-14.85 0v-1.46q0-.645-.15-1.23c-.05-.2-.11-.39-.17-.58-.34-.94-.95-1.76-1.72-2.38V5.34H4.78v6.33c-.77.62-1.38 1.44-1.72 2.38-.07.19-.13.38-.17.58-.09.4-.15.81-.15 1.23v1.46z"/>
</svg>
