<svg viewBox="0 0 40 40" xmlns="http://www.w3.org/2000/svg">
  <path d="M37.83 22.29v-9.15c0-1.42-.67-2.67-1.7-3.5v-8.2c0-.83-.67-1.5-1.5-1.5h-4.4c-.83 0-1.5.67-1.5 1.5v8.2c-1.03.83-1.7 2.08-1.7 3.5v9.15h-1.57v-9.04c0-1.42-.67-2.67-1.7-3.5v-8.2c0-.83-.67-1.5-1.5-1.5h-4.4c-.83 0-1.5.67-1.5 1.5v8.2c-1.03.83-1.7 2.08-1.7 3.5v9.04h-1.57v-9.04c0-1.42-.67-2.67-1.7-3.5v-8.2c0-.83-.67-1.5-1.5-1.5h-4.4c-.83 0-1.5.67-1.5 1.5v8.2c-1.03.83-1.7 2.08-1.7 3.5v9.04H0v17.66h40V22.29zm-3.95-20.1v1.36h-2.9V2.19zm-3.74 9.2.84-.67V5.8h2.9v4.92l.84.67c.55.44.86 1.08.86 1.75v1.87h-6.3v-1.87c0-.67.31-1.31.86-1.75m-.87 5.87h6.3v5.03h-6.3zM21.51 2.3v1.25h-2.9V2.3zm-3.74 9.19.84-.67V5.79h2.9v5.03l.84.67c.55.44.86 1.08.86 1.75v1.77h-6.3v-1.77c0-.67.31-1.31.86-1.75m-.87 5.77h6.3v5.03h-6.3zM9.14 2.3v1.25h-2.9V2.3zM5.4 11.49l.84-.67V5.79h2.9v5.03l.84.67c.55.44.86 1.08.86 1.75v1.77h-6.3v-1.77c0-.67.31-1.31.86-1.75m-.87 5.77h6.3v5.03h-6.3zm33.22 7.28v9H2.25v-9zM2.25 37.7v-1.93h35.5v1.93z"/>
</svg>
