<svg viewBox="0 0 64 64" xmlns="http://www.w3.org/2000/svg">
  <path d="M47.33 4.11V2.58c0-.89.46-1.68 1.15-2.15.42-.28.92-.44 1.46-.44h6.01a2.594 2.594 0 0 1 2.61 2.59v1.53H47.34Zm-9.85 0V2.58c0-.89-.46-1.68-1.15-2.15-.42-.28-.92-.44-1.46-.44h-6.01a2.594 2.594 0 0 0-2.61 2.59v1.53h11.22ZM61.5 26.46v-3.62c0-.62-.07-1.21-.21-1.78-.07-.29-.15-.57-.25-.84-.16-.43-.36-.83-.59-1.22-.1-.17-.21-.34-.32-.51-.44-.64-.97-1.22-1.58-1.71V6.86H47.33v9.92c-1.12.9-1.99 2.08-2.49 3.44-.3.82-.46 1.7-.46 2.62v3.62zm-17.12 2.75v5.23H61.5v-5.23zM23.3 34.45h17.12v-5.23H23.3zm-21.08 0h17.12v-5.23H2.22zM0 64h64v-5.16H0zm0-7.91h64V37.2H0zm19.35-29.63v-3.62c0-.92-.16-1.8-.46-2.62a7.93 7.93 0 0 0-2.49-3.44V6.86H5.18v9.92a7.8 7.8 0 0 0-2.74 4.28c-.14.57-.21 1.17-.21 1.78v3.62zm21.08 0v-3.62c0-.31-.02-.61-.05-.91a7.5 7.5 0 0 0-.94-2.83c-.5-.89-1.17-1.69-1.96-2.33V6.86H26.26v9.92c-1.12.9-1.99 2.08-2.49 3.44-.3.82-.46 1.7-.46 2.62v3.62zM16.4 4.11V2.58c0-.89-.46-1.68-1.15-2.15A2.7 2.7 0 0 0 13.79 0H7.78a2.594 2.594 0 0 0-2.61 2.59v1.53h11.22Z"/>
</svg>
