<svg viewBox="0 0 48 48" xmlns="http://www.w3.org/2000/svg">
  <path d="M45.39 26.69V15.71c0-1.71-.81-3.21-2.04-4.2V1.67c0-.99-.81-1.8-1.8-1.8h-5.28c-.99 0-1.8.8-1.8 1.8v9.84c-1.23.99-2.04 2.5-2.04 4.2v10.98h-1.88V15.84c0-1.71-.81-3.21-2.04-4.2V1.8c0-.99-.81-1.8-1.8-1.8h-5.28c-.99 0-1.8.8-1.8 1.8v9.84c-1.23.99-2.04 2.5-2.04 4.2v10.85h-1.88V15.84c0-1.71-.81-3.21-2.04-4.2V1.8c0-.99-.81-1.8-1.8-1.8H6.59c-.99 0-1.8.8-1.8 1.8v9.84c-1.23.99-2.04 2.5-2.04 4.2V26.7H0v21.19h48V26.7h-2.61ZM40.85 2.37v1.92h-3.88V2.37zm-4.82 11.08.93-.75V6.79h3.88v5.91l.93.75c.7.57 1.11 1.39 1.11 2.25v2.34h-7.96V15.7c0-.87.4-1.69 1.11-2.25m-1.1 7.1h7.96v6.14h-7.96zM26.01 2.5v1.79h-3.88V2.5zm-4.82 11.08.93-.75V6.79H26v6.04l.93.75c.7.57 1.11 1.39 1.11 2.25v2.22h-7.96v-2.22c0-.87.4-1.69 1.11-2.25m-1.11 6.97h7.96v6.14h-7.96zM11.16 2.5v1.79H7.28V2.5zM5.24 15.83c0-.87.4-1.69 1.11-2.25l.93-.75V6.79h3.88v6.04l.93.75c.7.57 1.11 1.39 1.11 2.25v2.22H5.24zm0 4.72h7.96v6.14H5.24zm40.26 8.64v11.09h-43V29.19zm-43 16.18v-2.6h43v2.6z"/>
</svg>
