<svg viewBox="0 0 64 64" xmlns="http://www.w3.org/2000/svg">
  <path d="M63.14 49.05 36.78 6.69c-1.1-1.77-2.94-2.65-4.78-2.65s-3.68.88-4.78 2.65L.86 49.05c-2.33 3.75.36 8.6 4.78 8.6h52.73c4.42 0 7.11-4.85 4.78-8.6Zm-2.27 4.37c-.25.44-.99 1.48-2.51 1.48H5.64c-1.53 0-2.26-1.03-2.51-1.48s-.73-1.62.07-2.91L29.56 8.15C30.1 7.29 30.98 6.8 32 6.8s1.9.49 2.44 1.35L60.8 50.51c.81 1.29.32 2.47.07 2.91M30.18 39.26l-1.06-8.27v-6.28h5.77v6.28l-1.06 8.27h-3.66Zm5.16 4.77c0 1.7-1.31 3.11-3.33 3.11s-3.34-1.41-3.34-3.11 1.31-3.08 3.34-3.08 3.33 1.44 3.33 3.08"/>
</svg>
