<svg viewBox="0 0 40 40" xmlns="http://www.w3.org/2000/svg">
  <path d="M33.9 11.55c-.44-.44-1.16-.44-1.6 0s-.44 1.15 0 1.59l3.38 3.35H21.3V4.31l3.37 3.35c.22.22.51.33.8.33s.58-.11.8-.33c.44-.44.44-1.15 0-1.59L20.16.01l-6.11 6.07c-.44.44-.44 1.15 0 1.59s1.16.44 1.6 0l3.37-3.35V16.5H4.33l3.38-3.35c.44-.44.44-1.15 0-1.59s-1.16-.44-1.6 0L0 17.62l6.1 6.07c.22.22.51.33.8.33s.58-.11.8-.33c.44-.44.44-1.15 0-1.59l-3.38-3.35h14.7v8.89c-2.93.53-5.15 3.07-5.15 6.14 0 3.45 2.81 6.24 6.28 6.24s6.28-2.8 6.28-6.24c0-3.06-2.22-5.61-5.15-6.14v-8.89h14.38l-3.38 3.35a1.123 1.123 0 0 0 .8 1.92c.29 0 .58-.11.8-.33l6.1-6.07-6.1-6.07Zm-9.71 22.22c0 2.2-1.8 4-4.02 4s-4.02-1.79-4.02-4 1.8-4 4.02-4 4.02 1.79 4.02 4"/>
</svg>
