<svg viewBox="0 0 16 16" xmlns="http://www.w3.org/2000/svg">
  <path d="M13.48 4.56c-.29-.29-.77-.29-1.06 0s-.29.77 0 1.06l.72.72H8.82V2.87l.72.72c.15.15.34.22.53.22s.38-.07.53-.22c.29-.29.29-.77 0-1.06L8.07 0 5.54 2.53c-.29.29-.29.77 0 1.06s.77.29 1.06 0l.72-.72v3.47H2.88l.72-.72c.29-.29.29-.77 0-1.06s-.77-.29-1.06 0L0 7.09l2.53 2.53c.15.15.34.22.53.22s.38-.07.53-.22c.29-.29.29-.77 0-1.06l-.72-.72h4.44v2.26a2.992 2.992 0 0 0 .75 5.89 2.996 2.996 0 0 0 .75-5.9V7.83h4.32l-.72.72c-.29.29-.29.77 0 1.06.15.15.34.22.53.22s.38-.07.53-.22L16 7.08l-2.53-2.53Zm-3.91 8.43c0 .83-.67 1.5-1.5 1.5s-1.5-.67-1.5-1.5.67-1.5 1.5-1.5 1.5.67 1.5 1.5"/>
</svg>
