<svg viewBox="0 0 64 64" xmlns="http://www.w3.org/2000/svg">
  <path d="M54.36 18.32c-.53-.54-1.4-.54-1.94 0-.53.54-.53 1.41 0 1.95l6.34 6.37H33.6V5.25l6.33 6.37c.27.27.62.4.97.4s.7-.13.97-.4c.53-.54.53-1.41 0-1.95L32.24-.01 22.6 9.68c-.53.54-.53 1.41 0 1.95s1.4.54 1.94 0l6.33-6.37v21.37H5.24l6.33-6.37c.53-.54.53-1.41 0-1.95s-1.4-.54-1.94 0L0 28l9.64 9.69c.27.27.62.4.97.4s.7-.13.97-.4c.53-.54.53-1.41 0-1.95l-6.33-6.37h25.63v14.72c-4.83.68-8.56 4.84-8.56 9.89 0 5.52 4.45 10 9.95 10s9.95-4.48 9.95-10a9.99 9.99 0 0 0-8.6-9.9V29.36h25.16l-6.34 6.37c-.53.54-.53 1.41 0 1.95.27.27.62.4.97.4s.7-.13.97-.4l9.64-9.69-9.64-9.69ZM39.47 53.99c0 4-3.24 7.25-7.21 7.25s-7.21-3.25-7.21-7.25 3.24-7.25 7.21-7.25 7.21 3.25 7.21 7.25"/>
</svg>
