<svg viewBox="0 0 24 24" xmlns="http://www.w3.org/2000/svg">
  <path d="M20.29 6.87a.88.88 0 0 0-1.24 0c-.34.34-.34.9 0 1.24l1.61 1.6h-7.67V3.37l1.6 1.6c.17.17.4.26.62.26s.45-.08.62-.26c.34-.34.34-.9 0-1.24L12.1.02 8.38 3.73c-.34.34-.34.9 0 1.24s.9.34 1.24 0l1.6-1.6v6.35H3.37l1.61-1.6c.34-.34.34-.9 0-1.24a.88.88 0 0 0-1.24 0L0 10.59l3.72 3.72c.17.17.4.26.62.26s.45-.08.62-.26c.34-.34.34-.9 0-1.24l-1.61-1.6h7.86v4.68a3.99 3.99 0 0 0-3.05 3.87c0 2.21 1.8 4 4.01 4s4.01-1.79 4.01-4a4 4 0 0 0-3.22-3.92v-4.63h7.67l-1.61 1.6a.881.881 0 0 0 .62 1.5c.22 0 .45-.09.62-.26l3.72-3.71-3.72-3.71Zm-5.85 13.15c0 1.24-1.01 2.25-2.26 2.25s-2.26-1.01-2.26-2.25 1.01-2.25 2.26-2.25 2.26 1.01 2.26 2.25"/>
</svg>
