<svg viewBox="0 0 40 40" xmlns="http://www.w3.org/2000/svg">
  <path d="M33.31 10.93c-.78-.78-2.04-.78-2.83 0s-.78 2.04 0 2.82l1.86 1.86H22.02V7.65l1.86 1.86c.39.39.9.59 1.41.59s1.02-.2 1.41-.59c.78-.78.78-2.04 0-2.82L20.03 0l-6.69 6.68c-.78.78-.78 2.04 0 2.82s2.04.78 2.83 0l1.86-1.86v7.96H7.65l1.86-1.86c.78-.78.78-2.04 0-2.82s-2.04-.78-2.83 0L0 17.61l6.69 6.68c.39.39.9.59 1.41.59s1.02-.2 1.41-.59c.78-.78.78-2.04 0-2.82l-1.86-1.86h10.39v8.24a6.23 6.23 0 0 0-4.24 5.91c0 3.45 2.8 6.24 6.24 6.24s6.24-2.8 6.24-6.24c0-2.75-1.78-5.08-4.25-5.91v-8.24h10.32l-1.86 1.86c-.78.78-.78 2.05 0 2.82.39.39.9.59 1.41.59s1.02-.2 1.41-.59L40 17.61zM20.03 36.01c-1.24 0-2.25-1.01-2.25-2.25s1.01-2.25 2.25-2.25 2.25 1.01 2.25 2.25-1.01 2.25-2.25 2.25"/>
</svg>
