<svg viewBox="0 0 16 16" xmlns="http://www.w3.org/2000/svg">
  <path d="M13.34 4.45a1.25 1.25 0 0 0-2.03 1.38h-2.1V4.65a1.21 1.21 0 0 0 1.38-.26c.49-.49.49-1.28 0-1.77L7.96 0 5.32 2.64A1.25 1.25 0 0 0 6.7 4.67v1.18H4.62c.2-.46.12-1.01-.26-1.38a1.25 1.25 0 0 0-1.77 0L-.03 7.09l2.64 2.64c.24.24.56.37.88.37s.64-.12.88-.37c.38-.38.46-.93.26-1.38h2.08v1.97c-.99.49-1.68 1.5-1.68 2.68 0 1.66 1.34 3 3 3s3-1.34 3-3c0-1.24-.75-2.3-1.82-2.76v-1.9h2.1c-.2.46-.12 1.01.26 1.38.24.24.56.37.88.37s.64-.12.88-.37l2.64-2.64-2.64-2.64Zm-5.31 9.04c-.28 0-.5-.22-.5-.5s.22-.5.5-.5.5.22.5.5-.22.5-.5.5"/>
</svg>
