<svg viewBox="0 0 32 32" xmlns="http://www.w3.org/2000/svg">
  <path d="M27.08 9.22c-.39-.39-1.03-.39-1.42 0s-.39 1.02 0 1.41l2.48 2.47H17.13V3.84l2.48 2.47c.2.2.45.29.71.29s.52-.1.71-.29a.996.996 0 0 0 0-1.41L16.12.01l-4.91 4.88c-.39.39-.39 1.02 0 1.41s1.03.39 1.42 0l2.48-2.47v9.27H3.85l2.48-2.47c.39-.39.39-1.02 0-1.41s-1.03-.39-1.42 0L0 14.11l4.91 4.88c.2.2.45.29.71.29s.52-.1.71-.29a.996.996 0 0 0 0-1.41l-2.48-2.47h11.27v7.01c-2.3.46-4.02 2.48-4.02 4.9 0 2.76 2.25 5 5.03 5s5.03-2.24 5.03-5c0-2.42-1.73-4.44-4.03-4.9v-7.01h11.01l-2.48 2.47a.996.996 0 0 0 .71 1.7c.26 0 .52-.1.71-.29l4.91-4.88-4.91-4.88Zm-7.93 17.79c0 1.65-1.35 3-3.02 3s-3.02-1.35-3.02-3 1.35-3 3.02-3 3.02 1.35 3.02 3"/>
</svg>
