<svg viewBox="0 0 48 48" xmlns="http://www.w3.org/2000/svg">
  <path d="M40.71 13.76c-.49-.49-1.27-.49-1.76 0s-.49 1.28 0 1.77l4.29 4.32H25.43V4.8l4.29 4.31c.24.24.56.37.88.37s.64-.12.88-.37c.49-.49.49-1.28 0-1.77L24.19.02 16.9 7.35c-.49.49-.49 1.28 0 1.77s1.27.49 1.76 0l4.29-4.31v15.04H4.76l4.29-4.32c.49-.49.49-1.28 0-1.77s-1.27-.49-1.76 0L0 21.09l7.29 7.33c.24.24.56.37.88.37s.64-.12.88-.37c.49-.49.49-1.28 0-1.77l-4.29-4.31h18.19v10.81c-3.53.6-6.22 3.67-6.22 7.38 0 4.14 3.34 7.49 7.46 7.49s7.46-3.36 7.46-7.49c0-3.71-2.69-6.79-6.21-7.38V22.34h17.81l-4.29 4.31a1.25 1.25 0 0 0 0 1.77c.24.24.56.37.88.37s.64-.12.88-.37l7.29-7.33-7.29-7.33ZM29.16 40.53c0 2.75-2.23 5-4.97 5s-4.97-2.24-4.97-5 2.23-5 4.97-5 4.97 2.24 4.97 5"/>
</svg>
