<svg viewBox="0 0 24 24" xmlns="http://www.w3.org/2000/svg">
  <path d="M19.86 6.42c-.58-.59-1.53-.59-2.12 0s-.58 1.54 0 2.12l.53.53h-4.75V5.75l.53.53c.29.29.67.44 1.06.44s.77-.15 1.06-.44c.58-.59.58-1.54 0-2.12L12.02.02 7.88 4.18c-.58.59-.58 1.54 0 2.12s1.53.59 2.12 0l.53-.53v3.32h-4.8l.53-.53c.58-.59.58-1.54 0-2.12s-1.53-.59-2.12 0L0 10.58l4.14 4.16c.29.29.67.44 1.06.44s.77-.15 1.06-.44c.58-.59.58-1.54 0-2.12l-.53-.53h4.8v4.26a4 4 0 0 0-2.41 3.67c0 2.21 1.79 4 3.99 4s3.99-1.79 3.99-4c0-1.71-1.07-3.16-2.58-3.73v-4.2h4.75l-.53.53c-.58.59-.58 1.54 0 2.12.29.29.67.44 1.06.44s.77-.15 1.06-.44L24 10.58zm-7.75 14.6c-.55 0-1-.45-1-1s.45-1 1-1 1 .45 1 1-.45 1-1 1"/>
</svg>
