<svg viewBox="0 0 48 48" xmlns="http://www.w3.org/2000/svg">
  <path fill="#1e1e1c" d="M15.55 40.01c.63.84 1.01 1.86 1.01 2.99 0 2.76-2.24 5-5 5s-5-2.24-5-5c0-1.13.39-2.15 1.01-2.99.01-.02.03-.03.04-.05.17-.22.35-.43.55-.62.04-.04.1-.08.14-.12.18-.16.36-.31.56-.44.1-.06.2-.11.3-.16.17-.09.33-.19.51-.26.16-.07.34-.11.51-.16.13-.04.26-.09.39-.12.32-.06.64-.1.98-.1s.66.04.98.1c.14.03.26.08.39.12.17.05.35.09.51.16.18.07.34.17.51.26.1.06.21.1.3.16.2.13.38.28.56.44.05.04.1.07.14.12.2.19.38.4.55.62.01.02.03.03.04.05Zm22.96-.05c-.17-.22-.35-.43-.55-.62-.04-.04-.1-.08-.14-.12a5 5 0 0 0-.56-.44c-.1-.06-.2-.11-.3-.16-.17-.09-.33-.19-.51-.26-.16-.07-.34-.11-.51-.16-.13-.04-.26-.09-.39-.12-.32-.06-.64-.1-.98-.1s-.66.04-.98.1c-.14.03-.26.08-.39.12-.17.05-.35.09-.51.16-.18.07-.34.17-.51.26-.1.06-.21.1-.3.16-.2.13-.38.28-.56.44-.05.04-.1.07-.14.12-.2.19-.38.4-.55.62-.01.02-.03.03-.04.05-.63.84-1.01 1.86-1.01 2.99 0 2.76 2.24 5 5 5s5-2.24 5-5c0-1.13-.39-2.15-1.01-2.99-.01-.02-.03-.03-.04-.05ZM48 26.19v10.42c0 2.4-1.43 4.48-3.49 5.42-.49-5.06-4.77-9.03-9.95-9.03s-9.76 4.26-9.98 9.58h-3.03c-.23-5.32-4.61-9.58-9.98-9.58s-9.76 4.25-9.99 9.57H0v-30.2h18.43l1.13-6.04a3.29 3.29 0 0 1 3.24-2.69h3.42a3.3 3.3 0 0 1 3.24 2.69l1.13 6.04h5.96l11.46 13.82ZM22.09 11.87h4.85l-.89-4.73h-3.07zm-4.39 9.97h-3.82v-3.82h-3.5v3.82H6.56v3.5h3.82v3.82h3.5v-3.82h3.82zm26.4 4.95-9.64-11.67H33.3v11.45c0 .87.7 1.57 1.57 1.57h9.22v-1.35Z"/>
</svg>
