<svg viewBox="0 0 40 40" xmlns="http://www.w3.org/2000/svg">
  <path fill="#1e1e1c" d="M12.99 32.98c.49.72.77 1.58.77 2.52a4.5 4.5 0 1 1-8.23-2.52c.32-.48.74-.89 1.22-1.22.72-.49 1.58-.77 2.52-.77s1.8.28 2.52.77c.48.32.89.74 1.22 1.22Zm27-11.16v8.67c0 1.83-.99 3.42-2.46 4.3-.36-4.08-3.79-7.29-7.96-7.29-4.41 0-8 3.59-8 8v.03h-4.32v-.03c0-4.41-3.59-8-8-8s-8 3.59-8 8v.03H0V10.3h15.34l.93-4.94c.25-1.31 1.4-2.27 2.73-2.27h2.83c1.34 0 2.49.95 2.73 2.27l.93 4.94h4.95zM18.46 9.92h3.91l-.72-3.83h-2.47zm-3.52 8.12h-3.12v-3.12h-3v3.12H5.7v3h3.12v3.12h3v-3.12h3.12zm21.82 4.21-8-9.69h-.96v9.5c0 .72.58 1.3 1.3 1.3h7.65v-1.12Zm-4.67 9.52c-.72-.49-1.58-.77-2.52-.77s-1.8.28-2.52.77c-.48.32-.89.74-1.22 1.22-.49.72-.77 1.58-.77 2.52a4.5 4.5 0 1 0 8.23-2.52c-.32-.48-.74-.89-1.22-1.22Z"/>
</svg>
