<svg viewBox="0 0 16 16" xmlns="http://www.w3.org/2000/svg">
  <path fill="#1e1e1c" d="m12.37 4.19-.21-.25h-1.67l-.36-1.91C10.02 1.41 9.47.96 8.84.96H7.6c-.63 0-1.17.45-1.29 1.07l-.36 1.91H0v10.33h1.97c.24.99 1.12 1.73 2.18 1.73s1.95-.74 2.18-1.73h2.96c.24.99 1.12 1.73 2.18 1.73s1.95-.74 2.18-1.73h.08c1.24 0 2.25-1.01 2.25-2.25V8.57l-3.63-4.38Zm1.27 3.9h-1.45V6.33zM7.77 2.46h.92l.28 1.48H7.5l.28-1.48ZM1.5 5.44h5.99v7.32H6.17c-.37-.75-1.13-1.27-2.02-1.27s-1.65.52-2.02 1.27h-.64V5.44Zm2.66 9.05c-.41 0-.75-.34-.75-.75s.34-.75.75-.75.75.34.75.75-.34.75-.75.75m7.32 0c-.41 0-.75-.34-.75-.75s.34-.75.75-.75.75.34.75.75-.34.75-.75.75m2.27-1.73h-.25c-.37-.75-1.13-1.27-2.02-1.27s-1.65.52-2.02 1.27h-.47V5.44h1.69v2.9c0 .69.56 1.25 1.25 1.25h2.56v2.42c0 .41-.34.75-.75.75ZM3.68 9.47H2.66v-1.5h1.02V6.95h1.5v1.02H6.2v1.5H5.18v1.02h-1.5z"/>
</svg>
