<svg viewBox="0 0 32 32" xmlns="http://www.w3.org/2000/svg">
  <path fill="#1e1e1c" d="m24.79 8.69-.44-.53h-4.2l-.71-3.78a2.024 2.024 0 0 0-1.98-1.65h-2.25c-.97 0-1.8.69-1.98 1.65l-.71 3.78H0v20.26h4C4.26 30.43 5.97 32 8.05 32s3.79-1.56 4.05-3.58h7.05c.26 2.01 1.97 3.58 4.05 3.58s3.79-1.56 4.05-3.58h.64c2.26 0 4.11-1.84 4.11-4.11v-6.93zm4.05 8.05-4.72-.03v-5.69zM15.21 4.73h2.27l.64 3.43h-3.56zM2 10.16h13.51v16.26h-3.64c-.59-1.54-2.08-2.63-3.82-2.63s-3.23 1.1-3.82 2.63H2zM8.05 30c-1.16 0-2.11-.95-2.11-2.11s.95-2.11 2.11-2.11 2.11.95 2.11 2.11S9.21 30 8.05 30m15.15 0c-1.16 0-2.11-.95-2.11-2.11s.95-2.11 2.11-2.11 2.11.95 2.11 2.11S24.37 30 23.2 30m4.69-3.58h-.87c-.59-1.54-2.08-2.63-3.82-2.63s-3.23 1.1-3.82 2.63h-1.87V10.16h4.61v6.55c0 1.12.91 2.04 2.04 2.04H30v5.57c0 1.16-.94 2.11-2.11 2.11ZM7.36 18.75H4.94v-2.5h2.42v-2.42h2.5v2.42h2.42v2.5H9.86v2.42h-2.5z"/>
</svg>
