<svg viewBox="0 0 48 48" xmlns="http://www.w3.org/2000/svg">
  <path fill="#1e1e1c" d="m36.97 12.9-.42-.51h-6.47l-1.12-5.95a2.8 2.8 0 0 0-2.75-2.28h-3.42c-1.34 0-2.5.96-2.75 2.28l-1.12 5.95H0v30.2h6.01c.27 3.04 2.83 5.43 5.94 5.43s5.66-2.39 5.93-5.43H29c.27 3.04 2.83 5.43 5.93 5.43s5.66-2.39 5.94-5.43h1.18c3.29 0 5.96-2.67 5.96-5.96V26.21L36.98 12.9Zm7.08 12.51h-7.68c-.18 0-.32-.14-.32-.32v-9.37zM22.51 6.9c.03-.14.15-.24.29-.24h3.42c.14 0 .26.1.29.24l1.03 5.49h-6.05l1.03-5.49ZM11.94 45.51a3.461 3.461 0 0 1 0-6.92 3.461 3.461 0 0 1 0 6.92m0-9.42c-2.6 0-4.81 1.67-5.62 4H2.5v-25.2h21.02v25.19h-5.96c-.81-2.32-3.02-4-5.62-4Zm22.99 9.42a3.461 3.461 0 0 1 0-6.92 3.461 3.461 0 0 1 0 6.92m7.11-5.42h-1.49c-.81-2.32-3.02-4-5.62-4s-4.81 1.67-5.62 4h-3.28v-25.2h7.53v10.2c0 1.56 1.27 2.82 2.82 2.82h9.13v8.72c0 1.91-1.55 3.46-3.46 3.46ZM14.55 28.04v3.82h-3.5v-3.82H7.23v-3.5h3.82v-3.82h3.5v3.82h3.82v3.5z"/>
</svg>
