<svg viewBox="0 0 24 24" xmlns="http://www.w3.org/2000/svg">
  <path fill="#1e1e1c" d="M8.77 21.01c0 .11-.02.22-.03.33-.16 1.5-1.42 2.68-2.97 2.68s-2.8-1.17-2.97-2.68c-.01-.11-.03-.21-.03-.33 0-.83.34-1.58.88-2.12.14-.14.28-.26.44-.37a3.03 3.03 0 0 1 3.36 0c.16.11.31.23.44.37.54.54.88 1.29.88 2.12m15.22-8.04v5.19c0 1.33-.83 2.47-1.99 2.95v-.09c0-2.76-2.25-5-5-5s-5 2.25-5 5c0 .11.03.22.03.33h-1.29c0-.11.03-.21.03-.33 0-2.76-2.25-5-5-5s-5 2.23-5 4.99c0 .11.03.22.03.33h-.81V6.04h9.3l.51-2.69c.15-.77.82-1.33 1.6-1.33h1.67c.78 0 1.46.56 1.6 1.33l.51 2.7h3.07l5.74 6.93ZM11.08 6.04h2.32l-.43-2.27H11.5l-.43 2.27Zm-1.85 4.34H7.38V8.53H5.63v1.85H3.78v1.75h1.85v1.85h1.75v-1.85h1.85zm12.39 2.9-4.71-5.71h-.57v5.6c0 .42.34.77.77.77h4.51zm-2.5 5.61c-.14-.14-.28-.26-.44-.37a3.03 3.03 0 0 0-3.36 0c-.16.11-.31.23-.44.37-.54.54-.88 1.29-.88 2.12 0 .11.02.22.03.33.16 1.5 1.42 2.68 2.97 2.68s2.8-1.17 2.97-2.68c.01-.11.03-.21.03-.33 0-.83-.34-1.58-.88-2.12"/>
</svg>
