<svg viewBox="0 0 24 24" xmlns="http://www.w3.org/2000/svg">
  <path fill="#1e1e1c" d="m18.48 6.34-.23-.27h-3.07l-.51-2.7c-.14-.77-.82-1.33-1.6-1.33H11.4c-.78 0-1.46.56-1.6 1.33l-.51 2.69H0v15.29h2.98C3.23 22.85 4.53 24 6.11 24s2.87-1.15 3.13-2.65h4.99c.25 1.5 1.55 2.65 3.13 2.65s2.87-1.15 3.13-2.65h.35c1.75 0 3.18-1.43 3.18-3.18v-5.19L18.5 6.33Zm2.76 6.09h-3.09V8.69zm-9.73-8.64h1.47l.43 2.27h-2.32l.43-2.27ZM1.75 7.82h9.75v11.79H9.04c-.48-1.15-1.61-1.95-2.93-1.95s-2.45.81-2.93 1.95H1.76V7.82ZM6.1 22.26a1.43 1.43 0 1 1 0-2.86 1.43 1.43 0 0 1 0 2.86m11.24 0a1.43 1.43 0 1 1 0-2.86 1.43 1.43 0 0 1 0 2.86m3.48-2.65h-.55c-.48-1.15-1.61-1.95-2.93-1.95s-2.45.81-2.93 1.95h-1.16V7.82h3.15v4.72c0 .91.74 1.64 1.64 1.64h4.2v4c0 .79-.64 1.43-1.43 1.43ZM5.65 14H3.8v-1.75h1.85V10.4H7.4v1.85h1.85V14H7.4v1.85H5.65z"/>
</svg>
