<svg viewBox="0 0 64 64" xmlns="http://www.w3.org/2000/svg">
  <path fill="#1e1e1c" d="m48.96 16.92-.22-.26h-8.82l-1.55-8.27a3.46 3.46 0 0 0-3.39-2.82h-4.6c-1.66 0-3.09 1.18-3.39 2.82l-1.55 8.26H0v40.03h8.07c.22 4.06 3.58 7.3 7.7 7.3s7.48-3.24 7.7-7.3h15.55c.22 4.06 3.58 7.3 7.7 7.3s7.48-3.24 7.7-7.3h1.88c4.26 0 7.72-3.46 7.72-7.72V35.05L48.98 16.91Zm10.68 17.26H48.65c-.41 0-.74-.33-.74-.74V19.97zM29.69 8.9c.06-.33.35-.57.69-.57h4.6c.34 0 .63.24.69.57l1.45 7.76h-8.89l1.45-7.76ZM15.77 61.24c-2.74 0-4.97-2.23-4.97-4.97s2.23-4.97 4.97-4.97 4.97 2.23 4.97 4.97-2.23 4.97-4.97 4.97m0-12.68c-3.44 0-6.36 2.26-7.35 5.38H2.75V19.41h28.91v34.53h-8.54c-.99-3.12-3.91-5.38-7.35-5.38m30.94 12.68c-2.74 0-4.97-2.23-4.97-4.97s2.23-4.97 4.97-4.97 4.97 2.23 4.97 4.97-2.23 4.97-4.97 4.97m9.57-7.3h-2.22c-.99-3.12-3.91-5.38-7.35-5.38s-6.36 2.26-7.35 5.38h-4.94V19.41h10.75v14.04a3.5 3.5 0 0 0 3.49 3.49h12.6v12.04c0 2.74-2.23 4.97-4.97 4.97ZM19.17 37.31v5.24h-4.5v-5.24H9.43v-4.5h5.24v-5.24h4.5v5.24h5.24v4.5z"/>
</svg>
