<svg viewBox="0 0 32 32" xmlns="http://www.w3.org/2000/svg">
  <path d="M29 4.66H17.08L12.6.3c-.19-.18-.44-.28-.7-.28H3c-1.66 0-3 1.34-3 3v28.99h32V7.66c0-1.66-1.34-3.01-3-3.01Zm1 25.36H2v-27c0-.56.45-1.01 1-1.01h8.5l4.18 4.07.58.57H29c.55 0 1 .45 1 1.01zm-13.81-11.2c2.48 0 4.5-2.02 4.5-4.5s-2.02-4.5-4.5-4.5-4.5 2.02-4.5 4.5 2.02 4.5 4.5 4.5m0-6.99a2.5 2.5 0 0 1 0 5 2.5 2.5 0 0 1 0-5m7.54 12.97v2.72h-2V24.8c0-1.1-.9-2-2-2h-7c-1.1 0-2 .9-2 2v2.72h-2V24.8c0-2.2 1.79-4 4-4h7c2.21 0 4 1.79 4 4"/>
</svg>
