<svg viewBox="0 0 64 64" xmlns="http://www.w3.org/2000/svg">
  <path d="M58 9.19H34.15L25.2.48c-.37-.36-.87-.57-1.39-.57H6c-3.32 0-6 2.69-6 6.02v57.99h64V15.2c0-3.32-2.69-6.01-6-6.01m3.25 51.97H2.75V5.93c0-1.8 1.46-3.26 3.25-3.26h17.5l8.73 8.5.8.78H58c1.79 0 3.25 1.46 3.25 3.26v45.96ZM32.37 36.9c4.62 0 8.37-3.75 8.37-8.37s-3.76-8.37-8.37-8.37S24 23.91 24 28.53s3.76 8.37 8.37 8.37m0-14c3.1 0 5.62 2.52 5.62 5.62s-2.52 5.62-5.62 5.62-5.62-2.52-5.62-5.62 2.52-5.62 5.62-5.62m14.46 26.58v5.45h-2.75v-5.45c0-2.55-2.07-4.62-4.62-4.62h-14c-2.55 0-4.62 2.07-4.62 4.62v5.45h-2.75v-5.45c0-4.07 3.31-7.37 7.37-7.37h14c4.07 0 7.37 3.31 7.37 7.37"/>
</svg>
