<svg viewBox="0 0 48 48" xmlns="http://www.w3.org/2000/svg">
  <path d="m47.77 36.66-4.82-9.2-9.19 4.83c-.61.32-.85 1.08-.52 1.69.32.61 1.08.85 1.69.53l5.27-2.77c-1.28 7.36-7.39 13.07-14.94 13.71v-35.1c2.29-.56 4-2.62 4-5.08-.01-2.9-2.36-5.25-5.25-5.25s-5.24 2.35-5.24 5.25c0 2.46 1.7 4.51 3.99 5.08v35.12c-7.71-.5-13.99-6.27-15.28-13.74l5.36 2.81c.61.32 1.37.09 1.69-.53.32-.61.09-1.37-.52-1.69l-9.13-4.79-4.82 9.14c-.32.61-.09 1.37.52 1.69.19.1.38.14.58.14.45 0 .88-.24 1.11-.67l2.79-5.32c1.7 8.82 9.46 15.51 18.76 15.51s17.22-6.82 18.81-15.77l2.93 5.58c.22.43.66.67 1.11.67.2 0 .39-.05.58-.14.61-.32.85-1.08.52-1.69ZM21.26 5.26c0-1.52 1.23-2.75 2.75-2.75s2.75 1.23 2.75 2.75-1.23 2.75-2.75 2.75-2.75-1.23-2.75-2.75"/>
</svg>
