<svg viewBox="0 0 24 24" xmlns="http://www.w3.org/2000/svg">
  <path d="m23.83 17.43-2.65-5.04-5.05 2.65a1.503 1.503 0 0 0 1.4 2.66l.36-.19a6.72 6.72 0 0 1-4.39 3.32V7.45a3.87 3.87 0 0 0 2.38-3.57C15.88 1.74 14.14 0 12 0S8.12 1.73 8.12 3.87c0 1.61.98 2.98 2.37 3.57v13.38A6.72 6.72 0 0 1 6.1 17.5l.36.19c.73.38 1.64.1 2.03-.63s.1-1.64-.63-2.03l-5.05-2.65-2.64 5.05c-.39.73-.1 1.64.63 2.03.22.12.46.17.7.17.54 0 1.06-.29 1.33-.8l.31-.58c1.52 3.39 4.92 5.76 8.87 5.76s7.34-2.37 8.86-5.75l.3.58c.27.51.79.8 1.33.8a1.5 1.5 0 0 0 1.33-2.2ZM12 3c.48 0 .88.39.88.87s-.39.87-.88.87-.88-.39-.88-.87S11.51 3 12 3"/>
</svg>
