<svg viewBox="0 0 64 64" xmlns="http://www.w3.org/2000/svg">
  <path d="m63.84 49.16-6.35-12.11-2.87 1.5h-.06v.03l-9.17 4.82c-.67.35-.93 1.18-.58 1.86.35.67 1.18.93 1.86.58l7.66-4.02c-1.52 10.49-10.22 18.67-20.94 19.37V13.87c3.21-.64 5.63-3.47 5.63-6.86C39 3.13 35.87 0 32.01 0s-7 3.13-7 7c0 3.39 2.41 6.22 5.62 6.86v47.35c-10.84-.59-19.67-8.83-21.19-19.41l7.78 4.08c.67.35 1.5.09 1.86-.58.35-.67.09-1.5-.58-1.86l-9.29-4.88v-.02h-.03l-2.7-1.42L.15 49.17c-.35.67-.09 1.5.58 1.86.2.11.42.16.64.16.49 0 .97-.27 1.22-.74l4.17-7.94c1.9 12.16 12.44 21.5 25.12 21.5s23.43-9.52 25.17-21.87l4.36 8.31a1.376 1.376 0 0 0 1.86.58c.67-.35.93-1.18.58-1.86ZM27.76 7c0-2.34 1.91-4.25 4.25-4.25S36.26 4.66 36.26 7s-1.91 4.25-4.25 4.25S27.76 9.34 27.76 7"/>
</svg>
