<svg viewBox="0 0 48 48" xmlns="http://www.w3.org/2000/svg">
  <path d="m47.72 35.59-5.1-9.73-9.73 5.11c-1.1.58-1.52 1.94-.95 3.04s1.94 1.52 3.04.95l2.95-1.55c-1.74 5.13-6.21 9-11.68 9.88V13.51c2.73-.93 4.7-3.52 4.7-6.57C30.95 3.1 27.84 0 24.01 0s-6.94 3.11-6.94 6.95c0 3.04 1.96 5.63 4.69 6.56v29.82c-5.57-.81-10.15-4.72-11.91-9.93l3.04 1.59c1.1.58 2.46.16 3.04-.95.58-1.1.15-2.46-.95-3.04l-9.67-5.08-5.08 9.67c-.58 1.1-.15 2.46.95 3.04.33.17.69.26 1.04.26.81 0 1.59-.44 1.99-1.2l1.42-2.71C8.26 42.55 15.44 48 23.88 48s15.75-5.55 18.32-13.22l1.52 2.9c.4.77 1.18 1.2 1.99 1.2a2.26 2.26 0 0 0 1.99-3.3ZM24.01 4.49c1.35 0 2.44 1.1 2.44 2.44s-1.1 2.44-2.44 2.44-2.44-1.1-2.44-2.44 1.1-2.44 2.44-2.44"/>
</svg>
