<svg viewBox="0 0 24 24" xmlns="http://www.w3.org/2000/svg">
  <path d="m23.88 17.91-2.47-4.71-4.71 2.47a.874.874 0 1 0 .81 1.55l2.06-1.08c-.78 3.12-3.43 5.51-6.7 5.87V5.86C14.1 5.48 15 4.36 15 3c0-1.66-1.34-3-3-3S9 1.34 9 3c0 1.35.9 2.48 2.12 2.85v16.16a7.825 7.825 0 0 1-6.69-5.87l2.05 1.08c.43.23.96.06 1.18-.37s.06-.96-.37-1.18L2.58 13.2.12 17.91a.874.874 0 0 0 .78 1.28c.32 0 .62-.17.78-.47l1.09-2.07c1.07 4.11 4.8 7.17 9.24 7.17s8.17-3.05 9.24-7.16l1.08 2.06c.16.3.46.47.78.47a.874.874 0 0 0 .78-1.28ZM10.75 3a1.25 1.25 0 1 1 2.5 0 1.25 1.25 0 0 1-2.5 0"/>
</svg>
