<svg viewBox="0 0 64 64" xmlns="http://www.w3.org/2000/svg">
  <path d="M63.71 47.99 57.04 35.3l-12.7 6.66c-1.22.64-1.7 2.15-1.05 3.38a2.51 2.51 0 0 0 3.38 1.05l5.15-2.7c-2.15 7.97-8.95 14.04-17.31 15.11V16.48c3.44-1.06 5.95-4.27 5.95-8.06-.01-4.66-3.79-8.43-8.45-8.43s-8.44 3.78-8.44 8.43c0 3.78 2.49 6.99 5.93 8.05v42.36c-8.48-.98-15.39-7.1-17.56-15.16l5.26 2.76c1.23.64 2.74.17 3.38-1.05s.17-2.74-1.05-3.38L6.91 35.38.28 48a2.51 2.51 0 0 0 1.05 3.38c.37.19.77.29 1.16.29.9 0 1.77-.49 2.22-1.34l2.52-4.8C10.35 56.19 20.21 64 31.87 64s21.7-7.95 24.72-18.76l2.67 5.09c.45.85 1.32 1.34 2.22 1.34.39 0 .79-.09 1.16-.29 1.22-.64 1.7-2.15 1.05-3.38Zm-31.7-43c1.89 0 3.43 1.54 3.43 3.43s-1.54 3.43-3.43 3.43-3.44-1.54-3.44-3.43 1.54-3.43 3.44-3.43"/>
</svg>
