<svg viewBox="0 0 32 32" xmlns="http://www.w3.org/2000/svg">
  <path d="m31.89 24.28-3.25-6.2-6.2 3.25c-.49.26-.68.86-.42 1.35s.86.68 1.35.42l3.14-1.65C25.56 26 21.72 29.5 17 29.93V6.83c1.44-.43 2.5-1.76 2.5-3.34C19.51 1.56 17.94 0 16 0s-3.5 1.57-3.5 3.5c0 1.58 1.06 2.9 2.5 3.34v23.11c-4.71-.44-8.55-3.93-9.5-8.48l3.13 1.64c.49.25 1.1.07 1.35-.42a.996.996 0 0 0-.42-1.35l-6.2-3.25-3.25 6.19a.996.996 0 0 0 .42 1.35c.15.08.31.11.46.11.36 0 .71-.19.89-.54l1.69-3.21c1.25 5.71 6.35 10 12.43 10S27.17 27.71 28.43 22l1.68 3.2a1.01 1.01 0 0 0 1.35.43c.49-.26.68-.86.42-1.35ZM14.5 3.49c0-.83.67-1.5 1.5-1.5s1.5.67 1.5 1.5-.67 1.5-1.5 1.5-1.5-.67-1.5-1.5"/>
</svg>
