<svg viewBox="0 0 64 64" xmlns="http://www.w3.org/2000/svg">
  <path d="M51.1 52.91a10.06 10.06 0 0 1-.65 5.04c-1.42 3.49-4.74 5.93-8.61 5.93a8.9 8.9 0 0 1-3.95-.94h-.02c-.25-.12-.5-.24-.75-.34-.09-.04-.18-.07-.27-.1-.17-.07-.34-.13-.5-.19-.1-.03-.2-.06-.31-.1-.15-.05-.3-.09-.46-.14-.11-.03-.21-.05-.32-.08-.14-.03-.29-.07-.43-.1l-.32-.06c-.14-.02-.28-.05-.42-.07-.11-.02-.21-.03-.32-.04-.14-.02-.27-.03-.41-.04-.1 0-.21-.02-.31-.02-.13 0-.27-.01-.4-.02h-.64c-.14 0-.28 0-.41.01-.1 0-.21.01-.31.02-.13 0-.26.02-.39.03-.1 0-.2.02-.3.03-.13.01-.25.03-.37.05-.09.01-.19.03-.28.04l-.36.06c-.09.02-.18.03-.26.05-.12.02-.23.05-.34.07-.08.02-.16.03-.23.05-.12.03-.23.06-.34.09-.06.02-.13.03-.19.05-.12.03-.23.07-.34.1-.05.01-.1.03-.14.04-.15.05-.3.09-.43.14-1.4.87-3.02 1.4-4.78 1.4-3.23 0-6.07-1.7-7.75-4.28a9.9 9.9 0 0 1-1.6-5.43c0-3.15 1.1-5.62 3.33-7.4l.33-.33s.83-.76 2.11-2.25c.48-.56 1.03-1.22 1.62-1.98a55 55 0 0 0 3.22-4.63l.34-.62c.13-.47.29-.91.48-1.33 1.13-2.5 3.31-4.02 6.08-4.4.46-.06.94-.1 1.43-.1 1.96 0 3.72.59 5.12 1.65 1.05.79 1.9 1.85 2.48 3.11.19.42.36.86.49 1.33l.17.35c2.18 3.47 4.22 5.94 5.51 7.37.22.24.41.45.58.63s.32.33.44.45c1.28.87 2.35 2.05 3.09 3.44.56 1.04.94 2.2 1.09 3.44ZM12.59 15.46c.07.39.15.78.24 1.16.03.13.07.25.11.37.07.25.14.5.22.74l.15.42c.08.22.16.43.24.64.06.15.13.28.19.43.09.2.18.39.27.58.07.14.15.28.22.41.1.18.2.36.3.53a21 21 0 0 0 .58.88l.27.36.36.45c.1.11.19.22.29.33.13.14.26.28.4.41.1.1.2.2.3.29.14.13.29.25.43.37.1.08.2.17.3.25.16.12.32.23.49.34.1.06.19.13.29.2.19.12.39.23.59.33l.21.12c.27.13.55.25.83.35l.18.06c.22.07.44.14.67.19l.31.06c.18.03.37.07.55.09.12.01.24.01.35.02.13 0 .26.02.39.02h.1c.35 0 .71-.03 1.06-.09 3.68-.63 6.32-4.16 6.93-8.64.1-.75.15-1.52.13-2.31s-.09-1.6-.23-2.42c-.07-.39-.15-.78-.24-1.15-.03-.13-.07-.25-.11-.38-.07-.25-.14-.49-.22-.74l-.15-.42c-.08-.22-.16-.43-.24-.64-.06-.15-.13-.28-.19-.43-.09-.2-.18-.39-.27-.58-.07-.14-.15-.28-.22-.41-.1-.18-.2-.36-.3-.53-.08-.13-.16-.26-.25-.39-.11-.17-.22-.33-.34-.49l-.27-.36c-.12-.15-.24-.3-.37-.45-.09-.11-.19-.22-.29-.33-.13-.14-.26-.28-.4-.41-.1-.1-.2-.2-.3-.29-.14-.13-.29-.25-.44-.37-.1-.08-.2-.17-.3-.25-.16-.12-.32-.23-.49-.34-.1-.06-.19-.13-.28-.19q-.3-.18-.6-.33c-.07-.04-.14-.08-.21-.11-.27-.13-.55-.25-.83-.35-.06-.02-.12-.03-.18-.05-.22-.07-.45-.14-.67-.2l-.31-.06c-.18-.03-.37-.07-.56-.09-.12-.01-.24-.01-.35-.02-.13 0-.26-.02-.39-.02h-.1c-.35 0-.71.03-1.06.09-1.23.21-2.34.74-3.29 1.53-2.4 1.96-3.84 5.47-3.77 9.42.01.79.09 1.6.23 2.42Zm5.52 18.93c-.03-.4-.08-.81-.15-1.22-.06-.4-.14-.78-.23-1.16-.03-.13-.07-.25-.1-.38-.07-.25-.13-.5-.21-.74-.05-.14-.1-.28-.15-.43-.08-.22-.15-.43-.23-.64-.06-.15-.12-.29-.19-.43-.09-.2-.17-.39-.26-.58-.07-.14-.14-.28-.22-.42-.1-.18-.19-.36-.3-.53-.08-.14-.16-.27-.25-.4-.11-.17-.21-.33-.32-.49-.09-.13-.18-.25-.27-.37-.12-.15-.23-.3-.35-.45-.1-.12-.19-.23-.29-.34l-.38-.41c-.1-.1-.2-.21-.31-.31-.14-.13-.27-.25-.41-.37-.11-.09-.21-.18-.32-.27-.15-.12-.3-.22-.45-.33-.11-.07-.21-.15-.32-.22-.16-.1-.33-.2-.5-.29-.1-.06-.2-.12-.3-.17-.2-.1-.4-.18-.61-.27-.07-.03-.15-.07-.22-.09-.28-.1-.56-.19-.85-.26-.06-.02-.13-.02-.19-.03-.22-.05-.45-.09-.68-.12-.11-.01-.21-.01-.32-.02-.16-.01-.32-.03-.47-.03h-.07c-.34 0-.67.03-1.01.08-2.46.39-4.47 2.07-5.74 4.48C.49 29-.04 31.21-.03 33.58c0 .79.07 1.6.2 2.42.06.4.14.78.23 1.16.03.13.07.25.1.37.07.25.13.5.21.74l.15.42c.08.22.15.43.23.64.06.15.12.29.18.43.09.2.17.39.26.58.07.14.14.28.22.42.1.18.19.36.3.53.08.14.16.27.25.4.11.17.21.33.33.49.09.13.18.25.27.37.12.15.23.3.36.45.1.12.19.23.29.34.13.14.25.28.38.41.1.1.2.21.31.3.14.13.28.25.42.37.11.09.21.18.32.26.15.11.3.22.45.32.11.07.21.15.32.22.16.1.33.19.5.29.1.06.2.12.31.17.2.1.4.18.6.26.08.03.15.07.23.1.28.1.56.19.85.26.06.02.13.02.19.03.22.05.45.09.68.12.11.01.21.01.32.02.16.01.32.03.48.03h.07c.34 0 .67-.03 1.01-.08 1.54-.24 2.9-.99 4.01-2.11 2.23-2.23 3.47-5.92 3.14-9.95ZM33.4 17.67c.27 1.8.86 3.44 1.72 4.8 1.24 1.95 3.04 3.31 5.18 3.68.36.06.71.09 1.06.09h.1c.13 0 .26-.02.39-.02.12 0 .24 0 .35-.02.19-.02.37-.05.55-.09.1-.02.21-.03.31-.06.23-.05.45-.12.67-.19.06-.02.12-.03.18-.05.28-.1.56-.22.83-.35.07-.03.14-.08.21-.11.2-.1.4-.21.59-.33.1-.06.19-.13.29-.2.16-.11.33-.22.49-.34.1-.08.2-.16.3-.25.15-.12.29-.24.44-.37.1-.09.2-.19.3-.29.14-.13.27-.27.4-.41.1-.11.19-.22.29-.33.12-.15.25-.3.37-.45l.27-.36c.11-.16.23-.32.34-.49.08-.13.17-.26.25-.39.11-.17.21-.35.3-.53.07-.14.15-.27.22-.41.1-.19.18-.38.27-.58.06-.14.13-.28.19-.43.09-.21.16-.42.24-.64l.15-.42c.08-.24.15-.49.22-.74.03-.12.07-.24.1-.37.09-.38.18-.76.25-1.16.14-.82.22-1.63.23-2.42.07-3.95-1.37-7.47-3.77-9.42a7.2 7.2 0 0 0-3.29-1.53 6.4 6.4 0 0 0-1.06-.09h-.1c-.13 0-.26.02-.39.02-.12 0-.24 0-.35.02-.19.02-.37.05-.55.09-.1.02-.21.03-.31.06-.22.05-.45.12-.67.19-.06.02-.12.03-.18.06-.28.1-.56.22-.83.35l-.21.12c-.2.1-.4.21-.59.33-.1.06-.19.13-.29.2-.16.11-.33.22-.49.34-.1.08-.2.17-.3.25a8 8 0 0 0-.73.66c-.13.13-.27.27-.4.41-.1.11-.19.22-.29.33-.12.15-.25.3-.37.45l-.27.36c-.11.16-.23.32-.33.49-.08.13-.17.26-.25.39-.1.17-.2.35-.3.53-.07.14-.15.27-.22.41-.09.19-.18.38-.27.58-.06.14-.13.28-.19.43-.09.21-.16.42-.24.63-.05.14-.11.28-.15.42-.08.24-.15.49-.22.74-.03.12-.07.24-.1.37q-.135.555-.24 1.14v.02c-.28 1.6-.3 3.16-.11 4.63.01.09.03.18.04.27Zm29.1 9.53c-.79-1.5-1.88-2.72-3.18-3.52a6.83 6.83 0 0 0-3.57-1.03h-.07c-.16 0-.32.02-.47.03-.11 0-.21 0-.32.02-.23.03-.45.07-.67.12-.07.01-.13.02-.2.04-.29.07-.57.16-.85.26-.08.03-.15.07-.23.1-.2.08-.4.16-.6.26-.1.05-.2.11-.31.17-.17.09-.33.18-.5.29-.11.07-.21.15-.32.22-.15.1-.3.21-.45.32-.11.08-.21.18-.32.26-.14.12-.28.24-.42.37-.1.1-.21.2-.31.3-.13.13-.26.27-.38.41-.1.11-.2.22-.29.34l-.36.45c-.09.12-.18.25-.27.37-.11.16-.22.32-.32.49-.08.13-.17.26-.25.4-.1.17-.2.35-.29.53-.07.14-.15.28-.22.42-.09.19-.18.39-.26.58-.06.14-.13.28-.19.43-.08.21-.16.43-.23.64-.05.14-.1.28-.15.43-.08.24-.14.49-.21.74-.03.13-.07.25-.1.38a15.7 15.7 0 0 0-.27 5.89c.11.75.28 1.46.5 2.15.44 1.36 1.08 2.58 1.89 3.59 1.22 1.51 2.81 2.52 4.65 2.82.34.05.67.08 1.01.08h.07c.16 0 .32-.02.48-.03.11 0 .21 0 .32-.02.23-.03.45-.07.68-.12l.19-.03c.29-.07.57-.16.85-.26.08-.03.15-.07.23-.1.2-.08.4-.16.6-.26.1-.05.2-.11.3-.17.17-.09.33-.18.5-.29.11-.07.21-.15.32-.22.15-.1.3-.21.45-.32.11-.08.21-.18.32-.26.14-.12.28-.24.42-.37.1-.1.21-.2.31-.3.13-.13.26-.27.38-.41.1-.11.2-.22.29-.34l.36-.45c.09-.12.18-.24.27-.37.11-.16.22-.32.33-.49.08-.13.17-.26.25-.4.1-.17.2-.35.3-.53.07-.14.15-.28.22-.42.09-.19.18-.39.26-.58.06-.14.13-.28.18-.43.08-.21.16-.43.23-.64l.15-.42c.08-.24.14-.49.21-.74.03-.13.07-.25.1-.37.09-.38.17-.77.23-1.16.13-.82.2-1.63.2-2.42.01-2.37-.52-4.58-1.47-6.38Z"/>
</svg>
