<svg viewBox="0 0 24 24" xmlns="http://www.w3.org/2000/svg">
  <path d="M17.59 17.26c-.36-.37-1.36-1.43-2.45-3.17l-.06-.13c-.4-1.39-1.56-2.28-3.03-2.28s-2.61.78-3 2.18l-.13.23c-1.36 2.18-2.61 3.32-2.61 3.32l-.12.12c-.84.67-1.25 1.59-1.25 2.77 0 2.01 1.57 3.64 3.51 3.64.66 0 1.27-.2 1.79-.53.42-.14 1.08-.32 1.84-.32.65 0 1.38.12 2.12.49.45.22.95.35 1.48.35 1.94 0 3.51-1.63 3.51-3.64 0-1.28-.64-2.4-1.6-3.05Zm-1.9 4.94c-.24 0-.48-.06-.7-.17-.9-.45-1.87-.67-2.9-.67-.81 0-1.62.14-2.41.41l-.19.06-.17.11c-.28.17-.57.26-.87.26-.97 0-1.75-.85-1.75-1.89 0-.82.3-1.17.59-1.4l.08-.06.07-.07.1-.1c.23-.22 1.51-1.48 2.87-3.65l.03-.04.02-.04.13-.23.1-.18.05-.2c.11-.39.36-.9 1.31-.9.68 0 1.16.36 1.35 1.01l.04.14.07.14.06.13.04.09.05.08c1.17 1.87 2.27 3.05 2.69 3.47l.12.12.14.1c.52.35.83.95.83 1.6 0 1.04-.79 1.89-1.75 1.89ZM8.38 9.7c.15 0 .29-.01.44-.04 1.84-.32 2.99-2.56 2.56-5.01-.39-2.26-1.97-3.9-3.66-3.9-.15 0-.29.01-.44.04-1.84.32-2.99 2.56-2.56 5.01.39 2.26 1.97 3.9 3.66 3.9m-.8-7.19s.09-.01.14-.01c.73 0 1.68.98 1.93 2.45.27 1.55-.38 2.86-1.13 2.99-.05 0-.09.01-.14.01-.73 0-1.68-.98-1.93-2.45-.27-1.55.38-2.86 1.13-2.99m-.84 9.93C6.38 10.16 4.8 8.49 3.1 8.49c-.13 0-.27.01-.41.03C.85 8.81-.33 11.04.06 13.5.42 15.78 2 17.45 3.7 17.45c.13 0 .27-.01.41-.03 1.84-.29 3.02-2.52 2.63-4.98m-2.91 3.25s-.09.01-.13.01c-.73 0-1.67-.99-1.91-2.47-.25-1.56.41-2.85 1.17-2.97.04 0 .09-.01.13-.01.73 0 1.67.99 1.91 2.47.25 1.56-.41 2.85-1.17 2.97M15.11 9.8c.15.03.29.04.44.04 1.68 0 3.27-1.65 3.66-3.9.42-2.45-.72-4.7-2.56-5.01-.15-.03-.29-.04-.44-.04-1.68 0-3.27 1.65-3.66 3.9-.42 2.45.72 4.7 2.56 5.01m-.83-4.71c.25-1.46 1.2-2.45 1.93-2.45.05 0 .09 0 .14.01.76.13 1.4 1.44 1.13 2.99-.25 1.46-1.2 2.45-1.93 2.45-.05 0-.09 0-.14-.01-.76-.13-1.4-1.44-1.13-2.99m7.01 3.43c-.14-.02-.27-.03-.41-.03-1.7 0-3.28 1.67-3.64 3.95-.39 2.46.78 4.69 2.63 4.98.14.02.27.03.41.03 1.7 0 3.28-1.67 3.64-3.95.39-2.46-.78-4.69-2.63-4.98m.89 4.7c-.24 1.48-1.18 2.47-1.91 2.47-.04 0-.09 0-.13-.01-.76-.12-1.42-1.42-1.17-2.97.24-1.48 1.18-2.47 1.91-2.47.04 0 .09 0 .13.01.76.12 1.42 1.42 1.17 2.97"/>
</svg>
