<svg viewBox="0 0 48 48" xmlns="http://www.w3.org/2000/svg">
  <path d="M38.38 40.68c0 .75-.11 1.48-.32 2.17-.14.46-.32.89-.53 1.31-.11.21-.23.41-.35.6-1.26 1.94-3.39 3.21-5.81 3.21-1.06 0-2.06-.26-2.96-.71-.39-.19-.77-.35-1.16-.48-.13-.04-.26-.07-.39-.11-.25-.07-.5-.15-.75-.2-.15-.03-.3-.05-.45-.07-.22-.03-.44-.07-.65-.09-.15-.01-.3-.02-.45-.02-.19 0-.38-.01-.57-.01-.22 0-.42.02-.63.03l-.42.03c-.21.02-.4.06-.6.09a7 7 0 0 0-.93.2l-.25.06q-.375.105-.69.21c-.26.16-.54.31-.82.44-.85.39-1.78.61-2.76.61a6.77 6.77 0 0 1-4.34-1.57l-.15-.12c-.25-.22-.49-.46-.71-.72-.22-.25-.43-.52-.61-.8a7.4 7.4 0 0 1-1.2-4.07c0-2.36.82-4.22 2.5-5.55l.25-.25s2.48-2.29 5.21-6.64l.25-.46c.29-1.06.79-1.93 1.46-2.62 1.11-1.14 2.69-1.75 4.54-1.75s3.44.7 4.57 1.9c.68.72 1.2 1.62 1.49 2.67l.13.26a41.5 41.5 0 0 0 3.6 4.93c.57.67 1.02 1.14 1.3 1.41 1.92 1.3 3.2 3.54 3.2 6.1ZM9.63 12.51c.02.09.05.19.08.28.05.19.1.37.16.55.04.11.08.21.11.32l.18.48c.05.11.09.21.14.32.07.15.13.29.2.43.05.11.11.21.17.31.07.14.15.27.23.4.06.1.12.2.19.29.08.12.16.25.25.37.07.09.13.18.2.27.09.12.18.23.27.34.07.08.14.17.22.25.1.11.2.21.3.31l.22.22c.11.1.22.19.33.28.08.06.15.13.23.19.12.09.24.17.36.26.07.05.14.1.22.15.15.09.3.17.45.25a5 5 0 0 0 .77.34c.04.02.09.03.13.04.17.06.33.11.5.15.08.02.16.03.23.04.14.03.28.05.42.07.09 0 .18.01.26.02.1 0 .2.02.3.02h.08c.26 0 .53-.02.79-.07 3.22-.55 5.38-4.06 5.3-8.21a12 12 0 0 0-.35-2.67c-.02-.09-.05-.18-.08-.28-.05-.19-.1-.37-.16-.56-.04-.11-.08-.21-.12-.32l-.18-.48c-.05-.11-.09-.21-.14-.32-.07-.15-.13-.29-.2-.43-.05-.11-.11-.21-.17-.31-.07-.13-.15-.27-.23-.4-.06-.1-.12-.2-.19-.29a5 5 0 0 0-.25-.37c-.07-.09-.13-.18-.2-.27-.09-.12-.18-.23-.27-.34-.07-.08-.14-.17-.21-.25-.1-.11-.2-.21-.3-.31l-.22-.22c-.11-.1-.22-.19-.33-.28-.08-.06-.15-.13-.23-.19-.12-.09-.24-.17-.36-.26-.07-.05-.14-.1-.22-.15-.15-.09-.3-.17-.45-.25a5 5 0 0 0-.77-.34c-.04-.02-.09-.03-.13-.04-.17-.06-.33-.11-.5-.15-.08-.02-.16-.03-.23-.04-.14-.03-.28-.05-.41-.07-.09 0-.18-.01-.27-.02-.1 0-.2-.02-.29-.02h-.08c-.27 0-.53.02-.8.07-1.61.28-2.95 1.29-3.89 2.76-.8 1.26-1.3 2.84-1.4 4.58-.05.87 0 1.77.16 2.69q.075.435.18.87Zm2.51 19.67c.27-.42.51-.87.71-1.35.5-1.21.78-2.6.77-4.09 0-.59-.05-1.2-.15-1.81-.05-.3-.11-.59-.17-.87-.02-.1-.05-.19-.08-.28-.05-.19-.1-.37-.15-.55-.03-.11-.07-.21-.11-.32-.06-.16-.11-.32-.17-.48a3 3 0 0 0-.14-.32c-.06-.15-.13-.29-.2-.43-.05-.11-.11-.21-.16-.32-.07-.13-.14-.27-.22-.4-.06-.1-.12-.2-.19-.3-.08-.13-.16-.25-.24-.37-.07-.09-.13-.19-.2-.28-.09-.12-.18-.23-.27-.34-.07-.09-.14-.17-.22-.25-.09-.11-.19-.21-.29-.31l-.23-.23c-.1-.1-.21-.19-.31-.28-.08-.07-.16-.13-.24-.2-.11-.09-.22-.17-.34-.25-.08-.06-.16-.11-.24-.16-.12-.08-.25-.15-.38-.22-.08-.04-.15-.09-.23-.12-.15-.07-.3-.14-.46-.2-.06-.02-.11-.05-.16-.07-.21-.08-.42-.14-.64-.19l-.14-.03q-.255-.06-.51-.09c-.08 0-.16 0-.24-.01-.12 0-.24-.02-.36-.02h-.05c-.25 0-.5.02-.76.06-3.67.58-6.02 5.04-5.24 9.95.05.3.11.59.17.87.02.09.05.18.07.28.05.19.1.38.16.56.03.11.07.21.11.32.06.16.11.33.18.48.04.11.09.21.14.32.06.15.13.3.2.44.05.11.11.21.16.31.07.14.14.27.22.4l.18.3c.08.13.16.25.24.37.07.09.13.19.2.28.09.11.18.23.27.34.07.09.14.17.22.26.09.11.19.21.29.31.08.08.15.16.23.23.1.1.21.18.31.27.08.07.16.14.24.2.11.09.22.16.34.24.08.06.16.11.24.17.12.08.25.15.37.22.08.04.15.09.23.13.15.07.3.14.45.2.06.02.11.05.17.07.21.08.42.14.64.19l.14.03q.255.06.51.09c.08 0 .16 0 .24.01.12 0 .24.02.36.02h.05c.25 0 .5-.02.76-.06 1.61-.26 2.97-1.25 3.92-2.71Zm18.08-12.52c.27.05.53.06.79.07h.08c.1 0 .2-.01.3-.02.09 0 .18 0 .26-.02.14-.02.28-.04.42-.07.08-.01.16-.02.23-.04.17-.04.34-.09.5-.15.04-.01.09-.02.13-.04.21-.08.42-.16.62-.26.05-.02.1-.06.15-.08.15-.08.3-.16.45-.25l.21-.15c.12-.08.25-.17.37-.26.08-.06.15-.12.23-.19.11-.09.22-.18.33-.28.08-.07.15-.14.22-.22.1-.1.2-.2.3-.31.07-.08.14-.16.21-.25.09-.11.19-.22.28-.34.07-.09.13-.18.2-.27.09-.12.17-.24.25-.37.06-.1.12-.19.18-.29.08-.13.15-.27.23-.4.06-.1.11-.2.16-.31.07-.14.14-.29.2-.44.05-.11.1-.21.14-.32.07-.16.12-.32.18-.48.04-.1.08-.21.11-.31.06-.18.11-.37.16-.56.03-.09.05-.18.08-.28q.105-.42.18-.87c.11-.61.16-1.22.17-1.81.04-2.08-.48-3.99-1.41-5.46s-2.28-2.48-3.89-2.76c-.27-.05-.53-.06-.8-.07h-.08c-.1 0-.2.01-.29.02-.09 0-.18 0-.27.02-.14.01-.28.04-.41.07-.08.01-.16.02-.24.04-.17.04-.33.09-.5.14-.05.02-.09.03-.14.04-.21.08-.42.16-.62.26-.05.03-.11.06-.16.09-.15.08-.3.16-.44.25-.07.05-.14.1-.22.15-.12.08-.24.16-.36.25-.08.06-.15.12-.23.19-.11.09-.22.18-.33.28-.08.07-.15.15-.23.22-.1.1-.2.2-.3.31l-.22.25c-.09.11-.18.22-.27.34-.07.09-.14.18-.2.27-.09.12-.17.24-.25.37-.06.1-.13.19-.19.29-.08.13-.15.26-.23.4-.06.1-.11.2-.17.31-.07.14-.14.29-.2.43-.05.11-.1.21-.14.32l-.18.48c-.04.11-.08.21-.12.32-.06.18-.11.37-.16.56-.03.09-.05.18-.08.28-.07.28-.13.57-.18.86-.11.61-.16 1.22-.17 1.81-.08 4.15 2.08 7.66 5.3 8.21Zm15.57 12.32c.07-.09.14-.18.2-.28.08-.12.16-.24.24-.37.06-.1.13-.2.19-.3.08-.13.15-.26.22-.4.06-.1.11-.21.16-.32.07-.14.13-.29.2-.43.05-.11.1-.21.14-.32.06-.16.12-.32.17-.48.04-.11.08-.21.11-.32.06-.18.11-.37.15-.55.02-.1.05-.19.08-.28.07-.29.13-.58.17-.87.49-3.07-.25-5.96-1.77-7.85-.3-.38-.64-.71-1-1-.18-.14-.37-.28-.57-.4-.59-.36-1.23-.61-1.92-.72-.25-.04-.5-.06-.76-.06h-.05c-.12 0-.24.01-.36.02-.08 0-.16 0-.24.01q-.255.03-.51.09c-.05 0-.09.01-.14.03-.21.05-.43.12-.64.19-.06.02-.11.05-.17.07-.15.06-.3.12-.45.2-.08.04-.15.08-.23.13a4.5 4.5 0 0 0-.61.39c-.11.08-.23.16-.34.24-.08.06-.16.13-.24.2-.1.09-.21.18-.31.27-.08.07-.16.15-.23.23-.1.1-.19.2-.29.3-.07.08-.15.17-.22.26-.09.11-.18.22-.27.34-.07.09-.14.18-.2.28-.08.12-.16.24-.24.37-.06.1-.13.2-.19.3-.08.13-.15.26-.22.4-.06.1-.11.21-.16.32-.07.14-.13.29-.2.43-.05.11-.1.21-.14.32-.06.16-.12.32-.17.48-.04.11-.08.21-.11.32-.06.18-.11.37-.15.55-.02.1-.05.19-.08.28-.07.29-.13.58-.17.87-.1.61-.15 1.22-.15 1.81 0 1.48.27 2.88.77 4.09.2.48.44.94.71 1.35.14.21.28.41.43.59.3.38.64.71 1 1 .18.14.37.28.57.4.59.36 1.23.61 1.92.72.25.04.51.06.76.06h.05c.12 0 .24-.01.36-.02.08 0 .16 0 .24-.01q.255-.03.51-.09c.05 0 .09-.01.14-.02.21-.05.43-.12.64-.19.06-.02.11-.05.17-.07.15-.06.3-.12.45-.2.08-.04.15-.08.22-.12.13-.07.25-.14.38-.22.08-.05.16-.11.24-.16.11-.08.23-.16.34-.24.08-.06.16-.13.24-.2.11-.09.21-.18.31-.28.08-.07.15-.15.23-.23.1-.1.19-.2.29-.31l.22-.25c.09-.11.18-.22.27-.34Z"/>
</svg>
