<svg viewBox="0 0 64 64" xmlns="http://www.w3.org/2000/svg">
  <path d="M46.92 46.03c-.97-.98-3.64-3.83-6.54-8.45l-.17-.35c-1.06-3.72-4.17-6.09-8.09-6.09s-6.95 2.07-7.99 5.83l-.34.62c-3.64 5.8-6.95 8.86-6.95 8.86l-.33.33c-2.23 1.78-3.33 4.25-3.33 7.4 0 5.37 4.19 9.71 9.35 9.71 1.75 0 3.37-.53 4.78-1.4 1.12-.39 2.87-.84 4.91-.84 1.73 0 3.68.33 5.65 1.31 1.2.59 2.53.94 3.95.94 5.16 0 9.35-4.35 9.35-9.71 0-3.41-1.7-6.4-4.26-8.13Zm-5.09 15.1c-.92 0-1.85-.22-2.73-.65-2.13-1.06-4.44-1.59-6.88-1.59-1.91 0-3.92.34-5.81.99l-.3.1-.27.17c-1.05.66-2.17.99-3.32.99-3.64 0-6.6-3.12-6.6-6.96 0-2.33.73-4 2.29-5.24l.13-.1.11-.11.29-.29c.47-.44 3.78-3.65 7.36-9.37l.04-.07.04-.07.34-.62.16-.28.09-.31c.87-3.15 3.38-3.81 5.34-3.81 2.68 0 4.71 1.53 5.44 4.09l.06.23.1.21.17.35.07.14.08.13c3.03 4.83 5.84 7.85 6.92 8.93l.19.19.22.15c1.91 1.29 3.05 3.48 3.05 5.85 0 3.84-2.96 6.96-6.6 6.96ZM22.34 25.86c.39 0 .78-.03 1.17-.1 4.9-.85 7.96-6.83 6.84-13.37-1.04-6.02-5.26-10.41-9.75-10.41-.39 0-.78.03-1.17.1-4.9.85-7.96 6.83-6.84 13.37 1.04 6.02 5.26 10.41 9.75 10.41M19.9 4.8c.23-.04.47-.06.7-.06 3.16 0 6.25 3.57 7.04 8.12.85 4.95-1.25 9.61-4.59 10.19-.23.04-.47.06-.7.06-3.16 0-6.25-3.57-7.04-8.12-.85-4.95 1.25-9.61 4.59-10.19m-1.94 28.37c-.97-6.07-5.18-10.53-9.71-10.53q-.54 0-1.08.09C2.26 23.5-.87 29.45.17 36c.97 6.07 5.18 10.53 9.71 10.53q.54 0 1.08-.09c4.91-.78 8.05-6.73 7.01-13.28Zm-7.44 10.56c-.21.03-.43.05-.65.05-3.18 0-6.25-3.61-6.99-8.21-.79-4.96 1.37-9.59 4.72-10.13.21-.03.43-.05.65-.05 3.18 0 6.25 3.61 6.99 8.21.79 4.96-1.37 9.59-4.72 10.13M40.3 26.14c.39.07.78.1 1.17.1 4.49 0 8.71-4.39 9.75-10.41 1.13-6.54-1.93-12.52-6.84-13.37-.39-.07-.78-.1-1.17-.1-4.49 0-8.71 4.39-9.75 10.41-1.13 6.54 1.93 12.52 6.84 13.37m-4.12-12.9c.79-4.55 3.88-8.12 7.04-8.12.23 0 .47.02.7.06 3.34.58 5.44 5.24 4.59 10.19-.79 4.55-3.88 8.12-7.04 8.12-.23 0-.47-.02-.7-.06-3.34-.58-5.44-5.24-4.59-10.19m20.59 9.48q-.54-.09-1.08-.09c-4.52 0-8.74 4.46-9.71 10.53-1.04 6.55 2.09 12.5 7.01 13.28q.54.09 1.08.09c4.52 0 8.74-4.46 9.71-10.53 1.04-6.55-2.09-12.5-7.01-13.28m4.28 12.85c-.73 4.6-3.8 8.21-6.99 8.21-.22 0-.43-.02-.65-.05-3.35-.53-5.51-5.17-4.72-10.13.73-4.6 3.8-8.21 6.99-8.21.22 0 .43.02.65.05 3.35.53 5.51 5.17 4.72 10.13"/>
</svg>
