<svg viewBox="0 0 40 40" xmlns="http://www.w3.org/2000/svg">
  <path d="M29.32 28.75c-.61-.61-2.27-2.39-4.08-5.28l-.11-.22c-.66-2.32-2.6-3.81-5.05-3.81s-4.35 1.3-4.99 3.64l-.21.38C12.61 27.09 10.54 29 10.54 29l-.2.21c-1.39 1.11-2.08 2.66-2.08 4.62 0 3.35 2.62 6.07 5.84 6.07 1.1 0 2.11-.33 2.98-.88.7-.24 1.79-.53 3.07-.53 1.08 0 2.3.21 3.53.82.75.37 1.58.59 2.47.59 3.23 0 5.84-2.72 5.84-6.07 0-2.13-1.06-4-2.66-5.08Zm-3.18 8.9c-.49 0-.99-.12-1.47-.35-1.4-.7-2.93-1.05-4.53-1.05-1.25 0-2.57.22-3.8.65l-.24.08-.22.14c-.57.36-1.18.54-1.79.54-1.98 0-3.59-1.71-3.59-3.82 0-1.69.7-2.44 1.23-2.86l.1-.08.09-.09.18-.18c.34-.32 2.43-2.36 4.68-5.95l.03-.05.03-.06.21-.38.13-.23.07-.25c.36-1.32 1.31-1.99 2.82-1.99 1.42 0 2.5.81 2.89 2.17l.05.19.08.17.11.22.05.11.07.11c1.92 3.06 3.71 4.99 4.4 5.67l.15.15.18.12c1.05.71 1.67 1.91 1.67 3.22 0 2.11-1.61 3.82-3.59 3.82ZM13.96 16.14c.24 0 .49-.02.73-.06 3.06-.53 4.98-4.27 4.27-8.35-.65-3.76-3.29-6.5-6.09-6.5-.24 0-.49.02-.73.06-3.06.53-4.98 4.27-4.27 8.35.65 3.76 3.29 6.5 6.09 6.5M12.53 3.5c.11-.02.23-.03.35-.03 1.48 0 3.38 1.77 3.87 4.63.48 2.76-.66 5.45-2.44 5.75-.11.02-.23.03-.35.03-1.48 0-3.38-1.77-3.87-4.63-.48-2.76.66-5.45 2.44-5.75m-1.3 17.21c-.6-3.79-3.24-6.58-6.07-6.58-.22 0-.45.02-.68.05-3.06.49-5.03 4.2-4.37 8.3.6 3.79 3.24 6.58 6.07 6.58.22 0 .45-.02.68-.05 3.07-.49 5.03-4.21 4.38-8.3Zm-4.74 6.07c-.11.02-.21.03-.32.03-1.49 0-3.38-1.79-3.84-4.68-.44-2.76.73-5.44 2.51-5.72.11-.02.21-.03.32-.03 1.49 0 3.38 1.79 3.84 4.68.44 2.76-.73 5.44-2.51 5.72m18.7-10.46c.24.04.49.06.73.06 2.81 0 5.45-2.74 6.09-6.5.7-4.09-1.21-7.83-4.27-8.35-.24-.04-.49-.06-.73-.06-2.81 0-5.45 2.74-6.09 6.5-.7 4.09 1.21 7.83 4.27 8.35m-2.06-7.98c.49-2.86 2.4-4.63 3.87-4.63.12 0 .23.01.35.03 1.77.31 2.91 2.99 2.44 5.75-.49 2.86-2.4 4.63-3.87 4.63-.12 0-.23-.01-.35-.03-1.77-.31-2.91-2.99-2.44-5.75m12.35 5.84c-.23-.04-.45-.05-.68-.05-2.83 0-5.46 2.79-6.07 6.58-.65 4.09 1.31 7.81 4.38 8.3.23.04.45.05.68.05 2.83 0 5.46-2.79 6.07-6.58.65-4.09-1.31-7.81-4.38-8.3m2.15 7.94c-.46 2.89-2.35 4.68-3.84 4.68-.11 0-.21 0-.32-.03-1.78-.28-2.95-2.96-2.51-5.72.46-2.89 2.35-4.68 3.84-4.68.11 0 .21 0 .32.03 1.78.28 2.95 2.96 2.51 5.72"/>
</svg>
