<svg viewBox="0 0 24 24" xmlns="http://www.w3.org/2000/svg">
  <path d="M19.08 19.39c.07.3.11.61.11.93a3.7 3.7 0 0 1-1.54 3.02c-.19.13-.39.24-.6.34-.42.18-.88.29-1.36.29a3.25 3.25 0 0 1-1.48-.35c-.19-.09-.38-.17-.57-.23-.07-.02-.13-.04-.2-.05-.12-.04-.25-.07-.37-.1-.08-.02-.15-.02-.22-.04-.11-.02-.22-.03-.32-.04-.08 0-.15 0-.23-.01h-.28c-.11 0-.21 0-.31.02-.07 0-.14 0-.21.02-.1.01-.2.03-.3.04l-.18.03c-.1.02-.2.04-.29.07l-.12.03c-.13.04-.24.07-.34.11-.26.16-.55.3-.85.39s-.62.14-.94.14c-.97 0-1.84-.41-2.48-1.07-.48-.49-.82-1.13-.96-1.84-.05-.24-.07-.48-.07-.73 0-.88.23-1.63.7-2.23.16-.2.34-.38.55-.55l.12-.12s1.24-1.15 2.61-3.32l.13-.23c.39-1.41 1.52-2.18 3-2.18.92 0 1.72.35 2.29.95.34.36.6.81.75 1.34l.06.13c1.09 1.73 2.09 2.8 2.45 3.17a3.63 3.63 0 0 1 1.48 2.13ZM4.72 5.81q.075.435.21.84c.03.09.07.18.11.26.07.17.13.35.21.51.05.1.11.18.16.28.08.14.16.28.25.41.06.09.13.17.2.25.09.11.19.23.29.33.08.08.16.14.24.21.1.09.21.17.32.25a3.7 3.7 0 0 0 .6.33c.09.04.18.07.28.1.12.04.24.06.36.08.1.02.19.03.29.03.05 0 .09.02.13.02.15 0 .29-.01.44-.04.92-.16 1.67-.8 2.13-1.71s.65-2.08.43-3.31c-.05-.3-.12-.58-.21-.85-.03-.09-.07-.17-.1-.26-.07-.17-.13-.35-.22-.51-.05-.1-.11-.18-.16-.28-.08-.14-.16-.28-.25-.41-.06-.09-.13-.17-.2-.25-.09-.11-.19-.23-.29-.33-.08-.08-.15-.14-.23-.21-.1-.09-.21-.17-.32-.25-.08-.06-.17-.11-.26-.16-.11-.06-.23-.12-.35-.17C8.69.93 8.6.9 8.5.87 8.38.83 8.26.81 8.14.79c-.1-.02-.19-.03-.29-.03-.05 0-.09-.02-.13-.02-.15 0-.29.01-.44.04C6.59.9 6 1.29 5.55 1.86c-.75.95-1.1 2.4-.83 3.93Zm2.09 7.53c0-.3-.03-.6-.08-.91-.05-.3-.12-.58-.2-.85-.03-.09-.07-.17-.1-.26-.07-.18-.13-.35-.21-.52-.05-.1-.11-.19-.16-.28-.08-.14-.16-.28-.25-.41-.06-.09-.13-.17-.2-.25-.09-.11-.18-.23-.29-.33-.08-.08-.15-.14-.23-.21-.1-.09-.21-.18-.32-.25a3.7 3.7 0 0 0-.6-.33c-.09-.04-.18-.07-.28-.1-.12-.04-.24-.06-.36-.09-.1-.02-.19-.03-.29-.04-.05 0-.1-.02-.15-.02-.13 0-.27.01-.4.03-.46.07-.88.27-1.24.56-.18.14-.35.31-.5.5-.3.38-.55.83-.71 1.35-.16.51-.25 1.08-.25 1.67 0 .3.03.6.08.91.05.3.12.58.2.86.03.09.07.17.1.26.07.18.13.35.21.52.05.1.1.19.16.28.08.14.16.28.25.41.06.09.13.17.2.25.09.11.18.23.28.33.08.08.15.14.23.21.1.09.21.18.32.25.08.06.17.11.26.16.11.06.23.12.34.17.09.04.18.07.28.1q.18.06.36.09c.1.02.19.03.29.04.05 0 .1.02.15.02.13 0 .27-.01.41-.03.46-.07.88-.27 1.24-.56.91-.72 1.47-2.03 1.46-3.52Zm8.3-3.54c.15.03.29.04.44.04.05 0 .09-.01.13-.02.1 0 .19-.02.29-.03.12-.02.24-.05.36-.08.09-.03.18-.06.28-.1.12-.05.23-.11.35-.17.09-.05.17-.1.26-.16.11-.08.22-.16.32-.25.08-.07.16-.13.23-.21.1-.1.2-.21.29-.33.07-.08.14-.16.2-.25.09-.13.17-.27.25-.41.05-.09.11-.18.16-.28.08-.16.15-.34.22-.51.03-.09.08-.17.11-.26.09-.27.16-.55.21-.85.42-2.45-.72-4.7-2.56-5.01-.15-.03-.29-.04-.44-.04-.05 0-.09.01-.13.02-.1 0-.19.02-.29.03-.12.02-.24.05-.36.08-.09.03-.18.06-.28.1-.12.05-.23.11-.34.17-.09.05-.17.1-.26.16-.11.08-.22.16-.32.25-.08.07-.16.13-.23.21-.1.1-.2.21-.29.33-.07.08-.14.16-.2.25-.09.13-.17.27-.25.41-.05.09-.11.18-.16.28-.08.16-.15.34-.22.51-.03.09-.08.17-.11.26-.09.27-.16.55-.21.85-.21 1.23-.03 2.4.43 3.31s1.21 1.55 2.13 1.71Zm8.13 5.61c.05-.09.11-.18.16-.28.08-.16.15-.34.21-.52.03-.09.07-.17.1-.26.09-.27.16-.56.2-.86.05-.31.07-.61.08-.91 0-.59-.08-1.16-.25-1.67-.16-.51-.41-.97-.71-1.35-.15-.19-.32-.36-.5-.5-.36-.29-.78-.48-1.24-.56-.14-.02-.27-.03-.4-.03-.05 0-.1.02-.15.02-.1 0-.19.02-.29.04q-.18.03-.36.09c-.09.03-.19.06-.28.1-.12.05-.23.11-.34.17-.09.05-.17.1-.26.16-.11.08-.21.16-.32.25-.08.07-.16.14-.23.21-.1.1-.19.22-.28.33-.07.08-.14.16-.2.25-.09.13-.17.27-.25.41-.05.09-.11.18-.16.28-.08.16-.14.34-.21.51-.03.09-.07.17-.1.27-.08.27-.15.55-.2.84v.01c-.1.61-.1 1.21-.01 1.77.04.28.1.55.19.8.3.92.85 1.65 1.57 2.07.27.16.56.29.88.34.14.02.27.03.41.03.05 0 .1-.02.15-.02.1 0 .19-.02.29-.04q.18-.03.36-.09c.09-.03.19-.06.28-.1.12-.05.23-.11.34-.17.09-.05.17-.1.26-.16.11-.08.21-.16.32-.25.08-.07.16-.14.23-.21.1-.1.19-.22.28-.33.07-.08.14-.16.2-.25.09-.13.17-.27.25-.41Z"/>
</svg>
