<svg viewBox="0 0 48 48" xmlns="http://www.w3.org/2000/svg">
  <path fill="#1e1e1c" d="m24.39 9.19-2.11 2.1 14.5 14.5 2.11-2.11c3.7-3.7 3.97-9.55.81-13.57L48 1.82V0h-1.71l-8.36 8.36c-4.02-3.13-9.85-2.86-13.54.84Zm12.73 12.73-.34.34L25.82 11.3l.34-.34c3.02-3.02 7.94-3.02 10.96 0s3.02 7.94 0 10.96M1.79 48l8.32-8.32a10.22 10.22 0 0 0 6.34 2.2c2.62 0 5.25-1 7.25-3l2.11-2.11-3.38-3.38 5.33-5.33c.49-.49.49-1.28 0-1.77s-1.28-.49-1.77 0l-5.33 5.33-4.47-4.47 5.33-5.33c.49-.49.49-1.28 0-1.77s-1.28-.49-1.77 0l-5.33 5.33-3.11-3.11-2.1 2.11c-3.69 3.69-3.96 9.5-.85 13.52L0 46.26V48zm9.18-21.85.34-.34 2.18 2.18s.02.05.04.07.05.03.07.04l6.13 6.13s.03.05.05.07.05.03.07.05l2.44 2.44-.34.34c-3.02 3.02-7.94 3.02-10.96 0s-3.02-7.94 0-10.96Z"/>
</svg>
