<svg viewBox="0 0 64 64" xmlns="http://www.w3.org/2000/svg">
  <path fill="#1e1e1c" d="M64.02 29.59 55.38 9.83c-.22-.5-.71-.82-1.26-.82H49.3L42.05.03H15.37v8.98H9.88c-.55 0-1.04.32-1.26.83L.02 29.6v34.42h63.97V29.6l.04-.02Zm-3 .01h-9.76V11.75h1.96zm-13.16-18h-6.97c-.18 0-.32-.15-.32-.32V2.77h.17zM37.82 2.77v8.5c0 1.69 1.38 3.07 3.07 3.07h7.62v15.25H18.12V2.77zm-27.04 8.98h4.59V29.6H3.01zm33.87 36.44H19.36c-.76 0-1.37-.61-1.37-1.37s.61-1.37 1.37-1.37h25.29c.76 0 1.37.61 1.37 1.37s-.61 1.37-1.37 1.37"/>
</svg>
