<svg viewBox="0 0 64 64" xmlns="http://www.w3.org/2000/svg">
  <path fill="#1e1e1c" d="M17.99 46.81c0-.76.61-1.37 1.37-1.37h25.28c.76 0 1.37.61 1.37 1.37s-.61 1.37-1.37 1.37H19.36c-.76 0-1.37-.61-1.37-1.37M63.8 29.6h.17v34.42H.04V29.6H.2l-.2-.09L8.63 9.82c.22-.5.71-.82 1.26-.82h5.49V.03h26.66l7.24 8.98h4.82c.55 0 1.04.32 1.26.82l8.63 19.69-.2.09ZM53.21 11.75h-1.96V29.6h9.79zM40.73 2.77h-.17v8.5c0 .18.15.32.32.32h6.96l-7.12-8.83Zm-22.6 0V29.6h30.38V14.35H40.9c-1.69 0-3.07-1.38-3.07-3.07V2.77H18.14ZM2.96 29.6h12.42V11.75h-4.59zm58.26 2.75H2.78v28.93h58.43V32.35Z"/>
</svg>
