<svg viewBox="0 0 64 64" xmlns="http://www.w3.org/2000/svg">
  <path d="m45.98 26.23 8.44-8.44-16.3.11c-1.15 0-2.07.92-2.07 2.05v34.49l8.47-8.48c.98-.98 2.56-.98 3.53 0s.98 2.56 0 3.53L33.54 64 19.03 49.49c-.98-.98-.98-2.56 0-3.53s2.56-.98 3.53 0l8.48 8.48V35.59c0-1.13-.92-2.05-2.05-2.05H.02v-5H29c.71 0 1.4.11 2.05.31v-8.89c0-3.89 3.16-7.05 7.05-7.05l16.39-.11-8.51-8.52C45 3.3 45 1.72 45.98.75s2.56-.98 3.53 0l14.51 14.51-14.51 14.51c-.49.49-1.13.73-1.77.73s-1.28-.24-1.77-.73c-.98-.98-.98-2.56 0-3.53Z"/>
</svg>
