<svg viewBox="0 0 64 64" xmlns="http://www.w3.org/2000/svg">
  <path d="M64.03 14.46 49.98 28.52c-.27.27-.62.4-.97.4s-.7-.13-.97-.4c-.54-.54-.54-1.41 0-1.95l10.71-10.72-19.63.13c-1.83 0-3.3 1.48-3.3 3.3v39.45l10.73-10.74c.54-.54 1.41-.54 1.94 0 .54.54.54 1.41 0 1.95L34.44 64 20.39 49.94c-.54-.54-.54-1.41 0-1.95s1.41-.54 1.94 0l10.73 10.74V36.49c0-1.82-1.48-3.3-3.3-3.3H.03v-2.75h29.74c1.22 0 2.35.36 3.3.99V19.28c0-3.34 2.71-6.05 6.04-6.05l19.68-.13L48.04 2.34c-.54-.54-.54-1.41 0-1.95s1.41-.54 1.94 0l14.05 14.06Z"/>
</svg>
