<svg viewBox="0 0 48 48" xmlns="http://www.w3.org/2000/svg">
  <path d="M43.44 37.82h-1.89V5.09C41.55 2.28 39.5 0 36.99 0H4.43C1.98.09 0 2.33 0 5.09s2.04 5.09 4.56 5.09c.74 0 1.43-.22 2.04-.57v32.06c-.09.4-.15.81-.15 1.24 0 1.32.45 2.58 1.27 3.53.84.97 1.96 1.51 3.17 1.55s32.56.01 32.56.01c2.51 0 4.56-2.28 4.56-5.09s-2.04-5.09-4.56-5.09ZM19.94 7.55l1.49 4.03 4.03 1.49-4.03 1.49-1.49 4.03-1.49-4.03-4.03-1.49 4.03-1.49zm-6.48-1.5.95-2.57.95 2.57 2.57.95-2.57.95-.95 2.57-.95-2.57L10.89 7zM4.55 7.67c-1.13 0-2.04-1.16-2.04-2.58s.92-2.58 2.04-2.58 2.04 1.16 2.04 2.58-.92 2.58-2.04 2.58m4.41 35.24c0-1.42.92-2.58 2.04-2.58s2.04 1.16 2.04 2.58-.92 2.58-2.04 2.58c-.51 0-1-.24-1.38-.69-.43-.5-.66-1.17-.66-1.89m26.92-8.49H12.51v-2.51h23.37zm0-5.98H12.51v-2.51h23.37zm0-5.99H12.51v-2.51h23.37zm0-5.98h-7.75v-2.51h7.75z"/>
</svg>
