<svg viewBox="0 0 64 64" xmlns="http://www.w3.org/2000/svg">
  <path d="M58.17 50.92h-2.86V6.53C55.31 2.92 52.7 0 49.49 0H5.66C2.52.1 0 2.98 0 6.53s2.61 6.54 5.82 6.54c1.13 0 2.18-.37 3.07-.99v43.69c-.13.54-.2 1.1-.2 1.69 0 1.71.58 3.32 1.63 4.55 1.07 1.24 2.49 1.94 4.03 1.98s43.84 0 43.84 0c3.21 0 5.82-2.93 5.82-6.54s-2.61-6.54-5.82-6.54Zm-31.39-40.7 1.89 5.11 5.12 1.89-5.12 1.89-1.89 5.11-1.89-5.11-5.12-1.89 5.12-1.89zm-8.09-1.08 1.08-2.92 1.08 2.92 2.92 1.08-2.92 1.08-1.08 2.92-1.08-2.92-2.92-1.08zm-8.07-6.4v.11s-.05-.07-.07-.11zm-4.8 7.57c-1.69 0-3.07-1.7-3.07-3.79s1.38-3.79 3.07-3.79 3.07 1.7 3.07 3.79-1.38 3.79-3.07 3.79m5.61 47.14c0-2.09 1.38-3.79 3.07-3.79s3.07 1.7 3.07 3.79-1.38 3.79-3.07 3.79c-.78 0-1.53-.37-2.1-1.03-.62-.72-.97-1.7-.97-2.75ZM48 45.71H16.53v-2.75H48zm0-8.06H16.53V34.9H48zm0-8.06H16.53v-2.75H48zm0-8.06H37.56v-2.75H48z"/>
</svg>
