<svg viewBox="0 0 16 16" xmlns="http://www.w3.org/2000/svg">
  <path d="M14.2 12.05h-.25V1.97C13.94.88 13.13 0 12.14 0H1.76C.79.02 0 .9 0 1.97s.81 1.97 1.8 1.97c.1 0 .2-.02.3-.03v9.68c-.03.14-.05.29-.05.44 0 .51.17.99.49 1.35.33.38.79.6 1.28.62s10.38 0 10.38 0c.99 0 1.8-.88 1.8-1.97s-.81-1.97-1.8-1.97ZM1.8 2.44c-.14 0-.3-.2-.3-.47s.16-.47.3-.47.3.2.3.47-.16.47-.3.47M3.86 14.5c-.08 0-.14-.05-.18-.1a.57.57 0 0 1-.13-.37c0-.27.16-.47.3-.47s.3.2.3.47-.16.47-.3.47ZM5.8 3.36l.54-1.46.54 1.46 1.46.54-1.46.54-.54 1.46-.54-1.46-1.46-.54zm5.98 7.36H4.33v-1.5h7.45zm0-2.99H4.33v-1.5h7.45zm0-2.99H9.31v-1.5h2.47z"/>
</svg>
