<svg viewBox="0 0 40 40" xmlns="http://www.w3.org/2000/svg">
  <path d="M36.13 31.38h-1.49V4.3c.01-2.37-1.73-4.3-3.86-4.3H3.76C1.68.06 0 1.96 0 4.3s1.73 4.31 3.86 4.31c.58 0 1.12-.15 1.61-.41v26.45c-.07.33-.13.68-.13 1.04 0 1.12.38 2.18 1.07 2.98.71.83 1.67 1.28 2.69 1.31s27.02.01 27.02.01c2.13 0 3.86-1.93 3.86-4.31s-1.73-4.31-3.86-4.31ZM32.39 4.3v27.08H9.11c-.49.02-.96.13-1.39.33V4.11H7.7c-.03-.68-.2-1.31-.47-1.87h23.54c.89 0 1.61.92 1.61 2.06ZM3.86 6.36c-.89 0-1.61-.92-1.61-2.06s.72-2.06 1.61-2.06 1.61.92 1.61 2.06-.72 2.06-1.61 2.06M7.6 35.69c0-1.13.72-2.06 1.61-2.06s1.61.92 1.61 2.06-.72 2.06-1.61 2.06c-.4 0-.78-.19-1.08-.54-.34-.4-.53-.93-.53-1.51Zm28.53 2.05H12.59c.3-.61.49-1.31.49-2.06s-.19-1.44-.49-2.06h23.54c.89 0 1.61.92 1.61 2.06s-.72 2.06-1.61 2.06M11.95 10.66l3.29-1.22 1.22-3.29 1.22 3.29 3.29 1.22-3.29 1.22-1.22 3.29-1.22-3.29zM11.14 7l-2.19-.81 2.19-.81.81-2.19.81 2.19 2.19.81-2.19.81-.81 2.19zm18.72 6.83h-6.44v-2.25h6.44zm-19.4 2.71h19.4v2.25h-19.4zm0 4.97h19.4v2.25h-19.4zm0 4.97h19.4v2.25h-19.4z"/>
</svg>
