<svg viewBox="0 0 24 24" xmlns="http://www.w3.org/2000/svg">
  <path d="M21.51 18.49h-.66V2.75C20.84 1.23 19.72 0 18.35 0H2.43C1.08.04 0 1.25 0 2.75S1.12 5.5 2.49 5.5c.26 0 .5-.06.74-.14v15.25c-.04.21-.07.42-.07.64 0 .71.24 1.38.68 1.9.45.53 1.09.83 1.75.85s15.92 0 15.92 0c1.37 0 2.49-1.23 2.49-2.75s-1.12-2.75-2.49-2.75ZM2.49 3.74c-.4 0-.74-.46-.74-1s.34-1 .74-1 .74.46.74 1-.34 1-.74 1m6.13 1.13.83-2.24.83 2.24 2.24.83-2.24.83-.83 2.24-.83-2.24-2.24-.83zM5.64 22.24c-.23 0-.4-.15-.48-.25-.17-.19-.26-.47-.26-.75 0-.54.34-1 .74-1s.74.46.74 1-.34 1-.74 1m12.17-6.35H6.38v-1.75h11.43zm0-4.58H6.38V9.56h11.43zm0-4.59h-3.79V4.97h3.79z"/>
</svg>
