<svg viewBox="0 0 48 48" xmlns="http://www.w3.org/2000/svg">
  <path d="m36.29 19.67-4.32-11.7-4.32 11.7L15.97 24l11.68 4.33 4.32 11.7 4.32-11.7L47.97 24zm-1.95 6.71-2.38 6.44-2.38-6.44L23.15 24l6.43-2.38 2.38-6.44 2.38 6.44L40.77 24zm-23.03-1.11-3.06 8.3-8.29 3.06 8.28 3.07L11.3 48l3.06-8.3 8.28-3.07-8.28-3.07-3.06-8.3Zm1.12 12.49-1.12 3.04-1.12-3.04-3.03-1.13 3.03-1.13 1.12-3.04 1.12 3.04 3.03 1.13zm-1.12-15.02 3.06-8.3 8.28-3.07-8.28-3.07L11.31 0 8.25 8.3l-8.29 3.07 8.28 3.07 3.06 8.3Zm-1.12-12.49 1.12-3.04 1.12 3.04 3.03 1.13-3.03 1.13-1.12 3.04-1.12-3.04-3.03-1.13z"/>
</svg>
