<svg viewBox="0 0 16 16" xmlns="http://www.w3.org/2000/svg">
  <path fill="#1e1e1c" d="M15 9.76c-.64-.37-1.39-.34-1.99 0l-1.75-1.03V7.48l1.92-1.06c.26.12.54.19.83.19a2.02 2.02 0 0 0 1.94-1.49c.14-.52.07-1.06-.2-1.52s-.7-.8-1.22-.93c-.52-.14-1.06-.07-1.52.2s-.8.7-.94 1.22c-.06.23-.08.46-.05.7l-1.05.58c-.27-.37-.71-.61-1.2-.61h-.75V3.74c.6-.35 1.01-.99 1.01-1.73a2.01 2.01 0 0 0-4.02 0c0 .74.41 1.38 1.01 1.73v1.02h-.75c-.48 0-.9.23-1.17.57L4.02 4.7c.03-.72-.32-1.43-.99-1.82-.46-.27-1.01-.34-1.52-.2-.52.14-.95.47-1.22.93-.55.96-.22 2.19.73 2.74a1.98 1.98 0 0 0 1.52.2c.15-.04.28-.1.41-.16l1.81 1.07v1.29L3 9.8c-.6-.34-1.35-.36-1.99 0-.46.27-.8.7-.94 1.22s-.07 1.06.2 1.52.7.8 1.22.93a1.98 1.98 0 0 0 1.52-.2c.46-.27.8-.7.94-1.22.05-.18.06-.36.06-.54l1.19-.71c.27.27.65.44 1.06.44h.75v1.02c-.6.35-1.01.99-1.01 1.73a2.01 2.01 0 0 0 4.02 0c0-.74-.41-1.38-1.01-1.73v-1.02h.75c.42 0 .8-.17 1.07-.45l1.17.69c0 .18.01.35.06.53.14.52.47.95.94 1.22.32.18.66.27 1 .27.69 0 1.37-.36 1.74-1 .27-.46.34-1.01.2-1.52s-.47-.95-.93-1.22ZM8.75 8.75h-1.5v-1.5h1.5z"/>
</svg>
