<svg viewBox="0 0 64 64" xmlns="http://www.w3.org/2000/svg">
  <path fill="#1e1e1c" d="M56.51 38.56c-1.93 0-3.69.74-5.02 1.95l-8.43-4.98V29.3l8.64-4.73a7.46 7.46 0 0 0 4.8 1.75c4.13 0 7.5-3.36 7.5-7.49s-3.36-7.49-7.5-7.49S49 14.7 49 18.83c0 .5.05.98.14 1.45l-6.1 3.34a2.743 2.743 0 0 0-2.74-2.67h-5.82v-6.36c2.91-1.03 5-3.8 5-7.06.02-4.14-3.35-7.5-7.48-7.5s-7.5 3.36-7.5 7.49c0 3.25 2.09 6.02 5 7.06v6.36h-5.82c-1.49 0-2.7 1.19-2.74 2.67l-6.14-3.36c.12-.54.19-1.09.19-1.66 0-4.13-3.36-7.49-7.5-7.49S0 14.45 0 18.59s3.36 7.49 7.5 7.49c1.74 0 3.34-.6 4.62-1.6l8.81 4.83v6.25l-8.48 5.11a7.43 7.43 0 0 0-4.95-1.88C3.37 38.78 0 42.14 0 46.27s3.36 7.49 7.5 7.49S15 50.4 15 46.27c0-.43-.04-.84-.11-1.25l6.24-3.75a2.74 2.74 0 0 0 2.56 1.78h5.82v6.42c-2.91 1.03-5 3.8-5 7.06 0 4.13 3.36 7.49 7.5 7.49s7.5-3.36 7.5-7.49c0-3.25-2.09-6.02-5-7.06v-6.42h5.82c1.19 0 2.2-.76 2.58-1.83l6.22 3.67c-.06.38-.1.76-.1 1.15 0 4.13 3.36 7.49 7.5 7.49s7.5-3.36 7.5-7.49-3.36-7.49-7.5-7.49ZM32 5.02a2.5 2.5 0 0 1 0 5 2.5 2.5 0 0 1 0-5m0 54.01a2.5 2.5 0 0 1 0-5 2.5 2.5 0 0 1 0 5m24.51-42.7a2.5 2.5 0 0 1 0 5 2.5 2.5 0 0 1 0-5M7.5 21.08a2.5 2.5 0 0 1 0-5 2.5 2.5 0 0 1 0 5m0 27.69a2.5 2.5 0 0 1 0-5 2.5 2.5 0 0 1 0 5m30.57-10.71H25.94V25.93h12.13zm18.44 10.49a2.5 2.5 0 0 1 0-5 2.5 2.5 0 0 1 0 5"/>
</svg>
