<svg viewBox="0 0 24 24" xmlns="http://www.w3.org/2000/svg">
  <path fill="#1e1e1c" d="M20.75 13.75c-.67 0-1.3.21-1.82.56l-2.42-1.43v-1.45l2.52-1.38c.5.32 1.09.51 1.72.51 1.79 0 3.25-1.46 3.25-3.25s-1.46-3.25-3.25-3.25-3.25 1.46-3.25 3.25c0 .05.01.1.02.15l-1.37.75c-.32-.42-.82-.7-1.39-.7h-1.25V6.12a3.23 3.23 0 0 0 1.75-2.86C15.25 1.46 13.79 0 12 0S8.75 1.46 8.75 3.25c0 1.25.72 2.32 1.75 2.86V7.5H9.25c-.57 0-1.07.28-1.39.7l-1.37-.75c0-.05.02-.1.02-.15 0-1.79-1.46-3.25-3.25-3.25S0 5.51 0 7.3s1.46 3.25 3.25 3.25c.64 0 1.22-.19 1.73-.51l2.52 1.38v1.47l-2.4 1.44a3.2 3.2 0 0 0-1.85-.58C1.46 13.75 0 15.21 0 17s1.46 3.25 3.25 3.25S6.5 18.79 6.5 17l1.58-.95c.31.28.72.46 1.17.46h1.25v1.39a3.23 3.23 0 0 0-1.75 2.86c0 1.79 1.46 3.25 3.25 3.25s3.25-1.46 3.25-3.25c0-1.25-.72-2.32-1.75-2.86v-1.39h1.25c.46 0 .87-.18 1.18-.47l1.56.92v.05c0 1.79 1.46 3.25 3.25 3.25s3.25-1.46 3.25-3.25-1.46-3.25-3.25-3.25Zm-7.25-.25h-3v-3h3z"/>
</svg>
