<svg viewBox="0 0 64 64" xmlns="http://www.w3.org/2000/svg">
  <path d="m48.69 26.34-5.66-15.3-5.66 15.3L22.06 32l15.31 5.66 5.66 15.3 5.66-15.3L64 32zm-2.14 9.18-3.52 9.52-3.53-9.52L29.97 32l9.53-3.52 3.53-9.52 3.52 9.52L56.08 32zm-31.96-.69-3.94 10.65L0 49.42l10.65 3.94L14.59 64l3.94-10.64 10.65-3.94-10.65-3.94zm1.81 16.39-1.8 4.87-1.8-4.87-4.87-1.8 4.87-1.8 1.8-4.87 1.8 4.87 4.87 1.8zm-1.81-22.05 3.94-10.64 10.65-3.94-10.65-3.94L14.59 0l-3.94 10.64L0 14.59l10.65 3.94zm-1.8-16.38 1.8-4.87 1.8 4.87 4.87 1.8-4.87 1.8-1.8 4.87-1.8-4.87-4.87-1.8z"/>
</svg>
