<svg viewBox="0 0 64 64" xmlns="http://www.w3.org/2000/svg">
  <path fill="#1e1e1c" d="M57.4 40.71c-1.78 0-3.4.71-4.59 1.87l-8.86-5.22v-10.6l8.79-4.88a6.6 6.6 0 0 0 4.63 1.9c3.64 0 6.6-2.96 6.6-6.6s-2.96-6.6-6.6-6.6-6.6 2.96-6.6 6.6c0 .85.17 1.65.46 2.4l-7.27 4.04v-1.95c0-.9-.73-1.63-1.63-1.63h-8.96v-6.98A6.62 6.62 0 0 0 38.6 6.6C38.6 2.97 35.64 0 32 0s-6.6 2.96-6.6 6.6c0 3.17 2.25 5.82 5.23 6.46v6.98h-8.96c-.9 0-1.63.73-1.63 1.63v1.95l-7.28-4.04c.29-.74.46-1.55.46-2.39 0-3.64-2.96-6.6-6.6-6.6S0 13.54 0 17.18s2.96 6.6 6.6 6.6c1.8 0 3.44-.73 4.63-1.9l8.8 4.88V37.4l-8.45 5.09a6.58 6.58 0 0 0-4.97-2.27C2.97 40.21 0 43.17 0 46.81s2.96 6.6 6.6 6.6 6.6-2.96 6.6-6.6c0-.67-.1-1.32-.29-1.93l7.11-4.28v1.72c0 .9.73 1.63 1.63 1.63h8.96v6.98c-2.99.63-5.24 3.29-5.24 6.46 0 3.64 2.96 6.6 6.6 6.6s6.6-2.96 6.6-6.6c0-3.16-2.24-5.81-5.21-6.45v-6.99h8.96c.9 0 1.63-.73 1.63-1.63v-1.78l7.32 4.31c-.3.76-.48 1.58-.48 2.45 0 3.64 2.96 6.6 6.6 6.6s6.6-2.96 6.6-6.6-2.96-6.6-6.6-6.6Zm-.03-27.38c2.12 0 3.85 1.73 3.85 3.85s-1.73 3.85-3.85 3.85-3.85-1.73-3.85-3.85 1.73-3.85 3.85-3.85M28.15 6.61c0-2.12 1.73-3.85 3.85-3.85s3.85 1.73 3.85 3.85-1.73 3.85-3.85 3.85-3.85-1.73-3.85-3.85M6.61 21.03c-2.12 0-3.85-1.73-3.85-3.85s1.73-3.85 3.85-3.85 3.85 1.73 3.85 3.85-1.73 3.85-3.85 3.85m0 29.64c-2.12 0-3.85-1.73-3.85-3.85s1.73-3.85 3.85-3.85 3.85 1.73 3.85 3.85-1.73 3.85-3.85 3.85m29.23 6.73c0 2.12-1.73 3.85-3.85 3.85s-3.85-1.73-3.85-3.85 1.73-3.85 3.85-3.85 3.85 1.73 3.85 3.85m5.37-16.19H22.79V22.79h18.42zm16.19 9.96c-2.12 0-3.85-1.73-3.85-3.85s1.73-3.85 3.85-3.85 3.85 1.73 3.85 3.85-1.73 3.85-3.85 3.85"/>
</svg>
