<svg viewBox="0 0 32 32" xmlns="http://www.w3.org/2000/svg">
  <path d="M28.82 24.94h-1.08V3.52c0-1.94-1.42-3.52-3.17-3.52H3.09C1.38.05 0 1.61 0 3.52s1.43 3.53 3.18 3.53c.42 0 .81-.09 1.18-.26v20.84c-.06.27-.1.55-.1.83 0 .91.31 1.78.88 2.44.59.68 1.37 1.06 2.22 1.08s21.47 0 21.47 0c1.75 0 3.18-1.58 3.18-3.53s-1.43-3.53-3.18-3.53ZM25.74 3.52v21.42H7.35c-.35.02-.68.1-1 .22V3H6.3c-.05-.36-.14-.7-.28-1.01h18.54c.64 0 1.18.7 1.18 1.53M3.17 5.05c-.64 0-1.18-.7-1.18-1.53s.54-1.53 1.18-1.53 1.18.7 1.18 1.53-.54 1.53-1.18 1.53M6.65 29.6c-.25-.3-.4-.7-.4-1.14h.1v-.6c.18-.54.6-.93 1.08-.93.64 0 1.18.7 1.18 1.53s-.54 1.53-1.18 1.53c-.39 0-.66-.25-.78-.39m22.17.39H10.28c.2-.46.33-.98.33-1.53s-.12-1.06-.33-1.53h18.54c.64 0 1.18.7 1.18 1.53s-.54 1.53-1.18 1.53M11.44 8.63 8.42 7.51l3.02-1.12 1.12-3.02 1.12 3.02 3.02 1.12-3.02 1.12-1.12 3.02zm12.39 2.57h-5.11v-2h5.11zM8.42 13.15h15.41v2H8.42zm0 3.94h15.41v2H8.42zm0 3.95h15.41v2H8.42z"/>
</svg>
