<svg viewBox="0 0 64 64" xmlns="http://www.w3.org/2000/svg">
  <path d="M58.17 50.92h-2.86V6.53C55.31 2.92 52.7 0 49.49 0H5.66C2.52.1 0 2.98 0 6.53s2.61 6.54 5.82 6.54c1.13 0 2.18-.37 3.07-.99v43.69c-.13.54-.2 1.1-.2 1.69 0 1.71.58 3.32 1.63 4.55 1.07 1.24 2.49 1.94 4.03 1.98s43.84 0 43.84 0c3.21 0 5.82-2.93 5.82-6.54s-2.61-6.54-5.82-6.54ZM52.56 6.53v44.39H14.34c-.98.04-1.9.34-2.7.85V6.22h-.01a7 7 0 0 0-1.07-3.48H49.5c1.69 0 3.07 1.7 3.07 3.79ZM5.82 10.31c-1.69 0-3.07-1.7-3.07-3.79s1.38-3.79 3.07-3.79 3.07 1.7 3.07 3.79-1.38 3.79-3.07 3.79m5.61 47.14c0-2.09 1.38-3.79 3.07-3.79s3.07 1.7 3.07 3.79-1.38 3.79-3.07 3.79c-.78 0-1.53-.37-2.1-1.03-.62-.72-.97-1.7-.97-2.75Zm46.74 3.79H19.23c.68-1.07 1.08-2.37 1.08-3.79s-.4-2.72-1.08-3.79h38.94c1.69 0 3.07 1.7 3.07 3.79s-1.38 3.79-3.07 3.79m-38.4-44.01 5.12-1.89 1.89-5.11 1.89 5.11 5.12 1.89-5.12 1.89-1.89 5.11-1.89-5.11zm-1.08-5.93-2.92-1.08 2.92-1.08 1.08-2.92 1.08 2.92 2.92 1.08-2.92 1.08-1.08 2.92zM48 21.53H37.56v-2.75H48zm-31.48 5.31h31.47v2.75H16.52zm0 8.06h31.47v2.75H16.52zm0 8.06h31.47v2.75H16.52z"/>
</svg>
