<svg viewBox="0 0 16 16" xmlns="http://www.w3.org/2000/svg">
  <path fill="#1e1e1c" d="M14.02 9.65c-.41 0-.8.13-1.12.35l-1.65-.97V7.02l1.6-.89c.32.23.72.37 1.14.37 1.1 0 1.99-.89 1.99-1.99s-.89-1.99-1.99-1.99S12 3.41 12 4.51c0 .12.01.24.04.35l-.89.49a.99.99 0 0 0-.91-.59h-1.5v-.91c.72-.3 1.24-1.01 1.24-1.84a1.985 1.985 0 1 0-3.97-.02c0 .83.51 1.54 1.24 1.84v.91h-1.5c-.41 0-.75.25-.91.59l-.89-.5c.02-.11.04-.23.04-.35 0-1.1-.89-1.99-1.99-1.99S0 3.4 0 4.5s.89 1.99 1.99 1.99c.43 0 .82-.14 1.14-.37l1.61.9v2.02l-1.53.91c-.34-.27-.76-.43-1.22-.43C.9 9.52 0 10.41 0 11.5s.89 1.99 1.99 1.99 1.99-.89 1.99-1.99c0-.09-.01-.17-.03-.25l.91-.55c.17.32.49.54.88.54h1.5v.93c-.72.3-1.24 1.01-1.24 1.84 0 1.1.89 1.99 1.99 1.99a1.989 1.989 0 0 0 .75-3.83v-.93h1.5c.39 0 .72-.23.89-.56l.94.55a1.99 1.99 0 0 0 1.95 2.38c1.1 0 1.99-.89 1.99-1.99s-.89-1.99-1.99-1.99ZM8 1.51c.27 0 .49.22.49.49s-.22.48-.49.48-.49-.22-.49-.48.22-.49.49-.49m0 13c-.27 0-.49-.22-.49-.49s.22-.48.49-.48.49.22.49.48-.22.49-.49.49m6-10.5c.27 0 .48.22.48.49s-.22.49-.48.49-.49-.22-.49-.49.22-.49.49-.49M1.51 4.5c0-.27.22-.49.49-.49s.48.22.48.49-.22.49-.48.49-.49-.22-.49-.49M2 11.99a.49.49 0 0 1 0-.98c.27 0 .48.22.48.49s-.22.49-.48.49m7.75-2.24h-3.5v-3.5h3.5zm4.27 2.37c-.27 0-.49-.22-.49-.49s.22-.48.49-.48.48.22.48.48-.22.49-.48.49"/>
</svg>
