<svg viewBox="0 0 32 32" xmlns="http://www.w3.org/2000/svg">
  <path d="M17.48 5.89c0 .83-.67 1.5-1.5 1.5s-1.5-.67-1.5-1.5.67-1.5 1.5-1.5 1.5.67 1.5 1.5M9.51 19.23 4 27.69V12.12h23.99v15.91h-3.56l-5.73-8.8-4.6 7.06-4.6-7.06Zm11.36-3.14c0 1.65 1.34 3 3 3s3-1.34 3-3-1.34-3-3-3-3 1.34-3 3M32 7.59v24.4H0V7.59h7.01l5.96-6.35c1.71-1.64 4.3-1.66 5.97-.1l6.23 6.45h6.82Zm-20.19 0h8.5l-3.82-3.96c-.24-.22-.72-.22-1.02.07zM30 10.11H2v19.91h28zm-14.63 17.9h6.66l-3.33-5.12zm8.5-10.92c.55 0 1-.45 1-1s-.45-1-1-1-1 .45-1 1 .45 1 1 1M6.18 28.01h6.66l-3.33-5.12z"/>
</svg>
