<svg viewBox="0 0 40 40" xmlns="http://www.w3.org/2000/svg">
  <path d="m31.13 9.46-8.19-8.33c-1.67-1.54-4.26-1.52-5.95.08L9.1 9.46H0v30.53h40V9.46zM18.58 2.8c.79-.75 2.03-.75 2.79-.06l6.6 6.72H12.22zm19.16 34.94H2.24V11.71h35.5zm-8.44-14.1c2.07 0 3.75-1.68 3.75-3.75s-1.68-3.75-3.75-3.75-3.75 1.68-3.75 3.75 1.68 3.75 3.75 3.75m0-5.25c.83 0 1.5.67 1.5 1.5s-.67 1.5-1.5 1.5-1.5-.67-1.5-1.5.67-1.5 1.5-1.5M21.09 4.17c0 .62-.5 1.13-1.13 1.13s-1.13-.5-1.13-1.13.5-1.13 1.13-1.13 1.13.5 1.13 1.13M3.75 36.22v.02h32.49V13.21H3.75zm4.13-2.25 4.62-7.11 4.62 7.11zm12 0 4.62-7.11 4.62 7.11h-9.25ZM6 15.46h27.99v18.53h-2.16L24.5 22.73l-6 9.22-6-9.22-6.51 10V15.46Z"/>
</svg>
