<svg viewBox="0 0 16 16" xmlns="http://www.w3.org/2000/svg">
  <path fill="#1e1e1c" d="M10.5 16.01H1.97V4.94c0-.73.35-1.41.95-1.83L6.7.42a2.27 2.27 0 0 1 2.61 0l3.78 2.68c.59.42.95 1.11.95 1.83v9.31c0 .41-.34.75-.75.75s-.75-.34-.75-.75v-9.3a.75.75 0 0 0-.32-.61L8.44 1.65a.735.735 0 0 0-.87 0L3.79 4.33a.75.75 0 0 0-.32.61v9.56H9V6.06l-1-.72-1.01.72v6.68c0 .41-.34.75-.75.75s-.75-.34-.75-.75V5.8c0-.32.16-.63.42-.82l1.5-1.07a.99.99 0 0 1 1.16 0l1.51 1.07c.26.19.42.49.42.81v10.2Zm-3.71-9.8"/>
</svg>
