<svg viewBox="0 0 48 48" xmlns="http://www.w3.org/2000/svg">
  <path fill="#1e1e1c" d="M30.48 48.02H6.94V13.8c0-1.86.9-3.61 2.42-4.68l11.3-8.04a5.76 5.76 0 0 1 6.65 0l11.3 8.04a5.74 5.74 0 0 1 2.41 4.68v29.98a1.25 1.25 0 0 1-2.5 0V13.8c0-1.05-.51-2.04-1.36-2.64L25.87 3.11c-1.12-.8-2.64-.8-3.76 0L10.8 11.15c-.86.61-1.37 1.6-1.37 2.65v31.73h18.55V16.65l-4-2.85-4.01 2.85v22.61a1.25 1.25 0 0 1-2.5 0V16.4c0-.64.31-1.25.84-1.63l4.51-3.21c.7-.5 1.63-.49 2.32 0l4.5 3.21c.52.37.84.98.84 1.63v31.64Z"/>
</svg>
