<svg viewBox="0 0 64 64" xmlns="http://www.w3.org/2000/svg">
  <path fill="#1e1e1c" d="M40.37 64H9.5V18.11c0-2.38 1.16-4.63 3.1-6.01L27.71 1.36a7.38 7.38 0 0 1 8.55 0l15.1 10.74a7.4 7.4 0 0 1 3.1 6.01v40.51c0 .76-.62 1.38-1.38 1.38s-1.38-.62-1.38-1.38V18.11c0-1.49-.73-2.9-1.94-3.77L34.66 3.6a4.63 4.63 0 0 0-5.36 0L14.2 14.34a4.64 4.64 0 0 0-1.95 3.77v43.14h25.37V21.76l-5.64-4.02-5.65 4.02v30.35c0 .76-.62 1.38-1.38 1.38s-1.38-.62-1.38-1.38V21.57c0-.77.37-1.49 1-1.93l6.02-4.29c.82-.59 1.93-.59 2.76 0l6.02 4.29c.63.45 1 1.17 1 1.93z"/>
</svg>
