<svg viewBox="0 0 64 64" xmlns="http://www.w3.org/2000/svg">
  <path d="M35.3 43.44c0 1.82-1.48 3.3-3.3 3.3s-3.3-1.48-3.3-3.3 1.48-3.3 3.3-3.3 3.3 1.48 3.3 3.3M57.47 6v58H6.53V6c0-1.66.67-3.16 1.76-4.24A5.95 5.95 0 0 1 12.52 0h38.94c3.31 0 6 2.69 6 6ZM23 15.13a9 9 0 1 0 18.001-.001A9 9 0 0 0 23 15.13m25 28.31c0-8.84-7.16-16-16-16s-16 7.16-16 16 7.16 16 16 16 16-7.16 16-16m-2.75 0c0 7.31-5.94 13.25-13.25 13.25s-13.25-5.94-13.25-13.25S24.69 30.19 32 30.19s13.25 5.94 13.25 13.25m-7.2 0c0-3.34-2.71-6.05-6.05-6.05s-6.05 2.71-6.05 6.05 2.71 6.05 6.05 6.05 6.05-2.71 6.05-6.05m-12.3-28.31c0-3.45 2.8-6.25 6.25-6.25s6.25 2.8 6.25 6.25-2.8 6.25-6.25 6.25-6.25-2.8-6.25-6.25m4.25 0c0 1.1.9 2 2 2s2-.9 2-2-.9-2-2-2-2 .9-2 2"/>
</svg>
