<svg viewBox="0 0 64 64" xmlns="http://www.w3.org/2000/svg">
  <path fill="#1e1e1c" d="M36.59 32.59H22.87v-3.91h13.74zm20.16-18.53v49.99H7.41V.04h38.03l11.3 14.01ZM39.36 25.93H20.13l-.08 16.56c-.34-.1-.7-.17-1.08-.17-2.11 0-3.82 1.72-3.82 3.82s1.72 3.82 3.82 3.82 3.65-1.57 3.79-3.54c.02-.09.03-.18.03-.28v-10.8h13.79v7.15c-.34-.1-.7-.17-1.08-.17-2.11 0-3.82 1.72-3.82 3.82s1.72 3.82 3.82 3.82 3.65-1.57 3.79-3.54c.02-.09.03-.18.03-.28l.02-20.21Zm14.02-10.08L40.94 1.42V13.1a2.76 2.76 0 0 0 2.76 2.76h9.68Z"/>
</svg>
