<svg viewBox="0 0 40 40" xmlns="http://www.w3.org/2000/svg">
  <path fill="#1e1e1c" d="M28.38-.01H4.53v40h30.96V8.81zm4.28 8.9h-5.5a.57.57 0 0 1-.57-.57V2.24h.71zM6.78 37.74V2.24h17.56v6.07c0 1.56 1.27 2.82 2.83 2.82h6.07v26.6H6.78Zm7-11.35c-.13-.02-.27-.04-.41-.04-1.47 0-2.66 1.19-2.66 2.66s1.19 2.66 2.66 2.66 2.66-1.19 2.66-2.66v-6.5h7.79v3.88c-.13-.02-.27-.04-.41-.04-1.47 0-2.66 1.19-2.66 2.66s1.19 2.66 2.66 2.66 2.66-1.19 2.66-2.66V16.09H13.82l-.05 10.3Zm2.31-8.05h7.76v1.92h-7.76z"/>
</svg>
