<svg viewBox="0 0 32 32" xmlns="http://www.w3.org/2000/svg">
  <path d="M17.02 21.72c0 .56-.46 1.02-1.02 1.02s-1.02-.46-1.02-1.02.46-1.02 1.02-1.02 1.02.46 1.02 1.02M13.5 7.56a2.5 2.5 0 0 1 5 0 2.5 2.5 0 0 1-5 0m1.5 0c0 .55.45 1 1 1s1-.45 1-1-.45-1-1-1-1 .45-1 1M28.74 3v29H3.26V3c0-1.66 1.34-3 3-3h19.47c1.66 0 3 1.34 3 3ZM11.5 7.56c0 2.49 2.01 4.5 4.5 4.5s4.5-2.01 4.5-4.5-2.01-4.5-4.5-4.5-4.5 2.01-4.5 4.5M24 21.72c0-4.42-3.58-8-8-8s-8 3.58-8 8 3.58 8 8 8 8-3.58 8-8m-2 0c0 3.31-2.69 6-6 6s-6-2.69-6-6 2.69-6 6-6 6 2.69 6 6m-2.98 0c0-1.67-1.35-3.02-3.02-3.02s-3.02 1.35-3.02 3.02 1.35 3.02 3.02 3.02 3.02-1.35 3.02-3.02"/>
</svg>
