<svg viewBox="0 0 40 40" xmlns="http://www.w3.org/2000/svg">
  <path d="M31.92 0H8.08c-2.21 0-4 1.79-4 4v36h31.84V4c0-2.21-1.79-4-4-4m1.75 37.75H6.33V4c0-.96.79-1.75 1.75-1.75h23.84c.96 0 1.75.79 1.75 1.75zM20 15.08c3.11 0 5.62-2.52 5.62-5.62S23.1 3.84 20 3.84s-5.62 2.52-5.62 5.62 2.52 5.62 5.62 5.62m0-9c1.86 0 3.38 1.51 3.38 3.38s-1.51 3.38-3.38 3.38-3.38-1.51-3.38-3.38S18.13 6.08 20 6.08m-1.25 3.37a1.25 1.25 0 1 1 2.5 0 1.25 1.25 0 0 1-2.5 0m1.25 7.7c-5.52 0-10 4.48-10 10s4.48 10 10 10 10-4.48 10-10-4.48-10-10-10m0 17.75c-4.27 0-7.75-3.48-7.75-7.75S15.73 19.4 20 19.4s7.75 3.48 7.75 7.75S24.27 34.9 20 34.9m0-11.53c-2.09 0-3.78 1.69-3.78 3.78s1.69 3.78 3.78 3.78 3.78-1.69 3.78-3.78-1.69-3.78-3.78-3.78m0 5.31c-.84 0-1.53-.69-1.53-1.53s.69-1.53 1.53-1.53 1.53.69 1.53 1.53-.69 1.53-1.53 1.53"/>
</svg>
