<svg viewBox="0 0 24 24" xmlns="http://www.w3.org/2000/svg">
  <path d="M19.3 0H4.7C3.46 0 2.45 1.01 2.45 2.25V24h19.1V2.25C21.55 1.01 20.54 0 19.3 0m.5 22.25H4.2v-20c0-.28.22-.5.5-.5h14.6c.28 0 .5.22.5.5zM12 9.8c1.86 0 3.38-1.51 3.38-3.38S13.87 3.04 12 3.04 8.62 4.55 8.62 6.42 10.13 9.8 12 9.8m0-5a1.62 1.62 0 1 1 0 3.24 1.62 1.62 0 0 1 0-3.24m0 6.61c-2.69 0-4.88 2.18-4.88 4.88S9.3 21.17 12 21.17s4.88-2.18 4.88-4.88-2.18-4.88-4.88-4.88m0 8c-1.72 0-3.12-1.4-3.12-3.12s1.4-3.12 3.12-3.12 3.12 1.4 3.12 3.12-1.4 3.12-3.12 3.12m1-3.12c0 .55-.45 1-1 1s-1-.45-1-1 .45-1 1-1 1 .45 1 1"/>
</svg>
