<svg viewBox="0 0 32 32" xmlns="http://www.w3.org/2000/svg">
  <path d="M25.74 0H6.26c-1.66 0-3 1.34-3 3v29h25.47V3c0-1.66-1.34-3-3-3Zm1 30H5.26V3c0-.55.45-1 1-1h19.47c.55 0 1 .45 1 1v27ZM16 12.06c2.49 0 4.5-2.01 4.5-4.5s-2.01-4.5-4.5-4.5-4.5 2.01-4.5 4.5 2.01 4.5 4.5 4.5m0-7a2.5 2.5 0 0 1 0 5 2.5 2.5 0 0 1 0-5m-1 2.5c0-.55.45-1 1-1s1 .45 1 1-.45 1-1 1-1-.45-1-1m1 6.16c-4.42 0-8 3.58-8 8s3.58 8 8 8 8-3.58 8-8-3.58-8-8-8m0 14c-3.31 0-6-2.69-6-6s2.69-6 6-6 6 2.69 6 6-2.69 6-6 6m0-9.03c-1.67 0-3.02 1.35-3.02 3.02s1.35 3.02 3.02 3.02 3.02-1.35 3.02-3.02-1.35-3.02-3.02-3.02m0 4.05c-.56 0-1.02-.46-1.02-1.02s.46-1.02 1.02-1.02 1.02.46 1.02 1.02-.46 1.02-1.02 1.02"/>
</svg>
