<svg viewBox="0 0 64 64" xmlns="http://www.w3.org/2000/svg">
  <path d="M51.47 0H12.53c-3.31 0-6 2.69-6 6v58h50.94V6c0-3.31-2.69-6-6-6m3.25 61.25H9.28V6c0-1.79 1.46-3.25 3.25-3.25h38.94c1.79 0 3.25 1.46 3.25 3.25zM32 24.13a9 9 0 1 0-.001-18.001A9 9 0 0 0 32 24.13m0-15.25c3.45 0 6.25 2.8 6.25 6.25s-2.8 6.25-6.25 6.25-6.25-2.8-6.25-6.25 2.8-6.25 6.25-6.25m-2 6.25c0-1.1.9-2 2-2s2 .9 2 2-.9 2-2 2-2-.9-2-2m2 12.31c-8.84 0-16 7.16-16 16s7.16 16 16 16 16-7.16 16-16-7.16-16-16-16m0 29.25c-7.31 0-13.25-5.94-13.25-13.25S24.69 30.19 32 30.19s13.25 5.94 13.25 13.25S39.31 56.69 32 56.69m0-19.3c-3.34 0-6.05 2.71-6.05 6.05s2.71 6.05 6.05 6.05 6.05-2.71 6.05-6.05-2.71-6.05-6.05-6.05m0 9.34c-1.82 0-3.3-1.48-3.3-3.3s1.48-3.3 3.3-3.3 3.3 1.48 3.3 3.3-1.48 3.3-3.3 3.3"/>
</svg>
