<svg viewBox="0 0 24 24" xmlns="http://www.w3.org/2000/svg">
  <path d="M12 13.16c-1.72 0-3.12 1.4-3.12 3.12s1.4 3.12 3.12 3.12 3.12-1.4 3.12-3.12-1.4-3.12-3.12-3.12m0 4.13c-.55 0-1-.45-1-1s.45-1 1-1 1 .45 1 1-.45 1-1 1M10.38 6.42a1.62 1.62 0 1 1 3.24 0 1.62 1.62 0 0 1-3.24 0m11-5.05A2.27 2.27 0 0 0 19.3-.01H4.7a2.255 2.255 0 0 0-2.25 2.25v21.75h19.1V2.25c0-.31-.06-.61-.18-.88ZM12 3.05c1.86 0 3.38 1.51 3.38 3.38S13.87 9.81 12 9.81 8.62 8.3 8.62 6.43 10.13 3.05 12 3.05m0 18.11c-2.69 0-4.88-2.18-4.88-4.88S9.3 11.4 12 11.4s4.88 2.18 4.88 4.88-2.18 4.88-4.88 4.88"/>
</svg>
