<svg viewBox="0 0 64 64" xmlns="http://www.w3.org/2000/svg">
  <path fill="#1e1e1c" d="M45.44.04H7.41v64h49.33V14.06zm8.12 14.44h-9.87c-.76 0-1.38-.62-1.38-1.38V2.79h1.82zM10.16 61.3V2.79h29.4V13.1c0 2.28 1.85 4.13 4.13 4.13H54V61.3zm11.05-18.81c-.34-.1-.7-.17-1.08-.17-2.11 0-3.82 1.72-3.82 3.82s1.72 3.82 3.82 3.82 3.65-1.57 3.79-3.54c.02-.09.03-.18.03-.28v-10.8h13.79v7.15c-.34-.1-.7-.17-1.08-.17-2.11 0-3.82 1.72-3.82 3.82s1.72 3.82 3.82 3.82 3.65-1.57 3.79-3.54c.02-.09.03-.18.03-.28v-10.8h.02v-9.41H21.27l-.08 16.56Zm2.82-13.81h13.74l-.02 3.91H24.03z"/>
</svg>
