<svg viewBox="0 0 16 16" xmlns="http://www.w3.org/2000/svg">
  <path d="M12.37 0H3.63c-1.1 0-2 .9-2 2v14h12.74V2c0-1.1-.9-2-2-2m.5 14.5H3.13V2c0-.28.22-.5.5-.5h8.74c.28 0 .5.22.5.5zM8 6.7c1.24 0 2.25-1.01 2.25-2.25S9.24 2.2 8 2.2 5.75 3.21 5.75 4.45 6.76 6.7 8 6.7m0-3c.41 0 .75.34.75.75s-.34.75-.75.75-.75-.34-.75-.75.34-.75.75-.75m0 3.74c-1.79 0-3.25 1.46-3.25 3.25S6.21 13.94 8 13.94s3.25-1.46 3.25-3.25S9.79 7.44 8 7.44m0 5c-.96 0-1.75-.79-1.75-1.75S7.04 8.94 8 8.94s1.75.79 1.75 1.75-.79 1.75-1.75 1.75"/>
</svg>
