<svg viewBox="0 0 48 48" xmlns="http://www.w3.org/2000/svg">
  <path d="M38.1 0H9.9c-2.76 0-5 2.24-5 5v43h38.21V5c0-2.76-2.24-5-5-5Zm2.5 45.5H7.4V5a2.5 2.5 0 0 1 2.5-2.5h28.21a2.5 2.5 0 0 1 2.5 2.5v40.5ZM24 18.09c3.73 0 6.75-3.02 6.75-6.75S27.73 4.59 24 4.59s-6.75 3.02-6.75 6.75 3.02 6.75 6.75 6.75m0-11c2.34 0 4.25 1.91 4.25 4.25s-1.91 4.25-4.25 4.25-4.25-1.91-4.25-4.25S21.66 7.09 24 7.09m-1.5 4.25c0-.83.67-1.5 1.5-1.5s1.5.67 1.5 1.5-.67 1.5-1.5 1.5-1.5-.67-1.5-1.5m1.5 9.24c-6.63 0-12 5.37-12 12s5.37 12 12 12 12-5.37 12-12-5.37-12-12-12m0 21.5c-5.24 0-9.5-4.26-9.5-9.5s4.26-9.5 9.5-9.5 9.5 4.26 9.5 9.5-4.26 9.5-9.5 9.5m0-14.04c-2.5 0-4.54 2.03-4.54 4.54s2.03 4.54 4.54 4.54 4.54-2.03 4.54-4.54-2.03-4.54-4.54-4.54m0 6.57c-1.12 0-2.04-.91-2.04-2.04s.91-2.04 2.04-2.04 2.04.91 2.04 2.04-.91 2.04-2.04 2.04"/>
</svg>
