<svg viewBox="0 0 64 64" xmlns="http://www.w3.org/2000/svg">
  <path fill="#1e1e1c" d="M17.26 51.29h2.75v12.72h-2.75zm46.77-6.99c0 10.87-8.84 19.71-19.71 19.71S24.61 55.17 24.61 44.3c0-2.05.32-4.03.9-5.9h-9.79c-7.13 0-12.93 5.78-12.93 12.88V64H.03V51.28c0-8.62 7.04-15.63 15.68-15.63h10.91c1.77-3.61 4.6-6.6 8.1-8.56-1.06.26-2.15.41-3.29.41-7.61 0-13.8-6.17-13.8-13.75S23.84 0 31.45 0s13.8 6.17 13.8 13.75c0 4.92-2.61 9.23-6.51 11.66 1.77-.53 3.65-.82 5.59-.82 10.87 0 19.71 8.84 19.71 19.71ZM31.45 24.76c6.09 0 11.04-4.93 11.04-11s-4.95-11-11.04-11-11.05 4.93-11.05 11 4.96 11 11.05 11M61.28 44.3c0-9.35-7.61-16.96-16.96-16.96S27.36 34.95 27.36 44.3s7.61 16.95 16.96 16.95 16.96-7.61 16.96-16.95m-11.74-6.21-6.73 10.12-4.68-3.29a1.378 1.378 0 0 0-1.59 2.25l6.99 4.91 8.29-12.47c.42-.63.25-1.49-.38-1.91s-1.49-.25-1.91.38Z"/>
</svg>
