<svg viewBox="0 0 24 24" xmlns="http://www.w3.org/2000/svg">
  <path fill="#1e1e1c" d="M6.39 19.33h1.75v4.73H6.39zm17.6-2.69c0 4.05-3.3 7.34-7.37 7.34s-7.37-3.29-7.37-7.34c0-.6.08-1.18.22-1.73H6.18c-2.45 0-4.44 1.98-4.44 4.42v4.73H0v-4.73c0-3.4 2.77-6.17 6.19-6.17h3.96c.45-.83 1.06-1.57 1.79-2.17h-.11c-3.03 0-5.49-2.45-5.49-5.47S8.8.06 11.83.06s5.49 2.45 5.49 5.47c0 1.5-.61 2.85-1.59 3.84.29-.04.59-.06.89-.06 4.06 0 7.37 3.29 7.37 7.34ZM11.83 9.25c2.06 0 3.74-1.67 3.74-3.72s-1.68-3.72-3.74-3.72-3.74 1.67-3.74 3.72 1.68 3.72 3.74 3.72m10.41 7.39c0-3.08-2.52-5.59-5.61-5.59s-5.61 2.51-5.61 5.59 2.52 5.59 5.61 5.59 5.61-2.51 5.61-5.59m-4.09-2.4-2.16 3.24-1.33-.93a.88.88 0 0 0-1.22.21.88.88 0 0 0 .21 1.22l2.8 1.96 3.16-4.73c.27-.4.16-.94-.24-1.21a.883.883 0 0 0-1.22.24"/>
</svg>
