<svg viewBox="0 0 24 24" xmlns="http://www.w3.org/2000/svg">
  <path fill="#1e1e1c" d="M6.42 19.32h3.01v4.72H6.42zm-6.4 0v4.72h3.01v-4.72c0-2.09 1.71-3.8 3.81-3.8h2.33c.24-1.09.7-2.1 1.33-2.99H6.85c-3.77.01-6.83 3.05-6.83 6.79m6.3-13.79c0-3.02 2.47-5.48 5.51-5.48s5.51 2.46 5.51 5.48c0 1.36-.5 2.6-1.32 3.56-1.56.25-2.98.93-4.13 1.92h-.05c-3.04 0-5.51-2.46-5.51-5.48Zm3 0c0 1.37 1.12 2.49 2.5 2.49s2.5-1.12 2.5-2.49-1.12-2.49-2.5-2.49-2.5 1.12-2.5 2.49m14.7 11.8c0 3.66-2.98 6.62-6.65 6.62s-6.65-2.96-6.65-6.62c0-1.25.35-2.41.96-3.41 0-.01.02-.03.03-.04.3-.49.67-.94 1.09-1.34a6.62 6.62 0 0 1 4.58-1.82c3.67 0 6.65 2.96 6.65 6.62Zm-3.86-2.69a.883.883 0 0 0-1.22.24l-2.23 3.33-1.38-.97a.88.88 0 0 0-1.22.21.88.88 0 0 0 .21 1.22l2.85 2 3.22-4.82c.27-.4.16-.94-.24-1.21Z"/>
</svg>
