<svg viewBox="0 0 48 48" xmlns="http://www.w3.org/2000/svg">
  <path fill="#1e1e1c" d="M12.93 38.46h4.5V48h-4.5zm.06-12.94C5.84 25.52.02 31.33.02 38.46V48h4.5v-9.54c0-4.65 3.8-8.44 8.47-8.44h6.23c.48-1.62 1.2-3.14 2.13-4.5zm-.35-14.79C12.64 4.82 17.47 0 23.39 0s10.75 4.81 10.75 10.72c0 3.46-1.66 6.54-4.22 8.5-1.48.45-2.87 1.11-4.14 1.95-.77.17-1.56.28-2.39.28-5.93 0-10.75-4.81-10.75-10.72m4.5 0c0 3.43 2.8 6.22 6.25 6.22s6.25-2.79 6.25-6.22-2.8-6.22-6.25-6.22-6.25 2.79-6.25 6.22m30.88 23.8c0 7.45-6.03 13.48-13.48 13.48s-13.48-6.04-13.48-13.48c0-2.52.7-4.87 1.91-6.89.22-.38.47-.74.73-1.09 2.45-3.33 6.39-5.5 10.84-5.5 7.44 0 13.48 6.04 13.48 13.48m-8.1-5.06c-.57-.38-1.35-.23-1.73.35l-4.81 7.24-3.24-2.28a1.249 1.249 0 0 0-1.44 2.04l5.34 3.75 6.23-9.37c.38-.58.23-1.35-.35-1.73"/>
</svg>
