<svg viewBox="0 0 40 40" xmlns="http://www.w3.org/2000/svg">
  <path fill="#1e1e1c" d="M10.72 32.05h2.25V40h-2.25zm29.25-4.35c0 6.78-5.52 12.3-12.29 12.3s-12.29-5.52-12.29-12.3c0-1.19.18-2.34.5-3.43h-5.85c-4.3 0-7.81 3.49-7.81 7.78V40H-.03v-7.95c0-5.53 4.51-10.03 10.05-10.03h6.76c.92-1.75 2.24-3.26 3.85-4.39-.37.05-.75.08-1.13.08-4.89 0-8.88-3.97-8.88-8.86S14.6 0 19.5 0s8.88 3.97 8.88 8.86c0 2.73-1.24 5.17-3.19 6.79.81-.17 1.64-.26 2.49-.26 6.78 0 12.29 5.52 12.29 12.3ZM19.5 15.46c3.65 0 6.63-2.96 6.63-6.61s-2.97-6.61-6.63-6.61-6.63 2.96-6.63 6.61 2.97 6.61 6.63 6.61M37.72 27.7c0-5.54-4.51-10.05-10.05-10.05S17.62 22.16 17.62 27.7s4.51 10.05 10.05 10.05 10.05-4.51 10.05-10.05m-7.1-3.95-3.94 5.93-2.61-1.84c-.51-.36-1.21-.23-1.57.27-.36.51-.23 1.21.27 1.57l4.5 3.16 5.21-7.85c.34-.52.2-1.22-.31-1.56-.52-.35-1.21-.21-1.56.31Z"/>
</svg>
