<svg viewBox="0 0 32 32" xmlns="http://www.w3.org/2000/svg">
  <path fill="#1e1e1c" d="M8.57 25.66h2V32h-2zm23.45-3.55c0 5.45-4.44 9.89-9.89 9.89s-9.89-4.44-9.89-9.89c0-.88.13-1.74.35-2.55H8.12c-3.36 0-6.1 2.74-6.1 6.1V32h-2v-6.34c0-4.47 3.63-8.1 8.1-8.1h5.25a9.8 9.8 0 0 1 2.72-3.25c-.14 0-.29.02-.43.02-3.95 0-7.16-3.21-7.16-7.17S11.7 0 15.65 0s7.16 3.21 7.16 7.17c0 2.05-.87 3.89-2.24 5.2.51-.08 1.03-.14 1.56-.14 5.45 0 9.89 4.44 9.89 9.89Zm-16.37-9.78c2.85 0 5.16-2.32 5.16-5.17s-2.32-5.17-5.16-5.17-5.16 2.32-5.16 5.17 2.32 5.17 5.16 5.17m14.37 9.78c0-4.35-3.54-7.89-7.89-7.89s-7.89 3.54-7.89 7.89S17.78 30 22.13 30s7.89-3.54 7.89-7.89m-5.64-3.2-3.07 4.62-1.99-1.4a.994.994 0 0 0-1.39.24.994.994 0 0 0 .24 1.39l3.67 2.58 4.21-6.33a1.001 1.001 0 1 0-1.67-1.11Z"/>
</svg>
