<svg viewBox="0 0 40 40" xmlns="http://www.w3.org/2000/svg">
  <path fill="#1e1e1c" d="M10.79 32h4v7.95h-4zm-.31-23.07c0-4.95 4.05-8.98 9.02-8.98s9.01 4.03 9.01 8.98c0 2.77-1.26 5.24-3.24 6.89-1.49.41-2.88 1.07-4.12 1.93-.54.1-1.08.16-1.65.16-4.97 0-9.01-4.03-9.01-8.98Zm4.01 0c0 2.74 2.25 4.98 5.01 4.98s5.01-2.23 5.01-4.98-2.25-4.98-5.01-4.98-5.01 2.23-5.01 4.98m-3.52 12.16C4.93 21.09.02 25.98.02 32v7.95h4V32c0-3.81 3.12-6.91 6.94-6.91h4.93c.41-1.45 1.05-2.8 1.9-4h-6.83Zm29.05 7.66c0 6.17-5.01 11.18-11.19 11.18s-11.19-5.01-11.19-11.18c0-1.7.39-3.3 1.07-4.74 0-.01.01-.03.02-.04.16-.34.34-.67.53-.99.01-.02.02-.04.03-.05.19-.32.4-.62.63-.92.01-.01.02-.03.03-.04 2.05-2.67 5.26-4.4 8.88-4.4 6.18 0 11.19 5.01 11.19 11.18m-6.68-4.26c-.52-.35-1.22-.2-1.56.31l-3.95 5.93-2.62-1.84c-.51-.36-1.21-.23-1.57.27-.36.51-.23 1.21.27 1.57l4.51 3.16 5.23-7.85c.35-.52.2-1.22-.31-1.56Z"/>
</svg>
