<svg viewBox="0 0 32 32" xmlns="http://www.w3.org/2000/svg">
  <path fill="#1e1e1c" d="M8.56 25.66h3.5V32h-3.5zm.3-8.85c-4.87 0-8.84 3.97-8.84 8.85V32h3.5v-6.34c0-2.95 2.4-5.35 5.35-5.35h3.78c.34-1.27.91-2.46 1.66-3.5zm-.58-9.53c0-4 3.25-7.25 7.24-7.25s7.24 3.25 7.24 7.25c0 2.11-.91 4.01-2.36 5.34-1.38.36-2.66.98-3.77 1.82q-.54.09-1.11.09c-4 0-7.24-3.25-7.24-7.25m3.5 0c0 2.07 1.68 3.75 3.75 3.75s3.75-1.68 3.75-3.75-1.68-3.75-3.75-3.75-3.75 1.68-3.75 3.75m20.24 15.87c0 4.91-3.98 8.89-8.88 8.89s-8.88-3.98-8.88-8.89c0-.99.17-1.95.47-2.84.11-.32.23-.63.37-.93.02-.03.03-.07.05-.1.13-.27.28-.53.43-.79.02-.04.04-.07.07-.11a8.86 8.86 0 0 1 7.48-4.11c4.9 0 8.88 3.98 8.88 8.89Zm-5.25-3.48c-.46-.31-1.08-.18-1.39.28l-3.07 4.62-1.99-1.4a.996.996 0 0 0-1.39.24.994.994 0 0 0 .24 1.39l3.67 2.58 4.21-6.33c.31-.46.18-1.08-.28-1.39Z"/>
</svg>
