<svg viewBox="0 0 16 16" xmlns="http://www.w3.org/2000/svg">
  <path fill="#1e1e1c" d="M4.23 12.88h2.5V16h-2.5zm1.94-2.25c.16-.94.55-1.79 1.12-2.5H4.77c-2.62 0-4.75 2.13-4.75 4.75V16h2.5v-3.12c0-1.24 1.01-2.25 2.25-2.25zM4.22 3.75C4.22 1.68 5.91 0 7.98 0s3.75 1.68 3.75 3.75c0 .91-.34 1.73-.87 2.37-1.13.14-2.16.64-2.96 1.37-2.03-.05-3.67-1.7-3.67-3.74Zm2.51 0a1.25 1.25 0 1 0 2.5 0 1.25 1.25 0 0 0-2.5 0m9.29 7.79c0 2.46-2 4.46-4.46 4.46S7.1 14 7.1 11.54c0-.31.03-.62.1-.92.05-.26.13-.51.23-.75.07-.16.15-.31.23-.46.04-.07.07-.14.11-.21.12-.19.25-.36.39-.53.01-.02.03-.03.04-.05.82-.94 2.01-1.55 3.36-1.55 2.47 0 4.46 2 4.46 4.46Zm-2.5-1.95a.753.753 0 0 0-1.04.21l-1.4 2.11-.79-.56a.753.753 0 1 0-.87 1.23l2.05 1.44 2.26-3.39c.23-.34.13-.81-.21-1.04"/>
</svg>
