<svg viewBox="0 0 48 48" xmlns="http://www.w3.org/2000/svg">
  <path fill="#1e1e1c" d="M12.94 38.47h2.5v9.54h-2.5zm35.08-5.21c0 8.12-6.61 14.73-14.74 14.73s-14.74-6.61-14.74-14.73c0-1.47.22-2.89.63-4.23h-7.16c-5.23 0-9.48 4.23-9.48 9.44v9.54H.02v-9.54c0-6.59 5.38-11.94 11.99-11.94h8.18a14.8 14.8 0 0 1 5.17-5.66c-.64.12-1.29.19-1.96.19-5.83 0-10.57-4.72-10.57-10.53S17.56 0 23.39 0s10.57 4.72 10.57 10.53c0 3.48-1.71 6.57-4.34 8.48 1.17-.3 2.39-.48 3.66-.48 8.13 0 14.74 6.61 14.74 14.73m-24.63-14.7c4.45 0 8.07-3.6 8.07-8.03S27.84 2.5 23.39 2.5s-8.07 3.6-8.07 8.03 3.62 8.03 8.07 8.03m22.13 14.7c0-6.74-5.49-12.23-12.24-12.23s-12.24 5.48-12.24 12.23 5.49 12.23 12.24 12.23S45.52 40 45.52 33.26m-8.6-4.7L32.1 35.8l-3.24-2.28a1.249 1.249 0 0 0-1.44 2.04l5.34 3.75L39 29.94c.38-.58.23-1.35-.35-1.73s-1.35-.23-1.73.35"/>
</svg>
