<svg viewBox="0 0 24 24" xmlns="http://www.w3.org/2000/svg">
  <path d="M19.14 11.39C19.14 3.93 12 0 12 0S4.86 3.97 4.86 11.39c0 3.76 2.73 8.29 6.26 8.95v2.79c0 .48.39.87.88.87s.88-.39.88-.87v-2.79c3.53-.66 6.26-5.2 6.26-8.95m-6.26 7.15v-2.23l1.84-1.16c.41-.26.53-.8.28-1.21a.887.887 0 0 0-1.21-.28l-.91.57v-1.17l1.84-1.16c.41-.26.53-.8.27-1.21a.875.875 0 0 0-1.21-.27l-.91.57V9.82l1.84-1.16c.41-.26.53-.8.28-1.21a.887.887 0 0 0-1.21-.28l-.91.57V6.21c0-.48-.39-.87-.88-.87s-.88.39-.88.87v1.53l-.91-.57a.878.878 0 1 0-.93 1.49l1.84 1.16v1.17l-.91-.57a.875.875 0 0 0-1.21.27c-.26.41-.13.95.27 1.21l1.84 1.16v1.17l-.91-.57a.878.878 0 1 0-.93 1.49l1.84 1.16v2.23c-2.48-.71-4.51-4.28-4.51-7.16 0-4.84 3.68-8.06 5.39-9.3 1.71 1.23 5.39 4.43 5.39 9.3 0 1.62-.67 3.54-1.75 5.01-.82 1.12-1.79 1.86-2.76 2.15Z"/>
</svg>
