<svg viewBox="0 0 64 64" xmlns="http://www.w3.org/2000/svg">
  <path d="M51.04 30.36c0 3.05-.67 6.29-1.88 9.37a30 30 0 0 1-3.07 5.86c-.41.6-.84 1.19-1.29 1.75s-.92 1.1-1.41 1.61c-2.83 2.97-6.27 5.02-10.01 5.43V42.97l5.36-3.37c.64-.4.84-1.25.43-1.9-.41-.64-1.25-.84-1.9-.43l-3.9 2.45v-5.38l5.36-3.37c.64-.4.84-1.25.43-1.9-.41-.64-1.25-.83-1.9-.43l-3.9 2.45v-5.38l5.36-3.37c.64-.4.84-1.25.43-1.9-.41-.64-1.25-.83-1.9-.43l-3.9 2.45v-5.81c0-.76-.62-1.38-1.38-1.38s-1.38.62-1.38 1.38v5.81l-3.9-2.45c-.64-.4-1.49-.21-1.9.43-.4.64-.21 1.49.43 1.9l5.36 3.37v5.38l-3.9-2.45c-.64-.4-1.49-.21-1.9.43-.4.64-.21 1.49.43 1.9l5.36 3.37v5.38l-3.9-2.45c-.64-.4-1.49-.21-1.9.43-.4.64-.21 1.49.43 1.9l5.36 3.37v11.41c-3.74-.41-7.18-2.47-10.01-5.43-.49-.51-.96-1.05-1.41-1.61s-.88-1.15-1.29-1.75-.8-1.23-1.16-1.87c-.91-1.6-1.68-3.29-2.29-5.02-.12-.35-.23-.69-.34-1.04-.75-2.44-1.16-4.93-1.16-7.3 0-3.71.67-7.09 1.76-10.14.18-.51.37-1.01.58-1.5a33 33 0 0 1 2.08-4.16c.77-1.3 1.6-2.52 2.46-3.65.57-.75 1.16-1.47 1.75-2.15C26.63 3 32 0 32 0s19.04 10.48 19.04 30.36M30.62 54.39v8.24c0 .76.62 1.38 1.38 1.38s1.38-.62 1.38-1.38v-8.24c-.45.05-.91.09-1.38.09s-.92-.04-1.38-.09"/>
</svg>
