<svg viewBox="0 0 24 24" xmlns="http://www.w3.org/2000/svg">
  <path d="M12.88 20.35v-4.02l1.84-1.16c.41-.26.53-.8.28-1.21a.887.887 0 0 0-1.21-.28l-.91.57v-1.17l1.84-1.16c.41-.26.53-.8.27-1.21a.866.866 0 0 0-1.21-.27l-.91.57V9.84l1.84-1.16c.41-.26.53-.8.28-1.21a.887.887 0 0 0-1.21-.28l-.91.57V6.23c0-.48-.39-.87-.88-.87s-.88.39-.88.87v1.53l-.91-.57a.878.878 0 1 0-.93 1.49l1.84 1.16v1.17l-.91-.57a.884.884 0 0 0-1.21.27c-.26.41-.13.95.27 1.21l1.84 1.16v1.17l-.91-.57a.878.878 0 1 0-.93 1.49l1.84 1.16v4.02c-2.34-.44-4.33-2.57-5.4-5.05-.22-.51-.4-1.03-.54-1.55a9.2 9.2 0 0 1-.32-2.34c0-2.32.7-4.3 1.66-5.93C8.63 1.89 12 0 12 0s.7.38 1.66 1.14c.28.22.59.49.91.78.33.3.66.62 1 .98.45.48.89 1.02 1.31 1.61.63.89 1.19 1.91 1.6 3.06.28.79.48 1.64.58 2.54.05.41.08.84.08 1.28 0 3.76-2.73 8.29-6.26 8.95Zm-1.76-.01v2.79c0 .48.39.87.88.87s.88-.39.88-.87v-2.79c-.29.05-.58.09-.88.09s-.59-.04-.88-.09"/>
</svg>
