<svg viewBox="0 0 64 64" xmlns="http://www.w3.org/2000/svg">
  <path d="M64 3.54 60.47 0 48.45 12.02a25.72 25.72 0 0 0-16.38-5.85c-14.28 0-25.86 11.58-25.86 25.86 0 6.22 2.2 11.92 5.85 16.38L0 60.47 3.53 64l12.05-12.05c4.47 3.7 10.22 5.93 16.48 5.93 14.28 0 25.86-11.58 25.86-25.86 0-6.26-2.23-12-5.93-16.48L64 3.53ZM11.2 32.03c0-11.5 9.36-20.86 20.86-20.86 4.83 0 9.27 1.66 12.81 4.43L15.63 44.84c-2.77-3.54-4.43-7.98-4.43-12.81m41.72 0c0 11.5-9.36 20.86-20.86 20.86-4.87 0-9.35-1.69-12.91-4.5l29.26-29.26a20.73 20.73 0 0 1 4.5 12.91Z"/>
</svg>
