<svg viewBox="0 0 32 32" xmlns="http://www.w3.org/2000/svg">
  <path d="M32 1.42 30.59 0l-6.31 6.31c-2.22-1.89-5.1-3.04-8.25-3.04-7.04 0-12.74 5.71-12.74 12.74 0 3.15 1.15 6.03 3.04 8.25L0 30.59 1.41 32l6.32-6.32a12.65 12.65 0 0 0 8.29 3.08c7.04 0 12.74-5.71 12.74-12.74 0-3.17-1.16-6.06-3.08-8.29l6.31-6.31ZM5.29 16.02c0-5.92 4.82-10.74 10.74-10.74 2.59 0 4.97.92 6.83 2.46L7.74 22.86a10.73 10.73 0 0 1-2.46-6.83Zm21.48 0c0 5.92-4.82 10.74-10.74 10.74-2.61 0-5.01-.94-6.88-2.5L24.27 9.14a10.67 10.67 0 0 1 2.5 6.88"/>
</svg>
