<svg viewBox="0 0 32 32" xmlns="http://www.w3.org/2000/svg">
  <path d="M18.44 7.2c.91 0 1.7.5 2.14 1.23.3.07.61.11.93.11 2.36 0 4.27-1.91 4.27-4.27S23.87 0 21.51 0s-4.27 1.91-4.27 4.27c0 1.14.45 2.17 1.18 2.93h.01ZM21.51 2c1.25 0 2.27 1.02 2.27 2.27s-1.02 2.27-2.27 2.27-2.27-1.02-2.27-2.27S20.26 2 21.51 2M32 18.92h-2.51v-3.81a4.82 4.82 0 0 0-4.82-4.81h-3.74v2h3.74c1.55 0 2.81 1.26 2.81 2.81v3.79h-2.86v.02h-4.7V9.7c0-.83-.67-1.5-1.5-1.5H3.39c-.83 0-1.5.67-1.5 1.5v9.22H0v2h1.99V32h2V20.92h12.36L17.31 32h8.2l.96-11.08h1.39V32h2V20.92H32zM3.89 10.2h14.04v8.48H3.89zM23.68 30h-4.53l-.78-9.07h6.1L23.69 30Z"/>
</svg>
