<svg viewBox="0 0 48 48" xmlns="http://www.w3.org/2000/svg">
  <path d="M32.27 12.31c3.4 0 6.16-2.76 6.16-6.15S35.66 0 32.27 0s-6.16 2.76-6.16 6.15 2.76 6.15 6.16 6.15Zm0-9.81c2.02 0 3.66 1.64 3.66 3.65S34.29 9.8 32.27 9.8s-3.66-1.64-3.66-3.65 1.64-3.65 3.66-3.65M48 28.64h-4.01v-6.07c0-3.84-3.13-6.97-6.97-6.97h-6.11v2.5h6.11c2.47 0 4.47 2 4.47 4.47v6.04h-4.31v.04h-7.52V14.32c0-.97-.79-1.75-1.75-1.75H4.84c-.97 0-1.75.79-1.75 1.75v14.33H0v2.5h3.23v16.86h2.5V31.15h19.02l1.44 16.76h11.84l1.44-16.76h2.56v16.86h2.5V31.15h3.46v-2.5ZM5.59 15.06h21.57v13.23H5.59zM35.74 45.4h-7.25l-1.22-14.26h9.69z"/>
</svg>
