<svg viewBox="0 0 24 24" xmlns="http://www.w3.org/2000/svg">
  <path d="M1.53 14.33h1.75v3.95l1.74-1.74V4.79h2.03v9.73l.65-.65V4.79h.68v8.4l.26-.26V4.79h.34v7.81l.39-.39V4.79h1.35v6.07l.98-.98V4.8h.68v4.41l.49-.49V4.81h.34v3.58l.49-.49V4.82h.68v2.41l.37-.37V4.82h.34v1.7l.27-.27V4.83h1.35v.07l1.61-1.61H14.7V1.54h5.37L21.54 0H.01v21.54l1.52-1.52v-5.7Zm0-12.83H9.7v1.75H3.28v6.1H1.53zm20.99 2.48v5.69h-1.75V5.73l-2.08 2.08v9.94h-1.35V9.16l-.65.65v7.95h-1.35v-6.59l-.27.27v6.32h-.34v-5.98l-.37.37v5.61h-.68v-4.93l-.49.49v4.44h-.34v-4.1l-.49.49v3.61h-.68v-2.94l-.98.98v1.95H9.35v-.6l-.39.39v-.23l-.44.44h.23l-.88.89v.58h-.58l-1.53 1.53h3.62v1.75H4.01L2.51 24H24V2.5l-1.47 1.47ZM9.37 19.22h-.68v-.68h.68zm1.49 0h-.68v-.68h.68zm1.5 0h-.68v-.68h.68zm5.32-.68h.68v.68h-.68zm-1.5 0h.68v.68h-.68zm-1.5 0h.68v.68h-.68zm-.82.68h-.68v-.68h.68zm8.66 3.27h-8.17v-1.75h6.42v-6.1h1.75zM23.99 1.3 1.29 24H0v-1.17L22.81 0H24v1.29Z"/>
</svg>
