<svg viewBox="0 0 64 64" xmlns="http://www.w3.org/2000/svg">
  <path d="M3.06 57.08.05 60.09V.02h60.07L57.1 3.04H44.04v2.75h10.31l-4.87 4.87h-1.59v1.59l-1.92 1.92v-3.51h-4v7.5l-.81.81v-8.32h-1v9.32l-1.1 1.1V10.65h-2v12.42l-1.46 1.46V10.66h-1v14.87l-1.46 1.46V10.65h-2v18.33l-2.91 2.91V10.65h-4v25.24l-1.16 1.16v-26.4h-1v27.39l-.76.76V10.65h-2V40.8l-1.91 1.91V10.65h-6v38.06l-5.62 5.62V43.17H3.03v13.91Zm0-36.89h2.75V5.97h15.07V3.22H3.06v16.96ZM61.01 6.9l3-3v60.07H3.93l2.99-2.99h13.1v-2.75H9.67l4.9-4.9h.86v-.86l3.91-3.91v.43h2v-2.43l.76-.76v3.19h1V44.8l1.16-1.16v5.34h4v-9.34l2.91-2.91v12.25h2V34.73l1.46-1.46v15.71h1V32.27l1.46-1.46v18.16h2V28.81l1.1-1.1v21.26h1V26.71l.81-.81v23.08h4V21.91l1.92-1.92v28.99h4V16.02l6.37-6.37v11.2h2.75V6.9ZM19.86 51.34h-2v2h2zm4.43 0h-2v2h2zm4.44 0h-2v2h2zm4.43 0h-2v2h2zm4.43 0h-2v2h2zm11.3 2h2v-2h-2zm-4.43 0h2v-2h-2zm-2.44-2h-2v2h2zm18.99-7.31h-2.75v14.22H43.19V61h17.82V44.04ZM63.99-.01l-1.93.03L.02 62.06v1.91l1.96.01 62-62V-.01Z"/>
</svg>
