<svg viewBox="0 0 64 64" xmlns="http://www.w3.org/2000/svg">
  <path d="M2.78 21.25H.03V.02h21.98v2.75H2.78zm58.45 39.97H42v2.75h21.98V42.74h-2.75zM60.07-.01H42.78v2.75h14.54zm1.19 6.58v15.4h2.75V3.82zm-33.01 43.9V39.58l-4 4v6.89zm19.69-38.35h-.04v.04zm-19.69 0h-4v23.69l4-4zm-6.92 26.6v-26.6h-2v28.6zm-7.91 16.09h2v-2h-.4l-1.59 1.59v.4Zm4-12.18V12.12h-6v36.51zm15.74-30.51h-2V28.9l2-2zm-10.07 0h-1v25.84l1-1zm-5.67 38.29-.06.06h.06zm23.75.06V26.66l-1 1v22.81zm-5.56-38.35h-1v13.32l1-1zm10.37 0h-4v5.96l4-4zm-6.91 0h-2v10.87l2-2zm2.1 0h-1v7.77l1-1zm4.81 9.73-4 4v24.62h4zm-8.91 28.62h2V28.76l-2 2zm-1.48 4.34h2v-2h-2zm6.43-2h-2v2h2zm-22.16 0h-2v2h2zm26.6 0h-2v2h2zm5.43-36.87-4 4v30.54h4zm-1 38.87v-2h-2v2zM35.61 32.22l-1 1v17.26h1zm-4.45 18.25h2v-15.8l-2 2zm-8.87 4.34h2v-2h-2zm-2.95-4.34h2v-3.98l-2 2zm3.75-5.73-1 1v4.74h1zm8.07 10.07h2v-2h-2zm-4.43 0h2v-2h-2zM3.86 63.98h17.38v-2.75H6.61zM2.76 42H.01v18.06l2.75-2.75zM63.98.02h-2L.01 61.99v2H1.9L63.98 1.91z"/>
</svg>
