<svg viewBox="0 0 40 40" xmlns="http://www.w3.org/2000/svg">
  <path d="M2.25 13.4H0V0h13.86v2.25H2.25zm35.49 24.32H26.13v2.25h13.86v-13.4h-2.25zm2.25-34.54-2.25 2.25v8.43h2.25zM36.82 0H26.6v2.25h7.97zM2.25 26.11H0V36.8l2.25-2.25zm.94 13.87H13.4v-2.25H5.44zm14.45-14.46-2.5 2.5v3.56h2.5v-6.05ZM13.79 23l.62-.62V7.6h-.62zm-.47.48V7.6h-1.25v17.13zm-4.44 10.8h.75v-.75zm2.27 0h1.25v-1.25h-1.25zM17.64 7.6h-2.5v14.06l2.5-2.5zm-6.77 18.32V7.6H7.12v22.07zM20.7 7.6h-1.25v9.74l1.25-1.25zm8.01 0h-2.5v2.97l2.5-2.5zm-2.49 23.97h2.5V14.43l-2.5 2.5zm-1.14-13.5v13.51h.62V17.45zm.63-10.47h-.62v4.11l.62-.62V7.61Zm-3.47 0h-.62v7.58l.62-.62V7.61Zm2.16 0h-1.25v6.04l1.25-1.25zm.59 26.68h1.25v-1.25h-1.25zm-11.67-4.44-1.25 1.25v.48h1.25zm14.44 4.44h1.25v-1.25h-1.25zm-4.61-2.71h1.25V18.75L23.15 20zm9.26-20.83-2.5 2.5v18.34h2.5zm-.63 23.54v-1.25h-1.25v1.25zm-9.55 0h1.25v-1.25h-1.25zm-8.31 0h1.25v-1.25h-1.25zm2.77 0h1.25v-1.25h-1.25zm5.55-13.37-.62.62v10.03h.62V20.9Zm-7.82 7.83-.62.62v2.21h.62zm5.04 2.83h1.25v-9.12l-1.25 1.25zm0 2.71h1.25v-1.25h-1.25zM38.38 0 .02 38.37v1.62h1.55L40 1.56V-.01z"/>
</svg>
