<svg viewBox="0 0 16 16" xmlns="http://www.w3.org/2000/svg">
  <path d="M1 9.35h1.5v2.09l1.09-1.09V3.46h1.28v5.62l.41-.41V3.46h.43v4.78l.16-.16V3.46h.21v4.41l.25-.25V3.46h.85v3.31l.62-.62V3.46h.43v2.26l.31-.31V3.46h.21V5.2l.31-.31V3.46h.43v1.01l.23-.23v-.77h.21v.56l.17-.17v-.39h.39l.95-.95h-1.9v-1.5h3.4l1-1.02H0v13.93l1-1V9.34Zm0-8.33h5.66v1.5H2.5v3.97H1zm14.02 5.64h-1.5v-2l-1.3 1.3v5.63h-.85V6.81l-.41.41v4.37h-.85V8.07l-.17.17v3.35h-.21V8.46l-.23.23v2.9h-.43V9.12l-.31.31v2.16h-.21V9.64l-.31.31v1.64h-.43v-1.21l-.62.62v.59H6.6l-.5.5h.25v.43h-.43v-.25L4.69 13.5h1.8V15h-3.3l-1 1h13.82V2.19l-.98.98v3.49Zm-7.74 5.86h-.43v-.43h.43zm.94 0h-.43v-.43h.43zm3.36-.43h.43v.43h-.43zm-.95 0h.43v.43h-.43zm-.94 0h.43v.43h-.43zm-.52.43h-.43v-.43h.43zm5.85 2.47H9.36v-1.5h4.16V9.51h1.5v5.47ZM16 1.15 1.15 15.99H0v-.96L15.03 0H16z"/>
</svg>
