<svg viewBox="0 0 32 32" xmlns="http://www.w3.org/2000/svg">
  <path d="M1.51 21.27h2v4.43l2.9-2.9V6.11h2.78v13.91l.89-.89V6.11h.93v12.1l.35-.35V6.11h.46v11.28l.54-.54V6.11h1.85v8.9l1.35-1.35V6.11h.93v6.62l.67-.67V6.11h.46v5.48l.67-.67V6.11h.93v3.88l.51-.51V6.11h.46v2.91l.38-.38V6.11h1.85v.68l3.27-3.27h-3.97v-2h5.97L29.2 0H0v29.19l1.5-1.5v-6.43Zm0-19.76h9.22v2H3.51v6.8h-2zm29.02 9.24h-2V6.33l-3.38 3.38v14.17H23.3V11.56l-.89.89v11.43h-1.85V14.3l-.38.38v9.2h-.46v-8.74l-.51.51v8.23h-.93v-7.3l-.67.67v6.63h-.46v-6.17l-.67.67v5.49h-.93V19.3l-1.35 1.35v3.22h-1.85v-1.36l-.54.54v.83h-.46v-.37L9.9 24.96h.41v.93h-.93v-.41L6.36 28.5h3.94v2H4.37L2.87 32h29.12V2.87l-1.46 1.46zM12.37 25.89h-.93v-.93h.93zm2.05 0h-.93v-.93h.93zm2.05 0h-.93v-.93h.93zm2.06 0h-.93v-.93h.93zm5.23-.93h.93v.93h-.93zm-2.05 0h.93v.93h-.93zm-1.13.93h-.93v-.93h.93zm9.91 4.61h-9.22v-2h7.23v-6.8h2v8.79Zm1.5-29.02L1.47 32H0v-1.36L30.65 0h1.36L32 1.48Z"/>
</svg>
