<svg viewBox="0 0 48 48" xmlns="http://www.w3.org/2000/svg">
  <path d="M2.01 32.41h2.5v7.54l4.03-4.03V7.99h4.5v23.43l1.44-1.44V7.99h1.5v20.5l.57-.57V7.99h.75v19.18l.87-.87V7.99h3V23.3l2.18-2.19V7.99h1.5v11.63l1.09-1.09V7.99h.75v9.79l1.09-1.09v-8.7h1.5v7.19l.83-.83V7.98h.75v5.62l.61-.61V7.98h3v2.01l1.44-1.44v-.57h.57l3.4-3.4h-6.92v-2.5h9.42L44.45 0H0v44.45l2-2V32.41Zm.05-30.33h13.59v2.5H4.56v10.45h-2.5zM45.9 15.67h-2.5V8.12l-4.5 4.5v24.13h-3V15.63l-1.44 1.44v19.7h-3v-16.7l-.61.61v16.09h-.75V21.43l-.83.83v14.51h-1.5V23.76l-1.09 1.09v11.92h-.75V25.6l-1.09 1.09v10.08h-1.5v-8.58l-2.18 2.19v6.39h-3v-3.39l-.87.87v2.53h-.75V35l-.57.57v1.21h-1.21l-6.74 6.74h6.93v2.5H5.53l-2 2h44.46V3.53L45.9 5.62v10.04ZM14.87 40.01h-1.5v-1.5h1.5zm3.32 0h-1.5v-1.5h1.5zm3.33 0h-1.5v-1.5h1.5zm3.32 0h-1.5v-1.5h1.5zm3.33 0h-1.5v-1.5h1.5zm8.48-1.5h1.5v1.5h-1.5zm-3.33 0h1.5v1.5h-1.5zm-1.83 1.5h-1.5v-1.5h1.5zm14.46 5.94H32.36v-2.5h11.09V33h2.5zM47.98 1.8 1.79 48H0v-1.74L46.25 0h1.74z"/>
</svg>
