<svg viewBox="0 0 24 24" xmlns="http://www.w3.org/2000/svg">
  <path d="M1.74 8.13H0V0h8.39v1.75H1.74zm20.45 14.12h-6.64V24h8.39v-8.13h-1.75zM23.97 0h.01zM22.2 8.4h1.75V2.44L22.2 4.2zM21.44 0h-5.61v1.75h3.87zm-10.9 18.89V16l-1.5 1.51v1.39h1.5Zm-2.3-5.54.37-.38V4.5h-.37zm2.3-8.85h-1.5v8.04l1.5-1.51zm-2.58 9.14V4.5h-.75v9.89zm-1.47 1.48V4.5H4.24v12.88zM12.38 4.5h-.75v5.43l.75-.75V4.51ZM6.65 20.51h.75v-.75h-.6l-.15.15zM17.18 9.3l-1.5 1.51v8.08h1.5zm-1.8 9.59v-7.77l-.37.38v7.4h.37Zm.31-14.39v1.34l1.33-1.34zm-1.09 0h-.75v3.2l.75-.75V4.51Zm.78 0h-.37v2.03l.37-.38zm-2.08 0h-.37v4.12l.37-.38V4.49Zm4.06 15.26h-.75v.75h.75zm-3.51-.87h.75v-6.98l-.75.75zm-.55-5.68-.37.38v5.3h.37zm2.4 6.55h-.75v.75h.75zM7.96 18.6l-.28.28h.28zM19.4 7.06l-1.5 1.51v10.31h1.5zm-.38 13.45v-.75h-.75v.75zm-5.72 0h.75v-.75h-.75zm-4.99 0h.75v-.75h-.75zm.3-2.57-.37.38v.57h.37zm3.02.95h.75v-4.75l-.75.75v3.99Zm0 1.62h.75v-.75h-.75zm-1.66 0h.75v-.75h-.75zM0 21.62l1.75-1.76V15.6H0zM2.57 24h5.55v-1.75H4.31L2.58 24ZM23.94 0h-1.23L-.02 22.92V24h1.39L23.94 1.23z"/>
</svg>
