<svg viewBox="0 0 48 48" xmlns="http://www.w3.org/2000/svg">
  <path d="M2.5 16.04H0V0h16.61v2.5H2.5zM45.49 45.5H31.38V48h16.61V31.96h-2.5zM44.52.01H31.94v2.5h10.08zm3.47 3.61-2.5 2.5v10.5h2.5zm-26.81 26.8-3 3v4.44h3v-7.43Zm-4.62-2.45.75-.75V9.09h-.75zm4.62-18.88h-3v17.26l3-3zM10.49 41.1h1.07v-1.07zM24.87 9.09h-1.5v12.08l1.5-1.5zM13.06 31.47V9.09h-4.5v26.88zm17.07-9.99v16.38h.75V20.73zM13.39 41.1h1.5v-1.5h-1.5zM26.71 9.09h-.75v9.49l.75-.75zm4.78 28.76h3V17.12l-3 3zm3-28.76h-3v3.96l3-3zm-5.19 0h-1.5v7.64l1.5-1.5V9.08Zm1.58 0h-.75v5.32l.75-.75zM16 28.54V9.09h-1.5v20.94l1.5-1.5ZM30.02 41.1h1.5v-1.5h-1.5zm-3.33 0h1.5v-1.5h-1.5zm1.11-3.25h1.5V22.3l-1.5 1.5zm5.55 3.25h1.5v-1.5h-1.5zm5.57-28.42-3 3v22.17h3zm-.75 28.42v-1.5h-1.5v1.5zm-18.13 0h1.5v-1.5h-1.5zm-3.33 0h1.5v-1.5h-1.5zM16 35.6l-1.5 1.5v.75H16zm1.31-1.32-.75.75v2.82h.75zm6.06 3.57h1.5V26.73l-1.5 1.5zm0 3.25h1.5v-1.5h-1.5zm3.34-16.21-.75.75v12.21h.75zM0 44.5 2.5 42V31.37H0zm3.6 3.48h12.45v-2.5H6.1zM46.3 0 0 46.3v1.68h1.85L47.99 1.85V0z"/>
</svg>
