<svg viewBox="0 0 64 64" xmlns="http://www.w3.org/2000/svg">
  <path d="M59 21.13H28.22c-2.21 0-4 1.79-4 4v5.8h-4.09v-1.8c0-4.42-3.58-8-8-8H2.76V9.3a1.374 1.374 0 1 0-2.75 0v45.37c0 .76.62 1.38 1.38 1.38s1.38-.62 1.38-1.38v-9.34h58.48v9.34c0 .76.62 1.38 1.38 1.38s1.38-.62 1.38-1.38V26.13c0-2.76-2.24-5-5-5Zm-32.04 4c0-.69.56-1.25 1.25-1.25h30.78c1.24 0 2.25 1.01 2.25 2.25v4.8H26.96zm-24.2-1.25h9.36c2.9 0 5.25 2.36 5.25 5.25v1.8H2.76zm0 18.7V33.7h15.86c.05 0 .11-.01.16-.02h5.43v.02h37.03v8.88z"/>
</svg>
