<svg viewBox="0 0 64 64" xmlns="http://www.w3.org/2000/svg">
  <path d="M63.9 42.05V31.74c0-4.71-3.8-8.53-8.5-8.53h-9.97V-.02h-2.74v7.28h-4.64V1.98c0-1.11-.89-2-1.99-2h-7.97c-1.1 0-1.99.9-1.99 2v14.89c0 1.11.89 2 1.99 2h7.97c1.1 0 1.99-.9 1.99-2V10h4.64v13.2H27.16c-1.24 0-2.24 1.01-2.24 2.25v15.02h-4.7a8.82 8.82 0 0 0 2.49-6.16c0-4.89-3.95-8.86-8.82-8.86s-8.82 3.97-8.82 8.86c0 2.39.95 4.56 2.49 6.16H2.65V20.4c0-.76-.61-1.38-1.37-1.38s-1.37.62-1.37 1.38v42.18c0 .76.61 1.38 1.37 1.38s1.37-.62 1.37-1.38v-6.09H42.7v4.73h-5.19v2.75h13.12v-2.75h-5.19v-4.73h15.73v6.1c0 .76.61 1.38 1.37 1.38s1.37-.62 1.37-1.38V42.04ZM35.31 2.73v8.45h-6.48V2.73zm-6.48 13.39v-2.19h6.48v2.19zm-14.94 12.1c3.35 0 6.08 2.74 6.08 6.11s-2.73 6.11-6.08 6.11-6.08-2.74-6.08-6.11 2.73-6.11 6.08-6.11m13.77-2.26H55.4c3.17 0 5.76 2.59 5.76 5.78v8.74h-33.5zM2.85 53.75V43.23h58.3v10.51H2.85Z"/>
</svg>
