<svg viewBox="0 0 16 16" xmlns="http://www.w3.org/2000/svg">
  <path d="M12.64 7.84c-.12 0-.24.02-.36.04l-.56-1.57c.15.05.31.08.48.08.84 0 .84-2.78 0-2.78-.37 0-.71.13-.97.33V2.12c0-.67-.55-1.21-1.22-1.21H8.8c-.41 0-.75.34-.75.75s.34.75.75.75h.92v2.27H5.11l-.32-1.27h.32c.41 0 .75-.34.75-.75s-.34-.75-.75-.75H2.39c-.41 0-.75.34-.75.75s.34.75.75.75h.85l.5 2.02-.6 2.42h-.03C1.34 7.84-.12 9.3-.12 11.09a3.25 3.25 0 1 0 6.5 0c0-.47-.1-.91-.28-1.31l4.14-3.14.62 1.73c-.89.58-1.48 1.58-1.48 2.72a3.25 3.25 0 1 0 3.25-3.25Zm-7.76 3.25c0 .96-.78 1.75-1.75 1.75s-1.75-.79-1.75-1.75c0-.85.6-1.55 1.4-1.71l-.38 1.54c-.08.31.05.63.32.81.26.17.61.16.86-.03l1.26-.95c.02.12.04.23.04.36Zm.3-2.5c-.18-.15-.37-.27-.57-.38l.5-2.04h3.26zm7.46 4.25c-.96 0-1.75-.79-1.75-1.75 0-.48.2-.92.51-1.23l.53 1.49c.11.31.4.5.71.5.08 0 .17-.01.25-.04a.75.75 0 0 0 .45-.96l-.53-1.48c.88.09 1.57.83 1.57 1.73 0 .96-.78 1.75-1.75 1.75Z"/>
</svg>
