<svg viewBox="0 0 24 24" xmlns="http://www.w3.org/2000/svg">
  <path d="M19.34 12.17 18.2 9.31c.25.08.52.14.8.14 1.41 0 1.41-5.13 0-5.13-.66 0-1.26.26-1.72.67V2.8a2.204 2.204 0 0 0-2.2-2.19h-1.81c-.83 0-1.5.67-1.5 1.5s.67 1.5 1.5 1.5h1l.02 2.65H8.03L7.74 5.1c.83 0 1.5-.67 1.5-1.5s-.67-1.5-1.5-1.5H3.67c-.83 0-1.5.67-1.5 1.5s.67 1.5 1.5 1.5h.98l.65 2.62-1.31 4.49c-2.32.37-4.11 2.37-4.11 4.8 0 2.69 2.18 4.88 4.87 4.88s4.87-2.18 4.87-4.88c0-.71-.16-1.39-.44-2l6.13-4.83 1.09 2.73a4.86 4.86 0 0 0-2.26 4.1c0 2.69 2.18 4.88 4.87 4.88s4.87-2.18 4.87-4.88-2.01-4.67-4.54-4.84m-12.36.53 1-3.44h3.66L7.16 12.8c-.06-.03-.12-.07-.18-.1m-2.23 6.19c-1.03 0-1.87-.84-1.87-1.88s.84-1.88 1.87-1.88 1.87.84 1.87 1.88-.84 1.88-1.87 1.88m14.26 0c-1.03 0-1.87-.84-1.87-1.88s.84-1.88 1.87-1.88 1.87.84 1.87 1.88-.84 1.88-1.87 1.88"/>
</svg>
