<svg viewBox="0 0 32 32" xmlns="http://www.w3.org/2000/svg">
  <path d="M25.39 15.68c-.42 0-.83.04-1.22.12l-.99-2.75c.38.15.79.24 1.23.24 1.68 0 1.68-5.57 0-5.57-.94 0-1.76.39-2.32 1l-.02-4.5c0-1.06-.86-1.92-1.92-1.92h-2.41c-.55 0-1 .45-1 1s.45 1 1 1h2.33l.03 5.53H9.97l-.88-3.54h1.29c.55 0 1-.45 1-1s-.45-1-1-1H4.95c-.55 0-1 .45-1 1s.45 1 1 1h2.09l1.13 4.54-1.2 4.86q-.285-.03-.57-.03c-3.61.02-6.52 2.94-6.52 6.52s2.91 6.5 6.49 6.5 6.49-2.91 6.49-6.5c0-1.12-.28-2.16-.78-3.08l8.75-6.63 1.44 4.01a6.5 6.5 0 0 0-3.39 5.71c0 3.59 2.91 6.5 6.49 6.5s6.49-2.91 6.49-6.5-2.91-6.5-6.49-6.5Zm-1.74-5.7c.03.34.03.72 0 1.06-.18-.14-.28-.33-.28-.53s.11-.39.28-.53m-12.78 12.2c0 2.48-2.02 4.5-4.49 4.5s-4.49-2.02-4.49-4.5 2.02-4.5 4.49-4.5h.08l-1.05 4.25c-.1.41.07.84.42 1.08.35.23.82.22 1.15-.04l3.48-2.64c.26.56.41 1.19.41 1.85M8.4 18.19c.31.16.59.35.85.57l-1.22.93.37-1.49Zm2.49-.68a6.5 6.5 0 0 0-2-1.32l1.07-4.34h8.39l-7.47 5.66Zm14.5 9.17c-2.48 0-4.49-2.02-4.49-4.5 0-1.59.83-2.98 2.08-3.78l1.48 4.12a1 1 0 0 0 1.28.6c.52-.19.79-.76.6-1.28l-1.47-4.11c.18-.02.35-.05.53-.05 2.48 0 4.49 2.02 4.49 4.5s-2.02 4.5-4.49 4.5Z"/>
</svg>
