<svg viewBox="0 0 40 40" xmlns="http://www.w3.org/2000/svg">
  <path d="M31.77 19.61c-.57 0-1.12.06-1.66.17l-1.27-3.54c.51.24 1.09.38 1.7.38 2.1 0 2.1-6.96 0-6.96-1.24 0-2.33.55-3.03 1.39l-.03-5.76c0-1.25-1.02-2.27-2.27-2.27h-3.02c-.62 0-1.12.5-1.12 1.12s.5 1.12 1.12 1.12l3.04.02.03 7.14H12.37l-1.16-4.68h1.77c.62 0 1.12-.5 1.12-1.12s-.5-1.12-1.12-1.12H6.19c-.62 0-1.12.5-1.12 1.12s.5 1.12 1.12 1.12H8.9l1.44 5.8-1.5 6.09c-.28-.03-.56-.04-.84-.04-4.48.02-8.12 3.65-8.12 8.14S3.51 35.85 8 35.85a8.12 8.12 0 0 0 7.09-12.08l11.06-8.39L28 20.54c-2.58 1.36-4.35 4.07-4.35 7.19 0 4.49 3.63 8.12 8.12 8.12s8.12-3.64 8.12-8.12-3.63-8.12-8.12-8.12m-1.99-7.54c.11.62.11 1.51 0 2.13-.47-.21-.8-.62-.8-1.07s.33-.85.8-1.07ZM13.87 27.73c0 3.24-2.63 5.88-5.87 5.88s-5.87-2.64-5.87-5.88S4.76 21.85 8 21.85c.1 0 .19 0 .29.01l-1.38 5.59c-.11.46.08.95.47 1.21.4.26.92.25 1.3-.04l4.58-3.48c.38.78.6 1.65.6 2.58Zm-3.39-5.32c.52.25 1.01.56 1.43.95l-2.05 1.55zm3.25-.44a8.2 8.2 0 0 0-2.71-1.78l1.36-5.51h10.96zm18.04 11.64c-3.24 0-5.87-2.64-5.87-5.88 0-2.14 1.15-4.01 2.87-5.04l1.94 5.42c.16.46.6.75 1.06.75.13 0 .25-.02.38-.07.58-.21.89-.85.68-1.44l-1.94-5.42c.29-.04.58-.07.88-.07 3.24 0 5.87 2.64 5.87 5.88s-2.63 5.88-5.87 5.88Z"/>
</svg>
