<svg viewBox="0 0 32 32" xmlns="http://www.w3.org/2000/svg">
  <path d="M25.39 16.18c-.1 0-.2.01-.29.01l-1.32-4.02c.48.26 1.02.41 1.6.41 1.89 0 1.89-6.84 0-6.84-1.01 0-1.91.45-2.54 1.15V3.71a2.69 2.69 0 0 0-2.68-2.67h-2.41c-.97 0-1.75.78-1.75 1.75s.78 1.75 1.75 1.75h1.58l.02 4.03h-8.79l-.51-2.04h.33c.97 0 1.75-.78 1.75-1.75s-.78-1.75-1.75-1.75H4.95c-.97 0-1.75.78-1.75 1.75s.78 1.75 1.75 1.75h1.5l.95 3.81-1.32 5.83c-3.44.17-6.17 3-6.17 6.48s2.91 6.5 6.49 6.5 6.49-2.91 6.49-6.5c0-.94-.2-1.83-.56-2.63l8.15-6.73 1.3 3.96a6.52 6.52 0 0 0-2.88 5.4c0 3.59 2.91 6.5 6.49 6.5s6.49-2.91 6.49-6.5-2.91-6.5-6.49-6.5Zm-15.92.79 1.11-4.87h5.88l-6.37 5.25c-.2-.14-.4-.27-.62-.39Zm-.1 5.71a3 3 0 0 1-2.99 3 3 3 0 0 1-2.99-3c0-1.24.75-2.31 1.83-2.76l-.54 2.37s0 .06-.01.1c-.01.06-.02.13-.02.19v.16c0 .06 0 .12.01.17 0 .06.02.11.03.16.01.06.03.11.05.16s.04.11.06.16.05.1.08.15.07.1.1.15l.06.09c.01.01.03.02.04.04.05.06.12.12.18.17.03.03.06.06.09.08.07.06.16.1.24.15.03.01.05.03.07.04.11.05.22.09.34.11.03 0 .07 0 .1.01q.135.03.27.03h.03c.18 0 .36-.03.53-.09.01 0 .03 0 .04-.01.18-.06.34-.16.48-.27.01 0 .03-.01.04-.02l1.86-1.54c0 .06.02.12.02.19Zm16.02 3a3 3 0 0 1-2.99-3c0-.66.22-1.26.58-1.75l.76 2.3a1.743 1.743 0 0 0 2.21 1.11c.92-.3 1.42-1.29 1.11-2.21l-.76-2.3c1.21.39 2.09 1.51 2.09 2.84a3 3 0 0 1-2.99 3Z"/>
</svg>
