<svg viewBox="0 0 48 48" xmlns="http://www.w3.org/2000/svg">
  <path d="M38.14 23.53c-.72 0-1.41.08-2.08.23l-1.55-4.34c.65.32 1.38.52 2.17.52 2.52 0 2.52-8.35 0-8.35-1.55 0-2.91.71-3.73 1.78l-.03-7.02c0-1.45-1.18-2.63-2.63-2.63h-3.62a1.25 1.25 0 0 0 0 2.5h3.62c.07 0 .13.06.13.13l.04 8.67H14.82l-1.44-5.81h2.25a1.25 1.25 0 0 0 0-2.5H7.46a1.25 1.25 0 0 0 0 2.5h3.33l1.75 7.06-1.81 7.32c-.36-.04-.73-.07-1.11-.07-5.37.01-9.74 4.37-9.74 9.76s4.36 9.75 9.74 9.75 9.74-4.37 9.74-9.75c0-1.76-.47-3.41-1.29-4.84L31.44 18.3l2.26 6.31c-3.15 1.62-5.31 4.89-5.31 8.67 0 5.38 4.36 9.75 9.74 9.75s9.74-4.37 9.74-9.75-4.36-9.75-9.74-9.75Zm-2.23-9.31c.21.85.21 2.26 0 3.1-.76-.25-1.31-.86-1.31-1.55s.55-1.3 1.31-1.55M16.87 33.28c0 4-3.25 7.25-7.24 7.25s-7.24-3.25-7.24-7.25 3.25-7.25 7.24-7.25c.17 0 .33.01.5.03l-1.71 6.92c-.13.51.08 1.05.53 1.34.44.29 1.02.27 1.44-.05l5.68-4.31c.51.99.81 2.12.81 3.31Zm-4.32-6.63c.74.33 1.41.78 2 1.32l-2.86 2.17zm4.02-.21a9.8 9.8 0 0 0-3.41-2.24l1.65-6.67h13.52l-11.76 8.92Zm21.57 14.09c-3.99 0-7.24-3.25-7.24-7.25 0-2.69 1.48-5.04 3.66-6.29l2.41 6.71c.18.51.66.83 1.18.83a1.242 1.242 0 0 0 1.17-1.67l-2.41-6.72c.4-.07.81-.11 1.23-.11 3.99 0 7.24 3.25 7.24 7.25s-3.25 7.25-7.24 7.25"/>
</svg>
