<svg viewBox="0 0 40 40" xmlns="http://www.w3.org/2000/svg">
  <path d="M31.76 20.23c-.19 0-.38.02-.56.03l-1.7-5.16c.65.4 1.41.65 2.24.65 2.36 0 2.36-8.54 0-8.54-1.37 0-2.58.66-3.36 1.67l-.02-4.2a3.15 3.15 0 0 0-3.15-3.15h-3.02c-1.1 0-2 .9-2 2s.9 2 2 2h2.16l.03 5.42H13.06l-.73-2.93h.65c1.1 0 2-.9 2-2s-.9-2-2-2H6.19c-1.1 0-2 .9-2 2s.9 2 2 2h2.02l1.23 4.95-1.65 7.28c-4.38.1-7.91 3.69-7.91 8.11S3.51 36.48 8 36.48s8.12-3.64 8.12-8.12c0-1.24-.29-2.41-.78-3.46l10.36-8.55 1.7 5.17a8.11 8.11 0 0 0-3.76 6.85c0 4.49 3.63 8.12 8.12 8.12s8.12-3.64 8.12-8.12-3.63-8.12-8.12-8.12Zm-20.07.9 1.41-6.19h8.02l-8.33 6.87c-.35-.25-.71-.48-1.1-.68m.43 7.23c0 2.27-1.85 4.12-4.12 4.12s-4.12-1.85-4.12-4.12c0-1.87 1.26-3.43 2.96-3.94l-.79 3.5c-.25 1.08.43 2.15 1.51 2.39.63.14 1.25-.03 1.71-.41s2.77-2.28 2.77-2.28c.04.24.08.49.08.74m19.64 4.12c-2.27 0-4.12-1.85-4.12-4.12 0-1.07.42-2.05 1.1-2.78l1.12 3.41a2.01 2.01 0 0 0 2.53 1.28 2 2 0 0 0 1.27-2.53l-1.13-3.42c1.9.36 3.35 2.04 3.35 4.05 0 2.27-1.85 4.12-4.12 4.12Z"/>
</svg>
