<svg viewBox="0 0 64 64" xmlns="http://www.w3.org/2000/svg">
  <path d="M50.89 31.37c-1.06 0-2.08.14-3.06.38l-2.16-6.03c.95.55 2.06.87 3.27.87 3.37 0 3.37-11.13 0-11.13-2.26 0-4.22 1.12-5.28 2.79l-.04-4.92V8.47c0-1.77-1.44-3.21-3.21-3.21h-4.83c-.76 0-1.38.62-1.38 1.38s.62 1.38 1.38 1.38h4.83c.25 0 .46.21.46.46l.06 11.86H19.55l-2.07-8.33h3.37c.76 0 1.38-.62 1.38-1.38s-.62-1.38-1.38-1.38H9.98c-.76 0-1.38.62-1.38 1.38s.62 1.38 1.38 1.38h4.66l2.41 9.71-2.42 9.8c-.58-.08-1.16-.13-1.76-.13C5.7 31.37-.12 37.19-.12 44.37s5.82 13 12.99 13 12.99-5.82 12.99-13c0-2.46-.69-4.74-1.88-6.7L42.1 23.93l3.14 8.75c-4.34 2.1-7.34 6.54-7.34 11.69 0 7.18 5.82 13 12.99 13s12.99-5.82 12.99-13-5.82-13-12.99-13m-2.57-13.11c.53 1.26.53 4.27 0 5.53-1.55-.25-2.73-1.39-2.73-2.77s1.18-2.52 2.73-2.77ZM23.11 44.37c0 5.65-4.59 10.25-10.24 10.25S2.63 50.02 2.63 44.37s4.59-10.25 10.24-10.25a10 10 0 0 1 1.1.06l-2.44 9.86c-.14.57.09 1.16.58 1.48s1.12.3 1.59-.05l8.08-6.13c.84 1.49 1.33 3.2 1.33 5.03m-6.47-9.52c1.32.52 2.5 1.31 3.48 2.29l-4.99 3.78 1.5-6.08Zm5.69.62a12.9 12.9 0 0 0-5.02-3.31l2.25-9.09h19.13l-16.35 12.4Zm28.56 19.15c-5.65 0-10.24-4.6-10.24-10.25 0-3.95 2.25-7.38 5.52-9.09l3.42 9.55c.2.56.73.91 1.29.91a1.377 1.377 0 0 0 1.29-1.84l-3.43-9.56a10 10 0 0 1 2.13-.23c5.65 0 10.24 4.6 10.24 10.25s-4.59 10.25-10.24 10.25Z"/>
</svg>
