<svg viewBox="0 0 48 48" xmlns="http://www.w3.org/2000/svg">
  <path d="M38.14 24.28c-.28 0-.56.02-.83.04l-2.08-6.39c.82.57 1.81.9 2.88.9 2.83 0 2.83-10.37 0-10.37-1.73 0-3.26.87-4.18 2.21l-.02-5.28c0-2.01-1.63-3.64-3.63-3.64h-3.62c-1.24 0-2.25 1.01-2.25 2.25s1.01 2.25 2.25 2.25h2.75l.04 6.93H15.6l-.96-3.9h.98c1.24 0 2.25-1.01 2.25-2.25s-1.01-2.25-2.25-2.25H7.46c-1.24 0-2.25 1.01-2.25 2.25s1.01 2.25 2.25 2.25H10l1.52 6.18-1.98 8.83c-5.34.05-9.66 4.44-9.66 9.85S4.24 44 9.62 44s9.74-4.41 9.74-9.86c0-1.57-.37-3.04-1.01-4.36l12.58-10.5 2.11 6.46a9.88 9.88 0 0 0-4.64 8.39c0 5.45 4.36 9.86 9.74 9.86s9.74-4.41 9.74-9.86-4.36-9.86-9.74-9.86ZM13.92 25.3l1.71-7.62h10.21L15.51 26.3c-.5-.38-1.03-.72-1.59-1m.95 8.84c0 2.96-2.35 5.36-5.24 5.36s-5.24-2.4-5.24-5.36c0-2.56 1.76-4.69 4.11-5.23l-1.06 4.73c-.27 1.21.49 2.42 1.7 2.69.71.16 1.41-.04 1.93-.48s3.63-3.02 3.63-3.02c.1.42.17.85.17 1.3Zm23.27 5.36c-2.89 0-5.24-2.4-5.24-5.36 0-1.52.63-2.88 1.62-3.86L36 34.83c.31.95 1.19 1.55 2.14 1.55a2.248 2.248 0 0 0 2.14-2.95l-1.5-4.6c2.59.33 4.6 2.56 4.6 5.29 0 2.96-2.35 5.36-5.24 5.36Z"/>
</svg>
