<svg viewBox="0 0 24 24" xmlns="http://www.w3.org/2000/svg">
  <path d="M19.01 11.76c-.27 0-.53.04-.79.08l-.89-2.5c.31.15.66.24 1.04.24 1.26 0 1.26-4.17 0-4.17-.68 0-1.29.28-1.7.71V3.18c-.01-.86-.72-1.56-1.58-1.56h-1.81c-.48 0-.87.39-.87.88s.39.88.87.88h1.62l.02 3.9H7.55l-.6-2.41h.8c.48 0 .87-.39.87-.88s-.39-.88-.87-.88H3.67c-.48 0-.87.39-.87.88s.39.88.87.88h1.47l.82 3.28-.9 3.66c-.1 0-.19-.03-.3-.03-2.7-.02-4.88 2.17-4.88 4.86s2.18 4.88 4.87 4.88 4.87-2.18 4.87-4.88c0-.79-.21-1.53-.54-2.19l6.46-4.9 1.03 2.89c-1.45.84-2.44 2.4-2.44 4.2 0 2.69 2.18 4.88 4.87 4.88s4.87-2.18 4.87-4.88-2.18-4.88-4.87-4.88ZM6.32 13.95c.1.06.2.12.29.19l-.41.31zm1.56 2.69c0 1.72-1.4 3.12-3.12 3.12s-3.12-1.4-3.12-3.12 1.33-3.04 2.99-3.11l-.72 2.9c-.09.36.06.74.37.94.31.21.72.19 1.01-.03l2.38-1.81c.13.35.21.72.21 1.11m.15-3.59a4.8 4.8 0 0 0-1.28-.85l.79-3.19h5.82zm10.98 6.71c-1.72 0-3.12-1.4-3.12-3.12 0-1.04.51-1.95 1.29-2.52l1.01 2.81c.13.36.46.58.82.58.1 0 .2-.02.3-.05a.88.88 0 0 0 .53-1.12l-1.01-2.81c.06 0 .12-.02.18-.02 1.72 0 3.12 1.4 3.12 3.12s-1.4 3.12-3.12 3.12Z"/>
</svg>
