<svg viewBox="0 0 40 40" xmlns="http://www.w3.org/2000/svg">
  <path d="M29.82 19.63c-.81 0-1.6.11-2.36.29l-2.17-6.03c.64.45 1.44.73 2.31.73 2.11 0 2.11-6.96 0-6.96-1.74 0-3.19 1.07-3.65 2.52l-2.53-8.03C21.09 1.3 20.58 0 18.94 0h-3.78c-.62 0-1.12.5-1.12 1.12s.5 1.12 1.12 1.12l3.82-.03c.07.07.19.32.33.68L21.55 10h-4.63v2.25h5.44c.01.06 0 .12.03.17l2.96 8.24c-3.38 1.66-5.71 5.12-5.71 9.14 0 5.62 4.56 10.18 10.19 10.18s10.19-4.56 10.19-10.18-4.56-10.18-10.19-10.18Zm-2.97-9.56c.11.62.11 1.51 0 2.14-.48-.21-.8-.62-.8-1.07s.33-.86.8-1.07m2.97 27.68c-4.38 0-7.94-3.56-7.94-7.93 0-3.04 1.72-5.67 4.23-7.01l2.65 7.39c.16.46.6.75 1.06.75.13 0 .25-.02.38-.07.58-.21.89-.85.68-1.44l-2.65-7.39c.52-.11 1.05-.16 1.59-.16 4.38 0 7.94 3.56 7.94 7.93s-3.56 7.93-7.94 7.93m-15.7-25.27h-1.75V10c0-.9-.73-1.62-1.62-1.62H5c-.9 0-1.62.73-1.62 1.62v2.48H1.63c-.9 0-1.63.73-1.63 1.63v19.24c0 .9.73 1.62 1.62 1.62h12.5c.9 0 1.62-.73 1.62-1.62V14.11c0-.9-.73-1.62-1.62-1.62Zm-8.49-1.85h4.5v1.85h-4.5zm7.87 22.09H2.25V14.73H13.5zm-2.25-13.03H4.5v-2.25h6.75zm0 5.16H4.5V22.6h6.75zm0 5.16H4.5v-2.25h6.75z"/>
</svg>
