<svg viewBox="0 0 24 24" xmlns="http://www.w3.org/2000/svg">
  <path d="M17.89 11.78c-.42 0-.82.04-1.22.12l-1.34-3.74c.41.37.98.61 1.61.61 1.26 0 1.26-4.17 0-4.17-1.16 0-2.11.79-2.26 1.82l-1.55-4.99C12.93.89 12.58 0 11.46 0H9.19c-.48 0-.87.39-.87.88s.39.88.87.88h2.19c.03.05.06.13.11.25l1.18 3.81h-2.21v1.75h2.8l1.77 4.94a6.12 6.12 0 0 0-3.25 5.4c0 3.37 2.74 6.11 6.11 6.11S24 21.28 24 17.91s-2.74-6.11-6.11-6.11Zm0 10.47a4.37 4.37 0 0 1-4.36-4.36c0-1.57.85-2.94 2.1-3.71l1.44 4.01c.13.36.46.58.82.58.1 0 .2-.02.3-.05a.88.88 0 0 0 .53-1.12l-1.44-4c.2-.03.4-.06.61-.06 2.4 0 4.36 1.96 4.36 4.36s-1.96 4.36-4.36 4.36ZM8.47 7.29h-.65V5.9c0-.76-.62-1.38-1.37-1.38H3.4c-.76 0-1.37.62-1.37 1.38v1.39h-.65C.62 7.29 0 7.91 0 8.66V19.8c0 .76.62 1.38 1.37 1.38h7.1c.76 0 1.37-.62 1.37-1.38V8.66c0-.76-.62-1.38-1.37-1.38Zm-4.7-1.01h2.3v1.01h-2.3zM8.1 19.43H1.75V9.04H8.1zm-1.15-7.42H2.9v-1.75h4.05zm0 3.1H2.9v-1.75h4.05zm0 3.1H2.9v-1.75h4.05z"/>
</svg>
