<svg viewBox="0 0 16 16" xmlns="http://www.w3.org/2000/svg">
  <path d="M11.93 7.85c-.22 0-.43.03-.64.06l-.88-2.46c.27.24.64.39 1.05.39.84 0 .84-2.78 0-2.78-.77 0-1.4.52-1.5 1.19v-.03l-.99-3.03A1.35 1.35 0 0 0 7.64 0H6.13c-.41 0-.75.34-.75.75s.34.75.75.75h1.36l.72 2.2h-.9v1.5h1.42l1.16 3.22c-1.2.71-2.02 2-2.02 3.5a4.07 4.07 0 1 0 8.14 0 4.07 4.07 0 0 0-4.07-4.08Zm0 6.65c-1.42 0-2.57-1.16-2.57-2.58 0-.84.41-1.59 1.04-2.06l.83 2.31c.11.31.4.5.71.5.08 0 .17-.01.25-.04a.75.75 0 0 0 .45-.96l-.83-2.31s.08-.01.12-.01c1.42 0 2.57 1.16 2.57 2.58s-1.15 2.58-2.57 2.58ZM5.65 4.69h-.1v-.93c0-.69-.56-1.25-1.25-1.25H2.6c-.69 0-1.25.56-1.25 1.25v.93h-.1C.56 4.69 0 5.25 0 5.94v7.1c0 .69.56 1.25 1.25 1.25h4.4c.69 0 1.25-.56 1.25-1.25v-7.1c0-.69-.56-1.25-1.25-1.25m-2.8-.67h1.2v.67h-1.2zm2.55 8.77H1.5v-6.6h3.9zm-.6-4.62H2.1v-1.5h2.7zm0 2.07H2.1v-1.5h2.7zm0 2.07H2.1v-1.5h2.7z"/>
</svg>
