<svg viewBox="0 0 16 16" xmlns="http://www.w3.org/2000/svg">
  <path d="M11.93 7.85c-.13 0-.26.03-.38.04l-.79-2.21c.21.1.45.16.7.16.84 0 .84-2.78 0-2.78-.6 0-1.12.32-1.37.79l-.86-2.49C9.12.6 8.46 0 7.66 0H6.15c-.55 0-1 .45-1 1s.45 1 1 1h1.18l.5 1.46H7.3v2h1.24l1.11 3.09c-1.08.73-1.8 1.97-1.8 3.38 0 2.25 1.82 4.07 4.07 4.07s4.07-1.82 4.07-4.07-1.82-4.07-4.07-4.07Zm0 6.15c-1.14 0-2.07-.93-2.07-2.07 0-.52.2-1 .52-1.36l.61 1.7a1 1 0 0 0 1.28.6c.52-.19.79-.76.6-1.28l-.61-1.7c.99.16 1.74 1.01 1.74 2.04 0 1.14-.93 2.07-2.07 2.07M5.8 4.72V3.26c0-.83-.67-1.5-1.5-1.5H2.6c-.83 0-1.5.67-1.5 1.5v1.46C.48 4.8 0 5.31 0 5.94v7.09c0 .69.56 1.25 1.25 1.25h4.4c.69 0 1.25-.56 1.25-1.25V5.94c0-.64-.48-1.14-1.1-1.22m-2.7-.95h.7v.67h-.7zm1.7 9.03H2.1v-1.5h2.7zm0-2.56H2.1v-1.5h2.7zm0-2.57H2.1v-1.5h2.7z"/>
</svg>
