<svg viewBox="0 0 40 40" xmlns="http://www.w3.org/2000/svg">
  <path d="M29.82 19.63c-.51 0-1 .05-1.49.12l-1.91-5.33c.38.11.77.19 1.19.19 1.05 0 1.58-1.74 1.58-3.48s-.53-3.48-1.58-3.48c-1.27 0-2.38.57-3.07 1.44l-1.97-6.25-.05-.13C22.17 1.83 21.45 0 19.22 0h-3.78c-1.1 0-2 .9-2 2s.9 2 2 2h3.29s.03.07.04.11l1.58 5.02h-3.44v4h4.79l2.86 7.97c-2.95 1.78-4.93 5.01-4.93 8.71 0 5.62 4.56 10.18 10.19 10.18s10.19-4.56 10.19-10.18-4.56-10.18-10.19-10.18m0 16.37c-3.41 0-6.19-2.77-6.19-6.18 0-1.95.91-3.69 2.33-4.83l1.97 5.5a1.995 1.995 0 0 0 2.56 1.21 2.005 2.005 0 0 0 1.21-2.56l-1.97-5.5h.09c3.41 0 6.19 2.77 6.19 6.18S33.23 36 29.82 36m-15.7-23.52h-.87V9a2.5 2.5 0 0 0-2.5-2.5H5A2.5 2.5 0 0 0 2.5 9v3.48h-.87c-.9 0-1.63.73-1.63 1.63v19.24c0 .9.73 1.63 1.62 1.63h12.5c.9 0 1.62-.73 1.62-1.63V14.11c0-.9-.73-1.63-1.62-1.63M6.5 10.5h2.75v1.1H6.5zm4.75 19.52H4.5v-2.25h6.75zm0-5.17H4.5V22.6h6.75zm0-5.16H4.5v-2.25h6.75z"/>
</svg>
