<svg viewBox="0 0 24 24" xmlns="http://www.w3.org/2000/svg">
  <path d="M23.82 19.73 13.37 1.34c-.29-.5-.79-.75-1.29-.75s-1 .25-1.29.75L.21 19.72c-.57.99.15 2.23 1.29 2.23h21.02c1.14 0 1.86-1.23 1.29-2.22Zm-21.86.47L12.07 2.6l10 17.6zm8.65-8.49c.8-.54 1.85-.59 2.73-.09l.11.06-.07.11c-.08.13-.17.28-.31.4l-.07.06-.08-.04c-.66-.35-1.21-.33-1.85.07l-.07.04-.07-.05c-.14-.11-.26-.23-.37-.39l-.07-.1.11-.07Zm3.35 2.17v-.14l.12-.05c.14-.04.29-.06.44-.06h.12v.12s.02.03.02.04v.08c0 .98-.55 1.87-1.44 2.32l-.11.05-.06-.11c-.07-.12-.15-.28-.19-.47l-.02-.09.08-.04c.63-.33 1.02-.97 1.03-1.65Zm-3.16 2.26a2.6 2.6 0 0 1-1.35-2.27v-.17l.14.03c.18.01.35.05.5.11l.07.03v.08c.03.61.36 1.16.9 1.5l.07.04v.08c-.03.18-.08.34-.15.51l-.06.12-.12-.07Zm3.12-5.2a1.9 1.9 0 1 1-3.8 0c0-.85.61-1.58 1.48-1.79l.1-.02v-.57l-.15.03c-1.36.24-2.34 1.38-2.34 2.73 0 .37.09.74.27 1.13-.4.05-.73.15-1.03.32-1.17.67-1.67 2.11-1.19 3.4l.05.14.49-.28-.03-.1c-.26-.86.07-1.75.81-2.18.44-.25.95-.32 1.44-.19a1.89 1.89 0 0 1 1.34 2.32c-.13.49-.44.9-.88 1.15-.75.43-1.67.28-2.29-.38l-.07-.07-.49.28.1.11C8.29 17.64 9.09 18 9.9 18c.47 0 .94-.12 1.36-.37.31-.18.57-.42.81-.76.24.31.49.54.77.7 1.17.67 2.66.39 3.54-.67l.09-.11-.49-.28-.07.07c-.61.66-1.55.82-2.29.39a1.887 1.887 0 0 1-.69-2.59c.25-.44.66-.75 1.15-.88s1-.06 1.44.19c.74.42 1.07 1.32.81 2.17l-.03.09.49.28.05-.14c.47-1.29-.03-2.72-1.19-3.39-.31-.18-.66-.28-1.08-.32.17-.37.24-.72.24-1.07 0-1.35-.99-2.5-2.35-2.73l-.15-.03v.57l.1.02c.87.2 1.49.94 1.49 1.79Zm-1.5 2.94c0 .18-.14.32-.32.32s-.32-.14-.32-.32.14-.32.32-.32.32.14.32.32"/>
</svg>
