<svg viewBox="0 0 64 64" xmlns="http://www.w3.org/2000/svg">
  <path d="M63.48 52.52 35.66 3.54a3.97 3.97 0 0 0-3.48-2.03c-1.35 0-2.7.67-3.47 2.01L.55 52.51c-1.53 2.67.39 6 3.47 6H60c3.07 0 5-3.31 3.48-5.98Zm-2.4 2.61c-.14.23-.46.62-1.08.62H4.02a1.2 1.2 0 0 1-1.08-.62 1.23 1.23 0 0 1 0-1.25L31.09 4.89c.31-.55.81-.63 1.08-.63s.77.08 1.09.63l27.83 48.98c.31.54.13 1.01 0 1.25ZM27.67 30.08a7.94 7.94 0 0 1 4.45-1.36c1.38 0 2.71.37 3.97 1.09l.22.13-.13.22c-.22.37-.53.84-.96 1.22l-.13.12-.15-.08c-2.09-1.11-3.89-1.05-5.94.21l-.15.09-.14-.1c-.43-.32-.79-.71-1.11-1.18l-.14-.21.21-.14Zm-3.57 6.67v-.34l.28.03c.56.04 1.07.16 1.53.34l.15.06V37c.09 1.97 1.14 3.73 2.88 4.83l.13.08-.02.16c-.06.54-.2 1.05-.44 1.56l-.11.25-.24-.13c-2.57-1.42-4.17-4.11-4.17-7Zm14.14.01s-.03-.09-.03-.15v-.19l.18-.05s.05-.03.1-.05c.43-.12.88-.18 1.34-.18h.31l-.03.24c0 .04 0 .09.01.13.01.08.02.15.02.23 0 3.02-1.7 5.76-4.44 7.14l-.22.11-.12-.21c-.2-.37-.45-.86-.57-1.43l-.04-.18.17-.09c2.03-1.08 3.3-3.12 3.3-5.32Zm5.13-3.54c-1-.58-2.13-.91-3.51-1.02.57-1.23.84-2.34.84-3.47 0-4.17-3.05-7.71-7.25-8.42l-.29-.05v1.49l.19.04c2.81.64 4.77 3.01 4.77 5.75 0 3.36-2.73 6.09-6.09 6.09s-6.09-2.73-6.09-6.09c0-2.73 1.95-5.09 4.74-5.74l.19-.04v-1.5l-.29.05c-4.18.73-7.22 4.26-7.22 8.41 0 1.2.3 2.37.94 3.66-1.33.13-2.42.45-3.39 1.01-3.61 2.08-5.15 6.5-3.66 10.49l.1.28 1.29-.75-.06-.19c-.85-2.75.22-5.63 2.6-7.01a6.07 6.07 0 0 1 4.62-.61c1.57.42 2.88 1.43 3.7 2.84 1.68 2.91.68 6.64-2.23 8.32-2.36 1.37-5.38.86-7.34-1.23l-.14-.14-1.29.75.19.23c1.73 2.07 4.2 3.17 6.7 3.17 1.44 0 2.88-.37 4.19-1.12 1-.58 1.84-1.38 2.62-2.51.76 1.04 1.56 1.78 2.5 2.32 3.61 2.08 8.2 1.21 10.92-2.07l.19-.23-1.29-.75-.14.15c-1.96 2.11-4.99 2.63-7.37 1.25a6.04 6.04 0 0 1-2.84-3.7c-.42-1.57-.21-3.21.61-4.62a6.04 6.04 0 0 1 3.7-2.84c1.57-.42 3.21-.21 4.62.61 2.36 1.36 3.43 4.23 2.61 6.97l-.06.19 1.29.75.1-.28c1.46-3.99-.08-8.39-3.67-10.46Zm-9.6 3.55c0 .82-.67 1.49-1.49 1.49s-1.49-.67-1.49-1.49.67-1.49 1.49-1.49 1.49.67 1.49 1.49"/>
</svg>
