<svg viewBox="0 0 40 40" xmlns="http://www.w3.org/2000/svg">
  <path d="M37.75 36.48H2.27c-1.73 0-2.82-1.87-1.95-3.38L18.16 2.05A2.23 2.23 0 0 1 20.11.92v2.25h-.01L2.26 34.22h35.49L20.12 3.17V.92c.76 0 1.52.38 1.96 1.14l17.64 31.05c.85 1.5-.23 3.37-1.96 3.37ZM21.84 26.42l-.08.04.02.09c.07.35.22.65.35.88l.06.11.11-.05a4.91 4.91 0 0 0 2.73-4.4c0-.05 0-.09-.01-.14v-.21h-.11l-.02.12v-.13c-.29 0-.57.04-.84.11-.03 0-.05.02-.06.03l-.09.03v.1s.01.06.02.09c0 1.38-.79 2.65-2.06 3.33Zm-1-12.62-.1-.02v-.87l.15.03c2.59.44 4.47 2.62 4.47 5.19 0 .71-.17 1.41-.53 2.18.87.06 1.58.27 2.21.63 2.21 1.28 3.16 3.99 2.26 6.44l-.05.14-.75-.43.03-.09c.52-1.71-.15-3.5-1.63-4.35-.88-.51-1.91-.64-2.89-.38s-1.8.89-2.31 1.77-.64 1.9-.38 2.88.89 1.8 1.77 2.31c1.48.86 3.38.54 4.6-.78l.07-.07.75.43-.09.11c-1.67 2.02-4.5 2.56-6.73 1.28-.59-.34-1.09-.81-1.57-1.46-.49.72-1.01 1.22-1.64 1.58-.81.47-1.7.69-2.58.69-1.54 0-3.06-.68-4.13-1.95l-.1-.11.75-.43.07.07c1.24 1.33 3.08 1.63 4.58.77a3.798 3.798 0 0 0-.92-6.96c-.98-.26-2.01-.13-2.89.38-1.49.86-2.15 2.66-1.62 4.37l.03.1-.75.43-.05-.14c-.91-2.46.04-5.18 2.26-6.46.61-.35 1.29-.55 2.13-.63-.41-.81-.6-1.54-.6-2.29 0-2.55 1.87-4.73 4.45-5.18l.15-.03v.87l-.1.02c-1.74.41-2.96 1.88-2.96 3.59 0 2.1 1.71 3.8 3.8 3.8s3.8-1.71 3.8-3.8c0-1.71-1.22-3.19-2.98-3.59Zm-.66 8.34a.95.95 0 1 0 0 1.9c.52 0 .96-.43.96-.95s-.43-.95-.96-.95m-2.47 5.25.12.07.06-.12c.14-.31.23-.62.27-.96v-.08l-.06-.04c-1.09-.69-1.74-1.78-1.79-3.02v-.08l-.08-.03a3.1 3.1 0 0 0-.94-.21h-.14v.16c0 1.78.98 3.43 2.57 4.31Zm-.37-8.41-.11.07.07.1c.2.29.42.53.68.72l.07.05.07-.04c1.28-.79 2.4-.83 3.71-.13l.08.04.06-.06c.27-.24.45-.53.59-.75l.07-.11-.11-.06c-.78-.45-1.6-.67-2.44-.67-.98 0-1.93.29-2.74.84"/>
</svg>
