<svg viewBox="0 0 32 32" xmlns="http://www.w3.org/2000/svg">
  <path d="M16.84 18.49c0 .38-.31.69-.69.69s-.69-.31-.69-.69.31-.69.69-.69.69.31.69.69m14.91 9.75c-.08.14-.19.28-.3.4-.23.24-.53.42-.87.52-.17.05-.35.07-.54.07H1.99c-.38 0-.73-.1-1.02-.28s-.53-.42-.7-.71c-.09-.16-.16-.34-.2-.53-.12-.47-.07-.98.2-1.46l14.1-24.53c.1-.17.21-.31.34-.44.04-.04.09-.06.13-.1.09-.08.18-.16.28-.21.06-.03.13-.05.19-.07.09-.04.19-.09.28-.11.07-.02.14-.02.21-.03.1-.01.19-.04.29-.04s.19.02.28.04c.07.01.15 0 .22.03.1.02.18.07.28.11.06.03.13.04.2.08.09.05.18.13.26.2.05.04.11.07.15.12.13.13.24.27.33.44l13.94 24.53.06.15c.29.62.24 1.3-.07 1.83ZM13.93 15.27c.15.22.32.4.53.56.48-.29 1.01-.51 1.61-.51.53 0 1.01.17 1.45.4.18-.16.32-.36.45-.58-.56-.32-1.21-.52-1.91-.52-.79 0-1.53.24-2.14.65Zm7.65 1.57c-.59-.34-1.23-.47-1.87-.5.28-.56.48-1.16.48-1.83 0-2.07-1.52-3.72-3.49-4.05v.5c1.39.32 2.46 1.48 2.46 2.97a3.139 3.139 0 1 1-6.28 0c0-1.48 1.06-2.64 2.44-2.97v-.5c-1.96.34-3.48 1.99-3.48 4.05 0 .71.22 1.34.54 1.93-.62.04-1.24.17-1.81.5-1.79 1.03-2.46 3.18-1.76 5.05l.43-.25c-.42-1.37.05-2.87 1.34-3.62 1.5-.87 3.43-.35 4.29 1.15.87 1.5.35 3.43-1.15 4.29-1.28.74-2.82.4-3.79-.63l-.43.25c1.28 1.53 3.46 2.02 5.24.99.59-.34 1.01-.82 1.36-1.36.34.49.75.94 1.31 1.26 1.79 1.03 3.98.54 5.26-1l-.43-.25c-.97 1.05-2.51 1.39-3.8.64a3.141 3.141 0 0 1 3.14-5.44c1.28.74 1.76 2.24 1.35 3.6l.43.25c.69-1.87.02-4.01-1.77-5.04Zm-2.35 1.64c0 1.21-.7 2.22-1.7 2.75.05.24.15.46.27.68 1.26-.64 2.13-1.93 2.13-3.43 0-.06-.02-.12-.02-.18h-.01c-.21 0-.43.03-.64.08-.02 0-.03.02-.05.02 0 .02.01.05.01.07Zm-5.01 3.36c.11-.24.18-.48.21-.74-.85-.54-1.44-1.43-1.48-2.49-.23-.09-.47-.14-.72-.16v.03c0 1.45.82 2.7 2 3.36Z"/>
</svg>
