<svg viewBox="0 0 16 16" xmlns="http://www.w3.org/2000/svg">
  <path d="M15.88 13.14 8.92.88c-.19-.33-.53-.5-.86-.5s-.67.17-.86.5L.15 13.14c-.38.66.1 1.49.86 1.49h14.01c.76 0 1.24-.82.86-1.48Zm-14-.02L8.05 2.39l6.09 10.73zm5.17-5.01c.55-.37 1.26-.41 1.87-.06l.11.06-.07.11c-.05.08-.12.19-.22.28l-.07.06-.08-.04c-.42-.22-.78-.21-1.19.04l-.07.04-.07-.05a.9.9 0 0 1-.25-.27l-.07-.1zm.14 3.03a1.78 1.78 0 0 1-.92-1.55v-.17l.14.03c.13 0 .24.04.35.08l.07.03v.08c.02.4.23.75.58.97l.07.04v.08c-.02.12-.06.24-.11.35l-.06.12-.12-.07Zm2.05-3.51c0 .67-.55 1.22-1.22 1.22S6.8 8.3 6.8 7.63c0-.56.38-1.02.95-1.15l.1-.02V6l-.15.03c-.92.16-1.59.94-1.59 1.86 0 .24.05.47.16.72-.25.03-.46.1-.65.21-.8.46-1.14 1.43-.81 2.32l.05.14.4-.23-.03-.1c-.17-.55.04-1.13.52-1.41.58-.34 1.33-.14 1.67.45.34.58.14 1.33-.45 1.67-.48.28-1.07.18-1.47-.25l-.07-.07-.4.23.1.11c.38.46.93.7 1.48.7.32 0 .64-.08.93-.25.2-.11.37-.27.52-.48.15.19.31.33.49.44.8.46 1.81.27 2.41-.46l.09-.11-.4-.23-.07.07c-.39.42-1 .53-1.48.25a1.2 1.2 0 0 1-.57-.74v-.11.02c.03.1.07.2.13.32l.06.11.11-.05c.61-.31.98-.91.98-1.58v-.2h-.13c-.1 0-.21.01-.32.05l-.1.03v.11l.02.03c0 .44-.26.84-.66 1.06l-.07.04c-.03-.26 0-.52.13-.75.34-.58 1.08-.79 1.67-.45.48.28.69.84.52 1.4l-.03.09.4.23.05-.14c.32-.88-.02-1.85-.81-2.31-.2-.11-.42-.18-.68-.21.1-.24.14-.45.14-.68 0-.92-.67-1.7-1.6-1.86l-.15-.03v.46l.1.02c.56.13.96.6.96 1.15Zm-.99 1.96c0 .09-.08.17-.17.17s-.17-.08-.17-.17.08-.17.17-.17.17.08.17.17"/>
</svg>
