<svg viewBox="0 0 32 32" xmlns="http://www.w3.org/2000/svg">
  <path d="M7.15 5.43V.98c0-.55-.45-1-1-1-3.41 0-6.18 2.77-6.18 6.17v19.66c0 3.4 2.77 6.17 6.17 6.17h25.83V5.43zm-2-3.32v17.61c-1.22.2-2.31.75-3.18 1.55V6.15c0-1.96 1.36-3.59 3.18-4.04m24.82 27.87H6.15c-2.3 0-4.17-1.87-4.17-4.17s1.87-4.17 4.17-4.17c.55 0 1-.45 1-1V7.43h22.83v22.55Zm-2-20.56H9.17v8.64h18.8zm-2 6.65h-14.8v-4.65h14.8zm-6.56 11.91v-7.91H9.17v7.91zm-8.24-5.91h6.24v3.91h-6.24zm10.24 5.91h6.56v-7.91h-6.56zm2-5.91h2.56v3.91h-2.56z"/>
</svg>
