<svg viewBox="0 0 64 64" xmlns="http://www.w3.org/2000/svg">
  <path d="M63.99 11.12H13.31V1.36c0-.76-.62-1.37-1.38-1.37C5.34-.01-.01 5.34-.01 11.92v40.13c0 6.58 5.36 11.93 11.94 11.93h52.06zM10.56 2.85V40.2c-3.13.36-5.9 1.93-7.82 4.24V11.92c0-4.6 3.4-8.41 7.82-9.07m1.37 58.39c-5.07 0-9.19-4.12-9.19-9.19s4.12-9.19 9.19-9.19c.76 0 1.38-.62 1.38-1.37V13.87h47.93v47.37zm45.31-43.36H17.33v18.11h39.91zm-2.75 15.35H20.08V20.62h34.41zm-12.68 6.76H17.33v17.27h24.48zM20.08 54.51V42.74h18.98v11.77zm37.16-14.52H45.8v17.27h11.44zm-8.69 14.52V42.74h5.94v11.77z"/>
</svg>
