<svg viewBox="0 0 16 16" xmlns="http://www.w3.org/2000/svg">
  <path d="M4.15 2.63V.75C4.15.33 3.81 0 3.4 0c-.03 0-.05.01-.08.02-.03 0-.05-.02-.08-.02C1.45 0-.01 1.46-.01 3.25v9.5c0 1.79 1.46 3.25 3.25 3.25h12.75V2.63zM2.64 1.61v7.95c-.42.08-.81.24-1.16.46V3.25c0-.76.48-1.39 1.16-1.64M14.49 14.5H3.24c-.97 0-1.75-.79-1.75-1.75S2.28 11 3.24 11c.03 0 .05-.01.08-.02.03 0 .05.02.08.02.41 0 .75-.34.75-.75V4.13h10.34v10.36Zm-1.01-9.37H5.15v3.65h8.34V5.13Zm-1.5 2.15H6.64v-.65h5.34zm-.99 6.22V9.78H5.15v3.72zm-4.34-2.22h2.84V12H6.65zm5.33-1.5h1.5v3.73h-1.5z"/>
</svg>
