<svg viewBox="0 0 48 48" xmlns="http://www.w3.org/2000/svg">
  <path d="M35.38 5.5c-2.92 0-8.81.26-11.38 2.17-2.56-1.91-8.45-2.17-11.38-2.17C8.82 5.5 0 5.93 0 9.87v31.29h1.32l1.18-.82c.32-.65 3.67-1.9 10.12-1.9s9.86 1.26 10.13 1.87l.86.93h.85l.8-.91c.32-.65 3.67-1.9 10.13-1.9s9.86 1.26 10.12 1.87l1.14.84h1.36V9.87c0-3.94-8.83-4.37-12.62-4.37ZM22.75 37.4c-2.9-1.27-7.61-1.45-10.13-1.45S5.4 36.14 2.5 37.4V9.91C2.77 9.26 6.12 8 12.62 8s9.86 1.26 10.13 1.87zm22.75 0c-2.9-1.27-7.61-1.45-10.12-1.45s-7.22.19-10.13 1.45V9.9c.3-.65 3.65-1.9 10.13-1.9s9.86 1.26 10.12 1.87z"/>
</svg>
