<svg viewBox="0 0 32 32" xmlns="http://www.w3.org/2000/svg">
  <path d="M23.5 3.63c-1.91 0-5.7.17-7.5 1.4-1.8-1.23-5.59-1.4-7.5-1.4-2.56 0-8.5.3-8.5 3.06v20.62h1.15l.85-.48c.36-.41 2.54-1.13 6.5-1.13s6.14.72 6.5 1.13l.73.54h.64l.63-.54c.36-.41 2.54-1.13 6.5-1.13s6.14.72 6.5 1.13l.64.48H32V6.69c0-2.76-5.94-3.06-8.5-3.06M15 24.58c-1.97-.77-4.9-.88-6.5-.88s-4.53.12-6.5.88V6.76c.36-.41 2.54-1.13 6.5-1.13s6.14.72 6.5 1.13v17.81Zm15 0c-1.97-.77-4.9-.88-6.5-.88s-4.53.12-6.5.88V6.76c.36-.41 2.54-1.13 6.5-1.13s6.14.72 6.5 1.13v17.81Z"/>
</svg>
