<svg viewBox="0 0 32 32" xmlns="http://www.w3.org/2000/svg">
  <path d="M32 4.73v-.27c0-.03-.02-.05-.02-.07 0-.04-.02-.07-.03-.11a1 1 0 0 0-.13-.24c-.01-.02-.02-.04-.03-.05 0 0-.01 0-.02-.02-.08-.09-.17-.16-.28-.22-.03-.02-.06-.02-.09-.03-.06-.02-.11-.05-.17-.07L15.4.02c-.25-.05-.51-.02-.74.11L.51 8.2s-.05.04-.07.06c-.01 0-.03 0-.04.02-.01.01-.02.03-.03.04-.11.09-.2.19-.26.31s-.08.25-.09.39c0 .02-.01.03-.01.05v5.68c0 .13.03.25.07.36-.04.1-.07.21-.07.32v5.68c0 .09.02.18.05.26-.01.07-.05.13-.05.19v5.17c0 .45.31.85.75.97l15.78 4.26c.09.02.18.04.27.04.18 0 .35-.04.5-.13l13.83-7.82c.26-.15.44-.41.49-.7.05-.3-.04-.6-.24-.82-.4-.45-1.4-1.9-1.3-3.18.03-.4.18-.76.44-1.09l.6-.34a.986.986 0 0 0 .25-1.52c-.4-.45-1.4-1.9-1.3-3.18.05-.6.34-1.11.88-1.57l.16-.09c.25-.14.42-.38.48-.66s0-.57-.17-.8c-.21-.29-2.01-2.87.2-4.69.02-.01.02-.03.04-.05.07-.06.13-.13.17-.21.02-.02.03-.05.05-.07.05-.1.08-.21.1-.33Zm-2.77 5.58-12.1 6.9c-.36-.62-.95-2 .11-3.09.13-.02.25-.06.37-.13L28.54 7.3c-.05 1.11.27 2.17.69 3.01M4.52 20.92l-2.49-.6v-3.61l2.49.63v3.57Zm2.03.44v-6.31l3.26.87.04 6.15-.78-.62-.95-.76-1.12.48-.44.19Zm-2.02-8.92v2.13l-2.5-.6v-3.61l2.58.66 10.45 2.66c-.62 1.14-.54 2.37-.21 3.39l-3.03-.73v-1.93l-7.3-1.96Zm7.31 5.95 3.46.83c-.98 1.41-.77 3.02-.27 4.22l-3.16-.76zm3.5-16.33 13.04 2.98-11.47 7.02L3.68 8.7zM2.03 22.87l2.49.63v.91l2.14-.91 2.48.59 2.75 2.2v-1.54l3.1.74c-.68 1.42-.33 2.95.21 4.03L2.04 25.97v-3.11Zm27.12-.01-11.68 6.61a1 1 0 0 0-.14-.31c-.15-.21-1.39-1.99-.13-3.35.04-.02.08-.03.11-.05l10.76-6.12c.03 1.27.59 2.43 1.08 3.21Zm.01-6.14-11.82 6.73c-.16-.22-1.55-2.22.13-3.6.22-.18.34-.44.36-.7l10.25-5.85c-.03 1.35.56 2.61 1.08 3.43ZM18.63 8.14l-6.52-1.8 2.73-1.95 6.44 1.87-2.65 1.87Z"/>
</svg>
