<svg viewBox="0 0 64 64" xmlns="http://www.w3.org/2000/svg">
  <path d="M42.66 20.18H21.33v-2.75h21.33zm11.25 36.69c0 2.58 1.38 4.38 2.62 4.38v.02c.65.11 1.14.67 1.14 1.35s-.49 1.24-1.14 1.35v.02H13.01a6.98 6.98 0 0 1-4.99-2.08 6.88 6.88 0 0 1-2.01-4.96c0-.32.04-.64.08-.95-.05-.14-.08-.3-.08-.46v-2.85H6V2.74A2.725 2.725 0 0 1 8.74 0h46.5c1.52 0 2.75 1.23 2.75 2.75V52.7h-2.16c-1.01.52-1.92 2.08-1.92 4.17M8.74 2.74v40.33s.01.09.01.13v6.74h46.49V2.74zm4.27 58.5h39.27c-.7-1.2-1.11-2.71-1.11-4.38 0-1.52.34-2.91.93-4.05H13.01c-2.32 0-4.23 1.87-4.25 4.17a4.17 4.17 0 0 0 1.21 2.99c.81.81 1.88 1.26 3.04 1.26Z"/>
</svg>
