<svg viewBox="0 0 16 16" xmlns="http://www.w3.org/2000/svg">
  <path d="M16 2.6v-.21c0-.02-.01-.04-.02-.06 0-.03-.02-.05-.03-.08a.5.5 0 0 0-.1-.18c0-.01-.01-.03-.02-.04 0 0-.01 0-.01-.01a.9.9 0 0 0-.21-.17c-.02 0-.04-.01-.05-.02a.7.7 0 0 0-.13-.05L7.77.04a.8.8 0 0 0-.55.08L.38 4.02s-.03.03-.05.04c-.01 0-.02 0-.03.02-.01 0-.02.02-.03.03-.08.07-.15.14-.19.23s-.06.19-.07.29v2.79c0 .07.02.13.03.19 0 .05-.03.09-.03.14v2.75s.01.09.02.13c0 .03-.02.06-.02.09v2.5c0 .34.23.64.56.72L8.2 16a.75.75 0 0 0 .58-.07l6.68-3.78c.2-.11.33-.31.37-.53a.74.74 0 0 0-.18-.62c-.17-.2-.6-.82-.56-1.34 0-.09.04-.21.13-.35l.24-.14c.2-.11.33-.31.37-.53s-.03-.45-.18-.62c-.17-.2-.6-.82-.56-1.34.01-.14.06-.34.32-.56l.05-.03a.74.74 0 0 0 .36-.49c.05-.21 0-.43-.13-.6-.14-.19-.81-1.2.05-1.9.01 0 .02-.02.03-.03.05-.05.1-.1.13-.16.01-.02.02-.03.03-.05.04-.08.06-.16.07-.25Zm-1.96 2.56-5.77 3.3-2.06-.5v-.65L2.45 6.3v.75l-.94-.23V5.63l.91.23 5.9 1.5c.06.02.13.02.19.02.14 0 .28-.04.4-.11l4.89-3c.04.31.12.61.23.88ZM1.52 9.9V8.71l.91.23h.02v1.18zm5.91-7.49 3.11.9-1.28.9-3.15-.87 1.32-.94Zm6.55 8.82-5.7 3.23-6.76-1.82v-.95l.91.23h.02v.55l1.19-.51 1.09.26 1.52 1.21v-.85l1.96.47c.06.01.12.02.18.02.13 0 .26-.03.38-.1l4.85-2.76c.07.38.21.74.37 1.02Zm0-2.96-5.71 3.25-2.04-.49V9.51l1.98.48c.06.01.12.02.18.02.13 0 .26-.03.38-.1l4.83-2.76c.07.42.22.81.39 1.12Z"/>
</svg>
