<svg viewBox="0 0 24 24" xmlns="http://www.w3.org/2000/svg">
  <path d="M16 7.93H8V6.18h8zm3.6 13.06c0 .76.38 1.26.62 1.26.45.05.8.42.8.88s-.36.82-.8.86-.03 0-.04 0H5.28a3 3 0 0 1-2.17-.91c-.57-.58-.88-1.34-.86-2.14 0-.03.01-.07.01-.1 0-.02-.01-.04-.01-.06V1.75C2.25.78 3.03 0 4 0h16c.97 0 1.75.78 1.75 1.75v18.01h-1.59c-.24.07-.56.53-.56 1.23M4 1.75v16.26h1c.1 0 .19-.03.29-.03H20V1.75zm1.28 20.5h12.78c-.14-.38-.22-.8-.22-1.26s.07-.85.2-1.23H5.14c-.63.07-1.13.58-1.14 1.21 0 .33.12.65.36.89.25.25.57.38.93.38Z"/>
</svg>
