<svg viewBox="0 0 64 64" xmlns="http://www.w3.org/2000/svg">
  <path d="M47.31 7.41c-3.13 0-11.91.26-15.31 3-3.4-2.74-12.18-3-15.31-3-3.91 0-16.69.4-16.69 5.57v42.1h1l1.75-1.13c0-.96 4.92-2.82 13.94-2.82 3.85 0 7.57.37 10.2 1.01 3.1.76 3.74 1.62 3.74 1.81l.89 1.26h1.15l.7-1.26c0-.96 4.92-2.82 13.94-2.82 3.85 0 7.57.37 10.2 1.01 3.1.76 3.74 1.62 3.74 1.81l.86 1.13H64V12.99c0-5.17-12.77-5.57-16.69-5.57ZM30.62 50.53c-3.98-1.94-11.17-2.14-13.94-2.14s-9.96.2-13.94 2.14V12.99c0-.96 4.92-2.82 13.94-2.82s13.94 1.87 13.94 2.82zm30.63 0c-3.98-1.94-11.17-2.14-13.94-2.14s-9.96.2-13.94 2.14V12.99c0-.96 4.92-2.82 13.94-2.82s13.94 1.87 13.94 2.82z"/>
</svg>
