<svg viewBox="0 0 64 64" xmlns="http://www.w3.org/2000/svg">
  <path d="M64.01 8.97v-.11c0-.09.01-.18 0-.27 0-.04-.02-.07-.03-.1-.01-.05-.03-.1-.05-.15q-.06-.18-.18-.33c-.02-.02-.02-.05-.04-.08 0 0-.02-.01-.03-.02-.11-.12-.23-.22-.38-.3-.04-.02-.08-.03-.12-.05-.08-.03-.15-.07-.23-.09L30.63.09c-.34-.08-.7-.03-1.01.15L.71 16.71s-.04.03-.06.04c-.03.02-.07.04-.1.06-.04.03-.07.07-.11.1-.03.03-.06.05-.08.08-.16.18-.27.41-.32.65 0 .04 0 .07-.01.11 0 .05-.02.1-.02.15v36.09c0 .62.42 1.16 1.03 1.33l32.23 8.69a1.4 1.4 0 0 0 1.06-.13l28.24-15.97c.36-.21.61-.56.68-.97s-.05-.82-.33-1.13c-.03-.04-3.09-3.54-2.81-6.98.08-1 .46-1.89 1.1-2.69l1.36-.77c.36-.21.61-.56.68-.97s-.05-.82-.33-1.13c-.03-.04-3.09-3.54-2.81-6.98.12-1.43.8-2.64 2.07-3.69l.39-.22c.34-.2.58-.53.67-.91.08-.38 0-.78-.24-1.1-.19-.26-4.57-6.31.52-10.48.02-.02.03-.04.05-.06.1-.09.17-.19.24-.3.02-.03.05-.06.06-.1.07-.14.12-.29.13-.45ZM59.93 20.7 34.09 35.44c-.5-.72-3.06-4.81.13-7.84.25 0 .49-.07.71-.2l23.54-14.41c-.58 2.85.34 5.71 1.46 7.71m-28.76 6.19c-1.96 2.78-1.45 5.97-.41 8.29l-7.27-1.75-.03-4.64L8.57 24.8v4.97L2.8 28.3v-8.61l6.12 1.56h.03l22.23 5.65Zm-22.6 5.76V42.8L2.8 41.42V31.26zm14.94 3.6 8.25 1.99c-2.99 3.34-1.92 7.5-.49 10l-7.69-1.84-.06-10.14Zm6.11-27.87 13.16 3.82-5.42 3.82-13.31-3.67zM2.8 44.4l5.76 1.46v3.37l5.4-2.31 2.8.67 6.85 5.47-.02-3.83L30.96 51c-2.22 3.55-.65 7.66.83 9.76L2.8 52.94zm57.02 1.89L34.28 60.74c.22-.44.21-.99-.11-1.41-.14-.19-3.28-4.55-.1-7.8.09-.03.19-.06.28-.11l23.04-13.11c-.01.1-.03.2-.04.3-.25 3.11 1.36 6.04 2.48 7.67Zm-.08-12.67c-.13.12-.24.25-.36.38L34.4 48.21c-.04-.2-.1-.4-.23-.58-.15-.2-3.61-4.99.38-8.26.39-.32.54-.82.46-1.28l22.43-12.8c-.05.26-.08.51-.1.78-.24 3.04 1.28 5.9 2.4 7.55"/>
</svg>
