<svg viewBox="0 0 24 24" xmlns="http://www.w3.org/2000/svg">
  <path d="M24.01 3.66v-.24c0-.02-.02-.04-.02-.06 0-.03-.02-.06-.03-.1-.03-.08-.07-.14-.11-.21-.01-.02-.01-.03-.03-.05 0 0-.01 0-.02-.01a.9.9 0 0 0-.24-.19c-.02-.01-.05-.02-.07-.03-.05-.02-.1-.05-.15-.06L11.6.02a.9.9 0 0 0-.64.09L.46 6.1s-.04.03-.06.05c-.01 0-.03 0-.04.02-.01 0-.02.03-.03.04-.09.08-.17.17-.22.27-.05.11-.07.22-.08.34 0 .02-.01.03-.01.04v4.22c0 .1.02.2.05.29-.02.07-.05.14-.05.21v4.22c0 .07.02.13.03.2 0 .05-.03.09-.03.14v3.83c0 .4.27.74.65.85l11.7 3.16a.86.86 0 0 0 .67-.09l10.25-5.8c.23-.13.39-.36.43-.62a.87.87 0 0 0-.21-.72c-.28-.32-1-1.36-.93-2.26.02-.26.12-.5.28-.72l.42-.24a.865.865 0 0 0 .22-1.33c-.28-.32-1-1.36-.93-2.26.03-.41.23-.75.6-1.06l.1-.06c.22-.12.37-.34.42-.58s0-.5-.15-.7-1.42-2.03.12-3.29c.01-.01.02-.03.03-.04q.09-.09.15-.18c.01-.02.03-.04.04-.07.04-.09.07-.19.08-.29Zm-2.37 4.07-8.74 4.99c-.25-.47-.52-1.3.12-1.98.09-.02.17-.05.25-.1l7.9-4.84c.01.71.2 1.38.47 1.94ZM3.5 15.51l-1.71-.41v-2.39l1.71.44v2.37Zm1.77.06v-3.91l1.87.5.02 3.79-.13-.1-.83-.67-.93.4ZM3.5 9.36v1.44l-1.71-.41V8l1.74.44 7.59 1.93c-.36.75-.34 1.54-.16 2.24l-2.05-.49v-1.3L3.5 9.37Zm5.43 4.55 2.34.57c-.58.96-.5 2.01-.2 2.85l-2.13-.51-.02-2.9Zm2.61-12.1 9.3 2.13-8.17 5.01-9.44-2.41zM1.79 17.26l1.71.43v.54l1.38-.59 2.3.55 1.79 1.43v-1l2.1.5c-.39.94-.22 1.93.11 2.7L1.8 19.29v-2.03Zm19.78-.22-8.41 4.76s-.03-.08-.05-.12c-.17-.24-.93-1.41-.09-2.31.01 0 .02 0 .03-.01l7.8-4.44c.07.83.4 1.58.72 2.12m0-4.56-8.53 4.85c-.26-.39-.89-1.55.14-2.39.17-.14.27-.33.3-.53l7.36-4.2c.04.89.38 1.7.73 2.27m-7.61-6.31L9.13 4.84l2.02-1.44 4.78 1.39-1.97 1.39Z"/>
</svg>
