<svg viewBox="0 0 16 16" xmlns="http://www.w3.org/2000/svg">
  <path d="M9.1 2.76v-.51h.5V1c0-.55-.45-1-1-1H7.41c-.55 0-1 .45-1 1v1.25h.5v.51a2.9 2.9 0 0 0-2.04 2.76v9.7s0 .77 1.14.77c.43 0 .81 0 1-.39.19.38.57.39 1 .39s.81 0 1-.39c.19.38.57.39 1 .39 1.14 0 1.14-.77 1.14-.77V5.53c0-1.3-.86-2.39-2.04-2.76ZM6.36 7.52h3.28v2.02H6.36zm3.28 6.74A1.52 1.52 0 0 0 8 14.5c-.27-.24-.62-.38-1-.38-.23 0-.44.05-.64.14v-3.22h3.28zM6.36 6.02v-.5c0-.78.63-1.41 1.41-1.41h.47c.78 0 1.41.63 1.41 1.41v.5H6.37Z"/>
</svg>
