<svg viewBox="0 0 64 64" xmlns="http://www.w3.org/2000/svg">
  <path d="M36.39 11.02V9.01h2V2.5a2.5 2.5 0 0 0-2.5-2.5H28.1a2.5 2.5 0 0 0-2.5 2.5v6.51h2v2.01c-4.73 1.48-8.16 5.87-8.16 11.08v38.81s0 3.08 4.57 3.08c1.73 0 3.22 0 4-1.54.77 1.54 2.26 1.54 4 1.54s3.22 0 4-1.54c.77 1.54 2.26 1.54 4 1.54 4.57 0 4.57-3.08 4.57-3.08V22.1c0-5.21-3.44-9.6-8.16-11.08Zm-8.03-8.27h7.29v3.51h-7.29zm-6.17 24.09h19.62v14.57H22.19zm19.62 33.92c-.08.2-.62.48-1.82.48-.51 0-1.25 0-1.56-.08a2.763 2.763 0 0 0-4.86 0c-.32.08-1.06.08-1.56.08s-1.25 0-1.56-.08c-.48-.9-1.42-1.45-2.44-1.45-1.01 0-1.94.57-2.42 1.45-.32.08-1.06.08-1.56.08-1.19 0-1.73-.29-1.82-.48v-16.6h19.62v16.6ZM22.19 24.09V22.1c0-3.66 2.24-6.78 5.41-8.14v1.31c0 .99.8 1.79 1.79 1.79h.96V9h3.28v8.06h.96c.99 0 1.79-.8 1.79-1.79v-1.31c3.17 1.35 5.41 4.48 5.41 8.14v1.99H22.17Z"/>
</svg>
