<svg viewBox="0 0 40 40" xmlns="http://www.w3.org/2000/svg">
  <path d="M22.75 6.87V5.63H24V2c0-1.1-.9-2-2-2h-3.99C16.9 0 16 .9 16 2v3.63h1.25v1.24c-2.96.92-5.1 3.68-5.1 6.94v24.26s0 .48.36.96 1.07.96 2.5.96c.81 0 1.54 0 2.06-.41.17-.14.32-.32.44-.56.12.24.27.42.44.56s.37.23.58.29c.11.03.22.05.33.07.23.03.48.05.74.05h.8c.26 0 .51-.02.74-.05.12-.02.23-.04.33-.07.21-.06.41-.15.58-.29s.32-.32.44-.56c.12.24.27.42.44.56s.37.23.58.29c.11.03.22.05.33.07.23.03.48.05.74.05h.4c.18 0 .35 0 .5-.02 2.35-.21 2.35-1.91 2.35-1.91V13.81c0-3.26-2.15-6.02-5.1-6.94Zm-4.5-4.62h3.49v1.13h-3.49zm7.35 15.06v8.04H14.4v-8.04z"/>
</svg>
