<svg viewBox="0 0 48 48" xmlns="http://www.w3.org/2000/svg">
  <path d="M27.3 8.26V6.77h1.5V2.51C28.8 1.12 27.68 0 26.3 0h-4.59a2.5 2.5 0 0 0-2.5 2.5v4.26h1.5v1.49a8.73 8.73 0 0 0-6.12 8.33v29.11s0 .58.43 1.16c.05.07.11.14.18.22.14.14.3.28.5.4s.44.23.72.32.61.15.98.19q.285.03.6.03c1.14 0 2.13 0 2.75-.78.09-.11.17-.24.24-.38.07.14.15.27.24.38s.18.21.29.29c.52.41 1.21.48 1.99.49h.48c1.14 0 2.13 0 2.75-.78.09-.11.17-.24.24-.38.07.14.15.27.24.38.62.77 1.62.78 2.75.78.21 0 .41 0 .6-.03.38-.03.7-.1.98-.19s.52-.2.72-.32.37-.26.5-.4c.07-.07.13-.14.18-.22.43-.58.43-1.16.43-1.16V16.58c0-3.91-2.58-7.22-6.12-8.33Zm3.62 12.31v10.05H17.08V20.57zM26.3 2.51v1.38h-4.59V2.51z"/>
</svg>
