<svg viewBox="0 0 24 24" xmlns="http://www.w3.org/2000/svg">
  <path d="M13.65 4.15v-.77h.75V1c0-.55-.45-1-1-1h-2.79c-.55 0-1 .45-1 1v2.38h.75v.77C8.59 4.71 7.3 6.34 7.3 8.29v14.56s0 1.16 1.71 1.16c.65 0 1.21 0 1.5-.58.29.58.85.58 1.5.58s1.21 0 1.5-.58c.29.58.85.58 1.5.58 1.71 0 1.71-1.16 1.71-1.16V8.29a4.34 4.34 0 0 0-3.06-4.14Zm-4.61 6.63h5.92v4.03H9.04zm5.92 11.47h-.16c-.33-.36-.8-.58-1.3-.58s-.97.22-1.3.58h-.4c-.33-.36-.8-.58-1.3-.58s-.97.22-1.3.58h-.16v-5.69h5.92zM9.04 9.03v-.75c0-1.44 1.17-2.61 2.61-2.61h.7c1.44 0 2.61 1.17 2.61 2.61v.75z"/>
</svg>
