<svg viewBox="0 0 64 64" xmlns="http://www.w3.org/2000/svg">
  <path d="M30.74 47.05c-.2-.1-.39-.26-.55-.49-2.44-3.66-7.63-2.34-10.42.44 1.87-2.78 5.51-5.01 9.09-4.13.65.15 1.28.4 1.88.74V24.12c-3.75 2.13-8.71.12-10.97-3.43 2.29 2.14 5.58 3.48 8.44 2.17.83-.39 1.5-1 1.98-1.73.14-.21.34-.35.55-.46V3.63C28.84 1.42 26.04 0 22.9 0c-5.7 0-10.33 4.63-10.33 10.33 0 .29.02.59.05.89 1.84 1.38 4.28 2.09 6.73 1.82-2.49.74-5.37.46-7.8-.9-.18-.1-.35-.21-.52-.32-4.01 1.43-6.85 5.23-6.85 9.7 0 1.29.27 2.56.75 3.75 1.74-.27 3.44-.76 4.98-1.62 1.1-.64 2.09-1.62 2.24-2.95.09 1.38-.81 2.65-1.84 3.51-1.4 1.14-2.98 1.94-4.66 2.54.06.1.1.21.17.3-2.77 1.92-4.44 5.04-4.44 8.45s1.59 6.41 4.3 8.35c-.07.49-.11.97-.11 1.43 0 3.9 2.17 7.39 5.58 9.15 2.48-.63 4.56-2.9 4.84-5.62.44 3.11-1.43 6.19-4.21 7.64C13.25 60.85 17.41 64 22.2 64c3.45 0 6.51-1.61 8.53-4.09V47.06Zm-9.5-37.17c.53-1.72 2.54-7.86 4.86-7.15-.37-.09-.69.12-.9.38-1.38 2.05-1.39 4.75-1.47 7.14 0 .7-.57 1.26-1.27 1.26-.83.01-1.45-.84-1.21-1.63Zm-2.97 19.67c-3.06 1.84-4.06 5.81-4.58 9.11-.35 1.99-3.29 1.28-2.67-.66 1.38-3.49 3.37-7.5 7.14-8.77.55-.12 1.11-.1 1.61.06-.53-.05-1.04.06-1.5.26m39.88-2.51c.06-.1.11-.2.17-.3-3.34-1.14-6.35-3.03-6.5-6.05.63 2.87 3.87 4.1 7.22 4.57.48-1.2.75-2.46.75-3.75 0-4.47-2.85-8.29-6.88-9.71-2.46 1.54-5.48 2.11-8.29 1.23 2.46.28 4.89-.43 6.73-1.82.03-.3.05-.6.05-.89C51.41 4.63 46.77 0 41.07 0c-3.14 0-5.94 1.42-7.83 3.63v17.39s.07.07.1.12c2.44 3.66 7.63 2.34 10.42-.44-1.87 2.78-5.51 5.01-9.09 4.13-.49-.11-.97-.3-1.43-.52v19.15c3.72-1.91 8.51.08 10.72 3.55-2.29-2.14-5.58-3.48-8.44-2.17-.83.39-1.5 1-1.98 1.73-.08.12-.19.21-.3.3v13.04C35.26 62.4 38.32 64 41.77 64c4.67 0 8.72-3 10.29-7.21-3.47-1.09-5.98-4.6-5.48-8.16.23 1.87 1.21 3.52 2.57 4.54a6.13 6.13 0 0 0 3.69 1.25c3.4-1.77 5.55-5.25 5.55-9.14 0-.47-.04-.94-.11-1.43 2.71-1.94 4.3-5.01 4.3-8.35s-1.67-6.53-4.44-8.45ZM42.2 11.26c-.79.28-1.65-.32-1.67-1.15-.07-1.55-.46-7.48-2.63-7.21 1.41-.68 2.66 1.64 3.29 2.62.75 1.31 1.31 2.71 1.8 4.14.23.66-.13 1.38-.79 1.61Zm8.37 27.25c-.66-3.18-2.57-9.22-6.61-9.01 4.24-1.14 7.79 4.92 9.24 8.19.73 1.89-2.17 2.79-2.63.81Z"/>
</svg>
