<svg viewBox="0 0 64 64" xmlns="http://www.w3.org/2000/svg">
  <path d="M22.43 34.49c0 .76-.62 1.38-1.38 1.38-2.01 0-3.65 1.78-3.65 3.97 0 .76-.62 1.38-1.38 1.38s-1.38-.62-1.38-1.38c0-1.39.4-2.68 1.09-3.76a4.1 4.1 0 0 1-1.74-3.37c0-.76.62-1.38 1.38-1.38s1.38.62 1.38 1.38c0 .71.51 1.29 1.13 1.3.94-.56 2.02-.89 3.17-.89.76 0 1.38.62 1.38 1.38Zm4-26.17c0-.76-.62-1.38-1.38-1.38-2.55 0-4.63 2.17-4.63 4.84 0 .76.62 1.38 1.38 1.38s1.38-.62 1.38-1.38c0-1.15.84-2.08 1.87-2.08.76 0 1.38-.62 1.38-1.38m17.13 3.46c0-2.67-2.08-4.84-4.63-4.84-.76 0-1.38.62-1.38 1.38s.62 1.38 1.38 1.38c1.03 0 1.87.93 1.87 2.08 0 .76.62 1.38 1.38 1.38s1.38-.62 1.38-1.38m6.24 20.93c0-.76-.62-1.38-1.38-1.38s-1.38.62-1.38 1.38c0 .71-.51 1.29-1.13 1.3-.94-.56-2.02-.89-3.17-.89-.76 0-1.38.62-1.38 1.38s.62 1.38 1.38 1.38c2.01 0 3.65 1.78 3.65 3.97 0 .76.62 1.38 1.38 1.38s1.38-.62 1.38-1.38c0-1.39-.4-2.68-1.09-3.76a4.1 4.1 0 0 0 1.74-3.37Zm8.53 11.15c.07.47.1.92.1 1.37 0 3.97-2.23 7.54-5.74 9.3-.81 5.38-5.46 9.47-10.95 9.47-4.19 0-7.85-2.33-9.74-5.77A11.11 11.11 0 0 1 22.26 64c-5.49 0-10.15-4.1-10.95-9.47a10.38 10.38 0 0 1-5.74-9.3c0-.45.03-.9.1-1.37-2.69-1.96-4.28-5.03-4.28-8.38s1.64-6.51 4.38-8.45a10.34 10.34 0 0 1-1.59-5.47c0-5.04 3.58-9.25 8.4-10.19-.03-.32-.05-.63-.05-.94C12.52 4.68 17.2 0 22.95 0 26.82 0 30.2 2.13 32 5.27 33.8 2.13 37.18 0 41.05 0c5.75 0 10.42 4.68 10.42 10.42 0 .31-.02.62-.05.94 4.82.94 8.4 5.16 8.4 10.2 0 1.93-.56 3.82-1.59 5.47 2.73 1.94 4.38 5.05 4.38 8.45s-1.58 6.42-4.28 8.38m-27.71 9.02v-8.72c-.8.02-1.31.25-1.48.38-.1.67-.67 1.18-1.36 1.18-.76 0-1.38-.62-1.38-1.38 0-1.65 1.81-2.9 4.22-2.94V23h-.06c-2.02 0-3.53 1-3.53 1.9 0 .76-.62 1.38-1.38 1.38s-1.38-.62-1.38-1.38c0-2.61 2.76-4.65 6.28-4.65h.06v-9.84c0-4.23-3.44-7.67-7.67-7.67s-7.67 3.44-7.67 7.67c0 .47.07.99.19 1.54a2.88 2.88 0 0 0 3.38 2.22 1.376 1.376 0 1 1 .54 2.7c-.37.07-.75.11-1.12.11-1.1 0-2.18-.32-3.11-.95a5.56 5.56 0 0 1-1.81-2.02c-3.66.6-6.42 3.75-6.42 7.53 0 1.35.36 2.64 1.05 3.81.07 0 .14 0 .21.02.89.18 1.8 0 2.55-.5.76-.5 1.27-1.27 1.45-2.16.15-.74.88-1.22 1.62-1.08.74.15 1.23.87 1.08 1.62-.32 1.61-1.25 3-2.62 3.91-.88.59-1.88.91-2.91 1l-.97.49c-2.62 1.32-4.24 3.93-4.24 6.82 0 2.7 1.4 5.15 3.75 6.56l.85.51-.22.97c-.14.61-.21 1.17-.21 1.7a7.6 7.6 0 0 0 3.3 6.27c.89-2.81 3.51-4.85 6.61-4.85.76 0 1.38.62 1.38 1.38s-.62 1.38-1.38 1.38c-2.3 0-4.18 1.87-4.18 4.18 0 .11-.02.22-.04.32.51 4.15 4.05 7.35 8.25 7.35 4.61 0 8.37-3.75 8.37-8.37Zm29.23-17.4c0-2.89-1.63-5.5-4.24-6.82l-.99-.5c-2.65-.23-4.96-2.16-5.51-4.9-.15-.74.33-1.47 1.08-1.62s1.47.33 1.62 1.08a3.41 3.41 0 0 0 4 2.67c.07-.01.14-.02.21-.02a7.4 7.4 0 0 0 1.05-3.81c0-3.79-2.76-6.93-6.42-7.53-.43.8-1.03 1.5-1.81 2.02-.94.62-2.01.95-3.11.95-.37 0-.74-.04-1.12-.11-.75-.15-1.23-.87-1.08-1.62.15-.74.87-1.22 1.62-1.08 1.54.31 3.06-.69 3.38-2.23.12-.55.19-1.06.19-1.53 0-4.23-3.44-7.67-7.67-7.67s-7.67 3.44-7.67 7.67v9.84h.06c3.52 0 6.28 2.04 6.28 4.65 0 .76-.62 1.38-1.38 1.38s-1.38-.62-1.38-1.38c0-.9-1.51-1.9-3.53-1.9h-.06v18.4c2.41.03 4.22 1.28 4.22 2.94 0 .76-.62 1.38-1.38 1.38-.69 0-1.27-.51-1.36-1.18-.17-.13-.69-.36-1.48-.38v8.72c0 4.61 3.75 8.37 8.37 8.37 4.2 0 7.74-3.2 8.25-7.35-.02-.1-.04-.21-.04-.32 0-2.3-1.88-4.18-4.18-4.18-.76 0-1.38-.62-1.38-1.38s.62-1.38 1.38-1.38c3.1 0 5.72 2.04 6.61 4.85 2.03-1.41 3.3-3.72 3.3-6.27 0-.53-.07-1.09-.21-1.7l-.22-.97.85-.51c2.35-1.41 3.75-3.86 3.75-6.56Z"/>
</svg>
