<svg viewBox="0 0 48 48" xmlns="http://www.w3.org/2000/svg">
  <path d="M44.04 20.47c-2-.63-3.84-1.63-5.05-3.37-.24-.46-.38-.97-.34-1.46.13 1 .89 1.68 1.7 2.13 1.25.67 2.63 1.01 4.04 1.16.32-.86.5-1.77.5-2.69 0-3.31-2.02-6.15-4.91-7.35-1.93 1.33-4.39 1.83-6.64 1.07 1.99.22 3.95-.52 5.34-1.82v-.18C38.69 3.58 35.11 0 30.71 0c-2.18 0-4.15.89-5.59 2.31v13.43s.03.04.05.06c1.55 2.65 5.5 1.82 7.53-.17-1.49 2.5-4.83 4.02-7.58 3.01v13.5c2.77-1.12 6.21.4 7.72 2.95-1.22-1.08-2.73-1.81-4.19-1.86-1.47-.06-2.73.63-3.33 1.69-.05.09-.13.15-.2.22v10.22c1.54 1.61 3.7 2.63 6.1 2.63 3.37 0 6.33-2.02 7.68-4.94-2.61-.88-4.46-3.57-4.01-6.24.21 1.38.98 2.57 1.98 3.27.84.59 1.81.83 2.72.78a7.93 7.93 0 0 0 4.25-7.05c0-.3-.02-.6-.06-.91 1.99-1.51 3.16-3.81 3.16-6.33s-1.09-4.63-2.92-6.12ZM31.66 8.92c-.73.29-1.57-.29-1.56-1.07-.02-1.17-.13-5.48-1.74-5.37 1.07-.53 2.02 1.16 2.53 1.9.59.97 1.04 2 1.44 3.06.22.59-.07 1.26-.67 1.48m5.84 19.97c-.43-2.37-1.66-6.79-4.66-6.73 3.19-.91 5.89 3.54 7.06 5.99.73 1.76-2.01 2.61-2.4.74m-14.64 6.45c-.14-.1-.27-.23-.38-.41-1.55-2.65-5.5-1.82-7.53.17 1.55-2.61 5.1-4.13 7.91-2.86V18.51c-2.81 1.27-6.36-.26-7.91-2.86 1.22 1.08 2.73 1.81 4.19 1.86 1.47.06 2.73-.63 3.34-1.69.1-.17.23-.3.38-.4V2.31A7.94 7.94 0 0 0 17.27 0c-4.4 0-7.98 3.58-7.98 7.98v.18c1.4 1.3 3.35 2.05 5.35 1.82-2.25.76-4.71.25-6.64-1.07a7.94 7.94 0 0 0-4.91 7.35c0 .92.18 1.82.5 2.68 2.58-.24 5.19-1.07 5.74-3.29-.11 2.47-2.68 3.96-5.37 4.82-1.83 1.49-2.93 3.71-2.93 6.13s1.17 4.82 3.16 6.33c-.04.31-.06.61-.06.91 0 2.86 1.52 5.43 3.93 6.85 1.92-.28 3.63-1.96 3.89-4.04.4 2.35-.99 4.72-3.11 5.85 1.22 3.23 4.33 5.52 7.91 5.52 2.4 0 4.56-1.02 6.11-2.63V35.35ZM15.83 7.61c.45-1.31 2.05-5.81 3.79-5.26-1.6.05-1.57 4.38-1.56 5.59-.04 1.79-2.72 1.39-2.24-.33Zm-4.05 17.13c-.62 1.34-.95 2.8-1.1 4.24-.07.7-.7 1.2-1.39 1.13-.83-.07-1.36-.97-1.05-1.73 1.02-2.52 3.47-7.11 6.71-6.38-1.62-.07-2.54 1.48-3.16 2.74Z"/>
</svg>
