<svg viewBox="0 0 16 16" xmlns="http://www.w3.org/2000/svg">
  <path d="M7.5 12.2a.88.88 0 0 1-.34-.49c-.25-.85-1.49-.69-2.13-.17.41-.93 1.5-1.46 2.48-1.22V6.58c-.97.22-2.01-.36-2.42-1.24.62.5 1.8.65 2.1-.1.03-.19.14-.35.29-.47l.03-.03V.53A2.84 2.84 0 0 0 5.87 0C4.54 0 3.42.91 3.09 2.13c.22.79 1.04 1.42 1.95 1.4-.87.38-1.89.14-2.62-.47-.84.5-1.41 1.42-1.41 2.47 0 .21.02.42.07.62.9.08 1.91 0 2.27-.81.06.32-.13.67-.37.91-.61.6-1.4.93-2.23 1.14-.25.43-.4.92-.4 1.43 0 .85.36 1.63.99 2.17v.13c0 1.03.54 1.96 1.4 2.48 0 .02.01.04.02.06l.11.03c.64.33 1.48-.17 1.68-.92.13.44.07.98-.23 1.45-.18.32-.5.57-.87.76.56.62 1.37 1.02 2.26 1.02.68 0 1.3-.23 1.81-.61V12.2ZM5.26 2.31c.21-.53.45-1.04.84-1.46.12-.12.32-.3.5-.19-.19 0-.24.18-.29.33-.13.48-.11.99-.07 1.48.04.86-1.27.66-.99-.15ZM4.1 9.67c-.05 1.33-2.03.85-1.46-.36.48-.87 1.33-2.26 2.48-1.95-.96.2-1.01 1.52-1.02 2.31m11.17-2.29c-1.13-.3-2.57-.86-2.59-2.05.18.62.89.74 1.44.81.24.07.53.04.83 0a2.87 2.87 0 0 0-1.34-3.09c-.74.61-1.75.85-2.62.47.91.02 1.72-.61 1.95-1.4a2.886 2.886 0 0 0-2.78-2.13c-.21 0-.41.02-.61.07-.03 0-.06.02-.1.03-.17.04-.33.09-.48.16-.01 0-.03.02-.04.02-.15.07-.28.16-.42.25v4.19s.07.07.1.11c.1.11.17.23.2.38.28.79 1.48.64 2.11.13-.41.91-1.46 1.44-2.42 1.23v3.75c.99-.26 2.06.32 2.48 1.22-.64-.52-1.89-.67-2.13.17-.09.23-.21.38-.34.48v3.2c.15.11.3.21.47.29l.06.03q.24.105.51.18c.04.01.07.03.11.04a3.02 3.02 0 0 0 2.9-.94c-.82-.42-1.34-1.36-1.08-2.22.12.44.43.77.76.92.33.16.68.13.92 0 .03-.02.07-.02.11-.03 0-.02.01-.04.02-.06.86-.52 1.4-1.45 1.4-2.48v-.13c.63-.55.99-1.33.99-2.17 0-.52-.15-1.01-.4-1.44ZM9.81 2.43c.03-.48.04-.98-.11-1.44C9.64.85 9.58.67 9.4.7c.16-.13.39.04.51.15.41.39.67.9.9 1.41.3.8-1 1.03-.99.17Zm3.33 7.89c-.5.3-1.17-.09-1.17-.66-.05-.79-.18-2.1-1.15-2.25.23-.14.55-.1.81.01.79.35 2.69 2.13 1.51 2.89Z"/>
</svg>
