<svg viewBox="0 0 32 32" xmlns="http://www.w3.org/2000/svg">
  <path d="M15.25 23.73c-.14-.09-.27-.23-.38-.42-.91-1.74-3.49-1.25-4.83 0 .95-1.75 3.32-2.8 5.21-2.06v-8.72c-1.89.75-4.26-.31-5.21-2.06.82.7 1.83 1.15 2.78 1.14.96 0 1.71-.47 2.05-1.14.09-.17.22-.29.38-.39V1.45A5.4 5.4 0 0 0 11.57 0C8.64 0 6.25 2.33 6.14 5.23c.89 1.02 2.26 1.65 3.69 1.52-1.57.57-3.3.19-4.64-.78a5.4 5.4 0 0 0-3.15 4.91c0 .57.1 1.13.28 1.67 1.74-.08 3.53-.54 4-2.07-.08 1.87-2.14 2.9-4.13 3.47A5.37 5.37 0 0 0 .67 17.7c0 1.68.76 3.23 2.07 4.25-.02.18-.03.35-.03.52 0 2.01 1.1 3.83 2.84 4.77 0 .04.02.07.03.11 1.19-.19 2.26-1.2 2.46-2.5.31 1.56-.57 3.14-1.95 3.95.95 1.89 2.9 3.2 5.12 3.2 1.57 0 2.98-.63 4.02-1.65v-6.62ZM10.49 5.17c.48-1.23.97-2.6 2.07-3.41.17-.1.41-.15.56-.04-.38-.03-.52.36-.64.66-.32.97-.31 2.04-.26 3.05.03.49-.35.92-.84.95-.63.05-1.13-.62-.9-1.21Zm-3.1 14.15c-.04.56-.53.98-1.09.94-.69-.04-1.14-.8-.86-1.42.76-1.7 2.39-4.68 4.59-4.17-2 .18-2.48 3.04-2.64 4.65m18.28-8.84c.1.66.61 1.09 1.14 1.37.88.44 1.86.64 2.85.7.18-.54.28-1.1.28-1.68 0-2.17-1.29-4.05-3.15-4.91-1.34.97-3.08 1.34-4.64.78 1.43.13 2.8-.51 3.69-1.52A5.416 5.416 0 0 0 20.43 0c-1.42 0-2.71.56-3.68 1.45v8.81c.06.06.11.13.16.22.91 1.74 3.49 1.25 4.83 0-.91 1.68-3.14 2.72-4.99 2.13v8.6c1.87-.66 4.16.39 5.09 2.1-1.34-1.25-3.92-1.74-4.83 0-.08.13-.16.23-.25.31v6.72a5.77 5.77 0 0 0 4.02 1.65c2.16 0 4.05-1.22 5.04-3.02-1.76-.63-2.98-2.47-2.62-4.26.25 1.61 1.83 2.78 3.31 2.49 1.7-.95 2.77-2.74 2.77-4.72 0-.17 0-.35-.03-.52a5.37 5.37 0 0 0 2.07-4.25c0-1.43-.56-2.75-1.52-3.75-1.99-.57-4.05-1.6-4.13-3.47ZM19.9 5.37c.02-.99 0-2.04-.36-2.98-.13-.28-.29-.66-.66-.59.14-.12.38-.1.55-.01 1.14.73 1.67 2.08 2.2 3.27.47 1.35-1.7 1.74-1.73.31m4.84 13.9c-.26-1.6-.9-4.43-2.91-4.49 2.17-.63 3.97 2.25 4.83 3.91.62 1.43-1.66 2.11-1.92.58"/>
</svg>
