<svg viewBox="0 0 24 24" xmlns="http://www.w3.org/2000/svg">
  <path d="M22.57 10.68c-1.58-.43-3.33-1.22-3.4-2.77.09.49.47.79.87.99.7.33 1.48.45 2.26.47.11-.38.18-.77.18-1.16 0-1.61-.92-3-2.27-3.69-1.04.79-2.42 1.1-3.64.62 1.14.08 2.23-.51 2.84-1.38C19.2 1.66 17.44 0 15.29 0c-1.03 0-1.97.39-2.69 1.01v6.55c.07.07.14.16.18.26.59 1.29 2.49.97 3.49.09-.61 1.1-1.98 2.04-3.38 1.76-.09-.01-.19-.04-.28-.07v6.25c1.45-.59 3.28.21 3.97 1.58-.99-.88-2.9-1.21-3.48.09-.14.25-.31.41-.49.49v4.85c.78.71 1.81 1.15 2.94 1.15 1.54 0 2.91-.82 3.7-2.06-1.32-.51-2.22-1.92-1.91-3.27.23 1.21 1.48 2.06 2.57 1.7h.05a4.13 4.13 0 0 0 2.03-3.56c0-.11 0-.22-.01-.33.97-.79 1.53-1.95 1.53-3.21 0-.96-.34-1.86-.92-2.59Zm-7.78-6.97c.04-.73.05-1.51-.19-2.21-.09-.21-.19-.49-.47-.45.1-.1.29-.09.42-.02.87.53 1.3 1.53 1.72 2.42.44 1.19-1.49 1.53-1.48.26m3.57 10.76c-.1-1.02-.38-2.14-1.08-2.93-.24-.26-.55-.47-.95-.44 1.65-.5 3.02 1.62 3.71 2.88.59 1.28-1.49 1.89-1.68.49m-7.01 3.5a.83.83 0 0 1-.43-.45c-.59-1.29-2.49-.97-3.48-.09.61-1.1 1.98-2.04 3.38-1.76.16.03.35.09.54.16V9.57c-1.42.44-3.11-.35-3.77-1.65.99.88 2.9 1.21 3.49-.09.08-.15.18-.27.28-.36V.96C10.63.37 9.72 0 8.71 0 6.56 0 4.8 1.66 4.59 3.76c.61.88 1.69 1.46 2.84 1.38-.89.33-1.97.3-2.93-.17a4 4 0 0 1-.72-.45 4.13 4.13 0 0 0-2.26 3.69c0 .4.07.78.18 1.16.78-.01 1.56-.14 2.26-.47.4-.2.78-.5.87-.99-.05 1.53-1.82 2.34-3.4 2.77-.58.72-.92 1.62-.92 2.59 0 1.26.56 2.43 1.53 3.21 0 .11-.01.22-.01.33 0 1.48.78 2.81 2.02 3.56.02 0 .04 0 .06.01 1.09.37 2.34-.49 2.57-1.7.15.67.01 1.47-.44 2.13-.22.39-.83.87-1.46 1.14.79 1.23 2.16 2.05 3.7 2.05 1.11 0 2.11-.42 2.89-1.1v-4.94ZM7.81 3.53c.39-.92.79-1.93 1.63-2.52.13-.08.31-.11.42-.02-.51.04-.52.85-.59 1.24-.19.78.47 2.17-.67 2.37-.57.07-1.02-.55-.79-1.06ZM5.74 14.5c-.02.49-.43.88-.93.86-.63 0-1.06-.72-.77-1.28.62-1.28 1.86-3.47 3.53-3.06-1.48.2-1.74 2.28-1.83 3.48"/>
</svg>
