<svg viewBox="0 0 24 24" xmlns="http://www.w3.org/2000/svg">
  <path d="M8.9 12.9c0 .48-.39.88-.88.88-.52 0-.95.48-.95 1.07 0 .48-.39.88-.88.88s-.88-.39-.88-.88.12-.89.3-1.27c-.33-.34-.54-.8-.54-1.32 0-.48.39-.88.88-.88s.88.39.88.88c0 .04.01.04.02.06.35-.18.74-.28 1.16-.28.48 0 .88.39.88.88Zm.58-8.43c.35-.11.6-.44.6-.83 0-.48-.39-.88-.88-.88-.8 0-1.45.67-1.45 1.49a.88.88 0 0 0 1.73.22m6.76-.22c0-.82-.65-1.49-1.45-1.49-.48 0-.88.39-.88.88 0 .39.25.72.6.83a.88.88 0 0 0 1.73-.22m2.6 8.01c0-.48-.39-.88-.88-.88s-.88.39-.88.88c0 .04-.01.04-.02.06-.35-.18-.74-.28-1.16-.28-.48 0-.88.39-.88.88s.39.88.88.88c.52 0 .95.48.95 1.07 0 .48.39.88.88.88s.88-.39.88-.88-.12-.89-.3-1.27c.33-.34.54-.8.54-1.32Zm3.12 4.22c0 .11.01.22.01.33 0 1.52-.82 2.89-2.12 3.62-.4 2.04-2.2 3.57-4.32 3.57-1.45 0-2.73-.72-3.54-1.8-.81 1.09-2.09 1.8-3.54 1.8-2.11 0-3.92-1.53-4.32-3.57-1.3-.73-2.12-2.1-2.12-3.62 0-.11 0-.22.01-.33-.97-.79-1.53-1.95-1.53-3.21s.55-2.39 1.48-3.17c-.3-.59-.47-1.23-.47-1.89 0-1.9 1.27-3.51 3.03-4v-.05C4.55 1.87 6.42 0 8.71 0c1.34 0 2.52.65 3.29 1.64C12.76.65 13.95 0 15.29 0a4.17 4.17 0 0 1 4.16 4.16v.05c1.76.49 3.03 2.1 3.03 4 0 .66-.16 1.3-.47 1.89.93.78 1.48 1.93 1.48 3.17s-.56 2.43-1.53 3.21m-10.84 3.1v-2.81s-.05.02-.08.02c-.11 0-.2.02-.26.03-.13.32-.44.54-.81.54-.48 0-.88-.39-.88-.88 0-.84.82-1.44 1.94-1.44.03 0 .05.01.08.02V9.09s-.09.03-.13.03c-.55 0-.87.24-.91.33 0 .48-.39.87-.87.87s-.87-.4-.87-.88c0-1.16 1.17-2.06 2.66-2.06.05 0 .09.02.13.03V4.19c0-1.33-1.08-2.41-2.41-2.41S6.3 2.86 6.3 4.19c0 .15.03.31.07.5.04.16.13.31.28.4.15.1.33.13.5.1.47-.09.94.21 1.03.69s-.21.94-.69 1.03c-.16.03-.32.05-.47.05-.79 0-1.52-.4-1.97-1.03a2.4 2.4 0 0 0-1.78 2.31c0 .41.11.74.24 1.02.2.02.39-.02.56-.13.19-.13.32-.32.37-.55.09-.47.55-.77 1.03-.69.47.09.78.56.69 1.03-.14.68-.53 1.27-1.11 1.66a2.6 2.6 0 0 1-1.1.39l-.35.17c-.82.42-1.33 1.24-1.33 2.14 0 .85.44 1.62 1.18 2.06l.54.33-.14.62c-.04.2-.07.37-.07.53 0 .64.27 1.22.69 1.66A2.89 2.89 0 0 1 7 16.96c.48 0 .88.39.88.88s-.39.88-.88.88c-.63 0-1.14.51-1.14 1.14 0 .02-.01.04-.01.06.16 1.32 1.28 2.35 2.62 2.35 1.47 0 2.66-1.2 2.66-2.66Zm10.62-6.32c0-.91-.51-1.73-1.33-2.14l-.3-.15a2.62 2.62 0 0 1-2.26-2.07c-.1-.47.21-.94.69-1.03.46-.09.94.21 1.03.69.09.43.49.71.92.67.14-.28.24-.62.24-1.02a2.4 2.4 0 0 0-1.78-2.31c-.45.63-1.18 1.03-1.97 1.03-.16 0-.32-.02-.47-.05-.47-.09-.78-.56-.69-1.03s.56-.77 1.03-.69c.36.07.7-.15.78-.5.04-.18.07-.35.07-.5 0-1.33-1.08-2.41-2.41-2.41s-2.41 1.08-2.41 2.41v3.22s.09-.03.14-.03c1.49 0 2.66.91 2.66 2.06a.881.881 0 0 1-1.76.02c-.05-.1-.37-.33-.91-.33-.05 0-.09-.02-.14-.03v5.97s.05-.02.08-.02c1.13 0 1.94.61 1.94 1.44 0 .48-.39.88-.88.88-.36 0-.67-.22-.81-.54a1 1 0 0 0-.26-.03c-.03 0-.05-.01-.08-.02v2.81c0 1.47 1.2 2.66 2.66 2.66 1.34 0 2.46-1.02 2.62-2.35 0-.02-.01-.04-.01-.06 0-.63-.51-1.14-1.14-1.14-.48 0-.88-.39-.88-.88s.39-.88.88-.88c1.09 0 2.04.62 2.53 1.52.43-.44.69-1.02.69-1.66 0-.17-.02-.34-.07-.53l-.14-.62.54-.33a2.38 2.38 0 0 0 1.18-2.06Z"/>
</svg>
