<svg viewBox="0 0 48 48" xmlns="http://www.w3.org/2000/svg">
  <path d="M44.03 45.51V0H3.97v17.88h5.27a4.485 4.485 0 0 1 .4-5.88c1.76-1.75 4.61-1.76 6.37 0l6.74 6.74V2.48h2.5v18.77l1.14 1.14-1.14 1.14v21.98h-2.5V26.03l-6.74 6.74c-.88.88-2.03 1.32-3.18 1.32s-2.3-.44-3.18-1.32a4.485 4.485 0 0 1-.4-5.88H3.97v18.62H0v2.5h48v-2.5zm-13.64-21.5h-2.5v-2.5h2.5zm5.4 0h-2.5v-2.5h2.5zm5.4 0h-2.5v-2.5h2.5zm-26.6.63H.01v-4.5h14.58l-3.36-3.36c-.88-.88-.88-2.3 0-3.18s2.3-.88 3.18 0l8.79 8.79-8.79 8.79c-.44.44-1.02.66-1.59.66A2.25 2.25 0 0 1 11.23 28z"/>
</svg>
