<svg viewBox="0 0 64 64" xmlns="http://www.w3.org/2000/svg">
  <path d="M58.45 38.96 54.41 43a5 5 0 0 1-7.06 0 5.003 5.003 0 0 1 0-7.07l1.06-1.06H33.43v27.05h-2.75V2.73h2.75v22.15h14.98l-1.06-1.06a5.003 5.003 0 0 1 0-7.07 5.003 5.003 0 0 1 7.07 0l4.04 4.04V-.02H5.64v61.25H0v2.75h63.96v-2.75h-5.52V38.95Zm-46.09-6.98H9.61v-2.75h2.75zm7.2 0h-2.75v-2.75h2.75zm7.2 0h-2.75v-2.75h2.75zM49.1 37.7l5.33-5.33H33.35v-5h21.08l-5.33-5.33c-.98-.98-.98-2.56 0-3.53s2.56-.98 3.53 0L64 29.87 52.63 41.23c-.49.49-1.13.73-1.77.73s-1.28-.24-1.77-.73c-.98-.98-.98-2.56 0-3.53Z"/>
</svg>
