<svg viewBox="0 0 24 24" xmlns="http://www.w3.org/2000/svg">
  <path d="M19.35 10.34v1.75H17.6v-1.75zm-5.25 0v1.75h1.75v-1.75zM3.5 22.25v-.11a33 33 0 0 1-1.75-2.35v2.47H.01v1.75h5.1c-.39-.42-.92-1.01-1.52-1.75H3.5Zm18.78 0V0H1.75v7.65c.53-.44 1.12-.8 1.75-1.07V1.75h7.64v6.1c.74.66 1.34 1.47 1.75 2.39V1.75h7.64v20.5h-7.64v-6.12c-.44 1.13-1.07 2.26-1.75 3.31v2.81H9.07c-.6.74-1.14 1.33-1.52 1.75h16.47v-1.75zm-9.63-9.07C12.65 17.69 6.33 24 6.33 24S.01 17.69.01 13.18c0-3.49 2.83-6.31 6.32-6.31s6.32 2.83 6.32 6.31m-6.32 8.25c2.12-2.43 4.57-5.97 4.57-8.25 0-2.52-2.05-4.56-4.57-4.56s-4.57 2.04-4.57 4.56c0 2.28 2.45 5.83 4.57 8.25m2.87-8.09c0 1.58-1.29 2.87-2.87 2.87s-2.87-1.29-2.87-2.87 1.29-2.87 2.87-2.87 2.87 1.29 2.87 2.87m-1.75 0c0-.62-.5-1.12-1.12-1.12s-1.12.5-1.12 1.12.5 1.12 1.12 1.12 1.12-.5 1.12-1.12"/>
</svg>
