<svg viewBox="0 0 64 64" xmlns="http://www.w3.org/2000/svg">
  <path d="M38.55 29.23v2.75H35.8v-2.75zm11.66 0v2.75h2.75v-2.75zm-7.21 0v2.75h2.75v-2.75zm-34.67 32v-5.78c-.92-1.21-1.85-2.5-2.75-3.85v9.63H0v2.75h15.57a96 96 0 0 1-2.51-2.75zm50.08 0V-.02H5.58v19.47c.86-.7 1.78-1.32 2.75-1.86V2.73h22.29v17.82c1.04 1.01 1.96 2.15 2.75 3.38V2.73h22.29v58.5H33.37V44.78c-.82 1.67-1.75 3.32-2.75 4.92v11.52h-8.71c-1.03 1.16-1.9 2.1-2.51 2.75h44.59v-2.75h-5.58ZM34.97 34.04c0 12.48-17.48 29.94-17.48 29.94S0 46.52 0 34.04c0-9.64 7.83-17.46 17.49-17.46s17.48 7.82 17.48 17.47ZM24.06 52c5.34-7.25 8.16-13.46 8.16-17.96 0-8.11-6.61-14.72-14.73-14.72S2.76 25.92 2.76 34.04c0 4.5 2.82 10.71 8.16 17.96 2.45 3.33 4.92 6.17 6.57 7.97 1.65-1.8 4.12-4.65 6.57-7.97m.44-17.76c0 3.86-3.15 7.01-7.01 7.01s-7.01-3.14-7.01-7.01 3.15-7.01 7.01-7.01 7.01 3.14 7.01 7.01m-2.75 0c0-2.35-1.91-4.26-4.26-4.26s-4.26 1.91-4.26 4.26 1.91 4.26 4.26 4.26 4.26-1.91 4.26-4.26"/>
</svg>
