<svg viewBox="0 0 64 64" xmlns="http://www.w3.org/2000/svg">
  <path d="M58.42 61.23V-.02H5.59v24.89h10.05l-1.06-1.06c-1.95-1.95-1.95-5.12 0-7.07s5.12-1.95 7.07 0l8.98 8.97V2.73h2.75v25.74l1.41 1.41-1.41 1.41v29.96h-2.75V34.04l-8.98 8.97c-.98.98-2.26 1.46-3.54 1.46s-2.56-.49-3.54-1.46a5.003 5.003 0 0 1 0-7.07l1.06-1.06H5.59v26.36H0v2.75h64v-2.75h-5.58Zm-8.21-32h2.75v2.75h-2.75zm-7.2 0h2.75v2.75h-2.75zm-7.21 0h2.75v2.75H35.8zm-14.13 3.14H.02v-5h21.65l-5.33-5.33c-.98-.98-.98-2.56 0-3.53s2.56-.98 3.54 0l11.37 11.36-11.37 11.36c-.49.49-1.13.73-1.77.73s-1.28-.24-1.77-.73c-.98-.98-.98-2.56 0-3.53z"/>
</svg>
