<svg viewBox="0 0 16 16" xmlns="http://www.w3.org/2000/svg">
  <path d="M15.04 14.5V0H1.02v4.96h.76c.02-.61.26-1.2.72-1.67.98-.98 2.56-.98 3.54 0l1.34 1.34V1.45h1.5v4.68l1.33 1.33-1.33 1.33v5.7h-1.5v-4.2l-1.34 1.34c-.49.49-1.13.73-1.77.73s-1.28-.24-1.77-.73c-.46-.46-.7-1.06-.72-1.67h-.76v4.54h-1V16h15.99v-1.5zm-4.08-7.77h1.5v1.5h-1.5zm-7.3 1.98H0v-2.5h3.65l-.27-.27c-.49-.49-.49-1.28 0-1.77s1.28-.49 1.77 0l3.28 3.28-3.28 3.28c-.24.24-.56.37-.88.37s-.64-.12-.88-.37a1.25 1.25 0 0 1 0-1.77l.27-.27Z"/>
</svg>
