<svg viewBox="0 0 64 64" xmlns="http://www.w3.org/2000/svg">
  <path d="M26.5 2.76h16.31v13.68h2.75V0H4.07v44.88H0v2.75h33.08v-2.79H26.5zm-19.68 0h16.93v42.09H6.82zm14.54 18.07v2.75h-2.75v-2.75zm-7.5 0h2.75v2.75h-2.75zm-4.75 0h2.75v2.75H9.11zm20.8 2.75v-2.75h2.75v2.75zm31.34-5.77H37.21c-1.52 0-2.75 1.23-2.75 2.75v29.93c0 1.52 1.23 2.75 2.75 2.75h10.65v8.02h-8.97v2.75h20.68v-2.75h-8.96v-8.02h10.65c1.52 0 2.75-1.23 2.75-2.75V20.56c0-1.52-1.23-2.75-2.75-2.75Zm0 32.68H37.21V20.56h24.04zM49.23 34.35a3.31 3.31 0 1 0 0-6.62 3.31 3.31 0 1 0 0 6.62m0-3.88c.31 0 .57.25.57.56s-.25.56-.57.56-.57-.25-.57-.56.25-.56.57-.56m-2.68 11.58H43.8v-2.19c0-2.11 1.72-3.83 3.83-3.83h3.25c2.11 0 3.83 1.72 3.83 3.83v2.19h-2.75v-2.19c0-.59-.48-1.08-1.08-1.08h-3.25c-.59 0-1.08.48-1.08 1.08z"/>
</svg>
