<svg viewBox="0 0 40 40" xmlns="http://www.w3.org/2000/svg">
  <path d="M16.83 2.25h9.66v7.76h2.25V0H2.28v28.05H0v2.25h20.41v-2.28h-3.58zm-12.3 0h10.05v25.78H4.53zm8.46 10.76v2.25h-2.25v-2.25zm-6.63 0h2.25v2.25H6.36zm12.8 0h1.26s-.01.08-.01.12v2.13h-1.25zM38 11.13H23.54c-1.1 0-2 .9-2 2v18.15c0 1.1.9 2 2 2h6.11v4.46h-5.34v2.25h12.93v-2.25H31.9v-4.46h6.11c1.1 0 2-.9 2-2V13.13c0-1.1-.9-2-2-2Zm-.25 19.9H23.79V13.38h13.96zM28.7 19.24c0-1.14.93-2.07 2.07-2.07s2.07.93 2.07 2.07-.93 2.07-2.07 2.07-2.07-.93-2.07-2.07m.66 7.35h-2.25v-1.37c0-1.46 1.19-2.66 2.66-2.66h2.03c1.47 0 2.66 1.19 2.66 2.66v1.37h-2.25v-1.37c0-.22-.18-.41-.41-.41h-2.03c-.23 0-.41.18-.41.41z"/>
</svg>
