<svg viewBox="0 0 48 48" xmlns="http://www.w3.org/2000/svg">
  <path d="M29.12 24.01h-2.5v-2.5h2.5zm8.31-2.5v2.5h2.5v-2.5zm-5.41 0v2.5h2.5v-2.5zm15.97 24v2.5h-48 .12v-5.7c0-4.21 3.43-7.63 7.65-7.63h13.7c4.22 0 7.65 3.42 7.65 7.63v5.7h1.24v-2.5h11.18v-43H25.25V34.3c-.78-.37-1.62-.63-2.5-.76V2.51H6.46v31.02c-.88.13-1.72.38-2.5.75V0h40.06v45.5h3.97Zm-21.4 2.5v-5.7c0-2.83-2.31-5.13-5.15-5.13H7.75c-2.84 0-5.15 2.3-5.15 5.13v5.7h4.95v-5.7h2.5v5.7h8.99v-5.7h2.5v5.7zM14.54 30.89c-3.71 0-6.73-3.01-6.73-6.72s3.02-6.72 6.73-6.72 6.73 3.01 6.73 6.72-3.02 6.72-6.73 6.72m0-2.5c2.33 0 4.23-1.89 4.23-4.22s-1.9-4.22-4.23-4.22-4.23 1.89-4.23 4.22 1.9 4.22 4.23 4.22"/>
</svg>
