<svg viewBox="0 0 64 64" xmlns="http://www.w3.org/2000/svg">
  <path d="m18.87 50.38 2.75 13.61H9.18zM5.57 35.02v11.13l4.01-5.43c-2.18-1.53-3.39-3.59-4.01-5.7m7.57-21.21c.85-.32 1.69-.44 2.48-.46-2.56-1.28-4.33-3.91-4.33-6.96 0-2.65 1.34-5 3.38-6.4h-9.1V27.3l3.34-9.18c1.13-2.66 2.93-3.81 4.23-4.31m17.31 22.97.15.79v-3.96c-.54.11-1.08.17-1.62.19zm33.52 24.46v2.75H30.91l4.53-.6-2.08-11.12V32.58c.99-.57 1.79-1.25 2.43-1.91v1.32h2.75v-2.75h-1.59c.34-.48.54-.85.6-.96l1.16-2.23-5.34-3.43V1.36h-2.75v19.49l-8.03-5.15c-.08-.06-.17-.11-.26-.16l-.88-.56-.02.03c-.56-.31-1.18-.59-1.86-.86 4.07-.25 7.31-3.63 7.31-7.76 0-2.66-1.34-5-3.38-6.41h34.9v61.25h5.58Zm-18.24-32h-2.75v2.75h2.75zm7.2 0h-2.75v2.75h2.75zm-52.94 32v2.75h6.63l-3-2.75zM19.08 0c3.54 0 6.41 2.87 6.41 6.41s-2.88 6.41-6.41 6.41-6.41-2.87-6.41-6.41S15.54 0 19.08 0m-3.66 6.4c0 2.02 1.64 3.66 3.66 3.66s3.66-1.64 3.66-3.66-1.64-3.66-3.66-3.66-3.66 1.64-3.66 3.66m18.4 55.82-10.85 1.44L19.6 47 7.96 63.35l-7.99-7.31 11.66-15.79-.24-.04-.23-.13c-5.24-2.96-5.15-9.22-4.37-12.11l.04-.11 3.33-9.14c.78-1.85 1.95-3.04 3.48-3.63 2.38-.9 4.79.06 5.22.25.68.25 1.28.53 1.82.83l.02-.04.97.62s.02.01.03.02l15.2 9.74-.58 1.11c-.08.15-1.96 3.7-5.77 4.59q-.87.21-1.77.21c-.71 0-1.42-.11-2.15-.3l2.51 5.08 4.68 25Zm-.66-34.83-7.59-4.87.15 6.33c1.5.76 2.9 1 4.18.7 1.5-.35 2.61-1.37 3.26-2.17ZM25.15 60.6l5.43-.72L26.5 38.1l-3.49-7.05-.21-8.78c-.1-.39-.84-2.83-4.96-4.36l-.11-.04s-1.68-.76-3.15-.19c-.81.32-1.43.99-1.89 2.06l-3.28 9.01c-.15.62-1.39 6.22 2.87 8.83l.74.11 2.82-12.91 2.69.59-3.15 14.42L3.63 55.7l3.86 3.54 13.52-18.99 4.12 20.36Z"/>
</svg>
