<svg viewBox="0 0 32 32" xmlns="http://www.w3.org/2000/svg">
  <path d="m3.78 9.37-1.31 3.58V.02h5.04c-1.1.8-1.83 2.09-1.83 3.55 0 1.25.53 2.37 1.37 3.17-1.32.23-2.58.98-3.28 2.63Zm-1.31 9.79v3.77l1.64-1.86a5.9 5.9 0 0 1-1.64-1.91m3.12 12.86h5.09l-1.12-4.73zm26.4-2v2H18.91l-1.92-9.53v-4.65a6.3 6.3 0 0 0 2.2-1.87h1.75v-2h-.64l.26-.53-3.57-2.29V1.59h-2v8.27L12.2 8.07c-.18-.13-.37-.25-.58-.37l-.04-.03c1.69-.61 2.91-2.22 2.91-4.12 0-1.46-.73-2.75-1.83-3.55h16.85v30h2.48Zm-6.38-16.06h-2v2h2zM0 30.02v2h3.04l-1.84-2zM6.69 3.55c0-1.88 1.53-3.4 3.4-3.4s3.4 1.53 3.4 3.4-1.53 3.4-3.4 3.4-3.4-1.53-3.4-3.4m2 0c0 .77.63 1.4 1.4 1.4s1.4-.63 1.4-1.4-.63-1.4-1.4-1.4-1.4.63-1.4 1.4m6.64 15.73 2.4 11.91-6.03.8-1.62-6.87-5.74 6.85L0 27.27l5.63-6.41c-3.22-1.68-3.14-4.94-2.62-6.46l1.67-4.6c1.14-2.69 3.97-2.33 5.31-1.77.35.13.66.28.95.44v-.02l8.33 5.34-.39.8c-.04.09-1.07 2.15-3.18 2.68q-.495.12-.99.12c-.11 0-.21-.02-.32-.03l.93 1.93Zm-1.78-6.79.06 2.62c.58.25 1.12.33 1.6.22.59-.14 1.05-.53 1.37-.89l-3.03-1.94Zm1.79 17.01-1.95-9.69-1.76-3.56-.11-4.43c-.06-.19-.43-1.24-2.27-1.93-.25-.1-2.09-.81-2.71.64L4.9 15.06c-.08.26-.82 2.79 1.75 4.08h.07l1.35-6.16 1.95.43-1.6 7.32-5.73 6.52 1.58 1.71 6.84-8.16 2.12 8.99 2.11-.28Z"/>
</svg>
