<svg viewBox="0 0 48 48" xmlns="http://www.w3.org/2000/svg">
  <path d="M34.39 12.11V0H2.83v33.67H0v2.5h24.59V18.12h-1.35v-2.5h1.35v-.02c0-1.93 1.57-3.5 3.5-3.5h6.3Zm-24.9 6.02h-2.5v-2.5h2.5zm5.25 0h-2.5v-2.5h2.5zm5.35 15.55h-2.5V1.26h2.5v32.43Zm27.73-18.95a2.27 2.27 0 0 0-2.08-1.38H28.08a2.255 2.255 0 0 0-2.25 2.25v22.08c0 1.24 1.01 2.25 2.25 2.25h7.58v5.46h-6.5v2.5h6.5V48h2.5v-.11h6.51v-2.5h-6.51v-5.46h7.58c.31 0 .61-.06.88-.18a2.24 2.24 0 0 0 1.37-2.07V15.61c0-.31-.06-.61-.18-.88Zm-10.89 5.88a2.49 2.49 0 1 1 0 4.98 2.49 2.49 0 0 1 0-4.98m4.32 11.31h-8.62v-1.64c0-1.7 1.39-3.09 3.09-3.09h2.44c1.7 0 3.09 1.39 3.09 3.09z"/>
</svg>
