<svg viewBox="0 0 40 40" xmlns="http://www.w3.org/2000/svg">
  <path d="M28.74 10.01V0H2.28v28.05H0v2.25h20.41V15.26h-1.25v-2.25h1.26A3.12 3.12 0 0 1 23.53 10h5.21ZM7.86 15.26H5.61v-2.25h2.25zm4.38 0H9.99v-2.25h2.25zm4.59 12.77h-2.25V1.12h2.25v26.9ZM38 11.13H23.54c-1.1 0-2 .9-2 2v18.15c0 .41.13.8.34 1.12.14.21.33.4.54.54.32.22.7.34 1.12.34h6.11v4.46h-5.34v2.25h12.93v-2.25H31.9v-4.46h6.11c.41 0 .8-.13 1.12-.34.21-.14.4-.33.54-.54.22-.32.34-.7.34-1.12V13.13c0-1.1-.9-2-2-2Zm-7.23 6.04c.57 0 1.09.23 1.47.61.38.37.61.89.61 1.46s-.23 1.09-.61 1.46-.89.61-1.47.61c-1.14 0-2.07-.93-2.07-2.07s.93-2.07 2.07-2.07m3.69 9.42H27.1v-1.37c0-1.46 1.19-2.66 2.66-2.66h2.03c1.47 0 2.66 1.19 2.66 2.66v1.37Z"/>
</svg>
