<svg viewBox="0 0 16 16" xmlns="http://www.w3.org/2000/svg">
  <path d="M.98 13.3c.77 1.16 1.63 2.15 2.15 2.72H.01v-1.5h.96V13.3Zm15.03 1.22v1.5H5.15c.53-.58 1.4-1.59 2.19-2.77v2.02h1.5v-5.13c.11-.41.17-.81.17-1.2 0-.42-.07-.82-.17-1.21V.77h-1.5V5.3c-.86-.75-1.97-1.23-3.2-1.23s-2.31.46-3.16 1.2V.02H15v14.5h1.02Zm-4.09-7.78h-1.5v1.5h1.5zm-3.66 2.2c0 2.94-4.12 7.05-4.12 7.05 0 .01-4.12-4.11-4.12-7.05a4.12 4.12 0 0 1 8.24.01Zm-1.5 0c0-1.44-1.17-2.62-2.62-2.62S1.52 7.49 1.52 8.94c0 1.3 1.35 3.32 2.62 4.83 1.27-1.51 2.62-3.53 2.62-4.83M4.14 7.56c-.83 0-1.5.67-1.5 1.5s.67 1.5 1.5 1.5 1.5-.67 1.5-1.5-.67-1.5-1.5-1.5"/>
</svg>
