<svg viewBox="0 0 48 48" xmlns="http://www.w3.org/2000/svg">
  <path d="M39.92 21.51v2.5h-2.5v-2.5zm-7.91 0v2.5h2.5v-2.5zm-2.9 2.5v-2.37l-.23.47c-.09.17-.51.99-1.3 1.9zM6.45 31.22c-1.12-.79-1.93-1.71-2.5-2.69v6.02l2.5-2.98zm17.12-3.03 1.66 8.49V25.94c-.53.29-1.12.54-1.77.7-.18.05-.39.08-.6.11l.71 1.43ZM6.45 12.83V2.51h2.43c.45-1 1.15-1.86 2.02-2.5H3.95v19.05l1.84-5.04c.19-.45.42-.83.66-1.19m3.23 32.68-2.01 2.5h8.43l-.57-2.5H9.67Zm34.33 0V0H18.34c.87.64 1.57 1.5 2.02 2.5h2.38v13.03l2.5 1.6V2.51h16.28v43H26.97l.47 2.41-.7.09h21.25v-2.5h-3.97Zm-44.03 0v2.5h4.61l-2.31-2.5zM9.59 5.05c0-2.77 2.26-5.02 5.03-5.02s5.03 2.25 5.03 5.02-2.26 5.02-5.03 5.02-5.03-2.25-5.03-5.02m2.5 0c0 1.39 1.13 2.52 2.53 2.52s2.53-1.13 2.53-2.52-1.13-2.52-2.53-2.52-2.53 1.13-2.53 2.52m11.07 20.39a5.45 5.45 0 0 1-2.32.1l1.56 3.22 3.54 18.09-8.56 1.14-2.49-10.97-8.72 10.86L0 41.19l8.55-10.18c-5.02-2.39-4.91-7.29-4.15-9.55l2.51-6.89c1.63-3.85 5.71-3.31 7.63-2.5.52.19.98.41 1.4.63v-.02l.55.34.33.21 11.43 7.33-.49 1c-.06.13-1.56 3.12-4.6 3.88m-3.18 3.96-2.63-5.31-.16-6.61c-.08-.3-.64-2-3.58-3.09-.38-.15-3.36-1.3-4.38 1.09l-2.47 6.8c-.14.42-1.31 4.43 2.79 6.43l.37.05 2.07-9.48 2.44.53-2.38 10.9L3.33 41.1l2.71 2.94L16.19 31.4l3.13 13.8 3.66-.49-3-15.32Zm4.92-8.02-5.18-3.32.11 4.58c.97.45 1.88.59 2.71.38 1.06-.26 1.86-1.02 2.36-1.64"/>
</svg>
