<svg viewBox="0 0 64 64" xmlns="http://www.w3.org/2000/svg">
  <path d="M35.79 29.23h2.75v2.75h-2.75zm14.41 0v2.75h2.75v-2.75zm-7.2 0v2.75h2.75v-2.75zm15.41 31.99V0H5.56v46.02c.87-.36 1.79-.61 2.75-.74V2.75h22.3v42.68c.97.22 1.89.56 2.75 1V2.75h22.3v58.47H39.45v2.75H64v-2.75zM18.96 41.9c-4.79 0-8.69-3.89-8.69-8.66s3.9-8.66 8.69-8.66 8.69 3.89 8.69 8.66-3.9 8.66-8.69 8.66m0-2.74c3.27 0 5.94-2.66 5.94-5.92s-2.66-5.92-5.94-5.92-5.94 2.65-5.94 5.92 2.66 5.92 5.94 5.92m9.22 7.37H9.91C4.44 46.53 0 50.96 0 56.41V64h2.75v-7.59c0-3.93 3.21-7.13 7.16-7.13h18.27c3.95 0 7.16 3.2 7.16 7.13V64h2.75v-7.59c0-5.45-4.45-9.88-9.91-9.88M9.93 64h2.75v-7.59H9.93zm15.33 0h2.75v-7.59h-2.75z"/>
</svg>
