<svg viewBox="0 0 64 64" xmlns="http://www.w3.org/2000/svg">
  <path d="M52.93 29.23v2.75h-2.75v-2.75zm-9.95 0v2.75h2.75v-2.75zM30.6 37.57l2.75 14.69V32.57c-.73.42-1.56.77-2.49 1-.09.02-.17.03-.26.05v3.96ZM8.32 39.65c-1.4-1.36-2.27-2.99-2.75-4.64v11.13l2.75-3.72v-2.76Zm0-36.92h3.89c.59-1.1 1.44-2.04 2.46-2.75h-9.1v27.31l2.75-7.55zm50.07 58.5V-.02H23.48c1.02.71 1.87 1.65 2.46 2.75h4.66v18.12l2.75 1.76V2.73h22.28v58.5h-20.6l.4 2.15-4.53.6h33.06v-2.75h-5.58Zm-47.25 0-1.96 2.75h12.44l-.56-2.75h-9.93Zm-11.16 0v2.75h6.63l-3-2.75zm35.8-29.25h2.75v-2.75h-1.59c-.29.41-.67.91-1.16 1.42v1.32Zm-16.71-32c3.54 0 6.41 2.87 6.41 6.41s-2.88 6.41-6.41 6.41-6.41-2.87-6.41-6.41 2.88-6.41 6.41-6.41m-3.66 6.41c0 2.02 1.64 3.66 3.66 3.66s3.66-1.64 3.66-3.66-1.64-3.66-3.66-3.66-3.66 1.64-3.66 3.66m18.4 55.82-10.85 1.44-3.37-16.66L7.95 63.34l-7.98-7.3 11.66-15.79-.24-.04-.23-.13c-5.24-2.96-5.15-9.22-4.37-12.11l.04-.11 3.33-9.14c.78-1.85 1.94-3.04 3.48-3.63 2.37-.9 4.79.06 5.22.25.68.25 1.28.53 1.82.83l.02-.04.97.62s.02.01.03.02l15.2 9.74-.58 1.11c-.08.15-1.96 3.69-5.77 4.59q-.87.21-1.77.21c-.71 0-1.42-.11-2.15-.3l2.51 5.08 4.68 25Zm-.65-34.82-7.59-4.87.15 6.33c1.5.76 2.9 1 4.18.7 1.5-.35 2.61-1.37 3.26-2.17Zm-8.01 33.2 5.43-.72-4.08-21.78-3.49-7.05-.21-8.78c-.09-.39-.84-2.83-4.96-4.36l-.11-.04s-1.69-.75-3.15-.19c-.81.32-1.43.99-1.89 2.06l-3.28 9.01c-.15.62-1.39 6.22 2.87 8.83l.74.11 2.82-12.91 2.69.59-3.15 14.42L3.63 55.69l3.86 3.54 13.52-18.99 4.12 20.36Z"/>
</svg>
