<svg viewBox="0 0 64 64" xmlns="http://www.w3.org/2000/svg">
  <path d="M5.58 51.62c3.8 5.66 8.11 10.4 9.99 12.38H0v-2.75h5.58zM64 61.25V64H19.4c2.09-2.2 7.16-7.79 11.22-14.27v12.9h2.75V44.81c1.77-3.63 2.97-7.34 2.97-10.74 0-3.72-1.1-7.19-2.97-10.11V1.37h-2.75v19.19c-3.4-3.3-8.03-5.35-13.13-5.35a18.8 18.8 0 0 0-11.91 4.25V0h52.83v61.25h5.58Zm-23.2-32h-2.75V32h2.75zm7.21 0h-2.75V32h2.75zm7.2 0h-2.75V32h2.75zm-20.24 4.81C34.97 46.54 17.49 64 17.49 64S0 46.54 0 34.06c0-9.65 7.83-17.47 17.49-17.47s17.48 7.82 17.48 17.47M24.06 52.02c5.34-7.25 8.16-13.46 8.16-17.96 0-8.11-6.61-14.72-14.73-14.72S2.76 25.94 2.76 34.06c0 4.5 2.82 10.71 8.16 17.96 2.45 3.33 4.92 6.17 6.57 7.97 1.65-1.8 4.12-4.65 6.57-7.97m.44-17.76c0 3.86-3.15 7.01-7.01 7.01s-7.01-3.14-7.01-7.01 3.15-7.01 7.01-7.01 7.01 3.14 7.01 7.01m-2.75 0c0-2.35-1.91-4.26-4.26-4.26s-4.26 1.91-4.26 4.26 1.91 4.26 4.26 4.26 4.26-1.91 4.26-4.26"/>
</svg>
