<svg viewBox="0 0 24 24" xmlns="http://www.w3.org/2000/svg">
  <path d="M22.27 22.25V0H1.73v16.82c.7-.38 1.49-.62 2.35-.62h1.64a4.49 4.49 0 0 1-2.74-4.13c0-2.47 2.01-4.49 4.49-4.49 1.51 0 2.84.75 3.65 1.89V0h1.75v16.6c1.76.76 3 2.51 3 4.54v2.85H-.01h24v-1.75h-1.73Zm-5.43-10.16h-1.75v-1.75h1.75zm3.5 0h-1.75v-1.75h1.75zm-9.22 2.58v1.55c-.07 0-.13-.02-.19-.02h-1.7c.77-.33 1.42-.86 1.9-1.53Zm-3.65 1.02c-1.99 0-3.62-1.62-3.62-3.61s1.62-3.61 3.62-3.61 3.62 1.62 3.62 3.61-1.62 3.61-3.62 3.61m0-5.48c-1.03 0-1.87.83-1.87 1.86s.84 1.86 1.87 1.86 1.87-.83 1.87-1.86-.84-1.86-1.87-1.86M15 23.99h-1.75v-2.85c0-1.28-1.04-2.32-2.32-2.32H4.08c-1.28 0-2.32 1.04-2.32 2.32v2.85H0v-2.85a4.08 4.08 0 0 1 4.07-4.07h6.85c2.25 0 4.07 1.82 4.07 4.07v2.85Zm-9.39 0H3.86v-2.85h1.75zm5.49 0H9.35v-2.85h1.75z"/>
</svg>
