<svg viewBox="0 0 40 40" xmlns="http://www.w3.org/2000/svg">
  <path d="M1.72 37.75 3.79 40H-.02v-2.25zm1.49-13.68v4.83l2.15-2.44c-.98-.7-1.67-1.52-2.15-2.39M6.69 40h6.73l-1.48-6.26zm33.29-2.25V40H23.19L21.1 29.61v-7.43c1.2-.63 2.05-1.54 2.58-2.27h.66v-1.05s0-.02.01-.02l.88-1.8-4.13-2.65V1.78h-2.25v11.17l-3.91-2.5c-.2-.14-.42-.28-.65-.42l-.22-.14c-.2-.1-.42-.21-.64-.31 2.44-.52 4.28-2.68 4.28-5.28 0-1.76-.86-3.31-2.17-4.29h21.21v37.74h3.22ZM28.85 17.67H26.6v2.25h2.25zm4.5 0H31.1v2.25h2.25zM9.27 8.75c-1.41-.97-2.35-2.6-2.35-4.44S7.78 1 9.09.01H3.21v16.33l1.6-4.38C5.74 9.77 7.5 8.9 9.27 8.75M8.04 4.31c0-2.36 1.92-4.27 4.28-4.27s4.27 1.92 4.27 4.27-1.92 4.27-4.27 4.27-4.27-1.92-4.27-4.27Zm2.26 0c0 1.11.91 2.02 2.02 2.02s2.02-.91 2.02-2.02-.91-2.02-2.02-2.02-2.02.91-2.02 2.02m8.59 19.98 2.97 14.75-7.29.97-2.06-8.71-7.24 8.64-5.26-5.7 7.08-8.05c-4.09-2.04-4-6.1-3.36-8l2.09-5.74c1.39-3.27 4.84-2.82 6.47-2.13.44.16.82.34 1.18.53v-.02l.51.32c.07.04.14.09.21.13l9.61 6.16-.44.9c-.05.11-1.32 2.64-3.89 3.28-.4.1-.8.15-1.21.15-.2 0-.4-.04-.61-.06l1.25 2.58Zm1.87-6.11-4.11-2.63.09 3.59c.77.35 1.5.47 2.16.3.82-.2 1.45-.77 1.87-1.27Zm-1.58 18.95-2.47-12.25-2.19-4.43-.13-5.52c-.07-.25-.54-1.62-2.93-2.51-.31-.13-2.73-1.06-3.55.87l-2.06 5.66c-.11.34-1.06 3.61 2.27 5.26l.22.03 1.71-7.83 2.2.48-1.99 9.12-7.22 8.21 2.15 2.33 8.48-10.12 2.62 11.1 2.89-.38Z"/>
</svg>
