<svg viewBox="0 0 48 48" xmlns="http://www.w3.org/2000/svg">
  <path d="M3.97 38.63c2.84 4.25 6.06 7.82 7.55 9.39H0v-2.5h3.97zM48 45.53v2.5H14.92c1.54-1.62 4.93-5.38 7.83-9.82v8.67h2.5V33.9c1.44-2.87 2.43-5.83 2.43-8.53 0-2.96-.9-5.71-2.43-8V2.36h-2.5v12.16c-2.55-2.24-5.88-3.61-9.53-3.61s-6.74 1.26-9.25 3.35V.02h40.06v45.5H48ZM30.89 21.52h-2.5v2.5h2.5zm5.4 0h-2.5v2.5h2.5zm5.4 0h-2.5v2.5h2.5zm-15.26 3.84c0 9.43-13.21 22.63-13.21 22.63S0 34.79 0 25.36c0-7.29 5.92-13.2 13.22-13.2s13.21 5.91 13.21 13.2M13.22 44.35c4.08-4.51 10.71-13.09 10.71-18.99s-4.81-10.7-10.71-10.7-10.71 4.8-10.71 10.7 6.64 14.48 10.71 18.99m5.24-18.79c0 2.89-2.35 5.23-5.24 5.23s-5.24-2.35-5.24-5.23 2.35-5.24 5.24-5.24 5.24 2.35 5.24 5.24m-2.5 0c0-1.51-1.23-2.74-2.74-2.74s-2.74 1.23-2.74 2.74 1.23 2.74 2.74 2.74 2.74-1.23 2.74-2.74"/>
</svg>
