<svg viewBox="0 0 40 40" xmlns="http://www.w3.org/2000/svg">
  <path d="M3.23 33.09c2.11 3.1 4.42 5.69 5.59 6.93H0v-2.25h3.23zM40 37.77v2.25H11.9c1.43-1.52 4.6-5.08 6.98-9.11v7.99h2.25V26.13c.44-1.31.7-2.61.7-3.84 0-1.37-.25-2.68-.7-3.9V1.78h-2.25v12.85c-2.1-2.34-5.14-3.82-8.52-3.82-2.69 0-5.17.94-7.13 2.5V.02h33.55v37.75zM25.62 17.68h-2.25v2.25h2.25zm4.5 0h-2.25v2.25h2.25zm4.5 0h-2.25v2.25h2.25zm-13.92 4.6C20.7 29.67 10.36 40 10.36 40S.02 29.66.02 22.28c0-5.71 4.63-10.34 10.34-10.34S20.7 16.57 20.7 22.28M10.36 36.71c3.18-3.56 8.09-10 8.09-14.43s-3.63-8.09-8.09-8.09-8.09 3.63-8.09 8.09 4.92 10.88 8.09 14.43m4.5-14.16c0 2.48-2.02 4.5-4.5 4.5s-4.5-2.02-4.5-4.5 2.02-4.5 4.5-4.5 4.5 2.02 4.5 4.5m-2.25 0c0-1.24-1.01-2.25-2.25-2.25s-2.25 1.01-2.25 2.25 1.01 2.25 2.25 2.25 2.25-1.01 2.25-2.25"/>
</svg>
