<svg viewBox="0 0 32 32" xmlns="http://www.w3.org/2000/svg">
  <path d="M23.09 7.9V.01H1.72v22.45H0v2h16.23V10.41a2.5 2.5 0 0 1 2.5-2.5h4.36Zm-17.1 4.52h-2v-2h2zm3.75 0h-2v-2h2zm3.82 10.02h-2V2.01h2v20.42ZM30.5 8.9H18.73c-.83 0-1.5.67-1.5 1.5v14.72c0 .83.67 1.5 1.5 1.5h4.89v3.39h-4.17v2h10.34v-2h-4.17v-3.39h4.89c.83 0 1.5-.67 1.5-1.5V10.4c0-.83-.67-1.5-1.5-1.5Zm-7.54 6.49c0-.57.29-1.08.73-1.37.26-.18.58-.28.93-.28.57 0 1.08.29 1.38.73.18.26.28.58.28.93 0 .34-.1.66-.28.93-.3.44-.8.73-1.38.73-.34 0-.66-.1-.93-.28q-.27-.18-.45-.45c-.18-.26-.28-.58-.28-.93Zm4.71 5.88h-6.08v-1.09c0-1.23 1-2.23 2.23-2.23h1.63c1.23 0 2.23 1 2.23 2.23v1.09Z"/>
</svg>
