<svg viewBox="0 0 40 40" xmlns="http://www.w3.org/2000/svg">
  <path d="M24.37 17.66v2.25h-2.25v-2.25zm6.75 0v2.25h2.25v-2.25zm-4.5 0v2.25h2.25v-2.25zM5.48 37.75v-1.62c-.74-.93-1.51-1.96-2.25-3.06v4.68H0V40h8.81c-.5-.53-1.2-1.3-2.01-2.25H5.47Zm31.3 0V0H3.23v13.3a11.6 11.6 0 0 1 2.25-1.4V2.25h13.4v12.37c.98 1.08 1.74 2.35 2.25 3.75V2.25h13.4v35.5h-13.4V26.1c-.53 1.6-1.33 3.23-2.25 4.78v6.86h-4.97c-.81.95-1.51 1.72-2.01 2.25H40v-2.25h-3.22ZM20.7 22.26c0 7.39-10.34 17.72-10.34 17.72S.02 29.65.02 22.26c0-5.71 4.63-10.33 10.34-10.33S20.7 16.56 20.7 22.27ZM10.36 36.69c3.18-3.56 8.09-10 8.09-14.43s-3.63-8.09-8.09-8.09-8.09 3.63-8.09 8.09 4.92 10.88 8.09 14.43m4.5-14.15c0 2.48-2.02 4.5-4.5 4.5s-4.5-2.02-4.5-4.5 2.02-4.5 4.5-4.5 4.5 2.02 4.5 4.5m-2.25 0c0-1.24-1.01-2.25-2.25-2.25s-2.25 1.01-2.25 2.25 1.01 2.25 2.25 2.25 2.25-1.01 2.25-2.25"/>
</svg>
