<svg viewBox="0 0 24 24" xmlns="http://www.w3.org/2000/svg">
  <path d="M19.34 10.34v1.75h-1.75v-1.75zm-3.5 0h-1.75v1.75h1.75zM24 22.25V24H0v-2.85a4.08 4.08 0 0 1 4.07-4.07h6.85c2.25 0 4.07 1.82 4.07 4.07V24h.88v-1.74h4.64V1.75h-7.64v14.86c-.54-.23-1.13-.36-1.75-.38v-1.55c.53-.73.84-1.63.84-2.6s-.32-1.86-.84-2.59V1.75H3.49v8.31c-.31.61-.5 1.29-.5 2.02s.19 1.43.5 2.04v2.15c-.63.08-1.22.27-1.75.56V0h20.53v22.25zm-9.87 1.74h-.88v-2.85c0-1.28-1.04-2.32-2.32-2.32H4.08c-1.28 0-2.32 1.04-2.32 2.32v2.85H.88h13.24ZM3.86 12.07c0-1.99 1.62-3.61 3.62-3.61s3.62 1.62 3.62 3.61-1.62 3.61-3.62 3.61-3.62-1.62-3.62-3.61m1.75 0c0 1.03.84 1.86 1.87 1.86s1.87-.83 1.87-1.86-.84-1.86-1.87-1.86-1.87.83-1.87 1.86M3.86 23.99h1.75v-2.85H3.86zm5.49 0h1.75v-2.85H9.35z"/>
</svg>
