<svg viewBox="0 0 40 40" xmlns="http://www.w3.org/2000/svg">
  <path d="M36.78 37.75V0H3.23v14.65h4a3.99 3.99 0 0 1 .62-4.83 4.01 4.01 0 0 1 5.66 0l5.37 5.37V2.23h2.25v15.21l1.21 1.21-1.21 1.21v17.89h-2.25V22.11l-5.37 5.37c-.78.78-1.81 1.17-2.83 1.17s-2.05-.39-2.83-1.17a3.99 3.99 0 0 1-.62-4.83h-4v15.1H0V40h40v-2.25zm-4.66-20.09h2.25v2.25h-2.25zm-4.5 0h2.25v2.25h-2.25zm-4.5 0h2.25v2.25h-2.25zm-11.27 2.99H0v-4h11.85l-2.59-2.58c-.78-.78-.78-2.05 0-2.83s2.05-.78 2.83 0l7.42 7.41-7.42 7.41c-.39.39-.9.59-1.41.59s-1.02-.2-1.41-.59c-.78-.78-.78-2.05 0-2.83l2.59-2.58Z"/>
</svg>
