<svg viewBox="0 0 48 48" xmlns="http://www.w3.org/2000/svg">
  <path d="M20.09 2.51h11.79v9.6h2.5V0H2.83v33.67H0v2.5h24.59v-2.53h-4.5zm-14.76 0h12.26v31.14H5.33zm10.16 13.12v2.5h-2.5v-2.5zm-7.75 0h2.5v2.5h-2.5zm15.5 0h1.35v2.5h-1.35zm22.51-2.27H28.09c-1.24 0-2.25 1.01-2.25 2.25v22.08c0 1.24 1.01 2.25 2.25 2.25h7.58v5.57h-6.5v2.5h15.51v-2.5h-6.51v-5.57h7.58c1.24 0 2.25-1.01 2.25-2.25V15.61c0-1.24-1.01-2.25-2.25-2.25m-.25 24.08H28.34V15.86H45.5zM34.44 23.09a2.49 2.49 0 1 1 4.98 0 2.49 2.49 0 0 1-4.98 0m.69 8.83h-2.5v-1.64c0-1.7 1.39-3.09 3.09-3.09h2.44c1.7 0 3.09 1.39 3.09 3.09v1.64h-2.5v-1.64c0-.33-.26-.59-.59-.59h-2.44c-.33 0-.59.26-.59.59z"/>
</svg>
