<svg viewBox="0 0 48 48" xmlns="http://www.w3.org/2000/svg">
  <path d="M44.07 45.51V0H3.91v34.27c1.15-.54 2.43-.85 3.79-.85h13.73c.27 0 .54.02.81.04v-7.23c-.92 3.39-4.03 5.9-7.72 5.9-4.41 0-8-3.58-8-7.97s3.59-7.97 8-7.97c3.69 0 6.8 2.51 7.72 5.9V.01h2.51v34.06c3.28 1.31 5.61 4.51 5.61 8.24v5.7h17.7v-2.5h-3.98Zm-13.68-21.5h-2.51v-2.5h2.51zm5.41 0h-2.51v-2.5h2.51zm5.42 0h-2.51v-2.5h2.51zm-26.71-6.56c-3.72 0-6.75 3.01-6.75 6.72s3.03 6.72 6.75 6.72 6.75-3.01 6.75-6.72-3.03-6.72-6.75-6.72m0 10.94c-2.34 0-4.24-1.89-4.24-4.22s1.9-4.22 4.24-4.22 4.24 1.89 4.24 4.22-1.9 4.22-4.24 4.22m14.6 13.92v5.7H26.6v-5.7c0-2.83-2.31-5.13-5.16-5.13H7.71c-2.84 0-5.16 2.3-5.16 5.13v5.7H.05v-5.7c0-4.21 3.44-7.63 7.67-7.63h13.73c4.23 0 7.67 3.42 7.67 7.63Zm-7.57 5.7h3.8zH3.79h3.72v-5.7h2.51v5.7h9.01v-5.7h2.51z"/>
</svg>
