<svg viewBox="0 0 16 16" xmlns="http://www.w3.org/2000/svg">
  <path d="M11.9 8.23h-1.5v-1.5h1.5zm3.09 6.27V0H.96v11.04c.44-.28.95-.46 1.5-.52V10c-.4-.55-.64-1.22-.64-1.94s.24-1.4.64-1.95v-4.6h4.86v4.06c.7.61 1.15 1.5 1.15 2.49s-.41 1.81-1.06 2.42h.04c.49 0 .95.1 1.37.27V1.51h4.66v12.98h-2.4v1.5L16 16v-1.5h-1.02ZM2.57 8.06c0-1.42 1.16-2.57 2.58-2.57s2.58 1.15 2.58 2.57-1.16 2.57-2.58 2.57-2.58-1.15-2.58-2.57m1.5 0c0 .59.48 1.07 1.08 1.07s1.08-.48 1.08-1.07-.48-1.07-1.08-1.07-1.08.48-1.08 1.07m3.38 3.17H2.89A2.89 2.89 0 0 0 0 14.11v1.9h1.5v-1.9c0-.76.62-1.38 1.38-1.38h4.57c.76 0 1.38.62 1.38 1.38v1.9h1.5v-1.9a2.88 2.88 0 0 0-2.88-2.88m-4.88 4.78h1.5v-1.9h-1.5zm3.66 0h1.5v-1.9h-1.5z"/>
</svg>
