<svg viewBox="0 0 24 24" xmlns="http://www.w3.org/2000/svg">
  <path d="M22.28 22.25V0H1.75v8.19h1.72a3 3 0 0 1 5.06-2.72l2.61 2.6V1.71h1.75v8.11l1.21 1.21v-.69h1.75v1.75H14.1v-.75l-1.21 1.21v9.7h-1.75V14.3l-2.61 2.6c-.59.59-1.35.88-2.12.88s-1.54-.29-2.12-.88a3 3 0 0 1-.82-2.72H1.75v8.07H.02V24h23.99v-1.75zM17.6 10.34h1.75v1.75H17.6zM6.39 12.68H.01v-3h6.38L5.35 8.64c-.59-.59-.59-1.53 0-2.12s1.54-.59 2.12 0l4.66 4.66-4.66 4.66c-.29.29-.68.44-1.06.44s-.77-.15-1.06-.44a1.49 1.49 0 0 1 0-2.12z"/>
</svg>
