<svg viewBox="0 0 40 40" xmlns="http://www.w3.org/2000/svg">
  <path d="M22.1 17.66h2.25v2.25H22.1zm9.01 0v2.25h2.25v-2.25zm-4.5 0v2.25h2.25v-2.25zm10.16 20.09V0H3.21v28.59c.69-.37 1.45-.64 2.25-.78v-6.19c-.11-.48-.17-.98-.17-1.49s.06-1.01.17-1.49V2.25h13.4v16.96c.04.31.07.61.07.93s-.03.63-.07.93v6.65c.79.07 1.55.25 2.25.55V2.25h13.41v35.5H25.8V40H40v-2.25zM6.42 20.14c0-3.13 2.56-5.68 5.7-5.68s5.7 2.55 5.7 5.68-2.56 5.68-5.7 5.68-5.7-2.55-5.7-5.68m2.25 0a3.44 3.44 0 1 0 6.88 0 3.44 3.44 0 0 0-6.88 0m9.2 8.67H6.46C2.9 28.81 0 31.7 0 35.25V40h2.25v-4.75c0-2.31 1.89-4.2 4.21-4.2h11.42c2.32 0 4.21 1.88 4.21 4.2V40h2.25v-4.75c0-3.55-2.9-6.44-6.46-6.44ZM6.42 40h2.25v-4.75H6.42zm9.16 0h2.25v-4.75h-2.25z"/>
</svg>
