<svg viewBox="0 0 64 64" xmlns="http://www.w3.org/2000/svg">
  <path d="M45.56 16.43V0H4.07v44.88H0v2.75h33.08V20.55c0-2.27 1.85-4.12 4.12-4.12h8.35Zm-34.45 7.15H8.36v-2.75h2.75zm4.75 0h-2.75v-2.75h2.75zm4.75 0h-2.75v-2.75h2.75zm5.89 21.41h-2.75V1.38h2.75zm6.16-21.41h-2.75v-2.75h2.75zm28.59-5.77H37.21c-1.52 0-2.75 1.23-2.75 2.75v29.93c0 1.52 1.23 2.75 2.75 2.75h10.65v8.02h-8.97v2.75h20.68v-2.75h-8.96v-8.02h10.65c1.52 0 2.75-1.23 2.75-2.75V20.56c0-1.52-1.23-2.75-2.75-2.75Zm-12.02 9.66a3.31 3.31 0 1 1 0 6.62 3.31 3.31 0 1 1 0-6.62m5.48 14.58H43.8v-2.19c0-2.11 1.72-3.83 3.83-3.83h3.25c2.11 0 3.83 1.72 3.83 3.83z"/>
</svg>
