<svg viewBox="0 0 32 32" xmlns="http://www.w3.org/2000/svg">
  <path d="M13.56 2.01h7.53V7.9h2V.01H1.72v22.45H0v2h16.23v-2.02h-2.67zm-9.84 0h7.84v20.42H3.72zm6.77 8.41v2h-2v-2zm-5.5 0h2v2h-2zm10.34 0h.9v2h-.9zM30.5 8.9H18.73c-.83 0-1.5.67-1.5 1.5v14.72c0 .83.67 1.5 1.5 1.5h4.89v3.39h-4.17v2h10.34v-2h-4.17v-3.39h4.89c.83 0 1.5-.67 1.5-1.5V10.4c0-.83-.67-1.5-1.5-1.5ZM30 24.62H19.23V10.9H30zm-7.04-9.23c0-.92.74-1.66 1.66-1.66s1.66.74 1.66 1.66-.74 1.66-1.66 1.66-1.66-.74-1.66-1.66m.63 5.88h-2v-1.09c0-1.23 1-2.23 2.23-2.23h1.63c1.23 0 2.23 1 2.23 2.23v1.09h-2v-1.09c0-.13-.1-.23-.23-.23h-1.63c-.12 0-.23.1-.23.23z"/>
</svg>
