<svg viewBox="0 0 24 24" xmlns="http://www.w3.org/2000/svg">
  <path d="M6.69 9.54H4.94V7.79h1.75zm3.61 7.25h1.75v1.77H0v-1.75h1.17V-.01h16.28v5.69H15.7V1.74h-5.4zM8.55 1.74H2.92v15.05h5.63zM24 7.8v10.78c0 .69-.56 1.25-1.25 1.25h-3.41v2.42h3V24h-7.75v-1.75h3v-2.42h-3.41c-.69 0-1.25-.56-1.25-1.25V7.8c0-.69.56-1.25 1.25-1.25h8.58c.69 0 1.25.56 1.25 1.25Zm-1.75.5h-7.58v9.78h7.58zm-3.79 4.64c.78 0 1.4-.63 1.4-1.4s-.63-1.4-1.4-1.4-1.4.63-1.4 1.4.63 1.4 1.4 1.4m-.6 2.51 1.27.04v.82h1.75v-.82c0-.99-.81-1.79-1.79-1.79h-1.22c-.99 0-1.79.8-1.79 1.79v.82h1.75l.04-.87Z"/>
</svg>
