<svg viewBox="0 0 32 32" xmlns="http://www.w3.org/2000/svg">
  <path d="M25.62 13.96v2h-2v-2zm-4.67 0h-2v2h2zM32 30.01v2H0V28.2c0-2.9 2.36-5.25 5.26-5.25h9.13c2.9 0 5.27 2.36 5.27 5.25V32h1v-1.98h6.85V2.01H16.99v20.51c-.62-.28-1.29-.47-2-.54v-3.66c.29-.68.45-1.42.45-2.21s-.16-1.53-.45-2.21V2.01H4.48V14.2c-.22.6-.34 1.24-.34 1.92s.12 1.32.34 1.92v3.97c-.71.09-1.38.3-2 .61V0h27.04v30H32Zm-14.33 1.98v-3.8c0-1.79-1.46-3.25-3.26-3.25H5.27c-1.8 0-3.26 1.46-3.26 3.25v3.8h3.13v-3.8h2v3.8h5.33v-3.8h2v3.8zM5.14 16.12c0-2.56 2.09-4.64 4.66-4.64s4.66 2.08 4.66 4.64-2.09 4.64-4.66 4.64-4.66-2.08-4.66-4.64m2 0c0 1.46 1.19 2.65 2.65 2.65s2.66-1.19 2.66-2.65-1.19-2.65-2.66-2.65-2.65 1.19-2.65 2.65"/>
</svg>
