<svg viewBox="0 0 16 16" xmlns="http://www.w3.org/2000/svg">
  <path d="M2.88 10.48c-.71 0-1.36.21-1.92.56V0h6.36v5.56c-.59-.51-1.34-.83-2.18-.83-1.84 0-3.33 1.49-3.33 3.32 0 .96.41 1.81 1.06 2.42ZM16 14.5V16h-4.92v-1.89c0-1.51-.94-2.81-2.26-3.35V0h6.16v14.49H16Zm-3.6-7.77h-1.5v1.5h1.5zM7.73 8.06c0 1.42-1.16 2.57-2.58 2.57S2.57 9.48 2.57 8.06s1.16-2.57 2.58-2.57 2.58 1.15 2.58 2.57m-1.5 0c0-.59-.48-1.07-1.08-1.07s-1.08.48-1.08 1.07.48 1.07 1.08 1.07 1.08-.48 1.08-1.07m1.22 3.17H2.89A2.89 2.89 0 0 0 0 14.11v1.9h1.5v-1.9c0-.76.62-1.38 1.38-1.38h4.57c.76 0 1.38.62 1.38 1.38v1.9h1.5v-1.9a2.88 2.88 0 0 0-2.88-2.88m-4.88 4.78h1.5v-1.9h-1.5zm3.66 0h1.5v-1.9h-1.5z"/>
</svg>
