<svg viewBox="0 0 32 32" xmlns="http://www.w3.org/2000/svg">
  <path d="M29.58 30.01V19.8l-2.38 2.37c-.68.68-1.58 1.02-2.48 1.02s-1.79-.34-2.48-1.02a3.48 3.48 0 0 1-.77-3.77h-4.42v11.38h-2V2.01h2v9.41h4.42c-.5-1.26-.25-2.75.77-3.77a3.504 3.504 0 0 1 4.95 0l2.38 2.37V0H2.54v30H.06v2h32v-2h-2.48ZM7.8 15.96h-2v-2h2zm4.67 0h-2v-2h2zm11.02 2.51 1.81-1.81h-8.32v-3.5h8.32l-1.81-1.81c-.68-.68-.68-1.79 0-2.47s1.79-.68 2.48 0l6.04 6.03-6.04 6.03c-.34.34-.79.51-1.24.51s-.9-.17-1.24-.51a1.75 1.75 0 0 1 0-2.47"/>
</svg>
