<svg viewBox="0 0 16 16" xmlns="http://www.w3.org/2000/svg">
  <path d="M13.18 3.48s-.86-.26-2.06-.46v-.79C11.12.08 9.1-.5 7.98.46 6.79-.5 4.63.08 4.63 2.23v.91h-.07c-.13.01-.25.03-.38.04l-.26.03-.42.06c-.07 0-.13.02-.2.03-.2.03-.41.06-.6.1l-.59 11.49s.01 0 .04.01c0 0 .02 0 .04.01.02 0 .04.01.08.02.02 0 .05.02.07.02.04.01.07.02.12.04.03 0 .06.02.1.03.05.02.1.03.16.05.04.01.08.02.13.04.06.02.13.04.2.05.05.01.1.03.16.04.07.02.15.04.23.06.06.02.12.03.19.05q.12.03.27.06c.07.02.14.03.21.05.1.02.21.04.32.07.07.01.13.03.2.04q.24.045.51.09c.02 0 .04 0 .07.01.2.03.41.07.62.1l.22.03.44.06.27.03c.14.02.29.03.44.04.1 0 .2.02.3.02l.44.03c.11 0 .21.01.32.02.15 0 .3.01.45.02h.7c.08.01.18.03.32.03s.31-.02.51-.05c.13 0 .25 0 .38-.02v-.07c.73-.19 1.76-.62 3.15-1.6 0 0-.29-8.45-.59-10.81ZM6.13 2.24c0-.84.64-.88.92-.6.13.13.19.34.19.6v.71H7.1c-.12 0-.23.01-.35.02-.09 0-.18.01-.27.02-.12 0-.24.02-.35.02v-.78Zm.18 9.46-2-1.82 1.01-1.12.65.59 1.64-2.72 1.29.78-2.59 4.28ZM9.6 2.86c-.14 0-.28-.02-.42-.03v.04h-.43v-.64c0-.52.22-.75.43-.75.06 0 .16.02.24.12.12.13.18.36.18.63v.62Zm1.09 11.43V4.48c.41.06.78.13 1.09.2.2 2.41.38 6.95.45 8.82-.64.4-1.15.64-1.54.79"/>
</svg>
