<svg viewBox="0 0 48 48" xmlns="http://www.w3.org/2000/svg">
  <path d="M40.25 9.62s-2.68-1.11-6.2-1.68v-2.2c0-3.85-2.45-5.86-4.86-5.86-1.36 0-2.73.64-3.67 1.88a5.14 5.14 0 0 0-3.97-1.88c-2.62 0-5.27 2.01-5.27 5.86v2.67c-.08 0-.17.02-.25.03l-.57.06c-.14.02-.29.03-.43.05l-.55.06c-.15.02-.29.03-.44.05-.18.02-.36.04-.53.07-.15.02-.29.04-.44.05-.18.02-.36.05-.54.07l-.41.06c-.19.03-.38.06-.58.08-.12.02-.24.04-.36.05-.21.03-.42.07-.63.1-.1.02-.2.03-.3.05-.31.05-.61.1-.91.16l-1.8 35.18.09.03c.01 0 .01 0 .03.01.06.02.16.05.28.09.02 0 .03.01.06.02.13.04.28.09.46.14.03 0 .06.02.09.03.19.06.39.12.63.19.03 0 .07.02.1.03.51.15 1.12.32 1.83.5.04 0 .07.02.11.03.34.09.71.18 1.09.27.06.01.12.03.19.04.39.09.79.18 1.22.27.07.02.14.03.21.04.44.09.89.19 1.36.28l.18.03c.5.1 1.02.19 1.56.28h.03c.53.09 1.09.18 1.65.26.06 0 .12.02.18.03.55.08 1.12.15 1.7.22l.28.03c.57.07 1.16.13 1.76.19.1 0 .21.02.31.03.61.06 1.23.1 1.87.15.09 0 .17.01.26.02.67.04 1.34.07 2.03.1h.07c.68.02 1.38.03 2.08.03h.23c.59 0 1.2-.01 1.8-.03.14 0 .27 0 .41-.01h.07c.16.03.35.04.57.04.3 0 .66-.03 1.08-.12h.17v-.03c1.69-.39 4.3-1.66 8.01-5.11 0 0-.68-25.79-1.35-32.98ZM18.79 5.73c0-2.31 1.38-3.35 2.76-3.35s2.76 1.04 2.76 3.35v2.11h-.2c-.16 0-.32.02-.48.02-.15 0-.29.01-.44.02-.17 0-.33.02-.5.03-.14 0-.28.02-.42.02l-.58.03c-.12 0-.25.01-.37.02-.26.02-.52.03-.77.05-.09 0-.19.01-.28.02l-.86.06c-.13 0-.26.02-.39.03-.08 0-.15.01-.23.02V5.71Zm1.66 28.12-5.76-5.24 1.69-1.86 3.51 3.19 6.62-10.93 2.15 1.3-8.19 13.54ZM31.54 7.63h-.23c-.08 0-.15-.01-.23-.01v.02h-.76c-.18 0-.36 0-.55.01h-1.53c-.13 0-.26 0-.39.01-.13 0-.26 0-.4.01-.13 0-.25 0-.38.01h-.25V5.67c0-2.31 1.18-3.35 2.35-3.35s2.35 1.04 2.35 3.35v1.9Zm2.05 37.48V10.4c1.73.28 3.25.7 4.29 1.04.54 7.51 1.05 25.38 1.18 30.08-2.57 2.27-4.36 3.21-5.47 3.59"/>
</svg>
