<svg viewBox="0 0 32 32" xmlns="http://www.w3.org/2000/svg">
  <path d="M26.79 6.59s-1.65-.65-3.87-1.05V4.01c0-2.66-1.71-4.05-3.4-4.05-.89 0-1.79.4-2.43 1.17-.7-.77-1.67-1.17-2.63-1.17-1.82 0-3.66 1.39-3.66 4.06v1.79s-.07 0-.1.01l-.56.06-.77.09-.52.06-.83.12-.43.06c-.41.06-.82.13-1.22.2l-1.2 23.33s.03.01.08.03c.01 0 .03.01.05.02.05.02.11.04.19.06.04.01.09.03.13.04.08.02.16.05.25.08.06.02.13.04.2.06.1.03.21.06.33.1.08.02.17.05.26.07.13.04.26.07.4.11l.33.09c.15.04.31.08.47.12.12.03.25.06.38.09.18.04.37.09.56.13.13.03.26.06.41.09.22.05.44.09.68.14.13.03.26.05.4.08.33.06.67.13 1.03.19.05 0 .1.02.15.03.41.07.83.13 1.26.2l.42.06c.31.04.61.08.93.12l.55.06c.29.03.58.06.89.09.2.02.41.03.61.05l.89.06.66.03.91.03c.23 0 .46 0 .69.01h.68c.34 0 .68 0 1.03-.02.1.01.21.02.34.02.18 0 .4-.02.63-.06.16 0 .32-.01.49-.02v-.09c1.17-.32 2.9-1.19 5.29-3.32 0 0-.47-17.1-.94-21.87ZM12.8 4.02c0-2.15 1.91-2.46 2.77-1.59.36.36.54.91.54 1.59v1.41c-.09 0-.19 0-.28.01-.17 0-.34.02-.51.03-.24.01-.48.03-.72.04l-.54.03c-.24.02-.49.03-.73.05-.17.01-.35.03-.52.04V4.01Zm.97 18.91L9.8 19.32l1.35-1.49 2.17 1.97 4.28-7.07 1.72 1.04-5.54 9.16Zm7.14-17.65h-.25c-.07 0-.15-.01-.22-.01v.02h-.11c-.17 0-.34 0-.52.01-.22 0-.44 0-.69.02-.11 0-.24 0-.35.01-.21 0-.42.01-.65.02V4.02c0-2.1 1.54-2.46 2.28-1.63.33.37.5.93.5 1.63v1.26Zm1.54 24.39V7.5c.96.16 1.81.39 2.45.57.36 5 .7 16.17.79 19.49-1.45 1.2-2.52 1.8-3.24 2.1Z"/>
</svg>
