<svg viewBox="0 0 40 40" xmlns="http://www.w3.org/2000/svg">
  <path d="M28.07 39.87c1.64-.34 4.14-1.4 7.68-4.24 0 0-.65-21.44-1.31-27.42 0 0-2.55-.91-5.9-1.39V4.98c0-3.26-2.08-4.97-4.13-4.97-1.13 0-2.26.53-3.05 1.54-.86-1-2.08-1.54-3.3-1.54-2.22 0-4.47 1.71-4.47 4.96v2.24c-1.96.19-3.91.44-5.69.77L6.4 37.23s7.85 2.79 18.19 2.79c.58 0 1.16 0 1.75-.03.13.01.27.03.44.03.29 0 .63-.03 1.02-.1.09 0 .17 0 .26-.01v-.04Zm5.38-5.32c-2.5 1.88-4.25 2.67-5.38 2.99V9.04c1.72.24 3.24.6 4.26.88.5 6.22.99 20.48 1.12 24.63M24.41 2.28c.93 0 1.87.83 1.87 2.7v1.58h-.4c-.1 0-.2-.01-.31-.02v.02c-.85.01-1.87.04-3.03.08V4.97c0-1.86.94-2.7 1.87-2.7Zm-8.55 2.69c0-1.86 1.11-2.7 2.2-2.7s2.2.83 2.2 2.7v1.76c-1.39.07-2.88.16-4.41.28V4.98Zm-7.1 30.61 1.32-25.67c5.46-.8 12.04-1.02 15.49-1.08v28.91c-.32 0-.65.01-.97.01-7.14 0-13.11-1.4-15.84-2.17M22.1 15.97l1.94 1.17-6.87 11.35-4.87-4.43 1.52-1.67 2.83 2.58 5.44-9Z"/>
</svg>
