<svg viewBox="0 0 64 64" xmlns="http://www.w3.org/2000/svg">
  <path d="M53.38 12.75s-3.52-1.63-8.03-2.36V7.54c0-4.95-3.13-7.54-6.21-7.54-1.85 0-3.71.94-4.9 2.75A6.56 6.56 0 0 0 28.91 0c-3.36 0-6.75 2.59-6.75 7.54v3.55c-3.31.32-6.61.73-9.61 1.28L10.13 59.5s12.65 4.49 29.31 4.49c1.19 0 2.41-.03 3.64-.08.22.05.46.08.78.08 1.83 0 5.38-1.09 11.14-7.06 0 0-.81-34.55-1.63-44.19Zm-14.24-10c.87 0 1.68.38 2.29 1.08.76.87 1.17 2.15 1.17 3.72v2.54h-.07c-.06 0-.12 0-.18-.01-1.65.03-3.96.08-6.67.17v-2.7c0-3.29 1.79-4.79 3.46-4.79ZM24.91 7.54c0-3.31 2.01-4.79 4-4.79s4 1.48 4 4.79v2.81c-2.51.11-5.23.27-8 .5zm17.37 53.67c-.95.03-1.9.05-2.85.05-12.25 0-22.37-2.53-26.45-3.73l2.19-42.8c9.71-1.51 21.68-1.83 27.1-1.89v48.37Zm2.81-.2V13.14c2.33.39 4.38 1.05 5.67 1.52.67 10.01 1.32 35.43 1.46 41.18-3.47 3.45-5.79 4.71-7.14 5.17ZM27.36 44.74l-7.44-6.77 1.85-2.04 4.97 4.52 9.05-14.96 2.35 1.42-10.78 17.82Z"/>
</svg>
