<svg viewBox="0 0 48 48" xmlns="http://www.w3.org/2000/svg">
  <path d="M33.59 47.71c1.69-.39 4.3-1.66 8.01-5.11 0 0-.68-25.79-1.35-32.98 0 0-2.68-1.11-6.2-1.68v-2.2c0-3.85-2.45-5.86-4.86-5.86-1.36 0-2.73.64-3.67 1.88a5.14 5.14 0 0 0-3.97-1.88c-2.62 0-5.27 2.01-5.27 5.86v2.68c-2.39.23-4.77.54-6.94.93l-1.8 35.18s9.44 3.35 21.87 3.35c.77 0 1.56-.02 2.35-.04.16.03.35.04.58.04.3 0 .66-.03 1.08-.12h.17v-.03Zm5.47-6.19c-2.57 2.27-4.36 3.21-5.47 3.59V10.4c1.73.28 3.25.7 4.29 1.04.54 7.51 1.05 25.38 1.18 30.08M29.19 2.38c1.17 0 2.35 1.04 2.35 3.35v1.9h-.23c-.08 0-.15-.01-.23-.01v.02c-1.13.02-2.58.05-4.24.1V5.73c0-2.31 1.18-3.35 2.35-3.35m-10.4 3.35c0-2.31 1.38-3.35 2.76-3.35s2.76 1.04 2.76 3.35v2.11c-1.74.08-3.61.19-5.52.34zM10.14 42.7l1.6-31.22c6.87-1.03 15.31-1.28 19.33-1.34v35.2c-.55.01-1.11.02-1.66.02-8.76 0-16.05-1.75-19.27-2.66M26.5 19.01l2.15 1.3-8.19 13.54-5.76-5.24 1.69-1.86 3.51 3.19 6.62-10.93Z"/>
</svg>
