<svg viewBox="0 0 32 32" xmlns="http://www.w3.org/2000/svg">
  <path d="M22.44 31.81c1.22-.3 3.05-1.16 5.6-3.35 0 0-.49-17.1-.98-21.87 0 0-1.77-.68-4.14-1.07V4.01c0-2.66-1.71-4.05-3.4-4.05-.89 0-1.79.4-2.43 1.17-.7-.77-1.67-1.17-2.63-1.17-1.82 0-3.66 1.39-3.66 4.06v1.79c-1.53.15-3.05.35-4.43.6l-1.2 23.33s6.26 2.22 14.5 2.22c.4 0 .82-.03 1.23-.04.13.02.27.04.46.04.2 0 .44-.03.71-.07.13 0 .25 0 .38-.01v-.06Zm3.69-4.3c-1.68 1.34-2.89 1.95-3.69 2.22V7.48c1.14.18 2.15.43 2.87.64.37 4.97.72 15.98.82 19.38ZM20.41 2.39c.33.37.5.93.5 1.63v1.26h-.24c-.08 0-.15-.01-.23-.01v.02c-.65.01-1.43.03-2.31.06V4.02c0-2.1 1.54-2.46 2.28-1.63M12.8 4.02c0-2.15 1.91-2.46 2.77-1.59.36.36.54.91.54 1.59v1.41c-1.05.05-2.17.12-3.31.21zm7.63 25.93h-.76c-5.54 0-10.19-1.06-12.42-1.68L8.28 8.13c4.3-.62 9.44-.79 12.15-.84v22.65Zm-6.66-7.02L9.8 19.32l1.35-1.49 2.17 1.97 4.28-7.07 1.72 1.04-5.54 9.16Z"/>
</svg>
