<svg viewBox="0 0 24 24" xmlns="http://www.w3.org/2000/svg">
  <path d="M16.82 23.74c.88-.28 2.12-.95 3.79-2.42 0 0-.36-12.79-.71-16.35 0 0-1.09-.42-2.6-.72V3.04c0-3.11-2.99-3.88-4.49-2.34C11.2-.84 7.98-.06 7.98 3.04v1.35c-1.1.11-2.19.25-3.19.44L3.9 22.27s4.68 1.66 10.84 1.66c.23 0 .47-.02.7-.02.08.01.18.02.3.02.13 0 .29-.02.46-.04.21 0 .41 0 .61-.02v-.13Zm2.01-3.21c-.85.69-1.51 1.09-2.01 1.32V5.94c.54.1 1.03.22 1.42.33.26 3.74.51 11.66.59 14.25Zm-4.2-18.9c.45 0 .91.44.91 1.41v.94h-.29c-.06 0-.12-.01-.18-.01v.02c-.4 0-.86.02-1.36.03v-.99c0-.97.46-1.41.91-1.41Zm-4.9 1.41c0-1.04.6-1.41 1.11-1.41s1.11.37 1.11 1.41V4.1c-.71.04-1.46.08-2.23.14v-1.2Zm5.34 19.14h-.32c-3.96 0-7.31-.73-9.03-1.19l.75-14.65c3.03-.42 6.56-.55 8.6-.59v16.44Zm-4.71-4.81-3.08-2.8 1.18-1.29 1.51 1.37 3.12-5.16 1.5.91-4.22 6.98Z"/>
</svg>
