<svg viewBox="0 0 64 64" xmlns="http://www.w3.org/2000/svg">
  <path d="M61.89 2.17C60.47.72 58.58 0 56.7 0s-3.71.7-5.13 2.11L14.15 39.15l-3.67 1.11C-1.94 49 4.17 55.45 0 64l.52-.02c6.04-7.79 14.41-2.37 19.24-8.65l4.68-5.79 37.39-37.03a7.31 7.31 0 0 0 .06-10.33ZM17.62 53.6l-.02.03-.02.03c-1.5 1.95-3.44 2.26-6.74 2.63-1.97.22-4.18.48-6.4 1.35q.09-1.02.15-1.98c.3-4.54.54-8.15 7.12-12.89l1.67-.51 7.37 7.47zm4.89-6.04-6.39-6.48 5.27-5.2 6.39 6.48zM59.9 10.55 29.74 40.39l-6.39-6.48L53.5 4.07c.86-.85 1.99-1.32 3.2-1.32s2.37.48 3.24 1.35c1.76 1.79 1.75 4.68-.04 6.44Zm-45.8 35c.33.68.05 1.5-.63 1.84-.07.03-3.73 1.9-4.85 5.57-.18.59-.73.98-1.32.98a1.378 1.378 0 0 1-1.32-1.78c1.48-4.85 6.07-7.15 6.27-7.24a1.38 1.38 0 0 1 1.84.63Z"/>
</svg>
