<svg viewBox="0 0 48 48" xmlns="http://www.w3.org/2000/svg">
  <path d="M46.34 1.57c-.27-.27-.55-.51-.86-.71-.11-.07-.22-.12-.33-.18-.2-.12-.41-.24-.62-.33-.13-.05-.27-.08-.41-.12-.2-.06-.4-.14-.61-.18-.15-.03-.3-.03-.45-.05-.2-.02-.4-.06-.6-.06h-.02c-.19 0-.38.03-.58.05-.15.02-.3.01-.45.04-.21.04-.4.11-.6.18-.14.04-.28.07-.41.12-.22.09-.42.21-.62.32-.11.06-.22.1-.33.17-.29.19-.56.41-.82.66-.01.01-.03.02-.04.03L10.54 29.3l-2.76.83c-9.31 6.56-4.73 11.4-7.86 17.81l.39-.02c.99-1.28 2.07-2.08 3.18-2.61.16-.08.32-.14.48-.21 1.12-.45 2.27-.65 3.41-.79.65-.08 1.3-.15 1.93-.23.32-.04.63-.09.94-.14 1.69-.3 3.25-.88 4.5-2.5l3.51-4.34L46.31 9.33a5.49 5.49 0 0 0 .05-7.75ZM9.9 36.46s-1.98 1.02-2.56 2.94c-.16.54-.66.89-1.2.89-.12 0-.24-.02-.36-.05-.66-.2-1.03-.9-.83-1.56.91-2.98 3.73-4.39 3.85-4.45a1.248 1.248 0 0 1 1.1 2.24Zm6.6-1.17-4.18-4.24 3.63-3.59 4.18 4.24z"/>
</svg>
