<svg viewBox="0 0 48 48" xmlns="http://www.w3.org/2000/svg">
  <path d="M46.42 1.63C45.35.54 43.94 0 42.53 0s-2.78.53-3.85 1.58L10.62 29.36l-2.76.83C-1.45 36.75 3.13 41.59 0 48l.39-.02c4.53-5.85 10.81-1.78 14.43-6.48l3.51-4.34L46.38 9.38a5.49 5.49 0 0 0 .05-7.75ZM12.87 39.92l-.02.02-.02.02c-1.02 1.32-2.33 1.53-4.75 1.81-1.26.14-2.74.31-4.26.81l.06-.82c.22-3.41.39-5.89 5.1-9.3l.93-.28 5.06 5.13-2.1 2.6Zm3.72-4.57-4.18-4.24 3.63-3.59 4.18 4.24zM44.62 7.6 22 29.99l-4.18-4.24L40.44 3.36a2.97 2.97 0 0 1 4.2.02 2.99 2.99 0 0 1-.02 4.21ZM10.55 34.84c.3.62.05 1.37-.57 1.67-.04.02-1.98 1.02-2.56 2.94-.16.54-.66.89-1.2.89-.12 0-.24-.02-.36-.05-.66-.2-1.03-.9-.83-1.56.91-2.98 3.73-4.39 3.85-4.45.62-.3 1.37-.05 1.67.57Z"/>
</svg>
