<svg viewBox="0 0 32 32" xmlns="http://www.w3.org/2000/svg">
  <path d="M30.87 1.07c-.71-.72-1.65-1.08-2.59-1.08s-1.85.35-2.57 1.06L7 19.56l-1.84.56c-6.2 4.37-3.15 7.6-5.23 11.87h.26c3.02-3.91 7.21-1.2 9.62-4.34l2.34-2.89L30.84 6.24a3.66 3.66 0 0 0 .03-5.17M8.22 26.43c-.6.78-1.38.9-2.94 1.08-.73.08-1.57.18-2.44.41v-.06c.15-2.25.25-3.75 3.22-5.92l.38-.11 3.03 3.07-1.24 1.54Zm2.7-3.29L8.6 20.79l2.01-1.99 2.32 2.35zM29.44 4.82 14.55 19.56l-2.32-2.35L27.12 2.47c.31-.31.72-.48 1.16-.48s.86.17 1.17.49c.64.65.63 1.7-.01 2.34M7.27 23.49c.24.5.04 1.09-.45 1.34-.04.02-.92.49-1.18 1.35a1.005 1.005 0 0 1-1.25.67c-.53-.16-.83-.72-.67-1.25.51-1.69 2.04-2.48 2.21-2.56.5-.24 1.09-.04 1.34.46Z"/>
</svg>
