<svg viewBox="0 0 40 40" xmlns="http://www.w3.org/2000/svg">
  <path d="M38.69 1.36C37.79.46 36.62 0 35.44 0s-2.32.44-3.21 1.32L8.85 24.47l-2.3.69C-1.21 30.63 2.61 34.66 0 40l.33-.02c3.77-4.87 9.01-1.48 12.02-5.4l2.92-3.62L38.65 7.82a4.575 4.575 0 0 0 .04-6.46M10.6 33.17l-.02.02-.02.02c-.81 1.05-1.88 1.22-3.85 1.44-1 .11-2.15.25-3.34.61l.03-.44c.18-2.79.32-4.82 4.16-7.61l.65-.2 4.05 4.1-1.66 2.05Zm3.15-3.87-3.25-3.29 2.87-2.83 3.25 3.29zM37.07 6.22l-18.79 18.6-3.25-3.29 18.79-18.6c.44-.43 1.01-.67 1.62-.67.62 0 1.21.24 1.64.69.9.91.89 2.38-.02 3.28Zm-28 22.8c.27.56.04 1.23-.51 1.5-.02.01-1.57.81-2.04 2.33-.15.48-.59.8-1.08.8a1.134 1.134 0 0 1-1.08-1.46c.75-2.48 3.1-3.65 3.2-3.7.56-.27 1.23-.04 1.51.52Z"/>
</svg>
