<svg viewBox="0 0 16 16" xmlns="http://www.w3.org/2000/svg">
  <path d="M15.68.91c-.07-.11-.16-.22-.25-.32-.1-.1-.2-.19-.31-.26-.04-.03-.09-.05-.14-.07-.07-.04-.14-.08-.21-.11-.05-.02-.11-.03-.17-.05-.07-.02-.14-.05-.21-.06-.06-.01-.11-.01-.17-.02-.07 0-.14-.02-.21-.02s-.14.01-.21.02c-.05 0-.11 0-.16.02-.07.01-.14.04-.21.06-.05.02-.1.03-.15.05-.07.03-.14.07-.21.11-.05.02-.09.04-.14.07-.11.07-.22.16-.31.25L3.41 9.66l-.95.25C-.75 12.51.99 13.81 0 16h.14c.65-.87 1.45-1.06 2.24-1.14.34-.03.68-.04 1-.08.11-.01.21-.02.32-.04.31-.05.61-.14.88-.31.18-.11.34-.26.49-.46l1.16-1.46 9.18-9.08c.69-.68.78-1.74.27-2.52M5.91 10.7l-.71.7-.7-.71.71-.7z"/>
</svg>
