<svg viewBox="0 0 64 64" xmlns="http://www.w3.org/2000/svg">
  <path d="M40.66 57.2c0 .76-.62 1.37-1.38 1.37H24.71c-.76 0-1.38-.61-1.38-1.37s.62-1.37 1.38-1.37h14.57c.76 0 1.38.61 1.38 1.37m.47-6.79H22.88c-.76 0-1.38.61-1.38 1.37s.62 1.37 1.38 1.37h18.25c.76 0 1.38-.61 1.38-1.37s-.62-1.37-1.38-1.37m-3.77 10.85H26.64c-.76 0-1.38.61-1.38 1.37S25.88 64 26.64 64h10.72c.76 0 1.38-.61 1.38-1.37s-.62-1.37-1.38-1.37m15.93-40.04c0 7.45-3.99 14.34-10.48 18.18v8.33H21.22v-8.31c-6.5-3.83-10.51-10.72-10.51-18.19C10.71 9.52 20.26 0 32 0s21.29 9.52 21.29 21.22m-22.72 5.82c0-.76-.62-1.37-1.38-1.37s-1.38.61-1.38 1.37v17.41h2.75V27.04Zm5.61 0c0-.76-.62-1.37-1.38-1.37s-1.38.61-1.38 1.37v17.41h2.75V27.04Z"/>
</svg>
