<svg viewBox="0 0 64 64" xmlns="http://www.w3.org/2000/svg">
  <path d="M32 0C20.26 0 10.71 9.52 10.71 21.22c0 7.47 4 14.37 10.51 18.19v8.31h21.59v-8.33c6.48-3.83 10.48-10.72 10.48-18.18C53.29 9.52 43.74 0 32 0m8.78 37.39-.72.39v7.2h-4.44c.19-.24.31-.53.31-.86V27.04c0-.76-.62-1.37-1.38-1.37s-1.38.61-1.38 1.37v17.08c0 .33.12.63.31.86h-2.99c.19-.24.31-.53.31-.86V27.04c0-.76-.62-1.37-1.38-1.37s-1.38.61-1.38 1.37v17.08c0 .33.12.63.31.86h-4.41v-7.19l-.72-.39c-6.04-3.25-9.79-9.46-9.79-16.19 0-10.19 8.32-18.48 18.54-18.48s18.54 8.29 18.54 18.48c0 6.72-3.74 12.92-9.76 16.17Zm-.12 19.81c0 .76-.62 1.37-1.38 1.37H24.71c-.76 0-1.38-.61-1.38-1.37s.62-1.37 1.38-1.37h14.57c.76 0 1.38.61 1.38 1.37m1.84-5.42c0 .76-.62 1.37-1.38 1.37H22.87c-.76 0-1.38-.61-1.38-1.37s.62-1.37 1.38-1.37h18.25c.76 0 1.38.61 1.38 1.37m-3.76 10.85c0 .76-.62 1.37-1.38 1.37H26.64c-.76 0-1.38-.61-1.38-1.37s.62-1.37 1.38-1.37h10.72c.76 0 1.38.61 1.38 1.37"/>
</svg>
