<svg viewBox="0 0 40 40" xmlns="http://www.w3.org/2000/svg">
  <path d="M20 0C12.64 0 6.65 5.99 6.65 13.36c0 4.65 2.46 8.94 6.45 11.37v5.25h13.82v-5.26c3.99-2.43 6.43-6.72 6.43-11.36C33.36 5.99 27.36 0 20 0m5.26 23.08-.59.32v4.33h-3.6c.02-.08.05-.16.05-.25V16.95c0-.62-.5-1.13-1.12-1.13s-1.12.5-1.12 1.13v10.53c0 .09.03.17.05.25h-3.58v-4.32l-.59-.32c-3.62-1.96-5.86-5.68-5.86-9.73C8.9 7.24 13.88 2.25 20 2.25s11.1 4.98 11.1 11.11c0 4.04-2.24 7.76-5.85 9.72Zm.34 12.45c0 .62-.5 1.13-1.12 1.13h-8.95c-.62 0-1.12-.5-1.12-1.13s.5-1.13 1.12-1.13h8.95c.62 0 1.12.5 1.12 1.13m1.13-3.34c0 .62-.5 1.13-1.12 1.13H14.4c-.62 0-1.12-.5-1.12-1.13s.5-1.13 1.12-1.13h11.21c.62 0 1.12.5 1.12 1.13m-2.31 6.68c0 .62-.5 1.13-1.12 1.13h-6.59c-.62 0-1.12-.5-1.12-1.13s.5-1.13 1.12-1.13h6.59c.62 0 1.12.5 1.12 1.13"/>
</svg>
