<svg viewBox="0 0 48 48" xmlns="http://www.w3.org/2000/svg">
  <path d="M30.65 42.71c0 .69-.56 1.25-1.25 1.25H18.6a1.25 1.25 0 0 1 0-2.5h10.8c.69 0 1.25.56 1.25 1.25m.11-5.28H17.23a1.25 1.25 0 0 0 0 2.5h13.53a1.25 1.25 0 0 0 0-2.5m-2.79 8.06h-7.95a1.25 1.25 0 0 0 0 2.5h7.95a1.25 1.25 0 0 0 0-2.5m12.04-29.51c0 5.57-2.96 10.73-7.76 13.63v6.29H15.78v-6.27c-4.82-2.9-7.79-8.06-7.79-13.64C7.99 7.17 15.17 0 24 0s16.01 7.17 16.01 15.99ZM23.1 20.31a1.25 1.25 0 0 0-2.5 0v12.8h2.5zm4.3 0a1.25 1.25 0 0 0-2.5 0v12.8h2.5z"/>
</svg>
