<svg viewBox="0 0 32 32" xmlns="http://www.w3.org/2000/svg">
  <path d="M16 .02c-5.95 0-10.78 4.85-10.78 10.8 0 3.74 1.96 7.2 5.16 9.16v4.25h11.26v-4.25c3.19-1.97 5.15-5.42 5.15-9.16C26.78 4.87 21.95.02 16 .02m4.16 18.5-.52.28v3.42h-2.66s.02-.06.02-.1v-8.43c0-.55-.45-1-1-1s-1 .45-1 1v8.43s.02.07.02.1h-2.64V18.8l-.52-.28c-2.86-1.55-4.64-4.5-4.64-7.7 0-4.85 3.94-8.8 8.78-8.8s8.78 3.95 8.78 8.8c0 3.2-1.77 6.15-4.62 7.7m1.32 8.67c0 .55-.45 1-1 1h-8.97c-.55 0-1-.45-1-1s.45-1 1-1h8.97c.55 0 1 .45 1 1m-1.85 3.83c0 .55-.45 1-1 1h-5.27c-.55 0-1-.45-1-1s.45-1 1-1h5.27c.55 0 1 .45 1 1"/>
</svg>
