<svg viewBox="0 0 32 32" xmlns="http://www.w3.org/2000/svg">
  <path d="M8.8 22.76H5.77v-2.02H8.8zm15.34-.05v-2.02h-3.03v2.02zM32 12.33v11.85l-4.86 4.87v.01H15.31v-3.42l-3.47 3.41H0V17.22h.01H0l5.81-4.87h1.38V7.38h.01l5.75-4.91h10.94v9.84H32Zm-8.11 2-2.88 2.91h4.7l2.89-2.91zm-6.87 2.9V9.4H9.19v7.83zm2-8.42v7.6l2.87-2.89v-7.6zM10.28 7.4h7.33l2.89-2.91h-6.8L10.29 7.4Zm-7.17 9.84H7.2v-2.87h-.65l-3.43 2.87Zm6.71 2H2v7.83h7.83v-7.83Zm4.93 4.15v-4.16h-2.93v7.04l2.93-2.87Zm10.38-4.15H17.3v7.83h7.83zM30 23.36v-7.6l-2.87 2.89v7.58L30 23.35ZM13.07 12.83h3.03v-2.02h-3.03z"/>
</svg>
