<svg viewBox="0 0 24 24" xmlns="http://www.w3.org/2000/svg">
  <path d="M6.43 17.15H4.64v-1.79h1.79zm11.38-1.83h-1.79v1.79h1.79zM24 9.13v8.97l-3.6 3.68v.02h-9.04v-2.38l-2.31 2.37v.01H0v-9.04h.01l4.35-3.64h.98V5.46h.02l-.02-.02L9.7 1.82h8.29v7.3H24Zm-2.98 1.75h-3.11l-1.88 1.89h3.11zm-8.39 1.88V7.22H7.09v5.54zm1.75-6.05v5.26l1.86-1.88V4.83zM8.05 5.47h5.09l1.88-1.89h-4.68L8.06 5.47Zm-5.32 7.3h2.61v-1.89h-.35zm4.56 1.75H1.75v5.54h5.54zm3.61 2.87v-2.88H9.04v4.78l1.86-1.91Zm7.74-2.87H13.1v5.54h5.54zm3.61 2.87v-5.26l-1.86 1.88v5.28zM10.06 9.78h1.79V7.99h-1.79z"/>
</svg>
