<svg viewBox="0 0 40 40" xmlns="http://www.w3.org/2000/svg">
  <path d="M39.23 22.87H40L37.14 0H2.86L0 22.87h.77L0 29.01h.69L0 34.5h.69L0 40h40l-.69-5.5H40l-.69-5.5H40zm-1.78 3.89H2.55l.49-3.88h33.93l.49 3.88ZM15.43 12.78c1.22 1.29 2.84 2 4.57 2s3.35-.71 4.57-2l.41-.36 11.54 8.2H3.66l11.44-8.13zm21.73 5.53-10.44-7.42 8.57-7.53 1.87 14.94Zm-14.12-7.18-.08.08c-.8.85-1.85 1.32-2.96 1.32s-2.17-.47-2.96-1.32L6.84 2.25h26.32l-10.11 8.88Zm-9.68-.16L2.82 18.46 4.71 3.37zM2.55 32.25 2.96 29h34.08l.41 3.25zm34.9 5.5H2.55l.41-3.24h34.09l.41 3.24Z"/>
</svg>
