<svg viewBox="0 0 32 32" xmlns="http://www.w3.org/2000/svg">
  <path d="m.98 15.52-.67.47L2.15 1.37l8.43 7.36-9.59 6.78Zm31.05 12.01h-.56l.56 4.45h-32l.56-4.45H.03l.56-4.45H.03l.61-4.84H.6l.04-.03.07-.05 11.43-8.08.15.13c1 1.06 2.32 1.64 3.74 1.64s2.75-.58 3.67-1.58l.22-.2 11.25 7.96.24.17.04.03h-.03l.61 4.84h-.56l.56 4.45Zm-2.29-2-.31-2.44H2.62l-.31 2.44zM2.67 18.25l-.36 2.83h27.43l-.36-2.83zm26.77 9.28H2.62l-.31 2.44h27.43l-.31-2.44ZM18.3 8.85 28.45-.02H3.62l10.07 8.81c1.36 1.44 3.39 1.37 4.61.07Zm12.77 6.67.67.48L29.9 1.38l-8.43 7.36 9.59 6.78Z"/>
</svg>
