<svg viewBox="0 0 32 32" xmlns="http://www.w3.org/2000/svg">
  <path d="M31.42 18.28h.61L29.73.01H2.33L.03 18.28h.61l-.61 4.84h.56l-.56 4.45h.56l-.56 4.44h32l-.56-4.45h.56l-.56-4.45h.56l-.61-4.84Zm-1.68 2.83H2.31l.36-2.83h26.72l.36 2.83ZM12.29 10.25c1 1.06 2.32 1.64 3.74 1.64s2.75-.58 3.67-1.58l.22-.2 8.71 6.15H3.42l8.71-6.15.15.13Zm17.22 4.19-8.03-5.67 6.59-5.75zM18.3 8.89c-1.22 1.3-3.24 1.37-4.61-.07l-7.8-6.8h20.27l-7.87 6.87Zm-7.72-.12-8.04 5.67L3.98 3.01l6.6 5.75ZM2.31 25.56l.31-2.44h26.81l.31 2.44zm27.43 4.45H2.31l.31-2.44h26.81z"/>
</svg>
