<svg viewBox="0 0 16 16" xmlns="http://www.w3.org/2000/svg">
  <path d="M7.05 4.32 2.11 0h11.76L8.9 4.37c-.49.52-1.25.57-1.85-.05m7.3 2.49.55.39.29.2.1.07.07.05.45.32-.85-6.81-3.91 3.43 3.3 2.34Zm-13.82.8.18-.13.13-.09.52-.37.28-.2 3.3-2.34-3.9-3.42-.85 6.79zM16 13.93h-.26L16 16H0l.26-2.07H0l.26-2.07H0l.28-2.24.28-.2.09-.06.48-.34.26-.19 4.72-3.34c.52.5 1.18.78 1.89.78s1.42-.3 1.89-.78l5 3.54.11.08.35.25.08.06.28.2.28 2.24h-.26l.26 2.07Zm-1.7-1.5-.07-.57H1.77l-.07.57h12.59ZM1.83 9.36l-.13 1h12.59l-.13-1zm12.4 4.57H1.77l-.07.57h12.59l-.07-.57Z"/>
</svg>
