<svg viewBox="0 0 64 64" xmlns="http://www.w3.org/2000/svg">
  <path d="M62.76 36.29H64L59.47.03H4.54L0 36.29h1.24L0 46.24h1.11L0 55.13h1.11L0 64.03h64l-1.11-8.9H64l-1.11-8.9H64l-1.24-9.95Zm-1.87 7.2H3.12l.9-7.2h55.96l.9 7.2Zm-36-23.46c1.9 2.01 4.43 3.12 7.11 3.12 2.69 0 5.21-1.11 7.11-3.12l.95-.83 20.22 14.35H4.01l20.06-14.24zm17.3-2.7L57.2 4.16l3.27 26.15-18.29-12.98Zm-4.94.67-.1.09c-1.38 1.48-3.21 2.29-5.15 2.29s-3.77-.81-5.15-2.29L9.41 2.78h45.2L37.26 18Zm-15.3-.56L3.5 30.54 6.8 4.15zM3.12 52.39l.77-6.15h56.23l.77 6.15zm57.77 8.9H3.12l.77-6.15h56.23z"/>
</svg>
