<svg viewBox="0 0 40 40" xmlns="http://www.w3.org/2000/svg">
  <path d="m38.63 17.2-8.65-4.28V5.75c0-.45-.23-.86-.59-1.06L20.49.13a1 1 0 0 0-.95 0l-8.98 4.55c-.37.2-.6.61-.6 1.06v7.15L1.19 17.2c-.4.2-.65.6-.65 1.04v10.85c0 .42.23.81.6 1.02l9.73 5.38c.14.07.28.11.43.13l8.13 4.23a1.19 1.19 0 0 0 1.15 0l8.1-4.25c.11-.02.23-.06.33-.12l9.66-5.38c.37-.21.6-.59.6-1.02V18.23c0-.44-.25-.85-.64-1.04Zm-18.62 9.14-7.39-3.72-.02-.02 7.4-3.62 7.36 3.62-7.37 3.74Zm7.72-13.82-6.53 3.21v-4.42l6.53-3.66zm-1.26-6.74L20.01 9.4l-6.48-3.6-.05-.06 6.53-3.28 6.49 3.28zm-7.51 5.61v4.48l-6.74-3.34V7.64zm-7.52 3.31 6.05 2.98-7.26 3.57-6-3.02zm-.27 9.68.05.06 7.73 3.89v8.74l-7.79-4.06v-8.64Zm10.04 3.87 7.57-3.84v8.61l-7.57 3.97zm8.48-7.03-7.24-3.59 6-2.94 7.15 3.52-5.92 3Zm-26.9-1.21v.02l6.13 3.08v8.74l-6.13-3.39v-8.44ZM31.03 31.8v-8.73l6-3.04v8.44l-6 3.34Z"/>
</svg>
