<svg viewBox="0 0 32 32" xmlns="http://www.w3.org/2000/svg">
  <path d="m10.1 3.2-.1-.13L16.11 0l6.07 3.07-.09.11-5.99 3.35zm5.08 5.11-6.3-3.5v4.5l6.3 3.12zm2 3.98 6.1-3V4.81l-6.1 3.42zm-8.93-1.02v-.03h-.01v.03h-.02l-6.73 3.29.04.05 5.52 2.78 6.82-3.35zM.21 16.15v7.87l5.7 3.15v-8.11L.29 16.24l-.08-.08Zm31.59.06-5.55 2.82v8.11l5.58-3.11v-7.85zm-1.22-1.65-6.68-3.29v-.03h-.01v.03h-.02L18.3 14l6.8 3.37 5.47-2.78.02-.03ZM7.92 20.17v8.05L15.18 32v-8.11L8.04 20.3l-.11-.12Zm15.07-1.59-6.84-3.37v-.03l-.03-.01v.04h-.04l-6.89 3.37.08.09 6.84 3.44 6.82-3.46zm-5.81 5.24v8.11l7.05-3.7V20.2l-.06.07z"/>
</svg>
