<svg viewBox="0 0 48 48" xmlns="http://www.w3.org/2000/svg">
  <path d="m46.36 20.63-10.38-5.14V6.88c0-.54-.27-1.03-.71-1.27L24.59.14c-.18-.1-.38-.15-.57-.15s-.39.05-.57.15L12.68 5.6c-.44.24-.72.73-.72 1.28v8.58L1.43 20.63c-.48.23-.78.72-.78 1.25V34.9c0 .51.28.98.72 1.22l11.68 6.46c.16.09.34.13.52.15l9.75 5.08c.21.12.45.18.69.18s.48-.06.69-.18l9.72-5.1c.14-.03.27-.07.4-.14l11.6-6.46c.44-.25.72-.71.72-1.22V21.87c0-.53-.3-1.02-.77-1.25ZM24.01 31.82l-8.99-4.52-.22-.25 9.12-4.46s.06-.02.1-.02.07 0 .1.02l9.06 4.46-.2.22zm9.47-16.91-8.13 4v-5.72l8.13-4.13v5.86Zm-1.56-7.87L24 11.06l-7.94-4-.21-.26L24 2.71l8.1 4.1zM14.46 9.06l8.39 4.22v5.81l-8.39-4.16V9.05Zm-.81 8.38s.05-.02.08-.02.05 0 .08.02l7.41 3.65-9.16 4.5L4.92 22l-.18-.2 8.92-4.36Zm-.44 11.58.26.29 9.38 4.72v10.72l-9.64-5.02zm12.14 4.92 9.18-4.66.2-.23v10.68l-9.38 4.92zm10.49-8.38-9.14-4.53 7.35-3.59s.05-.02.08-.02.05 0 .08.02l8.86 4.36-.15.17zM3.15 23.78l.22.24 7.34 3.69v10.71l-7.56-4.18V23.77Zm34.08 14.59V27.66l7.24-3.67.16-.18v10.44z"/>
</svg>
