<svg viewBox="0 0 32 32" xmlns="http://www.w3.org/2000/svg">
  <path d="m30.91 13.74-6.92-3.43V4.57c0-.36-.18-.69-.48-.85L16.4.08c-.12-.07-.25-.1-.38-.1s-.26.03-.38.1L8.46 3.72a.97.97 0 0 0-.48.85v5.72L.96 13.74c-.32.16-.52.48-.52.84v8.68c0 .34.18.65.48.81l14.63 7.8c.14.08.3.12.46.12s.32-.04.46-.12l14.47-7.79c.3-.16.48-.48.48-.81v-8.68c0-.35-.2-.68-.51-.83Zm-14.9 7.08-5.49-2.76 5.49-2.68 5.44 2.68L16 20.82Zm5.98-10.73-4.92 2.42V8.97l4.92-2.76zM16 7.27l-4.82-2.68 4.83-2.42 4.79 2.42-4.79 2.68Zm-.93 1.77v3.59l-5.09-2.52v-3.9zm-5.91 2.92 4.61 2.27-5.36 2.63-4.58-2.3 5.32-2.6Zm-.02 7.65 5.93 2.98v6.77l-5.93-3.09zm7.93 2.92 5.76-2.92v6.67l-5.76 3.02v-6.76Zm6.46-5.69-5.34-2.65 4.58-2.24 5.27 2.6zM2.44 16.1l4.7 2.37v6.76l-4.7-2.6zm22.38 9.09v-6.76l4.6-2.33v6.53z"/>
</svg>
