<svg viewBox="0 0 24 24" xmlns="http://www.w3.org/2000/svg">
  <path d="m23.01 10.35-4.88-2.42V3.59a.71.71 0 0 0-.36-.63L12.31.08c-.09-.05-.19-.07-.29-.07s-.2.02-.29.07l-5.5 2.88a.72.72 0 0 0-.37.63v4.33L.9 10.35c-.24.12-.38.35-.38.62v6.41c0 .25.14.48.35.6l10.8 5.94a.69.69 0 0 0 .68 0l10.69-5.94c.22-.12.35-.35.35-.6v-6.41c0-.26-.15-.5-.38-.62m-11 4.93-3.44-1.73 3.44-1.68 3.41 1.68zm4.37-7.6-3.45 1.7v-2.6l3.45-1.86v2.77Zm-4.37-2.4-3.18-1.7 3.18-1.66 3.16 1.65zm-.83 1.54v2.64L7.61 7.69V4.9l3.57 1.91ZM6.95 9.35l3.1 1.53-3.34 1.64-3.07-1.55zm.26 5.48 3.97 2v4.83l-3.97-2.19v-4.63Zm5.72 1.94 3.84-1.95v4.64l-3.84 2.14v-4.82Zm4.33-4.27-3.33-1.65L17 9.35l3.28 1.62zm-15-.27 3.2 1.61v4.68l-3.2-1.77zm16.26 6.26v-4.68l3.12-1.58v4.52z"/>
</svg>
