<svg viewBox="0 0 64 64" xmlns="http://www.w3.org/2000/svg">
  <path d="M61.8 27.46 47.96 20.6V9.12c0-.72-.37-1.38-.95-1.7L32.78.15a1.59 1.59 0 0 0-1.52-.01L16.89 7.43c-.59.32-.96.98-.96 1.7v11.43L1.9 27.47c-.64.31-1.04.96-1.04 1.67V46.5c0 .68.37 1.3.96 1.63l15.57 8.61c.22.12.45.18.69.21l13.01 6.78a1.89 1.89 0 0 0 1.84 0l12.96-6.79c.18-.04.36-.09.53-.19l15.46-8.61c.59-.33.96-.95.96-1.63V29.14c0-.71-.39-1.36-1.03-1.67ZM32 43.04l-13.45-6.77-.15-.26 13.22-6.46q.18-.09.39-.09c.21 0 .27.03.39.09l13.29 6.54-13.68 6.95ZM44.7 19.8l-11.2 5.5v-7.63l11.72-5.95v7.91c-.18.03-.35.08-.52.16Zm-.62-10.57L32 15.36 19.72 9.18l-.02-.08 12.1-6.07.04-.02.04-.02s.09-.04.14-.04.09.01.14.04l.04.02.04.02 11.92 6.03-.06.17Zm-13.33 8.58v7.75l-11.61-5.75c-.14-.07-.3-.12-.45-.15v-7.92zm-12.81 4.88a.86.86 0 0 1 .72 0l10.13 4.99c-.11.08-.2.18-.29.29l-13.1 6.44L4.84 29.1l13.09-6.4Zm-.92 15.89 13.73 6.91v14.95l-13.73-7.15zm16.48 6.78 13.39-6.8v14.73L33.5 60.31zm14.94-10.99-13.49-6.69 10.2-4.99a.86.86 0 0 1 .72 0l12.99 6.39-10.42 5.28ZM3.61 31.56l10.66 5.36v14.95L3.61 45.98zm46.02 20.23V36.84l10.45-5.3v14.43z"/>
</svg>
