<svg viewBox="0 0 32 32" xmlns="http://www.w3.org/2000/svg">
  <path d="M25.06 13.37c0-.55.45-1 1-1s1 .45 1 1-.45 1-1 1-1-.45-1-1m5.86 11.27c.53 1.05.42 2.23-.28 2.99-.25.28-.85.77-1.89.77-.47 0-1.03-.1-1.69-.36l-.12-.06c-1.33-.75-5.26-2.71-7.39-2.71-.31 0-.58-.15-.76-.38-.72.18-1.52.3-2.37.3-1.28 0-2.69-.27-4.13-.99-1.88 2.24-5.03 2.79-7.14 2.68l-.78 1.04c-.81.78-1.56 1-2.13 1-.18 0-.34-.02-.48-.05-.75-.16-1.38-.7-1.68-1.45-.14-.35-.47-1.17 1.95-5.37l.27-.48.55-.02c.69-.03.97-.22 1.05-.33.02-.32.07-.64.14-.96-1.43-.16-2.55-1.52-2.55-3.19 0-1.77 1.27-3.22 2.83-3.22 1.05 0 1.96.67 2.45 1.64 2.53-2.11 5.76-1.66 6.43-1.54h4.14c1.02-.05 1.85-.39 2.48-.78-.4-.46-1.16-1.07-2.49-1.31-.12-.02-3.2-.58-4.21-3.52-.36-1.04.1-2.07 1.2-2.67.63-.35 1.49-.56 2.46-.63.11-.91.79-1.61 1.87-1.86 2.5-.58 7.43 1.21 9.13 5.25.03.07.03.14.04.21 1.17.53 2.25 1.41 2.69 2.89.46.54 1.55 1.99 1.46 3.57-.04.83-.42 1.58-1.07 2.17-.33.39-1.41 1.43-3.82 1.56-.12.48-.3 1.08-.57 1.63 1.34 1.02 3.82 2.99 4.41 4.17ZM19.02 5.17c1.85.31 3.79 1.16 5.19 2.7.25 0 .58.03.95.08-1.24-1.61-3.25-2.62-4.91-2.83-.6-.07-.99-.02-1.23.05M4.32 18.3c.44 0 .83-.57.83-1.22s-.39-1.22-.83-1.22-.83.57-.83 1.22.39 1.22.83 1.22m24.82 7.24c-.34-.68-2.63-2.61-4.55-4l-.91-.66.75-.83c.38-.42.73-1.63.85-2.36l.14-.86.87.03c2.3.06 3.04-.82 3.07-.86l.16-.17c.29-.24.43-.5.44-.81.05-.87-.8-1.97-1.1-2.29l-.18-.2-.06-.26c-.59-2.5-4.82-2.39-4.85-2.4l-.5.02-.31-.39c-1.59-1.99-4.52-2.71-6.58-2.39-.95.15-1.36.47-1.39.57.64 1.84 2.61 2.22 2.7 2.24 1.87.35 2.99 1.24 3.63 1.98a.99.99 0 0 1 1.33-.15c.44.33.54.95.22 1.39-.08.11-1.99 2.68-5.48 2.84H13l-.11-.02c-.15-.03-3.63-.74-5.63 1.92 0 0-1.31 1.84-1.37 3.58-.09.73-.7 1.8-2.38 2.06-.77 1.38-1.41 2.76-1.52 3.28.05.06.11.12.19.14.14.02.4-.06.76-.38l1.29-1.75.57.06c.25.03 6.15.6 6.98-4.18.09-.54.61-.91 1.15-.82s.91.61.81 1.16c-.09.54-.24 1.02-.42 1.47 4.28 2.02 7.96-.82 8.13-.95a1 1 0 0 1 1.4.16 1 1 0 0 1-.16 1.4c-.01 0-.31.24-.82.54 2.64.73 5.52 2.29 6.01 2.56.7.27 1.17.23 1.31.08.11-.12.13-.42-.03-.74Z"/>
</svg>
