<svg viewBox="0 0 64 64" xmlns="http://www.w3.org/2000/svg">
  <path d="M61.95 33.67c1.23-1.08 1.92-2.45 2-3.98.17-3.07-2.14-6.01-2.92-6.91-1.05-3.73-4.25-5.51-7.25-6.37v-.02C49.96 8.71 40.13 5.78 35.3 7.22c-1.66.49-2.72 1.51-3.02 2.82-1.31.21-2.48.56-3.39 1.06-1.97 1.09-2.77 2.83-2.14 4.65 1.94 5.6 7.86 6.68 8.1 6.72 3.49.64 5.2 2.44 5.92 3.47-1.44 1-3.47 1.98-6.03 2.1h-8.51c-1.18-.22-8.19-1.29-13.31 3.57-.74-2.21-2.59-3.79-4.77-3.79-2.82 0-5.11 2.64-5.11 5.89s2.29 5.89 5.11 5.89c.09 0 .17-.01.26-.02-.24.88-.41 1.8-.46 2.73-.08.22-.56 1.07-2.76 1.15l-.76.03-.38.66C-.74 52.42-.1 53.98.11 54.5c.54 1.32 1.65 2.28 2.96 2.56.25.05.52.09.83.09 1.04 0 2.4-.4 3.9-1.84l1.74-2.32c4.27.27 10.96-.77 14.69-5.58 3.38 1.88 6.81 2.53 9.89 2.53 1.59 0 3.09-.17 4.43-.42.21.13.46.21.72.21 5.4 0 15.31 5.54 15.41 5.6l.17.08c1.26.5 2.32.69 3.2.69 1.87 0 2.92-.85 3.37-1.34 1.24-1.35 1.42-3.45.47-5.35-1.21-2.39-6.8-6.74-9.26-8.58.75-1.36 1.22-3.04 1.48-4.15 5.14-.14 7.3-2.32 7.85-3Zm-9.41-5.47c-1.13 0-2.04-.91-2.04-2.03s.91-2.03 2.04-2.03 2.04.91 2.04 2.03-.91 2.03-2.04 2.03"/>
</svg>
