<svg viewBox="0 0 24 24" xmlns="http://www.w3.org/2000/svg">
  <path d="M18.58 10.11c0-.48.39-.88.88-.88s.88.39.88.88-.39.88-.88.88-.88-.39-.88-.88m4.61 8.28c.42.83.33 1.76-.23 2.37-.2.22-.68.61-1.5.61-.36 0-.8-.08-1.3-.28l-.11-.05c-.98-.55-3.87-1.99-5.41-1.99-.2 0-.37-.08-.51-.19-.47.14-.99.25-1.58.25-.93 0-2.01-.24-3.24-.83-1.41 1.61-3.7 2.03-5.27 1.97l-.55.73c-.63.61-1.22.77-1.67.77-.14 0-.27-.02-.38-.04-.6-.13-1.1-.56-1.34-1.15-.12-.3-.38-.92 1.46-4.09l.24-.42.48-.02c.4-.02.59-.11.65-.17 0-.17.04-.33.06-.49-.97-.27-1.69-1.26-1.69-2.43 0-1.39 1-2.52 2.23-2.52.73 0 1.37.4 1.78 1.01 1.87-1.4 4.14-1.1 4.66-1.01h3.06c.65-.03 1.19-.23 1.63-.47-.3-.3-.82-.66-1.66-.81-.09-.02-2.45-.45-3.23-2.69-.29-.84.08-1.66.95-2.14.48-.26 1.14-.42 1.87-.46.08-.73.62-1.3 1.48-1.5 1.9-.45 5.64.88 6.95 3.92.05.12.07.24.07.37.8.41 1.51 1.05 1.82 2.07.36.43 1.17 1.52 1.1 2.72-.04.65-.32 1.24-.84 1.69-.26.31-1.08 1.06-2.82 1.19-.08.31-.2.68-.36 1.04 1.06.81 2.78 2.2 3.22 3.06ZM14.66 4.01c1.26.28 2.54.87 3.49 1.9.17 0 .38.03.62.05-.84-1.03-2.08-1.64-3.04-1.86-.47-.11-.82-.12-1.07-.09M3.52 13.7c.16-.34.32-.62.45-.83-.03-.4-.26-.69-.47-.69-.23 0-.48.33-.48.77s.25.77.48.77h.02Zm18.1 5.48c-.25-.49-1.92-1.89-3.33-2.91l-.79-.58.66-.72c.26-.29.51-1.17.59-1.68l.13-.76.77.02c1.62.08 2.14-.56 2.16-.58l.14-.15c.24-.2.27-.38.28-.51.04-.59-.56-1.37-.78-1.6l-.16-.17-.06-.23c-.4-1.71-3.45-1.69-3.46-1.67h-.44l-.28-.33c-1.12-1.4-3-1.82-4.28-1.77-.88.04-1.34.29-1.41.4.45 1.17 1.85 1.45 1.91 1.46 1.34.25 2.17.86 2.68 1.41.3-.24.73-.27 1.05-.03.39.29.47.83.19 1.22-.06.08-1.51 2.04-4.17 2.16H9.74l-.09-.02c-.1-.02-2.55-.51-3.99 1.31a2.6 2.6 0 0 1-.75 1.39c-.15.39-.27.81-.29 1.23-.07.58-.54 1.42-1.82 1.64-.51.92-.95 1.86-1.06 2.26h.03c.05 0 .2-.04.42-.24l.99-1.35.5.06c.18.02 4.43.43 5.02-2.99.08-.48.53-.79 1.01-.71s.79.54.71 1.01c-.06.36-.16.68-.27.99 3.37 1.56 4.92-.41 5.1-.66a.877.877 0 0 1 1.44 1s-.15.2-.4.45c1.96.52 4.07 1.67 4.54 1.92.54.2.78.12.81.09s.06-.19-.04-.4Z"/>
</svg>
