<svg viewBox="0 0 40 40" xmlns="http://www.w3.org/2000/svg">
  <path d="M33.07 25.58c.37-.73.62-1.57.77-2.19 3.07-.14 4.42-1.45 4.81-1.92.8-.71 1.26-1.62 1.31-2.63.11-1.96-1.27-3.76-1.83-4.4-.67-2.29-2.61-3.42-4.46-3.98-2.48-4.68-8.56-6.48-11.58-5.59-.97.29-1.65.87-1.95 1.61-.86.13-1.62.36-2.21.68-1.33.73-1.88 1.95-1.45 3.19 1.25 3.6 5.06 4.29 5.2 4.31 1.81.33 2.8 1.19 3.3 1.79-.83.53-1.93 1.01-3.31 1.08h-5.22c-.81-.15-4.95-.74-8.13 1.99-.57-1.26-1.71-2.13-3.04-2.13-1.89 0-3.43 1.75-3.43 3.9s1.43 3.76 3.23 3.87c-.1.44-.18.89-.2 1.35-.1.17-.49.46-1.44.5l-.62.02-.31.54c-3 5.2-2.58 6.22-2.42 6.6.37.9 1.12 1.55 2.03 1.74q.255.06.57.06c.7 0 1.61-.26 2.6-1.21l1.01-1.34c2.66.15 6.65-.52 8.99-3.36 2.03 1.03 4.29 1.35 6.27 1.35.88 0 1.68-.06 2.4-.15.16.08.33.14.52.14 2.7 0 7.67 2.46 9.35 3.4l.14.07c.81.32 1.5.44 2.08.44 1.26 0 1.98-.58 2.28-.92.84-.92.97-2.33.33-3.6-.74-1.47-3.93-3.98-5.59-5.23Zm-28.16.91v-.06zm26.49-9.83c0-.69.56-1.25 1.26-1.25s1.26.56 1.26 1.25-.56 1.25-1.26 1.25-1.26-.56-1.26-1.25"/>
</svg>
