<svg viewBox="0 0 48 48" xmlns="http://www.w3.org/2000/svg">
  <path d="M37.74 20.01c0-.84.68-1.52 1.51-1.52s1.51.68 1.51 1.52-.68 1.52-1.51 1.52-1.51-.68-1.51-1.52m8.66 17.22c.75 1.5.6 3.16-.38 4.24-.36.39-1.19 1.07-2.67 1.07-.68 0-1.49-.14-2.46-.53l-.15-.07c-2.04-1.15-8.06-4.15-11.34-4.15-.29 0-.54-.11-.76-.28-.91.21-1.96.36-3.15.36-2.06 0-4.49-.45-7.17-1.78-2.8 3.53-7.7 4.32-10.91 4.14l-1.24 1.66C5 43.01 3.94 43.32 3.12 43.32c-.24 0-.47-.03-.66-.07-1.05-.22-1.93-.99-2.36-2.04-.18-.45-.67-1.65 2.95-7.91l.34-.6.69-.03c1.23-.05 1.73-.45 1.84-.69.03-.6.13-1.19.27-1.76-2.17-.06-3.92-2.1-3.92-4.6s1.8-4.61 4.02-4.61c1.61 0 2.98 1.09 3.63 2.66 3.82-3.41 8.88-2.67 9.82-2.5h6.3c1.75-.08 3.15-.71 4.17-1.38-.57-.75-1.8-1.89-4.13-2.32-.18-.03-4.7-.86-6.19-5.16-.51-1.47.12-2.87 1.69-3.74.85-.47 1.99-.78 3.27-.9.04-1.45 1.02-2.52 2.7-2.88C31.24 4 38.37 6.77 40.84 12.7c2.08.71 4.17 2.07 4.92 4.66.65.75 2.32 2.92 2.19 5.28-.07 1.2-.6 2.27-1.55 3.12-.45.55-2.08 2.15-5.81 2.3-.19.79-.51 1.87-.99 2.81 1.98 1.49 5.89 4.58 6.79 6.36ZM27.34 7.68c3.13.27 6.6 1.56 8.99 4.25.33 0 .79.04 1.31.09-2.52-3.67-7.39-5.23-9.58-4.77-.56.12-.7.29-.73.43ZM7.45 26.96c.04-.08.08-.15.12-.22.15-.32.24-.7.24-1.1 0-1.15-.7-2.11-1.52-2.11s-1.52.97-1.52 2.11.7 2.12 1.52 2.12c.47 0 .89-.32 1.17-.79Zm-1.52 5.01v-.04zm38.24 6.38c-.6-1.2-4.45-4.33-6.98-6.17l-1.13-.82.94-1.03c.66-.72 1.18-2.66 1.35-3.72l.18-1.08 1.09.03c3.67.1 4.82-1.34 4.87-1.4l.21-.22c.49-.42.74-.87.77-1.43.08-1.42-1.23-3.13-1.74-3.67l-.23-.24-.08-.33c-.94-4-7.57-3.84-7.63-3.84l-.62.02-.39-.49c-3.32-4.16-9.74-4.43-12-3.19-.67.37-.58.61-.54.73 1 2.89 4.14 3.5 4.27 3.52 2.96.55 4.65 2.02 5.55 3.13q.105-.12.12-.15c.41-.55 1.19-.67 1.74-.26s.68 1.18.27 1.74c-.12.16-2.93 3.96-8.11 4.2h-6.62l-.13-.03c-.23-.05-5.67-1.16-8.81 3.01 0 0-.44.62-.92 1.55-.55 1.08-1.16 2.57-1.21 4.03v.12c-.02.1-.36 2.34-3.52 2.76-1.16 2.08-2.31 4.49-2.41 5.27.1.18.28.37.51.42.36.08.87-.16 1.4-.66l1.88-2.55.72.08c.39.04 9.58.95 10.87-6.57.12-.68.77-1.14 1.44-1.02.68.12 1.13.76 1.02 1.44-.15.87-.39 1.66-.69 2.38 7.54 3.63 12.54-.7 12.76-.89.51-.46 1.3-.42 1.76.09s.42 1.3-.09 1.76c-.04.03-.48.44-1.29.94 4.02 1.09 8.46 3.52 9.14 3.9 1.28.49 2.02.36 2.29.06s.27-.88 0-1.43Z"/>
</svg>
