<svg viewBox="0 0 24 24" xmlns="http://www.w3.org/2000/svg">
  <path d="M19.97 15.33c.16-.35.28-.72.36-1.04 1.74-.12 2.55-.88 2.82-1.19.51-.46.8-1.04.84-1.69.07-1.2-.74-2.29-1.1-2.72-.32-1.03-1.04-1.66-1.84-2.08 0-.09-.02-.18-.05-.26-1.32-3.09-5.07-4.45-6.97-4-.84.2-1.37.75-1.45 1.48-.74.05-1.4.2-1.87.46-.88.48-1.24 1.3-.95 2.14.78 2.24 3.14 2.68 3.23 2.69.84.15 1.35.51 1.66.81-.43.24-.98.44-1.63.47H9.96c-.52-.09-2.79-.39-4.66 1.01-.41-.61-1.05-1.01-1.77-1.01-1.23 0-2.23 1.13-2.23 2.52 0 1.18.72 2.16 1.69 2.43-.03.16-.05.33-.06.49-.06.05-.25.15-.65.17l-.48.02-.24.42C-.31 19.63-.05 20.26.07 20.56c.24.6.75 1.03 1.34 1.15.11.02.24.04.38.04.46 0 1.04-.17 1.67-.77l.55-.73c1.57.06 3.84-.35 5.25-1.95 1.19.57 2.5.75 3.64.75.49 0 .95-.03 1.37-.08.11.05.23.08.36.08 1.55 0 4.43 1.44 5.41 1.99l.11.05c.51.2.94.28 1.3.28.82 0 1.3-.39 1.5-.61.56-.61.65-1.54.23-2.37-.44-.87-2.16-2.26-3.22-3.06Zm-4.35-3.93h-.04s.03-.01.04-.02zm2.96-1.29c0-.48.39-.88.88-.88s.88.39.88.88-.39.88-.88.88-.88-.39-.88-.88"/>
</svg>
