<svg viewBox="0 0 24 24" xmlns="http://www.w3.org/2000/svg">
  <path d="M24 .01H0v1.75h22.25v20.5h-1.38v-6.97c0-.48-.39-.87-.88-.87s-.88.39-.88.87v3.22H16.9c-.83 0-1.5.67-1.5 1.5v2.25h-1.91v1.75h10.49v-24Zm-6.83 20.25h1.96v2h-1.96zm-5.74-8.42h3.04V8.68c0-.91-.74-1.66-1.66-1.66h-1.38v-.05c0-1.72-1.4-3.12-3.12-3.12H0V5.6h8.31c.76 0 1.38.62 1.38 1.37v.05H0v1.75h9.68v3.65H0v1.75h9.68v5.06H0v1.75h4.58v2.01c0 .55.45 1 1 1h3.26c.55 0 1-.45 1-1v-2.01h1.59zm1.29-3.07v1.32h-1.29V8.77zM8.09 22.25H6.33V21h1.76zm.24-6.76v1.75H6.08v-1.75zm-3.75 1.75H0v-1.75h4.58z"/>
</svg>
