<svg viewBox="0 0 16 16" xmlns="http://www.w3.org/2000/svg">
  <path d="M16 0H0v1.5h14.5v13h-.77v-4.47c0-.41-.34-.75-.75-.75s-.75.34-.75.75v1.98h-1.3c-.64 0-1.17.52-1.17 1.16v1.33H9V16h6.99V0Zm-4.74 13.49h.97v1h-.97zM7.79 8.06h2.02V6.05c0-.84-.69-1.53-1.53-1.53h-.51a2.24 2.24 0 0 0-2.24-2.11H0v1.5h5.54c.41 0 .75.34.75.75v.25H0v1.5h6.29v1.72H0v1.5h6.29v3.04H0v1.5h2.91v1.34c0 .28.22.5.5.5h2.65c.28 0 .5-.22.5-.5v-1.34h1.23V8.08Zm.52-2.01v.52h-.52v-.53h.52Zm-3.25 8.44h-.65v-.3h.65zm.39-4.08v1.5h-1.5v-1.5zm-2.54 1.5H0v-1.5h2.91z"/>
</svg>
