<svg viewBox="0 0 32 32" xmlns="http://www.w3.org/2000/svg">
  <path d="M32 0H0v2h29.98v28h-1.52s.02-.06.02-.09V17.74c0-.55-.45-1-1-1s-1 .45-1 1v5.88h-4.17c-1.13 0-2.05.92-2.05 2.05v4.34h-2.24v2h13.97zm-9.7 25.61h4.17v4.3s.01.06.02.09h-4.23zm-7.22-9.98h4.05v-4.31c0-.98-.8-1.78-1.78-1.78h-2.27V9.3c0-2.21-1.79-4-4-4H0v2h11.08c1.1 0 2 .9 2 2v.24H0v2h13.08v5.2H0v2h13.08v7.08H0v2h6.85v2.69c0 .83.67 1.5 1.5 1.5h3.27c.83 0 1.5-.67 1.5-1.5v-2.69h1.96zm2.04-4.1v2.09h-2.05v-2.09zm-6 18.47H8.85v-2.15h2.27zm-.01-9.17v2h-3v-2zm-5.01 2H0v-2h6.1z"/>
</svg>
