<svg viewBox="0 0 64 64" xmlns="http://www.w3.org/2000/svg">
  <path d="M63.94-.06H.06v2.99h61.01v58.25h-4.66V37.44c0-.83-.67-1.5-1.5-1.5s-1.5.67-1.5 1.5v12.23h-8.83c-1.98 0-3.59 1.61-3.59 3.59v7.92h-4.97v2.74h28.04zM43.99 53.26c0-.33.27-.6.6-.6h8.83v8.52H44v-7.92ZM29.54 28.05h8.08v-8.77c0-1.19-.96-2.15-2.15-2.15h-5.93v-1.09c0-4.06-3.3-7.36-7.36-7.36H.06v9.83h25.78v21.11H.06v5.58h16.8v2.74H.06v7.02h14.38v4.49a4.49 4.49 0 0 0 4.49 4.49h3.53c.93 0 1.79-.28 2.51-.77a4.5 4.5 0 0 0 1.98-3.72v-4.49h2.58V28.05Zm-8.73 17.14h4.79v2.74h-4.79z"/>
</svg>
