<svg viewBox="0 0 40 40" xmlns="http://www.w3.org/2000/svg">
  <path d="M40 0H0v2.25h37.75v35.5h-2.32c.02-.08.05-15.45.05-15.45 0-.62-.5-1.12-1.12-1.12s-1.12.5-1.12 1.12v7.47H27.9c-1.34 0-2.44 1.09-2.44 2.44v5.55h-2.93v2.25h17.48v-40ZM27.69 32.21c0-.1.08-.19.19-.19h5.34v5.5c0 .08.03.15.05.23H27.7V32.2Zm-8.97-12.8h5.06v-5.46c0-1.05-.85-1.91-1.91-1.91h-3.15v-.42c0-2.69-2.19-4.87-4.88-4.87H0v5.35h16.44v12.57H0v3.74h10.32v2.25H0v3.98h8.56V38c0 1.1.9 2 2 2h3.84c1.1 0 2-.9 2-2v-3.36h2.32zm-2.28 11.24h-3V28.4h3z"/>
</svg>
