<svg viewBox="0 0 64 64" xmlns="http://www.w3.org/2000/svg">
  <path d="M0 38.17v5.7c.31-.1.63-.16.96-.16 1.12 0 2.12.57 2.7 1.44.12.17.22.36.3.55.16.39.26.82.26 1.27 0 1.8-1.46 3.26-3.26 3.26-.34 0-.66-.07-.96-.16v1.29l.08.6C.84 57.77 13.85 63.99 32 63.99s31.16-6.22 31.92-12.03l.08-.6v-1.6c-.3.09-.61.16-.95.16a3.26 3.26 0 0 1-3.26-3.26c0-.45.09-.88.26-1.27.08-.19.18-.38.3-.55.59-.87 1.58-1.44 2.7-1.44.33 0 .64.06.95.15v-5.39c-5.29 5.49-17.62 9.34-32 9.34S5.29 43.66 0 38.17m18.04 15.91c-.16.39-.4.74-.7 1.04-.15.15-.31.28-.48.4-.35.23-.74.4-1.16.49-.21.04-.43.07-.66.07s-.44-.02-.66-.07c-.42-.09-.82-.26-1.16-.49-.17-.12-.33-.25-.48-.4-.29-.29-.53-.65-.7-1.04s-.26-.82-.26-1.27a3.26 3.26 0 0 1 6.52 0c0 .45-.09.88-.26 1.27m27.75-1.92c.09-.42.26-.82.49-1.16.12-.17.25-.33.4-.48.29-.29.65-.53 1.04-.7s.82-.26 1.27-.26c1.8 0 3.26 1.46 3.26 3.26 0 .45-.09.88-.26 1.27a3.34 3.34 0 0 1-1.18 1.44c-.35.23-.74.4-1.16.49-.21.04-.43.07-.66.07s-.44-.02-.66-.07a3.3 3.3 0 0 1-.97-.38c-.25-.14-.48-.3-.68-.5s-.36-.43-.5-.68c-.17-.3-.31-.62-.38-.97-.04-.21-.07-.43-.07-.66s.02-.44.07-.66Zm-10.52 2.82a3.26 3.26 0 1 1-6.521-.001 3.26 3.26 0 0 1 6.521.001M0 32.19c0-4.97 9.18-10.41 23.21-12.06v11.11c0 .97.41 2.77 3.15 3.94 1.51.65 3.51 1 5.64 1 4.38 0 8.79-1.53 8.79-4.94V20.13C54.81 21.78 64 27.22 64 32.19c0 5.94-13.14 12.57-32 12.57S0 38.13 0 32.19M27.31 9.37c0-1.11.46-2.44 1.09-3.75C29.78 2.74 32 0 32 0s2.22 2.75 3.6 5.62c.63 1.31 1.09 2.64 1.09 3.75 0 1.33-.3 2.52-.8 3.48-.17.32-.36.61-.57.88s-.44.51-.69.71c-.12.1-.25.2-.39.29-.27.18-.55.32-.84.43-.44.17-.91.25-1.39.25s-.95-.09-1.39-.25c-.29-.11-.58-.26-.84-.43-.13-.09-.26-.18-.39-.29-.25-.21-.48-.45-.69-.71-.21-.27-.4-.56-.57-.88-.51-.96-.8-2.14-.8-3.48Zm-2.36 23.08c-.24-.36-.37-.77-.37-1.21V19.88c0-.21.03-.41.07-.61.01-.06.04-.12.06-.18.04-.13.08-.25.14-.37.03-.07.07-.13.11-.19.06-.1.12-.2.2-.3.05-.06.09-.12.15-.17.08-.09.16-.17.25-.24.06-.05.11-.1.17-.14.1-.07.21-.13.31-.19.06-.03.12-.07.18-.09.14-.06.29-.11.44-.14.04 0 .07-.03.11-.03.18-.04.36-.06.55-.06h.03c.22 0 .45.03.68.09 1.35.35 2.85.66 3.99.66s2.62-.31 4-.67c.23-.06.45-.09.67-.09h.03c.19 0 .37.02.55.06.04 0 .07.02.11.03.15.04.29.08.43.14l.18.09c.11.06.21.12.31.19.06.04.11.09.17.14.09.08.17.15.25.24.05.06.1.11.14.17.07.09.14.19.2.3.04.06.07.13.11.19.06.12.1.24.14.37l.06.18c.04.19.07.4.07.61v11.37c0 .45-.13.85-.37 1.21-.08.12-.17.24-.27.35-.41.45-.98.82-1.68 1.11q-.255.105-.54.21c-.37.13-.77.24-1.19.33-.21.05-.42.09-.64.13-.43.07-.88.13-1.34.17s-.92.06-1.38.06c-.23 0-.46 0-.69-.01-.92-.04-1.83-.15-2.67-.33-.37-.08-.72-.18-1.06-.29q-.45-.15-.84-.33c-.22-.1-.43-.21-.62-.33-.12-.07-.23-.15-.33-.22-.21-.15-.4-.31-.56-.49-.1-.11-.19-.23-.27-.35Z"/>
</svg>
