<svg viewBox="0 0 40 40" xmlns="http://www.w3.org/2000/svg">
  <path d="M0 24.42v3.11c.13-.02.26-.04.39-.04 1.15 0 2.09.93 2.09 2.08s-.93 2.08-2.09 2.08c-.13 0-.26-.02-.39-.04v.73l.05.35C.5 36.13 8.81 39.97 20 39.97s19.5-3.84 19.95-7.28l.05-.35v-.95c-.15.03-.3.06-.46.06-.29 0-.56-.06-.81-.16-.5-.21-.9-.61-1.11-1.11-.11-.25-.16-.52-.16-.81s.06-.56.16-.81c.21-.5.61-.9 1.11-1.11a2 2 0 0 1 1.27-.1v-2.94c-3.62 3.26-11.21 5.51-20 5.51s-16.38-2.24-20-5.5m10.51 10c-.21.5-.61.9-1.11 1.11-.25.11-.52.16-.81.16s-.56-.06-.81-.16c-.5-.21-.9-.61-1.11-1.11-.11-.25-.16-.52-.16-.81 0-1.15.93-2.08 2.09-2.08s2.09.93 2.09 2.08c0 .29-.06.56-.16.81Zm20.82-2.89a2.087 2.087 0 0 1 1.93 2.89c-.21.5-.61.9-1.11 1.11-.25.11-.52.16-.81.16s-.56-.06-.81-.16c-.5-.21-.9-.61-1.11-1.11-.11-.25-.16-.52-.16-.81 0-1.15.93-2.08 2.09-2.08Zm-9.28 3.24c0 .29-.06.56-.16.81-.21.5-.61.9-1.11 1.11-.25.11-.52.16-.81.16s-.56-.06-.81-.16-.47-.26-.66-.45q-.285-.285-.45-.66c-.165-.375-.16-.52-.16-.81s.06-.56.16-.81c.21-.5.61-.9 1.11-1.11.25-.11.52-.16.81-.16 1.15 0 2.09.93 2.09 2.08ZM0 20.12c0-2.63 5.3-6.12 14.24-7.21v6.61c0 .67.28 1.91 2.13 2.71.98.42 2.27.65 3.63.65 2.87 0 5.76-1.04 5.76-3.35v-6.61C34.7 14.01 40 17.5 40 20.13c0 3.16-7.61 7.56-20 7.56S0 23.28 0 20.12M17.07 5.85c0-.28.05-.58.13-.89.24-.94.79-1.98 1.34-2.87C19.27.9 20 0 20 0s.73.91 1.47 2.1c.55.89 1.1 1.94 1.34 2.87.08.31.13.61.13.89 0 2.22-1.31 3.78-2.93 3.78s-2.93-1.55-2.93-3.78Zm-1.71 13.67v-7.1c0-.13.02-.26.04-.38 0-.04.02-.08.04-.12.02-.08.05-.16.08-.23.02-.04.04-.08.07-.12.04-.06.08-.13.12-.18.03-.04.06-.07.09-.11.05-.05.1-.1.16-.15.04-.03.07-.06.11-.09.06-.04.13-.08.2-.12.04-.02.07-.04.11-.06q.135-.06.27-.09c.02 0 .04-.02.07-.02.11-.02.23-.04.34-.04h.02c.14 0 .28.02.42.05.42.11.87.21 1.3.29s.84.12 1.2.12c.17 0 .36-.01.56-.03.4-.04.84-.13 1.28-.23.22-.05.44-.1.66-.16.14-.04.28-.05.42-.05h.02c.12 0 .23.01.34.04.02 0 .05.02.07.02q.135.03.27.09c.04.02.07.04.11.06.07.04.13.07.2.12.04.03.07.06.11.09.06.05.11.1.16.15.03.03.06.07.09.11.05.06.08.12.12.19.02.04.05.08.07.12.03.07.06.15.09.23.01.04.03.07.04.11.03.12.04.25.04.38v7.11c0 .56-.33 1.01-.86 1.36-.35.23-.8.42-1.29.56-.75.21-1.62.31-2.49.31-2.32 0-4.64-.74-4.64-2.23Z"/>
</svg>
