<svg viewBox="0 0 32 32" xmlns="http://www.w3.org/2000/svg">
  <path d="M10.33 25.25c0 .31-.09.6-.26.84-.05.08-.12.15-.18.22-.27.27-.65.44-1.06.44a1.5 1.5 0 0 1-1.24-.66 1.498 1.498 0 0 1 1.24-2.34c.83 0 1.5.67 1.5 1.5m5.7-.67c-.83 0-1.5.67-1.5 1.5s.67 1.5 1.5 1.5 1.5-.67 1.5-1.5-.67-1.5-1.5-1.5m7.19-.83a1.498 1.498 0 0 0-1.24 2.34c.05.08.12.15.18.22.27.27.65.44 1.06.44a1.5 1.5 0 0 0 1.24-.66 1.498 1.498 0 0 0-1.24-2.34M32 16.08v9.27h-.05c-.49 3.7-7.43 6.64-15.95 6.64S.53 29.06.05 25.36H0v-9.27c0-3.19 4.8-5.88 11.38-6.76-.05.2-.09.4-.09.61v1.41C5.5 12.18 2 14.43 2 16.08c0 2.06 5.45 5.06 14 5.06s14-2.99 14-5.06c0-1.65-3.51-3.9-9.29-4.73V9.93c0-.21-.03-.41-.09-.61C27.2 10.19 32 12.89 32 16.08m-2 8.79v-.93c-.25.2-.57.32-.91.32a1.5 1.5 0 0 1-1.24-.66 1.498 1.498 0 0 1 1.24-2.34c.35 0 .66.12.91.32v-2.07c-2.73 2.17-7.97 3.64-14 3.64S4.73 21.68 2 19.51v2.26c.26-.22.6-.37.97-.37a1.505 1.505 0 0 1 1.5 1.5 1.498 1.498 0 0 1-2.38 1.21c-.03-.02-.06-.05-.09-.08v.88l.03.19C2.3 27.15 7.74 30 16 30s13.7-2.86 13.97-4.9zM13.66 4.69C13.66 2.91 16 0 16 0s2.34 2.91 2.34 4.69S17.29 7.71 16 7.71s-2.34-1.24-2.34-3.02m2 0c0 .68.27.99.35 1.02.06-.03.34-.34.34-1.02 0-.2-.13-.57-.34-1-.21.44-.34.8-.34 1ZM12.3 16.62V9.94c0-.77.63-1.36 1.36-1.36.12 0 .23.01.35.05.67.18 1.42.33 1.99.33s1.31-.16 2-.34c.12-.03.24-.05.35-.05.73 0 1.36.59 1.36 1.36v6.68c0 1.19-1.85 1.78-3.7 1.78s-3.7-.59-3.7-1.78Zm2-.48c.31.12.9.26 1.7.26s1.39-.14 1.7-.26v-5.39c-.67.14-1.23.21-1.7.21s-1.05-.07-1.7-.21z"/>
</svg>
