<svg viewBox="0 0 16 16" xmlns="http://www.w3.org/2000/svg">
  <path d="M0 10.3v1.2c.08-.03.17-.05.26-.05.49 0 .89.4.89.89s-.4.89-.89.89c-.09 0-.18-.03-.26-.05v.08l.02.1C.14 14.28 2.99 16 8 16s7.86-1.72 7.98-2.64l.02-.12v-.14c-.08.02-.15.05-.23.05-.49 0-.89-.4-.89-.89s.4-.89.89-.89c.08 0 .16.03.23.05v-1.11c-1.69 1.16-4.64 1.94-8 1.94s-6.31-.78-8-1.95m3.84 4.33c-.49 0-.89-.4-.89-.89s.4-.89.89-.89.89.4.89.89-.4.89-.89.89m8.35-1.78c.49 0 .89.4.89.89s-.4.89-.89.89-.89-.4-.89-.89.4-.89.89-.89m-3.28 1.19c0 .49-.4.89-.89.89s-.89-.4-.89-.89.4-.89.89-.89.89.4.89.89M0 8.05c0-.77 2-2.06 5.4-2.52v2.28c0 .98 1.05 1.64 2.6 1.64s2.6-.66 2.6-1.64V5.53C14 5.99 16 7.28 16 8.05c0 .95-3.04 2.69-8 2.69S0 9 0 8.05m6.83-5.71c0-.56.46-1.33.8-1.84C7.84.2 8 0 8 0s1.17 1.45 1.17 2.34S8.65 3.85 8 3.85c-.08 0-.16 0-.24-.03-.53-.13-.94-.7-.94-1.48Zm-.68 5.47V4.97c0-.11.03-.2.07-.29.01-.03.04-.05.05-.08.04-.05.07-.1.12-.15l.09-.06c.05-.03.1-.06.16-.07.04-.01.07-.02.11-.02.03 0 .05-.02.08-.02.06 0 .12 0 .18.02.34.09.71.16 1 .16.14 0 .3-.02.47-.05s.35-.07.52-.12c.06-.02.12-.02.18-.02.03 0 .05.01.08.02.04 0 .07.01.11.02.06.02.11.04.16.07.03.02.06.03.09.06q.075.06.12.15c.02.03.04.05.05.08.04.09.07.18.07.29V7.8c0 .37-.36.63-.86.77-.2.06-.42.09-.65.11-.11 0-.23.01-.35.01s-.23 0-.35-.01c-.23-.02-.45-.06-.65-.11-.5-.14-.86-.39-.86-.77Z"/>
</svg>
