<svg viewBox="0 0 40 40" xmlns="http://www.w3.org/2000/svg">
  <path d="M12.29 31.56a1.874 1.874 0 0 1-1.88 1.88 1.9 1.9 0 0 1-1.33-.55c-.34-.34-.55-.81-.55-1.33a1.874 1.874 0 0 1 1.88-1.88 1.9 1.9 0 0 1 1.33.55c.34.34.55.81.55 1.33m7.68-.83c-1.04 0-1.88.84-1.88 1.88s.84 1.88 1.88 1.88 1.88-.84 1.88-1.88-.84-1.88-1.88-1.88m10.87-.49a1.886 1.886 0 0 0-2.66 0c-.34.34-.55.81-.55 1.33a1.874 1.874 0 0 0 1.88 1.88 1.9 1.9 0 0 0 1.33-.55c.34-.34.55-.81.55-1.33s-.21-.99-.55-1.33M40 20.1v11.59h-.06c-.61 4.63-9.29 8.3-19.94 8.3S.67 36.32.06 31.69H0V20.1c0-4.01 6.07-7.39 14.37-8.46-.07.25-.12.51-.12.78v1.5c-2.8.39-5.36 1.07-7.48 2-2.79 1.23-4.52 2.83-4.52 4.18s1.73 2.95 4.52 4.18c3.5 1.54 8.2 2.39 13.23 2.39s9.74-.85 13.23-2.39c2.79-1.23 4.52-2.83 4.52-4.18s-1.73-2.95-4.52-4.18c-2.12-.93-4.67-1.61-7.48-2v-1.51c0-.27-.05-.53-.12-.77 8.3 1.07 14.36 4.45 14.36 8.46Zm-2.25 11v-.8c-.06 0-.13.02-.19.02-.32 0-.61-.09-.88-.23-.16-.09-.32-.19-.45-.32s-.24-.29-.32-.45c-.14-.26-.23-.56-.23-.88 0-1.04.84-1.88 1.88-1.88.07 0 .13.01.19.02v-2.42c-3.33 2.83-10.02 4.77-17.75 4.77S5.58 26.99 2.25 24.16v2.59s.08-.01.12-.01c1.04 0 1.88.84 1.88 1.88s-.84 1.88-1.88 1.88c-.04 0-.08 0-.12-.01v.62l.04.3C2.63 34 9.13 37.76 20 37.76s17.37-3.75 17.71-6.35l.04-.3ZM17.07 5.86C17.07 3.63 20 0 20 0s2.93 3.63 2.93 5.86S21.62 9.64 20 9.64s-2.93-1.55-2.93-3.78m2.25 0c0 1 .44 1.53.68 1.53s.68-.52.68-1.53c0-.39-.27-1.06-.68-1.81-.41.75-.68 1.42-.68 1.81m-3.95 14.91v-8.35a1.698 1.698 0 0 1 2.14-1.64c.84.22 1.78.41 2.49.41s1.64-.2 2.5-.42a1.698 1.698 0 0 1 2.14 1.64v8.35c0 1.49-2.32 2.23-4.63 2.23s-4.63-.74-4.63-2.23Zm2.25-.43c.38.18 1.19.41 2.38.41s2-.23 2.38-.41v-7.22c-.95.22-1.74.32-2.38.32s-1.44-.1-2.38-.32v7.21Z"/>
</svg>
