<svg viewBox="0 0 32 32" xmlns="http://www.w3.org/2000/svg">
  <path d="M0 19.72v2.6h.03a1.7 1.7 0 0 1 1.4.74c.18.27.29.59.29.94a1.69 1.69 0 0 1-1.03 1.55c-.2.09-.42.13-.66.13H0v.3l.04.27C.35 28.6 6.21 31.99 16 31.99s15.66-3.39 15.96-5.74l.04-.27v-.49c-.1.02-.19.03-.29.03a1.685 1.685 0 0 1-1.68-1.69c0-.47.19-.89.49-1.19s.73-.49 1.19-.49c.1 0 .2.01.29.03v-2.47c-2.99 2.56-9.02 4.32-16 4.32S2.99 22.28 0 19.72m7.2 9.13c-.93 0-1.69-.76-1.69-1.69 0-.47.19-.89.49-1.19s.73-.49 1.19-.49.89.19 1.19.49c.31.31.49.73.49 1.19 0 .93-.76 1.69-1.69 1.69Zm16.14-2.89c.31-.31.73-.49 1.19-.49s.89.19 1.19.49c.31.31.49.73.49 1.19 0 .93-.76 1.69-1.69 1.69s-1.69-.76-1.69-1.69c0-.47.19-.89.49-1.19Zm-5.79 2.14c0 .93-.76 1.69-1.69 1.69s-1.69-.76-1.69-1.69c0-.47.19-.89.49-1.19s.73-.49 1.19-.49.89.19 1.19.49c.31.31.49.73.49 1.19ZM0 16.09c0-1.23 1.56-2.68 4.08-3.79 2.03-.89 4.51-1.53 7.22-1.87v5.18c0 .56.23 1.6 1.76 2.26.79.34 1.84.53 2.94.53 2.81 0 4.7-1.12 4.7-2.78v-5.18c2.72.34 5.19.97 7.22 1.87C30.44 13.42 32 14.87 32 16.1s-1.56 2.68-4.08 3.79c-3.15 1.39-7.38 2.16-11.92 2.16s-8.77-.77-11.92-2.16C1.56 18.78 0 17.33 0 16.1ZM13.71 5.33c-.03-.2-.05-.42-.05-.64C13.66 2.91 16 0 16 0s2.34 2.91 2.34 4.68c0 .22-.02.44-.05.64C18.07 6.75 17.13 7.7 16 7.7s-2.07-.95-2.29-2.38ZM12.3 15.62V9.95c0-.1.01-.2.04-.3 0-.03.02-.06.03-.09.02-.06.04-.12.07-.18.02-.03.04-.06.05-.1.03-.05.06-.1.1-.15.02-.03.05-.06.07-.09l.12-.12c.03-.02.06-.05.09-.07.05-.04.1-.07.16-.09.03-.02.06-.03.09-.05.07-.03.14-.05.22-.07.02 0 .04-.01.05-.02q.135-.03.27-.03h.01c.11 0 .22.01.34.04.67.18 1.42.33 1.99.33s1.31-.16 1.99-.34c.11-.03.23-.04.34-.04h.01c.09 0 .19.01.27.03.02 0 .04.01.05.02.07.02.15.04.22.07.03.01.06.03.09.05.05.03.11.06.16.1.03.02.06.05.09.07.04.04.09.08.13.12.03.03.05.06.07.09.04.05.07.1.1.15.02.03.04.06.05.1.03.06.05.12.07.18 0 .03.02.06.03.09.02.1.04.2.04.3v5.68c0 .3-.12.56-.32.78s-.49.41-.84.56c-.17.07-.36.14-.56.19-.4.11-.84.19-1.29.22q-.345.03-.69.03c-.345 0-.46 0-.69-.03-1.59-.13-3.01-.71-3.01-1.75Z"/>
</svg>
