<svg viewBox="0 0 24 24" xmlns="http://www.w3.org/2000/svg">
  <path d="M22.17 0H1.92C.88 0 .04.84.04 1.88v22.13h24V1.88C24.04.84 23.2 0 22.17 0m.12 22.25H1.79V1.88c0-.07.06-.12.12-.12h20.25c.07 0 .12.06.12.12v20.38ZM18.66 3.47H5.43c-1.03 0-1.87.84-1.87 1.87v4.65h16.98V5.34c0-1.03-.84-1.87-1.87-1.87Zm.12 4.77H5.3v-2.9c0-.07.06-.12.12-.12h13.23c.07 0 .12.06.12.12v2.9ZM4.41 11.76h1.75v1.75H4.41zm3.5 0h1.75v1.75H7.91zm3.5 0h1.75v1.75h-1.75zm3.5 0h1.75v1.75h-1.75zm3.5 0h1.75v1.75h-1.75zm-14 3.5h1.75v1.75H4.41zm3.5 0h1.75v1.75H7.91zm3.5 0h1.75v1.75h-1.75zm3.5 0h1.75v1.75h-1.75zm-10.5 3.51h1.75v1.75H4.41zm3.5 0h1.75v1.75H7.91zm3.5 0h1.75v1.75h-1.75zm3.5 0h1.75v1.75h-1.75zm3.5-3.54h1.75v5.34h-1.75z"/>
</svg>
