<svg viewBox="0 0 48 48" xmlns="http://www.w3.org/2000/svg">
  <path d="M40.53 8.26v7.04H7.51V8.26c0-.41.34-.75.75-.75h31.52c.41 0 .75.34.75.75M48 3.24v44.75H0V3.24C0 1.45 1.46 0 3.25 0h41.5C46.54 0 48 1.46 48 3.25ZM7.51 40.05h-2.5v2.5h2.5zm0-4.85h-2.5v2.5h2.5zm0-5h-2.5v2.5h2.5zm0-5h-2.5v2.5h2.5zm0-5h-2.5v2.5h2.5zm5 19.85h-2.5v2.5h2.5zm0-4.85h-2.5v2.5h2.5zm0-5h-2.5v2.5h2.5zm0-5h-2.5v2.5h2.5zm0-5h-2.5v2.5h2.5zm5 19.85h-2.5v2.5h2.5zm0-4.85h-2.5v2.5h2.5zm0-5h-2.5v2.5h2.5zm0-5h-2.5v2.5h2.5zm0-5h-2.5v2.5h2.5zm5 19.85h-2.5v2.5h2.5zm0-4.85h-2.5v2.5h2.5zm0-5h-2.5v2.5h2.5zm0-5h-2.5v2.5h2.5zm0-5h-2.5v2.5h2.5zm5 19.85h-2.5v2.5h2.5zm0-4.85h-2.5v2.5h2.5zm0-5h-2.5v2.5h2.5zm0-5h-2.5v2.5h2.5zm0-5h-2.5v2.5h2.5zm5 19.85h-2.5v2.5h2.5zm0-4.85h-2.5v2.5h2.5zm0-5h-2.5v2.5h2.5zm0-5h-2.5v2.5h2.5zm0-5h-2.5v2.5h2.5zm5 19.85h-2.5v2.5h2.5zm0-4.85h-2.5v2.5h2.5zm0-5h-2.5v2.5h2.5zm0-5h-2.5v2.5h2.5zm0-5h-2.5v2.5h2.5zm5 9.52h-2.5v12.71h2.5zm0-4.52h-2.5v2.5h2.5zm0-5h-2.5v2.5h2.5zm.52-11.94c0-1.79-1.46-3.25-3.25-3.25H8.26c-1.79 0-3.25 1.46-3.25 3.25v9.54h38.02z"/>
</svg>
