<svg viewBox="0 0 64 64" xmlns="http://www.w3.org/2000/svg">
  <path d="M55.73 9.63v9.59H8.24V9.63c0-.76.62-1.38 1.38-1.38h44.74c.76 0 1.38.62 1.38 1.38ZM64 4.12v59.87H0V4.12C0 1.84 1.85 0 4.13 0h55.75c2.27 0 4.13 1.85 4.13 4.13ZM11.38 53.88H8.63v2.75h2.75zm0-5.52H8.63v2.75h2.75zm0-5.52H8.63v2.75h2.75zm0-5.52H8.63v2.75h2.75zm0-5.52H8.63v2.75h2.75zm0-5.52H8.63v2.75h2.75zm5.5 27.6h-2.75v2.75h2.75zm0-5.52h-2.75v2.75h2.75zm0-5.52h-2.75v2.75h2.75zm0-5.52h-2.75v2.75h2.75zm0-5.52h-2.75v2.75h2.75zm0-5.52h-2.75v2.75h2.75zm5.5 27.6h-2.75v2.75h2.75zm0-5.52h-2.75v2.75h2.75zm0-5.52h-2.75v2.75h2.75zm0-5.52h-2.75v2.75h2.75zm0-5.52h-2.75v2.75h2.75zm0-5.52h-2.75v2.75h2.75zm5.5 27.6h-2.75v2.75h2.75zm0-5.52h-2.75v2.75h2.75zm0-5.52h-2.75v2.75h2.75zm0-5.52h-2.75v2.75h2.75zm0-5.52h-2.75v2.75h2.75zm0-5.52h-2.75v2.75h2.75zm5.5 27.6h-2.75v2.75h2.75zm0-5.52h-2.75v2.75h2.75zm0-5.52h-2.75v2.75h2.75zm0-5.52h-2.75v2.75h2.75zm0-5.52h-2.75v2.75h2.75zm0-5.52h-2.75v2.75h2.75zm5.5 27.6h-2.75v2.75h2.75zm0-5.52h-2.75v2.75h2.75zm0-5.52h-2.75v2.75h2.75zm0-5.52h-2.75v2.75h2.75zm0-5.52h-2.75v2.75h2.75zm0-5.52h-2.75v2.75h2.75zm5.5 27.6h-2.75v2.75h2.75zm0-5.52h-2.75v2.75h2.75zm0-5.52h-2.75v2.75h2.75zm0-5.52h-2.75v2.75h2.75zm0-5.52h-2.75v2.75h2.75zm0-5.52h-2.75v2.75h2.75zm5.5 27.6h-2.75v2.75h2.75zm0-5.52h-2.75v2.75h2.75zm0-5.52h-2.75v2.75h2.75zm0-5.52h-2.75v2.75h2.75zm0-5.52h-2.75v2.75h2.75zm0-5.52h-2.75v2.75h2.75zm5.5 16.56h-2.75v14.1h2.75zm0-5.52h-2.75v2.75h2.75zm0-5.52h-2.75v2.75h2.75zm0-5.52h-2.75v2.75h2.75zm3.1-16.65c0-2.27-1.85-4.12-4.12-4.12H9.62c-2.27 0-4.12 1.85-4.12 4.12v12.34h52.99V9.63Z"/>
</svg>
