<svg viewBox="0 0 40 40" xmlns="http://www.w3.org/2000/svg">
  <path d="M33.22 7.88v5.2H6.75v-5.2c0-.62.51-1.13 1.13-1.13h24.21c.62 0 1.13.51 1.13 1.13M40 3.38V40H0V3.38C0 1.51 1.51 0 3.38 0h33.25c1.86 0 3.38 1.51 3.38 3.38ZM7.61 31.63H5.36v2.25h2.25zm0-4.51H5.36v2.25h2.25zm0-4.5H5.36v2.25h2.25zm0-4.51H5.36v2.25h2.25zm4.5 13.52H9.86v2.25h2.25zm0-4.51H9.86v2.25h2.25zm0-4.5H9.86v2.25h2.25zm0-4.51H9.86v2.25h2.25zm4.5 13.52h-2.25v2.25h2.25zm0-4.51h-2.25v2.25h2.25zm0-4.5h-2.25v2.25h2.25zm0-4.51h-2.25v2.25h2.25zm4.5 13.52h-2.25v2.25h2.25zm0-4.51h-2.25v2.25h2.25zm0-4.5h-2.25v2.25h2.25zm0-4.51h-2.25v2.25h2.25zm4.5 13.52h-2.25v2.25h2.25zm0-4.51h-2.25v2.25h2.25zm0-4.5h-2.25v2.25h2.25zm0-4.51h-2.25v2.25h2.25zm4.5 13.52h-2.25v2.25h2.25zm0-4.51h-2.25v2.25h2.25zm0-4.5h-2.25v2.25h2.25zm0-4.51h-2.25v2.25h2.25zm4.5 9.02h-2.25v6.8h2.25zm0-4.51h-2.25v2.25h2.25zm0-4.51h-2.25v2.25h2.25zm.86-10.23c0-1.86-1.51-3.38-3.38-3.38H7.88C6.02 4.5 4.5 6.01 4.5 7.88v7.45h30.97z"/>
</svg>
