<svg viewBox="0 0 64 64" xmlns="http://www.w3.org/2000/svg">
  <path d="M59.91 0H4.16C1.89 0 .04 1.85.04 4.12v59.87h64V4.12A4.13 4.13 0 0 0 59.91 0m1.38 61.25H2.79V4.12c0-.76.62-1.38 1.38-1.38h55.75c.76 0 1.38.62 1.38 1.38v57.12ZM54.4 5.5H9.65c-2.27 0-4.13 1.85-4.13 4.13v12.34h53V9.63c0-2.27-1.85-4.13-4.13-4.13Zm1.38 13.72H8.27V9.63c0-.76.62-1.38 1.38-1.38H54.4c.76 0 1.38.62 1.38 1.38zM8.66 26.28h2.75v2.75H8.66zm0 5.52h2.75v2.75H8.66zm0 5.52h2.75v2.75H8.66zm0 5.52h2.75v2.75H8.66zm0 5.53h2.75v2.75H8.66zm0 5.52h2.75v2.75H8.66zm5.5-27.61h2.75v2.75h-2.75zm0 5.52h2.75v2.75h-2.75zm0 5.52h2.75v2.75h-2.75zm0 5.52h2.75v2.75h-2.75zm0 5.53h2.75v2.75h-2.75zm0 5.52h2.75v2.75h-2.75zm5.5-27.61h2.75v2.75h-2.75zm0 5.52h2.75v2.75h-2.75zm0 5.52h2.75v2.75h-2.75zm0 5.52h2.75v2.75h-2.75zm0 5.53h2.75v2.75h-2.75zm0 5.52h2.75v2.75h-2.75zm5.5-27.61h2.75v2.75h-2.75zm0 5.52h2.75v2.75h-2.75zm0 5.52h2.75v2.75h-2.75zm0 5.52h2.75v2.75h-2.75zm0 5.53h2.75v2.75h-2.75zm0 5.52h2.75v2.75h-2.75zm5.5-27.61h2.75v2.75h-2.75zm0 5.52h2.75v2.75h-2.75zm0 5.52h2.75v2.75h-2.75zm0 5.52h2.75v2.75h-2.75zm0 5.53h2.75v2.75h-2.75zm0 5.52h2.75v2.75h-2.75zm5.5-27.61h2.75v2.75h-2.75zm0 5.52h2.75v2.75h-2.75zm0 5.52h2.75v2.75h-2.75zm0 5.52h2.75v2.75h-2.75zm0 5.53h2.75v2.75h-2.75zm0 5.52h2.75v2.75h-2.75zm5.5-27.61h2.75v2.75h-2.75zm0 5.52h2.75v2.75h-2.75zm0 5.52h2.75v2.75h-2.75zm0 5.52h2.75v2.75h-2.75zm0 5.53h2.75v2.75h-2.75zm0 5.52h2.75v2.75h-2.75zm5.51-27.61h2.75v2.75h-2.75zm0 5.52h2.75v2.75h-2.75zm0 5.52h2.75v2.75h-2.75zm5.5 0h2.75v2.75h-2.75zm-5.5 5.52h2.75v2.75h-2.75zm0 5.53h2.75v2.75h-2.75zm0 5.52h2.75v2.75h-2.75zm5.5-27.61h2.75v2.75h-2.75zm0 5.52h2.75v2.75h-2.75zm0 11.05h2.75v14.1h-2.75z"/>
</svg>
