<svg viewBox="0 0 16 16" xmlns="http://www.w3.org/2000/svg">
  <path d="M0 0v13.75C0 14.99 1.01 16 2.25 16h11.5c1.24 0 2.25-1.01 2.25-2.25V0zm3.11 1.5v1.32h1.5V1.5h6.79v1.32h1.5V1.5h1.61v2.59H1.5V1.5zm10.64 13H2.25c-.41 0-.75-.34-.75-.75V5.59h13v8.16c0 .41-.34.75-.75.75m-6.14-3.74c0 .79-.61 1.32-1.7 1.32-.59 0-.98-.13-1.28-.25v-.93c.34.17.74.32 1.19.32.4 0 .73-.1.73-.41 0-.19-.13-.29-.6-.44l-.32-.1c-.73-.23-1.05-.59-1.05-1.17 0-.8.66-1.3 1.7-1.3.36 0 .7.06 1.06.17v.92c-.34-.15-.65-.24-1.06-.24s-.65.1-.65.36c0 .19.16.3.51.41l.34.1c.76.23 1.15.58 1.15 1.24Zm1.55-2.89-1.45 4.14h1.11l.29-.95h1.43l.29.95h1.15l-1.46-4.14zm.22 2.35.46-1.46.45 1.46z"/>
</svg>
