<svg viewBox="0 0 64 64" xmlns="http://www.w3.org/2000/svg">
  <path d="m39.53 35.17 1.8 5.86H37.7zM64 17.28V0H50.88v3.92h-2.75V0H15.88v3.92h-2.75V0H0v17.28zm0 2.75v39.84c0 2.28-1.85 4.13-4.13 4.13H4.13C1.85 64 0 62.15 0 59.87V20.03zM30.62 43.21c0-2.62-1.58-4.01-4.61-4.95l-1.35-.41c-1.42-.43-2.04-.86-2.04-1.63 0-1.03 1.06-1.44 2.62-1.44s2.86.36 4.23.96v-3.67c-1.42-.46-2.79-.7-4.23-.7-4.13 0-6.8 1.97-6.8 5.19 0 2.35 1.3 3.77 4.23 4.71l1.3.41c1.87.6 2.4 1.03 2.4 1.78 0 1.22-1.34 1.63-2.93 1.63-1.8 0-3.39-.62-4.76-1.3v3.72c1.2.48 2.76.98 5.12.98 4.39 0 6.82-2.11 6.82-5.28m17.48 5-5.84-16.57h-5.45l-5.79 16.57h4.44l1.18-3.79h5.72l1.15 3.79z"/>
</svg>
