<svg viewBox="0 0 24 24" xmlns="http://www.w3.org/2000/svg">
  <path d="M0 0v21.37C0 22.82 1.18 24 2.63 24h18.75c1.45 0 2.63-1.18 2.63-2.63V0zm4.78 1.76v2.3h1.75v-2.3h10.93v2.3h1.75v-2.3h3.03v4.9H1.75v-4.9h3.04Zm16.59 20.49H2.62c-.48 0-.88-.39-.88-.88V8.42h20.5v12.95c0 .48-.39.88-.88.88Zm-6.12-9.96 3.41 3.42-3.41 3.42a.87.87 0 0 1-1.24 0 .88.88 0 0 1 0-1.24l1.3-1.3H8.63l1.3 1.3a.881.881 0 0 1-.62 1.5c-.22 0-.45-.09-.62-.26l-3.41-3.42 3.41-3.42c.34-.34.9-.34 1.24 0s.34.9 0 1.24l-1.3 1.3h6.68l-1.3-1.3a.88.88 0 0 1 0-1.24c.34-.34.9-.34 1.24 0"/>
</svg>
