<svg viewBox="0 0 48 48" xmlns="http://www.w3.org/2000/svg">
  <path d="M0 0v44.25C0 46.32 1.68 48 3.75 48h40.5c2.07 0 3.75-1.68 3.75-3.75V0zm9.74 2.5v2.96h2.5V2.5h23.5v2.96h2.5V2.5h7.25v10.34h-43V2.5zm34.5 43H3.74c-.69 0-1.25-.56-1.25-1.25V15.34h43v28.91c0 .69-.56 1.25-1.25 1.25M24.16 26.48l4.27-.44c-1.34-1.36-3.08-2.1-4.95-2.1-3.8 0-6.89 3.09-6.89 6.89s3.09 6.89 6.89 6.89c3.37 0 6.22-2.41 6.79-5.72l2.47.42a9.36 9.36 0 0 1-9.26 7.8c-5.18 0-9.39-4.21-9.39-9.39s4.21-9.39 9.39-9.39c2.51 0 4.85.98 6.62 2.74l-.36-3.53c-.07-.69.43-1.3 1.11-1.37.69-.08 1.3.43 1.37 1.11l.79 7.68-8.6.89h-.13a1.248 1.248 0 0 1-.12-2.49Z"/>
</svg>
