<svg viewBox="0 0 40 40" xmlns="http://www.w3.org/2000/svg">
  <path d="M0 0v36.63C0 38.49 1.51 40 3.37 40h33.25c1.86 0 3.37-1.51 3.37-3.37V0zm8.09 2.25v2.77h2.25V2.25h19.32v2.77h2.25V2.25h5.84v8.4H2.25v-8.4zm28.54 35.5H3.38c-.62 0-1.12-.5-1.12-1.12V12.9h35.5v23.72c0 .62-.5 1.12-1.12 1.12ZM19.04 27.14c0 1.98-1.51 3.3-4.26 3.3-1.47 0-2.45-.31-3.19-.61v-2.32c.86.42 1.85.81 2.97.81.99 0 1.83-.25 1.83-1.02 0-.46-.33-.74-1.5-1.11l-.81-.25c-1.83-.58-2.64-1.47-2.64-2.94 0-2.01 1.66-3.24 4.24-3.24.9 0 1.75.15 2.64.44v2.29c-.86-.37-1.63-.6-2.64-.6s-1.64.25-1.64.9c0 .48.39.75 1.28 1.02l.84.25c1.89.58 2.88 1.45 2.88 3.09Zm3.87-7.22L19.3 30.27h2.78l.74-2.37h3.57l.72 2.37h2.86l-3.64-10.35h-3.4Zm.55 5.86 1.14-3.66 1.12 3.66h-2.27Z"/>
</svg>
