<svg viewBox="0 0 32 32" xmlns="http://www.w3.org/2000/svg">
  <path d="M0 0v29c0 1.65 1.35 3 3 3h26c1.65 0 3-1.35 3-3V0zm6.42 2v2.49h2V2h15.14v2.49h2V2h4.43v6.46h-28V2zm22.57 28h-26c-.55 0-1-.45-1-1V10.47h28V29c0 .55-.45 1-1 1M16.08 17.49l2.45-.25c-.82-.71-1.82-1.1-2.89-1.1-2.44 0-4.42 1.98-4.42 4.42s1.99 4.42 4.42 4.42c2.16 0 4-1.55 4.36-3.67l1.97.34a6.41 6.41 0 0 1-6.33 5.34c-3.54 0-6.43-2.88-6.43-6.42s2.88-6.42 6.43-6.42c1.57 0 3.04.56 4.2 1.57l-.2-1.91a1 1 0 0 1 .89-1.1c.55-.05 1.04.34 1.1.89l.55 5.29-5.9.61h-.1a.99.99 0 0 1-.99-.9 1 1 0 0 1 .89-1.1Z"/>
</svg>
