<svg viewBox="0 0 48 48" xmlns="http://www.w3.org/2000/svg">
  <path d="M0 0v44.25C0 46.32 1.68 48 3.75 48h40.5c2.07 0 3.75-1.68 3.75-3.75V0zm9.75 2.5v2.96h2.5V2.5h23.5v2.96h2.5V2.5h7.25v10.34h-43V2.5zm34.5 43H3.75c-.69 0-1.25-.56-1.25-1.25V15.34h43v28.91c0 .69-.56 1.25-1.25 1.25M22.94 32.54c0 2.38-1.82 3.96-5.12 3.96-1.77 0-2.94-.38-3.84-.74v-2.79c1.03.51 2.22.97 3.57.97 1.19 0 2.2-.31 2.2-1.23 0-.56-.4-.88-1.8-1.33l-.97-.31c-2.2-.7-3.17-1.77-3.17-3.53 0-2.41 2-3.89 5.1-3.89 1.08 0 2.11.18 3.17.52v2.76c-1.03-.45-1.96-.72-3.17-.72s-1.96.31-1.96 1.08c0 .58.47.9 1.53 1.22l1.01.31c2.27.7 3.46 1.75 3.46 3.71Zm4.64-8.68-4.34 12.43h3.33l.88-2.85h4.29l.86 2.85h3.44l-4.38-12.43h-4.09Zm.67 7.04 1.37-4.4 1.35 4.4z"/>
</svg>
