<svg viewBox="0 0 24 24" xmlns="http://www.w3.org/2000/svg">
  <path d="m14.76 13.11.68 2.2h-1.36zM24 6.28V0h-4.77v2.59h-1.75V0H6.52v2.59H4.77V0H0v6.28zm0 1.75v13.35c0 1.45-1.18 2.63-2.63 2.63H2.63A2.65 2.65 0 0 1 0 21.37V8.02h24Zm-12.58 8.1c0-.98-.59-1.5-1.73-1.86l-.5-.15c-.53-.16-.76-.32-.76-.61 0-.39.4-.54.98-.54s1.07.13 1.59.36v-1.38c-.53-.17-1.04-.26-1.59-.26-1.55 0-2.55.74-2.55 1.95 0 .88.49 1.41 1.58 1.77l.49.15c.7.23.9.39.9.67 0 .46-.51.61-1.1.61-.68 0-1.27-.23-1.78-.49v1.4c.45.18 1.04.37 1.92.37 1.65 0 2.56-.79 2.56-1.98ZM17.98 18l-2.19-6.21h-2.04L11.58 18h1.67l.44-1.42h2.14l.43 1.42z"/>
</svg>
