<svg viewBox="0 0 24 24" xmlns="http://www.w3.org/2000/svg">
  <path d="M0 0v21.37C0 22.82 1.18 24 2.63 24h18.75c1.45 0 2.63-1.18 2.63-2.63V0zm4.76 1.75v1.71h1.75V1.75h10.96v1.71h1.75V1.75h3.02v4.53H1.74V1.75zm16.61 20.5H2.62c-.48 0-.88-.39-.88-.88V8.02h20.5v13.35c0 .48-.39.88-.88.88Zm-9.3-9.26 1.55-.16c-.55-.4-1.19-.61-1.86-.61-1.76 0-3.19 1.43-3.19 3.19S10 18.6 11.76 18.6a3.19 3.19 0 0 0 3.15-2.65l1.73.3a4.94 4.94 0 0 1-4.87 4.11c-2.73 0-4.94-2.22-4.94-4.94s2.22-4.94 4.94-4.94c1.11 0 2.14.38 3 1.04l-.12-1.16c-.05-.48.3-.91.78-.96.47-.04.91.3.96.78l.42 4.09-4.55.47h-.09c-.44 0-.82-.34-.87-.79-.05-.48.3-.91.78-.96Z"/>
</svg>
