<svg viewBox="0 0 16 16" xmlns="http://www.w3.org/2000/svg">
  <path d="m9.84 8.74.45 1.46h-.91zM16 4.09V0h-3.11v2.07h-1.5V0H4.6v2.07H3.1V0H0v4.09zm0 1.5v8.16c0 1.24-1.01 2.25-2.25 2.25H2.25C1.01 16 0 14.99 0 13.75V5.59zm-8.39 5.16c0-.65-.4-1-1.15-1.24l-.34-.1c-.35-.11-.51-.22-.51-.41 0-.26.26-.36.65-.36s.71.09 1.06.24v-.92c-.35-.11-.7-.17-1.06-.17-1.03 0-1.7.49-1.7 1.3 0 .59.32.94 1.05 1.17l.32.1c.47.15.6.26.6.44 0 .31-.34.41-.73.41-.45 0-.85-.16-1.19-.32v.93c.3.12.69.25 1.28.25 1.1 0 1.7-.53 1.7-1.32ZM11.98 12l-1.46-4.14H9.16L7.71 12h1.11l.29-.95h1.43l.29.95z"/>
</svg>
