<svg viewBox="0 0 64 64" xmlns="http://www.w3.org/2000/svg">
  <path d="M0 0v59.87C0 62.15 1.85 64 4.13 64h55.75c2.28 0 4.13-1.85 4.13-4.13V0zm13.12 2.75v2.56h2.75V2.75h32.25v2.56h2.75V2.75h10.37v14.53H2.74V2.75h10.37Zm46.75 58.5H4.12c-.76 0-1.38-.62-1.38-1.38V20.03h58.5v39.84c0 .76-.62 1.38-1.38 1.38ZM32.25 35.6l6.32-.65-.44-.41c-1.84-1.88-4.25-2.9-6.82-2.9-5.22 0-9.48 4.25-9.48 9.48s4.25 9.48 9.48 9.48c4.64 0 8.56-3.31 9.34-7.87l2.71.46c-1 5.89-6.07 10.16-12.05 10.16-6.74 0-12.23-5.49-12.23-12.23s5.49-12.23 12.23-12.23c3.32 0 6.43 1.31 8.75 3.69l.45.42-.57-5.49c-.08-.76.47-1.43 1.23-1.51.75-.07 1.43.47 1.51 1.23l1.03 9.96-11.18 1.15h-.14c-.7 0-1.29-.53-1.37-1.23-.08-.76.47-1.43 1.23-1.51"/>
</svg>
