<svg viewBox="0 0 48 48" xmlns="http://www.w3.org/2000/svg">
  <path d="M0 15.34v28.91C0 46.32 1.68 48 3.75 48h40.5c2.07 0 3.75-1.68 3.75-3.75V15.34zM23.48 25.7c-3.8 0-6.89 3.09-6.89 6.89s3.09 6.89 6.89 6.89c3.37 0 6.23-2.41 6.79-5.72l2.47.42a9.36 9.36 0 0 1-9.26 7.8c-5.18 0-9.39-4.21-9.39-9.39s4.21-9.39 9.39-9.39c2.51 0 4.85.98 6.62 2.74l-.36-3.53a1.247 1.247 0 0 1 2.48-.26l.79 7.68-8.6.89h-.13a1.248 1.248 0 0 1-.12-2.49l4.27-.44c-1.34-1.36-3.08-2.1-4.95-2.1ZM0 12.84V0h9.75v4.18h2.5V0h23.5v4.18h2.5V0H48v12.84z"/>
</svg>
