<svg viewBox="0 0 64 64" xmlns="http://www.w3.org/2000/svg">
  <path d="M64 18.44h-.02V0H.02v18.44H0v2.75h.02v38.68C.02 62.14 1.87 64 4.15 64h55.72c2.28 0 4.13-1.85 4.13-4.13V21.19h.02v-2.75ZM2.77 2.75h10.37v4.8h2.75v-4.8h32.23v4.8h2.75v-4.8h10.37v15.69H2.77zm58.46 57.12c0 .76-.62 1.38-1.38 1.38H4.14c-.76 0-1.38-.62-1.38-1.38V21.19h58.47zm-36.31-8.94-8.68-8.66 8.68-8.66c.54-.54 1.41-.54 1.95 0s.54 1.41 0 1.95l-5.35 5.34h20.97l-5.35-5.34c-.54-.54-.54-1.41 0-1.95s1.41-.54 1.95 0l8.68 8.66-8.68 8.66c-.27.27-.62.4-.97.4s-.71-.13-.97-.4c-.54-.54-.54-1.41 0-1.95l5.35-5.34H21.53l5.35 5.34a1.376 1.376 0 0 1-1.94 1.95Z"/>
</svg>
