<svg viewBox="0 0 24 24" xmlns="http://www.w3.org/2000/svg">
  <path fill="#1e1e1c" d="M6.85 20.99v-1.75H8.6v1.75zm6.93-3.49-.75.43h.75v3.42c0 .48-.39.87-.87.87H2.55a.87.87 0 0 1-.87-.87v-3.42h9.41v-1.75H1.68V2.59c0-.48.39-.87.87-.87h10.36c.19 0 .35.07.5.17h2.02C15.11.78 14.11-.03 12.91-.03H2.55C1.1-.03-.07 1.14-.07 2.59v18.76c0 1.44 1.17 2.62 2.62 2.62h10.36c1.44 0 2.62-1.17 2.62-2.62V16.5zM23.93 4.74v7.47c0 1.09-.89 1.98-1.98 1.98h-4.14l-5.84 3.34.03-3.34h-1.36c-1.09 0-1.98-.89-1.98-1.98V4.74c0-1.09.89-1.98 1.98-1.98h11.32c1.09 0 1.98.89 1.98 1.98Zm-1.75 0c0-.13-.11-.23-.23-.23H10.63c-.13 0-.23.11-.23.23v7.47c0 .13.11.23.23.23h3.12l-.02 2.06 3.61-2.06h4.61c.13 0 .23-.11.23-.23zm-5.02 1.23h-1.75v1.47h-1.47v1.75h1.47v1.47h1.75V9.19h1.47V7.44h-1.47z"/>
</svg>
