<svg viewBox="0 0 32 32" xmlns="http://www.w3.org/2000/svg">
  <path fill="#1e1e1c" d="M15.35 22.31H.01V3c0-1.66 1.35-3 3.01-3h14.67c1.42 0 2.6.99 2.91 2.31h-6.22c-1.92 0-3.48 1.56-3.48 3.48v10.5c0 1.92 1.56 3.48 3.48 3.48h.98l-.02 2.55Zm.9 2.01h4.44V29c0 1.66-1.35 3-3 3H3.02a3.01 3.01 0 0 1-3.01-3v-4.68h15.32v.53zm-4.9 1.66h-2v2h2zM32.01 5.79v10.5a2.48 2.48 0 0 1-2.48 2.48h-5.58l-7.6 4.35.03-4.35h-1.99a2.48 2.48 0 0 1-2.48-2.48V5.79a2.48 2.48 0 0 1 2.48-2.48h15.14a2.48 2.48 0 0 1 2.48 2.48m-6.92 4.06h-2v-2h-2.25v2h-2v2.25h2v2h2.25v-2h2z"/>
</svg>
