<svg viewBox="0 0 64 64" xmlns="http://www.w3.org/2000/svg">
  <path fill="#1e1e1c" d="M0 59.87a4.13 4.13 0 0 0 4.13 4.12h32.63c2.27 0 4.13-1.85 4.13-4.12v-7.19H0zm19.07-4.12h2.75v2.75h-2.75zm13.49-8.25 8.33-4.76v7.19H0V4.12A4.13 4.13 0 0 1 4.13 0h32.63c2.27 0 4.13 1.85 4.13 4.12v1.75H29.41c-3.15 0-5.71 2.56-5.71 5.71v20.98c0 3.15 2.56 5.71 5.71 5.71h3.22zM59.67 7.24H29.4c-2.39 0-4.33 1.94-4.33 4.33v20.98c0 2.39 1.94 4.33 4.33 4.33H34l-.06 8.23 14.4-8.23h11.33c2.39 0 4.33-1.94 4.33-4.33V11.58c0-2.39-1.94-4.33-4.33-4.33ZM50.8 23.95h-4.26v4.25h-4v-4.25h-4.26v-4h4.26V15.7h4v4.25h4.26z"/>
</svg>
