<svg viewBox="0 0 40 40" xmlns="http://www.w3.org/2000/svg">
  <path d="M38.7 28.03c-.79-.93-4.86-5.62-7.04-6.35-2.98-1-4.85.99-6.36 2.58-.33.35-.65.69-.97.99-.89-.47-1.76-1.05-2.7-1.77-2.49-1.91-4.91-4.51-6.31-6.78l-.06-.09c-.24-.38-.4-.66-.51-.85.03-.03.07-.06.09-.08l.51-.49c2.19-2.1 5.18-4.97 1.61-8.97l-4.59-4.6C11.39.75 10.17-.16 8.2.04c-2.03.21-4.31 2.5-6.07 4.48-3.18 3.56-2.2 7.8-.82 11.49 2.87 7.66 9.38 15.27 17 19.86 3.44 2.07 7.85 4.15 11.71 4.15 1.44 0 2.81-.29 4.02-.98 1.4-.8 3.98-3.61 4.55-4.26 1.85-2.14 1.89-4.66.12-6.74Zm-1.82 5.27c-1.03 1.19-3.14 3.31-3.96 3.78-3.81 2.18-10.68-1.47-13.46-3.14-7.09-4.27-13.39-11.62-16.05-18.72-1.2-3.21-1.98-6.54.4-9.2C6.6 2.89 7.9 2.34 8.43 2.28c1-.1 1.57.25 2.4.98l4.5 4.49c2 2.24.98 3.4-1.53 5.8l-.5.48-.09.07c-.29.21-.97.7-.88 1.55.05.44.3.96 1.03 2.14l.05.08c1.56 2.52 4.12 5.28 6.85 7.38 1.27.98 2.5 1.75 3.75 2.34l.62.3.55-.42c.64-.49 1.21-1.09 1.76-1.67 1.48-1.57 2.46-2.5 4.01-1.99 1.18.39 4.24 3.55 6.05 5.68 1.07 1.25 1.03 2.49-.11 3.81Z"/>
</svg>
