<svg viewBox="0 0 32 32" xmlns="http://www.w3.org/2000/svg">
  <path d="M30.83 27.78c-.45.52-2.51 2.76-3.64 3.41-.98.56-2.08.79-3.25.79-3.09 0-6.62-1.66-9.36-3.31-6.07-3.66-11.27-9.73-13.55-15.84C-.08 9.89-.86 6.48 1.7 3.6 3.12 2.02 4.95.18 6.6.01 8.2-.16 9.2.59 10 1.29l3.66 3.64c2.91 3.26.49 5.59-1.28 7.28l-.4.39-.01.01c.08.15.2.34.36.6 1.16 1.87 3.07 3.92 5.03 5.44.72.55 1.39.99 2.06 1.36.23-.22.47-.47.71-.73 1.15-1.22 2.73-2.89 5.16-2.08 1.77.59 5.01 4.33 5.65 5.08 1.45 1.69 1.41 3.75-.09 5.49Z"/>
</svg>
