<svg viewBox="0 0 64 64" xmlns="http://www.w3.org/2000/svg">
  <path fill="#1e1e1c" d="M19.03 55.76h2.75v2.75h-2.75zm19.06-11.44 2.75-1.57v17.13A4.13 4.13 0 0 1 36.71 64H4.09c-2.27 0-4.13-1.85-4.13-4.12V4.13C-.04 1.85 1.81 0 4.09 0h32.63c2.27 0 4.13 1.85 4.13 4.12v1.75H38.1V4.12c0-.76-.62-1.37-1.38-1.37H4.09c-.76 0-1.38.62-1.38 1.37v45.81h35.38v-5.62Zm0 15.56v-7.19H2.71v7.19c0 .76.62 1.37 1.38 1.37h32.63c.76 0 1.38-.62 1.38-1.37Zm25.87-48.29v20.98c0 2.39-1.94 4.33-4.33 4.33H48.3l-14.4 8.23.06-8.23h-4.6c-2.39 0-4.33-1.94-4.33-4.33V11.59c0-2.39 1.94-4.33 4.33-4.33h30.27c2.39 0 4.33 1.94 4.33 4.33m-2.75 0c0-.87-.71-1.58-1.58-1.58H29.36c-.87 0-1.58.71-1.58 1.58v20.98c0 .87.71 1.58 1.58 1.58h7.37l-.05 6.22 10.88-6.22h12.06c.87 0 1.58-.71 1.58-1.58V11.59ZM46.5 15.71h-4v4.25h-4.26v4h4.26v4.25h4v-4.25h4.25v-4H46.5z"/>
</svg>
