<svg viewBox="0 0 40 40" xmlns="http://www.w3.org/2000/svg">
  <path fill="#1e1e1c" d="M13.97 33.59v2.24h-2.25v-2.25h2.25Zm9.5-5.24 2.25-1.29v9.56c0 1.86-1.51 3.38-3.38 3.38H3.35c-1.86 0-3.38-1.51-3.38-3.38V3.38C-.03 1.51 1.48 0 3.35 0h19c1.78 0 3.23 1.39 3.35 3.14h-2.28c-.11-.5-.54-.89-1.08-.89H3.35c-.62 0-1.13.51-1.13 1.13v25.86H19.5v1.38l2.41-1.38h1.56zm0 8.27v-5.14H2.22v5.14c0 .62.51 1.13 1.13 1.13h19c.62 0 1.13-.51 1.13-1.13Zm16.5-29.38v13.12c0 1.64-1.34 2.98-2.98 2.98h-7.01l-9.34 5.34.04-5.34h-2.61c-1.64 0-2.98-1.33-2.98-2.98V7.24c0-1.64 1.34-2.97 2.98-2.97H37c1.64 0 2.98 1.33 2.98 2.97Zm-2.25 0c0-.4-.32-.72-.72-.72H18.07c-.4 0-.72.32-.72.72v13.12c0 .4.32.72.72.72h4.88l-.03 3.69 6.47-3.69H37c.4 0 .72-.33.72-.72zm-8.69 2.57h-3v2.41h-2.41v3h2.41v2.41h3v-2.41h2.41v-3h-2.41z"/>
</svg>
