<svg viewBox="0 0 64 64" xmlns="http://www.w3.org/2000/svg">
  <path d="M62 45.32c-.78-.92-7.72-8.99-11.23-10.17-4.55-1.52-7.48 1.58-9.84 4.07-.62.66-1.22 1.3-1.83 1.84-1.56-.81-3.09-1.79-4.73-3.06-4.07-3.14-8.04-7.41-10.34-11.13l-.09-.15c-.54-.87-.85-1.42-1.02-1.73.16-.12.31-.24.42-.34l.83-.8c3.61-3.46 8.1-7.76 2.6-13.92l-7.44-7.42C17.81 1.15 15.91-.26 12.91.05 9.78.37 6.16 4.03 3.35 7.17c-5 5.6-3.44 12.34-1.25 18.19 4.62 12.35 15.11 24.62 27.39 32.01 4.63 2.79 12.22 6.64 18.84 6.64 2.24 0 4.36-.44 6.23-1.51 2.06-1.18 6.04-5.41 7.26-6.82 2.89-3.34 2.96-7.12.19-10.36Zm-2.27 8.56c-1.48 1.72-5.04 5.37-6.54 6.23-6.4 3.66-17.71-2.35-22.28-5.1-11.59-6.98-21.89-19-26.23-30.62-2-5.34-3.29-10.9.73-15.39 4.4-4.93 6.66-6.1 7.79-6.22 1.76-.18 2.83.46 4.26 1.72l7.32 7.3c3.51 3.93 1.55 6.15-2.51 10.04l-.83.8s-.11.09-.18.14c-.44.32-1.36.99-1.24 2.1.06.63.47 1.45 1.6 3.27l.09.15c2.51 4.05 6.62 8.49 11 11.86 2.04 1.57 4.01 2.8 6 3.75l.76.36.67-.51c1.01-.77 1.92-1.74 2.8-2.67 2.53-2.68 4.22-4.27 6.97-3.35 2.1.7 7.25 6.11 10.01 9.35 1.87 2.19 1.81 4.47-.18 6.77Z"/>
</svg>
