<svg viewBox="0 0 16 16" xmlns="http://www.w3.org/2000/svg">
  <path fill="#1e1e1c" d="M4.46 13.76v-1.5h1.5v1.5zm4.51.49c0 .14-.11.25-.25.25H1.7c-.14 0-.25-.11-.25-.25v-2.81h5.4v-1.06c-.49 0-.94-.17-1.31-.44H1.45V1.75c0-.14.11-.25.25-.25h4.56c.2-.06.4-.09.61-.09h3.56A1.76 1.76 0 0 0 8.71 0H1.7C.74 0-.05.79-.05 1.75v12.5c0 .97.79 1.75 1.75 1.75h7.01c.97 0 1.75-.79 1.75-1.75v-3.04l-1.5.86v2.18Zm6.98-10.6v4.5c0 .82-.67 1.49-1.49 1.49h-2.73L7.6 11.99l.02-2.35h-.74c-.82 0-1.49-.67-1.49-1.49v-4.5c0-.82.67-1.49 1.49-1.49h7.58c.82 0 1.49.67 1.49 1.49m-1.49 4.48V3.65l-7.58.01v4.49h2.26v1.26l2.2-1.26h3.13ZM11.42 4.3h-1.5v.81H9.1v1.5h.82v.81h1.5v-.81h.82v-1.5h-.82z"/>
</svg>
