<svg viewBox="0 0 32 32" xmlns="http://www.w3.org/2000/svg">
  <path d="M30.93 22.32c-.63-.74-3.88-4.49-5.65-5.08-2.43-.81-4.01.86-5.16 2.08-.24.26-.48.51-.71.73-.68-.37-1.35-.81-2.06-1.36-1.97-1.51-3.88-3.57-5.03-5.44-.16-.26-.28-.45-.36-.6l.01-.01.4-.39c1.77-1.7 4.19-4.02 1.28-7.28L9.99 1.33C9.19.62 8.2-.11 6.59.05 4.94.22 3.11 2.06 1.7 3.64-.86 6.5-.08 9.91 1.03 12.86c2.29 6.11 7.48 12.18 13.55 15.84 2.75 1.65 6.27 3.31 9.36 3.31 1.16 0 2.27-.24 3.25-.79 1.13-.65 3.19-2.89 3.64-3.41 1.51-1.75 1.54-3.8.09-5.49Zm-1.61 4.18c-.82.95-2.49 2.62-3.12 2.98-2.98 1.71-8.4-1.18-10.59-2.49C9.99 23.61 5 17.79 2.9 12.16c-.94-2.52-1.56-5.13.29-7.21 2.19-2.46 3.2-2.89 3.61-2.94.09 0 .17-.01.25-.01.54 0 .95.21 1.57.76l3.57 3.56c1.47 1.64.91 2.44-1.21 4.47l-.46.43c-.24.18-.82.59-.74 1.33.04.37.24.79.88 1.81 1.25 2.02 3.29 4.22 5.47 5.9 1.02.79 2 1.4 3 1.87l.55.26.48-.37c.51-.39.97-.88 1.41-1.34 1.19-1.25 1.92-1.94 3.07-1.56.92.31 3.33 2.8 4.76 4.48.81.94.78 1.89-.09 2.89Z"/>
</svg>
