<svg viewBox="0 0 64 64" xmlns="http://www.w3.org/2000/svg">
  <path d="M61.81 55.66c-1.22 1.41-5.2 5.64-7.26 6.82-1.86 1.07-3.99 1.51-6.23 1.51-6.62 0-14.21-3.85-18.84-6.64C17.21 49.95 6.71 37.69 2.1 25.34-.09 19.48-1.65 12.75 3.35 7.15 6.15 4 9.78.35 12.91.02c3.02-.31 4.9 1.11 6.42 2.46l7.44 7.42c5.49 6.16 1 10.46-2.6 13.92l-.83.8c-.11.1-.25.22-.42.34.17.32.48.86 1.03 1.74l.09.14c2.31 3.73 6.27 7.99 10.34 11.13 1.64 1.26 3.16 2.25 4.73 3.06.6-.54 1.2-1.18 1.83-1.84 2.35-2.49 5.29-5.59 9.84-4.07 3.51 1.18 10.45 9.25 11.23 10.17 2.77 3.24 2.7 7.01-.19 10.36Z"/>
</svg>
