<svg viewBox="0 0 40 40" xmlns="http://www.w3.org/2000/svg">
  <path d="M38.59 34.74c-.56.65-3.14 3.46-4.55 4.26-1.21.69-2.58.98-4.02.98-3.86 0-8.27-2.08-11.71-4.15-7.62-4.57-14.14-12.18-17-19.85-1.38-3.68-2.36-7.92.82-11.48C3.89 2.52 6.17.23 8.2.02c1.97-.21 3.19.71 4.17 1.58l4.6 4.58c3.57 4 .58 6.87-1.61 8.97l-.51.49s-.06.05-.09.08c.11.2.27.47.51.85l.06.09c1.4 2.27 3.82 4.87 6.31 6.78.94.72 1.81 1.29 2.7 1.77.32-.3.64-.64.97-.99 1.51-1.59 3.38-3.58 6.36-2.58 2.19.73 6.25 5.42 7.04 6.35 1.78 2.08 1.73 4.6-.12 6.74Z"/>
</svg>
