<svg viewBox="0 0 16 16" xmlns="http://www.w3.org/2000/svg">
  <path d="M10.82 6.1s-.02 0-.02.01c.17-.45.28-.93.28-1.42 0-1.78-2.8-4.69-2.8-4.69s-2.8 2.91-2.8 4.69c0 .61.16 1.2.41 1.73-.19-.1-.37-.2-.56-.32-.9 0-1.63.73-1.63 1.63V16h8.76V7.73c0-.9-.73-1.63-1.63-1.63ZM8.27 2.31c.73.95 1.3 1.92 1.3 2.39 0 .76-.37 1.44-.8 1.77.05-.21.15-.43.33-.6.3-.28.32-.76.03-1.06a.746.746 0 0 0-1.06-.03c-.4.37-.61.81-.73 1.23a2.4 2.4 0 0 1-.39-1.31c0-.47.58-1.44 1.3-2.39Zm2.68 12.19H5.19V7.76c.92.47 1.87.71 2.83.71s1.96-.24 2.93-.72v6.76Z"/>
</svg>
