<svg viewBox="0 0 48 48" xmlns="http://www.w3.org/2000/svg">
  <path d="M32.47 18.29q-1.11.675-2.22 1.17c1.22-1.76 1.97-3.99 1.97-6.28 0-5.01-7.9-13.2-7.9-13.2s-7.89 8.19-7.89 13.2c0 2.39.81 4.72 2.13 6.5-.87-.38-1.73-.83-2.6-1.4-2.7 0-4.89 2.18-4.89 4.88v24.78h26.28V23.16c0-2.7-2.19-4.88-4.89-4.88ZM24.32 3.72c2.64 3.13 5.39 7.23 5.39 9.46 0 3.36-2.11 6.54-4.55 7.16-.04-1.05.11-2.97 1.49-4.26.5-.47.53-1.26.06-1.77-.47-.5-1.26-.53-1.77-.06-1.92 1.8-2.28 4.23-2.29 5.78-2.07-1.04-3.73-3.88-3.73-6.85 0-2.23 2.76-6.33 5.39-9.46Zm10.54 41.73H13.57V23.17c0-1.11.76-2.04 1.79-2.31 2.82 1.67 5.75 2.52 8.71 2.52s5.97-.85 8.96-2.52a2.37 2.37 0 0 1 1.82 2.31v22.28Z"/>
</svg>
