<svg viewBox="0 0 32 32" xmlns="http://www.w3.org/2000/svg">
  <path d="M24.65 16.46a3.28 3.28 0 0 0-3-1.99c-.47.28-.94.53-1.4.75h-.02c-.46.21-.92.39-1.38.53h-.03c-.45.14-.91.25-1.36.32h-.04c-.14.02-.27.02-.41.03v-.88c2.53-.51 4.48-3.4 4.48-6.43C21.47 5.47 16.21 0 16.21 0s-5.26 5.47-5.26 8.81c0 2.86 1.73 5.6 4.05 6.33v.98c-.1-.01-.2 0-.3-.02h-.04c-.44-.07-.88-.17-1.32-.31 0 0-.02 0-.03-.01-.44-.14-.88-.32-1.32-.53h-.02c-.44-.22-.89-.47-1.33-.75-.22 0-.44.02-.66.07-.85.17-1.58.68-2.04 1.37-.12.17-.22.36-.3.55-.16.39-.26.82-.26 1.27v14.29H24.9V17.76c0-.45-.09-.88-.26-1.27Zm-11.7-7.65c0-1.32 1.64-3.81 3.26-5.79 1.62 1.98 3.26 4.47 3.26 5.79 0 1.98-1.15 3.85-2.53 4.37.03-.69.21-1.64.93-2.32.4-.38.42-1.01.05-1.41-.38-.4-1.01-.42-1.41-.05-1.15 1.07-1.48 2.47-1.56 3.52-1.13-.74-2.01-2.39-2.01-4.11Z"/>
</svg>
