<svg viewBox="0 0 40 40" xmlns="http://www.w3.org/2000/svg">
  <path d="M27.06 18.24c-.29.18-.59.34-.88.5-.11.06-.21.1-.32.16-.19.09-.37.19-.56.28-.13.06-.26.11-.39.17-.16.07-.32.14-.48.2l-.42.15c-.15.05-.3.11-.46.16-.14.04-.28.08-.41.11-.15.04-.3.09-.46.12-.14.03-.27.05-.41.08-.15.03-.3.07-.46.09-.14.02-.28.03-.42.05l-.28.03v-1.3c3.23-.56 5.72-4.22 5.72-8.07.01-4.17-6.56-11-6.56-11s-6.58 6.83-6.58 11.01c0 3.63 2.22 7.1 5.19 7.95v1.4s-.07 0-.11-.01c-.13-.02-.26-.03-.39-.05-.16-.02-.31-.06-.47-.09-.13-.03-.25-.05-.38-.08-.16-.04-.31-.08-.47-.13-.13-.04-.25-.07-.38-.11-.16-.05-.32-.11-.48-.17-.12-.04-.24-.08-.37-.13-.17-.07-.34-.15-.51-.22-.11-.05-.22-.09-.34-.15-.19-.09-.37-.19-.56-.29-.1-.05-.19-.1-.29-.15q-.42-.24-.84-.51c-2.25 0-4.07 1.82-4.07 4.07v17.66h21.9V22.31c0-2.25-1.82-4.07-4.07-4.07Zm-11.12-7.26c0-1.78 2.19-5.06 4.33-7.63 2.14 2.56 4.33 5.84 4.33 7.63 0 2.67-1.64 5.22-3.55 5.78 0-.89.17-2.32 1.22-3.31.45-.43.48-1.14.05-1.59s-1.14-.48-1.59-.05c-1.53 1.44-1.89 3.34-1.93 4.65-1.6-.9-2.86-3.14-2.86-5.48"/>
</svg>
