<svg viewBox="0 0 32 32" xmlns="http://www.w3.org/2000/svg">
  <path d="M21.65 12.22c-.49.3-.99.56-1.48.78a7.46 7.46 0 0 0 1.31-4.19c0-3.34-5.26-8.81-5.26-8.81s-5.26 5.46-5.26 8.81c0 1.59.53 3.13 1.4 4.32-.57-.25-1.15-.54-1.71-.91a3.26 3.26 0 0 0-3.26 3.26v16.54h17.52V15.47c0-1.8-1.46-3.26-3.26-3.26Zm-5.43-9.2c1.62 1.98 3.26 4.47 3.26 5.79 0 1.98-1.15 3.85-2.53 4.37.03-.69.21-1.64.93-2.32.4-.38.42-1.01.05-1.41-.38-.4-1.01-.42-1.41-.05-1.15 1.07-1.49 2.47-1.56 3.52-1.13-.74-2-2.39-2-4.11 0-1.32 1.64-3.81 3.26-5.79m6.68 26.99H9.38V15.47c0-.54.34-1 .82-1.18 1.89 1.1 3.86 1.65 5.85 1.65s4.01-.56 6.01-1.66c.49.17.84.64.84 1.19z"/>
</svg>
