<svg viewBox="0 0 24 24" xmlns="http://www.w3.org/2000/svg">
  <path d="M16.24 9.21c-.11.07-.22.12-.34.18.3-.71.47-1.5.47-2.29 0-2.68-4.21-7.05-4.21-7.05S7.95 4.42 7.95 7.09c0 .83.18 1.65.51 2.39-.16-.09-.32-.17-.48-.27-1.35 0-2.44 1.09-2.44 2.44v12.4h13.14v-12.4c0-1.35-1.09-2.44-2.44-2.44M12.16 2.7c1.33 1.64 2.46 3.47 2.46 4.39 0 1.46-.8 2.83-1.79 3.29.01-.5.13-1.22.67-1.72.35-.33.37-.88.04-1.24a.88.88 0 0 0-1.24-.04c-.9.85-1.15 1.94-1.2 2.76-.79-.6-1.39-1.8-1.39-3.05 0-.92 1.13-2.75 2.46-4.39Zm4.77 19.6H7.29V11.65c0-.26.14-.48.35-.6 1.22.69 2.49 1.07 3.77 1.16q.36.09.75.09c.3 0 .58-.04.86-.12 1.18-.14 2.36-.52 3.54-1.15a.7.7 0 0 1 .37.61v10.65Z"/>
</svg>
