<svg viewBox="0 0 64 64" xmlns="http://www.w3.org/2000/svg">
  <path d="M43.29 28.91c-.47.28-.94.55-1.4.8-.17.09-.34.17-.52.26-.3.15-.59.3-.89.44-.2.09-.4.17-.6.25-.27.11-.53.23-.8.34-.22.08-.43.15-.65.23-.25.09-.5.18-.75.26-.22.07-.44.12-.66.18-.24.07-.49.14-.73.2-.22.05-.44.09-.66.13-.24.05-.49.1-.73.14-.22.03-.44.05-.66.08-.24.03-.49.07-.73.09h-.15v-1.75c5.37-.64 9.58-6.65 9.58-12.96C42.95 10.92 32.43 0 32.43 0S21.9 10.92 21.9 17.59c0 5.97 3.77 11.67 8.72 12.81v1.89c-.19-.02-.39-.04-.58-.07-.21-.03-.43-.04-.64-.08-.24-.04-.48-.09-.72-.14-.21-.04-.43-.08-.64-.13-.25-.06-.49-.13-.74-.2-.21-.06-.42-.11-.62-.17-.25-.08-.5-.18-.75-.27-.2-.07-.4-.14-.61-.22-.26-.1-.52-.23-.78-.34-.19-.08-.38-.16-.57-.25-.29-.14-.58-.3-.87-.46-.16-.09-.32-.16-.48-.25-.45-.25-.9-.53-1.35-.82-3.6 0-6.51 2.91-6.51 6.51v28.54h35.05V35.4c0-3.59-2.92-6.51-6.51-6.51ZM24.65 17.59c0-3.39 4.2-9.35 7.78-13.51 3.58 4.15 7.78 10.12 7.78 13.51 0 4.99-3.19 9.56-6.9 10.2-.12-1.13-.23-4.43 2.03-6.55.55-.52.58-1.39.06-1.94s-1.39-.58-1.94-.06c-2.84 2.66-3.04 6.38-2.94 8.27-3.25-1.22-5.87-5.39-5.87-9.91Z"/>
</svg>
