<svg viewBox="0 0 48 48" xmlns="http://www.w3.org/2000/svg">
  <path d="M10.02 22.03V19.1H7.09v-2.5h2.93v-2.93h2.5v2.93h2.93v2.5h-2.93v2.93zm22.23-2.9v-2.5h-8.36v2.5zM2.51 33.95l25.88.02c-.34.84-.61 1.68-.78 2.5L0 36.44V7.52c0-1.38 1.13-2.49 2.51-2.49h.18V.76c0-.41.33-.75.75-.75h9.73c.41 0 .75.34.75.75v4.27h11.65V.79c0-.41.34-.75.75-.75h9.73c.41 0 .75.34.75.75v4.26h.21a2.5 2.5 0 0 1 2.5 2.5v14.18l-1.19-1.22L37 21.86V7.55L2.5 7.52v21.76l28.4.02c-.53.8-1.04 1.64-1.5 2.5l-26.89-.02v2.16Zm25.56-28.9h6.23V2.54h-6.23zM5.19 5.03h6.23V2.51H5.19zm42.82 33.3c0 5.34-4.35 9.68-9.69 9.68s-9.69-4.34-9.69-9.68c0-6.05 8.43-14.75 8.79-15.11l.9-.92.9.92c.36.37 8.79 9.1 8.79 15.11m-2.5 0c0-3.67-4.58-9.52-7.19-12.41-2.61 2.88-7.18 8.71-7.18 12.41 0 3.96 3.22 7.18 7.19 7.18s7.19-3.22 7.19-7.18Zm-7.68 2.43c-1.16 0-2.11-.95-2.11-2.11a1.25 1.25 0 0 0-2.5 0c0 2.54 2.07 4.61 4.61 4.61a1.25 1.25 0 0 0 0-2.5"/>
</svg>
