<svg viewBox="0 0 40 40" xmlns="http://www.w3.org/2000/svg">
  <path d="M40 20C40 8.95 31.05 0 20 0S0 8.95 0 20s8.95 20 20 20 20-8.95 20-20m-17.75-9.28V2.39c7.99 1.02 14.34 7.37 15.36 15.36h-8.33c-.53-4.3-2.73-6.5-7.03-7.03m-2.33 20.26c-6.15 0-11.15-5-11.15-11.15s5-11.15 11.15-11.15H20v3.89c-1.01.03-1.82.85-1.82 1.87s.84 1.87 1.87 1.87 1.87-.84 1.87-1.87c0-.66-.34-1.24-.86-1.57 3.66.2 5.39 1.51 5.91 4.66-.35-.44-.88-.7-1.45-.7-.19 0-.39.03-.58.09a1.876 1.876 0 0 0 1.16 3.57c.46-.15.82-.47 1.04-.86V20h3.9c-.09 6.07-5.05 10.98-11.14 10.98Zm-5.6-10.77c-.19 0-.39-.03-.58-.09a1.876 1.876 0 0 1 1.16-3.57 1.876 1.876 0 0 1-.58 3.66m3.44 5.88c-.37.5-.94.77-1.52.77a1.872 1.872 0 0 1-1.51-2.98c.37-.5.94-.77 1.52-.77a1.872 1.872 0 0 1 1.51 2.98m6.93-1.97c.61.84.42 2.01-.41 2.62-.33.24-.72.36-1.1.36-.58 0-1.15-.27-1.52-.77a1.88 1.88 0 0 1 .41-2.62c.33-.24.72-.36 1.1-.36.58 0 1.15.27 1.52.77m-4.05-2c-.19.06-.39.09-.58.09-.79 0-1.53-.5-1.78-1.3-.32-.98.22-2.04 1.2-2.36.19-.06.39-.09.58-.09.79 0 1.53.5 1.78 1.3.32.98-.22 2.04-1.2 2.36"/>
</svg>
