<svg viewBox="0 0 64 64" xmlns="http://www.w3.org/2000/svg">
  <path d="M64 32C64 14.33 49.67 0 32 0S0 14.33 0 32s14.33 32 32 32 32-14.33 32-32M32 20.12c-1.61.05-2.91 1.36-2.91 2.99s1.34 3 3 3a2.996 2.996 0 0 0 1.63-5.51c5.85.32 8.61 2.42 9.45 7.43-.04-.05-.08-.09-.12-.14a2 2 0 0 0-.27-.25c-.04-.04-.08-.07-.13-.11-.13-.1-.26-.18-.4-.26-.01 0-.03-.02-.04-.02a3 3 0 0 0-.49-.19c-.05-.02-.1-.02-.15-.04-.12-.03-.24-.05-.37-.07-.06 0-.12-.01-.19-.01-.05 0-.1-.01-.16-.01-.07 0-.15.01-.22.02-.06 0-.11 0-.17.01q-.27.03-.54.12c-1.58.51-2.44 2.2-1.93 3.78.06.18.14.35.22.51l.09.15a3.5 3.5 0 0 0 .34.45c.08.09.17.17.27.25.04.04.08.07.13.11.13.1.26.18.4.26.01 0 .03.02.04.03.16.08.32.14.49.19.05.02.1.02.16.04.12.03.24.05.37.07.06 0 .12.01.19.01.05 0 .1.01.16.01.07 0 .15-.01.22-.02.06 0 .11 0 .17-.01q.27-.03.54-.12c.74-.24 1.31-.74 1.67-1.37 0 .2.01.39.01.6h7.09c-.15 10.18-8.46 18.42-18.67 18.42s-18.69-8.38-18.69-18.69 8.38-18.71 18.69-18.71H32v7.07Zm14.09 9.13c-.65-7.23-4.11-10.68-11.34-11.34V2.88c13.94 1.31 25.06 12.43 26.37 26.37zM61.25 32c0 16.13-13.12 29.25-29.25 29.25S2.75 48.13 2.75 32 15.87 2.75 32 2.75v7.55h-.12c-11.84 0-21.44 9.6-21.44 21.44s9.6 21.44 21.44 21.44 21.28-9.45 21.42-21.17h7.95Zm-38.56.31c-.06 0-.11 0-.17-.01a2.998 2.998 0 0 1-2.47-3.9c.06-.18.14-.35.22-.51l.09-.15a3.5 3.5 0 0 1 .34-.45c.08-.09.17-.17.27-.25.04-.04.09-.08.13-.11.13-.1.26-.18.4-.26.01 0 .03-.02.04-.03.16-.08.32-.14.49-.19.05-.02.1-.02.16-.04.12-.03.24-.05.37-.07.06 0 .12-.01.19-.01.05 0 .1-.01.16-.01.07 0 .15.01.22.02.06 0 .11 0 .17.01q.27.03.54.12c.39.13.74.33 1.04.59.88.77 1.27 2.01.89 3.2-.06.18-.14.35-.22.51-.03.05-.06.1-.09.14a3.5 3.5 0 0 1-.34.45c-.08.09-.17.17-.27.25-.04.04-.08.07-.13.11-.13.1-.26.18-.4.26-.01 0-.03.02-.04.02-.16.08-.32.14-.49.19-.05.02-.1.02-.16.04-.12.03-.24.05-.37.07-.06 0-.12.01-.19.01-.05 0-.1.01-.16.01-.07 0-.15-.01-.22-.02Zm6.3 7.78c-.02.58-.21 1.16-.57 1.66-.14.19-.29.35-.46.49-.05.05-.11.08-.17.13-.12.09-.24.17-.37.25-.07.04-.14.07-.21.1-.13.06-.26.1-.39.14l-.22.06c-.15.03-.3.04-.45.05-.05 0-.1.02-.15.02h-.06c-.05 0-.1 0-.16-.01-.13 0-.25-.02-.37-.05-.06-.01-.12-.03-.18-.04q-.18-.045-.36-.12c-.05-.02-.11-.04-.16-.06-.17-.08-.33-.17-.48-.28a2.993 2.993 0 0 1-.66-4.19c.14-.19.29-.35.46-.49.05-.05.11-.08.17-.13.12-.09.24-.17.37-.25.07-.04.14-.07.21-.1.13-.06.26-.1.39-.14l.23-.06c.15-.03.29-.04.44-.05.05 0 .1-.02.15-.02h.06c.05 0 .1 0 .16.01.13 0 .25.02.37.05.06.01.12.03.18.04q.18.045.36.12c.05.02.1.04.16.06a2.9 2.9 0 0 1 .93.68c.54.59.81 1.36.78 2.13m6.32-2.17c.15-.11.31-.2.48-.28.05-.02.1-.04.16-.06q.18-.075.36-.12c.06-.02.12-.03.18-.04.12-.02.25-.04.37-.05.05 0 .1-.01.16-.01h.06c.05 0 .1.01.15.02.15 0 .3.02.44.05l.23.06a3 3 0 0 1 .6.24c.13.07.25.15.37.24.06.04.12.08.17.13.17.15.32.31.46.49.37.5.55 1.08.57 1.66a2.98 2.98 0 0 1-1.23 2.53c-.15.11-.31.2-.48.28-.05.02-.1.04-.16.06q-.18.075-.36.12c-.06.02-.12.03-.18.04-.12.02-.25.04-.37.05-.05 0-.1.01-.16.01h-.06c-.05 0-.1-.01-.15-.02-.15 0-.3-.02-.45-.05-.08-.02-.15-.04-.22-.06-.13-.04-.27-.09-.39-.14a2.2 2.2 0 0 1-.58-.35c-.06-.04-.11-.08-.17-.13-.17-.15-.32-.31-.46-.49-.97-1.34-.68-3.22.66-4.19Zm-6.07-4.45c-.51-1.58.35-3.27 1.93-3.78.18-.06.36-.09.54-.12.06 0 .11 0 .17-.01.07 0 .15-.02.22-.02.05 0 .1 0 .16.01.06 0 .13 0 .19.01.13.01.25.04.37.07.05.01.1.02.15.04.17.05.33.11.49.19.01 0 .03.02.04.02.14.07.28.16.4.26.05.03.09.07.13.11.09.08.18.16.27.25.04.05.08.09.12.14.08.1.15.2.22.31.03.05.06.09.09.15.09.16.17.33.22.51.51 1.58-.35 3.27-1.93 3.78-.18.06-.36.09-.54.12-.06 0-.11 0-.17.01-.07 0-.15.02-.22.02-.05 0-.1 0-.16-.01-.06 0-.12 0-.19-.01-.13-.01-.25-.04-.37-.07-.05-.01-.1-.02-.15-.04a3 3 0 0 1-.49-.19c-.01 0-.03-.02-.04-.02a2.6 2.6 0 0 1-.54-.37c-.09-.08-.18-.16-.27-.25-.04-.05-.08-.09-.12-.14-.08-.1-.15-.2-.22-.31-.03-.05-.06-.09-.09-.14-.09-.16-.17-.33-.22-.51Z"/>
</svg>
