<svg viewBox="0 0 24 24" xmlns="http://www.w3.org/2000/svg">
  <path d="M14.22 14.78c-.55.92-1 1.9-1.23 2.86H0v-2.86zm1.18-1.77H0V2.78c0-.56.45-1.01 1.01-1.01h.88V.76c0-.42.34-.76.76-.76h4.16c.42 0 .76.34.76.76v1.02h4.98V.76c0-.42.34-.76.76-.76h4.16c.42 0 .76.34.76.76v1.02h.88c.56 0 1.01.45 1.01 1.01v7.63l-1.24-1.27-1.27 1.3c-.34.35-1.25 1.32-2.19 2.57ZM7.54 7.32H6.06V5.84H4.29v1.48H2.81v1.76h1.48v1.48h1.77V9.08h1.48zm4.93 1.76h4.72V7.32h-4.72zM24 18.86c0 2.83-2.31 5.14-5.14 5.14s-5.14-2.3-5.14-5.14c0-3.1 4.05-7.33 4.51-7.81l.63-.65.63.65c.46.47 4.51 4.72 4.51 7.8Zm-4.88 2.24c0-.49-.4-.88-.88-.88-.45 0-.81-.37-.81-.81 0-.49-.4-.88-.88-.88s-.88.39-.88.88c0 1.42 1.16 2.58 2.58 2.58.49 0 .88-.39.88-.88Z"/>
</svg>
