<svg viewBox="0 0 64 64" xmlns="http://www.w3.org/2000/svg">
  <path d="M13.65 29.41v-3.9h-3.9v-2.75h3.9v-3.9h2.75v3.9h3.9v2.75h-3.9v3.9zm29.03-3.9v-2.75H32.12v2.75zM2.77 45.85h35.86c-.37.92-.67 1.84-.89 2.75H.01V9.43c0-1.52 1.24-2.75 2.76-2.75h.82V.74c0-.41.34-.74.75-.74h13.47c.41 0 .75.34.75.75v5.94h15.5V.74c0-.41.34-.75.75-.75h13.47c.41 0 .75.34.75.75v5.94h.86c1.52 0 2.75 1.23 2.75 2.75v20.28l-1.25-1.28-1.5 1.54V9.43H2.77v30.91h38.77c-.57.9-1.12 1.82-1.61 2.75H2.77zM36.81 6.66h9.47V2.75h-9.47zm-30.47 0h9.47V2.75H6.34zm57.67 44.71c0 6.96-5.66 12.62-12.62 12.62s-12.62-5.66-12.62-12.62c0-7.96 11.16-19.48 11.64-19.96l.99-1.01.98 1.01c.47.49 11.64 12.06 11.64 19.96Zm-2.75 0c0-5.1-6.41-13.19-9.87-16.99-3.46 3.78-9.87 11.86-9.87 16.99 0 5.44 4.43 9.87 9.87 9.87s9.87-4.43 9.87-9.87M50.4 55.23c-1.71 0-3.1-1.39-3.1-3.1 0-.76-.62-1.38-1.38-1.38s-1.38.62-1.38 1.38c0 3.23 2.63 5.85 5.86 5.85.76 0 1.38-.62 1.38-1.38s-.62-1.38-1.38-1.38Z"/>
</svg>
