<svg viewBox="0 0 16 16" xmlns="http://www.w3.org/2000/svg">
  <path d="M16 8c0-4.42-3.58-8-8-8S0 3.58 0 8s3.58 8 8 8 8-3.58 8-8M8 5.03c-.4.01-.73.34-.73.75s.34.75.75.75.75-.34.75-.75a.74.74 0 0 0-.35-.62c1.45.08 2.15.6 2.36 1.84a.74.74 0 0 0-.57-.27.6.6 0 0 0-.23.04.754.754 0 0 0 .23 1.47c.08 0 .15-.01.23-.04a.77.77 0 0 0 .41-.34v.15h.96c-.04 2.1-1.75 3.79-3.85 3.79S4.1 10.07 4.1 7.94s1.73-3.86 3.86-3.86h.03v.96Zm4.22 1.47C11.89 5 11 4.11 9.5 3.78V1.67c2.38.56 4.26 2.44 4.83 4.83zM14.5 8c0 3.58-2.92 6.5-6.5 6.5S1.5 11.58 1.5 8 4.42 1.5 8 1.5v1.08h-.03a5.36 5.36 0 0 0 0 10.72 5.33 5.33 0 0 0 5.35-5.29h1.18Zm-8.77.08a.6.6 0 0 1-.23-.04.754.754 0 0 1 .23-1.47c.08 0 .15.01.23.04a.754.754 0 0 1-.23 1.47m1.21 1.31a.751.751 0 1 1-.88 1.22.751.751 0 1 1 .88-1.22m1.89.09c.13-.1.29-.14.44-.14.23 0 .46.11.61.31a.753.753 0 0 1-.61 1.19c-.23 0-.46-.11-.61-.31-.24-.34-.17-.8.17-1.05M7.31 8.37a.76.76 0 0 1 .71-.99c.32 0 .61.2.71.52a.76.76 0 0 1-.71.99c-.32 0-.61-.2-.71-.52"/>
</svg>
