<svg viewBox="0 0 48 48" xmlns="http://www.w3.org/2000/svg">
  <path d="m36.53 22.34 1.79-1.83 1.19 1.22V6.55a2.5 2.5 0 0 0-2.5-2.5h-.21V.79c0-.41-.34-.75-.75-.75h-9.73c-.41 0-.75.34-.75.75v3.25H13.92V.76c0-.41-.34-.75-.75-.75H3.44c-.41 0-.75.34-.75.75v3.26h-.18a2.51 2.51 0 0 0-2.5 2.49v22.76l30.9.02c2.35-3.55 5.1-6.43 5.62-6.96ZM15.45 18.1h-2.93v2.93h-2.5V18.1H7.09v-2.5h2.93v-2.93h2.5v2.93h2.93zm8.45-2.47h8.36v2.5H23.9zm5.5 16.17c-.83 1.54-1.48 3.13-1.8 4.66L0 36.44v-4.66zm9.82-8.58-.9-.92-.9.92c-.36.37-8.79 9.06-8.79 15.11 0 5.34 4.35 9.68 9.69 9.68s9.69-4.34 9.69-9.68c0-6.01-8.43-14.74-8.79-15.11m-1.89 20.53c-2.54 0-4.61-2.07-4.61-4.61a1.25 1.25 0 0 1 2.5 0c0 1.16.95 2.11 2.11 2.11a1.25 1.25 0 0 1 0 2.5"/>
</svg>
