<svg viewBox="0 0 16 16" xmlns="http://www.w3.org/2000/svg">
  <path d="m11.38 6.63 1.07-1.1.81.84V1.64c0-.28-.22-.5-.5-.5h-.75V.47c0-.28-.22-.5-.5-.5H8.77c-.28 0-.5.22-.5.5v.67H4.99V.47c0-.28-.22-.5-.5-.5H1.75c-.28 0-.5.22-.5.5v.67H.5c-.27 0-.5.23-.5.5v6.58h10c.59-.78 1.15-1.38 1.37-1.6Zm-5.9-.83H4.5v.97H3V5.8h-.98V4.3H3v-.97h1.5v.97h.98zm2.26-1.5h3.45v1.5H7.74zm1.27 5.42c-.35.61-.63 1.25-.77 1.89H0V9.72h9Zm3.98-2.57-.54-.55-.54.55c-.31.32-3.02 3.15-3.02 5.27 0 1.96 1.6 3.56 3.56 3.56s3.56-1.59 3.56-3.56c0-2.1-2.71-4.95-3.02-5.26Zm-.79 7.32c-1.03 0-1.87-.84-1.87-1.87a.749.749 0 1 1 1.5 0c0 .2.17.37.37.37a.749.749 0 1 1 0 1.5"/>
</svg>
