<svg viewBox="0 0 64 64" xmlns="http://www.w3.org/2000/svg">
  <path d="M39.64 43.09c-.96 1.83-1.73 3.7-2.15 5.51H.01v-5.51zm1.6-2.75H.01V8.43c0-1.52 1.24-2.75 2.76-2.75h.82V.74c0-.41.34-.74.75-.74h13.47c.41 0 .75.34.75.75v4.94h15.5V.74c0-.41.34-.75.75-.75h13.47c.41 0 .75.34.75.75v4.94h.86c1.52 0 2.75 1.23 2.75 2.75v20.92l-1.25-1.28-2.15 2.2c-.73.75-4.78 4.98-8 10.07M20.31 21.76h-3.9v-3.9h-2.75v3.9h-3.9v2.75h3.9v3.9h2.75v-3.9h3.9zm11.82 2.75h10.56v-2.75H32.13zm31.88 26.86c0 6.96-5.66 12.62-12.62 12.62s-12.62-5.66-12.62-12.62c0-7.96 11.16-19.48 11.64-19.96l.99-1.01.98 1.01c.47.49 11.64 12.06 11.64 19.96ZM51.28 57.1c0-.76-.62-1.38-1.38-1.38-1.71 0-3.1-1.39-3.1-3.1 0-.76-.62-1.38-1.38-1.38s-1.38.62-1.38 1.38c0 3.23 2.63 5.85 5.86 5.85.76 0 1.38-.62 1.38-1.38Z"/>
</svg>
