<svg viewBox="0 0 48 48" xmlns="http://www.w3.org/2000/svg">
  <path d="M36.62 13.66h-6.4V1.5h-6.49V-.03H12.72V1.5H6.23v12.16H0v29.26h6.78c.35 2.85 2.77 5.06 5.71 5.06s5.36-2.21 5.7-5.06h10.55c.35 2.85 2.77 5.06 5.71 5.06s5.36-2.21 5.7-5.06h2.89c2.74 0 4.97-2.23 4.97-4.98V27.41zm7.3 13.05h-7.21c-.14 0-.25-.11-.25-.25v-8.81l7.46 9.05ZM15.21 2.48h6.01v2.5h-6.01zM8.72 4.01h3.99v3.48h11.01V4.01h3.99v23.45H8.72zm3.77 41.46c-1.79 0-3.25-1.46-3.25-3.25s1.46-3.25 3.25-3.25 3.25 1.46 3.25 3.25-1.46 3.25-3.25 3.25m21.96 0c-1.79 0-3.25-1.46-3.25-3.25s1.46-3.25 3.25-3.25 3.25 1.46 3.25 3.25-1.46 3.25-3.25 3.25m8.59-5.06H39.9c-.76-2.29-2.92-3.95-5.46-3.95s-4.7 1.66-5.46 3.95H17.94c-.76-2.29-2.92-3.95-5.46-3.95s-4.7 1.66-5.46 3.95H2.51V16.16h3.71v13.8h24v-13.8h3.73v10.3c0 1.52 1.23 2.75 2.75 2.75h8.81v8.72c0 1.36-1.11 2.47-2.47 2.47ZM22.92 13.57l-5.07 7.69-3.82-4.1c-.47-.51-.44-1.3.06-1.77.51-.47 1.3-.45 1.77.06l1.66 1.77 3.32-5.04a1.247 1.247 0 1 1 2.08 1.38Z"/>
</svg>
