<svg viewBox="0 0 40 40" xmlns="http://www.w3.org/2000/svg">
  <path d="M30.51 11.4h-5.33V1.29h-5.41V.02h-9.18v1.27H5.18V11.4H0v24.33h5.59c.29 2.41 2.33 4.29 4.82 4.29s4.52-1.88 4.82-4.29h8.66c.29 2.41 2.33 4.29 4.82 4.29s4.52-1.88 4.82-4.29h2.34c2.29 0 4.14-1.85 4.14-4.14v-8.75L30.52 11.4Zm5.83 10.84H30.5c-.07 0-.12-.06-.12-.12v-7.09l5.96 7.22ZM12.84 2.27h4.68v1.75h-4.68zM7.43 3.54h3.16v2.72h9.18V3.54h3.16v19.17H7.43zm2.98 34.23c-1.45 0-2.62-1.18-2.62-2.62s1.18-2.62 2.62-2.62 2.62 1.18 2.62 2.62-1.18 2.62-2.62 2.62m18.29 0c-1.45 0-2.62-1.18-2.62-2.62s1.18-2.62 2.62-2.62 2.62 1.18 2.62 2.62-1.18 2.62-2.62 2.62m7.16-4.29h-2.6c-.69-1.86-2.46-3.2-4.56-3.2s-3.88 1.34-4.56 3.2h-9.17c-.69-1.86-2.46-3.2-4.56-3.2s-3.88 1.34-4.56 3.2H2.26V13.65h2.92v11.31h20V13.65h2.95v8.47c0 1.31 1.07 2.37 2.38 2.37h7.25v7.09c0 1.04-.85 1.89-1.89 1.89Zm-16.7-22.11-4.28 6.48-3.26-3.49c-.42-.45-.4-1.17.05-1.59s1.17-.4 1.59.05l1.31 1.4 2.71-4.1a1.127 1.127 0 0 1 1.88 1.24Z"/>
</svg>
