<svg viewBox="0 0 48 48" xmlns="http://www.w3.org/2000/svg">
  <path d="M30.22 1.49h-6.49V-.04H12.72v1.53H6.23v28.46h24V1.49Zm-15.01.98h6.01v2.5h-6.01zm12.51 24.98h-19V4h3.99v3.48h11.01V4h3.99v23.45Zm-4.8-13.89-5.07 7.69-3.82-4.1c-.47-.51-.44-1.3.06-1.77.51-.47 1.3-.45 1.77.06l1.66 1.77 3.32-5.04a1.247 1.247 0 1 1 2.08 1.38Zm16.71 29.39c0 2.77-2.24 5.01-5 5.01s-5-2.24-5-5.01 2.24-5.01 5-5.01 5 2.24 5 5.01m-22.77 0c0 2.77-2.24 5.01-5 5.01s-5-2.24-5-5.01 2.24-5.01 5-5.01 5 2.24 5 5.01m19.76-29.3h-5.15v17.56H4.97V13.65H0v29.26h1.84c.02-5.51 4.5-9.99 10.01-9.99s9.99 4.48 10.01 9.99h2.75c.02-5.51 4.5-9.99 10.01-9.99s9.83 4.33 9.99 9.71A4.96 4.96 0 0 0 48 37.92V27.39L36.61 13.63Zm7.34 14.3h-7.49c-.7 0-1.27-.57-1.27-1.28v-9.31h.94l7.82 9.49v1.09Z"/>
</svg>
