<svg viewBox="0 0 16 16" xmlns="http://www.w3.org/2000/svg">
  <path d="M12.92 14.25c0 .97-.78 1.75-1.75 1.75s-1.75-.78-1.75-1.75.78-1.75 1.75-1.75 1.75.78 1.75 1.75M3.97 12.5c-.97 0-1.75.78-1.75 1.75S3 16 3.97 16s1.75-.78 1.75-1.75-.78-1.75-1.75-1.75M16 8.81v3.5c0 .9-.72 1.63-1.61 1.65-.14-1.66-1.52-2.97-3.22-2.97s-3.08 1.32-3.22 2.98H7.2c-.14-1.66-1.52-2.98-3.22-2.98S.9 12.31.76 13.97H0V4.23h1.32v6.02h9.5V4.23h1.38zm-1.47-.21-2.48-3h-.3v2.94c0 .22.18.4.4.4h2.37v-.35Zm-4.46.91h-8v-9h2.5V0h3v.51h2.5zm-1.5-7.5h-1v.49h-3v-.49h-1v6h5zM6.66 3.57l-.87 1.32-.26-.28a.755.755 0 0 0-1.06-.04c-.3.28-.32.76-.04 1.06L5.99 7.3l1.92-2.91c.23-.35.13-.81-.21-1.04s-.81-.13-1.04.21Z"/>
</svg>
