<svg viewBox="0 0 64 64" xmlns="http://www.w3.org/2000/svg">
  <path d="M62.54 43.79 50.66 31.73V4.58c0-2.79-2.25-5.08-5-5.08H5c-2.75 0-5 2.28-5 5.08v41.31c0 2.79 2.25 5.08 5 5.08h26.74L43.6 63.02c.97.99 2.26 1.48 3.54 1.48s2.57-.49 3.54-1.48l11.84-12.03c1.95-1.98 1.95-5.22 0-7.2ZM5 48.17c-1.24 0-2.25-1.03-2.25-2.29V4.58c0-1.26 1.01-2.29 2.25-2.29h40.66c1.24 0 2.25 1.03 2.25 2.29v24.35l-7.52-7.64a4.94 4.94 0 0 0-3.54-1.48h-.02v-3.2c0-1.68-1.35-3.05-3-3.05H16.84c-1.65 0-3 1.37-3 3.05v17.26c0 1.68 1.35 3.05 3 3.05H20c0 1.31.48 2.62 1.46 3.61l7.53 7.65H5Zm16.46-14.85c-.24.25-.45.51-.64.79h-3.99c-.13 0-.25-.12-.25-.25V16.6c0-.13.12-.25.25-.25h16.99c.13 0 .25.12.25.25v4.05c-.27.18-.53.4-.77.64zm27.29 27.72c-.42.43-.99.67-1.6.67s-1.18-.24-1.6-.67L23.4 38.54c-.88-.89-.88-2.35 0-3.25l7.73-7.85 25.2 25.89-7.59 7.71Zm11.84-12.03-2.31 2.35-25.2-25.89 2.17-2.21c.42-.43.99-.67 1.6-.67s1.18.24 1.6.67l22.15 22.5c.88.89.88 2.35 0 3.25Z"/>
</svg>
