<svg viewBox="0 0 24 24" xmlns="http://www.w3.org/2000/svg">
  <path d="m23.53 16.42-4.54-4.54V3c0-1.65-1.35-3-3-3H3.03c-1.65 0-3 1.35-3 3v12.96c0 1.65 1.35 3 3 3h8.88l4.54 4.54a1.71 1.71 0 0 0 2.42 0l4.66-4.66c.67-.67.67-1.76 0-2.42m-20.5.79c-.69 0-1.25-.56-1.25-1.25V3c0-.69.56-1.25 1.25-1.25h12.96c.69 0 1.25.56 1.25 1.25v7.12l-2.23-2.23c-.33-.33-.77-.5-1.2-.5v-.47c0-.96-.79-1.75-1.75-1.75h-5.1c-.96 0-1.75.79-1.75 1.75v5.1c0 .96.79 1.75 1.75 1.75h.47c0 .43.17.87.5 1.2l2.23 2.23H3.03Zm5.43-5.18h-1.5v-5.1h5.1v1.5l-3.61 3.61Zm9.2 10.21-8.47-8.47 2.52-2.52 8.42 8.51zm3.71-3.72-8.42-8.51.85-.85 8.47 8.47-.9.9Z"/>
</svg>
