<svg viewBox="0 0 24 24" xmlns="http://www.w3.org/2000/svg">
  <path d="m7.31 15.6 3.36 3.36H3.03c-.62 0-1.2-.19-1.67-.51-.32-.22-.6-.49-.81-.81a3 3 0 0 1-.52-1.67V3c0-1.65 1.35-3 3-3h12.96c1.65 0 3 1.35 3 3v7.64l-3.36-3.36c-.5-.5-1.18-.74-1.87-.73a1.75 1.75 0 0 0-1.71-1.37h-5.1c-.96 0-1.75.79-1.75 1.75v5.1c0 .82.58 1.52 1.35 1.7v.04c0 .69.27 1.34.75 1.83Zm-.35-3.57h.28s.05-.06.08-.09l4.66-4.66s.06-.05.09-.07v-.28h-5.1v5.1Zm.97.53c-.67.67-.67 1.76 0 2.42l8.52 8.52c.08.08.17.16.27.22a1.76 1.76 0 0 0 .95.28q.165 0 .33-.03c.22-.04.43-.12.62-.25.09-.06.18-.14.27-.22l2.54-2.54-10.97-10.91-2.51 2.51Zm15.6 3.86L15.01 7.9a1.5 1.5 0 0 0-.66-.4 1.71 1.71 0 0 0-1.49.18c-.09.06-.18.14-.27.22l-.92.92 10.97 10.91.89-.89c.67-.67.67-1.76 0-2.42"/>
</svg>
