<svg viewBox="0 0 16 16" xmlns="http://www.w3.org/2000/svg">
  <path d="M4.85 7.76V4.82h2.94zm-.63 1.5c-.5-.13-.87-.57-.87-1.1V4.48c0-.64.52-1.16 1.16-1.16h3.68c.54 0 .97.37 1.1.87.48.02.92.21 1.26.55l2.12 2.12V2.5a2.5 2.5 0 0 0-2.5-2.5H2.53C1.16 0 .03 1.12.03 2.5v7.64a2.5 2.5 0 0 0 2.5 2.5h4.36l-2.12-2.12c-.34-.34-.52-.78-.54-1.26Zm1.08-.89c-.44.44-.44 1.17 0 1.61l5.68 5.68c.22.22.51.33.81.33s.59-.11.81-.33l1.5-1.5-7.25-7.34-1.54 1.54Zm10.4 2.57-5.68-5.68c-.11-.11-.24-.19-.38-.25a1.1 1.1 0 0 0-.43-.08c-.29 0-.59.11-.81.33l-.51.51 7.25 7.34.55-.55c.44-.44.44-1.17 0-1.61Z"/>
</svg>
