<svg viewBox="0 0 32 32" xmlns="http://www.w3.org/2000/svg">
  <path d="m31.26 21.75-5.92-5.92V3.46c0-1.93-1.58-3.51-3.51-3.51H3.5C1.57-.05-.01 1.53-.01 3.46v18.33c0 1.93 1.58 3.51 3.51 3.51h12.37l5.91 5.91c.49.49 1.13.73 1.77.73s1.29-.24 1.77-.73l5.93-5.93c.97-.97.97-2.57 0-3.55ZM3.5 23.3c-.83 0-1.5-.67-1.5-1.5V3.46c0-.83.67-1.5 1.5-1.5h18.33c.83 0 1.5.67 1.5 1.5v10.36l-3.16-3.16c-.48-.48-1.12-.73-1.76-.73V8.88c0-1.1-.9-2.01-2.01-2.01H8.91c-1.1 0-2.01.9-2.01 2.01v7.49c0 1.1.9 2.01 2.01 2.01h1.06c0 .64.25 1.27.73 1.76l3.16 3.16zm7.42-6.92h-2V8.89h7.49v2zm12.99 13.43a.51.51 0 0 1-.7 0L12.13 18.73a.513.513 0 0 1 0-.71l3.64-3.64L27.5 26.24l-3.58 3.58Zm5.93-5.93-.93.93-11.73-11.86.87-.87a.51.51 0 0 1 .7 0l11.08 11.08c.19.19.19.52 0 .71Z"/>
</svg>
