<svg viewBox="0 0 40 40" xmlns="http://www.w3.org/2000/svg">
  <path d="m12.58 26.01 5.66 5.67H3.99c-2.2 0-4-1.81-4-4.01V3.99c0-2.2 1.8-4.01 4-4.01h23.68c2.2 0 4 1.8 4 4v14.25l-5.66-5.66a4.22 4.22 0 0 0-3-1.24v-.19c0-1.38-1.13-2.5-2.5-2.5h-9.37c-1.38 0-2.5 1.13-2.5 2.5v9.38c0 1.38 1.13 2.5 2.5 2.5h.2c0 1.08.42 2.17 1.24 2.99m-1.44-15.12c-.13 0-.25.12-.25.25v9.38c0 .13.12.25.25.25h.84c.17-.28.37-.54.61-.78L20 12.58c.24-.24.5-.43.78-.6v-.83c0-.13-.12-.25-.25-.25h-9.37Zm2.24 9.89c-.61.61-.91 1.41-.91 2.22 0 .6.17 1.2.51 1.73.11.17.25.34.4.49l13.85 13.86c.61.61 1.41.91 2.22.91s1.61-.3 2.22-.91l4.94-4.94-18.43-18.16zm25.69 6.45L25.22 13.37c-.3-.3-.66-.53-1.04-.69s-.78-.23-1.18-.23c-.8 0-1.61.3-2.22.91l-1.01 1.01 18.42 18.15.87-.87a3.14 3.14 0 0 0 0-4.43Z"/>
</svg>
