<svg viewBox="0 0 24 24" xmlns="http://www.w3.org/2000/svg">
  <path d="M23.92 19.72v1.66c0 1.45-1.17 2.62-2.62 2.62H2.54C1.1 24-.08 22.82-.08 21.38v-1.66h23.99ZM.12 18.04a.9.9 0 0 1-.19-.72l1.71-9.48a2.4 2.4 0 0 1 2.38-2.01h5.89V1.77C9.91.8 10.7 0 11.67 0h6.79c.97 0 1.76.79 1.76 1.76v4.09c1 .17 1.81.95 1.97 1.99l1.71 9.47a.87.87 0 0 1-.86 1.03H.79c-.26 0-.5-.12-.67-.31Zm14.35-5.13h-1.74v1.75h1.74zm0-3.31h-1.74v1.75h1.74zm3.69.87a.87.87 0 0 0-1.74 0v3.38a.87.87 0 0 0 1.74 0zm-5.4-5.82h4.57V2.9h-4.57zm-2.9 6.7h1.74V9.6H9.86zm0 3.31h1.74v-1.75H9.86zm-2.87-3.31h1.74V9.6H6.99zm0 3.31h1.74v-1.75H6.99zm-2.86-3.31h1.74V9.6H4.13zm0 3.31h1.74v-1.75H4.13z"/>
</svg>
