<svg viewBox="0 0 32 32" xmlns="http://www.w3.org/2000/svg">
  <path d="M.96 24.38h30c.3 0 .58-.13.77-.36s.27-.53.22-.82l-2.3-12.81a3.06 3.06 0 0 0-2.75-2.57v-5.6A2.207 2.207 0 0 0 24.69.03h-9.18c-1.21 0-2.2.99-2.2 2.2v5.59h-8c-1.52 0-2.79 1.09-3.03 2.57l-2.3 12.82c-.05.29.03.59.22.82s.47.36.77.36Zm15.41-3.11h-2v-2h2zm0-3.92h-2v-2h2zm0-3.91h-2v-2h2zm4.12 7.83h-2v-2h2zm0-3.92h-2v-2h2zm0-3.91h-2v-2h2zm4.12 6.83c0 .55-.45 1-1 1s-1-.45-1-1v-3.91c0-.55.45-1 1-1s1 .45 1 1zm0-6.83h-2v-2h2zm-3.1-9.52h2v2h-2zm-5.07 0h3.97v2h-3.97zm-6.19 7.53h2v2h-2zm0 3.91h2v2h-2zm0 3.91h2v2h-2zm-4-7.82h2v2h-2zm0 3.91h2v2h-2zm0 3.91h2v2h-2zm24.71 6.61h-31v3.16c0 1.65 1.34 2.99 3 2.99h26a3 3 0 0 0 3-2.99v-3.16zm-8.35 4.03H9.09c-.55 0-1-.45-1-1s.45-1 1-1h13.52c.55 0 1 .45 1 1s-.45 1-1 1"/>
</svg>
