<svg viewBox="0 0 48 48" xmlns="http://www.w3.org/2000/svg">
  <path d="M47.98 35.16c0-.07 0-.14-.01-.21l-3.49-20a4.37 4.37 0 0 0-4.17-3.69v-8.2A3.084 3.084 0 0 0 37.23 0H23.32c-1.69 0-3.07 1.37-3.07 3.06v8.19H7.83c-2.17 0-3.99 1.56-4.33 3.69L0 34.95c-.01.07-.01.14-.01.21v9.08c0 2.06 1.69 3.75 3.76 3.75h40.49A3.76 3.76 0 0 0 48 44.24v-9.08ZM22.75 3.06c0-.31.25-.56.57-.56h13.91c.31 0 .57.25.57.56v8.19H22.75zM5.97 15.34c.15-.93.93-1.6 1.86-1.6h32.3c.93 0 1.71.67 1.87 1.62l3.24 18.56H2.73l3.24-18.57ZM44.23 45.5H3.74c-.69 0-1.25-.56-1.25-1.25v-7.84h42.99v7.84c0 .69-.56 1.25-1.25 1.25M9.53 17.36h2.5v2.5h-2.5zm0 5.92h2.5v2.5h-2.5zm0 5.92h2.5v2.5h-2.5zm6.06-11.84h2.5v2.5h-2.5zm0 5.92h2.5v2.5h-2.5zm0 5.92h2.5v2.5h-2.5zm6.25-11.84h2.5v2.5h-2.5zm6.24 0h2.5v2.5h-2.5zm6.25 0h2.5v2.5h-2.5zm-12.49 5.92h2.5v2.5h-2.5zm0 5.92h2.5v2.5h-2.5zM32.67 5.88h2.5v2.5h-2.5zm-4.59 17.4h2.5v2.5h-2.5zm0 5.92h2.5v2.5h-2.5zm8.76-4.67v5.92a1.25 1.25 0 0 1-2.5 0v-5.92a1.25 1.25 0 0 1 2.5 0M35.59 40.9c0 .69-.56 1.25-1.25 1.25H13.31a1.25 1.25 0 0 1 0-2.5h21.03c.69 0 1.25.56 1.25 1.25M24.72 5.88h6.03v2.5h-6.03z"/>
</svg>
