<svg viewBox="0 0 40 40" xmlns="http://www.w3.org/2000/svg">
  <path d="M39.95 29.25c0-.06.02-.13 0-.19l-2.9-16.6a3.716 3.716 0 0 0-3.46-3.13V2.6c0-1.45-1.18-2.62-2.63-2.62H19.41c-1.45 0-2.63 1.18-2.63 2.62v6.71H6.58c-1.84 0-3.39 1.32-3.68 3.13L0 29.05c-.01.06 0 .13 0 .19h-.03v7.37a3.37 3.37 0 0 0 3.37 3.36H36.6a3.37 3.37 0 0 0 3.37-3.36v-7.37h-.03ZM19.04 2.6c0-.21.17-.38.38-.38h11.55c.21 0 .38.17.38.38v6.71H19.03V2.6ZM5.11 12.81c.12-.73.73-1.26 1.46-1.26h26.8c.73 0 1.35.53 1.46 1.27l2.67 15.3H2.44zm31.5 24.93H3.35c-.62 0-1.12-.5-1.12-1.12v-6.25h35.5v6.25c0 .62-.5 1.12-1.12 1.12M7.9 14.38h2.25v2.24H7.9zm0 4.92h2.25v2.24H7.9zm0 4.91h2.25v2.24H7.9zm5.03-9.83h2.25v2.24h-2.25zm0 4.92h2.25v2.24h-2.25zm0 4.91h2.25v2.24h-2.25zm5.18-9.83h2.25v2.24h-2.25zm10.37 0h2.25v2.24h-2.25zM18.11 19.3h2.25v2.24h-2.25zm0 4.91h2.25v2.24h-2.25zm5.19-9.83h2.25v2.24H23.3zm3.8-9.52h2.25V7.1H27.1zM23.3 19.3h2.25v2.24H23.3zm0 4.91h2.25v2.24H23.3zm7.43-3.79v4.91c0 .62-.5 1.12-1.12 1.12s-1.12-.5-1.12-1.12v-4.91c0-.62.5-1.12 1.12-1.12s1.12.5 1.12 1.12M29.34 34c0 .62-.5 1.12-1.12 1.12H11.46c-.62 0-1.12-.5-1.12-1.12s.5-1.12 1.12-1.12h16.76c.62 0 1.12.5 1.12 1.12M20.59 4.86h5V7.1h-5z"/>
</svg>
