<svg viewBox="0 0 40 40" xmlns="http://www.w3.org/2000/svg">
  <path d="M1.1 30.37h37.75c.33 0 .65-.15.86-.4s.3-.59.25-.91l-2.9-16.6a3.716 3.716 0 0 0-3.46-3.13V2.6c0-1.45-1.18-2.62-2.63-2.62H19.42c-1.45 0-2.63 1.18-2.63 2.62v6.71H6.58c-1.84 0-3.39 1.32-3.68 3.13L0 29.05c-.06.33.03.66.25.91.21.25.53.4.86.4Zm19.26-3.92h-2.25v-2.24h2.25zm0-4.91h-2.25V19.3h2.25zm0-4.91h-2.25v-2.24h2.25zm5.18 9.82h-2.25v-2.24h2.25zm0-4.91h-2.25V19.3h2.25zm0-4.91h-2.25v-2.24h2.25zm5.19 8.7c0 .62-.5 1.12-1.12 1.12s-1.12-.5-1.12-1.12v-4.91c0-.62.5-1.12 1.12-1.12s1.12.5 1.12 1.12zm0-8.7h-2.25v-2.24h2.25zM27.1 4.86h2.25V7.1H27.1zm-6.51 0h5V7.1h-5zm-7.66 9.52h2.25v2.24h-2.25zm0 4.92h2.25v2.24h-2.25zm0 4.91h2.25v2.24h-2.25zM7.9 14.38h2.25v2.24H7.9zm0 4.92h2.25v2.24H7.9zm0 4.91h2.25v2.24H7.9zm30.95 8.02H-.02v4.38a3.37 3.37 0 0 0 3.37 3.36h33.26a3.37 3.37 0 0 0 3.37-3.36v-4.38h-1.12Zm-10.63 4.89H11.46c-.62 0-1.12-.5-1.12-1.12s.5-1.12 1.12-1.12h16.76c.62 0 1.12.5 1.12 1.12s-.5 1.12-1.12 1.12"/>
</svg>
