<svg viewBox="0 0 16 16" xmlns="http://www.w3.org/2000/svg">
  <path d="M15.93 11.61s.01-.09 0-.13l-1.11-6.14c-.1-.65-.56-1.17-1.15-1.37V1.35c0-.74-.6-1.35-1.35-1.35H7.77c-.73 0-1.34.61-1.34 1.35v2.51H2.79c-.86 0-1.59.62-1.73 1.46l-1.11 6.15v.13h-.02v2.15C-.07 14.99.94 16 2.18 16h11.5c1.24 0 2.25-1.01 2.25-2.25V11.6h-.02Zm-8-10.11h4.23v2.36H7.93zM2.55 5.57c.02-.12.12-.21.25-.21h10.29c.12 0 .23.09.25.22l.95 5.27H1.59l.96-5.29Zm11.14 8.93H2.19c-.41 0-.75-.34-.75-.75v-1.4h13v1.4c0 .41-.34.75-.75.75M3.98 6.23h1.5v1.5h-1.5zm0 2.21h1.5v1.5h-1.5zm2.25-2.21h1.5v1.5h-1.5zm0 2.21h1.5v1.5h-1.5zm2.25-2.21h1.5v1.5h-1.5zm0 2.21h1.5v1.5h-1.5zm3.81-1.46v2.25c0 .41-.34.75-.75.75s-.75-.34-.75-.75V6.98c0-.41.34-.75.75-.75s.75.34.75.75m-1.25 6.45c0 .41-.34.75-.75.75H5.6c-.41 0-.75-.34-.75-.75s.34-.75.75-.75h4.69c.41 0 .75.34.75.75m.53-11.5v1.5H8.51v-1.5z"/>
</svg>
