<svg viewBox="0 0 64 64" xmlns="http://www.w3.org/2000/svg">
  <path d="M64 29.25h-2.75v1.61l-4.28-1.77v-2.75h-2.75v1.61l-4.29-1.77h.01v-2.75h-2.75v1.62l-4.28-1.77v-2.75h-2.75v1.61l-2.84-1.17V0h-2.75v2.75h-6.11V0h-2.75v2.75h-5.67V0h-2.75v2.75h-5.67V0H8.87v2.75H2.75V0H0v64h64zm-2.75 4.59v3.51l-23.92-9.67v-3.72l23.92 9.89ZM34.56 61.25H2.75V5.5h31.81zm9.79 0v-9.01c0-1.67 1.36-3.03 3.03-3.03h1.8c1.67 0 3.03 1.36 3.03 3.03v9.01zm10.61 0v-9.01c0-3.19-2.59-5.78-5.78-5.78h-1.8c-3.19 0-5.78 2.59-5.78 5.78v9.01h-4.27V30.64l23.92 9.67v20.94zM26.85 20.7c0-3.87-3.14-7.01-7.02-7.01h-1.97c-3.87 0-7.02 3.14-7.02 7.01v14.69h16V20.7Zm-2.76 11.93h-10.5V20.69c0-2.35 1.91-4.26 4.27-4.26h1.97c2.35 0 4.27 1.91 4.27 4.26v11.94Z"/>
</svg>
