<svg viewBox="0 0 24 24" xmlns="http://www.w3.org/2000/svg">
  <path d="M12.26 1.75H9.92V0H8.17v1.75H5.83V0H4.08v1.75H1.75V0H0v24h13.99V2.55h.02V0h-1.75zm-2.2 11.52h-6V7.69c0-.35.07-.69.2-1s.32-.58.55-.81.51-.42.81-.55c.31-.13.64-.2 1-.2h.88a2.57 2.57 0 0 1 2.57 2.56v5.58Zm13.93-3.39v5.56l-9.13-3.57v-4.7h1.57v1.91l2.03.79V8.76h1.75v1.79l2.03.79V9.89h1.75Zm-9.13 3.86 9.13 3.57V24h-2.38v-4.35c0-.46-.14-.89-.38-1.25s-.58-.64-.98-.81c-.27-.11-.56-.17-.87-.17h-.56c-1.23 0-2.23 1-2.23 2.23V24h-1.73z"/>
</svg>
