<svg viewBox="0 0 40 40" xmlns="http://www.w3.org/2000/svg">
  <path d="M23.31 2.25V0h-2.25v2.25h-3.02V0h-2.25v2.25h-3.02V0h-2.25v2.25H7.5V0H5.25v2.25H2.23V0H0v40h23.32V2.25Zm-6.54 10.67v9.19h-10v-9.19c0-.3.03-.6.09-.88s.14-.56.25-.82c.22-.52.54-.99.94-1.39.79-.79 1.88-1.28 3.09-1.28h1.26c.3 0 .6.03.88.09s.56.14.82.25c.52.22.99.54 1.39.94s.72.87.94 1.39c.11.26.2.54.25.82.06.28.09.58.09.88M40 24.12l-15.55-6.14v-4.21l.37.15v-1.46h2.25v2.37l2.06.83v-1.51h2.25v2.42l2.06.83v-1.56h2.25v2.46l2.06.83v-1.56H40v6.58Zm-15.56-3.73 15.55 6.14V40h-3.65v-7.14c0-2.11-1.63-3.83-3.65-3.83h-1.06c-1.01 0-1.92.43-2.58 1.12s-1.07 1.65-1.07 2.71V40h-3.55V20.39Z"/>
</svg>
