<svg viewBox="0 0 32 32" xmlns="http://www.w3.org/2000/svg">
  <path d="M31.99 14.03h-2v1.17l-1.41-.56v-2h-2v1.2l-1.41-.56v-1.99h-2v1.19l-1.41-.56V9.95h-2v1.18l-1.1-.44V0h-2v2H14.5V0h-2v2h-2.16V0h-2v2H6.18V0h-2v2H2V0H0v32h32V14.03ZM16.65 30H2V4h14.66v26Zm13.34-12.64v1.93l-11.3-4.42v-2zM22.79 30v-3.98c0-.44.36-.8.8-.8h1.09c.44 0 .8.36.8.8V30H22.8Zm4.69 0v-3.98c0-1.54-1.25-2.8-2.8-2.8h-1.09c-1.54 0-2.8 1.25-2.8 2.8V30h-2.1V17.01l11.3 4.42V30h-2.52ZM13.42 10.27a3.43 3.43 0 0 0-3.43-3.43H8.84a3.43 3.43 0 0 0-3.43 3.43v7.43h8v-7.43Zm-2 5.42h-4v-5.43c0-.79.64-1.43 1.43-1.43H10c.79 0 1.43.64 1.43 1.43v5.43Z"/>
</svg>
