<svg viewBox="0 0 64 64" xmlns="http://www.w3.org/2000/svg">
  <path d="M63.99 32v-2.75h-2.75v1.61l-4.28-1.77v-2.75h-2.75v1.61l-4.29-1.77h.01v-2.75h-2.75v1.62l-4.28-1.77v-2.75h-2.75v1.61l-1.47-.61v6.68l25.31 10.24v-6.46ZM34.58 2.75h-5.89V0h-2.75v2.75h-5.89V0H17.3v2.75h-5.89V0H8.66v2.75H2.77V0H.02v2.75H0V64h37.31V3.63h.01V0h-2.75v2.75ZM26.84 20.7v14.69h-16V20.7a6.9 6.9 0 0 1 .56-2.73c.18-.42.39-.82.65-1.19a7 7 0 0 1 5.82-3.09h1.97c.48 0 .96.05 1.41.14.69.14 1.33.38 1.93.7.2.11.39.23.58.35a7.1 7.1 0 0 1 1.9 1.9c.26.38.47.77.65 1.19a6.9 6.9 0 0 1 .56 2.73ZM38.69 64h5.91V52.24c0-3.19 2.59-5.78 5.78-5.78h1.8c3.19 0 5.78 2.59 5.78 5.78V64H64V41.42L38.69 31.18v32.81Z"/>
</svg>
