<svg viewBox="0 0 40 40" xmlns="http://www.w3.org/2000/svg">
  <path d="M38.49 0h-37C.66 0 0 .67 0 1.5v27c0 .83.67 1.5 1.5 1.5h17.51v10l7.78-4.38L34.01 40V30h4.49c.83 0 1.5-.67 1.5-1.5v-27C39.99.67 39.32 0 38.49 0M21.25 22.83a7.46 7.46 0 0 0 4.12 2.05v8.96l-4.12 2.32V22.84Zm5.25-.11c-2.89 0-5.25-2.36-5.25-5.25s2.35-5.25 5.25-5.25 5.25 2.36 5.25 5.25-2.35 5.25-5.25 5.25m1.45 10.98-.32-.2v-8.63c1.59-.24 3.02-.98 4.12-2.05V36zm9.79-5.95H34V17.47c0-4.14-3.36-7.5-7.5-7.5s-7.5 3.36-7.5 7.5v10.28H2.24V2.25h35.49v25.5Zm-26.4-17.7H5.6V7.8h5.74zM34 7.18H19V4.93h15zm-19.95 8.68H5.6v-2.25h8.44v2.25Zm-2.71 5.71H5.6v-2.25h5.74z"/>
</svg>
