<svg viewBox="0 0 64 64" xmlns="http://www.w3.org/2000/svg">
  <path d="M42.39 15.95c-6.63 0-12 5.37-12 12v36.04l12.45-7 11.55 7V27.95c0-6.63-5.37-12-12-12M33.14 35.6c1.93 2.32 4.71 3.91 7.87 4.27v14.86h.25l-8.12 4.56zm18.49 23.51-7.37-4.47-.5-.3V39.87c3.16-.36 5.94-1.94 7.87-4.27zM42.39 37.2c-5.1 0-9.25-4.15-9.25-9.25s4.15-9.25 9.25-9.25 9.25 4.15 9.25 9.25-4.15 9.25-9.25 9.25M63.92 1.99c-.07-.33-.2-.63-.38-.89A2.48 2.48 0 0 0 61.47 0H2.48A2.51 2.51 0 0 0-.03 2.5v43a2.5 2.5 0 0 0 2.5 2.5h26.69V29.88c-.09-.63-.16-1.27-.16-1.93 0-7.38 6-13.38 13.38-13.38s13.38 6 13.38 13.38c0 .66-.06 1.3-.16 1.93V48h5.86a2.5 2.5 0 0 0 2.5-2.5v-43c0-.17-.02-.34-.05-.5ZM6.95 12.91h9.18v2.75H6.95zm9.18 21.17H6.95v-2.75h9.18zm4.34-9.13H6.95V22.2h13.51v2.75ZM54.39 8.81h-24V6.06h24z"/>
</svg>
