<svg viewBox="0 0 16 16" xmlns="http://www.w3.org/2000/svg">
  <path d="M10.86 3.99c-1.66 0-3 1.34-3 3V16l3.11-1.75L13.86 16V6.99c0-1.66-1.34-3-3-3m0 1.5c.83 0 1.5.67 1.5 1.5s-.67 1.5-1.5 1.5-1.5-.67-1.5-1.5.67-1.5 1.5-1.5m-1.5 4.08c.23.14.48.24.75.31v3.13l-.75.42zm2.39 3.4-.14-.08v-3c.27-.07.52-.17.75-.31v3.76zM15.5 0H.5a.51.51 0 0 0-.5.5v11a.51.51 0 0 0 .5.5h6.66V7.59c-.03-.2-.06-.39-.06-.6s.03-.4.06-.6v-.15h.02c.35-1.71 1.86-3 3.67-3 2.07 0 3.75 1.68 3.75 3.75 0 .29-.04.57-.1.84V12h1c.28 0 .5-.22.5-.5V.5c0-.28-.22-.5-.5-.5M1.62 2.82h2.71v1.5H1.62zm3.97 4.51H1.62v-1.5h3.96v1.5Z"/>
</svg>
