<svg viewBox="0 0 24 24" xmlns="http://www.w3.org/2000/svg">
  <path d="M23 0H1C.45 0 0 .45 0 1v16c0 .55.45 1 1 1h10.4v6l4.67-2.62L20.4 24v-6h2.59c.55 0 1-.45 1-1V1c0-.55-.45-1-1-1Zm-9.84 14.02c.54.42 1.17.73 1.87.87v5.06L13.16 21zm2.75-.79c-1.52 0-2.75-1.23-2.75-2.75s1.23-2.75 2.75-2.75 2.75 1.23 2.75 2.75-1.23 2.75-2.75 2.75m1.07 6.65-.2-.12V14.9c.7-.14 1.33-.45 1.87-.87v6.87l-1.67-1.01Zm5.27-3.63h-1.84v-5.77c0-2.49-2.01-4.5-4.5-4.5s-4.5 2.01-4.5 4.5v5.77H1.75V1.75h20.5zM7.37 6.23H3.93V4.48h3.44zM20.4 4.88h-9V3.13h9zM9 9.72H3.93V7.97H9zm-1.63 3.42H3.93v-1.75h3.44z"/>
</svg>
