<svg viewBox="0 0 32 32" xmlns="http://www.w3.org/2000/svg">
  <path d="M21.2 8.73c-3.31 0-6 2.69-6 6V32l6.22-3.5L27.2 32V14.73c0-3.31-2.69-6-6-6m0 2c2.2 0 4 1.79 4 4s-1.79 4-4 4-4-1.79-4-4 1.79-4 4-4m-4 8.46c.83.74 1.85 1.25 3 1.44v6.26l-3 1.68v-9.39Zm5.26 7.6-.26-.16v-5.99c1.14-.19 2.17-.7 3-1.44v9.25l-2.73-1.66ZM30.49 0H1.5C.67 0 0 .67 0 1.5v21c0 .83.67 1.5 1.5 1.5h12.85v-7.82a7.008 7.008 0 0 1 6.85-8.45 7.008 7.008 0 0 1 6.85 8.45V24h2.44c.83 0 1.5-.67 1.5-1.5v-21c0-.83-.67-1.5-1.5-1.5m-27 6.14h4.59v2H3.49zm4.58 11.21H3.49v-2h4.59v2Zm2.17-4.56H3.49v-2h6.76v2ZM27.2 4.84h-12v-2h12z"/>
</svg>
