<svg viewBox="0 0 32 32" xmlns="http://www.w3.org/2000/svg">
  <path d="M27.6 14.83H10.49V13.1L5.06 0 .01 12.93-.01 32h32V19.72zM11.02 30v-3.75c0-.46.37-.83.83-.83s.83.37.83.83V30h-1.67Zm7.12 0v-3.75c0-.46.37-.83.83-.83s.83.37.83.83V30h-1.67Zm7.13 0v-3.75c0-.46.37-.83.83-.83s.83.37.83.83V30h-1.67Zm3.66 0v-3.75c0-1.56-1.27-2.83-2.83-2.83s-2.83 1.27-2.83 2.83V30h-1.46v-3.75c0-1.56-1.27-2.83-2.83-2.83s-2.83 1.27-2.83 2.83V30h-1.46v-3.75c0-1.56-1.27-2.83-2.83-2.83s-2.83 1.27-2.83 2.83V30H1.99l.02-16.69 3.11-7.95 3.37 8.15v3.33h18.22l2.19 2.44H8.41v2h21.58v8.73h-1.05Z"/>
</svg>
