<svg viewBox="0 0 48 48" xmlns="http://www.w3.org/2000/svg">
  <path d="M41.4 22.25H15.74v-2.59L7.6 0 .02 19.4-.01 48h48V29.59zM16.35 45.5v-6.12c0-.96.79-1.75 1.75-1.75s1.75.79 1.75 1.75v6.12zm10.69 0v-6.12c0-.96.79-1.75 1.75-1.75s1.75.79 1.75 1.75v6.12zm10.69 0v-6.12c0-.96.79-1.75 1.75-1.75s1.75.79 1.75 1.75v6.12zm6 0v-6.12c0-2.35-1.9-4.25-4.25-4.25s-4.25 1.9-4.25 4.25v6.12h-2.19v-6.12c0-2.35-1.9-4.25-4.25-4.25s-4.25 1.9-4.25 4.25v6.12h-2.19v-6.12c0-2.35-1.9-4.25-4.25-4.25s-4.25 1.9-4.25 4.25v6.12H2.49l.03-25.63L7.67 6.7l5.57 13.46v4.59h27.05l3.96 4.41H12.94v2.5h32.55V45.5z"/>
</svg>
