<svg viewBox="0 0 40 40" xmlns="http://www.w3.org/2000/svg">
  <path d="M40.01 18.42c0 4.76-3.33 8.76-7.79 9.79-.14-.77-.51-1.51-1.1-2.1a3.996 3.996 0 0 0-5.65 0l-1.41 1.41V12.16h-8v15.36l-1.41-1.41a3.996 3.996 0 0 0-5.65 0c-.31.31-.54.67-.73 1.04C3.4 24.87.01 19.95.01 14.23.01 6.38 6.4 0 14.25 0c5.71 0 10.88 3.48 13.09 8.74.9-.25 1.76-.38 2.61-.38 5.55 0 10.06 4.51 10.06 10.06m-13.28 9.25-4.67 4.67V14.88h-4v17.46l-4.67-4.67c-.78-.78-2.05-.78-2.83 0s-.78 2.05 0 2.83l9.5 9.5 9.5-9.5c.78-.78.78-2.05 0-2.83s-2.05-.78-2.83 0"/>
</svg>
