<svg viewBox="0 0 64 64" xmlns="http://www.w3.org/2000/svg">
  <path d="M64.02 29.46c0 8.18-6.22 14.94-14.18 15.78-.24-.54-.57-1.06-1.02-1.5a5.003 5.003 0 0 0-7.07 0l-1.59 1.6H37.1V21.59h-10v23.75h-3.06l-1.59-1.6a5.003 5.003 0 0 0-7.07 0c-.09.09-.16.2-.24.3C6.33 40.92.02 32.52.02 22.67.02 10.17 10.18 0 22.67 0c9.21 0 17.55 5.73 20.97 14.31 1.56-.48 3.04-.72 4.51-.72 8.75 0 15.86 7.12 15.86 15.87ZM43.27 45.75l-8.67 8.68V24.78h-5v29.65l-8.67-8.68c-.98-.98-2.56-.98-3.54 0s-.98 2.56 0 3.54L32.1 64.01l14.71-14.72c.98-.98.98-2.56 0-3.54s-2.56-.98-3.54 0"/>
</svg>
