<svg viewBox="0 0 40 40" xmlns="http://www.w3.org/2000/svg">
  <path d="M40.01 18.46c0 4.93-3.5 9.06-8.15 10.03v-2.32c3.4-.93 5.9-4.03 5.9-7.71 0-4.41-3.59-8-8-8-.84 0-1.7.16-2.62.48l-1.05.37-.38-1.05c-1.73-4.79-6.29-8-11.34-8-6.68 0-12.11 5.42-12.11 12.1 0 4.52 2.5 8.47 6.18 10.55v2.51C3.48 25.16.01 20.16.01 14.36.01 6.45 6.45 0 14.36 0 20 0 25.12 3.38 27.42 8.51c.8-.2 1.57-.3 2.34-.3 5.65 0 10.25 4.6 10.25 10.25M27.17 29.69l-6.01 6.01V15.72h-2.25V35.7l-6.01-6.01c-.44-.44-1.15-.44-1.59 0s-.44 1.15 0 1.59L20.04 40l8.72-8.72c.44-.44.44-1.15 0-1.59s-1.15-.44-1.59 0"/>
</svg>
