<svg viewBox="0 0 24 24" xmlns="http://www.w3.org/2000/svg">
  <path d="M24.01 11.14c0 2.99-2.1 5.5-4.91 6.12v-1.83c1.83-.58 3.16-2.27 3.16-4.29a4.52 4.52 0 0 0-4.51-4.52c-.47 0-.95.09-1.48.27l-.82.29-.29-.82c-.99-2.75-3.6-4.6-6.49-4.6-3.82 0-6.93 3.12-6.93 6.95 0 2.51 1.34 4.7 3.33 5.93v1.98C2.09 15.25 0 12.22 0 8.72 0 3.92 3.9.01 8.68.01c3.35 0 6.39 1.98 7.81 5 .43-.09.84-.14 1.26-.14 3.45 0 6.25 2.82 6.25 6.28Zm-7.93 6.33-3.18 3.2V9.36h-1.75v11.31l-3.18-3.2a.88.88 0 0 0-1.24 0c-.34.34-.34.9 0 1.24l5.29 5.31 5.29-5.31c.34-.34.34-.9 0-1.24a.88.88 0 0 0-1.24 0Z"/>
</svg>
