<svg viewBox="0 0 32 32" xmlns="http://www.w3.org/2000/svg">
  <path d="M32.01 14.83c0 4-2.83 7.35-6.58 8.13V20.9c2.65-.74 4.6-3.17 4.6-6.07 0-3.47-2.81-6.3-6.26-6.3a6 6 0 0 0-2.05.38l-.93.32-.33-.93c-1.36-3.79-4.95-6.34-8.92-6.34C6.27 1.97 2 6.27 2 11.55c0 3.56 1.94 6.67 4.82 8.32v2.24C2.81 20.29 0 16.25 0 11.55 0 5.17 5.17-.03 11.52-.03c4.49 0 8.58 2.69 10.44 6.78a7.5 7.5 0 0 1 1.8-.22c4.55 0 8.25 3.72 8.25 8.3m-10.38 8.68-4.61 4.64V12.41h-1.99v15.74l-4.61-4.64c-.39-.39-1.02-.39-1.4 0s-.39 1.02 0 1.41l7.01 7.05 7.01-7.05c.39-.39.39-1.02 0-1.41s-1.02-.39-1.4 0Z"/>
</svg>
