<svg viewBox="0 0 32 32" xmlns="http://www.w3.org/2000/svg">
  <path d="M32.01 14.79c0 3.72-2.51 6.86-5.93 7.82-.1-.73-.42-1.44-.98-2.01a3.483 3.483 0 0 0-4.94 0l-.62.62V9.53h-6.99v11.69l-.62-.62a3.483 3.483 0 0 0-4.94 0c-.32.32-.55.68-.72 1.07C2.56 19.78 0 15.92 0 11.47 0 5.16 5.14.02 11.45.02c4.53 0 8.65 2.75 10.45 6.9.68-.18 1.33-.27 1.98-.27 4.48 0 8.12 3.65 8.12 8.13Zm-10.74 7.05-3.48 3.48V11.71H14.3v13.61l-3.48-3.48c-.68-.68-1.79-.68-2.47 0s-.68 1.79 0 2.47l7.7 7.7 7.7-7.7c.68-.68.68-1.79 0-2.47s-1.79-.68-2.47 0Z"/>
</svg>
