<svg viewBox="0 0 48 48" xmlns="http://www.w3.org/2000/svg">
  <path d="M48.01 22.16c0 5.91-4.21 10.86-9.78 12v-2.58c4.18-1.1 7.28-4.9 7.28-9.42 0-5.38-4.37-9.75-9.75-9.75-1.02 0-2.07.19-3.2.59l-1.17.41-.42-1.16c-2.1-5.81-7.64-9.72-13.77-9.72-8.1 0-14.7 6.59-14.7 14.7 0 5.54 3.08 10.37 7.62 12.87v2.78C4.17 30.17.01 24.17.01 17.21.01 7.73 7.73.02 17.21.02c6.78 0 12.94 4.08 15.67 10.27.98-.25 1.93-.38 2.88-.38 6.76 0 12.25 5.5 12.25 12.25M32.68 35.85l-7.38 7.38V18.99h-2.5v24.24l-7.38-7.38c-.49-.49-1.28-.49-1.77 0s-.49 1.28 0 1.77l10.4 10.4 10.4-10.4c.49-.49.49-1.28 0-1.77s-1.28-.49-1.77 0"/>
</svg>
