<svg viewBox="0 0 24 24" xmlns="http://www.w3.org/2000/svg">
  <path d="M24.01 11.1c0 2.69-1.72 4.98-4.12 5.83a3 3 0 0 0-.87-2.01c-1.09-1.09-2.8-1.15-3.98-.22V6.96h-6v7.74c-1.18-.93-2.89-.87-3.98.22-.35.35-.58.77-.72 1.21C1.75 14.63 0 11.84 0 8.65 0 3.89 3.88.01 8.64.01c3.37 0 6.43 2.01 7.83 5.06.46-.11.9-.16 1.35-.16 3.41 0 6.19 2.78 6.19 6.19m-8.18 4.87-2.29 2.29V8.5h-3v9.76l-2.29-2.29c-.59-.59-1.54-.59-2.12 0s-.59 1.54 0 2.12l5.92 5.92 5.92-5.92c.59-.59.59-1.54 0-2.12s-1.54-.59-2.12 0Z"/>
</svg>
