<svg viewBox="0 0 16 16" xmlns="http://www.w3.org/2000/svg">
  <path d="M11.03 5.39a5.83 5.83 0 0 0-5.19-3.21C2.62 2.18 0 4.79 0 8s2.62 5.82 5.83 5.82h5.91c2.35 0 4.26-1.91 4.26-4.25 0-2.58-2.35-4.67-4.97-4.18m.72 6.93H5.84c-2.39 0-4.33-1.94-4.33-4.32s1.94-4.32 4.33-4.32c1.81 0 3.43 1.15 4.05 2.86l.25.7.7-.24c.32-.11.62-.17.9-.17 1.52 0 2.75 1.23 2.75 2.75s-1.24 2.75-2.75 2.75ZM5.03 7.19c.32 0 .62.04.86.11v.77c-.2-.09-.46-.17-.79-.17-.65 0-1.09.36-1.09 1.08s.45 1.07 1.09 1.07c.33 0 .59-.08.79-.17v.77c-.24.06-.54.1-.86.1-1.21 0-1.95-.69-1.95-1.78s.74-1.79 1.95-1.79Zm2.9 0c-1.09 0-1.77.65-1.77 1.79s.69 1.78 1.77 1.78 1.77-.65 1.77-1.78-.69-1.79-1.77-1.79m0 2.87c-.49 0-.85-.37-.85-1.08s.36-1.09.85-1.09.84.37.84 1.09-.36 1.08-.84 1.08m3.8-.12h.79v.41h-1.47v-.41c.45-.35.91-.72.91-1.03 0-.18-.15-.26-.35-.26-.17 0-.37.07-.52.17v-.44c.14-.07.4-.14.64-.14.44 0 .76.21.76.62 0 .36-.24.65-.76 1.08"/>
</svg>
