<svg viewBox="0 0 32 32" xmlns="http://www.w3.org/2000/svg">
  <path d="M23.75 10.98c-.59 0-1.19.07-1.8.22-1.86-4.06-5.94-6.73-10.44-6.73C5.17 4.47 0 9.63 0 15.97s5.16 11.5 11.51 11.5h12.23c4.55 0 8.25-3.7 8.25-8.24s-3.7-8.24-8.25-8.24Zm0 14.49H11.52c-5.24 0-9.51-4.26-9.51-9.5s4.26-9.5 9.5-9.5c3.97 0 7.55 2.52 8.91 6.28l.34.93.93-.33c.73-.25 1.4-.38 2.05-.38 3.45 0 6.25 2.8 6.25 6.24s-2.8 6.24-6.25 6.24ZM9.53 14.38c.64 0 1.23.08 1.71.21v1.54c-.39-.18-.91-.33-1.57-.33-1.29 0-2.18.72-2.18 2.15s.89 2.14 2.18 2.14c.66 0 1.17-.15 1.57-.33v1.54c-.48.12-1.07.21-1.71.21-2.42 0-3.89-1.38-3.89-3.56s1.48-3.57 3.89-3.57m5.8 0c-2.17 0-3.54 1.3-3.54 3.57s1.37 3.56 3.54 3.56 3.53-1.3 3.53-3.56-1.37-3.57-3.53-3.57m0 5.73c-.98 0-1.69-.73-1.69-2.16s.71-2.17 1.69-2.17 1.68.73 1.68 2.17-.71 2.16-1.68 2.16m9.12-.25h1.57v.82h-2.94v-.82c.89-.69 1.83-1.45 1.83-2.05 0-.35-.29-.51-.7-.51-.35 0-.74.14-1.03.33v-.88c.29-.14.79-.28 1.28-.28.88 0 1.51.43 1.51 1.24 0 .71-.49 1.29-1.51 2.15Z"/>
</svg>
