<svg viewBox="0 0 16 16" xmlns="http://www.w3.org/2000/svg">
  <path d="M8.77 8.98c0 .72-.36 1.08-.84 1.08s-.85-.37-.85-1.08.36-1.09.85-1.09.84.37.84 1.09m7.23.59c0 2.34-1.91 4.25-4.26 4.25H5.83C2.62 13.82 0 11.21 0 8s2.62-5.82 5.84-5.82c2.2 0 4.21 1.27 5.19 3.21C13.66 4.9 16 6.99 16 9.57M5.88 7.3c-.24-.07-.54-.11-.86-.11-1.21 0-1.95.69-1.95 1.79s.74 1.78 1.95 1.78c.32 0 .62-.04.86-.1v-.77c-.2.09-.46.17-.79.17-.65 0-1.09-.37-1.09-1.07s.45-1.08 1.09-1.08c.33 0 .59.08.79.17v-.77ZM9.7 8.98c0-1.14-.69-1.79-1.77-1.79s-1.77.65-1.77 1.79.69 1.78 1.77 1.78 1.77-.65 1.77-1.78m2.82.96h-.79c.51-.43.76-.72.76-1.08 0-.41-.32-.62-.76-.62-.24 0-.5.07-.64.14v.44c.15-.1.34-.17.52-.17.21 0 .35.08.35.26 0 .3-.47.68-.91 1.03v.41h1.47z"/>
</svg>
