<svg viewBox="0 0 64 64" xmlns="http://www.w3.org/2000/svg">
  <path d="M47.82 22.42c-1.33 0-2.66.19-4.05.56-3.58-8.34-11.83-13.85-20.92-13.85C10.25 9.13 0 19.37 0 31.94s10.25 22.81 22.84 22.81h24.97C56.74 54.75 64 47.5 64 38.59s-7.26-16.16-16.19-16.16Zm0 29.58H22.85C11.77 52 2.76 43 2.76 31.94s9.01-20.06 20.08-20.06c8.38 0 15.94 5.33 18.82 13.26l.46 1.28 1.29-.45c1.55-.54 2.99-.8 4.41-.8 7.41 0 13.43 6.02 13.43 13.41s-6.03 13.41-13.43 13.41ZM19.04 28.7c1.28 0 2.46.16 3.43.42v3.08c-.78-.36-1.82-.66-3.15-.66-2.58 0-4.37 1.44-4.37 4.3s1.78 4.28 4.37 4.28c1.32 0 2.34-.3 3.15-.66v3.08c-.96.24-2.14.42-3.43.42-4.85 0-7.79-2.76-7.79-7.12s2.97-7.14 7.79-7.14m11.59 0c-4.35 0-7.09 2.6-7.09 7.14s2.74 7.12 7.09 7.12 7.07-2.6 7.07-7.12-2.74-7.14-7.07-7.14m0 11.46c-1.96 0-3.39-1.46-3.39-4.32s1.42-4.34 3.39-4.34S34 32.96 34 35.84s-1.42 4.32-3.37 4.32m18.73-.49h3.13v1.64h-5.87v-1.63c1.79-1.38 3.65-2.89 3.65-4.1 0-.71-.59-1.02-1.41-1.02-.7 0-1.48.28-2.07.66v-1.75c.58-.29 1.59-.56 2.56-.56 1.75 0 3.02.85 3.02 2.47 0 1.43-.97 2.58-3.02 4.29Z"/>
</svg>
