<svg viewBox="0 0 48 48" xmlns="http://www.w3.org/2000/svg">
  <path d="M35.75 16.67c-.95 0-1.89.12-2.88.38C30.14 10.87 23.98 6.8 17.2 6.8 7.72 6.79 0 14.5 0 23.97s7.71 17.18 17.2 17.18h18.55c6.76 0 12.25-5.49 12.25-12.24s-5.5-12.24-12.25-12.24m0 21.98H17.2c-8.1 0-14.69-6.58-14.69-14.68S9.1 9.29 17.2 9.29c6.13 0 11.66 3.9 13.76 9.71l.42 1.16 1.17-.41c1.13-.39 2.18-.58 3.2-.58 5.38 0 9.75 4.37 9.75 9.74s-4.37 9.74-9.75 9.74M14.28 21.54c.96 0 1.85.12 2.57.32v2.31c-.59-.27-1.37-.5-2.36-.5-1.94 0-3.27 1.08-3.27 3.22s1.34 3.21 3.27 3.21c.99 0 1.76-.22 2.36-.5v2.31c-.72.18-1.61.31-2.57.31-3.63 0-5.84-2.07-5.84-5.34s2.22-5.35 5.84-5.35Zm8.69 0c-3.26 0-5.32 1.95-5.32 5.35s2.06 5.34 5.32 5.34 5.3-1.95 5.3-5.34-2.06-5.35-5.3-5.35m0 8.59c-1.47 0-2.54-1.09-2.54-3.24s1.07-3.25 2.54-3.25 2.52 1.1 2.52 3.25-1.07 3.24-2.52 3.24m13.67-.37h2.35v1.23h-4.41v-1.22c1.34-1.04 2.74-2.17 2.74-3.08 0-.53-.44-.76-1.05-.76-.52 0-1.11.21-1.55.5v-1.31c.43-.22 1.19-.42 1.92-.42 1.32 0 2.26.64 2.26 1.85 0 1.07-.73 1.94-2.26 3.22Z"/>
</svg>
