<svg viewBox="0 0 32 32" xmlns="http://www.w3.org/2000/svg">
  <path d="M17.01 17.95c0 1.43-.71 2.16-1.68 2.16s-1.69-.73-1.69-2.16.71-2.17 1.69-2.17 1.68.73 1.68 2.17M32 19.22c0 4.55-3.7 8.24-8.25 8.24H11.52C5.17 27.47 0 22.31 0 15.97s5.17-11.5 11.51-11.5c4.49 0 8.58 2.67 10.44 6.73.61-.15 1.2-.22 1.8-.22 4.55 0 8.25 3.7 8.25 8.24m-20.76-4.63c-.48-.13-1.07-.21-1.71-.21-2.41 0-3.89 1.38-3.89 3.57s1.47 3.56 3.89 3.56c.64 0 1.23-.09 1.71-.21v-1.54c-.4.18-.91.33-1.57.33-1.29 0-2.18-.73-2.18-2.14s.89-2.15 2.18-2.15c.66 0 1.18.15 1.57.33zm7.62 3.36c0-2.27-1.37-3.57-3.53-3.57s-3.54 1.3-3.54 3.57 1.37 3.56 3.54 3.56 3.53-1.3 3.53-3.56m7.15 1.91h-1.57c1.02-.86 1.51-1.43 1.51-2.15 0-.81-.63-1.24-1.51-1.24-.49 0-.99.14-1.28.28v.88c.29-.19.68-.33 1.03-.33.41 0 .7.16.7.51 0 .61-.93 1.36-1.83 2.05v.82H26v-.82Z"/>
</svg>
