<svg viewBox="0 0 40 40" xmlns="http://www.w3.org/2000/svg">
  <path d="M29.75 13.81c-.77 0-1.54.1-2.34.3-2.3-5.12-7.42-8.5-13.05-8.5C6.44 5.61 0 12.04 0 19.95S6.44 34.3 14.35 34.3h15.39c5.65 0 10.25-4.6 10.25-10.25S35.39 13.8 29.74 13.8Zm0 18.24H14.36c-6.67 0-12.1-5.43-12.1-12.1S7.68 7.86 14.36 7.86c5.05 0 9.61 3.22 11.34 8l.38 1.05 1.05-.37c.93-.32 1.79-.48 2.62-.48 4.41 0 8 3.59 8 8s-3.59 8-8 8ZM11.91 17.97c.8 0 1.54.1 2.14.26v1.92c-.49-.23-1.14-.41-1.96-.41-1.61 0-2.73.9-2.73 2.69s1.11 2.67 2.73 2.67c.83 0 1.46-.19 1.96-.41v1.92c-.6.15-1.34.26-2.14.26-3.03 0-4.86-1.72-4.86-4.45s1.85-4.46 4.86-4.46Zm7.24 0c-2.71 0-4.43 1.62-4.43 4.46s1.71 4.45 4.43 4.45 4.41-1.62 4.41-4.45-1.71-4.46-4.41-4.46m0 7.16c-1.23 0-2.11-.91-2.11-2.7s.89-2.71 2.11-2.71 2.1.91 2.1 2.71-.89 2.7-2.1 2.7m11.14-.31h1.96v1.03h-3.67v-1.02c1.12-.86 2.28-1.81 2.28-2.57 0-.44-.37-.64-.88-.64-.44 0-.92.17-1.29.41v-1.1c.36-.18.99-.35 1.6-.35 1.1 0 1.88.53 1.88 1.55 0 .89-.61 1.61-1.88 2.69"/>
</svg>
