<svg viewBox="0 0 40 40" xmlns="http://www.w3.org/2000/svg">
  <path d="M21.25 22.44c0 1.79-.89 2.7-2.1 2.7s-2.11-.91-2.11-2.7.89-2.71 2.11-2.71 2.1.91 2.1 2.71m18.74 1.62c0 5.65-4.6 10.25-10.25 10.25H14.36C6.45 34.31.01 27.87.01 19.96S6.45 5.61 14.36 5.61c5.64 0 10.75 3.37 13.05 8.5.8-.2 1.57-.3 2.34-.3 5.65 0 10.25 4.6 10.25 10.25Zm-25.94-5.82c-.6-.16-1.34-.26-2.14-.26-3.01 0-4.86 1.72-4.86 4.46s1.84 4.45 4.86 4.45c.8 0 1.54-.11 2.14-.26v-1.92c-.5.22-1.14.41-1.96.41-1.61 0-2.72-.91-2.72-2.67s1.11-2.69 2.72-2.69c.83 0 1.47.19 1.96.41v-1.92Zm9.52 4.2c0-2.84-1.71-4.46-4.41-4.46s-4.42 1.62-4.42 4.46 1.71 4.45 4.42 4.45 4.41-1.62 4.41-4.45m8.67 2.39h-1.96c1.28-1.07 1.88-1.79 1.88-2.69 0-1.01-.79-1.55-1.88-1.55-.61 0-1.24.17-1.6.35v1.1c.37-.24.86-.41 1.29-.41.51 0 .88.2.88.64 0 .76-1.16 1.7-2.28 2.57v1.02h3.67z"/>
</svg>
