<svg viewBox="0 0 16 16" xmlns="http://www.w3.org/2000/svg">
  <path d="M16 7.39c0-2.58-2.36-4.67-4.97-4.18A5.83 5.83 0 0 0 5.84 0C2.62 0 0 2.61 0 5.82c0 2.72 1.88 5 4.41 5.64v1.67l-.4-.4c-.29-.29-.77-.29-1.06 0s-.29.77 0 1.06l1.46 1.46.75.74.75-.74 1.46-1.46c.29-.29.29-.77 0-1.06s-.77-.29-1.06 0l-.4.4v-1.48h4.86v1.49l-.4-.4c-.29-.29-.77-.29-1.06 0s-.29.77 0 1.06l1.46 1.46.75.74.75-.74 1.46-1.46c.29-.29.29-.77 0-1.06s-.77-.29-1.06 0l-.4.4V11.6c2.1-.26 3.73-2.03 3.73-4.2ZM1.51 5.82c0-2.39 1.94-4.33 4.33-4.33 1.81 0 3.43 1.15 4.05 2.86l.25.7.7-.25c.32-.11.61-.17.9-.17 1.52 0 2.75 1.23 2.75 2.75s-1.24 2.75-2.75 2.75H5.83A4.33 4.33 0 0 1 1.5 5.81Zm3.45-1c.32 0 .62.04.86.11v.77c-.2-.09-.46-.17-.79-.17-.65 0-1.09.36-1.09 1.08s.45 1.07 1.09 1.07c.33 0 .59-.08.79-.17v.77c-.24.06-.54.1-.86.1-1.21 0-1.95-.69-1.95-1.78s.74-1.79 1.95-1.79Zm2.9 3.57c1.08 0 1.77-.65 1.77-1.78s-.69-1.79-1.77-1.79-1.77.65-1.77 1.79.69 1.78 1.77 1.78m0-2.87c.49 0 .84.37.84 1.09s-.36 1.08-.84 1.08-.85-.37-.85-1.08.36-1.09.85-1.09m4.59 2.46h-1.47v-.41c.45-.35.91-.72.91-1.03 0-.18-.15-.26-.35-.26-.17 0-.37.07-.52.17v-.44c.14-.07.4-.14.64-.14.44 0 .76.21.76.62 0 .36-.24.65-.76 1.08h.79z"/>
</svg>
