<svg viewBox="0 0 40 40" xmlns="http://www.w3.org/2000/svg">
  <path d="M40.01 18.46c0-5.65-4.6-10.24-10.25-10.24-.77 0-1.54.1-2.34.3C25.12 3.39 20 .02 14.37.02 6.45.02.01 6.45.01 14.36c0 6.61 4.5 12.17 10.6 13.82v4.18l-.96-.96c-.78-.78-2.05-.78-2.83 0s-.78 2.05 0 2.83l5.79 5.79 5.79-5.79c.78-.78.78-2.05 0-2.83s-2.05-.78-2.83 0l-.96.96V28.7h12.55v3.66l-.96-.96c-.78-.78-2.05-.78-2.83 0s-.78 2.05 0 2.83l5.79 5.79 5.79-5.79c.78-.78.78-2.05 0-2.83s-2.05-.78-2.83 0l-.96.96v-3.77C36.15 27.9 40 23.62 40 18.46ZM6.99 16.44c0-2.85 1.93-4.65 5.07-4.65.83 0 1.6.1 2.23.27v2.01c-.51-.23-1.19-.43-2.05-.43-1.68 0-2.84.94-2.84 2.8s1.16 2.79 2.84 2.79c.86 0 1.53-.2 2.05-.43v2.01c-.63.16-1.4.27-2.23.27-3.16 0-5.07-1.8-5.07-4.64m12.62 4.64c-2.83 0-4.62-1.69-4.62-4.64s1.79-4.65 4.62-4.65 4.61 1.69 4.61 4.65-1.79 4.64-4.61 4.64m8.13-2.14c1.17-.9 2.38-1.88 2.38-2.67 0-.46-.38-.66-.92-.66-.45 0-.96.18-1.35.43V14.9c.38-.19 1.03-.37 1.67-.37 1.14 0 1.96.55 1.96 1.61 0 .93-.63 1.68-1.96 2.8h2.04v1.07h-3.82v-1.06Zm-5.94-2.5c0 1.86-.93 2.81-2.19 2.81s-2.2-.95-2.2-2.81.93-2.83 2.2-2.83 2.19.95 2.19 2.83"/>
</svg>
