<svg viewBox="0 0 40 40" xmlns="http://www.w3.org/2000/svg">
  <path d="M40.01 18.46c0-5.65-4.6-10.25-10.25-10.25-.77 0-1.54.1-2.34.3C25.12 3.38 20 0 14.37 0 6.45 0 .01 6.44.01 14.36c0 6.92 4.93 12.72 11.47 14.05v7.29l-2.45-2.45c-.44-.44-1.15-.44-1.59 0s-.44 1.15 0 1.59l5.17 5.17 5.17-5.17c.44-.44.44-1.15 0-1.59s-1.15-.44-1.59 0l-2.45 2.45v-7.03c.21 0 .42.03.63.03h13.67v6.99l-2.45-2.45c-.44-.44-1.15-.44-1.59 0s-.44 1.15 0 1.59L29.17 40l5.17-5.17c.44-.44.44-1.15 0-1.59s-1.15-.44-1.59 0l-2.45 2.45v-7.02c5.4-.28 9.72-4.75 9.72-10.22Zm-37.75-4.1c0-6.67 5.43-12.1 12.11-12.1 5.05 0 9.6 3.22 11.34 8l.38 1.05 1.05-.37c.93-.32 1.79-.48 2.62-.48 4.41 0 8 3.59 8 8s-3.59 8-8 8H14.37c-6.67 0-12.1-5.43-12.1-12.1Zm9.8-2.58c.83 0 1.6.1 2.23.27v2.01c-.51-.23-1.19-.43-2.05-.43-1.68 0-2.84.94-2.84 2.8s1.16 2.79 2.84 2.79c.86 0 1.53-.2 2.05-.43v2.01c-.63.16-1.4.27-2.23.27-3.16 0-5.07-1.8-5.07-4.64s1.93-4.65 5.07-4.65m7.55 0c-2.83 0-4.62 1.7-4.62 4.65s1.79 4.64 4.62 4.64 4.61-1.7 4.61-4.64-1.79-4.65-4.61-4.65m0 7.47c-1.28 0-2.2-.95-2.2-2.82s.93-2.83 2.2-2.83 2.19.95 2.19 2.83-.93 2.82-2.19 2.82m11.95.75h-3.82v-1.06c1.17-.9 2.38-1.88 2.38-2.67 0-.46-.38-.66-.92-.66-.45 0-.96.18-1.35.43V14.9c.38-.19 1.03-.37 1.67-.37 1.14 0 1.96.55 1.96 1.61 0 .93-.63 1.68-1.96 2.8h2.04v1.07Z"/>
</svg>
