<svg viewBox="0 0 48 48" xmlns="http://www.w3.org/2000/svg">
  <path d="M26.17 19.71c0 2.25-1.12 3.39-2.64 3.39s-2.66-1.15-2.66-3.39 1.12-3.41 2.66-3.41 2.64 1.15 2.64 3.41M37.3 34.28v5.13l1.44-1.44c.88-.88 2.3-.88 3.18 0s.88 2.3 0 3.18l-6.87 6.86-6.87-6.86c-.88-.88-.88-2.3 0-3.18s2.3-.88 3.18 0l1.43 1.43v-5.01H17.34v5.02l1.44-1.44c.88-.88 2.3-.88 3.18 0s.88 2.3 0 3.18l-6.87 6.86-6.87-6.86c-.88-.88-.88-2.3 0-3.18s2.3-.88 3.18 0l1.43 1.43v-5.59C5.47 31.86.01 25.17.01 17.2.01 7.72 7.73.01 17.21.01c6.78 0 12.94 4.08 15.67 10.26.98-.25 1.93-.38 2.88-.38 6.76 0 12.25 5.49 12.25 12.25 0 6.23-4.68 11.38-10.71 12.14M14.43 25.3c1.01 0 1.93-.14 2.69-.33v-2.42c-.63.28-1.43.52-2.47.52-2.03 0-3.43-1.15-3.43-3.36s1.4-3.38 3.43-3.38c1.04 0 1.86.24 2.47.52v-2.42c-.76-.2-1.68-.33-2.69-.33-3.79 0-6.12 2.17-6.12 5.61s2.31 5.59 6.12 5.59m14.65-5.59c0-3.57-2.15-5.61-5.55-5.61s-5.57 2.04-5.57 5.61 2.15 5.59 5.57 5.59 5.55-2.04 5.55-5.59m4.25 4.3h4.61v-1.29h-2.46c1.6-1.35 2.37-2.25 2.37-3.38 0-1.27-.99-1.94-2.37-1.94-.76 0-1.56.22-2.01.44v1.38c.46-.3 1.07-.52 1.62-.52.64 0 1.1.25 1.1.8 0 .95-1.46 2.14-2.87 3.23v1.28Z"/>
</svg>
