<svg viewBox="0 0 24 24" xmlns="http://www.w3.org/2000/svg">
  <path d="M13.17 9.89c0 1.1-.55 1.67-1.29 1.67s-1.3-.56-1.3-1.67.55-1.67 1.3-1.67 1.29.56 1.29 1.67m5.48 7.46v1.87l.46-.46c.49-.49 1.27-.49 1.76 0s.49 1.28 0 1.77l-3.46 3.48-3.46-3.48c-.49-.49-.49-1.28 0-1.77s1.27-.49 1.76 0l.46.46v-1.8H8.9v1.8l.46-.46c.49-.49 1.27-.49 1.76 0s.49 1.28 0 1.77l-3.46 3.48-3.46-3.48c-.49-.49-.49-1.28 0-1.77s1.27-.49 1.76 0l.46.46v-2.11C2.72 16.1 0 12.72 0 8.71 0 3.91 3.9 0 8.68 0c3.35 0 6.39 1.98 7.81 5 .43-.1.84-.14 1.26-.14 3.45 0 6.25 2.82 6.25 6.28 0 3.16-2.33 5.77-5.36 6.21ZM7.43 12.64c.49 0 .95-.07 1.31-.16v-1.19c-.31.14-.7.25-1.21.25-.99 0-1.68-.56-1.68-1.65s.68-1.66 1.68-1.66c.51 0 .91.12 1.21.25V7.29c-.37-.1-.82-.16-1.31-.16-1.85 0-2.99 1.06-2.99 2.75s1.13 2.75 2.99 2.75Zm7.16-2.75c0-1.75-1.05-2.75-2.71-2.75s-2.72 1-2.72 2.75 1.05 2.75 2.72 2.75 2.71-1 2.71-2.75M16.67 12h2.26v-.64h-1.2c.78-.66 1.16-1.11 1.16-1.66 0-.63-.48-.96-1.16-.96-.37 0-.76.11-.98.22v.68c.23-.15.53-.25.79-.25.31 0 .54.12.54.39 0 .47-.72 1.05-1.4 1.59V12Z"/>
</svg>
