<svg viewBox="0 0 48 48" xmlns="http://www.w3.org/2000/svg">
  <path d="M48.01 22.14c0-6.76-5.5-12.26-12.25-12.26-.95 0-1.9.12-2.88.38C30.15 4.08 23.99 0 17.21 0 7.73 0 .01 7.71.01 17.2c0 8.33 5.96 15.3 13.83 16.87v9.14l-3.14-3.14c-.49-.49-1.28-.49-1.77 0s-.49 1.28 0 1.77L15.09 48l6.16-6.16c.49-.49.49-1.28 0-1.77s-1.28-.49-1.77 0l-3.14 3.14v-8.85c.29.01.57.04.86.04h16.59v8.8l-3.14-3.14c-.49-.49-1.28-.49-1.77 0s-.49 1.28 0 1.77l6.16 6.16 6.16-6.16c.49-.49.49-1.28 0-1.77s-1.28-.49-1.77 0l-3.14 3.14v-8.83c6.51-.28 11.72-5.65 11.72-12.23M2.51 17.2C2.51 9.09 9.1 2.5 17.2 2.5c6.13 0 11.66 3.91 13.77 9.72l.42 1.16 1.17-.41c1.13-.39 2.17-.59 3.2-.59 5.38 0 9.75 4.38 9.75 9.75s-4.37 9.76-9.75 9.76H17.21c-8.1 0-14.69-6.59-14.69-14.7Zm11.92-3.11c1.01 0 1.93.13 2.69.33v2.42c-.61-.28-1.43-.52-2.47-.52-2.03 0-3.43 1.13-3.43 3.38s1.4 3.37 3.43 3.37c1.04 0 1.84-.24 2.47-.52v2.42c-.76.19-1.68.33-2.69.33-3.81 0-6.12-2.17-6.12-5.6s2.33-5.62 6.12-5.62Zm9.1 0c-3.41 0-5.57 2.04-5.57 5.62s2.15 5.6 5.57 5.6 5.55-2.04 5.55-5.6-2.15-5.62-5.55-5.62m0 9.02c-1.54 0-2.66-1.15-2.66-3.4s1.12-3.41 2.66-3.41 2.64 1.15 2.64 3.41-1.12 3.4-2.64 3.4m14.41.9h-4.61v-1.28c1.41-1.09 2.87-2.27 2.87-3.23 0-.56-.46-.8-1.1-.8-.55 0-1.16.22-1.62.52v-1.38c.45-.23 1.24-.44 2.01-.44 1.38 0 2.37.67 2.37 1.94 0 1.12-.76 2.03-2.37 3.38h2.46v1.29Z"/>
</svg>
