<svg viewBox="0 0 32 32" xmlns="http://www.w3.org/2000/svg">
  <path d="M5.53 28.07c.55 0 1-.45 1-1v-.32l3.4-1.17c.17.3.48.5.85.5.55 0 1-.45 1-1v-.14l3.37-1.16c.17.32.49.55.88.55.55 0 1-.45 1-1v-.2l3.32-1.14c.14.37.5.64.93.64.55 0 1-.45 1-1v-.3l3.32-1.14c.14.39.5.67.93.67.55 0 1-.45 1-1v-.33l2.87-.98V.02L1.44 9.95V28.5l3.16-1.08c.14.38.5.65.93.65M28.4 8.57l-4.92 1.68V4.5l4.92-1.69v5.75Zm-18.19 6.22V9.07l4.64-1.59v5.73zm6.64-8.01 4.64-1.59v5.74l-4.64 1.58zM8.21 9.75v5.72L3.44 17.1v-5.71zm-4.77 9.46 24.96-8.52v6.44l-2.18.75s-.07.02-.11.04l-10.4 3.57s-.07.02-.1.04l-4.9 1.68c-.17.01-.32.07-.46.16L5.2 25.1l-.09.03-1.67.57zM32 20.36v2.12L4.43 32.02H0v-.59z"/>
</svg>
