<svg viewBox="0 0 48 48" xmlns="http://www.w3.org/2000/svg">
  <path d="M8.31 41.82c.69 0 1.25-.56 1.25-1.25v-.39l5.59-1.92c.22.35.59.59 1.03.59.69 0 1.25-.56 1.25-1.25v-.12l5.54-1.9c.21.39.61.66 1.08.66.69 0 1.25-.56 1.25-1.25v-.21l5.46-1.87c.18.46.63.79 1.16.79.69 0 1.25-.56 1.25-1.25v-.37l5.45-1.87c.17.48.62.83 1.17.83.69 0 1.25-.56 1.25-1.25v-.41l4.55-1.56V0L2.18 14.91v27.8L7.15 41c.18.47.63.81 1.16.81ZM34.97 6.3l8.12-2.79v9.42l-8.12 2.77zm-9.95 3.41 7.45-2.56v9.4l-7.45 2.54V9.7Zm-9.95 3.41 7.45-2.56v9.39l-7.45 2.54zM4.68 16.69l7.9-2.71v9.37l-7.9 2.7zm0 12 38.41-13.12v10.45L4.68 39.21zM48 30.75v2.65L5.76 48.01H0v-.65z"/>
</svg>
