<svg viewBox="0 0 64 64" xmlns="http://www.w3.org/2000/svg">
  <path d="M11.08 55.51c.76 0 1.37-.62 1.37-1.38v-.42l8-2.75c.25.35.66.58 1.12.58.76 0 1.37-.62 1.37-1.38v-.06l7.94-2.73c.24.4.67.68 1.18.68.76 0 1.37-.62 1.37-1.38v-.18l7.85-2.69c.2.5.7.86 1.27.86.76 0 1.37-.62 1.37-1.38v-.39l7.83-2.69c.19.53.69.91 1.29.91.76 0 1.37-.62 1.37-1.38v-.45l6.35-2.18V.03L2.9 19.9v37.09l6.9-2.37c.2.52.69.88 1.28.88Zm46.96-38.13-11.7 4V7.9l11.7-4.02v13.49ZM19.81 30.44V17.01l10.51-3.61v13.44l-10.51 3.59Zm12.47-17.71 11.31-3.88v13.47l-10.51 3.59V12.73h-.79Zm-15.22 5.23v13.42l-11.4 3.9v-13.4zM5.65 38.18l52.38-17.9v14.87L5.65 53.14zM64 41.35v2.91L6.88 64.03H0v-.53z"/>
</svg>
