<svg viewBox="0 0 24 24" xmlns="http://www.w3.org/2000/svg">
  <path d="M4.15 21.17c.48 0 .88-.39.88-.88v-.28l2.3-.79c.15.27.43.46.76.46.48 0 .88-.39.88-.88v-.15l2.28-.78c.14.29.43.5.78.5.48 0 .88-.39.88-.88v-.19l2.25-.77c.13.33.44.57.81.57.48 0 .88-.39.88-.88v-.27l2.24-.77c.12.34.44.59.82.59.48 0 .88-.39.88-.88v-.29l2.02-.69V.01L1.08 7.46v13.91l2.25-.77c.12.33.44.58.81.58ZM21.04 6.38l-3.31 1.13V3.6l3.31-1.14zm-8.28-1.07 3.23-1.11v3.91l-3.23 1.1zm-1.75 4.5-3.23 1.1v-3.9L11 5.9v3.9ZM6.03 7.62v3.89l-3.2 1.09V8.71l3.2-1.1Zm-3.2 6.83 18.21-6.22v4.44L2.83 18.92zm21.17.69v1.85L3.67 24.01H0v-.59l24-8.29Z"/>
</svg>
