<svg viewBox="0 0 24 24" xmlns="http://www.w3.org/2000/svg">
  <path d="M4.15 21.17c.48 0 .88-.39.88-.88v-.28l2.3-.79c.15.27.43.46.76.46.48 0 .88-.39.88-.88v-.15l2.28-.78c.14.29.43.5.78.5.48 0 .88-.39.88-.88v-.19l2.25-.77c.13.33.44.57.81.57.48 0 .88-.39.88-.88v-.27l2.24-.77c.12.34.44.59.82.59.48 0 .88-.39.88-.88v-.29l2.02-.69V.02L1.08 7.46v13.9l2.25-.77c.12.33.44.58.81.58Zm13.91-17.7 3.29-1.15v4.96l-3.31 1.17zm-5.17 1.78 3.29-1.15v4.96l-3.31 1.17zM7.72 7.04l3.29-1.15v4.96L7.7 12.02zM2.55 8.83l3.29-1.15v4.96l-3.31 1.17zM24 15.15V17L3.69 24.02H0v-.58z"/>
</svg>
