<svg viewBox="0 0 48 48" xmlns="http://www.w3.org/2000/svg">
  <path d="M8.31 41.75c.69 0 1.25-.56 1.25-1.25v-.39l5.59-1.91c.22.35.59.59 1.03.59.69 0 1.25-.56 1.25-1.25v-.12l5.54-1.9c.21.39.61.66 1.08.66.69 0 1.25-.56 1.25-1.25v-.21l5.46-1.87c.18.46.63.79 1.16.79.69 0 1.25-.56 1.25-1.25v-.37l5.45-1.87c.17.48.62.83 1.17.83.69 0 1.25-.56 1.25-1.25v-.41l4.55-1.56V0L2.18 14.88v27.77l4.97-1.7c.18.47.63.81 1.16.81ZM36.12 6.89l6.58-2.3-.02 9.9-6.6 2.34.05-9.95ZM25.74 20.41l.05-9.95 6.58-2.3-.02 9.9-6.6 2.34Zm-10.29-6.38 6.58-2.3-.02 9.9-6.6 2.34.05-9.95ZM5.11 17.6l6.58-2.3-.02 9.9-6.6 2.34.05-9.95ZM48 30.75v2.64L5.65 48H0v-.69l48-16.55Z"/>
</svg>
