<svg viewBox="0 0 40 40" xmlns="http://www.w3.org/2000/svg">
  <path d="M6.93 34.97c.62 0 1.12-.5 1.12-1.13v-.35l4.49-1.54c.2.32.54.55.94.55.62 0 1.12-.5 1.12-1.13v-.13l4.45-1.53c.19.36.55.61.98.61.62 0 1.12-.5 1.12-1.13v-.2l4.39-1.51c.16.42.57.72 1.04.72.62 0 1.12-.5 1.12-1.13v-.34l4.38-1.51c.16.44.56.75 1.05.75.62 0 1.12-.5 1.12-1.13v-.37l3.7-1.27V.03L1.82 12.45v23.18l4.06-1.4c.16.43.56.73 1.05.73Zm23.12-20.88.04-8.3 5.48-1.92-.02 8.27-5.5 1.96Zm-8.57-5.33 5.48-1.92-.02 8.27-5.5 1.96.04-8.3Zm-8.64 11.29.04-8.3 5.48-1.92-.02 8.27-5.5 1.96Zm-8.57-5.33 5.48-1.92-.02 8.27-5.5 1.96.04-8.3Zm35.75 10.89v2.38L5.14 40.03H.02v-.62z"/>
</svg>
