<svg viewBox="0 0 32 32" xmlns="http://www.w3.org/2000/svg">
  <path d="M5.54 28.08c.55 0 1-.45 1-1v-.32l3.4-1.17c.17.3.48.51.85.51.55 0 1-.45 1-1v-.14l3.37-1.16c.17.32.49.55.88.55.55 0 1-.45 1-1v-.2l3.32-1.14c.14.37.5.64.93.64.55 0 1-.45 1-1v-.3l3.31-1.14c.14.39.5.67.93.67.55 0 1-.45 1-1v-.33l2.87-.98V.03L1.45 9.96v18.55l3.16-1.08c.14.38.5.65.93.65M24.08 4.63l4.39-1.53-.02 6.61-4.4 1.57.03-6.64Zm-6.92 9.03.03-6.64 4.39-1.53-.02 6.61-4.4 1.57ZM10.3 9.4l4.39-1.53-.02 6.61-4.4 1.57.03-6.64Zm-6.9 2.38 4.39-1.53-.02 6.61-4.4 1.57.03-6.64Zm28.59 8.6v2.12L4.42 32.02H-.01v-.59l32-11.06Z"/>
</svg>
