<svg viewBox="0 0 48 48" xmlns="http://www.w3.org/2000/svg">
  <path d="M0 0v21.52h16.68c3.2-4.74 8.62-7.87 14.76-7.87S43 16.78 46.2 21.52h1.79V0zm11.66 11.99c0 .86-.43 1.61-1.1 2.06-.4.27-.87.42-1.39.42-.34 0-.67-.07-.97-.2-.27-.11-.51-.28-.73-.48-.02-.02-.04-.03-.06-.05s-.03-.04-.05-.06c-.42-.44-.67-1.04-.67-1.69 0-1.03.63-1.91 1.52-2.29.3-.13.62-.2.97-.2.51 0 .99.16 1.39.42.66.45 1.1 1.2 1.1 2.06Zm1.99 19.46c0-2.65.6-5.17 1.65-7.43H0V48h24.95c-6.61-2.6-11.3-9.03-11.3-16.55m-4.47 7.04c-.34 0-.67-.07-.97-.2-.45-.19-.83-.5-1.09-.9-.27-.4-.42-.87-.42-1.39s.16-.99.42-1.39c.27-.4.65-.71 1.09-.9a2.48 2.48 0 1 1 .97 4.76Zm35.04-17.57c-.67-.82-1.43-1.57-2.24-2.24-2.86-2.36-6.53-3.78-10.53-3.78s-7.67 1.42-10.53 3.78c-.82.67-1.57 1.43-2.24 2.24-.67.82-1.27 1.7-1.78 2.64-1.27 2.34-2 5.03-2 7.89C14.9 40.59 22.31 48 31.45 48S48 40.59 48 31.45c0-2.86-.72-5.54-2-7.89-.51-.94-1.11-1.82-1.78-2.64m-6.29 5.97-7.35 11.14-5.31-5.69c-.47-.5-.44-1.3.06-1.77s1.29-.44 1.77.06L30.25 34l5.61-8.49c.38-.58 1.16-.74 1.73-.35.58.38.74 1.16.35 1.73Z"/>
</svg>
