<svg viewBox="0 0 32 32" xmlns="http://www.w3.org/2000/svg">
  <path d="M0 0v14.31h10.95c2.16-3.24 5.84-5.37 10.01-5.37s7.85 2.14 10.01 5.37H32V0zm7.33 8.79a1.696 1.696 0 0 1-2.8 0c-.18-.27-.29-.59-.29-.94A1.69 1.69 0 0 1 5.27 6.3c.2-.09.42-.13.66-.13s.45.05.66.13a1.7 1.7 0 0 1 1.03 1.55c0 .35-.11.67-.29.94m1.61 12.17c0-1.65.33-3.22.94-4.65H0V32h16.21c-4.27-1.84-7.28-6.1-7.28-11.04Zm-1.45 3.85a1.69 1.69 0 0 1-1.56 1.03c-.24 0-.45-.05-.66-.13-.18-.08-.35-.19-.49-.33-.01-.01-.03-.02-.04-.04s-.02-.03-.04-.04c-.13-.14-.25-.31-.33-.49-.09-.2-.13-.42-.13-.66s.05-.45.13-.66a1.69 1.69 0 0 1 1.56-1.03c.24 0 .45.05.66.13.18.08.35.19.49.33.01.01.03.02.04.04s.02.03.04.04c.13.14.25.31.33.49.09.2.13.42.13.66s-.05.45-.13.66M20.96 9.94c-4.95 0-9.13 3.26-10.53 7.74a11.015 11.015 0 0 0 10.52 14.3c6.09 0 11.02-4.93 11.02-11.02A11.024 11.024 0 0 0 20.94 9.94Zm4.46 8.07-5.01 7.6-3.68-3.94a.99.99 0 0 1 .05-1.41.99.99 0 0 1 1.41.05l1.95 2.09 3.62-5.48c.3-.46.92-.59 1.38-.28.46.3.59.92.28 1.38Z"/>
</svg>
