<svg viewBox="0 0 32 32" xmlns="http://www.w3.org/2000/svg">
  <path d="M7.05 7.25c.83 0 1.5.67 1.5 1.5s-.67 1.5-1.5 1.5-1.5-.67-1.5-1.5.67-1.5 1.5-1.5m-1.5 16c0 .83.67 1.5 1.5 1.5s1.5-.67 1.5-1.5-.67-1.5-1.5-1.5-1.5.67-1.5 1.5M0 0v32h16.18c-1.15-.5-2.2-1.18-3.13-2H2V16.5h7.8c.28-.7.63-1.37 1.03-2H2V2h28v11.04c.82.93 1.5 1.98 2 3.13V0zm32 20.96C32 27.05 27.06 32 20.96 32S9.92 27.06 9.92 20.96 14.86 9.92 20.96 9.92 32 14.86 32 20.96m-2 0c0-4.98-4.05-9.04-9.04-9.04s-9.04 4.05-9.04 9.04S15.97 30 20.96 30 30 25.95 30 20.96m-4.86-4.33a1.01 1.01 0 0 0-1.39.28l-3.62 5.49-1.95-2.09a.997.997 0 1 0-1.46 1.36l3.69 3.95 5.02-7.61c.3-.46.18-1.08-.28-1.39Z"/>
</svg>
