<svg viewBox="0 0 48 48" xmlns="http://www.w3.org/2000/svg">
  <path d="M10.57 10.88c1.24 0 2.25 1.01 2.25 2.25s-1.01 2.25-2.25 2.25-2.25-1.01-2.25-2.25 1.01-2.25 2.25-2.25m-2.25 24c0 1.24 1.01 2.25 2.25 2.25s2.25-1.01 2.25-2.25-1.01-2.25-2.25-2.25-2.25 1.01-2.25 2.25M0 0v48h24.94c-1.58-.63-3.05-1.47-4.38-2.5H2.5V24.25h12.68c.39-.87.84-1.71 1.36-2.5H2.5V2.5h43v18.06c1.03 1.32 1.87 2.79 2.5 4.38V0zm48 31.45C48 40.59 40.59 48 31.45 48S14.9 40.59 14.9 31.45 22.31 14.9 31.45 14.9 48 22.31 48 31.45m-2.5 0c0-7.75-6.3-14.05-14.05-14.05S17.4 23.7 17.4 31.45 23.7 45.5 31.45 45.5 45.5 39.2 45.5 31.45m-7.92-6.29c-.57-.38-1.35-.22-1.73.35L30.24 34l-3.15-3.37c-.47-.5-1.26-.53-1.77-.06-.5.47-.53 1.26-.06 1.77l5.31 5.69 7.35-11.14c.38-.58.22-1.35-.35-1.73Z"/>
</svg>
