<svg viewBox="0 0 16 16" xmlns="http://www.w3.org/2000/svg">
  <path d="M0 0v7.11h5.21c1.12-1.74 3.06-2.89 5.27-2.89s4.16 1.16 5.27 2.89h.24V0zm2.69 4.59c-.49 0-.89-.4-.89-.89s.4-.89.89-.89.89.4.89.89-.4.89-.89.89m1.53 5.89c0-.65.1-1.28.29-1.87H0V16h7.52a6.28 6.28 0 0 1-3.3-5.52M2.69 13.2c-.49 0-.89-.4-.89-.89s.4-.89.89-.89.89.4.89.89-.4.89-.89.89m7.79-8.23c-3.05 0-5.52 2.47-5.52 5.52s2.47 5.52 5.52 5.52S16 13.54 16 10.49s-2.47-5.52-5.52-5.52m2.44 4.18-2.68 4.07-2.06-2.21c-.28-.3-.27-.78.04-1.06.3-.28.78-.27 1.06.04l.76.81 1.64-2.48c.23-.35.69-.44 1.04-.21s.44.69.21 1.04Z"/>
</svg>
