<svg viewBox="0 0 16 16" xmlns="http://www.w3.org/2000/svg">
  <path d="M3.52 3.62c.41 0 .75.34.75.75s-.34.75-.75.75-.75-.34-.75-.75.34-.75.75-.75m-.75 8c0 .41.34.75.75.75s.75-.34.75-.75-.34-.75-.75-.75-.75.34-.75.75M0 0v16h7.51c-.7-.38-1.33-.89-1.84-1.5H1.5V8.75h2.96c.15-.53.38-1.04.66-1.5H1.5V1.5h13v4.18c.61.51 1.12 1.13 1.5 1.84V0zm16 10.48c0 3.05-2.47 5.52-5.52 5.52s-5.52-2.47-5.52-5.52 2.47-5.52 5.52-5.52S16 7.43 16 10.48m-1.5 0a4.02 4.02 0 1 0-8.04 0 4.02 4.02 0 0 0 8.04 0m-1.79-2.37a.753.753 0 0 0-1.04.21l-1.64 2.48-.76-.81a.755.755 0 0 0-1.06-.04c-.3.28-.32.76-.04 1.06l2.06 2.21 2.68-4.07c.23-.35.13-.81-.21-1.04Z"/>
</svg>
