<svg viewBox="0 0 64 64" xmlns="http://www.w3.org/2000/svg">
  <path d="M38.98 8.27c0-4.56 3.71-8.27 8.27-8.27s8.28 3.71 8.28 8.28-3.71 8.28-8.28 8.28-8.28-3.71-8.28-8.28Zm-22.35 8.28c4.57 0 8.28-3.71 8.28-8.28S21.2 0 16.63 0 8.35 3.71 8.35 8.28s3.71 8.28 8.28 8.28Zm37.98 3.16H40.05c-1.65 0-3.2.63-4.55 1.65l3.92 1.23-5.7 19.04h2.81l2.03 22.36h17.15l2.03-22.36h6.32V29.14c0-5.2-4.23-9.43-9.43-9.43ZM31.58 43.92 24.2 41.6v.03h-4.5l7.15 2.24-1.82 20.12H7.96L5.93 41.63H.04V29.14c0-5.2 4.23-9.43 9.43-9.43h12.38L18.5 30.9c.44.2.84.44 1.22.71l3.77-12.57 14.22 4.46-6.12 20.42Zm-1.83-3.46 4.54-15.15-8.97-2.81-3.4 11.37c1.03 1.51 1.64 3.25 1.95 4.75l5.88 1.85Z"/>
</svg>
