<svg viewBox="0 0 48 48" xmlns="http://www.w3.org/2000/svg">
  <path d="M36.92 3.61c0-.99.41-1.89 1.07-2.55.33-.33.72-.59 1.15-.77s.91-.28 1.41-.28.98.1 1.41.28.82.45 1.15.77c.66.65 1.07 1.55 1.07 2.55 0 1.98-1.63 3.6-3.63 3.6s-3.63-1.62-3.63-3.6m1.38 5.33c-2.31 0-4.18 1.87-4.18 4.17v2.98h12.87v-2.98c0-2.3-1.88-4.17-4.18-4.17h-4.5ZM4.88 6.15c.66.65 1.56 1.06 2.56 1.06 2 0 3.63-1.62 3.63-3.6A3.6 3.6 0 0 0 10 1.06C9.67.73 9.28.47 8.85.29 8.41.1 7.94 0 7.44 0s-.98.1-1.41.28C4.73.83 3.81 2.11 3.81 3.6c0 .99.41 1.89 1.07 2.55M3.5 16.09h10.37v-2.98c0-2.3-1.88-4.17-4.18-4.17h-4.5c-2.31 0-4.18 1.87-4.18 4.17v2.98h2.5Zm1 7.76c0-1.82.27-3.58.75-5.26H.59C.21 20.28 0 22.04 0 23.85c0 10.49 6.83 19.4 16.31 22.58v-1.41c0-1.13.36-2.18.96-3.05C9.83 39.24 4.5 32.16 4.5 23.84Zm5.53-16.14c.83.05 1.6.31 2.29.69 3.26-2.43 7.3-3.89 11.68-3.89s8.42 1.46 11.68 3.89c.69-.38 1.46-.63 2.29-.69-1.37-.86-2.29-2.37-2.29-4.1 0-.19.04-.37.06-.56C32.26 1.11 28.26 0 24 0s-8.27 1.11-11.74 3.05c.02.18.06.37.06.56 0 1.73-.92 3.24-2.29 4.1m37.38 10.88h-4.66c.48 1.67.75 3.43.75 5.26 0 8.32-5.33 15.4-12.77 18.13.6.87.96 1.91.96 3.05v1.41C41.17 43.26 48 34.35 48 23.85c0-1.81-.21-3.57-.59-5.26M24 31.92c-1.5 0-2.79.91-3.34 2.2-.18.43-.29.9-.29 1.4s.1.97.29 1.4c.28.65.74 1.2 1.32 1.59a3.66 3.66 0 0 0 2.03.61 3.66 3.66 0 0 0 2.03-.61c.97-.65 1.6-1.75 1.6-2.99 0-.79-.26-1.51-.7-2.1-.66-.91-1.73-1.5-2.93-1.5Zm2.25 8.94h-4.5c-2.31 0-4.18 1.87-4.18 4.16V48h12.87v-2.98c0-2.3-1.88-4.16-4.18-4.16Zm6.06-10.11H15.68l1.04-13.8h2.7v-3.51a2.6 2.6 0 0 1 2.6-2.59h3.94c1.44 0 2.6 1.16 2.6 2.59v3.51h2.69l1.04 13.8ZM21.92 16.94h4.15v-3.51s-.04-.09-.1-.09h-3.94c-.06 0-.1.05-.1.09v3.51Z"/>
</svg>
