<svg viewBox="0 0 16 16" xmlns="http://www.w3.org/2000/svg">
  <path d="M12.31 1.25c0-.66.54-1.2 1.21-1.2s1.21.54 1.21 1.2-.54 1.2-1.21 1.2-1.21-.54-1.21-1.2m.46 1.7c-.95 0-1.73.77-1.73 1.72v.99h1.5v-.99c0-.12.1-.23.23-.23h1.5c.12 0 .23.1.23.23v.99H16v-.99c0-.95-.78-1.72-1.73-1.72zM2.48 2.46c.67 0 1.21-.54 1.21-1.2S3.14.05 2.48.05s-1.21.54-1.21 1.2.54 1.2 1.21 1.2ZM1.5 4.67c0-.12.1-.23.23-.23h1.5c.12 0 .23.1.23.23v.99h1.5v-.99c0-.95-.78-1.72-1.73-1.72h-1.5C.78 2.95 0 3.72 0 4.67v.99h1.5zm0 3.22c0-.25.02-.5.05-.74H.04c-.02.24-.04.49-.04.74 0 3.25 1.96 6.03 4.77 7.27v-.21c0-.47.14-.9.37-1.27-2.15-1.05-3.64-3.25-3.64-5.79m2.91-5.37C5.44 1.84 6.67 1.44 8 1.44s2.56.4 3.59 1.08q.15-.09.33-.15c-.22-.32-.36-.7-.36-1.11 0-.15.02-.3.06-.44C10.53.26 9.3-.05 8-.05S5.47.27 4.38.81c.03.14.06.29.06.44 0 .41-.13.8-.36 1.11q.165.06.33.15Zm11.55 4.63h-1.51c.03.24.05.49.05.74 0 2.54-1.49 4.74-3.64 5.79.23.37.37.8.37 1.27v.21C14.04 13.93 16 11.14 16 7.89c0-.25-.01-.5-.04-.74m-6.75 4.39c0-.66-.54-1.2-1.21-1.2s-1.21.54-1.21 1.2.54 1.2 1.21 1.2 1.21-.54 1.21-1.2m-.46 1.7h-1.5c-.95 0-1.73.77-1.73 1.72v.99h1.5v-.99c0-.12.1-.23.23-.23h1.5c.12 0 .23.1.23.23v.99h1.5v-.99c0-.95-.78-1.72-1.73-1.72m1.67-7.91.35 4.6H5.23l.35-4.6h.57v-.9c0-.66.54-1.19 1.2-1.19h1.31c.66 0 1.2.54 1.2 1.19v.9h.57Zm-2.78 0h.72v-.61h-.72zm1.51 3.11-.12-1.62H6.97l-.12 1.62h2.31Z"/>
</svg>
