<svg viewBox="0 0 24 24" xmlns="http://www.w3.org/2000/svg">
  <path d="M17.54 6.76c1.87 0 3.38-1.52 3.38-3.39S19.41-.01 17.54-.01s-3.38 1.52-3.38 3.39 1.52 3.39 3.38 3.39Zm0-5.02a1.63 1.63 0 1 1 0 3.26 1.63 1.63 0 0 1 0-3.26M6.42 6.76c1.87 0 3.38-1.52 3.38-3.39S8.29-.01 6.42-.01 3.04 1.51 3.04 3.38s1.52 3.39 3.38 3.39Zm0-5.02a1.63 1.63 0 1 1 0 3.26 1.63 1.63 0 0 1 0-3.26m13.79 6.13h-5.29c-.86 0-1.63.3-2.27.78L8.68 7.34l-.17.52H3.82a3.82 3.82 0 0 0-3.8 3.81v4.18h2.17l.74 8.13h6.89l.69-7.65 1.27.42.29-.89h1.23l.74 8.13h6.92l.74-8.13h2.33v-4.18c0-2.1-1.7-3.8-3.8-3.8ZM9.37 14.12c-.11-.47-.3-.98-.59-1.46l1.02-3.1 2.25.74-1.39 4.24zm-7.58-.01h-.02v-2.43c0-1.13.92-2.05 2.05-2.05h4.12l-.55 1.68c-.43-.22-.94-.36-1.54-.36H3.77v1.75h2.08c.97 0 1.45.76 1.69 1.41zm2.73 8.13-.58-6.38h4.84l-.58 6.38H4.51Zm17.74-8.13h-2.18l-.74 8.13h-3.72l-.74-8.13h-2.02v-.71l1.17-3.56c.27-.13.56-.21.88-.21h5.29c1.13 0 2.05.92 2.05 2.05v2.43Z"/>
</svg>
