<svg viewBox="0 0 64 64" xmlns="http://www.w3.org/2000/svg">
  <path d="M47.25 16.55c4.57 0 8.28-3.71 8.28-8.28S51.82-.01 47.25-.01s-8.28 3.71-8.28 8.28 3.71 8.28 8.28 8.28m0-13.81c3.05 0 5.53 2.48 5.53 5.53s-2.48 5.53-5.53 5.53-5.53-2.48-5.53-5.53 2.48-5.53 5.53-5.53M16.63 16.55c4.57 0 8.28-3.71 8.28-8.28S21.2-.01 16.63-.01 8.35 3.7 8.35 8.27s3.71 8.28 8.28 8.28m0-13.81c3.05 0 5.53 2.48 5.53 5.53s-2.48 5.53-5.53 5.53-5.53-2.48-5.53-5.53 2.48-5.53 5.53-5.53M54.61 19.7H40.05c-2.17 0-4.15 1.09-5.74 2.72l-10.82-3.4-.2.67H9.48C4.27 19.7.04 23.93.04 29.13v12.49h5.9l2.03 22.36h17.07l1.95-21.52 4.61 1.45.69-2.29h4.24l2.03 22.36h17.15l2.03-22.36h6.32V29.13c0-5.2-4.23-9.43-9.43-9.43ZM3.89 38.87h-1.1v-9.74c0-3.68 3-6.68 6.68-6.68h12.99l-2.74 9.15c-1.23-.87-2.75-1.43-4.65-1.43H9.34v2.75h5.73c4.07 0 5.53 3.78 6.03 5.96H3.89Zm18.62 22.36H10.47L8.69 41.62H24.2v-.03l.09.03zm1.35-22.63c-.31-1.5-.92-3.24-1.95-4.75l3.4-11.37 8.97 2.81-4.54 15.15-5.88-1.85Zm37.43.27h-6.08l-2.03 22.36H41.05l-2.03-22.36h-5.65v-.94l4.33-14.44-.35-.11c.83-.58 1.75-.93 2.69-.93H54.6c3.68 0 6.68 3 6.68 6.68v9.74Z"/>
</svg>
