<svg viewBox="0 0 16 16" xmlns="http://www.w3.org/2000/svg">
  <path d="M11.64 4.76c1.32 0 2.38-1.07 2.38-2.38S12.96-.01 11.64-.01a2.38 2.38 0 1 0 0 4.76Zm0-3.27c.49 0 .88.4.88.88s-.4.88-.88.88-.88-.4-.88-.88.4-.88.88-.88M4.39 4.76a2.386 2.386 0 0 0 0-4.77 2.38 2.38 0 1 0 0 4.76Zm0-3.27c.49 0 .88.4.88.88s-.4.88-.88.88-.88-.4-.88-.88.4-.88.88-.88m8.98 3.65H9.92c-.56 0-1.07.19-1.5.49l-2.68-.88-.13.39H2.68C1.21 5.14.02 6.33.02 7.79v2.9h1.43l.48 5.29h4.82l.45-4.92.78.26.21-.63h.51l.48 5.29h4.84l.48-5.29h1.53v-2.9c0-1.46-1.19-2.66-2.66-2.66Zm-6.93 4.1a3.5 3.5 0 0 0-.33-.82l.58-1.78 1.12.37-.79 2.42zM1.52 7.79c0-.64.52-1.16 1.16-1.16h2.44l-.22.68a2.2 2.2 0 0 0-.89-.18H2.65v1.5h1.36c.42 0 .67.26.83.56H1.52zm1.78 6.7-.34-3.79h2.76l-.34 3.79H3.31ZM14.52 9.2h-1.4l-.48 5.29h-2.09l-.48-5.29h-1.3v-.26l.73-2.22c.13-.05.28-.09.43-.09h3.45c.64 0 1.16.52 1.16 1.16v1.4Z"/>
</svg>
