<svg viewBox="0 0 24 24" xmlns="http://www.w3.org/2000/svg">
  <path d="M18.46 1.96c0-.37.11-.72.31-1.01.33-.48.88-.8 1.5-.8s1.18.32 1.5.8c.2.29.31.63.31 1.01 0 .99-.82 1.8-1.81 1.8s-1.81-.81-1.81-1.8m.69 2.79a2.34 2.34 0 0 0-2.34 2.33v1.49h1.75V7.08c0-.32.27-.58.59-.58h2.25c.32 0 .59.27.59.58v1.49h1.75V7.08c0-1.29-1.05-2.33-2.34-2.33zM3.72 3.76c.62 0 1.18-.32 1.5-.8.2-.29.31-.63.31-1.01s-.11-.72-.31-1.01a1.8 1.8 0 0 0-1.5-.8c-.62 0-1.18.32-1.5.8-.2.29-.31.63-.31 1.01s.11.72.31 1.01c.33.48.88.8 1.5.8M2 7.08c0-.32.27-.58.59-.58h2.25c.32 0 .59.27.59.58v1.49h1.75V7.08c0-1.29-1.05-2.33-2.34-2.33H2.59A2.34 2.34 0 0 0 .25 7.08v1.49H2zm3.03-2.94c.12 0 .23.03.34.05C7.16 2.67 9.47 1.74 12 1.74s4.84.92 6.63 2.45c.11-.02.22-.05.34-.05-.75-.45-1.26-1.25-1.26-2.18 0-.17.02-.33.05-.49C16.05.53 14.09 0 12 0S7.95.54 6.23 1.48c.03.16.05.32.05.49 0 .93-.51 1.74-1.26 2.18Zm18.8 5.93h-1.77c.12.62.19 1.27.19 1.93 0 4.27-2.63 7.94-6.35 9.48.12.32.19.67.19 1.03v.76C20.7 21.6 24 17.19 24 12c0-.66-.07-1.3-.17-1.93M1.75 12c0-.66.07-1.3.19-1.93H.17C.07 10.7 0 11.34 0 12c0 5.19 3.3 9.59 7.91 11.27v-.76c0-.36.07-.71.19-1.03-3.72-1.54-6.35-5.2-6.35-9.48m8.44 5.39c0 .37.11.72.31 1.01.33.48.88.8 1.5.8s1.18-.32 1.5-.8c.2-.29.31-.63.31-1.01 0-.99-.82-1.8-1.81-1.8s-1.81.81-1.81 1.8m2.94 2.79h-2.25a2.34 2.34 0 0 0-2.34 2.33V24h1.75v-1.49c0-.32.27-.58.59-.58h2.25c.32 0 .59.27.59.58V24h1.75v-1.49c0-1.29-1.05-2.33-2.34-2.33m3.02-4.81H7.84l.52-6.9h1.1V6.72c0-.85.7-1.55 1.55-1.55h1.97c.86 0 1.55.69 1.55 1.55v1.75h1.1zm-4.94-6.9h1.57V6.92h-1.57zm3.06 5.15-.26-3.4H9.98l-.26 3.4h4.54Z"/>
</svg>
