<svg viewBox="0 0 32 32" xmlns="http://www.w3.org/2000/svg">
  <path d="M19.1 4.38C19.1 1.96 21.06 0 23.48 0s4.38 1.97 4.38 4.38-1.97 4.38-4.38 4.38-4.38-1.97-4.38-4.38M8.48 8.76c2.42 0 4.38-1.97 4.38-4.38S10.9 0 8.48 0 4.1 1.97 4.1 4.38s1.97 4.38 4.38 4.38m18.6 1.38h-7.13c-.49 0-.94.09-1.37.23l1.87.59-3.02 10.08h.49l.99 10.95h9l.99-10.95h3.13v-5.96c0-2.73-2.22-4.95-4.95-4.95Zm-14.89 10.9H8.85l4.9 1.54-.85 9.41H3.94l-.99-10.95H.03v-5.96a4.95 4.95 0 0 1 4.94-4.94h5.33l-1.43 4.78c.34.09.65.22.93.37l1.81-6.06 7.59 2.38-3.18 10.63-3.84-1.2Zm-.76-4.18c.44.68.72 1.44.88 2.12l2.39.75 2.03-6.79-3.77-1.18-1.53 5.11Z"/>
</svg>
