<svg viewBox="0 0 40 40" xmlns="http://www.w3.org/2000/svg">
  <path d="M24.03 5.38c0-2.97 2.41-5.38 5.38-5.38s5.38 2.41 5.38 5.38-2.41 5.38-5.38 5.38-5.38-2.41-5.38-5.38m-13.49 5.38c2.97 0 5.38-2.41 5.38-5.38S13.5 0 10.54 0 5.16 2.41 5.16 5.38s2.41 5.38 5.38 5.38m23.4 2.01h-8.98c-.68 0-1.32.14-1.92.38l2.22.7-3.71 12.38h.98l1.25 13.78h11.08l1.25-13.78h3.92v-7.36c0-3.36-2.73-6.09-6.09-6.09ZM15.22 26.22h-3.76l5.6 1.76-1.09 12.03H4.94L3.69 26.23H.03v-7.36c0-3.36 2.73-6.09 6.09-6.09h6.95l-1.82 6.09c.37.12.72.27 1.04.46l2.29-7.65 9.29 2.92-3.93 13.12-4.72-1.48Zm-1.13-5.11c.58.88.94 1.87 1.13 2.75l3.21 1.01 2.64-8.8-4.99-1.57-1.98 6.61Z"/>
</svg>
