<svg viewBox="0 0 48 48" xmlns="http://www.w3.org/2000/svg">
  <path d="M28.95 6.36c0-3.52 2.87-6.38 6.39-6.38s6.38 2.86 6.38 6.38-2.86 6.38-6.38 6.38-6.38-2.86-6.38-6.38Zm-16.36 6.38c3.52 0 6.38-2.86 6.38-6.38S16.11-.02 12.59-.02 6.21 2.84 6.21 6.36s2.86 6.38 6.38 6.38m28.21 2.62H29.98c-.87 0-1.69.2-2.45.53l2.55.8-4.4 14.68h1.46l1.5 16.61H41.8l1.5-16.61h4.72V22.6c0-3.99-3.25-7.24-7.23-7.24ZM18.25 31.37h-4.18l6.3 1.98-1.33 14.63H5.94l-1.5-16.61H.03V22.6c0-3.99 3.25-7.24 7.24-7.24h8.56l-2.22 7.41c.41.15.79.33 1.14.55l2.77-9.26 11 3.45-4.68 15.61-5.6-1.76Zm-1.48-6.04c.72 1.08 1.16 2.3 1.39 3.38l4.02 1.26 3.24-10.81-6.22-1.95z"/>
</svg>
