<svg viewBox="0 0 24 24" xmlns="http://www.w3.org/2000/svg">
  <path d="M14.16 3.38c0-1.87 1.52-3.38 3.38-3.38a3.39 3.39 0 0 1 0 6.78 3.39 3.39 0 0 1-3.38-3.39ZM6.42 6.77c1.87 0 3.38-1.52 3.38-3.39S8.29 0 6.42 0 3.04 1.52 3.04 3.39s1.52 3.39 3.38 3.39Zm13.79 1.11h-5.29c-.42 0-.82.09-1.2.21l1.64.54-2.37 7.24h.31l.74 8.13h6.92l.74-8.13h2.33v-4.18c0-2.1-1.7-3.8-3.8-3.8ZM9.05 15.86H6.24l4.18 1.37-.61 6.76H2.92l-.74-8.13H.02v-4.18c0-2.1 1.7-3.8 3.8-3.8h3.77l-1.03 3.15c.3.06.58.16.83.29l1.3-3.95 5.57 1.83-2.48 7.57-2.72-.89Zm.75-6.29-1.02 3.1c.28.47.47.99.59 1.46l1.29.42 1.39-4.24z"/>
</svg>
