<svg viewBox="0 0 24 24" xmlns="http://www.w3.org/2000/svg">
  <path d="M22.49 4.13V2.24c0-.36-.29-.65-.65-.65h-3.69c-.36 0-.65.29-.65.65v1.89H6.49V2.24c0-.36-.29-.65-.65-.65H2.15c-.36 0-.65.29-.65.65v1.89H0v18.52h6.16v-1.98h11.68v1.98H24V4.13zM5.18 16.69c0 .48-.39.88-.88.88s-.88-.39-.88-.88V8.2c0-.48.39-.88.88-.88s.88.39.88.88zm3.85 0c0 .48-.39.88-.88.88s-.88-.39-.88-.88V8.2c0-.48.39-.88.88-.88s.88.39.88.88zm3.85 0c0 .48-.39.88-.88.88s-.88-.39-.88-.88V8.2c0-.48.39-.88.88-.88s.88.39.88.88zm3.84 0c0 .48-.39.88-.88.88s-.88-.39-.88-.88V8.2c0-.48.39-.88.88-.88s.88.39.88.88zm3.85 0c0 .48-.39.88-.88.88s-.88-.39-.88-.88V8.2c0-.48.39-.88.88-.88s.88.39.88.88z"/>
</svg>
