<svg viewBox="0 0 48 48" xmlns="http://www.w3.org/2000/svg">
  <path d="M41.99.06h-36C2.68.06 0 2.75 0 6.06v42h48v-42c-.01-3.31-2.69-6-6.01-6m3.5 45.5h-43V6.06c0-1.93 1.57-3.5 3.5-3.5h36c1.93 0 3.5 1.57 3.5 3.5zm-3.48-26.05-.93-1.61-1.6-2.76-.93-1.61-1.81.43-1.79.42c-.7-.51-1.47-.95-2.28-1.3l-.55-1.82-.54-1.78h-2.6v-4.2H8.25a2.5 2.5 0 0 0-2.5 2.5v31.21a2.5 2.5 0 0 0 2.5 2.5H29v-3.94h2.54l.54-1.78.53-1.78c.82-.35 1.59-.78 2.3-1.3l1.81.43 1.81.43.93-1.61 1.6-2.76.93-1.61-1.27-1.35-1.24-1.32c.06-.47.1-.93.1-1.38s-.03-.87-.09-1.31l1.26-1.34 1.27-1.35ZM26.5 38.99H8.25V7.77H26.5v1.7h-1.81l-.54 1.78-.55 1.82c-.79.34-1.54.77-2.23 1.27l-1.87-.44-1.81-.43-.93 1.61-1.6 2.76-.93 1.61 1.27 1.35 1.29 1.37c-.06.46-.09.9-.09 1.33 0 .41.03.83.08 1.25l-1.31 1.39-1.27 1.35.93 1.61 1.6 2.76.93 1.61 1.81-.43 1.82-.43c.69.51 1.44.94 2.24 1.29l.55 1.83.54 1.78h1.87v1.44Zm10.56-15.48c0 .75-.12 1.46-.29 2.16l2.11 2.25-1.6 2.76-3.02-.71a8.7 8.7 0 0 1-3.69 2.08l-.9 2.99h-3.19l-.91-3.03c-1.38-.42-2.62-1.13-3.63-2.1l-3.04.72-1.6-2.76 2.17-2.3c-.16-.66-.26-1.34-.26-2.05s.11-1.44.28-2.12l-2.16-2.3 1.6-2.76 3.07.72c1.01-.96 2.25-1.66 3.63-2.07l.91-3.02h3.19l.91 3.02c1.39.41 2.65 1.12 3.67 2.1l3-.71 1.6 2.76-2.13 2.26c.16.68.28 1.38.28 2.1Zm-8.91-5.24c-2.89 0-5.25 2.36-5.25 5.25s2.36 5.25 5.25 5.25 5.25-2.36 5.25-5.25-2.36-5.25-5.25-5.25m0 8c-1.52 0-2.75-1.23-2.75-2.75s1.23-2.75 2.75-2.75S30.9 22 30.9 23.52s-1.23 2.75-2.75 2.75"/>
</svg>
