<svg viewBox="0 0 24 24" xmlns="http://www.w3.org/2000/svg">
  <path d="M12 4.09c-6.62 0-12 3.72-12 8.29s5.38 8.29 12 8.29 12-3.72 12-8.29-5.38-8.29-12-8.29m0 14.83c-5.65 0-10.25-2.93-10.25-6.54S6.35 5.84 12 5.84s10.25 2.93 10.25 6.54-4.6 6.54-10.25 6.54m-.17-6.61c0 1.17-.46 2.27-1.28 3.1l-1.24-1.24c.5-.5.77-1.16.77-1.86s-.27-1.36-.77-1.86l1.24-1.24c.83.83 1.28 1.93 1.28 3.1m-3.35-1.22c.27.36.42.78.42 1.22s-.14.86-.42 1.21l-1.39-1.06s.06-.1.06-.15-.02-.1-.05-.15l1.39-1.07Zm4.3-3.7c1.31 1.31 2.04 3.06 2.04 4.92s-.72 3.61-2.04 4.93L11.54 16c.99-.98 1.53-2.29 1.53-3.69s-.54-2.7-1.52-3.68l1.24-1.24Z"/>
</svg>
