<svg viewBox="0 0 24 24" xmlns="http://www.w3.org/2000/svg">
  <path d="M12 4.09c-6.62 0-12 3.72-12 8.29s5.38 8.29 12 8.29 12-3.72 12-8.29-5.38-8.29-12-8.29m-4.02 9.43-1.39-1.06s.06-.1.06-.15-.02-.1-.05-.15l1.39-1.07c.27.36.42.78.42 1.22s-.14.86-.42 1.21Zm2.56 1.89L9.3 14.17c.5-.5.77-1.16.77-1.86s-.27-1.36-.77-1.86l1.24-1.24c.83.83 1.28 1.93 1.28 3.1s-.46 2.27-1.28 3.1m2.74 1.83L12.04 16c.99-.98 1.53-2.29 1.53-3.69s-.54-2.7-1.52-3.68l1.24-1.24c1.31 1.31 2.04 3.06 2.04 4.92s-.72 3.61-2.04 4.93Z"/>
</svg>
