<svg viewBox="0 0 40 40" xmlns="http://www.w3.org/2000/svg">
  <path d="M20.4 31.38h1.52v2.87H6.04V6.07h15.87v1.59h-1.47l-.48 1.6-.43 1.44c-.62.27-1.21.61-1.76 1l-1.48-.35-1.63-.38-.84 1.45-1.33 2.3-.84 1.45 1.15 1.22 1.02 1.08c-.04.36-.07.71-.07 1.05q0 .48.06.99l-1.04 1.1-1.15 1.22.84 1.45 1.33 2.3.84 1.45 1.63-.38 1.44-.34q.825.6 1.77 1.02l.44 1.46.48 1.6Zm12.02-15.49-1.77 1.88c.14.57.23 1.15.23 1.75s-.1 1.22-.24 1.8l1.76 1.87-1.33 2.3-2.52-.59c-.86.81-1.91 1.4-3.08 1.74l-.75 2.49h-2.66l-.76-2.52c-1.15-.35-2.19-.94-3.03-1.75l-2.53.6-1.33-2.3 1.81-1.92c-.13-.55-.22-1.12-.22-1.71s.09-1.2.23-1.77l-1.8-1.91 1.33-2.3 2.56.6c.84-.8 1.88-1.39 3.02-1.72l.76-2.51h2.66l.76 2.51c1.16.34 2.21.93 3.06 1.75l2.5-.59 1.33 2.3Zm-5.87 3.64c0-1.71-1.38-3.09-3.09-3.09s-3.09 1.38-3.09 3.09 1.38 3.09 3.09 3.09 3.09-1.38 3.09-3.09M39.99 5.98v34H0v-34c0-3.31 2.68-6 5.99-6h28c3.31 0 6 2.69 6 6m-6.92 12.51.99-1.06 1.15-1.22-.84-1.45-1.33-2.3-.84-1.45-1.63.38-1.42.33a10 10 0 0 0-1.8-1.03l-.43-1.44-.48-1.6h-2.29V3.81H6.04c-1.24 0-2.25 1.01-2.25 2.25v28.18c0 1.24 1.01 2.25 2.25 2.25h18.12v-5.12h2.24l.48-1.6.42-1.41c.64-.28 1.25-.62 1.81-1.02l1.43.34 1.63.38.84-1.45 1.33-2.3.84-1.45-1.15-1.22-.98-1.04c.05-.37.07-.73.07-1.09s-.02-.68-.06-1.04Z"/>
</svg>
