<svg viewBox="0 0 64 64" xmlns="http://www.w3.org/2000/svg">
  <path d="M55.99 0h-48C3.57 0 0 3.58 0 8v56h63.99V8c0-4.42-3.58-8-8-8m5.25 61.25H2.74V8c0-2.89 2.36-5.25 5.25-5.25h48c2.89 0 5.25 2.36 5.25 5.25zm-5.35-35.64-1.02-1.77L52.65 20l-1.02-1.77-1.99.47-2.81.66c-1.08-.84-2.3-1.53-3.59-2.05l-.86-2.85-.59-1.96h-3.12V6.95H10.42c-1.52 0-2.75 1.23-2.75 2.75v42.79c0 1.52 1.23 2.75 2.75 2.75h28.25v-5.2h3.04l.59-1.96.84-2.8c1.3-.52 2.53-1.21 3.62-2.04l2.84.67 1.99.47 1.02-1.77 2.22-3.84L55.85 37l-1.4-1.49-1.96-2.08c.12-.74.18-1.46.18-2.15s-.05-1.35-.16-2.07l1.98-2.11zM35.92 52.49h-25.5V9.7h25.5v2.8h-2.65l-.59 1.96-.86 2.85c-1.27.51-2.46 1.19-3.53 2.01l-2.92-.69-1.99-.47-1.02 1.77-2.22 3.84-1.02 1.77 1.4 1.49 2.03 2.16c-.11.72-.17 1.41-.17 2.09s.05 1.3.15 1.99l-2.05 2.18-1.4 1.49 1.02 1.77 2.22 3.84 1.02 1.77 1.99-.47 2.86-.67c1.07.83 2.26 1.51 3.54 2.04l.86 2.87.59 1.96h2.73v2.45Zm13.99-21.21c0 1.04-.17 2.03-.41 3l2.94 3.12-2.22 3.84-4.19-.99a12.44 12.44 0 0 1-5.13 2.9l-1.25 4.15h-4.43l-1.26-4.2c-1.91-.58-3.64-1.56-5.04-2.92l-4.22.99-2.22-3.84 3.01-3.2c-.22-.92-.36-1.86-.36-2.85s.16-2 .39-2.94l-3-3.19 2.22-3.84 4.27 1.01c1.41-1.33 3.13-2.31 5.04-2.87l1.26-4.19h4.43L41 19.45c1.93.57 3.68 1.56 5.09 2.92l4.17-.98 2.22 3.84-2.95 3.14c.23.94.38 1.91.38 2.92Zm-12.37-6.93c-3.82 0-6.93 3.11-6.93 6.93s3.11 6.93 6.93 6.93 6.93-3.11 6.93-6.93-3.11-6.93-6.93-6.93m0 11.11c-2.31 0-4.18-1.88-4.18-4.18s1.88-4.18 4.18-4.18 4.18 1.88 4.18 4.18-1.88 4.18-4.18 4.18"/>
</svg>
