<svg viewBox="0 0 64 64" xmlns="http://www.w3.org/2000/svg">
  <path d="M59.97 11.16V8.6c0-1.66-1.34-3-3-3h-7.34c-1.66 0-3 1.34-3 3v2.56H17.31V8.58c0-1.66-1.34-3-3-3H6.97c-1.66 0-3 1.34-3 3v2.58H0v49.39h16.42v-5.29h31.15v5.29h16.42V11.16h-4.03ZM49.38 8.59c0-.14.11-.25.25-.25h7.34c.14 0 .25.11.25.25v2.54h-7.84zM6.73 8.58c0-.14.11-.25.25-.25h7.34c.14 0 .25.11.25.25v2.54H6.73zM61.25 57.8H50.33v-5.29H13.67v5.29H2.75V13.91h58.5zm-9.1-13.22V22.06c0-.76.62-1.38 1.38-1.38s1.38.62 1.38 1.38v22.52c0 .76-.62 1.38-1.38 1.38s-1.38-.62-1.38-1.38m-7.17 0V22.06c0-.76.62-1.38 1.38-1.38s1.38.62 1.38 1.38v22.52c0 .76-.62 1.38-1.38 1.38s-1.38-.62-1.38-1.38m-7.18 0V22.06c0-.76.62-1.38 1.38-1.38s1.38.62 1.38 1.38v22.52c0 .76-.62 1.38-1.38 1.38s-1.38-.62-1.38-1.38m-7.18 0V22.06c0-.76.62-1.38 1.38-1.38s1.38.62 1.38 1.38v22.52c0 .76-.62 1.38-1.38 1.38s-1.38-.62-1.38-1.38m-7.17 0V22.06c0-.76.62-1.38 1.38-1.38s1.38.62 1.38 1.38v22.52c0 .76-.62 1.38-1.38 1.38s-1.38-.62-1.38-1.38m-7.18 0V22.06c0-.76.62-1.38 1.38-1.38s1.38.62 1.38 1.38v22.52c0 .76-.62 1.38-1.38 1.38s-1.38-.62-1.38-1.38m-7.17 0V22.06c0-.76.62-1.38 1.38-1.38s1.38.62 1.38 1.38v22.52c0 .76-.62 1.38-1.38 1.38s-1.38-.62-1.38-1.38"/>
</svg>
