<svg viewBox="0 0 32 32" xmlns="http://www.w3.org/2000/svg">
  <path d="M29.98 5.51V3.77c0-.83-.67-1.5-1.5-1.5h-3.67c-.83 0-1.5.67-1.5 1.5v1.74H8.65V3.76c0-.83-.67-1.5-1.5-1.5H3.48c-.83 0-1.5.67-1.5 1.5v1.75H0v24.7h8.21v-2.64h15.58v2.64H32V5.51zM6.06 22.42c0 .55-.45 1-1 1s-1-.45-1-1V10.76c0-.55.45-1 1-1s1 .45 1 1zm4.37 0c0 .55-.45 1-1 1s-1-.45-1-1V10.76c0-.55.45-1 1-1s1 .45 1 1zm4.38 0c0 .55-.45 1-1 1s-1-.45-1-1V10.76c0-.55.45-1 1-1s1 .45 1 1zm4.38 0c0 .55-.45 1-1 1s-1-.45-1-1V10.76c0-.55.45-1 1-1s1 .45 1 1zm4.38 0c0 .55-.45 1-1 1s-1-.45-1-1V10.76c0-.55.45-1 1-1s1 .45 1 1zm4.37 0c0 .55-.45 1-1 1s-1-.45-1-1V10.76c0-.55.45-1 1-1s1 .45 1 1z"/>
</svg>
