<svg viewBox="0 0 48 48" xmlns="http://www.w3.org/2000/svg">
  <path d="M44.98 8.37V6.45c0-1.1-.9-2-2-2h-6c-1.1 0-2 .9-2 2v1.92H12.99V6.44c0-1.1-.9-2-2-2h-6c-1.1 0-2 .9-2 2v1.93H0v37.04h12.32v-3.96h23.36v3.96H48V8.37zm-7.51-1.42h5v1.37h-5zM5.48 6.94h5v1.37h-5zM45.5 42.92h-7.32v-3.96H9.82v3.96H2.5V10.87h43v32.04Zm-6.61-9.48V16.55a1.25 1.25 0 0 1 2.5 0v16.89a1.25 1.25 0 0 1-2.5 0m-5.38 0V16.55a1.25 1.25 0 0 1 2.5 0v16.89a1.25 1.25 0 0 1-2.5 0m-5.38 0V16.55a1.25 1.25 0 0 1 2.5 0v16.89a1.25 1.25 0 0 1-2.5 0m-5.38 0V16.55a1.25 1.25 0 0 1 2.5 0v16.89a1.25 1.25 0 0 1-2.5 0m-5.38 0V16.55a1.25 1.25 0 0 1 2.5 0v16.89a1.25 1.25 0 0 1-2.5 0m-5.38 0V16.55a1.25 1.25 0 0 1 2.5 0v16.89a1.25 1.25 0 0 1-2.5 0m-5.38 0V16.55a1.25 1.25 0 0 1 2.5 0v16.89a1.25 1.25 0 0 1-2.5 0"/>
</svg>
