<svg viewBox="0 0 32 32" xmlns="http://www.w3.org/2000/svg">
  <path d="M16.27 25.34h1.06v2.29H4.83V4.99h12.5v2.36H16.3l-.43 1.42-.27.89c-.37.17-.72.37-1.06.6l-.92-.22-1.45-.34-.74 1.29-.97 1.68-.74 1.29 1.02 1.08.63.67c-.02.22-.03.43-.03.64 0 .2 0 .39.03.59l-.64.68-1.02 1.08.74 1.29.97 1.68.74 1.29 1.45-.34.89-.21c.33.23.69.44 1.06.61l.27.9.43 1.42Zm9.02-11.64L24 15.07c.1.41.17.84.17 1.28s-.07.89-.18 1.31l1.28 1.36-.97 1.68-1.83-.43c-.62.59-1.39 1.02-2.24 1.27l-.55 1.81h-1.94l-.55-1.84a5.3 5.3 0 0 1-2.2-1.27l-1.84.43-.97-1.68 1.32-1.4c-.09-.4-.16-.81-.16-1.24s.07-.87.17-1.29l-1.31-1.39.97-1.68 1.87.44c.61-.58 1.37-1.01 2.2-1.25l.09-.31.46-1.52h1.94l.55 1.83c.84.25 1.61.68 2.23 1.27l1.82-.43.97 1.68Zm-4.53 2.65c0-1.1-.9-2-2-2s-2 .9-2 2 .9 2 2 2 2-.9 2-2M31.99 5.01v27H0v-27c0-.69.13-1.35.39-1.94A4.95 4.95 0 0 1 3.05.41C3.64.15 4.3.01 4.99.01h22c.69 0 1.35.14 1.95.39 1.2.51 2.15 1.46 2.66 2.66.25.6.39 1.26.39 1.95m-5.85 10.71.61-.65 1.02-1.08-.74-1.29-.97-1.68-.74-1.29-1.45.34-.87.21a7.3 7.3 0 0 0-1.09-.62l-.27-.89-.43-1.42h-1.88V2.99H4.83c-1.1 0-2 .9-2 2v22.64c0 1.1.9 2 2 2h14.5v-4.29h1.85l.43-1.42.26-.86c.38-.18.75-.38 1.1-.62l.89.21 1.45.34.74-1.29.97-1.68.74-1.29-1.02-1.08-.6-.63c.02-.23.03-.45.03-.67q0-.315-.03-.63"/>
</svg>
