<svg viewBox="0 0 40 40" xmlns="http://www.w3.org/2000/svg">
  <path d="M34.99 0h-30C2.23 0 0 2.24 0 5v35h40V5c-.01-2.76-2.25-5-5.01-5m2.75 37.75H2.24V5c0-1.52 1.23-2.75 2.75-2.75h30c1.52 0 2.75 1.23 2.75 2.75zm-2.53-21.52-.84-1.45-1.33-2.3-.84-1.45-1.63.38-1.42.33a10 10 0 0 0-1.8-1.03l-.43-1.44-.48-1.6h-2.29V4.33H7.04c-1.24 0-2.25 1.01-2.25 2.25v25.68c0 1.24 1.01 2.25 2.25 2.25h17.12v-3.12h2.24l.48-1.6.42-1.41c.64-.28 1.25-.62 1.81-1.02l1.43.34 1.63.38.84-1.45 1.33-2.3.84-1.45-1.15-1.22-.98-1.04c.05-.37.07-.73.07-1.09s-.02-.68-.06-1.04l.99-1.06 1.15-1.22ZM7.04 32.27V6.59h14.87v1.09h-1.47l-.48 1.6-.43 1.44c-.62.27-1.21.61-1.76 1l-1.48-.35-1.63-.38-.84 1.45-1.33 2.3-.84 1.45 1.15 1.22 1.02 1.08c-.04.36-.07.71-.07 1.05q0 .48.06.99l-1.04 1.1-1.15 1.22.84 1.45 1.33 2.3.84 1.45 1.63-.38 1.44-.34q.825.6 1.77 1.02l.44 1.46.48 1.6h1.52v.87H7.04Zm23.84-12.72c0 .62-.1 1.22-.24 1.8l1.76 1.87-1.33 2.3-2.52-.59c-.86.81-1.91 1.4-3.08 1.74l-.75 2.49h-2.66l-.16-.52-.6-2c-1.15-.35-2.19-.94-3.03-1.75l-2.53.6-1.33-2.3 1.81-1.92c-.13-.55-.22-1.12-.22-1.71s.09-1.2.23-1.77l-1.8-1.91 1.33-2.3 2.56.6c.84-.8 1.88-1.39 3.02-1.72l.76-2.51h2.66l.76 2.51c1.16.34 2.21.93 3.06 1.75l2.5-.59 1.33 2.3-1.77 1.88c.14.57.23 1.15.23 1.75Zm-7.42-4.22c-2.32 0-4.21 1.89-4.21 4.21s1.89 4.21 4.21 4.21 4.21-1.89 4.21-4.21-1.89-4.21-4.21-4.21m0 6.18c-1.08 0-1.96-.88-1.96-1.96s.88-1.96 1.96-1.96 1.96.88 1.96 1.96-.88 1.96-1.96 1.96"/>
</svg>
