<svg viewBox="0 0 48 48" xmlns="http://www.w3.org/2000/svg">
  <path d="M40.99 0h-34C3.13 0 0 3.13 0 7v41h48V7a7.01 7.01 0 0 0-7.01-7m-1.43 23.45c0 .45-.03.9-.1 1.38l1.24 1.32 1.27 1.35-.93 1.61-1.6 2.76-.93 1.61-1.81-.43-1.81-.43c-.71.52-1.48.95-2.3 1.3l-.53 1.78-.54 1.78h-2.54v5.94H6.75a2.5 2.5 0 0 1-2.5-2.5V6.71a2.5 2.5 0 0 1 2.5-2.5H29v5.2h2.6l.54 1.78.55 1.82c.81.35 1.58.79 2.28 1.3l1.79-.42 1.81-.43.93 1.61 1.6 2.76.93 1.61-1.27 1.35-1.26 1.34c.06.45.09.89.09 1.31Zm-2.24-7.13-3 .71c-1.02-.98-2.28-1.69-3.67-2.1l-.91-3.02h-3.19l-.91 3.02A8.9 8.9 0 0 0 22.01 17l-3.07-.72-1.6 2.76 2.16 2.3c-.17.68-.28 1.39-.28 2.12s.1 1.39.26 2.05l-2.17 2.3 1.6 2.76 3.04-.72c1.01.98 2.25 1.68 3.63 2.1l.91 3.03h3.19l.9-2.99c1.4-.4 2.66-1.11 3.69-2.08l3.02.71 1.6-2.76-2.11-2.25c.17-.69.29-1.41.29-2.16s-.11-1.43-.28-2.1l2.13-2.26-1.6-2.76Zm-9.17 11.01c-2.14 0-3.88-1.73-3.88-3.88s1.73-3.88 3.88-3.88 3.88 1.73 3.88 3.88-1.73 3.88-3.88 3.88m-1.66 10.15h.01v3.44H6.75V6.71H26.5v2.7h-1.81l-.54 1.78-.55 1.82c-.79.34-1.54.77-2.23 1.27l-1.87-.44-1.81-.43-.93 1.61-1.6 2.76-.93 1.61 1.27 1.35 1.29 1.37c-.06.46-.09.9-.09 1.33 0 .41.03.83.08 1.25l-1.31 1.39-1.27 1.35.93 1.61 1.6 2.76.93 1.61 1.81-.43 1.82-.43c.69.51 1.44.94 2.24 1.29l.55 1.83.54 1.78h1.86Z"/>
</svg>
