<svg viewBox="0 0 48 48" xmlns="http://www.w3.org/2000/svg">
  <path d="M24 8.35C10.77 8.35.01 15.71.01 24.76S10.77 41.17 24 41.17s23.99-7.36 23.99-16.41S37.23 8.35 24 8.35m0 30.32c-11.85 0-21.49-6.24-21.49-13.91S12.15 10.85 24 10.85s21.49 6.24 21.49 13.91S35.85 38.67 24 38.67m.6-14.05c0 2.25-.88 4.36-2.47 5.95l-1.77-1.77c1.12-1.12 1.73-2.61 1.73-4.19s-.62-3.07-1.73-4.19l1.77-1.77a8.38 8.38 0 0 1 2.47 5.96Zm-5.97-2.16c.48.63.74 1.38.74 2.16s-.26 1.52-.74 2.16l-1.99-1.52c.15-.2.23-.41.23-.64s-.08-.44-.23-.64zm7.35-7.52c2.58 2.59 4 6.02 4 9.68s-1.42 7.1-4.01 9.69l-1.77-1.77c2.12-2.12 3.28-4.93 3.28-7.92s-1.16-5.8-3.27-7.91z"/>
</svg>
