<svg viewBox="0 0 16 16" xmlns="http://www.w3.org/2000/svg">
  <path d="M14.99 2.76v-.87c0-.36-.29-.65-.65-.65h-1.69c-.36 0-.65.29-.65.65v.87H4v-.87c0-.36-.29-.65-.65-.65H1.66c-.36 0-.65.29-.65.65v.87H.02v12.01h4.11v-.99h7.79v.99h4.11V2.76h-1.01Zm-10.7 7.7c0 .41-.34.75-.75.75s-.75-.34-.75-.75V6.13c0-.41.34-.75.75-.75s.75.34.75.75zm2.97 0c0 .41-.34.75-.75.75s-.75-.34-.75-.75V6.13c0-.41.34-.75.75-.75s.75.34.75.75zm2.98 0c0 .41-.34.75-.75.75s-.75-.34-.75-.75V6.13c0-.41.34-.75.75-.75s.75.34.75.75zm2.97 0c0 .41-.34.75-.75.75s-.75-.34-.75-.75V6.13c0-.41.34-.75.75-.75s.75.34.75.75z"/>
</svg>
