<svg viewBox="0 0 24 24" xmlns="http://www.w3.org/2000/svg">
  <path d="M22.49 4.13V2.24c0-.36-.29-.65-.65-.65h-3.69c-.36 0-.65.29-.65.65v1.89H6.49V2.24c0-.36-.29-.65-.65-.65H2.15c-.36 0-.65.29-.65.65v1.89H0v18.52h6.16v-1.98h11.68v1.98H24V4.13zm-3.25-.78h1.5v.78h-1.5zm-16-.01h1.5v.78h-1.5zm19.01 17.57h-2.66v-1.98H4.41v1.98H1.75V5.88h20.5V20.9Zm-4.43-4.22V8.2c0-.48.39-.88.88-.88s.88.39.88.88v8.49c0 .48-.39.88-.88.88s-.88-.39-.88-.88m-3.35 0V8.2c0-.48.39-.88.88-.88s.88.39.88.88v8.49c0 .48-.39.88-.88.88s-.88-.39-.88-.88m-6.69 0V8.2c0-.48.39-.88.88-.88s.88.39.88.88v8.49c0 .48-.39.88-.88.88s-.88-.39-.88-.88m-3.35 0V8.2c0-.48.39-.88.88-.88s.88.39.88.88v8.49c0 .48-.39.88-.88.88s-.88-.39-.88-.88m6.69 0V8.2c0-.48.39-.88.88-.88s.88.39.88.88v8.49c0 .48-.39.88-.88.88s-.88-.39-.88-.88"/>
</svg>
