<svg viewBox="0 0 64 64" xmlns="http://www.w3.org/2000/svg">
  <path d="M32 11.25C14.38 11.25.04 21.01.04 33.01S14.38 54.77 32 54.77s31.96-9.76 31.96-21.76S49.62 11.25 32 11.25m0 40.78c-16.11 0-29.21-8.53-29.21-19.01S15.89 14 32 14s29.21 8.53 29.21 19.01S48.11 52.02 32 52.02Zm.49-19.21c0 2.94-1.15 5.71-3.23 7.79l-1.95-1.94c1.56-1.56 2.42-3.64 2.42-5.85s-.86-4.29-2.42-5.85l1.95-1.94c2.08 2.08 3.23 4.85 3.23 7.79m-7.32-2.72c.61.8.93 1.74.93 2.71s-.32 1.92-.93 2.71l-2.18-1.67c.24-.31.37-.67.37-1.04s-.13-.73-.37-1.04zm8.6-10.08c3.41 3.42 5.29 7.97 5.29 12.8s-1.89 9.39-5.31 12.82l-1.95-1.95c2.9-2.9 4.5-6.76 4.5-10.87s-1.59-7.96-4.49-10.86l1.95-1.94Z"/>
</svg>
