<svg viewBox="0 0 24 24" xmlns="http://www.w3.org/2000/svg">
  <path d="M20.99.03h-18a3 3 0 0 0-2.99 3v21h24v-21c0-1.66-1.34-3-3-3Zm1.25 22.25H1.74V3.03c0-.69.56-1.25 1.25-1.25h18c.69 0 1.25.56 1.25 1.25zM21.51 9.8l-.65-1.13-.73-1.26-.65-1.13-1.27.3-.55.13c-.21-.14-.43-.26-.66-.37l-.17-.56-.37-1.25h-1.85V3.01H5c-.97 0-1.75.78-1.75 1.75v13.48c0 .97.78 1.75 1.75 1.75h9.62v-1.46h1.82l.37-1.25.16-.54c.23-.11.45-.24.66-.38l.56.13 1.27.3.65-1.13.73-1.26.65-1.13-.89-.95-.37-.39c.01-.14.02-.28.02-.41s0-.25-.01-.38l.38-.41.89-.95ZM5 4.76h7.35l-.3 1.01-.17.56q-.33.165-.63.36l-.58-.14-1.27-.3-.65 1.13-.73 1.26-.65 1.13.89.95.39.42c-.01.13-.02.26-.02.39 0 .12 0 .23.01.35l-.4.43-.89.95.65 1.13.73 1.26.65 1.13 1.27-.3.56-.13c.2.14.42.26.64.37l.17.57.29.96H5zm13.5 6.77c0 .34-.05.67-.13.98l.96 1.02-.73 1.26-1.37-.32c-.47.44-1.04.77-1.68.95l-.41 1.36h-1.45l-.41-1.38c-.63-.19-1.19-.51-1.65-.96l-1.38.33-.73-1.26.99-1.05c-.07-.3-.12-.61-.12-.93s.05-.65.13-.96l-.98-1.04.73-1.26 1.4.33c.46-.44 1.03-.76 1.65-.94l.41-1.37h1.45l.41 1.37c.63.19 1.21.51 1.67.96l1.37-.32.73 1.26-.97 1.03c.08.31.13.63.13.96Zm-4.05-2.37c-1.31 0-2.38 1.07-2.38 2.38s1.07 2.38 2.38 2.38 2.38-1.07 2.38-2.38-1.07-2.38-2.38-2.38m0 3c-.34 0-.62-.28-.62-.62s.28-.62.62-.62.62.28.62.62-.28.62-.62.62"/>
</svg>
