<svg viewBox="0 0 64 64" xmlns="http://www.w3.org/2000/svg">
  <path d="M59.97 11.16V8.6c0-.83-.34-1.58-.88-2.12-.14-.14-.28-.26-.44-.37-.48-.32-1.06-.51-1.68-.51h-7.34c-.62 0-1.2.19-1.68.51-.16.11-.31.23-.44.37-.54.54-.88 1.29-.88 2.12v2.56H17.31V8.58c0-1.66-1.34-3-3-3H6.97c-1.66 0-3 1.34-3 3v2.58H0v49.39h16.42v-5.29h31.15v5.29h16.42V11.16h-4.03ZM10.85 44.58c0 .76-.62 1.38-1.38 1.38s-1.38-.62-1.38-1.38V22.06c0-.76.62-1.38 1.38-1.38s1.38.62 1.38 1.38zm6.44 0c0 .76-.62 1.38-1.38 1.38s-1.38-.62-1.38-1.38V22.06c0-.76.62-1.38 1.38-1.38s1.38.62 1.38 1.38zm6.43 0c0 .76-.62 1.38-1.38 1.38s-1.38-.62-1.38-1.38V22.06c0-.76.62-1.38 1.38-1.38s1.38.62 1.38 1.38zm6.44 0c0 .76-.62 1.38-1.38 1.38s-1.38-.62-1.38-1.38V22.06c0-.76.62-1.38 1.38-1.38s1.38.62 1.38 1.38zm6.43 0c0 .76-.62 1.38-1.38 1.38s-1.38-.62-1.38-1.38V22.06c0-.76.62-1.38 1.38-1.38s1.38.62 1.38 1.38zm6.44 0c0 .76-.62 1.38-1.38 1.38s-1.38-.62-1.38-1.38V22.06c0-.76.62-1.38 1.38-1.38s1.38.62 1.38 1.38zm6.43 0c0 .76-.62 1.38-1.38 1.38s-1.38-.62-1.38-1.38V22.06c0-.76.62-1.38 1.38-1.38s1.38.62 1.38 1.38zm6.44 0c0 .76-.62 1.38-1.38 1.38s-1.38-.62-1.38-1.38V22.06c0-.76.62-1.38 1.38-1.38s1.38.62 1.38 1.38z"/>
</svg>
