<svg viewBox="0 0 48 48" xmlns="http://www.w3.org/2000/svg">
  <path d="M44.98 8.37V6.45c0-1.1-.9-2-2-2h-6c-1.1 0-2 .9-2 2v1.92H12.99V6.44c0-.49-.18-.93-.48-1.28q-.12-.15-.27-.27a1.97 1.97 0 0 0-1.25-.45h-6c-.41 0-.8.13-1.12.34-.21.14-.4.33-.54.54-.22.32-.34.7-.34 1.12v1.93H0v37.04h12.32v-3.96h23.36v3.96H48V8.37zM8.11 33.44a1.25 1.25 0 0 1-2.5 0V16.55a1.25 1.25 0 0 1 2.5 0zm5.71 0a1.25 1.25 0 0 1-2.5 0V16.55a1.25 1.25 0 0 1 2.5 0zm5.72 0a1.25 1.25 0 0 1-2.5 0V16.55a1.25 1.25 0 0 1 2.5 0zm5.71 0a1.25 1.25 0 0 1-2.5 0V16.55a1.25 1.25 0 0 1 2.5 0zm5.71 0a1.25 1.25 0 0 1-2.5 0V16.55a1.25 1.25 0 0 1 2.5 0zm5.72 0a1.25 1.25 0 0 1-2.5 0V16.55a1.25 1.25 0 0 1 2.5 0zm5.71 0a1.25 1.25 0 0 1-2.5 0V16.55a1.25 1.25 0 0 1 2.5 0z"/>
</svg>
