<svg viewBox="0 0 16 16" xmlns="http://www.w3.org/2000/svg">
  <path d="m7.85 11.83.06.19v1.12h-5V2.66h5v1.19l-.04.13-.07.24c-.07.04-.14.08-.2.12l-.25-.06-1.09-.26-.56.97-.48.84-.56.97.76.81.17.18v.25l-.17.18-.76.81.56.97.48.84.56.97 1.09-.26.24-.06.21.12.07.25Zm8.14-9.58V16H0V2.25C0 1.01 1 0 2.24 0h11.5c1.24 0 2.25 1.01 2.25 2.25M14 7.77l.16-.17.76-.81-.56-.97-.48-.84-.56-.97-1.09.26-.23.05c-.07-.04-.14-.09-.22-.13l-.07-.24-.32-1.07H9.41V1.13h-6.5c-.83 0-1.5.67-1.5 1.5v10.49c0 .83.67 1.5 1.5 1.5h6.5v-1.74h1.96l.32-1.07.07-.22c.08-.04.15-.08.22-.13l.24.06 1.09.26.56-.97.48-.84.56-.97-.76-.81-.15-.16v-.28Zm-1.59.79.64.68-.48.84-.92-.22c-.31.3-.7.51-1.12.63l-.27.91h-.97l-.28-.92c-.42-.13-.8-.34-1.1-.64l-.92.22-.48-.84.66-.7c-.05-.2-.08-.41-.08-.62s.03-.44.09-.64l-.66-.7.48-.84.91.21h.02c.31-.29.68-.5 1.1-.62l.28-.92h.97l.28.92c.42.12.8.34 1.11.64l.91-.21.48.84-.65.69c.05.21.08.42.08.64s-.04.44-.09.65Zm-1.62-.66c0-.55-.45-1-1-1s-1 .45-1 1 .45 1 1 1 1-.45 1-1"/>
</svg>
