<svg viewBox="0 0 16 16" xmlns="http://www.w3.org/2000/svg">
  <path d="M8 2.67c-4.41 0-8 2.51-8 5.58s3.51 5.58 8 5.58 8-2.45 8-5.58-3.59-5.58-8-5.58m0 9.67c-3.52 0-6.5-1.87-6.5-4.08S4.48 4.18 8 4.18s6.5 1.87 6.5 4.08-2.98 4.08-6.5 4.08m.07-4.13c0 .81-.31 1.59-.88 2.16l-1.17-.95c.29-.29.56-.8.56-1.21s-.22-1.02-.51-1.32l1.12-.83c.57.57.89 1.34.89 2.15Zm-2.55-.9c.2.26.31.58.31.9s-.11.64-.31.9L4.33 8.2zm3.36-2.56c.89.89 1.46 2.2 1.46 3.46s-.57 2.57-1.46 3.46l-1.25-.95c.61-.61 1.21-1.65 1.21-2.51s-.38-2.07-.99-2.68z"/>
</svg>
