<svg viewBox="0 0 32 32" xmlns="http://www.w3.org/2000/svg">
  <path d="M27.99 0h-24C1.78 0 0 1.8 0 4v28h31.99V4c0-2.2-1.79-4-4-4m2 30h-28V4c0-1.1.9-2 2-2h24c1.1 0 2 .9 2 2zm-2.22-17.02-.74-1.29-.97-1.68-.74-1.29-1.45.34-.87.21a7.3 7.3 0 0 0-1.09-.62l-.27-.89-.43-1.42h-1.88V3.48H5.83c-1.1 0-2 .9-2 2v20.14c0 1.1.9 2 2 2h13.5v-3.29h1.85l.43-1.42.26-.86c.38-.18.75-.38 1.1-.62l.89.21 1.45.34.74-1.29.97-1.68.74-1.29-1.02-1.08-.6-.63c.02-.23.03-.45.03-.67q0-.315-.03-.63l.61-.65zM5.83 25.62V5.48h11.5v.86H16.3l-.43 1.42-.27.89c-.37.17-.72.37-1.06.6l-.92-.22-1.45-.34-.74 1.29-.97 1.68-.74 1.29 1.02 1.08.63.67c-.02.22-.03.43-.03.64 0 .2 0 .39.03.59l-.64.68-1.02 1.08.74 1.29.97 1.68.74 1.29 1.45-.34.89-.21c.33.23.69.44 1.06.61l.27.9.43 1.42h1.06v1.29zm18.34-10.28c0 .45-.07.89-.18 1.31l1.28 1.36-.97 1.68-1.83-.43c-.62.59-1.39 1.02-2.24 1.27l-.55 1.81h-1.94l-.55-1.84a5.3 5.3 0 0 1-2.2-1.27l-1.84.43-.97-1.68 1.32-1.4c-.09-.4-.16-.81-.16-1.24s.07-.87.17-1.29l-1.31-1.39.97-1.68 1.87.44c.61-.58 1.37-1.01 2.2-1.25l.09-.31.46-1.52h1.94l.55 1.83c.84.25 1.61.68 2.23 1.27l1.82-.43.97 1.68-1.29 1.37c.1.41.17.84.17 1.28Zm-5.41-3.25c-1.79 0-3.25 1.46-3.25 3.25s1.46 3.25 3.25 3.25 3.25-1.46 3.25-3.25-1.46-3.25-3.25-3.25m0 4.5a1.25 1.25 0 1 1 0-2.5 1.25 1.25 0 0 1 0 2.5"/>
</svg>
