<svg viewBox="0 0 48 48" xmlns="http://www.w3.org/2000/svg">
  <path d="M47.7 20.31c-1.02.8-2.29 1.3-3.68 1.3-3.31 0-6-2.69-6-6.01 0-1.48.55-2.82 1.44-3.87-.46.12-.94.19-1.44.19-3.31 0-6-2.69-6-6.01 0-.28.05-.55.08-.81a5.94 5.94 0 0 1-4.33 1.87c-3.31 0-6-2.69-6-6.01a6 6 0 0 1 .1-.95C9.61 1.09 0 11.39 0 23.95 0 37.23 10.75 48 24 48s24-10.77 24-24.05c0-1.24-.12-2.45-.3-3.64M24 45.5c-11.85 0-21.5-9.67-21.5-21.55C2.5 13.6 9.64 4.96 19.48 2.88c.88 3.77 4.26 6.58 8.28 6.58.82 0 1.62-.12 2.38-.34a8.54 8.54 0 0 0 5.51 4.96c-.09.5-.14 1-.14 1.51 0 4.69 3.81 8.51 8.5 8.51.5 0 1-.04 1.49-.13C45.49 35.84 35.85 45.5 24 45.5m-2.73-28.74c0-3.31-2.69-6-6-6s-6 2.69-6 6 2.69 6 6 6 6-2.69 6-6m-6.01 3.5c-1.93 0-3.5-1.57-3.5-3.5s1.57-3.5 3.5-3.5 3.5 1.57 3.5 3.5-1.57 3.5-3.5 3.5M30 19.49c0 1.24-1.01 2.25-2.25 2.25s-2.25-1.01-2.25-2.25 1.01-2.25 2.25-2.25S30 18.25 30 19.49m-7.05 8.52c-3.31 0-6 2.69-6 6s2.69 6 6 6 6-2.69 6-6-2.69-6-6-6m0 9.5c-1.93 0-3.5-1.57-3.5-3.5s1.57-3.5 3.5-3.5 3.5 1.57 3.5 3.5-1.57 3.5-3.5 3.5m15.98-6.47c0 1.24-1.01 2.25-2.25 2.25s-2.25-1.01-2.25-2.25 1.01-2.25 2.25-2.25 2.25 1.01 2.25 2.25m-25.91-3.03c0 1.24-1.01 2.25-2.25 2.25s-2.25-1.01-2.25-2.25 1.01-2.25 2.25-2.25 2.25 1.01 2.25 2.25"/>
</svg>
