<svg viewBox="0 0 24 24" xmlns="http://www.w3.org/2000/svg">
  <path d="M23.85 10.14c-.51.4-1.14.65-1.84.65-1.66 0-3-1.35-3-3.01 0-.74.28-1.41.72-1.93-.23.06-.47.1-.72.1-1.66 0-3-1.35-3-3.01 0-.14.02-.27.04-.41-.55.57-1.31.94-2.17.94-1.66 0-3-1.35-3-3.01 0-.16.02-.32.05-.47C4.81.53 0 5.68 0 11.96c0 6.64 5.37 12.03 12 12.03s12-5.38 12-12.03c0-.62-.06-1.22-.15-1.82M12 22.24c-5.65 0-10.25-4.61-10.25-10.28 0-4.78 3.19-8.79 7.65-9.94.65 1.86 2.41 3.2 4.49 3.2.31 0 .61-.03.91-.09a4.76 4.76 0 0 0 2.48 2.24c-.01.14-.02.28-.02.41 0 2.62 2.13 4.76 4.75 4.76h.23c-.3 5.4-4.77 9.7-10.23 9.7ZM10.63 8.37c0-1.66-1.34-3-3-3s-3 1.34-3 3 1.34 3 3 3 3-1.34 3-3m-3 1.25a1.25 1.25 0 1 1 0-2.5 1.25 1.25 0 0 1 0 2.5m5.37.11c0-.48.39-.88.88-.88s.88.39.88.88-.39.88-.88.88-.88-.39-.88-.88m-1.14 3.9c-1.66 0-3 1.34-3 3s1.34 3 3 3 3-1.34 3-3-1.34-3-3-3m0 4.25a1.25 1.25 0 1 1 0-2.5 1.25 1.25 0 0 1 0 2.5m7.36-2.37c0 .48-.39.88-.88.88s-.88-.39-.88-.88.39-.88.88-.88.88.39.88.88M6.26 13.99c0 .48-.39.88-.88.88s-.88-.39-.88-.88.39-.88.88-.88.88.39.88.88"/>
</svg>
