<svg viewBox="0 0 64 64" xmlns="http://www.w3.org/2000/svg">
  <path d="M63.59 27.06c-1.36 1.07-3.05 1.73-4.91 1.73-4.42 0-8-3.59-8-8.02 0-1.97.74-3.76 1.92-5.16-.62.15-1.26.26-1.92.26-4.42 0-8-3.59-8-8.02 0-.37.06-.73.11-1.09-1.46 1.53-3.5 2.49-5.78 2.49-4.42 0-8-3.59-8-8.02 0-.43.06-.85.13-1.26C12.81 1.44 0 15.17 0 31.91c0 17.71 14.33 32.07 32 32.07s32-14.36 32-32.07c0-1.65-.16-3.27-.41-4.85M32 61.24c-16.13 0-29.25-13.15-29.25-29.32 0-7.37 2.74-14.42 7.72-19.84 4.27-4.65 9.85-7.75 15.96-8.93.9 5.04 5.3 8.88 10.58 8.88 1.22 0 2.41-.2 3.52-.59 1.21 3.43 4.1 6.07 7.68 6.92-.19.8-.29 1.61-.29 2.43 0 5.94 4.82 10.77 10.75 10.77.87 0 1.73-.11 2.56-.31 0 .23.01.46.01.68 0 16.17-13.12 29.32-29.25 29.32Zm-3.65-38.91c0-4.42-3.58-8-8-8s-8 3.58-8 8 3.58 8 8 8 8-3.58 8-8m-8 5.25c-2.89 0-5.25-2.36-5.25-5.25s2.36-5.25 5.25-5.25 5.25 2.36 5.25 5.25-2.36 5.25-5.25 5.25m19.4-1.6c0 1.52-1.23 2.75-2.75 2.75s-2.75-1.23-2.75-2.75 1.23-2.75 2.75-2.75 2.75 1.23 2.75 2.75m-9.16 11.35c-4.42 0-8 3.58-8 8s3.58 8 8 8 8-3.58 8-8-3.58-8-8-8m0 13.25c-2.89 0-5.25-2.36-5.25-5.25s2.36-5.25 5.25-5.25 5.25 2.36 5.25 5.25-2.36 5.25-5.25 5.25m21.07-9.2c0 1.52-1.23 2.75-2.75 2.75s-2.75-1.23-2.75-2.75 1.23-2.75 2.75-2.75 2.75 1.23 2.75 2.75M17.1 37.33c0 1.52-1.23 2.75-2.75 2.75s-2.75-1.23-2.75-2.75 1.23-2.75 2.75-2.75 2.75 1.23 2.75 2.75"/>
</svg>
