<svg viewBox="0 0 32 32" xmlns="http://www.w3.org/2000/svg">
  <path d="M31.8 13.54c-.68.53-1.53.87-2.46.87-2.21 0-4-1.79-4-4.01 0-.99.37-1.88.96-2.58-.31.08-.63.13-.96.13-2.21 0-4-1.79-4-4.01 0-.19.03-.36.05-.54-.73.77-1.75 1.25-2.89 1.25-2.21 0-4-1.79-4-4.01 0-.22.03-.42.06-.63C6.41.73 0 7.59 0 15.96 0 24.82 7.17 32 16 32s16-7.18 16-16.04c0-.83-.08-1.63-.2-2.43ZM16 30C8.28 30 2 23.7 2 15.96 2 9.33 6.5 3.78 12.75 2.31c.73 2.5 3.04 4.33 5.76 4.33.48 0 .94-.06 1.4-.16a6.04 6.04 0 0 0 3.49 3.14c-.03.26-.05.51-.05.77 0 3.31 2.69 6.01 6 6.01.22 0 .44-.01.65-.04-.21 7.55-6.41 13.63-13.99 13.63Zm-1.82-18.83c0-2.21-1.79-4-4-4s-4 1.79-4 4 1.79 4 4 4 4-1.79 4-4m-4 2c-1.1 0-2-.9-2-2s.9-2 2-2 2 .9 2 2-.9 2-2 2M20 13c0 .83-.67 1.5-1.5 1.5S17 13.83 17 13s.67-1.5 1.5-1.5 1.5.67 1.5 1.5m-4.7 5.67c-2.21 0-4 1.79-4 4s1.79 4 4 4 4-1.79 4-4-1.79-4-4-4m0 6c-1.1 0-2-.9-2-2s.9-2 2-2 2 .9 2 2-.9 2-2 2m10.66-3.97c0 .83-.67 1.5-1.5 1.5s-1.5-.67-1.5-1.5.67-1.5 1.5-1.5 1.5.67 1.5 1.5M8.68 18.67c0 .83-.67 1.5-1.5 1.5s-1.5-.67-1.5-1.5.67-1.5 1.5-1.5 1.5.67 1.5 1.5"/>
</svg>
