<svg viewBox="0 0 16 16" xmlns="http://www.w3.org/2000/svg">
  <path d="M14.43 3.22c-.08 0-.16.02-.23.04.05-.06.1-.11.14-.17.03.04.06.09.1.13ZM16 7.98C16 12.41 12.42 16 8 16s-8-3.59-8-8.02C0 3.8 3.21.36 7.29 0c-.02.1-.03.21-.03.32a2 2 0 0 0 2 2c.57 0 1.08-.24 1.44-.62-.01.09-.03.18-.03.27a2 2 0 0 0 2 2c.17 0 .33-.03.48-.06-.3.35-.48.8-.48 1.29a2 2 0 0 0 2 2c.47 0 .89-.17 1.23-.43.06.4.1.8.1 1.21m-1.54.72a3.51 3.51 0 0 1-3.29-3.5v-.06A3.5 3.5 0 0 1 9.68 3.8c-.14.02-.29.03-.43.03-1.42 0-2.64-.85-3.19-2.06-2.67.81-4.56 3.29-4.56 6.21 0 3.59 2.92 6.52 6.5 6.52 3.34 0 6.11-2.54 6.46-5.8M5.09 7.59c-1.1 0-2-.9-2-2s.9-2 2-2 2 .9 2 2-.9 2-2 2m.5-2c0-.28-.22-.5-.5-.5s-.5.22-.5.5.22.5.5.5.5-.22.5-.5m3.66.16c-.41 0-.75.34-.75.75s.34.75.75.75.75-.34.75-.75-.34-.75-.75-.75m.61 5.35c0 1.1-.9 2-2 2s-2-.9-2-2 .9-2 2-2 2 .9 2 2m-1.5 0c0-.28-.22-.5-.5-.5s-.5.22-.5.5.22.5.5.5.5-.22.5-.5m3.12-.75c0 .41.34.75.75.75s.75-.34.75-.75-.34-.75-.75-.75-.75.34-.75.75M3.59 8.59c-.41 0-.75.34-.75.75s.34.75.75.75.75-.34.75-.75-.34-.75-.75-.75"/>
</svg>
