<svg viewBox="0 0 40 40" xmlns="http://www.w3.org/2000/svg">
  <path d="M21.87 28.33c0 1.52-1.23 2.75-2.75 2.75s-2.75-1.23-2.75-2.75 1.23-2.75 2.75-2.75 2.75 1.23 2.75 2.75M12.72 11.2c-1.52 0-2.75 1.23-2.75 2.75s1.23 2.75 2.75 2.75 2.75-1.23 2.75-2.75-1.23-2.75-2.75-2.75M40 19.94c0 2.77-.56 5.4-1.57 7.8C35.39 34.93 28.29 39.98 20 39.98S4.61 34.94 1.57 27.74A20 20 0 0 1 0 19.94c0-4.58 1.53-8.8 4.11-12.17a20.1 20.1 0 0 1 6.95-5.76q.825-.405 1.68-.75C14.46.6 16.3.16 18.22-.01l-.06.39c-.01.13-.02.26-.02.4 0 1.38.56 2.64 1.46 3.54.9.91 2.15 1.47 3.54 1.47s2.7-.6 3.61-1.56c-.03.22-.07.45-.07.68 0 .35.03.68.1 1.01a5.04 5.04 0 0 0 2.95 3.61c.6.25 1.26.39 1.95.39.42 0 .81-.07 1.2-.16-.74.87-1.2 1.99-1.2 3.22 0 2.77 2.24 5.01 5 5.01.29 0 .58-.03.85-.08.83-.15 1.58-.51 2.22-1.01q.12.75.18 1.5c.06.75.07 1.02.07 1.53Zm-29.15 3.39c0-1.04-.84-1.87-1.88-1.87s-1.88.84-1.88 1.87.84 1.87 1.88 1.87 1.88-.84 1.88-1.87m1.87-4.38c2.76 0 5-2.24 5-5s-2.24-5-5-5-5 2.24-5 5 2.24 5 5 5m11.4 9.38c0-2.76-2.24-5-5-5s-5 2.24-5 5 2.24 5 5 5 5-2.24 5-5m.88-12.1c0-1.04-.84-1.87-1.88-1.87s-1.88.84-1.88 1.87.84 1.87 1.88 1.87S25 17.26 25 16.23m7.45 9.63c0-1.04-.84-1.87-1.88-1.87s-1.88.84-1.88 1.87.84 1.87 1.88 1.87 1.88-.84 1.88-1.87"/>
</svg>
