<svg viewBox="0 0 40 40" xmlns="http://www.w3.org/2000/svg">
  <path d="M40.02 0v7.79c0 .62-.5 1.13-1.13 1.13s-1.13-.5-1.13-1.13V3.85l-7.67 7.67-1.59-1.59 7.67-7.67h-3.94a1.129 1.129 0 1 1 0-2.26zM1.14 8.91c.62 0 1.13-.5 1.13-1.13V3.84l7.67 7.67 1.59-1.59-7.67-7.67H7.8c.62 0 1.13-.5 1.13-1.13S8.42 0 7.8 0H.02v7.79c0 .62.5 1.13 1.13 1.13Zm8.79 19.58-7.67 7.67v-3.94c0-.62-.5-1.13-1.13-1.13s-1.11.5-1.11 1.12V40h7.79c.62 0 1.13-.5 1.13-1.13s-.5-1.13-1.13-1.13H3.87l7.67-7.67-1.59-1.59Zm28.96 2.6c-.62 0-1.13.5-1.13 1.13v3.94l-7.67-7.67-1.59 1.59 7.67 7.67h-3.94c-.62 0-1.13.5-1.13 1.13s.5 1.13 1.13 1.13h7.79v-7.79c0-.62-.5-1.13-1.13-1.13m-18.88-15.2c2.65 0 4.81-2.16 4.81-4.81s-2.16-4.81-4.81-4.81-4.81 2.16-4.81 4.81 2.16 4.81 4.81 4.81m8.97 10.88v-3.38c0-2.71-2.2-4.91-4.91-4.91h-8.11c-2.71 0-4.91 2.2-4.91 4.91v3.38h17.94Z"/>
</svg>
