<svg viewBox="0 0 32 32" xmlns="http://www.w3.org/2000/svg">
  <path d="M32.02 0v6.33c0 .55-.45 1-1 1s-1-.45-1-1V3.42l-5.96 5.96-1.41-1.41 5.96-5.96H25.7c-.55 0-1-.45-1-1S25.14 0 25.69 0zM1.03 7.33c.55 0 1-.45 1-1V3.42l5.96 5.96L9.4 7.97 3.44 2h2.91c.55 0 1-.45 1-1s-.44-1-.99-1H.03v6.33c0 .55.45 1 1 1m6.94 15.29-5.96 5.96v-2.91c0-.55-.45-1-1-1s-1 .45-1 1V32h6.33c.55 0 1-.45 1-1s-.45-1-1-1H3.43l5.96-5.96-1.41-1.41ZM31 24.67c-.55 0-1 .45-1 1v2.91l-5.96-5.96-1.41 1.41 5.96 5.96h-2.91c-.55 0-1 .45-1 1s.45 1 1 1h6.33v-6.33c0-.55-.45-1-1-1ZM16.01 12.83a3.95 3.95 0 0 0 0-7.9 3.95 3.95 0 0 0 0 7.9m7.27 8.59v-2.7c0-2.22-1.81-4.03-4.03-4.03h-6.48c-2.22 0-4.03 1.81-4.03 4.03v2.7z"/>
</svg>
