<svg viewBox="0 0 48 48" xmlns="http://www.w3.org/2000/svg">
  <path d="m34.26 11.98 9.48-9.48h-5.05a1.25 1.25 0 0 1 0-2.5h9.32v9.32a1.25 1.25 0 0 1-2.5 0V4.27l-9.48 9.48zm-33-1.41c.69 0 1.25-.56 1.25-1.25V4.27l9.48 9.48 1.77-1.77L4.28 2.5h5.05a1.25 1.25 0 0 0 0-2.5H0v9.32c0 .69.56 1.25 1.25 1.25ZM12 34.25l-9.48 9.48v-5.05a1.25 1.25 0 0 0-2.5 0V48h9.32a1.25 1.25 0 0 0 0-2.5H4.29l9.48-9.48zm34.76 3.17c-.69 0-1.25.56-1.25 1.25v5.05l-9.48-9.48-1.77 1.77 9.48 9.48h-5.05a1.25 1.25 0 0 0 0 2.5h9.32v-9.32c0-.69-.56-1.25-1.25-1.25M24.02 18.91c3.15 0 5.71-2.56 5.71-5.71s-2.56-5.71-5.71-5.71-5.71 2.56-5.71 5.71 2.56 5.71 5.71 5.71M34.76 32.2v-4.1c0-3.22-2.62-5.84-5.84-5.84H19.1c-3.22 0-5.84 2.62-5.84 5.84v4.1z"/>
</svg>
