<svg viewBox="0 0 40 40" xmlns="http://www.w3.org/2000/svg">
  <path d="M40 0v7.79c0 .62-.5 1.13-1.13 1.13s-1.13-.5-1.13-1.13V3.85l-7.67 7.67-1.59-1.59 7.67-7.67h-3.94A1.129 1.129 0 1 1 32.22 0h7.79ZM1.13 8.91c.62 0 1.13-.5 1.13-1.13V3.84l7.67 7.67 1.59-1.59-7.68-7.67h3.94c.62 0 1.13-.5 1.13-1.13S8.41 0 7.79 0H0v7.79c0 .62.5 1.13 1.13 1.13Zm8.79 19.58-7.67 7.67v-3.94c0-.62-.5-1.13-1.13-1.13S0 31.59 0 32.21V40h7.79c.62 0 1.13-.5 1.13-1.13s-.5-1.13-1.13-1.13H3.85l7.67-7.67-1.59-1.59Zm28.96 2.6c-.62 0-1.13.5-1.13 1.13v3.94l-7.67-7.67-1.59 1.59 7.67 7.67h-3.95c-.62 0-1.13.5-1.13 1.13s.5 1.13 1.13 1.13H40v-7.79c0-.62-.5-1.13-1.13-1.13Zm-23.69-20c0-2.65 2.16-4.81 4.81-4.81s4.81 2.16 4.81 4.81S22.65 15.9 20 15.9s-4.81-2.16-4.81-4.81m2.25 0c0 1.41 1.15 2.56 2.56 2.56s2.56-1.15 2.56-2.56S21.41 8.53 20 8.53s-2.56 1.15-2.56 2.56m11.53 15.68v-3.38c0-2.71-2.2-4.91-4.91-4.91h-8.11c-2.71 0-4.91 2.2-4.91 4.91v3.38h2.25v-3.38c0-1.47 1.19-2.66 2.66-2.66h8.11c1.47 0 2.66 1.19 2.66 2.66v3.38z"/>
</svg>
