<svg viewBox="0 0 48 48" xmlns="http://www.w3.org/2000/svg">
  <path d="m34.25 11.98 9.48-9.48h-5.05a1.25 1.25 0 0 1 0-2.5H48v9.32a1.25 1.25 0 0 1-2.5 0V4.27l-9.48 9.48zm-33-1.41c.69 0 1.25-.56 1.25-1.25V4.27l9.48 9.48 1.77-1.77L4.26 2.5h5.05c.69 0 1.25-.56 1.25-1.25S10.01 0 9.32 0H0v9.32c0 .69.56 1.25 1.25 1.25m10.73 23.68L2.5 43.73v-5.05a1.25 1.25 0 0 0-2.5 0V48h9.32a1.25 1.25 0 0 0 0-2.5H4.27l9.48-9.48zm34.77 3.18c-.69 0-1.25.56-1.25 1.25v5.05l-9.48-9.48-1.77 1.77 9.48 9.48h-5.05a1.25 1.25 0 0 0 0 2.5H48v-9.32c0-.69-.56-1.25-1.25-1.25M18.29 13.2c0-3.15 2.56-5.71 5.71-5.71s5.71 2.56 5.71 5.71-2.56 5.71-5.71 5.71-5.71-2.56-5.71-5.71m2.5 0c0 1.77 1.44 3.21 3.21 3.21s3.21-1.44 3.21-3.21S25.77 9.99 24 9.99s-3.21 1.44-3.21 3.21m13.96 19v-4.09c0-3.22-2.62-5.84-5.84-5.84h-9.82c-3.22 0-5.84 2.62-5.84 5.84v4.09h2.5v-4.09c0-1.84 1.5-3.34 3.34-3.34h9.82c1.84 0 3.34 1.5 3.34 3.34v4.09z"/>
</svg>
