<svg viewBox="0 0 16 16" xmlns="http://www.w3.org/2000/svg">
  <path d="M16.01 0v3.33c0 .41-.34.75-.75.75s-.75-.34-.75-.75v-.77l-2.43 2.43-1.06-1.06 2.43-2.43h-.77c-.41 0-.75-.34-.75-.75s.35-.75.76-.75zM.78 4.08c.41 0 .75-.34.75-.75v-.77L3.96 5l1.06-1.06L2.59 1.5h.77c.41 0 .75-.34.75-.75S3.77 0 3.36 0H.03v3.33c0 .41.34.75.75.75M3.94 11l-2.43 2.44v-.77c0-.41-.34-.75-.75-.75s-.75.33-.75.74v3.33h3.32c.41 0 .75-.34.75-.75s-.34-.75-.75-.75h-.77l2.43-2.44-1.06-1.06Zm11.31.91c-.41 0-.75.34-.75.75v.77l-2.43-2.44-1.06 1.06 2.43 2.44h-.77c-.41 0-.75.34-.75.75s.34.75.75.75h3.32v-3.33c0-.41-.34-.75-.75-.75ZM8.01 6.72c1.2 0 2.17-.98 2.17-2.18s-.97-2.18-2.17-2.18-2.17.98-2.17 2.18.97 2.18 2.17 2.18m3.03 4.15h.75V9.56c0-1.22-.99-2.22-2.21-2.22H6.45c-1.22 0-2.21 1-2.21 2.22v1.31h6.81Z"/>
</svg>
