<svg viewBox="0 0 48 48" xmlns="http://www.w3.org/2000/svg">
  <path d="M48.01 3.75v26.4c0 2.07-1.68 3.75-3.75 3.75h-6.73v-2.5h6.73c.69 0 1.25-.56 1.25-1.25V3.75c0-.69-.56-1.25-1.25-1.25H17.88c-.69 0-1.25.56-1.25 1.25v6.66h-2.5V3.75c0-2.07 1.68-3.75 3.75-3.75h26.38c2.07 0 3.75 1.68 3.75 3.75M34.74 17v27.25c0 2.07-1.68 3.75-3.75 3.75H3.76A3.76 3.76 0 0 1 0 44.25V17a3.76 3.76 0 0 1 3.76-3.75h27.23c2.07 0 3.75 1.68 3.75 3.75m-3.75-1.25h-10.4v10.46c0 .69.56 1.25 1.25 1.25h10.4V17c0-.69-.56-1.25-1.25-1.25m1.25 28.5V29.97h-10.4c-2.07 0-3.75-1.68-3.75-3.75V15.76H3.76c-.69 0-1.25.56-1.25 1.25v27.25c0 .69.56 1.25 1.25 1.25h27.23c.69 0 1.25-.56 1.25-1.25Z"/>
</svg>
