<svg viewBox="0 0 32 32" xmlns="http://www.w3.org/2000/svg">
  <path d="M31.99 3v16.7c0 1.65-1.35 3-3 3H24.9v-2h4.09c.55 0 1-.45 1-1V3c0-.55-.45-1-1-1h-16.7c-.55 0-1 .45-1 1v4.04h-2V3c0-1.65 1.35-3 3-3h16.7c1.65 0 3 1.35 3 3m-8.74 8.74v17.27c0 1.65-1.35 3-3 3H2.99A3.01 3.01 0 0 1 0 29V11.74c0-1.65 1.35-3 3-3h17.26c1.65 0 3 1.35 3 3Zm-3-1h-6.33v6.37c0 .55.45 1 1 1h6.33v-6.37c0-.55-.45-1-1-1m1 18.26v-8.89h-6.33c-1.65 0-3-1.35-3-3v-6.37H2.99c-.55 0-1 .45-1 1v17.27c0 .55.45 1 1 1h17.26c.55 0 1-.45 1-1Z"/>
</svg>
