<svg viewBox="0 0 40 40" xmlns="http://www.w3.org/2000/svg">
  <path d="M40 3.38v21.55c0 1.86-1.51 3.38-3.38 3.38h-5.4v-2.25h5.4c.62 0 1.13-.51 1.13-1.13V3.38c0-.62-.5-1.13-1.13-1.13H15.09c-.62 0-1.13.51-1.13 1.13v5.35h-2.25V3.38C11.72 1.52 13.23 0 15.09 0h21.53C38.48 0 40 1.51 40 3.38M28.99 14.37v22.25c0 1.86-1.51 3.38-3.38 3.38H3.37C1.51 40 0 38.49 0 36.62V14.37C0 12.51 1.51 11 3.37 11h22.24c1.86 0 3.38 1.51 3.38 3.38Zm-3.38-1.12h-8.36v8.41c0 .62.5 1.13 1.13 1.13h8.36v-8.41c0-.62-.5-1.13-1.13-1.13m1.13 23.37V25.03h-8.36c-1.86 0-3.38-1.51-3.38-3.38v-8.41H3.37c-.62 0-1.13.51-1.13 1.13v22.25c0 .62.5 1.13 1.13 1.13h22.24c.62 0 1.13-.51 1.13-1.13"/>
</svg>
