<svg viewBox="0 0 24 24" xmlns="http://www.w3.org/2000/svg">
  <path d="M23.99 3.26v11.88c0 1.79-1.46 3.25-3.25 3.25h-1.62v-3h1.62c.14 0 .25-.11.25-.25V3.26c0-.14-.11-.25-.25-.25H8.87c-.14 0-.25.11-.25.25v1.6h-3v-1.6C5.63 1.46 7.08 0 8.88 0h11.87C22.54 0 24 1.46 24 3.25Zm-9.12 3.22h-4.29v6.07c0 .48.39.88.88.88h6.04V9.11c0-1.45-1.18-2.63-2.63-2.63m-6.04 6.07V6.48H2.62C1.17 6.48 0 7.66 0 9.11v12.26C0 22.82 1.18 24 2.63 24h12.25c1.45 0 2.63-1.18 2.63-2.63v-6.19h-6.04c-1.45 0-2.63-1.18-2.63-2.63Z"/>
</svg>
