<svg viewBox="0 0 64 64" xmlns="http://www.w3.org/2000/svg">
  <path d="M64 5.23v36.75c0 2.9-2.36 5.25-5.25 5.25h-8.67v-5h8.67c.14 0 .25-.11.25-.25V5.23c0-.14-.11-.25-.25-.25H21.99c-.14 0-.25.11-.25.25v8.58h-5V5.23c0-2.89 2.36-5.25 5.25-5.25h36.75c2.9 0 5.25 2.36 5.25 5.25Zm-21.98 12.6H27.1v17.75c0 .76.62 1.38 1.38 1.38h17.67v-15c0-2.28-1.85-4.13-4.13-4.13M24.35 35.58V17.83H4.13A4.13 4.13 0 0 0 0 21.95v37.9c0 2.28 1.85 4.13 4.13 4.13h37.9c2.28 0 4.13-1.85 4.13-4.13V39.7H28.49c-2.28 0-4.13-1.85-4.13-4.13Z"/>
</svg>
