<svg viewBox="0 0 16 16" xmlns="http://www.w3.org/2000/svg">
  <path d="M16 2.25v7.01c0 1.24-1.01 2.25-2.25 2.25h-.74v-1.5h.74c.41 0 .75-.34.75-.75V2.25c0-.41-.34-.75-.75-.75h-7c-.41 0-.75.34-.75.75v.72H4.5v-.72C4.5 1.01 5.51 0 6.75 0h7C14.99 0 16 1.01 16 2.25m-4.24 4.23v7.26c0 1.24-1.01 2.25-2.25 2.25H2.25C1.01 16 0 14.99 0 13.74V6.48c0-1.24 1.01-2.25 2.25-2.25H9.5c1.24 0 2.25 1.01 2.25 2.25Zm-2.25-.75H7.26V8c0 .41.34.75.75.75h2.25V6.48c0-.41-.34-.75-.75-.75m.75 8.01v-3.49H8.01c-1.24 0-2.25-1.01-2.25-2.25V5.73h-3.5c-.41 0-.75.34-.75.75v7.26c0 .41.34.75.75.75h7.25c.41 0 .75-.34.75-.75"/>
</svg>
