<svg viewBox="0 0 64 64" xmlns="http://www.w3.org/2000/svg">
  <path d="M64.01 4.1v36.75c0 2.28-1.85 4.13-4.13 4.13h-9.67v-2.75h9.67c.76 0 1.38-.62 1.38-1.38V4.1c0-.76-.62-1.38-1.38-1.38H23.15c-.76 0-1.38.62-1.38 1.38v9.58h-2.75V4.1a4.13 4.13 0 0 1 4.13-4.12h36.74c2.28 0 4.13 1.85 4.13 4.13ZM46.14 21.96v37.89c0 2.28-1.85 4.13-4.13 4.13H4.14A4.14 4.14 0 0 1 0 59.85V21.96c0-2.28 1.85-4.13 4.13-4.13h37.88c2.28 0 4.13 1.85 4.13 4.13m-4.12-1.38H27.1v15c0 .76.62 1.38 1.38 1.38H43.4v-15c0-.76-.62-1.38-1.38-1.38m1.37 39.27V39.71H28.47c-2.28 0-4.13-1.85-4.13-4.13v-15H4.14c-.76 0-1.38.62-1.38 1.38v37.89c0 .76.62 1.38 1.38 1.38h37.88c.76 0 1.38-.62 1.38-1.38Z"/>
</svg>
