<svg viewBox="0 0 24 24" xmlns="http://www.w3.org/2000/svg">
  <path d="M0 12.53h4.45v9.35H0zm23.97 5.81a2.5 2.5 0 0 0-.4-1.04 2.3 2.3 0 0 0-.43-.45c-.05-.03-.09-.07-.14-.1-.17-.1-.35-.19-.54-.24h-.04c-.19-.05-.39-.07-.6-.07h-.07c-.04 0-.09.01-.13.01-.16 0-.33.02-.51.05-.07.01-.14.02-.21.04-.24.05-.49.11-.74.2l-5.23 1.66s-.09.02-.13.04-.09.04-.13.04c-.09 0-.18-.02-.27-.07l-2.29-.95a.24.24 0 0 1-.1-.14v-.02c-.01-.06 0-.13 0-.2v-.03c.02-.07.04-.13.08-.18 0 0 .01-.02.02-.02.04-.05.08-.08.13-.08.03 0 .05 0 .08.01l1.29.47c.17.06.34.09.51.12.05 0 .09 0 .13.01.05 0 .09.01.14.01.08 0 .16-.02.23-.02.06 0 .11 0 .17-.02q.225-.045.45-.12c.02 0 .04-.01.06-.02.17-.06.33-.15.48-.24.05-.03.09-.06.13-.09.11-.07.21-.15.31-.23.05-.04.1-.09.15-.14.09-.08.17-.17.25-.26.04-.05.09-.1.13-.16.08-.1.14-.21.21-.32l.09-.15c.09-.17.16-.34.22-.51.04-.12.07-.24.09-.35s.02-.22.02-.33c0-.21-.05-.4-.14-.58-.17-.36-.49-.66-.93-.92l-3.29-1.34c-.19-.11-.38-.18-.58-.24-.06-.02-.12-.03-.18-.04a3.4 3.4 0 0 0-.46-.06c-.04 0-.08-.02-.11-.02h-.07c-.21 0-.42.03-.63.08l-4.5 2.76a2.44 2.44 0 0 0-.9 1.9v4.71c0 .55.27 1.04.71 1.33.14.1.31.17.48.22l6.76 1.71a2.7 2.7 0 0 0 2.04-.27l7.14-2.76c.13-.08.25-.16.37-.26s.22-.2.31-.31c.37-.44.59-1 .61-1.57 0-.14 0-.29-.02-.44Zm-7.45-6.37.42.24.42-.23c.68-.37 6.63-3.71 6.63-7.6C24 1.98 22.05.02 19.65.02c-.94 0-1.86.31-2.61.88-.75-.56-1.66-.88-2.61-.88-2.4 0-4.35 1.96-4.35 4.36 0 3.88 5.78 7.22 6.44 7.59"/>
</svg>
