<svg viewBox="0 0 32 32" xmlns="http://www.w3.org/2000/svg">
  <path d="M0 16.85h5.77v12.13H0v-2h3.76v-8.13H0zm30.29 11-9.51 3.68c-.55.32-1.16.48-1.78.48q-.465 0-.93-.12l-9.02-2.28a2.14 2.14 0 0 1-1.59-2.07v-6.28c0-.98.44-1.91 1.2-2.54l6-3.68q.465-.12.93-.12c.62 0 1.22.16 1.77.48l4.39 1.78c1.17.69 1.71 1.61 1.29 2.9-.55 1.69-2.16 3.06-3.84 3.06-.35 0-.7-.06-1.05-.19l-1.71-.63s-.07-.02-.1-.02c-.31 0-.5.76-.19.91l3.05 1.26c.11.06.23.1.36.1s.25-.03.36-.1l6.98-2.21c.75-.26 1.46-.4 2.12-.4 1.34 0 2.4.59 2.84 1.98.49 1.53-.15 3.2-1.54 4.01Zm-.36-3.4c-.12-.36-.24-.6-.94-.6-.41 0-.91.1-1.46.29h-.03l-.03.02-6.84 2.17c-.35.15-.72.23-1.1.23-.42 0-.83-.1-1.2-.28l-2.97-1.23-.05-.02-.05-.03c-.99-.48-1.48-1.59-1.21-2.76.27-1.16 1.18-1.95 2.28-1.95.28 0 .57.06.84.17l1.66.61q.18.06.36.06c.76 0 1.65-.77 1.94-1.68.04-.12.05-.2.04-.22 0 0-.08-.11-.33-.27l-4.23-1.72-.13-.05-.12-.07c-.24-.14-.5-.21-.77-.21-.06 0-.12 0-.18.01l-5.56 3.41c-.25.24-.39.57-.39.92v6.28c0 .06.04.12.11.14l8.99 2.28c.17.04.3.06.44.06.27 0 .54-.07.78-.21l.13-.08.14-.06 9.34-3.61c.5-.35.73-1 .54-1.6M13.57 5.7c0-3.14 2.55-5.7 5.68-5.7 1.28 0 2.52.44 3.52 1.24C23.77.45 25.01 0 26.29 0c3.14 0 5.69 2.55 5.69 5.69 0 5.14-7.95 9.6-8.85 10.09l-.48.26-.48-.27c-.35-.2-8.59-4.87-8.59-10.08Zm2 0c0 3.13 4.73 6.64 7.09 8.06 2.42-1.42 7.32-4.93 7.32-8.06 0-2.03-1.65-3.69-3.69-3.69-1.06 0-2.04.45-2.76 1.27l-.42.48s-.03.06-.05.08c-.09.1-.2.25-.23.31-.11.45-.51.74-.95.74-.08 0-.16 0-.25-.03-.54-.13-.86-.7-.73-1.23.09-.35.31-.69.5-.92-.62-.46-1.36-.71-2.14-.71-2.03 0-3.69 1.65-3.69 3.69Z"/>
</svg>
