<svg viewBox="0 0 64 64" xmlns="http://www.w3.org/2000/svg">
  <path d="M0 34.31h10.9v23.02H0v-2.75h8.15V37.07H0v-2.75Zm63.66 13.37c.99 3.07-.3 6.4-3.09 8.02l-19.03 7.36c-1.1.64-2.32.96-3.56.96-.62 0-1.25-.08-1.86-.25L18.08 59.2c-1.87-.5-3.18-2.2-3.18-4.14V43.93c0-1.97.88-3.83 2.4-5.07l11.54-7.01c.69-.24 1.28-.35 1.85-.35 1.11 0 2.14.42 3.55 1.07l8.77 3.57c2.35 1.38 3.88 2.86 3.03 5.45-1.01 3.11-3.81 4.83-6.86 4.83-.96 0-1.96-.17-2.92-.53l-3.43-1.25a.7.7 0 0 0-.36-.11c-1.13 0-1.6 3.54.02 3.98l6.1 2.53c.22.13.47.19.71.19s.49-.06.71-.19l13.95-5.22c1.56-.45 3.31-.92 4.94-.92 1.93 0 3.69.66 4.75 2.78Zm-2.56 1.05c-.39-.68-.92-1.07-2.2-1.07s-2.74.4-4.07.78l-13.69 5.12c-.57.28-1.2.42-1.83.42s-1.31-.16-1.89-.45l-5.86-2.43c-1.99-.67-3.14-2.84-2.8-5.39.31-2.36 1.81-3.94 3.72-3.94.51 0 1.01.12 1.48.35l3.25 1.19c.65.24 1.32.36 1.98.36 1.59 0 3.54-.77 4.25-2.93.18-.55.31-.95-1.64-2.13l-8.58-3.49-.06-.02-.06-.03c-1.17-.54-1.86-.82-2.39-.82-.14 0-.35.01-.69.12L18.93 41.1a3.8 3.8 0 0 0-1.27 2.84v11.13c0 .69.47 1.3 1.14 1.48l18 4.56c.42.11.8.16 1.19.16.76 0 1.52-.2 2.19-.59l.18-.11.2-.08 18.8-7.27c1.49-.95 2.2-2.78 1.75-4.49ZM26.57 11.3C26.57 5.08 31.63.02 37.85.02c2.74 0 5.37 1.02 7.43 2.85 2.06-1.83 4.7-2.85 7.43-2.85 6.22 0 11.28 5.06 11.28 11.29 0 10.61-17.57 20.27-18.32 20.68l-.67.36-.66-.37c-.73-.41-17.77-10.07-17.77-20.67Zm2.75 0c0 7.94 12.64 16.03 15.7 17.88 3.13-1.83 16.21-9.94 16.21-17.88 0-4.71-3.83-8.53-8.53-8.53-2.43 0-4.76 1.07-6.39 2.95l-.87 1c-.04.06-.06.12-.11.17-.27.29-.58.72-.63.89a1.365 1.365 0 0 1-1.66 1.01 1.38 1.38 0 0 1-1.01-1.67c.22-.92 1.05-1.85 1.3-2.12.03-.04.08-.05.11-.08a8.42 8.42 0 0 0-5.59-2.15c-4.7 0-8.53 3.83-8.53 8.53"/>
</svg>
