<svg viewBox="0 0 32 32" xmlns="http://www.w3.org/2000/svg">
  <path d="M0 16.87h5.77V29H0zm31.83 6.99c-.07-.23-.17-.43-.28-.62-.03-.05-.05-.09-.08-.14a3 3 0 0 0-.36-.46s0-.01-.01-.02c-.14-.14-.3-.25-.47-.34-.04-.02-.09-.05-.13-.07-.16-.08-.33-.15-.51-.2-.01 0-.02 0-.04-.01-.19-.05-.4-.08-.61-.1h-.16c-.06 0-.12-.01-.18-.01s-.12.02-.18.02c-.22 0-.44.03-.67.07-.09.02-.19.03-.28.05-.32.07-.65.15-.99.27l-6.98 2.21c-.06.03-.12.03-.18.05s-.12.05-.18.05c-.12 0-.25-.03-.36-.1l-3.05-1.26a.2.2 0 0 1-.09-.09c0-.01-.01-.03-.02-.04l-.03-.09v-.23c0-.03.01-.06.02-.09 0-.02.01-.05.02-.07.01-.03.02-.06.04-.08l.03-.06c.02-.02.03-.04.05-.06l.04-.04c.02-.02.04-.02.06-.03.02 0 .03-.01.05-.01.04 0 .07 0 .11.02l1.71.63c.23.08.45.13.68.15.06 0 .12.01.18.02.06 0 .13.02.19.02.1 0 .21-.02.31-.03.08 0 .15 0 .23-.02.2-.03.4-.09.59-.16.03 0 .06-.01.08-.02.22-.09.43-.19.64-.32l.18-.12c.14-.1.28-.2.41-.31.07-.06.13-.12.19-.18.12-.11.23-.23.33-.35.06-.07.12-.14.17-.21.1-.14.19-.28.28-.43.04-.07.08-.13.12-.2q.18-.33.3-.69c.11-.32.15-.62.14-.9 0-.14-.02-.27-.05-.4a1.8 1.8 0 0 0-.21-.5c-.08-.13-.17-.26-.28-.38-.23-.26-.52-.5-.89-.71l-4.39-1.78c-.18-.11-.37-.19-.57-.26-.05-.02-.1-.03-.15-.05-.2-.06-.39-.11-.6-.14-.15-.02-.3-.03-.46-.03-.05 0-.1 0-.15.01-.05 0-.1 0-.15.01-.21.02-.41.05-.62.1l-6 3.68c-.19.16-.36.33-.51.52a3.3 3.3 0 0 0-.69 2.02v6.28c0 .61.25 1.17.67 1.56.25.24.56.42.91.51l7.2 1.82 1.82.46a3.6 3.6 0 0 0 1.85 0c.3-.08.59-.2.86-.36l9.51-3.68a3.416 3.416 0 0 0 1.54-4.01Zm-9.67-8.06.48.27.48-.26c.91-.49 8.85-4.95 8.85-10.09.01-3.14-2.55-5.69-5.68-5.69-1.28 0-2.52.44-3.52 1.24-1-.8-2.24-1.24-3.52-1.24-3.14 0-5.69 2.55-5.69 5.69 0 5.22 8.24 9.89 8.59 10.08Z"/>
</svg>
