<svg viewBox="0 0 24 24" xmlns="http://www.w3.org/2000/svg">
  <path d="M0 12.51h4.45v9.35H0v-1.75h2.7v-5.85H0zm23.87 5.37a2.55 2.55 0 0 1-1.16 3l-7.14 2.76c-.41.24-.87.36-1.34.36-.23 0-.47-.03-.7-.09L6.77 22.2c-.7-.19-1.19-.82-1.19-1.55v-4.71c0-.74.33-1.44.9-1.9l4.5-2.76c.23-.06.46-.09.7-.09.46 0 .92.12 1.33.36l3.29 1.34c.88.52 1.28 1.21.96 2.18-.41 1.27-1.62 2.29-2.88 2.29-.26 0-.53-.04-.79-.14l-1.29-.47s-.05-.02-.07-.02c-.23 0-.37.57-.14.68l2.29.95c.08.05.18.07.27.07s.18-.02.27-.07l5.23-1.66c.56-.19 1.1-.3 1.59-.3 1 0 1.8.44 2.13 1.49Zm-1.66.53c-.06-.19-.09-.27-.47-.27-.2 0-.53.04-1.01.2l-5.16 1.64c-.29.13-.6.19-.91.19-.35 0-.69-.08-1.01-.23l-2.22-.92-.05-.02-.05-.02c-.85-.41-1.27-1.36-1.04-2.35s1.01-1.65 1.95-1.65c.24 0 .49.05.72.14l1.24.45c.06.02.12.03.19.03.41 0 1.01-.44 1.22-1.08-.02-.02-.06-.04-.1-.07l-3.15-1.28-.11-.05-.11-.06a.9.9 0 0 0-.45-.12s-.04 0-.06 0l-4.09 2.51c-.13.13-.2.31-.2.49v4.6l6.63 1.68c.11.03.19.04.27.04.16 0 .32-.04.46-.13l.12-.07.13-.05 6.97-2.7a.84.84 0 0 0 .29-.9M10.08 4.35c0-2.4 1.95-4.35 4.35-4.35.94 0 1.86.31 2.61.88C17.79.32 18.7 0 19.65 0 22.05 0 24 1.95 24 4.35c0 3.88-5.95 7.23-6.63 7.6l-.42.23-.42-.24c-.66-.37-6.44-3.71-6.44-7.59Zm1.75 0c0 2.23 3.38 4.75 5.12 5.82 1.8-1.06 5.29-3.59 5.29-5.82 0-1.43-1.17-2.6-2.6-2.6-.75 0-1.44.32-1.95.9l-.31.36s-.02.04-.04.06c-.05.06-.13.16-.15.19-.1.4-.44.64-.82.64-.07 0-.15 0-.22-.03-.47-.11-.75-.62-.63-1.09.06-.23.18-.44.3-.61-.41-.27-.89-.43-1.39-.43-1.43 0-2.6 1.17-2.6 2.6Z"/>
</svg>
