<svg viewBox="0 0 16 16" xmlns="http://www.w3.org/2000/svg">
  <path d="M0 7.84h2.95v6.88H0zm15.91 4.02c-.05-.17-.14-.31-.23-.45-.03-.04-.05-.07-.08-.1-.09-.1-.18-.2-.29-.28a.4.4 0 0 0-.07-.06q-.195-.135-.42-.21l-.11-.03c-.12-.03-.25-.05-.37-.06-.03 0-.05-.01-.08-.01h-.05c-.09 0-.18.02-.28.04-.05 0-.09.01-.14.02-.14.04-.27.09-.4.16L9.86 12c-.06.03-.12.05-.18.05s-.12-.02-.18-.05l-1.54-.64s-.06-.05-.07-.09v-.11c0-.01.01-.02.02-.03.01-.02.03-.03.05-.05.01 0 .02-.01.04-.02.03 0 .06-.01.1 0l.87.32c.16.06.32.08.48.08h.05c.05 0 .1-.01.16-.02.04 0 .08 0 .12-.01.1-.02.2-.04.3-.08.01 0 .03 0 .04-.01.11-.04.22-.1.32-.16l.09-.06c.07-.05.14-.1.21-.16.03-.03.07-.06.1-.09.06-.06.11-.12.17-.18.03-.04.06-.07.09-.11.05-.07.1-.14.14-.22.02-.03.04-.07.06-.1.06-.11.11-.23.15-.35.21-.65-.06-1.12-.65-1.46L8.59 7.38c-.13-.07-.26-.12-.39-.16l-.12-.03c-.1-.02-.2-.04-.31-.04-.03 0-.05-.01-.08-.01h-.05q-.21 0-.42.06L4.19 9.22c-.38.31-.61.78-.61 1.28v3.17c0 .49.33.92.8 1.04l4.56 1.15a1.8 1.8 0 0 0 1.37-.18l4.81-1.86c.71-.41 1.03-1.25.78-2.02Zm-4.8-4.21.34.19.34-.19c.43-.23 4.18-2.34 4.18-4.83.01-1.56-1.27-2.84-2.84-2.84-.58 0-1.14.18-1.61.5a2.8 2.8 0 0 0-1.61-.5c-1.57 0-2.85 1.28-2.85 2.85 0 2.48 3.65 4.59 4.06 4.82Z"/>
</svg>
