<svg viewBox="0 0 16 16" xmlns="http://www.w3.org/2000/svg">
  <path d="M0 7.82h2.95v6.88H0v-1.5h1.45V9.31H0v-1.5Zm15.13 6.04-4.81 1.86a1.8 1.8 0 0 1-1.37.18l-4.56-1.15c-.47-.13-.8-.55-.8-1.04v-3.17c0-.5.22-.97.61-1.28l3.03-2.02a1.8 1.8 0 0 1 1.37.18l2.21 1.07c.59.35.86.81.65 1.46-.28.85-1.09 1.54-1.94 1.54-.18 0-.35-.03-.53-.09l-.87-.32s-.05-.02-.07-.02c-.14 0-.22.23-.07.3l1.54.64c.06.03.12.05.18.05s.12-.02.18-.05l3.53-1.12c.27-.16.57-.23.86-.23.72 0 1.41.45 1.65 1.2.25.77-.08 1.61-.78 2.02Zm-.64-1.56a.228.228 0 0 0-.33-.13l-.14.08-.16.05-3.43 1.09c-.23.1-.48.15-.73.15-.28 0-.56-.06-.81-.19l-1.49-.62-.04-.02-.04-.02c-.69-.34-1.05-1.1-.88-1.85.18-.76.84-1.29 1.61-1.29.21 0 .43.04.63.12l.83.3c.1 0 .28-.1.41-.28l-1.97-.95-.05-.02-.05-.03s-.05-.03-.08-.03l-2.64 1.76s-.03.06-.03.1v2.85l4.23 1.07c.05.01.08.02.1.02.05 0 .1-.01.15-.04l.1-.06.11-.04 4.65-1.79c.06-.06.08-.15.05-.23M6.52 2.97c0-1.66 1.36-3.01 3.03-3.01.61 0 1.21.19 1.71.53A3.026 3.026 0 0 1 16 2.98c0 2.64-3.98 4.87-4.43 5.11l-.36.2-.36-.2c-.44-.25-4.3-2.48-4.3-5.11Zm1.5 0c0 1.33 2.07 2.9 3.18 3.59 1.4-.84 3.28-2.38 3.28-3.59 0-.84-.68-1.52-1.52-1.52-.44 0-.84.19-1.14.53l-.21.24s-.01.03-.02.04c-.02.03-.06.07-.07.09-.08.34-.37.53-.69.53-.06 0-.13 0-.2-.02-.4-.1-.64-.54-.54-.94.03-.11.08-.2.14-.3-.21-.11-.43-.17-.67-.17-.84 0-1.52.68-1.52 1.52Z"/>
</svg>
