<svg viewBox="0 0 32 32" xmlns="http://www.w3.org/2000/svg">
  <path d="M4.39 8.77c2.41 0 4.38-1.96 4.38-4.38S6.81.01 4.39.01.01 1.98.01 4.39s1.96 4.38 4.38 4.38m0-6.76c1.31 0 2.38 1.07 2.38 2.38S5.7 6.77 4.39 6.77 2.01 5.7 2.01 4.39s1.07-2.38 2.38-2.38m1.72 8.65H0V32h8.06V21.06h2.99v-5.45a4.95 4.95 0 0 0-4.94-4.94Zm2.94 8.39H6.06v10.94H2V12.66h4.11c1.62 0 2.94 1.32 2.94 2.94zM30 0v17.01h-4.49l1.53-1.25V6.3h-8.86l-3.95 4.05.05.05h-.01v8.62h8.75v.02l.03-.02h6.94v12.99h2V0h-2ZM16.28 12.39h4.66v4.62h-4.66zm8.77-2.71v5.13l-2.1 1.72v-4.72l2.1-2.12ZM19.03 8.3h4.57l-2.08 2.1h-4.54z"/>
</svg>
