<svg viewBox="0 0 16 16" xmlns="http://www.w3.org/2000/svg">
  <path d="M2.38 4.79c1.31 0 2.38-1.07 2.38-2.38S3.69.02 2.38.02 0 1.09 0 2.4s1.07 2.38 2.38 2.38Zm0-3.27c.49 0 .88.4.88.88s-.4.88-.88.88-.88-.4-.88-.88.4-.88.88-.88m.83 3.65H-.01v10.84h4.43v-5.29h1.45v-2.9c0-1.46-1.19-2.65-2.66-2.65m1.16 4.05H2.92v5.29H1.49V6.66h1.72c.64 0 1.16.52 1.16 1.16zM14.49 0v8.25H13.2l.32-.27-.05-5.08h-4.8L6.65 4.95h-.01l-.01.03h.01v4.78h7.86V16H16V0h-1.5ZM8.13 6.45h1.83v1.81H8.13zm3.88.85-.55.47V6l.53-.53zM9.29 4.4h1.65l-.54.55H8.75z"/>
</svg>
