<svg viewBox="0 0 24 24" xmlns="http://www.w3.org/2000/svg">
  <path d="M5.23 8.99c-.2-.53-.17-1.06.08-1.42.21-.31.57-.47 1.04-.47 1.09 0 2.83 1.92 2.94 3.2-.29.1-1.11.12-2.21-.23-1.12-.35-1.77-.85-1.85-1.08m5.82-2.16c.85-.87 1.92-1.49 2.95-1.49s1.94.44 2.48 1.22c.58.84.69 1.94.29 3.03-.17.46-.56.86-1.05 1.21h8.34V5.99c0-1.66-1.34-3-3-3h-9.99v3.83Zm4.07 2.16c.2-.53.17-1.06-.08-1.42-.21-.31-.57-.47-1.04-.47-1.09 0-2.83 1.92-2.94 3.2.29.09 1.11.12 2.21-.23 1.12-.35 1.77-.85 1.85-1.08m-1.23 3.57c.72.85 1.18 1.94 1.18 3.15 0 .48-.39.88-.88.88s-.88-.39-.88-.88c0-1.43-.96-2.63-2.27-3.01V21h9.99c1.66 0 3-1.34 3-3v-5.44H13.88Zm-9.25-1.75c-.49-.35-.88-.75-1.05-1.21-.4-1.08-.3-2.19.29-3.03.54-.78 1.44-1.22 2.48-1.22s2.09.62 2.95 1.49V3.01H3.04C1.39 3 .04 4.34.04 6v4.81zM9.3 12.7a3.14 3.14 0 0 0-2.27 3.01c0 .48-.39.88-.88.88s-.88-.39-.88-.88c0-1.2.45-2.29 1.18-3.15H.04V18c0 1.66 1.34 3 3 3H9.3z"/>
</svg>
