<svg viewBox="0 0 24 24" xmlns="http://www.w3.org/2000/svg">
  <path d="M21.04 3h-18c-1.65 0-3 1.34-3 3v12c0 1.66 1.34 3 3 3h18c1.66 0 3-1.34 3-3V6c0-1.66-1.34-3-3-3m1.25 3v4.81H15.7c.49-.35.88-.75 1.05-1.21.4-1.09.3-2.19-.29-3.03-.54-.78-1.44-1.22-2.48-1.22s-2.09.62-2.95 1.49V4.76h9.99c.69 0 1.25.56 1.25 1.25ZM5.31 7.57c.21-.31.57-.47 1.04-.47 1.09 0 2.83 1.92 2.94 3.2-.29.1-1.11.12-2.21-.23-1.12-.35-1.77-.85-1.85-1.08-.2-.53-.17-1.06.08-1.42m5.74 2.73c.11-1.28 1.85-3.2 2.94-3.2.47 0 .83.16 1.04.47.25.36.28.89.08 1.42-.08.23-.73.73-1.85 1.08-1.11.35-1.92.32-2.21.23M3.04 4.75H9.3v2.08c-.85-.87-1.92-1.49-2.95-1.49s-1.94.45-2.48 1.22c-.59.84-.69 1.94-.29 3.03.17.46.56.86 1.05 1.21H1.79V5.99c0-.69.56-1.25 1.25-1.25ZM1.79 18v-5.44h4.66c-.72.85-1.18 1.94-1.18 3.15 0 .48.39.88.88.88s.88-.39.88-.88c0-1.43.96-2.63 2.27-3.01v6.55H3.04c-.69 0-1.25-.56-1.25-1.25m19.25 1.25h-9.99V12.7c1.31.38 2.27 1.58 2.27 3.01 0 .48.39.88.88.88s.88-.39.88-.88c0-1.2-.45-2.29-1.18-3.15h8.4V18c0 .69-.56 1.25-1.25 1.25Z"/>
</svg>
