<svg viewBox="0 0 48 48" xmlns="http://www.w3.org/2000/svg">
  <path d="M16.8 19.69c-.07.1-.75.48-2.6.27-3.12-.36-6.11-1.94-6.5-3-.46-1.24-.37-2.44.23-3.3.53-.76 1.39-1.16 2.49-1.16 2.57 0 6.39 4.27 6.39 7.19Zm2.5-5.89c1.74-2.14 4.13-3.81 6.39-3.81 1.93 0 3.54.79 4.54 2.23 1.08 1.54 1.27 3.58.52 5.6-.46 1.24-1.75 2.3-3.34 3.09h20.63V9.99c0-2.21-1.79-4-4-4H19.3v7.8Zm9.11 3.15c.46-1.24.37-2.44-.23-3.3-.53-.76-1.39-1.16-2.49-1.16-2.57 0-6.39 4.27-6.39 7.14.07.15.76.53 2.6.32 3.12-.36 6.11-1.94 6.5-3ZM8.69 20.92c-1.6-.8-2.89-1.86-3.35-3.09-.74-2.01-.55-4.05.52-5.6 1-1.44 2.61-2.23 4.54-2.23 2.26 0 4.66 1.67 6.39 3.81v-7.8H4.04C1.83 6 .04 7.79.04 10v10.92zm15.69 2.5c1.83 1.7 2.98 4.11 2.98 6.8a1.25 1.25 0 0 1-2.5 0c0-3.32-2.39-6.09-5.55-6.68V42h24.74c.55 0 1.08-.11 1.56-.31s.91-.5 1.27-.86c.18-.18.34-.38.49-.59.29-.43.5-.91.6-1.43.05-.26.08-.53.08-.81V23.42zm-7.58.12c-3.15.59-5.55 3.36-5.55 6.68a1.25 1.25 0 0 1-2.5 0c0-2.68 1.15-5.1 2.98-6.8H.04V38c0 .28.03.55.08.81a3.94 3.94 0 0 0 1.09 2.02c.36.36.79.65 1.27.86.48.2 1 .31 1.56.31H16.8z"/>
</svg>
