<svg viewBox="0 0 64 64" xmlns="http://www.w3.org/2000/svg">
  <path d="M21.02 26.89c-3.68.65-10.7-1.88-11.55-4.18-.64-1.74-.52-3.44.34-4.67.75-1.07 2.01-1.67 3.56-1.67 3.54 0 8.81 5.87 8.81 9.81 0 .33-.39.57-1.16.7Zm16.63-4.18c.64-1.74.52-3.44-.34-4.67-.75-1.07-2.01-1.67-3.56-1.67-3.54 0-8.81 5.87-8.81 9.81 0 .33.39.57 1.16.7 3.69.65 10.7-1.88 11.55-4.18Zm-12.72-3.48c2.28-3.1 5.65-5.61 8.81-5.61 2.47 0 4.54 1.01 5.82 2.84 1.38 1.98 1.62 4.6.66 7.2-.69 1.88-2.96 3.45-5.62 4.52h29.43V12.5c0-2.49-2.01-4.5-4.5-4.5h-34.6zm-12.42 8.95c-2.66-1.07-4.92-2.64-5.62-4.52-.96-2.59-.72-5.22.66-7.2 1.28-1.83 3.34-2.84 5.82-2.84 3.17 0 6.53 2.51 8.81 5.61V8H4.54a4.5 4.5 0 0 0-4.5 4.5v15.68zm18.72 2.75a12.09 12.09 0 0 1 4.43 9.35c0 .76-.62 1.38-1.38 1.38s-1.38-.62-1.38-1.38c0-4.69-3.47-8.57-7.98-9.24V56h34.61c2.49 0 4.5-2.01 4.5-4.5V30.93zm-9.05.11c-4.51.67-7.98 4.55-7.98 9.24 0 .76-.62 1.38-1.38 1.38s-1.38-.62-1.38-1.38c0-3.76 1.73-7.13 4.43-9.35H.04V51.5c0 2.49 2.01 4.5 4.5 4.5h17.64z"/>
</svg>
