<svg viewBox="0 0 16 16" xmlns="http://www.w3.org/2000/svg">
  <path d="M3.65 6.27c-.11-.3-.1-.6.04-.79.14-.2.38-.24.56-.24.61 0 1.6 1.07 1.77 1.83-.25.02-.74 0-1.33-.21-.67-.22-.99-.5-1.04-.59m6.29 0c.11-.3.1-.6-.04-.79-.14-.2-.38-.24-.56-.24-.61 0-1.6 1.07-1.77 1.83.25.02.74 0 1.33-.21.67-.22.99-.5 1.04-.59M7.55 4.52c.55-.47 1.18-.79 1.8-.79.74 0 1.4.32 1.79.88.42.61.5 1.4.21 2.17-.08.21-.23.4-.4.58h5.1V3.99c0-.41-.13-.8-.34-1.12-.14-.21-.33-.4-.54-.54-.32-.22-.7-.34-1.12-.34h-6.5v2.52Zm-4.9 2.85c-.18-.18-.33-.37-.4-.58-.29-.78-.21-1.57.21-2.17.39-.56 1.04-.88 1.79-.88.62 0 1.25.32 1.8.79V2.01H2.04C.94 2 .04 2.9.04 4v3.37zm6.98 1.5c.38.55.6 1.22.6 1.93 0 .41-.34.75-.75.75s-.75-.34-.75-.75c0-.8-.49-1.49-1.18-1.78V14h6.5c.41 0 .8-.13 1.12-.34.21-.14.4-.33.54-.54.22-.32.34-.7.34-1.12V8.87H9.64Zm-3.58.15c-.69.29-1.18.98-1.18 1.78 0 .41-.34.75-.75.75s-.75-.34-.75-.75c0-.72.22-1.38.6-1.93H.04V12c0 1.1.9 2 2 2h4V9.02Z"/>
</svg>
