<svg viewBox="0 0 40 40" xmlns="http://www.w3.org/2000/svg">
  <path d="M36.54 5h-33C1.61 5 .04 6.57.04 8.5v23c0 1.93 1.57 3.5 3.5 3.5h33c1.93 0 3.5-1.57 3.5-3.5v-23c0-1.93-1.57-3.5-3.5-3.5m1.25 3.5v8.85H24.05c1.22-.65 2.18-1.49 2.54-2.47.63-1.7.47-3.43-.44-4.74-.85-1.22-2.22-1.89-3.85-1.89-1.84 0-3.79 1.31-5.24 3.03V7.25h19.49c.69 0 1.25.56 1.25 1.25Zm-13.31 5.6c-.28.75-2.25 1.89-4.65 2.34-1.74.32-2.65.08-2.78-.08 0-2.36 3.14-5.87 5.24-5.87.89 0 1.58.32 2.01.93.49.7.55 1.67.18 2.67Zm-9.68 2.26c-.17.16-1.07.39-2.78.08-2.4-.45-4.38-1.59-4.65-2.34-.37-1-.31-1.98.18-2.67.42-.61 1.12-.93 2.01-.93 2.06 0 5.08 3.34 5.24 5.68zM3.54 7.25H14.8v4.03c-1.45-1.72-3.4-3.03-5.24-3.03-1.64 0-3 .67-3.85 1.89-.91 1.31-1.07 3.04-.44 4.74.36.97 1.33 1.81 2.54 2.47H2.29V8.5c0-.69.56-1.25 1.25-1.25M2.29 31.5V19.6h8.15a7.8 7.8 0 0 0-2.35 5.58c0 .62.5 1.12 1.12 1.12s1.12-.5 1.12-1.12c0-2.69 1.92-4.95 4.46-5.47v13.04H3.54c-.69 0-1.25-.56-1.25-1.25m34.25 1.25H17.05V19.71c2.54.52 4.46 2.78 4.46 5.47 0 .62.5 1.12 1.12 1.12s1.12-.5 1.12-1.12c0-2.18-.9-4.16-2.35-5.58h16.38v11.9c0 .69-.56 1.25-1.25 1.25Z"/>
</svg>
