<svg viewBox="0 0 48 48" xmlns="http://www.w3.org/2000/svg">
  <path d="M24 0C10.75 0 0 10.75 0 24.01c0 2.07.26 4.08.76 5.99.49 1.92 1.22 3.74 2.14 5.44q.555 1.02 1.2 1.98c.86 1.28 1.84 2.47 2.93 3.55C11.37 45.31 17.37 48 24 48s12.63-2.69 16.97-7.03c1.09-1.09 2.07-2.28 2.93-3.55q.645-.96 1.2-1.98c.92-1.7 1.65-3.52 2.14-5.44s.76-3.93.76-6C48 10.75 37.25 0 24 0m7.61 17.96c-1.29-.59-3-1.09-5.18-1.09-4.26 0-7.2 2.38-7.2 7.1s2.94 7.06 7.2 7.06c2.18 0 3.86-.5 5.18-1.09v5.08c-1.19.3-2.59.54-4.11.64v2.67H25v-2.66c-1.35-.07-2.6-.27-3.74-.59v3.25h-2.5v-4.25c-3.59-1.93-5.63-5.47-5.63-10.12s2.05-8.21 5.63-10.14V8.88h2.5v3.93c1.14-.33 2.39-.53 3.74-.6V8.88h2.5v3.35c1.52.09 2.92.32 4.11.65z"/>
</svg>
