<svg viewBox="0 0 16 16" xmlns="http://www.w3.org/2000/svg">
  <path d="M8 0C3.58 0 0 3.58 0 8s3.58 8 8 8 8-3.58 8-8-3.58-8-8-8m0 14.5c-3.58 0-6.5-2.92-6.5-6.5S4.42 1.5 8 1.5s6.5 2.92 6.5 6.5-2.92 6.5-6.5 6.5M9.5 4.11c.37.04.73.1 1.04.18v1.69c-.43-.2-1-.36-1.73-.36-1.42 0-2.4.79-2.4 2.37s.98 2.35 2.4 2.35c.73 0 1.29-.17 1.73-.36v1.69c-.31.08-.66.13-1.04.18v.93H8v-.92c-.2-.02-.39-.05-.58-.09v1.01h-1.5v-1.64c-.98-.67-1.54-1.76-1.54-3.15s.56-2.49 1.54-3.16V2.96h1.5V4.2c.19-.04.38-.07.58-.09V2.96h1.5z"/>
</svg>
