<svg viewBox="0 0 40 40" xmlns="http://www.w3.org/2000/svg">
  <path d="M20 0C8.95 0 0 8.95 0 20c0 2.76.56 5.39 1.57 7.78.51 1.2 1.13 2.33 1.84 3.4a19.8 19.8 0 0 0 3.86 4.25C10.73 38.28 15.16 40 19.99 40s9.26-1.71 12.72-4.57a19.8 19.8 0 0 0 3.86-4.25 19.2 19.2 0 0 0 1.84-3.4c1.01-2.39 1.57-5.02 1.57-7.78C40 8.95 31.05 0 20 0m6.34 14.97c-1.07-.5-2.5-.91-4.32-.91-3.55 0-5.99 1.98-5.99 5.91s2.45 5.88 5.99 5.88c1.82 0 3.22-.41 4.32-.91v4.23c-.97.24-2.11.44-3.34.53v2.24h-2.25v-2.22c-1.06-.06-2.04-.22-2.95-.47v2.68h-2.25v-3.59c-2.94-1.61-4.61-4.55-4.61-8.39s1.67-6.79 4.61-8.41V7.38h2.25v3.26c.91-.25 1.89-.41 2.95-.47V7.38H23v2.8c1.23.08 2.37.27 3.34.53v4.23Z"/>
</svg>
