<svg viewBox="0 0 64 64" xmlns="http://www.w3.org/2000/svg">
  <path d="M32 0C14.33 0 0 14.32 0 32s14.33 32 32 32 32-14.33 32-32S49.67 0 32 0m0 61.25C15.87 61.25 2.75 48.13 2.75 32S15.87 2.75 32 2.75 61.25 15.87 61.25 32 48.13 61.25 32 61.25m4.38-44.96c2.14.11 4.11.42 5.77.87v6.78c-1.72-.79-4-1.45-6.91-1.45-5.68 0-9.59 3.17-9.59 9.46s3.92 9.42 9.59 9.42c2.9 0 5.15-.66 6.91-1.45v6.78c-1.66.42-3.64.74-5.77.87v3.55h-2.75v-3.53c-2.02-.08-3.89-.38-5.57-.89v4.42h-2.75V45.6c-4.97-2.53-7.8-7.31-7.8-13.64s2.84-11.14 7.8-13.67v-6.44h2.75v5.33c1.69-.52 3.55-.82 5.57-.89v-4.44h2.75v4.45Z"/>
</svg>
