<svg viewBox="0 0 24 24" xmlns="http://www.w3.org/2000/svg">
  <path d="M12 0a11.94 11.94 0 0 0-7.63 2.74A12.04 12.04 0 0 0 .54 8.43a12.05 12.05 0 0 0 0 7.14c.47 1.5 1.22 2.88 2.2 4.06a12.04 12.04 0 0 0 5.69 3.83 12.05 12.05 0 0 0 7.14 0c1.5-.47 2.88-1.22 4.06-2.2a12.04 12.04 0 0 0 3.83-5.69c.35-1.13.54-2.33.54-3.57 0-6.63-5.37-12-12-12m3.8 8.98c-.64-.3-1.5-.54-2.59-.54-2.13 0-3.6 1.19-3.6 3.55s1.47 3.53 3.6 3.53c1.09 0 1.93-.25 2.59-.54v2.54c-.53.13-1.14.24-1.8.3v1.36h-1.75v-1.34c-.48-.04-.94-.11-1.37-.21v1.55H9.13v-2.26c-1.64-.99-2.57-2.7-2.57-4.92s.97-4.03 2.69-5.01V4.45h1.5v1.93c.47-.12.96-.21 1.5-.25V4.45H14v1.7c.66.05 1.27.16 1.8.3v2.54Z"/>
</svg>
