<svg viewBox="0 0 24 24" xmlns="http://www.w3.org/2000/svg">
  <path d="M18.86 18.83 24 9.31l-2.24-5.56-6.05 3.2.41-2.21L9.86 0 5.1 6.25l.64 4L0 9.19l.58 8.27 3.59 2.21L0 20.89v3.1h24l-1.42-4.9-3.72-.27Zm-3.04-9.96 4.78-2.52-2.89 4.57zm-3.83 6.36-.31-6.47 2.36-2.44-.41 2.23-1.64 6.67ZM9.94 9.14l.29 6.07-2.54-3.8-.55-3.47 2.8 1.21Zm-.12 9.39-.05.09-3.95-4.25.76-1.31 3.24 5.46Zm-7.61-2.77-.29-4.19 2.18 3.37zm2.44-.07 3.17 3.42-1.46-.13-3.32-2.04c.7-.54 1.11-.86 1.6-1.24Zm9.25 1.03 1.18-6.38 2.1 1.59-1.94 7-.05-.04-1.29-2.18Zm1.51 2.24 3.43-6.58.01-.03.02-.03.11-.33 2.37-1.47-4.49 8.33zm6.66-9.75-.47.88-2.26.89 1.6-4.56zm-7.95-3.3-2.6 1.95-1.07-5.23 3.75 2.85zm-3.97-3.4-.2 5.4-2.64-1.67zm-4.1 9.65.46.78-1.07 1.1L2.3 11.4l3.74.69v.08Zm-4.3 10.09v-.04l3.66-1.07 3.05-.22 1.95.18.63-1.17 1.15-1.03.52.32 1.14.86.48.81 3.47-.11.14-.26h.05l3.24.23.43 1.49H1.75Z"/>
</svg>
