<svg viewBox="0 0 32 32" xmlns="http://www.w3.org/2000/svg">
  <path d="M25.15 25.11 32 12.42l-2.99-7.41-8.14 4.65.62-3.33L13.15 0 6.8 8.33l.85 5.33L0 12.25l.77 11.03 4.79 2.95L0 27.86V32h32l-1.89-6.53zm-16.77.51-4.72-2.91 2.62-1.96 4.49 4.84-1.52.11zm12.15-.33 4.44-8.85.01-.03.02-.04.13-.36 3.93-2.36-6.19 11.46-2.35.18Zm.43-13.38 6.82-3.89-4.11 6.75zm2.11 4-2.73 9.35-.78-.59-1.11-1.88 1.54-8.31.24-.79 2.85 2.22Zm-7.22 5.14-.45-9.32 3.74-3.77L18.02 14l-2.18 7.06Zm-2.43-8.9.4 8.4-4.01-6-.69-4.3 4.29 1.9Zm-.25 12.69-.2.18-5.34-5.75 1.13-1.87 4.4 7.44ZM2.64 21.3l-.45-6.5 3.47 5.12zm27.15-9-.53.98-3.68 1.51 2.49-6.74 1.71 4.25ZM19.21 7.61l-3.98 3.05L13.79 3l5.49 4.17-.08.44ZM13.53 2.8l.04.03-.15 7.93-4.05-2.5zM8.06 16.21l.62 1.05-1.51 1.6-4.68-4.11 5.5 1.01.07.46ZM2 30v-.64l5.16-1.51 2.07-.15 4.67.43 1.3-2.42 1.03-.92.92.56.88.67 1.09 1.84 4.62-.14.37-.68 4.46.33.76 2.63z"/>
</svg>
