<svg viewBox="0 0 16 16" xmlns="http://www.w3.org/2000/svg">
  <path d="M12.58 12.55 16 6.2l-1.49-3.71-4.04 2.13.27-1.48L6.57 0 3.4 4.17l.43 2.66L0 6.13l.39 5.52 2.4 1.48-2.78.81v2.07h16l-.95-3.26-2.48-.18Zm-2.15-.15 2.28-4.08v-.05l.09-.3.8-.52-2.66 4.93-.53.02Zm.48-6.3 2.36-1.25-1.5 2.22-.86-.98Zm.37 1.86-1.03 4.2-.86-1.45.86-3.49zM7.95 5.78l.98-1.06-.82 4.43zm-1.49.36.16 3.41-1.16-1.96-.32-1.98zm-.43 5.51L4 9.46c.08-.16.17-.32.25-.47zM3.69 9.22 2.18 8.05l1.64.3.3.45zm-1.14.71-.76.3-.13-1.8zm.48.7 1.6 1.72-.28-.03-1.93-1.19.61-.51Zm10.91-3.77-.87.32.75-2.36.52 1.3-.4.75ZM9.03 4.19l-1.24.89-.71-2.82L9.11 3.8l-.07.39ZM6.7 2.31l-.19 2.74-1.26-.84L6.7 2.3ZM3.4 14.5l.27-.08 2.67-.19.51-.04.38-.34.94-.84.12.07 1 .76.45.34.56-.04 1.69-.13 1.9.14.1.34H3.4Z"/>
</svg>
