<svg viewBox="0 0 40 40" xmlns="http://www.w3.org/2000/svg">
  <path d="m31.77 18.69 4.5-12.43L40 15.5l-8.22 3.19Zm5.87 13.15-6.2-.45 8.55-15.85-8.73 4.56-.12.32-.01.02v.03h-.01l-5.47 11.15h-.16l-.06-.03 3.56-11.78-3.69-3.49.45-2.41 3.89 4.6 6.63-12.24-10.18 5.81.77-4.15-7.71 6.86.64 13.31-.56.5-1.8-2.7-.51-10.7-8.03-3.4 1.45 5.42L0 15.31l8.69 8.14 3.12-5.96-.84 2.18-1.67 4.36.02.02 6.79 7.31-.54.48-1.95.14-5.74-6.19-5.87 3.96 4.94 3.04L0 34.82v5.17h40l-2.36-8.16ZM26.84 7.89 16.5.05l2.46 13.49zM16.43 0 9.19 9.5l7.66 4.17zM7.19 24.92 0 15.31.88 27.9z"/>
</svg>
