<svg viewBox="0 0 24 24" xmlns="http://www.w3.org/2000/svg">
  <path d="M5.62 12.75C2.51 12.75 0 15.27 0 18.37s2.52 5.62 5.62 5.62 5.62-2.52 5.62-5.62-2.52-5.62-5.62-5.62m0 9.5c-2.14 0-3.88-1.74-3.88-3.88s1.74-3.88 3.88-3.88 3.88 1.74 3.88 3.88-1.74 3.88-3.88 3.88M5.62 0C2.52 0 0 2.52 0 5.62s2.52 5.62 5.62 5.62 5.62-2.52 5.62-5.62S8.73 0 5.62 0m0 9.5c-2.14 0-3.88-1.74-3.88-3.88s1.74-3.88 3.88-3.88S9.5 3.48 9.5 5.62 7.76 9.5 5.62 9.5m12.76-2.38c-3.11 0-5.62 2.52-5.62 5.62s2.52 5.62 5.62 5.62S24 15.84 24 12.74s-2.52-5.62-5.62-5.62m0 9.5c-2.14 0-3.88-1.74-3.88-3.88s1.74-3.88 3.88-3.88 3.88 1.74 3.88 3.88-1.74 3.88-3.88 3.88M6.15 5.19l-.13-.03v-.88c.35.02.65.1.97.24V3.6c-.32-.1-.65-.16-.97-.17v-.59h-.51v.6c-.83.1-1.35.58-1.35 1.24 0 .6.41.95 1.13 1.15l.21.06v.97c-.49 0-.92-.15-1.28-.33v.93c.31.13.7.24 1.28.25v.57h.51v-.61c.84-.13 1.3-.61 1.3-1.28 0-.64-.4-1-1.17-1.2ZM5.52 5c-.24-.1-.35-.2-.35-.37 0-.19.13-.29.35-.34v.7Zm.51 1.8v-.75c.26.11.35.22.35.37 0 .2-.13.32-.35.38m-.13 9.41c.36 0 .7.05.97.13v.92c-.23-.1-.52-.2-.88-.2-.47 0-.84.22-1.01.66h1.43v.49H4.89v.28h1.52v.49H4.99c.17.44.53.66 1.01.66.37 0 .65-.1.88-.2v.92c-.28.07-.61.13-.97.13-1.1 0-1.85-.57-2.07-1.51h-.63v-.49h.57v-.28h-.57v-.49h.64c.22-.94.96-1.51 2.06-1.51Zm14.73-5.5-1.51 2.39h.87v.49h-.98v.28h.98v.49h-.98v.49h-1.06v-.49h-.97v-.49h.97v-.28h-.97v-.49h.87l-1.49-2.39h1.22l.92 1.59.92-1.59h1.19Z"/>
</svg>
