<svg viewBox="0 0 64 64" xmlns="http://www.w3.org/2000/svg">
  <path d="M15 34C6.72 34 0 40.72 0 49s6.72 15 15 15 15-6.72 15-15-6.72-15-15-15m0 27.25c-6.75 0-12.25-5.5-12.25-12.25S8.25 36.75 15 36.75 27.25 42.25 27.25 49 21.75 61.25 15 61.25M15 0C6.72 0 0 6.72 0 15s6.72 15 15 15 15-6.72 15-15S23.28 0 15 0m0 27.25c-6.75 0-12.25-5.5-12.25-12.25S8.25 2.75 15 2.75 27.25 8.25 27.25 15 21.75 27.25 15 27.25M49 19c-8.28 0-15 6.72-15 15s6.72 15 15 15 15-6.72 15-15-6.72-15-15-15m0 27.25c-6.75 0-12.25-5.5-12.25-12.25S42.25 21.75 49 21.75 61.25 27.25 61.25 34 55.75 46.25 49 46.25M16.41 13.82l-.34-.08V11.4c.94.05 1.74.27 2.59.64V9.59c-.86-.27-1.73-.42-2.59-.45V7.57h-1.36v1.6c-2.21.26-3.6 1.55-3.6 3.3 0 1.6 1.1 2.54 3.03 3.07l.58.16v2.58c-1.3 0-2.45-.4-3.43-.88v2.48c.82.34 1.86.64 3.43.66v1.52h1.36v-1.62c2.24-.34 3.46-1.62 3.46-3.42 0-1.7-1.07-2.66-3.12-3.2Zm-1.7-.48c-.64-.26-.93-.53-.93-.98 0-.5.35-.77.93-.9v1.87Zm1.37 4.79v-2c.7.29.93.58.93.98 0 .53-.35.85-.93 1.02m-.33 25.09c.96 0 1.86.14 2.59.34v2.47c-.61-.27-1.38-.53-2.35-.53-1.26 0-2.24.59-2.71 1.76h3.81v1.3h-4.07c-.02.13-.02.26-.02.38s0 .26.02.37h4.07v1.3H13.3c.45 1.17 1.42 1.76 2.69 1.76.98 0 1.75-.26 2.35-.53v2.46c-.75.18-1.63.34-2.59.34-2.94 0-4.93-1.52-5.52-4.03H8.55v-1.3h1.52c-.02-.11-.02-.24-.02-.37s0-.26.02-.38H8.55v-1.3h1.7c.59-2.51 2.58-4.03 5.51-4.03Zm39.27-14.66L51 34.95h2.32v1.3h-2.61V37h2.61v1.3h-2.61v1.31h-2.82V38.3H45.3V37h2.59v-.75H45.3v-1.3h2.32l-3.97-6.39h3.25l2.46 4.24 2.46-4.24h3.19Z"/>
</svg>
