<svg viewBox="0 0 48 48" xmlns="http://www.w3.org/2000/svg">
  <path d="M11.25 25.5C5.04 25.5 0 30.54 0 36.75S5.04 48 11.25 48 22.5 42.96 22.5 36.75 17.46 25.5 11.25 25.5m0 20c-4.82 0-8.75-3.93-8.75-8.75S6.43 28 11.25 28 20 31.93 20 36.75s-3.93 8.75-8.75 8.75m0-45.5C5.04 0 0 5.04 0 11.25S5.04 22.5 11.25 22.5 22.5 17.46 22.5 11.25 17.46 0 11.25 0m0 20c-4.82 0-8.75-3.93-8.75-8.75S6.43 2.5 11.25 2.5 20 6.43 20 11.25 16.07 20 11.25 20m25.5-5.75c-6.21 0-11.25 5.04-11.25 11.25s5.04 11.25 11.25 11.25S48 31.71 48 25.5s-5.04-11.25-11.25-11.25m0 20c-4.82 0-8.75-3.93-8.75-8.75s3.93-8.75 8.75-8.75 8.75 3.93 8.75 8.75-3.93 8.75-8.75 8.75M12.3 10.37l-.25-.06V8.56c.71.04 1.31.2 1.94.48V7.21c-.65-.2-1.3-.31-1.94-.34V5.7h-1.02v1.2c-1.66.19-2.7 1.16-2.7 2.47 0 1.2.83 1.91 2.27 2.3l.43.12v1.93c-.97 0-1.83-.3-2.57-.66v1.86c.61.25 1.39.48 2.57.49v1.14h1.02v-1.21c1.68-.25 2.59-1.21 2.59-2.57 0-1.27-.8-1.99-2.34-2.4m-1.27-.36c-.48-.19-.7-.4-.7-.73 0-.37.26-.58.7-.67zm1.02 3.59v-1.5c.53.22.7.43.7.73 0 .4-.26.64-.7.77m-.24 18.82c.72 0 1.39.11 1.94.25v1.85c-.46-.2-1.03-.4-1.76-.4-.95 0-1.68.44-2.03 1.32h2.85v.97H9.76c-.01.1-.01.19-.01.29s0 .19.01.28h3.05v.97H9.97c.34.88 1.07 1.32 2.01 1.32.73 0 1.31-.19 1.76-.4v1.85c-.56.13-1.22.25-1.94.25-2.21 0-3.69-1.14-4.14-3.02H6.4v-.97h1.14c-.01-.08-.01-.18-.01-.28s0-.19.01-.29H6.4v-.97h1.27c.44-1.88 1.93-3.02 4.13-3.02Zm29.44-11-3.01 4.79h1.74v.97h-1.96v.56h1.96v.97h-1.96v.98h-2.11v-.98h-1.94v-.97h1.94v-.56h-1.94v-.97h1.74l-2.97-4.79h2.43l1.85 3.18 1.85-3.18h2.39Z"/>
</svg>
