<svg viewBox="0 0 40 40" xmlns="http://www.w3.org/2000/svg">
  <path d="M10.62 10.69c0 .33-.22.53-.58.64v-1.25c.44.18.58.36.58.61M8.61 7.73c0 .28.18.45.58.61V7.17c-.36.08-.58.25-.58.56m10.14 1.64c0 5.18-4.2 9.38-9.38 9.38S0 14.55 0 9.37 4.2 0 9.38 0s9.38 4.2 9.38 9.38Zm-6.55 1.27c0-1.06-.67-1.66-1.95-2l-.21-.05V7.13c.59.03 1.09.17 1.62.4V6c-.54-.17-1.08-.26-1.62-.28v-.98h-.85v1c-1.38.16-2.25.97-2.25 2.06 0 1 .69 1.59 1.89 1.92l.36.1v1.61c-.81 0-1.53-.25-2.14-.55v1.55c.51.21 1.16.4 2.14.41v.95h.85v-1.01c1.4-.21 2.16-1.01 2.16-2.14m6.55 19.98c0 5.18-4.2 9.38-9.38 9.38S0 35.8 0 30.62a9.38 9.38 0 0 1 18.76 0Zm-7.29-3.39c-.46-.12-1.02-.21-1.62-.21-1.83 0-3.07.95-3.44 2.52H5.34v.81h.95v.47h-.95v.81h1.05c.37 1.57 1.61 2.52 3.45 2.52.6 0 1.15-.1 1.62-.21V32.4c-.38.17-.86.33-1.47.33-.79 0-1.4-.37-1.68-1.1h2.37v-.81H8.14v-.47h2.54v-.81H8.3c.29-.73.9-1.1 1.69-1.1.61 0 1.09.16 1.47.33zM40 21.25a9.38 9.38 0 1 1-18.761-.001A9.38 9.38 0 0 1 40 21.25m-8.13.59 2.51-3.99h-1.99l-1.54 2.65-1.54-2.65h-2.03l2.48 3.99h-1.45v.81h1.62v.47h-1.62v.81h1.62v.82h1.76v-.82h1.63v-.81h-1.63v-.47h1.63v-.81z"/>
</svg>
