<svg viewBox="0 0 32 32" xmlns="http://www.w3.org/2000/svg">
  <path d="M7.5 17C3.36 17 0 20.36 0 24.5S3.36 32 7.5 32s7.5-3.36 7.5-7.5S11.64 17 7.5 17m0 13C4.47 30 2 27.53 2 24.5S4.47 19 7.5 19s5.5 2.47 5.5 5.5S10.53 30 7.5 30m0-30C3.36 0 0 3.36 0 7.5S3.36 15 7.5 15 15 11.64 15 7.5 11.64 0 7.5 0m0 13C4.47 13 2 10.53 2 7.5S4.47 2 7.5 2 13 4.47 13 7.5 10.53 13 7.5 13m17-3.5c-4.14 0-7.5 3.36-7.5 7.5s3.36 7.5 7.5 7.5S32 21.14 32 17s-3.36-7.5-7.5-7.5m0 13c-3.03 0-5.5-2.47-5.5-5.5s2.47-5.5 5.5-5.5S30 13.97 30 17s-2.47 5.5-5.5 5.5M8.2 6.91l-.17-.04V5.7c.47.02.87.14 1.29.32V4.8c-.43-.14-.86-.21-1.29-.22V3.8h-.68v.8c-1.1.13-1.8.78-1.8 1.65 0 .8.55 1.27 1.51 1.54l.29.08v1.29c-.65 0-1.22-.2-1.71-.44v1.24c.41.17.93.32 1.71.33v.76h.68v-.81c1.12-.17 1.73-.81 1.73-1.71 0-.85-.54-1.33-1.56-1.6Zm-.84-.24c-.32-.13-.46-.26-.46-.49 0-.25.18-.38.46-.45zm.68 2.39v-1c.35.14.46.29.46.49 0 .26-.18.42-.46.51m-.17 12.55c.48 0 .93.07 1.29.17v1.23c-.3-.14-.69-.26-1.18-.26-.63 0-1.12.3-1.35.88h1.9v.65H6.5v.37h2.03v.65h-1.9c.22.58.71.88 1.34.88.49 0 .87-.13 1.18-.26v1.23c-.38.09-.82.17-1.29.17-1.47 0-2.46-.76-2.76-2.01h-.84v-.65h.76v-.37h-.76v-.65h.85c.3-1.26 1.29-2.01 2.75-2.01Zm19.63-7.33-2.01 3.19h1.16v.65h-1.3v.38h1.3v.65h-1.3v.66h-1.41v-.66h-1.29v-.65h1.29v-.38h-1.29v-.65h1.16l-1.98-3.19h1.62l1.23 2.12 1.23-2.12z"/>
</svg>
