<svg viewBox="0 0 32 32" xmlns="http://www.w3.org/2000/svg">
  <path d="M7.36 5.74v.94c-.32-.13-.46-.26-.46-.49 0-.25.18-.38.46-.45m.68 2.32v1c.29-.09.46-.25.46-.51 0-.2-.11-.34-.46-.49M15 7.5c0 4.14-3.36 7.5-7.5 7.5S0 11.64 0 7.5 3.36 0 7.5 0 15 3.36 15 7.5M9.76 8.51c0-.85-.54-1.33-1.56-1.6l-.17-.04V5.7c.47.02.87.14 1.29.32V4.8c-.43-.14-.86-.21-1.29-.22V3.8h-.68v.8c-1.1.13-1.8.78-1.8 1.65 0 .8.55 1.27 1.51 1.54l.29.08v1.29c-.65 0-1.22-.2-1.71-.44v1.24c.41.17.93.32 1.71.33v.76h.68v-.81c1.12-.17 1.73-.81 1.73-1.71ZM15 24.5c0 4.14-3.36 7.5-7.5 7.5S0 28.64 0 24.5 3.36 17 7.5 17s7.5 3.36 7.5 7.5m-5.83-2.72c-.37-.1-.82-.17-1.29-.17-1.46 0-2.46.76-2.75 2.01h-.85v.65h.76v.37h-.76v.65h.84c.3 1.25 1.29 2.01 2.76 2.01.48 0 .92-.08 1.29-.17V25.9c-.3.14-.69.26-1.18.26-.63 0-1.12-.3-1.34-.88h1.9v-.65H6.52v-.37h2.03v-.65h-1.9c.23-.58.72-.88 1.35-.88.49 0 .87.13 1.18.26v-1.23ZM32 17c0 4.14-3.36 7.5-7.5 7.5S17 21.14 17 17s3.36-7.5 7.5-7.5S32 12.86 32 17m-6.5.47 2.01-3.19h-1.59l-1.23 2.12-1.23-2.12h-1.62l1.98 3.19h-1.16v.65h1.29v.38h-1.29v.65h1.29v.66h1.41v-.66h1.3v-.65h-1.3v-.38h1.3v-.65z"/>
</svg>
