<svg viewBox="0 0 40 40" xmlns="http://www.w3.org/2000/svg">
  <path d="M9.38 21.25a9.38 9.38 0 1 0 .001 18.761A9.38 9.38 0 0 0 9.38 21.25m0 16.5c-3.93 0-7.12-3.2-7.12-7.12s3.2-7.12 7.12-7.12 7.12 3.2 7.12 7.12-3.2 7.12-7.12 7.12M9.38 0C4.2 0 0 4.2 0 9.37s4.2 9.38 9.38 9.38 9.38-4.2 9.38-9.38S14.55 0 9.38 0m0 16.5c-3.93 0-7.12-3.2-7.12-7.12s3.2-7.12 7.12-7.12 7.12 3.2 7.12 7.12-3.2 7.12-7.12 7.12m21.24-4.63a9.38 9.38 0 1 0 .001 18.761 9.38 9.38 0 0 0-.001-18.761m0 16.5c-3.93 0-7.12-3.2-7.12-7.12s3.2-7.12 7.12-7.12 7.12 3.2 7.12 7.12-3.2 7.12-7.12 7.12M10 8.64l-.21-.05V7.13c.59.03 1.09.17 1.62.4V6c-.54-.17-1.08-.26-1.62-.28v-.98h-.85v1c-1.38.16-2.25.97-2.25 2.06 0 1 .69 1.59 1.89 1.92l.36.1v1.61c-.81 0-1.53-.25-2.14-.55v1.55c.51.21 1.16.4 2.14.41v.95h.85v-1.01c1.4-.21 2.16-1.01 2.16-2.14 0-1.06-.67-1.66-1.95-2m-1.06-.3c-.4-.16-.58-.33-.58-.61 0-.31.22-.48.58-.56zm.85 2.99v-1.25c.44.18.58.36.58.61 0 .33-.22.53-.58.64m.05 15.69c.6 0 1.16.09 1.62.21v1.54a3.5 3.5 0 0 0-1.47-.33c-.79 0-1.4.37-1.69 1.1h2.38v.81H8.14v.47h2.54v.81H8.31c.28.73.89 1.1 1.68 1.1.61 0 1.09-.16 1.47-.33v1.54c-.47.11-1.02.21-1.62.21-1.84 0-3.08-.95-3.45-2.52H5.34v-.81h.95v-.47h-.95v-.81H6.4c.37-1.57 1.61-2.52 3.44-2.52m24.54-9.17-2.51 3.99h1.45v.81h-1.63v.47h1.63v.81h-1.63v.82h-1.76v-.82h-1.62v-.81h1.62v-.47h-1.62v-.81h1.45l-2.48-3.99h2.03l1.54 2.65 1.54-2.65z"/>
</svg>
