<svg viewBox="0 0 24 24" xmlns="http://www.w3.org/2000/svg">
  <path d="m24 19.99-3.58 3.58c-.29.29-.68.44-1.06.44s-.77-.15-1.06-.44c-.57-.57-.58-1.49-.03-2.08h-1.15a5.51 5.51 0 0 1-5.5-5.5v-1.82L9.55 12.1c-.59-.59-.59-1.53 0-2.12s1.48-.58 2.07-.03V8.24a2.5 2.5 0 0 0-2.5-2.5H7.54v-3h1.58c3.03 0 5.5 2.47 5.5 5.5v1.71c.59-.55 1.51-.55 2.08.03s.59 1.54 0 2.12l-2.08 2.08v1.81a2.5 2.5 0 0 0 2.5 2.5h1.15c-.55-.59-.54-1.5.03-2.08s1.54-.59 2.12 0zM2.41 3.83c.11.08.23.14.36.19.25.11.53.16.81.16.29 0 .56-.06.81-.16.75-.32 1.28-1.06 1.28-1.93S5.14.48 4.39.16C4.15.06 3.87 0 3.59 0c-.29 0-.57.06-.82.17-.13.05-.24.12-.36.19q-.33.225-.57.57c-.23.33-.36.74-.36 1.17s.13.84.36 1.17q.225.33.57.57Zm2.31 1.05H2.44A2.45 2.45 0 0 0 0 7.32v1.5h7.17v-1.5c0-1.35-1.09-2.44-2.44-2.44Z"/>
</svg>
