<svg viewBox="0 0 24 24" xmlns="http://www.w3.org/2000/svg">
  <path d="M18 9.86c-2.67 0-4.84 2.16-4.84 4.83v5.33h3.01v3.94h1.75v-3.94h4.34v3.94h1.75V9.86zm-3.09 8.42v-3.59c0-1.7 1.39-3.08 3.09-3.08h3.42l-4.82 6.67zm3.84 0 3.5-4.84v4.84zM15.54 5.12a4.271 4.271 0 0 0 8.36 0h.09V1.6c0-.9-.73-1.63-1.64-1.63h-6.9v3.41h-3.36v1.75h3.45Zm4.18 1.64a2.51 2.51 0 0 1-2.36-1.64h4.73a2.52 2.52 0 0 1-2.36 1.64ZM17.2 1.71h5.04v1.66H17.2zM0 17.17h10.63v1.75H8.28v5.05H6.53v-5.05H0zM9.43 6.59H0v9.4h9.42v-9.4Zm-1.75 7.66H1.75V8.34h5.92v5.91Zm-.94-2.85H4.59V9.26h2.15z"/>
</svg>
