<svg viewBox="0 0 16 16" xmlns="http://www.w3.org/2000/svg">
  <path d="m16 12.53-3.11 3.11c-.24.24-.56.37-.88.37s-.64-.12-.88-.37a1.25 1.25 0 0 1 0-1.77l.14-.14A4.244 4.244 0 0 1 7.51 9.6L5.62 7.71c-.49-.49-.49-1.28 0-1.77s1.28-.49 1.77 0l.12.12v-.23c0-.96-.78-1.75-1.75-1.75h-.72v-2.5h.72a4.26 4.26 0 0 1 4.25 4.25v.24l.12-.12c.49-.49 1.28-.49 1.77 0s.49 1.28 0 1.77L10.02 9.6c.02.71.47 1.31 1.09 1.56-.46-.49-.45-1.25.02-1.73s1.28-.49 1.77 0l3.11 3.11ZM2.47 2.41c.66 0 1.2-.54 1.2-1.2S3.13 0 2.47 0s-1.2.54-1.2 1.2.54 1.2 1.2 1.2Zm.73.63H1.75C.78 3.04 0 3.83 0 4.79v.96h4.95v-.96c0-.96-.78-1.75-1.75-1.75"/>
</svg>
