<svg viewBox="0 0 64 64" xmlns="http://www.w3.org/2000/svg">
  <path d="m64.03 55.91-7.69 7.68c-.27.27-.62.4-.97.4s-.7-.13-.97-.4c-.54-.54-.54-1.41 0-1.95l4.37-4.36H45.98c-6.44 0-11.69-5.23-11.72-11.66v-2.15c.95-.06 1.87-.24 2.74-.54v2.67c.03 4.92 4.06 8.92 8.98 8.92h12.79l-4.37-4.36c-.54-.54-.54-1.41 0-1.95s1.41-.54 1.95 0l7.69 7.68ZM3.96 5.11C3.96 2.29 6.26 0 9.09 0s5.12 2.29 5.12 5.12-2.29 5.12-5.12 5.12-5.13-2.3-5.13-5.13m2.76 0c0 1.31 1.06 2.37 2.37 2.37s2.37-1.06 2.37-2.37-1.06-2.37-2.37-2.37S6.72 3.8 6.72 5.11m5.6 8.31H5.85c-3.21 0-5.82 2.61-5.82 5.82v4.26h2.75v-4.26c0-1.69 1.38-3.07 3.07-3.07h6.47c1.69 0 3.07 1.38 3.07 3.07v4.26h2.75v-4.26c0-3.21-2.61-5.82-5.82-5.82m21.82 8.17v.63c.96.05 1.88.21 2.76.5v-1.14c-.03-6.43-5.29-11.66-11.73-11.66H20.1v2.75h5.07c4.93 0 8.95 4 8.97 8.92m4.99 18.72a9.2 9.2 0 0 1-5.52 1.83c-5.12 0-9.29-4.16-9.29-9.28s4.17-9.28 9.29-9.28 9.29 4.16 9.29 9.28c0 2.06-.68 3.96-1.82 5.5l6.64 6.63a1.376 1.376 0 0 1-1.94 1.95l-6.64-6.63Zm-5.52-.92c3.6 0 6.54-2.93 6.54-6.53s-2.93-6.53-6.54-6.53-6.53 2.93-6.53 6.53 2.93 6.53 6.53 6.53"/>
</svg>
