<svg viewBox="0 0 64 64" xmlns="http://www.w3.org/2000/svg">
  <path d="M55.69 16.67c4.59 0 8.33-3.73 8.33-8.32S60.28.04 55.69.04s-8.32 3.73-8.32 8.32 3.73 8.32 8.32 8.32Zm0-13.88c3.07 0 5.57 2.5 5.57 5.57s-2.5 5.57-5.57 5.57-5.57-2.5-5.57-5.57 2.5-5.57 5.57-5.57M42.6 31.1v10.52h6.16v22.41h15.21V21.62H52.09c-5.23 0-9.48 4.25-9.48 9.48Zm18.62 30.19h-9.7V38.88h-6.16v-7.77c0-3.71 3.02-6.73 6.73-6.73h9.13zm-45.1-44.71c4.56 0 8.28-3.71 8.28-8.27 0-.09-.01-.18-.01-.28h2.75c.76 0 1.38-.62 1.38-1.38s-.62-1.38-1.38-1.38h-3.32C22.6 2.21 19.61.04 16.12.04c-4.56 0-8.28 3.71-8.28 8.27s3.71 8.27 8.28 8.27m5.53-8.27c0 3.05-2.48 5.52-5.53 5.52s-5.53-2.48-5.53-5.52c0-.09 0-.19.01-.28h11.02c0 .09.01.18.01.28Zm-5.53-5.52c1.93 0 3.63.99 4.62 2.49h-9.23c.99-1.5 2.69-2.49 4.62-2.49Zm6.68 18.98H9.45c-5.21 0-9.44 4.22-9.44 9.42v10.46h5.9l2.03 22.34h15.94l2.03-22.34h6.32V31.19c0-5.19-4.23-9.42-9.43-9.42m6.67 17.13h-6.08l-2.03 22.34H10.44L8.41 38.9H2.77v-7.71c0-3.68 2.99-6.67 6.68-6.67H22.8c3.68 0 6.68 2.99 6.68 6.67v7.71Zm-14.54-8.56h7.45v2.75h-7.45z"/>
</svg>
