<svg viewBox="0 0 16 16" xmlns="http://www.w3.org/2000/svg">
  <path d="M1.27 1.21C1.27.54 1.81 0 2.47 0s1.2.54 1.2 1.2-.54 1.2-1.2 1.2-1.2-.54-1.2-1.2ZM3.2 3.04H1.75C.78 3.04 0 3.83 0 4.79v.96h4.95v-.96c0-.96-.78-1.75-1.75-1.75M6.4 4.2c.52-.25 1.1-.4 1.72-.4.54 0 1.05.11 1.51.3a4.25 4.25 0 0 0-3.88-2.53h-.72v2.5h.72c.23 0 .45.05.65.13m6.48 5.22s-.09-.05-.13-.08c.8.88.78 2.24-.07 3.1-.44.44-1.01.66-1.59.66s-1.15-.22-1.59-.66l-.6-.6c-.22.04-.44.06-.66.07.68.99 1.76 1.69 3.02 1.84l-.14.14a1.25 1.25 0 0 0 0 1.77c.24.24.56.37.88.37s.64-.12.88-.37l3.11-3.11-3.11-3.11ZM9.19 10.7c-.34.13-.7.21-1.08.21-1.68 0-3.05-1.37-3.05-3.05s1.37-3.05 3.05-3.05 3.05 1.37 3.05 3.05c0 .38-.08.74-.21 1.07l1.03 1.03c.49.49.49 1.28 0 1.77-.24.24-.56.37-.88.37s-.64-.12-.88-.37L9.2 10.71ZM8.12 8.41c.3 0 .55-.25.55-.55s-.25-.55-.55-.55-.55.25-.55.55.25.55.55.55"/>
</svg>
