<svg viewBox="0 0 48 48" xmlns="http://www.w3.org/2000/svg">
  <path d="M35.2 6.43c0-3.53 2.87-6.41 6.41-6.41s6.41 2.87 6.41 6.41-2.88 6.41-6.41 6.41-6.41-2.87-6.41-6.41m-3.54 16.89v8.04h4.57V48h11.76V16.04h-9.06c-4.01 0-7.27 3.26-7.27 7.27ZM4.84 7.38c0-4.06 3.31-7.37 7.38-7.37 2.81 0 5.26 1.58 6.5 3.89h1.68c1.24 0 2.25 1.01 2.25 2.25S21.64 8.4 20.4 8.4h-.88c-.5 3.58-3.58 6.35-7.3 6.35-4.07 0-7.38-3.31-7.38-7.37m10.05 1.03H9.54c.41 1.08 1.45 1.85 2.68 1.85s2.26-.77 2.68-1.85Zm9.52 14.98v8h-4.72l-1.51 16.59H5.93l-1.5-16.59H.02v-8c0-3.98 3.24-7.23 7.23-7.23h9.92c3.99 0 7.23 3.24 7.23 7.23Zm-7.26-.86h-5.54v2.5h5.54z"/>
</svg>
