<svg viewBox="0 0 32 32" xmlns="http://www.w3.org/2000/svg">
  <path d="M23.19 4.4c0-2.42 1.98-4.4 4.4-4.4s4.4 1.97 4.4 4.4-1.98 4.4-4.4 4.4-4.4-1.97-4.4-4.4m-2.33 11.14v5.48h3.02V32h8.1V10.57h-6.15c-2.74 0-4.97 2.23-4.97 4.97m-4.43.04v5.45h-3.12l-.99 10.94H3.91l-.99-10.94H0v-5.45a4.95 4.95 0 0 1 4.94-4.94h6.54c2.73 0 4.94 2.22 4.94 4.94Zm-5.15-.74H7.63v2h3.65zM3.5 4.8C3.5 2.15 5.66 0 8.31 0c1.6 0 3.02.79 3.89 2h.99c.97 0 1.75.78 1.75 1.75s-.78 1.75-1.75 1.75h-.14a4.794 4.794 0 0 1-4.74 4.1C5.66 9.6 3.5 7.44 3.5 4.8m3.74.7c.23.36.62.6 1.07.6s.84-.25 1.07-.6H7.23Z"/>
</svg>
