<svg viewBox="0 0 16 16" xmlns="http://www.w3.org/2000/svg">
  <path d="M11.88 6.53c-1.85 0-3.35 1.51-3.35 3.36v3.69h1.98V16h1.5v-2.42h2.5V16h1.5V6.53h-4.12Zm-1.85 5.55V9.89c0-1.02.83-1.86 1.85-1.86h1.91l-2.92 4.05h-.85Zm2.69 0 1.79-2.48v2.48zm-2.58-8.33c.33 1.28 1.49 2.23 2.87 2.23s2.54-.95 2.87-2.23h.11V1.51A1.5 1.5 0 0 0 14.49 0h-4.45v2.25H8v1.5zm2.88.73c-.54 0-1.02-.29-1.28-.73h2.56c-.26.44-.73.73-1.28.73M11.53 1.5h2.95v.75h-2.95zM0 11.29h7.08v1.5h-1.4V16h-1.5v-3.21H0zm6.62-7.57H.01v6.62h6.61zm-1.5 5.12H1.51V5.22h3.61zm-.47-1.41H2.88V5.66h1.77z"/>
</svg>
