<svg viewBox="0 0 64 64" xmlns="http://www.w3.org/2000/svg">
  <path d="m64.03 55.91-7.69 7.68c-.27.27-.62.4-.97.4s-.7-.13-.97-.4c-.54-.54-.54-1.41 0-1.95l4.37-4.36H45.98c-6.44 0-11.69-5.23-11.72-11.66l-.04-8.81-6.41-6.41c-.54-.54-.54-1.41 0-1.95s1.41-.54 1.95 0l4.45 4.45-.05-11.31c-.02-4.92-4.04-8.92-8.97-8.92h-5.07V9.92h5.07c6.44 0 11.69 5.23 11.72 11.66l.05 11.16 4.28-4.28c.54-.54 1.41-.54 1.95 0s.54 1.41 0 1.95l-6.21 6.21.04 8.99c.02 4.92 4.04 8.92 8.97 8.92h12.79l-4.37-4.36c-.54-.54-.54-1.41 0-1.95s1.41-.54 1.95 0l7.69 7.68ZM3.96 5.11C3.96 2.29 6.26 0 9.09 0s5.12 2.29 5.12 5.12-2.29 5.12-5.12 5.12-5.13-2.3-5.13-5.13m2.76 0c0 1.31 1.06 2.37 2.37 2.37s2.37-1.06 2.37-2.37-1.06-2.37-2.37-2.37S6.72 3.8 6.72 5.11m5.6 8.31H5.85c-3.21 0-5.82 2.61-5.82 5.82v4.26h2.75v-4.26c0-1.69 1.38-3.07 3.07-3.07h6.47c1.69 0 3.07 1.38 3.07 3.07v4.26h2.75v-4.26c0-3.21-2.61-5.82-5.82-5.82"/>
</svg>
