<svg viewBox="0 0 32 32" xmlns="http://www.w3.org/2000/svg">
  <path d="M2.12 3.15a2.66 2.66 0 0 1 .4-2C2.9.59 3.48.19 4.17.05 4.34.02 4.52 0 4.7 0c1.45 0 2.62 1.17 2.62 2.62 0 .18-.02.36-.05.53-.24 1.2-1.3 2.1-2.57 2.1-.72 0-1.38-.29-1.86-.77-.02-.02-.04-.05-.06-.07a2.7 2.7 0 0 1-.66-1.26m4.13 3.13H3.14C1.41 6.28 0 7.69 0 9.42v2.05h9.39V9.42c0-1.73-1.41-3.14-3.14-3.14m9.42 2.99c.33-.05.66-.08 1-.08.98 0 1.9.2 2.75.56-.44-3.3-3.27-5.85-6.68-5.85h-2.68v3.5h2.68c1.3 0 2.41.77 2.93 1.87M27.41 22.3c-.36-.36-.84-.53-1.31-.51.14 1.04-.18 2.14-.98 2.94-.04.04-.08.06-.12.1l.31.31h-.69c-.59.41-1.28.62-1.97.62-.9 0-1.79-.34-2.48-1.03l-1.61-1.61c-.6.17-1.24.26-1.89.26-.17 0-.34-.01-.52-.03a6.756 6.756 0 0 0 6.59 5.28h2.57l-.37.37a1.75 1.75 0 0 0 0 2.47c.34.34.79.51 1.24.51s.9-.17 1.24-.51l4.59-4.59-4.59-4.59Zm-10.74-.66c-2.95 0-5.35-2.4-5.35-5.35s2.4-5.35 5.35-5.35 5.35 2.4 5.35 5.35c0 .83-.21 1.61-.55 2.32l2.41 2.41c.68.68.68 1.79 0 2.47-.34.34-.79.51-1.24.51s-.9-.17-1.24-.51l-2.41-2.41c-.71.34-1.49.55-2.33.55Zm0-3.5c1.02 0 1.85-.83 1.85-1.85s-.83-1.85-1.85-1.85-1.85.83-1.85 1.85.83 1.85 1.85 1.85"/>
</svg>
