<svg viewBox="0 0 40 40" xmlns="http://www.w3.org/2000/svg">
  <path d="M30.28 16.63c-4.28 0-7.76 3.49-7.76 7.77v8.63h5.04V40h2.25v-6.97h7.95V40h2.25V16.64h-9.73Zm-5.51 14.15V24.4c0-3.04 2.47-5.52 5.51-5.52h6.4l-8.57 11.89h-3.34Zm6.11 0 6.87-9.54v9.54zm-4.42-22.8c.54 3.23 3.34 5.69 6.71 5.69s6.17-2.47 6.71-5.69h.1v-6.1c0-1.04-.85-1.89-1.89-1.89H26.35v5.73h-5.97v2.25h6.08Zm6.71 3.44a4.57 4.57 0 0 1-4.42-3.44h8.85a4.56 4.56 0 0 1-4.42 3.44Zm-4.56-9.17h9.13v3.48h-9.13zM0 28.97h17.72v2.25h-4.26v8.77h-2.25v-8.77H0zm15.05-16.68H.01v15.05h15.03V12.29ZM12.8 25.08H2.26V14.54H12.8zm-1.75-5.94H8.14v-2.92h2.91z"/>
</svg>
