<svg viewBox="0 0 64 64" xmlns="http://www.w3.org/2000/svg">
  <path d="M7.21 43.84H0v2.75h7.21zm3.22-8.92H0v2.75h10.43zM64 2.74V0c-4.53 0-8.22 3.71-8.22 8.27s3.69 8.28 8.22 8.28V13.8c-3.01 0-5.47-2.48-5.47-5.52S60.98 2.76 64 2.76ZM48.02 31.16v10.47h5.84l2.01 22.35h8.12v-2.75h-5.61l-2.01-22.35h-5.61v-7.72c0-3.68 2.96-6.67 6.61-6.67h6.62v-2.75h-6.62c-5.16 0-9.36 4.23-9.36 9.42Zm-20.49-6.54c-.54.54-.54 1.41 0 1.95l5.06 5.1h-12.5V14.04L8.88.03H0v2.75h4.92v9.3c0 1.77 1.43 3.21 3.2 3.21h9.22v45.95H0v2.75h20.08V34.42h12.5l-5.06 5.1c-.53.54-.53 1.41 0 1.95.27.27.62.4.97.4s.71-.14.98-.41l8.35-8.42-8.35-8.42c-.54-.54-1.4-.54-1.95 0ZM8.12 12.54c-.25 0-.45-.21-.45-.46V2.93l7.69 9.62H8.11Zm27.37 4.89h16.82v-2.75H35.49l5.06-5.1c.53-.54.53-1.41 0-1.95-.54-.53-1.41-.53-1.95 0l-8.35 8.42 8.35 8.42c.27.27.62.41.98.41s.7-.13.97-.4c.54-.54.54-1.41 0-1.95z"/>
</svg>
