<svg viewBox="0 0 64 64" xmlns="http://www.w3.org/2000/svg">
  <path d="M5.25 8.24c-.73-.87-1.19-1.98-1.19-3.21C4.06 2.6 5.78.58 8.07.11c.33-.07.67-.1 1.01-.1a5.01 5.01 0 0 1 4.63 3.06 5.06 5.06 0 0 1 0 3.9 5.03 5.03 0 0 1-4.63 3.07c-.35 0-.69-.04-1.01-.1-.8-.16-1.52-.54-2.13-1.03-.25-.2-.48-.43-.68-.67Zm7.07 4.12H5.84C2.62 12.36 0 14.98 0 18.19v4.27h18.16v-4.27c0-3.22-2.62-5.83-5.83-5.83Zm20.53 7.63c.25-.01.5-.04.75-.04 1.53 0 3 .28 4.37.78-.43-6.64-5.98-11.93-12.72-11.93H20.1v5h5.15c3.73 0 6.87 2.66 7.6 6.19m22.68 26.33c-.98-.98-2.56-.98-3.54 0-.13.13-.25.28-.34.44-.07.43-.2.85-.38 1.26-.02.66.22 1.33.73 1.84l2.44 2.44h-8.55c-4.14 0-7.54-3.28-7.74-7.38-1.41.53-2.93.84-4.53.84-.14 0-.28-.02-.43-.02.61 6.47 6.08 11.56 12.7 11.56h8.56l-2.44 2.44c-.98.98-.98 2.56 0 3.53.49.49 1.13.73 1.77.73s1.28-.24 1.77-.73l8.48-8.48-8.48-8.48Zm-21.92-3.06c-5.74 0-10.41-4.67-10.41-10.4s4.67-10.4 10.41-10.4 10.41 4.67 10.41 10.4c0 1.96-.56 3.79-1.5 5.36l5.98 5.98c.98.98.98 2.56 0 3.53-.49.49-1.13.73-1.77.73s-1.28-.24-1.77-.73l-5.98-5.98c-1.57.95-3.4 1.51-5.37 1.51m0-5c2.98 0 5.41-2.42 5.41-5.4s-2.43-5.4-5.41-5.4-5.41 2.42-5.41 5.4 2.43 5.4 5.41 5.4"/>
</svg>
