<svg viewBox="0 0 40 40" xmlns="http://www.w3.org/2000/svg">
  <path d="M2.5 3.32c0-.69.21-1.33.57-1.86.24-.35.54-.66.9-.9C4.49.21 5.13 0 5.82 0c.68 0 1.32.21 1.85.56.35.24.66.54.9.9.36.53.57 1.17.57 1.86s-.21 1.33-.57 1.86c-.24.35-.54.66-.9.9-.53.36-1.17.57-1.86.57s-1.33-.21-1.86-.57a3.4 3.4 0 0 1-.9-.9c-.36-.53-.57-1.17-.57-1.86Zm5.28 4.77H3.85C1.74 8.09.02 9.81.02 11.92v2.6h11.6v-2.6c0-2.11-1.72-3.83-3.83-3.83Zm26.63 20.1c-.58-.58-1.41-.72-2.13-.45.02 1-.34 1.99-1.06 2.78.09.18.2.35.36.5l.78.78h-3.82c-.08 0-.17.02-.25.02-1.02 0-2.05-.39-2.83-1.17l-2.16-2.16c-.78.24-1.62.37-2.48.37-.18 0-.35-.02-.53-.03.69 3.95 4.13 6.97 8.27 6.97h3.79l-.78.78A2.004 2.004 0 0 0 32.98 40c.51 0 1.02-.2 1.41-.59L40 33.8l-5.61-5.61ZM19.87 11.92c.32-.04.63-.06.96-.06 1.16 0 2.27.24 3.28.66-.47-4.19-4.03-7.46-8.35-7.46h-3.19v4h3.19c1.88 0 3.48 1.19 4.11 2.86m.96 14.94c-3.58 0-6.5-2.92-6.5-6.5s2.91-6.5 6.5-6.5 6.5 2.92 6.5 6.5c0 1.06-.26 2.06-.71 2.95l3.09 3.1a2.004 2.004 0 0 1-1.41 3.42c-.51 0-1.02-.2-1.41-.59l-3.09-3.09c-.89.46-1.89.72-2.96.72Zm0-4a2.5 2.5 0 0 0 0-5 2.5 2.5 0 0 0 0 5"/>
</svg>
