<svg viewBox="0 0 48 48" xmlns="http://www.w3.org/2000/svg">
  <path d="M36.41 20c-5.09 0-9.24 4.14-9.24 9.24v10.27h6.07v8.48h2.5v-8.48h9.77v8.48h2.5V20zm-6.74 17.01v-7.77c0-3.72 3.02-6.74 6.74-6.74h7.91L33.85 37.01zm7.26 0 8.58-11.89v11.89zM31.9 9.38c.6 3.87 3.95 6.85 7.99 6.85s7.39-2.98 7.99-6.85h.11V2c0-1.11-.91-2-2.01-2H31.8v6.89h-7.3v2.5h7.4Zm7.99 4.35c-2.66 0-4.89-1.86-5.46-4.35h10.91a5.61 5.61 0 0 1-5.46 4.35Zm-5.6-11.24h11.19v4.39H34.29zM.01 34.87h21.26v2.5h-5.21v10.62h-2.5V37.37H.01zm17.95-19.5H.12v17.84h17.84zm-2.5 15.34H2.61V17.87h12.84v12.84Zm-2.29-7.33h-3.3v-3.3h3.3z"/>
</svg>
