<svg viewBox="0 0 48 48" xmlns="http://www.w3.org/2000/svg">
  <path d="M41.62 12.83a6.41 6.41 0 1 0-6.41-6.41c0 3.54 2.88 6.41 6.41 6.41m0-10.32a3.91 3.91 0 1 1 0 7.82 3.91 3.91 0 1 1 0-7.82m-9.95 20.81v8.05h4.57v16.65H48V16.06h-9.06c-4.01 0-7.27 3.26-7.27 7.27ZM45.5 45.51h-6.75V28.86h-4.57v-5.54c0-2.63 2.14-4.77 4.77-4.77h6.55zM12.23 12.76c3.51 0 6.37-2.85 6.38-6.35h1.8a1.25 1.25 0 0 0 0-2.5h-2.3a6.39 6.39 0 0 0-5.88-3.9c-3.52 0-6.38 2.86-6.38 6.38s2.86 6.37 6.38 6.37m0-2.5c-2.13 0-3.86-1.72-3.87-3.85h7.75a3.875 3.875 0 0 1-3.87 3.85Zm0-7.75c1.19 0 2.24.55 2.95 1.39H9.27c.71-.84 1.76-1.39 2.95-1.39Zm4.96 13.64H7.27c-3.99 0-7.24 3.25-7.24 7.23v8h4.4l1.5 16.6h12.26l1.5-16.6h4.72v-8c0-3.99-3.24-7.23-7.23-7.23Zm4.73 12.73h-4.5l-1.5 16.6H8.23l-1.5-16.6H2.54v-5.5c0-2.61 2.12-4.73 4.73-4.73h9.92c2.61 0 4.73 2.12 4.73 4.73zm-10.58-6.36h5.54v2.5h-5.54z"/>
</svg>
