<svg viewBox="0 0 64 64" xmlns="http://www.w3.org/2000/svg">
  <path d="M48.81 26.8c-6.65 0-12.06 5.42-12.06 12.08v13.46h8.12V64h2.75V52.34h13.67V64h2.75V26.8H48.82Zm-9.32 22.79V38.88c0-5.14 4.18-9.33 9.31-9.33h11.16L45.52 49.58h-6.04Zm9.43 0 12.36-17.15v17.15zm-5.89-37.61c.68 5.17 5.09 9.17 10.43 9.17s9.76-4.01 10.43-9.17h.1V2.14C64 .96 63.04 0 61.86 0H42.93v9.23H32.87v2.75zm10.43 6.42c-3.82 0-7.01-2.78-7.67-6.42h15.33c-.65 3.65-3.84 6.42-7.67 6.42ZM45.68 2.75h15.57v6.48H45.68zM.03 46.79h28.33v2.75h-7.23V64h-2.75V49.54H.03zm23.19-26.01H.03V44h23.19zm-2.75 20.47H2.78V23.53h17.7v17.72Zm-2.88-10.86h-3.81v-3.82h3.81z"/>
</svg>
