<svg viewBox="0 0 32 32" xmlns="http://www.w3.org/2000/svg">
  <path d="M29.63 4.38c0 1.31 1.05 2.38 2.35 2.38v2c-2.4 0-4.35-1.97-4.35-4.38S29.58 0 31.98 0v2c-1.3 0-2.35 1.07-2.35 2.38m-5.8 11.22v5.45h2.89L27.7 32h4.28v-2h-2.45l-.98-10.95h-2.72V15.6c0-1.62 1.31-2.94 2.91-2.94h3.24v-2h-3.24c-2.71 0-4.91 2.22-4.91 4.95ZM5.09 17.69H-.02v2h5.11zm-1.58 4.77H-.02v2h3.53zm11.44-10.37 4.4 4.44-4.4 4.44c-.19.2-.45.3-.71.3s-.51-.1-.7-.29c-.39-.39-.39-1.02 0-1.42l2-2.02h-5.4v14.47H-.02v-2h8.16V8.76H3.42c-1.09 0-1.98-.89-1.98-1.99V2H-.02V0h4.5l5.66 7.08v8.45h5.4l-2-2.02c-.39-.39-.39-1.03 0-1.42a.996.996 0 0 1 1.41 0M3.44 6.77h3.89L3.53 2h-.08v4.77Zm15.05 2.25h7.67v-2h-7.67l2-2.02c.39-.39.39-1.03 0-1.42s-1.02-.39-1.41 0l-4.4 4.44 4.4 4.44c.19.2.45.3.71.3s.51-.1.7-.29c.39-.39.39-1.02 0-1.42l-2-2.02Z"/>
</svg>
