<svg viewBox="0 0 24 24" xmlns="http://www.w3.org/2000/svg">
  <path d="m24 20.6-3.13 3.14c-.17.17-.4.26-.62.26s-.45-.08-.62-.26a.88.88 0 0 1 0-1.24l1.02-1.02h-3.19c-2.88 0-5.22-2.34-5.22-5.22v-2.35l-2.26-2.26a.88.88 0 0 1 0-1.24c.34-.34.9-.34 1.24 0l1.02 1.02V8.57c0-1.91-1.56-3.47-3.47-3.47H7.53V3.35h1.24c2.88 0 5.22 2.34 5.22 5.22v2.87l1.03-1.03c.34-.34.9-.34 1.24 0s.34.9 0 1.24L14 13.91v2.34c0 1.91 1.56 3.47 3.47 3.47h3.19l-1.02-1.02a.88.88 0 0 1 0-1.24c.34-.34.9-.34 1.24 0l3.13 3.14ZM1.49 2.09a2.09 2.09 0 1 1 4.178-.002 2.09 2.09 0 0 1-4.178.002m1.75 0c0 .19.15.34.34.34s.34-.15.34-.34-.15-.34-.34-.34-.34.15-.34.34m1.48 2.79H2.44C1.1 4.88 0 5.97 0 7.32v1.5h1.75v-1.5c0-.38.31-.69.69-.69h2.28c.38 0 .69.31.69.69v1.5h1.75v-1.5c0-1.35-1.1-2.44-2.44-2.44"/>
</svg>
