<svg viewBox="0 0 16 16" xmlns="http://www.w3.org/2000/svg">
  <path d="M15.13 2.38c0 .49.4.88.88.88v1.5a2.38 2.38 0 1 1 0-4.76v1.5c-.49 0-.88.4-.88.88M11.78 7.8v2.9h1.43l.48 5.29h2.33v-1.5h-.96l-.48-5.29h-1.3V7.8c0-.64.52-1.16 1.16-1.16h1.58v-1.5h-1.58c-1.46 0-2.66 1.19-2.66 2.66m-9.28.75H.02v1.5h2.49v-1.5Zm-.76 2.97H.02v1.5h1.72zm5.91-5.65 2.39 2.39-2.39 2.39c-.15.15-.34.22-.53.22s-.38-.07-.53-.22a.754.754 0 0 1 0-1.06l.58-.58H5.22v6.97H.02v-1.5h3.71V4.93H1.57C.88 4.93.32 4.37.32 3.68V1.52h-.3V.02h2.32L5.23 3.6v3.91h1.95l-.58-.58c-.29-.29-.29-.77 0-1.06s.77-.29 1.06 0ZM1.82 3.43h1.34L1.82 1.77zm8.04 1.34h3.26v-1.5H9.86l.58-.58c.29-.29.29-.77 0-1.06s-.77-.29-1.06 0L6.99 4.02l2.39 2.39c.15.15.34.22.53.22s.38-.07.53-.22c.29-.29.29-.77 0-1.06z"/>
</svg>
