<svg viewBox="0 0 32 32" xmlns="http://www.w3.org/2000/svg">
  <path d="m32 27.64-4.06 4.06c-.2.2-.45.29-.71.29s-.51-.1-.71-.29a.996.996 0 0 1 0-1.41l1.65-1.65h-5.61c-3.22 0-5.83-2.62-5.83-5.83v-.92c.71 0 1.38-.16 2-.4v1.33c0 2.11 1.72 3.83 3.83 3.83h5.61L26.52 25a.996.996 0 1 1 1.41-1.41l4.06 4.06ZM2.07 2.62C2.07 1.17 3.25 0 4.7 0s2.62 1.17 2.62 2.62S6.14 5.24 4.7 5.24 2.08 4.07 2.08 2.62Zm2 0c0 .34.28.62.62.62s.62-.28.62-.62S5.03 2 4.69 2s-.62.28-.62.62m2.18 3.66H3.14C1.41 6.28 0 7.69 0 9.42v2.05h2V9.42c0-.63.51-1.14 1.14-1.14h3.11c.63 0 1.14.51 1.14 1.14v2.05h2V9.42c0-1.73-1.41-3.14-3.14-3.14m10.48 4.2v.21c.71 0 1.38.15 2 .4v-.61c0-3.22-2.62-5.83-5.83-5.83h-2.85v2h2.85c2.11 0 3.83 1.72 3.83 3.83m2.4 9.68a4.5 4.5 0 0 1-2.46.73 4.6 4.6 0 1 1 4.6-4.6c0 .9-.27 1.74-.72 2.46l2.81 2.8a.996.996 0 0 1-.71 1.7c-.26 0-.51-.1-.71-.29l-2.8-2.8Zm-2.46-1.27c1.43 0 2.6-1.17 2.6-2.6s-1.17-2.6-2.6-2.6-2.6 1.17-2.6 2.6 1.17 2.6 2.6 2.6"/>
</svg>
