<svg viewBox="0 0 64 64" xmlns="http://www.w3.org/2000/svg">
  <path d="m64.01 54.8-8.48 8.48c-.49.49-1.13.73-1.77.73s-1.28-.24-1.77-.73c-.98-.98-.98-2.56 0-3.53l2.44-2.44h-8.56c-7 0-12.73-5.7-12.76-12.7l-.03-7.31L27 31.22c-.98-.98-.98-2.56 0-3.53s2.56-.98 3.54 0l2.51 2.51-.04-8.66c-.02-4.26-3.5-7.72-7.76-7.72H20.1v-5h5.15c7 0 12.73 5.7 12.76 12.7l.04 8.53 2.37-2.37c.98-.98 2.56-.98 3.54 0s.98 2.56 0 3.53l-5.87 5.87.03 7.5c.02 4.26 3.5 7.72 7.76 7.72h8.55l-2.44-2.44c-.98-.98-.98-2.56 0-3.53s2.56-.98 3.54 0l8.48 8.48ZM5.94 8.91a4.87 4.87 0 0 0 3.14 1.13 5.03 5.03 0 0 0 4.63-3.07 5.06 5.06 0 0 0 0-3.9A5.03 5.03 0 0 0 8.07.1a5.02 5.02 0 0 0-4.01 4.92c0 1.23.46 2.34 1.19 3.21.21.25.43.47.68.67Zm6.38 3.45H5.84C2.62 12.36 0 14.98 0 18.19v4.27h18.16v-4.27c0-3.22-2.62-5.83-5.83-5.83Z"/>
</svg>
