<svg viewBox="0 0 16 16" xmlns="http://www.w3.org/2000/svg">
  <path d="m15.99 13.57-2.21 2.21c-.15.15-.34.22-.53.22s-.38-.07-.53-.22a.754.754 0 0 1 0-1.06l.4-.4h-1.27c-1.89 0-3.46-1.37-3.79-3.17h.05c.35 0 .69-.07 1.01-.17l.76.76a2.35 2.35 0 0 0 1.97 1.08h1.27l-.4-.4a.754.754 0 0 1 0-1.06c.29-.29.77-.29 1.06 0zM2.47 2.4c.66 0 1.2-.54 1.2-1.2S3.13 0 2.47 0s-1.2.54-1.2 1.2.54 1.2 1.2 1.2m.73.64H1.75C.78 3.04 0 3.82 0 4.79v.96h1.5v-.96c0-.14.11-.25.25-.25H3.2c.14 0 .25.11.25.25v.96h1.5v-.96c0-.96-.78-1.75-1.75-1.75m4.39 1.57c.17-.03.34-.05.52-.05.42 0 .82.09 1.19.23-.49-1.57-1.94-2.71-3.66-2.71h-.62v1.5h.62c.81 0 1.52.41 1.95 1.03m.53 5.8c-1.41 0-2.55-1.14-2.55-2.55s1.14-2.55 2.55-2.55 2.55 1.14 2.55 2.55c0 .43-.12.83-.3 1.18l1.27 1.27c.29.29.29.77 0 1.06-.15.15-.34.22-.53.22s-.38-.07-.53-.22L9.31 10.1a2.5 2.5 0 0 1-1.18.31Zm0-1.5a1.05 1.05 0 1 0 0-2.1 1.05 1.05 0 0 0 0 2.1"/>
</svg>
