<svg viewBox="0 0 40 40" xmlns="http://www.w3.org/2000/svg">
  <path d="M40 2.25v8.51c-2.95 0-5.34-2.41-5.34-5.38S37.06 0 40 0zM29.87 19.49v6.73h3.63L34.74 40H40V13.4h-4.08c-3.33 0-6.05 2.73-6.05 6.09M5.61 0h-.04v7.09l5.68-.03zM16.4 14.58c-.78.78-.79 2.04 0 2.83l1.23 1.25h-4.96V9.3H5.53c-1.21 0-2.2-.99-2.2-2.21V0H0v21.52h6.44v2.25H0v3.25h4.45v2.25H0V40h12.66V22.66h4.96l-1.23 1.25c-.78.78-.77 2.05 0 2.83.39.39.9.58 1.41.58s1.03-.2 1.42-.59l6.01-6.06-6.01-6.06c-.78-.78-2.04-.79-2.83 0Zm8.52-2.54h7.77v-4h-7.77l1.23-1.24c.78-.78.77-2.05 0-2.83-.78-.78-2.05-.77-2.83 0l-6.02 6.06 6.02 6.06c.39.39.9.59 1.42.59s1.02-.19 1.41-.58c.78-.78.79-2.04 0-2.83l-1.24-1.25Z"/>
</svg>
