<svg viewBox="0 0 16 16" xmlns="http://www.w3.org/2000/svg">
  <path d="m15.99 13.57-2.21 2.21c-.15.15-.34.22-.53.22s-.38-.07-.53-.22a.754.754 0 0 1 0-1.06l.4-.4h-1.27c-2.13 0-3.86-1.73-3.86-3.86V9.34L6.54 7.89a.754.754 0 0 1 0-1.06c.29-.29.77-.29 1.06 0l.39.39V5.93c0-1.3-1.06-2.36-2.36-2.36h-.62v-1.5h.62c2.13 0 3.86 1.73 3.86 3.86v1.3l.4-.4c.29-.29.77-.29 1.06 0s.29.77 0 1.06L9.49 9.35v1.11c0 1.3 1.06 2.36 2.36 2.36h1.27l-.4-.4a.754.754 0 0 1 0-1.06c.29-.29.77-.29 1.06 0zM2.47 2.4c.66 0 1.2-.54 1.2-1.2S3.13 0 2.47 0s-1.2.54-1.2 1.2.54 1.2 1.2 1.2m.73.64H1.75C.78 3.04 0 3.82 0 4.79v.96h1.5v-.96c0-.14.11-.25.25-.25H3.2c.14 0 .25.11.25.25v.96h1.5v-.96c0-.96-.78-1.75-1.75-1.75"/>
</svg>
