<svg viewBox="0 0 32 32" xmlns="http://www.w3.org/2000/svg">
  <path d="M27.6 8.8a4.4 4.4 0 1 0-4.4-4.4c0 2.43 1.98 4.4 4.4 4.4m0-6.8C28.93 2 30 3.08 30 4.4s-1.08 2.4-2.4 2.4-2.4-1.08-2.4-2.4S26.28 2 27.6 2m-6.73 13.54v5.48h3.01V32h8.1V10.57h-6.15c-2.74 0-4.97 2.23-4.97 4.97ZM29.98 30h-4.1V19.02h-3.01v-3.48a2.97 2.97 0 0 1 2.97-2.97h4.14zM8.22 8.75a4.37 4.37 0 0 0 4.36-4.19h1.03c.55 0 1-.45 1-1s-.45-1-1-1H12.2A4.37 4.37 0 0 0 8.22 0C5.81 0 3.84 1.96 3.84 4.37s1.97 4.38 4.38 4.38m0-2c-1.25 0-2.26-.97-2.36-2.19h4.72a2.375 2.375 0 0 1-2.36 2.19m1.53-4.19H6.7c.41-.35.94-.57 1.53-.57s1.11.22 1.53.57Zm1.74 8.08H4.95C2.23 10.64 0 12.85 0 15.58v5.45h2.92l.99 10.94h8.4l.99-10.94h3.12v-5.45a4.95 4.95 0 0 0-4.94-4.94Zm2.95 8.39h-2.95l-.99 10.94H5.75l-.99-10.94H2.02v-3.45c0-1.62 1.32-2.94 2.94-2.94h6.54c1.62 0 2.94 1.32 2.94 2.94zm-6.8-4.19h3.65v2H7.64z"/>
</svg>
