<svg viewBox="0 0 40 40" xmlns="http://www.w3.org/2000/svg">
  <path d="m40.02 33.8-5.61 5.61c-.39.39-.9.59-1.41.59s-1.02-.2-1.41-.59c-.78-.78-.78-2.05 0-2.83l.78-.78h-3.79c-4.63 0-8.4-3.77-8.4-8.41v-3.98l-3.6-3.6c-.78-.78-.78-2.05 0-2.83s2.05-.78 2.83 0l.77.77v-4.29c0-2.43-1.98-4.41-4.4-4.41h-3.19v-4h3.19c4.63 0 8.4 3.77 8.4 8.41v4.3l.79-.79c.78-.78 2.05-.78 2.83 0s.78 2.05 0 2.83l-3.61 3.62v3.97c0 2.43 1.98 4.41 4.4 4.41h3.79l-.78-.78c-.78-.78-.78-2.05 0-2.83s2.05-.78 2.83 0l5.61 5.61ZM3.06 5.18c.24.35.54.66.9.9.53.36 1.17.57 1.86.57s1.33-.21 1.86-.57c.35-.24.66-.54.9-.9.36-.53.57-1.17.57-1.86s-.21-1.33-.57-1.86a3.4 3.4 0 0 0-.9-.9A3.4 3.4 0 0 0 5.82 0c-.69 0-1.33.21-1.86.56-.35.24-.66.54-.9.9-.36.53-.57 1.17-.57 1.86s.21 1.33.57 1.86m4.72 2.91H3.85C1.74 8.09.02 9.81.02 11.92v2.6h11.6v-2.6c0-2.11-1.72-3.83-3.83-3.83Z"/>
</svg>
