<svg viewBox="0 0 16 16" xmlns="http://www.w3.org/2000/svg">
  <path d="M13.61 4.81c1.32 0 2.38-1.07 2.38-2.38S14.92.06 13.61.06s-2.38 1.07-2.38 2.38 1.07 2.38 2.38 2.38Zm0-3.26c.49 0 .88.4.88.88s-.4.88-.88.88-.88-.4-.88-.88.4-.88.88-.88m-.83 3.64c-1.46 0-2.66 1.19-2.66 2.65v2.9h1.45V16H16V5.19zm1.72 9.32h-1.43V9.25h-1.45v-1.4c0-.64.52-1.15 1.16-1.15h1.72v7.82ZM4.24 4.76c1.26 0 2.29-.99 2.37-2.23h.24c.41 0 .75-.34.75-.75s-.34-.75-.75-.75h-.64A2.42 2.42 0 0 0 4.24 0C2.92 0 1.85 1.07 1.85 2.38s1.07 2.38 2.38 2.38Zm0-1.5c-.44 0-.78-.32-.85-.73h1.7a.87.87 0 0 1-.85.73m1.58 1.88H2.66C1.19 5.14 0 6.33 0 7.79v2.9h1.43l.48 5.28h4.55l.48-5.28h1.53v-2.9c0-1.46-1.19-2.65-2.66-2.65Zm1.15 4.05h-1.4l-.48 5.28H3.28L2.8 9.19H1.5v-1.4c0-.64.52-1.15 1.16-1.15h3.16c.64 0 1.16.52 1.16 1.15v1.4ZM3.95 7.17h1.76v1.5H3.95z"/>
</svg>
