<svg viewBox="0 0 40 40" xmlns="http://www.w3.org/2000/svg">
  <path d="M29.17 5.38c0-2.98 2.43-5.41 5.41-5.41s5.41 2.43 5.41 5.41-2.43 5.41-5.41 5.41-5.41-2.43-5.41-5.41m-2.93 14.03v6.77h3.79V40h9.93V13.29h-7.6c-3.38 0-6.12 2.75-6.12 6.12m-5.85.05v6.73h-3.92l-1.25 13.78H4.9L3.65 26.19H-.01v-6.73c0-3.36 2.73-6.09 6.09-6.09h8.23c3.36 0 6.09 2.73 6.09 6.09Zm-6.34-.8H9.46v2.25h4.59zM3.94 6.29c0-3.45 2.8-6.25 6.25-6.25 2.35 0 4.41 1.31 5.47 3.23h1.31c1.1 0 2 .9 2 2s-.9 2-2 2h-.62c-.47 2.98-3.06 5.27-6.17 5.27-3.45 0-6.25-2.81-6.25-6.25Zm4.23.98c.37.75 1.13 1.27 2.02 1.27s1.65-.52 2.02-1.27z"/>
</svg>
