<svg viewBox="0 0 24 24" xmlns="http://www.w3.org/2000/svg">
  <path d="M20.6 6.77c1.87 0 3.38-1.52 3.38-3.38S22.47 0 20.6 0s-3.38 1.52-3.38 3.38 1.52 3.38 3.38 3.38Zm0-5.02a1.63 1.63 0 1 1 0 3.26 1.63 1.63 0 0 1 0-3.26M19.33 7.9c-2.1 0-3.8 1.7-3.8 3.8v4.18h2.22v8.1H24V7.9zm2.92 14.33H19.5v-8.1h-2.22V11.7c0-1.13.92-2.05 2.05-2.05h2.92v12.57ZM6.23 6.76c1.87 0 3.38-1.52 3.38-3.38v-.04h.62c.48 0 .88-.39.88-.88s-.39-.88-.88-.88H9.09C8.48.64 7.43 0 6.23 0 4.36 0 2.84 1.52 2.84 3.38s1.52 3.38 3.38 3.38Zm1.63-3.38a1.63 1.63 0 0 1-3.26 0c0-.04 0-.07.01-.11.1.04.21.07.32.07h2.93zm.79 4.52H3.8C1.7 7.9 0 9.6 0 11.7v4.18h2.17L2.91 24h6.48l.74-8.12h2.33V11.7c0-2.1-1.71-3.8-3.8-3.8Zm2.05 6.23H8.52l-.74 8.12H4.5l-.74-8.12H1.75V11.7c0-1.13.92-2.05 2.05-2.05h4.85c1.13 0 2.05.92 2.05 2.05zm-4.91-3.12H8.5v1.75H5.79z"/>
</svg>
