<svg viewBox="0 0 24 24" xmlns="http://www.w3.org/2000/svg">
  <path d="M0 19.04v-1.4 4.47c0 1.03.84 1.87 1.88 1.87h20.25c1.04 0 1.88-.84 1.88-1.87v-3.07zm14.69 2.42c0 .28-.22.5-.5.5H9.8c-.28 0-.5-.22-.5-.5v-1.03h5.39zm-1.78-4.16H1.61V5.24c0-.76.62-1.37 1.38-1.37H7.8v5.91c0 3.49 2.76 6.01 5.11 7.52m7.77 0c.57-.37 1.15-.79 1.7-1.26v1.26zm-4.94-8.55c0-.56.46-1.02 1.02-1.02s1.02.46 1.02 1.02-.46 1.02-1.02 1.02-1.02-.46-1.02-1.02m1.88-3.15H15.9v-.85c0-.47.39-.86.86-.86s.86.39.86.86zm-.86 11.75s7.21-2.78 7.21-7.58V-.01H9.55v9.79c0 4.79 7.21 7.58 7.21 7.58ZM12.99 5.6h1.16v-.85c0-1.44 1.17-2.61 2.61-2.61s2.61 1.17 2.61 2.61v.85h1.16v5.19c0 .76-.62 1.37-1.38 1.37h-4.79c-.76 0-1.38-.62-1.38-1.37V5.6Z"/>
</svg>
