<svg viewBox="0 0 64 64" xmlns="http://www.w3.org/2000/svg">
  <path d="M63.95 49.09H.04v11.49a3.38 3.38 0 0 0 3.37 3.38h57.25a3.38 3.38 0 0 0 3.37-3.38v-11.5h-.09Zm-23.2 8.94c0 1.04-.84 1.88-1.87 1.88H25.22c-1.03 0-1.87-.84-1.87-1.88v-4.88h17.41v4.88Zm15.09-14.12c1.98-1.43 3.69-2.93 5.15-4.48v6.92h-8.92a49 49 0 0 0 3.77-2.44m-18.96 2.44H4.02V13.29c0-1.04.84-1.88 1.87-1.88h16.36v15.11c0 9.45 8.39 16.15 14.63 19.83m10.93-30.16h-6.65v-2.16c0-1.84 1.49-3.33 3.32-3.33s3.32 1.49 3.32 3.33v2.16Zm-.82 7.56a2.5 2.5 0 0 1-5 0 2.5 2.5 0 0 1 5 0m-20.19 9.5c.74 1.36 1.68 2.63 2.72 3.8 5.76 6.46 14.97 10.02 14.97 10.02s19.49-7.55 19.49-20.56V-.03H25v26.55c0 1.63.3 3.17.84 4.62.27.73.59 1.43.96 2.11m8.49-17.06h3.13v-2.16c0-3.35 2.72-6.08 6.07-6.08s6.07 2.73 6.07 6.08v2.16h3.13v13.95c0 1.04-.84 1.88-1.87 1.88H37.16c-1.03 0-1.87-.84-1.87-1.88z"/>
</svg>
