<svg viewBox="0 0 48 48" xmlns="http://www.w3.org/2000/svg">
  <path d="M47.97 19.91V0H18.75v8.5H4.33c-.96 0-1.75.79-1.75 1.75v26.24H-.03v8.76C-.03 46.77 1.2 48 2.72 48h42.49c1.51 0 2.75-1.23 2.75-2.75v-8.76h-2.61v-9.61c1.56-2.01 2.63-4.34 2.63-6.97ZM21.25 2.5h24.22v17.41c0 6.07-8.04 10.9-12.11 12.7-4.07-1.81-12.11-6.63-12.11-12.7zM5.08 11.01h13.67v8.9c0 9.75 14.61 15.41 14.61 15.41s5.27-2.05 9.49-5.79v6.91H5.08zM19.77 39h8.39v2h-8.39zm25.69 6.25c0 .14-.11.25-.25.25H2.72c-.14 0-.25-.11-.25-.25V39h14.8v2.75c0 .97.78 1.75 1.75 1.75h9.89c.96 0 1.75-.79 1.75-1.75V39h14.8zm-17.47-21h10.74c.96 0 1.75-.79 1.75-1.75V11.95h-2.35v-1.03c0-2.64-2.14-4.78-4.77-4.78s-4.77 2.14-4.77 4.78v1.03h-2.35V22.5c0 .97.78 1.75 1.75 1.75m9.99-2.51h-9.24v-7.3h9.24zm-6.89-10.83c0-1.26 1.02-2.28 2.27-2.28s2.27 1.02 2.27 2.28v1.03h-4.55v-1.03Zm.53 6.92c0-.97.78-1.75 1.75-1.75s1.75.78 1.75 1.75-.78 1.75-1.75 1.75-1.75-.78-1.75-1.75"/>
</svg>
