<svg viewBox="0 0 40 40" xmlns="http://www.w3.org/2000/svg">
  <path d="M.06 30.24v-.07H.01v7.67c0 1.17.95 2.12 2.12 2.12h35.75c1.17 0 2.12-.95 2.12-2.12v-7.6zm25.59 4.44c0 .9-.73 1.62-1.62 1.62h-8.04c-.9 0-1.62-.73-1.62-1.62v-2.62h11.28zm9.56-6.87c.98-.7 1.85-1.43 2.63-2.19v2.37h-2.89c.09-.06.18-.12.26-.18m-14.54.18H2.18V8.66c0-.9.73-1.62 1.62-1.62h9.58v9.49c0 5.1 3.73 8.95 7.3 11.46Zm8.95-18.17h-3.63V8.65a1.81 1.81 0 1 1 3.62 0v1.17ZM18.92 23.6l.03.03c.34.35.7.69 1.07 1.01.18.16.37.32.56.47.37.31.76.6 1.14.87.19.14.38.27.57.4.45.31.89.59 1.33.85q.45.27.87.51a34 34 0 0 0 1.84.96c.52.25.93.43 1.19.54.19.08.3.12.3.12s.11-.04.3-.12c.26-.11.67-.29 1.19-.54s1.15-.57 1.84-.95c.34-.19.7-.4 1.07-.63.55-.34 1.12-.71 1.69-1.12q.57-.405 1.14-.87c.19-.15.37-.31.56-.47 2.39-2.08 4.4-4.82 4.4-8.12V-.03H15.63v16.56c0 2.32 1 4.36 2.42 6.09.28.34.57.67.88.98Zm2.87-13.78h1.96V8.65c0-2.24 1.82-4.06 4.06-4.06s4.06 1.82 4.06 4.06v1.17h1.96v8.78c0 .9-.73 1.62-1.62 1.62h-8.79c-.9 0-1.62-.73-1.62-1.62V9.82Zm7.52 4.98c0 .83-.67 1.5-1.5 1.5s-1.5-.67-1.5-1.5.67-1.5 1.5-1.5 1.5.67 1.5 1.5"/>
</svg>
