<svg viewBox="0 0 48 48" xmlns="http://www.w3.org/2000/svg">
  <path d="M47.98 36.47H.01v8.76c0 1.52 1.23 2.75 2.75 2.75h42.51c1.51 0 2.75-1.24 2.75-2.75v-8.76h-.03Zm-17.27 5.25c0 .97-.78 1.75-1.75 1.75h-9.89c-.96 0-1.75-.79-1.75-1.75v-3.76h13.39zm11.42-8.41c1.22-.88 2.31-1.8 3.27-2.74v3.4h-4.21c.33-.22.65-.44.95-.65Zm-16.59.66H2.62V10.21c0-.97.78-1.75 1.75-1.75h11.88v11.45c0 6.36 4.88 11.08 9.29 14.06m9.57-16.14c0 .97-.78 1.75-1.75 1.75s-1.75-.78-1.75-1.75.78-1.75 1.75-1.75 1.75.78 1.75 1.75m.53-5.89h-4.55v-1.53c0-1.26 1.02-2.28 2.27-2.28s2.27 1.02 2.27 2.28v1.53Zm-2.27 23.39s14.61-5.66 14.61-15.42V-.02H18.75V19.9c0 9.76 14.61 15.42 14.61 15.42Zm-7.12-23.39h2.35v-1.53c0-2.64 2.14-4.78 4.77-4.78s4.77 2.15 4.77 4.78v1.53h2.35V22.5c0 .97-.78 1.75-1.75 1.75H28c-.96 0-1.75-.79-1.75-1.75z"/>
</svg>
