<svg viewBox="0 0 40 40" xmlns="http://www.w3.org/2000/svg">
  <path d="M9.25-.02H2c-1.1 0-2 .9-2 2v7.25c0 1.1.9 2 2 2h7.25c1.1 0 2-.9 2-2V1.98c0-1.1-.9-2-2-2m-.25 9H2.25V2.23H9zm14.62-9h-7.25c-1.1 0-2 .9-2 2v7.25c0 1.1.9 2 2 2h7.25c1.1 0 2-.9 2-2V1.98a2 2 0 0 0-2-2m-.24 9h-6.75V2.23h6.75zM38-.02h-7.25c-1.1 0-2 .9-2 2v7.25c0 1.1.9 2 2 2H38c1.1 0 2-.9 2-2V1.98c0-1.1-.9-2-2-2m-.25 9H31V2.23h6.75zM9.25 28.73H2c-1.1 0-2 .9-2 2v7.25c0 1.1.9 2 2 2h7.25c1.1 0 2-.9 2-2v-7.25c0-1.1-.9-2-2-2m-.25 9H2.25v-6.75H9zm14.62-9h-7.25c-1.1 0-2 .9-2 2v7.25c0 1.1.9 2 2 2h7.25c1.1 0 2-.9 2-2v-7.25c0-1.1-.9-2-2-2m-.24 9h-6.75v-6.75h6.75zm14.62-9h-7.25c-1.1 0-2 .9-2 2v7.25c0 1.1.9 2 2 2H38c1.1 0 2-.9 2-2v-7.25c0-1.1-.9-2-2-2m-.25 9H31v-6.75h6.75zM9.25 14.32H2c-1.1 0-2 .9-2 2v7.25c0 1.1.9 2 2 2h7.25c1.1 0 2-.9 2-2v-7.25c0-1.1-.9-2-2-2m-.25 9H2.25v-6.75H9zm14.62-9h-7.25c-1.1 0-2 .9-2 2v7.25c0 1.1.9 2 2 2h7.25c1.1 0 2-.9 2-2v-7.25c0-1.1-.9-2-2-2m-.24 9h-6.75v-6.75h6.75zm14.62-9h-7.25c-1.1 0-2 .9-2 2v7.25c0 1.1.9 2 2 2H38c1.1 0 2-.9 2-2v-7.25c0-1.1-.9-2-2-2m-.25 9H31v-6.75h6.75z"/>
</svg>
