<svg viewBox="0 0 48 48" xmlns="http://www.w3.org/2000/svg">
  <path d="M11 0H2.5A2.5 2.5 0 0 0 0 2.5V11a2.5 2.5 0 0 0 2.5 2.5H11a2.5 2.5 0 0 0 2.5-2.5V2.5A2.5 2.5 0 0 0 11 0m0 11H2.5V2.5H11zM28.25 0h-8.5a2.5 2.5 0 0 0-2.5 2.5V11a2.5 2.5 0 0 0 2.5 2.5h8.5a2.5 2.5 0 0 0 2.5-2.5V2.5a2.5 2.5 0 0 0-2.5-2.5m0 11h-8.5V2.5h8.5zM45.5 0H37a2.5 2.5 0 0 0-2.5 2.5V11a2.5 2.5 0 0 0 2.5 2.5h8.5A2.5 2.5 0 0 0 48 11V2.5A2.5 2.5 0 0 0 45.5 0m0 11H37V2.5h8.5zm-34 23.49H2c-1.1 0-2 .9-2 2v9.5c0 1.1.9 2 2 2h9.5c1.1 0 2-.9 2-2v-9.5c0-1.1-.9-2-2-2M11 45.5H2.5V37H11zm17.75-11.01h-9.5c-1.1 0-2 .9-2 2v9.5c0 1.1.9 2 2 2h9.5c1.1 0 2-.9 2-2v-9.5c0-1.1-.9-2-2-2m-.5 11.01h-8.5V37h8.5zM46 34.49h-9.5c-1.1 0-2 .9-2 2v9.5c0 1.1.9 2 2 2H46c1.1 0 2-.9 2-2v-9.5c0-1.1-.9-2-2-2m-.5 11.01H37V37h8.5zm-34-28.3H2c-1.1 0-2 .9-2 2v9.5c0 1.1.9 2 2 2h9.5c1.1 0 2-.9 2-2v-9.5c0-1.1-.9-2-2-2m-.5 11H2.5v-8.5H11zm17.75-11h-9.5c-1.1 0-2 .9-2 2v9.5c0 1.1.9 2 2 2h9.5c1.1 0 2-.9 2-2v-9.5c0-1.1-.9-2-2-2m-.5 11h-8.5v-8.5h8.5zM46 17.2h-9.5c-1.1 0-2 .9-2 2v9.5c0 1.1.9 2 2 2H46c1.1 0 2-.9 2-2v-9.5c0-1.1-.9-2-2-2m-.5 11H37v-8.5h8.5z"/>
</svg>
