<svg viewBox="0 0 64 64" xmlns="http://www.w3.org/2000/svg">
  <path d="M63.99 0H0v63.98h63.99zM49.7 61.24h-9.94v-8.66h9.94zm-12.7 0h-9.93V45.78H37zM24.32 44.62v16.62h-9.93V37.31h9.94v7.31Zm36.92 16.62h-8.8v-9.78c0-.9-.73-1.62-1.62-1.62H39.75v-5.17c0-.9-.73-1.62-1.62-1.62H27.07V36.2c0-.9-.73-1.62-1.62-1.62H13.26c-.9 0-1.62.73-1.62 1.62v25.06h-8.9V2.75h58.5v58.48Zm-17.33-27.8c7.64 0 13.84-6.2 13.84-13.84S51.55 5.76 43.91 5.76s-13.84 6.2-13.84 13.84 6.2 13.84 13.84 13.84M55 19.6c0 6.11-4.98 11.09-11.09 11.09-5.35 0-9.83-3.81-10.87-8.87h13.21V8.76c4.99 1.08 8.74 5.53 8.74 10.83ZM43.5 8.53v10.54H32.84c.27-5.74 4.91-10.34 10.66-10.54m-19.59 5.04H10.97v-2.75h12.94zm0 7.3H10.97v-2.75h12.94zm-4.83 7.25h-8.11v-2.75h8.11z"/>
</svg>
