<svg viewBox="0 0 48 48" xmlns="http://www.w3.org/2000/svg">
  <path d="M13.5 2.5V11a2.45 2.45 0 0 1-.43 1.39c-.45.67-1.21 1.1-2.07 1.1H2.5a2.45 2.45 0 0 1-1.39-.43c-.27-.18-.5-.41-.68-.68s-.31-.57-.38-.89C.02 11.34 0 11.17 0 11V2.5C0 1.63.44.87 1.1.42c.27-.18.57-.31.9-.37.16-.03.33-.05.5-.05H11a2.5 2.5 0 0 1 2.5 2.5M28.25 0h-8.5a2.45 2.45 0 0 0-1.39.43c-.67.45-1.1 1.21-1.1 2.07V11a2.45 2.45 0 0 0 .43 1.39c.18.27.41.5.68.68s.57.31.89.38c.16.03.33.05.5.05h8.5a2.51 2.51 0 0 0 2.5-2.49V2.5A2.516 2.516 0 0 0 28.25 0M45.5 0H37a2.45 2.45 0 0 0-1.39.43c-.67.45-1.1 1.21-1.1 2.07V11a2.45 2.45 0 0 0 .43 1.39c.18.27.41.5.68.68s.57.31.89.38c.16.03.33.05.5.05h8.5a2.51 2.51 0 0 0 2.5-2.49V2.5A2.516 2.516 0 0 0 45.5 0m-34 34.49H2c-1.1 0-2 .9-2 2v9.5C0 47.1.9 48 2 48h9.5c1.1 0 2-.9 2-2v-9.5c0-1.1-.9-2-2-2Zm17.25 0h-9.5c-1.1 0-2 .9-2 2v9.5c0 1.1.9 2 2 2h9.5c1.1 0 2-.9 2-2v-9.5c0-1.1-.9-2-2-2m17.25 0h-9.5c-1.1 0-2 .9-2 2v9.5c0 1.1.9 2 2 2H46c1.1 0 2-.9 2-2v-9.5c0-1.1-.9-2-2-2M11.5 17.2H2c-1.1 0-2 .9-2 2v9.5a2 2 0 0 0 2 2h9.5c1.1 0 2-.9 2-2v-9.5c0-1.1-.9-2-2-2m17.25 0h-9.5c-1.1 0-2 .9-2 2v9.5c0 1.1.9 2 2 2h9.5c1.1 0 2-.9 2-2v-9.5c0-1.1-.9-2-2-2m17.25 0h-9.5c-1.1 0-2 .9-2 2v9.5c0 1.1.9 2 2 2H46c1.1 0 2-.9 2-2v-9.5c0-1.1-.9-2-2-2"/>
</svg>
