<svg viewBox="0 0 40 40" xmlns="http://www.w3.org/2000/svg">
  <path d="M11.25 1.98v7.25c0 1.1-.9 2-2 2H2c-1.1 0-2-.9-2-2V1.98c0-1.1.9-2 2-2h7.25c1.1 0 2 .9 2 2m12.37-2h-7.25c-1.1 0-2 .9-2 2v7.25c0 1.1.9 2 2 2h7.25c1.1 0 2-.9 2-2V1.98a2 2 0 0 0-2-2M38-.02h-7.25c-1.1 0-2 .9-2 2v7.25c0 1.1.9 2 2 2H38c1.1 0 2-.9 2-2V1.98c0-1.1-.9-2-2-2M9.25 28.73H2c-1.1 0-2 .9-2 2v7.25c0 1.1.9 2 2 2h7.25c1.1 0 2-.9 2-2v-7.25c0-1.1-.9-2-2-2m14.37 0h-7.25c-1.1 0-2 .9-2 2v7.25c0 1.1.9 2 2 2h7.25c1.1 0 2-.9 2-2v-7.25c0-1.1-.9-2-2-2m14.38 0h-7.25c-1.1 0-2 .9-2 2v7.25c0 1.1.9 2 2 2H38c1.1 0 2-.9 2-2v-7.25c0-1.1-.9-2-2-2M10.37 14.66c-.32-.22-.7-.34-1.12-.34H2c-.41 0-.8.13-1.12.34-.21.14-.4.33-.54.54-.22.32-.34.7-.34 1.12v7.25c0 1.1.9 2 2 2h7.25c1.1 0 2-.9 2-2v-7.25c0-.41-.13-.8-.34-1.12-.14-.21-.33-.4-.54-.54m14.37 0c-.32-.22-.7-.34-1.12-.34h-7.25c-.41 0-.8.13-1.12.34-.21.14-.4.33-.54.54-.22.32-.34.7-.34 1.12v7.25c0 1.1.9 2 2 2h7.25c1.1 0 2-.9 2-2v-7.25c0-.41-.13-.8-.34-1.12-.14-.21-.33-.4-.54-.54m14.38 0c-.32-.22-.7-.34-1.12-.34h-7.25c-.41 0-.8.13-1.12.34-.21.14-.4.33-.54.54-.22.32-.34.7-.34 1.12v7.25c0 1.1.9 2 2 2H38c1.1 0 2-.9 2-2v-7.25c0-.41-.13-.8-.34-1.12-.14-.21-.33-.4-.54-.54"/>
</svg>
