<svg viewBox="0 0 64 64" xmlns="http://www.w3.org/2000/svg">
  <path d="M17.95 1.9c.03.16.05.33.05.5v13a2.5 2.5 0 0 1-2.5 2.5h-13a2.45 2.45 0 0 1-1.39-.43c-.67-.45-1.1-1.21-1.1-2.07V2.41a2.45 2.45 0 0 1 .43-1.39c.18-.27.41-.5.68-.68.25-.18.55-.31.88-.38.16-.03.33-.05.5-.05h13a2.51 2.51 0 0 1 2.45 1.99m22.62-.89c-.45-.67-1.21-1.1-2.07-1.1h-13a2.45 2.45 0 0 0-1.39.43c-.27.18-.5.41-.68.68s-.31.57-.38.89c-.03.16-.05.33-.05.5v13a2.51 2.51 0 0 0 2.49 2.5h13a2.5 2.5 0 0 0 2.5-2.5v-13a2.45 2.45 0 0 0-.43-1.39Zm23.38.89c-.07-.33-.2-.63-.38-.89-.45-.67-1.21-1.1-2.07-1.1h-13a2.45 2.45 0 0 0-1.39.43c-.27.18-.5.41-.68.68s-.31.57-.38.89c-.03.16-.05.33-.05.5v13a2.51 2.51 0 0 0 2.49 2.5h13a2.5 2.5 0 0 0 2.5-2.5v-13c0-.17-.02-.34-.05-.5ZM16 45.9H2c-1.1 0-2 .9-2 2v14c0 1.1.9 2 2 2h14c1.1 0 2-.9 2-2v-14c0-1.1-.9-2-2-2m23 0H25c-1.1 0-2 .9-2 2v14c0 1.1.9 2 2 2h14c1.1 0 2-.9 2-2v-14c0-1.1-.9-2-2-2m23 0H48c-1.1 0-2 .9-2 2v14c0 1.1.9 2 2 2h14c1.1 0 2-.9 2-2v-14c0-1.1-.9-2-2-2M16 22.85H2c-1.1 0-2 .9-2 2v14c0 1.1.9 2 2 2h14c1.1 0 2-.9 2-2v-14c0-1.1-.9-2-2-2m23 0H25c-1.1 0-2 .9-2 2v14c0 1.1.9 2 2 2h14c1.1 0 2-.9 2-2v-14c0-1.1-.9-2-2-2m23 0H48c-1.1 0-2 .9-2 2v14c0 1.1.9 2 2 2h14c1.1 0 2-.9 2-2v-14c0-1.1-.9-2-2-2"/>
</svg>
