<svg viewBox="0 0 48 48" xmlns="http://www.w3.org/2000/svg">
  <path d="M18.07 34.26v13.71h-6.92V28.18h6.92zM30 40.94v7.04h6.92v-7.04zm-9.43-5.68v12.71h6.92V35.26zM32.32 7.05a7.78 7.78 0 0 0-7.22 7.14h7.22zm2.5.23v9.4H25.3c.84 3.38 3.9 5.9 7.54 5.9 4.29 0 7.78-3.49 7.78-7.78 0-3.61-2.47-6.64-5.81-7.52ZM48 0v47.99h-8.57v-8.06c0-.83-.67-1.5-1.5-1.5H30v-4.18c0-.83-.67-1.5-1.5-1.5h-7.92v-5.58c0-.83-.67-1.5-1.5-1.5h-8.92c-.83 0-1.5.67-1.5 1.5v20.82H0V.01h47.99ZM14.41 18.86H8.38v2.5h6.03zm3.58-5.39H8.38v2.5h9.61zm0-5.42H8.38v2.5h9.61zm25.14 6.75c0-5.68-4.6-10.28-10.28-10.28S22.57 9.12 22.57 14.8s4.6 10.28 10.28 10.28 10.28-4.6 10.28-10.28"/>
</svg>
