<svg viewBox="0 0 24 24" xmlns="http://www.w3.org/2000/svg">
  <path d="M6.75.98v4.75c0 .55-.45 1-1 1H1c-.55 0-1-.45-1-1V.98c0-.55.45-1 1-1h4.75c.55 0 1 .45 1 1m7.63-1H9.63c-.55 0-1 .45-1 1v4.75c0 .55.45 1 1 1h4.75c.55 0 1-.45 1-1V.98c0-.55-.45-1-1-1m8.62 0h-4.75c-.55 0-1 .45-1 1v4.75c0 .55.45 1 1 1H23c.55 0 1-.45 1-1V.98c0-.55-.45-1-1-1M5.75 8.59H1c-.55 0-1 .45-1 1v4.75c0 .55.45 1 1 1h4.75c.55 0 1-.45 1-1V9.59c0-.55-.45-1-1-1m8.63 0H9.63c-.55 0-1 .45-1 1v4.75c0 .55.45 1 1 1h4.75c.55 0 1-.45 1-1V9.59c0-.55-.45-1-1-1m8.62 0h-4.75c-.55 0-1 .45-1 1v4.75c0 .55.45 1 1 1H23c.55 0 1-.45 1-1V9.59c0-.55-.45-1-1-1M5.75 17.23H1c-.55 0-1 .45-1 1v4.75c0 .55.45 1 1 1h4.75c.55 0 1-.45 1-1v-4.75c0-.55-.45-1-1-1m8.63 0H9.63c-.55 0-1 .45-1 1v4.75c0 .55.45 1 1 1h4.75c.55 0 1-.45 1-1v-4.75c0-.55-.45-1-1-1m8.62 0h-4.75c-.55 0-1 .45-1 1v4.75c0 .55.45 1 1 1H23c.55 0 1-.45 1-1v-4.75c0-.55-.45-1-1-1"/>
</svg>
