<svg viewBox="0 0 48 48" xmlns="http://www.w3.org/2000/svg">
  <path d="M48 .01H0V48h48zM36.92 45.5H30v-5.98h6.92zm-9.43 0h-6.92V34.47h6.92zm-9.42-12.05v12.06h-6.92V28.19h6.92v5.27ZM45.5 45.5h-6.08v-6.98c0-.83-.67-1.5-1.5-1.5h-7.93v-3.55c0-.83-.67-1.5-1.5-1.5h-7.92v-4.8c0-.83-.67-1.5-1.5-1.5h-8.92c-.83 0-1.5.67-1.5 1.5v18.32H2.5V2.51h43zM32.85 25.08c5.68 0 10.28-4.6 10.28-10.28S38.53 4.52 32.85 4.52 22.57 9.12 22.57 14.8s4.6 10.28 10.28 10.28m7.78-10.28c0 4.29-3.49 7.78-7.78 7.78-3.64 0-6.7-2.52-7.54-5.9h9.51v-9.4c3.34.88 5.81 3.91 5.81 7.52m-8.31-7.75v7.13H25.1c.3-3.83 3.38-6.88 7.22-7.13m-14.33 3.5H8.38v-2.5h9.61zm0 5.42H8.38v-2.5h9.61zm-3.58 5.39H8.38v-2.5h6.03z"/>
</svg>
