<svg viewBox="0 0 16 16" xmlns="http://www.w3.org/2000/svg">
  <path d="M10.28 14.18h1.51V16h-1.51zm-3.04-2.06V16h1.5v-3.88zm-1.5-.53V9.62H4.23V16h1.5v-4.41Zm4.55-8.21c-.55.17-.99.6-1.17 1.15h1.17zM16 0v16h-2.7v-2.32c0-.55-.45-1-1-1h-2.05v-1.06c0-.55-.45-1-1-1h-2v-1.5c0-.55-.45-1-1-1H3.74c-.55 0-1 .45-1 1v6.89H0V0zM6.06 5.53H2.99v1.5h3.07zm0-2.96H2.99v1.5h3.07zm8.03 2.51c0-1.81-1.47-3.28-3.28-3.28S7.53 3.27 7.53 5.08 9 8.36 10.81 8.36s3.28-1.47 3.28-3.28m-2.3-1.49v2.44H9.3c.32.5.87.83 1.5.83.98 0 1.78-.8 1.78-1.78 0-.62-.32-1.17-.8-1.49Z"/>
</svg>
