<svg viewBox="0 0 24 24" xmlns="http://www.w3.org/2000/svg">
  <path d="M24 8.18a3.26 3.26 0 0 0-6.52 0 3.26 3.26 0 0 0 2.46 3.15v6.04h-2.53v-2.34c0-1.62-2.15-2.51-4.52-2.69V6.38c1.37-.39 2.38-1.64 2.38-3.13 0-1.79-1.46-3.25-3.25-3.25S8.76 1.46 8.76 3.26c0 1.49 1.01 2.74 2.38 3.13v5.96c-2.38.18-4.52 1.07-4.52 2.69v2.34H4.06v-6.04a3.26 3.26 0 0 0 2.46-3.15c0-1.8-1.46-3.26-3.26-3.26S0 6.38 0 8.18c0 1.47.98 2.7 2.32 3.11v7.83h4.31v2.11c0 1.81 2.71 2.76 5.39 2.76s5.4-.95 5.4-2.76v-2.11h4.28v-7.83a3.26 3.26 0 0 0 2.31-3.11Zm-22.25 0c0-.83.68-1.51 1.51-1.51s1.51.68 1.51 1.51-.68 1.51-1.51 1.51-1.51-.68-1.51-1.51m6.62 9.93v-.99c1.01.45 2.33.68 3.65.68s2.64-.23 3.65-.68v1.03c-.09.28-1.34 1.02-3.65 1.02s-3.57-.74-3.65-1.01zm2.14-14.85c0-.83.68-1.51 1.51-1.51s1.51.68 1.51 1.51-.68 1.51-1.51 1.51-1.51-.68-1.51-1.51m1.51 10.76q.435 0 .81.03c.08 0 .15.02.22.03.17.02.34.03.49.06.09.01.16.03.24.05.13.03.26.05.37.08.08.02.14.04.21.06.1.03.21.06.3.09.07.02.12.05.18.07.08.03.16.06.23.1.06.03.1.05.14.08.05.03.12.06.16.09s.07.05.1.08.07.05.1.08c.02.02.03.04.05.06s.04.04.04.06c-.13.29-1.37 1.01-3.64 1.01s-3.57-.74-3.65-1c.08-.28 1.33-1.03 3.65-1.03m0 8.23c-2.32 0-3.57-.74-3.65-1.01v-.99c1.01.45 2.33.68 3.65.68s2.64-.23 3.65-.68v.98c-.08.28-1.34 1.03-3.65 1.03ZM20.75 9.7c-.83 0-1.51-.68-1.51-1.51s.68-1.51 1.51-1.51 1.51.68 1.51 1.51-.68 1.51-1.51 1.51"/>
</svg>
