<svg viewBox="0 0 32 32" xmlns="http://www.w3.org/2000/svg">
  <path d="M30.31 23.96v-8.15l1.65-2.87-1.65-1.76v-.78a7.7 7.7 0 0 0 0-1.33v-.73l1.68-1.78-1.96-3.39-2.5.59c-.66-.54-1.42-.98-2.25-1.29l-.75-2.49h-3.91l-.75 2.51c-.81.3-1.56.73-2.22 1.26l-2.55-.6-1.38 2.4H3.26c-.83 0-1.5.67-1.5 1.5v16.92H.03v6.51c0 .83.67 1.5 1.5 1.5h29c.83 0 1.5-.67 1.5-1.5v-6.51h-1.72Zm-16.87 2.01h5.18v1h-5.18zm3.54-14.9c-.12-.49-.17-.92-.17-1.33s.06-.86.19-1.37l.13-.53-1.5-1.6.47-.81 2.13.5.39-.37a5.8 5.8 0 0 1 2.35-1.34l.52-.15.63-2.1h.93l.63 2.1.52.15c.91.27 1.73.74 2.37 1.36l.39.38 2.08-.49.47.81-1.48 1.57.13.53c.12.51.18.94.18 1.36s-.06.87-.19 1.4l-.13.53 1.47 1.56-.47.81-2.09-.49-.39.37c-.66.62-1.48 1.09-2.39 1.35l-.53.15L23 17.5h-.94l-.63-2.1-.51-.16c-.9-.27-1.71-.74-2.35-1.36l-.39-.38-2.11.5-.47-.81 1.5-1.6zM3.76 7.55H14.1l.84.89c-.08.46-.13.89-.13 1.31s.04.81.11 1.25l-1.8 1.91 1.95 3.39 2.52-.6c.65.54 1.41.98 2.22 1.28l.76 2.52h3.91l.74-2.48c.83-.3 1.6-.74 2.27-1.28l.81.19v8.02H3.76zm26.27 22.42h-28v-4.01h9.41v1.5c0 .83.67 1.5 1.5 1.5h6.18c.83 0 1.5-.67 1.5-1.5v-1.5h9.41zm-7.45-16.51c2.04 0 3.71-1.67 3.71-3.71s-1.66-3.71-3.71-3.71-3.71 1.67-3.71 3.71 1.66 3.71 3.71 3.71m0-5.42c.94 0 1.71.77 1.71 1.71s-.77 1.71-1.71 1.71-1.71-.77-1.71-1.71.77-1.71 1.71-1.71"/>
</svg>
