<svg viewBox="0 0 16 16" xmlns="http://www.w3.org/2000/svg">
  <path d="M14.99 11.44H1V3.75c0-.69.56-1.25 1.25-1.25h3.73l-.02.03-.37.64.51.54.57.61c-.03.2-.04.4-.04.59s.01.37.04.56l-.58.61-.51.54.37.64.68 1.18.37.64.72-.17.8-.19c.3.23.64.42.99.57l.24.81.21.71h2.84l.21-.71.24-.79c.36-.15.71-.34 1.02-.57l.71.17v2.52ZM0 12.94h15.99v1.82c0 .69-.56 1.25-1.25 1.25H1.25C.56 16 0 15.44 0 14.75v-1.82Zm6.24 1.08c0 .28.22.5.5.5h2.51c.28 0 .5-.22.5-.5v-.5H6.24zm8.85-8.19.9.96-.68 1.18-1.28-.3c-.22.21-.46.39-.73.54-.26.15-.55.27-.85.35l-.38 1.27h-1.36l-.39-1.29c-.59-.18-1.12-.48-1.55-.89l-1.29.3-.68-1.18.92-.98c-.07-.28-.11-.57-.11-.87s.05-.61.12-.9l-.92-.98.68-1.18 1.31.31c.43-.41.96-.71 1.54-.88l.4-1.29h1.36l.39 1.28c.59.17 1.13.48 1.56.89l1.28-.3.68 1.18-.9.96c.07.29.12.59.12.9s-.05.62-.12.92Zm-1.91-.91c0-.97-.79-1.75-1.75-1.75s-1.75.79-1.75 1.75.79 1.75 1.75 1.75 1.75-.79 1.75-1.75"/>
</svg>
