<svg viewBox="0 0 64 64" xmlns="http://www.w3.org/2000/svg">
  <path d="M60.98 49.13V31.49l2.93-5.09-2.93-3.12v-7.19l2.98-3.17-3.54-6.15-5.04 1.19a15.5 15.5 0 0 0-5.08-2.91L48.77 0h-7.09l-1.52 5.06c-1.86.64-3.57 1.62-5.01 2.86L30 6.7l-2.76 4.78H5.89c-1.03 0-1.87.84-1.87 1.88v35.78H.03v11.49a3.38 3.38 0 0 0 3.37 3.38h57.26c1.86 0 3.37-1.51 3.37-3.38V49.14h-3.05Zm-34.9 2.75h11.91v3.17H26.08zm5.27-42.04 4.59 1.08.54-.51c1.42-1.35 3.21-2.37 5.18-2.95l.71-.21 1.36-4.51h3l1.36 4.51.71.21c2 .59 3.81 1.62 5.24 3l.54.52 4.48-1.06 1.5 2.6-3.17 3.38.18.72c.27 1.1.4 2.09.4 3.01s-.13 1.93-.42 3.08l-.18.73 3.16 3.36-1.5 2.6-4.5-1.06-.54.51c-1.45 1.37-3.27 2.4-5.27 2.97l-.72.21-1.34 4.47h-3l-1.36-4.52-.71-.21c-1.99-.6-3.78-1.64-5.18-3l-.54-.52-4.54 1.07-1.5-2.6 3.23-3.44-.17-.72c-.25-1.07-.37-2.03-.37-2.93s.13-1.9.41-3.03l.18-.73-3.23-3.43 1.5-2.6ZM6.76 14.23h20.99l2.31 2.46c-.21 1.05-.32 2.01-.32 2.94s.09 1.83.29 2.83l-3.63 3.86 3.54 6.15 5.09-1.2c1.44 1.25 3.15 2.24 5.02 2.9l1.53 5.08h7.09l1.5-5.01c1.89-.64 3.64-1.63 5.12-2.89l2.93.69v17H6.76zm54.53 46.39c0 .34-.28.63-.62.63H3.41c-.34 0-.62-.28-.62-.63v-8.74h20.55v4.04c0 1.03.84 1.88 1.87 1.88h13.66c1.03 0 1.87-.84 1.87-1.88v-4.04h20.55zM45.23 26.65c3.87 0 7.02-3.15 7.02-7.02s-3.15-7.02-7.02-7.02-7.02 3.15-7.02 7.02 3.15 7.02 7.02 7.02m0-11.29c2.35 0 4.27 1.92 4.27 4.27s-1.91 4.27-4.27 4.27-4.27-1.92-4.27-4.27 1.92-4.27 4.27-4.27"/>
</svg>
