<svg viewBox="0 0 32 32" xmlns="http://www.w3.org/2000/svg">
  <path d="M-.06 30.49c0 .83.67 1.5 1.5 1.5h28.98c.83 0 1.5-.67 1.5-1.5v-4.88H-.06zm12.4-3.14h7.18v2c0 .28-.22.5-.5.5h-6.18c-.28 0-.5-.22-.5-.5zm17.85-3.73H1.66V7.1c0-.83.67-1.5 1.5-1.5h9.65l-.32.56 1.97 2.1c-.1.52-.15 1.01-.15 1.49s.04.93.13 1.43l-1.98 2.11 2.09 3.62 2.78-.66c.74.62 1.6 1.12 2.54 1.47l.83 2.77h4.18l.82-2.73c.95-.34 1.83-.83 2.59-1.46l1.91.45v6.87ZM15.31 9.75c0 .6.09 1.17.22 1.73l-1.83 1.95 1.35 2.34 2.57-.6c.85.82 1.9 1.42 3.07 1.77l.77 2.56h2.69l.76-2.52c1.18-.34 2.25-.94 3.12-1.76l2.55.6 1.35-2.34-1.78-1.9c.15-.59.25-1.19.25-1.82s-.09-1.21-.23-1.78l1.8-1.91-1.35-2.34-2.54.6a7.4 7.4 0 0 0-3.1-1.77L24.19 0H21.5l-.77 2.55c-1.16.34-2.21.93-3.06 1.75l-2.6-.61-1.35 2.34 1.82 1.94c-.14.58-.24 1.17-.24 1.79Zm7.53-3.02c1.66 0 3.01 1.35 3.01 3.02s-1.35 3.02-3.01 3.02-3.01-1.35-3.01-3.02 1.35-3.02 3.01-3.02"/>
</svg>
