<svg viewBox="0 0 40 40" xmlns="http://www.w3.org/2000/svg">
  <path d="M37.87 30.17v-10.1l2.08-3.61-2.08-2.21v-1.08c.03-.28.04-.55.04-.83s-.01-.55-.04-.84v-1l2.11-2.24-2.39-4.14-3.16.75c-.86-.73-1.87-1.3-2.97-1.7L30.5-.01h-4.77l-.95 3.18a9.9 9.9 0 0 0-2.93 1.67l-3.23-.76-1.69 2.93H3.82c-.9 0-1.62.73-1.62 1.63v21.55H.03v7.69c0 1.17.95 2.13 2.12 2.13H37.9c1.17 0 2.12-.95 2.12-2.13v-7.69h-2.17Zm-21.23 2.25h6.79v1.53h-6.79zm4.16-18.34c-.15-.64-.22-1.2-.22-1.74s.08-1.13.24-1.79l.15-.59-1.94-2.07.71-1.24 2.76.65.44-.42c.84-.8 1.9-1.4 3.07-1.75l.58-.17.82-2.72h1.43l.82 2.72.58.17c1.19.35 2.26.96 3.1 1.77l.44.43 2.7-.64.71 1.24-1.91 2.03.14.59c.16.67.24 1.23.24 1.78s-.08 1.14-.25 1.83l-.15.6 1.9 2.02-.71 1.24-2.71-.64-.44.42c-.86.82-1.94 1.43-3.12 1.76l-.59.17-.81 2.69h-1.43l-.82-2.72-.58-.17a7.5 7.5 0 0 1-3.07-1.77l-.44-.43-2.74.65-.71-1.24 1.95-2.07zM4.45 9.25h12.76l1.29 1.37c-.12.61-.17 1.17-.17 1.72s.05 1.07.16 1.65l-2.28 2.42 2.39 4.14 3.19-.75c.85.72 1.85 1.3 2.93 1.7l.96 3.19h4.77l.94-3.14c1.1-.39 2.11-.96 2.99-1.69l1.24.29v10.02H4.45zm33.34 28.48H2.28v-5.31h12.11v2.16c0 .9.73 1.63 1.62 1.63h8.04c.9 0 1.62-.73 1.62-1.63v-2.16h12.11v5.31Zm-9.67-20.79c2.53 0 4.59-2.06 4.59-4.6s-2.06-4.6-4.59-4.6-4.59 2.06-4.59 4.6 2.06 4.6 4.59 4.6m0-6.95c1.29 0 2.34 1.05 2.34 2.35s-1.05 2.35-2.34 2.35-2.34-1.05-2.34-2.35 1.05-2.35 2.34-2.35"/>
</svg>
