<svg viewBox="0 0 16 16" xmlns="http://www.w3.org/2000/svg">
  <path d="M8.02 14.52c1.21 0 2.42-.21 3.33-.63v1.14c-.06.29-1.26.95-3.33.95s-3.27-.67-3.33-.95v-1.15c.91.42 2.12.63 3.33.63Zm0-4.45c2.06 0 3.26-.66 3.33-.95-.05-.21-.9-.78-2.58-.92V4.46c.9-.31 1.55-1.16 1.55-2.17C10.32 1.03 9.29 0 8.02 0a2.302 2.302 0 0 0-.75 4.48v3.74c-1.69.14-2.54.72-2.58.92.06.28 1.26.95 3.33.95Zm5.68-6.68c-1.27 0-2.3 1.03-2.3 2.31 0 1.02.68 1.88 1.6 2.18v3.09h-2.01c-.86.32-1.91.46-2.97.46s-2.04-.16-2.89-.46H3.02V7.88c.92-.3 1.6-1.16 1.6-2.18A2.309 2.309 0 0 0 0 5.69c0 .99.64 1.83 1.51 2.16v4.62h3.62v.05c.07.04.15.08.24.11.06.02.11.05.17.07l.18.06c.08.03.17.05.26.08.06.02.13.03.2.05.1.03.21.05.33.07.07.01.14.03.21.04.13.02.27.04.41.05.07 0 .13.02.2.02.22.02.44.03.69.03s.47-.01.69-.03c.07 0 .13-.01.2-.02a5 5 0 0 0 .62-.09c.11-.02.22-.04.33-.07.07-.02.13-.03.2-.05.09-.02.17-.05.25-.08.06-.02.13-.04.18-.06.06-.02.11-.05.16-.07.13-.06.24-.11.34-.17h3.51V7.84c.88-.33 1.51-1.16 1.51-2.15 0-1.27-1.03-2.31-2.3-2.31Z"/>
</svg>
