<svg viewBox="0 0 48 48" xmlns="http://www.w3.org/2000/svg">
  <path d="M43.64 21.97v16.14h-10.3v-.08c-1.41 1.16-4.75 2.3-9.32 2.3s-7.75-1.08-9.22-2.22H4.43V21.97c-2.52-.63-4.4-2.9-4.4-5.61 0-3.19 2.6-5.79 5.79-5.79s5.79 2.6 5.79 5.79c0 2.81-2.02 5.16-4.69 5.68v13.57h7.01v-2.88c2.44 1.51 6.33 2.3 10.07 2.3s7.63-.79 10.07-2.3v2.88h7.05V22.04c-2.67-.52-4.69-2.87-4.69-5.68 0-3.19 2.6-5.79 5.79-5.79s5.79 2.6 5.79 5.79c0 2.71-1.88 4.98-4.4 5.61Zm-29.7 18.56v4.01c0 1.41 3.92 3.46 10.07 3.46s10.07-2.05 10.07-3.46v-4.01c-2.44 1.51-6.33 2.3-10.07 2.3s-7.63-.79-10.07-2.3m10.08-8c6.15 0 10.07-2.05 10.07-3.46 0-1.31-3.4-3.18-8.82-3.43V11.45c2.59-.57 4.54-2.89 4.54-5.65 0-3.2-2.6-5.8-5.79-5.8s-5.79 2.6-5.79 5.79c0 2.76 1.95 5.08 4.54 5.65v14.19c-5.42.25-8.82 2.12-8.82 3.43 0 1.41 3.92 3.46 10.07 3.46Z"/>
</svg>
