<svg viewBox="0 0 24 24" xmlns="http://www.w3.org/2000/svg">
  <path d="M12.02 21.71c1.88 0 3.76-.35 5.08-1.04v1.73c0 .48-1.73 1.61-5.08 1.61s-5.08-1.14-5.08-1.61v-1.73c1.31.69 3.2 1.04 5.08 1.04m0-5.85c3.35 0 5.08-1.13 5.08-1.61 0-.44-1.44-1.4-4.2-1.57V6.4a3.254 3.254 0 0 0 2.38-3.13C15.27 1.47 13.81 0 12.02 0S8.76 1.46 8.76 3.26c0 1.49 1.01 2.74 2.38 3.13v6.28c-2.73.18-4.2 1.15-4.2 1.57 0 .47 1.78 1.61 5.08 1.61ZM24 8.38a3.26 3.26 0 0 0-6.52 0 3.26 3.26 0 0 0 2.46 3.15v5.36h-2.85v-.33c-1.31.69-3.2 1.04-5.08 1.04s-3.76-.35-5.08-1.04v.33H4.05v-5.36a3.26 3.26 0 0 0 2.46-3.15c0-1.8-1.46-3.26-3.26-3.26S0 6.58 0 8.38c0 1.47.98 2.7 2.32 3.1v7.16h4.79c.49.53 2.16 1.32 4.91 1.32s4.43-.79 4.91-1.32h4.76v-7.16A3.26 3.26 0 0 0 24 8.37Z"/>
</svg>
