<svg viewBox="0 0 48 48" xmlns="http://www.w3.org/2000/svg">
  <path d="M48.03 16.17c0-3.19-2.6-5.79-5.79-5.79s-5.79 2.6-5.79 5.79c0 2.81 2.02 5.16 4.69 5.68v13.56h-6.63v-5.12c0-3.08-4.47-4.8-9.24-5.06v-13.8c2.59-.57 4.54-2.89 4.54-5.65 0-3.18-2.6-5.78-5.79-5.78s-5.79 2.6-5.79 5.79c0 2.76 1.95 5.07 4.54 5.65v13.8c-4.77.26-9.24 1.98-9.24 5.06v5.12H6.94V21.86c2.67-.52 4.69-2.86 4.69-5.68 0-3.19-2.6-5.79-5.79-5.79S.03 12.98.03 16.17c0 2.71 1.88 4.98 4.4 5.61v16.13h9.1v5c0 3.34 5.28 5.09 10.49 5.09s10.49-1.75 10.49-5.09v-5h9.13V21.78c2.52-.63 4.4-2.9 4.4-5.61Zm-45.49 0c0-1.81 1.48-3.29 3.29-3.29s3.29 1.47 3.29 3.29-1.48 3.29-3.29 3.29-3.29-1.47-3.29-3.29m13.49 20.38v-2.84c2.02 1.11 5.01 1.68 7.99 1.68s5.96-.57 7.99-1.68v2.95c0 .91-3.03 2.59-7.99 2.59s-7.99-1.68-7.99-2.59v-.1Zm4.7-30.76c0-1.81 1.48-3.29 3.29-3.29s3.29 1.47 3.29 3.29-1.48 3.29-3.29 3.29-3.29-1.47-3.29-3.29m3.29 21.91c4.95 0 7.99 1.68 7.99 2.59s-3.03 2.6-7.99 2.6-7.99-1.68-7.99-2.6 3.03-2.59 7.99-2.59m0 17.8c-4.95 0-7.99-1.68-7.99-2.59v-2.84c2.02 1.11 5.01 1.68 7.99 1.68s5.96-.57 7.99-1.68v2.84c0 .91-3.03 2.59-7.99 2.59m18.22-26.05c-1.81 0-3.29-1.47-3.29-3.29s1.48-3.29 3.29-3.29 3.29 1.47 3.29 3.29-1.48 3.29-3.29 3.29"/>
</svg>
