<svg viewBox="0 0 40 40" xmlns="http://www.w3.org/2000/svg">
  <path d="M37.93 28.01H2.24V8.65c0-.9.73-1.63 1.63-1.63h12.2l-.42.73 2.47 2.62c-.13.68-.2 1.31-.2 1.92s.06 1.2.18 1.84l-2.48 2.64 2.54 4.39 3.47-.82c.95.81 2.06 1.45 3.27 1.89l1.04 3.46h5.07l1.03-3.41c1.23-.43 2.36-1.07 3.34-1.88l2.55.6zm2.17 2.26v7.61c0 1.17-.95 2.13-2.13 2.13H2.2c-1.17 0-2.13-.95-2.13-2.13V30.2h.05v.07zm-14.37 1.81H14.44v2.63c0 .9.73 1.63 1.63 1.63h8.04c.9 0 1.63-.73 1.63-1.63v-2.63Zm-6.39-22.04-2.3-2.45 1.7-2.94 3.27.77a9.5 9.5 0 0 1 3.86-2.2L26.84 0h3.4l.97 3.21c1.48.44 2.82 1.19 3.91 2.24l3.2-.75 1.7 2.94-2.26 2.41c.18.72.29 1.47.29 2.24s-.13 1.56-.31 2.3l2.25 2.39-1.7 2.94-3.21-.76a9.36 9.36 0 0 1-3.93 2.22l-.96 3.18h-3.4l-.97-3.22a9.46 9.46 0 0 1-3.87-2.24l-3.24.76-1.7-2.94 2.31-2.45c-.17-.7-.28-1.43-.28-2.18s.12-1.53.3-2.26Zm5.4 2.26c0 2.1 1.7 3.8 3.8 3.8s3.8-1.7 3.8-3.8-1.7-3.8-3.8-3.8-3.8 1.7-3.8 3.8"/>
</svg>
