<svg viewBox="0 0 24 24" xmlns="http://www.w3.org/2000/svg">
  <path d="M15.94 6.63V5.4a.87.87 0 0 1 1.74 0v1.23a.87.87 0 0 1-1.74 0m-3.34 2.1c.17.17.39.26.62.26s.45-.08.62-.26c.34-.34.34-.9 0-1.24l-.87-.87c-.34-.34-.9-.34-1.24 0s-.34.9 0 1.24zm-2.11 2.11a.87.87 0 0 0 0 1.74h1.23a.87.87 0 0 0 0-1.74zm2.1 3.86-.87.87a.881.881 0 0 0 .62 1.5c.22 0 .45-.08.62-.26l.87-.87c.34-.34.34-.9 0-1.24a.88.88 0 0 0-1.24 0m4.21 1.24a.87.87 0 0 0-.87.87v1.23a.87.87 0 0 0 1.74 0v-1.23a.87.87 0 0 0-.87-.87m4.22-1.23a.88.88 0 0 0-1.24 0c-.34.34-.34.9 0 1.24l.87.87c.17.17.4.26.62.26s.45-.08.62-.26c.34-.34.34-.9 0-1.24zm2.11-3.85H21.9a.87.87 0 0 0 0 1.74h1.23a.87.87 0 0 0 0-1.74M20.42 9c.22 0 .45-.08.62-.26l.87-.87c.34-.34.34-.9 0-1.24a.88.88 0 0 0-1.24 0l-.87.87a.881.881 0 0 0 .62 1.5m-.35 2.72a3.26 3.26 0 1 1-6.521-.001 3.26 3.26 0 0 1 6.521.001m-1.75 0c0-.83-.68-1.51-1.51-1.51s-1.51.68-1.51 1.51.68 1.51 1.51 1.51 1.51-.68 1.51-1.51m-7.47 6.72c-1.04.57-2.24.9-3.51.9C3.29 19.34 0 16.05 0 12s3.29-7.34 7.34-7.34c1.27 0 2.47.33 3.51.9C8.57 6.81 7.03 9.22 7.03 12s1.55 5.2 3.82 6.44m-3.65-.85C5.98 16.02 5.28 14.06 5.28 12s.7-4.02 1.92-5.59C4.18 6.48 1.75 8.96 1.75 12s2.43 5.51 5.45 5.59"/>
</svg>
