<svg viewBox="0 0 48 48" xmlns="http://www.w3.org/2000/svg">
  <path d="M32.89 13.28v-2.45a1.25 1.25 0 0 1 2.5 0v2.45a1.25 1.25 0 0 1-2.5 0m-6.84 3.85c.24.24.56.37.88.37s.64-.12.88-.37c.49-.49.49-1.28 0-1.77l-1.73-1.73c-.49-.49-1.28-.49-1.77 0s-.49 1.28 0 1.77l1.73 1.73Zm-5.81 6.31c0 .69.56 1.25 1.25 1.25h2.45a1.25 1.25 0 0 0 0-2.5h-2.45c-.69 0-1.25.56-1.25 1.25m5.79 6.32-1.73 1.73a1.25 1.25 0 0 0 0 1.77c.24.24.56.37.88.37s.64-.12.88-.37l1.73-1.73c.49-.49.49-1.28 0-1.77a1.25 1.25 0 0 0-1.77 0Zm8.08 2.63c-.69 0-1.25.56-1.25 1.25v2.45a1.25 1.25 0 0 0 2.5 0v-2.45c0-.69-.56-1.25-1.25-1.25m8.08-2.61c-.49-.49-1.28-.49-1.77 0s-.49 1.28 0 1.77l1.73 1.73c.24.24.56.37.88.37s.64-.12.88-.37c.49-.49.49-1.28 0-1.77l-1.73-1.73Zm4.57-7.55h-2.45a1.25 1.25 0 0 0 0 2.5h2.45a1.25 1.25 0 0 0 0-2.5m-5.43-4.71c.32 0 .64-.12.88-.37l1.73-1.73c.49-.49.49-1.28 0-1.77a1.25 1.25 0 0 0-1.77 0l-1.73 1.73a1.25 1.25 0 0 0 0 1.77c.24.24.56.37.88.37Zm-1.19 5.94c0 3.32-2.7 6.02-6.02 6.02s-6.02-2.7-6.02-6.02 2.7-6.02 6.02-6.02 6.02 2.7 6.02 6.02m-2.5 0c0-1.94-1.58-3.52-3.52-3.52s-3.52 1.58-3.52 3.52 1.58 3.52 3.52 3.52 3.52-1.58 3.52-3.52M21.71 36.89a14.6 14.6 0 0 1-7.03 1.79C6.58 38.68 0 32.11 0 24.01S6.57 9.34 14.67 9.34c2.55 0 4.94.65 7.03 1.79-4.55 2.49-7.65 7.33-7.65 12.88s3.09 10.39 7.65 12.88Zm-5.22-.85c-3.11-3.17-4.93-7.47-4.93-12.04s1.81-8.87 4.93-12.04c-.6-.09-1.2-.14-1.81-.14C7.97 11.82 2.5 17.28 2.5 24s5.46 12.18 12.18 12.18c.61 0 1.21-.05 1.81-.14"/>
</svg>
