<svg viewBox="0 0 64 64" xmlns="http://www.w3.org/2000/svg">
  <path d="M44.43 17.69v-3.27c0-.76.62-1.37 1.37-1.37s1.37.62 1.37 1.37v3.27c0 .76-.62 1.37-1.37 1.37s-1.37-.62-1.37-1.37m-9.57.67c-.54-.54-1.41-.54-1.94 0-.54.54-.54 1.41 0 1.94l2.31 2.31c.27.27.62.4.97.4s.7-.13.97-.4c.54-.54.54-1.41 0-1.94zm-1.28 12.88c0-.76-.62-1.37-1.37-1.37h-3.27c-.76 0-1.37.62-1.37 1.37s.62 1.37 1.37 1.37h3.27c.76 0 1.37-.62 1.37-1.37m1.62 8.63-2.31 2.31a1.376 1.376 0 0 0 1.94 1.95l2.31-2.31c.54-.54.54-1.41 0-1.95s-1.41-.54-1.95 0Zm10.56 3.59c-.76 0-1.37.62-1.37 1.37v3.27c0 .76.62 1.37 1.37 1.37s1.37-.62 1.37-1.37v-3.27c0-.76-.62-1.37-1.37-1.37m10.58-3.56c-.54-.54-1.41-.54-1.95 0s-.54 1.41 0 1.95l2.31 2.31c.27.27.62.4.97.4s.7-.13.97-.4c.54-.54.54-1.41 0-1.95l-2.31-2.31Zm6.29-9.99h-3.27c-.76 0-1.37.62-1.37 1.37s.62 1.37 1.37 1.37h3.27c.76 0 1.37-.62 1.37-1.37s-.62-1.37-1.37-1.37m-7.23-6.86c.35 0 .7-.13.97-.4l2.31-2.31c.54-.54.54-1.41 0-1.95s-1.41-.54-1.95 0l-2.31 2.31a1.376 1.376 0 0 0 .97 2.35Zm-9.62.48c-4.26 0-7.73 3.47-7.73 7.73s3.47 7.73 7.73 7.73 7.73-3.47 7.73-7.73-3.47-7.73-7.73-7.73m-27.03 8.46c0-7.41 4.12-13.86 10.19-17.18-1.39-.76-2.89-1.36-4.46-1.77s-3.22-.62-4.92-.62c-6.08 0-11.51 2.77-15.1 7.12A19.57 19.57 0 0 0 0 31.99c0 .68.03 1.34.1 2 .13 1.32.4 2.59.78 3.82 2.48 7.97 9.91 13.75 18.69 13.75 3.4 0 6.59-.87 9.37-2.39-6.07-3.32-10.19-9.77-10.19-17.18"/>
</svg>
