<svg viewBox="0 0 40 40" xmlns="http://www.w3.org/2000/svg">
  <path d="M27.24 11.05V9.01c0-.62.5-1.12 1.12-1.12s1.12.5 1.12 1.12v2.04c0 .62-.5 1.12-1.12 1.12s-1.12-.5-1.12-1.12m-5.68 3.27c.22.22.51.33.8.33s.58-.11.79-.33c.44-.44.44-1.15 0-1.59l-1.45-1.45c-.44-.44-1.15-.44-1.59 0s-.44 1.15 0 1.59zm-3.74 4.07c-.62 0-1.12.5-1.12 1.12s.5 1.12 1.12 1.12h2.04c.62 0 1.12-.5 1.12-1.12s-.5-1.12-1.12-1.12zm3.72 6.34-1.45 1.45a1.123 1.123 0 0 0 .79 1.92c.28 0 .58-.11.8-.33l1.45-1.45c.44-.44.44-1.15 0-1.59s-1.15-.44-1.59 0m6.79 2.16c-.62 0-1.12.5-1.12 1.12v2.04c0 .62.5 1.12 1.12 1.12s1.12-.5 1.12-1.12v-2.04c0-.62-.5-1.12-1.12-1.12m6.8-2.14c-.44-.44-1.15-.44-1.59 0s-.44 1.15 0 1.59l1.45 1.45c.22.22.51.33.8.33s.58-.11.8-.33c.44-.44.44-1.15 0-1.59l-1.45-1.45Zm3.75-6.33h-2.04c-.62 0-1.12.5-1.12 1.12s.5 1.12 1.12 1.12h2.04c.62 0 1.12-.5 1.12-1.12s-.5-1.12-1.12-1.12m-4.52-3.75c.29 0 .58-.11.8-.33l1.45-1.45c.44-.44.44-1.15 0-1.59s-1.15-.44-1.59 0l-1.45 1.45a1.123 1.123 0 0 0 .8 1.92Zm-6.01-.24c-2.81 0-5.1 2.29-5.1 5.1s2.29 5.1 5.1 5.1 5.1-2.29 5.1-5.1-2.29-5.1-5.1-5.1M12.73 24.88a12.26 12.26 0 0 1-.9-6.6c.04-.28.09-.55.14-.83.34-1.63 1.02-3.15 1.94-4.47 1.08-1.54 2.51-2.82 4.17-3.73-1.74-.95-3.74-1.49-5.86-1.49a12.15 12.15 0 0 0-6.84 2.09C2.14 12.05 0 15.77 0 19.99c0 1.69.34 3.3.96 4.76.15.37.33.72.51 1.07a12.36 12.36 0 0 0 4.93 4.93c.35.19.7.36 1.07.51 1.46.62 3.07.96 4.76.96 2.12 0 4.12-.54 5.86-1.49-2.37-1.3-4.27-3.36-5.36-5.85"/>
</svg>
