<svg viewBox="0 0 48 48" xmlns="http://www.w3.org/2000/svg">
  <path d="M32.89 13.27v-2.45a1.25 1.25 0 0 1 2.5 0v2.45a1.25 1.25 0 0 1-2.5 0m-6.84 3.85c.24.24.56.37.88.37s.64-.12.88-.37c.49-.49.49-1.28 0-1.77l-1.73-1.73a1.25 1.25 0 0 0-1.77 0 1.25 1.25 0 0 0 0 1.77l1.73 1.73Zm-5.81 6.31c0 .69.56 1.25 1.25 1.25h2.45a1.25 1.25 0 0 0 0-2.5h-2.45c-.69 0-1.25.56-1.25 1.25m5.79 6.32-1.73 1.73a1.25 1.25 0 0 0 0 1.77c.24.24.56.37.88.37s.64-.12.88-.37l1.73-1.73c.49-.49.49-1.28 0-1.77s-1.28-.49-1.77 0Zm8.08 2.63c-.69 0-1.25.56-1.25 1.25v2.45a1.25 1.25 0 0 0 2.5 0v-2.45c0-.69-.56-1.25-1.25-1.25m8.08-2.61a1.25 1.25 0 0 0-1.77 0 1.25 1.25 0 0 0 0 1.77l1.73 1.73c.24.24.56.37.88.37s.64-.12.88-.37c.49-.49.49-1.28 0-1.77l-1.73-1.73Zm4.57-7.55h-2.45a1.25 1.25 0 0 0 0 2.5h2.45a1.25 1.25 0 0 0 0-2.5m-5.43-4.71c.32 0 .64-.12.88-.37l1.73-1.73c.49-.49.49-1.28 0-1.77s-1.28-.49-1.77 0l-1.73 1.73a1.25 1.25 0 0 0 0 1.77c.24.24.56.37.88.37Zm-7.21-.08c-3.32 0-6.02 2.7-6.02 6.02s2.7 6.02 6.02 6.02 6.02-2.7 6.02-6.02-2.7-6.02-6.02-6.02M14.06 24c0-5.56 3.09-10.39 7.65-12.88a14.6 14.6 0 0 0-8.53-1.71c-1.97.2-3.83.79-5.49 1.7a14.8 14.8 0 0 0-5.91 5.91C.65 19.08 0 21.46 0 24s.64 4.92 1.77 6.99a14.8 14.8 0 0 0 5.91 5.91 14.8 14.8 0 0 0 6.99 1.78c2.55 0 4.94-.65 7.03-1.79-4.55-2.49-7.65-7.33-7.65-12.88Z"/>
</svg>
