<svg viewBox="0 0 32 32" xmlns="http://www.w3.org/2000/svg">
  <path d="M21.59 8.84V7.2c0-.55.45-1 1-1s1 .45 1 1v1.64c0 .55-.45 1-1 1s-1-.45-1-1m-4.51 2.68c.2.2.45.29.71.29s.51-.1.71-.29a.996.996 0 0 0 0-1.41l-1.16-1.16a.996.996 0 1 0-1.41 1.41l1.16 1.16Zm-2.92 3.09c-.55 0-1 .45-1 1s.45 1 1 1h1.64c.55 0 1-.45 1-1s-.45-1-1-1zm2.9 5.1-1.16 1.16a.996.996 0 0 0 .71 1.7c.26 0 .51-.1.71-.29l1.16-1.16a.996.996 0 1 0-1.41-1.41Zm5.51 1.7c-.55 0-1 .45-1 1v1.63c0 .55.45 1 1 1s1-.45 1-1v-1.63c0-.55-.45-1-1-1m5.51-1.68a.996.996 0 1 0-1.41 1.41l1.16 1.16c.2.2.45.29.71.29s.51-.1.71-.29a.996.996 0 0 0 0-1.41l-1.16-1.16ZM31 14.64h-1.64c-.55 0-1 .45-1 1s.45 1 1 1H31c.55 0 1-.45 1-1s-.45-1-1-1m-3.61-2.81c.26 0 .51-.1.71-.29l1.16-1.16a.996.996 0 1 0-1.41-1.41l-1.16 1.16a.996.996 0 0 0 .71 1.7Zm-4.81-.38c-2.3 0-4.18 1.87-4.18 4.18s1.87 4.18 4.18 4.18 4.18-1.87 4.18-4.18-1.87-4.18-4.18-4.18m-13.2 4.54c0-.93.13-1.82.37-2.67.12-.42.27-.84.44-1.24.35-.8.8-1.54 1.34-2.21a9.8 9.8 0 0 1 2.95-2.47 9.75 9.75 0 0 0-4.69-1.19c-2.03 0-3.91.62-5.47 1.67A9.74 9.74 0 0 0 0 15.99c0 2.36.84 4.53 2.24 6.22a9.77 9.77 0 0 0 7.55 3.56c1.7 0 3.29-.43 4.69-1.19-.76-.42-1.46-.93-2.08-1.52a9.76 9.76 0 0 1-3.02-7.07"/>
</svg>
