<svg viewBox="0 0 32 32" xmlns="http://www.w3.org/2000/svg">
  <path fill="#1e1e1c" d="M15.64 14.33c3.94 0 7.15-3.21 7.15-7.15S19.59.04 15.64.04 8.49 3.25 8.49 7.19s3.21 7.15 7.15 7.15Zm0-12.29c2.84 0 5.15 2.31 5.15 5.15s-2.31 5.15-5.15 5.15-5.15-2.31-5.15-5.15 2.31-5.15 5.15-5.15M8.13 17.56h13.59v1.99H8.13c-3.36 0-6.09 2.73-6.09 6.09v6.32h-2v-6.32c0-4.46 3.63-8.08 8.09-8.08m.44 8.08h2v6.32h-2zm19.88 1.4 3.51 3.51-1.41 1.41-3.51-3.51-3.59 3.59-1.41-1.41 3.59-3.59-3.67-3.67 1.41-1.41 3.67 3.67 3.59-3.59 1.41 1.41z"/>
</svg>
