<svg viewBox="0 0 16 16" xmlns="http://www.w3.org/2000/svg">
  <path fill="#1e1e1c" d="M7.96 7.5c2.07 0 3.75-1.68 3.75-3.74S10.03.02 7.96.02 4.21 1.7 4.21 3.76 5.89 7.5 7.96 7.5m0-5.98c1.24 0 2.25 1.01 2.25 2.24S9.2 6 7.96 6 5.71 4.99 5.71 3.76s1.01-2.24 2.25-2.24m-3.71 8.6c-1.52 0-2.75 1.23-2.75 2.74v3.12H0v-3.12c0-2.33 1.91-4.24 4.25-4.24h6.71v1.5zm-.04 2.74h1.5v3.12h-1.5zm10.73 3.12-1.59-1.59-1.63 1.63-1.06-1.06 1.63-1.63-1.59-1.59 1.06-1.06 1.59 1.59 1.55-1.55 1.06 1.06-1.55 1.55L16 14.92z"/>
</svg>
