<svg viewBox="0 0 24 24" xmlns="http://www.w3.org/2000/svg">
  <path fill="#1e1e1c" d="M11.82 11c3.02 0 5.47-2.45 5.47-5.47S14.83.06 11.82.06 6.35 2.51 6.35 5.53 8.8 11 11.82 11m0-9.2c2.05 0 3.72 1.67 3.72 3.72s-1.67 3.72-3.72 3.72S8.1 7.57 8.1 5.52 9.77 1.8 11.82 1.8m4.54 13.11H6.2c-2.44 0-4.42 1.98-4.42 4.42v4.73H.03v-4.73c0-3.4 2.77-6.17 6.17-6.17h10.16zm-9.95 4.42h1.75v4.73H6.41zm15.03.87 2.53 2.53-1.24 1.24-2.53-2.53-2.59 2.59-1.24-1.24 2.59-2.59-2.65-2.65 1.24-1.24 2.65 2.65 2.59-2.59 1.24 1.24z"/>
</svg>
