<svg viewBox="0 0 64 64" xmlns="http://www.w3.org/2000/svg">
  <path fill="#1e1e1c" d="M31.44 27.52c7.59 0 13.77-6.16 13.77-13.72S39.03.07 31.44.07 17.67 6.23 17.67 13.79s6.18 13.72 13.77 13.72Zm0-24.71c6.08 0 11.02 4.92 11.02 10.98s-4.95 10.98-11.02 10.98-11.02-4.92-11.02-10.98S25.36 2.81 31.44 2.81m-15.7 32.84h27.39v2.75H15.74c-7.12 0-12.91 5.77-12.91 12.85v12.7H.08v-12.7c0-8.6 7.02-15.6 15.65-15.6Zm1.53 15.6h2.75v12.7h-2.75zm39.16 3.23L63.96 62l-1.94 1.94-7.53-7.52-7.65 7.65-1.94-1.94 7.65-7.65-7.84-7.84 1.94-1.94 7.84 7.84 7.65-7.65 1.94 1.94z"/>
</svg>
