<svg viewBox="0 0 64 64" xmlns="http://www.w3.org/2000/svg">
  <path fill="#1e1e1c" d="M31.44 28.93c7.98 0 14.47-6.48 14.47-14.44S39.42.06 31.44.06 16.97 6.54 16.97 14.5s6.49 14.44 14.47 14.44Zm0-23.88c5.23 0 9.48 4.24 9.48 9.44s-4.25 9.44-9.48 9.44-9.48-4.24-9.48-9.44 4.25-9.44 9.48-9.44m-14.6 29.48h24.88v4.99H16.84c-6.49 0-11.78 5.26-11.78 11.73v12.7H.07v-12.7c0-9.22 7.52-16.72 16.77-16.72m.41 16.72h4.99v12.7h-4.99zm39.96 2.42 6.73 6.73-3.53 3.53-6.73-6.73-6.86 6.86-3.53-3.53 6.86-6.86-7.04-7.04 3.53-3.53 7.04 7.04 6.86-6.86 3.53 3.53z"/>
</svg>
