<svg viewBox="0 0 40 40" xmlns="http://www.w3.org/2000/svg">
  <path fill="#1e1e1c" d="M19.49 17.91c4.96 0 8.99-4.02 8.99-8.96S24.44-.01 19.49-.01 10.5 4.01 10.5 8.95s4.03 8.96 8.99 8.96m0-13.93c2.75 0 4.99 2.23 4.99 4.97s-2.24 4.97-4.99 4.97-4.99-2.23-4.99-4.97 2.24-4.97 4.99-4.97m-8.51 21.1c-3.82 0-6.93 3.09-6.93 6.89v7.93h-4v-7.93c0-6 4.9-10.89 10.92-10.89h15.62v3.99H10.97Zm-.18 6.89h4v7.93h-4zm25.28 1.22 3.9 3.9-2.82 2.82-3.9-3.9-3.98 3.98-2.82-2.82 3.98-3.98-4.1-4.09 2.82-2.82 4.1 4.09 3.98-3.98 2.82 2.82z"/>
</svg>
