<svg viewBox="0 0 48 48" xmlns="http://www.w3.org/2000/svg">
  <path fill="#1e1e1c" d="M23.38 21.46c5.92 0 10.73-4.8 10.73-10.7S29.3.06 23.38.06s-10.73 4.8-10.73 10.7 4.81 10.7 10.73 10.7m0-16.91c3.44 0 6.24 2.79 6.24 6.21s-2.8 6.21-6.24 6.21-6.24-2.79-6.24-6.21 2.8-6.21 6.24-6.21M13 25.52h18.53v4.49H13c-4.66 0-8.46 3.78-8.46 8.42v9.52H.05v-9.52c0-7.12 5.81-12.91 12.95-12.91m-.07 12.92h4.49v9.52h-4.49zM43.17 40l4.78 4.78-3.18 3.18-4.78-4.78-4.88 4.88-3.18-3.18L36.81 40l-5.02-5.02 3.18-3.18 5.02 5.02 4.88-4.88 3.18 3.18z"/>
</svg>
