<svg viewBox="0 0 16 16" xmlns="http://www.w3.org/2000/svg">
  <path d="M3.08 5.62V4.37h1.25v1.25zM.01 16h15.97v-1.5H.01zm16-13.54v5.51h-3.74v3.19l.91-.91c.29-.29.77-.29 1.06 0s.29.77 0 1.06l-2.71 2.72-2.71-2.72a.754.754 0 0 1 0-1.06c.29-.29.77-.29 1.06 0l.91.91V7.97h-.66V4.5s-.06-.01-.09-.01H8.69v1.67L6.33 8.64v.06H.04V2.41H.1L3.01.02h5.66v2.96h1.35s.06 0 .09.01v-.53h.84v-.34C10.96.95 11.91 0 13.07 0s2.12.95 2.12 2.12v.34zm-3.56-.02h1.24v-.32c0-.34-.28-.62-.62-.62s-.62.28-.62.62zm-9.98-.03h2.78l.88-.89H3.55zm2.34 1.5H1.54v3.28h3.27zm2.37 1.64V2.6l-.87.88v2.98zm7.34-1.59h-2.9v2.51h2.9zm-1.44 1.75c.33 0 .6-.27.6-.6s-.27-.6-.6-.6-.6.27-.6.6.27.6.6.6"/>
</svg>
