<svg viewBox="0 0 64 64" xmlns="http://www.w3.org/2000/svg">
  <path d="M16.5 19.64h-4.05v-4.06h4.05zM.03 63.99h63.99v-2.75H.03zm64-54.15v18.79H47.45v26.44l6.39-6.4c.54-.54 1.41-.54 1.94 0 .54.54.54 1.41 0 1.95l-9.71 9.72-9.71-9.72c-.54-.54-.54-1.41 0-1.95s1.41-.54 1.94 0l6.39 6.4V28.63h-1.05V17.86c-.85-1.04-2.12-1.72-3.57-1.72h-8.13v6.58l-9.65 9.31h-.01v.02H.04V9.76L11.06.03h20.89v13.36h8.13c1.3 0 2.51.35 3.57.94V9.85h3.36V6.87C47 3.08 50.08 0 53.87 0s6.87 3.08 6.87 6.87v2.98h3.29Zm-14.28-.07h8.23V6.86c0-2.27-1.85-4.12-4.12-4.12s-4.12 1.85-4.12 4.12v2.91Zm-45.59.01h16.18l6.94-7.01H12.1L4.17 9.78Zm15.38 2.75H2.79v16.76h16.75zm9.66 9.02V4.75l-6.91 6.98v16.5l6.91-6.67Zm32.08-8.96H46.4v13.29h14.88zm-8.74 7.74v.54c0 .76.62 1.38 1.37 1.38s1.37-.62 1.37-1.38v-.54c.53-.41.88-1.05.88-1.78 0-1.25-1.01-2.26-2.26-2.26s-2.26 1.01-2.26 2.26c0 .73.35 1.37.88 1.78Z"/>
</svg>
