<svg viewBox="0 0 16 16" xmlns="http://www.w3.org/2000/svg">
  <path d="M4.29 5.62H3.04V4.37h1.25zm6.45 1.76v3.78l-.91-.91a.754.754 0 0 0-1.06 0c-.29.29-.29.77 0 1.06l2.72 2.72 2.72-2.72c.29-.29.29-.77 0-1.06s-.77-.29-1.06 0l-.91.91V5.88zM3.63 14.5 2.13 16H16v-1.5zm1.56-5.81H0V2.41h.06L2.97.02h5.67v2.96h1.35c.27 0 .53.05.77.14L9.4 4.49h-.76v.76L5.72 8.17l-.54.54Zm1.95-3.14V2.6l-.87.88v2.99l.87-.91ZM2.42 2.41h2.79l.88-.89H3.51l-1.08.89Zm2.35 1.5H1.5v3.28h3.28V3.91ZM14.93 0 0 14.94 1.06 16 15.99 1.06z"/>
</svg>
