<svg viewBox="0 0 16 16" xmlns="http://www.w3.org/2000/svg">
  <path d="M.01 14.51h15.98v1.5H.01zm3.58-9.9c-.29.29-.29.77 0 1.06.15.15.34.22.53.22s.38-.07.53-.22l2.71-2.72L4.65.23c-.29-.29-.77-.29-1.06 0s-.29.77 0 1.06l.91.91H.02v1.5H4.5zm6.66 6.02-.42.59h.42zm2.35-5.01 2.26-2.32h-5.8L6.74 5.62zM6.08 7.13h6.11v6.13H6.08zm3.15 4.59h.97v.44h.61v-.44h.28v-.49h-.28V9.96h-.58l-1.01 1.36v.41Zm-1.83.44h1.61v-.5h-.75c.52-.41.72-.7.72-1.05 0-.44-.34-.68-.83-.68-.25 0-.53.06-.71.14v.53c.16-.11.36-.17.54-.17.19 0 .34.07.34.25 0 .31-.51.72-.91.99v.5Zm6.28-5.5v5.95l2.33-2.33V4.27l-2.33 2.4Z"/>
</svg>
