<svg viewBox="0 0 64 64" xmlns="http://www.w3.org/2000/svg">
  <path d="M.03 9.77v22.28h22.26v-.03h.01l9.65-9.3v-6.59h8.13c2.55 0 4.62 2.07 4.62 4.62v34.33l-6.4-6.4c-.54-.54-1.41-.54-1.95 0s-.54 1.41 0 1.95l9.72 9.72 9.72-9.72c.54-.54.54-1.41 0-1.95s-1.41-.54-1.95 0l-6.4 6.4V20.75c0-4.07-3.31-7.37-7.37-7.37h-8.13V.01H11.05L.02 9.76v.02h.01ZM19.54 29.3H2.78V12.52h16.76v16.77Zm2.75-1.08V11.71l6.91-6.98v16.82zM12.09 2.76h15.18l-6.94 7.01H4.16zm4.41 16.87h-4.06v-4.06h4.06zm47.52 41.63v2.75h-64v-2.75z"/>
</svg>
