<svg viewBox="0 0 32 32" xmlns="http://www.w3.org/2000/svg">
  <path d="M.01 30h31.96v2H.01zM7.77 8.04a.996.996 0 0 0 0 1.41c.2.19.45.29.71.29s.51-.1.71-.29l4.58-4.58L9.18.29C8.79-.1 8.16-.1 7.76.29a.996.996 0 0 0 0 1.41l2.17 2.17H.03v2h9.9L7.76 8.04Zm24.24-1.48v14.33l-6.12 6.13H11.58V12.69l6.12-6.13zm-16.79 5.31h9.99l3.23-3.31h-9.91zm-1.64 13.15h11.1V13.88h-11.1zm16.43-4.96V9.82l-3.33 3.42V23.4zm-11.25-.3c0-.95-.73-1.45-1.77-1.45-.54 0-1.12.13-1.52.31v1.13c.35-.23.78-.36 1.16-.36.42 0 .72.16.72.53 0 .66-1.09 1.53-1.95 2.11v1.06h3.43v-1.08h-1.61c1.12-.88 1.54-1.49 1.54-2.25m4.51 1.34v1.05h-.59v.93h-1.31v-.93H19.3v-.87l2.15-2.9h1.23v2.72zm-1.78-1.26-.91 1.27h.91z"/>
</svg>
