<svg viewBox="0 0 48 48" xmlns="http://www.w3.org/2000/svg">
  <path d="M12.51 14.84h-3v-3h3zm20.77 3.41v21.76l-4.42-4.42c-.49-.49-1.28-.49-1.77 0s-.49 1.28 0 1.77l7.44 7.44 7.44-7.44c.49-.49.49-1.28 0-1.77s-1.28-.49-1.77 0l-4.42 4.42V15.75zm-16.26 6.01H.09V7.33L8.4.11h15.77v9.71h5.86c1.29 0 2.49.44 3.45 1.16l-1.8 1.8a3.16 3.16 0 0 0-1.64-.46h-5.86v4.89l-7.15 7.04ZM21.67 4.4l-4.65 4.69v11.65l4.65-4.58zm-7.15 5.43H2.59v11.93h11.93zm.73-2.5 4.67-4.72H9.33L3.9 7.33zM3.53 48h44.44v-2.5H6.03zM46.22 0-.01 46.24l1.77 1.77L47.99 1.77z"/>
</svg>
