<svg viewBox="0 0 64 64" xmlns="http://www.w3.org/2000/svg">
  <path d="M12.41 15.59h4.06v4.06h-4.06zM0 9.79v-.02L11.02.04h20.89v13.35h8.13c1.85 0 3.54.69 4.84 1.83l-1.96 1.96a4.57 4.57 0 0 0-2.88-1.04h-8.13v6.58l-9.65 9.31h-.01v.02H0zm29.17-5.04-6.91 6.98v16.49l6.91-6.67zM4.13 9.79h16.18l6.94-7H12.07l-7.93 7ZM2.75 29.3H19.5V12.54H2.75zm44.65-8.82-2.74 2.74v31.84l-6.39-6.4c-.54-.54-1.41-.54-1.95 0s-.54 1.41 0 1.95l9.71 9.72 9.71-9.72c.54-.54.54-1.41 0-1.95s-1.41-.54-1.95 0l-6.39 6.4v-34.3c0-.09-.01-.18-.01-.28ZM3.9 63.98h60.09v-2.75H6.65zM62.05 0 0 62.05 1.95 64 63.99 1.94z"/>
</svg>
