<svg viewBox="0 0 24 24" xmlns="http://www.w3.org/2000/svg">
  <path d="M.05 12.5h8.91l.03.02 3.52-3.68V6.42h2.54c.22 0 .43.06.62.15v4.89h.76v6.91l-1.79-1.79a.88.88 0 0 0-1.24 0c-.34.34-.34.9 0 1.24l3.9 3.9 3.9-3.9c.34-.34.34-.9 0-1.24a.88.88 0 0 0-1.24 0l-1.79 1.79v-6.91h5.85V3.69h-1.23v-.76c0-1.62-1.32-2.93-2.93-2.93s-2.93 1.32-2.93 2.93v.76h-1.26v1.05c-.2-.04-.4-.07-.62-.07h-2.54V0H4.34L.01 3.55l.03.04v8.9Zm18.61-9.57c0-.65.53-1.18 1.18-1.18s1.18.53 1.18 1.18v.73h-2.37v-.73Zm3.6 6.77H17.4V5.44h4.86zM7.21 10.75H1.8V5.33h5.41zm1.75-.74v-5.2l1.8-1.82v5.14zM4.97 1.75h4.56L7.72 3.58H2.74zm-.61 6.4V6.27h1.87v1.88zm19.65 14.1V24H.04v-1.75h23.98ZM18.99 7.62c-.07-.14-.12-.29-.12-.46 0-.55.45-1 1-1s1 .45 1 1c0 .17-.05.32-.13.46v.11c0 .48-.39.88-.87.88S19 8.22 19 7.73v-.11Z"/>
</svg>
