<svg viewBox="0 0 64 64" xmlns="http://www.w3.org/2000/svg">
  <path d="M0 61.26h63.91v2.76H0zm16.5-44.77a1.376 1.376 0 0 0 .97 2.35c.35 0 .7-.14.97-.4l8.96-9L18.44.43c-.54-.54-1.41-.54-1.94 0-.54.54-.54 1.41 0 1.95l5.64 5.67H.05v2.76h22.09l-5.64 5.67Zm34.18 7.88 10.99-11.3H35.39l-11.24 11.3h26.52Zm-9.21 19.34-1.81 2.55h1.81zm11.25-17.49V53.2l11.29-11.35V14.61zm-29.57.91h26.82v27.03H23.15zm13.93 21.23h4.14v1.88h2.63v-1.88h1.19v-2.11h-1.19v-5.46h-2.47l-4.31 5.82v1.75Zm-7.79 1.88h6.87v-2.16h-3.22c2.23-1.77 3.08-3 3.08-4.52 0-1.9-1.46-2.92-3.54-2.92-1.08 0-2.25.26-3.04.62v2.26c.7-.45 1.55-.71 2.32-.71.83 0 1.44.31 1.44 1.06 0 1.31-2.19 3.07-3.91 4.25v2.14Z"/>
</svg>
