<svg viewBox="0 0 40 40" xmlns="http://www.w3.org/2000/svg">
  <path d="M.01 37.77h39.95v2.25H.01zm9.91-27.61a1.123 1.123 0 0 0 .79 1.92c.28 0 .58-.11.8-.33l5.69-5.7-5.69-5.7c-.44-.44-1.15-.44-1.59 0s-.44 1.15 0 1.59l2.98 2.98H.04v2.25H12.9l-2.98 2.98Zm15.81 17.02-1.13 1.59h1.13zm5.84-12.19 6.58-6.77H22.12l-6.76 6.77h16.2Zm1.65 1.53v16.43l6.79-6.8V9.53zm-18.75.72h16.5v16.57h-16.5zm8.52 12.84h2.59v1.17h1.64v-1.17h.74v-1.31h-.74v-3.41h-1.54l-2.69 3.63zm-4.87 1.17h4.29V29.9H20.4c1.4-1.1 1.92-1.87 1.92-2.82 0-1.19-.91-1.82-2.21-1.82-.67 0-1.41.16-1.9.38v1.41c.43-.28.97-.44 1.45-.44.52 0 .9.2.9.66 0 .82-1.37 1.91-2.44 2.65z"/>
</svg>
