<svg viewBox="0 0 40 40" xmlns="http://www.w3.org/2000/svg">
  <path d="M.01 37.75h39.95V40H.01zm9.91-27.61a1.123 1.123 0 0 0 .79 1.92c.28 0 .58-.11.8-.33l5.69-5.7L11.51.34c-.44-.44-1.15-.44-1.59 0s-.44 1.15 0 1.59l2.98 2.98H.04v2.25H12.9zM40.01 8.2v17.93l-7.65 7.66H14.47V15.87l7.65-7.66h17.89Zm-21.47 6.77h13.02l4.4-4.52H23.04l-4.51 4.52Zm-1.82 16.57h14.25V17.22H16.72zm21.04-6.34V11.84l-4.54 4.66v13.24l4.54-4.55Zm-14.3-.49c0-1.19-.91-1.82-2.21-1.82-.67 0-1.41.16-1.9.38v1.41c.43-.28.97-.44 1.45-.44.52 0 .9.2.9.66 0 .82-1.37 1.91-2.44 2.65v1.33h4.29v-1.35h-2.01c1.4-1.1 1.92-1.87 1.92-2.82m5.63 1.68v1.31h-.74v1.17h-1.64V27.7h-2.59v-1.09l2.69-3.63h1.54v3.41zm-2.23-1.58-1.13 1.59h1.13z"/>
</svg>
