<svg viewBox="0 0 24 24" xmlns="http://www.w3.org/2000/svg">
  <path d="M4.33 6.27H6.2v1.88H4.33zm-.1 15.98L2.48 24h21.5v-1.75zm12.15-12.17v8.28l-1.79-1.79a.88.88 0 0 0-1.24 0c-.34.34-.34.9 0 1.24l3.9 3.9 3.9-3.9c.34-.34.34-.9 0-1.24a.88.88 0 0 0-1.24 0l-1.79 1.79V8.32l-1.75 1.75ZM.01 3.59l-.03-.04L4.31 0h8.16v4.67h2.54c.53 0 1.02.15 1.46.38l-1.38 1.38h-2.62v2.42l-3.52 3.68-.03-.03H.01zM10.72 3l-1.8 1.82v5.2l1.8-1.88zm-8.02.58h4.98l1.81-1.83H4.93zm-.94 7.17h5.41V5.33H1.76zM22.74 0 .01 22.76 1.25 24 23.97 1.23z"/>
</svg>
