<svg viewBox="0 0 64 64" xmlns="http://www.w3.org/2000/svg">
  <path d="M19.61 11.19H0v19.62h19.61zm-3.69 8.34h-4.65v-4.65h4.65zm4.49-11.09H1.24L10.8 0h17.97l-8.35 8.43ZM-.02 61.18h63.99v2.75H-.02zm60.71-51.4V6.8c0-3.79-3.08-6.87-6.87-6.87s-6.87 3.08-6.87 6.87v2.98h-3.36v4.48a7.3 7.3 0 0 0-3.57-.93h-9.35V1.97l-8.33 8.41v19.47l8.33-8.04v-5.73h9.35c1.45 0 2.72.68 3.57 1.72v10.76h1.05V53l-6.39-6.4c-.54-.54-1.41-.54-1.94 0-.54.54-.54 1.41 0 1.95l9.71 9.72 9.71-9.72c.54-.54.54-1.41 0-1.95s-1.41-.54-1.94 0L47.4 53V28.56h16.58V9.78zM49.7 6.8c0-2.27 1.85-4.12 4.12-4.12s4.12 1.85 4.12 4.12v2.91h-8.23V6.8Zm5.54 13.47v.54c0 .76-.62 1.38-1.37 1.38s-1.37-.62-1.37-1.38v-.54c-.53-.41-.88-1.05-.88-1.78 0-1.25 1.01-2.26 2.26-2.26s2.26 1.01 2.26 2.26c0 .73-.35 1.37-.88 1.78Z"/>
</svg>
