<svg viewBox="0 0 64 64" xmlns="http://www.w3.org/2000/svg">
  <path d="M0 61.25h64v2.76H0zm16.58-44.78a1.376 1.376 0 0 0 .97 2.35c.35 0 .7-.14.97-.4l8.96-9-8.95-9c-.54-.54-1.41-.54-1.94 0-.54.54-.54 1.41 0 1.95l5.64 5.67H.14v2.76h22.09l-5.64 5.67Zm47.51-3.42v28.78L51.85 54.14H23.23V25.36l12.24-12.31zm-35.97 11.3h22.64l8.29-8.54H36.61zm-2.14 27.03h24.07V27.11H25.98zm35.36-10.69V17.41l-8.54 8.8v23.07zm-23.73-1.12c0-1.9-1.46-2.92-3.54-2.92-1.08 0-2.25.26-3.04.62v2.26c.7-.45 1.55-.71 2.32-.71.83 0 1.44.31 1.44 1.06 0 1.31-2.19 3.07-3.91 4.25v2.14h6.87v-2.16h-3.22c2.23-1.77 3.08-3 3.08-4.52Zm9.01 2.7v2.11h-1.19v1.88H42.8v-1.88h-4.14v-1.75l4.31-5.82h2.47v5.46h1.19Zm-3.57-2.55-1.81 2.55h1.81z"/>
</svg>
