<svg viewBox="0 0 40 40" xmlns="http://www.w3.org/2000/svg">
  <path d="M12.78 4.93H1.13L6.82.04h10.82l-4.86 4.9Zm-.65 14.29H.07V7.18h12.06zM9.88 9.23H6.61v3.27h3.27zM.01 39.97h39.97v-2.25H.01zm40-33.86v12.24H29.92v13.86l3.54-3.54c.44-.44 1.15-.44 1.59 0s.44 1.15 0 1.59l-6.26 6.25-6.26-6.25c-.44-.44-.44-1.15 0-1.59s1.15-.44 1.59 0l3.54 3.54V18.35h-.92v-7.41c-.46-.39-1.05-.64-1.7-.64H19.2v3.32l-4.84 4.81V6.52l4.84-4.88v6.42h5.84c.6 0 1.17.12 1.7.32V6.11h2.1V4.52c.01-2.51 2.05-4.55 4.56-4.55s4.56 2.04 4.56 4.55v1.59h2.06Zm-8.92-.04h4.61V4.52c0-1.27-1.03-2.3-2.31-2.3s-2.31 1.03-2.31 2.3v1.55Zm3.75 5.74c0-.78-.63-1.41-1.41-1.41a1.408 1.408 0 0 0-1.13 2.25v.61c0 .62.5 1.12 1.12 1.12s1.12-.5 1.12-1.12v-.61c.18-.24.29-.52.29-.84Z"/>
</svg>
