<svg viewBox="0 0 48 48" xmlns="http://www.w3.org/2000/svg">
  <path d="M23.98 0-.05 19.2H3.8v25.96c0 1.56 1.26 2.83 2.82 2.83h8.64l.03-25.76c0-.18.14-.32.32-.32h16.74c.11 0 .19.05.23.09s.09.12.09.23l-.03 25.76h8.64c1.56 0 2.82-1.27 2.82-2.83V19.2h3.85zM41.6 45.15c0 .18-.14.32-.32.32h-6.14l.03-23.25c0-.76-.29-1.47-.82-2-.53-.54-1.24-.83-2-.83H15.6c-1.55 0-2.82 1.27-2.82 2.83l-.03 23.26H6.61c-.18 0-.32-.14-.32-.32V17.34L23.97 3.2 41.6 17.32zM18.71 27.11H29.2v2.51H18.71zm0 9.19H29.2v2.51H18.71zm0 9.19H29.2V48H18.71z"/>
</svg>
