<svg viewBox="0 0 64 64" xmlns="http://www.w3.org/2000/svg">
  <path d="M31.98.06-.06 25.24h4.69v35.31c0 1.93 1.59 3.5 3.55 3.5H19.7l.04-34.43c0-.41.34-.74.76-.74h22.95a.75.75 0 0 1 .75.75l-.04 34.43h11.53c1.96 0 3.55-1.57 3.55-3.5V25.24h4.69zm24.47 60.49c0 .41-.34.74-.75.74h-8.73l.04-31.66c0-.94-.37-1.82-1.04-2.48a3.56 3.56 0 0 0-2.51-1.03H20.51c-1.96 0-3.55 1.57-3.55 3.5l-.04 31.67H8.19a.74.74 0 0 1-.75-.74V22.88L31.98 3.59l24.47 19.28zM24.77 36.5h14.38v2.76H24.77zm0 12.4h14.38v2.76H24.77zm0 12.39h14.38v2.76H24.77z"/>
</svg>
