<svg viewBox="0 0 32 32" xmlns="http://www.w3.org/2000/svg">
  <path d="M8.08 10.7h-2.5V8.2h2.5zm13.93 2.11V25.6l-2.66-2.66a.996.996 0 1 0-1.41 1.41l5.08 5.08 5.08-5.08a.996.996 0 1 0-1.41-1.41l-2.66 2.66V10.81l-2 2Zm-10.47 3.52H0V4.78L5.61.01h10.67v6.36h3.74c.79 0 1.52.24 2.15.64l-1.49 1.48c-.21-.07-.43-.12-.66-.12h-3.74v3.19l-4.72 4.76Zm2.73-12.89-2.73 2.75v7.3l2.73-2.75zM9.54 6.78H2v7.55h7.55V6.78Zm.59-2 2.75-2.77H6.35L3.1 4.78h7.04ZM2.82 32h29.16v-2H4.82zM30.58 0 0 30.58l1.41 1.41L32 1.42z"/>
</svg>
