<svg viewBox="0 0 32 32" xmlns="http://www.w3.org/2000/svg">
  <path d="M8.11 10.7h-2.5V8.2h2.5zM.02 32h32v-2h-32zm32-27.08v10.02h-7.98V25.6l2.66-2.66a.996.996 0 1 1 1.41 1.41l-5.08 5.08-5.08-5.08a.996.996 0 1 1 1.41-1.41l2.66 2.66V14.94h-.84V8.75c-.33-.23-.73-.38-1.16-.38h-3.74v3.19l-4.72 4.76H.03V4.79L5.64.01h10.67v6.36h3.74c.4 0 .79.06 1.16.18V4.92h1.68V3.74c0-2.07 1.68-3.75 3.75-3.75s3.75 1.68 3.75 3.75v1.18h1.65Zm-7.14-.03h3.49V3.75c0-.96-.78-1.75-1.75-1.75s-1.75.78-1.75 1.75v1.14Zm-21.76-.1h7.04l2.75-2.77H6.38L3.13 4.79Zm6.46 2H2.03v7.55h7.54V6.79Zm4.72 3.95v-7.3l-2.73 2.75v7.3zm15.72-3.82H23.2v6.02h6.82zm-3.37 4.23c.5 0 .9-.38.97-.86.22-.24.36-.55.36-.9a1.33 1.33 0 1 0-2.66 0c0 .35.14.66.36.9.07.48.47.86.97.86"/>
</svg>
