<svg viewBox="0 0 40 40" xmlns="http://www.w3.org/2000/svg">
  <path d="M12.75 4.9H1.09L6.78 0h10.83l-4.86 4.91Zm-.66 14.31H.03V7.15h12.06zM9.84 9.2H6.57v3.27h3.27zm17.8 6.33v16.71L24.1 28.7c-.44-.44-1.15-.44-1.59 0s-.44 1.15 0 1.59l6.26 6.26 6.26-6.26c.44-.44.44-1.15 0-1.59s-1.15-.44-1.59 0l-3.54 3.54V13.28l-2.25 2.25Zm-13.3-9.04v11.94l4.84-4.81v-3.33h5.84c.44 0 .84.12 1.2.31l1.63-1.63c-.8-.58-1.77-.92-2.83-.92h-5.84V1.61L14.34 6.5ZM5.43 37.74l-2.25 2.25H40v-2.25zM38.4 0 0 38.4l1.58 1.59 38.41-38.4z"/>
</svg>
