<svg viewBox="0 0 32 32" xmlns="http://www.w3.org/2000/svg">
  <path d="M10.18 3.8H.96L5.42 0h8.52zM9.6 15.4H0V5.8h9.59v9.6Zm-2-7.66H4.57v3.03H7.6zM.04 32h31.97v-2H.04zM32.01 4.93v10.01h-7.97v10.59l2.66-2.66a.996.996 0 1 1 1.41 1.41l-5.07 5.08-5.07-5.08a.996.996 0 1 1 1.41-1.41l2.66 2.66V14.94h-.84V8.69c-.33-.23-.72-.38-1.16-.38h-4.71v2.6l-3.74 3.78V5.21l3.74-3.78v4.88h4.71c.41 0 .79.08 1.16.19V4.92h1.68V3.74c0-2.05 1.68-3.73 3.74-3.73s3.74 1.68 3.74 3.75v1.18H32Zm-7.13-.03h3.49V3.76c0-.96-.78-1.75-1.75-1.75s-1.74.78-1.74 1.75zm3.1 4.5a1.33 1.33 0 1 0-2.66 0c0 .35.14.66.36.9.07.48.47.86.97.86s.9-.38.97-.86c.22-.24.36-.55.36-.9"/>
</svg>
