<svg viewBox="0 0 48 48" xmlns="http://www.w3.org/2000/svg">
  <path d="M0 45.53h47.93v2.5H0zM12.22 12.4a1.25 1.25 0 0 0 0 1.77c.24.24.56.37.88.37s.64-.12.88-.37l6.87-6.89L13.99.39a1.25 1.25 0 0 0-1.77 0 1.25 1.25 0 0 0 0 1.77l3.86 3.87H.04v2.5h16.04zm18.67 20.36-1.36 1.9h1.36zm7.03-14.68 7.99-8.23H26.54l-8.21 8.23h19.58Zm-20.55 2.51h19.9v19.99h-19.9zM27.6 36.24h3.1v1.4h1.97v-1.4h.89v-1.58h-.89v-4.08h-1.85l-3.23 4.35v1.31Zm-5.84 1.4h5.15v-1.62H24.5c1.67-1.32 2.31-2.24 2.31-3.38 0-1.42-1.09-2.18-2.65-2.18-.81 0-1.68.2-2.28.46v1.69c.52-.34 1.16-.53 1.74-.53.62 0 1.08.24 1.08.79 0 .98-1.64 2.29-2.93 3.17v1.6Zm18-17.86v19.86l8.25-8.27V11.29z"/>
</svg>
