<svg viewBox="0 0 24 24" xmlns="http://www.w3.org/2000/svg">
  <path d="M7.29 4.53H0v7.27h7.28V4.53ZM5.83 8.3H3.47V5.94h2.36zM7.8 2.79H.78L4.15.03h6.38L7.79 2.79Zm1.24 1.23v7.2l2.72-2.84V6.37h3.28c.22 0 .43.06.62.15v4.87h.76v6.89l-1.79-1.78a.88.88 0 0 0-1.24 0 .87.87 0 0 0 0 1.23l3.9 3.89 3.9-3.89a.87.87 0 0 0 0-1.23.88.88 0 0 0-1.24 0l-1.79 1.78v-6.89h5.85V3.65h-1.23V2.9c0-1.61-1.31-2.93-2.93-2.93s-2.93 1.31-2.93 2.93v.75h-1.26v1.04c-.2-.04-.41-.06-.62-.06h-3.28V1.28L9.04 4.03Zm9.62-1.12c0-.65.53-1.18 1.18-1.18s1.18.53 1.18 1.18v.73h-2.37V2.9Zm2.07 4.67v.11a.87.87 0 0 1-1.74 0v-.11c-.07-.14-.12-.29-.12-.46 0-.55.45-1 1-1s1 .45 1 1c0 .17-.05.32-.13.46Zm3.28 14.65v1.75H.04v-1.75z"/>
</svg>
