<svg viewBox="0 0 16 16" xmlns="http://www.w3.org/2000/svg">
  <path d="M4.86 3.18H.03V8h4.83zm-.88 2.51H2.32V4.04h1.66zm1.32-4H.82L2.85.03h4.1zM.03 14.48h15.99v1.49H.03zM15.2 2.42v-.34c0-1.16-.95-2.11-2.12-2.11s-2.12.95-2.12 2.11v.34h-.84v.53H8V1.1L6.36 2.75V7.4L8 5.69V4.44h2.03s.06.01.09.01V7.9h.66v3.18l-.91-.9c-.29-.29-.77-.29-1.06 0s-.29.76 0 1.06l2.72 2.71 2.72-2.71c.29-.29.29-.76 0-1.06s-.77-.29-1.06 0l-.91.9V7.9h3.75V2.42h-.82Zm-2.74-.34c0-.34.28-.62.62-.62s.62.28.62.62v.32h-1.25v-.32Zm.63 3.58c-.33 0-.6-.27-.6-.6s.27-.6.6-.6.6.27.6.6-.27.6-.6.6"/>
</svg>
