<svg viewBox="0 0 40 40" xmlns="http://www.w3.org/2000/svg">
  <path d="M10.35 12.56H7.6V9.81h2.75zM.03 40h40v-2.25h-40zm40-33.85v12.27h-10.1V32.3l3.54-3.54c.44-.44 1.15-.44 1.59 0s.44 1.15 0 1.59l-6.26 6.26-6.26-6.26c-.44-.44-.44-1.15 0-1.59s1.15-.44 1.59 0l3.54 3.54V18.42h-.92v-7.43c-.46-.39-1.05-.64-1.7-.64h-4.8v4.02l-5.95 5.92H.03V6.02L7 0h13.26v8.09h4.8c.6 0 1.17.12 1.7.32V6.14h2.1V4.55C28.85 2.05 30.9 0 33.41 0s4.56 2.04 4.56 4.56v1.59zm-8.93-.04h4.62V4.56c0-1.27-1.04-2.31-2.31-2.31S31.1 3.28 31.1 4.56zM3.47 6.02h9.24l3.73-3.76h-8.6zm8.58 2.25H2.28v9.77h9.77zm5.96 5.16V3.86L14.3 7.6v9.52zM37.78 8.4h-8.77v7.77h8.77zm-5.47 4.91c0 .62.5 1.12 1.12 1.12s1.12-.5 1.12-1.12v-.61c.18-.24.29-.53.29-.84 0-.78-.63-1.41-1.41-1.41a1.408 1.408 0 0 0-1.13 2.25v.61Z"/>
</svg>
