<svg viewBox="0 0 32 32" xmlns="http://www.w3.org/2000/svg">
  <path fill="#1e1e1c" d="m7.52 15.15 7.34 7.11-1.22 4.26H11l-1.39-4.85-.48-.18c-.86-.32-1.68-.8-2.45-1.41l-.4-.32-4.98 1.25-1.32-2.25 3.58-3.61-.08-.5c-.08-.47-.15-.94-.15-1.4s.07-.92.15-1.4l.08-.5L0 7.75 1.32 5.5 6.3 6.75l.4-.32c.77-.61 1.59-1.09 2.45-1.41l.48-.18L11.01 0h2.64l1.39 4.85.48.18c.86.32 1.68.8 2.45 1.41l.4.32 4.98-1.25 1.32 2.25-3.58 3.61.08.5c.08.47.15.94.15 1.4s-.07.92-.15 1.4v.06l-6.75-6.52c-.38-.37-.88-.57-1.42-.56-.53 0-1.03.22-1.4.59l-4.1 4.15c-.77.78-.75 2.02.03 2.78Zm9.56-1.56-4.1 4.08L25.3 29.56l4.05-4.1-12.27-11.88Zm14.13 13.68-.41-.4-4.05 4.1.42.4L32 32zM8.94 13.77l2.59 2.5 4.1-4.09-2.65-2.57-4.04 4.15Z"/>
</svg>
