<svg viewBox="0 0 16 16" xmlns="http://www.w3.org/2000/svg">
  <path fill="#1e1e1c" d="m3.69 8.15 3.53 3.33-.58 2.07H5.61l-.7-2.51-.35-.13c-.42-.16-.83-.4-1.21-.71l-.29-.24-2.53.65-.53-.9 1.82-1.87-.06-.37c-.04-.23-.07-.46-.07-.7s.04-.47.07-.7l.06-.37L0 3.83l.52-.89 2.53.65.29-.24c.38-.31.79-.55 1.21-.71l.35-.13L5.6 0h1.03l.71 2.51.35.13c.42.16.83.4 1.21.71l.29.24 2.53-.64.52.89-1.82 1.87.06.37c.04.23.07.46.07.7 0 .11-.02.21-.03.32L7.43 4.18c-.24-.23-.59-.34-.89-.34-.33 0-.64.15-.87.39L3.63 6.39c-.47.5-.45 1.29.05 1.76Zm5.22-.53L7.2 9.4l5.65 5.33 1.69-1.79L8.9 7.62ZM4.9 7.23l1.21 1.14 1.71-1.78L6.6 5.44 4.91 7.23Zm10.73 6.75-1.67 1.77 2.03.24z"/>
</svg>
