<svg viewBox="0 0 64 64" xmlns="http://www.w3.org/2000/svg">
  <path fill="#1e1e1c" d="m29.58 43.8 2.24 2.2-1.91 6.76h-9.32l-2.62-9.29c-1.35-.58-2.66-1.34-3.89-2.27l-9.41 2.39-4.64-8.04 6.75-6.91c-.11-.74-.19-1.48-.19-2.26s.08-1.52.19-2.26L.03 17.21l4.66-8.05 9.41 2.39a18.5 18.5 0 0 1 3.89-2.27L20.6 0h9.32l2.62 9.29c1.35.58 2.66 1.34 3.89 2.27l9.41-2.39 4.66 8.05-6.75 6.91c.1.72.19 1.48.19 2.26s-.08 1.54-.19 2.26c0 0-.35 1.35-.56 1.53l-2.15-2.11c.08-.56.14-1.13.14-1.69 0-.84-.12-1.66-.26-2.51l-.11-.68 6.26-6.4-2.57-4.44-8.71 2.21-.54-.44c-1.36-1.1-2.82-1.95-4.34-2.53l-.65-.25-2.42-8.6H22.7l-2.42 8.6-.65.25c-1.52.58-2.98 1.43-4.34 2.53l-.54.44-8.71-2.21-2.57 4.44 6.26 6.4-.11.68c-.14.85-.26 1.69-.26 2.51s.12 1.66.26 2.51l.11.68-6.26 6.4 2.57 4.44 8.71-2.21.54.44c1.36 1.1 2.82 1.95 4.34 2.53l.65.25 2.42 8.6h5.14l1.75-6.22Zm34.45 20.19-13.91-1.84-33.18-32.57a3.11 3.11 0 0 1-.06-4.4l7.29-7.48a3.124 3.124 0 0 1 4.41-.06l33.18 32.57 2.26 13.78ZM33.65 26.47l-7.86 7.94 22.5 22.09 7.8-8-22.44-22.02Zm-14.79 1.15 4.96 4.86 7.86-7.94-5.02-4.93c-.08-.08-.17-.08-.26-.1-.07 0-.17.02-.26.11l-7.29 7.48c-.14.14-.14.38 0 .52Zm41.85 33.16-1.52-9.24-1.14-1.12-7.8 8 1.15 1.13 9.32 1.23Z"/>
</svg>
