<svg viewBox="0 0 24 24" xmlns="http://www.w3.org/2000/svg">
  <path fill="#1e1e1c" d="m5.78 11.7 5.42 5.23-.97 3.46H8.36l-1.05-3.74-.41-.16c-.65-.25-1.27-.61-1.84-1.08l-.34-.28-3.78.96L0 14.48l2.72-2.79-.07-.43c-.06-.36-.11-.72-.11-1.07s.05-.71.11-1.07l.07-.43L0 5.9l.93-1.61 3.78.96.34-.28c.58-.47 1.2-.83 1.84-1.08l.41-.16L8.36 0h1.87l1.05 3.74.41.16c.65.25 1.27.61 1.84 1.08l.34.28 3.78-.96.93 1.61-2.72 2.79.07.43c.06.36.11.72.11 1.07 0 .26-.03.52-.07.79l-4.9-4.73c-.31-.3-.71-.43-1.14-.46-.43 0-.83.18-1.13.49L5.74 9.43c-.3.31-.46.71-.46 1.14s.18.83.49 1.13Zm17.66 8.91-.2-.19-2.86 2.94.2.19L24 24zm-10.1-9.75-2.88 2.92 8.66 8.36 2.86-2.94zm-6.24-.32 2.1 2.02 2.88-2.92-2.12-2.05-2.86 2.94Z"/>
</svg>
