<svg viewBox="0 0 40 40" xmlns="http://www.w3.org/2000/svg">
  <path fill="#1e1e1c" d="m18.05 27.74 1.83 1.8-.98 3.49h-6.14l-1.63-5.79c-.77-.34-1.51-.77-2.22-1.3l-5.85 1.49-3.08-5.32 4.2-4.3c-.06-.41-.1-.84-.1-1.3s.04-.88.1-1.3l-4.2-4.3 3.07-5.32L8.9 7.08c.71-.52 1.45-.96 2.22-1.3l1.64-5.79h6.14l1.63 5.79c.77.34 1.51.78 2.22 1.3l5.85-1.49 3.07 5.32-4.2 4.3c.06.41.1.84.1 1.3s-.04.88-.1 1.3c0 0-.09.31-.33.41l-1.83-1.8c0-.47-.07-.93-.15-1.41l-.09-.56 3.8-3.89-1.37-2.37-5.28 1.35-.44-.36a9.5 9.5 0 0 0-2.59-1.52l-.53-.2-1.47-5.22h-2.73l-1.47 5.22-.53.2c-.91.35-1.78.86-2.59 1.52l-.44.36-5.28-1.35-1.37 2.37 3.8 3.89-.09.56c-.08.51-.16 1-.16 1.5s.07.99.16 1.5l.09.56-3.8 3.89 1.37 2.37 5.28-1.34.44.36c.81.66 1.68 1.17 2.59 1.51l.53.2 1.47 5.23h2.73l.85-3.04Zm21.93 12.25-8.94-1.18-20.25-19.93a2.176 2.176 0 0 1-.04-3.08l4.43-4.56c.84-.86 2.22-.88 3.09-.04l20.25 19.92 1.45 8.87ZM21.16 17.18l-4.42 4.47 13.31 13.03 4.35-4.47zm-8.8.18 2.77 2.71 4.42-4.47-2.85-2.8zm24.91 20-.85-5.16-.42-.42-4.35 4.47.43.42z"/>
</svg>
