<svg viewBox="0 0 32 32" xmlns="http://www.w3.org/2000/svg">
  <path fill="#1e1e1c" d="m14.3 22.29 1.63 1.6-.71 2.53h-5.03l-1.3-4.62a8.8 8.8 0 0 1-1.69-.99L2.53 22 0 17.64l3.35-3.44c-.04-.32-.07-.64-.07-.99s.03-.67.07-.99L0 8.79l2.52-4.36 4.67 1.19c.54-.4 1.1-.73 1.69-.99L10.18 0h5.03l1.3 4.63c.59.26 1.15.59 1.69.99l4.67-1.19 2.52 4.36-3.35 3.44c.04.32.07.64.07.99s-.03.67-.07.99c0 0-.06.22-.16.29l-1.8-1.77c-.02-.22-.05-.45-.09-.68l-.08-.5 2.99-3.07-1-1.74-4.16 1.06-.39-.32c-.63-.51-1.31-.91-2.02-1.18l-.47-.18L13.7 2h-2l-1.16 4.12-.47.18c-.71.27-1.39.67-2.02 1.18l-.39.32L3.5 6.74l-1 1.74 2.99 3.07-.08.5c-.06.4-.12.8-.12 1.18s.06.77.12 1.18l.08.5-2.99 3.07 1 1.74 4.16-1.06.39.32c.63.52 1.32.91 2.02 1.18l.47.18 1.16 4.12h2l.6-2.13ZM32 32l-7.27-.96L8.62 15.2c-.72-.71-.74-1.88-.03-2.6l3.52-3.62c.34-.35.8-.55 1.3-.56h.03c.48 0 .94.19 1.29.52l16.1 15.84L32.01 32ZM16.93 13.92l-3.33 3.37 10.38 10.22 3.3-3.39-10.36-10.19Zm-6.8-.04 2.04 2.01 3.33-3.37-2.07-2.04-3.3 3.39Zm19.46 15.79-.64-3.92-.24-.23-3.3 3.39.24.23 3.94.52Z"/>
</svg>
