<svg viewBox="0 0 24 24" xmlns="http://www.w3.org/2000/svg">
  <path fill="#1e1e1c" d="m10.61 16.67 1.43 1.38-.5 1.79H7.61l-.97-3.47c-.4-.19-.79-.41-1.17-.68l-3.5.89L0 13.18l2.51-2.57c-.03-.22-.05-.45-.05-.69s.02-.47.05-.69L0 6.66l1.96-3.41 3.5.89q.555-.405 1.17-.69L7.61 0h3.93l.97 3.47q.6.285 1.17.69l3.5-.89 1.97 3.41-2.51 2.57c.03.22.05.45.05.69s-.02.47-.05.69c0 0-.07.29-.23.4l-1.5-1.45c-.02-.16-.04-.33-.07-.49l-.07-.43 2.19-2.25-.64-1.11-3.05.78-.34-.28a5.6 5.6 0 0 0-1.46-.86l-.41-.16-.85-3.02H8.93l-.85 3.02-.41.16c-.51.2-1 .48-1.46.86l-.34.28-3.05-.78-.64 1.11 2.19 2.25-.07.43c-.05.29-.09.58-.09.85s.04.56.09.85l.07.43-2.19 2.25.64 1.11 3.05-.78.34.28c.46.37.95.66 1.46.85l.41.16.85 3.02h1.28l.4-1.42ZM24 23.99l-5.61-.74-9.5-9.18s-.05-.02-.07-.04-.02-.04-.04-.06L6.43 11.7c-.29-.28-.45-.66-.46-1.06 0-.4.15-.78.43-1.07l2.61-2.68c.28-.29.65-.45 1.05-.45.37.02.78.15 1.07.43l11.95 11.56.91 5.58ZM12.98 11.07l-2.28 2.31 7.19 6.95 2.26-2.32zm-5.14-.46 1.6 1.55 2.28-2.31-1.62-1.57-2.26 2.32ZM21.9 21.95l-.44-2.68-.05-.05-2.26 2.32.05.04 2.7.36Z"/>
</svg>
