<svg viewBox="0 0 48 48" xmlns="http://www.w3.org/2000/svg">
  <path fill="#1e1e1c" d="m21.82 33.22 2.04 2.01-1.24 4.4h-7.26l-1.96-6.96c-.95-.42-1.87-.95-2.74-1.6l-7.03 1.79L0 26.58l5.05-5.17c-.07-.51-.12-1.04-.12-1.6s.05-1.09.12-1.6L0 13.05l3.63-6.28 7.03 1.79c.87-.65 1.79-1.18 2.74-1.6L15.37 0h7.26l1.96 6.96c.95.42 1.87.95 2.74 1.6l7.03-1.79 3.63 6.28-5.05 5.17c.07.52.12 1.04.12 1.6s-.05 1.08-.12 1.6c0 0-.16.57-.36.67l-2.04-2.01c0-.09.02-.17.02-.26 0-.6-.09-1.21-.19-1.83l-.1-.62 4.6-4.71-1.73-2.99-6.4 1.63-.49-.4c-.99-.8-2.05-1.42-3.15-1.84l-.59-.22-1.78-6.32h-3.45L15.5 8.84l-.59.22c-1.1.42-2.16 1.04-3.15 1.84l-.49.4-6.4-1.63-1.73 2.99 4.6 4.71-.1.62c-.1.62-.19 1.22-.19 1.83s.09 1.21.19 1.83l.1.62-4.6 4.71 1.73 2.99 6.4-1.63.49.4c.99.8 2.05 1.42 3.15 1.84l.59.22 1.78 6.32h3.45l1.1-3.9ZM48.01 48l-10.62-1.4-.3-.29-24.11-23.7c-1-.97-1.02-2.58-.04-3.58l5.35-5.49c.98-1 2.59-1.02 3.59-.05l24.41 23.99 1.73 10.53ZM25.42 20.49l-5.41 5.47 16.15 15.9 5.38-5.53zm-10.68.29 3.48 3.42 5.41-5.47-3.51-3.45zm30.24 24.29-1.05-6.38-.61-.6-5.38 5.53.61.6z"/>
</svg>
