<svg viewBox="0 0 16 16" xmlns="http://www.w3.org/2000/svg">
  <path fill="#1e1e1c" d="M11.16 3.44c-.69 0-1.25.56-1.25 1.25v5.58c0 .69.56 1.25 1.25 1.25h2.32v.95H8.76V2.23c0-.69-.56-1.25-1.25-1.25h-5c-.69 0-1.25.56-1.25 1.25v10.25H0v2.5h2.02V16h2.5v-1.02H16v-2.5h-.02v-.95H16V3.44zm-6.15 8.35c-.48 0-.88-.39-.88-.88s.39-.88.88-.88.88.39.88.88-.39.88-.88.88m1-4.38h-2c-.41 0-.75-.34-.75-.75s.34-.75.75-.75h2c.41 0 .75.34.75.75s-.34.75-.75.75m0-2.14h-2c-.41 0-.75-.34-.75-.75s.34-.75.75-.75h2c.41 0 .75.34.75.75s-.34.75-.75.75"/>
</svg>
