<svg viewBox="0 0 40 40" xmlns="http://www.w3.org/2000/svg">
  <path fill="#1e1e1c" d="M27.9 11.61H40V9.36H27.9c-1.31 0-2.38 1.07-2.38 2.38V25.7c0 1.31 1.07 2.38 2.38 2.38h7.79v5.13H21.15V4.82c0-.9-.73-1.62-1.62-1.62H5.52c-.9 0-1.62.73-1.62 1.62V33.2H0v2.25h7.06V40h2.25v-4.55H40V33.2h-2.06v-5.13H40v-2.25H27.9c-.07 0-.12-.06-.12-.12V11.74c0-.07.06-.12.12-.12ZM6.15 33.2V5.45H18.9V33.2zm10.42-21.9c0 .62-.5 1.12-1.12 1.12H9.62c-.62 0-1.12-.5-1.12-1.12s.5-1.12 1.12-1.12h5.83c.62 0 1.12.5 1.12 1.12m0 4.24c0 .62-.5 1.12-1.12 1.12H9.62c-.62 0-1.12-.5-1.12-1.12s.5-1.12 1.12-1.12h5.83c.62 0 1.12.5 1.12 1.12m-2.5 12.99a1.54 1.54 0 1 1-3.081-.001 1.54 1.54 0 0 1 3.081.001"/>
</svg>
