<svg viewBox="0 0 16 16" xmlns="http://www.w3.org/2000/svg">
  <path fill="#1e1e1c" d="M16 4.94v-1.5h-4.84c-.69 0-1.25.56-1.25 1.25v5.58c0 .69.56 1.25 1.25 1.25h2.82v1.45H8.76V2.23c0-.69-.56-1.25-1.25-1.25h-5c-.69 0-1.25.56-1.25 1.25v10.75H0v1.5h2.52V16h1.5v-1.52H16v-1.5h-.52v-1.45H16v-1.5h-4.59V4.95H16ZM2.76 12.98V2.48h4.5v10.5zm4-8.46c0 .41-.34.75-.75.75h-2c-.41 0-.75-.34-.75-.75s.34-.75.75-.75h2c.41 0 .75.34.75.75m0 2.14c0 .41-.34.75-.75.75h-2c-.41 0-.75-.34-.75-.75s.34-.75.75-.75h2c.41 0 .75.34.75.75m-.88 4.75c0 .48-.39.88-.88.88s-.88-.39-.88-.88.39-.88.88-.88.88.39.88.88"/>
</svg>
