<svg viewBox="0 0 64 64" xmlns="http://www.w3.org/2000/svg">
  <path fill="#1e1e1c" d="M44.65 18.14H64v-2.75H44.65c-1.86 0-3.38 1.51-3.38 3.38v22.34c0 1.86 1.51 3.38 3.38 3.38h14.31v9.05H33.42V7.41c0-1.03-.84-1.88-1.88-1.88h-23c-1.03 0-1.88.84-1.88 1.88v46.12H0v2.75h11.72v7.71h2.75v-7.71H64v-2.75h-2.3v-9.05H64v-2.75H44.65c-.34 0-.62-.28-.62-.62V18.77c0-.34.28-.62.62-.62ZM9.41 53.54V8.29h21.25v45.25zm16.67-38.08c0 .76-.62 1.38-1.38 1.38h-9.33c-.76 0-1.38-.62-1.38-1.38s.62-1.38 1.38-1.38h9.33c.76 0 1.38.62 1.38 1.38m0 5.65c0 .76-.62 1.38-1.38 1.38h-9.33c-.76 0-1.38-.62-1.38-1.38s.62-1.38 1.38-1.38h9.33c.76 0 1.38.62 1.38 1.38m0 5.38c0 .76-.62 1.38-1.38 1.38h-9.33c-.76 0-1.38-.62-1.38-1.38s.62-1.38 1.38-1.38h9.33c.76 0 1.38.62 1.38 1.38m-4 19.16c0 1.13-.92 2.04-2.04 2.04S18 46.77 18 45.65s.92-2.04 2.04-2.04 2.04.92 2.04 2.04"/>
</svg>
