<svg viewBox="0 0 40 40" xmlns="http://www.w3.org/2000/svg">
  <path fill="#1e1e1c" d="M39.99 27.85V9.3H27.9c-1.31 0-2.37 1.07-2.37 2.38v13.96c0 1.31 1.06 2.38 2.37 2.38h8.11v4.25H21.15V4.77c0-.9-.73-1.62-1.62-1.62h-14c-.9 0-1.62.73-1.62 1.62v27.5H0v4h6.18v3.68h4v-3.68h29.8v-2H40v-6.41h-.02Zm-27.46 2.17a1.54 1.54 0 1 1 .001-3.081 1.54 1.54 0 0 1-.001 3.081m2.91-13.41H9.61c-.62 0-1.12-.5-1.12-1.12s.5-1.12 1.12-1.12h5.83c.62 0 1.12.5 1.12 1.12s-.5 1.12-1.12 1.12m0-4.24H9.61c-.62 0-1.12-.5-1.12-1.12s.5-1.12 1.12-1.12h5.83c.62 0 1.12.5 1.12 1.12s-.5 1.12-1.12 1.12"/>
</svg>
