<svg viewBox="0 0 64 64" xmlns="http://www.w3.org/2000/svg">
  <path fill="#1e1e1c" d="M64 43.11V15.39H44.65c-1.86 0-3.37 1.51-3.37 3.38v22.34a3.38 3.38 0 0 0 3.37 3.38h14.36v7.93H33.42V7.41c0-1.03-.84-1.88-1.87-1.88H8.54c-1.03 0-1.87.84-1.87 1.88v45H0v5h10.6v6.58h5v-6.58H64zm-43.96 4.58c-1.13 0-2.04-.92-2.04-2.04s.92-2.04 2.04-2.04 2.04.92 2.04 2.04-.92 2.04-2.04 2.04m4.66-19.83h-9.33a1.38 1.38 0 0 1 0-2.76h9.33a1.38 1.38 0 0 1 0 2.76m0-5.38h-9.33a1.38 1.38 0 0 1 0-2.76h9.33a1.38 1.38 0 0 1 0 2.76m0-5.65h-9.33a1.38 1.38 0 0 1 0-2.76h9.33a1.38 1.38 0 0 1 0 2.76"/>
</svg>
