<svg viewBox="0 0 24 24" xmlns="http://www.w3.org/2000/svg">
  <path fill="#1e1e1c" d="M24 7.16V5.41h-7.26c-.9 0-1.62.73-1.62 1.62v8.38c0 .9.73 1.62 1.62 1.62h4.47v2.68h-8.33V3.09c0-.76-.62-1.38-1.38-1.38H3.51c-.76 0-1.38.62-1.38 1.38v16.62H0v1.75h4.04v2.53h1.75v-2.53H24v-1.75h-1.04v-2.68H24v-1.75h-7.13V7.16zM3.89 19.72V3.47h7.25v16.25zm6.25-12.94c0 .48-.39.88-.88.88h-3.5c-.48 0-.88-.39-.88-.88s.39-.88.88-.88h3.5c.48 0 .88.39.88.88m0 2.89c0 .48-.39.88-.88.88h-3.5c-.48 0-.88-.39-.88-.88s.39-.88.88-.88h3.5c.48 0 .88.39.88.88m-1.5 7.45c0 .62-.5 1.12-1.12 1.12s-1.12-.5-1.12-1.12S6.9 16 7.52 16s1.12.5 1.12 1.12"/>
</svg>
