<svg viewBox="0 0 16 16" xmlns="http://www.w3.org/2000/svg">
  <path d="M6.16 0h1.65v1.5h-.53l-.53 1.75-.39.11c-.75.22-1.43.61-1.98 1.12l-.29.28-1.78-.42-.45.77 1.25 1.33-.1.4c-.11.43-.15.8-.15 1.15s.05.71.14 1.12l.09.39-1.26 1.34.45.77 1.77-.42.3.29c.54.53 1.21.91 1.98 1.14l.39.12.53 1.75h.57v1.5H6.13l-.62-2.07a6.4 6.4 0 0 1-1.89-1.09l-2.07.49-1.57-2.69 1.48-1.57c-.07-.37-.1-.72-.1-1.06s.04-.72.11-1.1L0 5.33l1.56-2.7 2.1.49c.55-.46 1.19-.82 1.88-1.07zm1.56 6.16v-1.5c-1.84 0-3.34 1.5-3.34 3.34s1.5 3.34 3.34 3.34v-1.5c-1.01 0-1.84-.83-1.84-1.84s.83-1.84 1.84-1.84m5.95 7.8c0 1.1-.9 2-2 2s-2-.9-2-2c0-.62.28-1.16.72-1.53L9.8 11.1H8.49V9.6h2.29l1.05 2.37c1.03.08 1.84.93 1.84 1.98Zm-1.5 0c0-.28-.22-.5-.5-.5s-.5.22-.5.5.22.5.5.5.5-.22.5-.5m3.81-5.98a2 2 0 0 1-2 2c-.79 0-1.48-.47-1.8-1.14H8.49v-1.5h3.6c.27-.79 1.01-1.36 1.89-1.36 1.1 0 2 .9 2 2m-1.5 0c0-.28-.22-.5-.5-.5s-.5.22-.5.5.22.5.5.5.5-.22.5-.5m-3.7-1.54H8.49v-1.5H9.8l.61-1.39c-.45-.37-.75-.92-.75-1.55.01-1.11.91-2 2.01-2s2 .9 2 2c0 1.04-.79 1.88-1.8 1.98zM11.17 2c0 .28.22.5.5.5s.5-.22.5-.5-.22-.5-.5-.5-.5.22-.5.5"/>
</svg>
