<svg viewBox="0 0 16 16" xmlns="http://www.w3.org/2000/svg">
  <path d="M11.5 0h-7C3.67 0 3 .67 3 1.49v8.95c0 .82.67 1.49 1.5 1.49H6v2.57H4.5v1.49h7V14.5H10v-2.57h1.5c.83 0 1.5-.67 1.5-1.49V1.49C13 .67 12.33 0 11.5 0m-3 11.95v2.48h-1v-2.48zm3-1.51h-7V1.49h7zM5.71 6.85l.26 1.48c.08.44.47.77.92.77h.67c.28 0 .54-.12.71-.33.18-.21.25-.49.21-.76l-.12-.7s0-.02.02-.02l1.04.54.08.04q.165.06.33.06c.19 0 .37-.06.53-.16.25-.17.4-.46.4-.76v-.93c.23-.16.38-.42.38-.72s-.16-.55-.38-.72v-.87c0-.3-.14-.58-.39-.75-.24-.17-.56-.22-.92-.1l-1.82.82H6.34c-.82 0-1.49.67-1.49 1.49v.29c0 .59.35 1.1.86 1.34Zm3.55-.78-.72-.37v-.73l.72-.33z"/>
</svg>
