<svg viewBox="0 0 16 16" xmlns="http://www.w3.org/2000/svg">
  <path d="M7.81.77v3.91c-1.84 0-3.34 1.5-3.34 3.34s1.5 3.34 3.34 3.34v4.65H6.12l-.62-2.07a6.4 6.4 0 0 1-1.89-1.09l-2.07.49-1.56-2.69 1.48-1.57c-.07-.37-.1-.72-.1-1.06s.04-.72.11-1.1L0 5.36l1.56-2.7 2.1.49c.55-.46 1.19-.82 1.88-1.07L6.16.02h1.65zm4.29 11.26-1.19-2.4H8.49v2h1.18l.51 1.03c-.31.35-.51.81-.51 1.32a2 2 0 0 0 2 2c1.1 0 2-.9 2-2 0-.96-.67-1.75-1.57-1.95M13.98 6c-.78 0-1.46.46-1.78 1.11H8.5v2h3.82c.36.54.97.89 1.66.89 1.1 0 2-.9 2-2s-.9-2-2-2m-1.83-2.04c.87-.22 1.52-1 1.52-1.94a2 2 0 0 0-2-2c-1.1 0-2 .9-2 2 0 .52.21 1 .54 1.35l-.53 1.08H8.5v2h2.42l1.23-2.5Z"/>
</svg>
