<svg viewBox="0 0 24 24" xmlns="http://www.w3.org/2000/svg">
  <path d="M10.4 7.63h.41v.92h-.41zm9.1-5.88v14.5c0 .97-.78 1.75-1.75 1.75H15.5v3.01h1.75v3H6.75v-3H8.5V18H6.25c-.97 0-1.75-.78-1.75-1.75V1.75C4.5.79 5.28 0 6.25 0h11.5c.97 0 1.75.78 1.75 1.75M12.5 18h-1v3h1zm3.97-9.93c0-.41-.24-.76-.58-.95V5.69c0-.37-.18-.72-.48-.93s-.69-.27-1.12-.12L11.51 5.9H9.15c-.89 0-1.62.73-1.62 1.62V8.7c0 .78.55 1.43 1.28 1.58l.39 2.25c.09.55.57.96 1.13.96h1c.34 0 .66-.15.88-.41s.31-.6.25-.94l-.21-1.18c.09-.08.15-.17.21-.27l1.76.92.09.04a1.22 1.22 0 0 0 1.07-.13c.31-.21.5-.57.5-.95V9.04c.34-.19.58-.54.58-.95Zm-3.91.67 1.58.82V6.61l-1.58.72z"/>
</svg>
