<svg viewBox="0 0 32 32" xmlns="http://www.w3.org/2000/svg">
  <path d="M.02 30a2 2 0 0 0 2 2h13.35c1.1 0 2-.9 2-2v-4.49H.02zm7.67-2.43h2v2h-2zm.99-10.54h8.68v6.48H.02V6.79a2 2 0 0 1 2-2h6.67v12.24Zm12.13-7.86L12.62 0h17.43l-8.22 9.21c-.17.2-.36.24-.49.24s-.33-.04-.52-.27Zm4.28-.62 5.96 6.48H11.58l6-6.48 1.75 1.95c.53.63 1.27.94 2.01.94s1.48-.31 2.01-.94zm6.9 4.55-5.56-6.04L31.99.83zM16.24 7.05l-5.56 6.01V.83zm15.78 17.46-4.53 4.54c-.2.2-.45.29-.71.29s-.51-.1-.71-.29a.996.996 0 0 1 0-1.41l2.12-2.12h-9.2v-2h9.2l-2.12-2.12c-.39-.39-.39-1.02 0-1.42a.996.996 0 0 1 1.41 0l4.53 4.54Z"/>
</svg>
