<svg viewBox="0 0 40 40" xmlns="http://www.w3.org/2000/svg">
  <path d="M0 37.01c0 1.66 1.34 3 3 3h15.7c1.66 0 3-1.34 3-3v-4.74H0zm9.73-2.16h2.25v2.25H9.73zm1.37-13.68h10.6v8.84H0V8.99c0-1.66 1.35-3 3-3h8.1v15.19Zm14.77-9.53L15.48 0h22.4l-10.4 11.63-.02.02-.02.02c-.27.32-.6.37-.77.37s-.49-.05-.77-.37l-.02-.02-.02-.02Zm.81 2.66c.91 0 1.82-.39 2.48-1.16l2.22-2.48 7.61 8.26H14.33l7.65-8.26 2.22 2.48c.66.77 1.57 1.16 2.48 1.16M40.01 1v15.71l-7.13-7.74zM20.47 8.97l-7.12 7.7V1zm19.46 9.95.07-.06v.06zm-5.6 6.56L40 31.15l-5.67 5.67a1.12 1.12 0 0 1-1.59 0c-.44-.44-.44-1.15 0-1.59l2.95-2.95H23.62v-2.25h12.07l-2.95-2.95c-.44-.44-.44-1.15 0-1.59s1.15-.44 1.59 0Z"/>
</svg>
