<svg viewBox="0 0 64 64" xmlns="http://www.w3.org/2000/svg">
  <path d="m28.86 27.98.76 4.35H27.5l-1.04-5.93h2.11l.28 1.58Zm-5.69-4.09h.98v-4.62h-.98zm3.48 0h3.27v-4.62h-3.27zM52 2.51V45.5a2.45 2.45 0 0 1-.43 1.39c-.45.66-1.21 1.1-2.07 1.1h-11V59H46v5H18v-5h7.5V47.99h-11a2.45 2.45 0 0 1-1.39-.43c-.27-.18-.5-.41-.68-.68s-.31-.57-.38-.89c-.03-.16-.05-.33-.05-.5V2.51a2.51 2.51 0 0 1 2.49-2.5h35a2.5 2.5 0 0 1 2.5 2.5ZM33.5 48h-3v11h3zm9.33-26.48c0-.92-.66-1.68-1.54-1.84v-4.52c0-.63-.31-1.24-.82-1.61a2.03 2.03 0 0 0-1.79-.28l-7.76 3.5h-8.26c-1.1 0-1.99.89-1.99 1.99v5.63c0 1.1.89 1.99 1.99 1.99h1.27l1.19 6.8c.17.95.99 1.64 1.96 1.64h3.16c.59 0 1.14-.26 1.52-.71s.54-1.04.44-1.62l-.67-3.82c.65-.28 1.1-.92 1.1-1.67v-.13l5.84 3.04.13.06c.23.09.47.13.7.13.4 0 .79-.12 1.13-.35.54-.37.86-.98.86-1.63v-4.77c.87-.16 1.54-.93 1.54-1.85Zm-10.42 2.44 6.38 3.32V15.95l-6.38 2.88v5.12Z"/>
</svg>
