<svg viewBox="0 0 24 24" xmlns="http://www.w3.org/2000/svg">
  <path d="M5.63 19.8h1.75v1.75H5.63zm7.39-7.8v10.21c0 .99-.8 1.79-1.78 1.79H1.78C.8 24 0 23.2 0 22.21V5.38C0 4.4.8 3.6 1.78 3.6h6.24V0H24v12H13.03ZM11.59 1.75 16 6.68l4.41-4.93zm2.21 5.08-3.16 3.42h10.73l-3.15-3.41-.94 1.05c-.34.4-.8.59-1.27.59s-.93-.2-1.27-.59l-.94-1.05Zm8.45-4.5-2.86 3.2 2.86 3.1zm-12.48 0v6.29l2.86-3.09zm1.47 19.92v-2.99H1.75v2.95zM11.26 12H8.02V5.35H1.78l-.03 12.16h9.49V12Zm9.37 3.26a.88.88 0 0 0-1.24 0c-.34.34-.34.9 0 1.24l1.25 1.25h-6.58v1.75h6.58l-1.25 1.25a.881.881 0 0 0 .62 1.5c.23 0 .45-.08.62-.26L24 18.63l-3.37-3.36Z"/>
</svg>
