<svg viewBox="0 0 32 32" xmlns="http://www.w3.org/2000/svg">
  <path d="M15.46 1.02v8.65c-3.51 0-6.36 2.85-6.36 6.36s2.85 6.36 6.36 6.36v9.63h-3.08l-1.25-4.14c-1.57-.54-3.01-1.37-4.2-2.43l-4.16.98-2.81-4.88 2.97-3.15c-.17-.83-.25-1.61-.25-2.37s.09-1.59.27-2.46L0 10.43l2.82-4.88 4.21.99c1.2-1.04 2.64-1.86 4.19-2.39L12.46.02h3zm11.89 27c0 2.21-1.79 4-4 4s-4-1.79-4-4c0-1.14.48-2.16 1.24-2.89l-1.14-2.57h-2.46v-3.5h4.74l2.22 5.02c1.92.3 3.39 1.94 3.39 3.94Zm-3.5 0c0-.28-.22-.5-.5-.5s-.5.22-.5.5.22.5.5.5.5-.22.5-.5m8.11-12c0 2.21-1.79 4-4 4a3.98 3.98 0 0 1-3.58-2.25h-7.39v-3.5h7.39c.65-1.33 2-2.25 3.58-2.25 2.21 0 4 1.79 4 4m-3.5 0c0-.28-.22-.5-.5-.5s-.5.22-.5.5.22.5.5.5.5-.22.5-.5m-6.73-2.87h-4.74v-3.5h2.46l1.19-2.69c-.79-.73-1.3-1.77-1.3-2.93.01-2.21 1.8-4 4.01-4s4 1.79 4 4c0 1.97-1.43 3.61-3.31 3.93l-2.3 5.19Zm1.12-9.12c0 .28.22.5.5.5s.5-.22.5-.5-.22-.5-.5-.5-.5.22-.5.5"/>
</svg>
