<svg viewBox="0 0 48 48" xmlns="http://www.w3.org/2000/svg">
  <path d="M18.75.02h4.36v2.5h-2.5l-1.72 5.71-.65.19c-2.52.74-4.82 2.05-6.64 3.78l-.49.47L5.3 11.3l-2.22 3.84 4.08 4.34-.16.66c-.35 1.45-.52 2.68-.52 3.88s.16 2.4.48 3.76l.15.66-4.1 4.36 2.22 3.84 5.75-1.35.49.47c1.8 1.75 4.1 3.07 6.65 3.84l.64.19 1.72 5.72h2.61v2.5h-4.47l-1.87-6.23c-2.44-.83-4.67-2.12-6.51-3.76l-6.25 1.47-4.05-7.06 4.46-4.74c-.27-1.3-.4-2.5-.4-3.67s.14-2.45.44-3.81L0 15.5l4.07-7.06 6.32 1.49c1.85-1.63 4.08-2.9 6.5-3.7zm4.1 17.13v-2.5c-5.17 0-9.37 4.21-9.37 9.38s4.21 9.38 9.37 9.38v-2.5c-3.79 0-6.87-3.09-6.87-6.88s3.08-6.88 6.87-6.88m18.17 24.87c0 3.31-2.69 6-6 6s-6-2.69-6-6c0-2.22 1.21-4.15 2.99-5.19l-1.94-4.37h-4.59v-2.5h6.22l2.7 6.09a6.005 6.005 0 0 1 6.62 5.97m-2.5 0c0-1.93-1.57-3.5-3.5-3.5s-3.5 1.57-3.5 3.5 1.57 3.5 3.5 3.5 3.5-1.57 3.5-3.5m9.42-18c0 3.31-2.69 6-6 6-2.88 0-5.29-2.04-5.87-4.75H25.49v-2.5h10.58a6.006 6.006 0 0 1 5.87-4.75c3.31 0 6 2.69 6 6m-2.5 0c0-1.93-1.57-3.5-3.5-3.5s-3.5 1.57-3.5 3.5 1.57 3.5 3.5 3.5 3.5-1.57 3.5-3.5m-13.73-5.69h-6.22v-2.5h4.59l2.02-4.57A5.998 5.998 0 0 1 35.02.02c3.31 0 6 2.69 6 6s-2.69 6-6 6q-.255 0-.51-.03l-2.8 6.33Zm-.19-12.31c0 1.93 1.57 3.5 3.5 3.5s3.5-1.57 3.5-3.5-1.57-3.5-3.5-3.5-3.5 1.57-3.5 3.5"/>
</svg>
