<svg viewBox="0 0 24 24" xmlns="http://www.w3.org/2000/svg">
  <path d="M9.31.03h2.33v7.16c-2.67 0-4.85 2.18-4.85 4.85s2.18 4.85 4.85 4.85v7.14H9.26l-.93-3.1c-1.13-.4-2.17-1-3.05-1.76l-3.12.73-2.19-3.8 2.22-2.36c-.12-.6-.17-1.17-.17-1.71s.06-1.15.19-1.78L0 7.9l2.19-3.79 3.15.74a9.5 9.5 0 0 1 3.04-1.73zm8.86 18.07-1.77-3.73h-3.65v3h1.75l.79 1.66c-.48.53-.78 1.23-.78 2 0 1.66 1.34 3 3 3a2.996 2.996 0 0 0 .66-5.92Zm5.8-6.1c0-1.66-1.34-3-3-3-1.18 0-2.18.68-2.67 1.67h-5.55v3h5.73A2.998 2.998 0 0 0 23.97 12m-5.73-6.07c1.31-.33 2.28-1.5 2.28-2.9 0-1.66-1.34-3-3-3s-3 1.34-3 3c0 .79.31 1.51.81 2.04l-.83 1.74h-1.75v3h3.65z"/>
</svg>
