<svg viewBox="0 0 48 48" xmlns="http://www.w3.org/2000/svg">
  <path d="M0 44.5c0 .24.02.48.07.71s.12.45.2.66a3.5 3.5 0 0 0 3.23 2.14h19.03c1.45 0 2.69-.88 3.23-2.14.09-.21.16-.43.2-.66.05-.23.07-.46.07-.71v-5.88H0zm11.77-2.79h2.5v2.5h-2.5zm4.27-18.32h10v12.73H0V10.69c0-.97.39-1.84 1.03-2.47s1.51-1.03 2.48-1.03h12.53zm17.23-7.6c1.01 0 2.01-.43 2.74-1.28l2.45-2.74 8.4 9.12H19.63l8.45-9.12 2.45 2.74c.73.85 1.73 1.28 2.74 1.28m-.88-2.95L20.91 0h24.73L34.15 12.84l-.02.02-.02.02c-.3.35-.65.4-.84.4s-.54-.05-.84-.4l-.02-.02zM48 1.1v17.34L40.13 9.9zM26.41 9.9l-7.87 8.5V1.1zm21.54 10.99.06-.05v.05zm-6.72 9.71L48 37.36l-6.77 6.76c-.24.24-.56.37-.88.37s-.64-.12-.88-.37a1.25 1.25 0 0 1 0-1.77l3.75-3.74H28.39v-2.5h14.83l-3.75-3.74a1.25 1.25 0 0 1 0-1.77 1.25 1.25 0 0 1 1.77 0Z"/>
</svg>
