<svg viewBox="0 0 40 40" xmlns="http://www.w3.org/2000/svg">
  <path d="M9.73 33.84h2.25v2.25H9.73zM21.7 20v17c0 1.66-1.34 3-3 3H3c-1.65 0-3-1.34-3-3V8.99c0-1.65 1.35-3 3-3h10.37V0h26.62v20zM17.84 2.25l8.4 9.39.02.02.02.02c.14.16.3.2.41.2s.27-.03.41-.2l.02-.02.02-.02 8.4-9.39H17.86Zm4.93 8.89-6.12 6.61h20.01l-6.08-6.61-1.79 2c-.56.66-1.34.99-2.12.99s-1.56-.33-2.12-.99l-1.79-2Zm14.97-8-5.65 6.32 5.65 6.14zm-22.12 0v12.42l5.65-6.1zM19.45 37v-4.73H2.25V37c0 .41.34.75.75.75h15.7c.41 0 .75-.34.75-.75m0-17h-6.08V8.24H3c-.41 0-.75.34-.75.75v21.02h17.2V19.99Zm14.88 5.47c-.44-.44-1.15-.44-1.59 0s-.44 1.15 0 1.59l2.95 2.95H23.62v2.25h12.07l-2.95 2.95a1.123 1.123 0 0 0 .8 1.92c.29 0 .57-.11.79-.33L40 31.13l-5.67-5.67Z"/>
</svg>
