<svg viewBox="0 0 24 24" xmlns="http://www.w3.org/2000/svg">
  <path d="M0 22.22c0 .99.8 1.79 1.78 1.79h9.46c.12 0 .24-.01.36-.04a1.79 1.79 0 0 0 1.42-1.75v-3.21H0zm5.63-1.91h1.75v1.75H5.63zM7.44 12h5.58v5.26H0V5.38c0-.99.8-1.79 1.78-1.79h5.66zM19.2 5.99l3.92 4.26H10.03l3.94-4.26 1.16 1.3c.39.45.92.68 1.46.68s1.07-.23 1.46-.68l1.16-1.3Zm-2.77.13L10.97 0H22.2l-5.49 6.14s-.08.07-.13.07-.09-.02-.15-.1ZM12.8 4.68l-3.61 3.9V.64zM23.98 8.6l-3.61-3.92L23.98.64zm.02 9.78-3.37 3.36a.87.87 0 0 1-1.24 0 .88.88 0 0 1 0-1.24l1.25-1.25h-6.58V17.5h6.58l-1.25-1.25a.88.88 0 0 1 0-1.24c.34-.34.89-.34 1.24 0L24 18.37Z"/>
</svg>
