<svg viewBox="0 0 40 40" xmlns="http://www.w3.org/2000/svg">
  <path d="M30.25 0H9.75C8.51 0 7.5 1.01 7.5 2.25v25.5C7.5 28.99 8.51 30 9.75 30h5.88v7.75h-4.38V40h17.5v-2.25h-4.38V30h5.88c1.24 0 2.25-1.01 2.25-2.25V2.25C32.5 1.01 31.49 0 30.25 0m-8.13 37.75h-4.25V30h4.25zm8.13-10H9.75V2.25h20.5zM14.67 16.83l.69 3.97c.13.76.79 1.31 1.56 1.31h1.98c.47 0 .91-.21 1.21-.57s.43-.83.35-1.29l-.37-2.15c.27-.18.47-.46.58-.78L23.9 19l.12.05c.18.07.37.1.56.1a1.576 1.576 0 0 0 1.58-1.58v-2.72c.56-.22.96-.77.96-1.41s-.4-1.19-.96-1.41V9.46c0-.51-.25-.99-.66-1.28-.41-.3-.94-.38-1.42-.22l-4.82 2.17h-4.5c-1.03 0-1.87.84-1.87 1.87v2.96c0 1 .79 1.81 1.78 1.86Zm2.81 3.03-.53-3.02h.62l.14.77.39 2.25h-.63Zm6.42-3.37-3.3-1.72V12l3.3-1.49zm-6.9-4.1h1.35v2.2H17z"/>
</svg>
