<svg viewBox="0 0 64 64" xmlns="http://www.w3.org/2000/svg">
  <path d="M25.13.05h5.64V2.8h-3.59l-2.33 7.74-.71.21c-3.45 1.01-6.58 2.8-9.07 5.16l-.54.51-7.89-1.86-3.22 5.57 5.55 5.89-.18.73c-.48 1.97-.71 3.65-.71 5.3s.21 3.27.65 5.13l.17.72-5.56 5.91 3.22 5.57 7.81-1.84.54.52c2.47 2.38 5.61 4.2 9.08 5.25l.71.21 2.34 7.76h3.75v2.75H25l-2.5-8.31c-3.36-1.12-6.43-2.89-8.94-5.16l-8.35 1.97-5.28-9.13 5.96-6.33c-.38-1.79-.56-3.44-.56-5.03s.2-3.35.62-5.22L0 20.53l5.26-9.1 8.45 1.99c2.53-2.25 5.59-3.99 8.92-5.08zm5.29 22.44v-2.75c-6.79 0-12.32 5.52-12.32 12.31s5.53 12.31 12.32 12.31v-2.75c-5.28 0-9.57-4.29-9.57-9.56s4.29-9.56 9.57-9.56M54.72 56c0 4.42-3.58 8-8 8s-8-3.58-8-8c0-3.05 1.71-5.7 4.23-7.05l-2.63-5.98h-6.31v-2.75h8.1l3.46 7.87c.38-.05.76-.09 1.15-.09 4.42 0 8 3.58 8 8m-2.75 0c0-2.89-2.36-5.25-5.25-5.25S41.47 53.1 41.47 56s2.36 5.25 5.25 5.25 5.25-2.35 5.25-5.25m11.96-24c0 4.42-3.58 8-8 8-3.95 0-7.22-2.86-7.87-6.62H34v-2.75h14.06c.65-3.76 3.93-6.62 7.87-6.62 4.42 0 8 3.58 8 8Zm-2.75 0c0-2.89-2.36-5.25-5.25-5.25S50.68 29.1 50.68 32s2.36 5.25 5.25 5.25 5.25-2.35 5.25-5.25m-19.09-7.88h-8.1v-2.75h6.31l2.75-6.26A7.99 7.99 0 0 1 38.71 8C38.7 3.6 42.28.02 46.7.02s8 3.58 8 8-3.58 8-8 8c-.35 0-.68-.03-1.02-.07l-3.59 8.18Zm4.61-10.86a5.25 5.25 0 1 0 .001-10.499A5.25 5.25 0 0 0 46.7 13.26"/>
</svg>
