<svg viewBox="0 0 64 64" xmlns="http://www.w3.org/2000/svg">
  <path d="M7.86 61.28h6.75v2.75H7.86c-1.93 0-3.5-1.57-3.5-3.5V25.25H0L29.08.03l29.09 25.22h-7.13v-2.54L29.08 3.67 7.12 22.72v37.82c0 .41.33.75.75.75ZM64 31.87v29.88H28.03v-14.2h-7.94l4.01 4.01a1.376 1.376 0 0 1-1.94 1.95l-7.33-7.34 7.33-7.34c.54-.54 1.41-.54 1.95 0s.54 1.41 0 1.95l-4.01 4.01h7.94V31.86h35.97Zm-4.77 2.75H32.81l10.94 12.31c.62.69 1.42 1.08 2.27 1.08s1.65-.38 2.27-1.08zm-28.45 1.86v20.35l8.7-10.55zm1.78 22.51h26.91l-8.78-10.63-.35.4c-1.15 1.29-2.68 2-4.33 2-1.64 0-3.18-.71-4.33-2l-.35-.4-8.78 10.63Zm28.69-2.16V36.48l-8.7 9.8z"/>
</svg>
