<svg viewBox="0 0 48 48" xmlns="http://www.w3.org/2000/svg">
  <path d="M24.04 26.42h18.04l-7.52 8.46c-.82.92-2.18.92-3 0zm14.15 8.15 5.65 6.84v-13.2l-5.65 6.35Zm4.11 8.9-5.79-7.02-.08.09c-.89 1-2.09 1.55-3.37 1.55s-2.48-.55-3.37-1.55l-.08-.09-5.79 7.02h18.49Zm-14.37-8.9-5.65-6.36v13.2zM48 22.67v24.55h-7.59c-.51.48-1.21.78-1.97.78H6.55c-1.58 0-2.87-1.26-2.87-2.82V19.15H0L22.49 0l22.5 19.15H41.3v3.52zm-1.66 1.25H19.78v9.31h-5.29l2.56-2.56c.49-.49.49-1.28 0-1.77s-1.28-.49-1.77 0L9.7 34.48l5.58 5.58c.24.24.56.37.88.37s.64-.12.88-.37c.49-.49.49-1.28 0-1.77l-2.56-2.56h5.29v10.24h26.56V23.92Z"/>
</svg>
