<svg viewBox="0 0 64 64" xmlns="http://www.w3.org/2000/svg">
  <path d="M59.81 36.48v20.35l-8.84-10.55zm-1.8 22.51L49.1 48.36l-.36.4c-1.16 1.29-2.72 2-4.39 2s-3.23-.71-4.39-2l-.36-.4-8.91 10.63h27.33ZM42.04 46.93a3.07 3.07 0 0 0 4.61 0l11.11-12.31H30.94l11.11 12.31ZM64 30.49v32.63H53.44c-.63.56-1.45.91-2.36.91H7.99c-1.96 0-3.55-1.57-3.55-3.5V25.25H0L29.53.03l29.54 25.22h-4.45v5.24h9.37Zm-1.4 1.38H26.08V44.8h-8.06l4.07-4.01c.54-.54.54-1.41 0-1.95-.55-.54-1.43-.54-1.98 0l-7.44 7.34 7.44 7.34c.27.27.63.4.99.4s.71-.13.99-.4c.54-.54.54-1.41 0-1.95l-4.07-4.01h8.06v14.2H62.6V31.88ZM37.71 46.28l-8.84-9.8v20.35z"/>
</svg>
