<svg viewBox="0 0 32 32" xmlns="http://www.w3.org/2000/svg">
  <path d="M29.15 19.47v7.29l-3.19-3.75 3.19-3.55Zm-7.73 3.65c.48.53 1.26.53 1.74 0l4.61-5.13H16.81zm6.61 5.44-3.44-4.04c-.62.65-1.43 1.01-2.3 1.01s-1.68-.36-2.3-1.01l-3.44 4.04h11.47Zm-9.4-5.54-3.19-3.55v7.29l3.19-3.75Zm13.55-8.04v16.58h-5.01c-.35.27-.79.44-1.27.44H4.96c-1.14 0-2.06-.91-2.06-2.04V13.08H.18L15.43 0l15.25 13.07h-2.72v1.9h4.22Zm-1.01 1H13.42v5.98h-3.11l1.41-1.4c.4-.39.4-1.02 0-1.42s-1.04-.39-1.43 0l-3.85 3.81 3.85 3.81c.2.2.46.29.72.29s.52-.1.72-.29a.99.99 0 0 0 0-1.42l-1.41-1.4h3.11v6.6h17.75V15.96Z"/>
</svg>
