<svg viewBox="0 0 16 16" xmlns="http://www.w3.org/2000/svg">
  <path d="M3.25 14.48h1.77v1.49H3c-.69 0-1.25-.56-1.25-1.25V6.87H0l8-6.9 8 6.9h-3.25v-.83L8 1.95l-4.75 4.1zM16 8v7.01H7.52V12.1h-.84l.22.22c.29.29.29.76 0 1.06-.15.15-.34.22-.53.22s-.38-.07-.53-.22l-2.03-2.02 2.03-2.02c.29-.29.77-.29 1.06 0s.29.76 0 1.06l-.22.22h.84V8.01H16Zm-2.45 1.49H9.98l1.57 1.76c.06.07.19.11.22.11.08 0 .15-.04.22-.11l1.57-1.76Zm-4.53 1.19v1.6l.66-.87-.66-.74Zm.95 2.84h3.59l-.76-1c-.3.22-.67.34-1.04.34s-.73-.12-1.04-.34l-.76 1Zm4.53-1.24v-1.6l-.66.74.66.87Z"/>
</svg>
