<svg viewBox="0 0 40 40" xmlns="http://www.w3.org/2000/svg">
  <path d="M20.55 22.13h14.69l-6.14 6.83c-.66.74-1.75.73-2.41 0zm11.77 6.63 4.49 5.52V23.76l-4.49 4.99ZM35.29 36l-4.51-5.54c-.77.85-1.79 1.31-2.89 1.31s-2.13-.47-2.89-1.31L20.5 36h14.8Zm-11.82-7.24-4.49-5v10.52zm16.76-10v20.62h-6.37c-.42.34-.96.56-1.55.56H5.88c-1.36 0-2.46-1.09-2.46-2.43V16.09H.23L19.1-.06l18.87 16.15h-3.2v2.67zm-1.14 1.12h-22.4v7.67h-4.26l2.02-1.99c.44-.44.44-1.15 0-1.59s-1.17-.44-1.61 0l-4.76 4.71 4.76 4.71c.22.22.51.33.81.33s.58-.11.81-.33c.44-.44.44-1.15 0-1.59l-2.02-1.99h4.26v8.45h22.4V19.89Z"/>
</svg>
