<svg viewBox="0 0 16 16" xmlns="http://www.w3.org/2000/svg">
  <path fill="#1e1e1c" d="M4.04 4.75c1.31 0 2.38-1.07 2.38-2.38S5.35 0 4.04 0 1.66 1.06 1.66 2.37s1.07 2.38 2.38 2.38m0-3.26c.49 0 .88.4.88.88s-.4.88-.88.88-.88-.4-.88-.88.4-.88.88-.88m10.7 10.65v-.93c0-.96-.78-1.75-1.75-1.75h-2.4V9c0-.96-.78-1.75-1.74-1.75h-.44L5.44 5.58s-.03 0-.04-.01c-.41-.26-.88-.41-1.4-.41H2.83C1.3 5.16 0 6.41-.01 7.89l.05 8.1h4.61l.49-6.29.91.32A1.74 1.74 0 0 0 8 9.46l.57-.72h.27c.14 0 .25.11.25.25v1.14L8.7 12.1c-.79.27-1.36 1.01-1.36 1.88 0 1.1.9 2 2 2s2-.9 2-2c0-.79-.46-1.46-1.13-1.79l.24-1.24h2.53c.14 0 .25.11.25.25v.93c-.73.3-1.25 1.01-1.25 1.85 0 1.1.9 2 2 2s2-.9 2-2c0-.84-.52-1.55-1.25-1.85ZM6.83 8.53c-.07.08-.18.12-.28.08l-2.44-.87c-.39-.14-.82.07-.96.46s.07.82.46.96l.07.02-.41 5.32H1.53l-.04-6.6c0-.66.63-1.24 1.34-1.24H4c.27 0 .5.11.7.26V6.9l2.38 1.33-.25.31Zm2.51 5.96c-.28 0-.5-.22-.5-.5s.22-.5.5-.5.5.22.5.5-.22.5-.5.5m4.65 0c-.28 0-.5-.22-.5-.5s.22-.5.5-.5.5.22.5.5-.22.5-.5.5"/>
</svg>
