<svg viewBox="0 0 40 40" xmlns="http://www.w3.org/2000/svg">
  <path fill="#1e1e1c" d="M10.29 4.97c0-2.73 2.22-4.95 4.95-4.95s4.95 2.22 4.95 4.94-2.22 4.94-4.95 4.94-4.95-2.22-4.95-4.94ZM39.71 38.1 27.66 25.81l.74-.71-7.08-10.66s-.01 0-.02-.02a5.97 5.97 0 0 0-4.92-2.58h-2.99c-3.11 0-5.39 2.09-6.42 5.89l-1.25 7.24L.03 40.02h7.82l3.7-7.61 1.02 7.61h7.46l-1.86-12.69.28-3.65 2.67 2.95c.8.77 1.82 1.15 2.84 1.15.68 0 1.35-.18 1.96-.52L38.1 39.68c.22.22.51.34.81.34s.57-.11.79-.32c.45-.43.45-1.15.02-1.59Z"/>
</svg>
