<svg viewBox="0 0 16 16" xmlns="http://www.w3.org/2000/svg">
  <path fill="#1e1e1c" d="M2.32 2c0-1.1.9-2 2-2s2 .9 2 2-.9 2-2 2-2-.9-2-2m12.93 10.45v-1.48c0-1.2-.98-2.18-2.18-2.18h-2.12c-.07-1.14-1.01-2.05-2.16-2.05h-.85L5.19 5.19c-.36-.25-.8-.39-1.28-.39h-1.4C1.19 4.8.01 5.86 0 7.17V16h3.84l.56-7.25 2.24.8c.44.16.92.03 1.24-.3h.58v.74l-.23 2.3A2 2 0 0 0 7.25 14c0 1.1.9 2 2 2s2-.9 2-2a2 2 0 0 0-.54-1.36l.14-1.34h1.91v1.15c-.45.37-.75.92-.75 1.55 0 1.1.9 2 2 2s2-.9 2-2c0-.63-.3-1.18-.75-1.55Z"/>
</svg>
