<svg viewBox="0 0 40 40" xmlns="http://www.w3.org/2000/svg">
  <path fill="#1e1e1c" d="M15.24 9.91c2.73 0 4.95-2.22 4.95-4.94S17.97.02 15.24.02s-4.95 2.22-4.95 4.94 2.22 4.94 4.95 4.94Zm0-7.64c1.49 0 2.7 1.21 2.7 2.69s-1.21 2.69-2.7 2.69-2.7-1.21-2.7-2.69 1.21-2.69 2.7-2.69M39.71 38.1 27.66 25.81l.74-.71-7.08-10.66s-.01 0-.02-.02a5.97 5.97 0 0 0-4.92-2.58h-2.99c-3.11 0-5.39 2.09-6.42 5.89l-1.25 7.24L.03 40.02h7.82l3.7-7.61 1.02 7.61h7.46l-1.86-12.69.28-3.65 2.67 2.95c.8.77 1.82 1.15 2.84 1.15.68 0 1.35-.18 1.96-.52L38.1 39.68c.22.22.51.34.81.34s.57-.11.79-.32c.45-.43.45-1.15.02-1.59ZM22.74 25.06l-6.18-6.81c-.42-.46-1.13-.5-1.59-.08s-.5 1.13-.08 1.59l1.48 1.63-.47 6.02 1.52 10.36h-2.88l-1.51-11.28a1.13 1.13 0 0 0-2.24.29l.21 1.59-4.57 9.4H3.28l4.59-12.15s.03-.05.03-.08l1.25-7.26c.53-1.92 1.7-4.18 4.23-4.18h2.99c1.31 0 2.46.68 3.13 1.71s5.97 8.98 5.97 8.98l-.2.19-.02.02c-.72.69-1.84.69-2.51.05Z"/>
</svg>
