<svg viewBox="0 0 64 64" xmlns="http://www.w3.org/2000/svg">
  <path fill="#1e1e1c" d="M16.51 7.59c0-4.17 3.4-7.56 7.58-7.56s7.59 3.4 7.59 7.57-3.4 7.57-7.59 7.57-7.59-3.4-7.59-7.57Zm47.21 54.12L43.68 39.85l1.19-1.14-11.29-16.98-.03-.03c-1.68-2.41-4.46-3.99-7.62-3.99h-4.86c-4.82 0-8.37 3.27-9.99 9.22L9.32 38.44.08 64.03h11.75l6.48-14.05 1.84 14.05h11.2L28.39 43.9l.61-8.88 4.86 5.79.1.11a6.2 6.2 0 0 0 4.3 1.74c1.17 0 2.33-.33 3.35-.99l20.07 21.89c.27.3.64.45 1.02.45a1.375 1.375 0 0 0 1.02-2.3"/>
</svg>
