<svg viewBox="0 0 64 64" xmlns="http://www.w3.org/2000/svg">
  <path fill="#1e1e1c" d="M15.28 16.54c4.56 0 8.27-3.71 8.27-8.27S19.85 0 15.28 0 7.01 3.71 7.01 8.27s3.71 8.27 8.27 8.27m0-13.79c3.05 0 5.52 2.48 5.52 5.52s-2.48 5.52-5.52 5.52-5.52-2.48-5.52-5.52 2.48-5.52 5.52-5.52m43.85 48.91v-6.11c0-3.09-2.51-5.6-5.6-5.6H41.16v-5.37c.01-3.09-2.5-5.6-5.58-5.6h-2.33L20.29 21.7s-.04-.01-.06-.02a9.35 9.35 0 0 0-5.14-1.55h-4.96C4.67 20.13.03 24.6 0 29.9V64h14.09l3.86-28.91.45.03 5.95 2.11c.61.22 1.25.32 1.87.32 1.67 0 3.29-.75 4.37-2.1l2.97-3.71h2.02c1.57 0 2.85 1.28 2.85 2.85v6.64l-1.6 10.35c-3.03.42-5.38 3.03-5.38 6.18 0 3.44 2.8 6.24 6.24 6.24s6.24-2.8 6.24-6.24c0-2.79-1.84-5.15-4.36-5.95l1.41-9.09h12.55c1.57 0 2.85 1.28 2.85 2.85v6.11c-2.78.63-4.87 3.12-4.87 6.09 0 3.44 2.8 6.24 6.24 6.24s6.24-2.8 6.24-6.24c0-2.97-2.09-5.46-4.87-6.09ZM28.44 33.73c-.76.95-2.03 1.31-3.18.9l-10.32-3.67c-.71-.25-1.5.12-1.76.84-.25.71.12 1.5.84 1.76l1.29.46-3.64 27.22H2.75V29.9c.02-3.81 3.4-7.02 7.38-7.02h4.96c1.44 0 2.77.46 3.86 1.24s11.85 6.64 11.85 6.64l-2.37 2.96Zm12.74 24.02c0 1.93-1.57 3.49-3.49 3.49s-3.49-1.57-3.49-3.49 1.57-3.49 3.49-3.49 3.49 1.57 3.49 3.49m16.57 3.49c-1.93 0-3.49-1.57-3.49-3.49s1.57-3.49 3.49-3.49 3.49 1.57 3.49 3.49-1.57 3.49-3.49 3.49"/>
</svg>
