<svg viewBox="0 0 64 64" xmlns="http://www.w3.org/2000/svg">
  <path fill="#1e1e1c" d="M7.01 8.26c0-4.56 3.71-8.27 8.27-8.27s8.27 3.71 8.27 8.27-3.71 8.28-8.27 8.28-8.27-3.71-8.27-8.28m53.24 43.76v-6.48c0-3.71-3.02-6.72-6.72-6.72H42.28l.02-4.25c0-3.71-3.02-6.72-6.72-6.72h-4.11v.12l-11.18-6.28h-.01a9.34 9.34 0 0 0-5.19-1.57h-4.96C4.67 20.13.03 24.59 0 29.89v34.1h14.09l3.86-28.91.44.03 5.95 2.12c.61.22 1.24.32 1.87.32 1.67 0 3.29-.75 4.38-2.1l2.07-2.59h2.92c.95 0 1.72.77 1.72 1.72v6.55l-1.63 10.51.44.07c-2.68.7-4.66 3.14-4.66 6.03 0 3.44 2.8 6.25 6.24 6.25s6.24-2.8 6.24-6.25a6.24 6.24 0 0 0-3.3-5.5l1.31-8.41h11.59c.95 0 1.72.77 1.72 1.72v6.48c-2.2.97-3.75 3.16-3.75 5.72 0 3.44 2.8 6.25 6.24 6.25s6.24-2.8 6.24-6.25c0-2.55-1.54-4.75-3.75-5.72Z"/>
</svg>
