<svg viewBox="0 0 32 32" xmlns="http://www.w3.org/2000/svg">
  <path fill="#1e1e1c" d="M3.56 4.25C3.56 1.91 5.47 0 7.81 0s4.25 1.91 4.25 4.25S10.15 8.5 7.81 8.5 3.56 6.59 3.56 4.25m26.59 21.18v-2.79a3.82 3.82 0 0 0-3.82-3.82h-4.78v-1.51c.01-2.11-1.7-3.82-3.8-3.82h-2.01v.21l-5.31-2.98c-.78-.52-1.72-.82-2.73-.82H5.27C2.43 9.9.01 12.24 0 15.01V32h7.76L9.7 17.22l2.84 1.01c.34.12.69.18 1.03.18.91 0 1.79-.4 2.35-1.11l.28-.31h1.55c.18 0 .32.14.32.32v3.09l-1 5.05c-1.06.6-1.79 1.73-1.79 3.03 0 1.93 1.57 3.5 3.5 3.5s3.5-1.57 3.5-3.5c0-1.25-.67-2.35-1.66-2.96l.63-3.2h5.08c.18 0 .32.14.32.32v2.88c-.99.62-1.66 1.71-1.66 2.96 0 1.93 1.57 3.5 3.5 3.5s3.5-1.57 3.5-3.5c0-1.33-.75-2.47-1.84-3.06Z"/>
</svg>
