<svg viewBox="0 0 48 48" xmlns="http://www.w3.org/2000/svg">
  <path fill="#1e1e1c" d="M5.21 6.37C5.21 2.85 8.07 0 11.58 0s6.37 2.86 6.37 6.38-2.86 6.38-6.37 6.38S5.21 9.9 5.21 6.38Zm40.17 32.47v-4.77c0-2.97-2.42-5.39-5.39-5.39h-7.96v-2.76c.01-2.97-2.4-5.39-5.37-5.39h-3.05v.22l-8.19-4.6a7.2 7.2 0 0 0-3.97-1.2H7.77c-4.2 0-7.75 3.43-7.77 7.49V48h10.89l2.87-21.46h.09l4.39 1.56a4.41 4.41 0 0 0 4.9-1.4l1.34-1.67h2.19c.49 0 .89.4.89.89v4.84l-1.21 7.78.23.04c-1.87.68-3.21 2.46-3.21 4.56a4.87 4.87 0 1 0 9.74 0c0-1.73-.91-3.24-2.28-4.1l.91-5.84h8.27c.49 0 .89.4.89.89v4.77c-1.55.82-2.62 2.42-2.62 4.29a4.87 4.87 0 1 0 9.74 0c0-1.87-1.07-3.47-2.62-4.29Z"/>
</svg>
