<svg viewBox="0 0 16 16" xmlns="http://www.w3.org/2000/svg">
  <path fill="#1e1e1c" d="M5.86 4.75c1.32 0 2.4-1.07 2.4-2.38S7.18 0 5.86 0s-2.4 1.07-2.4 2.38 1.08 2.38 2.4 2.38Zm0-3.26c.49 0 .89.4.89.88a.89.89 0 0 1-1.78 0c0-.48.4-.88.89-.88m9.98 13.23-4.51-4.6.3-.29L8.94 6.6a2.65 2.65 0 0 0-2.37-1.45H5.39c-1.36 0-2.39.92-2.85 2.59l-.56 2.98-1.93 5.27h3.67l.93-1.56.26 1.56h3.46l-.79-5.13.02-.16.33.31c.34.33.78.49 1.22.49.38 0 .75-.13 1.07-.37l4.54 4.62a.76.76 0 0 0 1.07.02c.3-.29.3-.76.01-1.06ZM8.98 9.95 6.67 7.74a.76.76 0 0 0-1.07.02c-.29.3-.28.77.02 1.06l.59.57-.15 1.53.55 3.59h-.42l-.64-3.85a.765.765 0 0 0-.87-.62c-.41.07-.69.45-.62.86l.21 1.25-1.41 2.36H2.2l1.27-3.57L4 8.1c.26-.95.72-1.43 1.38-1.43h1.18c.32 0 .59.14.8.35.03.07.06.14.11.2l2.09 2.51-.24.23a.26.26 0 0 1-.35 0Z"/>
</svg>
