<svg viewBox="0 0 40 40" xmlns="http://www.w3.org/2000/svg">
  <path fill="#1e1e1c" d="M4.32 5.38C4.32 2.41 6.73 0 9.7 0s5.38 2.41 5.38 5.38-2.41 5.38-5.38 5.38-5.38-2.41-5.38-5.38m33.55 26.9v-3.93c0-2.54-2.07-4.6-4.6-4.6H26.8v-2.16c.01-2.54-2.05-4.6-4.59-4.6h-2.53v.22l-6.75-3.79c-.96-.63-2.11-1-3.34-1H6.54C3.01 12.41.02 15.29 0 18.71V40h9.22l2.09-17.89 3.88 1.38c.41.15.83.22 1.25.22 1.11 0 2.19-.5 2.91-1.4L20.39 21h1.81c.33 0 .6.27.6.6v4l-1 6.44.13.02c-1.5.62-2.55 2.09-2.55 3.81a4.131 4.131 0 0 0 8.26 0c0-1.43-.73-2.69-1.84-3.43l.73-4.69h6.75c.33 0 .6.27.6.6v3.93c-1.26.71-2.13 2.04-2.13 3.59a4.131 4.131 0 0 0 8.26 0c0-1.55-.86-2.88-2.13-3.59Z"/>
</svg>
