<svg viewBox="0 0 64 64" xmlns="http://www.w3.org/2000/svg">
  <path fill="#1e1e1c" d="M45.94 0v4.37H7.62c-1.74 0-3.25 1.3-3.5 3.03L.02 35.48v.2a4.25 4.25 0 0 0 4.25 4.26h15.22l-1.96 13.74v.19c-.01 6.53 2.97 10.12 8.4 10.12 1.46 0 2.78-.9 3.32-2.25l11.18-21.82h5.53v4.37h18.06V0H45.96Zm-7.2 37.19L26.76 60.57l-.07.15c-.12.32-.43.54-.78.54-1.39 0-5.63 0-5.66-7.28l2.01-14.07h5.14c.76 0 1.37-.61 1.37-1.37s-.61-1.37-1.37-1.37H14.47c-.1 0-.19.01-.29.03H4.26c-.81 0-1.47-.63-1.51-1.43L6.84 7.8c.06-.39.39-.68.78-.68h38.32v30.06h-7.2Zm22.51 4.37H48.69V2.75h12.56z"/>
</svg>
