<svg viewBox="0 0 40 40" xmlns="http://www.w3.org/2000/svg">
  <path fill="#1e1e1c" d="M28.52-.01V2.7H4.9c-1.16 0-2.15.86-2.32 2L.03 22.12v.14a2.776 2.776 0 0 0 2.78 2.79h9.27l-1.19 8.36v.14c0 4.09 1.95 6.43 5.36 6.43.96 0 1.83-.59 2.19-1.48l6.89-13.45h3.19v2.71h11.5V-.01zm-4.41 23.07-7.47 14.58-.05.11c-.05.14-.19.24-.34.24-1.44 0-3.34-.45-3.37-4.36l1.23-8.59h3.06c.55 0 1-.45 1-1s-.45-1-1-1H9.15s-.06.02-.1.02H2.81c-.42 0-.76-.32-.79-.73L4.56 4.99c.02-.17.17-.29.34-.29h23.63v18.36h-4.41Zm13.91 2.71h-7.5V1.99h7.5v23.79Z"/>
</svg>
