<svg viewBox="0 0 64 64" xmlns="http://www.w3.org/2000/svg">
  <path d="M64-.02H0v17.98h3.18l2.94 46.02h51.76l2.94-46.02H64zm-8.7 61.25H8.7L5.93 17.96h52.14zm5.95-46.02H2.75V2.73h58.5zM18.03 33.09h-4.12v-3.5h12.4v3.5h-4.12v10.3h-4.16zm19.62 10.3h-9.96v-13.8h4.16v10.3h5.8zm.8-9.5c0-2.82 2.34-4.52 6.08-4.52 1.26 0 2.48.18 3.68.58v3.48c-1.22-.5-2.26-.8-3.7-.8-1.24 0-1.96.32-1.96.94 0 .5.46.78 1.48 1.04l1.24.32c2.6.68 3.92 1.98 3.92 4.18 0 2.66-1.98 4.52-5.88 4.52-2.2 0-3.52-.42-4.6-.84v-3.48c1.26.58 2.72 1.06 4.12 1.06 1.22 0 2.2-.3 2.2-1.06 0-.46-.32-.74-1.84-1.16l-1.14-.32c-2.5-.7-3.6-1.9-3.6-3.94"/>
</svg>
