<svg viewBox="0 0 32 32" xmlns="http://www.w3.org/2000/svg">
  <path d="M31.14 26.64c-.44.44-1.01.71-1.67.79-.22.03-.43.13-.58.28l-2.67 2.66c-.87.87-2.2 1.48-3.56 1.63-.8.08-2.3.08-3.34-.96l-5.88-5.84a.966.966 0 0 1 0-1.37.9.9 0 0 1 .64-.26c.2 0 .4.06.58.18.02.02.05.02.07.03l2.65 2.65c.2.2.45.29.71.29s.51-.1.71-.29a.996.996 0 0 0 0-1.41l-2.82-2.81s0-.01-.01-.02l-1.5-1.5a.966.966 0 0 1 0-1.37.95.95 0 0 1 1.32-.02c.02.02.05.03.08.05l2.86 2.85c.2.2.45.29.71.29s.51-.1.71-.29a.996.996 0 0 0 0-1.41l-4.42-4.41a.88.88 0 0 1-.21-.56c0-.25.1-.49.28-.66.31-.31.79-.34 1.18-.07l2.91 2.9c.2.2.45.29.71.29s.51-.1.71-.29a.996.996 0 0 0 0-1.41l-3.54-3.53c-1.19-1.23-2.17-2.24-2.53-2.61-.03-.04-.06-.07-.09-.11-.18-.18-.28-.42-.28-.67s.1-.49.28-.67c.36-.36.99-.36 1.35 0l10.06 10.04a1 1 0 0 0 1.1.21 1 1 0 0 0 .61-.94l-.15-5.43c-.01-.26.07-.49.23-.65s.4-.25.65-.23c.63.03 1.18.59 1.22 1.21 0 .04 0 .07.01.11l1.55 9.38c.01.09.03.17.06.27.43 1.59.21 2.8-.69 3.69Zm-19.11-.01 5.37 5.33H3.04c-1.66 0-3-1.34-3-3v-3.49h11.29c.14.42.37.82.7 1.15Zm-.7.1h-2v2.02h2zm3.74-19.9v-.51H5.81v4.5h7.28c-.46-1.08-.26-2.37.62-3.25.38-.38.86-.62 1.37-.74Zm-3.05 15.61c.24-.24.51-.43.8-.56-.27-.34-.45-.72-.55-1.12H3.81v-2h8.66c.14-.3.33-.58.58-.83s.55-.46.87-.6c-.09-.15-.15-.33-.21-.5h-9.9v-2h9.88c.14-.4.37-.77.68-1.08.23-.23.48-.41.76-.54l-.37-.4H3.81V4.32h13.27v2.7c.3.14.58.31.81.55l2.74 2.74V3.04c0-1.65-1.35-3-3-3H3.04c-1.66 0-3 1.34-3 3v20.44h11.32c.14-.38.36-.74.67-1.05Z"/>
</svg>
