<svg viewBox="0 0 48 48" xmlns="http://www.w3.org/2000/svg">
  <path d="M48 0H0v13.49h2.16L4.37 48h39.27l2.21-34.51h2.16V0Zm-2.5 2.5v8.48h-43V2.5zm-4.21 43H6.71L4.66 13.49h38.67L41.28 45.5ZM15.38 29.42c1.17 0 2.11-.59 2.64-1.17.69.75 1.86 1.1 3.05 1.1.87 0 1.86-.2 2.58-.69.71.49 1.68.7 2.59.7 1.14 0 2.21-.36 2.93-.97v2.56h1.73v-2.28c.27.25.78.56 1.51.65.15.02.3.03.46.03 1.36 0 3.14-.82 3.14-2.74 0-1.79-1.44-2.66-3.19-2.66-.14 0-.27.01-.41.02-.63.07-1.12.3-1.51.57v-.5h-1.69v.81c-.71-.72-1.98-1.01-2.97-1.01-.9 0-1.87.2-2.59.7-.71-.5-1.69-.71-2.58-.71-1.68 0-3.66.72-3.66 2.76 0 .27.04.52.09.73-.36.4-.95.8-1.68.8-.97 0-1.65-.62-1.65-1.56 0-.88.68-1.53 1.56-1.53.45 0 .78.15.96.28l.71-1.12c-.35-.18-1.04-.43-1.96-.43-1.73 0-3.45.93-3.45 2.81s1.54 2.84 3.39 2.84Zm17.04-4.41h.02c.88 0 1.54.7 1.54 1.58 0 .85-.64 1.64-1.54 1.64h-.02c-.86-.01-1.55-.68-1.55-1.63s.71-1.59 1.55-1.59m-6.18.05c.84 0 1.53.68 1.53 1.53s-.68 1.53-1.53 1.53-1.53-.68-1.53-1.53.68-1.53 1.53-1.53m-5.17.03c.84 0 1.53.68 1.53 1.53s-.68 1.53-1.53 1.53-1.53-.68-1.53-1.53c0-.84.68-1.53 1.53-1.53"/>
</svg>
