<svg viewBox="0 0 32 32" xmlns="http://www.w3.org/2000/svg">
  <path d="M32 0v5.87H0V0zM11.43 22.21c0-2.71 1.02-5.19 2.68-7.09h-2.95c-.55 0-1-.45-1-1s.45-1 1-1h5.28c1.67-1.07 3.65-1.7 5.78-1.7 2.94 0 5.61 1.19 7.56 3.1l.4-6.42H1.83l1.49 23.88H17.7c-3.7-1.71-6.28-5.45-6.28-9.79Zm13.78-2.13c-.39 0-.64.29-.64.68s.26.68.64.68.64-.29.64-.68-.26-.68-.64-.68m5.12-3.34A9.7 9.7 0 0 1 32 22.21a9.78 9.78 0 0 1-2.23 6.22q-.3.36-.63.69c-.66.66-1.42 1.23-2.26 1.69a9.8 9.8 0 0 1-5.66 1.13 9.7 9.7 0 0 1-3.66-1.13 9.9 9.9 0 0 1-3.95-3.95 9.7 9.7 0 0 1-1.18-4.66c0-1.69.43-3.28 1.18-4.66a9.786 9.786 0 0 1 14.82-2.89c.72.6 1.36 1.3 1.89 2.08Zm-7.29 2.48a8.4 8.4 0 0 0-1.57-.16c-2.4 0-3.75 1.25-3.75 3.29s1.34 3.28 3.75 3.28c.56 0 1.1-.06 1.57-.16v-1.63c-.37.17-.84.29-1.36.29-1.2 0-1.93-.65-1.93-1.78s.75-1.79 1.93-1.79c.52 0 .99.12 1.36.29zm3.89 1.54c0-.98-.73-1.69-1.71-1.69s-1.71.72-1.71 1.69.73 1.69 1.71 1.69 1.71-.72 1.71-1.69"/>
</svg>
