<svg viewBox="0 0 64 64" xmlns="http://www.w3.org/2000/svg">
  <path d="M64-.02H0v17.98h3.18l2.94 46.02h51.76l2.94-46.02H64zm-8.7 61.25H8.7L5.93 17.96h52.14zm5.95-46.02H2.75V2.73h58.5zM14.92 32.32v-7.65h2.75v7.65c0 1.11.9 2.02 2.01 2.02h2.2v-9.61h2.75v9.61h2.2c1.11 0 2.01-.91 2.01-2.02v-7.65h2.75v7.65c0 2.63-2.13 4.77-4.76 4.77h-2.2v15.55c0 .76-.62 1.38-1.38 1.38s-1.38-.62-1.38-1.38V37.09h-2.2c-2.62 0-4.76-2.14-4.76-4.77Zm26.32 9.26v11.06c0 .76.62 1.38 1.38 1.38S44 53.4 44 52.64V41.58a6.976 6.976 0 0 0 5.58-6.84v-3.85c0-3.86-3.12-6.98-6.96-6.98s-6.95 3.12-6.95 6.97v3.86c0 3.38 2.4 6.2 5.58 6.84Zm-2.83-10.7c0-2.33 1.88-4.22 4.2-4.22s4.21 1.9 4.21 4.23v3.85c0 2.33-1.89 4.23-4.21 4.23s-4.21-1.9-4.21-4.23v-3.86Z"/>
</svg>
