<svg viewBox="0 0 48 48" xmlns="http://www.w3.org/2000/svg">
  <path d="M48 0H0v13.49h2.16L4.37 48h39.27l2.21-34.51h2.16V0Zm-2.5 2.5v8.48h-43V2.5zm-4.21 43H6.71L4.66 13.49h38.67L41.28 45.5ZM13.56 24.85h-3.09v-2.62h9.3v2.62h-3.09v7.72h-3.12zm14.72 7.73h-7.47V22.23h3.12v7.72h4.35v2.62Zm.6-7.13c0-2.11 1.75-3.39 4.56-3.39.94 0 1.86.13 2.76.43v2.61c-.92-.38-1.7-.6-2.78-.6-.93 0-1.47.24-1.47.71 0 .38.34.58 1.11.78l.93.24c1.95.51 2.94 1.49 2.94 3.13 0 2-1.49 3.39-4.41 3.39-1.65 0-2.64-.31-3.45-.63v-2.61c.95.43 2.04.79 3.09.79.92 0 1.65-.23 1.65-.79 0-.35-.24-.56-1.38-.87l-.86-.24c-1.88-.52-2.7-1.42-2.7-2.96Z"/>
</svg>
