<svg viewBox="0 0 24 24" xmlns="http://www.w3.org/2000/svg">
  <path d="m1.27 6.01 1.12 18.02H21.6l1.12-18.02zm10.93 5.41c0 1.18-.96 2.14-2.14 2.14h-.47v5.45c0 .48-.39.88-.88.88s-.88-.39-.88-.88v-5.45h-.47c-1.18 0-2.14-.96-2.14-2.14V8.56h1.75v2.86c0 .22.18.39.39.39h.47V8.58h1.75v3.23h.47c.22 0 .39-.18.39-.39V8.56h1.75v2.86Zm6.39-.53v1.43c0 .9-.46 1.7-1.15 2.16-.18.12-.38.21-.58.28V19c0 .48-.39.88-.88.88s-.88-.39-.88-.88v-4.24c-.21-.07-.41-.16-.58-.28a2.61 2.61 0 0 1-1.15-2.16v-1.43c0-.9.46-1.7 1.15-2.16.42-.28.92-.45 1.46-.45s1.04.16 1.46.45c.69.47 1.15 1.26 1.15 2.16M0 .03h24v3.96H0z"/>
</svg>
