<svg viewBox="0 0 40 40" xmlns="http://www.w3.org/2000/svg">
  <path d="M38.86 33.34c-.56.56-1.3.91-2.14 1.01-.25.03-.48.14-.66.32l-3.32 3.3c-2.17 2.16-6.56 3.01-8.75.83l-7.31-7.24c-.25-.25-.39-.58-.39-.93s.14-.68.39-.93.56-.36.88-.36c.27 0 .54.08.78.25.03.02.06.02.09.04l3.31 3.29c.22.22.51.33.8.33s.58-.11.8-.33c.44-.44.44-1.15 0-1.59l-3.51-3.49s0-.02-.02-.02l-1.87-1.86c-.25-.25-.39-.58-.39-.93s.14-.68.39-.93c.48-.48 1.27-.5 1.8-.04.03.02.06.03.09.05l3.57 3.55c.22.22.51.33.8.33s.58-.11.8-.33c.44-.44.44-1.15 0-1.59l-5.51-5.48c-.17-.22-.29-.48-.29-.77 0-.34.13-.66.38-.91.43-.43 1.09-.47 1.62-.1l3.63 3.61c.22.22.51.33.8.33s.58-.11.8-.33c.44-.44.44-1.15 0-1.59L22 16.42c-1.47-1.51-2.69-2.77-3.13-3.23-.03-.04-.07-.08-.11-.12-.25-.25-.38-.57-.38-.92s.14-.67.38-.92c.49-.49 1.35-.49 1.84 0l12.52 12.46c.33.33.82.42 1.24.24s.7-.6.68-1.06l-.19-6.73c-.02-.36.09-.67.32-.9.23-.22.54-.33.9-.32.84.05 1.58.78 1.62 1.62 0 .04 0 .08.01.12l1.93 11.63c.01.1.04.2.08.33.55 2.02.26 3.55-.88 4.69Zm-23.78-.18 6.82 6.76H3.39a3.38 3.38 0 0 1-3.38-3.37v-4.03h14.57c.14.23.3.44.5.64m-1.1.86h-2.26v2.24h2.26zm5.1-25.3V7.56H6.88v6.19h9.63a3.485 3.485 0 0 1 .66-4.07c.52-.52 1.2-.83 1.91-.95Zm-4 19.4c.32-.32.7-.57 1.1-.74l-.06-.09c-.34-.41-.57-.89-.7-1.4H4.63v-2.24h10.96a3.5 3.5 0 0 1 1.93-1.9c-.14-.21-.24-.43-.33-.66H4.63v-2.24h12.48c.16-.56.45-1.08.88-1.5.31-.31.67-.55 1.06-.72-.22-.23-.42-.44-.61-.63H4.63V5.32h16.71v3.75c.31.16.61.35.87.6l3.47 3.46V3.44A3.38 3.38 0 0 0 22.3.07H3.39C1.53.08.01 1.59.01 3.44v26.83h14.06c.08-.79.41-1.55 1.01-2.15"/>
</svg>
