<svg viewBox="0 0 16 16" xmlns="http://www.w3.org/2000/svg">
  <path d="M16 0H0v4.5h1.09L1.76 16h12.49l.67-11.5h1.09V0Zm-1.5 1.49v1.49h-13V1.49zm-1.67 13H3.17L2.59 4.48h10.82zM4.57 8.26H3.54v-.88h3.1v.88H5.61v2.57H4.57zm4.91 2.58H6.99V7.39h1.04v2.57h1.45zm.19-2.38c0-.71.59-1.13 1.52-1.13.32 0 .62.04.92.15v.87c-.31-.12-.57-.2-.93-.2-.31 0-.49.08-.49.24 0 .12.11.19.37.26l.31.08c.65.17.98.49.98 1.04 0 .67-.5 1.13-1.47 1.13-.55 0-.88-.1-1.15-.21v-.87c.31.14.68.26 1.03.26.31 0 .55-.08.55-.26 0-.12-.08-.19-.46-.29l-.29-.08c-.62-.17-.9-.48-.9-.98Z"/>
</svg>
