<svg viewBox="0 0 40 40" xmlns="http://www.w3.org/2000/svg">
  <path d="M40 0H0v11.24h1.64L3.49 40h33.02l1.85-28.76H40zm-5.6 37.76H5.6L3.9 11.25h32.2zM2.25 2.26h35.5V9H2.25zM11.3 20.7H8.73v-2.19h7.75v2.19h-2.57v6.44h-2.6V20.7Zm12.26 6.43h-6.22v-8.62h2.6v6.44h3.62v2.19Zm.51-5.94c0-1.76 1.46-2.82 3.8-2.82.79 0 1.55.11 2.3.36v2.17c-.76-.31-1.41-.5-2.31-.5-.77 0-1.22.2-1.22.59 0 .31.29.49.92.65l.77.2c1.62.42 2.45 1.24 2.45 2.61 0 1.66-1.24 2.83-3.67 2.83-1.37 0-2.2-.26-2.87-.53v-2.17c.79.36 1.7.66 2.57.66.76 0 1.38-.19 1.38-.66 0-.29-.2-.46-1.15-.72l-.71-.2c-1.56-.44-2.25-1.19-2.25-2.46Z"/>
</svg>
