<svg viewBox="0 0 32 32" xmlns="http://www.w3.org/2000/svg">
  <path d="m1.83 8.11 1.49 23.88h25.36l1.49-23.88zm14.27 7.82c0 1.48-1.21 2.69-2.69 2.69h-.79v7.44c0 .55-.45 1-1 1s-1-.45-1-1v-7.44h-.79c-1.48 0-2.69-1.21-2.69-2.69v-3.82h2v3.82c0 .38.31.69.69.69h.79v-4.48h2v4.48h.79c.38 0 .69-.31.69-.69v-3.82h2zm8.69 1.21c0 .72-.22 1.39-.59 1.95-.13.19-.27.36-.43.52-.4.4-.9.69-1.46.86v5.61c0 .55-.45 1-1 1s-1-.45-1-1v-5.61c-.05-.02-.1-.03-.15-.05-.14-.05-.28-.11-.41-.18-.33-.17-.64-.37-.9-.63a3.45 3.45 0 0 1-1.02-2.47v-1.92a3.487 3.487 0 0 1 3.48-3.48c.72 0 1.39.22 1.95.59.93.63 1.54 1.69 1.54 2.89v1.92ZM0 0h32v5.87H0z"/>
</svg>
