<svg viewBox="0 0 16 16" xmlns="http://www.w3.org/2000/svg">
  <path d="M0 .02h16v2.05H0zm14.7 3.84L14 16.02H1.99l-.7-12.16zM6.64 7.38h-3.1v.87h1.03v2.57h1.04V8.25h1.03zm2.83 2.57H8.02V7.38H6.98v3.44h2.49zm2.88-.19c0-.55-.33-.87-.98-1.04l-.31-.08c-.25-.07-.37-.13-.37-.26 0-.15.18-.23.49-.23.36 0 .62.07.92.2v-.87c-.3-.1-.61-.15-.92-.15-.93 0-1.52.42-1.52 1.13 0 .51.27.81.9.98l.28.08c.38.11.46.18.46.29 0 .19-.24.26-.55.26-.35 0-.71-.12-1.03-.26v.87c.27.11.6.21 1.15.21.97 0 1.47-.46 1.47-1.13Z"/>
</svg>
