<svg viewBox="0 0 32 32" xmlns="http://www.w3.org/2000/svg">
  <path d="M0 0h32v5.87H0zm30.17 8.11-1.49 23.88H3.32L1.83 8.11zm-17 6.68h-6.2v1.75h2.06v5.15h2.08v-5.15h2.06zm5.68 5.15h-2.9v-5.15h-2.08v6.9h4.98zm5.77-.39c0-1.1-.66-1.75-1.96-2.09l-.62-.16c-.51-.13-.74-.27-.74-.52 0-.31.36-.47.98-.47.72 0 1.24.15 1.85.4v-1.74c-.6-.2-1.21-.29-1.84-.29-1.87 0-3.04.85-3.04 2.26 0 1.02.55 1.62 1.8 1.97l.57.16c.76.21.92.35.92.58 0 .38-.49.53-1.1.53-.7 0-1.43-.24-2.06-.53v1.74c.54.21 1.2.42 2.3.42 1.95 0 2.94-.93 2.94-2.26"/>
</svg>
