<svg viewBox="0 0 48 48" xmlns="http://www.w3.org/2000/svg">
  <path d="M48 .03v9.62H0V.03zM17.31 33.34c0-4.21 1.65-8.02 4.32-10.87h-4.9a1.25 1.25 0 0 1 0-2.5h7.89c2.49-1.61 5.45-2.56 8.62-2.56 4.64 0 8.81 2.01 11.72 5.18l.65-10.17H2.39l2.28 35.61h22.41c-5.73-2.41-9.77-8.09-9.77-14.69m20.43-3.2c-.58 0-.97.44-.97 1.02s.39 1.02.97 1.02.97-.44.97-1.02-.39-1.02-.97-1.02m10.18 3.2c0 3.55-1.26 6.8-3.35 9.34-2.69 3.26-6.77 5.34-11.33 5.34s-8.64-2.08-11.33-5.34a14.65 14.65 0 0 1-3.35-9.34c0-8.11 6.57-14.68 14.68-14.68s14.68 6.57 14.68 14.68m-13.44-4.49c-.7-.14-1.52-.24-2.36-.24-3.61 0-5.62 1.88-5.62 4.93s2.02 4.92 5.62 4.92c.84 0 1.66-.1 2.36-.24v-2.45c-.55.26-1.26.43-2.04.43-1.8 0-2.9-.98-2.9-2.67s1.12-2.68 2.9-2.68c.79 0 1.49.18 2.04.43v-2.45Zm5.83 2.31c0-1.46-1.09-2.54-2.57-2.54s-2.57 1.08-2.57 2.54 1.09 2.54 2.57 2.54 2.57-1.08 2.57-2.54"/>
</svg>
