<svg viewBox="0 0 48 48" xmlns="http://www.w3.org/2000/svg">
  <path d="M48 0H0v13.49h2.16L4.37 48h39.27l2.21-34.51h2.16V0Zm-2.5 2.5v8.48h-43V2.5zm-4.21 43H6.71L4.67 13.49h38.67zM10.96 24.27v-5.74h2.5v5.74c0 .71.58 1.29 1.29 1.29h1.43v-6.98h2.5v6.98h1.43c.71 0 1.29-.58 1.29-1.29v-5.74h2.5v5.74c0 2.09-1.7 3.79-3.79 3.79h-1.43v11.43a1.25 1.25 0 0 1-2.5 0V28.06h-1.43c-2.09 0-3.79-1.7-3.79-3.79m19.75 6.88v8.35a1.25 1.25 0 0 0 2.5 0v-8.35a5.21 5.21 0 0 0 3.97-5.06v-2.88c0-2.89-2.34-5.23-5.22-5.23s-5.21 2.34-5.21 5.22v2.89c0 2.45 1.69 4.5 3.97 5.06Zm-1.47-7.95c0-1.5 1.22-2.72 2.71-2.72.73 0 1.41.28 1.92.8.52.52.8 1.2.8 1.93v2.88c0 1.48-1.19 2.69-2.66 2.72-.02 0-.04-.01-.06-.01s-.04.01-.06.01a2.724 2.724 0 0 1-2.66-2.72V23.2Z"/>
</svg>
