<svg viewBox="0 0 64 64" xmlns="http://www.w3.org/2000/svg">
  <path d="M64-.02H0v17.98h3.18l2.94 46.02h51.76l2.94-46.02H64zm-8.7 61.25H8.7L5.93 17.96h52.14zm5.95-46.02H2.75V2.73h58.5zM20.48 39.19c1.56 0 2.82-.78 3.52-1.56.92 1 2.47 1.47 4.06 1.47 1.16 0 2.48-.26 3.45-.93.95.66 2.24.94 3.45.94 1.52 0 2.95-.48 3.91-1.29v3.42h2.3V38.2c.36.33 1.04.75 2.01.87.2.03.4.04.61.04 1.81 0 4.18-1.09 4.18-3.65 0-2.38-1.91-3.55-4.25-3.55-.19 0-.37.02-.55.03-.84.1-1.5.4-2.01.76v-.67h-2.25v1.08c-.95-.96-2.64-1.35-3.96-1.35-1.19 0-2.5.27-3.45.94-.95-.66-2.25-.94-3.45-.94-2.25 0-4.88.96-4.88 3.68 0 .36.06.69.11.98-.48.54-1.27 1.07-2.25 1.07-1.29 0-2.2-.82-2.2-2.09 0-1.17.9-2.03 2.08-2.03.59 0 1.03.2 1.28.37l.94-1.5c-.47-.24-1.39-.57-2.61-.57-2.31 0-4.6 1.25-4.6 3.75s2.06 3.79 4.53 3.79Zm22.72-5.88h.02c1.17 0 2.05.93 2.05 2.11 0 1.13-.85 2.19-2.05 2.19h-.02c-1.14-.02-2.07-.9-2.07-2.17s.95-2.12 2.07-2.12Zm-8.23.07c1.12 0 2.03.91 2.03 2.04s-.91 2.04-2.03 2.04-2.04-.91-2.04-2.04.91-2.04 2.04-2.04m-6.9.04c1.12 0 2.04.91 2.04 2.03s-.91 2.04-2.04 2.04-2.05-.91-2.05-2.04c0-1.12.91-2.03 2.05-2.03"/>
</svg>
