<svg viewBox="0 0 16 16" xmlns="http://www.w3.org/2000/svg">
  <path d="M16 .02v2.05H0V.02zM4.64 10.67c0-1.05.27-2.03.74-2.89a.74.74 0 0 1-.54-.7c0-.41.34-.75.75-.75h.9a6.04 6.04 0 0 1 4.2-1.7c1.48 0 2.84.54 3.9 1.43l.13-2.2H1.3L2 16.02h5.87a6.04 6.04 0 0 1-3.23-5.34Zm11.35 0c0 2.92-2.37 5.3-5.3 5.3s-5.3-2.37-5.3-5.3 2.37-5.3 5.3-5.3 5.3 2.37 5.3 5.3m-4.85-1.62c-.26-.05-.55-.08-.85-.08-1.3 0-2.03.68-2.03 1.78s.73 1.78 2.03 1.78c.31 0 .6-.04.85-.09v-.88c-.2.1-.46.15-.74.15-.65 0-1.05-.35-1.05-.96s.4-.97 1.05-.97c.28 0 .54.06.74.15zm2.1.83c0-.53-.39-.92-.93-.92s-.93.39-.93.92.39.92.93.92.93-.39.93-.92m-.93-.37c-.21 0-.35.16-.35.37s.14.37.35.37.35-.16.35-.37-.14-.37-.35-.37"/>
</svg>
