<svg viewBox="0 0 32 32" xmlns="http://www.w3.org/2000/svg">
  <path d="M32-.03H0v8.99h1.62l1.44 23.01h25.88l1.44-23.01H32zm-4.94 30H4.94l-1.31-21h24.74zM2 1.97h28v4.99H2zm7.04 14.58H6.98V14.8h6.2v1.75h-2.06v5.15H9.04zm9.81 5.14h-4.98v-6.9h2.08v5.15h2.9zm.4-4.74c0-1.41 1.17-2.26 3.04-2.26.63 0 1.24.09 1.84.29v1.74c-.61-.25-1.13-.4-1.85-.4-.62 0-.98.16-.98.47 0 .25.23.39.74.52l.62.16c1.3.34 1.96.99 1.96 2.09 0 1.33-.99 2.26-2.94 2.26-1.1 0-1.76-.21-2.3-.42v-1.74c.63.29 1.36.53 2.06.53.61 0 1.1-.15 1.1-.53 0-.23-.16-.37-.92-.58l-.57-.16c-1.25-.35-1.8-.95-1.8-1.97"/>
</svg>
