<svg viewBox="0 0 40 40" xmlns="http://www.w3.org/2000/svg">
  <path d="M40 .03v7.75H0V.03zM14.43 27.75c0-3.44 1.32-6.58 3.47-8.94h-3.95c-.62 0-1.12-.5-1.12-1.12s.5-1.12 1.12-1.12h6.59c2.08-1.35 4.56-2.14 7.22-2.14 3.91 0 7.42 1.7 9.86 4.39l.55-8.53H1.84l1.91 29.74h18.81c-4.77-2.03-8.12-6.77-8.12-12.27Zm24.07-5.81c.94 1.73 1.47 3.71 1.47 5.82 0 6.74-5.47 12.21-12.21 12.21S15.55 34.5 15.55 27.76c0-2.11.53-4.09 1.47-5.82 1.13-2.08 2.84-3.79 4.92-4.92 1.73-.94 3.71-1.47 5.82-1.47s4.09.53 5.82 1.47c2.08 1.13 3.79 2.84 4.92 4.92m-9.7 2.09c-.59-.12-1.26-.2-1.96-.2-3 0-4.68 1.56-4.68 4.1s1.68 4.09 4.68 4.09c.7 0 1.38-.08 1.96-.2v-2.03c-.46.22-1.05.36-1.7.36-1.49 0-2.41-.82-2.41-2.22s.93-2.23 2.41-2.23c.65 0 1.24.15 1.7.36zm4.84 1.91c0-1.22-.91-2.11-2.14-2.11s-2.14.9-2.14 2.11.91 2.11 2.14 2.11 2.14-.9 2.14-2.11m-2.13-.85c-.48 0-.8.37-.8.85s.32.85.8.85.8-.37.8-.85-.32-.85-.8-.85"/>
</svg>
