<svg viewBox="0 0 40 40" xmlns="http://www.w3.org/2000/svg">
  <path d="M0 0v11.24h1.64L3.49 40h18.96c-1.29-.56-2.47-1.33-3.51-2.25H5.6L3.9 11.24h32.2l-.37 5.83c.78.58 1.49 1.24 2.13 1.97l.5-7.8H40V0zm2.25 2.26h35.5V9H2.25zm18.33 14.28c-.98.63-1.87 1.39-2.66 2.25h-3.98c-.62 0-1.12-.5-1.12-1.12s.5-1.12 1.12-1.12h6.64Zm7.19-1c-6.75 0-12.23 5.47-12.23 12.23S21.01 40 27.77 40 40 34.53 40 27.77s-5.47-12.23-12.23-12.23m0 22.2c-5.5 0-9.98-4.48-9.98-9.98s4.48-9.98 9.98-9.98 9.98 4.48 9.98 9.98-4.48 9.98-9.98 9.98m-.93-13.9c.7 0 1.38.08 1.97.2v2.04c-.46-.21-1.05-.36-1.7-.36-1.48 0-2.42.82-2.42 2.23s.92 2.22 2.42 2.22c.66 0 1.24-.14 1.7-.36v2.04c-.59.12-1.27.2-1.97.2-3 0-4.68-1.55-4.68-4.1s1.68-4.11 4.68-4.11m4.68 0c-1.23 0-2.14.9-2.14 2.12s.91 2.12 2.14 2.12 2.14-.9 2.14-2.12-.91-2.12-2.14-2.12m0 2.97c-.48 0-.81-.37-.81-.85s.32-.85.81-.85.8.37.8.85-.32.85-.8.85"/>
</svg>
