<svg viewBox="0 0 64 64" xmlns="http://www.w3.org/2000/svg">
  <path d="M.53 13.99v.04H.02V.02h63.96v14.01h-.51v-.04zm22.95 30.45c0-5.78 2.36-11.03 6.16-14.82H22.3c-.76 0-1.38-.62-1.38-1.38s.62-1.38 1.38-1.38h10.76c3.28-2.13 7.18-3.38 11.38-3.38 6.01 0 11.42 2.56 15.25 6.62l.85-13.32H3.46l3.03 47.19H36.9c-7.84-3.04-13.42-10.64-13.42-19.53m26.97-4.27c-.77 0-1.29.59-1.29 1.36s.52 1.36 1.29 1.36 1.29-.59 1.29-1.36-.52-1.36-1.29-1.36m13.57 4.27c0 1.35-.14 2.67-.4 3.95-1.57 7.65-7.59 13.67-15.24 15.24a19.7 19.7 0 0 1-9.77-.48c-1.23-.38-2.4-.88-3.51-1.48-.55-.3-1.09-.63-1.61-.98-1.04-.7-2.01-1.51-2.9-2.39s-1.69-1.86-2.39-2.9a19.55 19.55 0 0 1-3.35-10.95c0-10.81 8.77-19.58 19.58-19.58 1.35 0 2.67.14 3.95.4 2.55.52 4.92 1.54 7 2.95 1.04.7 2.01 1.51 2.9 2.39.89.89 1.69 1.86 2.39 2.9.35.52.68 1.06.98 1.61.6 1.11 1.1 2.28 1.48 3.51.57 1.84.88 3.79.88 5.82ZM46.1 38.45c-.94-.18-2.03-.31-3.15-.31-4.81 0-7.5 2.51-7.5 6.58s2.69 6.56 7.5 6.56c1.12 0 2.21-.13 3.15-.31v-3.26c-.74.35-1.68.57-2.73.57-2.4 0-3.87-1.31-3.87-3.56s1.49-3.58 3.87-3.58c1.05 0 1.99.24 2.73.57zm7.78 3.08c0-1.95-1.46-3.39-3.43-3.39s-3.43 1.44-3.43 3.39 1.46 3.39 3.43 3.39 3.43-1.44 3.43-3.39"/>
</svg>
