<svg viewBox="0 0 40 40" xmlns="http://www.w3.org/2000/svg">
  <path d="m1.83 10.28 1.91 29.74h32.52l1.91-29.74zm14.65 10.41h-2.57v6.43h-2.59v-6.43H8.75v-2.18h7.74v2.18Zm7.08 6.43h-6.21v-8.61h2.6v6.43h3.62v2.18Zm3.53.15c-1.37 0-2.2-.26-2.87-.52v-2.17c.79.36 1.7.66 2.57.66.76 0 1.37-.19 1.37-.66 0-.29-.2-.46-1.15-.72l-.71-.2c-1.56-.44-2.25-1.18-2.25-2.46 0-1.76 1.46-2.82 3.79-2.82.79 0 1.55.11 2.3.36v2.17c-.76-.31-1.41-.5-2.31-.5-.77 0-1.22.2-1.22.59 0 .31.29.49.92.65l.77.2c1.62.42 2.45 1.24 2.45 2.61 0 1.66-1.24 2.82-3.67 2.82ZM0 .03h40v7.75H0z"/>
</svg>
