<svg viewBox="0 0 24 24" xmlns="http://www.w3.org/2000/svg">
  <path d="M0 0v6.74h1.11L2.18 24h10.83a8.2 8.2 0 0 1-2.35-1.75H3.83L2.87 6.74h18.27l-.18 2.93c.61.38 1.18.84 1.67 1.36l.27-4.29h1.11V0zm22.25 1.76V5H1.75V1.76zM10.3 11.47H8.35c-.48 0-.88-.39-.88-.88s.39-.88.88-.88h3.94a8.3 8.3 0 0 0-1.99 1.75Zm6.36-2.15c-4.05 0-7.34 3.28-7.34 7.34S12.6 24 16.66 24 24 20.72 24 16.66s-3.28-7.34-7.34-7.34m0 12.93c-3.08 0-5.59-2.51-5.59-5.59s2.51-5.59 5.59-5.59 5.59 2.51 5.59 5.59-2.51 5.59-5.59 5.59m-.56-7.94c.42 0 .83.05 1.18.12v1.22c-.28-.12-.63-.21-1.02-.21-.89 0-1.45.49-1.45 1.34s.55 1.33 1.45 1.33c.39 0 .74-.08 1.02-.21v1.22c-.35.07-.76.12-1.18.12-1.8 0-2.81-.93-2.81-2.46s1.01-2.46 2.81-2.46Zm2.81 0c-.74 0-1.28.54-1.28 1.27s.54 1.27 1.28 1.27 1.28-.54 1.28-1.27-.54-1.27-1.28-1.27m0 1.78c-.29 0-.48-.22-.48-.51s.19-.51.48-.51.48.22.48.51-.19.51-.48.51"/>
</svg>
