<svg viewBox="0 0 24 24" xmlns="http://www.w3.org/2000/svg">
  <path d="M24 0H0v6.74h1.11L2.18 24h19.63l1.07-17.26h1.11V0Zm-1.75 1.76V5H1.75V1.76zm-2.08 20.5H3.83L2.87 6.75h18.27l-.96 15.51Zm-12.48-7.5c.59 0 1.06-.29 1.32-.59.35.37.93.55 1.52.55.44 0 .93-.1 1.29-.35.36.25.84.35 1.29.35.57 0 1.11-.18 1.47-.48v1.28h.86v-1.14c.13.13.39.28.75.33.07 0 .15.01.23.01.68 0 1.57-.41 1.57-1.37 0-.89-.72-1.33-1.59-1.33-.07 0-.14 0-.2.01-.31.04-.56.15-.75.28v-.25h-.85v.41c-.36-.36-.99-.51-1.48-.51-.45 0-.94.1-1.29.35-.36-.25-.84-.35-1.29-.35-.84 0-1.83.36-1.83 1.38 0 .13.02.26.04.37-.18.2-.48.4-.84.4-.48 0-.82-.31-.82-.78 0-.44.34-.76.78-.76.22 0 .39.08.48.14l.35-.56a2.2 2.2 0 0 0-.98-.21c-.87 0-1.72.47-1.72 1.41s.77 1.42 1.7 1.42Zm8.52-2.2c.44 0 .77.35.77.79 0 .42-.32.82-.77.82-.43 0-.78-.34-.78-.82s.36-.79.78-.8Zm-3.09.02c.42 0 .76.34.76.77s-.34.76-.76.76-.76-.34-.76-.76.34-.77.76-.77m-2.59.02a.76.76 0 1 1 0 1.52c-.42 0-.77-.34-.77-.76s.34-.76.77-.76"/>
</svg>
