<svg viewBox="0 0 16 16" xmlns="http://www.w3.org/2000/svg">
  <path d="M15.99 0H0v4.5h1.09L1.75 16h12.48l.66-11.5h1.09V0Zm-1.5 1.49v1.49H1.5V1.49zm-1.66 13H3.17L2.59 4.48H13.4l-.58 10.01ZM5.12 9.83c.39 0 .7-.2.88-.39.23.25.62.37 1.01.37.29 0 .62-.07.86-.23.24.16.56.23.86.23.38 0 .74-.12.98-.32v.85h.58v-.76c.09.08.26.19.5.22h.15c.45 0 1.05-.27 1.05-.91 0-.6-.48-.89-1.06-.89h-.14c-.21.02-.37.1-.5.19v-.17h-.56v.27c-.24-.24-.66-.34-.99-.34-.3 0-.62.07-.86.23-.24-.17-.56-.23-.86-.23-.56 0-1.22.24-1.22.92q0 .135.03.24c-.12.13-.32.27-.56.27-.32 0-.55-.21-.55-.52 0-.29.23-.51.52-.51.15 0 .26.05.32.09l.24-.37c-.12-.06-.35-.14-.65-.14-.58 0-1.15.31-1.15.94 0 .62.51.95 1.13.95Zm5.67-1.47c.29 0 .51.23.51.53s-.21.55-.51.55c-.28 0-.52-.23-.52-.54s.24-.53.52-.53Zm-2.06.02c.28 0 .51.23.51.51s-.23.51-.51.51-.51-.23-.51-.51.23-.51.51-.51m-1.72.01c.28 0 .51.23.51.51s-.23.51-.51.51-.51-.23-.51-.51.23-.51.51-.51"/>
</svg>
