<svg viewBox="0 0 32 32" xmlns="http://www.w3.org/2000/svg">
  <path d="m31.97 9.39-5.7-7.06H3.7v9.06H2.48c-1.38 0-2.51 1.13-2.51 2.51v13.54c0 1.38 1.13 2.51 2.51 2.51h17.33v-4.12h12.15V9.39Zm-2.59-.01-4.46-.02V4.35h.4l4.06 5.04ZM17.81 27.94H2.48c-.28 0-.5-.23-.5-.5V13.9c0-.28.23-.5.5-.5H17.3c.28 0 .5.23.5.5v14.04Zm2.01-4.12V13.9c0-1.38-1.13-2.51-2.51-2.51H5.71V4.34h17.2v5.01c0 1.12.91 2.04 2.04 2.04h5.01v12.43H19.81ZM6.79 17.2H4.03v7.14h2.15v-2.19h.61c1.89 0 3.3-.58 3.3-2.48s-1.41-2.46-3.3-2.46Zm.03 3.27h-.64v-1.6h.64c.63 0 1.04.18 1.04.8s-.41.81-1.04.81Zm6.4-3.27h-2.76v7.14h2.15v-2.19h.61c1.89 0 3.3-.58 3.3-2.48s-1.41-2.46-3.3-2.46Zm.04 3.27h-.64v-1.6h.64c.63 0 1.04.18 1.04.8s-.41.81-1.04.81Z"/>
</svg>
