<svg viewBox="0 0 64 64" xmlns="http://www.w3.org/2000/svg">
  <path d="M45.43.04H7.4V16.8H2.89c-1.58 0-2.87 1.29-2.87 2.88v28.97c0 1.58 1.29 2.87 2.87 2.87h4.5v12.52h49.34V14.06zm8.11 14.44h-9.87c-.76 0-1.38-.62-1.38-1.38V2.79h1.82zM2.77 48.65V19.68c0-.07.06-.12.12-.12h31.46c.07 0 .12.06.12.12v29.1H2.89c-.07 0-.12-.05-.12-.12Zm7.37 12.65v-9.77h27.08V19.69c0-1.58-1.29-2.87-2.87-2.87H10.14V2.79h29.4V13.1c0 2.28 1.85 4.13 4.13 4.13h10.31V61.3zm14.54-34.85h5.06L26.77 43h-5.56l-2.57-10.67L15.98 43h-5.54L7.49 26.45h5.08l1.25 11.13 2.33-11.13h4.96l2.66 11.2z"/>
</svg>
