<svg viewBox="0 0 32 32" xmlns="http://www.w3.org/2000/svg">
  <path d="M22.71 0H3.62v8.1H2.5A2.486 2.486 0 0 0 0 10.59v13.02a2.5 2.5 0 0 0 2.5 2.5h1.12v5.88h24.79V7.07zm3.12 7.06h-4.14c-.19 0-.35-.16-.35-.35V1.99h.4l4.08 5.07ZM2 23.61V10.59c0-.28.22-.5.5-.5h14.24c.28 0 .5.22.5.5v13.52H2.5c-.28 0-.5-.22-.5-.5m3.62 6.38v-3.88h13.62V10.59a2.5 2.5 0 0 0-2.5-2.5H5.62v-6.1h13.72v4.72c0 1.3 1.05 2.35 2.35 2.35h4.71v20.92H5.62Zm5.78-12.58 2.93 4.12H11.4l-1.69-2.44-1.64 2.44H5.25l2.89-4.07-2.82-4.22H8.2l1.62 2.49 1.63-2.49h2.76z"/>
</svg>
