<svg viewBox="0 0 64 64" xmlns="http://www.w3.org/2000/svg">
  <path d="M45.59 0H7.56v64H56.9V14.01zm-1.25 2.83 7.85 9.73h-7.38a.47.47 0 0 1-.47-.47zM10.31 61.25V2.75h31.28v9.34c0 1.77 1.44 3.22 3.22 3.22h9.34v45.94zM24.3 47.1c1-.51 1.47-1.19 1.47-2.32 0-2.24-1.63-3.15-4.79-3.15H16.1v11.69h5.47c2.86 0 4.71-1 4.71-3.63 0-1.25-.71-2.1-1.98-2.59m-4.68-2.79h1.59c.56 0 .95.36.95.95 0 .63-.39.97-.95.97h-1.59v-1.91Zm1.88 6.34h-1.88v-2.08h1.93c.64 0 1.05.39 1.05 1.03s-.42 1.05-1.1 1.05m11.17-4.44h5.86v6.25c-1.22.63-2.98 1.07-4.8 1.07-3.52 0-6.61-1.81-6.61-5.93s3-6.15 7.42-6.15c1.1 0 2.41.12 3.25.29v3a9.3 9.3 0 0 0-3.12-.53c-1.95 0-3.83.71-3.83 3.42 0 2.42 1.61 3.13 2.91 3.13.53 0 1.19-.07 1.53-.2v-1.64h-2.63v-2.71Zm7.5-4.58h8.62v2.97h-5.13v1.44h4.78v2.8h-4.75v4.49h-3.52V41.64Z"/>
</svg>
