<svg viewBox="0 0 24 24" xmlns="http://www.w3.org/2000/svg">
  <path d="M17.14 0H2.71v24h18.74V5.33zm2 5.25h-2.95V1.74h.11l2.84 3.5ZM4.46 22.26V1.74h9.98v3.61c0 .9.74 1.64 1.65 1.64h3.62v15.27zm6.91-9.11-4.85-.5.45-4.34c.05-.48.48-.82.96-.78.48.05.83.48.78.96l-.16 1.52a5.5 5.5 0 0 1 3.67-1.4c3.07 0 5.57 2.49 5.57 5.55h-1.75c0-2.1-1.71-3.81-3.82-3.81-.9 0-1.74.32-2.42.89l1.75.18c.48.05.83.48.78.96-.05.45-.43.78-.87.78h-.09Zm1.65 2.5 4.85.5-.45 4.34c-.05.45-.43.78-.87.78h-.09a.875.875 0 0 1-.78-.96l.16-1.52a5.5 5.5 0 0 1-3.67 1.4c-3.07 0-5.57-2.49-5.57-5.55h1.75c0 2.1 1.71 3.81 3.82 3.81.9 0 1.74-.32 2.42-.88l-1.75-.18a.875.875 0 0 1-.78-.96c.05-.48.48-.82.96-.78"/>
</svg>
