<svg viewBox="0 0 48 48" xmlns="http://www.w3.org/2000/svg">
  <path d="M9.99 25.75H5.8v10.83h3.27v-3.33H10c2.87 0 5.01-.88 5.01-3.77s-2.14-3.74-5.01-3.74Zm.05 4.96h-.97v-2.43h.97c.96 0 1.59.27 1.59 1.21s-.63 1.22-1.59 1.22m10.02-4.96h-4.19v10.83h3.27v-3.33h.93c2.87 0 5.01-.88 5.01-3.77s-2.14-3.74-5.01-3.74Zm.05 4.96h-.97v-2.43h.97c.96 0 1.59.27 1.59 1.21s-.63 1.22-1.59 1.22m27.81-16.7-8.5-10.53H5.58v13.74H2.66c-1.51 0-2.75 1.23-2.75 2.75v22.11c0 1.51 1.23 2.75 2.75 2.75h26.81v-6.25h18.44V14.01ZM26.98 42.32H2.66c-.14 0-.25-.11-.25-.25V19.96c0-.14.11-.25.25-.25h24.07c.14 0 .25.11.25.25zm11.54-26.26c-1.13 0-2.04-.91-2.04-2.04V5.36l9.21 10.7h-7.16Z"/>
</svg>
