<svg viewBox="0 0 48 48" xmlns="http://www.w3.org/2000/svg">
  <path d="M34.21 0H5.61v48h37.12V10.56zm5.45 10.73h-7.33c-.18 0-.32-.15-.32-.32V2.5h1.01zM8.11 45.51V2.5H29.5v7.9c0 1.56 1.27 2.82 2.82 2.82h7.91V45.5H8.11Zm14.66-19.68-9.36-.96.86-8.34c.07-.69.7-1.19 1.37-1.11.69.07 1.19.68 1.12 1.37l-.46 4.46.43-.41c2.02-2.07 4.77-3.23 7.71-3.23 5.97 0 10.82 4.85 10.82 10.81h-2.5c0-4.58-3.73-8.32-8.32-8.32-2.26 0-4.38.89-5.96 2.51l-.25.24 4.79.49a1.248 1.248 0 0 1-.12 2.49zM26.03 32l9.36.97-.86 8.34c-.07.64-.61 1.12-1.24 1.12h-.13c-.69-.07-1.19-.68-1.11-1.37l.46-4.46-.43.41c-2.02 2.07-4.77 3.23-7.71 3.23-5.97 0-10.82-4.85-10.82-10.82h2.5c0 4.59 3.73 8.32 8.32 8.32 2.26 0 4.38-.89 5.96-2.51l.25-.24-4.79-.49c-.69-.07-1.19-.68-1.12-1.37s.7-1.19 1.37-1.11Z"/>
</svg>
