<svg viewBox="0 0 64 64" xmlns="http://www.w3.org/2000/svg">
  <path d="M52.78.01H15.03v12.18H2.17c-1.18 0-2.14.96-2.14 2.14v9.71h.1c.68 5.1 5.04 9.04 10.32 9.04 1.64 0 3.19-.39 4.57-1.07v3.28H0v28.68h2.75V60.5h13.47v3.47h-1.19V64H64V13.92zm-1.27 2.81 9.29 11.52h-8.56c-.4 0-.73-.33-.73-.73zM2.78 14.94h15.34v6.35H2.78zm.13 9.1h15.1c-.65 3.58-3.79 6.3-7.55 6.3s-6.9-2.72-7.55-6.3m21.32 23.18v10.54h-5.94L4.06 38.04h10.99c5.06 0 9.18 4.12 9.18 9.18M2.75 57.76V40.92l12.16 16.84zm16.22 3.5v-.75h8.02V47.42h19.1l-5.12 5.12c-.54.54-.54 1.41 0 1.94.27.27.62.4.97.4s.7-.13.97-.4l8.44-8.44-8.44-8.44c-.54-.54-1.41-.54-1.94 0-.54.54-.54 1.41 0 1.94l5.12 5.12H26.71c-.98-4.47-4.47-8.01-8.92-9.05v-5.55c1.6-1.58 2.69-3.69 3-6.03h10.34v-2.75H20.89v-9.1h-3.1V2.76h30.99v10.85c0 1.92 1.56 3.47 3.48 3.47h9.01v44.18z"/>
</svg>
