<svg viewBox="0 0 48 48" xmlns="http://www.w3.org/2000/svg">
  <path fill="#1e1e1c" d="M26.24 32.26h1.16v8h-9.02v-5.5h-5.5V24.4h5.5v-5.5h10.36v5.5h2.46a7.7 7.7 0 0 0-.57 2.5h-4.39v-5.5h-5.36v5.5h-5.5v5.36h5.5v5.5h5.36zM8.13 45.48h19.28v2.5H5.63V.02h28.58l8.51 10.55v10.42c-.75-.51-1.59-.89-2.5-1.12v-6.64h-7.9c-1.56 0-2.82-1.26-2.82-2.82V2.52H8.13v42.95ZM33.01 2.52H32v7.89c0 .18.14.32.32.32h7.32zm14.96 27.74v17.76H28.65V30.26h3.2v-2.89c0-3.58 2.91-6.49 6.49-6.49s6.49 2.91 6.49 6.49v2.89zm-13.61-.07h7.98v-2.82c0-2.2-1.79-3.99-3.99-3.99s-3.99 1.79-3.99 3.99zm11.11 2.57H31.15v12.77h14.32zm-8.29 6.77v1.17a1.25 1.25 0 0 0 2.5 0v-1.17c.37-.34.61-.83.61-1.37 0-1.03-.84-1.86-1.86-1.86s-1.86.84-1.86 1.86c0 .54.24 1.03.61 1.37"/>
</svg>
