<svg viewBox="0 0 16 16" xmlns="http://www.w3.org/2000/svg">
  <path d="M11.42 0H1.79v16h12.53V3.59zm-.51 1.75 1.34 1.67h-1.34zM3.3 14.5v-13h6.1v2.16c0 .69.56 1.25 1.25 1.25h2.16v9.58H3.3Zm2.88-2.92c.24-.12.35-.28.35-.55 0-.53-.38-.75-1.13-.75H4.25v2.77h1.29c.68 0 1.11-.24 1.11-.86 0-.3-.17-.5-.47-.61m-1.11-.67h.38c.13 0 .22.08.22.22 0 .15-.09.23-.22.23h-.38zm.45 1.5h-.45v-.49h.46c.15 0 .25.09.25.24s-.1.25-.26.25m2.64-1.05h1.39v1.48c-.29.15-.7.25-1.13.25-.83 0-1.56-.43-1.56-1.4s.71-1.45 1.76-1.45c.26 0 .57.03.77.07v.71c-.22-.08-.46-.12-.74-.12-.46 0-.91.17-.91.81 0 .57.38.74.69.74.12 0 .28-.02.36-.05v-.39h-.62v-.64Zm1.78-1.08h2.04v.7h-1.21v.34h1.13v.66h-1.12v1.06h-.83v-2.77Z"/>
</svg>
