<svg viewBox="0 0 64 64" xmlns="http://www.w3.org/2000/svg">
  <path fill="#1e1e1c" d="M39.43 36.14c.78-5.85 5.8-10.39 11.87-10.39h.13c1.91 0 3.71.46 5.32 1.26V13.89L45.55.02H7.71v63.96h27.11V51.84h-6.97V43.2h-8.64v-7.07h8.64v-8.64h7.07v8.64h4.51ZM41.27.77l12.57 14.72H43.43c-1.19 0-2.16-.97-2.16-2.16zm19.65 39.95v-3c0-5.23-4.25-9.48-9.49-9.48h-.13c-5.23 0-9.48 4.25-9.48 9.48v3h-3.18v23.3h25.39v-23.3h-3.1Zm-14.11-2.99c0-2.47 2.01-4.48 4.48-4.48h.13c2.47 0 4.49 2.01 4.49 4.48v3h-9.1zm6.04 15.01v1.71c0 .76-.62 1.37-1.38 1.37s-1.38-.61-1.38-1.37v-1.71c-.5-.4-.83-1.01-.83-1.7 0-1.21.99-2.2 2.2-2.2s2.2.99 2.2 2.2c0 .69-.33 1.3-.83 1.7Z"/>
</svg>
