<svg viewBox="0 0 40 40" xmlns="http://www.w3.org/2000/svg">
  <path fill="#1e1e1c" d="M19.39 19.27c-.32-1.13-.75-3.66-.05-4.46 1.4.81.54 2.69.05 4.46m-7.31 11.57c.81-.19 2.01-1.59 3.19-3.37l.24-.37-.79.47c-2.42 1.61-2.69 2.85-2.63 3.28Zm5.29-4.74c1.64-.63 2.75-1.06 4.39-1.35a10.8 10.8 0 0 1-2.56-3.52c-.43 1.59-1.35 3.95-1.83 4.87M35.5 8.75v31.18H4.54v-40h23.85zm-6 15.54c-.96-1.62-3.64-1.27-5.59-1.01-.13.02-.26.03-.38.05-1.32-.9-2.33-2.35-2.84-3.55.58-1.72 1.08-3.21.58-4.8-.3-1.12-1.26-1.87-2.24-1.72-.85.11-1.63.64-2.02 1.42-.45 1.03-.27 2.77.61 5.8-.58 1.64-1.6 3.63-2.64 5.34-4 2-4.55 3.36-4.62 4.2-.03.41.04 1.19.89 1.82.05.04.11.07.16.1.15.08.3.15.51.22.22.08.49.13.8.13 1.2 0 3-.86 5.03-4.69 1.64-.55 2.95-.89 4.56-1.19 2.35 1.52 4.22 1.96 5.66 1.39.72-.24 1.37-.91 1.63-1.68l.03-.1v-.01c.07-.29.25-.98-.13-1.73Zm3.38-14.33-7.4-8.9v7.2c0 .94.76 1.7 1.7 1.7zm-5.16 15.06c-.7-.22-2.26-.11-3.76.05 1.61 1.02 3.71 1.77 4.57.7 0-.05.05-.48-.81-.75"/>
</svg>
