<svg viewBox="0 0 24 24" xmlns="http://www.w3.org/2000/svg">
  <path d="M17.14 0H2.71v24h18.74V5.33zM6.97 8.31a.875.875 0 0 1 1.74.18l-.16 1.52a5.5 5.5 0 0 1 3.67-1.4c3.07 0 5.57 2.49 5.57 5.55h-1.75c0-2.1-1.71-3.81-3.82-3.81-.9 0-1.74.32-2.42.89l1.75.18c.48.05.83.48.78.96-.05.45-.43.78-.87.78h-.09l-4.85-.5.45-4.34Zm10.46 12.18c-.05.45-.43.78-.87.78h-.09a.875.875 0 0 1-.78-.96l.16-1.52a5.5 5.5 0 0 1-3.67 1.4c-3.07 0-5.57-2.49-5.57-5.55h1.75c0 2.1 1.71 3.81 3.82 3.81.9 0 1.74-.32 2.42-.88l-1.75-.18a.875.875 0 0 1 .18-1.74l4.85.5zM16.09 6.12c-.43 0-.77-.34-.77-.77V.87l4.77 5.25H16.1Z"/>
</svg>
