<svg viewBox="0 0 16 16" xmlns="http://www.w3.org/2000/svg">
  <path d="M4.91 12.01a2.01 2.01 0 0 0-1.43 1.91v2.07H0V0h8.05v3.66c0 .33.13.62.34.84-.34.12-.66.28-.96.46H2.74v1.5h3.1c-.04.05-.08.1-.11.16-.72.09-1.3.62-1.47 1.31H2.75v1.5H4.2v.19c0 .58.28 1.09.72 1.41v.96ZM9.61 0h-.06v3.41h2.81zM16 13.92v2.09H4.23v-2.09c0-.69.56-1.25 1.25-1.25h.18v-2.08a.98.98 0 0 1-.71-.94V8.38c0-.55.45-1 1-1h.23c.63-1.22 1.8-2.12 3.2-2.35V5c0-.41.34-.75.75-.75s.75.34.75.75v.03c1.4.24 2.57 1.13 3.2 2.35h.22c.55 0 1 .45 1 1v1.27c0 .45-.3.82-.71.94v2.09h.17c.69 0 1.25.56 1.25 1.25Zm-6.37-3.28v2.03h.97v-2.03zm3.45 2.03v-2.03h-.97v2.03zm-5.92 0h.97v-2.03h-.97z"/>
</svg>
