<svg viewBox="0 0 32 32" xmlns="http://www.w3.org/2000/svg">
  <path d="M22.72 0H3.61v8.1H2.48a2.486 2.486 0 0 0-2.5 2.49v13.02a2.5 2.5 0 0 0 2.5 2.5h1.13v5.88h24.82V7.07zm3.13 7.06h-4.14c-.19 0-.35-.16-.35-.35V1.99h.4zM1.98 23.61V10.59c0-.28.22-.5.5-.5h14.26c.28 0 .5.22.5.5v13.52H2.48c-.28 0-.5-.22-.5-.5m3.63 6.38v-3.88h13.64V10.59a2.5 2.5 0 0 0-2.5-2.5H5.61v-6.1h13.74v4.72c0 1.3 1.06 2.35 2.35 2.35h4.72v20.92H5.61Zm7.03-16.75h2.53l-1.49 8.29h-2.79l-1.28-5.34-1.33 5.34H5.51l-1.48-8.29h2.55l.62 5.57 1.16-5.57h2.49l1.33 5.61z"/>
</svg>
