<svg viewBox="0 0 64 64" xmlns="http://www.w3.org/2000/svg">
  <path d="M33.57 38.55c0 1.85-.99 3.35-2.56 3.35-1.06 0-1.67-.72-1.67-2.02 0-1.85.96-3.35 2.46-3.35 1.16 0 1.77.75 1.77 2.02m23.3-24.54v49.98H7.59V0h37.98l11.29 14.02ZM44.83 37.7c0-7.52-6.21-11-12.28-11-7.85 0-13.68 5.36-13.68 12.98 0 7.04 4.84 12.2 12.11 12.2 2.35 0 5.02-.55 7.17-1.57L36.92 47c-1.88.89-3.62 1.33-5.42 1.33-5.22 0-8.53-3.42-8.53-8.64s3.72-9.36 9.31-9.36c4.81 0 8.46 2.29 8.46 7.62 0 3.07-.99 4.44-2.46 4.44-.85 0-1.19-.55-1.19-1.5 0-.41.03-.92.17-1.54l1.02-5.81h-3.41l-.31 1.47c-.58-1.4-1.88-1.98-3.38-1.98-2.93 0-5.94 2.94-5.94 7.14 0 3.59 2.12 5.29 4.71 5.29 1.84 0 3.1-.79 3.92-2.22.61 1.64 2.08 2.67 4.23 2.67 3.38 0 6.72-2.67 6.72-8.2Zm8.91-21.89L41.07 1.37v12.32c0 1.17.95 2.12 2.11 2.12h10.55Z"/>
</svg>
