<svg viewBox="0 0 64 64" xmlns="http://www.w3.org/2000/svg">
  <path d="M37.79 13.31V0h.14l11.28 13.98v.03H38.49c-.39 0-.7-.31-.7-.7M24.5 52.53v-8.61a2.993 2.993 0 0 1-2.86-2.99v-4.71H8.78v-2.75h13c.38-1.22 1.51-2.12 2.85-2.12h.21c.73-3.14 2.61-5.84 5.16-7.65H8.78v-2.75h31.7v-.81c0-.76.72-1.38 1.6-1.38s1.6.62 1.6 1.38v1.16h3.01c.86 0 1.7.09 2.51.25v-4.81H38.48c-1.9 0-3.45-1.55-3.45-3.45V0H0v64h18.78v-8.22c0-1.79 1.46-3.25 3.25-3.25h2.46ZM64 55.78V64H20.16v-8.22c0-1.03.84-1.88 1.88-1.88h3.83V42.22h-1.24c-.9 0-1.63-.73-1.63-1.63v-5.9c0-.9.73-1.63 1.63-1.63h.97c.62-5.83 5.57-10.39 11.56-10.39h3.56v-1.12c0-.76.62-1.38 1.38-1.38s1.38.62 1.38 1.38v1.12h2.88c5.99 0 10.94 4.56 11.56 10.39h1.61c.9 0 1.63.73 1.63 1.63v5.9c0 .9-.73 1.63-1.63 1.63h-1.22V53.9h3.82c1.03 0 1.88.84 1.88 1.88ZM38.52 42.23v11.68h7.15V42.23zm17.04 0h-7.14v11.68h7.15V42.23ZM28.62 53.91h7.15V42.23h-7.15z"/>
</svg>
