<svg viewBox="0 0 24 24" xmlns="http://www.w3.org/2000/svg">
  <path d="M17.12 0H2.75v24h18.67V5.33zM8.21 19.74H6.22V15.5h1.77c1.15 0 1.74.33 1.74 1.14 0 .41-.17.66-.53.84.46.18.72.49.72.94 0 .95-.67 1.32-1.71 1.32m6.16-.31c-.44.23-1.08.39-1.74.39-1.28 0-2.4-.66-2.4-2.15s1.09-2.23 2.69-2.23c.4 0 .87.04 1.18.1v1.09c-.33-.12-.7-.19-1.13-.19-.71 0-1.39.26-1.39 1.24 0 .88.58 1.14 1.06 1.14.19 0 .43-.02.55-.07v-.6h-.95v-.98h2.13v2.27Zm3.73-2.85h-1.86v.52h1.73v1.01h-1.72v1.63h-1.28V15.5h3.13zM16.07 6.12a.77.77 0 0 1-.77-.77V.88l4.49 5.24h-3.73ZM8.59 18.39c0 .23-.15.38-.4.38h-.68v-.76h.7c.23 0 .38.14.38.37Zm-.51-1.22H7.5v-.7h.58c.2 0 .34.13.34.34 0 .23-.14.35-.34.35Z"/>
</svg>
