<svg viewBox="0 0 48 48" xmlns="http://www.w3.org/2000/svg">
  <path d="M34.21 0H5.61v48h37.12V10.56zM14.27 16.52c.07-.69.7-1.19 1.37-1.11.69.07 1.19.68 1.12 1.37l-.46 4.46.43-.41c2.02-2.07 4.77-3.23 7.71-3.23 5.97 0 10.82 4.85 10.82 10.81h-2.5c0-4.58-3.73-8.32-8.32-8.32-2.26 0-4.38.89-5.96 2.51l-.25.24 4.79.49a1.248 1.248 0 0 1-.12 2.49h-.13l-9.36-.96zM34.52 41.3c-.07.64-.61 1.12-1.24 1.12h-.13c-.69-.07-1.19-.68-1.11-1.37l.46-4.46-.43.41c-2.02 2.07-4.77 3.23-7.71 3.23-5.97 0-10.82-4.85-10.82-10.82h2.5c0 4.59 3.73 8.32 8.32 8.32 2.26 0 4.38-.89 5.96-2.51l.25-.24-4.79-.49c-.69-.07-1.19-.68-1.12-1.37s.7-1.2 1.37-1.11l9.36.97-.86 8.34Zm-2.19-29.32c-.87 0-1.57-.7-1.57-1.57V1.25l9.23 10.73z"/>
</svg>
