<svg viewBox="0 0 64 64" xmlns="http://www.w3.org/2000/svg">
  <path d="M63.98 45.05c0-8.95-6.22-16.44-14.58-18.44V14.04L38.07.03H-.02v63.99H49.4v-.54c8.36-2 14.58-9.48 14.58-18.44ZM46.21 14.47h-9.88c-.76 0-1.39-.62-1.39-1.38V2.78h1.82zM2.73 61.28V2.78h29.46v10.31a4.14 4.14 0 0 0 4.14 4.13h10.33v8.94c-.56-.05-1.12-.09-1.69-.09-2.73 0-5.31.58-7.65 1.61H9.81v2.75h23.03a19.05 19.05 0 0 0-5.6 7.77H9.81v2.75H26.4a19 19 0 0 0-.46 4.1c0 1.26.13 2.48.36 3.67H9.81v2.75h17.27c1.49 4.12 4.35 7.58 8.05 9.81zm42.23 0c-8.97 0-16.26-7.28-16.26-16.23S36 28.82 44.96 28.82s16.26 7.28 16.26 16.23-7.3 16.23-16.26 16.23m6.91-22.51c.63.42.8 1.27.38 1.9l-7.64 11.46-6.19-4.41a1.376 1.376 0 1 1 1.6-2.24l3.87 2.76 6.07-9.1c.42-.63 1.27-.8 1.91-.38Z"/>
</svg>
