<svg viewBox="0 0 48 48" xmlns="http://www.w3.org/2000/svg">
  <path d="M32.45 15.33v-1.01c0-.4-.2-.74-.49-.97h5.15v2.35c-.88-.24-1.81-.37-2.77-.37zm-5.76-4.48H37.1v-.29L28.59 0h-2.2v10.54c0 .17.14.31.31.31Zm-8.98 27.9v-5.64a2.754 2.754 0 0 1-2.15-2.68v-2.99h-8.8v-2.5h8.9c.29-1.14 1.3-2 2.51-2.06.57-1.86 1.63-3.49 3.03-4.77H6.76v-2.5h19.2c.77-.18 1.58-.28 2.41-.28h1.58v-1.01c0-.4.2-.74.49-.97h-3.75c-1.55 0-2.81-1.26-2.81-2.81V0H0v47.99h13.43v-6.25c0-1.65 1.35-3 3-3h1.28Zm30.29 3v6.26H14.68v-6.26c0-.96.79-1.75 1.75-1.75h2.53v-8.32h-.65c-.83 0-1.5-.67-1.5-1.5v-4.3c0-.83.67-1.5 1.5-1.5h.54c.77-4.42 4.62-7.79 9.26-7.79h1.99v-.62a1.25 1.25 0 0 1 2.5 0v.62h1.48c4.64 0 8.49 3.37 9.26 7.79h1.03c.83 0 1.5.67 1.5 1.5v4.3c0 .83-.67 1.5-1.5 1.5h-.63V40h2.52c.96 0 1.75.79 1.75 1.75ZM28.89 31.68V40h4.92v-8.32zm12.34-.01h-4.92v8.32h4.92zM21.46 40h4.92v-8.32h-4.93V40Z"/>
</svg>
