<svg viewBox="0 0 24 24" xmlns="http://www.w3.org/2000/svg">
  <path fill="#1e1e1c" d="M4.5 1.75h9.93v3.6c0 .91.74 1.64 1.64 1.64h3.6v2.23c.64.11 1.24.34 1.75.69V5.33L17.12 0H2.75v24h10.29v-1.75H4.5zm14.61 3.49h-2.93V1.75h.11l2.82 3.5Zm-6.27 10.54h.2v4.44H8.99v-2.69H6.3v-5.6h2.69V9.24h5.6v2.69h.34c-.19.49-.3 1.01-.3 1.56v.19h-1.79v-2.69h-2.1v2.69H8.05v2.1h2.69v2.69h2.1zm9.6-1.1V13.5c0-1.91-1.56-3.47-3.47-3.47s-3.47 1.56-3.47 3.47v1.18h-1.59V24H24v-9.32zm-5.19-1.19a1.72 1.72 0 1 1 3.44 0v1.15h-3.44zm5 8.76h-6.59v-5.83h6.59zm-4.09-2.57c-.21-.21-.35-.51-.35-.83 0-.65.53-1.18 1.18-1.18s1.18.53 1.18 1.18c0 .27-.11.51-.26.71v.55c0 .48-.39.87-.88.87s-.88-.39-.88-.87v-.43Z"/>
</svg>
