<svg viewBox="0 0 16 16" xmlns="http://www.w3.org/2000/svg">
  <path d="M15.89 3.45H13.1V0h.03zm-3.04 1.5c-.68 0-1.24-.56-1.24-1.25V0h-8v1.23h3.06v2.25h1.88v3h-2.2c-.25.58-.65 1.07-1.14 1.46 1.35.39 2.41 1.47 2.79 2.83h2.46l-.53-.53c-.29-.29-.29-.77 0-1.06s.76-.29 1.05 0l2.32 2.34-2.32 2.34c-.15.15-.34.22-.53.22s-.38-.07-.53-.22a.754.754 0 0 1 0-1.06l.53-.53H8.16v3.74H16V4.95zM0 9.5v4.56h3.26zm4.09-.99H1.12l5.04 7.05h1.25v-3.69c0-1.85-1.49-3.36-3.33-3.36ZM0 16h5.46v-.45H0zM.11 5.73H0V3.49c0-.83.68-1.51 1.51-1.51h4.42v2.25h2.02v1.5H5.82c-.33 1.28-1.48 2.23-2.85 2.23S.45 7.01.11 5.73m4.12 0H1.7a1.47 1.47 0 0 0 2.54 0Z"/>
</svg>
