<svg viewBox="0 0 64 64" xmlns="http://www.w3.org/2000/svg">
  <path d="M63.94 18.74 52.66 4.76H7.56v18.5H2.81c-1.58 0-2.87 1.29-2.87 2.87v30.81c0 1.58 1.29 2.87 2.87 2.87h36.31V51.4h24.83V18.74Zm-3.19.42H50.27c-.41 0-.74-.33-.74-.74V7.5h1.81zm-24.38 37.9H2.81c-.07 0-.12-.06-.12-.12V26.13c0-.07.06-.12.12-.12h33.44c.07 0 .12.06.12.12zm2.74-8.41V26.13c0-1.58-1.29-2.87-2.87-2.87H10.3V7.5h36.49v10.92c0 1.92 1.56 3.48 3.48 3.48h10.92v26.74H39.11ZM13.39 34.42H7.81v14.42h4.35v-4.43h1.23c3.82 0 6.67-1.17 6.67-5.02s-2.84-4.97-6.67-4.97m.06 6.6h-1.3v-3.24h1.3c1.28 0 2.11.36 2.11 1.61s-.84 1.63-2.11 1.63m13.36-6.6h-5.58v14.42h4.35v-4.43h1.23c3.82 0 6.67-1.17 6.67-5.02s-2.84-4.97-6.67-4.97m.06 6.6h-1.3v-3.24h1.3c1.28 0 2.11.36 2.11 1.61s-.84 1.63-2.11 1.63"/>
</svg>
