<svg viewBox="0 0 16 16" xmlns="http://www.w3.org/2000/svg">
  <path d="M13.12 0H3.51v1.98H1.53c-.84 0-1.52.68-1.52 1.51v2.24h.11A2.974 2.974 0 0 0 3 7.96c.17 0 .34-.02.51-.05v.6H0V16h1.5v-.45H4V16h12V3.59zm-.52 1.75 1.37 1.7H12.6zM1.51 3.49s0-.01.01-.01h2.95v.75H1.51zm.21 2.24h2.56c-.26.44-.73.73-1.28.73s-1.02-.29-1.28-.73m4.27 6.53v1.79h-.84L2.23 10h1.91c1.02 0 1.85.83 1.85 1.85zm-4.48 1.79v-2.48l1.79 2.48zm5.98.45v-2.24h3.06l-.53.53c-.29.29-.29.77 0 1.06.15.15.34.22.53.22s.38-.07.53-.22l2.34-2.34-2.34-2.34c-.29-.29-.77-.29-1.06 0s-.29.77 0 1.06l.53.53H7.29a3.32 3.32 0 0 0-2.28-2.12V7.17c.42-.38.72-.88.87-1.44h2.15v-1.5H5.99V1.98h-.97V1.5h6.09v2.2c0 .69.56 1.25 1.25 1.25h2.16v9.55H7.5Z"/>
</svg>
