<svg viewBox="0 0 64 64" xmlns="http://www.w3.org/2000/svg">
  <path d="M45.41.04H7.38v64h49.33V14.06zm8.11 14.44h-9.87c-.76 0-1.38-.62-1.38-1.38V2.79h1.82zM10.13 61.3V2.79h29.4V13.1c0 2.28 1.85 4.13 4.13 4.13h10.31V61.3zm28.14-23.42c-.29.04-.57.07-.81.1-2.35-1.55-4.14-4.13-4.98-6.21l.06-.17c.9-2.68 1.68-4.99.93-7.36-.4-1.53-1.69-2.54-2.99-2.36-1.18.15-2.27.89-2.79 1.94-.66 1.52-.34 4.3 1.03 9.03v.03c-.9 2.65-2.63 6.03-4.42 8.95-.02 0-.04.02-.06.03-6.9 3.45-7.08 5.59-7.14 6.3-.05.54.05 1.57 1.21 2.42.06.04.12.08.18.11.22.11.44.22.75.32.37.13.75.19 1.14.19 2.43 0 5.09-2.56 7.62-7.39 2.78-.93 5.04-1.52 7.78-2.02 3.67 2.42 6.55 3.15 8.74 2.27.8-.27 1.84-1.11 2.25-2.34l.03-.12v-.02c.11-.44.34-1.37-.15-2.35-1.35-2.28-5.41-1.74-8.38-1.36ZM30.9 23.82c2.23 1.29.86 4.29.09 7.13-.52-1.8-1.2-5.84-.09-7.13m-6.49 20.2c-1.89 2.85-3.81 5.08-5.1 5.39-.09-.69.34-2.66 4.21-5.24l1.27-.74-.38.6Zm3.35-2.17c.77-1.46 2.23-5.24 2.93-7.78.92 2 2.16 3.85 4.08 5.62-2.62.46-4.39 1.16-7.01 2.16m17.81-.52c-1.37 1.72-4.72.52-7.3-1.12 2.4-.26 4.89-.43 6.01-.09 1.37.43 1.29 1.12 1.29 1.2Z"/>
</svg>
