<svg viewBox="0 0 48 48" xmlns="http://www.w3.org/2000/svg">
  <path d="M25.17 28.87c0 1.37-.74 2.49-1.9 2.49-.79 0-1.24-.53-1.24-1.5 0-1.37.71-2.49 1.82-2.49.86 0 1.32.56 1.32 1.5M42.7 10.56V48H5.64V0H34.2l8.51 10.56Zm-9.17 17.68c0-5.58-4.61-8.17-9.12-8.17-5.83 0-10.16 3.98-10.16 9.64 0 5.23 3.6 9.06 9 9.06 1.75 0 3.72-.41 5.32-1.17l-.91-2.46c-1.39.66-2.69.99-4.03.99-3.88 0-6.34-2.54-6.34-6.42s2.76-6.95 6.92-6.95c3.57 0 6.29 1.7 6.29 5.66 0 2.28-.74 3.3-1.83 3.3-.63 0-.89-.41-.89-1.12 0-.31.03-.69.13-1.14l.76-4.31h-2.53l-.23 1.09c-.43-1.04-1.39-1.47-2.51-1.47-2.18 0-4.41 2.18-4.41 5.3 0 2.66 1.57 3.93 3.5 3.93 1.37 0 2.31-.58 2.92-1.65.46 1.22 1.55 1.98 3.14 1.98 2.51 0 4.99-1.98 4.99-6.09Zm6.67-16.26L30.74 1.25v9.15c0 .87.7 1.57 1.57 1.57h7.89Z"/>
</svg>
