<svg viewBox="0 0 24 24" xmlns="http://www.w3.org/2000/svg">
  <path d="M17.02 0H2.65v24h18.67V5.34zM19 5.25h-2.8c-.07 0-.13-.06-.13-.13V1.76h.1l2.82 3.49Zm-14.6 17V1.76h9.93v3.37c0 1.04.84 1.88 1.88 1.88h3.37v15.25H4.4Zm9.9-8.44c-.05 0-.1.01-.15.02-.7-.5-1.25-1.27-1.54-1.93.34-1 .64-1.94.33-2.93-.21-.77-.88-1.27-1.56-1.18-.58.07-1.1.43-1.37.97-.29.66-.19 1.73.34 3.55-.34.94-.92 2.07-1.51 3.06C6.39 16.6 6.05 17.48 6 18.03c-.02.29.02.84.62 1.27.04.03.08.05.13.08.1.05.2.1.33.14.17.06.36.1.57.1.83 0 1.93-.61 3.13-2.85.91-.3 1.66-.5 2.55-.66 1.43.91 2.59 1.17 3.5.81.49-.16.93-.62 1.1-1.14 0-.03.02-.05.02-.08.05-.2.17-.66-.1-1.19-.64-1.09-2.33-.87-3.55-.71Zm-5.16 2.71c-.71 1.07-1.43 1.91-1.92 2.02-.03-.26.13-1 1.58-1.97l.48-.28-.14.22Zm2.44-7.59c.84.48.32 1.61.03 2.68-.19-.68-.45-2.19-.03-2.68M10.4 15.7c.29-.55.84-1.97 1.1-2.92.35.75.81 1.45 1.53 2.11-.98.17-1.65.43-2.63.81m3.95-.61c.9-.1 1.84-.16 2.26-.03.52.16.48.42.48.45-.52.65-1.78.19-2.74-.42"/>
</svg>
