<svg viewBox="0 0 48 48" xmlns="http://www.w3.org/2000/svg">
  <path d="m47.96 14.01-8.5-10.53H5.62v13.74H2.7c-1.51 0-2.75 1.23-2.75 2.75v22.11c0 1.51 1.23 2.75 2.75 2.75h26.81v-6.25h18.44V14.01Zm-3.08.17h-7.3c-.18 0-.32-.14-.32-.32V5.98h1.01l6.62 8.2ZM27.02 42.33H2.7c-.14 0-.25-.11-.25-.25V19.97c0-.14.11-.25.25-.25h24.07c.14 0 .25.11.25.25zm2.5-6.25V19.97c0-1.51-1.23-2.75-2.75-2.75H8.12V5.98h26.64v7.88c0 1.55 1.26 2.82 2.82 2.82h7.88v19.41H29.52ZM10.03 25.76H5.84v10.83H9.1v-3.33h.93c2.87 0 5.01-.88 5.01-3.77s-2.14-3.74-5.01-3.74Zm.05 4.96h-.97v-2.43h.97c.96 0 1.59.27 1.59 1.21s-.63 1.22-1.59 1.22m10.02-4.96h-4.19v10.83h3.26v-3.33h.93c2.87 0 5.01-.88 5.01-3.77s-2.14-3.74-5.01-3.74Zm.05 4.96h-.97v-2.43h.97c.96 0 1.59.27 1.59 1.21s-.63 1.22-1.59 1.22"/>
</svg>
