<svg viewBox="0 0 48 48" xmlns="http://www.w3.org/2000/svg">
  <path d="M2.5 2.51h21.39v8.04c0 1.55 1.26 2.81 2.81 2.81h3.75c.21-.17.47-.28.76-.28s.55.11.76.28h2.65v1.99c.86.02 1.7.14 2.5.36v-5.14L28.59 0H0v47.99h13.43v-2.5H2.5zm31.63 8.34h-7.44c-.17 0-.31-.14-.31-.31V2.51h1l6.74 8.35Zm-12.92 7.26H6.76v-2.5h19.2c-1.8.42-3.43 1.29-4.75 2.5M6.76 24.94h8.9c-.06.22-.1.44-.1.68v1.82h-8.8zM46.25 40h-2.52v-8.32h.63c.83 0 1.5-.67 1.5-1.5v-4.3c0-.83-.67-1.5-1.5-1.5h-1.04c-.77-4.42-4.61-7.79-9.24-7.79H32.6v-.62a1.25 1.25 0 0 0-2.5 0v.62h-1.99c-4.63 0-8.48 3.37-9.24 7.79h-.55c-.83 0-1.5.67-1.5 1.5v4.3c0 .83.67 1.5 1.5 1.5h.65V40h-2.53c-.96 0-1.75.79-1.75 1.75v6.26h33.32v-6.26c0-.96-.79-1.75-1.75-1.75Zm-5.02 0h-4.92v-8.32h4.92zM19.32 26.87h24.05v2.3H19.32zm12.07-7.41c1 0 2.29 1.86 2.86 4.92h-5.72c.58-3.06 1.86-4.92 2.86-4.92m2.42 12.22V40h-4.92v-8.32zm6.97-7.31H36.8c-.35-2.16-1.02-3.95-1.91-5.24 2.89.34 5.23 2.46 5.89 5.24m-12.85-5.28c-.91 1.29-1.59 3.1-1.94 5.28h-4.58c.71-2.97 3.35-5.2 6.52-5.28m-6.47 12.58h4.93v8.32h-4.92v-8.32ZM45.5 45.51H17.18V42.5H45.5z"/>
</svg>
