<svg viewBox="0 0 40 40" xmlns="http://www.w3.org/2000/svg">
  <path d="M28.51 0H4.66v40h30.96V8.82zm4.29 8.9h-5.89a.18.18 0 0 1-.18-.18V2.25h.71zM6.91 37.75V2.25h17.56v6.47c0 1.34 1.09 2.43 2.43 2.43h6.47v26.6zm8.34-8.44c.62-.31.91-.73.91-1.43 0-1.38-1-1.94-2.95-1.94H10.2v7.2h3.37c1.76 0 2.9-.62 2.9-2.23 0-.77-.44-1.29-1.22-1.6m-2.88-1.72h.98c.34 0 .59.22.59.59 0 .39-.24.59-.59.59h-.98zm1.16 3.9h-1.16v-1.28h1.19c.4 0 .65.24.65.64s-.26.65-.68.65Zm6.88-2.73h3.61v3.85c-.75.39-1.84.66-2.95.66-2.17 0-4.07-1.12-4.07-3.65s1.85-3.79 4.57-3.79c.68 0 1.48.07 2 .18v1.85c-.56-.2-1.19-.32-1.92-.32-1.2 0-2.36.44-2.36 2.11 0 1.49.99 1.93 1.8 1.93.32 0 .73-.04.94-.13v-1.01h-1.62v-1.67Zm4.63-2.82h5.31v1.83h-3.16v.89h2.94v1.72h-2.92v2.77h-2.17v-7.2Z"/>
</svg>
