<svg viewBox="0 0 24 24" xmlns="http://www.w3.org/2000/svg">
  <path d="M23.92 5.21h-4.18V0l4.18 5.2Zm-4.29 1.75c-.9 0-1.63-.73-1.63-1.64V0H5.51v2.58H9.4V6h3.23v3.5H9.08a5.16 5.16 0 0 1-2.09 2.6c2.2.39 3.97 2.06 4.52 4.21h4.85l-1.25-1.26a.88.88 0 0 1 0-1.24c.34-.34.89-.34 1.24 0l3.36 3.37-3.36 3.37c-.17.17-.39.26-.62.26s-.45-.08-.62-.26a.88.88 0 0 1 0-1.24l1.25-1.26h-4.67V24H24V6.96zM0 14.04v7.28h5.24zm5.99-1.16H1.32l7.33 10.19H0v.94h7.81v-.87h3v-5.42c0-2.67-2.16-4.84-4.82-4.84M.1 8.62H.01V5.09c0-.9.74-1.63 1.64-1.63h6.89v3.42h3.35v1.75H8.44c-.4 1.94-2.12 3.4-4.17 3.4S.51 10.56.1 8.62m6.53 0H1.91c.36.96 1.28 1.65 2.36 1.65s2-.69 2.36-1.65"/>
</svg>
