<svg viewBox="0 0 48 48" xmlns="http://www.w3.org/2000/svg">
  <path d="M17.02 37.08c0 .48-.31.78-.82.78h-1.4v-1.55h1.43c.48 0 .78.29.78.77Zm-.33-3.23c0-.44-.29-.7-.7-.7h-1.18v1.42h1.18c.42 0 .7-.25.7-.72m26.04-23.29V48H5.62V0h28.59zM19.75 37.15c0-.93-.53-1.56-1.47-1.93.74-.38 1.1-.88 1.1-1.72 0-1.66-1.21-2.34-3.56-2.34H12.2v8.69h4.07c2.13 0 3.5-.74 3.5-2.69Zm9.1-2.59H24.5v2.01h1.95v1.22c-.25.1-.74.15-1.13.15-.97 0-2.16-.53-2.16-2.33 0-2.01 1.4-2.54 2.84-2.54.88 0 1.64.15 2.32.39v-2.23c-.63-.13-1.6-.21-2.42-.21-3.29 0-5.51 1.56-5.51 4.57S22.68 40 25.3 40c1.35 0 2.66-.33 3.56-.79v-4.64Zm7.63-3.4h-6.41v8.69h2.62v-3.34h3.52v-2.08h-3.55v-1.07h3.81v-2.2Zm3.5-20.09-8.32-9.81v8.37c0 .79.64 1.44 1.44 1.44h6.87Z"/>
</svg>
