<svg viewBox="0 0 24 24" xmlns="http://www.w3.org/2000/svg">
  <path d="m23.98 7.04-4.29-5.32H2.75v6.72h-.39c-1.31 0-2.38 1.06-2.38 2.37v9.27c0 1.31 1.07 2.38 2.38 2.38h12.6V19.4h9.02zm-2.23.03h-3.13v-3.6h.22l2.9 3.6Zm-8.54 13.64H2.36c-.35 0-.63-.28-.63-.63v-9.27c0-.35.28-.63.63-.63h10.23c.35 0 .63.28.63.63v9.9Zm1.75-3.05v-6.84c0-1.31-1.07-2.38-2.38-2.38H4.5V3.47h12.62v3.59c0 .84.68 1.52 1.52 1.52h3.59v9.08h-7.26Zm-9.79-4.78H3.12v5.29h1.6v-1.63h.45c1.4 0 2.45-.43 2.45-1.84s-1.04-1.83-2.45-1.83Zm.02 2.42h-.48v-1.19h.48c.47 0 .77.13.77.59s-.31.6-.77.6m4.75-2.42H7.89v5.29h1.6v-1.63h.45c1.4 0 2.45-.43 2.45-1.84s-1.04-1.83-2.45-1.83Zm.03 2.42h-.48v-1.19h.48c.47 0 .77.13.77.59s-.31.6-.77.6"/>
</svg>
