<svg viewBox="0 0 24 24" xmlns="http://www.w3.org/2000/svg">
  <path d="M1.76 1.74h9.96v3.6c0 .91.74 1.64 1.65 1.64h1.19c.01-.47.4-.85.87-.85s.86.38.87.85h.69v.45c.62.04 1.21.17 1.75.4v-2.5L14.42 0H0v24h5.96v-1.75h-4.2zm11.71 0h.11l2.83 3.5h-2.94zM9.88 9.38H3.96V7.63h8.85a5.5 5.5 0 0 0-2.94 1.75ZM3.96 12.2h3.22a.95.95 0 0 0-.14.51v1.24H3.97V12.2Zm18.67 7.3h-.76v-3.54a1.12 1.12 0 0 0 1.07-1.11V12.7c0-.62-.51-1.12-1.13-1.12h-.39a5.87 5.87 0 0 0-5.12-3.61v-.21c0-.48-.39-.87-.88-.87s-.88.39-.88.87v.21a5.88 5.88 0 0 0-5.12 3.61h-.4c-.62 0-1.13.5-1.13 1.12v2.15c0 .6.48 1.08 1.07 1.11v3.54h-.77c-.76 0-1.38.62-1.38 1.37v3.12h17.17v-3.12c0-.76-.62-1.37-1.38-1.37ZM9.66 13.33h11.53v.9H9.66zm5.79-3.5c.17.21.45.78.64 1.76h-1.27c.18-.97.45-1.54.63-1.76m.96 6.15v3.53h-1.96v-3.53zm1.75 0h1.96v3.53h-1.96zm1.27-4.4h-1.39c-.1-.57-.24-1.08-.41-1.53.74.33 1.36.86 1.79 1.53Zm-6.16-1.55c-.17.45-.32.97-.41 1.55h-1.43c.45-.69 1.09-1.23 1.85-1.55Zm-2.54 5.95h1.96v3.53h-1.96zm11.53 6.27H8.59v-1h13.67z"/>
</svg>
