<svg viewBox="0 0 40 40" xmlns="http://www.w3.org/2000/svg">
  <path d="M28.37-.01H4.55v10.23H2.64c-1.45 0-2.63 1.17-2.63 2.62v17.02c0 1.45 1.18 2.63 2.62 2.63h1.91v7.5h30.93V8.81zm4.28 8.9h-5.49a.57.57 0 0 1-.57-.57V2.24h.71l5.36 6.65ZM2.26 29.86V12.84c0-.21.17-.38.38-.38H21.2c.21 0 .38.17.38.38v17.39H2.64a.38.38 0 0 1-.38-.38Zm4.54 7.88v-5.25h17.02V12.84c0-1.45-1.18-2.63-2.62-2.63H6.8V2.24h17.54v6.07c0 1.56 1.27 2.82 2.82 2.82h6.07v26.6H6.8Zm7.15-16.01 3.66 5.15h-3.66l-2.12-3.05-2.05 3.05H6.25l3.62-5.09-3.53-5.27h3.6l2.02 3.11L14 16.52h3.45l-3.51 5.21Z"/>
</svg>
