<svg viewBox="0 0 16 16" xmlns="http://www.w3.org/2000/svg">
  <path d="M8.37 9.54c0 .43-.23.79-.6.79-.25 0-.39-.17-.39-.47 0-.43.22-.79.58-.79.27 0 .42.18.42.47Zm5.94-5.95V16H1.81V0h9.61zm-3.3 5.75c0-1.76-1.46-2.58-2.88-2.58-1.84 0-3.21 1.26-3.21 3.05 0 1.65 1.14 2.86 2.84 2.86.55 0 1.18-.13 1.68-.37l-.29-.78c-.44.21-.85.31-1.27.31-1.22 0-2-.8-2-2.03s.87-2.2 2.18-2.2c1.13 0 1.98.54 1.98 1.79 0 .72-.23 1.04-.58 1.04-.2 0-.28-.13-.28-.35 0-.1 0-.22.04-.36l.24-1.36h-.8l-.07.34c-.14-.33-.44-.46-.79-.46-.69 0-1.39.69-1.39 1.67 0 .84.5 1.24 1.1 1.24.43 0 .73-.18.92-.52.14.38.49.62.99.62.79 0 1.58-.62 1.58-1.92Zm2.05-5.17L10.15.75v2.92c0 .28.22.5.5.5z"/>
</svg>
