<svg viewBox="0 0 24 24" xmlns="http://www.w3.org/2000/svg">
  <path d="M19.73 0H5.5v3.45H1.64C.74 3.46 0 4.19 0 5.09v3.53h.09c.4 1.94 2.12 3.4 4.17 3.4.43 0 .84-.08 1.24-.21v1.06H-.01V24h1.75v-.94h4.32V24h17.93V5.3zm1.94 5.21H18.8V1.76h.09zm-19.92 0h5.03v1.67H1.75zm.15 3.41h4.71c-.36.96-1.28 1.65-2.36 1.65s-2-.69-2.36-1.65Zm7.16 12.69H7.38l-4.81-6.68h3.41c1.7 0 3.08 1.38 3.08 3.09v3.6Zm-7.32 0v-4.85l3.49 4.85zm9.07.94v-4.2h5.54l-1.25 1.26a.881.881 0 0 0 .62 1.5c.23 0 .45-.08.62-.26l3.36-3.37-3.36-3.37a.88.88 0 0 0-1.24 0c-.34.34-.34.9 0 1.24l1.25 1.26h-5.78a4.8 4.8 0 0 0-3.33-3.24v-2.28c.59-.58 1.01-1.33 1.18-2.16h3.45V6.88H8.52V3.46H7.25v-1.7h9.81v3.56c0 .9.73 1.64 1.63 1.64h3.55v15.3H10.8Z"/>
</svg>
