<svg viewBox="0 0 48 48" xmlns="http://www.w3.org/2000/svg">
  <path d="M39.55.01h-28.4v8.92h-9.1c-1.11 0-2.01.9-2.01 2.01v7.32h.11c.6 3.84 3.93 6.79 7.93 6.79 1.09 0 2.13-.22 3.07-.61v1.83H.01v21.74h2.5v-2.38h9.67v2.38l35.83.02V10.5zm5.38 10.64h-7.25c-.17 0-.31-.14-.31-.31V2.51h.99zm-42.39.78h11.08v4.33H2.54zm.14 6.83h10.79c-.57 2.45-2.77 4.29-5.4 4.29s-4.83-1.83-5.4-4.29ZM18.2 43.11h-4.13L3.71 28.76h7.82c3.68 0 6.67 2.99 6.67 6.67v7.69Zm-15.69 0V31.37l8.48 11.74zm18.19 2.41V35.8h13.35l-3.47 3.47a1.25 1.25 0 0 0 0 1.77c.24.24.56.37.88.37s.64-.12.88-.37l6.49-6.48-6.49-6.48c-.49-.49-1.28-.49-1.77 0s-.49 1.28 0 1.77l3.47 3.47H20.43a9.19 9.19 0 0 0-6.79-6.78v-3.73A8.04 8.04 0 0 0 16 18.28h7.33v-2.5h-7.22V8.95h-2.47V2.51h21.21v7.83c0 1.55 1.26 2.81 2.81 2.81h7.84v32.36H20.69Z"/>
</svg>
