<svg viewBox="0 0 40 40" xmlns="http://www.w3.org/2000/svg">
  <path d="M39.99 28.13c0-5.6-3.87-10.28-9.07-11.54V8.83L23.82.01H0V40h30.93v-.34C36.13 38.4 40 33.72 40 28.12ZM28.09 8.91H22.6a.57.57 0 0 1-.57-.57V2.27h.71zM2.24 37.76V2.27h17.54v6.07c0 1.56 1.27 2.82 2.82 2.82h6.07v5.11c-.18 0-.36-.03-.55-.03-1.51 0-2.95.29-4.29.81H6.31v2.25h13.87c-1.29 1.17-2.33 2.6-3.02 4.23H6.31v2.25h10.17c-.15.76-.23 1.54-.23 2.34 0 .64.07 1.27.16 1.89H6.31v2.25H17c.83 2.22 2.29 4.12 4.18 5.49H2.24Zm25.88 0c-5.31 0-9.62-4.32-9.62-9.63s4.32-9.63 9.62-9.63 9.62 4.32 9.62 9.63-4.32 9.63-9.62 9.63m4.5-13.79c.52.35.65 1.05.31 1.56l-4.97 7.4-4.11-2.91c-.51-.36-.63-1.06-.27-1.57s1.06-.63 1.57-.27l2.23 1.58 3.68-5.48c.35-.52 1.04-.66 1.56-.31"/>
</svg>
