<svg viewBox="0 0 32 32" xmlns="http://www.w3.org/2000/svg">
  <path d="M22.82 0H3.71v32h24.82V7.07zm3.12 7.06-4.49-.03V2h.41zM5.7 30V2h13.75v5.04c0 1.12.91 2.04 2.04 2.04h5.04v20.93H5.7Zm6.53-6.6c.49-.25.72-.58.72-1.14 0-1.09-.8-1.54-2.35-1.54H8.21v5.72h2.68c1.4 0 2.31-.49 2.31-1.77 0-.61-.35-1.03-.97-1.27m-2.29-1.37h.78c.27 0 .46.17.46.46 0 .31-.19.47-.46.47h-.78v-.94Zm.92 3.1h-.92v-1.02h.95c.32 0 .51.19.51.51s-.21.51-.54.51m5.47-2.17h2.87v3.06c-.6.31-1.46.52-2.35.52-1.73 0-3.23-.89-3.23-2.9s1.47-3.01 3.63-3.01c.54 0 1.18.06 1.59.14v1.47c-.45-.16-.95-.26-1.53-.26-.95 0-1.87.35-1.87 1.68 0 1.19.79 1.53 1.43 1.53.26 0 .58-.03.75-.1v-.8h-1.29zM20 20.72h4.22v1.45h-2.51v.71h2.34v1.37h-2.32v2.2H20v-5.72Z"/>
</svg>
