<svg viewBox="0 0 48 48" xmlns="http://www.w3.org/2000/svg">
  <path d="M34.09.04H5.5v48h37.11V10.6zm5.43 10.72h-6.85c-.44 0-.8-.36-.8-.8V2.54h1.01l6.63 8.22ZM8 45.54v-43h21.38v7.43c0 1.82 1.48 3.3 3.3 3.3h7.43v32.27zm20.67-17.47c-.17.02-.34.04-.49.06-1.63-1.1-2.87-2.88-3.49-4.35v-.02c.7-2.06 1.3-3.84.71-5.71-.35-1.3-1.45-2.16-2.58-1.99-.99.12-1.9.75-2.35 1.65-.53 1.22-.31 3.29.74 6.92-.7 2-1.93 4.41-3.2 6.48-5.33 2.67-5.48 4.41-5.52 4.98-.04.47.04 1.37 1.03 2.1.06.04.12.08.18.11.17.09.35.17.6.26.26.09.57.16.93.16 1.41 0 3.54-1.02 5.97-5.61 1.98-.66 3.61-1.08 5.56-1.44 2.8 1.82 5.03 2.36 6.73 1.67.69-.23 1.55-.92 1.89-1.95l.03-.11v-.02c.09-.34.29-1.14-.15-2-1.12-1.89-4.29-1.47-6.61-1.17Zm-10.38 4.92c-1.42 2.14-2.86 3.82-3.83 4.05-.06-.52.26-2 3.16-3.94l.95-.56zm4.88-15.18c1.68.97.65 3.23.06 5.35-.39-1.35-.9-4.39-.06-5.35m-2.36 13.55c.58-1.1 1.68-3.93 2.2-5.84.69 1.5 1.62 2.89 3.07 4.22-1.97.35-3.3.87-5.26 1.62Zm13.38-.39c-1.03 1.29-3.55.39-5.48-.84 1.81-.19 3.68-.32 4.52-.06 1.03.32.97.84.97.9Z"/>
</svg>
