<svg viewBox="0 0 48 48" xmlns="http://www.w3.org/2000/svg">
  <path d="M17.66 38.63H7.48v-2.5h9.65c-.11-.78-.19-1.57-.19-2.38 0-1 .1-1.97.27-2.92H7.48v-2.5h10.37c.67-1.96 1.68-3.75 2.98-5.31H7.48v-2.5h15.97a16.7 16.7 0 0 1 10.25-3.51c1.16 0 2.29.12 3.39.34v-6.81L28.56-.01H-.04v47.97h24.91c-3.41-2.12-6.01-5.41-7.2-9.32ZM25.1 1.24l9.23 10.72h-7.18c-1.13 0-2.05-.92-2.05-2.05zm8.6 18.26c-7.86 0-14.26 6.39-14.26 14.24s6.4 14.24 14.26 14.24 14.26-6.39 14.26-14.24S41.56 19.5 33.7 19.5m6.46 10.4L33.4 40.05l-5.48-3.91c-.56-.4-.69-1.18-.29-1.74s1.18-.69 1.75-.29l3.38 2.41 5.32-8c.38-.58 1.16-.73 1.74-.35s.73 1.16.35 1.73Z"/>
</svg>
