<svg viewBox="0 0 48 48" xmlns="http://www.w3.org/2000/svg">
  <path d="M39.38 10.34V.01h-2.5v10.33c0 1.55 1.26 2.81 2.81 2.81h8.32v34.86l-48-.02v-2.38h14.67v2.38h1.25v-1.13h6.02V35.79h12.1l-3.47 3.47a1.25 1.25 0 0 0 0 1.77c.24.24.56.37.88.37s.64-.12.88-.37l6.49-6.48-6.49-6.48c-.49-.49-1.28-.49-1.77 0s-.49 1.28 0 1.77l3.47 3.47H21.72a10.44 10.44 0 0 0-9.07-8.22c2.1-1.2 3.69-3.19 4.36-5.57h7.58v-5h-7.22V7.69h-6.22V0h28.4l8.46 10.48v.16h-8.32c-.17 0-.31-.14-.31-.31ZM.01 27.91v15.2h10.98zm15.87 17.7h4.82V35.42c0-5.05-4.11-9.16-9.17-9.16H1.9zM.14 18.25h-.1v-7.32c0-1.11.9-2.01 2.01-2.01h14.07v6.83h7.22v2.5h-7.33c-.6 3.84-3.93 6.79-7.93 6.79S.75 22.09.14 18.25m13.33 0H2.68c.57 2.45 2.77 4.29 5.4 4.29s4.83-1.83 5.4-4.29Z"/>
</svg>
