<svg viewBox="0 0 48 48" xmlns="http://www.w3.org/2000/svg">
  <path d="M34.21 0H5.62v48h37.11V10.56zm4.7 9.82H33.1a.19.19 0 0 1-.19-.19V2.5h.1l5.9 7.31ZM8.12 45.51V2.5h22.3v7.12c0 1.48 1.21 2.69 2.69 2.69h7.12V45.5H8.12Zm10.16-10.28c.74-.38 1.1-.88 1.1-1.72 0-1.66-1.21-2.34-3.56-2.34H12.2v8.69h4.07c2.13 0 3.5-.74 3.5-2.69 0-.93-.53-1.56-1.47-1.93Zm-3.47-2.08h1.18c.42 0 .7.26.7.7 0 .47-.29.72-.7.72h-1.18zm1.39 4.71h-1.4v-1.55h1.43c.48 0 .78.29.78.77s-.31.78-.82.78Zm8.3-3.3h4.35v4.64c-.91.47-2.22.79-3.56.79-2.62 0-4.91-1.35-4.91-4.41s2.23-4.57 5.51-4.57c.82 0 1.79.09 2.42.21v2.23a6.9 6.9 0 0 0-2.32-.39c-1.45 0-2.84.53-2.84 2.54 0 1.8 1.2 2.33 2.16 2.33.39 0 .88-.05 1.13-.15v-1.22h-1.95v-2.01Zm5.57-3.4h6.41v2.2h-3.81v1.07h3.55v2.08H32.7v3.34h-2.62v-8.69Z"/>
</svg>
