<svg viewBox="0 0 40 40" xmlns="http://www.w3.org/2000/svg">
  <path fill="#1e1e1c" d="M24.15 22.22c.63-3.71 3.86-6.55 7.75-6.55 1.31 0 2.54.33 3.63.9V8.69L28.48-.05H4.76v39.99h17.32v-7.49h-4.91v-5.32h-5.32v-4.91h5.32V16.9h4.91v5.32h2.06ZM25.71.7l7.74 9.07h-6.41c-.73 0-1.33-.6-1.33-1.33zm12.55 24.26v-1.43c0-3.51-2.86-6.37-6.37-6.37s-6.37 2.86-6.37 6.37v1.43h-1.79v14.99H40V24.96zm-8.73-1.43c0-1.31 1.06-2.37 2.37-2.37s2.37 1.06 2.37 2.37v1.39h-4.73v-1.39Zm3.56 9.28v.94c0 .62-.5 1.13-1.12 1.13s-1.12-.5-1.12-1.13v-.94c-.31-.3-.51-.72-.51-1.18a1.641 1.641 0 0 1 3.28 0c0 .47-.2.88-.51 1.18Z"/>
</svg>
