<svg viewBox="0 0 40 40" xmlns="http://www.w3.org/2000/svg">
  <path d="M28.52 0H4.65v40h30.98V8.82zm4.29 8.9h-5.9a.18.18 0 0 1-.18-.18V2.25h.71zM6.9 37.75V2.25h17.58v6.47c0 1.34 1.09 2.43 2.43 2.43h6.47v26.6zM18.97 21.6l-7.85-.81.72-7.01c.06-.62.61-1.07 1.23-1 .62.06 1.07.62 1 1.23l-.36 3.46.19-.18c1.69-1.73 3.99-2.7 6.46-2.7 5 0 9.07 4.06 9.07 9.06h-2.25c0-3.76-3.06-6.81-6.82-6.81-1.85 0-3.58.73-4.88 2.06l-.07.07 3.79.39c.62.06 1.07.62 1 1.23-.06.58-.55 1.01-1.12 1.01h-.12Zm2.72 4.94 7.85.81-.72 7.01c-.06.58-.55 1.01-1.12 1.01h-.12c-.62-.06-1.07-.62-1-1.23l.36-3.46-.19.18c-1.69 1.73-3.99 2.7-6.46 2.7-5 0-9.07-4.06-9.07-9.06h2.25c0 3.76 3.06 6.81 6.82 6.81 1.85 0 3.58-.73 4.88-2.06l.07-.07-3.79-.39c-.62-.06-1.07-.62-1-1.23.06-.62.61-1.06 1.23-1Z"/>
</svg>
