<svg viewBox="0 0 32 32" xmlns="http://www.w3.org/2000/svg">
  <path d="M11.48 25.89H5.11v-2h5.95c-.06-.46-.09-.93-.09-1.4 0-.59.06-1.17.15-1.74h-6v-2h6.49c.39-1.14.96-2.2 1.67-3.15H5.11v-2h10.06c1.99-1.64 4.53-2.62 7.31-2.62.78 0 1.55.08 2.29.23V7.14L19.06.04H-.02v32h16.07a11.6 11.6 0 0 1-4.57-6.15M16.7 1.04l5.72 7.07h-4.37c-.74 0-1.35-.6-1.35-1.35zm5.77 11.92c-5.24 0-9.51 4.27-9.51 9.52S17.22 32 22.47 32s9.51-4.27 9.51-9.52-4.26-9.52-9.51-9.52m4.59 6.96-4.76 7.1-3.91-2.77c-.45-.32-.56-.94-.24-1.4s.94-.56 1.39-.24l2.24 1.58 3.62-5.39c.31-.46.93-.58 1.39-.27s.58.93.27 1.39"/>
</svg>
