<svg viewBox="0 0 64 64" xmlns="http://www.w3.org/2000/svg">
  <path fill="#1e1e1c" d="M10.31 2.75h29.41V13.7c0 1.93 1.57 3.49 3.49 3.49h10.95v9.92c.99.29 1.92.74 2.75 1.31v-14.4L45.6 0H7.56v64h29.66v-2.75H10.31zm43.4 11.69H43.2c-.41 0-.74-.33-.74-.74V2.75h1.82zm-18.38 29h1.89V53.6H24.74v-7.41h-7.41V32.85h7.41v-7.41h13.34v7.41h4.14c-.34.86-.57 1.79-.65 2.75h-6.24v-7.41h-7.84v7.41h-7.41v7.84h7.41v7.41h7.84zm24.42-2.75v-4.27c0-4.61-3.75-8.36-8.36-8.36h-.13c-4.61 0-8.36 3.75-8.36 8.36v4.27h-4.31v23.3h25.39v-23.3h-4.22Zm-14.1-4.26a5.62 5.62 0 0 1 5.61-5.61h.13A5.62 5.62 0 0 1 57 36.43v4.17H45.65zm15.58 24.82H41.34V43.44h19.89zM49.24 51.01c0-1.21.99-2.2 2.2-2.2s2.2.99 2.2 2.2c0 .69-.33 1.3-.83 1.7v1.72c0 .76-.62 1.37-1.37 1.37s-1.37-.62-1.37-1.37v-1.72c-.5-.4-.83-1.01-.83-1.7"/>
</svg>
