<svg viewBox="0 0 64 64" xmlns="http://www.w3.org/2000/svg">
  <path fill="#1d1d1b" d="M45.46.01H7.39v16.78H2.88C1.3 16.79 0 18.08 0 19.66v29c0 1.58 1.29 2.88 2.88 2.88h4.51v12.53h49.38V14.04zm8.12 14.45H43.7c-.76 0-1.38-.62-1.38-1.38V2.76h1.82zM2.76 48.66v-29c0-.07.06-.12.12-.12h31.49c.07 0 .12.06.12.12v29.12H2.88c-.07 0-.12-.05-.12-.12m7.38 12.66v-9.78h27.11V19.66c0-1.58-1.29-2.88-2.88-2.88H10.14V2.76h29.43v10.32c0 2.28 1.85 4.13 4.13 4.13h10.32v44.11zm11.68-34.88h4.87V43h-5.21l-5.5-9.87V43h-4.87V26.44h5.23l5.47 9.82v-9.82Z"/>
</svg>
