<svg viewBox="0 0 24 24" xmlns="http://www.w3.org/2000/svg">
  <path fill="#1e1e1c" d="M13.99 13.11a5.106 5.106 0 0 1 4.99-4.06c.88 0 1.69.24 2.41.64V5.31L17.11 0H2.78v23.99h10.26v-4.47h-2.69v-3.11H7.24V13.1h3.11V9.99h3.3v3.11h.33ZM15.34.76l4.52 5.3h-3.75c-.43 0-.78-.35-.78-.78V.76Zm7.73 13.92v-.53c0-2.26-1.84-4.1-4.1-4.1s-4.1 1.84-4.1 4.1v.53h-.96v9.33H24v-9.33zm-5.19-.53c0-.6.49-1.1 1.1-1.1s1.1.49 1.1 1.1v.52h-2.19v-.52Zm2.03 5.41v.55c0 .48-.39.88-.88.88s-.88-.39-.88-.88v-.43c-.21-.21-.35-.51-.35-.83 0-.65.52-1.17 1.17-1.18h.02c.65 0 1.17.53 1.17 1.18 0 .27-.11.51-.26.71Z"/>
</svg>
