<svg viewBox="0 0 24 24" xmlns="http://www.w3.org/2000/svg">
  <path d="M8.28 19.44H3.91V17.7h4.05c-.02-.24-.04-.48-.04-.73 0-.71.09-1.4.25-2.07H3.91v-1.74H8.8a8.89 8.89 0 0 1 8.02-5.03c.63 0 1.25.07 1.85.19V5.36L14.35.06H-.04v23.86h11.38a8.78 8.78 0 0 1-3.06-4.48M12.53.99l4.75 5.21h-3.75c-.55 0-1-.45-1-1zm4.29 8.89c-3.94 0-7.14 3.18-7.14 7.09s3.2 7.09 7.14 7.09 7.14-3.18 7.14-7.09-3.2-7.09-7.14-7.09m3.06 5.65-3.1 4.59-2.64-1.86a.87.87 0 0 1-.21-1.21.88.88 0 0 1 1.22-.21l1.17.82 2.1-3.11c.27-.4.81-.51 1.22-.24s.51.81.24 1.21Z"/>
</svg>
