<svg viewBox="0 0 40 40" xmlns="http://www.w3.org/2000/svg">
  <path d="M28.52 0H4.65v40h30.98V8.82zM11.84 13.78c.06-.62.61-1.06 1.23-1s1.07.62 1 1.23l-.36 3.46.19-.18c1.69-1.73 3.99-2.7 6.46-2.7 5 0 9.07 4.06 9.07 9.06h-2.25c0-3.76-3.06-6.81-6.82-6.81-1.85 0-3.58.73-4.88 2.06l-.07.07 3.79.39c.62.06 1.07.62 1 1.23-.06.58-.55 1.01-1.12 1.01h-.12l-7.85-.81.72-7.01Zm16.98 20.58c-.06.58-.55 1.01-1.12 1.01h-.12c-.62-.06-1.07-.62-1-1.23l.36-3.46-.19.18c-1.69 1.73-3.99 2.7-6.46 2.7-5 0-9.07-4.06-9.07-9.06h2.25c0 3.76 3.06 6.81 6.82 6.81 1.85 0 3.58-.73 4.88-2.06l.07-.07-3.79-.39c-.62-.06-1.07-.62-1-1.23s.61-1.06 1.23-1l7.85.81-.72 7.01Zm-1.91-24.34c-.72 0-1.31-.58-1.31-1.31V1.12l7.9 8.9h-6.6Z"/>
</svg>
