<svg viewBox="0 0 32 32" xmlns="http://www.w3.org/2000/svg">
  <path d="M16.77 19.18c0 .9-.48 1.63-1.24 1.63-.51 0-.81-.35-.81-.98 0-.9.46-1.63 1.2-1.63.56 0 .86.37.86.98ZM28.42 7.02V32H3.81V0h18.95zm-6.18 11.74c0-3.65-3.02-5.34-5.97-5.34-3.81 0-6.65 2.6-6.65 6.3 0 3.42 2.36 6.06 5.89 6.06 1.14 0 2.44-.27 3.48-.76l-.6-1.75c-.91.43-1.76.79-2.64.79-2.54 0-4.15-1.8-4.15-4.33s1.81-4.54 4.53-4.54c2.34 0 4.11 1.11 4.11 3.7 0 1.49-.48 2.16-1.19 2.16-.42 0-.58-.27-.58-.73 0-.2.02-.45.08-.75l.5-2.82h-1.66l-.15.71c-.28-.68-.91-.96-1.64-.96-1.43 0-2.89 1.43-2.89 3.47 0 1.74 1.03 2.57 2.29 2.57.9 0 1.51-.38 1.91-1.08.3.8 1.01 1.29 2.06 1.29 1.64 0 3.27-1.29 3.27-3.98Zm4.18-10.75L20.41 1v5.98c0 .57.46 1.03 1.03 1.03z"/>
</svg>
