<svg viewBox="0 0 32 32" xmlns="http://www.w3.org/2000/svg">
  <path fill="#1e1e1c" d="M19.04 17.69a6.49 6.49 0 0 1 9.44-4.6V7.01L22.81 0H3.75v32h13.8v-5.98h-3.9V21.8H9.43v-4.11h4.22v-4.22h4.11v4.22zM20.53.75l6.14 7.19h-5.09c-.58 0-1.06-.47-1.06-1.05V.75Zm10.14 19.03v-.97c0-2.89-2.35-5.24-5.24-5.24s-5.24 2.35-5.24 5.24v.97h-1.38v12.18h13.21V19.78h-1.34Zm-6.98-.96a1.741 1.741 0 0 1 3.48 0v.97h-3.49v-.97Zm2.79 7.38v.7c0 .55-.45 1-1 1s-1-.45-1-1v-.7a1.408 1.408 0 0 1 1-2.4 1.408 1.408 0 0 1 1 2.4"/>
</svg>
