<svg viewBox="0 0 16 16" xmlns="http://www.w3.org/2000/svg">
  <path d="M1.5 1.51h6.09v2.16c0 .39.19.72.47.95.43-.19.88-.32 1.36-.39.1-.29.37-.51.7-.51s.6.21.7.51c.32.04.63.12.93.22.26.08.51.19.75.31V3.59L9.61 0H0v15.98h3.48v-1.5H1.5zm8.93 1.91H9.09V1.76zM2.74 6.48v-1.5h4.64c-.62.39-1.15.9-1.56 1.5zm1.51 1.47c-.03.14-.06.28-.06.42v1.08H2.74v-1.5zm10.5 4.72h-.17v-2.09c.41-.13.71-.49.71-.94V8.37c0-.55-.45-1-1-1h-.22a4.43 4.43 0 0 0-3.2-2.35v-.03c0-.41-.34-.75-.75-.75s-.75.34-.75.75v.03c-1.4.24-2.57 1.13-3.2 2.35h-.23c-.55 0-1 .45-1 1v1.27c0 .45.3.82.71.94v2.08h-.18c-.69 0-1.25.56-1.25 1.25V16h11.77v-2.09c0-.69-.56-1.25-1.25-1.25Zm-7.53-3.8h5.8c.02.09.04.18.05.27h-5.9c0-.09.03-.18.05-.27m2.91-2.18c.07.16.15.39.22.68h-.43c.07-.29.14-.53.22-.68Zm.47 3.95v2.03h-.97v-2.03zm1.5 0h.97v2.03h-.97zm.15-3.27h-.37c-.02-.14-.06-.27-.09-.39.17.12.32.25.46.39m-3.77-.42c-.03.14-.07.27-.09.42h-.4c.15-.16.31-.3.49-.42m-1.32 3.69h.97v2.03h-.97zm7.34 3.87H5.73v-.34h8.77z"/>
</svg>
