<svg viewBox="0 0 40 40" xmlns="http://www.w3.org/2000/svg">
  <path d="m13.68 9.48-1.6-1.6L20-.03l7.84 7.84-1.6 1.6-6.25-6.25-6.32 6.32ZM20 36.79l-6.25-6.25-1.6 1.6 7.84 7.84 7.91-7.91-1.6-1.6-6.32 6.32Zm5.31-17.94H14.69c-.62 0-1.13.51-1.13 1.13s.51 1.13 1.13 1.13h10.62c.62 0 1.13-.51 1.13-1.13s-.51-1.13-1.13-1.13m0 4.51H14.69c-.62 0-1.13.51-1.13 1.13s.51 1.13 1.13 1.13h10.62c.62 0 1.13-.51 1.13-1.13s-.51-1.13-1.13-1.13m0-9.02H14.69c-.62 0-1.13.51-1.13 1.13s.51 1.13 1.13 1.13h10.62c.62 0 1.13-.51 1.13-1.13s-.51-1.13-1.13-1.13"/>
</svg>
