<svg viewBox="0 0 32 32" xmlns="http://www.w3.org/2000/svg">
  <path d="M12.01 8.92 9.53 6.44 16-.02l6.41 6.41-2.48 2.48-3.94-3.94L12 8.92Zm-3.12 3.12L6.41 9.56 0 15.98l6.47 6.47 2.48-2.48-3.99-3.99 3.94-3.94ZM16 27.02l-3.94-3.94-2.48 2.48 6.41 6.41 6.47-6.47-2.48-2.48-3.99 3.99Zm9.53-17.51-2.48 2.48 3.99 3.99-3.94 3.94 2.48 2.48 6.41-6.41-6.47-6.47Zm-5.63 1.7h-7.8c-.97 0-1.75.78-1.75 1.75s.78 1.75 1.75 1.75h7.8c.97 0 1.75-.78 1.75-1.75s-.78-1.75-1.75-1.75m0 6.01h-7.8c-.97 0-1.75.78-1.75 1.75s.78 1.75 1.75 1.75h7.8c.97 0 1.75-.78 1.75-1.75s-.78-1.75-1.75-1.75"/>
</svg>
