<svg viewBox="0 0 48 48" xmlns="http://www.w3.org/2000/svg">
  <path d="m16.29 11.23-1.77-1.77L24-.02l9.39 9.39-1.77 1.77L24 3.52zm-5.13 5.13-1.77-1.77L0 23.97l9.48 9.48 1.77-1.77-7.71-7.71 7.62-7.62ZM24 44.43l-7.62-7.62-1.77 1.77L24 47.97l9.48-9.48-1.77-1.77zM38.52 14.5l-1.77 1.77 7.71 7.71-7.62 7.62 1.77 1.77L48 23.98zm-8.11 8.22H17.58a1.25 1.25 0 0 0 0 2.5h12.83a1.25 1.25 0 0 0 0-2.5m0 5.01H17.58a1.25 1.25 0 0 0 0 2.5h12.83a1.25 1.25 0 0 0 0-2.5m0-10.02H17.58a1.25 1.25 0 0 0 0 2.5h12.83a1.25 1.25 0 0 0 0-2.5"/>
</svg>
