<svg viewBox="0 0 64 64" xmlns="http://www.w3.org/2000/svg">
  <path d="m14.43 21.44-1.95-1.95L0 31.96l12.59 12.59 1.95-1.95L3.9 31.96l10.52-10.52Zm36.98-2.07-1.95 1.95L60.1 31.96 49.58 42.48l1.95 1.95L64 31.96zM23.33 30.58c-.76 0-1.38.62-1.38 1.38s.62 1.38 1.38 1.38h17.34c.76 0 1.38-.62 1.38-1.38s-.62-1.38-1.38-1.38zm0 5.52c-.76 0-1.38.62-1.38 1.38s.62 1.38 1.38 1.38h17.34c.76 0 1.38-.62 1.38-1.38s-.62-1.38-1.38-1.38zm0-11.04c-.76 0-1.38.62-1.38 1.38s.62 1.38 1.38 1.38h17.34c.76 0 1.38-.62 1.38-1.38s-.62-1.38-1.38-1.38z"/>
</svg>
