<svg viewBox="0 0 64 64" xmlns="http://www.w3.org/2000/svg">
  <path d="m16.21 22.85-3.55-3.55L0 31.96l12.77 12.77 3.55-3.55-9.22-9.22zm35.02-3.66-3.55 3.55 9.22 9.22-9.11 9.11 3.55 3.55L64 31.96zM40.21 29.45H23.79c-1.39 0-2.51 1.12-2.51 2.51s1.12 2.51 2.51 2.51h16.42c1.39 0 2.51-1.12 2.51-2.51s-1.12-2.51-2.51-2.51m0-8.01H23.79c-1.39 0-2.51 1.12-2.51 2.51s1.12 2.51 2.51 2.51h16.42c1.39 0 2.51-1.12 2.51-2.51s-1.12-2.51-2.51-2.51m0 16.07H23.79c-1.39 0-2.51 1.12-2.51 2.51s1.12 2.51 2.51 2.51h16.42c1.39 0 2.51-1.12 2.51-2.51s-1.12-2.51-2.51-2.51"/>
</svg>
