<svg viewBox="0 0 32 32" xmlns="http://www.w3.org/2000/svg">
  <path d="M30.25 8.59h-.8c-.1-.87-.83-1.56-1.73-1.56s-1.63.68-1.73 1.56h-.8c-.97 0-1.75.78-1.75 1.75s.78 1.75 1.75 1.75h.78v1.56h-3.8v-1.74c0-2.11-1.72-3.83-3.82-3.83h-4.68c-2.11 0-3.82 1.72-3.82 3.83v1.74h-3.8v-1.56h.78c.97 0 1.75-.78 1.75-1.75S7.8 8.59 6.83 8.59h-.8c-.1-.87-.83-1.56-1.73-1.56s-1.63.68-1.73 1.56h-.8c-.97 0-1.75.78-1.75 1.75s.78 1.75 1.75 1.75h.78v2.28c0 1.53 1.25 2.78 2.78 2.78h2.29L4.47 20.3v2.39c0 .97.78 1.75 1.75 1.75s1.75-.78 1.75-1.75v-.94l3.4-3.4c.43 1.68 1.91 2.93 3.68 2.93h2.07c1.77 0 3.25-1.25 3.68-2.93l3.4 3.4v.94c0 .97.78 1.75 1.75 1.75s1.75-.78 1.75-1.75V20.3l-3.15-3.15h2.16c1.53 0 2.78-1.25 2.78-2.78v-2.28h.78c.97 0 1.75-.78 1.75-1.75s-.78-1.75-1.75-1.75Zm-15.2 3.58h2v2.23h-2zm2.37 5.21c0 .22-.14.41-.32.41h-2.07c-.17 0-.32-.19-.32-.41v-.23h2.7v.23Z"/>
</svg>
