<svg viewBox="0 0 24 24" xmlns="http://www.w3.org/2000/svg">
  <path d="M23.13 6.92h-1.56v-.28a.87.87 0 0 0-1.74 0v.28h-1.56a.87.87 0 0 0 0 1.74h1.56v2.01h-3.12V8.95a2.97 2.97 0 0 0-2.97-2.97h-3.47A2.97 2.97 0 0 0 7.3 8.95v1.72H4.18V8.66h1.56a.87.87 0 0 0 0-1.74H4.18v-.28a.87.87 0 0 0-1.74 0v.28H.87a.87.87 0 0 0 0 1.74h1.56v2.12c0 .9.74 1.64 1.64 1.64H6.8l-2.94 2.94v1.6a.87.87 0 0 0 1.74 0v-.88l3.27-3.27v.2c0 1.36 1.08 2.47 2.41 2.47h1.53c1.33 0 2.41-1.11 2.41-2.47v-.2l3.27 3.27v.88a.87.87 0 0 0 1.74 0v-1.6l-2.94-2.94h2.63c.9 0 1.64-.74 1.64-1.64V8.66h1.56a.87.87 0 0 0 0-1.74ZM9.04 8.96c0-.68.55-1.23 1.22-1.23h3.47c.67 0 1.22.55 1.22 1.23v1.72h-2.04V9.21h-1.75v1.47H9.02V8.96Zm4.44 4.06c0 .4-.3.73-.66.73h-1.53c-.36 0-.66-.33-.66-.73v-.59h2.85z"/>
</svg>
