<svg viewBox="0 0 16 16" xmlns="http://www.w3.org/2000/svg">
  <path d="M15 4.25h-.37c-.11-.43-.49-.75-.95-.75s-.84.32-.95.75h-.37c-.55 0-1 .45-1 1s.45 1 1 1h.32v.45h-1.42v-.69c0-1.17-.95-2.12-2.12-2.12H6.87c-1.17 0-2.12.95-2.12 2.12v.69H3.33v-.45h.32c.55 0 1-.45 1-1s-.45-1-1-1h-.37c-.11-.43-.49-.75-.95-.75s-.84.32-.95.75h-.37c-.55 0-1 .45-1 1s.45 1 1 1h.32v.95c0 .83.67 1.5 1.5 1.5h.74l-1.31 1.31v1.22c0 .55.45 1 1 1s1-.45 1-1v-.39l1.42-1.42c.3.75 1.01 1.28 1.85 1.28h1c.84 0 1.56-.53 1.86-1.29l1.42 1.42v.39c0 .55.45 1 1 1s1-.45 1-1V10L12.5 8.69h.68c.83 0 1.5-.67 1.5-1.5v-.95H15c.55 0 1-.45 1-1s-.45-1-1-1ZM8.8 6.7H7.3V5.49h1.5z"/>
</svg>
