<svg viewBox="0 0 48 48" xmlns="http://www.w3.org/2000/svg">
  <path d="M46.75 14.17h-3.72v-1.11a1.25 1.25 0 0 0-2.5 0v1.11h-3.72a1.25 1.25 0 0 0 0 2.5h3.72v4.86c0 .17-.14.32-.32.32h-7.13V17.8c0-3.06-2.48-5.54-5.53-5.54h-7.1c-3.05 0-5.53 2.49-5.53 5.54v4.05H7.79c-.17 0-.32-.14-.32-.32v-4.86h3.72a1.25 1.25 0 0 0 0-2.5H7.47v-1.11a1.25 1.25 0 0 0-2.5 0v1.11H1.25a1.25 1.25 0 0 0 0 2.5h3.72v4.86c0 1.55 1.26 2.82 2.82 2.82h6.87l-6.77 6.77v3.05a1.25 1.25 0 0 0 2.5 0v-2.01l7.77-7.77v1.71c0 2.49 1.97 4.52 4.38 4.52h3.13c2.42 0 4.38-2.03 4.38-4.52v-1.71l7.77 7.77v2.01a1.25 1.25 0 0 0 2.5 0v-3.05l-6.77-6.77h6.66c1.55 0 2.82-1.26 2.82-2.82v-4.86h3.72a1.25 1.25 0 0 0 0-2.5M17.41 17.8c0-1.68 1.36-3.04 3.03-3.04h7.1c1.67 0 3.03 1.36 3.03 3.04v4.05h-5.26v-2.9h-2.5v2.9H17.4V17.8Zm10.14 8.3c0 1.11-.84 2.02-1.88 2.02h-3.13c-1.04 0-1.88-.91-1.88-2.02v-1.75h6.9v1.75Z"/>
</svg>
