<svg viewBox="0 0 64 64" xmlns="http://www.w3.org/2000/svg">
  <path fill="#1e1e1c" d="M33.04 1.11 32.06.1l-.99 1.01c-.94.96-22.91 23.66-22.91 39.07 0 13.19 10.72 23.92 23.89 23.92s23.89-10.73 23.89-23.92c0-15.29-21.97-38.1-22.91-39.06Zm-.99 60.24c-11.66 0-21.14-9.5-21.14-21.17 0-12.53 16.84-31.47 21.14-36.1 4.29 4.64 21.14 23.67 21.14 36.1 0 11.67-9.48 21.17-21.14 21.17m.43-8.36c0 .76-.62 1.38-1.38 1.38-7.93 0-14.38-6.46-14.38-14.4 0-.76.62-1.38 1.38-1.38s1.38.62 1.38 1.38c0 6.42 5.22 11.64 11.63 11.64.76 0 1.38.62 1.38 1.38Z"/>
</svg>
