<svg viewBox="0 0 24 24" xmlns="http://www.w3.org/2000/svg">
  <path d="M1.73.88c0 .48-.39.88-.88.88s-.88-.4-.88-.88S.37 0 .85 0s.88.39.88.88m2.83.87c.48 0 .88-.39.88-.88S5.04 0 4.56 0s-.88.39-.88.88.39.88.88.88Zm3.71 0c.48 0 .88-.39.88-.88S8.75 0 8.27 0s-.88.39-.88.88.39.88.88.88Zm3.7 0c.48 0 .88-.39.88-.88S12.46 0 11.97 0s-.88.39-.88.88.39.88.88.88Zm3.71 0c.48 0 .88-.39.88-.88S16.17 0 15.68 0s-.88.39-.88.88.39.88.88.88Zm3.71 0c.48 0 .88-.39.88-.88s-.4-.87-.88-.87-.88.39-.88.88.39.88.88.88ZM23.1 0c-.48 0-.88.39-.88.88s.39.88.88.88.88-.39.88-.88-.4-.88-.88-.88M2.58 2.8c-.48 0-.88.39-.88.88s.39.88.88.88.88-.39.88-.88-.39-.88-.88-.88m3.7 1.75c.48 0 .88-.39.88-.88s-.39-.88-.88-.88-.88.39-.88.88.39.88.88.88m3.71 0c.48 0 .88-.39.88-.88s-.39-.88-.88-.88-.88.39-.88.88.39.88.88.88m3.71 0c.48 0 .88-.39.88-.88s-.39-.88-.88-.88-.88.39-.88.88.39.88.88.88m3.71 0c.48 0 .88-.39.88-.88s-.39-.88-.88-.88-.88.39-.88.88.39.88.88.88m3.71-1.75c-.48 0-.88.39-.88.88s.39.88.88.88.88-.39.88-.88-.39-.88-.88-.88M5.43 6.39c0-.48-.39-.88-.88-.88s-.88.39-.88.88.39.88.88.88.88-.39.88-.88m2.84.87c.48 0 .88-.39.88-.88s-.39-.88-.88-.88-.88.39-.88.88.39.88.88.88m3.7 0c.48 0 .88-.39.88-.88s-.39-.88-.88-.88-.88.39-.88.88.39.88.88.88m3.71 0c.48 0 .88-.39.88-.88s-.39-.88-.88-.88-.88.39-.88.88.39.88.88.88m3.71-1.75c-.48 0-.88.39-.88.88s.39.88.88.88.88-.39.88-.88-.39-.88-.88-.88M6.28 8.31c-.48 0-.88.39-.88.88s.39.88.88.88.88-.39.88-.88-.39-.88-.88-.88m11.13 0c-.48 0-.88.39-.88.88s.39.88.88.88.88-.39.88-.88-.39-.88-.88-.88m-4.43 8.95v6.54c.07-.03.15-.05.22-.1l5.07-3.12c.46-.28.78-.73.92-1.23.04-.17.07-.34.07-.52v-4.91zm5.62-5.31c-.14-.13-.29-.24-.46-.33l-5.06-2.63a1.7 1.7 0 0 0-.47-.17c-.06-.01-.13-.01-.19-.02-.1-.01-.2-.04-.3-.04-.33 0-.65.08-.95.23l-5.12 2.66c-.17.09-.33.2-.46.33-.06.06-.11.13-.17.19l6.7 3.57 6.68-3.56c-.06-.08-.12-.17-.19-.24ZM4.93 18.79c0 .72.37 1.39.99 1.76l5.12 3.15c.06.04.13.05.19.08v-6.53l-6.3-3.35z"/>
</svg>
