<svg viewBox="0 0 16 16" xmlns="http://www.w3.org/2000/svg">
  <path d="M1.5.74c0 .41-.34.75-.75.75S0 1.15 0 .74a.749.749 0 1 1 1.5 0m2.15.75c.41 0 .75-.34.75-.75s-.34-.75-.75-.75-.75.34-.75.75.34.75.75.75m2.9 0c.41 0 .75-.34.75-.75s-.34-.75-.75-.75-.75.34-.75.75.34.75.75.75m2.89 0a.749.749 0 1 0 .002-1.502.749.749 0 0 0-.002 1.502m2.9 0a.749.749 0 1 0 .002-1.502.749.749 0 0 0-.002 1.502M3.65 6.34c.41 0 .75-.34.75-.75s-.34-.75-.75-.75-.75.34-.75.75.34.75.75.75m8.69-1.5c-.41 0-.75.34-.75.75s.34.75.75.75.75-.34.75-.75-.34-.75-.75-.75M15.24 0c-.41 0-.75.34-.75.75s.34.75.75.75.75-.34.75-.75-.33-.75-.75-.75M2.23 2.39c-.41 0-.75.34-.75.75s.34.75.75.75.75-.34.75-.75-.34-.75-.75-.75m2.9 1.5c.41 0 .75-.34.75-.75s-.34-.75-.75-.75-.75.34-.75.75.34.75.75.75m2.9 0c.41 0 .75-.34.75-.75s-.34-.75-.75-.75-.75.34-.75.75.34.75.75.75m2.9 0c.41 0 .75-.34.75-.75s-.34-.75-.75-.75-.75.34-.75.75.34.75.75.75m2.9-1.5c-.41 0-.75.34-.75.75s.34.75.75.75.75-.34.75-.75-.34-.75-.75-.75m-5.01 8.87v4.53h.01l3.51-2.16c.32-.2.54-.5.64-.85.03-.12.05-.24.05-.36v-3.4l-4.21 2.26Zm-.74-5.83c-.05 0-.11.01-.16.02-.17.02-.34.06-.5.14L3.87 7.43c-.08.04-.14.1-.21.15l4.42 2.38 4.42-2.38c-.08-.06-.15-.13-.25-.17L8.74 5.59c-.21-.11-.43-.16-.66-.16M3.1 12.38c0 .25.06.49.18.7s.29.39.5.52l3.54 2.17v-4.52L3.1 8.98z"/>
</svg>
