<svg viewBox="0 0 48 48" xmlns="http://www.w3.org/2000/svg">
  <path d="m34.81 25.22-9.32-4.83c-.55-.28-1.15-.43-1.75-.43s-1.2.14-1.75.43l-9.43 4.89a3.83 3.83 0 0 0-2.06 3.38v9.76a3.8 3.8 0 0 0 1.82 3.24l9.43 5.79c.61.38 1.3.56 2 .56s1.38-.19 2-.56l9.34-5.74a3.83 3.83 0 0 0 1.82-3.23v-9.89a3.87 3.87 0 0 0-2.07-3.38Zm-11.08 7.52-9.79-5.23.05-.05 9.17-4.75c.18-.09.38-.14.58-.14s.4.05.58.14l8.19 4.25.89.58-9.67 5.21Zm-10.11 6.8c-.38-.24-.62-.66-.62-1.12v-8.58l9.46 5.05v10.07l-8.83-5.43Zm20.14.06-8.8 5.41V34.92l9.41-5.07v8.64c.01.46-.22.87-.61 1.11M2.7 1.38c0 .75-.6 1.35-1.35 1.35S0 2.13 0 1.38.6.04 1.35.04 2.7.64 2.7 1.39Zm3.77 0c0-.74.6-1.34 1.35-1.34s1.35.6 1.35 1.35-.6 1.35-1.35 1.35-1.35-.6-1.35-1.35Zm6.48 0c0-.75.6-1.35 1.35-1.35s1.35.6 1.35 1.35-.6 1.35-1.35 1.35-1.35-.6-1.35-1.35m6.46 0c0-.75.6-1.35 1.35-1.35s1.35.6 1.35 1.35-.6 1.35-1.35 1.35-1.35-.6-1.35-1.35m6.48 0c0-.75.6-1.35 1.35-1.35s1.35.6 1.35 1.35-.6 1.35-1.35 1.35-1.35-.6-1.35-1.35m6.47 0c0-.75.6-1.35 1.35-1.35s1.35.6 1.35 1.35-.6 1.35-1.35 1.35-1.35-.6-1.35-1.35m6.47 0c0-.75.6-1.35 1.35-1.35s1.35.6 1.35 1.35-.6 1.35-1.35 1.35-1.35-.6-1.35-1.35m9.17 0c0 .75-.6 1.35-1.35 1.35s-1.35-.6-1.35-1.35.6-1.35 1.35-1.35S48 .63 48 1.38M5.96 6.11c0 .75-.6 1.35-1.35 1.35s-1.35-.6-1.35-1.35.6-1.35 1.35-1.35 1.35.6 1.35 1.35m3.77 0c0-.75.6-1.35 1.35-1.35s1.35.6 1.35 1.35-.6 1.35-1.35 1.35-1.35-.6-1.35-1.35m6.46 0c0-.75.6-1.35 1.35-1.35s1.35.6 1.35 1.35-.6 1.35-1.35 1.35-1.35-.6-1.35-1.35m6.47 0c0-.75.6-1.35 1.35-1.35s1.35.6 1.35 1.35-.6 1.35-1.35 1.35-1.35-.6-1.35-1.35m6.46 0c0-.75.6-1.35 1.35-1.35s1.35.6 1.35 1.35-.6 1.35-1.35 1.35-1.35-.6-1.35-1.35m9.18 0c0 .75-.6 1.35-1.35 1.35s-1.35-.6-1.35-1.35.6-1.35 1.35-1.35 1.35.6 1.35 1.35m6.47 0c0 .75-.6 1.35-1.35 1.35s-1.35-.6-1.35-1.35.6-1.35 1.35-1.35 1.35.6 1.35 1.35M9.18 10.74c0 .75-.6 1.35-1.35 1.35s-1.35-.6-1.35-1.35.6-1.35 1.35-1.35 1.35.6 1.35 1.35m6.47 0c0 .75-.6 1.35-1.35 1.35s-1.35-.6-1.35-1.35.6-1.35 1.35-1.35 1.35.6 1.35 1.35m6.48 0c0 .75-.6 1.35-1.35 1.35s-1.35-.6-1.35-1.35.6-1.35 1.35-1.35 1.35.6 1.35 1.35m3.76 0c0-.75.6-1.35 1.35-1.35s1.35.6 1.35 1.35-.6 1.35-1.35 1.35-1.35-.6-1.35-1.35m6.47 0c0-.75.6-1.35 1.35-1.35s1.35.6 1.35 1.35-.6 1.35-1.35 1.35-1.35-.6-1.35-1.35m9.17 0c0 .75-.6 1.35-1.35 1.35s-1.35-.6-1.35-1.35.6-1.35 1.35-1.35 1.35.6 1.35 1.35m-30.46 5.89c-.75 0-1.35-.6-1.35-1.35s.6-1.35 1.35-1.35 1.35.6 1.35 1.35-.6 1.35-1.35 1.35m7.82-1.35c0 .75-.6 1.35-1.35 1.35s-1.35-.6-1.35-1.35.6-1.35 1.35-1.35 1.35.6 1.35 1.35m3.76 0c0-.75.6-1.35 1.35-1.35s1.35.6 1.35 1.35-.6 1.35-1.35 1.35-1.35-.6-1.35-1.35m9.17 0c0 .75-.6 1.35-1.35 1.35s-1.35-.6-1.35-1.35.6-1.35 1.35-1.35 1.35.6 1.35 1.35m6.47 0c0 .75-.6 1.35-1.35 1.35s-1.35-.6-1.35-1.35.6-1.35 1.35-1.35 1.35.6 1.35 1.35m-22.63 4.63c0 .75-.6 1.35-1.35 1.35s-1.35-.6-1.35-1.35.6-1.35 1.35-1.35 1.35.6 1.35 1.35m16.62 0c0-.75.6-1.35 1.35-1.35s1.35.6 1.35 1.35-.6 1.35-1.35 1.35-1.35-.6-1.35-1.35"/>
</svg>
