<svg viewBox="0 0 32 32" xmlns="http://www.w3.org/2000/svg">
  <path d="m23.21 16.78-6.22-3.22a2.55 2.55 0 0 0-2.34.01l-6.29 3.26c-.84.44-1.37 1.31-1.37 2.26v6.51c0 .88.46 1.7 1.21 2.16l6.28 3.86c.41.25.87.38 1.33.38s.92-.13 1.33-.38l6.22-3.83c.75-.46 1.21-1.28 1.21-2.16v-6.6c-.01-.95-.54-1.82-1.38-2.25Zm-7.39 4.64-5.83-3.11 5.6-2.9a.47.47 0 0 1 .46 0l5.2 2.7.23.26-5.67 3.06Zm-6.57 4.63a.54.54 0 0 1-.26-.46v-5.55l5.81 3.1v6.32zm13.08.04-5.53 3.4v-6.32l5.78-3.11v5.58c0 .19-.09.36-.25.46ZM1.99 1c0 .55-.45 1-1 1S0 1.56 0 1s.44-1 .99-1 1 .45 1 1m2.29 0c0-.55.45-1 1-1s1 .45 1 1-.45 1-1 1-1-.45-1-1m4.28 0c0-.55.45-1 1-1s1 .45 1 1-.45 1-1 1-1-.45-1-1m4.29 0c0-.55.45-1 1-1s1 .45 1 1-.45 1-1 1-1-.45-1-1m4.28 0c0-.55.45-1 1-1s1 .45 1 1-.45 1-1 1-1-.45-1-1m4.29 0c0-.55.45-1 1-1s1 .45 1 1-.45 1-1 1-1-.45-1-1m4.29 0c0-.55.44-1 1-1s1 .45 1 1-.45 1-1 1-1-.45-1-1m6.28 0c0 .55-.45 1-1 1s-1-.45-1-1 .45-1 1-1 1 .45 1 1M3.97 4.03c0 .55-.45 1-1 1s-1-.45-1-1 .45-1 1-1 1 .45 1 1m2.28 0c0-.55.45-1 1-1s1 .45 1 1-.45 1-1 1-1-.45-1-1m4.29 0c0-.55.45-1 1-1s1 .45 1 1-.45 1-1 1-1-.45-1-1m4.29 0c0-.55.45-1 1-1s1 .45 1 1-.45 1-1 1-1-.45-1-1m4.28 0c0-.55.45-1 1-1s1 .45 1 1-.45 1-1 1-1-.45-1-1m6.29 0c0 .55-.45 1-1 1s-1-.45-1-1 .45-1 1-1 1 .45 1 1m4.28 0c0 .55-.45 1-1 1s-1-.45-1-1 .45-1 1-1 1 .45 1 1M6.28 7.12c0 .55-.45 1-1 1s-1-.45-1-1 .45-1 1-1 1 .45 1 1m2.28 0c0-.55.45-1 1-1s1 .45 1 1-.45 1-1 1-1-.45-1-1m4.29 0c0-.55.45-1 1-1s1 .45 1 1-.45 1-1 1-1-.45-1-1m4.28 0c0-.55.45-1 1-1s1 .45 1 1-.45 1-1 1-1-.45-1-1m4.29 0c0-.55.45-1 1-1s1 .45 1 1-.45 1-1 1-1-.45-1-1m6.29 0c0 .55-.45 1-1 1s-1-.45-1-1 .45-1 1-1 1 .45 1 1M7.25 11.15c-.55 0-1-.45-1-1s.45-1 1-1 1 .45 1 1-.45 1-1 1m5.29-1c0 .55-.45 1-1 1s-1-.45-1-1 .45-1 1-1 1 .45 1 1m4.29 0c0 .55-.45 1-1 1s-1-.45-1-1 .45-1 1-1 1 .45 1 1m4.28 0c0 .55-.45 1-1 1s-1-.45-1-1 .45-1 1-1 1 .45 1 1m4.29 0c0 .55-.45 1-1 1s-1-.45-1-1 .45-1 1-1 1 .45 1 1M8.56 13.24c0-.55.45-1 1-1s1 .45 1 1-.45 1-1 1-1-.45-1-1m12.86 0c0-.55.45-1 1-1s1 .45 1 1-.45 1-1 1-1-.45-1-1"/>
</svg>
