<svg viewBox="0 0 40 40" xmlns="http://www.w3.org/2000/svg">
  <path d="m29.01 21-7.77-4.03c-.46-.24-.96-.36-1.46-.36s-1 .12-1.46.36l-7.86 4.08a3.18 3.18 0 0 0-1.71 2.82V32c0 1.1.58 2.13 1.52 2.7l7.86 4.83c.51.31 1.09.47 1.66.47s1.15-.16 1.66-.47l7.78-4.78c.94-.58 1.51-1.59 1.51-2.69v-8.24a3.18 3.18 0 0 0-1.73-2.81Zm-9.24 6.08-7.8-4.16.02-.03 7.38-3.82c.12-.06.27-.1.41-.1s.28.03.41.1l6.54 3.39.53.6-7.48 4.03Zm-8.33 5.71A.94.94 0 0 1 11 32v-7.06l7.63 4.08v8.19zm16.6.05-7.16 4.4v-8.2l7.6-4.09v7.11c0 .32-.16.62-.43.79ZM2.25 1.14c0 .62-.5 1.12-1.12 1.12S0 1.76 0 1.14.5.02 1.12.02s1.12.5 1.12 1.12Zm3.14 0c0-.62.5-1.12 1.13-1.12s1.12.5 1.12 1.12-.5 1.12-1.12 1.12-1.12-.5-1.12-1.12Zm5.4 0c0-.62.51-1.12 1.13-1.12s1.12.5 1.12 1.12-.5 1.12-1.12 1.12-1.12-.5-1.12-1.12Zm5.39 0c0-.62.5-1.12 1.12-1.12s1.12.5 1.12 1.12-.5 1.12-1.12 1.12-1.12-.5-1.12-1.12m5.39 0c0-.62.5-1.12 1.12-1.12s1.12.5 1.12 1.12-.5 1.12-1.12 1.12-1.12-.5-1.12-1.12m5.4 0c0-.62.5-1.12 1.12-1.12s1.12.5 1.12 1.12-.5 1.12-1.12 1.12-1.12-.5-1.12-1.12m5.39 0c0-.62.5-1.12 1.12-1.12s1.12.5 1.12 1.12-.5 1.12-1.12 1.12-1.12-.5-1.12-1.12M40 1.13c0 .62-.5 1.12-1.12 1.12s-1.12-.5-1.12-1.12S38.25 0 38.87 0s1.12.5 1.12 1.12ZM4.96 5.08c0 .62-.5 1.12-1.12 1.12s-1.12-.5-1.12-1.12.5-1.12 1.12-1.12 1.12.5 1.12 1.12m3.15 0c0-.62.5-1.12 1.12-1.12s1.12.5 1.12 1.12-.5 1.12-1.12 1.12-1.12-.5-1.12-1.12m5.38 0c0-.62.5-1.12 1.12-1.12s1.12.5 1.12 1.12-.5 1.12-1.12 1.12-1.12-.5-1.12-1.12m5.39 0c0-.62.5-1.12 1.12-1.12s1.12.5 1.12 1.12S20.62 6.2 20 6.2s-1.12-.5-1.12-1.12m5.39 0c0-.62.5-1.12 1.12-1.12s1.12.5 1.12 1.12-.5 1.12-1.12 1.12-1.12-.5-1.12-1.12m7.64 0c0 .62-.5 1.12-1.12 1.12s-1.12-.5-1.12-1.12.5-1.12 1.12-1.12 1.12.5 1.12 1.12m5.4 0c0 .62-.5 1.12-1.12 1.12s-1.12-.5-1.12-1.12.5-1.12 1.12-1.12 1.12.5 1.12 1.12M7.65 8.93c0 .62-.5 1.12-1.12 1.12s-1.12-.5-1.12-1.12.5-1.12 1.12-1.12 1.12.5 1.12 1.12m5.4 0c0 .62-.5 1.12-1.12 1.12s-1.12-.5-1.12-1.12.5-1.12 1.12-1.12 1.12.5 1.12 1.12m5.39 0c0 .62-.5 1.12-1.12 1.12s-1.12-.5-1.12-1.12.5-1.12 1.12-1.12 1.12.5 1.12 1.12m3.13 0c0-.62.5-1.12 1.12-1.12s1.12.5 1.12 1.12-.5 1.12-1.12 1.12-1.12-.5-1.12-1.12m5.4 0c0-.62.5-1.12 1.12-1.12s1.12.5 1.12 1.12-.5 1.12-1.12 1.12-1.12-.5-1.12-1.12m7.64 0c0 .62-.5 1.12-1.12 1.12s-1.12-.5-1.12-1.12.5-1.12 1.12-1.12 1.12.5 1.12 1.12M9.23 13.84c-.62 0-1.12-.5-1.12-1.12s.5-1.12 1.12-1.12 1.12.5 1.12 1.12-.5 1.12-1.12 1.12m6.51-1.12c0 .62-.5 1.12-1.12 1.12s-1.12-.5-1.12-1.12.5-1.12 1.12-1.12 1.12.5 1.12 1.12m3.14 0c0-.62.5-1.12 1.12-1.12s1.12.5 1.12 1.12-.5 1.12-1.12 1.12-1.12-.5-1.12-1.12m7.64 0c0 .62-.5 1.12-1.12 1.12s-1.12-.5-1.12-1.12.5-1.12 1.12-1.12 1.12.5 1.12 1.12m5.39 0c0 .62-.5 1.12-1.12 1.12s-1.12-.5-1.12-1.12.5-1.12 1.12-1.12 1.12.5 1.12 1.12m-18.86 3.86c0 .62-.5 1.12-1.12 1.12s-1.12-.5-1.12-1.12.5-1.12 1.12-1.12 1.12.5 1.12 1.12m13.85 0c0-.62.5-1.12 1.12-1.12s1.12.5 1.12 1.12-.5 1.12-1.12 1.12-1.12-.5-1.12-1.12"/>
</svg>
