<svg viewBox="0 0 48 48" xmlns="http://www.w3.org/2000/svg">
  <path d="m10.49 29.42 11.96 6.39v11.98s-.08-.02-.11-.03c-.21-.08-.41-.17-.6-.29l-9.43-5.79a3.83 3.83 0 0 1-1.82-3.25v-9Zm25.82-2.8c-.18-.29-.4-.56-.65-.8s-.54-.44-.85-.6l-9.32-4.83c-.27-.14-.56-.25-.86-.32h-.02c-.29-.07-.58-.1-.87-.1s-.59.04-.87.1h-.02c-.29.07-.58.18-.86.32l-9.43 4.89c-.32.16-.6.37-.85.61-.29.28-.54.6-.73.95l12.7 6.79 12.74-6.81c-.03-.06-.06-.13-.1-.2Zm-11.36 9.15v12.05c.1-.03.2-.06.3-.11.16-.07.32-.15.47-.25l9.34-5.74a3.83 3.83 0 0 0 1.82-3.23s-.01-9.09-.01-9.09l-11.91 6.37ZM1.35.02a1.35 1.35 0 1 0 .001 2.701A1.35 1.35 0 0 0 1.35.02m6.47 2.7A1.35 1.35 0 1 0 7.819.021 1.35 1.35 0 0 0 7.82 2.72m6.48 0c.75 0 1.35-.6 1.35-1.35S15.05.02 14.3.02s-1.35.6-1.35 1.35.6 1.35 1.35 1.35m6.46 0c.75 0 1.35-.6 1.35-1.35S21.51.02 20.76.02s-1.35.6-1.35 1.35.6 1.35 1.35 1.35m6.48 0c.75 0 1.35-.6 1.35-1.35S27.99.02 27.24.02s-1.35.6-1.35 1.35.6 1.35 1.35 1.35m6.47 0c.75 0 1.35-.6 1.35-1.35S34.46.02 33.71.02s-1.35.6-1.35 1.35.6 1.35 1.35 1.35m6.47 0a1.35 1.35 0 1 0-.001-2.699 1.35 1.35 0 0 0 .001 2.699M46.65.01c-.75 0-1.35.6-1.35 1.35s.6 1.35 1.35 1.35S48 2.11 48 1.36 47.39.01 46.65.01M4.61 4.74c-.75 0-1.35.6-1.35 1.35s.6 1.35 1.35 1.35 1.35-.6 1.35-1.35-.6-1.35-1.35-1.35m6.47 2.7c.75 0 1.35-.6 1.35-1.35s-.6-1.35-1.35-1.35-1.35.6-1.35 1.35.6 1.35 1.35 1.35m6.46 0c.75 0 1.35-.6 1.35-1.35s-.6-1.35-1.35-1.35-1.35.6-1.35 1.35.6 1.35 1.35 1.35m6.47 0c.75 0 1.35-.6 1.35-1.35s-.6-1.35-1.35-1.35-1.35.6-1.35 1.35.6 1.35 1.35 1.35m6.46 0c.75 0 1.35-.6 1.35-1.35s-.6-1.35-1.35-1.35-1.35.6-1.35 1.35.6 1.35 1.35 1.35m6.48-2.7c-.75 0-1.35.6-1.35 1.35s.6 1.35 1.35 1.35 1.35-.6 1.35-1.35-.6-1.35-1.35-1.35m6.47 0c-.75 0-1.35.6-1.35 1.35s.6 1.35 1.35 1.35 1.35-.6 1.35-1.35-.6-1.35-1.35-1.35M7.83 9.38c-.75 0-1.35.6-1.35 1.35s.6 1.35 1.35 1.35 1.35-.6 1.35-1.35-.6-1.35-1.35-1.35m6.47 0c-.75 0-1.35.6-1.35 1.35s.6 1.35 1.35 1.35 1.35-.6 1.35-1.35-.6-1.35-1.35-1.35m6.48 0c-.75 0-1.35.6-1.35 1.35s.6 1.35 1.35 1.35 1.35-.6 1.35-1.35-.6-1.35-1.35-1.35m6.46 2.7c.75 0 1.35-.6 1.35-1.35s-.6-1.35-1.35-1.35-1.35.6-1.35 1.35.6 1.35 1.35 1.35m6.47 0c.75 0 1.35-.6 1.35-1.35s-.6-1.35-1.35-1.35-1.35.6-1.35 1.35.6 1.35 1.35 1.35m6.47-2.7c-.75 0-1.35.6-1.35 1.35s.6 1.35 1.35 1.35 1.35-.6 1.35-1.35-.6-1.35-1.35-1.35m-27.76 5.89c0-.75-.6-1.35-1.35-1.35s-1.35.6-1.35 1.35.6 1.35 1.35 1.35 1.35-.6 1.35-1.35m5.12-1.35c-.75 0-1.35.6-1.35 1.35s.6 1.35 1.35 1.35 1.35-.6 1.35-1.35-.6-1.35-1.35-1.35m6.46 2.7c.75 0 1.35-.6 1.35-1.35s-.6-1.35-1.35-1.35-1.35.6-1.35 1.35.6 1.35 1.35 1.35m6.47-2.7c-.75 0-1.35.6-1.35 1.35s.6 1.35 1.35 1.35 1.35-.6 1.35-1.35-.6-1.35-1.35-1.35m6.47 0c-.75 0-1.35.6-1.35 1.35s.6 1.35 1.35 1.35 1.35-.6 1.35-1.35-.6-1.35-1.35-1.35m-22.63 4.63c-.75 0-1.35.6-1.35 1.35s.6 1.35 1.35 1.35 1.35-.6 1.35-1.35-.6-1.35-1.35-1.35m19.32 2.7c.75 0 1.35-.6 1.35-1.35s-.6-1.35-1.35-1.35-1.35.6-1.35 1.35.6 1.35 1.35 1.35"/>
</svg>
