<svg viewBox="0 0 40 40" xmlns="http://www.w3.org/2000/svg">
  <path d="M2.25 1.13c0 .62-.5 1.12-1.12 1.12S0 1.75 0 1.13.5 0 1.12 0s1.12.5 1.12 1.12Zm4.27 1.12c.62 0 1.12-.5 1.12-1.12S7.14 0 6.52 0 5.4.5 5.4 1.12s.5 1.12 1.12 1.12Zm5.4 0c.62 0 1.12-.5 1.12-1.12S12.54 0 11.92 0 10.8.5 10.8 1.12s.5 1.12 1.12 1.12Zm5.38 0c.62 0 1.12-.5 1.12-1.12S17.93 0 17.3 0s-1.12.5-1.12 1.12.5 1.12 1.12 1.12Zm5.4 0c.62 0 1.12-.5 1.12-1.12S23.32 0 22.7 0s-1.12.5-1.12 1.12.5 1.12 1.12 1.12Zm5.39 0c.62 0 1.12-.5 1.12-1.12S28.71 0 28.09 0s-1.12.5-1.12 1.12.5 1.12 1.12 1.12Zm5.39 0c.62 0 1.12-.5 1.12-1.12S34.1 0 33.48 0s-1.12.5-1.12 1.12.5 1.12 1.12 1.12ZM38.87 0c-.62 0-1.12.5-1.12 1.12s.5 1.12 1.12 1.12 1.12-.5 1.12-1.12S39.5 0 38.87 0M3.84 3.94c-.62 0-1.12.5-1.12 1.12s.5 1.12 1.12 1.12 1.12-.5 1.12-1.12-.5-1.12-1.12-1.12m5.39 2.25c.62 0 1.12-.5 1.12-1.12s-.5-1.12-1.12-1.12-1.12.5-1.12 1.12.5 1.12 1.12 1.12m5.38 0c.62 0 1.12-.5 1.12-1.12s-.5-1.12-1.12-1.12-1.12.5-1.12 1.12.5 1.12 1.12 1.12m5.4 0c.62 0 1.12-.5 1.12-1.12s-.5-1.12-1.12-1.12-1.12.5-1.12 1.12.5 1.12 1.12 1.12m5.38 0c.62 0 1.12-.5 1.12-1.12s-.5-1.12-1.12-1.12-1.12.5-1.12 1.12.5 1.12 1.12 1.12m5.4-2.25c-.62 0-1.12.5-1.12 1.12s.5 1.12 1.12 1.12 1.12-.5 1.12-1.12-.5-1.12-1.12-1.12m5.39 0c-.62 0-1.12.5-1.12 1.12s.5 1.12 1.12 1.12 1.12-.5 1.12-1.12-.5-1.12-1.12-1.12M6.53 7.8c-.62 0-1.12.5-1.12 1.12s.5 1.12 1.12 1.12 1.12-.5 1.12-1.12-.5-1.12-1.12-1.12m5.39 0c-.62 0-1.12.5-1.12 1.12s.5 1.12 1.12 1.12 1.12-.5 1.12-1.12-.5-1.12-1.12-1.12m5.4 0c-.62 0-1.12.5-1.12 1.12s.5 1.12 1.12 1.12 1.12-.5 1.12-1.12-.5-1.12-1.12-1.12m5.38 2.25c.62 0 1.12-.5 1.12-1.12s-.5-1.12-1.12-1.12-1.12.5-1.12 1.12.5 1.12 1.12 1.12m5.39 0c.62 0 1.12-.5 1.12-1.12s-.5-1.12-1.12-1.12-1.12.5-1.12 1.12.5 1.12 1.12 1.12m5.39-2.25c-.62 0-1.12.5-1.12 1.12s.5 1.12 1.12 1.12 1.12-.5 1.12-1.12-.5-1.12-1.12-1.12m-23.13 4.91c0-.62-.5-1.12-1.12-1.12s-1.12.5-1.12 1.12.5 1.12 1.12 1.12 1.12-.5 1.12-1.12m4.27-1.12c-.62 0-1.12.5-1.12 1.12s.5 1.12 1.12 1.12 1.12-.5 1.12-1.12-.5-1.12-1.12-1.12M20 13.84c.62 0 1.12-.5 1.12-1.12s-.5-1.12-1.12-1.12-1.12.5-1.12 1.12.5 1.12 1.12 1.12m5.39-2.25c-.62 0-1.12.5-1.12 1.12s.5 1.12 1.12 1.12 1.12-.5 1.12-1.12-.5-1.12-1.12-1.12m5.4 0c-.62 0-1.12.5-1.12 1.12s.5 1.12 1.12 1.12 1.12-.5 1.12-1.12-.5-1.12-1.12-1.12m-18.87 3.86c-.62 0-1.12.5-1.12 1.12s.5 1.12 1.12 1.12 1.12-.5 1.12-1.12-.5-1.12-1.12-1.12m16.11 2.25c.62 0 1.12-.5 1.12-1.12s-.5-1.12-1.12-1.12-1.12.5-1.12 1.12.5 1.12 1.12 1.12m1.96 4.09c-.27-.32-.6-.6-.98-.8l-7.77-4.03c-.23-.12-.47-.21-.71-.27-.04 0-.08 0-.12-.01-.21-.04-.41-.07-.62-.07-.13 0-.26.03-.39.05-.12.01-.24.01-.35.04-.25.06-.49.15-.71.27l-7.86 4.08c-.13.07-.26.15-.38.23-.24.17-.45.37-.63.59-.08.1-.16.22-.23.33l10.68 5.72 10.43-5.6c-.1-.19-.21-.37-.34-.54ZM8.75 32c0 .55.14 1.08.4 1.55s.64.87 1.11 1.16l7.86 4.83c.16.1.34.18.51.25V29.8l-9.88-5.3v7.51Zm12.13-2.04v9.85c.19-.07.38-.16.56-.27l7.78-4.78c.94-.58 1.51-1.59 1.51-2.69v-7.38l-9.86 5.28Z"/>
</svg>
