<svg viewBox="0 0 48 48" xmlns="http://www.w3.org/2000/svg">
  <path d="M16.23 14.54c0 1.46-1.19 2.64-2.64 2.64s-2.64-1.19-2.64-2.64 1.19-2.64 2.64-2.64 2.64 1.19 2.64 2.64M48 3.65V25c-2.95-4.78-8.22-7.98-14.25-7.98-5.49 0-10.34 2.65-13.4 6.73-.8-.87-1.93-1.42-3.2-1.42h-7.01c-2.41 0-4.37 1.96-4.37 4.37v4.89h2.5V26.7c0-1.03.84-1.87 1.87-1.87h7.01c.8 0 1.48.51 1.75 1.23-1.2 2.31-1.89 4.92-1.89 7.7 0 1.59.24 3.13.65 4.58H3.65A3.643 3.643 0 0 1 0 34.7V3.67C0 1.66 1.64.02 3.65.02L44.35 0C46.36 0 48 1.64 48 3.65M18.73 14.54c0-2.84-2.31-5.14-5.14-5.14s-5.15 2.31-5.15 5.14 2.31 5.14 5.15 5.14 5.14-2.31 5.14-5.14m23.69-6.52h-3.25V4.77h-2.5v3.25h-3.25v2.5h3.25v3.25h2.5v-3.25h3.25zm5.57 25.74C47.99 41.61 41.6 48 33.75 48s-14.24-6.39-14.24-14.24 6.39-14.24 14.24-14.24 14.24 6.39 14.24 14.24m-8.13-5.58c-.58-.38-1.35-.23-1.73.35l-5.32 8-3.37-2.41a1.248 1.248 0 0 0-1.45 2.03l5.48 3.91 6.75-10.15c.38-.58.23-1.35-.35-1.73Z"/>
</svg>
