<svg viewBox="0 0 24 24" xmlns="http://www.w3.org/2000/svg">
  <path d="M7.25 9.85c1.56 0 2.82-1.27 2.82-2.82S8.81 4.21 7.25 4.21 4.43 5.48 4.43 7.03s1.26 2.82 2.82 2.82m0-3.9a1.071 1.071 0 0 1 0 2.14 1.071 1.071 0 0 1 0-2.14m10.83-.18h-1.37V4.02h1.37V2.65h1.75v1.37h1.37v1.75h-1.37v1.37h-1.75zm5.9 11.28V2.38c0-1.31-1.06-2.38-2.37-2.38H2.37C1.06 0 0 1.07 0 2.38v14.91c0 1.31 1.06 2.37 2.37 2.37h7.95A7.12 7.12 0 0 0 16.88 24c3.74 0 6.8-2.89 7.09-6.55 0-.06.02-.11.02-.16v-.24Zm-21.61.87c-.34 0-.62-.28-.62-.62V2.38c0-.34.28-.62.62-.62h19.24c.34 0 .62.28.62.62v9.83a7.1 7.1 0 0 0-2.03-1.62c.37-.1.65-.43.65-.83a.87.87 0 0 0-.87-.87h-5.41a.87.87 0 0 0-.6 1.5 7.2 7.2 0 0 0-2.75 2.19 2.4 2.4 0 0 0-2.18-1.4h-3.5c-1.34 0-2.43 1.09-2.43 2.43v2.45h1.75v-2.45c0-.38.31-.68.68-.68h3.5c.38 0 .68.31.68.68v2.45h.09c-.03.27-.05.55-.05.83 0 .35.03.7.08 1.03zm14.5 4.34c-2.96 0-5.37-2.41-5.37-5.37s2.41-5.37 5.37-5.37 5.37 2.41 5.37 5.37-2.41 5.37-5.37 5.37m2.81-8.04c.4.27.51.81.24 1.21l-3.09 4.61-2.63-1.87a.88.88 0 0 1-.21-1.22.88.88 0 0 1 1.22-.21l1.17.83 2.09-3.12c.27-.4.81-.51 1.21-.24Z"/>
</svg>
