<svg viewBox="0 0 16 16" xmlns="http://www.w3.org/2000/svg">
  <path d="M13.75 1.49H2.25C1.01 1.49 0 2.5 0 3.74v8.5c0 1.24 1.01 2.25 2.25 2.25h11.5c1.24 0 2.25-1.01 2.25-2.25v-8.5c0-1.24-1.01-2.25-2.25-2.25m.75 10.75c0 .41-.34.75-.75.75H2.25c-.41 0-.75-.34-.75-.75v-8.5c0-.41.34-.75.75-.75h11.5c.41 0 .75.34.75.75zm-2.28-1.47c0 .41-.34.75-.75.75H9.81c-.41 0-.75-.34-.75-.75s.34-.75.75-.75h1.66c.41 0 .75.34.75.75m1.66-2.11c0 .41-.34.75-.75.75H9.81c-.41 0-.75-.34-.75-.75s.34-.75.75-.75h3.32c.41 0 .75.34.75.75m-8.93-.63c1.1 0 2-.9 2-2s-.9-2-2-2-2 .9-2 2 .9 2 2 2m0-2.5c.28 0 .5.22.5.5s-.22.5-.5.5-.5-.22-.5-.5.22-.5.5-.5m2.89 4.88v1.25h-1.5v-1.25c0-.14-.11-.25-.25-.25H3.84c-.14 0-.25.11-.25.25v1.25h-1.5v-1.25c0-.96.79-1.75 1.75-1.75h2.25c.96 0 1.75.79 1.75 1.75m3.56-4.36h-.89v-1.5h.89v-.89h1.5v.89h.88v1.5h-.88v.88h-1.5z"/>
</svg>
