<svg viewBox="0 0 16 16" xmlns="http://www.w3.org/2000/svg">
  <path d="M13.75 1.49H2.25C1.01 1.49 0 2.5 0 3.74v8.5c0 1.24 1.01 2.25 2.25 2.25h11.5c1.24 0 2.25-1.01 2.25-2.25v-8.5c0-1.24-1.01-2.25-2.25-2.25m-3.24 3.06h.89v-.89h1.5v.89h.88v1.5h-.88v.88h-1.5v-.88h-.89zM4.95 3.28c1.1 0 2 .9 2 2s-.9 2-2 2-2-.9-2-2 .9-2 2-2m2.89 9.13H2.09v-2c0-.96.79-1.75 1.75-1.75h2.25c.96 0 1.75.79 1.75 1.75zm3.63-.89H9.81c-.41 0-.75-.34-.75-.75s.34-.75.75-.75h1.66c.41 0 .75.34.75.75s-.34.75-.75.75m1.65-2.11H9.8c-.41 0-.75-.34-.75-.75s.34-.75.75-.75h3.32c.41 0 .75.34.75.75s-.34.75-.75.75"/>
</svg>
