<svg viewBox="0 0 40 40" xmlns="http://www.w3.org/2000/svg">
  <path d="M11.33 16.62c2.41 0 4.37-1.96 4.37-4.38s-1.96-4.38-4.37-4.38-4.37 1.96-4.37 4.38 1.96 4.38 4.37 4.38m0-6.5a2.121 2.121 0 0 1 0 4.24 2.121 2.121 0 0 1 0-4.24m19.14-1.14h-2.62V6.73h2.62V4.1h2.25v2.63h2.62v2.25h-2.62v2.63h-2.25zM40 3.15C40 1.42 38.6.02 36.87.02L3.13.04C1.41.04 0 1.45 0 3.17v25.9c0 1.73 1.4 3.13 3.13 3.13h13.73c1.66 4.55 6.02 7.82 11.14 7.82 5.75 0 10.54-4.1 11.64-9.53.23-.43.36-.91.36-1.44zM3.13 29.95c-.48 0-.87-.39-.87-.88V3.17c0-.48.39-.88.88-.88l33.75-.02c.48 0 .87.39.87.88v18.19a11.93 11.93 0 0 0-5.31-4.25h.85c.62 0 1.12-.5 1.12-1.13s-.5-1.13-1.12-1.13h-9.54c-.62 0-1.12.5-1.12 1.13 0 .58.44 1.04 1 1.1-2.36.94-4.34 2.61-5.68 4.74-.28-1.78-1.81-3.15-3.66-3.15H8.46c-2.05 0-3.72 1.67-3.72 3.73v4.09h2.25v-4.09c0-.81.66-1.47 1.47-1.47h5.84c.81 0 1.47.66 1.47 1.47v4.09h.5c-.08.54-.13 1.09-.13 1.65 0 .62.06 1.22.15 1.82H3.13Zm24.88 7.82c-5.31 0-9.62-4.33-9.62-9.64s4.32-9.64 9.62-9.64 9.62 4.33 9.62 9.64-4.32 9.64-9.62 9.64m4.5-13.8c.52.35.65 1.05.31 1.56l-4.96 7.41-4.11-2.91c-.51-.36-.63-1.06-.27-1.57s1.06-.63 1.57-.27l2.23 1.58 3.68-5.49c.35-.52 1.04-.66 1.56-.31Z"/>
</svg>
