<svg viewBox="0 0 40 40" xmlns="http://www.w3.org/2000/svg">
  <path d="m36.88 3.93-33.75.02C1.41 3.95 0 5.35 0 7.08v25.86c0 1.72 1.4 3.12 3.13 3.12l33.75-.02c1.72 0 3.12-1.4 3.12-3.12V7.05c0-1.72-1.4-3.12-3.13-3.12Zm.87 28.98c0 .48-.39.88-.87.88l-33.75.02c-.48 0-.87-.39-.87-.88V7.08c0-.48.39-.88.88-.88l33.75-.02c.48 0 .87.39.87.88v25.86Zm-8.78-4.46c0 .62-.5 1.12-1.12 1.12h-4.09c-.62 0-1.12-.5-1.12-1.12s.5-1.12 1.12-1.12h4.09c.62 0 1.12.5 1.12 1.12m5.46-8.6c0 .62-.5 1.12-1.12 1.12h-9.54c-.62 0-1.12-.5-1.12-1.12s.5-1.12 1.12-1.12h9.54c.62 0 1.12.5 1.12 1.12m-3.04 4.3c0 .62-.5 1.12-1.12 1.12h-6.51c-.62 0-1.12-.5-1.12-1.12s.5-1.12 1.12-1.12h6.51c.62 0 1.12.5 1.12 1.12M11.33 20.5c2.41 0 4.37-1.96 4.37-4.37s-1.96-4.37-4.37-4.37-4.37 1.96-4.37 4.37 1.96 4.37 4.37 4.37m0-6.49a2.121 2.121 0 0 1 0 4.24 2.121 2.121 0 0 1 0-4.24m6.69 12.25v4.08h-2.25v-4.08c0-.81-.66-1.47-1.47-1.47H8.46c-.81 0-1.47.66-1.47 1.47v4.08H4.74v-4.08c0-2.05 1.67-3.72 3.72-3.72h5.84c2.05 0 3.72 1.67 3.72 3.72m14.7-15.64h2.62v2.25h-2.62v2.62h-2.25v-2.62h-2.62v-2.25h2.62V8h2.25z"/>
</svg>
