<svg viewBox="0 0 40 40" xmlns="http://www.w3.org/2000/svg">
  <path d="m36.88 3.93-33.75.02C1.41 3.95 0 5.35 0 7.08v25.86c0 1.72 1.4 3.12 3.13 3.12l33.75-.02c1.72 0 3.12-1.4 3.12-3.12V7.05c0-1.72-1.4-3.12-3.13-3.12Zm-25.55 7.83c2.41 0 4.37 1.96 4.37 4.37s-1.96 4.37-4.37 4.37-4.37-1.96-4.37-4.37 1.96-4.37 4.37-4.37m6.69 19.7H4.73v-5.2c0-2.05 1.67-3.72 3.72-3.72h5.84c2.05 0 3.72 1.67 3.72 3.72v5.2Zm9.82-1.88h-4.09c-.62 0-1.12-.5-1.12-1.12s.5-1.12 1.12-1.12h4.09c.62 0 1.12.5 1.12 1.12s-.5 1.12-1.12 1.12m2.42-4.3h-6.51c-.62 0-1.12-.5-1.12-1.12s.5-1.12 1.12-1.12h6.51c.62 0 1.12.5 1.12 1.12s-.5 1.12-1.12 1.12m3.04-4.3h-9.54c-.62 0-1.12-.5-1.12-1.12s.5-1.12 1.12-1.12h9.54c.62 0 1.12.5 1.12 1.12s-.5 1.12-1.12 1.12m2.04-8.11h-2.62v2.62h-2.25v-2.62h-2.62v-2.25h2.62V8h2.25v2.62h2.62z"/>
</svg>
