<svg viewBox="0 0 64 64" xmlns="http://www.w3.org/2000/svg">
  <path d="M63.01 18.08 54.3 9.37a3.43 3.43 0 0 0-4.85 0L39.42 19.4l2.84 1.05 2.27-2.27 5.06 4.99 2.59.96-1.18.44 3.26 3.21-24.55 24.56-4.12-4.13-1.05 2.84 3.23 3.23-3.05 3.06-9.67-9.67 3.06-3.06 5.07 5.07-2.29-6.18-.84-.84.39-.39-1.05-2.84-8.36 8.36-.32.32L8.33 64l15.93-2.33 32.86-32.85s.08-.04.12-.08c.03-.03.04-.07.07-.11l5.71-5.71c.65-.65 1-1.51 1-2.43s-.36-1.78-1-2.43Zm-51.4 42.67 1.65-11.01 9.39 9.39zm49.45-39.77-4.84 4.84-9.74-9.59 4.92-4.92c.26-.27.7-.27.96 0l8.71 8.71c.17.17.2.38.2.48s-.03.31-.2.48ZM24.12 48.24l6.51-17.6 17.6-6.51-17.6-6.51L24.12 0l-6.51 17.6-17.6 6.52 17.6 6.51 6.51 17.6Zm-5.55-28.05 1.19-.44.44-1.19 3.93-10.63 3.93 10.63.44 1.19 1.19.44 10.63 3.93-10.63 3.93-1.19.44-.44 1.19-3.93 10.63-3.93-10.63-.44-1.19-1.19-.44-10.63-3.93z"/>
</svg>
