<svg viewBox="0 0 32 32" xmlns="http://www.w3.org/2000/svg">
  <path d="m31.42 8.85-4.27-4.27c-.78-.78-2.06-.78-2.84 0l-4.74 4.74 2.07.77.5-.5 1.1 1.09 3.77 1.4-1.71.63 1.15 1.13-11.39 11.4-1.7-1.7-.76 2.07 1.05 1.05-1.23 1.23-4.28-4.29 1.23-1.23 1.58 1.58-1.62-4.37-4.09 4.1-1.25 8.34 8.36-1.22 16.18-16.22s.04-.02.06-.04.02-.04.03-.05l2.8-2.8c.78-.78.78-2.06 0-2.84M6.35 29.64 7 25.31l3.7 3.7-4.34.64Zm21.51-17.22-4.31-4.25 2.19-2.19 4.27 4.29zM12.07 24.13l3.26-8.8 8.8-3.26-8.8-3.26L12.07 0 8.81 8.8l-8.8 3.27 8.8 3.26zM9.51 10.69l.86-.32.32-.86 1.38-3.73 1.38 3.73.32.86.86.32 3.73 1.38-3.73 1.38-.86.32-.32.86-1.38 3.73-1.38-3.73-.32-.86-.86-.32-3.73-1.38z"/>
</svg>
