<svg viewBox="0 0 40 40" xmlns="http://www.w3.org/2000/svg">
  <path d="m39.31 11.06-5.39-5.39c-.94-.93-2.45-.93-3.39 0l-6.1 6.1 2.32.86.93-.93 2.08 2.05 3.62 1.34-1.64.61 1.58 1.56-14.68 14.69-2.21-2.21-.86 2.33 1.48 1.48-1.62 1.62-5.59-5.59 1.62-1.62 2.52 2.52-2.22-6.01-4.99 5-.26.26-1.54 10.29 10.31-1.51 20.38-20.4s.05-.03.07-.05.03-.04.04-.06l3.53-3.53c.93-.94.93-2.46 0-3.39ZM7.65 37.34l.88-5.91 5.04 5.04zm30.07-24.48-2.8 2.8-5.63-5.55 2.84-2.85s.16-.05.2 0l5.39 5.39s.05.16 0 .21M15.08 30.18l4.07-11.01 11-4.07-11-4.07L15.08.01l-4.07 11.01-11 4.07 11 4.07 4.07 11.01Zm-3.29-17.05.97-.36.36-.97 1.96-5.3 1.96 5.3.36.97.97.36 5.3 1.96-5.3 1.96-.97.36-.36.97-1.96 5.3-1.96-5.3-.36-.97-.97-.36-5.3-1.96z"/>
</svg>
