<svg viewBox="0 0 40 40" xmlns="http://www.w3.org/2000/svg">
  <path d="m39.05 9.41-5.39-5.39a3.27 3.27 0 0 0-4.63 0l-6.22 6.23 13.1 4.85-5.69 2.11L18.94 28.5l-.81-.81-3.06 8.27-1.49-4.03-3.39-3.39 1.56-1.56-1.53-4.13-5.42 5.43-1.76 11.75 11.77-1.72 20.04-20.05.14-.11c.04-.04.06-.08.1-.12l3.97-3.97a3.27 3.27 0 0 0 0-4.63Zm-5.51 4.48-4.39-4.32 2.2-2.2 4.35 4.36-2.17 2.17ZM7.81 35.28l.45-3.02 2.58 2.58zm7.27-5.09 4.07-11.01 11-4.07-11-4.07L15.08.02l-4.07 11.01L0 15.1l11 4.07 4.07 11.01Zm-2.68-15.4 1.73-.64.64-1.73.32-.86.32.86.64 1.73 1.73.64.86.32-.86.32-1.73.64-.64 1.73-.32.86-.32-.86-.64-1.73-1.73-.64-.86-.32z"/>
</svg>
