<svg viewBox="0 0 64 64" xmlns="http://www.w3.org/2000/svg">
  <path d="M59.56 35.21V21.09L64 19.05 32 6.61 0 19.18l14.62 6.66v7.65h-.09c0 .25.03.53.09.81v6.3c0 1.69 1.03 4.03 5.96 5.59 3.03.96 7.09 1.49 11.42 1.49 8.02 0 17.38-1.85 17.38-7.08V25.77l7.43-3.41v12.91a5.63 5.63 0 0 0-4.15 5.43c0 1.25.41 2.39 1.1 3.33l-.55 9.13a4 4 0 0 0 3.99 4.24h2.21c2.3 0 4.13-1.94 3.99-4.24L62.85 44c.67-.93 1.07-2.06 1.07-3.29a5.62 5.62 0 0 0-4.36-5.48ZM32.01 9.56l24.95 9.7L32 30.72 7.05 19.37zM32 44.92c-8.75 0-14.62-2.24-14.62-4.33V37.7c.81.49 1.84.96 3.14 1.37 3.04.96 7.1 1.49 11.44 1.49 5.35 0 11.29-.83 14.67-2.92v2.95c0 2.09-5.88 4.33-14.62 4.33Zm14.62-11.43h-.02c0 2.08-5.6 4.33-14.64 4.33-8.53 0-13.99-2-14.58-3.97V27.1l14.63 6.66 14.62-6.72v6.45Zm11.09 4.38h1.16c1.31.27 2.3 1.43 2.3 2.82a2.88 2.88 0 0 1-5.76 0c0-1.39.99-2.55 2.3-2.82m2.61 16.38c-.14.15-.44.39-.91.39H57.2c-.47 0-.77-.25-.91-.39-.14-.15-.37-.46-.34-.93l.44-7.33c.59.21 1.23.34 1.9.34s1.32-.13 1.93-.35l.44 7.34c.03.47-.2.79-.34.93"/>
</svg>
