<svg viewBox="0 0 48 48" xmlns="http://www.w3.org/2000/svg">
  <path d="M44.89 26.53V15.77L48 14.34 24 5 0 14.43l10.75 4.89v5.84h-.08c0 .23.03.47.08.72v4.61c0 1.34.8 3.19 4.62 4.4 2.29.73 5.36 1.13 8.63 1.13 6.11 0 13.25-1.45 13.25-5.53v-5.14c0-.06.02-.12.02-.19h-.02v-5.89l5.14-2.36v9.67c-1.68.56-2.89 2.12-2.89 3.99 0 .93.31 1.79.82 2.48l-.41 6.86a3.006 3.006 0 0 0 2.99 3.18h1.66c1.73 0 3.1-1.46 2.99-3.18l-.41-6.88c.5-.69.8-1.54.8-2.46 0-1.92-1.29-3.53-3.05-4.04M24 33.52c-6.33 0-10.75-1.59-10.75-3.03V28.7c.56.31 1.24.6 2.06.85 2.3.73 5.38 1.13 8.66 1.13 3.87 0 8.15-.58 10.78-2.03v1.83c0 1.43-4.42 3.03-10.75 3.03Zm10.75-8.36c0 1.43-4.43 3.03-10.77 3.03-5.94 0-10.2-1.4-10.72-2.75v-4.98l10.75 4.89 10.75-4.94v4.74ZM24 22.61 6.41 14.6l17.6-6.92 17.59 6.84L24 22.6Zm19.72 6.24a1.72 1.72 0 1 1 0 3.44 1.72 1.72 0 0 1 0-3.44m1.2 11.59c-.07.07-.19.16-.36.16H42.9a.47.47 0 0 1-.36-.16.47.47 0 0 1-.14-.37l.32-5.4c.32.08.65.13.99.13s.69-.06 1.01-.14l.32 5.41c.01.18-.07.3-.14.37Z"/>
</svg>
