<svg viewBox="0 0 16 16" xmlns="http://www.w3.org/2000/svg">
  <path d="m15.38 9-.06-.03V5.08l.7-.32-8-3.11-8 3.14 3.25 1.48v3.87c0 .56.31 1.32 1.77 1.78.8.25 1.85.39 2.98.39 2.3 0 4.75-.57 4.75-2.17V6.25l1.04-.48V9h-.01a1.41 1.41 0 0 0-.35 2l-.14 2.29c-.03.57.42 1.06 1 1.06h.55a.995.995 0 0 0 1-1.06L15.72 11c.17-.23.27-.51.27-.82 0-.49-.25-.91-.62-1.17ZM8.02 3.26l4.15 1.62-4.16 1.91L3.86 4.9l4.16-1.63Zm0 7.56c-2.02 0-3.13-.47-3.25-.67v-.47c.09.04.18.07.28.11.79.25 1.84.39 2.96.39s2.37-.15 3.27-.51v.45c-.12.24-1.24.71-3.26.71Zm3.25-2.86h-.04c-.13.25-1.32.71-3.23.71s-3.1-.45-3.23-.71v.03h-.02V6.95L8 8.43l3.25-1.49v1.02Z"/>
</svg>
