<svg viewBox="0 0 32 32" xmlns="http://www.w3.org/2000/svg">
  <path d="M30.81 4.17V1.49c0-.55-.45-1-1-1s-1 .45-1 1v2.68h-1.26V1.49c0-.55-.45-1-1-1s-1 .45-1 1v2.68h-1.19v2.55c0 1.76 1.2 3.23 2.82 3.67v9.62c0 1.34-1.09 2.44-2.44 2.44s-2.44-1.09-2.44-2.44v-7.29c0-2.31-1.88-4.18-4.18-4.18h-.35V2c0-1.1-.9-2-2-2H2C.9 0 0 .9 0 2v30h17.78V10.54h.35c1.2 0 2.18.98 2.18 2.18v7.29c0 2.45 1.99 4.44 4.44 4.44s4.44-1.99 4.44-4.44v-9.62a3.81 3.81 0 0 0 2.82-3.67V4.17h-1.19ZM2 2h13.78v2.75H2zm13.78 4.75V14H2V6.75zm0 23.25H2V16h13.78zM30 6.72c0 1-.82 1.82-1.82 1.82s-1.82-.82-1.82-1.82v-.55h3.65v.55ZM9.63 17.52v4.04h2.6L8.15 27.2v-4.04h-2.6z"/>
</svg>
