<svg viewBox="0 0 40 40" xmlns="http://www.w3.org/2000/svg">
  <path d="M38.41 5.33V2.35c0-.62-.5-1.12-1.12-1.12s-1.12.5-1.12 1.12v2.98h-1.46V2.35c0-.62-.5-1.12-1.12-1.12s-1.12.5-1.12 1.12v2.98H30.7V8.4c0 2.18 1.51 4 3.53 4.5v12.05c0 1.78-1.45 3.23-3.23 3.23s-3.23-1.45-3.23-3.23v-9.04c0-2.82-2.29-5.11-5.11-5.11h-.43V2.25c0-.31-.06-.61-.18-.88A2.24 2.24 0 0 0 19.98 0H2.25A2.255 2.255 0 0 0 0 2.25V40h22.22V13.05h.43c1.57 0 2.86 1.28 2.86 2.86v9.04c0 3.02 2.46 5.48 5.48 5.48s5.48-2.46 5.48-5.48V12.9c2.02-.51 3.53-2.32 3.53-4.5V5.33zM10.18 34v-5.04H6.94l5.1-7.05v5.04h3.24zm9.79-25.81v9.56H2.25V8.19z"/>
</svg>
