<svg viewBox="0 0 48 48" xmlns="http://www.w3.org/2000/svg">
  <path d="M46.1 6.51V2.84a1.25 1.25 0 0 0-2.5 0v3.67h-1.95V2.84a1.25 1.25 0 0 0-2.5 0v3.67h-2.12v3.58c0 2.59 1.81 4.77 4.24 5.34v14.48a4 4 0 0 1-1.18 2.85 4 4 0 0 1-2.85 1.18c-2.22 0-4.03-1.81-4.03-4.03V19.1c0-3.32-2.7-6.03-6.03-6.03h-.52V2.5a2.5 2.5 0 0 0-2.5-2.5H2.5a2.45 2.45 0 0 0-1.39.43C.44.88 0 1.64 0 2.5V48h26.66V15.57h.52c1.94 0 3.53 1.58 3.53 3.53v10.81c0 3.6 2.93 6.53 6.53 6.53 1.74 0 3.38-.68 4.62-1.91s1.91-2.87 1.91-4.62V15.43c2.42-.57 4.24-2.74 4.24-5.34V6.51zM12.22 40.79v-6.05H8.33l6.12-8.46v6.05h3.89zM24.17 9.63V21.5H2.5V9.63z"/>
</svg>
