<svg viewBox="0 0 64 64" xmlns="http://www.w3.org/2000/svg">
  <path d="M61.45 8.97V3.78c0-.76-.62-1.38-1.38-1.38s-1.38.62-1.38 1.38v5.19h-3.18V3.78c0-.76-.62-1.38-1.38-1.38s-1.38.62-1.38 1.38v5.19h-2.83v4.48c0 3.4 2.43 6.25 5.65 6.89v19.4c0 1.55-.6 3-1.7 4.1a5.8 5.8 0 0 1-4.1 1.7c-3.2 0-5.8-2.6-5.8-5.8V25.47c0-4.27-3.47-7.74-7.75-7.74h-.69V2.75C35.53 1.23 34.3 0 32.78 0H2.74A2.74 2.74 0 0 0 0 2.75V64h35.57V20.46h.69c2.75 0 5 2.24 5 4.99v14.27c0 4.71 3.83 8.54 8.54 8.55 2.28 0 4.43-.89 6.04-2.5a8.46 8.46 0 0 0 2.51-6.04v-19.4A7.03 7.03 0 0 0 64 13.44V8.96h-2.54ZM2.74 2.75h30.07v6.76H2.74zm30.07 9.51v16.99H2.74V12.26zm0 48.99H2.74V32h30.07zm28.43-47.8c0 2.36-1.92 4.27-4.27 4.27s-4.27-1.92-4.27-4.27v-1.73h8.55v1.73ZM11.09 46.32h5.19v8.07l8.17-11.28h-5.19v-8.07zm5.39-2.74.06-.08s0 .06.01.09h-.08Zm2.53 2.36s0-.06-.01-.09h.08l-.06.08Z"/>
</svg>
