<svg viewBox="0 0 32 32" xmlns="http://www.w3.org/2000/svg">
  <path d="M30.81 4.17V1.49c0-.55-.45-1-1-1s-1 .45-1 1v2.68h-1.26V1.49c0-.55-.45-1-1-1s-1 .45-1 1v2.68h-1.19v2.55c0 1.76 1.2 3.23 2.82 3.67v9.62c0 1.34-1.09 2.44-2.44 2.44s-2.44-1.09-2.44-2.44v-7.29c0-2.31-1.88-4.18-4.18-4.18h-.35V2c0-.41-.13-.8-.34-1.12-.14-.21-.33-.4-.54-.54-.32-.22-.7-.34-1.12-.34H2C1.59 0 1.2.13.88.34.67.48.48.67.34.88.13 1.2 0 1.59 0 2v30h17.78V10.54h.35c1.2 0 2.18.98 2.18 2.18v7.29c0 2.45 1.99 4.44 4.44 4.44s4.44-1.99 4.44-4.44v-9.62a3.81 3.81 0 0 0 2.82-3.67V4.17h-1.19ZM8.15 27.2v-4.04h-2.6l4.08-5.64v4.04h2.6zm7.63-20.45V14H2V6.75z"/>
</svg>
