<svg viewBox="0 0 16 16" xmlns="http://www.w3.org/2000/svg">
  <path d="M15.56 1.84V.75c0-.42-.33-.75-.74-.75s-.75.34-.75.75v1.09h-.38V.75c-.01-.42-.34-.75-.76-.75s-.75.34-.75.75v1.09h-.51v1.53c0 .93.59 1.71 1.41 2.02v4.75c0 .46-.38.84-.84.84s-.84-.38-.84-.84V6.37c0-1.29-1.05-2.34-2.34-2.34h-.17V1.5c0-.41-.17-.79-.44-1.06-.14-.14-.3-.25-.48-.32C7.79.04 7.59 0 7.39 0H1.5C.67 0 0 .68 0 1.5v14.49h8.89V5.52h.17c.46 0 .84.38.84.84v3.77c0 1.29 1.05 2.34 2.34 2.34s2.34-1.05 2.34-2.34V5.38c.82-.31 1.41-1.09 1.41-2.02V1.83h-.44ZM4.07 13.43v-2.02h-1.3l2.04-2.82v2.02h1.3zM7.39 6.5H1.5V3.88h5.89z"/>
</svg>
