<svg viewBox="0 0 24 24" xmlns="http://www.w3.org/2000/svg">
  <path d="M9.99 9.73c0-1.24 1.01-2.25 2.25-2.25s2.25 1.01 2.25 2.25-1.01 2.25-2.25 2.25-2.25-1.01-2.25-2.25M0 24h1.75v-1.75H0zm0-3.72h1.75v-1.75H0zm0-3.71h1.75v-1.75H0zm0-3.7h1.75v-1.75H0zm0-3.7h1.75V7.42H0zm0-3.71h1.75V3.71H0zm0-3.7h1.75V0H0v1.75ZM22.25 24H24v-1.75h-1.75zm0-3.71H24v-1.75h-1.75zm0-3.7H24v-1.75h-1.75zm0-3.71H24v-1.75h-1.75zm0-3.71H24V7.42h-1.75zm0-3.71H24V3.71h-1.75zm0-5.46v1.75H24V0zM12.9 2.27h6.94v21.72H4.28V2.27h6.86V0h1.75v2.27Zm5.18 1.75H6.03v18.22h4.2l-.42-4.65H8.24v-2.46c0-1.2.98-2.18 2.18-2.18h3.62c1.21 0 2.18.98 2.18 2.18v2.46h-1.68l-.42 4.65h3.96z"/>
</svg>
