<svg viewBox="0 0 32 32" xmlns="http://www.w3.org/2000/svg">
  <path d="M13.26 12.98c0-1.66 1.34-3 3-3s3 1.34 3 3-1.34 3-3 3-3-1.34-3-3M-.01 31.99h2v-2h-2zm0-4.28h2v-2h-2zm0-4.29h2v-2h-2zm0-4.28h2v-2h-2zm0-4.29h2v-2h-2zm0-4.28h2v-2h-2zm0-4.28h2v-2h-2zm0-4.29h2V0h-2zm30 29.99h2v-2h-2zm0-4.28h2v-2h-2zm0-4.29h2v-2h-2zm0-4.28h2v-2h-2zm0-4.29h2v-2h-2zm0-4.28h2v-2h-2zm0-4.29h2v-2h-2zm0-6.28v2h2V0zM16.98 3.03h9.42v28.96H5.65V3.03h9.33V0h2zm7.42 2H7.65v24.96h5.97l-.59-6.53h-2.09v-3.28c0-1.61 1.3-2.91 2.91-2.91h4.83c1.61 0 2.91 1.3 2.91 2.91v3.28h-2.24l-.59 6.53h5.64z"/>
</svg>
