<svg viewBox="0 0 16 16" xmlns="http://www.w3.org/2000/svg">
  <path d="M6.65 6.49c0-.83.67-1.5 1.5-1.5s1.5.67 1.5 1.5-.67 1.5-1.5 1.5-1.5-.67-1.5-1.5M0 1.5h1.5V0H0zM0 16h1.5v-1.5H0zm0-2.97h1.5v-1.5H0zm0-2.96h1.5v-1.5H0zm0-2.96h1.5v-1.5H0zm0-2.97h1.5v-1.5H0zM14.5 0v1.5H16V0zm0 16H16v-1.5h-1.5zm0-2.97H16v-1.5h-1.5zm0-2.96H16v-1.5h-1.5zm0-2.96H16v-1.5h-1.5zm0-2.97H16v-1.5h-1.5zM8.75 1.51h4.46v14.48H2.84V1.51h4.41V0h1.5zm2.96 1.5H4.34v11.48h2.44l-.25-2.76H5.49v-1.64c0-.8.65-1.45 1.46-1.45h2.41c.8 0 1.46.65 1.46 1.45v1.64H9.7l-.25 2.76h2.27V3.01Z"/>
</svg>
