<svg viewBox="0 0 64 64" xmlns="http://www.w3.org/2000/svg">
  <path fill="#1e1e1c" d="M58.12 50.22h-6.86l-4.88-26.05a8.37 8.37 0 0 0-8.23-6.83H25.89c-4.03 0-7.49 2.87-8.23 6.83l-4.88 26.05H5.89C2.63 50.22 0 52.86 0 56.1v7.93h64V56.1c0-3.24-2.64-5.88-5.87-5.88ZM20.35 24.68c.5-2.66 2.82-4.59 5.53-4.59h12.26c2.7 0 5.03 1.93 5.53 4.59l4.79 25.55h-32.9zm40.9 36.6H2.75V56.1c0-1.72 1.4-3.13 3.12-3.13h52.25c1.72 0 3.12 1.4 3.12 3.13v5.18ZM30.64 8.73V1.4c0-.76.62-1.38 1.37-1.38s1.37.62 1.37 1.38v7.33c0 .76-.62 1.38-1.37 1.38s-1.37-.62-1.37-1.38m24.6 22.97h7.33a1.38 1.38 0 0 1 0 2.76h-7.33a1.38 1.38 0 0 1 0-2.76M.08 33.07c0-.76.62-1.38 1.37-1.38h7.33a1.38 1.38 0 0 1 0 2.76H1.45c-.76 0-1.37-.62-1.37-1.38M5.85 10.6a1.37 1.37 0 0 1 .17-1.94 1.37 1.37 0 0 1 1.94.17l4.72 5.61c.49.58.42 1.45-.17 1.94-.26.22-.57.32-.88.32-.39 0-.78-.17-1.05-.49L5.86 10.6Zm45.42 5.77c-.58-.49-.66-1.36-.17-1.94l4.72-5.61c.49-.58 1.36-.65 1.94-.17.58.49.66 1.36.17 1.94l-4.72 5.61c-.27.32-.66.49-1.05.49-.31 0-.63-.11-.88-.32Zm-17.75 9.74c0 .76-.62 1.38-1.37 1.38h-2.82c-1.41 0-2.62 1-2.88 2.39l-1.52 7.77c-.13.66-.7 1.11-1.35 1.11-.09 0-.18 0-.27-.03-.75-.15-1.23-.87-1.08-1.61l1.52-7.76c.5-2.67 2.85-4.62 5.58-4.62h2.82c.76 0 1.37.62 1.37 1.38Z"/>
</svg>
