<svg viewBox="0 0 24 24" xmlns="http://www.w3.org/2000/svg">
  <path fill="#1e1e1c" d="M24 22.79v1.23H.01v-1.23c0-1.58 1.29-2.87 2.87-2.87h18.24a2.87 2.87 0 0 1 2.87 2.87ZM12 4.46c.48 0 .87-.39.87-.87V.89a.87.87 0 0 0-1.74 0v2.69c0 .48.39.87.87.87Zm7.57 7.53c0 .48.39.87.87.87h2.69a.87.87 0 0 0 0-1.74h-2.69a.87.87 0 0 0-.87.87m-18.68.87h2.69a.87.87 0 0 0 0-1.74H.89a.87.87 0 0 0 0 1.74m2.96-6.82c.17.21.42.31.67.31.2 0 .4-.07.56-.21.37-.31.42-.86.11-1.23L3.46 2.85a.873.873 0 1 0-1.34 1.12l1.73 2.06Zm15.55.31c.25 0 .5-.11.67-.31l1.73-2.06a.873.873 0 1 0-1.34-1.12l-1.73 2.06c-.31.37-.26.92.11 1.23.16.14.36.21.56.21ZM4.49 18.14l1.8-9.58c.3-1.59 1.69-2.75 3.32-2.75h4.81c1.62 0 3.02 1.16 3.32 2.75l1.8 9.58zm3.04-4.95c-.09.47.22.93.69 1.03.06.01.11.02.17.02.41 0 .78-.29.86-.71l.57-2.91c.07-.35.37-.6.73-.6h1.06a.87.87 0 0 0 0-1.74h-1.06c-1.2 0-2.23.85-2.44 2.02l-.57 2.91Z"/>
</svg>
