<svg viewBox="0 0 24 24" xmlns="http://www.w3.org/2000/svg">
  <path fill="#1e1e1c" d="M11.13 3.59V.9c0-.48.39-.87.88-.87s.88.39.88.87v2.69c0 .48-.39.87-.88.87s-.88-.39-.88-.87M.88 12.87h2.69c.48 0 .88-.39.88-.87s-.39-.87-.88-.87H.88c-.49-.01-.88.38-.88.86s.39.87.88.87Zm2.97-6.83c.17.21.42.31.67.31.2 0 .4-.07.56-.21.37-.31.42-.86.11-1.23L3.46 2.85a.873.873 0 1 0-1.34 1.12l1.73 2.06Zm15.55.31c.25 0 .5-.11.67-.31l1.73-2.06a.873.873 0 1 0-1.34-1.12l-1.73 2.06c-.31.37-.26.92.11 1.23.16.14.36.21.56.21ZM0 22.79v1.23h11.78v-4.11h-8.9C1.29 19.92 0 21.21 0 22.79m13.41-10.24h-1.62v5.59h-7.3l1.8-9.58c.3-1.59 1.7-2.75 3.32-2.75h4.81c1.34 0 2.52.8 3.06 1.97-2.17.61-3.81 2.47-4.06 4.77ZM12.2 8.7c0-.48-.39-.87-.88-.87h-1.06c-1.2 0-2.23.85-2.45 2.02l-.57 2.91c-.09.47.22.93.69 1.03.06.01.11.02.17.02.41 0 .78-.29.86-.71l.57-2.91c.07-.35.37-.6.73-.6h1.06c.48 0 .88-.39.88-.87ZM24 14.68V24H13.91v-9.32h6.16v-1.53c0-.6-.49-1.1-1.1-1.1s-1.1.49-1.1 1.1h-3c0-2.26 1.84-4.09 4.1-4.09s4.1 1.84 4.1 4.09v1.53zm-3.83 4.17c0-.65-.53-1.18-1.18-1.18s-1.18.53-1.18 1.18c0 .32.13.62.35.83v.43c0 .48.39.87.88.87s.88-.39.88-.87v-.55c.16-.2.26-.44.26-.71Z"/>
</svg>
