<svg viewBox="0 0 32 32" xmlns="http://www.w3.org/2000/svg">
  <path fill="#1e1e1c" d="M15 4.58V1c0-.56.45-1 1-1s1 .45 1 1v3.59c0 .55-.45 1-1 1s-1-.45-1-1ZM1.01 17.16H4.6c.55 0 1-.45 1-1s-.45-1-1-1H1.01c-.56 0-1.01.45-1.01 1s.45 1 1 1Zm4.25-9.04c.2.23.48.36.77.36.23 0 .46-.08.64-.24a1 1 0 0 0 .12-1.41L4.48 4.09a1 1 0 1 0-1.53 1.29zm20.6.36c.29 0 .57-.12.77-.36l2.31-2.74a1 1 0 1 0-1.53-1.29L25.1 6.83a1 1 0 0 0 .12 1.41 1 1 0 0 0 .64.24m-7.39 8.83h-2.18v7.19H6.12l2.35-12.54a4.75 4.75 0 0 1 4.67-3.87h5.72c2.09 0 3.9 1.37 4.52 3.32-2.62.8-4.59 3.1-4.91 5.9m-2.39-5.89c0-.55-.45-1-1-1h-1.41c-1.52 0-2.82 1.08-3.1 2.56l-.76 3.88c-.11.54.25 1.07.79 1.17a.995.995 0 0 0 1.17-.79l.76-3.89c.1-.54.58-.94 1.13-.94h1.41c.55 0 1-.45 1-1ZM0 30.28v1.71h16.28v-5.46H3.76A3.76 3.76 0 0 0 0 30.28m32.01-10.47V32H18.79V19.81h8.37v-1.72a1.741 1.741 0 0 0-3.48 0h-3.5c0-2.89 2.35-5.24 5.24-5.24s5.24 2.35 5.24 5.24v1.72H32Zm-5.13 5.43c0-.78-.63-1.41-1.41-1.41a1.408 1.408 0 0 0-1 2.4v.7c0 .55.45 1 1 1s1-.45 1-1v-.7c.25-.25.41-.6.41-.99"/>
</svg>
