<svg viewBox="0 0 32 32" xmlns="http://www.w3.org/2000/svg">
  <path fill="#1e1e1c" d="M32 30.28v1.71H.02v-1.71c0-2.07 1.68-3.75 3.75-3.75h24.49c2.07 0 3.75 1.68 3.75 3.75ZM16 5.58c.55 0 1-.45 1-1V.99c0-.55-.45-1-1-1s-1 .45-1 1v3.59c0 .55.45 1 1 1m10.42 10.58c0 .55.45 1 1 1h3.59c.55 0 1-.45 1-1s-.45-1-1-1h-3.59c-.55 0-1 .45-1 1m-25.41 1H4.6c.55 0 1-.45 1-1s-.45-1-1-1H1.01c-.55 0-1 .45-1 1s.45 1 1 1m4.25-9.04c.2.23.48.36.77.36.23 0 .46-.08.64-.24a1 1 0 0 0 .12-1.41L4.48 4.09a1 1 0 1 0-1.53 1.29zm20.6.35c.29 0 .57-.12.77-.36l2.31-2.74a1 1 0 1 0-1.53-1.29L25.1 6.82a1 1 0 0 0 .12 1.41 1 1 0 0 0 .64.24M6.12 24.5l2.35-12.55a4.75 4.75 0 0 1 4.67-3.87h5.72c2.28 0 4.25 1.63 4.67 3.87l2.35 12.55zm3.7-7.64c-.11.54.25 1.07.79 1.17a.995.995 0 0 0 1.17-.79l.76-3.89c.1-.54.58-.94 1.13-.94h1.41c.55 0 1-.45 1-1s-.45-1-1-1h-1.41c-1.52 0-2.82 1.08-3.1 2.56l-.76 3.88Zm-4.08 9.67h20.52v-.02H5.75v.02Z"/>
</svg>
