<svg viewBox="0 0 16 16" xmlns="http://www.w3.org/2000/svg">
  <path fill="#1e1e1c" d="M7.26 2.25V.76c0-.42.34-.76.75-.76s.75.34.75.75v1.5c0 .41-.34.75-.75.75s-.75-.34-.75-.75M.76 8.84h1.49c.41 0 .75-.34.75-.75s-.34-.75-.75-.75H.76c-.41 0-.76.34-.76.75s.34.75.75.75Zm1.58-4.86c.15.18.37.28.58.28a.7.7 0 0 0 .47-.17c.32-.26.37-.73.11-1.06l-.9-1.11a.76.76 0 0 0-1.06-.11c-.32.26-.37.73-.11 1.06l.9 1.11Zm10.63.32c.22 0 .43-.09.58-.28l.95-1.16c.26-.32.22-.79-.11-1.05a.74.74 0 0 0-1.05.11l-.95 1.16c-.26.32-.22.79.11 1.05.14.11.31.17.47.17M8.38 5.96h-.69c-.86 0-1.61.62-1.77 1.46l-.37 1.89c-.08.41.19.8.59.88.05 0 .1.01.15.01.35 0 .66-.25.74-.61L7.4 7.7c.03-.14.15-.24.29-.24h.69c.41 0 .75-.34.75-.75s-.34-.75-.75-.75m-2.77-.09a.76.76 0 0 1 .74-.61h3.32c.36 0 .67.26.74.61l.08.42c.4-.31.89-.51 1.42-.58l-.02-.11a2.25 2.25 0 0 0-2.21-1.83H6.36c-1.08 0-2.01.77-2.21 1.83L3 11.76h-.72C1.02 11.76 0 12.77 0 14.01v2h8.25v-1.5H1.51v-.5c0-.41.34-.75.75-.75h6v-1.5H4.51l1.1-5.88Zm10.4 3.62v6.5h-7v-6.5h4.47v-.84c0-.4-.33-.73-.73-.73h-.47c-.4 0-.73.33-.73.73h-1.5c0-1.23 1-2.23 2.23-2.23h.47c1.23 0 2.23 1 2.23 2.23v.84zm-1.5 1.5h-4v3.5h4zm-2.7 2.26c0 .41.34.75.75.75s.75-.34.75-.75v-.31c.1-.15.17-.32.17-.52 0-.52-.43-.95-.95-.95s-.95.43-.95.95c0 .23.09.43.23.6z"/>
</svg>
