<svg viewBox="0 0 48 48" xmlns="http://www.w3.org/2000/svg">
  <path fill="#1e1e1c" d="M22.75 6.71V1.25a1.25 1.25 0 0 1 2.5 0v5.46a1.25 1.25 0 0 1-2.5 0M1.26 25.78h5.46a1.25 1.25 0 0 0 0-2.5H1.26a1.25 1.25 0 0 0 0 2.5m6.62-13.66a1.26 1.26 0 0 0 1.76.15c.53-.45.59-1.23.15-1.76L6.28 6.34a1.25 1.25 0 0 0-1.76-.15c-.53.45-.59 1.23-.15 1.76zm31.11.44c.36 0 .71-.15.96-.44l3.51-4.17c.44-.53.38-1.32-.15-1.76-.53-.45-1.32-.38-1.76.15l-3.51 4.17c-.44.53-.38 1.32.15 1.76.23.2.52.29.8.29M0 45.55v2.44h25.44V39.8H5.74C2.57 39.8 0 42.38 0 45.55m28.67-18.58h-3.23v10.3H9.39l3.63-19.37c.57-3.07 3.26-5.3 6.39-5.3h9.19c3.12 0 5.81 2.23 6.39 5.3l.11.58c-3.55 1.28-6.15 4.56-6.42 8.49Zm-4.63-8.88c0-.69-.56-1.25-1.25-1.25h-2.11c-2.15 0-4 1.54-4.4 3.64l-1.14 5.82c-.13.68.31 1.33.99 1.47.08.02.16.02.24.02.59 0 1.11-.41 1.23-1.01l1.14-5.83c.18-.93.99-1.61 1.94-1.61h2.11c.69 0 1.25-.56 1.25-1.25M48 30.22V48H28.69V30.22h12.67v-2.58c0-1.65-1.34-2.99-2.99-2.99s-2.99 1.34-2.99 2.99h-4.5c0-4.13 3.36-7.49 7.48-7.49s7.49 3.36 7.49 7.49v2.58h2.14Zm-7.68 7.9c0-1.03-.84-1.86-1.86-1.86s-1.86.84-1.86 1.86c0 .55.24 1.03.61 1.37v1.17a1.25 1.25 0 0 0 2.5 0v-1.17c.37-.34.61-.83.61-1.37"/>
</svg>
