<svg viewBox="0 0 64 64" xmlns="http://www.w3.org/2000/svg">
  <path fill="#1e1e1c" d="M30.67 8.73V1.4c0-.76.62-1.38 1.38-1.38s1.38.62 1.38 1.38v7.33c0 .76-.62 1.38-1.38 1.38s-1.38-.62-1.38-1.38M1.48 34.45h7.33c.76 0 1.38-.62 1.38-1.38s-.62-1.38-1.38-1.38H1.48c-.76 0-1.38.62-1.38 1.38s.62 1.38 1.38 1.38M10.6 16.2c.27.32.66.49 1.05.49.31 0 .63-.11.88-.32.58-.49.66-1.36.17-1.94L7.97 8.82c-.49-.58-1.36-.65-1.94-.17-.58.49-.66 1.36-.17 1.94l4.73 5.61Zm41.59.49c.39 0 .78-.17 1.05-.49l4.73-5.61c.49-.58.42-1.45-.17-1.94a1.37 1.37 0 0 0-1.94.17l-4.73 5.61c-.49.58-.42 1.45.17 1.94.26.22.57.32.88.32Zm-22.83 8.05c-2.73 0-5.08 1.95-5.58 4.62l-1.52 7.76c-.15.75.34 1.47 1.09 1.61q.135.03.27.03c.64 0 1.22-.45 1.35-1.11l1.52-7.77a2.926 2.926 0 0 1 2.88-2.39h2.82c.76 0 1.38-.62 1.38-1.38s-.62-1.38-1.38-1.38h-2.82Zm14.34-.06.88 4.72c.73-.69 1.56-1.27 2.48-1.72l-.66-3.51a8.38 8.38 0 0 0-8.23-6.83H25.91c-4.03 0-7.49 2.87-8.23 6.83L12.8 50.22H5.91c-3.25 0-5.89 2.64-5.89 5.88v7.93h37.23v-2.75H2.77V56.1c0-1.72 1.4-3.13 3.13-3.13h31.36v-2.75H15.59l4.79-25.55c.5-2.66 2.82-4.59 5.53-4.59h12.26c2.71 0 5.03 1.93 5.53 4.59ZM64.02 40.7v23.31H38.63V40.7h18.41v-4.27a5.62 5.62 0 0 0-5.61-5.61h-.13a5.62 5.62 0 0 0-5.61 5.61h-2.75c0-4.61 3.75-8.36 8.36-8.36h.13c4.61 0 8.36 3.75 8.36 8.36v4.27zm-2.75 2.75H41.38v17.81h19.89zm-11.16 9.28v1.72c0 .76.62 1.38 1.38 1.38s1.38-.62 1.38-1.38v-1.72c.5-.4.83-1.01.83-1.71 0-1.21-.99-2.2-2.2-2.2s-2.2.99-2.2 2.2c0 .69.33 1.3.83 1.71Z"/>
</svg>
