<svg viewBox="0 0 16 16" xmlns="http://www.w3.org/2000/svg">
  <path fill="#1e1e1c" d="M13.75 11.76h-.72L11.88 5.6a2.25 2.25 0 0 0-2.21-1.83H6.35c-1.08 0-2.01.77-2.21 1.83l-1.15 6.16h-.72C1.01 11.76 0 12.77 0 14.01v2h16v-2c0-1.24-1.01-2.25-2.25-2.25M5.61 5.87a.76.76 0 0 1 .74-.61h3.32c.36 0 .67.26.74.61l1.1 5.88h-7zm8.89 8.64h-13v-.5c0-.41.34-.75.75-.75h11.5c.41 0 .75.34.75.75zM7.26 2.25V.76a.751.751 0 1 1 1.5-.01v1.5c0 .41-.34.75-.75.75s-.75-.34-.75-.75M0 8.09c0-.41.34-.75.75-.75h1.5c.41 0 .75.34.75.75s-.34.75-.75.75H.76C.34 8.84 0 8.5 0 8.09m13.76-.87h1.5c.41 0 .75.34.75.75s-.34.75-.75.75h-1.5c-.41 0-.75-.34-.75-.75s.34-.75.75-.75M1.44 2.87a.76.76 0 0 1 .11-1.06.76.76 0 0 1 1.06.11l.9 1.11c.26.32.21.79-.11 1.06-.14.11-.31.17-.47.17-.22 0-.43-.09-.58-.28l-.9-1.11ZM12.5 4.13a.747.747 0 0 1-.11-1.05l.95-1.16a.747.747 0 0 1 1.16.94l-.95 1.16c-.15.18-.36.28-.58.28-.17 0-.34-.06-.47-.17M9.12 6.71c0 .41-.34.75-.75.75h-.68c-.14 0-.27.1-.29.24l-.37 1.89a.75.75 0 0 1-.74.61c-.05 0-.1 0-.15-.01a.744.744 0 0 1-.59-.88l.37-1.89c.16-.84.9-1.46 1.77-1.46h.68c.41 0 .75.34.75.75"/>
</svg>
