<svg viewBox="0 0 16 16" xmlns="http://www.w3.org/2000/svg">
  <path fill="#1e1e1c" d="M7.26 2.25V.76a.751.751 0 1 1 1.5-.01v1.49c0 .41-.34.75-.75.75s-.75-.34-.75-.75ZM.76 8.84h1.5c.41 0 .75-.34.75-.75s-.34-.75-.75-.75H.76a.751.751 0 1 0-.01 1.5Zm12.25-.87c0 .41.34.75.75.75h1.5c.41 0 .75-.34.75-.75s-.34-.75-.75-.75h-1.5c-.41 0-.75.34-.75.75m-10.67-4c.15.18.36.28.58.28a.7.7 0 0 0 .47-.17c.32-.26.37-.73.11-1.05l-.9-1.11a.747.747 0 1 0-1.16.94zm10.63.33c.22 0 .43-.09.58-.27l.95-1.16c.26-.32.22-.79-.1-1.06a.76.76 0 0 0-1.06.1l-.95 1.16c-.26.32-.22.79.1 1.06.14.11.31.17.48.17m-9.99 7.46L4.13 5.6a2.25 2.25 0 0 1 2.21-1.83h3.32c1.08 0 2.01.77 2.21 1.84l1.15 6.16H2.98Zm1.86-3.17c-.08.41.19.8.59.88.05 0 .1.01.15.01.35 0 .67-.25.74-.61l.37-1.89c.03-.14.15-.24.29-.24h.68c.41 0 .75-.34.75-.75s-.34-.75-.75-.75h-.68c-.86 0-1.61.62-1.77 1.46zm8.91 4.68H2.25C1.01 13.27 0 14.28 0 15.54v.47h16v-.49c0-1.24-1.01-2.25-2.25-2.25"/>
</svg>
