<svg viewBox="0 0 48 48" xmlns="http://www.w3.org/2000/svg">
  <path fill="#1e1e1c" d="M24.02 7.98c-.69 0-1.25-.56-1.25-1.25V1.27a1.25 1.25 0 0 1 2.5 0v5.46c0 .69-.56 1.25-1.25 1.25M7.98 24.54c0-.69-.56-1.25-1.25-1.25H1.28a1.25 1.25 0 0 0 0 2.5h5.46c.69 0 1.25-.56 1.25-1.25Zm1.68-12.26c.53-.45.59-1.23.15-1.76L6.29 6.35a1.25 1.25 0 0 0-1.76-.15c-.53.45-.59 1.23-.15 1.76l3.52 4.17a1.26 1.26 0 0 0 1.76.15m30.32-.15 3.52-4.17c.44-.53.38-1.32-.15-1.76-.53-.45-1.32-.38-1.76.15l-3.52 4.17c-.44.53-.38 1.32.15 1.76.23.2.52.29.8.29.36 0 .71-.15.96-.44M18.92 28.1l1.14-5.83c.18-.93.99-1.61 1.94-1.61h2.11a1.25 1.25 0 0 0 0-2.5H22c-2.15 0-4 1.54-4.4 3.64l-1.14 5.82c-.13.68.31 1.33.99 1.47.08.02.16.02.24.02.59 0 1.11-.41 1.23-1.01m8.53 9.18h-15.5l3.54-18.91a4 4 0 0 1 3.93-3.26h9.2c1.92 0 3.58 1.37 3.93 3.26l.61 3.26c.66-.61 1.43-1.11 2.27-1.46l-.42-2.26a6.505 6.505 0 0 0-6.39-5.3h-9.2c-3.12 0-5.81 2.23-6.39 5.3l-4.1 21.87h18.51v-2.5Zm0 8.24H2.51v-2.5c0-1.79 1.46-3.25 3.25-3.25h21.69v-2.5H5.76c-3.17 0-5.75 2.58-5.75 5.75v5h27.44zm20.56-15.3H28.7v17.77h19.31zm-16.81 2.5h14.32v12.77H31.2zm13.67-5.39c0-3.58-2.91-6.49-6.49-6.49s-6.49 2.91-6.49 6.49h2.5c0-2.2 1.79-3.99 3.99-3.99s3.99 1.79 3.99 3.99v4.07h2.5zm-4.54 10.79c0-1.03-.84-1.86-1.86-1.86s-1.86.84-1.86 1.86.84 1.86 1.86 1.86 1.86-.84 1.86-1.86m-1.22 0c0 .35-.29.64-.64.64s-.64-.29-.64-.64.29-.64.64-.64.64.29.64.64m.61 2.54v-2.54a1.25 1.25 0 0 0-2.5 0v2.54a1.25 1.25 0 0 0 2.5 0"/>
</svg>
