<svg viewBox="0 0 64 64" xmlns="http://www.w3.org/2000/svg">
  <path d="M32 0C14.36 0 0 14.35 0 32s14.36 32 32 32 32-14.36 32-32S49.64 0 32 0m9.92 15.4c2.92 0 5.28 3.78 5.28 8.45s-2.36 8.45-5.28 8.45-5.28-3.78-5.28-8.45S39 15.4 41.92 15.4m-18.8 0c2.92 0 5.28 3.78 5.28 8.45s-2.36 8.45-5.28 8.45-5.28-3.78-5.28-8.45 2.36-8.45 5.28-8.45m28.26 24.7c-4 6.91-11.43 11.2-19.38 11.2s-15.38-4.29-19.38-11.2c-.38-.66-.16-1.5.5-1.88s1.5-.16 1.88.5c3.51 6.06 10.03 9.83 17 9.83s13.49-3.77 17-9.83c.38-.66 1.22-.88 1.88-.5s.88 1.22.5 1.88"/>
</svg>
