<svg viewBox="0 0 64 64" xmlns="http://www.w3.org/2000/svg">
  <path d="M32 .29c-17.67 0-32 14.33-32 32s14.33 32 32 32 32-14.33 32-32-14.33-32-32-32m0 61.25c-16.13 0-29.25-13.12-29.25-29.25S15.87 3.04 32 3.04s29.25 13.12 29.25 29.25S48.13 61.54 32 61.54m14.4-34.97c0 2.76-2.24 5-5 5s-5-2.24-5-5 2.24-5 5-5 5 2.24 5 5m-27.81 0c0-2.76 2.24-5 5-5s5 2.24 5 5-2.24 5-5 5-5-2.24-5-5m26.4 14.3c.61.45.73 1.32.28 1.92-3.17 4.24-8.01 6.68-13.27 6.68s-10.1-2.43-13.27-6.68c-.45-.61-.33-1.47.28-1.92.61-.46 1.47-.33 1.92.28 2.65 3.54 6.68 5.57 11.07 5.57s8.42-2.03 11.07-5.57c.45-.61 1.32-.73 1.92-.28"/>
</svg>
