<svg viewBox="0 0 48 48" xmlns="http://www.w3.org/2000/svg">
  <path d="M24 0C10.75 0 0 10.75 0 24s10.75 24 24 24 24-10.75 24-24S37.25 0 24 0m-6.31 15.96c2.07 0 3.75 1.68 3.75 3.75s-1.68 3.75-3.75 3.75-3.75-1.68-3.75-3.75 1.68-3.75 3.75-3.75m16.18 19.39c-.22.17-.49.25-.75.25-.38 0-.76-.17-1-.5-1.94-2.6-4.9-4.09-8.13-4.09s-6.18 1.49-8.13 4.09c-.41.55-1.2.67-1.75.25-.55-.41-.67-1.2-.25-1.75 2.42-3.24 6.11-5.1 10.13-5.1s7.71 1.86 10.13 5.1c.41.55.3 1.34-.25 1.75m-2.82-11.89c-2.07 0-3.75-1.68-3.75-3.75s1.68-3.75 3.75-3.75 3.75 1.68 3.75 3.75-1.68 3.75-3.75 3.75"/>
</svg>
