<svg viewBox="0 0 24 24" xmlns="http://www.w3.org/2000/svg">
  <path d="M12 0a11.94 11.94 0 0 0-7.63 2.74A12.04 12.04 0 0 0 .54 8.43a12.05 12.05 0 0 0 0 7.14c.47 1.5 1.22 2.88 2.2 4.06a12.04 12.04 0 0 0 5.69 3.83 12.05 12.05 0 0 0 7.14 0c1.5-.47 2.88-1.22 4.06-2.2a12.04 12.04 0 0 0 3.83-5.69c.35-1.13.54-2.33.54-3.57 0-6.63-5.37-12-12-12M6.97 9.85c0-1.04.84-1.88 1.88-1.88s1.88.84 1.88 1.88-.84 1.88-1.88 1.88-1.88-.84-1.88-1.88M14.58 17H9.77c-.48 0-.88-.39-.88-.88s.39-.88.88-.88h4.81c.48 0 .88.39.88.88s-.39.88-.88.88m.94-5.27c-1.04 0-1.88-.84-1.88-1.88s.84-1.88 1.88-1.88 1.88.84 1.88 1.88-.84 1.88-1.88 1.88"/>
</svg>
