<svg viewBox="0 0 64 64" xmlns="http://www.w3.org/2000/svg">
  <path d="M61.49 19.54c-.2-.48-.42-.95-.64-1.42-.45-.93-.94-1.84-1.48-2.72-.27-.44-.54-.87-.83-1.3C52.78 5.59 43.05 0 32 0S11.22 5.59 5.47 14.11a34 34 0 0 0-2.31 4.02A31.9 31.9 0 0 0 .01 32.01c0 4.42.9 8.63 2.51 12.46a31 31 0 0 0 2.12 4.14c.27.44.54.87.83 1.3.86 1.28 1.81 2.49 2.85 3.62.69.76 1.41 1.48 2.17 2.17 5.68 5.17 13.23 8.31 21.52 8.31s15.83-3.15 21.52-8.31c.76-.69 1.48-1.41 2.17-2.17 1.03-1.14 1.99-2.35 2.85-3.62a34 34 0 0 0 2.31-4.02 31.9 31.9 0 0 0 3.15-13.88c0-4.42-.9-8.63-2.51-12.46Zm-42.9 6.74c0-2.76 2.24-5 5-5s5 2.24 5 5-2.24 5-5 5-5-2.24-5-5m20.3 18.08H26.05c-.76 0-1.38-.62-1.38-1.37s.62-1.37 1.38-1.37h12.84c.76 0 1.38.62 1.38 1.37s-.62 1.37-1.38 1.37m2.51-13.08c-2.76 0-5-2.24-5-5s2.24-5 5-5 5 2.24 5 5-2.24 5-5 5"/>
</svg>
