<svg viewBox="0 0 24 24" xmlns="http://www.w3.org/2000/svg">
  <path d="M12 0C5.37 0 0 5.37 0 12s5.37 12 12 12 12-5.37 12-12S18.63 0 12 0m0 22.25c-5.65 0-10.25-4.6-10.25-10.25S6.35 1.75 12 1.75 22.25 6.35 22.25 12 17.65 22.25 12 22.25m1.65-12.4c0-1.04.84-1.88 1.88-1.88s1.88.84 1.88 1.88-.84 1.88-1.88 1.88-1.88-.84-1.88-1.88m-6.68 0c0-1.04.84-1.88 1.88-1.88s1.88.84 1.88 1.88-.84 1.88-1.88 1.88-1.88-.84-1.88-1.88m10.12 5.08c.39.29.47.84.18 1.22-1.26 1.68-3.18 2.65-5.26 2.65S8 17.84 6.75 16.15a.865.865 0 0 1 .18-1.22c.39-.29.94-.21 1.22.18.92 1.24 2.33 1.95 3.86 1.95s2.94-.71 3.86-1.95c.29-.39.84-.47 1.22-.18"/>
</svg>
