<svg viewBox="0 0 48 48" xmlns="http://www.w3.org/2000/svg">
  <path d="M24 0C10.75 0 0 10.75 0 24.01s10.75 24 24 24 24-10.75 24-24S37.25 0 24 0m0 45.51c-11.86 0-21.5-9.64-21.5-21.5S12.14 2.51 24 2.51s21.5 9.64 21.5 21.5-9.64 21.5-21.5 21.5m3.87-25.42c-.33-.56-.57-1.18-.57-1.87 0-2.07 1.68-3.75 3.75-3.75s3.75 1.68 3.75 3.75c0 .7-.24 1.32-.57 1.87-.65-1.1-1.8-1.12-3.18-1.12s-2.52.02-3.18 1.12m-13.36 0c-.33-.56-.57-1.18-.57-1.87 0-2.07 1.68-3.75 3.75-3.75s3.75 1.68 3.75 3.75c0 .7-.24 1.32-.57 1.87-.65-1.1-1.8-1.12-3.18-1.12s-2.52.02-3.18 1.12m-5.19 4.54h29.36c0 4.41-4.68 14.7-14.68 14.7-9.36 0-14.68-10.37-14.68-14.7"/>
</svg>
