<svg viewBox="0 0 32 32" xmlns="http://www.w3.org/2000/svg">
  <path d="M16 0C7.16 0 0 7.16 0 16c0 2.21.45 4.31 1.26 6.23.4.96.9 1.87 1.48 2.72C5.62 29.21 10.48 32 16.01 32s10.39-2.8 13.27-7.05A15.94 15.94 0 0 0 32.02 16C32 7.16 24.84 0 16 0m-4.21 10.64a2.5 2.5 0 0 1 0 5 2.5 2.5 0 0 1 0-5M22.68 23.7c-.44.33-1.07.24-1.4-.2-1.26-1.69-3.19-2.66-5.28-2.66s-4.02.97-5.28 2.66c-.2.26-.5.4-.8.4a1.003 1.003 0 0 1-.8-1.6c1.64-2.2 4.15-3.46 6.89-3.46s5.24 1.26 6.89 3.46c.33.44.24 1.07-.2 1.4Zm-1.98-8.06a2.5 2.5 0 0 1 0-5 2.5 2.5 0 0 1 0 5"/>
</svg>
