<svg viewBox="0 0 48 48" xmlns="http://www.w3.org/2000/svg">
  <path d="M24 0C10.75 0 0 10.75 0 24s10.75 24 24 24 24-10.75 24-24S37.25 0 24 0m-6.31 15.96c2.07 0 3.75 1.68 3.75 3.75s-1.68 3.75-3.75 3.75-3.75-1.68-3.75-3.75 1.68-3.75 3.75-3.75m16.44 16.05c-2.42 3.24-6.11 5.1-10.13 5.1s-7.71-1.86-10.13-5.1c-.41-.55-.3-1.34.25-1.75s1.34-.3 1.75.25c1.94 2.6 4.9 4.09 8.13 4.09s6.18-1.49 8.13-4.09c.41-.55 1.19-.67 1.75-.25.55.41.67 1.2.25 1.75m-3.08-8.55c-2.07 0-3.75-1.68-3.75-3.75s1.68-3.75 3.75-3.75 3.75 1.68 3.75 3.75-1.68 3.75-3.75 3.75"/>
</svg>
