<svg viewBox="0 0 32 32" xmlns="http://www.w3.org/2000/svg">
  <path fill="#1e1e1c" d="M16 0C7.18 0 0 7.18 0 16s7.18 16 16 16 16-7.18 16-16S24.82 0 16 0m0 30C8.28 30 2 23.72 2 16S8.28 2 16 2s14 6.28 14 14-6.28 14-14 14m2.27-17.99c0-2.29 1.16-4.14 2.59-4.14s2.59 1.85 2.59 4.14-1.16 4.14-2.59 4.14-2.59-1.85-2.59-4.14m-9.21 0c0-2.29 1.16-4.14 2.59-4.14s2.59 1.85 2.59 4.14-1.16 4.14-2.59 4.14-2.59-1.85-2.59-4.14m14.59 11.66c.28.48.11 1.09-.36 1.37s-1.09.11-1.37-.36c-1.22-2.11-3.49-3.42-5.92-3.42s-4.69 1.31-5.92 3.42c-.19.32-.52.5-.87.5-.17 0-.34-.04-.5-.13a1 1 0 0 1-.36-1.37c1.58-2.73 4.51-4.42 7.65-4.42s6.07 1.69 7.65 4.42Z"/>
</svg>
