<svg viewBox="0 0 48 48" xmlns="http://www.w3.org/2000/svg">
  <path fill="#1e1e1c" d="M24 0C10.77 0 0 10.77 0 24s10.77 24 24 24 24-10.77 24-24S37.23 0 24 0m0 45.5C12.15 45.5 2.5 35.86 2.5 24S12.15 2.51 24 2.51s21.5 9.64 21.5 21.5-9.64 21.5-21.5 21.5Zm3.45-27.55c0-3.47 1.76-6.28 3.92-6.28s3.92 2.81 3.92 6.28-1.76 6.28-3.92 6.28-3.92-2.81-3.92-6.28m-13.98 0c0-3.47 1.76-6.28 3.92-6.28s3.92 2.81 3.92 6.28-1.76 6.28-3.92 6.28-3.92-2.81-3.92-6.28m22.91 18.11c.35.6.14 1.36-.46 1.71-.2.11-.41.17-.63.17-.43 0-.85-.22-1.08-.62-2.11-3.64-6.02-5.91-10.21-5.91s-8.1 2.26-10.21 5.91c-.35.6-1.11.8-1.71.46-.6-.35-.8-1.11-.46-1.71 2.56-4.41 7.3-7.15 12.38-7.15s9.82 2.74 12.38 7.15Z"/>
</svg>
