<svg viewBox="0 0 64 64" xmlns="http://www.w3.org/2000/svg">
  <path d="M32 0C14.33 0 0 14.32 0 32s14.33 32 32 32 32-14.33 32-32S49.67 0 32 0m0 61.25C15.87 61.25 2.75 48.13 2.75 32S15.87 2.75 32 2.75 61.25 15.87 61.25 32 48.13 61.25 32 61.25m5.16-34.47c-.44-.75-.77-1.57-.77-2.5 0-2.76 2.24-5 5-5s5 2.24 5 5c0 .93-.32 1.75-.77 2.5-.87-1.47-2.4-1.5-4.23-1.5s-3.36.03-4.23 1.5m-17.81 0c-.44-.75-.77-1.57-.77-2.5 0-2.76 2.24-5 5-5s5 2.24 5 5c0 .93-.32 1.75-.77 2.5-.87-1.47-2.4-1.5-4.23-1.5s-3.36.03-4.23 1.5m-6.93 6.05h39.15c0 5.88-6.24 19.6-19.58 19.6-12.48 0-19.58-13.83-19.58-19.6Z"/>
</svg>
