<svg viewBox="0 0 32 32" xmlns="http://www.w3.org/2000/svg">
  <path d="M16 0C7.16 0 0 7.16 0 16c0 2.21.45 4.31 1.26 6.23.4.96.9 1.87 1.48 2.72C5.62 29.21 10.48 32 16.01 32s10.39-2.8 13.27-7.05A15.94 15.94 0 0 0 32.02 16C32 7.16 24.84 0 16 0M8.69 11.41a1.003 1.003 0 0 1 .67-1.89l4.53 1.6c.52.18.79.76.61 1.28a1 1 0 0 1-.71.63c0 .04.01.07.01.11a2.5 2.5 0 0 1-5 0c0-.57.2-1.09.52-1.51l-.62-.22ZM22.68 23.7a1 1 0 0 1-1.4-.2c-1.26-1.69-3.19-2.66-5.28-2.66s-4.02.97-5.28 2.66c-.33.44-.96.53-1.4.2s-.53-.96-.2-1.4c1.64-2.2 4.15-3.46 6.89-3.46s5.24 1.26 6.89 3.46c.33.44.24 1.07-.2 1.4Zm.63-12.29-.62.22c.32.42.52.94.52 1.51a2.5 2.5 0 0 1-5 0c0-.04 0-.07.01-.11a1 1 0 0 1-.71-.63c-.18-.52.09-1.09.61-1.28l4.53-1.6c.52-.18 1.09.09 1.28.61.18.52-.09 1.09-.61 1.28Z"/>
</svg>
