<svg viewBox="0 0 16 16" xmlns="http://www.w3.org/2000/svg">
  <path d="M8 0C3.59 0 0 3.59 0 8s3.59 8 8 8 8-3.59 8-8-3.59-8-8-8m0 14.5c-3.58 0-6.5-2.92-6.5-6.5S4.42 1.5 8 1.5s6.5 2.92 6.5 6.5-2.92 6.5-6.5 6.5m1.1-8.43c0-1.1.56-2 1.25-2s1.25.9 1.25 2-.56 2-1.25 2-1.25-.9-1.25-2m-4.45 0c0-1.1.56-2 1.25-2s1.25.9 1.25 2-.56 2-1.25 2-1.25-.9-1.25-2m8.31 4.06c-1.02 1.77-2.92 2.86-4.96 2.86s-3.93-1.1-4.96-2.86c-.21-.36-.08-.82.27-1.03s.82-.09 1.03.27C5.1 10.68 6.5 11.49 8 11.49s2.9-.81 3.66-2.12a.752.752 0 1 1 1.3.76"/>
</svg>
