<svg viewBox="0 0 24 24" xmlns="http://www.w3.org/2000/svg">
  <path d="M12 0a11.94 11.94 0 0 0-7.63 2.74A12.04 12.04 0 0 0 .54 8.43a12.05 12.05 0 0 0 0 7.14c.47 1.5 1.22 2.88 2.2 4.06a12.04 12.04 0 0 0 5.69 3.83 12.05 12.05 0 0 0 7.14 0c1.5-.47 2.88-1.22 4.06-2.2a12.04 12.04 0 0 0 3.83-5.69c.35-1.13.54-2.33.54-3.57 0-6.63-5.37-12-12-12m3.52 7.98c1.04 0 1.88.84 1.88 1.88s-.84 1.88-1.88 1.88-1.88-.84-1.88-1.88.84-1.88 1.88-1.88m-6.68 0c1.04 0 1.88.84 1.88 1.88s-.84 1.88-1.88 1.88-1.88-.84-1.88-1.88.84-1.88 1.88-1.88m8.42 8.17C16 17.83 14.08 18.8 12 18.8s-4.01-.96-5.26-2.65a.865.865 0 0 1 .18-1.22c.39-.29.94-.21 1.22.18.92 1.24 2.33 1.95 3.86 1.95s2.94-.71 3.86-1.95c.29-.39.84-.47 1.22-.18.39.29.47.84.18 1.22"/>
</svg>
