<svg viewBox="0 0 24 24" xmlns="http://www.w3.org/2000/svg">
  <path d="M12 0C5.37 0 0 5.37 0 12s5.37 12 12 12 12-5.37 12-12S18.63 0 12 0m0 22.25c-5.65 0-10.25-4.6-10.25-10.25S6.35 1.75 12 1.75 22.25 6.35 22.25 12 17.65 22.25 12 22.25m5.4-12.4c0 1.04-.84 1.88-1.88 1.88s-1.88-.84-1.88-1.88.84-1.88 1.88-1.88 1.88.84 1.88 1.88m-8.56 1.88c-1.04 0-1.88-.84-1.88-1.88s.84-1.88 1.88-1.88 1.88.84 1.88 1.88-.84 1.88-1.88 1.88m6.62 4.39c0 .48-.39.88-.88.88H9.77c-.48 0-.88-.39-.88-.88s.39-.88.88-.88h4.81c.48 0 .88.39.88.88"/>
</svg>
