<svg viewBox="0 0 40 40" xmlns="http://www.w3.org/2000/svg">
  <path d="M20-.06c-11.05 0-20 8.96-20 20s8.95 20 20 20 20-8.95 20-20-8.95-20-20-20m5.87 12.05c1.73 0 3.12 1.4 3.12 3.12 0 .58-.2 1.1-.48 1.56-.54-.92-1.5-.94-2.65-.94s-2.1.02-2.65.94c-.28-.47-.48-.98-.48-1.56 0-1.73 1.4-3.12 3.12-3.12Zm-11.13 0c1.73 0 3.12 1.4 3.12 3.12 0 .58-.2 1.1-.48 1.56-.54-.92-1.5-.94-2.65-.94s-2.1.02-2.65.94c-.28-.47-.48-.98-.48-1.56 0-1.73 1.4-3.12 3.12-3.12ZM20 32.72c-7.8 0-12.23-8.64-12.23-12.25h24.47c0 3.68-3.9 12.25-12.23 12.25Z"/>
</svg>
