<svg viewBox="0 0 48 48" xmlns="http://www.w3.org/2000/svg">
  <path d="M24 0C10.77 0 0 10.77 0 24s10.77 24 24 24 24-10.77 24-24S37.23 0 24 0m0 45.5C12.15 45.5 2.5 35.86 2.5 24S12.15 2.51 24 2.51s21.5 9.64 21.5 21.5-9.64 21.5-21.5 21.5Zm3.45-27.55c0-3.47 1.76-6.28 3.92-6.28s3.92 2.81 3.92 6.28-1.76 6.28-3.92 6.28-3.92-2.81-3.92-6.28m-13.98 0c0-3.47 1.76-6.28 3.92-6.28s3.92 2.81 3.92 6.28-1.76 6.28-3.92 6.28-3.92-2.81-3.92-6.28M38.6 30.14c-3.02 5.2-8.61 8.44-14.6 8.44s-11.59-3.23-14.6-8.44c-.35-.6-.14-1.36.46-1.71s1.36-.14 1.71.46c2.57 4.44 7.33 7.19 12.44 7.19s9.87-2.76 12.44-7.19c.35-.6 1.11-.8 1.71-.46.6.35.8 1.11.46 1.71Z"/>
</svg>
