<svg viewBox="0 0 40 40" xmlns="http://www.w3.org/2000/svg">
  <path d="M20-.06c-11.05 0-20 8.96-20 20s8.95 20 20 20 20-8.95 20-20-8.95-20-20-20m-9.1 14.15c-.59-.21-.89-.85-.69-1.44.21-.59.85-.9 1.44-.69l5.66 2c.59.21.89.85.69 1.44-.13.37-.43.62-.78.71 0 .09.03.17.03.25 0 1.73-1.4 3.12-3.12 3.12s-3.12-1.4-3.12-3.12c0-.76.28-1.45.73-1.99l-.82-.29Zm17.38 15.38c-.2.15-.44.22-.67.22-.34 0-.68-.16-.9-.45-1.6-2.15-4.04-3.38-6.7-3.38s-5.1 1.23-6.7 3.38c-.37.5-1.08.6-1.57.23-.5-.37-.6-1.08-.23-1.57 2.03-2.72 5.13-4.28 8.51-4.28s6.48 1.56 8.51 4.28c.37.5.27 1.2-.23 1.57Zm.82-15.38-.82.29c.45.54.73 1.23.73 1.99 0 1.73-1.4 3.12-3.12 3.12s-3.12-1.4-3.12-3.12c0-.09.02-.17.03-.25a1.11 1.11 0 0 1-.78-.71c-.21-.59.1-1.23.69-1.44l5.66-2c.59-.21 1.23.1 1.44.69s-.1 1.23-.69 1.44Z"/>
</svg>
