<svg viewBox="0 0 24 24" xmlns="http://www.w3.org/2000/svg">
  <path fill="#1e1e1c" d="M12 0C5.38 0 0 5.38 0 12s5.38 12 12 12 12-5.38 12-12S18.62 0 12 0m0 22.25c-5.65 0-10.25-4.6-10.25-10.25S6.35 1.75 12 1.75 22.25 6.35 22.25 12 17.65 22.25 12 22.25m1.69-13.21c0-1.7.86-3.07 1.92-3.07s1.92 1.37 1.92 3.07-.86 3.07-1.92 3.07-1.92-1.37-1.92-3.07m-6.84 0c0-1.7.86-3.07 1.92-3.07s1.92 1.37 1.92 3.07-.86 3.07-1.92 3.07-1.92-1.37-1.92-3.07m10.77 8.53a.882.882 0 0 1-.76 1.32c-.3 0-.6-.16-.76-.44-.85-1.46-2.42-2.37-4.11-2.37s-3.26.91-4.11 2.37a.88.88 0 0 1-1.2.32.88.88 0 0 1-.32-1.2c1.16-2 3.32-3.25 5.62-3.25s4.46 1.25 5.62 3.25Z"/>
</svg>
