<svg viewBox="0 0 32 32" xmlns="http://www.w3.org/2000/svg">
  <path d="M16 0C7.18 0 0 7.18 0 16s7.18 16 16 16 16-7.18 16-16S24.82 0 16 0m0 30C8.28 30 2 23.72 2 16S8.28 2 16 2s14 6.28 14 14-6.28 14-14 14m2.27-17.99c0-2.29 1.16-4.14 2.59-4.14s2.59 1.85 2.59 4.14-1.16 4.14-2.59 4.14-2.59-1.85-2.59-4.14m-9.21 0c0-2.29 1.16-4.14 2.59-4.14s2.59 1.85 2.59 4.14-1.16 4.14-2.59 4.14-2.59-1.85-2.59-4.14m16.72 8.12c-2.02 3.49-5.77 5.65-9.78 5.65s-7.76-2.17-9.78-5.65c-.28-.48-.11-1.09.36-1.37.48-.28 1.09-.11 1.37.36 1.66 2.87 4.75 4.65 8.05 4.65s6.39-1.78 8.05-4.65c.28-.48.89-.64 1.37-.36s.64.89.36 1.37"/>
</svg>
