<svg viewBox="0 0 40 40" xmlns="http://www.w3.org/2000/svg">
  <path d="M20-.06c-11.05 0-20 8.96-20 20s8.95 20 20 20 20-8.95 20-20-8.95-20-20-20m-5.26 13.3c1.73 0 3.12 1.4 3.12 3.12s-1.4 3.12-3.12 3.12-3.12-1.4-3.12-3.12 1.4-3.12 3.12-3.12m13.54 16.23c-.2.15-.44.22-.67.22-.34 0-.68-.16-.9-.45-1.6-2.15-4.04-3.38-6.7-3.38s-5.1 1.23-6.7 3.38c-.37.5-1.08.6-1.57.23-.5-.37-.6-1.08-.23-1.57 2.03-2.72 5.13-4.28 8.51-4.28s6.48 1.56 8.51 4.28c.37.5.27 1.2-.23 1.57Zm-2.41-9.98c-1.73 0-3.12-1.4-3.12-3.12s1.4-3.12 3.12-3.12 3.12 1.4 3.12 3.12-1.4 3.12-3.12 3.12"/>
</svg>
