<svg viewBox="0 0 24 24" xmlns="http://www.w3.org/2000/svg">
  <path d="M12 0C5.37 0 0 5.37 0 12s5.37 12 12 12 12-5.37 12-12S18.63 0 12 0m0 22.25c-5.65 0-10.25-4.6-10.25-10.25S6.35 1.75 12 1.75 22.25 6.35 22.25 12 17.65 22.25 12 22.25M6.9 8.83l-.43-.15a.864.864 0 0 1-.53-1.12c.16-.46.66-.7 1.12-.53l3.4 1.2c.46.16.7.66.53 1.12-.11.3-.36.5-.65.56-.02 1.01-.85 1.83-1.87 1.83s-1.88-.84-1.88-1.88c0-.38.11-.73.31-1.03m10.36 7.82c.29.39.21.94-.18 1.22-.16.12-.34.17-.52.17-.27 0-.53-.12-.7-.35-.92-1.24-2.33-1.95-3.86-1.95s-2.94.71-3.86 1.95c-.29.39-.84.47-1.22.18a.87.87 0 0 1-.18-1.22C8 14.97 9.92 14 12 14s4.01.96 5.26 2.65m.8-9.09a.88.88 0 0 1-.53 1.12l-.43.15a1.878 1.878 0 0 1-1.57 2.91c-1.04 0-1.85-.82-1.87-1.83a.88.88 0 0 1-.65-.56.88.88 0 0 1 .53-1.12l3.4-1.2c.45-.16.96.08 1.12.53"/>
</svg>
