<svg viewBox="0 0 48 48" xmlns="http://www.w3.org/2000/svg">
  <path d="M24 0C10.75 0 0 10.75 0 24s10.75 24 24 24 24-10.75 24-24S37.25 0 24 0m7.05 14.46c2.07 0 3.75 1.68 3.75 3.75 0 .7-.24 1.32-.57 1.87-.65-1.1-1.8-1.12-3.18-1.12s-2.52.02-3.18 1.12c-.33-.56-.57-1.18-.57-1.87 0-2.07 1.68-3.75 3.75-3.75m-13.36 0c2.07 0 3.75 1.68 3.75 3.75 0 .7-.24 1.32-.57 1.87-.65-1.1-1.8-1.12-3.18-1.12s-2.52.02-3.18 1.12c-.33-.56-.57-1.18-.57-1.87 0-2.07 1.68-3.75 3.75-3.75M24 39.33c-9.36 0-14.68-10.37-14.68-14.7h29.36c0 4.41-4.68 14.7-14.68 14.7"/>
</svg>
