<svg viewBox="0 0 24 24" xmlns="http://www.w3.org/2000/svg">
  <path d="M12 0C5.38 0 0 5.38 0 12s5.38 12 12 12 12-5.38 12-12S18.62 0 12 0m0 22.25c-5.65 0-10.25-4.6-10.25-10.25S6.35 1.75 12 1.75 22.25 6.35 22.25 12 17.65 22.25 12 22.25m1.69-13.21c0-1.7.86-3.07 1.92-3.07s1.92 1.37 1.92 3.07-.86 3.07-1.92 3.07-1.92-1.37-1.92-3.07m-6.84 0c0-1.7.86-3.07 1.92-3.07s1.92 1.37 1.92 3.07-.86 3.07-1.92 3.07-1.92-1.37-1.92-3.07m11.14 7.15c0 .48-.39.88-.88.88H6.89c-.48 0-.88-.39-.88-.88s.39-.88.88-.88h10.22c.48 0 .88.39.88.88"/>
</svg>
