<svg viewBox="0 0 24 24" xmlns="http://www.w3.org/2000/svg">
  <path d="M12 0C5.38 0 0 5.38 0 12s5.38 12 12 12 12-5.38 12-12S18.62 0 12 0m0 22.25c-5.65 0-10.25-4.6-10.25-10.25S6.35 1.75 12 1.75 22.25 6.35 22.25 12 17.65 22.25 12 22.25m1.69-13.21c0-1.7.86-3.07 1.92-3.07s1.92 1.37 1.92 3.07-.86 3.07-1.92 3.07-1.92-1.37-1.92-3.07m-6.84 0c0-1.7.86-3.07 1.92-3.07s1.92 1.37 1.92 3.07-.86 3.07-1.92 3.07-1.92-1.37-1.92-3.07m12.52 6.09c-1.52 2.63-4.34 4.26-7.37 4.26s-5.85-1.63-7.37-4.26c-.24-.42-.1-.95.32-1.2s.95-.1 1.2.32c1.21 2.09 3.45 3.38 5.85 3.38s4.65-1.3 5.85-3.38c.24-.42.78-.56 1.2-.32s.56.78.32 1.2"/>
</svg>
