<svg viewBox="0 0 64 64" xmlns="http://www.w3.org/2000/svg">
  <path d="M32 0C14.36 0 0 14.35 0 32s14.36 32 32 32 32-14.36 32-32S49.64 0 32 0m0 61.25C15.87 61.25 2.75 48.13 2.75 32S15.87 2.75 32 2.75 61.25 15.87 61.25 32 48.13 61.25 32 61.25m4.64-37.41c0-4.67 2.36-8.45 5.28-8.45s5.28 3.78 5.28 8.45-2.36 8.45-5.28 8.45-5.28-3.78-5.28-8.45m-18.81 0c0-4.67 2.36-8.45 5.28-8.45s5.28 3.78 5.28 8.45-2.36 8.45-5.28 8.45-5.28-3.78-5.28-8.45m30.74 18.57c0 .76-.62 1.38-1.38 1.38h-29.4c-.76 0-1.38-.62-1.38-1.38s.62-1.38 1.38-1.38h29.4c.76 0 1.38.62 1.38 1.38"/>
</svg>
