<svg viewBox="0 0 24 24" xmlns="http://www.w3.org/2000/svg">
  <path d="M12 0a11.94 11.94 0 0 0-7.63 2.74A12.04 12.04 0 0 0 .54 8.43a12.05 12.05 0 0 0 0 7.14c.47 1.5 1.22 2.88 2.2 4.06a12.04 12.04 0 0 0 5.69 3.83 12.05 12.05 0 0 0 7.14 0c1.5-.47 2.88-1.22 4.06-2.2a12.04 12.04 0 0 0 3.83-5.69c.35-1.13.54-2.33.54-3.57 0-6.63-5.37-12-12-12M5.94 7.56c.16-.46.66-.7 1.12-.53l3.4 1.2c.46.16.7.66.53 1.12-.11.3-.36.5-.65.56-.02 1.01-.85 1.83-1.87 1.83s-1.88-.84-1.88-1.88c0-.38.11-.73.31-1.03l-.43-.15a.864.864 0 0 1-.53-1.12m11.15 10.32c-.16.12-.34.17-.52.17-.27 0-.53-.12-.7-.35-.92-1.24-2.33-1.95-3.86-1.95s-2.94.71-3.86 1.95c-.29.39-.84.47-1.22.18a.87.87 0 0 1-.18-1.22c1.26-1.68 3.18-2.65 5.26-2.65s4.01.96 5.26 2.65c.29.39.21.94-.18 1.22m.43-9.2-.43.15a1.878 1.878 0 0 1-1.57 2.91c-1.04 0-1.85-.82-1.87-1.83a.88.88 0 0 1-.65-.56.88.88 0 0 1 .53-1.12l3.4-1.2c.45-.16.96.08 1.12.53a.88.88 0 0 1-.53 1.12"/>
</svg>
