<svg viewBox="0 0 24 24" xmlns="http://www.w3.org/2000/svg">
  <path fill="#1e1e1c" d="M12 0C5.38 0 0 5.38 0 12s5.38 12 12 12 12-5.38 12-12S18.62 0 12 0m3.61 5.97c1.06 0 1.92 1.37 1.92 3.07s-.86 3.07-1.92 3.07-1.92-1.37-1.92-3.07.86-3.07 1.92-3.07m-6.84 0c1.06 0 1.92 1.37 1.92 3.07s-.86 3.07-1.92 3.07-1.92-1.37-1.92-3.07.86-3.07 1.92-3.07m8.53 12.8c-.14.08-.29.12-.44.12-.3 0-.6-.16-.76-.44-.85-1.46-2.42-2.37-4.11-2.37s-3.26.91-4.11 2.37a.88.88 0 0 1-1.2.32.88.88 0 0 1-.32-1.2c1.16-2 3.32-3.25 5.62-3.25s4.46 1.25 5.62 3.25c.24.42.1.95-.32 1.2Z"/>
</svg>
