<svg viewBox="0 0 64 64" xmlns="http://www.w3.org/2000/svg">
  <path fill="#1e1e1c" d="M32 0C14.36 0 0 14.35 0 32s14.36 32 32 32 32-14.36 32-32S49.64 0 32 0m9.93 15.39c2.92 0 5.28 3.78 5.28 8.45s-2.36 8.45-5.28 8.45-5.28-3.78-5.28-8.45 2.36-8.45 5.28-8.45m-18.82 0c2.92 0 5.28 3.78 5.28 8.45s-2.36 8.45-5.28 8.45-5.28-3.78-5.28-8.45 2.36-8.45 5.28-8.45M47.9 50.26c-.22.13-.45.19-.69.19-.47 0-.94-.25-1.19-.69-2.9-5-8.27-8.1-14.02-8.1s-11.12 3.1-14.02 8.1c-.38.66-1.22.88-1.88.5s-.88-1.22-.5-1.88c3.39-5.84 9.67-9.47 16.4-9.47s13.01 3.63 16.4 9.47c.38.66.16 1.5-.5 1.88"/>
</svg>
