<svg viewBox="0 0 40 40" xmlns="http://www.w3.org/2000/svg">
  <path d="M20 0C8.97 0 0 8.97 0 20s8.97 20 20 20 20-8.97 20-20S31.03 0 20 0m0 37.75c-9.79 0-17.75-7.96-17.75-17.75S10.21 2.25 20 2.25 37.75 10.21 37.75 20 29.79 37.75 20 37.75m2.86-22.78c0-2.88 1.46-5.21 3.25-5.21s3.25 2.33 3.25 5.21-1.46 5.21-3.25 5.21-3.25-2.33-3.25-5.21m-11.59 0c0-2.88 1.46-5.21 3.25-5.21s3.25 2.33 3.25 5.21-1.46 5.21-3.25 5.21-3.25-2.33-3.25-5.21m20.92 10.16C29.67 29.48 25 32.17 20 32.17s-9.67-2.7-12.19-7.04A1.126 1.126 0 1 1 9.76 24c2.12 3.65 6.04 5.92 10.24 5.92s8.13-2.27 10.24-5.92a1.126 1.126 0 1 1 1.95 1.13"/>
</svg>
