<svg viewBox="0 0 40 40" xmlns="http://www.w3.org/2000/svg">
  <path d="M20 0C8.95 0 0 8.95 0 20s8.95 20 20 20 20-8.95 20-20S31.05 0 20 0m0 37.75c-9.79 0-17.75-7.96-17.75-17.75S10.21 2.25 20 2.25 37.75 10.21 37.75 20 29.79 37.75 20 37.75m0-29.09C13.75 8.66 8.66 13.75 8.66 20S13.75 31.34 20 31.34 31.34 26.25 31.34 20 26.25 8.66 20 8.66m0 2.25c2.1 0 4.03.72 5.57 1.92L12.83 25.57A9.03 9.03 0 0 1 10.91 20c0-5.01 4.08-9.09 9.09-9.09m0 18.18c-2.1 0-4.03-.72-5.57-1.92l12.74-12.74A9.03 9.03 0 0 1 29.09 20c0 5.01-4.08 9.09-9.09 9.09"/>
</svg>
