<svg viewBox="0 0 24 24" xmlns="http://www.w3.org/2000/svg">
  <path d="M12-.01c-6.63 0-12 5.37-12 12s5.37 12 12 12 12-5.37 12-12-5.37-12-12-12m0 22.25c-5.65 0-10.25-4.6-10.25-10.25S6.35 1.74 12 1.74s10.25 4.6 10.25 10.25S17.65 22.24 12 22.24m0-17.26c-3.86 0-7 3.14-7 7s3.14 7 7 7 7-3.14 7-7-3.14-7-7-7m0 1.75c1.13 0 2.18.37 3.03.98l-7.31 7.31c-.61-.86-.98-1.9-.98-3.03 0-2.9 2.36-5.25 5.25-5.25Zm0 10.51c-1.13 0-2.18-.37-3.03-.98l7.31-7.31c.61.86.98 1.9.98 3.03 0 2.9-2.36 5.25-5.25 5.25Z"/>
</svg>
