<svg viewBox="0 0 64 64" xmlns="http://www.w3.org/2000/svg">
  <path d="M63.97 30.37c-.11-2.18-.44-4.31-.97-6.35-.26-1.02-.58-2.03-.93-3.01a31.8 31.8 0 0 0-4.42-8.14c-.31-.41-.62-.81-.95-1.21a32.5 32.5 0 0 0-6.8-6.18c-.85-.58-1.73-1.11-2.64-1.6s-1.84-.94-2.8-1.35C40.64.91 36.43.02 32.01.02s-8.63.9-12.46 2.51c-.96.4-1.89.85-2.8 1.35-.91.49-1.79 1.03-2.64 1.6a32.5 32.5 0 0 0-6.8 6.18 32 32 0 0 0-5.37 9.35c-.36.98-.67 1.98-.93 3.01a31.6 31.6 0 0 0-1.01 8c.01 17.67 14.34 32 32.01 32s32-14.33 32-32c0-.55-.01-1.1-.04-1.65M29.02 14.51h6.34v9.36l-1.25 11.75h-3.84l-1.25-11.75zm3.16 33.5c-2.26 0-4.03-1.78-4.03-3.98s1.78-3.94 4.03-3.94 4.03 1.78 4.03 3.94-1.78 3.98-4.03 3.98"/>
</svg>
