<svg viewBox="0 0 40 40" xmlns="http://www.w3.org/2000/svg">
  <path fill="#1e1e1c" d="M20 0C8.97 0 0 8.97 0 20s8.97 20 20 20 20-8.97 20-20S31.03 0 20 0m0 37.75c-9.79 0-17.75-7.96-17.75-17.75S10.21 2.25 20 2.25 37.75 10.21 37.75 20 29.79 37.75 20 37.75m7.3-23.46L21.59 20l5.71 5.71a1.123 1.123 0 0 1-.8 1.92c-.29 0-.58-.11-.8-.33l-5.71-5.71-5.71 5.71c-.22.22-.51.33-.8.33s-.58-.11-.8-.33c-.44-.44-.44-1.15 0-1.59L18.39 20l-5.71-5.71c-.44-.44-.44-1.15 0-1.59s1.15-.44 1.59 0l5.71 5.71 5.71-5.71c.44-.44 1.15-.44 1.59 0s.44 1.15 0 1.59Z"/>
</svg>
