<svg viewBox="0 0 40 40" xmlns="http://www.w3.org/2000/svg">
  <path d="M33 5.33h2.25v2.25H33zm0 6.76h2.25V9.84H33zm0 4.49h2.25v-2.25H33zm7-11.61v25.06c0 1.17-.95 2.12-2.12 2.12h-6.61V40h-2.25V21.67h-2.39v7.59c0 .76-.62 1.37-1.37 1.37h-9.5c-.76 0-1.37-.62-1.37-1.37v-7.59H12V40H9.75v-7.85H2.12C.95 32.15 0 31.2 0 30.03V4.97C0 2.28 2.35 0 5.14 0h29.88C37.76 0 40 2.23 40 4.97M9.75 29.9v-2.88h-7.5v2.88zm14.63-8.23h-7.75v6.72h7.75zm13.37 5.36h-6.49v2.88h6.49zm0-22.06c0-1.5-1.22-2.72-2.73-2.72H5.14c-1.54 0-2.89 1.27-2.89 2.72v19.81h7.5v-3.11H7.66c-.62 0-1.12-.5-1.12-1.12s.5-1.12 1.12-1.12h25.69c.62 0 1.12.5 1.12 1.12s-.5 1.12-1.12 1.12h-2.09v3.11h6.49zM24.67 33.4h-8.33c-1.1 0-1.96.78-1.96 1.77v4.84h2.25v-4.35h7.75v4.35h2.25v-4.84c0-.99-.86-1.77-1.96-1.77m2.36-27.26v9.42h-18V6.14c0-.9.73-1.62 1.62-1.62H25.4c.9 0 1.62.73 1.62 1.62Zm-2.25.62h-13.5v6.54h13.5z"/>
</svg>
