<svg viewBox="0 0 40 40" xmlns="http://www.w3.org/2000/svg">
  <path d="M11.27 6.76h13.5v6.54h-13.5zM40 4.97v19.81h-8.74v-3.11h2.09c.62 0 1.12-.5 1.12-1.12s-.5-1.12-1.12-1.12H7.66c-.62 0-1.12.5-1.12 1.12s.5 1.12 1.12 1.12h2.09v3.11H0V4.97C0 2.28 2.35 0 5.14 0h29.88C37.76 0 40 2.23 40 4.97M27.03 6.14c0-.9-.73-1.62-1.62-1.62H10.66c-.9 0-1.62.73-1.62 1.62v9.42h18V6.14Zm8.21 8.2h-2.25v2.25h2.25zm0-4.5h-2.25v2.25h2.25zm0-4.51h-2.25v2.25h2.25zM0 30.03c0 1.17.95 2.12 2.12 2.12h7.62v-5.13H0v3Zm31.26 2.12h6.61c1.17 0 2.12-.95 2.12-2.12v-3h-8.74v5.13ZM16.63 40h7.75v-4.35h-7.75zm0-18.33v6.72h7.75v-6.72zm10 7.6c0 .76-.62 1.37-1.37 1.37h-9.5c-.76 0-1.37-.62-1.37-1.37v-7.59H12v18.33h2.39v-4.84c0-.99.86-1.77 1.96-1.77h8.33c1.1 0 1.96.78 1.96 1.77v4.84h2.39V21.68h-2.39v7.59Z"/>
</svg>
