<svg viewBox="0 0 64 64" xmlns="http://www.w3.org/2000/svg">
  <path d="M53.58 8.59h2.75v2.75h-2.75zm0 8.23h2.75v-2.75h-2.75zm0 5.45h2.75v-2.75h-2.75zM63.99 7.58v40.93c0 1.31-1.06 2.37-2.37 2.37h-13.6v13.14h-2.75V34.09h-3.95V46.9c0 .9-.73 1.62-1.62 1.62H24.13c-.9 0-1.62-.73-1.62-1.62V34.09h-3.95v29.93h-2.75V50.88H2.37C1.06 50.88 0 49.82 0 48.51V7.58C0 3.48 3.58.02 7.84.02h48.57c4.18 0 7.58 3.39 7.58 7.56M15.8 48.13v-5.5H2.74v5.5zm22.78-14.04H25.25v11.69h13.33zm22.66 8.54H48.02v5.5h13.22zm0-35.05c0-2.65-2.17-4.81-4.83-4.81H7.84c-2.76 0-5.1 2.2-5.1 4.81v32.31H15.8v-5.8h-3.98c-.76 0-1.37-.61-1.37-1.37s.61-1.37 1.37-1.37H52c.76 0 1.37.61 1.37 1.37s-.61 1.37-1.37 1.37h-3.98v5.8h13.22zM38.61 53.83h-13.4c-1.52 0-2.71 1.06-2.71 2.4v7.78h2.75v-7.44h13.33v7.44h2.75v-7.78c0-1.35-1.19-2.4-2.71-2.4Zm4.06-44.68v16.02H14.54V9.15c0-1.03.84-1.87 1.87-1.87h24.38c1.03 0 1.87.84 1.87 1.87Zm-2.75.87H17.29v12.4h22.63z"/>
</svg>
