<svg viewBox="0 0 32 32" xmlns="http://www.w3.org/2000/svg">
  <path d="M28.21 6.16h-2v-2h2zm0 2.01h-2v2h2zm3.8-4.09v19.79c0 1.1-.9 2-2 2h-5.39V32h-2V17.47h-1.71v5.94c0 .69-.56 1.25-1.25 1.25h-7.5c-.69 0-1.25-.56-1.25-1.25v-5.94H9.2V32h-2v-6.13H2.02c-1.11 0-2.01-.9-2.01-2V4.08C.01 1.83 1.85 0 4.1 0h23.83c2.25 0 4.09 1.83 4.09 4.08ZM7.2 23.87v-2.11H2.02v2.11h5.19Zm11.72-6.41h-6v5.19h6zm8.28-1c0 .55-.45 1-1 1h-1.57v2.3h5.39V4.08c0-1.15-.93-2.08-2.08-2.08H4.1c-1.15 0-2.08.93-2.08 2.08v15.68h5.19v-2.3H5.64c-.55 0-1-.45-1-1s.45-1 1-1h20.57c.55 0 1 .45 1 1Zm2.81 7.41v-2.11h-5.39v2.11zm-10.76 2.81h-6.67c-.92 0-1.67.68-1.67 1.51V32h2v-3.32h6V32h2v-3.81c0-.83-.75-1.51-1.67-1.51Zm2.47-20.87v6.75H7.11V5.81c0-.83.67-1.5 1.5-1.5h11.61c.83 0 1.5.67 1.5 1.5m-2 .5H9.11v4.25h10.61z"/>
</svg>
