<svg viewBox="0 0 48 48" xmlns="http://www.w3.org/2000/svg">
  <path d="M39.79 6.41h2.5v2.5h-2.5zm0 7.92h2.5v-2.5h-2.5zm0 5.41h2.5v-2.5h-2.5zm8.22-13.87v30.34c0 1.24-1.01 2.25-2.25 2.25h-9.52V48h-2.5V25.86h-2.5v9.29c0 .83-.67 1.5-1.5 1.5h-11.5c-.83 0-1.5-.67-1.5-1.5v-9.29h-2.5V48h-2.5v-9.54H2.26C1.02 38.46 0 37.45 0 36.21V5.87C0 2.69 2.79 0 6.08 0h36.04C45.36 0 48 2.63 48 5.87ZM11.75 35.96V32.3H2.51v3.66h9.25Zm16.99-10.1h-9.5v8.29h9.5zm16.77 6.44h-9.27v3.66h9.27zm0-26.43a3.38 3.38 0 0 0-3.38-3.37H6.08C4.17 2.5 2.5 4.08 2.5 5.87v23.92h9.25v-3.94H9a1.25 1.25 0 0 1 0-2.5h29.99a1.25 1.25 0 0 1 0 2.5h-2.75v3.94h9.27zm-16.52 34.3h-10c-1.26 0-2.25.89-2.25 2.02v5.82h2.5v-5.34h9.5v5.34h2.5v-5.82c0-1.13-.99-2.02-2.25-2.02m3.31-33v11.32H10.86V7.17c0-.96.78-1.75 1.75-1.75h17.94c.96 0 1.75.79 1.75 1.75m-2.5.75H13.36v8.07H29.8z"/>
</svg>
