<svg viewBox="0 0 24 24" xmlns="http://www.w3.org/2000/svg">
  <path d="M9.87 21.59h4.25v2.4H9.87zm0-8.86v4.12h4.25v-4.12zm6 4.74c0 .62-.5 1.12-1.13 1.12h-5.5c-.62 0-1.13-.5-1.13-1.12v-4.74h-1v11.26h1V21.1c0-.69.62-1.26 1.38-1.26h5c.76 0 1.38.56 1.38 1.26v2.89h1V12.73h-1zM24 3.17v10.99h-5.38v-.93h1.04c.48 0 .88-.39.88-.87s-.39-.87-.88-.87H4.32c-.48 0-.88.39-.88.87s.39.87.88.87h1.04v.93H0V3.17A3.18 3.18 0 0 1 3.18 0h17.65a3.18 3.18 0 0 1 3.18 3.17Zm-7.54.91c0-.76-.62-1.37-1.38-1.37H6.67c-.76 0-1.38.62-1.38 1.37v5.04h11.16V4.08Zm5.08 2.5h-1.75v1.75h1.75zm0-3.98h-1.75v1.75h1.75zM7.05 7.37h7.66V4.46H7.05zM0 16.49v1.19c0 1.03.84 1.87 1.88 1.87h3.49v-3.64H0v.57Zm18.62 3.06h3.51c1.03 0 1.88-.84 1.88-1.87v-1.77h-5.38v3.64Z"/>
</svg>
