<svg viewBox="0 0 32 32" xmlns="http://www.w3.org/2000/svg">
  <path d="M16.56 3.76h1.76L16.9 4.84l.54 1.75-1.42-1.08-1.42 1.08.54-1.75-1.42-1.08h1.76l.54-1.75zm3.88 4.41 1.42-1.08 1.42 1.08-.54-1.75 1.42-1.08H22.4l-.54-1.75-.54 1.75h-1.76l1.42 1.08zM8.73 8.15l1.42-1.08 1.42 1.08-.54-1.75 1.42-1.08h-1.76l-.54-1.75-.54 1.75H7.85L9.27 6.4zM5 10.69l-.54 1.75 1.42-1.08 1.42 1.08-.54-1.75 1.42-1.08H6.42l-.54-1.75-.54 1.75H3.58l1.08.83.34.26Zm20.27 0-.54 1.75 1.42-1.08 1.42 1.08-.54-1.75 1.42-1.08h-1.76l-.54-1.75-.54 1.75h-1.76zM4.31 17.21l1.42 1.08-.54-1.75 1.42-1.08H4.85l-.54-1.75-.54 1.75H2.01l1.42 1.08-.54 1.75zm24.28-.67 1.42-1.08h-1.76l-.54-1.75-.54 1.75h-1.76l1.42 1.08-.54 1.75 1.42-1.08 1.42 1.08zM6.76 22.39l1.42-1.08H6.42l-.54-1.75-.54 1.75H3.58L5 22.39l-.54 1.75 1.42-1.08 1.42 1.08zm19.94-1.08-.54-1.75-.54 1.75h-1.76l1.42 1.08-.54 1.75 1.42-1.08 1.42 1.08-.54-1.75 1.42-1.08zm-16 4.28-.54-1.75-.54 1.75H7.86l1.42 1.08-.54 1.75 1.42-1.08 1.42 1.08-.54-1.75 1.42-1.08zm7.61 1.57h-1.76l-.54-1.75-.54 1.75h-1.76l1.42 1.08-.54 1.75 1.42-1.08 1.08.83.34.26-.37-1.21-.17-.54 1.42-1.08Zm4.09-1.57-.54-1.75-.54 1.75h-1.76l1.42 1.08-.54 1.75 1.42-1.08 1.42 1.08-.54-1.75 1.42-1.08z"/>
</svg>
