<svg viewBox="0 0 64 64" xmlns="http://www.w3.org/2000/svg">
  <path d="M33.09 7.5h3.51l-2.84 2.17 1.08 3.51L32 11.01l-2.84 2.17 1.08-3.51L27.4 7.5h3.51l1.08-3.51 1.08 3.51Zm7.77 8.82 2.84-2.17 2.84 2.17-1.08-3.51 2.84-2.17h-3.51l-1.08-3.51-1.08 3.51h-3.51l2.84 2.17-1.08 3.51Zm-23.42-.02 2.84-2.17 2.84 2.17-1.08-3.51 2.84-2.17h-3.51l-1.08-3.51-1.08 3.51H15.7l2.84 2.17-1.08 3.51Zm-8.55 8.58 2.84-2.17 2.84 2.17-1.08-3.51 2.84-2.17h-3.51l-1.08-3.51-1.08 3.51H7.15l2.84 2.17-1.08 3.51Zm38.78-5.67 2.84 2.17-1.08 3.51 2.84-2.17 2.84 2.17-1.08-3.51 2.84-2.17h-3.51l-1.08-3.51-1.08 3.51h-3.51ZM8.6 34.42l2.84 2.17-1.08-3.51 2.84-2.17H9.69L8.61 27.4l-1.08 3.51H4.02l2.84 2.17-1.08 3.51 2.84-2.17ZM60 30.91h-3.51l-1.08-3.51-1.08 3.51h-3.51l2.84 2.17-1.08 3.51 2.84-2.17 2.84 2.17-1.08-3.51 2.84-2.17Zm-43.67 11.7h-3.51l-1.08-3.51-1.08 3.51H7.15l2.84 2.17-1.08 3.51 2.84-2.17 2.84 2.17-1.08-3.51 2.84-2.17Zm37.04 0-1.08-3.51-1.08 3.51H47.7l2.84 2.17-1.08 3.51 2.84-2.17 2.84 2.17-1.08-3.51 2.84-2.17h-3.51Zm-31.99 8.57-1.08-3.51-1.08 3.51h-3.51l2.84 2.17-1.08 3.51 2.84-2.17 2.84 2.17-1.08-3.51 2.84-2.17H21.4Zm11.7 3.14L32 50.81l-1.08 3.51h-3.51l2.84 2.17L29.17 60l2.84-2.17L34.85 60l-1.08-3.51 2.84-2.17H33.1Zm11.69-3.15-1.08-3.51-1.08 3.51H39.1l2.84 2.17-1.08 3.51 2.84-2.17 2.84 2.17-1.08-3.51 2.84-2.17h-3.51Z"/>
</svg>
