<svg viewBox="0 0 48 48" xmlns="http://www.w3.org/2000/svg">
  <path d="m27.45 5.64-2.13 1.63.81 2.63L24 8.27 21.87 9.9l.81-2.63-2.13-1.63h2.63l.81-2.63.81 2.63h2.63Zm3.2 6.62 2.13-1.63 2.13 1.63-.81-2.63L36.23 8H33.6l-.81-2.63L31.98 8h-2.63l2.13 1.63-.81 2.63Zm-17.57-.02 2.13-1.63 2.13 1.63-.81-2.63 2.13-1.63h-2.63l-.81-2.63-.81 2.63h-2.63l2.13 1.63-.81 2.63Zm-6.41 6.43 2.13-1.63 2.13 1.63-.81-2.63 2.13-1.63H9.62l-.81-2.63L8 14.41H5.37l2.13 1.63-.81 2.63Zm31.22-2.62-.81 2.63 2.13-1.63 2.13 1.63-.81-2.63 2.13-1.63h-2.63l-.81-2.63-.81 2.63h-2.63l2.13 1.63ZM6.45 25.83l2.13 1.63-.81-2.63L9.9 23.2H7.27l-.81-2.63-.81 2.63H3.02l2.13 1.63-.81 2.63 2.13-1.63ZM45 23.19h-2.63l-.81-2.63-.81 2.63h-2.63l2.13 1.63-.81 2.63 2.13-1.63 2.13 1.63-.81-2.63 2.13-1.63ZM10.12 33.6l2.13-1.63H9.62l-.81-2.63L8 31.97H5.37L7.5 33.6l-.81 2.63 2.13-1.63 2.13 1.63-.81-2.63Zm32.54-1.63h-2.63l-.81-2.63-.81 2.63h-2.63l2.13 1.63-.81 2.63 2.13-1.63 2.13 1.63-.81-2.63 2.13-1.63ZM16.04 38.4l-.81-2.63-.81 2.63h-2.63l2.13 1.63-.81 2.63 2.13-1.63 1.21.92.92.7-.81-2.63 2.13-1.63h-2.63Zm11.4 2.35h-2.63L24 38.12l-.81 2.63h-2.63l2.13 1.63-.81 2.63 2.13-1.63 2.13 1.63-.81-2.63 2.13-1.63Zm8.77-2.36h-2.63l-.81-2.63-.81 2.63h-2.63l2.13 1.63-.81 2.63 2.13-1.63 2.13 1.63-.81-2.63 2.13-1.63Z"/>
</svg>
