<svg viewBox="0 0 40 40" xmlns="http://www.w3.org/2000/svg">
  <path d="M20.68 4.69h2.19l-1.78 1.36.68 2.19L20 6.88l-1.77 1.36.68-2.19-1.77-1.36h2.19l.68-2.19.68 2.19Zm4.86 5.51 1.77-1.36 1.77 1.36-.68-2.19 1.77-1.36h-2.19l-.68-2.19-.68 2.19h-2.19l1.78 1.36-.68 2.19Zm-14.64-.01 1.77-1.36 1.77 1.36L13.76 8l1.77-1.36h-2.19l-.68-2.19-.68 2.19H9.79L11.56 8l-.68 2.19Zm-5.34 5.36 1.77-1.36 1.77 1.36-.68-2.19L10.19 12H8l-.68-2.19L6.64 12H4.45l1.78 1.36-.68 2.19Zm26.01-2.19-.68 2.19 1.78-1.36 1.77 1.36-.68-2.19L35.53 12h-2.19l-.68-2.19-.68 2.19h-2.19l1.77 1.36Zm-26.2 8.16 1.77 1.36-.68-2.19 1.77-1.36H6.04l-.68-2.19-.68 2.19H2.49l1.77 1.36-.68 2.19 1.78-1.36Zm32.13-2.2h-2.19l-.68-2.19-.68 2.19h-2.19l1.78 1.36-.68 2.19 1.77-1.36 1.77 1.36-.68-2.19 1.77-1.36Zm-27.29 7.31H8.02l-.68-2.19-.68 2.19H4.47l1.78 1.36-.68 2.19 1.77-1.36 1.77 1.36-.68-2.19 1.77-1.36Zm23.15.01-.68-2.19-.68 2.19h-2.19L31.58 28l-.68 2.19 1.78-1.36 1.77 1.36-.68-2.19 1.77-1.36h-2.19Zm-20 5.35-.68-2.19-.68 2.19H9.81l1.77 1.36-.68 2.19 1.77-1.36 1.77 1.36-.68-2.19 1.78-1.36h-2.19Zm7.31 1.96-.68-2.19-.68 2.19h-2.19l1.78 1.36-.68 2.19 1.77-1.36 1.77 1.36-.68-2.19 1.77-1.36h-2.19Zm7.31-1.97-.68-2.19-.68 2.19h-2.19l1.78 1.36-.68 2.19 1.77-1.36 1.77 1.36-.68-2.19 1.77-1.36h-2.19Z"/>
</svg>
