<svg viewBox="0 0 16 16" xmlns="http://www.w3.org/2000/svg">
  <path d="M2.97 2.88C2.97 1.31 4.26.03 5.84.03s2.87 1.28 2.87 2.86-1.29 2.86-2.87 2.86-2.87-1.28-2.87-2.86Zm3.58 8.94c0 .15.03.28.04.43H0V9.31c0-1.78 1.45-3.22 3.22-3.22h5.29c.43 0 .84.09 1.22.24v.7c-1.86.8-3.17 2.64-3.17 4.78ZM4.22 9.3h-1.5v2.94h1.5zM16 11.82c0 2.32-1.89 4.21-4.22 4.21s-4.22-1.89-4.22-4.21c0-1.92 1.3-3.52 3.07-4.03V6.46h2.32v1.33c.45.13.87.32 1.25.58l.25-.25c.29-.29.77-.29 1.06 0s.29.77 0 1.06l-.25.25c.48.68.76 1.5.76 2.4Zm-3.05-.84a.754.754 0 0 0-1.06 0l-.17.17-.49-.49c-.29-.29-.77-.29-1.06 0s-.29.77 0 1.06l1.02 1.01c.15.15.34.22.53.22s.38-.07.53-.22l.7-.7c.29-.29.29-.77 0-1.06Z"/>
</svg>
