<svg viewBox="0 0 40 40" xmlns="http://www.w3.org/2000/svg">
  <path d="M7.71 6.63c0-3.64 2.97-6.61 6.63-6.61s6.63 2.97 6.63 6.62-2.97 6.62-6.63 6.62-6.63-2.97-6.63-6.62Zm17.67 12.64v-2.24a7.5 7.5 0 0 0-4.11-1.22H7.53c-4.16-.01-7.54 3.37-7.54 7.52v7.66h6.97v-7.66h2.25v7.66h9.15q-.06-.555-.06-1.11c0-4.77 2.92-8.87 7.07-10.61Zm14.61 10.61c0 5.59-4.55 10.13-10.15 10.13s-10.15-4.55-10.15-10.13c0-5.21 3.96-9.51 9.02-10.07v-1.68h-1.88v-2.25h6.02v2.25h-1.88v1.68c1.95.22 3.74.99 5.2 2.16l1.15-1.14c.44-.44 1.15-.44 1.59 0s.44 1.15 0 1.59l-1.15 1.14c1.39 1.73 2.23 3.93 2.23 6.32m-7.16-1.72c-.44-.44-1.15-.44-1.59 0l-1.45 1.45-2.47-2.47c-.44-.44-1.16-.44-1.59 0-.44.44-.44 1.15 0 1.59L29 32c.22.22.51.33.8.33s.58-.11.8-.33l2.25-2.25c.44-.44.44-1.15 0-1.59Z"/>
</svg>
