<svg viewBox="0 0 64 64" xmlns="http://www.w3.org/2000/svg">
  <path d="M22.8 20.56c5.68 0 10.3-4.61 10.3-10.28S28.48 0 22.8 0 12.5 4.61 12.5 10.28s4.62 10.28 10.3 10.28m0-17.81c4.16 0 7.55 3.38 7.55 7.54s-3.39 7.54-7.55 7.54-7.55-3.38-7.55-7.54 3.39-7.54 7.55-7.54M12.5 37.38h2.75v12.44H12.5zm21.55-9.02h-22.3c-4.98 0-9.04 4.05-9.04 9.02v12.44H-.03V37.38c0-6.49 5.29-11.77 11.79-11.77h22.3c2.47 0 4.77.77 6.67 2.08v3.63a9.02 9.02 0 0 0-6.67-2.96Zm26.15 9.36 2.15-2.14c.54-.54.54-1.41 0-1.94-.54-.54-1.41-.54-1.95 0l-2.15 2.14a15.86 15.86 0 0 0-8.93-3.69v-2.34h3.51V27h-9.76v2.75h3.51v2.34c-8.19.7-14.64 7.57-14.64 15.92 0 8.82 7.19 15.99 16.02 15.99s16.02-7.17 16.02-15.99c0-3.92-1.42-7.5-3.77-10.28ZM47.95 61.25c-7.32 0-13.27-5.94-13.27-13.25s5.95-13.25 13.27-13.25S61.22 40.69 61.22 48s-5.95 13.25-13.27 13.25m4.53-15.72c.54.54.54 1.41 0 1.94l-3.65 3.64c-.27.27-.62.4-.97.4s-.7-.13-.97-.4l-5.31-5.3c-.54-.54-.54-1.41 0-1.94.54-.54 1.41-.54 1.95 0l4.34 4.33 2.68-2.67c.54-.54 1.41-.54 1.94 0Z"/>
</svg>
