<svg viewBox="0 0 16 16" xmlns="http://www.w3.org/2000/svg">
  <path d="M5.84 5.73c1.58 0 2.87-1.28 2.87-2.86S7.42.01 5.84.01 2.97 1.29 2.97 2.87s1.29 2.86 2.87 2.86m0-4.22c.75 0 1.37.61 1.37 1.36S6.6 4.23 5.84 4.23s-1.37-.61-1.37-1.36.61-1.36 1.37-1.36M2.97 9.29h1.5v2.94h-1.5zm.25-1.72c-.95 0-1.72.77-1.72 1.71v2.94H0V9.28c0-1.76 1.45-3.2 3.22-3.2h5.29c.63 0 1.21.19 1.7.5v.55c-.41.14-.81.31-1.16.54a1.6 1.6 0 0 0-.54-.09H3.22Zm12.02 1.84.25-.25c.29-.29.29-.77 0-1.06s-.77-.29-1.06 0l-.25.25c-.37-.26-.8-.45-1.25-.58V6.44h-2.32v1.33c-1.76.51-3.07 2.11-3.07 4.03 0 2.32 1.89 4.21 4.22 4.21s4.22-1.89 4.22-4.21c0-.89-.28-1.71-.76-2.4Zm-3.46 5.11a2.72 2.72 0 0 1-2.72-2.71 2.72 2.72 0 0 1 5.44 0 2.72 2.72 0 0 1-2.72 2.71m1.17-3.56c.29.29.29.77 0 1.06l-.7.7c-.15.15-.34.22-.53.22s-.38-.07-.53-.22l-1.02-1.01c-.29-.29-.29-.77 0-1.06s.77-.29 1.06 0l.49.49.17-.17c.29-.29.77-.29 1.06 0Z"/>
</svg>
