<svg viewBox="0 0 48 48" xmlns="http://www.w3.org/2000/svg">
  <path d="M17.16 15.74c4.34 0 7.88-3.53 7.88-7.86S21.51 0 17.16 0 9.28 3.53 9.28 7.86s3.53 7.86 7.88 7.86Zm0-13.24c2.97 0 5.38 2.41 5.38 5.38s-2.41 5.38-5.38 5.38-5.38-2.41-5.38-5.38 2.41-5.38 5.38-5.38M9.29 28.01h2.49v9.24H9.29zm16.23-6.48H8.96c-3.58 0-6.49 2.91-6.49 6.48v9.24H-.02v-9.24c0-4.95 4.02-8.97 8.98-8.97h16.56c1.83 0 3.53.55 4.95 1.5v3.15s-.06.03-.09.04a6.47 6.47 0 0 0-4.86-2.2m19.73 6.75 1.45-1.45c.49-.49.49-1.27 0-1.76s-1.28-.49-1.76 0l-1.45 1.45a12 12 0 0 0-6.39-2.65v-2.24h2.38v-2.49h-7.25v2.49h2.38v2.24c-6.1.63-10.88 5.79-10.88 12.04 0 6.68 5.44 12.11 12.12 12.11s12.13-5.43 12.13-12.11c0-2.89-1.02-5.54-2.72-7.63Zm-9.4 17.24c-5.31 0-9.63-4.31-9.63-9.62s4.32-9.62 9.63-9.62 9.63 4.31 9.63 9.62-4.32 9.62-9.63 9.62m3.52-11.62c.49.49.49 1.27 0 1.76l-2.71 2.71c-.24.24-.56.36-.88.36s-.64-.12-.88-.36l-3.95-3.94c-.49-.49-.49-1.27 0-1.76s1.28-.49 1.76 0l3.06 3.06 1.83-1.83c.49-.49 1.28-.49 1.76 0Z"/>
</svg>
