<svg viewBox="0 0 48 48" xmlns="http://www.w3.org/2000/svg">
  <path d="M9.29 7.87C9.29 3.54 12.82 0 17.16 0s7.88 3.53 7.88 7.86-3.53 7.86-7.88 7.86-7.88-3.53-7.88-7.86Zm21.19 15.54v-2.88a8.94 8.94 0 0 0-4.95-1.5H8.96C4 19.04-.02 23.06-.02 28.01v9.24h8.31v-9.24h2.49v9.24h11.51c-.04-.44-.07-.89-.07-1.34 0-5.59 3.4-10.41 8.25-12.49Zm17.5 12.49c0 6.68-5.44 12.11-12.13 12.11S23.73 42.58 23.73 35.9c0-6.26 4.78-11.42 10.88-12.04v-2.24h-2.38v-2.49h7.25v2.49H37.1v2.24c2.41.25 4.61 1.2 6.39 2.65l1.45-1.45c.49-.49 1.28-.49 1.76 0s.49 1.27 0 1.76l-1.45 1.45c1.7 2.08 2.72 4.74 2.72 7.63Zm-8.61-2c-.49-.49-1.28-.49-1.76 0l-1.83 1.83-3.06-3.06c-.49-.49-1.28-.49-1.76 0s-.49 1.27 0 1.76l3.95 3.94c.24.24.56.36.88.36s.64-.12.88-.36l2.71-2.71c.49-.49.49-1.27 0-1.76Z"/>
</svg>
