<svg viewBox="0 0 48 48" xmlns="http://www.w3.org/2000/svg">
  <path d="M38.52 38.21c0 2.34-1.9 4.24-4.22 4.24s-4.23-1.9-4.23-4.24c0-.08.02-.15.02-.23.06-1.11.54-2.11 1.29-2.84a.3.3 0 0 0 .08-.07c.17-.15.34-.29.52-.42.07-.05.15-.08.22-.12.15-.09.31-.18.47-.25.13-.06.28-.09.42-.13.12-.04.23-.08.35-.11.27-.05.55-.08.83-.08s.56.03.83.08c.12.02.24.07.35.11.14.04.28.07.42.13.17.07.32.16.47.25.07.04.15.07.22.12.19.12.36.27.52.42.03.02.06.04.08.07.81.77 1.32 1.86 1.32 3.07ZM8.21 8.85h-4.6v2.5H8.2v-2.5Zm-4.6 29.13H8.2v-2.5H3.61zm44.34-15.81v10.04c0 3.19-2.58 5.78-5.76 5.78H41c-.12-3.61-3.08-6.52-6.7-6.52s-6.58 2.9-6.7 6.52H11.36v-8.57H-.05v-2.5h11.41v-6.56H3.61v-2.5h7.74V8.85h25.6l10.99 13.32Zm-31.67 4.74h-4.92v2.5h4.92zm0-9.06h-4.92v2.5h4.92zm7.39 4.53h-4.51v2.5h4.51zm20.35-1.01-8.23-10.02h-2.28v9.76c0 .14.12.26.26.26h10.26Z"/>
</svg>
