<svg viewBox="0 0 40 40" xmlns="http://www.w3.org/2000/svg">
  <path d="M9.49 16.15H3.05V13.9h6.44zm-2.62-9.7H3.05V8.7h3.82zm-3.82 24.3h3.82V28.5H3.05zm6.44-9.35H0v2.25h9.49zm19.97 5.77c-1.92 0-3.49 1.56-3.49 3.49s1.56 3.49 3.49 3.49 3.49-1.56 3.49-3.49-1.56-3.49-3.49-3.49M40 17.53v8.34c0 2.66-2.15 4.83-4.8 4.87v-.08c0-3.16-2.57-5.74-5.74-5.74s-5.74 2.57-5.74 5.74v.08H9.48v-7.09h4.09V21.4H9.48v-5.25h4.09V13.9H9.48V6.45H30.8l.44.54 8.74 10.55Zm-20.28.12h-3.75v2.25h3.75zm16.73-.84-6.7-8.11h-1.77v7.99c0 .07.06.12.13.12z"/>
</svg>
