<svg viewBox="0 0 64 64" xmlns="http://www.w3.org/2000/svg">
  <path d="M10.95 14.03H4.8v-2.75h6.15zM4.8 49.77h6.15v-2.75H4.8zm41.39-6.47c-3.29 0-5.97 2.7-5.97 6.01s2.68 6.01 5.97 6.01 5.97-2.7 5.97-6.01-2.68-6.01-5.97-6.01m17.7-14.34v13.35c0 4.11-3.33 7.45-7.41 7.45h-1.6c0-.15.02-.3.02-.45 0-4.83-3.91-8.76-8.71-8.76s-8.71 3.93-8.71 8.76c0 .15.02.3.02.45H15.18V38.27H-.11v-2.75h15.28v-9.41H4.8v-2.75h10.37V11.27h34.15l.44.54zm-42.12 6.56h-6.59v2.75h6.59zm0-12.16h-6.59v2.75h6.59zm9.9 6.08h-6.04v2.75h6.04zm27.88-1.36L48.02 14.03h-3.49v13.4c0 .36.29.65.64.65z"/>
</svg>
