<svg viewBox="0 0 24 24" xmlns="http://www.w3.org/2000/svg">
  <path d="m18.59 4.23-.22-.26H5.48v1.75h9.55v4.59c0 .9.73 1.62 1.63 1.62h5.59v3.88c0 .76-.62 1.38-1.38 1.38h-.52c-.48-1.12-1.59-1.91-2.88-1.91s-2.4.79-2.88 1.91H5.48v1.75h8.92c.26 1.47 1.53 2.59 3.07 2.59s2.82-1.12 3.07-2.59h.33c1.72 0 3.13-1.4 3.13-3.12v-5.07l-5.4-6.51Zm-1.12 15.56c-.76 0-1.38-.62-1.38-1.38s.62-1.38 1.38-1.38 1.38.62 1.38 1.38-.62 1.38-1.38 1.38m-.69-9.6V5.72h.77l3.69 4.47zm-8.85 0H1.72V8.44h6.21zM3.98 5.72H1.72V3.97h2.25v1.75ZM1.72 17.2h2.25v1.75H1.72zm9.9-6.51v1.75H9.37v-1.75zm-3.69 4H0v-1.75h7.94v1.75Z"/>
</svg>
