<svg viewBox="0 0 40 40" xmlns="http://www.w3.org/2000/svg">
  <path d="m31.25 7.5-.44-.54H9.49v2.25h16.25v7.99c0 1.31 1.07 2.38 2.38 2.38h9.64v6.81c0 1.45-1.18 2.62-2.63 2.62h-1.11c-.69-1.85-2.46-3.18-4.55-3.18s-3.86 1.33-4.55 3.18H9.5v2.25h15.16c.28 2.42 2.32 4.32 4.82 4.32s4.54-1.9 4.82-4.32h.84c2.69 0 4.88-2.19 4.88-4.88v-8.34L31.28 7.49Zm-1.79 25.82c-1.45 0-2.63-1.18-2.63-2.62a2.631 2.631 0 0 1 5.26 0c0 1.44-1.18 2.62-2.63 2.62m-1.35-16c-.07 0-.13-.06-.13-.12V9.21h1.77l6.7 8.11zm-14.53-.66H3.05v-2.25h10.53zM6.87 9.21H3.05V6.96h3.82zM3.05 29h3.82v2.25H3.05zm16.67-10.84v2.25h-3.75v-2.25zm-6.14 6H0v-2.25h13.58z"/>
</svg>
