<svg viewBox="0 0 64 64" xmlns="http://www.w3.org/2000/svg">
  <path d="M63.55 30.98C63.16 30.09 53.64 9.24 32 9.24S.85 30.09.45 30.98L0 32l.45 1.02c.39.89 9.91 21.74 31.55 21.74S63.15 33.9 63.55 33.02L64 32zM32 49.75c-15.83 0-24.37-13.85-26.46-17.76C7.62 28.07 16.11 14.24 32 14.24S56.36 28.08 58.46 32C56.38 35.92 47.89 49.75 32 49.75m0-32.46c-8.11 0-14.7 6.6-14.7 14.71S23.9 46.7 32 46.7 46.7 40.1 46.7 32 40.1 17.29 32 17.29m-3.75 14.05c-2.02 0-3.66-1.64-3.66-3.66s1.64-3.66 3.66-3.66 3.66 1.64 3.66 3.66-1.64 3.66-3.66 3.66m9.12 7.9c-1.35 0-2.44-1.09-2.44-2.44s1.09-2.44 2.44-2.44 2.44 1.09 2.44 2.44-1.09 2.44-2.44 2.44"/>
</svg>
