<svg viewBox="0 0 32 32" xmlns="http://www.w3.org/2000/svg">
  <path d="M31.82 15.59c-.2-.45-4.97-10.91-15.82-10.91S.38 15.15.18 15.59L0 16l.18.41c.2.45 4.97 10.91 15.82 10.91s15.62-10.47 15.82-10.91L32 16zM16 25.32c-8.39 0-12.82-7.47-13.79-9.32C3.18 14.15 7.6 6.68 16 6.68S28.82 14.15 29.79 16c-.97 1.85-5.39 9.32-13.79 9.32m0-15.53a6.21 6.21 0 1 0 0 12.42 6.21 6.21 0 1 0 0-12.42m-1.91 5.88c-1.03 0-1.86-.83-1.86-1.86s.83-1.86 1.86-1.86 1.86.83 1.86 1.86-.83 1.86-1.86 1.86m4.64 4.02a1.24 1.24 0 1 1 0-2.48 1.24 1.24 0 0 1 0 2.48"/>
</svg>
