<svg viewBox="0 0 48 48" xmlns="http://www.w3.org/2000/svg">
  <path d="M24 12.77c-6.19 0-11.23 5.04-11.23 11.23S17.81 35.23 24 35.23 35.23 30.19 35.23 24 30.19 12.77 24 12.77m-2.76 10.75c-1.49 0-2.69-1.21-2.69-2.69s1.21-2.69 2.69-2.69 2.69 1.21 2.69 2.69-1.21 2.69-2.69 2.69m6.71 5.81c-.99 0-1.8-.8-1.8-1.8s.8-1.8 1.8-1.8 1.8.8 1.8 1.8-.8 1.8-1.8 1.8m19.64-6.25C47.3 22.42 40.18 6.83 24 6.83S.7 22.42.41 23.08L0 24l.41.92C.7 25.58 7.82 41.17 24 41.17s23.3-15.58 23.59-16.25L48 24zM24 36.65C12.66 36.65 6.63 27.07 4.99 24 6.63 20.93 12.66 11.35 24 11.35S41.37 20.93 43.01 24C41.37 27.07 35.34 36.65 24 36.65"/>
</svg>
