<svg viewBox="0 0 24 24" xmlns="http://www.w3.org/2000/svg">
  <path d="M23.84 11.74c-.15-.33-3.72-8.16-11.84-8.16S.31 11.41.16 11.74L0 12.1l.16.36c.15.33 3.72 8.16 11.84 8.16s11.69-7.83 11.84-8.16l.16-.36zM12 18.87c-6.05 0-9.3-5.33-10.06-6.77.77-1.44 4.01-6.77 10.06-6.77s9.3 5.33 10.06 6.77c-.77 1.44-4.01 6.77-10.06 6.77M12 7.5a4.6 4.6 0 1 0 .001 9.201A4.6 4.6 0 0 0 12 7.5m-1.42 4.35c-.76 0-1.38-.62-1.38-1.38s.62-1.38 1.38-1.38 1.38.62 1.38 1.38-.62 1.38-1.38 1.38m3.44 2.98c-.51 0-.92-.41-.92-.92s.41-.92.92-.92.92.41.92.92-.41.92-.92.92"/>
</svg>
