<svg viewBox="0 0 16 16" xmlns="http://www.w3.org/2000/svg">
  <path d="M15.77 7.49c-.1-.22-2.43-5.33-7.77-5.33S.32 7.27.23 7.49L0 8l.23.51c.1.22 2.43 5.33 7.77 5.33s7.68-5.11 7.77-5.33L16 8zM8 11.34c-2.91 0-4.6-2.29-5.21-3.34C3.41 6.95 5.1 4.66 8 4.66S12.59 6.95 13.21 8c-.62 1.05-2.31 3.34-5.21 3.34m0-6.36C6.34 4.98 4.98 6.33 4.98 8S6.33 11.02 8 11.02 11.02 9.67 11.02 8 9.67 4.98 8 4.98m-.85 2.87c-.46 0-.83-.37-.83-.83s.37-.83.83-.83.83.37.83.83-.37.83-.83.83m2.07 1.79c-.31 0-.55-.25-.55-.55s.25-.55.55-.55.55.25.55.55-.25.55-.55.55"/>
</svg>
