<svg viewBox="0 0 48 48" xmlns="http://www.w3.org/2000/svg">
  <path d="M47.77 23.5c-.3-.67-7.48-16.41-23.77-16.41S.52 22.83.23 23.5l-.23.51.23.51c.3.67 7.48 16.41 23.77 16.41s23.48-15.74 23.77-16.41l.23-.51zM24 38.42C10.91 38.42 4.11 26.62 2.76 24 4.11 21.38 10.91 9.58 24 9.58S43.89 21.38 45.24 24C43.9 26.62 37.12 38.42 24 38.42m0-23.85c-5.21 0-9.44 4.22-9.44 9.44s4.22 9.44 9.44 9.44 9.44-4.22 9.44-9.44-4.22-9.44-9.44-9.44m-2.9 8.93c-1.56 0-2.83-1.27-2.83-2.83s1.27-2.83 2.83-2.83 2.83 1.27 2.83 2.83-1.27 2.83-2.83 2.83m7.05 6.11c-1.04 0-1.89-.84-1.89-1.89s.85-1.89 1.89-1.89 1.89.84 1.89 1.89-.85 1.89-1.89 1.89"/>
</svg>
