<svg viewBox="0 0 40 40" xmlns="http://www.w3.org/2000/svg">
  <path d="M20 10.51c-5.2 0-9.43 4.23-9.43 9.43s4.23 9.43 9.43 9.43 9.43-4.23 9.43-9.43-4.23-9.43-9.43-9.43m-2.28 9.04c-1.23 0-2.23-1-2.23-2.23s1-2.23 2.23-2.23 2.23 1 2.23 2.23-1 2.23-2.23 2.23m5.54 4.8c-.82 0-1.48-.66-1.48-1.48s.66-1.48 1.48-1.48 1.48.66 1.48 1.48-.66 1.48-1.48 1.48m16.38-5.22C39.39 18.58 33.48 5.61 20 5.61S.61 18.58.36 19.13l-.36.82.36.82c.25.55 6.16 13.52 19.64 13.52s19.39-12.97 19.64-13.52l.36-.82zM20 30.26c-9.22 0-14.16-7.73-15.55-10.31C5.85 17.36 10.79 9.64 20 9.64s14.16 7.72 15.55 10.31c-1.4 2.59-6.34 10.31-15.55 10.31"/>
</svg>
