<svg viewBox="0 0 40 40" xmlns="http://www.w3.org/2000/svg">
  <path d="m23.5 29.81 3.23 3.23c-1.99.73-4.22 1.18-6.72 1.18C6.57 34.22.67 21.31.42 20.76l-.36-.81.36-.81c.13-.28 1.76-3.85 5.15-7.24l2.82 2.82c-2.01 2.01-3.3 4.11-3.9 5.23C5.88 22.52 10.81 30.22 20 30.22c1.24 0 2.4-.15 3.5-.4ZM20 9.67c9.19 0 14.11 7.69 15.51 10.27-.61 1.13-1.89 3.23-3.91 5.23l2.82 2.82c3.39-3.39 5.03-6.96 5.15-7.25l.36-.81-.36-.81c-.24-.55-6.14-13.46-19.58-13.46-2.5 0-4.74.45-6.72 1.18l3.23 3.23c1.09-.25 2.25-.4 3.5-.4m-2.64 1.27L29.02 22.6c.25-.84.39-1.73.39-2.65 0-5.18-4.22-9.39-9.4-9.39-.92 0-1.8.14-2.64.38Zm5.28 18.01L10.99 17.3c-.25.84-.39 1.73-.39 2.64 0 5.18 4.22 9.39 9.4 9.39.92 0 1.8-.14 2.64-.38m16.7 7.16L3.85.61C2.97-.27 1.54-.27.66.61s-.88 2.3 0 3.18l35.49 35.5c.44.44 1.02.66 1.59.66a2.25 2.25 0 0 0 1.59-3.84Z"/>
</svg>
