<svg viewBox="0 0 32 32" xmlns="http://www.w3.org/2000/svg">
  <path d="m13.89 8.23-2.88-2.88c1.49-.5 3.15-.81 4.99-.81 10.73 0 15.44 10.32 15.64 10.76l.32.71-.32.71c-.1.22-1.3 2.86-3.8 5.47l-2.48-2.48c1.35-1.43 2.25-2.87 2.71-3.7-1.14-2.09-4.99-7.96-12.07-7.96-.74 0-1.44.08-2.11.19ZM16 23.96c-7.08 0-10.93-5.88-12.07-7.96.46-.84 1.36-2.27 2.71-3.7L4.16 9.82c-2.49 2.61-3.7 5.25-3.8 5.47L.04 16l.32.71c.2.44 4.9 10.76 15.64 10.76 1.84 0 3.5-.31 4.99-.81l-2.88-2.88c-.67.12-1.37.19-2.11.19ZM14.91 9.24l7.85 7.85c.06-.36.1-.72.1-1.1 0-3.78-3.07-6.85-6.85-6.85-.37 0-.74.04-1.09.1Zm2.19 13.52-7.85-7.85c-.06.36-.1.72-.1 1.1 0 3.78 3.07 6.85 6.85 6.85.37 0 .74-.04 1.1-.1m14.31 5.82L3.42.58C2.63-.2 1.37-.2.58.58c-.78.79-.78 2.05 0 2.83l28 28c.39.39.9.59 1.42.59s1.02-.2 1.42-.59c.78-.78.78-2.05 0-2.83Z"/>
</svg>
