<svg viewBox="0 0 48 48" xmlns="http://www.w3.org/2000/svg">
  <path d="m15.12 11.6-1.9-1.9c3.02-1.56 6.6-2.6 10.79-2.6 16.29 0 23.47 15.73 23.76 16.4l.23.51-.23.51c-.18.41-2.92 6.4-8.71 11.02l-1.82-1.82c4.61-3.6 7.21-8.2 7.99-9.71C43.88 21.4 37.09 9.6 24 9.6c-3.38 0-6.33.79-8.88 2M24 38.42c-13.08 0-19.88-11.79-21.23-14.41.78-1.51 3.39-6.1 7.98-9.7l-1.82-1.82C3.15 17.11.42 23.09.24 23.5l-.23.51.23.51c.3.67 7.48 16.4 23.76 16.4 4.18 0 7.75-1.04 10.77-2.59l-1.9-1.9c-2.55 1.2-5.5 1.99-8.88 1.99Zm-4.67-22.61 12.86 12.86A9.427 9.427 0 0 0 24 14.57c-1.7 0-3.29.46-4.67 1.24m9.32 16.39L15.8 19.35A9.427 9.427 0 0 0 28.65 32.2M2.12.37C1.64-.12.84-.12.36.37s-.49 1.28 0 1.77l45.5 45.5c.24.24.56.37.88.37s.64-.12.88-.37c.49-.49.49-1.28 0-1.77z"/>
</svg>
