<svg viewBox="0 0 48 48" xmlns="http://www.w3.org/2000/svg">
  <path d="m19.11 12.03-3.59-3.59c2.49-.97 5.31-1.57 8.47-1.57 16.16 0 23.26 15.55 23.56 16.22l.41.91-.41.91c-.16.35-2.22 4.87-6.51 9.04l-3.19-3.19c2.69-2.59 4.38-5.36 5.13-6.77-1.64-3.07-7.66-12.63-18.98-12.63-1.76 0-3.38.25-4.89.65ZM24 36.63C12.67 36.63 6.65 27.07 5.02 24c.75-1.41 2.44-4.19 5.14-6.78l-3.19-3.19C2.66 18.21.6 22.74.44 23.09L.03 24l.41.91c.29.66 7.39 16.22 23.56 16.22 3.17 0 5.99-.61 8.49-1.58l-3.58-3.58c-1.51.4-3.14.66-4.9.66Zm-3.54-23.26 14.18 14.18c.37-1.12.58-2.31.58-3.55 0-6.18-5.03-11.21-11.22-11.21-1.24 0-2.43.21-3.54.58m7.1 21.25L13.38 20.44a11 11 0 0 0-.59 3.56c0 6.18 5.03 11.21 11.22 11.21 1.24 0 2.44-.21 3.56-.59Zm19.71 9.1-43-43C3.29-.26 1.71-.26.73.72s-.98 2.56 0 3.54l43 43c.49.49 1.13.73 1.77.73s1.28-.24 1.77-.73c.98-.98.98-2.56 0-3.54"/>
</svg>
