<svg viewBox="0 0 64 64" xmlns="http://www.w3.org/2000/svg">
  <path d="m23.48 15.7-3.9-3.9c3.59-1.55 7.71-2.54 12.41-2.54 21.61 0 31.12 20.83 31.51 21.71l.45 1.02-.45 1.02c-.22.49-3.28 7.2-9.69 13.02l-3.58-3.58c4.45-3.97 7.14-8.48 8.19-10.46-2.09-3.91-10.62-17.73-26.43-17.73-3.12 0-5.96.54-8.52 1.43ZM32 49.72c-15.81 0-24.34-13.83-26.43-17.73 1.05-1.98 3.74-6.48 8.18-10.45l-3.58-3.58C3.77 23.79.71 30.49.49 30.98L.04 32l.45 1.02c.39.89 9.9 21.71 31.51 21.71 4.7 0 8.82-.99 12.4-2.53l-3.9-3.9c-2.56.89-5.39 1.43-8.51 1.43Zm5.73-4.2L18.48 26.27c-.75 1.76-1.17 3.7-1.17 5.73 0 8.1 6.59 14.68 14.69 14.68 2.03 0 3.97-.42 5.73-1.16M26.26 18.48l19.26 19.26c.75-1.76 1.17-3.7 1.17-5.74 0-8.1-6.59-14.68-14.69-14.68-2.04 0-3.97.42-5.74 1.17Zm36.92 40.81L4.69.8a2.75 2.75 0 0 0-3.9 0 2.76 2.76 0 0 0 0 3.89l58.5 58.5c.54.54 1.24.81 1.95.81s1.41-.27 1.95-.81a2.74 2.74 0 0 0 0-3.89Z"/>
</svg>
