<svg viewBox="0 0 16 16" xmlns="http://www.w3.org/2000/svg">
  <path d="M6.16 4.04 4.99 2.87c.87-.37 1.87-.6 3-.6 5.4 0 7.77 5.2 7.87 5.43l.13.3-.13.3c-.05.12-.79 1.72-2.31 3.15l-1.06-1.06c.97-.9 1.58-1.9 1.84-2.39-.55-1.03-2.56-4.23-6.34-4.23-.67 0-1.28.1-1.84.27ZM8 12.23c-3.79 0-5.8-3.2-6.34-4.23.26-.49.87-1.49 1.84-2.39L2.44 4.55C.92 5.98.19 7.57.13 7.7L0 8l.13.3c.1.22 2.47 5.43 7.87 5.43 1.13 0 2.13-.24 3-.6l-1.17-1.17c-.56.17-1.17.27-1.83.27m.76-1.34L5.11 7.24c-.07.25-.11.5-.11.77 0 1.66 1.34 3 2.99 3 .27 0 .52-.05.76-.11ZM7.23 5.11l3.65 3.66c.07-.25.11-.5.11-.77 0-1.66-1.34-3-2.99-3-.27 0-.52.05-.77.11M1.29.22C1-.07.53-.07.23.22s-.29.77 0 1.06l14.47 14.5c.15.15.34.22.53.22s.38-.07.53-.22c.29-.29.29-.77 0-1.06z"/>
</svg>
