<svg viewBox="0 0 64 64" xmlns="http://www.w3.org/2000/svg">
  <path d="m19.38 15.5-2.03-2.03c4.09-2.21 8.96-3.72 14.65-3.72 21.53 0 31.32 21.48 31.42 21.69l.25.56-.25.56c-.06.14-3.92 8.6-12.07 14.91l-1.96-1.96c6.6-4.99 10.26-11.57 11.25-13.51-1.65-3.25-10.8-19.5-28.63-19.5-4.84 0-9.03 1.2-12.62 3.01ZM32 51.5C14.16 51.5 5.02 35.25 3.37 32c.98-1.94 4.65-8.52 11.23-13.5l-1.96-1.96C4.5 22.85.64 31.3.58 31.44L.33 32l.25.56c.1.22 9.89 21.69 31.42 21.69 5.69 0 10.55-1.51 14.63-3.72L44.6 48.5c-3.58 1.8-7.77 3-12.6 3m-6.73-30.11 17.34 17.34A12.5 12.5 0 0 0 44.58 32c0-6.94-5.63-12.57-12.58-12.57-2.48 0-4.78.73-6.73 1.97Zm13.45 21.22L21.38 25.27a12.5 12.5 0 0 0-1.96 6.72c0 6.94 5.63 12.57 12.58 12.57 2.47 0 4.77-.72 6.72-1.96ZM63.6 61.67 2.35.42C1.81-.12.94-.12.41.42c-.54.54-.54 1.41 0 1.94l61.25 61.25c.27.27.62.4.97.4s.7-.13.97-.4c.54-.54.54-1.41 0-1.94"/>
</svg>
