<svg viewBox="0 0 64 64" xmlns="http://www.w3.org/2000/svg">
  <path d="M4.95 7.5A7.496 7.496 0 0 1 13.22.04c1.01.1 1.96.4 2.81.87 1.28.69 2.33 1.74 3.02 3.02.46.85.76 1.8.87 2.81.03.25.04.51.04.77s-.01.51-.04.77c-.1 1.01-.4 1.96-.87 2.81a7.5 7.5 0 0 1-5.83 3.89 7.503 7.503 0 0 1-8.27-7.46ZM50.58 15c4.14 0 7.5-3.36 7.5-7.5S54.72 0 50.58 0s-7.5 3.36-7.5 7.5 3.36 7.5 7.5 7.5m6.35 1.57H45.2c-2.71 0-5.07 1.53-6.25 3.77 1.88 1.82 3.06 4.36 3.06 7.18 0 2.3-.79 4.41-2.11 6.1h3.3l.1 2.16c2.5 1.73 4.14 4.6 4.14 7.86v7.61h10.34l.78-17.63h5.45v-9.98c0-3.9-3.17-7.07-7.07-7.07ZM21.68 35.2l-.26-1.57h2.68c-1.31-1.69-2.11-3.8-2.11-6.1 0-2.82 1.18-5.36 3.06-7.18a7.08 7.08 0 0 0-6.25-3.77H7.07A7.07 7.07 0 0 0 0 23.65v9.98h4.07L1.21 51.26h15.35v-7.61c0-3.67 2.08-6.84 5.12-8.45m16.18 1.38H26.13a7.07 7.07 0 0 0-7.07 7.07v7.98h5.07L24.91 64H38.7l.78-12.37h5.45v-7.98c0-3.9-3.17-7.07-7.07-7.07M24.5 27.52c0 .52.05 1.02.15 1.51s.25.96.44 1.41a7.56 7.56 0 0 0 3.99 3.99c.45.19.92.34 1.41.44s.99.15 1.51.15 1.02-.05 1.51-.15.96-.25 1.41-.44a7.53 7.53 0 0 0 4.43-5.4c.1-.49.15-.99.15-1.51s-.05-1.02-.15-1.51-.25-.96-.44-1.41a7.56 7.56 0 0 0-3.99-3.99c-.45-.19-.92-.34-1.41-.44s-.99-.15-1.51-.15-1.02.05-1.51.15-.96.25-1.41.44a7.53 7.53 0 0 0-4.43 5.4c-.1.49-.15.99-.15 1.51"/>
</svg>
