<svg viewBox="0 0 48 48" xmlns="http://www.w3.org/2000/svg">
  <path d="M3.71 5.63C3.71 3.1 5.37.97 7.66.26c.18-.05.36-.1.54-.14.37-.07.75-.11 1.13-.11A5.4 5.4 0 0 1 11 .26a5.624 5.624 0 0 1-.54 10.88c-.37.07-.75.11-1.13.11A5.4 5.4 0 0 1 7.66 11a5.62 5.62 0 0 1-3.95-5.37m34.22 5.62c.19 0 .39 0 .58-.03.57-.06 1.11-.2 1.62-.41.17-.07.33-.15.49-.24.32-.17.62-.38.9-.61s.53-.48.76-.76.43-.58.61-.9c.43-.8.68-1.71.68-2.68s-.25-1.88-.68-2.68c-.17-.32-.38-.62-.61-.9s-.48-.53-.76-.76-.58-.43-.9-.61a5.4 5.4 0 0 0-2.11-.65 5.63 5.63 0 0 0-6.21 5.6 5.63 5.63 0 0 0 5.63 5.63m4.77 1.18h-8.8c-.73 0-1.43.15-2.06.42-1.04.44-1.9 1.21-2.47 2.16 1.54 1.44 2.52 3.48 2.52 5.75 0 1.66-.53 3.18-1.41 4.45h1.94l.05 1.17c2.1 1.34 3.5 3.68 3.5 6.35v5.71h7.38l.58-13.22h4.09v-7.49c0-2.93-2.37-5.3-5.3-5.3Zm-26.5 13.6-.13-.81h1.47a7.8 7.8 0 0 1-1.41-4.45c0-2.27.97-4.31 2.51-5.75-.93-1.54-2.6-2.59-4.53-2.59H5.3c-1.1 0-2.12.33-2.97.91A5.3 5.3 0 0 0 0 17.73v7.49h3.05L.91 38.44h11.14v-5.71c0-2.94 1.7-5.46 4.15-6.71Zm15.16 2.31c-.85-.57-1.87-.91-2.97-.91h-8.8c-2.93 0-5.3 2.37-5.3 5.3v5.99h3.8l.58 9.28h10.35l.58-9.28h4.09v-5.99c0-1.83-.93-3.44-2.34-4.4Zm-12.99-7.57c0 .97.25 1.88.68 2.68.17.32.38.62.61.9s.48.53.76.76.58.43.9.61a5.4 5.4 0 0 0 2.11.65 5.63 5.63 0 0 0 6.21-5.6c0-.19 0-.39-.03-.58-.06-.57-.2-1.11-.41-1.61-.07-.17-.15-.33-.24-.49-.17-.32-.38-.62-.61-.9s-.48-.53-.76-.76-.58-.43-.9-.61c-.8-.43-1.71-.68-2.68-.68-.19 0-.39 0-.58.03-.57.06-1.11.2-1.62.41-.17.07-.33.15-.49.24-.32.17-.62.38-.9.61s-.53.48-.76.76-.43.58-.61.9a5.45 5.45 0 0 0-.65 2.1c-.02.19-.03.38-.03.58"/>
</svg>
