<svg viewBox="0 0 64 64" xmlns="http://www.w3.org/2000/svg">
  <path d="M12.45 15c4.14 0 7.5-3.36 7.5-7.5S16.59 0 12.45 0s-7.5 3.36-7.5 7.5 3.36 7.5 7.5 7.5m0-12.25c2.62 0 4.75 2.13 4.75 4.75s-2.13 4.75-4.75 4.75S7.7 10.12 7.7 7.5s2.13-4.75 4.75-4.75M50.58 15c4.14 0 7.5-3.36 7.5-7.5S54.72 0 50.58 0s-7.5 3.36-7.5 7.5 3.36 7.5 7.5 7.5m0-12.25c2.62 0 4.75 2.13 4.75 4.75s-2.13 4.75-4.75 4.75-4.75-2.13-4.75-4.75 2.13-4.75 4.75-4.75m6.35 13.82H45.2a7.06 7.06 0 0 0-6.83 5.28 8.84 8.84 0 0 1 2.51 6.17 8.8 8.8 0 0 1-2.02 5.6h4.35l.16 3.62a8.43 8.43 0 0 1 2.95 6.4v7.61h11.46l.78-17.63h5.45v-9.98c0-3.9-3.17-7.07-7.07-7.07Zm4.32 14.31h-5.33l-.12 2.63-.66 15h-8.53l-.66-15-.12-2.63h-4.95v-7.23c0-2.38 1.94-4.32 4.32-4.32h11.73c2.38 0 4.32 1.94 4.32 4.32zm-41.82 7.65-.72-4.46-.52-3.19h4.93v-7.23c0-2.38-1.94-4.32-4.32-4.32H7.07c-2.38 0-4.32 1.94-4.32 4.32v7.23H7.3l-.52 3.19-2.34 14.44h13.24v2.75H1.21l2.86-17.63H0v-9.98c0-3.9 3.17-7.07 7.07-7.07H18.8a7.06 7.06 0 0 1 6.83 5.28 8.84 8.84 0 0 0-2.51 6.17 8.8 8.8 0 0 0 2.02 5.6h-3.72l.45 2.75c-.95.56-1.77 1.29-2.44 2.16Zm18.43-1.95H26.13a7.07 7.07 0 0 0-7.07 7.07v7.98h5.07L24.91 64H38.7l.78-12.37h5.45v-7.98c0-3.9-3.17-7.07-7.07-7.07m4.32 12.3H36.9l-.16 2.58-.62 9.79h-8.63l-.62-9.79-.16-2.58H21.8v-5.23c0-2.38 1.94-4.32 4.32-4.32h11.73c2.38 0 4.32 1.94 4.32 4.32v5.23ZM32 35.52c4.14 0 7.5-3.36 7.5-7.5s-3.36-7.5-7.5-7.5-7.5 3.36-7.5 7.5 3.36 7.5 7.5 7.5m0-12.25c2.62 0 4.75 2.13 4.75 4.75s-2.13 4.75-4.75 4.75-4.75-2.13-4.75-4.75 2.13-4.75 4.75-4.75"/>
</svg>
