<svg viewBox="0 0 48 48" xmlns="http://www.w3.org/2000/svg">
  <path d="M9.34 11.25c3.11 0 5.63-2.52 5.63-5.63S12.44 0 9.34 0 3.71 2.52 3.71 5.63s2.52 5.63 5.63 5.63Zm0-8.75c1.72 0 3.13 1.4 3.13 3.13s-1.4 3.13-3.13 3.13-3.13-1.4-3.13-3.13S7.61 2.5 9.34 2.5m28.59 8.75c3.11 0 5.63-2.52 5.63-5.63S41.04 0 37.93 0 32.3 2.52 32.3 5.63s2.52 5.63 5.63 5.63Zm0-8.75c1.72 0 3.13 1.4 3.13 3.13s-1.4 3.13-3.13 3.13-3.13-1.4-3.13-3.13 1.4-3.13 3.13-3.13m4.77 9.93h-8.8c-2.38 0-4.36 1.57-5.04 3.73a6.82 6.82 0 0 1 2.02 4.86c0 1.59-.55 3.04-1.45 4.2h2.97l.11 2.43a6.51 6.51 0 0 1 2.44 5.09v5.71h8.38l.58-13.22H48v-7.49c0-2.93-2.37-5.3-5.3-5.3Zm2.8 10.29h-3.98l-.11 2.39-.48 10.83h-5.56l-.48-10.83-.11-2.39h-3.7v-4.99c0-1.54 1.26-2.8 2.8-2.8h8.8c1.55 0 2.8 1.26 2.8 2.8v4.99Zm-31.34 6.37-.56-3.47-.47-2.9h3.77v-4.99c0-1.54-1.26-2.8-2.8-2.8H5.3c-1.55 0-2.8 1.26-2.8 2.8v4.99h3.49l-.47 2.9-1.67 10.32h9.2v2.5H.91l2.14-13.22H0v-7.49c0-2.93 2.37-5.3 5.3-5.3h8.8c2.38 0 4.36 1.57 5.04 3.73a6.82 6.82 0 0 0-2.02 4.86c0 1.59.55 3.04 1.45 4.2h-2.5l.3 1.83c-.88.5-1.64 1.2-2.2 2.04Zm14.24-1.66h-8.8c-2.93 0-5.3 2.37-5.3 5.3v5.99h3.8l.58 9.28h10.35l.58-9.28h4.09v-5.99c0-2.93-2.37-5.3-5.3-5.3m2.8 8.79h-3.93l-.15 2.34-.44 6.94h-5.65l-.44-6.94-.15-2.34h-3.65v-3.49c0-1.54 1.26-2.8 2.8-2.8h8.8c1.55 0 2.8 1.26 2.8 2.8v3.49ZM24 26.64c3.11 0 5.63-2.52 5.63-5.63s-2.52-5.63-5.63-5.63-5.63 2.52-5.63 5.63 2.52 5.63 5.63 5.63m0-8.75c1.72 0 3.13 1.4 3.13 3.13s-1.4 3.13-3.13 3.13-3.13-1.4-3.13-3.13 1.4-3.13 3.13-3.13"/>
</svg>
