<svg viewBox="0 0 64 64" xmlns="http://www.w3.org/2000/svg">
  <path d="M25.48 25.69 10.6 27.96 21.37 39l-2.53 15.52 4.74-2.49 2.33 4.42-13.62 7.17 3.74-22.94L.24 24.49l21.86-3.34L32 .04l9.91 21.11 21.81 3.33-11.14 11.61-3.61-3.46 4.47-4.66-14.92-2.28L32 11.81zm26.85 15.48c-.98-.98-2.56-.98-3.54 0l-5.92 5.92-5.92-5.92c-.98-.98-2.56-.98-3.54 0s-.98 2.56 0 3.54l5.92 5.92-5.92 5.92a2.499 2.499 0 0 0 1.77 4.27c.64 0 1.28-.24 1.77-.73l5.92-5.92 5.92 5.92c.49.49 1.13.73 1.77.73s1.28-.24 1.77-.73c.98-.98.98-2.56 0-3.54l-5.92-5.92 5.92-5.92c.98-.98.98-2.56 0-3.54"/>
</svg>
