<svg viewBox="0 0 48 48" xmlns="http://www.w3.org/2000/svg">
  <path d="M19.58 20.04 9.41 21.59l7.37 7.55-1.73 10.61 2.66-1.4 2.1 3.98-10.65 5.61 2.82-17.28L.07 18.47l16.46-2.51L24.01.02l7.48 15.94 16.41 2.51-8.66 9.02-3.25-3.12 2.66-2.77-10.22-1.56L24 10.61l-4.43 9.43Zm19.47 10.51c-.88-.88-2.3-.88-3.18 0l-3.98 3.98-3.98-3.98c-.88-.88-2.3-.88-3.18 0s-.88 2.3 0 3.18l3.98 3.98-3.98 3.98c-.88.88-.88 2.3 0 3.18.44.44 1.01.66 1.59.66s1.15-.22 1.59-.66l3.98-3.98 3.98 3.98c.44.44 1.01.66 1.59.66s1.15-.22 1.59-.66c.88-.88.88-2.3 0-3.18l-3.98-3.98 3.98-3.98c.88-.88.88-2.3 0-3.18"/>
</svg>
