<svg viewBox="0 0 64 64" xmlns="http://www.w3.org/2000/svg">
  <path d="m24.16 23.18-17.7 2.7 12.81 13.13-3.02 18.51 7.36-3.88 1.28 2.43-12.25 6.45 3.68-22.59L.75 23.97l21.54-3.29L32 0l9.71 20.68 21.51 3.29-10.17 10.6-1.98-1.9 6.5-6.78-17.73-2.71L32 6.47zM52.8 41.8c-.54-.54-1.41-.54-1.95 0l-7.24 7.24-7.24-7.24c-.54-.54-1.41-.54-1.95 0s-.54 1.41 0 1.95l7.24 7.24-7.24 7.24a1.376 1.376 0 0 0 1.94 1.95l7.24-7.24 7.24 7.24c.27.27.62.4.97.4s.7-.13.97-.4c.54-.54.54-1.41 0-1.95l-7.24-7.24 7.24-7.24c.54-.54.54-1.41 0-1.95Z"/>
</svg>
