<svg viewBox="0 0 48 48" xmlns="http://www.w3.org/2000/svg">
  <path d="m17.59 40.67 1.19 2.26L9.14 48l2.83-17.33L0 18.41l16.54-2.52L24.01 0l7.47 15.89L48 18.41l-7.97 8.3-1.84-1.76 4.57-4.76-13.01-1.99-5.74-12.21-5.74 12.21-12.98 1.98 9.4 9.62-2.21 13.55 5.11-2.69Zm23.9-.11H24.01c-.7 0-1.28.57-1.28 1.27s.57 1.27 1.28 1.27h17.48c.7 0 1.28-.57 1.28-1.27s-.57-1.27-1.28-1.27m0-4.96H24.01c-.7 0-1.28.57-1.28 1.27s.57 1.27 1.28 1.27h17.48c.7 0 1.28-.57 1.28-1.27s-.57-1.27-1.28-1.27m0-4.97H24.01c-.7 0-1.28.57-1.28 1.27s.57 1.27 1.28 1.27h17.48c.7 0 1.28-.57 1.28-1.27s-.57-1.27-1.28-1.27"/>
</svg>
