<svg viewBox="0 0 48 48" xmlns="http://www.w3.org/2000/svg">
  <path d="m17.59 39.94 1.19 2.21-9.64 4.98 2.83-17.01L0 18.09l16.54-2.48L24.01 0l7.47 15.6L48 18.07l-7.97 8.15-1.84-1.73 4.57-4.67-13.01-1.95-5.74-11.98-5.74 11.98-12.98 1.94 9.4 9.45-2.21 13.3 5.11-2.64Zm23.9-3h-7.46v-7.32c0-.69-.57-1.25-1.28-1.25s-1.28.56-1.28 1.25v7.32h-7.46c-.7 0-1.28.56-1.28 1.25s.57 1.25 1.28 1.25h7.46v7.32c0 .69.57 1.25 1.28 1.25s1.28-.56 1.28-1.25v-7.32h7.46c.7 0 1.28-.56 1.28-1.25s-.57-1.25-1.28-1.25"/>
</svg>
