<svg viewBox="0 0 40 40" xmlns="http://www.w3.org/2000/svg">
  <path d="m14.7 31.58 1.86 3.54-9 4.74 2.35-14.39L0 15.32l13.7-2.09L19.93-.05l6.24 13.28 13.66 2.09-7.3 7.61-2.89-2.77 1.97-2.05-8.15-1.25-3.52-7.5-3.52 7.5-8.11 1.24 5.88 6.03-1.38 8.46 1.9-1Zm17.67-6.36c-.78-.78-2.05-.78-2.83 0l-3.15 3.15-3.15-3.15c-.78-.78-2.05-.78-2.83 0s-.78 2.05 0 2.83l3.15 3.15-3.15 3.15a2.004 2.004 0 0 0 1.41 3.42c.51 0 1.02-.2 1.41-.59l3.15-3.15 3.15 3.15c.39.39.9.59 1.41.59s1.02-.2 1.41-.59c.78-.78.78-2.05 0-2.83L29.2 31.2l3.15-3.15c.78-.78.78-2.05 0-2.83Z"/>
</svg>
