<svg viewBox="0 0 40 40" xmlns="http://www.w3.org/2000/svg">
  <path d="m14.67 31.69 1.87 3.55-9.04 4.75 2.36-14.42L-.09 15.4l13.76-2.1L19.93-.01l6.26 13.31 13.72 2.09-7.33 7.63-2.9-2.78 1.98-2.06-8.19-1.25-3.54-7.52-3.54 7.52-8.15 1.24 5.9 6.04-1.39 8.47 1.91-1Zm17.52-2.32H20.64c-1.11 0-2.01.9-2.01 2s.9 2 2.01 2h11.55c1.11 0 2.01-.9 2.01-2s-.9-2-2.01-2m0 5.67H20.64c-1.11 0-2.01.9-2.01 2s.9 2 2.01 2h11.55c1.11 0 2.01-.9 2.01-2s-.9-2-2.01-2m0-11.45H20.64c-1.11 0-2.01.9-2.01 2s.9 2 2.01 2h11.55c1.11 0 2.01-.9 2.01-2s-.9-2-2.01-2"/>
</svg>
