<svg viewBox="0 0 32 32" xmlns="http://www.w3.org/2000/svg">
  <path d="m11.82 25.01 1.63 3.1-7.37 3.88 1.88-11.53-7.94-8.14 10.97-1.68L16-.01l5 10.66 10.94 1.67-5.96 6.21-2.53-2.42 1.29-1.35-6.12-.94-2.63-5.6-2.63 5.6-6.09.93 4.41 4.52-1.03 6.34 1.16-.61Zm14.04-4.95a1.75 1.75 0 0 0-2.47 0l-2.33 2.33-2.33-2.33c-.68-.68-1.79-.68-2.47 0s-.68 1.79 0 2.47l2.33 2.33-2.33 2.33a1.75 1.75 0 0 0 0 2.47c.34.34.79.51 1.24.51s.9-.17 1.24-.51l2.33-2.33 2.33 2.33c.34.34.79.51 1.24.51s.9-.17 1.24-.51c.68-.68.68-1.79 0-2.47l-2.33-2.33 2.33-2.33c.68-.68.68-1.79 0-2.47Z"/>
</svg>
