<svg viewBox="0 0 40 40" xmlns="http://www.w3.org/2000/svg">
  <path d="M15.42 15.05 5.04 16.64l7.51 7.7-1.77 10.84 3.97-2.09 1.05 1.99-7.97 4.2 2.31-14.18L.37 15.08l13.52-2.07L20 0l6.11 13.01 13.5 2.06-6.58 6.86-1.62-1.56 3.58-3.73-10.4-1.59-4.58-9.76-4.58 9.76Zm17.45 10.88c-.44-.44-1.15-.44-1.59 0l-4.21 4.21-4.21-4.21c-.44-.44-1.15-.44-1.59 0s-.44 1.15 0 1.59l4.21 4.21-4.21 4.21a1.123 1.123 0 0 0 .8 1.92c.29 0 .58-.11.8-.33l4.21-4.21 4.21 4.21c.22.22.51.33.8.33s.58-.11.8-.33c.44-.44.44-1.15 0-1.59l-4.21-4.21 4.21-4.21c.44-.44.44-1.15 0-1.59Z"/>
</svg>
