<svg viewBox="0 0 48 48" xmlns="http://www.w3.org/2000/svg">
  <path d="M18.39 17.89 5.67 19.83l9.21 9.44-2.17 13.29 5.01-2.64 1.16 2.21-9.45 4.97 2.77-17L.48 18.09l16.21-2.48L24.01.03l7.32 15.59 16.19 2.47-7.81 8.14-1.8-1.73 4.48-4.67-12.74-1.95-5.62-11.97-5.62 11.97Zm21.12 13.35a1.25 1.25 0 0 0-1.77 0l-5.17 5.17-5.17-5.17c-.49-.49-1.28-.49-1.77 0s-.49 1.28 0 1.77l5.17 5.17-5.17 5.17a1.25 1.25 0 0 0 0 1.77c.24.24.56.37.88.37s.64-.12.88-.37l5.17-5.17 5.17 5.17c.24.24.56.37.88.37s.64-.12.88-.37c.49-.49.49-1.28 0-1.77l-5.17-5.17 5.17-5.17c.49-.49.49-1.28 0-1.77Z"/>
</svg>
