<svg viewBox="0 0 40 40" xmlns="http://www.w3.org/2000/svg">
  <path d="m14.7 33.75 1.05 1.98-8.1 4.26 2.36-14.44-9.98-10.2 13.79-2.1L20.04 0l6.23 13.25 13.76 2.1-6.69 6.96-1.62-1.55 3.69-3.85-10.67-1.63-4.7-10.01-4.7 10.01L4.69 16.9l7.71 7.89-1.82 11.12 4.11-2.16Zm19.42-4.4H20c-.62 0-1.12.5-1.12 1.12s.5 1.12 1.12 1.12h14.12c.62 0 1.12-.5 1.12-1.12s-.5-1.12-1.12-1.12m0 4.5H20c-.62 0-1.12.5-1.12 1.12s.5 1.12 1.12 1.12h14.12c.62 0 1.12-.5 1.12-1.12s-.5-1.12-1.12-1.12m0-9H20c-.62 0-1.12.5-1.12 1.12s.5 1.12 1.12 1.12h14.12c.62 0 1.12-.5 1.12-1.12s-.5-1.12-1.12-1.12"/>
</svg>
