<svg viewBox="0 0 24 24" xmlns="http://www.w3.org/2000/svg">
  <path d="m9.48 9.49-5.74.88 4.15 4.26-.98 5.99 1.92-1.01.81 1.55-5.03 2.65 1.4-8.58L.12 9.15 8.3 7.9 12 0l3.71 7.9 8.16 1.25-4.12 4.3-1.26-1.21 1.79-1.87-5.75-.88-2.52-5.36-2.52 5.36Zm10.17 5.98a.88.88 0 0 0-1.24 0l-2.29 2.29-2.29-2.29a.88.88 0 0 0-1.24 0c-.34.34-.34.9 0 1.24L14.88 19l-2.29 2.29a.881.881 0 0 0 .62 1.5c.22 0 .45-.08.62-.26l2.29-2.29 2.29 2.29c.17.17.4.26.62.26s.45-.08.62-.26c.34-.34.34-.9 0-1.24L17.36 19l2.29-2.29c.34-.34.34-.9 0-1.24"/>
</svg>
