<svg viewBox="0 0 48 48" xmlns="http://www.w3.org/2000/svg">
  <path d="m17.68 38.38 2.1 3.99-10.69 5.62 2.83-17.31L-.02 18.46l16.52-2.52L24.01-.02l7.51 15.96 16.47 2.51-8.69 9.04-3.26-3.12 2.67-2.78-10.25-1.56-4.44-9.45-4.44 9.45-10.21 1.56 7.4 7.56-1.74 10.62 2.67-1.4Zm22.15-2.89h-5.65v-5.64c0-1.24-1.01-2.25-2.26-2.25s-2.26 1.01-2.26 2.25v5.64h-5.65c-1.25 0-2.26 1.01-2.26 2.25s1.01 2.25 2.26 2.25h5.65v5.64c0 1.24 1.01 2.25 2.26 2.25s2.26-1.01 2.26-2.25v-5.64h5.65c1.25 0 2.26-1.01 2.26-2.25s-1.01-2.25-2.26-2.25"/>
</svg>
