<svg viewBox="0 0 40 40" xmlns="http://www.w3.org/2000/svg">
  <path d="M12.53 26.47c3.63 0 6.58-2.94 6.58-6.57s-2.94-6.57-6.58-6.57a6.57 6.57 0 1 0 0 13.14m0-10.9c2.39 0 4.33 1.94 4.33 4.32s-1.94 4.32-4.33 4.32-4.33-1.94-4.33-4.32 1.94-4.32 4.33-4.32M24.61 35.2v4.81h-2.25V35.2a4.28 4.28 0 0 0-4.27-4.27H6.53c-2.35 0-4.27 1.91-4.27 4.27v4.81H.01V35.2c0-3.59 2.93-6.52 6.52-6.52h11.55c3.6 0 6.52 2.92 6.52 6.52Zm-18.1 0h2.25v4.81H6.51zm9.27 0h2.25v4.81h-2.25zM30.11.01c-5.46 0-9.91 3.76-9.91 8.39 0 1.39.41 2.76 1.2 3.99l-1.28 6.03 5.49-2.55c1.39.6 2.94.92 4.5.92 5.46 0 9.91-3.76 9.91-8.39S35.57.01 30.11.01m0 14.53c-1.4 0-2.79-.32-4-.92l-.48-.24-2.37 1.1.55-2.59-.3-.41c-.69-.94-1.06-2.01-1.06-3.09 0-3.39 3.43-6.14 7.66-6.14S37.77 5 37.77 8.39s-3.43 6.14-7.66 6.14Zm1.16-9.21c0 .54-.42.93-1.14.93S29 5.87 29 5.33s.41-.93 1.13-.93 1.14.39 1.14.93m-2.13 1.39h2v4.95h-2z"/>
</svg>
