<svg viewBox="0 0 24 24" xmlns="http://www.w3.org/2000/svg">
  <path d="M7.72 15.87c2.18 0 3.95-1.77 3.95-3.95S9.9 7.97 7.72 7.97s-3.95 1.77-3.95 3.95 1.77 3.95 3.95 3.95m0-6.14c1.21 0 2.2.99 2.2 2.2a2.2 2.2 0 1 1-2.2-2.2m7.45 11.39v2.89h-1.75v-2.89c0-1.3-1.06-2.36-2.36-2.36H4.13c-1.3 0-2.36 1.06-2.36 2.36v2.89H.01v-2.89a4.11 4.11 0 0 1 4.11-4.11h6.93c2.27 0 4.11 1.85 4.11 4.11Zm-11.26 0h1.75v2.89H3.91zm5.56 0h1.75v2.89H9.47zM18.11 0c-3.25 0-5.89 2.26-5.89 5.04 0 .81.23 1.61.67 2.33l-.81 3.81 3.47-1.61c.8.33 1.68.5 2.57.5 3.25 0 5.9-2.26 5.9-5.03S21.36 0 18.11 0m0 8.32c-.77 0-1.52-.17-2.18-.5l-.38-.19-1.04.48.24-1.13-.23-.32c-.37-.5-.56-1.06-.56-1.63 0-1.81 1.86-3.28 4.15-3.28s4.15 1.47 4.15 3.28-1.86 3.28-4.15 3.28Zm-.38-4.27h1.19v2.94h-1.19zM19 3.23c0 .32-.25.55-.68.55s-.67-.23-.67-.55.24-.55.67-.55.68.23.68.55"/>
</svg>
