<svg viewBox="0 0 64 64" xmlns="http://www.w3.org/2000/svg">
  <path d="M10.89 37.69c-1.13-1.68-1.8-3.71-1.8-5.89 0-3.27 1.49-6.19 3.83-8.12 1.82-1.5 4.15-2.4 6.69-2.4s4.87.9 6.69 2.4c2.34 1.93 3.83 4.85 3.83 8.12 0 2.18-.66 4.21-1.8 5.89-1.89 2.8-5.09 4.64-8.73 4.64a10.4 10.4 0 0 1-3.74-.7c-.63-.24-1.23-.54-1.8-.89-1.26-.79-2.35-1.82-3.18-3.05Zm27.63 18.63v7.71H0v-7.71c0-5.52 4.49-10.01 10.01-10.01H28.5c5.52 0 10.01 4.49 10.01 10.01Zm-26.87 0H8.9v7.71h2.75zm17.83 0h-2.75v7.71h2.75zM64.01 13.6c0 7.48-7.22 13.57-16.1 13.57-2.62 0-5.22-.55-7.54-1.59l-8.49 3.95 1.98-9.32c-1.34-2.02-2.04-4.29-2.04-6.6C31.81 6.12 39.03.03 47.91.03s16.1 6.09 16.1 13.57m-14.37-1.81h-3.36v7.31h3.36zm.23-3.34c0-.91-.7-1.56-1.91-1.56s-1.9.65-1.9 1.56.68 1.56 1.9 1.56 1.91-.65 1.91-1.56"/>
</svg>
