<svg viewBox="0 0 64 64" xmlns="http://www.w3.org/2000/svg">
  <path d="M19.61 42.31c5.81 0 10.52-4.71 10.52-10.53s-4.71-10.53-10.52-10.53S9.09 25.96 9.09 31.78s4.71 10.53 10.52 10.53m0-18.3c4.29 0 7.77 3.49 7.77 7.78s-3.49 7.78-7.77 7.78-7.77-3.49-7.77-7.78 3.49-7.78 7.77-7.78M38.52 56.3v7.71h-2.75V56.3c0-4-3.26-7.26-7.26-7.26H10.02c-4 0-7.26 3.26-7.26 7.26v7.71H0V56.3c0-5.52 4.49-10.01 10.01-10.01H28.5c5.52 0 10.01 4.49 10.01 10.01Zm-28.12 0h2.75v7.71H10.4zm14.83 0h2.75v7.71h-2.75zM47.91.01c-8.88 0-16.1 6.09-16.1 13.57 0 2.31.71 4.58 2.04 6.6l-1.98 9.32 8.49-3.95c2.33 1.04 4.92 1.59 7.54 1.59 8.88 0 16.1-6.09 16.1-13.57S56.79.01 47.91.01m0 24.39c-2.43 0-4.83-.55-6.93-1.59l-.59-.29-4.68 2.17 1.09-5.12-.36-.5c-1.22-1.67-1.87-3.57-1.87-5.49 0-5.96 5.99-10.82 13.35-10.82s13.35 4.85 13.35 10.82S55.28 24.4 47.92 24.4Zm1.96-15.97c0 .91-.7 1.56-1.91 1.56s-1.9-.65-1.9-1.56.68-1.56 1.9-1.56 1.91.65 1.91 1.56m-3.59 2.34h3.36v8.31h-3.36z"/>
</svg>
