<svg viewBox="0 0 24 24" xmlns="http://www.w3.org/2000/svg">
  <path d="M4.45 14.15c-.43-.63-.67-1.39-.67-2.21A3.95 3.95 0 0 1 9.27 8.3c.71.3 1.31.8 1.74 1.43s.67 1.39.67 2.21c0 1.09-.44 2.08-1.16 2.79-.36.36-.78.65-1.25.85s-.99.31-1.54.31c-.27 0-.54-.03-.8-.08-.4-.08-.76-.24-1.1-.43-.32-.18-.63-.39-.89-.65-.18-.18-.34-.37-.48-.58Zm6.6 2.87H4.12c-2.26 0-4.11 1.84-4.11 4.11v2.89h3.4v-2.89h1.75v2.89h4.81v-2.89h1.75v2.89h3.45v-2.89a4.11 4.11 0 0 0-4.11-4.11ZM24.01 5.05c0 2.77-2.65 5.03-5.9 5.03-.89 0-1.77-.17-2.57-.5l-3.47 1.61.81-3.81a4.46 4.46 0 0 1-.67-2.33c.01-2.77 2.65-5.03 5.9-5.03s5.9 2.26 5.9 5.03m-5.09-.48h-1.19v2.44h1.19zM19 3.24c0-.32-.25-.55-.68-.55s-.67.23-.67.55.24.55.67.55.68-.23.68-.55"/>
</svg>
