<svg viewBox="0 0 48 48" xmlns="http://www.w3.org/2000/svg">
  <path d="M7.99 27.62a7.8 7.8 0 0 1-.95-3.76c0-4.36 3.53-7.89 7.89-7.89s7.89 3.53 7.89 7.89c0 1.36-.34 2.64-.95 3.76-1.34 2.46-3.94 4.13-6.94 4.13s-5.6-1.67-6.94-4.13m21.34 14.61V48H.02v-5.77c0-4.26 3.47-7.72 7.72-7.72H21.6c4.26 0 7.72 3.46 7.72 7.72Zm-20.27 0h-2.5V48h2.5zm13.62 0h-2.5V48h2.5zm25.33-32.05c0 5.61-5.4 10.17-12.04 10.17-1.92 0-3.82-.39-5.53-1.14l-6.56 3.05 1.53-7.2c-.97-1.5-1.48-3.17-1.48-4.88C23.94 4.57 29.34 0 35.97 0s12.04 4.56 12.04 10.17ZM37.24 8.87h-2.46v5.33h2.46zm.17-2.46c0-.66-.51-1.14-1.4-1.14s-1.39.48-1.39 1.14.5 1.14 1.39 1.14 1.4-.48 1.4-1.14"/>
</svg>
