<svg viewBox="0 0 32 32" xmlns="http://www.w3.org/2000/svg">
  <path d="M31.99 22.67c0-2.56-1.69-4.73-4.01-5.48V0h-3.51v17.19c-2.32.74-4.01 2.92-4.01 5.48s1.69 4.73 4.01 5.48v3.86h3.51v-3.86c2.32-.74 4.01-2.92 4.01-5.48m-5.76 2.25c-1.24 0-2.25-1.01-2.25-2.25s1.01-2.25 2.25-2.25 2.25 1.01 2.25 2.25-1.01 2.25-2.25 2.25M21.75 9.33c0-2.56-1.69-4.73-4.01-5.48V0h-3.51v3.86c-2.32.74-4.01 2.92-4.01 5.48s1.69 4.73 4.01 5.48v17.19h3.51v-17.2c2.32-.74 4.01-2.92 4.01-5.48m-5.76 2.25c-1.24 0-2.25-1.01-2.25-2.25s1.01-2.25 2.25-2.25 2.25 1.01 2.25 2.25-1.01 2.25-2.25 2.25M7.5 17.23V0H3.99v17.23c-2.32.74-4 2.91-4 5.47S1.68 27.43 4 28.18V32h3.51v-3.82c2.32-.74 4.01-2.92 4.01-5.48s-1.69-4.73-4.01-5.48Zm-1.75 7.72c-1.24 0-2.25-1.01-2.25-2.25s1.01-2.25 2.25-2.25S8 21.46 8 22.7s-1.01 2.25-2.25 2.25"/>
</svg>
