<svg viewBox="0 0 48 48" xmlns="http://www.w3.org/2000/svg">
  <path d="M47.99 34c0-3.77-2.55-6.95-6.01-7.93V0h-4.51v26.07c-3.46.98-6.01 4.16-6.01 7.93s2.55 6.95 6.01 7.93V48h4.51v-6.07c3.46-.98 6.01-4.16 6.01-7.93m-8.26 3.75A3.76 3.76 0 0 1 35.97 34a3.76 3.76 0 0 1 7.52 0 3.76 3.76 0 0 1-3.76 3.75M32.24 14c0-3.77-2.55-6.95-6.01-7.93V0h-4.51v6.07c-3.46.98-6.01 4.16-6.01 7.93s2.55 6.95 6.01 7.93V48h4.51V21.93c3.46-.98 6.01-4.16 6.01-7.93m-8.26 3.75A3.76 3.76 0 0 1 20.22 14a3.76 3.76 0 0 1 7.52 0 3.76 3.76 0 0 1-3.76 3.75m-13.47 8.37V0H6v26.12c-3.46.99-6 4.17-6 7.93S2.55 41 6.01 41.98V48h4.51v-6.02c3.46-.98 6.01-4.16 6.01-7.93s-2.55-6.95-6.01-7.93ZM8.26 37.8a3.76 3.76 0 0 1-3.76-3.75 3.76 3.76 0 0 1 7.52 0 3.76 3.76 0 0 1-3.76 3.75"/>
</svg>
