<svg viewBox="0 0 16 16" xmlns="http://www.w3.org/2000/svg">
  <path d="M16.02 11.33c0-1.25-.85-2.3-2-2.63V0h-1.5v8.7c-1.15.33-2 1.38-2 2.63s.85 2.3 2 2.63v2.03h1.5v-2.03c1.15-.33 2-1.38 2-2.63m-2.76 1.25a1.25 1.25 0 1 1 0-2.5 1.25 1.25 0 0 1 0 2.5m-2.51-7.91c0-1.25-.85-2.3-2-2.63V0h-1.5v2.04c-1.15.33-2 1.38-2 2.63s.85 2.3 2 2.63V16h1.5V7.3c1.15-.33 2-1.38 2-2.63M7.99 5.92a1.25 1.25 0 1 1 0-2.5 1.25 1.25 0 0 1 0 2.5m-4.46 2.8V0h-1.5v8.72C.87 9.05.02 10.1.02 11.35s.85 2.3 2 2.63V16h1.5v-2.02c1.15-.33 2-1.38 2-2.63s-.85-2.3-2-2.63Zm-.76 3.88a1.25 1.25 0 1 1 0-2.5 1.25 1.25 0 0 1 0 2.5"/>
</svg>
