<svg viewBox="0 0 48 48" xmlns="http://www.w3.org/2000/svg">
  <path d="M48 34c0-3.57-2.6-6.54-6-7.13V0h-2.5v26.86c-3.4.59-6 3.56-6 7.13s2.6 6.54 6 7.13v6.87H42v-6.87c3.4-.59 6-3.56 6-7.13Zm-7.25 4.75C38.13 38.75 36 36.62 36 34s2.13-4.75 4.75-4.75S45.5 31.38 45.5 34s-2.13 4.75-4.75 4.75M25.23 6.87V0h-2.5v6.87c-3.4.59-6 3.56-6 7.13s2.6 6.54 6 7.13v26.86h2.5V21.13c3.4-.59 6-3.56 6-7.13s-2.6-6.54-6-7.13m-1.25 11.89c-2.62 0-4.75-2.13-4.75-4.75s2.13-4.75 4.75-4.75 4.75 2.13 4.75 4.75-2.13 4.75-4.75 4.75M8.5 26.93V0H6v26.92c-3.4.6-6 3.57-6 7.14s2.6 6.54 6 7.13V48h2.5v-6.81c3.4-.59 6-3.56 6-7.13s-2.6-6.54-6-7.13M7.25 38.81c-2.62 0-4.75-2.13-4.75-4.75s2.13-4.75 4.75-4.75S12 31.44 12 34.06s-2.13 4.75-4.75 4.75"/>
</svg>
