<svg viewBox="0 0 24 24" xmlns="http://www.w3.org/2000/svg">
  <path d="M24 17c0-1.83-1.29-3.37-3-3.77V0h-1.75v13.23c-1.72.4-3 1.93-3 3.77s1.29 3.37 3 3.77V24H21v-3.23c1.72-.4 3-1.93 3-3.77m-3.88 2.12c-1.17 0-2.13-.95-2.13-2.12s.95-2.12 2.13-2.12 2.13.95 2.13 2.12-.95 2.12-2.13 2.12M12.86 3.23V0h-1.75v3.23c-1.72.4-3 1.93-3 3.77s1.29 3.37 3 3.77V24h1.75V10.77c1.72-.4 3-1.93 3-3.77s-1.29-3.37-3-3.77m-.87 5.9c-1.17 0-2.13-.95-2.13-2.12s.95-2.12 2.13-2.12 2.13.95 2.13 2.12-.95 2.12-2.13 2.12m-7.23 4.13V0H3.01v13.26C1.29 13.66 0 15.19 0 17.03s1.29 3.37 3 3.77v3.21h1.75V20.8c1.72-.4 3-1.93 3-3.77s-1.29-3.37-3-3.77Zm-.88 5.89c-1.17 0-2.13-.95-2.13-2.12s.95-2.12 2.13-2.12 2.13.95 2.13 2.12-.95 2.12-2.13 2.12"/>
</svg>
