<svg viewBox="0 0 16 16" xmlns="http://www.w3.org/2000/svg">
  <path d="M16 11.33c0-1.35-.83-2.51-2-3V0h-2.5v8.33c-1.17.49-2 1.65-2 3s.83 2.51 2 3V16H14v-1.67c1.17-.49 2-1.65 2-3m-3.25.75c-.41 0-.75-.34-.75-.75s.34-.75.75-.75.75.34.75.75-.34.75-.75.75m-1.51-7.41c0-1.35-.83-2.51-2-3V0h-2.5v1.67c-1.17.49-2 1.65-2 3s.83 2.51 2 3V16h2.5V7.67c1.17-.49 2-1.65 2-3m-3.25-.75c.41 0 .75.34.75.75s-.34.75-.75.75-.75-.34-.75-.75.34-.75.75-.75M4.5 8.35V0H2v8.35c-1.17.49-2 1.65-2 3s.83 2.51 2 3V16h2.5v-1.65c1.17-.49 2-1.65 2-3s-.83-2.51-2-3M3.25 12.1c-.41 0-.75-.34-.75-.75s.34-.75.75-.75.75.34.75.75-.34.75-.75.75"/>
</svg>
