<svg viewBox="0 0 32 32" xmlns="http://www.w3.org/2000/svg">
  <path fill="#1e1e1c" d="M16.17 0C9.52 0 4.11 5.41 4.11 12.06v7.88C4.11 26.59 9.52 32 16.17 32s12.06-5.41 12.06-12.06v-7.88C28.23 5.41 22.82 0 16.17 0m7 7.5a.99.99 0 0 1 1.36.38 7.7 7.7 0 0 1 1.01 3.79c0 .55-.45 1-1 1s-1-.45-1-1c0-.99-.25-1.93-.75-2.8a.99.99 0 0 1 .38-1.36Zm-16.1 3.21c0-1.94.76-3.83 2.13-5.3 1.68-1.81 4.14-2.85 6.73-2.85 2.35 0 4.56.84 6.23 2.36a.997.997 0 1 1-1.34 1.48c-1.3-1.18-3.03-1.84-4.88-1.84-2.04 0-3.95.81-5.26 2.21-1.03 1.1-1.59 2.51-1.59 3.94 0 .55-.45 1-1 1s-1-.45-1-1Zm9.19 7.83c.55 0 1 .45 1 1v.88c0 .55-.45 1-1 1s-1-.45-1-1v-.88c0-.55.45-1 1-1m-1-2.71V11.8c0-.55.45-1 1-1s1 .45 1 1v4.03c0 .55-.45 1-1 1s-1-.45-1-1m.89 7.46c1.67 0 3.02-1.16 3.02-2.59v-5.5c0-.55.45-1 1-1s1 .45 1 1v5.5c0 2.53-2.25 4.59-5.02 4.59s-5.02-2.06-5.02-4.59c0-.55.45-1 1-1s1 .45 1 1c0 1.43 1.36 2.59 3.02 2.59m4.02-11.06c-.55 0-1-.45-1-1 0-1.43-1.36-2.59-3.02-2.59s-3.02 1.16-3.02 2.59v5.56c0 .55-.45 1-1 1s-1-.45-1-1v-5.56c0-2.53 2.25-4.59 5.02-4.59s5.02 2.06 5.02 4.59c0 .55-.45 1-1 1M6.93 19.66v-5.08c0-.55.45-1 1-1s1 .45 1 1v5.08c0 .55-.45 1-1 1s-1-.45-1-1m18.62 1.61c0 4.67-4.12 8.47-9.19 8.47-2.64 0-5.16-1.05-6.9-2.87-.72-.75-1.28-1.6-1.67-2.53a1 1 0 0 1 1.84-.78c.3.7.73 1.35 1.27 1.92 1.37 1.43 3.36 2.25 5.45 2.25 3.97 0 7.19-2.9 7.19-6.47v-1.58c0-.55.45-1 1-1s1 .45 1 1v1.58Zm.01-5.43c0 .55-.45 1-1 1s-1-.45-1-1v-.88c0-.55.45-1 1-1s1 .45 1 1z"/>
</svg>
