<svg viewBox="0 0 24 24" xmlns="http://www.w3.org/2000/svg">
  <path fill="#1e1e1c" d="M12.1 0C7.04 0 2.93 4.11 2.93 9.17v5.66c0 5.06 4.11 9.17 9.17 9.17s9.17-4.11 9.17-9.17V9.17C21.27 4.11 17.16 0 12.1 0m7.42 14.83c0 4.09-3.33 7.42-7.42 7.42s-7.42-3.33-7.42-7.42V9.17c0-4.09 3.33-7.42 7.42-7.42s7.42 3.33 7.42 7.42zm-1.12-.3v1.06c0 3.25-2.82 5.89-6.29 5.89-1.81 0-3.53-.73-4.72-2-.49-.52-.88-1.12-1.15-1.76-.18-.45.03-.96.47-1.15.45-.18.96.03 1.15.47.19.45.46.86.8 1.23.87.92 2.12 1.45 3.45 1.45 2.5 0 4.54-1.86 4.54-4.14v-1.06c0-.48.39-.88.88-.88s.88.39.88.88ZM5.75 8.5c0-1.36.52-2.67 1.46-3.7 1.16-1.26 2.84-1.99 4.61-1.99 1.61 0 3.12.58 4.27 1.64.35.33.38.88.05 1.24-.33.35-.88.38-1.24.05-.82-.76-1.91-1.17-3.08-1.17-1.28 0-2.49.52-3.32 1.42-.64.7-1 1.6-1 2.51 0 .48-.39.88-.88.88s-.88-.39-.88-.87Zm11.96-2.01c.45.81.69 1.72.69 2.64 0 .48-.39.88-.88.88s-.88-.39-.88-.87c0-.63-.16-1.23-.47-1.78a.87.87 0 0 1 .33-1.19c.42-.24.96-.09 1.19.33Zm-6.55 5.44V9.22c0-.48.39-.88.88-.88s.88.39.88.88v2.71c0 .48-.39.88-.88.88s-.88-.39-.88-.88m-4.62 3.45c-.48 0-.88-.39-.88-.88v-3.42c0-.48.39-.88.88-.88s.88.39.88.88v3.42c0 .48-.39.88-.88.88m5.43 1.36c.98 0 1.78-.69 1.78-1.54v-3.7c0-.48.39-.88.88-.88s.88.39.88.88v3.7c0 1.81-1.59 3.29-3.54 3.29s-3.54-1.47-3.54-3.29c0-.48.39-.88.88-.88s.88.39.88.88c0 .85.8 1.54 1.79 1.54Zm3.54-7.9c0 .48-.39.88-.88.88s-.88-.39-.88-.88c0-.85-.8-1.54-1.78-1.54s-1.79.69-1.79 1.54v3.74c0 .48-.39.88-.88.88s-.88-.39-.88-.88V8.84c0-1.81 1.59-3.29 3.54-3.29s3.54 1.47 3.54 3.29Zm-4.35 5.59c0-.48.39-.88.88-.88s.88.39.88.88v.59c0 .48-.39.88-.88.88s-.88-.39-.88-.88zm7.24-3.08v.59c0 .48-.39.88-.88.88s-.88-.39-.88-.88v-.59c0-.48.39-.88.88-.88s.88.39.88.88"/>
</svg>
