<svg viewBox="0 0 64 64" xmlns="http://www.w3.org/2000/svg">
  <path fill="#1e1e1c" d="M32.26-.05C19.05-.05 8.31 10.69 8.31 23.9v16.09c0 13.21 10.75 23.96 23.96 23.96S56.23 53.2 56.23 39.99V23.9C56.22 10.69 45.47-.05 32.26-.05m15.85 14.46c.65-.39 1.5-.17 1.89.48 1.4 2.36 2.14 5.02 2.14 7.7 0 .76-.62 1.38-1.38 1.38s-1.38-.61-1.38-1.37c0-2.22-.59-4.34-1.75-6.29-.39-.65-.17-1.5.48-1.89ZM12.8 20.39c0-4.04 1.67-7.95 4.69-11.01 3.86-3.91 9.22-6.15 14.7-6.15 5 0 10.05 1.87 13.85 5.12a1.377 1.377 0 0 1-1.79 2.09c-3.31-2.83-7.7-4.46-12.06-4.46-4.75 0-9.39 1.94-12.74 5.33-2.51 2.54-3.9 5.77-3.9 9.08 0 .76-.62 1.38-1.38 1.38s-1.38-.61-1.38-1.37Zm7.36 21.75c.76 0 1.38.62 1.38 1.38 0 3.87 4.9 8.55 11 8.55s10.99-4.68 10.99-8.55V30.78c0-.76.62-1.38 1.38-1.38s1.38.62 1.38 1.38v12.74c0 5.23-6.01 11.3-13.75 11.3s-13.75-6.08-13.75-11.3c0-.76.62-1.38 1.38-1.38Zm-1.6-3.99v-2.02c0-.76.62-1.38 1.38-1.38s1.38.62 1.38 1.38v2.02c0 .76-.62 1.38-1.38 1.38s-1.38-.62-1.38-1.38m6.18-1.09c0-.76.62-1.38 1.38-1.38s1.38.62 1.38 1.38v5.52c0 1.27 2.24 3.7 5.3 3.7s5.3-2.43 5.3-3.7v-5.17c0-.76.62-1.38 1.38-1.38s1.38.62 1.38 1.38v5.17c0 2.92-3.59 6.45-8.05 6.45s-8.05-3.53-8.05-6.45v-5.52Zm-.12-5.08v-5.69c0-.76.62-1.38 1.38-1.38s1.38.62 1.38 1.38v5.69c0 .76-.62 1.38-1.38 1.38s-1.38-.62-1.38-1.38m8.21 4.1c.76 0 1.38.62 1.38 1.38v4.58c0 .76-.62 1.38-1.38 1.38s-1.38-.62-1.38-1.38v-4.58c0-.76.62-1.38 1.38-1.38m-1.38-3.68v-9.44c0-.76.62-1.38 1.38-1.38s1.38.62 1.38 1.38v9.44c0 .76-.62 1.38-1.38 1.38s-1.38-.62-1.38-1.38m9.35.1c0 .76-.62 1.38-1.38 1.38s-1.38-.62-1.38-1.38V21.84c0-1.65-2.43-4.17-5.41-4.17s-5.41 2.78-5.41 4.17c0 .76-.62 1.38-1.38 1.38s-1.38-.62-1.38-1.38c0-3.12 3.77-6.92 8.17-6.92s8.17 3.79 8.17 6.92zm4.1-7.05c-.76 0-1.38-.62-1.38-1.38v-3.53c0-3.93-5.07-8.72-10.99-8.72s-11 4.8-11 8.72v10.12c0 .76-.62 1.38-1.38 1.38s-1.38-.62-1.38-1.38V20.54c0-5.31 6.01-11.48 13.75-11.48s13.75 6.17 13.75 11.48v3.53c0 .76-.62 1.38-1.38 1.38Zm-32.39.5c0-.76.62-1.38 1.38-1.38s1.38.62 1.38 1.38v3.02c0 .76-.62 1.38-1.38 1.38s-1.38-.62-1.38-1.38zm-.02 16.03v-7.34c0-.76.62-1.38 1.38-1.38s1.38.62 1.38 1.38v7.34c0 .76-.62 1.38-1.38 1.38s-1.38-.62-1.38-1.38m39.66 1.03c0 9.51-8.78 17.24-19.57 17.24-5.62 0-10.97-2.13-14.69-5.84-1.53-1.53-2.73-3.26-3.56-5.15-.31-.7 0-1.51.7-1.81.7-.31 1.51 0 1.81.7.7 1.58 1.7 3.03 2.99 4.32 3.2 3.2 7.84 5.04 12.74 5.04 9.27 0 16.81-6.5 16.81-14.49v-3.35c0-.76.62-1.38 1.38-1.38s1.38.62 1.38 1.38v3.35Zm0-9.63c0 .76-.62 1.38-1.38 1.38s-1.38-.62-1.38-1.38v-5.55c0-.76.62-1.38 1.38-1.38s1.38.62 1.38 1.38z"/>
</svg>
