<svg viewBox="0 0 32 32" xmlns="http://www.w3.org/2000/svg">
  <path fill="#1e1e1c" d="M16.14 0C9.49 0 4.08 5.42 4.08 12.07v7.88c0 6.65 5.41 12.06 12.06 12.06S28.2 26.6 28.2 19.95v-7.88C28.2 5.42 22.79 0 16.14 0M26.2 19.95c0 5.55-4.51 10.06-10.06 10.06S6.08 25.5 6.08 19.95v-7.88c0-5.55 4.51-10.06 10.06-10.06S26.2 6.52 26.2 12.07zm-1.38-.55v1.44c0 4.32-3.81 7.84-8.5 7.84-2.44 0-4.76-.97-6.38-2.65a7.7 7.7 0 0 1-1.55-2.34 1 1 0 0 1 1.84-.78c.27.64.65 1.22 1.15 1.74 1.24 1.29 3.04 2.04 4.93 2.04 3.58 0 6.5-2.62 6.5-5.83v-1.44c0-.55.45-1 1-1s1 .45 1 1ZM7.74 11.18c0-1.81.7-3.55 1.97-4.92 1.56-1.68 3.82-2.64 6.22-2.64 2.17 0 4.21.77 5.76 2.18a.997.997 0 1 1-1.34 1.48c-1.17-1.07-2.74-1.66-4.41-1.66-1.84 0-3.57.73-4.75 2-.92.99-1.43 2.26-1.43 3.55 0 .55-.45 1-1 1s-1-.45-1-1Zm16.14-2.64c.61 1.07.93 2.29.93 3.51 0 .55-.45 1-1 1s-1-.45-1-1c0-.89-.23-1.74-.67-2.52a.99.99 0 0 1 .38-1.36.99.99 0 0 1 1.36.38Zm-8.66 7.32v-3.68c0-.55.45-1 1-1s1 .45 1 1v3.68c0 .55-.45 1-1 1s-1-.45-1-1m-6.61 4.51c-.55 0-1-.45-1-1v-4.65c0-.55.45-1 1-1s1 .45 1 1v4.65c0 .55-.45 1-1 1m7.52 2.23c1.48 0 2.68-1.02 2.68-2.28v-5.04c0-.55.45-1 1-1s1 .45 1 1v5.04c0 2.36-2.1 4.28-4.68 4.28s-4.68-1.92-4.68-4.28c0-.55.45-1 1-1s1 .45 1 1c0 1.26 1.2 2.28 2.68 2.28m4.68-10.95c0 .55-.45 1-1 1s-1-.45-1-1c0-1.26-1.2-2.28-2.68-2.28s-2.68 1.02-2.68 2.28v5.09c0 .55-.45 1-1 1s-1-.45-1-1v-5.09c0-2.36 2.1-4.28 4.68-4.28s4.68 1.92 4.68 4.28m-5.59 7.61c0-.55.45-1 1-1s1 .45 1 1v.8c0 .55-.45 1-1 1s-1-.45-1-1zm9.6-4.2v.8c0 .55-.45 1-1 1s-1-.45-1-1v-.8c0-.55.45-1 1-1s1 .45 1 1"/>
</svg>
