<svg viewBox="0 0 48 48" xmlns="http://www.w3.org/2000/svg">
  <path d="M16.22 25.22v2.9H.02v-2.9a2.5 2.5 0 0 1 2.5-2.5H6.7c-.35-3.6.73-9.28 6.96-11.35.65-.22 1.36.13 1.58.79.22.65-.14 1.36-.79 1.58-5.46 1.82-5.44 7.02-5.22 8.98h4.49a2.5 2.5 0 0 1 2.5 2.5M.02 47.98h16.2V30.63H.02zM48.01 5.92 42.19.01l-6.18 5.91v2.44h12zm0 4.95h-12v17.21h3.83c-.1 2.58-.7 7.5-3.66 9.35l1.32 2.12c3.99-2.49 4.73-8.47 4.84-11.47h3.18v19.94h2.5V10.87ZM14.05 5.92c.69 0 1.25-.56 1.25-1.25V2.29a1.25 1.25 0 0 0-2.5 0v2.38c0 .69.56 1.25 1.25 1.25m21.97 36.02c-.69 0-1.25.56-1.25 1.25v2.38a1.25 1.25 0 0 0 2.5 0v-2.38c0-.69-.56-1.25-1.25-1.25m-2.21-7.61-2.06-1.19c-.6-.34-1.36-.14-1.71.46-.34.6-.14 1.36.46 1.71l2.06 1.19a1.23 1.23 0 0 0 1.7-.46c.34-.6.14-1.36-.46-1.71Zm-2.08 4.7-2.06 1.19c-.6.35-.8 1.11-.46 1.71.23.4.65.63 1.08.63.21 0 .43-.05.62-.17l2.06-1.19c.6-.35.8-1.11.46-1.71s-1.11-.8-1.71-.46Zm9.25 1.73c-.57-.38-1.35-.23-1.73.34s-.23 1.35.34 1.74l1.98 1.33c.21.14.46.21.7.21.4 0 .8-.19 1.04-.55.38-.57.23-1.35-.34-1.74l-1.98-1.33ZM4.54 8.51 6.6 9.7a1.23 1.23 0 0 0 1.7-.46c.34-.6.14-1.36-.46-1.71L5.78 6.34c-.6-.34-1.36-.14-1.71.46-.34.6-.14 1.36.46 1.71Zm19.03 8.09-2.06-1.19c-.6-.34-1.36-.14-1.71.46-.34.6-.14 1.36.46 1.71l2.06 1.19a1.23 1.23 0 0 0 1.7-.46c.34-.6.14-1.36-.46-1.71ZM22.32 6.34l-2.06 1.19c-.6.35-.8 1.11-.46 1.71.23.4.65.63 1.08.63.21 0 .43-.05.62-.17l2.06-1.19c.6-.35.8-1.11.46-1.71-.35-.6-1.11-.8-1.71-.46Z"/>
</svg>
