<svg viewBox="0 0 16 16" xmlns="http://www.w3.org/2000/svg">
  <path d="M3.42 7.58h1c.55 0 1 .45 1 1V16H.02v-4.37h5.4v-1.5H.02V8.58c0-.55.45-1 1-1h.89c-.12-1.31.29-3.35 2.55-4.1a.749.749 0 1 1 .48 1.42c-1.64.55-1.59 2.12-1.51 2.68Zm8.35 1.78h1.19c-.04.89-.27 2.34-1.06 2.84l.79 1.27c1.48-.92 1.74-3.04 1.77-4.11h.05V16h1.5V4.77h-4.25v4.59ZM13.96 0l-2.19 1.97v1.3h4.25v-1.3zM4.7 0c-.41 0-.75.34-.75.75v.79c0 .41.34.75.75.75s.75-.34.75-.75V.75c0-.4-.34-.75-.75-.75m7.32 13.65c-.41 0-.75.34-.75.75v.79c0 .41.34.75.75.75s.75-.34.75-.75v-.79c0-.41-.34-.75-.75-.75m-2.01-1.59.69.4c.12.07.25.1.37.1.26 0 .51-.13.65-.38.21-.36.08-.82-.27-1.02l-.69-.4a.746.746 0 0 0-.75 1.29Zm1.44.94a.74.74 0 0 0-1.02-.27l-.69.4c-.36.21-.48.67-.27 1.02.14.24.39.38.65.38.13 0 .26-.03.37-.1l.69-.4c.36-.21.48-.67.27-1.02ZM1.36 3.12l.69.4c.12.07.25.1.37.1.26 0 .51-.13.65-.38.21-.36.08-.82-.27-1.02l-.69-.4a.746.746 0 0 0-.75 1.29Zm6.68 2.13-.69-.4c-.36-.21-.82-.08-1.02.27s-.08.82.27 1.02l.69.4c.12.07.25.1.37.1.26 0 .51-.13.65-.38.21-.36.08-.82-.27-1.02Zm-.75-3.43-.69.4c-.36.21-.48.67-.27 1.02.14.24.39.38.65.38.13 0 .26-.03.37-.1l.69-.4c.36-.21.48-.67.27-1.02a.74.74 0 0 0-1.02-.27Z"/>
</svg>
