<svg viewBox="0 0 24 24" xmlns="http://www.w3.org/2000/svg">
  <path d="M8.12 12.86v1.58H.02v-1.58c0-.83.67-1.5 1.5-1.5h1.59c-.17-1.89.4-4.83 3.65-5.91A.88.88 0 0 1 7.87 6a.88.88 0 0 1-.55 1.11c-2.59.86-2.54 3.36-2.44 4.25h1.75c.83 0 1.5.67 1.5 1.5ZM.02 23.99h8.1v-7.8H.02zM23.97 2.92 21.11 0l-3.09 2.96v1.21h6V2.96l-.04-.05Zm-5.95 11.12h1.66c-.06 1.41-.42 3.66-1.71 4.46l.93 1.48c2.09-1.31 2.48-4.41 2.54-5.95h.82V24h1.75V5.92h-6v8.12ZM7.03 3.21c.48 0 .87-.39.87-.88V1.14c0-.48-.39-.88-.87-.88s-.87.39-.87.88v1.19c0 .48.39.88.87.88m10.99 17.51c-.48 0-.87.39-.87.88v1.19c0 .48.39.88.87.88s.87-.39.87-.88V21.6a.88.88 0 0 0-.87-.88m2.95-.57c-.34-.34-.9-.34-1.24 0s-.34.9 0 1.24l.84.84c.17.17.4.26.62.26s.45-.08.62-.26c.34-.34.34-.9 0-1.24zm-5.84-2.28 1.03.6c.14.08.29.12.44.12.3 0 .6-.16.76-.44.24-.42.1-.95-.32-1.2l-1.03-.6a.88.88 0 0 0-1.2.32c-.24.42-.1.95.32 1.2m.62 1.43-1.03.59a.88.88 0 0 0 .44 1.64c.15 0 .3-.04.44-.12l1.03-.59a.88.88 0 0 0 .32-1.2.88.88 0 0 0-1.2-.32M2.15 4.47l1.03.59c.14.08.29.12.44.12.3 0 .6-.16.76-.44.24-.42.1-.95-.32-1.2l-1.03-.59a.88.88 0 0 0-1.2.32c-.24.42-.1.95.32 1.2m9.77 3.62-1.03-.59a.88.88 0 0 0-1.2.32c-.24.42-.1.95.32 1.2l1.03.59c.14.08.29.12.44.12.3 0 .6-.16.76-.44.24-.42.1-.95-.32-1.2m-.88-5.13-1.03.59a.88.88 0 0 0 .44 1.64c.15 0 .3-.04.44-.12l1.03-.59a.88.88 0 0 0 .32-1.2.88.88 0 0 0-1.2-.32"/>
</svg>
