<svg viewBox="0 0 64 64" xmlns="http://www.w3.org/2000/svg">
  <path d="M19.15 30.2h-7.11c-.3-2.72-.29-9.78 7.15-12.26a1.377 1.377 0 0 0-.87-2.61c-8.13 2.72-9.52 10.16-9.05 14.88H2.59c-1.38 0-2.49 1.12-2.49 2.5v31.2h21.55v-31.2c0-1.38-1.12-2.5-2.49-2.5Zm-.25 2.76v4.58H2.83v-4.58h16.06ZM2.83 61.16V40.3h16.06v20.86zM63.95 7.78 56.2-.04l-8.22 7.83v29.56h5.38c-.14 3.49-.96 10.19-5.01 12.73l1.45 2.34c5.19-3.25 6.16-11.11 6.31-15.06h5.23v26.61h2.74L63.93 7.8ZM50.73 8.97l5.42-5.16 5.06 5.11v4.17H50.73zM61.2 34.59H50.72v-18.5H61.2zM17.39 6.11V2.93c0-.76.61-1.38 1.37-1.38s1.37.62 1.37 1.38v3.18c0 .76-.61 1.38-1.37 1.38s-1.37-.62-1.37-1.38m31.96 51.4v3.18c0 .76-.61 1.38-1.37 1.38s-1.37-.62-1.37-1.38v-3.18c0-.76.61-1.38 1.37-1.38s1.37.62 1.37 1.38m-3.95-9.68a1.376 1.376 0 0 1-1.87.51l-2.74-1.59c-.66-.38-.88-1.22-.5-1.88s1.22-.88 1.87-.5l2.74 1.59c.66.38.88 1.22.5 1.88Zm-1.1 4.9c.38.66.15 1.5-.5 1.88l-2.74 1.59c-.22.12-.45.18-.68.18-.47 0-.94-.25-1.19-.69-.38-.66-.15-1.5.5-1.88l2.74-1.59c.66-.38 1.5-.15 1.87.5Zm12.76 3.56c.63.42.8 1.28.37 1.91a1.37 1.37 0 0 1-1.9.38l-2.63-1.77a1.37 1.37 0 0 1-.37-1.91c.42-.63 1.27-.8 1.9-.38zM5.74 9.1c.38-.66 1.22-.89 1.87-.51l2.74 1.59c.66.38.88 1.22.5 1.88a1.376 1.376 0 0 1-1.87.51l-2.74-1.59c-.66-.38-.88-1.22-.5-1.88m26.04 15.07a1.376 1.376 0 0 1-1.87.51l-2.74-1.59c-.66-.38-.88-1.22-.5-1.88s1.22-.89 1.87-.51l2.74 1.59c.66.38.88 1.22.5 1.88m0-15.07c.38.66.15 1.5-.5 1.88l-2.74 1.59a1.376 1.376 0 0 1-1.87-.51c-.38-.66-.15-1.5.5-1.88l2.74-1.59c.65-.38 1.49-.15 1.87.51"/>
</svg>
