<svg viewBox="0 0 16 16" xmlns="http://www.w3.org/2000/svg">
  <path d="M12.56 4.48c0 2-1.24 2.88-2.11 2.88.44-2.96-.47-4.8-1.49-5.9S6.81 0 6.81 0c0 2.43-1.52 3.72-2.86 5.31-1.04 1.24-1.96 2.65-1.96 4.93 0 1.09.97 5.76 6.31 5.76 3.02 0 6.05-2.16 6.05-6.16 0-1.93-.64-3.67-1.79-5.36m-2.77 9.59c-.4.39-.99.68-1.84.68-.48 0-.96-.14-1.37-.4-.69-.44-1.19-1.23-1.19-2.35 0-.86.27-1.64.76-2.39 0 .27 0 .51.02.7.02.13.05.23.1.31.08.12.22.19.45.19 0-1.22.46-1.95.93-2.37s.93-.54.93-.54c0 1.93 2.04 1.96 2.04 4.28 0 .3-.16 1.23-.83 1.88Z"/>
</svg>
