<svg viewBox="0 0 32 32" xmlns="http://www.w3.org/2000/svg">
  <path d="M25.11 8.97c0 4-2.47 5.76-4.22 5.76C22.64 2.89 13.62 0 13.62 0c0 8.65-9.63 10.08-9.63 20.48 0 1.97 1.61 9.79 9.83 11.26.54.17 1.1.26 1.66.26.19 0 .37-.02.55-.03.2 0 .38.03.58.03 6.04 0 12.1-4.32 12.1-12.32-.02-3.86-1.29-7.33-3.59-10.72ZM11.96 26.09q0-.33.03-.66c.25.06.53.09.85.09 1.1 0 2-.9 2-2 0-1.4.36-2.37.81-3.03.51.92 1.18 1.62 1.77 2.25 1.04 1.1 1.8 1.9 1.8 3.72 0 .03-.17 3.17-3.2 3.51-.61-.02-1.18-.08-1.72-.17-1.27-.45-2.35-1.64-2.35-3.71Zm8.41 3.23c.67-1.17.87-2.37.87-2.85 0-5.01-4.39-5.07-4.39-9.24 0 0-3.99 1.03-3.99 6.29-1.32 0-1.25-1.03-1.25-2.6-1.05 1.63-1.63 3.3-1.64 5.16 0 .79.12 1.51.33 2.15-3.96-2.73-4.31-7.67-4.31-7.74 0-4.69 2.26-7.24 4.65-9.95 1.79-2.02 3.75-4.25 4.58-7.37 2.05 1.58 4.64 4.89 3.7 11.27l-.34 2.29h2.32c1.74 0 3.51-.94 4.72-2.65a15.2 15.2 0 0 1 1.09 5.6c0 5.05-2.82 8.3-6.34 9.63Z"/>
</svg>
