<svg viewBox="0 0 64 64" xmlns="http://www.w3.org/2000/svg">
  <path d="M57.27 36.53q-.12-1.41-.36-2.79c-.16-.92-.35-1.83-.58-2.74-1.16-4.51-3.23-8.81-6.1-13.05a18 18 0 0 1-.22 2.79c-.43 2.58-1.44 4.56-2.69 5.97-1.67 1.88-3.78 2.76-5.53 2.76C45.28 5.79 27.24.03 27.24.03c0 2.7-.47 5.05-1.26 7.17-.32.85-.69 1.66-1.1 2.44-1.03 1.96-2.32 3.74-3.73 5.46-1.98 2.41-4.18 4.71-6.21 7.24-1.16 1.45-2.27 2.97-3.24 4.63-.49.83-.94 1.69-1.35 2.6-1.44 3.17-2.36 6.87-2.36 11.42s3.88 23.04 25.23 23.04c2.26 0 4.53-.3 6.72-.9 1.46-.4 2.88-.93 4.25-1.59 2.39-1.15 4.6-2.7 6.5-4.63.54-.55 1.06-1.13 1.55-1.75a23 23 0 0 0 2-2.96q.3-.525.57-1.08c.37-.73.7-1.5.99-2.29.15-.4.29-.8.41-1.21.26-.82.48-1.68.65-2.56.09-.44.17-.89.23-1.35.14-.91.23-1.86.27-2.83.02-.49.04-.98.04-1.48 0-.97-.05-1.92-.13-2.86ZM42.23 49.75c-.06.26-.12.53-.2.81-.56 1.99-1.75 4.54-4.09 6.32-1.68 1.27-3.94 2.15-6.98 2.15-5.5 0-11.03-4.16-11.03-11.85.02-3.72 1.17-7.05 3.27-10.32 0 3.14-.14 5.2 2.49 5.2 0-10.53 7.99-12.59 7.99-12.59 0 1.3.21 2.4.58 3.37.26.71.61 1.34 1.01 1.94.25.38.53.75.82 1.1.18.22.37.44.56.65l.63.69.99 1.05c.21.22.42.45.62.67.14.15.27.3.4.46.34.4.67.82.98 1.27.17.24.34.49.49.75 1 1.66 1.69 3.69 1.69 6.51 0 .39-.06 1.03-.23 1.8Z"/>
</svg>
