<svg viewBox="0 0 16 16" xmlns="http://www.w3.org/2000/svg">
  <path d="M12.56 4.5c0 2-1.24 2.88-2.11 2.88C11.32 1.46 6.81.02 6.81.02 6.81 4.34 2 5.06 2 10.26c0 1.03.87 5.25 5.47 5.71.16.03.32.05.48.05.04 0 .07-.01.11-.01.08 0 .16.01.24.01 3.02 0 6.05-2.16 6.05-6.16 0-1.93-.64-3.67-1.79-5.36m-5.64 9.08c.74-.09 1.31-.72 1.31-1.49v-.19c.07.08.14.15.21.22.46.49.68.71.68 1.31-.01.17-.12 1-1.05 1.08-.11 0-.23-.01-.34-.02-.37-.07-.73-.33-.82-.91Zm3.62.39c.05-.22.08-.41.08-.52 0-2.32-2.04-2.35-2.04-4.28 0 0-1.85.48-1.85 2.92-.61 0-.58-.48-.58-1.21-.49.76-.75 1.53-.76 2.39 0 .16.02.32.04.47-1.82-1.22-1.94-3.45-1.94-3.48 0-2.15 1.02-3.31 2.2-4.65.79-.89 1.64-1.86 2.15-3.14.77.83 1.47 2.28 1.11 4.69L8.7 8.88h1.74c.76 0 1.52-.3 2.16-.85.16.6.24 1.21.25 1.83 0 2.09-1.01 3.42-2.32 4.11Z"/>
</svg>
