<svg viewBox="0 0 16 16" xmlns="http://www.w3.org/2000/svg">
  <path d="m13.94 0-2.19 1.97v7.39h1.19c-.04.89-.27 2.34-1.06 2.84l.79 1.27c1.48-.92 1.74-3.04 1.77-4.11h.03v6.59h1.5L16 1.97zm-.69 7.86V4.91h1.22v2.95zm0-4.5v-.72l.66-.59.59.57v.75h-1.25ZM4.91 4.9c.39-.13.61-.56.47-.95a.75.75 0 0 0-.95-.47c-2.26.75-2.66 2.79-2.55 4.1H.99c-.55 0-1 .45-1 1V16h5.4V8.58c0-.55-.45-1-1-1h-1c-.07-.56-.13-2.13 1.51-2.68ZM1.5 14.5v-2.87h2.4v2.87zm2.4-4.37H1.5V9.08h2.4zM5.43.76v.79c0 .41-.34.75-.75.75s-.75-.34-.75-.75V.76a.749.749 0 1 1 1.5-.01Zm7.32 13.64v.79c0 .41-.34.75-.75.75s-.75-.34-.75-.75v-.79c0-.41.34-.75.75-.75s.75.34.75.75m-3.03-3.36c.21-.36.67-.48 1.02-.27l.69.4c.36.21.48.67.27 1.02-.14.24-.39.38-.65.38-.13 0-.26-.03-.37-.1l-.69-.4a.74.74 0 0 1-.27-1.02Zm1.44 2.99-.69.4c-.12.07-.25.1-.37.1-.26 0-.51-.13-.65-.38a.746.746 0 0 1 .27-1.02l.69-.4a.746.746 0 0 1 .75 1.29ZM1.06 2.1a.74.74 0 0 1 1.02-.27l.69.4c.36.21.48.67.27 1.02-.14.24-.39.38-.65.38-.13 0-.26-.03-.37-.1l-.69-.4a.74.74 0 0 1-.27-1.02Zm7.23 4.17c-.14.24-.39.38-.65.38-.13 0-.26-.03-.37-.1l-.69-.4a.74.74 0 0 1-.27-1.02c.21-.36.67-.48 1.02-.27l.69.4c.36.21.48.67.27 1.02Zm0-4.17c.21.36.08.82-.27 1.02l-.69.4c-.12.07-.25.1-.37.1-.26 0-.51-.13-.65-.38a.746.746 0 0 1 .27-1.02l.69-.4c.36-.21.82-.08 1.02.27Z"/>
</svg>
