<svg viewBox="0 0 40 40" xmlns="http://www.w3.org/2000/svg">
  <path d="M11.27 18.93H7.78c-.18-1.61-.21-5.91 4.29-7.41.59-.2.91-.83.71-1.42s-.83-.91-1.42-.71c-5.24 1.74-6.14 6.51-5.85 9.54H2.28c-1.25 0-2.26 1.01-2.26 2.25v18.8h13.5v-18.8c0-1.24-1.01-2.25-2.25-2.25m0 2.25v2.5h-9v-2.5zm-9 16.55V25.94h9v11.79zM35.17 0l-5.15 4.93v18.46h3.11c-.1 2.42-.74 6.3-3.02 7.72l1.19 1.91c3.36-2.1 3.98-7.12 4.07-9.63h2.39v16.62h2.25V4.93zm-2.9 21.14V10.88h5.5v10.26zm0-12.74V5.89l2.85-2.73 2.65 2.69V8.4zM10.59 3.89V1.91c0-.62.5-1.13 1.12-1.13s1.12.5 1.12 1.13v1.98c0 .62-.5 1.13-1.12 1.13s-1.12-.5-1.12-1.13m20.55 32.09v1.98c0 .62-.5 1.13-1.12 1.13s-1.12-.5-1.12-1.13v-1.98c0-.62.5-1.13 1.12-1.13s1.12.5 1.12 1.13m4.81-.85c.46.42.49 1.13.07 1.59-.22.24-.53.37-.83.37-.27 0-.54-.1-.76-.3l-1.46-1.34c-.46-.42-.49-1.13-.07-1.59s1.13-.49 1.59-.07zm-7.32-5.06a1.13 1.13 0 0 1-1.54.41l-1.72-.99a1.126 1.126 0 1 1 1.13-1.95l1.72.99c.54.31.72 1 .41 1.54m-.69 2.79c.31.54.13 1.23-.41 1.54l-1.72.99a1.13 1.13 0 0 1-1.54-.41c-.31-.54-.12-1.23.41-1.54l1.72-.99c.54-.31 1.23-.13 1.54.41M3.33 5.62c.31-.54 1-.72 1.54-.41l1.72.99a1.126 1.126 0 1 1-1.13 1.95l-1.72-.99c-.54-.31-.72-1-.41-1.54M20.1 15.3a1.13 1.13 0 0 1-1.54.41l-1.72-.99a1.126 1.126 0 1 1 1.13-1.95l1.72.99c.54.31.72 1 .41 1.54m0-9.68c.31.54.13 1.23-.41 1.54l-1.72.99a1.13 1.13 0 0 1-1.54-.41c-.31-.54-.13-1.23.41-1.54l1.72-.99c.54-.31 1.23-.13 1.54.41"/>
</svg>
