<svg viewBox="0 0 64 64" xmlns="http://www.w3.org/2000/svg">
  <path d="M21.64 32.71v4.84H.09v-4.84c0-1.38 1.12-2.5 2.49-2.5h6.69c-.46-4.71.93-12.16 9.05-14.88a1.377 1.377 0 0 1 .87 2.61c-7.44 2.49-7.44 9.54-7.15 12.26h7.11c1.38 0 2.49 1.12 2.49 2.5ZM.09 63.91h21.55V40.3H.09zM63.95 7.78 56.2-.04l-8.22 7.83V11h15.96V7.79Zm0 5.97H47.99v23.59h5.38c-.14 3.49-.96 10.19-5.01 12.73l1.45 2.34c5.19-3.25 6.16-11.11 6.31-15.06h5.23v26.61h2.74l-.15-50.21ZM18.76 7.49c.76 0 1.37-.62 1.37-1.38V2.93c0-.76-.61-1.38-1.37-1.38s-1.37.62-1.37 1.38v3.18c0 .76.61 1.38 1.37 1.38m29.22 48.65c-.76 0-1.37.62-1.37 1.38v3.18c0 .76.61 1.38 1.37 1.38s1.37-.62 1.37-1.38v-3.18c0-.76-.61-1.38-1.37-1.38M44.9 45.95l-2.74-1.59a1.37 1.37 0 0 0-1.87.5c-.38.66-.15 1.5.5 1.88l2.74 1.59c.22.12.45.18.68.18.47 0 .94-.25 1.19-.69.38-.66.15-1.5-.5-1.88Zm-2.47 6.27-2.74 1.59c-.66.38-.88 1.22-.5 1.88a1.376 1.376 0 0 0 1.87.51l2.74-1.59c.66-.38.88-1.22.5-1.88s-1.22-.88-1.87-.5Zm12 2.29c-.63-.43-1.48-.26-1.9.38-.42.63-.25 1.49.37 1.91l2.63 1.77c.23.16.5.23.76.23.44 0 .87-.21 1.14-.61.42-.63.25-1.49-.37-1.91zM6.24 10.98l2.74 1.59a1.376 1.376 0 0 0 1.87-.51c.38-.66.15-1.5-.5-1.88L7.61 8.59c-.65-.38-1.49-.15-1.87.51s-.15 1.5.5 1.88m25.04 11.31-2.74-1.59c-.65-.38-1.49-.15-1.87.51s-.15 1.5.5 1.88l2.74 1.59a1.376 1.376 0 0 0 1.87-.51c.38-.66.15-1.5-.5-1.88m-1.37-13.7-2.74 1.59c-.66.38-.88 1.22-.5 1.88a1.376 1.376 0 0 0 1.87.51l2.74-1.59c.66-.38.88-1.22.5-1.88s-1.22-.89-1.87-.51"/>
</svg>
