<svg viewBox="0 0 40 40" xmlns="http://www.w3.org/2000/svg">
  <path d="M13.52 21.18v2.5H.02v-2.5c0-1.24 1.01-2.25 2.25-2.25H5.5c-.29-3.03.62-7.8 5.85-9.54.59-.2 1.23.12 1.42.71.2.59-.12 1.23-.71 1.42-4.51 1.5-4.47 5.8-4.29 7.41h3.49c1.24 0 2.25 1.01 2.25 2.25ZM.02 39.98h13.5V25.94H.02zM39.95 4.86 35.17 0l-5.15 4.93v2.12h10V4.93zm-9.93 18.53h3.11c-.1 2.42-.74 6.3-3.02 7.72l1.19 1.91c3.36-2.1 3.98-7.12 4.07-9.63h2.39v16.62h2.25V9.3h-10v14.09ZM11.71 5.02c.62 0 1.12-.5 1.12-1.13V1.91c0-.62-.5-1.13-1.12-1.13s-1.12.5-1.12 1.13v1.98c0 .62.5 1.13 1.12 1.13m18.31 29.84c-.62 0-1.12.5-1.12 1.13v1.98c0 .62.5 1.13 1.12 1.13s1.12-.5 1.12-1.13v-1.98c0-.62-.5-1.13-1.12-1.13m4.47-1.07c-.46-.42-1.17-.39-1.59.07s-.39 1.17.07 1.59l1.46 1.34c.22.2.49.3.76.3.3 0 .61-.12.83-.37.42-.46.39-1.17-.07-1.59zm-6.27-5.26-1.72-.99a1.126 1.126 0 1 0-1.13 1.95l1.72.99a1.13 1.13 0 0 0 1.54-.41c.31-.54.12-1.23-.41-1.54m-1.81 3.92-1.72.99a1.126 1.126 0 1 0 1.13 1.95l1.72-.99a1.126 1.126 0 1 0-1.13-1.95M3.74 7.16l1.72.99A1.13 1.13 0 0 0 7 7.74c.31-.54.13-1.23-.41-1.54l-1.72-.99a1.126 1.126 0 1 0-1.13 1.95m15.95 6.6-1.72-.99c-.54-.31-1.23-.12-1.54.41-.31.54-.13 1.23.41 1.54l1.72.99a1.13 1.13 0 0 0 1.54-.41c.31-.54.13-1.23-.41-1.54m-1.13-8.55-1.72.99a1.126 1.126 0 1 0 1.13 1.95l1.72-.99a1.126 1.126 0 1 0-1.13-1.95"/>
</svg>
