<svg viewBox="0 0 64 64" xmlns="http://www.w3.org/2000/svg">
  <path fill="#1e1e1c" d="m57.96 22.58 5.4-17.51-2.64 1.02c-.12.04-11.73 4.41-23.59 0-9.84-3.66-18.35-1.84-22.04-.67V1.83c0-1.03-.84-1.88-1.88-1.88h-6.5c-1.03 0-1.88.84-1.88 1.88v62.12h10.25v-25.4c2.76-1.12 12.44-4.43 21.06.31 3.89 2.14 8.16 2.85 12.12 2.85 7.6 0 14.04-2.61 14.45-2.78l1.23-.51-5.99-15.84ZM7.59 61.2V2.7h4.75v58.5zm29.88-24.75c-3.89-2.14-7.9-2.85-11.52-2.85-4.62 0-8.6 1.16-10.86 1.99V8.31c2.63-.92 11.22-3.32 21.08.35 9.52 3.54 18.64 1.95 22.96.8l-4.08 13.21 5.36 14.17c-3.65 1.23-14.55 4.23-22.94-.39"/>
</svg>
