<svg viewBox="0 0 48 48" xmlns="http://www.w3.org/2000/svg">
  <path fill="#1e1e1c" d="m43.57 17.47 4.07-13.78-2.4.96c-.08.03-8.51 3.34-17.1 0C21.11 1.92 15 3.13 12.1 4.03V1.75C12.1.79 11.32 0 10.35 0H4.6c-.96 0-1.75.79-1.75 1.75V48h9.25V29.85c2.12-.88 8.97-3.24 15.08.27 2.9 1.67 6.08 2.22 9.02 2.22 5.64 0 10.42-2.02 10.71-2.15l1.08-.47-4.43-12.25ZM9.6 45.5H5.35v-43H9.6zm18.83-17.55c-2.9-1.67-5.89-2.22-8.59-2.22-3.21 0-6.01.79-7.74 1.42V6.67c2.04-.72 8.15-2.4 15.13.31C34 9.61 40.5 8.59 43.84 7.71l-2.91 9.84 3.89 10.75c-2.82.96-10.49 3.05-16.4-.35Z"/>
</svg>
