<svg viewBox="0 0 32 32" xmlns="http://www.w3.org/2000/svg">
  <path fill="#1e1e1c" d="m29.06 11.68 2.77-9.32-1.92.76c-.06.02-5.56 2.16-11.17 0-4.53-1.75-8.5-1.06-10.5-.47V1.49C8.24.67 7.57 0 6.74 0h-3.5c-.83 0-1.5.67-1.5 1.49V32h6.5V19.92c1.47-.59 5.84-2.01 9.72.2 1.94 1.11 4.07 1.48 6.04 1.48 3.76 0 6.95-1.34 7.15-1.42l.86-.37-2.96-8.13ZM6.24 30.02h-2.5V1.99h2.5zM18.96 18.4c-1.94-1.11-3.95-1.48-5.75-1.48-2.01 0-3.77.46-4.94.86V4.73c1.43-.48 5.32-1.47 9.75.24 4.31 1.67 8.47 1.12 10.78.56l-1.85 6.21 2.53 6.93c-1.96.64-6.79 1.86-10.52-.27"/>
</svg>
