<svg viewBox="0 0 40 40" xmlns="http://www.w3.org/2000/svg">
  <path fill="#1e1e1c" d="m36.23 14.94 3.74-12.69-3.82 1.52c-.06.03-6.46 2.52-12.94 0-6.5-2.53-12.12-1.03-14.19-.28V.44c0-.28-.22-.5-.5-.5H3.89c-.28 0-.5.22-.5.5v39.5h5.62V26.48l.91-.46c.06-.03 6.31-3.12 11.65-.05 2.48 1.43 5.2 1.9 7.7 1.9 4.74 0 8.72-1.69 8.98-1.8l1.73-.75-3.75-10.39ZM23.57 22.5c-2.49-1.43-5.04-1.91-7.35-1.91-2 0-3.8.36-5.2.76V7.04c1.94-.57 6.08-1.35 10.73.46 4.67 1.82 9.19 1.55 12.21.99l-1.94 6.57L34.89 23c-2.59.76-7.49 1.7-11.32-.51Z"/>
</svg>
