<svg viewBox="0 0 48 48" xmlns="http://www.w3.org/2000/svg">
  <path fill="#1e1e1c" d="m43.52 17.91 4.43-15.02-4.3 1.71c-.08.03-7.86 3.06-15.75 0-7.87-3.06-14.64-1.2-17.07-.32V.49c0-.28-.22-.5-.5-.5H4.58c-.28 0-.5.22-.5.5v47.5h6.75V31.63l1.03-.52c.08-.04 7.69-3.8 14.23-.05 2.97 1.71 6.22 2.27 9.22 2.27 5.68 0 10.47-2.03 10.77-2.16l1.94-.84zm-15.2 9.24c-2.97-1.71-6.04-2.28-8.79-2.28-2.5 0-4.74.46-6.44.97V8.26c2.31-.7 7.43-1.72 13.19.52 5.74 2.23 11.3 1.84 14.92 1.14l-2.4 8.13 3.51 9.68c-3.1.93-9.21 2.16-13.97-.58Z"/>
</svg>
