<svg viewBox="0 0 48 48" xmlns="http://www.w3.org/2000/svg">
  <path fill="#1e1e1c" d="M33.86 30.38 17.03 13.54 26.45.52c.32-.44.88-.62 1.4-.46.51.17.86.65.86 1.19v17.73h10.95c.47 0 .9.26 1.11.68s.17.92-.1 1.3l-6.81 9.41Zm-26.6-3.34c-.28.38-.31.88-.1 1.3s.64.68 1.11.68h10.95v17.73c0 .54.35 1.02.86 1.19q.195.06.39.06c.39 0 .77-.19 1.01-.52l9.41-13-16.83-16.84zm36.02 14.53L6.36 4.64c-.49-.49-1.28-.49-1.77 0s-.49 1.28 0 1.77L41.5 43.34c.24.24.56.37.88.37s.64-.12.88-.37c.49-.49.49-1.28 0-1.77Z"/>
</svg>
