<svg viewBox="0 0 64 64" xmlns="http://www.w3.org/2000/svg">
  <path fill="#1e1e1c" d="m24.44 20.62-1.97-1.97L35.55.58c.35-.48.97-.69 1.54-.5.57.18.95.71.95 1.31v24.17h15.05c.52 0 .99.29 1.22.75s.19 1.01-.11 1.43l-9.51 13.14-1.97-1.97 7.68-10.6H36.66c-.76 0-1.38-.62-1.38-1.38V5.63L24.43 20.62Zm4.18 37.77V37.08c0-.76-.62-1.38-1.38-1.38H13.5l7.66-10.58-1.97-1.97-9.5 13.12c-.3.42-.35.97-.11 1.43s.71.75 1.22.75h15.05v24.17c0 .6.38 1.12.95 1.31.14.05.28.07.42.07.43 0 .85-.21 1.11-.57L41.4 45.38l-1.97-1.97-10.84 14.97Zm29.12-2.52L8.03 6.16c-.54-.54-1.41-.54-1.95 0s-.54 1.41 0 1.95l49.71 49.72c.27.27.62.4.97.4s.7-.13.97-.4c.54-.54.54-1.41 0-1.95Z"/>
</svg>
