<svg viewBox="0 0 32 32" xmlns="http://www.w3.org/2000/svg">
  <path fill="#1e1e1c" d="m12.91 10.12-1.43-1.43 6-8.27c.25-.35.71-.5 1.12-.36a1 1 0 0 1 .69.95v11.51h7.05a.997.997 0 0 1 .81 1.58l-4.3 5.94-1.43-1.43 2.97-4.1H18.3c-.55 0-1-.45-1-1V4.09l-4.37 6.03Zm1.76 17.8v-9.43c0-.55-.45-1-1-1H7.58l2.96-4.09-1.43-1.43-4.3 5.93a.997.997 0 0 0 .81 1.58h7.05V31a1 1 0 0 0 1 1c.31 0 .62-.15.81-.41l5.99-8.26-1.43-1.43-4.36 6.02Zm14.17-.46L4.49 3.11a.996.996 0 1 0-1.41 1.41l24.36 24.35c.2.2.45.29.71.29s.51-.1.71-.29a.996.996 0 0 0 0-1.41Z"/>
</svg>
