<svg viewBox="0 0 40 40" xmlns="http://www.w3.org/2000/svg">
  <path d="M28.29 0H5.06v40h30.35V8.82zm4.87 9.62v1.41h-8.29a.49.49 0 0 1-.49-.49V2.26h2.83zM7.31 37.76V2.26h14.82v8.28c0 1.51 1.23 2.74 2.74 2.74h8.29v24.49H7.31Zm9.19-17.45-2.54 2.54 2.54 2.54a1.123 1.123 0 0 1-.79 1.92c-.28 0-.58-.11-.8-.33l-4.13-4.12 4.13-4.12c.44-.44 1.15-.44 1.59 0s.44 1.15 0 1.59Zm8.61-1.59 4.13 4.12-4.13 4.12c-.22.22-.51.33-.8.33s-.58-.11-.8-.33c-.44-.44-.44-1.15 0-1.59l2.54-2.53-2.54-2.53c-.44-.44-.44-1.15 0-1.59s1.15-.44 1.59 0Z"/>
</svg>
