<svg viewBox="0 0 40 40" xmlns="http://www.w3.org/2000/svg">
  <path d="M28.29 0H5.06v40h30.35V8.82zm4.87 9.62v1.41h-8.29a.49.49 0 0 1-.49-.49V2.26h2.83zM7.31 37.76V2.26h14.82v8.28c0 1.51 1.23 2.74 2.74 2.74h8.29v24.49H7.31Zm8.57-16.17c-.44-.44-.44-1.15 0-1.59l4.13-4.12L24.14 20a1.123 1.123 0 0 1-.8 1.92c-.29 0-.58-.11-.8-.33L20 19.05l-2.54 2.53c-.44.44-1.15.44-1.59 0Zm8.26 7.01c.44.44.44 1.15 0 1.59l-4.13 4.12-4.13-4.12c-.44-.44-.44-1.15 0-1.59s1.15-.44 1.59 0l2.54 2.53 2.54-2.53c.44-.44 1.15-.44 1.59 0"/>
</svg>
