<svg viewBox="0 0 64 64" xmlns="http://www.w3.org/2000/svg">
  <path d="M45.24.04H8.19v64h48.38V14.05zm8.58 14.98v2.89H39.91c-.69 0-1.25-.56-1.25-1.25V2.78h5.27zM10.94 61.29V2.78h24.97v13.88c0 2.2 1.8 3.99 4 3.99h13.91v40.63H10.94Zm15.05-29.08-4.44 4.43 4.44 4.43c.54.54.54 1.41 0 1.94-.27.27-.62.4-.97.4s-.7-.13-.97-.4l-6.38-6.37 6.38-6.37c.54-.54 1.41-.54 1.95 0s.54 1.41 0 1.94Zm13.98-1.94 6.38 6.37-6.38 6.37c-.27.27-.62.4-.97.4s-.7-.13-.97-.4c-.54-.54-.54-1.41 0-1.94l4.44-4.43-4.44-4.43c-.54-.54-.54-1.41 0-1.94.54-.54 1.41-.54 1.95 0Z"/>
</svg>
