<svg viewBox="0 0 32 32" xmlns="http://www.w3.org/2000/svg">
  <path d="M2.02 27.32H32v4.69H2.02zm29.9-12.93c-1.87 2.48-4.83 4.09-8.17 4.09-4.31 0-7.99-2.67-9.51-6.44H3.77c-.97 0-1.75.78-1.75 1.75v11.54H32V15.04c0-.22-.03-.44-.07-.65Zm-18.25-4.35c-.1-.58-.17-1.18-.17-1.79 0-1.12.19-2.19.52-3.2H3c-1.66 0-3 1.34-3 2.99v23.97h.02V13.79c0-2.07 1.68-3.75 3.75-3.75zm1.83-1.79c0-4.54 3.7-8.23 8.25-8.23s8.24 3.69 8.24 8.23-3.7 8.23-8.24 8.23-8.24-3.69-8.24-8.23Zm3.53 0c0 .55.45 1 1 1h2.72v2.71c0 .55.45 1 1 1s1-.45 1-1V9.25h2.72c.55 0 1-.45 1-1s-.45-1-1-1h-2.72V4.54c0-.55-.45-1-1-1s-1 .45-1 1v2.71h-2.72c-.55 0-1 .45-1 1"/>
</svg>
