<svg viewBox="0 0 64 64" xmlns="http://www.w3.org/2000/svg">
  <path d="M63.12 27.72c.53.83.85 1.82.85 2.88v24.11H2.74V29.85a4.64 4.64 0 0 1 4.63-4.63h22.96C33.51 31.49 40 35.8 47.49 35.8c6.44 0 12.14-3.19 15.64-8.07ZM2.74 64h61.24v-6.54H2.74zm26.44-41.54c-.61-1.87-.95-3.87-.95-5.94 0-1.85.28-3.62.76-5.32H5.37A5.39 5.39 0 0 0 0 16.59v13.18c.04-4.03 3.33-7.3 7.37-7.3h21.81Zm1.8-5.94C30.98 7.41 38.38 0 47.48 0s16.51 7.41 16.51 16.52-7.4 16.52-16.51 16.52-16.51-7.41-16.51-16.52Zm7.94 0c0 .76.62 1.38 1.38 1.38h5.81v5.82c0 .76.62 1.38 1.38 1.38s1.38-.62 1.38-1.38V17.9h5.81c.76 0 1.38-.62 1.38-1.38s-.62-1.38-1.38-1.38h-5.81V9.32c0-.76-.62-1.38-1.38-1.38s-1.38.62-1.38 1.38v5.82H40.3c-.76 0-1.38.62-1.38 1.38"/>
</svg>
