<svg viewBox="0 0 32 32" xmlns="http://www.w3.org/2000/svg">
  <path d="M29.99 16.48v8.71H2.02v-9.47c0-.97.79-1.75 1.75-1.75h9.9c-.33-.63-.59-1.3-.79-2H3.77c-.64 0-1.24.18-1.77.47V7.97c0-.55.45-1 1-1h9.77c.16-.7.39-1.37.68-2H3a2.99 2.99 0 0 0-3 3v24.02h32V14.97c0-.34-.07-.67-.18-.98-.48.92-1.1 1.76-1.82 2.48Zm0 13.5H2v-2.79h28v2.79Zm-7.24-11.5c5.1 0 9.25-4.15 9.25-9.25S27.85-.02 22.75-.02 13.5 4.13 13.5 9.23s4.15 9.25 9.25 9.25m0-16.49c3.99 0 7.25 3.25 7.25 7.25s-3.25 7.25-7.25 7.25-7.24-3.25-7.24-7.25 3.25-7.25 7.24-7.25m-4.32 7.24c0-.55.45-1 1-1h2.31V5.91c0-.55.45-1 1-1s1 .45 1 1v2.32h2.32c.55 0 1 .45 1 1s-.45 1-1 1h-2.32v2.32c0 .55-.45 1-1 1s-1-.45-1-1v-2.32h-2.31c-.55 0-1-.45-1-1"/>
</svg>
