<svg viewBox="0 0 24 24" xmlns="http://www.w3.org/2000/svg">
  <path d="M23.98 11.08v7.9H1.24V10.1c0-.76.62-1.38 1.38-1.38h7.85c1.08 3.06 3.99 5.27 7.41 5.27 2.46 0 4.66-1.14 6.1-2.92ZM10.14 7.47q-.12-.66-.12-1.35c0-.93.17-1.82.47-2.65H2.37c-1.31 0-2.38 1.06-2.38 2.37v4.25c0-1.45 1.18-2.62 2.62-2.62h7.52ZM1.24 24h22.74v-3.77H1.24zM11.76 6.12C11.76 2.75 14.5 0 17.88 0s6.11 2.75 6.11 6.12-2.74 6.12-6.11 6.12-6.11-2.75-6.11-6.12Zm2.43 0c0 .48.39.88.88.88h1.94v1.94c0 .48.39.88.88.88s.88-.39.88-.88V7h1.93c.48 0 .88-.39.88-.88s-.39-.88-.88-.88h-1.93V3.3c0-.48-.39-.88-.88-.88s-.88.39-.88.88v1.94h-1.94c-.48 0-.88.39-.88.88"/>
</svg>
