<svg viewBox="0 0 48 48" xmlns="http://www.w3.org/2000/svg">
  <path d="M2.49 41.68h45.49V48H2.49zm33.13-14.44c-6.02 0-11.21-3.6-13.54-8.76H5.45c-1.63 0-2.95 1.32-2.95 2.95v17.74h45.49V22.73c0-.59-.12-1.15-.34-1.66-2.71 3.73-7.09 6.16-12.03 6.16ZM21.2 15.98c-.29-1.16-.46-2.37-.46-3.62 0-1.99.4-3.89 1.11-5.62-.09 0-.17-.02-.26-.02H4.24A4.26 4.26 0 0 0 0 10.98V48 21.44c0-3.01 2.44-5.46 5.45-5.46h15.76Zm2.04-3.61C23.24 5.55 28.79 0 35.62 0S48 5.55 48 12.37s-5.55 12.37-12.38 12.37-12.37-5.55-12.37-12.37Zm5.65 0c0 .69.56 1.25 1.25 1.25h4.23v4.23a1.25 1.25 0 0 0 2.5 0v-4.23h4.23a1.25 1.25 0 0 0 0-2.5h-4.23V6.89a1.25 1.25 0 0 0-2.5 0v4.23h-4.23c-.69 0-1.25.56-1.25 1.25"/>
</svg>
