<svg viewBox="0 0 64 64" xmlns="http://www.w3.org/2000/svg">
  <path d="M62.84 27.34c-.51.9-1.08 1.75-1.72 2.55.07.23.11.47.11.73v23.94H2.77V32.63A4.64 4.64 0 0 1 7.4 28h22.34c-.54-.88-1.03-1.79-1.43-2.75H7.4c-1.77 0-3.4.63-4.67 1.67V16.61c0-1.45 1.18-2.63 2.63-2.63h21.9c.2-.95.48-1.86.81-2.75H5.36A5.367 5.367 0 0 0-.02 16.6v47.41h64v-33.4c0-1.24-.44-2.37-1.14-3.28Zm-1.61 33.92H2.73V57.3h58.5zm-15.14-25.5c9.85 0 17.87-8.02 17.87-17.87S55.95.01 46.09.01 28.23 8.03 28.23 17.88s8.01 17.87 17.86 17.87Zm0-32.99c8.33 0 15.11 6.78 15.11 15.12s-6.78 15.12-15.11 15.12-15.11-6.78-15.11-15.12S37.76 2.77 46.09 2.77m-8 15.12c0-.76.62-1.38 1.38-1.38h5.25v-5.26c0-.76.62-1.38 1.38-1.38s1.38.62 1.38 1.38v5.26h5.25c.76 0 1.38.62 1.38 1.38s-.62 1.38-1.38 1.38h-5.25v5.26c0 .76-.62 1.38-1.38 1.38s-1.38-.62-1.38-1.38v-5.26h-5.25c-.76 0-1.38-.62-1.38-1.38"/>
</svg>
