<svg viewBox="0 0 48 48" xmlns="http://www.w3.org/2000/svg">
  <path d="M47.45 20.68a14.8 14.8 0 0 1-1.96 2.8v15.69H2.52V23.91c0-1.63 1.32-2.96 2.95-2.96h15.94c-.45-.79-.82-1.63-1.12-2.5H5.47c-1.1 0-2.12.33-2.98.89v-8.42c0-.97.79-1.75 1.75-1.75h15.93c.27-.87.63-1.71 1.05-2.5H4.24c-2.34 0-4.25 1.91-4.25 4.26v37.08h48v-25.3c0-.74-.21-1.42-.54-2.03M45.49 45.5h-43v-3.83h43zM34.35 27.29c7.51 0 13.62-6.12 13.62-13.64S41.86 0 34.35 0 20.73 6.12 20.73 13.64s6.11 13.64 13.62 13.64Zm0-24.78c6.13 0 11.12 5 11.12 11.13s-4.99 11.13-11.12 11.13-11.12-5-11.12-11.13S28.22 2.51 34.35 2.51m-6.22 11.14c0-.69.56-1.25 1.25-1.25h3.72V8.67a1.25 1.25 0 0 1 2.5 0v3.73h3.72a1.25 1.25 0 0 1 0 2.5H35.6v3.73a1.25 1.25 0 0 1-2.5 0V14.9h-3.72c-.69 0-1.25-.56-1.25-1.25"/>
</svg>
