<svg viewBox="0 0 40 40" xmlns="http://www.w3.org/2000/svg">
  <path d="M4.57 12.98c-2.51 0-4.56 2.05-4.56 4.57V40h-.03V9.87c0-1.86 1.52-3.38 3.38-3.38H17.7c-.38 1.2-.6 2.48-.6 3.81 0 .92.11 1.81.29 2.68zm35.41 19.28V18.62c0-.34-.06-.66-.16-.97-2.28 3.15-5.98 5.21-10.16 5.21-5.18 0-9.63-3.15-11.55-7.63H4.57c-1.28 0-2.31 1.04-2.31 2.31v22.45h37.72V34.5H2.27v-2.25h37.71ZM19.36 10.31C19.36 4.63 23.98 0 29.66 0s10.31 4.62 10.31 10.31-4.62 10.31-10.31 10.31S19.35 16 19.35 10.31Zm4.58 0c0 .62.5 1.13 1.13 1.13h3.47v3.47c0 .62.5 1.13 1.13 1.13s1.13-.5 1.13-1.13v-3.47h3.47c.62 0 1.13-.5 1.13-1.13s-.5-1.13-1.13-1.13H30.8V5.71c0-.62-.5-1.13-1.13-1.13s-1.13.5-1.13 1.13v3.47h-3.47c-.62 0-1.13.5-1.13 1.13"/>
</svg>
