<svg viewBox="0 0 48 48" xmlns="http://www.w3.org/2000/svg">
  <path d="M40.13.37c-.49-.49-1.28-.49-1.77 0s-.49 1.28 0 1.77l4.85 4.84H20.75c-2.06 0-3.74 1.68-3.74 3.74v9.7H0V48h35.6V20.42H19.52v-9.7c0-.69.56-1.24 1.24-1.24h22.46l-4.85 4.85a1.25 1.25 0 0 0 0 1.77c.24.24.56.37.88.37s.64-.12.88-.37l7.86-7.86zM24.32 34.25l8.77-9.4v18.17zm-2.27 2.44.56-.6 9.42 9.42H3.55l9.42-9.42.56.6c1.13 1.21 2.65 1.88 4.26 1.88s3.13-.67 4.26-1.88M2.5 43.02V24.85l8.77 9.4zm28.97-20.09L20.23 34.98c-1.31 1.4-3.55 1.41-4.86 0L4.13 22.93h12.89v6.05h2.5v-6.05h11.96Z"/>
</svg>
