<svg viewBox="0 0 48 48" xmlns="http://www.w3.org/2000/svg">
  <path d="M10.54 34.9.02 45.42v-21.8L10.55 34.9Zm12.02 2.67c-1.27 1.36-2.96 2.1-4.76 2.1s-3.5-.75-4.76-2.1l-.78-.84L.96 48.02h33.67L23.34 36.74l-.78.84Zm13.01 7.85v-21.8L25.04 34.9zM40.44.67c-.88-.88-2.3-.88-3.18 0s-.88 2.3 0 3.18l2.14 2.14H20.75c-2.62 0-4.74 2.13-4.74 4.74v10.96H1.64l13.22 14.16c.79.84 1.83 1.31 2.93 1.31s2.15-.47 2.93-1.31l13.22-14.16H20.51V10.73c0-.13.11-.24.24-.24H39.4l-2.14 2.14c-.88.88-.88 2.3 0 3.18.44.44 1.01.66 1.59.66s1.15-.22 1.59-.66l7.58-7.57z"/>
</svg>
