<svg viewBox="0 0 32 32" xmlns="http://www.w3.org/2000/svg">
  <path d="M26.69.29a.996.996 0 1 0-1.41 1.41l2.89 2.89H13.83c-1.46 0-2.64 1.19-2.64 2.64v6.22H0v18.53h23.81V13.46H13.18V7.24c0-.35.29-.64.64-.64h14.34l-2.89 2.89a.996.996 0 0 0 .71 1.7c.26 0 .51-.1.71-.29L32 5.59zM16.45 22.75 21.81 17v11.11zm-1.61 1.73.25-.26L20.87 30H2.93l5.78-5.78.25.26c.78.84 1.82 1.3 2.94 1.3s2.16-.46 2.94-1.3M1.99 28.11V17l5.36 5.75zm18.52-12.65-7.13 7.65c-.8.85-2.15.85-2.95 0L3.3 15.46h7.89v3.82h2v-3.82h7.33Z"/>
</svg>
