<svg viewBox="0 0 16 16" xmlns="http://www.w3.org/2000/svg">
  <path d="m15.98 3.88-.85-.33-.66.12L14 3.1l-.48.02-.32-.32-1.08-.92-.06-.16-.81.21-.2-.58-.69-.34-.34-.55-.38.24-.9-.7h-.05l-.66 1.05-.1.22.1.08-1.7 1.04-.22.77-.49-.02-.21-.5-1.83-.02.33.96-.05.46.35.35-.24.29-.06.13-.79.14-.62-.07-.61-.65-.46.12.05.12-.13.19-.73-.12-.61.61.03.63.42.5.58-.1.94.6.32-.04.57.2.03.35.39.65 1.24 1.11.02.54-.13.6.2 1.73-.85 2.4.45.24.09.21 2.11.59.79-.11 1.11.35 1.01.41.64-1.42 1.17-.66.88.29 1.63.61.69-.27.09-.28.62-.57.25-.07.34-.62-.85-.28.09-.79-.34-.6.38-.56-.13-.55.16-.5-1.03-.62.72-2.02.82-.33.51-2.89Z"/>
</svg>
