<svg viewBox="0 0 64 64" xmlns="http://www.w3.org/2000/svg">
  <path d="m35.56 3.92 1.32 1.02 1.52 1.17.79-.49.32.52.71.35 1.77.87.43 1.25.83 2.39 2.45-.62 1.46-.37 3.78 3.23 1.22 1.21.85.84 1.19-.04.58-.02 1.03 1.24 1.03 1.25 1.59-.3 1.86-.35.56.22-1.38 7.83-1.86.74-1.16.46-.42 1.17-2.88 8.06-.76 2.13 1.94 1.16 2.24 1.34-.21.64.18.75.24 1.02-.84 1.25-.96 1.43.86 1.49.93 1.6-.25 2.25-.25 2.21 1.55.52-1.89 1.74-.52.48-.19.57-.58.23-5.52-2.08-.06-.02-.06-.02-3.52-1.15-1.15-.38-1.05.59-4.67 2.63-.79.44-.37.82-1.48 3.29-1.6-.65-.1-.04-.1-.03-4.46-1.42-.59-.19-.61.08-2.59.35-6.63-1.86-.22-.5-.56-.31 2.6-7.37.21-.6-.07-.63-.73-6.48.42-1.95.07-.33v-.33l-.08-2.17-.04-1.18-.88-.79-4.67-4.17-1.03-1.7-.08-.78-.17-1.76-1.68-.57-2.29-.78-.62-.21-.65.09-.26.04-2.92-1.86-.9-.57-1.05.18-.75.13-.05-.06-.02-.34.6-.58 1.55.26 1.71.28.65-.93.69.74.7.75 1.02.11 2.49.27.4.04.39-.07 3.16-.57 1.4-.25.6-1.29.1-.22.74-.9 1.58-1.93-1.77-1.76-.49-.49.05-.52.06-.59-.19-.57-.06-.17 1.61.02.13.3.67 1.62 1.75.07 1.94.08 2.16.09.6-2.08.59-2.05 5.87-3.61 3.2-1.97-1.54-1.32.34-.53M34.79 0l-2.65 4.19-.41.89.38.33-6.78 4.17-.88 3.08-1.94-.08-.82-1.98-7.31-.07 1.31 3.84-.18 1.82 1.42 1.41-.96 1.17-.25.53-3.16.57-2.49-.27-2.44-2.62-1.83.47.19.47-.52.75-2.92-.48-2.5 2.41.12 2.51 1.68 1.98 2.31-.4 3.77 2.4 1.27-.18 2.29.78.14 1.4 1.57 2.58 4.98 4.44.07 2.17-.51 2.39.78 6.93-3.38 9.58 1.79.98.36.83 8.43 2.36 3.15-.42 4.46 1.42 4.05 1.64 2.57-5.7 4.67-2.63 3.52 1.15 6.51 2.46 2.76-1.09.38-1.11 2.47-2.27 1.01-.3 1.38-2.48-3.4-1.14.35-3.15-1.38-2.39 1.52-2.25-.52-2.19.65-2-4.13-2.46 2.88-8.06 3.29-1.3 2.03-11.58-3.4-1.31-2.62.49-1.89-2.28-1.93.07-1.29-1.28L48.5 7.5l-.24-.63-3.23.82-.8-2.32L41.45 4l-1.36-2.2-1.51.94L34.98 0h-.18Z"/>
</svg>
