<svg viewBox="0 0 32 32" xmlns="http://www.w3.org/2000/svg">
  <path d="m18.67 3.44.49.38.31-.19.36.18.65.32.13.38.6 1.74 1.78-.45.42-.11 1.63 1.39.59.59.61.61.85-.03.32.38.75.91 1.16-.22.35-.07-.5 2.85-.6.24-.84.33-.3.85-1.44 4.03-.55 1.55 1.41.84.69.41.13.56.06.25-.27.4-.7 1.04.63 1.08.36.62-.1.92-.18 1.61.25.08-.17.15-.38.35v.02l-2.38-.9-.04-.02h-.04l-1.76-.59-.84-.27-.77.43L19 27.4l-.57.32-.27.6-.49 1.1-.25-.1-.07-.03-.07-.02-2.23-.71-.43-.14-.44.06-1.17.16-2.91-.82-.08-.17 1.12-3.19.15-.43-.05-.46-.35-3.14.19-.88.05-.24v-.24l-.04-1.09-.03-.86-.64-.57-2.27-2.02-.39-.65-.02-.25-.13-1.28-1.22-.42h-.02l.26-.05 1.58-.29 1.02-.18.44-.94.02-.04.32-.39 1.15-1.4-.4-.4.41.02.97.04 1.57.07.43-1.51.23-.79 2.73-1.68 1.57-.96M17.4 0l-1.33 2.09-.2.45.19.17-3.39 2.08-.44 1.54-.97-.04-.41-.99-3.66-.04.66 1.92-.09.91.71.71-.48.58-.12.27-1.58.29-1.25-.14-1.22-1.31-.92.24.1.23-.26.37-1.46-.24L.03 10.3l.06 1.26.84.99 1.15-.2 1.89 1.2.63-.09 1.14.39.07.7.78 1.29 2.49 2.22.03 1.09-.25 1.19.39 3.46-1.69 4.79.9.49.18.42 4.21 1.18 1.58-.21 2.23.71 2.03.82 1.28-2.85 2.34-1.32 1.76.58 3.25 1.23 1.38-.54.19-.56 1.23-1.14.51-.15.69-1.24-1.7-.57.18-1.57-.69-1.19.76-1.13-.26-1.1.32-1-2.06-1.23 1.44-4.03 1.64-.65 1.02-5.79-1.7-.65-1.31.25-.94-1.14-.97.03-.64-.64-2.16-1.84-.12-.32-1.61.41-.4-1.16L20.73 2 20.05.9l-.75.47L17.49 0z"/>
</svg>
