<svg viewBox="0 0 24 24" xmlns="http://www.w3.org/2000/svg">
  <path d="m23.97 5.82-1.28-.49-.98.18-.71-.86-.72.03-.48-.48-1.62-1.38-.09-.24-1.21.31-.3-.87-1.04-.51-.51-.83-.57.35L13.12 0h-.07l-1 1.57-.15.33.14.12L9.5 3.58l-.33 1.15-.73-.03-.31-.74-2.74-.03.49 1.44-.07.68.53.53-.36.44-.09.2-1.19.22-.93-.1-.92-.98-.69.18.07.18-.2.28-1.1-.18-.91.9.05.94.63.74.86-.15 1.42.9.48-.07.86.29.05.53.59.97 1.87 1.67.03.82-.19.9.29 2.6-1.27 3.59.67.37.14.31 3.16.89 1.18-.16 1.67.53 1.52.61.96-2.14 1.75-.99 1.32.43 2.44.92 1.03-.41.14-.42.93-.85.38-.11.52-.93-1.27-.43.13-1.18-.52-.9.57-.84-.19-.82.24-.75-1.55-.92 1.08-3.02 1.23-.49.76-4.34Z"/>
</svg>
