<svg viewBox="0 0 64 64" xmlns="http://www.w3.org/2000/svg">
  <path d="M55.83 55.47c0 3.19-2.59 5.79-5.78 5.79s-5.78-2.6-5.78-5.79 2.59-5.79 5.78-5.79 5.78 2.6 5.78 5.79M12.4 49.68c-3.19 0-5.78 2.6-5.78 5.79 0 .34.04.68.09 1.01.48 2.71 2.84 4.78 5.69 4.78s5.21-2.07 5.69-4.79c.06-.33.09-.66.09-1 0-3.19-2.59-5.79-5.78-5.79m51.54-17.17-.06 4.9v15.02c0 2.24-1.82 4.06-4.06 4.06h-1.31c.04-.34.07-.68.07-1.03 0-4.71-3.83-8.54-8.53-8.54s-8.53 3.83-8.53 8.54c0 .35.03.69.07 1.03h-5.17v-.03H20.88c.04-.32.06-.66.06-1 0-4.71-3.83-8.54-8.53-8.54s-8.53 3.83-8.53 8.54c0 .34.03.68.07 1.01H0V55.1l-.06-15.14h30.17V16.59h9.05v9.1H57.2c1.81 0 3.51.71 4.79 2s1.97 3 1.95 4.82m-2.85-.3c0-2.08-1.7-3.77-3.79-3.77h-5.13V37c0 .1.09.18.19.18h8.74V32.2ZM27.36 7.2 21.51-.02H20v8.33l7.36.05zm0 3.92h-7.35c-1.52 0-2.73-1.22-2.77-2.78V-.02H.01v37.23h27.35z"/>
</svg>
