<svg viewBox="0 0 40 40" xmlns="http://www.w3.org/2000/svg">
  <path d="M39.22 19.14a4.33 4.33 0 0 0-3.62-1.95H24.74v-3.83h-5.53V5.27L14.95 0H.01v24.67h19.2v-9.05h3.28v19.16H11.95c-.15-2.58-2.27-4.64-4.88-4.64s-4.73 2.06-4.88 4.65H.02v2.25h2.56C3.34 38.78 5.06 40 7.07 40s3.73-1.22 4.49-2.96H27.2c.76 1.75 2.48 2.96 4.48 2.96s3.72-1.22 4.48-2.95h1c1.54 0 2.8-1.26 2.8-2.81l.04-12.5c.01-.94-.27-1.83-.79-2.59ZM16.96 6.07v.11h-3.34V2.25h.25l3.09 3.83ZM2.26 22.42V2.24h9.11V6.5c0 1.06.86 1.93 1.93 1.93h3.66v14H2.26Zm4.81 15.32c-1.47 0-2.66-1.2-2.66-2.68s1.19-2.68 2.66-2.68 2.66 1.2 2.66 2.68-1.19 2.68-2.66 2.68m28.47-18.3a2.16 2.16 0 0 1 1.81.96c.22.33.35.72.35 1.15v2.86h-5.04v-4.96h2.88Zm-3.85 18.3c-1.47 0-2.66-1.2-2.66-2.68s1.19-2.68 2.66-2.68 2.66 1.2 2.66 2.68-1.19 2.68-2.66 2.68m5.48-2.95h-.61c-.14-2.59-2.27-4.66-4.88-4.66s-4.74 2.07-4.88 4.66h-2.07V19.43h5.67v5.11c0 1.16.94 2.1 2.1 2.1h5.24l-.02 7.58c0 .31-.25.56-.55.56Z"/>
</svg>
