<svg viewBox="0 0 48 48" xmlns="http://www.w3.org/2000/svg">
  <path d="M13.45 41.1c0 2.42-1.95 4.39-4.36 4.39s-4.36-1.97-4.36-4.39 1.95-4.39 4.36-4.39 4.36 1.97 4.36 4.39m34.62-17.21-.05 14.94c0 1.8-1.46 3.26-3.24 3.26h-.97c.05-.32.08-.65.08-.99 0-3.8-3.07-6.89-6.84-6.89s-6.84 3.09-6.84 6.89c0 .34.03.67.08.99H29.1v-.02H15.88c.05-.31.08-.64.08-.97 0-3.8-3.07-6.89-6.84-6.89S2.27 37.3 2.27 41.1c0 .33.03.66.08.98H.15v-2.5L.19 30h22.26V11.48h9.13v7.07h11.26c1.41 0 2.74.56 3.73 1.56a5.3 5.3 0 0 1 1.52 3.77Zm-2.56-.23c0-1.44-1.17-2.61-2.61-2.61h-3.61v6.12h6.23v-3.51Zm-8.47 13.06c-2.4 0-4.36 1.97-4.36 4.39s1.95 4.39 4.36 4.39 4.36-1.97 4.36-4.39-1.95-4.39-4.36-4.39M19.96 5.23 15.74 0h-.75v5.71h4.96v-.49Zm0 2.99h-5.17c-1.26 0-2.28-1.03-2.28-2.29V0H.07v27.5h19.88V8.22Z"/>
</svg>
