<svg viewBox="0 0 48 48" xmlns="http://www.w3.org/2000/svg">
  <path d="M47.15 23.36a6 6 0 0 0-.54-.67c-.02-.02-.03-.04-.05-.06a5.07 5.07 0 0 0-3.66-1.56H29.57v-4.56h-6.52V6.37l-5.1-6.3H.08v29.92h22.97V19.01h4.03v23.03H14.29c-.13-3.07-2.66-5.54-5.76-5.54s-5.63 2.47-5.76 5.55H.09v2.49h3.13c.88 2.07 2.93 3.53 5.31 3.53s4.44-1.46 5.31-3.53l19.07.02c.88 2.06 2.93 3.51 5.31 3.51s4.42-1.45 5.31-3.51h1.26c1.79 0 3.25-1.46 3.25-3.26l.05-14.9c.01-1.1-.32-2.15-.93-3.03ZM20.56 7.25v.28h-4.3V2.56h.5l3.79 4.69ZM2.57 27.49V2.56h11.2v5.26c0 1.21.99 2.2 2.2 2.2h4.58v17.46H2.57Zm5.96 18.09a3.29 3.29 0 0 1 0-6.58 3.29 3.29 0 0 1 0 6.58m34.3-22.01c.74 0 1.44.29 1.96.82.11.11.2.24.29.36.27.41.43.9.43 1.42v3.5h-6.23v-6.11h3.55Zm-4.61 22.01a3.29 3.29 0 0 1 0-6.58 3.29 3.29 0 0 1 0 6.58m6.57-3.52h-.81c-.12-3.08-2.65-5.56-5.76-5.56s-5.64 2.47-5.76 5.56h-2.89V23.57h7.22v6.19c0 1.33 1.08 2.41 2.41 2.41h6.37l-.03 9.13c0 .42-.34.76-.76.76Z"/>
</svg>
