<svg viewBox="0 0 48 48" xmlns="http://www.w3.org/2000/svg">
  <path d="M8.92 35.12a4.94 4.94 0 0 0 4.84 3.94c1.02 0 1.97-.31 2.76-.84a4.97 4.97 0 0 0 2.08-3.1c.07-.32.1-.65.1-1 0-3.26-4.94-8.35-4.94-8.35s-.08.08-.21.22c-.41.43-1.33 1.46-2.26 2.72-1.08 1.47-2.16 3.25-2.41 4.77-.04.22-.06.43-.06.64 0 .34.03.67.1 1m2.49-1.5c.21 0 .38.17.38.38 0 1.09.89 1.97 1.97 1.97a.38.38 0 1 1 0 .76c-1.5 0-2.72-1.22-2.72-2.72 0-.21.17-.38.38-.38ZM47.83 8.56c-.22-.39-.64-.63-1.09-.63h-3.66l4.64-5.9c.43-.54.33-1.33-.21-1.75-.54-.43-1.33-.33-1.76.21l-6.23 7.92s-.04.09-.07.14c-.05.07-.09.15-.12.23s-.04.16-.05.25c0 .05-.03.1-.03.15v10.37c0 .56.38 1.05.92 1.2.11.03.22.05.33.05.27 0 .52-.09.73-.25v9.34c0 2.21-1.79 4.02-4.01 4.02-1.07 0-2.08-.42-2.84-1.17a4 4 0 0 1-1.18-2.85v-10.8c0-3.32-2.7-6.03-6.03-6.03h-.52V2.5a2.5 2.5 0 0 0-2.5-2.5H2.5A2.5 2.5 0 0 0 0 2.5V48h26.67V15.57h.52c1.94 0 3.53 1.58 3.53 3.53v10.8c0 1.74.68 3.38 1.92 4.62a6.48 6.48 0 0 0 4.61 1.91h.01c3.59 0 6.51-2.94 6.51-6.53V16.61l4.06-6.77c.23-.39.24-.87.02-1.26ZM2.5 2.5h21.67v4.63H2.5zm21.67 7.13V21.5H2.5V9.63zm0 35.87H2.5V24h21.67zm17.6-30.46v-4.61h2.77z"/>
</svg>
