<svg viewBox="0 0 24 24" xmlns="http://www.w3.org/2000/svg">
  <path d="M19.1 0h-8.92L8.81 1.37 8.33.89a1.235 1.235 0 0 0-1.74 0L4.31 3.17c-.48.48-.48 1.26 0 1.75l.48.48-1.44 1.44v17.17h18V2.25C21.35 1.01 20.34 0 19.1 0M7.45 2.49l.11.11-1.55 1.55-.11-.11zM19.6 22.25H5.1V7.56l5.81-5.81h8.19c.28 0 .5.22.5.5zm-2.08-10c.34-.34.34-.9 0-1.24s-.9-.34-1.24 0l-1.02 1.02H9.98l-1.02-1.02c-.34-.34-.9-.34-1.24 0s-.34.9 0 1.24l1.02 1.02v3.77l-1.02 1.02a.881.881 0 0 0 .62 1.5c.22 0 .45-.08.62-.26l1.02-1.02h5.27l1.02 1.02c.17.17.4.26.62.26s.45-.08.62-.26c.34-.34.34-.9 0-1.24l-1.02-1.02v-3.77l1.02-1.02Zm-2.77 4.28H10.5v-2.75h4.25zm1.5-13.83h-3a2.121 2.121 0 0 0 0 4.24h3a2.121 2.121 0 0 0 0-4.24m0 2.5h-3a.38.38 0 1 1 0-.76h3a.38.38 0 1 1 0 .76"/>
</svg>
