<svg viewBox="0 0 48 48" xmlns="http://www.w3.org/2000/svg">
  <path d="M14.75 36.35c0 .55-.45 1-1 1A3.35 3.35 0 0 1 10.4 34c0-.55.45-1 1-1s1 .45 1 1c0 .74.61 1.35 1.35 1.35.55 0 1 .45 1 1M47.82 9.82l-4.07 6.77v13.29c.01 3.59-2.91 6.52-6.5 6.53h-.01c-1.74 0-3.38-.68-4.61-1.91a6.46 6.46 0 0 1-1.92-4.62v-10.8c0-1.94-1.58-3.53-3.53-3.53h-.52v32.43H0V2.5C0 1.64.43.88 1.1.43c.26-.18.57-.31.89-.38.16-.03.33-.05.5-.05h21.67a2.5 2.5 0 0 1 2.5 2.5v10.57h.52c3.32 0 6.03 2.7 6.03 6.03v10.8a4 4 0 0 0 1.18 2.85c.76.76 1.77 1.17 2.84 1.17 2.22 0 4.02-1.81 4.01-4.02v-9.34c-.22.16-.47.25-.74.25-.11 0-.22-.01-.33-.05-.54-.15-.92-.64-.92-1.2V9.19c0-.05.02-.1.03-.15.01-.09.02-.17.05-.25s.07-.16.12-.23c.03-.04.04-.1.07-.14L45.76.49c.43-.54 1.21-.64 1.76-.21.54.43.64 1.21.21 1.75l-4.64 5.9h3.66c.45 0 .87.24 1.09.63s.22.87-.02 1.26M18.69 34.13c0-.41-.08-.84-.21-1.3-.47-1.58-1.65-3.34-2.72-4.71-.3-.39-.6-.75-.86-1.06-.66-.78-1.15-1.28-1.15-1.28s-.08.08-.21.22c-.41.43-1.33 1.46-2.26 2.72-1.23 1.68-2.47 3.76-2.47 5.41 0 2.05 1.24 3.8 3.02 4.55a4.92 4.92 0 0 0 3.84 0 4.95 4.95 0 0 0 3.02-4.55m5.48-24.5H2.5V21.5h21.67z"/>
</svg>
