<svg viewBox="0 0 16 16" xmlns="http://www.w3.org/2000/svg">
  <path d="M12.73 0H6.79l-.91.91-.91-.9-2.68 2.68.9.9-.96.96v11.44h12V1.5c0-.83-.67-1.5-1.5-1.5m0 14.5h-9V5.18L7.41 1.5h5.32zm-.93-6.22c.29-.29.29-.77 0-1.06a.754.754 0 0 0-1.06 0l-.63.63H6.73l-.63-.63a.754.754 0 0 0-1.06 0c-.29.29-.29.77 0 1.06l.63.63v2.38l-.63.63c-.29.29-.29.77 0 1.06.15.15.34.22.53.22s.38-.07.53-.22l.63-.63h3.38l.63.63c.15.15.34.22.53.22s.38-.07.53-.22c.29-.29.29-.77 0-1.06l-.63-.63V8.91zM7.17 9.35h2.5v1.5h-2.5zM9 5.41h1.5c.96 0 1.75-.79 1.75-1.75s-.79-1.75-1.75-1.75H9c-.96 0-1.75.79-1.75 1.75S8.04 5.41 9 5.41m0-2h1.5c.14 0 .25.11.25.25s-.11.25-.25.25H9c-.14 0-.25-.11-.25-.25s.11-.25.25-.25"/>
</svg>
