<svg viewBox="0 0 40 40" xmlns="http://www.w3.org/2000/svg">
  <path d="M31.83 0H16.97l-2.3 2.3L13.18.81a2.053 2.053 0 0 0-2.9 0l-3.8 3.8c-.8.8-.8 2.11 0 2.91l1.49 1.49-2.38 2.38V40h30V3.75c0-2.07-1.68-3.75-3.75-3.75ZM11.72 2.53l1.12 1.12-3.53 3.53-1.12-1.12zm21.61 35.22H7.83V12.32L17.9 2.25h13.93c.83 0 1.5.67 1.5 1.5zm-4.37-17.57c.44-.44.44-1.15 0-1.59s-1.15-.44-1.59 0l-1.79 1.79h-9.07l-1.79-1.79c-.44-.44-1.15-.44-1.59 0s-.44 1.15 0 1.59l1.79 1.79v6.57l-1.79 1.79a1.123 1.123 0 0 0 .8 1.92c.29 0 .58-.11.8-.33l1.79-1.79h9.07l1.79 1.79c.22.22.51.33.8.33s.58-.11.8-.33c.44-.44.44-1.15 0-1.59l-1.79-1.79v-6.57l1.79-1.79Zm-4.04 7.7h-7.75v-5.25h7.75zm3.41-23.76h-7.25c-1.77 0-3.21 1.44-3.21 3.21s1.44 3.21 3.21 3.21h7.25c1.77 0 3.21-1.44 3.21-3.21s-1.44-3.21-3.21-3.21m0 4.17h-7.25a.96.96 0 0 1 0-1.92h7.25a.96.96 0 0 1 0 1.92"/>
</svg>
