<svg viewBox="0 0 24 24" xmlns="http://www.w3.org/2000/svg">
  <path d="M10.5 13.78h4.25v2.75H10.5zM21.35 2.25V24h-18V6.83l1.44-1.44-.48-.48a1.25 1.25 0 0 1-.36-.87c0-.32.12-.63.36-.87L6.58.89a1.235 1.235 0 0 1 1.74 0l.48.48L10.17 0h8.92a2.27 2.27 0 0 1 2.26 2.26ZM16.5 17.04v-3.77l1.02-1.02c.34-.34.34-.9 0-1.24s-.9-.34-1.24 0l-1.02 1.02H9.98l-1.02-1.02c-.34-.34-.9-.34-1.24 0s-.34.9 0 1.24l1.02 1.02v3.77l-1.02 1.02a.881.881 0 0 0 .62 1.5c.22 0 .45-.08.62-.26l1.02-1.02h5.27l1.02 1.02c.17.17.4.26.62.26s.45-.08.62-.26c.34-.34.34-.9 0-1.24l-1.02-1.02Zm2-13.21c0-.69-.56-1.25-1.25-1.25h-4a1.25 1.25 0 0 0 0 2.5h4c.69 0 1.25-.56 1.25-1.25"/>
</svg>
