<svg viewBox="0 0 24 24" xmlns="http://www.w3.org/2000/svg">
  <path d="M6.88 19.53c1.36 0 2.47-1.11 2.47-2.47 0-1.63-2.47-4.17-2.47-4.17s-2.47 2.53-2.47 4.17c0 1.36 1.11 2.47 2.47 2.47M5.7 16.62c.21 0 .37.17.37.37 0 .44.36.8.8.8a.37.37 0 1 1 0 .74c-.85 0-1.55-.69-1.55-1.55 0-.21.17-.37.37-.37ZM23.89 4.4a.89.89 0 0 0-.76-.44h-1.31l2-2.54A.876.876 0 1 0 22.44.34L19.33 4.3l-.05.1c-.03.05-.06.1-.08.16s-.03.11-.04.17c0 .04-.02.07-.02.11v5.18a.867.867 0 0 0 .87.87c.04 0 .08 0 .12-.02v4.2c0 .44-.17.85-.48 1.16s-.72.48-1.16.48c-.9 0-1.64-.74-1.64-1.64V9.54c0-1.8-1.46-3.26-3.26-3.26h-.26V1.75c0-.97-.78-1.75-1.75-1.75H1.75C.78 0 0 .78 0 1.75V24h13.33V8.03h.26c.83 0 1.51.68 1.51 1.51v5.53c0 1.87 1.52 3.39 3.39 3.39.91 0 1.76-.35 2.4-.99s.99-1.49.99-2.4V8.61l1.99-3.33c.16-.27.17-.61.01-.88ZM1.75 1.75h9.83v1.82H1.75zm9.83 3.57v4.93H1.75V5.32zm0 16.93H1.75V12h9.83zm9.31-15.39V5.71h.69z"/>
</svg>
