<svg viewBox="0 0 40 40" xmlns="http://www.w3.org/2000/svg">
  <path d="M17.17 22.63h7.75v5.25h-7.75zM35.58 3.75V40h-30V11.39l2.38-2.38-1.49-1.49c-.8-.8-.8-2.11 0-2.91l3.8-3.8c.4-.4.93-.6 1.45-.6.13 0 .26.01.39.04.26.05.51.15.74.3.11.08.22.16.32.26l1.49 1.49 2.3-2.3h14.86c2.07 0 3.75 1.68 3.75 3.75Zm-8.41 24.79v-6.57l1.79-1.79c.44-.44.44-1.15 0-1.59s-1.15-.44-1.59 0l-1.79 1.79h-9.07l-1.79-1.79c-.44-.44-1.15-.44-1.59 0s-.44 1.15 0 1.59l1.79 1.79v6.57l-1.79 1.79a1.123 1.123 0 0 0 .8 1.92c.29 0 .58-.11.8-.33l1.79-1.79h9.07l1.79 1.79c.22.22.51.33.8.33s.58-.11.8-.33c.44-.44.44-1.15 0-1.59l-1.79-1.79Zm4.25-22.21c0-1.15-.93-2.08-2.08-2.08h-7.25c-1.15 0-2.08.93-2.08 2.08s.93 2.08 2.08 2.08h7.25c1.15 0 2.08-.93 2.08-2.08"/>
</svg>
