<svg viewBox="0 0 16 16" xmlns="http://www.w3.org/2000/svg">
  <path d="M4.59 13.01c.91 0 1.65-.73 1.65-1.64 0-1.08-1.65-2.77-1.65-2.77s-1.65 1.68-1.65 2.77c0 .91.74 1.64 1.65 1.64m-.79-1.94c.14 0 .25.11.25.25 0 .29.24.53.53.53.14 0 .25.11.25.25s-.11.25-.25.25c-.57 0-1.03-.46-1.03-1.03 0-.14.11-.25.25-.25m12.1-8.09a.75.75 0 0 0-.65-.38h-.53l1.12-1.42a.74.74 0 0 0-.13-1.05c-.33-.25-.8-.2-1.05.13l-2.08 2.63s-.03.06-.04.09c-.03.04-.05.08-.07.13s-.02.1-.03.15c0 .03-.02.06-.02.09V6.8c0 .34.22.63.55.72.04.01.07.01.11.02v2.59c0 .46-.38.84-.84.84s-.84-.38-.84-.84V6.37c0-1.29-1.05-2.34-2.34-2.34h-.17V1.52c0-.83-.67-1.5-1.5-1.5H1.5C.67.02 0 .69 0 1.52v14.46h8.89V5.53h.17c.46 0 .84.38.84.84v3.76a2.34 2.34 0 0 0 4.68 0V5.91l1.31-2.17c.14-.23.14-.52 0-.75ZM1.5 1.52h5.89v.87H1.5zm5.89 2.37v2.62H1.5V3.89zm0 10.59H1.5V8h5.89zM13.93 4.1"/>
</svg>
