<svg viewBox="0 0 48 48" xmlns="http://www.w3.org/2000/svg">
  <path d="M.07 48h19.01V28.97H.07zm6.04-16.68h10.51v7.67H6.11zm2.5 2.5h5.52v2.67H8.61zm-.58-7.35H1.11l8.58-8.27h7.11l-8.76 8.27Zm19.95-8.26-8.18 8.27h-8.13l8.76-8.27zm-6.41 10.02 8.16-8.24v19.3l-8.16 7.81zM47.7 8.95c-.24.24-.56.37-.88.37s-.64-.12-.88-.37L41.8 4.8v23.24h-2.5V4.8l-4.14 4.15c-.49.49-1.28.49-1.76 0s-.49-1.28 0-1.77L40.55.02l7.15 7.16c.49.49.49 1.28 0 1.77m-8.4 36.57h2.5v2.5h-2.5zm0-4.99h2.5v2.5h-2.5zm0-5h2.5v2.5h-2.5zm0-4.99h2.5v2.5h-2.5z"/>
</svg>
