<svg viewBox="0 0 24 24" xmlns="http://www.w3.org/2000/svg">
  <path d="M23.74 4.95c-.17.17-.4.26-.62.26s-.45-.08-.62-.26l-1.61-1.61v9.73h-1.75V3.35l-1.61 1.61c-.34.34-.9.34-1.24 0a.88.88 0 0 1 0-1.24L20.02 0l3.72 3.72c.34.34.34.9 0 1.24Zm-4.59 11.74h1.75v-1.81h-1.75zm0 3.65h1.75v-1.81h-1.75zm0 3.66h1.75v-1.81h-1.75zM5.21 7.66h11.07v11.57L11.48 24H0V12.53h.04l5.18-4.86Zm4.51 6.61H1.75v7.97h7.97zm3.59-4.86h-2.54l-3.3 3.11h2.76zm1.23 9.09v-7.84l-3.07 3.09v7.79l3.07-3.05ZM5.9 9.41l-3.32 3.11h2.33l3.3-3.11zm2.59 6.04H5.7v2.79h2.79z"/>
</svg>
