<svg viewBox="0 0 64 64" xmlns="http://www.w3.org/2000/svg">
  <path d="m0 34.51.02.02H0v29.46h29.46v-.02l13.22-12.45V21.17H13.69zm26.71 26.73H2.75V37.28h23.96zm.8-26.71H16.9l11.25-10.61h9.87zm1.95 25.68V36.47l10.48-10.58v24.45l-10.48 9.88Zm-5.32-36.29L12.89 34.53H3.93l10.88-10.61zm-.82 16.63H10.61v9.16h12.71zm-2.75 6.41h-7.21V43.3h7.21zM63.6 11.35c-.27.27-.62.4-.97.4s-.7-.13-.97-.4l-6.1-6.09v31.42h-2.75V5.25l-6.1 6.09c-.54.54-1.41.54-1.94 0s-.54-1.41 0-1.94L54.18 0l9.41 9.41c.54.54.54 1.41 0 1.94ZM52.81 61.24h2.75v2.75h-2.75zm0-5.46h2.75v2.75h-2.75zm0-5.46h2.75v2.75h-2.75zm0-5.46h2.75v2.75h-2.75zm0-5.45h2.75v2.75h-2.75z"/>
</svg>
