<svg viewBox="0 0 40 40" xmlns="http://www.w3.org/2000/svg">
  <path d="M7.15 28.27h4.46v2.2H7.15zm10.22-13.05-7.16 6.75h6.2l6.68-6.75zM0 24.21h15.74v15.74H0zm4.9 8.51h8.96v-6.7H4.9zm9.19-17.5H8.01L.96 21.96h5.97l7.16-6.75ZM18 39.13l6.66-6.41v-15.9L18 23.54zM39.68 5.96 33.66-.05l-6.01 6.01a1.123 1.123 0 0 0 .8 1.92c.29 0 .58-.11.8-.33l3.3-3.3v17.6h2.25V4.25l3.3 3.3c.44.44 1.15.44 1.59 0s.44-1.15 0-1.59Zm-7.14 33.96h2.25v-2.25h-2.25zm0-4.52h2.25v-2.25h-2.25zm0-4.51h2.25v-2.25h-2.25zm0-4.52h2.25v-2.25h-2.25z"/>
</svg>
