<svg viewBox="0 0 48 48" xmlns="http://www.w3.org/2000/svg">
  <path d="M9.9 34.14 0 46.02V23.91l9.89 10.23Zm11.56 2.43c-1.22 1.26-2.85 1.96-4.6 1.96s-3.39-.69-4.6-1.96l-.6-.62L1.62 47.99h30.39l-9.95-12.04zm-4.6-.54c1.07 0 2.06-.42 2.8-1.19l12.26-12.73H1.74l12.31 12.73c.74.77 1.74 1.19 2.81 1.19M33.7 46.11V23.85l-9.9 10.28zm0-23.99-.01-.01h.01ZM47.64 7.18 40.48.02l-7.17 7.16c-.49.49-.49 1.28 0 1.77s1.28.49 1.77 0l4.15-4.15v23.24h2.5V4.8l4.15 4.15c.24.24.56.37.88.37s.64-.12.88-.37c.49-.49.49-1.28 0-1.77m-8.41 40.84h2.5v-2.5h-2.5zm0-5h2.5v-2.5h-2.5zm0-4.99h2.5v-2.5h-2.5zm0-5h2.5v-2.5h-2.5z"/>
</svg>
