<svg viewBox="0 0 24 24" xmlns="http://www.w3.org/2000/svg">
  <path d="M0 24h17.02V10.81H0zm6.06-5.67c.65.67 1.51 1.04 2.44 1.04s1.8-.37 2.44-1.04l.1-.1 3.45 4.02H2.51l3.45-4.02zm6.21-1.37 3-3.11v6.61zm-2.58.16c-.62.65-1.74.65-2.36 0l-4.39-4.56h11.15L9.7 17.12Zm-4.95-.16-3 3.5v-6.61zm19-12c-.17.17-.4.26-.62.26s-.45-.08-.62-.26l-1.61-1.61v9.72h-1.75V3.35l-1.61 1.61c-.34.34-.9.34-1.24 0a.88.88 0 0 1 0-1.24L20.02 0l3.72 3.72c.34.34.34.9 0 1.24m-4.6 9.92h1.75v1.81h-1.75zm0 3.65h1.75v1.81h-1.75zm0 3.65h1.75v1.81h-1.75z"/>
</svg>
