<svg viewBox="0 0 32 32" xmlns="http://www.w3.org/2000/svg">
  <path d="M0 32.12h22.57V14.55H0v17.56Zm8.13-7.65c.84.87 1.96 1.36 3.16 1.36s2.33-.48 3.16-1.36l.27-.28 5.03 5.92H2.83l5.03-5.92zm7.99-1.74 4.46-4.67v9.91l-4.46-5.25Zm-3.1.34c-.91.95-2.53.95-3.44 0l-6.22-6.5h15.88zm-6.55-.34-4.46 5.25v-9.91l4.46 4.67ZM31.72 6.42c-.2.2-.45.29-.71.29s-.51-.1-.71-.29l-2.43-2.44v11.57h-2V3.97l-2.43 2.44c-.39.39-1.02.39-1.41 0s-.39-1.03 0-1.42L26.88.12l4.84 4.87c.39.39.39 1.03 0 1.42Zm-5.84 15.57h2V24h-2zm0 4.05h2v2.01h-2zm0 4.05h2v2.01h-2zm0-12.15h2v2.01h-2z"/>
</svg>
