<svg viewBox="0 0 48 48" xmlns="http://www.w3.org/2000/svg">
  <path d="M0 47.98h33.7V22.1H0zm12.25-11.43c1.22 1.26 2.85 1.96 4.6 1.96s3.39-.7 4.6-1.96l.61-.64 8.2 9.56H3.44l8.2-9.56zm11.57-2.44 7.39-7.67v16.29zm-4.16.71c-.74.77-1.74 1.19-2.8 1.19s-2.06-.42-2.8-1.19L4.2 24.59h25.32zm-9.77-.71L2.5 42.73V26.44zM47.64 8.94c-.24.24-.56.37-.88.37s-.64-.12-.88-.37l-4.15-4.15v23.24h-2.5V4.79l-4.15 4.15c-.49.49-1.28.49-1.77 0s-.49-1.28 0-1.77L40.47.01l7.17 7.16c.49.49.49 1.28 0 1.77m-8.42 36.58h2.5v2.5h-2.5zm0-5h2.5v2.5h-2.5zm0-5h2.5v2.5h-2.5zm0-4.99h2.5v2.5h-2.5z"/>
</svg>
