<svg viewBox="0 0 40 40" xmlns="http://www.w3.org/2000/svg">
  <path d="M0 21.22h-.01V40h18.8l8.19-7.88V12.96H8.64zm16.54 16.54H2.25V23.47h14.3v14.29Zm.66-16.53h-5.77l6.39-6.02h5.35zm1.59 15.66V22.81l5.95-6v14.36zm-4.25-21.68-6.39 6.02H3.26l6.29-6.02zm.45 9.74H6.57v6.34h8.42zm-2.25 4.1H8.82V27.2h3.92zM39.67 7.61c-.22.22-.51.33-.8.33s-.58-.11-.8-.33l-3.3-3.3v17.6h-2.25V4.31l-3.3 3.3c-.44.44-1.15.44-1.59 0s-.44-1.15 0-1.59L33.65 0l6.02 6.01c.44.44.44 1.15 0 1.59Zm-7.14 30.11h2.25v2.25h-2.25zm0-4.51h2.25v2.25h-2.25zm0-4.52h2.25v2.25h-2.25zm0-4.51h2.25v2.25h-2.25z"/>
</svg>
