<svg viewBox="0 0 16 16" xmlns="http://www.w3.org/2000/svg">
  <path d="M15.77 3.58c-.15.15-.34.22-.53.22s-.38-.07-.53-.22l-.72-.72v4.49h-1.5V2.87l-.72.72c-.29.29-.77.29-1.06 0s-.29-.77 0-1.06L13.24 0l2.52 2.53c.29.29.29.77 0 1.06ZM12.5 9.95H14v-1.5h-1.5zm0 3.02H14v-1.5h-1.5zm0 3.03H14v-1.5h-1.5zM3.54 4.94h7.48v7.82l-3.15 3.23H.01V8.15l-.02-.03 3.55-3.19Zm2.83 4.68H1.51v4.87h4.86zm2.1-3.18H7.3L5.51 8.12H6.8zm1.05 5.71V7.51L7.87 9.18v4.66l1.65-1.7ZM4.11 6.44 2.23 8.12h1.1l1.79-1.68zm1.81 3.61H3.74v2.18h2.18z"/>
</svg>
