<svg viewBox="0 0 24 24" xmlns="http://www.w3.org/2000/svg">
  <path d="M4.75 16.97 0 22.6V12.06zm4.94.14 6.11-6.31H1.22l6.11 6.31c.63.65 1.74.65 2.36 0m1.26 1.22c-.64.67-1.51 1.04-2.44 1.04s-1.8-.37-2.44-1.04l-.09-.1L1.12 24h14.77l-4.84-5.77-.09.1Zm6.06 4.3V12.06l-4.75 4.91zM0 24h.05L0 23.95zM23.74 3.72 20.02 0 16.3 3.72a.881.881 0 0 0 .62 1.5c.22 0 .45-.08.62-.26l1.61-1.61v9.73h1.75V3.35l1.61 1.61c.34.34.9.34 1.24 0s.34-.9 0-1.24Zm-4.59 12.97h1.75v-1.81h-1.75zm0 3.65h1.75v-1.81h-1.75zm0 3.66h1.75v-1.81h-1.75z"/>
</svg>
