<svg viewBox="0 0 16 16" xmlns="http://www.w3.org/2000/svg">
  <path d="m15.97 11.7-.92-7.13c-.26-1.37-1.44-2.4-2.86-2.41s-.58 0-.58 0H3.84C2.41 2.16 1.21 3.2.95 4.57L.03 11.7c-.02.1-.03.21-.03.32 0 .82.66 1.49 1.47 1.49.52 0 1.74-.28 2-.69 0 0 1.89-1.93 2.35-1.93h4.39c.45 0 2.32 1.93 2.32 1.93.26.42 1.48.69 2.01.69.81 0 1.47-.67 1.47-1.49 0-.11-.01-.22-.03-.32ZM5.9 3.66h4.21v1c0 .39-.32.72-.72.72H6.62c-.4 0-.72-.32-.72-.72zm-.44 5.72c-.29 0-.53-.24-.53-.53s.24-.53.53-.53.53.24.53.53-.24.53-.53.53m5.08 0c-.29 0-.53-.24-.53-.53s.24-.53.53-.53.53.24.53.53-.24.53-.53.53m3.09 2.42-.03-.03c-.67-.69-1.19-1.17-1.61-1.52.35-.36.57-.86.57-1.4 0-1.12-.91-2.03-2.03-2.03S8.5 7.73 8.5 8.85c0 .18.03.36.08.53H7.42c.05-.17.08-.35.08-.53 0-1.12-.91-2.03-2.03-2.03s-2.03.91-2.03 2.03c0 .55.22 1.05.58 1.41-.43.35-.94.82-1.61 1.5l-.03.03c-.22.1-.69.2-.85.2v-.06l.02-.06.91-7.08c.14-.67.73-1.15 1.4-1.15h.55v1c0 1.22 1 2.22 2.22 2.22H9.4c1.23 0 2.22-.99 2.22-2.22v-1h.57c.67 0 1.24.49 1.38 1.15l.91 7.08.05.06v.06c-.18 0-.66-.11-.88-.21Zm-.29-5.62c0 .41-.34.75-.75.75s-.75-.34-.75-.75.34-.75.75-.75.75.34.75.75M2.65 5.43h1.51v1.5H2.65z"/>
</svg>
