<svg viewBox="0 0 24 24" xmlns="http://www.w3.org/2000/svg">
  <path d="M20.36 8.94a1.261 1.261 0 1 1-2.522-.002 1.261 1.261 0 0 1 2.522.002M3.7 10.07h2.26V7.81H3.7zm20.3 8c0 1.24-.99 2.24-2.2 2.24-.78 0-2.62-.42-3.01-1.04 0 0-2.8-2.91-3.48-2.91H8.73c-.68 0-3.52 2.91-3.52 2.91-.39.63-2.22 1.04-3.01 1.04-1.22 0-2.2-1.01-2.2-2.24 0-.17.02-.33.05-.48L1.42 6.85c.39-2.07 2.18-3.64 4.33-3.64h12.53c2.13.02 3.9 1.58 4.29 3.64l1.38 10.74c.03.16.05.32.05.48M8.34 7.09c0 .81.66 1.47 1.47 1.47h4.38c.81 0 1.47-.66 1.47-1.47V4.97H8.35v2.12Zm1.15 6.2c0-.71-.58-1.29-1.29-1.29s-1.29.58-1.29 1.29.58 1.29 1.29 1.29 1.29-.58 1.29-1.29m7.61 0c0-.71-.58-1.29-1.29-1.29s-1.29.58-1.29 1.29.58 1.29 1.29 1.29 1.29-.58 1.29-1.29m5.14 4.78s0-.08-.01-.12v-.07l-.02-.07-1.37-10.68c-.25-1.24-1.33-2.15-2.57-2.16h-.86v2.12c0 1.78-1.44 3.23-3.23 3.23H9.8c-1.78 0-3.23-1.44-3.23-3.23V4.97h-.83c-1.25 0-2.34.91-2.59 2.16L1.78 17.81v.07l-.02.07c-.01.05-.01.08-.01.1 0 .21.09.33.14.38.06.06.16.13.3.13.42 0 1.29-.22 1.63-.4l.11-.12c1.03-1.05 1.82-1.78 2.44-2.29-.75-.56-1.25-1.44-1.25-2.45a3.05 3.05 0 1 1 6.1 0c0 .47-.11.91-.3 1.3h2.11c-.19-.4-.3-.83-.3-1.3a3.05 3.05 0 1 1 6.1 0c0 1-.49 1.89-1.24 2.44.62.51 1.41 1.24 2.43 2.31l.1.11c.34.18 1.22.4 1.64.4.14 0 .24-.07.3-.13.05-.05.14-.17.14-.35Z"/>
</svg>
