<svg viewBox="0 0 32 32" xmlns="http://www.w3.org/2000/svg">
  <path d="M10.79 10.55V4.3h10.42v6.25c0 .67-.55 1.22-1.22 1.22H12c-.67 0-1.22-.55-1.22-1.22ZM32 24.11q0 .315-.06.6a2.94 2.94 0 0 1-2.88 2.38c-.83 0-2.53-.35-3.46-.92-.24-.15-.44-.3-.55-.47 0 0-.62-.64-1.41-1.4-.19-.19-.4-.38-.61-.57-.18-.17-.36-.33-.55-.49-.11-.1-.22-.2-.33-.29q-.525.12-1.08.12c-1.26 0-2.4-.48-3.29-1.25h-3.56c-.89.77-2.03 1.25-3.29 1.25-.36 0-.72-.04-1.06-.11-.4.34-.82.72-1.22 1.09-.07.07-.14.13-.21.2-.33.31-.63.6-.87.84l-.27.27c-.22.22-.35.36-.35.36-.52.84-2.97 1.39-4.01 1.39-1.42 0-2.6-1.02-2.88-2.38a3 3 0 0 1 .01-1.24L1.9 9.17c.1-.54.29-1.05.53-1.53.06-.13.11-.27.19-.39.06-.1.14-.19.21-.29.12-.18.23-.37.37-.53.1-.12.22-.22.33-.33.13-.13.24-.27.38-.38.12-.1.25-.18.38-.27.15-.11.28-.22.44-.31.09-.05.19-.09.28-.14.21-.11.41-.22.63-.3.14-.05.29-.08.44-.12.18-.05.36-.12.55-.15.18-.03.36-.03.54-.05.17-.01.33-.05.51-.05h1.11v6.25c0 1.78 1.44 3.23 3.23 3.23h7.99c1.78 0 3.23-1.44 3.23-3.23V4.33h1.17c2.84.03 5.2 2.11 5.71 4.85l1.83 14.32c.04.21.07.42.07.64ZM7.19 10.43H4.18v3.01h3.01zM13.68 18c0-.57-.17-1.1-.47-1.54-.2-.29-.45-.55-.75-.75a2.76 2.76 0 1 0-1.54 5.05c.57 0 1.1-.17 1.54-.47.29-.2.55-.45.75-.75.3-.44.47-.97.47-1.54m10.16 0a2.76 2.76 0 1 0-5.518-.002A2.76 2.76 0 0 0 23.84 18m4.05-6.06c0-.92-.75-1.67-1.67-1.67s-1.67.75-1.67 1.67.75 1.67 1.67 1.67 1.67-.75 1.67-1.67"/>
</svg>
