<svg viewBox="0 0 48 48" xmlns="http://www.w3.org/2000/svg">
  <path d="M15.68 17.41V6.42h16.64V17.4c0 .39-.32.72-.72.72H16.39c-.39 0-.72-.32-.72-.72ZM48 36.14c0 1.24-.49 2.36-1.29 3.17s-1.9 1.31-3.12 1.31c-1.56 0-5.23-.83-6.02-2.09 0 0-.55-.57-1.34-1.35-.24-.23-.5-.49-.77-.75-.77-.74-1.65-1.56-2.47-2.24-.45.09-.91.13-1.38.13-1.74 0-3.33-.61-4.59-1.62h-6.04a7.33 7.33 0 0 1-4.59 1.62c-.46 0-.9-.05-1.34-.13-1.5 1.24-3.24 2.93-4.09 3.79-.33.33-.53.54-.53.54-.78 1.25-4.45 2.09-6.01 2.09-2.45.01-4.42-2-4.42-4.47 0-.17 0-.33.02-.49s.04-.32.08-.47L2.85 13.7q.15-.78.42-1.5c.07-.18.15-.36.22-.53.03-.06.05-.12.08-.18.09-.19.19-.37.29-.54.02-.04.04-.09.07-.13.08-.14.17-.27.26-.4l.15-.24c.27-.39.58-.75.9-1.08.02-.02.04-.05.07-.07.13-.14.28-.26.42-.39.04-.04.09-.08.13-.12.18-.15.36-.29.55-.43.01-.01.03-.02.04-.03.15-.11.31-.21.47-.31.05-.03.11-.07.16-.1.18-.1.36-.2.54-.29.04-.02.08-.05.13-.07.14-.07.29-.13.44-.19.09-.04.17-.08.26-.11.14-.05.28-.09.42-.14.1-.03.2-.07.31-.1.13-.04.27-.06.41-.09.12-.03.23-.06.34-.08.12-.02.24-.03.36-.05l.42-.06c.12-.01.24-.01.36-.02.15 0 .29-.02.44-.02h1.67v10.98c0 1.78 1.44 3.23 3.23 3.23h15.21c1.78 0 3.23-1.44 3.23-3.23V6.42h1.75c2.13.02 4.08.81 5.59 2.11a9.05 9.05 0 0 1 2.98 5.16l2.75 21.48c.06.31.1.63.1.96ZM10.66 14.36H6.14v4.52h4.52zm10.25 12.61c0-2.5-2.02-4.52-4.52-4.52s-4.52 2.02-4.52 4.52 2.02 4.52 4.52 4.52 4.52-2.02 4.52-4.52m15.22 0c0-2.5-2.02-4.52-4.52-4.52s-4.52 2.02-4.52 4.52 2.02 4.52 4.52 4.52 4.52-2.02 4.52-4.52m5.84-10.35c0-1.39-1.12-2.51-2.51-2.51s-2.51 1.12-2.51 2.51 1.12 2.51 2.51 2.51 2.51-1.12 2.51-2.51"/>
</svg>
