<svg viewBox="0 0 48 48" xmlns="http://www.w3.org/2000/svg">
  <path d="M40.71 17.84c0 1.39-1.12 2.51-2.51 2.51s-2.51-1.12-2.51-2.51 1.12-2.51 2.51-2.51 2.51 1.12 2.51 2.51M7.4 20.1h4.52v-4.52H7.4zm40.6 16c0 2.48-1.97 4.48-4.41 4.48-1.56 0-5.23-.83-6.02-2.09 0 0-4.06-4.21-6.1-5.46a5.8 5.8 0 0 1-1.92-.36H18.44c-.58.21-1.2.33-1.84.35-2.06 1.24-6.18 5.47-6.18 5.47-.78 1.25-4.45 2.09-6.01 2.09-2.44.01-4.41-2-4.41-4.47 0-.33.03-.65.1-.96l2.75-21.49c.78-4.14 4.36-7.27 8.66-7.27h1.67l21.66-.01 1.75.01c4.26.04 7.8 3.16 8.57 7.27l2.75 21.48c.06.31.1.63.1.96ZM15.68 17.37c0 .39.32.72.72.72h15.21c.39 0 .72-.32.72-.72V8.9H15.68zm4.3 9.57c0-1.98-1.61-3.59-3.59-3.59s-3.59 1.61-3.59 3.59 1.61 3.59 3.59 3.59 3.59-1.61 3.59-3.59m15.23 0c0-1.98-1.61-3.59-3.59-3.59s-3.59 1.61-3.59 3.59 1.61 3.59 3.59 3.59 3.59-1.61 3.59-3.59m10.28 9.17c0-.16-.01-.3-.05-.45l-.02-.1v-.1l-2.75-21.4c-.59-2.96-3.15-5.13-6.11-5.16h-1.72v8.47c0 1.78-1.44 3.23-3.23 3.23H16.4c-1.78 0-3.23-1.44-3.23-3.23V8.9h-1.66c-3 0-5.59 2.17-6.18 5.16l-2.74 21.4v.1l-.03.09c-.03.16-.05.3-.05.42 0 .58.2 1.08.58 1.45.35.36.82.55 1.32.55 1.12 0 3.34-.59 3.97-1.04l.06-.09.19-.19c2.05-2.1 3.59-3.52 4.78-4.49a6.11 6.11 0 0 1-3.12-5.32c0-3.37 2.73-6.1 6.1-6.1s6.1 2.73 6.1 6.1c0 1.19-.34 2.29-.93 3.23h4.88c-.59-.94-.93-2.04-.93-3.23 0-3.37 2.73-6.1 6.1-6.1s6.1 2.73 6.1 6.1c0 2.28-1.25 4.26-3.09 5.31 1.19.97 2.72 2.4 4.76 4.51l.18.19.05.09c.63.45 2.85 1.04 3.97 1.04.49 0 .96-.2 1.32-.55.37-.37.58-.88.58-1.42Z"/>
</svg>
