<svg viewBox="0 0 32 32" xmlns="http://www.w3.org/2000/svg">
  <path d="M27.14 11.91c0 .92-.75 1.67-1.67 1.67s-1.67-.75-1.67-1.67.75-1.67 1.67-1.67 1.67.75 1.67 1.67m-22.21 1.5h3.01V10.4H4.93zM32 24.08c0 1.65-1.31 2.99-2.94 2.99-1.04 0-3.49-.56-4.01-1.39 0 0-2.72-2.82-4.07-3.65-.43-.01-.85-.1-1.24-.23h-7.48c-.37.13-.76.21-1.18.23-1.37.82-4.13 3.65-4.13 3.65-.52.84-2.97 1.39-4.01 1.39-1.63 0-2.94-1.34-2.94-2.99 0-.22.02-.43.07-.64L1.9 9.12c.52-2.76 2.9-4.85 5.77-4.85h16.72c2.84.03 5.2 2.11 5.71 4.85l1.83 14.32c.04.21.07.42.07.64M10.79 10.52c0 .67.55 1.22 1.22 1.22H20c.67 0 1.22-.55 1.22-1.22V6.28H10.8v4.24Zm2.19 7.45c0-1.14-.92-2.06-2.06-2.06s-2.06.92-2.06 2.06.92 2.06 2.06 2.06 2.06-.92 2.06-2.06m10.15 0c0-1.14-.92-2.06-2.06-2.06s-2.06.92-2.06 2.06.92 2.06 2.06 2.06 2.06-.92 2.06-2.06m6.86 6.11c0-.08 0-.15-.02-.23l-.02-.08v-.08L28.11 9.43c-.36-1.82-1.93-3.14-3.75-3.16h-1.14v4.24c0 1.78-1.44 3.23-3.23 3.23H12c-1.78 0-3.23-1.44-3.23-3.23V6.27H7.66c-1.84 0-3.42 1.33-3.79 3.16L2.05 23.69v.08l-.03.08C2 23.93 2 24 2 24.06c0 .4.18.63.29.74.1.1.32.27.64.27.64 0 1.96-.33 2.4-.6l.02-.03.15-.16c1.32-1.36 2.33-2.28 3.13-2.94a4.067 4.067 0 0 1 2.29-7.43c2.25 0 4.07 1.82 4.07 4.07 0 .66-.17 1.27-.45 1.82h2.91c-.28-.55-.45-1.16-.45-1.82 0-2.25 1.82-4.07 4.07-4.07s4.07 1.82 4.07 4.07c0 1.39-.7 2.62-1.77 3.35.8.66 1.8 1.59 3.12 2.96l.15.15v.02c.46.27 1.77.6 2.42.6.32 0 .54-.17.64-.27.11-.11.29-.34.29-.71"/>
</svg>
