<svg viewBox="0 0 16 16" xmlns="http://www.w3.org/2000/svg">
  <path d="m15.97 11.75-.92-7.16c-.16-.86-.68-1.58-1.4-2.01-.43-.26-.93-.41-1.46-.41h-.58v2.01c0 1.23-1 2.22-2.22 2.22H6.62c-1.23 0-2.22-1-2.22-2.22V2.17h-.56c-.08 0-.16.02-.25.02s-.19 0-.28.03c-.08.02-.16.04-.24.07-.09.02-.17.04-.26.07-.08.03-.16.08-.24.11-.07.04-.15.06-.22.1s-.13.1-.2.14c-.07.05-.14.09-.21.15s-.12.12-.18.18-.12.11-.17.17c-.04.05-.07.1-.11.15-.06.09-.13.17-.18.26-.17.29-.29.62-.36.96l-.91 7.17c-.02.1-.03.21-.03.32 0 .52.26.97.65 1.24.23.16.52.26.82.26.52 0 1.74-.28 2-.7l.08-.08.23-.23c.22-.22.53-.51.84-.8.26.08.54.14.83.14.84 0 1.58-.38 2.09-.97h.9c.51.59 1.25.97 2.09.97.29 0 .57-.06.84-.14.58.53 1.15 1.11 1.15 1.11.26.42 1.48.7 2.01.7a1.46 1.46 0 0 0 1.35-.91c.07-.17.12-.38.11-.58 0-.11-.01-.22-.03-.32ZM3.66 6.46H2.15V4.95h1.51zm1.8 4.19c-.83 0-1.51-.67-1.51-1.51s.67-1.51 1.51-1.51 1.51.67 1.51 1.51-.67 1.51-1.51 1.51m5.08 0c-.83 0-1.51-.67-1.51-1.51s.67-1.51 1.51-1.51 1.51.67 1.51 1.51-.67 1.51-1.51 1.51m2.55-4.19a.749.749 0 1 1-.002-1.498.749.749 0 0 1 .002 1.498M5.9 4.17V2.16h4.21v2.01c0 .4-.32.72-.72.72H6.62c-.4 0-.72-.32-.72-.72"/>
</svg>
