<svg viewBox="0 0 64 64" xmlns="http://www.w3.org/2000/svg">
  <path d="M55.54 23.85c0 1.85-1.5 3.35-3.35 3.35-.46 0-.9-.09-1.3-.26-1.2-.51-2.04-1.7-2.04-3.08s.84-2.58 2.04-3.08c.4-.17.84-.26 1.3-.26 1.85 0 3.35 1.5 3.35 3.35ZM8.61 26.87h6.03v-6.03H8.61zM64 48.2c0 3.3-2.63 5.97-5.88 5.97-2.09 0-6.98-1.11-8.02-2.78 0 0-5.42-5.62-8.13-7.29-.9-.02-1.76-.19-2.57-.48H24.58c-.77.28-1.6.44-2.46.47-2.75 1.66-8.24 7.29-8.24 7.29-1.04 1.67-5.93 2.78-8.02 2.78C2.62 54.17 0 51.5 0 48.2c0-.44.04-.87.13-1.29L3.8 18.27c1.03-5.52 5.81-9.7 11.54-9.7h2.22l28.88-.01 2.33.01c5.68.06 10.4 4.21 11.43 9.7l3.67 28.64c.09.41.14.84.13 1.28ZM20.32 24.3c0 .26.21.46.46.46h22.43c.26 0 .46-.21.46-.46V11.34H20.32zm6.91 11.68c0-2.97-2.41-5.38-5.38-5.38s-5.38 2.41-5.38 5.38 2.41 5.38 5.38 5.38 5.38-2.41 5.38-5.38m20.3 0c0-2.97-2.41-5.38-5.38-5.38s-5.38 2.41-5.38 5.38 2.41 5.38 5.38 5.38 5.38-2.41 5.38-5.38M61.24 48.2c0-.25-.02-.47-.07-.72l-.02-.11v-.11l-3.67-28.55c-.83-4.23-4.49-7.33-8.73-7.37h-2.31V24.3c0 1.78-1.44 3.23-3.23 3.23H20.78c-1.78 0-3.23-1.44-3.23-3.23V11.34h-2.22c-4.29 0-7.98 3.1-8.82 7.37L2.86 47.26v.11l-.04.1c-.05.25-.08.48-.07.68 0 .92.33 1.73.94 2.34.58.58 1.35.91 2.17.91 1.71 0 4.97-.9 5.73-1.57l.1-.16.21-.21c2.85-2.92 4.95-4.83 6.54-6.1-2.8-1.29-4.75-4.11-4.75-7.39 0-4.5 3.64-8.14 8.14-8.14s8.14 3.64 8.14 8.14c0 1.84-.62 3.53-1.65 4.89h7.31a8.07 8.07 0 0 1-1.65-4.89c0-4.5 3.64-8.14 8.14-8.14s8.14 3.64 8.14 8.14c0 3.26-1.92 6.07-4.69 7.36 1.57 1.27 3.66 3.2 6.49 6.13l.2.21.1.15c.76.67 4.03 1.57 5.74 1.57.82 0 1.59-.32 2.17-.91.61-.61.94-1.43.94-2.3Z"/>
</svg>
