<svg viewBox="0 0 40 40" xmlns="http://www.w3.org/2000/svg">
  <path d="m20.01.01-20 5.98v34.02h2.25V10.19h35.49v29.82H40V5.99zM2.26 7.94v-.27l17.75-5.31 17.74 5.31v.27zm29.23 13.19-2.52-7.78H11.09l-2.52 7.78a3.62 3.62 0 0 0-2.99 3.56v9.88h1.63v2.8c0 1.45 1.18 2.63 2.62 2.63h1.58c1.45 0 2.62-1.18 2.62-2.63v-2.8h12.63v2.8c0 1.45 1.18 2.63 2.62 2.63h1.58c1.45 0 2.62-1.18 2.62-2.63v-2.8h.98v-9.88a3.62 3.62 0 0 0-2.99-3.56Zm-18.76-5.52h14.6l1.77 5.46H10.96zm-.94 21.77c0 .21-.17.38-.37.38H9.84c-.21 0-.37-.17-.37-.38v-2.8h2.33v2.8Zm2.25-5.05H7.83v-3.37h2.78c.62 0 1.12-.5 1.12-1.13s-.5-1.13-1.12-1.13H7.83v-2c0-.76.62-1.38 1.37-1.38h21.65c.76 0 1.37.62 1.37 1.38v2h-2.78c-.62 0-1.12.5-1.12 1.13s.5 1.13 1.12 1.13h2.78v3.37H14.03Zm17.21 5.05c0 .21-.17.38-.37.38H29.3c-.21 0-.37-.17-.37-.38v-2.8h2.33v2.8ZM15.04 26.7h9.58v2.25h-9.58z"/>
</svg>
