<svg viewBox="0 0 64 64" xmlns="http://www.w3.org/2000/svg">
  <path d="M14.04 55.31h4.58v5.3c0 .34-.28.62-.63.62h-3.33c-.34 0-.63-.28-.63-.62v-5.3Zm29.72-2.75H11.43v-6.3c.11.03.23.05.35.05h4.51c.76 0 1.38-.62 1.38-1.37s-.62-1.37-1.38-1.37h-4.51c-.12 0-.24.02-.35.05v-2.34a3.97 3.97 0 0 1 3.96-3.96H48.7a3.97 3.97 0 0 1 3.96 3.96v2.34c-.11-.03-.23-.05-.35-.05H47.8c-.76 0-1.38.62-1.38 1.37s.62 1.37 1.38 1.37h4.51c.12 0 .24-.02.35-.05v6.3zm-4.38-9H24.05v2.75h15.33zm5.33-18.58H19.39l-3.11 9.58h31.54zm1.8 35.63c0 .34.28.62.63.62h3.33c.34 0 .63-.28.63-.62v-5.3h-4.58v5.3Zm17.5-51.17v54.57h-64v-51.7H64V9.56H.01v-.12L32.02.01zm-8.6 31.83c0-2.96-1.93-5.47-4.59-6.36l-4.11-12.68H17.39l-4.11 12.68c-2.66.89-4.59 3.4-4.59 6.36v14.04h2.61v5.3c0 1.86 1.51 3.37 3.38 3.37h3.33a3.38 3.38 0 0 0 3.38-3.37v-5.3h22.39v5.3c0 1.86 1.51 3.37 3.38 3.37h3.33a3.38 3.38 0 0 0 3.38-3.37v-5.3h1.57V41.27Z"/>
</svg>
