<svg viewBox="0 0 16 16" xmlns="http://www.w3.org/2000/svg">
  <path d="M12.02 11.69h-.85c-.41 0-.75-.34-.75-.75s.34-.75.75-.75h.85v-.46h-8v.46h.85c.41 0 .75.34.75.75s-.34.75-.75.75h-.85v.79h8zm-2.57.15h-3v-1.5h3zM8.01.02 0 2.5v.19h16v1.5H0v11.82h16V2.5zm5.51 13.96h-.39v.73c0 .72-.59 1.3-1.31 1.3h-.39c-.72 0-1.31-.59-1.31-1.3v-.73H6.17v.73c0 .72-.59 1.3-1.31 1.3h-.39c-.72 0-1.31-.59-1.31-1.3v-.73h-.65v-4.5c0-.69.56-1.25 1.25-1.25h.23l1-2.75h6.05l1 2.75h.23c.69 0 1.25.56 1.25 1.25zm-3.07-5.74H5.59l.46-1.25H10l.46 1.25Z"/>
</svg>
