<svg viewBox="0 0 32 32" xmlns="http://www.w3.org/2000/svg">
  <path d="M7.67 27.76h1.67v2.22H7.67zM21.8 12.6H10.26l-1.35 4.17h14.24zm-.56 13.16H6.37v-2.5h2.12c.55 0 1-.45 1-1s-.45-1-1-1H6.37v-1.5c0-.55.45-1 1-1h17.32c.55 0 1 .45 1 1v1.5h-2.12c-.55 0-1 .45-1 1s.45 1 1 1h2.12v2.5zm-1.55-4.49h-7.66v2h7.66zM32.01 4.83v27.19H0V6.86h31.99v-2H0v-.03L16.01.02 32 4.83Zm-4.32 14.94c0-1.45-1.04-2.67-2.42-2.94l-2.02-6.23H8.8l-2.02 6.23a3 3 0 0 0-2.42 2.94v8h1.3v2.22c0 1.1.9 2 2 2h1.67c1.1 0 2-.9 2-2v-2.22h9.9v2.22c0 1.1.9 2 2 2h1.67c1.1 0 2-.9 2-2v-2.22h.79zm-4.45 10.22h1.67v-2.22h-1.67z"/>
</svg>
