<svg viewBox="0 0 48 48" xmlns="http://www.w3.org/2000/svg">
  <path d="M48 9.28V7.17L24.02.02l-24 7.15v2.11H0v2.5h.02v36.23h2.5V11.78H45.5v36.23H48zm-45.48 0v-.25l21.5-6.4 21.48 6.4v.25zM38.3 25.71l-3.1-9.59H12.88l-3.1 9.59c-2.02.73-3.48 2.65-3.48 4.93V41.4h1.96v3.26c0 1.79 1.46 3.25 3.25 3.25h1.5c1.79 0 3.25-1.46 3.25-3.25V41.4h16.35v3.26c0 1.79 1.46 3.25 3.25 3.25h1.5c1.79 0 3.25-1.46 3.25-3.25V41.4h1.18V30.64c0-2.27-1.46-4.2-3.48-4.93Zm-23.6-7.09h18.67l2.19 6.76H12.51zm-.95 26.04c0 .41-.34.75-.75.75h-1.5c-.41 0-.75-.34-.75-.75V41.4h3zm2.5-5.77H8.8v-4.26h3.44a1.25 1.25 0 0 0 0-2.5H8.8v-1.51c0-1.52 1.23-2.75 2.75-2.75h24.98c1.52 0 2.75 1.23 2.75 2.75v1.51h-3.43a1.25 1.25 0 0 0 0 2.5h3.43v4.26zm21.85 5.77c0 .41-.34.75-.75.75h-1.5c-.41 0-.75-.34-.75-.75V41.4h3zM18.04 32.14h11.49v2.5H18.04z"/>
</svg>
