<svg viewBox="0 0 32 32" xmlns="http://www.w3.org/2000/svg">
  <path d="M16.01.03 0 4.85v27.17h2V8.39h28v23.64h2V4.85zm-14 6.35v-.04l14-4.22L30 6.34v.04zm23.26 10.43-2.02-6.24H8.8l-2.02 6.24a3.005 3.005 0 0 0-2.42 2.95v8.01h1.3V30c0 1.1.9 2 2 2h1.67c1.1 0 2-.9 2-2v-2.23h9.9V30c0 1.1.9 2 2 2h1.67c1.1 0 2-.9 2-2v-2.23h.79v-8.01c0-1.46-1.04-2.67-2.42-2.95m-15.01-4.24H21.8l1.35 4.17H8.91zm-.92 17.42H7.67v-2.23h1.67zm1.99-4.23H6.36v-2.5h2.12c.55 0 1-.45 1-1s-.45-1-1-1H6.36v-1.5c0-.55.45-1 1-1h17.32c.55 0 1 .45 1 1v1.5h-2.12c-.55 0-1 .45-1 1s.45 1 1 1h2.12v2.5zM24.9 31v-1zm0-1.01h-1.66v-2.23h1.67v2.23Zm-12.87-8.74h7.66v2h-7.66z"/>
</svg>
