<svg viewBox="0 0 24 24" xmlns="http://www.w3.org/2000/svg">
  <path d="M18.76 17.52H17.5a.87.87 0 0 1 0-1.74h1.26v-1.19H5.26v1.19h1.29a.87.87 0 0 1 0 1.74H5.26v1.69h13.49v-1.69Zm-4.25.23h-5V16h5zm2.67 3.21h1v1.3h-1zm-.38-8.12H7.21l.93-2.87h7.73zM12.01.02 0 3.67v20.35h24V3.67zm8.5 20.94h-.58v1.62c0 .79-.64 1.43-1.43 1.43h-1.64c-.79 0-1.43-.64-1.43-1.43v-1.62H9v1.62c0 .79-.64 1.43-1.43 1.43H5.93c-.79 0-1.43-.64-1.43-1.43v-1.62h-.99v-6.49c0-.9.73-1.62 1.62-1.62h.24l1.5-4.62h10.27l1.5 4.62h.24c.9 0 1.62.73 1.62 1.62v6.49Zm3.5-15.43H0V3.78h24v1.75ZM6.25 20.96h1v1.3h-1z"/>
</svg>
