<svg viewBox="0 0 32 32" xmlns="http://www.w3.org/2000/svg">
  <path d="M21.48 5.47V1.48c0-.83-.67-1.5-1.5-1.5h-8c-.83 0-1.5.67-1.5 1.5v3.99a6.52 6.52 0 0 0-5.14 6.37v18.13a2 2 0 0 0 2 2h17.27c1.1 0 2-.9 2-2V11.84c0-3.13-2.2-5.74-5.14-6.37ZM7.35 25.46V12.88h17.27v12.58zM19.48 1.98v3.34h-7V1.98zm-7.63 5.35h8.27c2.15 0 3.95 1.53 4.39 3.55H7.45a4.5 4.5 0 0 1 4.39-3.55Zm-4.5 22.64v-2.5h17.27v2.5zm11.66-7.95c-.39.65-1.02 1.09-1.88 1.3h-.03c-.05 0-.09-.03-.11-.07-.03-.05-.01-.12.03-.15.01 0 1.04-.88 1.09-2.27.04-1.02-.45-2.07-1.46-3.11 0 .63-.08 2.04-.7 2.82-.03.04-.08.06-.13.04-.05-.01-.08-.05-.09-.1 0 0-.12-.63-.58-1.1-.06.23-.21.63-.58 1.31-.03.06-.72 1.5.63 2.39.05.03.07.1.04.16-.02.06-.08.09-.14.07-.02 0-2.4-.63-2.24-3.09 0-.07.09-1.69 1.35-3.2 0 0 .94-1.77 1.19-2.78 0-.04.04-.08.08-.09.04-.02.08 0 .12.02.14.11 3.4 2.7 3.73 5.08.01.05.41 1.57-.31 2.78Z"/>
</svg>
