<svg viewBox="0 0 24 24" xmlns="http://www.w3.org/2000/svg">
  <path d="M19.93 9.29H3.98v9.79h15.95zm-7.11 8.21h-.03c-.05 0-.09-.03-.11-.07-.03-.05-.01-.12.03-.15 0 0 .77-.65.81-1.68.03-.74-.32-1.5-1.03-2.25 0 .5-.08 1.49-.53 2.05-.03.04-.08.06-.13.04-.05-.01-.08-.05-.09-.1 0 0-.08-.43-.39-.77-.05.18-.17.47-.42.93-.02.04-.53 1.09.46 1.75.05.03.07.1.05.16-.02.05-.09.09-.14.07-.02 0-1.82-.48-1.7-2.34 0-.05.07-1.27 1.02-2.41 0 0 .7-1.31.88-2.07.01-.04.04-.08.08-.09s.08 0 .12.02c.1.08 2.56 2.03 2.81 3.82 0 .03.31 1.18-.24 2.1-.29.5-.78.83-1.43.98Zm7.11 3.33v1.12c0 1.1-.9 2-2 2H5.98c-1.1 0-2-.9-2-2v-1.12zm-.12-13.29a4.5 4.5 0 0 0-1.56-2.52c-.56-.46-1.22-.79-1.96-.93V1.51c0-.83-.67-1.5-1.5-1.5H9.13c-.83 0-1.5.67-1.5 1.5V4.1c-.61.12-1.17.35-1.66.68-.48.32-.89.74-1.22 1.22-.31.46-.53.99-.65 1.55h15.72Zm-9.18-4.53h2.66v1h-2.66z"/>
</svg>
