<svg viewBox="0 0 16 16" xmlns="http://www.w3.org/2000/svg">
  <path d="M10.84 2.98V1.49a1.5 1.5 0 0 0-1.5-1.51H6.57c-.83 0-1.5.67-1.5 1.5v1.49a4 4 0 0 0-2.43 3.69v7.31a2 2 0 0 0 2 2h6.64c1.1 0 2-.9 2-2V6.66c0-1.66-1-3.08-2.43-3.69Zm.94 3.71v5.54H4.14V6.69zm-5.21-5.2h2.77v1.18H6.56V1.49Zm.07 2.67h2.64c.82 0 1.55.41 2.01 1.03H4.64c.46-.62 1.18-1.03 2.01-1.03Zm4.64 10.32H4.64c-.28 0-.5-.22-.5-.5v-.25h7.64v.25c0 .28-.22.5-.5.5M6.83 8.52s.46-.87.58-1.36c0-.04.04-.08.08-.09.04-.02.08 0 .12.02.07.06 1.72 1.37 1.89 2.58 0 .02.21.8-.16 1.43-.2.34-.53.57-.98.68h-.03c-.05 0-.09-.03-.11-.07-.03-.05-.01-.11.03-.15 0 0 .5-.42.53-1.09.02-.46-.19-.93-.61-1.4-.01.36-.08.94-.36 1.29-.03.04-.08.06-.13.04-.05-.01-.08-.05-.09-.1 0 0-.04-.23-.2-.44-.04.13-.12.31-.26.56-.01.02-.33.7.29 1.11.05.03.07.1.04.16-.02.05-.09.09-.14.07-.01 0-1.25-.33-1.17-1.61 0-.03.05-.87.69-1.64Z"/>
</svg>
