<svg viewBox="0 0 32 32" xmlns="http://www.w3.org/2000/svg">
  <path d="M26.51 10.38c-.18-1.1-.64-2.09-1.32-2.91q-.36-.42-.78-.78c-.3-.25-.62-.46-.96-.65s-.7-.34-1.08-.46c-.19-.06-.38-.11-.58-.15a4 4 0 0 0-.34-.05v-3.9c0-.83-.67-1.5-1.5-1.5h-8c-.83 0-1.5.67-1.5 1.5v3.91c-1.11.16-2.13.62-2.95 1.3-1.1.91-1.86 2.21-2.1 3.68h21.1Zm-12.55-6.9h4v1.84h-4zm12.63 8.9H5.32v13.58h21.27zM17.1 23.31h-.03c-.05 0-.09-.03-.11-.07-.03-.05-.01-.12.03-.15.01 0 1.04-.88 1.09-2.27.04-1.02-.45-2.07-1.46-3.11 0 .63-.08 2.04-.7 2.82-.03.04-.08.06-.13.04-.05-.01-.08-.05-.09-.1 0 0-.12-.63-.58-1.1-.06.23-.21.63-.58 1.31-.03.06-.72 1.5.63 2.39.05.03.07.1.05.15s-.09.09-.14.07c-.02 0-2.4-.63-2.24-3.09 0-.07.09-1.69 1.35-3.2 0 0 .94-1.77 1.19-2.78 0-.04.04-.08.08-.09s.08 0 .12.02c.14.11 3.4 2.7 3.73 5.08.01.05.41 1.57-.31 2.78-.39.65-1.02 1.09-1.88 1.3Zm9.49 4.66v2a2 2 0 0 1-2 2H7.32c-1.1 0-2-.9-2-2v-2z"/>
</svg>
