<svg viewBox="0 0 16 16" xmlns="http://www.w3.org/2000/svg">
  <path fill="#1e1e1c" d="M13.75 8c0-.19-.01-.36-.03-.53l2.02-2.07-1.61-2.79-2.82.72c-.29-.21-.59-.38-.91-.53L9.62.01H6.39L5.61 2.8c-.31.15-.62.32-.91.53l-2.82-.72L.27 5.4l2.02 2.07a4.6 4.6 0 0 0 0 1.06L.27 10.6l1.61 2.79 2.82-.72c.29.21.59.38.91.53l.78 2.79h3.23l.78-2.79c.31-.15.62-.32.91-.53l2.82.72 1.61-2.79-2.02-2.07c.02-.17.03-.35.03-.53M8 10.25c-1.24 0-2.25-1.01-2.25-2.25S6.76 5.75 8 5.75 10.25 6.76 10.25 8 9.24 10.25 8 10.25"/>
</svg>
