<svg viewBox="0 0 40 40" xmlns="http://www.w3.org/2000/svg">
  <path fill="#1e1e1c" d="M34.14 20.01c0-.58-.06-1.14-.14-1.68l5.1-5.23-3.57-6.19-7.11 1.81q-1.365-1.035-2.88-1.68L23.57 0h-7.15l-1.98 7.03c-1 .43-1.96 1-2.88 1.68L4.45 6.9.89 13.1l5.1 5.23c-.08.54-.14 1.1-.14 1.68s.06 1.14.14 1.68l-5.1 5.22 3.57 6.19 7.11-1.81q1.365 1.035 2.88 1.68L16.43 40h7.15l1.98-7.03c1-.43 1.97-1 2.88-1.68l7.11 1.81 3.57-6.19-5.1-5.23c.08-.54.14-1.1.14-1.68ZM20 26.47c-3.57 0-6.46-2.89-6.46-6.46s2.89-6.46 6.46-6.46 6.46 2.89 6.46 6.46-2.89 6.46-6.46 6.46"/>
</svg>
