<svg viewBox="0 0 48 48" xmlns="http://www.w3.org/2000/svg">
  <path fill="#1e1e1c" d="M40.94 24c0-.71-.07-1.39-.17-2.06l6.13-6.28-4.23-7.32-8.54 2.18c-1.12-.85-2.3-1.54-3.53-2.07L28.23 0h-8.46l-2.38 8.45c-1.23.53-2.41 1.22-3.53 2.07L5.32 8.34 1.1 15.66l6.13 6.28c-.1.67-.17 1.34-.17 2.06s.07 1.39.17 2.06L1.1 32.34l4.23 7.32 8.54-2.18c1.12.85 2.3 1.54 3.53 2.07L19.78 48h8.46l2.38-8.45c1.23-.53 2.41-1.22 3.53-2.07l8.54 2.18 4.23-7.32-6.13-6.28c.1-.67.17-1.34.17-2.06ZM24 31.78c-4.3 0-7.78-3.49-7.78-7.78s3.49-7.78 7.78-7.78 7.78 3.49 7.78 7.78-3.49 7.78-7.78 7.78"/>
</svg>
