<svg viewBox="0 0 32 32" xmlns="http://www.w3.org/2000/svg">
  <path fill="#1e1e1c" d="M27.34 16c0-.45-.04-.88-.1-1.29l4.07-4.18-2.92-5.06-5.68 1.45c-.7-.53-1.45-.96-2.22-1.3L18.91 0h-5.84l-1.58 5.62c-.77.34-1.51.77-2.22 1.3L3.59 5.47.68 10.53l4.07 4.18c-.06.41-.1.85-.1 1.29s.04.88.1 1.29L.68 21.47l2.92 5.06 5.68-1.45c.7.53 1.45.96 2.22 1.3L13.08 32h5.84l1.58-5.62c.77-.34 1.51-.77 2.22-1.3l5.68 1.45 2.92-5.06-4.07-4.18c.06-.41.1-.85.1-1.29ZM16 21.01c-2.77 0-5.01-2.24-5.01-5.01s2.24-5.01 5.01-5.01 5.01 2.24 5.01 5.01-2.24 5.01-5.01 5.01"/>
</svg>
