<svg viewBox="0 0 64 64" xmlns="http://www.w3.org/2000/svg">
  <path d="M41.5 5.57v2.75h12.26L36.41 25.67c-8.6-7.58-21.75-7.29-29.97.92C2.3 30.73.02 36.23.02 42.09S2.3 53.45 6.44 57.58c4.27 4.27 9.88 6.41 15.49 6.41s11.22-2.14 15.5-6.41c4.14-4.14 6.42-9.64 6.42-15.49 0-5.39-1.95-10.47-5.49-14.47L55.7 10.28v12.25h2.75V5.57zm-6.02 50.07c-3.62 3.62-8.43 5.61-13.55 5.61S12 59.26 8.38 55.64c-7.47-7.47-7.47-19.63 0-27.1 3.62-3.62 8.43-5.61 13.55-5.61s9.93 1.99 13.55 5.61c7.47 7.47 7.47 19.63 0 27.1"/>
</svg>
