<svg viewBox="0 0 48 48" xmlns="http://www.w3.org/2000/svg">
  <path d="M24 0C14.23 0 6.32 7.92 6.32 17.68 6.32 30.32 24 48 24 48s17.68-17.68 17.68-30.32C41.68 7.92 33.77 0 24 0m0 44.36c-1.66-1.81-4.28-4.8-6.87-8.32-5.44-7.39-8.32-13.74-8.32-18.36 0-8.37 6.81-15.18 15.18-15.18s15.18 6.81 15.18 15.18c0 4.62-2.88 10.97-8.32 18.36-2.59 3.52-5.2 6.51-6.87 8.32Zm.5-34.83c-5.79 0-10.1 3.95-10.1 9.57 0 5.19 3.58 8.99 8.94 8.99 1.74 0 3.7-.4 5.29-1.16l-.91-2.44c-1.38.66-2.67.98-4 .98-3.85 0-6.29-2.52-6.29-6.37s2.74-6.9 6.87-6.9c3.55 0 6.24 1.69 6.24 5.61 0 2.27-.73 3.27-1.81 3.27-.63 0-.88-.4-.88-1.11 0-.3.03-.68.13-1.13l.75-4.28h-2.52l-.23 1.08c-.43-1.03-1.38-1.46-2.49-1.46-2.17 0-4.38 2.17-4.38 5.26 0 2.64 1.56 3.9 3.47 3.9 1.36 0 2.29-.58 2.9-1.64.45 1.21 1.54 1.96 3.12 1.96 2.49 0 4.96-1.96 4.96-6.04 0-5.54-4.58-8.11-9.06-8.11Zm-1.13 11.21c-.78 0-1.23-.53-1.23-1.49 0-1.36.71-2.47 1.81-2.47.86 0 1.31.55 1.31 1.49 0 1.36-.73 2.47-1.89 2.47"/>
</svg>
