<svg viewBox="0 0 32 32" xmlns="http://www.w3.org/2000/svg">
  <path d="M16.65 12.21c0 .81-.42 1.44-1.02 1.44-.45 0-.72-.29-.72-.8 0-.82.4-1.44 1.02-1.44.47 0 .72.29.72.81Zm11.14-.42c0 1.32-.29 2.71-.77 4.14-.1.28-.2.57-.31.86-.22.57-.48 1.15-.75 1.72-.83 1.72-1.87 3.42-2.95 5.01-.36.53-.73 1.05-1.1 1.55-2.95 4-5.89 6.95-5.89 6.95s-2.95-2.95-5.89-6.95c-.37-.5-.74-1.02-1.1-1.55-1.09-1.59-2.12-3.29-2.95-5.01-.28-.57-.53-1.15-.75-1.72-.11-.29-.22-.57-.31-.86-.49-1.42-.77-2.82-.77-4.14 0-2.85 1.01-5.46 2.69-7.5 1.2-1.46 2.75-2.62 4.51-3.36.71-.3 1.45-.53 2.21-.69S15.22 0 16.04 0c4.48 0 8.37 2.49 10.37 6.17.91 1.67 1.42 3.58 1.42 5.62Zm-5.27-.01c0-3.78-3.24-5.52-6.19-5.52-3.98 0-6.9 2.63-6.9 6.48 0 3.53 2.33 6.09 6.01 6.09 1.21 0 2.5-.27 3.52-.75l-.65-1.78c-.92.4-1.68.6-2.47.6-2.57 0-4.18-1.56-4.18-4.18s1.81-4.48 4.48-4.48c2.32 0 4.15 1.04 4.15 3.69 0 1.39-.35 1.98-1.11 1.98-.4 0-.59-.18-.59-.69 0-.24.03-.54.12-.94l.5-2.53h-1.9l-.18.72c-.22-.67-.89-.96-1.66-.96-1.24 0-2.82 1.34-2.82 3.53 0 1.73 1.01 2.55 2.28 2.55.89 0 1.46-.35 1.86-.99.39.75 1.16 1.29 2.33 1.29 1.81 0 3.39-1.34 3.39-4.11Z"/>
</svg>
