<svg viewBox="0 0 32 32" xmlns="http://www.w3.org/2000/svg">
  <path d="M16 0C9.49 0 4.21 5.28 4.21 11.79 4.21 20.21 16 32 16 32s11.79-11.79 11.79-20.21C27.79 5.28 22.51 0 16 0M6.21 11.79C6.21 6.39 10.6 2 16 2s9.79 4.39 9.79 9.79S19.64 25.1 16 29.1c-3.64-4-9.79-11.88-9.79-17.31m10.12-5.54c-3.98 0-6.9 2.63-6.9 6.48 0 3.53 2.33 6.09 6.01 6.09 1.21 0 2.5-.27 3.52-.75l-.65-1.78c-.92.4-1.68.6-2.47.6-2.57 0-4.18-1.56-4.18-4.18s1.81-4.48 4.48-4.48c2.32 0 4.15 1.04 4.15 3.69 0 1.39-.35 1.98-1.11 1.98-.4 0-.59-.18-.59-.69 0-.24.03-.54.12-.94l.5-2.53h-1.9l-.18.72c-.22-.67-.89-.96-1.66-.96-1.24 0-2.82 1.34-2.82 3.53 0 1.73 1.01 2.55 2.28 2.55.89 0 1.46-.35 1.86-.99.39.75 1.16 1.29 2.33 1.29 1.81 0 3.39-1.34 3.39-4.11 0-3.78-3.24-5.52-6.19-5.52Zm-.71 7.41c-.45 0-.72-.29-.72-.8 0-.82.4-1.44 1.02-1.44.47 0 .72.29.72.81 0 .81-.42 1.44-1.02 1.44Z"/>
</svg>
