<svg viewBox="0 0 64 64" xmlns="http://www.w3.org/2000/svg">
  <path d="M34.15 24.26c0 2.05-1.11 3.79-3.09 3.79-1.21 0-1.91-.87-1.91-2.42 0-2.01 1.07-3.79 2.89-3.79 1.41 0 2.12.97 2.12 2.42Zm21.43-.68c0 7.9-5.18 17.27-10.69 25-.37.52-.74 1.02-1.1 1.52-1.47 2-2.95 3.87-4.33 5.55C35.32 60.68 32 64 32 64S8.42 40.43 8.42 23.58C8.42 10.56 18.98 0 32 0c3.26 0 6.36.66 9.18 1.85 1.41.6 2.75 1.33 4.01 2.17.31.21.62.43.92.66 2.42 1.81 4.48 4.08 6.06 6.67q.3.48.57.99c1.81 3.34 2.85 7.17 2.85 11.24Zm-11.19-.09c0-7.22-5.64-10.51-11.72-10.51-7.38 0-13.02 5.27-13.02 12.52 0 6.75 4.87 11.68 11.75 11.68 2.25 0 4.87-.5 7.08-1.58l-1.11-2.85c-1.85.97-3.79 1.41-5.84 1.41-5.1 0-8.43-3.62-8.43-8.63 0-5.44 3.73-9.5 9.43-9.5 4.87 0 8.39 2.45 8.39 7.62 0 3.26-1.34 4.87-2.69 4.87-.91 0-1.18-.74-1.18-1.65 0-.34 0-.67.07-1.01l1.01-6.55h-2.79l-.23 1.48c-.74-1.41-1.95-1.98-3.32-1.98-3.42 0-6.08 3.12-6.08 6.92s2.15 5.34 4.67 5.34c1.91 0 3.22-.81 4.03-2.38.44 1.68 1.75 2.65 3.59 2.65 2.95 0 6.38-2.52 6.38-7.86Z"/>
</svg>
