<svg viewBox="0 0 24 24" xmlns="http://www.w3.org/2000/svg">
  <path d="M12.46 9.13c0 .58-.3 1.03-.73 1.03-.32 0-.52-.2-.52-.58 0-.59.29-1.03.73-1.03.34 0 .52.2.52.58m8.38-.29c0 .79-.14 1.62-.38 2.47-.48 1.69-1.38 3.45-2.42 5.11-.78 1.24-1.63 2.42-2.45 3.46-.54.7-1.07 1.33-1.55 1.88-.24.28-.46.53-.67.76-.41.46-.76.83-1 1.09-.24.25-.38.39-.38.39s-.14-.14-.38-.39-.59-.62-1-1.09c-.21-.23-.43-.49-.67-.76-.47-.55-1-1.19-1.55-1.88-.82-1.04-1.67-2.22-2.45-3.46-1.04-1.65-1.93-3.41-2.42-5.11-.24-.85-.38-1.68-.38-2.47C3.16 3.96 7.12 0 12 0s8.84 3.96 8.84 8.84m-4.18-.02c0-2.7-2.32-3.95-4.43-3.95-2.84 0-4.93 1.88-4.93 4.63 0 2.52 1.67 4.35 4.29 4.35.86 0 1.79-.19 2.52-.54l-.47-1.27c-.66.29-1.2.43-1.76.43-1.84 0-2.99-1.12-2.99-2.99s1.29-3.2 3.2-3.2c1.66 0 2.96.74 2.96 2.64 0 1-.25 1.42-.79 1.42-.29 0-.42-.13-.42-.49 0-.17.02-.38.08-.67l.36-1.81h-1.36l-.13.52c-.16-.48-.64-.68-1.19-.68-.89 0-2.02.96-2.02 2.52 0 1.24.72 1.82 1.63 1.82.64 0 1.04-.25 1.33-.71.28.54.83.92 1.67.92 1.29 0 2.42-.96 2.42-2.94Z"/>
</svg>
