<svg viewBox="0 0 64 64" xmlns="http://www.w3.org/2000/svg">
  <path d="M63.98 2.75V51H24.15v-2.48c5.74-6.57 15.49-19.23 15.49-29.39 0-8.69-5.45-16.11-13.09-19.1.12-.02.23-.04.36-.04h34.33a2.74 2.74 0 0 1 2.75 2.75Zm-39.83 51h39.83v7.5A2.74 2.74 0 0 1 61.23 64H26.9c-1.52 0-2.75-1.23-2.75-2.75zm18.54 6.09h2.75v-2.75h-2.75zm-17.95-40.6c0-3.1-2.52-5.62-5.62-5.62s-5.62 2.52-5.62 5.62 2.52 5.62 5.62 5.62 5.62-2.52 5.62-5.62m-5.62 32.71s-5.4-5.4-10.47-12.51C4.19 33.16-.02 25.55-.02 19.14c0-3.97 1.21-7.65 3.27-10.7 1.03-1.53 2.28-2.9 3.7-4.07s3.01-2.14 4.72-2.87C13.96.53 16.48 0 19.12 0c7.27 0 13.59 4.05 16.83 10.01 1.47 2.71 2.31 5.82 2.31 9.12 0 6.84-4.78 15.04-9.57 21.53s-9.57 11.28-9.57 11.28Zm0-24.34c4.62 0 8.37-3.75 8.37-8.37s-3.75-8.37-8.37-8.37-8.37 3.75-8.37 8.37 3.75 8.37 8.37 8.37"/>
</svg>
