<svg viewBox="0 0 40 40" xmlns="http://www.w3.org/2000/svg">
  <path d="M39.98 1.94v28.22H15.54c3.63-4.21 9.5-11.97 9.5-18.25-.01-5.34-3.22-9.93-7.81-11.97h20.75c1.1 0 2 .9 2 2M15.09 32.41h24.9v5.53c0 .41-.13.8-.34 1.12-.14.21-.33.4-.54.54-.32.22-.7.34-1.12.34h-20.9a2.05 2.05 0 0 1-1.42-.58q-.135-.135-.24-.3c-.22-.32-.34-.7-.34-1.12zm11.32 4.38h2.25v-2.25h-2.25zM11.95 8.99c-1.64 0-2.98 1.34-2.98 2.98s1.34 2.98 2.98 2.98 2.98-1.34 2.98-2.98-1.34-2.98-2.98-2.98m3.26 19.81-.49.58a61 61 0 0 1-2.77 3.03s-1.17-1.17-2.77-3.03c-.16-.19-.33-.38-.49-.58-1.01-1.2-2.16-2.64-3.27-4.21-.56-.78-1.11-1.6-1.64-2.44s-1.03-1.7-1.48-2.56C.93 16.98-.02 14.31-.02 11.91s.75-4.78 2.04-6.69c.43-.64.92-1.23 1.46-1.77s1.13-1.03 1.77-1.46a11.97 11.97 0 0 1 6.7-2.05 11.9 11.9 0 0 1 8.46 3.5 11.9 11.9 0 0 1 3.5 8.46c0 2.48-.95 5.08-2.31 7.68-.45.87-.95 1.73-1.48 2.56-.7 1.12-1.45 2.2-2.2 3.21-.93 1.27-1.87 2.43-2.71 3.43Zm1.97-16.83c0-2.89-2.34-5.23-5.23-5.23s-5.23 2.34-5.23 5.23 2.34 5.23 5.23 5.23 5.23-2.34 5.23-5.23"/>
</svg>
