<svg viewBox="0 0 48 48" xmlns="http://www.w3.org/2000/svg">
  <path d="M47.98 2.5v33.66H18.6c4.35-5.05 11.34-14.31 11.34-21.81 0-6.42-3.9-11.95-9.46-14.34.04 0 .09-.01.13-.01h24.87a2.5 2.5 0 0 1 2.5 2.5M18.11 38.66h29.87v6.84a2.45 2.45 0 0 1-.43 1.39c-.45.66-1.21 1.1-2.07 1.1H20.61a2.5 2.5 0 0 1-2.5-2.5v-6.84Zm13.69 3.25v2.5h2.5v-2.5zM14.34 10.65c-2.08 0-3.78 1.69-3.78 3.78s1.69 3.78 3.78 3.78 3.78-1.69 3.78-3.78-1.69-3.78-3.78-3.78m14.35 3.7c0 10.26-14.35 24.61-14.35 24.61S-.02 24.61-.02 14.35C-.02 6.43 6.41 0 14.34 0s14.35 6.43 14.35 14.35m-8.08.08c0-3.47-2.81-6.28-6.28-6.28s-6.28 2.81-6.28 6.28 2.81 6.28 6.28 6.28 6.28-2.81 6.28-6.28"/>
</svg>
