<svg viewBox="0 0 24 24" xmlns="http://www.w3.org/2000/svg">
  <path d="M23.98 1.5v15.63H10.4c2.14-2.66 4.81-6.63 4.81-9.95 0-3.13-1.8-5.85-4.42-7.18h11.69c.83 0 1.5.67 1.5 1.5M9.05 18.88h14.94v3.62c0 .83-.67 1.5-1.5 1.5H10.55c-.83 0-1.5-.67-1.5-1.5zm6.59 3.23h1.75v-1.75h-1.75zM7.16 5.83c-.77 0-1.39.62-1.39 1.39s.62 1.39 1.39 1.39 1.39-.62 1.39-1.39-.62-1.39-1.39-1.39m7.18 1.35c0 5.13-7.18 12.3-7.18 12.3S-.02 12.3-.02 7.18a7.18 7.18 0 0 1 14.36 0m-4.04.03c0-1.73-1.4-3.14-3.14-3.14s-3.14 1.4-3.14 3.14 1.4 3.14 3.14 3.14 3.14-1.4 3.14-3.14"/>
</svg>
