<svg viewBox="0 0 40 40" xmlns="http://www.w3.org/2000/svg">
  <path d="M28.66 35.84h-2.25v-2.25h2.25zM39.98 2v36c0 1.1-.9 2-2 2h-20.9c-1.1 0-2-.9-2-2v-7.27c.67-.76 1.44-1.67 2.25-2.69v1.17h20.4V2.25H20.68C19.67 1.33 18.5.56 17.23 0h20.75c1.1 0 2 .9 2 2m-2.25 29.47h-20.4v6.28h20.4zM23.91 11.96c0 8.55-11.96 20.51-11.96 20.51S-.02 20.51-.02 11.96C-.02 5.35 5.34 0 11.95 0s11.96 5.36 11.96 11.96M11.95 29.19c3.69-4.09 9.71-11.88 9.71-17.23s-4.36-9.71-9.71-9.71-9.72 4.36-9.72 9.71 6.02 13.15 9.71 17.23Zm5.23-17.17c0 2.89-2.34 5.23-5.23 5.23s-5.23-2.34-5.23-5.23 2.34-5.23 5.23-5.23 5.23 2.34 5.23 5.23m-2.25 0c0-1.64-1.34-2.98-2.98-2.98s-2.98 1.34-2.98 2.98S10.31 15 11.95 15s2.98-1.34 2.98-2.98"/>
</svg>
