<svg viewBox="0 0 32 32" xmlns="http://www.w3.org/2000/svg">
  <path d="m27.19 17.51-1.24-.63-1.28 1.32-2.42.49-2.07 1.13s1.02 2.09 1.47 3.6c.33.34 1.37 1.02 1.37 1.02l1.5 2.51-2.47 1.69.49 2.53-2.73-.59-1.64.71-2.91.69-4.37-1.99-1.63.87L8.03 30l1.49-4.46-1.13-.66-3.05-1.32.14-1.67-.94-.81.32-1.87-.66-1.06.35-2.65-.51-1.88 1.99-.43.85-1.93-.78-.49.79-.78.26-1.57-.34-2.41 1.79-.75 1.49 1.39.82-.6-.14-1.09 1.21-1.21-.99-1.03 1.11-.85-.46-.66-.48-1.15 1.19-.09 2.4 1-.53.9.93.66 2.2-.24.53 1.44.59.28 1.89-1.93 1.07.25h.31l.86 1.05 1.26.06 1.47.94 1.38 2.89-.34 4.23 1.57 4.33-.76 1.66ZM5.7 23.06v.02z"/>
</svg>
