<svg viewBox="0 0 24 24" xmlns="http://www.w3.org/2000/svg">
  <path d="m10.69 3.59.19.13.66-.07.29-.03.17.47.65.3.45.21 1.12.52.87-.88.53-.54.46.56.77.04.48.02.29.19.62 1.29-.21 2.7-.03.38.13.36.6 1.66-.53.55-.58.6-1.28.26-.26.05-.23.13-1.55.85-1.46.8.73 1.5c.2.4.75 1.62 1 2.43l.12.42.31.31c.24.24.64.54.97.77l.08.14-.5.34-.95.65.08.42-.51.22-1.09.47-1.45.35-2.73-1.24-.42-.19.33-.99.45-1.35-1.23-.72-.85-.5-.09-.05-.1-.04-1.13-.49.07-.89-.63-.54.07-.43.11-.66-.35-.56-.17-.27.18-1.37.04-.31.58-.12.36-.82.63-1.45.61-1.39-.43-.27.1-.59.39.36 1.17-.85.61-.45.84-.61-.13-.99.3-.3.48-.48M9.26 0l-.9.07.36.86.34.5-.83.63.74.77-.91.91.11.82-.61.45-1.11-1.04-1.34.56.25 1.81-.2 1.18-.59.59.59.37-.63 1.45-1.49.32.38 1.41-.26 1.99.5.8-.24 1.4.71.61-.1 1.26 2.29.99.85.5-1.12 3.35.92.64 1.22-.66 3.28 1.49 2.18-.52 1.23-.53 2.05.44-.37-1.9 1.85-1.27-1.12-1.88s-.78-.51-1.03-.77c-.34-1.14-1.1-2.7-1.1-2.7l1.55-.85 1.81-.37.96-.99.93.47.57-1.25-1.18-3.24.25-3.17-1.04-2.17-1.11-.7-.94-.05-.65-.78h-.24l-.8-.19-1.42 1.45-.45-.21-.4-1.08-1.65.18-.69-.5.4-.67zM4.28 17.3"/>
</svg>
