<svg viewBox="0 0 16 16" xmlns="http://www.w3.org/2000/svg">
  <path d="m13.6 8.76-.62-.31-.64.66-1.21.25-1.03.57s.51 1.04.73 1.8c.16.17.69.51.69.51l.75 1.26-1.23.85.24 1.27-1.36-.3-.82.35-1.46.35-2.18-.99-.81.44-.61-.43.75-2.23-.57-.33-1.52-.66.07-.84-.47-.41.16-.93-.33-.53.17-1.33-.26-.94 1-.21.42-.97-.39-.24.39-.39.13-.78-.17-1.2.9-.37.74.7.41-.3-.07-.54.61-.6-.5-.51.55-.42-.23-.33-.24-.57.6-.05 1.2.5-.26.45.46.33 1.1-.12.27.72.3.14.94-.96.54.13h.16l.43.52.63.03.74.47.69 1.45-.17 2.11.78 2.16-.38.83ZM2.85 11.53"/>
</svg>
