<svg viewBox="0 0 16 16" xmlns="http://www.w3.org/2000/svg">
  <path d="m7.67 2.78.07.2.56.26.3.14.96.45.74-.76.1-.1.17.2.66.03h.23l.04.04.33.7-.14 1.71-.03.32.11.31.33.91-.21.21-.32.33-.75.15-.22.05-.2.11-1.03.57-1.25.69.63 1.29c.13.26.49 1.05.64 1.57l.11.36.26.27c.11.11.25.23.4.34l-.79.54.04.23-.1.04-.7.3-.83.2-1.72-.78.13-.38.39-1.16-1.05-.62-.57-.33-.08-.05-.08-.04-.54-.23.04-.53-.41-.35.02-.1.1-.56-.3-.48-.05-.08.1-.77.32-.07.31-.7.42-.97.52-1.19-.05-.03.64-.47.41-.3.72-.52-.09-.69.08-.08.12-.12.5-.05M6.17 0l-.6.05.24.57.23.33-.55.42.5.51-.61.6.07.54-.41.3-.74-.7-.9.37.17 1.2-.13.78-.39.39.39.24-.42.97-1 .21.26.94-.17 1.33.33.53-.16.93.47.41-.07.84 1.52.66.57.33-.75 2.23.61.43.81-.44 2.18.99 1.46-.35.82-.35 1.36.3-.24-1.27 1.23-.85-.75-1.26s-.52-.34-.69-.51c-.22-.76-.73-1.8-.73-1.8l1.03-.57 1.21-.25.64-.66.62.31.38-.83-.78-2.16.17-2.11-.69-1.45-.74-.47-.63-.03-.43-.52h-.16L10.16 1l-.94.96-.3-.14-.27-.72-1.1.12-.46-.33.26-.45-1.2-.5ZM2.85 11.54"/>
</svg>
