<svg viewBox="0 0 32 32" xmlns="http://www.w3.org/2000/svg">
  <path d="m14.22 4.36.37.27.76-.08.65-.07.28.75.75.35.59.28 1.28.6.99-1.01.97-.99.2.24.56.67.88.04.73.04.55.35.91 1.89-.29 3.69-.03.43.15.41.87 2.41-.85.88-.85.87-1.81.37-.3.06-.27.15-2.07 1.13-1.67.92.84 1.71s.95 1.96 1.35 3.29l.14.48.35.36c.32.32.86.72 1.31 1.03l.31.51-.92.63-1.08.74.16.84-.39-.08-.59.25-1.49.64-2.07.49-3.74-1.71-.83-.38.54-1.61.52-1.54-1.4-.82-1.13-.66-.1-.06-.11-.05-1.73-.75.02-.24.08-1.01-.77-.66-.09-.07.13-.75.13-.75-.4-.65-.28-.46.25-1.94.05-.4-.06-.23.93-.2.41-.94.85-1.93.7-1.58-.52-.33.23-1.4.04-.22.77.72 1.34-.98.82-.6.96-.7-.15-1.18v-.11l.5-.51.84-.83M12.35 0l-1.19.09.48 1.15.46.66-1.11.85.99 1.03-1.21 1.21.14 1.09-.82.6L8.6 5.29l-1.79.75.34 2.41-.26 1.57-.79.78.78.49-.85 1.93-1.99.43.51 1.88-.35 2.65.66 1.06-.32 1.87.94.81-.14 1.67 3.05 1.32 1.13.66-1.49 4.46 1.23.86 1.63-.87 4.37 1.99 2.91-.69 1.64-.71 2.73.59-.49-2.53 2.47-1.69-1.5-2.51s-1.04-.69-1.37-1.02c-.45-1.52-1.47-3.6-1.47-3.6l2.07-1.13 2.42-.49 1.28-1.32 1.24.63.76-1.66-1.57-4.33.34-4.23-1.38-2.89-1.47-.94-1.26-.06-.86-1.04h-.31l-1.07-.26-1.89 1.93-.59-.28-.53-1.44-2.2.24-.93-.66.53-.9-2.4-1ZM5.7 23.07v-.02z"/>
</svg>
