<svg viewBox="0 0 40 40" xmlns="http://www.w3.org/2000/svg">
  <path d="M5.16 23.75c0-.62.5-1.12 1.12-1.12h4.85c.62 0 1.12.5 1.12 1.12s-.5 1.12-1.12 1.12H6.28c-.62 0-1.12-.5-1.12-1.12m9.6 4H6.29c-.62 0-1.12.5-1.12 1.12s.5 1.12 1.12 1.12h8.47c.62 0 1.12-.5 1.12-1.12s-.5-1.12-1.12-1.12M40 7.25v27.38c0 1.24-1.01 2.25-2.25 2.25H2.25C1.01 36.88 0 35.87 0 34.63V7.25C0 6.01 1.01 5 2.25 5h15.6c-.05-1.01.08-1.96.5-2.75C19.15.75 20.71 0 23.01 0s3.86.76 4.65 2.25c.42.8.56 1.74.5 2.75h9.59C38.99 5 40 6.01 40 7.25m-12.22 0c-.62 2.34-1.84 4.71-2.76 6.28h12.73V7.25zm-4.77 5.28c1.81-3.07 3.66-7.36 2.67-9.22-.14-.26-.56-1.06-2.67-1.06s-2.53.8-2.67 1.06c-.99 1.86.86 6.15 2.67 9.22M2.25 7.25v6.28h18.74c-.92-1.57-2.14-3.94-2.76-6.28zm0 27.38H22V15.78H2.25zm35.5 0V15.78h-8.29c2.51 1.06 4.96 2.59 5.6 4.69.5 1.62-.08 3.26-1.7 4.89-1.24 1.24-2.5 1.87-3.75 1.87-.38 0-.76-.06-1.14-.17-1.81-.55-3.2-2.46-4.23-4.59v12.17h13.5Zm-8.61-9.73c.29.09 1.15.35 2.63-1.14 1.49-1.49 1.22-2.35 1.14-2.64-.62-2.02-4.96-3.75-8.41-4.64.89 3.45 2.62 7.79 4.64 8.41Z"/>
</svg>
