<svg viewBox="0 0 16 16" xmlns="http://www.w3.org/2000/svg">
  <path d="M2.39 8.8c0-.41.34-.75.75-.75h1.94c.41 0 .75.34.75.75s-.34.75-.75.75H3.14c-.41 0-.75-.34-.75-.75m4.14 1.5H3.14c-.41 0-.75.34-.75.75s.34.75.75.75h3.39c.41 0 .75-.34.75-.75s-.34-.75-.75-.75M16 3.5v9.75c0 .83-.67 1.5-1.5 1.5h-13c-.83 0-1.5-.67-1.5-1.5V3.5C0 2.67.67 2 1.5 2h5.34c.02-.34.08-.66.23-.94C7.33.58 7.91 0 9.2 0s1.87.58 2.13 1.06c.15.28.22.6.23.94h2.94c.83 0 1.5.67 1.5 1.5m-1.5 0h-3.15c-.19.63-.47 1.25-.74 1.77h3.9V3.5Zm-1.62 5.2c-.17-.55-1.41-1.13-2.64-1.51.37 1.23.95 2.47 1.51 2.64.24.07.54-.17.75-.38s.45-.52.38-.75m-3.68-4c.6-1.13 1.07-2.42.8-2.93-.12-.22-.5-.26-.8-.26s-.69.05-.8.26c-.27.51.2 1.8.8 2.93M1.5 3.5v1.77h6.3c-.28-.52-.56-1.14-.74-1.77zm0 9.75h7V6.77h-7zm13 0V6.77h-1.48c.61.39 1.11.89 1.29 1.49.16.52.16 1.34-.75 2.25-.64.64-1.24.83-1.72.83-.2 0-.38-.03-.54-.08-.51-.16-.94-.54-1.3-1.03v3.01h4.5Z"/>
</svg>
