<svg viewBox="0 0 48 48" xmlns="http://www.w3.org/2000/svg">
  <path d="M6.3 28.54c0-.69.56-1.25 1.25-1.25h5.82a1.25 1.25 0 0 1 0 2.5H7.55c-.69 0-1.25-.56-1.25-1.25m11.41 4.89H7.55a1.25 1.25 0 0 0 0 2.5h10.17a1.25 1.25 0 0 0 0-2.5ZM48 8.53v33.25a2.5 2.5 0 0 1-2.5 2.5h-43a2.5 2.5 0 0 1-2.5-2.5V8.53a2.5 2.5 0 0 1 2.5-2.5h19.02c-.08-1.24.07-2.4.59-3.37C23.04.9 24.89 0 27.61 0s4.56.89 5.5 2.65c.52.97.66 2.13.59 3.37h11.81a2.5 2.5 0 0 1 2.5 2.5Zm-14.73 0c-.76 2.89-2.3 5.83-3.41 7.72h15.65V8.53H33.28Zm-5.66 6.61c2.21-3.72 4.51-9.01 3.29-11.31-.17-.33-.7-1.33-3.29-1.33s-3.11 1-3.29 1.33c-1.22 2.3 1.08 7.6 3.29 11.31M2.5 8.53v7.72h22.86c-1.12-1.89-2.66-4.83-3.41-7.72zm0 33.25h24V18.75h-24zm43 0V18.75H34.87c3.14 1.27 6.3 3.15 7.1 5.75.58 1.91-.09 3.84-2.01 5.76-1.47 1.47-2.96 2.21-4.43 2.21-.45 0-.89-.07-1.33-.2-2.25-.69-3.96-3.15-5.21-5.84v15.34h16.5ZM34.93 29.89c.36.11 1.43.44 3.26-1.39s1.5-2.91 1.39-3.26c-.76-2.49-6.13-4.61-10.32-5.67 1.06 4.19 3.18 9.56 5.67 10.32"/>
</svg>
