<svg viewBox="0 0 64 64" xmlns="http://www.w3.org/2000/svg">
  <path d="M35.62 28.51c-.08-.35-.13-.62-.16-.77l-.1-.54c-.38-.58-.98-1.54-1.68-2.75H0v31.82c0 1.52 1.23 2.75 2.75 2.75h32.87zm-25.56 8.13h7.76c.76 0 1.38.62 1.38 1.38s-.62 1.38-1.38 1.38h-7.76c-.76 0-1.38-.62-1.38-1.38s.62-1.38 1.38-1.38m13.56 10.94H10.07c-.76 0-1.38-.62-1.38-1.38s.62-1.38 1.38-1.38h13.55c.76 0 1.38.62 1.38 1.38s-.62 1.38-1.38 1.38m13.19-23.24C34.19 20 30.28 12.13 32.17 8.56c.69-1.29 2.21-1.92 4.64-1.92s3.96.63 4.64 1.92c1.89 3.56-2.02 11.43-4.64 15.78m1.81 4.95c4.93 1.21 13.26 4.02 14.44 7.87.43 1.4-.2 2.92-1.92 4.64s-3.24 2.35-4.64 1.92c-3.86-1.18-6.66-9.51-7.87-14.44ZM64 10.76v45.5c0 1.52-1.23 2.75-2.75 2.75H38.37V37.47c1.66 3.98 4.06 7.88 7.32 8.88.56.17 1.12.26 1.68.26 1.89 0 3.8-.96 5.71-2.86 2.47-2.48 3.35-4.96 2.61-7.39-1.77-5.78-12.61-8.86-16.97-9.87.34-.54.76-1.23 1.22-2.04h24.05V21.7H41.42c2.28-4.56 4.48-10.63 2.46-14.42-1.19-2.24-3.57-3.38-7.07-3.38s-5.88 1.14-7.07 3.38c-2.02 3.79.18 9.86 2.46 14.42H0V10.77c0-1.52 1.23-2.75 2.75-2.75h22.64c.2-.89.5-1.75.92-2.56C27.39 3.43 30.19.02 36.81.02s9.42 3.41 10.49 5.44c.43.81.73 1.66.92 2.56h13.02c1.52 0 2.75 1.23 2.75 2.75Z"/>
</svg>
