<svg viewBox="0 0 64 64" xmlns="http://www.w3.org/2000/svg">
  <path d="M25.7 56.61s-.04-5.56-.04-8.19c-7.91 1.46-9.95-1.93-10.58-3.7-.35-.9-1.89-3.7-3.23-4.44-1.1-.59-2.67-2.05-.04-2.08 2.48-.04 4.25 2.28 4.84 3.23 2.83 4.76 7.36 3.42 9.17 2.6.28-2.05 1.1-3.42 2.01-4.21-7-.79-14.32-3.5-14.32-15.54 0-3.42 1.22-6.25 3.23-8.46-.31-.79-1.42-4.01.31-8.34 0 0 2.64-.83 8.65 3.23 2.52-.71 5.19-1.06 7.87-1.06s5.35.35 7.87 1.06c6.02-4.09 8.65-3.23 8.65-3.23 1.73 4.33.63 7.55.31 8.34 2.01 2.2 3.23 5 3.23 8.46 0 12.08-7.36 14.75-14.36 15.54 1.14.98 2.12 2.87 2.12 5.82 0 4.21-.04 10.98-.04 10.98H25.69Z"/>
</svg>
