<svg viewBox="0 0 48 48" xmlns="http://www.w3.org/2000/svg">
  <path d="M19.27 42.46s-.03-4.17-.03-6.14c-5.93 1.09-7.46-1.45-7.94-2.77-.27-.68-1.42-2.77-2.42-3.33-.83-.44-2.01-1.53-.03-1.56 1.86-.03 3.19 1.71 3.63 2.42 2.12 3.57 5.52 2.57 6.87 1.95.21-1.53.83-2.57 1.5-3.16-5.25-.59-10.74-2.63-10.74-11.65 0-2.57.91-4.69 2.42-6.34-.24-.59-1.06-3.01.24-6.25 0 0 1.98-.62 6.49 2.42 1.89-.53 3.89-.8 5.9-.8s4.01.27 5.9.8c4.51-3.07 6.49-2.42 6.49-2.42 1.3 3.25.47 5.66.24 6.25 1.5 1.65 2.42 3.75 2.42 6.34 0 9.06-5.52 11.06-10.77 11.65.86.74 1.59 2.15 1.59 4.37 0 3.16-.03 8.24-.03 8.24H19.26Z"/>
</svg>
