<svg viewBox="0 0 16 16" xmlns="http://www.w3.org/2000/svg">
  <path d="M16 8.2c0 .44-.04.87-.1 1.3a8 8 0 0 1-5.35 6.29c-.05.01-.1.02-.14.02-.02 0-.04 0-.06-.01-.03 0-.06 0-.08-.02a.3.3 0 0 1-.1-.05c-.02-.01-.04-.02-.05-.04-.03-.03-.04-.06-.06-.09 0-.01-.02-.03-.02-.04a.4.4 0 0 1-.03-.15c0-.27.01-1.13.01-2.2 0-.19-.02-.36-.04-.51a1.9 1.9 0 0 0-.21-.59 1.3 1.3 0 0 0-.29-.38c.67-.08 1.35-.22 1.94-.53.98-.52 1.71-1.5 1.71-3.42 0-.88-.31-1.59-.82-2.15.06-.15.23-.65.13-1.35-.03-.23-.1-.49-.21-.77s-.02 0-.04 0h-.26c-.06 0-.13.02-.21.03-.02 0-.04 0-.06.01-.07.01-.14.04-.22.06-.02 0-.05.01-.07.02-.1.03-.21.08-.34.13-.02 0-.05.02-.07.03-.11.05-.22.11-.34.17-.04.02-.08.04-.12.07-.15.09-.31.18-.48.3-.64-.18-1.32-.27-2-.27s-1.36.09-2 .27c-.17-.12-.33-.21-.48-.3-.04-.02-.08-.05-.12-.07-.12-.06-.23-.12-.33-.17-.03-.01-.05-.03-.08-.04-.12-.05-.23-.1-.34-.13-.02 0-.05-.01-.07-.02-.08-.02-.15-.05-.22-.06-.02 0-.04-.01-.07-.01a1 1 0 0 0-.2-.03h-.3c-.33.82-.26 1.49-.16 1.86.03.12.06.21.08.26-.51.56-.82 1.28-.82 2.15 0 1.91.73 2.9 1.71 3.42.59.31 1.27.46 1.93.53-.06.05-.11.11-.17.18-.16.21-.29.5-.34.89-.09.04-.21.08-.35.12-.02 0-.04.01-.06.02-.14.03-.29.06-.45.06h-.11c-.07 0-.14-.01-.21-.02-.05 0-.1-.02-.15-.03a2 2 0 0 1-.35-.15c-.08-.04-.15-.11-.23-.17-.04-.03-.08-.06-.11-.09-.11-.11-.21-.24-.31-.4-.04-.06-.09-.14-.17-.23l-.07-.07c-.06-.07-.12-.14-.2-.2-.04-.03-.08-.05-.12-.08-.07-.05-.15-.11-.23-.15-.05-.02-.11-.02-.17-.04-.09-.02-.17-.06-.27-.06-.17 0-.27.03-.32.07-.16.12.12.35.33.46.17.09.35.32.5.55s.27.46.32.58c.02.05.04.11.07.17 0 .02.02.04.03.05.02.04.05.09.08.13.02.02.03.05.05.07.03.04.07.08.11.12l.07.07c.05.04.11.08.17.12.03.02.05.04.08.05.09.05.2.1.32.14h.03c.11.03.24.06.38.08.05 0 .1 0 .16.01.12 0 .24.01.37 0h.14c.19-.01.39-.03.61-.08 0 .67.01 1.3.01 1.49 0 .05 0 .1-.03.15 0 .02-.02.03-.02.04-.02.03-.03.06-.06.09-.01.01-.03.02-.05.04-.03.02-.06.04-.1.05a.3.3 0 0 0-.08.02c-.02 0-.04.01-.07.01-.04 0-.09 0-.13-.01-.79-.27-1.53-.65-2.2-1.14a8.1 8.1 0 0 1-2.38-2.78c-.38-.73-.65-1.53-.79-2.38-.07-.42-.1-.86-.1-1.3C0 3.78 3.58.2 8 .2s8 3.58 8 8"/>
</svg>
