<svg viewBox="0 0 40 40" xmlns="http://www.w3.org/2000/svg">
  <path d="M16.06 35.38s-.02-3.47-.02-5.12c-4.94.91-6.22-1.2-6.61-2.31-.22-.57-1.18-2.31-2.02-2.78-.69-.37-1.67-1.28-.02-1.3 1.55-.02 2.66 1.43 3.02 2.02 1.77 2.97 4.6 2.14 5.73 1.62.17-1.28.69-2.14 1.25-2.63-4.38-.49-8.95-2.19-8.95-9.71 0-2.14.76-3.91 2.02-5.29-.2-.49-.89-2.51.2-5.21 0 0 1.65-.52 5.41 2.02 1.57-.44 3.25-.66 4.92-.66s3.34.22 4.92.66c3.76-2.56 5.41-2.02 5.41-2.02 1.08 2.7.39 4.72.2 5.21 1.25 1.38 2.02 3.12 2.02 5.29 0 7.55-4.6 9.22-8.97 9.71.71.61 1.33 1.79 1.33 3.64 0 2.63-.02 6.87-.02 6.87H16.1Z"/>
</svg>
