<svg viewBox="0 0 64 64" xmlns="http://www.w3.org/2000/svg">
  <path d="M64 32.79c0 10.59-5.15 19.99-13.06 25.81a31.9 31.9 0 0 1-8.74 4.55c-.21.04-.39.06-.57.06h-.01c-.15 0-.29-.02-.42-.04-.04 0-.07-.02-.11-.03-.09-.03-.18-.05-.26-.09a.4.4 0 0 1-.11-.07l-.18-.12c-.03-.03-.07-.06-.1-.09-.05-.05-.09-.1-.13-.15-.03-.03-.05-.07-.07-.11-.03-.06-.06-.11-.09-.17-.02-.04-.03-.07-.05-.11l-.06-.2c0-.03-.02-.06-.02-.1q-.03-.15-.03-.3c0-1.08.04-4.52.04-8.8 0-1.12-.14-2.1-.38-2.93-.39-1.38-1.06-2.37-1.78-2.99.89-.1 1.79-.23 2.67-.4q.66-.135 1.32-.3c1.31-.34 2.58-.79 3.76-1.41 3.93-2.07 6.85-6.01 6.85-13.69 0-3.52-1.24-6.36-3.28-8.6.12-.3.35-.95.5-1.87q.075-.465.12-1.02c.01-.18.02-.37.02-.57.02-1.38-.19-3.09-.96-5.02h-.06c-.02 0-.05-.01-.09-.02h-.06c-.04 0-.09-.01-.14-.02h-.51c-.08 0-.17 0-.26.01h-.08c-.12.01-.24.02-.38.04-.03 0-.06.01-.09.01q-.165.03-.36.06c-.04 0-.09.02-.13.03q-.24.045-.51.12c-.01 0-.03 0-.04.01-.17.05-.35.1-.54.16-.06.02-.11.04-.17.06-.18.06-.36.13-.55.2-.04.01-.07.03-.11.04-.22.09-.46.19-.7.3-.06.03-.13.06-.19.09-.2.09-.4.19-.62.3-.07.03-.13.07-.2.1q-.405.21-.84.45c-.05.03-.11.07-.17.1-.25.14-.5.29-.76.45-.09.05-.17.11-.26.16-.32.2-.65.41-.99.65-2.56-.72-5.28-1.08-8-1.08s-5.44.36-8 1.08c-.34-.23-.67-.44-.99-.64-.09-.06-.17-.11-.26-.16-.25-.16-.5-.3-.74-.44-.06-.04-.13-.07-.19-.11q-.435-.24-.84-.45l-.18-.09a9 9 0 0 0-.63-.3c-.07-.03-.13-.06-.2-.09-.24-.11-.48-.21-.71-.3-.01 0-.03 0-.04-.01-.21-.08-.42-.16-.61-.22-.06-.02-.11-.04-.17-.06q-.255-.075-.48-.15c-.03 0-.07-.02-.1-.03q-.27-.075-.51-.12c-.04 0-.08-.02-.12-.02q-.18-.045-.36-.06c-.04 0-.07-.01-.11-.02-.14-.02-.26-.04-.38-.05h-.04c-.1 0-.2-.01-.29-.02h-.51c-.05 0-.09 0-.13.01h-.06a.2.2 0 0 0-.09.02h-.06c-.77 1.92-.99 3.64-.96 5.02 0 .2.01.39.02.57q.045.555.12 1.02c.15.93.38 1.57.5 1.87-2.04 2.24-3.28 5.12-3.28 8.6 0 12.24 7.44 15 14.56 15.8-.92.8-1.76 2.2-2.04 4.28-.18.08-.4.17-.63.26-.04.01-.07.03-.11.04-.23.08-.48.16-.75.23-.05.01-.1.03-.15.04q-.405.105-.87.18c-.05 0-.09.01-.14.02-.32.04-.65.07-.99.07h-.1c-.19 0-.38-.01-.58-.03-.08 0-.16-.02-.24-.03-.15-.02-.31-.04-.46-.08-.09-.02-.18-.05-.28-.07-.14-.04-.29-.08-.43-.13-.1-.03-.19-.07-.29-.11-.14-.06-.28-.12-.42-.19-.1-.05-.19-.1-.29-.16-.14-.08-.27-.17-.41-.26-.09-.07-.19-.13-.28-.2-.14-.11-.27-.23-.41-.35-.09-.08-.17-.15-.26-.24a7 7 0 0 1-.43-.48c-.07-.08-.14-.16-.21-.25-.21-.27-.41-.56-.6-.88-.07-.12-.17-.26-.28-.42-.04-.05-.09-.12-.13-.17-.08-.11-.16-.21-.25-.33-.05-.06-.11-.12-.16-.18-.1-.12-.2-.24-.32-.36-.07-.07-.15-.14-.23-.21-.11-.11-.23-.22-.35-.33l-.27-.21c-.13-.1-.26-.2-.39-.29-.1-.07-.21-.12-.32-.18-.14-.08-.28-.16-.43-.23-.12-.05-.24-.08-.37-.12-.15-.05-.3-.11-.47-.15-.13-.03-.27-.03-.4-.05-.18-.02-.35-.06-.53-.05-1 .02-1.41.23-1.46.53-.03.2.09.43.29.67.05.06.11.12.17.17.3.29.7.56 1.05.75.51.28 1.05.86 1.54 1.52.16.22.32.45.47.68.6.92 1.09 1.86 1.27 2.32v.01c.04.1.08.21.12.31.01.04.03.07.05.11.04.08.07.16.11.24.02.04.05.09.07.13.04.08.09.16.14.24.03.05.06.09.08.14l.18.27c.03.04.05.08.08.12.1.13.2.26.32.38l.02.02c.11.12.23.23.35.35.04.04.09.08.13.11l.3.24.18.12c.11.07.22.15.34.22.06.04.13.08.2.11.14.07.28.14.43.21.06.03.12.06.18.08.22.09.44.17.69.25l.1.03c.21.06.43.12.67.17.09.02.19.03.28.05.19.03.39.07.59.09.11.01.23.02.34.04.21.02.42.03.64.04.12 0 .24.01.37.01.33 0 .66 0 1.02-.02h.09c.34-.02.7-.05 1.08-.1.1-.01.21-.02.31-.04.41-.05.84-.12 1.28-.2 0 2.68.04 5.2.04 5.96 0 .1 0 .2-.03.3 0 .03-.02.06-.02.09-.02.07-.03.14-.06.2-.01.04-.03.07-.05.11-.03.06-.06.12-.09.17-.02.04-.05.07-.07.1-.04.05-.08.1-.13.15-.03.03-.06.06-.1.09-.05.04-.11.08-.17.12-.04.02-.08.05-.12.07-.07.03-.15.06-.23.08-.04.01-.09.03-.13.04-.11.02-.23.03-.36.04h-.08c-.16 0-.34-.02-.54-.05C9.16 58.91 0 46.95 0 32.79c0-17.68 14.32-32 32-32 .55 0 1.1.01 1.65.04 1.09.06 2.17.17 3.23.33 2.12.32 4.17.85 6.13 1.57a31.6 31.6 0 0 1 6.89 3.52C58.41 12 64.01 21.74 64.01 32.79Z"/>
</svg>
