<svg viewBox="0 0 48 48" xmlns="http://www.w3.org/2000/svg">
  <path d="M35.53 32.24c-9.76 0-10.92-6.35-11.48-9.4-.01-.08-.03-.16-.05-.25-.02.09-.03.17-.04.25-.56 3.05-1.72 9.4-11.48 9.4-7.63 0-9.1-2.07-9.62-8.3l-.13-1.91L.01 22v-4.55l1.32-.6c.37-.17 9.09-4.01 21.97.13h1.41c12.88-4.14 21.6-.3 21.97-.13l1.32.6V22l-2.72.03-.13 1.87c-.53 6.27-1.99 8.34-9.63 8.34Zm-7.34-11.59c.13.49.22.96.29 1.37.54 2.94 1.05 5.71 7.05 5.71q4.78 0 5.14-4.18l.18-2.64v-1c-2.92-.47-7.3-.64-12.66.74m-21.03.27.18 2.68q.35 4.14 5.13 4.14c6.01 0 6.52-2.78 7.05-5.71.08-.41.16-.88.29-1.37-5.35-1.38-9.74-1.2-12.66-.74v1Z"/>
</svg>
