<svg viewBox="0 0 16 16" xmlns="http://www.w3.org/2000/svg">
  <path d="M11.83 10.71c-3.25 0-3.64-2.12-3.83-3.13 0-.03 0-.05-.01-.08 0 .03 0 .06-.01.08-.19 1.02-.57 3.13-3.83 3.13-2.54 0-3.03-.69-3.21-2.77L.9 7.3H0V5.77l.44-.2c.12-.06 3.03-1.34 7.32.04h.47c4.3-1.38 7.2-.1 7.32-.04l.44.2v1.52h-.91l-.04.64c-.18 2.09-.66 2.78-3.21 2.78M9.38 6.85c.04.16.07.32.1.46.18.98.35 1.9 2.35 1.9q1.59 0 1.71-1.39l.06-.91V6.6c-.97-.16-2.44-.21-4.22.25m-7-.25v.36l.06.87q.12 1.38 1.71 1.38c2 0 2.17-.93 2.35-1.9.02-.14.05-.29.1-.46-1.79-.46-3.25-.4-4.22-.25"/>
</svg>
