<svg viewBox="0 0 32 32" xmlns="http://www.w3.org/2000/svg">
  <path d="M23.55 21.7c-5.51 0-7.01-3.1-7.55-5.24-.55 2.14-2.04 5.24-7.55 5.24-5.18 0-6.23-1.49-6.58-5.69l-.07-1-1.8-.03v-3.43l1.03-.47c.24-.11 6.03-2.66 14.55.06h.84c8.52-2.72 14.31-.17 14.55-.06l1.03.47v3.43l-1.8.02-.07.97c-.36 4.23-1.4 5.72-6.58 5.72Zm-4.48-7.67c.05.23.09.45.13.65.35 1.89.64 3.52 4.35 3.52 2.2 0 2.63-.25 2.71-.32.21-.2.33-1.58.38-2.16l.12-2.12c-1.83-.27-4.48-.34-7.69.45ZM5.24 14l.12 1.75c.05.56.16 1.93.37 2.13.08.08.51.32 2.71.32 3.71 0 4-1.63 4.35-3.52.04-.19.08-.41.13-.65-3.21-.78-5.86-.71-7.69-.45v.41Z"/>
</svg>
