<svg viewBox="0 0 24 24" xmlns="http://www.w3.org/2000/svg">
  <path d="M17.89 15.89c-4.76 0-5.31-2.98-5.6-4.58-.04-.2-.08-.46-.13-.62h-.33c-.05.17-.09.42-.13.62-.29 1.6-.84 4.58-5.6 4.58-3.74 0-4.39-.9-4.65-3.99l-.08-1.23H0V8.78l.51-.23c.18-.08 4.57-2.01 11.08.09h.81c6.52-2.11 10.9-.17 11.08-.09l.51.23v1.88h-1.37l-.08 1.23c-.26 3.11-.9 4.01-4.65 4.01Zm-4.1-5.85c.11.31.17.65.22.94.28 1.55.58 3.15 3.88 3.15 2.7 0 2.71-.09 2.9-2.39l.09-1.39v-.72c-1.57-.28-4.05-.42-7.1.42ZM3.1 9.63v.78l.09 1.35c.19 2.29.2 2.38 2.9 2.38 3.3 0 3.6-1.6 3.88-3.15.05-.3.12-.63.22-.94-3.05-.84-5.53-.7-7.1-.42Z"/>
</svg>
