<svg viewBox="0 0 16 16" xmlns="http://www.w3.org/2000/svg">
  <path d="M11.57 11.13c-2.07 0-3.07-.86-3.58-1.76-.51.89-1.51 1.76-3.58 1.76-2.78 0-3.36-.99-3.54-3.08v-.09h-.89V5.64l.73-.33c.12-.05 2.98-1.31 7.13 0h.27c4.15-1.3 7.01-.04 7.13 0l.73.33v2.32h-.88v.08c-.18 2.11-.75 3.1-3.54 3.1ZM9.94 7.4c.15.82.27 1.23 1.63 1.23.55 0 .82-.03.96-.06.04-.2.07-.56.09-.73l.04-.61c-.7-.07-1.62-.06-2.71.17ZM3.46 8.57c.13.03.41.06.96.06 1.35 0 1.48-.41 1.63-1.23a9.6 9.6 0 0 0-2.71-.17l.04.63c.01.15.04.51.09.71Z"/>
</svg>
