<svg viewBox="0 0 24 24" xmlns="http://www.w3.org/2000/svg">
  <path d="M17.56 16.4c-3.67 0-5.01-1.8-5.57-3.35-.56 1.55-1.9 3.35-5.57 3.35-4.04 0-4.8-1.29-5.06-4.39l-.04-.55H0V8.57l.88-.4c.18-.08 4.51-1.98 10.84.03h.55c6.34-2.01 10.66-.11 10.84-.03l.88.4v2.87h-1.34l-.04.54c-.26 3.12-1.02 4.41-5.06 4.41Zm-3.05-5.7c.02.1.04.2.05.28.26 1.4.44 2.42 3 2.42 1.46 0 1.8-.15 1.87-.19.09-.16.17-1.06.2-1.45l.08-1.38c-1.27-.16-3.05-.19-5.2.31Zm-10.23-.19.09 1.28c.03.36.11 1.26.23 1.46.04.01.37.16 1.83.16 2.56 0 2.74-1.01 3-2.42.02-.09.03-.18.05-.28-2.16-.51-3.94-.48-5.21-.31v.12Z"/>
</svg>
