<svg viewBox="0 0 64 64" xmlns="http://www.w3.org/2000/svg">
  <path d="M48.24 41.7c-12.25 0-13.6-7.37-14.41-11.77-.17-.9-.41-2.25-.69-2.57h-2.29c-.27.31-.52 1.66-.69 2.57-.81 4.4-2.16 11.77-14.41 11.77-10.07 0-11.12-2.45-11.76-10.05l-.27-4.32-3.74-.04v-3.48l.81-.37c.49-.23 12.28-5.41 29.91.35h2.56c17.64-5.76 29.42-.57 29.91-.35l.81.37v3.48l-3.74.04v.33l-.26 3.97c-.64 7.62-1.7 10.07-11.76 10.07ZM35.53 25.97c.55.92.78 2.2 1.01 3.46.78 4.24 1.75 9.51 11.7 9.51 8.38 0 8.47-1 9.02-7.53l.26-3.85v-2.92c-4.57-.93-12.31-1.55-21.99 1.33M6.5 24.64v3.01l.26 3.78c.55 6.5.63 7.5 9.02 7.5 9.95 0 10.92-5.28 11.7-9.51.23-1.25.46-2.53 1.01-3.46-9.68-2.88-17.42-2.26-21.99-1.33Z"/>
</svg>
