<svg viewBox="0 0 24 24" xmlns="http://www.w3.org/2000/svg">
  <path fill="#1e1e1c" d="M12.89-.01c.38.03.75.07 1.12.13 1.22.96 2.26 2.75 2.97 5.04h-4.09zM.02 11.1h4.31c.05-1.47.21-2.87.46-4.18H1.1A12 12 0 0 0 .02 11.1m11.11 0V6.92H6.58c-.28 1.3-.45 2.71-.5 4.18zm6.81 0c-.05-1.47-.23-2.88-.5-4.18h-4.55v4.18zm.88-5.93h3.11a12.1 12.1 0 0 0-4.85-4.09c.71 1.14 1.3 2.52 1.74 4.09M11.13 18.8H7.02c.69 2.27 1.72 4.06 2.91 5.04q.585.105 1.2.15zm1.76 0v5.19c.41-.03.8-.08 1.2-.15 1.2-.98 2.22-2.77 2.91-5.05h-4.11ZM11.13 5.17V0c-.38.03-.75.07-1.12.14-1.22.96-2.26 2.75-2.97 5.04h4.09ZM5.18 18.8H2.09c1.21 1.75 2.87 3.16 4.81 4.08-.7-1.15-1.28-2.52-1.72-4.08m-.4-1.76c-.25-1.31-.41-2.71-.45-4.18H.02c.11 1.49.48 2.89 1.08 4.18zm14.06 1.76c-.44 1.56-1.02 2.94-1.72 4.08 1.95-.92 3.61-2.33 4.82-4.08zm.39-11.88c.26 1.31.42 2.71.46 4.18h4.32a12 12 0 0 0-1.09-4.18zM5.2 5.17c.44-1.56 1.03-2.94 1.74-4.08C4.99 2 3.32 3.42 2.1 5.17zm18.82 7.69H19.7c-.04 1.47-.2 2.87-.45 4.18h3.69a12 12 0 0 0 1.08-4.18m-12.89 0H6.08c.05 1.47.22 2.88.49 4.18h4.56zm1.76 0v4.18h4.56c.27-1.3.44-2.71.49-4.18z"/>
</svg>
