<svg viewBox="0 0 40 40" xmlns="http://www.w3.org/2000/svg">
  <path fill="#1e1e1c" d="M21.14 18.87v-7.62h8.17c.53 2.36.85 4.93.93 7.62zm-2.26 0v-7.62h-8.17c-.53 2.36-.85 4.93-.93 7.62zm0-9.88V.02c-.96.05-1.91.15-2.84.34-1.96 1.78-3.63 4.84-4.76 8.63h7.59ZM.02 18.87h7.5c.07-2.7.36-5.26.85-7.62H2.01C.87 13.57.18 16.15.02 18.87m31.09-9.88h5.64a20.1 20.1 0 0 0-8.82-7.39c1.31 2.01 2.4 4.52 3.18 7.39M18.88 31.02h-7.63c1.1 3.77 2.74 6.82 4.68 8.64.96.2 1.95.31 2.95.36zm2.26 0v9c1-.06 1.99-.16 2.94-.36 1.94-1.82 3.58-4.86 4.68-8.64h-7.63Zm0-22.03h7.59C27.61 5.2 25.94 2.14 23.97.36 23.05.17 22.1.07 21.13.02v8.97Zm-12.22 0c.78-2.87 1.86-5.38 3.17-7.38-3.6 1.56-6.66 4.14-8.8 7.38zm-.04 22.03H3.27c2.13 3.23 5.16 5.81 8.74 7.37-1.29-2.01-2.35-4.52-3.12-7.37Zm22.77-19.77c.49 2.37.78 4.93.85 7.62h7.52c-.16-2.72-.85-5.3-1.99-7.62zM8.35 28.76c-.48-2.37-.77-4.94-.83-7.64H.02c.15 2.73.84 5.31 1.98 7.64h6.36Zm22.79 2.26c-.77 2.86-1.83 5.37-3.13 7.38 3.58-1.57 6.62-4.15 8.75-7.38h-5.63Zm8.88-9.89H32.5c-.06 2.7-.35 5.26-.83 7.64h6.37c1.14-2.33 1.83-4.91 1.98-7.64m-21.14 0h-9.1c.07 2.69.39 5.27.91 7.64h8.2v-7.64Zm2.26 0v7.64h8.2c.52-2.37.84-4.94.91-7.64h-9.1Z"/>
</svg>
