<svg viewBox="0 0 32 32" xmlns="http://www.w3.org/2000/svg">
  <path fill="#1e1e1c" d="M17.01 15V9.1h6.35c.4 1.83.65 3.82.71 5.9H17ZM.02 15h5.92c.06-2.08.28-4.06.65-5.9H1.56A15.9 15.9 0 0 0 .02 15m14.99 0V9.1H8.66c-.4 1.83-.65 3.82-.71 5.9h7.07Zm2-7.91h5.83c-.92-3.04-2.27-5.47-3.87-6.84-.64-.12-1.3-.19-1.97-.24v7.08Zm0 17.83v7.1c.7-.04 1.4-.12 2.07-.25 1.57-1.4 2.89-3.83 3.79-6.85zm-2-17.83V.02c-.67.04-1.33.12-1.97.24-1.59 1.37-2.95 3.8-3.86 6.84h5.83Zm9.95 0h4.39a16.13 16.13 0 0 0-6.85-5.75c1.01 1.58 1.84 3.53 2.46 5.75m-9.95 17.83H9.15c.9 3.02 2.22 5.45 3.79 6.85.68.13 1.37.21 2.07.25zm2-7.92v5.91h6.38c.4-1.83.64-3.83.69-5.91zm-9.97 7.92H2.67c1.67 2.5 4.03 4.49 6.79 5.74-1-1.58-1.82-3.53-2.42-5.74m.02-17.83c.61-2.21 1.45-4.16 2.45-5.74a16.2 16.2 0 0 0-6.83 5.74zm17.92 17.83c-.6 2.21-1.43 4.16-2.43 5.74 2.77-1.24 5.13-3.24 6.81-5.74zM15.01 17H7.94c.06 2.08.3 4.07.69 5.91h6.38zM1.54 22.91h5.03c-.37-1.84-.59-3.82-.64-5.91H.02c.13 2.11.66 4.1 1.53 5.91ZM32.02 17h-5.93c-.05 2.08-.27 4.07-.64 5.91h5.04c.87-1.81 1.4-3.8 1.53-5.91m-1.54-7.9h-5.04c.37 1.84.59 3.82.65 5.9h5.93c-.13-2.1-.67-4.09-1.54-5.9"/>
</svg>
