<svg viewBox="0 0 48 48" xmlns="http://www.w3.org/2000/svg">
  <path fill="#1e1e1c" d="M24.02-.07c-13.24 0-24 10.77-24 24s10.77 24 24 24 24-10.77 24-24-10.77-24-24-24m0 45.49c-5.79 0-11.04-2.31-14.91-6.04 2.05 1.82 3.83 2.57 3.83 2.57l-2.05-3.58-2.18-4.48-2.3-.9-1.28-3.33-1.79-.77c.24 1.41.63 2.68 1.09 3.83-1.21-2.69-1.9-5.66-1.9-8.79s.65-5.96 1.8-8.59l.39 1.12 3.84-3.33 2.82 1.79 1-1.82-.1-2.92 2.44-.98 2.42-2.74-1.41-2.3s-.05-.02-.07-.04c2.57-1.09 5.4-1.69 8.36-1.69 4.21 0 8.13 1.23 11.45 3.33s-.78.24-.78.24l.14.86.02.14-1.18-.95.17 1.07-1.85.28-1.91.22-.84.45-1.12-.78-4.2-.11-3.76 2.3 1.01.67.56.5 1.01-.11.9-1.4 1.51-.73-.5 1.07.45.45-.78.78-.39.62-2.86-.06-.17-.45-.78.84-1.57.73-.67-1.23-.11-.78-.9.22.22 1.18-.62.67.95.39-.95.56.78 1.12-.62.39-1.74-.22-.62 2.3.56.39 2.13-.45.62-1.18 1.79-1.01 1.51.45 1.51 1.18v.39l.62-1.12-1.63-1.12.11-.5 1.46 1.18.9 1.46h1.63l-.5-1.01.78-.22.34.95.73.56h2.64l-.39 1.29-1.57.62-1.46.56-.22-.78-2.19-.17-1.18.5-2.07-.9-.17-1.07-3.64.5-2.02 1.18-1.63 2.35-.67 2.58-.28 1.63.84 2.13 1.85 1.85 3.98-.95.78.78h1.46l-.17 1.68 1.29 1.46.62.95.06.9v1.74l1.85 3.08.9.84h1.23l1.46-1.01.67-.95.34-1.68 1.79-1.12-.22-3.25 3.81-4.26.34-1.51-1.57.56-1.01-.05h-.05l-.34-1.07L30.77 24l-1.85-3.92.5-.11 3.2 5.44 1.91-.45 3.08-2.41-.28-1.4-1.01-.5-.84.5-1.57-1.46.5-.84 3.31 1.68 1.63.06.95 1.12.67.11.84 4.99.9-1.35.22-1.85 1.79-2.13.78 2.78c-.18 11.7-9.74 21.16-21.48 21.16"/>
</svg>
