<svg viewBox="0 0 48 48" xmlns="http://www.w3.org/2000/svg">
  <path fill="#1e1e1c" d="M23.99-.07C10.76-.07 0 10.7 0 23.93s10.77 24 24 24 24-10.77 24-24-10.77-24-24.01-24m-7.46 2.54.58 4.01-2.42 2.74-2.44.97.1 2.92-1 1.82-2.82-1.79-3.84 3.33-.91-3.22S8.71 4.54 16.53 2.47M2.82 29.33l1.79.77 1.28 3.33 2.3.9 2.18 4.48 2.05 3.58s-7.94-3.33-9.6-13.06m42.77-4.65-.9-3.2-1.79 2.13-.22 1.85-.9 1.35-.84-4.99-.67-.11-.95-1.12-1.63-.06-3.31-1.68-.5.84 1.57 1.46.84-.5 1.01.5.28 1.4-3.08 2.41-1.91.45-3.2-5.44-.74-.12.98 2.07.87 1.85 1.12 1.35.34 1.07 1.07.06 1.57-.56-.34 1.51-3.58 4.49.22 3.25-1.79 1.12-.34 1.68-.67.95-1.46 1.01h-1.23l-.9-.84-1.85-3.08v-1.74l-.06-.9-.62-.95-1.29-1.46.17-1.68H19.4l-.78-.78-3.98.95-1.85-1.85-.84-2.13.28-1.63.67-2.58 1.63-2.35 2.02-1.18 3.64-.5.15.92.02.15 2.07.9 1.18-.5 2.19.17.22.78 1.46-.56 1.57-.62.39-1.29H26.8l-.73-.56-.34-.95-.78.22.5 1.01h-1.63l-.9-1.46-1.46-1.18-.11.5 1.56 1.49-.26.28-.26-.08-.42.83-.25-.37.1-.53-.97-.94-1.51-.45-1.79 1.01-.62 1.18-2.13.45-.56-.39.62-2.3 1.74.22.62-.39-.78-1.12.95-.56-.95-.39.62-.67-.22-1.18.9-.22.11.78.67 1.23 1.57-.73.78-.84.05.12.12.33 2.86.06.39-.62.78-.78-.45-.45.5-1.07-1.51.73-.9 1.4-1.01.11-.56-.5-1.01-.67 3.76-2.3 4.2.11 1.12.78.84-.45 1.91-.22 1.85-.28-.17-1.07 1.18.95-.14-.86-.02-.14.78-.22.17-.78c1.24.79 2.33 1.61 3.31 2.44.09.08.19.16.28.23.65.56 1.24 1.13 1.78 1.71.51.54.96 1.08 1.38 1.63.42.54.8 1.09 1.14 1.63 1.06 1.68 1.76 3.33 2.2 4.86.13.44.23.87.32 1.29.29 1.36.39 2.6.39 3.66 0 2.25-.43 3.69-.43 3.69l-.39-1.46Z"/>
</svg>
