<svg viewBox="0 0 32 32" xmlns="http://www.w3.org/2000/svg">
  <path fill="#1e1e1c" d="M15.99.05C7.17.05 0 7.23 0 16.05s7.18 16 16 16 16-7.18 16-16-7.18-16-16.01-16m-5.8 2.28 1.26 2.14-1.6 1.81-1.61.64.07 1.92-.66 1.2-1.86-1.18-2.53 2.2-.76-2.2s4.25-5.94 7.69-6.53m-2.34 25.1a11.9 11.9 0 0 1-3.54-3.32c-.35-.5-.67-1.05-.96-1.66-.43-.92-.79-1.97-.99-3.18l1.18.51.84 2.2 1.52.59 1.44 2.95 1.35 2.36s-.33-.14-.84-.44Zm22.64-9.99-.26-.96-.59-2.11-1.18 1.4-.15 1.22-.59.89-.46-2.74-.09-.55-.44-.07-.63-.74-1.07-.04-2.18-1.11-.33.55 1.04.96.55-.33.67.33.18.92-2.03 1.59-1.26.3-2.11-3.59-.44.18 1.22 2.59.74.89.22.7.7.04 1.04-.37-.22 1-2.41 2.7.15 2.14-1.18.74-.22 1.11-.44.63-.96.67h-.81l-.59-.55-.46-.76-.76-1.27v-1.15l-.03-.55v-.04l-.41-.63-.85-.96.11-1.11H13l-.52-.52-2.62.63-1.22-1.22-.55-1.4.18-1.07.44-1.7 1.07-1.55 1.33-.78 2.4-.33.11.7 1.37.59.78-.33 1.44.11.15.52.96-.37 1.04-.41.26-.85h-1.74l-.48-.37-.22-.63-.52.15.33.67h-1.07l-.59-.96-.96-.78-.07.33 1.07.74-.41.74v-.26l-1-.78-1-.3-1.18.67-.41.78-1.4.3-.37-.26.41-1.52 1.15.15.41-.26-.52-.74.63-.37-.63-.26.41-.44-.15-.78.59-.15v.06l.07.45.44.81 1.04-.48.52-.55.11.3 1.89.04.26-.41.52-.52-.3-.3.33-.7-1 .48-.59.92-.67.07-.37-.33-.27-.18-.4-.27 2.48-1.52 2.77.07.74.52.55-.3 1.26-.15 1.22-.18-.11-.7.78.63-.11-.67.52-.15.11-.52c.87.55 1.63 1.13 2.3 1.71.22.19.44.39.64.59 1.23 1.18 2.11 2.39 2.73 3.56.42.78.72 1.54.94 2.27.11.36.2.72.27 1.06.17.86.23 1.64.24 2.32 0 .27 0 .52-.02.75-.07 1.04-.26 1.68-.26 1.68Z"/>
</svg>
