<svg viewBox="0 0 16 16" xmlns="http://www.w3.org/2000/svg">
  <path fill="#1e1e1c" d="M8.05-.02C3.64-.04.04 3.53.02 7.94s3.55 8.02 7.96 8.04 8.02-3.55 8.04-7.96A8.006 8.006 0 0 0 8.05-.02m3.45 2.56-.14-.12s.09.06.14.08v.03ZM7.99 14.47c-1.28 0-2.46-.39-3.47-1.03l-.65-1.15-.69-1.44-.73-.29-.4-1.07-.39-.17c-.09-.44-.14-.9-.14-1.36 0-.93.21-1.81.57-2.61l1.01-.87.9.58.32-.58-.03-.94.78-.31.78-.88-.23-.38c.75-.3 1.57-.47 2.43-.46 1.12 0 2.17.29 3.09.8l.04.29-.59.09-.61.07-.27.14-.36-.25-1.34-.04-1.2.73.32.22.18.16.32-.03.29-.45.48-.23-.16.34.14.14-.25.25-.13.2-.91-.02-.05-.14-.25.27-.5.23-.21-.4-.03-.25-.29.07.07.38-.2.22.3.13-.31.18.25.36-.2.13-.55-.07-.2.74.18.13.68-.14.2-.38.57-.32.48.15.48.38v.13l.2-.36L7.19 5l.04-.16.46.38.28.47h.52l-.16-.32.25-.07.11.31.23.18h.84l-.13.42-.5.2-.47.18-.07-.25-.7-.06-.38.16-.66-.29-.05-.34-1.17.16-.65.38-.52.75-.22.83-.09.52.27.69.59.6 1.27-.3.25.25H7l-.06.54.41.47.2.31.02.29v.56l.58.99.29.27h.39l.47-.32.22-.31.11-.54.57-.36-.07-1.05 1.22-1.36.11-.49-.5.18-.34-.02-.11-.34-.36-.43-.59-1.26.16-.04 1.01 1.75.3-.07.3-.07.99-.77-.09-.45-.32-.16-.27.16-.5-.47.16-.27 1.05.55.52.02.3.36.21.04.26 1.61.29-.43.07-.59.43-.51q.03.315.03.63c-.02 3.58-2.95 6.48-6.53 6.46Z"/>
</svg>
