<svg viewBox="0 0 16 16" xmlns="http://www.w3.org/2000/svg">
  <path fill="#1e1e1c" d="M.64 4.76h2.33c-.14.77-.23 1.59-.27 2.45H0c.08-.86.31-1.69.64-2.45m6.6 2.45V4.76H4.51c-.15.75-.26 1.57-.3 2.45zm1.51-3.96h2.33C10.54 1.66 9.76.52 8.94 0c-.06 0-.13-.02-.19-.02zm3.03 3.96c-.04-.88-.14-1.7-.3-2.45H8.75v2.45zM7.24 3.25V-.01c-.06 0-.13.02-.19.02-.82.51-1.6 1.65-2.14 3.24zm1.51 9.43v3.3c.07 0 .14-.02.21-.02.82-.52 1.6-1.67 2.13-3.28zm3.91-9.43h1.82A8.2 8.2 0 0 0 11.65.83c.4.7.75 1.51 1.02 2.42Zm-5.42 9.43H4.9c.53 1.6 1.31 2.76 2.13 3.28.07 0 .14.02.21.03v-3.3Zm0-3.96H4.21c.04.88.14 1.7.29 2.46h2.74zM.62 11.17h2.34c-.14-.78-.23-1.6-.26-2.46H0q.12 1.305.63 2.46Zm12.06 1.51c-.27.92-.62 1.74-1.02 2.45a8 8 0 0 0 2.85-2.45zM3.33 3.25c.27-.91.61-1.72 1.01-2.42a8.2 8.2 0 0 0-2.83 2.42h1.81Zm-.02 9.43H1.48a8 8 0 0 0 2.85 2.45c-.41-.71-.75-1.53-1.02-2.45m5.44-3.96v2.46h2.74c.15-.76.25-1.58.29-2.46zm6.6-3.96h-2.34c.14.77.23 1.59.27 2.45h2.71a8 8 0 0 0-.64-2.45M16 8.72h-2.71c-.03.86-.12 1.68-.26 2.46h2.35a8.1 8.1 0 0 0 .63-2.46Z"/>
</svg>
