<svg viewBox="0 0 64 64" xmlns="http://www.w3.org/2000/svg">
  <path fill="#1e1e1c" d="M15.22 30.62c.1-4.61.66-9.02 1.59-13.04h13.82v13.04zm-15.2 0h12.44c.09-4.63.6-9.02 1.46-13.04H3.42c-2 3.95-3.2 8.37-3.4 13.04m13.86 15.82c-.85-4.03-1.34-8.43-1.42-13.06H.02c.2 4.68 1.41 9.11 3.42 13.06zm16.75-13.06H15.22c.09 4.62.63 9.04 1.55 13.06h13.87V33.38Zm18.8-18.56h9.6A32.23 32.23 0 0 0 43.98 2.29c2.27 3.32 4.14 7.59 5.45 12.53m-.63 15.8c-.1-4.61-.66-9.02-1.59-13.04H33.38v13.04h15.41Zm-18.17-15.8V0c-1.95.08-3.86.35-5.71.77-3.08 3.05-5.67 8-7.4 14.06h13.11Zm2.76 0H46.5C44.77 8.76 42.17 3.81 39.09.76 37.24.34 35.34.08 33.39 0zm0 34.38V64c2.04-.09 4.04-.37 5.97-.82 3-3.1 5.52-8.01 7.2-13.98zm-18.86 0H5.01c3.53 5.52 8.7 9.9 14.82 12.42-2.21-3.32-4.03-7.55-5.3-12.42m.05-34.38c1.31-4.93 3.17-9.2 5.44-12.52A32.26 32.26 0 0 0 4.99 14.82h9.58Zm34.9 34.38c-1.28 4.88-3.1 9.11-5.31 12.43 6.14-2.53 11.32-6.9 14.85-12.43zm14.54-15.82H51.56c-.08 4.64-.57 9.03-1.42 13.06H60.6a31.8 31.8 0 0 0 3.42-13.06M50.1 17.58c.86 4.02 1.37 8.41 1.46 13.04h12.46c-.2-4.67-1.41-9.09-3.41-13.04zm-16.71 15.8v13.06h13.87c.91-4.03 1.46-8.45 1.55-13.06H33.4ZM30.63 64V49.2H17.47c1.68 5.97 4.2 10.87 7.19 13.97 1.93.46 3.93.74 5.97.83"/>
</svg>
