<svg viewBox="0 0 24 24" xmlns="http://www.w3.org/2000/svg">
  <path fill="#1e1e1c" d="M11.99 0C5.38 0 0 5.38 0 12s5.38 12 12 12 12-5.38 12-12S18.61 0 11.99 0M2.03 6.61s.01-.02.02-.03a1 1 0 0 1 .09-.13l.06-.09c.03-.05.07-.1.11-.16.03-.04.06-.09.1-.14.04-.06.09-.12.14-.19.04-.05.08-.11.12-.17.05-.07.11-.15.17-.22.05-.06.09-.12.14-.19.06-.08.13-.16.19-.25.05-.07.1-.13.16-.2.07-.09.15-.18.23-.27l.16-.19c.11-.12.22-.25.34-.37.03-.03.06-.06.08-.09.14-.15.28-.29.43-.43.05-.05.11-.1.16-.15.1-.09.2-.18.3-.26.06-.05.13-.1.19-.15.09-.07.19-.15.28-.21.07-.05.13-.09.2-.13.09-.06.18-.12.27-.17a3 3 0 0 1 .47-.21c.07-.02.13-.05.2-.07.09-.03.18-.04.28-.05.06 0 .12-.02.18-.02h.06c.08 0 .15.02.23.03.05 0 .1 0 .14.02.14.04.28.09.42.18l.69 1.13-1.18 1.34-1.19.48.05 1.43-.49.89-1.38-.88-1.88 1.63-.56-1.63s.01-.02.04-.06ZM6.54 21.2s-1.23-.52-2.45-1.81c-.02-.02-.03-.04-.05-.06a8.84 8.84 0 0 1-2.21-4.52l.88.38.63 1.63.81.32.32.12.72 1.48.35.72 1 1.75Zm16.38-9.17c-.06.63-.17 1-.17 1l-.19-.71-.44-1.56-.88 1.04-.11.9-.44.66-.41-2.44-.33-.05-.47-.55-.8-.03-1.62-.82-.25.41.77.71.41-.25.49.25.14.69-1.51 1.18-.93.22-1.56-2.66-.33.15.9 1.92.55.66.16.52.52.03.77-.27-.16.74-1.78 1.99.11 1.59-.88.55-.16.82-.33.47-.71.49h-.6l-.44-.41-.9-1.51v-.85l-.03-.44-.3-.47-.63-.71.08-.82h-.71l-.38-.38-1.95.47-.9-.9-.41-1.04.14-.8.33-1.26.8-1.15.99-.58 1.78-.25.08.52 1.01.44.58-.25 1.07.08.11.38.71-.27.77-.3.19-.63h-1.29l-.15-.12-.2-.15-.16-.47-.38.11.25.49h-.8l-.44-.71-.71-.58-.05.25.8.55-.3.55v-.19l-.74-.58-.74-.22-.88.49-.3.58-1.04.22-.27-.19.3-1.12.85.11.3-.19-.38-.55.47-.27-.47-.19.3-.33-.11-.58.44-.11.05.38.33.6.77-.36.38-.41.08.22 1.4.03.19-.3.38-.38-.22-.22.25-.52-.74.36-.44.69-.49.05-.27-.25-.49-.33 1.84-1.12 2.06.05.55.38.41-.22.93-.11.9-.14-.07-.45v-.07h-.01l.58.47-.08-.49.38-.11.08-.38c4.71 3.02 5.34 6.77 5.28 8.82 0 .19-.02.36-.03.52Z"/>
</svg>
