<svg viewBox="0 0 40 40" xmlns="http://www.w3.org/2000/svg">
  <path fill="#1e1e1c" d="M20.02-.03c-11.03 0-20 8.97-20 20s8.97 20 20 20 20-8.97 20-20-8.98-20-20-20m0 37.75c-4.18 0-8.03-1.46-11.06-3.89 1.08.76 1.87 1.1 1.87 1.1l-1.7-2.97-1.81-3.72-1.91-.74-1.06-2.76-1.49-.64c.09.5.19.98.31 1.43-.58-1.75-.9-3.61-.9-5.55 0-2.49.52-4.86 1.45-7.02l.28.82 3.19-2.76 2.34 1.49.83-1.51-.08-2.42 2.03-.81 2.01-2.27-1.15-1.88a17.66 17.66 0 0 1 16.26 1.34l-.56.16.14.84-.98-.79.14.88-1.54.23-1.58.19-.7.37-.93-.65-3.49-.09-3.12 1.91.84.56.47.42.84-.09.74-1.16 1.26-.6-.42.88.37.37-.65.65-.33.51-2.37-.05-.14-.37-.65.7-1.3.6-.56-1.02-.09-.65-.74.19.19.98-.51.56.79.33-.79.47.65.93-.51.33-1.44-.19-.51 1.91.47.33 1.77-.37.51-.98 1.49-.84 1.26.37 1.26.98v.33l.51-.93-1.35-.93.09-.42 1.21.98.74 1.21h1.35l-.42-.84.65-.19.28.79.6.47h2.19l-.33 1.07-1.3.51-1.21.47-.19-.65-1.81-.14-.98.42-1.72-.74-.14-.88-3.02.42-1.67.98-1.35 1.95-.56 2.14-.23 1.35.7 1.77 1.54 1.54 3.3-.79.65.65h1.21l-.14 1.4 1.07 1.21.51.79.05.74v1.44l1.54 2.56.74.7h1.02l1.21-.84.56-.79.28-1.4 1.49-.93-.19-2.7 3.16-3.54.28-1.26-1.3.47-.88-.05-.28-.88-.93-1.12-1.54-3.26.42-.09 2.65 4.51 1.58-.37 2.56-2-.23-1.16-.84-.42-.7.42-1.3-1.21.42-.7 2.74 1.4 1.35.05.79.93.48.08h.08l.7 4.15.74-1.12.19-1.54L37.22 18l.58 2.05c-.01 9.78-7.97 17.73-17.75 17.73Z"/>
</svg>
