<svg viewBox="0 0 64 64" xmlns="http://www.w3.org/2000/svg">
  <path fill="#1e1e1c" d="M31.99-.06C14.35-.06 0 14.29 0 31.94s14.35 32 31.99 32 32-14.36 32-32-14.35-32-32-32M21.68 3.66l1.04 4.77-3.26 3.69-3.29 1.31.14 3.93-1.34 2.45-3.79-2.41-5.17 4.48-.92-3.93S12.38 5.42 21.68 3.66M14.31 55.7q-.42-.27-.9-.6c-.64-.45-1.34-.98-2.06-1.62-.36-.32-.73-.66-1.11-1.03-.37-.37-.75-.77-1.12-1.19s-.74-.87-1.1-1.35c-.18-.24-.36-.49-.54-.74-1.77-2.54-3.29-5.79-3.99-9.88s2.41 1.03 2.41 1.03l1.72 4.48 3.1 1.21 2.93 6.03 2.76 4.83s-.85-.35-2.11-1.16Zm46.75-22.75-1.21-4.3-2.42 2.87-.3 2.49-1.21 1.81-1.13-6.72-.91-.15-1.28-1.51-2.19-.08-4.45-2.26-.68 1.13 2.11 1.96 1.13-.68 1.36.68.38 1.89-4.15 3.25-2.57.6-4.3-7.32-.68.15 2.49 5.28 1.51 1.81.45 1.43 1.43.08 2.11-.75-.45 2.04-5.13 5.74.3 4.38-2.42 1.51-.45 2.26-.91 1.28-1.96 1.36h-1.66l-.08-.07-1.13-1.06-2.49-4.15v-2.34l-.08-1.21-.83-1.28-1.74-1.96.23-2.26h-1.96l-1.06-1.06-5.36 1.28-2.49-2.49-.69-1.74-.45-1.13.38-2.19.91-3.47 2.19-3.17 2.72-1.58 4.91-.68.23 1.43 2.79 1.21 1.58-.68 2.94.23.3 1.06 1.96-.75 2.11-.83.53-1.74h-3.55l-.98-.75-.45-1.28-1.06.3.68 1.36h-2.19l-1.21-1.96-1.96-1.58-.15.68 2.06 1.56-.53.33-.33.46-.37.52-.37-.29.12-.86-1.26-.82-2.04-.6-2.42 1.36-.83 1.58-2.87.6-.75-.53.83-3.09 2.34.3.83-.53-1.06-1.51 1.28-.75-1.28-.53.83-.91-.3-1.58 1.21-.3.15 1.06.91 1.66 2.11-.98 1.06-1.13.23.6 3.85.08.53-.83 1.06-1.06-.6-.6.68-1.43-2.04.98-1.21 1.89-1.36.15-.75-.68-1.36-.91 5.06-3.09 5.66.15L39 10.65l1.13-.6 2.57-.3 2.49-.38-.23-1.43 1.58 1.28-.03-.19-.19-1.16 1.06-.3.23-1.06c3.54 2.26 6.24 4.68 8.29 7.11 1.71 2.03 2.98 4.06 3.9 6.03.18.39.36.78.51 1.17 1.43 3.49 1.82 6.7 1.83 9.18 0 3.03-.57 4.97-.57 4.97l-.53-1.96Z"/>
</svg>
