<svg viewBox="0 0 16 16" xmlns="http://www.w3.org/2000/svg">
  <path d="M8-.02c-4.41 0-8 3.59-8 8s3.59 8 8 8 8-3.59 8-8-3.59-8-8-8m.79 14.44-.29.03v-2.54h1.96c-.42 1.23-1.02 2.11-1.67 2.51m-3.25-2.51H7.5v2.54c-.1 0-.19-.02-.29-.03-.64-.4-1.24-1.28-1.67-2.51M7.21 1.53l.29-.03v2.53H5.55c.42-1.23 1.02-2.1 1.66-2.5m3.24 2.5H8.5V1.5c.1 0 .19.02.29.03.64.4 1.24 1.27 1.66 2.5m.29 1c.17.73.28 1.55.31 2.44H8.51V5.03zm-3.24 0v2.44H4.96c.03-.89.14-1.71.31-2.44zM3.96 7.47H1.53c.07-.87.31-1.7.69-2.44h2.03c-.16.76-.26 1.58-.29 2.44m-2.43 1h2.43c.03.86.12 1.68.28 2.44H2.21c-.38-.74-.62-1.57-.68-2.44m3.43 0H7.5v2.44H5.26c-.17-.73-.28-1.55-.31-2.44Zm3.54 2.44V8.47h2.54c-.03.89-.14 1.71-.31 2.44H8.49Zm3.54-2.44h2.43c-.07.87-.31 1.7-.68 2.44h-2.03c.16-.76.26-1.58.28-2.44m0-1c-.03-.86-.13-1.69-.29-2.44h2.03c.38.74.62 1.57.69 2.44zm1.11-3.44h-1.66c-.24-.77-.54-1.45-.9-2.01 1.01.44 1.89 1.14 2.55 2.01ZM5.4 2.02c-.36.56-.66 1.24-.9 2.01H2.84c.67-.87 1.54-1.56 2.55-2.01Zm-2.56 9.89H4.5c.24.77.54 1.45.9 2.02a6.5 6.5 0 0 1-2.56-2.02m7.76 2.02c.36-.56.66-1.25.9-2.02h1.66c-.67.87-1.54 1.57-2.56 2.02"/>
</svg>
