<svg viewBox="0 0 40 40" xmlns="http://www.w3.org/2000/svg">
  <path fill="#1e1e1c" d="M19.99 0C8.97 0 0 8.97 0 19.99s8.97 20 20 20 20-8.97 20-20S31.02 0 19.99 0M13.7 2.23l.58 3.28-2.01 2.27-2.03.81.08 2.42-.83 1.51-2.34-1.49-3.19 2.76-.65-2.66s4.83-7.7 10.39-8.9M5.21 30.61c-1.09-1.56-2.03-3.57-2.46-6.09s1.49.64 1.49.64l1.06 2.76 1.91.74.93 1.91.88 1.81 1.7 2.97s-3.11-1.31-5.51-4.75Zm33.03-8.78-.33-1.21-.74-2.65-1.49 1.77-.19 1.54-.74 1.12-.7-4.14-.56-.09-.79-.93-1.35-.05-2.74-1.4-.42.7 1.3 1.21.7-.42.84.42.23 1.16-2.56 2-1.58.37-2.65-4.51-.53.2 1.54 3.26.93 1.12.09.28.19.6.88.05 1.3-.47-.28 1.26-3.05 3.43.19 2.7-1.49.93-.28 1.4-.56.79-1.21.84h-1.02l-.36-.34-.38-.36-1.54-2.56v-1.44l-.05-.74-.51-.79-1.07-1.21.14-1.4h-1.21l-.33-.33-.33-.33-3.3.79-1.54-1.54-.7-1.77.23-1.35.56-2.14 1.35-1.95 1.67-.98 3.02-.42.14.88 1.72.74.98-.42 1.81.14.19.65 1.21-.47 1.3-.51.33-1.07h-2.19l-.6-.47-.28-.79-.65.19.42.84h-1.35l-.74-1.21-1.21-.98-.09.42 1.35.93-.51.93v-.33l-1.26-.98-1.26-.37-1.49.84-.51.98-1.77.37-.47-.33.51-1.91 1.44.19.51-.33-.65-.93.79-.47-.79-.33.51-.56-.19-.98.74-.19.09.65.56 1.02 1.3-.6.65-.7.14.37 2.37.05.33-.51.65-.65-.37-.37.42-.88-1.26.6-.74 1.16-.84.09-.47-.42-.84-.56 3.12-1.91 3.49.09.93.65.7-.37 1.58-.19 1.54-.23-.14-.88.79.64.19.15-.14-.84.65-.19.14-.65c.36.23.71.47 1.05.71.67.47 1.29.96 1.85 1.45.28.24.55.49.81.74.52.49.98.99 1.4 1.49q.315.375.6.75c1.14 1.5 1.9 2.99 2.39 4.4.08.23.16.47.23.69.14.46.25.9.33 1.34.22 1.08.29 2.07.3 2.92 0 .51-.02.97-.06 1.37-.1 1.06-.29 1.69-.29 1.69Z"/>
</svg>
