<svg viewBox="0 0 40 40" xmlns="http://www.w3.org/2000/svg">
  <path fill="#1e1e1c" d="M19.99-.03C8.96-.03 0 8.95 0 19.97s8.97 20 20 20 20-8.97 20-20-8.98-20-20.01-20M2.3 21.09h7.34c.07 2.38.33 4.64.78 6.71H4.08a17.6 17.6 0 0 1-1.78-6.71M21.12 9.87V2.55c2.23.71 4.2 3.45 5.48 7.32zm6.11 2.25c.49 2.05.79 4.32.86 6.71h-6.98v-6.71h6.11Zm-8.37-9.57v7.32h-5.48c1.28-3.87 3.25-6.61 5.48-7.32m0 9.57v6.71h-6.98c.07-2.39.38-4.66.86-6.71h6.11Zm-9.22 6.71H2.3c.15-2.4.78-4.66 1.8-6.71h6.33c-.45 2.07-.72 4.33-.79 6.71m2.25 2.26h6.98v6.71h-6.12c-.49-2.06-.79-4.32-.86-6.71m6.97 8.96v7.35c-2.24-.71-4.21-3.47-5.49-7.35zm2.26 7.35v-7.35h5.49c-1.28 3.88-3.25 6.64-5.49 7.35m0-9.6v-6.71h6.98c-.07 2.38-.37 4.65-.86 6.71zm9.22-6.71h7.34c-.15 2.4-.77 4.66-1.78 6.71h-6.34c.45-2.07.71-4.33.78-6.71m0-2.26c-.07-2.38-.33-4.64-.79-6.71h6.33c1.02 2.05 1.64 4.31 1.8 6.71zm4.23-8.96h-5.6c-.83-2.75-2-5.06-3.41-6.74 3.69 1.22 6.84 3.61 9.01 6.74M14.43 3.13c-1.41 1.68-2.57 3.99-3.41 6.74h-5.6c2.17-3.13 5.33-5.52 9.01-6.74M5.39 30.05h5.62c.83 2.77 2.01 5.08 3.42 6.77-3.7-1.22-6.86-3.63-9.03-6.77Zm20.16 6.77c1.41-1.69 2.58-4.01 3.42-6.77h5.62a17.84 17.84 0 0 1-9.03 6.77Z"/>
</svg>
