<svg viewBox="0 0 64 64" xmlns="http://www.w3.org/2000/svg">
  <path d="M59.63 51.3h-2.84V33.34h.26c2.21 0 4-1.79 4-4v-5c0-2.21-1.79-4-4-4h-2.76C51.3 11.95 43.68 5.75 34.51 4.85V2.53a2.5 2.5 0 0 0-5 0v2.32c-9.17.9-16.79 7.1-19.78 15.49h-2.8c-2.21 0-4 1.79-4 4v5c0 2.21 1.79 4 4 4h.29V51.3H4.37C1.97 51.3 0 53.27 0 55.68v8.35h64v-8.35c0-2.41-1.96-4.38-4.38-4.38ZM23.37 33.51h6.13v16.65h-6.13zm17.28 16.65h-6.14V33.51h6.14zm-22.28 0h-6.13V33.51h6.13zm27.28 0V33.53h6.14v16.63zM7.94 25.33h48.12v3H7.94z"/>
</svg>
