<svg viewBox="0 0 40 40" xmlns="http://www.w3.org/2000/svg">
  <path d="M36.88 31.61h-2.01V20.5h.5c1.17 0 2.12-.95 2.12-2.13v-3.13c0-1.17-.95-2.13-2.12-2.13h-1.26c-1.84-5.58-6.9-9.71-12.97-10.16V1.13c0-.62-.5-1.13-1.12-1.13S18.9.5 18.9 1.13v1.82c-6.07.46-11.12 4.58-12.97 10.16H4.64c-1.17 0-2.12.95-2.12 2.13v3.13c0 1.17.95 2.13 2.12 2.13h.52v11.11H3.14c-1.73 0-3.14 1.4-3.14 3.12V40h40v-5.27c0-1.72-1.4-3.13-3.12-3.13ZM21.14 20.53h4.61V31.6h-4.61zm-6.87 0h4.61V31.6h-4.61zm18.35 11.06h-4.61V20.52h4.61zm-.9-18.48h-4.95c-.43-2.94-1.26-5.39-2.35-7.16a12.65 12.65 0 0 1 7.3 7.16M20.1 5.19c1.62 0 3.6 2.94 4.4 7.93h-8.8c.8-4.99 2.79-7.93 4.4-7.93m-4.28.68c-1.12 1.77-1.97 4.26-2.41 7.24H8.3c1.34-3.37 4.09-6.03 7.51-7.24ZM4.76 15.36h30.49v2.88H4.76zm7.26 5.17V31.6H7.41V20.53zm25.74 17.22H2.26v-3.02c0-.48.39-.88.87-.88h33.75c.48 0 .87.39.87.88v3.02Z"/>
</svg>
