<svg viewBox="0 0 16 16" xmlns="http://www.w3.org/2000/svg">
  <path d="M14.76 11.9H14V8.42c.55 0 1-.45 1-1v-2c0-.55-.45-1-1-1h-.59a5.98 5.98 0 0 0-4.65-3.37V.74C8.77.33 8.43 0 8.02 0s-.75.34-.75.75v.31a5.98 5.98 0 0 0-4.65 3.37h-.6c-.55 0-1 .45-1 1v2c0 .55.45 1 1 1h.01v3.48h-.77c-.69-.01-1.25.55-1.25 1.24v2.84h16v-2.84c0-.69-.56-1.25-1.25-1.25m-2.26 0h-1.12V8.42h1.12zM2.52 5.93h10.99v1H2.52zm5.52-3.38c.2 0 .7.58.98 1.87H7.06c.28-1.3.79-1.87.98-1.87m.72 9.35V8.42h1.12v3.48zm-1.5-3.47v3.48H6.14V8.43zm4.43-4h-1.14c-.09-.5-.21-.96-.37-1.36.6.33 1.12.8 1.51 1.36M5.91 3.04c-.16.41-.29.88-.38 1.39H4.34c.41-.58.94-1.06 1.57-1.39M3.53 8.43h1.12v3.48H3.53zm10.98 6.07h-13v-1.09h13.01v1.09Z"/>
</svg>
