<svg viewBox="0 0 24 24" xmlns="http://www.w3.org/2000/svg">
  <path d="M22.14 18.31h-.58v-5.16c.88-.21 1.54-1 1.54-1.94v-3c0-1.1-.9-2-2-2h-1.38c-1.3-2.23-3.55-3.86-6.19-4.31v-.42c-.01-.82-.68-1.49-1.51-1.49s-1.5.67-1.5 1.5v.42a8.9 8.9 0 0 0-6.19 4.31h-1.4c-1.1 0-2 .9-2 2v3c0 .95.66 1.74 1.55 1.94v5.15h-.59c-1.04 0-1.88.84-1.88 1.87v3.81h24v-3.81c0-1.03-.84-1.87-1.88-1.87ZM3.93 9.21h16.16v1H3.93zm14.62 4.19v4.4h-1.02v-4.4zm-4.02 4.4h-1.02v-4.4h1.02zM9.5 13.4h1.02v4.4H9.5zm-4.02 0H6.5v4.4H5.48z"/>
</svg>
