<svg viewBox="0 0 48 48" xmlns="http://www.w3.org/2000/svg">
  <path d="M44.25 38.1h-2.44V24.49a3.25 3.25 0 0 0 3.16-3.24v-2.18c0-1.79-1.46-3.25-3.25-3.25h-.81C38.71 9.07 32.6 4.08 25.25 3.57V1.26a1.25 1.25 0 0 0-2.5 0v2.3c-7.34.51-13.46 5.5-15.66 12.25h-.84C4.46 15.81 3 17.27 3 19.06v2.18c0 1.77 1.43 3.21 3.19 3.25V38.1H3.73C1.69 38.1 0 39.79 0 41.85v6.16h48v-6.16c0-2.07-1.68-3.75-3.75-3.75M25.26 24.54h5.77v13.55h-5.77zm-8.28 0h5.77v13.55h-5.77zm22.33 13.55h-5.77V24.54h5.77zm-1.03-22.28h-6.22c-.54-3.73-1.6-6.8-3-8.95a15.36 15.36 0 0 1 9.22 8.95M24.11 6.05c2.01 0 4.46 3.62 5.43 9.77H18.68c.99-6.35 3.46-9.77 5.43-9.77m-4.9.74c-1.43 2.15-2.51 5.26-3.06 9.03h-6.4c1.64-4.25 5.12-7.59 9.47-9.03ZM5.52 21.25v-2.18c0-.41.34-.75.75-.75h35.46c.41 0 .75.34.75.75v2.18c0 .41-.34.75-.75.75H6.27c-.41 0-.75-.34-.75-.75m8.96 3.29v13.55H8.71V24.54zM45.5 45.51h-43v-3.66c0-.69.56-1.25 1.25-1.25h40.5c.69 0 1.25.56 1.25 1.25z"/>
</svg>
