<svg viewBox="0 0 40 40" xmlns="http://www.w3.org/2000/svg">
  <path d="M36.88 31.6h-1.14V21.52c1.48-.19 2.63-1.43 2.63-2.96v-3.5c0-1.65-1.35-3-3-3H33.7c-2-4.77-6.4-8.28-11.69-9V1.99C22.02.89 21.12 0 20.02 0s-2 .9-2 2v1.07c-5.29.72-9.69 4.23-11.69 9H4.64c-1.65 0-3 1.35-3 3v3.5c0 1.53 1.16 2.79 2.65 2.96v10.08H3.14A3.12 3.12 0 0 0 0 34.73V40h40v-5.27c0-1.72-1.4-3.12-3.12-3.12Zm-5.13-10.04v9.21h-2.86v-9.21zm-9.74 9.2v-9.21h2.86v9.21zm-6.86-9.2h2.86v9.21h-2.86zm-6.87 0h2.86v9.21H8.28zm-2.64-5.5h28.74v1.5H5.64z"/>
</svg>
