<svg viewBox="0 0 48 48" xmlns="http://www.w3.org/2000/svg">
  <path d="M48 39.98v8.08H0v-8.08a2.51 2.51 0 0 1 1.99-2.46c.16-.03.33-.05.5-.05h43c1.38 0 2.5 1.12 2.5 2.51Zm-8-5.52H8V16.09c0-3.88 1.37-7.43 3.65-10.2 1.3-1.58 2.91-2.91 4.72-3.9.91-.49 1.87-.9 2.87-1.21 1.5-.47 3.1-.72 4.76-.72a15.95 15.95 0 0 1 7.63 1.93c1.81.99 3.42 2.32 4.72 3.9C38.63 8.66 40 12.22 40 16.09zM29.75 21.68c0-.69-.56-1.25-1.25-1.25h-9a1.25 1.25 0 0 0 0 2.5h9c.69 0 1.25-.56 1.25-1.25m3-6.95c0-.69-.56-1.25-1.25-1.25h-15a1.25 1.25 0 0 0 0 2.5h15c.69 0 1.25-.56 1.25-1.25"/>
</svg>
