<svg viewBox="0 0 24 24" xmlns="http://www.w3.org/2000/svg">
  <path d="M23.99 19.99v4.04H0v-4.04c0-.97.78-1.75 1.75-1.75h20.5c.97 0 1.75.79 1.75 1.75Zm-4-3.03h-16V8.05c0-1.11.22-2.16.63-3.12.2-.48.45-.94.74-1.36.29-.43.61-.82.98-1.19.36-.36.76-.69 1.18-.98.21-.14.43-.28.66-.4C9.31.38 10.61.03 11.99.03c4.42 0 8 3.59 8 8.02zm-5.37-6.12c0-.48-.39-.88-.88-.88h-3.5c-.48 0-.88.39-.88.88s.39.88.88.88h3.5c.48 0 .88-.39.88-.88m1.12-3.48c0-.48-.39-.88-.88-.88H9.11c-.48 0-.88.39-.88.88s.39.88.88.88h5.75c.48 0 .88-.39.88-.88"/>
</svg>
