<svg viewBox="0 0 40 40" xmlns="http://www.w3.org/2000/svg">
  <path d="M37.75 31.06h-4.42V13.41C33.33 6.03 27.36.05 20 .05S6.67 6.03 6.67 13.41v17.64H2.25C1.01 31.05 0 32.06 0 33.31v6.74h40v-6.74c0-1.25-1.01-2.26-2.25-2.26ZM8.92 13.41C8.92 7.28 13.89 2.3 20 2.3s11.08 4.98 11.08 11.11v17.64H8.92zm28.83 24.38H2.25v-4.48h35.51v4.48ZM27.38 14.78c0 .62-.5 1.13-1.12 1.13h-12.5c-.62 0-1.12-.51-1.12-1.13s.5-1.13 1.12-1.13h12.5c.62 0 1.12.51 1.12 1.13m-2.5 5.8c0 .62-.5 1.13-1.12 1.13h-7.5c-.62 0-1.12-.51-1.12-1.13s.5-1.13 1.12-1.13h7.5c.62 0 1.12.51 1.12 1.13"/>
</svg>
