<svg viewBox="0 0 64 64" xmlns="http://www.w3.org/2000/svg">
  <path d="M61.25 50.54h-7.92V21.46C53.33 9.65 43.78.08 32 .08S10.67 9.65 10.67 21.46v29.08H2.75A2.75 2.75 0 0 0 0 53.3v10.78h64V53.3c0-1.52-1.23-2.76-2.75-2.76M13.42 21.46c0-10.27 8.34-18.63 18.58-18.63s18.58 8.36 18.58 18.63v29.08H13.42zm47.83 39.86H2.75V53.3h58.5zM43.38 23.64c0 .76-.62 1.38-1.38 1.38H22c-.76 0-1.38-.62-1.38-1.38s.62-1.38 1.38-1.38h20c.76 0 1.38.62 1.38 1.38m-4 9.28c0 .76-.62 1.38-1.38 1.38H26c-.76 0-1.38-.62-1.38-1.38s.62-1.38 1.38-1.38h12c.76 0 1.38.62 1.38 1.38"/>
</svg>
