<svg viewBox="0 0 32 32" xmlns="http://www.w3.org/2000/svg">
  <path fill="#1e1e1c" d="M5.56 4.97C5.56 2.24 7.77.02 10.5.02s4.94 2.22 4.94 4.95-2.22 4.95-4.94 4.95S5.56 7.7 5.56 4.97m10.83 15.12h3.2v-.86c-2.45-.75-4.25-3.04-4.25-5.74 0-.35.04-.7.1-1.04H5.62c-3.09.01-5.6 2.52-5.6 5.61v6.2h4.17V19.1h2v5.16h4.03c.99-2.45 3.38-4.18 6.17-4.18Zm4.94-1.6c2.75 0 4.99-2.24 4.99-5s-2.24-5-4.99-5-4.99 2.24-4.99 5 2.24 5 4.99 5m5.03 2.6h-9.97c-3.12 0-5.66 2.54-5.66 5.66v5.27h4.24v-5.27h2v5.27h8.73v-5.27h2v5.27h4.32v-5.27c0-3.12-2.54-5.66-5.66-5.66"/>
</svg>
