<svg viewBox="0 0 16 16" xmlns="http://www.w3.org/2000/svg">
  <path fill="#1e1e1c" d="M5.43 5.39c1.48 0 2.69-1.21 2.69-2.69S6.91 0 5.43 0 2.74 1.21 2.74 2.69s1.21 2.69 2.69 2.69Zm0-3.88c.66 0 1.19.53 1.19 1.19s-.53 1.19-1.19 1.19-1.19-.53-1.19-1.19.53-1.19 1.19-1.19M3.02 7.62c-.84 0-1.51.68-1.51 1.52v2.56H0V9.14a3.03 3.03 0 0 1 3.02-3.02h3.85v1.5zm-.34 1.52h1.5v2.56h-1.5zm7.86.56c1.48 0 2.69-1.21 2.69-2.69s-1.21-2.69-2.69-2.69-2.69 1.21-2.69 2.69S9.06 9.7 10.54 9.7m0-3.88c.66 0 1.19.53 1.19 1.19S11.2 8.2 10.54 8.2s-1.19-.53-1.19-1.19.53-1.19 1.19-1.19m5.47 7.63v2.56h-1.5v-2.56c0-.84-.68-1.52-1.52-1.52H8.14c-.84 0-1.52.68-1.52 1.52v2.56h-1.5v-2.56c0-1.66 1.35-3.02 3.02-3.02h4.85c1.66 0 3.02 1.35 3.02 3.02m-8.21 0h1.5v2.56H7.8zm4 0h1.5v2.56h-1.5z"/>
</svg>
