<svg viewBox="0 0 32 32" xmlns="http://www.w3.org/2000/svg">
  <path fill="#1e1e1c" d="M10.49 9.9c2.73 0 4.95-2.22 4.95-4.96S13.22-.02 10.49-.02 5.54 2.2 5.54 4.94 7.76 9.9 10.49 9.9m0-7.92c1.63 0 2.95 1.33 2.95 2.95s-1.32 2.95-2.95 2.95a2.949 2.949 0 1 1 0-5.9M5.6 14.45c-1.99 0-3.61 1.62-3.61 3.61v5.21H0v-5.21c0-3.1 2.51-5.62 5.6-5.62h7.83v2.01zm-.18 3.61h2v5.21h-2zm15.87.36c2.76 0 5-2.25 5-5.01s-2.24-5.01-5-5.01-5 2.25-5 5.01 2.24 5.01 5 5.01m0-8.01c1.65 0 3 1.35 3 3s-1.34 3-3 3-3-1.35-3-3 1.34-3 3-3m10.7 16.29v5.28h-2V26.7a3.67 3.67 0 0 0-3.66-3.67h-9.99a3.67 3.67 0 0 0-3.66 3.67v5.28h-2V26.7c0-3.13 2.54-5.68 5.67-5.68h9.99c3.12 0 5.67 2.55 5.67 5.68Zm-15.82 0h2v5.28h-2zm8.24 0h2v5.28h-2z"/>
</svg>
