<svg viewBox="0 0 40 40" xmlns="http://www.w3.org/2000/svg">
  <path fill="#1e1e1c" d="M6.95 6.03c0-3.35 2.72-6.08 6.07-6.08s6.07 2.73 6.07 6.08-2.72 6.08-6.07 6.08-6.07-2.73-6.07-6.08m13.56 19.21h5.57v-1.3c-3.71-.32-6.63-3.44-6.63-7.23 0-.39.04-.78.1-1.15H6.9c-3.81 0-6.9 3.09-6.9 6.9v7.65h5.31V23.6h2.25v6.51h5.54c1.25-2.86 4.1-4.87 7.42-4.87Zm6.2-2.39c3.38 0 6.13-2.75 6.13-6.14s-2.75-6.14-6.13-6.14-6.13 2.75-6.13 6.14 2.75 6.14 6.13 6.14m6.32 3.52H20.51c-3.84 0-6.97 3.13-6.97 6.98v6.61h5.39v-6.61h2.25v6.61h11.08v-6.61h2.25v6.61H40v-6.61c0-3.85-3.13-6.98-6.97-6.98"/>
</svg>
