<svg viewBox="0 0 64 64" xmlns="http://www.w3.org/2000/svg">
  <path d="M63.82 11.25c-.24-.43-.7-.7-1.2-.7h-5.47l6.55-8.33c.47-.6.37-1.46-.23-1.93s-1.46-.37-1.93.23l-8.3 10.56s0 .02-.01.02c-.1.13-.17.27-.22.43 0 .02-.01.04-.02.06-.03.11-.05.22-.05.34v13.82c0 .62.41 1.16 1.01 1.32a1.384 1.384 0 0 0 1.55-.62l.09-.15v13.39c.01 3.2-2.59 5.8-5.78 5.81h-.01c-1.55 0-3-.6-4.1-1.7S44 41.24 44 39.69V25.44c0-4.27-3.47-7.74-7.74-7.74h-.69V2.75A2.763 2.763 0 0 0 32.81 0H2.75C1.23 0 0 1.23 0 2.75v61.24h35.56V20.46h.69c2.75 0 4.99 2.24 4.99 4.99V39.7c0 2.29.89 4.44 2.51 6.05a8.5 8.5 0 0 0 6.04 2.5h.02c4.71 0 8.54-3.85 8.54-8.56V21.73l5.46-9.1c.25-.42.26-.95.02-1.38ZM2.75 2.75h30.06v6.76H2.75zm30.06 9.51v16.99H2.75V12.26zm0 48.98H2.75V32h30.06zM55.7 20.79V13.3h4.5zM5.28 60.02c.24.16.5.23.77.23.44 0 .88-.21 1.14-.61 1.08-1.61 2.13-3.03 3.13-4.31 1.41.85 3.13 1.24 4.95 1.24 3.23 0 6.71-1.22 9.03-3.2C31.99 46.81 29.76 36 29.76 36s-3.05-1.13-7.06-1.13c-3.39 0-7.46.81-10.96 3.8-4.02 3.43-6.3 10.61-3.43 14.77a72 72 0 0 0-3.39 4.66c-.42.63-.26 1.48.37 1.91Zm4.73-13.25c.54-2.32 1.88-4.63 3.5-6 2.44-2.08 5.53-3.14 9.18-3.14 1.83 0 3.44.27 4.55.53.2 2.9 0 9.09-4.74 13.13-1.81 1.54-4.65 2.54-7.24 2.54-.8 0-2.07-.11-3.18-.65 5.08-5.92 8.57-7.56 8.65-7.6.69-.3 1.01-1.11.72-1.8-.3-.7-1.11-1.02-1.81-.72-.2.09-4.01 1.79-9.48 8.14-.49-1.16-.55-2.71-.15-4.41Z"/>
</svg>
