<svg viewBox="0 0 32 32" xmlns="http://www.w3.org/2000/svg">
  <path d="M31.79 5.95c-.18-.31-.51-.51-.87-.51h-2.1l2.89-3.66a.99.99 0 0 0-.17-1.4c-.44-.34-1.07-.27-1.41.17l-4.17 5.28s-.03.07-.06.11q-.06.09-.09.18c-.02.07-.03.13-.04.2 0 .04-.02.08-.02.12v6.91c0 .45.3.84.74.96.09.02.18.04.27.04.11 0 .22-.02.32-.06v5.8c0 .63-.24 1.22-.69 1.66s-1.04.69-1.67.69c-1.3 0-2.36-1.05-2.36-2.35v-7.37c0-2.31-1.89-4.18-4.21-4.18h-.35V2c0-1.1-.9-2-2.01-2H1.93C.82 0-.08.9-.08 2v30h17.87V10.54h.35c1.21 0 2.2.98 2.2 2.18v7.37c0 2.4 1.96 4.35 4.37 4.35 1.17 0 2.27-.45 3.09-1.28.83-.82 1.28-1.92 1.28-3.08v-8.66l2.7-4.48c.19-.31.19-.69.01-1.01ZM1.93 2h13.85v2.75H1.93zm13.85 4.75V14H1.93V6.75zm0 23.25H1.93V16h13.85zM27.75 9.75V7.44h1.39zM3.4 28.89c.17.12.37.17.56.17.32 0 .64-.15.83-.44.47-.69.92-1.3 1.35-1.84.51.22 1.08.33 1.68.33 1.35 0 2.81-.51 3.78-1.33 3.22-2.73 2.29-7.24 2.29-7.24s-1.28-.47-2.95-.47c-1.42 0-3.13.34-4.59 1.58-1.56 1.32-2.49 3.99-1.66 5.76-.5.62-1.01 1.31-1.55 2.1a1 1 0 0 0 .27 1.39Zm3.06-5.68c.19-.79.65-1.59 1.19-2.05.86-.73 1.97-1.1 3.29-1.1.39 0 .75.03 1.07.08-.02 1.17-.3 2.92-1.7 4.11-.6.51-1.6.85-2.48.85-.07 0-.14 0-.21-.01 1.59-1.66 2.64-2.16 2.68-2.18.5-.22.74-.8.52-1.31s-.81-.75-1.32-.53c-.08.03-1.28.57-3.07 2.36.01-.08.02-.15.04-.23Z"/>
</svg>
