<svg viewBox="0 0 24 24" xmlns="http://www.w3.org/2000/svg">
  <path d="M23.89 4.4a.89.89 0 0 0-.76-.44h-1.31l2-2.54A.876.876 0 1 0 22.44.34L19.33 4.3l-.05.1c-.03.05-.06.1-.08.16s-.03.11-.04.17c0 .04-.02.07-.02.11v5.18a.867.867 0 0 0 .87.87c.04 0 .08 0 .12-.02v4.2c0 .44-.17.85-.48 1.16s-.72.48-1.16.48c-.9 0-1.64-.74-1.64-1.64V9.54c0-1.8-1.46-3.26-3.26-3.26h-.26V1.75c0-.97-.78-1.75-1.75-1.75H1.75C.78 0 0 .78 0 1.75V24h13.33V8.03h.26c.83 0 1.51.68 1.51 1.51v5.53c0 1.87 1.52 3.39 3.39 3.39.91 0 1.76-.35 2.4-.99s.99-1.49.99-2.4V8.61l1.99-3.33c.16-.27.17-.61.01-.88ZM1.75 1.75h9.83v1.82H1.75zm9.83 3.57v4.93H1.75V5.32zm0 16.93H1.75V12h9.83zm9.31-15.39V5.71h.69zM2.18 21.81c.15.1.32.15.49.15.28 0 .56-.14.73-.39.38-.56.74-1.04 1.08-1.48.39.15.82.23 1.27.23 1.08 0 2.23-.41 3.01-1.07 2.56-2.19 1.82-5.79 1.82-5.79s-1.02-.38-2.35-.38c-1.13 0-2.49.27-3.65 1.27-1.22 1.04-1.96 3.12-1.36 4.53-.4.5-.82 1.06-1.26 1.71-.27.4-.16.94.24 1.21Zm6.04-6.97c.25 0 .48.02.7.04-.03.9-.28 2.17-1.3 3.04-.44.37-1.15.62-1.8.64 1.15-1.16 1.89-1.52 1.92-1.53.44-.19.64-.7.45-1.15a.873.873 0 0 0-1.15-.46c-.14.06-.95.44-2.17 1.61.17-.53.47-1.05.83-1.35.66-.56 1.51-.85 2.52-.85Z"/>
</svg>
