<svg viewBox="0 0 48 48" xmlns="http://www.w3.org/2000/svg">
  <path d="M47.83 8.56c-.22-.39-.64-.63-1.09-.63h-3.66l4.64-5.9c.43-.54.33-1.33-.21-1.75-.54-.43-1.33-.33-1.76.21l-6.23 7.92s-.04.09-.07.14c-.05.07-.09.15-.12.23s-.04.16-.05.25c0 .05-.03.1-.03.15v10.37c0 .56.38 1.05.92 1.2.11.03.22.05.33.05.27 0 .52-.09.73-.25v9.34c0 2.21-1.79 4.02-4.01 4.02-1.07 0-2.08-.42-2.84-1.17a4 4 0 0 1-1.18-2.85v-10.8c0-3.32-2.7-6.03-6.03-6.03h-.52V2.5a2.5 2.5 0 0 0-2.5-2.5H2.5A2.5 2.5 0 0 0 0 2.5V48h26.67V15.57h.52c1.94 0 3.53 1.58 3.53 3.53v10.8c0 1.74.68 3.38 1.92 4.62a6.48 6.48 0 0 0 4.61 1.91h.01c3.59 0 6.51-2.94 6.51-6.53V16.61l4.06-6.77c.23-.39.24-.87.02-1.26ZM2.5 2.5h21.67v4.63H2.5zm21.67 7.13V21.5H2.5V9.63zm0 35.87H2.5V24h21.67zm17.6-30.46v-4.61h2.77zM4.63 44.2c.21.14.46.21.7.21.4 0 .8-.19 1.04-.55.73-1.08 1.43-2.03 2.1-2.89.88.45 1.92.66 3.01.66 2.15 0 4.47-.81 6.02-2.13 5.12-4.37 3.64-11.58 3.64-11.58s-2.03-.76-4.7-.76c-2.26 0-4.98.54-7.31 2.53-2.58 2.2-4.1 6.75-2.48 9.56-.75.95-1.53 2.01-2.35 3.21-.39.57-.23 1.35.34 1.74Zm4-8.96c.33-1.42 1.14-2.82 2.12-3.65 1.5-1.28 3.42-1.93 5.69-1.93.91 0 1.74.11 2.39.23.06 1.95-.27 5.41-2.95 7.7-1.09.93-2.82 1.53-4.4 1.53-.34 0-.84-.03-1.32-.17 3.02-3.37 5.06-4.34 5.11-4.36.63-.28.92-1.01.65-1.64s-1-.93-1.64-.66c-.13.06-2.42 1.09-5.76 4.75-.07-.53-.03-1.14.12-1.81Z"/>
</svg>
