<svg viewBox="0 0 16 16" xmlns="http://www.w3.org/2000/svg">
  <path d="M15.9 2.99a.75.75 0 0 0-.65-.38h-.53l1.12-1.42a.74.74 0 0 0-.13-1.05c-.33-.26-.8-.2-1.05.13L12.58 2.9s-.03.06-.04.09c-.03.04-.05.08-.07.13s-.02.1-.03.15c0 .03-.02.06-.02.09v3.45c0 .34.22.63.55.72.04.01.07.01.11.02v2.59c0 .46-.38.84-.84.84s-.84-.38-.84-.84V6.38c0-1.29-1.05-2.34-2.34-2.34h-.17V1.52c0-.41-.17-.79-.44-1.06-.14-.14-.3-.24-.48-.32S7.59.02 7.39.02H1.5C.67.02 0 .69 0 1.52v14.46h8.89V5.53h.17c.46 0 .84.38.84.84v3.76a2.34 2.34 0 0 0 4.68 0V5.91l1.31-2.17c.14-.23.14-.52 0-.75ZM5.56 12.44c-.44.37-1.09.6-1.69.6-.23 0-.45-.04-.65-.11-.21.25-.44.52-.67.84-.1.13-.25.2-.4.2-.11 0-.21-.03-.3-.1a.507.507 0 0 1-.1-.7c.25-.34.49-.63.72-.89-.37-.79.05-1.99.74-2.58.66-.56 1.42-.71 2.05-.71.75 0 1.32.21 1.32.21s.42 2.02-1.02 3.25Zm1.83-8.55v2.62H1.5V3.89zM5.26 9.98c.13 0 .26 0 .38.02-.02.5-.16 1.2-.73 1.68-.21.18-.54.3-.86.34.61-.6 1-.85 1-.86.23-.15.3-.45.16-.69a.51.51 0 0 0-.69-.16c-.03.02-.48.3-1.17.98.08-.33.27-.67.49-.85.37-.31.84-.47 1.41-.47Z"/>
</svg>
