<svg viewBox="0 0 24 24" xmlns="http://www.w3.org/2000/svg">
  <path d="m14.17 2.23 7.41 5.31a.9.9 0 0 0 .26.17C23.27 8.54 24 9.6 24 10.88c0 .64-.22 1.27-.64 1.81-.1.13-.16.29-.16.46v.92s-.09-.03-.13-.03c-.15 0-.3.02-.45.04-.03 0-.06-.02-.09-.02-1.79 0-3.3-.93-3.3-2.02 0-.41-.34-.75-.75-.75s-.75.34-.75.75c0 1.41 1.09 2.59 2.68 3.16-.51.56-.82 1.26-.82 2.04 0 .41.34.75.75.75s.75-.34.75-.75c0-.94.89-1.7 1.98-1.7.05 0 .09-.02.13-.03v1.28c0 2.46-2 4.46-4.45 4.46H17.4l-10.06.94c-.63 0-1.15-.52-1.15-1.15s.51-1.15 1.15-1.15h4.54s.05 0 .08-.01a.73.73 0 0 0 .59-.72c0-.41-.34-.75-.75-.75H3.82c-.63 0-1.15-.52-1.15-1.15s.51-1.15 1.15-1.15h7.99v.02h.11c.41 0 .75-.34.75-.75a.73.73 0 0 0-.56-.71.8.8 0 0 0-.22-.05s-10.77 0-10.77 0C.5 14.62 0 14.12 0 13.5s.5-1.12 1.12-1.12H11.8c.4-.02.72-.34.72-.74s-.34-.75-.75-.75H3.39c-.18 0-.34 0-.45-.01-.04 0-.08-.01-.13-.01-.62 0-1.13-.51-1.13-1.14S2.19 8.6 2.81 8.6h12.64c.31 0 .58-.18.7-.46.11-.29.04-.61-.18-.82l-3.8-3.6c-.46-.42-.47-1.11 0-1.53.53-.47 1.42-.47 2.01.05Z"/>
</svg>
