<svg viewBox="0 0 32 32" xmlns="http://www.w3.org/2000/svg">
  <path d="M23.89 17.44c.73 1.18.63 2.76-.3 3.84l-5.45 7.59c-1.51 2.61-3.45 3.14-4.81 3.14-.94 0-1.85-.28-2.65-.82h-3.4c-3.49 0-6.33-2.83-6.33-6.31v-1.63L0 13.89c0-1.62 1.32-2.93 2.95-2.93.32 0 .63.07.92.16v-.83c0-1.62 1.32-2.94 2.94-2.94.32 0 .63.07.92.16 0-1.6 1.31-2.89 2.91-2.89 1.27 0 2.34.82 2.74 1.95.35-.15.73-.23 1.13-.23.07 0 .14.02.22.02-.12.6-.19 1.22-.19 1.86v.12h-.03c-.51 0-.93.41-.93.92 0 .06 0 .11-.01.17v8.31c0 .55-.45 1-1 1s-1-.45-1-1V7.53c0-.5-.41-.91-.92-.91s-.91.41-.91.91v2.53c0 .08.02.15.02.23v7.5c0 .14-.03.27-.08.39-.12.41-.49.72-.94.72-.55 0-1-.45-1-1v-7.72a.93.93 0 0 0-.92-.82c-.52 0-.94.42-.94.94v3.4c0 .07.02.13.02.2v3.98c0 .55-.45 1-1 1-.44 0-.8-.29-.94-.68-.05-.12-.08-.26-.08-.4v-4c-.05-.47-.44-.84-.92-.84s-.92.4-.94.9l1.3 12.71c.66 1.55 2.2 2.63 3.98 2.63h3.72c.22 0 .44.07.61.21.51.4 1.1.61 1.71.61 1.24 0 2.23-.68 3.05-2.09q.075-.135.15-.24l5.47-7.62s.04-.06.07-.08c.41-.45.41-1.22 0-1.67a.79.79 0 0 0-1.21 0l-3.69 3.89c-.28.3-.71.39-1.1.24s-.63-.52-.63-.93v-9.34c.5 1.04 1.18 1.97 2 2.75v4.09l1.94-2.05c.14-.15.29-.29.46-.4 1.19.56 2.52.89 3.93.89h.12ZM32 8.23c0 4.54-3.69 8.22-8.23 8.22-.6 0-1.19-.07-1.75-.19-.07-.01-.13-.03-.2-.05-.17-.04-.34-.08-.51-.13a8.2 8.2 0 0 1-3.87-2.6c-.06-.07-.12-.16-.18-.23-.09-.12-.19-.24-.27-.36-.06-.09-.12-.19-.18-.28-.07-.12-.15-.23-.22-.36-.06-.1-.11-.2-.16-.3-.06-.12-.12-.25-.18-.38-.05-.1-.09-.21-.13-.31-.05-.13-.1-.27-.15-.4-.03-.1-.07-.21-.1-.31-.04-.15-.08-.29-.11-.44-.02-.1-.05-.2-.07-.3-.03-.17-.06-.34-.08-.51-.01-.09-.03-.17-.04-.26-.03-.26-.04-.53-.04-.79s.01-.55.04-.82C16 3.25 19.5 0 23.77 0 28.32 0 32 3.68 32 8.22Zm-2 0c0-3.43-2.8-6.22-6.23-6.22s-6.23 2.79-6.23 6.22 2.8 6.22 6.23 6.22S30 11.66 30 8.23m-5.95-3.54h-1.97v6.52h4.71V9.56h-2.74z"/>
</svg>
