<svg viewBox="0 0 16 16" xmlns="http://www.w3.org/2000/svg">
  <path fill="#1e1e1c" d="M15.14 7.13c-.69-.77-1.98-.75-2.64-.01l-.79.84V1.85C11.71.83 10.88 0 9.87 0S8.02.83 8.02 1.85v.06c-.02.22-.04.5-.05.84q-.15-.03-.3-.03c-.79 0-1.46.5-1.72 1.2-.15-.04-.3-.07-.46-.07-.88 0-1.61.61-1.8 1.43-.13-.03-.26-.05-.4-.05-1.02 0-1.86.83-1.86 1.86v1.15c0 .51.21.97.54 1.3v2.19c0 2.08 1.7 3.78 3.79 3.78h1.88c.47.31 1.01.47 1.56.47.83 0 2-.32 2.88-1.86l3.07-4.29c.68-.76.68-1.96 0-2.72ZM7.67 4.22c.19 0 .34.15.34.34v3.71c0 .19-.15.34-.34.34s-.32-.14-.33-.31V5.71s-.01-.09-.01-.14V4.55c0-.19.15-.34.34-.34ZM5.48 5.36c.17 0 .31.13.34.29v2.64c-.03.17-.17.3-.34.3s-.32-.14-.35-.31V7.12s0-.07-.01-.11V5.73c0-.2.16-.36.36-.36ZM2.93 7.1c0-.2.16-.36.36-.36.18 0 .32.13.34.3v1.24c-.01.18-.16.33-.35.33s-.36-.16-.36-.36V7.1Zm11.05 1.81-3.07 4.3s-.11.15-.14.2c-.42.74-.94 1.1-1.58 1.1-.3 0-.6-.11-.86-.31a.76.76 0 0 0-.46-.16h-.21c0-.07-.01-.14-.02-.22 0-.02.01-.03.01-.05 0-.92.46-1.61.87-1.61s.75-.34.75-.75-.34-.75-.75-.75c-.84 0-1.56.55-1.98 1.39-.31-.19-.67-.3-1.05-.3-.41 0-.75.34-.75.75s.34.75.75.75c.36 0 .65.35.67.8h-.41c-1.26 0-2.28-1.02-2.28-2.28v-1.66c.34-.04.66-.16.93-.37.31.22.68.35 1.08.35s.77-.13 1.08-.35c.31.23.69.38 1.11.38 1.01 0 1.84-.83 1.84-1.84V1.86c0-.19.16-.35.35-.35s.35.16.35.35v7.99c0 .31.18.58.47.7.28.11.61.04.82-.18l2.1-2.22c.12-.14.3-.14.42 0 .17.19.17.52-.05.78Z"/>
</svg>
