<svg viewBox="0 0 16 16" xmlns="http://www.w3.org/2000/svg">
  <path fill="none" d="M0 0h16v16H0z"/>
  <path fill="#1e1e1c" d="m15.15 9.28-3.63 5.07s-.07.09-.11.17c-.57.98-1.3 1.48-2.18 1.48-.44 0-.88-.15-1.25-.44a.5.5 0 0 0-.31-.11h-.64v-.25s.02-.05.02-.08c0-.06-.01-.11-.02-.17v-.2c0-1.23.64-2.27 1.4-2.27.28 0 .5-.22.5-.5s-.22-.5-.5-.5c-.96 0-1.77.75-2.15 1.84-.38-.35-.86-.57-1.4-.57-.28 0-.5.22-.5.5s.22.5.5.5c.6 0 1.08.52 1.16 1.19v.51h-.85a3.06 3.06 0 0 1-3.06-3.06l-.08-.9-.02.05-.54-6.5c0-.44.36-.8.8-.8.42 0 .75.32.79.73v2.27h.01v.46c0 .11.03.19.08.27 0 .02.02.03.03.05.05.07.12.13.2.16.06.02.12.04.19.04.28 0 .5-.22.5-.5v-.05h-.01V2.63c0-.44.36-.8.8-.8s.8.36.8.8v5.02h-.02v.07c0 .28.22.5.5.5s.5-.22.5-.5V.79A.775.775 0 1 1 8.21.78v6.86c.01.27.23.48.49.48s.5-.22.5-.5V1.95c0-.44.35-.79.79-.79s.79.35.79.79v8.2c0 .2.12.39.31.46s.41.03.55-.12l2.46-2.6c.29-.32.77-.32 1.06 0 .33.37.33.98-.03 1.39Z"/>
</svg>
