<svg viewBox="0 0 32 32" xmlns="http://www.w3.org/2000/svg">
  <path fill="#1e1e1c" d="M27.92 2.21c-.5-.77-1.26-1.29-2.16-1.48-.89-.19-1.8-.02-2.57.48s-1.29 1.26-1.47 2.12l-1.53 6.16-1.27-6.62c-.14-.9-.62-1.7-1.36-2.23a3.4 3.4 0 0 0-2.53-.6c-.9.14-1.7.62-2.24 1.35-.54.74-.76 1.64-.62 2.55l.68 4.2c-.66-.21-1.36-.22-2.04 0a3.415 3.415 0 0 0-2.38 2.99 3.4 3.4 0 0 0-1.73.07c-.87.27-1.58.87-2.01 1.68-.42.81-.51 1.74-.23 2.61l.04.14c0 .07-.02.14-.02.21v7.47c0 4.23 3.44 7.68 7.67 7.68h5.49c.97.67 2.09 1.03 3.24 1.03 3.36 0 6.1-3 6.1-6.69 0-1.43-.42-2.8-1.21-3.96v-5.44c.15-.78 1.63-6.99 2.62-11.09v-.03c.19-.89.02-1.81-.48-2.57ZM11.4 10.04c.14-.04.28-.07.42-.07.23 0 .45.05.66.16.33.18.58.47.7.83l1.35 4.33c-.16.1-.32.2-.47.32-.81.67-1.28 1.59-1.32 2.6 0 .14.02.28.03.42-.14-.15-.26-.32-.32-.53l-.4-1.28v-.02l-1.06-3.38s0-.02-.01-.02l-.5-1.59c-.23-.75.18-1.54.93-1.78Zm-2.2 9.15c-.75.23-1.54-.18-1.78-.93l-1.06-3.38c-.11-.36-.08-.75.1-1.08s.47-.58.83-.7c.14-.04.28-.07.43-.07.22 0 .45.05.65.16.33.17.57.47.69.82l1.07 3.42c.22.74-.2 1.52-.93 1.75Zm-2.72 4.1v-2.94c.62.57 1.44.9 2.3.9.34 0 .68-.05 1.02-.16.63-.2 1.15-.56 1.55-1.03.64.66 1.52 1.04 2.45 1.04.07 0 .15-.01.22-.02l2.06 2.01c-.88.51-1.59 1.41-2.03 2.55-.65-.53-1.44-.86-2.31-.86-.55 0-1 .45-1 1s.45 1 1 1c1.02 0 1.85.97 1.85 2.17h-1.44c-3.13 0-5.67-2.55-5.67-5.68Zm14.4 6.7c-.82 0-1.61-.28-2.3-.82a.98.98 0 0 0-.61-.21h-2.38c0-.18-.03-.34-.05-.51 0-.04.02-.07.02-.1 0-.73.14-1.43.38-2.02l.88-1.29c.26-.22.55-.36.84-.39l1.62 1.57c.19.19.45.28.7.28s.52-.1.72-.3c.38-.4.38-1.03-.02-1.41l-5.45-5.31c-.34-.33-.52-.75-.5-1.18s.23-.84.59-1.14c.82-.67 2.15-.62 2.91.12l5.45 5.31c.19.18.43.27.67.28a5 5 0 0 1 .63 2.43c0 2.59-1.84 4.69-4.1 4.69m5.56-25.63c-2.67 11.11-2.67 11.31-2.67 11.46v4.06l-4.14-4.03c-.87-.84-2.04-1.22-3.2-1.15l-1.05-3.37-1.25-7.71a1.417 1.417 0 0 1 1.19-1.61 1.393 1.393 0 0 1 1.62 1.2l2.13 11.11c.09.46.49.8.96.81h.03c.46 0 .86-.31.97-.76l2.64-10.6c.08-.37.3-.69.61-.89.32-.21.7-.28 1.07-.2s.69.3.89.61.27.69.2 1.06Z"/>
</svg>
