<svg viewBox="0 0 64 64" xmlns="http://www.w3.org/2000/svg">
  <path fill="#1e1e1c" d="M55.81 57.11c0 .76-.61 1.38-1.37 1.38-3.39 0-6.15-2.76-6.15-6.16 0-.76.61-1.38 1.37-1.38s1.37.62 1.37 1.38c0 1.88 1.53 3.41 3.4 3.41.76 0 1.37.62 1.37 1.38Zm8.18-3.59c0 5.79-4.7 10.49-10.48 10.49S43.03 59.3 43.03 53.52c0-6.56 9.11-15.97 9.5-16.37l.99-1.01.98 1.01c.39.4 9.5 9.86 9.5 16.37Zm-2.75 0c0-3.96-4.92-10.26-7.73-13.39-2.82 3.12-7.73 9.4-7.73 13.39 0 4.27 3.47 7.74 7.73 7.74s7.73-3.47 7.73-7.74M41.71 28.3c.49.85.78 1.84.78 2.9 0 2.91-2.03 5.28-4.71 5.81.58.91.93 1.99.93 3.14v.2c0 3.11-2.44 5.65-5.49 5.82.55.89.87 1.94.87 3.06v.2c0 3.22-2.62 5.84-5.83 5.84h-2.27c-1.86 0-3.51-.87-4.58-2.23l-5.63-.02c-7.64 0-13.85-6.23-13.85-13.88v-8.28C.65 29.08 0 27.04 0 24.94c0-2.95 1.17-7.15 6.76-10.38.07-.04.13-.08.18-.1 0 0 .01 0 .02-.01l17.9-12.84c2.46-2.15 6.41-2.13 8.84.05 1.24 1.11 1.92 2.6 1.92 4.2s-.68 3.08-1.92 4.2l-6.56 6.22H56.6c3.25-.01 5.89 2.63 5.89 5.89s-2.53 5.79-5.69 5.9-.12 0-.12 0h-.08c-.23.02-.47.02-.71.03h-.86s-.03.02-.05.02h-.25l-1.46.02c-2.18.03-5.11.07-8.12.12-1.15.02-2.3.03-3.45.05Zm-21.5 21.97c-.04-.28-.07-.56-.07-.85v-.2c0-1.8.82-3.42 2.11-4.49-1.23-1.07-2-2.64-2-4.4v-.2c0-1.75.77-3.31 1.99-4.39a5.82 5.82 0 0 1-2.1-4.47v-.09c0-3.21 2.61-5.82 5.82-5.82H54.8c.7-.01 1.25-.02 1.59-.03.07-.01.14-.02.21-.02a3.15 3.15 0 1 0 0-6.3H23.69c-.56.01-1.07-.33-1.28-.85s-.08-1.12.33-1.51l9.09-8.62c.68-.61 1.03-1.37 1.03-2.17s-.36-1.56-1.01-2.15c-1.42-1.27-3.81-1.27-5.23 0-.04.03-.08.07-.12.09L8.58 16.65c-.12.09-.25.17-.46.29-3.58 2.06-5.39 4.75-5.39 7.99 0 1.64.56 3.24 1.63 4.61.16.21.25.46.27.72h.01c1.39.25 2.77 0 3.9-.69 1.08-.67 1.78-1.67 1.99-2.82.13-.75.85-1.25 1.59-1.11.75.13 1.24.85 1.11 1.6-.34 1.89-1.45 3.51-3.12 4.59 3.72 1.89 5.91 5.16 5.32 8.48-.12.67-.7 1.13-1.35 1.13-.08 0-.16 0-.24-.02-.75-.13-1.24-.85-1.11-1.6.5-2.82-2.83-5.88-7.29-6.68-.07-.01-.13-.03-.19-.05-.2-.01-.4-.03-.59-.05v6.08c0 6.13 4.99 11.13 11.11 11.13zm11.13-1.05c0-1.55-1.14-2.82-2.62-3.04h-2.63c-.13 0-.25-.01-.38-.02a3.08 3.08 0 0 0-2.81 3.06v.2c0 1.7 1.38 3.09 3.09 3.09h2.27c1.7 0 3.09-1.39 3.09-3.09v-.2Zm4.61-9.08c0-1.52-1.1-2.78-2.55-3.03h-7.45c-.09 0-.19 0-.28-.01-1.51.2-2.69 1.48-2.69 3.05v.2c0 1.59 1.2 2.88 2.74 3.06.08 0 .16-.01.24-.01h2.27c.24 0 .47.02.7.05h3.91c1.7 0 3.09-1.39 3.09-3.09v-.2Zm3.78-8.86c0-1.79-1.38-3.16-3.07-3.16h-10.7c-1.69 0-3.07 1.38-3.07 3.07v.09c0 1.58 1.21 2.88 2.75 3.04.15-.01.29-.02.44-.02h6.79c.26 0 .51.02.76.05h3.04c1.69 0 3.07-1.38 3.07-3.07Z"/>
</svg>
