<svg viewBox="0 0 16 16" xmlns="http://www.w3.org/2000/svg">
  <path fill="#1e1e1c" d="M8.31 7.11s-.01-.04-.01-.05V4.32c0-.61.5-1.11 1.11-1.11s1.11.5 1.11 1.11v2.74c0 .61-.5 1.11-1.11 1.11a1 1 0 0 1-.42-.09c-.1-.04-.19-.11-.28-.18-.02-.02-.04-.02-.06-.04-.2-.19-.32-.45-.34-.74Zm-2.1 1.06q.225 0 .42-.09c.1-.04.19-.11.28-.18.02-.02.04-.02.06-.04.2-.19.32-.45.34-.74s.01-.04.01-.05V4.33c0-.61-.5-1.11-1.11-1.11s-1.11.5-1.11 1.11v2.74c0 .61.5 1.11 1.11 1.11Zm6.48-.16c.14 0 .27-.03.39-.08.07-.03.12-.07.18-.1.04-.03.09-.05.13-.09.08-.06.14-.14.2-.22 0-.01.02-.02.02-.03.11-.17.19-.37.19-.58V4.47c0-.61-.5-1.11-1.11-1.11s-1.11.5-1.11 1.11v2.44c0 .61.5 1.11 1.11 1.11Zm-6.78 2.56V9.13A2.11 2.11 0 0 1 4.1 7.05V1.11C4.1.5 3.6 0 2.99 0S1.88.5 1.88 1.11l.02 10.26c0 2.18 1.77 3.94 3.94 3.94h1.3c-.01-1.23-.89-2.22-1.96-2.22-.28 0-.5-.22-.5-.5s.22-.5.5-.5c.92 0 1.74.48 2.28 1.2.08-.18.16-.36.27-.52a2.254 2.254 0 0 1-1.83-2.21Zm6.86-1.25H6.91v1.25c0 .69.56 1.25 1.25 1.25h3.59c.09 0 .16.02.23.06 0 0 .02.01.02.02.06.04.12.09.16.16.05.08.08.16.08.26 0 .28-.22.5-.5.5H8.98c-.5.48-.82 1.19-.82 1.98 0 .07-.02.14-.05.21 0 .1.03.2.03.31h1.74l.13.11c.49.38 1.05.58 1.63.58 1.6 0 2.9-1.47 2.9-3.29 0-.66-.2-3.39-1.78-3.39Z"/>
</svg>
