<svg viewBox="0 0 24 24" xmlns="http://www.w3.org/2000/svg">
  <path fill="#1e1e1c" d="M19.7 19.32c0 .3.25.55.55.55.48 0 .88.39.88.87s-.39.87-.88.87a2.3 2.3 0 0 1-2.3-2.3c0-.48.39-.87.88-.87s.88.39.88.87Zm4.3.48c0 2.31-1.88 4.19-4.19 4.19s-4.19-1.88-4.19-4.19c0-2.49 3.2-5.84 3.57-6.21l.63-.64.63.64c.36.37 3.56 3.73 3.56 6.21Zm-1.75 0c0-1.12-1.32-3-2.44-4.3-1.12 1.3-2.44 3.18-2.44 4.3 0 1.35 1.09 2.44 2.44 2.44s2.44-1.09 2.44-2.44m-7.59-5.75c.12.29.19.61.19.94 0 1.17-.78 2.14-1.84 2.44.1.27.16.56.16.86 0 1.41-1.13 2.54-2.53 2.54h-.77c-.73 0-1.38-.32-1.84-.81h-1.9c-2.98 0-5.42-2.44-5.42-5.43V11.7C.24 11.02 0 10.24 0 9.44c0-1.17.46-2.84 2.65-4.1s-.02.02-.04.04L9.23.65c.97-.88 2.62-.88 3.67.06.53.48.82 1.12.82 1.8s-.29 1.33-.82 1.8l-1.7 1.61h9.78a2.515 2.515 0 0 1 .07 5.03s-.05 0-.07 0c-.05 0-.11 0-.16-.01-.82.09-2.26.12-4.71.13.06.21.1.43.1.66 0 1.05-.65 1.95-1.56 2.32Zm-.95-1.56a.76.76 0 1 0 0-1.52H9.85c-.42 0-.76.34-.76.76s.32.72.71.75c.04 0 .07-.01.1-.01h2.42c.07 0 .13.01.2.02zm-3.89 5.04c-.41.02-.73.35-.73.77v.02c0 .43.35.78.78.78h.77c.43 0 .78-.35.78-.78s-.31-.73-.69-.78h-.9Zm-3.7.74h1.22c0-.63.25-1.2.64-1.64-.37-.44-.6-1-.6-1.62v-.02c0-.62.23-1.17.6-1.61-.39-.44-.64-1.02-.64-1.65 0-1.38 1.13-2.51 2.51-2.51h10.42c.26 0 .48 0 .61-.01h.1c.43 0 .77-.35.77-.77s-.35-.77-.77-.77H9a.86.86 0 0 1-.81-.54.88.88 0 0 1 .21-.96l3.31-3.13c.17-.16.26-.33.26-.52s-.09-.36-.24-.5c-.19-.17-.45-.26-.7-.26s-.51.09-.7.26L3.71 6.75s-.08.06-.19.12c-1.19.69-1.78 1.53-1.78 2.58 0 .51.18 1.01.51 1.44.03.04.05.08.07.13.34.02.68-.03.96-.2.3-.19.5-.46.55-.77a.87.87 0 0 1 1.02-.71c.48.08.79.54.71 1.02-.11.6-.4 1.14-.85 1.57.25.16.48.34.68.54.78.77 1.13 1.73.97 2.65-.08.42-.44.72-.86.72-.05 0-.1 0-.16-.01a.88.88 0 0 1-.71-1.02c.08-.46-.26-.88-.47-1.09-.41-.41-1.04-.71-1.72-.86v1.76c0 2.02 1.65 3.67 3.67 3.67Zm6.97-3.26c0-.41-.3-.72-.67-.77h-2.6c-.39.04-.69.36-.69.76v.02c0 .4.31.73.71.76h.8c.06 0 .11.01.16.02h1.52c.43 0 .78-.35.78-.78Z"/>
</svg>
