<svg viewBox="0 0 48 48" xmlns="http://www.w3.org/2000/svg">
  <path d="M35.25 25.9c1.43 1.72 1.42 4.31-.05 6.01l-8.3 11.58c-2.16 3.75-5 4.53-7 4.53-1.39 0-2.74-.43-3.92-1.23h-5.22c-5.13 0-9.3-4.16-9.3-9.27v-2.48L.01 20.92a4.193 4.193 0 0 1 5.85-3.84v-1.61c0-2.3 1.88-4.18 4.19-4.18.59 0 1.14.12 1.65.34v-.33a4.14 4.14 0 0 1 4.14-4.13c1.91 0 3.51 1.3 3.98 3.06.56-.28 1.18-.46 1.85-.46.21 0 .42.03.62.06-.15.81-.24 1.63-.24 2.48-.12-.03-.25-.05-.38-.05-.92 0-1.66.74-1.66 1.66 0 .08 0 .15-.02.23 0 .13 0 .29-.01.47v12.11a1.25 1.25 0 0 1-2.5 0V11.31c0-.9-.74-1.64-1.64-1.64s-1.64.73-1.64 1.64v3.81c.01.12.04.23.04.36V26.8c0 .17-.04.34-.1.49-.15.53-.61.92-1.18.92-.69 0-1.25-.56-1.25-1.25V15.13c-.16-.76-.84-1.34-1.65-1.34-.93 0-1.69.75-1.69 1.68v5.14c0 .1.03.2.03.3v6c0 .69-.56 1.25-1.25 1.25-.56 0-1.01-.37-1.17-.87-.07-.15-.11-.32-.11-.5v-6.18c-.14-.78-.83-1.38-1.66-1.38-.91 0-1.66.72-1.69 1.63l1.97 19.2a6.79 6.79 0 0 0 6.28 4.22h5.62c.28 0 .55.09.77.26.82.64 1.77.97 2.74.97 1.97 0 3.55-1.07 4.83-3.28.08-.14.14-.23.21-.33l8.27-11.51.08-.11c.7-.78.7-2.09 0-2.87-.61-.68-1.61-.68-2.22 0l-5.57 5.87a1.252 1.252 0 0 1-2.16-.86V18.04c.64 1.35 1.48 2.59 2.51 3.65v7.59l3.38-3.57c.33-.37.73-.66 1.16-.88 1.5.63 3.15.99 4.87 1.04Zm12.76-13.56c0 6.81-5.53 12.33-12.35 12.33-4.01 0-7.57-1.92-9.82-4.88-.74-.97-1.33-2.05-1.76-3.21-.04-.11-.09-.22-.12-.34-.07-.2-.12-.39-.18-.6-.05-.17-.09-.35-.14-.52-.04-.17-.08-.35-.11-.52-.04-.23-.08-.46-.11-.69-.02-.14-.04-.28-.05-.42-.04-.38-.06-.76-.06-1.15 0-.37.02-.73.06-1.09.03-.35.08-.69.14-1.02 1-5.8 6.05-10.21 12.15-10.21 6.82 0 12.35 5.52 12.35 12.33Zm-2.5 0c0-5.42-4.42-9.83-9.85-9.83s-9.85 4.41-9.85 9.83 4.42 9.83 9.85 9.83 9.85-4.41 9.85-9.83m-9.43-5.3h-2.95v9.77h7.06v-2.48h-4.11z"/>
</svg>
