<svg viewBox="0 0 16 16" xmlns="http://www.w3.org/2000/svg">
  <path fill="#1e1e1c" d="M15.15 7.13c-.35-.38-.83-.6-1.33-.61-.5 0-.98.22-1.32.59l-.8.84V2.84c0-1.02-.83-1.85-1.85-1.85-.19 0-.37.04-.54.09A1.81 1.81 0 0 0 7.66 0c-.93 0-1.7.7-1.82 1.6-.12-.02-.24-.04-.37-.04-1.03 0-1.86.83-1.86 1.86v.23c-.11-.02-.23-.03-.35-.03-1.03 0-1.86.83-1.86 1.92l.54 6.42c0 .06.03.11.04.16.19 1.91 1.79 3.42 3.75 3.42h1.88c.47.31 1.01.47 1.56.47.83 0 2-.32 2.89-1.87l3.08-4.3c.68-.76.68-1.96 0-2.72Zm-1.17 1.78-3.08 4.3s-.11.15-.13.2c-.43.74-.94 1.1-1.58 1.1-.31 0-.6-.11-.86-.31-.13-.1-.3-.16-.46-.16h-.21c0-.07-.01-.14-.02-.22 0-.02.01-.03.01-.05 0-.92.46-1.61.87-1.61s.75-.34.75-.75-.34-.75-.75-.75c-.84 0-1.56.55-1.98 1.39-.31-.19-.67-.3-1.05-.3-.41 0-.75.34-.75.75s.34.75.75.75c.36 0 .65.35.67.8h-.41a2.29 2.29 0 0 1-2.29-2.29h-.02l-.53-6.27c0-.2.16-.36.36-.36.18 0 .32.13.35.3v2.28q0 .165.06.3c.1.29.37.5.7.5.41 0 .75-.34.75-.75V5.49s0-.08-.01-.12V3.43c0-.2.16-.36.36-.36.17 0 .31.13.35.29v4.41c0 .41.34.75.75.75.33 0 .61-.22.7-.52.04-.09.06-.19.06-.29V3.43s-.01-.09-.01-.14V1.85c0-.19.15-.34.34-.34s.34.15.34.34v5.83c0 .41.34.75.75.75s.75-.34.75-.75V2.86c0-.19.16-.35.35-.35s.35.16.35.35v6.99a.749.749 0 0 0 1.29.52l2.11-2.22c.06-.07.14-.11.21-.11s.15.04.21.11c.17.19.17.52-.05.78Z"/>
</svg>
