<svg viewBox="0 0 32 32" xmlns="http://www.w3.org/2000/svg">
  <path d="M-.02 28.95h18v3.09h-18zm18-15.89v13.89h-18V13.06c0-1.1.9-2 2-2h1.99V8.5c0-.55.45-1 1-1h1.61V6H4.97V1.03c0-.55.45-1 1-1h5.95c.55 0 1 .45 1 1v.88h9.68l3.33 2.01-1.04 1.71-2.85-1.72h-9.12v2.1h-1.55v1.5h1.55c.55 0 1 .45 1 1v2.56h2.06a2 2 0 0 1 2 2Zm-6.05 4.68H9.87v-2.06h-2v2.06H5.81v2h2.06v2.06h2v-2.06h2.06zm20.05 1.57c0 3.13-2.55 5.68-5.69 5.68s-5.69-2.55-5.69-5.68c0-3.43 4.47-8.09 4.98-8.61l.72-.73.71.73c.51.52 4.97 5.21 4.97 8.61m-4.91 1.86c0-.55-.45-1-1-1-.5 0-.9-.4-.9-.9 0-.55-.45-1-1-1s-1 .45-1 1c0 1.6 1.3 2.9 2.9 2.9.55 0 1-.45 1-1"/>
</svg>
