<svg viewBox="0 0 32 32" xmlns="http://www.w3.org/2000/svg">
  <path d="M18.98 3.09s.06.05.08.07l9.82 7.05c.08.06.16.11.28.17 1.88 1.08 2.84 2.49 2.84 4.17 0 .85-.29 1.67-.84 2.38-.14.17-.21.39-.21.61v1.18s-.07-.02-.11-.02c-.2 0-.39.03-.59.05-.04 0-.08-.02-.12-.02-2.35 0-4.33-1.22-4.33-2.66 0-.55-.45-1-1-1s-1 .45-1 1c0 1.86 1.42 3.43 3.51 4.18-.66.73-1.07 1.65-1.07 2.67 0 .55.45 1 1 1s1-.45 1-1c0-1.23 1.16-2.23 2.59-2.23.04 0 .07-.02.11-.02v1.66c0 3.23-2.62 5.86-5.85 5.86h-1.76L9.65 29.43c-.83 0-1.5-.67-1.5-1.5s.67-1.5 1.5-1.5h6.4s.06-.01.1-.01c.45-.1.8-.48.8-.96 0-.55-.45-1-1-1H5.02c-.83 0-1.5-.67-1.5-1.5s.67-1.5 1.5-1.5h10.94v.03h.14c.55 0 1-.45 1-1 0-.46-.32-.83-.75-.95a1 1 0 0 0-.29-.06s-14.6 0-14.6 0c-.81 0-1.46-.66-1.46-1.47s.66-1.47 1.46-1.47h14.48c.53-.02.96-.45.96-.99s-.45-1-1-1H4.5c-.26 0-.48-.01-.63-.01-.05 0-.11-.01-.17-.01-.82 0-1.48-.67-1.48-1.48s.66-1.48 1.48-1.48h17.06a.99.99 0 0 0 .69-1.71l-5.01-4.75c-.3-.27-.47-.63-.47-1s.17-.72.47-1c.69-.62 1.85-.62 2.54 0Z"/>
</svg>
