<svg viewBox="0 0 32 32" xmlns="http://www.w3.org/2000/svg">
  <path d="M15.13 3.2c-.67.6-1.04 1.41-1.04 2.28s.37 1.68 1.02 2.26l2.58 2.45H5.14c-1.76 0-3.19 1.42-3.19 3.18 0 .49.12.95.32 1.36A3.16 3.16 0 0 0 0 17.76c0 1.75 1.42 3.17 3.17 3.17h.16c-.15.37-.23.76-.23 1.18 0 1.77 1.44 3.21 3.21 3.21h1.13c-.15.37-.23.77-.23 1.19 0 1.77 1.44 3.21 3.28 3.21l13.91-1.07c.06 0 .11-.03.17-.05 3.64-.27 6.52-3.31 6.52-7.02v-3.9c.61-.89.93-1.91.93-2.96 0-1.52-.6-3.66-3.51-5.35l-8.64-6.2c-1.33-1.16-3.39-1.14-4.71.04Zm3.42 1.48s.06.05.08.07l8.67 6.22c.07.06.15.1.26.16 1.64.95 2.44 2.12 2.44 3.58 0 .72-.25 1.42-.72 2.03-.14.17-.21.39-.21.61v1a.95.95 0 0 0-.41-.09c-.18 0-.35.03-.52.05-.04 0-.07-.02-.1-.02-.73 0-1.43-.14-2.02-.38l-1.27-.87c-.25-.3-.41-.62-.41-.97 0-.55-.45-1-1-1s-1 .45-1 1c0 1.64 1.21 3.04 3.01 3.74-.53.64-.85 1.44-.85 2.3 0 .55.45 1 1 1s1-.45 1-1c0-1.02.97-1.85 2.17-1.85.15 0 .28-.04.41-.09v1.42c0 2.78-2.26 5.05-5.05 5.05v.04l-13.62 1.05c-.66 0-1.21-.54-1.21-1.21 0-.63.49-1.13 1.1-1.19h5.66c.14 0 .27-.03.4-.08.4-.13.69-.49.69-.94 0-.55-.45-1-1-1H10.4c-.07 0-.14.02-.21.02H6.3c-.66 0-1.21-.54-1.21-1.21 0-.62.47-1.11 1.07-1.18h9.91c.55 0 1-.45 1-1 0-.46-.31-.83-.73-.95-.12-.05-.25-.08-.39-.08H6.31c-.09 0-.18.02-.27.03H3.17c-.65 0-1.17-.53-1.17-1.18s.53-1.18 1.17-1.18h12.74c.55 0 1-.45 1-1s-.45-1-1-1H5.81c-.2 0-.39 0-.51-.01-.05 0-.1-.01-.16-.01-.66 0-1.19-.53-1.19-1.19s.53-1.19 1.19-1.19H20.2c.41 0 .78-.24.93-.62s.06-.81-.24-1.1l-4.42-4.19c-.48-.44-.49-1.15 0-1.58.57-.51 1.52-.51 2.09 0Z"/>
</svg>
