<svg viewBox="0 0 16 16" xmlns="http://www.w3.org/2000/svg">
  <path d="M11.42 9.71c.05.19.01.42-.15.61l-3.12 4.36s-.11.16-.14.2c-.44.76-.96 1.12-1.62 1.12-.31 0-.62-.11-.88-.32a.76.76 0 0 0-.46-.16H2.89c-.96 0-1.78-.58-2.14-1.4l-.2-1.92-.46-4.51L0 6.84c0-.21.17-.37.37-.37.19 0 .33.14.36.32v2.32c0 .1.02.2.06.29.1.29.37.5.7.5.41 0 .75-.34.75-.75v-2.3s0-.08-.01-.12V4.76c0-.21.17-.37.38-.37.18 0 .33.13.36.31v4.48c0 .41.34.74.75.74.33 0 .61-.22.7-.52.04-.09.06-.19.06-.29V4.76s-.01-.09-.01-.14V3.16c0-.2.16-.36.36-.36s.36.16.36.36v1.05c-.06.58-.07 1.56-.07 3.18l.06 1.63h.01v.06c0 .41.34.75.75.75s.75-.34.75-.75v-2.8c.19.46.44.88.74 1.27v3.71c0 .31.19.58.47.7.29.11.61.04.82-.18l2.04-2.15c.21.04.43.07.65.09ZM16 4.12c0 2.27-1.85 4.11-4.12 4.11S7.76 6.39 7.76 4.12 9.61 0 11.88 0 16 1.84 16 4.11Zm-2.6.66h-1.37V2.34h-.99v3.27h2.36z"/>
</svg>
