<svg viewBox="0 0 16 16" xmlns="http://www.w3.org/2000/svg">
  <path d="M7.12 1.39c-.38.35-.6.83-.61 1.33 0 .5.22.99.59 1.32l.84.8H2.83c-1.02 0-1.85.83-1.85 1.85 0 .19.04.37.09.54C.44 7.52 0 8.16 0 8.9c0 .93.7 1.7 1.6 1.82-.02.12-.04.24-.04.37 0 1.03.83 1.86 1.86 1.86h.23c-.02.11-.03.23-.03.35 0 1.03.83 1.86 1.92 1.86l6.42-.54c.06 0 .11-.03.16-.04 1.91-.19 3.42-1.79 3.42-3.75V8.95c.31-.47.47-1.01.47-1.56 0-.83-.32-2-1.87-2.89l-4.3-3.08c-.76-.68-1.96-.68-2.72 0ZM8.9 2.56l4.3 3.08s.15.11.2.13c.74.43 1.1.94 1.1 1.58 0 .31-.11.6-.31.86-.1.13-.16.3-.16.46v.21c-.07 0-.14.01-.22.02-.02 0-.03-.01-.05-.01-.92 0-1.61-.46-1.61-.87s-.34-.75-.75-.75-.75.34-.75.75c0 .84.55 1.56 1.39 1.98-.19.31-.3.67-.3 1.05 0 .41.34.75.75.75s.75-.34.75-.75c0-.36.35-.65.8-.67v.41a2.29 2.29 0 0 1-2.29 2.29v.02l-6.27.53c-.2 0-.36-.16-.36-.36 0-.18.13-.32.3-.35H7.7q.165 0 .3-.06c.29-.1.5-.37.5-.7 0-.41-.34-.75-.75-.75H5.48s-.08 0-.12.01H3.42c-.2 0-.36-.16-.36-.36 0-.17.13-.31.29-.35h4.41c.41 0 .75-.34.75-.75 0-.33-.22-.61-.52-.7a.7.7 0 0 0-.29-.06H3.42s-.09.01-.14.01H1.84c-.19 0-.34-.15-.34-.34s.15-.34.34-.34h5.83c.41 0 .75-.34.75-.75s-.34-.75-.75-.75H2.85c-.19 0-.35-.16-.35-.35s.16-.35.35-.35h6.99a.749.749 0 0 0 .52-1.29L8.14 2.93c-.07-.06-.11-.14-.11-.21s.04-.15.11-.21c.19-.17.52-.17.78.05Z"/>
</svg>
