<svg viewBox="0 0 40 40" xmlns="http://www.w3.org/2000/svg">
  <path fill="#1e1e1c" d="m33.92 23.84-.54.55c-.23.23-5.51 5.7-5.51 9.5 0 3.34 2.71 6.06 6.04 6.06s6.04-2.72 6.04-6.06c0-3.77-5.28-9.27-5.51-9.5l-.54-.55Zm-.18 13.93c-1.87 0-3.39-1.52-3.39-3.4 0-.55.45-1 1-1s1 .45 1 1c0 .77.62 1.39 1.39 1.39.55 0 1 .45 1 1s-.45 1-1 1Zm-10.77-4.91c0 1.21-.98 2.19-2.18 2.19h-3.38c-1.2 0-2.18-.98-2.18-2.19v-.05c0-.15.02-.29.04-.43.01-.06.04-.12.05-.18.02-.07.04-.15.07-.22.04-.09.08-.17.13-.25.02-.04.04-.08.06-.11.06-.1.14-.19.22-.27.01-.01.02-.03.03-.04.37-.39.89-.64 1.46-.67s.08-.01.11-.01h3.38c1.2 0 2.18.98 2.18 2.23Zm4.02-6.4c0 1.21-.98 2.19-2.18 2.19h-7.32c-.49 0-.94-.17-1.31-.45 0 0-.02-.01-.03-.02-.09-.07-.18-.15-.26-.24-.02-.02-.04-.05-.06-.07-.07-.08-.13-.15-.18-.24-.03-.04-.05-.09-.07-.14-.04-.07-.08-.14-.11-.22-.03-.07-.05-.15-.07-.23-.02-.06-.04-.11-.05-.17-.03-.14-.04-.28-.04-.43v-.05c0-.15.02-.29.04-.42a1 1 0 0 1 .05-.16c.02-.08.04-.16.07-.23s.07-.14.1-.2c.03-.05.05-.1.08-.15.05-.08.11-.15.17-.22a.3.3 0 0 1 .07-.08c.07-.08.15-.15.24-.22.01-.01.03-.02.04-.04.1-.07.2-.14.3-.19h.02c.3-.16.64-.26 1-.26h7.32c1.2 0 2.18.98 2.18 2.23Zm1.14-8.52c1.19 0 2.16.97 2.16 2.16s-.97 2.16-2.16 2.16H17.38s-.09-.01-.14-.01c-.42-.03-.81-.17-1.13-.41-.1-.08-.2-.16-.29-.25-.01-.02-.03-.03-.04-.05a3 3 0 0 1-.2-.26c-.03-.04-.04-.08-.07-.12-.04-.08-.09-.15-.12-.23-.03-.07-.05-.14-.07-.22-.02-.06-.04-.12-.05-.18-.03-.14-.04-.28-.04-.43 0-1.19.97-2.16 2.16-2.16h10.75ZM13.22 32.81v.05c0 .17.03.33.05.49l-4.14-.02c-4.29 0-7.78-3.5-7.78-7.8V23c1.96.03 3.54 1.42 3.54 3.13 0 .55.45 1 1 1s1-.45 1-1c0-1.38-.6-2.63-1.57-3.56 2.79-.86 4.7-2.86 4.7-5.23 0-.55-.45-1-1-1s-1 .45-1 1c0 2-2.67 3.69-5.84 3.69-.04 0-.07.02-.1.02-.24-.03-.49-.05-.74-.06v-1.62c0-.22-.07-.44-.21-.62a5.22 5.22 0 0 1-1.12-3.21c0-2.27 1.27-4.15 3.78-5.6.15-.08.24-.14.32-.2L16.7.69s.06-.05.08-.07c.99-.89 2.65-.89 3.64 0 .45.4.7.93.7 1.49s-.25 1.08-.72 1.51l-6.39 6.07a1.003 1.003 0 0 0 .69 1.73h23.13c1.2 0 2.18.97 2.18 2.18s-.98 2.18-2.18 2.18c-.05 0-.1 0-.15.01-1.15.02-5.57.09-9.55.15H17.38c-2.29 0-4.15 1.87-4.15 4.17 0 1.29.6 2.42 1.51 3.19a4.16 4.16 0 0 0-1.42 3.13v.05c0 1.25.56 2.37 1.44 3.14-.92.77-1.52 1.92-1.52 3.21Z"/>
</svg>
