<svg viewBox="0 0 40 40" xmlns="http://www.w3.org/2000/svg">
  <path d="M-.01 35.85h22.49v4.11H-.01zM22.48 16v17.61H-.01V16c0-1.24 1.01-2.25 2.25-2.25h2.74v-3.2c0-.69.56-1.25 1.25-1.25h2.01V7.43H6.23V.96c0-.55.45-1 1-1h7.94c.55 0 1 .45 1 1v1.47h12.06l4.13 2.5-1.16 1.92-3.6-2.17H16.17v2.75h-1.93V9.3h1.93c.69 0 1.25.56 1.25 1.25v3.2h2.82c1.24 0 2.25 1.01 2.25 2.25Zm-7.56 6.47h-2.7v-2.7H9.97v2.7h-2.7v2.25h2.7v2.7h2.25v-2.7h2.7zm25.07 1.59c0 3.85-3.13 6.98-6.99 6.98s-6.99-3.13-6.99-6.98c0-4.24 5.55-10.03 6.18-10.68l.81-.83.8.83c.63.65 6.18 6.47 6.18 10.68Zm-6.57 2.9c0-.62-.5-1.12-1.13-1.12-.69 0-1.25-.56-1.25-1.25 0-.62-.5-1.12-1.13-1.12s-1.13.5-1.13 1.12c0 1.93 1.57 3.5 3.5 3.5.62 0 1.13-.5 1.13-1.12Z"/>
</svg>
