<svg viewBox="0 0 48 48" xmlns="http://www.w3.org/2000/svg">
  <path fill="#1e1e1c" d="m40.89 29.09-.54.55c-.27.27-6.56 6.77-6.56 11.26 0 3.91 3.18 7.1 7.09 7.1s7.09-3.18 7.09-7.1c0-4.45-6.29-10.98-6.55-11.25l-.54-.55Zm1.03 15.24c0 .69-.56 1.25-1.25 1.25-2.27 0-4.11-1.85-4.11-4.12a1.25 1.25 0 0 1 2.5 0c0 .89.72 1.62 1.61 1.62.69 0 1.25.56 1.25 1.25M17.6 35.51c-1.09.93-1.79 2.29-1.79 3.83v.09c0 .18.04.36.05.54l-4.92-.02c-5.13 0-9.3-4.18-9.3-9.31v-2.98c2.31.06 4.17 1.69 4.17 3.71a1.25 1.25 0 0 0 2.5 0c0-1.64-.7-3.14-1.84-4.25 3.33-1.05 5.61-3.45 5.61-6.3a1.25 1.25 0 0 0-2.5 0c0 2.37-3.19 4.38-6.97 4.38-.04 0-.08.02-.12.02-.28-.04-.56-.06-.85-.07v-1.9c0-.28-.09-.55-.26-.77C.49 21.35.02 20.02.02 18.65c0-2.7 1.52-4.95 4.51-6.67.18-.1.29-.17.4-.25L20.07.87s.07-.06.11-.09c1.17-1.05 3.14-1.05 4.31 0 .53.48.82 1.1.82 1.75s-.29 1.27-.85 1.77l-7.68 7.28a1.252 1.252 0 0 0 .86 2.16h27.81c1.42-.01 2.57 1.14 2.57 2.56s-1.15 2.57-2.57 2.57c-.06 0-.13 0-.19.01-1.38.03-6.61.11-11.36.18-.04 0-.07-.01-.11-.01H20.84a5.04 5.04 0 0 0-5.03 5.03v.03c0 1.53.7 2.89 1.78 3.81-1.02.93-1.68 2.25-1.68 3.74v.09c0 1.49.66 2.82 1.69 3.75Zm9.93 3.92c0 1.41-1.15 2.56-2.56 2.56h-4.11c-1.41 0-2.56-1.15-2.56-2.56v-.09c0-.17.02-.34.05-.51.01-.07.04-.14.06-.21.03-.09.05-.17.08-.26.04-.1.1-.19.15-.28.03-.05.05-.09.08-.14.07-.11.16-.21.25-.31.02-.02.03-.04.04-.05.11-.11.23-.21.35-.31.42-.31.94-.49 1.49-.49h4.11c1.41 0 2.56 1.15 2.56 2.65Zm4.83-7.67c0 1.41-1.15 2.56-2.56 2.56h-8.84c-.08 0-.16-.02-.25-.02-.32-.03-.63-.12-.91-.26a3 3 0 0 1-.38-.24c-.01 0-.02-.02-.03-.03q-.165-.12-.3-.27a.5.5 0 0 0-.07-.08 2 2 0 0 1-.21-.28c-.03-.05-.06-.11-.09-.16-.05-.08-.09-.16-.13-.25-.03-.08-.06-.17-.08-.26l-.06-.2c-.03-.16-.05-.33-.05-.5v-.09c0-.17.02-.34.05-.5.01-.07.04-.13.05-.19.03-.09.05-.18.08-.27.03-.08.08-.16.12-.24.03-.06.06-.12.09-.17.06-.09.13-.18.2-.26.03-.03.05-.07.08-.1.09-.09.18-.18.28-.26.02-.01.03-.03.05-.04.11-.09.23-.16.36-.23 0 0 .01 0 .02-.01.35-.18.75-.3 1.17-.3h8.84c1.41 0 2.56 1.15 2.56 2.65Zm1.43-5.1H20.84c-.56 0-1.07-.19-1.49-.5-.12-.09-.24-.19-.34-.3-.02-.02-.03-.04-.05-.06q-.135-.15-.24-.3c-.03-.04-.05-.09-.08-.14-.05-.09-.1-.18-.14-.27-.03-.08-.05-.17-.08-.25-.02-.07-.05-.14-.06-.21-.03-.16-.05-.33-.05-.5v-.03c0-1.4 1.13-2.53 2.53-2.53h12.95c1.4 0 2.53 1.14 2.53 2.56s-1.13 2.53-2.53 2.53"/>
</svg>
