<svg viewBox="0 0 64 64" xmlns="http://www.w3.org/2000/svg">
  <path fill="#1e1e1c" d="M59.19 30.54c-1.1-1.23-2.58-1.91-4.16-1.91s-3.06.68-4.14 1.88l-6.16 6.51V5.85C44.74 2.62 42.12 0 38.89 0s-5.74 2.51-5.85 5.65v.16c-.02.22-.02.44-.02.65l-.04 2.37c-.02 1.42-.05 3.2-.08 5.11a5.8 5.8 0 0 0-2.98-.83c-3.11 0-5.65 2.46-5.81 5.53-.91-.56-1.99-.89-3.15-.89-3.22 0-5.85 2.62-5.85 5.85v.71c-.91-.56-1.98-.88-3.14-.88-3.22 0-5.84 2.62-5.84 5.85v4.81c0 1.85.86 3.49 2.2 4.56l.03 9.7c0 7.59 6.17 13.76 13.75 13.76h8.2c1.75 1.25 3.77 1.9 5.85 1.9 2.93 0 7.09-1.17 10.29-6.72.04-.07.07-.13.1-.17 0 0 0-.01.01-.02l12.71-17.75c2.13-2.44 2.11-6.37-.05-8.79Zm-29.28-14.7c1.7 0 3.07 1.38 3.07 3.08v15.17c0 1.7-1.38 3.08-3.07 3.08-1.59 0-2.88-1.22-3.04-2.76.01-.15.02-.3.02-.46V23.59c0-.26-.02-.51-.05-.76v-3.91c0-1.7 1.38-3.08 3.07-3.08m-8.87 4.65c1.52 0 2.78 1.11 3.04 2.56V34.1c0 .09 0 .18.01.26-.2 1.51-1.49 2.69-3.05 2.69h-.1c-1.59 0-2.89-1.21-3.06-2.75 0-.07.01-.15.01-.22v-4.81c0-.24-.02-.47-.05-.7v-4.98c0-1.71 1.39-3.1 3.19-3.1ZM8.86 29.26c0-1.71 1.39-3.1 3.19-3.1a3.09 3.09 0 0 1 3.05 2.64v5.14c0 .13.01.26.02.39-.14 1.58-1.45 2.84-3.07 2.84h-.1c-1.71 0-3.09-1.39-3.09-3.1zm48.28 8.29-.09.12-12.72 17.78c-.09.12-.17.25-.28.45-2.04 3.55-4.7 5.34-7.9 5.34-1.62 0-3.2-.56-4.55-1.61-.24-.19-.54-.29-.84-.29H28.1c.09-.18.14-.38.14-.6 0-.37-.03-.72-.08-1.07 0-.07.02-.13.02-.2 0-4.48 2.39-8.27 5.22-8.27.76 0 1.38-.62 1.38-1.38s-.62-1.38-1.38-1.38c-3.34 0-6.15 2.71-7.34 6.67-1.3-1.38-3.07-2.24-5.02-2.24-.76 0-1.38.62-1.38 1.38s.62 1.38 1.38 1.38c2.45 0 4.45 2.3 4.45 5.12 0 .22.05.42.14.6h-3.52c-6.07 0-11-4.94-11-11.01l-.03-8.48c.29.04.59.08.89.08h.1c1.81 0 3.43-.83 4.5-2.13 1.07 1.22 2.64 2 4.39 2h.1c1.74 0 3.31-.77 4.38-1.99a5.8 5.8 0 0 0 4.48 2.11c3.21 0 5.82-2.61 5.82-5.83V7.9c.01-.81.03-1.45.03-1.83.01-.07.02-.14.02-.22 0-1.71 1.39-3.11 3.11-3.11s3.11 1.39 3.11 3.11v34.62c-.01.56.33 1.07.85 1.28s1.12.08 1.51-.33l8.56-9.05a2.81 2.81 0 0 1 4.23 0c1.26 1.4 1.26 3.77 0 5.17Z"/>
</svg>
