<svg viewBox="0 0 40 40" xmlns="http://www.w3.org/2000/svg">
  <path d="m13.99 6.11-.87-2.68 1.39-.37.82-.22.87 2.69-2.22.58Zm9.13 26.83q-.045-.27-.12-.54c-.08-.3-.19-.59-.32-.87-.05-.1-.1-.2-.15-.29-.09-.17-.18-.34-.28-.49-.08-.12-.16-.23-.24-.34-.09-.12-.18-.23-.28-.35-.11-.13-.22-.25-.34-.36l-.24-.21c-.15-.13-.3-.26-.47-.38-.66-.47-1.42-.81-2.24-.99-.42-.09-.86-.16-1.31-.16-.54 0-1.07.07-1.6.21a6.03 6.03 0 0 0-3.69 2.82 5.97 5.97 0 0 0-.6 4.58 6.096 6.096 0 0 0 7.46 4.25A6.03 6.03 0 0 0 22.39 37c.72-1.24.96-2.65.72-4.03Zm16.84-5.67c-.17-.6-.79-.95-1.39-.79l-3.84 1.04-3.51-12.85-4.32 1.16 1.58 5.18-6.73 1.76-1.51-4.95 2.19-.59.86 2.82 2.35-.61-.86-2.83 1.23-.33-4.17-15.19-4.33 1.16 1.57 4.85-6.6 1.73-1.56-4.81-2.83.76L1.8.22C1.29-.15.58-.04.22.47c-.37.5-.26 1.2.24 1.56L6.93 6.7l3.73 13.67h.02l1.83 6.7c.63-.41 1.33-.74 2.08-.98l-1.72-6.31 3.07-.82 1.85 6.76c2.93.23 5.57 2 6.86 4.69.05.11.1.23.15.35.15.34.28.69.38 1.06.05.18.08.36.12.54s0 .03.01.05l13.85-3.75c.6-.16.96-.78.79-1.38Z"/>
</svg>
