<svg viewBox="0 0 48 48" xmlns="http://www.w3.org/2000/svg">
  <path fill="#1e1e1c" d="M41.83 3.16a4.9 4.9 0 0 0-3.07-2.12 4.84 4.84 0 0 0-3.67.68c-1.09.71-1.84 1.8-2.11 3.05l-2.66 11.47-2.16-12.15c-.2-1.29-.89-2.42-1.94-3.18a4.88 4.88 0 0 0-3.61-.86c-1.29.2-2.42.88-3.19 1.93a4.85 4.85 0 0 0-.89 3.63l1.15 7.25c-1.06-.44-2.22-.52-3.32-.17a4.85 4.85 0 0 0-2.86 2.39c-.31.6-.49 1.24-.54 1.89-.9-.25-1.85-.24-2.76.04-2.56.8-4 3.55-3.19 6.11l.09.29c-.02.19-.05.37-.05.56v11.21c0 6.21 5.05 11.27 11.26 11.27h8.32c1.43 1.01 3.08 1.54 4.78 1.54 4.91 0 8.9-4.39 8.9-9.79 0-2.12-.63-4.15-1.82-5.87v-8.26c.21-1.08 2.5-10.81 4.02-17.22v-.03c.27-1.27.03-2.58-.68-3.67ZM15.71 16.25a2.37 2.37 0 0 1 4.37.39l2.09 6.67c-.29.16-.58.35-.84.56-1.16.96-1.83 2.28-1.89 3.71-.02.42.02.82.11 1.22-.48-.29-.86-.74-1.04-1.31l-.45-1.42c-.04-.26-.08-.53-.16-.79l-1.59-5.07c-.08-.27-.2-.53-.33-.77l-.43-1.38c-.19-.61-.13-1.25.16-1.81m-4.77 3.16c.23-.07.47-.11.71-.11.38 0 .75.09 1.1.27.38.2.69.5.91.86l1.94 6.18c.06 1.06-.6 2.07-1.65 2.4-1.25.39-2.58-.31-2.98-1.56l-1.59-5.07c-.39-1.25.31-2.59 1.56-2.98ZM9.55 35.19V29.9a4.9 4.9 0 0 0 3.7 1.72c.48 0 .97-.07 1.45-.22.93-.29 1.71-.85 2.29-1.55.92 1.13 2.31 1.82 3.78 1.82.14 0 .29-.02.43-.03l3.42 3.34c-1.49.74-2.68 2.24-3.35 4.17-.97-.9-2.22-1.45-3.58-1.45a1.25 1.25 0 0 0 0 2.5c.6 0 1.15.21 1.62.56l.87.97c.34.57.53 1.25.53 1.99 0 .08.03.16.05.24h-2.45c-4.83 0-8.76-3.93-8.76-8.77M31.4 45.5c-1.28 0-2.53-.44-3.6-1.28-.22-.17-.49-.26-.77-.26h-3.87c.02-.08.05-.15.05-.24q0-.435-.06-.84c0-.03.02-.06.02-.1 0-.79.1-1.55.29-2.25l2.27-3.33c.3-.15.61-.23.93-.25l2.52 2.45c.24.24.56.35.87.35s.65-.13.9-.38c.48-.49.47-1.29-.02-1.77l-8.17-7.97c-.56-.55-.85-1.24-.82-1.96s.38-1.39.98-1.89c1.32-1.09 3.47-1 4.75.24l8.49 7.37.06.03c0 .01.01.03.02.05a7.8 7.8 0 0 1 1.56 4.71c0 4.02-2.87 7.29-6.4 7.29Zm8.67-39.2c-4.08 17.2-4.08 17.51-4.08 17.69v5.98l-6.63-5.75c-1.27-1.24-3.07-1.78-4.8-1.62l-1.64-5.24-1.93-12.11c-.1-.63.06-1.25.43-1.77.38-.51.93-.85 1.56-.94.63-.1 1.26.05 1.77.42s.84.91.94 1.56l3.24 18.19c.1.59.6 1.02 1.2 1.03.56.02 1.12-.39 1.25-.97l4.04-17.44a2.377 2.377 0 0 1 4.32-.8c.34.53.46 1.16.33 1.78Z"/>
</svg>
