<svg viewBox="0 0 16 16" xmlns="http://www.w3.org/2000/svg">
  <path d="m13.63 5.45-.54-.55-.54.55c-.39.4-2.35 2.48-2.35 4.12s1.29 2.88 2.89 2.88 2.89-1.29 2.89-2.88-1.96-3.72-2.35-4.12m-.54 5.51c-.76 0-1.38-.62-1.38-1.38 0-.6.7-1.66 1.38-2.48.69.82 1.39 1.88 1.39 2.48 0 .76-.62 1.38-1.39 1.38M7.48 5.53h-.53V4c0-.28-.22-.5-.5-.5H5.23V3h1.22v-.8h4.49l1.37.83.78-1.28L11.36.71H6.45V.52c0-.28-.22-.5-.5-.5H2.97a.51.51 0 0 0-.5.5v2.49h1.26v.5H2.47c-.28 0-.5.22-.5.5v1.53h-.5C.65 5.53-.02 6.2-.02 7.02v8.99h9V7.02c0-.83-.67-1.5-1.5-1.5Zm-4.01-.54h1.98v.49H3.47zm4.01 2.03v5.36h-6V7.02zm-6 7.49v-.63h6v.63zm2.19-4.15H2.64v-1.5h1.03V7.83h1.5v1.03H6.2v1.5H5.17v1.03h-1.5z"/>
</svg>
