<svg viewBox="0 0 24 24" xmlns="http://www.w3.org/2000/svg">
  <path d="M0 21.07h13.49v2.94H0zm13.48-11.04v9.29H0v-9.29c0-.97.78-1.75 1.75-1.75h1.24V6.24c0-.55.45-1 1-1h1.63v-.75H3.74V.76a.74.74 0 0 1 .74-.75h4.46c.41 0 .75.34.75.75v.54h7.29l2.53 1.53-.9 1.5-2.11-1.27H9.7v1.45H7.87v.75h1.58c.55 0 1 .45 1 1V8.3h1.29c.97 0 1.75.78 1.75 1.75Zm-4.16 3.01h-1.8v-1.8H5.77v1.8h-1.8v1.75h1.8v1.8h1.75v-1.8h1.8zm14.67 1.43c0 2.42-1.97 4.39-4.39 4.39s-4.39-1.97-4.39-4.39c0-2.62 3.38-6.15 3.76-6.55l.63-.64.63.64c.38.4 3.76 3.94 3.76 6.55m-3.8 1.52a.87.87 0 0 0-.87-.87c-.3 0-.55-.25-.55-.55a.87.87 0 0 0-1.74 0 2.3 2.3 0 0 0 2.3 2.3c.48 0 .87-.39.87-.87Z"/>
</svg>
