<svg viewBox="0 0 40 40" xmlns="http://www.w3.org/2000/svg">
  <path fill="#1e1e1c" d="M11.92 14.39a2.37 2.37 0 0 1 2.26-3.07c.38 0 .75.09 1.09.27.56.29.97.79 1.16 1.39l1.15 3.68.82 2.63q-.465.24-.87.57c-1.04.86-1.64 2.04-1.7 3.33-.02.49.07.97.2 1.43-.64-.26-1.16-.77-1.38-1.47l-2.74-8.75Zm-1.27 10.26c.6-.19 1.1-.6 1.39-1.16.09-.18.16-.37.2-.56 0-.03.01-.07.02-.1.04-.19.05-.38.04-.58-.01-.19-.04-.38-.1-.56l-1.47-4.7a2.37 2.37 0 0 0-2.26-1.66 2.37 2.37 0 0 0-2.26 3.07l1.47 4.7a2.37 2.37 0 0 0 2.96 1.55Zm3.42 8.06c1.31 0 2.5.56 3.39 1.47.62-1.96 1.82-3.46 3.32-4.12l-3.39-3.3c-.15.02-.31.03-.46.03-1.38 0-2.7-.67-3.52-1.78-.54.72-1.29 1.26-2.17 1.54-.43.14-.87.2-1.3.2-1.43 0-2.78-.71-3.59-1.89v5.36c0 4.57 3.72 8.29 8.29 8.29h2.47a1 1 0 0 1-.08-.38c0-1.89-1.33-3.43-2.97-3.43-.55 0-1-.45-1-1s.45-1 1-1ZM34.66 1.87c-.34-.53-.87-.89-1.49-1.02s-1.25-.01-1.78.33-.89.87-1.02 1.49l-3.75 16a.99.99 0 0 1-1 .77c-.47-.01-.87-.36-.96-.82L21.65 1.94a2.363 2.363 0 0 0-2.7-1.97c-1.29.2-2.18 1.41-1.98 2.69l1.78 11.02 1.57 5.02c1.6-.18 3.28.3 4.46 1.45L31.2 26v-6.17c0-.15 0-.44 3.78-16.2.13-.61 0-1.24-.33-1.77ZM23.41 21.61c-.16-.16-.34-.3-.53-.42-.03-.02-.07-.03-.1-.05-.16-.1-.33-.18-.51-.25-.02 0-.04-.01-.06-.02-.2-.07-.4-.13-.6-.16-.22-.04-.44-.06-.67-.05-.68 0-1.35.21-1.91.6-.07.05-.15.09-.22.15-.6.49-.94 1.16-.97 1.87a3 3 0 0 0 .07.65c.04.19.12.38.21.56.13.27.31.52.53.74l7.58 7.39a.996.996 0 0 1-.7 1.71 1 1 0 0 1-.7-.28l-2.39-2.33c-1.88.03-3.46 2.57-3.46 5.57 0 .03-.02.06-.02.09.03.25.06.51.06.78 0 .14-.03.26-.08.38h3.78c.22 0 .44.07.61.21 1.02.8 2.21 1.22 3.44 1.22 3.36 0 6.1-3.1 6.1-6.92 0-1.53-.47-2.98-1.33-4.22-.18-.03-8.15-7.19-8.15-7.19Z"/>
</svg>
