<svg viewBox="0 0 48 48" xmlns="http://www.w3.org/2000/svg">
  <path d="M47.99 20.95 45.84 42c-1.13 2.72-3.82 4.65-6.95 4.65h-6.13c-.28 0-.55.09-.77.26-.91.71-1.97 1.08-3.06 1.08-2.17 0-3.97-1.23-5.36-3.64-.09-.15-.15-.25-.22-.35l-9.02-12.57-.08-.11c-.8-.89-.8-2.4 0-3.29.35-.4.81-.61 1.3-.61s.94.22 1.32.64l6.05 6.38a1.252 1.252 0 0 0 2.16-.86V17.13c.56-1.49.88-3.1.88-4.79 0-.19-.02-.38-.03-.56.31-.2.67-.32 1.07-.32 1.06 0 1.93.86 1.93 1.92 0 .08 0 .16.02.23 0 .14 0 .34.01.55v13.2a1.25 1.25 0 0 0 2.5 0V10.51a1.9 1.9 0 1 1 3.8 0v4.16c-.01.13-.04.25-.04.39v12.37c0 .18.04.34.1.49.14.53.61.94 1.19.94.69 0 1.25-.56 1.25-1.25V14.67c.18-.89.97-1.56 1.91-1.56 1.08 0 1.95.87 1.95 1.95v5.63c0 .11-.03.21-.03.32v6.56c0 .69.56 1.25 1.25 1.25.56 0 1.02-.38 1.18-.88.07-.15.11-.32.11-.5v-6.75c.15-.92.95-1.63 1.92-1.63 1.06 0 1.92.84 1.95 1.89Zm-35.65 3.73q-.645 0-1.26-.06C4.85 23.98-.01 18.73-.01 12.33S4.85.68 11.07.05q.63-.06 1.26-.06c6.83 0 12.36 5.53 12.36 12.34s-5.53 12.35-12.35 12.35m5.16-7.87-2.88-3.9c1.29-.44 1.94-1.33 1.94-2.76 0-2.44-1.98-3.12-4.57-3.12H8.3v9.78h2.94v-3.53h.38l2.45 3.53h3.42Zm-5.38-7.5h-.87v1.9h.88c.82 0 1.38-.13 1.38-.95s-.57-.95-1.39-.95"/>
</svg>
