<svg viewBox="0 0 48 48" xmlns="http://www.w3.org/2000/svg">
  <path fill="#1e1e1c" d="M41.5 30.77c-.02-.41-.09-.81-.19-1.19v-6.2c.08-.38.14-.76.14-1.17v-6.24c0-2.96-2.41-5.36-5.36-5.36-1.62 0-3.05.74-4.04 1.87a5.33 5.33 0 0 0-4.35-2.25c-1.65 0-3.11.76-4.09 1.94-.98-1.17-2.44-1.94-4.09-1.94-1.05 0-2.03.32-2.86.84V5.35C16.65 2.41 14.24 0 11.29 0S5.93 2.41 5.93 5.36v16.08c0 .19.02.38.05.57v11.63c0 6.95 5.66 12.61 12.61 12.61h9.48c1.61 1.14 3.46 1.75 5.37 1.75 5.47 0 9.93-4.91 9.93-10.94 0-2.27-.65-4.43-1.87-6.3Zm-8.28-14.79a2.86 2.86 0 1 1 5.72 0v6.24a2.86 2.86 0 1 1-5.72 0zm-5.53-3.24a2.86 2.86 0 0 1 2.86 2.86v7c0 1.35-.93 2.47-2.19 2.77h-1.35a2.86 2.86 0 0 1-2.17-2.58c0-.07.02-.13.02-.2v-7c0-.07-.02-.13-.02-.2.1-1.48 1.33-2.66 2.84-2.66Zm-8.18 0c1.51 0 2.74 1.18 2.84 2.66 0 .07-.02.13-.02.2v7c0 .07.02.13.02.2a2.86 2.86 0 0 1-2.17 2.58h-1.35c-1.25-.31-2.19-1.43-2.19-2.77v-7a2.86 2.86 0 0 1 2.86-2.86ZM8.48 33.64V21.95l-.03-.29c-.01-.07-.02-.15-.02-.22V5.36a2.86 2.86 0 1 1 5.72 0V22.6c0 2.53 1.77 4.65 4.13 5.21v1.76c0 3.68 2.75 6.72 6.31 7.18a9.3 9.3 0 0 0-1.88 2.82c-1.38-1.82-3.47-2.98-5.79-2.98a1.25 1.25 0 0 0 0 2.5c2.45 0 4.49 2.01 4.94 4.67h-3.27c-5.57 0-10.11-4.54-10.11-10.11ZM33.44 45.5c-1.49 0-2.94-.51-4.19-1.48l-.34-.26h-4.54s-.01-.08-.02-.12c0-.05.03-.1.03-.16 0-3.44 2.29-6.28 5.22-6.66h3.57a1.25 1.25 0 0 0 0-2.5h-7.65c-2.62 0-4.75-2.13-4.75-4.75v-1.69h15.01c3.13 0 5.07 7.27 5.07 9.19 0 4.65-3.33 8.43-7.43 8.43Z"/>
</svg>
