<svg viewBox="0 0 16 16" xmlns="http://www.w3.org/2000/svg">
  <path fill="#1e1e1c" d="m13.25 8.8-.54.55c-.37.38-2.22 2.34-2.22 3.9S11.72 16 13.24 16s2.75-1.23 2.75-2.75-1.84-3.52-2.21-3.9l-.54-.55Zm0 5.71c-.69 0-1.25-.56-1.25-1.25 0-.55.62-1.5 1.25-2.25.63.76 1.25 1.71 1.25 2.25 0 .69-.56 1.25-1.25 1.25m-2.11-6.52q0-.135-.03-.27c.77 0 1.39-.01 1.88-.03h.76c.1 0 .2-.02.29-.06h.14c1-.02 1.8-.84 1.8-1.84s-.83-1.84-1.85-1.84h-6.1l.82-.78c.38-.34.6-.83.6-1.33S9.23.86 8.85.51C8.09-.17 6.9-.17 6.2.46L1.85 3.59C.32 4.47 0 5.64 0 6.47c0 .55.16 1.08.46 1.55V9.9c0 2.08 1.7 3.78 3.78 3.78h1.2c.34.34.8.55 1.31.55h.5c1.02 0 1.86-.83 1.86-1.85 0-.16-.03-.32-.07-.47.69-.27 1.19-.94 1.19-1.73 0-.19-.04-.37-.09-.55.6-.3 1.01-.92 1.01-1.63Zm-4.37 4.03h.54c.17.03.3.17.3.34 0 .2-.16.36-.36.36h-.5c-.2 0-.36-.16-.36-.36 0-.19.14-.33.33-.35h.05Zm1.96-1.85c0 .2-.16.36-.36.36H7.36s-.08-.01-.12-.01h-.52c-.17-.02-.31-.17-.31-.35s.13-.32.3-.34h1.73c.16.03.29.17.29.34m-.36-1.85H6.7c-.17-.02-.31-.16-.31-.33 0-.19.15-.34.34-.34H9.3c.19 0 .34.15.34.34s-.15.34-.34.34h-.8s-.09-.01-.14-.01ZM1.96 9.9v-.96c.44.13.81.36 1.01.65.07.1.15.25.12.41-.07.41.2.8.61.87.04 0 .09.01.13.01.36 0 .67-.25.74-.62.09-.52-.03-1.05-.37-1.53-.17-.24-.4-.45-.65-.64.24-.28.42-.61.49-1a.75.75 0 0 0-.61-.87c-.4-.07-.8.2-.87.61-.05.3-.37.51-.75.52 0 0 0-.02-.01-.02-.2-.26-.31-.56-.31-.86 0-.63.36-1.15 1.1-1.57.02-.01.12-.07.14-.09l4.43-3.17c.1-.08.23-.13.36-.13s.26.04.36.13c.07.06.11.13.11.21s-.04.15-.12.22L5.66 4.16a.76.76 0 0 0-.18.82c.11.28.39.47.7.47h7.99c.19 0 .35.15.35.34s-.16.35-.35.35h-.07c-.38 0-1.71.03-3.02.04H9.69c-.12-.02-.24-.04-.36-.04H6.76c-1.01 0-1.84.82-1.84 1.84 0 .41.14.79.38 1.1-.22.3-.35.67-.35 1.08s.13.78.36 1.08c-.2.26-.33.58-.36.93h-.66c-1.26 0-2.28-1.02-2.28-2.28Z"/>
</svg>
