<svg viewBox="0 0 32 32" xmlns="http://www.w3.org/2000/svg">
  <path fill="#1e1e1c" d="M9.56 11.31c-.14-.44-.1-.91.12-1.33.22-.41.58-.72 1.02-.85.17-.05.35-.08.52-.08.28 0 .55.07.8.2.41.22.71.58.85 1.02l.98 3.13.58 1.87c-.21.12-.42.25-.61.41-.89.73-1.4 1.74-1.45 2.85-.01.27 0 .54.05.81-.3-.21-.53-.51-.65-.89l-.45-1.44-1.78-5.69Zm-4.48 4.01 1.03 3.28c.14.44.44.81.85 1.02.41.22.88.26 1.32.12s.81-.44 1.02-.85c.05-.1.09-.21.13-.31.03-.09.04-.19.06-.29v-.04c.02-.23 0-.46-.07-.69l-1.2-3.83c-.23-.74-.92-1.22-1.66-1.22a1.75 1.75 0 0 0-1.54.93c-.21.41-.26.88-.12 1.33l.17.55ZM26.58.79c-.94-.2-1.86.4-2.06 1.34l-2.98 12c-.11.45-.51.76-.97.76h-.03c-.47-.01-.87-.35-.96-.81L17.16 1.49A1.716 1.716 0 0 0 15.17.03c-.95.15-1.6 1.03-1.46 1.98l1.41 8.74 1.23 3.94c1.31-.11 2.66.3 3.62 1.24l4.91 4.44V15.8c0-.15 0-.38 3.02-12.96.19-.93-.41-1.85-1.34-2.05ZM24.9 23.08l-.09-.08-6.2-5.6a2 2 0 0 0-.36-.29c-.1-.06-.2-.11-.3-.16-.03-.02-.06-.04-.1-.05-.9-.39-2-.28-2.74.33-.23.19-.41.41-.53.66 0 .01 0 .02-.01.03a1.8 1.8 0 0 0-.18.7c0 .12 0 .24.03.35.06.4.26.78.58 1.08l.8.78 5.37 5.23s.03.05.05.07a.99.99 0 0 1-.75 1.65 1 1 0 0 1-.7-.28l-1.88-1.83c-1.4.08-2.57 2.03-2.57 4.34 0 .04-.02.08-.02.12.02.19.05.39.05.59 0 .04-.02.08-.03.12h2.86c.22 0 .44.07.61.21.8.62 1.73.95 2.68.95 2.64 0 4.78-2.45 4.78-5.45 0-1.19-.36-2.31-1.01-3.27-.13-.04-.25-.11-.36-.2Zm-13.77 3.03c1.02 0 1.94.41 2.68 1.07.51-1.42 1.38-2.52 2.47-3.09l-2.51-2.45c-.1 0-.21.02-.31.02-.59 0-1.19-.14-1.73-.43-.4-.21-.74-.49-1.03-.81-.46.58-1.08 1.01-1.8 1.23-.37.12-.75.17-1.12.17-.6 0-1.19-.14-1.73-.43-.39-.2-.72-.47-1-.78v3.65c0 3.62 2.94 6.57 6.56 6.57h1.78s-.03-.08-.03-.12c0-1.44-1-2.6-2.23-2.6-.55 0-1-.45-1-1s.45-1 1-1"/>
</svg>
