<svg viewBox="0 0 48 48" xmlns="http://www.w3.org/2000/svg">
  <path fill="#1e1e1c" d="M44.76 22.98c-.86-.96-2.01-1.48-3.25-1.48-1.23 0-2.39.53-3.22 1.46l-4.14 4.36V7.52c0-2.51-2.04-4.55-4.55-4.55-.81 0-1.55.23-2.2.61a4.525 4.525 0 0 0-8.95.96v.66c-.62-.31-1.3-.5-2.04-.5a4.58 4.58 0 0 0-4.58 4.58v2.11c-.62-.31-1.31-.5-2.05-.5-2.53 0-4.58 2.05-4.58 4.67l1.61 21.21c0 .09.04.16.07.25.4 5.36 4.88 9.6 10.34 9.6h5.97c1.32.92 2.83 1.4 4.39 1.4 2.22 0 5.38-.88 7.79-5.07l.07-.12 9.37-13.06c1.67-1.92 1.65-4.88-.05-6.78Zm-1.86 5.17s-.06.07-.09.11l-9.38 13.08c-.08.1-.14.21-.23.36-1.46 2.53-3.35 3.82-5.62 3.82-1.14 0-2.26-.39-3.22-1.14-.22-.17-.49-.26-.77-.26h-1.71c.05-.14.09-.28.09-.44 0-.29-.02-.56-.06-.84 0-.03.02-.06.02-.1 0-3.17 1.66-5.85 3.62-5.85a1.25 1.25 0 0 0 0-2.5c-2.47 0-4.54 1.9-5.52 4.71-.97-.91-2.23-1.46-3.6-1.46a1.25 1.25 0 0 0 0 2.5c1.68 0 3.04 1.59 3.04 3.53 0 .16.04.3.09.44h-2.35c-4.35 0-7.88-3.53-7.88-7.87l-.06.02-1.59-20.8a2.078 2.078 0 0 1 4.13-.34v8.94c0 .18.04.35.11.5.16.51.62.89 1.18.89.69 0 1.25-.56 1.25-1.25v-8.74c0-.12-.03-.22-.03-.34V9.27c0-1.15.93-2.08 2.08-2.08 1.01 0 1.85.72 2.04 1.67v15.38c0 .69.56 1.25 1.25 1.25.58 0 1.05-.41 1.19-.94.07-.15.1-.32.1-.49V9.27c0-.14-.03-.27-.04-.41V4.53c0-1.12.91-2.03 2.03-2.03S25 3.41 25 4.53v19.45a1.25 1.25 0 0 0 2.5 0V8.6c0-.36.01-.67.02-.88.01-.07.02-.14.02-.21 0-1.13.92-2.05 2.06-2.05s2.05.92 2.05 2.05v22.94c-.01.51.3.97.78 1.16.47.19 1.02.07 1.37-.3l6.32-6.67c.76-.84 2.01-.84 2.77 0 .85.95.85 2.55 0 3.49Z"/>
</svg>
