<svg viewBox="0 0 64 64" xmlns="http://www.w3.org/2000/svg">
  <path fill="#1e1e1c" d="M16.34 34.49c-.01-.12-.04-.25-.04-.37V22.83c0-1.93 1.57-3.5 3.5-3.5h.11c1.93 0 3.5 1.57 3.5 3.5v11.29c0 .15-.03.3-.04.44-.03.21-.07.42-.14.62v.01c-.06.19-.14.37-.23.55 0 .02-.02.03-.03.05-.09.16-.19.31-.3.46-.02.03-.05.06-.07.09q-.15.195-.33.36l-.15.12c-.11.09-.22.18-.34.25-.08.05-.16.09-.25.13-.1.05-.2.11-.31.16-.12.05-.25.08-.37.12-.08.02-.16.05-.25.07-.22.04-.44.07-.68.07h-.11c-.23 0-.46-.02-.68-.07-.09-.02-.17-.05-.26-.08-.12-.04-.25-.07-.37-.11-.12-.05-.22-.11-.33-.17-.08-.04-.16-.08-.23-.12-.13-.08-.25-.18-.37-.28-.04-.03-.08-.07-.12-.1q-.195-.18-.36-.39c-.02-.02-.03-.04-.05-.06-.12-.16-.22-.33-.32-.5v-.02c-.19-.37-.32-.78-.36-1.22Zm-6.35 3.26h.11c.23 0 .46-.02.68-.07.1-.02.18-.06.28-.08.12-.03.24-.06.36-.11.13-.05.24-.12.36-.19.07-.04.14-.07.21-.11.14-.09.27-.2.4-.31.03-.03.07-.05.1-.08.14-.13.27-.28.39-.44 0 0 .01-.02.02-.03.38-.51.62-1.13.68-1.8 0-.09.03-.19.03-.28v-5.24c0-1.93-1.57-3.5-3.5-3.5H10c-1.93 0-3.5 1.57-3.5 3.5v5.24c0 1.73 1.26 3.16 2.91 3.44.19.04.39.06.59.06Zm49.38-5.43a3.192 3.192 0 0 0-4.8 0l-9.33 9.86a1.381 1.381 0 0 1-2.38-.95l.02-37.73c0-1.94-1.58-3.51-3.51-3.51s-3.51 1.58-3.51 3.51c0 .08 0 .15-.02.23-.03 1.58-.12 7.15-.2 12.61.11.45.17.92.17 1.41v16.54c0 3.43-2.79 6.23-6.23 6.23-1.98 0-3.74-.93-4.88-2.37a6.22 6.22 0 0 1-4.78 2.24h-.11c-1.92 0-3.65-.88-4.79-2.25-1.15 1.45-2.91 2.39-4.9 2.39h-.11c-.37 0-.74-.04-1.1-.1l.03 9.39c0 6.69 5.44 12.13 12.12 12.13h3.81c-.02-3.13-2.24-5.66-4.97-5.66-.76 0-1.38-.62-1.38-1.37s.62-1.37 1.38-1.37c2.17 0 4.13.99 5.53 2.57 1.25-4.37 4.3-7.39 7.95-7.39.76 0 1.38.62 1.38 1.37s-.62 1.37-1.38 1.37c-3.15 0-5.82 4.19-5.82 9.14 0 .08-.01.15-.02.22.05.37.08.74.08 1.12h2.88c.31 0 .6.1.84.29 1.5 1.17 3.24 1.78 5.04 1.78 3.54 0 6.48-1.98 8.72-5.89.13-.22.21-.36.3-.48l13.88-19.38.09-.12c1.43-1.6 1.43-4.2 0-5.81Zm-33.24 2.29q.06.66.36 1.23c.09.18.2.35.32.52.01.02.03.03.04.05.11.14.23.28.37.41.04.03.08.06.11.09.12.1.24.2.38.29.07.05.15.08.22.12.11.06.22.13.34.17.12.05.24.08.36.11.09.03.17.06.27.08.22.04.45.07.68.07 1.92 0 3.48-1.56 3.48-3.48V17.73c0-1.92-1.56-3.48-3.48-3.48s-3.48 1.56-3.48 3.48v16.54c0 .12.02.23.03.34"/>
</svg>
