<svg viewBox="0 0 40 40" xmlns="http://www.w3.org/2000/svg">
  <path fill="#1e1e1c" d="M13.12 19.06c-.03-.17-.05-.33-.05-.51v-6.53c0-1.5 1.22-2.71 2.71-2.71s2.71 1.22 2.71 2.71v6.53c0 .65-.24 1.25-.63 1.71-.02.02-.03.04-.05.06-.08.09-.16.17-.25.25-.03.02-.05.04-.08.06-.09.07-.18.15-.28.21 0 0-.02 0-.03.01-.23.14-.49.25-.76.32-.2.05-.41.08-.63.08-.65 0-1.25-.24-1.72-.63-.04-.03-.08-.07-.12-.1-.07-.06-.13-.13-.19-.2-.05-.05-.1-.11-.14-.17l-.14-.2c-.05-.07-.09-.15-.13-.23-.03-.06-.06-.13-.09-.2q-.06-.15-.09-.3c-.01-.06-.03-.11-.04-.17Zm7.47 12.66a6.724 6.724 0 0 1-5.91-6.67v-1.67c-2.2-.5-3.86-2.47-3.86-4.83V2.66c0-1.49-1.22-2.71-2.71-2.71S5.4 1.17 5.4 2.66v14.81c0 .07.01.14.02.21l.03.26v10.9c0 5.22 4.25 9.47 9.47 9.47h3.1c-.41-2.52-2.34-4.44-4.66-4.44-.62 0-1.12-.5-1.12-1.13s.5-1.13 1.12-1.13c2.18 0 4.12 1.1 5.41 2.81a8.5 8.5 0 0 1 1.83-2.73ZM31.24 20.9c.17 0 .34-.02.5-.05.06-.01.11-.03.17-.04.1-.03.2-.05.29-.09.07-.03.14-.06.2-.09.07-.03.14-.07.2-.11.08-.05.15-.09.22-.15.04-.03.07-.06.1-.09.42-.34.73-.79.88-1.32.07-.25.13-.51.13-.78v-5.82c0-1.5-1.22-2.71-2.71-2.71s-2.71 1.22-2.71 2.71v5.82c0 1.5 1.22 2.71 2.71 2.71Zm-.27 2.53H16.92v1.62c0 2.47 2.01 4.47 4.47 4.47h7.13c.13 0 .25.03.37.07.05.02.09.04.14.06s.09.06.13.09c.12.09.22.19.3.32.11.17.19.37.19.59 0 .62-.5 1.13-1.12 1.13h-3.34c-2.76.35-4.91 3.02-4.91 6.25 0 .05-.02.1-.03.15 0 .05.02.1.02.15h4.25l.3.24c1.17.91 2.53 1.39 3.93 1.39 3.84 0 6.97-3.55 6.97-7.91 0-1.75-.56-8.61-4.77-8.61Zm-9.59-3.11c.08.09.16.17.25.25.02.02.05.04.08.06.09.08.18.15.29.21 0 0 .02 0 .03.01.41.25.88.4 1.4.4.22 0 .43-.03.63-.08.41-.1.77-.29 1.08-.55.04-.03.08-.07.12-.1.07-.06.13-.13.19-.2.05-.05.1-.11.14-.17l.14-.2c.05-.07.09-.15.13-.23.03-.06.06-.13.09-.2q.06-.15.09-.3c.01-.06.03-.11.04-.17.03-.17.05-.33.05-.51v-6.53c0-1.5-1.22-2.71-2.71-2.71s-2.71 1.22-2.71 2.71v6.53c0 .65.24 1.25.63 1.71.02.02.03.04.05.06Z"/>
</svg>
