<svg viewBox="0 0 64 64" xmlns="http://www.w3.org/2000/svg">
  <path d="M0 57.09h35.98v7H0zM35.97 24.9v29.44H0V24.9c0-1.52 1.23-2.75 2.75-2.75h5.23v-5.12c0-.41.13-.8.34-1.12.14-.21.33-.4.54-.54.32-.22.7-.34 1.12-.34h3.52v-4.74H9.98V2.08c0-1.1.9-2 2-2h11.9a2 2 0 0 1 2 2v2.38h19.17l6.51 3.93-1.42 2.35-5.86-3.54H25.87v3.08h-3.38v4.74h3.38a2.05 2.05 0 0 1 1.42.58q.135.135.24.3c.22.32.34.7.34 1.12v5.12h5.36c1.52 0 2.75 1.23 2.75 2.75ZM22.88 38.11h-3.75v-3.75h-2.75v3.75h-3.75v2.75h3.75v3.75h2.75v-3.75h3.75zm41.11.53c0 5.92-4.82 10.74-10.75 10.74s-10.75-4.82-10.75-10.74c0-6.72 9.37-16.38 9.77-16.79l.99-1.01.98 1.01c.4.41 9.77 10.11 9.77 16.79Zm-9.91 3.75c0-.76-.62-1.37-1.37-1.37a2.43 2.43 0 0 1-2.43-2.42c0-.76-.62-1.37-1.37-1.37s-1.37.61-1.37 1.37c0 2.85 2.32 5.17 5.18 5.17.76 0 1.37-.61 1.37-1.37Z"/>
</svg>
