<svg viewBox="0 0 32 32" xmlns="http://www.w3.org/2000/svg">
  <path d="M22.22 18.96c.48.54.48 1.44 0 1.97-.02.03-.05.06-.07.08l-6.01 8.38c-.06.07-.1.15-.16.25-.91 1.58-2.03 2.35-3.43 2.35-.69 0-1.36-.24-1.94-.69a.98.98 0 0 0-.61-.21H5.91c-2.01 0-3.74-1.23-4.47-2.98L0 14.12c.02-.6.52-1.09 1.13-1.09s1.06.45 1.11 1.02v4.4c0 .14.03.28.09.4.13.4.49.69.94.69.55 0 1-.45 1-1v-4.37c0-.08-.02-.15-.02-.22v-3.74c0-.62.51-1.13 1.14-1.13.58 0 1.04.44 1.11 1v8.5c0 .55.45 1 1 1 .46 0 .82-.31.94-.73.05-.12.08-.25.08-.39v-8.25c0-.09-.02-.17-.03-.26V7.18c0-.61.5-1.1 1.1-1.1s1.1.49 1.1 1.1v11.23c0 .55.45 1 1 1s1-.45 1-1V9.26c0-.06.01-.11.01-.17 0-.62.5-1.12 1.12-1.12.27 0 .51.11.7.27 0 .95.15 1.88.42 2.74v11.58c0 .41.24.78.62.93s.81.06 1.1-.24l4.05-4.28c.41-.46 1.07-.45 1.48 0Zm9.79-10.74a8.23 8.23 0 0 1-16.46.01c0-4.55 3.68-8.23 8.23-8.23 1.99 0 3.81.71 5.23 1.88A8.2 8.2 0 0 1 32 8.23Zm-9.92 2.99h4.71V9.56h-2.74V4.69h-1.97v6.53Z"/>
</svg>
