<svg viewBox="0 0 40 40" xmlns="http://www.w3.org/2000/svg">
  <path d="M23.78 3.86s.06.05.1.08l12.21 8.76c.09.07.19.13.33.21C38.8 14.28 40 16.06 40 18.2c0 1.08-.37 2.13-1.07 3.03-.15.2-.24.44-.24.69v1.59s-.08-.03-.13-.03q-.405 0-.78.06c-.03 0-.06-.02-.09-.02-2.98 0-5.51-1.57-5.51-3.42 0-.62-.5-1.12-1.12-1.12s-1.12.5-1.12 1.12c0 2.3 1.79 4.24 4.43 5.13-.87.9-1.4 2.08-1.4 3.38 0 .62.5 1.12 1.12 1.12s1.12-.5 1.12-1.12c0-1.59 1.5-2.89 3.34-2.89.05 0 .08-.02.13-.03v2.18c0 4.08-3.31 7.4-7.39 7.4h-2L12.11 36.8c-1.09 0-1.98-.89-1.98-1.99s.89-1.99 1.98-1.99h7.95s.07-.01.11-.02c.5-.11.88-.54.88-1.07 0-.62-.5-1.12-1.12-1.12H6.35c-1.09 0-1.98-.89-1.98-1.99s.89-1.99 1.98-1.99h13.59v.04h.17c.62 0 1.12-.5 1.12-1.12 0-.52-.37-.94-.85-1.07-.1-.04-.21-.05-.31-.07s-18.14.01-18.14.01c-1.07 0-1.94-.87-1.94-1.94s.87-1.94 1.94-1.94h17.94c.62 0 1.12-.5 1.12-1.12s-.5-1.12-1.12-1.12H5.72c-.34 0-.63-.01-.82-.02-.06-.01-.13-.02-.19-.02-1.08 0-1.96-.88-1.96-1.96s.88-1.96 1.96-1.96h21.2c.46 0 .87-.27 1.04-.7s.06-.91-.27-1.23l-6.22-5.89c-.81-.72-.8-1.93 0-2.65.9-.81 2.42-.81 3.32 0Z"/>
</svg>
