<svg viewBox="0 0 16 16" xmlns="http://www.w3.org/2000/svg">
  <path d="M15.97 11.08a.756.756 0 0 0-.93-.53l-.68.18-1.4-5.16-2.35.63L9.2 1.04 4.01 2.43l-.11-.41L1.19.14A.755.755 0 0 0 .14.33c-.24.34-.16.8.18 1.04l2.26 1.58 1.77 6.49.44 1.63c.37-.31.79-.56 1.28-.68.03 0 .07 0 .1-.02l-.36-1.32.89-.24.4 1.48c.63.04 1.23.26 1.74.62l-.68-2.49 1.14-.31.34 1.22 1.45-.38-.35-1.23 1.14-.31 1.01 3.7-3.12.84c.12.22.22.45.29.7s.1.5.1.75l5.26-1.41c.4-.11.64-.52.53-.92ZM4.41 3.89l1.14-.31.34 1.22 1.45-.38-.35-1.23 1.14-.31 1.01 3.7-3.73 1-1.01-3.7Zm2.51 7.13q-.33 0-.66.09a2.495 2.495 0 0 0-1.77 3.06 2.51 2.51 0 0 0 3.08 1.75 2.495 2.495 0 0 0 1.77-3.06 2.51 2.51 0 0 0-2.42-1.84m.87 2.99a1 1 0 0 1-.6.46c-.09.02-.17.03-.26.03-.45 0-.84-.3-.96-.73a.99.99 0 0 1 .7-1.21c.09-.02.17-.03.26-.03.45 0 .84.3.96.73.07.26.03.52-.1.75"/>
</svg>
