<svg viewBox="0 0 64 64" xmlns="http://www.w3.org/2000/svg">
  <path fill="#1e1e1c" d="M59.46 31.11c-1.09-1.21-2.55-1.88-4.11-1.88s-3.02.67-4.09 1.85l-6.02 6.35V9.7c.01-3.18-2.58-5.78-5.77-5.78-1.17 0-2.25.35-3.15.95-.42-2.76-2.81-4.88-5.68-4.88-3.17 0-5.75 2.58-5.75 5.75v1.35c-.88-.54-1.91-.85-3.01-.85-3.21 0-5.82 2.61-5.82 5.81v3.29c-.88-.54-1.92-.86-3.02-.86-3.21 0-5.82 2.61-5.82 5.81l2.15 28.97c0 .12.05.22.09.33.52 6.99 6.37 12.53 13.5 12.53h8.05c1.73 1.23 3.71 1.87 5.76 1.87 2.89 0 6.99-1.15 10.13-6.61.04-.07.07-.13.1-.17 0 0 0-.01.01-.02l12.5-17.42c2.11-2.41 2.09-6.28-.05-8.66m-2.05 6.88s-.07.08-.09.12L44.81 55.56c-.09.12-.17.25-.28.45-2 3.47-4.61 5.23-7.75 5.23-1.59 0-3.14-.55-4.47-1.58-.24-.19-.54-.29-.84-.29h-2.49c.02-.1.04-.21.04-.31 0-.36-.03-.71-.07-1.06 0-.06.02-.13.02-.19 0-4.39 2.34-8.09 5.11-8.09.76 0 1.38-.62 1.38-1.38s-.62-1.38-1.38-1.38c-3.29 0-6.04 2.65-7.23 6.52-1.28-1.35-3.01-2.18-4.93-2.18-.76 0-1.38.62-1.38 1.38s.62 1.38 1.38 1.38c2.4 0 4.35 2.24 4.35 5 0 .11.02.21.04.31h-3.34c-5.95 0-10.8-4.84-10.8-10.79l-.08.03-2.11-28.37a3.065 3.065 0 0 1 3.07-3.01c1.54 0 2.81 1.14 3.02 2.62v12.51c0 .14.03.28.07.4.11.65.67 1.15 1.35 1.15.76 0 1.38-.62 1.38-1.38V20.28c0-.23-.02-.46-.04-.69v-7.56c0-1.69 1.38-3.06 3.07-3.06 1.51 0 2.76 1.09 3.01 2.52v21.1c0 .76.62 1.38 1.38 1.38.7 0 1.27-.53 1.36-1.21.04-.13.07-.27.07-.42v-20.3c0-.26-.02-.51-.05-.75V5.73a3 3 0 0 1 6 0v26.52c0 .76.62 1.38 1.38 1.38s1.38-.62 1.38-1.38V11.2c.01-.53.02-.97.03-1.26.01-.08.02-.16.02-.24 0-1.67 1.36-3.03 3.03-3.03s3.03 1.36 3.03 3.02v31.18c-.01.56.33 1.07.85 1.28s1.12.08 1.51-.33l8.42-8.88a2.743 2.743 0 0 1 4.13 0c1.23 1.37 1.23 3.68 0 5.04Z"/>
</svg>
