<svg viewBox="0 0 32 32" xmlns="http://www.w3.org/2000/svg">
  <path fill="#1e1e1c" d="M27.81 20.28c-.02-.24-.05-.48-.11-.71l.09-9.09c0-2.06-1.68-3.74-3.74-3.74-1.06 0-2.01.45-2.69 1.16-.69-.85-1.72-1.41-2.9-1.41-1.08 0-2.04.47-2.73 1.2A3.73 3.73 0 0 0 13 6.49c-.63 0-1.22.17-1.74.45v-3.2a3.74 3.74 0 0 0-7.48 0v10.39c0 .13.01.25.03.41v7.72c0 4.73 3.84 8.57 8.57 8.57h6.27c1.09.76 2.34 1.16 3.63 1.16 3.74 0 6.79-3.35 6.79-7.46 0-1.54-.44-2.99-1.26-4.26Zm-5.5-9.8a1.741 1.741 0 0 1 3.48 0v4.16a1.741 1.741 0 0 1-3.48 0zm-3.85-1.99c.96 0 1.74.78 1.74 1.74v4.67c0 .81-.56 1.49-1.32 1.68h-.85a1.74 1.74 0 0 1-1.3-1.55c0-.05.01-.09.01-.14v-4.67s-.01-.09-.01-.14c.07-.9.81-1.61 1.73-1.61Zm-5.46 0c.91 0 1.66.71 1.73 1.61 0 .05-.01.09-.01.14v4.67s.01.09.01.14a1.74 1.74 0 0 1-1.3 1.55h-.85c-.75-.19-1.32-.87-1.32-1.68v-4.67c0-.96.78-1.74 1.74-1.74ZM5.82 22.26v-7.79l-.02-.21s-.02-.09-.02-.14V3.74a1.741 1.741 0 0 1 3.48 0V14.9c0 1.72 1.17 3.16 2.75 3.59v2.07c0 2.18 1.76 3.96 3.94 3.98-.34.41-.63.86-.87 1.36-.95-1.13-2.31-1.84-3.82-1.84-.55 0-1 .45-1 1s.45 1 1 1c.39 0 .77.09 1.12.24l1.84 2.05c.05.15.09.32.13.48h-1.97c-3.62 0-6.57-2.95-6.57-6.57Zm16.47 7.73c-.96 0-1.89-.33-2.69-.95l-.27-.21h-2.91v-.02c0-2.27 1.55-4.12 3.5-4.27h2.19c.55 0 1-.45 1-1s-.45-1-1-1h-6.12c-1.09 0-1.98-.89-1.98-1.98v-1.98h9.84c2.12 0 3.21 4.76 3.21 5.96 0 3.01-2.15 5.46-4.79 5.46Z"/>
</svg>
