<svg viewBox="0 0 16 16" xmlns="http://www.w3.org/2000/svg">
  <path fill="#1e1e1c" d="M4.43 5.23a.926.926 0 0 1 .89-1.2c.15 0 .29.04.43.11.22.11.38.31.45.54l.51 1.61.31 1c-.11.06-.22.13-.33.22-.46.38-.72.9-.75 1.47 0 .15 0 .3.04.45a.95.95 0 0 1-.39-.49zM2.11 7.36l.52 1.66c.15.49.67.75 1.16.61.24-.07.43-.24.54-.45s.14-.47.06-.7l-.62-1.99s-.04-.09-.07-.13a.92.92 0 0 0-.81-.51.926.926 0 0 0-.88 1.2l.1.33Zm3.15 5.58c.54 0 1.03.22 1.41.58.26-.76.73-1.34 1.31-1.64l-1.35-1.31c-.05 0-.11.02-.16.02-.31 0-.61-.07-.89-.22-.21-.11-.4-.26-.55-.44-.24.31-.56.53-.94.65q-.285.09-.57.09c-.56 0-1.08-.26-1.45-.68v1.97c0 1.89 1.54 3.43 3.44 3.43h.95s-.02-.05-.02-.08c0-.76-.53-1.37-1.18-1.37-.28 0-.5-.22-.5-.5s.22-.5.5-.5M13 .68c-.49-.1-.99.21-1.1.71l-1.25 5.29c-.05.23-.28.41-.5.38-.24 0-.44-.17-.48-.41L8.56.79a.9.9 0 0 0-.37-.62c-.2-.15-.44-.2-.69-.17-.25.04-.46.17-.61.37s-.21.44-.17.69l.6 3.91L7.96 7c.68-.06 1.39.15 1.88.64l2.59 2.34V7.55c0-.07 0-.19 1.27-5.78.1-.5-.22-.99-.71-1.09Zm-.29 10.9-.08-.08-3.46-3.13c-.12-.12-.26-.21-.41-.27s-.31-.1-.48-.11c-.34-.02-.69.07-.96.29-.09.07-.14.16-.2.24-.1.15-.18.31-.18.49a1.05 1.05 0 0 0 .32.76l.4.39 2.81 2.74c.2.19.2.51 0 .71a.51.51 0 0 1-.71.01l-.98-.96c-.74.04-1.36 1.06-1.36 2.28 0 .02 0 .04-.01.06.01.1.03.2.03.31 0 .03-.01.06-.02.08h1.51c.11 0 .22.04.31.11.42.33.91.5 1.41.5 1.38 0 2.51-1.28 2.51-2.85 0-.56-.15-1.09-.43-1.56h-.02Z"/>
</svg>
