<svg viewBox="0 0 32 32" xmlns="http://www.w3.org/2000/svg">
  <path d="M18.21 26.15c.32 1.2.16 2.45-.46 3.52a4.67 4.67 0 0 1-2.81 2.17 4.633 4.633 0 0 1-5.69-3.27c-.32-1.2-.16-2.45.46-3.52a4.67 4.67 0 0 1 2.81-2.17c.4-.11.81-.16 1.22-.16 1.18 0 2.28.47 3.11 1.23.05.04.1.08.14.13.09.09.18.19.26.29.07.08.14.17.2.26s.13.17.18.27c.08.12.15.25.21.37.04.08.08.15.12.23.1.21.18.43.24.67Zm13.07-2.97-3.06.84v.03l-7.95 2.15c-.03-.19-.07-.39-.13-.58-.07-.27-.17-.52-.28-.78-.08-.18-.16-.35-.25-.53a6.63 6.63 0 0 0-5.35-3.56l-1.47-5.45-2.34.63 1.37 5.06c-.67.2-1.28.5-1.83.88L5.57 5.55.43 1.81A.996.996 0 0 1 .21.41c.33-.45.95-.54 1.4-.22l5.08 3.7 3.39-.92 1.03 3.46 2.65-.69-1.04-3.48L17.49.97l3.26 12.04 4.2-1.13 2.76 10.22 3.05-.84c.53-.14 1.08.17 1.23.7s-.17 1.08-.7 1.23Zm-10.06-6.41-1.03-3.46-2.65.72 1.03 3.44 2.65-.69Z"/>
</svg>
