<svg viewBox="0 0 40 40" xmlns="http://www.w3.org/2000/svg">
  <path fill="#1e1e1c" d="M37.49 23.81s-.05.06-.08.1l-8.76 12.21c-.07.09-.13.19-.21.33-1.37 2.38-3.15 3.58-5.29 3.58-1.08 0-2.13-.37-3.03-1.07-.2-.15-.44-.24-.69-.24h-1.59s.03-.08.03-.13q0-.405-.06-.78c0-.03.02-.06.02-.09 0-2.98 1.57-5.51 3.42-5.51.62 0 1.12-.5 1.12-1.12s-.5-1.12-1.12-1.12c-2.3 0-4.24 1.79-5.13 4.43-.9-.87-2.08-1.4-3.38-1.4-.62 0-1.12.5-1.12 1.12s.5 1.12 1.12 1.12c1.59 0 2.89 1.5 2.89 3.34 0 .05.02.08.03.13h-2.18c-4.08 0-7.4-3.31-7.4-7.39v-2L4.55 12.14c0-1.09.89-1.98 1.99-1.98s1.99.89 1.99 1.98v7.95s.01.07.02.11c.11.5.54.88 1.07.88.62 0 1.12-.5 1.12-1.12V6.38c0-1.09.89-1.98 1.99-1.98s1.99.89 1.99 1.98v13.59h-.04v.17c0 .62.5 1.12 1.12 1.12.52 0 .94-.37 1.07-.85.04-.1.05-.21.07-.31h-.01V1.96c0-1.07.87-1.94 1.94-1.94s1.94.87 1.94 1.94V19.9c0 .62.5 1.12 1.12 1.12s1.12-.5 1.12-1.12V5.75c0-.34.01-.63.02-.82.01-.06.02-.13.02-.19 0-1.08.88-1.96 1.96-1.96s1.96.88 1.96 1.96v21.2c0 .46.27.87.7 1.04s.91.06 1.23-.27l5.89-6.22c.72-.81 1.93-.8 2.65 0 .81.9.81 2.42 0 3.32Z"/>
</svg>
