<svg viewBox="0 0 32 32" xmlns="http://www.w3.org/2000/svg">
  <path fill="#1e1e1c" d="m27 18.78-.54.55c-.46.47-4.45 4.64-4.45 7.69 0 2.75 2.24 4.99 4.99 4.99s4.99-2.24 4.99-4.99c0-3.02-4-7.21-4.45-7.68l-.54-.55Zm-.14 11.4c-1.54 0-2.79-1.25-2.79-2.79 0-.48.39-.87.88-.87s.88.39.88.87c0 .57.47 1.04 1.04 1.04.48 0 .88.39.88.87s-.39.87-.88.87Zm-8.66-3.84c0 .87-.71 1.58-1.58 1.58h-2.73c-.87 0-1.58-.71-1.58-1.58v-.03c0-.11.01-.21.03-.31 0-.05.03-.09.04-.13.02-.05.03-.11.05-.15.03-.06.06-.12.09-.17.02-.03.03-.06.05-.09.05-.07.1-.13.15-.19 0-.01.02-.02.03-.03.07-.07.14-.13.21-.19.24-.17.52-.28.83-.3s.06 0 .09 0h2.73c.87 0 1.58.71 1.58 1.6Zm3.26-5.16c0 .87-.71 1.58-1.58 1.58h-5.91c-.26 0-.5-.07-.72-.18-.08-.04-.16-.09-.23-.14 0 0-.02-.01-.03-.02-.06-.05-.12-.1-.18-.16-.02-.02-.03-.04-.04-.05-.05-.05-.09-.11-.13-.17-.02-.03-.04-.07-.06-.1-.03-.05-.06-.1-.08-.15a1 1 0 0 1-.05-.16c-.01-.04-.03-.08-.03-.12-.02-.1-.03-.2-.03-.31v-.03c0-.19.04-.37.1-.54 0-.01 0-.03.01-.04.07-.16.16-.31.27-.44 0 0 .02-.02.02-.03q.18-.195.42-.33h.01c.22-.12.47-.19.74-.19h5.91c.87 0 1.58.71 1.58 1.6Zm1.11-6.68c.86 0 1.55.7 1.55 1.55s-.7 1.55-1.55 1.55h-8.7s-.07 0-.11-.01a1.54 1.54 0 0 1-1.01-.48.1.1 0 0 1-.03-.04c-.05-.06-.1-.12-.14-.18-.02-.03-.03-.06-.05-.09-.03-.05-.06-.11-.09-.16-.02-.05-.03-.11-.05-.16-.01-.04-.03-.08-.04-.12a1.55 1.55 0 0 1 1.52-1.86zM10.31 26.31v.03c0 .07.02.14.02.21H7.19c-3.37-.01-6.1-2.75-6.1-6.11V18.6c1.46.05 2.63 1.07 2.63 2.33 0 .55.45 1 1 1s1-.45 1-1c0-1.06-.44-2.03-1.13-2.78 2.19-.76 3.67-2.38 3.67-4.31 0-.55-.45-1-1-1s-1 .45-1 1c0 1.51-2.08 2.78-4.53 2.78-.04 0-.08.02-.12.03-.17-.02-.33-.04-.51-.05v-1.12c0-.22-.07-.44-.21-.61C.3 14.12 0 13.26 0 12.38c0-1.76.99-3.22 2.96-4.35.12-.07.21-.12.28-.18L13.43.56s.06-.04.09-.07c.73-.65 1.96-.65 2.69 0 .32.29.5.66.5 1.06s-.18.77-.52 1.07l-5.17 4.9a1.003 1.003 0 0 0 .69 1.73h18.73a1.564 1.564 0 1 1 0 3.13s-.09 0-.13 0c-.97.02-4.68.08-7.95.12h-8.48a3.56 3.56 0 0 0-3.56 3.55c0 1.01.43 1.93 1.12 2.57-.65.65-1.05 1.54-1.05 2.52v.03c0 .99.41 1.89 1.06 2.53-.69.65-1.13 1.57-1.13 2.59Z"/>
</svg>
