<svg viewBox="0 0 64 64" xmlns="http://www.w3.org/2000/svg">
  <path d="m38.61 6.57.12.09 19.01 13.63c.12.09.26.17.48.3 3.82 2.2 5.76 5.08 5.76 8.55 0 1.76-.6 3.47-1.75 4.94-.19.24-.29.54-.29.84v2.81h-.08c-.39 0-.77.03-1.14.08-.07-.01-.14-.02-.22-.02-4.85 0-8.94-2.61-8.94-5.69 0-.76-.62-1.38-1.38-1.38s-1.38.62-1.38 1.38c0 3.59 2.95 6.58 7.23 7.82-1.54 1.38-2.49 3.3-2.49 5.42 0 .76.62 1.38 1.38 1.38s1.38-.62 1.38-1.38c0-2.68 2.5-4.86 5.57-4.86h.08v3.73c0 6.55-5.32 11.89-11.87 11.89l-30.87 2.39c-1.89-.03-3.41-1.57-3.41-3.47s1.55-3.47 3.46-3.47H32.6c.1 0 .2-.02.29-.05.52-.2.88-.69.88-1.28 0-.76-.62-1.38-1.38-1.38H10.26c-1.91 0-3.46-1.55-3.46-3.47s1.55-3.47 3.46-3.47l22.11.05h.28c.76 0 1.38-.62 1.38-1.38 0-.71-.54-1.28-1.22-1.36a1.5 1.5 0 0 0-.43-.07h-.81l-28.19.06a3.39 3.39 0 0 1 0-6.78h28.95c.73-.03 1.32-.63 1.32-1.37s-.62-1.38-1.38-1.38H9.38c-.6-.01-1.1-.02-1.42-.03-.08-.02-.17-.02-.25-.02-1.88 0-3.42-1.54-3.42-3.43s1.53-3.43 3.42-3.43l33.96.02c.56 0 1.07-.34 1.28-.87.21-.52.08-1.12-.33-1.51l-9.67-9.17a3.118 3.118 0 0 1 0-4.68c1.56-1.4 4.1-1.4 5.66 0Z"/>
</svg>
