<svg viewBox="0 0 32 32" xmlns="http://www.w3.org/2000/svg">
  <path fill="#1e1e1c" d="M26.67 27.04c.55 0 1 .45 1 1s-.45 1-1 1c-1.59 0-2.89-1.3-2.89-2.89 0-.55.45-1 1-1s1 .45 1 1c0 .49.4.9.89.9Zm5.31-.5c0 3.01-2.45 5.46-5.46 5.46s-5.46-2.45-5.46-5.46c0-3.29 4.26-7.75 4.74-8.24l.72-.73.71.74c.49.5 4.74 4.98 4.74 8.24Zm-2 0c0-1.59-1.9-4.29-3.46-6.07-1.56 1.77-3.46 4.46-3.46 6.07 0 1.91 1.55 3.47 3.46 3.47s3.46-1.55 3.46-3.47m-10.7-7.89c.19.41.31.87.31 1.35 0 1.6-1.08 2.88-2.52 3.2.16.38.25.81.25 1.25 0 1.84-1.43 3.27-3.19 3.27h-1.09c-.95 0-1.8-.43-2.38-1.09H8.03A7.136 7.136 0 0 1 .92 19.5v-3.95c-.61-.91-.94-1.94-.94-3 0-1.53.6-3.71 3.48-5.36L12.28.87C13.63-.3 15.7-.28 17.03.91c.68.61 1.05 1.42 1.05 2.3s-.37 1.69-1.05 2.3l-2.61 2.48h13.61c1.77 0 3.21 1.44 3.21 3.21s-1.39 3.16-3.12 3.21-.06 0-.09 0c-.06 0-.12 0-.18-.02-1.07.13-3.04.17-6.6.18.11.33.19.67.19 1.04a3.2 3.2 0 0 1-2.16 3.04m-9.42 5.97s-.01-.07-.01-.1v-.08c0-.86.35-1.64.9-2.21-.52-.57-.85-1.32-.85-2.15V20c0-.83.32-1.58.84-2.15-.55-.57-.89-1.35-.89-2.2v-.04c0-1.75 1.42-3.18 3.18-3.18h14.04c.37 0 .66-.01.84-.01h.12c.67 0 1.22-.55 1.22-1.22s-.55-1.22-1.22-1.22H11.91a.99.99 0 0 1-.93-.62c-.15-.38-.06-.81.24-1.1l4.45-4.22c.27-.24.4-.53.4-.83s-.14-.59-.38-.81c-.58-.52-1.55-.52-2.13 0-.03.02-.06.05-.08.07L4.71 8.76c-.07.06-.15.1-.26.16-1.67.96-2.48 2.15-2.48 3.63 0 .73.25 1.44.73 2.06.06.08.1.16.14.25.53.05 1.06-.05 1.48-.31.45-.28.74-.69.83-1.16a1 1 0 1 1 1.97.35c-.15.85-.6 1.59-1.27 2.15 1.68 1.02 2.63 2.62 2.34 4.25-.09.48-.51.82-.98.82-.06 0-.12 0-.18-.02-.54-.1-.91-.62-.81-1.16.21-1.19-1.33-2.54-3.31-2.89v2.61c0 2.82 2.3 5.12 5.12 5.12zm4.28 1.1c.66 0 1.2-.54 1.2-1.2 0-.69-.48-1.19-1.09-1.25H13.1s-.07 0-.11-.01c-.63.03-1.14.54-1.14 1.18v.08c0 .66.54 1.2 1.19 1.2h1.09Zm3.46-5.64c0-.69-.47-1.18-1.07-1.25h-3.54c-.61.06-1.09.55-1.09 1.17v.08c0 .63.49 1.13 1.1 1.18h1.13c.08 0 .15.02.22.02h2.04c.66 0 1.19-.54 1.19-1.2Zm1.85-4.43c0-.69-.53-1.22-1.18-1.22h-5.24c-.65 0-1.18.53-1.18 1.18v.04c0 .63.49 1.13 1.11 1.17.04 0 .09-.01.13-.01h3.31c.09 0 .17.02.26.03h1.61c.65 0 1.18-.53 1.18-1.18Z"/>
</svg>
