<svg viewBox="0 0 64 64" xmlns="http://www.w3.org/2000/svg">
  <path d="m54.22 21.85-.98-1.01-.99 1.01c-.4.41-9.77 10.07-9.77 16.79 0 5.92 4.82 10.74 10.75 10.74s10.75-4.82 10.75-10.74c0-6.67-9.37-16.38-9.77-16.79Zm-.98 24.78c-4.41 0-8-3.59-8-7.99 0-4.13 5.1-10.62 8-13.82 2.9 3.21 8 9.72 8 13.82 0 4.41-3.59 7.99-8 7.99M33.22 22.14h-5.36v-5.12c0-1.1-.9-2-2-2h-3.38v-4.74h3.38V7.2h18.41l5.86 3.54 1.42-2.35-6.51-3.93H25.87V2.08c0-1.1-.9-2-2-2h-11.9a2 2 0 0 0-2 2v8.21h3.52v4.74H9.97a2 2 0 0 0-2 2v5.12H2.74A2.725 2.725 0 0 0 0 24.89v39.18h35.98V24.89c0-1.52-1.23-2.75-2.75-2.75Zm-20.5-14.6V2.82h10.4v4.72h-.63l-9-.01zm7.01 2.75v4.67h-3.5v-4.67zm-9.01 7.48h14.4v4.33h-14.4zm22.5 7.12v29.94H2.74V24.89zM2.74 61.33v-3.75h30.48v3.75zm9.88-23.22h3.75v-3.75h2.75v3.75h3.75v2.75h-3.75v3.75h-2.75v-3.75h-3.75zm41.46 4.28c0 .76-.62 1.37-1.37 1.37-2.86 0-5.18-2.32-5.18-5.17 0-.76.62-1.37 1.37-1.37s1.37.61 1.37 1.37c0 1.34 1.09 2.42 2.43 2.42.76 0 1.37.61 1.37 1.37Z"/>
</svg>
