<svg viewBox="0 0 24 24" xmlns="http://www.w3.org/2000/svg">
  <path fill="#1e1e1c" d="M22.99.04h-22C.44.04 0 .48 0 1.03v5.42c0 .55.45 1 1 1h22c.55 0 1-.45 1-1V1.03c0-.55-.45-1-1-1ZM3.8 4.62H2.01V2.87H3.8zm3.32 0H5.33V2.87h1.79zm14.66 0h-8.43a.87.87 0 0 1 0-1.74h8.43a.87.87 0 0 1 0 1.74m1.21 3.71h-22c-.55 0-1 .45-1 1v5.42c0 .55.45 1 1 1h22c.55 0 1-.45 1-1V9.33c0-.55-.45-1-1-1M3.8 12.87H2.01v-1.75H3.8zm3.32 0H5.33v-1.75h1.79zm14.66 0h-8.43a.87.87 0 0 1 0-1.74h8.43a.87.87 0 0 1 0 1.74m1.21 3.75h-22c-.55 0-1 .45-1 1v5.42c0 .55.45 1 1 1h22c.55 0 1-.45 1-1v-5.42c0-.55-.45-1-1-1M3.8 21.13H2.01v-1.75H3.8zm3.32 0H5.33v-1.75h1.79zm14.66 0h-8.43a.87.87 0 0 1 0-1.74h8.43a.87.87 0 0 1 0 1.74"/>
</svg>
