<svg viewBox="0 0 40 40" xmlns="http://www.w3.org/2000/svg">
  <path fill="#1e1e1c" d="M40.02 3.21c0-1.72-1.4-3.11-3.12-3.11H3.14C1.42.1.02 1.5.02 3.21v8.6c0 .76.29 1.45.74 1.99-.46.54-.74 1.23-.74 1.99v8.6c0 .76.29 1.45.74 1.99-.46.54-.74 1.23-.74 1.99v8.6c0 1.72 1.4 3.11 3.12 3.11h33.75c1.72 0 3.12-1.4 3.12-3.11v-8.6c0-.76-.29-1.45-.74-1.99.46-.54.74-1.23.74-1.99v-8.6c0-.76-.29-1.45-.74-1.99.46-.54.74-1.23.74-1.99v-8.6Zm-37.75 0c0-.48.39-.87.87-.87h33.75c.48 0 .87.39.87.87v8.6c0 .48-.39.87-.87.87H3.14a.87.87 0 0 1-.87-.87zm35.5 12.59v8.6c0 .48-.39.87-.87.87H3.14a.87.87 0 0 1-.87-.87v-8.6c0-.48.39-.87.87-.87h33.75c.48 0 .87.39.87.87Zm0 21.19c0 .48-.39.87-.87.87H3.14a.87.87 0 0 1-.87-.87v-8.6c0-.48.39-.87.87-.87h33.75c.48 0 .87.39.87.87v8.6ZM18.66 7.52c0-.62.5-1.12 1.12-1.12h14.34c.62 0 1.12.5 1.12 1.12s-.5 1.12-1.12 1.12H19.78c-.62 0-1.12-.5-1.12-1.12m-7.1 1.12H9.31V6.4h2.25zm-4.12 0H5.19V6.4h2.25zm11.22 11.4c0-.62.5-1.12 1.12-1.12h14.34c.62 0 1.12.5 1.12 1.12s-.5 1.12-1.12 1.12H19.78c-.62 0-1.12-.5-1.12-1.12m-7.1 1.12H9.31v-2.24h2.25zm-4.12 0H5.19v-2.24h2.25zm27.81 11.4c0 .62-.5 1.12-1.12 1.12H19.79c-.62 0-1.12-.5-1.12-1.12s.5-1.12 1.12-1.12h14.34c.62 0 1.12.5 1.12 1.12M9.31 31.44h2.25v2.24H9.31zm6.24-22.8H13.3V6.4h2.25zm0 12.52H13.3v-2.24h2.25zM13.3 31.44h2.25v2.24H13.3zm-8.11 0h2.25v2.24H5.19z"/>
</svg>
