<svg viewBox="0 0 48 48" xmlns="http://www.w3.org/2000/svg">
  <path fill="#1e1e1c" d="M48.02 3.36c0-1.78-1.46-3.24-3.25-3.24H3.27C1.48.13.02 1.58.02 3.36v11.19c0 .75.27 1.44.71 1.99a3.18 3.18 0 0 0-.71 1.99v11.19c0 .75.27 1.44.71 1.99a3.18 3.18 0 0 0-.71 1.99v11.19c0 1.78 1.46 3.24 3.25 3.24h41.5c1.79 0 3.25-1.45 3.25-3.24V33.7c0-.75-.27-1.44-.71-1.99.44-.55.71-1.24.71-1.99V18.53c0-.75-.27-1.44-.71-1.99.44-.55.71-1.24.71-1.99zm-45.5 0c0-.41.34-.75.75-.75h41.5c.41 0 .75.34.75.75v11.19c0 .41-.34.75-.75.75H3.27c-.41 0-.75-.34-.75-.75zm43.01 15.17v11.19c0 .41-.34.75-.75.75H3.27c-.41 0-.75-.34-.75-.75V18.53c0-.41.34-.75.75-.75h41.5c.41 0 .75.34.75.75Zm0 26.36c0 .41-.34.75-.75.75H3.27c-.41 0-.75-.34-.75-.75V33.7c0-.41.34-.75.75-.75h41.5c.41 0 .75.34.75.75v11.19ZM22.49 8.96c0-.69.56-1.24 1.25-1.24h17.29c.69 0 1.25.56 1.25 1.24s-.56 1.24-1.25 1.24H23.74c-.69 0-1.25-.56-1.25-1.24m-8.77 1.24h-2.5V7.71h2.5zm-4.96 0h-2.5V7.71h2.5zm13.73 13.85c0-.69.56-1.24 1.25-1.24h17.29c.69 0 1.25.56 1.25 1.24s-.56 1.24-1.25 1.24H23.74c-.69 0-1.25-.56-1.25-1.24m-8.77 1.25h-2.5v-2.49h2.5zm-4.96 0h-2.5v-2.49h2.5zm33.52 13.85c0 .69-.56 1.24-1.25 1.24H23.74c-.69 0-1.25-.56-1.25-1.24s.56-1.24 1.25-1.24h17.29c.69 0 1.25.56 1.25 1.24M11.22 37.9h2.5v2.49h-2.5zm7.31-27.7h-2.5V7.71h2.5zm0 15.1h-2.5v-2.49h2.5zm-2.5 12.6h2.5v2.49h-2.5zm-9.77 0h2.5v2.49h-2.5z"/>
</svg>
