<svg viewBox="0 0 32 32" xmlns="http://www.w3.org/2000/svg">
  <path fill="#1e1e1c" d="M30.49.05H1.48C.66.05-.01.72-.01 1.54v7c0 .83.67 1.5 1.5 1.5h29c.83 0 1.5-.67 1.5-1.5v-7c0-.83-.67-1.5-1.5-1.5ZM4.63 6.04h-2V4.05h2zm3.76 0h-2V4.05h2zm3.66 0h-2V4.05h2zm17.11 0H17.8c-.55 0-1-.45-1-1s.45-1 1-1h11.36c.55 0 1 .45 1 1s-.45 1-1 1m1.33 5.01H1.48c-.82 0-1.49.67-1.49 1.5v7c0 .83.67 1.5 1.5 1.5h29c.83 0 1.5-.67 1.5-1.5v-7c0-.83-.67-1.5-1.5-1.5M4.63 17h-2v-1.99h2zm3.76 0h-2v-1.99h2zm3.66 0h-2v-1.99h2zm17.11 0H17.8c-.55 0-1-.45-1-1s.45-1 1-1h11.36c.55 0 1 .45 1 1s-.45 1-1 1m1.33 5.06H1.48c-.83 0-1.5.67-1.5 1.5v7c0 .83.67 1.5 1.5 1.5h29c.83 0 1.5-.67 1.5-1.5v-7c0-.83-.67-1.5-1.5-1.5ZM4.63 27.95h-2v-1.99h2zm3.76 0h-2v-1.99h2zm3.66 0h-2v-1.99h2zm17.11 0H17.8c-.55 0-1-.45-1-1s.45-1 1-1h11.36c.55 0 1 .45 1 1s-.45 1-1 1"/>
</svg>
