<svg viewBox="0 0 16 16" xmlns="http://www.w3.org/2000/svg">
  <path fill="#1e1e1c" d="M15.99 1.77c0-.96-.79-1.75-1.75-1.75H1.74C.78.02 0 .81 0 1.77v2.84c0 .37.12.71.32 1-.21.28-.32.62-.32 1v2.84c0 .37.12.72.32 1-.2.28-.32.63-.32 1v2.84c0 .96.79 1.75 1.75 1.75h12.49c.97 0 1.75-.78 1.75-1.75v-2.84c0-.37-.12-.71-.32-1 .2-.28.32-.63.32-1V6.61c0-.37-.12-.72-.32-1 .2-.28.32-.63.32-1zm-14.5 0c0-.14.11-.25.25-.25h12.49c.14 0 .25.11.25.25v2.84c0 .14-.11.25-.25.25H1.74c-.14 0-.25-.11-.25-.25zm13 4.84v2.84c0 .14-.11.25-.25.25H1.74c-.14 0-.25-.11-.25-.25V6.61c0-.14.11-.25.25-.25h12.49c.14 0 .25.11.25.25Zm0 7.67c0 .14-.11.25-.25.25H1.74c-.14 0-.25-.11-.25-.25v-2.84c0-.14.11-.25.25-.25h12.49c.14 0 .25.11.25.25v2.84ZM7.15 3.19c0-.41.34-.75.75-.75h5.51c.41 0 .75.34.75.75s-.34.75-.75.75H7.9c-.41 0-.75-.34-.75-.75m-1.19.75h-1.5v-1.5h1.5zm-2.17 0h-1.5v-1.5h1.5zM7.15 8c0-.41.34-.75.75-.75h5.51c.41 0 .75.34.75.75s-.34.75-.75.75H7.9c-.41 0-.75-.34-.75-.75m-1.19.75h-1.5v-1.5h1.5zm-2.17 0h-1.5v-1.5h1.5zm10.37 4.06c0 .41-.34.75-.75.75H7.9c-.41 0-.75-.34-.75-.75s.34-.75.75-.75h5.51c.41 0 .75.34.75.75m-8.2.75h-1.5v-1.5h1.5zm-3.68-1.5h1.5v1.5h-1.5z"/>
</svg>
