<svg viewBox="0 0 16 16" xmlns="http://www.w3.org/2000/svg">
  <path d="M13.09 4.88V4.3c0-2.04-3.95-2.2-5.16-2.2s-5.16.16-5.16 2.2v.63C1.08 5.67 0 6.83 0 8.31c0 2.7 3.58 4.61 8 4.61s8-1.91 8-4.61c0-1.52-1.13-2.69-2.91-3.43m-1.48 3.6c-.17.25-1.42.71-3.68.71S4.5 8.76 4.27 8.5V8c.52.26 1.15.45 1.85.53.42.05.87.07 1.33.07 1.45 0 3.04-.24 4.15-.72v.59ZM7.93 3.6c2.26 0 3.52.5 3.66.7v1.83c-.24.49-2.78 1.21-5.29.92-1.28-.15-1.97-.7-2.03-.87V4.35c.14-.25 1.4-.75 3.66-.75M8 11.42c-3.52 0-6.5-1.42-6.5-3.11 0-.64.48-1.22 1.28-1.69v1.95c0 .56.33 1.31 1.93 1.76.86.24 2.01.37 3.23.37s5.16-.15 5.16-2.13V6.55c.88.48 1.41 1.09 1.41 1.76 0 1.69-2.98 3.11-6.5 3.11ZM5.75 5.31a.75.75 0 0 1 .27-1.03c.29-.17.66-.12.89.11.07.02.2.04.46.06.86.05 1.51-.05 1.65-.12.31-.28.75-.23 1.03.08s.22.81-.09 1.08c-.44.4-1.41.47-2.09.47-.25 0-.46-.01-.59-.02-.58-.04-1.24-.12-1.53-.63"/>
</svg>
