<svg viewBox="0 0 48 48" xmlns="http://www.w3.org/2000/svg">
  <path d="M38.27 14.23v-1.32c0-5.33-12.05-5.6-14.47-5.6s-14.47.27-14.47 5.6v1.47C3.65 16.57 0 20.19 0 24.92c0 8.12 10.74 13.84 24 13.84s24-5.72 24-13.83c0-4.84-3.83-8.52-9.73-10.7m-26.44 8.1c.77.53 1.69.99 2.72 1.37v3.74c-1.75-.54-2.72-1.2-2.72-1.75zm7.27 5.78-2.05-.29v-3.15l2.05.36zm2.5-3.3c.25 0 .49.02.74.02 4.93 0 10.38-.94 13.43-2.77v3.63c0 1.2-4.55 2.88-11.97 2.88-.77 0-1.5-.02-2.2-.06V24.8ZM11.83 12.9c0-1.27 4.26-3.1 11.97-3.1 3.3 0 6.49.38 8.74 1.04 2.39.7 3.23 1.54 3.23 2.06v5.63c0 .3-.29.63-.54.85-2.43 2.16-10.27 3.47-16.45 2.75-4.5-.53-6.96-2.65-6.96-3.6V12.9ZM24 36.26c-12.06 0-21.5-4.98-21.5-11.33 0-3.22 2.57-5.96 6.83-7.84v8.6c0 1.93 1.7 3.37 5.05 4.3 2.5.7 5.85 1.08 9.42 1.08 2.42 0 14.47-.26 14.47-5.38v-8.77c4.5 1.87 7.23 4.68 7.23 8 0 6.35-9.44 11.33-21.5 11.33Zm-8.53-21.09c-.35-.6-.15-1.36.45-1.71s1.36-.15 1.71.45c.02 0 .53.44 3.42.62 4.98.32 8.62-.43 9.16-.92.51-.46 1.3-.42 1.77.09.46.51.42 1.3-.09 1.77-1.44 1.29-5.42 1.63-8.54 1.63-.92 0-1.77-.03-2.45-.07-3.2-.21-4.77-.75-5.42-1.86Z"/>
</svg>
