<svg viewBox="0 0 48 48" xmlns="http://www.w3.org/2000/svg">
  <path d="m15.91 24.49 2.69.47v3.87l-2.69-.38zm21.74 1.37v-4.48c-3.19 2.03-9.34 3.33-15.41 3.33-.38 0-.76-.02-1.13-.03v4.58c.86.04 1.75.07 2.69.07 8.92 0 13.85-2.05 13.85-3.47m-24.24 2.23v-4.64c-1.34-.49-2.52-1.1-3.46-1.8v4.21c0 .7 1.2 1.55 3.46 2.23m24.24-16.83v6.43c0 .41-.37.83-.67 1.1-2.81 2.5-11.82 4.01-18.92 3.19-4.95-.58-8.1-2.93-8.1-4.29v-6.43c0-1.79 5.57-3.71 13.85-3.71 3.78 0 7.44.43 10.03 1.19 2.36.69 3.82 1.66 3.82 2.52Zm-4.64 1.04c-.46-.51-1.26-.55-1.76-.09-.77.7-5.19 1.45-10.6 1.1-3.47-.22-4.01-.76-4.05-.8-.35-.6-1.11-.8-1.71-.45s-.8 1.11-.45 1.71c.71 1.21 2.46 1.81 6.05 2.04.94.06 1.92.09 2.91.09 3.99 0 8.07-.52 9.52-1.83.51-.46.55-1.25.09-1.76Zm7.14 2.71v10.85c0 5.68-13.62 5.97-16.35 5.97-4.07 0-7.87-.44-10.71-1.23-3.74-1.04-5.63-2.64-5.63-4.75V15.19c-.42.2-.83.4-1.22.62C2.36 18.03 0 21.12 0 24.92c0 1.27.26 2.48.76 3.62.2.46.43.9.7 1.33.13.22.28.43.43.64 1.93 2.67 5.25 4.83 9.41 6.26.19.07.38.13.57.19 3.56 1.15 7.7 1.79 12.13 1.79 9.94 0 18.47-3.21 22.11-8.25a10.6 10.6 0 0 0 1.13-1.97c.49-1.14.76-2.35.76-3.62 0-4.31-3.03-7.69-7.85-9.92Z"/>
</svg>
