<svg viewBox="0 0 40 40" xmlns="http://www.w3.org/2000/svg">
  <path d="m13.4 20.86 2.04.36v3.01l-2.04-.29v-3.09Zm-2.25 2.73v-3.65c-1.02-.38-1.93-.84-2.68-1.38v3.31c0 .54.95 1.18 2.68 1.71Zm20.04-1.71v-3.53c-2.85 1.75-8.04 2.66-12.74 2.66-.26 0-.5-.01-.76-.02v3.61c.68.03 1.39.06 2.14.06 7.04 0 11.36-1.62 11.36-2.78m0-12.07v5.32c0 .31-.29.63-.53.84-2.3 2.05-9.73 3.29-15.57 2.61-3.98-.47-6.62-2.39-6.62-3.45V9.81c0-1.41 4.66-2.98 11.36-2.98 3.12 0 6.13.36 8.27.98 2.28.67 3.09 1.47 3.09 2m-3.67.79c-.42-.46-1.13-.5-1.59-.08-.61.55-4.3 1.17-8.69.89-2.78-.18-3.25-.6-3.28-.62a1.126 1.126 0 1 0-1.95 1.13c.6 1.04 2.07 1.54 5.08 1.73.65.04 1.45.07 2.32.07 2.93 0 6.68-.32 8.02-1.53.46-.42.5-1.13.08-1.59Zm5.92 1.9v9.38c0 4.79-11.34 5.03-13.61 5.03-3.37 0-6.52-.36-8.88-1.02-3.14-.87-4.73-2.22-4.73-4.01v-9.22C2.39 14.52 0 17.28 0 20.77c0 .42.03.84.1 1.24.14.81.41 1.59.8 2.33.58 1.11 1.44 2.13 2.52 3.04s2.38 1.72 3.86 2.4c.99.45 2.06.85 3.19 1.19 2.83.85 6.08 1.31 9.53 1.31s6.7-.47 9.53-1.31c1.13-.34 2.2-.74 3.19-1.19 1.48-.68 2.78-1.49 3.86-2.4s1.93-1.93 2.52-3.04c.39-.74.66-1.52.8-2.33.07-.41.1-.82.1-1.24 0-3.59-2.53-6.41-6.56-8.27"/>
</svg>
