<svg viewBox="0 0 64 64" xmlns="http://www.w3.org/2000/svg">
  <path fill="#1e1e1c" d="M62.86 37.48c-.79-1.7-1.94-3.14-3.36-4.28.32-1.71.49-3.46.49-5.21C60 12.55 47.44-.02 32-.02S4 12.55 4 27.99c0 1.75.17 3.5.49 5.21a12 12 0 0 0-3.36 4.29 11.97 11.97 0 0 0-.4 9.23l3.39 9.32c1.78 4.9 6.42 7.95 11.35 7.95 1.37 0 2.76-.23 4.12-.73l4.5-1.64L12.45 29.6l-4.5 1.64c-.32.12-.62.25-.92.39a26 26 0 0 1-.27-3.64C6.76 14.06 18.08 2.73 32 2.73s25.24 11.33 25.24 25.26c0 1.22-.09 2.44-.26 3.64q-.45-.21-.93-.39l-4.5-1.64L39.9 61.61l4.5 1.64c1.36.49 2.75.73 4.12.73 4.93 0 9.57-3.05 11.35-7.95l3.39-9.32c1.1-3.03.96-6.31-.4-9.23M6.71 55.09l-3.39-9.32c-.85-2.34-.74-4.87.31-7.13.46-1 1.09-1.88 1.85-2.63l9.16 25.17c-3.48-.32-6.65-2.59-7.92-6.09Zm2.18-21.26 1.91-.7 9.76 26.84-1.91.7c-.38.14-.77.24-1.16.33L7.78 34.32c.36-.18.72-.35 1.1-.49Zm34.54 26.14 9.76-26.84 1.91.7c.38.14.75.31 1.1.49L46.49 61c-.39-.09-.78-.19-1.16-.33l-1.91-.7Zm17.25-14.2-3.39 9.32c-1.27 3.5-4.44 5.77-7.92 6.09l9.16-25.16c.75.76 1.38 1.64 1.85 2.63a9.28 9.28 0 0 1 .31 7.13Z"/>
</svg>
