<svg viewBox="0 0 48 48" xmlns="http://www.w3.org/2000/svg">
  <path fill="#1e1e1c" d="M47.07 27.37a10 10 0 0 0-2.18-3.02c.16-1.05.27-2.12.27-3.19C45.16 9.5 35.67 0 24 0S2.84 9.5 2.84 21.17c0 1.07.09 2.15.25 3.2-.89.84-1.63 1.85-2.16 3A9.8 9.8 0 0 0 .6 34.9l2.41 6.62a9.8 9.8 0 0 0 5.09 5.56c1.32.62 2.74.93 4.15.93 1.14 0 2.27-.2 3.37-.6l4.39-1.6-9.14-25.13-3.49 1.27c-.01-.26-.04-.52-.04-.78 0-9.19 7.47-16.66 16.66-16.66s16.66 7.48 16.66 16.66c0 .26-.03.52-.04.78l-3.49-1.27-9.14 25.13 4.39 1.6a9.74 9.74 0 0 0 7.52-.33 9.8 9.8 0 0 0 5.09-5.56l2.41-6.62c.9-2.47.78-5.15-.33-7.53m-38.89-.92 6.06 16.67-.16.06c-1.34.49-2.79.43-4.09-.18a5.3 5.3 0 0 1-2.76-3.02l-2.41-6.62A5.28 5.28 0 0 1 5 29.27c.6-1.3 1.68-2.28 3.02-2.77l.16-.06Zm34.99 6.91-2.41 6.62A5.36 5.36 0 0 1 38 43c-1.29.6-2.75.67-4.09.18l-.16-.06 6.06-16.67.16.06c1.34.49 2.41 1.47 3.02 2.77.6 1.29.67 2.75.18 4.09Z"/>
</svg>
