<svg viewBox="0 0 64 64" xmlns="http://www.w3.org/2000/svg">
  <path fill="#1e1e1c" d="M59.77 32.7c.24-1.5.37-3.03.37-4.56C60.15 12.61 47.52-.02 32-.02S3.85 12.61 3.85 28.14c0 1.53.12 3.06.37 4.56C.48 36.09-1.06 41.54.77 46.58l3.27 8.97c1.89 5.2 6.81 8.43 12.05 8.43 1.45 0 2.93-.25 4.37-.77l5.44-1.98-12.04-33.05-4.93 1.8c-.05-.61-.08-1.22-.08-1.84C8.85 15.37 19.23 4.99 32 4.99s23.15 10.39 23.15 23.15c0 .61-.03 1.23-.08 1.84l-4.93-1.8-12.03 33.05 5.44 1.98c1.44.52 2.92.77 4.37.77 5.23 0 10.16-3.23 12.05-8.43l3.27-8.97c1.83-5.04.29-10.49-3.45-13.88ZM8.74 53.84l-3.27-8.97c-.7-1.92-.59-3.93.15-5.68l6.88 18.92a7.77 7.77 0 0 1-3.77-4.26Zm2.13-19.25 8.6 23.64-.74.27q-.345.12-.69.21L9.46 35.14c.21-.1.43-.2.66-.28l.74-.27Zm33.65 23.65 8.6-23.64.74.27c.29.11.56.23.83.36l-8.56 23.54c-.29-.07-.58-.15-.87-.26zm14.01-13.37-3.27 8.97a7.74 7.74 0 0 1-3.52 4.13l6.74-18.52c.64 1.69.7 3.6.04 5.42Z"/>
</svg>
