<svg viewBox="0 0 32 32" xmlns="http://www.w3.org/2000/svg">
  <path fill="#1e1e1c" d="M29.79 16.46c.14-.8.22-1.61.22-2.42C30.01 6.3 23.71 0 15.96 0S1.92 6.3 1.92 14.04c0 .81.09 1.62.23 2.41C.24 18.09-.57 20.81.34 23.32L2 27.88a6.255 6.255 0 0 0 5.87 4.11c.71 0 1.43-.12 2.13-.38l2.51-.92-5.93-16.28-2.51.91s-.05.02-.07.03c-.05-.44-.07-.88-.07-1.32C3.92 7.4 9.33 2 15.96 2S28 7.4 28 14.04c0 .44-.03.88-.08 1.31-.02 0-.05-.02-.07-.03l-2.51-.91-5.93 16.29 2.51.92c.7.26 1.42.38 2.13.38 2.55 0 4.95-1.58 5.87-4.11l1.66-4.56c.91-2.51.11-5.22-1.8-6.87ZM3.88 27.21l-1.66-4.56a4.25 4.25 0 0 1 .63-4.03l4.1 11.27a4.24 4.24 0 0 1-3.08-2.68Zm1.51-10.23 4.56 12.53-.63.23c-.08.03-.17.04-.26.06L4.52 17.32c.08-.04.15-.08.24-.11zm21.16 0 .63.23c.08.03.16.08.24.11L22.88 29.8c-.09-.03-.17-.03-.26-.06l-.63-.23zm3.16 5.66-1.66 4.56c-.51 1.41-1.71 2.37-3.08 2.68l4.1-11.27c.85 1.11 1.15 2.62.63 4.03Z"/>
</svg>
