<svg viewBox="0 0 32 32" xmlns="http://www.w3.org/2000/svg">
  <path fill="#1e1e1c" d="M29.95 16.19c.09-.66.16-1.33.16-2C30.1 6.4 23.76.05 15.96.05S1.83 6.4 1.83 14.2c0 .67.06 1.34.16 2a6.73 6.73 0 0 0-1.61 7.1l1.58 4.34c.99 2.73 3.58 4.43 6.33 4.43.76 0 1.54-.13 2.29-.41l3.13-1.14-6.19-16.99-2.2.8v-.13c0-5.87 4.77-10.65 10.64-10.65S26.61 8.33 26.61 14.2v.13l-2.2-.8-6.18 16.98 3.13 1.14c.75.27 1.53.41 2.3.41.97 0 1.93-.21 2.84-.63a6.7 6.7 0 0 0 3.48-3.8l1.58-4.34c.93-2.55.21-5.3-1.61-7.1M9.22 28.41c-1.63.51-3.4-.36-3.99-1.98l-1.58-4.34c-.59-1.62.21-3.42 1.78-4.08zm19.06-6.32-1.58 4.34a3.235 3.235 0 0 1-3.99 1.98l3.79-10.4c1.58.66 2.37 2.46 1.78 4.08"/>
</svg>
