<svg viewBox="0 0 16 16" xmlns="http://www.w3.org/2000/svg">
  <path fill="#1e1e1c" d="M15.69 9.12c-.18-.38-.43-.72-.73-1 .05-.35.09-.71.09-1.06C15.05 3.17 11.89 0 8 0S.95 3.17.95 7.06c0 .36.04.71.09 1.06a3.26 3.26 0 0 0-.84 3.51l.8 2.2c.3.83.9 1.48 1.7 1.85.44.21.91.31 1.38.31.38 0 .76-.07 1.13-.2l1.46-.53-3.04-8.37-1.16.42c0-.09-.01-.17-.01-.26 0-3.06 2.49-5.55 5.55-5.55s5.55 2.49 5.55 5.55c0 .09 0 .17-.01.26l-1.16-.42-3.05 8.38 1.46.53c.37.13.75.2 1.13.2.47 0 .94-.1 1.38-.31.8-.37 1.4-1.03 1.7-1.85l.8-2.21c.3-.82.26-1.72-.11-2.51Zm-12.96-.3 2.02 5.55-.05.02c-.45.16-.93.14-1.36-.06s-.76-.56-.92-1.01l-.8-2.2c-.34-.92.14-1.95 1.07-2.28l.05-.02Zm11.66 2.3-.8 2.21c-.16.45-.49.8-.92 1s-.91.22-1.36.06l-.05-.02 2.02-5.55.05.02c.92.33 1.4 1.36 1.06 2.28"/>
</svg>
