<svg viewBox="0 0 40 40" xmlns="http://www.w3.org/2000/svg">
  <path d="M34.09 10.68c.59 1.67.93 3.46.93 5.33 0 5.02-2.33 9.66-6.39 12.73-.31.35-.45 1.57-.56 2.56-.36 3.25-.97 8.69-8.9 8.69a8.87 8.87 0 0 1-7.39-3.93 1.124 1.124 0 0 1 1.86-1.26c.43.63.95 1.18 1.56 1.63a6.6 6.6 0 0 0 3.97 1.31c5.92 0 6.29-3.4 6.66-6.69.19-1.66.34-3.1 1.29-3.98l.09-.08c3.53-2.64 5.55-6.65 5.55-10.98 0-1.22-.18-2.41-.48-3.54l1.8-1.79ZM40 1.59 1.6 40 0 38.41 12.61 25.8h-.06c-.22.3-.57.47-.93.47-.2 0-.39-.05-.57-.16-.53-.32-.71-1-.39-1.53.75-1.25 1.96-1.06 2.68-.94.38.06.74.12 1.14.06a.8.8 0 0 0 .34-.11l.49-.49c.08-.13.17-.28.25-.48.55-1.39.36-3.27.09-3.98-2.21.19-3.37-.58-3.95-1.3-.47-.58-.63-1.66-.69-2.26-.25-2.17.41-3.46 1.79-5.2a8.3 8.3 0 0 1 5.58-3.11c2.22-.26 4.4.37 6.14 1.75 1.03.82 1.83 1.85 2.36 3l3.38-3.38C27.77 4.58 23.66 2.25 19 2.25c-4.09 0-7.94 1.8-10.57 4.95l-.08.09c-.42.46-1.13.5-1.59.08s-.5-1.13-.08-1.59C9.78 2.1 14.26 0 19.02 0c5.27 0 9.96 2.57 12.87 6.52L38.41 0zM18.16 20.25l7-7a6.05 6.05 0 0 0-2.03-2.97c-2.63-2.09-6.47-1.64-8.56.99-1.13 1.43-1.48 2.14-1.32 3.57.04.45.16.98.23 1.13.32.39 1.15.54 2.3.38.44-.06 1.89-.04 2.29 2.85.05.35.07.69.08 1.04Z"/>
</svg>
