<svg viewBox="0 0 64 64" xmlns="http://www.w3.org/2000/svg">
  <path d="M53.96 15.85c1.24 2.99 1.92 6.27 1.92 9.71 0 8.02-3.72 15.41-10.21 20.31-.63.66-.84 2.57-1.05 4.43C44.01 55.75 43.1 64 30.65 64c-3.03 0-5.92-.95-8.34-2.76-1.28-.95-2.38-2.1-3.27-3.42a1.38 1.38 0 0 1 .37-1.91c.63-.43 1.48-.26 1.91.37.72 1.06 1.6 1.99 2.63 2.75 1.95 1.45 4.27 2.21 6.7 2.21 9.99 0 10.65-5.98 11.24-11.25.29-2.61.54-4.86 1.94-6.17l.11-.1c5.84-4.37 9.18-10.99 9.18-18.16 0-2.66-.46-5.21-1.3-7.58l2.13-2.13ZM63.99 1.94 1.94 64 0 62.05l20.95-20.94c-.08-.01-.16-.02-.24-.04-.35-.06-.88-.14-1.02-.09 0 0-.03.03-.08.11a1.374 1.374 0 0 1-1.89.47 1.38 1.38 0 0 1-.47-1.89c1.07-1.77 2.76-1.5 3.89-1.32.63.1 1.28.2 1.98.11.25-.04.49-.11.71-.23l.98-.98c.2-.33.39-.71.54-1.16.88-2.62.39-5.83-.13-6.75-3.61.4-5.43-.8-6.32-1.91-.71-.88-.94-2.69-1.01-3.42-.39-3.37.64-5.38 2.8-8.12 2.17-2.74 5.27-4.47 8.75-4.87 3.47-.41 6.89.57 9.63 2.74 1.79 1.42 3.12 3.24 3.96 5.27l6.21-6.21C45.15 6.78 38.24 2.8 30.41 2.8c-6.76 0-13.13 2.98-17.47 8.18l-.12.13c-.5.57-1.37.62-1.94.11-.57-.5-.62-1.37-.11-1.94l.09-.1A25.37 25.37 0 0 1 30.39.05c8.59 0 16.18 4.28 20.81 10.8L62.05 0l1.94 1.95ZM28.54 33.51 40.85 21.2c-.58-2.04-1.77-3.9-3.51-5.27a10.3 10.3 0 0 0-7.6-2.17c-2.74.32-5.19 1.68-6.91 3.85-1.89 2.38-2.51 3.67-2.22 6.12.08.82.28 1.76.43 2 .85 1.05 2.74 1.04 4.17.84.77-.11 2.63.09 3.21 4.24.12.89.16 1.8.12 2.69Z"/>
</svg>
