<svg viewBox="0 0 32 32" xmlns="http://www.w3.org/2000/svg">
  <path fill="#1e1e1c" d="M22.43 2.33A9.5 9.5 0 0 0 16 4.86a9.5 9.5 0 0 0-6.43-2.53C4.3 2.33 0 6.62 0 11.9c0 9.06 14.66 17.37 15.29 17.72l.48.27.48-.26C16.89 29.28 32 20.97 32 11.91c0-5.28-4.29-9.58-9.57-9.58m2.19 14.16h-5.94c-.44 0-.83-.29-.96-.71l-.52-1.7-2.25 5.69c-.14.35-.46.59-.83.63h-.09c-.34 0-.66-.17-.84-.46l-2.27-3.57H7.34c-.55 0-1-.45-1-1s.45-1 1-1h4.13c.34 0 .66.17.84.46l1.51 2.38 2.58-6.52c.16-.39.51-.66.97-.63.42.02.79.3.92.71l1.14 3.72h5.2c.55 0 1 .45 1 1s-.45 1-1 1Z"/>
</svg>
