<svg viewBox="0 0 48 48" xmlns="http://www.w3.org/2000/svg">
  <path d="M41.96 15.63c.25 1.23.38 2.5.38 3.81 0 6.05-2.79 11.64-7.66 15.36-.14.3-.28 1.54-.37 2.37-.42 3.8-1.21 10.87-11.22 10.87-2.44 0-4.75-.76-6.7-2.21-.89-.66-1.67-1.45-2.33-2.34l3.2-3.19c.08.09.17.18.24.28.43.64.96 1.19 1.58 1.65a6.68 6.68 0 0 0 4.02 1.32c5.98 0 6.32-3.03 6.75-6.87.22-2.02.44-3.93 1.78-5.18l.19-.16c3.74-2.8 5.92-7 6.02-11.57l4.14-4.13ZM20.14 31.05 3.21 47.94.02 44.77l13.01-12.99a2.24 2.24 0 0 1-.61-2.96c1.2-1.99 3.21-1.67 4.06-1.54.36.06.68.1.98.07l.45-.45c.49-.98.49-2.51.34-3.45h-.06c-2.42 0-3.77-.98-4.51-1.89-.66-.82-.91-2.14-1-3.11-.32-2.79.55-4.51 2.27-6.68 1.76-2.21 4.27-3.61 7.08-3.93a10.55 10.55 0 0 1 10.14 4.82l2.43-2.42c-2.73-3.47-6.97-5.72-11.73-5.72-4.44 0-8.63 1.95-11.48 5.36l-.12.14c-.83.92-2.25 1-3.18.16-.92-.83-1-2.25-.16-3.17C11.66 2.57 17.11.03 22.89.03s11.36 2.74 14.92 7.02L44.84.04l3.18 3.18-7.7 7.68-3.42 3.41-3.09 3.08-4.04 4.03-8.29 8.27v.01l-1.33 1.33h-.01Zm2.47-8.82 6.26-6.25c-.39-.92-1-1.75-1.82-2.39a6.04 6.04 0 0 0-4.48-1.27c-1.62.19-3.06.99-4.07 2.26-1.25 1.57-1.47 2.14-1.32 3.42.03.29.08.62.13.83.21.1.73.22 1.71.08.48-.06 2.8-.19 3.59 3.33Z"/>
</svg>
