<svg viewBox="0 0 24 24" xmlns="http://www.w3.org/2000/svg">
  <path fill="#1e1e1c" d="M16.77 1.72c-1.76 0-3.45.66-4.77 1.82a7.2 7.2 0 0 0-4.77-1.82C3.25 1.72 0 4.96 0 8.94c0 6.77 10.94 12.96 11.4 13.22l.42.24.42-.23c.48-.26 11.75-6.44 11.75-13.22 0-3.98-3.25-7.21-7.23-7.21Zm1.62 10.74h-4.41a.87.87 0 0 1-.84-.62l-.27-.88-1.53 3.84c-.12.31-.4.52-.73.55h-.08c-.3 0-.58-.15-.74-.41l-1.64-2.57H5.57c-.48 0-.88-.39-.88-.88s.39-.88.88-.88h3.06c.3 0 .58.15.74.41l.98 1.53 1.81-4.57c.14-.35.48-.58.85-.55.37.01.69.26.8.62l.81 2.65h3.76c.48 0 .88.39.88.88s-.39.88-.88.88Z"/>
</svg>
