<svg viewBox="0 0 24 24" xmlns="http://www.w3.org/2000/svg">
  <path fill="#1e1e1c" d="M7.07 15.92c-.16 0-.31-.04-.45-.13a.867.867 0 0 1-.3-1.19c.52-.86 1.39-.72 1.8-.66.21.03.41.06.61.04.07 0 .26-.04.43-.43.3-.66.25-1.64.13-2.12-1.29.07-1.98-.41-2.34-.86-.3-.37-.41-.99-.45-1.45-.16-1.34.27-2.17 1.1-3.22a5.12 5.12 0 0 1 3.43-1.91c1.36-.16 2.7.23 3.78 1.08a5.12 5.12 0 0 1 1.85 5.01c-.09.48-.56.79-1.03.69a.864.864 0 0 1-.69-1.03c.24-1.25-.22-2.51-1.22-3.3-.71-.56-1.59-.81-2.49-.71s-1.7.55-2.26 1.26c-.68.86-.81 1.22-.73 1.95.02.23.08.51.12.59.11.12.55.19 1.13.11.41-.06.81.12 1.09.48.63.8.74 2.75.23 4.01-.36.9-1.02 1.45-1.84 1.57-.46.07-.85 0-1.13-.04-.05 0-.09-.02-.13-.02a.9.9 0 0 1-.64.27ZM11.42.01a9.62 9.62 0 0 0-7.41 3.48l.65.59.71.53a7.9 7.9 0 0 1 6.06-2.84c4.35 0 7.9 3.54 7.9 7.9 0 2.49-1.16 4.78-3.26 6.36-.61.57-.72 1.5-.82 2.48-.21 1.93-.42 3.76-3.71 3.76-.8 0-1.57-.25-2.21-.73-.34-.25-.63-.56-.87-.91a.87.87 0 0 0-1.22-.23c-.4.27-.51.82-.23 1.22.35.51.78.96 1.27 1.33.95.7 2.08 1.08 3.26 1.08 4.87 0 5.23-3.33 5.46-5.32.05-.49.14-1.24.21-1.33 2.47-1.85 3.89-4.66 3.89-7.71-.03-5.33-4.36-9.66-9.68-9.66"/>
</svg>
