<svg viewBox="0 0 64 64" xmlns="http://www.w3.org/2000/svg">
  <path fill="#1e1e1c" d="M45.13 4.68c-4.89 0-9.59 1.95-13.13 5.41-3.53-3.45-8.23-5.41-13.12-5.41C8.47 4.68 0 13.14 0 23.54c0 18.1 29.6 34.86 30.86 35.57l.66.37.67-.36C33.49 58.41 64 41.65 64 23.55c0-10.4-8.47-18.87-18.87-18.87m4.47 27.55H37.47c-.6 0-1.14-.39-1.31-.97l-1.62-5.27-5.29 13.36c-.19.48-.63.81-1.15.86h-.13c-.47 0-.91-.24-1.16-.64l-4.83-7.58H14.3c-.76 0-1.38-.62-1.38-1.38s.62-1.38 1.38-1.38h8.43c.47 0 .91.24 1.16.64l3.79 5.95 5.75-14.51c.21-.54.72-.9 1.33-.87.58.02 1.09.41 1.26.97l2.47 8.05H49.6c.76 0 1.38.62 1.38 1.38s-.62 1.38-1.38 1.38Z"/>
</svg>
