<svg viewBox="0 0 16 16" xmlns="http://www.w3.org/2000/svg">
  <path fill="#1e1e1c" d="M14.1 6.47c0 2.01-.92 3.87-2.53 5.11-.06.14-.11.53-.14.8-.14 1.27-.4 3.62-3.73 3.62-.81 0-1.58-.26-2.23-.74-.34-.25-.63-.56-.87-.91a.767.767 0 0 1 .2-1.05c.35-.23.81-.14 1.05.2a2.21 2.21 0 0 0 1.85.99c1.98 0 2.1-1.01 2.24-2.28.07-.67.15-1.31.59-1.73 1.34-1.01 2.07-2.45 2.07-4.01 0-2.74-2.23-4.96-4.96-4.96-1.48 0-2.86.65-3.81 1.78l-1.17-.96A6.42 6.42 0 0 1 7.63 0c3.57 0 6.47 2.9 6.47 6.47m-8.83 4.09c.2.03.46.07.79.03 1.25-.17 1.72-1.61 1.53-2.94-.2-1.44-1.07-1.39-1.24-1.37-.28.04-.48.01-.59-.07l-.02-.23c-.05-.42.02-.61.44-1.14.69-.87 1.96-1.02 2.84-.33.59.47.87 1.23.73 1.97-.08.41.19.8.6.88.05 0 .1.01.14.01.35 0 .67-.25.74-.61a3.525 3.525 0 0 0-6.22-2.87c-.57.72-.86 1.3-.76 2.22l.03.35c.01.16.08.29.17.4.03.12.08.23.17.33.26.28.72.59 1.49.59.05.31.05.82-.12 1.15-.03.06-.08.13-.13.14-.1.02-.21 0-.34-.02-.28-.05-.96-.15-1.35.51-.21.36-.1.82.26 1.03a.73.73 0 0 0 .86-.06Z"/>
</svg>
