<svg viewBox="0 0 24 24" xmlns="http://www.w3.org/2000/svg">
  <path d="M20.69 7.02c.24.84.38 1.73.38 2.65 0 3.04-1.42 5.85-3.89 7.7-.07.09-.15.84-.21 1.33-.22 1.99-.59 5.31-5.45 5.31-1.18 0-2.31-.37-3.26-1.07-.5-.37-.93-.82-1.27-1.33a.84.84 0 0 1-.07-.81l.47-.47c.38-.15.82-.05 1.05.3.24.35.53.66.87.91.64.48 1.41.73 2.21.73 3.29 0 3.5-1.82 3.71-3.75.11-.98.21-1.9.82-2.48 2.1-1.58 3.26-3.87 3.26-6.35 0-.4-.04-.79-.1-1.18l1.47-1.47Zm3.33-5.78L1.25 23.98.02 22.74l6.86-6.85a.9.9 0 0 1-.25-.1.875.875 0 0 1-.3-1.19c.52-.86 1.38-.72 1.8-.66.21.03.41.06.61.04.02 0 .04 0 .07-.01l.3-.3s.04-.06.06-.11c.3-.66.25-1.64.13-2.11-1.29.07-1.98-.41-2.34-.85-.3-.37-.41-.99-.45-1.44-.16-1.34.27-2.17 1.1-3.22a5.143 5.143 0 0 1 7.21-.83c.55.43.99.97 1.31 1.56l1.64-1.64c-1.44-1.95-3.73-3.22-6.33-3.22-2.35 0-4.56 1.03-6.06 2.84l-.7-.53-.66-.58A9.52 9.52 0 0 1 11.43.03c3.08 0 5.82 1.47 7.58 3.73L22.78 0zM11.1 11.67l3.71-3.7a3.385 3.385 0 0 0-5.83-.95c-.68.85-.81 1.22-.73 1.95.02.23.08.51.12.59.11.12.55.19 1.13.11.41-.06.81.12 1.09.48.27.34.44.91.51 1.53Z"/>
</svg>
