<svg viewBox="0 0 40 40" xmlns="http://www.w3.org/2000/svg">
  <path fill="#1e1e1c" d="M28.09 2.83c-3 0-5.88 1.16-8.09 3.23-2.2-2.06-5.09-3.23-8.09-3.23C5.35 2.83 0 8.17 0 14.74 0 26.05 18.38 36.46 19.16 36.9l.54.3.55-.3C21.06 36.46 40 26.05 40 14.73c0-6.57-5.34-11.91-11.91-11.91Zm2.76 17.53h-7.48c-.49 0-.93-.32-1.08-.8l-.76-2.49-2.97 7.5c-.16.39-.52.67-.94.71h-.11c-.38 0-.74-.19-.95-.52l-2.89-4.54H9.09c-.62 0-1.13-.5-1.13-1.12s.5-1.12 1.13-1.12h5.2c.38 0 .74.2.95.52l2.04 3.21 3.34-8.44c.17-.44.58-.76 1.09-.71.48.02.89.34 1.03.79l1.46 4.77h6.64c.62 0 1.13.5 1.13 1.12s-.5 1.12-1.13 1.12Z"/>
</svg>
