<svg viewBox="0 0 48 48" xmlns="http://www.w3.org/2000/svg">
  <path fill="#1e1e1c" d="M33.74 3.52c-3.62 0-7.1 1.42-9.75 3.92-2.65-2.51-6.13-3.92-9.75-3.92C6.39 3.52 0 9.9 0 17.75c0 13.56 22.09 26.06 23.03 26.58l.6.34.61-.33c.97-.53 23.75-13.03 23.75-26.59 0-7.85-6.39-14.23-14.25-14.23M23.65 41.8C20.14 39.72 2.49 28.69 2.49 17.75c0-6.47 5.27-11.73 11.75-11.73 3 0 5.89 1.19 8.07 3.3-.03.03-.07.04-.1.07-.22.23-1.3 1.42-1.57 2.52-.16.67.25 1.35.93 1.51.1.02.2.03.29.03.57 0 1.08-.38 1.22-.96.07-.29.56-.97.96-1.39.01-.01.01-.03.02-.04l.87-.99c2.25-2.57 5.46-4.05 8.81-4.05 6.48 0 11.75 5.26 11.75 11.73 0 10.95-18.25 21.99-21.84 24.05m14.66-18.63c0 .69-.56 1.25-1.25 1.25h-9.01c-.55 0-1.04-.36-1.2-.88l-1.01-3.29-3.69 9.31c-.17.44-.58.74-1.04.78h-.12c-.43 0-.82-.22-1.06-.58l-3.52-5.52h-5.58a1.25 1.25 0 0 1 0-2.5h6.27c.43 0 .83.22 1.06.58l2.57 4.03L24.83 16c.2-.49.68-.81 1.21-.79s.99.38 1.15.88l1.78 5.81h8.08c.69 0 1.25.56 1.25 1.25Z"/>
</svg>
