<svg viewBox="0 0 16 16" xmlns="http://www.w3.org/2000/svg">
  <path fill="#1e1e1c" d="M11.11 1.1c-1.14 0-2.23.41-3.11 1.13A4.84 4.84 0 0 0 4.89 1.1C2.2 1.1 0 3.29 0 5.99c0 4.53 7.22 8.62 7.53 8.79l.36.2.36-.2c.32-.17 7.75-4.26 7.75-8.79 0-2.7-2.2-4.89-4.89-4.89m1.06 7.37H9.3a.75.75 0 0 1-.72-.53l-.03-.09-.81 2.04a.76.76 0 0 1-.63.47h-.07a.75.75 0 0 1-.63-.35l-1.02-1.6H3.8c-.41 0-.75-.34-.75-.75s.34-.75.75-.75h2c.26 0 .5.13.63.35l.45.71 1.05-2.66c.12-.29.37-.51.73-.47.32.01.59.22.69.53l.49 1.61h2.32c.41 0 .75.34.75.75s-.34.75-.75.75Z"/>
</svg>
