<svg viewBox="0 0 24 24" xmlns="http://www.w3.org/2000/svg">
  <path fill="#1e1e1c" d="M16.77 1.71c-1.76 0-3.45.65-4.77 1.82a7.2 7.2 0 0 0-4.77-1.82C3.25 1.71 0 4.94 0 8.92c0 6.77 10.94 12.96 11.4 13.21l.42.24.42-.23c.48-.26 11.75-6.44 11.75-13.22 0-3.98-3.25-7.21-7.23-7.21Zm-4.93 18.65C9.88 19.18 1.76 14 1.76 8.92c0-3.01 2.46-5.46 5.48-5.46 1.32 0 2.6.5 3.6 1.38-.02.02-.05.03-.08.05-.16.17-.69.77-.83 1.35-.11.46.17.89.63 1.02.07.02.15.03.22.03.38 0 .74-.26.86-.64.03-.1.23-.38.41-.57.03-.03.04-.07.07-.11l.56-.64a5.48 5.48 0 0 1 4.11-1.89c3.02 0 5.48 2.45 5.48 5.46 0 5.08-8.4 10.27-10.41 11.44Z"/>
</svg>
