<svg viewBox="0 0 16 16" xmlns="http://www.w3.org/2000/svg">
  <path fill="#1e1e1c" d="M11.1 1.11c-1.14 0-2.23.41-3.11 1.13a4.84 4.84 0 0 0-3.11-1.13C2.19 1.11 0 3.31 0 6c0 4.53 7.21 8.62 7.51 8.79l.36.2.36-.2c.32-.17 7.75-4.26 7.75-8.79 0-2.7-2.2-4.89-4.89-4.89ZM7.89 13.27C5.82 12.03 1.5 8.85 1.5 6c0-1.87 1.52-3.39 3.39-3.39.77 0 1.48.26 2.08.74-.16.19-.41.52-.5.86-.1.4.15.82.55.92.06.01.12.02.18.02.34 0 .64-.22.72-.56.02-.06.13-.21.23-.31.02-.02.03-.05.04-.07l.37-.43c.65-.74 1.58-1.17 2.54-1.17 1.87 0 3.39 1.52 3.39 3.39 0 2.85-4.47 6.03-6.6 7.27m5.02-5.54c0 .41-.34.75-.75.75H9.29a.75.75 0 0 1-.72-.53l-.03-.09-.81 2.04a.76.76 0 0 1-.63.47h-.07a.75.75 0 0 1-.63-.35l-1.02-1.6H3.8c-.41 0-.75-.34-.75-.75s.34-.75.75-.75h2c.26 0 .5.13.63.35l.45.71 1.05-2.66c.12-.3.37-.51.73-.47.32.01.59.22.69.53l.49 1.61h2.32c.41 0 .75.34.75.75Z"/>
</svg>
