<svg viewBox="0 0 40 40" xmlns="http://www.w3.org/2000/svg">
  <path fill="#1d1d1b" d="M19.94 0c-11.03 0-20 8.97-20 20s8.97 20 20 20 20-8.97 20-20-8.97-20-20-20m0 37.75c-9.78 0-17.75-7.96-17.75-17.75S10.16 2.25 19.94 2.25 37.69 10.21 37.69 20s-7.96 17.75-17.75 17.75m3.05-10.92c0 1.54-1.19 2.81-3.02 2.81s-3.02-1.28-3.02-2.81 1.19-2.78 3.02-2.78 3.02 1.3 3.02 2.78m4.44-12.47c0 2-1.04 3.39-2.93 4.7-1.71 1.19-2.32 1.57-2.32 3.28v.29h-4.41v-.81c0-2.41.93-3.48 2.44-4.52 1.16-.81 2.15-1.48 2.15-2.49s-.87-1.71-2.9-1.71c-1.65 0-3.48.49-4.99 1.19v-4.2c1.36-.55 3.6-1.04 5.74-1.04 4.03 0 7.22 1.83 7.22 5.34Z"/>
</svg>
