<svg viewBox="0 0 48 48" xmlns="http://www.w3.org/2000/svg">
  <path d="M23.99 0C10.76 0 0 10.77 0 24s10.77 24 24 24 24-10.77 24-24S37.22 0 23.99 0m-.48 35.15c-1.3 0-2.28-1.02-2.28-2.28s.98-2.24 2.28-2.24 2.28.98 2.28 2.24-.98 2.28-2.28 2.28m4.35-12.41c-2.17 1.68-2.84 2.28-2.84 4.38v.63h-3.01v-.91c0-2.77 1.16-4.21 3.58-5.99 1.65-1.19 2.87-2.35 2.87-4.21 0-2.31-1.96-3.44-4.52-3.44-2.03 0-4.28.7-5.92 1.58V11.7c1.47-.7 3.96-1.33 6.27-1.33 3.86 0 7.54 2 7.54 6.13 0 2.84-1.75 4.52-3.96 6.24Z"/>
</svg>
