<svg viewBox="0 0 48 48" xmlns="http://www.w3.org/2000/svg">
  <path fill="#1e1e1c" d="M23.99 0c-13.24 0-24 10.77-24 24s10.77 24 24 24 24-10.77 24-24-10.77-24-24-24m-.04 35.29c-2.21 0-3.65-1.54-3.65-3.4s1.44-3.37 3.65-3.37 3.65 1.58 3.65 3.37-1.44 3.4-3.65 3.4m5.46-12.79c-2.07 1.44-2.8 1.89-2.8 3.96v.21h-5.33v-.84c0-2.91 1.12-4.21 2.94-5.47 1.4-.98 2.59-1.79 2.59-3.02s-1.05-2.07-3.51-2.07c-2 0-4.21.6-6.03 1.44v-5.08c1.65-.67 4.35-1.26 6.94-1.26 4.87 0 8.73 2.21 8.73 6.45 0 2.42-1.26 4.1-3.54 5.68Z"/>
</svg>
