<svg viewBox="0 0 32 32" xmlns="http://www.w3.org/2000/svg">
  <path fill="#1d1d1b" d="M15.94 0c-8.82 0-16 7.18-16 16s7.18 16 16 16 16-7.18 16-16-7.18-16-16-16m0 30c-7.72 0-14-6.28-14-14s6.29-14 14-14 14 6.28 14 14-6.28 14-14 14m2.36-8.76c0 1.22-.94 2.24-2.4 2.24s-2.4-1.01-2.4-2.24.94-2.21 2.4-2.21 2.4 1.04 2.4 2.21m3.53-9.9c0 1.59-.83 2.7-2.33 3.73-1.36.94-1.84 1.24-1.84 2.6v.23h-3.5v-.64c0-1.91.74-2.77 1.94-3.59.92-.65 1.7-1.18 1.7-1.98s-.69-1.36-2.3-1.36c-1.31 0-2.77.39-3.96.95V7.94c1.08-.44 2.86-.83 4.56-.83 3.2 0 5.74 1.45 5.74 4.24Z"/>
</svg>
