<svg viewBox="0 0 16 16" xmlns="http://www.w3.org/2000/svg">
  <path d="M7.96 0c-4.41 0-8 3.59-8 8s3.59 8 8 8 8-3.59 8-8-3.58-8-8-8m0 14.5c-3.58 0-6.5-2.92-6.5-6.5s2.92-6.5 6.5-6.5 6.5 2.92 6.5 6.5-2.92 6.5-6.5 6.5m2.45-8.71c0 .89-.55 1.42-1.24 1.96-.68.53-.89.71-.89 1.38v.2h-.95v-.29c0-.87.36-1.32 1.12-1.88.52-.37.9-.74.9-1.32 0-.73-.62-1.08-1.42-1.08-.64 0-1.34.22-1.86.5v-.97c.46-.22 1.24-.42 1.97-.42 1.21 0 2.37.63 2.37 1.92m-1.9 5.14c0 .4-.31.72-.72.72s-.71-.32-.71-.72.31-.7.71-.7.72.31.72.7"/>
</svg>
