<svg viewBox="0 0 16 16" xmlns="http://www.w3.org/2000/svg">
  <path fill="#1d1d1b" d="M7.93 0c-4.41 0-8 3.59-8 8s3.59 8 8 8 8-3.59 8-8-3.59-8-8-8m0 14.5c-3.58 0-6.5-2.92-6.5-6.5s2.91-6.5 6.5-6.5 6.5 2.92 6.5 6.5-2.92 6.5-6.5 6.5m1.11-3.88c0 .58-.45 1.07-1.14 1.07s-1.14-.48-1.14-1.07.45-1.06 1.14-1.06 1.14.5 1.14 1.06m1.69-4.73c0 .76-.4 1.29-1.11 1.78-.65.45-.88.59-.88 1.24v.11H7.07v-.31c0-.91.35-1.32.92-1.72.44-.31.81-.56.81-.95s-.33-.65-1.1-.65c-.63 0-1.32.19-1.89.45v-1.6c.52-.21 1.36-.4 2.18-.4 1.53 0 2.74.69 2.74 2.02Z"/>
</svg>
