<svg viewBox="0 0 64 64" xmlns="http://www.w3.org/2000/svg">
  <path d="M32.04 0c-17.65 0-32 14.36-32 32s14.36 32 32 32 32-14.36 32-32-14.36-32-32-32m0 61.25C15.91 61.25 2.79 48.13 2.79 32S15.91 2.75 32.04 2.75 61.29 15.87 61.29 32 48.17 61.25 32.04 61.25m10.6-39.24c0 3.89-2.4 6.19-5.43 8.55-2.98 2.3-3.89 3.12-3.89 6v.86h-4.13v-1.25c0-3.79 1.58-5.76 4.9-8.21 2.26-1.63 3.94-3.22 3.94-5.76 0-3.17-2.69-4.71-6.2-4.71-2.79 0-5.86.96-8.12 2.16v-4.23c2.02-.96 5.43-1.82 8.6-1.82 5.28 0 10.33 2.74 10.33 8.4Zm-8.26 22.43c0 1.73-1.35 3.12-3.12 3.12s-3.12-1.39-3.12-3.12 1.35-3.07 3.12-3.07 3.12 1.34 3.12 3.07"/>
</svg>
