<svg viewBox="0 0 32 32" xmlns="http://www.w3.org/2000/svg">
  <path d="M5.29 19.51c-3.06 0-3.71-2.18-3.74-2.27l-.04-.27v-4.8h5.72l-.96 2.05-.13.37c-.29 1.18-.35 3.11.4 4.92H5.27Zm2.94-9.48c.49-1.16 1.27-1.88 2.16-2.29L8.85 6.56l-.26-.14c-.36-.13-3.58-1.27-5.6.14-.67.47-1.48 1.42-1.48 3.26v.35h6.65zm6.47-2.99c1.93 0 3.5-1.57 3.5-3.5S16.63.04 14.7.04s-3.5 1.57-3.5 3.5 1.57 3.5 3.5 3.5m11.7 4.55h-.59c-1.32 0-2.43.93-2.71 2.17l-4.22-2.59c.24.53.31.93.33 1.03l.02.24.1 4.03 1.18 2.38c.07 0 .13.02.2.02.35 0 .69-.04 1.02-.13 2.17-.54 3.24-2.67 3.28-2.76l.4-.82-.37-.23v-.57c0-.43.35-.78.78-.78h.59c.6 0 1.08.48 1.08 1.08v17.37h2V14.67c0-1.7-1.38-3.08-3.08-3.08Zm-8.07 5.13-.1-4.25v-.12c-.03-.1-.4-2.43-3.65-3.64a5.8 5.8 0 0 0-1.14-.33c1.55 2.12 4.2 6.64 1.66 10.09l-.15.2-2.31 1.11-.87-1.81 1.84-.89c2.04-3.21-2.41-8.33-2.59-8.53-.76.3-1.44.87-1.88 1.89l-1.95 4.2-.06.18c-.4 1.66-.34 5.04 2.47 6.87l-5.38 5.48 4.43 4.81 6.07-6.04 1.71 6.07 6.19-.82-2.51-10.83-1.77-3.63Z"/>
</svg>
