<svg viewBox="0 0 40 40" xmlns="http://www.w3.org/2000/svg">
  <path d="M13.72 4.56c0-2.5 2.04-4.54 4.55-4.54s4.55 2.04 4.55 4.55-2.04 4.55-4.55 4.55-4.55-2.04-4.55-4.55Zm19.24 9.94h-.74c-1.67 0-3.05 1.23-3.3 2.83l-5.7-3.49c.34.7.43 1.23.45 1.37l.02.27.12 5.12 1.36 2.76c.21.03.42.06.63.06.42 0 .84-.05 1.25-.15 2.67-.67 3.98-3.29 4.03-3.4l.45-.92-.43-.26v-.82c0-.61.5-1.11 1.11-1.11h.74c.82 0 1.48.67 1.48 1.49v21.78h2.25V18.25c0-2.06-1.68-3.74-3.73-3.74ZM8.25 24.21c-.9-2.2-.81-4.55-.46-5.99l.14-.41 1.31-2.83h-7.4v6.16l.04.31c.03.11.83 2.75 4.57 2.75h1.8Zm2.14-11.67c.59-1.38 1.52-2.24 2.58-2.73l-2.25-1.73-.16-.06c-.45-.16-4.43-1.57-6.91.16-.82.57-1.8 1.73-1.8 3.99v.58h8.46l.09-.2Zm12.31 8.33-.13-5.37v-.14c-.03-.12-.49-2.97-4.51-4.47a7.1 7.1 0 0 0-2.02-.49c1.82 2.54 5.51 8.51 3.19 12.45l-.19.33-3.49 1.4-.84-2.09 2.75-1.1c1.29-3.01-2.3-8.54-3.95-10.61-.85.38-1.61 1.07-2.1 2.22l-2.45 5.28-.07.21c-.51 2.07-.42 6.34 3.18 8.57l-6.78 6.91 5.39 5.84 7.69-7.65 2.17 7.73 7.51-1-3.12-13.46-2.22-4.56Z"/>
</svg>
