<svg viewBox="0 0 16 16" xmlns="http://www.w3.org/2000/svg">
  <path d="M7.56 3.9c1.07 0 1.95-.87 1.95-1.95S8.63 0 7.56 0 5.61.87 5.61 1.95 6.48 3.9 7.56 3.9m0-2.4c.25 0 .45.2.45.45s-.2.45-.45.45-.45-.2-.45-.45.2-.45.45-.45m5.64 4.18h-.29c-.6 0-1.12.33-1.4.82l-3.4-2.09c-.15-.07-.31-.15-.5-.22-.44-.18-1.04-.28-1.6-.16l-1.09-.84-.2-.11c-.19-.07-1.86-.66-2.94.1-.38.26-.83.78-.83 1.79v3.44l.03.21c.14.48.72 1.28 2.05 1.28H4c.17.3.39.57.69.82l-2.54 2.59 2.49 2.7 2.79-2.77.76 2.7 3.5-.46-1.27-5.49-.19-.4c.07 0 .15.02.22.02.19 0 .37-.02.56-.07 1.14-.29 1.69-1.35 1.75-1.47l.3-.61-.25-.15c.01-.06.06-.11.12-.11h.29c.15 0 .27.12.27.27v8.54h1.5V7.45c0-.98-.8-1.77-1.77-1.77ZM5.1 7.73l.91-1.96a.46.46 0 0 1 .39-.29c.32.32.8.94.87 1.59l-.96-.3-.82 2.64c-.54-.58-.44-1.42-.39-1.67ZM2.45 4.97c0-.28.06-.47.18-.56.29-.2 1.01-.1 1.46.04l.66.51-.09.15H2.44v-.15Zm.59 3.43c-.37 0-.53-.11-.58-.17V6.61h1.52l-.26.56-.05.14c-.07.28-.11.67-.08 1.08h-.54Zm6.24 5.87-1.1-3.91-3.49 3.48-.47-.51 2.37-2.41.32-1.04.9-.43.1-.11c.13-.14.23-.28.33-.43l.73 1.48.88 3.8zm1.35-6.2c-.3.07-.65-.04-1.07-.34l-.02-.68 1.41.87c-.1.07-.21.13-.32.16Z"/>
</svg>
