<svg viewBox="0 0 64 64" xmlns="http://www.w3.org/2000/svg">
  <path d="M21.77 7.32c0-4.01 3.26-7.27 7.26-7.27s7.26 3.26 7.26 7.26-3.26 7.26-7.26 7.26-7.26-3.26-7.26-7.26ZM13.6 38.67c-1.33-3.32-1.19-6.87-.66-9.03l.06-.26 2.62-5.64H2.89v10.61l.05.19c.05.17 1.25 4.13 6.96 4.13h3.69Zm3.49-18.07c.85-2 2.19-3.24 3.72-3.96l-4.22-3.25-.19-.07c-.28-.1-6.87-2.51-10.78.21-1.81 1.26-2.72 3.3-2.72 6.09V21h14.01l.18-.39Zm35.68 3.01h-1.18c-2.73 0-4.95 2.22-4.95 4.95v.16l-10.66-6.53c.71 1.26.9 2.25.93 2.48l.03.33.2 8.48 1.76 3.56c.8.22 1.58.34 2.36.34.65 0 1.28-.08 1.91-.23 4.12-1.03 6.15-5.1 6.23-5.27l.55-1.12-.56-.34v-1.85c0-1.21.99-2.2 2.2-2.2h1.18c1.55 0 2.8 1.26 2.8 2.8v34.89h2.75v-34.9c0-3.06-2.49-5.56-5.56-5.56Zm-17 10.21-.21-8.78v-.17c-.04-.18-.75-4.55-7.02-6.89-.93-.39-2.24-.73-3.63-.78 2.64 3.53 9.04 13.17 5.32 19.5l-.24.41-5.51 2.21-1.02-2.56 4.61-1.85c2.4-5.07-3.62-14.04-6.26-17.23-1.4.55-2.66 1.62-3.45 3.49l-3.97 8.54-.09.25c-.81 3.33-.65 10.28 5.44 13.67L8.66 54.91l8.12 8.81 12.65-12.58L33.04 64l11.29-1.5-4.94-21.31-3.6-7.38Z"/>
</svg>
