<svg viewBox="0 0 48 48" xmlns="http://www.w3.org/2000/svg">
  <path d="M21.87 10.92c3 0 5.45-2.44 5.45-5.45a5.45 5.45 0 1 0-5.45 5.45m0-8.4a2.949 2.949 0 1 1 0 5.9 2.949 2.949 0 1 1 0-5.9m17.69 14.97h-.89c-2.03 0-3.69 1.56-3.89 3.54l-11.75-7.2-.02.03c-.43-.23-.9-.45-1.43-.65-1.18-.5-3.13-.89-4.87-.33l-4-3.08-.18-.07c-.53-.2-5.28-1.87-8.23.18-.97.67-2.12 2.04-2.12 4.72v10.83l.05.34c.04.13.98 3.24 5.4 3.24h3.73a8.07 8.07 0 0 0 3.21 3.52L6.38 40.9l6.35 6.88 9.31-9.26 2.64 9.39 8.85-1.18-3.73-16.1-1.53-3.14c.92.38 1.82.58 2.71.58.5 0 .99-.06 1.48-.18 3.17-.79 4.72-3.91 4.79-4.04l.5-1.02-.49-.3v-1.11c0-.79.64-1.43 1.43-1.43h.89c1.04 0 1.88.84 1.88 1.88v26.15h2.5V21.87c0-2.42-1.97-4.38-4.38-4.38ZM4.69 14.62c0-1.3.34-2.17 1.05-2.66 1.53-1.06 4.53-.37 5.77.05l3.03 2.33c-.26.31-.48.67-.68 1.09H4.69v-.8Zm2.95 11.91c-2.1 0-2.78-.97-2.95-1.32v-7.3h7.98l-1.92 4.13-.08.23c-.26 1.07-.39 2.62-.1 4.26zm5.44-3.55 2.91-6.27c.36-.85.95-1.28 1.59-1.48 1.08 1.35 2.61 3.65 3.36 6l-1.92-.6-3.07 9.83c-3.77-2.19-3.03-6.72-2.87-7.49Zm7.9 2.86-1.1.44 1.3-4.16c.3 1.32.31 2.61-.2 3.72m9.48 18.79-3.97.53-3.2-11.41L12.8 44.18l-2.97-3.23 8.01-8.16 1.07-3.44 3.82-1.53.22-.37c2.3-3.92-.07-8.85-2.01-11.82 2.87 1.17 3.44 2.89 3.52 3.19l.17 6.93 2.76 5.59 3.08 13.28Zm1.36-19.16c-1.29.32-2.74-.11-4.35-1.28l-.4-.66-.1-4.37 7.39 4.53c-.53.67-1.39 1.49-2.54 1.77Z"/>
</svg>
