<svg viewBox="0 0 24 24" xmlns="http://www.w3.org/2000/svg">
  <path d="M6.05 7.53H1.21V7.4c0-1.43.63-2.16 1.15-2.53 1.56-1.08 4-.22 4.27-.12l.23.13.97.74c-.74.34-1.37.92-1.75 1.82l-.04.08Zm-1.21 7.2c-.59-1.41-.54-2.93-.32-3.84l.11-.32.59-1.28H1.21v3.42l.03.24c.19.66 1.01 1.78 2.9 1.78zm6.28-9.25c1.5 0 2.73-1.22 2.73-2.73S12.62.03 11.12.03 8.39 1.25 8.39 2.76s1.22 2.73 2.73 2.73Zm8.68 3.16h-.44c-.96 0-1.78.63-2.08 1.49l-2.76-1.69c.15.36.19.62.2.7l.02.21.07 2.92.93 1.96c.21-.01.41-.03.61-.08 1.67-.42 2.48-2.05 2.52-2.12l.35-.72-.32-.19v-.28c0-.25.2-.45.45-.45h.44c.37 0 .68.3.68.68v12.96h1.75V11.07c0-1.34-1.09-2.43-2.43-2.43Zm-5.86 3.85-.07-3.12v-.11c-.04-.19-.36-1.9-2.79-2.8-.35-.15-.79-.25-1.24-.29 1.45 1.68 3.85 5.14 1.64 7.77l-.12.14-1.72.82-.76-1.58 1.36-.65c1.41-2-1.65-5.32-2.38-6.06-.4.26-.75.64-.99 1.19l-1.45 3.11-.06.16c-.3 1.23-.26 3.73 1.75 5.14l-3.96 4.03L6.61 24l4.43-4.41 1.23 4.39 4.85-.64-1.89-8.17-1.31-2.7Z"/>
</svg>
