<svg viewBox="0 0 16 16" xmlns="http://www.w3.org/2000/svg">
  <path d="M5.04 13.62c.38.23.79.42 1.21.56l-.48 1.42c-.52-.18-1.03-.41-1.5-.69zm-3.17-.97c.31.45.67.88 1.08 1.26l1.03-1.09a6.4 6.4 0 0 1-.87-1.01l-1.24.85Zm.24-3.31-1.48.25c.09.55.25 1.08.46 1.6l1.39-.57a6.3 6.3 0 0 1-.37-1.28m13.83-1.05c0-4.25-3.46-7.71-7.71-7.71-2.1 0-4.06.83-5.5 2.3l-.13.13V.75a.749.749 0 1 0-1.5 0v4.81h5.39c.41 0 .75-.34.75-.75s-.34-.75-.75-.75H3.67l.11-.11a6.16 6.16 0 0 1 4.45-1.87c3.43 0 6.21 2.79 6.21 6.21 0 3.21-2.44 5.85-5.56 6.18-.44.04-.9.04-1.33 0l-.16 1.49c.27.03.55.04.84.04.27 0 .54-.01.8-.04h.02a7.717 7.717 0 0 0 6.89-7.67M8 10.91c.41 0 .75-.34.75-.75V8.29l2.66-2.8c.29-.3.27-.77-.03-1.06a.746.746 0 0 0-1.06.03L7.25 7.69v2.46c0 .41.34.75.75.75Z"/>
</svg>
