<svg viewBox="0 0 16 16" xmlns="http://www.w3.org/2000/svg">
  <path d="M5.15 12.51c.55.4 1.16.69 1.81.85l-.61 2.42c-.97-.24-1.87-.67-2.68-1.26l1.47-2.01ZM3.07 9.17l-2.46.42c.17.98.52 1.91 1.05 2.77l2.12-1.32c-.36-.58-.6-1.21-.71-1.87M8.23.55c-1.73 0-3.37.57-4.69 1.59v-.89a1.25 1.25 0 0 0-2.5.01v5.03h5.57a1.25 1.25 0 0 0 0-2.5H5.58c.8-.47 1.7-.74 2.65-.74 2.89 0 5.23 2.35 5.23 5.23s-2.35 5.23-5.23 5.23v2.5c4.26 0 7.73-3.47 7.73-7.73S12.5.55 8.23.55m1.04 9.81V8.84l1.63-1.75c.47-.5.44-1.29-.06-1.76s-1.29-.44-1.76.06l-2.3 2.47v2.51a1.25 1.25 0 0 0 2.5 0Z"/>
</svg>
