<svg viewBox="0 0 64 64" xmlns="http://www.w3.org/2000/svg">
  <path d="m7.95 41.96-4.7 1.7a29.7 29.7 0 0 1-1.38-5.26l4.93-.84c.25 1.49.64 2.97 1.16 4.4Zm4.56 14.9c1.39 1.16 2.9 2.21 4.46 3.1l2.48-4.34c-1.31-.75-2.57-1.62-3.74-2.6zm-6.97-8.28a32 32 0 0 0 3.12 4.45l3.82-3.22c-.98-1.16-1.86-2.42-2.62-3.73l-4.33 2.5Zm16.37 13.65c1.71.61 3.48 1.06 5.26 1.36l.82-4.93c-1.5-.25-2.98-.63-4.4-1.14zM32.24 2.37c-8.36 0-16.18 3.29-22.02 9.26l-1.44 1.35V2.51C8.78 1.13 7.66 0 6.28 0s-2.5 1.12-2.5 2.5v19.02h21.38a2.5 2.5 0 0 0 0-5H12.31l1.37-1.3.07-.07c4.9-5.02 11.46-7.79 18.48-7.79 14.24 0 25.82 11.58 25.82 25.82S46.47 59 32.23 59v5c16.99 0 30.82-13.83 30.82-30.82S49.24 2.37 32.24 2.37m1.57 38.45v-7.81l10.97-11.55c.95-1 .91-2.58-.09-3.54-1-.95-2.58-.91-3.54.09L28.8 31v9.81a2.5 2.5 0 0 0 5 0Z"/>
</svg>
