<svg viewBox="0 0 64 64" xmlns="http://www.w3.org/2000/svg">
  <path d="M15.24 55.5c.69.53 1.42 1.03 2.16 1.5l-1.46 2.33c-.81-.51-1.61-1.06-2.37-1.64zm-3.85-3.55-2.05 1.84c.64.71 1.32 1.4 2.02 2.05l1.87-2.02c-.64-.59-1.26-1.22-1.84-1.87m-3.13-4.21-2.35 1.43c.49.81 1.04 1.62 1.61 2.39l2.21-1.64c-.52-.71-1.02-1.44-1.47-2.18m-2.28-4.72-2.58.96c.33.89.72 1.79 1.13 2.65l2.48-1.2c-.38-.79-.73-1.6-1.03-2.41m-1.37-5.06-2.71.46c.16.94.37 1.89.62 2.81l2.66-.72c-.23-.84-.42-1.71-.56-2.56Zm19.2 24.87c.92.26 1.86.48 2.81.66l.5-2.71c-.86-.16-1.72-.36-2.55-.6l-.75 2.65Zm-5.36-2.09c.86.43 1.74.82 2.63 1.17l1-2.57c-.81-.31-1.62-.67-2.4-1.07l-1.23 2.46Zm44.56-27.52c0-16.97-13.81-30.78-30.78-30.78-8.36 0-16.19 3.3-21.99 9.24l-3.58 3.38V1.37C6.66.61 6.05 0 5.29 0S3.91.62 3.91 1.38v18.53h20.98c.76 0 1.38-.62 1.38-1.38s-.62-1.38-1.38-1.38H8.48l3.7-3.49c5.32-5.45 12.44-8.45 20.06-8.45 15.45 0 28.02 12.57 28.02 28.02S47.69 61.25 32.24 61.25c-.84 0-1.68-.04-2.52-.11l-.24 2.74c.92.08 1.85.12 2.76.12h.11c16.92-.06 30.67-13.84 30.67-30.77Zm-30.37 7.92v-8.59l11.73-12.34c.52-.55.5-1.42-.05-1.95-.55-.52-1.42-.5-1.95.05L29.89 31.45v9.69c0 .76.62 1.38 1.38 1.38s1.38-.62 1.38-1.38Z"/>
</svg>
