<svg viewBox="0 0 40 40" xmlns="http://www.w3.org/2000/svg">
  <path d="M8.72 33.32c.46.42.95.82 1.45 1.19l-1.32 1.82c-.57-.42-1.12-.87-1.65-1.34zm-2.48-2.81-1.84 1.3c.41.58.85 1.14 1.31 1.67l1.69-1.49c-.41-.47-.8-.96-1.16-1.48m-1.81-3.29-2.08.86c.27.65.57 1.29.92 1.92l1.97-1.08c-.3-.55-.58-1.12-.81-1.69Zm-1.03-3.6L1.18 24c.12.7.28 1.4.47 2.07l2.16-.63c-.17-.59-.31-1.21-.42-1.83Zm11.12 15.54q1.02.315 2.07.51l.41-2.21c-.61-.11-1.22-.26-1.82-.45zm-3.89-1.68c.61.35 1.25.67 1.9.95l.89-2.07c-.57-.25-1.14-.53-1.68-.84l-1.12 1.96Zm28.76-16.73c0-10.61-8.63-19.25-19.24-19.25-5.23 0-10.12 2.06-13.74 5.77L4.67 8.91V1.12C4.67.5 4.16 0 3.54 0S2.41.5 2.41 1.13v11.7h13.21c.62 0 1.13-.5 1.13-1.13s-.5-1.13-1.13-1.13H6.2l1.78-1.68c3.23-3.31 7.55-5.13 12.16-5.13 9.37 0 16.99 7.62 16.99 16.99s-7.62 16.99-16.99 16.99c-.47 0-.86-.02-1.28-.05l-.17 2.25c.47.04.94.05 1.42.05h.06c.22 0 .43 0 .65-.01v-.02c10.3-.35 18.58-8.82 18.58-19.21Zm-19.84 6.01c.62 0 1.13-.5 1.13-1.13v-5.18l7.15-7.52c.43-.45.41-1.16-.04-1.59s-1.16-.41-1.59.04l-7.77 8.18v6.08c0 .62.5 1.13 1.13 1.13Z"/>
</svg>
