<svg viewBox="0 0 32 32" xmlns="http://www.w3.org/2000/svg">
  <path d="m4.92 23.98-1.67 1.11c-.39-.59-.75-1.21-1.06-1.86l1.8-.87c.27.56.58 1.11.92 1.62Zm1.14 1.48-1.5 1.33c.47.53.99 1.03 1.53 1.5l1.3-1.52c-.47-.4-.92-.84-1.33-1.3Zm1.76 4.1c.6.38 1.23.73 1.88 1.02l.83-1.82c-.56-.26-1.11-.55-1.64-.89l-1.08 1.69ZM2.87 18.82l-1.97.34c.12.71.29 1.41.51 2.08l1.91-.61c-.19-.59-.33-1.19-.44-1.81Zm8.84 12.51c.68.2 1.38.36 2.09.46l.3-1.98c-.62-.09-1.23-.23-1.82-.4zm4.36-30.17c-4.18 0-8.1 1.65-10.99 4.62l-1.2 1.13V.96c0-.55-.45-1-1-1s-1 .45-1 1v9.4h10.6c.55 0 1-.45 1-1s-.45-1-1-1H5.27l1.22-1.15c2.54-2.61 5.95-4.04 9.59-4.04 7.39 0 13.4 6.01 13.4 13.4s-6.01 13.4-13.4 13.4v2c8.49 0 15.4-6.91 15.4-15.4S24.57 1.16 16.07 1.16m.53 19.28v-4.08l5.65-5.95a1 1 0 0 0-.04-1.42 1 1 0 0 0-1.42.04l-6.2 6.53v4.88c0 .55.45 1 1 1s1-.45 1-1Z"/>
</svg>
