<svg viewBox="0 0 24 24" xmlns="http://www.w3.org/2000/svg">
  <path d="M3.77 20.42c.8.83 1.71 1.54 2.71 2.1l1.46-2.61c-.74-.41-1.42-.94-2.01-1.55l-2.16 2.07Zm-.1-6.56-2.95.5c.19 1.14.55 2.23 1.07 3.26l2.67-1.35c-.38-.76-.65-1.57-.79-2.41m20.04-1.45c0-6.39-5.2-11.58-11.58-11.58-2.91 0-5.64 1.07-7.74 2.98V1.49C4.39.66 3.72 0 2.89 0s-1.5.67-1.5 1.5v7.38h8.22c.83 0 1.5-.67 1.5-1.5s-.67-1.5-1.5-1.5H6.57a8.5 8.5 0 0 1 5.56-2.04c4.73 0 8.58 3.85 8.58 8.58s-3.66 8.38-8.23 8.56c-.13 0-.25 0-.37.02-.6 0-1.21-.06-1.8-.19l-.63 2.93c.8.17 1.61.26 2.43.26h.02c.37.02.66-.01.98-.04 5.93-.51 10.6-5.48 10.6-11.53ZM11.8 16.62c.83 0 1.5-.67 1.5-1.5v-2.54l3.74-3.93a1.5 1.5 0 0 0-2.17-2.07l-4.56 4.8v3.73c0 .83.67 1.5 1.5 1.5Z"/>
</svg>
