<svg viewBox="0 0 24 24" xmlns="http://www.w3.org/2000/svg">
  <path fill="#1e1e1c" d="m21.42 16.1-.21-5.2-.04-.24c-.73-2.22-1.77-3.59-2.85-4.43l1.26-.03.24-1.43 4.21.29L20.7.05l-.44-.02c-3.37-.17-5.68.8-7.22 1.89C11.57 1.08 9.94.58 8.13.49L7.69.47 7.41.8c-.51.6-1.13 1.68-1.31 2.59-1.23.18-2.62.65-4.13 1.62l-.28.18-1.66 6.14L4 9.32l.19.22c-.58.79-1.09 1.73-1.45 2.87l-.07.23 1.28 5.4 2.86-3.52 2.64.21.64-2.76.99-.22c1.39 3.21 1.45 7 1.48 9.75v.09c-.03.76.01 2.36.01 2.42l1.75-.04s-.02-.94-.02-1.72l2.02.63v1.1h1.75V21.7c0-3.7-.49-6.45-1.23-8.52l.8-.33 3.76 3.23ZM2.75 7.99l.46-1.68c3.44-2.07 5.9-1.14 6.97-.5-.93.19-3 .76-4.81 2.42l-.94-1.09zm7.76 2.1-1.88.42-.55 2.36-2.06-.16-1.19 1.47-.35-1.46c1.47-4.24 5.39-5.1 6.24-5.24l.16.04v.03l-.36 2.53Zm.3-5.91c-.69-.36-1.66-.73-2.86-.84.12-.32.31-.71.56-1.08 1.14.11 2.18.4 3.14.87-.38.4-.65.77-.83 1.05Zm1.52 1.25-.13-.18c.48-.77 2.55-3.57 7.53-3.5l.88 1.32-2.27-.17-.27 1.58-2.18.05-.22.52c-1.29-.23-2.64-.01-3.36.38Zm.72 6.47 1.06-.44s.02.04.04.06l.62 2.51.48-.19c.06.18.12.36.18.55l-1.6.38c-.18-.96-.43-1.92-.77-2.86Zm.88 3.51 1.89.59c.16.8.29 1.68.37 2.67l-1.99-.62c-.05-.86-.14-1.74-.28-2.64Zm.39 6.07c0-.58-.01-1.21-.03-1.86l1.95-.47c.05.75.08 1.54.09 2.4l-2.02.48v-.55Zm1.67-9.83-.64-2.59-1.65.68-1.02-2.41.26-.23.22-.13.02-.03c.3-.14 1.52-.49 2.9.02 1.5.56 2.63 1.95 3.37 4.12l.04 1.06-1.51-1.3-2 .81Z"/>
</svg>
