<svg viewBox="0 0 16 16" xmlns="http://www.w3.org/2000/svg">
  <path fill="#1e1e1c" d="m13.97 7.02.05 3.44-2.51-1.99-1.94.77-.35-1.48-.81.33-.19-.45v.03l-1.32.27-.48 1.99-1.79-.71-1.94 2.99-1.03-4.04.07-.2c.93-2.83 3.3-3.81 4.56-4.14-.38.05-3.47.5-4.95 3.38l-1.41.7 1.19-4.42.25-.16c2.21-1.39 4.15-1.27 5.45-.77-.64-.43-1.61-.83-2.85-.82.2-.57.57-1.13.81-1.41l.24-.28.38.02c1.2.06 2.3.38 3.28.92-.69.52-1.11 1.07-1.33 1.4.79-.97 2.56-2.47 5.83-2.33l.39.02 2.36 3.59-2.88-.2-.07.42c-.54-.42-1.11-.65-1.6-.75-.99-.2-2.08 0-2.58.33l-.3.16c.57-.2 1.39-.29 2.16-.13 1.07.22 2.51.97 3.27 3.3zm-3.84 7.44 1.59-.37a24 24 0 0 0-.15-1.86l-1.63-.5 1.53-.36c-.1-.66-.23-1.24-.37-1.77l-1.45.58L9.3 8.7l-.93.38-.32-1.04-.52.11c.49 1.56.68 3.27.77 4.79l1.56.48-1.52.36c0 .21.02.42.03.62 0 .5.06 1.6.06 1.6l.76-.04 1.07.05v.06l.76-.02.76-.02-.03-1.03-1.63-.5Z"/>
</svg>
