<svg viewBox="0 0 16 16" xmlns="http://www.w3.org/2000/svg">
  <path fill="#1e1e1c" d="m14.01 10.46-.05-3.45-.04-.22c-.38-1.16-.92-1.93-1.5-2.43h.47l.15-.91 2.87.2L13.56.04l-.39-.02c-1.98-.09-3.41.44-4.4 1.08-1-.57-2.12-.91-3.35-.97L5.04.11 4.8.39c-.28.33-.75 1.06-.9 1.73-.79.14-1.64.45-2.54 1.02l-.25.16-1.19 4.46 2.54-1.27c-.28.43-.52.91-.71 1.47l-.07.2.96 3.79 2.03-2.39 1.81.14.42-1.77.3-.06c.94 2.12.99 4.65 1.01 6.51-.02.51 0 1.63 0 1.63l1.51-.04s-.01-.52-.01-.99l1.02.32v.69h1.51v-1.52c0-2.6-.4-4.51-.98-5.91l.24-.1zm-1.56-3.17-.68-.55-1.12.45-.35-1.5-.74.3c-.2-.18-.4-.34-.59-.48l-.16-.38.18-.11c.22-.08.99-.28 1.76.03.76.3 1.33 1 1.7 2.08v.14Zm-2.74 6.04.98-.23c.02.38.04.79.04 1.22l-1.01.24v-.23c0-.31 0-.65-.02-.99Zm.94-.66-.98-.3q-.03-.585-.09-1.2l.92.29c.06.38.11.78.15 1.21m2.07-11.16.28.43-1.22-.08-.18 1.02-1.33.04-.21.5c-.61-.03-1.18.06-1.61.23l-.09-.12c.41-.6 1.67-2 4.35-2.01Zm-5.19.65c-.13.15-.25.29-.34.41-.46-.23-1.03-.42-1.68-.49.06-.13.13-.27.22-.41.65.07 1.24.24 1.8.49M2.42 4.28c1.74-1.01 3.08-.8 3.86-.47-.69.18-1.69.56-2.61 1.32l-.56-.65-.86.43zm3.23 2.39L5.3 8.12l-1.29-.1-.62.73-.13-.52c.88-2.35 3.1-2.93 3.8-3.06l-.19 1.25zm4.61 3.67-.76.18c-.12-.87-.32-1.76-.63-2.62l.25-.1c.06.08.11.15.17.24l.28 1.21.28-.11c.15.36.29.76.41 1.22Z"/>
</svg>
