<svg viewBox="0 0 32 32" xmlns="http://www.w3.org/2000/svg">
  <path fill="#1e1e1c" d="m28.34 21.06-.26-6.56-.05-.27c-1.08-3.31-2.68-5.19-4.29-6.24l2.35.24.35-2.09 5.55.43L26.64.05 26.2.03c-4.39-.2-7.24 1.04-9.07 2.49C15.25 1.47 13.16.87 10.87.76l-.5-.03-.32.38c-.69.83-1.5 2.27-1.71 3.44-1.72.21-3.69.86-5.86 2.26l-.32.21-2.18 7.91 5.16-2.65.53.62c-.73 1.02-1.36 2.23-1.82 3.68l-.08.26 1.61 6.84 3.65-4.51 3.46.27.85-3.65 1.54-.34c1.93 4.35 2.02 9.48 2.05 13.22v.94h.01V32h2c0-1.07 0-1.85-.01-2.43l3 .82V32h2v-3.06c0-5.12-.7-8.88-1.73-11.65l1.32-.4 4.83 4.17Zm-2.26-6.34.07 1.82-2.18-1.88-3.04.92-.49-3.35-2.27.94-1.43-3.42.02-.11.4-.36.29-.16.04-.05c.44-.22 2.13-.67 3.95 0 2.07.75 3.64 2.66 4.64 5.66Zm-7.2 14.09h.04v-.17c0-.81-.02-1.69-.05-2.61l2.92-.59c.08 1.04.12 2.15.12 3.35l-3 .6c0-.23-.02-.43-.03-.59Zm-.1-4.65c-.08-1.24-.2-2.53-.42-3.83l2.85.78c.24 1.15.43 2.43.55 3.87zm6.88-22.15 1.81 2.2-2.7-.21-.35 2.05-3.12-.31-.37 1.12c-1.91-.37-3.71.04-4.55.56l-.31-.44c.3-.76 2.33-5.12 9.58-4.98Zm-14.38.78c1.56.14 3 .56 4.32 1.22-.54.66-.91 1.27-1.14 1.72a10 10 0 0 0-4.06-1.22c.16-.48.47-1.13.87-1.72ZM5.64 9.78l-2.52 1.29.77-2.78c5.28-3.24 8.9-1.38 10.13-.52v.03c-.94.15-4.27.86-7.02 3.57L5.65 9.78Zm6.03 4.34-.74 3.19-2.79-.22-1.74 2.16-.55-2.33c1.99-5.85 7.4-6.99 8.47-7.16l.32.09.07.16-.52 3.55-2.5.56Zm9.1 5.19-2.49.5c-.25-1.36-.6-2.73-1.09-4.06l1.66-.69.45 3.11.99-.3q.255.675.48 1.44"/>
</svg>
