<svg viewBox="0 0 64 64" xmlns="http://www.w3.org/2000/svg">
  <path fill="#1e1e1c" d="m53.59 27.85.14 9-7.24-5.83-6.48 2.62-1.4-5.96-3.62 1.49-2.6-6.15-.55-.15-.85 5.66-5.08 1.07-1.63 6.82-6.39-2.58-5.88 9.19-2.64-10.54.07-.2c3.59-11.01 13.32-14.41 17.48-15.38l-.96-.26-.23.02c-.12.01-9.63 1.07-15.88 8.76L9.49 25 0 30.23l4.49-13.36.21-.14c8.59-5.78 15.29-6.06 19.4-5.27 2.49.47 4.32 1.37 5.5 2.09-.24-.38-.72-.71-1.35-1-1.2-.88-3.48-2.26-6.69-3.04-1.06-.26-2.28-.45-3.64-.53.24-1.94 1.68-4.8 3.2-6.61l.24-.28.37.02c4.69.24 8.96 1.5 12.74 3.75-2.5 2.63-3.6 4.88-3.63 4.94l-.09.19v.08C33.33 7.45 40.91-.71 56.42.05l.38.02L64 11.01l-10.3-.75-.78 5.44-6.94-2.32-.53 1.62c-.18-.05-.37-.09-.55-.13-3.9-.81-7.75.2-8.96 1.12l-.1.06c1.65-.43 3.98-.66 6.42-.15 3.67.77 8.61 3.42 11.29 11.74l.04.22ZM38.98 58.23l5.73-.98c-.19-4.85-.61-9.06-1.21-12.73l-5.11-1.24 4.75-.81c-.48-2.52-1.05-4.75-1.67-6.73l-1.59.64-1.4-5.96-3.73 1.54-1.84-7.18-.83 5.53c2.17 6.31 3.03 13.27 3.45 19.45l4.64 1.12-4.52.77c.11 1.9.18 3.71.25 5.37v.32c.02 1.95.25 6.47.26 6.65h8.77l-.14-4.36-5.82-1.41Z"/>
</svg>
