<svg viewBox="0 0 64 64" xmlns="http://www.w3.org/2000/svg">
  <path fill="#1e1e1c" d="M56.13 28.09c-2.46-7.59-6.4-11.31-10.08-13.08l6.37.65.72-4.25 10.82.79L53.78.08l-.6-.03c-9.28-.48-15.2 2.38-18.86 5.53-3.76-2.16-7.98-3.38-12.59-3.62l-.68-.04-.44.52c-1.34 1.6-2.98 4.54-3.33 6.77-3.69.17-8.14 1.31-13.11 4.49l-.45.29-3.77 14.22 9.84-4.75 2.15 2.52c-1.47 2.01-2.75 4.41-3.66 7.29l-.11.36 2.9 12.3 6.72-8.3 6.74.53 1.67-7.17 4.03-.9c4.12 8.93 4.26 19.56 4.34 27.24v.71l.02.02c.01.97.02 4.01.02 5.96h2.75V59l7.27 1.56v3.46h2.75V57.9c0-10.51-1.47-18.12-3.59-23.64l3.73-1.51 9 7.48-.31-11.92-.06-.19ZM52.44 2.77l5.22 6.21-6.82-.5-.7 4.18-6.54-.67-.63 1.92c-.19-.05-.39-.09-.58-.13-4.48-.91-8.56.28-9.85 1.28l-.49.28-.51-.72.09-.97c.5-1.35 4.83-11.42 20.81-10.88M22.3 4.75c3.63.27 6.98 1.22 10 2.83-1.8 2.05-2.74 3.93-3.12 4.82a19.8 19.8 0 0 0-9.12-3.12c.28-1.11 1.07-2.96 2.24-4.52ZM10.5 20.06l-6.36 3.07 1.96-7.39c12.63-7.79 21.2-1.46 22.61-.29l-.06.55c-.23.03-8.61 1.09-14.93 7.83l-3.23-3.77Zm13.41 8.61-1.53 6.55-5.82-.45-4.11 5.07-1.44-6.1c4.16-12.49 15.8-14.69 17.7-14.97l.61.17.68 1.61-1.04 6.99-5.07 1.14Zm20.7 29.21v.06l-7.27 1c0-.63-.02-1.03-.04-1.3h.02v-.35c-.02-1.82-.05-3.8-.12-5.88l7.13-.77c.17 2.23.28 4.63.28 7.24m-7.54-9.12c-.16-2.76-.44-5.65-.95-8.57l6.91 1.41c.55 2.51.99 5.36 1.26 8.6zm5.33-9.74-6.33.83c-.78-4.37-2.08-8.77-4.24-12.8l.24-1.62 2.07 4.93L38 29.19c.41.59.83 1.24 1.24 1.96l.24 4.82 1.7-.69c.44 1.14.85 2.38 1.23 3.74Zm5.6-9.46-5.97 2.41-.34-6.78L35.72 27l-2.87-6.83.27-1.84.66-.59-.11-.16.55-.31.09-.1c.77-.48 4.76-1.71 9.03-.3 4.62 1.52 8.02 5.52 10.12 11.89l.14 5.46-5.6-4.65Z"/>
</svg>
