<svg viewBox="0 0 40 40" xmlns="http://www.w3.org/2000/svg">
  <path fill="none" d="M0-.07h40v40H0z"/>
  <path fill="#1e1e1c" d="M26.57 15.66h-8c.61-1.65 2.2-2.8 4-2.8s3.41 1.16 4 2.8M4.65 39.95H3.53V15.66H0L19.79-.05l20.22 15.71h-3.8v18.59c-.07-4.03-3.36-7.28-7.4-7.28H17.24c-4.08 0-7.41 3.33-7.41 7.42v5.57H4.66Zm7.32-23.16c0 .62.5 1.13 1.12 1.13h3.11v.07c0 3.59 2.92 6.52 6.51 6.52s6.51-2.92 6.51-6.52c0-.52-.07-1.02-.18-1.51a6.503 6.503 0 0 0-6.47-5.87c-3.03 0-5.67 2.11-6.34 5.05H13.1c-.62 0-1.12.5-1.12 1.13Zm4.18 23.16h2.25v-4.21h-2.25zm13.38-8.48h-5.82v2.25h5.82zm1.03 4.28h-2.25v4.21h2.25z"/>
</svg>
