<svg viewBox="0 0 32 32" xmlns="http://www.w3.org/2000/svg">
  <path fill="#1e1e1c" d="M32.02 12.76h-2.91v19.25h-2.05v-4.45c0-2.21-1.8-4.01-4.01-4.01h-9.23c-2.21 0-4.01 1.8-4.01 4.01v4.45h-2v-4.45c0-3.31 2.7-6.01 6.01-6.01h9.23c1.57 0 2.99.61 4.06 1.59V11.43L15.92 2.56 4.85 11.44V32h-2V12.76H.02L15.91 0l16.1 12.75Zm-22.5.78c0-.55.45-1 1-1h2.42c.58-2.34 2.7-4.02 5.14-4.02 2.72 0 4.98 2.07 5.24 4.74.1.4.16.81.16 1.23 0 2.92-2.38 5.3-5.29 5.3s-5.26-2.35-5.29-5.25h-2.38c-.55 0-1-.45-1-1m5.52-1.01h6.08a3.296 3.296 0 0 0-6.08 0m6.43 2.01h-6.58c.03 1.79 1.49 3.25 3.29 3.25s3.26-1.45 3.29-3.25m2.15 10.59h-4.64v2h4.64zM12.85 32h2v-3.37h-2zm9.69 0h2v-3.37h-2z"/>
</svg>
