<svg viewBox="0 0 24 24" xmlns="http://www.w3.org/2000/svg">
  <path fill="#1e1e1c" d="M21.85 20.55c0 .06.02.11.02.16v3.32h-1.76v-3.48c-.09-1.5-1.32-2.69-2.83-2.69h-6.85c-1.57 0-2.84 1.28-2.84 2.85v3.32H5.84v-3.32c0-2.54 2.06-4.61 4.59-4.61h6.85c1.07 0 2.05.39 2.83 1V8.9l-8.18-6.61-8.09 6.66v15.07H2.09V9.82H.02L11.92.03l12.09 9.8h-2.17v10.72ZM7.1 10.28c0-.48.39-.88.87-.88h1.69a4.07 4.07 0 0 1 3.92-2.99c2.08 0 3.8 1.58 4.02 3.63.07.31.12.62.12.95 0 2.25-1.82 4.07-4.06 4.07s-3.95-1.74-4.04-3.91H7.97c-.48 0-.87-.39-.87-.88Zm4.43-.88h4.09c-.39-.74-1.16-1.24-2.05-1.24s-1.65.49-2.05 1.24Zm4.43 1.76h-4.59c.09 1.2 1.08 2.15 2.3 2.15s2.21-.95 2.3-2.15Zm1.74 7.62h-3.44v1.75h3.44zm-8.13 5.25h1.75v-2.51H9.57zm7.2 0h1.75v-2.51h-1.75z"/>
</svg>
