<svg viewBox="0 0 48 48" xmlns="http://www.w3.org/2000/svg">
  <path fill="#1e1e1c" d="M42.34 40.36c.03.31.05.62.05.94V48h-2.55v-7.47c-.38-3.11-3.03-5.52-6.23-5.52H19.73c-3.47 0-6.29 2.82-6.29 6.29V48h-2.5v-6.7c0-4.85 3.94-8.79 8.78-8.79H33.6c2.44 0 4.64 1 6.23 2.61V16.28h.87L23.77 3.18 7.22 16.28h.63V48h-2.5V18.78H.03L23.75 0l24.28 18.78h-5.69zM18.59 22.64v-.18h-3.83a1.25 1.25 0 0 1 0-2.5h3.84a7.716 7.716 0 0 1 7.53-6.05c3.98 0 7.28 3.03 7.65 6.94.14.58.22 1.18.22 1.79 0 4.25-3.46 7.71-7.71 7.71s-7.71-3.46-7.71-7.71Zm12.92 0c0-.06-.01-.12-.02-.18H21.1c0 .06-.02.12-.02.18 0 2.87 2.34 5.21 5.21 5.21s5.21-2.34 5.21-5.21Zm-10.32-2.68h9.88c-.69-2.07-2.65-3.55-4.94-3.55s-4.24 1.46-4.94 3.55m13.29 17.95h-6.97v2.5h6.97zM18.53 48h2.5v-5.07h-2.5zm14.58 0h2.5v-5.07h-2.5z"/>
</svg>
