<svg viewBox="0 0 48 48" xmlns="http://www.w3.org/2000/svg">
  <path d="M24.48 25.91c.34 1.24.78 2.65 1.37 4.04-.88.04-1.82.06-2.75.05.59-1.41 1.05-2.83 1.39-4.09Zm-9.62 1.75c-1.01 1.87-.93 5.4.17 6.75.34.42.63.44.99.33 3.58-1.06 5.65-7.36 6.49-11.28-3.05.98-6.78 2.6-7.65 4.2m24.93-19.2V2.51c0-1.39-1.12-2.51-2.5-2.51h-26.8c-1.38 0-2.5 1.12-2.5 2.51v5.95zM21.88 32.47c-.47.81-1 1.57-1.58 2.24 2.55.23 6.34.17 8.22-.18-.55-.65-1.03-1.37-1.47-2.14-.93.08-2.02.13-3.36.13-.62 0-1.22-.02-1.8-.04Zm3.77-12.6c-.15-.77-.82-1.36-1.63-1.36s-1.49.59-1.63 1.36c.53-.11 1.07-.18 1.63-.18s1.1.07 1.63.18m22.32 9.37c0 3.77-.83 7.33-2.32 10.52-.37.8-.79 1.57-1.24 2.32-.23.37-.46.74-.71 1.1-1.22 1.8-2.67 3.42-4.31 4.83H8.55A24.4 24.4 0 0 1 5 44.24a24.73 24.73 0 0 1-5.03-15q0-.63.03-1.26c.04-.84.12-1.66.25-2.47a24 24 0 0 1 1.18-4.7c.27-.75.57-1.48.91-2.2a24.4 24.4 0 0 1 5.65-7.65s31.94 0 31.94 0c.34.31.69.63 1.01.96.54.55 1.06 1.14 1.55 1.74a24.6 24.6 0 0 1 4.02 7.16c.4 1.13.73 2.29.97 3.49.08.4.15.8.21 1.21.12.81.2 1.64.25 2.47q.03.63.03 1.26ZM36.3 26.47c-.47-.87-1.32-1.65-2.35-2.35l1.32-1.32c.49-.49.49-1.28 0-1.77a1.25 1.25 0 0 0-1.77 0l-1.81 1.81c-.67-.32-1.34-.62-2-.88-.47-.44-.99-.83-1.55-1.16.03-.2.05-.41.05-.62 0-.97-.34-1.85-.89-2.55l.74-.74c.49-.49.49-1.28 0-1.77a1.25 1.25 0 0 0-1.77 0l-1.04 1.04s-.01.02-.02.03c-.38-.11-.77-.19-1.18-.19s-.8.08-1.18.19c0 0-.01-.02-.02-.03l-1.04-1.04c-.49-.49-1.28-.49-1.77 0s-.49 1.28 0 1.77l.74.74c-.55.71-.89 1.59-.89 2.55 0 .21.02.42.05.62-.84.48-1.59 1.09-2.22 1.82-.35.16-.7.34-1.04.51l-2.11-2.12a1.25 1.25 0 0 0-1.77 0 1.25 1.25 0 0 0 0 1.77l1.71 1.71c-.78.6-1.43 1.25-1.82 1.96-1.5 2.77-1.3 7.39.42 9.52.35.44.76.76 1.21.98l-1.53 1.53a1.25 1.25 0 0 0 0 1.77c.24.24.56.37.88.37s.64-.12.88-.37l2.18-2.19c1.41 2.59 4.16 4.36 7.3 4.36s5.89-1.77 7.3-4.35l2.18 2.18c.24.25.56.37.88.37s.64-.12.88-.37c.49-.49.49-1.28 0-1.77l-1.29-1.29c.72-.16 1.37-.58 1.9-1.22 1.72-2.12 1.92-6.75.42-9.52Zm-17.27 10.6c1.01 1.71 2.87 2.87 5 2.87s4.09-1.21 5.09-2.99c-1.18.25-2.9.42-5.43.42-1.75 0-3.38-.11-4.65-.29Zm15.07-9.41c-.87-1.6-4.61-3.23-7.65-4.2.84 3.92 2.92 10.22 6.49 11.28.36.11.65.09.99-.33 1.09-1.35 1.18-4.88.17-6.75"/>
</svg>
