<svg viewBox="0 0 24 24" xmlns="http://www.w3.org/2000/svg">
  <path d="M11.82 18.91c.69 0 1.26-.03 1.75-.07-.42.37-.97.6-1.58.6s-1.12-.22-1.54-.58c.43.03.89.04 1.37.04Zm-4.18-4.98c-.49.9-.38 2.55.06 3.09.09.11.13.11.23.08 1.54-.46 2.51-3.14 2.97-5.02-1.42.49-2.91 1.2-3.26 1.84Zm4.59-.09c-.09.29-.19.59-.31.89.21 0 .41 0 .62-.01-.12-.3-.21-.59-.31-.88m7.65-10.18V1.74c0-.97-.78-1.75-1.75-1.75H5.73c-.97 0-1.75.79-1.75 1.75v1.92zm-8.06 12.82c-.26 0-.51 0-.75-.02-.14.23-.28.45-.44.65 1.03.06 2.29.04 3.14-.07a8 8 0 0 1-.41-.62c-.44.03-.94.05-1.54.05Zm12.15-1.88c0 .47-.03.94-.08 1.39s-.13.91-.22 1.35c-.3 1.32-.8 2.56-1.48 3.68s-1.53 2.12-2.51 2.96H4.26a12.7 12.7 0 0 1-1.78-1.88 12.4 12.4 0 0 1-2.51-7.5c0-3.63 1.56-6.89 4.01-9.13v-.06h15.91c2.49 2.25 4.08 5.52 4.08 9.19m-5.61-1.51c-.22-.4-.58-.76-1.01-1.08l.45-.45c.34-.34.34-.9 0-1.24a.88.88 0 0 0-1.24 0l-.78.78c-.57-.27-1.15-.49-1.67-.67-.02-.01-.04-.02-.05-.03 0-.05.01-.09.01-.13 0-.39-.11-.75-.3-1.07l.4-.4c.34-.34.34-.9 0-1.24a.88.88 0 0 0-1.24 0l-.52.52s-.06.09-.09.13q-.165-.03-.33-.03c-.165 0-.22.02-.33.03-.03-.04-.05-.09-.09-.13l-.52-.52a.88.88 0 0 0-1.24 0c-.34.34-.34.9 0 1.24l.4.4c-.19.31-.3.67-.3 1.07 0 .05.01.09.01.13q-.3.18-.57.39c-.33.14-.67.29-1 .45l-.93-.93a.88.88 0 0 0-1.24 0c-.34.34-.34.9 0 1.24l.66.66c-.32.27-.58.56-.75.88-.73 1.34-.78 3.78.23 5.03.12.15.26.27.4.38l-.54.54a.881.881 0 0 0 .62 1.5c.22 0 .45-.09.62-.26l1.05-1.05c.74 1.17 2.03 1.96 3.51 1.96s2.78-.78 3.52-1.96l1.05 1.05c.17.17.4.26.62.26s.45-.09.62-.26c.34-.34.34-.9 0-1.24l-.36-.36c.25-.13.49-.31.69-.56 1.01-1.26.96-3.7.23-5.03Zm-4.8-1.01c.46 1.88 1.43 4.56 2.97 5.02.1.03.14.03.23-.08.43-.54.54-2.2.06-3.09-.35-.64-1.84-1.35-3.26-1.84Z"/>
</svg>
