<svg viewBox="0 0 32 32" xmlns="http://www.w3.org/2000/svg">
  <path d="M16.31 17.95c.18.6.39 1.24.65 1.87-.42.02-.86.03-1.31.02.26-.64.48-1.29.66-1.9Zm-1.63 3.89c-.25.42-.52.81-.82 1.18 1.54.11 3.59.08 4.81-.1a10 10 0 0 1-.76-1.13c-.6.05-1.3.08-2.14.08-.38 0-.74 0-1.09-.02Zm2.04-8.65c-.11-.29-.39-.5-.72-.5s-.61.21-.72.5c.24-.03.48-.05.72-.05s.48.02.72.05m9.8-8.01V2.02c0-1.1-.9-2-2-2H7.32a2 2 0 0 0-2 2v3.16zm5.45 14.33c0 4.4-1.7 8.38-4.47 11.32-.4.42-.81.82-1.25 1.19H5.69c-.44-.37-.85-.77-1.25-1.19A16.46 16.46 0 0 1-.03 19.51c0-3.95 1.37-7.57 3.65-10.39.52-.64 1.09-1.22 1.69-1.77v-.16h21.2v.06c3.34 2.99 5.45 7.37 5.45 12.26Zm-7.63-1.93c-.3-.56-.82-1.06-1.45-1.51l.74-.74c.39-.39.39-1.03 0-1.42s-1.02-.39-1.41 0l-1.11 1.12c-.57-.27-1.15-.51-1.7-.71a7 7 0 0 0-.65-.44c.02-.13.04-.27.04-.41 0-.58-.18-1.12-.49-1.57l.5-.5c.39-.39.39-1.03 0-1.42s-1.02-.39-1.42 0l-.69.7-.06.09c-.2-.05-.41-.08-.62-.08s-.42.03-.62.08c-.02-.03-.03-.06-.06-.09l-.69-.7c-.39-.39-1.02-.39-1.41 0s-.39 1.03 0 1.42l.5.5c-.31.45-.49.99-.49 1.57 0 .14.02.28.04.42-.42.24-.8.53-1.15.87-.34.15-.67.31-1 .48l-1.32-1.32c-.39-.39-1.02-.39-1.41 0s-.39 1.03 0 1.42l1 1c-.47.38-.85.8-1.1 1.25-1.03 1.89-.88 5.07.3 6.53.2.25.43.43.67.58l-.87.87c-.39.39-.39 1.03 0 1.42.2.2.45.29.71.29s.51-.1.71-.29l1.43-1.44c.97 1.65 2.74 2.76 4.77 2.76s3.81-1.11 4.78-2.75l1.42 1.43c.2.2.45.29.71.29s.51-.1.71-.29c.39-.39.39-1.03 0-1.42l-.67-.67c.41-.15.78-.4 1.09-.79 1.18-1.46 1.32-4.63.29-6.53Zm-1.76.95c-.51-.94-2.73-1.96-4.73-2.63.59 2.59 1.92 6.45 4.15 7.11.2.06.32.05.49-.17.68-.84.73-3.14.09-4.31m-9.31 6.44c.65.8 1.63 1.33 2.74 1.33s2.14-.55 2.79-1.38c-.75.11-1.73.17-3.02.17-.91 0-1.77-.04-2.51-.12m1.45-9.05c-1.99.67-4.17 1.68-4.67 2.61-.64 1.17-.59 3.47.09 4.31.17.21.29.22.49.17 2.21-.66 3.54-4.48 4.14-7.06-.02 0-.03-.02-.05-.02Z"/>
</svg>
