<svg viewBox="0 0 64 64" xmlns="http://www.w3.org/2000/svg">
  <path d="M53.1 14.42V2.74c0-1.52-1.23-2.75-2.75-2.75H13.46c-1.52 0-2.75 1.23-2.75 2.75v11.87C4.15 20.59.01 29.28.01 38.97s4.45 19.02 11.44 25.02h41.13C59.57 58 64.02 49.02 64.02 38.97s-4.23-18.56-10.91-24.55ZM13.46 2.74h36.9v11.23h-36.9zm38.07 58.5H12.49c-6.2-5.68-9.73-13.74-9.73-22.27s3.76-16.77 9.73-22.25h39.05c5.96 5.48 9.73 13.42 9.73 22.25s-3.53 16.58-9.73 22.27ZM48.2 34.9c-.61-1.11-1.7-2.13-3.03-3.03l1.71-1.71c.54-.54.54-1.41 0-1.94s-1.41-.54-1.94 0l-2.22 2.22a37 37 0 0 0-3.46-1.53c-.53-.45-1.08-.86-1.69-1.21q.06-.405.06-.81c0-1.4-.52-2.67-1.36-3.64l.95-.95c.54-.54.54-1.41 0-1.94s-1.41-.54-1.94 0l-1.3 1.31c-.59-.21-1.22-.34-1.89-.34s-1.3.12-1.89.34l-1.3-1.31c-.54-.54-1.41-.54-1.94 0-.54.54-.54 1.41 0 1.94l.95.95a5.53 5.53 0 0 0-1.3 4.46c-1 .57-1.9 1.3-2.68 2.14-.69.32-1.37.66-2.03 1.02l-2.65-2.65c-.54-.54-1.41-.54-1.94 0-.54.54-.54 1.41 0 1.94l2.23 2.23c-1 .77-1.83 1.61-2.32 2.52-1.95 3.6-1.7 9.61.53 12.36.64.79 1.42 1.3 2.28 1.52l-2.72 2.73c-.54.54-.54 1.41 0 1.94.27.27.62.4.97.4s.71-.13.97-.4l2.97-2.98c1.84 3.6 5.58 6.08 9.88 6.08s8.03-2.48 9.87-6.08l2.98 2.98c.27.27.62.4.97.4s.7-.13.97-.4c.54-.54.54-1.41 0-1.94l-2.62-2.62c.06 0 .11.01.17.01 1.24 0 2.36-.56 3.23-1.64 2.23-2.75 2.49-8.76.53-12.36Zm-19.42 8.06c.9.05 1.85.08 2.84.08 2 0 3.61-.08 4.91-.21.72 1.21 1.53 2.32 2.45 3.26-2.26.75-9.17.87-12.95.36 1.04-.98 1.95-2.18 2.74-3.49Zm1.4-2.68c1.17-2.57 1.98-5.26 2.51-7.42.52 2.13 1.32 4.79 2.47 7.33-1.55.1-3.3.13-4.98.09m1.9-16.2c1.44 0 2.62 1.1 2.77 2.51-.89-.23-1.81-.36-2.77-.36s-1.88.13-2.77.36c.15-1.41 1.33-2.52 2.77-2.52ZM19.61 36.22c.34-.63 1-1.25 1.86-1.86l.08.08c.02-.07.06-.13.08-.19 2.28-1.57 5.86-3 8.83-3.92-1.07 5.24-3.91 14.25-8.96 15.75-.67.2-1.17.04-1.63-.53-1.52-1.87-1.65-6.75-.25-9.32Zm12.47 17.59c-3.35 0-6.24-1.99-7.57-4.85.25.05.49.09.69.12 1.71.27 3.98.42 6.42.42 4.16 0 6.65-.34 8.14-.79-1.27 3-4.23 5.1-7.69 5.1Zm13.45-8.27c-.47.57-.95.73-1.63.53-5.05-1.5-7.89-10.51-8.96-15.75 4.19 1.3 9.6 3.6 10.85 5.89 1.39 2.57 1.26 7.45-.25 9.32Z"/>
</svg>
