<svg viewBox="0 0 16 16" xmlns="http://www.w3.org/2000/svg">
  <path d="M13.24 3.6V1.49c0-.82-.66-1.49-1.49-1.49H4.14c-.83 0-1.49.67-1.49 1.49v2.16C1.01 5.15-.03 7.32-.03 9.74s1.11 4.76 2.86 6.25h10.28c1.75-1.5 2.86-3.74 2.86-6.25S14.91 5.1 13.24 3.6m-9.1-2.11h7.61v1.18H4.14zm8.39 13.01H3.41a6.76 6.76 0 0 1-1.95-4.76c0-2.33 1.18-4.37 2.95-5.56h7.12a6.69 6.69 0 0 1 2.95 5.56c0 1.8-.7 3.5-1.95 4.76m-.16-5.84c-.13-.24-.34-.45-.58-.65l.18-.18c.29-.29.29-.77 0-1.06s-.76-.29-1.06 0l-.44.44c-.39-.18-.76-.32-1.1-.43 0-.17-.05-.34-.11-.49l.3-.3c.29-.29.29-.77 0-1.06s-.77-.29-1.06 0l-.35.35a.8.8 0 0 0-.12.19h-.08a.8.8 0 0 0-.12-.19l-.35-.35c-.29-.29-.77-.29-1.06 0s-.29.77 0 1.06l.3.3c-.07.15-.1.32-.11.49-.18.08-.34.18-.49.3-.17.07-.34.15-.51.23l-.54-.54c-.29-.29-.77-.29-1.06 0s-.29.77 0 1.06l.32.32c-.17.16-.31.33-.41.51-.51.94-.54 2.65.17 3.54.05.06.1.11.16.16l-.24.24c-.29.29-.29.77 0 1.06.15.15.34.22.53.22s.38-.07.53-.22l.68-.69c.5.71 1.32 1.17 2.24 1.17.93 0 1.74-.47 2.25-1.17l.68.68c.15.15.34.22.53.22s.38-.07.53-.22c.29-.29.29-.77 0-1.06l-.1-.1q.18-.12.33-.3c.72-.89.68-2.6.17-3.54Zm-1.31 2.59c-.84-.25-1.45-1.7-1.79-2.93.86.32 1.62.73 1.79 1.05.34.62.18 1.73 0 1.88M5.23 9.37c.17-.32.93-.72 1.79-1.05-.33 1.23-.94 2.68-1.75 2.95-.22-.17-.38-1.28-.04-1.9m2.91.36c.09.25.2.5.32.75-.21 0-.42.01-.64.01.12-.25.23-.51.32-.76m-.15 2.91c-.48 0-.89-.28-1.11-.68.31.02.64.04.99.04.48 0 .88-.02 1.24-.06-.21.41-.63.7-1.12.7"/>
</svg>
