<svg viewBox="0 0 32 32" xmlns="http://www.w3.org/2000/svg">
  <path d="M30.47 14.58c-.1-1.09-.3-2.15-.58-3.17s-.65-1.99-1.1-2.91C26.33 3.44 21.52 0 16 0S5.68 3.44 3.22 8.5c-.45.92-.82 1.9-1.1 2.91s-.48 2.08-.58 3.17c-.05.55-.08 1.1-.08 1.66 0 2.38.46 4.65 1.29 6.68.5 1.22 1.12 2.36 1.86 3.4.25.35.51.68.78 1 1.89 2.25 4.36 3.91 7.14 4.67h1.52v-8.01l-1.78-2.52v-5.4a4.6 4.6 0 0 1 .3-1.62c.19-.5.46-.95.8-1.33.68-.76 1.61-1.22 2.65-1.22s1.97.47 2.65 1.22c.34.38.61.83.8 1.33a4.6 4.6 0 0 1 .3 1.62v5.4l-1.51 2.52v8.01h1.25c2.78-.76 5.24-2.41 7.14-4.67.27-.32.53-.66.78-1 .74-1.04 1.37-2.18 1.86-3.4a17.7 17.7 0 0 0 1.21-8.34ZM8.96 6.67c.83 0 1.5.67 1.5 1.5s-.67 1.5-1.5 1.5-1.5-.67-1.5-1.5.67-1.5 1.5-1.5m-3.63 9.35c0-.83.67-1.5 1.5-1.5s1.5.67 1.5 1.5-.67 1.5-1.5 1.5-1.5-.67-1.5-1.5m3.77 9.39c-.83 0-1.5-.67-1.5-1.5s.67-1.5 1.5-1.5 1.5.67 1.5 1.5-.67 1.5-1.5 1.5m6.91-19.27c-.83 0-1.5-.67-1.5-1.5s.67-1.5 1.5-1.5 1.5.67 1.5 1.5-.67 1.5-1.5 1.5m7.03.53c.83 0 1.5.67 1.5 1.5s-.67 1.5-1.5 1.5-1.5-.67-1.5-1.5.67-1.5 1.5-1.5m-.2 18.74c-.83 0-1.5-.67-1.5-1.5s.67-1.5 1.5-1.5 1.5.67 1.5 1.5-.67 1.5-1.5 1.5m2.33-7.89c-.83 0-1.5-.67-1.5-1.5s.67-1.5 1.5-1.5 1.5.67 1.5 1.5-.67 1.5-1.5 1.5"/>
</svg>
