<svg viewBox="0 0 24 24" xmlns="http://www.w3.org/2000/svg">
  <path d="M19.7 3.59c-.38-.42-.79-.8-1.22-1.16-.32-.26-.65-.51-.99-.73C15.88.65 14.01.03 12 .03 5.98.03 1.1 5.49 1.1 12.22c0 3.58 1.38 6.79 3.58 9.01C6 22.56 7.61 23.54 9.4 24.04h1.14v-6.01L9.2 16.14v-4.05c0-.43.08-.84.22-1.22.43-1.12 1.42-1.91 2.59-1.91s2.16.79 2.58 1.91c.14.37.22.79.22 1.22v4.05l-1.13 1.89v6.01h.94c4.76-1.31 8.3-6.1 8.3-11.82 0-3.37-1.23-6.42-3.21-8.63ZM6.72 5.23c.62 0 1.12.5 1.12 1.12s-.5 1.12-1.12 1.12-1.12-.5-1.12-1.12.5-1.12 1.12-1.12M4 12.24c0-.62.5-1.12 1.12-1.12s1.12.5 1.12 1.12-.5 1.12-1.12 1.12S4 12.86 4 12.24m2.82 6.86c-.62 0-1.12-.5-1.12-1.12s.5-1.12 1.12-1.12 1.12.5 1.12 1.12-.5 1.12-1.12 1.12m5.19-14.27c-.62 0-1.12-.5-1.12-1.12s.5-1.12 1.12-1.12 1.12.5 1.12 1.12-.5 1.12-1.12 1.12m5.27.4c.62 0 1.12.5 1.12 1.12s-.5 1.12-1.12 1.12-1.12-.5-1.12-1.12.5-1.12 1.12-1.12m-.15 13.87c-.62 0-1.12-.5-1.12-1.12s.5-1.12 1.12-1.12 1.12.5 1.12 1.12-.5 1.12-1.12 1.12m1.75-5.74c-.62 0-1.12-.5-1.12-1.12s.5-1.12 1.12-1.12 1.12.5 1.12 1.12-.5 1.12-1.12 1.12"/>
</svg>
