<svg viewBox="0 0 40 40" xmlns="http://www.w3.org/2000/svg">
  <path d="M20 .01C9.96.01 1.82 9.1 1.82 20.32c0 9.54 5.89 17.51 13.83 19.7h1.9V30.01l-2.23-3.15v-6.75c0-2.88 2.09-5.22 4.68-5.22s4.68 2.34 4.68 5.22v6.75l-1.89 3.15v10.01h1.56c7.93-2.18 13.83-10.16 13.83-19.7C38.18 9.1 30.04.01 20 .01m5.04 37.42v-6.8l1.57-2.62.32-.53v-7.37c0-4.12-3.11-7.47-6.93-7.47s-6.93 3.35-6.93 7.47v7.46l.41.58 1.82 2.57v6.83C8.64 35.23 4.07 28.3 4.07 20.32c0-9.96 7.15-18.06 15.93-18.06s15.93 8.1 15.93 18.05c0 7.84-4.42 14.67-10.89 17.11ZM21.88 7.06c0 1.04-.84 1.88-1.88 1.88s-1.88-.84-1.88-1.88.84-1.88 1.88-1.88 1.88.84 1.88 1.88M9.33 11.48c0-1.04.84-1.88 1.88-1.88s1.88.84 1.88 1.88-.84 1.88-1.88 1.88-1.88-.84-1.88-1.88m-.79 11.68c-1.04 0-1.88-.84-1.88-1.88s.84-1.88 1.88-1.88 1.88.84 1.88 1.88-.84 1.88-1.88 1.88m18.39-11.68c0-1.04.84-1.88 1.88-1.88s1.88.84 1.88 1.88-.84 1.88-1.88 1.88-1.88-.84-1.88-1.88m6.41 9.8c0 1.04-.84 1.88-1.88 1.88s-1.88-.84-1.88-1.88.84-1.88 1.88-1.88 1.88.84 1.88 1.88m-20.09 9.88c0 1.04-.84 1.88-1.88 1.88s-1.88-.84-1.88-1.88.84-1.88 1.88-1.88 1.88.84 1.88 1.88m17.17 0c0 1.04-.84 1.88-1.88 1.88s-1.88-.84-1.88-1.88.84-1.88 1.88-1.88 1.88.84 1.88 1.88"/>
</svg>
