<svg viewBox="0 0 64 64" xmlns="http://www.w3.org/2000/svg">
  <path d="M32 .05C15.94.05 2.92 14.59 2.92 32.53c0 15.26 9.43 28.02 22.12 31.51h3.04V48.02l-3.56-5.05v-10.8c0-4.62 3.35-8.36 7.48-8.36s7.48 3.74 7.48 8.36v10.8l-3.02 5.05v16.02h2.5c12.7-3.49 22.12-16.25 22.12-31.51C61.09 14.59 48.07.05 32 .05m7.21 61.05V48.78l2.63-4.39.39-.65V32.18c0-6.12-4.59-11.11-10.23-11.11s-10.23 4.98-10.23 11.11v11.67l.5.71 3.06 4.33v12.37C13.73 57.84 5.66 46.09 5.66 32.52 5.67 16.14 17.48 2.8 32 2.8s26.33 13.34 26.33 29.74c0 13.36-7.81 24.95-19.13 28.57Zm-4.2-49.77c0 1.66-1.34 3-3 3s-3-1.34-3-3 1.34-3 3-3 3 1.34 3 3m-19.58 8.74a3.03 3.03 0 0 1 0-3.36c.11-.16.23-.31.37-.44a2.993 2.993 0 0 1 4.24 0c.14.14.26.28.37.44a3.03 3.03 0 0 1 0 3.36c-.11.16-.23.31-.37.44a2.993 2.993 0 0 1-4.24 0c-.14-.14-.26-.28-.37-.44m-1.77 17.01c-1.66 0-3-1.34-3-3s1.34-3 3-3 3 1.34 3 3-1.34 3-3 3m29.42-18.69c0-1.66 1.34-3 3-3a3 3 0 0 1 2.77 1.83c.15.36.24.75.24 1.17s-.08.81-.24 1.17a3 3 0 0 1-2.77 1.83c-1.66 0-3-1.34-3-3m10.26 15.69c0 1.66-1.34 3-3 3s-3-1.34-3-3 1.34-3 3-3 3 1.34 3 3m-32.15 15.8c0 1.66-1.34 3-3 3s-3-1.34-3-3 1.34-3 3-3 3 1.34 3 3m27.48 0c0 1.66-1.34 3-3 3s-3-1.34-3-3 1.34-3 3-3 3 1.34 3 3"/>
</svg>
