<svg viewBox="0 0 48 48" xmlns="http://www.w3.org/2000/svg">
  <path d="M24-.02C11.96-.02 2.19 10.89 2.19 24.35c0 11.44 7.07 21.02 16.59 23.63h2.28V35.97l-2.67-3.79v-8.1c0-3.46 2.51-6.27 5.61-6.27s5.61 2.81 5.61 6.27v8.1l-2.27 3.79v12.01h1.88c9.52-2.62 16.59-12.19 16.59-23.63C45.82 10.89 36.05-.02 24-.02M13.44 10.24c1.24 0 2.25 1.01 2.25 2.25s-1.01 2.25-2.25 2.25-2.25-1.01-2.25-2.25 1.01-2.25 2.25-2.25M8 24.26c0-1.24 1.01-2.25 2.25-2.25s2.25 1.01 2.25 2.25-1.01 2.25-2.25 2.25S8 25.5 8 24.26m5.64 14.09c-1.24 0-2.25-1.01-2.25-2.25s1.01-2.25 2.25-2.25 2.25 1.01 2.25 2.25-1.01 2.25-2.25 2.25M24.01 9.44c-1.24 0-2.25-1.01-2.25-2.25s1.01-2.25 2.25-2.25 2.25 1.01 2.25 2.25-1.01 2.25-2.25 2.25m10.55.8c1.24 0 2.25 1.01 2.25 2.25s-1.01 2.25-2.25 2.25-2.25-1.01-2.25-2.25 1.01-2.25 2.25-2.25m-.3 28.11c-1.24 0-2.25-1.01-2.25-2.25s1.01-2.25 2.25-2.25 2.25 1.01 2.25 2.25-1.01 2.25-2.25 2.25m3.5-11.84c-1.24 0-2.25-1.01-2.25-2.25s1.01-2.25 2.25-2.25 2.25 1.01 2.25 2.25-1.01 2.25-2.25 2.25"/>
</svg>
