<svg viewBox="0 0 48 48" xmlns="http://www.w3.org/2000/svg">
  <path d="M24-.02C11.96-.02 2.19 10.89 2.19 24.35c0 11.44 7.07 21.02 16.59 23.63h2.28V35.97l-2.67-3.79v-8.1c0-3.46 2.51-6.27 5.61-6.27s5.61 2.81 5.61 6.27v8.1l-2.27 3.79v12.01h1.88c9.52-2.62 16.59-12.19 16.59-23.63C45.82 10.89 36.05-.02 24-.02m5.85 45.19v-8.51l1.91-3.19.36-.59v-8.79c0-4.83-3.64-8.77-8.11-8.77s-8.11 3.93-8.11 8.77v8.89l.46.65 2.22 3.14v8.54C10.37 42.59 4.7 34.12 4.7 24.35 4.69 12.29 13.35 2.48 24 2.48s19.31 9.81 19.31 21.87c0 9.6-5.47 17.96-13.47 20.82ZM26.26 8.44c0 1.24-1.01 2.25-2.25 2.25s-2.25-1.01-2.25-2.25 1.01-2.25 2.25-2.25 2.25 1.01 2.25 2.25m-15.07 5.3c0-1.24 1.01-2.25 2.25-2.25s2.25 1.01 2.25 2.25-1.01 2.25-2.25 2.25-2.25-1.01-2.25-2.25m-.94 14.02C9.01 27.76 8 26.75 8 25.51s1.01-2.25 2.25-2.25 2.25 1.01 2.25 2.25-1.01 2.25-2.25 2.25m22.06-14.02c0-1.24 1.01-2.25 2.25-2.25s2.25 1.01 2.25 2.25-1.01 2.25-2.25 2.25-2.25-1.01-2.25-2.25m7.7 11.77c0 1.24-1.01 2.25-2.25 2.25s-2.25-1.01-2.25-2.25 1.01-2.25 2.25-2.25 2.25 1.01 2.25 2.25M15.89 37.36c0 1.24-1.01 2.25-2.25 2.25s-2.25-1.01-2.25-2.25 1.01-2.25 2.25-2.25 2.25 1.01 2.25 2.25m20.62 0c0 1.24-1.01 2.25-2.25 2.25s-2.25-1.01-2.25-2.25 1.01-2.25 2.25-2.25 2.25 1.01 2.25 2.25"/>
</svg>
