<svg viewBox="0 0 16 16" xmlns="http://www.w3.org/2000/svg">
  <path d="M8 0C3.99 0 .73 3.64.73 8.12c0 3.81 2.36 7.01 5.53 7.88h.76v-4l-.89-1.26v-2.7c0-1.15.84-2.09 1.87-2.09s1.87.94 1.87 2.09v2.7L9.11 12v4h.63c3.17-.87 5.53-4.06 5.53-7.88C15.27 3.64 12.02 0 8 0m2.62 14.02v-1.61l.54-.91.21-.36V8.03c0-1.98-1.51-3.59-3.37-3.59S4.63 6.05 4.63 8.03v3.17l.27.39.62.87v1.62C3.54 13 2.23 10.71 2.23 8.11c0-3.65 2.59-6.62 5.77-6.62s5.77 2.97 5.77 6.62c0 2.54-1.25 4.79-3.16 5.9ZM8.75 3.11c0 .41-.34.75-.75.75s-.75-.34-.75-.75.34-.75.75-.75.75.34.75.75M5.23 4.88c0 .41-.34.75-.75.75s-.75-.34-.75-.75.34-.75.75-.75.75.34.75.75M4.17 8.8c0 .41-.34.75-.75.75s-.75-.34-.75-.75.34-.75.75-.75.75.34.75.75m7.35-3.17c-.41 0-.75-.34-.75-.75s.34-.75.75-.75.75.34.75.75-.34.75-.75.75m1.82 3.17c0 .41-.34.75-.75.75s-.75-.34-.75-.75.34-.75.75-.75.75.34.75.75"/>
</svg>
