<svg viewBox="0 0 64 64" xmlns="http://www.w3.org/2000/svg">
  <path d="M58.22 18.45c-.41-.95-.86-1.87-1.34-2.76-.73-1.34-1.54-2.62-2.43-3.82a31 31 0 0 0-2.89-3.38c-.34-.35-.7-.69-1.06-1.02-.72-.66-1.47-1.29-2.24-1.87-.39-.29-.78-.57-1.18-.85C42.69 1.76 37.52.05 32 .05s-10.68 1.72-15.08 4.7c-.4.27-.79.55-1.18.85a30.4 30.4 0 0 0-3.3 2.89c-1.03 1.05-2 2.18-2.89 3.38s-1.7 2.48-2.43 3.82c-.49.89-.93 1.81-1.34 2.76-1.84 4.26-2.87 9.04-2.87 14.08 0 5.72 1.33 11.09 3.65 15.76 3.88 7.77 10.54 13.58 18.47 15.76h3.04V48.03l-3.56-5.05v-10.8c0-4.62 3.35-8.36 7.48-8.36s7.48 3.74 7.48 8.36v10.8l-3.02 5.05v16.02h2.5c7.93-2.18 14.59-7.99 18.47-15.76 2.33-4.66 3.65-10.03 3.65-15.76 0-5.05-1.03-9.82-2.87-14.08Zm-42.79-3.74c.11-.16.23-.31.37-.44a2.993 2.993 0 0 1 4.24 0c.14.14.26.28.37.44a3.03 3.03 0 0 1 0 3.36c-.11.16-.23.31-.37.44a2.993 2.993 0 0 1-4.24 0c-.14-.14-.26-.28-.37-.44a3.03 3.03 0 0 1 0-3.36m-1.77 20.37c-.41 0-.81-.08-1.17-.24a3 3 0 0 1-1.83-2.77c0-1.66 1.34-3 3-3s3 1.34 3 3a3 3 0 0 1-1.83 2.77c-.36.15-.75.24-1.17.24m7.53 12.8c0 1.66-1.34 3-3 3s-3-1.34-3-3 1.34-3 3-3 3 1.34 3 3m10.82-35.55c-1.66 0-3-1.34-3-3s1.34-3 3-3 3 1.34 3 3-1.34 3-3 3m14.07 1.06a3 3 0 0 1 2.77 1.83c.15.36.24.75.24 1.17s-.08.81-.24 1.17a3 3 0 0 1-2.77 1.83c-1.66 0-3-1.34-3-3s1.34-3 3-3m2.59 34.49c0 1.66-1.34 3-3 3s-3-1.34-3-3 1.34-3 3-3 3 1.34 3 3m4.16-14.12a3.02 3.02 0 0 1-2.49 1.33q-.63 0-1.17-.24a3 3 0 0 1-1.83-2.77c0-1.66 1.34-3 3-3s3 1.34 3 3c0 .62-.19 1.2-.51 1.68"/>
</svg>
