<svg viewBox="0 0 32 32" xmlns="http://www.w3.org/2000/svg">
  <path d="M16 0C7.97 0 1.46 7.27 1.46 16.24c0 7.63 4.71 14.01 11.06 15.76h1.52v-8.01l-1.78-2.52v-5.4c0-2.31 1.67-4.18 3.74-4.18s3.74 1.87 3.74 4.18v5.4l-1.51 2.52V32h1.25c6.35-1.75 11.06-8.13 11.06-15.76C30.55 7.27 24.03 0 16 0m4.23 29.64v-5.1l1.23-2.05.28-.47v-5.95c0-3.41-2.58-6.18-5.74-6.18s-5.74 2.77-5.74 6.18v6.03l.37.52 1.42 2.01v5.12c-5.1-1.92-8.58-7.31-8.58-13.5C3.47 8.4 9.1 2.01 16.01 2.01S28.55 8.4 28.55 16.25c0 6.08-3.36 11.39-8.31 13.39Zm-2.72-24c0 .83-.67 1.5-1.5 1.5s-1.5-.67-1.5-1.5.67-1.5 1.5-1.5 1.5.67 1.5 1.5m-7.05 3.53c0 .83-.67 1.5-1.5 1.5s-1.5-.67-1.5-1.5.67-1.5 1.5-1.5 1.5.67 1.5 1.5m-3.63 9.35c-.83 0-1.5-.67-1.5-1.5s.67-1.5 1.5-1.5 1.5.67 1.5 1.5-.67 1.5-1.5 1.5m14.71-9.35c0-.83.67-1.5 1.5-1.5s1.5.67 1.5 1.5-.67 1.5-1.5 1.5-1.5-.67-1.5-1.5m5.13 7.85c0 .83-.67 1.5-1.5 1.5s-1.5-.67-1.5-1.5.67-1.5 1.5-1.5 1.5.67 1.5 1.5m-16.07 7.9c0 .83-.67 1.5-1.5 1.5s-1.5-.67-1.5-1.5.67-1.5 1.5-1.5 1.5.67 1.5 1.5m13.74 0c0 .83-.67 1.5-1.5 1.5s-1.5-.67-1.5-1.5.67-1.5 1.5-1.5 1.5.67 1.5 1.5"/>
</svg>
