<svg viewBox="0 0 40 40" xmlns="http://www.w3.org/2000/svg">
  <path d="M29.12 9.52V3.43c0-1.89-1.54-3.43-3.43-3.43H14.27c-1.89 0-3.43 1.54-3.43 3.43v6.09H-.01V40h12.59v-7.89H27.4V40h12.59V9.52zM9.07 28.88H6.25v-2.82h2.82zm0-5.6H6.25v-2.82h2.82zm0-5.59H6.25v-2.82h2.82zm6.16 11.19h-2.82v-2.82h2.82zm0-5.6h-2.82v-2.82h2.82zm0-5.59h-2.82v-2.82h2.82zm6.16 11.19h-2.82v-2.82h2.82zm0-5.6h-2.82v-2.82h2.82zm0-5.59h-2.82v-2.82h2.82zm1.63-9.53h-1.85v1.85h-2.25V8.16h-1.85V5.91h1.85V4.06h2.25v1.85h1.85zm4.52 20.72h-2.82v-2.82h2.82zm0-5.6h-2.82v-2.82h2.82zm0-5.59h-2.82v-2.82h2.82zm6.16 11.19h-2.82v-2.82h2.82zm0-5.6h-2.82v-2.82h2.82zm0-5.59h-2.82v-2.82h2.82zM21.17 34.36h3.98V40h-3.98zm-6.35 0h4.1V40h-4.1z"/>
</svg>
