<svg viewBox="0 0 48 48" xmlns="http://www.w3.org/2000/svg">
  <path d="M34.89 11.47V4.03c0-2.22-1.81-4.03-4.03-4.03H17.1c-2.22 0-4.03 1.81-4.03 4.03v7.44H-.01V48h48V11.47zM30.32 45.5h-5v-4.83h5zm-7.5 0h-5.15v-4.83h5.15zm22.67.01H32.81v-7.34H15.16v7.34H2.49V13.97h13.08V4.03c0-.84.69-1.53 1.53-1.53h13.76c.84 0 1.53.69 1.53 1.53v9.94h13.1V45.5ZM22.38 17.92h3.19v3.19h-3.19zm-7.42 0h3.19v3.19h-3.19zm14.85 0H33v3.19h-3.19zm10.61 3.19h-3.19v-3.19h3.19zM7.54 17.92h3.19v3.19H7.54zm14.84 6.75h3.19v3.19h-3.19zm-7.42 0h3.19v3.19h-3.19zm14.85 0H33v3.19h-3.19zm10.61 3.19h-3.19v-3.19h3.19zM7.54 24.67h3.19v3.19H7.54zm14.84 6.75h3.19v3.19h-3.19zm-7.42 0h3.19v3.19h-3.19zm14.85 0H33v3.19h-3.19zm10.61 3.19h-3.19v-3.19h3.19zM7.54 31.42h3.19v3.19H7.54zM25.32 7.14h2.34v2.5h-2.34v2.33h-2.5V9.64h-2.34v-2.5h2.34V4.8h2.5z"/>
</svg>
