<svg viewBox="0 0 48 48" xmlns="http://www.w3.org/2000/svg">
  <path d="M17.66 40.67h5.15v7.34h-5.15zm30.33-29.2V48H32.81v-9.84H15.16V48H-.01V11.47h13.08V4.03C13.07 1.81 14.88 0 17.1 0h13.76c2.22 0 4.03 1.81 4.03 4.03v7.44zM10.73 31.42H7.54v3.19h3.19zm0-6.75H7.54v3.19h3.19zm0-6.75H7.54v3.19h3.19zm7.42 13.5h-3.19v3.19h3.19zm0-6.75h-3.19v3.19h3.19zm0-6.75h-3.19v3.19h3.19zm7.42 13.5h-3.19v3.19h3.19zm0-6.75h-3.19v3.19h3.19zm0-6.75h-3.19v3.19h3.19zm2.08-10.78h-2.34V4.8h-2.5v2.34h-2.34v2.5h2.34v2.33h2.5V9.64h2.34zm5.34 24.28H29.8v3.19h3.19zm0-6.75H29.8v3.19h3.19zm0-6.75H29.8v3.19h3.19zm7.43 13.5h-3.19v3.19h3.19zm0-6.75h-3.19v3.19h3.19zm0-6.75h-3.19v3.19h3.19zm-15.1 30.09h5v-7.34h-5z"/>
</svg>
