<svg viewBox="0 0 16 16" xmlns="http://www.w3.org/2000/svg">
  <path d="M12.77 4.13v-2.5c0-.9-.73-1.63-1.64-1.63H4.81c-.9 0-1.63.73-1.63 1.63v2.5h-3.2V16h16V4.13zM9.24 14.5H6.7v-.57h2.54zm5.24-.01h-3.73v-2.06H5.21v2.07l-3.73-.02V5.63h3.2v-4c0-.08.06-.14.13-.14h6.32c.08 0 .14.06.14.14v4h3.21v8.87ZM7.12 6.76h1.72v1.72H7.12zm0 3.13h1.72v1.72H7.12zm3.42-3.13h1.72v1.72h-1.72zm0 3.13h1.72v1.72h-1.72zM3.69 6.76h1.72v1.72H3.69zm0 3.13h1.72v1.72H3.69zm5.06-6.82h.96v1.5h-.96v.96h-1.5v-.96h-.96v-1.5h.96v-.96h1.5z"/>
</svg>
