<svg viewBox="0 0 16 16" xmlns="http://www.w3.org/2000/svg">
  <path d="M13.09 3.66V3.5h1.16V1.75C14.25.79 13.46 0 12.5 0h-9c-.96 0-1.75.78-1.75 1.75V3.5h1.16v.16c0 1.84 1 3.45 2.47 4.34-1.47.89-2.47 2.5-2.47 4.34v.16H1.75v1.75c0 .96.79 1.75 1.75 1.75h9c.96 0 1.75-.78 1.75-1.75V12.5h-1.16v-.16c0-1.84-1-3.45-2.47-4.34 1.47-.89 2.47-2.5 2.47-4.34m-3.08 1.63H5.99c-.29-.36-.49-.8-.56-1.29h5.14c-.06.49-.26.93-.56 1.29m-4.33 5.92c.23-.48.61-.87 1.07-1.13v1.13zm3.57 0v-1.13c.46.26.84.65 1.07 1.13z"/>
</svg>
