<svg viewBox="0 0 64 64" xmlns="http://www.w3.org/2000/svg">
  <path d="M52.43 14.08V11.2h1.54V3.37c0-1.86-1.51-3.37-3.38-3.37H13.41c-1.87 0-3.38 1.51-3.38 3.37v7.82h1.54v2.88c0 7.73 4.32 14.47 10.67 17.93-6.34 3.47-10.65 10.2-10.65 17.92v2.88h-1.56v7.82c0 1.86 1.51 3.37 3.38 3.37H50.6a3.38 3.38 0 0 0 3.38-3.37V52.8h-1.56v-2.88c0-7.72-4.31-14.45-10.65-17.92 6.35-3.47 10.67-10.21 10.67-17.93Zm-35.86 0v-1.76h30.86v1.76c0 4.04-1.57 7.71-4.13 10.46H20.7c-2.55-2.75-4.13-6.42-4.13-10.46M29.5 34.74v15.31H16.59v-.13c0-7.64 5.6-13.99 12.91-15.19Zm17.91 15.19v.13H34.5V34.75c7.31 1.2 12.91 7.54 12.91 15.19Z"/>
</svg>
