<svg viewBox="0 0 24 24" xmlns="http://www.w3.org/2000/svg">
  <path d="M19.41 5.33V4.8h.97V1.86c0-1.04-.85-1.87-1.88-1.87h-13c-1.03 0-1.88.83-1.88 1.87V4.8h.97v.53c0 2.93 1.73 5.47 4.22 6.66-2.49 1.19-4.22 3.72-4.22 6.66v.53h-.97v2.94c0 1.03.84 1.87 1.88 1.87h13c1.03 0 1.88-.84 1.88-1.87v-2.94h-.97v-.53c0-2.93-1.73-5.47-4.22-6.66 2.49-1.19 4.22-3.72 4.22-6.66m-4.5 3.27H9.08a4.37 4.37 0 0 1-1.49-3.18h8.81c-.03 1.27-.61 2.39-1.49 3.18M7.7 17.68c.33-1.47 1.4-2.65 2.8-3.16v3.16zm5.8 0v-3.16c1.4.51 2.47 1.69 2.8 3.16z"/>
</svg>
