<svg viewBox="0 0 40 40" xmlns="http://www.w3.org/2000/svg">
  <path d="M33.07 8.94v-1.5h.77V3.11c0-1.72-1.4-3.12-3.12-3.12H9.28c-1.72 0-3.12 1.4-3.12 3.12v4.33h.77v1.5c0 4.66 2.47 8.75 6.17 11.05-3.69 2.31-6.16 6.39-6.16 11.04v1.5h-.78v4.33c0 1.72 1.4 3.12 3.12 3.12h21.43c1.72 0 3.12-1.4 3.12-3.12v-4.33h-.78v-1.5c0-4.66-2.47-8.74-6.16-11.04 3.7-2.31 6.17-6.39 6.17-11.05ZM10.98 30.32c.31-3.98 3.21-7.24 7.02-8.1v8.1zm11.02 0v-8.1c3.81.86 6.71 4.12 7.02 8.1zm7.07-21.38c0 2.66-1.16 5.05-3 6.71H13.93c-1.84-1.66-3-4.05-3-6.71v-.63h18.14z"/>
</svg>
