<svg viewBox="0 0 64 64" xmlns="http://www.w3.org/2000/svg">
  <path d="M51.3 14.08V11.2h2.67V3.37c0-1.86-1.51-3.37-3.38-3.37H13.41c-1.87 0-3.38 1.51-3.38 3.37v7.82h2.67v2.88c0 8.14 5.07 15.1 12.22 17.93-7.14 2.83-12.2 9.79-12.2 17.92v2.88h-2.68v7.82c0 1.86 1.51 3.37 3.38 3.37h37.19a3.38 3.38 0 0 0 3.38-3.37V52.8h-2.68v-2.88c0-8.13-5.07-15.09-12.2-17.92 7.15-2.83 12.22-9.79 12.22-17.93ZM12.78 3.37c0-.34.28-.62.62-.62h37.19c.34 0 .62.28.62.62v5.07H12.78zm2.67 7.82h33.11v2.88c0 3.97-1.41 7.61-3.74 10.46H19.2a16.44 16.44 0 0 1-3.74-10.46v-2.88Zm15.17 22.27v16.59H15.46v-.13c0-8.65 6.69-15.76 15.16-16.46m20.6 27.16c0 .34-.28.62-.62.62H13.41c-.34 0-.62-.28-.62-.62v-5.07h38.44v5.07Zm-2.68-10.69v.13H33.38V33.47c8.48.7 15.16 7.81 15.16 16.46"/>
</svg>
