<svg viewBox="0 0 16 16" xmlns="http://www.w3.org/2000/svg">
  <path d="M15.99 10.42c0 1.1-.9 1.99-2 1.99s-2-.89-2-1.99c0-.84.53-1.56 1.27-1.85-.51-2.44-2.68-4.28-5.27-4.28S3.22 6.13 2.72 8.57c.74.29 1.27 1.01 1.27 1.85 0 1.1-.9 1.99-2 1.99-.41 0-.8-.13-1.12-.34-.21-.14-.4-.33-.54-.54-.22-.32-.34-.7-.34-1.11s.13-.8.34-1.11c.14-.21.33-.39.54-.54.1-.07.21-.13.32-.17.4-2.55 2.22-4.64 4.63-5.44V2.8H3.88c-.3.72-1.01 1.23-1.85 1.23-.41 0-.8-.13-1.12-.34-.21-.14-.4-.33-.54-.54-.22-.32-.34-.7-.34-1.11s.13-.8.34-1.11C.51.72.7.54.91.39c.33-.23.71-.35 1.13-.35.85 0 1.56.52 1.86 1.26h1.93V.48c0-.07.01-.13.04-.19.05-.12.15-.21.27-.27.06-.03.13-.04.19-.04h3c.28 0 .5.22.5.5v.82h2.31C12.43.56 13.15.04 14 .04c1.1 0 2 .89 2 1.99s-.9 1.99-2 1.99c-.83 0-1.55-.51-1.85-1.23H9.83v.26c2.57.71 4.54 2.87 4.96 5.54.71.31 1.2 1.01 1.2 1.83M10.54 12h-.24l.54-1.11c.2-.41.27-.86.22-1.29s-.23-.85-.53-1.2L8.72 6.25v3.32c.15.17.25.39.25.64 0 .55-.45 1-1 1s-1-.45-1-1c0-.25.1-.47.25-.64V6.25L5.41 8.4c-.59.7-.71 1.68-.31 2.5l.54 1.11h-.1c-.21 0-.4.04-.58.12-.27.11-.5.3-.66.54s-.26.53-.26.84V16h8v-2.49c0-.83-.67-1.49-1.5-1.49Z"/>
</svg>
