<svg viewBox="0 0 16 16" xmlns="http://www.w3.org/2000/svg">
  <path d="M10.54 11.99h-.24l.54-1.11c.4-.82.28-1.8-.31-2.5L7.97 5.34 5.41 8.38c-.59.7-.71 1.68-.31 2.5l.54 1.11h-.1c-.83 0-1.5.67-1.5 1.49v2.49h8v-2.49c0-.83-.67-1.49-1.5-1.49m-4.1-1.76c-.14-.29-.1-.64.11-.88l.66-.79v.99c-.15.17-.25.39-.25.64 0 .55.45 1 1 1s1-.45 1-1c0-.25-.1-.47-.25-.64v-.99l.66.79c.21.25.25.59.11.88l-.86 1.76H7.3zm4.1 4.25h-5v-1h5zm4.25-5.89c-.42-2.67-2.39-4.83-4.96-5.54v-.26h2.32c.3.72 1.01 1.23 1.85 1.23 1.1 0 2-.89 2-1.99a2.008 2.008 0 0 0-3.87-.74H9.82V.48c0-.28-.22-.5-.5-.5h-3c-.28 0-.5.22-.5.5v.82H3.89A1.98 1.98 0 0 0 2.04.03c-1.11 0-2 .89-2 1.99s.9 1.99 2 1.99c.83 0 1.55-.51 1.85-1.23h1.94v.36c-2.41.8-4.23 2.89-4.63 5.44C.49 8.9 0 9.6 0 10.42c0 1.1.9 1.99 2 1.99s2-.89 2-1.99c0-.84-.53-1.56-1.27-1.85C3.24 6.13 5.41 4.29 8 4.29s4.77 1.84 5.27 4.28c-.74.29-1.27 1.01-1.27 1.85 0 1.1.9 1.99 2 1.99s2-.89 2-1.99c0-.82-.5-1.52-1.2-1.83Zm-12.8 2.32c-.28 0-.5-.22-.5-.5s.22-.5.5-.5.5.22.5.5-.22.5-.5.5m12-9.39c.28 0 .5.22.5.5s-.22.5-.5.5-.5-.22-.5-.5.22-.5.5-.5m-6.67-.05h1v1h-1zM2.04 2.52c-.28 0-.5-.22-.5-.5s.22-.5.5-.5.5.22.5.5-.22.5-.5.5m11.95 8.39c-.28 0-.5-.22-.5-.5s.22-.5.5-.5.5.22.5.5-.22.5-.5.5"/>
</svg>
