<svg viewBox="0 0 32 32" xmlns="http://www.w3.org/2000/svg">
  <path d="M31.39 18.79c.38.56.6 1.23.6 1.95s-.22 1.39-.6 1.95c-.25.37-.57.69-.95.94-.56.38-1.23.6-1.96.6s-1.4-.22-1.96-.6a3.46 3.46 0 0 1-1.55-2.89c0-.72.22-1.39.6-1.95.25-.37.57-.69.95-.94.22-.15.47-.26.72-.36-.45-5.77-5.32-10.34-11.25-10.34S5.19 11.71 4.74 17.49c.25.1.5.21.72.36a3.46 3.46 0 0 1 1.55 2.89c0 .72-.22 1.39-.6 1.95-.25.37-.57.69-.95.94-.56.38-1.23.6-1.96.6s-1.4-.22-1.96-.6a3.46 3.46 0 0 1-1.55-2.89H0c0-.72.22-1.39.6-1.95.25-.37.57-.69.95-.94.36-.24.77-.41 1.2-.51.42-5.5 4.26-10.07 9.41-11.62V4.6H6.84a3.49 3.49 0 0 1-3.33 2.46C1.56 7.05 0 5.49 0 3.56S1.56.07 3.5.07c1.6 0 2.93 1.07 3.35 2.53h5.3V.47c0-.28.22-.5.5-.5h6.01c.28 0 .5.22.5.5v2.14h5.97c.1-.35.24-.69.45-.99.25-.37.57-.69.95-.94.56-.38 1.23-.6 1.96-.6s1.4.22 1.96.6A3.46 3.46 0 0 1 32 3.57c0 .72-.22 1.39-.6 1.95-.25.37-.57.69-.95.94-.56.38-1.23.6-1.96.6s-1.4-.22-1.96-.6c-.37-.25-.7-.57-.95-.94-.19-.28-.32-.59-.43-.92h-5.99v.95c5.48 1.34 9.63 6.05 10.08 11.79.44.1.85.27 1.21.51.37.25.7.57.95.94Zm-14.95.36c0-.28-.22-.5-.5-.5s-.5.22-.5.5.22.5.5.5.5-.22.5-.5m6.15 4.87h-2.62l1.71-3.49c.3-.61.46-1.27.47-1.93 0-.44-.05-.87-.16-1.3a4.6 4.6 0 0 0-.93-1.76l-4.13-4.88v6.2c.88.39 1.5 1.26 1.5 2.28 0 1.38-1.12 2.49-2.5 2.49s-2.5-1.12-2.5-2.49c0-1.02.62-1.9 1.5-2.28v-6.2l-4.13 4.88a4.6 4.6 0 0 0-.93 1.76c-.12.42-.17.86-.16 1.3.01.66.17 1.31.47 1.93l1.71 3.49H9.56c-.83 0-1.5.67-1.5 1.5v6.45h16.03v-6.45c0-.83-.67-1.5-1.5-1.5"/>
</svg>
