<svg viewBox="0 0 40 40" xmlns="http://www.w3.org/2000/svg">
  <path d="M39.99 25.98c0 1.51-.77 2.83-1.93 3.62-.7.47-1.54.75-2.45.75s-1.75-.27-2.45-.75a4.33 4.33 0 0 1-1.93-3.62c0-1.91 1.24-3.52 2.96-4.11C33.61 14.6 27.48 8.86 20 8.86S6.39 14.6 5.81 21.87c1.72.59 2.96 2.2 2.96 4.11 0 1.51-.77 2.83-1.93 3.62-.7.47-1.54.75-2.45.75s-1.75-.27-2.45-.75A4.35 4.35 0 0 1 0 25.98c0-2.13 1.54-3.9 3.57-4.28.54-6.8 5.27-12.44 11.63-14.37V5.68H8.59c-.28 1.01-.9 1.88-1.75 2.45-.7.47-1.54.75-2.45.75s-1.75-.27-2.45-.75A4.35 4.35 0 0 1 0 4.51a4.368 4.368 0 0 1 8.6-1.09h6.58V.51c0-.28.22-.5.5-.5h7.77c.28 0 .5.22.5.5v2.91h7.42C31.86 1.54 33.56.14 35.6.14c2.42 0 4.38 1.95 4.38 4.36 0 1.51-.77 2.83-1.93 3.62-.7.47-1.54.75-2.45.75s-1.75-.27-2.45-.75a4.33 4.33 0 0 1-1.75-2.45h-7.45V7.1c6.78 1.67 11.91 7.49 12.47 14.59 2.03.38 3.57 2.15 3.57 4.28Zm-11.37 4.09h-3.74l2.23-4.55c1.01-2.05.7-4.49-.77-6.23l-5.29-6.25v7.98c1.1.45 1.88 1.52 1.88 2.78 0 1.66-1.35 3-3.01 3s-3.01-1.34-3.01-3c0-1.26.78-2.33 1.88-2.78v-7.98l-5.29 6.25a5.72 5.72 0 0 0-.77 6.23l2.23 4.55h-3.39c-.83 0-1.5.67-1.5 1.5v8.44h20.04v-8.44c0-.83-.67-1.5-1.5-1.5Zm-7.94-6.27c0-.41-.34-.75-.75-.75s-.75.34-.75.75.34.75.75.75.75-.34.75-.75"/>
</svg>
