<svg viewBox="0 0 48 48" xmlns="http://www.w3.org/2000/svg">
  <path d="M23.91 29.58c-.55 0-1-.45-1-1s.45-1 1-1 1 .45 1 1-.45 1-1 1m10.73 6.53h-4.79l2.68-5.46c.3-.61.51-1.26.61-1.91a6.9 6.9 0 0 0-.94-4.75c-.18-.29-.38-.56-.6-.82l-6.45-7.62v9.76a3.48 3.48 0 0 1 2.25 3.26c0 1.93-1.57 3.5-3.51 3.5s-3.51-1.57-3.51-3.5c0-1.49.94-2.76 2.25-3.26v-9.76l-6.45 7.62c-.22.26-.42.54-.6.82-1.24 2-1.38 4.51-.33 6.65l2.68 5.46h-4.36c-.83 0-1.5.67-1.5 1.5v10.43h24.04V37.6c0-.83-.67-1.5-1.5-1.5Zm12.94-6.95a5.26 5.26 0 0 0-3.97-3.11c-.68-8.45-6.79-15.39-14.86-17.39V6.74h8.91a5.25 5.25 0 0 0 2 2.93c.87.63 1.93 1.01 3.08 1.01 2.18 0 4.05-1.32 4.85-3.2.27-.63.41-1.32.41-2.04 0-.36-.04-.71-.11-1.06-.14-.68-.41-1.32-.79-1.87a5.28 5.28 0 0 0-6.41-1.9 5.22 5.22 0 0 0-3.06 3.63h-8.87V.54c0-.28-.22-.5-.5-.5h-9.52c-.28 0-.5.22-.5.5v3.7h-7.87c-.15-.63-.4-1.21-.75-1.73A5.27 5.27 0 0 0 5.25.2C4.52.2 3.83.35 3.2.61A5.22 5.22 0 0 0-.01 5.43c0 1.75.86 3.28 2.18 4.23.87.63 1.93 1.01 3.08 1.01 2.18 0 4.05-1.32 4.85-3.2.1-.23.16-.49.23-.74h7.9v2.18c-7.58 2.31-13.21 9.03-13.86 17.13-1.79.3-3.28 1.49-3.97 3.11-.27.63-.41 1.32-.41 2.04 0 1.81.92 3.4 2.32 4.34.84.56 1.85.89 2.94.89s2.1-.33 2.94-.89c1.4-.94 2.32-2.53 2.32-4.34 0-.72-.15-1.41-.41-2.04-.59-1.39-1.78-2.45-3.23-2.92.71-8.76 8.11-15.68 17.13-15.68s16.42 6.92 17.13 15.68c-.14.05-.3.08-.43.13-1.89.8-3.21 2.66-3.21 4.83 0 1.45.59 2.76 1.54 3.7.04.04.09.07.14.11.45.42.96.77 1.53 1.01.63.27 1.32.41 2.05.41 1.09 0 2.1-.33 2.94-.89 1.4-.94 2.32-2.53 2.32-4.34 0-.72-.15-1.41-.41-2.04Z"/>
</svg>
