<svg viewBox="0 0 32 32" xmlns="http://www.w3.org/2000/svg">
  <path d="M22.59 24.01h-2.62l1.71-3.49c.8-1.64.56-3.59-.62-4.98l-5.13-6.07-5.13 6.07a4.58 4.58 0 0 0-.62 4.98l1.71 3.49H9.56c-.83 0-1.5.67-1.5 1.5v6.45h16.03v-6.45c0-.83-.67-1.5-1.5-1.5m-6.15-4.87c0 .28-.22.5-.5.5s-.5-.22-.5-.5.22-.5.5-.5.5.22.5.5m-4.1-2.32 2.6-3.07v3.1c-.88.39-1.5 1.26-1.5 2.28 0 1.38 1.12 2.49 2.5 2.49s2.5-1.12 2.5-2.49c0-1.02-.62-1.9-1.5-2.28v-3.1l2.6 3.07c.67.79.8 1.9.35 2.82l-2.02 4.11h-3.86l-2.02-4.11c-.45-.93-.32-2.03.35-2.82m9.75 13.15H10.07v-3.96h12.02zm7.15-12.64c-.44-5.74-4.59-10.45-10.08-11.79v-.95h5.99a3.49 3.49 0 0 0 3.33 2.46c1.94 0 3.51-1.56 3.51-3.49S30.42.07 28.48.07c-1.6 0-2.93 1.07-3.35 2.53h-5.97V.46c0-.28-.22-.5-.5-.5h-6.01c-.28 0-.5.22-.5.5V2.6h-5.3A3.48 3.48 0 0 0 3.5.07a3.489 3.489 0 1 0 .01 6.98 3.49 3.49 0 0 0 3.33-2.46h5.32v1.12c-5.15 1.55-8.98 6.11-9.41 11.62A3.474 3.474 0 0 0 0 20.73c0 1.93 1.57 3.49 3.51 3.49s3.51-1.56 3.51-3.49c0-1.49-.94-2.76-2.27-3.26C5.2 11.7 10.07 7.13 16 7.13s10.8 4.56 11.25 10.34c-1.32.5-2.27 1.76-2.27 3.26 0 1.93 1.57 3.49 3.51 3.49S32 22.66 32 20.73c0-1.67-1.18-3.06-2.75-3.41Zm-.76-15.27c.83 0 1.5.67 1.5 1.5s-.67 1.5-1.5 1.5-1.5-.67-1.5-1.5.67-1.5 1.5-1.5M3.5 5.05c-.83 0-1.5-.67-1.5-1.5s.67-1.5 1.5-1.5S5 2.72 5 3.55s-.67 1.5-1.5 1.5m0 17.18c-.83 0-1.5-.67-1.5-1.5s.67-1.5 1.5-1.5 1.5.67 1.5 1.5-.67 1.5-1.5 1.5M14.15 1.96h3.01v2.99h-3.01zm14.33 20.27c-.83 0-1.5-.67-1.5-1.5s.67-1.5 1.5-1.5 1.5.67 1.5 1.5-.67 1.5-1.5 1.5"/>
</svg>
