<svg viewBox="0 0 32 32" xmlns="http://www.w3.org/2000/svg">
  <path d="m12.36 19.78 1.18-1.2v-2.3c2.56-1.62 4.13-4.42 4.13-7.44C17.66 3.97 13.69 0 8.81 0S-.03 3.97-.03 8.84c0 3.03 1.57 5.83 4.14 7.45v3.49zM7.81 15.8v-4.65c0-.55.45-1 1-1s1 .45 1 1v7.63h-2zm1.14 7.44H5.22c-.55 0-1-.45-1-1s.45-1 1-1h5.7zM8.1 24.6l-.32 2H6.7c-.55 0-1-.45-1-1s.45-1 1-1zm14.79-14.09 6.39 6.29-12.36 12.55-6.34-6.34zm8.5 4.15-.71.72-6.39-6.29.74-.75c.1-.1.2-.19.31-.26.03-.02.07-.04.11-.06.08-.05.16-.09.24-.13.05-.02.1-.03.14-.04.08-.02.15-.05.23-.07.05-.01.1 0 .16-.02.08 0 .15-.02.23-.02.07 0 .13.01.2.02.06 0 .12 0 .18.02.07.01.14.04.21.06.06.02.11.03.17.05.08.03.15.08.23.12l.12.06c.11.07.22.16.31.26l3.51 3.51c.29.29.47.65.55 1.03.12.63-.06 1.3-.54 1.79M9.17 24.44l6.34 6.34-.04.04L7.92 32l1.21-7.52z"/>
</svg>
