<svg viewBox="0 0 48 48" xmlns="http://www.w3.org/2000/svg">
  <path d="m19.24 29.23.62-.63v-4.51c3.85-2.38 6.21-6.55 6.21-11.04C26.07 5.85 20.22 0 13.03 0S-.02 5.85-.02 13.04c0 4.51 2.36 8.68 6.22 11.06v5.13zM2.48 13.04C2.48 7.23 7.21 2.5 13.03 2.5s10.55 4.73 10.55 10.54c0 3.83-2.13 7.37-5.55 9.23l-.65.36v4.1h-3.1s.02-.05.02-.08V16.5a1.25 1.25 0 0 0-2.5 0v10.15s.01.05.02.08H8.73v-4.09l-.66-.35c-3.44-1.86-5.57-5.4-5.57-9.23Zm11.84 21.19h-6.7a1.25 1.25 0 0 1 0-2.5h9.16zm-2.35 5.03H9.85a1.25 1.25 0 0 1 0-2.5h2.52zM47.1 17.7l-5.28-5.28c-.59-.59-1.36-.88-2.13-.88s-1.56.3-2.14.9L13.66 36.69 11.85 48l11.35-1.78 23.93-24.29a2.997 2.997 0 0 0-.02-4.23Zm-11.23-.01 6.04 5.95-18.17 18.45-6-6zm-21.02 27.3 1.14-7.11 5.99 5.99zm30.48-24.81-1.66 1.68-6.04-5.95 1.7-1.72a.504.504 0 0 1 .72 0l5.28 5.28c.2.2.2.52 0 .71"/>
</svg>
