<svg viewBox="0 0 48 48" xmlns="http://www.w3.org/2000/svg">
  <path d="m19.24 29.23.62-.63v-4.51c3.85-2.38 6.21-6.55 6.21-11.04C26.07 5.85 20.22 0 13.03 0S-.02 5.85-.02 13.04c0 4.51 2.36 8.68 6.22 11.06v5.13zm-7.46-4.91V16.5a1.25 1.25 0 0 1 2.5 0v11.48h-2.5zm2.54 9.91h-6.7a1.25 1.25 0 0 1 0-2.5h9.16zm-2.35 5.03H9.85a1.25 1.25 0 0 1 0-2.5h2.52zm1.74-2.63 9.54 9.53-.06.06L11.84 48l1.81-11.31zm21.16-21.48 9.61 9.46L25 44.38l-9.54-9.53 19.4-19.7Zm13.11 4.66c0 .77-.28 1.53-.86 2.12l-.88.9-9.61-9.46.92-.94c.15-.15.31-.28.47-.39.06-.04.12-.06.18-.09.11-.07.23-.14.35-.19.07-.03.15-.04.23-.07.11-.04.22-.08.33-.1.08-.02.16-.02.24-.02.11-.01.22-.03.33-.03.1 0 .21.02.31.03.09 0 .17 0 .26.02.11.02.22.06.33.1.07.02.15.04.22.07.12.05.23.12.35.18l.18.09c.15.1.28.21.41.34.02.02.04.03.06.05l5.28 5.28c.15.15.27.3.38.47.33.5.5 1.07.5 1.64Z"/>
</svg>
