<svg viewBox="0 0 64 64" xmlns="http://www.w3.org/2000/svg">
  <path d="M26.14 38.73v-6.78c5.17-3.13 8.34-8.69 8.34-14.69C34.48 7.74 26.75 0 17.25 0S.01 7.74.01 17.25c0 6.02 3.19 11.58 8.37 14.71v6.77zM2.76 17.25c0-7.99 6.5-14.5 14.49-14.5s14.49 6.5 14.49 14.5c0 5.27-2.92 10.13-7.63 12.69l-.72.39v5.65h-4.84c.04-.13.07-.27.07-.41V21.91c0-.76-.61-1.38-1.37-1.38s-1.37.62-1.37 1.38v13.66c0 .14.03.28.07.41h-4.81v-5.63l-.72-.39c-4.72-2.55-7.65-7.42-7.65-12.7Zm19.45 27.01H9.98c-.76 0-1.37-.62-1.37-1.38s.61-1.38 1.37-1.38h14.54c.12 0 .24.02.35.05l-2.66 2.7Zm-4.6 5.6h-4.64c-.76 0-1.37-.62-1.37-1.38s.61-1.38 1.37-1.38h6.43l-1.56 1.59-.23 1.16Zm45.36-26.47-6.55-6.55a3.6 3.6 0 0 0-2.56-1.04c-1.04 0-2.12.42-2.94 1.26L19.09 49.37l-2.85 14.64 14.67-2.81 28.88-29.31c.05-.04.11-.06.16-.11s.07-.11.11-.16l2.73-2.77c1.54-1.57 1.62-4 .17-5.45ZM23.54 48.78l25.48-25.86 7.99 7.88-25.54 25.92zm-1.9 1.98 7.9 7.9-9.8 1.88zm39.2-23.85-1.9 1.93-7.99-7.88 1.94-1.97c.27-.28.63-.44.98-.44.17 0 .42.04.61.23l6.55 6.55c.37.37.29 1.09-.19 1.57Z"/>
</svg>
