<svg viewBox="0 0 24 24" xmlns="http://www.w3.org/2000/svg">
  <path d="m8.45 15.11 1.94-1.98v-.7c1.92-1.24 3.1-3.37 3.1-5.65 0-3.73-3.03-6.77-6.76-6.77S-.03 3.05-.03 6.78c0 2.29 1.18 4.41 3.1 5.66v2.67zM5.85 12V8.5c0-.48.39-.88.88-.88s.88.39.88.88v5.73H5.86v-2.24Zm.17 5.59-.1.68H4.04c-.48 0-.88-.39-.88-.88s.39-.88.88-.88h3.04l-1.05 1.07Zm-.87 2.02h.57l-.26 1.75h-.31c-.48 0-.88-.39-.88-.88s.39-.88.88-.88Zm18.39-8.26-.55.56-5.17-5.09.57-.58c.15-.15.32-.26.5-.34.06-.02.12-.02.18-.04.13-.03.25-.08.39-.08.12 0 .24.04.36.07.07.02.14.01.2.04.17.07.32.17.46.31.01.01.03.01.04.03l3 3.01c.58.58.59 1.53 0 2.11ZM16.6 8.07l5.17 5.09-8.49 8.64-5.13-5.13zm-9.68 9.86 5.13 5.13-.07.07-6.03.88.9-6.01z"/>
</svg>
