<svg viewBox="0 0 32 32" xmlns="http://www.w3.org/2000/svg">
  <path fill="#1e1e1c" d="M29 7.01h-8.84l-2.22-5.18A2.99 2.99 0 0 0 15.18 0H3.01C1.35 0 0 1.35 0 3.01v24.01h11.98v-2H2.01v-3.79h.02V10.77c0-.97.79-1.75 1.75-1.75h25.23c.55 0 1 .45 1 1v15.01h-10v2h12V10.01c0-1.65-1.35-3-3-3Zm-26.99.46V3.01c0-.55.45-1 1-1h12.18c.4 0 .76.24.92.61l1.88 4.4H3.78c-.64 0-1.24.18-1.77.47Zm15 7.93V32h-2V15.4l-4.66 4.66a.996.996 0 1 1-1.41-1.41l7.07-7.07 7.07 7.07a.996.996 0 0 1-.71 1.7c-.26 0-.51-.1-.71-.29L17 15.4Z"/>
</svg>
