<svg viewBox="0 0 24 24" xmlns="http://www.w3.org/2000/svg">
  <path fill="#1e1e1c" d="M21.62 5.28h-6.29L13.7 1.46A2.38 2.38 0 0 0 11.51.02H2.37C1.06.02 0 1.09 0 2.4v18.15h8.64V18.8H1.75v-2.76h.02V8.16c0-.62.51-1.13 1.13-1.13h18.73c.34 0 .63.28.63.63V18.8H16.4v1.75h7.61V7.65c0-1.31-1.07-2.38-2.38-2.38Zm-18.73 0c-.41 0-.79.09-1.14.24V2.4c0-.35.28-.63.63-.63h9.13c.25 0 .48.15.57.38l1.34 3.13zm10.49 7.33v11.41h-1.75V12.61l-3.28 3.28c-.34.34-.9.34-1.24 0s-.34-.9 0-1.24l5.4-5.4 5.4 5.4a.881.881 0 0 1-.62 1.5c-.22 0-.45-.09-.62-.26l-3.28-3.28Z"/>
</svg>
