<svg viewBox="0 0 64 64" xmlns="http://www.w3.org/2000/svg">
  <path fill="#1e1e1c" d="M58.62 14H39.27L34.66 3.26A5.37 5.37 0 0 0 29.72 0H5.37C2.4 0 0 2.41 0 5.37v47.38h26.1V50H2.74v-5.33h.04V21.38a4.64 4.64 0 0 1 4.63-4.63h51.2c1.45 0 2.63 1.18 2.63 2.63v30.63H38.82v2.75h25.17V19.37c0-2.96-2.41-5.38-5.38-5.38ZM2.74 15.67V5.37c0-1.45 1.18-2.63 2.63-2.63h24.35c1.05 0 2 .62 2.41 1.59l4.14 9.66H7.41c-1.77 0-3.4.63-4.67 1.67Zm31.14 12.62V64h-2.75V28.29L20.75 38.67c-.54.54-1.41.54-1.95 0s-.54-1.41 0-1.95l13.71-13.7 13.71 13.7a1.376 1.376 0 0 1-1.94 1.95L33.9 28.29Z"/>
</svg>
