<svg viewBox="0 0 16 16" xmlns="http://www.w3.org/2000/svg">
  <path d="M8.04 0c-4.41 0-8 3.59-8 8s3.59 8 8 8 8-3.59 8-8-3.59-8-8-8m0 14.5c-3.58 0-6.5-2.92-6.5-6.5s2.92-6.5 6.5-6.5 6.5 2.92 6.5 6.5-2.92 6.5-6.5 6.5m3.03-8.47L9.1 8l1.97 1.97c.29.29.29.77 0 1.06-.15.15-.34.22-.53.22s-.38-.07-.53-.22L8.04 9.06l-1.97 1.97c-.15.15-.34.22-.53.22s-.38-.07-.53-.22a.754.754 0 0 1 0-1.06L6.98 8 5.01 6.03c-.29-.29-.29-.77 0-1.06s.77-.29 1.06 0l1.97 1.97 1.97-1.97c.29-.29.77-.29 1.06 0s.29.77 0 1.06"/>
</svg>
