<svg viewBox="0 0 48 48" xmlns="http://www.w3.org/2000/svg">
  <path d="M24.03 0c-13.24 0-24 10.77-24 24.01s10.77 24 24 24 24-10.77 24-24S37.26 0 24.03 0m0 45.5c-11.85 0-21.5-9.64-21.5-21.5s9.64-21.49 21.5-21.49 21.5 9.64 21.5 21.5-9.64 21.5-21.5 21.5Zm8.73-28.45-6.96 6.96 6.96 6.96c.49.49.49 1.28 0 1.77-.24.24-.56.37-.88.37s-.64-.12-.88-.37l-6.96-6.96-6.96 6.96c-.24.24-.56.37-.88.37s-.64-.12-.88-.37a1.25 1.25 0 0 1 0-1.77l6.96-6.96-6.96-6.96c-.49-.49-.49-1.28 0-1.77s1.28-.49 1.77 0l6.96 6.96 6.96-6.96c.49-.49 1.28-.49 1.77 0s.49 1.28 0 1.77Z"/>
</svg>
