<svg viewBox="0 0 48 48" xmlns="http://www.w3.org/2000/svg">
  <path d="M24 0 0 19.26h3.84v25.91c0 1.56 1.28 2.82 2.86 2.82h34.59c1.58 0 2.86-1.27 2.86-2.82V19.26H48zm17.62 45.18c0 .18-.15.32-.33.32H22.85v-5.4c0-1.05.86-1.9 1.92-1.9h6.22c2.45 0 4.45-1.97 4.45-4.4v-6.74c0-2.42-2-4.4-4.45-4.4H16.56l2.92-2.89c.49-.49.49-1.28 0-1.77s-1.3-.49-1.79 0l-5.75 5.68 5.75 5.68c.25.24.57.37.89.37s.65-.12.89-.37c.49-.49.49-1.28 0-1.77L17 25.15h13.98c1.06 0 1.92.85 1.92 1.9v6.74c0 1.05-.86 1.9-1.92 1.9h-6.22c-2.45 0-4.45 1.97-4.45 4.4v5.4H6.7c-.18 0-.33-.14-.33-.32V17.36L24 3.22l17.62 14.14z"/>
</svg>
