<svg viewBox="0 0 64 64" xmlns="http://www.w3.org/2000/svg">
  <path d="M63.99 25.33h-4.64v35.18c0 1.93-1.57 3.49-3.49 3.49H30.17V53.67a2.86 2.86 0 0 1 2.86-2.86h8.26a5.62 5.62 0 0 0 5.61-5.61v-9.07a5.62 5.62 0 0 0-5.61-5.61H21.38l4.4-4.41c.54-.54.54-1.41 0-1.95s-1.41-.54-1.95 0l-7.42 7.43 7.42 7.43c.27.27.62.4.97.4s.7-.13.97-.4c.54-.54.54-1.41 0-1.95l-3.81-3.81h19.31a2.86 2.86 0 0 1 2.86 2.86v9.07a2.86 2.86 0 0 1-2.86 2.86h-8.26a5.62 5.62 0 0 0-5.61 5.61v10.33H8.11a3.5 3.5 0 0 1-3.49-3.49V25.33H-.01L31.99 0l32 25.32Z"/>
</svg>
