<svg viewBox="0 0 48 48" xmlns="http://www.w3.org/2000/svg">
  <path d="M48 19.29h-3.84v25.92c0 1.56-1.27 2.82-2.82 2.82H22.86v-7.9c0-1.05.85-1.9 1.9-1.9h6.15c2.42 0 4.4-1.97 4.4-4.4v-6.74c0-2.42-1.97-4.4-4.4-4.4H16.65l2.89-2.89c.49-.49.49-1.28 0-1.77s-1.28-.49-1.77 0l-5.68 5.68 5.68 5.68c.24.24.56.37.88.37s.64-.12.88-.37c.49-.49.49-1.28 0-1.77l-2.44-2.44H30.9c1.05 0 1.9.85 1.9 1.9v6.74a1.9 1.9 0 0 1-1.9 1.9h-6.15c-2.42 0-4.4 1.97-4.4 4.4v7.9H6.66c-1.56 0-2.82-1.27-2.82-2.82V19.28H0L23.99.03z"/>
</svg>
