<svg viewBox="0 0 40 40" xmlns="http://www.w3.org/2000/svg">
  <path d="M40 16.12h-3.33v21.45c0 1.34-1.09 2.43-2.44 2.43H19.14v-6.65c0-.82.67-1.49 1.5-1.49h5.12a3.75 3.75 0 0 0 3.75-3.74v-5.6a3.75 3.75 0 0 0-3.75-3.74H14.08l2.26-2.26c.44-.44.44-1.15 0-1.59s-1.15-.44-1.59 0l-4.79 4.78 4.79 4.78c.22.22.51.33.8.33s.58-.11.8-.33c.44-.44.44-1.15 0-1.59l-1.89-1.89h11.31c.83 0 1.5.67 1.5 1.49v5.6c0 .82-.67 1.49-1.5 1.49h-5.12a3.75 3.75 0 0 0-3.75 3.74v6.65H5.76c-1.34 0-2.44-1.09-2.44-2.43V16.1H0L20 0z"/>
</svg>
