<svg viewBox="0 0 64 64" xmlns="http://www.w3.org/2000/svg">
  <path d="M31.98 0 0 25.33h4.63v35.18C4.63 62.44 6.2 64 8.12 64h47.75a3.5 3.5 0 0 0 3.49-3.49V25.33H64zm24.63 60.51c0 .41-.33.74-.74.74H30.15v-7.58a2.86 2.86 0 0 1 2.86-2.86h8.26a5.62 5.62 0 0 0 5.61-5.61v-9.07a5.62 5.62 0 0 0-5.61-5.61H21.36l4.4-4.41c.54-.54.54-1.41 0-1.95s-1.41-.54-1.94 0l-7.42 7.43 7.42 7.43c.27.27.62.4.97.4s.7-.13.97-.4c.54-.54.54-1.41 0-1.95l-3.81-3.81h19.31c1.57 0 2.86 1.28 2.86 2.86v9.07a2.86 2.86 0 0 1-2.86 2.86H33a5.62 5.62 0 0 0-5.61 5.61v7.58H8.12c-.41 0-.74-.33-.74-.74V22.99l24.6-19.48L56.6 22.99v37.52Z"/>
</svg>
