<svg viewBox="0 0 32 32" xmlns="http://www.w3.org/2000/svg">
  <path fill="#1d1d1b" d="M20.45 7.86h-8.88c-2.06 0-3.69 1.62-3.69 3.69v8.88c0 2.06 1.62 3.69 3.69 3.69h8.88c2 0 3.69-1.62 3.69-3.69v-8.88c0-2.06-1.62-3.69-3.69-3.69M16.01 21.3c-2.94 0-5.31-2.38-5.31-5.31s2.38-5.31 5.31-5.31 5.31 2.38 5.31 5.31-2.38 5.31-5.31 5.31m5.37-9.56c-.62 0-1.19-.5-1.19-1.19s.5-1.19 1.19-1.19c.62.06 1.19.56 1.19 1.19s-.5 1.19-1.19 1.19m-1.93 4.25c0 1.88-1.56 3.44-3.44 3.44s-3.44-1.56-3.44-3.44 1.56-3.44 3.44-3.44 3.44 1.56 3.44 3.44M0-.01v32h32v-32zm26.01 20.44c0 3.06-2.5 5.56-5.56 5.56h-8.88c-3.06 0-5.56-2.5-5.56-5.56v-8.88c0-3.06 2.5-5.56 5.56-5.56h8.88c3.06 0 5.56 2.5 5.56 5.56z"/>
</svg>
