<svg viewBox="0 0 24 24" xmlns="http://www.w3.org/2000/svg">
  <path d="M14.52 11.95c0 1.41-1.17 2.58-2.58 2.58s-2.58-1.17-2.58-2.58 1.17-2.58 2.58-2.58 2.58 1.17 2.58 2.58m4.93-3.32v6.66c0 2.3-1.88 4.17-4.17 4.17H8.62a4.18 4.18 0 0 1-4.17-4.17V8.63c0-2.3 1.88-4.17 4.17-4.17h6.66c2.3 0 4.17 1.88 4.17 4.17m-3.52 3.32c0-2.2-1.78-3.98-3.98-3.98s-3.98 1.78-3.98 3.98 1.78 3.98 3.98 3.98 3.98-1.78 3.98-3.98m.94-4.07c0-.47-.42-.84-.89-.89-.52 0-.89.38-.89.89s.42.89.89.89c.52 0 .89-.42.89-.89"/>
</svg>
