<svg viewBox="0 0 64 64" xmlns="http://www.w3.org/2000/svg">
  <path d="M40.83 11.96H23.08c-6.12 0-11.12 5-11.12 11.12v17.75c0 6.12 5 11.12 11.12 11.12h17.75c6.12 0 11.12-5 11.12-11.12V23.08c0-6.12-5-11.12-11.12-11.12m-8.87 30.62c-5.88 0-10.62-4.75-10.62-10.62s4.75-10.62 10.62-10.62 10.62 4.75 10.62 10.62-4.75 10.62-10.62 10.62m10.75-19.12c-1.25 0-2.38-1-2.38-2.38s1-2.38 2.38-2.38c1.25.12 2.38 1.12 2.38 2.38s-1 2.38-2.38 2.38m-3.88 8.5c0 3.75-3.12 6.88-6.88 6.88s-6.88-3.12-6.88-6.88 3.12-6.88 6.88-6.88 6.88 3.12 6.88 6.88"/>
</svg>
