<svg viewBox="0 0 40 40" xmlns="http://www.w3.org/2000/svg">
  <path d="M24.24 19.94c0 2.34-1.95 4.3-4.3 4.3s-4.3-1.95-4.3-4.3 1.95-4.3 4.3-4.3 4.3 1.95 4.3 4.3m8.21-5.54v11.09c0 3.83-3.12 6.95-6.95 6.95H14.41c-3.83 0-6.95-3.12-6.95-6.95V14.4c0-3.83 3.12-6.95 6.95-6.95H25.5c3.83 0 6.95 3.12 6.95 6.95m-5.86 5.54c0-3.67-2.97-6.64-6.64-6.64s-6.64 2.97-6.64 6.64 2.97 6.64 6.64 6.64 6.64-2.97 6.64-6.64m1.56-6.79c0-.78-.7-1.41-1.48-1.48-.86 0-1.48.62-1.48 1.48s.7 1.48 1.48 1.48c.86 0 1.48-.7 1.48-1.48"/>
</svg>
