<svg viewBox="0 0 40 40" xmlns="http://www.w3.org/2000/svg">
  <path fill="none" d="M0 0h40v40H0z"/>
  <path fill="#020303" d="M25.56 7.49H14.47c-3.83 0-6.95 3.13-6.95 6.95v11.09c0 3.83 3.13 6.95 6.95 6.95h11.09c3.83 0 6.95-3.13 6.95-6.95V14.44c0-3.83-3.12-6.95-6.95-6.95m4.6 18.05c0 2.58-2.11 4.61-4.61 4.61H14.46c-2.58 0-4.61-2.03-4.61-4.61V14.45c0-2.58 2.03-4.61 4.61-4.61h11.09c2.58 0 4.61 2.03 4.61 4.61zM20.01 13.35c-3.67 0-6.64 2.97-6.64 6.64s2.97 6.64 6.64 6.64 6.64-2.97 6.64-6.64-2.97-6.64-6.64-6.64m0 10.94c-2.34 0-4.3-1.95-4.3-4.3s1.95-4.3 4.3-4.3 4.3 1.95 4.3 4.3-1.95 4.3-4.3 4.3m8.2-11.09c0 .78-.62 1.48-1.48 1.48-.78 0-1.48-.63-1.48-1.48s.62-1.48 1.48-1.48c.78.08 1.48.7 1.48 1.48"/>
</svg>
