<svg viewBox="0 0 64 64" xmlns="http://www.w3.org/2000/svg">
  <path fill="#1d1d1b" d="M40.89 15.77H23.14c-4.12 0-7.38 3.25-7.38 7.38V40.9c0 4.12 3.25 7.38 7.38 7.38h17.75c4 0 7.38-3.25 7.38-7.38V23.15c0-4.12-3.25-7.38-7.38-7.38m-8.87 26.88c-5.88 0-10.62-4.75-10.62-10.62s4.75-10.62 10.62-10.62 10.62 4.75 10.62 10.62-4.75 10.62-10.62 10.62m10.75-19.13c-1.25 0-2.38-1-2.38-2.38s1-2.38 2.38-2.38c1.25.12 2.38 1.12 2.38 2.38s-1 2.38-2.38 2.38M.02.02v64h64v-64zm52 40.88c0 6.12-5 11.12-11.12 11.12H23.15c-6.12 0-11.12-5-11.12-11.12V23.15c0-6.12 5-11.12 11.12-11.12H40.9c6.12 0 11.12 5 11.12 11.12zm-13.13-8.88c0 3.75-3.12 6.88-6.88 6.88s-6.88-3.12-6.88-6.88 3.12-6.88 6.88-6.88 6.88 3.12 6.88 6.88"/>
</svg>
