<svg viewBox="0 0 48 48" xmlns="http://www.w3.org/2000/svg">
  <path fill="none" d="M0 .13h48v48H0z"/>
  <path fill="#020303" d="M30.66 9.13H17.35c-4.59 0-8.34 3.75-8.34 8.34v13.31c0 4.59 3.75 8.34 8.34 8.34h13.31c4.59 0 8.34-3.75 8.34-8.34V17.47c0-4.59-3.75-8.34-8.34-8.34m5.54 21.65c0 3.09-2.53 5.53-5.53 5.53H17.36c-3.09 0-5.53-2.44-5.53-5.53V17.47c0-3.09 2.44-5.53 5.53-5.53h13.31c3.09 0 5.53 2.44 5.53 5.53zM24.01 16.16c-4.41 0-7.97 3.56-7.97 7.97s3.56 7.97 7.97 7.97 7.97-3.56 7.97-7.97-3.56-7.97-7.97-7.97m0 13.12c-2.81 0-5.16-2.34-5.16-5.16s2.34-5.16 5.16-5.16 5.16 2.34 5.16 5.16-2.34 5.16-5.16 5.16m9.84-13.31c0 .94-.75 1.78-1.78 1.78-.94 0-1.78-.75-1.78-1.78s.75-1.78 1.78-1.78c.94.09 1.78.84 1.78 1.78"/>
</svg>
