<svg viewBox="0 0 48 48" xmlns="http://www.w3.org/2000/svg">
  <path fill="#1d1d1b" d="M30.66 11.83H17.35c-3.09 0-5.53 2.44-5.53 5.53v13.31c0 3.09 2.44 5.53 5.53 5.53h13.31c3 0 5.53-2.44 5.53-5.53V17.36c0-3.09-2.44-5.53-5.53-5.53m-6.65 20.16c-4.41 0-7.97-3.56-7.97-7.97s3.56-7.97 7.97-7.97 7.97 3.56 7.97 7.97-3.56 7.97-7.97 7.97m8.06-14.35c-.94 0-1.78-.75-1.78-1.78s.75-1.78 1.78-1.78c.94.09 1.78.84 1.78 1.78s-.75 1.78-1.78 1.78m-2.91 6.38c0 2.81-2.34 5.16-5.16 5.16s-5.16-2.34-5.16-5.16 2.34-5.16 5.16-5.16 5.16 2.34 5.16 5.16M0 .02v48h48v-48zm39.01 30.65c0 4.59-3.75 8.34-8.34 8.34H17.36c-4.59 0-8.34-3.75-8.34-8.34V17.36c0-4.59 3.75-8.34 8.34-8.34h13.31c4.59 0 8.34 3.75 8.34 8.34z"/>
</svg>
