<svg viewBox="0 0 32 32" xmlns="http://www.w3.org/2000/svg">
  <path d="m30.4 19.58-4.8-1.46-.33-1.26-.49-.51-2.36.23-2.79-1.98-1.7-2.4-3.41-2.54-.36-1.43.29-.6-.24-1.32 3.08-2.39v-.07l-.65-1.7.71-.86-3-.41-.84-.85-2.43-.05-.37.68L9.37.35l.02 1.14-.65-.28-.72.92-2.05.92-.41 1.04-1.2-1.52-1.45 1.11-.77-.17-1.87.52.72 2.06L0 7.25l.77.8-.51.58.45 1.11 1.68.58v1.08l1.14-.52 1.3-1.57 1.55.1 2.68 1.9.1.85 1.07 2.53 6.51 5.67 1.89-.13.78 1.04 1.33 1.04.75-.24.74.96-.2.57 1.25.77-.08.77.53 1.6.04.14-1.94 2.31 2.73 1.98.43.57.93-.16.17-.71 1.05-1.26-.18-.91.93-.82.6.06V26.1l-1.48-1.67.71-2.04 1.43.39.7-.03.98 1.29.86.33.29-3.01-1.6-1.78Z"/>
</svg>
