<svg viewBox="0 0 16 16" xmlns="http://www.w3.org/2000/svg">
  <path d="m15.19 9.79-2.4-.73-.17-.63-.25-.26-1.18.11-1.39-.99-.85-1.2-1.7-1.27-.18-.71.15-.3-.12-.66 1.54-1.19v-.04l-.32-.85.36-.43-1.5-.21-.42-.42-1.21-.02-.19.34-.67-.16v.57L4.37.6l-.36.46-1.03.46-.2.52-.6-.76-.73.55-.38-.09L.14 2 .5 3.03l-.5.59.39.4-.25.29.23.55.84.29v.54l.57-.26.65-.79.77.05 1.34.95.05.42.53 1.27 3.25 2.84.95-.07.39.52.66.52.38-.12.37.48-.1.29.62.38-.04.38.27.8.02.07-.97 1.16 1.36.99.22.29.47-.08.08-.36.53-.63-.09-.46.46-.41.3.03v-.92l-.74-.84.36-1.02.72.2.35-.02.49.64.43.16.15-1.5-.8-.89Z"/>
</svg>
