<svg viewBox="0 0 24 24" xmlns="http://www.w3.org/2000/svg">
  <path d="M18.25 23.81a.89.89 0 0 1-.7-.35l-.22-.29-1.79-1.3a.85.85 0 0 1-.35-.6c-.03-.24.04-.48.2-.67l1.04-1.24-.25-.74c-.04-.11-.05-.23-.04-.35l-.4-.25a.9.9 0 0 1-.42-.77.9.9 0 0 1-.57-.19l-.92-.73c-.06-.05-.11-.1-.16-.16l-.26-.34-.84.06a.93.93 0 0 1-.64-.21l-4.52-3.94c-.1-.09-.18-.2-.23-.32l-.74-1.76q-.045-.12-.06-.24l-.02-.2-1.34-.95-.38-.03-.62.75c-.08.1-.19.18-.31.24l-.79.36a.873.873 0 0 1-1.24-.79v-.13l-.58-.2a.87.87 0 0 1-.53-.5L.26 7.2a.87.87 0 0 1 0-.67.9.9 0 0 1-.04-1.19l.36-.42-.33-.95a.88.88 0 0 1 .59-1.13l1.3-.36c.14-.04.28-.04.43-.01l.14.03.69-.52c.38-.29.92-.22 1.22.16l.06.08 1.23-.55.36-.47c.08-.1.17-.18.27-.23.04-.2.15-.39.31-.52.21-.17.48-.23.75-.17l.3.07c.17-.22.44-.33.72-.35l1.69.03c.22 0 .44.1.6.25l.38.38 1.8.25a.878.878 0 0 1 .56 1.43l-.17.2.27.71c.05.13.07.26.05.4-.02.24-.15.51-.34.66l-1.72 1.33.07.4c.03.18 0 .38-.08.54l-.06.13.09.38 2.12 1.58c.07.06.14.12.19.2l1.09 1.55 1.55 1.1 1.32-.13c.27-.03.53.07.72.26l.34.36c.1.11.18.24.22.38l.11.4 2.87.87c.15.05.29.13.4.25l1.11 1.24c.16.18.24.43.22.67l-.2 2.09c-.03.27-.18.52-.41.66s-.52.17-.77.07l-.6-.23a.9.9 0 0 1-.38-.29l-.41-.53h-.03c-.1 0-.18 0-.27-.03l-.21-.06-.06.16.68.78c.14.16.22.36.22.57v1.28a.84.84 0 0 1-.27.65c-.18.17-.43.25-.67.23h-.03l.03.13c.05.26-.02.53-.19.73l-.6.71-.07.29c-.08.34-.36.6-.71.66l-.65.11s-.1.01-.15.01ZM17.32 21l1.03.75.45-.54-.04-.23c-.06-.3.05-.62.28-.82l.65-.57.12-.09v-.16l-.8-.92a.89.89 0 0 1-.17-.87l.49-1.42c.15-.43.61-.68 1.06-.56l.86.24.35-.02c.24-.02.45.07.62.22s-.69-.78-.69-.78l-3.1-.94a.86.86 0 0 1-.59-.61l-.14-.54-1.14.11a.88.88 0 0 1-.59-.16l-1.94-1.38q-.12-.09-.21-.21l-1.1-1.56-2.26-1.69a.88.88 0 0 1-.33-.49l-.25-.99a.9.9 0 0 1 .06-.6l.08-.16-.12-.64a.89.89 0 0 1 .32-.85l1.64-1.28-.24-.61a.8.8 0 0 1-.05-.22l-.84-.12a.9.9 0 0 1-.5-.25l-.34-.34-.81-.02c-.17.32-.52.5-.87.46-.06.17-.18.33-.34.43-.19.13-.42.17-.65.13l-.1.13c-.09.11-.2.2-.33.26l-1.1.5-.15.39c-.12.29-.38.5-.69.55a.89.89 0 0 1-.82-.32l-.3-.38-.32.25c-.21.16-.47.22-.72.16l-.32-.07-.18.05.19.55c.1.29.04.62-.16.86l-.17.2c.28.3.3.76.07 1.09l.7.24c.1.03.18.08.26.14l.48-.58c.18-.22.45-.33.73-.32l1.07.07c.16.01.32.07.45.16l1.87 1.32c.2.14.34.37.36.62l.05.46.61 1.46 4.1 3.57.95-.07c.3-.01.58.11.76.35l.47.63.47.37.08-.03c.35-.11.73 0 .95.3l.52.67c.12.15.18.34.18.53l.31.19c.29.18.45.5.41.84l-.04.35.35 1.09c.07.27 0 .56-.18.78l-.74.89Z"/>
</svg>
