<svg viewBox="0 0 64 64" xmlns="http://www.w3.org/2000/svg">
  <path d="m60.8 39.17-9.59-2.91-.67-2.52-.99-1.03-4.72.46-5.58-3.96-3.39-4.81-6.81-5.09-.71-2.86.59-1.2-.48-2.65 6.15-4.78.02-.15-1.31-3.41 1.42-1.72-6-.83-1.7-1.65-4.85-.1-.75 1.36-2.69-.63.03 2.28-1.29-.55-1.43 1.84-4.1 1.84-.82 2.08-2.4-3.05-2.91 2.21L4.28 7 .55 8.04 2 12.15l-2 2.34 1.55 1.59-1.02 1.16.9 2.21 3.36 1.16v2.15l2.28-1.04 2.6-3.15 3.09.21 5.37 3.8.19 1.7 2.14 5.07 13.02 11.34 3.78-.27 1.56 2.08 2.66 2.09 1.51-.47 1.48 1.91-.41 1.15 2.5 1.54-.16 1.54 1.07 3.2.07.28-3.88 4.63 5.46 3.97.86 1.14 1.86-.31.34-1.42 2.1-2.51-.35-1.83 1.86-1.65 1.21.11-.02-3.67-2.94-3.34 1.42-4.08 2.87.79 1.39-.06 1.97 2.57 1.73.66.58-6.01-3.21-3.56Z"/>
</svg>
