<svg viewBox="0 0 48 48" xmlns="http://www.w3.org/2000/svg">
  <path fill="#1e1e1c" d="M48 14c0-2.41-1.96-4.36-4.37-4.36h-9.57V4.37C34.06 1.96 32.1 0 29.7 0H18.31c-2.41 0-4.37 1.96-4.37 4.36v5.27H4.37C1.96 9.63 0 11.59 0 13.99v11.33h2.14v18.32C2.14 46.05 4.1 48 6.5 48h35.01c2.4 0 4.36-1.96 4.36-4.36V25.32h2.14V13.99ZM16.44 4.36c0-1.03.84-1.86 1.86-1.86h11.39c1.03 0 1.86.84 1.86 1.86v5.27H16.43V4.36ZM4.37 12.13h39.25c1.03 0 1.88.84 1.88 1.86v8.79H29.34v-3.11H18.66v3.11H2.5v-8.79c0-1.03.84-1.86 1.88-1.86Zm22.47 10.05v5.96c0 .18-.15.33-.33.33h-5.03c-.18 0-.33-.15-.33-.33v-5.96zM41.5 45.5h-35c-1.03 0-1.86-.84-1.86-1.86V25.29h14.02v2.85c0 1.56 1.27 2.83 2.82 2.83h5.03c1.56 0 2.82-1.27 2.82-2.83v-2.85h14.02v18.35c0 1.03-.84 1.86-1.86 1.86Z"/>
</svg>
