<svg viewBox="0 0 16 16" xmlns="http://www.w3.org/2000/svg">
  <path fill="#1e1e1c" d="M15.99 4.83c0-.96-.78-1.75-1.75-1.75h-2.46V1.75C11.79.79 11.01 0 10.04 0H6.39c-.96 0-1.75.78-1.75 1.75v1.33h-2.9C.78 3.08 0 3.87 0 4.83v3.96h.46v5.47c0 .96.78 1.75 1.75 1.75h11.53c.96 0 1.75-.78 1.75-1.75V8.79H16V4.83ZM6.15 1.75c0-.13.11-.25.24-.25h3.65c.13 0 .24.11.24.25v1.33H6.14V1.75ZM1.74 4.58h12.51c.13 0 .24.11.24.25v2.46h-4.44v-1.3H5.93v1.3H1.49V4.83c0-.13.11-.25.24-.25Zm6.81 2.91V9.1H7.43V7.49zm5.18 7.01H2.2c-.13 0-.25-.11-.25-.25V8.78h3.97v.56c0 .69.56 1.25 1.26 1.25h1.61c.69 0 1.26-.56 1.26-1.25v-.56h3.93v5.47c0 .13-.11.25-.25.25"/>
</svg>
