<svg viewBox="0 0 64 64" xmlns="http://www.w3.org/2000/svg">
  <path fill="#1e1e1c" d="M24.98 31.71v-7h14.03v7h24.98V19.57c0-2.79-2.26-5.05-5.04-5.05H47.62V6.8c.01-3.76-3.04-6.81-6.78-6.81h-15.7c-3.74 0-6.79 3.05-6.79 6.8v7.72H5.03a5.06 5.06 0 0 0-5.04 5.06v12.14zM23.36 6.79c0-.99.8-1.8 1.78-1.8h15.7c.98 0 1.78.81 1.78 1.8v7.72H23.35V6.79Zm36.87 27.7v24.44c0 2.79-2.18 5.05-4.86 5.05H7.77c-2.68 0-4.86-2.27-4.86-5.05V34.49l22.07-.03v2.91a3.55 3.55 0 0 0 3.55 3.55h6.93a3.55 3.55 0 0 0 3.55-3.55v-2.91zm-32.5 2.88v-9.9h8.53v9.9c0 .44-.36.8-.8.8h-6.93c-.44 0-.8-.36-.8-.8"/>
</svg>
