<svg viewBox="0 0 40 40" xmlns="http://www.w3.org/2000/svg">
  <path fill="#1e1e1c" d="M36.58 9.03h-6.51V4.58c0-2.55-2.08-4.63-4.64-4.63h-9.67c-2.56 0-4.64 2.08-4.64 4.64v4.45H3.37a3.38 3.38 0 0 0-3.39 3.38v6.89h15.4v-4.29h9.2v4.29h15.4v-6.89c0-1.87-1.52-3.39-3.39-3.39Zm-10.52 0H15.12V4.58c0-.35.29-.64.64-.64h9.67c.35 0 .64.29.64.64v4.45Zm-1.48 12.53h13.08v14.99c0 1.87-1.47 3.39-3.28 3.39H5.06c-1.81 0-3.28-1.52-3.28-3.39V21.56h13.61v1.49c0 1.36 1.1 2.46 2.46 2.46h4.27c1.36 0 2.46-1.1 2.46-2.46v-1.5Zm-6.74 1.71c-.12 0-.21-.09-.21-.21v-5.79h4.69v5.79c0 .12-.09.21-.21.21z"/>
</svg>
