<svg viewBox="0 0 40 40" xmlns="http://www.w3.org/2000/svg">
  <path fill="#1e1e1c" d="M18.07 14.44c-.07-.11-.15-.21-.23-.31-.08-.11-.17-.23-.26-.34-.22-.28-.45-.54-.7-.79-.05-.05-.11-.1-.16-.15-.24-.23-.49-.45-.75-.65l-.26-.2c-.25-.19-.51-.36-.78-.52-.06-.04-.13-.08-.19-.12-.69-.39-1.43-.7-2.21-.92l-.25-.06c-.31-.08-.62-.14-.93-.19-.1-.02-.2-.03-.29-.04-.4-.05-.79-.08-1.2-.08-5.49 0-9.94 4.43-9.94 9.87s4.45 9.88 9.92 9.88c.41 0 .81-.03 1.2-.08.1-.01.2-.03.29-.04.32-.05.63-.11.93-.19l.25-.06c.78-.22 1.52-.53 2.21-.92.07-.04.13-.08.2-.12.27-.16.53-.33.78-.52.09-.07.18-.13.27-.2.26-.2.51-.42.74-.64l.18-.18c.24-.24.47-.5.69-.77.09-.11.18-.23.26-.35.07-.1.16-.2.23-.3h2.19l2.87.96 2.9-2.14 3.26 2.49 2.88-2.31h3.63l4.12-10.01zm-9.01 9.05c-1.94 0-3.51-1.57-3.51-3.5s1.58-3.5 3.51-3.5 3.51 1.57 3.51 3.5-1.58 3.5-3.51 3.5m23.46-3.33H21.88c-.62 0-1.13-.5-1.13-1.12s.51-1.12 1.13-1.12h10.64c.62 0 1.13.5 1.13 1.12s-.51 1.12-1.13 1.12"/>
</svg>
