<svg viewBox="0 0 48 48" xmlns="http://www.w3.org/2000/svg">
  <path fill="#1e1e1c" d="M21.53 17.5a11.76 11.76 0 0 0-6.9-4.89h-.01c-.44-.11-.89-.2-1.35-.26-.06 0-.11-.01-.17-.02-.45-.05-.9-.09-1.35-.09C5.27 12.25 0 17.53 0 24s5.27 11.75 11.75 11.75q.69 0 1.35-.09c.06 0 .11-.01.17-.02a11.7 11.7 0 0 0 8.26-5.15h3.11l3.4 1.14 3.49-2.58 3.9 2.98 3.41-2.74h4.31L48 17.48H21.54Zm19.94 9.31h-3.51l-2.56 2.06-3.83-2.94-3.95 2.92-2.55-.86h-2.39c-.03-.46-.3-.89-.75-1.08a1.25 1.25 0 0 0-1.64.67c-.15.37-.34.71-.54 1.05-.17.3-.37.58-.57.85-.05.06-.09.13-.14.19-.21.26-.43.51-.66.74-.06.06-.11.12-.17.18-.23.23-.48.44-.73.64-.07.06-.14.11-.21.16-.25.19-.51.36-.78.52-.09.05-.18.11-.28.16-.26.14-.52.28-.8.39-.13.06-.26.1-.39.15-.25.09-.5.19-.75.26-.2.06-.4.09-.61.14-.2.04-.4.09-.61.12-.42.06-.85.1-1.29.1-5.1 0-9.25-4.15-9.25-9.25s4.15-9.25 9.25-9.25c.43 0 .86.04 1.29.1.21.03.41.08.61.12s.41.08.61.14c.26.07.51.16.75.26l.39.15c.27.12.54.25.8.39.09.05.19.1.28.16.27.16.53.33.78.52.07.05.14.11.21.17.25.2.5.41.73.64.06.06.12.12.18.19.23.23.45.48.65.74l.15.21a9.3 9.3 0 0 1 1.1 1.88 1.245 1.245 0 0 0 2.39-.4h21.61l-2.79 6.81Zm-31.35-7c-2.34 0-4.25 1.91-4.25 4.25s1.91 4.25 4.25 4.25 4.25-1.91 4.25-4.25-1.91-4.25-4.25-4.25m0 6c-.97 0-1.75-.79-1.75-1.75s.79-1.75 1.75-1.75 1.75.79 1.75 1.75-.79 1.75-1.75 1.75m30.42-2.9c0 .69-.56 1.25-1.25 1.25H25.56a1.25 1.25 0 0 1 0-2.5h13.73c.69 0 1.25.56 1.25 1.25"/>
</svg>
