<svg viewBox="0 0 48 48" xmlns="http://www.w3.org/2000/svg">
  <path fill="#1e1e1c" d="M21.53 17.5c-.09-.14-.19-.27-.29-.4-.1-.14-.21-.28-.32-.42-.26-.33-.54-.65-.83-.94-.06-.06-.12-.11-.18-.17q-.435-.42-.9-.78c-.1-.08-.2-.15-.3-.23-.3-.22-.62-.43-.95-.63-.07-.04-.14-.09-.21-.13-.82-.47-1.7-.83-2.63-1.09-.09-.03-.19-.05-.28-.07a14 14 0 0 0-1.46-.28c-.47-.06-.94-.1-1.43-.1C5.27 12.25 0 17.52 0 24s5.27 11.75 11.75 11.75c.48 0 .96-.04 1.43-.1.12-.01.23-.03.34-.05.38-.06.75-.13 1.12-.23.09-.02.19-.05.28-.07.93-.26 1.81-.63 2.63-1.1.07-.04.14-.09.21-.13.33-.2.64-.41.95-.63.1-.07.2-.15.3-.22.32-.25.62-.51.91-.8.05-.05.11-.1.16-.15.3-.3.58-.63.85-.96.11-.13.21-.27.31-.41s.2-.27.3-.41h3.12l3.4 1.14 3.49-2.58 3.9 2.98 3.41-2.74h4.31l4.85-11.81H21.56ZM10.62 28.31c-2.34 0-4.25-1.91-4.25-4.25s1.91-4.25 4.25-4.25 4.25 1.91 4.25 4.25-1.91 4.25-4.25 4.25m28.67-4.15H25.56a1.25 1.25 0 0 1 0-2.5h13.73a1.25 1.25 0 0 1 0 2.5"/>
</svg>
