<svg viewBox="0 0 64 64" xmlns="http://www.w3.org/2000/svg">
  <path fill="#1e1e1c" d="M28.26 23.61c-.3-.47-.63-.91-.98-1.34-.03-.04-.07-.08-.1-.12-.59-.7-1.23-1.35-1.92-1.93-.09-.07-.17-.14-.26-.21q-.405-.33-.84-.63c-.09-.06-.17-.12-.26-.18-.32-.22-.66-.41-1-.61-.16-.09-.33-.18-.5-.27-.22-.11-.44-.22-.67-.32-.23-.11-.47-.21-.71-.3-.28-.11-.55-.21-.84-.31-.18-.06-.37-.12-.56-.17-.28-.08-.56-.15-.85-.22-.15-.03-.3-.07-.45-.1-.4-.08-.8-.14-1.21-.18-.13-.01-.26-.03-.39-.04-.45-.04-.91-.07-1.37-.07C6.89 16.61 0 23.51 0 31.99s6.9 15.38 15.38 15.38c.46 0 .92-.03 1.37-.07a17 17 0 0 0 1.61-.23c.15-.03.29-.07.43-.1.29-.07.57-.14.86-.22a13 13 0 0 0 1.41-.49c.23-.09.45-.19.67-.29l.69-.33a15 15 0 0 0 1.5-.87c.08-.05.15-.11.23-.16.3-.21.59-.42.87-.65.08-.07.16-.13.24-.2.7-.59 1.35-1.24 1.94-1.94a1 1 0 0 0 .08-.1q.525-.645.99-1.35h5.09l4.44 1.49 4.7-3.48 5.19 3.97 4.44-3.58h5.65L64 23.61zM13.53 37.44c-2.96 0-5.38-2.41-5.38-5.38s2.41-5.38 5.38-5.38 5.38 2.41 5.38 5.38-2.41 5.38-5.38 5.38m38.86-5.53H33.43c-.76 0-1.38-.62-1.38-1.38s.62-1.38 1.38-1.38h18.96c.76 0 1.38.62 1.38 1.38s-.62 1.38-1.38 1.38"/>
</svg>
