<svg viewBox="0 0 32 32" xmlns="http://www.w3.org/2000/svg">
  <path fill="#1e1e1c" d="M29.5 5.67h-27A2.5 2.5 0 0 0 0 8.17V23.8a2.5 2.5 0 0 0 2.5 2.5h27a2.5 2.5 0 0 0 2.5-2.5V8.17a2.5 2.5 0 0 0-2.5-2.5M30 23.8c0 .28-.22.5-.5.5h-27c-.28 0-.5-.22-.5-.5V8.17c0-.28.22-.5.5-.5h27c.28 0 .5.22.5.5zM7.79 21.04h16.45v2H7.79zm-3.61-7.59h2v2h-2zm5.61 2h-2v-2h2zm3.61 0h-2v-2h2zm8.84-2h2v2h-2zm3.61 0h2v2h-2zm-21.67 3.8h2v2h-2zm5.61 2h-2v-2h2zm3.61 0h-2v-2h2zm3.62-3.8h-2v-2h2zm0 3.8h-2v-2h2zm3.61-3.8h-2v-2h2zM4.18 9.65h2v2h-2zm5.61 2h-2v-2h2zm3.61 0h-2v-2h2zm8.84-2h2v2h-2zm3.61 0h2v2h-2zm-8.83 2h-2v-2h2zm3.61 0h-2v-2h2zm0 7.6h-2v-2h2zm1.61-2h2v2h-2zm3.61 0h2v2h-2zM4.18 21.04h2v2h-2zm21.67 0h2v2h-2z"/>
</svg>
