<svg viewBox="0 0 48 48" xmlns="http://www.w3.org/2000/svg">
  <path fill="#1e1e1c" d="M44.75 8.62H3.25C1.46 8.62 0 10.08 0 11.87v24.24c0 1.79 1.46 3.25 3.25 3.25h41.5c1.79 0 3.25-1.46 3.25-3.25V11.87c0-1.79-1.46-3.25-3.25-3.25m.75 27.5c0 .41-.34.75-.75.75H3.25c-.41 0-.75-.34-.75-.75V11.87c0-.41.34-.75.75-.75h41.5c.41 0 .75.34.75.75v24.24Zm-34.57-4.19h26.2v2.5h-26.2zm-4.59-9.19h2.5v2.5h-2.5zm7.19 2.5h-2.5v-2.5h2.5zm4.7 0h-2.5v-2.5h2.5zm18.79 0h-2.5v-2.5h2.5zm2.19-2.5h2.5v2.5h-2.5zM6.34 27.33h2.5v2.5h-2.5zm7.19 2.5h-2.5v-2.5h2.5zm4.7 0h-2.5v-2.5h2.5zm4.7-4.59h-2.5v-2.5h2.5zm0 4.59h-2.5v-2.5h2.5zm4.69-4.59h-2.5v-2.5h2.5zM6.34 13.55h2.5v2.5h-2.5zm7.19 2.5h-2.5v-2.5h2.5zm4.7 0h-2.5v-2.5h2.5zm18.79 0h-2.5v-2.5h2.5zm2.19-2.5h2.5v2.5h-2.5zm-16.28 2.5h-2.5v-2.5h2.5zm4.69 0h-2.5v-2.5h2.5zm0 13.78h-2.5v-2.5h2.5zm4.7-4.59h-2.5v-2.5h2.5zm0-9.19h-2.5v-2.5h2.5zm-25.98 2.1h2.5v2.5h-2.5zm7.19 2.5h-2.5v-2.5h2.5zm4.7 0h-2.5v-2.5h2.5zm18.79 0h-2.5v-2.5h2.5zm2.19-2.5h2.5v2.5h-2.5zm-16.28 2.5h-2.5v-2.5h2.5zm4.69 0h-2.5v-2.5h2.5zm4.7 0h-2.5v-2.5h2.5zm0 9.18h-2.5v-2.5h2.5zm4.7 0h-2.5v-2.5h2.5zm2.19-2.5h2.5v2.5h-2.5zm-32.87 4.6h2.5v2.5h-2.5zm32.87 0h2.5v2.5h-2.5z"/>
</svg>
