<svg viewBox="0 0 32 32" xmlns="http://www.w3.org/2000/svg">
  <path fill="#1e1e1c" d="M29.49 5.68h-27C1.11 5.68 0 6.8 0 8.18v15.63a2.5 2.5 0 0 0 2.5 2.5h27a2.5 2.5 0 0 0 2.5-2.5V8.18a2.5 2.5 0 0 0-2.5-2.5ZM18.62 9.66h2v2h-2zm0 3.8h2v2h-2zm0 3.79h2v2h-2zm-3.61-7.59h2v2h-2zm0 3.8h2v2h-2zm0 3.79h2v2h-2zm-3.62-7.59h2v2h-2zm0 3.8h2v2h-2zm0 3.79h2v2h-2zM7.78 9.66h2v2h-2zm0 3.8h2v2h-2zm0 3.79h2v2h-2zm-1.61 5.8h-2v-2h2zm0-3.8h-2v-2h2zm0-3.79h-2v-2h2zm0-3.8h-2v-2h2zm18.06 11.39H7.78v-2h16.45zm0-3.8h-2v-2h2zm0-3.79h-2v-2h2zm0-3.8h-2v-2h2zm3.61 11.39h-2v-2h2zm0-3.8h-2v-2h2zm0-3.79h-2v-2h2zm0-3.8h-2v-2h2z"/>
</svg>
