<svg viewBox="0 0 64 64" xmlns="http://www.w3.org/2000/svg">
  <path fill="#1e1e1c" d="M60.11 11.63H3.87C1.73 11.63 0 13.37 0 15.5v33c0 2.14 1.74 3.88 3.88 3.88h56.25c2.14 0 3.88-1.74 3.88-3.88v-33c0-2.14-1.74-3.88-3.88-3.88Zm-17.9 6.63h2.75v2.75h-2.75zm0 6.18h2.75v2.75h-2.75zm0 6.18h2.75v2.75h-2.75zm0 6.18h2.75v2.75h-2.75zm-5.78-18.54h2.75v2.75h-2.75zm0 6.18h2.75v2.75h-2.75zm0 6.18h2.75v2.75h-2.75zm0 6.18h2.75v2.75h-2.75zm-5.78-18.54h2.75v2.75h-2.75zm0 6.18h2.75v2.75h-2.75zm0 6.18h2.75v2.75h-2.75zm0 6.18h2.75v2.75h-2.75zm-5.78-18.54h2.75v2.75h-2.75zm0 6.18h2.75v2.75h-2.75zm0 6.18h2.75v2.75h-2.75zm0 6.18h2.75v2.75h-2.75zm-5.78-18.54h2.75v2.75h-2.75zm0 6.18h2.75v2.75h-2.75zm0 6.18h2.75v2.75h-2.75zm0 6.18h2.75v2.75h-2.75zM13.3 18.26h2.75v2.75H13.3zm0 6.18h2.75v2.75H13.3zm0 6.18h2.75v2.75H13.3zm-3.03 15.11H7.52v-2.75h2.75zm0-6.18H7.52V36.8h2.75zm0-6.18H7.52v-2.75h2.75zm0-6.18H7.52v-2.75h2.75zm0-6.18H7.52v-2.75h2.75zM13.3 36.8h2.75v2.75H13.3zm36.35 8.93H14.39v-2.75h35.26zm1.09-6.18h-2.75V36.8h2.75zm0-6.18h-2.75v-2.75h2.75zm0-6.18h-2.75v-2.75h2.75zm0-6.18h-2.75v-2.75h2.75zm5.79 24.72h-2.75v-2.75h2.75zm0-6.18h-2.75V36.8h2.75zm0-6.18h-2.75v-2.75h2.75zm0-6.18h-2.75v-2.75h2.75zm0-6.18h-2.75v-2.75h2.75z"/>
</svg>
