<svg viewBox="0 0 64 64" xmlns="http://www.w3.org/2000/svg">
  <path fill="#1e1e1c" d="M60.12 11.63H3.88C1.74 11.63 0 13.37 0 15.51v33c0 2.14 1.74 3.88 3.88 3.88h56.25c2.14 0 3.88-1.74 3.88-3.88V15.5c0-2.14-1.74-3.88-3.88-3.88Zm1.13 36.87c0 .62-.51 1.12-1.13 1.12H3.88c-.62 0-1.13-.5-1.13-1.12v-33c0-.62.51-1.12 1.13-1.12h56.25c.62 0 1.13.5 1.13 1.12v33ZM14.4 42.98h35.26v2.75H14.4zM7.53 30.62h2.75v2.75H7.53zm8.53 2.75h-2.75v-2.75h2.75zm5.79 0H19.1v-2.75h2.75zM48 30.62h2.75v2.75H48zm5.78 0h2.75v2.75h-2.75zM7.53 36.8h2.75v2.75H7.53zm8.53 2.75h-2.75V36.8h2.75zm5.79 0H19.1V36.8h2.75zm5.78-6.18h-2.75v-2.75h2.75zm0 6.18h-2.75V36.8h2.75zm11.56-6.18h-2.75v-2.75h2.75zM7.53 18.26h2.75v2.75H7.53zm8.53 2.75h-2.75v-2.75h2.75zm5.79 0H19.1v-2.75h2.75zM48 18.26h2.75v2.75H48zm5.78 0h2.75v2.75h-2.75zm-26.15 2.75h-2.75v-2.75h2.75zm11.56 0h-2.75v-2.75h2.75zm0 18.54h-2.75V36.8h2.75zm5.78-6.18h-2.75v-2.75h2.75zm0-12.36h-2.75v-2.75h2.75zM7.53 24.44h2.75v2.75H7.53zm8.53 2.75h-2.75v-2.75h2.75zm5.79 0H19.1v-2.75h2.75zM48 24.44h2.75v2.75H48zm5.78 0h2.75v2.75h-2.75zm-26.15 2.75h-2.75v-2.75h2.75zm5.78 6.18h-2.75v-2.75h2.75zm0 6.18h-2.75V36.8h2.75zm0-18.54h-2.75v-2.75h2.75zm0 6.18h-2.75v-2.75h2.75zm5.78 0h-2.75v-2.75h2.75zm5.78 0h-2.75v-2.75h2.75zm0 12.36h-2.75V36.8h2.75zM48 36.8h2.75v2.75H48zm5.78 0h2.75v2.75h-2.75zM7.53 42.98h2.75v2.75H7.53zm46.25 0h2.75v2.75h-2.75z"/>
</svg>
