<svg viewBox="0 0 40 40" xmlns="http://www.w3.org/2000/svg">
  <path fill="#1e1e1c" d="M37.87 7.18H2.13C.96 7.18 0 8.13 0 9.3v21.42c0 1.17.95 2.12 2.13 2.12h35.75c1.17 0 2.13-.95 2.13-2.12V9.3c0-1.17-.95-2.12-2.13-2.12Zm-.12 23.42H2.25V9.43h35.5zm-6.86-1.85H9.15V26.5h21.73v2.25ZM7.51 19.2H5.26v-2.25h2.25zm3.9 0H9.16v-2.25h2.25zm3.89 0h-2.25v-2.25h2.25zm15.59 0h-2.25v-2.25h2.25zm3.89 0h-2.25v-2.25h2.25zM7.51 23.98H5.26v-2.25h2.25zm3.9 0H9.16v-2.25h2.25zm3.89 0h-2.25v-2.25h2.25zm3.9-4.78h-2.25v-2.25h2.25zm0 4.78h-2.25v-2.25h2.25zm3.89-4.78h-2.25v-2.25h2.25zM7.51 14.43H5.26v-2.25h2.25zm3.9 0H9.16v-2.25h2.25zm3.89 0h-2.25v-2.25h2.25zm15.59 0h-2.25v-2.25h2.25zm3.89 0h-2.25v-2.25h2.25zm-15.58 0h-2.25v-2.25h2.25zm3.89 0h-2.25v-2.25h2.25zm0 9.55h-2.25v-2.25h2.25zm3.9-4.78h-2.25v-2.25h2.25zm0-4.77h-2.25v-2.25h2.25zm0 9.55h-2.25v-2.25h2.25zm3.9 0h-2.25v-2.25h2.25zm3.89 0h-2.25v-2.25h2.25zM7.51 28.75H5.26V26.5h2.25zm27.27 0h-2.25V26.5h2.25z"/>
</svg>
