<svg viewBox="0 0 24 24" xmlns="http://www.w3.org/2000/svg">
  <path fill="#1e1e1c" d="M22.11 4.22H1.87C.83 4.22 0 5.06 0 6.1v11.8c0 1.03.84 1.88 1.88 1.88h20.25c1.03 0 1.88-.84 1.88-1.88V6.1c0-1.03-.84-1.88-1.88-1.88Zm-9.37 3.43h1.75V9.4h-1.75zm0 3.43h1.75v1.75h-1.75zM9.52 7.65h1.75V9.4H9.52zm0 3.43h1.75v1.75H9.52zM6.31 7.65h1.75V9.4H6.31zm0 3.43h1.75v1.75H6.31zm-1.47 5.27H3.09V14.6h1.75zm0-3.52H3.09v-1.75h1.75zm0-3.43H3.09V7.65h1.75zm12.86 6.95H6.31V14.6h11.4v1.75Zm0-3.52h-1.75v-1.75h1.75zm0-3.43h-1.75V7.65h1.75zm3.22 6.95h-1.75V14.6h1.75zm0-3.52h-1.75v-1.75h1.75zm0-3.43h-1.75V7.65h1.75z"/>
</svg>
