<svg viewBox="0 0 40 40" xmlns="http://www.w3.org/2000/svg">
  <path fill="none" d="M-.01 0h40v40h-40z"/>
  <path fill="#010101" d="M28.47 31.88c0 .31-.31.63-.63.63h-3.92a.62.62 0 0 1-.63-.63v-5.25c0-1.41-1.18-2.51-2.59-2.51h-1.41c-1.41 0-2.59 1.1-2.59 2.51v5.25c0 .31-.31.63-.63.63h-3.92a.62.62 0 0 1-.63-.63V8.13c-.16-.31.16-.63.55-.63h3.92c.31 0 .63.31.63.63v11.21c.78-.31 1.72-.47 2.59-.47h1.33c1.41 0 2.59-1.1 2.59-2.51l.08-1.25c.08-.31.31-.55.63-.55h3.92c.31 0 .63.24.63.55v1.25c0 1.96-.78 3.76-1.96 5.09a7.5 7.5 0 0 1 2.04 5.17v5.25Z"/>
</svg>
