<svg viewBox="0 0 48 48" xmlns="http://www.w3.org/2000/svg">
  <path fill="none" d="M-.01 0h48v48h-48z"/>
  <path fill="#010101" d="M34.17 38.24c0 .38-.38.75-.75.75h-4.7c-.47 0-.75-.38-.75-.75v-6.3c0-1.69-1.41-3.01-3.1-3.01h-1.69c-1.69 0-3.1 1.32-3.1 3.01v6.3c0 .38-.38.75-.75.75h-4.7c-.47 0-.75-.38-.75-.75V9.74c-.19-.38.19-.75.66-.75h4.7c.38 0 .75.38.75.75v13.45c.94-.38 2.07-.56 3.1-.56h1.6c1.69 0 3.1-1.32 3.1-3.01l.09-1.5c.09-.38.38-.66.75-.66h4.7c.38 0 .75.28.75.66v1.5c0 2.35-.94 4.51-2.35 6.11 1.5 1.6 2.45 3.76 2.45 6.21v6.3Z"/>
</svg>
