<svg viewBox="0 0 32 32" xmlns="http://www.w3.org/2000/svg">
  <path fill="#1e1e1c" d="M15.78 14.45c0-.76.62-1.38 1.38-1.38s1.38.62 1.38 1.38-.62 1.38-1.38 1.38-1.38-.62-1.38-1.38m-1.54 4.44c-.76 0-1.38.62-1.38 1.38s.62 1.38 1.38 1.38 1.38-.62 1.38-1.38-.62-1.38-1.38-1.38m3.24 5.98c-.76 0-1.38.62-1.38 1.38s.62 1.38 1.38 1.38 1.38-.62 1.38-1.38-.62-1.38-1.38-1.38M32 8.7c0 2.07-1.68 3.75-3.75 3.75S24.5 10.77 24.5 8.7s1.68-3.75 3.75-3.75S32 6.63 32 8.7m-2 0c0-.97-.79-1.75-1.75-1.75s-1.75.78-1.75 1.75.79 1.75 1.75 1.75S30 9.66 30 8.7M4.97 17.57h-2v2.97H0v2h2.97v2.98h2v-2.98h2.97v-2H4.97zM22.19 7.53s-.03.02-.04.03v18.21c0 3.44-2.79 6.24-6.23 6.24s-6.23-2.8-6.23-6.24V2.01H7.18V0h17.45v2h-2.49v5.46l.04.06Zm-10.5-5.52v3.12c1.2-.29 2.85-.31 4.7.69 1.56.84 2.91.7 3.75.45V2.01h-8.46Zm8.46 6.32c-.4.08-.85.14-1.34.14-.99 0-2.14-.22-3.36-.89-1.59-.86-2.94-.66-3.75-.37v18.56c0 2.33 1.9 4.23 4.23 4.23s4.23-1.9 4.23-4.23V8.33Z"/>
</svg>
