<svg viewBox="0 0 40 40" xmlns="http://www.w3.org/2000/svg">
  <path fill="#1e1e1c" d="M19.57 17.12c0-1.03.84-1.88 1.88-1.88s1.88.84 1.88 1.88S22.49 19 21.45 19s-1.88-.84-1.88-1.88m-1.77 5.4c-1.03 0-1.88.84-1.88 1.88s.84 1.88 1.88 1.88 1.88-.84 1.88-1.88-.84-1.88-1.88-1.88m4.05 7.46c-1.03 0-1.88.84-1.88 1.88s.84 1.88 1.88 1.88 1.88-.84 1.88-1.88-.84-1.88-1.88-1.88M40 10.73c0 2.52-2.05 4.56-4.56 4.56s-4.56-2.05-4.56-4.56 2.05-4.56 4.56-4.56S40 8.22 40 10.73m-2.25 0c0-1.27-1.04-2.31-2.31-2.31s-2.31 1.04-2.31 2.31 1.04 2.31 2.31 2.31 2.31-1.04 2.31-2.31M6.09 21.82H3.84v3.84H0v2.25h3.84v3.84h2.25v-3.84h3.84v-2.25H6.09zM30.8 0v2.25h-3.23v30.09c0 4.23-3.44 7.66-7.66 7.66s-7.66-3.44-7.66-7.66V2.25H8.99V0h21.82Zm-5.48 32.33v-22.1c-.55.16-1.19.28-1.92.28-1.15 0-2.51-.28-4.03-1.09-2.03-1.1-3.79-.89-4.88-.55v23.47c0 2.98 2.43 5.41 5.41 5.41s5.41-2.43 5.41-5.41Zm0-30.08H14.5v4.29c1.51-.34 3.61-.37 5.94.89 2.31 1.25 4.04.8 4.88.42z"/>
</svg>
