<svg viewBox="0 0 24 24" xmlns="http://www.w3.org/2000/svg">
  <path fill="#1e1e1c" d="M11.55 10.29c0-.62.5-1.13 1.13-1.13s1.13.5 1.13 1.13-.5 1.13-1.13 1.13-1.13-.5-1.13-1.13m.63 4.36c0-.62-.5-1.13-1.13-1.13s-1.13.5-1.13 1.13.5 1.13 1.13 1.13 1.13-.5 1.13-1.13m.56 3.36c-.62 0-1.13.5-1.13 1.13s.5 1.13 1.13 1.13 1.13-.5 1.13-1.13-.5-1.13-1.13-1.13M24 6.65c0 1.62-1.32 2.94-2.94 2.94s-2.94-1.32-2.94-2.94 1.32-2.94 2.94-2.94S24 5.03 24 6.65m-1.75 0c0-.66-.53-1.19-1.19-1.19s-1.19.53-1.19 1.19.53 1.19 1.19 1.19 1.19-.53 1.19-1.19M3.86 13.3H2.11v2.1H0v1.75h2.1v2.1h1.75v-2.1h2.1V15.4h-2.1v-2.1ZM18.48 1.76h-1.74v17.45a4.801 4.801 0 0 1-9.6 0V1.76H5.38V0h13.09v1.75Zm-3.49 5.15c-.27.05-.56.08-.88.08-.76 0-1.64-.17-2.58-.68-1.08-.58-2.01-.51-2.63-.35V19.2c0 1.68 1.37 3.05 3.05 3.05S15 20.88 15 19.2V6.91Zm0-5.15H8.9v2.42c.92-.16 2.13-.12 3.46.6 1.08.58 2.02.51 2.63.35z"/>
</svg>
