<svg viewBox="0 0 64 64" xmlns="http://www.w3.org/2000/svg">
  <path d="M17.32 43.19V23.23h2.75v7.07c2.99-5.71 8.21-10.07 14.5-11.92h-.32v-2.75H37v2.17c1.41-.26 2.87-.4 4.36-.4h.15v-1.77h2.75v1.95c9.13 1.1 16.69 7.34 19.71 15.73V.03H0v51.96h19.81a23.7 23.7 0 0 1-2.4-8.8zm38.71-27.55h2.75v2.75h-2.75zm-7.26 0h2.75v2.75h-2.75zM34.25 2.41H37v2.75h-2.75zm0 6.61H37v2.75h-2.75zM10.42 43.19H7.67V23.23h2.75zm50.3-13.52a23.4 23.4 0 0 0-3.35-4.27 22.8 22.8 0 0 0-4.27-3.35 22.5 22.5 0 0 0-11.74-3.28 22.5 22.5 0 0 0-12.66 3.87c-1.2.81-2.33 1.74-3.35 2.76-.26.26-.51.52-.75.79a22.7 22.7 0 0 0-2.6 3.48 22.5 22.5 0 0 0-3.28 11.73c0 12.5 10.14 22.63 22.64 22.63S64 53.9 64 41.4c0-4.3-1.2-8.31-3.28-11.73m-10.77 5.32-9.82 14.88-6.98-7.47c-.52-.55-.49-1.42.07-1.94.55-.52 1.42-.49 1.94.07l4.6 4.92 7.9-11.97c.42-.63 1.27-.81 1.91-.39.63.42.81 1.27.39 1.9Z"/>
</svg>
