<svg viewBox="0 0 48 48" xmlns="http://www.w3.org/2000/svg">
  <path fill="#1e1e1c" d="M10.77 2.52h4.01l-.05 36.4c0 5.02 4.08 9.1 9.1 9.1h.06c5.02 0 9.1-4.08 9.1-9.1V2.52h3.98V.02h-26.2zm10.58 28.17c-1.24 0-2.25-1.01-2.25-2.25s1.01-2.25 2.25-2.25 2.25 1.01 2.25 2.25-1.01 2.25-2.25 2.25m2.12-10.97c0-1.24 1.01-2.25 2.25-2.25s2.25 1.01 2.25 2.25-1.01 2.25-2.25 2.25-2.25-1.01-2.25-2.25m2.75 19.93c-1.24 0-2.25-1.01-2.25-2.25s1.01-2.25 2.25-2.25 2.25 1.01 2.25 2.25-1.01 2.25-2.25 2.25M17.28 2.52h13.19v6.12c-.09.06-.22.14-.39.22-.98.37-2.47.66-4.28.08-.42-.15-.87-.34-1.34-.6-1.71-.93-3.28-1.27-4.63-1.3a8.6 8.6 0 0 0-2.56.31V2.52ZM42.6 7.4c-2.97 0-5.38 2.41-5.38 5.38s2.41 5.38 5.38 5.38 5.38-2.41 5.38-5.38S45.57 7.4 42.6 7.4m0 8.25c-1.59 0-2.88-1.29-2.88-2.88S41.01 9.9 42.6 9.9s2.88 1.29 2.88 2.87-1.29 2.88-2.88 2.88M7.19 30.79h4.71v2.5H7.19V38h-2.5v-4.71H-.02v-2.5h4.71v-4.71h2.5z"/>
</svg>
