<svg viewBox="0 0 48 48" xmlns="http://www.w3.org/2000/svg">
  <path d="M7.02 32.47v-14.9h2.5v14.9zM28.06 6.74h-2.5v2.5h2.5zm14.95 7.43v-2.5h-2.5v2.5zM2.49 36.77V2.53h23.07V4.3h2.5V2.53h17.4V20.1c1.03 1.33 1.87 2.8 2.5 4.39V.03H0v39.24h14.89c-.4-.8-.76-1.63-1.04-2.5zm34.98-22.6h.56v-2.5h-2.5v1.89c.66.17 1.31.37 1.94.61m-6.38-1.18c.66 0 1.31.04 1.96.11v-1.43h-2.5v1.35c.18 0 .36-.03.54-.03m-5.53.87c.81-.26 1.65-.45 2.5-.59v-1.59h-2.5v2.19Zm-8.83 6.22v-2.51h-2.5v6.88c.63-1.58 1.48-3.04 2.5-4.37m31.26 11.06c0 9.33-7.57 16.89-16.9 16.89s-16.9-7.56-16.9-16.89 7.57-16.89 16.9-16.89 16.9 7.56 16.9 16.89m-2.5 0c0-7.94-6.46-14.39-14.4-14.39s-14.4 6.46-14.4 14.39 6.46 14.39 14.4 14.39 14.4-6.46 14.4-14.39m-8.15-6.4c-.58-.38-1.35-.22-1.73.35l-5.74 8.7-3.24-3.47c-.47-.5-1.26-.53-1.77-.06-.5.47-.53 1.26-.06 1.77l5.4 5.78 7.49-11.34c.38-.58.22-1.35-.35-1.73"/>
</svg>
