<svg viewBox="0 0 16 16" xmlns="http://www.w3.org/2000/svg">
  <path d="M2.29 10.93V6.07h1.5v4.86zm-.8 1.06V1.51h7.27v1.25h1.5V1.51h4.22v2.3h-1.49v.96c.34.15.67.33.98.54h.51v.38c.61.51 1.12 1.12 1.5 1.82V0H0v13.48h4.99a6 6 0 0 1-.58-1.5H1.49Zm10.89-7.46V3.8h-1.5v.45c.52.03 1.02.12 1.5.28M6.06 6.07H4.64v2.19c.32-.83.8-1.57 1.42-2.19m2.71-1.59c.48-.14.98-.22 1.5-.23v-.44h-1.5zM16 10.5c0 3.04-2.47 5.51-5.51 5.51s-5.51-2.47-5.51-5.51 2.47-5.51 5.51-5.51S16 7.46 16 10.5m-1.5 0c0-2.21-1.8-4.01-4.01-4.01s-4.01 1.8-4.01 4.01 1.8 4.01 4.01 4.01 4.01-1.8 4.01-4.01m-1.79-2.37a.753.753 0 0 0-1.04.21l-1.63 2.48-.76-.81a.755.755 0 0 0-1.06-.04c-.3.28-.32.76-.04 1.06l2.06 2.2 2.68-4.06c.23-.35.13-.81-.21-1.04"/>
</svg>
