<svg viewBox="0 0 40 40" xmlns="http://www.w3.org/2000/svg">
  <path d="M39.72 23.14c-.19-.91-.46-1.8-.82-2.64-.53-1.26-1.25-2.43-2.1-3.47a14.14 14.14 0 0 0-5.37-4.01c-.42-.18-.85-.34-1.29-.47a14 14 0 0 0-4.18-.63 14.05 14.05 0 0 0-5.47 1.1c-2.1.89-3.94 2.27-5.37 4.01-.86 1.04-1.57 2.21-2.1 3.47-.36.84-.63 1.72-.82 2.64-.19.91-.29 1.86-.29 2.83s.1 1.92.29 2.83.46 1.8.82 2.64c.53 1.26 1.25 2.43 2.1 3.47 1.43 1.73 3.27 3.12 5.37 4.01.42.18.85.34 1.29.47 1.32.41 2.72.63 4.18.63a14.05 14.05 0 0 0 5.47-1.1c2.1-.89 3.94-2.27 5.37-4.01.86-1.04 1.57-2.21 2.1-3.47.36-.84.63-1.72.82-2.64.19-.91.29-1.86.29-2.83s-.1-1.92-.29-2.83m-8.21-1-6.29 9.52-4.57-4.89c-.42-.45-.4-1.17.05-1.59s1.17-.4 1.59.05l2.62 2.8 4.72-7.14a1.127 1.127 0 0 1 1.88 1.24Zm-21.17 4.94V14.69h2.25v4.07c2.04-3.77 5.65-6.57 9.93-7.56h-.17V8.95h2.25v1.91c.44-.04.89-.07 1.34-.07.87 0 1.72.09 2.56.23V8.94h2.25v2.25h-1.38c4.81 1.11 8.76 4.51 10.61 9V.02H0v32.8h12.42c-.89-1.75-1.45-3.68-1.59-5.74h-.48ZM34.65 8.95h2.25v2.25h-2.25zM22.36 3.16h2.25v2.25h-2.25zM6.6 27.08H4.35V14.69H6.6z"/>
</svg>
