<svg viewBox="0 0 40 40" xmlns="http://www.w3.org/2000/svg">
  <path fill="#1e1e1c" d="M8.97-.02v2.25h3.26v30.09c0 4.23 3.44 7.66 7.66 7.66h.04c4.22 0 7.66-3.44 7.66-7.66l-.03-30.09h3.23V-.02zm8.82 26.27c-1.03 0-1.88-.84-1.88-1.88s.84-1.88 1.88-1.88 1.88.84 1.88 1.88-.84 1.88-1.88 1.88m1.77-9.14c0-1.03.84-1.88 1.88-1.88s1.88.84 1.88 1.88-.84 1.88-1.88 1.88-1.88-.84-1.88-1.88m2.29 16.61c-1.03 0-1.88-.84-1.88-1.88s.84-1.88 1.88-1.88 1.88.84 1.88 1.88-.84 1.88-1.88 1.88m3.46-26c-.97.43-2.72.85-4.85-.3-2.41-1.3-4.51-1.26-5.98-.92V2.23H25.3v5.48Zm10.12-1.57c-2.52 0-4.56 2.05-4.56 4.56s2.05 4.56 4.56 4.56 4.56-2.05 4.56-4.56-2.05-4.56-4.56-4.56m0 6.88c-1.27 0-2.31-1.04-2.31-2.31s1.04-2.31 2.31-2.31 2.31 1.04 2.31 2.31-1.04 2.31-2.31 2.31M6.08 25.64h3.84v2.25H6.08v3.84H3.83v-3.84H-.01v-2.25h3.84V21.8h2.25z"/>
</svg>
