<svg viewBox="0 0 16 16" xmlns="http://www.w3.org/2000/svg">
  <path fill="#1e1e1c" d="M12.32 0H3.58v1.5h1v11.13c0 1.86 1.51 3.37 3.37 3.37s3.37-1.51 3.37-3.37V1.49h.99V0ZM6.49 9.53c0-.48.39-.88.88-.88s.88.39.88.88-.39.88-.88.88-.88-.39-.88-.88m1.08-2.91c0-.48.39-.88.88-.88s.88.39.88.88-.39.88-.88.88-.88-.39-.88-.88m.92 6.78c-.48 0-.88-.39-.88-.88s.39-.88.88-.88.88.39.88.88-.39.88-.88.88M9.82 3.08c-.3.22-.83.46-1.51.09-.23-.12-.45-.21-.67-.28-.09-.03-.18-.05-.27-.07-.11-.03-.23-.06-.34-.07q-.18-.03-.36-.03H6.5c-.15 0-.29 0-.42.02V1.51h3.73v1.58Zm4.04-.62c-1.17 0-2.13.95-2.13 2.13s.95 2.13 2.13 2.13 2.13-.95 2.13-2.13-.95-2.13-2.13-2.13m0 2.76c-.34 0-.63-.28-.63-.63s.28-.63.63-.63.63.28.63.63-.28.63-.63.63M2.73 10.27h1.24v1.5H2.73v1.24h-1.5v-1.24H-.01v-1.5h1.24V9.03h1.5z"/>
</svg>
