<svg viewBox="0 0 64 64" xmlns="http://www.w3.org/2000/svg">
  <path fill="#1e1e1c" d="M14.36 2.75H20v49.41C20 58.69 25.31 64 31.84 64h.04c6.53 0 11.84-5.31 11.84-11.84l-.04-49.41h5.6V0H14.36zm14.1 37.72c-1.49 0-2.71-1.22-2.71-2.71s1.22-2.71 2.71-2.71 2.71 1.22 2.71 2.71-1.22 2.71-2.71 2.71m3.13-14.34c0-1.49 1.22-2.71 2.71-2.71s2.71 1.22 2.71 2.71-1.22 2.71-2.71 2.71-2.71-1.22-2.71-2.71m3.37 26.3c-1.49 0-2.71-1.22-2.71-2.71s1.22-2.71 2.71-2.71 2.71 1.22 2.71 2.71-1.22 2.71-2.71 2.71M22.75 2.75h18.17v8.28c-.33.25-1.25.82-2.68 1.01-1.55.14-3.49-.1-5.71-1.3s-4.25-1.65-5.99-1.7c-1.49-.05-2.76.2-3.78.53V2.75Zm34.36 7.13c-3.79 0-6.88 3.09-6.88 6.88s3.09 6.88 6.88 6.88 6.88-3.09 6.88-6.88-3.09-6.88-6.88-6.88m0 11a4.131 4.131 0 0 1 0-8.26 4.131 4.131 0 0 1 0 8.26m-47.8 20.2h6.57v2.75H9.31v6.57H6.56v-6.57H-.02v-2.75h6.57v-6.57H9.3v6.57Z"/>
</svg>
