<svg viewBox="0 0 64 64" xmlns="http://www.w3.org/2000/svg">
  <path d="M56.9 53.35c-.15-1.24-.55-2.5-1.24-3.69l-10.79-18.5a10 10 0 0 1-.37-.88l-.09-.3c-.06-.2-.13-.41-.18-.61-.03-.12-.04-.25-.07-.37-.04-.19-.07-.37-.1-.56-.02-.13-.02-.27-.03-.41-.01-.2-.03-.41-.03-.61V13.61h4c2.2 0 4-1.79 4-3.98V3.98C52.01 1.79 50.21 0 48.01 0H15.99c-2.21 0-4 1.78-4 3.98v5.63c0 2.19 1.8 3.98 4 3.98h4V27.4c0 .23-.02.46-.04.69l-.03.39c-.02.19-.06.37-.1.56-.02.12-.04.24-.07.36-.05.2-.11.4-.17.6-.03.1-.05.2-.09.29-.1.29-.22.58-.36.86L8.34 49.65c-3.72 6.38.94 14.34 8.38 14.34h30.56c1.4 0 2.69-.28 3.85-.78a9.7 9.7 0 0 0 3.04-2.07c2-2.03 3.06-4.89 2.72-7.79ZM16.99 8.6V5h30.02v3.6H17Zm7.4 42.84c0 .82-.34 1.56-.88 2.1-.14.13-.28.26-.44.36-.32.21-.68.37-1.07.45a3.1 3.1 0 0 1-1.2 0c-.39-.08-.75-.23-1.07-.45a2.96 2.96 0 0 1-1.32-2.46c0-1.64 1.34-2.97 3-2.97s3 1.33 3 2.97ZM32 47.26c-.28 0-.54-.06-.78-.16-.72-.3-1.22-1-1.22-1.82s.5-1.52 1.22-1.82c.24-.1.5-.16.78-.16 1.11 0 2 .89 2 1.98s-.9 1.98-2 1.98m3.6-19.86c-.14.07-.27.15-.4.23-.08.05-.15.1-.22.14-.11.07-.22.15-.33.23-.07.05-.14.11-.21.16l-.3.24-.2.17c-.1.09-.2.17-.3.26-.21.19-.42.37-.62.56-.14.13-.29.25-.43.38-.05.04-.09.08-.14.12-.11.09-.22.18-.33.26-.06.04-.11.09-.17.13-.11.08-.22.15-.33.22-.06.04-.12.08-.18.11-.12.07-.25.14-.38.21-.05.03-.1.05-.15.08-.18.08-.37.16-.57.22-.03.01-.07.02-.11.03-.17.05-.34.09-.52.12l-.23.03c-.15.02-.3.03-.46.03h-.3c-.13 0-.27-.01-.4-.02-.11-.01-.23-.02-.35-.04-.14-.02-.29-.05-.45-.08-.13-.03-.25-.05-.39-.09-.16-.04-.33-.09-.49-.14-.14-.04-.28-.08-.42-.13-.18-.06-.37-.13-.55-.2-.15-.06-.3-.11-.46-.18s-.33-.15-.5-.22c.2-.92.31-1.86.31-2.81V13.61h14.01v12.98h-.12c-.2 0-.4.01-.59.03l-.33.03c-.19.02-.37.06-.54.09-.09.02-.18.03-.27.06q-.315.075-.6.18c-.04.01-.09.02-.13.04-.23.08-.44.18-.65.28-.07.03-.13.07-.19.1Zm.76 12.17c-.22-.32-.34-.7-.34-1.11s.13-.79.34-1.11c.36-.53.97-.87 1.66-.87s1.3.35 1.66.87c.22.32.34.7.34 1.11s-.13.79-.34 1.11c-.36.53-.97.87-1.66.87s-1.3-.35-1.66-.87m8.85 13.86a3 3 0 0 1-2.94 2.37c-.83 0-1.58-.33-2.12-.87-.14-.13-.26-.28-.37-.44-.13-.2-.23-.41-.32-.64-.12-.32-.19-.66-.19-1.02 0-1.43 1.03-2.63 2.4-2.91q.3-.06.6-.06c.26 0 .5.04.74.1.34.09.66.22.94.41a3 3 0 0 1 1.08 1.3c.15.36.24.75.24 1.16 0 .2-.02.41-.06.6"/>
</svg>
