<svg viewBox="0 0 24 24" xmlns="http://www.w3.org/2000/svg">
  <path d="M21.25 19.54c-.08-.31-.21-.62-.38-.92l-4.04-6.94c-.1-.22-.18-.44-.24-.67-.02-.08-.02-.16-.03-.23-.03-.17-.06-.33-.06-.5V5.16H18c.83 0 1.5-.67 1.5-1.49V1.5C19.5.68 18.83 0 18 0H6c-.83 0-1.5.67-1.5 1.5v2.17c0 .82.67 1.49 1.5 1.49h1.5v5.12c0 .18-.03.35-.06.52-.01.08-.01.15-.03.23-.05.23-.13.45-.23.66l-4.04 6.94a3.5 3.5 0 0 0-.2 3.18c.06.14.13.27.2.41a3.58 3.58 0 0 0 3.14 1.79h11.46c1.4 0 2.53-.75 3.14-1.79a3.5 3.5 0 0 0 .38-2.67Zm-13.23.87c-.62 0-1.13-.5-1.13-1.11a1.125 1.125 0 0 1 1.57-1.02c.4.17.69.56.69 1.03 0 .61-.5 1.11-1.13 1.11ZM12 17.73c-.41 0-.75-.33-.75-.74s.34-.74.75-.74.75.33.75.74-.34.74-.75.74m1.5-7.52c-.06.03-.12.05-.18.09-.1.06-.19.12-.28.18-.04.03-.09.06-.14.09-.11.08-.21.17-.3.25-.13.11-.25.23-.38.34a.6.6 0 0 1-.09.07c-.09.07-.17.14-.27.2-.04.03-.09.05-.14.08q-.12.075-.27.12c-.06.02-.11.04-.17.05-.1.03-.21.04-.32.05-.08 0-.15.02-.24.01h-.08c-.1 0-.21-.03-.31-.05.11-.46.16-.93.16-1.4V6.05h3v4.17Zm.07 4.51a.73.73 0 0 1 .4-.97.72.72 0 0 1 .58 0c.27.11.46.38.46.68a.737.737 0 0 1-.75.74c-.31 0-.58-.19-.69-.45m2.28 6.21c-.16 0-.3-.03-.44-.09a1.12 1.12 0 0 1-.69-1.02 1.125 1.125 0 0 1 1.13-1.11c.31 0 .59.12.8.33s.33.48.33.79c0 .61-.5 1.11-1.13 1.11Z"/>
</svg>
