<svg viewBox="0 0 16 16" xmlns="http://www.w3.org/2000/svg">
  <path d="M14.16 13c-.05-.21-.14-.42-.25-.62l-2.7-4.67c-.07-.15-.12-.3-.16-.45-.01-.05-.01-.11-.02-.16-.02-.11-.04-.22-.04-.33V3.83h1c.55 0 1-.45 1-1V1.02c0-.55-.45-1-1-1H4c-.55 0-1 .45-1 1v1.81c0 .55.45 1 1 1h1v2.94c0 .12-.02.23-.04.35 0 .05 0 .1-.02.15-.04.15-.09.3-.16.44l-2.7 4.67C1.15 13.99 2.31 16 4.17 16h7.64c1.63 0 2.72-1.54 2.35-3m-8.81.58c-.41 0-.75-.34-.75-.75s.34-.75.75-.75.75.34.75.75-.34.75-.75.75M8 11.77c-.28 0-.5-.22-.5-.5s.22-.5.5-.5.5.22.5.5-.22.5-.5.5m.41-4.65c-.09.08-.17.16-.26.23-.02.02-.04.03-.06.05-.06.05-.12.09-.18.13-.03.02-.06.04-.09.05-.06.03-.12.06-.18.08-.04.01-.07.03-.11.04s-.09.01-.13.02c.07-.32.1-.64.1-.96V4.32h1v2.44c0 .09.01.18.02.27-.04.03-.07.06-.11.09m.91 3.37a.51.51 0 0 1-.5-.5.51.51 0 0 1 .5-.5c.28 0 .5.22.5.5s-.22.5-.5.5m1.25 3.44c-.41 0-.75-.34-.75-.75s.34-.75.75-.75.75.34.75.75-.34.75-.75.75"/>
</svg>
