<svg viewBox="0 0 40 40" xmlns="http://www.w3.org/2000/svg">
  <path d="m34.79 31.04-6.74-11.56c-.09-.18-.16-.36-.23-.55-.02-.06-.04-.13-.06-.2-.04-.12-.08-.25-.11-.37-.02-.08-.03-.16-.04-.23-.02-.12-.05-.23-.06-.35-.01-.08-.01-.17-.02-.25 0-.13-.02-.25-.02-.38V8.62h2.5c1.38 0 2.5-1.12 2.5-2.49V2.51A2.51 2.51 0 0 0 30.01 0H9.99c-1.38 0-2.5 1.11-2.5 2.49v3.62c0 1.37 1.12 2.49 2.5 2.49h2.5v8.53c0 .14-.01.29-.02.43 0 .08-.01.16-.02.24-.01.12-.04.23-.06.35-.01.07-.03.15-.04.22-.03.13-.07.25-.11.37-.02.06-.03.12-.06.18-.07.18-.14.36-.23.54L5.21 31.02c-2.32 3.98.58 8.96 5.23 8.96h19.1c4.65 0 7.56-4.98 5.23-8.96ZM24.43 16.61c-3.47 0-3.72 2.97-6.38 2.97-.84 0-1.94-.31-3.44-1.09.08-.45.14-.9.14-1.36V8.6h10.51v8.06c-.29-.03-.57-.06-.82-.06ZM9.99 6.35c-.13 0-.25-.11-.25-.24V2.49c0-.13.11-.24.25-.24H30c.13 0 .25.11.25.24v3.62c0 .13-.12.24-.25.24zm22.86 29.5a3.76 3.76 0 0 1-3.3 1.9h-19.1c-1.39 0-2.62-.71-3.3-1.9-.67-1.17-.67-2.52.01-3.68l6.72-11.52c1.62.81 2.96 1.18 4.17 1.18 2.11 0 3.33-1.11 4.23-1.92.78-.7 1.17-1.05 2.15-1.05.31 0 .66.04 1.05.11.04.15.09.3.14.45.03.09.05.18.08.27.09.26.2.52.32.76l.04.08.04.07 6.74 11.56c.68 1.17.69 2.51.01 3.68Zm-17.61-3.7c0 1.02-.84 1.86-1.88 1.86s-1.88-.83-1.88-1.86.84-1.86 1.88-1.86 1.88.83 1.88 1.86m13.05.87c0 1.02-.84 1.86-1.88 1.86s-1.88-.83-1.88-1.86.84-1.86 1.88-1.86 1.88.83 1.88 1.86m-7.04-4.72c0 .68-.56 1.24-1.25 1.24s-1.25-.55-1.25-1.24.56-1.24 1.25-1.24 1.25.55 1.25 1.24m2.51-3.02c-.69 0-1.25-.55-1.25-1.24s.56-1.24 1.25-1.24 1.25.55 1.25 1.24-.56 1.24-1.25 1.24"/>
</svg>
