<svg viewBox="0 0 16 16" xmlns="http://www.w3.org/2000/svg">
  <path fill="#1e1e1c" d="M15.27 4.91c-.41 0-.75.34-.75.75v3.3h-.76V1.5h.65V0H1.72v1.5h.66v7.46h-.86v-3.3c0-.41-.34-.75-.75-.75s-.75.34-.75.75v8.08c0 1.24 1.01 2.25 2.25 2.25h11.51c1.24 0 2.25-1.01 2.25-2.25V5.66c0-.41-.34-.75-.75-.75ZM10.21 1.5h2.06v.98h-2.06zm1.29 6.57h.01c.41 0 .75.34.75.75s-.34.75-.75.75-.75-.34-.75-.75.33-.75.74-.75m-1.24-2.31c0-.41.33-.75.74-.75h.01c.41 0 .75.34.75.75s-.34.75-.75.75-.75-.34-.75-.75M7.43 1.5h1.28v7.46H7.43zm-1.2 6.64c0 .41-.34.75-.75.75s-.75-.34-.75-.75.33-.75.74-.75.75.34.75.75Zm-1.39 2.47c.41 0 .75.34.75.75s-.34.75-.75.75-.75-.34-.75-.75.33-.75.74-.75Zm-.91-5.12c0-.41.33-.75.74-.75s.75.34.75.75-.34.75-.75.75-.75-.34-.75-.75ZM3.88 1.5h2.06v1.02H3.88zm10.64 12.25c0 .41-.34.75-.75.75H2.26c-.41 0-.75-.34-.75-.75v-3.28h.86v1.19c0 1.4 1.13 2.53 2.53 2.53s2.53-1.14 2.53-2.53v-1.19h1.28v1.19c0 1.4 1.13 2.53 2.53 2.53s2.53-1.14 2.53-2.53v-1.19h.76v3.28Z"/>
</svg>
