<svg viewBox="0 0 48 48" xmlns="http://www.w3.org/2000/svg">
  <path fill="#1e1e1c" d="M46.75 15.55c-.69 0-1.25.56-1.25 1.25v10.99h-4.57V2.52h3.13V.02H4.26v2.5h3.15v25.27H2.5V16.8a1.25 1.25 0 0 0-2.5 0v25.27c0 3.28 2.67 5.94 5.95 5.94h36.1c3.28 0 5.95-2.67 5.95-5.94V16.8c0-.69-.56-1.25-1.25-1.25M29.78 2.52h8.65v5.37h-8.65zm5.81 22.58h.03c.83 0 1.5.67 1.5 1.5s-.67 1.5-1.5 1.5-1.52-.67-1.52-1.5.66-1.5 1.48-1.5ZM32.77 18c-.83 0-1.52-.67-1.52-1.5s.66-1.5 1.48-1.5h.03c.83 0 1.5.67 1.5 1.5s-.67 1.5-1.5 1.5ZM21.06 2.52h6.22v25.27h-6.22zm-11.15 0h8.65v5.37H9.91zm4.37 32h.03c.83 0 1.5.67 1.5 1.5s-.67 1.5-1.5 1.5-1.52-.67-1.52-1.5.66-1.5 1.48-1.5Zm-2.49-19.84c0-.83.66-1.5 1.48-1.5h.03c.83 0 1.5.67 1.5 1.5s-.67 1.5-1.5 1.5-1.52-.67-1.52-1.5Zm3.93 10.33c-.83 0-1.52-.67-1.52-1.5s.66-1.5 1.48-1.5h.03c.83 0 1.5.67 1.5 1.5s-.67 1.5-1.5 1.5ZM45.5 42.08c0 1.9-1.55 3.44-3.45 3.44H5.95c-1.9 0-3.45-1.55-3.45-3.44V30.29h4.91v6.28c0 3.76 3.06 6.82 6.82 6.82s6.82-3.06 6.82-6.82v-6.28h6.22v6.28c0 3.76 3.06 6.82 6.82 6.82s6.82-3.06 6.82-6.82v-6.28h4.57v11.79Z"/>
</svg>
