<svg viewBox="0 0 24 24" xmlns="http://www.w3.org/2000/svg">
  <path fill="#1e1e1c" d="M23.1 7.58c-.48 0-.88.39-.88.88v5.15h-1.71V1.75h1.27V0H2.32v1.75H3.6v11.86H1.73V8.46c0-.48-.39-.88-.88-.88s-.88.39-.88.87v12.37c0 1.75 1.42 3.17 3.17 3.17h17.65c1.75 0 3.17-1.42 3.17-3.17V8.45c0-.48-.39-.88-.88-.88Zm-8.04-1.99h3.7v12.03c0 .99-.81 1.8-1.8 1.8h-.11c-.99 0-1.8-.81-1.8-1.8V5.59Zm3.7-3.84v2.09h-3.7V1.75zm-5.45 0v11.86H10.8V1.75zM5.35 5.59h3.7v12.03c0 .99-.81 1.8-1.8 1.8h-.11c-.99 0-1.8-.81-1.8-1.8V5.59Zm3.7-3.84v2.09h-3.7V1.75zM20.8 22.24H3.15c-.78 0-1.42-.64-1.42-1.42v-5.47H3.6v2.26a3.55 3.55 0 0 0 3.55 3.55h.11a3.55 3.55 0 0 0 3.55-3.55v-2.26h2.51v2.26a3.55 3.55 0 0 0 3.55 3.55h.11a3.55 3.55 0 0 0 3.55-3.55v-2.26h1.71v5.47c0 .78-.64 1.42-1.42 1.42ZM5.86 7.45c0-.48.38-.88.87-.88h.02c.48 0 .88.39.88.88s-.39.88-.88.88-.88-.39-.88-.88Zm1.55 3.18c.48 0 .88.39.88.88s-.39.88-.88.88-.88-.39-.88-.88.38-.88.87-.88h.02Zm8.24-2.2c0-.48.38-.88.87-.88h.02c.48 0 .88.39.88.88s-.39.88-.88.88-.88-.39-.88-.88Zm1.85 3.88h.02c.48 0 .88.39.88.88s-.39.88-.88.88-.88-.39-.88-.88.38-.88.87-.88Zm-9.39 5c0 .48-.39.88-.88.88s-.88-.39-.88-.88.38-.88.87-.88h.02c.48 0 .88.39.88.88Z"/>
</svg>
