<svg viewBox="0 0 24 24" xmlns="http://www.w3.org/2000/svg">
  <path fill="#1e1e1c" d="M23.11 7.58c-.48 0-.88.39-.88.88v5.15h-1.71V1.75h1.27V0H2.33v1.75h1.28v11.86H1.74V8.46c0-.48-.39-.88-.88-.88s-.87.39-.87.87v12.37c0 1.75 1.42 3.17 3.17 3.17h17.65c1.75 0 3.17-1.42 3.17-3.17V8.45c0-.48-.39-.88-.88-.88Zm-8.03-5.83h3.7v2.13h-3.7zm2.43 10.56h.02c.48 0 .88.39.88.88s-.39.88-.88.88-.88-.39-.88-.88.38-.88.87-.88Zm-.97-3c-.48 0-.88-.39-.88-.88s.38-.88.87-.88h.02c.48 0 .88.39.88.88s-.39.88-.88.88Zm-5.73-7.56h2.51v11.86h-2.51zm-5.45 0h3.7v2.13h-3.7zm1.74 14.9h.02c.48 0 .88.39.88.88s-.39.88-.88.88-.88-.39-.88-.88.38-.88.87-.88ZM5.46 7.26c0-.48.38-.88.87-.88h.02c.48 0 .88.39.88.88s-.39.88-.88.88-.88-.39-.88-.88Zm2.4 5.03c-.48 0-.88-.39-.88-.88s.38-.88.87-.88h.02c.48 0 .88.39.88.88s-.39.88-.88.88Zm14.38 8.54c0 .78-.64 1.42-1.42 1.42H3.16c-.78 0-1.42-.64-1.42-1.42v-5.47h1.87v2.26a3.55 3.55 0 0 0 3.55 3.55h.11a3.55 3.55 0 0 0 3.55-3.55v-2.26h2.51v2.26a3.55 3.55 0 0 0 3.55 3.55h.11a3.55 3.55 0 0 0 3.55-3.55v-2.26h1.71v5.47Z"/>
</svg>
