<svg viewBox="0 0 40 40" xmlns="http://www.w3.org/2000/svg">
  <path fill="#1e1e1c" d="M38.82 12.86c-.62 0-1.13.5-1.13 1.13v9.11h-3.62V2.27h2.51V.01H3.57v2.25H6.1v20.83H2.2v-9.11c0-.62-.5-1.13-1.13-1.13s-1.12.51-1.12 1.13v21c0 2.77 2.25 5.03 5.02 5.03h29.95c2.77 0 5.02-2.26 5.02-5.03v-21c0-.62-.5-1.13-1.13-1.13ZM24.83 8.79h7v21.69c0 1.93-1.57 3.5-3.5 3.5s-3.5-1.57-3.5-3.5zm7-6.52v4.27h-7V2.27zm-9.25 0V23.1H17.6V2.27zM8.35 8.79h7v21.69c0 1.93-1.57 3.5-3.5 3.5s-3.5-1.57-3.5-3.5zm7-6.52v4.27h-7V2.27zm19.58 35.49H4.97a2.77 2.77 0 0 1-2.77-2.77v-9.64h3.9v5.13c0 3.17 2.58 5.75 5.75 5.75s5.75-2.58 5.75-5.75v-5.13h4.98v5.13c0 3.17 2.58 5.75 5.75 5.75s5.75-2.58 5.75-5.75v-5.13h3.62v9.64a2.77 2.77 0 0 1-2.77 2.77M9.69 12.29c0-.76.6-1.38 1.36-1.38h.03c.76 0 1.38.62 1.38 1.38s-.62 1.38-1.38 1.38-1.39-.62-1.39-1.38m3.16 5.86h.03c.76 0 1.38.62 1.38 1.38s-.62 1.38-1.38 1.38-1.39-.62-1.39-1.38.6-1.38 1.36-1.38m12.99-4.35c0-.76.6-1.38 1.36-1.38h.03c.76 0 1.38.62 1.38 1.38s-.62 1.38-1.38 1.38-1.39-.62-1.39-1.38m3.72 7.01h.03c.76 0 1.38.62 1.38 1.38s-.62 1.38-1.38 1.38-1.39-.62-1.39-1.38.6-1.38 1.36-1.38m-16.27 9.21c0 .76-.62 1.38-1.38 1.38s-1.39-.62-1.39-1.38.6-1.38 1.36-1.38h.03c.76 0 1.38.62 1.38 1.38"/>
</svg>
