<svg viewBox="0 0 32 32" xmlns="http://www.w3.org/2000/svg">
  <path fill="#1e1e1c" d="M30.98 10.21c-.55 0-1 .45-1 1v7.13h-2.66V2.01h1.89V0H2.96v2h1.91v16.34H1.98v-7.13c0-.55-.45-1-1-1s-1 .45-1 1V27.9c0 2.26 1.84 4.1 4.1 4.1h23.8c2.26 0 4.1-1.84 4.1-4.1V11.21c0-.55-.45-1-1-1m-11.01-8.2h5.35v3.17h-5.35zm3.65 14.61h.02c.62 0 1.12.5 1.12 1.12s-.5 1.12-1.12 1.12-1.14-.5-1.14-1.12.49-1.12 1.11-1.12Zm-1.86-4.42c-.62 0-1.13-.5-1.13-1.12s.49-1.12 1.11-1.12h.02c.62 0 1.12.5 1.12 1.12s-.5 1.12-1.12 1.12M14.22 2.01h3.75v16.34h-3.75zm-7.35 0h5.35v3.17H6.87zm2.7 20.03h.02c.62 0 1.12.5 1.12 1.12s-.5 1.12-1.12 1.12-1.14-.5-1.14-1.12.49-1.12 1.11-1.12ZM7.79 9.87c0-.62.49-1.12 1.11-1.12h.02c.62 0 1.12.5 1.12 1.12s-.5 1.12-1.12 1.12-1.14-.5-1.14-1.12Zm2.48 6.91c-.62 0-1.14-.5-1.14-1.12s.49-1.12 1.11-1.12h.02c.62 0 1.12.5 1.12 1.12s-.5 1.12-1.12 1.12Zm19.71 11.13a2.1 2.1 0 0 1-2.1 2.1H4.08a2.1 2.1 0 0 1-2.1-2.1v-7.56h2.89v3.18c0 2.58 2.1 4.68 4.67 4.68s4.67-2.1 4.67-4.68v-3.18h3.75v3.18c0 2.58 2.1 4.68 4.67 4.68s4.68-2.1 4.68-4.68v-3.18h2.66v7.56Z"/>
</svg>
