<svg viewBox="0 0 64 64" xmlns="http://www.w3.org/2000/svg">
  <path d="m57.88 21.98.3-14.07c0-1.45-.07-3.2-.91-4.55-1.65-2.25-4.15-3.37-6.65-3.37s-4.93 1.09-6.58 3.29c-.81 1.28-.93 2.52-.94 4.22H2.25C1.01 7.49 0 8.5 0 9.74v9.6h3.17v36.4c0 1.1.9 2 2 2h31.45v6.25H64V33.56s-6.12-7-6.12-11.58m-14.44-.23c0 5.01-6.83 11.82-6.83 11.82v2.7a20.16 20.16 0 0 1-9.26 2.24c-10.84 0-19.72-8.48-20.4-19.15h36.43zM2.75 16.59v-6.35h40.4l.16 6.35zm3.17 38.4V26.94c3.5 8.39 11.79 14.31 21.44 14.31 3.29 0 6.42-.69 9.26-1.94v15.68zm55.33 6.25h-5.79v-7.35c0-.76-.62-1.38-1.38-1.38s-1.38.62-1.38 1.38v7.35h-5.71v-5.35c0-.76-.62-1.38-1.38-1.38s-1.38.62-1.38 1.38v5.35h-4.88V43.71h21.88v17.53Zm0-20.28H39.37v-3.08h21.88zm-21.88-5.83v-.46c2.02-2.19 6.83-7.92 6.83-12.92v-.07l-.35-13.71c0-1.75.07-2.45.46-3.11 1.05-1.34 2.62-2.11 4.32-2.11s3.3.78 4.35 2.14c.45.81.45 2.21.45 2.99l-.3 14.04v.06c0 4.63 4.24 10.3 6.12 12.59v.56zM52.94 8.01c0 1.29-1.04 2.33-2.33 2.33s-2.33-1.04-2.33-2.33 1.04-2.33 2.33-2.33 2.33 1.04 2.33 2.33"/>
</svg>
