<svg viewBox="0 0 48 48" xmlns="http://www.w3.org/2000/svg">
  <path d="M30.01 13.53H0V7.88c0-1.24 1.01-2.25 2.25-2.25h27.57v.44zm.06 2.5H5.61c1.19 7.16 7.42 12.64 14.91 12.64 1.55 0 3.04-.25 4.44-.68v-3.84l.73-.73c1.76-1.76 4.36-5.22 4.39-7.07v-.31Zm-26.99 0h-.71v25.29c0 1.1.9 2 2 2h20.59V30.6c-1.42.37-2.91.57-4.44.57-8.88 0-16.22-6.6-17.44-15.14M48 25.18V48H27.46V25.18s1.28-1.28 2.56-3.02c1.28-1.75 2.56-3.96 2.56-5.84l-.26-10.31c0-.37 0-.71.02-1.03.04-.96.19-1.72.69-2.5s.04-.06.06-.08c.14-.18.28-.35.43-.51.07-.07.14-.13.21-.19.11-.11.22-.22.34-.31.08-.07.17-.12.26-.19.11-.08.22-.17.33-.24.09-.06.19-.11.29-.16.11-.06.22-.13.33-.18.1-.05.21-.09.31-.13.11-.05.23-.1.34-.14s.21-.06.32-.09c.12-.03.23-.07.35-.1l.33-.06c.12-.02.24-.05.36-.06.11-.01.22-.01.33-.02.11 0 .23-.02.34-.02h.02c.13 0 .25.01.38.02.11 0 .21 0 .32.02.13.01.25.04.37.06.11.02.21.03.32.06.12.03.25.07.37.11.1.03.21.05.31.09.12.04.24.1.36.15.1.04.2.08.3.13.12.06.24.13.36.2l.27.15c.12.08.24.18.36.27.07.06.15.11.23.17.14.11.26.24.39.37.05.05.1.09.15.14.17.18.34.38.49.59.32.51.49 1.09.58 1.68.05.3.07.59.09.88s.02.58.02.85-.23 10.55-.23 10.55c0 3.44 4.59 8.69 4.59 8.69Zm-2.5 9.54H29.96V45.5h3.01v-3.58a1.25 1.25 0 0 1 2.5 0v3.58h3.84v-5.08a1.25 1.25 0 0 1 2.5 0v5.08h3.68V34.72ZM36.21 6.01c0 .97.78 1.75 1.75 1.75s1.75-.78 1.75-1.75-.78-1.75-1.75-1.75-1.75.78-1.75 1.75m9.29 23.91H29.96v2.31H45.5z"/>
</svg>
