<svg viewBox="0 0 32 32" xmlns="http://www.w3.org/2000/svg">
  <path d="m28.94 10.99.15-7.04c0-.73-.04-1.6-.46-2.28A4.1 4.1 0 0 0 25.31 0c-1.23 0-2.47.55-3.29 1.64-.4.64-.46 1.26-.47 2.11H2a2 2 0 0 0-2 2v4.61h1.58v16.52c0 1.1.9 2 2 2h14.73V32H32V16.79s-3.06-3.5-3.06-5.79Zm-7.22-.11c0 2.5-3.41 5.91-3.41 5.91v1a9.8 9.8 0 0 1-4.63 1.16c-5.02 0-9.17-3.75-9.82-8.58h17.85v.52ZM2 8.31V5.75h19.59l.07 2.56zm1.58 18.57V15.34c2.11 3.36 5.84 5.61 10.1 5.61 1.64 0 3.2-.35 4.63-.96v6.89zM30 30h-1.96v-3.05c0-.55-.45-1-1-1s-1 .45-1 1V30h-2.23v-2.05c0-.55-.45-1-1-1s-1 .45-1 1V30h-1.5v-6.14H30zm0-8.14h-9.69v-1.91H30zm-9.69-3.92v-.36c1.18-1.3 3.41-4.11 3.41-6.71v-.05l-.18-6.85c0-.78.03-1.02.12-1.2.4-.5 1-.78 1.64-.78s1.24.29 1.65.79c.13.29.13.94.13 1.13l-.15 7.08c0 2.39 2.02 5.22 3.06 6.52v.43H20.3Zm5.82-14.76c.21.21.34.5.34.82 0 .64-.52 1.17-1.17 1.17a1.165 1.165 0 0 1-.01-2.33c.32 0 .61.13.82.34Z"/>
</svg>
