<svg viewBox="0 0 24 24" xmlns="http://www.w3.org/2000/svg">
  <path d="m21.7 8.24.11-5.28c0-.55-.03-1.2-.34-1.71A3.07 3.07 0 0 0 18.98 0c-.93 0-1.85.41-2.47 1.23-.3.48-.35.95-.35 1.58H1.5c-.83 0-1.5.67-1.5 1.5v3.67h1.19v12.18c0 .83.67 1.5 1.5 1.5h11.04V24H24V12.59s-2.3-2.62-2.3-4.34Zm-5.41-.09c0 1.88-2.56 4.43-2.56 4.43v.59c-1.04.56-2.21.9-3.47.9-3.62 0-6.63-2.65-7.21-6.1h13.23v.18ZM1.75 6.22V4.55H16.2l.04 1.67zM2.94 19.9v-7.82c1.65 2.26 4.31 3.74 7.32 3.74 1.23 0 2.4-.26 3.47-.71v4.78H2.94Zm19.31 2.34h-1.09V20.2c0-.48-.39-.88-.88-.88s-.88.39-.88.88v2.04h-1.42v-1.29c0-.48-.39-.88-.88-.88s-.88.39-.88.88v1.29h-.75v-4.39h6.77v4.39Zm0-6.13h-6.77v-1.15h6.77zm-6.7-2.91c.93-1.05 2.49-3.12 2.49-5.09L17.91 3c0-.52.02-.69.06-.78.25-.3.62-.47 1.02-.47s.76.17 1.02.47c.03.09.06.29.06.71l-.11 5.31c0 1.82 1.43 3.89 2.28 4.96zM19.85 3c0 .48-.39.88-.88.88s-.88-.39-.88-.88.39-.88.88-.88.88.39.88.88"/>
</svg>
