<svg viewBox="0 0 40 40" xmlns="http://www.w3.org/2000/svg">
  <path d="m36.17 13.74.19-8.79c0-.91-.04-2-.57-2.85A5.12 5.12 0 0 0 31.64 0c-1.54 0-3.08.68-4.11 2.06-.45.72-.56 1.42-.58 2.32H2.25C1.01 4.37 0 5.38 0 6.62v6.01h1.98v21.46c0 1.1.9 2 2 2h18.91v3.9H40V20.97s-3.83-4.37-3.83-7.24ZM2.25 10.38V6.62h24.72l.1 3.76zm20.64 14.55v8.92H4.23V18.52c2.54 4.49 7.35 7.54 12.87 7.54 2.06 0 4.01-.46 5.79-1.23zm0-2.56c-1.73.91-3.7 1.44-5.79 1.44-6.45 0-11.77-4.9-12.45-11.17h22.48l.02.96c0 3.13-4.27 7.39-4.27 7.39v1.38Zm14.86 15.38h-2.86c0-.06.04-.11.04-.18v-3.89c0-.62-.5-1.12-1.12-1.12s-1.12.5-1.12 1.12v3.89c0 .06.03.12.04.18h-3.11c0-.06.04-.11.04-.18v-2.64c0-.62-.5-1.12-1.12-1.12s-1.12.5-1.12 1.12v2.64c0 .06.03.12.04.18h-2.29V29.1h12.61v8.65Zm0-10.9H25.14v-1.92h12.61zm0-4.17H25.14v-.8c1.43-1.56 4.27-5.07 4.27-8.29v-.06l-.22-8.56c0-1.02.04-1.35.2-1.64.55-.69 1.37-1.09 2.26-1.09.9 0 1.72.4 2.27 1.1.2.4.2 1.23.2 1.55l-.19 8.84c0 2.96 2.57 6.5 3.83 8.06v.88ZM33.09 5.01c0 .81-.65 1.46-1.46 1.46s-1.46-.65-1.46-1.46.65-1.46 1.46-1.46 1.46.65 1.46 1.46"/>
</svg>
