<svg viewBox="0 0 64 64" xmlns="http://www.w3.org/2000/svg">
  <path fill="#1e1e1c" d="M26.16 13.02C28.02 5.69 31.09.98 34.18.04c.38-.01.75-.03 1.13-.03s.75.01 1.13.03c3.09.94 6.16 5.65 8.03 12.98zm33.16 0C55.33 6.94 49.1 2.46 41.8.76c2.3 2.79 4.19 7.05 5.46 12.26zM49.01 27.36h14.97a28.4 28.4 0 0 0-3.07-11.58H47.85c.67 3.55 1.08 7.45 1.15 11.58Zm-1.26 14.93h12.87c1.97-3.66 3.16-7.79 3.37-12.18H49.02c-.08 4.37-.52 8.48-1.26 12.18ZM28.82.77C21.53 2.46 15.3 6.94 11.3 13.03h12.06c1.27-5.21 3.16-9.47 5.46-12.26m-6.05 15.01H9.71a28.5 28.5 0 0 0-3.09 12.45c4.17-2.82 9.43-4.54 15.17-4.64.19-2.74.51-5.36.98-7.8Zm22.32 0H25.54c-.47 2.41-.81 5.05-1 7.88 4.51.32 8.68 1.65 12.19 3.71h9.53c-.08-4.26-.5-8.15-1.17-11.58Zm.71 21.25c.25-2.18.42-4.48.46-6.91h-5.71c2.25 1.98 4.05 4.32 5.25 6.91m-2.57 19.31c6.45-1.85 11.97-5.9 15.7-11.29H47.49c-.1 4.17-1.65 8.05-4.26 11.29m-.51-19.31c-.3-.54-.64-1.07-1.01-1.59-.37-.51-.76-1.01-1.18-1.49v-.01q-.63-.72-1.35-1.38c-.48-.44-.98-.87-1.51-1.27-2.24-1.71-4.91-3.05-7.85-3.91-.41-.12-.82-.23-1.24-.32-.04 0-.07-.02-.11-.03-.41-.1-.83-.18-1.25-.26h-.03a27.4 27.4 0 0 0-4.78-.43c-.24 0-.47 0-.71.01-1.17.03-2.32.13-3.44.31q-1.68.255-3.27.72C6.24 29.87-.02 36.66-.02 44.62c0 3.28 1.1 6.51 3.18 9.36l.36.5-2.03 9.54 8.71-4.05.59.29c3.5 1.74 7.5 2.66 11.55 2.66 12.34 0 22.38-8.21 22.38-18.3 0-2.71-.73-5.27-2.02-7.58Z"/>
</svg>
