<svg viewBox="0 0 40 40" xmlns="http://www.w3.org/2000/svg">
  <path fill="#1e1e1c" d="M21.95 0c-9.84 0-17.85 7.95-18 17.77-2.47 2.15-3.99 5.07-3.99 8.29 0 2.04.62 4.04 1.81 5.82L.05 39.99l7.38-3.43c2.06.93 4.35 1.42 6.67 1.42 2.82 0 5.44-.71 7.65-1.91h.2c9.93 0 18.01-8.09 18.01-18.04S31.88 0 21.95 0m13.72 10.29c1.12 1.98 1.81 4.23 1.98 6.62H29.9c-.06-2.38-.31-4.61-.71-6.62zm-1.53-2.25h-5.49c-.6-2.08-1.39-3.84-2.32-5.17 3.1.9 5.82 2.72 7.82 5.17Zm-11 8.87c-1.89-1.33-4.2-2.24-6.74-2.6.13-1.44.33-2.8.6-4.02h9.89c.42 1.94.7 4.17.76 6.62zm4.51 2.25c-.03 1.05-.1 2.06-.2 3.02-.45-1.09-1.07-2.1-1.85-3.02zm-5.7-16.82c1.56 0 3.21 2.14 4.34 5.7h-8.68c1.13-3.56 2.78-5.7 4.34-5.7m-4.38.53c-.93 1.33-1.72 3.08-2.32 5.17h-5.5c2-2.44 4.71-4.27 7.82-5.17m-9.34 7.42h6.48c-.24 1.2-.41 2.51-.53 3.85h-.08c-2.86 0-5.52.73-7.75 1.96.26-2.09.89-4.06 1.88-5.81m-.3 24.02-.48-.24-4.26 1.98.99-4.67-.3-.41c-1.09-1.5-1.67-3.2-1.67-4.92 0-5.33 5.34-9.67 11.89-9.67s11.89 4.34 11.89 9.67-5.34 9.67-11.89 9.67c-2.16 0-4.3-.49-6.17-1.42Zm18.39-1.12c.88-1.25 1.63-2.87 2.21-4.8h5.28a15.84 15.84 0 0 1-7.49 4.8m9.13-7.04h-6.34c.45-2.1.73-4.46.79-6.99h7.75c-.18 2.54-.96 4.92-2.21 6.99Z"/>
</svg>
