<svg viewBox="0 0 48 48" xmlns="http://www.w3.org/2000/svg">
  <path fill="#1e1e1c" d="M26.39 0C14.58 0 4.96 9.59 4.86 21.42 1.81 23.99-.07 27.54-.07 31.46c0 2.44.75 4.84 2.18 6.97L.08 48l8.7-4.05c2.46 1.12 5.21 1.71 8 1.71 3.5 0 6.74-.9 9.44-2.45h.18c11.87 0 21.54-9.69 21.54-21.61S38.27 0 26.39 0m16.55 12.19a19.1 19.1 0 0 1 2.46 8.17h-9.55c-.07-2.95-.37-5.7-.88-8.17zm-1.69-2.5h-6.88c-.75-2.66-1.76-4.86-2.96-6.49 3.93 1.08 7.36 3.38 9.85 6.49ZM27.26 20.36c-2.18-1.47-4.79-2.48-7.65-2.89.16-1.9.41-3.69.77-5.28h12.03c.53 2.38.86 5.15.94 8.17h-6.08Zm6.08 2.5c-.04 1.68-.17 3.27-.37 4.76-.58-1.75-1.55-3.36-2.83-4.76h3.19ZM26.39 2.62c1.92 0 3.97 2.65 5.35 7.07H21.05c1.38-4.41 3.42-7.07 5.35-7.07Zm-5.01.58c-1.2 1.63-2.21 3.83-2.96 6.49h-6.88c2.48-3.11 5.91-5.41 9.85-6.49ZM9.85 12.19h7.97c-.32 1.58-.56 3.29-.7 5.08-.12 0-.23-.01-.34-.01-3.44 0-6.64.88-9.31 2.38.28-2.68 1.11-5.2 2.39-7.44Zm-.51 29.26-.54-.27-5.25 2.45 1.22-5.76-.33-.45c-1.32-1.81-2.02-3.87-2.02-5.96 0-6.45 6.44-11.7 14.35-11.7s14.35 5.25 14.35 11.7-6.44 11.7-14.35 11.7c-2.61 0-5.18-.59-7.44-1.71Zm22.06-1.42c1.13-1.54 2.1-3.59 2.84-6.05h6.65a19.06 19.06 0 0 1-9.48 6.05Zm11.27-8.55h-7.8c.56-2.58.89-5.49.97-8.62h9.55c-.21 3.14-1.18 6.07-2.72 8.62"/>
</svg>
