<svg viewBox="0 0 64 64" xmlns="http://www.w3.org/2000/svg">
  <path fill="#1e1e1c" d="M63.85 28.72C63.85 12.89 51.04.01 35.3.01S6.74 12.89 6.74 28.72v.05C2.5 32.19-.15 37-.15 42.32c0 3.26 1.02 6.46 2.94 9.3L.18 64.01l11.24-5.25c3.29 1.53 6.98 2.33 10.71 2.33 4.94 0 9.5-1.36 13.2-3.66 15.73-.01 28.53-12.89 28.53-28.71Zm-6.54 13.55H46.26c.83-3.63 1.34-7.76 1.42-12.17h13.4c-.23 4.44-1.58 8.59-3.77 12.17m3.77-14.92h-13.4c-.08-4.18-.54-8.09-1.29-11.58h11.27c1.98 3.44 3.2 7.38 3.42 11.58m-5.25-14.34H45.7c-1.13-4.03-2.7-7.32-4.56-9.57 5.94 1.39 11.1 4.84 14.68 9.57ZM44.05 39.04c-.71-3.38-2.49-6.45-5.05-8.95h5.93c-.07 3.01-.38 6.06-.89 8.95Zm-8.52-11.69c-2.79-1.78-6.08-3.01-9.67-3.52.23-2.77.62-5.52 1.19-8.06h16.47c.82 3.62 1.31 7.64 1.41 11.58h-9.41ZM35.3 2.92c3.18 0 5.81 4.23 7.53 10.09H27.78c1.71-5.86 4.35-10.09 7.53-10.09Zm-5.86.53c-1.86 2.24-3.42 5.54-4.56 9.57H14.75c3.58-4.73 8.74-8.18 14.68-9.57Zm-16.5 12.32h11.27c-.52 2.41-.88 5.04-1.09 7.81-.33-.01-.65-.02-.99-.02-4.66 0-8.99 1.22-12.57 3.29.29-4.01 1.48-7.77 3.38-11.07Zm-.91 40.24-.59-.29-7.45 3.48 1.73-8.19-.36-.5c-1.81-2.49-2.77-5.32-2.77-8.18 0-8.83 8.76-16.02 19.53-16.02s19.53 7.18 19.53 16.02-8.76 16.02-19.53 16.02c-3.54 0-7.04-.81-10.1-2.33ZM41.15 54c1.77-2.13 3.27-5.22 4.38-8.97h9.83c-3.56 4.42-8.53 7.64-14.22 8.97Z"/>
</svg>
