<svg viewBox="0 0 24 24" xmlns="http://www.w3.org/2000/svg">
  <path fill="#1e1e1c" d="M13.12 0C7.32 0 2.58 4.55 2.27 10.27.87 11.58 0 13.31 0 15.22c0 1.25.38 2.47 1.09 3.57L-.01 24l4.76-2.21c1.25.55 2.65.84 4.06.84 1.55 0 3-.34 4.26-.93h.05c6 0 10.87-4.87 10.87-10.85S19.11 0 13.12 0m8 6.49c.58 1.05.95 2.23 1.07 3.48h-4.16c-.04-1.18-.18-2.36-.39-3.48zm-1.26-1.75h-2.64c-.27-.92-.61-1.75-1.02-2.45a9.1 9.1 0 0 1 3.66 2.45M13.12 1.8c.73 0 1.63 1.05 2.28 2.94h-4.56c.65-1.89 1.55-2.94 2.28-2.94m2.75 4.69c.21 1.02.36 2.18.41 3.48h-1.26c-1.29-1.09-2.99-1.84-4.88-2.08.06-.49.13-.97.22-1.4zm-5.84-4.2c-.4.7-.74 1.53-1.02 2.45H6.37a9.2 9.2 0 0 1 3.66-2.45m-4.92 4.2h3.48c-.08.43-.15.88-.2 1.32-1.53.06-2.95.45-4.18 1.08.19-.85.49-1.66.9-2.41Zm.03 13.55-.38-.19-2.33 1.08.54-2.54-.23-.32c-.64-.87-.98-1.86-.98-2.86 0-3.12 3.16-5.67 7.04-5.67s7.04 2.54 7.04 5.67-3.16 5.67-7.04 5.67c-1.29 0-2.56-.29-3.67-.84Zm11.06-.63c.11-.18.2-.39.29-.6.34-.51.6-1.06.79-1.64h2.38c-.96.99-2.14 1.76-3.47 2.23Zm4.79-3.99H17.6c.24-1.18.39-2.44.43-3.7h4.16a9 9 0 0 1-1.2 3.7"/>
</svg>
