<svg viewBox="0 0 16 16" xmlns="http://www.w3.org/2000/svg">
  <path fill="#1e1e1c" d="M8.78 0C4.97 0 1.86 2.94 1.57 6.67.65 7.55.09 8.7.09 9.97c0 .82.24 1.63.7 2.35L0 15.99l3.34-1.55c.82.35 1.72.53 2.63.53s1.82-.19 2.61-.53c.06 0 .12.01.18.01 3.99 0 7.23-3.24 7.23-7.23S12.76 0 8.78 0m5.67 6.48h-2.32c-.03-.65-.1-1.29-.2-1.9h1.92c.31.58.51 1.22.6 1.9m-1.73-3.4h-1.14c-.12-.38-.25-.73-.4-1.05.57.27 1.09.62 1.55 1.05ZM8.78 1.53c.37 0 .84.56 1.21 1.55H7.56c.38-.98.84-1.55 1.21-1.55Zm1.62 3.05c.11.57.19 1.21.23 1.9h-.45c-.83-.72-1.9-1.22-3.11-1.42a6 6 0 0 1 .08-.48zM6.37 2.03c-.15.32-.29.67-.4 1.05H4.83c.45-.43.97-.79 1.55-1.05ZM3.7 4.58h1.92c-.02.13-.03.28-.05.41-.81.05-1.57.23-2.25.53.1-.33.23-.64.39-.94Zm-.02 8.36-.32-.16-1.26.58.29-1.37-.2-.27c-.4-.54-.6-1.13-.6-1.75 0-1.93 1.97-3.5 4.39-3.5s4.39 1.57 4.39 3.5-1.97 3.5-4.39 3.5c-.81 0-1.6-.18-2.3-.53m7.5-.52c.05-.12.1-.25.15-.37.09-.17.18-.35.25-.54h.99c-.41.37-.88.67-1.39.91m2.6-2.4h-1.87c.12-.65.2-1.34.23-2.04h2.32c-.1.73-.33 1.42-.67 2.04Z"/>
</svg>
