<svg viewBox="0 0 48 48" xmlns="http://www.w3.org/2000/svg">
  <path fill="#1e1e1c" d="M19.71 9.68C21.2 3.97 23.64.37 25.99 0h.78c2.35.36 4.79 3.96 6.28 9.68H19.7Zm16.45 2.51c.46 2.52.73 5.28.8 8.18h10.98c-.17-2.92-.91-5.68-2.13-8.18zM21.03.67C15.78 2.01 11.3 5.29 8.38 9.69h8.75c.92-3.76 2.26-6.87 3.9-9.02m23.35 9.01c-2.92-4.4-7.4-7.67-12.64-9.02 1.63 2.14 2.98 5.26 3.9 9.02h8.75Zm-8.3 21.81h9.51c1.35-2.61 2.18-5.53 2.35-8.62H36.96c-.07 3.07-.37 5.98-.88 8.62m11.9-9.95v.15-.16Zm-32.1-3.02c.12-2.23.36-4.35.72-6.34H6.95c-1.21 2.5-1.96 5.26-2.13 8.18h2.53c2.55-1.15 5.45-1.81 8.52-1.84ZM33.9 29.39c.3-2.01.5-4.19.55-6.52h-5.43c2.22 1.78 3.92 4.01 4.88 6.52m.31 8.65c-.48 1.6-1.26 3.11-2.28 4.47 4.98-1.33 9.26-4.4 12.15-8.52h-8.55c-.37 1.46-.82 2.81-1.31 4.04Zm-.59-25.85H19.15c-.38 1.97-.63 4.13-.76 6.45 2.34.24 4.55.83 6.54 1.73h9.52c-.07-2.98-.36-5.73-.83-8.18m-1.66 19.3c-.11-.45-.26-.88-.43-1.31-.03-.08-.08-.16-.11-.25-.14-.34-.3-.69-.48-1.02-.05-.09-.11-.18-.16-.27-.18-.32-.38-.63-.59-.94-.06-.08-.12-.15-.17-.23-.23-.31-.47-.62-.72-.91-.05-.06-.11-.12-.16-.18-.28-.31-.57-.61-.88-.89-.04-.04-.09-.08-.13-.12a13 13 0 0 0-1.13-.92c-.39-.29-.79-.56-1.22-.82-.01 0-.03-.02-.04-.02-.44-.27-.9-.51-1.37-.74-2.41-1.17-5.22-1.85-8.22-1.85-8.92-.01-16.17 5.9-16.17 13.17 0 2.35.79 4.67 2.29 6.72l.33.45-1.41 6.63 6.05-2.81.54.27c2.54 1.26 5.43 1.92 8.36 1.92 8.91 0 16.16-5.91 16.16-13.18 0-.92-.12-1.83-.34-2.7"/>
</svg>
