<svg viewBox="0 0 40 40" xmlns="http://www.w3.org/2000/svg">
  <path fill="#1e1e1c" d="M16.36 7.98C17.49 3.58 19.3.67 21.1-.03c.28-.01.55-.04.84-.04s.56.03.84.04c1.8.7 3.61 3.61 4.75 8.01zm20.61 0A18.13 18.13 0 0 0 26.82.61c1.29 1.81 2.34 4.32 3.06 7.37zm-6.7 18.12h7.79c1.08-2.13 1.74-4.49 1.89-6.99h-9.02c-.05 2.49-.28 4.85-.66 6.99M17.06.61A18.13 18.13 0 0 0 6.91 7.98H14c.72-3.04 1.77-5.56 3.06-7.37m13.87 16.24h9.02a18 18 0 0 0-1.72-6.62h-7.91c.35 2.04.55 4.27.61 6.62m-17.38-6.62H5.64a17.9 17.9 0 0 0-1.77 7.74c2.55-1.65 5.7-2.66 9.14-2.74.09-1.75.28-3.43.54-4.99ZM28.3 23.91c.2-1.5.34-3.11.38-4.81h-4.02c1.6 1.35 2.84 2.99 3.64 4.81m.67 7.13c-.36 1.53-1.05 2.96-1.98 4.25 3.98-1.16 7.39-3.64 9.72-6.94h-6.93c-.24.96-.51 1.85-.81 2.69M26.7 26.1c-.1-.36-.22-.72-.36-1.07 0-.02-.02-.04-.03-.06-.14-.33-.29-.65-.46-.97-.01-.02-.03-.05-.04-.07a10 10 0 0 0-.57-.91c-.02-.02-.03-.04-.05-.06-.21-.3-.44-.58-.68-.86-.01-.02-.03-.03-.04-.05-.25-.28-.52-.56-.8-.82 0 0-.02-.01-.02-.02-.29-.27-.6-.52-.92-.77-.65-.5-1.37-.94-2.13-1.33-2.07-1.04-4.49-1.65-7.1-1.65s-5.03.61-7.1 1.65c-.41.21-.81.43-1.19.67-.01 0-.02.01-.03.02C2 21.81-.05 24.94-.05 28.45c0 1.96.66 3.9 1.91 5.6l.3.41L1 39.92l4.99-2.32.48.24c2.13 1.05 4.55 1.61 7.01 1.61 7.46 0 13.54-4.93 13.54-11 0-.81-.12-1.6-.32-2.36Zm1.32-15.87H15.86c-.29 1.56-.49 3.25-.59 5.06 2.1.2 4.07.74 5.84 1.56h7.58c-.06-2.4-.29-4.63-.66-6.62Z"/>
</svg>
