<svg viewBox="0 0 32 32" xmlns="http://www.w3.org/2000/svg">
  <path fill="#1e1e1c" d="M13.16 6.4C14.19 2.45 15.9.03 17.5 0h.04c1.6.02 3.31 2.44 4.34 6.39h-8.72Zm16.38 0A14.53 14.53 0 0 0 21.57.59c1.01 1.44 1.83 3.43 2.4 5.81zm-7.97 21.91c3.17-.92 5.89-2.9 7.76-5.52H23.9c-.57 2.25-1.36 4.13-2.32 5.52Zm3.25-14.86h7.13c-.12-1.79-.57-3.49-1.3-5.05h-6.29c.26 1.57.42 3.26.46 5.05M13.48.59c-3.29.96-6.1 3.04-7.97 5.81h5.57c.57-2.38 1.39-4.37 2.4-5.81m10.84 20.2h6.2c.8-1.63 1.31-3.43 1.44-5.34h-7.13c-.05 1.9-.22 3.69-.51 5.34m-1.5-5.34h-2.04c.75.7 1.39 1.49 1.9 2.34.07-.75.12-1.53.14-2.34M10.69 8.4H4.4c-.8 1.72-1.27 3.63-1.32 5.63 2.03-1.31 4.53-2.13 7.25-2.25.08-1.17.19-2.31.37-3.38Zm11.63 0h-9.6c-.19 1.06-.33 2.2-.41 3.41 2.07.17 3.99.76 5.66 1.64h4.85c-.05-1.82-.22-3.52-.5-5.05m-4.85 7.05c-1.82-1.06-4.04-1.7-6.45-1.7s-4.63.63-6.45 1.7c-.24.14-.48.29-.7.44-.08.05-.15.11-.22.16-.15.11-.31.22-.45.34-2.01 1.62-3.25 3.86-3.25 6.32 0 1.59.54 3.17 1.56 4.56l.27.36L.85 32l4.01-1.86.43.21c1.74.86 3.72 1.31 5.74 1.31 6.1 0 11.07-4.02 11.07-8.96 0-2.99-1.82-5.64-4.61-7.27Z"/>
</svg>
