<svg viewBox="0 0 40 40" xmlns="http://www.w3.org/2000/svg">
  <path d="M40 8.62V4.63H24.7A5.1 5.1 0 0 0 22 1.94V.03h-4v1.9a5.15 5.15 0 0 0-2.7 2.69H0v3.99h4.79l-3.67 9.73H.01v2C.01 24.56 3.45 28 7.68 28s7.67-3.44 7.67-7.66v-2h-1.11l-3.67-9.73h4.73A5.1 5.1 0 0 0 18 11.3v24.73H0v3.99h40v-3.99H22V11.31a5.18 5.18 0 0 0 2.7-2.69h4.7l-3.66 9.71h-1.16v2c0 4.25 3.46 7.71 7.72 7.71s7.72-3.46 7.72-7.71v-2h-1.16L35.2 8.62h4.83Zm-20-.9c-.61 0-1.11-.5-1.11-1.1s.5-1.1 1.11-1.1 1.11.5 1.11 1.1-.5 1.1-1.11 1.1M5.39 18.35l2.29-6.07 2.29 6.07zM30 18.33l2.28-6.04 2.28 6.04z"/>
</svg>
