<svg viewBox="0 0 40 40" xmlns="http://www.w3.org/2000/svg">
  <path d="M40 7.77V5.53H24.06a4.21 4.21 0 0 0-2.93-2.92V.08h-2.25v2.53c-1.42.39-2.54 1.5-2.93 2.92H0v2.24h5.17L1.21 18.23H0v1.12c0 3.73 3.05 6.77 6.8 6.77s6.8-3.04 6.8-6.77v-1.12h-1.21L8.43 7.77h7.51c.4 1.42 1.51 2.53 2.93 2.92v27.14H0v2.24h40v-2.24H21.12V10.7c1.42-.39 2.54-1.5 2.93-2.92h7.47l-3.95 10.43H26.3v1.12c0 3.76 3.07 6.82 6.84 6.82s6.84-3.06 6.84-6.82v-1.12h-1.27L34.76 7.78h5.22ZM6.8 23.88a4.56 4.56 0 0 1-4.41-3.41h8.81a4.55 4.55 0 0 1-4.41 3.41Zm-3.18-5.65 3.18-8.4 3.18 8.4zM20 8.63c-1.09 0-1.98-.89-1.98-1.97s.89-1.97 1.98-1.97 1.98.89 1.98 1.97-.89 1.97-1.98 1.97M33.15 23.9c-2.14 0-3.95-1.47-4.45-3.45h8.91a4.594 4.594 0 0 1-4.45 3.45Zm-3.17-5.69 3.17-8.38 3.17 8.38z"/>
</svg>
