<svg viewBox="0 0 24 24" xmlns="http://www.w3.org/2000/svg">
  <path d="M15.76 10.81v.87c0 2.27 1.85 4.12 4.12 4.12S24 13.95 24 11.68v-.87h-.61l-2.25-5.97h2.84V3.09h-9.41c-.27-.8-.9-1.43-1.71-1.71V0h-1.75v1.38c-.8.27-1.43.9-1.71 1.71H0v1.75h2.81l-2.25 6H.02v.87c0 2.25 1.82 4.07 4.07 4.07s4.07-1.83 4.07-4.07v-.87h-.55l-2.26-6h4.07c.27.8.9 1.43 1.71 1.71v15.71H0v1.75h23.98v-1.75H12.86V6.54c.8-.27 1.43-.9 1.71-1.71h4.04l-2.25 5.97h-.61Zm4.13 3.25c-1 0-1.86-.62-2.21-1.5h4.41a2.38 2.38 0 0 1-2.21 1.5Zm-15.8-.03c-.97 0-1.8-.6-2.15-1.45h4.3c-.35.85-1.18 1.45-2.15 1.45m-1.66-3.19 1.66-4.39 1.66 4.39H2.44ZM12 4.95c-.54 0-.99-.44-.99-.99s.44-.99.99-.99.99.44.99.99-.44.99-.99.99m7.89 1.49 1.64 4.37h-3.29z"/>
</svg>
