<svg viewBox="0 0 16 16" xmlns="http://www.w3.org/2000/svg">
  <path d="M15.99 1.76h-5.85a2.45 2.45 0 0 0-.89-.89V.01h-2.5v.86c-.37.22-.68.52-.89.89H.01v2.5h1.22L-.01 8l.06.02H.01v1.25c0 1.71 1.39 3.09 3.09 3.09s3.09-1.39 3.09-3.09V8.02h-.13L6.12 8 4.87 4.26h.99c.22.37.52.68.89.89v8.34H.01v2.5h6.74l2.5.01 6.74-.01v-2.5H9.25V5.15c.37-.22.68-.52.89-.89h.89L9.78 8.01l.05.02H9.8v1.25c0 1.71 1.39 3.09 3.09 3.09s3.09-1.39 3.09-3.09V8.03h-.13l.06-.02-1.25-3.74h1.32V1.76ZM2.61 8.02l.44-1.31.44 1.31zm9.8 0 .44-1.32.44 1.32z"/>
</svg>
