<svg viewBox="0 0 24 24" xmlns="http://www.w3.org/2000/svg">
  <path d="M24 5.46v-3h-9c-.33-.65-.85-1.17-1.49-1.49V0h-3v.97c-.65.33-1.17.85-1.49 1.49H0v3h2.63L.74 11.18H0v1.5c0 2.62 2.13 4.75 4.75 4.75S9.5 15.3 9.5 12.68v-1.5h-.76L6.8 5.46h2.21c.33.65.85 1.17 1.49 1.49V21H0v3h23.99v-3h-10.5V6.96c.65-.33 1.17-.85 1.49-1.49h2.14l-1.89 5.72h-.75v1.5c0 2.62 2.13 4.75 4.75 4.75s4.75-2.13 4.75-4.75v-1.5h-.76l-1.94-5.72h2.7Zm-11.64-1.5c0 .2-.16.36-.36.36s-.36-.16-.36-.36.16-.36.36-.36.36.16.36.36M3.9 11.18l.82-2.49.84 2.49H3.89Zm14.51 0 .82-2.49.84 2.49H18.4Z"/>
</svg>
