<svg viewBox="0 0 32 32" xmlns="http://www.w3.org/2000/svg">
  <path d="M31.99 6.28v-2H19.32A3.5 3.5 0 0 0 17 1.96V0h-2v1.96a3.5 3.5 0 0 0-2.32 2.32H.01v2H4L.9 14.52h-.91v1c0 3.01 2.45 5.46 5.46 5.46s5.46-2.45 5.46-5.46v-1H10L6.9 6.29h5.79a3.5 3.5 0 0 0 2.32 2.32v21.4h-15v2h31.98v-2H17V8.6a3.5 3.5 0 0 0 2.32-2.32h5.75l-3.1 8.23h-.91v1c0 3.01 2.45 5.46 5.46 5.46s5.46-2.45 5.46-5.46v-1h-.91l-3.1-8.23H32ZM5.45 18.98c-1.56 0-2.88-1.04-3.31-2.46h6.62a3.465 3.465 0 0 1-3.31 2.46m-2.41-4.46 2.41-6.4 2.41 6.4zM16 6.77c-.82 0-1.48-.67-1.48-1.48S15.19 3.8 16 3.8s1.48.67 1.48 1.49-.67 1.48-1.48 1.48m10.52 12.21c-1.56 0-2.88-1.04-3.31-2.46h6.62a3.465 3.465 0 0 1-3.31 2.46m-2.41-4.46 2.41-6.4 2.41 6.4z"/>
</svg>
