<svg viewBox="0 0 32 32" xmlns="http://www.w3.org/2000/svg">
  <path d="M31.07 23.68c0 .15-.09.2-.13.22L16.1 31.99s-.08.03-.12.03-.08-.01-.12-.03L1.03 23.9s-.13-.07-.13-.22.09-.19.13-.21l4.87-2.51 9 4.91a2.3 2.3 0 0 0 2.16 0l9-4.91 4.87 2.51s.13.07.13.21Zm-.13-8.1-4.87-2.51-9 4.91a2.3 2.3 0 0 1-2.16 0l-9-4.91-4.87 2.51s-.13.07-.13.22.09.2.13.22l14.84 8.09s.08.03.12.03.08-.01.12-.03l14.84-8.09s.13-.07.13-.22-.09-.19-.13-.22ZM1.03 8.13l14.84 8.09s.08.03.12.03.08-.01.12-.03l14.84-8.09s.13-.07.13-.22-.09-.19-.13-.21L16.1.05s-.07-.03-.11-.03-.08 0-.11.03L1.03 7.7s-.13.07-.13.21c0 .15.09.2.13.22"/>
</svg>
