<svg viewBox="0 0 40 40" xmlns="http://www.w3.org/2000/svg">
  <path d="M39.14 29.47c0 .15-.09.2-.13.22L20.11 40s-.08.03-.12.03-.08-.01-.12-.03L.97 29.69s-.13-.07-.13-.22.09-.2.13-.22l6.34-3.27 11.48 6.26c.37.2.78.31 1.2.31s.82-.1 1.2-.31l11.48-6.26 6.34 3.27s.13.07.13.22m-.13-9.94-6.34-3.27-11.48 6.26c-.37.2-.78.31-1.2.31s-.82-.1-1.2-.31L7.31 16.26.97 19.53s-.13.07-.13.22.09.2.13.22l18.9 10.31s.08.03.12.03.08-.01.12-.03l18.9-10.31s.13-.07.13-.22-.09-.2-.13-.22M.97 10.23l18.9 10.31s.08.03.12.03.08-.01.12-.03l18.9-10.31s.13-.07.13-.22-.09-.2-.13-.22L20.1.06s-.07-.03-.11-.03-.08 0-.11.03L.97 9.8s-.13.07-.13.22.09.2.13.22Zm18.41 12.51"/>
</svg>
