<svg viewBox="0 0 24 24" xmlns="http://www.w3.org/2000/svg">
  <path d="m22.16 10.3-2.05-1.06L22.2 8.1c1.23-.67 1.21-2.45-.04-3.09L12.8.19C12.55.06 12.27 0 12 0s-.55.06-.8.19L1.84 5.01C.59 5.65.57 7.43 1.8 8.1l2.09 1.14-2.05 1.06c-1.25.64-1.27 2.42-.04 3.09l2.09 1.14-2.05 1.06c-1.25.64-1.27 2.42-.04 3.09l9.36 5.1c.26.14.55.21.84.21s.58-.07.84-.21l9.36-5.1c1.23-.67 1.21-2.45-.04-3.09l-2.05-1.06 2.09-1.14c1.23-.67 1.21-2.45-.04-3.09M12 1.75l9.36 4.82-9.36 5.1-9.36-5.1zm9.36 15.4L12 22.25l-9.36-5.1 3.11-1.6 5.41 2.95c.26.14.55.21.84.21s.58-.07.84-.21l5.41-2.95zM12 16.96l-9.36-5.1 3.11-1.6 5.41 2.95c.26.14.55.21.84.21s.58-.07.84-.21l5.41-2.95 3.11 1.6z"/>
</svg>
