<svg viewBox="0 0 16 16" xmlns="http://www.w3.org/2000/svg">
  <path d="M14.79 12.13c0 .13-.05.23-.17.29l-6.49 3.54s-.1.04-.15.04-.11-.01-.15-.04l-6.49-3.54a.31.31 0 0 1-.17-.29c0-.13.06-.22.17-.28l1.85-.95 3.92 2.14c.27.15.57.22.87.22s.6-.07.87-.22l3.92-2.14 1.85.95c.11.06.17.15.17.28M1.33 3.95l6.49 3.54s.1.04.15.04.11-.01.15-.04l6.49-3.54c.11-.06.17-.16.17-.29s-.06-.22-.17-.28L8.13.04S8.03 0 7.98 0s-.1.01-.15.04L1.34 3.38c-.11.06-.17.15-.17.28s.05.23.17.29Zm13.29 3.68-1.85-.95-3.92 2.14c-.27.15-.57.22-.87.22s-.6-.07-.87-.22L3.19 6.68l-1.85.95c-.11.06-.17.15-.17.28s.05.23.17.29l6.49 3.54s.1.04.15.04.11-.01.15-.04l6.49-3.54c.11-.06.17-.16.17-.29s-.06-.22-.17-.28"/>
</svg>
