<svg viewBox="0 0 48 48" xmlns="http://www.w3.org/2000/svg">
  <path d="M47.2 35.26c0 .15-.09.2-.13.22L24.11 48s-.08.03-.12.03-.08-.01-.12-.03L.92 35.48s-.13-.07-.13-.22.09-.2.14-.22l7.8-4.02 13.95 7.61c.41.22.86.34 1.32.34s.91-.11 1.32-.34l13.95-7.61 7.8 4.02s.13.07.14.22Zm-.13-11.8-7.8-4.02-13.95 7.61c-.41.22-.86.34-1.32.34s-.91-.11-1.32-.34L8.73 19.44.92 23.46s-.13.07-.14.22c0 .15.09.2.13.22l22.96 12.52s.08.03.12.03.08-.01.12-.03L47.07 23.9s.13-.07.13-.22-.09-.2-.14-.22ZM.92 12.33l22.96 12.52s.08.03.12.03.08-.01.12-.03l22.96-12.52s.13-.07.13-.22-.09-.2-.14-.22L24.11.06s-.07-.03-.12-.03-.08 0-.12.03L.92 11.89s-.13.07-.14.22c0 .15.09.2.13.22Z"/>
</svg>
