<svg viewBox="0 0 24 24" xmlns="http://www.w3.org/2000/svg">
  <path d="M13.12 3.5c0-1.93 1.57-3.5 3.5-3.5.48 0 .94.1 1.36.28.84.35 1.51 1.03 1.86 1.86a3.45 3.45 0 0 1 0 2.72c-.35.84-1.03 1.51-1.86 1.86-.42.18-.88.28-1.36.28-1.93 0-3.5-1.57-3.5-3.5m6.89 4.73h-6.77c-1.09 0-2.09.44-2.81 1.16l1.68 1.68-2.86 2.86v1.64l3.68-3.68 4.48 4.48h1.73v-3.22h1.75v3.22h3.12v-4.15c0-2.2-1.79-3.99-3.99-3.99Zm-8.45 6.27 3.9 3.9 1.37-1.37-3.9-3.9zm-.69-3.43-3.9-3.9L5.6 8.54l3.9 3.9zm-2.68 6.8c-.55.55-1.5.55-2.06 0-.27-.27-.43-.64-.43-1.03s.15-.75.43-1.03l2.13-2.13-3.9-3.9-2.32 2.32C.72 13.42 0 15.17 0 17.03s.73 3.61 2.04 4.93C3.36 23.28 5.11 24 6.97 24s3.61-.73 4.93-2.04l2.32-2.32-3.9-3.9-2.14 2.13Z"/>
</svg>
