<svg viewBox="0 0 24 24" xmlns="http://www.w3.org/2000/svg">
  <path d="M16.62 7c1.93 0 3.5-1.57 3.5-3.5S18.56 0 16.62 0s-3.5 1.57-3.5 3.5S14.69 7 16.62 7m0-5.25c.96 0 1.75.79 1.75 1.75s-.79 1.75-1.75 1.75-1.75-.79-1.75-1.75.79-1.75 1.75-1.75m1.76 11.4h1.75v3.25h-1.75zm-9.13 2.42v-1.64L11 12.18v1.64zM24 12.22v4.15h-1.75v-4.15c0-1.23-1-2.24-2.24-2.24h-6.77c-.61 0-1.17.25-1.57.65l-1.24-1.24c.72-.72 1.71-1.16 2.81-1.16h6.77c2.2 0 3.99 1.79 3.99 3.99m-9.12.93v.69l-.69-.69zm-6.69 4.72c-.55.55-1.5.55-2.06 0-.27-.27-.43-.64-.43-1.03s.15-.75.43-1.03l4.74-4.74-3.9-3.9-4.93 4.93C.72 13.42 0 15.17 0 17.03s.73 3.61 2.04 4.93C3.36 23.28 5.11 24 6.97 24s3.61-.73 4.93-2.04l4.93-4.93-3.9-3.9zm.21-6.8-.64.64-1.43-1.43.64-.64zm2.26 9.65c-.99.99-2.3 1.53-3.69 1.53s-2.71-.54-3.69-1.53-1.53-2.3-1.53-3.69.54-2.71 1.53-3.69l1.82-1.82 1.43 1.43-1.63 1.63c-.61.61-.94 1.41-.94 2.27s.33 1.66.94 2.26c1.21 1.21 3.32 1.21 4.53 0l1.63-1.63 1.43 1.43-1.82 1.82Zm3.06-3.05-1.43-1.43.64-.64 1.43 1.43z"/>
</svg>
