<svg viewBox="0 0 40 40" xmlns="http://www.w3.org/2000/svg">
  <path d="M22.9 8.61c-.45-.83-.7-1.77-.7-2.78s.26-1.95.7-2.78q.27-.495.63-.93c.12-.14.24-.28.38-.41.26-.26.55-.5.86-.71.16-.1.32-.2.48-.29.5-.27 1.04-.47 1.61-.59.38-.08.77-.12 1.18-.12 1.61 0 3.07.65 4.13 1.71s1.71 2.51 1.71 4.13c0 3.22-2.61 5.83-5.84 5.83a5.84 5.84 0 0 1-5.13-3.05Zm10.78 5.44H22.39c-2.23 0-4.18 1.16-5.31 2.91l1.83 1.83-2.83 2.83v4.62l5.14-5.14.82.82h1.74v1.74l3.62 3.62h4.89v-5.37h2.25v5.37h5.45v-6.92c0-3.48-2.83-6.31-6.32-6.31ZM19.21 24.69l6.03 6.03 2.01-2.01-6.03-6.03zm-1.89-5.91-6.03-6.03-2.01 2.01 6.03 6.03zm-3.77 11.57c-1.04 1.04-2.86 1.04-3.9 0-.52-.52-.81-1.21-.81-1.95s.29-1.43.81-1.95l4.07-4.07-6.03-6.03-4.38 4.38C1.17 22.86 0 25.7 0 28.71s1.17 5.85 3.31 7.98C5.44 38.82 8.28 40 11.29 40s5.85-1.17 7.98-3.31l4.38-4.38-6.03-6.03z"/>
</svg>
