<svg viewBox="0 0 32 32" xmlns="http://www.w3.org/2000/svg">
  <path d="M17.66 4.66c0-1.29.52-2.46 1.37-3.3q.315-.315.69-.57a4.5 4.5 0 0 1 1.67-.7c.3-.06.62-.09.94-.09s.64.03.94.09c.61.12 1.17.37 1.67.7.61.41 1.1.98 1.46 1.62a4.7 4.7 0 0 1 .6 2.25c0 2.26-1.6 4.14-3.73 4.57-.3.06-.62.09-.94.09s-.64-.03-.94-.09a4.67 4.67 0 0 1-2.36-1.27 4.62 4.62 0 0 1-1.37-3.3m9.18 6.48H17.8c-1.66 0-3.12.8-4.06 2.02l1.77 1.77-2.86 2.86v3.13l4.42-4.42 1.04 1.04h.71v.71l3.59 3.59h3.43v-4.3h2v4.3H32v-5.53c0-2.84-2.31-5.15-5.15-5.15Zm-11.29 8.29 4.97 4.97 1.52-1.52-4.97-4.97zm-4.68 4.68c-.82.82-2.16.82-2.98 0s-.82-2.16 0-2.98l3.27-3.27-4.97-4.97-3.52 3.52c-3.56 3.56-3.56 9.35 0 12.91 1.78 1.78 4.12 2.67 6.46 2.67s4.68-.89 6.46-2.67l3.52-3.52-4.97-4.97-3.27 3.27Zm3.23-9.19L9.13 9.95l-1.52 1.52 4.97 4.97z"/>
</svg>
