<svg viewBox="0 0 64 64" xmlns="http://www.w3.org/2000/svg">
  <path d="M63.62 19.04c-.13 1.14-.3 2.31-.52 3.51-.32 1.8-.75 3.64-1.31 5.51-2.05 6.86-5.86 13.99-12.7 19.83l-.01.01c-.35.3-.72.6-1.09.88-.13.1-.26.19-.39.29-.26.19-.51.38-.78.56-.16.11-.32.22-.48.32-.25.16-.49.33-.74.49-.17.11-.35.22-.53.32-.25.15-.5.3-.75.44-.18.1-.37.21-.56.31-.25.14-.51.27-.77.41-.19.1-.38.19-.57.29-.26.13-.53.26-.8.38-.19.09-.38.18-.58.26l-.84.36c-.19.08-.38.16-.57.23-.31.12-.62.24-.93.35-.17.06-.33.13-.5.19-.41.14-.83.28-1.24.41-.07.02-.14.05-.22.07-.49.15-.98.29-1.48.42l-.47.12c-.34.09-.68.17-1.03.25l-.59.12c-.31.06-.61.13-.92.18-.21.04-.42.07-.63.11-.3.05-.59.1-.89.14-.22.03-.43.06-.65.08-.29.04-.59.07-.88.1l-.65.06-.88.06-.64.03c-.3.01-.59.02-.89.02-.15 0-.3.01-.44.01h-.2c-.18 0-.35 0-.53-.01q-.405 0-.81-.03c-.18 0-.36-.02-.54-.03l-.79-.06c-.18-.02-.36-.03-.54-.05-.26-.03-.52-.06-.77-.1-.18-.02-.35-.05-.52-.07-.27-.04-.53-.09-.79-.14l-.48-.09c-.29-.06-.58-.13-.87-.2l-.38-.09c-.41-.11-.82-.22-1.21-.35-.05-.02-.1-.04-.15-.05-.35-.11-.69-.23-1.03-.36-.13-.05-.26-.11-.39-.16-.25-.1-.51-.21-.75-.32-.15-.07-.29-.14-.43-.21-.23-.11-.45-.22-.67-.33-.15-.08-.29-.16-.44-.24-.21-.12-.42-.24-.63-.37-.14-.09-.29-.18-.43-.27s-.27-.18-.4-.27c15.63-20.93 28.3-29.49 34.93-32.85.77-.39 1.63-.83 1.89-2.03.16-.74-.04-1.52-.52-2.11a2.503 2.503 0 0 0-3.41-.43l-.22.11c-6.98 3.53-20.23 12.44-36.34 33.87-.4-.5-.77-1.02-1.11-1.57-1.56-2.54-2.44-5.47-2.73-8.57-.04-.44-.07-.89-.09-1.34s-.03-.9-.02-1.36c.02-1.82.21-3.69.57-5.55.09-.47.19-.93.3-1.4.22-.93.47-1.86.77-2.78 2.05-6.44 5.87-12.52 10.61-16.57.59-.51 1.2-.99 1.8-1.45.2-.15.41-.29.61-.44.41-.3.81-.59 1.22-.86.25-.17.5-.32.74-.48.37-.24.74-.47 1.12-.7.27-.16.54-.31.8-.46.36-.2.72-.4 1.08-.59.28-.15.56-.28.84-.42.35-.17.71-.35 1.07-.51.28-.13.57-.25.85-.38.35-.15.71-.3 1.06-.44.29-.11.57-.22.86-.33.36-.13.71-.26 1.07-.38.28-.1.57-.19.85-.28.36-.11.72-.22 1.08-.32.28-.08.56-.16.83-.24.37-.1.75-.19 1.12-.28.26-.06.52-.13.78-.19.41-.09.81-.17 1.21-.24.22-.04.45-.09.67-.13.62-.11 1.24-.2 1.85-.29l.27-.03c.53-.07 1.05-.13 1.57-.18.23-.02.45-.04.68-.05l1.14-.09.74-.03c.35-.02.7-.03 1.04-.04.25 0 .5 0 .75-.01.22 0 .44-.01.66-.01h.29c.36 0 .72 0 1.07.02.26 0 .51.01.77.02.36.01.71.03 1.06.05.24.01.48.02.72.04l1.08.09c.21.02.42.03.62.05.46.04.9.1 1.33.15.14.02.29.03.43.05.47.06.94.12 1.39.19.21.03.41.07.61.1.28.05.57.09.84.14.22.04.42.08.64.12.24.05.49.09.72.14.21.04.41.08.61.13.22.05.43.09.64.14.2.04.38.09.57.13.2.05.39.09.58.14.18.04.34.08.51.13.18.04.35.09.51.13q.24.06.45.12c.16.04.3.08.45.12.13.04.26.07.38.11.13.04.26.08.38.11.11.03.22.07.32.1.11.03.21.06.31.1.09.03.17.05.25.08.1.03.17.06.25.08.05.02.11.04.15.05.08.03.14.05.19.06.02 0 .05.02.06.02.05.02.08.03.08.03s1.44 7 .4 16.12ZM11.36 51.95c-.2-.15-.39-.3-.58-.46-.12-.1-.25-.2-.37-.3-.2-.18-.4-.37-.6-.55-.1-.09-.2-.18-.29-.28-.29-.29-.56-.59-.83-.9-.14-.17-.27-.34-.4-.51-2.56 3.4-5.18 7.1-7.87 11.17a2.49 2.49 0 0 0 .71 3.46c.42.28.9.41 1.38.41.81 0 1.61-.39 2.09-1.12 2.52-3.81 4.98-7.29 7.37-10.49-.07-.05-.13-.09-.2-.13-.14-.1-.27-.19-.4-.29Z"/>
</svg>
