<svg viewBox="0 0 48 48" xmlns="http://www.w3.org/2000/svg">
  <path d="M47.98 9.47c0 .72-.03 1.49-.07 2.28-.14 2.38-.48 5.05-1.19 7.82-.12.46-.25.92-.39 1.39-.56 1.86-1.29 3.75-2.23 5.61-.24.46-.49.93-.75 1.39a29.8 29.8 0 0 1-6.48 7.8c-.55.47-1.13.91-1.73 1.33-.05.03-.09.06-.14.09-.57.39-1.16.76-1.77 1.1-.07.04-.14.08-.2.11-.61.34-1.24.65-1.88.95-.07.03-.13.06-.2.09-.67.3-1.35.57-2.05.82-.04.01-.08.03-.11.04-.73.26-1.48.49-2.23.69-.03 0-.06.01-.09.02-.73.19-1.46.35-2.2.49-.07.01-.14.02-.21.04-.71.12-1.41.22-2.12.29-.08 0-.16.02-.24.02-.71.06-1.42.09-2.12.1h-.21q-.81 0-1.62-.06c-.1 0-.19-.01-.29-.02-.53-.05-1.06-.11-1.58-.19-.08-.01-.17-.03-.25-.04-.53-.09-1.06-.2-1.57-.33-.04 0-.07-.02-.11-.03-.51-.14-1-.29-1.49-.47-.05-.02-.1-.03-.15-.05-.48-.18-.95-.39-1.4-.62-.08-.04-.15-.07-.23-.11-.4-.21-.78-.44-1.15-.68 11.6-15.56 20.98-21.9 25.89-24.38.58-.29 1.38-.7 1.61-1.78.14-.67-.03-1.37-.47-1.9a2.25 2.25 0 0 0-3.03-.41c-.04.02-.09.04-.14.07-5.22 2.64-15.13 9.3-27.16 25.3-.4-.54-.76-1.09-1.07-1.68-.29-.56-.54-1.15-.75-1.75-.32-.91-.55-1.85-.7-2.83a19.8 19.8 0 0 1-.09-5.06c.11-1.04.28-2.08.53-3.12.65-2.78 1.76-5.52 3.21-8.01.36-.62.75-1.23 1.15-1.81 1.21-1.75 2.6-3.33 4.12-4.62 0 0 .01 0 .01-.01.44-.37.88-.73 1.33-1.07.15-.12.31-.22.47-.34.3-.22.6-.44.9-.64.18-.12.37-.24.56-.36.28-.18.55-.35.83-.52.2-.12.4-.23.6-.34.27-.15.54-.3.8-.44.21-.11.42-.21.62-.31.26-.13.53-.26.79-.38.21-.1.42-.19.64-.28.26-.11.53-.22.79-.33.21-.08.43-.17.64-.25.26-.1.53-.19.79-.28.21-.07.42-.14.64-.21.27-.08.54-.16.8-.24.21-.06.42-.12.62-.18.28-.07.55-.14.83-.2.2-.05.39-.1.59-.14.3-.07.6-.12.91-.18.17-.03.34-.07.5-.1.46-.08.91-.15 1.36-.21l.24-.03c.39-.05.78-.1 1.16-.13.17-.02.33-.03.5-.04.29-.02.57-.05.86-.06l.55-.03.78-.03h1.27c.27 0 .54 0 .8.01.19 0 .38 0 .57.02.27.01.53.03.79.04l.53.03c.27.02.54.04.8.07.16.01.32.03.47.04.33.03.66.07.98.11.11.01.23.03.34.04.35.04.69.09 1.03.14.16.02.3.05.45.07.21.03.43.07.63.1l.47.09c.18.03.37.07.55.1.16.03.3.06.45.09.16.03.33.07.48.1s.28.06.42.1c.15.03.29.07.43.1.13.03.26.06.38.09.13.03.26.07.38.1s.23.06.34.09q.18.045.33.09c.1.03.19.05.28.08.1.03.2.06.29.09.08.02.16.05.23.07.09.03.17.05.24.08.06.02.12.04.17.05.08.02.14.04.2.06.04.01.07.02.1.03.06.02.1.03.13.05.02 0 .04.01.06.02.04.01.06.02.06.02s.34 1.65.5 4.31c.05.89.09 1.88.08 2.97ZM9.16 39.09c-.41-.28-.8-.58-1.17-.91-.05-.04-.1-.09-.15-.14-.39-.35-.76-.72-1.1-1.12-.19-.22-.36-.46-.53-.7-1.9 2.53-3.85 5.28-5.85 8.29-.69 1.04-.4 2.43.63 3.12.38.25.81.37 1.24.37.73 0 1.44-.35 1.88-1.01 1.84-2.79 3.64-5.34 5.39-7.68-.04-.03-.08-.05-.12-.07-.07-.05-.15-.1-.22-.15"/>
</svg>
