<svg viewBox="0 0 48 48" xmlns="http://www.w3.org/2000/svg">
  <path d="M47.41 2.19S41.53 0 33.78 0v2.5c5.06 0 9.32 1.01 11.4 1.6.58 4.7 1.46 20.03-9.94 29.75-4.04 3.45-10.1 5.59-15.82 5.59-3.82 0-7.06-.99-9.37-2.8C21.14 22.49 30.1 16.49 34.93 14.05c.54-.27.97-.49 1.1-1.1.08-.37-.02-.76-.26-1.06-.43-.53-1.21-.61-1.74-.19-.06.03-.13.07-.23.12-4.99 2.52-14.21 8.67-25.52 23.03-2.26-2.99-2.91-7.49-1.74-12.5 1.2-5.13 4.07-10.03 7.68-13.11C19.46 4.77 26.04 2.5 33.78 2.5V0C27.23 0 19.36 1.56 12.6 7.34 4.51 14.23.02 29.04 6.69 36.89c-2.1 2.77-4.27 5.8-6.49 9.16a1.252 1.252 0 0 0 1.04 1.94c.41 0 .8-.2 1.04-.56 2.14-3.23 4.22-6.15 6.24-8.82 2.92 2.28 6.79 3.32 10.89 3.32 6.24 0 12.96-2.35 17.45-6.18C51.72 23.08 47.41 2.19 47.41 2.19"/>
</svg>
