<svg viewBox="0 0 16 16" xmlns="http://www.w3.org/2000/svg">
  <path d="M12.34 11.76c-.18.15-.36.29-.56.43-.06.05-.13.09-.2.13-.13.09-.27.17-.41.26-.08.05-.17.09-.25.13-.13.07-.27.14-.4.2-.09.04-.19.08-.28.12-.13.06-.27.11-.41.16-.1.04-.2.07-.3.11-.14.05-.28.09-.42.13-.1.03-.21.06-.31.08-.14.04-.29.07-.43.1l-.31.06-.45.06-.3.03c-.16.01-.32.02-.48.02h-.5c-.14 0-.28-.01-.42-.02-.08 0-.17-.02-.25-.03-.13-.02-.26-.03-.38-.06-.09-.02-.17-.03-.25-.05l-.36-.09c-.08-.02-.16-.05-.24-.08-.12-.04-.23-.08-.34-.13-.08-.03-.15-.06-.23-.1h-.02c4.32-5.84 8.16-7.57 8.23-7.6.63-.27.93-1 .67-1.63-.27-.64-1-.94-1.64-.67-.2.08-4.4 1.91-9.11 8.19-1.52-2.68-.08-6.99 2.38-9.08.29-.25.59-.47.89-.68.1-.07.21-.12.31-.19.2-.12.4-.25.61-.36.12-.07.25-.12.38-.18.19-.09.37-.17.56-.25.13-.05.27-.1.4-.14l.54-.18c.14-.04.27-.07.41-.11L9 .22c.14-.03.27-.05.41-.07.17-.03.34-.05.51-.07.13-.01.26-.03.39-.04l.5-.03c.12 0 .25-.01.37-.01h.42c.17 0 .34 0 .5.02.13 0 .26.02.38.03.16.01.31.03.45.04.12.01.24.03.35.04l.41.06c.11.02.21.03.31.05.13.02.24.05.36.07.09.02.18.04.26.06.11.03.2.05.3.07.07.02.14.03.2.05.09.02.16.05.23.07.05.01.1.03.14.04.07.02.12.04.16.05.02 0 .05.02.07.02.05.02.08.03.08.03s1.41 6.87-3.47 11.04Zm-9.01 1.17c-.11-.07-.22-.15-.32-.24-.05-.04-.11-.08-.16-.12q-.225-.195-.42-.42c-.17-.2-.31-.42-.44-.65A43 43 0 0 0 .2 14.08a1.26 1.26 0 0 0 1.05 1.93c.41 0 .81-.2 1.05-.58.52-.8 1.03-1.53 1.54-2.22-.1-.05-.2-.11-.3-.16-.07-.04-.14-.08-.2-.12Z"/>
</svg>
