<svg viewBox="0 0 40 40" xmlns="http://www.w3.org/2000/svg">
  <path d="M39.5 1.82S34.6 0 28.16 0v2.25a35 35 0 0 1 9.32 1.3c.48 4 1.11 16.52-8.22 24.48-3.28 2.8-8.4 4.6-13.05 4.6-3.1 0-5.74-.79-7.62-2.24 9.16-11.66 16.56-16.61 20.56-18.63.45-.23.84-.43.96-.98.07-.33-.02-.69-.23-.95a1.12 1.12 0 0 0-1.56-.17q-.075.03-.18.09C24 11.84 16.37 16.92 7.01 28.77c-1.78-2.45-2.29-6.09-1.34-10.14.99-4.23 3.35-8.27 6.33-10.81 4.33-3.69 9.76-5.56 16.16-5.56V0c-5.44 0-11.99 1.3-17.62 6.1C3.84 11.82.12 24.06 5.58 30.61c-1.75 2.31-3.56 4.84-5.42 7.64-.34.52-.2 1.22.32 1.56.19.13.41.19.62.19.36 0 .72-.18.94-.5 1.78-2.68 3.51-5.11 5.18-7.33 2.42 1.86 5.61 2.71 8.99 2.71 5.19 0 10.78-1.96 14.51-5.14C43.08 19.2 39.5 1.82 39.5 1.82"/>
</svg>
