<svg viewBox="0 0 16 16" xmlns="http://www.w3.org/2000/svg">
  <path d="M15.8.73S13.86 0 11.32 0C9.17 0 6.58.51 4.35 2.41 1.78 4.61.33 9.22 2.2 11.86q-1.035 1.35-2.1 3a.758.758 0 0 0 .63 1.16c.25 0 .49-.12.63-.34.64-1 1.29-1.92 1.92-2.75.92.61 2.08.88 3.3.88 2.05 0 4.26-.77 5.74-2.03C17.21 7.6 15.8.73 15.8.73m-4.44 9.89c-1.19 1.02-3.06 1.67-4.76 1.67-.59 0-1.57-.09-2.37-.57 4.14-5.03 7.59-6.55 7.63-6.57.38-.16.56-.6.4-.98a.75.75 0 0 0-.98-.4c-.18.08-3.76 1.63-8.07 6.82-.39-.81-.47-1.88-.19-3.09.36-1.53 1.24-3.04 2.3-3.95 1.6-1.36 3.61-2.05 5.99-2.05 1.28 0 2.4.21 3.12.38.15 1.8.11 6.01-3.08 8.73Z"/>
</svg>
