<svg viewBox="0 0 32 32" xmlns="http://www.w3.org/2000/svg">
  <path d="M32 6.27c0 .48-.02.99-.05 1.51-.06 1.05-.18 2.19-.4 3.38-.21 1.18-.52 2.42-.95 3.66-.11.31-.22.62-.35.93-1.11 2.8-2.87 5.59-5.64 7.96-.35.3-.73.59-1.12.86-.13.09-.27.17-.41.26-.27.18-.54.35-.83.51-.17.1-.34.18-.51.27-.27.14-.53.28-.81.41-.19.09-.38.17-.57.25-.27.12-.55.23-.82.33-.2.07-.4.14-.61.21-.28.09-.56.18-.85.26-.21.06-.42.12-.63.17-.29.07-.58.13-.87.19l-.63.12q-.45.075-.9.12c-.2.02-.4.05-.6.07-.32.03-.65.04-.97.04-.15 0-.29.02-.44.02h-.1c-.15 0-.3-.01-.45-.02-.29 0-.58-.02-.86-.05l-.5-.06c-.26-.03-.52-.07-.77-.12-.17-.03-.34-.07-.51-.11-.24-.06-.48-.12-.72-.19a14 14 0 0 1-1.17-.42c-.15-.07-.31-.13-.46-.2-.22-.11-.44-.23-.65-.35-.04-.02-.08-.05-.13-.07 7.65-10.28 13.82-14.46 17.05-16.1.41-.21 1.02-.52 1.2-1.35a1.758 1.758 0 0 0-2.71-1.81l-.08.04c-3.47 1.76-10.07 6.19-18.06 16.84-1.06-1.52-1.57-3.35-1.66-5.3-.2-4.9 2.36-10.54 6.05-13.69l.01-.01c.29-.25.58-.48.88-.7.1-.08.21-.15.31-.22.2-.14.4-.29.6-.42.12-.08.25-.16.37-.24.18-.12.36-.23.55-.34.13-.08.27-.15.4-.23.18-.1.35-.2.53-.29l.42-.21c.17-.09.35-.17.53-.25.14-.06.28-.13.42-.19.17-.07.35-.15.52-.22.14-.06.28-.11.43-.16.18-.06.35-.13.53-.19.14-.05.28-.1.42-.14.18-.06.35-.11.53-.16l.42-.12c.18-.05.37-.09.55-.13l.39-.09.6-.12c.11-.02.23-.05.34-.07.3-.05.6-.1.89-.14.06 0 .12-.01.18-.02l.76-.09.34-.03c.19-.02.37-.03.56-.04.12 0 .25-.01.37-.02.17 0 .34-.02.51-.02h1.38c.13 0 .26 0 .38.01.18 0 .35.02.52.03.12 0 .24.01.36.02.18.01.36.03.54.04.1 0 .21.02.31.03.23.02.45.05.66.07.07 0 .14.02.21.02.24.03.47.06.7.1.1.02.19.03.29.05.14.02.29.05.43.07l.32.06c.12.02.24.04.36.07l.3.06c.11.02.22.05.32.07s.19.04.28.06c.1.02.2.05.29.07s.17.04.25.06c.09.02.17.04.25.07l.23.06.21.06.2.06c.07.02.13.04.18.05.06.02.11.03.16.05.06.02.1.03.15.05.04.01.09.03.12.04.05.02.08.03.12.04.03 0 .05.02.08.03q.06.015.09.03c.01 0 .02 0 .03.01.03 0 .04.01.04.01s.28 1.35.36 3.47c.02.42.03.88.02 1.36ZM5.78 25.57c-.1-.08-.21-.16-.31-.24-.3-.26-.59-.55-.85-.85-.18-.21-.34-.42-.49-.64C2.88 25.5 1.61 27.3.3 29.28c-.53.81-.31 1.89.49 2.42.3.2.63.29.96.29.57 0 1.12-.28 1.46-.78 1.2-1.81 2.36-3.46 3.5-4.99-.09-.05-.19-.11-.28-.16-.23-.15-.44-.31-.65-.48Z"/>
</svg>
