<svg viewBox="0 0 24 24" xmlns="http://www.w3.org/2000/svg">
  <path d="M18.46 17.83c-.27.23-.55.44-.85.65-.1.07-.2.13-.3.2-.2.13-.41.27-.62.39-.13.07-.26.14-.38.2a12 12 0 0 1-1.04.5c-.2.09-.41.17-.62.25-.15.06-.3.11-.46.16-.21.07-.42.14-.64.2-.16.04-.31.09-.47.13-.22.05-.44.1-.65.14l-.47.09c-.23.04-.45.07-.68.09a9 9 0 0 1-1.18.08c-.11 0-.22.02-.33.02H9.7c-.11 0-.23 0-.34-.01-.22 0-.43-.02-.64-.04-.13-.01-.25-.03-.38-.05-.19-.02-.39-.05-.58-.09-.13-.02-.26-.05-.38-.08-.18-.04-.36-.09-.54-.14-.13-.04-.25-.08-.37-.12-.17-.06-.34-.13-.51-.2-.12-.05-.23-.1-.34-.15-.14-.07-.28-.15-.41-.22 5.7-7.7 10.3-10.82 12.7-12.03.3-.15.85-.43 1-1.14.09-.44-.02-.91-.3-1.26-.49-.61-1.36-.73-2-.3l-.05.02C13.95 6.44 9 9.77 3 17.78c-.37-.58-.65-1.21-.84-1.88-.17-.62-.27-1.27-.3-1.94s.01-1.36.11-2.05c.46-3.11 2.16-6.3 4.42-8.24.39-.34.8-.64 1.2-.92l.12-.09c.39-.26.78-.5 1.18-.72.06-.03.12-.07.18-.1.39-.21.78-.39 1.18-.56.07-.03.13-.05.2-.08.39-.16.79-.3 1.18-.42.06-.02.12-.04.18-.05.4-.12.81-.23 1.2-.31.04 0 .08-.02.12-.02.84-.18 1.67-.28 2.47-.34h.12c.38-.02.75-.03 1.12-.03h.88c.14 0 .27.01.4.02.09 0 .17 0 .26.01.14 0 .28.02.42.03.07 0 .14.01.21.02l.51.06c.05 0 .1.01.15.02.18.02.35.05.52.07l.21.03c.11.02.23.04.33.06.07.01.14.03.22.04.1.02.19.04.29.05.07.01.14.03.22.04.08.02.17.03.25.05.07.02.14.03.21.05s.14.03.21.05.13.03.19.05c.07.02.13.03.19.05s.11.03.17.04c.06.02.12.03.17.05.05.01.09.03.14.04.05.02.1.03.15.04.04.01.08.02.11.03.04.01.08.02.12.04.03 0 .06.02.09.03l.09.03c.02 0 .04.01.06.02.02 0 .03.01.05.02.04.01.07.03.07.03s2.14 10.41-5.25 16.73ZM4.83 19.6c-.17-.11-.33-.23-.49-.36-.08-.06-.16-.12-.23-.18-.23-.2-.44-.41-.64-.64-.17-.2-.33-.42-.47-.64-.89 1.2-1.81 2.49-2.75 3.9a1.5 1.5 0 1 0 2.5 1.66c.84-1.27 1.66-2.44 2.46-3.52-.02-.01-.05-.03-.07-.04-.1-.06-.21-.12-.3-.18Z"/>
</svg>
