<svg viewBox="0 0 32 32" xmlns="http://www.w3.org/2000/svg">
  <path d="M24.62 23.7c-2.98 2.54-7.44 4.1-11.58 4.1-2.65 0-5.16-.65-7.08-2.08-1.33 1.76-2.71 3.68-4.12 5.82a1 1 0 0 1-1.39.28 1 1 0 0 1-.28-1.39c1.48-2.24 2.93-4.25 4.33-6.1C.21 19.1 3.18 9.4 8.51 4.86 13 1.03 18.22-.01 22.57-.01v2c-5.06 0-9.35 1.48-12.76 4.39-2.34 2-4.21 5.18-4.99 8.51-.73 3.11-.37 5.9.95 7.81C13.18 13.37 19.22 9.34 22.5 7.68c.05-.03.1-.05.13-.07a.993.993 0 0 1 1.38.16c.19.23.27.55.21.84-.1.49-.45.66-.82.85-3.16 1.6-9 5.51-16.23 14.68 1.46 1.08 3.48 1.67 5.86 1.67 3.67 0 7.7-1.42 10.28-3.62 7.26-6.19 6.88-15.91 6.5-19.21-1.42-.39-4.1-.99-7.25-.99v-2c5.15 0 9.06 1.45 9.06 1.45s2.86 13.86-7 22.26M22.57-.01"/>
</svg>
