<svg viewBox="0 0 40 40" xmlns="http://www.w3.org/2000/svg">
  <path d="m40 13.64-6.68-5.33V2.7h-7.03l-1.44-1.15c-2.6-2.1-6.68-2.1-9.27-.01l-1.5 1.16H6.93v5.55L0 13.65v26.32h39.99V13.65ZM22.4 2.7h-4.39c1.36-.59 3.03-.59 4.39 0M9.19 4.95h21.88v15.54l-7.87 6.59c-1.67 1.4-4.48 1.39-6.15 0l-7.87-6.59V4.95ZM6.94 11.1v7.53l-4.67-3.91zm-4.68 6.54 10.5 8.79-10.5 9.39V17.65Zm1.23 20.09 11-9.84 1.12.94c1.27 1.06 2.89 1.59 4.52 1.59s3.26-.53 4.53-1.6l1.11-.94 11.01 9.85zm34.26-2.14L27.5 26.42l10.25-8.71zm0-20.84-4.43 3.76v-7.32l4.43 3.53zM23.26 20.6l-.69-1.88c-.97.43-1.77.64-2.6.64-2.71 0-4.41-1.65-4.41-4.41s1.91-4.73 4.73-4.73c2.44 0 4.37 1.1 4.37 3.9 0 1.47-.37 2.09-1.17 2.09-.43 0-.62-.2-.62-.73 0-.25.04-.57.12-.99l.53-2.67h-2l-.19.76c-.23-.71-.94-1.01-1.75-1.01-1.31 0-2.98 1.42-2.98 3.72 0 1.82 1.06 2.69 2.41 2.69.94 0 1.54-.37 1.97-1.04.41.8 1.22 1.36 2.46 1.36 1.91 0 3.58-1.42 3.58-4.34 0-3.98-3.42-5.83-6.54-5.83-4.2 0-7.28 2.78-7.28 6.84 0 3.72 2.46 6.43 6.34 6.43 1.28 0 2.64-.28 3.72-.8m-3.52-4.66c-.48 0-.76-.3-.76-.85 0-.87.42-1.52 1.08-1.52.5 0 .76.3.76.85 0 .85-.44 1.52-1.08 1.52"/>
</svg>
