<svg viewBox="0 0 32 32" xmlns="http://www.w3.org/2000/svg">
  <path d="M0 5.85V0h5.86c.55 0 1 .45 1 1s-.45 1-1 1H3.42l4.11 4.11-1.41 1.41L2 3.41v2.44c0 .55-.45 1-1 1s-1-.44-1-1m6.1 18.62L2 28.58v-2.44c0-.55-.45-1-1-1s-1 .44-1 1V32h5.85c.55 0 1-.45 1-1s-.45-1-1-1H3.41l4.1-4.11-1.41-1.41Zm24.9.67c-.55 0-1 .45-1 1v2.44l-4.1-4.1-1.41 1.41 4.1 4.1h-2.44c-.55 0-1 .45-1 1s.45 1 1 1H32v-5.85c0-.55-.45-1-1-1M25.87 7.56l4.11-4.11v2.44c0 .55.45 1 1 1s1-.45 1-1V.04h-5.86c-.55 0-1 .45-1 1s.45 1 1 1h2.44l-4.1 4.11zm-.48 2.88-5.57 5.44 5.57 5.24zm-9.25 5.82c.3 0 .58-.13.8-.36l6.97-6.81H8.31l6.99 6.77c.25.27.54.4.84.4m2.24 1.03c-.57.61-1.37.96-2.23.96-.85 0-1.64-.35-2.24-.97l-5.53 5.3h15.64l-5.63-5.3h-.01ZM6.9 10.5v10.73l5.57-5.34z"/>
</svg>
