<svg viewBox="0 0 16 16" xmlns="http://www.w3.org/2000/svg">
  <path d="M-.03 3.12V.02h3.1c.41 0 .75.34.75.75s-.34.75-.75.75h-.54l1.54 1.54-1.06 1.06-1.54-1.54v.54c0 .41-.34.75-.75.75s-.75-.34-.75-.75m3.04 8.8-1.54 1.54v-.54c0-.41-.34-.75-.75-.75s-.75.33-.75.74v3.1h3.1c.41 0 .75-.34.75-.75s-.34-.75-.75-.75h-.54l1.54-1.54-1.06-1.06Zm12.21.24c-.41 0-.75.34-.75.75v.54l-1.54-1.54-1.06 1.06 1.54 1.54h-.54c-.41 0-.75.34-.75.75s.34.75.75.75h3.1v-3.1c0-.41-.34-.75-.75-.75m-2.29-8.05 1.54-1.54v.54c0 .41.34.75.75.75s.75-.34.75-.75V.01h-3.1c-.41 0-.75.34-.75.75s.34.75.75.75h.54l-1.54 1.54zm-4.7 3.67 3.5-3.38H4.39l3.42 3.36c.19.2.27.18.41.02ZM3.29 5.41v5.03l2.59-2.49zm9.48 4.99V5.47l-2.58 2.49 2.58 2.45ZM8.03 9.37c-.39 0-.76-.14-1.07-.38l-2.57 2.47h7.32L9.1 8.99c-.3.24-.67.38-1.08.38Z"/>
</svg>
