<svg viewBox="0 0 40 40" xmlns="http://www.w3.org/2000/svg">
  <path d="m30.22 28.13-.8-.79c-.05-.05-.24-.24-.53-.54v8.65l-7.79-7.79 4.43-4.75c-.45-.57-.92-1.18-1.38-1.82l-6.63 7.11c-.53.56-1.22.88-1.95.88s-1.43-.31-1.95-.88L4.18 18.08h18c-.44-.74-.85-1.49-1.21-2.25H0v24.18h31.15v-12.8l-.13.13zM2.25 19.3l7.79 8.35-7.79 7.79zm.87 18.45 8.46-8.46.4.43c.96 1.03 2.23 1.59 3.6 1.59 1.36 0 2.64-.56 3.6-1.59l.4-.43 8.46 8.46zM40 9.78C40 4.38 35.62 0 30.22 0s-9.78 4.38-9.78 9.78c0 6.99 9.78 16.76 9.78 16.76S40 16.77 40 9.78m-9.78-7.53c4.15 0 7.53 3.38 7.53 7.53s-4.53 10.1-7.53 13.47c-2.99-3.37-7.53-9.36-7.53-13.47s3.38-7.53 7.53-7.53m3.93 7.81a3.93 3.93 0 1 0-7.861.001 3.93 3.93 0 0 0 7.861-.001m-5.61 0c0-.93.75-1.68 1.68-1.68s1.68.75 1.68 1.68-.75 1.68-1.68 1.68-1.68-.75-1.68-1.68"/>
</svg>
