<svg viewBox="0 0 64 64" xmlns="http://www.w3.org/2000/svg">
  <path d="m64 21.68-10.84-8.56V4.37H42.07l-2.49-1.96c-4-3.23-10.5-3.23-14.47-.02l-2.58 1.99H11.26v8.66L0 21.68h.01l-.01.01v42.29h63.99V21.7ZM37.62 4.37H27.05c2.98-2.22 7.58-2.22 10.57 0M14.01 7.12h36.4v25.41L37.48 43.84c-2.91 2.44-7.64 2.44-10.54.01L14 32.75V7.12ZM2.75 23.04l8.51-6.54v13.88l-8.51-7.33Zm0 3.63L11.26 34l.37.32 9.35 8.05L2.75 58.69zm1.28 34.56 19.05-17.05 2.09 1.8c1.94 1.62 4.48 2.44 7.03 2.44s5.12-.82 7.08-2.46l2.04-1.79 19.07 17.07H4.03Zm57.22-2.92L43.41 42.34l9.23-8.11.53-.46 8.08-7.09zm0-35.29-8.08 7.09V16.63l8.08 6.38Zm-24.04 9.94-1.1-3.01c-1.56.68-2.83 1.02-4.16 1.02-4.34 0-7.06-2.64-7.06-7.06s3.06-7.57 7.57-7.57c3.91 0 7 1.76 7 6.24 0 2.35-.6 3.34-1.87 3.34-.68 0-.99-.31-.99-1.16 0-.4.06-.91.2-1.59l.85-4.28h-3.2l-.31 1.22c-.37-1.13-1.5-1.62-2.81-1.62-2.1 0-4.76 2.27-4.76 5.95 0 2.92 1.7 4.31 3.85 4.31 1.5 0 2.47-.6 3.15-1.67.65 1.28 1.95 2.18 3.94 2.18 3.06 0 5.72-2.27 5.72-6.95 0-6.38-5.47-9.33-10.46-9.33-6.72 0-11.64 4.45-11.64 10.94 0 5.95 3.94 10.29 10.14 10.29 2.04 0 4.22-.45 5.95-1.28Zm-5.64-7.46c-.76 0-1.22-.48-1.22-1.36 0-1.39.68-2.44 1.73-2.44.79 0 1.22.48 1.22 1.36 0 1.36-.71 2.44-1.73 2.44"/>
</svg>
