<svg viewBox="0 0 40 40" xmlns="http://www.w3.org/2000/svg">
  <path d="M-.04 7.24V0h7.23c.62 0 1.12.5 1.12 1.12s-.5 1.12-1.12 1.12H3.8l5.39 5.39L7.6 9.22 2.21 3.85v3.39c0 .62-.5 1.12-1.12 1.12s-1.13-.5-1.13-1.12m7.63 23.53L2.2 36.16v-3.39c0-.62-.5-1.12-1.12-1.12s-1.12.5-1.12 1.12V40h7.23c.62 0 1.12-.5 1.12-1.12s-.5-1.12-1.12-1.12H3.8l5.39-5.39-1.59-1.59Zm31.23.86c-.62 0-1.12.5-1.12 1.12v3.39l-5.39-5.39-1.59 1.59 5.4 5.4h-3.39c-.62 0-1.12.5-1.12 1.12s.5 1.12 1.12 1.12h7.23v-7.24c0-.62-.5-1.12-1.12-1.12ZM32.28 9.3l5.39-5.39V7.3c0 .62.5 1.12 1.12 1.12s1.12-.5 1.12-1.12V.06h-7.23c-.62 0-1.12.5-1.12 1.12s.5 1.12 1.12 1.12h3.39l-5.39 5.39 1.59 1.59ZM8.63 11.45h23.01v16.72H8.63zm8.71 10.02-4.45 4.45h14.49l-4.45-4.45-.04.04c-.73.78-1.71 1.21-2.75 1.21s-2.02-.43-2.75-1.21l-.04-.04Zm12.05 3.27V14.53l-4.92 5.28 4.92 4.92ZM27.1 13.7H13.18l5.85 6.27c.3.32.69.5 1.11.5.41 0 .81-.18 1.11-.5zm-16.22.84v10.2l4.92-4.92z"/>
</svg>
