<svg viewBox="0 0 16 16" xmlns="http://www.w3.org/2000/svg">
  <path d="M10.56 5.53c.4.4.4 1.04 0 1.43l-.09.09a1.015 1.015 0 0 1-1.44 0l-.09-.09c-.4-.4-.4-1.04 0-1.43l.09-.09a1.015 1.015 0 0 1 1.44 0zm3.76-3.86C13.37.72 12.14.15 10.78 0c-.55-.05-1.04.34-1.1.89s.35 1.04.9 1.1c.9.09 1.71.47 2.33 1.09.63.63 1.01 1.44 1.09 2.35a1 1 0 0 0 1 .91h.1a1 1 0 0 0 .9-1.09 5.77 5.77 0 0 0-1.67-3.58Zm-4.19.76c-.55-.05-1.04.35-1.1.89-.06.55.35 1.04.9 1.1.43.04.81.22 1.1.51s.48.68.52 1.11a1 1 0 0 0 1 .91h.09a1 1 0 0 0 .9-1.09c-.09-.9-.46-1.71-1.09-2.34s-1.42-1-2.32-1.09M0 9.08v5.84l2.82-2.9zm5.72 2.89L9.52 8H1.03l3.8 3.96c.26.27.65.27.89 0Zm-.44 1.7c-.53 0-1.03-.21-1.42-.57L1.04 16h8.47l-2.82-2.9c-.39.36-.88.57-1.42.57Zm5.28 1.25V9.08l-2.82 2.94z"/>
</svg>
