<svg viewBox="0 0 40 40" xmlns="http://www.w3.org/2000/svg">
  <path d="m36.72 38.32-8.4-8.78a5 5 0 0 0-3.92-1.88h-3.29V13.44h3.29c1.55 0 2.99-.7 3.93-1.89l8.39-9.87zm-33.44 0 8.4-8.77a5 5 0 0 1 3.92-1.88h3.29V13.45H15.6c-1.55 0-2.99-.7-3.95-1.92L3.28 1.67v36.64Zm23.31-28.18 8.66-10.2H4.75l8.63 10.17c.56.71 1.35 1.1 2.21 1.1h8.82c.86 0 1.65-.39 2.18-1.06Zm8.57 29.8-8.56-8.96a2.78 2.78 0 0 0-2.18-1.06H15.6c-.86 0-1.65.39-2.18 1.06l-.07.08-8.49 8.88h30.32ZM36.72-.05v-.02h-.02zM3.3-.06h-.03v.02z"/>
</svg>
