<svg viewBox="0 0 24 24" xmlns="http://www.w3.org/2000/svg">
  <path d="m24 8.25-4-3.23V1.61h-4.22l-.8-.65c-1.61-1.3-4.12-1.3-5.73 0l-.83.65H4.03v3.47L0 8.26v15.73h24V8.26Zm-1.87.74L20 10.78V7.27zM5.79 3.36h12.46v8.85l-4.56 3.82c-.91.76-2.44.76-3.35 0l-4.56-3.82V3.36ZM4.04 7.3v3.39L1.95 8.94l2.09-1.65Zm-2.29 3.76 2.29 1.92v.04l3.34 2.79-5.62 5.03v-9.78Zm1.07 11.18 5.91-5.29.49.41c.78.66 1.79.99 2.8.99h.04c1.01 0 2.01-.33 2.8-.99l.52-.43 5.93 5.31zm19.43-1.52-5.51-4.93 5.51-4.61v9.55Zm-8.33-8.37-.41-1.11c-.58.25-1.05.38-1.54.38-1.61 0-2.61-.98-2.61-2.62s1.13-2.8 2.8-2.8c1.45 0 2.59.65 2.59 2.31 0 .87-.22 1.24-.69 1.24-.25 0-.37-.12-.37-.43 0-.15.02-.34.07-.59l.31-1.59h-1.19l-.12.45c-.14-.42-.56-.6-1.04-.6-.78 0-1.76.84-1.76 2.2 0 1.08.63 1.6 1.43 1.6.56 0 .91-.22 1.16-.62.24.47.72.81 1.46.81 1.13 0 2.12-.84 2.12-2.57 0-2.36-2.03-3.46-3.87-3.46C9.77 4.95 7.95 6.6 7.95 9c0 2.2 1.46 3.81 3.76 3.81.76 0 1.56-.17 2.2-.47Zm-2.09-2.76c-.28 0-.45-.18-.45-.5 0-.51.25-.9.64-.9.29 0 .45.18.45.5 0 .5-.26.9-.64.9"/>
</svg>
