<svg viewBox="0 0 40 40" xmlns="http://www.w3.org/2000/svg">
  <path d="M17.31 12.79H7.6v6.2h9.72v-6.2Zm-2.25 3.96H9.84v-1.7h5.22zm14.92 3.13.3-.32V0H10.49L-.02 9.48h-.02v19.77h12.66v10.74h27.34V19.87h-9.98Zm6.43 2.25-8.16 7.99c-.98.96-2.58.96-3.56 0l-8.17-7.99zm-21.53 1.55 6.17 6.03-6.17 6.38zm7.78 7.6.45.44c.93.91 2.14 1.36 3.36 1.36s2.43-.45 3.36-1.36l.18-.17 6.14 6.2H16.42l6.25-6.46Zm8.95-1.31L37.72 24v12.14l-6.11-6.16ZM20.93 19.88v-8.8l7.09-7.16v14.76l-1.09 1.2zM11.35 2.24h15.16l-7.18 7.24h-16zM2.22 27.01V11.74h16.47v8.14h-6.05v7.13z"/>
</svg>
