<svg viewBox="0 0 32 32" xmlns="http://www.w3.org/2000/svg">
  <path d="M10.96 22.47 1.4 12.66h15.27c.73 1.52 1.67 3.01 2.63 4.34l-5.35 5.49c-.8.86-2.16.88-2.99-.02M0 14.09v16.45l7.88-8.37zm15.4 9.78c-.77.82-1.82 1.29-2.94 1.29s-2.17-.46-2.95-1.3l-.23-.24-7.9 8.39h22.17l-7.9-8.39-.25.26Zm8.78-1.23-.71-.71c-.13-.13-1.43-1.44-2.94-3.34l-3.48 3.58 7.88 8.37V21.9l-.03.03-.71.71Zm0-15.9c-.72 0-1.31.59-1.31 1.31s.59 1.31 1.31 1.31 1.31-.59 1.31-1.31-.59-1.31-1.31-1.31m0 14.49s-7.82-7.82-7.82-13.41c0-4.32 3.5-7.82 7.82-7.82S32 3.5 32 7.82c0 5.59-7.82 13.41-7.82 13.41m0-9.87c1.83 0 3.31-1.49 3.31-3.31S26 4.74 24.18 4.74s-3.31 1.49-3.31 3.31 1.49 3.31 3.31 3.31"/>
</svg>
