<svg viewBox="0 0 64 64" xmlns="http://www.w3.org/2000/svg">
  <path d="M55.69 16.57c4.57 0 8.29-3.72 8.29-8.29S60.26 0 55.69 0 47.4 3.72 47.4 8.29s3.72 8.29 8.29 8.29Zm0-13.82a5.54 5.54 0 1 1-5.54 5.54 5.54 5.54 0 0 1 5.54-5.54m-3.52 19.03c-5.2 0-9.44 4.23-9.44 9.44V41.7h6.12v22.31h15.14V21.78H52.16Zm9.08 39.47h-9.64V38.94h-6.12v-7.73c0-3.69 3-6.69 6.69-6.69h9.08v36.72ZM30.56 43.93l9.76 9.76-9.76 9.76c-.27.27-.62.4-.97.4s-.7-.13-.97-.4c-.54-.54-.54-1.41 0-1.95l6.44-6.44H8.01v-2.75h27.04l-6.44-6.44c-.54-.54-.54-1.41 0-1.95s1.41-.54 1.95 0ZM38.16 0H0v29.31h38.16zM22.29 14.44c-.85.88-1.99 1.37-3.21 1.37s-2.36-.49-3.21-1.37L4.61 2.75h28.94zm-11.05-.84-8.49 9.91V4.79l8.49 8.82Zm1.91 1.99.73.76c1.37 1.42 3.22 2.21 5.19 2.21s3.82-.79 5.19-2.21l.73-.76 9.4 10.97H3.76zm13.77-1.99 8.49-8.82v18.73z"/>
</svg>
