<svg viewBox="0 0 16 16" xmlns="http://www.w3.org/2000/svg">
  <path d="m1.09 16.01 4.78-4.51.2.17c.54.45 1.24.68 1.94.68s1.4-.23 1.96-.69l.18-.16.04-.03L14.92 16H1.09Zm14.92-9.49-4.68 3.97 4.68 4.48zM4.12 2.57h7.78v5.42l-2.73 2.37-.15.13c-.53.45-1.43.45-1.96 0L4.12 8.02zm1.19 3.69c0 1.47.97 2.54 2.51 2.54.5 0 1.04-.11 1.47-.31l-.27-.74c-.38.17-.7.25-1.03.25-1.07 0-1.74-.65-1.74-1.74s.76-1.87 1.87-1.87c.97 0 1.73.43 1.73 1.54 0 .58-.15.83-.46.83-.17 0-.24-.08-.24-.29 0-.1.01-.22.05-.39l.21-1.06h-.79l-.08.3c-.09-.28-.37-.4-.69-.4-.52 0-1.18.56-1.18 1.47 0 .72.42 1.06.95 1.06.37 0 .61-.15.78-.41.16.32.48.54.97.54.76 0 1.41-.56 1.41-1.72 0-1.58-1.35-2.3-2.58-2.3-1.66 0-2.88 1.1-2.88 2.7Zm2.71-.55c-.26 0-.43.26-.43.6 0 .22.11.34.3.34.25 0 .43-.27.43-.6 0-.22-.11-.34-.3-.34m-3.3 4.81L2.91 8.97.01 6.54v8.43zm-2.1-3.75v-5.7H13.4v5.7l2.02-1.72-.77-.62V0H1.37v4.48l-.75.61z"/>
</svg>
