<svg viewBox="0 0 24 24" xmlns="http://www.w3.org/2000/svg">
  <path fill="#1e1e1c" d="M10.37 9.81 1.18.02H22.8l-9.2 9.8c-.87.93-2.35.93-3.22 0Zm6-.4c.37-.05.74-.09 1.13-.09 2.64 0 4.98 1.25 6.48 3.19V1.3zm7.6 8.14c0 3.57-2.9 6.47-6.47 6.47s-6.47-2.9-6.47-6.47 2.9-6.47 6.47-6.47 6.47 2.9 6.47 6.47m-3.44-2.92a.87.87 0 0 0-1.21.24l-2.51 3.78-1.6-1.13a.88.88 0 0 0-1.22.21c-.28.4-.18.94.21 1.22l3.07 2.16 3.51-5.27a.87.87 0 0 0-.24-1.21Zm-9.27-2.42a3.87 3.87 0 0 1-2.16-1.2l-.34-.36-7.52 7.98h8.12c-.05-.36-.08-.72-.08-1.09 0-2.04.75-3.9 1.98-5.33M-.02 1.3v16.11l7.57-8.04z"/>
</svg>
