<svg viewBox="0 0 64 64" xmlns="http://www.w3.org/2000/svg">
  <path d="M-.05 11.31V.02h11.29a1.38 1.38 0 0 1 0 2.76H4.65l9.52 9.53-1.94 1.95L2.7 4.71v6.6c0 .76-.62 1.38-1.37 1.38s-1.38-.62-1.38-1.38M12.24 49.8l-9.52 9.53v-6.6c0-.76-.62-1.38-1.37-1.38s-1.37.62-1.37 1.38v11.29h11.29a1.38 1.38 0 0 0 0-2.76h-6.6l9.52-9.53-1.94-1.95Zm50.33 1.55c-.76 0-1.37.62-1.37 1.38v6.6l-9.52-9.53-1.94 1.95 9.52 9.53h-6.6a1.38 1.38 0 0 0 0 2.76h11.29V52.75c0-.76-.62-1.38-1.37-1.38ZM52.66.02a1.38 1.38 0 0 0 0 2.76h6.59l-9.52 9.53 1.94 1.95 9.52-9.53v6.6c0 .76.62 1.38 1.37 1.38s1.37-.62 1.37-1.38V.02H52.64ZM36.33 34.16a5.57 5.57 0 0 1-4.09 1.78c-1.57 0-3.04-.65-4.14-1.83l-.43-.42-11.63 11.09h32.42L36.81 33.7l-.48.47Zm-4.09-.97c.8 0 1.55-.34 2.13-.96l14.1-13.69H16.04l14.03 13.65c.62.66 1.38 1 2.17 1M14.02 20.42v22.49L25.7 31.78zm36.44 22.46V20.44L38.79 31.77l11.67 11.1Z"/>
</svg>
