<svg viewBox="0 0 32 32" xmlns="http://www.w3.org/2000/svg">
  <path d="m24.18 22.64-.71-.71-.55-.57V28l-5.89-5.89 3.4-3.64c-.4-.51-.81-1.04-1.23-1.62l-5.25 5.63c-.8.86-2.17.86-2.98 0l-7.3-7.83h14.08c-.39-.65-.76-1.32-1.08-2H0v19.34h24.92v-10.1l-.03.03-.71.71ZM2 15.8l5.89 6.32L2 28.01zM2.83 30l6.42-6.42.25.27a3.994 3.994 0 0 0 5.9 0l.25-.27L22.07 30zM32 7.82C32 3.5 28.5 0 24.18 0s-7.82 3.5-7.82 7.82c0 5.59 7.82 13.41 7.82 13.41S32 13.41 32 7.82M24.18 2C27.39 2 30 4.61 30 7.82s-3.45 7.77-5.82 10.47c-2.37-2.7-5.82-7.31-5.82-10.47S20.97 2 24.18 2m3.31 6.05c0-1.83-1.49-3.31-3.31-3.31s-3.31 1.49-3.31 3.31 1.49 3.31 3.31 3.31 3.31-1.49 3.31-3.31m-3.31 1.31c-.72 0-1.31-.59-1.31-1.31s.59-1.31 1.31-1.31 1.31.59 1.31 1.31-.59 1.31-1.31 1.31"/>
</svg>
