<svg viewBox="0 0 24 24" xmlns="http://www.w3.org/2000/svg">
  <path d="M15.63 8.54c.62.62.62 1.62 0 2.24l-.14.14c-.31.31-.72.46-1.12.46s-.81-.15-1.12-.46l-.14-.14c-.62-.62-.62-1.62 0-2.24l.14-.14c.31-.31.72-.46 1.12-.46s.81.15 1.12.46zm5.8-5.97C19.97 1.11 18.1.23 16.01.02c-.83-.09-1.56.52-1.64 1.34s.52 1.56 1.34 1.65c1.4.14 2.64.73 3.61 1.69s1.56 2.23 1.69 3.65c.07.78.73 1.36 1.49 1.36h.14c.83-.08 1.43-.81 1.35-1.64a8.87 8.87 0 0 0-2.56-5.49Zm-6.48 1.25c-.82-.09-1.56.52-1.64 1.34s.52 1.56 1.34 1.65c.67.07 1.26.35 1.72.8.46.46.74 1.06.81 1.74.07.78.73 1.36 1.49 1.36h.14c.83-.08 1.43-.81 1.35-1.64a5.77 5.77 0 0 0-1.67-3.58 5.8 5.8 0 0 0-3.54-1.67m-4.92 15.51a2.88 2.88 0 0 1-4.25-.01h-.01l-4.56 4.69h13.4l-4.56-4.71-.02.02Zm-1.27-1.2L14.62 12H1.21l5.86 6.12c.47.51 1.24.5 1.7 0ZM0 13.27v9.49l4.57-4.72zm15.84 9.48v-9.49l-4.57 4.77 4.57 4.71Z"/>
</svg>
