<svg viewBox="0 0 48 48" xmlns="http://www.w3.org/2000/svg">
  <path fill="#1e1e1c" d="M47.99 0h-48v36.99h18.95C20.6 43.31 26.34 48 33.17 48s12.58-4.69 14.23-11.01h.59zM15.66 18.56 2.49 31.74V4.43zM4.11 2.51h39.75L28.04 19.48c-1.32.49-2.55 1.17-3.66 2-.13.01-.26.04-.39.04-1.39 0-2.7-.59-3.69-1.65zm41.38 1.92v20.79c-2.63-4.02-7.17-6.68-12.32-6.68-.3 0-.58.03-.87.04zM3.27 34.5l14.1-14.11 1.11 1.19a7.57 7.57 0 0 0 3.5 2.15c-2.19 2.57-3.53 5.9-3.53 9.54 0 .41.03.82.06 1.22H3.27Zm29.9 11.01c-6.74 0-12.23-5.49-12.23-12.23s5.49-12.23 12.23-12.23S45.4 26.54 45.4 33.28s-5.49 12.23-12.23 12.23m5.37-17.29c.57.38.73 1.16.35 1.73l-6.23 9.38-5.34-3.76c-.57-.4-.7-1.18-.3-1.74.4-.57 1.18-.7 1.74-.3L32 35.81l4.81-7.24c.38-.58 1.16-.73 1.73-.35"/>
</svg>
