<svg viewBox="0 0 32 32" xmlns="http://www.w3.org/2000/svg">
  <path d="M13.96 10.17H6.02v5.14h7.94zm-2 3.14H8.03v-1.14h3.93zm12.2 2.49.1-.11V0H8.39L-.02 7.54h-.01v15.93h10.06V32h21.94V15.8h-7.8Zm4.61 2-6.3 6.16c-.74.72-1.94.72-2.69 0l-6.3-6.16zm-16.74 1.37 4.65 4.54-4.65 4.8v-9.35Zm6.08 5.95.28.27c.76.74 1.75 1.11 2.74 1.11s1.99-.37 2.74-1.11l.07-.06L28.57 30H13.39zm7.26-1.2 4.6-4.49v9.13zm-8.53-8.12V8.95l5.42-5.47v11.43l-.81.89zM9.16 2h11.76l-5.49 5.54H2.98zM1.97 21.46V9.53h12.87v6.26h-4.81v5.67z"/>
</svg>
