<svg viewBox="0 0 16 16" xmlns="http://www.w3.org/2000/svg">
  <path d="M11.56 11.14c-.08-.08-.31-.31-.6-.63v2.64l-2.1-2.1 1.33-1.43c-.3-.36-.61-.77-.92-1.21l-2.48 2.66c-.3.33-.82.33-1.12 0L2.64 7.83h6.24c-.31-.48-.6-.99-.83-1.5H0V16h12.46v-4.7l-.37.37zM1.5 8.8l2.1 2.25-2.1 2.1zm.77 5.7 2.36-2.36c.43.44 1 .68 1.6.68s1.17-.25 1.6-.68l2.36 2.36zM16 3.91a3.91 3.91 0 1 0-7.82 0c0 2.79 3.91 6.7 3.91 6.7S16 6.7 16 3.91M12.09 1.5c1.33 0 2.41 1.08 2.41 2.41 0 1.15-1.2 3.01-2.41 4.47-1.21-1.46-2.41-3.32-2.41-4.47 0-1.33 1.08-2.41 2.41-2.41m1.31 2.53c0-.72-.59-1.31-1.31-1.31s-1.32.59-1.32 1.31.59 1.31 1.32 1.31 1.31-.59 1.31-1.31"/>
</svg>
