<svg viewBox="0 0 40 40" xmlns="http://www.w3.org/2000/svg">
  <path d="M.03 7.19V-.05h7.23c.62 0 1.12.5 1.12 1.12s-.5 1.12-1.12 1.12H3.87l5.39 5.39-1.59 1.59L2.28 3.8v3.39c0 .62-.5 1.12-1.12 1.12S.03 7.81.03 7.19m7.64 23.53-5.39 5.39v-3.39c0-.62-.5-1.12-1.12-1.12s-1.13.5-1.13 1.12v7.23h7.23c.62 0 1.12-.5 1.12-1.12s-.5-1.12-1.12-1.12H3.87l5.39-5.39-1.59-1.59Zm31.23.86c-.62 0-1.12.5-1.12 1.12v3.39l-5.39-5.39-1.59 1.59 5.4 5.4h-3.39c-.62 0-1.12.5-1.12 1.12s.5 1.12 1.12 1.12h7.23v-7.24c0-.62-.5-1.12-1.12-1.12ZM32.36 9.24l5.39-5.39v3.39c0 .62.5 1.12 1.12 1.12s1.12-.5 1.12-1.12V0h-7.23c-.62 0-1.12.5-1.12 1.12s.5 1.12 1.12 1.12h3.39l-5.39 5.39 1.59 1.59Zm-.64 17.32V12.89l-7.08 6.92 7.08 6.74ZM8.71 12.98v13.67l7.07-6.82zm11.5 7.44c.41 0 .81-.18 1.11-.5l8.71-8.52H10.31l8.76 8.48c.34.36.73.54 1.15.54Zm2.72 1.07c-.7.75-1.67 1.18-2.72 1.18-1.04 0-2.02-.43-2.75-1.21l-.06-.06-6.97 6.72h19.65l-7.05-6.72-.1.1Z"/>
</svg>
