<svg viewBox="0 0 48 48" xmlns="http://www.w3.org/2000/svg">
  <path d="M20.65 15.42H9.16v7.27h11.49zm-2.5 4.77h-6.49v-2.27h6.49zm29.82 5.91-.02-.02v-2.12H35.78l.49-.54V0h-23.7L-.03 11.43v23.62h15.27v12.94h32.71V26.12zm-30.23 2.08 7.69 7.52-7.69 7.95zm9.47 9.27.61.6c1.09 1.07 2.53 1.61 3.97 1.61s2.87-.54 3.97-1.61l.29-.28 7.65 7.73H19.43l7.78-8.04Zm6.8-1.18c-1.23 1.2-3.22 1.2-4.44 0l-10.02-9.81h24.48zm-9-12.31V13.2l8.76-8.84v18.09l-1.38 1.51zM13.54 2.5h18.55l-8.86 8.94H3.68zM2.47 32.56V13.94h20.04v10.02h-7.27v8.6zm42.98 11.15-7.61-7.69 7.61-7.45z"/>
</svg>
