<svg viewBox="0 0 48 48" xmlns="http://www.w3.org/2000/svg">
  <path d="m48 16.35-8.04-6.4V3.26h-8.4l-1.77-1.41c-3.1-2.5-7.96-2.51-11.04-.02l-1.84 1.42H8.37v6.61L0 16.35v31.62h47.99V16.36ZM27.39 3.26h-6.28c1.87-1.01 4.4-1.02 6.28 0m-16.52 2.5h26.58v18.72l-9.52 8.14c-2.08 1.74-5.47 1.74-7.54 0l-9.52-7.99zm-8.36 11.8 5.86-4.54v9.48zm0 3.27 5.86 4.94.38.32 6.69 5.64L2.51 43.3zm1.32 24.64 13.54-12.11 1.41 1.19c1.51 1.26 3.44 1.89 5.37 1.89s3.88-.63 5.39-1.9l1.39-1.19 13.55 12.12zm41.67-2.45L32.86 31.71l6.89-5.91.21-.18 5.55-4.76v22.15Zm0-25.45-5.55 4.76v-9.19l5.55 4.41zm-17.59 7.15-.83-2.25c-1.17.51-2.12.76-3.12.76-3.25 0-5.29-1.98-5.29-5.29s2.3-5.67 5.67-5.67c2.93 0 5.25 1.32 5.25 4.67 0 1.76-.45 2.51-1.4 2.51-.51 0-.74-.23-.74-.87 0-.3.04-.68.15-1.19l.64-3.21h-2.4l-.23.91c-.28-.85-1.13-1.21-2.1-1.21-1.57 0-3.57 1.7-3.57 4.46 0 2.19 1.28 3.23 2.89 3.23 1.13 0 1.85-.45 2.36-1.25.49.96 1.47 1.64 2.95 1.64 2.3 0 4.29-1.7 4.29-5.21 0-4.78-4.1-6.99-7.84-6.99-5.04 0-8.74 3.34-8.74 8.2 0 4.46 2.95 7.71 7.61 7.71 1.53 0 3.17-.34 4.46-.96Zm-4.23-5.59c-.57 0-.91-.36-.91-1.02 0-1.04.51-1.83 1.3-1.83.59 0 .91.36.91 1.02 0 1.02-.53 1.83-1.3 1.83"/>
</svg>
