<svg viewBox="0 0 64 64" xmlns="http://www.w3.org/2000/svg">
  <path d="M39.15 18.27h-14.3c-1.53 0-2.95-.69-3.92-1.93L7.25 0h49.63L43.05 16.37a4.9 4.9 0 0 1-3.89 1.9ZM5.33 61.99l13.5-14.12a7.65 7.65 0 0 1 6.01-2.89h5.78V21.03h-5.78c-2.38 0-4.59-1.07-6.06-2.95L5.33 2zM5.46 0h-.12v.1zm37.58 49.62a4.9 4.9 0 0 0-3.89-1.9h-14.3c-1.53 0-2.95.69-3.89 1.9l-.09.1L7.21 64h49.57L43.04 49.61Zm2.14-31.51a7.65 7.65 0 0 1-6.03 2.91h-5.78v23.95h5.78c2.36 0 4.54 1.05 6.01 2.89l13.5 14.13V2.14L45.17 18.11Z"/>
</svg>
