<svg viewBox="0 0 48 48" xmlns="http://www.w3.org/2000/svg">
  <path d="M-.05 8.65V0h8.66a1.25 1.25 0 0 1 0 2.5H4.22l6.74 6.73L9.19 11 2.45 4.26v4.39a1.25 1.25 0 0 1-2.5 0M9.19 37l-6.74 6.73v-4.39a1.25 1.25 0 0 0-2.5 0v8.65h8.66a1.25 1.25 0 0 0 0-2.5H4.22l6.74-6.73-1.77-1.77Zm37.51 1.08c-.69 0-1.25.56-1.25 1.25v4.39l-6.74-6.73-1.77 1.77 6.74 6.73h-4.39a1.25 1.25 0 0 0 0 2.5h8.66v-8.65c0-.69-.56-1.25-1.25-1.25ZM39.29.04a1.25 1.25 0 0 0 0 2.5h4.39l-6.74 6.73 1.77 1.77 6.74-6.73V8.7a1.25 1.25 0 0 0 2.5 0V.04zM10.33 33.76V13.73H38v20.03zm10.46-8.17-5.68 5.67h18.13l-5.68-5.67-.13.14c-.86.93-2.02 1.44-3.26 1.44s-2.39-.51-3.26-1.44l-.13-.14ZM35.51 30V17.07l-6.24 6.69zm-2.64-13.77h-17.4l7.28 7.79c.77.83 2.08.83 2.85 0l7.28-7.79Zm-20.04.84V30l6.24-6.24z"/>
</svg>
