<svg viewBox="0 0 32 32" xmlns="http://www.w3.org/2000/svg">
  <path fill="#1e1e1c" d="M31.97 1.5v15.36c-1.97-2.78-5.21-4.6-8.87-4.6-.44 0-.88.03-1.31.09zM14.23 23.14c0-4.9 3.98-8.88 8.88-8.88s8.88 3.99 8.88 8.88-3.98 8.88-8.88 8.88-8.88-3.99-8.88-8.88m4.54 1.76 3.98 2.8 4.62-6.94a1.001 1.001 0 1 0-1.67-1.11l-3.48 5.23-2.3-1.62a.994.994 0 0 0-1.39.24.994.994 0 0 0 .24 1.39Zm-8.51-12.45L-.01 1.49v21.85l10.28-10.89Zm1.97 10.69c0-2.7.99-5.17 2.63-7.07-.99-.23-1.91-.75-2.64-1.53l-.58-.62L1.4 24.76h10.97c-.08-.53-.13-1.07-.13-1.62Zm1.45-9.97c.62.67 1.44 1.03 2.3 1.03s1.68-.37 2.3-1.03L30.61.03H1.35l12.32 13.15Z"/>
</svg>
