<svg viewBox="0 0 48 48" xmlns="http://www.w3.org/2000/svg">
  <path d="M32.26 16.03a2.716 2.716 0 0 1 0 3.84l-.23.23c-.53.53-1.23.8-1.92.8s-1.39-.27-1.92-.8l-.23-.23a2.716 2.716 0 0 1 0-3.84l.23-.23c.53-.53 1.23-.8 1.92-.8s1.39.27 1.92.8zm10.5-10.8C39.79 2.25 35.97.45 31.7.02c-1.24-.12-2.34.77-2.47 2.01s.78 2.34 2.01 2.47c3.23.33 6.11 1.68 8.34 3.91s3.61 5.17 3.92 8.43a2.256 2.256 0 0 0 2.24 2.04h.22a2.25 2.25 0 0 0 2.03-2.45c-.41-4.32-2.21-8.19-5.22-11.19ZM30.62 6.98c-1.23-.12-2.34.78-2.47 2.01s.78 2.34 2.01 2.47c1.66.17 3.14.86 4.29 2.01 1.16 1.16 1.85 2.66 2.01 4.34a2.25 2.25 0 0 0 2.24 2.04h.22a2.25 2.25 0 0 0 2.03-2.45c-.26-2.74-1.4-5.19-3.31-7.09-1.89-1.89-4.31-3.03-7.02-3.3Zm1.05 38.98V25.81l-9.82 10.26zM19.71 38.3c-1.02 1.1-2.4 1.71-3.87 1.71s-2.85-.61-3.89-1.72l-.39-.41-9.82 10.13h28.45L20.12 37.87zm-1.82-1.71L29.94 24H1.72l12.04 12.57c1.13 1.21 3.02 1.2 4.12.01ZM0 25.81v20.41l9.83-10.14zm0 22.2"/>
</svg>
