<svg viewBox="0 0 48 48" xmlns="http://www.w3.org/2000/svg">
  <path d="m48.01 39.3-8.35 8.35c-.24.24-.56.37-.88.37s-.64-.12-.88-.37a1.25 1.25 0 0 1 0-1.77l5.33-5.33H19.7v-2.5h23.53l-5.33-5.33c-.49-.49-.49-1.28 0-1.77s1.28-.49 1.77 0l8.35 8.35ZM33.72 25.91H.01V0h33.71zm-4.19-23.4H4.2l9.86 10.24c.74.77 1.74 1.19 2.8 1.19s2.06-.42 2.8-1.19zM2.51 4.36v16.3l7.39-8.63zm.94 19.05h26.84l-8.2-9.57-.61.64c-1.22 1.26-2.85 1.96-4.61 1.96s-3.39-.7-4.61-1.96l-.61-.64zm27.77-2.75V4.36l-7.39 7.68 7.39 8.63Z"/>
</svg>
