<svg viewBox="0 0 24 24" xmlns="http://www.w3.org/2000/svg">
  <path d="M12.02 8.43c-.39 0-.64.39-.64.9 0 .33.17.5.45.5.38 0 .64-.4.64-.9 0-.33-.16-.5-.45-.5M24 22.8V9.42l-7.32 6.37zm-24 .01 7.44-7.01-.07-.06L0 9.41zm12.05-6.22c.6 0 1.2-.2 1.64-.57l4.56-4.07V3.36H5.79v8.65l2.74 2.42 1.88 1.61c.45.37 1.05.56 1.65.56ZM7.96 9.26c0-2.41 1.83-4.06 4.31-4.06 1.85 0 3.87 1.09 3.87 3.46 0 1.73-.99 2.57-2.12 2.57-.73 0-1.22-.34-1.46-.81-.25.4-.61.62-1.17.62-.8 0-1.43-.51-1.43-1.6 0-1.37.99-2.21 1.76-2.21.48 0 .9.18 1.04.6l.12-.45h1.19l-.31 1.59c-.05.25-.07.44-.07.59 0 .32.12.43.37.43.47 0 .69-.37.69-1.24 0-1.66-1.14-2.31-2.59-2.31-1.67 0-2.8 1.16-2.8 2.8s1.01 2.62 2.61 2.62c.49 0 .96-.13 1.54-.38l.41 1.11c-.64.3-1.45.47-2.2.47-2.3 0-3.76-1.61-3.76-3.81Zm7.39 7.69-.47.41c-.79.66-1.8.99-2.82.99H12c-1.01 0-2.01-.33-2.79-.98l-.46-.41-7.46 7.03h21.42l-7.36-7.05ZM4.04 10.57V1.6h15.97v8.97l3.31-2.88-1.69-1.36V0H2.41v6.36L.7 7.71l3.33 2.86ZM0 8.26"/>
</svg>
