<svg viewBox="0 0 40 40" xmlns="http://www.w3.org/2000/svg">
  <path d="m9.19 20.06 7.89 7.04c1.64 1.37 4.45 1.37 6.12-.02l7.87-6.99V4.94H9.19zM20.48 8.12c3.12 0 6.54 1.84 6.54 5.83 0 2.92-1.66 4.34-3.58 4.34-1.24 0-2.05-.57-2.46-1.36-.42.67-1.03 1.05-1.97 1.05-1.35 0-2.41-.87-2.41-2.69 0-2.3 1.67-3.72 2.98-3.72.81 0 1.52.3 1.75 1.01l.19-.76h2l-.53 2.68c-.09.43-.12.74-.12.99 0 .53.19.73.62.73.8 0 1.17-.62 1.17-2.09 0-2.8-1.93-3.9-4.37-3.9-2.82 0-4.73 1.95-4.73 4.73s1.7 4.41 4.41 4.41c.83 0 1.63-.21 2.6-.64l.69 1.88c-1.08.51-2.44.8-3.72.8-3.88 0-6.34-2.71-6.34-6.43 0-4.06 3.08-6.84 7.28-6.84Zm17.89 31.87H1.64l12.9-12.1 1.07.94c1.26 1.06 2.88 1.59 4.51 1.59s3.27-.54 4.56-1.61l1.03-.92zM40 38.43 27.39 26.39 40 15.15zM20.82 14.42c0 .85-.44 1.52-1.08 1.52-.48 0-.76-.3-.76-.85 0-.87.42-1.52 1.08-1.52.5 0 .76.3.76.85M0 38.44V15.15L12.84 26.4zm.9-25.5 3.29-2.56V0h31.88v10.49l3.04 2.43-5.79 5.16V2.69H6.94v15.54zm-.9.71.02-.02zm39.95-.05.05.04-.04-.04Zm.05.05"/>
</svg>
