<svg viewBox="0 0 48 48" xmlns="http://www.w3.org/2000/svg">
  <path d="M3.95 1.91 14 13.79a5.9 5.9 0 0 0 4.68 2.28h4.07v17.35h-4.07c-1.82 0-3.5.81-4.64 2.23L3.95 46.2zm28.08 10.33L42.4 0H5.61l10.33 12.21c.69.88 1.68 1.36 2.74 1.36h10.63c1.07 0 2.06-.48 2.71-1.32Zm0 24.99a3.43 3.43 0 0 0-2.71-1.32H18.69c-1.07 0-2.06.48-2.71 1.32l-.08.09L5.7 47.99h36.63L32.05 37.23ZM3.99 0h-.03v.03zm40.06.02V0h-.03zm0 1.9-10.08 11.9c-1.1 1.41-2.81 2.24-4.65 2.24h-4.07v17.35h4.07c1.82 0 3.5.81 4.64 2.23l10.09 10.55z"/>
</svg>
