<svg viewBox="0 0 64 64" xmlns="http://www.w3.org/2000/svg">
  <path fill="#1e1e1c" d="M26.8 26.65 1.85 0h60.26L37.57 26.22c-1.65.69-3.18 1.6-4.59 2.67-.33.05-.66.08-1 .08-1.95 0-3.8-.82-5.19-2.32Zm18.87-2.06c7.84 0 14.68 4.32 18.31 10.7V2.03L42.64 24.84c.99-.14 2-.24 3.03-.24Zm-15.56 6.93c-2.01-.39-3.86-1.41-5.33-2.99l-1.68-1.79L1.96 49.2h22.97c-.19-1.15-.32-2.32-.32-3.52 0-5.45 2.1-10.41 5.5-14.15ZM-.01 2.03v45.25l21.24-22.55zm64 43.64C63.99 55.78 55.77 64 45.68 64s-18.31-8.22-18.31-18.33 8.22-18.33 18.31-18.33 18.31 8.22 18.31 18.33m-10.72-7c-.63-.42-1.49-.25-1.91.38l-7.28 10.96-5.11-3.6a1.378 1.378 0 0 0-1.59 2.25l7.42 5.22 8.85-13.31c.42-.63.25-1.49-.38-1.91Z"/>
</svg>
