<svg viewBox="0 0 24 24" xmlns="http://www.w3.org/2000/svg">
  <path d="M17.51 16.54s-.26-.26-.57-.6v4.64l-3.99-3.99 2.37-2.54c-.35-.44-.71-.91-1.07-1.42l-3.87 4.15c-.28.3-.64.46-1.02.46s-.75-.16-1.03-.46l-5.16-5.54h10.16c-.35-.57-.68-1.16-.96-1.75H0V24h18.69v-7.4l-.56.56zM1.75 12.3l3.99 4.28-3.99 3.99v-8.28Zm.8 9.95 4.39-4.39.1.11a3.1 3.1 0 0 0 2.3 1.02c.87 0 1.69-.36 2.3-1.02l.1-.11 4.39 4.39zM24 5.87C24 2.63 21.37 0 18.13 0s-5.87 2.63-5.87 5.87c0 4.19 5.87 10.06 5.87 10.06S24 10.07 24 5.87m-5.87-4.12c2.27 0 4.12 1.85 4.12 4.12 0 2.05-2.19 5.25-4.12 7.48-1.93-2.23-4.12-5.43-4.12-7.48 0-2.27 1.85-4.12 4.12-4.12m0 6.05c-.97 0-1.76-.79-1.76-1.76s.79-1.76 1.76-1.76 1.76.79 1.76 1.76-.79 1.76-1.76 1.76"/>
</svg>
