<svg viewBox="0 0 32 32" xmlns="http://www.w3.org/2000/svg">
  <path fill="#1e1e1c" d="M31.98 0h-32v24.72h12.49C13.62 28.91 17.45 32 22 32s8.38-3.09 9.53-7.28h.45zM10.25 12.4l-8.27 8.26V3.55l8.26 8.86ZM3.28 2.01h25.4L18.54 12.87c-.84.31-1.62.74-2.33 1.25-.92.07-1.86-.25-2.53-.97zm26.7 1.54v12.76c-1.8-2.46-4.7-4.07-7.98-4.07h-.13zM2.75 22.73l8.87-8.86.6.65c.6.65 1.34 1.09 2.13 1.36a9.8 9.8 0 0 0-2.24 6.25c0 .2.02.41.03.61H2.75ZM22 30.01c-4.35 0-7.89-3.54-7.89-7.89s3.54-7.89 7.89-7.89 7.89 3.54 7.89 7.89-3.54 7.89-7.89 7.89m3.64-11.37c.46.31.59.93.28 1.39l-4.21 6.33-3.67-2.58a.996.996 0 0 1-.24-1.39c.32-.45.94-.56 1.39-.24l1.99 1.4 3.07-4.62c.31-.46.93-.59 1.39-.28Z"/>
</svg>
