<svg viewBox="0 0 40 40" xmlns="http://www.w3.org/2000/svg">
  <path d="M27.57 12.65c.81.81.81 2.13 0 2.95l-.18.18c-.41.41-.94.61-1.47.61s-1.07-.2-1.47-.61l-.18-.18c-.81-.81-.81-2.13 0-2.95l.18-.18c.41-.41.94-.61 1.47-.61s1.07.2 1.47.61zm8.31-8.54C33.54 1.76 30.52.35 27.16 0c-.63-.06-1.17.39-1.23 1.01s.39 1.17 1.01 1.23c2.84.29 5.39 1.48 7.36 3.45 1.99 1.99 3.19 4.57 3.46 7.44.05.58.54 1.02 1.12 1.02h.11c.62-.06 1.07-.61 1.01-1.23-.32-3.4-1.74-6.46-4.11-8.82Zm-9.61 1.67a1.13 1.13 0 0 0-1.23 1.01c-.06.62.39 1.17 1.01 1.23 1.55.16 2.93.81 4 1.88s1.73 2.48 1.88 4.05c.05.58.54 1.02 1.12 1.02h.11c.62-.06 1.07-.61 1.01-1.23-.2-2.09-1.07-3.97-2.53-5.43-1.44-1.44-3.3-2.31-5.37-2.52ZM0 20h26.39v20H0zm9.62 11.67-6.08 6.08h19.31l-6.08-6.08-.27.29c-.88.94-2.05 1.46-3.3 1.46s-2.42-.52-3.3-1.46l-.27-.29Zm14.52 4.19V23.7l-5.84 6.31zm-1.72-13.61H3.97l7.58 8.18c.44.48 1.03.74 1.65.74s1.21-.26 1.65-.74zM2.25 23.71v12.15l5.84-5.85-5.84-6.31Z"/>
</svg>
