<svg viewBox="0 0 16 16" xmlns="http://www.w3.org/2000/svg">
  <path d="M-.03 3.1V0h3.1c.41 0 .75.34.75.75s-.34.75-.75.75h-.54l1.54 1.54L3.01 4.1 1.47 2.56v.54a.749.749 0 1 1-1.5 0m3.04 8.8-1.54 1.54v-.54a.749.749 0 1 0-1.5 0V16h3.1c.41 0 .75-.34.75-.75s-.34-.75-.75-.75h-.54l1.54-1.54zm12.21.24c-.41 0-.75.34-.75.75v.54l-1.54-1.54-1.06 1.06 1.54 1.54h-.54c-.41 0-.75.34-.75.75s.34.75.75.75h3.1v-3.1c0-.41-.34-.75-.75-.75m-2.29-8.05 1.54-1.54v.54c0 .41.34.75.75.75s.75-.34.75-.75V0h-3.1c-.41 0-.75.34-.75.75s.34.75.75.75h.54l-1.54 1.54 1.06 1.06Zm-9.64.29h9.49v7.07H3.29zM6 9.95h4.05l-.96-.96c-.31.23-.67.37-1.06.37s-.76-.13-1.06-.37l-.96.96Zm5.28-.9V6.69l-1.14 1.22zm-1.3-3.17h-3.9l1.76 1.88c.14.15.25.15.39 0l1.76-1.88Zm-5.19.81v2.36l1.14-1.14z"/>
</svg>
