<svg viewBox="0 0 24 24" xmlns="http://www.w3.org/2000/svg">
  <path d="M17.23 3.36c0-1.87 1.52-3.38 3.38-3.38s3.38 1.52 3.38 3.38-1.52 3.38-3.38 3.38-3.38-1.52-3.38-3.38m2.11 4.51c-2.1 0-3.8 1.7-3.8 3.8v4.17h2.22v8.09h6.25V7.87zM8.96 14.95a1.49 1.49 0 0 0 0 2.12l.68.68H2.07v2.99h7.57l-.68.68a1.49 1.49 0 0 0 0 2.12c.29.29.68.44 1.06.44s.77-.15 1.06-.44l4.3-4.29-4.3-4.29c-.59-.58-1.53-.58-2.12 0ZM0 1.27v8.19l3.69-4.38zM6.92 5.4c.31 0 .59-.12.81-.34L12.59.01H1.22l4.89 5.04c.21.22.5.34.81.34ZM13.84.01h-.03l.03.03zm0 9.47V1.24l-3.7 3.83zM8.91 6.33c-.54.52-1.24.81-1.99.81s-1.45-.29-1.99-.82L1.15 10.8h11.52L8.91 6.32Z"/>
</svg>
