<svg viewBox="0 0 32 32" xmlns="http://www.w3.org/2000/svg">
  <path d="M27.6 8.75c2.42 0 4.38-1.96 4.38-4.36S30.02.03 27.6.03s-4.38 1.96-4.38 4.36 1.97 4.36 4.38 4.36m0-6.73c1.31 0 2.38 1.06 2.38 2.37s-1.07 2.37-2.38 2.37-2.38-1.06-2.38-2.37 1.07-2.37 2.38-2.37M15.51 21.64l5.07 5.05-5.07 5.05c-.2.19-.45.29-.71.29s-.51-.1-.71-.29a.996.996 0 0 1 0-1.41l2.66-2.65H4.09v-1.99h12.67l-2.66-2.65a.996.996 0 1 1 1.41-1.41Zm10.37-10.86c-2.73 0-4.95 2.21-4.95 4.92v5.43h3V32h8.06V10.78zM30 30.01h-4.06V19.14h-3V15.7c0-1.62 1.32-2.93 2.94-2.93h4.11v17.24ZM18.28.07H0v14.16h18.29V.07Zm-3.35 1.99L10.35 6.8c-.64.66-1.79.66-2.43 0L3.35 2.06h11.59ZM2 3.53l3.04 3.14L2 10.2zm.89 8.7 3.54-4.11.05.06c.7.73 1.64 1.12 2.65 1.12s1.95-.4 2.65-1.12l.05-.06 3.54 4.11zm13.39-2.02-3.04-3.53 3.04-3.14v6.68Z"/>
</svg>
