<svg viewBox="0 0 48 48" xmlns="http://www.w3.org/2000/svg">
  <path d="M48 45.53h-8.03a5.75 5.75 0 0 0-5.39-3.75h-.46L31.7 16.31V9.03h1.66c0-4.97-4.01-8.99-8.97-8.99h-.47c-4.95 0-8.97 4.02-8.97 8.98h1.34v7.28l-2.42 25.47h-.1c-2.47 0-4.58 1.56-5.39 3.75H0v2.5h10.51v-.52c0-1.78 1.46-3.23 3.25-3.23h20.82c1.79 0 3.25 1.45 3.25 3.23v.53h10.16v-2.51ZM29.45 18.97l.51 5.4H18.03l.51-5.4zm.75 7.9.22 2.37H17.56l.23-2.37zM23.92 2.54h.47c2.6 0 4.83 1.55 5.86 3.77h-12.2c1.03-2.22 3.26-3.77 5.86-3.77Zm-5.13 6.48H29.2v7.28H18.79zm-1.46 22.72h13.33l.95 10.03h-4.17v-7.22h-6.9v7.22h-4.17l.95-10.03Zm5.72 9.78v-4.45h1.9v4.45zM4.74 7.1c.32-.61 1.07-.86 1.68-.54l4.29 2.2c.61.32.86 1.07.54 1.69-.22.43-.66.68-1.11.68-.19 0-.39-.04-.57-.14l-4.29-2.2c-.61-.32-.86-1.07-.54-1.69m6.52 9.13c.39.57.25 1.35-.32 1.74l-3.72 2.56c-.22.15-.46.22-.71.22a1.251 1.251 0 0 1-.71-2.28l3.72-2.56c.57-.39 1.35-.25 1.74.32m25.44-5.78a1.26 1.26 0 0 1 .54-1.69l4.29-2.2c.61-.31 1.37-.07 1.68.54.32.61.07 1.37-.54 1.69l-4.29 2.2c-.18.09-.38.14-.57.14-.45 0-.89-.25-1.11-.68m.32 7.52a1.251 1.251 0 0 1 1.42-2.06l3.72 2.56a1.251 1.251 0 0 1-1.42 2.06zM23.91 9.58c-1.66 0-3 1.34-3 3s1.34 3 3 3 3-1.34 3-3-1.34-3-3-3m0 3.5c-.28 0-.5-.22-.5-.5s.22-.5.5-.5.5.22.5.5-.22.5-.5.5"/>
</svg>
