<svg viewBox="0 0 16 16" xmlns="http://www.w3.org/2000/svg">
  <path d="M16 14.5h-2.62a2.26 2.26 0 0 0-1.85-.98h-.19l-.76-8.06v-2.1h.55v-.28C11.12 1.38 9.75 0 8.05 0S4.98 1.37 4.98 3.07v.28h.45v2.1l-.76 8.06h-.08c-.77 0-1.45.39-1.85.98H0v1.5h4.43l7.14.01 4.43-.01v-1.5ZM8.05 1.51c.37 0 .72.13.99.35H7.07c.27-.22.61-.35.99-.35ZM6.93 5.45V3.39h2.14v2.06zm2.27 1.5.06.61H6.73l.06-.61zm.21 2.12.05.55H6.54l.05-.55H9.4ZM6.4 11.11h3.2l.23 2.4H8.76v-1.75h-1.5v1.75H6.18l.23-2.4Zm-3.31 4.88h.75v-.23c0-.41.34-.75.75-.75h6.94c.41 0 .75.34.75.75v.23zM1.29 2.23c.19-.37.64-.52 1.01-.32l1.43.74c.37.19.51.64.32 1.01-.13.26-.39.41-.67.41-.12 0-.23-.03-.34-.08l-1.43-.74a.746.746 0 0 1-.32-1.01Zm2.74 3.01c.24.34.15.81-.19 1.04l-1.24.86a.755.755 0 0 1-1.04-.19.74.74 0 0 1 .19-1.04l1.24-.86c.34-.24.81-.15 1.04.19m7.91-1.59a.746.746 0 0 1 .32-1.01l1.43-.74c.37-.19.82-.04 1.01.32.19.37.05.82-.32 1.01l-1.43.74c-.11.06-.23.08-.34.08-.27 0-.53-.15-.67-.41Zm.21 2.63c-.34-.23-.43-.7-.19-1.04s.7-.43 1.04-.19l1.24.86c.34.23.43.7.19 1.04a.755.755 0 0 1-1.04.19zM8.72 4.39c0 .41-.34.75-.75.75s-.75-.34-.75-.75.34-.75.75-.75.75.34.75.75"/>
</svg>
