<svg viewBox="0 0 48 48" xmlns="http://www.w3.org/2000/svg">
  <path d="M48 45.54h-8.03a5.75 5.75 0 0 0-5.39-3.75h-.46l-1.43-15.04h-17.4l-1.43 15.04h-.1c-2.47 0-4.58 1.57-5.39 3.75H0v2.5h48zM21.61 34.57h4.77v7.22h-4.77zM4.74 7.1c.32-.61 1.07-.86 1.68-.54l4.29 2.2c.61.32.86 1.07.54 1.69-.22.43-.66.68-1.11.68-.19 0-.39-.04-.57-.14l-4.29-2.2c-.61-.32-.86-1.07-.54-1.69m6.52 9.14c.39.57.25 1.35-.32 1.74l-3.72 2.56c-.22.15-.46.22-.71.22a1.251 1.251 0 0 1-.71-2.28l3.72-2.56c.57-.39 1.35-.25 1.74.32m25.44-5.79c-.32-.62-.07-1.37.54-1.69l4.29-2.2a1.251 1.251 0 0 1 1.14 2.23l-4.29 2.2c-.18.09-.38.14-.57.14-.45 0-.89-.25-1.11-.68m.32 7.53a1.251 1.251 0 0 1 1.42-2.06l3.72 2.56a1.251 1.251 0 0 1-1.42 2.06zm-21.17 2.89h16.29l.32 3.37H15.53zm.44-4.56-.2 2.06H31.9l-.2-2.06V9.02h1.66c0-4.96-4.01-8.98-8.97-8.98h-.47c-4.95 0-8.97 4.02-8.97 8.98h1.34zm7.62-6.73c1.66 0 3 1.34 3 3a3 3 0 0 1-1.83 2.77c-.36.15-.75.24-1.17.24s-.81-.08-1.17-.24a3 3 0 0 1-1.83-2.77c0-1.66 1.34-3 3-3"/>
</svg>
