<svg viewBox="0 0 16 16" xmlns="http://www.w3.org/2000/svg">
  <path d="M1.28 2.24c.19-.37.64-.51 1.01-.32l1.43.74c.37.19.51.64.32 1.01A.753.753 0 0 1 3.03 4L1.6 3.26a.746.746 0 0 1-.32-1.01Zm1.7 2.82-1.24.85c-.34.23-.43.7-.19 1.04a.755.755 0 0 0 1.04.19l1.24-.85c.34-.23.43-.7.19-1.04s-.7-.43-1.04-.19m9.63-1c.12 0 .23-.03.34-.08l1.43-.74c.37-.19.51-.64.32-1.01a.746.746 0 0 0-1.01-.32l-1.43.74c-.37.19-.51.64-.32 1.01.13.26.4.41.67.41Zm.78 3.09a.755.755 0 0 0 1.04-.19.75.75 0 0 0-.19-1.04L13 5.07a.75.75 0 0 0-1.04.19.75.75 0 0 0 .19 1.04zM5.43 3.36h-.45v-.28C4.98 1.39 6.36.01 8.05.01s3.07 1.37 3.07 3.07v.28h-.55v2.1l.11 1.11H5.33l.11-1.11v-2.1ZM7.22 4.4c0 .41.34.75.75.75s.75-.34.75-.75-.34-.75-.75-.75-.75.34-.75.75M16 16h-4.43l-7.14.01L0 16v-1.5h2.73c.41-.59 1.09-.98 1.86-.98h.08l.28-2.9h6.12l.28 2.9h.19c.77 0 1.45.39 1.86.98h2.62V16Zm-7.25-4.23h-1.5v2.5h1.5zM5.08 9.12h5.83l-.1-1.05H5.17l-.1 1.05Z"/>
</svg>
