<svg viewBox="0 0 32 32" xmlns="http://www.w3.org/2000/svg">
  <path d="M26.7 30a4 4 0 0 0-3.64-2.36h-.32l-1.6-16.8V5.99h1.11C22.24 2.68 19.56 0 16.26 0h-.31c-3.3 0-5.98 2.68-5.98 5.98h.89v4.85l-1.6 16.8h-.09c-1.62 0-3.02.97-3.64 2.36H0v2h7.18v-.37c0-1.1.9-1.99 2-1.99h13.88c1.1 0 2 .89 2 1.99v.35l6.94.02v-2h-5.3ZM15.95 2h.31c1.47 0 2.75.8 3.44 1.98h-7.2A3.98 3.98 0 0 1 15.94 2Zm-3.09 8.6V6.24h6.28v4.36zm6.46 2.24.3 3.21h-7.25l.3-3.21h6.64Zm.5 5.2.15 1.58h-7.93l.15-1.58zm-7.98 3.58h8.31l.57 6.02h-2.43v-4.31h-4.6v4.31h-2.43l.57-6.02Zm3.86 5.68v-1.97h.6v1.97zM3.01 4.63c.25-.49.85-.69 1.35-.43l2.86 1.47c.49.25.68.86.43 1.35-.18.34-.53.54-.89.54-.15 0-.31-.04-.46-.11L3.44 5.98c-.49-.25-.68-.86-.43-1.35m4.63 6.06c.31.46.2 1.08-.26 1.39L4.9 13.79c-.17.12-.37.18-.57.18-.32 0-.63-.15-.83-.43a.997.997 0 0 1 .26-1.39l2.48-1.71a.997.997 0 0 1 1.39.26Zm16.68-3.68c-.25-.49-.06-1.09.43-1.35l2.86-1.47c.49-.25 1.09-.06 1.35.43.25.49.06 1.09-.43 1.35l-2.86 1.47a1.01 1.01 0 0 1-1.35-.43m.27 5.07a1 1 0 0 1-.26-1.39c.31-.46.94-.57 1.39-.26l2.48 1.71c.46.31.57.94.26 1.39a1 1 0 0 1-1.4.25l-2.48-1.71Zm-7.15-3.72c0 .83-.67 1.49-1.5 1.49s-1.5-.67-1.5-1.49.67-1.49 1.5-1.49 1.5.67 1.5 1.49"/>
</svg>
