<svg viewBox="0 0 48 48" xmlns="http://www.w3.org/2000/svg">
  <path fill="#1e1e1c" d="M34.12 14.63v3.25h-3.73L22.15 1.81A2.905 2.905 0 0 0 19.48 0C15.36 0 13 2.83 13 7.75l1.43 10.12H3.39C1.52 17.87 0 19.39 0 21.26L3.06 42.3a2.88 2.88 0 0 0 2.83 2.45h28.23V48H48V14.63zM5.54 41.95 2.51 21.2c.04-.46.42-.82.89-.82h10.39c1.82 0 7.34 0 7.34 11.75 0 8.11-6.12 9.91-7.02 10.12H5.89c-.18 0-.33-.13-.35-.31Zm13.74.31c2.21-1.84 4.35-4.94 4.35-10.12 0-8.99-3.12-12.55-6.59-13.74L15.51 7.67c.03-4.62 2.28-5.16 3.98-5.16.16 0 .3.1.36.25l9.02 17.62h5.26v21.88H19.29ZM45.5 45.5h-8.87V17.13h8.87z"/>
</svg>
