<svg viewBox="0 0 40 40" xmlns="http://www.w3.org/2000/svg">
  <path fill="#1e1e1c" d="M28.31 12.13v2.7h-2.96l-6.8-13.28C18.17.62 17.25 0 16.25 0c-3.47 0-5.46 2.38-5.46 6.52l1.18 8.31H2.9c-1.6 0-2.9 1.3-2.9 2.9L2.54 35.2c.17 1.2 1.22 2.1 2.43 2.1h23.34V40H40V12.13zM4.77 34.87l-2.51-17.2c.03-.33.31-.59.65-.59h8.62c1.48 0 6 0 6 9.66 0 6.63-4.98 8.12-5.75 8.31H4.97c-.11 0-.19-.08-.21-.18Zm11.55.18c1.78-1.56 3.46-4.12 3.46-8.31 0-7.47-2.59-10.46-5.48-11.47l-1.26-8.83c.03-4.19 2.34-4.19 3.21-4.19.1 0 .18.06.22.15l7.52 14.68h4.33v17.97zm21.43 2.7h-7.19V14.38h7.19z"/>
</svg>
