<svg viewBox="0 0 24 24" xmlns="http://www.w3.org/2000/svg">
  <path fill="#1e1e1c" d="M16.69 7.15v1.59h-1.4l-3.95-7.71c-.26-.62-.87-1.04-1.55-1.04-2.18 0-3.43 1.48-3.43 4.05l.66 4.69h-5.1C.86 8.73 0 9.59 0 10.65l1.5 10.32c.12.81.83 1.42 1.65 1.42h13.54v1.59H24V7.15zM1.75 10.63a.18.18 0 0 1 .17-.14H7c1.43 0 3.33.57 3.33 5.48 0 3.69-2.72 4.56-3.2 4.69H3.22zm8.62 10.03c.95-1.02 1.71-2.54 1.71-4.69 0-4.44-1.52-6.27-3.25-6.92l-.72-5.06c.02-2.24 1.18-2.24 1.61-2.29l4.5 8.79h2.47v10.17h-6.31Zm11.88 1.59h-3.81V8.9h3.81z"/>
</svg>
