<svg viewBox="0 0 24 24" xmlns="http://www.w3.org/2000/svg">
  <path fill="#1e1e1c" d="M3.66 12.75h2.8v3h-2.8c-2.03 0-3.68-1.65-3.68-3.67V7.42c0-2.03 1.65-3.68 3.68-3.68h9.17c2.03 0 3.68 1.65 3.68 3.68v4.66c0 2.03-1.65 3.68-3.68 3.68h-1.3v-3h1.3c.37 0 .67-.3.67-.67V7.43c0-.37-.3-.67-.67-.67H3.66c-.37 0-.67.3-.67.67v4.66c0 .37.3.67.67.67Zm16.65-4.51h-2.8v3h2.8c.37 0 .67.3.67.67v4.66c0 .37-.3.67-.67.67h-9.17a.67.67 0 0 1-.67-.67v-4.66c0-.37.3-.67.67-.67h1.3v-3h-1.3c-2.03 0-3.68 1.65-3.68 3.68v4.66c0 2.03 1.65 3.68 3.68 3.68h9.17c2.03 0 3.68-1.65 3.68-3.68v-4.66c0-2.03-1.65-3.68-3.68-3.68"/>
</svg>
