<svg viewBox="0 0 48 48" xmlns="http://www.w3.org/2000/svg">
  <path fill="#1e1e1c" d="M6.72 26.43h5.8v4.49h-5.8C3 30.91-.03 27.88-.03 24.16V14.5c0-3.72 3.03-6.75 6.75-6.75h19c3.72 0 6.75 3.03 6.75 6.75v9.66c0 3.72-3.03 6.75-6.75 6.75h-2.69v-4.49h2.69c1.25 0 2.27-1.02 2.27-2.27v-9.66c0-1.25-1.02-2.27-2.27-2.27h-19c-1.25 0-2.27 1.02-2.27 2.27v9.66c0 1.25 1.02 2.27 2.27 2.27Zm34.49-9.34h-5.8v4.49h5.8c1.25 0 2.27 1.02 2.27 2.27v9.66c0 1.25-1.02 2.27-2.27 2.27h-19c-1.25 0-2.27-1.02-2.27-2.27v-9.66c0-1.25 1.02-2.27 2.27-2.27h2.69v-4.49h-2.69c-3.72 0-6.75 3.03-6.75 6.75v9.66c0 3.72 3.03 6.75 6.75 6.75h19c3.72 0 6.75-3.03 6.75-6.75v-9.66c0-3.72-3.03-6.75-6.75-6.75"/>
</svg>
