<svg viewBox="0 0 64 64" xmlns="http://www.w3.org/2000/svg">
  <path d="m17.54 13.6-2.74-2.75h19.63c4.26 0 7.72 3.47 7.72 7.74v13.63c0 1.7-.56 3.28-1.49 4.56l-1.98-1.99c.45-.75.73-1.63.73-2.57V18.59c0-2.75-2.23-4.99-4.98-4.99zM2.7 32.22V18.59c0-2.75 2.23-4.99 4.98-4.99h2.1l-2.71-2.72c-3.97.31-7.11 3.65-7.11 7.71v13.63c0 4.27 3.46 7.74 7.72 7.74h8.17v-2.75H7.68c-2.75 0-4.98-2.24-4.98-4.99m30.63 4.99h-2.69v2.75h3.79q.765 0 1.5-.15l-2.59-2.6Zm22.91-13.18h-8.17v2.75h8.17c2.75 0 4.98 2.24 4.98 4.99V45.4c0 2.75-2.23 4.99-4.98 4.99h-2.01l2.71 2.71a7.74 7.74 0 0 0 7.02-7.71V31.76c0-4.27-3.46-7.74-7.72-7.74Zm-25.56 2.75h2.6v-2.75h-3.79c-.49 0-.96.05-1.42.14zM29.5 50.4c-2.75 0-4.98-2.24-4.98-4.99V31.78c0-.97.29-1.86.76-2.63l-1.97-1.98a7.7 7.7 0 0 0-1.53 4.61v13.63c0 4.27 3.46 7.74 7.72 7.74h19.72l-2.74-2.75zM.11 1.95 61.99 64l1.94-1.95L2.05 0z"/>
</svg>
