<svg viewBox="0 0 16 16" xmlns="http://www.w3.org/2000/svg">
  <path fill="#1e1e1c" d="M2.24 8.8h1.93v1.5H2.24C1 10.31-.01 9.3-.01 8.05V4.83c0-1.24 1.01-2.25 2.25-2.25h6.33c1.24 0 2.25 1.01 2.25 2.25v3.22c0 1.24-1.01 2.25-2.25 2.25h-.9V8.8h.9c.41 0 .75-.34.75-.75V4.83c0-.41-.34-.75-.75-.75H2.24c-.41 0-.75.34-.75.75v3.22c0 .41.34.75.75.75m11.5-3.11h-1.93v1.5h1.93c.41 0 .75.34.75.75v3.22c0 .41-.34.75-.75.75H7.41c-.41 0-.75-.34-.75-.75V7.94c0-.41.34-.75.75-.75h.9v-1.5h-.9c-1.24 0-2.25 1.01-2.25 2.25v3.22c0 1.24 1.01 2.25 2.25 2.25h6.33c1.24 0 2.25-1.01 2.25-2.25V7.94c0-1.24-1.01-2.25-2.25-2.25"/>
</svg>
