<svg viewBox="0 0 48 48" xmlns="http://www.w3.org/2000/svg">
  <path fill="#1e1e1c" d="M5.93 27.64H12v2.49H5.93c-3.29 0-5.96-2.68-5.96-5.96v-10.1c0-3.29 2.67-5.96 5.96-5.96H25.8c3.29 0 5.96 2.67 5.96 5.96v10.1c0 3.29-2.67 5.96-5.96 5.96h-2.81v-2.49h2.81c1.91 0 3.47-1.56 3.47-3.47v-10.1c0-1.91-1.56-3.47-3.47-3.47H5.93c-1.91 0-3.47 1.56-3.47 3.47v10.1c0 1.91 1.56 3.47 3.47 3.47m36.08-9.77h-6.07v2.49h6.07c1.91 0 3.47 1.56 3.47 3.47v10.1c0 1.91-1.56 3.47-3.47 3.47H22.14c-1.91 0-3.47-1.56-3.47-3.47v-10.1c0-1.91 1.56-3.47 3.47-3.47h2.81v-2.49h-2.81c-3.29 0-5.96 2.67-5.96 5.96v10.1c0 3.29 2.67 5.96 5.96 5.96h19.87c3.29 0 5.96-2.67 5.96-5.96v-10.1c0-3.29-2.67-5.96-5.96-5.96"/>
</svg>
