<svg viewBox="0 0 32 32" xmlns="http://www.w3.org/2000/svg">
  <path fill="#1e1e1c" d="M4.68 17.32h3.8v3.49h-3.8c-2.59-.01-4.7-2.12-4.7-4.71V9.77c0-2.58 2.11-4.69 4.7-4.69h12.45c2.59 0 4.7 2.11 4.7 4.7v6.33c0 2.59-2.11 4.7-4.7 4.7h-1.76v-3.49h1.76c.67 0 1.21-.54 1.21-1.21V9.78c0-.67-.54-1.21-1.21-1.21H4.68c-.67 0-1.21.54-1.21 1.21v6.33c0 .67.54 1.21 1.21 1.21m22.6-6.12h-3.8v3.49h3.8c.67 0 1.21.54 1.21 1.21v6.33c0 .67-.54 1.21-1.21 1.21H14.83c-.67 0-1.21-.54-1.21-1.21V15.9c0-.67.54-1.21 1.21-1.21h1.76V11.2h-1.76c-2.59 0-4.7 2.11-4.7 4.7v6.33c0 2.59 2.11 4.7 4.7 4.7h12.45c2.59 0 4.7-2.11 4.7-4.7V15.9c0-2.59-2.11-4.7-4.7-4.7"/>
</svg>
