<svg viewBox="0 0 64 64" xmlns="http://www.w3.org/2000/svg">
  <path fill="#1e1e1c" d="M8.57 35.82h7.87v5.01H8.57c-4.75 0-8.61-3.87-8.61-8.62V19.12c0-4.75 3.86-8.62 8.61-8.62h25.75c4.75 0 8.62 3.87 8.62 8.62v13.09c0 4.75-3.87 8.62-8.62 8.62h-3.65v-5.01h3.65c1.99 0 3.61-1.62 3.61-3.61V19.12c0-1.99-1.62-3.61-3.61-3.61H8.57c-1.99 0-3.61 1.62-3.61 3.61v13.09c0 1.99 1.62 3.61 3.61 3.61m46.77-12.66h-7.87v5.01h7.87c1.99 0 3.61 1.62 3.61 3.61v13.09c0 1.99-1.62 3.61-3.61 3.61H29.59c-1.99 0-3.61-1.62-3.61-3.61V31.78c0-1.99 1.62-3.61 3.61-3.61h3.65v-5.01h-3.65c-4.75 0-8.62 3.87-8.62 8.62v13.09c0 4.75 3.86 8.62 8.62 8.62h25.75c4.75 0 8.62-3.87 8.62-8.62V31.78c0-4.75-3.87-8.62-8.62-8.62"/>
</svg>
