<svg viewBox="0 0 24 24" xmlns="http://www.w3.org/2000/svg">
  <path d="m11.01 6.75-3-3h4.83c2.03 0 3.67 1.65 3.67 3.67v4.65c0 .06-.01.11-.02.16l-2.98-2.98V7.42c0-.37-.3-.67-.67-.67zm-8 5.33V7.43c0-.05.02-.1.03-.15L.87 5.1C.34 5.73.01 6.54.01 7.42v4.65c0 2.03 1.65 3.67 3.67 3.67h2.8v-3h-2.8a.67.67 0 0 1-.67-.67Zm17.96-.16v4.65s-.02.08-.02.12l2.19 2.19c.52-.63.84-1.43.84-2.31v-4.65c0-2.03-1.65-3.67-3.67-3.67h-2.8v3h2.8c.37 0 .67.3.67.67Zm-9.82 5.33a.67.67 0 0 1-.67-.67v-1.87L7.5 11.73c0 .07-.02.13-.02.2v4.65c0 2.03 1.65 3.67 3.67 3.67h4.87l-3-3zM2.13 0 0 2.11l21.88 21.88L24 21.87z"/>
</svg>
