<svg viewBox="0 0 64 64" xmlns="http://www.w3.org/2000/svg">
  <path fill="#1e1e1c" d="M7.68 37.2h8.17v2.74H7.68c-4.26 0-7.72-3.46-7.72-7.72v-13.6c0-4.25 3.46-7.71 7.72-7.71h26.74c4.26 0 7.72 3.46 7.72 7.72v13.6c0 4.26-3.46 7.72-7.72 7.72h-3.79v-2.74h3.79a4.98 4.98 0 0 0 4.98-4.98v-13.6a4.98 4.98 0 0 0-4.98-4.98H7.68a4.98 4.98 0 0 0-4.98 4.98v13.6a4.98 4.98 0 0 0 4.98 4.98Zm48.56-13.15h-8.17v2.74h8.17a4.98 4.98 0 0 1 4.98 4.98v13.6a4.98 4.98 0 0 1-4.98 4.98H29.5a4.98 4.98 0 0 1-4.98-4.98v-13.6a4.98 4.98 0 0 1 4.98-4.98h3.79v-2.74H29.5c-4.26 0-7.72 3.46-7.72 7.72v13.6c0 4.26 3.46 7.72 7.72 7.72h26.74c4.26 0 7.72-3.46 7.72-7.72v-13.6c0-4.26-3.46-7.72-7.72-7.72"/>
</svg>
