<svg viewBox="0 0 64 64" xmlns="http://www.w3.org/2000/svg">
  <path d="m22.62 15.53-5-5h16.72c4.75 0 8.61 3.86 8.61 8.61v13.07c0 1.08-.21 2.11-.58 3.07l-4.42-4.42V19.14c0-1.99-1.62-3.61-3.61-3.61zM5 32.21V19.14c0-1.95 1.55-3.53 3.48-3.59l-3.97-3.97A8.59 8.59 0 0 0 0 19.14v13.07c0 4.74 3.86 8.61 8.61 8.61h7.86v-5H8.61C6.62 35.82 5 34.2 5 32.21m53.93-.43v13.07c0 1.92-1.51 3.48-3.4 3.59l3.95 3.95c2.65-1.47 4.45-4.29 4.45-7.53V31.79c0-4.74-3.86-8.61-8.61-8.61h-7.86v5h7.86c1.99 0 3.61 1.62 3.61 3.61ZM29.6 48.46c-1.99 0-3.61-1.62-3.61-3.61V33.04l-4.4-4.4a8.6 8.6 0 0 0-.6 3.14v13.07c0 4.74 3.86 8.61 8.61 8.61h16.81l-5-5zM64 60.45 3.54-.01 0 3.52l60.47 60.47L64 60.46Z"/>
</svg>
