<svg viewBox="0 0 16 16" xmlns="http://www.w3.org/2000/svg">
  <path d="m8.45 4.91-2.5-2.5h2.59c1.46 0 2.65 1.19 2.65 2.65v2.59l-2.5-2.5v-.09c0-.08-.07-.15-.15-.15zM2.51 8.05V6.04L.32 3.85C.13 4.21 0 4.62 0 5.06v2.99c0 1.46 1.19 2.65 2.65 2.65h1.16V8.2H2.65c-.08 0-.15-.07-.15-.15Zm10.98-.1v2l2.2 2.2c.19-.36.3-.77.3-1.2V7.96c0-1.46-1.19-2.65-2.65-2.65h-1.15v2.5h1.15c.08 0 .15.07.15.15Zm-6.03 3.14c-.08 0-.15-.07-.15-.15v-.1l-2.5-2.5v2.6c0 1.46 1.19 2.65 2.65 2.65h2.6l-2.5-2.5zM1.77 0 0 1.77 14.23 16 16 14.23z"/>
</svg>
