<svg viewBox="0 0 16 16" xmlns="http://www.w3.org/2000/svg">
  <path fill="#1e1e1c" d="M2.64 8.2H3.8v2.5H2.64c-1.46 0-2.65-1.19-2.65-2.65v-3c0-1.46 1.19-2.65 2.65-2.65h5.89c1.46 0 2.65 1.19 2.65 2.65v3c0 1.46-1.19 2.65-2.65 2.65H8.3V8.2h.23c.08 0 .15-.07.15-.15v-3c0-.08-.07-.15-.15-.15H2.64c-.08 0-.15.07-.15.15v3c0 .08.07.15.15.15m10.7-2.9h-1.15v2.5h1.15c.08 0 .15.07.15.15v3c0 .08-.07.15-.15.15H7.45c-.08 0-.15-.07-.15-.15v-3c0-.08.07-.15.15-.15h.24V5.3h-.24C5.99 5.3 4.8 6.49 4.8 7.95v3c0 1.46 1.19 2.65 2.65 2.65h5.89c1.46 0 2.65-1.19 2.65-2.65v-3c0-1.46-1.19-2.65-2.65-2.65"/>
</svg>
