<svg viewBox="0 0 24 24" xmlns="http://www.w3.org/2000/svg">
  <path d="M23 4.5h-5.72A5.53 5.53 0 0 0 11.85 0H6.97C3.93 0 1.45 2.48 1.45 5.53V16H1c-.55 0-1 .45-1 1v4.49h.53v1.97c0 .23.14.42.34.51.07.03.14.04.21.04h2.48c.3 0 .55-.25.55-.55v-1.97h.53V17c0-.55-.45-1-1-1h-.45V5.53c0-2.08 1.69-3.78 3.78-3.78h4.88c1.72 0 3.17 1.17 3.62 2.75H10c-.55 0-1 .45-1 1V23c0 .55.45 1 1 1h13c.55 0 1-.45 1-1V5.5c0-.55-.45-1-1-1m-7.74 3.44V6.25h2.54v1.69zm-4.51-1.69h2.76v1.69h-2.76zm11.5 16h-11.5V9.69h11.5zm-2.7-14.31V6.25h2.7v1.69zm-1.74 3.92v3.29h1.71l-4.11 5.25v-3.54h-2.1z"/>
</svg>
