<svg viewBox="0 0 16 16" xmlns="http://www.w3.org/2000/svg">
  <path d="M2.3 10.67h-.18c.54.01.98.45.98 1v2.66h-.36v1.13c0 .3-.25.55-.55.55H.91c-.3 0-.55-.25-.55-.55v-1.13H0v-2.66c0-.54.44-.98.98-1H.8V3.68C.8 1.65 2.45 0 4.48 0h3.59c1.79 0 3.29 1.3 3.61 3h.52v2.79H9.84V3h.29c-.29-.87-1.1-1.5-2.06-1.5H4.48c-1.2 0-2.18.98-2.18 2.18v6.98ZM6 4v1.79h2.34V3H7c-.55 0-1 .45-1 1m0 3.29h10V15c0 .55-.45 1-1 1H7c-.55 0-1-.45-1-1zm2.5 4.95h1.61v2.68l3.25-4.15h-1.32V8.31zM15 3h-1.3v2.79H16V4c0-.55-.45-1-1-1"/>
</svg>
