<svg viewBox="0 0 48 48" xmlns="http://www.w3.org/2000/svg">
  <path d="M17.12 21.05h2.9l-6.69 8.55v-6.13H9.74l7.38-8.19v5.76Zm10.26 17.29c0 .22.02.44.03.66H2.25C1 39 0 37.99 0 36.75V2.27C0 1.02 1 .02 2.25.02h25.5C28.99.02 30 1.03 30 2.27v28.48c-1.48 2.49-2.62 5.19-2.62 7.6Zm.12-35.82h-4.38v3.03h4.38zM13.83 5.54V2.51H9.54v3.03zm2.5 0h4.29V2.51h-4.29zm-13.83 0h4.54V2.51H2.5zm0 30.96h25V8.04h-25zM48 38.34c0 5.34-4.34 9.68-9.68 9.68s-9.68-4.34-9.68-9.68c0-6.05 8.43-14.75 8.79-15.12l.9-.92.89.92c.36.37 8.79 9.11 8.79 15.12Zm-2.5 0c0-3.68-4.58-9.52-7.19-12.41-2.61 2.88-7.18 8.71-7.18 12.41 0 3.96 3.22 7.18 7.18 7.18s7.18-3.22 7.18-7.18Zm-7.68 2.42c-1.16 0-2.11-.95-2.11-2.11a1.25 1.25 0 0 0-2.5 0c0 2.54 2.07 4.61 4.61 4.61a1.25 1.25 0 0 0 0-2.5"/>
</svg>
