<svg viewBox="0 0 32 32" xmlns="http://www.w3.org/2000/svg">
  <path d="M8.72 20.22v-4.41h-2.6l5.46-6.07v4.11h2.1l-4.97 6.36ZM18 23.69V6.25H2.01v17.76h15.93c-.1.46-.16.92-.16 1.36 0 .22.01.43.03.64H2.01C.9 26.01 0 25.11 0 24V1.99A2 2 0 0 1 2.01 0H18c1.1 0 2 .9 2 2v17.41c-.87 1.35-1.64 2.84-2 4.28M11.06 4.24h2.52V1.99h-2.52zm-2-2.25H6.54v2.25h2.52zM2.01 4.24h2.52V1.99H2.01zm15.99 0V1.99h-2.42v2.25zm14.01 21.12c0 3.65-2.97 6.63-6.62 6.63s-6.62-2.97-6.62-6.63c0-4.04 5.3-9.59 5.9-10.21l.72-.73.71.74c.6.62 5.9 6.19 5.9 10.2Zm-2 0c0-2.35-2.88-6.08-4.62-8.03-1.74 1.95-4.62 5.67-4.62 8.03 0 2.55 2.07 4.62 4.62 4.62s4.62-2.07 4.62-4.62m-5.85-.12c0-.55-.45-1-1-1s-1 .45-1 1a3.24 3.24 0 0 0 3.24 3.24c.55 0 1-.45 1-1s-.45-1-1-1c-.68 0-1.24-.56-1.24-1.24"/>
</svg>
