<svg viewBox="0 0 40 40" xmlns="http://www.w3.org/2000/svg">
  <path d="M37.75 7.5h-9.29c-.8-4.26-4.55-7.5-9.04-7.5h-7.46C6.88 0 2.75 4.13 2.75 9.21v17.44H1c-.55 0-1 .45-1 1v8.14h.89v3.65c0 .3.25.55.55.55H6.3c.3 0 .55-.25.55-.55v-3.65h.89v-8.14c0-.55-.45-1-1-1H4.99V9.21c0-3.84 3.12-6.96 6.96-6.96h7.46c3.25 0 5.97 2.24 6.74 5.25h-8.9C16.01 7.5 15 8.51 15 9.75v28c0 1.24 1.01 2.25 2.25 2.25h20.5c1.24 0 2.25-1.01 2.25-2.25v-28c0-1.24-1.01-2.25-2.25-2.25M4.6 37.75H3.14v-1.47H4.6zm24.09-25.31V9.75h3.41v2.69zm-5.66 0V9.75h3.41v2.69zm-5.78-2.69h3.53v2.69h-3.53zm20.5 28h-20.5V14.69h20.5zm-3.4-25.31V9.75h3.4v2.69zm-5 7.57v4.94h2.5l-5.83 7.46v-5.27h-3.09z"/>
</svg>
