<svg viewBox="0 0 16 16" xmlns="http://www.w3.org/2000/svg">
  <path d="M2.35 2.79H.01V1c0-.55.45-1 1-1h1.34zM6.2 0H3.84v2.79H6.2zM10 1c0-.55-.45-1-1-1H7.7v2.79H10zM8.14 12.43c0 .19.03.38.06.56H1.01c-.55 0-1-.45-1-1V4.28h9.98v3.96c-.89 1.18-1.85 2.77-1.85 4.19m-.78-4.67H6.05V5.3L2.51 9.23h1.61v2.68zm8.65 4.67c0 1.97-1.6 3.57-3.56 3.57s-3.56-1.6-3.56-3.57c0-2.12 2.71-4.97 3.02-5.28l.54-.55.54.55c.31.32 3.02 3.18 3.02 5.28m-3.06 1.32c0-.41-.34-.75-.75-.75-.2 0-.37-.17-.37-.37 0-.41-.34-.75-.75-.75s-.75.34-.75.75c0 1.03.84 1.87 1.87 1.87.41 0 .75-.34.75-.75"/>
</svg>
