<svg viewBox="0 0 16 16" xmlns="http://www.w3.org/2000/svg">
  <path d="M4.11 11.47V8.79H2.5l3.54-3.94v2.46h1.31zm4.39-.66V4.33H1.51v7.23h6.75c-.07.3-.11.6-.11.9 0 .21.03.41.06.61h-7.2c-.55-.02-1-.46-1-1.02V1.02c0-.55.45-1 1-1H9c.55 0 1 .45 1 1v7.22c-.56.74-1.14 1.64-1.5 2.56ZM4.34 1.53v1.3H5.7v-1.3zM1.51 2.82h1.34v-1.3H1.51zm6.99 0v-1.3H7.2v1.3zm7.51 9.63c0 1.97-1.6 3.58-3.56 3.58s-3.56-1.6-3.56-3.58c0-2.13 2.71-4.98 3.02-5.3l.54-.55.54.55c.31.32 3.02 3.18 3.02 5.29Zm-1.49 0c0-.95-1.11-2.55-2.06-3.66-.95 1.1-2.06 2.7-2.06 3.66 0 1.14.93 2.07 2.06 2.07s2.06-.93 2.06-2.07m-2.19-.32a.749.749 0 1 0-1.5 0c0 1.03.84 1.88 1.87 1.88.41 0 .75-.34.75-.75s-.34-.75-.75-.75c-.2 0-.37-.17-.37-.37Z"/>
</svg>
