<svg viewBox="0 0 48 48" xmlns="http://www.w3.org/2000/svg">
  <path d="M13.83 5.54H8.54V.01h5.29v5.52ZM21.62.01h-5.29v5.52h5.29zM6.04.01H2.25C1.31.01.51.58.17 1.39c-.11.27-.17.56-.17.87v3.27h6.04zM30 2.26A2.27 2.27 0 0 0 27.74 0h-3.63v5.52h5.88V2.25Zm-2.62 36.08c0 .22.02.44.03.65H2.25C1 38.99 0 37.98 0 36.74V8.04h30v22.7c-1.48 2.49-2.62 5.19-2.62 7.6m-7.36-17.3h-2.9v-5.76l-7.38 8.19h3.59v6.13l6.69-8.55ZM48 38.34c0 5.34-4.34 9.68-9.68 9.68s-9.68-4.34-9.68-9.68c0-6.05 8.43-14.75 8.79-15.12l.9-.92.89.92c.36.37 8.79 9.1 8.79 15.11Zm-9.43 4.17c0-.69-.56-1.25-1.25-1.25-1.16 0-2.11-.95-2.11-2.11a1.25 1.25 0 0 0-2.5 0c0 2.54 2.07 4.61 4.61 4.61.69 0 1.25-.56 1.25-1.25"/>
</svg>
