<svg viewBox="0 0 24 24" xmlns="http://www.w3.org/2000/svg">
  <path d="M6.41 15.9v-3.54h-2.1l4.5-5v3.29h1.71l-4.11 5.26Zm6.84 1.2V5.19H1.75v12.56h11.32a5.2 5.2 0 0 0-.11 1.75H1c-.56 0-1-.45-1-1V1c0-.55.44-1 1-1h13c.55 0 1 .45 1 1v12.76c-.71 1.03-1.37 2.19-1.75 3.35ZM6.26 1.75v1.69H8.8V1.75zM1.75 3.44h2.76V1.75H1.75zm11.5 0V1.75h-2.7v1.69zM24 18.9c0 2.81-2.29 5.1-5.1 5.1s-5.1-2.29-5.1-5.1c0-3.08 4.01-7.28 4.47-7.74l.63-.64.63.64c.46.47 4.47 4.69 4.47 7.74m-1.75 0c0-1.68-2.05-4.36-3.35-5.84-1.3 1.47-3.35 4.14-3.35 5.84 0 1.84 1.5 3.35 3.35 3.35s3.35-1.5 3.35-3.35m-3.78-.46c0-.48-.39-.88-.88-.88s-.88.39-.88.88c0 1.41 1.15 2.56 2.56 2.56.48 0 .88-.39.88-.88s-.39-.88-.88-.88c-.44 0-.81-.36-.81-.81Z"/>
</svg>
