<svg viewBox="0 0 32 32" xmlns="http://www.w3.org/2000/svg">
  <path d="M9.47 2h6.15c2.49 0 4.57 1.71 5.18 4.01h-2.78v3.75h3.03V6.01h1.82C22.22 2.59 19.22 0 15.62 0H9.47A7.37 7.37 0 0 0 2.1 7.37v13.95H1c-.55 0-1 .45-1 1v6.31h.71v2.81c0 .3.25.55.55.55h3.67c.3 0 .55-.25.55-.55v-2.81h.71v-6.31s-.01-.04-.01-.07a1 1 0 0 0-.19-.51 1.16 1.16 0 0 0-.47-.36.9.9 0 0 0-.32-.07H4.1V7.37C4.1 4.41 6.51 2 9.47 2M3.48 30h-.77v-1.07h.77zm22.6-20.25h-3.03V6h3.03zM14 6h2.03v3.75H12V8c0-.41.13-.8.34-1.12.14-.21.33-.4.54-.54.32-.22.7-.34 1.12-.34m18 2v1.75h-3.92V6H30c.41 0 .8.13 1.12.34.21.14.4.33.54.54.22.32.34.7.34 1.12m-5.92 3.75H12v18.24c0 1.1.9 2 2 2h16c1.1 0 2-.9 2-2V11.75zm-5.36 14.46v-4.4h-2.6l5.46-6.06v4.11h2.11z"/>
</svg>
