<svg viewBox="0 0 64 64" xmlns="http://www.w3.org/2000/svg">
  <path d="M61.5 12H45.11C43.82 5.18 37.83 0 30.64 0h-11.1C11.43 0 4.82 6.61 4.82 14.73v27.91H1c-.55 0-1 .45-1 1v13.63h1.43v6.18c0 .3.25.55.55.55h8.43c.3 0 .55-.25.55-.55v-6.18h1.43V43.64c0-.55-.45-1-1-1H7.57V14.73c0-6.61 5.37-11.98 11.98-11.98h11.1c5.66 0 10.41 3.96 11.65 9.25H26.5a2.5 2.5 0 0 0-2.5 2.5v47a2.5 2.5 0 0 0 2.5 2.5h35a2.5 2.5 0 0 0 2.5-2.5v-47a2.5 2.5 0 0 0-2.5-2.5M8.21 61.25H4.18v-3.98h4.03zm37.27-42.43v-4.08h6.3v4.08zm-9.05 0v-4.08h6.3v4.08zm-9.68-4.07h6.93v4.08h-6.93zm34.5 46.5h-34.5V21.57h34.5zm-6.72-42.43v-4.08h6.72v4.08zm-7.99 14.3v7.22h3.55l-8.03 10.27v-7.62h-4.42l8.89-9.87Z"/>
</svg>
