<svg viewBox="0 0 48 48" xmlns="http://www.w3.org/2000/svg">
  <path d="M14.44 2.5h8.76c4 0 7.37 2.77 8.29 6.5h-4.95v5.53h5.29V9h2.22c-.96-5.11-5.46-9-10.85-9h-8.76C8.35 0 3.39 4.96 3.39 11.05v20.93H1c-.55 0-1 .45-1 1v9.97h1.07v4.49c0 .3.25.55.55.55h6.05c.3 0 .55-.25.55-.55v-4.49h1.07v-9.97c0-.55-.45-1-1-1H5.9V11.05c0-4.71 3.83-8.55 8.55-8.55Zm-8.72 43H3.57v-2.36h2.15zM20.25 9h3.79v5.53H18v-3.28c0-.31.06-.61.18-.88A2.24 2.24 0 0 1 20.25 9m19.37 5.53h-5.29V9h5.29zM18 45.75c0 1.24 1.01 2.25 2.25 2.25h25.5c.31 0 .61-.06.88-.18A2.24 2.24 0 0 0 48 45.75V17.02H18zm17.12-21.47v5.77h2.9l-6.69 8.56v-6.13h-3.59l7.38-8.19ZM48 11.25v3.28h-5.88V9h3.63a2.27 2.27 0 0 1 2.26 2.26Z"/>
</svg>
