<svg viewBox="0 0 24 24" xmlns="http://www.w3.org/2000/svg">
  <path d="M9.8 3.44H5.26V0H9.8zM3.51 0H1C.45 0 0 .44 0 1v2.44h3.51zM15 1c0-.56-.45-1-1-1h-2.45v3.44H15zm-2.06 17.9c0 .2.01.41.03.61H1c-.55 0-1-.45-1-1V5.19h14.99v8.59c-1.08 1.57-2.06 3.45-2.06 5.12Zm-2.42-8.25H8.81V7.36l-4.5 5h2.1v3.54l4.11-5.26Zm13.49 8.25c0 2.81-2.29 5.1-5.09 5.1s-5.09-2.29-5.09-5.1c0-3.08 4.01-7.28 4.47-7.75l.63-.64.63.64c.46.47 4.47 4.69 4.47 7.75Zm-4.84 2.21a.88.88 0 0 0-.87-.88c-.44 0-.81-.36-.81-.81 0-.48-.39-.88-.87-.88s-.87.39-.87.88c0 1.41 1.15 2.56 2.56 2.56.48 0 .87-.39.87-.88Z"/>
</svg>
