<svg viewBox="0 0 40 40" xmlns="http://www.w3.org/2000/svg">
  <path d="M14.35 17.45h2.5l-5.83 7.45v-5.26H7.93l6.42-7.12v4.94Zm8.22 14.42c0 .21.02.42.03.62H2.25C1.01 32.49 0 31.48 0 30.24V2.26C0 1.02 1.01.01 2.25.01h20.5C23.99.01 25 1.02 25 2.26v22.83c-1.35 2.2-2.43 4.62-2.43 6.77Zm.18-29.61h-3.4v2.69h3.4zM11.44 4.95V2.26H8.03v2.69zm2.25 0h3.41V2.26h-3.41zm-11.44 0h3.53V2.26H2.25zm0 25.29h20.5V7.2H2.25zM40 31.87c0 4.49-3.66 8.15-8.15 8.15s-8.15-3.65-8.15-8.15c0-4.99 6.6-11.88 7.35-12.65l.81-.83.8.83c.75.77 7.35 7.7 7.35 12.65Zm-2.25 0c0-3.01-3.73-7.79-5.9-10.22-2.17 2.41-5.9 7.19-5.9 10.22 0 3.25 2.65 5.9 5.9 5.9s5.9-2.65 5.9-5.9m-5.9 1.52c-.92 0-1.67-.75-1.67-1.67 0-.62-.5-1.12-1.13-1.12s-1.13.5-1.13 1.12c0 2.16 1.76 3.92 3.92 3.92.62 0 1.13-.5 1.13-1.12s-.5-1.12-1.13-1.12Z"/>
</svg>
