<svg viewBox="0 0 64 64" xmlns="http://www.w3.org/2000/svg">
  <path d="M64 14.5v4.33h-8.47V12h5.97a2.51 2.51 0 0 1 2.5 2.49Zm-38-2.45c-.33.07-.63.2-.89.38-.27.18-.5.41-.68.68s-.31.57-.38.89c-.03.16-.05.33-.05.5v4.33h8.68V12H26.5c-.17 0-.34.02-.5.05M52.78 12h-7.3v6.83h7.3zM7.57 14.73v27.91h3.82c.28 0 .53.11.71.29s.29.43.29.71v13.63h-1.43v6.18c0 .3-.25.55-.55.55H1.98c-.3 0-.55-.25-.55-.55v-6.18H0V43.64c0-.55.45-1 1-1h3.82V14.73C4.82 6.61 11.43 0 19.55 0h11.1c7.19 0 13.18 5.18 14.47 12h-2.38v6.83h-7.3V12h6.87c-1.24-5.29-5.99-9.25-11.65-9.25h-11.1c-6.61 0-11.98 5.37-11.98 11.98Zm.64 42.54H4.18v3.98h4.03zM24 21.57h40V61.5a2.5 2.5 0 0 1-2.5 2.5h-35a2.45 2.45 0 0 1-1.39-.43c-.67-.45-1.1-1.21-1.1-2.07V21.57ZM37.64 43h4.42v7.62l8.03-10.27h-3.55v-7.22L37.65 43Z"/>
</svg>
