<svg viewBox="0 0 16 16" xmlns="http://www.w3.org/2000/svg">
  <path d="M15 3h-3.32c-.32-1.7-1.82-3-3.61-3H4.48C2.45 0 .8 1.65.8 3.68v6.98h.18c-.54.01-.98.45-.98 1v2.66h.36v1.13c0 .3.25.55.55.55h1.28c.3 0 .55-.25.55-.55v-1.13h.36v-2.66c0-.54-.44-.98-.98-1h.18V3.68c0-1.2.98-2.18 2.18-2.18h3.59c.96 0 1.77.63 2.06 1.5H7c-.55 0-1 .45-1 1v11c0 .55.45 1 1 1h8c.55 0 1-.45 1-1V4c0-.55-.45-1-1-1m-4.66 2.79V4.5h1.36v1.29zM7.5 4.5h1.34v1.29H7.5zm7 10h-7V7.29h7zm-1.3-8.71V4.5h1.3v1.29zm-1.16 2.02v2.46h1.32l-3.25 4.15v-2.68H8.5z"/>
</svg>
