<svg viewBox="0 0 32 32" xmlns="http://www.w3.org/2000/svg">
  <path fill="#1e1e1c" d="M25.86 20.42a5.81 5.81 0 0 0-5.29 3.43h-2.14V3.51h13.58V0L14.94.02v24.29L1.25 28.56a1.75 1.75 0 0 0 .52 3.42c.17 0 .35-.03.52-.08l14.66-4.56h3.23c.53 2.65 2.87 4.66 5.68 4.66s5.15-2.01 5.68-4.66h.45v-3.5h-.85c-.91-2.02-2.93-3.43-5.28-3.43Zm0 8.08c-1.26 0-2.29-1.03-2.29-2.3s1.03-2.3 2.29-2.3 2.29 1.03 2.29 2.3-1.03 2.3-2.29 2.3m-.25-19v4.15h6.4v3.5h-9.9V6h9.91v3.5zM7.06 15.11H.02v-3.5h7.05L4.88 9.42a1.75 1.75 0 0 1 0-2.47 1.75 1.75 0 0 1 2.47 0l6.41 6.41-6.41 6.41c-.34.34-.79.51-1.24.51s-.9-.17-1.24-.51a1.75 1.75 0 0 1 0-2.47z"/>
</svg>
