<svg viewBox="0 0 48 48" xmlns="http://www.w3.org/2000/svg">
  <path fill="#1e1e1c" d="M38.63 31.15c-3.49 0-6.48 2.16-7.74 5.21h-3.92V4.52l21.02-.02V0L22.47.02v36.93L1.6 43.57a2.24 2.24 0 0 0-1.46 2.82c.3.96 1.19 1.57 2.14 1.57.23 0 .46-.03.68-.11l22.1-7h5.29c.62 4.04 4.09 7.15 8.27 7.15s7.66-3.11 8.27-7.15h1.08v-4.5h-1.61c-1.26-3.05-4.25-5.21-7.74-5.21Zm0 12.36c-2.14 0-3.88-1.76-3.88-3.93s1.74-3.93 3.88-3.93 3.88 1.76 3.88 3.93-1.74 3.93-3.88 3.93m9.36-22.73v4.5H33.35V9.09h14.63v4.5H37.85v7.19zm-36.31 1.5H-.01v-4.5h11.69L7.73 13.8c-.88-.88-.87-2.31.01-3.18s2.31-.87 3.18.01l9.32 9.4-9.32 9.4c-.44.44-1.02.67-1.6.67s-1.15-.22-1.58-.65c-.88-.87-.89-2.3-.01-3.18l3.95-3.98Z"/>
</svg>
