<svg viewBox="0 0 32 32" xmlns="http://www.w3.org/2000/svg">
  <path fill="#1e1e1c" d="M25.5 21.46c-2.32 0-4.27 1.52-4.97 3.62h-3.69V2.01h15.13V0H14.84v25.36L.67 30.04c-.52.17-.81.74-.63 1.26.14.42.53.69.95.69.1 0 .21-.02.31-.05L16 27.07h4.28c.19 2.74 2.44 4.91 5.22 4.91s5.03-2.17 5.22-4.91h1.24v-2h-1.49c-.69-2.09-2.65-3.62-4.97-3.62Zm0 8.52a3.26 3.26 0 1 1 .001-6.521 3.26 3.26 0 0 1-.001 6.521M24.4 8.26v6.06h7.58v2H22.4V6.26h9.59v2zM9.84 14.37H-.01v-2h9.85L6.37 8.9c-.39-.39-.39-1.02 0-1.42a.996.996 0 0 1 1.41 0l5.87 5.89-5.87 5.89c-.2.2-.45.29-.71.29s-.51-.1-.71-.29c-.39-.39-.39-1.02 0-1.42l3.47-3.47Z"/>
</svg>
