<svg viewBox="0 0 24 24" xmlns="http://www.w3.org/2000/svg">
  <path fill="#1e1e1c" d="M19.48 15.01c-1.77 0-3.29 1.04-4.02 2.53h-1.25V2.99h9.81V-.02h-12.8v17.94L1.11 21.05a1.497 1.497 0 0 0 .44 2.93c.15 0 .3-.02.44-.07l10.95-3.39h2.2c.47 1.97 2.24 3.44 4.35 3.44s3.87-1.47 4.35-3.44h.18v-3h-.51c-.73-1.49-2.25-2.53-4.02-2.53Zm0 5.96c-.82 0-1.48-.67-1.48-1.48s.67-1.48 1.48-1.48 1.48.67 1.48 1.48-.67 1.48-1.48 1.48m.03-13.6v2.64h4.52v3h-7.51V4.37h7.52v3h-4.52ZM4.73 11.68H.03v-3h4.71L3.42 7.36a1.49 1.49 0 0 1 0-2.12 1.49 1.49 0 0 1 2.12 0l4.94 4.94-4.94 4.94c-.29.29-.68.44-1.06.44s-.77-.15-1.06-.44a1.49 1.49 0 0 1 0-2.12l1.32-1.32Z"/>
</svg>
