<svg viewBox="0 0 16 16" xmlns="http://www.w3.org/2000/svg">
  <path fill="#1e1e1c" d="M7.1 0v12.33l-6.6 2.2c-.39.13-.6.56-.47.95.11.31.4.51.71.51.08 0 .16-.01.24-.04l6.99-2.35h1.79c.21 1.34 1.37 2.37 2.77 2.37s2.56-1.03 2.77-2.37h.68v-1.5h-.85c-.42-1.02-1.43-1.75-2.6-1.75s-2.18.72-2.6 1.75H8.6V1.49h7.38V0zm5.44 11.86c.72 0 1.31.59 1.31 1.31s-.59 1.31-1.31 1.31-1.31-.59-1.31-1.31.59-1.31 1.31-1.31m-1.78-8.85h5.22v1.5h-3.72v2.4h3.72v1.5h-5.22zM3.62 7.53H-.01v-1.5h3.63L2.36 4.78c-.29-.29-.29-.77 0-1.06s.77-.29 1.06 0l3.07 3.06-3.07 3.06c-.15.15-.34.22-.53.22s-.38-.07-.53-.22a.754.754 0 0 1 0-1.06z"/>
</svg>
