<svg viewBox="0 0 64 64" xmlns="http://www.w3.org/2000/svg">
  <path d="M47.29.02c-9.21 0-16.7 7.49-16.7 16.7 0 11.39 15.08 26.61 15.73 27.25l.97.97.97-.97c.64-.64 15.73-15.86 15.73-27.25 0-9.21-7.49-16.7-16.7-16.7m0 40.99c-3.31-3.54-13.95-15.59-13.95-24.29 0-7.69 6.26-13.95 13.95-13.95s13.95 6.26 13.95 13.95c0 8.7-10.63 20.75-13.95 24.29m0-30.42c-3.42 0-6.2 2.78-6.2 6.21s2.78 6.21 6.2 6.21 6.21-2.78 6.21-6.21-2.78-6.21-6.21-6.21m0 9.67c-1.9 0-3.45-1.55-3.45-3.45s1.55-3.46 3.45-3.46 3.45 1.55 3.45 3.46-1.55 3.45-3.45 3.45M11.4 24.18c-.67-.65-1.53-.97-2.4-.97-.89 0-1.79.35-2.46 1.03L.98 29.92a3.45 3.45 0 0 0 .06 4.89l29.13 28.28 11.65.93-1.26-11.53zm-8.66 8.16c0-.13.03-.32.2-.5l5.57-5.68c.17-.17.36-.21.5-.21s.32.03.48.2l2.4 2.33-6.57 6.64-2.36-2.29a.7.7 0 0 1-.21-.49Zm28.63 28.08-.98-.95 6.5-6.67-1.97-1.92-6.51 6.67L7.29 37.04l6.57-6.64 24.07 23.37.79 7.24z"/>
</svg>
