<svg viewBox="0 0 32 32" xmlns="http://www.w3.org/2000/svg">
  <path d="M32 23.09C32 28.01 24.84 32 16 32S0 28.01 0 23.09c0-2.97 2.62-5.6 6.64-7.22.52 1.05 1.12 2.08 1.76 3.06-.72.27-1.4.57-2.01.91-1.78.99-2.89 2.24-2.89 3.25 0 2.16 4.99 5.41 12.5 5.41 3.63 0 7.14-.79 9.61-2.17 1.78-.99 2.89-2.24 2.89-3.25 0-1.3-1.82-3-4.91-4.14.64-.99 1.24-2.02 1.77-3.08 4.02 1.62 6.64 4.25 6.64 7.22Zm-16 2.52S6.57 16.17 6.57 9.43c0-.98.15-1.92.42-2.81a9.4 9.4 0 0 1 1.19-2.47c.34-.5.73-.97 1.15-1.4.43-.43.89-.81 1.4-1.15C12.24.58 14.05-.01 16-.01s3.77.59 5.27 1.61c.5.34.97.73 1.4 1.15.43.43.81.89 1.15 1.4a9.3 9.3 0 0 1 1.61 5.28C25.43 16.17 16 25.6 16 25.6Zm0-12.32c2.07 0 3.75-1.68 3.75-3.75S18.07 5.79 16 5.79s-3.75 1.68-3.75 3.75 1.68 3.75 3.75 3.75"/>
</svg>
