<svg viewBox="0 0 24 24" xmlns="http://www.w3.org/2000/svg">
  <path d="M16.75 4.42c-1.58 0-2.87 1.29-2.87 2.87s1.29 2.87 2.87 2.87 2.87-1.29 2.87-2.87-1.29-2.87-2.87-2.87m0 3.99c-.62 0-1.12-.5-1.12-1.12s.5-1.12 1.12-1.12 1.12.5 1.12 1.12-.5 1.12-1.12 1.12m0-8.41c-4 0-7.25 3.26-7.25 7.25 0 .09.01.19.02.28a6.46 6.46 0 0 0-5.92 6.43c0 .81.16 1.59.43 2.31L.76 19.54a2.63 2.63 0 0 0 0 3.71c.5.49 1.15.77 1.85.77s1.36-.27 1.85-.77l3.27-3.27c.72.28 1.5.44 2.32.44 2.11 0 3.99-1.02 5.17-2.6.5.56.85.91.91.97l.62.62.62-.62c.27-.27 6.63-6.68 6.63-11.53-.01-4-3.26-7.26-7.25-7.26M3.23 22.01c-.33.33-.9.33-1.23 0a.87.87 0 0 1 0-1.23l2.92-2.92c.35.47.77.88 1.23 1.23zm6.82-3.34c-2.6 0-4.71-2.11-4.71-4.71s2.11-4.71 4.71-4.71 4.71 2.11 4.71 4.71-2.11 4.71-4.71 4.71m6.7-1.77c-.18-.2-.4-.44-.64-.72.26-.69.4-1.44.4-2.22 0-3.14-2.26-5.76-5.23-6.33-.01-.13-.03-.25-.03-.38 0-3.03 2.47-5.5 5.5-5.5s5.5 2.46 5.5 5.5c0 3.34-3.94 7.96-5.5 9.65"/>
</svg>
