<svg viewBox="0 0 48 48" xmlns="http://www.w3.org/2000/svg">
  <path d="M47.99 14.23c0 9.67-12.79 22.57-13.34 23.11l-.88.88-.88-.88-.02-.02c1.96-2.64 3.14-5.9 3.14-9.43 0-3.04-.88-5.88-2.37-8.29.04 0 .08.01.13.01 2.93 0 5.32-2.38 5.32-5.31s-2.38-5.31-5.32-5.31-5.32 2.38-5.32 5.31c0 .04.01.08.01.11-2.42-1.5-5.27-2.39-8.33-2.39-.14 0-.27.02-.4.02C20.79 5.24 26.67.01 33.77.01c7.84 0 14.22 6.38 14.22 14.22M33.75 27.89c0 7.51-6.11 13.61-13.62 13.61-2.2 0-4.27-.54-6.11-1.46L7.3 46.76c-.84.84-1.93 1.25-3.03 1.25s-2.2-.42-3.03-1.25a4.29 4.29 0 0 1 0-6.06l6.73-6.72c-.92-1.83-1.45-3.9-1.45-6.09 0-7.51 6.11-13.61 13.62-13.61s13.62 6.11 13.62 13.61Zm-4.5 0c0-5.02-4.09-9.11-9.12-9.11s-9.12 4.09-9.12 9.11S15.1 37 20.13 37s9.12-4.09 9.12-9.11"/>
</svg>
