<svg viewBox="0 0 32 32" xmlns="http://www.w3.org/2000/svg">
  <path fill="#1e1e1c" d="M24.02 0c-4.41 0-7.99 3.58-7.99 7.98 0 1.72.72 3.61 1.71 5.39H0V32h23.96V21.3l.06.06.71-.71c.3-.3 7.28-7.33 7.28-12.67C32 3.58 28.42 0 24.02 0m-5.04 15.38q.36.525.72 1.02l-6.23 6.68c-.8.86-2.17.86-2.98 0l-7.19-7.7h15.67ZM2 16.91l5.41 5.79L2 28.1V16.9ZM2.94 30l5.84-5.83.25.27a3.994 3.994 0 0 0 5.9 0l.25-.27L21.02 30zm13.61-7.29L20.94 18c.36.45.71.85 1.02 1.2v8.91zm7.47-4.21c-2.15-2.34-5.98-7.18-5.98-10.52S20.72 2 24.02 2 30 4.68 30 7.98s-3.83 8.18-5.98 10.52m0-13.73c-1.79 0-3.25 1.46-3.25 3.25s1.46 3.25 3.25 3.25 3.25-1.46 3.25-3.25-1.46-3.25-3.25-3.25m0 4.5a1.25 1.25 0 1 1 0-2.5 1.25 1.25 0 0 1 0 2.5"/>
</svg>
