<svg viewBox="0 0 64 64" xmlns="http://www.w3.org/2000/svg">
  <path d="M13.82 26.53 3.38 37.08l-2.34-2.27a3.446 3.446 0 0 1-.05-4.89l5.57-5.68q.255-.255.54-.45c.06-.04.13-.07.2-.11.13-.08.26-.16.4-.21.08-.03.17-.05.25-.08.13-.04.26-.09.39-.12.09-.02.19-.02.28-.03.13-.01.25-.04.38-.04h.02c.12 0 .23.02.35.03.09 0 .19 0 .28.03.13.02.25.07.38.11.08.03.17.04.25.07.14.05.27.13.4.2.07.04.14.06.2.1a4 4 0 0 1 .54.43l2.42 2.35Zm1.98 1.92L5.36 39l21.15 20.53L36.87 48.9zm23.04 22.37L28.48 61.45l1.69 1.64 11.65.93-1.26-11.53zm9.83-39.27c-2.14 0-3.89 1.74-3.89 3.89s1.74 3.89 3.89 3.89 3.89-1.74 3.89-3.89-1.74-3.89-3.89-3.89m15.32 3.8c0 9.6-11.81 22.9-15.32 26.65-3.51-3.74-15.32-17.04-15.32-26.65C33.35 6.9 40.23.02 48.67.02S63.99 6.9 63.99 15.35m-8.68.09c0-3.66-2.98-6.64-6.64-6.64s-6.64 2.98-6.64 6.64 2.98 6.64 6.64 6.64 6.64-2.98 6.64-6.64"/>
</svg>
