<svg viewBox="0 0 48 48" xmlns="http://www.w3.org/2000/svg">
  <path fill="#1e1e1c" d="M35.57 0c-6.85 0-12.42 5.58-12.42 12.43 0 3.94 2.43 8.48 5.06 12.25l-4.71-.72-5.59-11.9-5.59 11.9L0 25.85 8.92 35 6.8 48.01l11.12-6.15 11.12 6.15L26.92 35l5.19-5.32c1.4 1.62 2.44 2.67 2.57 2.8l.88.88.88-.88c.47-.47 11.54-11.64 11.54-20.04C48 5.58 42.42 0 35.57 0M24.25 34.15l1.5 9.17-7.82-4.33-7.83 4.33 1.5-9.17-6.41-6.57 8.85-1.35 3.89-8.29 3.89 8.29 8.54 1.3c.05.07.11.13.16.2l-6.26 6.41Zm11.32-4.38c-2.58-2.78-9.92-11.24-9.92-17.34 0-5.47 4.45-9.93 9.92-9.93s9.92 4.45 9.92 9.93c0 6.11-7.34 14.56-9.92 17.34m0-22.05c-2.63 0-4.77 2.14-4.77 4.77s2.14 4.77 4.77 4.77 4.77-2.14 4.77-4.77-2.14-4.77-4.77-4.77m0 7.04c-1.25 0-2.27-1.02-2.27-2.27s1.02-2.27 2.27-2.27 2.27 1.02 2.27 2.27-1.02 2.27-2.27 2.27"/>
</svg>
