<svg viewBox="0 0 16 16" xmlns="http://www.w3.org/2000/svg">
  <path fill="#1e1e1c" d="M2.77 7.46H0l3.36-2.77h2.56L2.78 7.46ZM0 8.96h7.04V16H0zm3.63 3.43h1.88v-1.88H3.63zm4.91-3.94v7.1l2.73-2.84v-2.52c-.54-.62-1.28-1.52-1.95-2.53zm-.65-3.76h-.44L4.38 7.46h3.04l1.13-1.14a8.4 8.4 0 0 1-.66-1.64Zm8.1-1.29c0 1.88-2.12 4.61-3.4 6.02-.91-1.01-2.23-2.68-2.93-4.23-.28-.63-.47-1.25-.47-1.79C9.2 1.52 10.72 0 12.6 0S16 1.53 16 3.4Zm-2.11.02c0-.71-.57-1.28-1.28-1.28s-1.28.58-1.28 1.28.57 1.28 1.28 1.28 1.28-.58 1.28-1.28"/>
</svg>
