<svg viewBox="0 0 64 64" xmlns="http://www.w3.org/2000/svg">
  <path d="M39.14 23.8c0-3.95-3.21-7.16-7.16-7.16-3.1 0-5.74 1.99-6.73 4.75l-2.09-2.09c1.64-3.21 4.97-5.41 8.82-5.41 5.46 0 9.91 4.44 9.91 9.91 0 3.84-2.2 7.18-5.41 8.82l-2.09-2.09c2.76-.99 4.75-3.63 4.75-6.73M31.98 2.75c11.54 0 20.93 9.39 20.93 20.93 0 5.71-3.07 12.36-6.91 18.46l2.01 2.01c4.21-6.6 7.65-13.98 7.65-20.46C55.66 10.62 45.04 0 31.98 0 24.32 0 17.5 3.66 13.17 9.31l1.98 1.98c3.81-5.17 9.93-8.54 16.83-8.54m0 57.18c-4.25-4.48-20.93-22.94-20.93-36.26 0-2.59.49-5.06 1.36-7.35l-2.12-2.12a23.6 23.6 0 0 0-1.98 9.48c0 16.32 21.78 38.28 22.71 39.21l.97.97.97-.97c.47-.47 6.28-6.33 11.9-14.12l-1.99-1.99c-4.37 6.09-8.94 11.1-10.88 13.15ZM1.95 0 0 1.94l62.05 62.05L64 62.04z"/>
</svg>
