<svg viewBox="0 0 40 40" xmlns="http://www.w3.org/2000/svg">
  <path fill="#1e1e1c" d="M8.11 19.42H0l9.01-8.04h7.09zM0 21.67h18.39V40H0zm10.94 7.55h4.5v-4.49h-4.5zm9.13-17.84h-.79l-7.99 8.04h7.77l3.01-3.03c-.89-1.66-1.61-3.36-1.99-5.02Zm.58 9.63v18.2l7.97-7.57v-6.21c-1.45-1.61-3.58-4.16-5.38-7.03L20.65 21Zm10.3 3.78c-.6-.64-1.49-1.63-2.47-2.82-.28-.34-.57-.7-.86-1.08-.06-.07-.11-.15-.17-.22-.25-.33-.51-.67-.77-1.01-.05-.07-.1-.13-.15-.2-.62-.86-1.24-1.76-1.81-2.69-.41-.67-.8-1.35-1.15-2.04-.07-.14-.13-.28-.2-.42-.09-.19-.19-.39-.27-.58-.08-.17-.15-.35-.22-.52-.06-.15-.12-.3-.17-.44-.49-1.29-.8-2.56-.8-3.74C21.9 4.05 25.96 0 30.95 0S40 4.05 40 9.02c0 5.55-6.71 13.24-9.05 15.76ZM27.32 9.08c0 2 1.63 3.62 3.64 3.62s3.64-1.63 3.64-3.62-1.63-3.62-3.64-3.62-3.64 1.63-3.64 3.62"/>
</svg>
