<svg viewBox="0 0 64 64" xmlns="http://www.w3.org/2000/svg">
  <path d="M45.15 12.09c-3.78 0-6.85 3.07-6.85 6.85s3.07 6.85 6.85 6.85S52 22.72 52 18.94s-3.07-6.85-6.85-6.85m0 10.94c-2.26 0-4.1-1.84-4.1-4.09s1.84-4.09 4.1-4.09 4.1 1.84 4.1 4.09-1.84 4.09-4.1 4.09m0-23.02c-10.39 0-18.84 8.45-18.84 18.84 0 .57.04 1.15.11 1.74-9.02.2-16.3 7.59-16.3 16.65 0 2.6.62 5.05 1.68 7.25L1.58 54.7a5.462 5.462 0 0 0 3.86 9.32c1.4 0 2.8-.53 3.86-1.6l10.21-10.2c2.2 1.07 4.67 1.69 7.28 1.69 5.91 0 11.1-3.1 14.06-7.74 1.82 2.06 3.13 3.38 3.32 3.57l.97.97.97-.97c.73-.73 17.86-18 17.86-30.9C63.99 8.46 55.54.01 45.15.01M7.36 60.47a2.704 2.704 0 0 1-3.83 0 2.704 2.704 0 0 1 0-3.83l9.72-9.71c1.06 1.48 2.35 2.77 3.83 3.83zm19.44-9.31c-7.68 0-13.93-6.24-13.93-13.92s6.25-13.92 13.93-13.92 13.93 6.25 13.93 13.92-6.25 13.92-13.93 13.92m18.35-4.38c-.7-.74-1.72-1.86-2.92-3.25.8-1.95 1.24-4.07 1.24-6.3 0-8.37-6.21-15.3-14.26-16.48-.09-.65-.15-1.29-.15-1.91 0-8.87 7.22-16.08 16.09-16.08s16.09 7.21 16.09 16.08c0 10.1-12.47 24.09-16.09 27.94"/>
</svg>
