<svg viewBox="0 0 24 24" xmlns="http://www.w3.org/2000/svg">
  <path fill="#1e1e1c" d="M12 .01c-4.93 0-8.94 4.01-8.94 8.94 0 6.05 7.98 14.1 8.32 14.44l.62.62.62-.62c.34-.34 8.32-8.39 8.32-14.44 0-4.93-4.01-8.94-8.94-8.94m0 21.5c-1.85-1.99-7.19-8.12-7.19-12.56 0-3.96 3.23-7.19 7.19-7.19s7.19 3.23 7.19 7.19c0 4.43-5.34 10.57-7.19 12.56m0-16.64c-2.27 0-4.12 1.85-4.12 4.12s1.85 4.12 4.12 4.12 4.12-1.85 4.12-4.12S14.27 4.87 12 4.87m0 6.5c-1.31 0-2.38-1.07-2.38-2.37S10.69 6.63 12 6.63 14.38 7.7 14.38 9s-1.07 2.37-2.38 2.37"/>
</svg>
