<svg viewBox="0 0 40 40" xmlns="http://www.w3.org/2000/svg">
  <path d="M39.99 11.84c0 8.06-10.64 18.79-11.09 19.24l-.8.8-.61-.61a13.33 13.33 0 0 0 2.74-8.09c0-2.48-.69-4.81-1.87-6.81 2.36-.13 4.24-2.08 4.24-4.47s-2.02-4.5-4.5-4.5-4.33 1.88-4.47 4.23a13.4 13.4 0 0 0-6.84-1.89c-.13 0-.26.02-.39.02 1-5.56 5.86-9.81 11.7-9.81 6.56 0 11.89 5.33 11.89 11.88ZM28.23 23.17c0 6.3-5.13 11.43-11.43 11.43-1.83 0-3.55-.44-5.08-1.21l-5.49 5.49c-.69.69-1.6 1.07-2.58 1.07s-1.89-.38-2.58-1.07S0 37.28 0 36.3s.38-1.89 1.07-2.58l5.5-5.5c-.76-1.53-1.2-3.24-1.2-5.06 0-6.3 5.13-11.43 11.43-11.43s11.43 5.13 11.43 11.43Zm-4.01 0c0-4.09-3.33-7.42-7.43-7.42s-7.43 3.33-7.43 7.42 3.33 7.42 7.43 7.42 7.43-3.33 7.43-7.42"/>
</svg>
