<svg viewBox="0 0 32 32" xmlns="http://www.w3.org/2000/svg">
  <path fill="#1e1e1c" d="M6.75 15.35H.98l7.08-6.33h4.97zm-6.77 2h14.67v14.67H-.02zm8.39 6.32h3.53v-3.53H8.37zm8.08-14.66h-.6l-6.28 6.33h5.67l2.67-2.69c-.64-1.2-1.16-2.44-1.46-3.64m.21 7.75v14.49l6.26-5.96v-5.66c-1.1-1.24-2.63-3.11-3.96-5.2l-2.3 2.32Zm15.32-9.84c0 4.22-5.03 10.07-6.92 12.11-.96-1.03-2.24-2.54-3.43-4.21 0 0-.01-.02-.02-.02-1.32-1.85-2.53-3.91-3.1-5.79-.22-.73-.36-1.43-.36-2.09.01-3.81 3.11-6.91 6.92-6.91s6.91 3.1 6.91 6.91m-4.41.05a2.5 2.5 0 0 0-5 0 2.5 2.5 0 0 0 5 0"/>
</svg>
