<svg viewBox="0 0 48 48" xmlns="http://www.w3.org/2000/svg">
  <path fill="#1e1e1c" d="M9.02 23.49H.01L11 13.65h7.76zm6.63 8.99h.16v-.16h-.16zM0 25.99h21.98v21.99H0zm13.15 8.99h5.16v-5.16h-5.16zm10.33-21.32h-1.21l-9.74 9.84h10.18L26 20.18c-1.16-2.15-2.09-4.37-2.52-6.51Zm1.01 11.6v21.92l9.75-9.29v-6.45c-1.78-1.96-4.59-5.29-6.93-9.04l-2.83 2.85Zm23.52-14.12c0 6.91-8.37 16.47-11.15 19.45a75 75 0 0 1-5.22-6.27 51 51 0 0 1-2.52-3.74c-.45-.75-.88-1.5-1.28-2.26-.14-.28-.28-.56-.41-.84-.07-.15-.15-.3-.21-.46-.12-.27-.23-.54-.34-.81-.06-.15-.12-.31-.18-.46-.1-.28-.2-.55-.29-.82l-.12-.41c-.35-1.16-.57-2.3-.57-3.38C25.71 4.99 30.71-.02 36.86-.02s11.15 5 11.15 11.15Zm-6.91.06c0-2.34-1.91-4.25-4.25-4.25S32.6 8.86 32.6 11.2s1.91 4.25 4.25 4.25 4.25-1.91 4.25-4.25"/>
</svg>
