<svg viewBox="0 0 64 64" xmlns="http://www.w3.org/2000/svg">
  <path fill="#1e1e1c" d="M42.83 39.57 36 46.58l2.84 17.43-14.87-8.23L9.1 64.01l2.84-17.43L-.03 34.32l16.52-2.53 7.46-15.92 7.46 15.92 6.21.95a88 88 0 0 0 5.2 6.83Zm.34-3.96s-.04-.05-.06-.08c-4.53-5.76-9.76-13.79-9.76-20.18C33.35 6.89 40.22.01 48.66.01s15.31 6.88 15.31 15.33c0 9.61-11.8 22.91-15.31 26.65a96 96 0 0 1-4.64-5.33l-.14-.17c-.23-.29-.47-.59-.71-.89Zm-1.14-20.18c0 3.66 2.98 6.64 6.63 6.64s6.63-2.98 6.63-6.64-2.98-6.64-6.63-6.64-6.63 2.98-6.63 6.64"/>
</svg>
