<svg viewBox="0 0 24 24" xmlns="http://www.w3.org/2000/svg">
  <path d="M18.09 0c-3.27 0-5.93 2.67-5.93 5.94 0 3.94 5.09 9.09 5.31 9.31l.62.62.62-.62c.22-.22 5.31-5.37 5.31-9.31 0-3.27-2.66-5.94-5.93-5.94m0 8.22c-1.24 0-2.24-1.01-2.24-2.25s1.01-2.25 2.24-2.25 2.24 1.01 2.24 2.25-1.01 2.25-2.24 2.25m-7.57 9.62 2.95.5a6.77 6.77 0 0 1-6.68 5.65C3.06 24 .02 20.95.02 17.2s3.04-6.8 6.78-6.8c1.2 0 2.35.31 3.36.9a1.495 1.495 0 0 1 2.98.16v4.59H8.12c-.83 0-1.5-.67-1.5-1.5 0-.44.2-.84.5-1.11-.11 0-.21-.03-.32-.03-2.09 0-3.78 1.7-3.78 3.79s1.7 3.79 3.78 3.79a3.77 3.77 0 0 0 3.73-3.15Z"/>
</svg>
