<svg viewBox="0 0 24 24" xmlns="http://www.w3.org/2000/svg">
  <path fill="#1e1e1c" d="M4.84 11.38H.24l5.65-4.94h3.84zM0 13.13h10.87V24H0zm6.11 4.79h2.91v-2.91H6.11zM11.85 6.8l-4.54 4.58h4.07l1.61-1.63c-.52-.98-.92-1.98-1.15-2.95Zm.77 5.82v11.29l4.88-4.76V15.9c-.81-.87-2.3-2.58-3.59-4.58zm6.08 2c-.36-.39-.77-.86-1.2-1.38-.18-.22-.36-.44-.54-.67-.04-.04-.07-.09-.1-.14-.17-.22-.35-.45-.52-.69 0-.01-.02-.02-.02-.03-.39-.54-.78-1.1-1.13-1.67-.52-.84-.98-1.7-1.3-2.54-.02-.05-.04-.1-.05-.14-.11-.31-.21-.61-.28-.91-.09-.4-.15-.78-.15-1.14C13.4 2.38 15.78 0 18.7 0S24 2.38 24 5.3s-3.4 7.25-5.3 9.32m-2.13-9.29c0 1.17.95 2.13 2.13 2.13s2.13-.95 2.13-2.13-.95-2.13-2.13-2.13-2.13.95-2.13 2.13"/>
</svg>
