<svg viewBox="0 0 32 32" xmlns="http://www.w3.org/2000/svg">
  <path fill="#1e1e1c" d="M16-.02c-6.56 0-11.89 5.34-11.89 11.9 0 8.11 10.73 18.94 11.18 19.39l.71.71.71-.71c.46-.46 11.18-11.28 11.18-19.39 0-6.56-5.33-11.9-11.89-11.9m0 29.14c-2.37-2.54-9.89-11.07-9.89-17.24 0-5.45 4.44-9.89 9.89-9.89s9.89 4.44 9.89 9.9c0 6.16-7.52 14.7-9.89 17.24Zm0-22.43c-2.89 0-5.25 2.36-5.25 5.25s2.36 5.25 5.25 5.25 5.25-2.36 5.25-5.25S18.89 6.69 16 6.69m0 8.5c-1.79 0-3.25-1.46-3.25-3.25S14.21 8.69 16 8.69s3.25 1.46 3.25 3.25-1.46 3.25-3.25 3.25"/>
</svg>
