<svg viewBox="0 0 40 40" xmlns="http://www.w3.org/2000/svg">
  <path fill="#1e1e1c" d="M40 10.2C40 4.58 35.43 0 29.81 0S19.62 4.57 19.62 10.2c0 2.11.86 4.43 2.05 6.65H0v23.16h29.82V27.34l.79-.79c.38-.38 9.39-9.48 9.39-16.35M29.81 2.26c4.38 0 7.94 3.56 7.94 7.94 0 4.86-5.78 11.58-7.94 13.91-2.15-2.34-7.94-9.06-7.94-13.91 0-4.38 3.56-7.94 7.94-7.94m-6.8 16.84c.43.66.87 1.3 1.31 1.91l-7.45 8a2.686 2.686 0 0 1-3.93 0L3.71 19.1zM2.25 20.83l7.1 7.62-7.1 7.11zm.99 16.92 7.65-7.65.41.44c.96 1.03 2.24 1.6 3.61 1.6s2.65-.57 3.61-1.6l.41-.44 7.65 7.65zm17.23-9.3 5.25-5.63c.68.85 1.32 1.59 1.85 2.18v10.56zm13.32-18.2c0-2.2-1.79-3.98-3.98-3.98s-3.98 1.79-3.98 3.98 1.79 3.98 3.98 3.98 3.98-1.79 3.98-3.98m-5.71 0c0-.96.78-1.73 1.73-1.73s1.73.78 1.73 1.73-.78 1.73-1.73 1.73-1.73-.78-1.73-1.73"/>
</svg>
