<svg viewBox="0 0 48 48" xmlns="http://www.w3.org/2000/svg">
  <path fill="#1e1e1c" d="m32.22 29.29-5.45 5.64 2.11 13.06-11.06-6.17-11.06 6.17 2.11-13.06L0 25.75l12.27-1.89 5.55-11.95 5.55 11.95 5.37.83c1.17 1.71 2.39 3.28 3.48 4.6m4.66 1.54c-.69-.75-1.74-1.92-2.91-3.35-.06-.07-.12-.15-.18-.23-3.5-4.31-8.03-10.88-8.03-16.02C25.76 5.04 30.75 0 36.88 0S48 5.04 48 11.24c0 6.96-8.35 16.59-11.12 19.6ZM31.74 11.3c0 2.86 2.31 5.19 5.14 5.19s5.14-2.33 5.14-5.19-2.3-5.19-5.14-5.19-5.14 2.33-5.14 5.19"/>
</svg>
