<svg viewBox="0 0 24 24" xmlns="http://www.w3.org/2000/svg">
  <path d="M17.97 0c-3.33 0-6.04 2.72-6.04 6.06 0 4.01 5.2 9.27 5.42 9.49l.62.62.62-.62c.22-.22 5.42-5.48 5.42-9.49.01-3.34-2.7-6.06-6.04-6.06m0 13.66c-1.6-1.76-4.29-5.22-4.29-7.6s1.93-4.3 4.29-4.3 4.29 1.93 4.29 4.3-2.7 5.85-4.29 7.6m0-10.03c-1.35 0-2.45 1.1-2.45 2.45s1.1 2.45 2.45 2.45 2.45-1.1 2.45-2.45-1.1-2.45-2.45-2.45m0 3.16c-.39 0-.7-.32-.7-.7s.32-.7.7-.7.7.32.7.7-.32.7-.7.7m-13.08.17c-.29-.28-.66-.42-1.03-.42-.38 0-.76.15-1.05.44L.44 9.41c-.57.58-.56 1.52.03 2.09l12.45 12.1 4.98.4-.54-4.93zm9.26 11.44-1.99 2.04L4 12.51l2-2.03 8.14 7.91ZM3.87 8.41l.89.86-2 2.03-.88-.85 1.99-2.03Zm9.81 13.5-.26-.25 1.99-2.04.27.27.24 2.2-2.25-.18Z"/>
</svg>
