<svg viewBox="0 0 24 24" xmlns="http://www.w3.org/2000/svg">
  <path fill="#1e1e1c" d="M24 6.06C24 2.72 21.28 0 17.94 0s-6.05 2.71-6.05 6.05c0 1.21.48 2.53 1.14 3.8H0V24h18.12v-8.01l.44-.44c.22-.22 5.43-5.48 5.43-9.49Zm-6.06-4.31c2.37 0 4.3 1.93 4.3 4.3s-2.7 5.85-4.3 7.6c-1.6-1.76-4.3-5.22-4.3-7.6s1.93-4.3 4.3-4.3m-3.85 9.85c.16.24.33.47.49.7l-4.5 4.83c-.55.59-1.48.59-2.03 0L2.89 11.6zM1.75 12.95l3.72 3.99-3.72 3.72zm.88 9.3 4.04-4.03.1.1c.61.65 1.42 1.01 2.3 1.01s1.67-.36 2.28-1l3.92 3.92zm9.91-5.19 3.13-3.36c.25.3.49.59.7.82v6.36l-3.83-3.83ZM20.4 6.08c0-1.35-1.1-2.45-2.45-2.45s-2.45 1.1-2.45 2.45 1.1 2.45 2.45 2.45 2.45-1.1 2.45-2.45m-3.16 0c0-.39.32-.7.7-.7s.7.32.7.7-.32.7-.7.7-.7-.32-.7-.7"/>
</svg>
