<svg viewBox="0 0 16 16" xmlns="http://www.w3.org/2000/svg">
  <path d="M4.87 2.76 3.81 1.7A5.96 5.96 0 0 1 7.95.02c3.3 0 5.98 2.68 5.98 5.98 0 1.39-.63 2.92-1.46 4.35l-1.1-1.1C12 8.11 12.43 6.97 12.43 6c0-2.47-2.01-4.47-4.48-4.47-1.19 0-2.27.48-3.08 1.24Zm3.08 11.11C6.34 12.12 3.47 8.49 3.47 6c0-.12.03-.24.04-.36l-1.3-1.3c-.15.53-.24 1.08-.24 1.66 0 4 5.23 9.26 5.45 9.48l.53.53.53-.53c.1-.1 1.13-1.14 2.27-2.61L9.68 11.8c-.61.81-1.23 1.53-1.73 2.07m2.03-6c.44-.49.72-1.13.72-1.84 0-1.52-1.23-2.75-2.75-2.75-.71 0-1.35.28-1.84.72l1.07 1.07c.21-.17.48-.29.77-.29.69 0 1.25.56 1.25 1.25 0 .3-.12.56-.29.77zM1.07.01 0 1.07l14.94 14.92L16 14.93z"/>
</svg>
