<svg viewBox="0 0 16 16" xmlns="http://www.w3.org/2000/svg">
  <path d="M11.99 0C9.78 0 7.98 1.8 7.98 4.01c0 2.56 3.12 5.76 3.48 6.11l.53.53.53-.53C12.88 9.76 16 6.57 16 4.01 16 1.8 14.2 0 11.99 0m0 8.5c-1-1.12-2.51-3.12-2.51-4.49s1.13-2.51 2.51-2.51 2.51 1.13 2.51 2.51-1.51 3.36-2.51 4.49m1.32-4.47c0 .72-.59 1.31-1.32 1.31s-1.32-.59-1.32-1.31.59-1.32 1.32-1.32 1.32.59 1.32 1.32m-9.96.34a.583.583 0 0 0-.81.01L.17 6.8a.57.57 0 0 0 .01.81l8.57 8.31 3.35.08-.18-3.32zm5.89 7.81-1.07 1.09L3.46 8.7l1.08-1.09 4.7 4.56ZM2.97 6.09l.49.48-1.08 1.09-.49-.47L2.96 6.1Zm6.4 8.34-.12-.12 1.07-1.09.13.13.06 1.11z"/>
</svg>
