<svg viewBox="0 0 48 48" xmlns="http://www.w3.org/2000/svg">
  <path d="m10.22 19.76-7.83 7.91-1.6-1.55c-.13-.12-.24-.26-.34-.4-.29-.43-.44-.92-.45-1.42 0-.66.24-1.33.74-1.84l4.17-4.25c.13-.13.26-.24.4-.34.04-.03.09-.05.14-.08.1-.06.2-.12.31-.17l.18-.06c.1-.03.19-.07.3-.09.07-.01.14-.01.21-.02.1-.01.19-.03.29-.03h.02c.09 0 .17.02.26.02.07 0 .14 0 .21.02.1.02.19.05.29.08.06.02.13.03.19.05.1.04.2.1.3.15.05.03.1.05.15.08.14.09.28.2.41.32l1.66 1.61Zm1.8 1.74-7.83 7.91L19.72 44.5l7.76-7.97L12.01 21.5Zm17.26 16.77-7.76 7.97 1.11 1.08 8.73.7-.94-8.64-1.13-1.1ZM36.84 8.6c-1.47 0-2.67 1.2-2.67 2.67s1.2 2.67 2.67 2.67 2.67-1.2 2.67-2.67-1.2-2.67-2.67-2.67m11.18 2.6c0 6.93-8.4 16.53-11.18 19.52-2.78-2.99-11.18-12.59-11.18-19.52C25.66 5.03 30.67.01 36.84.01S48.02 5.03 48.02 11.2m-6.02.07c0-2.85-2.32-5.17-5.17-5.17s-5.17 2.32-5.17 5.17 2.32 5.17 5.17 5.17S42 14.12 42 11.27"/>
</svg>
