<svg viewBox="0 0 32 32" xmlns="http://www.w3.org/2000/svg">
  <path d="M24.17.01c-4.33 0-7.86 3.52-7.86 7.85 0 5.24 6.86 12.15 7.15 12.44l.71.71.71-.71c.29-.29 7.15-7.2 7.15-12.44 0-4.33-3.53-7.85-7.86-7.85m0 10.66a2.78 2.78 0 1 1 0-5.56 2.78 2.78 0 0 1 0 5.56m-9.16 13.04 3.46.59a9.25 9.25 0 0 1-9.16 7.71c-5.12 0-9.28-4.16-9.28-9.27s4.17-9.27 9.29-9.27c1.87 0 3.64.55 5.15 1.56v-.43c0-.97.78-1.75 1.75-1.75s1.75.78 1.75 1.75v6.14h-6.78c-.97 0-1.75-.78-1.75-1.75s.72-1.67 1.63-1.74c-.56-.18-1.15-.27-1.76-.27-3.19 0-5.78 2.59-5.78 5.77s2.59 5.77 5.78 5.77a5.76 5.76 0 0 0 5.7-4.79Z"/>
</svg>
