<svg viewBox="0 0 40 40" xmlns="http://www.w3.org/2000/svg">
  <path d="M30.25-.03c-5.38 0-9.76 4.39-9.76 9.77 0 6.57 8.6 15.25 8.96 15.61l.79.8.79-.8c.37-.37 8.96-9.05 8.96-15.61.01-5.38-4.36-9.77-9.74-9.77m0 13.52c-2.04 0-3.69-1.66-3.69-3.7s1.66-3.7 3.69-3.7 3.69 1.66 3.69 3.7-1.66 3.7-3.69 3.7M18.93 29.72l3.94.67a11.49 11.49 0 0 1-11.35 9.58C5.17 39.97 0 34.8 0 28.44s5.17-11.53 11.52-11.53c2.45 0 4.78.77 6.72 2.18v-.97a2 2 0 1 1 4 0v7.56H13.9c-1.1 0-2-.9-2-2s.9-2 2-2h.89a7.34 7.34 0 0 0-3.27-.76C7.37 20.92 4 24.3 4 28.45s3.37 7.53 7.52 7.53c3.68 0 6.79-2.63 7.41-6.25Z"/>
</svg>
