<svg viewBox="0 0 40 40" xmlns="http://www.w3.org/2000/svg">
  <path d="M30.25 0c-5.38 0-9.76 4.38-9.76 9.76 0 6.56 8.6 15.23 8.96 15.6l.79.8.79-.8c.37-.37 8.96-9.04 8.96-15.6C40.01 4.38 35.63 0 30.25 0m0 22.93c-2.08-2.26-7.51-8.59-7.51-13.17 0-4.14 3.37-7.51 7.51-7.51s7.51 3.37 7.51 7.51c0 4.58-5.43 10.91-7.51 13.17m0-16.82c-2.04 0-3.69 1.66-3.69 3.69s1.66 3.69 3.69 3.69 3.69-1.66 3.69-3.69-1.66-3.69-3.69-3.69m0 5.14c-.8 0-1.44-.65-1.44-1.44s.65-1.44 1.44-1.44 1.44.65 1.44 1.44-.65 1.44-1.44 1.44M19.79 30.41l2.22.38C21.1 36.13 16.51 40 11.09 40 4.98 40 0 35.02 0 28.91s4.97-11.08 11.08-11.08c3.01 0 5.83 1.19 7.93 3.34l.07.07v-3.11c0-.62.5-1.13 1.12-1.13s1.12.5 1.12 1.13v6.94h-7.76c-.62 0-1.12-.5-1.12-1.13s.5-1.13 1.12-1.13h3.9l-.03-.03c-1.71-1.75-3.96-2.7-6.36-2.7-4.87 0-8.83 3.96-8.83 8.83s3.96 8.84 8.83 8.84c4.32 0 7.98-3.09 8.71-7.34Z"/>
</svg>
