<svg viewBox="0 0 16 16" xmlns="http://www.w3.org/2000/svg">
  <path fill="#1e1e1c" d="M16 4.01C16 1.8 14.21 0 12.02 0S8.04 1.8 8.04 4.01c0 .67.21 1.38.53 2.08H0v9.92h12.52v-5.85l.03-.03C12.9 9.77 16 6.58 16 4.01M12.02 1.5c1.37 0 2.49 1.13 2.49 2.51s-1.5 3.37-2.49 4.49c-.99-1.12-2.49-3.12-2.49-4.49s1.12-2.51 2.49-2.51m-2.6 6.08c.09.13.18.27.27.4l-2.86 3.09a.78.78 0 0 1-1.14 0L2.46 7.58zM1.49 8.74l2.14 2.31-2.14 2.15zm.81 5.76 2.34-2.36c.44.44 1 .69 1.61.69s1.18-.25 1.61-.69l2.34 2.36zm6.59-3.45 1.73-1.87c.15.17.28.33.4.46v3.56l-2.14-2.15Zm3.13-5.71c-.72 0-1.31-.59-1.31-1.31s.59-1.32 1.31-1.32 1.31.59 1.31 1.32-.59 1.31-1.31 1.31"/>
</svg>
