<svg viewBox="0 0 32 32" xmlns="http://www.w3.org/2000/svg">
  <path fill="#1e1e1c" d="m21.74 19.66-3.45 3.53 1.44 8.83-7.56-4.17-7.56 4.17 1.44-8.83L0 16.99l8.38-1.28 3.8-8.09 3.8 8.09 3.1.47c.91 1.31 1.85 2.51 2.67 3.47Zm2.98.33c-.4-.44-.95-1.05-1.57-1.78-.2-.24-.41-.49-.62-.76s-.43-.54-.65-.83c-2.13-2.76-4.41-6.41-4.41-9.33-.02-4.01 3.24-7.27 7.25-7.27s7.27 3.26 7.27 7.26c0 4.44-5.32 10.6-7.27 12.71M21.05 7.32c0 2.02 1.65 3.67 3.67 3.67s3.67-1.65 3.67-3.67-1.65-3.67-3.67-3.67-3.67 1.65-3.67 3.67"/>
</svg>
