<svg viewBox="0 0 64 64" xmlns="http://www.w3.org/2000/svg">
  <path d="M64 46.17C64 56.02 49.67 64 32 64S0 56.02 0 46.17c0-6.42 6.09-12.05 15.23-15.18q.63 1.245 1.32 2.46c-8.22 2.7-13.8 7.45-13.8 12.72 0 8.17 13.39 15.08 29.25 15.08s29.25-6.91 29.25-15.08c0-5.28-5.58-10.02-13.8-12.72.46-.81.91-1.63 1.32-2.46C57.91 34.13 64 39.75 64 46.17m-32 5.04S13.13 32.35 13.13 18.87C13.13 8.45 21.58 0 32 0s18.87 8.45 18.87 18.87C50.87 32.35 32 51.21 32 51.21m-7.26-12.8c2.73 3.71 5.49 6.87 7.26 8.8 1.78-1.94 4.53-5.1 7.26-8.8 5.79-7.87 8.86-14.63 8.86-19.54 0-8.89-7.23-16.12-16.12-16.12S15.88 9.98 15.88 18.87c0 4.91 3.06 11.66 8.86 19.54M32 27.16c-4.47 0-8.09-3.62-8.09-8.09s3.62-8.09 8.09-8.09 8.09 3.62 8.09 8.09-3.62 8.09-8.09 8.09m0-2.75a5.339 5.339 0 1 0 0-10.68c-2.95 0-5.34 2.39-5.34 5.34s2.39 5.34 5.34 5.34"/>
</svg>
