<svg viewBox="0 0 32 32" xmlns="http://www.w3.org/2000/svg">
  <path d="M19.04 11.92c0-1.73-1.41-3.14-3.14-3.14-1.17 0-2.18.65-2.72 1.59l-1.45-1.45c.94-1.29 2.45-2.15 4.16-2.15 2.84 0 5.14 2.31 5.14 5.14a5.1 5.1 0 0 1-2.15 4.16l-1.45-1.45a3.12 3.12 0 0 0 1.59-2.72ZM15.9 2.03c5.42 0 9.83 4.41 9.83 9.83 0 2.51-1.26 5.42-2.91 8.15l1.46 1.46c1.92-3.12 3.45-6.55 3.45-9.6C27.73 5.34 22.42.03 15.9.03c-3.58 0-6.78 1.6-8.95 4.11l1.41 1.41c1.81-2.15 4.51-3.52 7.53-3.52Zm0 26.96c-2.36-2.53-9.83-11-9.83-17.13 0-.9.13-1.77.36-2.6L4.85 7.68c-.49 1.3-.78 2.71-.78 4.18 0 8.06 10.67 18.83 11.13 19.28l.71.71.71-.71c.22-.22 2.77-2.8 5.38-6.31l-1.44-1.44a64 64 0 0 1-4.65 5.59ZM1.42 0 0 1.42l30.59 30.59L32 30.6z"/>
</svg>
