<svg viewBox="0 0 24 24" xmlns="http://www.w3.org/2000/svg">
  <path d="M14.12 8.98c0-1.21-.99-2.2-2.2-2.2-.73 0-1.37.36-1.77.91L8.91 6.45c.72-.86 1.8-1.42 3.01-1.42 2.18 0 3.95 1.77 3.95 3.95 0 1.21-.56 2.29-1.42 3.01l-1.24-1.24c.55-.4.91-1.04.91-1.77m-2.2-7.2c3.95 0 7.16 3.21 7.16 7.16 0 1.76-.85 3.78-1.98 5.71l1.27 1.27c1.38-2.28 2.46-4.76 2.46-6.98 0-4.92-4-8.92-8.91-8.92-2.59 0-4.91 1.12-6.54 2.89l1.24 1.24c1.31-1.45 3.2-2.38 5.31-2.38Zm0 19.65c-1.84-1.98-7.16-8.09-7.16-12.5 0-.52.06-1.03.16-1.51L3.51 6.01c-.32.92-.5 1.9-.5 2.93 0 6.03 7.95 14.05 8.29 14.39l.62.62.62-.62c.16-.16 1.95-1.97 3.83-4.47l-1.25-1.25a50 50 0 0 1-3.19 3.83ZM1.24 0 0 1.24 22.76 24 24 22.76z"/>
</svg>
