<svg viewBox="0 0 16 16" xmlns="http://www.w3.org/2000/svg">
  <path d="M12.57 4.92c0 .81-.66 1.47-1.47 1.47s-1.47-.66-1.47-1.47.66-1.47 1.47-1.47 1.47.66 1.47 1.47M16 4.9c0 3.24-4.19 7.46-4.37 7.64l-.53.53-.53-.53-.47-.49c-.81.97-2.01 1.61-3.37 1.61-.94 0-1.81-.3-2.52-.81l-2.93 2.93c-.15.15-.34.22-.53.22s-.38-.07-.53-.22a.754.754 0 0 1 0-1.06l2.93-2.93c-.5-.71-.8-1.58-.8-2.52 0-2.24 1.69-4.06 3.85-4.33V4.9C6.2 2.2 8.39 0 11.1 0S16 2.2 16 4.9M9.62 9.27c0-1.59-1.3-2.89-2.89-2.89S3.84 7.67 3.84 9.27s1.3 2.89 2.89 2.89 2.89-1.29 2.89-2.89M14.5 4.9c0-1.87-1.53-3.4-3.4-3.4S7.7 3.03 7.7 4.9V5c1.95.44 3.42 2.19 3.42 4.27 0 .49-.1.95-.25 1.4.08.09.15.18.22.26 1.28-1.41 3.4-4.14 3.4-6.02Z"/>
</svg>
