<svg viewBox="0 0 64 64" xmlns="http://www.w3.org/2000/svg">
  <path d="M63.99 18.85c0 12.89-17.14 30.17-17.86 30.9l-.97.97-.97-.97c-.08-.08-.37-.37-.8-.82a20.16 20.16 0 0 0-.01-23.38c.57.15 1.17.24 1.78.24 3.78 0 6.85-3.07 6.85-6.85s-3.07-6.85-6.85-6.85-6.85 3.07-6.85 6.85c0 .61.09 1.2.24 1.77-3.32-2.36-7.37-3.77-11.74-3.77-.13 0-.26.02-.39.02C27.36 7.46 35.4.01 45.15.01c10.39 0 18.84 8.45 18.84 18.84M44.6 37.24c0 9.81-7.99 17.8-17.8 17.8-2.93 0-5.68-.72-8.12-1.98l-9.37 9.36c-1.07 1.06-2.46 1.6-3.86 1.6s-2.8-.53-3.86-1.6a5.46 5.46 0 0 1 0-7.72l9.37-9.37a17.6 17.6 0 0 1-1.97-8.09c0-9.81 7.99-17.8 17.81-17.8s17.8 7.98 17.8 17.8m-5 0c0-7.06-5.74-12.8-12.8-12.8S14 30.18 14 37.24s5.74 12.79 12.8 12.79 12.8-5.74 12.8-12.79"/>
</svg>
