<svg viewBox="0 0 40 40" xmlns="http://www.w3.org/2000/svg">
  <path d="M10.24 7.09 8.65 5.5C11.33 2.28 15.36.23 19.87.23c8.06 0 14.61 6.56 14.61 14.61 0 3.84-1.96 8.18-4.4 12.1l-1.63-1.63c2.13-3.49 3.8-7.23 3.8-10.46 0-6.82-5.55-12.37-12.37-12.37-3.89 0-7.36 1.81-9.63 4.63Zm9.63 29.27C17.02 33.33 7.5 22.59 7.5 14.84c0-1.26.19-2.47.54-3.61L6.29 9.48c-.66 1.66-1.03 3.47-1.03 5.36 0 9.99 13.26 23.36 13.82 23.93l.79.79.79-.79c.27-.27 3.56-3.59 6.85-8.06L25.9 29.1a80 80 0 0 1-6.03 7.26m1.79-17.84 1.65 1.65a6.28 6.28 0 0 0 2.84-5.25c0-3.47-2.82-6.28-6.28-6.28-2.19 0-4.13 1.13-5.25 2.84l1.65 1.65a4.02 4.02 0 0 1 3.6-2.25c2.23 0 4.04 1.81 4.04 4.04 0 1.58-.92 2.94-2.25 3.6M1.58 0 0 1.58 38.42 40 40 38.42z"/>
</svg>
