<svg viewBox="0 0 40 40" xmlns="http://www.w3.org/2000/svg">
  <path fill="#1e1e1c" d="m9.32 28.41-9.35 9.34V18.52l9.34 9.89Zm9.18 2.08c-.96 1.02-2.24 1.59-3.61 1.59s-2.65-.57-3.61-1.6l-.41-.44-9.9 9.9h27.85l-9.9-9.9-.42.44Zm-1.64-1.54 6.07-6.43c-1.26-1.77-2.49-3.73-3.45-5.72H1.44l11.48 12.15a2.69 2.69 0 0 0 3.94 0m7.43-4.6-3.83 4.05 9.34 9.34v-7.15l-.67-.67c-.2-.2-2.42-2.44-4.85-5.58ZM39.97 9.99c0 6.22-7.54 14.83-10.04 17.52-.23-.24-.51-.55-.81-.89-.04-.05-.09-.1-.13-.15-.13-.14-.26-.29-.4-.45-.03-.03-.06-.07-.09-.1-.3-.34-.62-.71-.95-1.11-.17-.21-.35-.42-.52-.64-.02-.02-.04-.05-.06-.07-3.13-3.85-7.08-9.6-7.08-14.1-.01-5.55 4.5-10.06 10.04-10.06S39.97 4.45 39.97 9.98Zm-5.4.06c0-2.56-2.08-4.65-4.65-4.65s-4.65 2.08-4.65 4.65 2.08 4.65 4.65 4.65 4.65-2.08 4.65-4.65"/>
</svg>
