<svg viewBox="0 0 64 64" xmlns="http://www.w3.org/2000/svg">
  <path fill="#1e1e1c" d="M26.01 44.48h-5.98V38.5h5.98zm22.27-.51-.97.97v5.18L32.73 64.01l-.28-.29v.3H0V31.56h.23l-.21-.23L16.47 16.6H30.6C30.68 7.44 38.14.02 47.3.02S64 7.51 64 16.73c0 11.39-15.08 26.61-15.73 27.25ZM33.35 16.72c0 8.7 10.63 20.75 13.95 24.29 3.31-3.54 13.95-15.59 13.95-24.29 0-7.69-6.26-13.95-13.95-13.95S33.35 9.03 33.35 16.72M3.89 31.56h10.68l12.91-12.21h-9.96zm25.8 2.75H2.75v26.95h26.94zm4.41-6.39c-1.45-2.66-2.6-5.41-3.15-8.06l-12.37 11.7H30.5l3.61-3.64Zm10.45 21.02V42.1c-2.18-2.38-5.94-6.76-9.02-11.72l-3.09 3.12v26.98zm2.75-25.93c-3.42 0-6.2-2.78-6.2-6.21s2.78-6.21 6.2-6.21 6.21 2.78 6.21 6.21-2.78 6.21-6.21 6.21m0-2.75c1.9 0 3.45-1.55 3.45-3.45s-1.55-3.46-3.45-3.46-3.45 1.55-3.45 3.46 1.55 3.45 3.45 3.45"/>
</svg>
