<svg viewBox="0 0 40 40" xmlns="http://www.w3.org/2000/svg">
  <path d="M40 28.86C40 35.01 31.05 40 20 40S0 35.01 0 28.86c0-3.76 3.35-7.07 8.46-9.09.6 1.2 1.28 2.38 2 3.51C6.37 24.78 4 27.07 4 28.86 4 31.77 10.23 36 20 36s16-4.23 16-7.14c0-1.79-2.37-4.08-6.46-5.58.72-1.13 1.4-2.31 2-3.51C36.65 21.79 40 25.1 40 28.86M9.3 16.79c-.67-1.72-1.09-3.41-1.09-4.99a11.75 11.75 0 0 1 4.29-9.1c.29-.24.59-.47.91-.68.63-.42 1.3-.79 2-1.09C16.82.33 18.37 0 20 0s3.18.33 4.59.93c.71.3 1.38.66 2 1.09a11.78 11.78 0 0 1 5.2 9.78c0 1.58-.41 3.28-1.09 4.99-.67 1.72-1.61 3.45-2.64 5.1-.52.83-1.06 1.63-1.61 2.41-.73 1.03-1.48 2-2.19 2.89-.18.22-.35.44-.53.65-.52.63-1.01 1.2-1.46 1.71-1.34 1.53-2.27 2.46-2.27 2.46s-.93-.93-2.27-2.46a68 68 0 0 1-1.99-2.36c-.71-.88-1.46-1.86-2.19-2.89-.55-.77-1.09-1.58-1.61-2.41-1.04-1.65-1.97-3.39-2.64-5.1m5.7-4.87c0 2.76 2.24 5 5 5s5-2.24 5-5-2.24-5-5-5-5 2.24-5 5"/>
</svg>
