<svg viewBox="0 0 32 32" xmlns="http://www.w3.org/2000/svg">
  <path d="M32 23.09C32 28.01 24.84 32 16 32S0 28.01 0 23.09c0-3.14 2.93-5.9 7.33-7.49.31.61.63 1.21.99 1.8C4.71 18.61 2 20.62 2 23.08c0 3.27 5.75 6.91 14 6.91 6.62 0 14-2.84 14-6.91 0-2.11-2.4-4.37-6.31-5.71.35-.58.67-1.18.97-1.78 4.41 1.59 7.33 4.34 7.33 7.49Zm-16 2.52S6.57 16.17 6.57 9.43C6.57 4.22 10.79 0 16 0s9.43 4.22 9.43 9.43C25.43 16.17 16 25.6 16 25.6ZM8.57 9.43c0 4.08 4.53 10.01 7.43 13.25 2.9-3.24 7.43-9.18 7.43-13.25S20.1 2 16 2 8.57 5.33 8.57 9.43M16 13.7c-2.3 0-4.16-1.86-4.16-4.16S13.7 5.38 16 5.38s4.16 1.86 4.16 4.16S18.3 13.7 16 13.7m0-2c1.19 0 2.16-.97 2.16-2.16S17.19 7.38 16 7.38s-2.16.97-2.16 2.16.97 2.16 2.16 2.16"/>
</svg>
