<svg viewBox="0 0 24 24" xmlns="http://www.w3.org/2000/svg">
  <path fill="#1e1e1c" d="M20.69 8.23H7.89V5.88c0-2.28 1.86-4.14 4.14-4.14s4.14 1.86 4.14 4.14h1.75c-.01-3.25-2.65-5.89-5.9-5.89S6.13 2.63 6.13 5.88v2.35H3.35c-.67 0-1.22.55-1.22 1.22v11.91c0 1.45 1.18 2.63 2.63 2.63h14.52c1.45 0 2.63-1.18 2.63-2.63V9.45c0-.67-.55-1.22-1.22-1.22m-.53 13.13c0 .48-.39.88-.88.88H4.77c-.48 0-.88-.39-.88-.88V9.98h16.27zM9.85 17.78a2.21 2.21 0 0 0 4.42 0v-.84c.43-.51.67-1.16.67-1.83a2.88 2.88 0 0 0-5.76 0c0 .67.24 1.32.67 1.83zm2.21-3.8c.62 0 1.13.51 1.13 1.13 0 .32-.13.61-.38.83l-.29.26v1.58c0 .25-.21.46-.46.46s-.46-.21-.46-.46V16.2l-.29-.26c-.24-.22-.38-.51-.38-.83 0-.62.51-1.13 1.13-1.13"/>
</svg>
