<svg viewBox="0 0 40 40" xmlns="http://www.w3.org/2000/svg">
  <path fill="#1e1e1c" d="M34.66 13.68H13.65v-3.4c0-3.5 2.85-6.35 6.35-6.35s6.35 2.85 6.35 6.35h4C30.35 4.58 25.71-.06 20-.06S9.65 4.58 9.65 10.29v3.4H5.34c-.81 0-1.47.66-1.47 1.47v21.41c0 1.86 1.51 3.37 3.37 3.37h25.51c1.86 0 3.37-1.51 3.37-3.37V15.15c0-.81-.66-1.47-1.47-1.47ZM22.28 27.27v1.98c0 1.23-.99 2.22-2.22 2.22s-2.22-.99-2.22-2.22v-1.98a3.3 3.3 0 0 1-1.11-2.47c0-1.84 1.49-3.33 3.33-3.33s3.33 1.49 3.33 3.33c0 .98-.43 1.86-1.11 2.47"/>
</svg>
