<svg viewBox="0 0 64 64" xmlns="http://www.w3.org/2000/svg">
  <path fill="#1e1e1c" d="M55.68 21.97h-7.81v-6.1C47.87 7.12 40.75 0 32 0S16.13 7.12 16.13 15.87v6.1H8.32c-.95 0-1.72.77-1.72 1.72v36.18c0 2.28 1.85 4.13 4.13 4.13h42.54c2.28 0 4.13-1.85 4.13-4.13V23.69c0-.95-.77-1.72-1.72-1.72M35.65 43.31v3.16c0 1.96-1.59 3.56-3.56 3.56s-3.56-1.59-3.56-3.56v-3.16c-1.08-.98-1.78-2.38-1.78-3.95 0-2.95 2.39-5.33 5.33-5.33s5.33 2.39 5.33 5.33c0 1.57-.69 2.97-1.78 3.95Zm7.21-21.34H21.13v-6.1c0-5.99 4.87-10.86 10.86-10.86s10.86 4.87 10.86 10.86v6.1Z"/>
</svg>
