<svg viewBox="0 0 32 32" xmlns="http://www.w3.org/2000/svg">
  <path fill="#1e1e1c" d="M27.69 10.98H10.34v-3.3c0-3.13 2.55-5.68 5.68-5.68s5.68 2.55 5.68 5.68h2C23.71 3.44 20.26 0 16.02 0S8.34 3.45 8.34 7.68v3.3H4.36c-.74 0-1.35.6-1.35 1.35v16.66c0 1.66 1.35 3 3 3h20.03c1.66 0 3-1.35 3-3V12.33c0-.74-.6-1.35-1.35-1.35m-.65 18.01c0 .55-.45 1-1 1H6.01c-.55 0-1-.45-1-1V12.98h22.03zm-13.75-5.44c0 1.53 1.25 2.78 2.78 2.78s2.78-1.25 2.78-2.78v-1.18c.57-.66.89-1.51.89-2.38 0-2.02-1.65-3.67-3.67-3.67s-3.67 1.65-3.67 3.67c0 .87.32 1.72.89 2.38zm2.78-5.23c.92 0 1.67.75 1.67 1.67 0 .47-.2.91-.56 1.23l-.33.3v2.03a.781.781 0 0 1-1.56 0v-2.03l-.33-.3c-.36-.32-.56-.76-.56-1.23 0-.92.75-1.67 1.67-1.67"/>
</svg>
