<svg viewBox="0 0 64 64" xmlns="http://www.w3.org/2000/svg">
  <path fill="#1e1e1c" d="M55.67 21.97h-8.93v-7.23C46.74 6.61 40.13 0 32 0S17.26 6.61 17.26 14.74v7.23H8.33c-.95 0-1.72.77-1.72 1.72v36.18c0 2.27 1.85 4.13 4.13 4.13h42.54c2.27 0 4.13-1.85 4.13-4.13V23.69c0-.95-.77-1.72-1.72-1.72Zm-35.66-7.23c0-6.61 5.38-11.99 11.99-11.99s11.99 5.38 11.99 11.99v7.23H20.01zm34.63 45.14c0 .76-.62 1.38-1.38 1.38H10.73c-.76 0-1.38-.62-1.38-1.38V24.72h45.29v35.15ZM27.16 46.47c0 2.72 2.21 4.93 4.93 4.93s4.93-2.21 4.93-4.93v-2.59a6.7 6.7 0 0 0 1.78-4.52c0-3.7-3.01-6.71-6.71-6.71s-6.71 3.01-6.71 6.71c0 1.67.64 3.29 1.78 4.52zm4.93-11.07a3.97 3.97 0 0 1 3.96 3.96c0 1.12-.47 2.16-1.32 2.93l-.46.41v3.78c0 1.2-.98 2.18-2.18 2.18s-2.18-.98-2.18-2.18V42.7l-.46-.41c-.85-.77-1.32-1.81-1.32-2.93a3.97 3.97 0 0 1 3.96-3.96"/>
</svg>
