<svg viewBox="0 0 48 48" xmlns="http://www.w3.org/2000/svg">
  <path fill="#1e1e1c" d="M41.69 16.49H15.25v-5.21c0-4.84 3.94-8.77 8.77-8.77s8.77 3.94 8.77 8.77h2.5C35.3 5.07 30.24 0 24.02 0S12.75 5.06 12.75 11.27v5.21h-6.4c-.88 0-1.6.72-1.6 1.6v26.17C4.75 46.32 6.43 48 8.5 48h31.03c2.07 0 3.75-1.68 3.75-3.75V18.08c0-.88-.72-1.6-1.6-1.6Zm-.9 27.77c0 .69-.56 1.25-1.25 1.25H8.51c-.69 0-1.25-.56-1.25-1.25V18.99h33.53zm-20.62-9.18c0 2.16 1.76 3.92 3.92 3.92s3.92-1.76 3.92-3.92v-1.86c.85-.96 1.33-2.2 1.33-3.48 0-2.9-2.36-5.25-5.25-5.25s-5.25 2.36-5.25 5.25c0 1.28.48 2.52 1.33 3.48zm3.92-8.09c1.52 0 2.75 1.23 2.75 2.75 0 .78-.33 1.5-.92 2.03l-.41.37v2.93c0 .78-.64 1.42-1.42 1.42s-1.42-.64-1.42-1.42v-2.93l-.41-.37a2.72 2.72 0 0 1-.92-2.03c0-1.52 1.23-2.75 2.75-2.75"/>
</svg>
