<svg viewBox="0 0 16 16" xmlns="http://www.w3.org/2000/svg">
  <path fill="#1e1e1c" d="M12.09 5.49v-1.4C12.09 1.83 10.26 0 8 0S3.91 1.83 3.91 4.09v1.4H1.24v8.75c0 .97.79 1.75 1.75 1.75H13c.97 0 1.75-.79 1.75-1.75V5.49h-2.67Zm-6.68-1.4a2.59 2.59 0 0 1 5.18 0v1.4H5.41zm7.85 10.15c0 .14-.11.25-.25.25H2.99c-.14 0-.25-.11-.25-.25V6.99h10.51v7.25Zm-6.88-2.61c0 .9.74 1.64 1.64 1.64s1.64-.74 1.64-1.64v-.5c.29-.36.44-.81.44-1.28 0-1.15-.94-2.09-2.09-2.09a2.087 2.087 0 0 0-1.64 3.37v.5Zm1.64-2.36c.32 0 .58.26.58.58 0 .22-.12.36-.2.43l-.25.22v1.12c0 .15-.28.15-.28 0V10.5l-.25-.22a.6.6 0 0 1-.2-.43c0-.32.26-.58.58-.58Z"/>
  <path fill="none" d="M0 0h16v16H0z"/>
</svg>
