<svg viewBox="0 0 48 48" xmlns="http://www.w3.org/2000/svg">
  <path d="M27.25 11.31 25.5 9.53 33.13 2l5.77 5.22 4.65-4.65h-3.01a1.25 1.25 0 0 1 0-2.5h7.35v8.41a1.25 1.25 0 0 1-2.5 0V4.23l-6.42 6.42-5.78-5.23-5.95 5.88Zm-15.3 30.7c0 3.35-2.7 6.06-6.02 6.06S-.1 45.36-.1 42.01s2.7-6.06 6.02-6.06 6.02 2.71 6.02 6.06Zm-2.49 0c0-1.97-1.58-3.57-3.53-3.57s-3.53 1.6-3.53 3.57 1.58 3.57 3.53 3.57 3.53-1.6 3.53-3.57m24.87 0c0 3.35-2.7 6.06-6.02 6.06s-6.02-2.71-6.02-6.06 2.7-6.06 6.02-6.06 6.02 2.71 6.02 6.06m-2.49 0c0-1.97-1.58-3.57-3.53-3.57s-3.53 1.6-3.53 3.57 1.58 3.57 3.53 3.57 3.53-1.6 3.53-3.57m16.06-9.93v2.49H23.95s-.08-.01-.18-.01h-.03c-.45 0-1.55.08-2.35.81-.72.65-1.09 1.73-1.09 3.2v6.51h-6.65v-3.36c0-4.51-3.64-8.19-8.12-8.19H.12V14.28h10.14c.07 0 4.6.07 7.55 3.79V5.91h2.49v27.16c1.29-.87 2.71-1 3.44-1v-8.98h6.48v-9.36h8.96v6.16h6.48v12.19zM2.61 16.77v7.28h8.03l3.73 3.53h3.44v-1.14c0-9.47-7.22-9.67-7.56-9.68H2.61Zm15.21 15.69v-2.38h-4.43l-3.73-3.53H2.61v4.48h2.92c5.85 0 10.61 4.79 10.61 10.68v.87h1.67V32.46Zm21.37-.39h3.98v-9.68h-3.98zm-6.48 0h3.98V16.23h-3.98zm-6.48 0h3.98v-6.48h-3.98z"/>
</svg>
