<svg viewBox="0 0 16 16" xmlns="http://www.w3.org/2000/svg">
  <path d="M15.42 7h-1.98V4.95H9.96v3.12H7.97v2.3c-.17.01-.38.05-.59.13V2.29H5.89v2.92c-.73-.58-1.58-.79-2.18-.79H0v7.08h2.13a2.38 2.38 0 0 1 2.37 2.39v1.46h2.87v-2.5c0-.39.08-.66.25-.81.1-.09.23-.14.36-.16H16v-1.5h-.58zM3.7 5.93c.23 0 2.19.13 2.19 2.88v.04h-.68L3.97 7.68H1.49V5.93zm2.18 7.06c-.41-1.71-1.94-2.98-3.75-2.98h-.64v-.82h1.88l1.24 1.17h1.27zm8.05-4.49v1.88h-.49V8.5zm-1.99-2.05v3.93h-.49V6.45h.5ZM9.95 9.56v.79h-.5v-.79zM16 .01v3.11a.749.749 0 1 1-1.5 0V2.6l-1.73 1.73-1.9-1.72-1.73 1.71L8.1 3.25l2.73-2.7 1.89 1.72.75-.76h-.23c-.41 0-.75-.34-.75-.75s.35-.75.76-.75zM2.03 11.98c-1.1 0-2 .9-2 2.02s.9 2.02 2 2.02 2-.9 2-2.02-.9-2.02-2-2.02m0 2.53c-.28 0-.51-.23-.51-.52s.23-.52.51-.52.51.23.51.52-.23.52-.51.52m7.67-2.53c-1.11 0-2 .9-2 2.02s.9 2.02 2 2.02 2-.9 2-2.02-.9-2.02-2-2.02m0 2.53c-.28 0-.51-.23-.51-.52s.23-.52.51-.52.51.23.51.52-.23.52-.51.52"/>
</svg>
