<svg viewBox="0 0 24 24" xmlns="http://www.w3.org/2000/svg">
  <path d="M23.4 11.1h-3.01V7.82h-5v4.21h-3v3.12h-.04c-.1 0-.27-.01-.47 0V2.98h-3v4.18c-1.1-.66-2.23-.88-2.92-.88H0v11.35h3.59c1.77 0 3.2 1.44 3.2 3.2v2.55h5.09v-5.22c.11-.02.21-.03.25-.02h.26v.02H24v-3h-.6v-4.05ZM5.95 9.28c.5.01 2.93.27 2.93 3.95v.31H7.52l-1.87-1.76H3.01v-2.5h2.95ZM24 0v5.03c0 .83-.67 1.5-1.5 1.5S21 5.86 21 5.03V5l-2.12 1.96-2.39-1.59-1.99 1.78-2-2.23 3.72-3.34 2.36 1.57.3-.28c-.53-.23-.91-.76-.91-1.38 0-.82.67-1.49 1.5-1.49zM5.5 21.25C5.5 22.77 4.27 24 2.75 24S0 22.77 0 21.25s1.23-2.75 2.75-2.75 2.75 1.23 2.75 2.75m12.87 0c0 1.52-1.23 2.75-2.75 2.75s-2.75-1.23-2.75-2.75 1.23-2.75 2.75-2.75 2.75 1.23 2.75 2.75"/>
</svg>
