<svg viewBox="0 0 40 40" xmlns="http://www.w3.org/2000/svg">
  <path fill="#1e1e1c" d="M32.08 26.46c-3.72 0-6.74 3.03-6.74 6.74s3.02 6.74 6.74 6.74 6.74-3.03 6.74-6.74-3.02-6.74-6.74-6.74m0 11.25c-2.48 0-4.49-2.02-4.49-4.5s2.02-4.5 4.49-4.5 4.49 2.02 4.49 4.5-2.02 4.5-4.49 4.5M6.75 26.46C3.03 26.46 0 29.49 0 33.21s3.02 6.74 6.74 6.74 6.74-3.03 6.74-6.74-3.02-6.74-6.74-6.74Zm0 11.25c-2.48 0-4.49-2.02-4.49-4.5s2.02-4.5 4.49-4.5 4.49 2.02 4.49 4.5-2.02 4.5-4.49 4.5m22.29-15.3c-.19-.01-.69-.04-1.35.03V2.12c0-.76-.62-1.37-1.37-1.37h-3.25c-.76 0-1.37.62-1.37 1.37v3.3C18.28.04 12.14-.05 12.05-.05H-.03v23.43h6.29c5.71 0 10.35 4.64 10.35 10.35v3.7h7.34v-7.52c0-1.9.49-3.31 1.46-4.18 1.41-1.27 3.45-1.08 3.46-1.08h11.1v-2.24zM23.95 2.99h1.5v19.42h-1.5zm-11.9-.79c.41 0 9.65.22 9.65 12.17v3.82h-4.77l-4.57-4.29H2.22V2.2zm9.65 32.99h-2.85v-1.45c0-6.95-5.65-12.6-12.59-12.6H2.22v-4.99h9.25l4.57 4.29h5.66z"/>
</svg>
