<svg viewBox="0 0 32 32" xmlns="http://www.w3.org/2000/svg">
  <path d="m18.83 8.24-2.44-2.51L21.27.98l3.64 3.49 1.04-.99c-.87-.11-1.54-.83-1.54-1.73 0-.96.78-1.75 1.75-1.75H32v6.51c0 .97-.78 1.75-1.75 1.75s-1.75-.78-1.75-1.75v-.63L24.89 9.3l-3.6-3.46-2.45 2.39ZM3.5 25C1.57 25 0 26.57 0 28.5S1.57 32 3.5 32 7 30.43 7 28.5 5.43 25 3.5 25m18.33.6c-.56-.38-1.23-.6-1.96-.6-.72 0-1.4.22-1.96.6-.37.25-.69.57-.95.95-.38.56-.6 1.23-.6 1.96s.22 1.4.6 1.96c.25.37.57.69.95.95.56.38 1.23.6 1.96.6.72 0 1.4-.22 1.96-.6.37-.25.69-.57.95-.95.38-.56.6-1.23.6-1.96s-.22-1.4-.6-1.96c-.25-.37-.57-.69-.95-.95M32 20.45v3.5H16.03s0-.01-.04-.01c-.1 0-.37.02-.63.11v6.88H9.07v-3.16c0-2.49-2.03-4.52-4.52-4.52H0V8.61h7.71c1.14 0 2.71.35 4.14 1.32V3.97h3.5v16.51c.42-.05.76-.04.94-.03h.15v-4.14h4.01v-6.22h6.5v4.1h4v6.26h1.04ZM3.51 12.12v3.75h3.77l2.5 2.35h2.07v-.59c0-5.15-3.45-5.5-4.15-5.51zm23.45 4.57v3.76h1.5v-3.76zm-4.01-4.1v7.86h1.5v-7.86zm-4.01 7.86h1.5v-1.64h-1.5z"/>
</svg>
