<svg viewBox="0 0 16 16" xmlns="http://www.w3.org/2000/svg">
  <path d="M15.45 7h-1.98V4.95H9.99v3.12H8v2.3c-.17.01-.38.05-.59.13V2.29H5.92v2.92c-.73-.58-1.58-.79-2.18-.79H.03v7.08h2.13a2.38 2.38 0 0 1 2.37 2.39v1.46H7.4v-2.5c0-.39.08-.66.25-.81.1-.09.23-.14.36-.16h7.94v-1.5h-.5zM3.73 5.93c.23 0 2.19.13 2.19 2.88v.04h-.68L4 7.68H1.52V5.93zM16.03.01v3.11a.749.749 0 1 1-1.5 0V2.6L12.8 4.33l-1.9-1.72-1.73 1.71-1.04-1.07 2.73-2.7 1.89 1.72.75-.76h-.23c-.41 0-.75-.34-.75-.75s.35-.75.76-.75zM4.07 14c0 .84-.5 1.55-1.22 1.86-.24.1-.5.16-.78.16s-.54-.06-.78-.16C.57 15.55.07 14.84.07 14s.5-1.55 1.22-1.86c.24-.1.5-.16.78-.16s.54.06.78.16c.72.31 1.22 1.02 1.22 1.86m7.67 0c0 1.12-.9 2.02-2 2.02-.28 0-.54-.06-.78-.16-.72-.31-1.22-1.02-1.22-1.86s.5-1.55 1.22-1.86c.24-.1.5-.16.78-.16 1.11 0 2 .9 2 2.02"/>
</svg>
