<svg viewBox="0 0 24 24" xmlns="http://www.w3.org/2000/svg">
  <path d="M22.41 15.81v-5.62h-2.74V7.12h-4.5v4.67H12.4v4c-.11-.01-.92-.08-1.75.31V2.98H8.9v5.41c-1.53-1.46-3.51-1.5-3.54-1.5H0v10.1h2.97c2.11 0 3.83 1.72 3.83 3.83v1.93h3.84v-3.5c0-.65.15-1.12.46-1.4.43-.4 1.1-.34 1.2-.34l11.71.03v-1.75h-1.6ZM5.34 8.65c.37 0 3.55.18 3.55 4.57v.31H7.51l-1.87-1.76H1.76V8.65h3.59Zm3.55 12.36h-.34v-.18c0-3.08-2.5-5.58-5.58-5.58H1.75v-1.73h3.19l1.87 1.76h2.07v5.73Zm11.77-9.07v3.81h-.99v-3.81zm-3.74-3.07h1v1.32h-.01v5.56h-.99zm-2.77 4.66h1v2.22h-1zm-.42-7.5L12.5 4.78 16.45.9l2.86 2.57 1.74-1.73h-.96c-.48 0-.88-.39-.88-.87s.41-.87.89-.87H24v4.4c0 .48-.39.87-.88.87s-.88-.39-.88-.87V3.02l-2.88 2.85-2.87-2.58-2.78 2.73ZM3.04 17.95c-1.67 0-3.03 1.36-3.03 3.03S1.36 24 3.03 24s3.02-1.35 3.02-3.02-1.35-3.02-3.02-3.02Zm0 4.3c-.7 0-1.27-.57-1.27-1.27s.57-1.27 1.27-1.27 1.27.57 1.27 1.27-.57 1.27-1.27 1.27m11.37-4.3c-1.67 0-3.02 1.35-3.02 3.02s1.35 3.02 3.02 3.02 3.02-1.35 3.02-3.02-1.35-3.02-3.02-3.02m0 4.3c-.7 0-1.27-.57-1.27-1.27s.57-1.27 1.27-1.27 1.27.57 1.27 1.27-.57 1.27-1.27 1.27"/>
</svg>
