<svg viewBox="0 0 16 16" xmlns="http://www.w3.org/2000/svg">
  <path fill="#1e1e1c" d="M13.25 10.5c-1.52 0-2.75 1.23-2.75 2.75S11.74 16 13.25 16 16 14.77 16 13.25s-1.24-2.75-2.75-2.75m0 4a1.25 1.25 0 1 1 0-2.5 1.25 1.25 0 0 1 0 2.5m-10.48-4c-1.52 0-2.76 1.23-2.76 2.75S1.25 16 2.76 16s2.75-1.23 2.75-2.75-1.24-2.75-2.75-2.75Zm0 4a1.25 1.25 0 1 1 0-2.5 1.25 1.25 0 0 1 0 2.5m9.26-6V1c0-.55-.45-1-1-1h-1.5c-.55 0-1 .45-1 1v.56C7.07.03 5.07 0 5.04 0H.01v9.5h2.75a3.76 3.76 0 0 1 3.76 3.75v1.76h3.51v-3.26c0-.65.16-1.12.47-1.41.31-.28.73-.34.98-.34h4.54V8.5h-3.98Zm-2-7h.5v7h-.5zm-4.99 0c.14 0 3.48.05 3.48 4.46v.39H7.08l-1.8-1.68H1.51V1.5zm3.49 12.01h-.5v-.26C8.03 10.35 5.67 8 2.77 8H1.52V6.17H4.7l1.8 1.68h2.04v5.66Z"/>
</svg>
