<svg viewBox="0 0 64 64" xmlns="http://www.w3.org/2000/svg">
  <path fill="#1e1e1c" d="M62.17 53.5c0 5.79-4.71 10.5-10.49 10.5s-10.49-4.71-10.49-10.5S45.9 43 51.68 43s10.49 4.71 10.49 10.5M10.55 43.01C4.76 43.01.05 47.72.05 53.5S4.76 64 10.54 64s10.49-4.71 10.49-10.5S16.32 43 10.54 43ZM64 35.3v5l-17.62-.02s-3.05-.27-5.1 1.59c-1.42 1.29-2.13 3.4-2.13 6.27h-.04c.02 7.23.04 10.31.04 10.37l.02 2.52H26.16v-6.54c0-8.54-6.95-15.49-15.49-15.49H0V0h19.68c.15 0 11.8.17 16.97 11.1V1.89c0-.14.11-.25.25-.25h5.58c.14 0 .25.11.25.25v33.78c1.91-.47 3.51-.41 4.03-.37zM5 5v17.6h14.47l7.42 6.97h7.18v-6.24c0-7.62-2.38-13-7.09-15.99C23.44 5.09 19.78 5 19.66 5z"/>
</svg>
