<svg viewBox="0 0 40 40" xmlns="http://www.w3.org/2000/svg">
  <path d="m22.86 9.57-1.58-1.6 6.39-6.31L32.46 6l3.74-3.74h-2.44c-.62 0-1.12-.5-1.12-1.13S33.14 0 33.76 0h6.19v7.08c0 .62-.5 1.13-1.12 1.13s-1.12-.5-1.12-1.13V3.92l-5.17 5.17-4.8-4.35-4.88 4.82ZM9.96 34.96c0 2.78-2.24 5.04-5 5.04s-5-2.25-5-5.04 2.24-5.04 5-5.04 5 2.26 5 5.04m-2.25 0c0-1.54-1.24-2.79-2.76-2.79s-2.76 1.25-2.76 2.79 1.24 2.79 2.76 2.79 2.76-1.25 2.76-2.79m20.84 0c0 2.78-2.24 5.04-5 5.04s-5-2.26-5-5.04 2.24-5.04 5-5.04 5 2.26 5 5.04m-2.25 0c0-1.54-1.24-2.79-2.76-2.79s-2.76 1.25-2.76 2.79 1.24 2.79 2.76 2.79 2.76-1.25 2.76-2.79m13.66-8.33v2.25H19.92s-1.23-.12-2.06.64c-.58.53-.87 1.4-.87 2.59v5.5h-5.7v-2.88c0-3.7-2.99-6.71-6.66-6.71H.05V11.83h8.51c.06 0 3.71.05 6.18 2.98V4.97h2.25v22.4c1.16-.72 2.39-.78 2.92-.75v-7.34h5.22V11.5h7.44v5.12h5.26v10.01h2.12ZM2.29 14.08v5.88h6.62l3.1 2.93h2.73v-.86c0-7.66-5.55-7.95-6.19-7.95zm12.45 12.95v-1.89h-3.62l-3.1-2.93H2.29v3.55h2.33c4.91 0 8.9 4.02 8.9 8.96v.63h1.21v-8.32Zm17.9-.47h2.95v-7.69h-2.95zm-5.26 0h2.95V13.75h-2.95zm-5.22 0h2.95v-5.03h-2.95z"/>
</svg>
