<svg viewBox="0 0 64 64" xmlns="http://www.w3.org/2000/svg">
  <path fill="#1e1e1c" d="M51.67 43c-5.79 0-10.49 4.71-10.49 10.49s4.71 10.49 10.49 10.49 10.49-4.71 10.49-10.49S57.45 43 51.67 43m0 18.24c-4.27 0-7.74-3.47-7.74-7.74s3.47-7.74 7.74-7.74 7.74 3.47 7.74 7.74-3.47 7.74-7.74 7.74M10.55 43C4.76 43 .06 47.71.06 53.5s4.71 10.49 10.49 10.49 10.49-4.71 10.49-10.49-4.71-10.49-10.49-10.49Zm0 18.24c-4.27 0-7.74-3.47-7.74-7.74s3.47-7.74 7.74-7.74 7.74 3.47 7.74 7.74-3.47 7.74-7.74 7.74m36.17-24.82c-.3-.03-1.31-.08-2.62.11V2.9c0-.9-.73-1.63-1.62-1.63H36.9c-.9 0-1.62.73-1.62 1.63v7.22C30.08.15 19.3 0 19.16 0H0v37.11h9.76c9.51 0 17.25 7.74 17.25 17.25v5.55h11.02V48.15c0-3.22.85-5.61 2.52-7.12 2.44-2.2 5.93-1.86 5.96-1.86H64v-2.74H46.73Zm-8.7-32.39h3.33v32.53l-3.33.42zM19.16 2.74c.66 0 16.12.31 16.12 20.19v6.64H26.9l-7.42-6.97H2.75V2.74zm16.11 54.42h-5.53v-2.8c0-11.03-8.97-20-20-20H2.75v-9h15.64l7.42 6.97h9.46z"/>
</svg>
