<svg viewBox="0 0 32 32" xmlns="http://www.w3.org/2000/svg">
  <path fill="#1e1e1c" d="M25.67 21.09c-3.02 0-5.48 2.45-5.48 5.47s2.46 5.47 5.48 5.47 5.48-2.45 5.48-5.47-2.46-5.47-5.48-5.47m0 8.94a3.48 3.48 0 0 1-3.48-3.47 3.48 3.48 0 0 1 6.96 0 3.48 3.48 0 0 1-3.48 3.47m-20.2-8.94C2.45 21.09 0 23.55 0 26.56s2.46 5.47 5.48 5.47 5.48-2.45 5.48-5.47-2.46-5.47-5.48-5.47Zm0 8.94a3.48 3.48 0 0 1-3.48-3.47 3.48 3.48 0 0 1 6.96 0 3.48 3.48 0 0 1-3.48 3.47m17.78-12.16c-.14-.01-.5-.03-.97.02V1.9c0-.69-.56-1.25-1.25-1.25h-2.49c-.69 0-1.25.56-1.25 1.25v2.23C14.5.1 9.77.02 9.7.02H-.04v18.83h5.12c4.49 0 8.15 3.65 8.15 8.13v3.04h6.07v-6.08c0-1.48.38-2.57 1.13-3.24 1.08-.98 2.67-.84 2.68-.83h8.87v-1.99h-8.71ZM19.29 2.65h.99v15.22h-.99zM9.7 2.02c.33 0 7.59.18 7.59 9.57v2.93h-3.66l-3.65-3.41H1.96V2.02h7.73Zm7.59 26.01h-2.06v-1.05c0-5.58-4.55-10.12-10.15-10.12H1.96V13.1h7.23l3.65 3.41h4.45v11.51Z"/>
</svg>
