<svg viewBox="0 0 40 40" xmlns="http://www.w3.org/2000/svg">
  <path d="M38.86 16.62h-5.04V12.5h-8.99v6.78h-5.12v6.47c-.27 0-.61.03-1.01.09V4.97h-4v7.84c-2.5-1.81-5.27-1.85-5.32-1.85H-.01v17.93h5.46c3.19 0 5.79 2.62 5.79 5.84v3.76h7.46V30c.5-.27 1.11-.25 1.13-.25h20.16v-3.99h-1.13v-9.13Zm-5 4h1v4.19h-1zm-5.04-4.12h1v8.31h-1zm-5.12 6.78h1v1.53h-1zM9.37 14.96c.9.02 5.33.46 5.33 7.08v.86H12l-3.1-2.93H3.99v-5h5.39ZM39.99 0v7.95a2 2 0 1 1-4 0V6.91l-4.27 4.27-4.81-4.35-4.3 4.25-2.81-2.85 6.99-6.9 4.79 4.34 1.66-1.66h-.33c-1.1 0-2-.9-2-2s.9-2.01 2-2.01h7.07ZM9.01 35.5c0 2.49-2.01 4.5-4.5 4.5S.02 37.99.02 35.5 2.03 31 4.52 31s4.5 2.02 4.5 4.5Zm19.54-2.51c.48.72.77 1.58.77 2.52s-.28 1.8-.77 2.52c-.32.48-.74.89-1.21 1.22-.72.49-1.58.77-2.51.77-2.48 0-4.5-2.02-4.5-4.5s2.01-4.5 4.5-4.5c.93 0 1.8.28 2.51.77.48.32.89.74 1.21 1.22Z"/>
</svg>
