<svg viewBox="0 0 40 40" xmlns="http://www.w3.org/2000/svg">
  <path fill="#1e1e1c" d="M39.35 3.85 36.13.63C35.69.2 35.08-.04 34.45 0c-.59.04-1.16.29-1.59.73L0 33.6l6.39 6.39L39.25 7.12c.93-.93.97-2.4.1-3.28ZM3.19 33.6 28.35 8.42l3.21 3.21L6.39 36.81 3.18 33.6ZM37.65 5.53l-2.83 2.83-3.21-3.21 2.83-2.83c.06-.06.11-.07.1-.09l3.18 3.16s0 .08-.07.14M4.75 16.39l-4.78-1.35 4.78-1.35L6.1 8.91l1.35 4.78 4.78 1.35-4.78 1.35-1.35 4.78zm11.37-8.91-4.78-1.35 4.78-1.35L17.47 0l1.35 4.78 4.78 1.35-4.78 1.35-1.35 4.78zm15.89 18.99 4.78 1.35-4.78 1.35-1.35 4.78-1.35-4.78-4.78-1.35 4.78-1.35 1.35-4.78z"/>
</svg>
