<svg viewBox="0 0 32 32" xmlns="http://www.w3.org/2000/svg">
  <path fill="#1e1e1c" d="M25.88 11.76 5.73 31.95l-5.7-5.72L20.18 6.04l5.71 5.72Zm5.48-5.49c.78-.78.78-2.05 0-2.83L28.48.55c-.78-.78-2.05-.78-2.83 0l-2.73 2.74 5.71 5.72 2.74-2.74ZM5.55 18.57l1.22-4.33 4.34-1.23-4.34-1.22-1.22-4.34-1.22 4.34-4.35 1.22 4.34 1.23 1.22 4.33Zm7.47-7.47 1.23-4.35 4.32-1.23-4.32-1.23-1.23-4.34L11.8 4.3 7.47 5.53l4.33 1.23 1.22 4.35Zm14.64 9.72-1.22-4.33-1.22 4.33-4.32 1.23 4.32 1.23 1.22 4.33 1.22-4.33 4.32-1.23z"/>
</svg>
