<svg viewBox="0 0 64 64" xmlns="http://www.w3.org/2000/svg">
  <path fill="#1e1e1c" d="M63.11 6.1 57.96.96c-.61-.61-1.48-.93-2.37-.87-.84.05-1.65.42-2.27 1.04L-.01 54.35l9.62 9.6 53.34-53.23c1.32-1.32 1.4-3.4.16-4.63ZM3.88 54.35l42.11-42.03 5.74 5.72L9.61 60.07l-5.74-5.72ZM61 8.78l-4.66 4.65-5.74-5.72 4.66-4.65c.14-.14.32-.23.49-.24.07 0 .18 0 .26.08l5.15 5.14c.07.07.08.18.08.26 0 .17-.1.35-.24.49ZM6.42 25.86 0 24.05l6.43-1.82 1.82-6.41 1.82 6.41 6.43 1.82-6.43 1.82-1.82 6.42-1.82-6.42ZM26.19 10l-6.43-1.82 6.43-1.82 1.82-6.41 1.82 6.41 6.43 1.82L29.83 10l-1.82 6.42zm24.68 32.63 6.43 1.82-6.43 1.82-1.82 6.42-1.82-6.42-6.43-1.82 6.43-1.82 1.82-6.42z"/>
</svg>
