<svg viewBox="0 0 64 64" xmlns="http://www.w3.org/2000/svg">
  <path d="M47.86 34.71H16.19C7.27 34.71.02 41.96.02 50.86v13.13h64.01V50.86c0-8.9-7.25-16.14-16.17-16.14Zm-31.3 29.28h-2.75V52.98h2.75zm28.15-16.66H31.52v-2.75h13.19zm5.24 16.66H47.2V52.98h2.75zM12.1 15.75h6.28c1.03 6.49 6.66 11.48 13.45 11.48s12.87-5.38 13.56-12.24h.07v-1.38c0-7.51-6.11-13.62-13.63-13.62-6.71 0-12.29 4.87-13.41 11.25H12.1c-1.24 0-2.25 1.01-2.25 2.25s1.01 2.25 2.25 2.25Zm10.3-4.65c1.11-4.16 4.92-7.24 9.43-7.24s8.32 3.08 9.43 7.24z"/>
</svg>
