<svg viewBox="0 0 16 16" xmlns="http://www.w3.org/2000/svg">
  <path fill="#1e1e1c" d="M7.99 0C5.73 0 .47.22.47 2.25v11.46C.47 15.78 5.73 16 7.99 16s7.52-.22 7.52-2.25V2.25C15.51.22 10.25 0 7.99 0m6.02 13.62c-.49.38-2.9.88-6.02.88s-5.57-.52-6.02-.9V2.38c.49-.38 2.9-.88 6.02-.88s5.53.49 6.02.88zM2.76 4.03v6.81c0 1.41 2.84 1.7 5.22 1.7s5.22-.29 5.22-1.68V4.02c0-1.38-2.84-1.67-5.22-1.67s-5.22.29-5.22 1.67Zm6.72-.11v1.82H6.5V3.92c.46-.04.96-.06 1.49-.06s1.03.02 1.49.06m-1.49 7.13c-1.77 0-3.24-.25-3.72-.46V9.42h7.45v1.18c-.5.21-1.97.45-3.72.45Zm3.72-3.13H4.26V4.3c.16-.06.41-.13.74-.19v3.13h5.98V4.11c.32.06.58.13.74.19v3.62ZM4.5 13.01c0 .41-.4.81-.81.81s-.81-.4-.81-.81.4-.81.81-.81.81.4.81.81"/>
</svg>
