<svg viewBox="0 0 16 16" xmlns="http://www.w3.org/2000/svg">
  <path fill="#1e1e1c" d="M3.18 9.47h9.62v1.07c-.67.26-2.8.54-4.81.54s-4.16-.29-4.81-.56zm2.4-4.35h4.81V3.11c-.75-.07-1.59-.12-2.41-.12s-1.65.05-2.41.12v2.01Zm7.22-1.59c-.19-.07-.51-.15-.9-.22v3.32H4.09V3.31c-.39.07-.71.15-.9.22v4.44h9.62V3.53Zm2.71-1.28v11.51c0 2.03-5.26 2.25-7.52 2.25S.47 15.79.47 13.72V2.25C.47.22 5.73 0 7.99 0s7.52.22 7.52 2.25M3.3 13.57c0-.41-.4-.82-.82-.82s-.82.4-.82.82.4.82.82.82.82-.4.82-.82m11-10.34c0-1.44-3.43-1.74-6.31-1.74s-6.31.3-6.31 1.74v7.57c0 1.47 3.43 1.77 6.31 1.77s6.31-.3 6.31-1.74z"/>
</svg>
