<svg viewBox="0 0 64 64" xmlns="http://www.w3.org/2000/svg">
  <path fill="#1e1e1c" d="M38.56 64H32C14.35 64 0 49.64 0 32c0-8.73 3.45-16.89 9.72-22.97C15.98 2.96 24.24-.26 32.98.02 50.08.53 64 15.46 64 33.29v13.9c0 4.98-4.05 9.03-9.03 9.03s-9.03-4.05-9.03-9.03V41.2c-1.13 1.67-2.2 2.67-2.29 2.76-3.98 3.9-9.49 5.51-15.1 4.39-6.26-1.26-11.4-6.27-12.8-12.47-1.16-5.12.03-10.34 3.26-14.34 3.19-3.96 7.92-6.22 12.99-6.22h.16c9.12.08 16.53 7.94 16.53 17.51v14.36c0 3.46 2.82 6.28 6.28 6.28s6.28-2.82 6.28-6.28v-13.9c0-16.36-12.72-30.05-28.35-30.52-8.01-.23-15.55 2.69-21.27 8.24C5.9 16.56 2.75 24.02 2.75 32c0 16.13 13.12 29.25 29.25 29.25h6.56c.76 0 1.37.61 1.37 1.37s-.61 1.37-1.37 1.37ZM32 18.06c-4.24 0-8.19 1.89-10.85 5.19-2.69 3.34-3.68 7.72-2.72 12.01 1.17 5.16 5.45 9.33 10.66 10.38 4.69.94 9.31-.4 12.66-3.69.07-.07 4.18-3.93 4.18-9.13 0-8.07-6.2-14.7-13.81-14.76h-.13Z"/>
</svg>
