<svg viewBox="0 0 64 64" xmlns="http://www.w3.org/2000/svg">
  <path fill="#1e1e1c" d="M10.59 38.7v-6.16h43.82v6.16zm10.07-17.27h23.69V9.61c-3.66-.41-7.86-.67-11.84-.67s-8.18.26-11.84.67v11.82Zm33.75 8.35V11.92c-.7-.71-3.53-1.41-7.32-1.96v14.22H17.9V9.96c-3.79.55-6.61 1.25-7.32 1.96v17.86H54.4ZM10.59 41.45v2.34c1.37 1.53 12.27 3.07 21.91 3.07s20.43-1.49 21.91-2.98v-2.43zM62.24 7.61v48.71c0 7.56-28.52 7.64-29.74 7.64-3.04 0-29.74-.22-29.74-7.83V7.61C2.76.06 31.29-.03 32.5-.03s29.74.09 29.74 7.64M11.58 54.52c0-.91-.74-1.66-1.66-1.66s-1.66.74-1.66 1.66.74 1.66 1.66 1.66 1.66-.74 1.66-1.66m45.58-42.79c0-2.19-2.8-3.49-9.65-4.49-4.4-.64-10.29-1.06-15.01-1.06s-10.6.41-15.01 1.06c-6.86 1-9.65 2.3-9.65 4.49v32.22c0 2.21 2.88 3.59 9.65 4.6 4.37.65 10.26 1.07 15.01 1.07s10.6-.41 15.01-1.06c6.86-1 9.65-2.3 9.65-4.49z"/>
</svg>
