<svg viewBox="0 0 64 64" xmlns="http://www.w3.org/2000/svg">
  <path fill="#010101" d="M64.01 50.87V64h-2.75V50.87c0-7.39-6.02-13.39-13.41-13.39H16.18c-7.4 0-13.41 6.01-13.41 13.39V64H0V50.87c0-8.91 7.26-16.15 16.17-16.15h31.67c8.91 0 16.17 7.24 16.17 16.15M16.29 63.99h2.75V52.98h-2.75zm28.39 0h2.75V52.98h-2.75zm.02-19.4H31.51v2.75H44.7zM9.75 13.61c0-.76.62-1.38 1.38-1.38h7.12C18.94 5.37 24.76 0 31.82 0c7.52 0 13.63 6.11 13.63 13.62s-6.12 13.62-13.63 13.62c-7.05 0-12.87-5.38-13.56-12.24h-7.12c-.76 0-1.38-.62-1.38-1.38Zm32.85 1.38H21.03c.68 5.34 5.25 9.49 10.78 9.49s10.1-4.15 10.78-9.49Zm-21.57-2.76H42.6c-.68-5.34-5.25-9.49-10.78-9.49s-10.1 4.15-10.78 9.49Z"/>
</svg>
