<svg viewBox="0 0 32 32" xmlns="http://www.w3.org/2000/svg">
  <path fill="#010101" d="M32 25.57v6.44h-2v-6.44c0-3.44-2.8-6.24-6.24-6.24H8.25c-3.44 0-6.24 2.8-6.24 6.24v6.44H0v-6.44c0-4.54 3.7-8.24 8.24-8.24h15.51c4.55 0 8.24 3.7 8.24 8.24ZM8.21 32.01h2v-5.4h-2zm13.43 0h2v-5.4h-2zm.57-9.84h-6.46v2h6.46zM4.56 7.14c0-.55.45-1 1-1h3.29C9.35 2.68 12.32 0 15.91 0c3.93 0 7.13 3.2 7.13 7.13s-3.2 7.13-7.13 7.13c-3.59 0-6.56-2.67-7.05-6.12H5.57c-.55 0-1-.45-1-1Zm16.37 1H10.88c.47 2.35 2.54 4.12 5.02 4.12s4.56-1.78 5.02-4.12ZM10.88 6.13h10.05c-.47-2.35-2.54-4.12-5.02-4.12s-4.56 1.78-5.02 4.12Z"/>
</svg>
