<svg viewBox="0 0 48 48" xmlns="http://www.w3.org/2000/svg">
  <path d="m3.52.01 2.5 2.5H45.5v13.2H19.22l2.5 2.5h15.43v10.24h-5.18l2.5 2.5h3.39l6.02 6.45h-2.96l2.5 2.5H48V.01zM45.5 35.48l-5.85-6.27v-11h5.85zM27.28 4.45v8.67h14.66V4.45zm12.16 6.16h-9.66V6.94h9.66zm-3.1 29.29h-5.68v8.09L0 40.4V3.56l2.5 2.5v9.65h9.66l2.5 2.5h-6.3l8.38 2.07 3.42 3.42L2.5 19.33v19.11l25.66 6.35V31.71l2.5 2.5v3.18h3.18l2.5 2.5Zm-12.35-4.62c-.52 0-1.39-.36-1.39-1.7s.87-1.7 1.39-1.7 1.39.36 1.39 1.7-.87 1.7-1.39 1.7m.15-25.11H13.68l-2.5-2.5h12.96zM5.08 8.64l1.53 1.53H5.08zm25.58 15.09v3.42l-4.54-4.54zM1.77.03l46.22 46.22-1.77 1.77L0 1.8z"/>
</svg>
