<svg viewBox="0 0 64 64" xmlns="http://www.w3.org/2000/svg">
  <path d="M36.71 5.98v11.05h19.11V5.98zm16.36 8.3H39.46V8.73h13.61zM31.99 46.87c-.58 0-1.56-.42-1.56-1.99s.98-1.99 1.56-1.99 1.56.42 1.56 1.99-.98 1.99-1.56 1.99M61.23 2.76v18.38H25.02l2.75 2.75H50v14.4h-7.83l2.75 2.75h5.86l8.67 9.29h-5.23l2.75 2.75h7.02V.01H3.89l2.75 2.75zm0 45.46-8.48-9.09V23.9h8.48v24.33Zm-12.05 4.86h-8.53v10.91L0 53.83V3.91l2.75 2.75v14.48h14.48l2.75 2.75H8.35l15.51 3.88 3.78 3.78-24.88-6.22v26.36l35.14 8.79V41.81l2.75 2.75v5.78h5.78l2.75 2.75ZM32.19 10.32v2.75H16.94l-2.75-2.75zm-25.65.12 2.63 2.63H6.54zm34.11 26.34-6.41-6.41 6.41 1.6zM64 62.07l-1.95 1.95L0 1.96 1.95.01 64 62.06Z"/>
</svg>
