<svg viewBox="0 0 40 40.4" xmlns="http://www.w3.org/2000/svg">
  <path fill="#1e1e1c" d="M23.86 40.15H20c-11.03 0-20-8.98-20-20C0 14.69 2.16 9.6 6.07 5.8S15.16 0 20.61.15C31.3.47 40 9.78 40 20.9v8.17c0 3.59-2.92 6.5-6.5 6.5s-6.5-2.92-6.5-6.5v-.43c-2.52 2.09-5.93 2.95-9.26 2.28-4.13-.83-7.53-4.14-8.45-8.24-.76-3.37.02-6.81 2.15-9.44 2.1-2.61 5.22-4.1 8.57-4.1h.1c6.01.05 10.9 5.21 10.9 11.49v8.44a2.5 2.5 0 0 0 5 0V20.9c0-8.97-6.95-16.48-15.5-16.74-4.37-.12-8.5 1.47-11.63 4.51s-4.86 7.12-4.86 11.48c0 8.82 7.17 15.99 15.99 15.99h3.86a2 2 0 1 1 0 4Zm-3.86-27c-2.13 0-4.11.95-5.45 2.61-1.35 1.68-1.85 3.88-1.36 6.04.58 2.58 2.73 4.67 5.33 5.19 2.36.47 4.68-.2 6.37-1.85.06-.06 2.1-2 2.1-4.51 0-4.02-3.17-7.45-6.93-7.48z"/>
</svg>
