<svg viewBox="0 0 24 24" xmlns="http://www.w3.org/2000/svg">
  <path fill="#1e1e1c" d="M14.38 24H12C5.38 24 0 18.62 0 12a11.9 11.9 0 0 1 3.64-8.61C5.99 1.11 9.08-.08 12.37 0 18.78.19 24 5.78 24 12.46v5.05c0 2.02-1.64 3.66-3.66 3.66s-3.66-1.64-3.66-3.66v-1.1c-.11.12-.19.19-.2.2-1.53 1.5-3.66 2.12-5.81 1.68-2.42-.49-4.4-2.42-4.94-4.82-.45-1.97.01-3.99 1.26-5.53A6.39 6.39 0 0 1 12 5.54h.06c3.52.03 6.38 3.05 6.38 6.74v5.22c0 1.05.86 1.9 1.91 1.9s1.9-.85 1.9-1.9v-5.05c0-5.74-4.46-10.55-9.93-10.71-2.82-.11-5.45.94-7.45 2.89a10.16 10.16 0 0 0-3.11 7.36c0 5.65 4.6 10.25 10.25 10.25h2.38c.48 0 .88.39.88.88s-.39.88-.88.88ZM12 7.31c-1.42 0-2.75.63-3.65 1.75-.91 1.12-1.24 2.6-.91 4.04.39 1.73 1.83 3.13 3.58 3.49 1.58.32 3.13-.13 4.26-1.24.03-.03 1.41-1.33 1.41-3.05 0-2.73-2.08-4.96-4.64-4.99h-.04Z"/>
</svg>
