<svg viewBox="0 0 64 64" xmlns="http://www.w3.org/2000/svg">
  <path fill="#1e1e1c" d="M38.32 64H32C14.36 64 0 49.64 0 32c0-8.73 3.45-16.88 9.72-22.97C15.98 2.95 24.23-.25 32.98.01 50.08.52 64 15.43 64 33.23v13.38c0 5.45-4.43 9.88-9.88 9.88s-9.88-4.43-9.88-9.88v-2.46c-.12.12-.2.2-.23.22-4.03 3.95-9.87 5.66-15.57 4.51-6.47-1.3-11.8-6.49-13.25-12.91-1.19-5.28.04-10.68 3.37-14.82 3.3-4.09 8.19-6.43 13.43-6.43h.16c9.42.09 17.09 8.18 17.09 18.04v13.83a4.87 4.87 0 1 0 9.74 0V33.21C58.98 18.09 47.25 5.43 32.82 5c-7.37-.23-14.34 2.48-19.63 7.61C7.91 17.74 5 24.62 5 31.98c0 14.88 12.11 26.99 26.99 26.99h6.32c1.38 0 2.51 1.12 2.51 2.51s-1.12 2.51-2.51 2.51ZM32 19.76c-3.72 0-7.19 1.66-9.53 4.56-2.37 2.93-3.23 6.78-2.38 10.56 1.02 4.52 4.78 8.18 9.34 9.1 4.13.83 8.19-.35 11.13-3.24.09-.08 3.67-3.48 3.68-7.95 0-7.13-5.44-12.97-12.13-13.04H32Z"/>
</svg>
