<svg viewBox="0 0 16 16" xmlns="http://www.w3.org/2000/svg">
  <path fill="#010101" d="M15.99 12.88V16h-1.5v-3.12c0-1.52-1.23-2.75-2.75-2.75h-7.5c-1.52 0-2.75 1.23-2.75 2.75V16H0v-3.12c0-2.35 1.9-4.25 4.25-4.25h7.5A4.26 4.26 0 0 1 16 12.88ZM4.21 16h1.5v-2.62h-1.5zm6.01 0h1.5v-2.62h-1.5zm.79-5.04H7.89v1.5h3.12zM2.14 3.75c0-.41.34-.75.75-.75h1.39c.35-1.71 1.87-3 3.68-3 2.07 0 3.75 1.68 3.75 3.75S10.03 7.5 7.96 7.5c-1.81 0-3.33-1.29-3.68-3H2.89c-.41 0-.75-.34-.75-.75m7.93.75H5.85C6.16 5.37 6.99 6 7.96 6s1.8-.63 2.11-1.5M5.85 3h4.22c-.31-.87-1.14-1.5-2.11-1.5s-1.8.63-2.11 1.5"/>
</svg>
