<svg viewBox="0 0 32 32" xmlns="http://www.w3.org/2000/svg">
  <path fill="#1e1e1c" d="M15.98 0C13.55 0 1.43.19 1.43 3.98v23.93c0 3.88 12.12 4.08 14.54 4.08S30.51 31.8 30.51 28V3.98C30.52.19 18.41 0 15.98 0m0 29.99c-7.1 0-12.18-1.26-12.54-2.08V4.06C3.86 3.22 8.97 2 15.98 2S28.1 3.22 28.52 3.99v23.95c-.42.84-5.53 2.06-12.54 2.06Zm0-26.03c-3.22 0-10.7.28-10.7 2.85v15.38c0 2.62 7.48 2.91 10.7 2.91s10.7-.28 10.7-2.85V6.81c0-2.57-7.48-2.85-10.7-2.85M7.28 17.2h17.4v2.16H7.28zM21.2 6.28v4.44H10.75V6.28c1.52-.19 3.36-.33 5.23-.33s3.71.13 5.23.33Zm-12.45.33v6.11H23.2V6.61c.69.15 1.21.31 1.47.46v8.13H7.28V7.07c.26-.15.78-.31 1.47-.46m7.23 16.48c-3.98 0-7.84-.61-8.7-1.15v-.58h17.4v.61c-.9.53-4.75 1.12-8.7 1.12m-8.23 3.43c0 .62-.5 1.13-1.12 1.13s-1.12-.51-1.12-1.13.5-1.13 1.12-1.13 1.12.51 1.12 1.13"/>
</svg>
