<svg viewBox="0 0 40 40" xmlns="http://www.w3.org/2000/svg">
  <path d="M22.64 3.69v7.37h12.34V3.69zm10.09 5.12h-7.84V5.94h7.84zM20 29.46c-.6 0-1.24-.47-1.24-1.5s.64-1.5 1.24-1.5 1.24.47 1.24 1.5-.64 1.5-1.24 1.5m.13-20.85h-8.35L9.53 6.36h10.6zM4.31 7.51l1.1 1.1h-1.1zM3.17 0l2.25 2.25h32.34v10.78H16.2l2.25 2.25h12.38v8.32h-4.06l2.25 2.25h2.45l4.83 5.18h-2.1l2.25 2.25h3.57V0zm34.59 29.31-4.68-5.01v-9.01h4.68zm-7.68 3.98h-4.46v6.7L0 33.69V3.21l2.25 2.25v7.58h7.58l2.25 2.25h-4.3l5.7 1.4 3.07 3.07-14.3-3.52v15.68l21.12 5.19V26.57l2.25 2.25v2.21h2.21l2.25 2.25Zm-4.46-13.62v2.79l-3.7-3.7zM1.6.03l38.39 38.39-1.59 1.59L0 1.62z"/>
</svg>
