<svg viewBox="0 0 48 48" xmlns="http://www.w3.org/2000/svg">
  <path fill="#1e1e1c" d="M7.91 22.11V9.18c.6-.47 2.49-.93 4.98-1.3v10.53h22.15V7.88c2.5.37 4.38.84 4.98 1.3v12.93zm7.48-6.2h17.15V7.56c-2.68-.29-5.72-.48-8.58-.48s-5.9.19-8.58.48v8.35Zm24.64 12.83v-4.12H7.91v4.12zm-32.12 2.5v1.4c1.29 1.08 9.2 2.16 16.06 2.16s14.69-1.04 16.06-2.1v-1.47H7.91Zm38.4-25.37v36.19c0 2.18-2.55 3.68-8.02 4.72-3.97.75-9.19 1.19-14.32 1.19-2.29 0-22.34-.17-22.34-6.05V5.87c0-2.18 2.55-3.68 8.02-4.72C13.62.4 18.84-.03 23.97-.03S34.32.4 38.29 1.16c5.47 1.04 8.02 2.54 8.02 4.72ZM8.65 40.72c0-.81-.65-1.46-1.46-1.46s-1.46.65-1.46 1.46.66 1.46 1.46 1.46 1.46-.65 1.46-1.46M42.53 8.93c0-4.22-16.66-4.35-18.56-4.35S5.41 4.7 5.41 8.93v23.93c0 4.32 16.66 4.44 18.56 4.44s18.56-.12 18.56-4.35z"/>
</svg>
