<svg viewBox="0 0 16 16" xmlns="http://www.w3.org/2000/svg">
  <path fill="#1e1e1c" d="m15.54 2.05-4.83-2s-.07 0-.11-.02c-.06-.01-.11-.03-.18-.03q-.09 0-.18.03c-.04 0-.07 0-.11.02L5.58 1.93 1.04.05c-.23-.1-.5-.07-.7.07C.13.26 0 .49 0 .74v9.07c0 .3.18.58.46.69l4.83 2h.03c.08.03.17.05.26.05s.17-.02.26-.05h.03l1.96-.81c-.21-.47-.38-.95-.48-1.42l-1.02.42V3.25l3.34-1.38v3.35c.46-.26.96-.46 1.5-.55v-2.8l3.34 1.38v2.07c.6.38 1.12.88 1.5 1.49V2.74c0-.3-.18-.58-.46-.69Zm-10.7 8.64L1.5 9.31V1.87l3.34 1.38v7.45ZM12 5.33c-2.21 0-4 1.8-4 4.01 0 2.56 3.12 5.76 3.47 6.12l.53.53.53-.53c.36-.36 3.47-3.55 3.47-6.12 0-2.21-1.8-4.01-4-4.01m0 8.5c-1-1.12-2.5-3.12-2.5-4.49s1.12-2.51 2.5-2.51 2.51 1.13 2.51 2.51S13 12.71 12 13.83m1.31-4.47c0 .73-.59 1.32-1.31 1.32s-1.31-.59-1.31-1.32.59-1.32 1.31-1.32 1.31.59 1.31 1.32"/>
</svg>
