<svg viewBox="0 0 24 24" xmlns="http://www.w3.org/2000/svg">
  <path fill="#1e1e1c" d="m0 0 6.83 2.82v15.03L0 15.03zm17.17 0v7.89c.48-.1.97-.16 1.47-.16 2.14 0 4.05.95 5.36 2.45V2.82zm-1.75 8.51V0L8.59 2.82v15.03l3.18-1.31c-.15-.58-.23-1.15-.23-1.71 0-2.75 1.58-5.14 3.88-6.32m3.22 5.5a.85.85 0 1 0-.001 1.699.85.85 0 0 0 .001-1.699m5.36.82c0 3.82-5.35 9.17-5.35 9.17s-5.35-5.35-5.35-9.17c0-2.95 2.4-5.35 5.35-5.35S24 11.88 24 14.83m-2.75.03c0-1.43-1.17-2.6-2.6-2.6s-2.6 1.17-2.6 2.6 1.17 2.6 2.6 2.6 2.6-1.17 2.6-2.6"/>
</svg>
