<svg viewBox="0 0 64 64" xmlns="http://www.w3.org/2000/svg">
  <path fill="#1e1e1c" d="m0 0 19.5 8.06v40.07L0 40.07zm44.5 0v25.06c1.79-.67 3.73-1.06 5.76-1.06C56 24 61.06 26.96 64 31.42V8.06zm-2.75 26.39V0l-19.5 8.06v40.07l11.82-4.89c-.17-.94-.28-1.87-.28-2.78 0-5.97 3.2-11.19 7.96-14.08Zm8.51 10.79c-1.85 0-3.36 1.51-3.36 3.37s1.51 3.36 3.36 3.36 3.36-1.51 3.36-3.36-1.51-3.37-3.36-3.37m13.71 3.29C63.97 50.28 50.25 64 50.25 64S36.53 50.28 36.53 40.47c0-7.58 6.14-13.72 13.72-13.72s13.72 6.14 13.72 13.72m-7.6.07c0-3.37-2.74-6.12-6.11-6.12s-6.11 2.74-6.11 6.12a6.11 6.11 0 1 0 12.22 0"/>
</svg>
