<svg viewBox="0 0 40 40" xmlns="http://www.w3.org/2000/svg">
  <path fill="#1e1e1c" d="m.01-.05 11.83 4.9v25.08L.01 25.03zm28.17 0v14.5c.99-.29 2.03-.46 3.11-.46 3.56 0 6.72 1.71 8.73 4.35V4.85zM25.93 15.4V-.05l-11.84 4.9v25.08l6.5-2.69c-.17-.76-.28-1.52-.28-2.26 0-4.11 2.27-7.69 5.61-9.58Zm5.36 7.73c-1.04 0-1.89.85-1.89 1.89s.85 1.89 1.89 1.89 1.89-.85 1.89-1.89-.85-1.89-1.89-1.89m8.72 1.84c0 6.24-8.72 14.97-8.72 14.97s-8.72-8.73-8.72-14.97c0-4.82 3.91-8.74 8.72-8.74s8.72 3.91 8.72 8.74m-4.59.05c0-2.28-1.86-4.14-4.14-4.14s-4.14 1.86-4.14 4.14 1.86 4.14 4.14 4.14 4.14-1.86 4.14-4.14"/>
</svg>
