<svg viewBox="0 0 40 40" xmlns="http://www.w3.org/2000/svg">
  <path fill="#1e1e1c" d="M39.35 5.29 26.76.08h-.03c-.04-.02-.09-.03-.14-.04l-.13-.03h-.28c-.04 0-.09.02-.13.03-.05.01-.09.02-.14.04h-.03L13.73 5.11 1.6.08C1.25-.06.85-.02.54.18c-.31.21-.5.56-.5.94v23.62c0 .46.27.87.69 1.04l12.58 5.21h.05c.12.05.25.08.38.08s.26-.03.38-.08h.05l6.87-2.85c-.26-.74-.45-1.47-.57-2.2l-5.61 2.32V7.08L25.2 2.8v12.85c.7-.44 1.45-.8 2.25-1.07V2.8l10.34 4.28v9.76c.92.86 1.69 1.88 2.25 3.03V6.33c0-.46-.27-.87-.69-1.04M12.63 28.26 2.29 23.98V2.8l10.34 4.28zm18.1-13.09c-5.11 0-9.26 4.16-9.26 9.27 0 6.22 8.12 14.41 8.46 14.76l.8.8.79-.8c.35-.35 8.47-8.55 8.47-14.76 0-5.11-4.15-9.27-9.26-9.27m0 21.61c-2.51-2.72-7.01-8.42-7.01-12.34s3.15-7.02 7.01-7.02 7.01 3.15 7.01 7.02-4.51 9.62-7.01 12.34m0-16.24a3.94 3.94 0 0 0 0 7.88c2.16 0 3.93-1.77 3.93-3.94s-1.77-3.94-3.93-3.94m0 5.63c-.93 0-1.69-.76-1.69-1.69s.76-1.69 1.69-1.69 1.69.76 1.69 1.69-.76 1.69-1.69 1.69"/>
</svg>
