<svg viewBox="0 0 32 32" xmlns="http://www.w3.org/2000/svg">
  <path d="M27.08 0H4.92L0 8.06v2.56c0 1.25.51 2.39 1.33 3.22V32h19.41V20h8.31v12h1.61V13.86c.82-.83 1.34-1.96 1.34-3.22V8.1zM10.99 1.99h4.1v5.66H9.43zm3.8 8.01v.62c0 1.43-1.17 2.6-2.6 2.6s-2.6-1.17-2.6-2.6V10h5.21ZM6.04 1.99h2.88L7.36 7.65H2.59zM2 10.61v-.62h5.21v.62c0 1.43-1.17 2.6-2.6 2.6s-2.6-1.17-2.6-2.6Zm16.65 15.32H3.99V16.6h14.67v9.33Zm3.74-15.27c0 1.43-1.17 2.6-2.6 2.6s-2.6-1.17-2.6-2.6v-.62h5.21v.62ZM17.1 7.65V1.99H21l1.56 5.66h-5.45Zm5.97-5.66h2.89l3.45 5.66h-4.78zm6.92 8.63c0 1.43-1.17 2.6-2.6 2.6s-2.6-1.17-2.6-2.6V10H30v.62ZM16.65 23.93h-4.33V18.6h4.33zm-6.33 0H5.99V18.6h4.33zM22.73 22h4.31v3.05h-1.76v2h1.76V30h-4.31z"/>
</svg>
