<svg viewBox="0 0 16 16" xmlns="http://www.w3.org/2000/svg">
  <path d="M16 3.93 13.63 0H2.36L0 3.93v1.82c0 .57.26 1.07.67 1.41V16h14.66V7.17c.4-.34.67-.85.67-1.42zm-5.31 1.59v.25c0 .2-.16.36-.36.36h-.88c-.2 0-.36-.16-.36-.36v-.25zM6.9 5.5v.25c0 .2-.16.36-.36.36h-.88c-.2 0-.36-.16-.36-.36V5.5zm1.9-1.65V1.5h1.56l.66 2.35zm-1.5 0H4.98l.66-2.35H7.3zm6.9 0h-1.62l-.66-2.35h.88l1.41 2.35ZM3.21 1.5h.87l-.66 2.35H1.8zM1.87 6.11c-.2 0-.36-.16-.36-.36V5.5h1.6v.25c0 .2-.16.36-.36.36zm11.96 6.14h-1.04v1.5h1.04v.73h-2.1v-3h2.1zm-3.6-2.27v4.52H2.17v-1.53H8.6V8.3H2.17v-.69h.58c.59 0 1.11-.28 1.45-.71.34.43.86.72 1.46.72h.88c.59 0 1.11-.28 1.45-.71.34.44.87.73 1.46.73h.88c.6 0 1.13-.29 1.47-.73.34.43.86.71 1.45.71h.58v2.37h-3.6ZM7.09 9.8v1.67H5.67V9.8zm-2.91 1.67H2.77V9.8h1.41zm10.31-5.72c0 .2-.16.36-.36.36h-.88c-.2 0-.36-.16-.36-.36V5.5h1.6z"/>
</svg>
