<svg viewBox="0 0 24 24" xmlns="http://www.w3.org/2000/svg">
  <path d="M3.45 19.45h11v-7h-11zm9.25-1.75H9.83v-3.5h2.87zm-7.5-3.5h2.87v3.5H5.2zM24 6.14 20.24 0H3.76L0 6.14v1.82c0 .94.38 1.8.99 2.42V24H23V10.39c.62-.62 1-1.48 1-2.43V6.13Zm-1.75 1.83c0 .94-.76 1.7-1.7 1.7s-1.7-.76-1.7-1.7v-.22h3.41v.22Zm-5.71-.19V8c0 .94-.76 1.7-1.7 1.7s-1.7-.76-1.7-1.7v-.22h3.41Zm-5.69-.03v.22c0 .94-.76 1.7-1.7 1.7s-1.7-.76-1.7-1.7v-.22h3.41Zm2.1-2.14V1.75h2.71l1.09 3.86zm-1.75 0H7.25l1.09-3.86h2.86zm10.42 0h-3.06l-1.09-3.86h1.78zM4.74 1.75h1.78L5.43 5.61H2.38l2.37-3.86ZM1.75 7.96v-.22h3.41v.22c0 .94-.76 1.7-1.7 1.7s-1.7-.76-1.7-1.7Zm19.5 10.67h-2.06v1.75h2.06v1.84H17.1v-5.5h4.15zm-5.91-3.66v7.28H2.74V11.34c.23.05.47.07.71.07 1.18 0 2.22-.59 2.84-1.5.62.91 1.66 1.5 2.85 1.5 1.18 0 2.21-.59 2.84-1.49.62.91 1.67 1.52 2.86 1.52s2.24-.6 2.86-1.52c.62.9 1.66 1.49 2.84 1.49.24 0 .48-.03.7-.07v3.62h-5.91Z"/>
</svg>
