<svg viewBox="0 0 48 48" xmlns="http://www.w3.org/2000/svg">
  <path d="M47.98 11.87 40.32-.02H7.68L.01 11.87v2.83c0 2.15.99 4.08 2.53 5.34V48h2.5v-5.81h5.89V48h2.5v-5.81h21.19V48h2.5v-5.81h5.8V48h2.5V20.06a6.9 6.9 0 0 0 2.54-5.35v-2.84Zm-13.9 1.46v1.43c0 2.43-1.98 4.4-4.4 4.4s-4.4-1.98-4.4-4.4v-1.43h8.81Zm-11.39-.05v1.43c0 2.43-1.98 4.4-4.4 4.4s-4.4-1.98-4.4-4.4v-1.43h8.81Zm2.7-2.53V2.48h6.14l2.33 8.27zm-2.5 0h-8.78l2.33-8.27h6.45zm21.39 0h-7.82l-2.33-8.27h4.82zM9.04 2.48h4.81l-2.33 8.27H3.71zM2.51 13.26h.03l2.5.01 6.28-.01v1.43c0 2.43-1.98 4.4-4.4 4.4s-4.4-1.98-4.4-4.4v-1.43Zm7.28 26.43v-8.48h6.98v2.99h-3.04v2.5h3.04v2.99zm13.3 0V38.3h2.21v-2.5h-2.21v-1.39h4.21v5.28zm10.56 0v-5.94a2.5 2.5 0 0 1 5 0v5.94zm9.28 0h-1.78v-5.94c0-2.08-1.27-3.86-3.08-4.61v-4.39h-3.84v4.39a5 5 0 0 0-3.08 4.61v5.94h-1.36v-7.78h-9.21v7.78h-1.33V28.71H7.29v10.98H5.05V21.34c.6.17 1.22.26 1.87.26 2.36 0 4.44-1.18 5.68-2.99 1.24 1.81 3.33 3 5.69 3s4.43-1.18 5.67-2.98c1.24 1.83 3.34 3.03 5.71 3.03s4.48-1.2 5.72-3.03a6.9 6.9 0 0 0 5.68 2.98c.64 0 1.27-.1 1.86-.26v18.33Zm2.55-24.98c0 2.43-1.98 4.4-4.4 4.4s-4.4-1.98-4.4-4.4v-1.43h8.8z"/>
</svg>
