<svg viewBox="0 0 24 24" xmlns="http://www.w3.org/2000/svg">
  <path d="M20.24 0H3.76L0 6.14v1.82c0 .94.38 1.8.99 2.42V24H23V10.39c.62-.62 1-1.48 1-2.43V6.13zm-.98 1.75 2.37 3.86h-3.06l-1.09-3.86zm-6.31 0h2.71l1.09 3.86h-3.8zm-4.62 0h2.86v3.86H7.24zm2.52 6v.22c0 .94-.76 1.7-1.7 1.7s-1.7-.76-1.7-1.7v-.22h3.41Zm-6.11-6h1.78L5.43 5.61H2.38l2.37-3.86ZM1.75 7.96v-.22h3.41v.22c0 .94-.76 1.7-1.7 1.7s-1.7-.76-1.7-1.7ZM13.7 19.45h-11v-7h11zm-.56-11.46v-.22h3.41v.22c0 .94-.76 1.7-1.7 1.7s-1.7-.76-1.7-1.7Zm8.2 15.98h-6.25v-9h6.25zm.91-16c0 .94-.76 1.7-1.7 1.7s-1.7-.76-1.7-1.7v-.22h3.41v.22ZM7.33 17.7H4.46v-3.5h2.87zm4.62 0H9.08v-3.5h2.87zm7.64 4.52h-2.75v-5.5h2.75v1.85h-.98v1.75h.98z"/>
</svg>
