<svg viewBox="0 0 64 64" xmlns="http://www.w3.org/2000/svg">
  <path d="M9.46 51.86h29.33V33.2H9.46zM25.5 35.95h10.54v13.17H25.5zm-13.29 0h10.54v13.17H12.21zM54.39 0H9.6L0 15.48l.02 5.74c0 2.55 1.01 4.86 2.65 6.53v36.24h58.66V27.8A9.34 9.34 0 0 0 64 21.25v-5.77zm-1.53 2.75 7.89 12.73H48.66L45.29 2.75zm-19.29 0h8.88l3.37 12.73H33.57zm.02 18.49v-2.42h12.5v2.49c0 3.56-2.83 6.45-6.3 6.45-3.22 0-5.88-2.49-6.25-5.68.03-.28.04-.56.04-.84Zm-2.76.28c-.15 3.43-2.98 6.17-6.44 6.17s-6.46-2.9-6.46-6.45v-2.49h12.89v2.56c0 .07 0 .14.01.21m-.01-18.77v12.73H18.16l3.37-12.73zm-19.69 0h7.55l-3.37 12.73H3.23zM2.69 21.23v-2.49h12.49v2.51c0 .23.02.46.03.69-.34 3.23-3.01 5.75-6.24 5.75-3.46 0-6.28-2.9-6.28-6.45Zm55.87 29.4h-5.01v2.75h5.01v7.78H45.92v-18.5h12.64zm0-10.71H43.17v21.33H5.41V29.67c1.09.49 2.29.76 3.56.76 3.21 0 6.01-1.74 7.6-4.34 1.62 2.61 4.51 4.36 7.82 4.36s6.15-1.72 7.78-4.3c1.58 2.62 4.4 4.37 7.63 4.37s6.08-1.77 7.66-4.41c1.58 2.6 4.38 4.34 7.58 4.34 1.25 0 2.44-.27 3.52-.75zm2.75-18.68c0 3.56-2.81 6.45-6.27 6.45s-6.18-2.81-6.26-6.3v-2.65h12.53v2.49Z"/>
</svg>
