<svg viewBox="0 0 16 16" xmlns="http://www.w3.org/2000/svg">
  <path d="M15.99 4.75V3.36L13.61 0H2.39L0 3.28v1.47c.03.48.23.91.51 1.27V16h2.8v-1.61H1.54v-1.5h1.3V9.23h4.67v3.66h1.42v-1.86c0-.71.42-1.32 1.03-1.61V7.91h1.95v1.51c.61.29 1.03.9 1.03 1.61v1.86h1.8v1.5h-2.02V16h2.77V6.02c.29-.35.47-.79.5-1.27m-14.47.03h1.56a.804.804 0 0 1-1.56 0m9.16 0a.804.804 0 0 1-1.56 0zm-4.59.61c-.38 0-.69-.26-.78-.61h1.56c-.09.35-.4.61-.78.61M8.8 3.25V1.5h1.56l.49 1.75zm-1.5 0H5.14l.49-1.75h1.66v1.75Zm6.4 2.14c-.38 0-.69-.26-.78-.61h1.56c-.09.35-.4.61-.78.61m.38-2.14h-1.67l-.49-1.75h.91zM3.16 1.5h.91l-.49 1.75H1.92L3.17 1.5Zm2.16 9.57v1.5H6v.33H4.34v-2.16H6v.33zm-.51 3.32h6.41V16H4.81zm6.62-3.36v1.86h-1v-1.86c0-.16.13-.28.28-.28h.43c.16 0 .28.13.28.28Z"/>
</svg>
