<svg viewBox="0 0 24 24" xmlns="http://www.w3.org/2000/svg">
  <path d="M24 5.47 20.29 0H3.71L0 5.47v1.64c0 .96.39 1.82 1.02 2.44v14.44h1.75v-2.66h2.45v2.66h1.75v-2.66h10.1v2.66h1.75v-2.66h2.4v2.66h1.75V9.56c.63-.63 1.02-1.49 1.02-2.45V5.47ZM16.54 6.9v.22c0 .94-.76 1.7-1.7 1.7s-1.7-.76-1.7-1.7V6.9h3.41Zm-5.69 0v.22c0 .94-.76 1.7-1.7 1.7s-1.7-.76-1.7-1.7V6.9h3.41Zm2.1-1.78V1.75h2.71l.95 3.37zm-1.75 0H7.39l.95-3.37h2.86zm10.45 0h-3.22l-.95-3.37h1.89l2.29 3.37ZM4.64 1.75h1.88l-.95 3.37H2.36l2.29-3.37ZM1.75 7.12V6.9h3.41v.22c0 .94-.76 1.7-1.7 1.7s-1.7-.76-1.7-1.7Zm4.51 12.47v-3.74h2.99v.99H7.98v1.75h1.27v.99H6.26Zm9.13-3.56c0-.09.07-.16.16-.16h1.68c.09 0 .16.07.16.16v3.56h-2zm5.83 3.56h-2.08v-3.56c0-.93-.66-1.7-1.54-1.87v-2.04h-2.42v2.04c-.88.17-1.54.95-1.54 1.87v3.56H11V14.1H4.51v5.49H2.76V10.5A3.46 3.46 0 0 0 6.3 9.07c.62.9 1.66 1.5 2.85 1.5 1.18 0 2.23-.6 2.85-1.5a3.45 3.45 0 0 0 5.7-.01c.62.91 1.67 1.51 2.85 1.51.23 0 .46-.02.68-.07v9.09Zm1.03-12.47c0 .94-.76 1.7-1.7 1.7s-1.7-.76-1.7-1.7V6.9h3.41v.22Z"/>
</svg>
