<svg viewBox="0 0 64 64" xmlns="http://www.w3.org/2000/svg">
  <path d="M54.38 0H9.6L0 15.48l.02 5.74c0 2.52 1.01 4.79 2.65 6.45v36.32h40.5v-24h14.19v24h3.94v-36.2a9.32 9.32 0 0 0 2.67-6.55L64 15.5zM33.57 2.75h8.88l3.37 12.73H33.57zm-2.74 19.49c-.47 3.08-3.07 5.45-6.2 5.45s-5.9-2.53-6.24-5.76c.02-.24.04-.47.04-.71v-2.48h12.36v2.56c0 .31.02.63.05.93Zm-.01-19.49v12.73H18.16l3.37-12.73zm-19.69 0h7.55l-3.37 12.73H3.24zM2.77 21.23v-2.49h12.91v2.49c0 3.56-2.9 6.45-6.45 6.45s-6.45-2.9-6.45-6.45Zm34.51 30.63H7.97V33.2h29.32v18.66Zm2.5-24.09c-3.18 0-5.81-2.42-6.24-5.56.03-.32.05-.64.05-.96v-2.42h12.47v2.42c0 .11.01.22.02.33-.14 3.44-2.9 6.19-6.29 6.19Zm5.51-25.02h7.57l7.89 12.73H48.66zm16 18.49c0 3.56-2.82 6.45-6.28 6.45s-6.03-2.66-6.26-6c0-.13.02-.25.02-.38v-2.56h12.52zM34.53 49.11H24V35.94h10.53zm-13.28 0H10.72V35.94h10.53zm24.67-6.36h8.69v7.88h-3.32v2.75h3.32v7.86h-8.69v-18.5Z"/>
</svg>
