<svg viewBox="0 0 32 32" xmlns="http://www.w3.org/2000/svg">
  <path fill="#1e1e1c" d="M27.74 10.17c-.14-.98-.94-1.73-1.91-1.73-3.03 0-3.76-.74-4.61-1.59-.94-.94-2-2.01-5.28-2.01s-4.33 1.07-5.24 2.02c-.82.85-1.53 1.58-4.56 1.58-.5 0-.98.2-1.34.56-.31.31-.51.73-.57 1.17-3.18.12-4.24.83-4.24 2.69v6.53c0 1.88 1.09 2.59 4.35 2.69.24.83.98 1.45 1.85 1.45 1.84 0 2.64.63 3.65 1.42 1.23.97 2.76 2.17 6.24 2.17s4.98-1.21 6.19-2.18c.98-.79 1.76-1.42 3.6-1.42.5 0 .98-.2 1.34-.56.24-.25.41-.55.51-.89 3.2-.11 4.27-.81 4.27-2.69v-6.53c0-1.87-1.06-2.58-4.24-2.69ZM2 19.74c-.02-.05-.02-.23-.02-.35v-6.84c.04-.03.38-.3 2.24-.37 0 2.24.02 5.76.03 7.9-1.87-.07-2.22-.33-2.24-.33Zm4.13-7.34c3.23 0 4.05-.4 4.84-.78.92-.44 1.86-.9 4.96-.9s4.06.46 4.99.89c.86.4 1.67.78 4.89.78v2c-3.67 0-4.72-.49-5.74-.97-.81-.38-1.5-.71-4.14-.71s-3.31.32-4.09.7c-1 .48-2.03.98-5.71.98v-2Zm19.69 6.84c-1.93 0-2.73.45-3.74 1.01-1.25.7-2.66 1.49-6.05 1.49s-4.83-.79-6.1-1.48c-1.04-.57-1.86-1.01-3.79-1.01v-2c2.44 0 3.62.64 4.75 1.26 1.16.64 2.26 1.24 5.14 1.24s3.94-.6 5.07-1.23c1.11-.62 2.26-1.26 4.72-1.26v2Zm1.98.83c0-1.11 0-2.6-.01-4.09 0-1.37 0-2.73-.01-3.81 1.83.07 2.18.33 2.19.33.02.05.02.24.02.36v6.85c-.04.03-.38.29-2.19.37Z"/>
</svg>
