<svg viewBox="0 0 64 64" xmlns="http://www.w3.org/2000/svg">
  <path d="M43.52 53.51c-.14 0-.27.03-.42.03h-.13c-1.79-.16-6.63-.16-8.65 1.68-.6.55-.89 1.21-.89 2.07l.09 2.2v.08c-.02.21-.21 2.08-1.96 3.34-.97.7-2.2 1.06-3.66 1.06-.87 0-1.81-.12-2.84-.37-1.63-.09-15.34-1.09-20.07-8.94-.58-.7-2.16-3.23.33-7.81.11-.2 2.21-3.97.16-10.54-2.22-3.31-3.5-7.07-3.75-10.98.35.09.71.16 1.1.16h26.41V33c0 9.4 5.95 17.43 14.28 20.52Zm-2.2-49.42h-6.58V33c0 8.21 6.08 15.01 13.97 16.17.52-1.35.75-2.76.79-3.84l-.03-5.73h2.21c1.03 0 1.86-.45 2.32-1.28 1.72-3.06-3.09-11.76-5.46-15.71-.07-10.38-3-15.74-7.23-18.51ZM29.24 1.16c-1.36-.04-2.73-.04-4.08-.04-8.36 0-15.71 4.26-19.87 10.67h23.95zM64 20.45v33.04H51.08C39.8 53.49 30.62 44.3 30.62 33V22.73H1.5c-.83 0-1.5-.68-1.5-1.51v-5.18c0-.83.67-1.5 1.5-1.5h29.12V-.04h12.92C54.82-.04 64 9.15 64 20.45m-2.75 0c0-9.78-7.95-17.74-17.71-17.74H33.37v30.28c0 9.78 7.95 17.74 17.71 17.74h10.17z"/>
</svg>
