<svg viewBox="0 0 40 40" xmlns="http://www.w3.org/2000/svg">
  <path fill="#1e1e1c" d="M26.42.03h-7.6v.76c-1.03-.04-2.07-.05-3.1-.05-4.97 0-9.36 2.4-12.04 6.05H2.65C1.2 6.79.02 7.97.02 9.42v4.8c0 .82.38 1.54.97 2.02.2 2.34.99 4.6 2.32 6.59 1.2 3.9-.02 6.12-.09 6.24-1.62 2.97-.61 4.61-.18 5.12 2.99 4.89 11.45 5.54 12.59 5.61.65.15 1.25.23 1.8.23.96 0 1.78-.23 2.42-.7a3.24 3.24 0 0 0 1.32-2.26V37l-.05-1.36c0-.45.14-.78.46-1.07 1.17-1.06 4.13-1.06 5.16-.96h.09c.77 0 1.41-.21 1.95-.54 1.16.32 2.38.51 3.64.51h7.6V13.59c0-7.48-6.1-13.56-13.6-13.56m1.95 15.05c1.9 3.13 3.42 6.51 3.47 7.68h-3.07l.03 5.47s-.07 1.35-.61 2.28c-4.16-1.68-7.11-5.74-7.11-10.49V3.24c4.24.63 7.13 2.93 7.13 11.26v.31zM15.72 2.99c1.07 0 2.11 0 3.1.04v3.76H6.62a12.72 12.72 0 0 1 9.1-3.8M2.27 9.42c0-.21.17-.37.38-.37h16.18v5.55H2.64c-.21 0-.38-.17-.38-.37v-4.8Zm17.79 23.49c-.78.71-1.19 1.66-1.19 2.78l.05 1.23c-.03.12-.12.41-.41.61-.47.32-1.34.34-2.45.07l-.22-.03c-.08 0-8.46-.43-10.92-4.61l-.16-.21c-.2-.25-.37-1.11.42-2.55.08-.13 1.85-3.18.23-8.2l-.14-.29a11.8 11.8 0 0 1-1.91-4.86h15.47v3.17c0 4.73 2.44 8.89 6.12 11.32-1.53.07-3.6.4-4.89 1.58Zm17.7-1.59h-5.35c-.7 0-1.38-.07-2.04-.19.45-.98.65-2.06.68-2.86l-.02-3.26h1.09c.73 0 1.34-.34 1.68-.93 1.09-1.93-1.55-6.92-3.34-9.9-.06-6.93-2.16-10.28-5.11-11.9h1.07c6.25 0 11.34 5.08 11.34 11.32v17.73Z"/>
</svg>
