<svg viewBox="0 0 48 48" xmlns="http://www.w3.org/2000/svg">
  <path fill="#1e1e1c" d="M21.46 9.04H3.84C6.97 4.17 12.53.91 18.87.91c.85 0 1.72 0 2.58.02v8.12Zm10.49-5.25h-5.49V25c0 5.94 4.53 10.85 10.32 11.45.29-.89.42-1.77.44-2.48l-.02-4.03h1.42c.84 0 1.54-.39 1.92-1.07 1.29-2.29-1.89-8.28-4.03-11.85-.06-7.04-1.86-11-4.56-13.23M21.46 25v-5.75H1.51c-.1 0-.2-.02-.3-.03.2 2.9 1.16 5.69 2.81 8.15 1.48 4.76-.03 7.48-.12 7.63-1.93 3.54-.72 5.48-.22 6.06 3.58 5.87 13.76 6.64 15.08 6.72.78.18 1.49.28 2.15.28 1.14 0 2.09-.28 2.85-.83 1.38-1 1.53-2.48 1.55-2.65v-.07l-.06-1.64c0-.57.19-1 .58-1.37 1.32-1.2 4.37-1.29 5.89-1.21-6.02-2.47-10.28-8.38-10.28-15.28Zm26.55-9.69v24.95H37.98c-8.42 0-15.27-6.85-15.27-15.26v-8.25H1.51c-.83 0-1.5-.67-1.5-1.5v-2.21c0-.83.67-1.5 1.5-1.5h21.2V.04h10.03c8.42 0 15.27 6.85 15.27 15.26Zm-2.5 0c0-7.04-5.73-12.77-12.77-12.77h-7.53V25c0 7.04 5.73 12.77 12.77 12.77h7.53z"/>
</svg>
