<svg viewBox="0 0 40 40" xmlns="http://www.w3.org/2000/svg">
  <path fill="#1e1e1c" d="M17.71 6.89H3.52C6.18 3.1 10.66.61 15.74.61c.65 0 1.31 0 1.97.01zm9.26-3.6c-.18 0-.35-.03-.54-.03h-4.22v16.6c0 5.06 3.71 9.26 8.55 10.05.18-.64.27-1.27.29-1.79l-.02-3.26h1.09c.73 0 1.34-.34 1.67-.93 1.09-1.93-1.55-6.92-3.34-9.9-.05-5.59-1.42-8.84-3.5-10.75Zm-9.26 16.58v-3.4H2.68c-.6 0-1.16-.15-1.66-.41.19 2.36.99 4.62 2.32 6.63 1.2 3.9-.02 6.12-.09 6.25-1.62 2.96-.61 4.61-.18 5.12 2.99 4.89 11.44 5.54 12.58 5.61.65.15 1.25.23 1.8.23.96 0 1.77-.23 2.42-.7a3.24 3.24 0 0 0 1.32-2.26v-.07l-.05-1.36c0-.45.14-.78.46-1.07 1.16-1.06 4.12-1.06 5.15-.96h.13c-5.36-2.19-9.16-7.46-9.16-13.6Zm22.3-6.41v19.98h-7.6c-7.49 0-13.58-6.09-13.58-13.57v-5.65H1.51c-.83 0-1.51-.68-1.51-1.5v-2.08c0-.83.67-1.5 1.5-1.5h17.33V-.11h7.6c7.49 0 13.58 6.09 13.58 13.57m-2.25 0c0-6.24-5.08-11.32-11.33-11.32h-5.35v17.73c0 6.24 5.08 11.32 11.33 11.32h5.35z"/>
</svg>
