<svg viewBox="0 0 40 40" xmlns="http://www.w3.org/2000/svg">
  <path fill="#1e1e1c" d="M34.68 12.68c-.12-1.22-1.1-2.17-2.29-2.17-3.87 0-4.8-.94-5.89-2.04-1.16-1.17-2.48-2.49-6.55-2.49s-5.37 1.33-6.5 2.5c-1.05 1.09-1.96 2.03-5.83 2.03-.59 0-1.16.24-1.59.67-.4.4-.64.94-.7 1.51-4.04.11-5.33.94-5.33 3.24v8.21c0 2.32 1.3 3.15 5.45 3.26.26 1.04 1.16 1.82 2.23 1.82 2.36 0 3.38.8 4.67 1.82 1.61 1.27 3.44 2.71 7.77 2.71s6.13-1.44 7.7-2.71c1.26-1.01 2.25-1.81 4.61-1.81.6 0 1.16-.24 1.59-.67.31-.32.53-.72.63-1.15 4.06-.11 5.34-.94 5.34-3.25v-8.21c0-2.31-1.28-3.14-5.33-3.25ZM2.29 24.64c-.03-.07-.03-.32-.03-.49v-8.21c0-.17 0-.42.03-.48.04-.05.44-.43 3.04-.52 0 2.87.02 7.5.04 10.21-2.63-.09-3.04-.47-3.07-.51Zm4.96-9.09c4.18 0 5.25-.51 6.28-1 1.16-.55 2.36-1.11 6.28-1.11s5.14.56 6.33 1.11c1.07.49 2.17 1 6.35 1v2.25c-4.67 0-6-.61-7.29-1.21-1.01-.46-1.96-.9-5.39-.9s-4.34.44-5.32.9c-1.26.6-2.56 1.21-7.25 1.21v-2.25Zm25.26 8.21c-2.53 0-3.62.6-4.88 1.29-1.58.87-3.37 1.85-7.67 1.85s-6.13-.98-7.74-1.84c-1.3-.7-2.42-1.3-4.94-1.3v-2.25c3.09 0 4.57.8 6.01 1.56 1.51.81 2.94 1.58 6.67 1.58s5.12-.76 6.59-1.57c1.41-.77 2.86-1.57 5.96-1.57zm5.24.38c0 .17 0 .43-.03.49-.04.05-.43.42-2.99.51 0-1.54-.01-3.7-.02-5.81 0-1.6 0-3.16-.01-4.4 2.58.09 2.98.46 3.01.5.03.07.03.33.03.5v8.21Z"/>
</svg>
