<svg viewBox="0 0 16 16" xmlns="http://www.w3.org/2000/svg">
  <path fill="#1e1e1c" d="M13.88 4.95c-.16-.49-.6-.85-1.13-.85-1.35 0-1.65-.3-2.04-.69-.57-.57-1.17-1.05-2.74-1.05s-2.17.48-2.73 1.06c-.37.38-.66.68-2.01.68-.53 0-.96.36-1.13.85C.74 5.02 0 5.36 0 6.5v3.16c0 1.16.77 1.5 2.19 1.56.2.41.6.71 1.07.71.8 0 1.12.25 1.6.63.63.49 1.41 1.11 3.18 1.11s2.54-.62 3.16-1.11c.47-.38.78-.63 1.57-.63.31 0 .61-.13.84-.35.1-.1.17-.23.23-.35 1.19-.05 2.15-.32 2.15-1.56V6.51c0-1.23-.94-1.5-2.12-1.56ZM1.5 9.63v-3.1c.09-.02.27-.05.54-.07 0 .98 0 2.3.01 3.25-.28-.02-.46-.05-.55-.07Zm1.73-3.74c1.5 0 1.85-.17 2.22-.35.56-.27 1.07-.46 2.51-.46s1.96.19 2.53.46c.39.18.75.35 2.25.35v1.5c-1.7 0-2.29-.22-2.89-.5-.36-.17-.67-.32-1.89-.32s-1.51.14-1.86.31c-.59.28-1.17.5-2.88.5v-1.5Zm9.52 4.09c-.86 0-1.21.19-1.68.45-.6.33-1.34.75-3.05.75s-2.46-.42-3.07-.75c-.49-.27-.84-.46-1.7-.46v-1.5c1.25 0 1.87.34 2.42.64.53.29 1.03.56 2.35.56s1.81-.27 2.32-.56c.54-.3 1.15-.65 2.41-.65v1.5Zm1.74-.35c-.09.02-.26.05-.52.07V6.45c.26.02.43.05.52.07v3.1Z"/>
</svg>
