<svg viewBox="0 0 32 32" xmlns="http://www.w3.org/2000/svg">
  <path fill="#1e1e1c" d="M13.93 5.46H2.92C5.07 2.54 8.6.62 12.58.62h1.35zm7.86-2.42h-3.85v13.87c0 3.77 2.99 6.84 6.73 6.99.12-.47.18-.93.19-1.31v-2.48h.75c.62 0 1.14-.29 1.42-.79.85-1.5-.93-5.1-2.64-7.95-.04-4.21-1.07-6.77-2.6-8.32Zm-7.86 13.87v-3.25H.84c.23 1.65.84 3.24 1.79 4.66.93 3.04-.02 4.77-.07 4.87-1.31 2.39-.5 3.75-.14 4.18 2.4 3.91 9.12 4.45 10.07 4.5q.78.18 1.44.18c.79 0 1.45-.19 1.99-.58.98-.7 1.08-1.76 1.09-1.88v-.06l-.04-1.08c0-.33.1-.56.33-.77.61-.56 1.96-.76 3.08-.77-3.8-1.74-6.45-5.56-6.45-10m18.05-6.86v16.86h-7.03c-5.52 0-10.02-4.49-10.02-10.01v-5.27H.43c-.25 0-.45-.2-.45-.45V7.91c0-.25.2-.45.45-.45h14.5V.05h7.03c5.52 0 10.02 4.49 10.02 10.01Zm-2 0c0-4.42-3.6-8.01-8.02-8.01h-5.03v14.87c0 4.42 3.6 8.01 8.02 8.01h5.03z"/>
</svg>
