<svg viewBox="0 0 32 32" xmlns="http://www.w3.org/2000/svg">
  <path fill="#1e1e1c" d="M27.74 10.2c-.14-.98-.94-1.73-1.91-1.73-3.03 0-3.76-.74-4.61-1.59-.94-.94-2-2.01-5.28-2.01s-4.33 1.07-5.24 2.02c-.82.85-1.53 1.58-4.56 1.58-.5 0-.98.2-1.34.56-.31.31-.51.73-.57 1.17-3.18.11-4.24.82-4.24 2.69v6.53c0 1.88 1.09 2.59 4.35 2.69.24.83.98 1.45 1.85 1.45 1.84 0 2.64.63 3.65 1.42 1.23.97 2.76 2.17 6.24 2.17s4.98-1.21 6.19-2.18c.98-.79 1.76-1.42 3.6-1.42.5 0 .98-.2 1.34-.57.24-.25.41-.55.51-.88 3.2-.11 4.27-.81 4.27-2.69v-6.53c0-1.87-1.06-2.58-4.24-2.69ZM6.21 14.68c3.61 0 4.64-.5 5.63-.98.78-.38 1.45-.7 4.09-.7s3.34.33 4.14.71c1.02.48 2.07.97 5.71.97v2.34c-2.43 0-3.57.64-4.68 1.26-1.13.63-2.2 1.23-5.07 1.23s-3.98-.6-5.14-1.24c-1.12-.61-2.28-1.24-4.67-1.26 0-.78-.01-1.57-.02-2.34Zm5.93-6.4c.76-.79 1.36-1.41 3.8-1.41s3.07.63 3.86 1.42c1.01 1.02 2.16 2.18 5.96 2.21v2.18c-3.19 0-4-.38-4.85-.78-.94-.44-1.91-.89-4.99-.89s-4.04.46-4.96.9c-.79.38-1.61.77-4.78.78-.01-.96-.02-1.75-.04-2.21 3.59 0 4.79-.95 5.99-2.19ZM1.99 19.41v-6.84c.04-.03.38-.3 2.24-.37 0 2.24.02 5.76.03 7.9-1.87-.07-2.22-.33-2.24-.33-.02-.05-.02-.23-.02-.35Zm19.02 4c-1.11.89-2.16 1.74-4.93 1.74s-3.86-.85-5-1.74c-1.1-.87-2.35-1.85-4.83-1.88 0-.49 0-1.41-.01-2.51 1.86.01 2.68.45 3.7 1.01 1.27.69 2.71 1.48 6.1 1.48s4.8-.79 6.05-1.49c1-.56 1.8-1.01 3.72-1.01v2.51l.07.03c-2.55 0-3.77.99-4.85 1.86Zm6.79-3.31-.02-7.9c1.83.07 2.17.33 2.19.33.02.05.02.24.02.36v6.85c-.04.03-.38.29-2.19.37Z"/>
</svg>
