<svg viewBox="0 0 64 64" xmlns="http://www.w3.org/2000/svg">
  <path fill="#1e1e1c" d="M43.51-.03H30.6v1.26c-1.81-.1-3.65-.1-5.45-.1-7.98 0-15.03 3.89-19.27 9.81H2.84a2.88 2.88 0 0 0-2.88 2.88v9.65c0 1.23.77 2.27 1.86 2.68.37 3.61 1.61 7.08 3.67 10.16 2.05 6.58-.05 10.35-.16 10.54-2.49 4.58-.91 7.11-.33 7.81 4.73 7.85 18.43 8.84 20.06 8.93 1.03.25 1.98.37 2.84.37 1.46 0 2.69-.35 3.66-1.06 1.75-1.26 1.94-3.13 1.95-3.34v-.08l-.08-2.2c0-.86.28-1.51.89-2.07 2.01-1.84 6.85-1.84 8.64-1.68h.13c1.09 0 2.01-.29 2.78-.75 1.66.44 3.39.69 5.18.69h12.91V20.46c0-11.3-9.17-20.49-20.45-20.49m2.46 23.73c3.44 5.69 6.01 11.68 5.65 13.14h-4.94l.04 8.44s-.15 2.87-1.49 4.45c-6.91-2.42-11.89-9-11.89-16.73V4.22c7.2.96 12.42 4.64 12.42 18.76v.39l.2.33ZM25.15 3.88c1.87 0 3.7 0 5.45.09v6.96H9.41c3.8-4.31 9.44-7.06 15.74-7.06ZM2.71 13.82c0-.07.06-.13.12-.13h27.52v9.9H2.83c-.07 0-.12-.06-.12-.13v-9.65Zm29.75 39.37c-1.17 1.06-1.79 2.48-1.78 4.16l.08 2.05c-.04.2-.2.86-.85 1.3-.88.61-2.37.68-4.33.19l-.27-.04c-.14 0-13.92-.71-18.02-7.7l-.06-.13-.15-.14c-.05-.05-1.17-1.36.63-4.67.12-.2 2.89-4.98.33-12.94l-.06-.19-.11-.17c-1.78-2.6-2.88-5.53-3.27-8.58h26v6.66c0 7.56 4.12 14.17 10.23 17.72-2.43.04-6.16.45-8.37 2.47Zm28.75-2.45H51.04c-1.02 0-2.01-.11-2.98-.27.96-1.68 1.35-3.7 1.4-5.14l-.03-5.73h2.21c1.03 0 1.86-.45 2.32-1.28 1.72-3.06-3.08-11.76-5.45-15.71-.08-12.47-4.28-17.69-9.91-19.88h4.9c9.76 0 17.7 7.96 17.7 17.74v30.28Z"/>
</svg>
