<svg viewBox="0 0 32 32" xmlns="http://www.w3.org/2000/svg">
  <path fill="#1e1e1c" d="M21.95 0h-7.03v.6c-.8-.03-1.59-.03-2.35-.03-3.97 0-7.46 1.9-9.62 4.81h-.47a2.486 2.486 0 0 0-2.5 2.49v3.2c0 .7.29 1.33.76 1.78.14 1.92.78 3.78 1.87 5.41.93 3.04-.02 4.77-.07 4.87-1.31 2.39-.5 3.75-.14 4.18 2.4 3.91 9.13 4.45 10.08 4.5.52.12 1 .18 1.45.18.79 0 1.45-.19 1.99-.58.98-.7 1.09-1.76 1.09-1.88v-.06l-.04-1.08c0-.33.1-.56.33-.77.8-.73 2.85-.84 4.02-.74h.08c.5 0 .94-.11 1.32-.29.72.17 1.47.26 2.24.26h7.03V10c-.01-5.52-4.51-10-10.04-10m.58 12.11c1.44 2.37 2.61 4.95 2.73 5.94h-2.43l.02 4.45s-.07 1.21-.56 1.9c-3.12-1.1-5.36-4.06-5.36-7.55V2.78c3.25.53 5.46 2.37 5.46 8.81v.28l.15.24Zm-9.96-9.55c.82 0 1.6 0 2.35.03v2.77H5.6a9.97 9.97 0 0 1 6.97-2.81ZM1.98 7.87c0-.28.22-.5.5-.5h12.44v4.2H2.48c-.28 0-.5-.22-.5-.5zm13.96 18.28c-.64.59-.98 1.36-.98 2.29l.04.96a.68.68 0 0 1-.28.4c-.35.24-1.01.25-1.86.04l-.2-.03c-.07 0-6.67-.34-8.59-3.61l-.14-.18s-.41-.55.34-1.91c.06-.1 1.49-2.57.2-6.6l-.13-.26a9.2 9.2 0 0 1-1.47-3.69h12.05v3.29c0 3.32 1.64 6.26 4.14 8.08-1.08.13-2.3.46-3.12 1.21Zm14.03-1.28h-5.03c-.21 0-.42-.02-.63-.03.36-.79.52-1.65.54-2.29v-2.48h.75c.62 0 1.14-.29 1.42-.79.85-1.5-.93-5.1-2.64-7.95-.05-5.27-1.64-7.95-3.86-9.32h1.43c4.42 0 8.02 3.59 8.02 8.01v14.87Zm-4.37-5.81v-1z"/>
</svg>
