<svg viewBox="0 0 48 48" xmlns="http://www.w3.org/2000/svg">
  <path d="m41.68 32.1-9.59 9.58-2.57-2.57a6.72 6.72 0 0 1-1.96-4.14c-.06-.65-.03-1.3.09-1.94a6.7 6.7 0 0 1 1.86-3.5c.66-.66 1.43-1.16 2.24-1.49.41-.17.83-.29 1.26-.37a7 7 0 0 1 1.94-.09c.22.02.43.05.64.09a6.7 6.7 0 0 1 3.5 1.86l2.57 2.57Zm6.04 7.2a6.66 6.66 0 0 0-1.71-2.86l-2.57-2.57-9.59 9.58 2.57 2.57c.83.83 1.81 1.4 2.86 1.71.21.06.42.11.64.16q.645.12 1.29.12c.65 0 1.3-.09 1.93-.28 1.05-.31 2.04-.88 2.86-1.71a6.72 6.72 0 0 0 1.99-4.79c0-.43-.04-.87-.12-1.29a5 5 0 0 0-.16-.64ZM44.4 1.73A8.7 8.7 0 0 0 40.85.17c-.56-.11-1.12-.16-1.69-.16a8.8 8.8 0 0 0-6.25 2.59c-3.13 3.13-3.41 8.02-.86 11.47zm-6.08 15.9c.28.03.56.04.85.04.57 0 1.13-.05 1.69-.16 1.11-.22 2.19-.65 3.17-1.29.49-.32.95-.7 1.39-1.13a8.87 8.87 0 0 0 2.43-4.56c.11-.56.16-1.12.16-1.69a8.7 8.7 0 0 0-.65-3.33c-.29-.71-.69-1.39-1.17-2.03L33.82 15.84a8.9 8.9 0 0 0 4.5 1.78ZM1.97 9.52 0 15.92v1.75h25.49v-1.75l-1.96-6.4zm23.1-8.41A2.49 2.49 0 0 0 23 0H2.5C1.64 0 .88.44.43 1.11c-.18.27-.31.57-.38.89-.03.16-.05.33-.05.5v4.52h25.49V2.51a2.45 2.45 0 0 0-.43-1.39ZM0 45.51a2.5 2.5 0 0 0 2.5 2.5h20.49a2.5 2.5 0 0 0 2.5-2.5v-5.85H0zm0-25.34h25.49v16.99H0zm8.18 9.58h3.32v3.32H14v-3.32h3.32v-2.5H14v-3.32h-2.5v3.32H8.18z"/>
</svg>
