<svg viewBox="0 0 64 64" xmlns="http://www.w3.org/2000/svg">
  <path fill="#1e1e1c" d="M32.06 27.01c7.44 0 13.5-6.06 13.5-13.5S39.51 0 32.06 0s-13.5 6.06-13.5 13.5S24.61 27 32.06 27Zm0-24.26c5.93 0 10.75 4.82 10.75 10.75s-4.82 10.75-10.75 10.75-10.75-4.82-10.75-10.75S26.13 2.75 32.06 2.75M47.81 33.7H16.14C7.22 33.7-.03 40.96-.03 49.88V64h2.75V49.88c0-7.18 5.67-13.04 12.76-13.39v11.49c-3.06.64-5.37 3.36-5.37 6.61 0 3.72 3.02 6.75 6.74 6.75s6.74-3.03 6.74-6.75c0-3.25-2.31-5.97-5.37-6.61V36.46h4.94L31 51.66v12.35h2.75V51.67l8.11-15.21h5.95c7.4 0 13.42 6.02 13.42 13.43v14.12h2.75V49.89c0-8.92-7.25-16.18-16.16-16.18ZM20.85 54.58c0 2.2-1.79 4-4 4s-3.99-1.79-3.99-4 1.79-4 3.99-4 4 1.79 4 4m11.55-6.22-6.14-11.9h12.49zm17.72.88h4.5v5h-4.5v4.66h-5v-4.66h-4.81v-5h4.81v-4.66h5z"/>
</svg>
