<svg viewBox="0 0 32 32" xmlns="http://www.w3.org/2000/svg">
  <path d="M15 0H2C.9 0 0 .9 0 2v4.66h1.36L0 10.61V30c0 1.1.9 2 2 2h13c1.1 0 2-.9 2-2V10.61l-1.36-3.94H17V2c0-1.1-.9-2-2-2M2 2h13v2.66H2.01V2Zm13 10.61V25.6H2V12.61zM15 30H2v-2.4h13zM13.74 7.32l1.14 3.29H2.12l1.14-3.29.23-.65h10.03l.23.65ZM7.5 20H5.45v-2H7.5v-2.05h2V18h2.05v2H9.5v2.05h-2zm18.61-8.23c1.51 0 3.01-.57 4.16-1.72a5.89 5.89 0 0 0 0-8.33C29.12.57 27.61 0 26.11 0s-3.01.57-4.16 1.72a5.89 5.89 0 0 0 0 8.33 5.87 5.87 0 0 0 4.16 1.72m2.75-3.13c-.73.73-1.71 1.14-2.75 1.14-.71 0-1.39-.2-1.98-.56l5.31-5.31c.89 1.49.7 3.45-.58 4.73m-5.5-5.5C24.09 2.41 25.07 2 26.11 2c.68 0 1.32.19 1.89.51l-5.27 5.27c-.83-1.48-.63-3.38.63-4.64m2.71 16.54c-.88-.88-2.04-1.32-3.2-1.32s-2.31.44-3.2 1.32a4.527 4.527 0 0 0 0 6.39l4.61 4.61c.88.88 2.04 1.32 3.2 1.32s2.31-.44 3.2-1.32a4.527 4.527 0 0 0 0-6.39zm-4.98 1.41c.48-.48 1.11-.74 1.78-.74s1.31.26 1.78.74l1.6 1.6-3.56 3.56-1.6-1.6c-.98-.98-.98-2.58 0-3.56m8.17 8.17c-.48.48-1.11.74-1.78.74s-1.3-.26-1.78-.74l-1.6-1.6 3.56-3.56 1.6 1.6c.98.98.98 2.58 0 3.56"/>
</svg>
