<svg viewBox="0 0 64 64" xmlns="http://www.w3.org/2000/svg">
  <path d="M31.25 0H2.75C1.23 0 0 1.23 0 2.75v8.58h2.73L0 21.22v40.03C0 62.77 1.23 64 2.75 64h28.49c1.52 0 2.75-1.23 2.75-2.75V21.22l-2.73-9.89h2.73V2.75A2.74 2.74 0 0 0 31.25 0M2.75 2.75h28.49v5.83H2.75zm28.5 21.22v28.48H2.75V23.97h28.49Zm0 37.28H2.75V55.2h28.49v6.05Zm-2.63-49.19 2.53 9.16H2.86l2.53-9.16.2-.73h22.83zm-13 27.31H10.9v-2.75h4.72V31.9h2.75v4.72h4.72v2.75h-4.72v4.72h-2.75zm36.61-15.82c3.01 0 6.03-1.15 8.33-3.45 4.6-4.6 4.6-12.05 0-16.65C58.25 1.15 55.24 0 52.23 0S46.2 1.15 43.9 3.45c-4.6 4.6-4.6 12.05 0 16.65 2.3 2.3 5.31 3.45 8.33 3.45m9.02-11.78c0 2.41-.94 4.68-2.64 6.38a8.97 8.97 0 0 1-6.38 2.64c-1.98 0-3.85-.64-5.41-1.81L59.44 6.36a8.94 8.94 0 0 1 1.81 5.41M45.84 5.39c1.7-1.7 3.97-2.64 6.38-2.64 1.91 0 3.73.6 5.25 1.69L44.89 17.02a8.98 8.98 0 0 1-1.69-5.25c0-2.41.94-4.68 2.64-6.38m6.3 33.97c-1.76-1.76-4.08-2.65-6.39-2.65s-4.63.88-6.39 2.65a9.035 9.035 0 0 0 0 12.78l9.22 9.22c1.76 1.76 4.08 2.65 6.39 2.65s4.63-.88 6.39-2.65a9.035 9.035 0 0 0 0-12.78zm-12.68 6.39c0-1.68.65-3.26 1.84-4.44 1.19-1.19 2.77-1.84 4.45-1.84s3.26.65 4.45 1.84l3.64 3.64-8.89 8.89-3.64-3.64a6.24 6.24 0 0 1-1.84-4.44Zm19.95 13.66c-1.19 1.19-2.77 1.84-4.45 1.84s-3.26-.65-4.45-1.84l-3.64-3.64 8.89-8.89 3.64 3.64c1.19 1.19 1.84 2.77 1.84 4.44s-.65 3.26-1.84 4.44Z"/>
</svg>
