<svg viewBox="0 0 64 64" xmlns="http://www.w3.org/2000/svg">
  <path d="M55.77 42.99 42.99 55.77l-3.64-3.64a9 9 0 0 1-2.48-4.66 9.1 9.1 0 0 1-.13-2.6q.09-.87.33-1.71c.08-.28.18-.56.29-.83.44-1.09 1.1-2.11 1.99-2.99.66-.66 1.4-1.2 2.19-1.61.52-.28 1.07-.5 1.63-.66.84-.25 1.71-.37 2.57-.37a9.03 9.03 0 0 1 6.39 2.64l3.64 3.64Zm5.59 5.58-3.64-3.64-12.78 12.78 3.64 3.64c.22.22.45.43.69.62s.48.37.73.54c.38.25.79.47 1.2.65.66.3 1.35.53 2.05.67a9.06 9.06 0 0 0 5.13-.49 9.035 9.035 0 0 0 2.99-14.76ZM40.67 14.02c.22 1.11.59 2.2 1.13 3.23.18.34.38.68.59 1 .17.25.35.49.54.73l16.51-16.5A11.7 11.7 0 0 0 52.23 0c-3.01 0-6.03 1.15-8.33 3.45a11.8 11.8 0 0 0-3.4 7.2c-.04.38-.05.75-.05 1.13s.02.75.05 1.13c.04.38.09.75.16 1.12Zm8.2 9.04a11.9 11.9 0 0 0 6.7 0c1.82-.54 3.54-1.53 4.97-2.96 4.29-4.29 4.58-11.07.85-15.7L44.84 20.94c1.22.98 2.58 1.69 4.01 2.12ZM2.57 11.92 0 21.22v2.62h33.99v-2.62l-2.57-9.29H2.57ZM0 61.25C0 62.77 1.23 64 2.75 64h28.49c1.52 0 2.75-1.23 2.75-2.75v-8.67H0zM31.25 0H2.75C1.23 0 0 1.23 0 2.75v6.42h33.99V2.75A2.74 2.74 0 0 0 31.25 0M0 26.59h33.99v23.24H0zm12.15 12.78h3.47v3.47h2.75v-3.47h3.47v-2.75h-3.47v-3.47h-2.75v3.47h-3.47z"/>
</svg>
