<svg viewBox="0 0 24 24" xmlns="http://www.w3.org/2000/svg">
  <path fill="#1e1e1c" d="M6.92 4.76C6.92 2.14 9.05 0 11.67 0s4.76 2.13 4.76 4.75S14.3 9.5 11.67 9.5 6.91 7.37 6.91 4.75Zm3.71 7.78H6.8c-3.75 0-6.81 3.05-6.81 6.81v4.66H9.3c-.33-.47-.52-1.04-.52-1.65v-7.12c0-1.23.78-2.28 1.87-2.7Zm13.36 2.7v7.12c0 .91-.74 1.64-1.65 1.64H11.66c-.91 0-1.65-.74-1.65-1.64v-7.12c0-.91.74-1.64 1.65-1.64h2.8v-1.59c0-.69.57-1.26 1.26-1.26h3.09c.7 0 1.26.56 1.26 1.26v1.59h2.27c.91 0 1.65.74 1.65 1.64m-7.77-1.65h2.1v-1.1h-2.1zm3.44 4.33h-1.72v-1.77h-1.75v1.77h-1.83v1.75h1.83v1.77h1.75v-1.77h1.72z"/>
</svg>
