<svg viewBox="0 0 48 48" xmlns="http://www.w3.org/2000/svg">
  <path fill="#1e1e1c" d="M18.74 17.07c4.71 0 8.53-3.83 8.53-8.55S23.45-.02 18.74-.02s-8.53 3.83-8.53 8.55 3.83 8.55 8.53 8.55Zm0-14.59c3.33 0 6.03 2.71 6.03 6.04s-2.71 6.04-6.03 6.04-6.03-2.71-6.03-6.04 2.71-6.04 6.03-6.04m5.22 20.97H9.73c-4 0-7.25 3.26-7.25 7.26v9.17h-2.5v-9.17c0-5.38 4.37-9.76 9.75-9.76h14.23zm-13.75 7.26h2.5v9.17h-2.5zm26.19 5.17h3.29v4H36.4v3.41h-4v-3.41h-3.53v-4h3.53v-3.41h4zm8.76-8.09H40V24c0-1.12-.91-2.04-2.03-2.04h-6.29c-1.12 0-2.03.91-2.03 2.04v3.79h-6.24a2.83 2.83 0 0 0-2.82 2.82v14.55c0 1.56 1.26 2.82 2.82 2.82h21.76a2.83 2.83 0 0 0 2.82-2.82V30.61c0-1.56-1.26-2.82-2.82-2.82Zm-13.02-3.33h5.36v3.32h-5.36zm13.34 20.7c0 .18-.14.32-.32.32H23.4c-.18 0-.32-.14-.32-.32V30.61c0-.18.14-.32.32-.32h21.76c.18 0 .32.14.32.32z"/>
</svg>
