<svg viewBox="0 0 48 48" xmlns="http://www.w3.org/2000/svg">
  <path fill="#1e1e1c" d="M23.9 20.51c5.64 0 10.22-4.6 10.22-10.25S29.53 0 23.9 0 13.68 4.6 13.68 10.25 18.26 20.5 23.9 20.5Zm0-18c4.26 0 7.73 3.48 7.73 7.75s-3.47 7.75-7.73 7.75-7.73-3.48-7.73-7.75 3.47-7.75 7.73-7.75m24.07 34.88c0-6.77-5.49-12.27-12.23-12.27H12.21c-6.75 0-12.23 5.5-12.23 12.27v10.62h2.5V37.39c0-4.76 3.41-8.73 7.91-9.59 2.53 4.72 7.06 7.68 12.33 8.09v12.12h2.5V35.89c5.25-.4 9.8-3.35 12.34-8.09 4.51.86 7.93 4.83 7.93 9.59v10.62h2.5V37.39Zm-24.09-3.95c-4.43-.03-8.33-2.18-10.7-5.82h21.58c-2.41 3.68-6.37 5.81-10.87 5.82Zm14.56 4.88h3.55v3.5h-3.55v3.68h-3.49v-3.68h-3.78v-3.5h3.78v-3.68h3.49zm-21.43.82 1.07 2.26c-2.02.96-4.05 1.45-6.07 1.45S7.98 42.37 6 41.4l1.09-2.25c3.3 1.61 6.54 1.6 9.92 0Z"/>
</svg>
