<svg viewBox="0 0 48 48" xmlns="http://www.w3.org/2000/svg">
  <path fill="#1e1e1c" d="M13.01 10.26C13.01 4.61 17.6 0 23.23 0s10.22 4.6 10.22 10.26-4.59 10.26-10.22 10.26-10.22-4.6-10.22-10.26m8.14 15.27h-8.29c-7.13 0-12.94 5.8-12.94 12.94v9.54h18.71a5.5 5.5 0 0 1-.79-2.85V30.62a5.58 5.58 0 0 1 3.3-5.09Zm26.77 5.09v14.54c0 1.56-1.26 2.82-2.81 2.82H23.4c-1.55 0-2.81-1.27-2.81-2.82V30.62c0-1.56 1.26-2.82 2.81-2.82h6.23v-3.79c0-1.12.91-2.04 2.03-2.04h6.28c1.12 0 2.03.91 2.03 2.04v3.79h5.15c1.55 0 2.81 1.27 2.81 2.82Zm-15.8-2.83h5.35v-3.32h-5.35zm7.53 8.1h-3.28v-3.41h-3.99v3.41h-3.52v4h3.52v3.41h3.99v-3.41h3.28z"/>
</svg>
