<svg viewBox="0 0 48 48" xmlns="http://www.w3.org/2000/svg">
  <path d="M23 0H2.5C1.12 0 0 1.12 0 2.51v6.75h2.05L0 15.92v29.59a2.5 2.5 0 0 0 2.5 2.5h20.49a2.5 2.5 0 0 0 2.5-2.5V15.92l-2.05-6.67h2.05V2.51A2.49 2.49 0 0 0 23 0M2.5 2.51h20.49v4.25H2.49V2.51ZM23 18.42v20.49H2.5V18.42h20.49Zm0 27.09H2.5v-4.1h20.49v4.1ZM21.06 9.99l1.82 5.93H2.62l1.82-5.93.23-.73h16.17l.23.73ZM11.5 29.75H8.18v-2.5h3.32v-3.32H14v3.32h3.32v2.5H14v3.32h-2.5zm27.67-12.08c2.26 0 4.52-.86 6.25-2.59a8.83 8.83 0 0 0 0-12.49C43.69.87 41.43 0 39.17 0s-4.52.86-6.25 2.59a8.83 8.83 0 0 0 0 12.49 8.8 8.8 0 0 0 6.25 2.59m6.33-8.83c0 1.69-.66 3.28-1.85 4.48a6.3 6.3 0 0 1-4.48 1.85 6.35 6.35 0 0 1-3.57-1.1l8.8-8.79c.71 1.04 1.1 2.27 1.1 3.57ZM34.69 4.36c1.2-1.2 2.79-1.85 4.48-1.85 1.24 0 2.43.36 3.44 1.02l-8.76 8.75a6.3 6.3 0 0 1-1.02-3.44c0-1.69.66-3.28 1.85-4.48Zm4.41 25.16c-1.32-1.32-3.06-1.98-4.79-1.98s-3.47.66-4.79 1.98c-2.65 2.65-2.65 6.94 0 9.58l6.91 6.91c1.32 1.32 3.06 1.98 4.79 1.98s3.47-.66 4.79-1.98c2.65-2.65 2.65-6.94 0-9.58zm-9.07 4.8c0-1.14.44-2.22 1.25-3.02.81-.81 1.88-1.25 3.03-1.25s2.22.44 3.03 1.25l2.57 2.57-6.05 6.05-2.57-2.57a4.24 4.24 0 0 1-1.25-3.02Zm14.22 9.93c-.81.81-1.88 1.25-3.03 1.25s-2.22-.44-3.03-1.25l-2.57-2.57 6.05-6.05 2.57 2.57c.81.81 1.25 1.88 1.25 3.02s-.44 2.22-1.25 3.02Z"/>
</svg>
