<svg viewBox="0 0 16 16" xmlns="http://www.w3.org/2000/svg">
  <path fill="#1e1e1c" d="M4.56 3.38C4.56 1.52 6.07 0 7.93 0s3.38 1.52 3.38 3.38S9.8 6.76 7.93 6.76 4.55 5.24 4.55 3.38Zm-4.58 9.5V16h5.66c-.22-.37-.35-.8-.35-1.26V10.1c0-.81.39-1.52.99-1.98H4.74c-2.63.01-4.76 2.14-4.76 4.76m16-2.77v4.64c0 .69-.56 1.25-1.25 1.25H7.79c-.69 0-1.25-.56-1.25-1.25v-4.64c0-.69.56-1.25 1.25-1.25h1.64V8c0-.55.45-1 1-1h2.01c.55 0 1 .45 1 1v.86h1.29c.69 0 1.25.56 1.25 1.25m-5.06-1.25h1.01V8.5h-1.01zm2.06 2.94h-1.06v-1.1h-1.25v1.1H9.53v1.25h1.14v1.1h1.25v-1.1h1.06z"/>
</svg>
