<svg viewBox="0 0 24 24" xmlns="http://www.w3.org/2000/svg">
  <path d="M11 0H1.75C.78 0 0 .78 0 1.75V5h1.02L0 7.96v14.29C0 23.22.78 24 1.75 24H11c.97 0 1.75-.78 1.75-1.75V7.96L11.73 5h1.02V1.75C12.75.78 11.97 0 11 0M1.75 1.75H11v1.5H1.75zM11 9.71v9.24H1.75V9.71zm0 12.54H1.75V20.7H11zm-.93-16.68.83 2.39H1.85l.83-2.39.2-.57h7l.2.57ZM5.5 15.12H3.71v-1.75H5.5v-1.79h1.75v1.79h1.79v1.75H7.25v1.79H5.5zm14.08-6.29c1.13 0 2.26-.43 3.12-1.29a4.42 4.42 0 0 0 0-6.24C21.84.44 20.71.01 19.58.01s-2.26.43-3.12 1.29a4.42 4.42 0 0 0 0 6.24c.86.86 1.99 1.29 3.12 1.29m1.89-2.53c-.5.5-1.17.78-1.88.78-.42 0-.82-.11-1.19-.29l3.56-3.56c.5 1 .34 2.24-.49 3.07M17.7 2.53a2.65 2.65 0 0 1 3-.53l-3.53 3.53a2.65 2.65 0 0 1 .52-3Zm1.85 12.23c-.66-.66-1.53-.99-2.4-.99s-1.73.33-2.4.99a3.39 3.39 0 0 0 0 4.79l3.46 3.46c.66.66 1.53.99 2.4.99s1.73-.33 2.4-.99a3.39 3.39 0 0 0 0-4.79zM16 16c.31-.31.72-.48 1.16-.48s.85.17 1.16.48l1.11 1.11-2.32 2.32L16 18.32c-.64-.64-.64-1.68 0-2.32m5.77 5.77c-.31.31-.72.48-1.16.48s-.85-.17-1.16-.48l-1.11-1.11 2.32-2.32 1.11 1.11c.31.31.48.72.48 1.16s-.17.85-.48 1.16"/>
</svg>
