<svg viewBox="0 0 16 16" xmlns="http://www.w3.org/2000/svg">
  <path fill="#1e1e1c" d="M6.3 6.14c1.69 0 3.07-1.38 3.07-3.08S7.99 0 6.3 0 3.23 1.38 3.23 3.08 4.61 6.16 6.3 6.16Zm0-4.64c.87 0 1.57.71 1.57 1.57s-.7 1.57-1.57 1.57-1.57-.71-1.57-1.57.7-1.57 1.57-1.57M3.43 8.18c-1.08 0-1.96.88-1.96 1.96v2.92h-1.5v-2.92c0-1.91 1.55-3.46 3.46-3.46h4.54v1.5zm-.2 1.96h1.5v2.92h-1.5zm7.43 2.91H9.52V11.8h1.14v-1.1h1.25v1.1h1.06v1.25h-1.06v1.1h-1.25zm4.06-4.19h-1.29V8c0-.55-.45-1-1-1h-2.01c-.55 0-1 .45-1 1v.86H7.78c-.69 0-1.25.56-1.25 1.25v4.64c0 .69.56 1.25 1.25 1.25h6.94c.69 0 1.25-.56 1.25-1.25v-4.64c0-.69-.56-1.25-1.25-1.25m-3.8-.36h1.01v.36h-1.01zm3.55 5.99H8.03v-4.14h6.44z"/>
</svg>
