<svg viewBox="0 0 16 16" xmlns="http://www.w3.org/2000/svg">
  <path d="M15.63 14.98c-.08.13-.18.24-.29.35-.44.44-1.02.66-1.6.66s-1.16-.22-1.6-.66l-.62-.62 3.19-3.19.62.62c.11.11.21.23.29.35.5.75.5 1.73 0 2.49Zm-2.6-5.14a2.3 2.3 0 0 0-.35-.29c-.38-.25-.81-.37-1.24-.37a2.256 2.256 0 0 0-1.6 3.85l.62.62 3.19-3.19zm1.5-9.43C14.07.15 13.57 0 13.06 0a2.928 2.928 0 0 0-2.53 4.42zm-1.47 5.48a2.928 2.928 0 0 0 2.53-4.42l-4.01 4.01c.46.26.96.41 1.47.41ZM.64 3.78 0 5.3h8.5l-.64-1.53H.64ZM7 0H1.5C.67 0 0 .67 0 1.5v.78h8.5V1.5C8.5.67 7.83 0 7 0M0 6.8h8.5v5.5H0zm2.47 3.45h1.02v1.02h1.5v-1.02h1.02v-1.5H4.99V7.73h-1.5v1.02H2.47zM0 14.5c0 .83.67 1.5 1.5 1.5H7c.83 0 1.5-.67 1.5-1.5v-.7H0z"/>
</svg>
