<svg viewBox="0 0 32 32" xmlns="http://www.w3.org/2000/svg">
  <path fill="#1e1e1c" d="M9.42 6.5c0-3.58 2.92-6.5 6.5-6.5s6.51 2.92 6.51 6.5-2.92 6.5-6.51 6.5-6.51-2.92-6.51-6.5ZM23.38 18l.53-1.04H8.1l.49.93c1.45 2.81 4.21 4.5 7.37 4.52h.06c3.14 0 5.89-1.65 7.37-4.42ZM15 24.35V32H.01v-6.81c0-3.76 2.53-6.93 5.98-7.91l.81 1.54c1.65 3.2 4.68 5.2 8.2 5.53m-3.55 3.63-.86-1.81c-2.18 1.03-4.26 1.04-6.39 0l-.88 1.8c1.33.65 2.68.97 4.04.97s2.72-.32 4.08-.97ZM32.01 32H17v-7.65c3.47-.32 6.46-2.27 8.13-5.41l.86-1.67c3.46.98 6.01 4.15 6.01 7.92V32Zm-3.37-6.3H26.4v-2.31h-2.5v2.31h-2.39v2.5h2.39v2.31h2.5V28.2h2.24z"/>
</svg>
