<svg viewBox="0 0 64 64" xmlns="http://www.w3.org/2000/svg">
  <path fill="#1e1e1c" d="M17.93 13.52c0-7.44 6.06-13.5 13.51-13.5s13.51 6.06 13.51 13.5-6.06 13.5-13.51 13.5-13.51-6.06-13.51-13.5m10.25 21.01H16.8C7.54 34.53 0 42.05 0 51.28V64h24.99a7.04 7.04 0 0 1-.91-3.47V40.96c0-2.84 1.68-5.3 4.1-6.43M64 40.97v19.57a3.5 3.5 0 0 1-3.49 3.49H31.19c-1.92 0-3.49-1.56-3.49-3.49V40.97a3.5 3.5 0 0 1 3.49-3.49h8.72v-5.41c0-1.34 1.09-2.43 2.43-2.43h8.48c1.34 0 2.43 1.09 2.43 2.43v5.41h7.26c1.92 0 3.49 1.56 3.49 3.49m-21.34-3.49h7.84v-5.09h-7.84zM53.13 48.5h-4.88v-5.03h-4.5v5.03h-5.19V53h5.19v5.03h4.5V53h4.88z"/>
</svg>
