<svg viewBox="0 0 24 24" xmlns="http://www.w3.org/2000/svg">
  <path d="m20.75 15.96-4.79 4.79-1.2-1.2a3.34 3.34 0 0 1-.99-2.4c0-.87.33-1.73.99-2.4.66-.66 1.53-.99 2.4-.99a3.34 3.34 0 0 1 2.4.99l1.2 1.2Zm2.26 2.26-1.2-1.2-4.79 4.79 1.2 1.2c.09.09.19.16.29.24.26.21.53.39.83.51.41.17.84.25 1.28.25s.87-.08 1.28-.25c.3-.12.57-.3.83-.51.1-.08.2-.15.29-.24.66-.66.99-1.53.99-2.4s-.33-1.73-.99-2.4Zm-3.43-9.39c.57 0 1.13-.11 1.66-.32s1.03-.54 1.46-.97c.22-.22.4-.45.57-.69.32-.49.54-1.03.65-1.59.23-1.17-.03-2.41-.75-3.42l-6.15 6.15c.77.55 1.66.84 2.57.84ZM15.9 6.84s.05.05.07.08L22.09.79a4.405 4.405 0 0 0-5.63.5 4.4 4.4 0 0 0-1.21 3.97c.11.56.32 1.1.65 1.59ZM.89 5.38 0 7.96h12.75l-.89-2.58zM11 0H1.75C.78 0 0 .78 0 1.75v2.13h12.75V1.75C12.75.78 11.97 0 11 0M0 9.46h12.75v9.74H0zM3.71 15h1.91v1.91h1.5V15h1.91v-1.5H7.12v-1.91h-1.5v1.91H3.71zM0 22.25C0 23.22.78 24 1.75 24H11c.97 0 1.75-.78 1.75-1.75V20.7H0z"/>
</svg>
