<svg viewBox="0 0 24 24" xmlns="http://www.w3.org/2000/svg">
  <path fill="#1e1e1c" d="M12.06 10.85c2.97 0 5.39-2.43 5.39-5.43S15.04 0 12.06 0s-5.4 2.43-5.4 5.42 2.42 5.43 5.4 5.43m0-9.1c2.01 0 3.65 1.65 3.65 3.67S14.07 9.1 12.06 9.1 8.41 7.45 8.41 5.42s1.64-3.67 3.65-3.67m5.61 11.15H6.16c-3.44 0-6.24 2.82-6.24 6.28V24h1.74v-4.82c0-2.29 1.7-4.16 3.89-4.47v3.5a2.83 2.83 0 0 0-1.95 2.68c0 1.56 1.27 2.84 2.82 2.84s2.82-1.27 2.82-2.84c0-1.26-.82-2.31-1.95-2.68v-3.56h1.2l2.7 5.27v4.09h1.74v-4.08l2.8-5.27h1.94c2.48 0 4.5 2.03 4.5 4.53v4.82h1.74v-4.82c0-3.46-2.8-6.28-6.25-6.28ZM6.42 21.98c-.6 0-1.08-.49-1.08-1.09s.48-1.09 1.08-1.09 1.08.49 1.08 1.09-.48 1.09-1.08 1.09m5.66-4.16-1.63-3.17h3.31zm6.52 1.04h1.55v2H18.6v1.61h-1.99v-1.61h-1.66v-2h1.66v-1.61h1.99z"/>
</svg>
