<svg viewBox="0 0 40 40" xmlns="http://www.w3.org/2000/svg">
  <path fill="#1e1e1c" d="M11.67 8.39c0-4.62 3.75-8.38 8.37-8.38s8.37 3.76 8.37 8.38-3.75 8.38-8.37 8.38-8.37-3.76-8.37-8.38M7.74 34.1c0 1.21.98 2.19 2.18 2.19s2.19-.98 2.19-2.19-.98-2.19-2.19-2.19-2.18.98-2.18 2.19m8.02-13.15 4.49 8.71 4.64-8.71h-9.14ZM39.99 31.2v8.81H21.36v-7.65l6.08-11.41h2.3c5.65 0 10.24 4.6 10.24 10.25Zm-5.04-.35h-2.81v-2.91h-3v2.91h-3.01v3h3.01v2.91h3v-2.91h2.81zm-23.9-9.9v8.87c1.9.5 3.31 2.22 3.31 4.27 0 2.45-1.99 4.44-4.43 4.44S5.5 36.54 5.5 34.09c0-2.06 1.41-3.77 3.31-4.27v-8.76C3.83 21.77 0 26.04 0 31.2v8.81h19.13v-7.65l-5.88-11.41h-2.19Z"/>
</svg>
