<svg viewBox="0 0 40 40" xmlns="http://www.w3.org/2000/svg">
  <path d="M19 0H2.25C1.01 0 0 1.01 0 2.25v6.08h1.71L0 13.26v24.49C0 38.99 1.01 40 2.25 40h16.74c1.24 0 2.25-1.01 2.25-2.25V13.26l-1.71-4.93h1.71V2.25c0-1.24-1.01-2.25-2.25-2.25ZM2.25 2.25h16.74v3.83H2.25zM19 15.51v16.74H2.25V15.51h16.74Zm0 22.24H2.25V34.5h16.74v3.25ZM17.42 9.07l1.45 4.19H2.38l1.45-4.19.25-.74h13.07l.25.74ZM9.5 24.87H6.82v-2.25H9.5v-2.68h2.25v2.68h2.69v2.25h-2.69v2.68H9.5zm23.14-10.15c1.88 0 3.77-.72 5.2-2.16 2.87-2.87 2.87-7.53 0-10.41C36.4.71 34.52-.01 32.64-.01s-3.77.72-5.2 2.16c-2.87 2.87-2.87 7.53 0 10.41a7.33 7.33 0 0 0 5.2 2.16m3.62-3.75a5.1 5.1 0 0 1-3.61 1.5c-1 0-1.96-.29-2.78-.83l7.06-7.06c1.28 1.98 1.06 4.66-.67 6.39m-7.23-7.22a5.1 5.1 0 0 1 3.61-1.5c.96 0 1.87.28 2.67.77l-7.01 7.01a5.11 5.11 0 0 1 .73-6.28m3.56 20.85c-1.1-1.1-2.55-1.65-3.99-1.65s-2.89.55-3.99 1.65a5.643 5.643 0 0 0 0 7.99l5.76 5.76c1.1 1.1 2.55 1.65 3.99 1.65s2.89-.55 3.99-1.65a5.643 5.643 0 0 0 0-7.99zm-7.4 3.99c0-.91.35-1.76 1-2.4.64-.64 1.5-.99 2.4-.99s1.76.35 2.4.99l2.08 2.08-4.81 4.8-2.08-2.08c-.64-.64-1-1.49-1-2.4Zm11.57 8.17c-.64.64-1.5.99-2.4.99s-1.76-.35-2.4-.99l-2.09-2.08 4.81-4.8 2.09 2.08c.64.64 1 1.49 1 2.4s-.35 1.76-1 2.4Z"/>
</svg>
