<svg viewBox="0 0 64 64" xmlns="http://www.w3.org/2000/svg">
  <path fill="#1e1e1c" d="M31.86 26.75c7.37 0 13.37-6 13.37-13.38S39.23 0 31.86 0 18.49 6 18.49 13.38s6 13.38 13.37 13.38Zm0-24c5.86 0 10.62 4.77 10.62 10.63s-4.77 10.63-10.62 10.63-10.62-4.77-10.62-10.63S26 2.75 31.86 2.75m32.11 46.7c0-8.92-7.25-16.17-16.16-16.17H16.14c-8.92 0-16.17 7.26-16.17 16.17V64h2.75V49.45c0-6.62 4.81-12.12 11.12-13.21 3.38 6.44 9.56 10.44 16.73 10.9v16.85h2.75V47.14c7.11-.45 13.28-4.4 16.69-10.8l.06-.11c6.31 1.09 11.14 6.59 11.14 13.21v14.55h2.75V49.44Zm-32-5h-.13c-6.25-.04-11.75-3.16-14.96-8.41h30.15c-3.24 5.29-8.79 8.41-15.07 8.41Zm19.62 6.09h4.63v5h-4.63v4.79h-5v-4.79h-4.94v-5h4.94v-4.79h5zm-28.87 1.53 1.18 2.48c-2.68 1.27-5.37 1.91-8.04 1.91s-5.34-.64-7.96-1.92l1.2-2.47c4.53 2.2 8.98 2.2 13.62 0"/>
</svg>
