<svg viewBox="0 0 16 16" xmlns="http://www.w3.org/2000/svg">
  <path fill="#1e1e1c" d="M7.96 7.5c2.07 0 3.75-1.68 3.75-3.75S10.03 0 7.96 0 4.21 1.68 4.21 3.75 5.89 7.5 7.96 7.5m0-6c1.24 0 2.25 1.01 2.25 2.25S9.2 6 7.96 6 5.71 4.99 5.71 3.75 6.72 1.5 7.96 1.5m3.79 7.13h-7.5A4.26 4.26 0 0 0 0 12.88V16h1.5v-3.12c0-1.24.84-2.29 1.97-2.62v1.8a2.04 2.04 0 1 0 2.79 1.9c0-.86-.54-1.6-1.29-1.9v-1.93h.58l1.66 3.22V16h1.5v-2.65l1.72-3.23h1.31c1.52 0 2.75 1.23 2.75 2.75v3.12h1.5v-3.12a4.26 4.26 0 0 0-4.25-4.25ZM4.22 14.5c-.3 0-.54-.24-.54-.54s.24-.54.54-.54.54.24.54.54-.24.54-.54.54m3.76-2.95-.74-1.42h1.5zm4.29 1.09h1.06v1.25h-1.06v1.1h-1.25v-1.1H9.88v-1.25h1.14v-1.1h1.25z"/>
</svg>
