<svg viewBox="0 0 16 16" xmlns="http://www.w3.org/2000/svg">
  <path fill="#1e1e1c" d="M4.42 3.5c0-1.93 1.57-3.5 3.5-3.5s3.5 1.57 3.5 3.5S9.85 7 7.92 7s-3.5-1.57-3.5-3.5m11.57 9.37V16h-16v-3.13c0-1.82 1.15-3.37 2.77-3.97l.55 1.01c.81 1.57 2.26 2.58 3.97 2.81v3.29h1.5v-3.29c1.65-.24 3.06-1.22 3.88-2.76l.6-1.03c1.6.61 2.74 2.15 2.74 3.96ZM5.71 14.35l-.54-1.13c-1.01.48-1.98.48-2.96 0l-.55 1.13c.67.32 1.34.48 2.02.48s1.35-.16 2.03-.48m8.52-1.25h-1.06V12h-1.25v1.1h-1.14v1.25h1.14v1.1h1.25v-1.1h1.06zm-6.26-1.84H8c1.42 0 2.66-.74 3.32-2l.37-.65H4.31l.32.59c.66 1.28 1.91 2.05 3.33 2.06Z"/>
</svg>
