<svg viewBox="0 0 40 40" xmlns="http://www.w3.org/2000/svg">
  <path fill="#1e1e1c" d="M19.9 17.26c4.75 0 8.62-3.87 8.62-8.63S24.66 0 19.9 0s-8.62 3.87-8.62 8.63 3.87 8.63 8.62 8.63m0-15.01c3.51 0 6.37 2.86 6.37 6.38s-2.86 6.38-6.37 6.38-6.37-2.86-6.37-6.38 2.86-6.38 6.37-6.38M39.98 31.3c0-5.65-4.59-10.24-10.24-10.24H10.22c-5.64 0-10.23 4.6-10.23 10.24V40h2.25v-8.7c0-3.87 2.77-7.11 6.43-7.84 2.11 3.88 5.84 6.31 10.19 6.68V40h2.25v-9.86c4.33-.36 8.08-2.79 10.2-6.68 3.66.73 6.44 3.96 6.44 7.84V40H40v-8.7Zm-20-3.36h-.08c-3.58-.02-6.75-1.74-8.7-4.63h17.54c-1.98 2.92-5.16 4.63-8.76 4.63m12.05 4.08h2.89v3h-2.89v2.99h-3v-2.99h-3.09v-3h3.09v-2.99h3zm-17.86.65.96 2.03c-1.69.8-3.39 1.21-5.07 1.21s-3.37-.4-5.03-1.21l.98-2.02c2.71 1.32 5.37 1.32 8.15 0Z"/>
</svg>
