<svg viewBox="0 0 48 48" xmlns="http://www.w3.org/2000/svg">
  <path fill="#1e1e1c" d="M34.03 10.02c0 5.52-4.48 10.01-9.99 10.01s-9.99-4.49-9.99-10.01S18.54.01 24.05.01s9.99 4.49 9.99 10.01ZM9.27 41.23c0 1.51 1.23 2.75 2.74 2.75s2.74-1.23 2.74-2.75-1.23-2.75-2.74-2.75-2.74 1.23-2.74 2.75m9.56-15.76 5.48 10.64 5.66-10.64zm29.16 12.26v10.28H25.54v-8.9l7.26-13.64h2.95c6.75 0 12.24 5.5 12.24 12.26m-6.43-.37h-3.45v-3.57h-3.49v3.57h-3.68v3.5h3.68v3.58h3.49v-3.58h3.45zM16.02 25.47h-2.76v10.68c2.28.56 3.99 2.62 3.99 5.08 0 2.89-2.35 5.25-5.24 5.25s-5.24-2.35-5.24-5.25c0-2.46 1.7-4.52 3.99-5.08V25.57C4.7 26.29-.01 31.47-.01 37.73v10.28h23.05V39.1z"/>
</svg>
