<svg viewBox="0 0 48 48" xmlns="http://www.w3.org/2000/svg">
  <path d="M35.73 12.83c3.54 0 6.41-2.88 6.41-6.41S39.26 0 35.73 0s-6.41 2.88-6.41 6.41 2.88 6.41 6.41 6.41Zm0-10.33c2.16 0 3.92 1.76 3.92 3.92s-1.76 3.92-3.92 3.92-3.92-1.76-3.92-3.92 1.76-3.92 3.92-3.92m4.99 11.92h-9.99c-4.01 0-7.27 3.26-7.27 7.27v11.77h4.45l1.51 14.51h12.3l1.51-14.51h4.76V21.69c0-4.01-3.26-7.27-7.27-7.27m4.78 16.56h-4.52l-1.51 14.51h-7.8l-1.51-14.51h-4.2V21.7c0-2.63 2.14-4.78 4.78-4.78h9.99c2.63 0 4.78 2.14 4.78 4.78v9.28Zm-25.43 1.48v15.53H5.16v-2.5h12.41V33.93H2.81C1.26 33.93 0 32.67 0 31.11V2.81C0 1.26 1.26 0 2.81 0h23.54v2.5H2.81c-.18 0-.32.14-.32.32v28.3c0 .18.14.32.32.32h17.26v1.03Z"/>
</svg>
