<svg viewBox="0 0 16 16" xmlns="http://www.w3.org/2000/svg">
  <path d="M11.76 4.77c1.31 0 2.38-1.07 2.38-2.38S13.07.01 11.76.01 9.38 1.08 9.38 2.39s1.07 2.38 2.38 2.38m0-3.27c.49 0 .88.4.88.88s-.4.88-.88.88-.88-.4-.88-.88.4-.88.88-.88m1.58 3.65h-3.16c-1.46 0-2.66 1.19-2.66 2.66v3.61h1.44l.48 4.59h4.53l.48-4.59h1.54V7.81c0-1.46-1.19-2.66-2.66-2.66Zm1.16 4.76h-1.39l-.48 4.59H10.8l-.48-4.59H9.03V7.8c0-.64.52-1.16 1.16-1.16h3.16c.64 0 1.16.52 1.16 1.16v2.11ZM3.77 0C1.69 0 0 1.69 0 3.77c0 2.7 3.77 6.47 3.77 6.47s3.77-3.77 3.77-6.47A3.76 3.76 0 0 0 3.77 0m0 8.01C2.62 6.62 1.5 4.86 1.5 3.78c0-1.25 1.02-2.27 2.27-2.27s2.27 1.02 2.27 2.27c0 1.08-1.13 2.84-2.27 4.23m1.45-4.22c0 .8-.65 1.44-1.44 1.44s-1.44-.65-1.44-1.44.65-1.44 1.44-1.44S5.22 3 5.22 3.79"/>
</svg>
