<svg viewBox="0 0 16 16" xmlns="http://www.w3.org/2000/svg">
  <path d="M11.76 4.77c1.31 0 2.38-1.07 2.38-2.38S13.07.01 11.76.01 9.38 1.08 9.38 2.39s1.07 2.38 2.38 2.38m0-3.27c.49 0 .88.4.88.88s-.4.88-.88.88-.88-.4-.88-.88.4-.88.88-.88m1.58 3.65h-3.16c-1.46 0-2.66 1.19-2.66 2.66v3.61h1.44l.48 4.59h4.53l.48-4.59h1.54V7.81c0-1.46-1.19-2.66-2.66-2.66Zm1.16 4.76h-1.39l-.48 4.59H10.8l-.48-4.59H9.03V7.8c0-.64.52-1.16 1.16-1.16h3.16c.64 0 1.16.52 1.16 1.16v2.11Zm-13 .11h5.25V16H2v-1.5h3.25v-2.98h-4c-.69 0-1.25-.57-1.25-1.25v-9C0 .58.56.02 1.25.02h7.5v1.5H1.5z"/>
</svg>
