<svg viewBox="0 0 40 40" xmlns="http://www.w3.org/2000/svg">
  <path d="M0 21.12v-2.25h18.87V0H2.25C1.31 0 .51.57.17 1.37c-.11.27-.17.57-.17.88v35.5C0 38.99 1.01 40 2.25 40h16.63V21.12zM7.87 4.07c.38-.26.83-.4 1.32-.4 1.31 0 2.37 1.06 2.37 2.37 0 .33-.07.64-.19.92s-.29.54-.51.75c-.43.43-1.02.69-1.67.69-.49 0-.95-.15-1.32-.4-.19-.13-.36-.3-.51-.48a1.6 1.6 0 0 1-.21-.3c-.2-.35-.33-.75-.33-1.18 0-.82.41-1.54 1.04-1.96Zm-3.73 8.21A2.76 2.76 0 0 1 6.9 9.52h4.58c1.06 0 1.96.6 2.43 1.47.21.39.33.82.33 1.29v2.27H4.14zm3.73 12.97c.38-.26.83-.4 1.32-.4a2.364 2.364 0 1 1 0 4.73c-.49 0-.95-.15-1.32-.4-.63-.43-1.04-1.15-1.04-1.96s.41-1.54 1.04-1.96Zm6.38 10.47H4.14v-2.27a2.76 2.76 0 0 1 2.76-2.76h4.58c.95 0 1.79.48 2.29 1.22.3.44.47.97.47 1.54v2.27Zm6.88-14.6V40h16.61c.31 0 .61-.06.88-.18a2.24 2.24 0 0 0 1.37-2.07V21.13H21.13Zm7.5 5.17c.18-.42.48-.79.86-1.04.38-.26.83-.4 1.32-.4s.95.15 1.32.4.68.62.86 1.04c.12.28.19.59.19.92 0 1.31-1.06 2.37-2.37 2.37s-2.37-1.06-2.37-2.37c0-.33.07-.64.19-.92m7.24 9.43H25.76v-2.27a2.76 2.76 0 0 1 2.76-2.76h4.58a2.76 2.76 0 0 1 2.76 2.76v2.27Zm4.12-16.84V2.25a2.27 2.27 0 0 0-2.26-2.26H21.12v18.88h18.86ZM30.81 3.67c1.31 0 2.37 1.06 2.37 2.37 0 .33-.07.64-.19.92s-.29.54-.51.75c-.43.43-1.02.69-1.67.69a2.375 2.375 0 0 1-2.37-2.36c0-1.31 1.06-2.37 2.37-2.37m-5.05 8.61a2.76 2.76 0 0 1 2.76-2.76h4.58a2.76 2.76 0 0 1 2.76 2.76v2.27H25.75v-2.27Z"/>
</svg>
