<svg viewBox="0 0 24 24" xmlns="http://www.w3.org/2000/svg">
  <path d="M5 4.52c0-.78.64-1.42 1.42-1.42s1.42.64 1.42 1.42-.64 1.42-1.42 1.42S5 5.3 5 4.52m4.45 3.75c0-.92-.74-1.66-1.66-1.66H5.04c-.92 0-1.66.74-1.66 1.66v1.36h6.06V8.27Zm8.14-2.33c.78 0 1.42-.64 1.42-1.42s-.64-1.42-1.42-1.42-1.42.64-1.42 1.42.64 1.42 1.42 1.42m3.03 3.69V8.27c0-.92-.74-1.66-1.66-1.66h-2.75c-.92 0-1.66.74-1.66 1.66v1.36h6.06Zm-14.2 7.22c.78 0 1.42-.64 1.42-1.42s-.64-1.42-1.42-1.42S5 14.65 5 15.43s.64 1.42 1.42 1.42m1.37.66H5.04c-.92 0-1.66.74-1.66 1.66v1.36h6.06v-1.36c0-.92-.74-1.66-1.66-1.66Zm9.8-.66c.78 0 1.42-.64 1.42-1.42s-.64-1.42-1.42-1.42-1.42.64-1.42 1.42.64 1.42 1.42 1.42m3.03 3.68v-1.36c0-.92-.74-1.66-1.66-1.66h-2.75c-.92 0-1.66.74-1.66 1.66v1.36h6.06ZM24 22.5c0 .83-.67 1.5-1.5 1.5h-21C.67 24 0 23.33 0 22.5v-21C0 .67.67 0 1.5 0h21c.83 0 1.5.67 1.5 1.5zM12.88 1.75v9.38h9.37V1.75zm-11.13 0v9.38h9.38V1.75zm9.38 20.5v-9.38H1.75v9.38zm11.12-9.37h-9.37v9.38h9.37z"/>
</svg>
