<svg viewBox="0 0 48 48" xmlns="http://www.w3.org/2000/svg">
  <path d="M25.26 25.25V48h-2.5V25.25H0v-2.5h22.75V0H2.49A2.45 2.45 0 0 0 1.1.43C.83.61.6.84.42 1.11S.11 1.68.04 2c-.03.16-.05.33-.05.5v43A2.51 2.51 0 0 0 2.48 48h43a2.5 2.5 0 0 0 2.5-2.5V25.25H25.24ZM8.5 7.55c0-.39.08-.77.22-1.11a2.844 2.844 0 0 1 5.24 0c.14.34.22.71.22 1.11 0 .39-.08.77-.22 1.11s-.35.65-.61.9c-.26.26-.56.47-.9.61s-.71.22-1.11.22-.77-.08-1.11-.22-.65-.35-.9-.61a2.8 2.8 0 0 1-.61-.9c-.14-.34-.22-.71-.22-1.11m-3.23 7.49c0-1.83 1.48-3.32 3.32-3.32h5.5c1.83 0 3.32 1.48 3.32 3.32v2.72H5.27zm3.45 16.22a2.844 2.844 0 0 1 5.24 0c.14.34.22.71.22 1.11 0 1.57-1.27 2.84-2.84 2.84S8.5 33.94 8.5 32.37c0-.39.08-.77.22-1.11m8.68 8.59v2.72H5.27v-2.72c0-1.83 1.48-3.32 3.32-3.32h5.5c1.83 0 3.32 1.48 3.32 3.32Zm16.66-8.59a2.844 2.844 0 0 1 5.24 0c.14.34.22.71.22 1.11 0 1.57-1.27 2.84-2.84 2.84s-2.84-1.27-2.84-2.84c0-.39.08-.77.22-1.11m8.68 11.31H30.61v-2.72c0-1.83 1.48-3.32 3.32-3.32h5.5c.92 0 1.74.37 2.34.97.22.22.39.48.54.75a3.35 3.35 0 0 1 .43 1.6zM25.26 22.75H48V2.51a2.45 2.45 0 0 0-.43-1.39A2.48 2.48 0 0 0 45.49 0H25.25v22.75Zm8.57-15.2c0-.39.08-.77.22-1.11a2.844 2.844 0 0 1 5.24 0c.14.34.22.71.22 1.11 0 .39-.08.77-.22 1.11s-.35.65-.61.9c-.26.26-.56.47-.9.61s-.71.22-1.11.22-.77-.08-1.11-.22-.65-.35-.9-.61a2.8 2.8 0 0 1-.61-.9c-.14-.34-.22-.71-.22-1.11m.1 4.17h5.5a3.305 3.305 0 0 1 3.31 3.31v2.72H30.61v-2.72c0-1.83 1.48-3.32 3.32-3.32Z"/>
</svg>
