<svg viewBox="0 0 32 32" xmlns="http://www.w3.org/2000/svg">
  <path d="M6.66 6.03c0-1.05.85-1.89 1.89-1.89s1.89.85 1.89 1.89-.85 1.89-1.89 1.89-1.89-.85-1.89-1.89m5.94 4.99c0-1.22-.99-2.21-2.21-2.21H6.72c-1.22 0-2.21.99-2.21 2.21v1.81h8.09zm10.85-3.1c1.05 0 1.89-.85 1.89-1.89s-.85-1.89-1.89-1.89-1.89.85-1.89 1.89.85 1.89 1.89 1.89m4.04 3.1c0-1.22-.99-2.21-2.21-2.21h-3.67c-1.22 0-2.21.99-2.21 2.21v1.81h8.09zM8.56 22.47c1.05 0 1.89-.85 1.89-1.89s-.85-1.89-1.89-1.89-1.89.85-1.89 1.89.85 1.89 1.89 1.89m4.04 3.09c0-1.22-.99-2.21-2.21-2.21H6.72c-1.22 0-2.21.99-2.21 2.21v1.81h8.09zm10.85-3.09c1.05 0 1.89-.85 1.89-1.89s-.85-1.89-1.89-1.89-1.89.85-1.89 1.89.85 1.89 1.89 1.89m4.04 3.09c0-1.22-.99-2.21-2.21-2.21h-3.67c-1.22 0-2.21.99-2.21 2.21v1.81h8.09zM32 30c0 1.1-.9 2-2 2H2a2 2 0 0 1-2-2V2a2 2 0 0 1 2-2h28c1.1 0 2 .9 2 2zM15 17H2v13h13.01V17Zm0-15H2v13h13.01V2Zm15 15H17.01v13H30zm0-15H17.01v13H30z"/>
</svg>
