<svg viewBox="0 0 64 64" xmlns="http://www.w3.org/2000/svg">
  <path d="M47.65 16.59c4.55 0 8.26-3.71 8.26-8.27S52.2.05 47.65.05s-8.26 3.71-8.26 8.27 3.7 8.27 8.26 8.27m0-13.79c3.04 0 5.51 2.48 5.51 5.52s-2.47 5.52-5.51 5.52-5.51-2.48-5.51-5.52 2.47-5.52 5.51-5.52m7 15.98H41.33c-5.19 0-9.4 4.23-9.4 9.42v16.43h5.9L39.85 64h15.87l2.02-19.37h6.32V28.2c0-5.19-4.22-9.42-9.4-9.42Zm6.66 23.09h-6.05l-2.02 19.37H42.32L40.3 41.87h-5.63V28.19c0-3.68 2.99-6.67 6.66-6.67h13.32c3.67 0 6.66 2.99 6.66 6.67zm-57.79.15h23.01v2.75h-.01v16.52h.01v2.75H6.65v-2.75h17.11V44.77H3.52A3.47 3.47 0 0 1 .06 41.3V3.51A3.463 3.463 0 0 1 3.52.04h31.37v2.75H3.52c-.4 0-.72.32-.72.72V41.3c0 .4.32.72.72.72"/>
</svg>
