<svg viewBox="0 0 32 32" xmlns="http://www.w3.org/2000/svg">
  <path d="M23.73 8.86c2.43 0 4.4-1.96 4.4-4.37S26.16.11 23.73.11s-4.4 1.96-4.4 4.37 1.98 4.37 4.4 4.37Zm0-6.76c1.33 0 2.41 1.07 2.41 2.39s-1.08 2.39-2.41 2.39-2.41-1.07-2.41-2.39S22.4 2.1 23.73 2.1m3.29 8.17h-6.59c-2.74 0-4.97 2.21-4.97 4.94v7.4h2.95l1 9.5h8.43l1-9.5H32v-7.4c0-2.72-2.23-4.94-4.97-4.94ZM30 20.62h-2.96l-1 9.5h-4.83l-1-9.5h-2.75v-5.41a2.96 2.96 0 0 1 2.97-2.95h6.59a2.96 2.96 0 0 1 2.97 2.95v5.41Zm-28.01.04 11.42.04v11.18H3.58V29.9h7.83v-7.22H2.03A2.03 2.03 0 0 1 0 20.66V2.13C0 1.01.91.11 2.03.11h15.52v1.98H2.03z"/>
</svg>
