<svg viewBox="0 0 24 24" xmlns="http://www.w3.org/2000/svg">
  <path d="M0 12.88v-1.75h11.12V0H1.5C.67 0 0 .67 0 1.5v21c0 .83.67 1.5 1.5 1.5h9.63V12.88zM5.42 2.1c.78 0 1.42.64 1.42 1.42 0 .1 0 .19-.03.29a1.416 1.416 0 0 1-1.94 1.02 1.5 1.5 0 0 1-.45-.3 1.44 1.44 0 0 1-.41-1c0-.78.64-1.42 1.42-1.42ZM2.39 7.27c0-.57.29-1.08.73-1.37.26-.18.58-.28.93-.28H6.8c.34 0 .66.1.93.28.09.06.17.13.25.2s.14.16.2.25c.18.26.28.58.28.93v1.36H2.39V7.28Zm2.48 7.85c.17-.07.36-.11.55-.11.39 0 .75.16 1 .42.26.26.42.61.42 1a1.425 1.425 0 0 1-1.97 1.31 1.5 1.5 0 0 1-.45-.3 1.44 1.44 0 0 1-.41-1c0-.59.36-1.09.87-1.31Zm3.58 5.05v1.36H2.39v-1.36c0-.11.01-.23.03-.33s.05-.21.1-.31c.25-.59.84-1.01 1.53-1.01H6.8a1.64 1.64 0 0 1 1.28.62q.15.18.24.39c.04.1.07.2.1.31q.03.165.03.33M24 11.12V1.5c0-.83-.67-1.5-1.5-1.5h-9.62v11.12zm-6.83-7.6c0-.78.64-1.42 1.42-1.42s1.42.64 1.42 1.42c0 .1 0 .19-.03.29-.13.65-.71 1.13-1.39 1.13a1.426 1.426 0 0 1-1.42-1.42m-1.61 3.75c0-.57.29-1.08.73-1.37.26-.18.58-.28.93-.28h2.75c.34 0 .66.1.93.28.44.3.73.8.73 1.37v1.36h-6.06V7.27Zm-2.68 5.61V24h9.62c.83 0 1.5-.67 1.5-1.5v-9.62zm4.7 2.54c.26-.26.61-.42 1-.42s.75.16 1 .42c.26.26.42.61.42 1 0 .78-.64 1.42-1.42 1.42s-1.42-.64-1.42-1.42c0-.39.16-.75.42-1m4.04 4.75v1.36h-6.06v-1.36c0-.11.01-.23.03-.33s.05-.21.1-.31c.25-.59.84-1.01 1.53-1.01h2.75a1.66 1.66 0 0 1 1.63 1.32q.03.165.03.33Z"/>
</svg>
