<svg viewBox="0 0 48 48" xmlns="http://www.w3.org/2000/svg">
  <path d="M29.9 6.23C29.9 2.79 32.69 0 36.13 0s6.23 2.8 6.23 6.23-2.79 6.23-6.23 6.23-6.23-2.79-6.23-6.23m11.04 7.96h-9.63c-3.89 0-7.06 3.17-7.06 7.06v12.77h4.29L30 48.01h11.94l1.46-13.99H48V21.25c0-3.89-3.17-7.06-7.06-7.06m-17.93-2.68c0 1.54-.4 3.2-1.06 4.87-.22.56-.47 1.12-.74 1.68-.13.28-.28.56-.42.84q-.435.84-.93 1.65c-.16.27-.33.54-.5.81a53 53 0 0 1-3.18 4.5c-.18.23-.35.45-.53.66-2.25 2.8-4.15 4.7-4.15 4.7s-1.9-1.9-4.15-4.7c-.17-.22-.35-.44-.53-.66a55 55 0 0 1-3.18-4.5c-.17-.27-.33-.54-.5-.81q-.48-.825-.93-1.65-.225-.42-.42-.84c-.27-.56-.52-1.12-.74-1.68C.41 14.7 0 13.05 0 11.51c0-2.78.99-5.33 2.63-7.32q.705-.855 1.56-1.56c.28-.23.58-.46.89-.66A11.5 11.5 0 0 1 11.51 0c6.35 0 11.5 5.15 11.5 11.51m-6.76.06c0-2.62-2.13-4.75-4.75-4.75s-4.75 2.13-4.75 4.75 2.13 4.75 4.75 4.75 4.75-2.13 4.75-4.75"/>
</svg>
