<svg viewBox="0 0 16 16" xmlns="http://www.w3.org/2000/svg">
  <path d="M9.38 2.38a2.38 2.38 0 1 1 4.759-.001 2.38 2.38 0 0 1-4.759.001m3.96 3.27h-3.16c-1.46 0-2.66 1.19-2.66 2.66v3.11h1.44l.48 4.59h4.53l.48-4.59h1.54V8.31c0-1.46-1.19-2.66-2.66-2.66ZM7.55 3.77c0 2.7-3.77 6.47-3.77 6.47C3.77 10.24 0 6.47 0 3.77c0-.52.11-1.01.3-1.46C.68 1.4 1.4.68 2.31.3c.45-.19.94-.3 1.46-.3 2.09 0 3.78 1.69 3.78 3.77m-2.33.02c0-.8-.65-1.44-1.44-1.44S2.34 3 2.34 3.79s.65 1.44 1.44 1.44 1.44-.65 1.44-1.44"/>
</svg>
