<svg viewBox="0 0 64 64" xmlns="http://www.w3.org/2000/svg">
  <path d="M63.99 30.62V2.75c0-1.52-1.23-2.75-2.75-2.75H33.38v30.62zM45.41 8.58a3.79 3.79 0 0 1 3.49-2.31 3.794 3.794 0 0 1 3.79 3.78 3.785 3.785 0 0 1-3.79 3.78 3.785 3.785 0 0 1-3.78-3.78c0-.52.11-1.02.3-1.47Zm-4.6 11.46c0-2.44 1.98-4.42 4.42-4.42h7.33c2.44 0 4.42 1.98 4.42 4.42v3.63H40.81zM0 33.38v-2.75h30.62V0H2.74A2.74 2.74 0 0 0 0 2.75v58.5C0 62.77 1.23 64 2.75 64h27.89V33.38zM11.98 7.94c.68-1.01 1.83-1.67 3.14-1.67s2.46.66 3.14 1.67c.41.6.65 1.33.65 2.12 0 2.09-1.7 3.79-3.79 3.79s-3.79-1.7-3.79-3.79c0-.78.24-1.51.65-2.12m-4.95 12.1c0-2.44 1.98-4.42 4.42-4.42h7.33c2.44 0 4.42 1.98 4.42 4.42v3.63H7.03zm4.3 23.1a3.785 3.785 0 0 1 3.79-3.78 3.785 3.785 0 0 1 3.79 3.78 3.785 3.785 0 0 1-3.79 3.78 3.785 3.785 0 0 1-3.79-3.78M23.2 56.75H7.03v-3.63c0-2.44 1.98-4.42 4.42-4.42h7.33c2.44 0 4.42 1.98 4.42 4.42zm10.18-23.37V64h27.86c1.52 0 2.75-1.23 2.75-2.75V33.37H33.38Zm11.73 9.76a3.794 3.794 0 0 1 3.78-3.79 3.785 3.785 0 0 1 3.79 3.78c0 2.09-1.7 3.79-3.79 3.79a3.785 3.785 0 0 1-3.78-3.78m11.87 13.61H40.81v-3.63c0-.92.28-1.77.75-2.47a4.45 4.45 0 0 1 2.77-1.86c.29-.06.59-.09.89-.09h7.33c2.44 0 4.42 1.98 4.42 4.42v3.63Z"/>
</svg>
