<svg viewBox="0 0 40 40" xmlns="http://www.w3.org/2000/svg">
  <path d="M30.03 10.55c2.91 0 5.27-2.37 5.27-5.27S32.94 0 30.03 0s-5.27 2.36-5.27 5.27 2.37 5.27 5.27 5.27Zm0-8.29c1.67 0 3.03 1.36 3.03 3.02S31.7 8.3 30.03 8.3s-3.02-1.36-3.02-3.02 1.36-3.02 3.02-3.02m4.01 9.98h-8.03c-3.29 0-5.97 2.68-5.97 5.96v10.15h3.58L24.84 40h10.1l1.22-11.65H40V18.2c0-3.29-2.68-5.96-5.97-5.96Zm3.72 13.87h-3.62l-1.22 11.65h-6.05l-1.22-11.65h-3.36v-7.9c0-2.05 1.67-3.71 3.72-3.71h8.03c2.05 0 3.72 1.67 3.72 3.71zM9.59.01C4.3.01 0 4.3 0 9.59c0 6.85 9.59 16.43 9.59 16.43s9.58-9.58 9.58-16.43c0-5.29-4.29-9.58-9.58-9.58m0 22.71c-2.93-3.3-7.33-9.13-7.33-13.13s3.29-7.33 7.33-7.33 7.33 3.29 7.33 7.33-4.41 9.83-7.33 13.13m0-17.14c-2.24 0-4.06 1.82-4.06 4.06s1.82 4.06 4.06 4.06 4.06-1.82 4.06-4.06-1.82-4.06-4.06-4.06m0 5.87a1.81 1.81 0 1 1 0-3.62 1.81 1.81 0 0 1 0 3.62"/>
</svg>
