<svg viewBox="0 0 32 32" xmlns="http://www.w3.org/2000/svg">
  <path d="M23.91 8.64c2.38 0 4.32-1.94 4.32-4.32S26.29 0 23.91 0s-4.32 1.94-4.32 4.32 1.94 4.32 4.32 4.32m0-6.65c1.28 0 2.32 1.04 2.32 2.32s-1.04 2.32-2.32 2.32-2.32-1.04-2.32-2.32 1.04-2.32 2.32-2.32m3.21 7.8h-6.43c-2.69 0-4.88 2.19-4.88 4.88v8h2.88l.97 9.33h8.27l.97-9.33h3.08v-8c0-2.69-2.19-4.88-4.88-4.88Zm2.87 10.87H27.1l-.97 9.33h-4.66l-.97-9.33h-2.68v-6a2.87 2.87 0 0 1 2.87-2.87h6.43a2.87 2.87 0 0 1 2.87 2.87zM7.67 0C3.43 0 0 3.43 0 7.67c0 5.48 7.67 13.15 7.67 13.15s7.67-7.67 7.67-13.15C15.34 3.43 11.9 0 7.67 0m0 17.88C5.34 15.23 2 10.75 2 7.67S4.54 2 7.67 2s5.67 2.54 5.67 5.67-3.35 7.57-5.67 10.21m0-13.42c-1.8 0-3.25 1.46-3.25 3.25s1.46 3.25 3.25 3.25 3.25-1.46 3.25-3.25-1.46-3.25-3.25-3.25m0 4.5a1.25 1.25 0 1 1 0-2.5 1.25 1.25 0 0 1 0 2.5"/>
</svg>
