<svg viewBox="0 0 40 40" xmlns="http://www.w3.org/2000/svg">
  <path fill="#1e1e1c" d="M2.37 0C1.07 0 0 1.07 0 2.38v10.63c0 1.31 1.07 2.38 2.38 2.38h22.2l-.04 22.22c0 .64.25 1.23.69 1.68s1.05.7 1.68.7h10.71c1.31 0 2.38-1.07 2.38-2.38V0zm.01 13.14c-.07 0-.13-.06-.13-.12V2.38c0-.07.06-.12.12-.12H4.5v3.31h2.25V2.26H9v2.31h2.25V2.26h2.25v3.31h2.25V2.26H18v2.31h2.25V2.26h2.25v3.31h2.25V2.25H27v2.32h2.25V2.25h6.86L25.22 13.13H2.38Zm35.24 24.6H26.91l-.13-.12.04-22.88L37.74 3.83v6.92h-2.33V13h2.33v2.25h-3.33v2.25h3.33v2.25h-2.33V22h2.33v2.25h-3.33v2.25h3.33v2.25h-2.33V31h2.33v2.25h-3.33v2.25h3.33v2.12c0 .07-.06.12-.13.12Z"/>
</svg>
