<svg viewBox="0 0 16 16" xmlns="http://www.w3.org/2000/svg">
  <path fill="#1e1e1c" d="M3.26 4.22c0-.41.34-.75.75-.75h7.87c.41 0 .75.34.75.75s-.34.75-.75.75H4.01c-.41 0-.75-.34-.75-.75M16 9.98c0 .17-.02.34-.06.5.03.21.06.42.06.64 0 2.69-2.19 4.87-4.87 4.87-1.74 0-3.25-.92-4.12-2.29L5.4 16l-2.73-3.9h-.56C.95 12.1 0 11.15 0 9.98V2.12C0 .95.95 0 2.12 0h11.76C15.05 0 16 .95 16 2.12zm-9.66 2.06c-.06-.3-.09-.6-.09-.91 0-1.11.39-2.12 1.01-2.93H4.01c-.41 0-.75-.34-.75-.75s.34-.75.75-.75h5.12c.61-.28 1.28-.44 1.99-.44 1.31 0 2.5.53 3.37 1.37V2.12c0-.34-.28-.62-.62-.62H2.12c-.34 0-.62.28-.62.62v7.86c0 .34.28.62.62.62h1.34l1.95 2.79.94-1.35Zm8.16-.92c0-1.86-1.51-3.37-3.37-3.37s-3.37 1.51-3.37 3.37 1.51 3.37 3.37 3.37 3.37-1.51 3.37-3.37m-2.57-1.64-1.26 1.9-.68-.48a.753.753 0 0 0-1.05.18.74.74 0 0 0 .18 1.04l1.94 1.37 2.12-3.18c.23-.34.13-.81-.21-1.04a.745.745 0 0 0-1.04.21"/>
</svg>
