<svg viewBox="0 0 64 64" xmlns="http://www.w3.org/2000/svg">
  <path fill="#1e1e1c" d="M3.4 0A3.41 3.41 0 0 0 0 3.4v16.93c0 2.06 1.67 3.74 3.73 3.74h36.15l-.06 36.2c0 1 .38 1.93 1.09 2.64s1.64 1.1 2.64 1.1h16.72A3.73 3.73 0 0 0 64 60.28V0zm.33 21.32c-.54 0-.98-.44-.98-.98V3.4c0-.36.29-.65.65-.65h2.11v5.4h2.75v-5.4h2.76v2.9h2.75v-2.9h2.76v5.4h2.75v-5.4h2.76v2.9h2.75v-2.9h2.76v5.4h2.75v-5.4h2.76v2.9h2.75v-2.9h2.76v5.4h2.75v-5.4h2.76v2.9h2.75v-2.9h2.76v5.4h2.75v-5.4h6.92L40.69 21.32zm56.54 39.93H43.55c-.26 0-.51-.1-.69-.29s-.29-.43-.29-.69l.06-37L61.25 4.65v7.1h-5.41v2.75h5.41v2.75h-2.91V20h2.91v2.75h-5.41v2.75h5.41v2.75h-2.91V31h2.91v2.75h-5.41v2.75h5.41v2.75h-2.91V42h2.91v2.75h-5.41v2.75h5.41v2.75h-2.91V53h2.91v2.75h-5.41v2.75h5.41v1.74c0 .54-.44.98-.98.98Z"/>
</svg>
