<svg viewBox="0 0 48 48" xmlns="http://www.w3.org/2000/svg">
  <path fill="#1e1e1c" d="M10.1 12c0-.69.56-1.25 1.25-1.25h24.38a1.25 1.25 0 0 1 0 2.5H11.35c-.69 0-1.25-.56-1.25-1.25m37.91 21.27C48.01 41.39 41.4 48 33.28 48c-5.57 0-10.43-3.11-12.93-7.68l-4.8 7.66-7.94-12.66H5.5c-3.03 0-5.5-2.46-5.5-5.49V5.49C0 2.46 2.47 0 5.49 0h36.98c3.03 0 5.49 2.46 5.49 5.49v24.35c0 .41-.06.81-.15 1.19.11.73.19 1.48.19 2.25Zm-28.84 4.22a14.7 14.7 0 0 1-.62-4.22c0-3.89 1.53-7.42 4-10.06h-11.2a1.25 1.25 0 0 1 0-2.5h14.27c2.23-1.37 4.85-2.17 7.65-2.17 5.06 0 9.54 2.57 12.19 6.47V5.49c0-1.65-1.34-2.99-2.99-2.99H5.49C3.84 2.5 2.5 3.84 2.5 5.49v24.35c0 1.65 1.34 2.99 2.99 2.99h3.5l6.55 10.45 3.62-5.78Zm26.34-4.22c0-6.74-5.49-12.23-12.23-12.23s-12.23 5.49-12.23 12.23S26.54 45.5 33.28 45.5s12.23-5.48 12.23-12.23m-8.6-4.7-4.81 7.24-3.24-2.28a1.249 1.249 0 0 0-1.44 2.04l5.34 3.75 6.23-9.37c.38-.58.23-1.35-.35-1.73s-1.35-.23-1.73.35"/>
</svg>
