<svg viewBox="0 0 64 64" xmlns="http://www.w3.org/2000/svg">
  <path fill="#1e1e1c" d="M37.95 24.07H3.74c-2.06 0-3.73-1.68-3.73-3.73V3.4C.01 1.53 1.54 0 3.41 0h2.11v8.15h2.75V0h2.76v5.65h2.75V0h2.76v8.15h2.75V0h2.76v5.65h2.75V0h2.76v8.4h2.75V0h2.76v5.65h2.75V0h2.76v8.15h2.75V0h2.76v5.65h2.75V0h15.18zm17.9 34.46v-2.75h8.16v-2.75h-5.66v-2.75h5.66v-2.75h-8.16v-2.75h8.16v-2.75h-5.66v-2.75h5.66v-2.75h-8.16v-2.75h8.16v-2.75h-5.66v-2.75h5.66v-2.75h-8.16v-2.75h8.16v-2.75h-5.66v-2.75h5.66V1.9L39.89 26.02l-.06 34.24c0 1 .39 1.94 1.09 2.64.7.71 1.64 1.09 2.64 1.09h16.72a3.73 3.73 0 0 0 3.73-3.73v-1.74h-8.16Z"/>
</svg>
