<svg viewBox="0 0 48 48" xmlns="http://www.w3.org/2000/svg">
  <path d="M5.99 11.91c3.28 0 5.96-2.67 5.96-5.96S9.27-.01 5.99-.01.03 2.66.03 5.95s2.67 5.96 5.96 5.96m0-9.42c1.9 0 3.45 1.55 3.45 3.45S7.89 9.39 5.99 9.39 2.54 7.84 2.54 5.94s1.55-3.45 3.45-3.45M42 36.07c-3.28 0-5.96 2.67-5.96 5.96s2.67 5.96 5.96 5.96 5.96-2.67 5.96-5.96-2.67-5.96-5.96-5.96m0 9.42c-1.91 0-3.45-1.55-3.45-3.45s1.55-3.45 3.45-3.45 3.45 1.55 3.45 3.45-1.55 3.45-3.45 3.45m-5.19-14.7v-5.82h1.25c5.48 0 9.94-4.46 9.94-9.94s-4.46-9.94-9.94-9.94h-8.22v2.5h8.22c4.1 0 7.44 3.34 7.44 7.44s-3.34 7.44-7.44 7.44h-1.25V16.1c0-.97-.79-1.75-1.75-1.75H14.11c-.97 0-1.75.79-1.75 1.75v6.37H9.95C4.46 22.47 0 26.93 0 32.41v1.13c0 5.49 4.46 9.95 9.94 9.95h8.66v-2.5H9.94c-4.1 0-7.44-3.34-7.44-7.44v-1.13c0-4.1 3.34-7.44 7.44-7.44h2.41v5.82c0 .97.79 1.75 1.75 1.75h20.95c.97 0 1.75-.79 1.75-1.75Zm-2.5-.75H14.86V16.85h19.45zm-14.39-5.05h-2.5v-2.5h2.5zm12.09 0h-2.5v-2.5h2.5zm-.93 15.99h2.5v2.5h-2.5zm-4.98 0h2.5v2.5h-2.5zm-5.01 0h2.5v2.5h-2.5zM16.93 7.6h-2.5V5.1h2.5zm5.02 0h-2.5V5.1h2.5zm5.21 0h-2.71V5.1h2.71zm-1.18 17.39h-2.5v-2.5h2.5z"/>
</svg>
