<svg viewBox="0 0 32 32" xmlns="http://www.w3.org/2000/svg">
  <path d="M4.12 8.19a4.106 4.106 0 0 0 0-8.21 4.106 4.106 0 0 0 0 8.21m0-6.21a2.1 2.1 0 1 1 0 4.2 2.1 2.1 0 0 1 0-4.2m23.75 21.8c-2.26 0-4.1 1.84-4.1 4.1s1.84 4.1 4.1 4.1 4.1-1.84 4.1-4.1-1.84-4.1-4.1-4.1m0 6.21a2.1 2.1 0 1 1 0-4.2 2.1 2.1 0 0 1 0 4.2m-15.98-2.98h2v2h-2zm4 0h2v2h-2zm3.98 0h2v2h-2zM12.2 5.36h-2v-2h2zm4 0h-2v-2h2zm3.97 0h-2v-2h2zm4.46 14.94v-3.49h.65c3.71 0 6.73-3.02 6.73-6.73s-3.02-6.73-6.73-6.73h-3.11v2h3.11c2.61 0 4.73 2.12 4.73 4.73s-2.12 4.73-4.73 4.73h-.65v-3.86c0-.83-.67-1.5-1.5-1.5H9.65c-.83 0-1.5.67-1.5 1.5v3.86H6.73C3.02 14.81 0 17.83 0 21.54v.74c0 3.71 3.02 6.73 6.73 6.73h3.18v-2H6.73C4.12 27.01 2 24.89 2 22.28v-.74c0-2.61 2.12-4.73 4.73-4.73h1.42v3.49c0 .83.67 1.5 1.5 1.5h13.48c.83 0 1.5-.67 1.5-1.5m-11.14-3.48h-2v-2h2zm3.99 0h-2v-2h2zm3.98 0h-2v-2h2z"/>
</svg>
