<svg viewBox="0 0 40 40" xmlns="http://www.w3.org/2000/svg">
  <path d="M5.05 10.01c2.77 0 5.03-2.26 5.03-5.03S7.83-.05 5.05-.05.03 2.2.03 4.98s2.26 5.03 5.03 5.03Zm0-7.81c1.53 0 2.78 1.25 2.78 2.78S6.58 7.76 5.05 7.76 2.27 6.51 2.27 4.98 3.52 2.2 5.05 2.2m29.89 27.69c-2.77 0-5.03 2.26-5.03 5.03s2.26 5.03 5.03 5.03 5.03-2.26 5.03-5.03-2.26-5.03-5.03-5.03m0 7.81c-1.53 0-2.78-1.25-2.78-2.78s1.25-2.78 2.78-2.78 2.78 1.25 2.78 2.78-1.25 2.78-2.78 2.78m-19.98-3.75h2.25v2.25h-2.25zm5.03 0h2.25v2.25h-2.25zm5.01 0h2.25v2.25H25zM14.61 6.44h-2.25V4.19h2.25zm4.52 0h-2.25V4.19h2.25zM30.72 25.5v-4.65h.95c4.6 0 8.33-3.74 8.33-8.34s-3.74-8.34-8.33-8.34h-5.76v2.25h5.76c3.36 0 6.09 2.73 6.09 6.09s-2.73 6.09-6.09 6.09h-.95v-5.11c0-.9-.73-1.63-1.62-1.63H11.88c-.9 0-1.62.73-1.62 1.63v5.11H8.35C3.74 18.6 0 22.34 0 26.94v.93c0 4.6 3.74 8.34 8.34 8.34h4v-2.25h-4c-3.36 0-6.09-2.73-6.09-6.09v-.93c0-3.36 2.73-6.09 6.09-6.09h1.91v4.65c0 .9.73 1.63 1.62 1.63h17.22c.9 0 1.62-.73 1.62-1.63ZM16.7 20.86h-2.25v-2.25h2.25zm5.03 0h-2.25v-2.25h2.25zm5.01 0h-2.25v-2.25h2.25zM23.65 6.44H21.4V4.19h2.25z"/>
</svg>
