<svg viewBox="0 0 24 24" xmlns="http://www.w3.org/2000/svg">
  <path d="M3.19 6.34c1.75 0 3.18-1.43 3.18-3.18S4.94 0 3.19 0 .02 1.42.02 3.17 1.44 6.35 3.2 6.35Zm0-4.6a1.43 1.43 0 1 1 0 2.86 1.43 1.43 0 0 1 0-2.86m17.62 15.9c-1.75 0-3.18 1.43-3.18 3.18S19.05 24 20.81 24s3.18-1.43 3.18-3.18-1.42-3.18-3.18-3.18m0 4.6a1.43 1.43 0 1 1 0-2.86 1.43 1.43 0 0 1 0 2.86m-2.28-7.18v-2.33h.35c2.83 0 5.12-2.3 5.12-5.13s-2.3-5.13-5.12-5.13h-3.82v1.75h3.82c1.86 0 3.37 1.51 3.37 3.38s-1.51 3.38-3.37 3.38h-.35v-2.6c0-.76-.62-1.38-1.37-1.38H7.42c-.76 0-1.37.62-1.37 1.38v2.6h-.92C2.3 10.99 0 13.29 0 16.11v.55c0 2.83 2.3 5.13 5.13 5.13h3.83v-1.75H5.13c-1.86 0-3.37-1.51-3.37-3.38v-.55a3.38 3.38 0 0 1 3.37-3.38h.92v2.33c0 .76.62 1.38 1.37 1.38h9.74c.76 0 1.37-.62 1.37-1.38m-1.75-.37H7.79V8.77h8.99zm-5.5-1.95H9.53v-1.75h1.75zm2.9 7.3h1.75v1.75h-1.75zm-3.48 0h1.75v1.75H10.7zm-.86-15.8H8.09V2.49h1.75zm3.48 0h-1.75V2.49h1.75zm1.49 8.5h-1.75v-1.75h1.75z"/>
</svg>
