<svg viewBox="0 0 64 64" xmlns="http://www.w3.org/2000/svg">
  <path d="M7.75 15.43c4.25 0 7.71-3.46 7.71-7.71S12 0 7.75 0 .04 3.46.04 7.71s3.46 7.71 7.71 7.71Zm0-12.68c2.73 0 4.96 2.23 4.96 4.96s-2.22 4.96-4.96 4.96-4.96-2.23-4.96-4.96 2.23-4.96 4.96-4.96m48.48 45.83c-4.25 0-7.71 3.46-7.71 7.71S51.98 64 56.23 64s7.71-3.46 7.71-7.71-3.46-7.71-7.71-7.71m0 12.67c-2.73 0-4.96-2.23-4.96-4.96s2.22-4.96 4.96-4.96 4.96 2.23 4.96 4.96-2.22 4.96-4.96 4.96m-7.29-28.23h1.99c7.21 0 13.07-5.87 13.07-13.08S58.14 6.86 50.93 6.86h-16.2v2.75h16.2c5.69 0 10.32 4.63 10.32 10.33s-4.63 10.33-10.32 10.33h-1.99v-9.06c0-1.04-.84-1.88-1.88-1.88H18.5c-1.03 0-1.88.84-1.88 1.88v9.06h-3.55C5.87 30.26 0 36.13 0 43.34v1.52c0 7.21 5.87 13.08 13.08 13.08h16.18v-2.75H13.08c-5.69 0-10.32-4.63-10.32-10.33v-1.52c0-5.69 4.63-10.33 10.32-10.33h3.55v8.31c0 1.04.84 1.88 1.88 1.88h28.56c1.03 0 1.88-.84 1.88-1.88v-8.31Zm-2.75 7.43h-26.8V22.08h26.8zm-3.88-7.42h-2.75v-2.75h2.75zm-4.8 22.15h2.75v2.75h-2.75zm-5.51 0h2.75v2.75H32zm11.02 0h2.75v2.75h-2.75zM20.97 9.64h-2.75V6.89h2.75zm5.51 0h-2.75V6.89h2.75zm5.51 0h-2.75V6.89h2.75zM25.8 33.03h-2.75v-2.75h2.75zm5.5 0h-2.75v-2.75h2.75zm5.51 0h-2.75v-2.75h2.75z"/>
</svg>
