<svg viewBox="0 0 32 32" xmlns="http://www.w3.org/2000/svg">
  <path fill="#1e1e1c" d="M16 20.39c3.21 0 5.82-2.61 5.82-5.82V5.81C21.83 2.6 19.21 0 16 0s-5.82 2.61-5.82 5.82v8.76c0 3.21 2.61 5.82 5.82 5.82ZM12.18 5.81a3.82 3.82 0 1 1 7.64 0v3.38h-7.64zm7.65 5.38v3.38a3.82 3.82 0 1 1-7.64 0v-3.38zm7.8-1.47v4.25c0 6.08-4.69 11.07-10.63 11.58v4.43h6.38v2H8.62v-2H15v-4.43c-5.95-.51-10.63-5.51-10.63-11.58V9.72c0-.55.45-1 1-1s1 .45 1 1v4.25c0 5.31 4.32 9.63 9.63 9.63s9.63-4.32 9.63-9.63V9.72c0-.55.45-1 1-1s1 .45 1 1"/>
</svg>
