<svg viewBox="0 0 48 48" xmlns="http://www.w3.org/2000/svg">
  <path fill="#1e1e1c" d="M24.01 30.11c4.68 0 8.48-3.81 8.48-8.48V8.49c0-4.68-3.81-8.49-8.48-8.49s-8.48 3.81-8.48 8.48v13.14c0 4.68 3.8 8.48 8.48 8.48ZM18.03 8.49c0-3.3 2.68-5.98 5.98-5.98s5.98 2.68 5.98 5.98v5.32H18.03zm0 7.82h11.96v5.32c0 3.3-2.68 5.98-5.98 5.98s-5.98-2.68-5.98-5.98zm23.17-1.56v6.38c0 9.06-7.05 16.49-15.95 17.14v7.24h9.57v2.5H13.18v-2.5h9.57v-7.24c-8.9-.64-15.95-8.08-15.95-17.14v-6.38a1.25 1.25 0 0 1 2.5 0v6.38c0 8.11 6.59 14.7 14.7 14.7s14.7-6.6 14.7-14.7v-6.38a1.25 1.25 0 0 1 2.5 0"/>
</svg>
