<svg viewBox="0 0 48 48" xmlns="http://www.w3.org/2000/svg">
  <path fill="#1e1e1c" d="M25.25 45.51h9.57v2.5H13.18v-2.5h9.57v-7.24c-8.9-.64-15.95-8.08-15.95-17.14v-6.38a1.25 1.25 0 0 1 2.5 0v6.38c0 8.11 6.59 14.7 14.7 14.7 2.4 0 4.66-.59 6.67-1.62l1.84 1.84a17.2 17.2 0 0 1-7.26 2.23zm-9.72-26.44v2.56c0 4.68 3.8 8.48 8.48 8.48.78 0 1.53-.11 2.25-.31l-2.19-2.19h-.06c-3.3 0-5.98-2.68-5.98-5.98v-.06zm1.81-5.26L15.53 12V8.49c0-4.68 3.8-8.49 8.48-8.49s8.48 3.81 8.48 8.48v13.14c0 2.05-.73 3.93-1.94 5.39l-1.78-1.78c.76-1 1.22-2.25 1.22-3.61V16.3H19.84l-2.5-2.5Zm.69 0h11.96V8.49c0-3.3-2.68-5.98-5.98-5.98s-5.98 2.68-5.98 5.98zm23.17 7.32v-6.38a1.25 1.25 0 0 0-2.5 0v6.38c0 3.89-1.53 7.41-4 10.05l1.77 1.77c2.92-3.08 4.73-7.24 4.73-11.81Zm6.43 24.74L2.13.37C1.65-.12.85-.12.37.37s-.49 1.28 0 1.77l45.5 45.5c.24.24.56.37.88.37s.64-.12.88-.37c.49-.49.49-1.28 0-1.77"/>
</svg>
