<svg viewBox="0 0 64 64" xmlns="http://www.w3.org/2000/svg">
  <path fill="#1e1e1c" d="M31.92 39.9h.17c6.07 0 11.02-4.95 11.02-11.03V11.02C43.11 4.94 38.17 0 32.09 0h-.17c-6.07 0-11.01 4.94-11.01 11.02v17.85c0 6.08 4.94 11.03 11.02 11.03Zm-8.26-28.88c0-4.56 3.71-8.27 8.27-8.27h.17c4.56 0 8.27 3.71 8.27 8.27v7.55h-16.7v-7.55Zm0 10.3h16.7v7.55c0 4.56-3.71 8.27-8.27 8.27h-.17c-4.56 0-8.27-3.71-8.27-8.27v-7.55Zm31.17-1.79v8.59c0 12.14-9.5 22.09-21.45 22.8v10.32h12.87v2.75H17.76v-2.75h12.87V50.92c-11.95-.71-21.45-10.67-21.45-22.8v-8.59c0-.76.62-1.38 1.38-1.38s1.38.62 1.38 1.38v8.59c0 11.08 9.01 20.1 20.08 20.1s20.08-9.01 20.08-20.1v-8.59c0-.76.62-1.38 1.38-1.38s1.38.62 1.38 1.38Z"/>
</svg>
