<svg viewBox="0 0 40 40" xmlns="http://www.w3.org/2000/svg">
  <path fill="#1e1e1c" d="M21.13 37.74h7.98v2.25H10.9v-2.25h7.98v-5.78c-7.42-.58-13.29-6.79-13.29-14.36v-5.32c0-.62.5-1.13 1.13-1.13s1.13.5 1.13 1.13v5.32c0 6.71 5.46 12.17 12.17 12.17 1.92 0 3.72-.46 5.34-1.25l1.67 1.67a14.4 14.4 0 0 1-5.88 1.78v5.77Zm.69-12.73-2.03-2.03a4.89 4.89 0 0 1-4.67-4.67l-2.27-2.27v2.06c0 3.94 3.21 7.15 7.15 7.15.63 0 1.24-.09 1.82-.24M14.68 11.5l-1.83-1.83V7.15c0-3.94 3.21-7.15 7.16-7.15s7.15 3.21 7.15 7.15V18.1c0 1.65-.57 3.16-1.5 4.37l-1.61-1.61c.54-.79.86-1.74.86-2.77v-4.35h-7.97l-2.25-2.25Zm.42 0h9.8V7.15c0-2.7-2.2-4.9-4.9-4.9s-4.9 2.2-4.9 4.9zm19.32 6.1v-5.32c0-.62-.5-1.13-1.13-1.13s-1.13.5-1.13 1.13v5.32c0 3.16-1.22 6.02-3.19 8.19l1.59 1.59c2.38-2.57 3.85-6 3.85-9.78Zm5.25 20.48L1.92.33C1.48-.11.77-.11.33.33s-.44 1.15 0 1.59l37.75 37.75c.22.22.51.33.8.33s.58-.11.8-.33c.44-.44.44-1.15 0-1.59Z"/>
</svg>
