<svg viewBox="0 0 24 24" xmlns="http://www.w3.org/2000/svg">
  <path fill="#1e1e1c" d="M12.88 22.26h4.78V24H6.34v-1.74h4.78v-3.07c-4.47-.44-7.98-4.21-7.98-8.78V7.23c0-.44.33-.78.74-.85l1.01 1v3.02c0 3.9 3.19 7.08 7.1 7.08.9 0 1.76-.17 2.55-.48l1.33 1.32c-.92.45-1.93.74-3 .85v3.08Zm7.97-11.85V7.23c0-.48-.39-.87-.88-.87s-.88.39-.88.87v3.18c0 1.73-.63 3.31-1.66 4.54l1.24 1.23c1.35-1.55 2.18-3.56 2.18-5.77m-7.73 5.17-1.64-1.63a2.64 2.64 0 0 1-2.07-2.06l-1.8-1.8v1.28c0 2.41 1.97 4.37 4.39 4.37.39 0 .76-.07 1.12-.16M9.36 4.37c0-1.45 1.18-2.63 2.64-2.63s2.64 1.18 2.64 2.63V7H9.46l1.75 1.74h3.43v2.63c0 .24-.04.47-.1.68l1.34 1.33a4.3 4.3 0 0 0 .52-2.02v-7c0-2.41-1.97-4.37-4.39-4.37S7.62 1.95 7.62 4.36v.79l1.75 1.74V4.36Zm14.39 18.1L1.5.3A.88.88 0 0 0 .26.3a.87.87 0 0 0 0 1.23L22.51 23.7c.17.17.4.26.62.26s.45-.09.62-.26a.87.87 0 0 0 0-1.23"/>
</svg>
