<svg viewBox="0 0 64 64" xmlns="http://www.w3.org/2000/svg">
  <path fill="#1e1e1c" d="M41.8 34 21.01 13.22v-2.23C21.01 4.93 25.95 0 32.02 0s11.01 4.93 11.01 11v17.99c0 1.81-.45 3.51-1.22 5.02Zm-9.59 5.97-11.2-11.19v.21c0 6.06 4.94 11 11.01 11h.19Zm23.02-11.71v-8.27a2.5 2.5 0 0 0-5 0v8.27c0 3.98-1.31 7.66-3.49 10.66l3.57 3.57c3.08-3.93 4.92-8.87 4.92-14.23M34.51 51.31c2.5-.27 4.88-.96 7.08-1.96l-3.84-3.84c-1.81.6-3.73.94-5.74.94-10.04 0-18.21-8.16-18.21-18.19v-6.69l-3.75-3.74c-.75.43-1.26 1.23-1.26 2.16v8.27c0 11.94 9.09 21.8 20.71 23.05V59H17.07v5h29.86v-5H34.5v-7.69Zm28.71 7.97L4.73.85a2.76 2.76 0 0 0-3.89 0 2.74 2.74 0 0 0 0 3.89l58.49 58.44c.54.54 1.24.81 1.95.81s1.41-.27 1.95-.8a2.74 2.74 0 0 0 0-3.89Z"/>
</svg>
