<svg viewBox="0 0 32 32" xmlns="http://www.w3.org/2000/svg">
  <path d="M16 14.9a5.56 5.56 0 0 0 5.46-4.54h2.49v-1c0-1.45 0-4.25-1.53-5.01C21.95 2.55 20.21 0 16 0s-5.95 2.55-6.43 4.36c-1.53.75-1.53 3.55-1.53 5.01v1h2.49a5.56 5.56 0 0 0 5.46 4.54Zm-2.05-5.66c.06 0 .12-.02.18-.02h3.62q.15 0 .3.03v.09c0 1.14-.93 2.06-2.06 2.06s-2.06-.92-2.06-2.06v-.1Zm8.83 6.95h-2.67l-.21.1c-2.63 1.3-5.07 1.3-7.46.02l-.22-.12h-3c-3.21 0-5.83 2.51-6.02 5.67.07-.01.13-.04.2-.04h1.72c.55 0 1 .45 1 1s-.45 1-1 1H3.4c-.08 0-.15-.03-.22-.04v8.23h5.33v-5.54h2v5.54H15v-1.98h2v1.98h4.52v-5.54h2v5.54h5.3v-9.78c0-3.33-2.71-6.04-6.04-6.04M17 27.92h-2v-2h2zm0-4.1h-2v-2h2zm6.99 0h-4.47v-2h4.47z"/>
</svg>
