<svg viewBox="0 0 40 40" xmlns="http://www.w3.org/2000/svg">
  <path d="M20 18.51c3.45 0 6.3-2.51 6.85-5.8h2.97v-1.13c0-1.8 0-5.29-1.89-6.17C27.37 3.19 25.24 0 20 0s-7.37 3.19-7.93 5.42c-1.89.88-1.89 4.37-1.89 6.17v1.13h2.97c.55 3.29 3.4 5.8 6.85 5.8Zm-2.93-7.16c.19-.04.39-.06.59-.06h4.53c.25 0 .5.04.75.1 0 .06.02.11.02.16a2.949 2.949 0 1 1-5.9 0c0-.07.02-.14.02-.21Zm11.41 9.01h-3.3l-.24.12c-3.32 1.64-6.42 1.64-9.45.02l-.25-.13h-3.72c-3.96 0-7.2 3.12-7.4 7.04h2.39c.62 0 1.13.5 1.13 1.13s-.5 1.13-1.13 1.13H4.1v10.36h6.1V33.1h2.25v6.93h6.42v-2.25h2.25v2.25h6.47V33.1h2.25v6.93h6.06V27.81c0-4.09-3.33-7.42-7.42-7.42Zm-7.35 14.47h-2.25v-2.25h2.25zm.03-5.19h-2.25v-2.25h2.25zm9.4 0h-5.59v-2.25h5.59z"/>
</svg>
