<svg viewBox="0 0 64 64" xmlns="http://www.w3.org/2000/svg">
  <path d="M45.63 31.45h-5.21l-.29.14c-5.48 2.7-10.58 2.7-15.59.02l-.3-.16h-5.88c-6.34 0-11.5 5.16-11.5 11.5v21.07h2.75V51.64h.32c3.04 0 5.51-2.47 5.51-5.51s-2.47-5.51-5.5-5.51c1.03-3.69 4.41-6.41 8.42-6.41h5.19c5.59 2.88 11.47 2.88 17.5 0h4.57c4.82 0 8.75 3.92 8.75 8.75v21.07h2.75V42.96c0-6.34-5.16-11.5-11.5-11.5ZM12.7 46.12c0 1.52-1.24 2.76-2.76 2.76h-.32v-5.52h.32c1.52 0 2.76 1.24 2.76 2.76m19.29-16.78c5.69 0 10.38-4.25 11.08-9.75h4.27v-1.38c0-2.85 0-8.48-3.01-9.61C43.69 6.11 41.18.02 31.99.02s-11.7 6.09-12.34 8.59c-3.01 1.13-3.01 6.75-3.01 9.61v1.38h4.27c.7 5.5 5.39 9.75 11.08 9.75Zm0-2.75c-4.2 0-7.67-3.08-8.31-7.1l1.03-.89a5.4 5.4 0 0 1 3.52-1.3h7.28c1.23 0 2.44.43 3.4 1.21l1.33 1.08h.04c-.68 3.97-4.14 7-8.3 7ZM20.81 11.15h1.24l.13-1.24c.03-.29.86-7.15 9.81-7.15s9.78 6.85 9.81 7.14l.12 1.25h1.25c.39 0 1.27.59 1.4 5.68h-3.35l-.58-.47a8.2 8.2 0 0 0-5.14-1.82h-7.28c-1.95 0-3.83.7-5.31 1.96l-.38.32H19.4c.13-5.1 1.01-5.68 1.4-5.68ZM19.09 52.2h2.75v11.81h-2.75zm11.53 9.05h2.75v2.76h-2.75zm0-6.41h2.75v2.76h-2.75zm0-6.42h2.75v2.76h-2.75zm.06-6.41h2.75v2.76h-2.75zM42.22 52.2h2.75v11.81h-2.75zm-3.5-10.19h8.03v2.75h-8.03z"/>
</svg>
