<svg viewBox="0 0 48 48" xmlns="http://www.w3.org/2000/svg">
  <path d="M23.99 22.12c4.17 0 7.62-3.06 8.24-7.06h3.45v-1.25c0-2.15 0-6.33-2.25-7.33C32.78 3.83 30.25 0 23.99 0s-8.78 3.83-9.43 6.48c-2.25 1-2.25 5.18-2.25 7.33v1.25h3.45c.62 4 4.07 7.06 8.24 7.06Zm-3.81-8.62c.33-.09.66-.15 1.01-.15h5.44c.41 0 .81.07 1.19.2 0 .07.02.15.02.22a3.841 3.841 0 0 1-7.68 0c0-.09.02-.18.03-.27Zm14 10.53h-3.94l-.26.13c-4.02 1.98-7.76 1.99-11.43.02l-.28-.15h-4.44c-4.73 0-8.6 3.76-8.79 8.45h1.98a1.25 1.25 0 0 1 0 2.5h-2v13.03h9.13v-8.82h2.5v8.82h6.11v-2.5h2.5v2.5h6.16v-8.82h2.5v8.82h9.07V32.84c0-4.86-3.95-8.81-8.81-8.81m-8.93 17.46h-2.5v-2.5h2.5zm.05-6.52h-2.5v-2.5h2.5zm9.71 0h-5.99v-2.5h5.99z"/>
</svg>
