<svg viewBox="0 0 32 32" xmlns="http://www.w3.org/2000/svg">
  <path d="M26.33 22.81V3c0-1.66-1.35-3-3-3H8.67c-1.65 0-3 1.34-3 3v19.82h20.66ZM10.71 9.9c0-.96.78-1.75 1.74-1.75h3.43l3.84-1.73c.42-.13.88-.07 1.23.19s.57.67.57 1.11v2c.45.21.77.66.77 1.19s-.32.98-.77 1.19v2.12c0 .45-.22.87-.59 1.13a1.36 1.36 0 0 1-1.26.15l-.11-.05-2.48-1.29c-.09.21-.24.37-.41.5l.29 1.68c.07.4-.04.8-.3 1.11s-.64.49-1.05.49h-1.58c-.67 0-1.23-.48-1.35-1.13l-.54-3.12c-.81-.15-1.43-.86-1.43-1.71V9.91Zm6.37-.09 2.44-1.1v4.47l-2.44-1.27V9.82Zm-2 1.91h-.88v-1.56h.88zm-9.41 13.1V29c0 1.66 1.35 3 3 3h14.66c1.65 0 3-1.35 3-3v-4.18zM17 28.48h-2v-2h2z"/>
</svg>
