<svg viewBox="0 0 48 48" xmlns="http://www.w3.org/2000/svg">
  <path d="m25.12 15.08 4.16-1.88v7.5l-4.16-2.17zm-2.5.43h-1.83v2.84h1.83zm-.95 5.35h-.95l.67 3.82h.95l-.5-2.86zm17.74 17.38v6.01c0 2.07-1.68 3.75-3.75 3.75H12.34c-2.07 0-3.75-1.68-3.75-3.75v-6.01zm-14.16 2.65h-2.5v2.71h2.5zM8.59 35.74V3.76A3.76 3.76 0 0 1 12.34 0h23.32c2.07 0 3.75 1.68 3.75 3.75v31.99zm7.47-16.88c0 1.1.89 1.99 1.99 1.99h.13l.85 4.84c.15.86.9 1.49 1.77 1.49h2.37a1.792 1.792 0 0 0 1.77-2.11l-.46-2.64c.37-.23.64-.59.74-1.03l3.98 2.07.13.06a1.77 1.77 0 0 0 1.66-.2c.49-.34.78-.89.78-1.48v-3.34c.67-.24 1.15-.87 1.15-1.62s-.48-1.38-1.15-1.62v-3.16c0-.58-.28-1.12-.74-1.46-.47-.34-1.07-.43-1.62-.25l-5.79 2.61h-5.57c-1.1 0-1.99.89-1.99 1.99v3.85Z"/>
</svg>
