<svg viewBox="0 0 48 48" xmlns="http://www.w3.org/2000/svg">
  <path fill="#1e1e1c" d="M36.96 24.29h2.46v10.96H8.6V3.76C8.6 1.7 10.29.01 12.35.01h23.32c2.07 0 3.75 1.68 3.75 3.75v1.37H29.23c-2.28 0-4.14 1.86-4.14 4.14v10.88c0 1.9 1.29 3.51 3.04 3.99v5.69zM8.6 37.75h30.82v6.51c0 2.07-1.68 3.75-3.75 3.75H12.35c-2.07 0-3.75-1.68-3.75-3.75zm14.16 5.36h2.5V40.4h-2.5zM46.38 7.63H29.24c-.91 0-1.64.73-1.64 1.64v10.88c0 .91.73 1.64 1.64 1.64h1.4v3.52l5.61-3.52h10.14c.91 0 1.64-.73 1.64-1.64V9.27c0-.91-.73-1.64-1.64-1.64Z"/>
</svg>
