<svg viewBox="0 0 40 40" xmlns="http://www.w3.org/2000/svg">
  <path d="M29.49 0H10.51C8.65 0 7.13 1.51 7.13 3.38v33.25c0 1.86 1.51 3.38 3.38 3.38h18.98c1.86 0 3.38-1.51 3.38-3.38V3.38c0-1.87-1.52-3.38-3.38-3.38M10.51 2.25h18.98c.62 0 1.12.51 1.12 1.13v25.86H9.38V3.38c0-.62.5-1.13 1.12-1.13Zm18.98 35.5H10.51c-.62 0-1.12-.51-1.12-1.13v-5.14h21.23v5.14c0 .62-.5 1.13-1.12 1.13Zm-10.61-4.16h2.25v2.25h-2.25zm-3.71-16.58.69 3.97c.13.76.79 1.32 1.56 1.32h1.98c.47 0 .91-.21 1.21-.57s.43-.83.35-1.29l-.37-2.15c.27-.18.47-.46.58-.78l3.23 1.68.12.05c.18.07.37.1.56.1.32 0 .63-.1.9-.28.43-.3.68-.78.68-1.31v-2.73c.56-.22.96-.77.96-1.41s-.4-1.19-.96-1.41V9.63c0-.51-.25-.99-.66-1.28-.41-.3-.94-.38-1.42-.22l-4.82 2.17h-4.5c-1.03 0-1.87.84-1.87 1.87v2.97c0 1 .79 1.81 1.78 1.86Zm2.81 3.03-.53-3.02h.62l.14.77.39 2.25h-.63Zm6.42-3.38-3.3-1.72v-2.77l3.3-1.49zm-6.9-4.1h1.35v2.2H17.5z"/>
</svg>
