<svg viewBox="0 0 64 64" xmlns="http://www.w3.org/2000/svg">
  <path d="M48.31 0H15.69c-2.28 0-4.13 1.85-4.13 4.13v55.75c0 2.27 1.85 4.12 4.12 4.12H48.3c2.27 0 4.12-1.85 4.12-4.12V4.13C52.44 1.85 50.59 0 48.31 0M15.69 2.75h32.62c.76 0 1.37.62 1.37 1.37v45.81H14.31V4.13c0-.76.62-1.37 1.37-1.37Zm32.62 58.5H15.69c-.76 0-1.37-.62-1.37-1.37v-7.19h35.37v7.19c0 .76-.62 1.37-1.37 1.37Zm-17.68-5.74h2.75v2.75h-2.75zm-.74-33.64h4.22v15.38h-4.22zm-.38-5.51c0-1.34 1.12-2.46 2.5-2.46s2.5 1.12 2.5 2.46-1.12 2.46-2.5 2.46-2.5-1.12-2.5-2.46"/>
</svg>
