<svg viewBox="0 0 48 48" xmlns="http://www.w3.org/2000/svg">
  <path fill="#1e1e1c" d="M14.17 40.4h2.5v2.71h-2.5zm14.16-20.97h2.5v24.83c0 2.07-1.68 3.75-3.75 3.75H3.75C1.68 48.01 0 46.33 0 44.26V3.76C0 1.69 1.68.01 3.75.01h23.33c2.07 0 3.75 1.68 3.75 3.75v10.67h-2.5V3.76c0-.69-.56-1.25-1.25-1.25H3.75c-.69 0-1.25.56-1.25 1.25v31.49h25.83zm0 24.83v-6.51H2.5v6.51c0 .69.56 1.25 1.25 1.25h23.33c.69 0 1.25-.56 1.25-1.25M38.39 7.32c-.49-.49-1.28-.49-1.77 0s-.49 1.28 0 1.77l6.59 6.59H14.22v2.5h28.99l-6.59 6.59a1.25 1.25 0 0 0 0 1.77c.24.24.56.37.88.37s.64-.12.88-.37l9.61-9.61-9.61-9.61Z"/>
</svg>
