<svg viewBox="0 0 40 40" xmlns="http://www.w3.org/2000/svg">
  <path fill="#1e1e1c" d="M31.32 20.05h1.58v9.11H7.17V3.3c0-1.86 1.51-3.38 3.38-3.38h18.98c1.86 0 3.38 1.51 3.38 3.38v1.02h-7.78a3.55 3.55 0 0 0-3.55 3.55v8.62c0 1.56 1.01 2.89 2.41 3.36v4.8l7.34-4.61ZM7.17 31.41H32.9v5.14c0 1.86-1.51 3.38-3.38 3.38H10.55c-1.86 0-3.38-1.51-3.38-3.38zm11.74 4.36h2.25v-2.25h-2.25zm19.8-29.2H25.12c-.72 0-1.3.58-1.3 1.3v8.62c0 .72.58 1.3 1.3 1.3h1.11v2.79l4.44-2.79h8.03c.72 0 1.3-.58 1.3-1.3V7.87c0-.72-.58-1.3-1.3-1.3Z"/>
</svg>
