<svg viewBox="0 0 40 40" xmlns="http://www.w3.org/2000/svg">
  <path d="M29.5 0h-19C8.64 0 7.13 1.51 7.13 3.38v33.25c0 1.86 1.51 3.38 3.38 3.38H29.5c1.86 0 3.38-1.51 3.38-3.38V3.38A3.39 3.39 0 0 0 29.5 0m-19 2.25h18.99c.62 0 1.13.51 1.13 1.13v25.86H9.38V3.38c0-.62.51-1.13 1.13-1.13Zm19 35.5h-19c-.62 0-1.13-.51-1.13-1.13v-5.14h21.24v5.14c0 .62-.51 1.13-1.13 1.13Zm-10.63-4.16h2.25v2.25h-2.25zm-.19-20.12h2.64v9.5h-2.64zm-.24-3.57c0-.84.7-1.54 1.56-1.54s1.56.7 1.56 1.54-.7 1.54-1.56 1.54-1.56-.7-1.56-1.54"/>
</svg>
