<svg viewBox="0 0 24 24" xmlns="http://www.w3.org/2000/svg">
  <path fill="#1e1e1c" d="M6.96 19.24h1.75v1.75H6.96zm6.95-9.1h1.75v11.21c0 1.44-1.18 2.62-2.63 2.62H2.63C1.18 23.97 0 22.79 0 21.35V2.59C0 1.14 1.18-.03 2.63-.03h10.4c1.45 0 2.63 1.17 2.63 2.62v4.07h-1.75V2.59c0-.48-.39-.87-.88-.87H2.63a.88.88 0 0 0-.88.87v13.6H13.9v-6.04Zm0 11.21v-3.42H1.76v3.42c0 .48.39.87.88.87h10.4c.48 0 .88-.39.88-.87Zm5.03-18a.88.88 0 0 0-1.24 0c-.34.34-.34.89 0 1.24l2.95 2.93H6.72v1.75h13.93l-2.95 2.94a.87.87 0 0 0 0 1.23.87.87 0 0 0 1.24 0L24 8.4l-5.06-5.04Z"/>
</svg>
