<svg viewBox="0 0 64 64" xmlns="http://www.w3.org/2000/svg">
  <path d="M25.51 25.54h-.98v-4.62h.98zm8.26.07 6.38 3.32V17.6l-6.38 2.88v5.12Zm-3.83 2.44h-2.11l1.04 5.93h2.12l-.77-4.39-.28-1.55Zm1.33-7.13H28v4.62h3.27zm21.17 31.77v7.19c0 2.27-1.85 4.12-4.12 4.12H15.69c-2.27 0-4.12-1.85-4.12-4.12v-7.19h40.88Zm-19.06 2.82h-2.75v2.75h2.75zm-21.82-5.57V4.13c0-2.28 1.85-4.13 4.13-4.13h32.62c2.27 0 4.12 1.85 4.12 4.12v45.81H11.56Zm10.47-23.89c0 1.1.89 1.99 1.99 1.99h1.27l1.19 6.8c.17.95.99 1.64 1.96 1.64h3.16c.59 0 1.14-.26 1.52-.71s.54-1.04.44-1.62l-.67-3.82c.65-.28 1.1-.92 1.1-1.67v-.13l5.84 3.04.13.06c.23.09.47.13.7.13.4 0 .79-.12 1.13-.35.54-.37.86-.98.86-1.63v-4.77c.87-.16 1.54-.93 1.54-1.85s-.66-1.68-1.54-1.84V16.8c0-.63-.31-1.24-.82-1.61s-1.18-.48-1.79-.28l-7.76 3.5h-8.27c-1.1 0-1.99.89-1.99 1.99v5.63Z"/>
</svg>
