<svg viewBox="0 0 64 64" xmlns="http://www.w3.org/2000/svg">
  <path d="M48.31 0H15.69c-2.28 0-4.13 1.85-4.13 4.13v55.75c0 2.27 1.85 4.12 4.12 4.12H48.3c2.27 0 4.12-1.85 4.12-4.12V4.13C52.44 1.85 50.59 0 48.31 0M15.69 2.75h32.62c.76 0 1.38.62 1.38 1.37v45.81H14.31V4.13c0-.76.62-1.37 1.38-1.37Zm32.62 58.5H15.69c-.76 0-1.38-.62-1.38-1.37v-7.19h35.38v7.19c0 .76-.62 1.37-1.38 1.37m-17.69-5.74h2.75v2.75h-2.75zm-6.1-27.47h.77l1.19 6.8c.17.95.99 1.64 1.96 1.64h3.16c.59 0 1.14-.26 1.52-.71s.54-1.04.44-1.62l-.67-3.82c.65-.28 1.1-.92 1.1-1.67v-.13l5.84 3.04.13.06c.23.09.47.13.7.13.4 0 .79-.12 1.13-.35.54-.37.86-.98.86-1.63v-4.77c.87-.16 1.54-.93 1.54-1.85s-.66-1.68-1.54-1.84V16.8c0-.63-.31-1.24-.82-1.61a2 2 0 0 0-1.79-.28l-7.76 3.5h-7.77c-1.1 0-1.99.89-1.99 1.99v5.63c0 1.1.89 1.99 1.99 1.99Zm4.35 5.95-1.04-5.93h2.11l.28 1.55.77 4.39h-2.12Zm11.29-16.38v11.33l-6.38-3.32V20.5l6.38-2.88Zm-12.15 3.31h3.27v4.62h-3.27zm-2.98 0h.48v4.62h-.48z"/>
</svg>
