<svg viewBox="0 0 16 16" xmlns="http://www.w3.org/2000/svg">
  <path d="M11.5 0h-7c-.96 0-1.75.79-1.75 1.75v12.49c0 .97.79 1.75 1.75 1.75h7c.96 0 1.75-.79 1.75-1.75V1.75C13.25.78 12.46 0 11.5 0m-7 1.5h7c.14 0 .25.11.25.25v8.17h-7.5V1.75c0-.14.11-.25.25-.25m7 13h-7c-.14 0-.25-.11-.25-.25v-2.82h7.5v2.82c0 .14-.11.25-.25.25m-3.98-2.25h1.5v1.5h-1.5zM5.71 6.49l.26 1.49c.08.45.47.77.92.77h.67c.28 0 .54-.12.71-.33s.25-.49.21-.76l-.12-.7s0-.02.01-.02l1.04.55.09.04q.165.06.33.06c.19 0 .38-.06.54-.17.25-.17.4-.46.4-.77v-.94c.23-.17.38-.42.38-.72s-.16-.56-.38-.72V3.4c0-.3-.14-.58-.39-.76-.24-.18-.56-.22-.92-.1l-1.82.83H6.35c-.82 0-1.49.67-1.49 1.5v.29c0 .6.35 1.11.86 1.35Zm3.55-.79-.72-.38v-.74l.72-.33v1.44Z"/>
</svg>
