<svg viewBox="0 0 24 24" xmlns="http://www.w3.org/2000/svg">
  <path fill="#1e1e1c" d="M18.92 12.44h.92v3.73H4.2V2.57c0-1.44 1.18-2.62 2.63-2.62h10.39c1.33 0 2.43 1 2.59 2.28h-4.72c-1.4 0-2.53 1.13-2.53 2.52v5.16c0 1 .59 1.87 1.44 2.28v3.32l4.92-3.08ZM4.2 17.91h15.64v3.42c0 1.44-1.18 2.62-2.62 2.62H6.83c-1.45 0-2.62-1.17-2.62-2.62v-3.42Zm6.94 3.06h1.75v-1.75h-1.75zM23.23 3.98h-8.15c-.43 0-.78.35-.78.78v5.16c0 .43.35.78.78.78h.66v1.67l2.67-1.67h4.82c.43 0 .78-.35.78-.78V4.76c0-.43-.35-.78-.78-.78"/>
</svg>
