<svg viewBox="0 0 32 32" xmlns="http://www.w3.org/2000/svg">
  <path d="M23.33 0H8.67c-1.65 0-3 1.34-3 3v26c0 1.66 1.35 3 3 3h14.66c1.65 0 3-1.35 3-3V3c0-1.66-1.35-3-3-3M8.67 2h14.66c.55 0 1 .45 1 1v19.32H7.67V3c0-.55.45-1 1-1m14.66 28H8.67c-.55 0-1-.45-1-1v-4.68h16.66V29c0 .55-.45 1-1 1M15 25.98h2v2h-2zm-2.86-12.79.54 3.12c.12.66.68 1.13 1.35 1.13h1.58c.41 0 .79-.18 1.05-.49s.37-.72.3-1.11l-.29-1.68c.18-.13.33-.3.41-.5l2.48 1.29.11.05a1.36 1.36 0 0 0 1.26-.15c.37-.26.59-.68.59-1.13V11.6c.45-.21.77-.66.77-1.19s-.32-.98-.77-1.19v-2c0-.44-.21-.85-.57-1.11-.35-.26-.81-.33-1.23-.19l-3.84 1.73h-3.43c-.96 0-1.74.78-1.74 1.75v2.07c0 .86.62 1.57 1.43 1.71Zm2.43 2.26-.39-2.22h.3l.07.39.32 1.83zm4.95-2.77-2.44-1.27V9.32l2.44-1.1v4.47ZM14.2 9.66h.88v1.56h-.88z"/>
</svg>
