<svg viewBox="0 0 64 64" xmlns="http://www.w3.org/2000/svg">
  <path fill="#1e1e1c" d="M49.06 31.78h3.4v18.14H11.59V4.11c0-2.27 1.85-4.13 4.13-4.13h32.62c2.27 0 4.12 1.85 4.12 4.12v3.3H38.92c-2.72 0-4.94 2.21-4.94 4.94v14.5a4.95 4.95 0 0 0 4.05 4.86v7l11.02-6.92ZM11.59 52.67h40.87v7.19c0 2.27-1.85 4.12-4.12 4.12H15.72c-2.27 0-4.12-1.85-4.12-4.12v-7.19Zm19.06 5.58h2.75V55.5h-2.75zm31.14-48.09H38.93c-1.21 0-2.19.98-2.19 2.19v14.5c0 1.21.98 2.19 2.19 2.19h1.86v4.69l7.48-4.69h13.52c1.21 0 2.19-.98 2.19-2.19v-14.5c0-1.21-.98-2.19-2.19-2.19"/>
</svg>
