<svg viewBox="0 0 40 40" xmlns="http://www.w3.org/2000/svg">
  <path d="M18.85 14.2H17.5V12h1.35zm14.02 16.73v5.64c0 1.86-1.51 3.38-3.38 3.38H10.51c-1.86 0-3.38-1.51-3.38-3.38v-5.64h25.73Zm-11.75 2.61h-2.25v2.25h2.25zm-.02-19.16 3.3 1.72v-5.98l-3.3 1.49zm-3.02 2.08h-.62l.53 3.02h.63l-.39-2.25-.14-.77ZM7.13 28.68V3.32c0-1.86 1.52-3.38 3.38-3.38h18.98c1.86 0 3.38 1.51 3.38 3.38v25.36zm6.26-14.1c0 1 .79 1.81 1.78 1.86l.69 3.97c.13.76.79 1.32 1.56 1.32h1.98c.47 0 .91-.21 1.21-.57s.43-.83.35-1.29l-.37-2.15c.27-.18.47-.46.58-.78l3.23 1.68.12.05c.18.07.37.1.56.1.32 0 .63-.1.9-.28.43-.3.68-.78.68-1.31v-2.73c.56-.22.96-.77.96-1.41s-.4-1.19-.96-1.41V9.06c0-.51-.25-.99-.66-1.28-.41-.3-.94-.38-1.42-.22l-4.82 2.17h-4.5c-1.03 0-1.87.84-1.87 1.87v2.97Z"/>
</svg>
