<svg viewBox="0 0 48 48" xmlns="http://www.w3.org/2000/svg">
  <path fill="#1e1e1c" d="M22.78 40.4h2.5v2.71h-2.5zm25.2-31.13v10.88c0 1.59-1.3 2.89-2.89 2.89h-5.65v21.23c0 2.07-1.68 3.75-3.75 3.75H12.37c-2.07 0-3.75-1.68-3.75-3.75V3.76c0-2.07 1.68-3.75 3.75-3.75h23.32c2.07 0 3.75 1.68 3.75 3.75v2.62h5.65c1.59 0 2.89 1.3 2.89 2.89M36.94 44.26v-6.51H11.12v6.51c0 .69.56 1.25 1.25 1.25h23.32c.69 0 1.25-.56 1.25-1.25m0-21.22h-1.63l-7.22 4.53v-4.53h-.15c-1.59 0-2.89-1.3-2.89-2.89V9.27c0-1.59 1.3-2.89 2.89-2.89h9V3.76c0-.69-.56-1.25-1.25-1.25H12.37c-.69 0-1.25.56-1.25 1.25v31.49h25.82zm8.54-13.77c0-.22-.17-.39-.39-.39H27.95c-.22 0-.39.17-.39.39v10.88c0 .22.17.39.39.39h2.65v2.51l4-2.51h10.5c.22 0 .39-.17.39-.39V9.27Z"/>
</svg>
