<svg viewBox="0 0 40 40" xmlns="http://www.w3.org/2000/svg">
  <path d="M28.97 11.26c-.49 0-.98.03-1.45.07V0h6.3v11.97a16.7 16.7 0 0 0-4.85-.71M18.62 15.4c.26-.31.54-.61.85-.89-.35.25-.74.45-1.16.58zm-1.69-9.24c2.5 0 4.53 2.06 4.53 4.59 0 1.26-.51 2.4-1.33 3.22 1.39-1.06 3.14-1.87 5.14-2.32V0H8.66v5.45l3.96 3.96c.57-1.87 2.28-3.24 4.31-3.24ZM6.42 0h-3.2l3.2 3.2zM.04 3.17v18.31h6.38V9.55L3.38 6.51zm19.37 13.02 2.85 2.85c.84-1.39 3.44-2.66 6.72-2.66 4.01 0 7.01 1.9 7.01 3.59s-3 3.59-7.01 3.59c-.87 0-1.69-.09-2.44-.25l4.15 4.15c1.98-.21 3.78-.76 5.25-1.58.01.08.04.15.04.23 0 1.16-1.4 2.41-3.56 3.09l3.06 3.06c.15-.07.3-.15.44-.23.02.11.05.22.05.33 0 .12-.02.23-.04.35l2.96 2.96c.63-.92 1.01-1.95 1.07-3.05h.03V19.97c0-4.26-4.83-7.59-11-7.59-4.15 0-7.69 1.52-9.57 3.8Zm9.57 19.77c-4.01 0-7-1.9-7-3.59 0-.11.03-.22.05-.33 1.88 1.05 4.29 1.67 6.95 1.67.52 0 1.02-.03 1.52-.08l-4.23-4.23c-2.57-.6-4.29-2-4.29-3.29 0-.08.03-.15.04-.23.44.24.91.46 1.4.66l-5.43-5.43-5.27-5.27-4.05-4.05v9.68h9.32v4.32h.02c0 .11-.02.21-.02.32 0 .05 0 .1.01.15v5.78h.02c0 .11-.02.21-.02.32 0 4.26 4.83 7.59 11 7.59 2.43 0 4.64-.52 6.43-1.41l-3.07-3.07c-.99.3-2.12.48-3.36.48ZM1.66.02.07 1.62 38.45 40l1.59-1.59z"/>
</svg>
