<svg viewBox="0 0 40 40" xmlns="http://www.w3.org/2000/svg">
  <path d="M.02 16.24V-.05h6.39v11.91c-2.84.82-5.11 2.38-6.39 4.38m33.84 1.55V-.05h-6.31v17.33c.7-.12 1.42-.2 2.16-.2 1.45 0 2.85.26 4.15.72Zm-21.4-6.5c-.02-.19-.06-.38-.06-.57 0-2.53 2.03-4.59 4.54-4.59s4.54 2.06 4.54 4.59c0 1.32-.56 2.5-1.44 3.34 1.62 1.28 2.72 2.93 3.03 4.77h.11v.11c.67-.41 1.38-.76 2.12-1.04V-.05H8.66v11.44c.76-.1 1.55-.16 2.36-.16.49 0 .96.03 1.43.06Zm5.25 22.06c.43 1.37 1.09 2.64 1.93 3.76-2 1.73-5.08 2.83-8.61 2.83C4.86 39.95.02 36.61.02 32.35v-12.4c0-4.26 4.84-7.6 11.01-7.6s10.83 3.22 11 7.37a12.6 12.6 0 0 0-4.35 6.32c-1.84.95-4.13 1.51-6.65 1.51-2.67 0-5.09-.63-6.98-1.68-.01.08-.04.15-.04.23 0 1.7 3 3.6 7.01 3.6 2.85 0 5.19-.96 6.3-2.12-.11.67-.18 1.36-.18 2.07 0 .92.1 1.81.29 2.67-1.8.87-4 1.39-6.41 1.39-2.66 0-5.07-.62-6.96-1.67-.02.11-.05.22-.05.32 0 1.7 3 3.6 7.01 3.6 3.23 0 5.8-1.23 6.68-2.59ZM4.02 19.95c0 1.7 3 3.6 7.01 3.6s7.01-1.9 7.01-3.6-3-3.6-7.01-3.6-7.01 1.9-7.01 3.6m36 9.68c0 5.68-4.62 10.31-10.31 10.31S19.4 35.31 19.4 29.63s4.62-10.31 10.31-10.31 10.31 4.63 10.31 10.31m-4.59 0c0-.62-.5-1.13-1.13-1.13h-3.47v-3.47c0-.62-.5-1.13-1.13-1.13s-1.13.5-1.13 1.13v3.47H25.1c-.62 0-1.13.5-1.13 1.13s.5 1.13 1.13 1.13h3.47v3.47c0 .62.5 1.13 1.13 1.13s1.13-.5 1.13-1.13v-3.47h3.47c.62 0 1.13-.5 1.13-1.13"/>
</svg>
