<svg viewBox="0 0 16 16" xmlns="http://www.w3.org/2000/svg">
  <path d="M4.36 8.82v.67h-.89V0h-1.5v9.49H-.01v-9.5h14.42v5.22c-.64-.38-1.38-.65-2.2-.81V0h-1.5v4.23c-.05 0-.11-.01-.16-.01-.58 0-1.14.06-1.67.17-.17-.78-.86-1.36-1.68-1.36-.95 0-1.72.78-1.72 1.73 0 .4.14.76.37 1.05-.92.8-1.47 1.85-1.47 3.01Zm11.63 3.32c0 2.16-2.39 3.85-5.43 3.85s-5.44-1.69-5.44-3.85c0-.06.02-.12.02-.18h-.02V8.83c0-2.16 2.39-3.85 5.44-3.85s5.43 1.69 5.43 3.85v3.32ZM7.61 8.82c0 .54 1.17 1.35 2.94 1.35s2.94-.81 2.94-1.35-1.17-1.35-2.94-1.35-2.94.81-2.94 1.35m5.87 3.32s-.02-.04-.02-.06c-.84.37-1.83.6-2.92.6s-2.08-.22-2.92-.6c0 .02-.02.04-.02.06 0 .54 1.17 1.35 2.94 1.35s2.94-.81 2.94-1.35"/>
</svg>
