<svg viewBox="0 0 32 32" xmlns="http://www.w3.org/2000/svg">
  <path d="M0 12.47V0h4.12v9.37C2.33 10.06.9 11.15 0 12.47m27.36 1.99V0h-4.77v13.87c.39-.04.78-.07 1.17-.07 1.27 0 2.47.24 3.59.65ZM9.96 8.53c.05-2 1.69-3.62 3.72-3.62s3.73 1.67 3.73 3.71c0 .89-.33 1.7-.86 2.34 1.31 1.1 2.16 2.5 2.33 4.06.54-.29 1.12-.53 1.71-.72V0H6.12v8.79c.9-.18 1.84-.29 2.83-.29.34 0 .68.01 1.01.04Zm3.91 17.92c.31 1.17.83 2.26 1.52 3.23-1.62 1.14-3.89 1.83-6.44 1.83-5.02 0-8.95-2.69-8.95-6.13v-9.77c0-3.43 3.93-6.13 8.96-6.13s8.96 2.69 8.96 6.13a10.17 10.17 0 0 0-3.84 5.03c-1.45.68-3.19 1.1-5.12 1.1-2.07 0-3.95-.46-5.45-1.24.06 1.25 2.36 2.64 5.45 2.64 2.19 0 3.97-.7 4.85-1.55-.18.74-.28 1.51-.28 2.3 0 .63.07 1.25.18 1.85-1.37.58-2.98.93-4.75.93-2.07 0-3.95-.46-5.45-1.24.06 1.25 2.36 2.64 5.45 2.64 2.24 0 4.06-.73 4.92-1.62ZM3.5 15.61c0 1.27 2.33 2.68 5.46 2.68s5.46-1.42 5.46-2.68-2.33-2.68-5.46-2.68-5.46 1.42-5.46 2.68M32 23.89c0 4.47-3.7 8.11-8.24 8.11s-8.24-3.64-8.24-8.11 3.7-8.11 8.24-8.11S32 19.42 32 23.89m-3.52 0c0-.54-.45-.98-1-.98h-2.72v-2.67c0-.54-.45-.98-1-.98s-1 .44-1 .98v2.67h-2.71c-.55 0-1 .44-1 .98s.45.98 1 .98h2.71v2.67c0 .54.45.98 1 .98s1-.44 1-.98v-2.67h2.72c.55 0 1-.44 1-.98"/>
</svg>
