<svg viewBox="0 0 32 32" xmlns="http://www.w3.org/2000/svg">
  <path d="M12.54 22.64c0-2.04.61-3.95 1.64-5.55v-1.81h1.49c.86-.83 1.86-1.51 2.96-2h-4.8c-.3-.62-.79-1.18-1.41-1.66.26.05.52.08.79.08 2.23 0 4.04-1.82 4.04-4.06s-1.81-4.06-4.04-4.06S9.17 5.4 9.17 7.64c0 1.17.5 2.21 1.28 2.95-.93-.32-1.98-.51-3.1-.52V2h11.73v11.1c.64-.25 1.31-.43 2-.55V2h3.31v10.53c.69.11 1.36.29 2 .53V0H.03v27.28c0 2.65 3.07 4.72 7 4.72 2.59 0 4.8-.91 6.01-2.28 1.14 1.29 3.18 2.16 5.58 2.26-3.56-1.6-6.05-5.18-6.05-9.34Zm.67-17.06c1.13 0 2.04.93 2.04 2.06s-.92 2.06-2.04 2.06-2.05-.93-2.05-2.06.92-2.06 2.05-2.06M2.03 2h3.32v8.23c-1.3.23-2.44.71-3.32 1.35zm4.98 28c-2.94 0-5-1.44-5-2.72 0-.24.08-.49.22-.73 1.26.85 3 1.36 4.96 1.36 1.82 0 3.45-.45 4.68-1.19.08.19.14.37.14.56 0 1.29-2.05 2.72-5 2.72m5.03-6.93v.69c-.52 1.03-2 1.84-3.84 2.09-.32.04-.65.06-1 .06-2.94 0-5-1.44-5-2.72 0-.21.06-.43.17-.64 1.25.8 2.93 1.28 4.82 1.28s3.58-.48 4.82-1.28l.03.09c-.01.11-.02.22-.02.33v.11Zm-4.85-1.24c-2.94 0-5-1.44-5-2.72q0-.405.27-.81c1.24.76 2.89 1.22 4.73 1.22s3.49-.46 4.73-1.22c.17.27.27.54.27.81 0 1.29-2.05 2.72-5 2.72m0-4.32c-2.94 0-5-1.44-5-2.72s2.05-2.72 5-2.72 5 1.44 5 2.72-2.05 2.72-5 2.72m15.59-4.12c-5.09 0-9.24 4.15-9.24 9.24s4.14 9.24 9.24 9.24 9.24-4.15 9.24-9.24-4.14-9.24-9.24-9.24m0 16.49c-3.99 0-7.24-3.25-7.24-7.24s3.25-7.24 7.24-7.24 7.24 3.25 7.24 7.24-3.25 7.24-7.24 7.24m4.31-7.24c0 .55-.45 1-1 1h-2.31v2.31c0 .55-.45 1-1 1s-1-.45-1-1v-2.31h-2.31c-.55 0-1-.45-1-1s.45-1 1-1h2.31v-2.31c0-.55.45-1 1-1s1 .45 1 1v2.31h2.31c.55 0 1 .45 1 1"/>
</svg>
