<svg viewBox="0 0 16 16" xmlns="http://www.w3.org/2000/svg">
  <path d="M5.56 11.92c-.36.31-1 .58-1.87.58-1.25 0-2.07-.56-2.17-.99.61.3 1.35.49 2.17.49.67 0 1.3-.13 1.83-.34-.02-.18-.03-.35-.03-.53 0-.44.06-.87.15-1.28-.34.34-1.02.65-1.96.65-1.34 0-2.19-.63-2.19-1.07V9.4c.61.31 1.36.49 2.18.49.78 0 1.48-.17 2.06-.44A5.64 5.64 0 0 1 7.92 6.5h-.76c-.05-.1-.09-.19-.15-.28A2.244 2.244 0 0 0 8.95 4c0-1.24-1.01-2.25-2.24-2.25S4.47 2.76 4.47 4c0 .3.06.58.17.84-.31-.06-.62-.09-.96-.09-.83 0-1.58.19-2.19.5V1.5h10.44v4.07c.53.08 1.03.23 1.5.44V0H0v13.51C.08 14.91 1.66 16 3.69 16c1.19 0 2.22-.38 2.89-.97.36.32.83.57 1.37.74a5.63 5.63 0 0 1-2.39-3.84Zm1.16-8.67c.41 0 .74.34.74.75s-.33.75-.74.75-.74-.34-.74-.75.33-.75.74-.75M3.69 6.24c1.34 0 2.19.64 2.19 1.07s-.85 1.07-2.19 1.07S1.5 7.75 1.5 7.31s.85-1.07 2.19-1.07m0 8.26c-1.25 0-2.07-.56-2.17-.99.61.3 1.35.49 2.17.49s1.51-.17 2.1-.45c0 .03 0 .06.01.1-.22.4-.99.85-2.12.85Zm7.43-8.24c-2.69 0-4.88 2.19-4.88 4.87S8.43 16 11.12 16 16 13.81 16 11.13s-2.19-4.87-4.88-4.87m0 8.24c-1.86 0-3.38-1.51-3.38-3.37s1.51-3.37 3.38-3.37 3.38 1.51 3.38 3.37-1.51 3.37-3.38 3.37m2.41-3.37c0 .41-.34.75-.75.75h-.91v.91c0 .41-.34.75-.75.75s-.75-.34-.75-.75v-.91h-.91c-.41 0-.75-.34-.75-.75s.34-.75.75-.75h.91v-.91c0-.41.34-.75.75-.75s.75.34.75.75v.91h.91c.41 0 .75.34.75.75"/>
</svg>
