<svg viewBox="0 0 48 48" xmlns="http://www.w3.org/2000/svg">
  <path d="M35.14 11.59c-.37 0-.72.02-1.08.04V0h6.22v12.25c-1.58-.43-3.31-.66-5.14-.66M0 25.51h6.31V0H0zm20.14-7.33c-2.95 0-5.34-2.43-5.34-5.41s2.4-5.41 5.34-5.41 5.34 2.43 5.34 5.41c0 .58-.09 1.14-.26 1.67 1.72-1.21 3.9-2.08 6.34-2.52V0H8.81v25.51h12.27v-3.95c0-1.34.36-2.6 1.01-3.75-.6.24-1.26.38-1.95.38Zm27.85 3.37v13.66h-.02v4.16h-.01c-.08 4.84-5.67 8.62-12.81 8.62-6.63 0-11.92-3.26-12.7-7.6h-.1v-.94c0-.06-.01-.12-.01-.18 0-.08 0-.16.01-.24v-5.46c0-.06-.01-.12-.01-.18 0-.08 0-.16.01-.24V27.6c0-.06-.01-.12-.01-.18 0-.08 0-.16.01-.24v-5.46c0-.06-.01-.12-.01-.18 0-4.89 5.63-8.72 12.81-8.72s12.81 3.83 12.81 8.71h.02Zm-21.57 6.42c.52 2.07 3.96 4.18 8.74 4.18s8.22-2.1 8.74-4.18c-2.27 1.43-5.33 2.3-8.74 2.3s-6.46-.87-8.74-2.3m8.73 10.15c4.86 0 8.35-2.18 8.77-4.29-2.28 1.44-5.34 2.32-8.77 2.32s-6.49-.88-8.77-2.32c.42 2.11 3.91 4.29 8.77 4.29m-8.81-16.57c0 2.23 3.62 4.72 8.81 4.72s8.81-2.49 8.81-4.72-3.62-4.71-8.81-4.71-8.81 2.48-8.81 4.71m17.55 18.27c-2.27 1.43-5.33 2.3-8.74 2.3s-6.46-.87-8.74-2.3c.52 2.07 3.96 4.18 8.74 4.18s8.22-2.1 8.74-4.18"/>
</svg>
