<svg viewBox="0 0 40 40" xmlns="http://www.w3.org/2000/svg">
  <path fill="#1e1e1c" d="M39.98 28.82V18.6c0-2.94-3.11-5.29-7.29-5.71V0H-.01v18.86H22.4v8.77c-.8-2.65-4.22-4.59-8.45-4.59-4.84 0-8.62 2.54-8.62 5.78v5.6h.02c.17 3.14 3.88 5.56 8.61 5.56s8.43-2.42 8.61-5.56h.19c.17 3.14 3.88 5.56 8.61 5.56s8.62-2.54 8.62-5.78v-5.4ZM8.88 2.25H23.8v13.49h.05c-.23.28-.42.57-.59.87H8.88zm28.44 20.56c.26.37.41.77.41 1.18 0 1.88-2.98 3.53-6.37 3.53s-6.37-1.65-6.37-3.53c0-.41.16-.81.41-1.18 1.54.98 3.62 1.57 5.96 1.57s4.42-.6 5.96-1.57M24.99 29.1c0-.34.1-.67.28-.98 1.55 1.03 3.69 1.66 6.09 1.66s4.55-.63 6.09-1.66a2 2 0 0 1 .28.98c0 1.88-2.98 3.53-6.37 3.53s-6.37-1.65-6.37-3.53m12.75-10.5c0 1.88-2.98 3.53-6.37 3.53S25 20.48 25 18.6s2.98-3.53 6.37-3.53 6.37 1.65 6.37 3.53m-7.29-5.75c-1.66.11-3.16.53-4.4 1.17V2.25h4.4v10.61ZM2.24 2.25h4.4v14.36h-4.4zm11.72 23.04c3.39 0 6.37 1.65 6.37 3.53s-2.98 3.53-6.37 3.53-6.37-1.65-6.37-3.53 2.98-3.53 6.37-3.53M6.29 31.5s0 .01.01.02c0 0 0 .01-.01.02zm7.67 6.24c-3.39 0-6.37-1.65-6.37-3.53 0-.41.16-.81.41-1.18 1.54.98 3.62 1.57 5.96 1.57s4.42-.6 5.96-1.57c.26.37.41.77.41 1.18 0 1.88-2.98 3.53-6.37 3.53m17.4 0c-3.39 0-6.37-1.65-6.37-3.53 0-.34.1-.67.28-.98 1.55 1.03 3.69 1.66 6.09 1.66s4.54-.63 6.09-1.66a2 2 0 0 1 .28.98c0 1.88-2.98 3.53-6.37 3.53M16.34 4.47c-2.72 0-4.93 2.22-4.93 4.96s2.21 4.96 4.93 4.96 4.93-2.22 4.93-4.96-2.21-4.96-4.93-4.96m0 7.66c-1.48 0-2.68-1.21-2.68-2.71s1.2-2.71 2.68-2.71 2.68 1.21 2.68 2.71-1.2 2.71-2.68 2.71"/>
</svg>
