<svg viewBox="0 0 64 64" xmlns="http://www.w3.org/2000/svg">
  <path d="M19.24 15.63c0 4.6 3.74 8.34 8.35 8.34s8.35-3.74 8.35-8.34-3.74-8.35-8.35-8.35-8.35 3.74-8.35 8.35m13.95 0c0 3.09-2.51 5.6-5.6 5.6s-5.6-2.51-5.6-5.6 2.51-5.6 5.6-5.6 5.6 2.51 5.6 5.6m-6.48 40.15v-.75c.99.84 2.22 1.55 3.61 2.1a18.8 18.8 0 0 1-2.39-4.73c-.65-.68-1.08-1.44-1.22-2.23v-1.18c.05-.28.15-.56.27-.83-.07-.65-.1-1.32-.1-1.99 0-.77.06-1.53.15-2.28-.1.08-.21.15-.31.23v-8.3c0-1.69-.7-3.25-1.9-4.58h9.2c1.37-1.11 2.9-2.04 4.54-2.75H20.88c-1.92-.85-4.22-1.37-6.72-1.46V2.76h26.72V27.7c.89-.25 1.81-.44 2.75-.56V2.76h8.66v25.25c.95.33 1.87.71 2.75 1.18V.01H.01v31.23h1.88C.69 32.58.01 34.13.01 35.82c0 0-.02 0-.02.01l.02 19.36c.04 4.92 5.87 8.77 13.34 8.77 5.29 0 9.77-1.94 11.94-4.82 2.16 2.9 6.65 4.86 11.97 4.86.53 0 1.04-.02 1.55-.06-1.84-.76-3.54-1.79-5.04-3.05-3.78-.78-6.65-2.78-7.06-5.12ZM2.76 2.76h8.66v24.35c-2.06.19-3.96.67-5.59 1.39H2.77V2.76Zm10.59 58.46c-5.75 0-10.61-2.78-10.61-6.07 0-.36.07-.7.18-1.04 2.43 2 6.17 3.26 10.44 3.26s8.01-1.26 10.44-3.26c.05.16.1.32.12.49v.84h.01v.07c-.34 3.13-5.04 5.71-10.58 5.71m0-6.6c-5.75 0-10.61-2.78-10.61-6.07 0-.22.03-.43.07-.65 2.43 2.05 6.21 3.35 10.54 3.35s8.11-1.3 10.54-3.35c.04.21.07.43.07.65 0 3.29-4.86 6.07-10.61 6.07m0-6.12c-5.75 0-10.61-2.78-10.61-6.07 0-.36.07-.71.18-1.05 2.43 1.99 6.16 3.25 10.43 3.25s8-1.26 10.43-3.25c.11.34.18.7.18 1.05 0 3.29-4.86 6.07-10.61 6.07m0-6.61c-5.75 0-10.61-2.78-10.61-6.07s4.86-6.07 10.61-6.07 10.61 2.78 10.61 6.07-4.86 6.07-10.61 6.07m32.8-13.55c-9.84 0-17.84 8-17.84 17.84s8 17.84 17.84 17.84 17.84-8 17.84-17.84-8-17.84-17.84-17.84m0 32.93c-8.32 0-15.09-6.77-15.09-15.09s6.77-15.09 15.09-15.09 15.09 6.77 15.09 15.09-6.77 15.09-15.09 15.09m7.99-15.1c0 .76-.61 1.37-1.37 1.37h-5.25v5.25c0 .76-.61 1.37-1.37 1.37s-1.37-.61-1.37-1.37v-5.25h-5.25c-.76 0-1.37-.61-1.37-1.37s.61-1.37 1.37-1.37h5.25v-5.25c0-.76.61-1.37 1.37-1.37s1.37.61 1.37 1.37v5.25h5.25c.76 0 1.37.61 1.37 1.37"/>
</svg>
