<svg viewBox="0 0 64 64" xmlns="http://www.w3.org/2000/svg">
  <path fill="#1e1e1c" d="M64 36.87v-8.2h-.01c-.16-4.96-4.75-9.03-11.27-10.55V0H0v33h30.15v19.39h.02v.16C30.17 58.97 37.6 64 47.09 64S63.9 59.04 64 52.68v-15.8ZM15.92 5h21.51v14.48c-4.06 1.88-6.79 4.95-7.19 8.52H15.93V5Zm43.04 32.14c-.38 2.95-5.15 6.07-11.88 6.07s-11.5-3.12-11.88-6.07c3.03 2.01 7.21 3.23 11.88 3.23s8.85-1.23 11.88-3.23m-23.77 7.83c3.03 2.01 7.21 3.24 11.89 3.24s8.86-1.23 11.89-3.24c-.26 2.98-5.06 6.2-11.89 6.2s-11.63-3.21-11.89-6.2M59 28.92c0 3.05-4.89 6.45-11.92 6.45s-11.92-3.4-11.92-6.45 4.89-6.45 11.92-6.45S59 25.87 59 28.92M47.72 17.49c-.21 0-.42-.02-.63-.02-1.62 0-3.18.16-4.66.43V5h5.29v12.5ZM5 5h5.91v23H5zm42.08 54c-6.73 0-11.5-3.12-11.88-6.07 3.03 2.01 7.21 3.23 11.88 3.23s8.85-1.23 11.88-3.23C58.58 55.88 53.81 59 47.08 59M26.36 22.81c-3.42 0-6.2-2.82-6.2-6.29s2.78-6.29 6.2-6.29 6.21 2.82 6.21 6.29-2.78 6.29-6.21 6.29"/>
</svg>
