<svg viewBox="0 0 24 24" xmlns="http://www.w3.org/2000/svg">
  <path d="M9.08 16.94c0-1.8.61-3.46 1.62-4.79v-.44h.36c.62-.7 1.35-1.3 2.18-1.75h-2.75c-.13-.34-.32-.65-.58-.94h.05c1.73 0 3.14-1.42 3.14-3.17s-1.41-3.17-3.14-3.17S6.82 4.1 6.82 5.85c0 .61.18 1.18.48 1.67-.5-.13-1.03-.2-1.59-.23V1.75h8.51v7.77a7.8 7.8 0 0 1 1.74-.44V1.75h2.23v7.37q.915.135 1.74.48V0H0l.02 20.43c.1 1.99 2.4 3.54 5.33 3.54 2.1 0 3.86-.8 4.74-1.98.59.79 1.58 1.4 2.8 1.72a7.91 7.91 0 0 1-3.8-6.77ZM1.74 1.75h2.23v5.66c-.85.15-1.61.43-2.23.82zm3.61 20.47c-2.13 0-3.61-1.01-3.61-1.92 0-.1.03-.21.06-.32.94.57 2.17.92 3.55.92s2.6-.35 3.54-.92c.04.1.06.21.06.31 0 .91-1.48 1.92-3.61 1.92Zm0-3.06c-2.12 0-3.61-1.01-3.61-1.92 0-.1.03-.21.06-.32.94.57 2.16.92 3.54.92s2.6-.35 3.54-.92c.04.11.06.21.06.32 0 .91-1.48 1.92-3.61 1.92Zm3.35-4.31s-.06.06-.08.09c-.04.05-.09.1-.14.15-.64.55-1.75.96-3.12.96s-2.47-.42-3.12-.96c-.05-.05-.11-.1-.15-.15l-.08-.08c-.17-.22-.26-.45-.26-.68 0-.15.05-.3.13-.45.93.54 2.13.88 3.48.88s2.55-.34 3.48-.88c.08.15.13.3.13.45 0 .22-.09.46-.26.68Zm-3.35-1.99c-2.12 0-3.61-1.01-3.61-1.92s1.48-1.92 3.61-1.92 3.61 1.01 3.61 1.92-1.48 1.92-3.61 1.92m3.21-7.01c0-.78.63-1.42 1.4-1.42s1.4.64 1.4 1.42-.63 1.42-1.4 1.42-1.4-.64-1.4-1.42m8.42 4.04c-3.87 0-7.02 3.17-7.02 7.06s3.15 7.06 7.02 7.06S24 20.84 24 16.95s-3.15-7.06-7.02-7.06m0 12.36c-2.91 0-5.28-2.38-5.28-5.31s2.37-5.31 5.28-5.31 5.28 2.38 5.28 5.31-2.37 5.31-5.28 5.31m3.34-5.31c0 .48-.39.87-.87.87h-1.6v1.61a.87.87 0 0 1-1.74 0v-1.61h-1.6a.87.87 0 0 1 0-1.74h1.6v-1.61a.87.87 0 0 1 1.74 0v1.61h1.6c.48 0 .87.39.87.87"/>
</svg>
