<svg viewBox="0 0 24 24" xmlns="http://www.w3.org/2000/svg">
  <path d="M0 0h3.12v13.51H0zm20.89 0h-3.82v8.36c1.41.1 2.7.43 3.82.95zM7.67 13.51h-2.8V0h10.45v8.36c-3.93.27-7 2.37-7.65 5.15m2.77-4.12c1.42 0 2.58-1.17 2.58-2.61s-1.16-2.61-2.58-2.61-2.58 1.17-2.58 2.61 1.16 2.61 2.58 2.61m13.55 9.31h-.02c-.08 2.98-3.46 5.3-7.78 5.3s-7.72-2.34-7.78-5.33H8.4v-3.86h.02c0-.07-.01-.13-.01-.2 0-3.03 3.42-5.41 7.78-5.41s7.78 2.37 7.78 5.4h.01v4.09Zm-12.58-4.08c0 1.13 2.05 2.4 4.78 2.4s4.78-1.27 4.78-2.4-2.05-2.4-4.78-2.4-4.78 1.27-4.78 2.4m9.49 4.32c-1.3.68-2.92 1.08-4.71 1.08s-3.41-.4-4.71-1.08c.36 1.03 2.25 2.06 4.71 2.06s4.35-1.03 4.71-2.06"/>
</svg>
