<svg viewBox="0 0 24 24" xmlns="http://www.w3.org/2000/svg">
  <path fill="#1e1e1c" d="M24 14.61h-.01c0-1.8-1.21-3.36-3.09-4.33V0H0v13.51h8.57c-.1.36-.16.72-.16 1.1 0 .07.01.13.01.2H8.4v3.86h.01c.06 2.99 3.45 5.33 7.78 5.33s7.69-2.32 7.78-5.3h.02v-4.09Zm-7.8 2.41c-2.74 0-4.78-1.27-4.78-2.4s2.05-2.4 4.78-2.4 4.78 1.27 4.78 2.4-2.05 2.4-4.78 2.4m1.69-7.68c-.42-.06-.85-.1-1.29-.11V3h1.29v6.33ZM3 3h1.2v7.51H3zm4.21 7.51V3h6.4v6.51c-.93.22-1.78.56-2.51 1zM16.2 21c-2.46 0-4.35-1.03-4.71-2.06 1.3.68 2.92 1.08 4.71 1.08s3.41-.4 4.71-1.08C20.55 19.97 18.66 21 16.2 21M10.45 9.26c-1.35 0-2.46-1.11-2.46-2.48s1.1-2.48 2.46-2.48 2.45 1.11 2.45 2.48-1.1 2.48-2.45 2.48"/>
</svg>
