<svg viewBox="0 0 64 64" xmlns="http://www.w3.org/2000/svg">
  <path fill="#1e1e1c" d="M64.01 44.25v-8.43c0-3.91-3.68-7.14-8.93-8.32V.01H.01v31.24h39.17c-1.2 1.33-1.9 2.89-1.9 4.58v8.86c-2.37-2.37-6.45-3.92-11.17-3.92-7.5 0-13.37 3.87-13.37 8.81v5.86h.01c.19 4.82 5.98 8.57 13.35 8.57 5.58 0 10.26-2.15 12.29-5.29 2.04 3.11 6.7 5.24 12.26 5.24 6.55 0 11.86-2.96 13.1-7h.27V44.24Zm-2.93-2.87c.11.34.18.7.18 1.05 0 3.29-4.86 6.07-10.62 6.07s-10.62-2.78-10.62-6.07c0-.36.07-.71.18-1.05 2.43 2 6.17 3.25 10.44 3.25s8.01-1.26 10.44-3.25m-21.06 7.17c0-.22.03-.43.07-.65 2.43 2.05 6.21 3.35 10.55 3.35s8.12-1.3 10.55-3.35c.04.21.07.43.07.65 0 3.29-4.86 6.07-10.62 6.07s-10.62-2.78-10.62-6.07m21.24-12.73c0 3.29-4.86 6.07-10.62 6.07s-10.62-2.78-10.62-6.07 4.86-6.07 10.62-6.07 10.62 2.78 10.62 6.07M14.18 2.76h26.74V28.5H14.18zm38.15 24.32c-.55-.04-1.11-.07-1.69-.07-2.58 0-4.96.47-6.98 1.27V2.76h8.67v24.33ZM2.76 2.76h8.67V28.5H2.76zM26.1 43.52c5.76 0 10.62 2.78 10.62 6.07s-4.86 6.07-10.62 6.07-10.62-2.78-10.62-6.07 4.86-6.07 10.62-6.07m0 17.74c-5.76 0-10.62-2.78-10.62-6.07 0-.07 0-.13.01-.2 2.42 2.08 6.23 3.4 10.61 3.4s8.18-1.32 10.61-3.4c0 .07.01.13.01.2 0 3.29-4.86 6.07-10.62 6.07m24.54-.04c-5.76 0-10.62-2.78-10.62-6.07 0-.36.07-.7.18-1.04 2.43 2 6.17 3.26 10.44 3.26s8.01-1.26 10.44-3.26c.11.34.18.69.18 1.04 0 3.29-4.86 6.07-10.62 6.07M27.55 7.28c-4.61 0-8.35 3.74-8.35 8.35s3.75 8.34 8.35 8.34 8.35-3.74 8.35-8.34-3.75-8.35-8.35-8.35m0 13.95c-3.09 0-5.6-2.51-5.6-5.6s2.51-5.6 5.6-5.6 5.6 2.51 5.6 5.6-2.51 5.6-5.6 5.6"/>
</svg>
