<svg viewBox="0 0 16 16" xmlns="http://www.w3.org/2000/svg">
  <path fill="#1e1e1c" d="M16.03 11.32v-4c0-1.17-1.07-2.12-2.58-2.45V0H.03v8h8.63v1.96c-.64-.73-1.79-1.21-3.13-1.21-2.07 0-3.68 1.13-3.68 2.57v2.2c.06 1.4 1.65 2.49 3.67 2.49 1.56 0 2.86-.64 3.41-1.58.55.94 1.85 1.58 3.41 1.58 2.07 0 3.68-1.13 3.68-2.57v-2.11Zm-1.5-1.92v.03c0 .44-.85 1.07-2.18 1.07s-2.18-.63-2.18-1.07V9.4c.61.31 1.35.49 2.18.49s1.57-.19 2.18-.49m-4.35 2.11c.6.3 1.35.49 2.16.49s1.56-.18 2.16-.49c-.1.43-.92.99-2.16.99s-2.07-.56-2.16-.99m4.35-4.19c0 .44-.85 1.07-2.18 1.07s-2.18-.63-2.18-1.07.85-1.07 2.18-1.07 2.18.64 2.18 1.07m-13-5.82h10.42v3.27c-1.47.11-2.65.78-3.09 1.73H1.53zm4.01 8.74c1.33 0 2.18.63 2.18 1.07s-.85 1.07-2.18 1.07-2.18-.63-2.18-1.07.85-1.07 2.18-1.07m0 4.26c-1.33 0-2.18-.64-2.18-1.07v-.03c.61.31 1.35.49 2.18.49s1.57-.19 2.18-.49v.03c0 .44-.85 1.07-2.18 1.07m6.81 0c-1.25 0-2.07-.56-2.16-.99.6.3 1.35.49 2.16.49s1.56-.18 2.16-.49c-.1.43-.92.99-2.16.99M8.98 4c0-1.24-1-2.25-2.24-2.25S4.5 2.76 4.5 4s1 2.25 2.24 2.25S8.98 5.24 8.98 4m-2.24.75C6.33 4.75 6 4.41 6 4s.33-.75.74-.75.74.34.74.75-.33.75-.74.75"/>
</svg>
