<svg viewBox="0 0 24 24" xmlns="http://www.w3.org/2000/svg">
  <path fill="#1e1e1c" d="M23.99 10.94c0-1.73-1.67-3.13-3.99-3.54V-.02H0V11.7h13.26v4.26c-.67-1.5-2.66-2.57-5.1-2.57-3.01 0-5.37 1.61-5.37 3.67v3.36h.02c.1 1.99 2.41 3.54 5.35 3.54 2.6 0 4.71-1.21 5.24-2.87.52 1.66 2.63 2.87 5.24 2.87 3.01 0 5.37-1.61 5.37-3.67v-9.38ZM5.72 1.74h8.54v7.04c-.37.35-.63.75-.8 1.18H5.72zm16.39 11.99c.08.15.13.3.13.45 0 .91-1.49 1.92-3.62 1.92S15 15.09 15 14.18c0-.15.05-.3.13-.45.93.54 2.14.88 3.49.88s2.56-.34 3.49-.88M15 17.24c0-.1.03-.21.06-.32.94.57 2.17.92 3.56.92s2.61-.35 3.56-.92c.04.11.06.21.06.32 0 .91-1.49 1.92-3.62 1.92S15 18.15 15 17.24m7.24-6.3c0 .91-1.49 1.92-3.62 1.92S15 11.85 15 10.94s1.49-1.92 3.62-1.92 3.62 1.01 3.62 1.92m-3.99-3.65c-.81.04-1.57.19-2.24.44V1.74h2.24zM1.74 1.74h2.24v8.22H1.74zm6.41 13.41c2.13 0 3.62 1.01 3.62 1.92s-1.49 1.92-3.62 1.92-3.62-1.01-3.62-1.92 1.49-1.92 3.62-1.92m0 7.08c-2.13 0-3.62-1.01-3.62-1.92 0-.15.05-.3.13-.45.93.54 2.14.88 3.49.88s2.55-.34 3.49-.88c.08.15.13.3.13.45 0 .91-1.49 1.92-3.62 1.92m10.47 0c-2.13 0-3.62-1.01-3.62-1.92 0-.1.03-.21.06-.32.94.57 2.17.92 3.56.92s2.61-.35 3.56-.92c.04.11.06.21.06.32 0 .91-1.49 1.92-3.62 1.92M10 2.67c-1.74 0-3.16 1.42-3.16 3.18S8.26 9.03 10 9.03s3.16-1.42 3.16-3.18S11.74 2.67 10 2.67m0 4.6c-.78 0-1.41-.64-1.41-1.42S9.22 4.43 10 4.43s1.41.64 1.41 1.42-.63 1.42-1.41 1.42"/>
</svg>
