<svg viewBox="0 0 40 40" xmlns="http://www.w3.org/2000/svg">
  <path fill="#1e1e1c" d="M14.47 39.98c-2.86 0-5.64-.61-8.27-1.81-.4-.18-.66-.58-.66-1.02s.26-.84.66-1.02c6.31-2.88 10.39-9.21 10.39-16.13S12.52 6.75 6.2 3.88c-.4-.18-.66-.58-.66-1.02s.26-.84.66-1.02C8.83.63 11.61.02 14.47.02 25.49.02 34.45 8.98 34.45 20s-8.96 19.98-19.98 19.98m-5.09-3.01c1.65.5 3.36.75 5.09.75 9.78 0 17.73-7.95 17.73-17.73S24.25 2.27 14.47 2.27c-1.74 0-3.44.25-5.09.76C15.2 6.64 18.85 13.06 18.85 20S15.2 33.36 9.38 36.97"/>
</svg>
