<svg viewBox="0 0 24 24" xmlns="http://www.w3.org/2000/svg">
  <path fill="#1e1e1c" d="M11.98 17.74c-1.73 0-3.13 1.4-3.13 3.13S10.25 24 11.98 24s3.13-1.4 3.13-3.13-1.4-3.13-3.13-3.13m0 4.51c-.76 0-1.38-.62-1.38-1.38s.62-1.38 1.38-1.38 1.38.62 1.38 1.38-.62 1.38-1.38 1.38m0-13.38c-1.73 0-3.13 1.4-3.13 3.13s1.4 3.13 3.13 3.13 3.13-1.4 3.13-3.13-1.4-3.13-3.13-3.13m0 4.51c-.76 0-1.38-.62-1.38-1.38s.62-1.38 1.38-1.38 1.38.62 1.38 1.38-.62 1.38-1.38 1.38m0-7.12c1.73 0 3.13-1.4 3.13-3.13S13.71 0 11.98 0 8.85 1.4 8.85 3.13s1.4 3.13 3.13 3.13m0-4.51c.76 0 1.38.62 1.38 1.38s-.62 1.38-1.38 1.38-1.38-.62-1.38-1.38.62-1.38 1.38-1.38"/>
</svg>
