<svg viewBox="0 0 48 48" xmlns="http://www.w3.org/2000/svg">
  <path d="M36.49 24c0 3.17 2.58 5.75 5.75 5.75s5.75-2.58 5.75-5.75-2.58-5.75-5.75-5.75-5.75 2.58-5.75 5.75m9.01 0c0 1.79-1.46 3.25-3.25 3.25S39 25.79 39 24s1.46-3.25 3.25-3.25S45.5 22.21 45.5 24m-27.26 0c0 3.17 2.58 5.75 5.75 5.75s5.75-2.58 5.75-5.75-2.58-5.75-5.75-5.75-5.75 2.58-5.75 5.75m9 0c0 1.79-1.46 3.25-3.25 3.25s-3.25-1.46-3.25-3.25 1.46-3.25 3.25-3.25 3.25 1.46 3.25 3.25M11.5 24c0-3.17-2.58-5.75-5.75-5.75S0 20.83 0 24s2.58 5.75 5.75 5.75S11.5 27.17 11.5 24m-9 0c0-1.79 1.46-3.25 3.25-3.25S9 22.21 9 24s-1.46 3.25-3.25 3.25S2.5 25.79 2.5 24"/>
</svg>
