<svg viewBox="0 0 64 64" xmlns="http://www.w3.org/2000/svg">
  <path d="M49.25 32c0 4.07 3.31 7.38 7.38 7.38s7.38-3.31 7.38-7.38-3.31-7.38-7.38-7.38-7.38 3.31-7.38 7.38m12 0c0 2.55-2.08 4.63-4.63 4.63s-4.63-2.08-4.63-4.63 2.08-4.63 4.63-4.63 4.63 2.08 4.63 4.63m-36.64 0c0 4.07 3.31 7.38 7.38 7.38s7.38-3.31 7.38-7.38-3.31-7.38-7.38-7.38-7.38 3.31-7.38 7.38m12 0c0 2.55-2.08 4.63-4.63 4.63s-4.63-2.08-4.63-4.63 2.08-4.63 4.63-4.63 4.63 2.08 4.63 4.63m-21.86 0c0-4.07-3.31-7.38-7.38-7.38S0 27.94 0 32s3.31 7.38 7.38 7.38 7.38-3.31 7.38-7.38Zm-12 0c0-2.55 2.08-4.63 4.63-4.63s4.63 2.08 4.63 4.63-2.08 4.63-4.63 4.63S2.75 34.55 2.75 32"/>
</svg>
