<svg viewBox="0 0 24 24" xmlns="http://www.w3.org/2000/svg">
  <path d="M17.72 12c0 1.73 1.4 3.13 3.13 3.13s3.13-1.4 3.13-3.13-1.4-3.13-3.13-3.13-3.13 1.4-3.13 3.13m4.51 0c0 .76-.62 1.38-1.38 1.38s-1.38-.62-1.38-1.38.62-1.38 1.38-1.38 1.38.62 1.38 1.38M8.85 12c0 1.73 1.4 3.13 3.13 3.13s3.13-1.4 3.13-3.13-1.4-3.13-3.13-3.13-3.13 1.4-3.13 3.13m4.51 0c0 .76-.62 1.38-1.38 1.38S10.6 12.76 10.6 12s.62-1.38 1.38-1.38 1.38.62 1.38 1.38m-7.12 0c0-1.73-1.4-3.13-3.13-3.13S-.02 10.27-.02 12s1.4 3.13 3.13 3.13 3.13-1.4 3.13-3.13m-4.5 0c0-.76.62-1.38 1.38-1.38S4.5 11.24 4.5 12s-.62 1.38-1.38 1.38-1.38-.62-1.38-1.38"/>
</svg>
