<svg viewBox="0 0 48 48" xmlns="http://www.w3.org/2000/svg">
  <path fill="#1e1e1c" d="M24 36.5c-3.17 0-5.75 2.58-5.75 5.75S20.83 48 24 48s5.75-2.58 5.75-5.75S27.17 36.5 24 36.5m0 9c-1.79 0-3.25-1.46-3.25-3.25S22.21 39 24 39s3.25 1.46 3.25 3.25S25.79 45.5 24 45.5m0-27.25c-3.17 0-5.75 2.58-5.75 5.75s2.58 5.75 5.75 5.75 5.75-2.58 5.75-5.75-2.58-5.75-5.75-5.75m0 9c-1.79 0-3.25-1.46-3.25-3.25s1.46-3.25 3.25-3.25 3.25 1.46 3.25 3.25-1.46 3.25-3.25 3.25m0-15.75c3.17 0 5.75-2.58 5.75-5.75S27.17 0 24 0s-5.75 2.58-5.75 5.75S20.83 11.5 24 11.5m0-9c1.79 0 3.25 1.46 3.25 3.25S25.79 9 24 9s-3.25-1.46-3.25-3.25S22.21 2.5 24 2.5"/>
</svg>
