<svg viewBox="0 0 40 40" xmlns="http://www.w3.org/2000/svg">
  <path d="m32.31 20.24-.99-4.92c.55.26 1.16.41 1.8.41 2.36 0 2.36-8.54 0-8.54-1.26 0-2.37.55-3.16 1.42l-.22-1.12V4.65a3.15 3.15 0 0 0-3.15-3.15h-3.02a2 2 0 1 0 0 4h2.16v2.18l.21 1.03c-1.41-.34-2.73-.44-3.51-.46-1.17-.03-5.12.01-6.86 1.71l-3.83 3.45H8.43l-.16-1.43h.72a2 2 0 1 0 0-4H2.21a2 2 0 1 0 0 4h2.04l1 8.76C2.19 21.92.01 24.87.01 28.34c0 4.49 3.63 8.12 8.12 8.12 3.79 0 6.97-2.61 7.86-6.12h3.61l3.48-8.45c1.31-1.95 2.38-2.72 4.95-2.65l.35 1.78c-2.73 1.31-4.62 4.09-4.62 7.32 0 4.49 3.63 8.12 8.12 8.12S40 32.82 40 28.34s-3.42-7.89-7.71-8.1ZM8.13 32.47c-2.27 0-4.12-1.85-4.12-4.12s1.85-4.12 4.12-4.12c1.54 0 2.87.86 3.58 2.13H8.13a2 2 0 1 0 0 4h3.58c-.71 1.26-2.04 2.12-3.58 2.12Zm7.86-6.13c-.8-3.17-3.47-5.6-6.76-6.04l-.17-1.51c5.17.45 7.98 3.81 8.08 7.05l-.21.5H16Zm3.65-6.48-.21.51c-1.09-1.68-2.69-3.16-4.78-4.17l3.65-3.29c1.06-.84 6.36-1.01 8.56.42l.38 1.93c-3.37.12-5.55 1.49-7.6 4.61Zm12.25 12.61c-2.27 0-4.12-1.85-4.12-4.12 0-1.25.57-2.36 1.45-3.12l.7 3.51a2.007 2.007 0 0 0 2.36 1.57 2.005 2.005 0 0 0 1.57-2.36l-.71-3.51c1.65.54 2.86 2.07 2.86 3.91 0 2.27-1.85 4.12-4.12 4.12Z"/>
</svg>
