<svg viewBox="0 0 64 64" xmlns="http://www.w3.org/2000/svg">
  <path d="M51.03 32.37h-.06l-1.66-8.27c1.06.69 2.33 1.09 3.69 1.09 3.77 0 3.77-13.67 0-13.67-2.33 0-4.39 1.17-5.62 2.96l-.48-2.41V7.46c0-2.39-1.95-4.34-4.34-4.34h-4.83a2.5 2.5 0 0 0 0 5h4.16v4.44l.47 2.34c-2.54-.76-5.07-.94-6.47-.97-1.79-.04-7.82 0-10.52 2.59l-6.29 5.67h-6.29l-.31-2.58h.94a2.5 2.5 0 0 0 0-5H2.54c-1.38.01-2.5 1.13-2.5 2.51s1.12 2.5 2.5 2.5h4.9L9.03 33C3.8 34.69.02 39.58.02 45.37c0 7.18 5.82 13 12.99 13 6.32 0 11.58-4.52 12.74-10.5h5.15l5.42-13.14c2.51-3.75 4.6-4.85 9.09-4.61l.65 3.24a12.99 12.99 0 0 0-8.02 12.01c0 7.18 5.82 13 12.99 13s12.99-5.82 12.99-13-5.82-13-12.99-13m-38.02 21c-4.4 0-7.99-3.59-7.99-8s3.58-8 7.99-8c3.53 0 6.53 2.31 7.58 5.5h-7.58a2.5 2.5 0 0 0 0 5h7.58c-1.05 3.19-4.05 5.5-7.58 5.5m12.74-10.5a12.98 12.98 0 0 0-11.76-10.45l-.24-2.05c9.03.65 13.89 6.62 13.89 12.27v.02l-.08.2h-1.8Zm6.26-10.69-1.28 3.06c-1.85-3.48-5.04-6.5-9.48-8.28l7.49-6.75.08-.07c.47-.46 3.06-1.31 6.96-1.2 3.25.09 6.14.84 7.77 1.96l.85 4.21c-5.6 0-9.1 2.07-12.39 7.08Zm19.02 21.19c-4.4 0-7.99-3.59-7.99-8 0-2.97 1.63-5.57 4.04-6.94l1.5 7.44a2.5 2.5 0 0 0 2.95 1.96 2.503 2.503 0 0 0 1.96-2.94l-1.5-7.44c3.95.48 7.03 3.85 7.03 7.94 0 4.41-3.58 8-7.99 8Z"/>
</svg>
