<svg viewBox="0 0 64 64" xmlns="http://www.w3.org/2000/svg">
  <path d="M24.23 52.55c3.4 0 6.15-2.75 6.15-6.15s-2.75-6.15-6.15-6.15-6.15 2.75-6.15 6.15 2.75 6.15 6.15 6.15m0-9.55c1.88 0 3.4 1.53 3.4 3.4s-1.53 3.4-3.4 3.4-3.4-1.53-3.4-3.4 1.53-3.4 3.4-3.4m35.88-19.23v-.27c0-2.3-1.13-4.53-3.18-5.87L29.56 1.14c-.15-.1-.31-.17-.47-.26-.04-.02-.07-.04-.11-.06-.19-.1-.37-.19-.56-.27-.01 0-.02 0-.03-.01C28.05.4 27.7.29 27.34.2c-.13-.03-.26-.06-.39-.08-.14-.02-.27-.05-.41-.06-.22-.03-.45-.04-.68-.05h-.17c-.33 0-.65.03-.96.07h-.02a7.015 7.015 0 0 0-5.89 5.6L8.69 38.12a17.5 17.5 0 0 0-2.07 8.28c0 9.31 7.23 16.91 16.37 17.54.27.02.54.03.81.04.14 0 .27.02.41.02h.18c5.79 0 11.46-2.86 14.81-8.11l18.9-27.36a7.03 7.03 0 0 0 1.99-4.69v-.08Zm-17.4 10.31-2.88 4.18c-2.74-5.23-8.02-8.91-14.21-9.39-.56-.06-1.13-.09-1.7-.09-1.13 0-2.25.11-3.35.33l2.31-7.41c.73.2 1.49.31 2.26.31 3.01 0 5.67-1.55 7.18-3.93l8.14 4.9a8.524 8.524 0 0 0 2.26 11.1Zm-21.2-2.27c-.06.24-.1.48-.1.73 0 1.66 1.34 3 3 3a2.996 2.996 0 0 0 2.94-3.6A14.58 14.58 0 0 1 38.29 43.7a2.99 2.99 0 0 0-2.8.8c-.14.14-.26.28-.37.44a3.03 3.03 0 0 0 0 3.36c.11.16.23.31.37.44a2.99 2.99 0 0 0 3.29.64A14.89 14.89 0 0 1 27.1 60.96c.08-.26.13-.54.13-.82 0-1.66-1.34-3-3-3s-3 1.34-3 3c0 .27.05.53.12.78A14.78 14.78 0 0 1 9.98 49.57c.16.03.32.05.49.05 1.66 0 3-1.34 3-3s-1.34-3-3-3q-.285 0-.57.06c.18-.93.43-1.85.8-2.75l.04-.1.03-.1.47-1.49c2.11-3.81 5.85-6.59 10.27-7.42Zm19.56 9.48 5.76-8.34a5.78 5.78 0 0 1-4.78-5.7c0-2.06 1.08-3.86 2.7-4.89L30.87 14c-.28 2.94-2.73 5.26-5.75 5.26-1.51 0-2.87-.59-3.9-1.53l-3.89 12.48c-1.46.62-2.81 1.44-4.03 2.42l6.72-21.54a7 7 0 0 0 5.68 2.92c3.87 0 7-3.13 7-7 0-.27-.02-.53-.05-.79L50.7 17.09c-2.67.99-4.58 3.55-4.58 6.56 0 3.87 3.13 7 7 7 .07 0 .14 0 .21-.01L41.79 47.35c.02-.31.05-.63.05-.94 0-1.78-.27-3.49-.76-5.11ZM29.95 7c0 2.34-1.91 4.25-4.25 4.25S21.45 9.34 21.45 7s1.91-4.25 4.25-4.25S29.95 4.66 29.95 7m23.17 20.9c-2.34 0-4.25-1.91-4.25-4.25s1.91-4.25 4.25-4.25 4.25 1.91 4.25 4.25-1.91 4.25-4.25 4.25"/>
</svg>
