<svg viewBox="0 0 40 40" xmlns="http://www.w3.org/2000/svg">
  <path d="M15.15 33.24c2.34 0 4.24-1.9 4.24-4.24s-1.9-4.24-4.24-4.24-4.24 1.9-4.24 4.24 1.9 4.24 4.24 4.24m0-6.23c1.1 0 1.99.89 1.99 1.99s-.89 1.99-1.99 1.99-1.99-.89-1.99-1.99.89-1.99 1.99-1.99m22.36-11.65.03-.27c0-.11.03-.21.03-.32 0-.05-.01-.09-.01-.13-.02-1.42-.71-2.8-1.98-3.63L18.48.71a4.3 4.3 0 0 0-1.46-.6c-.04 0-.08-.02-.12-.03a4.3 4.3 0 0 0-.8-.08h-.11c-.22 0-.44.03-.65.07-.12.02-.24.05-.36.08-.11.03-.22.06-.33.1-.14.05-.27.09-.41.15-.03.01-.05.03-.08.04-.32.15-.61.35-.88.57-.05.04-.11.08-.16.13-.13.12-.24.24-.35.37l-.12.15c-.12.15-.23.3-.32.46 0 .01-.01.02-.02.03-.25.42-.44.88-.54 1.38L5.44 23.82c-.82 1.54-1.29 3.3-1.29 5.17 0 5.82 4.52 10.57 10.23 10.96l.51.03c.09 0 .17.01.26.01h.12c.17 0 .34-.02.51-.03.19-.01.38-.01.56-.03.35-.03.69-.09 1.03-.16 2.84-.55 5.47-2.21 7.15-4.84l11.83-17.12a4.34 4.34 0 0 0 1.17-2.45Zm-25.24 5.39c.44-.13.89-.21 1.35-.27-.15.27-.24.57-.24.9 0 1.04.84 1.88 1.88 1.88s1.88-.84 1.88-1.88c0-.25-.05-.48-.14-.7 3.28.82 5.84 3.42 6.63 6.71-.2-.07-.42-.12-.64-.12-1.04 0-1.88.84-1.88 1.88a1.878 1.878 0 0 0 2.59 1.74c-.74 3.36-3.4 6-6.78 6.7.06-.19.11-.39.11-.6 0-1.04-.84-1.88-1.88-1.88s-1.88.84-1.88 1.88c0 .19.04.37.09.55a8.8 8.8 0 0 1-2.85-1.18 8.7 8.7 0 0 1-3.75-5.46 1.878 1.878 0 0 0 2.59-1.74c0-1.04-.84-1.88-1.88-1.88-.27 0-.53.06-.76.17.1-.56.26-1.11.47-1.65l.03-.08.03-.09.27-.87a8.8 8.8 0 0 1 4.76-3.99Zm13.53 1.34-1.06 1.54A10.98 10.98 0 0 0 15.15 18c-.57 0-1.14.06-1.69.14l1.02-3.26a5.81 5.81 0 0 0 5.69-2.18l4.23 2.55c-.36.76-.55 1.6-.55 2.47 0 1.72.74 3.29 1.95 4.37m-.05 4.03 3.34-4.84a3.62 3.62 0 0 1-2.99-3.56c0-1.29.68-2.41 1.69-3.06l-8.67-5.23c-.17 1.84-1.71 3.29-3.59 3.29-.94 0-1.79-.37-2.44-.96l-2.21 7.09c-.65.27-1.26.61-1.84.99L12.92 7.4c.8.82 1.91 1.34 3.14 1.34 2.37 0 4.29-1.89 4.36-4.24l10.69 6.44a4.36 4.36 0 0 0-2.29 3.83c0 2.25 1.71 4.08 3.89 4.33l-6.59 9.53c-.03-.87-.16-1.71-.38-2.52ZM18.19 4.37a2.121 2.121 0 0 1-4.24 0 2.121 2.121 0 0 1 4.24 0M33.2 16.9a2.121 2.121 0 0 1 0-4.24 2.121 2.121 0 0 1 0 4.24"/>
</svg>
