<svg viewBox="0 0 48 48" xmlns="http://www.w3.org/2000/svg">
  <path d="M18.17 39.89c2.81 0 5.09-2.28 5.09-5.09s-2.28-5.09-5.09-5.09-5.09 2.28-5.09 5.09 2.28 5.09 5.09 5.09m0-7.68a2.59 2.59 0 1 1-.001 5.181 2.59 2.59 0 0 1 .001-5.181m26.85-13.77c.02-.11.02-.21.03-.32 0-.13.04-.25.04-.38 0-.05-.01-.11-.02-.16-.02-1.7-.85-3.36-2.38-4.36L22.17.85a5.3 5.3 0 0 0-1.76-.72L20.27.1c-.32-.06-.64-.1-.96-.1h-.12c-.26 0-.52.03-.78.08-.15.02-.29.06-.43.1l-.4.12c-.16.06-.33.11-.49.18-.03.02-.06.04-.1.05-.38.18-.73.42-1.05.68-.06.05-.13.1-.19.15-.15.14-.29.29-.43.44l-.15.18c-.14.18-.27.36-.39.55 0 .01-.01.03-.02.04-.3.51-.53 1.06-.65 1.66l-7.6 24.35c-.99 1.85-1.55 3.96-1.55 6.21 0 6.98 5.42 12.68 12.28 13.15.2.02.41.02.61.03.1 0 .21.02.31.02h.14c.21 0 .41-.03.62-.04.22-.01.45-.02.67-.04.42-.04.83-.11 1.23-.19 3.41-.67 6.56-2.65 8.58-5.81l14.19-20.55c.76-.78 1.25-1.8 1.41-2.94Zm-13.79 8.03-1.43 2.07c-2.23-4.13-6.6-6.95-11.62-6.95-.77 0-1.51.08-2.24.2l1.31-4.18a6.81 6.81 0 0 0 6.92-2.65l5.39 3.25c-.46.93-.71 1.97-.71 3.05 0 2.07.92 3.94 2.4 5.21Zm-14.88-1.91c-.18.32-.29.69-.29 1.09 0 1.24 1.01 2.25 2.25 2.25s2.25-1.01 2.25-2.25c0-.3-.06-.58-.17-.84 3.93.99 7.01 4.1 7.95 8.05-.24-.09-.5-.14-.77-.14-1.24 0-2.25 1.01-2.25 2.25s1.01 2.25 2.25 2.25c.4 0 .77-.11 1.09-.29-.85 4.23-4.21 7.55-8.45 8.37.13-.29.21-.6.21-.93 0-1.24-1.01-2.25-2.25-2.25s-2.25 1.01-2.25 2.25c0 .31.06.61.18.87-1.27-.27-2.49-.75-3.6-1.47a10.7 10.7 0 0 1-4.62-6.84c.32.18.69.29 1.08.29 1.24 0 2.25-1.01 2.25-2.25s-1.01-2.25-2.25-2.25c-.42 0-.8.12-1.14.32.13-.73.32-1.47.61-2.18l.04-.09.03-.1.33-1.07c.78-1.39 1.85-2.58 3.14-3.5v.02c1.3-.81 2.78-1.35 4.38-1.56m14.55 6.79 4.01-5.81a4.342 4.342 0 0 1-1.56-7.95l-10.41-6.27c-.21 2.21-2.05 3.94-4.31 3.94a4.3 4.3 0 0 1-2.92-1.15l-2.66 8.51c-.88.37-1.71.84-2.48 1.39L15.35 8.7c.96 1.09 2.35 1.79 3.92 1.79 2.9 0 5.25-2.35 5.25-5.25v-.06l13.02 7.85c-1.74.85-2.96 2.63-2.96 4.7 0 2.78 2.16 5.03 4.9 5.21l-8.11 11.74c0-1.16-.18-2.28-.47-3.35Zm-8.87-26.1C22.03 6.77 20.8 8 19.28 8s-2.75-1.23-2.75-2.75 1.23-2.75 2.75-2.75 2.75 1.23 2.75 2.75m17.81 9.74c1.52 0 2.75 1.23 2.75 2.75s-1.23 2.75-2.75 2.75-2.75-1.23-2.75-2.75 1.23-2.75 2.75-2.75"/>
</svg>
