<svg viewBox="0 0 16 16" xmlns="http://www.w3.org/2000/svg">
  <path d="M15.01 6.12V6.1c0-.05.02-.1.02-.15v-.06c0-.36-.11-.72-.32-1.02-.24-.36-.59-.63-1.01-.77L7.76.53C7.41.22 6.96.02 6.45.02h-.03c-.16 0-.31.03-.46.07-.01 0-.02 0-.03.01-.83.23-1.45.99-1.45 1.9 0 .05.01.11.02.16L2.23 9.43c-.37.64-.59 1.38-.59 2.17a4.44 4.44 0 0 0 4.44 4.43c.76 0 1.47-.21 2.1-.55l.06-.03c.2-.11.39-.24.57-.38.11-.08.21-.16.31-.26a5 5 0 0 0 .51-.58c.06-.08.12-.15.17-.23 0-.01.02-.02.02-.03l4.49-6.48c.4-.33.67-.81.72-1.35Zm-1.96-1.15c.54 0 .98.44.98.98s-.44.98-.98.98-.98-.44-.98-.98.44-.98.98-.98m-6.6-1.99c-.54 0-.98-.44-.98-.98s.44-.98.98-.98.98.44.98.98-.44.98-.98.98m-.39 11.81c-1.77 0-3.21-1.43-3.21-3.2s1.44-3.2 3.21-3.2 3.21 1.43 3.21 3.2-1.44 3.2-3.21 3.2m3.56-5.82 1.01-1.66a.85.85 0 0 1-.3-1.56L8.29 4.52c-.04.43-.4.77-.84.77-.22 0-.42-.09-.57-.22l-.73 2.1h-.08c-.18 0-.36.03-.54.05l1.02-3.25c.48-.02.92-.21 1.25-.51l3.35 2.01c-.04.16-.07.32-.07.49 0 .45.16.87.42 1.2L9.93 9.43c-.09-.16-.18-.31-.29-.46ZM8.46 11.1a2.47 2.47 0 0 0-1.83-1.89c0 .29-.25.53-.54.53s-.55-.24-.55-.55c-.95.2-1.69.95-1.89 1.89.3 0 .55.24.55.55s-.24.53-.53.54c.22.9.94 1.61 1.86 1.81.06-.24.26-.42.52-.42s.46.18.52.42c.92-.2 1.65-.92 1.86-1.83-.25-.05-.44-.26-.44-.52s.2-.49.46-.53Zm-2.4 1.15c-.36 0-.66-.29-.66-.65s.29-.65.66-.65.66.29.66.65-.29.65-.66.65"/>
</svg>
