<svg viewBox="0 0 24 24" xmlns="http://www.w3.org/2000/svg">
  <path d="M22.52 9.18v-.03c0-.08.02-.15.02-.23v-.1c0-.55-.16-1.09-.48-1.54-.36-.54-.89-.95-1.51-1.16L11.65.77a2.94 2.94 0 0 0-1.54-.72C9.98.03 9.85.01 9.72.01h-.05c-.16 0-.33.02-.49.05-.08.01-.15.03-.23.05-.03 0-.07.02-.1.03a2.97 2.97 0 0 0-2.14 2.84c0 .08.02.16.02.24L3.06 14.97a6.59 6.59 0 0 0 2.51 7.97c1.11.72 2.35 1.07 3.59 1.07 2.17 0 4.3-1.07 5.55-3.04l6.73-9.75c.6-.49 1-1.21 1.08-2.04M19.57 7.7c.67 0 1.22.55 1.22 1.22s-.55 1.22-1.22 1.22-1.22-.55-1.22-1.22.55-1.22 1.22-1.22M8.45 2.98c0-.67.55-1.22 1.22-1.22s1.22.55 1.22 1.22-.55 1.22-1.22 1.22-1.22-.55-1.22-1.22m.64 19.23c-2.66 0-4.81-2.15-4.81-4.81s2.15-4.81 4.81-4.81 4.81 2.15 4.81 4.81-2.15 4.81-4.81 4.81m5.53-7.51 1.92-3.16a1.59 1.59 0 0 1-1.31-1.56 1.58 1.58 0 0 1 .73-1.33l-3.79-2.28a1.577 1.577 0 0 1-1.57 1.44c-.41 0-.78-.16-1.06-.42l-1.36 3.93c-.31.05-.62.11-.91.2l1.76-5.64a2.98 2.98 0 0 0 3.14-1.3l4.81 2.9c-.24.43-.39.91-.39 1.44 0 .96.46 1.8 1.16 2.34l-2.85 4.13c-.08-.24-.18-.47-.29-.7Zm-1.8 1.95a3.83 3.83 0 0 0-2.89-2.95c0 .04.02.07.02.11 0 .45-.37.82-.82.82s-.82-.37-.82-.82c0-.05.02-.09.03-.14-1.51.3-2.7 1.49-2.99 3 .05 0 .09-.03.14-.03.45 0 .82.37.82.82s-.37.82-.82.82c-.04 0-.07-.02-.11-.02a3.8 3.8 0 0 0 2.9 2.86c.04-.42.38-.75.8-.75s.77.33.8.75a3.81 3.81 0 0 0 2.89-2.85c-.44-.02-.79-.37-.79-.81s.37-.82.82-.82Zm-3.73 1.74c-.54 0-.98-.44-.98-.98s.44-.98.98-.98.98.44.98.98-.44.98-.98.98"/>
</svg>
