<svg viewBox="0 0 32 32" xmlns="http://www.w3.org/2000/svg">
  <path d="m26 16.2-.78-3.86c.39.16.82.25 1.27.25 1.89 0 1.89-6.84 0-6.84-.94 0-1.78.38-2.4.99l-.15-.76V3.73c0-1.47-1.2-2.67-2.67-2.67h-2.41c-.97 0-1.75.78-1.75 1.75s.78 1.75 1.75 1.75h1.58v1.6l.13.63c-1.05-.23-2.03-.31-2.62-.32-.94-.03-4.17 0-5.59 1.41L9.34 10.6H6.93l-.14-1.29h.42c.97 0 1.75-.78 1.75-1.75s-.78-1.75-1.75-1.75H1.77C.8 5.79.02 6.58.02 7.54S.8 9.29 1.77 9.29h1.49l.81 7.35C1.69 17.61 0 19.94 0 22.67a6.5 6.5 0 0 0 6.5 6.5c2.98 0 5.49-2.01 6.25-4.75h3.03l2.82-6.84c.99-1.47 1.8-2.08 3.7-2.05l.27 1.34a6.49 6.49 0 0 0-3.56 5.79c0 3.59 2.91 6.5 6.5 6.5S32 26.25 32 22.66s-2.65-6.23-6.01-6.48ZM6.5 25.67a3 3 0 0 1 0-6c1 0 1.88.5 2.42 1.25H6.5c-.97 0-1.75.78-1.75 1.75s.78 1.75 1.75 1.75h2.42c-.54.75-1.42 1.25-2.42 1.25m6.25-4.75a6.49 6.49 0 0 0-5.2-4.66l-.12-1.06c3.9.42 6.03 2.97 6.12 5.44l-.12.28h-.69Zm2.84-5.12-.07.17c-.84-1.22-2.03-2.28-3.53-3.05l2.75-2.48c.89-.66 4.91-.76 6.62.31l.26 1.33c-2.63.15-4.42 1.27-6.03 3.73Zm9.93 9.87a3 3 0 0 1-2.99-3c0-.78.31-1.49.8-2.03l.47 2.37a1.76 1.76 0 0 0 2.06 1.38c.95-.19 1.56-1.11 1.37-2.06l-.48-2.38a2.99 2.99 0 0 1 1.75 2.72 3 3 0 0 1-2.99 3Z"/>
</svg>
