<svg viewBox="0 0 24 24" xmlns="http://www.w3.org/2000/svg">
  <path d="M9.09 19.95c1.41 0 2.55-1.14 2.55-2.55s-1.14-2.55-2.55-2.55-2.55 1.14-2.55 2.55 1.14 2.55 2.55 2.55m0-3.35c.44 0 .8.36.8.8s-.36.8-.8.8-.8-.36-.8-.8.36-.8.8-.8m13.43-7.42v-.03c0-.08.02-.15.02-.23v-.1c0-.55-.16-1.09-.48-1.54-.36-.54-.89-.95-1.51-1.16L11.65.76a2.94 2.94 0 0 0-1.54-.72C9.98.02 9.85 0 9.72 0h-.05c-.16 0-.33.02-.49.05-.08.01-.15.03-.23.05-.03 0-.07.02-.1.03a2.97 2.97 0 0 0-2.14 2.84c0 .08.02.16.02.24L3.27 14.3c-.49.93-.78 1.98-.78 3.1 0 3.65 2.95 6.6 6.6 6.6h.07c.1 0 .2-.01.31-.02.11 0 .23 0 .34-.02.21-.02.41-.05.62-.09a6.5 6.5 0 0 0 4.29-2.91l6.73-9.75c.6-.49 1-1.21 1.08-2.04ZM7.78 22.05c-.44-.13-.86-.33-1.25-.58a4.84 4.84 0 0 1-2.03-2.86c.61 0 1.11-.51 1.11-1.12s-.5-1.12-1.12-1.12h-.03c.06-.25.13-.5.23-.75l.03-.06.02-.07.12-.39c.67-1.22 1.82-2.13 3.21-2.43 0 .05-.03.1-.03.16 0 .62.5 1.12 1.12 1.12s1.12-.5 1.12-1.12c0-.04-.02-.08-.02-.12a4.86 4.86 0 0 1 3.57 3.66h-.03c-.62 0-1.12.5-1.12 1.12s.49 1.11 1.11 1.12a4.84 4.84 0 0 1-3.57 3.5c-.04-.59-.51-1.05-1.11-1.05S8.05 21.52 8 22.1c-.06-.02-.13-.02-.19-.04H7.8Zm6.71-8.66-.02.03a6.85 6.85 0 0 0-5.5-2.79h-.06l.25-.79h.24c1.05 0 2.01-.43 2.69-1.13l1.65.99c-.12.37-.19.77-.19 1.17 0 .95.35 1.83.94 2.49Zm.84 1.88 1.64-2.38a2.02 2.02 0 0 1-1.67-1.99c0-.72.38-1.35.94-1.71L11.4 6.27a2.013 2.013 0 0 1-3.37 1.3l-1.12 3.6c-.34.12-.67.26-.98.42l1.95-6.26c.5.38 1.11.61 1.78.61 1.5 0 2.73-1.12 2.93-2.56l5.21 3.14c-.74.54-1.22 1.41-1.22 2.39 0 1.41.99 2.59 2.3 2.89l-3.27 4.74c-.06-.44-.16-.87-.3-1.28ZM10.9 2.97c0 .67-.55 1.22-1.22 1.22s-1.22-.55-1.22-1.22.55-1.22 1.22-1.22 1.22.55 1.22 1.22m8.67 4.73c.67 0 1.22.55 1.22 1.22s-.55 1.22-1.22 1.22-1.22-.55-1.22-1.22.55-1.22 1.22-1.22"/>
</svg>
