<svg viewBox="0 0 48 48" xmlns="http://www.w3.org/2000/svg">
  <path d="m38.58 24.28-1.2-5.99c.7.36 1.49.59 2.33.59 2.82 0 2.82-10.25 0-10.25-1.57 0-2.96.73-3.9 1.85l-.3-1.47V5.59c0-2-1.62-3.63-3.62-3.63h-3.61c-1.24 0-2.25 1.01-2.25 2.25s1.01 2.25 2.25 2.25h2.74v2.99l.24 1.2c-1.74-.44-3.39-.56-4.35-.58-1.38-.03-6.07.01-8.1 2.02l-4.62 4.18h-4.17l-.21-1.81h.53c1.24 0 2.25-1.01 2.25-2.25s-1.01-2.25-2.25-2.25H2.2c-1.24-.01-2.24 1-2.24 2.24s1.01 2.25 2.25 2.25h3.08l1.2 10.41C2.74 26.22.07 29.8.07 34.01c0 5.38 4.35 9.75 9.72 9.75 4.59 0 8.44-3.2 9.45-7.5h4.19l4.14-10.05c1.72-2.56 3.18-3.37 6.16-3.26l.45 2.22a9.76 9.76 0 0 0-5.65 8.85c0 5.38 4.35 9.75 9.72 9.75s9.72-4.37 9.72-9.75-4.17-9.55-9.38-9.73ZM9.79 39.26c-2.88 0-5.23-2.36-5.23-5.25s2.35-5.25 5.23-5.25c2.08 0 3.86 1.23 4.7 3h-4.7c-1.24 0-2.25 1.01-2.25 2.25s1.01 2.25 2.25 2.25h4.7c-.84 1.77-2.63 3-4.7 3m9.45-7.5c-.93-3.93-4.22-6.94-8.3-7.43l-.22-1.95c6.42.47 9.91 4.65 10.01 8.65l-.3.72h-1.18Zm4.46-7.85-.36.86c-1.33-2.15-3.34-4.03-6.02-5.29l4.55-4.11c1.26-1.06 7.72-1.3 10.43.5l.52 2.58c-4.06.11-6.68 1.72-9.13 5.47Zm14.54 15.35c-2.88 0-5.23-2.36-5.23-5.25 0-1.71.83-3.22 2.1-4.18l.93 4.62a2.244 2.244 0 0 0 2.2 1.81c.15 0 .3-.01.44-.04 1.22-.25 2-1.43 1.76-2.65l-.93-4.63c2.27.57 3.95 2.62 3.95 5.07 0 2.89-2.35 5.25-5.23 5.25Z"/>
</svg>
