<svg viewBox="0 0 24 24" xmlns="http://www.w3.org/2000/svg">
  <path d="m19.48 12.16-.51-2.89c.27.1.56.16.87.16 1.41 0 1.41-5.13 0-5.13-.63 0-1.2.24-1.64.62l-.08-.45V2.78c0-1.21-.98-2.19-2.18-2.19h-1.8c-.83 0-1.5.67-1.5 1.5s.67 1.5 1.5 1.5h.99V4.6l.04.22c-.64-.12-1.24-.17-1.71-.18-.94-.02-3.23.04-4.31 1.11l-2.2 1.99H5.53l-.14-.91h.13c.83 0 1.5-.67 1.5-1.5s-.67-1.5-1.5-1.5H1.46c-.83.01-1.5.68-1.5 1.51s.67 1.5 1.5 1.5h.9l.88 5.6A4.85 4.85 0 0 0 .05 17c0 2.69 2.17 4.88 4.85 4.88 2.16 0 3.96-1.42 4.59-3.38h2.46l2.15-5.22c.64-.96 1.17-1.38 2.28-1.43l.18 1.02a4.85 4.85 0 0 0-2.32 4.14c0 2.69 2.17 4.88 4.85 4.88s4.85-2.18 4.85-4.88-1.98-4.64-4.48-4.84ZM4.9 18.88c-1.03 0-1.86-.84-1.86-1.88s.84-1.88 1.86-1.88 1.86.84 1.86 1.88-.84 1.88-1.86 1.88m4.6-3.38a4.83 4.83 0 0 0-3.25-3.16l-.22-1.4c2.58.58 3.96 2.44 3.96 3.87 0 .15.03.3.07.44l-.11.25h-.46Zm2.33-4.17a7.7 7.7 0 0 0-2.11-2.05l1.43-1.3c.63-.43 3.32-.5 4.58.14l.13.76c-1.71.17-2.94.93-4.04 2.45Zm7.28 7.55c-1.03 0-1.86-.84-1.86-1.88s.84-1.88 1.86-1.88 1.86.84 1.86 1.88-.84 1.88-1.86 1.88"/>
</svg>
