<svg viewBox="0 0 32 32" xmlns="http://www.w3.org/2000/svg">
  <path d="M12.12 26.59c1.87 0 3.39-1.52 3.39-3.39s-1.52-3.39-3.39-3.39-3.39 1.52-3.39 3.39 1.52 3.39 3.39 3.39m0-4.78c.77 0 1.39.63 1.39 1.39s-.63 1.39-1.39 1.39-1.39-.63-1.39-1.39.63-1.39 1.39-1.39m17.89-9.52c.01-.07.02-.14.02-.21 0-.09.03-.17.03-.25 0-.04 0-.07-.01-.11a3.49 3.49 0 0 0-1.58-2.9L14.78.57c-.18-.12-.37-.21-.57-.29s-.4-.14-.6-.19c-.03 0-.06-.01-.09-.02-.21-.04-.43-.07-.64-.07h-.08c-.18 0-.35.02-.52.05l-.29.06c-.09.02-.18.05-.26.08-.11.04-.22.07-.32.12-.02 0-.04.02-.06.03-.25.12-.49.28-.7.46l-.13.1c-.1.09-.19.19-.28.29-.03.04-.07.08-.1.12-.09.12-.18.24-.26.37 0 0 0 .02-.01.03-.2.34-.35.71-.43 1.1L4.37 19.04a8.7 8.7 0 0 0-1.03 4.14 8.8 8.8 0 0 0 8.8 8.8h.09c.14 0 .27-.02.41-.03q.225 0 .45-.03c.28-.03.55-.07.82-.13a8.76 8.76 0 0 0 5.72-3.87l9.46-13.7c.5-.52.83-1.2.94-1.96Zm-19.19 4.24c-.07.18-.11.37-.11.57 0 .83.67 1.5 1.5 1.5a1.498 1.498 0 0 0 1.4-2.03c.37.08.74.2 1.09.34.12.05.24.11.35.16a7.3 7.3 0 0 1 2.16 1.63c.03.03.06.07.09.1.06.06.11.13.16.2.65.83 1.12 1.8 1.33 2.87-.13-.04-.26-.06-.4-.06-.83 0-1.5.67-1.5 1.5s.67 1.5 1.5 1.5c.12 0 .23-.02.35-.04-.6 2.52-2.6 4.5-5.14 5.07.01-.08.03-.17.03-.26 0-.83-.67-1.5-1.5-1.5s-1.5.67-1.5 1.5c0 .08.01.15.02.22-.75-.18-1.47-.47-2.12-.9-1.5-.98-2.48-2.48-2.87-4.13.11.02.21.04.33.04.83 0 1.5-.67 1.5-1.5s-.67-1.5-1.5-1.5c-.14 0-.27.02-.4.06.08-.4.19-.79.35-1.17l.03-.07.02-.08.21-.68a6.78 6.78 0 0 1 4.62-3.34m9.56 1.17-.69 1c-.05-.08-.11-.15-.17-.23a8.9 8.9 0 0 0-4.16-3.44l-.24-.09c-.17-.06-.35-.13-.53-.18a9.2 9.2 0 0 0-3.57-.42l.69-2.22a4.88 4.88 0 0 0 4.46-1.71l3.09 1.86c-.25.59-.38 1.23-.38 1.9 0 1.37.57 2.63 1.5 3.52Zm.22 3.2 2.67-3.87a2.89 2.89 0 0 1-2.39-2.85c0-1.03.54-1.93 1.35-2.45l-6.94-4.18c-.14 1.47-1.36 2.63-2.87 2.63-.75 0-1.43-.29-1.95-.77L8.7 15.08c-.42.18-.83.4-1.22.64l3.01-9.65c.62.57 1.44.92 2.35.92 1.82 0 3.3-1.39 3.47-3.17l8.37 5.04c-.98.62-1.63 1.71-1.63 2.95a3.5 3.5 0 0 0 2.89 3.44l-5.06 7.32c-.04-.58-.14-1.14-.28-1.68ZM14.35 3.5c0 .83-.67 1.5-1.5 1.5s-1.5-.67-1.5-1.5.67-1.5 1.5-1.5 1.5.67 1.5 1.5m12.21 9.82c-.83 0-1.5-.67-1.5-1.5s.67-1.5 1.5-1.5 1.5.67 1.5 1.5-.67 1.5-1.5 1.5"/>
</svg>
