<svg viewBox="0 0 32 32" xmlns="http://www.w3.org/2000/svg">
  <path d="M30.02 12.24v-.04c0-.1.03-.2.03-.3 0-.04-.01-.08-.01-.13 0-.73-.21-1.45-.64-2.05a4 4 0 0 0-2.02-1.55L15.53 1.02c-.57-.51-1.27-.85-2.06-.96-.17-.03-.35-.05-.52-.05h-.06c-.22 0-.43.03-.65.07-.1.02-.2.04-.3.07-.05.01-.09.03-.14.04-1.65.48-2.86 1.99-2.86 3.79 0 .11.02.21.03.32L4.08 19.97A8.785 8.785 0 0 0 7.43 30.6a8.76 8.76 0 0 0 4.78 1.42c2.89 0 5.73-1.43 7.4-4.05l8.98-12.99c.81-.66 1.34-1.62 1.44-2.71Zm-3.93-2.31c1.08 0 1.96.88 1.96 1.96s-.88 1.96-1.96 1.96-1.96-.88-1.96-1.96.88-1.96 1.96-1.96M10.93 3.97c0-1.08.88-1.96 1.96-1.96s1.96.88 1.96 1.96-.88 1.96-1.96 1.96-1.96-.88-1.96-1.96m1.19 25.64a6.41 6.41 0 1 1 0-12.82 6.41 6.41 0 0 1 0 12.82m7.05-9.9 2.68-4.42a2.1 2.1 0 0 1-.98-.46 2.05 2.05 0 0 1-.62-.88c-.09-.23-.13-.48-.13-.74 0-.75.39-1.4.98-1.78s-2.01-1.21-2.01-1.21l-3.04-1.83c-.05.54-.3 1.01-.67 1.36s-.87.55-1.42.55c-.14 0-.27-.01-.4-.04-.26-.05-.5-.15-.72-.29-.11-.07-.21-.15-.3-.23l-1.98 5.73c-.55.11-1.08.28-1.58.5l2.59-8.29c.42.15.86.24 1.33.24 1.58 0 2.93-.93 3.57-2.26l6.45 3.88a3.96 3.96 0 0 0-.78 2.34c0 1.46.79 2.72 1.97 3.41l-4.28 6.2a7.8 7.8 0 0 0-.64-1.79Zm-2.72 2.71a4.39 4.39 0 0 0-3.32-3.5c-.18.34-.53.58-.95.58s-.8-.26-.97-.62A4.42 4.42 0 0 0 7.8 22.3c.37.18.62.54.62.98s-.24.76-.58.95c.4 1.68 1.76 2.98 3.47 3.3.2-.22.48-.37.8-.37s.6.15.8.37a4.42 4.42 0 0 0 3.51-3.4c-.25-.2-.43-.5-.43-.84s.18-.66.45-.86Zm-4.33 2.09c-.72 0-1.31-.59-1.31-1.31s.59-1.31 1.31-1.31 1.31.59 1.31 1.31-.59 1.31-1.31 1.31"/>
</svg>
