<svg viewBox="0 0 24 24" xmlns="http://www.w3.org/2000/svg">
  <path d="M19.14 12.12h-.09l-.64-3.16c.41.29.91.46 1.46.46 1.41 0 1.41-5.13 0-5.13-.91 0-1.7.48-2.16 1.19l-.2-.98V2.77c0-.86-.7-1.56-1.56-1.56h-1.81c-.48 0-.88.39-.88.88s.39.88.88.88h1.62V4.6l.21 1.07c-.99-.31-1.99-.39-2.53-.41-1.39-.03-3.13.2-3.89.95L7.16 8.36H4.82L4.59 6.2h.9c.48 0 .88-.39.88-.88s-.39-.88-.88-.88H1.42c-.48 0-.88.39-.88.88s.39.88.88.88h1.42l.66 6.13C1.49 12.95 0 14.79 0 17c0 2.69 2.18 4.88 4.87 4.88 2.39 0 4.37-1.73 4.78-4h1.88l2.02-4.9c.96-1.43 1.8-1.85 3.53-1.75l.25 1.25c-1.8.72-3.08 2.47-3.08 4.52 0 2.69 2.18 4.88 4.87 4.88s4.87-2.18 4.87-4.88-2.18-4.88-4.87-4.88Zm.03-5.65c.02.26.02.54 0 .81-.07-.12-.11-.26-.11-.4s.04-.28.11-.4ZM5.24 12.16l-.07-.62c3.37.32 4.92 2.45 4.94 4.58h-.45c-.39-2.16-2.2-3.8-4.42-3.96m-.36 7.96c-1.72 0-3.12-1.4-3.12-3.12s1.4-3.12 3.12-3.12c1.42 0 2.6.95 2.98 2.25H4.88c-.48 0-.88.39-.88.88s.39.88.88.88h2.98a3.11 3.11 0 0 1-2.98 2.25Zm7.18-8.03-.69 1.65c-.68-1.59-2.06-2.97-4.22-3.62h.71l2.92-2.63c.19-.18 1.14-.52 2.65-.47 1.28.03 2.38.32 2.99.77l.33 1.68c-2.12-.01-3.45.74-4.68 2.62Zm7.08 8.03c-1.72 0-3.12-1.4-3.12-3.12 0-1.2.69-2.23 1.68-2.75l.58 2.93c.08.42.45.7.86.7.06 0 .12 0 .17-.02a.87.87 0 0 0 .68-1.03l-.59-2.92c1.59.14 2.85 1.47 2.85 3.1 0 1.72-1.4 3.12-3.12 3.12Z"/>
</svg>
