<svg viewBox="0 0 48 48" xmlns="http://www.w3.org/2000/svg">
  <path d="M21 27.38h7.75v5.68h-1.31a1.25 1.25 0 0 0 0 2.5h1.31v5.79H21zm10.25 5.68h1.31a1.25 1.25 0 0 1 0 2.5h-1.31v5.79H39V27.38h-7.75zm16.74-7.57v13.74l-1.96 5.72a4.49 4.49 0 0 1-4.26 3.04H18.24c-1.94 0-3.66-1.24-4.27-3.09l-1.98-5.99V25.48c0-2.49 2.01-4.5 4.5-4.5h4.2l8.35-11.73L0 19.89v-2.66L47.11 0H48v2.33L30.88 8.59l7.66 12.4h4.95a4.5 4.5 0 0 1 4.5 4.5m-24.22-4.5h11.84l-5.5-8.91zm17.72 4.39c0-.28-.22-.5-.5-.5h-22c-.28 0-.5.22-.5.5v17.97c0 .28.22.5.5.5h22c.28 0 .5-.22.5-.5z"/>
</svg>
