<svg viewBox="0 0 32 32" xmlns="http://www.w3.org/2000/svg">
  <path d="M28.99 13.99h-3.11l-5-8.1L32 1.87V0h-.72L0 11.32v2.13l18.82-6.81L13.58 14h-2.6c-1.66 0-3 1.34-3 3v8.95l1.32 3.99A3 3 0 0 0 12.15 32h15.69c1.28 0 2.42-.82 2.84-2.03l1.31-3.81V17c0-1.66-1.34-3-3-3Zm-8.94-5.64 3.48 5.64h-7.49zm9.94 17.47-1.2 3.5c-.14.4-.52.68-.95.68H12.15c-.43 0-.81-.28-.95-.69l-1.22-3.69v-8.63c0-.55.45-1 1-1h18c.55 0 1 .45 1 1v8.83Zm-2.83-8.59H12.83c-.28 0-.5.22-.5.5v10.7c0 .28.22.5.5.5h14.33c.28 0 .5-.22.5-.5v-10.7c0-.28-.22-.5-.5-.5m-12.84 2h4.67v2.79h-.71c-.55 0-1 .45-1 1s.45 1 1 1h.71v2.91h-4.67zm11.34 7.7h-4.67v-2.91h.71c.55 0 1-.45 1-1s-.45-1-1-1h-.71v-2.79h4.67z"/>
</svg>
