<svg viewBox="0 0 24 24" xmlns="http://www.w3.org/2000/svg">
  <path d="M14.11 19.83h-3.13V15h3.13v1.3h-.4c-.48 0-.88.39-.88.88s.39.88.88.88h.4v1.78ZM18.98 15h-3.12v1.3h.4c.48 0 .88.39.88.88s-.39.88-.88.88h-.4v1.78h3.12v-4.83ZM15.66 4.6l3.88 5.89h2.19a2.255 2.255 0 0 1 2.25 2.25v6.87L23 22.47a2.25 2.25 0 0 1-2.13 1.52H9.1c-.97 0-1.83-.62-2.14-1.54l-.99-2.99v-6.71c0-.31.06-.61.18-.88a2.24 2.24 0 0 1 2.07-1.37h1.8l4.05-5.33L0 10.19V8.33L23.4 0h.6v1.63zm4.57 8.65H9.73c-.28 0-.5.22-.5.5v7.33c0 .28.22.5.5.5h10.5c.28 0 .5-.22.5-.5v-7.33c0-.28-.22-.5-.5-.5m-2.78-2.75-2.42-3.68-2.79 3.68z"/>
</svg>
