<svg viewBox="0 0 40 40" xmlns="http://www.w3.org/2000/svg">
  <path d="M26.13 23.56h6.21v10.6h-6.21v-4.42h1.01c.62 0 1.12-.5 1.12-1.13s-.5-1.13-1.12-1.13h-1.01v-3.93Zm-8.46 10.6h6.21v-4.42h-1.01c-.62 0-1.12-.5-1.12-1.13s.5-1.13 1.12-1.13h1.01v-3.93h-6.21v10.6ZM40 21.24V32.7l-1.63 4.77a3.75 3.75 0 0 1-3.55 2.54H15.21c-.2 0-.4-.02-.6-.05a3.73 3.73 0 0 1-2.96-2.53L10 32.44V21.25c0-2.07 1.68-3.75 3.75-3.75h3.4l6.79-9.54L0 16.66v-2.37L39.21 0H40v2.1L25.9 7.24l6.33 10.25h4.03c2.07 0 3.75 1.68 3.75 3.75Zm-20.08-3.75h9.67l-4.49-7.27zm14.67 4.32c0-.28-.22-.5-.5-.5H15.92c-.28 0-.5.22-.5.5v14.1c0 .28.22.5.5.5h18.17c.28 0 .5-.22.5-.5z"/>
</svg>
