<svg viewBox="0 0 24 24" xmlns="http://www.w3.org/2000/svg">
  <path d="M9.75 21.58h10.49c.28 0 .5-.22.5-.5v-7.33c0-.28-.22-.5-.5-.5H9.75c-.28 0-.5.22-.5.5v7.33c0 .28.22.5.5.5m9.24-1.75h-3.12v-1.78h.4a.87.87 0 0 0 0-1.74h-.4v-1.3h3.12v4.83ZM11 15h3.12v1.3h-.4a.87.87 0 0 0 0 1.74h.4v1.78H11v-4.83ZM23.99 1.64V0h-.6L0 8.35v1.86l14.1-5.04-4.04 5.33h-1.8c-1.24 0-2.25 1.01-2.25 2.25v6.71L7 22.45c.3.92 1.16 1.54 2.13 1.54h11.76c.96 0 1.82-.61 2.13-1.52l.98-2.86v-6.87c0-1.24-1.01-2.25-2.25-2.25h-2.19L15.68 4.6 24 1.63Zm-1.75 11.11v6.58l-.88 2.58c-.07.2-.26.34-.47.34H9.13c-.22 0-.41-.14-.47-.34l-.9-2.73v-6.43c0-.28.22-.5.5-.5h13.49c.28 0 .5.22.5.5Zm-9.99-2.25 2.79-3.68 2.42 3.68z"/>
</svg>
