<svg viewBox="0 0 40 40" xmlns="http://www.w3.org/2000/svg">
  <path fill="#1e1e1c" d="M37.75 37.69v-2.25H40v-31h-2.25V2.19H40V-.06H0v40h40v-2.25zM21.57 2.19h2.25v2.25h-2.25zm-5.39 0h2.25v2.25h-2.25zM2.25 37.69H0v-2.25h2.25zm0-33.25H0V2.19h2.25zm5.39 33.25H5.39v-2.25h2.25zm0-33.25H5.39V2.19h2.25zm5.4 33.25h-2.25v-2.25h2.25zm0-33.25h-2.25V2.19h2.25zm5.39 33.25h-2.25v-2.25h2.25zm5.39 0h-2.25v-2.25h2.25zm-9.16-11.75c-.28.13-.6-.08-.6-.39l.06-12.16c0-.32.34-.52.62-.37l12.1 6.53c.31.17.29.61-.02.76zm14.56 11.75h-2.25v-2.25h2.25zm0-33.25h-2.25V2.19h2.25zm5.39 33.25h-2.25v-2.25h2.25zm0-33.25h-2.25V2.19h2.25z"/>
</svg>
