<svg viewBox="0 0 16 16" xmlns="http://www.w3.org/2000/svg">
  <path fill="#1e1e1c" d="M0 0v16.01h15.99V0zm7.25 13.49v1.01H5.12v-1.01zm1.5 0h2.13v1.01H8.75zm-7.25-1.5V4h13v7.99zM8.75 2.5v-1h2.13v1zm-1.5 0H5.12v-1h2.13zm7.25 0h-2.13v-1h2.13zm-10.88-1v1H1.5v-1zM1.5 13.49h2.12v1.01H1.5zm10.87 1.01v-1.01h2.13v1.01zm-1.38-7.31L6.34 4.68a.9.9 0 0 0-.9.02c-.28.16-.45.46-.45.78l-.02 4.68a.924.924 0 0 0 .91.92c.13 0 .26-.03.38-.08l4.67-2.16c.31-.15.52-.45.53-.8a.9.9 0 0 0-.48-.83ZM6.47 9.24V6.47l2.77 1.49z"/>
</svg>
