<svg viewBox="0 0 64 64" xmlns="http://www.w3.org/2000/svg">
  <path fill="#1e1e1c" d="M61.25 61.23v-2.75H64V5.5h-2.75V2.75H64V0H0v64h64v-2.77zM38.28 2.75h2.75V5.5h-2.75zm-7.67 0h2.75V5.5h-2.75zm-7.66 0h2.75V5.5h-2.75zM2.75 61.23H0v-2.75h2.75zm0-55.73H0V2.75h2.75zm7.62 55.73H7.62v-2.75h2.75zm0-55.73H7.62V2.75h2.75zm7.66 55.73h-2.75v-2.75h2.75zm0-55.73h-2.75V2.75h2.75zm7.67 55.73h-2.75v-2.75h2.75zm7.66 0h-2.75v-2.75h2.75zm7.67 0h-2.75v-2.75h2.75zm2.05-28.64-19.76 9.14a.69.69 0 0 1-.98-.63l.1-19.76c0-.52.56-.85 1.01-.6l19.66 10.62c.5.27.48.99-.04 1.23Zm5.61 28.64h-2.75v-2.75h2.75zm0-55.73h-2.75V2.75h2.75zm7.67 55.73h-2.75v-2.75h2.75zm0-55.73h-2.75V2.75h2.75z"/>
</svg>
