<svg viewBox="0 0 48 48" xmlns="http://www.w3.org/2000/svg">
  <path fill="#1e1e1c" d="M0 0v48h48V0zm25.97 3.17h2.5v2.5h-2.5zm-6.49 0h2.5v2.5h-2.5zM2.5 45.51H0v-2.5h2.5zm0-39.84H0v-2.5h2.5zm6.52 39.84h-2.5v-2.5h2.5zm0-39.84h-2.5v-2.5h2.5zm6.48 39.84H13v-2.5h2.5zm0-39.84H13v-2.5h2.5zm6.48 39.84h-2.5v-2.5h2.5zm6.49 0h-2.5v-2.5h2.5zm3.76-21.07-14.67 6.79a.504.504 0 0 1-.72-.47l.07-14.66c0-.38.41-.63.75-.45l14.59 7.88c.37.2.35.74-.03.91Zm2.72 21.07h-2.5v-2.5h2.5zm0-39.84h-2.5v-2.5h2.5zm6.48 39.84h-2.5v-2.5h2.5zm0-39.84h-2.5v-2.5h2.5zm6.56 39.84h-2.5v-2.5h2.5zm0-39.84h-2.5v-2.5h2.5z"/>
</svg>
