<svg viewBox="0 0 64 64" xmlns="http://www.w3.org/2000/svg">
  <path fill="#1e1e1c" d="M.01 0v54.83a1.1 1.1 0 0 0 0 .5V64h63.97V0zM15.3 56.46v4.8h-4.91v-4.8zm2.75 0h4.91v4.8h-4.91zm7.65 0h4.91v4.8H25.7zm7.66 0h4.91v4.8h-4.91zm7.66 0h4.91v4.8h-4.91zm7.65 0h4.91v4.8h-4.91zM2.76 53.71V10.27h58.48V53.7H2.76ZM48.67 7.53V2.75h4.91v4.78zm-2.74 0h-4.91V2.75h4.91zm-7.66 0h-4.91V2.75h4.91zm-7.66 0H25.7V2.75h4.91zm-7.65 0h-4.91V2.75h4.91zm-7.66 0h-4.91V2.75h4.91zm45.94 0h-4.91V2.75h4.91zM7.65 2.75v4.78H2.76V2.75h4.88ZM2.76 56.46h4.88v4.8H2.76zm53.57 4.79v-4.8h4.91v4.8zM43.76 30.16 24.12 19.55c-.64-.35-1.4-.33-2.03.04s-1.01 1.03-1.01 1.76l-.1 19.74a2.055 2.055 0 0 0 2.92 1.88l19.74-9.14c.71-.33 1.17-1.02 1.19-1.81s-.39-1.5-1.08-1.88Zm-20.02 9.87.09-17.52 17.42 9.41-17.51 8.1Z"/>
</svg>
