<svg viewBox="0 0 24 24" xmlns="http://www.w3.org/2000/svg">
  <path fill="#1e1e1c" d="M0 0v24h23.99V0zm8.91 20.15v2.09H6.22v-2.09zm1.75 0h2.7v2.09h-2.7zm4.45 0h2.69v2.09h-2.69zM1.75 18.4V5.59h20.49V18.4zM15.11 3.84V1.75h2.69v2.09zm-1.75 0h-2.7V1.75h2.7zm-4.45 0H6.22V1.75h2.69zm-4.44 0h-2.7V1.75h2.7zm17.78 0h-2.7V1.75h2.7zM1.75 20.15h2.71v2.09H1.75zm17.8 2.1v-2.09h2.7v2.09zM16.45 11 9.31 7.14c-.35-.19-.76-.18-1.11.03-.34.2-.55.56-.55.96l-.04 7.17c0 .39.19.74.52.95a1.09 1.09 0 0 0 1.08.07L16.38 13c.39-.18.64-.56.65-.99s-.21-.82-.59-1.02Zm-7.07 3.33.03-5.14 5.12 2.76-5.14 2.38Z"/>
</svg>
