<svg viewBox="0 0 48 48" xmlns="http://www.w3.org/2000/svg">
  <path fill="#1e1e1c" d="M.01 0v40.31s-.02.06-.02.1.02.06.02.1v7.5h47.98V0zM13 41.66v3.85H9.02v-3.85zm2.5 0h3.98v3.85H15.5zm6.48 0h3.98v3.85h-3.98zm6.49 0h3.98v3.85h-3.98zm6.48 0h3.98v3.85h-3.98zm-32.44-2.5V8.84h42.98v30.32zM34.95 6.34V2.51h3.98v3.83zm-2.5 0h-3.98V2.51h3.98zm-6.48 0h-3.98V2.51h3.98zm-6.49 0H15.5V2.51h3.98zm-6.48 0H9.02V2.51H13zm32.49 0h-4.06V2.51h4.06zM6.52 2.51v3.83H2.51V2.51zM2.51 41.66h4.01v3.85H2.51zm38.92 3.84v-3.85h4.06v3.85zm-8.58-23.07-14.59-7.88c-.55-.29-1.2-.28-1.73.04s-.86.88-.86 1.5l-.08 14.67c0 .61.3 1.16.81 1.49.29.19.62.28.95.28.25 0 .5-.05.74-.16l14.66-6.79c.61-.28 1-.87 1.02-1.54s-.33-1.29-.92-1.6Zm-14.76 7.18.06-12.27 12.2 6.59z"/>
</svg>
