<svg viewBox="0 0 24 24" xmlns="http://www.w3.org/2000/svg">
  <path d="M7.64 3.09v14.63c-.81-.49-1.82-.79-2.94-.79-2.6 0-4.7 1.58-4.7 3.53s2.1 3.53 4.7 3.53 4.7-1.58 4.7-3.53c0-.03-.01-.06-.01-.09V9.16l12.86-2.45v7.98c-.81-.49-1.83-.8-2.95-.8-2.6 0-4.7 1.58-4.7 3.53s2.1 3.53 4.7 3.53 4.7-1.58 4.7-3.53V-.03zM4.7 22.22c-1.69 0-2.95-.94-2.95-1.77s1.26-1.77 2.95-1.77 2.87.89 2.94 1.7v.07h.01c0 .84-1.26 1.77-2.95 1.77m14.6-3.04c-1.69 0-2.95-.94-2.95-1.77s1.26-1.77 2.95-1.77 2.95.94 2.95 1.77-1.26 1.77-2.95 1.77m2.95-14.27L9.39 7.36V4.54l12.86-2.45z"/>
</svg>
