<svg viewBox="0 0 64 64" xmlns="http://www.w3.org/2000/svg">
  <path d="M64 46.42c0 .97-.2 1.91-.56 2.8-1.59 3.83-6.35 6.61-11.97 6.61s-10.38-2.78-11.97-6.61c-.37-.88-.56-1.82-.56-2.8 0-5.19 5.61-9.4 12.53-9.4 2.83 0 5.44.71 7.53 1.9v-21l-33.94 6.42v30.19c0 1.3-.35 2.54-.98 3.66-.32.56-.71 1.1-1.16 1.6s-.96.97-1.53 1.39c-2.27 1.7-5.4 2.75-8.86 2.75s-6.59-1.05-8.86-2.75c-.57-.43-1.08-.89-1.53-1.39s-.84-1.03-1.16-1.6C.35 57.06 0 55.82 0 54.52c0-.97.2-1.91.56-2.8 1.59-3.83 6.35-6.61 11.97-6.61 2.83 0 5.43.71 7.53 1.9V8.23L64-.07z"/>
</svg>
