<svg viewBox="0 0 64 64" xmlns="http://www.w3.org/2000/svg">
  <path d="m64-.07-41.65 8.3v40.44c-2.31-2.16-5.84-3.56-9.81-3.56C5.61 45.12 0 49.33 0 54.52s5.61 9.4 12.53 9.4 12.53-4.21 12.53-9.4.02 0 .02 0V24.73l36.16-7.21v23.03c-2.3-2.16-5.82-3.54-9.79-3.54-6.92 0-12.53 4.21-12.53 9.4s5.61 9.4 12.53 9.4 12.53-4.21 12.53-9.4V-.07ZM12.53 61.17c-5.3 0-9.78-3.04-9.78-6.65s4.48-6.65 9.78-6.65 9.78 3.04 9.78 6.65-4.48 6.65-9.78 6.65m48.72-46.46L25.1 21.92V10.5l36.15-7.21zm-9.78 38.35c-5.3 0-9.78-3.04-9.78-6.65s4.48-6.65 9.78-6.65 9.78 3.04 9.78 6.65-4.48 6.65-9.78 6.65"/>
</svg>
