<svg viewBox="0 0 40 40" xmlns="http://www.w3.org/2000/svg">
  <path d="M40.01 29.01h-.02c0 .61-.12 1.2-.35 1.75-.38.92-1.06 1.74-1.94 2.41-.35.27-.74.51-1.16.72s-.86.39-1.33.54c-.94.3-1.97.46-3.05.46s-2.11-.16-3.05-.46c-.47-.15-.91-.33-1.33-.54s-.8-.45-1.16-.72c-.89-.66-1.56-1.49-1.94-2.41a4.5 4.5 0 0 1-.31-2.35c.05-.4.16-.78.31-1.15.31-.74.8-1.41 1.44-1.99 1.44-1.31 3.61-2.14 6.04-2.14 1.4 0 2.71.28 3.85.76V11.33l-20.34 3.73v19.01c0 .61-.12 1.2-.35 1.75-.38.92-1.06 1.74-1.94 2.41-.35.27-.74.51-1.16.72-1.25.63-2.76 1-4.38 1-1.15 0-2.24-.19-3.23-.53-.4-.14-.79-.29-1.15-.48-.21-.11-.41-.22-.6-.34-.28-.17-.54-.37-.78-.57-.77-.63-1.37-1.38-1.71-2.22a4.5 4.5 0 0 1-.31-2.35c.05-.4.16-.78.31-1.15.31-.74.8-1.41 1.44-1.99 1.44-1.31 3.61-2.14 6.04-2.14 1.4 0 2.7.28 3.84.76V5.14l28.3-5.19z"/>
</svg>
