<svg viewBox="0 0 40 40" xmlns="http://www.w3.org/2000/svg">
  <path d="M40.03 3.61h-14.4l-7.56 6.61h-.02v13.37H9.02v16.42h21.85V25.7h2.62v-.06l6.54-6.38zM26.47 5.86h9.74l-4.31 4.36H21.48zm-5.46 26.08c-.58.62-1.55.62-2.13 0l-5.68-6.11h13.5l-5.68 6.11Zm-5.37-.18-4.37 4.38v-9.08zm1.53 1.64.07.07c.72.77 1.68 1.2 2.71 1.2s1.99-.42 2.71-1.2l.02-.02 4.29 4.3H12.82l4.35-4.36Zm7.04-1.59 4.42-4.75v9.18zm7.04-8.36H20.3V12.47h10.95zm2.24-.95V11.81l4.29-4.34v10.84zm-4.68-4.72h-2.83v-2.84h2.83zM8.04 0C3.62 0 .03 3.61.03 8.04c0 5.34 6.92 12.33 7.22 12.63l.79.79.79-.79c.3-.3 7.22-7.29 7.22-12.63C16.05 3.61 12.46 0 8.04 0m0 18.24c-2.13-2.33-5.77-7-5.77-10.2s2.59-5.78 5.77-5.78 5.77 2.59 5.77 5.78-3.64 7.87-5.77 10.2m0-13.29c-1.72 0-3.12 1.4-3.12 3.12s1.4 3.12 3.12 3.12 3.12-1.4 3.12-3.12-1.4-3.12-3.12-3.12m0 4a.87.87 0 1 1 .001-1.741.87.87 0 0 1-.001 1.741"/>
</svg>
