<svg viewBox="0 0 24 24" xmlns="http://www.w3.org/2000/svg">
  <path d="M24.01 0h-5.26L7.69-.02 0 0v23.99h24v-1.75h-5.26v-7.61H24v-1.75h-5.26V8.05H24V6.3h-5.26V1.74H24V0ZM7.69 1.74v4.55H1.76V1.74zm0 11.13H1.76V8.04h5.93zm1.75 5.48H17v3.63H9.44zm0-1.75V6.22H17v10.39H9.44Zm-7.68 5.63v-7.61h5.93v7.61zM17 4.47H9.44V1.74H17v2.72Zm-11.31.47H3.94V3.19h1.75zm-1.75 6.4V9.59h1.75v1.75zm1.75 5.34v1.75H3.94v-1.75zM20.52 4.94V3.19h1.75v1.75zm0 6.4V9.59h1.75v1.75zm0 7.09v-1.75h1.75v1.75zM10.78 7.96v6.47h4.75V7.96zm3 4.72h-1.25V9.72h1.25z"/>
</svg>
