<svg viewBox="0 0 24 24" xmlns="http://www.w3.org/2000/svg">
  <path d="M5.75 21.52H3.07v-.83c.67-.46 1.52-1.14 1.52-1.65 0-.29-.24-.41-.56-.41-.3 0-.63.1-.9.28v-.88c.31-.14.76-.24 1.18-.24.81 0 1.38.39 1.38 1.13 0 .59-.33 1.07-1.2 1.75h1.25v.84Zm1.97-.73H6.11v-.68l1.68-2.26h.96v2.12h.46v.82h-.46v.73H7.73v-.73Zm.1-.82v-.99l-.71.99zm6.97-6.26c.56.2 1.14.35 1.75.41v4.92L11.58 24H0V12.41l4.96-4.96h4.93c.07.61.21 1.19.41 1.75H5.69l-2.48 2.48h7.81l.42-.43c.36.46.77.88 1.23 1.25l-.37.37-.04 7.99 2.55-2.55V13.7Zm-4.26-.28H1.75v8.82h8.74l.05-8.82ZM24 6.65c0 3.67-2.97 6.65-6.64 6.65s-6.64-2.98-6.64-6.65S13.68 0 17.35 0s6.64 2.98 6.64 6.65ZM13.49 9.62l6.83-6.83c-.83-.64-1.85-1.04-2.97-1.04-2.7 0-4.89 2.2-4.89 4.89 0 1.12.4 2.15 1.03 2.97Zm8.76-2.97c0-.94-.28-1.81-.74-2.56L14.8 10.8c.75.46 1.62.74 2.56.74 2.7 0 4.89-2.2 4.89-4.89"/>
</svg>
