<svg viewBox="0 0 16 16" xmlns="http://www.w3.org/2000/svg">
  <path d="M6.44 4.95c.1.94.43 1.8.96 2.52l-.13.13H.65l2.66-2.66h3.14ZM4.78 12.3l-.47.66h.47zm3.59-3.67v6.72l2.67-2.67V9.55c-.96-.1-1.84-.45-2.58-1.01l-.1.1ZM0 9.1h6.87v6.88H0zm3.64 4.4h1.08v.49h.68v-.49h.31v-.55H5.4v-1.41h-.64l-1.12 1.5v.45Zm-2.03.49h1.78v-.56h-.84c.58-.46.8-.78.8-1.17 0-.49-.38-.75-.92-.75-.28 0-.58.07-.79.16v.58c.18-.12.4-.18.6-.18.22 0 .38.08.38.27 0 .34-.57.79-1.02 1.1v.55ZM16 4.42c0 2.45-1.98 4.43-4.43 4.43S7.14 6.87 7.14 4.42 9.13-.01 11.57-.01 16 1.97 16 4.42m-7.36 0c0 .6.18 1.15.49 1.62l4.06-4.06c-.46-.31-1.02-.49-1.61-.49-1.62 0-2.93 1.31-2.93 2.93Zm5.86 0c0-.47-.12-.91-.32-1.31l-3.92 3.92c.4.2.84.32 1.31.32 1.62 0 2.93-1.31 2.93-2.93"/>
</svg>
