<svg viewBox="0 0 48 48" xmlns="http://www.w3.org/2000/svg">
  <path d="m46.32 6.66-5.97 6.02H26.27l6.9-6.02zm-21.25 8.52h14.56v14.55H25.07zm7.74 6.84h3.26v-3.26h-3.26zm9.31-7.58v14.34l5.95-5.79V8.44zM19.15 9.53c0 6.36-8.3 14.73-8.65 15.08l-.88.88-.88-.88C8.37 24.26.07 15.9.07 9.53.07 4.28 4.35 0 9.61 0s9.54 4.28 9.54 9.53m-5.89.05c0-2.01-1.64-3.65-3.65-3.65S5.96 7.57 5.96 9.58s1.64 3.65 3.65 3.65 3.65-1.64 3.65-3.65m14.88 32.56c-.89.95-2.08 1.48-3.35 1.48s-2.46-.53-3.35-1.48l-.23-.25-6.11 6.1h19.26l-6.04-6.04-.17.18Zm8.07 4.18V33.49l-6.19 6.64zm-9.9-5.88 7.66-8.21H15.6l7.66 8.21c.83.89 2.23.88 3.05 0M13.36 33.5v12.7l6.13-6.13z"/>
</svg>
