<svg viewBox="0 0 64 64" xmlns="http://www.w3.org/2000/svg">
  <path d="M41.3 5.95 29.13 16.57l.15.17v21.54H14.62v25.68h34.57V40.81h4.25v-.05l.11.11 10.5-10.21V5.95zm1.04 2.75h17.03l-7.87 7.94H33.24zm-8.37 42.95c-1.11 1.19-3 1.19-4.11 0l-9.91-10.62h23.93zm-8.43-.6-8.15 8.15V42.31zm2.3 2.48c1.08 1.16 2.53 1.8 4.07 1.8s2.99-.64 4.07-1.8l.35-.37 8.05 8.04H19.29l8.13-8.13.42.45Zm10.37-2.39 8.23-8.82v17.04zm-20.83 9.94.12.12h-.12zm33.31-23.04H32.04V19.4h18.65zm2.76-.93V18.59l7.85-7.92v18.81l-7.85 7.64Zm-7.61-9.12h-3.71v-3.71h3.71zM12.6-.05C5.68-.05.05 5.58.05 12.5c0 8.45 11.1 19.64 11.58 20.12l.97.97.97-.97c.47-.47 11.58-11.67 11.58-20.12 0-6.92-5.63-12.55-12.55-12.55m0 29.69c-2.65-2.87-9.8-11.16-9.8-17.15 0-5.39 4.4-9.78 9.8-9.78s9.8 4.39 9.8 9.79c0 5.99-7.14 14.28-9.8 17.15Zm0-21.7c-2.54 0-4.61 2.07-4.61 4.61s2.07 4.61 4.61 4.61 4.61-2.07 4.61-4.61-2.07-4.61-4.61-4.61m0 6.47c-1.02 0-1.86-.83-1.86-1.86s.83-1.86 1.86-1.86 1.86.83 1.86 1.86-.83 1.86-1.86 1.86"/>
</svg>
