<svg viewBox="0 0 40 40" xmlns="http://www.w3.org/2000/svg">
  <path d="M.07 21.65h12.91v-8.84H.07zm7.61-5.55v2.25H5.44V16.1zM15.23-.06h13.41v7.54H15.23zm13.41 30.24v9.76H15.23v-9.76zM12.98 10.56V-.06H.07v10.62zM5.44 4.01h2.24v2.25H5.44zm7.54 19.89H.07v16.04h12.91zm-7.54 6.41v-2.25h2.24v2.25zM40.07 1.06V-.06h-9.19v10.62h9.19v2.25h-9.19v8.84h9.19v2.25h-9.19v16.04h9.19zm-3.27 5.2h-2.24V4.01h2.24zm0 12.09h-2.24V16.1h2.24zm0 11.96h-2.24v-2.25h2.24zM28.64 9.73H15.23v18.2h13.41zm-9.22 12.24v-7.94h5.04v7.94z"/>
</svg>
