<svg viewBox="0 0 32 32" xmlns="http://www.w3.org/2000/svg">
  <path d="M7.67 28.68H4.1v-1.11c.89-.61 2.03-1.52 2.03-2.2 0-.38-.32-.55-.75-.55-.4 0-.84.13-1.2.37v-1.17c.41-.18 1.02-.32 1.58-.32 1.08 0 1.84.52 1.84 1.51 0 .79-.44 1.42-1.6 2.34h1.67v1.12Zm2.64-.97H8.16v-.91l2.24-3.01h1.28v2.83h.62v1.09h-.62v.97h-1.37zm.12-1.09V25.3l-.94 1.32zm9.64-8.39c.64.21 1.31.36 2 .43v6.71l-6.61 6.62H0V16.52L6.61 9.9h6.72c.07.69.22 1.36.43 2H7.44l-3.81 3.81h11.13l.68-.7c.42.52.89 1 1.4 1.43l-.62.63-.06 11.37 3.91-3.91v-6.31Zm-5.85-.51H2v12.27h12.15zM32 8.86c0 4.9-3.97 8.87-8.86 8.87s-8.86-3.97-8.86-8.87S18.24 0 23.14 0 32 3.97 32 8.87Zm-14.16 4.36 9.65-9.66A6.8 6.8 0 0 0 23.14 2c-3.78 0-6.86 3.08-6.86 6.87 0 1.65.59 3.17 1.56 4.36ZM30 8.86c0-1.41-.43-2.72-1.16-3.82l-9.51 9.52c1.09.73 2.4 1.16 3.81 1.16 3.78 0 6.86-3.08 6.86-6.87Z"/>
</svg>
