<svg viewBox="0 0 48 48" xmlns="http://www.w3.org/2000/svg">
  <path d="M20.26 14.96c.32 2.87 1.48 5.5 3.24 7.62l-1.31 1.34H.92l8.96-8.96h10.39Zm-5.4 23.06-1.41 1.97h1.41zm9.17-12.41-.1 21.63 9.1-9.11V27.75c-2.95-.34-5.63-1.56-7.78-3.4l-1.22 1.25Zm-24.06.81h21.56l-.1 21.62H-.03zm11.47 15.21h3.23v1.45h2.05v-1.45h.92v-1.64h-.92v-4.24H14.8l-3.35 4.51v1.36Zm-6.08 1.45h5.35V41.4h-2.5c1.74-1.37 2.4-2.33 2.4-3.5 0-1.48-1.14-2.26-2.76-2.26-.84 0-1.75.2-2.37.48v1.75c.54-.35 1.21-.55 1.8-.55.65 0 1.12.24 1.12.82 0 1.02-1.71 2.38-3.05 3.29v1.66Zm42.61-29.76c0 7.34-5.95 13.28-13.28 13.28s-13.28-5.95-13.28-13.28S27.36.04 34.69.04s13.28 5.95 13.28 13.28m-21.41 7.07L41.75 5.2a10.7 10.7 0 0 0-7.06-2.66c-5.94 0-10.78 4.84-10.78 10.78 0 2.7 1.01 5.17 2.66 7.07Zm18.91-7.07c0-2.34-.76-4.51-2.03-6.28L28.42 22.07c1.77 1.27 3.93 2.03 6.28 2.03 5.94 0 10.78-4.84 10.78-10.78Z"/>
</svg>
