<svg viewBox="0 0 24 24" xmlns="http://www.w3.org/2000/svg">
  <path d="M6.9 20.75h-.78l.78-1.09zm6.33-11.54H4.45l-3.02 3.02h9.04l2.77-2.83v-.19ZM0 13.98h10L9.94 24H0zm5.01 7.67H6.8v.8h1.13v-.8h.51v-.91h-.51V18.4H6.87l-1.86 2.5zm-3.37.81H4.6v-.93H3.21c.96-.76 1.33-1.29 1.33-1.94 0-.82-.63-1.25-1.53-1.25-.46 0-.97.11-1.31.26v.97c.3-.19.67-.3 1-.3.36 0 .62.13.62.45 0 .56-.95 1.32-1.69 1.82v.92Zm11.59-7.49V11.9l-1.48 1.52-.05 9.23 3.1-3.1v-1.82c-.93-.57-1.57-1.59-1.57-2.76M22.49 0h-6c-.83 0-1.5.67-1.5 1.5v9.18H24V1.5C23.99.67 23.32 0 22.49 0m-7.5 12.43H24v2.53c0 .83-.67 1.5-1.5 1.5h-6c-.83 0-1.5-.67-1.5-1.5v-2.53Zm3.62 2.54h1.75v-1.75h-1.75z"/>
</svg>
