<svg viewBox="0 0 48 48" xmlns="http://www.w3.org/2000/svg">
  <path d="M14.36 0-.02 14.37v33.62H33.6l14.38-14.38V0zm1.03 2.49h27.9L32.47 13.55H4.33zM2.48 16.06h29.37V45.5H2.48zm31.87 27.65v-28.5L45.48 3.83v28.75zM12.8 37.87h3.64v2.43H8.67v-2.4c1.94-1.33 4.42-3.3 4.42-4.78 0-.83-.69-1.19-1.63-1.19-.86 0-1.83.29-2.62.8v-2.54c.89-.4 2.22-.69 3.44-.69 2.36 0 4.01 1.14 4.01 3.28 0 1.71-.96 3.1-3.48 5.09Zm12.35-2.05v-6.15h-2.79l-4.87 6.55v1.97h4.69v2.11h2.97v-2.11h1.34v-2.37zm-2.7 0H20.4l2.05-2.87z"/>
</svg>
