<svg viewBox="0 0 16 16" xmlns="http://www.w3.org/2000/svg">
  <path d="M3.9 14H2.12v-.55c.45-.3 1.02-.76 1.02-1.1 0-.19-.16-.27-.38-.27-.2 0-.42.07-.6.18v-.58c.21-.09.51-.16.79-.16.54 0 .92.26.92.75 0 .39-.22.71-.8 1.17h.84V14Zm1.32-.48H4.14v-.45l1.12-1.5h.64v1.41h.31v.55H5.9v.49h-.68v-.49Zm.06-.55v-.66l-.47.66zM9.54 9.2c.47.2.98.31 1.5.36v3.13L7.73 16H0V8.27l3.31-3.31h3.14c.05.52.16 1.03.36 1.5H3.93L2.77 7.62h4.5l.13-.13c.3.41.65.76 1.06 1.07l-.1.1v4.59l1.17-1.17V9.2Zm-2.67-.08H1.5v5.38h5.37zM16 4.43c0 2.45-1.98 4.43-4.43 4.43S7.14 6.88 7.14 4.43 9.13 0 11.57 0 16 1.98 16 4.43m-7.36 0c0 .6.18 1.15.49 1.62l4.06-4.06c-.46-.31-1.02-.49-1.61-.49-1.62 0-2.93 1.31-2.93 2.93Zm5.86 0c0-.47-.12-.91-.32-1.31l-3.92 3.92c.4.2.84.32 1.31.32 1.62 0 2.93-1.31 2.93-2.93"/>
</svg>
