<svg viewBox="0 0 32 32" xmlns="http://www.w3.org/2000/svg">
  <path d="m28.32 19.1 3.67-3.61V6.17l-3.67 3.71zM22.21 4.74l-4.17 3.61h8.98l3.57-3.61zm-9.49 1.62c0 4.2-5.43 9.67-5.66 9.9l-.71.71-.71-.71C5.42 16.04 0 10.56 0 6.36 0 2.85 2.85 0 6.36 0s6.36 2.86 6.36 6.37Zm-4.36.03c0-1.1-.9-2-2-2s-2 .9-2 2 .9 2 2 2 2-.9 2-2m8.51 3.96h9.45v9.45h-9.45zm4.88 4.71h2.51v-2.51h-2.51zm2.21 15.54v-7.7l-3.72 3.98zm-7.43-1.22c-.89 0-1.73-.37-2.35-1.04l-.03-.04-3.69 3.69h12.08l-3.65-3.65c-.62.67-1.46 1.03-2.35 1.03Zm0-2c.33 0 .65-.14.89-.4l4.79-5.14H10.85l4.79 5.14c.24.26.56.4.89.4M9.1 22.9v7.62l3.68-3.68z"/>
</svg>
