<svg viewBox="0 0 32 32" xmlns="http://www.w3.org/2000/svg">
  <path d="M9.56 0-.02 9.59v22.42H22.4l9.58-9.58V0zm.83 2.01h17.89l-6.71 6.88H3.52l6.88-6.88Zm-8.41 8.87h19.08V30H1.98zm21.08 17.63V10.22l6.92-7.09v18.46zM8.53 25.26h2.42v1.62H5.78v-1.6c1.29-.88 2.95-2.2 2.95-3.18 0-.55-.46-.79-1.09-.79-.58 0-1.22.2-1.75.53v-1.69c.6-.27 1.48-.46 2.29-.46 1.57 0 2.67.76 2.67 2.19 0 1.14-.64 2.06-2.32 3.39Zm8.22-1.37v-4.1h-1.86l-3.25 4.36v1.31h3.12v1.41h1.98v-1.41h.89v-1.58h-.89Zm-1.79 0h-1.37l1.37-1.91z"/>
</svg>
