<svg viewBox="0 0 48 48" xmlns="http://www.w3.org/2000/svg">
  <path d="M11.46 43.07H6.11v-1.66c1.34-.91 3.05-2.27 3.05-3.29 0-.57-.48-.82-1.12-.82-.59 0-1.26.2-1.8.55V36.1c.62-.28 1.53-.48 2.37-.48 1.62 0 2.76.78 2.76 2.26 0 1.18-.66 2.13-2.4 3.5h2.5v1.68Zm3.95-1.46h-3.23v-1.36l3.35-4.51h1.92v4.24h.92v1.64h-.92v1.45H15.4v-1.45Zm.19-1.63v-1.97l-1.41 1.97zm14.94-12.75c.81.24 1.64.41 2.5.51v10.38l-9.91 9.91H-.03V24.86l9.91-9.91h10.39c.1.86.27 1.69.51 2.5h-9.86l-6.46 6.46H22.2l1.31-1.34c.53.64 1.12 1.23 1.76 1.78l-1.22 1.25-.1 18.1 6.61-6.61v-9.85Zm-9.01-.83H2.47v19.12h18.96l.11-19.12Zm26.44-13.09c0 7.34-5.95 13.28-13.28 13.28s-13.28-5.95-13.28-13.28S27.36.03 34.69.03s13.28 5.95 13.28 13.28m-21.4 7.06L41.76 5.18a10.7 10.7 0 0 0-7.06-2.66c-5.94 0-10.78 4.84-10.78 10.78 0 2.7 1.01 5.17 2.66 7.07Zm18.9-7.06c0-2.34-.76-4.51-2.03-6.28L28.42 22.06c1.77 1.27 3.93 2.03 6.28 2.03 5.94 0 10.78-4.84 10.78-10.78Z"/>
</svg>
