<svg viewBox="0 0 32 32" xmlns="http://www.w3.org/2000/svg">
  <path d="m17.98 12.43-4.17 4.26H1.61l4.28-4.28h12.08v.02Zm0 6.27v-3.41l-2.69 2.76-.07 12.44 4.39-4.38v-4.32c-.98-.68-1.62-1.8-1.62-3.08ZM0 18.69h13.28L13.21 32H0zm6.72 10.74h2.3v1.04h1.46v-1.04h.66v-1.17h-.66v-3.02H9.11l-2.39 3.22zm-4.34 1.03H6.2v-1.2H4.41c1.24-.98 1.71-1.66 1.71-2.5 0-1.05-.81-1.61-1.97-1.61-.6 0-1.25.14-1.69.34v1.25c.39-.25.86-.39 1.29-.39.46 0 .8.17.8.58 0 .73-1.22 1.7-2.17 2.35zm6.78-3.61-1.01 1.41h1.01zM31.7.77a1.7 1.7 0 0 0-.77-.64 2 2 0 0 0-.68-.14h-8.51c-.12 0-.24.01-.35.04-.11.02-.22.06-.33.1-.63.27-1.07.89-1.07 1.61v11.58h12.02V1.75c0-.36-.11-.7-.3-.98ZM19.98 15.33H32v3.38c0 .36-.11.7-.3.98-.06.09-.13.18-.21.26-.32.32-.76.51-1.24.51h-8.54c-.37 0-.71-.13-.99-.33-.32-.23-.55-.57-.66-.96-.01-.04-.03-.09-.03-.13-.02-.1-.03-.21-.03-.32v-3.38Zm5.01 3.38h2v-2h-2z"/>
</svg>
