<svg viewBox="0 0 32 32" xmlns="http://www.w3.org/2000/svg">
  <path d="M16.84 16.46a9.83 9.83 0 0 0 5.23 2.22v6.71l-5.91 5.92.07-14.21.62-.63Zm-7.32 8.85-.94 1.32h.94zM6.61 9.92.8 15.73h13.96l.68-.7a9.76 9.76 0 0 1-2.11-5.11zM0 17.74h14.22l-.07 14.27H0zm7.24 9.98h2.15v.97h1.37v-.97h.62v-1.09h-.62V23.8H9.48l-2.24 3.01zm-4.06.98h3.57v-1.12H5.08c1.16-.91 1.6-1.55 1.6-2.34 0-.99-.76-1.51-1.84-1.51-.56 0-1.17.13-1.58.32v1.17c.36-.23.81-.37 1.2-.37.43 0 .75.16.75.55 0 .68-1.14 1.59-2.03 2.2v1.11ZM32 8.87c0 4.9-3.97 8.87-8.86 8.87s-8.86-3.97-8.86-8.87S18.24 0 23.14 0 32 3.97 32 8.87m-14.16 4.36 9.65-9.66a6.8 6.8 0 0 0-4.35-1.56c-3.78 0-6.86 3.08-6.86 6.87 0 1.65.59 3.17 1.56 4.36ZM30 8.87c0-1.41-.43-2.72-1.16-3.82l-9.51 9.52c1.09.73 2.4 1.16 3.81 1.16 3.78 0 6.86-3.08 6.86-6.87Z"/>
</svg>
