<svg viewBox="0 0 64 64" xmlns="http://www.w3.org/2000/svg">
  <path d="M15.31 57.38H8.17v-2.21c1.78-1.22 4.06-3.03 4.06-4.39 0-.77-.64-1.09-1.5-1.09-.79 0-1.68.27-2.41.74v-2.34c.82-.37 2.04-.64 3.16-.64 2.17 0 3.68 1.05 3.68 3.02 0 1.57-.88 2.85-3.2 4.68h3.34v2.24Zm5.27-1.94h-4.3v-1.81l4.47-6.02h2.56v5.65h1.23v2.18h-1.23v1.94h-2.73zm.25-2.18v-2.63l-1.88 2.63zm20.51-17.09c.89.24 1.81.43 2.75.53v14.07L30.88 63.99H-.03V33.06l13.21-13.22h14.1c.1.94.29 1.86.53 2.75H14.32l-9.49 9.5h24.91l1.97-2.02c.59.7 1.24 1.35 1.93 1.96l-1.86 1.91-.14 25.4 9.7-9.7zm-12.31-1.32H2.72v26.4h26.16zm34.94-17.12c0 9.79-7.93 17.73-17.72 17.73s-17.72-7.94-17.72-17.73S36.47 0 46.26 0s17.72 7.94 17.72 17.73Zm-28.88 9.94 21.22-21c-2.66-2.42-6.18-3.91-10.05-3.91-8.25 0-14.97 6.72-14.97 14.98 0 3.81 1.44 7.29 3.8 9.94Zm26.13-9.94c0-3.4-1.15-6.52-3.06-9.04L37.09 29.54c2.53 1.97 5.71 3.16 9.16 3.16 8.25 0 14.97-6.72 14.97-14.98Z"/>
</svg>
