<svg viewBox="0 0 40 40" xmlns="http://www.w3.org/2000/svg">
  <path d="m22.71 15.45-4.89 5H1.76l5.85-5.84h15.1zM11.87 33.17l-1.28 1.78h1.28zM-.03 22.7h17.25l-.1 17.28H-.03zm8.8 13.74h2.92v1.31h1.85v-1.31h.84v-1.48h-.84v-3.83H11.8l-3.04 4.08v1.23Zm-5.49 1.31h4.84v-1.52H5.85c1.58-1.24 2.17-2.1 2.17-3.17 0-1.33-1.03-2.04-2.5-2.04-.76 0-1.59.18-2.14.43v1.58c.49-.32 1.09-.5 1.63-.5.59 0 1.02.22 1.02.74 0 .92-1.55 2.15-2.76 2.97v1.5Zm19.43-13.72v-5.36l-3.23 3.3-.09 16.36 5.99-5.98v-4.39c-1.56-.63-2.67-2.15-2.67-3.93M39.52.73q-.12-.15-.27-.27c-.35-.29-.79-.48-1.28-.48H26.96a2 2 0 0 0-2 2v16.58h15.01V1.98c0-.48-.17-.91-.45-1.25M24.96 20.8h15.01v3.22c0 1.1-.9 2-2 2H26.96a2 2 0 0 1-2-2zm6.38 3.48h2.25v-2.25h-2.25z"/>
</svg>
