<svg viewBox="0 0 16 16" xmlns="http://www.w3.org/2000/svg">
  <path d="M13.38 2.86H9.03l1.95-1.61h3.99l-1.6 1.61Zm-.44 4.72H8.22V4.36h4.72zm-.71-2.5h-1.78v1.77h1.78zm2.21-1.16v3.66h.68v.16l.9-.93V2.33zM3.41 10.05v4.9l2.37-2.37-2.37-2.54Zm4.47 2.59c.35.37.93.37 1.27 0l3.33-3.56h.46-8.39l3.33 3.57Zm5.74 2.31v-4.9l-2.37 2.54 2.37 2.37Zm-5.11-.52c-.65 0-1.26-.27-1.71-.75l-2.34 2.33h8.1l-2.34-2.33c-.46.48-1.07.75-1.71.75M3.44 9.06l-.53-.53C2.62 8.23.02 5.58.02 3.43.02 1.55 1.56.01 3.44.01s3.42 1.53 3.42 3.42c0 2.15-2.59 4.8-2.89 5.1zm0-4.62c.55 0 1-.45 1-1s-.45-1-1-1-1 .45-1 1 .45 1 1 1"/>
</svg>
