<svg viewBox="0 0 24 24" xmlns="http://www.w3.org/2000/svg">
  <path d="M5.77 21.52H3.09v-.83c.67-.46 1.53-1.14 1.53-1.65 0-.29-.24-.41-.56-.41-.3 0-.63.1-.9.28v-.88c.31-.14.77-.24 1.19-.24.81 0 1.38.39 1.38 1.13 0 .59-.33 1.07-1.2 1.75h1.26v.84Zm1.98-.73H6.13v-.68l1.68-2.26h.96v2.12h.46v.82h-.46v.73H7.74v-.73Zm.1-.82v-.99l-.71.99zm8.64-2.63h.1v1.7L11.62 24H0V12.41l4.97-4.96h9.14v3.6l-1.79 1.82-.04 7.99 2.56-2.55v-1.65c.43.42 1.01.67 1.65.67Zm-5.92-3.91H1.76v8.82h8.76zm2.9-4.23H5.7l-2.49 2.48h7.83zm10.54-7.7v13.46c0 .83-.67 1.5-1.5 1.5H16.5c-.83 0-1.5-.67-1.5-1.5V1.5c-.01-.83.66-1.5 1.49-1.5h6.01c.83 0 1.5.67 1.5 1.5Zm-7.27.25v7.93h5.51V1.75zm5.52 12.96v-3.28h-5.51v3.28zm-3.64-.75h1.75v-1.75h-1.75z"/>
</svg>
