<svg viewBox="0 0 64 64" xmlns="http://www.w3.org/2000/svg">
  <path d="M64.03 0H48.8v-.02H20.84V0H.03v63.98h64v-2.75H48.8V37.66h15.23v-2.75H48.8V19.83h15.23v-2.75H48.8V2.75h15.23zm-43.2 2.75v14.33H2.77V2.75h18.05Zm0 32.17H2.77V19.84h18.05v15.08Zm2.75 12.85h22.47v13.46H23.58zm0-2.75V14.87h22.47v30.15zM2.77 61.23V37.66h18.05v23.57zm43.27-49.11H23.57V2.75h22.47zm-32.61-.7h-2.75V8.67h2.75zm-2.75 17.33V26h2.75v2.75zm2.75 16.48v2.75h-2.75v-2.75zm42.15-33.81V8.67h2.75v2.75zm0 17.33V26h2.75v2.75zm0 19.23v-2.75h2.75v2.75zM29.2 21.6v15.53h10.87V21.6zm8.12 12.78h-5.37V24.35h5.37z"/>
</svg>
