<svg viewBox="0 0 24 24" xmlns="http://www.w3.org/2000/svg">
  <path d="m22.77 3.78-2.54 2.57h-6.57l3.12-2.57h6Zm-1.3 3.81v6.79L24 11.74V5.03zM9.74 4.89c0 3.13-3.82 7.05-4.25 7.48l-.62.62-.62-.62C3.81 11.94 0 8.03 0 4.89 0 2.2 2.18.01 4.87.01S9.74 2.2 9.74 4.89m-3.5.02c0-.76-.62-1.37-1.37-1.37S3.5 4.16 3.5 4.91s.62 1.37 1.37 1.37 1.37-.62 1.37-1.37m6.6 3.2h6.88v6.9h-.12v-.06h-6.77V8.12Zm3.43 3.47h2.13V9.45h-2.13zm-3.25 8.76 3.4-3.65H8.48l3.4 3.65c.31.34.83.33 1.14 0m-5.98-2.63v5.05l2.43-2.44zm5.41 4.64c-.67 0-1.29-.27-1.78-.75l-2.42 2.42h8.32l-2.39-2.39c-.48.46-1.09.72-1.74.72Zm5.41.47v-5.11l-2.46 2.65 2.46 2.47Z"/>
</svg>
