<svg viewBox="0 0 64 64" xmlns="http://www.w3.org/2000/svg">
  <path d="M19.15 0-.02 19.17V64h44.83l19.17-19.17V0zm1.14 2.75h38.42L43.43 18.37H4.66zM2.73 21.12h40.04v40.13H2.73zM45.52 59.4V20.17L61.23 4.1v39.59zm-29-6.79h4.85v3.25H11.01v-3.21c2.59-1.77 5.9-4.4 5.9-6.37 0-1.11-.93-1.58-2.18-1.58-1.15 0-2.45.39-3.49 1.07v-3.39c1.19-.53 2.96-.92 4.58-.92 3.14 0 5.34 1.52 5.34 4.38 0 2.28-1.27 4.13-4.64 6.78Zm16.46-2.73v-8.2h-3.72l-6.5 8.74v2.63h6.25v2.82h3.97v-2.82h1.79v-3.17zm-3.6 0h-2.73l2.73-3.82z"/>
</svg>
