<svg viewBox="0 0 64 64" xmlns="http://www.w3.org/2000/svg">
  <path d="m31.71 30.06-1.97 2.02H.95l12.24-12.25h14.1c.43 3.88 2.02 7.4 4.42 10.23M19.33 50.61l-1.88 2.63h1.88zM-.03 34.83h29.06l-.14 29.15H-.03zm14.81 20.6h4.3v1.94h2.73v-1.94h1.23v-2.18h-1.23V47.6h-2.56l-4.47 6.02zm-8.11 1.94h7.14v-2.24h-3.34c2.32-1.83 3.2-3.1 3.2-4.68 0-1.97-1.52-3.02-3.68-3.02-1.12 0-2.34.27-3.16.64v2.34c.72-.47 1.61-.74 2.41-.74.86 0 1.5.33 1.5 1.09 0 1.36-2.28 3.17-4.06 4.39v2.21Zm25.12-23.44-.14 29.29L44.1 50.76V36.69c-3.98-.45-7.59-2.14-10.44-4.67l-1.86 1.9Zm32.18-16.21c0 9.79-7.93 17.73-17.72 17.73s-17.72-7.94-17.72-17.73S36.47-.01 46.26-.01s17.72 7.94 17.72 17.73Zm-28.88 9.93 21.22-21c-2.66-2.42-6.18-3.91-10.05-3.91-8.25 0-14.97 6.72-14.97 14.98 0 3.81 1.44 7.29 3.8 9.94Zm26.13-9.93c0-3.4-1.15-6.52-3.06-9.04L37.09 29.53c2.53 1.97 5.71 3.16 9.16 3.16 8.25 0 14.97-6.72 14.97-14.98Z"/>
</svg>
