<svg viewBox="0 0 48 48" xmlns="http://www.w3.org/2000/svg">
  <path d="M24.25 26.46c-3.75 0-6.79-3.03-6.79-6.74s3.05-6.74 6.79-6.74 6.79 3.03 6.79 6.74-3.05 6.74-6.79 6.74m23.89-2.43c0-13.24-10.84-24-24.17-24C17.4.03 11.25 2.6 6.73 7.2l-.48.45V5.19c0-1.24-1.01-2.25-2.26-2.25S1.73 3.95 1.73 5.19v10.04h11.23c1.25 0 2.26-1.01 2.26-2.25s-1.01-2.25-2.26-2.25h-3.4l.34-.32c3.73-3.79 8.72-5.88 14.06-5.88 10.83 0 19.64 8.75 19.64 19.5 0 6.11-2.85 11.56-7.29 15.14v-2.22c0-4.22-3.46-7.66-7.71-7.66H20c-4.25 0-7.71 3.44-7.71 7.66v2.77c-3.96-2.9-6.81-7.26-7.69-12.39l-4.46.76c1.98 11.56 12 19.94 23.83 19.94 2.33 0 4.58-.34 6.71-.95 1.45-.32 2.73-.78 3.71-1.4 8.13-3.87 13.75-12.12 13.75-21.65"/>
</svg>
