<svg viewBox="0 0 24 24" xmlns="http://www.w3.org/2000/svg">
  <path d="M15.59 9.45c0-1.97-1.62-3.57-3.6-3.57s-3.6 1.6-3.6 3.57 1.62 3.57 3.6 3.57 3.6-1.6 3.6-3.57m-5.43 0c0-1 .82-1.82 1.84-1.82s1.84.82 1.84 1.82-.82 1.82-1.84 1.82-1.84-.82-1.84-1.82M11.85.01c-3.28 0-6.36 1.29-8.62 3.6l-.71.66V2.38c0-.48-.4-.88-.88-.88s-.88.39-.88.88v4.86h5.47c.49 0 .88-.39.88-.88s-.4-.88-.88-.88H3.8l.67-.63a10.3 10.3 0 0 1 7.39-3.09c5.69 0 10.32 4.6 10.32 10.25 0 3.28-1.56 6.19-3.98 8.07v-1.72c0-2.22-1.82-4.02-4.05-4.02H9.93c-2.23 0-4.05 1.81-4.05 4.02v2.01a10.16 10.16 0 0 1-4.18-6.62l-1.74.29c.99 5.78 6 9.97 11.91 9.97 6.66 0 12.09-5.38 12.09-12s-5.44-12-12.11-12M7.62 18.36c0-1.25 1.03-2.27 2.29-2.27h4.22c1.26 0 2.29 1.02 2.29 2.27l.02 2.71c-.09.14-.49.34-1.16.5v-3.06h-1.77v3.33a16.6 16.6 0 0 1-2.79.02v-3.35H8.95v3.11c-.75-.17-1.21-.37-1.34-.53v-2.74Z"/>
</svg>
