<svg viewBox="0 0 64 64" xmlns="http://www.w3.org/2000/svg">
  <path d="M41.21 26.17c0-4.85-3.98-8.8-8.87-8.8s-8.87 3.95-8.87 8.8 3.98 8.8 8.87 8.8 8.87-3.95 8.87-8.8m-14.96 0c0-3.34 2.73-6.05 6.09-6.05s6.1 2.71 6.1 6.05-2.73 6.05-6.1 6.05-6.09-2.71-6.09-6.05M64.19 32c0-17.65-14.46-32-32.23-32C23.2 0 15.01 3.43 8.93 9.61l-3.71 3.47V5.47c0-.76-.62-1.38-1.39-1.38s-1.39.62-1.39 1.38v12.35h14.01c.77 0 1.39-.62 1.39-1.38s-.62-1.38-1.39-1.38H7.14l3.73-3.49c5.59-5.68 13.08-8.82 21.09-8.82C48.2 2.75 61.42 15.87 61.42 32c0 10.1-5.19 19.03-13.06 24.28v-6.81c0-5.54-4.54-10.04-10.11-10.04H26.62c-5.58 0-10.12 4.51-10.12 10.04v7.45C9.49 52.64 4.39 45.51 2.92 36.95l-2.73.46C2.83 52.82 16.2 64 31.96 64c2.5 0 4.93-.29 7.27-.83 2.97-.48 5.63-1.33 7.3-2.64C57 55.24 64.19 44.44 64.19 32M19.27 49.47c0-4.02 3.29-7.29 7.34-7.29h11.63c4.05 0 7.34 3.27 7.34 7.29v7.74c0 .32-.17.64-.49.96a29 29 0 0 1-4.21 1.7v-9.95h-2.77v10.64c-1.68.23-3.59.37-5.68.37-1.86 0-3.57-.11-5.11-.3V49.92h-2.77v10.25c-3.31-.73-5.28-1.86-5.28-2.96z"/>
</svg>
