<svg viewBox="0 0 32 32" xmlns="http://www.w3.org/2000/svg">
  <path d="M16.13 17.42c-2.58 0-4.68-2.08-4.68-4.64s2.1-4.64 4.68-4.64 4.68 2.08 4.68 4.64-2.1 4.64-4.68 4.64M15.95-.02c-4.31 0-8.33 1.66-11.32 4.62v-.96c0-.97-.79-1.75-1.77-1.75s-1.77.78-1.77 1.75v6.86h7.64c.98 0 1.77-.78 1.77-1.75S9.71 7 8.73 7H7.22c2.35-2.25 5.43-3.5 8.72-3.5 6.94 0 12.58 5.6 12.58 12.49 0 3.7-1.64 7.02-4.22 9.31v-.75c0-2.89-2.37-5.25-5.29-5.25h-5.7c-2.92 0-5.29 2.35-5.29 5.25v1.16a12.4 12.4 0 0 1-4.49-7.61l-3.47.58c1.32 7.7 8 13.3 15.89 13.3 8.89 0 16.11-7.18 16.11-16s-7.23-16-16.11-16"/>
</svg>
