<svg viewBox="0 0 40 40" xmlns="http://www.w3.org/2000/svg">
  <path d="M25.94 16.41c0-3.15-2.58-5.7-5.75-5.7s-5.75 2.56-5.75 5.7 2.58 5.7 5.75 5.7 5.75-2.56 5.75-5.7m-9.22 0c0-1.9 1.56-3.45 3.48-3.45s3.48 1.55 3.48 3.45-1.56 3.45-3.48 3.45-3.48-1.55-3.48-3.45M19.96 0C14.48 0 9.36 2.14 5.57 6L3.75 7.7V3.65a1.129 1.129 0 1 0-2.26 0v7.89h8.92c.63 0 1.13-.5 1.13-1.13s-.51-1.13-1.13-1.13H5.37l1.8-1.68c3.39-3.45 7.94-5.35 12.8-5.35 9.86 0 17.88 7.96 17.88 17.75 0 5.94-2.96 11.19-7.49 14.42v-3.65c0-3.57-2.92-6.47-6.51-6.47h-7.17c-3.59 0-6.51 2.9-6.51 6.47v4.07C6.14 32.22 3.22 28.02 2.36 23l-2.24.38C1.77 33.01 10.12 40 19.98 40c11.11 0 20.14-8.97 20.14-20S31.07 0 19.96 0m-7.54 30.77c0-2.32 1.9-4.22 4.25-4.22h7.17c2.34 0 4.25 1.89 4.25 4.22v4.76c-.07.25-.83.7-2.34 1.07v-5.56h-2.27v5.95c-.93.11-2 .17-3.22.17-1.07 0-2.02-.05-2.87-.13v-5.99h-2.27v5.64c-1.74-.38-2.62-.88-2.69-1.15v-4.77Z"/>
</svg>
