<svg viewBox="0 0 24 24" xmlns="http://www.w3.org/2000/svg">
  <path d="M11.99 13.01c-1.98 0-3.6-1.6-3.6-3.57s1.61-3.57 3.6-3.57 3.6 1.6 3.6 3.57-1.61 3.57-3.6 3.57M11.88 0C8.82 0 5.95 1.13 3.75 3.14v-.23c0-.83-.68-1.5-1.51-1.5S.73 2.08.73 2.91v5.26h5.84c.83 0 1.51-.67 1.51-1.5s-.68-1.5-1.51-1.5h-.58C7.63 3.77 9.69 3 11.88 3c5 0 9.06 4.04 9.06 9 0 2.53-1.06 4.82-2.76 6.45v-.11c0-2.22-1.82-4.02-4.05-4.02H9.91c-2.23 0-4.05 1.8-4.05 4.02v.39a8.93 8.93 0 0 1-2.92-5.21l-2.98.51c.99 5.78 6 9.97 11.91 9.97 6.66 0 12.09-5.38 12.09-12S18.54 0 11.88 0"/>
</svg>
