<svg viewBox="0 0 64 64" xmlns="http://www.w3.org/2000/svg">
  <path d="M32.38 34.95c-4.74 0-8.59-3.83-8.59-8.53s3.85-8.53 8.59-8.53 8.59 3.83 8.59 8.53-3.85 8.53-8.59 8.53M32.01.03c-8.74 0-16.92 3.42-23.03 9.62l-1.54 1.44v-4.6c0-1.38-1.13-2.5-2.52-2.5S2.4 5.11 2.4 6.49v13.07h14.69c1.39 0 2.52-1.12 2.52-2.5s-1.13-2.5-2.52-2.5h-5.98l1.38-1.29.07-.07c5.16-5.25 12.07-8.14 19.46-8.14 14.99 0 27.18 12.11 27.18 26.99 0 9.01-4.48 17.01-11.34 21.91v-5.08c0-5.36-4.39-9.72-9.79-9.72h-11.2c-5.4 0-9.79 4.36-9.79 9.72v5.72C10.96 50.61 6.53 44.24 5.22 36.61l-4.97.84c2.64 15.41 16 26.59 31.77 26.59 17.77 0 32.23-14.36 32.23-32S49.78.03 32.01.03"/>
</svg>
