<svg viewBox="0 0 32 32" xmlns="http://www.w3.org/2000/svg">
  <path d="M20.8 12.79c0-2.56-2.1-4.64-4.67-4.64s-4.67 2.08-4.67 4.64 2.1 4.64 4.67 4.64 4.67-2.08 4.67-4.64m-7.32 0c0-1.45 1.19-2.64 2.66-2.64s2.66 1.18 2.66 2.64-1.19 2.64-2.66 2.64-2.66-1.18-2.66-2.64M15.94 0c-4.38 0-8.48 1.71-11.5 4.79L3.18 5.97V3c0-.55-.45-1-1.01-1s-1.01.45-1.01 1v6.37h7.19c.56 0 1.01-.45 1.01-1s-.45-1-1.01-1H4.62l1.23-1.15c2.68-2.73 6.26-4.23 10.09-4.23 7.77 0 14.1 6.28 14.1 14 0 4.61-2.26 8.69-5.74 11.24v-2.68c0-2.89-2.37-5.25-5.28-5.25h-5.69c-2.91 0-5.28 2.35-5.28 5.25v3.04a13.94 13.94 0 0 1-6-9.23l-1.99.34c1.32 7.7 8 13.3 15.88 13.3 8.89 0 16.12-7.18 16.12-16S24.83 0 15.94 0m-5.88 24.55c0-1.79 1.47-3.24 3.27-3.24h5.69c1.8 0 3.27 1.45 3.27 3.24v3.75c-.09.2-.64.51-1.64.76v-4.29h-2.02v4.63c-.72.08-1.53.12-2.45.12-.81 0-1.52-.04-2.17-.1v-4.66h-2.02v4.35c-1.14-.26-1.8-.58-1.92-.81v-3.76Z"/>
</svg>
