<svg viewBox="0 0 16 16" xmlns="http://www.w3.org/2000/svg">
  <path d="M10.57 6.34c0-1.38-1.13-2.51-2.53-2.51S5.51 4.96 5.51 6.34s1.13 2.51 2.53 2.51 2.53-1.13 2.53-2.51m-3.55 0c0-.56.46-1.01 1.02-1.01s1.02.45 1.02 1.01-.46 1.01-1.02 1.01-1.02-.45-1.02-1.01M7.95.01C5.76.01 3.71.87 2.2 2.4l-.16.15v-.82c0-.41-.34-.75-.75-.75s-.75.34-.75.75v3.35h3.74a.749.749 0 1 0 0-1.5H3.15l.11-.11a6.54 6.54 0 0 1 4.69-1.96c3.61 0 6.55 2.92 6.55 6.5 0 1.95-.87 3.69-2.24 4.88v-.74c0-1.55-1.27-2.8-2.82-2.8H6.69c-1.56 0-2.82 1.26-2.82 2.8v.93A6.44 6.44 0 0 1 1.5 9.11L0 9.36c.66 3.85 4 6.65 7.94 6.65 4.44 0 8.06-3.59 8.06-8s-3.61-8-8.05-8M5.37 12.15c0-.72.59-1.3 1.31-1.3h2.75c.72 0 1.31.58 1.31 1.3v1.7c-.27.17-1.2.44-2.69.44s-2.42-.27-2.69-.44v-1.7Z"/>
</svg>
