<svg viewBox="0 0 16 16" xmlns="http://www.w3.org/2000/svg">
  <path d="M8.04 8.84c-1.4 0-2.53-1.13-2.53-2.51s1.14-2.51 2.53-2.51 2.53 1.13 2.53 2.51-1.14 2.51-2.53 2.51M7.95 0C6.09 0 4.34.62 2.94 1.74 2.77 1.25 2.31.9 1.76.9 1.06.9.5 1.46.5 2.15v3.67h4.04c.7 0 1.26-.56 1.26-1.25 0-.55-.36-1-.86-1.17.89-.58 1.92-.9 3.02-.9 3.05 0 5.53 2.47 5.53 5.5 0 1.34-.49 2.57-1.3 3.53a2.83 2.83 0 0 0-2.75-2.19H6.68c-1.41 0-2.58 1.04-2.78 2.38a5.45 5.45 0 0 1-1.4-2.79l-2.49.42C.67 13.2 4.01 16 7.95 16c4.44 0 8.06-3.59 8.06-8S12.4 0 7.95 0"/>
</svg>
