<svg viewBox="0 0 32 32" xmlns="http://www.w3.org/2000/svg">
  <path d="M26.94 22c-.75 0-1.45.18-2.09.47l-2.17-2.05a7.95 7.95 0 0 0 1.31-4.39c0-1.74-.56-3.35-1.51-4.66l1.83-1.8c.63.33 1.33.54 2.09.54a4.511 4.511 0 0 0 0-9.02c-2.49 0-4.51 2.02-4.51 4.51 0 .43.08.84.19 1.24l-2.23 2.19a8 8 0 0 0-3.89-1.01c-1.59 0-3.07.47-4.31 1.27l-2.21-2.1c.32-.66.51-1.39.51-2.17.01-2.77-2.23-5.01-5-5.01s-5 2.24-5 5.01a5.006 5.006 0 0 0 6.99 4.6l2.27 2.15a7.9 7.9 0 0 0-1.23 4.26c0 1.47.4 2.83 1.09 4.02l-1.39 1.58c-.47-.17-.98-.28-1.51-.28a4.511 4.511 0 0 0 0 9.02c2.49 0 4.51-2.02 4.51-4.51 0-.67-.15-1.29-.41-1.86l1.19-1.36c1.29.89 2.85 1.41 4.54 1.41 1.54 0 2.96-.44 4.18-1.19l2.22 2.1c-.28.63-.45 1.32-.45 2.05 0 2.77 2.24 5.01 5.01 5.01s5.01-2.24 5.01-5.01S29.73 22 26.96 22Zm-.53-17.41c.55 0 1.01.45 1.01 1.01s-.45 1.01-1.01 1.01-1.01-.45-1.01-1.01.45-1.01 1.01-1.01M4.95 6.53c-.83 0-1.51-.68-1.51-1.51s.68-1.51 1.51-1.51 1.51.68 1.51 1.51-.68 1.51-1.51 1.51m1.21 20.33c-.55 0-1.01-.45-1.01-1.01s.45-1.01 1.01-1.01 1.01.45 1.01 1.01-.45 1.01-1.01 1.01m9.82-6.32a4.511 4.511 0 0 1 0-9.02 4.511 4.511 0 0 1 0 9.02m10.96 7.97c-.83 0-1.51-.68-1.51-1.51s.68-1.51 1.51-1.51 1.51.68 1.51 1.51-.68 1.51-1.51 1.51"/>
</svg>
