<svg viewBox="0 0 16 16" xmlns="http://www.w3.org/2000/svg">
  <path d="M13.48 10.99c-.42 0-.82.12-1.17.3l-1.04-.99c.46-.65.73-1.44.73-2.3 0-.92-.32-1.75-.84-2.42l.88-.87c.34.21.73.33 1.16.33 1.24 0 2.25-1.01 2.25-2.25S14.44.54 13.2.54s-2.25 1.01-2.25 2.25c0 .27.05.52.14.76l-1.05 1.03C9.44 4.22 8.74 4 7.99 4c-.84 0-1.62.26-2.26.7L4.67 3.69A2.486 2.486 0 0 0 2.49 0C1.11 0-.02 1.12-.02 2.51s1.12 2.5 2.5 2.5c.4 0 .77-.1 1.11-.27l1.08 1.03a4 4 0 0 0-.68 2.24c0 .78.23 1.49.61 2.11l-.65.72c-.27-.11-.56-.17-.87-.17-1.24 0-2.25 1.01-2.25 2.25s1.01 2.25 2.25 2.25 2.25-1.01 2.25-2.25c0-.39-.11-.75-.28-1.07l.57-.63c.67.49 1.48.79 2.37.79.81 0 1.57-.25 2.2-.66l1.06 1.01c-.17.34-.28.72-.28 1.13a2.5 2.5 0 0 0 5 0 2.5 2.5 0 0 0-2.5-2.5Zm-.26-8.95a.749.749 0 1 1 .002 1.498.749.749 0 0 1-.002-1.498m-11.74.47c0-.55.45-1 1-1s1 .45 1 1-.45 1-1 1-1-.45-1-1m1.61 11.16a.749.749 0 1 1-.002-1.498.749.749 0 0 1 .002 1.498M8 10.52c-1.38 0-2.51-1.12-2.51-2.51S6.61 5.5 8 5.5s2.51 1.12 2.51 2.51S9.39 10.52 8 10.52m5.48 3.98c-.55 0-1-.45-1-1s.45-1 1-1 1 .45 1 1-.45 1-1 1"/>
</svg>
