<svg viewBox="0 0 24 24" xmlns="http://www.w3.org/2000/svg">
  <path d="M20.23 16.49c-.73 0-1.41.22-1.98.58l-1.47-1.4a5.96 5.96 0 0 0 1.24-3.65c0-1.46-.52-2.81-1.4-3.85l1.25-1.23c.55.4 1.23.63 1.96.63 1.87 0 3.38-1.51 3.38-3.38S21.7.81 19.83.81s-3.38 1.51-3.38 3.38c0 .5.11.96.31 1.39L15.32 7c-.95-.63-2.08-.99-3.31-.99-1.35 0-2.6.45-3.6 1.21L6.9 5.78c.37-.58.59-1.27.59-2.01C7.49 1.69 5.81 0 3.74 0S-.02 1.69-.02 3.76s1.68 3.76 3.76 3.76c.69 0 1.34-.2 1.89-.53l1.54 1.47c-.74 1-1.18 2.23-1.18 3.56 0 1.26.39 2.42 1.05 3.39l-.88.98a3.3 3.3 0 0 0-1.53-.38c-1.87 0-3.38 1.51-3.38 3.38s1.51 3.38 3.38 3.38 3.38-1.51 3.38-3.38c0-.68-.2-1.3-.55-1.83l.77-.86c1.03.83 2.34 1.33 3.77 1.33 1.31 0 2.52-.42 3.51-1.14l1.5 1.44c-.34.56-.55 1.22-.55 1.93 0 2.07 1.68 3.76 3.76 3.76s3.76-1.68 3.76-3.76-1.68-3.76-3.76-3.76Zm-.4-13.93a1.63 1.63 0 1 1 0 3.26 1.63 1.63 0 0 1 0-3.26m-18.1 1.2a2.01 2.01 0 1 1 4.02 0 2.01 2.01 0 0 1-4.02 0m2.91 17.25a1.63 1.63 0 1 1 0-3.26 1.63 1.63 0 0 1 0 3.26m3.11-8.99c0-2.35 1.91-4.26 4.26-4.26s4.26 1.91 4.26 4.26-1.91 4.26-4.26 4.26-4.26-1.91-4.26-4.26m12.48 10.23a2.01 2.01 0 1 1 0-4.02 2.01 2.01 0 0 1 0 4.02"/>
</svg>
