<svg viewBox="0 0 24 24" xmlns="http://www.w3.org/2000/svg">
  <path d="M20.19 16.51c-.49 0-.96.1-1.4.27l-1.7-1.62c.56-.91.89-1.98.89-3.13 0-1.24-.37-2.39-1.02-3.34l1.49-1.46c.36.13.75.22 1.17.22 1.87 0 3.38-1.51 3.38-3.38S21.49.69 19.62.69s-3.38 1.51-3.38 3.38c0 .34.07.66.16.97l-1.68 1.65a5.95 5.95 0 0 0-5.81.18L7.18 5.22c.18-.44.29-.93.29-1.44C7.46 1.7 5.78.02 3.7.02S-.05 1.7-.05 3.78s1.68 3.76 3.76 3.76c.46 0 .89-.09 1.29-.24l1.79 1.71c-.52.89-.83 1.92-.83 3.03 0 1.02.26 1.99.71 2.83l-1.16 1.29c-.29-.08-.59-.14-.91-.14-1.87 0-3.38 1.51-3.38 3.38s1.51 3.38 3.38 3.38 3.38-1.51 3.38-3.38c0-.44-.09-.85-.24-1.23l.97-1.09a5.99 5.99 0 0 0 6.22.17l1.75 1.67c-.16.42-.26.87-.26 1.34 0 2.07 1.68 3.76 3.76 3.76s3.76-1.68 3.76-3.76-1.68-3.76-3.76-3.76Zm-.57-12.82a.38.38 0 1 1 0 .76.38.38 0 0 1 0-.76m-16.67.09a.749.749 0 1 1 1.498-.002.749.749 0 0 1-1.498.002m1.65 16a.38.38 0 1 1 0-.76.38.38 0 0 1 0 .76m7.37-4.74c-1.66 0-3.01-1.35-3.01-3.01s1.35-3.01 3.01-3.01 3.01 1.35 3.01 3.01-1.35 3.01-3.01 3.01m8.22 5.98a.749.749 0 1 1-.002-1.498.749.749 0 0 1 .002 1.498"/>
</svg>
