<svg viewBox="0 0 48 48" xmlns="http://www.w3.org/2000/svg">
  <path d="M40.43 33.05c-1.27 0-2.46.32-3.51.87l-3.1-2.93C35.19 29.04 36 26.66 36 24.1c0-2.75-.93-5.27-2.49-7.3l2.62-2.57c1.02.62 2.21.98 3.5.98 3.73 0 6.76-3.03 6.76-6.76s-3.03-6.76-6.76-6.76-6.76 3.03-6.76 6.76c0 .8.15 1.57.4 2.28l-3.12 3.06a11.96 11.96 0 0 0-12.96.39l-3.16-2.99c.59-1.07.93-2.3.93-3.61.01-4.15-3.36-7.51-7.5-7.51S-.05 3.43-.05 7.58s3.36 7.51 7.51 7.51c1.2 0 2.32-.29 3.33-.79l3.24 3.07c-1.29 1.92-2.05 4.23-2.05 6.71s.71 4.61 1.91 6.48l-1.92 2.06c-.83-.36-1.74-.57-2.7-.57-3.73 0-6.76 3.03-6.76 6.76s3.03 6.76 6.76 6.76 6.76-3.03 6.76-6.76c0-1.13-.28-2.19-.77-3.12L17 33.83a11.99 11.99 0 0 0 13.62.29l3.16 2.99c-.53 1.03-.84 2.2-.84 3.44 0 4.15 3.36 7.51 7.51 7.51s7.51-3.36 7.51-7.51-3.36-7.51-7.51-7.51Zm-.79-26.86c1.25 0 2.26 1.01 2.26 2.26s-1.01 2.26-2.26 2.26-2.26-1.01-2.26-2.26 1.01-2.26 2.26-2.26M4.45 7.58c0-1.66 1.35-3.01 3.01-3.01s3.01 1.35 3.01 3.01-1.35 3.01-3.01 3.01-3.01-1.35-3.01-3.01m4.81 33.51C8.01 41.09 7 40.08 7 38.83s1.01-2.26 2.26-2.26 2.26 1.01 2.26 2.26-1.01 2.26-2.26 2.26m14.73-9.48c-4.14 0-7.52-3.37-7.52-7.52s3.37-7.52 7.52-7.52 7.52 3.37 7.52 7.52-3.37 7.52-7.52 7.52m16.44 11.96c-1.66 0-3.01-1.35-3.01-3.01s1.35-3.01 3.01-3.01 3.01 1.35 3.01 3.01-1.35 3.01-3.01 3.01"/>
</svg>
