<svg viewBox="0 0 48 48" xmlns="http://www.w3.org/2000/svg">
  <path d="M40.47 33.03c-1.64 0-3.15.53-4.38 1.42l-2.83-2.68c1.74-2.08 2.79-4.77 2.79-7.69 0-3.11-1.19-5.94-3.13-8.07l2.43-2.39c1.17.98 2.68 1.57 4.33 1.57 3.73 0 6.76-3.03 6.76-6.76s-3.03-6.76-6.76-6.76-6.76 3.03-6.76 6.76c0 1.18.3 2.29.84 3.26l-2.7 2.65c-1.98-1.43-4.4-2.28-7.02-2.28-2.89 0-5.54 1.02-7.61 2.72l-2.9-2.75a7.44 7.44 0 0 0 1.48-4.46C15 3.42 11.64.05 7.49.05S-.02 3.42-.02 7.57s3.36 7.51 7.51 7.51c1.57 0 3.03-.48 4.23-1.31l2.94 2.79c-1.66 2.06-2.65 4.67-2.65 7.52s.94 5.29 2.5 7.31l-1.6 1.71a6.75 6.75 0 0 0-3.61-1.05c-3.73 0-6.76 3.03-6.76 6.76s3.03 6.76 6.76 6.76 6.76-3.03 6.76-6.76c0-1.5-.49-2.88-1.32-4l1.49-1.6c2.1 1.79 4.82 2.88 7.8 2.88 2.81 0 5.38-.97 7.43-2.58l2.87 2.72a7.47 7.47 0 0 0-1.37 4.31c0 4.15 3.36 7.51 7.51 7.51s7.51-3.36 7.51-7.51-3.36-7.51-7.51-7.51m-.8-28.86c2.35 0 4.26 1.91 4.26 4.26s-1.91 4.26-4.26 4.26-4.26-1.91-4.26-4.26 1.91-4.26 4.26-4.26M2.48 7.57c0-2.76 2.25-5.01 5.01-5.01s5.01 2.25 5.01 5.01-2.25 5.01-5.01 5.01-5.01-2.25-5.01-5.01m6.81 35.5c-2.35 0-4.26-1.91-4.26-4.26s1.91-4.26 4.26-4.26 4.26 1.91 4.26 4.26-1.91 4.26-4.26 4.26m5.22-18.99c0-5.25 4.27-9.52 9.52-9.52s9.52 4.27 9.52 9.52-4.27 9.52-9.52 9.52-9.52-4.27-9.52-9.52m25.96 21.47c-2.76 0-5.01-2.25-5.01-5.01s2.25-5.01 5.01-5.01 5.01 2.25 5.01 5.01-2.25 5.01-5.01 5.01"/>
</svg>
