<svg viewBox="0 0 48 48" xmlns="http://www.w3.org/2000/svg">
  <path d="M22.52 13.72H21.3v-2.63h1.22c.83 0 1.43.54 1.43 1.27s-.63 1.36-1.43 1.36M47.99 7.6v40.39h-4V11.6h-1.28v36.39h-4V7.56h-1.12v40.45H0v-48h37.61v3.55h5.12V7.6h5.28ZM18.38 19.3h2.92v-3.2h1.74c2.14 0 3.8-1.63 3.8-3.74s-1.69-3.83-3.8-3.83h-4.66v10.78Zm-8.24-3.2h3.08v3.2h4.53v-4.22h-1.08v3.2h-2.38v-3.2h-3.08v-2.35h3.08v-3.2h2.38v3.2h1.08V8.51h-4.53v3.2h-3.08v4.37Zm20.18 21.37H6.45v2.5h23.88v-2.5Zm0-6.05H6.45v2.5h23.88v-2.5Zm0-6.05H6.45v2.5h23.88v-2.5Z"/>
</svg>
