<svg viewBox="0 0 24 24" xmlns="http://www.w3.org/2000/svg">
  <path fill="#1e1e1c" d="M5.91 7.6 0 13.52V1.24l5.91 6.35Zm7.84.31c.91-.28 1.87-.42 2.85-.4.96.03 1.88.23 2.74.56V1.24l-5.91 6.35zm-4.08 2.2c-.92 0-1.78-.38-2.42-1.07l-.15-.16-6.24 6.26h6.77a8.78 8.78 0 0 1 2.53-5.08c-.16.02-.32.05-.48.05Zm1.14-2.26L18.09.02H1.26l7.28 7.83c.62.66 1.66.66 2.28 0ZM24 16.63v3.09c0 1.42-1.15 2.58-2.57 2.58s-2.52-1.11-2.57-2.49a4.268 4.268 0 0 1-6.67-2.47c-.29-1.31 0-2.64.83-3.67a4.25 4.25 0 0 1 3.32-1.59h.04c2.33.02 4.23 2.02 4.23 4.46v3.19c0 .45.37.82.82.82s.82-.37.82-.82v-3.09c0-3.33-2.57-6.11-5.73-6.21-1.61-.06-3.14.54-4.3 1.67a5.88 5.88 0 0 0-1.79 4.25c0 3.27 2.65 5.92 5.91 5.92h1.45c.48 0 .87.39.87.88s-.39.88-.87.88h-1.45c-4.22 0-7.66-3.44-7.66-7.68 0-2.1.83-4.05 2.33-5.51s3.49-2.2 5.57-2.16c4.09.12 7.42 3.7 7.42 7.96Zm-5.14-.1c0-1.46-1.14-2.7-2.49-2.71h-.02c-.77 0-1.48.34-1.96.94-.49.61-.67 1.39-.49 2.18.21.93.98 1.68 1.92 1.87.85.17 1.69-.07 2.29-.67.02-.02.76-.73.76-1.62Z"/>
</svg>
