<svg viewBox="0 0 16 16" xmlns="http://www.w3.org/2000/svg">
  <path fill="#1e1e1c" d="M4.81 6.23c.42.44.97.68 1.55.72a5.93 5.93 0 0 1 2.82-1.8l2.3-2.47v2.27c.52.06 1.03.2 1.5.39V0H0v10.23h4.95c.05-.52.17-1.02.35-1.5H2.31l2.5-2.51Zm-1.02-1.1L1.5 7.42V2.67zm3.32.04c-.33.36-.89.36-1.23 0l-3.4-3.66h8.03zm3.88.48a5.18 5.18 0 0 0-3.76 1.46 5.14 5.14 0 0 0-1.57 3.72c0 2.86 2.32 5.18 5.17 5.18h.95c.41 0 .75-.34.75-.75s-.34-.75-.75-.75h-.95c-2.02 0-3.67-1.65-3.67-3.68 0-1 .4-1.94 1.11-2.64.72-.7 1.66-1.09 2.67-1.04 1.96.06 3.55 1.79 3.55 3.86v2.01c0 .2-.16.35-.35.35s-.35-.16-.35-.35v-2.08c0-1.69-1.31-3.07-2.93-3.09h-.03c-.9 0-1.74.4-2.3 1.11-.57.71-.78 1.64-.58 2.54.25 1.11 1.16 2 2.27 2.22.74.15 1.48.02 2.1-.34.17.85.92 1.49 1.82 1.49 1.02 0 1.85-.83 1.85-1.86V11c0-2.87-2.25-5.28-5.01-5.36Zm.86 6.22c-.35.34-.84.48-1.33.38-.54-.11-.99-.54-1.11-1.08-.1-.46 0-.91.28-1.27.28-.35.69-.55 1.14-.55h.01c.78 0 1.44.73 1.44 1.58 0 .5-.42.91-.44.93Z"/>
</svg>
