<svg viewBox="0 0 40 40" xmlns="http://www.w3.org/2000/svg">
  <path d="M13.91 13.09 1.67-.03h28.86L18.29 13.09a3.005 3.005 0 0 1-4.39 0Zm6.84 1.3-.3-.3-.51.54c-1.02 1.1-2.39 1.7-3.84 1.7s-2.82-.6-3.84-1.7l-.51-.54L1 24.83h12.06c.52-3.01 1.96-5.78 4.2-7.95 1.04-1.01 2.22-1.85 3.49-2.49m2.28-.92c1.54-.48 3.16-.73 4.82-.71 1.5.05 2.94.33 4.29.82V1.54L21.98 12.43l1.04 1.04ZM.05 1.54v21.04l10.16-10.16zm40 26.29v5.22c0 2.21-1.8 4-4 4s-4-1.8-4-4v-.61c-1.59 1.46-3.84 2.09-6.04 1.64-2.58-.52-4.71-2.59-5.28-5.15-.48-2.1.01-4.26 1.34-5.9a6.86 6.86 0 0 1 5.36-2.56h.06c3.76.03 6.82 3.26 6.82 7.19v5.39c0 .96.78 1.75 1.75 1.75s1.75-.78 1.75-1.75v-5.22c0-5.82-4.51-10.68-10.06-10.85-2.83-.07-5.52.95-7.55 2.93a10.28 10.28 0 0 0-3.15 7.44c0 5.72 4.65 10.37 10.37 10.37h2.47c.62 0 1.13.51 1.13 1.13s-.51 1.13-1.13 1.13h-2.47c-6.96 0-12.63-5.66-12.63-12.63 0-3.44 1.36-6.66 3.83-9.06s5.75-3.68 9.19-3.56c6.75.2 12.24 6.08 12.24 13.1m-8.01-.18c0-2.7-2.06-4.91-4.58-4.93h-.04c-1.41 0-2.72.63-3.6 1.72-.89 1.11-1.22 2.56-.9 3.99.38 1.71 1.8 3.08 3.53 3.43 1.56.31 3.09-.13 4.21-1.22.04-.04 1.39-1.32 1.39-2.99Z"/>
</svg>
