<svg viewBox="0 0 40 40" xmlns="http://www.w3.org/2000/svg">
  <path d="M35.63 6.95V3.59h-4.22V.02H0v39.99h31.42V5.84h1.98v34.17h2.25V9.2h2.11v30.81h2.25V6.95h-4.36Zm-6.47 30.81H2.24V2.27h26.92zm-3.88-14.4H5.44v-2.25h19.84zm0 5.03H5.44v-2.25h19.84zm0 5.03H5.44v-2.25h19.84zM11.59 13.51H9.05V9.9h2.54V7.26h3.74v3.48h-.89V8.1h-1.96v2.64H9.94v1.94h2.54v2.64h1.96v-2.64h.89v3.48h-3.74v-2.64Zm6.67 0h1.44c1.77 0 3.14-1.35 3.14-3.09s-1.4-3.17-3.14-3.17h-3.85v8.9h2.41zm0-4.13h1.01c.69 0 1.18.44 1.18 1.05s-.52 1.12-1.18 1.12h-1.01z"/>
</svg>
