<svg viewBox="0 0 24 24" xmlns="http://www.w3.org/2000/svg">
  <path d="m11.02 8.56-2.1-2.1h2.1zm-3.64 1.3H4.86V8.11h.77L3.98 6.46H0v10.21h6.89v-4.86h2.43L7.37 9.86Zm1.27 4.9v7.95l3.95-4.09zm2.88-10.04L16.22 0H6.17L4.19 1.74l2.99 2.99h4.35Zm-10.75 0h1.46l-.68-.68zm11.99 10.53-1.7-1.69H9.91l5.38 5.26c.4.39.96.53 1.47.43l-3.58-3.58-.42-.41Zm0-4.94 2.77 2.77 1.85-2.03V1.29l-4.63 4.67v4.36Zm6.68 6.68 3.51-3.43h-6.94zm1.24 1.23 3.32 3.31v-6.56l-3.32 3.24Zm-4.25 2.8c-.86 0-1.71-.32-2.37-.96l-.23-.22-4.01 4.15h11.69l-3.42-3.42c-.51.29-1.09.45-1.66.45M.01 1.27l22.73 22.71 1.24-1.24L1.25.03z"/>
</svg>
