<svg viewBox="0 0 24 24" xmlns="http://www.w3.org/2000/svg">
  <path d="M5.52 3.04 4.28 1.8 6.34 0h11.95v11.72H24v9.8l-1.75-1.75v-4.91l-2.48 2.43-1.24-1.24 2.64-2.59h-5.23l-1.75-1.75h1.82l.53-.58v-8.1l-3.76 3.79v3.48l-1.75-1.75V7.33H9.81L8.06 5.58h3.48l3.81-3.84H7zm14.26 19.21L21.53 24H7.46v-6.33H0V5.59h.05l-.04-.04 1.63-1.43 1.24 1.24-.27.23h.5l1.75 1.75H1.75v8.58h5.71v-4.2h1.78l1.75 1.75h-.51l4.44 4.34c.21.2.48.3.75.34l1.47 1.47c-.41.2-.86.31-1.31.31-.77 0-1.54-.29-2.13-.86l-.11-.11-3.19 3.3h9.38ZM9.21 20.96l3.13-3.23-3.13-3.06zM6.05 8.52h-.23v1.75h1.97L6.04 8.52ZM1.25.01 0 1.25l22.75 22.74 1.24-1.24z"/>
</svg>
