<svg viewBox="0 0 48 48" xmlns="http://www.w3.org/2000/svg">
  <path d="M9.61 6.09 7.84 4.32 12.61 0H36.3v23.43l-.49.54h12.17v2.12l.02.02-.02.02v18.33l-2.5-2.5V28.57l-6.77 6.62-1.77-1.77 7.12-6.96H29.98l-2.5-2.5h4.94l1.38-1.51V4.36l-8.76 8.84v8.32l-2.5-2.5v-5.08h-5.08l-2.5-2.5h8.31l8.86-8.94H13.57zM41.95 45.5l2.5 2.5H15.27V35.06H0V11.44l4.14-3.76 1.77 1.77-2.19 1.99H7.9l2.5 2.5H2.5v18.62h12.77v-8.6h5.14l2.5 2.5h-3.33l10.02 9.81c.99.97 2.48 1.14 3.66.54l1.82 1.82a5.7 5.7 0 0 1-3.25 1.04c-1.44 0-2.87-.54-3.97-1.61l-.61-.6-7.78 8.04zm-24.18-1.84 7.69-7.95-7.69-7.52zm2.92-28.24h-1.74l1.74 1.74zm-6.31 2.5-2.5-2.5H9.19v7.27h9.95l-2.5-2.5h-4.95v-2.27zM0 1.79 46.21 48l1.77-1.77L1.78.02z"/>
</svg>
