<svg viewBox="0 0 16 16" xmlns="http://www.w3.org/2000/svg">
  <path d="m8.72 3.91 2.8-2.83v6.25l-.99 1.09-1.81-1.81V3.92Zm-1.5.44h-.75l.75.75zm8.77 9.52v-3.5l-1.77 1.73zm-4.99.41c-.62 0-1.24-.23-1.72-.7l-.04-.04-2.37 2.45h7.01l-1.91-1.91c-.31.13-.63.2-.96.2Zm-5.15.61 2.32-2.4-2.32-2.27v4.66Zm4.66-2.26L7.07 9.19h-.14l3.39 3.32c.05.05.12.08.18.12ZM7.66 2.85 10.48 0H4.09L3.03.9l1.95 1.95h2.69ZM3.18 6.66V5.3l-.95-.95H.03v6.64h4.31V7.68h1.22L4.53 6.65H3.17Zm9.98 4.38 1.89-1.85H11.3l1.85 1.85ZM1.06 0 0 1.06 14.94 16 16 14.94z"/>
</svg>
