<svg viewBox="0 0 32 32" xmlns="http://www.w3.org/2000/svg">
  <path d="M6.89 4.07 5.47 2.65 8.43 0h15.86v15.69l-.1.11h7.8v13.37l-2-2v-7.73l-3.91 3.83-1.41-1.41 4.13-4.04h-8.18l-2-2h2.87l.81-.89V3.48l-5.42 5.47v5.1l-2-2V9.54h-2.51l-2-2h5.1L20.96 2H9.21L6.9 4.07Zm20.27 25.92 2 2H10.07v-8.53H0V7.54h.02l2.47-2.21 1.42 1.42-.89.8h1.69l2 2h-4.7v11.92h8.06V15.8h2.9l2 2h-1.44l6.3 6.16c.49.48 1.17.63 1.79.48l1.52 1.52c-.61.35-1.28.54-1.97.54-.99 0-1.98-.37-2.74-1.11l-.28-.27L13.43 30h13.74Zm-15.09-1.47 4.64-4.8-4.64-4.54v9.35ZM14 10.17h-1.01L14 11.18zm-4.67 2-2-2H6.07v5.14h6.41l-2-2H8.07v-1.14zM1.42.01 0 1.42l30.59 30.57L32 30.58z"/>
</svg>
