<svg viewBox="0 0 40 40" xmlns="http://www.w3.org/2000/svg">
  <path d="M8.54 16.49v-2.18h2.58l2.18 2.18zm10.81-8.12L27.66 0H10.31L6.54 3.4l4.98 4.98h7.83Zm-18.32 0h4.13L3.2 6.41zm28.13-6.7-8.21 8.28v7.82l4.47 4.47 6.59 6.58 6.73-6.58H25.81l3.35-3.67zM18.7 15.53v-4.92h-4.92l1.46 1.45h1.67v1.66l1.8 1.8Zm8.57 18.97a5.2 5.2 0 0 1-3.66-1.48l-.6-.58L15.7 40h21.13l-6.5-6.49c-.91.65-1.98 1-3.06 1Zm-13.1-10.71v14.54l7.23-7.47zm19.43 6.62L40 36.8V24.15zM16.65 19.84l-1.1-1.1H6.29v-6.67h2.58l-.78-.78-.67-.67H0v17.36h11.92V20h4.88l-.16-.16ZM28.7 31.88l-9.65-9.64H15.8l9.37 9.17c.95.93 2.4 1.08 3.52.47ZM0 1.62l38.4 38.35 1.59-1.59L1.59.03z"/>
</svg>
