<svg viewBox="0 0 40 40" xmlns="http://www.w3.org/2000/svg">
  <path d="M8.25 5.08 6.66 3.49 10.53 0h19.78v19.55l-.3.32h9.98v16.94l-2.25-2.25V23.99l-5.34 5.23-1.59-1.59 5.63-5.51H25.3l-2.25-2.25h3.92l1.09-1.2V3.92l-7.09 7.16v6.72l-2.25-2.25v-3.81h-3.81l-2.25-2.25h6.71l7.18-7.24H11.39zm26.3 32.66 2.25 2.25H12.67V29.26H.01V9.49h.02l3.29-2.98L4.91 8.1 3.37 9.49h2.92l2.25 2.25H2.26v15.27h10.41v-7.13h4.02l2.25 2.25h-2.38l8.16 7.98c.74.72 1.83.9 2.74.53l1.66 1.66c-.79.51-1.71.77-2.62.77-1.22 0-2.43-.45-3.36-1.36l-.45-.44-6.25 6.46h18.11Zm-19.63-1.66 6.17-6.38-6.17-6.03zm2.43-23.29h-1.39l1.39 1.39zm-5.5 2.25L9.6 12.79H7.63v6.2h8.17l-2.25-2.25H9.88v-1.7h1.96ZM1.58 0 0 1.59l38.41 38.4L40 38.4z"/>
</svg>
