<svg viewBox="0 0 16 16" xmlns="http://www.w3.org/2000/svg">
  <path fill="#1e1e1c" d="M2.96 4.32V.75c0-.41.34-.75.75-.75s.75.34.75.75v3.57c0 .41-.34.75-.75.75s-.75-.34-.75-.75m3.72.75c.41 0 .75-.34.75-.75V.75c0-.41-.34-.75-.75-.75s-.75.34-.75.75v3.57c0 .41.34.75.75.75m2.96 0c.41 0 .75-.34.75-.75V.75a.749.749 0 1 0-1.5 0v3.57c0 .41.34.75.75.75m2.97 0c.41 0 .75-.34.75-.75V.75c0-.41-.34-.75-.75-.75s-.75.34-.75.75v3.57c0 .41.34.75.75.75m3.4-3.32v12c0 1.24-1.01 2.25-2.25 2.25H2.26C1.02 16 0 14.99 0 13.75v-12h2.21v2.57c0 .83.67 1.5 1.5 1.5.77 0 1.4-.58 1.48-1.33.09.75.71 1.33 1.48 1.33s1.4-.58 1.48-1.33c.09.75.71 1.33 1.48 1.33s1.4-.58 1.48-1.33a1.493 1.493 0 0 0 2.98-.17V1.75h1.9Zm-7.22 9.26H4v1.5h4.8v-1.5Zm3.23-3.26H4v1.5h8.02z"/>
</svg>
