<svg viewBox="0 0 32 32" xmlns="http://www.w3.org/2000/svg">
  <path fill="#1e1e1c" d="M6.13 8.39V1c0-.55.45-1 1-1s1 .45 1 1v7.39c0 .55-.45 1-1 1s-1-.45-1-1m7.13 1c.55 0 1-.45 1-1V1c0-.55-.45-1-1-1s-1 .45-1 1v7.39c0 .55.45 1 1 1m6.14 0c.55 0 1-.45 1-1V1c0-.55-.45-1-1-1s-1 .45-1 1v7.39c0 .55.45 1 1 1m6.13 0c.55 0 1-.45 1-1V1c0-.55-.45-1-1-1s-1 .45-1 1v7.39c0 .55.45 1 1 1m6.48-5.77V29c0 1.65-1.35 3-3 3h-26c-1.65 0-3-1.35-3-3V3.62h5.11v4.76c0 1.1.9 2 2 2s2-.9 2-2V3.62h2.14v4.76c0 1.1.9 2 2 2s2-.9 2-2V3.62h2.14v4.76c0 1.1.9 2 2 2s2-.9 2-2V3.62h2.14v4.76c0 1.1.9 2 2 2s2-.9 2-2V3.62h4.48ZM7.72 21.44h9.93v-2H7.72zm14.22 3.02H7.72v2h14.22zm2.37-10.04H7.72v2h16.59z"/>
</svg>
