<svg viewBox="0 0 16 16" xmlns="http://www.w3.org/2000/svg">
  <path fill="#1e1e1c" d="M6.12 8.68H4V7.19h3.21c-.44.43-.81.93-1.09 1.49M4 10.42v1.49h1.57c-.03-.24-.06-.49-.06-.74s.02-.5.06-.74H4Zm9.36-8.68V.75c0-.41-.34-.74-.75-.74s-.75.33-.75.74v.99h-1.47V.75c0-.41-.34-.74-.75-.74s-.75.33-.75.74v.99H7.42V.75c0-.41-.34-.74-.75-.74s-.75.33-.75.74v.99H4.45V.75c0-.41-.34-.74-.75-.74s-.75.33-.75.74v.99H0v11.9c0 1.23 1.01 2.23 2.25 2.23h5.87c-.62-.39-1.15-.9-1.57-1.49H2.26c-.41 0-.75-.33-.75-.74V3.22h1.46v1.06c0 .41.34.74.75.74s.75-.33.75-.74V3.22h1.47v1.06c0 .41.34.74.75.74s.75-.33.75-.74V3.22h1.47v1.06c0 .41.34.74.75.74s.75-.33.75-.74V3.22h1.47v1.06c0 .41.34.74.75.74s.75-.33.75-.74V3.22h1.15v3.49c.61.45 1.12 1.02 1.5 1.68V1.74h-2.65Zm2.65 9.43c0 2.66-2.18 4.83-4.87 4.83s-4.87-2.17-4.87-4.83 2.19-4.83 4.87-4.83 4.87 2.17 4.87 4.83m-1.5 0c0-1.84-1.51-3.34-3.37-3.34s-3.37 1.5-3.37 3.34 1.51 3.34 3.37 3.34 3.37-1.5 3.37-3.34m-1.72-.74h-.91v-.9c0-.41-.34-.74-.75-.74s-.75.33-.75.74v.9h-.91c-.41 0-.75.33-.75.74s.34.74.75.74h.91v.9c0 .41.34.74.75.74s.75-.33.75-.74v-.9h.91c.41 0 .75-.33.75-.74s-.34-.74-.75-.74"/>
</svg>
