<svg viewBox="0 0 16 16" xmlns="http://www.w3.org/2000/svg">
  <path fill="#1e1e1c" d="M13.36 1.75v-1c0-.41-.34-.75-.75-.75s-.75.34-.75.75v1h-1.47v-1c0-.41-.34-.75-.75-.75s-.75.34-.75.75v1H7.42v-1c0-.41-.34-.75-.75-.75s-.75.34-.75.75v1H4.45v-1C4.45.34 4.11 0 3.7 0s-.75.34-.75.75v1H0v12C0 14.99 1.01 16 2.25 16h11.5c1.24 0 2.25-1.01 2.25-2.25v-12h-2.65Zm1.15 12c0 .41-.34.75-.75.75H2.26c-.41 0-.75-.34-.75-.75V3.25h1.46v1.07c0 .41.34.75.75.75s.75-.34.75-.75V3.25h1.47v1.07c0 .41.34.75.75.75s.75-.34.75-.75V3.25h1.47v1.07c0 .41.34.75.75.75s.75-.34.75-.75V3.25h1.47v1.07c0 .41.34.75.75.75s.75-.34.75-.75V3.25h1.15v10.5ZM4 7.25h8.02v1.5H4zm0 3.26h4.8v1.5H4z"/>
</svg>
