<svg viewBox="0 0 32 32" xmlns="http://www.w3.org/2000/svg">
  <path fill="#1e1e1c" d="M15.42 15.67h-7.7v-2H18.1c-1 .52-1.91 1.19-2.68 2m-7.69 3.02v2h5.04c.14-.7.36-1.36.64-2zm0 5.02v2h5.26c-.19-.64-.32-1.31-.39-2zM3.02 30c-.55 0-1-.45-1-1V5.63h4.11v2.76c0 .55.45 1 1 1s1-.45 1-1V5.63h4.13v2.76c0 .55.45 1 1 1s1-.45 1-1V5.63h4.13v2.76c0 .55.45 1 1 1s1-.45 1-1V5.63h4.13v2.76c0 .55.45 1 1 1s1-.45 1-1V5.63h3.47v9.89c.82.82 1.49 1.77 2 2.83V3.63h-5.47V1.01c0-.55-.45-1-1-1s-1 .45-1 1v2.62h-4.13V1.01c0-.55-.45-1-1-1s-1 .45-1 1v2.62h-4.13V1.01C14.27.45 13.82 0 13.27 0s-1 .45-1 1v2.62H8.14V1.01C8.13.45 7.69 0 7.13 0s-1 .45-1 1v2.62H.02v25.37c0 1.65 1.35 3 3 3h15.36c-1.06-.51-2.02-1.18-2.84-2H3.02Zm29-7.23c0 5.09-4.14 9.24-9.24 9.24s-9.24-4.14-9.24-9.24 4.14-9.24 9.24-9.24 9.24 4.14 9.24 9.24m-1.99 0c0-3.99-3.25-7.24-7.24-7.24s-7.24 3.25-7.24 7.24 3.25 7.24 7.24 7.24 7.24-3.25 7.24-7.24m-3.93-1h-2.31v-2.31c0-.55-.45-1-1-1s-1 .45-1 1v2.31h-2.31c-.55 0-1 .45-1 1s.45 1 1 1h2.31v2.31c0 .55.45 1 1 1s1-.45 1-1v-2.31h2.31c.55 0 1-.45 1-1s-.45-1-1-1"/>
</svg>
