<svg viewBox="0 0 48 48" xmlns="http://www.w3.org/2000/svg">
  <path fill="#1e1e1c" d="M39.69 5.5V1.26a1.25 1.25 0 0 0-2.5 0v4.25h-6.81V1.26a1.25 1.25 0 1 0-2.5-.01V5.5h-6.81V1.26C21.08.56 20.52 0 19.83 0s-1.25.56-1.25 1.25V5.5h-6.81V1.26a1.25 1.25 0 1 0-2.5-.01V5.5H0v38.75C0 46.32 1.68 48 3.75 48h40.5c2.07 0 3.75-1.68 3.75-3.75V5.5zm5.81 38.75c0 .69-.56 1.25-1.25 1.25H3.75c-.69 0-1.25-.56-1.25-1.25V8h6.77v4.46a1.25 1.25 0 0 0 2.5 0V8h6.81v4.46a1.25 1.25 0 0 0 2.5 0V8h6.81v4.46a1.25 1.25 0 0 0 2.5 0V8h6.81v4.46a1.25 1.25 0 0 0 2.5 0V8h5.81v36.25ZM11.42 20.74h25.16v2.5H11.42zm0 13.73h21.57v2.5H11.42zm15.05-4.36H11.42v-2.5h15.05z"/>
</svg>
