<svg viewBox="0 0 24 24" xmlns="http://www.w3.org/2000/svg">
  <path fill="#1e1e1c" d="M11.1 22.2c.6.7 1.32 1.29 2.13 1.74H2.68c-1.44 0-2.61-1.17-2.61-2.61V2.74h4.51V.93a.87.87 0 0 1 1.74 0v1.8h2.79V.93a.87.87 0 0 1 1.74 0v1.8h2.79V.93a.87.87 0 0 1 1.74 0v1.8h2.79V.93a.87.87 0 0 1 1.74 0v1.8h4.04v10.49a7.8 7.8 0 0 0-1.74-2.13V4.47h-2.3v1.91a.87.87 0 0 1-1.74 0V4.47h-2.79v1.91a.87.87 0 0 1-1.74 0V4.47h-2.79v1.91a.87.87 0 0 1-1.74 0V4.47H6.32v1.91a.87.87 0 0 1-1.74 0V4.47H1.81v16.85c0 .48.39.87.87.87h8.42Zm.49-10.82h-5.7v1.74h4.34c.37-.64.83-1.23 1.36-1.74m-5.7 4.48v1.74H9.2c-.01-.18-.03-.37-.03-.55 0-.4.04-.8.1-1.19zm18.18 1.19c0 3.87-3.15 7.01-7.02 7.01s-7.02-3.15-7.02-7.01 3.15-7.01 7.02-7.01 7.02 3.15 7.02 7.01m-1.74 0c0-2.91-2.37-5.27-5.28-5.27s-5.28 2.37-5.28 5.27 2.37 5.27 5.28 5.27 5.28-2.37 5.28-5.27m-2.8-.87h-1.6v-1.6a.87.87 0 0 0-1.74 0v1.6h-1.6a.87.87 0 0 0 0 1.74h1.6v1.6a.87.87 0 0 0 1.74 0v-1.6h1.6a.87.87 0 0 0 0-1.74"/>
</svg>
