<svg viewBox="0 0 40 40" xmlns="http://www.w3.org/2000/svg">
  <path fill="#1e1e1c" d="M33.12 4.56V1.12C33.12.5 32.62 0 32 0s-1.12.5-1.12 1.12v3.43h-5.47V1.12c0-.62-.5-1.12-1.12-1.12s-1.12.5-1.12 1.12v3.43H17.7V1.12C17.7.5 17.2 0 16.58 0s-1.12.5-1.12 1.12v3.43H9.99V1.12C9.99.5 9.49 0 8.87 0S7.75.5 7.75 1.12v3.43H.01v32.07c0 1.86 1.51 3.37 3.37 3.37h33.25c1.86 0 3.37-1.51 3.37-3.37V4.56h-6.89Zm4.64 32.07c0 .62-.5 1.12-1.12 1.12H3.39c-.62 0-1.12-.5-1.12-1.12V6.81h5.44v3.61c0 .62.5 1.12 1.12 1.12s1.12-.5 1.12-1.12V6.81h5.47v3.61c0 .62.5 1.12 1.12 1.12s1.12-.5 1.12-1.12V6.81h5.47v3.61c0 .62.5 1.12 1.12 1.12s1.12-.5 1.12-1.12V6.81h5.47v3.61c0 .62.5 1.12 1.12 1.12s1.12-.5 1.12-1.12V6.81h4.64v29.82ZM9.58 17.21h20.88v2.25H9.58zm0 12.63h17.89v2.25H9.58zm12.49-4.07H9.58v-2.25h12.49z"/>
</svg>
