<svg viewBox="0 0 32 32" xmlns="http://www.w3.org/2000/svg">
  <path d="M6.68 23.35 0 30.02V16.19zm8.4 1.9c-.88.94-2.06 1.46-3.31 1.46-1.26 0-2.43-.52-3.31-1.46l-.41-.44-7.19 7.18h21.82l-7.19-7.18zm-1.46-1.36 6.52-6.98v-.02a8.7 8.7 0 0 1-1.68-.96l-1.36.32-1.45.34-.74-1.29-.37-.64H1.3l8.62 9.23c1 1.07 2.7 1.07 3.7 0m7.35-4.21-.17-.56-3.95 4.23 6.68 6.67V19.67h-2.56Zm2.77-12.51c-.92 0-1.67.75-1.67 1.67s.75 1.67 1.67 1.67 1.67-.75 1.67-1.67-.75-1.67-1.67-1.67m6.61 3.32 1.62 1.72-1.22 2.12-2.32-.55c-.79.75-1.76 1.29-2.83 1.6l-.69 2.29h-2.45l-.08-.25-.62-2.07s-.09-.03-.13-.05c-.25-.08-.5-.18-.74-.29s-.47-.23-.7-.36c-.43-.26-.84-.56-1.2-.91l-2.33.55-1.22-2.12 1.66-1.77c-.12-.51-.2-1.03-.2-1.57s.09-1.1.22-1.63l-1.66-1.76 1.22-2.12 2.36.56c.78-.74 1.73-1.27 2.78-1.58l.69-2.3h2.45l.7 2.31c1.07.31 2.03.86 2.82 1.61l2.31-.54 1.22 2.12-1.63 1.73c.13.52.21 1.06.21 1.61s-.09 1.12-.22 1.65Zm-2.94-1.65c0-2.02-1.64-3.67-3.67-3.67a3.666 3.666 0 1 0 0 7.33 3.67 3.67 0 0 0 3.67-3.66"/>
</svg>
