<svg viewBox="0 0 40 40" xmlns="http://www.w3.org/2000/svg">
  <path d="M37.86 12.89c.05-.37.07-.73.07-1.08s-.02-.68-.06-1.03l.98-1.05L40 8.51l-.84-1.45-1.32-2.29L37 3.32l-1.63.38-1.4.33c-.55-.4-1.15-.74-1.78-1.02l-.43-1.43L31.29 0H25.3l-.48 1.6-.43 1.43q-.93.405-1.74.99l-1.47-.35-1.63-.38-.84 1.45-1.32 2.29-.84 1.45L17.7 9.7l1.01 1.07c-.04.36-.06.7-.06 1.04 0 .32.02.64.06.98l-1.02 1.09-1.15 1.22.69 1.2H0v23.71h30.56V23.62h.68l.48-1.6.42-1.39c.64-.28 1.24-.62 1.79-1.01l1.42.33 1.63.38.84-1.45 1.32-2.29.84-1.45-1.15-1.22zm-19.33 5.65.17.29.84 1.45 1.63-.38 1.43-.34c.54.39 1.13.73 1.75 1.01l.15.5-7.17 7.69a2.794 2.794 0 0 1-4.08 0L3.71 18.54zM2.25 20.27l7.37 7.9-7.37 7.37zm.98 17.48 7.92-7.93.44.47c.98 1.05 2.29 1.63 3.69 1.63s2.7-.58 3.68-1.63l.44-.47 7.92 7.93zm17.71-9.58 4.3-4.61v.04h3.07v11.93l-7.37-7.37Zm14.74-16.36c0 .62-.1 1.21-.24 1.79l1.75 1.86-1.32 2.29-2.5-.59a7.3 7.3 0 0 1-2.81 1.64c-.08.03-.16.06-.25.09l-.74 2.47h-2.64l-.66-2.19-.09-.31c-.29-.09-.57-.19-.85-.31-.36-.15-.69-.34-1.02-.55-.08-.05-.16-.1-.24-.16-.32-.22-.63-.45-.9-.72l-2.52.59-1.32-2.29 1.79-1.91c-.13-.55-.22-1.11-.22-1.7s.09-1.19.23-1.76l-1.79-1.9 1.32-2.29 2.55.6c.84-.8 1.87-1.38 3-1.71l.75-2.5h2.64l.75 2.5c1.15.34 2.19.93 3.04 1.74l2.49-.59 1.32 2.29-1.76 1.87c.14.56.23 1.14.23 1.74Zm-7.37-4.54c-2.5 0-4.54 2.04-4.54 4.54s2.04 4.54 4.54 4.54 4.54-2.04 4.54-4.54-2.04-4.54-4.54-4.54m0 6.83c-1.26 0-2.29-1.03-2.29-2.29s1.03-2.29 2.29-2.29 2.29 1.03 2.29 2.29-1.03 2.29-2.29 2.29"/>
</svg>
