<svg viewBox="0 0 32 32" xmlns="http://www.w3.org/2000/svg">
  <path d="M30.27 10.34c.03-.26.04-.52.04-.78s-.01-.48-.04-.73l.71-.75L32 7l-.74-1.29-1.04-1.81-.74-1.29-1.45.34-1.01.24c-.4-.28-.82-.52-1.27-.72l-.31-1.03-.43-1.43h-5.06l-.43 1.42-.31 1.03c-.43.2-.85.43-1.23.7l-1.06-.25-1.45-.34-.74 1.29-1.04 1.81-.74 1.29 1.02 1.08.73.77c-.03.25-.04.5-.04.75q0 .345.03.69l-.74.79-1.02 1.08.52.9H0v18.99h24.4v-12.9h.57l.43-1.42.3-1c.45-.2.88-.44 1.28-.72l1.02.24 1.45.34.74-1.29 1.04-1.81.74-1.29-1.02-1.08-.69-.74ZM14.6 15.02l.11.2.74 1.29 1.45-.34 1.03-.24c.39.27.8.51 1.24.72l.1.34-5.54 5.95c-.83.89-2.24.89-3.07 0l-7.37-7.91h11.3ZM2 16.56l5.57 5.97L2 28.1V16.55Zm.92 13.45 6-6.01.27.29c.8.85 1.86 1.33 3 1.33s2.2-.47 3-1.33l.27-.29 6 6.01zm13.91-7.47 3.2-3.43h2.37v9zM28.31 9.56c0 .49-.08.96-.19 1.41l1.38 1.47-1.04 1.81-1.97-.47c-.67.64-1.5 1.1-2.41 1.36l-.59 1.95H21.4l-.6-1.98c-.1-.03-.19-.07-.28-.1-.39-.14-.76-.31-1.11-.52-.01 0-.03-.02-.04-.03-.34-.21-.66-.45-.95-.73l-1.99.47-.69-1.2-.35-.61 1.42-1.51c-.1-.43-.17-.88-.17-1.34s.07-.94.18-1.39l-1.41-1.5 1.04-1.81 2.01.47c.66-.63 1.47-1.09 2.37-1.35l.59-1.97h2.09l.59 1.97c.91.27 1.73.73 2.4 1.37l1.96-.46 1.04 1.81-1.39 1.48c.11.44.18.9.18 1.38Zm-5.82-3.69c-2.04 0-3.69 1.66-3.69 3.7s1.66 3.7 3.69 3.7 3.69-1.66 3.69-3.7-1.66-3.7-3.69-3.7m0 5.39c-.93 0-1.69-.76-1.69-1.7s.76-1.7 1.69-1.7 1.69.76 1.69 1.7-.76 1.7-1.69 1.7"/>
</svg>
