<svg viewBox="0 0 40 40" xmlns="http://www.w3.org/2000/svg">
  <path d="M19.41 30.76 28.65 40H.9l9.24-9.24.6.64c1.07 1.15 2.51 1.79 4.04 1.79s2.96-.63 4.04-1.79l.6-.64ZM0 19.89v17.83l8.61-8.6zm17.17 9.97L25.43 21l-.03-.1c-.8-.34-1.55-.77-2.23-1.28l-1.81.43-1.63.38-.84-1.45-.47-.82H1.46l10.92 11.71a3.29 3.29 0 0 0 4.79 0Zm9.26-5.54-.25-.83-5.24 5.61 8.61 8.6V24.31h-3.12ZM29.7 9.1c-1.07 0-1.95.87-1.95 1.95S28.62 13 29.7 13s1.95-.87 1.95-1.95-.87-1.95-1.95-1.95m8.24 4.01 2.02 2.15-1.53 2.64-2.89-.68c-.98.93-2.19 1.61-3.53 2l-.86 2.86H28.1l-.87-2.9s-.05-.02-.07-.03c-.38-.12-.74-.26-1.09-.42-.02 0-.03-.02-.05-.02a8 8 0 0 1-.99-.55c-.45-.29-.89-.61-1.27-.99l-2.91.69-1.53-2.64 2.07-2.2c-.15-.63-.25-1.28-.25-1.96s.11-1.38.27-2.03l-2.07-2.2 1.53-2.64 2.94.69c.97-.92 2.16-1.59 3.47-1.98l.88-2.9h3.05l.87 2.89c1.33.39 2.54 1.07 3.51 2.01l2.88-.68L40 6.87l-2.04 2.16c.16.65.26 1.32.26 2.01s-.11 1.4-.28 2.06Zm-4.05-2.07c0-2.31-1.88-4.19-4.2-4.19s-4.2 1.88-4.2 4.19 1.88 4.2 4.2 4.2 4.2-1.88 4.2-4.2"/>
</svg>
