<svg viewBox="0 0 64 64" xmlns="http://www.w3.org/2000/svg">
  <path d="M60.66 20.6c.11-.73.17-1.42.17-2.1s-.05-1.32-.16-2.02l1.93-2.06 1.4-1.49-1.02-1.77-2.18-3.77-1.02-1.77-1.99.47-2.74.65c-1.06-.81-2.24-1.49-3.5-2l-.84-2.78L50.13 0h-8.44l-.59 1.96-.84 2.78c-1.24.5-2.4 1.16-3.44 1.96l-2.85-.67-1.99-.47-1.02 1.77-2.18 3.77-1.02 1.77 1.4 1.49 1.98 2.1c-.11.7-.16 1.38-.16 2.04s.05 1.27.14 1.94l-2 2.12-1.4 1.49 1.02 1.77.2.35H.01V64h49.02V36.99h1.02l.59-1.96.82-2.73a15.3 15.3 0 0 0 3.53-1.99l2.77.65 1.99.47 1.02-1.77 2.18-3.77 1.02-1.77-1.4-1.49zm-30.11 8.32.39.67 1.02 1.77 1.99-.47 2.79-.66c1.04.8 2.2 1.47 3.45 1.99l.3 1L28.2 46.4c-.99 1.06-2.29 1.64-3.67 1.64s-2.69-.58-3.67-1.64L4.55 28.92zM2.76 31.04l13.15 14.11L2.76 58.31V31.05Zm.94 30.21 14.09-14.09 1.05 1.13c1.51 1.62 3.53 2.52 5.68 2.52s4.17-.89 5.68-2.52l1.05-1.13 14.09 14.09zm29.44-16.11 8.26-8.87.21.71h4.67v21.31L33.13 45.13ZM58.09 18.5c0 1.02-.16 2-.4 2.95l2.88 3.07-2.18 3.77-4.12-.97c-1.4 1.33-3.13 2.3-5.04 2.85L48 34.25h-4.35l-.6-2-.4-1.33-.24-.79c-.96-.29-1.87-.69-2.72-1.18-.4-.24-.79-.49-1.17-.77-.37-.28-.73-.58-1.06-.91l-4.15.98-2.18-3.77 2.96-3.14c-.21-.9-.35-1.83-.35-2.8s.16-1.96.38-2.89l-2.95-3.13 2.18-3.77 4.19.99c1.38-1.31 3.07-2.27 4.95-2.82l1.24-4.12h4.35l1.24 4.12c1.9.56 3.62 1.53 5.01 2.87l4.1-.97 2.18 3.77-2.9 3.08c.22.93.38 1.88.38 2.87Zm-12.16-7c-3.86 0-7 3.14-7 7s3.14 7 7 7 7-3.14 7-7-3.14-7-7-7m0 11.25c-2.34 0-4.25-1.91-4.25-4.25s1.91-4.25 4.25-4.25 4.25 1.91 4.25 4.25-1.91 4.25-4.25 4.25"/>
</svg>
