<svg viewBox="0 0 32 32" xmlns="http://www.w3.org/2000/svg">
  <path d="M16.43 13.6 5.87 3.04v-1.7h2v2h3.6V7h8.85V3.34h6.81V1.33h2v2H32l-1 10h-2.31l-.67 4h-7.85l-2.25-2.25h8.2l.25-1.5h-9.94ZM4.25 15.09v-1.5h6.52L2.28 5.1c-.17.38-.27.8-.27 1.24v8.98l-.69 4.1h6.82c.55 0 1 .45 1 1s-.45 1-1 1H1.12c-.05 0-.1-.02-.15-.03l-.41 2.4h6.29c.55 0 1 .45 1 1s-.45 1-1 1H.23l-.18 1.04c-.04.23-.06.46-.05.68.07 1.56 1.36 2.87 3 2.87h7.59a2.98 2.98 0 0 0 2.28-1.05c.22-.26.4-.56.53-.89.06-.16.11-.34.14-.51l1.69-9.89-2.97-2.97H4.25ZM31.71 30.3 1.72.3A.996.996 0 1 0 .31 1.71l29.99 30c.2.2.45.29.71.29s.51-.1.71-.29a.996.996 0 0 0 0-1.41Z"/>
</svg>
