<svg viewBox="0 0 48 48" xmlns="http://www.w3.org/2000/svg">
  <path d="M23.85 20.32 8.55 5.01h.25V2h3v3.01h5.41v6.04h13.27V5.01H40.7V2h3v3.01H48l-1.5 15.01h-3.43l-1.03 6H29.55l-3-3h12.96l.47-2.7zM6 23.02v-2.7h10.78L3.66 7.19A4.5 4.5 0 0 0 3 9.51v13.48l-1.08 6.4H12.2a1.25 1.25 0 0 1 0 2.5H1.68c-.06 0-.12-.03-.18-.04l-.69 4.1h9.48a1.25 1.25 0 0 1 0 2.5H.38l-.31 1.82c-.06.35-.09.69-.07 1.02.03.67.21 1.31.5 1.88.15.29.33.55.53.8.82.99 2.05 1.63 3.46 1.63h11.39c2.17 0 4.03-1.54 4.42-3.68l2.63-15.44-3.47-3.47H6ZM2.16.38C1.67-.11.88-.11.39.38s-.49 1.28 0 1.77l45.48 45.5c.24.24.56.37.88.37s.64-.12.88-.37c.49-.49.49-1.28 0-1.77z"/>
</svg>
