<svg viewBox="0 0 16 16" xmlns="http://www.w3.org/2000/svg">
  <path d="M2.5 7.17v-.49h2.05l-1.5-1.5H2.5v-.55L1.01 3.14v4.03l-.98 6.25a1.5 1.5 0 0 0 1.47 1.77h3.79c.72 0 1.34-.51 1.47-1.22l.69-4.38-2.42-2.42H2.49Zm2.8 6.52-3.79-.04.08-.53c.05.01.1.03.15.03h1.82c.41 0 .75-.34.75-.75s-.34-.75-.75-.75H1.82l.15-.94h2.1c.41 0 .75-.34.75-.75s-.34-.75-.75-.75H2.21l.08-.54h3.8zM5.29 3.18 2.79.68h1.39v1h9.12v-1h1.5v1h1.18l-.5 5h-1.2l-.29 2h-3.22l-1.5-1.5h3.42l.07-.5H8.77l-1.5-1.5h6.84l.2-2h-4.18v1H6.27l-.55-.55v-.44h-.44Zm10.49 12.6c-.15.15-.34.22-.53.22s-.38-.07-.53-.22L.22 1.28C-.07.99-.07.52.22.22s.77-.29 1.06 0l14.5 14.5c.29.29.29.77 0 1.06"/>
</svg>
