<svg viewBox="0 0 64 64" xmlns="http://www.w3.org/2000/svg">
  <path d="m26.97 30.68 4 4h-.27L27.08 55.9a6 6 0 0 1-5.9 4.9H6c-2.35 0-4.33-1.33-5.32-3.23-.2-.38-.36-.78-.47-1.2-.06-.21-.1-.42-.14-.64-.1-.65-.1-1.33.03-2.03l.46-2.72h13.15c.76 0 1.38-.62 1.38-1.38s-.62-1.38-1.38-1.38H1.03l1.02-6.02c.06 0 .13.02.19.02h14.03c.76 0 1.38-.62 1.38-1.38s-.62-1.38-1.38-1.38H2.51L4 30.63V12.67c0-1.4.48-2.68 1.28-3.7l18.1 18.11H8v3.6zm26.33-3.6-.62 3.6H34.4l4 4h17.65l1.38-8.01H62l2-20.01h-5.74V2.65h-4v4.01H40.64v7.55H22.95V6.66h-7.21V2.65h-4v4.01H10.4l20.4 20.42zM2.38.42C1.85-.12.97-.12.44.42c-.54.53-.54 1.4 0 1.94l61.21 61.25c.27.27.62.4.97.4s.7-.13.97-.4c.54-.54.54-1.41 0-1.95z"/>
</svg>
