<svg viewBox="0 0 40 40" xmlns="http://www.w3.org/2000/svg">
  <path d="M14.34 6.43v4.43H25.4V6.43h12.11l-.8 8h-19.1l2.25 2.25h13.75l-.47 2.75H22.61l2.25 2.25h10.17l.86-5h2.85l1.25-12.5h-3.71V1.67h-2.25v2.51H9.71V1.67H7.46v2.51h-.1l2.25 2.25zm2.25 0h6.56v2.18h-6.56zm-11.84 13v-2.75h8.75l-2.25-2.25H4.76v-6.5L2.98 6.15a3.7 3.7 0 0 0-.47 1.78v11.23L.07 33.55a3.75 3.75 0 0 0 3.69 4.44h9.49a3.76 3.76 0 0 0 3.69-3.06l2.16-12.66-2.84-2.84zm9.97 15.09a1.49 1.49 0 0 1-1.47 1.22h-9.5c-.61 0-.99-.34-1.15-.54-.17-.2-.43-.63-.31-1.27l.31-1.81h6.33c.62 0 1.12-.5 1.12-1.12s-.5-1.12-1.12-1.12H2.97l.54-3.22h6.65c.62 0 1.12-.5 1.12-1.12s-.5-1.12-1.12-1.12H3.9l.46-2.73h12.55l-2.19 12.84Zm24.96 5.16c-.22.22-.51.33-.8.33s-.58-.11-.8-.33L.34 1.93C-.1 1.49-.1.78.34.34s1.15-.44 1.59 0l37.74 37.75c.44.44.44 1.15 0 1.59Z"/>
</svg>
