<svg viewBox="0 0 16 16" xmlns="http://www.w3.org/2000/svg">
  <path d="m5.05 7.17 2.41 2.41-.69 4.38a1.49 1.49 0 0 1-1.47 1.22H1.5c-.94 0-1.65-.85-1.47-1.77l.04-.27h3.49c.41 0 .75-.34.75-.75s-.34-.75-.75-.75H.3l.15-.94h3.62c.41 0 .75-.34.75-.75s-.34-.75-.75-.75H.68L1 7.15V3.11l3.54 3.54H2.49v.5h2.55Zm7.73-.5-.07.5H9.29l1.5 1.5h3.22l.29-2h1.2l.5-5h-1.18V.68h-1.5v1h-3.15v1.37H5.75V1.68H4.2v-1H2.81l6 6h3.99Zm3 8.05L1.28.22C.99-.07.51-.07.22.22s-.29.77 0 1.06l14.5 14.5c.15.15.34.22.53.22s.38-.07.53-.22c.29-.29.29-.77 0-1.06"/>
</svg>
