<svg viewBox="0 0 16 16" xmlns="http://www.w3.org/2000/svg">
  <path d="M16 1.49V6.6c0 .8-.66 1.46-1.46 1.46h-3.52v1.35h2.48v1.5H8.95c.73.51 1.22 1.36 1.22 2.32V16h-1.5v-2.77c0-.73-.6-1.33-1.33-1.33H2.83c-.73 0-1.33.6-1.33 1.33V16H0v-2.77c0-1.55 1.27-2.82 2.83-2.82h4.2V9.8c.14-.12.27-.24.39-.38h2.1V8.07H8.11c.04-.21.07-.42.07-.64 0-.3-.06-.58-.14-.86h6.46V1.53H6.03v2.96c-.3-.1-.61-.16-.95-.16-.19 0-.37.02-.56.06v-2.9C4.53.69 5.19.03 5.99.03h8.55c.8 0 1.46.66 1.46 1.46M2.75 7.42a2.34 2.34 0 0 1 2.33-2.34 2.34 2.34 0 0 1 0 4.68 2.34 2.34 0 0 1-2.33-2.34m1.5 0c0 .46.37.83.83.83s.83-.37.83-.83-.37-.83-.83-.83-.83.37-.83.83m7.46-3.09c.51-.51.51-.95.51-1.12a1.029 1.029 0 0 0-1.96-.44 1.029 1.029 0 0 0-1.96.44c0 .17 0 .61.51 1.12l1.44 1.45 1.44-1.45Zm-9.13 11.7h1.5v-2.17h-1.5zm3.51 0h1.5v-2.17h-1.5z"/>
</svg>
