<svg viewBox="0 0 16 16" xmlns="http://www.w3.org/2000/svg">
  <path d="M10.17 13.24v2.77H8.09v-2.15h-1.5v2.15H3.58v-2.15h-1.5v2.15H.01v-2.77c0-1.56 1.27-2.83 2.83-2.83h4.52c1.56 0 2.83 1.27 2.83 2.83Zm5.84-11.78v5.11c0 .8-.66 1.46-1.46 1.46h-3.52v1.35h2.48v1.5h-3.49c-.66-.74-1.6-1.22-2.67-1.22H7.2c.09-.09.17-.19.25-.28h2.08V8.03H8.11q.06-.3.06-.6c0-1.7-1.38-3.08-3.08-3.08-.19 0-.37.02-.55.06V1.46C4.54.66 5.2 0 6 0h8.55c.8 0 1.46.66 1.46 1.46m-3.78 1.72a1.029 1.029 0 0 0-1.96-.44 1.029 1.029 0 0 0-1.96.44c0 .17 0 .61.51 1.12l1.44 1.45L11.7 4.3c.51-.51.51-.95.51-1.12ZM5.09 9.76c1.29 0 2.33-1.04 2.33-2.33S6.38 5.1 5.09 5.1 2.76 6.14 2.76 7.43 3.8 9.76 5.09 9.76"/>
</svg>
