<svg viewBox="0 0 32 32" xmlns="http://www.w3.org/2000/svg">
  <path d="M32.04 1.54v13.04c0 .82-.67 1.5-1.49 1.5h-8.93v3.2h5.45v2H14.19v-2h5.45v-3.2h-4.55c.03-.24.05-.48.05-.72 0-.44-.06-.87-.16-1.28h15.07V2.04H11.19v8.06a5.4 5.4 0 0 0-1.99-.2V1.54c0-.82.67-1.5 1.49-1.5h19.85c.82 0 1.49.67 1.49 1.5ZM5.2 15.36c0-2.47 2-4.48 4.46-4.48s4.46 2 4.46 4.48-2 4.48-4.46 4.48-4.46-2-4.46-4.48m2 0c0 1.37 1.11 2.48 2.47 2.48s2.47-1.11 2.47-2.48-1.11-2.48-2.47-2.48-2.47 1.11-2.47 2.48m16.29-6.74c1.02-1.03 1.02-1.91 1.02-2.24 0-1.13-.92-2.05-2.05-2.05-.61 0-1.16.27-1.54.7-.13.14-.23.3-.31.48a2.04 2.04 0 0 0-2.99-.83c-.54.37-.9.99-.9 1.7 0 .33 0 1.21 1.02 2.24l2.87 2.9 2.87-2.9Zm-9.32 12.96h-9c-2.83 0-5.13 2.31-5.13 5.15v5.28h1.99v-5.28c0-1.74 1.41-3.15 3.14-3.15h9c1.73 0 3.14 1.41 3.14 3.15v5.28h1.99v-5.28c0-2.84-2.3-5.15-5.13-5.15M4.94 32.05h1.99v-4.33H4.94zm7.48 0h1.99v-4.33h-1.99z"/>
</svg>
