<svg viewBox="0 0 40 40" xmlns="http://www.w3.org/2000/svg">
  <path d="M39.99 2.03v16.04c0 1.1-.9 2-2 2H26.78v4.12h6.96v2.25H17.57v-2.25h6.96v-4.12h-5.89c0-.14.02-.28.02-.43 0-.63-.09-1.24-.26-1.82h19.34V2.28H13.57v10.85c-.53-.13-1.07-.21-1.64-.21-.21 0-.41.01-.61.03V2.03c0-1.1.9-2 2-2h24.67c1.1 0 2 .9 2 2M6.33 19.64c0-3.09 2.51-5.6 5.61-5.6s5.61 2.51 5.61 5.6-2.51 5.6-5.61 5.6-5.61-2.51-5.61-5.6m2.25 0a3.35 3.35 0 1 0 6.7 0 3.35 3.35 0 0 0-6.7 0m17.08-5.27 3.61-3.62c1.28-1.28 1.28-2.38 1.28-2.8 0-1.41-1.15-2.56-2.57-2.56-1.03 0-1.91.6-2.32 1.47-.21-.43-.53-.8-.93-1.06s-.88-.41-1.39-.41c-1.42 0-2.57 1.15-2.57 2.56 0 .41 0 1.51 1.28 2.79l3.61 3.62Zm-8.05 12.75H6.31C2.83 27.12 0 29.95 0 33.43v6.6h2.25v-6.6c0-2.24 1.82-4.06 4.07-4.06h11.29c2.24 0 4.07 1.82 4.07 4.06v6.6h2.25v-6.6c0-3.48-2.83-6.31-6.32-6.31M5.87 40h2.25v-5.41H5.87zm9.89 0h2.25v-5.41h-2.25z"/>
</svg>
