<svg viewBox="0 0 48 48" xmlns="http://www.w3.org/2000/svg">
  <path d="M46 .02H15.59c-1.1 0-2 .9-2 2v13.69c.33-.04.65-.07.99-.07 4.4 0 7.98 3.58 7.98 7.98 0 .16-.01.32-.02.48h7.01v5.05H21.1v2.31h.3c.62 0 1.23.07 1.82.19h17.29v-2.5h-8.45V24.1h13.95c1.1 0 2-.9 2-2V2.02c0-1.1-.9-2-2-2Zm-9.34 9.52v.22c-.02.61-.19 1.79-1.54 3.13l-4.33 4.35-4.33-4.35c-.39-.38-.67-.76-.89-1.1-.65-1.04-.65-1.88-.65-2.25A3.1 3.1 0 0 1 26.8 6.7q.555-.24 1.2-.24c1.23 0 2.29.72 2.79 1.77.49-1.04 1.56-1.77 2.79-1.77s2.37.78 2.84 1.88q.24.555.24 1.2M7.5 23.53c0-2.09.95-3.96 2.45-5.19 1.16-.96 2.65-1.54 4.28-1.54s3.12.58 4.28 1.54a6.72 6.72 0 0 1 2.45 5.19c0 3.71-3.01 6.72-6.73 6.72S7.5 27.24 7.5 23.53M28.52 40.1v7.92h-6.1v-6.54h-2.5v6.54H8.54v-6.54h-2.5v6.54H0V40.1c0-4.12 3.36-7.48 7.48-7.48h13.55c4.13 0 7.48 3.35 7.48 7.48Z"/>
</svg>
