<svg viewBox="0 0 64 64" xmlns="http://www.w3.org/2000/svg">
  <path d="M9.7 31.42c0-4.94 4.01-8.95 8.96-8.95s8.96 4.01 8.96 8.95c0 2.16-.77 4.15-2.05 5.69-1.64 1.99-4.13 3.26-6.91 3.26s-5.27-1.27-6.91-3.26a8.9 8.9 0 0 1-2.05-5.69M64 2.03v28.05c0 1.1-.9 2-2 2H42.46v7.01h11.55v2.75H28.16v-2.75h11.55v-7.01H29.22c.01-.21.03-.42.03-.63 0-5.7-4.64-10.33-10.33-10.33-.25 0-.5.02-.75.04V2.03c0-.48.17-.91.45-1.25q.12-.15.27-.27c.35-.29.79-.48 1.28-.48H62c1.1 0 2 .9 2 2M48.9 12.71a4.097 4.097 0 0 0-4.1-4.1c-.2 0-.41.02-.6.04a4.05 4.05 0 0 0-2.08.95c-.43.37-.79.83-1.03 1.36a4.1 4.1 0 0 0-3.11-2.31c-.2-.03-.4-.04-.6-.04a4.097 4.097 0 0 0-4.1 4.1v.3c0 .23.03.52.1.87s.19.74.39 1.16c.2.43.48.9.87 1.39.2.25.42.5.68.75l5.77 5.79 5.77-5.79c.77-.77 1.25-1.5 1.55-2.14.4-.86.48-1.57.5-2.03v-.3Zm-21.18 31.1H9.67C4.34 43.81 0 48.15 0 53.48v10.55h8.14v-8.71h2.75v8.71h15.56v-8.71h2.75v8.71h8.2V53.48c0-5.33-4.34-9.67-9.67-9.67Z"/>
</svg>
