<svg viewBox="0 0 24 24" xmlns="http://www.w3.org/2000/svg">
  <path d="M3.88 11.14c0-.73.22-1.4.6-1.96.25-.37.57-.69.95-.95a3.47 3.47 0 0 1 3.71-.12c.58.34 1.06.84 1.36 1.45.24.48.39 1 .39 1.57 0 1.94-1.57 3.5-3.5 3.5s-3.5-1.57-3.5-3.5ZM24 1.48v9.13c0 .8-.66 1.46-1.46 1.46h-6.27v2.28h3.98v1.75h-6.32c-.84-.68-1.89-1.1-3.04-1.1h-.34v-.65h3.98v-2.28h-2.76c.07-.3.11-.61.11-.93 0-2.41-1.96-4.38-4.38-4.38-.24 0-.47.03-.7.07V1.48c0-.8.66-1.46 1.46-1.46h14.28c.8 0 1.46.66 1.46 1.46m-5.66 3.31c0-.32-.1-.62-.26-.86-.06-.08-.12-.16-.19-.23-.14-.14-.31-.25-.49-.33s-.39-.12-.6-.12c-.31 0-.59.09-.83.25-.12.08-.23.17-.32.28q-.135.165-.24.36-.09-.195-.24-.36a1.55 1.55 0 0 0-1.76-.41c-.18.08-.35.19-.49.33a1.5 1.5 0 0 0-.45 1.09c0 .25 0 .91.77 1.68l2.16 2.18 2.16-2.18c.77-.77.77-1.43.77-1.68Zm-7.58 11.08H3.99c-2.2 0-3.99 1.8-3.99 4v4.15h3.13V20.8h1.75v3.22h5.01V20.8h1.75v3.22h3.12v-4.15c0-2.2-1.79-3.99-3.99-3.99Z"/>
</svg>
