<svg viewBox="0 0 48 48" xmlns="http://www.w3.org/2000/svg">
  <path d="M47.95 2.06v20.03c0 1.1-.9 2-2 2H31.98v5.04h8.47v2.5H21.01v-2.5h8.47v-5.04h-7.3c0-.16.02-.32.02-.48 0-.7-.1-1.38-.27-2.02h23.53V2.56H15.99v13.31c-.58-.13-1.18-.21-1.8-.21-.24 0-.48.02-.71.04V2.06c0-1.1.9-2 2-2h30.45c1.1 0 2 .9 2 2ZM7.46 23.62c0-3.71 3.02-6.71 6.74-6.71s6.74 3 6.74 6.71-3.02 6.71-6.74 6.71-6.74-3-6.74-6.71m2.51 0c0 2.32 1.9 4.21 4.23 4.21s4.23-1.89 4.23-4.21-1.9-4.21-4.23-4.21-4.23 1.89-4.23 4.21m25.09-10.7c.39-.38.68-.75.89-1.1.65-1.04.65-1.88.65-2.25 0-1.7-1.38-3.08-3.09-3.08a3.08 3.08 0 0 0-2.58 1.39c-.08.12-.15.24-.21.38-.06-.13-.13-.26-.21-.38a3.16 3.16 0 0 0-1.29-1.11 3.1 3.1 0 0 0-1.29-.28c-.64 0-1.23.19-1.72.53-.33.22-.61.5-.83.83a3.07 3.07 0 0 0-.53 1.72c0 .5 0 1.81 1.54 3.35l4.34 4.34 4.34-4.34ZM21.02 32.69H7.44c-4.13 0-7.49 3.35-7.49 7.47v7.91h2.51v-7.91c0-2.74 2.24-4.97 4.99-4.97h13.57c2.75 0 4.99 2.23 4.99 4.97v7.91h2.51v-7.91c0-4.12-3.36-7.47-7.49-7.47ZM7.01 48.03h2.51v-6.49H7.01zm11.89 0h2.51v-6.49H18.9z"/>
</svg>
