<svg viewBox="0 0 64 64" xmlns="http://www.w3.org/2000/svg">
  <path d="M57.55 34.69s-6.45 7.53-6.45 11.1 2.89 6.47 6.45 6.47 6.46-2.9 6.46-6.47-6.46-11.1-6.46-11.1m0 14.81c-2.04 0-3.7-1.67-3.7-3.71 0-1.04 1.58-3.82 3.7-6.69 2.12 2.86 3.7 5.65 3.7 6.69 0 2.05-1.66 3.71-3.7 3.71M52.2 28.4l4.26 3.33 7.35-9.58-9.74-7.77-15.66 7v-8.61c0-.83-.67-1.5-1.5-1.5H25.22V2.83h8.05V.07H14.42v2.76h8.05v8.44H10.78c-.83 0-1.5.67-1.5 1.5v8.2H7.65c-1.41 0-5.07 1.72-6.75 4.89-1.08 2.04-1.74 5.42 1.28 9.92l7.1 8.47v18.32c0 .83.67 1.5 1.5 1.5H36.9c.83 0 1.5-.67 1.5-1.5V41.32L52.19 28.4Zm1.46-10.82 6.31 5.04-4.01 5.23-3.93-3.08L38.4 37.53V24.39l15.25-6.81Zm-18 23.02v1.37H12.04V28.8h23.62v11.31l-.24.23zm0-26.57v8.58l-.04.02.04.08v3.34H12.04V14.03zM4.43 34.19c-1.7-2.56-2.11-4.83-1.22-6.76 1.13-2.44 4-3.64 4.46-3.69H9.3v16.24L4.44 34.2Zm7.61 27.12V44.72h23.62v16.59z"/>
</svg>
