<svg viewBox="0 0 16 16" xmlns="http://www.w3.org/2000/svg">
  <path d="M14.38 8.67s1.61 1.88 1.61 2.77a1.61 1.61 0 0 1-1.29 1.58c-.11.02-.21.03-.33.03-.89 0-1.61-.72-1.61-1.61s1.61-2.77 1.61-2.77Zm-1.09-2.12-4.22 3.94v4.01c0 .83-.67 1.5-1.5 1.5H4.03c-.83 0-1.5-.67-1.5-1.5v-2.9L.65 9.36C-.33 7.89.01 6.76.3 6.22c.53-.99 1.64-1.54 2.23-1.56 0-.84.67-1.51 1.5-1.51h.52V2H3.51V0h4.57v2H7.06v1.15h.52c.83 0 1.5.67 1.5 1.5v1.06l4.7-2.1L16 5.38l-1.58 2.05-1.13-.89Zm-10.76.17c-.18.1-.42.28-.5.51-.11.3.07.68.25.96l.25.3zm5.37.19H3.8v3.95h4.1z"/>
</svg>
