<svg viewBox="0 0 48 48" xmlns="http://www.w3.org/2000/svg">
  <path d="M43.2 26.01s-4.85 5.64-4.85 8.31 2.17 4.84 4.85 4.84 4.85-2.17 4.85-4.84-4.85-8.31-4.85-8.31m0 10.65c-1.29 0-2.35-1.05-2.35-2.33.03-.67 1.02-2.41 2.35-4.26 1.33 1.85 2.31 3.59 2.35 4.26 0 1.29-1.05 2.34-2.35 2.34Zm-4.17-15.07 3.23 2.52 5.79-7.51-7.59-6.03-11.63 5.18V10c0-.83-.67-1.5-1.5-1.5h-8.19v-6h5.83V0H10.8v2.5h5.83v5.98H8.44c-.83 0-1.5.67-1.5 1.5v5.55h-.9c-1.1 0-3.96 1.33-5.27 3.77-.84 1.58-1.36 4.19.97 7.65l5.2 6.17v13.37c0 .83.67 1.5 1.5 1.5h18.88c.83 0 1.5-.67 1.5-1.5V31.1l10.21-9.52Zm1.05-8.12 4.47 3.55-2.75 3.57-2.93-2.28-10.06 9.39v-9.22l11.26-5.01ZM26.31 30.15v1.1H9.44v-9.42h16.88v8.2l-.06.05.06.06Zm0-19.16v8.34H9.44v-8.34h16.88ZM3.78 25.51c-1.21-1.82-1.52-3.43-.92-4.79.78-1.76 2.85-2.63 3.17-2.69h.9v11.22zM9.44 45.5V33.74h16.88V45.5z"/>
</svg>
