<svg viewBox="0 0 24 24" xmlns="http://www.w3.org/2000/svg">
  <path d="M21.66 13.01s-2.44 2.82-2.44 4.16 1.09 2.42 2.44 2.42 2.44-1.08 2.44-2.42-2.44-4.16-2.44-4.16m0 4.82c-.36 0-.66-.28-.68-.63.05-.25.31-.73.68-1.28.36.55.62 1.03.68 1.28-.02.35-.31.63-.68.63m-2.42-6.62 1.65 1.27 3.21-4.14-4.12-3.25-6.02 2.66V6.21c0-.83-.68-1.5-1.51-1.5H9.56V1.76h2.56V0H5.21v1.75H7.8v2.96H5.25a1.5 1.5 0 0 0-1.51 1.5V7.6h-.37c-.62 0-2.15.69-2.86 2.01-.46.85-.74 2.24.56 4.14l2.68 3.16v5.59c0 .83.68 1.5 1.51 1.5h7.2a1.5 1.5 0 0 0 1.51-1.5v-6.4l5.29-4.9Zm.48-4.08 1.92 1.52-1.07 1.37-1.43-1.11-5.18 4.8V9.68l5.76-2.54ZM5.49 15.42v-4.18h6.7v4.18zm6.7-8.95v3.02h-6.7V6.47zM2.45 12.7c-.56-.82-.72-1.54-.47-2.13.32-.77 1.23-1.18 1.37-1.22h.37v4.84zm3.04 9.55v-5.08h6.7v5.08z"/>
</svg>
