<svg viewBox="0 0 32 32" xmlns="http://www.w3.org/2000/svg">
  <path d="M28.77 17.34S32 21.1 32 22.88s-1.44 3.23-3.23 3.23-3.23-1.44-3.23-3.23 3.23-5.54 3.23-5.54m-2.56-3.67-7.45 6.96v9.87c0 .83-.67 1.5-1.5 1.5H6.14c-.83 0-1.5-.67-1.5-1.5v-8.02l-3.36-4c-1.8-2.68-1.37-4.77-.69-6.04.96-1.8 2.89-2.83 4.05-2.97V7.65c0-.83.67-1.5 1.5-1.5h3.6V3.51H6.88V0h9.19v3.5h-2.82v2.64h4.01c.83 0 1.5.67 1.5 1.5v3.53l8.49-3.78 4.76 3.79-3.37 4.38-2.43-1.9Zm-21.57-.52c-.38.23-.85.6-1.04 1.1-.22.58-.04 1.31.54 2.2l.5.6v-3.89Zm11.18.57H7.57v7.94h8.25z"/>
</svg>
