<svg viewBox="0 0 48 48" xmlns="http://www.w3.org/2000/svg">
  <path d="M48 34.32c0 1.67-.85 3.15-2.13 4.02-.77.52-1.7.83-2.71.83s-1.93-.3-2.71-.83a4.83 4.83 0 0 1-2.13-4.02c0-1.34 1.21-3.42 2.42-5.16s2.42-3.15 2.42-3.15 1.21 1.41 2.42 3.15S48 32.98 48 34.32m-8.53-15.03L28.8 29.26v17.25c0 .83-.67 1.5-1.5 1.5H8.47c-.31 0-.6-.09-.84-.26-.08-.05-.15-.12-.22-.18-.27-.27-.44-.65-.44-1.06v-12.9l-5.11-6.1c-2.6-3.87-1.99-6.86-1.02-8.68 1.53-2.87 4.76-4.3 6.14-4.3V9.98a1.5 1.5 0 0 1 .66-1.24c.24-.16.53-.26.84-.26h7.17V4.51h-4.82V.01h14.14v4.5h-4.82v3.97h7.17c.83 0 1.5.67 1.5 1.5v5.52l12.19-5.44 7 5.58-4.95 6.44-3.57-2.79Zm-32.5-.19c-.6.25-1.84.98-2.29 2.13-.39.99-.1 2.23.85 3.68l1.44 1.72zm17.11 1.48H11.69v11.93h12.39z"/>
</svg>
