<svg viewBox="0 0 40 40" xmlns="http://www.w3.org/2000/svg">
  <path d="M35.97 21.68S40 26.38 40 28.6s-1.81 4.03-4.03 4.03-4.03-1.81-4.03-4.03 4.03-6.92 4.03-6.92M40 13.09l-4.18 5.43-3.01-2.35-9.19 8.55V38.5c0 .83-.67 1.5-1.5 1.5H7.18c-.83 0-1.5-.67-1.5-1.5V27.91l-4.11-4.9C-.64 19.73-.11 17.2.71 15.65c1.14-2.13 3.55-3.48 4.97-3.62V8.57c0-.83.67-1.5 1.5-1.5h5.07V4H8.48V0h11.48v4h-3.71v3.07h5.88c.83 0 1.5.67 1.5 1.5v4.48L34.1 8.38l5.9 4.7ZM5.68 16.2c-.52.28-1.25.82-1.54 1.56-.3.78-.07 1.77.7 2.94l.84 1zm14.13.99H9.49v9.93h10.32z"/>
</svg>
