<svg viewBox="0 0 48 48" xmlns="http://www.w3.org/2000/svg">
  <path fill="#1e1e1c" d="M45.25 0H2.75C1.23 0 0 1.24 0 2.75V48h48V2.75C48 1.24 46.77 0 45.25 0M2.75 2.5h42.5c.14 0 .25.11.25.25v7.5h-43v-7.5c0-.14.11-.25.25-.25m-.25 43V12.75h43V45.5zM5.49 6.18c0-.93.75-1.68 1.68-1.68s1.68.75 1.68 1.68-.75 1.68-1.68 1.68-1.68-.75-1.68-1.68m4.75 0c0-.93.75-1.68 1.68-1.68s1.68.75 1.68 1.68-.75 1.68-1.68 1.68-1.68-.75-1.68-1.68M24 23.64c-3.26 0-5.91 2.63-5.91 5.87s2.65 5.87 5.91 5.87 5.91-2.63 5.91-5.87-2.65-5.87-5.91-5.87m0 9.23c-1.88 0-3.41-1.51-3.41-3.37s1.53-3.36 3.41-3.36 3.41 1.51 3.41 3.36-1.53 3.37-3.41 3.37m10.18-14.38-3.72 2.13c-.61-.44-1.25-.81-1.93-1.11v-4.26h-9.06v4.26c-.68.3-1.32.67-1.93 1.11l-3.72-2.13-4.54 7.79 3.69 2.11c-.04.39-.07.76-.07 1.11s.02.73.07 1.11l-3.69 2.11 4.54 7.79 3.72-2.13c.61.43 1.25.81 1.93 1.11v4.26h9.06V39.5c.68-.3 1.32-.67 1.93-1.11l3.72 2.13 4.54-7.79-3.69-2.11c.04-.39.07-.76.07-1.11s-.02-.73-.07-1.11l3.69-2.11-4.54-7.79Zm-1.91 8.6.16.87c.11.59.16 1.08.16 1.55s-.05.96-.16 1.55l-.16.87 3.02 1.73-2.02 3.47-3.05-1.75-.67.56c-.8.68-1.71 1.2-2.68 1.54l-.83.3v3.48h-4.06v-3.48l-.83-.3c-.98-.34-1.88-.86-2.68-1.54l-.67-.56-3.06 1.75-2.02-3.47 3.02-1.73-.16-.87c-.11-.59-.16-1.08-.16-1.55s.05-.96.16-1.54l.16-.87-3.02-1.73 2.02-3.47 3.06 1.75.67-.56c.8-.68 1.7-1.2 2.68-1.54l.83-.29v-3.49h4.06v3.48l.83.3c.98.34 1.88.86 2.68 1.54l.67.56 3.05-1.75 2.02 3.47-3.02 1.73Z"/>
</svg>
