<svg viewBox="0 0 24 24" xmlns="http://www.w3.org/2000/svg">
  <path fill="#1e1e1c" d="M14.1 15.82c0 1.1-.9 2-2 2s-2-.9-2-2 .9-2 2-2 2 .9 2 2M0 5.88v-3.5C0 1.07 1.06 0 2.37 0h19.25C22.93 0 24 1.07 24 2.38v3.5zm5.87-2.59c0 .6.49 1.09 1.09 1.09s1.09-.49 1.09-1.09S7.56 2.2 6.96 2.2s-1.09.49-1.09 1.09m-3.25 0c0 .6.49 1.09 1.09 1.09S4.8 3.89 4.8 3.29 4.31 2.2 3.71 2.2s-1.09.49-1.09 1.09M24 7.62V24H0V7.62zm-7.45 7.39 1.54-.88-1.51-2.6-1.56.89c-.42-.35-.89-.63-1.42-.82V9.82h-3.03v1.78c-.53.19-1 .46-1.42.81l-1.56-.89-1.51 2.6 1.54.88c-.05.27-.08.54-.08.82s.03.55.08.82l-1.54.88 1.51 2.6 1.56-.89c.42.35.89.63 1.42.81v1.78h3.03v-1.78c.53-.19 1-.46 1.42-.81l1.56.89 1.51-2.6-1.54-.88c.05-.27.08-.54.08-.82s-.03-.55-.08-.82Z"/>
</svg>
