<svg viewBox="0 0 32 32" xmlns="http://www.w3.org/2000/svg">
  <path fill="#1e1e1c" d="M18.86 20.17c0 1.57-1.29 2.84-2.87 2.84s-2.87-1.27-2.87-2.84 1.29-2.84 2.87-2.84 2.87 1.27 2.87 2.84M0 7V2.5A2.5 2.5 0 0 1 2.5 0h27A2.5 2.5 0 0 1 32 2.5V7zm6.5-3.05c0 .71.58 1.29 1.29 1.29s1.29-.58 1.29-1.29-.58-1.29-1.29-1.29-1.29.58-1.29 1.29m-3.5 0c0 .71.58 1.29 1.29 1.29s1.29-.58 1.29-1.29S5 2.66 4.29 2.66 3 3.24 3 3.95M32 9v23H0V9zM21.94 19.08 24 17.9l-2.02-3.46-2.07 1.19a6.1 6.1 0 0 0-1.89-1.09v-2.37h-4.04v2.37c-.7.25-1.33.62-1.89 1.09l-2.07-1.19L8 17.9l2.06 1.18c-.07.35-.11.72-.11 1.09s.04.74.11 1.09L8 22.44l2.02 3.46 2.07-1.19c.55.47 1.19.84 1.89 1.09v2.37h4.04V25.8c.7-.25 1.33-.62 1.89-1.09l2.07 1.19L24 22.44l-2.06-1.18c.07-.35.11-.72.11-1.09s-.05-.74-.11-1.09"/>
</svg>
