<svg viewBox="0 0 24 24" xmlns="http://www.w3.org/2000/svg">
  <path fill="#1e1e1c" d="M21.62 0H2.38C1.07 0 0 1.07 0 2.38V24h24V2.38C24 1.07 22.93 0 21.62 0M2.38 1.75h19.25c.34 0 .63.28.63.63v3.49H1.75V2.38c0-.35.28-.63.63-.63m-.63 20.5V7.62h20.5v14.63zM3.12 3.71c0-.6.49-1.09 1.09-1.09s1.09.49 1.09 1.09S4.81 4.8 4.21 4.8s-1.09-.49-1.09-1.09m3.25 0c0-.6.49-1.09 1.09-1.09s1.09.49 1.09 1.09S8.06 4.8 7.46 4.8s-1.09-.49-1.09-1.09m5.73 8.41c-1.49 0-2.71 1.22-2.71 2.71s1.22 2.71 2.71 2.71 2.71-1.22 2.71-2.71-1.22-2.71-2.71-2.71m0 3.67a.96.96 0 1 1 0-1.92.96.96 0 0 1 0 1.92m4.43-6.1-1.68.96c-.16-.1-.32-.2-.49-.28V8.44H9.83v1.93c-.17.08-.33.18-.49.28l-1.68-.96-2.27 3.9 1.67.96v.56l-1.67.96 2.27 3.9 1.68-.96c.16.1.32.2.49.28v1.93h4.53v-1.93c.17-.08.33-.18.49-.28l1.68.96 2.27-3.9-1.67-.96v-.56l1.67-.96zm-1.2 4.55c.04.22.06.41.06.59s-.02.37-.06.59l-.11.61 1.19.68-.51.87-1.2-.69-.47.39c-.31.26-.65.46-1.03.59l-.58.21v1.37h-1.03v-1.37l-.58-.21a3.3 3.3 0 0 1-1.03-.59l-.47-.39-1.2.69-.51-.87 1.19-.68-.11-.61c-.04-.22-.06-.41-.06-.59s.02-.36.06-.59l.11-.61-1.19-.68.51-.87 1.2.69.47-.39c.31-.26.65-.46 1.03-.59l.58-.21v-1.37h1.03v1.37l.58.21c.37.13.72.33 1.03.59l.47.39 1.2-.69.51.87-1.19.68z"/>
</svg>
