<svg viewBox="0 0 40 40" xmlns="http://www.w3.org/2000/svg">
  <path fill="#1e1e1c" d="M40 8.82V2.55c0-1.45-1.18-2.62-2.63-2.62H2.62A2.61 2.61 0 0 0 0 2.55v6.27zM9.35 3.53c.82 0 1.48.67 1.48 1.48s-.67 1.48-1.48 1.48-1.48-.67-1.48-1.48.67-1.48 1.48-1.48m-4.37 0c.82 0 1.48.67 1.48 1.48s-.67 1.48-1.48 1.48S3.5 5.82 3.5 5.01s.67-1.48 1.48-1.48m18.6 22c0 1.96-1.61 3.55-3.58 3.55s-3.58-1.59-3.58-3.55 1.61-3.55 3.58-3.55 3.58 1.59 3.58 3.55M0 11.07v28.85h40V11.07zm27.57 14.46c0 .47-.06.92-.14 1.36L30 28.36l-2.52 4.33-2.59-1.48a7.5 7.5 0 0 1-2.36 1.36v2.96h-5.05v-2.96c-.88-.31-1.67-.77-2.36-1.36l-2.59 1.48-2.52-4.33 2.57-1.47c-.08-.44-.14-.9-.14-1.36s.06-.92.14-1.36l-2.57-1.47 2.52-4.33 2.59 1.48a7.5 7.5 0 0 1 2.36-1.36v-2.96h5.05v2.96c.88.31 1.67.77 2.36 1.36l2.59-1.48L30 22.7l-2.57 1.47c.08.44.14.9.14 1.36"/>
</svg>
