<svg viewBox="0 0 24 24" xmlns="http://www.w3.org/2000/svg">
  <path d="M24 12.61c0 2.38-.69 4.59-1.89 6.45a12.1 12.1 0 0 1-2.79 3.04c-.66.51-1.36.95-2.12 1.31l-2.8-7.24c.12-.09.24-.19.34-.29.77-.73 1.25-1.75 1.25-2.89a4.01 4.01 0 0 0-4.01-4.01 4.003 4.003 0 0 0-4.01 4.01c0 .92.32 1.76.85 2.44.21.27.44.51.71.71l-2.8 7.25c-1.25-.61-2.37-1.43-3.33-2.41-.02-.02-.03-.04-.05-.05-.33-.34-.63-.69-.91-1.07A12 12 0 0 1 0 12.61a11.97 11.97 0 0 1 4.37-9.25C6.45 1.64 9.1.61 12 .61c6.63 0 12 5.37 12 12"/>
</svg>
