<svg viewBox="0 0 48 48" xmlns="http://www.w3.org/2000/svg">
  <path d="M24.01 3.71c11.86 0 21.5 9.64 21.5 21.5 0 7.38-3.69 14.06-9.78 18l-3.95-10.2c1.76-1.92 2.74-4.4 2.74-7.05 0-5.8-4.72-10.52-10.52-10.52s-10.52 4.72-10.52 10.52c0 2.6.96 5.06 2.68 6.97L12.2 43.15C6.15 39.2 2.5 32.54 2.5 25.2c.01-11.85 9.65-21.49 21.51-21.49m0-2.5C10.75 1.21 0 11.95 0 25.21c0 9.48 5.52 17.65 13.5 21.55l5.61-14.49c-1.89-1.47-3.12-3.73-3.12-6.31 0-4.43 3.59-8.02 8.02-8.02s8.02 3.59 8.02 8.02c0 2.61-1.26 4.9-3.19 6.36l5.6 14.48c8.02-3.88 13.57-12.08 13.57-21.59 0-13.25-10.75-24-24-24"/>
</svg>
