<svg viewBox="0 0 24 24" xmlns="http://www.w3.org/2000/svg">
  <path d="M12 2.36c5.65 0 10.25 4.6 10.25 10.25 0 3.31-1.55 6.32-4.15 8.23l-1.64-4.23c.83-1.02 1.3-2.28 1.3-3.62 0-3.18-2.58-5.76-5.76-5.76s-5.76 2.58-5.76 5.76c0 1.32.45 2.57 1.27 3.58l-1.64 4.24c-2.58-1.91-4.11-4.91-4.11-8.2C1.75 6.96 6.35 2.36 12 2.36m0-1.75c-6.62 0-12 5.37-12 12 0 4.74 2.76 8.82 6.75 10.77l2.8-7.25a4 4 0 0 1-1.56-3.15c0-2.21 1.79-4.01 4.01-4.01s4.01 1.79 4.01 4.01c0 1.3-.63 2.45-1.59 3.18l2.8 7.24c4.01-1.94 6.79-6.04 6.79-10.8C24 5.98 18.63.61 12 .61"/>
</svg>
