<svg viewBox="0 0 40 40" xmlns="http://www.w3.org/2000/svg">
  <path d="M20 3.24c9.79 0 17.75 7.96 17.75 17.75 0 6.02-2.97 11.48-7.9 14.75l-3.18-8.21a8.82 8.82 0 0 0 2.26-5.91c0-4.92-4.01-8.93-8.93-8.93s-8.93 4.01-8.93 8.93c0 2.18.79 4.23 2.21 5.85l-3.19 8.23c-4.89-3.27-7.84-8.71-7.84-14.71C2.25 11.2 10.22 3.24 20 3.24m0-2.25c-11.04 0-20 8.95-20 20 0 7.9 4.6 14.71 11.25 17.96l4.67-12.08c-1.57-1.22-2.6-3.11-2.6-5.25 0-3.69 2.99-6.68 6.68-6.68s6.68 2.99 6.68 6.68c0 2.17-1.05 4.08-2.66 5.3l4.67 12.06C35.38 35.74 40 28.91 40 20.99c0-11.05-8.95-20-20-20"/>
</svg>
