<svg viewBox="0 0 32 32" xmlns="http://www.w3.org/2000/svg">
  <path d="M32 16.79c0 6.34-3.7 11.8-9.05 14.39l-3.73-9.65c.32-.24.61-.52.87-.83q.195-.225.36-.48c.56-.84.89-1.84.89-2.93s-.34-2.14-.91-2.99c-.96-1.42-2.59-2.36-4.43-2.36s-3.47.93-4.43 2.36a5.3 5.3 0 0 0-.91 2.99c0 .64.12 1.26.33 1.83.35.95.97 1.77 1.75 2.38L9 31.16c-5.32-2.6-9-8.05-9-14.37 0-1.65.26-3.25.72-4.76A16.01 16.01 0 0 1 11.24 1.51c1.5-.47 3.1-.72 4.76-.72a15.95 15.95 0 0 1 7.63 1.93c1.81.99 3.42 2.31 4.72 3.89s2.31 3.42 2.93 5.42c.47 1.5.72 3.1.72 4.76"/>
</svg>
