<svg viewBox="0 0 24 24" xmlns="http://www.w3.org/2000/svg">
  <path d="m22.92 11.35 1.05.96-1.13 3.11 1.13 2.22-1.07 2.04-1.5-.88-.05.02-.06.24.22.63v.65l-1.56.81-.77-.75-1.62.42-.43-.75-.17-.03-.42 2.74v.97l-2.66.16-1.54-3.12-.96.31.36 1.19-1.84 1.72H4.18l-.48-3.49-1.35-.12-.68 1.24L0 21.48v-4.75l.78-.59-.29-.42.31-1.53 1.66-1.46.67-2.63 2.62-1.63.7.47 1.59-1.25h2.75c-1.19 1.71-1.9 3.78-1.9 6.02v.85c0 .97.78 1.75 1.75 1.75s1.75-.78 1.75-1.75v-.85c0-2.91 1.77-5.42 4.29-6.49l.91.41-.06.06c-.68.68-.68 1.79 0 2.48.34.34.79.51 1.24.51.19 0 .37-.04.55-.1l-.07.36.43.67 1.3.16 1.94-.41ZM9.78 13.7v.85h1.75v-.85c0-4.38 3.55-7.94 7.91-7.94h1.24l-2.53 2.53a.881.881 0 0 0 .62 1.5c.23 0 .45-.09.62-.26L24 4.91 19.39.29a.88.88 0 0 0-1.24 0c-.34.34-.34.9 0 1.24l2.48 2.48h-1.2c-5.33 0-9.66 4.35-9.66 9.69Z"/>
</svg>
