<svg viewBox="0 0 48 48" xmlns="http://www.w3.org/2000/svg">
  <path d="M36.11 16.05a2.51 2.51 0 0 0-.7 2.07l-4.56-2.05-1.74-.31c.87-.74 1.81-1.4 2.83-1.94l4.42 1.99-.24.24Zm-9.19-5.03-2.82 1.77-.05.95c.89-.98 1.87-1.86 2.93-2.66zm18.66 13.13-3.87.83-2.59-.31-.85-2.85.3-1.61c-.23.07-.46.11-.7.11-.62 0-1.24-.24-1.72-.7l-.33 1.73-.11.6.18.59.85 2.85.47 1.57 1.62.19 2.59.31.41.05.4-.09 2.21-.47-1.45 2.91-.6 1.21.67 1.17 1.76 3.05-.28.54-.74-.44-.94-.55-1.04.32-.1.03-1.38.42-.33 1.41-.11.48-.16.71.24.69.09.25-.2-.2-1-.98-1.35.35-1.39.36-.5-.87-1.18-.19-.33-.05-2.48-.4-.38 2.49-.83 5.44-1.35.08-2.34-4.76-.95-1.94-2.05.67-1.92.63-2.32.75.7 2.35.27.9-1.83 1.71h-8.25l-.66-4.81-.27-1.98-1.98-.17-2.7-.23-1.62-.14-.78 1.43v.02-4.96l.57-.43 1.9-1.43-1.32-1.95.24-1.2 2.69-2.37.58-.51.19-.75 1.09-4.29 3.01-1.88.06.04 1.5 1.01 1.42-1.12 2.49-1.97h3.77l.41.34c.39-.75.82-1.47 1.29-2.17l-.83-.67h-5.51l-3.17 2.5-1.39-.93-5.22 3.26-1.34 5.26-3.32 2.92-.61 3.06.57.84-1.56 1.18v9.49l3.34.39 1.35-2.49 2.7.23.95 6.97h11.4l3.68-3.44-.71-2.39 1.92-.63 3.07 6.24 5.3-.31V45.5l.83-5.48.33.05.85 1.5 3.24-.84 1.54 1.5 3.1-1.62v-1.29l-.45-1.27.11-.48.1-.03 2.99 1.76 2.14-4.08-2.45-4.24 2.45-4.92-2.09-1.92ZM43.06 8.24h-3.82c-10.69 0-19.38 8.74-19.38 19.48v1.75h2.49v-1.75c0-9.36 7.58-16.98 16.89-16.98h3.92l-6.17 6.2a1.25 1.25 0 0 0 0 1.77c.24.24.56.37.88.37s.64-.12.88-.37l9.12-9.17L38.75.36c-.49-.49-1.27-.49-1.76 0s-.49 1.28 0 1.77l6.07 6.1Z"/>
</svg>
