<svg viewBox="0 0 40 40" xmlns="http://www.w3.org/2000/svg">
  <path d="m39.98 21.49-1.3 4.93 1.3 2.95-1.79 3.4-2.5-1.47-.09.03-.09.4.38 1.06v1.08l-2.6 1.35L32 33.97l-2.71.7-.71-1.25-.28-.04-.7 4.56v1.62l-4.44.26-2.57-5.2-1.61.52.6 1.99L16.5 40H6.96l-.8-5.81L3.9 34l-1.13 2.07-2.79-.3v-7.91l1.31-.98-.48-.7.51-2.55 2.78-2.44 1.12-4.39 4.37-2.71 1.17.78 2.65-2.09h4.61l.49.39a17.1 17.1 0 0 0-3.01 9.71v1.44c0 1.24 1.01 2.25 2.25 2.25S20 25.56 20 24.32v-1.44c0-4.92 2.81-9.19 6.9-11.3l3.23 1.45-.14.14c-.88.88-.88 2.31 0 3.18.44.44 1.01.66 1.59.66q.405 0 .78-.15l-.25 1.34.71 2.12 2.17.26 3.24-.69zm-23.35 1.39v1.44h2.25v-1.44c0-7.64 6.21-13.85 13.84-13.85h3l-4.92 4.93a1.123 1.123 0 0 0 .8 1.92c.29 0 .58-.11.8-.33l7.6-7.6-7.61-7.6c-.44-.44-1.15-.44-1.59 0s-.44 1.15 0 1.59l4.84 4.85h-2.92c-8.87 0-16.09 7.22-16.09 16.1Z"/>
</svg>
