<svg viewBox="0 0 16 16" xmlns="http://www.w3.org/2000/svg">
  <path d="m15.62 10.25.42 1.48-.72 1.36-1-.59h-.03l-.04.17.15.42v.43l-1.04.54-.52-.5-1.08.28-.29-.5-.11-.02-.28 1.83v.65l-1.78.1-1.03-2.08-.65.21.24.8-1.23 1.15H2.81l-.32-2.32-.9-.08-.45.83-1.12-.13v-3.16l.52-.39-.19-.28.21-1.02 1.11-.97.45-1.76 1.75-1.09.47.31 1.06-.83h1.27c-.32.48-.59.99-.8 1.54l-.61.48-.86.67-.57-.38-.42.26-.3 1.17-.12.45-.35.31-.68.59.61.89-1.07.8v.2l.2.02.9.08 1.2.1.16 1.19.14 1.03h1.92l.12-.11-.39-1.31 1.4-.45.65-.21 1.23-.4.57 1.16.19.38.07-.44.23-1.49 1.49.24.11.02.71.11.07.13.37-.1.16-.69.83-.25.4-.12-.08-.29-.1-.35.07-.36.13-.65-.17.04-.25-.03-.87-.1-.71-.08-.38-.6-.29-.45-.32-.5.07-.39c.27.21.58.34.9.34.23 0 .45-.07.66-.17l.23.37.87.1 1.3-.28.7.64-.42 2.08ZM6.17 9.16v.56h1.5v-.56c0-2.78 2.26-5.05 5.05-5.05h.4l-1.37 1.37c-.29.29-.29.77 0 1.06.15.15.34.22.53.22s.38-.07.53-.22l3.17-3.17L12.81.21a.754.754 0 0 0-1.06 0c-.29.29-.29.77 0 1.06l1.34 1.34h-.37a6.56 6.56 0 0 0-6.55 6.55"/>
</svg>
