<svg viewBox="0 0 48 48" xmlns="http://www.w3.org/2000/svg">
  <path d="M27.02 11.11c-1.06.79-2.04 1.68-2.93 2.66l.05-.95 2.82-1.77zm18.6 13.06-3.87.83-2.59-.31-.85-2.85.3-1.61c-.23.07-.46.11-.7.11-.64 0-1.27-.24-1.76-.73-.97-.98-.97-2.56 0-3.54l.24-.24-4.42-1.99c-4.95 2.64-8.34 7.88-8.34 13.9v1.75c0 1.38-1.11 2.5-2.49 2.5s-2.49-1.12-2.49-2.5v-1.75c0-4.36 1.35-8.4 3.64-11.74l-.83-.67h-5.51l-3.17 2.5-1.39-.93-3.22 2.01-2 1.25-1.34 5.26-3.32 2.92-.62 3.06.57.84-1.56 1.18v9.49h.01l3.34.39 1.35-2.49 2.7.23.95 6.97h11.4l3.68-3.44-.71-2.39 1.92-.63 3.07 6.24 5.31-.31v-1.95l.83-5.48.33.05.85 1.5 3.24-.84 1.54 1.5 3.1-1.62v-1.29l-.45-1.27.11-.48.1-.03 2.99 1.76 2.14-4.08-2.45-4.24 2.45-4.92-2.09-1.92ZM43.09 8.26h-3.82c-10.68 0-19.38 8.74-19.38 19.48v1.75h2.49v-1.75c0-9.36 7.58-16.98 16.89-16.98h3.92l-6.17 6.2a1.25 1.25 0 0 0 0 1.77c.24.24.56.37.88.37s.64-.12.88-.37l9.12-9.17L38.78.39c-.49-.49-1.27-.49-1.76 0s-.49 1.28 0 1.77z"/>
</svg>
