<svg viewBox="0 0 24 24" xmlns="http://www.w3.org/2000/svg">
  <path d="M17.52 7.66c-.44.44-.59 1.06-.47 1.62l-1.69-.76-.62-.11c.57-.5 1.22-.92 1.92-1.22l.91.41-.06.06Zm5.39 3.67-1.94.41-1.3-.16-.43-.67.07-.36c-.18.06-.36.1-.55.1-.42 0-.83-.16-1.16-.45l-.07.39-.13.68.37.59.43.67.45.7.82.1 1.3.16.29.03.28-.06.37-.08-.52 1.42-.26.72.35.68.35.69-.73.22-.05.02-.97.29-.23.99v.06l-.9.23-.33.09-.18-.31-.83-.13-.17-.03-1.74-.28-.27 1.74-.34 2.23-.99-1.99-.67-1.36-1.44.47-.97.31-1.63.53.49 1.64.05.15-.55.51H5.67L5.4 20.3l-.19-1.39-1.4-.12-1.36-.12-.75-.06V17.6l.08-.06 1.34-1-.81-1.2.05-.23 1.22-1.07.41-.36.13-.53.5-1.95 1.07-.66.82.55 1-.78 1.12-.88h1.16c.27-.62.61-1.2.99-1.75H8.02L6.43 8.93l-.7-.47-2.63 1.63-.67 2.63-1.67 1.46-.31 1.53.29.42-.79.59v4.75l1.68.19.68-1.24 1.36.12.48 3.49h5.73l1.85-1.72-.36-1.19.97-.31 1.54 3.12 2.67-.16v-.97l.42-2.74.17.03.43.75 1.63-.42.77.75 1.56-.81v-.65l-.23-.63.06-.24.05-.02 1.5.88 1.08-2.04-1.13-2.22 1.13-3.11-1.05-.96ZM9.73 13.68v.85h1.75v-.85c0-4.38 3.56-7.94 7.93-7.94h1.25l-2.53 2.53a.881.881 0 0 0 .62 1.5c.22 0 .45-.09.62-.26l4.62-4.62L19.38.27a.88.88 0 0 0-1.24 0c-.34.34-.34.9 0 1.24l2.49 2.48h-1.2c-5.34 0-9.69 4.35-9.69 9.69Z"/>
</svg>
