<svg viewBox="0 0 16 16" xmlns="http://www.w3.org/2000/svg">
  <path d="m15.64 10.27.42 1.48-.72 1.36-1-.59h-.03l-.04.17.15.42v.43l-1.04.54-.52-.5-1.08.28-.28-.5-.11-.02-.24 1.58-.04.24v.65l-1.78.1-1.03-2.08-.64.21.24.8-1.23 1.15H2.85l-.32-2.32-.9-.08-.45.83-1.12-.13v-3.16l.52-.39-.19-.28H.4l.21-1.02 1.11-.97.45-1.76 1.75-1.09.47.31 1.06-.83h1.27a7.2 7.2 0 0 0-1.25 4.07v.56c0 .83.67 1.5 1.5 1.5s1.5-.67 1.5-1.5v-.56c0-1.78 1.09-3.31 2.63-3.96-.38.58-.35 1.36.16 1.88.29.29.68.44 1.06.44.23 0 .45-.07.66-.17l.23.37.87.1 1.29-.28.7.64-.42 2.07ZM6.21 9.18v.56h1.5v-.56c0-2.78 2.26-5.05 5.04-5.05h.4L11.78 5.5c-.29.29-.29.77 0 1.06.15.15.34.22.53.22s.38-.07.53-.22L16 3.39 12.84.23c-.29-.29-.77-.29-1.06 0s-.29.77 0 1.06l1.34 1.34h-.37c-3.61 0-6.54 2.94-6.54 6.55"/>
</svg>
