<svg viewBox="0 0 64 64" xmlns="http://www.w3.org/2000/svg">
  <path d="m32.3 18.91.1-1.94 3.78-2.37.39.41a26.8 26.8 0 0 0-4.27 3.9m6.46 1.39 2.84.51 6.31 2.84c.02-.68.28-1.36.8-1.88l.54-.54-6.83-3.07-.41-.07c-1.15.65-2.24 1.39-3.24 2.23Zm25.19 14.46-2.8-2.57-5.18 1.11-3.47-.42-1.14-3.81.55-2.91a2.72 2.72 0 0 1-2.78-.13l-.48 2.53-.13.66.19.65 1.14 3.81.52 1.73 1.79.21 3.47.42.45.05.45-.1 3.8-.81.21.2-2.35 4.72-.67 1.34.75 1.29 2.52 4.36-.81 1.55-1.52-.9-1.04-.61-1.15.35-.14.04-1.53.46-.36 1.56-.15.64-.18.79.27.76.32.89-.79.41-.64-.62-1.11-1.08-1.49.39-2.3.6-.09-.17-.65-1.15-1.3-.21-.44-.07-2.74-.44-.42 2.75-1.11 7.34-.03.21v.21l-2.69.16-3.31-6.72-1.05-2.14-2.26.73-2.58.84-2.56.83.77 2.59.46 1.55-2.88 2.7H13.51l-.95-6.95-.3-2.19-2.19-.19-3.61-.31-1.79-.15-.86 1.59-.92 1.69-.19-.02v-8.87l.99-.75 2.1-1.59-1.48-2.18-.11-.17.41-2.05 3.75-3.3.64-.57.21-.83 1.52-5.97 4.55-2.84.39.26 1.66 1.11 1.57-1.24 3.5-2.76h5.45l.95.77c.45-.82.94-1.61 1.46-2.37l-1.44-1.17h-7.38l-4.24 3.35-1.86-1.25-6.99 4.36-1.79 7.05-4.45 3.91-.82 4.1.76 1.13-2.1 1.66V57.3l4.47.52 1.81-3.33 3.61.31 1.28 9.33h15.26l4.93-4.61-.95-3.2 2.58-.84 4.11 8.36 7.1-.42v-2.61l1.11-7.34.44.07 1.14 2 4.33-1.13 2.06 2 4.15-2.17v-1.73l-.6-1.7.15-.64.14-.04 4 2.36 2.86-5.46-3.28-5.68 3.29-6.59Zm-29.2-10.05s0 .01-.01.02h.01zM58.3 11.17h-5.82c-14.14 0-25.65 11.57-25.65 25.8v2.35h2.75v-2.35c0-12.7 10.27-23.04 22.9-23.04h5.95l-8.75 8.8c-.54.54-.54 1.42 0 1.96.27.27.62.4.97.4s.7-.13.97-.4l12.01-12.08L51.62.54c-.54-.54-1.41-.54-1.95 0s-.54 1.42 0 1.96l8.62 8.67Z"/>
</svg>
