<svg viewBox="0 0 64 64" xmlns="http://www.w3.org/2000/svg">
  <path d="m32.33 18.94.1-1.94 2.33-1.46 1.45-.91.39.41a26.8 26.8 0 0 0-4.27 3.9m31.66 15.84-2.8-2.57-5.18 1.11-3.47-.42-1.14-3.81.55-2.91c-.4.21-.83.32-1.27.32-.7 0-1.41-.27-1.95-.81a2.783 2.783 0 0 1 0-3.91l.54-.54-6.83-3.07-.41-.07C35.44 21.81 30.97 28.88 30.97 37v2.35c0 1.53-1.23 2.77-2.75 2.77s-2.75-1.24-2.75-2.77V37c0-5.74 1.78-11.06 4.81-15.45l-1.44-1.17h-7.38l-4.24 3.35-1.86-1.25-6.99 4.36-1.79 7.05-4.45 3.91-.82 4.1.76 1.13-2.08 1.58v12.71l4.47.52 1.81-3.33 3.61.31 1.28 9.33h15.26l4.93-4.61-.95-3.2 2.58-.84 4.11 8.36 7.1-.42v-2.61l1.11-7.34.44.07 1.14 2 4.33-1.13 2.06 2 4.15-2.17v-1.73l-.6-1.7.15-.64.14-.04 4 2.36 2.86-5.46-3.28-5.68 2.19-4.39 1.1-2.2Zm-5.65-23.59h-5.82c-14.15 0-25.66 11.57-25.66 25.8v2.35h2.75v-2.35c0-12.7 10.28-23.04 22.91-23.04h5.95l-8.76 8.8c-.54.54-.54 1.42 0 1.96.27.27.62.4.97.4s.7-.13.97-.4l12.01-12.08-12-12.07c-.54-.54-1.41-.54-1.95 0s-.54 1.42 0 1.96z"/>
</svg>
