<svg viewBox="0 0 24 24" xmlns="http://www.w3.org/2000/svg">
  <path d="m8.06 15.64 2.96 2.96-2.96 2.96c-.17.17-.4.26-.62.26s-.45-.09-.62-.26a.88.88 0 0 1 0-1.24l.84-.84H1.68V12h1.75v5.73h4.23l-.84-.84a.88.88 0 0 1 0-1.24c.34-.34.9-.34 1.24 0Zm7.83-12.57c.34-.34.34-.9 0-1.24a.88.88 0 0 0-1.24 0l-2.96 2.96 2.96 2.96c.17.17.4.26.62.26s.45-.09.62-.26c.34-.34.34-.9 0-1.24l-.84-.84h4.23v4.73h1.75V3.92h-5.98l.84-.84Zm-5.4 7.43H0V0h10.49v10.51ZM8.74 1.75H1.75v7h6.99zm4.76 13.51h1.75v-1.75H13.5zm0 8.73h1.75v-1.75H13.5zm4.37-8.73h1.75v-1.75h-1.75zm0 8.73h1.75v-1.75h-1.75zm4.38-10.48v1.75H24v-1.75zm0 10.48H24v-1.75h-1.75zm-8.75-4.35h1.75v-1.75H13.5zm8.75 0H24v-1.75h-1.75z"/>
</svg>
