<svg viewBox="0 0 64 64" xmlns="http://www.w3.org/2000/svg">
  <path d="m20.81 42.39 7.21 7.21-7.21 7.21c-.27.27-.62.4-.97.4s-.7-.13-.97-.4c-.54-.54-.54-1.41 0-1.95l3.89-3.89H5.43V32h2.75v16.22h14.57l-3.89-3.89c-.54-.54-.54-1.41 0-1.95s1.41-.54 1.95 0Zm19.9-21.98a1.376 1.376 0 0 0 .97-2.35l-3.89-3.89h14.57v13.55h2.75v-16.3H37.79l3.89-3.89c.54-.54.54-1.41 0-1.95s-1.41-.54-1.95 0l-7.21 7.21L39.73 20c.27.27.62.4.97.4ZM27.99 0H0v27.99h27.99zM64 44.43v-5.66h-2.76v-2.76h-5.66v2.76h-2.75v-2.76h-5.66v2.76h-2.75v-2.76h-5.66v2.76h-2.74v5.66h2.74v2.75h-2.74v5.66h2.74v2.75h-2.74v5.66h2.74V64h5.66v-2.75h2.75V64h5.66v-2.75h2.75V64h5.66v-2.75H64v-5.66h-2.76v-2.75H64v-5.66h-2.76v-2.75z"/>
</svg>
