<svg viewBox="0 0 48 48" xmlns="http://www.w3.org/2000/svg">
  <path d="m15.76 31.64 5.56 5.56-5.56 5.56c-.24.24-.56.37-.88.37s-.64-.12-.88-.37a1.25 1.25 0 0 1 0-1.77l2.54-2.54H3.85V24h2.5v11.95h10.18l-2.54-2.54c-.49-.49-.49-1.28 0-1.77s1.28-.49 1.77 0m25.8-10.84V8.35H28.88l2.54-2.54c.49-.49.49-1.28 0-1.77a1.25 1.25 0 0 0-1.77 0L24.09 9.6l5.56 5.56c.24.24.56.37.88.37s.64-.12.88-.37c.49-.49.49-1.28 0-1.77l-2.54-2.54h10.18v9.95h2.5Zm-20.57.21H0V0h20.99v21Zm-2.5-18.5H2.5v16h15.99zM27 29.5h2.5V27H27zm0 18.51h2.5v-2.5H27zM45.5 27v2.5H48V27zM27 41.84h2.5v-2.5H27zm18.5 0H48v-2.5h-2.5zM27 35.67h2.5v-2.5H27zm18.5 0H48v-2.5h-2.5zm0 12.34H48v-2.5h-2.5zM33.17 29.5h2.5V27h-2.5zm0 18.51h2.5v-2.5h-2.5zm6.16-18.51h2.5V27h-2.5zm0 18.51h2.5v-2.5h-2.5z"/>
</svg>
