<svg viewBox="0 0 48 48" xmlns="http://www.w3.org/2000/svg">
  <path d="m15.76 31.64 5.56 5.56-5.56 5.56c-.24.24-.56.37-.88.37s-.64-.12-.88-.37a1.25 1.25 0 0 1 0-1.77l2.54-2.54H3.85V24h2.5v11.95h10.18l-2.54-2.54c-.49-.49-.49-1.28 0-1.77s1.28-.49 1.77 0m14.78-16.11c.32 0 .64-.12.88-.37.49-.49.49-1.28 0-1.77l-2.54-2.54h10.18v9.95h2.5V8.35H28.88l2.54-2.54c.49-.49.49-1.28 0-1.77a1.25 1.25 0 0 0-1.77 0L24.09 9.6l5.56 5.56c.24.24.56.37.88.37ZM20.99 0H0v21h20.99zM48 33.17V29.5h-2.5v-2.49h-3.66v2.49h-2.5v-2.49h-3.66v2.49h-2.5v-2.49h-3.67v2.49h-2.5v3.67h2.5v2.5h-2.5v3.67h2.5v2.5h-2.5v3.67h2.5v2.5h3.67v-2.5h2.5v2.5h3.66v-2.5h2.5v2.5h3.66v-2.5H48v-3.67h-2.5v-2.5H48v-3.67h-2.5v-2.5z"/>
</svg>
