<svg viewBox="0 0 40 40" xmlns="http://www.w3.org/2000/svg">
  <path d="M13.19 26.31 17.88 31l-4.69 4.69c-.22.22-.51.33-.8.33s-.58-.11-.8-.33c-.44-.44-.44-1.15 0-1.59l1.98-1.98H3.13V20h2.25v9.87h8.2l-1.98-1.98c-.44-.44-.44-1.15 0-1.59s1.15-.44 1.59 0ZM26.24 4.9c.44-.44.44-1.15 0-1.59s-1.15-.44-1.59 0L19.96 8l4.69 4.69c.22.22.51.33.8.33s.58-.11.8-.33c.44-.44.44-1.15 0-1.59l-1.98-1.98h8.2v8.21h2.25V6.88H24.27l1.98-1.98Zm-8.75 12.6H0V0h17.49zM15.24 2.26H2.25v12.99h12.99zm7.19 22.5h2.25v-2.25h-2.25zm0 15.25h2.25v-2.25h-2.25zm15.32-17.5v2.25H40v-2.25zm-15.32 9.87h2.25v-2.25h-2.25zm15.32 0H40v-2.25h-2.25zm0 7.63H40v-2.25h-2.25zm-7.69-15.25h2.25v-2.25h-2.25zm0 15.25h2.25v-2.25h-2.25z"/>
</svg>
