<svg viewBox="0 0 40 40" xmlns="http://www.w3.org/2000/svg">
  <path d="m13.18 26.31 4.7 4.69-4.7 4.69c-.22.22-.51.33-.8.33s-.58-.11-.8-.33c-.44-.44-.44-1.15 0-1.59l1.98-1.98H3.1V20h2.25v9.87h8.21l-1.98-1.98c-.44-.44-.44-1.15 0-1.59s1.15-.44 1.59 0Zm12.27-13.29a1.123 1.123 0 0 0 .8-1.92l-1.98-1.98h8.21v8.21h2.25V6.88H24.26l1.98-1.98c.44-.44.44-1.15 0-1.59s-1.15-.44-1.59 0L19.95 8l4.7 4.69c.22.22.51.33.8.33M17.49 0H-.04v17.5h17.52V0Zm22.47 30.13v-5.38h-2.19V22.5h-5.45v2.25h-2.25V22.5h-5.38v2.25h-2.25v5.38h2.25v2.25h-2.25v5.37h2.25V40h5.38v-2.25h2.25V40h5.45v-2.25h2.19v-5.37h-2.19v-2.25z"/>
</svg>
