<svg viewBox="0 0 64 64" xmlns="http://www.w3.org/2000/svg">
  <path d="M54.96 9.38h-4.4V2.73c0-1.52-1.23-2.75-2.75-2.75H6.61c-1.52 0-2.75 1.23-2.75 2.75V19c0 1.52 1.23 2.75 2.75 2.75H47.8c1.52 0 2.75-1.23 2.75-2.75v-6.87h4.4a2.5 2.5 0 0 1 2.5 2.5v10.11c0 1.25-.93 2.31-2.15 2.47l-28.83 3.58v9.51h-5.93v22.69c0 .55.45 1 1 1h12.67c.55 0 1-.45 1-1V40.3h-5.99v-7.08l26.43-3.28a5.27 5.27 0 0 0 4.55-5.2V14.63c0-2.89-2.35-5.25-5.25-5.25ZM47.81 19H6.61V2.73H47.8V19ZM32.46 61.23h-9.17V43.04h9.17z"/>
</svg>
