<svg viewBox="0 0 40 40" xmlns="http://www.w3.org/2000/svg">
  <path d="M35.59 10.49V8.86c0-2.07-1.68-3.75-3.75-3.75h-10.2v-4.1c0-.55-.45-1-1-1h-8.79c-.55 0-1 .45-1 1V5.1H9.34c-2.07 0-3.75 1.68-3.75 3.75v1.63h30ZM14.85 4.02h2.79v1.09h-2.79zm20.74 28.76V12.74h-30v20.04zm-18.2-13.46s.75.67.44 1.91c0 0 2.41-2.39 2.33-5.46 0 0 2.22.36 3.36 4.3 0 0 .69-.44.31-2.05 0 0 2.52 2.14 2.58 5.27 0 0 .03 2.72-3.36 4.55 0 0 1.97-4.24-1.86-7.1 0 0 .33 2.33-.97 3.36 0 0 .22-1-.36-1.8.01.03.21.78-.97 2.19 0 0-1.05 1.5-.08 3.38 0 0-2.63-1-3.05-3.8 0 0 .19-1.5.97-2.94 0 0 .72-1.03.67-1.8Zm18.2 15.71v4.99h-30v-4.99z"/>
</svg>
