<svg viewBox="0 0 64 64" xmlns="http://www.w3.org/2000/svg">
  <path d="M50.94 8.16H34.62V2.02c0-1.11-.9-2.01-2-2.01H19.36c-1.1 0-2 .9-2 2v6.14h-2.42c-3.31 0-6 2.69-6 6V64h48V14.16c0-3.32-2.69-6-6-6M20.11 2.77h11.76v5.34H20.11zm-5.17 8.14h36c1.79 0 3.25 1.46 3.25 3.25v3.03h-42.5v-3.03c0-1.79 1.46-3.25 3.25-3.25m39.25 9.04v32.91h-42.5V19.95zm-42.5 41.31v-5.65h42.5v5.65zM25.2 38.5s.31-2.4 1.55-4.7c0 0 1.15-1.64 1.06-2.88 0 0 1.2 1.07.71 3.06 0 0 3.86-3.82 3.73-8.74 0 0 3.55.58 5.37 6.88 0 0 1.11-.71.49-3.28 0 0 4.04 3.42 4.13 8.43 0 0 .04 4.35-5.37 7.28 0 0 3.15-6.79-2.97-11.36 0 0 .53 3.73-1.55 5.37 0 0 .35-1.6-.58-2.88.02.04.33 1.25-1.55 3.51 0 0-1.69 2.4-.13 5.41 0 0-4.21-1.6-4.88-6.08Z"/>
</svg>
