<svg viewBox="0 0 24 24" xmlns="http://www.w3.org/2000/svg">
  <path d="M23.53 5.47v3.79c0 1.47-1.1 2.73-2.56 2.93l-9.06 1.13v1.79h1.26v7.88c0 .55-.45 1-1 1h-3.5c-.55 0-1-.45-1-1v-7.88h1.24v-4.44l11.67-1.45-.06-3.74-1.6.04v.64a2.01 2.01 0 0 1-1.23 1.85c-.24.1-.5.16-.78.16H3.42c-.41 0-.8-.13-1.12-.34s-.57-.52-.73-.88c-.1-.24-.16-.5-.16-.78V1.99c0-.28.06-.54.16-.78.15-.36.41-.66.73-.88S3-.02 3.42-.02h13.51c.28 0 .54.06.78.16.22.09.41.23.58.39.02.02.04.03.05.04.02.02.03.04.04.05.16.17.29.37.39.58.1.24.16.5.16.78v.54h1.65c1.63 0 2.95 1.32 2.95 2.95"/>
</svg>
