<svg viewBox="0 0 48 48" xmlns="http://www.w3.org/2000/svg">
  <path d="M38.21 6.1H25.97V1.49c0-.83-.68-1.49-1.5-1.49h-9.95c-.83 0-1.5.67-1.5 1.5v4.61h-1.81a4.5 4.5 0 0 0-4.5 4.5V48h36V10.6c0-2.49-2.01-4.5-4.5-4.5M15.52 2.49h7.95V6.1h-7.95zM11.21 8.6h27c1.1 0 2 .9 2 2v2.06h-31V10.6c0-1.1.9-2 2-2m29 6.56v24.25h-31V15.16zm-31 30.33v-3.58h31v3.58zm9.69-16.64s.23-1.8 1.16-3.53c0 0 .87-1.23.8-2.16 0 0 .9.8.53 2.3 0 0 2.89-2.86 2.8-6.56 0 0 2.66.43 4.03 5.16 0 0 .83-.53.37-2.46 0 0 3.03 2.56 3.09 6.32 0 0 .03 3.26-4.03 5.46 0 0 2.36-5.09-2.23-8.52 0 0 .4 2.8-1.16 4.03 0 0 .27-1.2-.43-2.16.01.03.25.94-1.17 2.63 0 0-1.26 1.8-.1 4.06 0 0-3.16-1.2-3.66-4.56Z"/>
</svg>
