<svg viewBox="0 0 24 24" xmlns="http://www.w3.org/2000/svg">
  <path d="M20.58 3.27h-1.65V1.98c0-1.1-.9-2-2.01-2H3.42c-1.11 0-2.01.9-2.01 2.01v4.16a2 2 0 0 0 2 2h13.51a2 2 0 0 0 2-2V4.78h1.65c.39 0 .7.32.7.7v3.79c0 .35-.26.65-.6.69L9.65 11.33v3.77H7.66v7.88c0 .55.45 1 1 1h3.5c.55 0 1-.45 1-1V15.1h-2.01v-2.45l9.71-1.21a2.21 2.21 0 0 0 1.91-2.18V5.47c0-1.21-.99-2.2-2.2-2.2Zm-3.16 2.87c0 .28-.23.5-.5.5H3.42c-.28 0-.5-.22-.5-.5V1.99c0-.28.23-.5.5-.5h13.51c.28 0 .5.23.5.5v4.16Zm-5.75 16.34h-2.5V16.6h2.5z"/>
</svg>
