<svg viewBox="0 0 32 32" xmlns="http://www.w3.org/2000/svg">
  <path d="M25.47 4.1h-8.16V1.02c0-.55-.45-1-1-1H9.68c-.55 0-1 .45-1 1v3.07H7.47c-1.66 0-3 1.34-3 3v24.93h24V7.1c0-1.66-1.34-3-3-3M10.68 2.02h4.63v2.05h-4.63zM7.47 6.1h18c.55 0 1 .45 1 1v1.2h-20V7.1c0-.55.45-1 1-1m19 4.2v15.83h-20V10.3zm-20 19.72v-1.89h20v1.89zm6.13-10.76s.16-1.2.78-2.35c0 0 .58-.82.53-1.44 0 0 .6.53.35 1.53 0 0 1.93-1.91 1.86-4.37 0 0 1.77.29 2.68 3.44 0 0 .55-.36.24-1.64 0 0 2.02 1.71 2.06 4.22 0 0 .02 2.17-2.68 3.64 0 0 1.58-3.4-1.49-5.68 0 0 .27 1.86-.78 2.69 0 0 .18-.8-.29-1.44 0 .02.17.63-.78 1.75 0 0-.84 1.2-.07 2.71 0 0-2.11-.8-2.44-3.04Z"/>
</svg>
