<svg viewBox="0 0 16 16" xmlns="http://www.w3.org/2000/svg">
  <path d="M12.74 2.04H8.66V1c0-.55-.45-1-1-1H5.34c-.55 0-.99.45-.99 1v1.04h-.6c-.83 0-1.5.67-1.5 1.5V16h12V3.54c0-.83-.67-1.5-1.5-1.5ZM5.85 1.5h1.32v.54H5.85zm6.89 2.04v.69h-9v-.69zm0 2.19v6.41h-9V5.73zm-9 8.77v-.86h9v.86zM6.7 9.46s.06-.49.32-.96c0 0 .23-.33.22-.59 0 0 .24.22.14.62 0 0 .79-.78.76-1.78 0 0 .72.12 1.09 1.4 0 0 .23-.14.1-.67 0 0 .82.7.84 1.72 0 0 0 .88-1.09 1.48 0 0 .64-1.38-.6-2.31 0 0 .11.76-.32 1.09 0 0 .07-.32-.12-.59 0 0 .07.25-.32.71 0 0-.34.49-.03 1.1 0 0-.86-.33-.99-1.24Z"/>
</svg>
