<svg viewBox="0 0 40 40" xmlns="http://www.w3.org/2000/svg">
  <path d="M39.66 16.59c-.19-1.06-.48-2.14-.88-3.23-2.51-6.9-8.63-12.11-15.9-13.13-.45-.06-.89-.11-1.34-.14-.14-.01-.28-.02-.41-.02-.31-.02-.62-.03-.92-.03h-.38q-.915 0-1.8.09c-.09 0-.19.02-.28.03-.6.07-1.2.16-1.78.28-.07.01-.14.03-.21.05-.61.13-1.21.28-1.79.47-.02 0-.04.01-.06.02-.59.19-1.16.4-1.72.64-.05.02-.09.04-.14.06q-.81.36-1.59.78c-.07.04-.15.08-.22.12-.5.28-.98.58-1.45.9-.08.05-.16.11-.24.16-.46.32-.91.67-1.34 1.03l-.22.19c-.43.37-.85.76-1.25 1.16-.06.06-.11.12-.17.17q-.615.63-1.17 1.32c-.03.03-.05.07-.08.1-.37.47-.72.95-1.05 1.45-.02.03-.03.05-.05.07-.33.5-.62 1.02-.91 1.55-.03.07-.07.13-.11.19-.26.51-.5 1.04-.72 1.58-.04.09-.07.17-.11.26-.21.53-.4 1.08-.56 1.63-.03.09-.05.19-.08.28-.16.56-.29 1.13-.4 1.71-.02.09-.03.18-.05.26-.1.6-.18 1.2-.23 1.82 0 .06 0 .13-.01.19-.05.65-.07 1.3-.05 1.96.04 1.51.26 2.99.64 4.41.51 1.9 1.31 3.7 2.34 5.35 1.29 2.07 2.96 3.9 4.91 5.41 1.56 1.21 3.3 2.21 5.17 2.95 2.21.87 4.34 1.28 6.4 1.34h.15c.07 0 .14 0 .22-.01.09 0 .18 0 .27-.01.1 0 .19-.02.29-.04.09-.01.17-.02.26-.04s.19-.04.28-.07c.08-.02.17-.04.25-.07.09-.03.18-.06.27-.1.08-.03.16-.06.23-.09.09-.04.17-.08.26-.12.07-.04.15-.07.22-.11l.24-.15c.07-.04.14-.08.21-.13.08-.06.15-.12.23-.18.06-.05.13-.1.19-.15.07-.06.14-.13.21-.2.06-.05.12-.11.17-.16.07-.07.13-.15.2-.22.05-.06.11-.12.16-.18.06-.08.12-.16.17-.24.05-.06.1-.13.14-.19.06-.08.1-.17.15-.26.04-.07.08-.13.12-.2.05-.09.09-.19.13-.28.03-.07.07-.14.1-.21.04-.1.07-.2.11-.3.02-.07.05-.14.08-.21.03-.11.06-.22.08-.33.02-.07.04-.14.05-.21l.06-.37c0-.06.02-.12.03-.18.02-.19.03-.37.03-.56v-3.48c0-.77.16-1.5.44-2.17a5.58 5.58 0 0 1 5.14-3.4h3.83c3.12 0 5.64-2.56 5.59-5.67-.02-1.02-.12-2.07-.31-3.13ZM6.02 13.56a3.02 3.02 0 0 1 2.49-1.33q.63 0 1.17.24a3 3 0 0 1 1.83 2.77c0 1.66-1.34 3-3 3s-3-1.34-3-3c0-.62.19-1.2.51-1.68m2.85 14.78c-1.15 0-2.13-.65-2.64-1.6-.22-.42-.36-.89-.36-1.4 0-1.66 1.34-3 3-3 1.15 0 2.13.65 2.64 1.6.22.42.36.89.36 1.4 0 1.66-1.34 3-3 3M12.99 8.1c0-1.66 1.34-3 3-3s3 1.34 3 3-1.34 3-3 3-3-1.34-3-3m3.78 26.54c-1.66 0-3-1.34-3-3s1.34-3 3-3 3 1.34 3 3-1.34 3-3 3m9.26-22.97a3 3 0 0 1-2.77-1.83c-.15-.36-.24-.75-.24-1.17s.08-.81.24-1.17a3 3 0 0 1 2.77-1.83c1.66 0 3 1.34 3 3s-1.34 3-3 3m8.46 6.97A3.02 3.02 0 0 1 32 19.97q-.63 0-1.17-.24A3 3 0 0 1 29 16.96c0-1.66 1.34-3 3-3s3 1.34 3 3c0 .62-.19 1.2-.51 1.68"/>
</svg>
