<svg viewBox="0 0 64 64" xmlns="http://www.w3.org/2000/svg">
  <path d="M63.85 29.07q-.12-1.245-.36-2.52c-.16-.85-.35-1.7-.58-2.56s-.51-1.73-.83-2.6a32.9 32.9 0 0 0-5.33-9.44c-.91-1.12-1.88-2.18-2.92-3.17s-2.14-1.91-3.3-2.75C46.47 3.08 41.74 1.08 36.65.37c-.72-.1-1.43-.17-2.14-.23-.22-.02-.44-.02-.66-.04-.5-.03-.99-.05-1.49-.05-.12 0-.25-.01-.37-.01-.16 0-.32.01-.48.01-.26 0-.52 0-.78.02-.33.01-.65.03-.97.05L29 .18c-.33.03-.65.07-.97.11l-.73.09c-.33.05-.66.11-.98.17-.23.04-.46.08-.69.13-.35.07-.69.15-1.03.23-.2.05-.41.09-.61.14-.41.11-.82.23-1.23.35-.13.04-.26.07-.38.11-.53.17-1.06.35-1.58.54l-.36.15c-.39.15-.79.31-1.17.48-.18.08-.36.17-.54.25-.32.15-.64.29-.96.45-.2.1-.39.2-.58.3-.29.15-.58.31-.87.47-.2.11-.4.23-.59.35-.27.16-.55.33-.82.5l-.59.38c-.26.17-.52.35-.78.53-.19.14-.38.27-.57.41l-.75.57c-.18.14-.37.29-.55.44-.24.2-.48.41-.72.61-.17.15-.35.3-.52.46-.24.22-.47.44-.7.66-.16.16-.32.31-.48.47-.23.24-.46.48-.69.73-.14.15-.29.3-.43.46-.24.27-.48.55-.71.83-.11.14-.23.27-.34.41-.3.38-.6.76-.89 1.16l-.11.14c-.32.44-.63.9-.93 1.36-.08.12-.15.25-.23.38-.21.34-.42.67-.62 1.02-.1.18-.2.35-.29.53-.17.3-.34.6-.49.91-.1.2-.2.4-.29.6-.14.29-.29.59-.42.89-.1.21-.19.43-.28.64-.12.29-.25.59-.36.89-.09.22-.17.45-.25.67-.11.3-.21.6-.31.9-.08.23-.15.46-.22.69-.09.3-.18.61-.26.92-.06.24-.13.47-.18.71-.08.31-.15.63-.21.94l-.15.72c-.06.32-.11.65-.17.97-.04.24-.08.47-.11.71-.05.34-.08.69-.12 1.03-.02.23-.05.45-.07.68-.03.38-.05.77-.07 1.16 0 .19-.02.38-.03.58-.02.58-.02 1.17 0 1.76.13 4.83 1.42 9.45 3.61 13.59.37.69.76 1.37 1.17 2.03.83 1.32 1.75 2.59 2.76 3.78a33.8 33.8 0 0 0 7.02 6.26c1.98 1.32 4.1 2.44 6.35 3.33 2.21.87 4.37 1.45 6.49 1.79 1.27.2 2.52.31 3.75.35h.24c.12 0 .23-.01.35-.02.14 0 .29 0 .43-.02.15-.01.31-.04.46-.06a6 6 0 0 0 .85-.18c.13-.03.27-.07.4-.11.14-.05.28-.1.43-.15.13-.05.25-.09.38-.15.14-.06.27-.13.41-.2.12-.06.24-.12.35-.18.13-.07.26-.16.39-.24l.33-.21c.13-.09.25-.18.37-.28.1-.08.21-.16.3-.24.12-.1.23-.21.34-.32.09-.09.19-.17.28-.26.11-.11.21-.23.31-.35.08-.1.17-.19.25-.29.1-.12.19-.26.28-.39.07-.1.15-.2.22-.31.09-.13.17-.28.25-.42.06-.11.13-.21.19-.33.08-.14.14-.29.21-.44.05-.11.11-.22.16-.34.06-.16.12-.32.17-.48.04-.11.09-.23.12-.34.05-.17.09-.35.13-.52.03-.11.06-.22.08-.33.04-.19.06-.39.09-.59.01-.1.03-.19.04-.29.03-.3.05-.6.05-.9v-5.57c0-4.92 3.99-8.92 8.92-8.92h6.13c4.05 0 7.48-2.7 8.58-6.39.08-.28.16-.57.21-.87.11-.59.17-1.2.16-1.82-.01-.82-.06-1.64-.14-2.48Zm-55.2-4.7c0-.69.14-1.35.39-1.95.51-1.2 1.46-2.15 2.66-2.66a5.06 5.06 0 0 1 3.9 0c1.2.51 2.15 1.46 2.66 2.66.25.6.39 1.26.39 1.95 0 2.76-2.24 5-5 5s-5-2.24-5-5m5.58 21.17c-2.76 0-5-2.24-5-5 0-.69.14-1.35.39-1.95.51-1.2 1.46-2.15 2.66-2.66a5.06 5.06 0 0 1 3.9 0c1.2.51 2.15 1.46 2.66 2.66.25.6.39 1.26.39 1.95 0 2.76-2.24 5-5 5m6.4-32.59c0-2.76 2.24-5 5-5 .69 0 1.35.14 1.95.39 1.2.51 2.15 1.46 2.66 2.66a5.06 5.06 0 0 1 0 3.9 5.02 5.02 0 0 1-2.66 2.66c-.6.25-1.26.39-1.95.39-2.76 0-5-2.24-5-5m6.25 42.67c-2.76 0-5-2.24-5-5s2.24-5 5-5 5 2.24 5 5-2.24 5-5 5m14.81-36.75c-2.76 0-5-2.24-5-5 0-.69.14-1.35.39-1.95.51-1.2 1.46-2.15 2.66-2.66a5.06 5.06 0 0 1 3.9 0c1.2.51 2.15 1.46 2.66 2.66.25.6.39 1.26.39 1.95 0 2.76-2.24 5-5 5m9.56 13.26c-1.38 0-2.63-.56-3.54-1.46-.04-.04-.07-.09-.11-.13-.3-.32-.55-.68-.75-1.07-.37-.7-.6-1.49-.6-2.33 0-2.76 2.24-5 5-5a4.97 4.97 0 0 1 4.15 2.2c.54.8.85 1.76.85 2.8 0 2.76-2.24 5-5 5Z"/>
</svg>
