<svg viewBox="0 0 48 48" xmlns="http://www.w3.org/2000/svg">
  <path d="M46.56 16.02C43.55 7.74 36.2 1.49 27.48.26 26.3.09 25.14.01 23.99.01 10.52.02-.36 11.12 0 24.67c.26 9.67 6.69 18.19 15.68 21.74 2.65 1.05 5.21 1.53 7.68 1.6h.18c3.59 0 6.46-3.08 6.46-6.69v-4.18a6.69 6.69 0 0 1 6.69-6.69h4.59c3.74 0 6.77-3.07 6.71-6.81-.04-2.45-.48-5.01-1.43-7.62M44.29 26.7a4.2 4.2 0 0 1-3 1.26H36.7c-5.07 0-9.19 4.12-9.19 9.19v4.18c0 2.27-1.81 4.19-3.96 4.19h-.11c-2.3-.07-4.59-.55-6.83-1.43C8.4 40.85 2.73 33.02 2.51 24.61c-.16-5.86 2.01-11.4 6.09-15.59s9.55-6.5 15.4-6.5c1.04 0 2.1.07 3.14.22 7.64 1.08 14.35 6.63 17.08 14.14.81 2.24 1.24 4.53 1.28 6.81a4.15 4.15 0 0 1-1.21 3.01m-5.86-10.86c-2.49 0-4.5 2.01-4.5 4.5s2.01 4.5 4.5 4.5 4.5-2.01 4.5-4.5-2.01-4.5-4.5-4.5m0 6.5c-1.1 0-2-.9-2-2s.9-2 2-2 2 .9 2 2-.9 2-2 2M10.67 25.9c-2.49 0-4.5 2.01-4.5 4.5s2.01 4.5 4.5 4.5 4.5-2.01 4.5-4.5-2.01-4.5-4.5-4.5m0 6.5c-1.1 0-2-.9-2-2s.9-2 2-2 2 .9 2 2-.9 2-2 2m-.44-9.63c2.49 0 4.5-2.01 4.5-4.5s-2.01-4.5-4.5-4.5-4.5 2.01-4.5 4.5 2.01 4.5 4.5 4.5m0-6.5c1.1 0 2 .9 2 2s-.9 2-2 2-2-.9-2-2 .9-2 2-2m25.54-5.88c0-2.49-2.01-4.5-4.5-4.5s-4.5 2.01-4.5 4.5 2.01 4.5 4.5 4.5 4.5-2.01 4.5-4.5m-4.5 2c-1.1 0-2-.9-2-2s.9-2 2-2 2 .9 2 2-.9 2-2 2M19.22 14.2c2.49 0 4.5-2.01 4.5-4.5s-2.01-4.5-4.5-4.5-4.5 2.01-4.5 4.5 2.01 4.5 4.5 4.5m0-6.5c1.1 0 2 .9 2 2s-.9 2-2 2-2-.9-2-2 .9-2 2-2m.94 25.76c-2.49 0-4.5 2.01-4.5 4.5s2.01 4.5 4.5 4.5 4.5-2.01 4.5-4.5-2.01-4.5-4.5-4.5m0 6.5c-1.1 0-2-.9-2-2s.9-2 2-2 2 .9 2 2-.9 2-2 2"/>
</svg>
