<svg viewBox="0 0 40 40" xmlns="http://www.w3.org/2000/svg">
  <path d="M38.78 13.35C36.27 6.45 30.15 1.24 22.88.22Q21.41.01 19.97.01C8.74.01-.32 9.26-.02 20.56c.21 8.05 5.58 15.16 13.07 18.12 2.21.87 4.34 1.28 6.4 1.34h.15c2.99 0 5.38-2.56 5.38-5.58v-3.48c0-3.08 2.49-5.57 5.57-5.57h3.83c3.12 0 5.64-2.56 5.59-5.67-.03-2.05-.4-4.17-1.19-6.35Zm-2.02 8.78c-.63.64-1.48 1-2.38 1h-3.83c-4.31 0-7.82 3.51-7.82 7.82v3.48c0 1.8-1.43 3.33-3.13 3.33h-.09a16.8 16.8 0 0 1-5.64-1.18C7.09 33.9 2.41 27.44 2.22 20.5c-.13-4.84 1.66-9.41 5.03-12.87s7.89-5.37 12.72-5.37c.86 0 1.73.06 2.59.18 6.31.89 11.84 5.47 14.1 11.67.67 1.85 1.03 3.74 1.06 5.62.01.9-.33 1.75-.96 2.39ZM32 13.2c-2.07 0-3.75 1.68-3.75 3.75S29.93 20.7 32 20.7s3.75-1.68 3.75-3.75S34.07 13.2 32 13.2m0 5.25c-.83 0-1.5-.67-1.5-1.5s.67-1.5 1.5-1.5 1.5.67 1.5 1.5-.67 1.5-1.5 1.5M8.87 21.58c-2.07 0-3.75 1.68-3.75 3.75s1.68 3.75 3.75 3.75 3.75-1.68 3.75-3.75-1.68-3.75-3.75-3.75m0 5.25c-.83 0-1.5-.67-1.5-1.5s.67-1.5 1.5-1.5 1.5.67 1.5 1.5-.67 1.5-1.5 1.5m-.37-7.86c2.07 0 3.75-1.68 3.75-3.75s-1.68-3.75-3.75-3.75-3.75 1.68-3.75 3.75 1.68 3.75 3.75 3.75m0-5.25c.83 0 1.5.67 1.5 1.5s-.67 1.5-1.5 1.5-1.5-.67-1.5-1.5.67-1.5 1.5-1.5m21.28-5.06c0-2.07-1.68-3.75-3.75-3.75s-3.75 1.68-3.75 3.75 1.68 3.75 3.75 3.75 3.75-1.68 3.75-3.75m-3.75 1.5c-.83 0-1.5-.67-1.5-1.5s.67-1.5 1.5-1.5 1.5.67 1.5 1.5-.67 1.5-1.5 1.5m-10.04 1.67c2.07 0 3.75-1.68 3.75-3.75s-1.68-3.75-3.75-3.75-3.75 1.68-3.75 3.75 1.68 3.75 3.75 3.75m0-5.25c.83 0 1.5.67 1.5 1.5s-.67 1.5-1.5 1.5-1.5-.67-1.5-1.5.67-1.5 1.5-1.5m.78 21.3c-2.07 0-3.75 1.68-3.75 3.75s1.68 3.75 3.75 3.75 3.75-1.68 3.75-3.75-1.68-3.75-3.75-3.75m0 5.25c-.83 0-1.5-.67-1.5-1.5s.67-1.5 1.5-1.5 1.5.67 1.5 1.5-.67 1.5-1.5 1.5"/>
</svg>
