<svg viewBox="0 0 24 24" xmlns="http://www.w3.org/2000/svg">
  <path d="M23.28 8.01a12.4 12.4 0 0 0-2-3.54C19.41 2.16 16.74.55 13.74.13c-.42-.06-.84-.09-1.25-.11H12c-.2 0-.4.02-.6.03-.17 0-.35.01-.52.03-.28.03-.55.07-.83.12-.15.02-.3.04-.44.07-.35.07-.69.16-1.03.26-.06.02-.13.03-.19.05-.4.13-.79.27-1.17.44-.11.05-.22.11-.33.16-.26.12-.53.25-.78.39-.14.08-.26.16-.4.25-.22.13-.43.27-.64.41-.14.1-.27.2-.4.31-.19.15-.38.29-.56.45-.13.12-.26.24-.38.36-.17.16-.34.32-.5.49-.12.13-.24.26-.35.4-.15.18-.3.36-.44.54-.11.14-.21.29-.31.43-.13.19-.26.39-.38.58-.09.15-.18.31-.27.46-.11.21-.22.42-.32.63-.08.16-.15.32-.22.49-.09.22-.17.45-.25.68-.06.17-.12.33-.17.5-.07.24-.13.49-.19.74-.04.16-.08.32-.11.49-.05.28-.09.56-.12.85-.02.14-.04.28-.05.42-.03.43-.05.87-.04 1.31.13 4.83 3.35 9.1 7.84 10.87 1.32.52 2.61.77 3.84.8h.09c.11 0 .21-.02.31-.03s.2-.01.3-.03c.12-.02.23-.07.34-.1.09-.03.19-.05.28-.09.11-.05.21-.11.31-.17.08-.05.17-.09.24-.14.1-.07.19-.15.28-.23.07-.06.14-.11.21-.18.09-.09.16-.19.23-.29.05-.07.12-.13.17-.21.07-.11.13-.23.18-.35.04-.08.08-.15.12-.22.06-.13.09-.28.13-.42.02-.07.05-.14.06-.21.04-.22.07-.44.07-.67V18.6c0-1.85 1.5-3.34 3.34-3.34h2.3a3.366 3.366 0 0 0 3.36-3.41c-.02-1.23-.24-2.5-.72-3.81Zm-16.1-3.1c1.1 0 2 .9 2 2s-.9 2-2 2-2-.9-2-2 .9-2 2-2m-.78 9.73c-.32.22-.7.34-1.12.34s-.8-.13-1.12-.34a1.8 1.8 0 0 1-.54-.54c-.22-.32-.34-.7-.34-1.12s.13-.8.34-1.12c.14-.21.33-.4.54-.54a2.006 2.006 0 0 1 3.12 1.66c0 .41-.13.8-.34 1.12-.14.21-.33.4-.54.54m2.46 5.49c-1.1 0-2-.9-2-2 0-.41.13-.8.34-1.12.14-.21.33-.4.54-.54.32-.22.7-.34 1.12-.34s.8.13 1.12.34c.21.14.4.33.54.54a2.006 2.006 0 0 1-1.66 3.12m4.38-12.8c-1.1 0-2-.9-2-2 0-.41.13-.8.34-1.12.14-.21.33-.4.54-.54.32-.22.7-.34 1.12-.34s.8.13 1.12.34c.21.14.4.33.54.54a2.006 2.006 0 0 1-1.66 3.12m4.74 3.99c-1.1 0-2-.9-2-2s.9-2 2-2 2 .9 2 2-.9 2-2 2"/>
</svg>
