<svg viewBox="0 0 16 16" xmlns="http://www.w3.org/2000/svg">
  <path d="M15.52 5.33c-1-2.76-3.45-4.84-6.36-5.25C8.77.02 8.38 0 8 0 3.51 0-.12 3.69 0 8.21c.09 3.22 2.23 6.06 5.23 7.25.88.35 1.74.51 2.56.53h.06c1.2 0 2.15-1.03 2.15-2.23v-1.39c0-1.23 1-2.23 2.23-2.23h1.53c1.25 0 2.26-1.02 2.24-2.27a7.6 7.6 0 0 0-.48-2.54m-1.23 3.09a.75.75 0 0 1-.53.22h-1.53a3.73 3.73 0 0 0-3.73 3.73v1.39c0 .39-.3.73-.67.73-.69-.02-1.38-.16-2.05-.43-2.49-.98-4.21-3.35-4.28-5.89-.05-1.77.61-3.45 1.84-4.71A6.44 6.44 0 0 1 8 1.49c.32 0 .64.02.95.07 2.31.32 4.33 2.01 5.16 4.28.25.68.38 1.37.39 2.05 0 .27-.13.44-.21.52Zm-3.02-4.47c-1.1 0-2 .9-2 2s.9 2 2 2 2-.9 2-2-.9-2-2-2m0 2.5c-.28 0-.5-.22-.5-.5s.22-.5.5-.5.5.22.5.5-.22.5-.5.5m-5.03.62c0-1.1-.9-2-2-2s-2 .9-2 2 .9 2 2 2 2-.9 2-2m-2.5 0c0-.28.22-.5.5-.5s.5.22.5.5-.22.5-.5.5-.5-.22-.5-.5m3.58-5.21c-1.1 0-2 .9-2 2s.9 2 2 2 2-.9 2-2-.9-2-2-2m0 2.5c-.28 0-.5-.22-.5-.5s.22-.5.5-.5.5.22.5.5-.22.5-.5.5M5.88 9.2c-1.1 0-2 .9-2 2s.9 2 2 2 2-.9 2-2-.9-2-2-2m0 2.5c-.28 0-.5-.22-.5-.5s.22-.5.5-.5.5.22.5.5-.22.5-.5.5"/>
</svg>
