<svg viewBox="0 0 64 64" xmlns="http://www.w3.org/2000/svg">
  <path d="M62.08 21.36C58.07 10.33 48.28 1.99 36.65.35Q34.295.02 32 .02C14.03.02-.48 14.82 0 32.9c.34 12.89 8.92 24.25 20.91 28.98 3.53 1.39 6.95 2.04 10.24 2.14h.24c4.79 0 8.61-4.1 8.61-8.92v-5.57c0-4.92 3.99-8.92 8.92-8.92h6.13c4.99 0 9.03-4.09 8.94-9.08-.05-3.27-.64-6.67-1.91-10.17m-2.61 14.65a6.15 6.15 0 0 1-4.42 1.85h-6.13c-6.43 0-11.67 5.23-11.67 11.67v5.57c0 3.35-2.68 6.17-5.86 6.17h-.16c-3.13-.09-6.26-.75-9.31-1.95-11.16-4.4-18.87-15.05-19.17-26.5-.21-7.97 2.73-15.5 8.28-21.21 5.56-5.7 13-8.84 20.96-8.84 1.41 0 2.85.1 4.27.3 10.4 1.47 19.52 9.01 23.24 19.23a28.3 28.3 0 0 1 1.74 9.27c.03 1.67-.6 3.24-1.77 4.43Zm-8.22-14.89c-3.31 0-6 2.69-6 6s2.69 6 6 6 6-2.69 6-6-2.69-6-6-6m0 9.25c-1.79 0-3.25-1.46-3.25-3.25s1.46-3.25 3.25-3.25 3.25 1.46 3.25 3.25-1.46 3.25-3.25 3.25m-37.02 4.16c-3.31 0-6 2.69-6 6s2.69 6 6 6 6-2.69 6-6-2.69-6-6-6m0 9.25c-1.79 0-3.25-1.46-3.25-3.25s1.46-3.25 3.25-3.25 3.25 1.46 3.25 3.25-1.46 3.25-3.25 3.25m-.58-13.42c3.31 0 6-2.69 6-6s-2.69-6-6-6-6 2.69-6 6 2.69 6 6 6m0-9.25c1.79 0 3.25 1.46 3.25 3.25s-1.46 3.25-3.25 3.25-3.25-1.46-3.25-3.25 1.46-3.25 3.25-3.25m34.04-7.25c0-3.31-2.69-6-6-6s-6 2.69-6 6 2.69 6 6 6 6-2.69 6-6m-6 3.25c-1.79 0-3.25-1.46-3.25-3.25s1.46-3.25 3.25-3.25 3.25 1.46 3.25 3.25-1.46 3.25-3.25 3.25m-16.06 1.83c3.31 0 6-2.69 6-6s-2.69-6-6-6-6 2.69-6 6 2.69 6 6 6m0-9.25c1.79 0 3.25 1.46 3.25 3.25s-1.46 3.25-3.25 3.25-3.25-1.46-3.25-3.25 1.46-3.25 3.25-3.25m1.25 34.92c-3.31 0-6 2.69-6 6s2.69 6 6 6 6-2.69 6-6-2.69-6-6-6m0 9.25c-1.79 0-3.25-1.46-3.25-3.25s1.46-3.25 3.25-3.25 3.25 1.46 3.25 3.25-1.46 3.25-3.25 3.25"/>
</svg>
