<svg viewBox="0 0 48 48" xmlns="http://www.w3.org/2000/svg">
  <path d="M46.56 16.03c-.19-.52-.39-1.03-.61-1.53-2.21-5.01-6.05-9.15-10.78-11.7A23 23 0 0 0 25.88.1l-.5-.03c-.37-.02-.74-.03-1.11-.04h-.64c-.19 0-.39 0-.58.01-.25 0-.49.02-.73.04-.19.01-.38.03-.57.04-.25.02-.49.05-.73.08-.18.02-.37.04-.55.07-.25.04-.5.08-.74.12l-.51.09q-.39.075-.78.18c-.15.04-.3.07-.45.11-.31.08-.62.17-.93.26-.09.03-.19.05-.28.08-.4.13-.79.26-1.18.41-.09.03-.17.07-.26.1-.3.12-.6.23-.89.36-.14.06-.27.12-.4.19-.24.11-.48.22-.72.34-.15.07-.29.15-.44.23-.22.12-.44.23-.66.35-.15.08-.29.17-.44.26-.21.12-.41.25-.62.37-.15.09-.29.19-.44.29-.2.13-.39.26-.58.4l-.43.31c-.19.14-.38.28-.56.43-.14.11-.27.22-.41.33-.18.15-.36.31-.54.46-.13.11-.26.23-.38.34-.18.16-.35.33-.53.5-.12.12-.24.23-.36.35-.18.18-.35.36-.52.55-.11.11-.22.23-.32.34l-.54.63c-.09.1-.17.2-.26.3q-.345.42-.66.87l-.08.11c-.24.33-.47.67-.7 1.02-.06.09-.12.19-.18.28-.16.25-.32.51-.47.76-.08.13-.15.27-.22.4-.13.23-.25.45-.37.68-.08.15-.15.3-.22.45-.11.22-.21.44-.32.67l-.21.48c-.09.22-.19.44-.27.67-.06.17-.13.33-.19.5-.08.22-.16.45-.23.67-.06.17-.11.35-.16.52-.07.23-.13.46-.2.69-.05.18-.1.35-.14.53-.06.23-.11.47-.16.7-.04.18-.08.36-.11.54-.05.24-.09.49-.12.73-.03.18-.06.36-.08.53l-.09.77c-.02.17-.04.34-.05.51-.02.28-.04.57-.05.86 0 .15-.02.3-.02.45q-.015.645 0 1.29v.03c.18 6.64 3.27 12.75 8.11 17.07.44.39.89.77 1.36 1.13.65.5 1.33.96 2.02 1.4 1.32.83 2.71 1.56 4.18 2.14 1.99.78 3.93 1.25 5.81 1.47.63.07 1.25.12 1.87.13h.18c.09 0 .17-.01.26-.01.11 0 .22 0 .32-.02.11-.01.23-.03.34-.05.1-.02.21-.03.31-.05.11-.02.22-.05.33-.08.1-.03.2-.05.3-.08.11-.03.21-.08.32-.12.09-.04.19-.07.28-.11.1-.05.2-.1.31-.15.09-.04.18-.09.27-.14.1-.06.2-.12.29-.18.08-.05.17-.1.25-.16.09-.07.18-.14.28-.21.08-.06.15-.12.23-.18.09-.08.17-.16.26-.24.07-.07.14-.13.21-.2l.24-.27c.06-.07.13-.14.19-.21.07-.09.14-.19.21-.29.05-.08.11-.15.16-.23.07-.1.13-.21.19-.31.05-.08.1-.16.14-.24.06-.11.11-.23.16-.34.04-.08.08-.16.11-.25.05-.12.09-.24.13-.37.03-.08.06-.16.09-.25.04-.13.07-.26.1-.4l.06-.24c.03-.15.05-.31.07-.46 0-.07.02-.13.03-.2.02-.22.03-.45.03-.68V37.1c0-3.23 2.29-5.93 5.34-6.55.44-.09.89-.14 1.35-.14h4.59c3.74 0 6.77-3.07 6.71-6.81-.04-2.45-.48-5.01-1.43-7.62ZM6.23 18.28c0-2.21 1.79-4 4-4 1.33 0 2.5.66 3.23 1.66.18.24.34.5.45.78.2.48.31 1 .31 1.56 0 2.21-1.79 4-4 4-1.33 0-2.5-.66-3.23-1.66-.18-.24-.34-.5-.45-.78-.2-.48-.31-1-.31-1.56m4.44 16.13c-2.21 0-4-1.79-4-4s1.79-4 4-4 4 1.79 4 4-1.79 4-4 4m4.55-24.7c0-2.21 1.79-4 4-4 .55 0 1.08.11 1.56.31.28.12.54.28.78.45 1 .73 1.66 1.9 1.66 3.23 0 2.21-1.79 4-4 4-.55 0-1.08-.11-1.56-.31-.28-.12-.54-.28-.78-.45-1-.73-1.66-1.9-1.66-3.23m8.94 28.26c0 2.21-1.79 4-4 4s-4-1.79-4-4 1.79-4 4-4 4 1.79 4 4m8.66-23.88c-.48.2-1 .31-1.56.31s-1.08-.11-1.56-.31-.91-.5-1.27-.86c-.18-.18-.34-.38-.49-.59-.29-.43-.5-.91-.6-1.43-.05-.26-.08-.53-.08-.81s.03-.55.08-.81a3.94 3.94 0 0 1 1.09-2.02c.36-.36.79-.65 1.27-.86.48-.2 1-.31 1.56-.31s1.08.11 1.56.31.91.5 1.27.86c.18.18.34.38.49.59.29.43.5.91.6 1.43.05.26.08.53.08.81s-.03.55-.08.81a3.94 3.94 0 0 1-1.09 2.02c-.36.36-.79.65-1.27.86m5.61 10.26c-2.21 0-4-1.79-4-4s1.79-4 4-4 4 1.79 4 4-1.79 4-4 4"/>
</svg>
