<svg viewBox="0 0 32 32" xmlns="http://www.w3.org/2000/svg">
  <path d="M31.43 11.98c-.12-.43-.25-.86-.41-1.3C29.01 5.16 24.11.99 18.3.17c-.56-.08-1.11-.12-1.66-.14-.12 0-.24-.01-.35-.01-.1 0-.21-.01-.31-.01-.27 0-.53.03-.8.04-.23.01-.47.01-.7.04-.37.03-.74.09-1.1.15-.2.03-.4.05-.59.09-.47.09-.92.22-1.37.35-.08.02-.17.04-.25.07-.53.17-1.05.36-1.56.58-.15.07-.29.15-.44.21-.35.17-.7.33-1.04.52-.18.1-.35.22-.53.33-.29.18-.58.35-.85.55-.18.13-.36.27-.54.41-.25.2-.51.39-.75.6-.18.15-.34.31-.51.47-.23.22-.45.43-.66.66-.16.17-.32.35-.47.53-.2.23-.4.47-.58.72-.14.19-.28.38-.42.58-.18.25-.34.51-.5.78-.12.2-.25.41-.36.62q-.225.405-.42.84c-.1.21-.2.43-.3.65a33 33 0 0 0-.57 1.56c-.1.32-.18.65-.25.99-.05.22-.11.43-.15.65-.07.37-.12.75-.16 1.13-.02.19-.06.37-.07.57-.05.57-.07 1.16-.05 1.75.13 4.83 2.57 9.24 6.32 12.14 1.25.97 2.64 1.76 4.14 2.36.77.3 1.53.53 2.28.7.96.22 1.91.35 2.84.37s.08 0 .12 0c.14 0 .28-.03.42-.04s.27-.02.4-.04c.16-.03.3-.09.45-.14.12-.04.25-.07.37-.12.14-.06.28-.15.41-.23.11-.06.22-.12.33-.19.13-.09.25-.2.37-.31.09-.08.19-.15.28-.24.11-.12.21-.25.31-.38.07-.09.16-.18.22-.28.1-.15.17-.31.25-.46.05-.1.11-.19.16-.3.07-.18.12-.37.17-.56.02-.09.06-.18.08-.27.06-.29.09-.59.09-.89v-2.79c0-1.54.78-2.9 1.97-3.7.71-.48 1.57-.76 2.49-.76h3.06c.62 0 1.22-.13 1.76-.36s1.02-.56 1.43-.98c.61-.62 1.04-1.41 1.21-2.29.06-.29.08-.6.08-.91-.02-1.23-.19-2.49-.54-3.78ZM6.85 9.82a2.45 2.45 0 0 1 1.39.43c.66.45 1.1 1.21 1.1 2.07a2.51 2.51 0 0 1-2.49 2.5 2.5 2.5 0 0 1 0-5m2.74 10.44a2.5 2.5 0 0 1-5 0 2.5 2.5 0 0 1 5 0m.78-13.97a2.5 2.5 0 0 1 5 0 2.5 2.5 0 0 1-5 0m3.05 21.51a2.5 2.5 0 0 1 0-5 2.5 2.5 0 0 1 0 5M22.22 9c-.27.18-.57.31-.89.38a2.5 2.5 0 0 1-2.95-2.95c.07-.33.2-.63.38-.89a2.483 2.483 0 0 1 3.46-.67c.27.18.5.41.68.68s.31.57.38.89a2.51 2.51 0 0 1-1.05 2.57Zm5.83 5.06a2.51 2.51 0 0 1-2.45 1.99 2.51 2.51 0 0 1-2.5-2.49 2.5 2.5 0 0 1 5 0c0 .17-.02.34-.05.5"/>
</svg>
