<svg viewBox="0 0 24 24" xmlns="http://www.w3.org/2000/svg">
  <path d="m18.81 11.16 1.4 1.82-1.39 1.07-1.39-1.8-1.49 1.17 1.38 1.79-1.39 1.07-1.37-1.78-1.49 1.17 1.36 1.76-1.39 1.07-1.35-1.75-1.49 1.17 1.34 1.74-1.39 1.07-1.33-1.72L2.48 24h21.46V7.11l-5.14 4.04Zm2.53 10.26h-7.11l7.11-5.59zM3.05 18.44l-.71-.83-2.39 1.01 1.44-2.1-.6-.7 1.87-1.6-.61-.7 9.84-8.31 3.45 4.02-9.84 8.29-.59-.69-1.87 1.6Zm8.44-15.16a.887.887 0 0 1 .16-1.23L13.72.47l1.53 1.78s.02.05.04.07L17.42.49c.42-.36.95-.53 1.5-.49s1.05.29 1.41.71l.77.9c.36.42.53.95.49 1.5s-.3 1.05-.71 1.4l-3.55 3.05-.65.55-3.45-4.02.76-.65s-.05-.03-.07-.05l-.45-.52-.75.58c-.38.3-.93.22-1.23-.16Z"/>
</svg>
