<svg viewBox="0 0 40 40" xmlns="http://www.w3.org/2000/svg">
  <path d="m31.61 19.17 1.73 2.25-1.78 1.38-1.72-2.24-3.06 2.41 1.7 2.21-1.78 1.38-1.69-2.19-3.06 2.42 1.66 2.16-1.78 1.38-1.65-2.15-3.06 2.41 1.63 2.12-1.78 1.38-1.62-2.1-10.2 8.04h34.8V12.6l-8.34 6.58Zm3.82 16.63H22.01l13.42-10.58zM9.25 28.75 26.09 14.5l-5.32-6.2L3.93 22.55l1.01 1.17-3.11 2.68.92 1.07-2.8 3.58L4.05 29l1.09 1.28 3.11-2.68 1 1.16Zm-3.86-1.66L5 26.64l.85-.73.39.45zM19.86 5.63c-.38-.5-.28-1.2.21-1.58l3.19-2.45 2.26 2.63L29.65.67a2.6 2.6 0 0 1 3.67.28s1.93 2.25 1.93 2.25c.45.53.67 1.2.62 1.9s-.37 1.33-.9 1.78l-6.54 5.64-.63.54-5.32-6.21 1.33-1.15-.87-1.02-1.5 1.16c-.49.38-1.2.28-1.58-.21"/>
</svg>
