<svg viewBox="0 0 40 40" xmlns="http://www.w3.org/2000/svg">
  <path d="m8.26 27.61.99 1.16L34.97 6.9c.53-.46.85-1.09.9-1.78.05-.7-.17-1.37-.62-1.9L33.32.97a2.6 2.6 0 0 0-3.67-.28l-4.13 3.56-2.26-2.63-3.19 2.45a1.13 1.13 0 0 0-.21 1.58c.38.49 1.08.59 1.58.21l1.5-1.16.87 1.02L3.93 22.57l1.01 1.17-3.11 2.68.92 1.07-2.8 3.58 4.1-2.05 1.09 1.28 3.11-2.68ZM24.58 8.04l2.55-2.2 2.39 2.78-2.55 2.2zm6.54-5.64c.1-.08.21-.08.26-.09.05 0 .16.03.24.12l1.93 2.25c.08.09.09.19.08.26s-.03.16-.12.24l-2.28 1.97-2.39-2.78zm-8.26 7.1 2.39 2.78L9.5 25.6l-2.39-2.78zM5.85 25.93l.39.45-.85.73-.39-.45zm-.7 14.13h34.8V12.62zm32.55-2.25H11.65l5.25-4.14 1.31 1.71L19.99 34l-1.33-1.72 3.06-2.42 1.35 1.75 1.78-1.38-1.36-1.77 3.06-2.41 1.39 1.8 1.78-1.38-1.4-1.82 3.06-2.41 1.42 1.85 1.78-1.38-1.43-1.86 4.54-3.58v20.54Zm-2.27-1.98V25.25L22.01 35.83zm-2.25-2.26h-4.67l4.67-3.68z"/>
</svg>
