<svg viewBox="0 0 16 16" xmlns="http://www.w3.org/2000/svg">
  <path d="m12.79 6.83.9 1.17-1.19.92-.89-1.16-1 .79.97 1.26-1.19.92-.96-1.25-.84.66.88 1.14-1.19.92-.87-1.13-.98.77.93 1.2-1.19.92-.92-1.19-4.09 3.22h14.79V4.35zm.76 6.77h-3.34l3.34-2.63zm-13.6-1.19.79-1.35-.46-.53 1.24-1.07-.41-.47 6.2-5.24 2.36 3.07-6.03 5.09-.4-.46L2 12.52l-.54-.62zM7.44 2.2c-.25-.33-.19-.8.14-1.05L9.08 0l1.11 1.29 1-.86c.39-.34.88-.5 1.41-.46.52.04.98.28 1.32.67s.5.89.46 1.41c-.04.51-.28.98-.67 1.32l-1.94 1.67-.58.49-.38.32-2.36-3.07.27-.23.33-.28-.19-.22-.38.29c-.33.25-.8.19-1.05-.14Z"/>
</svg>
