<svg viewBox="0 0 24 24" xmlns="http://www.w3.org/2000/svg">
  <path d="M17.9 15.76c1.02.72 1.55 1.63 1.55 3 0 3.16-2.65 5.24-7.49 5.24-2.62 0-4.39-.59-5.72-1.12v-4.15c1.55.75 3.32 1.47 5.4 1.47 1.76 0 3.08-.27 3.08-1.15 0-.62-.62-.83-2.57-1.44l-1.42-.48c-3.4-1.1-4.95-2.57-4.95-5.06 0-1.55.7-2.73 2.01-3.69-1.12-.8-1.66-1.74-1.66-3.1C6.13 1.98 9.04 0 13.56 0c1.64 0 3.16.27 4.74.78v3.96c-1.5-.67-2.92-.94-4.65-.94s-2.86.29-2.86 1.1c0 .62.72.83 2.17 1.31l1.93.64c2.92 1.02 4.92 2.46 4.92 5.22 0 1.58-.72 2.86-1.9 3.69Zm-3.64-1.69c.7-.35 1.15-.8 1.15-1.53 0-.99-.8-1.52-2.92-2.25l-1.23-.4c-.72.35-1.12.86-1.12 1.58 0 .96.78 1.42 2.49 2.03l1.63.56Z"/>
</svg>
