<svg viewBox="0 0 24 24" xmlns="http://www.w3.org/2000/svg">
  <path d="M16.13 16.08c1.36.83 2.01 1.74 2.01 3.13 0 3-2.41 4.79-6.71 4.79-2.17 0-3.83-.56-4.95-1.15v-2.49c1.36.75 2.84 1.47 5 1.47s4.07-.7 4.07-2.41c0-1.15-.96-1.52-3.4-2.44l-1.2-.45c-2.94-1.1-4.63-2.36-4.63-4.84 0-1.63.96-2.84 2.43-3.58-1.42-.86-2.17-1.98-2.17-3.64C6.58 1.66 9.34 0 12.87 0c1.52 0 2.83.29 4.06.83v2.44c-1.23-.67-2.54-1.1-4.09-1.1-2.19 0-3.69.72-3.69 2.11 0 1.23.86 1.87 2.86 2.62l1.18.46c3.53 1.31 5.19 2.49 5.19 4.9 0 1.69-.78 3.02-2.25 3.83Zm-2.41-1.12c1.23-.51 2.09-1.26 2.09-2.49 0-1.36-1.02-1.87-3.66-2.89l-1.12-.43c-1.28.45-2.14 1.12-2.14 2.35 0 1.34.94 1.98 3.13 2.78l1.18.45c.19.08.35.13.54.21Z"/>
</svg>
