<svg viewBox="0 0 16 16" xmlns="http://www.w3.org/2000/svg">
  <path d="M11.93 10.5c.68.48 1.04 1.09 1.04 2 0 2.1-1.77 3.5-4.99 3.5a9.6 9.6 0 0 1-3.82-.75v-2.76c1.03.5 2.21.98 3.6.98 1.18 0 2.05-.18 2.05-.77 0-.41-.41-.55-1.71-.96l-.95-.32c-2.26-.73-3.3-1.71-3.3-3.37 0-1.04.46-1.82 1.34-2.46-.75-.54-1.11-1.16-1.11-2.07C4.09 1.32 6.03 0 9.04 0c1.09 0 2.11.18 3.16.52v2.64c-1-.45-1.94-.62-3.1-.62s-1.91.2-1.91.73c0 .41.48.55 1.45.87l1.28.43c1.94.68 3.28 1.64 3.28 3.48 0 1.05-.48 1.91-1.27 2.46ZM9.51 9.38c.46-.23.77-.54.77-1.02 0-.66-.54-1.02-1.94-1.5l-.82-.27c-.48.23-.75.57-.75 1.05 0 .64.52.95 1.66 1.36l1.09.38Z"/>
</svg>
