<svg viewBox="0 0 64 64" xmlns="http://www.w3.org/2000/svg">
  <path d="M47.73 42.02c2.71 1.93 4.14 4.35 4.14 7.99 0 8.42-7.06 13.98-19.97 13.98-6.99 0-11.7-1.57-15.27-3V49.93c4.14 2 8.85 3.92 14.41 3.92 4.71 0 8.2-.71 8.2-3.07 0-1.64-1.64-2.21-6.85-3.85l-3.78-1.28c-9.06-2.93-13.2-6.85-13.2-13.49 0-4.14 1.85-7.28 5.35-9.85-3-2.14-4.42-4.64-4.42-8.28C16.34 5.27 24.12 0 36.17 0c4.35 0 8.42.71 12.63 2.07v10.56c-4-1.78-7.78-2.5-12.41-2.5s-7.63.78-7.63 2.93c0 1.64 1.93 2.21 5.78 3.5l5.14 1.71c7.78 2.71 13.12 6.56 13.12 13.91 0 4.21-1.93 7.63-5.06 9.85Zm-9.7-4.5c1.85-.93 3.07-2.14 3.07-4.07 0-2.64-2.14-4.07-7.78-5.99l-3.28-1.07c-1.93.93-3 2.28-3 4.21 0 2.57 2.07 3.78 6.63 5.42l4.35 1.5Z"/>
</svg>
