<svg viewBox="0 0 48 48" xmlns="http://www.w3.org/2000/svg">
  <path d="M34.36 28.51v11.77h-5.87v7.75h19.52V28.51zm11.43 5.33h-5.01v-2.5h5.01zm-35.46 6.44h8.12l-.62 7.74H5.77L4.3 29.58H0v-7.86c0-3.91 3.19-7.1 7.11-7.1h9.7c3.92 0 7.1 3.19 7.1 7.1v.03H10.33v18.52Zm21.53-2.65-4.78-6.09 4.78-4.87zm-3.07.15H15.77l3.52-4.45c.83.75 1.88 1.18 3 1.18s2.17-.42 3-1.17l3.49 4.45ZM12.83 26.77l4.67 4.77-4.67 5.91zm1.04-2.51h16.85l-6.99 7.13c-.77.78-2.1.78-2.86 0l-6.99-7.13Zm-1.93-11.8c3.26 0 5.93-2.52 6.19-5.71h.79c1.24 0 2.25-1.01 2.25-2.25s-1.01-2.25-2.25-2.25h-2.24A6.15 6.15 0 0 0 11.94.03c-3.42 0-6.21 2.79-6.21 6.21s2.79 6.21 6.22 6.21Zm1.63-5.72c-.22.7-.86 1.21-1.63 1.21s-1.41-.51-1.63-1.21h3.25Z"/>
</svg>
