<svg viewBox="0 0 24 24" xmlns="http://www.w3.org/2000/svg">
  <path d="M6.08 6.64c1.83 0 3.33-1.49 3.33-3.32 0-.12-.02-.23-.04-.35h.44c.48 0 .88-.39.88-.87s-.39-.87-.88-.87H8.64A3.28 3.28 0 0 0 6.08 0C4.25 0 2.75 1.48 2.75 3.32s1.49 3.32 3.33 3.32m1.58-3.32c0 .87-.71 1.58-1.58 1.58S4.5 4.19 4.5 3.32c0-.12.02-.24.04-.35h3.07c.03.11.04.23.04.35Zm10.27 13.59v-1.75h3.5v1.75zm-.72-4.4v-1.89h-5.15c-.38-1.66-1.84-2.91-3.61-2.91H3.71c-2.06 0-3.74 1.68-3.74 3.74v4.6H2.1l.72 7.94h6.37l.32-3.57h2.97V24h11.49V12.52h-6.76Zm-5.6 2.58c-.12.12-.27.18-.43.18s-.31-.06-.43-.18l-2.67-2.71h6.19l-2.67 2.71Zm-2.97.33-1.73 2.36v-4.12zm1.28 1.22c.38.24.81.38 1.27.38s.89-.13 1.27-.38l1.48 2.02h-5.5zm5.54 1.14-1.73-2.36 1.73-1.76zm-7.87 4.46H4.42L3.7 14.3H1.72v-2.85c0-1.09.89-1.98 1.99-1.98h4.74c.8 0 1.49.48 1.8 1.16h-5.1v9.79h2.6l-.17 1.83Zm14.63 0h-7.99v-1.83h2.98v-6.15h5.01v7.99Z"/>
</svg>
