<svg viewBox="0 0 16 16" xmlns="http://www.w3.org/2000/svg">
  <path d="M1.15 4.77-.08 3.02 5.12 0l1.55 1.6zm14.77-1.78L10.77.02 9.14 1.61l5.5 2.97 1.29-1.59Zm-9.45 9.15a.75.75 0 0 1-.63.35.8.8 0 0 1-.33-.08l-3.82-1.9v2.98l5.53 2.53-.02-5.01-.73 1.14Zm.34-3.32L1.17 6.65.05 8.01l5.53 2.75zm1.08-6.18L2.67 5.63l5.24 2.02 5.18-2.19-5.2-2.81Zm2.28 9.61a.8.8 0 0 1-.33.08c-.25 0-.49-.13-.63-.36l-.52-.85.02 4.89 5.44-2.52-.03-3.24zm3.92-5.59L9.02 8.81l1.1 1.8 3.99-2.02 1.76-.89-1.22-1.26-.55.23Z"/>
</svg>
