<svg viewBox="0 0 48 48" xmlns="http://www.w3.org/2000/svg">
  <path d="M35.22 6.41c0-3.53 2.87-6.4 6.4-6.4s6.41 2.87 6.41 6.4-2.87 6.4-6.41 6.4-6.41-2.87-6.41-6.4Zm-3.4 17.14v7.97h4.53v16.47h11.66V16.35h-8.98c-3.98 0-7.21 3.23-7.21 7.2M20.6 30.96c-.88.88-.88 2.3 0 3.18l2.75 2.75H5.99v4.5h17.36l-2.75 2.75a2.25 2.25 0 0 0 1.59 3.84c.57 0 1.15-.22 1.59-.66l8.19-8.18-8.19-8.18c-.88-.88-2.3-.88-3.18 0m-8.03-16.82H7.79v2.18h4.78zm4.49 12.61H.03v-17h17.03zm-1.99-15.11H5.29v7.18h9.78zm2.72-4.39L24.99 0h-6.53l-7.71 7.25zM14.81 0H8.69L1.03 7.25H7.1zm4.75 25.89 7.17-6.95V1.78l-7.17 7.23z"/>
</svg>
