<svg viewBox="0 0 32 32" xmlns="http://www.w3.org/2000/svg">
  <path d="m31.7 13.95-3.13-3.22 3.11-3.82c.19-.24.27-.55.2-.85a1 1 0 0 0-.55-.68L20.19.09A1 1 0 0 0 19 .35l-3.14 3.73L12.91.37c-.29-.36-.79-.48-1.21-.28L.56 5.38c-.27.13-.46.36-.54.65s-.02.59.15.83l2.99 4.25-2.9 3.5c-.19.24-.27.55-.21.85s.26.55.53.69l2.83 1.4v8.2c0 .39.23.75.59.91l11.53 5.25s.03 0 .05.01c.12.05.24.08.37.08s.25-.03.37-.08c.02 0 .03 0 .05-.01l11.38-5.25c.36-.16.58-.52.58-.91l-.05-8.61 3.16-1.59c.28-.14.48-.41.54-.73.05-.31-.05-.63-.27-.86Zm-12.48-.87-3.33 1.4-8.95-3.43 8.91-4.29 8.88 4-5.52 2.32Zm.81-10.85 9.3 4.41-2.38 2.92-4.45-2-5.05-2.27zm-8.19.01 2.44 3.06-9.53 4.59-2.26-3.21zM4.73 12.35l6.79 2.6 2.89 1.1-2.28 3.58-9.52-4.72 2.12-2.57Zm.69 6.19 6.62 3.28c.14.07.29.1.44.1.33 0 .65-.17.84-.46l1.59-2.5.03 10.48-9.52-4.33v-6.56Zm20.91 6.57-9.38 4.33-.03-10.33 1.28 2.09c.19.3.51.48.85.48.15 0 .3-.03.45-.11l6.79-3.42.04 6.97Zm-6.91-5.75-2.05-3.33L27 11.98l2.32 2.39z"/>
</svg>
