<svg viewBox="0 0 24 24" xmlns="http://www.w3.org/2000/svg">
  <path d="M2.81 3.31A3.29 3.29 0 0 1 6.09.02c.82 0 1.57.32 2.14.82H9.5c.83 0 1.5.67 1.5 1.5s-.67 1.5-1.5 1.5h-.19a3.28 3.28 0 0 1-3.23 2.75C4.27 6.59 2.8 5.12 2.8 3.3Zm21.17 11.34v9.37h-9.36V21.8h3.52v-7.15zm-.76 1.57h-3.5v1.75h3.5zM4.4 10.62h7.69a3.73 3.73 0 0 0-3.63-2.91H3.72c-2.06 0-3.74 1.68-3.74 3.74v4.61h2.13l.72 7.95h6.36l.2-2.19H4.4V10.64Zm12 3.05-2.38 2.42 2.38 3.26zM6.15 19.35l2.38-3.26-2.38-2.43v5.68Zm6.6-2.03a2.52 2.52 0 0 1-2.96 0L7.8 20.05h6.94zm-2.05-1.51c.31.31.84.31 1.15 0l3.37-3.43H7.33z"/>
</svg>
