<svg viewBox="0 0 64 64" xmlns="http://www.w3.org/2000/svg">
  <path d="M14.24 10.69 25.59 0h9.96l-10.6 10.69H14.23Zm9.91 26.89H0V13.44h24.15zM18.67 18.8h-5.63v5.62h5.63zM21.58 0h-9.43L1.13 10.69h9.1zm5.32 36.6 10.57-10V1.96L26.9 12.63zm-3.6 15.24h4.75v11.88h4.8V51.84h4.75V47.8H23.29v4.04ZM44 47.8h-4.8v15.92h11.49v-4.04H44zm15.49 6.16-1.43-.37c-1.18-.3-1.71-.62-1.71-1.2 0-.71.83-1.08 2.26-1.08 1.66 0 2.86.35 4.27.92v-4.01c-1.39-.46-2.79-.67-4.25-.67-4.32 0-7.01 1.96-7.01 5.21 0 2.35 1.27 3.74 4.15 4.54l1.32.37c1.75.48 2.12.81 2.12 1.34 0 .88-1.13 1.22-2.54 1.22-1.62 0-3.3-.55-4.75-1.22v4.01c1.25.48 2.77.97 5.31.97 4.5 0 6.78-2.15 6.78-5.21 0-2.54-1.52-4.04-4.52-4.82"/>
</svg>
