<svg viewBox="0 0 40 40" xmlns="http://www.w3.org/2000/svg">
  <path d="M29.21 5.38c0-2.96 2.42-5.38 5.38-5.38s5.38 2.41 5.38 5.38-2.41 5.38-5.38 5.38-5.38-2.41-5.38-5.38m3.22 8.03c-3.36 0-6.09 2.73-6.09 6.09v6.73h3.77v13.73h9.88V13.41zM17.08 25.59c-.78.78-.78 2.05 0 2.83l2.08 2.08H5v4h14.15l-2.08 2.08A2.004 2.004 0 0 0 18.48 40c.51 0 1.02-.2 1.41-.59l6.91-6.91-6.91-6.91c-.78-.78-2.05-.78-2.83 0ZM10.85 0h-4.4L.95 5.15h4.43zm1.71 19.96H0V7.4h12.57v12.56Zm-1.4-11.08H3.39v5.92h7.77zm-2.25 2.25H5.64v1.42h3.27zm4.3-5.98L18.32 0h-4.19L8.66 5.15zm1.6 13.98 5.09-5V1.6l-5.09 5.13v12.39Z"/>
</svg>
