<svg viewBox="0 0 24 24" xmlns="http://www.w3.org/2000/svg">
  <path d="M17.23 3.36c0-1.86 1.52-3.38 3.38-3.38s3.38 1.52 3.38 3.38-1.52 3.38-3.38 3.38-3.38-1.52-3.38-3.38m2.11 4.56c-2.1 0-3.8 1.7-3.8 3.8v4.18h2.22v8.09h6.25V7.92zm-9.28 7.02a1.49 1.49 0 0 0 0 2.12l.68.68H3.16v3h7.57l-.68.68a1.49 1.49 0 0 0 0 2.12c.29.29.68.44 1.06.44s.77-.15 1.06-.44l4.3-4.29-4.3-4.29a1.49 1.49 0 0 0-2.12 0Zm-2.49-2.7H0V4.68h7.57zm-1.1-6.51H3.73v2.74h2.74zM6.08.02H3.96L.76 2.93h2.23zm3.24 11.57 2.87-2.91V1.27L9.32 4.16zM8.08 2.93 10.97.02H8.63L5.54 2.93z"/>
</svg>
