<svg viewBox="0 0 64 64" xmlns="http://www.w3.org/2000/svg">
  <path d="M55.68 16.57c4.57 0 8.29-3.72 8.29-8.29S60.25 0 55.68 0s-8.29 3.72-8.29 8.29 3.72 8.29 8.29 8.29Zm0-13.82a5.54 5.54 0 1 1-5.54 5.54 5.54 5.54 0 0 1 5.54-5.54m-3.51 19.02c-5.2 0-9.44 4.23-9.44 9.44v10.48h6.12V64h15.14V21.77zm9.07 39.48H51.6V38.94h-6.12v-7.73c0-3.69 3-6.69 6.69-6.69h9.07zM30.56 43.93l9.76 9.76-9.76 9.76c-.27.27-.62.4-.97.4s-.7-.13-.97-.4c-.54-.54-.54-1.41 0-1.95l6.44-6.44H8.01v-2.75h27.04l-6.44-6.44c-.54-.54-.54-1.41 0-1.95s1.41-.54 1.95 0Zm-4.48-6.17 11.56-10.99V0H12.06L0 11.67v26.09h26.09Zm0-3.79V13.61l8.81-8.9v20.87l-8.81 8.38ZM24.84 2.75h8.14l-8.84 8.92h-8.77zm-11.66 0h7.65l-9.47 8.92h-7.4zm10.15 32.26H2.74V14.42h20.59zm-2.62-18.08H9.26v8.35h11.45zm-2.75 5.61h-5.95v-2.85h5.95z"/>
</svg>
