<svg viewBox="0 0 32 32" xmlns="http://www.w3.org/2000/svg">
  <path d="M27.6 8.75c2.42 0 4.38-1.96 4.38-4.36S30.02.03 27.6.03s-4.38 1.96-4.38 4.36 1.97 4.36 4.38 4.36m0-6.73c1.31 0 2.38 1.06 2.38 2.37s-1.07 2.37-2.38 2.37-2.38-1.06-2.38-2.37 1.07-2.37 2.38-2.37m-1.72 8.76c-2.73 0-4.95 2.21-4.95 4.92v5.43h3V32h8.06V10.78zM30 30.01h-4.06V19.14h-3V15.7c0-1.62 1.32-2.93 2.95-2.93H30zm-14.49-8.37 5.07 5.05-5.07 5.05c-.2.19-.45.29-.71.29s-.51-.1-.71-.29a.996.996 0 0 1 0-1.41l2.66-2.65H4.09v-1.99h12.67l-2.66-2.65a.996.996 0 1 1 1.41-1.41Zm-2.78-3.56 5.31-5.25V.07H5.78L0 5.41v12.67zm0-2.79V6.82l3.32-3.33v8.52zm-.54-13.23h2.46l-3.33 3.35h-2.7zm-5.63 0h2.7L5.69 5.41H2.93l3.62-3.35Zm4.17 14.04H2V7.41h8.73zM9.9 8.29h-6v4.79h6zm-2 2.8h-2v-.81h2z"/>
</svg>
