<svg viewBox="0 0 24 24" xmlns="http://www.w3.org/2000/svg">
  <path d="m11.27 15.9.04.04 4.66-4.66V-.02H5.13L.03 4.69l.02.02H.03v11.22h11.24zm0-2.41V5.94l2.95-2.97v7.57l-2.95 2.94Zm-.7-11.76h2.42l-2.96 2.99H7.4l3.18-2.99Zm-4.75 0h2.2L4.84 4.72H2.59zm3.7 12.45H1.78V6.46h7.74zm-1.16-3.85H5.59V7.57h2.77zm-.09 7.39h5.54v1.56h-1.84v4.59h-1.86v-4.59H8.27zm8.01 4.59h2.59v1.56h-4.45v-6.15h1.86zm7.75-.35c0 1.19-.88 2.02-2.63 2.02-.98 0-1.57-.19-2.05-.37v-1.55c.56.26 1.22.47 1.84.47.55 0 .98-.13.98-.47 0-.2-.14-.33-.82-.52l-.51-.14c-1.12-.31-1.61-.85-1.61-1.76 0-1.26 1.05-2.02 2.72-2.02.56 0 1.11.08 1.64.26v1.55c-.55-.22-1.01-.36-1.65-.36-.55 0-.88.14-.88.42 0 .22.21.35.66.46l.55.14c1.16.3 1.75.88 1.75 1.86Z"/>
</svg>
