<svg viewBox="0 0 64 64" xmlns="http://www.w3.org/2000/svg">
  <path d="M0 10.79V0h10.79c.76 0 1.37.62 1.37 1.37s-.62 1.37-1.37 1.37h-6.1l8.93 8.93-1.95 1.95-8.91-8.93v6.1c0 .76-.62 1.37-1.37 1.37S0 11.55 0 10.79m11.69 39.58L2.76 59.3v-6.1c0-.76-.62-1.37-1.37-1.37S.02 52.44.02 53.2v10.79h10.79c.76 0 1.37-.62 1.37-1.37s-.62-1.37-1.37-1.37h-6.1l8.93-8.93zm50.94 1.46c-.76 0-1.37.62-1.37 1.37v6.1l-8.93-8.93-1.95 1.95 8.93 8.93h-6.1c-.76 0-1.37.62-1.37 1.37s.62 1.37 1.37 1.37H64V53.2c0-.76-.62-1.37-1.37-1.37M53.22 0c-.76 0-1.37.62-1.37 1.37s.62 1.37 1.37 1.37h6.1l-8.93 8.93 1.95 1.95 8.93-8.93v6.1c0 .76.62 1.37 1.37 1.37s1.37-.62 1.37-1.37V0zM22.56 32.05v4.1l3.43 1.27v-4.11l-3.43-1.27Zm27.17-9.79.13 20.53c0 .54-.31 1.03-.8 1.26l-16.5 7.59s-.08.03-.13.04l-.1.03c-.11.03-.23.05-.35.05s-.23-.02-.34-.05c-.03 0-.07-.02-.1-.03a.6.6 0 0 1-.12-.04l-16.71-7.59c-.49-.22-.81-.71-.81-1.25V22.83h-.01v-.03c0-.12.02-.24.05-.36 0-.03.03-.07.04-.1.03-.08.06-.16.11-.24.02-.04.05-.07.08-.11.05-.06.1-.12.16-.18.03-.03.07-.06.1-.09.02-.02.04-.04.06-.05.05-.03.11-.06.16-.08.03-.01.05-.03.07-.05l16.56-7.17c.34-.15.72-.15 1.06-.01l16.53 6.63s.05.03.08.05c.06.03.11.05.17.08.02.01.04.03.06.05.04.03.07.06.1.09.06.06.12.11.16.18l.08.11c.05.07.08.15.11.23.01.04.03.07.04.11.03.12.06.24.06.36Zm-30.83.46 12.99 4.96 12.83-5.39-12.89-5.17zm-2.25 19.2 13.96 6.34-.05-18.14-.83-.32-13.08-5v17.11Zm30.45 0-.11-17.59-13.69 5.75.05 18.17z"/>
</svg>
