<svg viewBox="0 0 64 64" xmlns="http://www.w3.org/2000/svg">
  <path d="M47.4 8.29C47.4 3.73 51.12 0 55.69 0s8.29 3.72 8.29 8.28-3.72 8.28-8.29 8.28-8.29-3.72-8.29-8.28Zm4.78 13.49c-5.21 0-9.44 4.23-9.44 9.44V41.7h6.13V64h15.14V21.78zM27.82 42.14c-.98.98-.98 2.56 0 3.53l4.52 4.52H8v5h24.33l-4.52 4.52c-.98.98-.98 2.56 0 3.53.49.49 1.13.73 1.77.73s1.28-.24 1.77-.73l10.56-10.55-10.56-10.55c-.98-.98-2.56-.98-3.54 0ZM16.9 18.49h-6.76v3.37h6.76zM20.22 0h-8.73L1.14 9.99H9.6zm2.55 35.49H0V12.74h22.76v22.75Zm-3.12-19.75H7.39v8.87h12.26zm5.87 18.78 9.89-9.4V1.96l-9.89 9.97zM23.57 9.99 33.48 0h-9.25L13.61 10h9.96Z"/>
</svg>
