<svg viewBox="0 0 64 64" xmlns="http://www.w3.org/2000/svg">
  <path d="m63.58 28.17-6.8-6.99 6.73-8.24c.26-.32.37-.75.28-1.16s-.36-.75-.73-.94L41.57.17a1.37 1.37 0 0 0-1.56.24l-8.32 8.03L23.81.37c-.42-.43-1.06-.53-1.59-.27L.73 10.84a1.37 1.37 0 0 0-.51 2.02l6.4 9.09-6.24 7.54c-.27.32-.37.75-.29 1.16s.36.76.73.94l6.15 3.05v17.25c.01.54.33 1.03.82 1.25l23.53 10.7s.08.03.12.04l.1.03c.11.03.23.05.34.05s.23-.02.35-.05c.03 0 .07-.02.1-.03.04-.01.09-.02.13-.04l23.23-10.7c.49-.23.8-.72.8-1.25l-.11-18.09 6.82-3.44c.39-.2.66-.57.74-1 .07-.43-.07-.87-.37-1.18ZM31.69 11.9l3.97 1.85 15.91 7.44-19.78 8.31-20.03-7.66 11.09-5.54 8.84-4.41Zm9.53-8.84 19.08 9.48-5.74 7.03-20.51-9.59zM22.55 3l6.82 6.98L8.79 20.25l-5.41-7.68zM8.78 23.65l14.05 5.37 6.92 2.65-5.42 8.49L3.6 29.9zM9.74 51V35.99l14.48 7.17c.19.1.4.14.61.14.45 0 .9-.23 1.16-.63l4.48-7.01.04 16.81.02 7.98L9.75 51Zm44.02.01-20.49 9.44-.07-24.59 3.86 6.27a1.373 1.373 0 0 0 1.79.5l14.82-7.47.1 15.84Zm-15.03-11.4-4.91-7.99 20.8-8.74 5.69 5.85L38.73 39.6Z"/>
</svg>
