<svg viewBox="0 0 40 40" xmlns="http://www.w3.org/2000/svg">
  <path d="M9.97 10.57c2.81 0 5.1-2.21 5.26-4.99h1.07c.62 0 1.13-.5 1.13-1.12s-.5-1.12-1.13-1.12h-1.42C14.09 1.39 12.2.01 9.97.01c-2.91 0-5.28 2.37-5.28 5.28s2.37 5.28 5.29 5.28Zm0-2.24c-1.57 0-2.86-1.21-3.01-2.74h6.01a3.03 3.03 0 0 1-3.01 2.74Zm0-6.07c.92 0 1.74.42 2.3 1.08h-4.6c.56-.65 1.38-1.08 2.3-1.08m21.41 25.37v-2.25h4.5v2.25zm-2.71-6.48v-3.47h-8.71A5.977 5.977 0 0 0 14 12.17H5.95c-3.3-.01-5.98 2.67-5.98 5.97v6.6h3.57l1.22 15.28h10.18l.48-6.03h5.7v6h18.85V21.16h-11.3Zm-3.77-1.23-5.33 5.42c-.51.52-1.39.52-1.9 0l-5.33-5.42zm-10.15 5.66-3.93 4.78v-8.77zm1.61 1.59c.64.53 1.42.83 2.26.83s1.62-.3 2.26-.83l3.75 4.57H12.6l3.75-4.57Zm10.06 3.19-3.93-4.78 3.93-3.99v8.78Zm-13.57 7.41H6.83L5.61 22.49h-3.4v-4.35c0-2.05 1.67-3.72 3.73-3.72h8.05c1.9 0 3.45 1.43 3.68 3.26H8.55v16.3h4.59l-.3 3.79Zm24.86-.04H23.36v-3.75h5.31V23.4h9.04z"/>
</svg>
