<svg viewBox="0 0 40 40" xmlns="http://www.w3.org/2000/svg">
  <path d="M18.14 26.1h.01l7.86-7.6V0H8.34L.01 7.92l.03.03H0V26.1h18.13Zm0-3.11V9.54l5.62-5.68v13.68l-5.62 5.44Zm-.96-20.74h5.01l-5.64 5.7h-5.41zm-7.94 0h4.66l-6.04 5.7H3.25zm6.65 21.6H2.26V10.2H15.9v13.65Zm-2.61-7.15H9.33v-3.95h3.95zm.9 13.01h9.08v2.57h-3.02v7.55h-3.05v-7.55h-3.02v-2.57Zm13.13 7.55h4.25v2.57h-7.29V29.72h3.05v7.55Zm12.7-.57c0 1.95-1.45 3.31-4.31 3.31-1.61 0-2.58-.31-3.37-.62v-2.55c.92.43 1.99.78 3.02.78.89 0 1.61-.22 1.61-.78 0-.34-.23-.54-1.35-.85l-.83-.23c-1.83-.51-2.64-1.39-2.64-2.89 0-2.07 1.71-3.31 4.45-3.31.92 0 1.82.13 2.69.43v2.55c-.89-.37-1.65-.59-2.71-.59-.91 0-1.44.23-1.44.69 0 .37.34.57 1.08.76l.91.23c1.9.5 2.87 1.45 2.87 3.06Z"/>
</svg>
