<svg viewBox="0 0 16 16" xmlns="http://www.w3.org/2000/svg">
  <path d="M1.82 2.39C1.82 1.08 2.88 0 4.18 0c.56 0 1.06.2 1.47.53h.68a1.242 1.242 0 0 1 .12 2.48c-.28 1.01-1.18 1.75-2.27 1.75-1.3 0-2.37-1.07-2.37-2.38Zm14.14 7.45V16H9.79v-1.41h2.49V9.84zm-1.06 1h-1.93v1.94h1.93zM2.84 6.88h5.39a2.65 2.65 0 0 0-2.47-1.73H2.61c-1.46 0-2.65 1.2-2.65 2.66v2.9h1.42l.48 5.3h4.53l.13-1.42H2.83V6.88Zm4.72 5.1c-.35 0-.69-.1-.98-.28l-1.01 1.4h3.99l-1.01-1.39c-.29.18-.63.28-.98.28Zm3.23-2.49-1.15 1.18 1.15 1.59zm-2.94.87 1.93-1.97H5.34l1.93 1.97c.15.16.43.16.58 0m-3.52 1.89 1.15-1.59-1.15-1.18z"/>
</svg>
