<svg viewBox="0 0 48 48" xmlns="http://www.w3.org/2000/svg">
  <path d="M11.94 12.51c3.37 0 6.11-2.67 6.25-6h1.37a1.25 1.25 0 0 0 0-2.5h-1.78C16.87 1.67 14.6 0 11.94 0 8.49 0 5.68 2.81 5.68 6.26s2.81 6.25 6.26 6.25m0-2.5c-1.99 0-3.6-1.55-3.73-3.5h7.46a3.75 3.75 0 0 1-3.73 3.5m0-7.5c1.22 0 2.3.6 2.99 1.5H8.96a3.73 3.73 0 0 1 2.99-1.5ZM38.3 33.24v-2.5h5.01v2.5zm-3.94-7.64v-3.84H23.88v-.04c0-3.91-3.18-7.08-7.09-7.08H7.1C3.19 14.63 0 17.81 0 21.72v7.84h4.29l1.47 18.39h12.05l.61-7.69h7.14v7.75H48V25.6H34.35Zm-10.8 4.9c-.32.33-.76.51-1.21.51-.46 0-.89-.18-1.21-.51l-6.13-6.24H29.7l-6.13 6.24Zm-5.73.21-5 6.09V25.63zm1.79 1.76c.76.66 1.71 1.04 2.73 1.04 1.01 0 1.96-.38 2.73-1.04l4.34 5.29H15.28zm12.24 4.32-5-6.09 5-5.08zM15.5 45.45H8.07L6.6 27.06H2.51v-5.34c0-2.53 2.06-4.58 4.59-4.58h9.69c2.53 0 4.59 2.06 4.59 4.58v.04H10.33v18.5h5.59l-.41 5.19Zm30 .06H28.07v-5.25h6.29V28.09H45.5V45.5Z"/>
</svg>
