<svg viewBox="0 0 16 16" xmlns="http://www.w3.org/2000/svg">
  <path d="M5.9 3.69H.02v5.87h5.87V3.69ZM5.14 6.7H2.85V4.41h2.29zm-.52-4.51L6.94 0H8.5L6.33 2.19H4.61ZM7.4 3.24l2.15-2.17v5.7L7.4 8.97zM2.43 2.19H.69L3.11 0h1.63L2.42 2.19Zm3.01 9.6h3.72v1.05H7.93v3.09H6.68v-3.09H5.44zm5.38 3.09h1.74v1.05H9.57v-4.14h1.25zm5.2-.24c0 .8-.59 1.36-1.76 1.36-.66 0-1.06-.13-1.38-.25v-1.04c.38.17.82.32 1.24.32.37 0 .66-.09.66-.32 0-.14-.1-.22-.55-.35l-.34-.1c-.75-.21-1.08-.57-1.08-1.18 0-.85.7-1.36 1.82-1.36.38 0 .74.05 1.1.17v1.04c-.37-.15-.68-.24-1.11-.24-.37 0-.59.1-.59.28 0 .15.14.23.44.31l.37.1c.78.2 1.18.59 1.18 1.25Z"/>
</svg>
