<svg viewBox="0 0 64 64" xmlns="http://www.w3.org/2000/svg">
  <path d="M0 10.8V0h10.79c.76 0 1.37.62 1.37 1.37s-.62 1.37-1.37 1.37h-6.1l8.93 8.93-1.95 1.95L2.76 4.7v6.1c0 .76-.62 1.37-1.37 1.37S0 11.56 0 10.8m11.69 39.57L2.76 59.3v-6.1c0-.76-.62-1.37-1.37-1.37S.02 52.44.02 53.2v10.79h10.79c.76 0 1.37-.62 1.37-1.37s-.62-1.37-1.37-1.37h-6.1l8.93-8.93zm50.94 1.46c-.76 0-1.37.62-1.37 1.37v6.1l-8.93-8.93-1.95 1.95 8.93 8.93h-6.1c-.76 0-1.37.62-1.37 1.37s.62 1.37 1.37 1.37H64V53.2c0-.76-.62-1.37-1.37-1.37M53.22 0c-.76 0-1.37.62-1.37 1.37s.62 1.37 1.37 1.37h6.1l-8.93 8.93 1.95 1.95 8.93-8.93v6.1c0 .76.62 1.37 1.37 1.37s1.37-.62 1.37-1.37V0zM30.56 29.23l.06 23.03-17.81-8.09V22.44l16.75 6.4 1 .38Zm-3.89 3.17-3.43-1.27v4.11l3.43 1.27zm24.12-10.54L33.31 29.2l.06 23.06 17.56-8.08-.14-22.33Zm-18.96-8.74-16.75 7.25 16.84 6.43 16.62-6.98z"/>
</svg>
