<svg viewBox="0 0 48 48" xmlns="http://www.w3.org/2000/svg">
  <path d="M.01 8.32V0h8.31a1.25 1.25 0 0 1 0 2.5H4.27l6.32 6.32-1.77 1.77-6.31-6.32v4.05a1.25 1.25 0 0 1-2.5 0m8.81 29.09L2.5 43.74v-4.05a1.25 1.25 0 0 0-2.5 0V48h8.32a1.25 1.25 0 0 0 0-2.5H4.27l6.32-6.32zm37.93 1.02c-.69 0-1.25.56-1.25 1.25v4.05l-6.32-6.32-1.77 1.77 6.32 6.32h-4.05a1.25 1.25 0 0 0 0 2.5H48v-8.31c0-.69-.56-1.25-1.25-1.25ZM39.18 10.6l6.32-6.32v4.05a1.25 1.25 0 0 0 2.5 0V.01h-8.31a1.25 1.25 0 0 0 0 2.5h4.05l-6.32 6.32 1.77 1.77ZM16.7 23.7v3.54l3.01 1.12v-3.55zm20.91 8.37c0 .49-.28.94-.73 1.14L24.5 38.9s-.08.03-.12.04l-.09.03c-.1.03-.21.05-.32.05s-.21-.02-.31-.04c-.03 0-.06-.02-.09-.03a.4.4 0 0 1-.11-.04l-12.53-5.69c-.45-.2-.73-.65-.73-1.14v-15c0-.11.02-.22.05-.32 0-.03.02-.06.03-.09.03-.08.06-.15.1-.22.02-.03.04-.07.07-.1.04-.06.09-.11.14-.17.03-.03.06-.06.09-.08.02-.02.04-.04.06-.05.05-.03.1-.05.15-.08.02-.01.04-.03.07-.04l12.42-5.38c.31-.13.65-.14.96-.01l12.4 4.97s.05.03.07.04c.05.02.1.04.15.07.02.01.03.03.05.04.03.03.07.05.1.08.05.05.1.1.15.16.03.03.05.07.07.1.04.06.07.13.1.2.01.04.03.07.04.11.03.11.05.22.05.33l.1 15.4ZM14.76 17l9.16 3.5 9.05-3.8-9.09-3.65zm7.97 18.83-.04-13.11-7.75-2.96-2.25-.86v12.38l10.04 4.56Zm12.38-4.55-.08-12.73-9.83 4.13.04 13.14 9.88-4.54Z"/>
</svg>
