<svg viewBox="0 0 24 24" xmlns="http://www.w3.org/2000/svg">
  <path d="M.01 4.41V0h4.41c.48 0 .88.39.88.87s-.39.87-.88.87H3l2.74 2.73L4.5 5.71 1.76 2.99v1.42c0 .48-.39.87-.88.87s-.87-.39-.87-.87m4.48 13.87-2.74 2.74V19.6c0-.48-.39-.87-.88-.87s-.87.38-.87.86V24h4.41c.48 0 .88-.39.88-.87s-.39-.87-.88-.87H2.99l2.74-2.74zm18.63.44a.88.88 0 0 0-.88.87v1.42l-2.74-2.73-1.24 1.24L21 22.26h-1.42c-.48 0-.88.39-.88.87s.39.87.88.87h4.41v-4.41c0-.48-.39-.87-.88-.87ZM19.59 0c-.48 0-.88.39-.88.87s.39.87.88.87h1.42l-2.74 2.74 1.24 1.24 2.74-2.74V4.4c0 .48.39.87.88.87s.88-.39.88-.87V0H19.6ZM8.12 11.22v2.31l2.01.75v-2.31zm4.26 8.19h-.04c-.1.04-.21.07-.32.07s-.22-.03-.32-.07h-.04l-6.27-2.85a.87.87 0 0 1-.51-.8V8.24c0-.12.04-.24.09-.35 0-.02.02-.04.03-.06q.09-.165.24-.27s.01-.02.02-.02.03 0 .04-.02c.04-.02.07-.05.11-.07l6.21-2.69c.22-.09.46-.1.67 0l6.2 2.49s.08.04.11.07c.01 0 .03 0 .04.01 0 0 .01.02.02.02.1.07.18.16.25.27l.03.06c.06.11.09.24.1.37l.05 7.7c0 .34-.2.66-.51.8l-6.19 2.85Zm4.94-4.2-.04-5.83-4.42 1.86v4.96l.02 1.05zM8.06 8.22l1.19.45 2.73 1.04 3.87-1.63-3.89-1.56-3.9 1.69Zm3.07 9.04v-1.12l-.02-4.87-4.5-1.72v5.66z"/>
</svg>
