<svg viewBox="0 0 32 32" xmlns="http://www.w3.org/2000/svg">
  <path d="M.03 21.01H14.7l6.26-6.13V.01H6.73L.01 6.33l.02.02v14.67Zm12.66-2H2.03V8.34h10.66zm.58-12.67H9.26l4.6-4.33h3.71l-4.29 4.33Zm1.42 11.89V7.76l4.27-4.31v10.61l-4.27 4.18ZM7.53 2.01h3.42l-4.6 4.33H2.92zm3.28 11.51H7.46v-3.35h3.35zm.38 10.2h7.32v2.07h-2.43v6.08h-2.46v-6.08h-2.43zm10.59 6.08h3.42v2.07h-5.88v-8.15h2.46zm10.23-.46c0 1.57-1.17 2.67-3.47 2.67-1.3 0-2.08-.25-2.72-.5v-2.06c.74.34 1.61.63 2.43.63.72 0 1.3-.18 1.3-.63 0-.27-.19-.44-1.09-.69l-.67-.19c-1.48-.41-2.13-1.12-2.13-2.33 0-1.67 1.38-2.67 3.59-2.67.74 0 1.46.11 2.17.34v2.06c-.72-.29-1.33-.47-2.19-.47-.73 0-1.16.19-1.16.55 0 .29.27.46.87.61l.73.19c1.53.4 2.31 1.17 2.31 2.47Z"/>
</svg>
