<svg viewBox="0 0 64 64" xmlns="http://www.w3.org/2000/svg">
  <path d="M15.7 16.24c4.46 0 8.08-3.62 8.1-8.08h2.13c.76 0 1.38-.62 1.38-1.38s-.62-1.38-1.38-1.38h-2.6C22.2 2.27 19.21.02 15.7.02c-4.46 0-8.1 3.64-8.1 8.11s3.63 8.11 8.1 8.11m0-2.75c-2.94 0-5.33-2.39-5.35-5.33h10.69c-.02 2.94-2.41 5.33-5.35 5.33Zm0-10.72c1.95 0 3.65 1.06 4.58 2.63h-9.17c.93-1.57 2.63-2.63 4.58-2.63Zm37.12 40.56v-2.75h5.5v2.75zm-6.9-8.87v-5.47H31.43v-.05c0-5.09-4.14-9.23-9.22-9.23H9.2c-5.09 0-9.23 4.14-9.23 9.23v10.25H5.7l1.97 24.76H23.3l.8-10.04h10.34v10.12h29.53V34.47H45.92Zm-14.29 6.51c-.99 1.01-2.7 1.01-3.69 0l-9.05-9.23h21.8l-9.05 9.23Zm-7.5.05-7.74 9.44V33.13zm1.95 1.96c1 .98 2.31 1.52 3.71 1.52s2.7-.54 3.71-1.52l6.69 8.16H19.4l6.69-8.16Zm17.09 7.48-7.74-9.44 7.74-7.89zm-22.4 10.73H10.22L8.25 36.43H2.72v-7.49c0-3.57 2.9-6.48 6.47-6.48H22.2c3.57 0 6.47 2.91 6.47 6.48v.05H13.63V53.9h7.71l-.58 7.29Zm40.45.08H37.19V53.9h8.73V37.22h15.3z"/>
</svg>
