<svg viewBox="0 0 24 24" xmlns="http://www.w3.org/2000/svg">
  <path d="M.01 4.41V0h4.41c.48 0 .88.39.88.87s-.39.87-.88.87H3l2.74 2.74L4.5 5.72 1.76 2.99v1.42c0 .48-.39.87-.88.87s-.87-.39-.87-.87m4.48 13.87-2.74 2.74V19.6c0-.48-.39-.87-.88-.87s-.87.38-.87.87v4.41h4.41c.48 0 .88-.39.88-.87s-.39-.87-.88-.87H2.99l2.74-2.73-1.24-1.24Zm18.63.44a.88.88 0 0 0-.88.87v1.42l-2.74-2.73-1.24 1.24L21 22.25h-1.42c-.48 0-.88.39-.88.87s.39.87.88.87h4.41v-4.41c0-.48-.39-.87-.88-.87ZM19.59 0c-.48 0-.88.39-.88.87s.39.87.88.87h1.42l-2.74 2.73 1.24 1.24 2.74-2.74v1.42c0 .48.39.87.88.87s.88-.39.88-.87V0H19.6Zm-.84 8.44-5.87 2.46.02 5.82v2.07l5.9-2.71zM11.96 5 6.59 7.32l2.94 1.12 2.45.94 5.33-2.24zm-.82 11.46v2.33l-5.99-2.72V8.64l5.97 2.28.02 5.53Zm-1.01-4.49-2.01-.75v2.31l2.01.75z"/>
</svg>
