<svg viewBox="0 0 24 24" xmlns="http://www.w3.org/2000/svg">
  <path d="m23.75 9.9-2.23-2.29 2.23-2.73c.17-.21.24-.49.17-.76a.87.87 0 0 0-.5-.6L15.62.07a.87.87 0 0 0-.96.17l-2.75 2.65L9.31.23a.88.88 0 0 0-.98-.19L.53 3.52c-.24.11-.42.31-.49.57a.89.89 0 0 0 .13.74l2.16 3.06L.25 10.4c-.17.21-.24.48-.18.74s.23.48.47.6l2.02 1v6.47c0 .34.19.66.51.8l8.54 3.88h.04c.1.04.21.07.32.07s.22-.03.33-.07h.04l8.43-3.88c.31-.14.51-.46.51-.8l-.03-6.77 2.27-1.14c.25-.13.42-.36.47-.64a.87.87 0 0 0-.24-.76M5.71 7.86l6.19-2.79 6.17 2.58-6.14 2.58L7.9 8.69zm9.74-5.95 6.21 2.75-1.58 1.94-6.62-2.77zm-6.96-.02 1.9 1.95L7.9 4.96 3.72 6.84 2.21 4.69l6.27-2.8ZM3.71 8.97l2.75 1.05 4.18 1.6-1.54 2.4-6.79-3.36zm.59 9.68v-5.04l4.72 2.33c.12.06.26.09.39.09.29 0 .57-.14.74-.4l.93-1.45v7.56l-6.79-3.08Zm15.22 0-6.68 3.07v-7.45l.7 1.14c.16.27.45.42.75.42.13 0 .27-.03.39-.09l4.82-2.43zm-4.92-4.83-1.37-2.22 6.9-2.9 1.53 1.57z"/>
</svg>
