<svg viewBox="0 0 32 32" xmlns="http://www.w3.org/2000/svg">
  <path d="M0 5.71V0h5.71c.56 0 1.01.45 1.01 1s-.45 1-1 1h-2.3l3.93 3.93-1.41 1.41-3.93-3.93v2.3c0 .55-.45 1-1 1S0 6.26 0 5.71m5.94 18.94-3.93 3.93v-2.3c0-.55-.45-1-1-1S0 25.74 0 26.29V32h5.71c.55 0 1-.45 1-1s-.45-1-1-1h-2.3l3.93-3.93-1.41-1.41Zm25.06.64c-.55 0-1 .45-1 1v2.3l-3.93-3.93-1.41 1.41L28.59 30h-2.3c-.55 0-1 .45-1 1s.45 1 1 1H32v-5.71c0-.55-.45-1-1-1M26.29 0c-.55 0-1 .45-1 1s.45 1 1 1h2.3l-3.93 3.93 1.41 1.41L30 3.41v2.3c0 .55.45 1 1 1s1-.45 1-1V0zm-15.3 18.27 2.34.87v-2.72l-2.34-.87zm5.44 7.81s-.03 0-.05.01c-.12.05-.24.08-.37.08s-.25-.03-.37-.08c-.02 0-.03 0-.05-.01l-8.36-3.8a1 1 0 0 1-.59-.91v-10c0-.09.01-.17.04-.26 0-.03.02-.05.03-.07.02-.06.05-.12.08-.17.02-.03.04-.05.05-.08.03-.05.07-.09.11-.13.02-.02.05-.05.08-.07.02-.01.03-.03.04-.04.04-.03.08-.04.11-.06.02-.01.03-.03.06-.03l8.28-3.58a.94.94 0 0 1 .77 0l8.27 3.32s.03.02.05.03c.04.02.09.04.13.07.02.01.03.03.04.04a1.2 1.2 0 0 1 .19.19l.06.09c.03.05.06.1.08.16.01.03.03.06.03.09.02.09.04.17.04.27l.07 10.27c0 .39-.23.75-.58.92l-8.25 3.8Zm6.83-5.34-.05-8.13-6.23 2.61v.85l.02 7.54 6.25-2.88ZM10.3 11.32l5.67 2.16 4.76-2 .84-.35-5.62-2.25-5.64 2.44Zm4.71 12.3-.02-8.37-.57-.22-5.77-2.2v7.9z"/>
</svg>
