<svg viewBox="0 0 48 48" xmlns="http://www.w3.org/2000/svg">
  <path d="M11.21 7.8 19.48 0h7.08l-7.72 7.8h-7.62Zm6.9 20.59H.02V10.3h18.09zM14.31 14h-4.7v4.7h4.7zm6.3 13.49 7.7-7.39V1.79l-7.7 7.77zM15.84 0H9.2L1.06 7.8h6.5zm1.41 38.81h3.59v8.98h3.63v-8.98h3.59v-3.05H17.25zm15.64-3.06h-3.63v12.04h8.69v-3.05h-5.06v-8.98Zm11.71 4.66-1.08-.28c-.89-.23-1.29-.47-1.29-.91 0-.54.63-.82 1.71-.82 1.26 0 2.16.26 3.23.7v-3.04c-1.05-.35-2.11-.5-3.21-.5-3.26 0-5.3 1.48-5.3 3.94 0 1.78.96 2.83 3.14 3.44l.99.28c1.33.37 1.61.61 1.61 1.01 0 .66-.86.92-1.92.92-1.22 0-2.49-.42-3.59-.92v3.03c.94.37 2.09.73 4.01.73 3.4 0 5.13-1.62 5.13-3.94 0-1.92-1.15-3.05-3.42-3.65Z"/>
</svg>
