<svg viewBox="0 0 16 16" xmlns="http://www.w3.org/2000/svg">
  <path d="M15.45 12.84c.35.35.55.82.55 1.31 0 1.02-.83 1.85-1.85 1.85H8.56c-.58 0-1.06-.27-1.37-.46l-5.48-3.02H0v-1.5h2.07v.04c.06.02.12.02.18.06l5.69 3.13c.28.18.48.25.62.26h5.59a.354.354 0 0 0 .25-.6.34.34 0 0 0-.25-.1l-4.6.03s-.04-.01-.07-.01c-.11.02-.23.04-.34.04-.38 0-.76-.11-1.09-.32l-1.44-.91a.745.745 0 0 1-.23-1.03c.22-.35.68-.46 1.03-.23l1.44.91c.12.08.27.11.42.07.14-.04.26-.13.34-.26a.55.55 0 0 0-.12-.67L6.45 9.2s-.09-.04-.13-.04H0v-1.5h6.31c.37 0 .73.12 1.02.33l3.08 2.26c.63.54.87 1.34.69 2.08l3.04-.02c.48.03.96.19 1.32.54ZM16 7.33v.05c0 1.44-1.62 2.57-3.69 2.57S8.7 8.86 8.64 7.46V6.5H0V0h9.93v3.3c.64-.38 1.46-.61 2.38-.61 2.07 0 3.69 1.13 3.69 2.57v2.06Zm-5.87-2.06c0 .44.85 1.07 2.18 1.07s2.19-.63 2.19-1.07-.85-1.07-2.19-1.07-2.18.64-2.18 1.07m-4.8-2c0-.2-.16-.37-.36-.37s-.36.16-.36.37.16.37.36.37.36-.16.36-.37M1.5 5h2.8c-.69-.27-1.19-.94-1.19-1.74s.54-1.52 1.28-1.76H1.5zm6.94-3.5H5.55c.74.24 1.28.94 1.28 1.76S6.33 4.72 5.64 5h2.79V1.5Zm6.06 5.88v-.03c-.61.31-1.35.49-2.18.49s-1.57-.19-2.18-.49v.03c0 .44.85 1.07 2.18 1.07s2.19-.63 2.19-1.07Z"/>
</svg>
