<svg viewBox="0 0 48 48" xmlns="http://www.w3.org/2000/svg">
  <path d="M46.03 45.56c0 1.35-1.1 2.45-2.45 2.45H28.94c-.72 0-1.58-.33-2.69-1.02L6.85 36.31H.05v-8.87h21.34c.43 0 .86.14 1.21.4l10.28 7.55c1.11.95 1.4 2.56.69 3.84a3.03 3.03 0 0 1-1.91 1.48h-.14v.03c-.79.17-1.59.02-2.27-.41l-4.83-3.07-1.34 2.11 4.83 3.07a5.54 5.54 0 0 0 4.04.77l11.64-.09c.71 0 1.28.25 1.74.71.47.46.72 1.08.72 1.74Zm-6.73-15.5c4.73 0 8.72-2.26 8.72-4.94 0-.58-.2-1.14-.54-1.66-2.03 1.43-4.92 2.31-8.18 2.31s-6.15-.88-8.18-2.31c-.34.52-.54 1.08-.54 1.66 0 2.68 3.99 4.94 8.72 4.94m-5.92-15.32c.39.21.82.4 1.27.56s.92.31 1.42.42h.04c.49.11.99.2 1.52.26h.06q.795.09 1.62.09c.825 0 1.09-.03 1.62-.09h.06c.52-.06 1.03-.15 1.52-.26h.04c.5-.12.97-.26 1.42-.42.45-.17.88-.36 1.27-.56 1.71-.91 2.8-2.19 2.8-3.58 0-2.68-3.99-4.94-8.72-4.94s-8.72 2.26-8.72 4.94c0 1.4 1.09 2.68 2.8 3.58Zm1.69 7.88h.02c.23.07.47.14.71.2.02 0 .05.01.07.02q.345.09.69.15c.04 0 .08.02.13.03.22.04.44.07.67.1.06 0 .12.02.18.03.22.03.44.04.66.06.07 0 .14.01.21.02.29.02.59.03.89.03s.6 0 .89-.03c.07 0 .14-.01.21-.02.22-.02.44-.03.66-.06.06 0 .12-.02.18-.03.23-.03.45-.06.67-.1.04 0 .08-.02.13-.03.23-.05.47-.09.69-.15.02 0 .05-.01.07-.02.24-.06.48-.13.71-.2h.02c2.65-.86 4.49-2.48 4.49-4.3 0-.67-.25-1.32-.71-1.91-2.02 1.36-4.84 2.19-8.01 2.19s-5.99-.83-8.01-2.19c-.45.59-.71 1.24-.71 1.91 0 1.81 1.84 3.44 4.49 4.3M14.02 4.68c-2 0-3.62 1.62-3.62 3.62s1.62 3.62 3.62 3.62 3.62-1.62 3.62-3.62-1.62-3.62-3.62-3.62m13.95 11.88H.03V0h27.94zM20.13 8.3c0-3.38-2.75-6.12-6.12-6.12S7.89 4.93 7.89 8.3s2.75 6.12 6.12 6.12 6.12-2.75 6.12-6.12"/>
</svg>
