<svg viewBox="0 0 64 64" xmlns="http://www.w3.org/2000/svg">
  <path d="M60.68 54.13a5.74 5.74 0 0 1 1.71 4.1c0 3.19-2.59 5.78-5.78 5.78H34.22c-1.88-.02-3.54-.92-4.63-1.6L7.21 50.09H0v-2.75h8.3l22.69 12.7c1.35.84 2.36 1.22 3.25 1.22h22.37c1.67 0 3.03-1.36 3.03-3.03 0-.81-.32-1.57-.89-2.15-.58-.57-1.32-.87-2.16-.88l-18.39.11c-.1 0-.21-.01-.3-.04-.46.1-.91.16-1.37.16-1.22 0-2.41-.34-3.47-1.02l-5.75-3.65a1.376 1.376 0 1 1 1.48-2.32l5.75 3.65c.88.56 1.93.73 2.95.47s1.86-.9 2.37-1.82c.87-1.57.51-3.54-.85-4.71l-12.24-8.98c-.43-.32-.96-.49-1.5-.49H0v-2.75h25.24c1.13 0 2.22.35 3.13 1.03l12.31 9.04c2.44 2.07 3.06 5.49 1.55 8.2-.09.16-.19.31-.29.46l14.63-.08c1.51-.03 3.01.58 4.11 1.68ZM64 32.66c0 .06.01.12.01.18 0 4.86-5.76 8.66-13.12 8.66s-12.83-3.63-13.09-8.32h-.01v-.2s-.01-.1-.01-.15c0-.06 0-.12.01-.19v-6.1H0V0h40.58v10.98c2.38-1.99 6.08-3.25 10.3-3.25 7.36 0 13.12 3.81 13.12 8.66v16.25Zm-13.12-1.91c5.62 0 10.37-2.71 10.37-5.91 0-.84-.34-1.65-.92-2.38-2.37 1.61-5.7 2.6-9.45 2.6s-7.08-.99-9.45-2.6c-.44.55-.74 1.14-.85 1.76v1.26c.58 2.92 5.06 5.27 10.3 5.27m-10.3-14.99v1.28c.58 2.92 5.06 5.27 10.3 5.27 5.62 0 10.37-2.71 10.37-5.91s-4.75-5.91-10.37-5.91c-5.24 0-9.72 2.36-10.3 5.27M2.75 23.8h35.03l.06-21.05H2.75zm58.5 9.04c0-.73-.25-1.44-.71-2.09-2.38 1.7-5.79 2.76-9.66 2.76s-7.28-1.06-9.66-2.76c-.45.65-.71 1.36-.71 2.09 0 3.21 4.75 5.91 10.37 5.91s10.37-2.71 10.37-5.91M29.68 13.3c0 5.17-4.21 9.37-9.37 9.37s-9.37-4.21-9.37-9.37 4.2-9.37 9.37-9.37 9.37 4.21 9.37 9.37m-2.75 0c0-3.65-2.97-6.62-6.62-6.62s-6.62 2.97-6.62 6.62 2.97 6.62 6.62 6.62 6.62-2.97 6.62-6.62"/>
</svg>
