<svg viewBox="0 0 24 24" xmlns="http://www.w3.org/2000/svg">
  <path d="M23.01 19.69c.48.48.75 1.11.75 1.79 0 1.39-1.13 2.53-2.53 2.53h-8.39c-.8 0-1.48-.38-1.93-.66l-8.29-4.56H0v-1.75h3.11l8.68 4.8c.46.29.79.41 1.05.41h8.39c.43 0 .78-.35.78-.78 0-.21-.08-.4-.23-.55s-.36-.19-.55-.22l-6.9.04s-.44.04-.62.04c-.53 0-1.05-.15-1.5-.44l-2.16-1.37a.875.875 0 0 1-.27-1.21c.26-.41.8-.53 1.21-.27l2.16 1.37c.25.16.54.2.82.13s.52-.25.66-.51c.24-.44.14-.99-.24-1.32l-4.57-3.35a.64.64 0 0 0-.35-.12H0v-1.75h9.46c.5 0 .98.16 1.39.46l4.62 3.39c.96.81 1.26 2.08.85 3.17l4.9-.03h.02c.67 0 1.3.26 1.78.73Zm.99-7.44v.07c0 2.02-2.32 3.61-5.28 3.61s-5.16-1.52-5.26-3.48h-.01V9.97H0V0h15.22v3.45c.93-.56 2.14-.91 3.5-.91 2.96 0 5.28 1.58 5.28 3.61v6.09Zm-5.28-1.08c2.08 0 3.53-.98 3.53-1.86 0-.14-.05-.27-.12-.41-.92.53-2.09.86-3.41.86s-2.5-.33-3.41-.86q-.075.135-.09.27v.27c.13.84 1.52 1.73 3.5 1.73m-3.5-5.14v.25c.13.85 1.52 1.73 3.5 1.73 2.08 0 3.53-.98 3.53-1.86s-1.45-1.86-3.53-1.86-3.38.89-3.5 1.73ZM1.75 8.21h11.7V6.15c0-.06.02-.11.02-.17V1.75H1.75V8.2Zm20.5 4.1c0-.09-.02-.19-.05-.28-.92.55-2.13.89-3.48.89s-2.55-.34-3.48-.89c-.03.09-.05.19-.05.28 0 .88 1.45 1.86 3.53 1.86s3.53-.98 3.53-1.86M10.53 4.99c0 1.63-1.31 2.96-2.91 2.96S4.71 6.62 4.71 4.99s1.31-2.96 2.91-2.96 2.91 1.33 2.91 2.96m-1.75 0c0-.67-.52-1.21-1.16-1.21s-1.16.54-1.16 1.21.52 1.21 1.16 1.21 1.16-.54 1.16-1.21"/>
</svg>
