<svg viewBox="0 0 16 16" xmlns="http://www.w3.org/2000/svg">
  <path d="M5.76 2.78c0 .41-.34.75-.75.75s-.75-.34-.75-.75.34-.75.75-.75.75.34.75.75m9.5 11.81a.8.8 0 0 0-.58-.24l-3.4.04v-.03c-.67.16-1.39.04-1.98-.33l-2.05-1.3.8-1.27 2.05 1.3c.25.16.56.21.85.14s.54-.26.68-.53c.25-.45.15-1.03-.25-1.36l-4.35-3.2a.65.65 0 0 0-.38-.13H0v3.33h2.18l6.7 4.62c.38.24.71.37.98.37h4.82c.45 0 .82-.37.82-.82 0-.22-.09-.43-.24-.59M7.67 5.54H0V0h10.03v1.83c-.84.41-1.46 1.01-1.75 1.71-.37.52-.6 1.11-.6 1.75v.25Zm-.41-2.76C7.26 1.54 6.25.53 5.02.53S2.78 1.54 2.78 2.78s1.01 2.25 2.24 2.25 2.24-1.01 2.24-2.25m3.78 3.14c.22.08.46.14.72.19.05 0 .1.02.15.03.27.04.55.07.86.07s.59-.03.86-.07c.05 0 .1-.02.15-.03.26-.05.5-.11.72-.19.92-.33 1.49-.9 1.49-1.43 0-.81-1.32-1.72-3.21-1.72s-3.21.9-3.21 1.72c0 .53.57 1.09 1.49 1.43Zm-1.36 1c-.08.14-.13.28-.13.42 0 .81 1.32 1.72 3.21 1.72s3.21-.9 3.21-1.72c0-.14-.05-.28-.13-.42-.82.49-1.89.79-3.08.79s-2.26-.3-3.08-.79"/>
</svg>
