<svg viewBox="0 0 24 24" xmlns="http://www.w3.org/2000/svg">
  <path d="M23 22.61c0 .75-.61 1.37-1.37 1.37h-6.98c-.39 0-.84-.17-1.42-.53l-9.66-5.31-.11-.06H0v-4.73h10.83c.25 0 .49.07.69.22l5.2 3.81c.61.52.77 1.4.38 2.1-.23.41-.6.7-1.06.81-.46.12-.92.04-1.32-.21l-2.44-1.55-.54.84 2.44 1.55c.63.4 1.38.52 2.1.33l5.33-.01c.37.01.71.14.97.4s.41.6.41.97Zm-3.33-6.76c2.54 0 4.32-1.24 4.32-2.35 0-.18-.06-.36-.15-.54-1.08.68-2.54 1.1-4.17 1.1s-3.09-.42-4.17-1.1c-.09.18-.15.36-.15.54 0 1.11 1.77 2.35 4.32 2.35m-2.23-7.63c.11.04.22.08.34.11.1.03.21.05.32.08.15.03.3.06.46.09.09.01.18.03.28.04.26.03.54.05.82.05s.56-.02.82-.05c.1-.01.19-.03.28-.04.16-.02.31-.05.46-.09.11-.02.22-.05.32-.08.12-.03.23-.07.34-.11s.22-.07.32-.11c1.1-.46 1.77-1.19 1.77-1.86 0-1.11-1.77-2.35-4.32-2.35s-4.32 1.24-4.32 2.35c0 .74.8 1.53 2.08 1.98Zm-.52 3.52c.17.08.35.15.54.22.04.01.08.02.11.04.17.05.34.1.52.14l.33.06c.13.02.27.05.41.07.27.03.55.05.84.05s.57-.02.84-.05c.14-.02.27-.04.41-.07l.33-.06c.18-.04.35-.09.52-.14.04-.01.08-.02.11-.04 1.3-.45 2.11-1.24 2.11-1.99 0-.23-.09-.46-.23-.68-1.07.65-2.5 1.05-4.09 1.05s-3.02-.4-4.09-1.05c-.14.23-.23.46-.23.68 0 .64.59 1.3 1.57 1.77M6.75 2.34c-.77 0-1.4.65-1.4 1.45s.63 1.45 1.4 1.45 1.4-.65 1.4-1.45-.63-1.45-1.4-1.45m6.72 5.23H0V-.02h13.46v7.59ZM9.89 3.78C9.89 2.02 8.48.59 6.74.59S3.59 2.02 3.59 3.78 5 6.97 6.74 6.97s3.15-1.43 3.15-3.19"/>
</svg>
