<svg viewBox="0 0 32 32" xmlns="http://www.w3.org/2000/svg">
  <path d="M30.99 30.48c0 .84-.68 1.52-1.52 1.52h-9.85c-.46 0-1.02-.22-1.76-.68l-13.1-7.3H0v-5.75h14.47c.27 0 .52.08.74.24l7 5.14c.71.6.89 1.62.44 2.43-.26.47-.7.81-1.22.94-.53.13-1.07.05-1.52-.24l-3.3-2.09-1.07 1.69 3.3 2.09c.91.58 2.03.76 3.07.5v.05l7.57-.06h.01c.4 0 .78.16 1.07.44.29.29.45.67.45 1.08ZM26.1 21c3.44 0 5.84-1.67 5.84-3.17 0-.24-.08-.48-.19-.72-1.47.92-3.44 1.49-5.65 1.49s-4.18-.56-5.65-1.49c-.11.24-.19.48-.19.72 0 1.5 2.4 3.17 5.84 3.17m-2.97-5.28c.05.02.11.04.17.05.22.07.44.13.68.19.15.03.3.06.45.08.18.03.35.07.54.09.36.04.74.07 1.13.07s.77-.03 1.13-.07c.19-.02.36-.06.54-.09.15-.03.31-.05.45-.08.24-.05.46-.12.68-.19.06-.02.11-.04.17-.05.26-.09.5-.18.72-.29 1.33-.63 2.14-1.54 2.14-2.4 0-.3-.12-.61-.3-.91-1.45.88-3.38 1.42-5.54 1.42s-4.08-.54-5.54-1.42c-.18.3-.3.61-.3.91 0 1.01 1.1 2.08 2.86 2.69Zm-.09-5.08c.17.06.34.12.52.17.13.04.27.07.4.1.21.05.43.09.65.12.12.02.24.04.37.05.36.04.73.07 1.12.07s.76-.03 1.12-.07c.13-.01.24-.03.37-.05.22-.03.44-.07.65-.12.14-.03.27-.06.4-.1.18-.05.35-.11.52-.17 1.71-.61 2.78-1.67 2.78-2.66 0-1.5-2.4-3.17-5.84-3.17s-5.84 1.67-5.84 3.17c0 .99 1.07 2.05 2.78 2.66M9.21 3.09c-1.24 0-2.25 1.01-2.25 2.25s1.01 2.25 2.25 2.25 2.25-1.01 2.25-2.25-1.01-2.25-2.25-2.25m9.2 7.57H0V0h18.41zm-4.95-5.32c0-2.34-1.91-4.25-4.25-4.25S4.96 3 4.96 5.34s1.91 4.25 4.25 4.25 4.25-1.91 4.25-4.25"/>
</svg>
