<svg viewBox="0 0 40 40" xmlns="http://www.w3.org/2000/svg">
  <path d="M29.88 7.7V6.11c-.06 0-.12.02-.19.02-.82 0-1.49-.66-1.49-1.48s.67-1.48 1.49-1.48c.06 0 .13.01.19.02v-.95a2.26 2.26 0 0 0-2.26-2.27h-5.38C21-.03 19.99.98 19.99 2.22v1.57c-8.21.77-14.65 7.66-14.65 16.04v3.36s.14 3.85-1.39 7.52c-.08.01-.16 0-.23.02-2.14.44-3.74 2.32-3.74 4.57 0 2.58 2.1 4.67 4.69 4.67s4.69-2.09 4.69-4.67c0-2.01-1.28-3.71-3.07-4.37 1.46-3.92 1.32-7.66 1.32-7.8v-3.31c0-7.13 5.44-13.02 12.4-13.77v1.64c-4.45 1.54-7.95 5.1-9.38 9.58v.13c-.43 1.39-.66 2.87-.66 4.4 0 2.96.87 5.71 2.36 8.03.5.77 1.07 1.5 1.69 2.16h21.9c.63-.67 1.19-1.39 1.69-2.16a14.8 14.8 0 0 0 2.36-8.03c0-6.54-4.22-12.08-10.09-14.11Zm4.77 9.03c-2.47 1.19-7.92 2.8-13.49 2.8-2.41 0-4.39-.34-5.59-.95-.57-.29-.8-.55-.9-.8 1.65-4.17 5.67-6.92 10.23-6.92 4.12 0 7.87 2.33 9.74 5.87ZM33.5 2.02c0-.62.5-1.13 1.13-1.13h3.47c.62 0 1.13.5 1.13 1.13s-.5 1.13-1.13 1.13h-3.47c-.62 0-1.13-.5-1.13-1.13m0 5.59c0-.62.5-1.13 1.13-1.13h.98c.62 0 1.13.5 1.13 1.13s-.5 1.13-1.13 1.13h-.98c-.62 0-1.13-.5-1.13-1.13m0-2.8c0-.62.5-1.13 1.13-1.13h1.98c.62 0 1.13.5 1.13 1.13s-.5 1.13-1.13 1.13h-1.98c-.62 0-1.13-.5-1.13-1.13"/>
</svg>
