<svg viewBox="0 0 16 16" xmlns="http://www.w3.org/2000/svg">
  <path d="M12.12 3.1V1.5c0-.83-.67-1.5-1.5-1.5h-.95c-.71 0-1.3.49-1.46 1.15-3.56.2-6.4 3.14-6.4 6.75v1.62c-.03 1-.21 2.06-.41 2.57-.83.24-1.44 1-1.44 1.91 0 1.1.9 2 2 2s2-.9 2-2c0-.76-.42-1.4-1.04-1.74.29-.95.37-2.09.39-2.71V7.91c0-2.76 2.14-5.01 4.85-5.23v.29s-.02 0-.03.01c-.11.03-.22.08-.32.12-.14.05-.27.11-.4.17-.2.09-.38.19-.57.31-.09.06-.19.11-.28.18-.13.09-.26.19-.39.29-.05.04-.09.08-.13.12-.24.21-.46.43-.66.67-.03.03-.05.06-.08.09q-.525.645-.87 1.44v.02c-.07.17-.15.33-.21.5v.04a5.98 5.98 0 0 0 1.35 5.87h8.76a5.98 5.98 0 0 0 1.62-4.09c0-2.55-1.6-4.73-3.84-5.59ZM1.97 14.5c-.28 0-.5-.22-.5-.5s.22-.5.5-.5.5.22.5.5-.22.5-.5.5m6.24-9.95h.01c.24-.1.5-.18.77-.24.04 0 .08-.02.11-.03.28-.05.56-.09.85-.09h.06c.24 0 .47.03.7.07.11.02.23.05.34.07.12.03.23.07.35.11.51.18.98.44 1.39.78.02.01.03.03.05.04.47.39.85.88 1.13 1.44-.99.51-3.35 1.18-5.53 1.18-.59 0-2.38-.07-2.67-.8a4.54 4.54 0 0 1 2.44-2.54Zm2.41-3.05v1.23c-.22-.02-.44-.04-.66-.04h-.04c-.08 0-.16 0-.24.01V1.49h.95Zm3.02 9.79H6.3c-.51-.72-.79-1.57-.82-2.46.77.4 1.83.56 2.97.56 2.12 0 4.52-.56 5.97-1.23.02.18.05.35.05.54 0 .94-.29 1.84-.83 2.59M13.08.75c0-.41.34-.75.75-.75h1.39c.41 0 .75.34.75.75s-.34.75-.75.75h-1.39c-.41 0-.75-.34-.75-.75m0 1.85c0-.41.34-.75.75-.75h.39c.41 0 .75.34.75.75s-.34.75-.75.75h-.39c-.41 0-.75-.34-.75-.75"/>
</svg>
