<svg viewBox="0 0 16 16" xmlns="http://www.w3.org/2000/svg">
  <path d="M12.12 3.1V1.5c0-.83-.67-1.5-1.5-1.5h-.95c-.31 0-.6.09-.84.26-.08.05-.15.12-.22.18-.19.19-.33.44-.39.71-3.56.2-6.4 3.14-6.4 6.75v1.62c-.03 1-.21 2.06-.41 2.57-.2.06-.39.14-.56.25-.21.14-.4.33-.54.54-.22.32-.34.7-.34 1.12s.13.8.34 1.12c.14.21.33.4.54.54A2.006 2.006 0 0 0 3.97 14c0-.76-.42-1.4-1.04-1.74.29-.95.37-2.09.39-2.71V7.91c0-2.76 2.14-5.01 4.85-5.23v.29s-.02 0-.03.01c-.11.03-.22.08-.32.12a6 6 0 0 0-1.24.65c-.13.09-.26.19-.39.29-.05.04-.09.08-.13.12-.24.2-.46.43-.66.66-.03.03-.05.06-.08.1-.35.43-.64.91-.87 1.43v.02c-.07.17-.15.33-.21.5v.04a5.98 5.98 0 0 0 1.35 5.87h8.76a5.98 5.98 0 0 0 1.62-4.09c0-2.55-1.6-4.73-3.84-5.59Zm.32 3.14c-1.06.33-2.56.64-3.99.64-.65 0-1.11-.07-1.41-.14.64-.96 1.72-1.56 2.91-1.56.96 0 1.85.4 2.49 1.05Zm.64-5.49c0-.42.34-.75.75-.75h1.39c.41 0 .75.34.75.75s-.34.75-.75.75h-1.39c-.41 0-.75-.34-.75-.75m0 1.84c0-.41.34-.75.75-.75h.39c.41 0 .75.34.75.75s-.34.75-.75.75h-.39c-.41 0-.75-.34-.75-.75"/>
</svg>
