<svg viewBox="0 0 32 32" xmlns="http://www.w3.org/2000/svg">
  <path d="M23.89 6.18v-4.2c0-1.1-.9-2-2-2h-3.91a2 2 0 0 0-2 2v.97C9.36 3.57 4.16 9.14 4.16 15.91v2.7s.11 3.03-1.09 5.95c-1.76.31-3.11 1.83-3.11 3.68 0 2.07 1.68 3.75 3.75 3.75s3.75-1.68 3.75-3.75c0-1.57-.97-2.91-2.33-3.47 1.14-3.13 1.03-6.1 1.03-6.21v-2.65c0-5.67 4.31-10.35 9.82-10.95v1.22a11.99 11.99 0 0 0-7.5 7.69v.11c-.34 1.12-.53 2.3-.53 3.53 0 3.17 1.24 6.04 3.25 8.18h17.52c2.01-2.14 3.25-5.01 3.25-8.18 0-5.24-3.38-9.69-8.07-11.32ZM3.72 29.98c-.97 0-1.75-.78-1.75-1.75s.79-1.75 1.75-1.75 1.75.78 1.75 1.75-.79 1.75-1.75 1.75M18.91 7.56h.04c.33-.03.66-.05.99-.05h.16c.23 0 .46.02.69.03.19.02.37.04.55.07.06 0 .13.02.19.03 3.48.58 6.45 2.98 7.72 6.29-1.52 1.14-7.03 2.95-12.34 2.95-5.02 0-6.21-1.52-6.41-2.65 1.25-3.59 4.49-6.26 8.4-6.67Zm2.98-5.58v.55c-.66 0-1.19.53-1.19 1.19s.53 1.19 1.19 1.19v.76l-.24-.03c-.21-.03-.42-.06-.63-.08-.28-.03-.57-.04-.86-.04-.07 0-.13-.01-.2-.01h-.04c-.39 0-.77.02-1.16.06-.03 0-.07 0-.1.01-.23.02-.45.05-.68.08V1.98zm5.92 21.7H12.12a9.9 9.9 0 0 1-2.16-6.18c0-.13.01-.26.02-.39 1.54 1.27 4.11 1.78 6.95 1.78 4.76 0 10.25-1.41 12.9-2.97.08.52.14 1.04.14 1.58 0 2.25-.76 4.42-2.16 6.18M26.69 1.02c0-.55.45-1 1-1h3.28c.55 0 1 .45 1 1s-.45 1-1 1h-3.28c-.55 0-1-.45-1-1m0 5.17c0-.55.45-1 1-1h.78c.55 0 1 .45 1 1s-.45 1-1 1h-.78c-.55 0-1-.45-1-1m0-2.59c0-.55.45-1 1-1h1.78c.55 0 1 .45 1 1s-.45 1-1 1h-1.78c-.55 0-1-.45-1-1"/>
</svg>
