<svg viewBox="0 0 48 48" xmlns="http://www.w3.org/2000/svg">
  <path d="M35.86 9.26V7.34c-.09.01-.17.03-.26.03-.99 0-1.79-.8-1.79-1.78s.8-1.78 1.79-1.78c.09 0 .17.01.26.03V2.5c0-1.39-1.12-2.5-2.5-2.5H26.5A2.5 2.5 0 0 0 24 2.5v2.18c-9.8.91-17.49 9.14-17.49 19.13v3.52c0 .05.18 4.96-1.88 9.53-2.65.47-4.66 2.76-4.66 5.53 0 3.09 2.52 5.6 5.63 5.6s5.63-2.51 5.63-5.6c0-2.51-1.66-4.64-3.94-5.35 1.92-4.84 1.74-9.58 1.73-9.76v-3.47C9.02 15.2 15.59 8.09 24 7.18v2.06c-5.34 1.85-9.54 6.12-11.26 11.5 0 .06 0 .1.01.16-.52 1.67-.8 3.44-.8 5.28 0 4.74 1.86 9.03 4.87 12.23H43.1c3.01-3.21 4.87-7.5 4.87-12.23 0-7.84-5.07-14.49-12.11-16.93ZM42 20.25c-2.99 1.52-10.04 3.52-16.59 3.52-2.94 0-5.37-.42-6.85-1.17-.84-.43-1.14-.83-1.26-1.25 2-5.17 6.96-8.59 12.6-8.59 5.17 0 9.86 2.99 12.1 7.49m-1.7-18.3c0-.69.56-1.25 1.25-1.25h4.16a1.25 1.25 0 0 1 0 2.5h-4.16c-.69 0-1.25-.56-1.25-1.25m0 7c0-.69.56-1.25 1.25-1.25h1.18a1.25 1.25 0 0 1 0 2.5h-1.18c-.69 0-1.25-.56-1.25-1.25m0-3.51c0-.69.56-1.25 1.25-1.25h2.18a1.25 1.25 0 0 1 0 2.5h-2.18c-.69 0-1.25-.56-1.25-1.25"/>
</svg>
