<svg viewBox="0 0 64 64" xmlns="http://www.w3.org/2000/svg">
  <path d="M63.93 33.67c-.04-.81-.12-1.62-.25-2.41-.06-.4-.13-.79-.21-1.18-.4-1.95-1.04-3.8-1.88-5.55-.67-1.39-1.48-2.71-2.4-3.94s-1.96-2.36-3.1-3.39a23.9 23.9 0 0 0-8.28-4.89V9.79c-.08 0-.15.02-.23.02-1.32 0-2.39-1.06-2.39-2.38s1.07-2.38 2.39-2.38c.08 0 .15.02.23.02V2.71A2.72 2.72 0 0 0 47 .76a2.72 2.72 0 0 0-1.95-.81H34.73a2.74 2.74 0 0 0-2.75 2.75v3.78C19.08 7.71 8.96 18.55 8.96 31.71v4.68c0 .07.24 6.56-2.45 12.67-.44.06-.88.14-1.29.27-.94.29-1.8.76-2.54 1.37-.19.15-.36.31-.53.48A7.43 7.43 0 0 0 .1 54.96c-.1.49-.15.99-.15 1.51 0 4.13 3.36 7.47 7.5 7.47.26 0 .51-.01.77-.04a7.48 7.48 0 0 0 6.7-6.67c.03-.25.04-.51.04-.76s-.01-.51-.04-.76a7.3 7.3 0 0 0-.76-2.58 7.2 7.2 0 0 0-1.4-1.93c-.17-.17-.35-.33-.53-.48-.67-.55-1.45-.98-2.29-1.28-.17-.06-.35-.11-.52-.16 2.56-6.4 2.32-12.69 2.31-12.94v-4.62c0-11.64 8.89-21.26 20.27-22.47v3.05c-7.12 2.46-12.72 8.16-15.01 15.33 0 .07.01.14.01.21-.23.73-.42 1.47-.57 2.23-.08.39-.15.78-.21 1.18-.12.79-.2 1.6-.25 2.41q-.03.615-.03 1.23c0 1.18.09 2.35.26 3.48.11.76.26 1.5.44 2.24a23 23 0 0 0 1.04 3.2 25 25 0 0 0 1.46 2.99c.56.96 1.18 1.87 1.85 2.74.45.58.93 1.13 1.43 1.67h35.04c.5-.53.98-1.09 1.43-1.67.68-.87 1.3-1.78 1.85-2.74a25 25 0 0 0 1.46-2.99 23 23 0 0 0 1.04-3.2c.18-.73.33-1.48.44-2.24a23.6 23.6 0 0 0 .23-4.71Zm-6.62-6.26c-3.59 2.17-13.73 5.26-23.43 5.26-4.07 0-7.48-.6-9.59-1.68-1.55-.8-2.1-1.65-2.25-2.65 2.75-7.42 9.81-12.35 17.83-12.35 7.6 0 14.47 4.59 17.44 11.42M54.16 3.25c0-.69.56-1.25 1.25-1.25h5.55a1.25 1.25 0 0 1 0 2.5h-5.55c-.69 0-1.25-.56-1.25-1.25m-.12 8.33c0-.76.62-1.38 1.38-1.38h1.57c.76 0 1.38.62 1.38 1.38s-.62 1.38-1.38 1.38h-1.57c-.76 0-1.38-.62-1.38-1.38m0-4.26c0-.76.62-1.38 1.38-1.38h3.07c.76 0 1.38.62 1.38 1.38s-.62 1.38-1.38 1.38h-3.07c-.76 0-1.38-.62-1.38-1.38"/>
</svg>
