<svg viewBox="0 0 40 40" xmlns="http://www.w3.org/2000/svg">
  <path d="M33.5 4.82c0-.62.5-1.13 1.13-1.13h1.98c.62 0 1.13.5 1.13 1.13s-.5 1.13-1.13 1.13h-1.98c-.62 0-1.13-.5-1.13-1.13m1.12-1.67h3.47c.62 0 1.13-.5 1.13-1.13S38.72.89 38.09.89h-3.47c-.62 0-1.13.5-1.13 1.13s.5 1.13 1.13 1.13m0 5.59h.98c.62 0 1.13-.5 1.13-1.13s-.5-1.13-1.13-1.13h-.98c-.62 0-1.13.5-1.13 1.13s.5 1.13 1.13 1.13m5.35 13.07c0 3.95-1.55 7.52-4.06 10.2h-21.9c-2.51-2.67-4.06-6.25-4.06-10.2 0-1.53.23-3.01.66-4.4v-.13c1.43-4.48 4.93-8.04 9.38-9.58V6.06c-6.96.76-12.4 6.64-12.4 13.77v3.31c0 .14.15 3.88-1.32 7.8 1.79.66 3.07 2.36 3.07 4.37 0 2.58-2.1 4.67-4.69 4.67s-4.68-2.09-4.68-4.67c0-2.34 1.73-4.25 3.97-4.6 1.53-3.68 1.4-7.48 1.4-7.52v-3.36c0-8.37 6.44-15.27 14.65-16.04V2.22C19.99.99 21-.02 22.24-.02h5.38c1.24 0 2.25 1.01 2.25 2.25V7.7c5.87 2.03 10.09 7.57 10.09 14.11ZM4.66 32.89c-1.34 0-2.44 1.09-2.44 2.42s1.09 2.42 2.44 2.42 2.44-1.09 2.44-2.42-1.09-2.42-2.44-2.42M22.24 7.11c.36-.06.73-.11 1.1-.15.04 0 .08-.01.12-.02.48-.05.96-.08 1.45-.08h.05c.09 0 .17.01.25.01.36 0 .72.02 1.08.05.27.02.53.06.79.1.17.02.33.05.49.08h.06V6.09c-.08.01-.17.03-.26.03-.82 0-1.49-.66-1.49-1.48s.67-1.48 1.49-1.48c.09 0 .18.01.26.03v-.96h-5.38v4.88ZM12.9 17.72c.43 3.09 5.3 3.57 8.26 3.57 7.63 0 14.13-2.64 15.71-3.85-1.58-4.29-5.41-7.4-9.89-8.14-.08-.01-.16-.03-.25-.04-.24-.03-.47-.06-.71-.08-.29-.02-.58-.04-.87-.04h-.21q-.645 0-1.26.06h-.05c-5 .52-9.15 3.94-10.72 8.53Zm24.82 4.09c0-.72-.07-1.42-.19-2.1-3.23 1.99-10.29 3.83-16.36 3.83-3.7 0-7.03-.69-8.92-2.44-.01.23-.04.47-.04.7 0 2.9 1 5.69 2.83 7.95H34.9c1.83-2.26 2.83-5.04 2.83-7.95Z"/>
</svg>
