<svg viewBox="0 0 64 64" xmlns="http://www.w3.org/2000/svg">
  <path d="m63.61 61.65-12.6-12.6c2.61-3.05 4.19-7 4.19-11.32 0-9.63-7.84-17.47-17.48-17.47S20.24 28.1 20.24 37.73 28.08 55.2 37.72 55.2c4.33 0 8.29-1.59 11.34-4.21l12.6 12.6c.27.27.62.4.97.4s.7-.13.97-.4c.54-.54.54-1.41 0-1.95ZM22.99 37.73c0-8.12 6.61-14.72 14.73-14.72s14.73 6.6 14.73 14.72-6.61 14.72-14.73 14.72-14.73-6.6-14.73-14.72M20.9 46.2c.43.85.92 1.67 1.47 2.44-.59.7-.96 1.59-.96 2.58h-4.76c0-2.21-1.77-4-3.96-4s-3.96 1.79-3.96 4H3.98c0-2.21-1.77-4-3.96-4v-4.8c2.19 0 3.96-1.79 3.96-4s-1.77-4-3.96-4v-4.8c2.19 0 3.96-1.79 3.96-4S2.21 21.61.02 21.61v-4.8c2.19 0 3.96-1.79 3.96-4S2.21 8.8.02 8.8V4c2.19 0 3.96-1.79 3.96-4h4.76c0 2.21 1.77 4 3.96 4s3.96-1.79 3.96-4h4.76c0 2.21 1.77 4 3.96 4s3.96-1.79 3.96-4h4.76c0 2.21 1.77 4 3.96 4s3.97-1.79 3.97-4h4.76c0 2.21 1.77 4 3.96 4v4.8c-2.19 0-3.96 1.79-3.96 4s1.77 4 3.96 4v4.8c-.83 0-1.59.26-2.23.7a19.4 19.4 0 0 0-2.49-1.47A6.8 6.8 0 0 1 48 19.44v-.49c-2.33-1.06-3.96-3.42-3.96-6.16s1.63-5.1 3.96-6.16v-.49c-1.5-.68-2.71-1.9-3.38-3.41h-.42c-1.05 2.36-3.4 4-6.13 4s-5.08-1.65-6.13-4h-.42c-1.05 2.36-3.4 4-6.13 4s-5.08-1.65-6.13-4h-.42c-1.05 2.36-3.4 4-6.13 4s-5.08-1.65-6.13-4h-.42a6.77 6.77 0 0 1-3.38 3.41v.49c2.33 1.06 3.96 3.42 3.96 6.16s-1.63 5.1-3.96 6.16v.49c2.33 1.06 3.96 3.42 3.96 6.16s-1.63 5.1-3.96 6.16v.49c2.33 1.06 3.96 3.42 3.96 6.16s-1.63 5.1-3.96 6.16v.49c1.5.68 2.71 1.9 3.38 3.41h.42c1.05-2.36 3.4-4 6.13-4s5.08 1.65 6.13 4h.42c.39-.87.96-1.64 1.65-2.27Z"/>
</svg>
