<svg viewBox="0 0 64 64" xmlns="http://www.w3.org/2000/svg">
  <path d="M63.28 59.72 52.51 48.96c2.38-3.13 3.81-7.01 3.81-11.23 0-10.26-8.35-18.6-18.61-18.6S19.1 27.47 19.1 37.73s8.35 18.6 18.61 18.6c4.23 0 8.13-1.44 11.26-3.83l10.76 10.76c.49.49 1.13.73 1.77.73s1.28-.24 1.77-.73c.98-.98.98-2.56 0-3.54ZM24.12 37.73c0-7.5 6.1-13.6 13.6-13.6s13.6 6.1 13.6 13.6-6.1 13.6-13.6 13.6-13.6-6.1-13.6-13.6m-7.51 0c0 5.08 1.81 9.75 4.81 13.4 0 .03-.01.07-.01.1h-4.76c0-1.66-1-3.08-2.42-3.69-.47-.2-1-.31-1.54-.31s-1.07.11-1.54.31a4.01 4.01 0 0 0-2.42 3.69H3.98c0-1.66-1-3.08-2.42-3.69-.47-.2-1-.31-1.54-.31H.01v-4.8c.27 0 .54-.03.8-.08 1.81-.37 3.16-1.99 3.16-3.92S2.61 34.88.81 34.51c-.26-.05-.53-.08-.8-.08v-4.8c2.19 0 3.96-1.79 3.96-4 0-1.66-1-3.08-2.42-3.69-.47-.2-1-.31-1.54-.31v-4.8c.27 0 .54-.03.8-.08 1.81-.37 3.16-1.99 3.16-3.92S2.61 9.28.81 8.91c-.26-.05-.53-.08-.8-.08V3.99C2.2 3.99 3.98 2.2 3.98 0h4.76c0 2.21 1.77 4 3.96 4s3.96-1.8 3.96-4h4.76c0 1.66 1 3.08 2.42 3.69.47.2 1 .31 1.54.31 2.19 0 3.96-1.79 3.96-4h4.76c0 1.38.69 2.6 1.75 3.32.63.43 1.4.68 2.22.68 1.37 0 2.57-.7 3.29-1.76A4 4 0 0 0 42.04 0h4.76c0 2.21 1.77 4 3.96 4v4.8c-.27 0-.54.03-.8.08-1.81.37-3.16 1.99-3.16 3.92s1.36 3.55 3.16 3.92c.26.05.53.08.8.08v4.36a20.98 20.98 0 0 0-13.03-4.53c-11.64 0-21.11 9.47-21.11 21.1Z"/>
</svg>
