<svg viewBox="0 0 24 24" xmlns="http://www.w3.org/2000/svg">
  <path d="m23.75 22.51-4.5-4.5c.9-1.17 1.45-2.63 1.45-4.22 0-3.81-3.1-6.91-6.91-6.91s-6.91 3.1-6.91 6.91 3.1 6.91 6.91 6.91c1.59 0 3.06-.55 4.23-1.45l4.5 4.5c.17.17.4.26.62.26s.45-.08.62-.26c.34-.34.34-.9 0-1.24ZM8.63 13.79a5.16 5.16 0 1 1 5.16 5.16c-2.84 0-5.16-2.32-5.16-5.16m-2.14 2.69c.35.96.89 1.82 1.56 2.56 0 .06-.02.11-.02.17H6.25c0-.83-.67-1.5-1.49-1.5s-1.49.67-1.49 1.5H1.49c0-.83-.67-1.5-1.49-1.5v-1.8c.82 0 1.49-.67 1.49-1.5s-.66-1.5-1.49-1.5v-1.8c.82 0 1.49-.67 1.49-1.5S.83 8.1 0 8.1V6.3c.82 0 1.49-.67 1.49-1.5S.83 3.3 0 3.3V1.5C.83 1.5 1.49.83 1.49 0h1.78c0 .83.67 1.5 1.49 1.5S6.25.83 6.25 0h1.78c0 .83.67 1.5 1.49 1.5S11 .83 11 0h1.78c0 .83.67 1.5 1.49 1.5S15.76.83 15.76 0h1.78c0 .83.67 1.5 1.49 1.5v1.8c-.82 0-1.49.67-1.49 1.5s.67 1.5 1.49 1.5v1.75c-.8-.73-1.75-1.29-2.79-1.64-.27-.48-.44-1.02-.44-1.6 0-.95.41-1.81 1.06-2.4-.07-.06-.13-.13-.2-.2-.59.64-1.44 1.05-2.38 1.05s-1.79-.4-2.38-1.05c-.59.64-1.44 1.05-2.38 1.05s-1.79-.4-2.38-1.05c-.59.64-1.44 1.05-2.38 1.05s-1.79-.4-2.38-1.05c-.06.07-.13.13-.2.2.65.59 1.06 1.45 1.06 2.4s-.41 1.81-1.06 2.4c.65.59 1.06 1.45 1.06 2.4s-.41 1.81-1.06 2.4c.65.59 1.06 1.45 1.06 2.4s-.41 1.81-1.06 2.4c.07.06.13.13.2.2.59-.64 1.44-1.05 2.38-1.05.64 0 1.22.2 1.73.52"/>
</svg>
