<svg viewBox="0 0 16 16" xmlns="http://www.w3.org/2000/svg">
  <path d="m15.65 13.88-2.13-2.13c.48-.8.78-1.72.78-2.72a5.27 5.27 0 1 0-5.27 5.27c1 0 1.93-.3 2.73-.78l2.13 2.13c.24.24.56.37.88.37s.64-.12.88-.37c.49-.49.49-1.28 0-1.77m-9.4-4.85a2.77 2.77 0 1 1 5.54 0 2.77 2.77 0 0 1-5.54 0m-3.74 0c0 1 .23 1.94.63 2.78-.53.02-.95.45-.95.99H1c0-.55-.44-1-.99-1v-1.2c.55 0 .99-.45.99-1s-.44-1-.99-1V7.4c.55 0 .99-.45.99-1s-.44-1-.99-1V4.2c.55 0 .99-.45.99-1s-.44-.99-.99-.99v-1.2C.56 1.01 1 .56 1 0h1.19c0 .55.44 1 .99 1a.99.99 0 0 0 .99-1h1.19c0 .55.44 1 .99 1s.99-.45.99-1h1.19c0 .55.44 1 .99 1s.99-.45.99-1h1.19c0 .55.44 1 .99 1v1.2c-.51 0-.91.39-.97.89a6.5 6.5 0 0 0-2.69-.59c-3.59 0-6.52 2.92-6.52 6.52Z"/>
</svg>
