<svg viewBox="0 0 40 40" xmlns="http://www.w3.org/2000/svg">
  <path d="m39.35 36.52-6.32-6.32c1.41-1.98 2.25-4.39 2.25-7 0-6.67-5.43-12.09-12.1-12.09s-12.1 5.43-12.1 12.09 5.43 12.09 12.1 12.09c2.62 0 5.03-.84 7.01-2.26l6.32 6.32c.39.39.91.59 1.42.59s1.03-.2 1.42-.59c.78-.78.78-2.05 0-2.84ZM15.09 23.2c0-4.46 3.63-8.08 8.09-8.08s8.09 3.63 8.09 8.08-3.63 8.08-8.09 8.08-8.09-3.63-8.09-8.08m-6.02 0c0 3.35 1.18 6.43 3.14 8.85h-1.84c0-1.39-1.11-2.51-2.48-2.51s-2.48 1.12-2.48 2.51H2.43c0-1.39-1.11-2.51-2.48-2.51v-3.01h-.01a2.48 2.48 0 0 0 1.76-.74c.45-.45.73-1.08.73-1.77 0-1.39-1.11-2.51-2.48-2.51h-.01V18.5a2.48 2.48 0 0 0 1.76-.74c.45-.45.73-1.08.73-1.77 0-1.39-1.11-2.51-2.48-2.51h-.01v-3.01c1.37 0 2.48-1.12 2.48-2.51s-1.11-2.5-2.48-2.5V2.45A2.48 2.48 0 0 0 2 1.34c.27-.4.42-.88.42-1.4H5.4c0 .52.16 1 .42 1.4.27.4.65.72 1.09.91.3.13.62.2.97.2s.67-.07.97-.2c.45-.19.82-.51 1.09-.91s.42-.88.42-1.4h2.98c0 .52.16 1 .42 1.4.27.4.65.72 1.09.91.3.13.62.2.97.2s.67-.07.97-.2c.45-.19.82-.51 1.09-.91s.42-.88.42-1.4h2.98c0 .52.16 1 .42 1.4.27.4.65.72 1.09.91.3.13.62.2.97.2s.67-.07.97-.2c.45-.19.82-.51 1.09-.91s.42-.88.42-1.4h2.98c0 .52.16 1 .42 1.4.27.4.65.72 1.09.91.3.13.62.2.97.2v3.01c-.34 0-.67.07-.97.2-.89.38-1.52 1.27-1.52 2.31s.63 1.93 1.52 2.31c.3.13.62.2.97.2v1.54a14 14 0 0 0-8.55-2.91c-7.78 0-14.1 6.32-14.1 14.1Z"/>
</svg>
