<svg viewBox="0 0 32 32" xmlns="http://www.w3.org/2000/svg">
  <path d="m31.5 29.01-4.9-4.89c1.1-1.58 1.74-3.5 1.74-5.57 0-5.4-4.4-9.8-9.8-9.8s-9.8 4.4-9.8 9.8 4.4 9.8 9.8 9.8c2.07 0 4-.65 5.58-1.76l4.9 4.89c.34.34.79.51 1.24.51s.9-.17 1.24-.51c.68-.68.68-1.79 0-2.47M12.25 18.55c0-3.47 2.83-6.3 6.3-6.3s6.3 2.83 6.3 6.3-2.83 6.3-6.3 6.3-6.3-2.83-6.3-6.3m-5.25 0c0 2.66.91 5.1 2.43 7.06h-1.1c0-1.11-.89-2-1.98-2s-1.98.9-1.98 2H1.99c0-1.11-.89-2-1.98-2v-2.4c1.09 0 1.98-.9 1.98-2 0-.28-.06-.54-.16-.78-.3-.72-1-1.22-1.83-1.22h.01v-2.4c1.09 0 1.98-.9 1.98-2 0-.41-.12-.8-.34-1.12-.36-.53-.96-.88-1.64-.88v-2.4c1.09 0 1.98-.9 1.98-2S1.11 4.4.01 4.4V2c1.1 0 1.98-.9 1.98-2h2.38c0 1.11.89 2 1.98 2s1.98-.9 1.98-2h2.38c0 1.11.89 2 1.98 2s1.98-.9 1.98-2h2.38c0 1.11.89 2 1.98 2s1.98-.9 1.98-2h2.38c0 .55.22 1.05.58 1.42.36.36.85.59 1.4.59v2.4c-.55 0-1.04.22-1.4.59-.36.36-.58.86-.58 1.42s.22 1.05.58 1.42c.36.36.85.59 1.4.59v.85a11.45 11.45 0 0 0-6.82-2.25C12.18 7.03 7 12.21 7 18.58Z"/>
</svg>
