<svg viewBox="0 0 48 48" xmlns="http://www.w3.org/2000/svg">
  <path d="m47.63 45.87-9.56-9.56c1.91-2.3 3.06-5.26 3.06-8.48 0-7.34-5.98-13.32-13.32-13.32s-13.32 5.97-13.32 13.32 5.98 13.32 13.32 13.32a13.3 13.3 0 0 0 8.5-3.07l9.56 9.56c.24.24.56.37.88.37s.64-.12.88-.37c.49-.49.49-1.28 0-1.77M16.98 27.83c0-5.97 4.85-10.82 10.82-10.82s10.82 4.85 10.82 10.82-4.86 10.82-10.82 10.82-10.82-4.85-10.82-10.82m-2.01 6.9c.42.78.92 1.52 1.47 2.21-.25.44-.4.94-.4 1.48h-3.57c0-1.66-1.33-3-2.97-3s-2.97 1.34-2.97 3H2.96c0-1.66-1.33-3-2.97-3v-3.6c1.64 0 2.97-1.34 2.97-3S1.64 25.81 0 25.81v-3.6c1.64 0 2.97-1.34 2.97-3s-1.33-3-2.97-3v-3.6c1.64 0 2.97-1.34 2.97-3s-1.33-3-2.97-3v-3.6A3 3 0 0 0 2.97 0h3.57c0 1.66 1.33 3 2.97 3s2.97-1.34 2.97-3h3.57c0 1.66 1.33 3 2.97 3s2.97-1.34 2.97-3h3.57c0 1.66 1.33 3 2.97 3s2.96-1.34 2.96-3h3.57c0 1.66 1.33 3 2.97 3v3.6c-1.64 0-2.97 1.34-2.97 3s1.33 3 2.97 3v3.6c-.41 0-.81.09-1.16.24q-1.065-.855-2.28-1.5c.24-.2.5-.39.78-.54-1.67-.94-2.8-2.74-2.8-4.8s1.13-3.86 2.8-4.8a5.56 5.56 0 0 1-2.09-2.08c-.94 1.66-2.72 2.78-4.75 2.78s-3.81-1.12-4.75-2.78c-.94 1.66-2.72 2.78-4.75 2.78s-3.81-1.12-4.75-2.78c-.94 1.66-2.72 2.78-4.75 2.78S5.72 4.38 4.78 2.72c-.49.87-1.22 1.59-2.09 2.08 1.67.94 2.8 2.74 2.8 4.8s-1.13 3.86-2.8 4.8c1.67.94 2.8 2.74 2.8 4.8s-1.13 3.86-2.8 4.8c1.67.94 2.8 2.74 2.8 4.8s-1.13 3.86-2.8 4.8c.87.49 1.59 1.21 2.09 2.08.94-1.66 2.72-2.78 4.75-2.78s3.81 1.12 4.75 2.78c.2-.35.44-.67.71-.97Z"/>
</svg>
