<svg viewBox="0 0 16 16" xmlns="http://www.w3.org/2000/svg">
  <path d="m15.79 14.72-2.9-2.9c.57-.79.92-1.75.92-2.79 0-2.63-2.14-4.77-4.78-4.77a4.77 4.77 0 1 0 0 9.54c1.05 0 2.01-.35 2.8-.92l2.9 2.9c.15.15.34.22.53.22s.38-.07.53-.22c.29-.29.29-.77 0-1.06M5.75 9.03c0-1.8 1.47-3.27 3.27-3.27s3.28 1.47 3.28 3.27-1.47 3.27-3.28 3.27-3.27-1.47-3.27-3.27m-2.08 1.33c.23.93.7 1.77 1.34 2.45h-.84c0-.55-.44-1-.99-1s-.99.45-.99 1H1c0-.55-.44-1-.99-1v-1.2c.55 0 .99-.45.99-1s-.44-1-.99-1v-1.2c.55 0 .99-.45.99-1S.55 5.4 0 5.4V4.2c.55 0 .99-.45.99-1s-.44-1-.99-1V1c.55 0 1-.45 1-1h1.19c0 .55.44 1 .99 1s.99-.45.99-1h1.19c0 .55.44 1 .99 1s.99-.45.99-1h1.19c0 .55.44 1 .99 1s.99-.45.99-1h1.19c0 .55.44 1 .99 1v1.2c-.55 0-.99.45-.99 1s.44 1 .99 1v.7a5.5 5.5 0 0 0-2.45-1.26 2 2 0 0 1-.04-.44c0-.29.05-.58.14-.84-.26.09-.54.14-.82.14-.6 0-1.15-.22-1.58-.57-.43.36-.98.57-1.58.57s-1.15-.22-1.58-.57c-.43.36-.98.57-1.58.57-.29 0-.57-.05-.82-.14.09.26.15.55.15.84 0 .61-.22 1.17-.58 1.6.36.43.58.99.58 1.6S2.31 7.57 1.95 8c.36.43.58.99.58 1.6q0 .45-.15.84c.26-.09.54-.14.82-.14.17 0 .33.02.49.05Z"/>
</svg>
