<svg viewBox="0 0 40 40" xmlns="http://www.w3.org/2000/svg">
  <path d="m39.74 38.13-7.73-7.72a11.15 11.15 0 0 0 2.53-7.08c0-6.19-5.04-11.22-11.22-11.22S12.1 17.14 12.1 23.33s5.04 11.22 11.22 11.22c2.69 0 5.16-.95 7.1-2.54l7.72 7.72c.22.22.51.33.8.33s.58-.11.8-.33c.44-.44.44-1.16 0-1.6M14.35 23.32c0-4.94 4.02-8.96 8.97-8.96s8.97 4.02 8.97 8.96-4.02 8.96-8.97 8.96-8.97-4.02-8.97-8.96m-1.97 5.74q.57 1.095 1.35 2.04c-.15.33-.25.69-.25 1.07H10.5c0-1.39-1.11-2.51-2.48-2.51s-2.48 1.12-2.48 2.51H2.56c0-1.39-1.11-2.51-2.48-2.51v-3.01c1.37 0 2.48-1.12 2.48-2.51S1.45 21.63.08 21.63v-3.01c1.37 0 2.48-1.12 2.48-2.51S1.44 13.6.07 13.6v-3.01c1.37 0 2.48-1.12 2.48-2.51S1.44 5.57.07 5.57V2.56c1.37 0 2.48-1.12 2.48-2.51h2.98c0 1.39 1.11 2.51 2.48 2.51S10.5 1.44 10.5.05h2.98c0 1.39 1.11 2.51 2.48 2.51s2.48-1.12 2.48-2.51h2.98c0 1.39 1.11 2.51 2.48 2.51s2.48-1.12 2.48-2.51h2.98c0 1.39 1.11 2.51 2.48 2.51v3.01c-1.37 0-2.48 1.12-2.48 2.51s1.11 2.51 2.48 2.51v3.01c-.27 0-.53.06-.78.14-.66-.53-1.37-.99-2.13-1.39.11-.09.23-.18.35-.26-1.31-.85-2.19-2.33-2.19-4.01s.87-3.17 2.19-4.01c-.57-.37-1.05-.85-1.42-1.42-.85 1.31-2.31 2.17-3.98 2.17s-3.13-.86-3.98-2.17c-.85 1.31-2.31 2.17-3.98 2.17s-3.13-.86-3.98-2.17c-.85 1.31-2.31 2.17-3.98 2.17s-3.13-.86-3.98-2.17c-.37.57-.85 1.05-1.42 1.42 1.32.85 2.19 2.33 2.19 4.01s-.87 3.17-2.19 4.01c1.32.85 2.19 2.33 2.19 4.01s-.87 3.17-2.19 4.01c1.32.85 2.19 2.33 2.19 4.01s-.87 3.17-2.19 4.01c.57.37 1.05.85 1.42 1.42.85-1.31 2.31-2.17 3.98-2.17s3.13.86 3.98 2.17c.12-.18.25-.35.39-.52Z"/>
</svg>
