<svg viewBox="0 0 24 24" xmlns="http://www.w3.org/2000/svg">
  <path d="M22.78 0 19.1 3.71h-8.84L14.57 0zm-2.43 4.95V14l3.66-3.64v-9.1zm-10.92.51h9.17v9.16h-1.46V12.2h-4.47l-.8-2.92H9.44V5.46Zm4.79 4.33h2.66V7.13h-2.66zM7.7 15.92c-1.27 0-2.31 1.04-2.31 2.31s1.04 2.31 2.31 2.31 2.31-1.04 2.31-2.31-1.04-2.31-2.31-2.31m3.63-1.97h4.06v10.06H0V13.95h4.06l.8-2.92h5.66l.8 2.92Zm-1.8.68h-.1v-.05c-.53-.25-1.11-.4-1.73-.4-2.24 0-4.06 1.82-4.06 4.06S5.46 22.3 7.7 22.3s4.06-1.82 4.06-4.06c0-1.58-.91-2.93-2.23-3.6Z"/>
</svg>
