<svg viewBox="0 0 24 24" xmlns="http://www.w3.org/2000/svg">
  <path d="M13.62 0 8.16 4.72v4.81H4.6l-.69 2.53H0v11.96h16.55v-8.11h2.77l4.66-4.63V0H13.59Zm.65 1.75h6.76l-2.94 2.97h-7.26zm.54 20.51H1.76V13.8h3.48l.69-2.53h4.71l.69 2.53h3.48zm2.77-8.11h-1.02v-2.09h-3.9l-.69-2.53H9.9V6.47h7.68zm1.76-.71V5.95L22.26 3v7.53l-2.92 2.9Zm-3.12-3.35h-2.3v-2.3h2.3zm-7.94 3.66c-2 0-3.63 1.63-3.63 3.63s1.63 3.63 3.63 3.63 3.63-1.63 3.63-3.63-1.63-3.63-3.63-3.63m0 5.51c-1.03 0-1.88-.84-1.88-1.88s.84-1.88 1.88-1.88 1.88.84 1.88 1.88-.84 1.88-1.88 1.88"/>
</svg>
