<svg viewBox="0 0 48 48" xmlns="http://www.w3.org/2000/svg">
  <path d="M27.51 0 16.69 9.63v9.85H9.26l-1.42 5.16H0v23.35h32.74v-16.6h5.71v-.05l.03.03L48 22.24V0H27.5Zm.95 2.5h15.3l-7.07 7.13H20.45zm1.79 43.01H2.5V27.16h7.24L11.16 22H21.6l1.42 5.16h7.24v18.35Zm5.71-16.6h-3.21v-4.25h-7.83L23.5 19.5h-4.31v-7.35h16.77v16.77Zm2.5-.96V11.4l7.05-7.11v16.9l-7.05 6.75Zm-4.92-9.08h-4.7v-4.7h4.7zm-17.16 8.85c-4.01 0-7.28 3.26-7.28 7.28s3.27 7.28 7.28 7.28 7.28-3.26 7.28-7.28-3.27-7.28-7.28-7.28m0 12.05c-2.63 0-4.78-2.14-4.78-4.78a4.78 4.78 0 1 1 4.78 4.78"/>
</svg>
