<svg viewBox="0 0 64 64" xmlns="http://www.w3.org/2000/svg">
  <path d="M62.08.03 50.8 11.41H25.74L38.37.03zm-9.33 13.32v25.34L64 28.08V2L52.75 13.36Zm-28.27.81H50v25.52h-5.63v-6.24H32.99l-2.08-7.58h-6.44v-11.7ZM39.09 24.5h6.9v-6.9h-6.9zM20.81 40.69c-4.12 0-7.47 3.35-7.47 7.47s3.35 7.47 7.47 7.47 7.47-3.35 7.47-7.47-3.35-7.47-7.47-7.47m10.09-4.5h10.73v27.84H0V36.19h10.73l2.08-7.58h16.01zm.13 11.96c0-5.63-4.58-10.22-10.22-10.22s-10.22 4.58-10.22 10.22 4.58 10.22 10.22 10.22 10.22-4.58 10.22-10.22"/>
</svg>
