<svg viewBox="0 0 16 16" xmlns="http://www.w3.org/2000/svg">
  <path d="M16 0H8.99L5.33 3.07h-.02V6.2H3.04l-.45 1.65H0V16h11.14v-5.28h1.8v-.08l3.04-3.04V0ZM9.53 1.5h3.91l-1.56 1.57H7.65L9.52 1.5Zm.12 13H1.51V9.35h2.23l.45-1.65h2.79l.45 1.65h2.22zm1.8-5.28h-.3V7.85H8.57L8.12 6.2H6.81V4.57h4.65v4.65Zm1.5-.71V4.13l1.54-1.56v4.4zm-2.21-1.76h-1.5v-1.5h1.5zm-5.16 2.5c-1.24 0-2.25 1.01-2.25 2.25s1.01 2.25 2.25 2.25 2.25-1.01 2.25-2.25-1.01-2.25-2.25-2.25m0 3c-.41 0-.75-.34-.75-.75s.34-.75.75-.75.75.34.75.75-.34.75-.75.75"/>
</svg>
