<svg viewBox="0 0 40 40" xmlns="http://www.w3.org/2000/svg">
  <path d="M40 0H22.87l-9.03 7.99v8.17H7.69l-1.18 4.28H0v19.55h27.34V26.22h4.74L40 18.58zM23.73 2.25h12.45l-5.69 5.74H17.24zm1.37 35.5H2.25V22.7h5.98l1.18-4.28h8.53l1.18 4.28h5.98zm4.73-13.77h-2.49v-3.53h-6.52l-1.18-4.28h-3.56v-5.92h13.74v13.74Zm2.25-.88V9.58l5.67-5.72v13.77l-5.67 5.46Zm-4.17-7.36h-3.9v-3.9h3.9zm-14.23 7.25c-3.38 0-6.13 2.75-6.13 6.12s2.75 6.12 6.13 6.12 6.13-2.75 6.13-6.12-2.75-6.12-6.13-6.12m0 10c-2.14 0-3.88-1.74-3.88-3.87s1.74-3.87 3.88-3.87 3.88 1.74 3.88 3.87-1.74 3.87-3.88 3.87"/>
</svg>
