<svg viewBox="0 0 16 16" xmlns="http://www.w3.org/2000/svg">
  <path d="M9.82 4.77c1.31 0 2.38-1.07 2.38-2.39a2.38 2.38 0 1 0-4.76 0c0 1.31 1.07 2.39 2.38 2.39m0-3.27c.49 0 .88.4.88.88s-.4.88-.88.88-.88-.4-.88-.88.4-.88.88-.88m6.17 8.13-1.94-.18v-1.4c0-1.47-1.19-2.66-2.65-2.66H8.25c-1.46 0-2.65 1.19-2.65 2.66v.76c-.27.42-.44.92-.44 1.46v1.3H3.98c.49-.44.8-1.06.8-1.77 0-1.31-1.07-2.38-2.38-2.38S.01 8.49.01 9.81c0 .71.31 1.33.8 1.77h-.82v1.5h1.59v2.93h1.5v-2.93h3.98v2.93h1.5v-2.92h2.75v2.92h1.5V13.1h.5v2.91h1.5v-2.9H16V9.64Zm-13.6-.71c.49 0 .88.4.88.88s-.4.88-.88.88-.88-.4-.88-.88.4-.88.88-.88M8.24 6.9h3.15c.64 0 1.15.52 1.15 1.16v1.26l-1.85-.17V7.62h-2.9c-.22 0-.44.04-.65.09.15-.46.57-.81 1.08-.81Zm-1.59 4.67v-1.29c0-.64.52-1.16 1.15-1.16h1.4v1.4l5.28.48v.57H6.64Z"/>
</svg>
