<svg viewBox="0 0 32 32" xmlns="http://www.w3.org/2000/svg">
  <path d="M15.38 4.27c0-2.35 1.91-4.27 4.26-4.27s4.25 1.91 4.25 4.26-1.91 4.26-4.25 4.26-4.26-1.91-4.26-4.26Zm-2.12 10.75h8.55v3.3l5.77.5v-3.56c0-2.65-2.15-4.81-4.8-4.81h-6.3c-2.65 0-4.8 2.16-4.8 4.81v.03c.24-.08.47-.14.72-.18.28-.05.56-.09.85-.09Zm18.72 6.19-12.17-1.05v-3.13h-6.55c-1.75 0-3.17 1.42-3.17 3.17v3.47h-4.5a4.25 4.25 0 0 0 2.92-4.03c0-2.35-1.91-4.26-4.26-4.26S0 17.29 0 19.64c0 1.88 1.23 3.46 2.92 4.03H0v2h3.66V32h2v-6.33h8.98-.04v6.34h10.48v-6.34h1.99V32h2v-6.33H32z"/>
</svg>
