<svg viewBox="0 0 64 64" xmlns="http://www.w3.org/2000/svg">
  <path d="M31.39 7.92c0-4.35 3.54-7.89 7.88-7.89s7.89 3.54 7.89 7.89-3.54 7.89-7.89 7.89-7.89-3.54-7.89-7.89Zm11.07 23.33v6.34l12.09 1.01V28.26c0-4.95-4.02-8.98-8.97-8.98h-12.6c-4.95 0-8.97 4.03-8.97 8.98v3.02c.25-.02.49-.04.74-.04h17.71Zm21.55 16.74h-.02v-5.84l-24.28-2.03V34H24.75c-3.7 0-6.71 3.01-6.71 6.71v7.28h-7.25c2.93-1.16 5-4 5-7.34 0-4.35-3.54-7.89-7.89-7.89S.01 36.3.01 40.66c0 3.33 2.08 6.18 5 7.34H0v2.75h7.94v13.28h2.75V50.75h19.13v13.29h19.71V50.75h5.23v13.28h2.75V50.75h6.48V48Z"/>
</svg>
