<svg viewBox="0 0 48 48" xmlns="http://www.w3.org/2000/svg">
  <path d="M29.46 12.28c3.38 0 6.13-2.75 6.13-6.13S32.84.02 29.46.02s-6.13 2.75-6.13 6.13 2.75 6.13 6.13 6.13m0-9.76c2 0 3.63 1.63 3.63 3.63s-1.63 3.63-3.63 3.63-3.63-1.63-3.63-3.63 1.63-3.63 3.63-3.63m18.53 33.27v-5.87l-6.87-.58V21.4c0-3.83-3.12-6.95-6.95-6.95h-9.45c-3.83 0-6.95 3.12-6.95 6.95v3.32a6.95 6.95 0 0 0-3.89 6.23v4.84H9.23c1.81-1.07 3.03-3.03 3.03-5.28 0-3.38-2.75-6.13-6.13-6.13S0 27.13 0 30.51c0 2.25 1.22 4.21 3.03 5.28H0v2.5h5.74v9.73h2.5v-9.73h13.92v9.73h2.5v-9.73h10.22v9.73h2.5v-9.73h3.49v9.73h2.5v-9.73H48v-2.5ZM6.13 26.88c2 0 3.63 1.63 3.63 3.63s-1.63 3.63-3.63 3.63-3.63-1.63-3.63-3.63 1.63-3.63 3.63-3.63m14.15-5.48c0-2.45 1.99-4.45 4.45-4.45h9.45c2.45 0 4.45 1.99 4.45 4.45v7.71h-.24l-7.29-.62V24H20.83c-.19 0-.37.01-.55.03zm-3.89 9.55c0-2.45 1.99-4.45 4.45-4.45h7.77v4.29l16.89 1.43v3.57H16.4v-4.84Z"/>
</svg>
