<svg viewBox="0 0 40 40" xmlns="http://www.w3.org/2000/svg">
  <path d="M24.55 10.4c2.86 0 5.2-2.33 5.2-5.19s-2.34-5.2-5.2-5.2-5.2 2.33-5.2 5.19 2.33 5.19 5.2 5.19Zm0-8.14c1.62 0 2.95 1.32 2.95 2.94s-1.32 2.94-2.95 2.94S21.6 6.82 21.6 5.2s1.32-2.94 2.95-2.94M40 29.74h-.02v-4.88l-5.63-.48v-6.47c0-3.24-2.63-5.87-5.87-5.87h-7.87c-3.24 0-5.87 2.63-5.87 5.87v2.93A5.87 5.87 0 0 0 12 25.8v3.95H5.63c2.66-.22 4.76-2.43 4.76-5.15 0-2.86-2.33-5.19-5.2-5.19S0 21.73 0 24.59c0 2.71 2.1 4.92 4.76 5.15H0v2.25h4.7v8.02h2.25v-8.02h11.42v8.02h2.25v-8.02h8.35v8.02h2.25v-8.02h2.74v8.02h2.25v-8.02H40zM2.25 24.59c0-1.62 1.32-2.94 2.95-2.94s2.95 1.32 2.95 2.94-1.32 2.94-2.95 2.94-2.95-1.32-2.95-2.94m14.74-6.69c0-2 1.62-3.62 3.62-3.62h7.87c2 0 3.62 1.62 3.62 3.62v6.27h-.15L26 23.66v-3.75h-8.13c-.3 0-.59.03-.88.07v-2.09Zm-2.74 7.89c0-2 1.62-3.62 3.62-3.62h5.88v3.56l13.98 1.19v2.82H14.25z"/>
</svg>
