<svg viewBox="0 0 40 40" xmlns="http://www.w3.org/2000/svg">
  <path d="M16.29 19.1c-.54 0-1.05.07-1.55.2v-1.35c0-3.24 2.63-5.87 5.87-5.87h7.87c3.24 0 5.87 2.63 5.87 5.87v5.84l-7.32-.62V19.1H16.28Zm8.26-8.66c2.86 0 5.2-2.33 5.2-5.19S27.41.06 24.55.06s-5.2 2.33-5.2 5.19 2.33 5.19 5.2 5.19M40 29.79v-3.25l-15.21-1.3v-3.88h-8.5c-.27 0-.54.03-.8.08s-.51.13-.75.23a4.05 4.05 0 0 0-2.49 3.73v4.4H5.64c2.66-.22 4.76-2.43 4.76-5.15 0-2.86-2.33-5.19-5.2-5.19S0 21.78 0 24.64c0 2.71 2.1 4.92 4.76 5.15H0v2.25h4.7v8.02h2.25v-8.02h11.43v7.92h12.85v-7.92h2.74v8.02h2.25v-8.02h3.79v-2.25Z"/>
</svg>
