<svg viewBox="0 0 64 64" xmlns="http://www.w3.org/2000/svg">
  <path d="M39.27 15.77c4.35 0 7.89-3.54 7.89-7.89s-3.54-7.9-7.89-7.9-7.89 3.54-7.89 7.89 3.54 7.89 7.89 7.89Zm0-13.04c2.83 0 5.14 2.31 5.14 5.14s-2.3 5.14-5.14 5.14-5.14-2.31-5.14-5.14 2.3-5.14 5.14-5.14M64 47.95v-7.86l-9.45-.79V28.22c0-4.95-4.02-8.98-8.97-8.98h-12.6c-4.95 0-8.97 4.03-8.97 8.98v4.71c-3.21 1.37-5.47 4.56-5.47 8.26v6.76h-7.75c2.93-1.16 5-4.01 5-7.34 0-4.35-3.54-7.89-7.89-7.89S.01 36.26.01 40.61c0 3.33 2.08 6.18 5 7.34H0v2.75h7.94v13.28h2.75V50.7h19.14v13.27h2.75V50.7h14.21v13.27h2.75V50.69h5.23v13.28h2.75V50.69h6.47v-2.75ZM2.76 40.61c0-2.83 2.3-5.14 5.14-5.14s5.14 2.31 5.14 5.14-2.3 5.14-5.14 5.14-5.14-2.31-5.14-5.14m23.99-12.39c0-3.43 2.79-6.23 6.22-6.23h12.6c3.43 0 6.22 2.79 6.22 6.23v10.81h-.47l-10.15-.85v-5.97H27.5c-.26 0-.51.02-.76.04v-4.03Zm-5.46 12.97c0-3.43 2.79-6.23 6.22-6.23h10.92v5.75l22.82 1.91v5.33H21.29z"/>
</svg>
