<svg viewBox="0 0 40 40" xmlns="http://www.w3.org/2000/svg">
  <path fill="#1e1e1c" d="M3 6.48C3 2.88 5.93-.05 9.53-.05s6.53 2.93 6.53 6.54-2.93 6.54-6.53 6.54c-.31 0-.61-.03-.91-.07-.07 0-.13-.02-.2-.03q-.45-.075-.87-.21h-.01c-.29-.09-.56-.21-.83-.34-.04-.02-.07-.04-.11-.05C4.47 11.25 3 9.05 3 6.5Zm36.98 9.15-1.03 8.25c-.1.77-.69 1.36-1.43 1.48l-1.15.46c-1.95.35-4.89.25-8.52-1.83a1.13 1.13 0 0 0-1.12 1.96c2.23 1.28 4.25 1.91 6.02 2.16-.31.6-.64 1.18-1.02 1.73l2.26 4.23c.31.55.37 1.23.15 1.88-.24.72-.8 1.31-1.53 1.61l-5.07 2.16c-.36.15-.73.22-1.09.22-.88 0-1.71-.43-2.14-1.2l-1.4-2.62c-2.76.75-5.63.74-8.38-.06l-1.36 2.64c-.63 1.12-2.02 1.54-3.25 1.01l-5.07-2.16c-.73-.31-1.28-.9-1.53-1.61a2.3 2.3 0 0 1 .17-1.9l2.26-4.42a15.74 15.74 0 0 1-2.52-6.67c-.2.06-.41.1-.61.1-.77 0-1.48-.4-1.96-1.09-.44-.64-.66-1.48-.66-2.5 0-.62.5-1.13 1.13-1.13s1.13.5 1.13 1.13c0 .99.32 1.32.38 1.34.09-.02.47-.38.47-1.36 0-.14.03-.28.08-.41.21-1.85.73-3.61 1.52-5.22 1.39.92 3.05 1.46 4.84 1.46.12 0 .24-.01.36-.02-.3.52-.55 1.08-.73 1.68-.18.59.15 1.22.75 1.4a1.13 1.13 0 0 0 1.41-.75c.94-3.11 4.24-4.87 7.34-3.92.6.18 1.22-.15 1.4-.75s-.15-1.22-.75-1.4c-.78-.24-1.58-.35-2.36-.35a8.7 8.7 0 0 0 1.36-4.67c0-.53-.05-1.04-.14-1.54.21 0 .42-.03.64-.03.63 0 1.29.05 2 .14L27.22.33c.45-.39 1.16-.49 1.78-.21.62.29 1 .89 1 1.57v7.96c1.17 1.2 2.14 2.56 2.88 4.06h5.4c.49 0 .96.21 1.28.58.33.37.48.86.42 1.35Zm-11.57.55c-.02-.57-.26-1.09-.67-1.48-.42-.39-.94-.59-1.53-.57a2.131 2.131 0 0 0-1.38 3.68c.4.37.91.57 1.45.57h.08a2.117 2.117 0 0 0 2.05-2.2"/>
</svg>
