<svg viewBox="0 0 64 64" xmlns="http://www.w3.org/2000/svg">
  <path fill="#1e1e1c" d="M4.92 10.6C4.92 4.76 9.67 0 15.51 0c5.45 0 9.95 4.14 10.53 9.45v.02q.06.555.06 1.14c0 5.85-4.75 10.61-10.6 10.61-.33 0-.66-.02-.98-.05-.12-.01-.23-.03-.34-.04-.2-.03-.4-.05-.6-.09l-.42-.09-.47-.12c-.16-.04-.32-.09-.48-.14l-.24-.09c-.7-.25-1.36-.57-1.98-.95l-.06-.03c-.22-.14-.44-.29-.65-.44-2.64-1.93-4.37-5.05-4.37-8.56Zm59.06 14.3-1.67 13.4c-.09.72-.51 1.32-1.09 1.68-.19.09-.4.18-.64.28-.09.02-.18.05-.27.06l-.75.3c-2.94.9-8.22 1.42-15.06-2.5a1.376 1.376 0 1 0-1.37 2.39c3.63 2.09 6.9 3.04 9.71 3.37-.65 1.44-1.44 2.82-2.35 4.12l3.8 7.11c.45.8.53 1.76.22 2.69-.35 1.04-1.16 1.9-2.23 2.35l-8.23 3.5c-.52.22-1.06.33-1.59.33-1.27 0-2.45-.62-3.07-1.71l-2.45-4.57c-4.55 1.32-9.31 1.3-13.87-.05l-.33.66c-.12.24-.3.43-.52.57l-1.72 3.34c-.9 1.6-2.91 2.2-4.69 1.43l-8.23-3.5c-1.06-.45-1.87-1.31-2.23-2.35-.31-.93-.23-1.9.24-2.72l3.8-7.43a25.3 25.3 0 0 1-4.23-11.41c-.44.21-.91.32-1.38.32-1.1 0-2.12-.58-2.8-1.58-.64-.96-.98-2.27-.98-3.81 0-.76.62-1.38 1.37-1.38s1.37.62 1.37 1.38c0 1.31.32 1.97.51 2.25.1.14.3.38.53.38.43 0 1.24-.78 1.24-2.66 0-.2.05-.39.12-.56.35-3.23 1.3-6.28 2.73-9.03a13.24 13.24 0 0 0 7.63 2.42c.29 0 .58-.03.87-.04-.65.99-1.18 2.09-1.54 3.28-.22.73.19 1.5.91 1.72a1.365 1.365 0 0 0 1.71-.92c1.61-5.28 7.21-8.27 12.48-6.67a1.38 1.38 0 0 0 .81-2.64c-1.42-.43-2.85-.59-4.26-.53 1.48-2.15 2.36-4.76 2.36-7.56 0-.88-.09-1.73-.25-2.56.48-.03.97-.05 1.46-.05 1.05 0 2.16.08 3.37.26L43.95.5c.7-.57 1.64-.69 2.46-.31.84.39 1.37 1.21 1.37 2.13v13.1c1.99 2.01 3.62 4.31 4.84 6.85h9.05c.67 0 1.3.29 1.75.79s.65 1.17.57 1.83Zm-18.66.3a3.126 3.126 0 0 0-3.23-3.02 3.13 3.13 0 0 0-3.01 3.24 3.126 3.126 0 0 0 3.12 3.02h.11a3.126 3.126 0 0 0 3.01-3.23Z"/>
</svg>
