<svg viewBox="0 0 48 48" xmlns="http://www.w3.org/2000/svg">
  <path fill="#1e1e1c" d="M3.69 7.92C3.69 3.55 7.24 0 11.6 0c4.06 0 7.41 3.08 7.86 7.03v.03c.03.28.05.57.05.87 0 4.37-3.55 7.92-7.91 7.92-.4 0-.78-.04-1.16-.1l-.21-.03c-.38-.07-.75-.16-1.11-.28-.02 0-.04-.01-.05-.02-.77-.26-1.49-.64-2.13-1.11-1.96-1.44-3.25-3.76-3.25-6.38Zm44.29 10.79-1.24 9.95c-.11.88-.8 1.57-1.65 1.7l-2.41.96c-2.35.16-5.51-.28-9.28-2.44-.6-.34-1.36-.14-1.71.46-.34.6-.14 1.36.46 1.71 2.64 1.51 5.03 2.28 7.14 2.61-.39.76-.81 1.5-1.29 2.2l2.75 5.16c.36.64.43 1.43.18 2.18-.28.84-.93 1.52-1.78 1.88l-6.12 2.6c-.42.18-.85.26-1.27.26-1.02 0-1.98-.5-2.48-1.39l-1.73-3.24c-3.35.94-6.84.92-10.19-.06l-.17.35c-.03.07-.08.12-.12.18l-1.4 2.73c-.73 1.3-2.35 1.78-3.78 1.17l-6.12-2.6c-.85-.36-1.5-1.05-1.78-1.88-.25-.75-.19-1.54.19-2.21l2.76-5.39a19.06 19.06 0 0 1-3.07-8.18c-.27.09-.55.15-.83.15-.89 0-1.72-.46-2.27-1.27-.51-.76-.77-1.75-.77-2.96a1.25 1.25 0 0 1 2.5 0c0 .91.21 1.36.34 1.54.09.13.17.18.21.18.15 0 .69-.44.69-1.75 0-.17.04-.33.1-.47.25-2.26.9-4.41 1.87-6.36a10.36 10.36 0 0 0 5.91 1.85c.1 0 .2-.01.31-.02-.36.63-.66 1.3-.87 2-.2.66.17 1.36.83 1.56.12.04.24.05.36.05.54 0 1.03-.35 1.2-.89a7.14 7.14 0 0 1 2.74-3.79c.42-.21.83-.43 1.22-.69 1.58-.71 3.35-.83 5.03-.32a1.25 1.25 0 0 0 .73-2.39c-.9-.27-1.82-.41-2.73-.42 1.01-1.6 1.6-3.49 1.6-5.52 0-.68-.07-1.34-.19-1.98.25 0 .49-.04.74-.04.77 0 1.57.06 2.45.18l7.73-5.7c.52-.45 1.33-.56 2.04-.23s1.14 1.01 1.14 1.79v9.64c1.44 1.46 2.61 3.12 3.51 4.95h6.58a1.964 1.964 0 0 1 1.95 2.2Zm-13.95.89c-.05-1.35-1.21-2.43-2.54-2.37-.66.02-1.26.3-1.71.78a2.45 2.45 0 0 0-.66 1.76 2.465 2.465 0 0 0 2.45 2.37h.09a2.47 2.47 0 0 0 2.37-2.54"/>
</svg>
