<svg viewBox="0 0 16 16" xmlns="http://www.w3.org/2000/svg">
  <path fill="#1e1e1c" d="M11.38 7.14c0 .54-.44.98-.97.98a.98.98 0 0 1 0-1.96c.53 0 .97.44.97.98m4.59-.78-.4 3.17c-.05.42-.37.76-.77.84l-1.48.59c-.13.29-.28.57-.46.84l.78 1.46c.16.28.19.64.08.97-.12.36-.4.66-.76.81l-1.95.83c-.18.08-.36.11-.54.11-.45 0-.87-.23-1.09-.62l-.43-.8c-.95.22-1.93.22-2.89-.02l-.4.79c-.33.58-1.03.8-1.65.54l-1.94-.83c-.36-.16-.64-.45-.76-.81-.11-.33-.08-.69.09-.99l.78-1.52c-.43-.69-.71-1.44-.85-2.22H1.3c-.4 0-.77-.2-1.01-.56-.2-.3-.31-.68-.31-1.14 0-.41.33-.75.75-.75.23 0 .42.11.56.27.11-.74.36-1.43.7-2.07-.47-.56-.77-1.27-.77-2.06C1.22 1.45 2.64.02 4.38.02c1.29 0 2.39.77 2.89 1.88.09 0 .19-.01.28-.01.22 0 .44.01.68.04L10.58.19c.24-.21.65-.27 1-.11s.57.51.57.89V3.9c.39.41.72.87.98 1.37h1.88c.28 0 .54.12.73.33.18.21.27.49.24.77ZM2.71 3.2c0 .93.75 1.68 1.67 1.68s1.67-.75 1.67-1.68-.75-1.68-1.67-1.68-1.67.75-1.67 1.68m11.71 3.56h-2.24l-.2-.45c-.26-.59-.63-1.12-1.09-1.57l-.23-.22V1.99L8.62 3.5l-.31-.05c-.29-.05-.53-.07-.76-.07h-.02c-.02.33-.09.65-.2.95.17.02.34.05.51.1.39.12.62.54.5.94a.74.74 0 0 1-.93.5c-.49-.15-1.02-.1-1.48.14s-.79.65-.94 1.15a.747.747 0 0 1-1.43-.43c.05-.15.11-.29.18-.43-.18-.04-.35-.1-.52-.16-.32.65-.51 1.39-.51 2.17 0 1.05.33 2.06.95 2.92l.27.37-1.09 2.14 1.62.69.32-.62s0-.05.02-.07l.69-1.39c.18-.37.63-.52 1-.34s.52.63.34 1l-.07.14c.5.09 1 .09 1.5.02l-.02-.04a.75.75 0 0 1 .33-1.01c.37-.19.82-.04 1 .33l.57 1.11.46.87 1.62-.69-1.1-2.06.26-.35a3.6 3.6 0 0 1-.98-.28.745.745 0 0 1-.39-.98c.16-.38.6-.56.98-.39.75.32 1.14.15 1.16.14h.04l1.96-.79.28-2.26Z"/>
</svg>
