<svg viewBox="0 0 24 24" xmlns="http://www.w3.org/2000/svg">
  <path fill="#1e1e1c" d="M17.26 10.4c0 .68-.55 1.23-1.22 1.23s-1.22-.55-1.22-1.23.55-1.23 1.22-1.23 1.22.55 1.22 1.23m6.69-.93-.61 4.86c-.07.54-.48.96-1 1.05l-2.4.96c-.23.52-.5 1.01-.81 1.49l1.27 2.38c.21.37.25.84.1 1.28-.16.48-.53.87-1.01 1.08l-2.98 1.27q-.36.15-.72.15c-.59 0-1.15-.3-1.44-.82l-.75-1.4c-1.55.4-3.16.39-4.71-.03l-.72 1.4c-.43.76-1.36 1.05-2.18.7l-2.98-1.27c-.48-.21-.85-.6-1.01-1.08-.15-.44-.11-.9.11-1.3l1.27-2.49a9.6 9.6 0 0 1-1.41-3.69c-.09.02-.17.03-.26.03-.52 0-1.01-.27-1.33-.74-.28-.41-.42-.95-.42-1.6 0-.49.39-.88.87-.88s.87.39.87.88c0 .14.01.26.03.35.02-.09.04-.21.04-.36 0-.17.06-.33.15-.46.16-1.25.57-2.43 1.16-3.48a4.56 4.56 0 0 1-1.23-3.11C1.86 2.11 3.92.04 6.44.04c1.92 0 3.57 1.2 4.25 2.89.2-.02.4-.03.61-.03.35 0 .72.03 1.12.08L16.11.25c.32-.28.82-.35 1.26-.14.44.2.71.63.71 1.12v4.6c.65.67 1.19 1.43 1.61 2.26h3.04c.35 0 .69.15.92.42s.34.62.29.96ZM3.61 4.64c0 1.57 1.27 2.85 2.83 2.85s2.83-1.28 2.83-2.85S8 1.79 6.44 1.79 3.61 3.07 3.61 4.64m18.53 5.2h-3.57l-.23-.53c-.41-.94-.99-1.78-1.74-2.5l-.27-.26V2.26l-3.46 2.57-.36-.06c-.46-.07-.84-.11-1.21-.11-.09 0-.18 0-.27.01 0 .69-.17 1.35-.45 1.93.36.02.72.09 1.09.2.46.14.72.63.58 1.1-.14.46-.63.73-1.09.58-.83-.25-1.71-.17-2.47.24a3.27 3.27 0 0 0-1.58 1.93.867.867 0 0 1-1.09.58.88.88 0 0 1-.58-1.1c.1-.34.24-.66.4-.96-.46-.06-.91-.19-1.31-.38-.58 1.1-.93 2.34-.93 3.68 0 1.67.52 3.28 1.51 4.63l.32.44-1.72 3.38 2.98 1.29.7-1.37 1.01-2.05c.21-.44.74-.61 1.17-.4s.61.74.4 1.18l-.26.53c1.02.22 2.05.23 3.07.03l-.19-.38a.88.88 0 0 1 .38-1.18c.43-.22.96-.05 1.18.38l1 1.96.69 1.28 2.99-1.27-1.74-3.27.34-.45c.08-.11.14-.22.22-.33-.52-.02-1.14-.14-1.87-.45a.88.88 0 0 1-.46-1.15c.19-.45.71-.65 1.15-.46 1.28.55 1.97.23 2 .22.05-.02.1-.03.15-.04v-.02l3.06-1.21.49-3.93Z"/>
</svg>
