<svg viewBox="0 0 16 16" xmlns="http://www.w3.org/2000/svg">
  <path fill="#1e1e1c" d="M15.99 4.92c0-1.32-.51-2.55-1.44-3.48S12.39 0 11.07 0 8.52.51 7.59 1.44L4.85 4.18 1.44 7.59c-.24.24-.44.49-.63.77-.03.05-.05.1-.08.15-.14.23-.27.46-.37.71 0 .02-.01.05-.02.07-.22.56-.34 1.16-.34 1.78s.12 1.22.34 1.78c0 .02.01.05.02.07.1.25.23.48.37.71.03.05.05.1.08.15.18.27.39.53.63.77.93.93 2.17 1.44 3.48 1.44s2.55-.51 3.48-1.44l3.41-3.41 2.74-2.74c.93-.93 1.44-2.17 1.44-3.48m-2.5 2.42-2.73 2.73-4.83-4.83 2.73-2.73c.65-.65 1.5-1 2.42-1s1.77.36 2.42 1 1 1.5 1 2.42-.36 1.77-1 2.42Zm-.35-4.07c.29.29.29.77 0 1.07-.15.15-.34.22-.53.22s-.39-.07-.53-.22c-.61-.61-1.61-.61-2.22 0-.29.29-.77.29-1.07 0s-.29-.77 0-1.07c1.16-1.16 3.18-1.16 4.35 0"/>
</svg>
