<svg viewBox="0 0 32 32" xmlns="http://www.w3.org/2000/svg">
  <path fill="#1e1e1c" d="M31.98 9.63c0-2.57-1-4.99-2.82-6.81S24.92 0 22.34 0s-4.99 1-6.81 2.82L2.8 15.55c-.1.1-.18.21-.28.31-.13.14-.26.27-.38.42-.02.02-.03.04-.05.06a9.56 9.56 0 0 0-2.11 6.03c0 2.57 1 4.99 2.82 6.81C4.68 31.06 7.14 32 9.61 32s4.93-.94 6.81-2.82l6.7-6.7 6.04-6.04a9.57 9.57 0 0 0 2.82-6.81M21.7 21.07 10.91 10.28l6.04-6.04C18.39 2.8 20.31 2 22.35 2s3.95.79 5.4 2.24c1.44 1.44 2.24 3.36 2.24 5.4s-.79 3.95-2.24 5.4l-6.04 6.04Zm4.54-14.91a.996.996 0 0 1-.71 1.7c-.26 0-.51-.1-.71-.29a3.815 3.815 0 0 0-5.38 0 .996.996 0 1 1-1.41-1.41 5.806 5.806 0 0 1 8.2 0Z"/>
</svg>
