<svg viewBox="0 0 40 40" xmlns="http://www.w3.org/2000/svg">
  <path fill="#1e1e1c" d="M32.78 7.7a1.123 1.123 0 0 1-.8 1.92c-.29 0-.58-.11-.8-.33-.93-.93-2.16-1.44-3.48-1.44s-2.55.51-3.48 1.44c-.44.44-1.15.44-1.59 0s-.44-1.15 0-1.59c2.79-2.8 7.34-2.79 10.13 0ZM18.85 34.88c-3.79 3.8-9.97 3.8-13.77 0s-3.8-9.98 0-13.77l6.72-6.72 6.78 6.78v-3.18l-5.19-5.19 7.7-7.71c1.9-1.9 4.39-2.85 6.88-2.85s4.99.95 6.88 2.85 2.85 4.28 2.85 6.89c0 1.99-.59 3.88-1.69 5.49h2.61a11.9 11.9 0 0 0 1.33-5.49c0-3.2-1.25-6.21-3.51-8.48-4.67-4.67-12.28-4.67-16.95 0l-16 16.02c-2.27 2.26-3.51 5.27-3.51 8.47s1.25 6.21 3.51 8.48c2.26 2.26 5.27 3.51 8.47 3.51s6.21-1.25 8.47-3.51l.18-.18q-.675-.96-1.14-2.04l-.63.63Zm21.13-16.3v11.27c0 5.59-4.55 10.14-10.14 10.14S19.7 35.44 19.7 29.85V18.58h20.27Zm-2.25 2.25H21.96v9.02c0 4.35 3.54 7.89 7.89 7.89s7.89-3.54 7.89-7.89v-9.02ZM28.3 33.05h3V29.9h3.14v-3H31.3v-3.14h-3v3.14h-3.14v3h3.14z"/>
</svg>
