<svg viewBox="0 0 40 40" xmlns="http://www.w3.org/2000/svg">
  <path fill="#1e1e1c" d="M36.47 3.49c-4.68-4.67-12.28-4.67-16.96 0L3.48 19.52c-4.67 4.67-4.67 12.28 0 16.96 2.27 2.27 5.28 3.51 8.48 3.51s6.21-1.25 8.48-3.51l16.03-16.03c2.26-2.27 3.51-5.28 3.51-8.48s-1.25-6.21-3.51-8.48M18.85 34.88c-3.8 3.8-9.98 3.8-13.77 0-3.8-3.8-3.8-9.98 0-13.77l6.73-6.73 13.77 13.77zm16.02-16.02-7.71 7.71L13.39 12.8l7.71-7.71c3.8-3.8 9.98-3.8 13.78 0 1.84 1.84 2.85 4.29 2.85 6.89s-1.01 5.05-2.85 6.89ZM32.79 7.7a1.123 1.123 0 0 1-.8 1.92c-.29 0-.58-.11-.8-.33-.93-.93-2.16-1.44-3.48-1.44s-2.55.51-3.48 1.44c-.44.44-1.15.44-1.59 0s-.44-1.15 0-1.59c2.8-2.8 7.34-2.79 10.14 0Z"/>
</svg>
