<svg viewBox="0 0 24 24" xmlns="http://www.w3.org/2000/svg">
  <path fill="#1e1e1c" d="M19.7 4.64c.34.34.34.9 0 1.24s-.9.34-1.24 0a2.686 2.686 0 0 0-3.8 0 .87.87 0 0 1-1.24 0 .88.88 0 0 1 0-1.24 4.436 4.436 0 0 1 6.27 0Zm-8.98 5.46L8.41 7.79 12.8 3.4c1.04-1.04 2.43-1.62 3.91-1.62s2.87.58 3.91 1.62 1.62 2.43 1.62 3.91c0 .97-.27 1.9-.74 2.72h1.96a7.27 7.27 0 0 0-1.6-7.87C20.49.78 18.66.03 16.71.03s-3.77.76-5.15 2.13L7.17 6.55l-.03-.03-5.02 5.02A7.26 7.26 0 0 0 0 16.69v.06a7.273 7.273 0 0 0 11.95 5.58 7.44 7.44 0 0 1-1.22-4.08V10.1Zm1.75 1.68h11.5v6.47a5.75 5.75 0 0 1-11.5 0zm2.76 6.55h1.96v1.96h2v-1.96h1.96v-2h-1.96v-1.96h-2v1.96h-1.96z"/>
</svg>
