<svg viewBox="0 0 48 48" xmlns="http://www.w3.org/2000/svg">
  <path fill="#1e1e1c" d="M33.34 6.76c2.28 0 4.42.89 6.03 2.5.49.49.49 1.28 0 1.77-.24.24-.56.37-.88.37s-.64-.12-.88-.37a6.04 6.04 0 0 0-8.53 0c-.49.49-1.28.49-1.77 0s-.49-1.28 0-1.77a8.47 8.47 0 0 1 6.03-2.5M22.72 42.03c-4.62 4.62-12.13 4.62-16.75 0-2.24-2.24-3.47-5.21-3.47-8.38s1.23-6.14 3.47-8.38l8.18-8.18 8.08 8.08v-3.53l-6.31-6.31 9.36-9.37c2.24-2.24 5.21-3.47 8.37-3.47s6.14 1.23 8.38 3.47 3.47 5.21 3.47 8.38c0 2.35-.68 4.6-1.95 6.52h2.88c1.02-1.99 1.57-4.21 1.57-6.52 0-3.83-1.49-7.43-4.2-10.14C41.09 1.48 37.49 0 33.66 0s-7.43 1.49-10.14 4.2L4.21 23.51C1.5 26.22 0 29.82 0 33.65s1.49 7.43 4.2 10.14 6.47 4.19 10.14 4.19 7.35-1.4 10.14-4.19l.25-.25c-.5-.7-.93-1.45-1.29-2.24l-.72.72Zm.76-19.93h24.51v13.63c0 6.76-5.5 12.26-12.26 12.26s-12.25-5.5-12.25-12.26zm2.5 13.63c0 5.38 4.38 9.76 9.76 9.76s9.76-4.38 9.76-9.76V24.6H25.99v11.13Zm7.95 3.91h3.5v-3.92h3.92v-3.5h-3.92V28.3h-3.5v3.92h-3.92v3.5h3.92z"/>
</svg>
