<svg viewBox="0 0 32 32" xmlns="http://www.w3.org/2000/svg">
  <path fill="#1e1e1c" d="M22.14 4.49c1.55 0 3.01.6 4.1 1.7a.996.996 0 0 1-.71 1.7c-.26 0-.51-.1-.71-.29-1.44-1.44-3.94-1.44-5.37 0a.996.996 0 1 1-1.41-1.41c1.09-1.1 2.55-1.7 4.1-1.7m-7.12 23.3c-1.44 1.44-3.36 2.24-5.4 2.24s-3.95-.79-5.4-2.24c-2.97-2.98-2.97-7.82 0-10.79l5.27-5.27 5.25 5.25v-2.83l-3.84-3.84 6.05-6.05c1.44-1.44 3.36-2.24 5.4-2.24s3.95.79 5.4 2.24c2.6 2.6 2.93 6.63.98 9.59h2.28c1.73-3.59 1.12-8.04-1.85-11.01C27.34 1.03 24.92.03 22.35.03s-4.99 1-6.81 2.82L2.81 15.58c-3.75 3.76-3.75 9.87 0 13.62 1.82 1.82 4.24 2.82 6.81 2.82s4.99-1 6.81-2.82l.03-.03c-.4-.56-.75-1.17-1.02-1.81l-.43.43ZM32 14.86v9.02c0 4.48-3.64 8.13-8.12 8.13s-8.12-3.65-8.12-8.13v-9.02h16.25Zm-2 2H17.75v7.02c0 3.38 2.75 6.13 6.12 6.13s6.12-2.75 6.12-6.13v-7.02Zm-7.41 9.55h2.5v-2.42h2.42v-2.5h-2.42v-2.42h-2.5v2.42h-2.42v2.5h2.42z"/>
</svg>
