<svg viewBox="0 0 48 48" xmlns="http://www.w3.org/2000/svg">
  <path fill="#1e1e1c" d="M48 14.34c0-3.83-1.49-7.43-4.2-10.14-5.59-5.59-14.69-5.59-20.29 0L4.2 23.51c-5.59 5.59-5.59 14.69 0 20.29 2.71 2.71 6.31 4.2 10.14 4.2s7.43-1.49 10.14-4.2l9.95-9.95 9.37-9.37c2.71-2.71 4.2-6.31 4.2-10.14M32.67 32.08 15.91 15.33l9.37-9.37c2.31-2.31 5.34-3.46 8.38-3.46s6.07 1.16 8.38 3.46c2.24 2.24 3.47 5.21 3.47 8.38s-1.23 6.14-3.47 8.38l-9.37 9.37Zm6.7-22.82c.49.49.49 1.28 0 1.77-.24.24-.56.37-.88.37s-.64-.12-.88-.37c-2.35-2.35-6.18-2.36-8.53 0-.49.49-1.28.49-1.77 0s-.49-1.28 0-1.77c1.61-1.61 3.75-2.5 6.03-2.5s4.42.89 6.03 2.5"/>
</svg>
