<svg viewBox="0 0 24 24" xmlns="http://www.w3.org/2000/svg">
  <path fill="#1e1e1c" d="M21.87 2.13a7.28 7.28 0 0 0-10.29 0l-9.45 9.45c-2.84 2.84-2.84 7.46 0 10.3 1.42 1.42 3.28 2.13 5.15 2.13s3.73-.71 5.15-2.13l9.44-9.45C23.25 11.06 24 9.23 24 7.28s-.76-3.77-2.13-5.15m-10.69 18.5c-2.15 2.16-5.66 2.16-7.82 0a5.547 5.547 0 0 1 0-7.82l3.81-3.82 7.82 7.82-3.81 3.81Zm9.45-9.44-4.39 4.39-7.82-7.82 4.39-4.39c2.16-2.16 5.67-2.16 7.82 0 1.04 1.04 1.62 2.43 1.62 3.91s-.58 2.87-1.62 3.91m-.93-6.58a.881.881 0 0 1-.62 1.5c-.22 0-.45-.08-.62-.26-1.02-1.02-2.79-1.01-3.8 0-.34.34-.9.34-1.24 0s-.34-.9 0-1.24c.84-.84 1.95-1.3 3.14-1.3s2.3.46 3.14 1.3"/>
</svg>
