<svg viewBox="0 0 16 16" xmlns="http://www.w3.org/2000/svg">
  <path fill="#1e1e1c" d="M14.56 1.45C13.63.52 12.4 0 11.08 0S8.53.51 7.6 1.44L1.44 7.6a4.925 4.925 0 0 0 0 6.96c.93.93 2.17 1.44 3.48 1.44s2.55-.51 3.48-1.44l6.15-6.15a4.925 4.925 0 0 0 0-6.96ZM7.35 13.5c-1.29 1.29-3.54 1.29-4.84 0-.65-.65-1-1.5-1-2.42s.36-1.77 1-2.42l2.36-2.35 4.84 4.83-2.36 2.35Zm6.15-6.15-2.73 2.73-4.84-4.83 2.73-2.73c.65-.65 1.5-1 2.42-1s1.77.36 2.42 1a3.42 3.42 0 0 1 0 4.83m-.35-4.08c.29.29.29.77 0 1.07-.3.3-.77.29-1.07 0-.59-.59-1.62-.59-2.22 0-.15.15-.34.22-.53.22s-.39-.07-.53-.22a.767.767 0 0 1 0-1.07c1.16-1.16 3.19-1.16 4.35 0"/>
</svg>
