<svg viewBox="0 0 40 40" xmlns="http://www.w3.org/2000/svg">
  <path fill="#1e1e1c" d="M32.8 7.66a1.123 1.123 0 0 1-.8 1.92c-.29 0-.58-.11-.8-.33-.93-.93-2.16-1.44-3.48-1.44s-2.55.51-3.48 1.44c-.44.44-1.15.44-1.59 0s-.44-1.15 0-1.59a7.19 7.19 0 0 1 10.14 0ZM18.62 17.95l-5.21-5.21 7.7-7.7c1.9-1.9 4.39-2.85 6.89-2.85s4.99.95 6.89 2.85c3.35 3.35 3.74 8.55 1.18 12.33h2.61c2.29-4.5 1.57-10.16-2.2-13.92-2.27-2.26-5.28-3.51-8.49-3.51s-6.21 1.25-8.48 3.51L3.49 19.48q-.435.435-.81.9c-.04.05-.08.11-.12.16a16 16 0 0 0-.63.86C.67 23.33-.02 25.59-.02 27.95s.68 4.62 1.95 6.56c0 .01.02.03.03.04.19.28.39.55.6.82.04.05.08.11.12.16q.39.465.81.9.435.435.9.81c.06.05.12.09.18.14.26.2.52.4.79.58.03.02.06.03.08.05 1.93 1.25 4.17 1.93 6.52 1.93s4.6-.68 6.52-1.93c.03-.02.06-.03.08-.05.27-.18.53-.38.79-.58.06-.05.12-.09.18-.14.28-.23.55-.48.81-.73-1.1-1.79-1.74-3.89-1.74-6.13V17.96Zm21.36 1.68v10.75c0 5.28-4.28 9.56-9.56 9.56s-9.56-4.28-9.56-9.56V19.63h19.11Zm-4.68 7.71h-3.42v-3.42h-3v3.42h-3.42v3h3.42v3.42h3v-3.42h3.42z"/>
</svg>
