<svg viewBox="0 0 24 24" xmlns="http://www.w3.org/2000/svg">
  <path fill="#1e1e1c" d="M23.26 7.1 16.7.69c-.46-.45-1.09-.67-1.71-.68-.64 0-1.24.27-1.69.73l-2.75 2.82 2.19 2.13-4 4.11L2 11.23l4.78 4.66-6.79 6.89 1.25 1.23 6.79-6.89 5.07 4.94 1.27-6.77 4-4.11 2.19 2.14 2.75-2.82a2.404 2.404 0 0 0-.05-3.4M5.57 12.26l3.33-.71 3.7 3.61-.63 3.34-6.41-6.25Zm7.96 1.37-3.12-3.05 3.58-3.67 3.12 3.04-3.58 3.67Zm8.52-4.35-1.52 1.56-.93-.91-5.11-4.99-1.45-1.42 1.52-1.56c.12-.12.28-.19.46-.2.14 0 .34.06.46.19l6.57 6.41c.12.12.19.28.2.46 0 .17-.06.34-.19.46Z"/>
</svg>
