<svg viewBox="0 0 40 40" xmlns="http://www.w3.org/2000/svg">
  <path fill="#1e1e1c" d="M38.87 11.9 27.76 1.06C27.06.38 26.14 0 25.17 0h-.05c-.99.01-1.92.41-2.61 1.12l-4.4 4.51 3.7 3.61-7.11 7.29-10.84 2.31 7.86 7.67L0 38.42 1.6 40l11.75-11.92 8.35 8.15 2.04-10.9 7.11-7.29 3.7 3.61 4.4-4.51a3.72 3.72 0 0 0 1.06-2.64c-.01-.99-.41-1.92-1.12-2.61ZM20.25 31.68 8.44 20.16l6.48-1.38 3.27 3.19 3.27 3.19-1.22 6.51Zm2.42-8.49-2.9-2.83-2.9-2.83 6.56-6.73 5.8 5.66zm14.66-7.61-2.83 2.9-2.1-2.04-9.02-8.8-2.09-2.04 2.83-2.9c.27-.28.64-.44 1.03-.44.4-.01.76.14 1.04.42L37.3 13.52c.58.56.59 1.49.03 2.07Z"/>
</svg>
