<svg viewBox="0 0 64 64" xmlns="http://www.w3.org/2000/svg">
  <path fill="#1e1e1c" d="M62.3 19.14 44.31 1.59C43.25.55 41.85.04 40.36 0c-1.49.02-2.88.61-3.91 1.68l-6.81 6.98 6 5.85-11.91 12.21-16.88 3.59 12.46 12.16L-.02 62.08l1.96 1.93L21.27 44.4l13.24 12.92 3.18-16.96L49.6 28.15l6 5.85 6.81-6.98a5.5 5.5 0 0 0 1.58-3.95 5.48 5.48 0 0 0-1.68-3.91ZM32.75 51.75 12.44 31.94l11.54-2.46 5.47 5.34 5.47 5.34-2.17 11.6Zm3.63-14.01-5.01-4.89-5.01-4.89L37.6 16.44l5.01 4.89 5.01 4.89zm24.05-12.65-4.89 5.01-4.03-3.93-13.96-13.62-4.03-3.93 4.89-5.01a2.82 2.82 0 0 1 3.98-.05l17.99 17.55c.54.53.84 1.23.85 1.98 0 .75-.28 1.46-.8 2"/>
</svg>
