<svg viewBox="0 0 32 32" xmlns="http://www.w3.org/2000/svg">
  <path fill="#1e1e1c" d="M31.07 9.5 22.23.87C21.64.3 20.86 0 20.06 0c-.82 0-1.58.34-2.15.92l-3.57 3.66 2.95 2.87-5.56 5.7-8.79 1.87 6.32 6.17-9.27 9.41 1.42 1.41 9.27-9.41 6.71 6.54 1.65-8.83 5.56-5.7 2.95 2.87 3.57-3.66c.57-.59.88-1.36.87-2.17 0-.82-.34-1.58-.92-2.15M7.01 16.21l4.9-1.04 2.56 2.5 2.56 2.5-.92 4.93L7 16.21Zm11.09 2.2-2.23-2.18-2.23-2.18 5.07-5.2 4.46 4.35-5.07 5.2Zm11.59-5.98-2.18 2.23-10.35-10.1 2.18-2.23c.2-.2.46-.32.74-.32h.01c.28 0 .54.11.74.3l8.84 8.63a1.047 1.047 0 0 1 .02 1.49"/>
</svg>
