<svg viewBox="0 0 48 48" xmlns="http://www.w3.org/2000/svg">
  <path d="M26.37 29.91 28.46 32l-2.55 11.26L16 33.59 1.77 48.01l-1.78-1.76L14.2 31.83l-9.34-9.11 11.44-2.88 2.06 2.06-8.56 2.15 14.64 14.29 1.91-8.44Zm-5.83-12.9 5.81-5.97-4.46-4.35 5.22-5.36C27.93.49 29.02.02 30.18.01c1.15.02 2.27.43 3.1 1.24l13.38 13.06c.83.81 1.3 1.91 1.32 3.07.01 1.17-.43 2.27-1.24 3.1l-5.22 5.36-4.46-4.35-5.94 6.1-1.77-1.77 5.92-6.08-5.51-5.38-1.62-1.58-5.84 5.99L20.53 17Zm7.55-7.76L38.8 19.7l2.67 2.61 3.48-3.57c.35-.36.54-.83.53-1.33s-.21-.96-.56-1.31L31.54 3.04c-.36-.35-.86-.52-1.33-.53-.5 0-.96.21-1.31.56l-3.48 3.57zm19.53 36.62L2.15.38C1.66-.1.87-.1.38.38s-.48 1.28 0 1.77l45.47 45.48c.24.24.56.37.88.37s.64-.12.88-.37c.49-.49.49-1.28 0-1.77Z"/>
</svg>
