<svg viewBox="0 0 32 32" xmlns="http://www.w3.org/2000/svg">
  <path d="M31.92 6.73c.03.68 0 1.38-.11 2.1-.05.36-.12.72-.22 1.08-.19.72-.46 1.45-.85 2.17 0 0 0 .01-.02.03 0 .01 0 .02-.02.03q-.03.06-.09.15s-.01.02-.02.03c-.04.06-.08.13-.13.2-.01.02-.03.04-.04.06-.06.09-.13.19-.2.3-.01.02-.03.04-.04.06-.07.1-.14.2-.23.31-.02.03-.04.05-.06.08-.1.13-.2.26-.31.39-.02.03-.05.06-.07.09l-.32.38c-.02.02-.04.05-.06.07-.13.14-.27.29-.41.43l-.1.1c-.14.14-.29.27-.44.41-.02.01-.03.03-.05.04-.16.14-.34.28-.52.42l-.13.1c-.19.14-.38.27-.58.4 0 0-.02 0-.02.01-.19.12-.39.24-.6.35-.05.03-.1.05-.15.08q-.315.165-.66.3l-.09.03c-.21.08-.42.15-.64.21-.05.02-.11.03-.16.04q-.36.09-.75.15c-.05 0-.1.01-.15.02-.23.03-.46.04-.7.05h-.41c-.12 0-.23-.01-.35-.02-.08 0-.16-.02-.25-.03-.12-.02-.24-.03-.36-.05-.09-.02-.17-.03-.26-.05l-.36-.09c-.09-.02-.18-.05-.27-.08-.12-.04-.25-.08-.38-.13-.09-.03-.18-.06-.27-.1-.13-.05-.27-.11-.4-.17-.09-.04-.17-.08-.26-.12q-.225-.105-.45-.24c-.07-.04-.15-.08-.22-.12-.17-.1-.34-.21-.52-.32 2.46-3.79 6.36-5.27 6.44-5.3.52-.19.79-.76.6-1.28a1 1 0 0 0-1.28-.6c-.22.08-4.12 1.53-6.92 5.31-.83-2.02-1.38-5.42 2.33-8.4 0 0 .42-.39 1.74-.98 1.03-.46 2.6-1.05 4.94-1.67 0 0 1.56-.64 2.71-1.56.52-.42.96-.89 1.12-1.39 0 0 1.84 2.99 2 6.73Zm-14.84 7.28c-.43.58-.83 1.22-1.19 1.91-.77-1.75-2.19-2.63-3.63-3.24-.18.75-.48 1.39-.74 1.85 1.56.64 2.67 1.48 2.92 3.62H6.75c-.55 0-1 .45-1 1s.45 1 1 1h1.12l.27 1.84h15.08l.27-1.84h1.12c.55 0 1-.45 1-1s-.45-1-1-1h-7.53c.32-.83.71-1.59 1.15-2.27-.06-.04-.12-.07-.18-.11 0 0-.53-.68-.98-1.77ZM5.89 11.76a.996.996 0 1 1 1.41-1.41c.88.88 2.12 1.31 3.45 1.77.49.17 1 .35 1.51.56.37-1.51.26-3.44-1.64-5.2-.15-.14-.32-.27-.49-.39-.34-.23-.72-.42-1.12-.58-.79-.31-1.67-.51-2.52-.72-.21-.05-.42-.11-.63-.17-.62-.17-1.21-.38-1.73-.67-.17-.1-.34-.21-.49-.33-.61-.48-1.07-1.15-1.26-2.15.01.02-2.33 2.91-2.45 6.32 0 .28 0 .57.02.86.07.87.3 1.76.77 2.63 0 0 0 .01.02.04l.01.02c.02.03.04.07.08.13 0 0 0 .01.01.02.03.05.07.11.11.17.01.02.02.03.03.05.05.07.1.16.17.24 0 .01.02.03.03.04.06.08.12.17.19.26.02.02.03.04.05.06.08.1.16.21.25.32.02.02.04.05.06.07.08.1.17.2.27.31.02.02.03.04.05.05.11.12.22.24.34.35l.08.08q.165.165.36.33c.01.01.02.02.04.03.13.12.27.23.42.34.03.03.07.05.1.08.15.11.31.22.47.33h.02c.16.1.32.19.49.28l.12.06q.255.135.54.24c.02 0 .05.02.07.03.17.06.34.12.52.17.04.01.09.03.13.04q.3.075.6.12c.04 0 .08 0 .12.01.18.02.37.03.57.04h.13c.26 0 .52-.02.79-.06.05 0 .09-.01.14-.02.27-.05.55-.11.83-.2.05-.01.1-.03.14-.05.29-.1.59-.22.89-.36.04-.02.07-.04.11-.06.32-.16.65-.35.98-.57 0 0 .22-.28.49-.75-.44-.18-.92-.35-1.42-.52-1.48-.51-3-1.05-4.21-2.25ZM9.58 32h12.18l1.16-8H8.42z"/>
</svg>
