<svg viewBox="0 0 24 24" xmlns="http://www.w3.org/2000/svg">
  <path d="M22.46 0c-.4 1.2-2.87 2.22-2.87 2.22-4.01 1.07-5.01 1.99-5.01 1.99-2.7 2.17-2.4 4.64-1.8 6.16-.3.39-.57.83-.83 1.29-.61-1.21-1.65-1.84-2.71-2.28.24-1.11.12-2.5-1.25-3.78-1.84-1.7-5.61-.74-6.17-3.75 0 0-3.12 3.85-1.25 7.35 0 0 1.78 3.25 4.79 3.25.88 0 1.86-.28 2.94-.99 0 0 .13-.17.3-.45 1.13.47 1.93 1.08 2.12 2.6H5.21c-.48 0-.87.39-.87.88s.39.88.87.88h.76l1.25 8.64h9.14l1.25-8.64h.76c.48 0 .87-.39.87-.88s-.39-.88-.87-.88h-5.39c.23-.6.52-1.15.85-1.64 1.23.77 2.36 1.08 3.38 1.08 3.71 0 5.9-4 5.9-4C25.39 4.74 22.46 0 22.46 0M2.1 8.38c-.58-1.09-.43-2.29-.08-3.28.9.57 1.93.82 2.75 1.03.83.21 1.62.4 2.02.77.68.63.84 1.3.79 1.89-.77-.28-1.48-.59-2-1.11a.88.88 0 0 0-1.24 0c-.34.34-.34.9 0 1.24.7.7 1.56 1.11 2.4 1.43-.49.24-.96.37-1.4.37-1.92 0-3.25-2.33-3.25-2.33Zm13.53 8.36H7.92l-.2-1.37h8.1l-.2 1.37Zm-6.91 5.51-.54-3.75h7.2l-.54 3.75H8.73ZM21.55 8.2s-1.76 3.1-4.37 3.1c-.72 0-1.49-.24-2.29-.71 1.7-1.79 3.64-2.53 3.68-2.54a.88.88 0 0 0 .53-1.12.88.88 0 0 0-1.12-.53c-.13.05-2.02.75-3.85 2.47-.22-1.69 1.04-2.9 1.55-3.3v.03l.06-.08c.21-.14 1.32-.82 4.31-1.62l.11-.03.1-.04c.39-.16.98-.43 1.6-.81.42 1.44.65 3.4-.3 5.18Z"/>
</svg>
