<svg viewBox="0 0 48 48" xmlns="http://www.w3.org/2000/svg">
  <path d="M47.9 10.1c.02.51.02 1.03 0 1.55-.1 2.1-.6 4.31-1.75 6.46l-.03.06c0 .02-.01.02-.03.04-.03.06-.08.13-.14.23 0 .01-.01.02-.02.03-.05.09-.12.2-.2.31l-.06.09q-.135.21-.3.45c-.02.03-.04.06-.06.08-.1.15-.22.3-.34.47l-.09.12c-.14.19-.3.38-.46.59-.04.04-.07.09-.11.13-.15.18-.32.37-.49.56-.03.04-.06.07-.1.11-.2.21-.4.43-.62.65l-.15.15c-.21.21-.43.42-.67.62l-.06.06c-.25.22-.51.43-.78.64-.06.05-.13.1-.19.14q-.42.315-.87.6c-.01 0-.02.01-.04.02-.29.18-.59.35-.9.52-.07.04-.15.08-.22.12-.32.16-.65.32-.99.45-.05.02-.09.03-.14.05-.31.12-.63.22-.95.31-.08.02-.16.05-.24.07-.36.09-.74.17-1.12.22-.07.01-.14.01-.22.02-.34.04-.69.06-1.05.07-.05 0-.11.01-.16.01h-.11c-.11 0-.23 0-.35-.01-.18 0-.35-.02-.53-.03-.12-.01-.25-.03-.37-.04-.18-.02-.35-.05-.53-.08-.13-.02-.26-.05-.39-.08-.18-.04-.36-.08-.54-.13-.13-.04-.27-.07-.4-.11-.19-.06-.37-.12-.56-.19-.13-.05-.27-.09-.4-.15-.2-.08-.4-.17-.6-.26-.13-.06-.26-.11-.39-.18-.22-.11-.45-.23-.68-.35-.11-.06-.23-.12-.34-.18-.34-.2-.69-.41-1.04-.64l-.04-.06c3.73-5.7 9.76-7.92 9.88-7.96.65-.23.99-.94.77-1.59-.23-.65-.94-1-1.59-.77-.33.11-6.25 2.25-10.42 7.85-.19-.44-.37-.93-.52-1.46a10.7 10.7 0 0 1-.41-2.21 9.7 9.7 0 0 1 .12-2.47c.12-.64.31-1.3.59-1.96.65-1.54 1.8-3.12 3.68-4.62 0 0 .38-.35 1.48-.93.16-.08.33-.17.52-.26 1.5-.73 4.01-1.72 8.02-2.8 0 0 1.57-.65 3.08-1.64 1.18-.77 2.32-1.75 2.67-2.8 0 0 1.12 1.82 1.99 4.58.12.39.24.81.36 1.24a20.3 20.3 0 0 1 .64 4.27ZM23.83 24.17c-1.04-2.77-3.17-4.12-5.44-5.04-.23.91-.57 1.7-.9 2.33 2.41.99 4.17 2.34 4.47 5.79H9.91a1.25 1.25 0 0 0 0 2.5h1.87l.42 2.9h22.71l.42-2.9h1.87a1.25 1.25 0 0 0 0-2.5H25.25c.49-1.35 1.12-2.55 1.83-3.64-.15-.21-.79-1.11-1.37-2.47-.68.91-1.31 1.92-1.86 3.03ZM9.05 17.43c-.5-.48-.5-1.27-.02-1.77s1.27-.5 1.77-.02c1.36 1.32 3.26 1.97 5.27 2.65.77.26 1.55.53 2.33.84.08-.3.14-.61.19-.93.07-.45.1-.92.08-1.41 0-.32-.04-.65-.1-.99-.25-1.5-1-3.08-2.61-4.57-1.38-1.28-3.3-1.81-5.22-2.29-3.21-.8-6.42-1.45-7.12-5.21 0 0-.88 1.08-1.78 2.81-.23.43-.45.9-.67 1.4-.21.5-.42 1.04-.59 1.6-.3.94-.52 1.95-.61 3-.02.21-.03.42-.04.63q-.015.645.03 1.29c.02.22.04.44.07.65.06.44.16.88.28 1.32.19.66.45 1.32.8 1.98 0 0 .01.02.03.05 0 .01 0 .02.02.04.03.05.06.11.11.19 0 0 0 .02.01.02.05.07.1.16.16.26.02.02.03.05.05.07.07.11.16.23.25.37.01.02.03.04.05.06.09.12.18.25.28.39.02.03.04.06.07.09.12.15.24.31.38.48a1 1 0 0 1 .08.1c.13.15.26.31.4.46.03.03.05.06.08.08.16.17.33.35.51.53l.12.12c.17.17.35.34.54.5l.05.05c.2.18.41.35.63.52.05.04.1.08.16.12.23.17.46.33.7.49 0 0 .02 0 .02.01.24.15.48.29.73.42.06.03.12.06.18.1.26.13.53.26.81.37.04.01.07.03.11.04.25.1.51.18.78.25.07.02.13.04.2.05.3.08.6.14.91.18.06 0 .12.01.17.02.28.03.56.05.85.06h.22c.09 0 .19 0 .28-.01.14 0 .28-.01.43-.03.1 0 .2-.02.31-.04.14-.02.28-.04.43-.07l.32-.06c.15-.03.29-.07.44-.11l.33-.09c.15-.05.3-.1.46-.15l.33-.12c.16-.06.32-.14.49-.21.11-.05.21-.09.32-.14.18-.09.36-.19.55-.29.09-.05.18-.09.27-.15.28-.16.56-.33.84-.52 0 0 .44-.56.92-1.48-.7-.28-1.44-.54-2.23-.81-2.19-.74-4.45-1.51-6.21-3.23Zm5.35 30.58h18.28l1.86-12.86h-22z"/>
</svg>
