<svg viewBox="0 0 16 16" xmlns="http://www.w3.org/2000/svg">
  <path d="M15.96 3.88c-.03.7-.2 1.44-.58 2.15 0 0 0 .02-.02.04 0 0 0 .01-.01.02-.01.02-.03.06-.06.09-.01.02-.02.03-.03.05-.03.04-.06.09-.1.15-.01.02-.02.03-.03.05-.05.07-.11.15-.17.24-.01.02-.03.04-.05.06-.05.07-.11.14-.17.21-.03.03-.05.06-.08.09-.06.07-.12.14-.19.21l-.09.09c-.1.1-.2.2-.31.29-.01 0-.02.02-.03.03-.1.09-.21.17-.32.25-.04.03-.08.05-.12.08-.09.06-.18.12-.28.18-.04.03-.09.05-.13.08l-.36.18c-.03.01-.05.02-.07.03-.15.06-.31.11-.47.15l-.13.03c-.12.03-.25.04-.38.06-.06 0-.12 0-.17.01h-.14c-.07 0-.14-.01-.21-.02-.08 0-.16 0-.25-.02-.12-.02-.25-.04-.37-.07-.08-.02-.16-.03-.25-.06-.14-.04-.29-.1-.43-.16-.07-.03-.15-.05-.22-.09-.11-.05-.22-.13-.34-.19 1.31-1.82 3.49-2.54 3.52-2.55.39-.12.61-.55.49-.94s-.54-.62-.94-.49c-.13.04-2.39.77-3.98 2.7-.37-1.02-.5-2.6 1.24-4 0 0 .67-.61 3.34-1.33 0 0 1.65-.68 1.92-1.48 0 0 .37.61.66 1.53.08.26.16.55.22.86.09.46.14.97.11 1.49ZM8.47 6.8c-.18.21-.34.44-.5.69-.45-.73-1.14-1.13-1.8-1.4-.01.09-.02.18-.04.26-.13.52-.37.92-.5 1.13.74.3 1.22.66 1.34 1.59H3.63c-.41 0-.75.34-.75.75 0 .42.33.75.75.75h.39l.18 1.26h7.3l.18-1.26h.39c.41 0 .75-.34.75-.75 0-.42-.33-.75-.75-.75H8.85q.225-.54.54-.99c-.12-.07-.23-.12-.35-.2 0 0-.33-.43-.56-1.08Zm-5.7-.74c-.29-.29-.29-.77 0-1.06s.77-.29 1.06 0c.4.4 1 .61 1.63.83.22.08.46.17.71.27.02-.11.04-.22.05-.34.01-.42-.07-.88-.35-1.34-.14-.23-.32-.45-.56-.68-.46-.43-1.1-.6-1.74-.76-.11-.03-.21-.05-.32-.08-.64-.16-1.24-.34-1.64-.78q-.105-.105-.18-.24c-.11-.18-.19-.39-.23-.64 0 0-.66.81-1.01 1.94-.28.88-.37 1.94.18 2.96 0 0 .02.03.04.07 0 .02.01.02.02.04.04.06.08.13.15.22 0 0 .01.02.02.03.06.08.13.18.21.28.02.03.04.05.06.08.09.11.2.23.32.35l.06.06c.11.11.23.21.36.31.03.02.06.05.09.07q.225.165.48.3c.04.02.07.03.11.05.16.08.32.14.5.19.03 0 .06.02.1.03.2.05.4.08.62.08h.07c.06 0 .11-.01.17-.01.07 0 .13 0 .2-.02.1-.01.2-.04.3-.06.07-.02.13-.03.2-.05.11-.03.23-.08.35-.13.06-.03.12-.04.18-.07.18-.09.37-.19.56-.32 0 0 .05-.07.11-.16q-.3-.12-.66-.24c-.73-.25-1.56-.54-2.2-1.18ZM4.8 16h6.09l.39-2.67H4.42L4.81 16Z"/>
</svg>
