<svg viewBox="0 0 48 48" xmlns="http://www.w3.org/2000/svg">
  <path d="M44.91 0c-.79 2.39-5.75 4.44-5.75 4.44-8.03 2.15-10.02 3.98-10.02 3.98-5.64 4.53-4.73 9.71-3.45 12.72-.68.91-1.31 1.92-1.86 3.03-1.04-2.77-3.17-4.12-5.44-5.04.58-2.27.45-5.22-2.43-7.9-3.67-3.41-11.22-1.49-12.34-7.5 0 0-6.25 7.7-2.5 14.69 0 0 3.55 6.5 9.57 6.5 1.76 0 3.73-.55 5.88-1.99 0 0 .44-.56.92-1.48 2.41.99 4.17 2.34 4.47 5.79H9.89a1.25 1.25 0 0 0 0 2.5h1.87l2.64 18.25h18.28l2.64-18.25h1.87a1.25 1.25 0 0 0 0-2.5H25.25c.49-1.35 1.11-2.56 1.82-3.64.03.03.04.06.04.06 2.65 1.77 5.08 2.45 7.24 2.45 7.42 0 11.8-8.01 11.8-8.01C50.76 9.5 44.91 0 44.91 0M10.68 22.43c-4.43 0-7.36-5.15-7.37-5.18-1.59-2.96-.78-6.24.28-8.61 1.8 1.57 4.21 2.16 6.18 2.65 1.79.44 3.48.86 4.47 1.78 1.62 1.51 2.2 3.21 1.77 5.21-2-.68-3.88-1.32-5.23-2.63-.5-.48-1.29-.47-1.77.02-.48.5-.47 1.29.02 1.77 1.72 1.68 3.92 2.45 6.06 3.18-.11.2-.22.37-.3.49-1.43.88-2.82 1.33-4.12 1.33Zm5.88 23.08-1.5-10.36H32l-1.5 10.36H16.55Zm15.81-12.86H14.71l-.42-2.9h18.5zM43.95 16.9c-.04.07-3.79 6.71-9.61 6.71-1.75 0-3.59-.6-5.47-1.78-.06-.09-.13-.21-.21-.35 3.64-4.15 8.18-5.81 8.28-5.84.65-.23.99-.94.77-1.59-.23-.65-.94-1-1.59-.77-.28.1-4.67 1.68-8.54 5.66-.09-.3-.17-.62-.22-.95-.5-2.92.6-5.41 3.36-7.63h.01l.09-.08c.3-.22 2.51-1.7 9-3.44l.16-.04.15-.06c.77-.32 2.51-1.1 4.11-2.27 1.12 3.1 2.11 7.98-.27 12.42Z"/>
</svg>
