<svg viewBox="0 0 64 64" xmlns="http://www.w3.org/2000/svg">
  <path d="M59.89-.04c-1.06 3.19-7.66 5.91-7.66 5.91-10.7 2.86-13.36 5.31-13.36 5.31-7.67 6.15-6.25 13.21-4.5 17.18-.97 1.33-1.86 2.81-2.63 4.45-1.22-3.92-3.99-5.82-7.01-7.1.83-2.93.66-6.86-3.44-10.79-4.83-4.62-14.96-1.98-16.45-10 0 0-8.33 10.27-3.34 19.59 0 0 4.74 8.67 12.77 8.67 2.34 0 4.97-.74 7.84-2.65 0 0 .8-.86 1.58-2.28 3.22 1.36 5.56 3.25 5.92 8.02h-16.7c-.76 0-1.38.62-1.38 1.38s.62 1.38 1.38 1.38h2.69l3.6 24.94h24.37l3.6-24.94h2.69c.76 0 1.38-.62 1.38-1.38s-.62-1.38-1.38-1.38H33.28c.67-1.92 1.55-3.64 2.56-5.18.18.26.29.41.29.41 3.54 2.35 6.77 3.27 9.66 3.27 9.89 0 15.73-10.68 15.73-10.68C67.68 12.61 59.89-.04 59.89-.04M20.26 28.45c-2.07 1.32-4.09 1.99-6.01 1.99-6.26 0-10.32-7.17-10.34-7.21-2.4-4.48-.91-9.44.72-12.75 2.35 2.4 5.77 3.24 8.52 3.92 2.48.61 4.82 1.18 6.23 2.53 2.57 2.46 3.47 5.02 2.76 7.83-.27-.09-.54-.19-.81-.28-2.71-.92-5.28-1.79-7.13-3.6a1.373 1.373 0 0 0-1.92 1.96c2.3 2.24 5.29 3.25 8.17 4.23.21.07.41.14.62.21-.32.53-.62.94-.8 1.17Zm23.46 15.33H19.08l-.68-4.74h26.01l-.68 4.74ZM21.59 61.21l-2.12-14.68h23.85L41.2 61.21zm37.54-38.44c-.05.09-5.22 9.25-13.32 9.25-2.48 0-5.08-.86-7.73-2.54-.13-.19-.29-.44-.47-.74 4.99-5.96 11.47-8.31 11.56-8.34.72-.25 1.09-1.04.84-1.75a1.37 1.37 0 0 0-1.75-.84c-.39.14-6.67 2.4-11.93 8.16-1.1-3.31-1.27-8.2 4.26-12.64h.02l.09-.09c.34-.25 3.27-2.31 12.24-4.71l.17-.05.16-.07c.8-.33 3.61-1.56 5.96-3.43 1.62 4.17 3.36 11.3-.11 17.79Z"/>
</svg>
