<svg viewBox="0 0 48 48" xmlns="http://www.w3.org/2000/svg">
  <path d="M46.37 18.69a6.84 6.84 0 0 0-5.22-2.42l-7.44-.05-9.77-11.2H13.08l3.54 9.67v1.43l-4.9-.03-4.29-7.33H0l1.68 15.58a6.195 6.195 0 0 0 6.15 5.47h9.31v1.29l-3.41 11.88h10.83l8.99-13.15 7.3.17c3.5 0 6.54-2.46 7.07-5.72a6.88 6.88 0 0 0-1.54-5.59ZM16.66 7.52h6.15l7.57 8.68-11.25-.07v-1.89l-2.46-6.72Zm28.78 16.36c-.34 2.06-2.31 3.62-4.57 3.62l-8.63-.2-9.01 13.18h-6.19l2.54-8.86.05-4.31H7.82c-1.87 0-3.45-1.4-3.66-3.25l-1.38-12.8h3.21l4.28 7.32 30.87.19c1.28 0 2.49.56 3.33 1.54.84.99 1.19 2.26.98 3.57Z"/>
</svg>
