<svg viewBox="0 0 32 32" xmlns="http://www.w3.org/2000/svg">
  <path d="M30.87 12.33a4.74 4.74 0 0 0-3.61-1.67l-4.54-.02-6.5-7.46H8.66l2.43 6.64v.75l-3-.02-2.86-4.88H0l1.14 10.57a4.29 4.29 0 0 0 4.26 3.79h6.04v.67l-2.33 8.11h7.52l5.99-8.77 4.43.09c2.41 0 4.51-1.7 4.88-3.95.23-1.39-.16-2.8-1.06-3.86ZM11.52 5.18h3.79l4.74 5.44-6.96-.04V9.46l-1.57-4.29Zm18.44 10.69c-.21 1.3-1.46 2.27-2.88 2.27l-5.49-.12-6.01 8.79h-3.82l1.63-5.69.04-3.09H5.4a2.3 2.3 0 0 1-2.28-2.01l-.9-8.35h1.86l2.86 4.88 20.32.11c.81 0 1.57.35 2.09.97.53.62.75 1.42.61 2.24"/>
</svg>
