<svg viewBox="0 0 32 32" xmlns="http://www.w3.org/2000/svg">
  <path d="M29.92 0c-.53 1.6-3.83 2.96-3.83 2.96-5.35 1.43-6.68 2.66-6.68 2.66-3.71 2.98-3.17 6.38-2.33 8.4-.43.58-.83 1.22-1.19 1.91-.77-1.75-2.18-2.63-3.63-3.24.37-1.51.26-3.44-1.64-5.2-2.45-2.27-7.48-.99-8.23-5 0 0-4.16 5.13-1.67 9.79 0 0 2.37 4.33 6.38 4.33 1.17 0 2.48-.37 3.92-1.32 0 0 .22-.28.49-.75 1.56.64 2.66 1.49 2.91 3.62H6.74c-.55 0-1 .45-1 1s.45 1 1 1h1.12L9.57 32h12.18l1.71-11.84h1.12c.55 0 1-.45 1-1s-.45-1-1-1h-7.54c.32-.84.72-1.59 1.16-2.27 1.7 1.09 3.26 1.52 4.65 1.52 4.95 0 7.87-5.34 7.87-5.34 3.1-5.74-.8-12.07-.8-12.07M2.49 11.34c-.91-1.7-.56-3.59.03-5.05 1.23.9 2.73 1.27 3.9 1.56 1.15.28 2.24.55 2.83 1.11 1.1 1.02 1.27 2.12 1.12 3.04-1.18-.42-2.28-.85-3.07-1.64a.996.996 0 1 0-1.41 1.41c1.06 1.06 2.38 1.6 3.69 2.07-.86.52-1.7.78-2.47.78-2.76 0-4.61-3.27-4.62-3.28m18.97 8.82-.26 1.83H10.17l-.26-1.83h11.56ZM11.32 30l-.87-6h10.46l-.87 6zM29 11.1s-2.44 4.31-6.11 4.31c-1.09 0-2.24-.37-3.42-1.11v-.01c2.35-2.62 5.15-3.68 5.22-3.71.52-.19.79-.76.6-1.28a1 1 0 0 0-1.28-.6c-.18.07-2.9 1.08-5.42 3.58-.33-1.45-.11-3.34 2.08-5.1v.02l.08-.08c.24-.17 1.72-1.11 5.87-2.22l.13-.03.12-.05c.47-.19 1.45-.63 2.44-1.3.66 2.01 1.13 4.93-.3 7.59Z"/>
</svg>
