<svg viewBox="0 0 40 40" xmlns="http://www.w3.org/2000/svg">
  <path d="M38.62 15.52a5.8 5.8 0 0 0-4.42-2.04l-5.99-.04-8.14-9.34h-9.21l2.98 8.15v1.09l-3.95-.02-3.58-6.1H0l1.41 13.07a5.244 5.244 0 0 0 5.21 4.63h7.67v.98l-2.87 9.99h9.18l7.49-10.96 5.87.14c2.96 0 5.52-2.08 5.97-4.83.28-1.7-.2-3.42-1.3-4.72ZM14.09 6.35h4.97l6.16 7.07-9.11-.06v-1.51zM37.7 19.88c-.27 1.68-1.89 2.95-3.73 2.95l-7.06-.17-7.51 10.99h-5l2.09-7.27.04-3.7H6.61c-1.52 0-2.79-1.14-2.97-2.63L2.5 9.48h2.53l3.57 6.1 25.59.16c1.04 0 2.03.46 2.71 1.25.69.81.97 1.84.79 2.9Z"/>
</svg>
