<svg viewBox="0 0 24 24" xmlns="http://www.w3.org/2000/svg">
  <path d="m9.05 13.69 1.19 1.16-1.43 1.47-1.19-1.16zm14.96-5.35c.01.76-.3 1.23-.56 1.49l-.12.12c-.17.16-.36.28-.57.37l-7.99 4.81-7.94 8.12c-.48.49-1.12.74-1.77.74s-1.24-.23-1.72-.7L.76 20.77c-.97-.95-.99-2.51-.04-3.48l7.9-8.08 4.33-7.77.03.03c.11-.36.29-.63.46-.79l.11-.11c1.48-1.45 4.73.1 7.19 2.38 2 1.85 3.26 3.92 3.28 5.4Zm-9.38-6.21c.01.82.95 2.5 2.72 4.14 2.43 2.25 4.48 2.68 4.75 2.43l.11-.11s.05-.08.05-.22c-.01-.82-.95-2.5-2.72-4.14-2.03-1.88-3.8-2.5-4.48-2.5-.14 0-.23.02-.28.07l-.11.11s-.05.08-.05.22Zm-1.15 11.82-.71-.69-2.9-2.81-7.9 8.07c-.18.18-.2.4-.2.51s.03.32.21.5l2.58 2.52c.18.18.39.2.5.2s.33-.03.51-.21zm1.5-.99 4.86-2.92c-1.23-.52-2.54-1.42-3.68-2.48-1.17-1.08-2.07-2.23-2.63-3.3l-.09-.08-2.62 4.71L14.01 12l.99.96Z"/>
</svg>
