<svg viewBox="0 0 64 64" xmlns="http://www.w3.org/2000/svg">
  <path d="m24.72 35.85 3.24 3.17-3.91 4.01-3.24-3.17zm38.12-9.64-.09.05-.29.29c-.59.58-1.32.93-2.15 1.12L41.67 38.43 18.66 62.02c-1.32 1.35-3.07 2.03-4.82 2.03s-3.39-.64-4.7-1.92l-7.05-6.89c-2.66-2.6-2.71-6.87-.11-9.54l23.06-23.65 9.87-18.86c.21-.58.53-1.1.96-1.52l.32-.33c3.65-3.59 12.46.84 18.91 6.83 5.39 5.01 8.92 10.74 8.97 14.6.02 1.4-.41 2.58-1.25 3.41l.02.02ZM37.36 5.07c.04 2.49 2.58 7.5 8.09 12.62 7.03 6.53 13.51 8.42 15.07 6.91l.33-.33c.32-.32.47-.8.46-1.44-.04-2.49-2.58-7.5-8.09-12.62-5.53-5.14-10.71-7.4-13.44-7.4-.75 0-1.31.17-1.64.5l-.32.33c-.32.32-.47.8-.46 1.45Zm2.34 31.44L26.95 24.04l-23 23.6c-1.53 1.57-1.5 4.1.07 5.64l7.05 6.89c.75.73 1.74 1.13 2.78 1.13s2.09-.43 2.85-1.2l23.01-23.6ZM42.11 35l13.43-7.76c-3.82-1.2-8.28-4.11-11.96-7.54-4.02-3.73-7-7.87-8.28-11.33l-6.88 13.15L42.1 34.99Z"/>
</svg>
