<svg viewBox="0 0 32 32" xmlns="http://www.w3.org/2000/svg">
  <path d="M11.32 12.36.99 22.92c-.48.49-.78 1.1-.89 1.73-.19 1.05.13 2.18.95 2.98l3.49 3.4c.16.16.34.3.52.42.06.04.13.06.19.1.13.07.25.15.39.2.08.03.16.05.24.07.12.04.25.08.37.11.09.02.18.02.27.03.12.01.23.03.35.03h.02c.12 0 .24-.02.36-.04.09-.01.19-.01.28-.03.12-.02.24-.07.37-.11.09-.03.17-.04.26-.08.13-.05.25-.13.37-.2.07-.04.14-.07.21-.11.18-.12.34-.26.5-.42 0 0 .02-.01.02-.02l10.19-10.42-8.12-8.19Zm-1.01 7.67 1.94-1.98 1.6 1.56-1.94 1.98zM27.64 3.94C24.36.9 20.03-1.2 18.11.69l-.15.15c-.17.17-.36.41-.5.74l-4.95 9.13 8.5 8.58 9.49-5.65c.15-.07.28-.15.41-.25l.18-.11-.02-.02a.6.6 0 0 0 .09-.07l.16-.17c.33-.32.72-.91.71-1.89-.03-1.96-1.72-4.73-4.4-7.22Zm2.27 7.7-.15.15c-.56.52-3.52-.33-6.74-3.31-2.56-2.37-3.75-4.66-3.76-5.78 0-.12 0-.33.12-.45l.15-.15c.1-.1.28-.15.53-.15 1.11 0 3.58 1.01 6.21 3.45 2.56 2.37 3.75 4.66 3.76 5.78 0 .12 0 .33-.12.45Z"/>
</svg>
