<svg viewBox="0 0 64 64" xmlns="http://www.w3.org/2000/svg">
  <path d="M1.98 45.71c-.16.17-.31.34-.46.52a6.75 6.75 0 0 0-1.44 3.63c-.16 1.94.51 3.93 2.01 5.39l7.05 6.89q.255.24.51.45c.06.04.11.08.17.12.12.09.25.19.37.27.07.05.15.08.22.13.12.07.23.14.35.2.08.04.17.08.25.11.11.05.23.11.35.16l.27.09c.12.04.23.08.35.12.09.03.19.04.28.07.12.03.23.06.35.08.1.02.19.03.29.04.12.02.23.04.35.05.1 0 .2 0 .3.01.1 0 .2.01.3.01h.04c.12 0 .23-.01.35-.02.1 0 .2 0 .31-.02.12-.01.23-.03.35-.05.1-.02.2-.03.3-.05.12-.02.23-.06.35-.09.1-.02.19-.05.29-.07.12-.04.23-.08.35-.12.09-.03.18-.06.27-.1.12-.05.23-.11.35-.17.08-.04.17-.08.25-.12.12-.06.23-.14.35-.21.08-.05.15-.09.23-.14.12-.08.24-.18.36-.27.06-.05.12-.09.18-.14.18-.15.35-.3.51-.47L40.74 39.4 24.11 23.02zm25.98-6.69-3.91 4.01-3.24-3.17 3.91-4.01zm34.85-12.83c.83-.83 1.27-2.01 1.25-3.41-.06-3.86-3.58-9.59-8.97-14.6-6.45-5.99-15.26-10.42-18.91-6.83l-.32.33c-.43.42-.75.93-.96 1.52l-9.2 17.59 17.2 16.94 17.4-10.05c.83-.19 1.57-.54 2.15-1.12l.29-.29.09-.05-.02-.02ZM37.82 3.62l.32-.33c.33-.33.9-.5 1.64-.5 2.73 0 7.91 2.27 13.44 7.4 5.51 5.12 8.06 10.13 8.09 12.62 0 .65-.14 1.13-.46 1.44l-.33.33c-1.57 1.51-8.04-.38-15.07-6.91-5.51-5.12-8.06-10.13-8.09-12.62 0-.65.14-1.13.46-1.45Z"/>
</svg>
