<svg viewBox="0 0 32 32" xmlns="http://www.w3.org/2000/svg">
  <path d="M25.94 27.32a11.3 11.3 0 0 0 1.24-1.81c.05-.09.1-.19.15-.28.13-.24.25-.49.36-.74.04-.1.09-.2.13-.3.29-.68.51-1.4.67-2.13.02-.11.04-.22.06-.32.05-.28.1-.56.13-.84.01-.11.03-.22.04-.33.04-.38.06-.77.06-1.16 0-.36-.02-.71-.04-1.05-.03-.31-.07-.62-.12-.92 0-.03 0-.06-.01-.1-.08-.48-.19-.94-.33-1.39l-.06-.18c-1.15-3.75-4.03-6.77-7.73-8.14V4.96l1.03-1.78V0H10.45v3.15l1.03 1.78V7.6c-4.52 1.68-7.83 5.8-8.24 10.74-.03.3-.03.6-.04.9v.15C3.2 26.35 8.93 32 15.99 32c.44 0 .88-.02 1.31-.07.86-.09 1.69-.26 2.5-.5.4-.12.79-.26 1.18-.42a13.3 13.3 0 0 0 2-1.06l.27-.18c.61-.41 1.18-.88 1.7-1.39.08-.07.15-.15.23-.23.19-.19.37-.39.55-.6l.21-.24ZM12.47 2h7.07v.62l-.61 1.05h-5.85l-.61-1.05zm-.9 7.74c.13.89.5 1.84 1.53 2.32.5.23 1.09.02 1.33-.48.23-.5.02-1.1-.48-1.33-.27-.13-.46-.49-.46-1.83V5.67h5.01v2.75c0 1.26-.05 1.7-.34 1.83a1 1 0 0 0 .82 1.82c1.04-.47 1.36-1.36 1.46-2.32 1.79.8 3.31 2.06 4.42 3.63-.84.79-1.77 1.49-2.8 2.04.51.91.78 1.94.78 3.03 0 1.98-.9 3.87-2.43 5.15v.5c0 1.47-1.21 2.67-2.69 2.67h-3.14c-1.48 0-2.69-1.2-2.69-2.67v-.24c-1.6-1.18-2.62-3-2.75-4.96-.08-1.23.2-2.42.81-3.46-1.05-.56-1.99-1.26-2.84-2.07a10.74 10.74 0 0 1 4.44-3.64Zm1.34 13.6v.77c0 .92.76 1.67 1.69 1.67h3.14c.93 0 1.69-.75 1.69-1.67v-.99c1.47-1.05 2.43-2.74 2.43-4.66 0-3.22-2.67-5.37-5.95-5.33-3.24.04-5.97 2.53-5.75 5.72.13 1.9 1.2 3.54 2.76 4.5Zm3.95-6.01c.73-.72 1.92-.72 2.66 0 .73.72.73 1.89 0 2.62-.73.72-1.48.29-2.21-.44-.73-.72-1.18-1.46-.44-2.18ZM16 20.17c.54 0 .98.43.98.96v.88c0 .53-.44.96-.98.96s-.98-.43-.98-.96v-.88c0-.53.44-.96.98-.96m-3.52-2.93c.73-.72 1.92-.72 2.66 0 .73.72.29 1.46-.44 2.18s-1.48 1.16-2.21.44-.73-1.89 0-2.62Z"/>
</svg>
