<svg viewBox="0 0 64 64" xmlns="http://www.w3.org/2000/svg">
  <path d="M57.49 36.67c-.06-.67-.14-1.33-.25-1.98v-.05c-1.54-9.18-8.13-16.67-16.85-19.66V9.06l2.06-3.56V-.01H21.56V5.5l2.06 3.56v5.92c-9.36 3.2-16.26 11.59-17.11 21.69-.05.55-.06 1.11-.07 1.68 0 .14-.02.28-.02.43C6.42 52.7 17.87 63.99 32 63.99S57.58 52.7 57.58 38.78c0-.71-.03-1.41-.09-2.11M9.17 38.78v-.02c0-.55.03-1.1.07-1.64.01-.17.03-.34.05-.51q.06-.585.15-1.17c.03-.17.05-.35.08-.52.08-.46.18-.92.29-1.37.04-.18.09-.36.14-.54.1-.37.21-.75.33-1.11.08-.26.18-.51.27-.76.08-.22.16-.43.25-.64.12-.3.25-.6.38-.89.05-.1.1-.21.15-.31.16-.34.32-.67.5-1 2.55 2.58 5.55 4.6 8.82 6.01-.29 1.06-.41 2.19-.33 3.37.26 3.81 2.41 7.09 5.51 9v1.53c0 1.84 1.51 3.33 3.38 3.33h6.28c1.87 0 3.38-1.49 3.38-3.33v-1.98c2.93-2.1 4.86-5.48 4.86-9.32 0-.92-.12-1.79-.32-2.61 3.26-1.41 6.24-3.43 8.78-6 .17.32.33.65.49.97.06.12.11.23.17.35.13.29.25.58.37.87.09.22.18.45.26.67.09.24.18.49.26.74.13.39.24.78.35 1.18l.12.44c.11.47.21.94.3 1.42.03.16.05.33.08.5q.09.6.15 1.2c.02.16.03.32.04.48.04.55.07 1.11.07 1.67 0 12.38-10.24 22.46-22.83 22.46S9.19 51.17 9.19 38.79Zm24.78 3.47v1.77c0 1.06-.87 1.92-1.95 1.92s-1.95-.86-1.95-1.92v-1.77c0-1.06.87-1.92 1.95-1.92s1.95.86 1.95 1.92m-.22-7.6a3.785 3.785 0 0 1 5.31 0 3.65 3.65 0 0 1 0 5.23c-1.47 1.45-2.96.57-4.43-.87-1.47-1.45-2.35-2.92-.89-4.36Zm-4.34 4.19c-1.47 1.45-2.96 2.32-4.43.87a3.65 3.65 0 0 1 0-5.23c1.47-1.45 3.84-1.45 5.31 0s.58 2.92-.89 4.36Zm-5.08-36.1H39.7v2.02l-1.48 2.55H25.79l-1.48-2.55zm-.67 15.16c.09 2.29.56 4.59 2.83 5.66a1.374 1.374 0 1 0 1.17-2.49c-.94-.44-1.27-1.55-1.27-4.24v-6.77h11.27v6.77c0 2.72-.09 3.79-1.05 4.23-.69.31-1 1.13-.68 1.82.23.51.73.81 1.25.81q.285 0 .57-.12c2.31-1.05 2.61-3.31 2.65-5.66a22.77 22.77 0 0 1 10.28 7.98 25.7 25.7 0 0 1-8.3 5.84c-1.99-3.45-5.97-5.53-10.55-5.47-4.26.05-8.07 2.23-10.06 5.52-3.2-1.39-6.06-3.4-8.41-5.89 2.55-3.56 6.12-6.36 10.3-7.98Z"/>
</svg>
