<svg viewBox="0 0 16 16" xmlns="http://www.w3.org/2000/svg">
  <path d="M14.21 9.79v-.07c0-.32-.03-.64-.08-.95v-.02a6.22 6.22 0 0 0-3.42-4.54V2.74l.5-.88V0H4.82v1.88l.5.88v1.47c-2.08 1-3.51 3.12-3.51 5.57 0 3.43 2.78 6.2 6.21 6.2 1.06 0 2.06-.27 2.94-.74h.02a6.21 6.21 0 0 0 3.25-5.45Zm-10.92 0c0-.23.02-.45.05-.66.01-.07.03-.15.04-.22.02-.1.04-.19.07-.29.53.39 1.11.69 1.72.92 0 .1-.02.2-.01.31.06.94.58 1.74 1.34 2.21v.38c0 .45.37.82.82.82h1.52c.45 0 .82-.37.82-.82v-.49a2.84 2.84 0 0 0 1.18-2.29c0-.04-.01-.08-.01-.12.61-.24 1.19-.53 1.71-.92.03.1.05.19.07.29.01.07.03.15.04.22.03.22.05.44.05.67 0 2.59-2.11 4.7-4.71 4.7s-4.71-2.11-4.71-4.7Zm5.18 1.18v.43a.47.47 0 1 1-.94 0v-.43a.47.47 0 1 1 .94 0M8.42 9.1c.36-.36.93-.36 1.29 0s.36.93 0 1.29-.72.14-1.07-.21-.57-.72-.21-1.07Zm-1.05 1.03c-.36.36-.72.57-1.07.21s-.36-.93 0-1.29.93-.36 1.29 0 .14.72-.21 1.07Zm-1.8-4.35c.14.25.34.48.66.64.11.05.22.07.33.07.28 0 .55-.16.68-.42.18-.37.02-.82-.35-1-.02-.03-.08-.16-.08-.68V2.35l-.49-.85h3.36l-.49.85v2.04c0 .26 0 .61-.01.67-.38.17-.54.62-.37.99.17.38.62.54 1 .37.33-.15.53-.37.66-.62.57.35 1.06.82 1.44 1.38-.47.38-1 .7-1.57.93-.52-.69-1.39-1.09-2.38-1.08-.91.01-1.73.44-2.25 1.09a6 6 0 0 1-1.61-.95c.38-.57.89-1.05 1.48-1.4Z"/>
</svg>
