<svg viewBox="0 0 40 40" xmlns="http://www.w3.org/2000/svg">
  <path d="M31.41 35.28c.29-.29.56-.59.83-.9.05-.06.1-.11.14-.16.28-.34.55-.7.8-1.06.05-.08.11-.16.16-.24q.765-1.14 1.32-2.4c.04-.09.08-.17.11-.26.17-.41.33-.84.47-1.27l.06-.21c.12-.4.23-.81.32-1.22.02-.07.03-.14.05-.22.09-.45.16-.91.21-1.37l.03-.3c.04-.48.07-.96.07-1.44 0-.42-.02-.84-.05-1.25-.09-1.12-.31-2.2-.62-3.24a.6.6 0 0 0-.04-.12c-1.46-4.72-5.11-8.49-9.78-10.18V6l1.29-2.23V0H13.19v3.78l1.29 2.23v3.44c-3.92 1.42-7.12 4.31-8.91 7.99 0 .02-.02.03-.02.05-.47.98-.85 2.01-1.11 3.09-.07.29-.13.57-.19.87a19 19 0 0 0-.17 1.23c-.01.13-.03.25-.04.38-.03.39-.05.78-.05 1.18 0 .49.03.97.07 1.45.01.14.03.28.05.43.04.35.1.7.16 1.04.03.14.05.28.08.41.1.46.21.91.35 1.35v.02q.21.66.48 1.29c.05.13.11.25.17.38.14.31.29.61.45.91.06.12.13.24.19.36.22.4.46.78.71 1.16 0 0 0 .01.01.02.25.37.53.73.82 1.08a14 14 0 0 0 1.09 1.2c.05.05.11.1.16.16q.435.42.9.81l.18.15c.34.28.7.54 1.07.79.08.06.17.11.25.16.38.25.77.49 1.17.7.4.22.82.41 1.24.59a14 14 0 0 0 1.56.58l.22.06c.4.12.81.22 1.22.31.08.02.15.04.23.05q.675.135 1.38.21l.31.03c.48.04.97.07 1.46.07a16.2 16.2 0 0 0 7.62-1.9c.45-.24.89-.51 1.32-.79.38-.25.74-.53 1.1-.81.08-.06.15-.12.22-.18.34-.28.67-.58.99-.89.05-.05.1-.1.15-.16ZM15.46 2.25h9.09v.93l-.81 1.4h-7.46l-.81-1.4v-.93Zm-.91 9.6c.12 1.16.52 2.47 1.87 3.11.57.27 1.23.02 1.5-.54.26-.56.02-1.23-.54-1.5-.4-.19-.64-.65-.64-2.41V6.83h6.51v3.68c0 1.66-.07 2.21-.5 2.4-.57.26-.82.92-.56 1.49a1.123 1.123 0 0 0 1.49.56c1.36-.62 1.7-1.8 1.79-3.1 2.35 1.01 4.35 2.64 5.8 4.69-.74.73-1.54 1.41-2.42 1.99q-.375.255-.78.48c-.19.11-.4.2-.6.3.63 1.11.96 2.38.96 3.74 0 2.46-1.13 4.8-3.04 6.38v.69c0 1.77-1.45 3.21-3.24 3.21h-3.92c-1.79 0-3.24-1.44-3.24-3.21v-.36c-2-1.45-3.28-3.71-3.44-6.15-.1-1.51.25-2.98 1-4.27-.22-.11-.45-.22-.66-.34q-.39-.225-.78-.48c-.88-.58-1.68-1.25-2.42-1.99 1.46-2.05 3.47-3.7 5.83-4.7Zm1.59 17.33v.96c0 1.15.95 2.08 2.11 2.08h3.92c1.17 0 2.11-.93 2.11-2.08V28.9c1.83-1.31 3.04-3.43 3.04-5.83 0-4.03-3.34-6.72-7.44-6.67-4.05.05-7.46 3.16-7.19 7.15.16 2.38 1.5 4.43 3.44 5.63Zm4.94-7.52c.92-.9 2.4-.9 3.32 0s.92 2.37 0 3.27-1.85.36-2.77-.55c-.92-.9-1.47-1.82-.55-2.73ZM20 25.21c.67 0 1.22.54 1.22 1.2v1.1c0 .66-.55 1.2-1.22 1.2s-1.22-.54-1.22-1.2v-1.1c0-.66.55-1.2 1.22-1.2m-4.4-3.66c.92-.9 2.4-.9 3.32 0s.36 1.82-.55 2.73c-.92.9-1.85 1.45-2.77.55s-.92-2.37 0-3.27Z"/>
</svg>
