<svg viewBox="0 0 48 48" xmlns="http://www.w3.org/2000/svg">
  <path d="M41.01 37.83q.285-.54.54-1.11c.07-.15.13-.29.2-.44.43-1.03.77-2.09 1.01-3.2l.09-.48c.08-.42.14-.84.2-1.26l.06-.5c.05-.58.09-1.16.09-1.75 0-.5-.02-1-.06-1.49-.01-.18-.04-.36-.06-.54-.03-.3-.07-.6-.11-.9-.04-.23-.08-.47-.13-.7s-.09-.45-.15-.68c-.06-.27-.13-.54-.21-.8a25 25 0 0 0-.46-1.41l-.09-.21c-1.99-5.12-6.16-9.17-11.41-11.04V7.09l1.55-2.67V0H15.95v4.41l1.55 2.67v4.23c-6.91 2.46-11.99 8.7-12.61 16.19-.04.43-.05.87-.06 1.31 0 .09-.01.18-.01.27C4.82 39.53 13.41 48 24.01 48c.59 0 1.18-.04 1.76-.09l.37-.03c.56-.06 1.12-.14 1.66-.25l.27-.06c.5-.11.99-.23 1.47-.37.09-.03.17-.05.26-.07.52-.16 1.04-.35 1.54-.56.11-.04.22-.09.32-.14.51-.22 1.01-.45 1.5-.71a19 19 0 0 0 5.66-4.6c.39-.47.76-.95 1.1-1.46.31-.45.59-.92.87-1.4.08-.14.15-.28.23-.43ZM18.45 2.51h11.11v1.24l-1.02 1.76h-9.07l-1.02-1.76zm-.91 11.46c.13 1.6.59 3.13 2.21 3.9.62.29 1.37.03 1.66-.6.29-.62.03-1.37-.6-1.66-.51-.24-.83-.82-.83-2.98V8.01h8.01v4.62c0 2.07-.09 2.71-.66 2.97a1.251 1.251 0 0 0 .52 2.39c.17 0 .35-.04.52-.11 1.67-.76 2.02-2.26 2.1-3.89 2.92 1.21 5.41 3.23 7.2 5.75-1.39 1.4-2.99 2.61-4.77 3.53.74 1.32 1.13 2.81 1.13 4.42 0 2.93-1.35 5.73-3.64 7.61v.87c0 2.07-1.7 3.75-3.79 3.75h-4.71c-2.09 0-3.79-1.68-3.79-3.75v-.48c-2.4-1.72-3.93-4.42-4.13-7.34-.12-1.79.3-3.53 1.18-5.05-1.81-.93-3.43-2.15-4.85-3.58 1.8-2.53 4.3-4.55 7.22-5.76Zm1.82 21.05v1.15c0 1.38 1.14 2.5 2.54 2.5h4.71c1.4 0 2.54-1.12 2.54-2.5v-1.49c2.2-1.57 3.64-4.11 3.64-7 0-4.83-4.01-8.06-8.93-8-4.87.06-8.95 3.8-8.63 8.58.19 2.86 1.8 5.32 4.13 6.75Zm5.93-9.03a2.85 2.85 0 0 1 3.98 0c1.1 1.08 1.1 2.84 0 3.93-1.1 1.08-2.22.43-3.32-.65s-1.76-2.19-.66-3.27ZM24 30.25c.81 0 1.46.65 1.46 1.44v1.33c0 .8-.66 1.44-1.46 1.44s-1.46-.65-1.46-1.44v-1.33c0-.8.66-1.44 1.46-1.44m-5.28-4.39a2.85 2.85 0 0 1 3.98 0c1.1 1.08.44 2.19-.66 3.27s-2.22 1.74-3.32.65-1.1-2.84 0-3.93Z"/>
</svg>
