<svg viewBox="0 0 16 16" xmlns="http://www.w3.org/2000/svg">
  <path d="M14.2 9.72c0-.32-.03-.64-.08-.95v-.02a6.22 6.22 0 0 0-3.42-4.54V2.74l.5-.88V0H4.81v1.88l.5.88v1.47C3.23 5.23 1.8 7.34 1.8 9.8c0 .86.17 1.67.49 2.41q.24.555.57 1.05.165.24.36.48A6.2 6.2 0 0 0 8.01 16c3.43 0 6.21-2.78 6.21-6.2v-.07ZM5.57 5.78c.14.25.34.49.66.64.11.05.22.07.33.07.28 0 .55-.16.68-.42.18-.37.02-.82-.35-1-.02-.03-.08-.16-.08-.68V2.35l-.49-.85h3.36l-.49.85v2.04c0 .26 0 .61-.01.67-.38.17-.54.62-.37.99.17.38.62.54 1 .37.33-.15.53-.37.66-.62.57.35 1.06.82 1.43 1.37-.28.22-.56.44-.87.62.37.54.56 1.18.56 1.86 0 1.01-.43 1.97-1.18 2.65v.13c0 .87-.7 1.57-1.57 1.57H7.32c-.86 0-1.57-.7-1.57-1.56a3.56 3.56 0 0 1-1.33-2.55c-.05-.75.17-1.47.59-2.08-.33-.18-.63-.39-.92-.63.38-.57.89-1.05 1.48-1.41Zm.93 6.28v.38c0 .45.37.82.82.82h1.52c.45 0 .82-.37.82-.82v-.49a2.84 2.84 0 0 0 1.18-2.29c0-1.58-1.3-2.64-2.89-2.62-1.57.02-2.9 1.24-2.79 2.81.06.94.58 1.74 1.34 2.21M8.42 9.1c.36-.36.93-.36 1.29 0s.36.93 0 1.29-.72.14-1.07-.21-.57-.72-.21-1.07ZM8 10.5c.26 0 .47.21.47.47v.43a.47.47 0 1 1-.94 0v-.43c0-.26.21-.47.47-.47M6.29 9.06c.36-.36.93-.36 1.29 0s.14.72-.21 1.07-.72.57-1.07.21-.36-.93 0-1.29Z"/>
</svg>
