<svg viewBox="0 0 24 24" xmlns="http://www.w3.org/2000/svg">
  <path d="M21.59 14.52c0-.24-.01-.48-.03-.71v-.03c-.3-3.49-2.55-6.43-5.68-7.79V3.82l.77-1.33V0h-9.3v2.49l.77 1.33v2.17c-3.36 1.46-5.71 4.76-5.71 8.6C2.41 19.79 6.7 24 12 24s9.59-4.21 9.59-9.41zm-4.07 5.53A7.9 7.9 0 0 1 12 22.28c-4.32 0-7.84-3.45-7.84-7.69 0-.36.03-.72.08-1.07 0-.06.02-.13.03-.19.06-.33.13-.65.23-.96.02-.08.05-.15.08-.23.03-.09.08-.18.11-.27.89.74 1.89 1.33 2.95 1.77-.01.18-.04.36-.02.55.1 1.42.9 2.65 2.07 3.36v.57c0 .69.57 1.24 1.27 1.24h2.35c.7 0 1.27-.56 1.27-1.24v-.74c1.1-.78 1.82-2.05 1.82-3.48 0-.09-.02-.17-.03-.26 1.06-.44 2.06-1.02 2.95-1.76.04.09.08.18.11.28.03.08.05.15.08.23.1.31.17.63.23.96l.03.19c.05.35.08.7.08 1.07 0 2.12-.88 4.04-2.3 5.44 0 0-.02.02-.03.02Zm-4.79-4.16v.66c0 .4-.33.72-.73.72s-.73-.32-.73-.72v-.66c0-.4.33-.72.73-.72s.73.32.73.72m-.08-2.84c.55-.54 1.44-.54 1.99 0s.55 1.41 0 1.95-1.11.21-1.66-.33-.88-1.09-.33-1.63Zm-1.63 1.56c-.55.54-1.11.87-1.66.33s-.55-1.41 0-1.95 1.44-.54 1.99 0 .22 1.09-.33 1.63ZM9.1 1.72h5.8v.32l-.41.7H9.5l-.41-.7v-.32Zm-.83 6.12c.16.54.47 1.07 1.12 1.37.44.21.96.02 1.17-.4.21-.43.02-.94-.41-1.14-.19-.09-.27-.47-.27-1.27V4.46h4.26V6.4c0 .71-.01 1.19-.19 1.27-.44.2-.63.71-.43 1.14.15.31.46.5.8.5.12 0 .25-.02.37-.08.66-.3.95-.8 1.09-1.36 1.09.59 2.02 1.4 2.72 2.4-.77.7-1.65 1.26-2.62 1.69-.75-1.28-2.22-2.06-3.93-2.04-1.59.02-3.01.83-3.75 2.05-.98-.42-1.87-1-2.65-1.7.7-1.01 1.65-1.83 2.75-2.42Z"/>
</svg>
