<svg viewBox="0 0 24 24" xmlns="http://www.w3.org/2000/svg">
  <path d="M21.41 14.52c0-.24-.01-.48-.03-.71v-.03c-.3-3.49-2.5-6.43-5.57-7.79V3.82l.76-1.33V0H7.44v2.49l.76 1.33v2.17a9.48 9.48 0 0 0-4.69 4.55v.01c-.13.27-.24.54-.34.82 0 .02-.01.03-.02.05-.22.61-.37 1.24-.46 1.9l-.03.22c-.04.35-.07.69-.07 1.05 0 2.38.89 4.55 2.35 6.21.07.07.13.15.2.22a8.8 8.8 0 0 0 1.56 1.34l.24.15c.16.1.32.2.49.3l.3.15c.16.08.32.16.48.23.11.05.22.09.32.13.16.06.33.12.49.18.11.04.22.07.34.11.17.05.35.09.52.13.11.03.22.05.33.07.19.04.39.06.59.09.1.01.2.03.29.04.3.03.6.05.91.05s.61-.02.91-.05c.1 0 .19-.03.29-.04.2-.03.4-.05.59-.09.11-.02.22-.05.33-.07.18-.04.35-.08.53-.14.11-.03.22-.07.33-.11.17-.06.33-.12.5-.18.11-.04.21-.09.32-.13.16-.07.32-.15.48-.23.1-.05.2-.1.29-.15.17-.09.33-.2.5-.3.08-.05.16-.1.23-.15.24-.16.46-.33.68-.51a10 10 0 0 0 1.07-1.05c.26-.3.52-.61.74-.95a9.3 9.3 0 0 0 1.61-5.26v-.07ZM9.15 1.72h5.69v.32l-.4.7H9.55l-.4-.7zm-.81 6.12c.15.54.46 1.07 1.1 1.37.43.21.94.02 1.14-.4.21-.43.02-.94-.4-1.14-.19-.09-.27-.47-.27-1.27V4.46h4.18V6.4c0 .71-.01 1.19-.18 1.27a.86.86 0 0 0 .72 1.56c.65-.3.93-.8 1.07-1.36a7.7 7.7 0 0 1 2.67 2.41c-.36.33-.74.65-1.14.92-.21.14-.44.25-.66.38.39.7.62 1.49.62 2.33 0 1.49-.66 2.92-1.79 3.89v.33a2.1 2.1 0 0 1-2.1 2.1h-2.31a2.1 2.1 0 0 1-2.1-2.1v-.12a5.17 5.17 0 0 1-2.03-3.75c-.06-.94.16-1.85.62-2.65-.36-.21-.71-.43-1.05-.68-.27-.2-.52-.42-.77-.65a7.75 7.75 0 0 1 2.7-2.42Zm1.39 9.7v.57c0 .69.56 1.24 1.24 1.24h2.31c.69 0 1.24-.56 1.24-1.24v-.74a4.3 4.3 0 0 0 1.79-3.48c0-2.4-1.97-4.01-4.38-3.98-2.39.03-4.39 1.89-4.23 4.27a4.27 4.27 0 0 0 2.03 3.36m2.91-4.49c.54-.54 1.41-.54 1.95 0s.54 1.41 0 1.95-1.09.21-1.63-.33-.87-1.09-.33-1.63ZM12 15.17c.4 0 .72.32.72.72v.66c0 .4-.32.72-.72.72s-.72-.32-.72-.72v-.66c0-.4.32-.72.72-.72m-2.59-2.19c.54-.54 1.41-.54 1.95 0s.21 1.09-.33 1.63-1.09.87-1.63.33-.54-1.41 0-1.95Z"/>
</svg>
