<svg viewBox="0 0 24 24" xmlns="http://www.w3.org/2000/svg">
  <path fill="#1e1e1c" d="m14.63 14.65-3.62.97-2.65-2.65.97-3.62 3.62-.97 2.65 2.65zm1.49-5.57L18.1 1.7A11.9 11.9 0 0 0 11.98 0c-1.47 0-2.87.28-4.17.76l8.31 8.31Zm.46 5.05 7.39-1.98V12c0-3.71-1.69-7.03-4.35-9.24l-3.04 11.36Zm-5.06-7.18L6.11 1.54C3.01 3.29.77 6.36.16 9.99zM7.37 9.87l-7.38 1.98V12c0 3.71 1.69 7.03 4.35 9.24L7.38 9.88Zm5.07 7.18 5.41 5.41c3.1-1.74 5.34-4.82 5.95-8.45zm-4.61-2.12-1.98 7.38c1.8 1.07 3.88 1.7 6.12 1.7 1.47 0 2.87-.28 4.17-.76z"/>
</svg>
