<svg viewBox="0 0 16 16" xmlns="http://www.w3.org/2000/svg">
  <path fill="#1e1e1c" d="M8 0C3.59 0 0 3.59 0 8s3.59 8 8 8 8-3.59 8-8-3.59-8-8-8m6.5 8c0 .09 0 .18-.01.27l-3.23.87 1.49-5.56a6.5 6.5 0 0 1 1.75 4.43Zm-8.66.58.58-2.16 2.16-.58 1.58 1.58-.58 2.16-2.16.58zm5.63-6.06-.87 3.23-4.07-4.08a6.43 6.43 0 0 1 4.94.85m-6.48-.27 2.37 2.37-5.57 1.49a6.54 6.54 0 0 1 3.2-3.86M1.5 8c0-.09 0-.18.01-.27l3.23-.87-1.49 5.56A6.5 6.5 0 0 1 1.5 7.99Zm3.03 5.48.87-3.23 4.08 4.08a6.43 6.43 0 0 1-4.94-.85Zm6.48.27-2.37-2.37 5.57-1.49a6.54 6.54 0 0 1-3.2 3.86"/>
</svg>
