<svg viewBox="0 0 32 32" xmlns="http://www.w3.org/2000/svg">
  <path fill="#1e1e1c" d="M10.3 1.06C12.07.39 13.98 0 15.98 0c3.07 0 5.92.88 8.36 2.38l-2.69 10.03zm10.75 13.58-3.71-3.71-5.07 1.36-1.36 5.07 3.71 3.71 5.07-1.36zm.87 4.48 10.03-2.69c0-.14.02-.28.02-.43 0-4.99-2.3-9.46-5.9-12.4l-4.16 15.51Zm-5.67 3.59 7.36 7.36c4.27-2.32 7.35-6.54 8.15-11.51l-15.5 4.15Zm-5.94-3.12L7.62 29.62c2.44 1.5 5.29 2.38 8.36 2.38 2 0 3.91-.39 5.68-1.06zm5.39-10.3L8.35 1.94A16.01 16.01 0 0 0 .2 13.45L15.7 9.3Zm-5.67 3.59L0 15.57c0 .14-.02.28-.02.43 0 4.99 2.3 9.46 5.9 12.39l4.16-15.51Z"/>
</svg>
