<svg viewBox="0 0 40 40" xmlns="http://www.w3.org/2000/svg">
  <path fill="#1e1e1c" d="M.25 16.82c.99-6.3 4.93-11.64 10.37-14.54l9.28 9.28zm26.28 1.37-4.79-4.79-6.7 1.79.13.03-1.73 6.48 4.8 4.8 6.55-1.75 1.75-6.55Zm.75 5.88 12.66-3.39c0-.24.04-.48.04-.73 0-6.27-2.9-11.86-7.43-15.53l-5.27 19.66Zm-.08-8.39 3.39-12.66A19.84 19.84 0 0 0 19.98-.06c-2.53 0-4.94.49-7.16 1.35l14.39 14.39Zm-14.53.14L.01 19.21c0 .24-.04.48-.04.73 0 6.27 2.9 11.86 7.43 15.53l5.27-19.66Zm7.39 12.51 9.28 9.28c5.44-2.9 9.38-8.23 10.37-14.54l-19.65 5.27Zm-7.3-4.12L9.37 36.87c3.08 1.94 6.71 3.08 10.61 3.08 2.53 0 4.94-.49 7.16-1.35L12.75 24.21Z"/>
</svg>
