<svg viewBox="0 0 32 32" xmlns="http://www.w3.org/2000/svg">
  <path fill="#1e1e1c" d="M16 0C7.18 0 0 7.18 0 16s7.18 16 16 16 16-7.18 16-16S24.82 0 16 0m14 16c0 .33-.03.65-.05.98l-7.99 2.14 3.58-13.34c2.74 2.56 4.47 6.19 4.47 10.22Zm-19.08 1.36 1.36-5.08 5.08-1.36 3.72 3.72-1.36 5.08-5.08 1.36zM23.83 4.4l-2.14 8-9.79-9.78C13.2 2.22 14.58 2 16 2c2.9 0 5.59.88 7.83 2.4M9.88 3.43l5.85 5.85-13.35 3.58c.96-4.15 3.76-7.6 7.51-9.43ZM2 16c0-.33.03-.65.05-.98l7.99-2.14-3.57 13.34C3.73 23.66 2 20.03 2 16m6.17 11.6 2.14-8 9.78 9.78c-1.3.4-2.68.62-4.1.62-2.9 0-5.59-.88-7.83-2.4Zm13.95.97-5.85-5.85 13.35-3.58c-.96 4.15-3.76 7.6-7.51 9.43Z"/>
</svg>
