<svg viewBox="0 0 24 24" xmlns="http://www.w3.org/2000/svg">
  <path d="M22.5 10H19V1.5c0-.83-.67-1.5-1.5-1.5h-16C.67 0 0 .67 0 1.5v10.96c0 .83.67 1.5 1.5 1.5H5v8.54c0 .83.67 1.5 1.5 1.5h16c.83 0 1.5-.67 1.5-1.5v-11c0-.83-.67-1.5-1.5-1.5M5 11.5v.71H1.75V1.75h15.5V10H6.5c-.83 0-1.5.67-1.5 1.5m17.25 10.75h-4.32c.64-2.19.46-3.93.14-5.1.76.22 1.33.74 1.34.75l.61-.63.61-.63c-.06-.06-1.15-1.09-2.67-1.3.27-.35.73-.69 1.46-.69V12.9c-1.31 0-2.19.6-2.76 1.29-1.1-1.24-2.58-1.45-2.66-1.46l-.23 1.74s.6.1 1.15.51c-1.58-.04-2.7.86-2.77.92l1.11 1.35s.5-.39 1.2-.49c-.67.86-.88 1.88-.86 2.5l1.75-.04c0-.14.03-1.2.97-1.81.3.95.55 2.62-.23 4.85H6.75v-10.5h15.5v10.5ZM15.88 3.12v3.17h-3.17V3.12zM3.59 3.5H9v1.75H3.59zm0 3.33H9v1.75H3.59z"/>
</svg>
