<svg viewBox="0 0 24 24" xmlns="http://www.w3.org/2000/svg">
  <path d="M24 4.89V1.76c0-.11-.01-.21-.03-.32 0-.05-.02-.09-.04-.14A1.74 1.74 0 0 0 22.25.01H1.75C.79.01 0 .79 0 1.76v3.13zM5.16 1.69a.87.87 0 1 1-.001 1.741.87.87 0 0 1 .001-1.741m-2.43 0a.87.87 0 1 1-.001 1.741.87.87 0 0 1 .001-1.741M15.9 13.56c0 .54-.44.95-1 .95h-.85v-1.84h.85c.58 0 1 .37 1 .89M0 6.64v17.37h24V6.64zm11.56 7.18h-.75v-2.24H9.15v2.24H7v1.64h2.15v2.24h1.66v-2.24h.75v2.95H8.39v-2.24H6.24v-3.06h2.15v-2.24h3.17zm3.7 2.35h-1.22v2.24H12v-7.54h3.26c1.48 0 2.66 1.2 2.66 2.68s-1.16 2.62-2.66 2.62"/>
</svg>
