<svg viewBox="0 0 64 64" xmlns="http://www.w3.org/2000/svg">
  <path fill="#1e1e1c" d="M54.61 0H.17v.05H0v54.41h23.07C24.78 59.98 29.94 64 36.02 64s11.23-4.02 12.95-9.54h11.56c1.92 0 3.48-1.56 3.48-3.48V9.38C63.99 4.21 59.78 0 54.61 0m6.57 31.42v6.03h-8.15v-6.03zM17.05 2.76h25.4l.1 25.87h-24.7V5.62c0-1.05-.29-2.02-.8-2.86m28.15.06h9.34c3.66 0 6.63 2.97 6.63 6.63v19.17H45.3zM2.75 2.78h9.51c1.56 0 2.84 1.27 2.84 2.83v46.04H2.75zM36 61.26c-5.96 0-10.8-4.84-10.8-10.8S30.05 39.67 36 39.67s10.8 4.84 10.8 10.79-4.84 10.8-10.8 10.8m24.51-9.54H49.5c.04-.42.06-.83.06-1.26 0-7.47-6.08-13.55-13.55-13.55s-13.55 6.08-13.55 13.55c0 .43.03.84.06 1.26h-4.67V31.37h24.71v.03h7.72v6.4c0 1.33 1.08 2.4 2.41 2.4h8.55v10.79c0 .4-.33.73-.73.73M36 42.47c-4.41 0-8 3.59-8 7.99s3.59 7.99 8 7.99 8-3.59 8-7.99-3.59-7.99-8-7.99m0 13.23c-2.89 0-5.25-2.35-5.25-5.24s2.35-5.24 5.25-5.24 5.25 2.35 5.25 5.24S38.9 55.7 36 55.7"/>
</svg>
