<svg viewBox="0 0 32 32" xmlns="http://www.w3.org/2000/svg">
  <path d="M30 0H2C.9 0 0 .9 0 2.01v30h32v-30C32 .9 31.11 0 30 0m0 2.01v4.01H2V2.01zm-28 28V8.02h28v21.99zm.9-25.95c0-.55.45-1 1-1s1 .45 1 1-.45 1-1 1-1-.45-1-1m2.82 0c0-.55.45-1 1-1s1 .45 1 1-.45 1-1 1-1-.45-1-1m5.3 9.77h4.36v4.06h-1.04v-3.08h-2.29v3.08H9.09v2.26h2.96v3.08h2.29v-3.08h1.04v4.06h-4.36v-3.08H8.06v-4.21h2.96v-3.08Zm9.46 0H16V24.2h2.81v-3.08h1.68c2.06 0 3.66-1.57 3.66-3.6s-1.63-3.69-3.66-3.69Zm-.51 5H18.8V16.3h1.17c.8 0 1.38.52 1.38 1.22s-.61 1.31-1.38 1.31"/>
</svg>
