<svg viewBox="0 0 32 32" xmlns="http://www.w3.org/2000/svg">
  <path d="M21.9 8.4V3.26h-5.14V8.4zm-3.14-3.14h1.14V6.4h-1.14zM12 6.83H4.79v-2H12zM4.79 8.31H12v2H4.79zM2 16.61h4.77v2H1.5c-.83 0-1.5-.67-1.5-1.5V1.5C0 .67.67 0 1.5 0h22.33c.83 0 1.5.67 1.5 1.5v10.74h-2V2H2zm6.16-3V32H32V13.61zm13.79 8.96c-.99 1.03-2.76 1.03-3.75 0l-6.7-6.96h17.14l-6.7 6.96Zm-6.92-.41-4.88 5.7V17.09zm1.4 1.45.33.35c.88.91 2.05 1.41 3.31 1.41s2.44-.5 3.31-1.41l.33-.35L29.18 30H10.96zm8.69-1.45L30 17.09v10.77z"/>
</svg>
