<svg viewBox="0 0 32 32" xmlns="http://www.w3.org/2000/svg">
  <path d="M30.5 13.33h-5.17V1.5c0-.83-.67-1.5-1.5-1.5H1.5C.67 0 0 .67 0 1.5v15.61c0 .83.67 1.5 1.5 1.5h5.17V30.5c0 .83.67 1.5 1.5 1.5H30.5c.83 0 1.5-.67 1.5-1.5V14.83c0-.83-.67-1.5-1.5-1.5M30 27.05h-6.06c.61-2.3.37-4.15-.03-5.41 1.18.26 2.07 1.1 2.08 1.11l.69-.72.7-.72c-.08-.08-1.63-1.54-3.73-1.73.36-.57 1.03-1.21 2.24-1.21v-2c-1.78 0-2.96.86-3.68 1.81-1.44-1.74-3.46-2.02-3.58-2.03l-.26 1.98c.06 0 1.12.19 2.01 1.05-2.3-.29-3.98 1.07-4.07 1.14l1.27 1.54c.05-.04.9-.7 2.1-.72-1.08 1.17-1.41 2.65-1.38 3.53l2-.05c0-.21.03-1.87 1.59-2.7.38 1 .73 2.77-.03 5.13H8.67V15.33H30zM2 16.61V2h21.33v11.33H8.16c-.83 0-1.5.67-1.5 1.5v1.78zM8.67 30v-.95H30V30zM21.9 3.26h-5.14V8.4h5.14zm-2 3.14h-1.14V5.26h1.14zm-7.9.43H4.79v-2H12zm0 3.48H4.79v-2H12z"/>
</svg>
