<svg viewBox="0 0 32 32" xmlns="http://www.w3.org/2000/svg">
  <path fill="#1e1e1c" d="M26.99-.01H.08v.02H0v27.31h11.75c.79 2.69 3.27 4.67 6.22 4.67s5.43-1.97 6.22-4.67h5.78c1.12 0 2.03-.91 2.03-2.03V4.99c-.01-2.76-2.25-5-5.01-5m2.97 16.04v2.3h-3.31l-.03-2.3zM9.19 1.99h11.6l.05 12.02H9.39V3.06c0-.38-.08-.74-.21-1.08Zm13.6.03h4.17c1.65 0 3 1.35 3 3v8.99h-7.12zM1.99 2h4.33c.59 0 1.06.48 1.06 1.06v22.23H1.99zm15.97 27.99c-2.47 0-4.48-2.01-4.48-4.48s2.01-4.48 4.48-4.48 4.48 2.01 4.48 4.48-2.01 4.48-4.48 4.48m6.47-4.67c-.1-3.49-2.96-6.29-6.47-6.29s-6.37 2.81-6.47 6.29H9.4v-9.31h11.45l3.78.01v2.28c0 1.12.91 2.03 2.03 2.03h3.31v4.99zm-6.47-2.98c-1.75 0-3.17 1.42-3.17 3.17s1.42 3.16 3.17 3.16 3.17-1.42 3.17-3.16-1.42-3.17-3.17-3.17m0 4.33c-.64 0-1.17-.52-1.17-1.16s.52-1.17 1.17-1.17 1.16.52 1.16 1.17-.52 1.16-1.16 1.16"/>
</svg>
