<svg viewBox="0 0 40 40" xmlns="http://www.w3.org/2000/svg">
  <path d="M24.7 6.75h1.92V4.83H24.7zm6.97 8.79V1.5c0-.83-.67-1.5-1.5-1.5H1.5C.67 0 0 .67 0 1.5v20.27c0 .83.67 1.5 1.5 1.5h5.71v-5.1c0-1.45 1.18-2.62 2.62-2.62h21.83ZM22.45 2.58h6.42V9h-6.42zM3.49 4.67h12.84v2.25H3.49zm0 7.09V9.51h12.84v2.25zm35.01 4.91H9.83c-.83 0-1.5.67-1.5 1.5V38.5c0 .31.09.6.26.84.16.24.39.43.66.54.18.08.38.12.58.12H38.5c.83 0 1.5-.67 1.5-1.5V18.17c0-.83-.67-1.5-1.5-1.5m-.46 19.52H9.95v-2.25h17.47c1.04-3.14.52-5.45.01-6.71-2.18 1.09-2.19 3.45-2.18 3.56l-2.25.05c-.03-1.12.39-3.07 1.86-4.52-1.69-.08-2.9.87-2.97.92l-1.43-1.74c.12-.1 2.35-1.91 5.37-1.35-1.18-1.36-2.77-1.6-2.86-1.61l.29-2.23c.14.02 2.71.38 4.48 2.62.88-1.21 2.36-2.33 4.61-2.33v2.25c-1.7 0-2.58.97-3.01 1.75 2.69.14 4.7 2.04 4.8 2.14l-.78.81-.78.81s-1.26-1.18-2.88-1.46c.54 1.58.91 3.99.06 7.05h8.28v2.25Z"/>
</svg>
