<svg viewBox="0 0 64 64" xmlns="http://www.w3.org/2000/svg">
  <path d="M0 11.5v52.51h64V11.5zm29.78 22.56h-2.37v-7.05h-5.24v7.05H15.4v5.17h6.77v7.05h5.24v-7.05h2.37v9.29H19.8v-7.05h-6.77v-9.64h6.77v-7.05h9.98v9.29Zm11.66 7.4H37.6v7.05h-6.42V24.77h10.26c4.65 0 8.38 3.76 8.38 8.44s-3.66 8.24-8.38 8.24Zm2-8.23c0 1.68-1.39 3-3.15 3h-2.68v-5.8h2.68c1.83 0 3.15 1.18 3.15 2.8M64 8.75V2.01C64 .9 63.11 0 62 0H2C.9 0 0 .9 0 2.01v6.74zM8.43 3.06c.76 0 1.38.62 1.38 1.38s-.62 1.38-1.38 1.38-1.38-.62-1.38-1.38.62-1.38 1.38-1.38m-3.95 0c.76 0 1.38.62 1.38 1.38s-.62 1.38-1.38 1.38S3.1 5.2 3.1 4.44s.62-1.38 1.38-1.38"/>
</svg>
