<svg viewBox="0 0 16 16" xmlns="http://www.w3.org/2000/svg">
  <path d="M10.49 9.81c0 .29-.24.52-.54.52h-.46v-1h.46c.32 0 .54.2.54.48M0 4.55V1.51A1.505 1.505 0 0 1 1.5.01h13c.83 0 1.5.67 1.5 1.5v3.04zm3.62-2.11c0 .41.34.75.75.75s.75-.34.75-.75-.34-.75-.75-.75-.75.34-.75.75m-2.12 0c0 .41.34.75.75.75S3 2.85 3 2.44s-.34-.75-.75-.75-.75.34-.75.75M16 6.05v9.96H0V6.05zM8.14 8.36H6.42v1.21H5.25v1.66h1.17v1.21h1.72v-1.6h-.41v1.21h-.9v-1.21H5.66v-.89h1.17V8.74h.9v1.21h.41v-1.6Zm3.45 1.45c0-.81-.64-1.45-1.44-1.45H8.38v4.09h1.11v-1.21h.66c.81 0 1.44-.62 1.44-1.42Z"/>
</svg>
