<svg viewBox="0 0 24 24" xmlns="http://www.w3.org/2000/svg">
  <path d="M15.94 1.73v.53c.05 3.35-.78 6.21-2.43 8.39 1.97-1.16 4.4-1.76 7.16-1.76.29 0 .58 0 .86.02l.25.02v6.23l-.45-.02c-.2 0-.42-.02-.64-.02-1.6 0-3.53.3-4.78 1.49-1.09 1.05-1.63 2.75-1.59 5.03v.62H8.06v-.53c-.05-3.35.78-6.21 2.43-8.39-1.97 1.16-4.4 1.76-7.16 1.76-.29 0-.58 0-.86-.02l-.25-.02V8.83l.45.02c.2 0 .42.02.64.02 1.6 0 3.53-.3 4.78-1.49 1.09-1.05 1.63-2.75 1.59-5.03v-.62zm1.75-1.75H7.9l.02 1.77v.62c.03 1.23-.13 2.87-1.04 3.74-.68.65-1.95 1.01-3.57 1.01-.19 0-.38 0-.55-.01l-.45-.02-1.84-.1v9.72l1.64.1.25.02c.33.02.66.02.97.02 1.29 0 2.52-.12 3.67-.35-.48 1.61-.71 3.38-.68 5.27v2.26h9.79l-.02-1.77v-.62c-.03-1.23.13-2.87 1.04-3.74.68-.65 1.95-1.01 3.57-1.01.19 0 .38 0 .55.01l.45.02 1.84.1V7.3l-1.64-.1-.25-.02c-.33-.02-.66-.02-.97-.02-1.29 0-2.52.12-3.67.35.48-1.61.71-3.38.68-5.27z"/>
</svg>
