<svg viewBox="0 0 48 48" xmlns="http://www.w3.org/2000/svg">
  <path d="M29.15 5.9h2.71v2.71h-2.71zM11.5 18.75c-1.52 0-2.75 1.23-2.75 2.75v6.42H1.5c-.83 0-1.5-.67-1.5-1.5V1.51C0 .68.67 0 1.5 0h35c.83 0 1.5.67 1.5 1.5v17.25zm15.15-7.64h7.71V3.4h-7.71zM3.94 7.75h14.15v-2.5H3.94zm14.14 5.21v-2.5H3.94v2.5h14.15ZM48 21.51v25c0 .83-.67 1.5-1.5 1.5h-35c-.83 0-1.5-.67-1.5-1.5v-25c0-.83.67-1.5 1.5-1.5h35c.83 0 1.5.67 1.5 1.5m-2.41 20.08H35.58c1.09-3.8.59-6.78-.09-8.68 2.05.29 3.65 1.78 3.67 1.8l1.74-1.8c-.12-.12-2.58-2.45-5.85-2.55.51-.97 1.59-2.29 3.79-2.29v-2.5c-2.73 0-4.5 1.39-5.53 2.87-2.1-2.75-5.22-3.19-5.39-3.21l-.32 2.48c.11.02 2.21.34 3.68 2.2-3.72-.83-6.51 1.42-6.65 1.53l1.59 1.93c.09-.07 1.67-1.33 3.87-1.12-1.89 1.74-2.42 4.15-2.38 5.51l2.5-.06c0-.14 0-3.1 2.77-4.41.63 1.52 1.32 4.39 0 8.3H12v2.5h33.6v-2.5Z"/>
</svg>
