<svg viewBox="0 0 48 48" xmlns="http://www.w3.org/2000/svg">
  <path d="M46.5 20.01H38V1.51c0-.83-.67-1.5-1.5-1.5h-35C.67 0 0 .68 0 1.51v24.92c0 .83.67 1.5 1.5 1.5H10v18.58c0 .83.67 1.5 1.5 1.5h35c.83 0 1.5-.67 1.5-1.5v-25c0-.83-.67-1.5-1.5-1.5m-1 21.58h-9.92c1.09-3.8.59-6.78-.09-8.68 2.05.29 3.65 1.78 3.67 1.8l1.74-1.8c-.12-.12-2.58-2.45-5.85-2.55.51-.97 1.59-2.29 3.79-2.29v-2.5c-2.73 0-4.5 1.39-5.53 2.87-2.1-2.75-5.22-3.19-5.39-3.21l-.32 2.48c.11.02 2.21.34 3.68 2.2-3.72-.83-6.51 1.42-6.65 1.53l1.59 1.93c.09-.07 1.67-1.32 3.87-1.12-1.89 1.74-2.42 4.14-2.38 5.51l2.5-.06c0-.14 0-3.1 2.77-4.41.63 1.52 1.32 4.39 0 8.3H12.5V22.51h33zm-43-16.17V2.51h33v17.5h-24c-.83 0-1.5.67-1.5 1.5v3.92H2.5Zm10 20.09v-1.42h33v1.42zM32.85 4.9h-7.71v7.71h7.71zm-2.5 5.21h-2.71V7.4h2.71zM18 10H7.19V7.5H18zm0 4.46H7.19v-2.5H18z"/>
</svg>
