<svg viewBox="0 0 24 24" xmlns="http://www.w3.org/2000/svg">
  <path d="M22.25 0H1.75C.79 0 0 .79 0 1.75V24h24V1.75C24 .79 23.22 0 22.25 0m0 1.75v3.38H1.75V1.75zm-20.5 20.5V6.89h20.5v15.37H1.75Zm.6-18.94c0-.48.39-.88.88-.88s.88.39.88.88-.39.88-.88.88-.88-.39-.88-.88m2.43 0c0-.48.39-.88.88-.88s.88.39.88.88-.39.88-.88.88-.88-.39-.88-.88m3.67 7.62h3.12v2.9h-.74v-2.2H9.19v2.2H7.07v1.61h2.12v2.2h1.64v-2.2h.74v2.9H8.45v-2.2H6.33v-3.01h2.12zm6.76 0H12v7.42h2.01v-2.2h1.2c1.47 0 2.62-1.12 2.62-2.58s-1.17-2.64-2.62-2.64m-.36 3.57h-.84v-1.81h.84c.57 0 .99.37.99.87s-.43.94-.99.94"/>
</svg>
