<svg viewBox="0 0 40 40" xmlns="http://www.w3.org/2000/svg">
  <path d="M27.18 21.53c0 .99-.81 1.76-1.85 1.76h-1.57V19.9h1.57c1.07 0 1.85.69 1.85 1.64ZM0 6.56V2.02c0-.41.13-.8.34-1.12C.48.69.67.5.88.36 1.2.15 1.59.02 2 .02h36c.41 0 .8.13 1.12.34.21.14.4.33.54.54.22.32.34.7.34 1.12v4.54zm5.52-3.33c0 .62.5 1.13 1.13 1.13s1.13-.5 1.13-1.13-.5-1.13-1.13-1.13-1.13.5-1.13 1.13m-3.26 0c0 .62.5 1.13 1.13 1.13s1.13-.5 1.13-1.13-.5-1.13-1.13-1.13-1.13.5-1.13 1.13M40 8.81v31.21H0V8.81zm-20.82 7.77h-5.84v4.13H9.38v5.64h3.96v4.13h5.84v-5.44h-1.39v4.13h-3.06v-4.13h-3.96v-3.02h3.96v-4.13h3.06v4.13h1.39zm11.73 4.94c0-2.74-2.18-4.94-4.9-4.94H20v13.89h3.76v-4.13h2.25c2.76 0 4.9-2.11 4.9-4.82"/>
</svg>
