<svg viewBox="0 0 24 24" xmlns="http://www.w3.org/2000/svg">
  <path fill="#1e1e1c" d="M20.82.05H.06v18.77H0v1.77h8.77c.63 2 2.48 3.46 4.69 3.46s4.06-1.46 4.69-3.46h4.21c.9 0 1.64-.73 1.64-1.64V3.21C24 1.46 22.58.04 20.83.04Zm1.41 12.16v1.72h-2.37c-.08 0-.15-.07-.15-.15v-1.57h2.53ZM7.12 1.79h8.3l.03 8.65H7.23V2.46c0-.23-.04-.45-.11-.67m10.05.02h3.37c.93 0 1.69.76 1.69 1.69v6.94h-5.02l-.03-8.63ZM1.8 1.8h3.02c.36 0 .66.3.66.66v16.36H1.8zm11.65 20.5c-1.76 0-3.19-1.43-3.19-3.19s1.43-3.19 3.19-3.19 3.19 1.43 3.19 3.19-1.43 3.19-3.19 3.19m4.91-3.46c-.14-2.6-2.28-4.67-4.91-4.67s-4.77 2.07-4.91 4.67H7.23v-6.65h10.72v1.58c0 1.05.85 1.9 1.9 1.9h2.39v3.16h-3.88Zm-3.32.27c0 .87-.71 1.58-1.59 1.58s-1.59-.71-1.59-1.58.71-1.59 1.59-1.59 1.59.71 1.59 1.59"/>
</svg>
