<svg viewBox="0 0 64 64" xmlns="http://www.w3.org/2000/svg">
  <path d="M43.8 16.69V6.48H33.53v10.21zm-7.53-7.48h4.78v4.75h-4.78zm-12.26 3.74H9.6v-2.73h14.41zM9.6 15.88h14.41v2.73H9.6zM2.77 34.24h12.04v2.73H2.52a2.49 2.49 0 0 1-2.5-2.48V2.48A2.497 2.497 0 0 1 2.52 0h45.63c1.38 0 2.5 1.11 2.5 2.48v23.8H47.9V2.73H2.77v31.5Zm13.42-6.59V64h47.84V27.65zm28.28 18.17c-1.15 1.19-2.7 1.85-4.36 1.85s-3.21-.66-4.36-1.85L20.8 30.38h38.63L44.48 45.82Zm-13.84-1.34-11.7 13.57V32.4l11.7 12.07Zm1.91 1.97 1.22 1.26c1.68 1.73 3.93 2.68 6.34 2.68s4.67-.95 6.34-2.68l1.22-1.26 12.77 14.82H19.78l12.77-14.82Zm17.04-1.97 11.7-12.07v25.65l-11.7-13.57Z"/>
</svg>
