<svg viewBox="0 0 16 16" xmlns="http://www.w3.org/2000/svg">
  <path fill="#1e1e1c" d="M13.75.02H.01v1.5l.02.01v10.72H0v1.5l5.76.01c.47 1.31 1.72 2.26 3.19 2.26s2.71-.95 3.19-2.26h2.61c.69 0 1.25-.56 1.25-1.25V2.26A2.26 2.26 0 0 0 13.75.02m.73 8.28v1.12h-1.29a.28.28 0 0 1-.28-.28V8.3zM5.07 1.51h4.98l.02 5.28h-5zm6.47.02h2.02c.51 0 .92.41.92.92V6.8h-2.92zm-10.01 0h2.04v10.72H1.53zm7.41 12.99a1.9 1.9 0 1 1 0-3.8 1.9 1.9 0 1 1 0 3.8m3.37-2.26c-.18-1.71-1.61-3.04-3.36-3.04s-3.18 1.34-3.36 3.04h-.51V8.29h6.35v.85c0 .98.8 1.77 1.77 1.77h1.31v1.35h-2.19Zm-2.37.36c0 .55-.45 1-1 1s-1-.45-1-1 .45-1 1-1 1 .45 1 1"/>
</svg>
