<svg viewBox="0 0 32 32" xmlns="http://www.w3.org/2000/svg">
  <path d="M21.15 5.41h-1.14V4.27h1.14zm4.18 6.96H6.9v6.24H1.5c-.31 0-.6-.09-.84-.26-.24-.16-.43-.39-.54-.66-.08-.18-.12-.38-.12-.58V1.5C0 .67.67 0 1.5 0h22.33c.83 0 1.5.67 1.5 1.5zM11.6 7.31H2.79v2h8.8v-2Zm0-3.72H2.79v2h8.8v-2Zm11.55-1.32h-5.14v5.14h5.14zm.24 21.69c-.88.91-2.05 1.41-3.31 1.41s-2.44-.5-3.31-1.41l-.32-.33-6.93 8.38h21.17l-6.97-8.38-.32.34ZM8.15 15.02V30.5l6.89-8.33-6.89-7.16Zm10.05 7.55c.99 1.03 2.76 1.03 3.75 0l8.62-8.96H9.58zM32 30.46V15.02l-6.89 7.15L32 30.45Zm-.01-16.84H32z"/>
</svg>
