<svg viewBox="0 0 48 48" xmlns="http://www.w3.org/2000/svg">
  <path d="M31.85 8.61h-2.71V5.9h2.71zM38 20.02H12.04v7.9H1.5c-.83.01-1.5-.67-1.5-1.49V1.5C0 .67.67 0 1.5 0h35c.83 0 1.5.67 1.5 1.5zm-19.92-9.56H3.94v2.5h14.15v-2.5Zm0-5.21H3.94v2.5h14.15v-2.5ZM34.35 3.4h-7.71v7.71h7.71zm-6.47 31.16c.76.79 1.79 1.23 2.89 1.23s2.13-.44 2.89-1.23l12.55-13.04H15.33zm7.59 1.74c-1.24 1.29-2.91 2-4.69 2s-3.46-.71-4.69-2l-.64-.66-10.26 12.37h31.2L36.13 35.64l-.64.66Zm2.38-2.48L48 46.05V23.28L37.85 33.83ZM13.54 23.27v22.77l10.15-12.23-10.15-10.55Z"/>
</svg>
