<svg viewBox="0 0 24 24" xmlns="http://www.w3.org/2000/svg">
  <path fill="#1e1e1c" d="M20.24-.01H1.56L0 0v.63h-.01v20.66h7.29a5.2 5.2 0 0 1-.22-1.43c0-2.97 2.42-5.38 5.38-5.38s5.38 2.41 5.38 5.38c0 .5-.09.97-.22 1.42h4.13c1.24 0 2.25-1.01 2.25-2.24V3.72c0-2.06-1.68-3.73-3.74-3.73M4.65 18.29H2.16V3h2.49v15.3Zm10.06-8.11H6.78v-7.1h7.93zm2.65-.06-.03-7.11h2.63c.55 0 .99.44.99.99v6.12zm5.1 5.38h-3.13c-.57 0-1.03-.46-1.03-1.03v-1.34h4.16zm-10.02.23a4.131 4.131 0 0 0 0 8.26 4.131 4.131 0 0 0 0-8.26m0 5.88c-.97 0-1.75-.79-1.75-1.75s.79-1.75 1.75-1.75 1.75.79 1.75 1.75-.79 1.75-1.75 1.75"/>
</svg>
