<svg viewBox="0 0 32 32" xmlns="http://www.w3.org/2000/svg">
  <path fill="#1e1e1c" d="M26.32-.06H-.03v28.28h2.18v.03h8.08c-.15-.59-.24-1.21-.24-1.85 0-4.16 3.37-7.54 7.52-7.54s7.52 3.38 7.52 7.54c0 .64-.09 1.26-.24 1.85h4.42a2.76 2.76 0 0 0 2.75-2.77V5.61c.01-3.12-2.52-5.67-5.64-5.67M6.17 3.46c.15 0 .26.12.26.26v20.99H3.48V3.46zm13.99 10.19H9.93V3.73c0-.06-.01-.11-.02-.17h10.25zM23 3.48h3.29c1.19 0 2.15.97 2.15 2.16v8.04h-5.4zm7.14 16.4h-4.18c-.57 0-1.03-.46-1.03-1.03v-2.2h5.21zm-12.63.98c-3.04 0-5.52 2.49-5.52 5.54s2.48 5.54 5.52 5.54 5.52-2.49 5.52-5.54-2.48-5.54-5.52-5.54m0 7.52c-1.09 0-1.97-.89-1.97-1.98s.89-1.98 1.97-1.98 1.97.89 1.97 1.98-.89 1.98-1.97 1.98"/>
</svg>
