<svg viewBox="0 0 64 64" xmlns="http://www.w3.org/2000/svg">
  <path d="M43.3 2.54v1.53c.15 9.61-2.23 17.83-6.96 24.08 5.65-3.33 12.63-5.04 20.55-5.04.83 0 1.66 0 2.48.06l.71.04v17.87l-1.3-.07c-.59-.03-1.2-.05-1.83-.05-4.58 0-10.13.87-13.71 4.29-3.13 3-4.67 7.89-4.55 14.43l.02 1.77H20.73v-1.53c-.15-9.61 2.23-17.83 6.96-24.08-5.65 3.33-12.63 5.04-20.55 5.04-.83 0-1.66 0-2.48-.06l-.71-.04V22.91l1.3.07c.59.03 1.2.05 1.83.05 4.58 0 10.13-.87 13.71-4.29 3.13-3 4.67-7.89 4.55-14.43l-.02-1.77zM45.85 0H22.73l.04 2.58.02 1.77c.1 5.84-1.16 10.06-3.77 12.55-3.1 2.95-8.21 3.58-11.94 3.58-.56 0-1.13-.01-1.71-.04l-1.29-.07-2.68-.14v22.95l2.39.15.71.04c.89.07 1.78.07 2.64.07 5.25 0 10.08-.7 14.45-2.1-2.35 5.43-3.51 11.75-3.41 18.64v4.04H41.3l-.04-2.58-.02-1.77c-.1-5.84 1.16-10.06 3.77-12.55 3.1-2.96 8.21-3.58 11.94-3.58.56 0 1.13.01 1.71.04l1.29.07 2.68.14V20.84l-2.39-.15-.71-.04c-.89-.07-1.78-.07-2.64-.07-5.25 0-10.08.7-14.45 2.1 2.35-5.43 3.51-11.75 3.41-18.64z"/>
</svg>
