<svg viewBox="0 0 64 64" xmlns="http://www.w3.org/2000/svg">
  <path fill="#1e1e1c" d="M53.76-.12H.21v.02h-.25v54.7h.08l20.59.01c-.08-.61-.14-1.22-.14-1.85 0-7.65 6.23-13.87 13.88-13.87s13.89 6.22 13.89 13.87a14 14 0 0 1-.14 1.85h11.31c2.5 0 4.53-2.03 4.53-4.53V10.07c0-5.62-4.58-10.19-10.2-10.19M13.02 4.9c.85 0 1.55.69 1.55 1.55v43.09H4.81L5.02 4.9zm6.56 22.53V6.45c0-.59-.09-1.16-.23-1.7h21.54l.09 22.68zm26.4-.01-.09-22.48h7.8c2.87 0 5.2 2.33 5.2 5.19v17.29zm14.47 12.41h-8.9a2 2 0 0 1-2-2v-4.78h10.9zm-26.07 1.8c-6.14 0-11.13 4.99-11.13 11.12s4.99 11.12 11.13 11.12 11.13-4.99 11.13-11.12-4.99-11.12-11.13-11.12m0 16.12c-2.76 0-5-2.23-5-4.99s2.24-4.99 5-4.99 5 2.23 5 4.99-2.24 4.99-5 4.99"/>
</svg>
