<svg viewBox="0 0 40 40" xmlns="http://www.w3.org/2000/svg">
  <path d="M5.38 10.74c2.96 0 5.36-2.41 5.36-5.36S8.34.02 5.38.02.02 2.42.02 5.38s2.41 5.36 5.36 5.36m0-8.47c1.72 0 3.11 1.4 3.11 3.11s-1.4 3.11-3.11 3.11-3.11-1.4-3.11-3.11 1.4-3.11 3.11-3.11m2.16 10.49H0v27.11h9.85V25.54h3.76v-6.71c0-3.35-2.72-6.07-6.07-6.07m3.82 10.53H7.6v14.33H2.25V15.01h5.28a3.82 3.82 0 0 1 3.82 3.82v4.46ZM28.1-.01l-2.71 17.48-6.9 2.52v20H40v-40H28.09Zm9.65 37.75H20.74V21.56l5.42-1.98 1.25-.46.2-1.31 2.41-15.57h7.73z"/>
</svg>
