<svg viewBox="0 0 64 64" xmlns="http://www.w3.org/2000/svg">
  <path d="M50.67 25.29V2.5a2.5 2.5 0 0 0-2.5-2.5H2.5a2.45 2.45 0 0 0-1.39.43C.44.88 0 1.64 0 2.5v32.23a2.5 2.5 0 0 0 2.5 2.5h9.46v-8.06c0-2.14 1.74-3.88 3.88-3.88zM36.03 4.28h10.28v10.28H36.03zM5.08 8.04h20.25v2.75H5.08zm0 8.45v-2.75h20.25v2.75zm33.7-9.46h4.78v4.78h-4.78zM61.5 26.67H15.83a2.5 2.5 0 0 0-2.5 2.5V61.5a2.45 2.45 0 0 0 .43 1.39c.45.66 1.21 1.1 2.07 1.1H61.5A2.51 2.51 0 0 0 64 61.5V29.17a2.5 2.5 0 0 0-2.5-2.5m-1.51 32.31h-43.2v-2.75h28.5c2.29-6.47.96-11.1-.07-13.31-4.8 1.93-4.77 6.87-4.77 7.09l-2.75.07c-.06-2.1.84-5.92 4.11-8.38-3.95-.89-6.91 1.46-7.05 1.58l-1.75-2.12c.21-.18 4.73-3.83 10.56-1.82-2.21-3.85-6.23-4.45-6.43-4.47l.35-2.73c.25.03 5.04.69 8 5.06 1.37-2.25 3.94-4.56 8.1-4.56v2.75c-3.97 0-5.66 2.81-6.28 4.29 4.98-.21 8.81 3.44 9 3.61l-1.91 1.98s-2.86-2.69-6.39-2.84c1.11 2.75 2.17 7.52.19 13.79h11.79v2.75Z"/>
</svg>
