<svg viewBox="0 0 24 24" xmlns="http://www.w3.org/2000/svg">
  <path d="M24 14.49V7.74H0v6.75h2.11v1.13a2.87 2.87 0 0 0 2.88 2.86h14.02c.62 0 1.13.5 1.13 1.12s-.51 1.11-1.13 1.11H10v-.31c0-.17-.04-.34-.1-.49-.13-.3-.37-.54-.67-.67-.15-.06-.32-.1-.49-.1H5.49v.91h-1.5c-.28 0-.5.23-.5.5v1.99c0 .28.23.5.5.5h1.5v.91h3.25c.17 0 .34-.04.49-.1.3-.13.54-.37.67-.67.06-.15.1-.31.1-.49v-.26h9.01c1.59 0 2.88-1.28 2.88-2.86s-1.29-2.86-2.88-2.86H4.99c-.62 0-1.13-.5-1.13-1.12v-1.13h20.13Zm-4.3-3.57c0-.62.5-1.12 1.12-1.12h.33c.62 0 1.12.5 1.12 1.12v.32c0 .62-.5 1.12-1.12 1.12h-.33c-.62 0-1.12-.5-1.12-1.12zm-5.98-.8h4.58v2h-4.58zm-6.02 0h4.58v2H7.7zm-6.01 0h4.58v2H1.69zM22.11.63c-.1-.4-.43-.66-.81-.66L2.72.04c-.38 0-.71.26-.8.62L.43 5.99h23.15L22.12.62ZM11.39 5.65l.84-1.74H9.71l3.36-2.43-.84 1.74h2.52z"/>
</svg>
