<svg viewBox="0 0 48 48" xmlns="http://www.w3.org/2000/svg">
  <path d="M48 29.71v-14.8H0v14.8h4.74v1.55c0 2.89 2.36 5.24 5.25 5.24H38c1.52 0 2.75 1.23 2.75 2.74s-1.23 2.74-2.75 2.74H19.99V39.6c0-.35-.14-.66-.37-.89s-.54-.37-.89-.37h-7.74v1.83h-3.5c-.28 0-.5.23-.5.5v4.99c0 .14.06.26.15.35s.22.15.35.15h3.5v1.83h7.74c.35 0 .66-.14.89-.37s.37-.54.37-.89v-2.27H38c2.9 0 5.25-2.35 5.25-5.24s-2.36-5.24-5.25-5.24H9.99c-1.52 0-2.75-1.23-2.75-2.74v-1.55H48Zm-9.16-7.7c0-1.24 1-2.24 2.24-2.24h.48c1.24 0 2.24 1 2.24 2.24v.47c0 1.24-1 2.24-2.24 2.24h-.48c-1.24 0-2.24-1-2.24-2.24zm-11.53-1.63h8.83v3.86h-8.83zm-11.59 0h8.83v3.86h-8.83zm-11.6 0h8.83v3.86H4.12zM44.35 2.01l-.02-.05V1.9A2.49 2.49 0 0 0 41.92.03L6.11 0c-1.13 0-2.1.77-2.38 1.85v.05l-.03.05L.57 12.41h46.86L44.35 2.02Zm-21.53 8.47 1.62-3.36h-4.86l6.48-4.71-1.62 3.36h4.86z"/>
</svg>
