<svg viewBox="0 0 16 16" xmlns="http://www.w3.org/2000/svg">
  <path d="M14.87 1.1C14.72.5 14.21.07 13.6-.01L2.6 0c-.68 0-1.28.47-1.45 1.13L0 5.69v3.27c0 .74.54 1.35 1.25 1.47.02 1.13.94 2.05 2.08 2.05h9.33a.58.58 0 0 1 0 1.16H6.58c-.16-.51-.62-.88-1.18-.88H3.66v.61h-.83c-.28 0-.5.23-.5.5v1c0 .28.23.5.5.5h.83v.61H5.4c.55 0 1-.36 1.17-.85h6.08c1.15 0 2.08-.93 2.08-2.08s-.93-2.08-2.08-2.08H3.33c-.3 0-.54-.23-.57-.53H14.5c.83 0 1.5-.67 1.5-1.5V5.67l-1.13-4.59ZM2.6 1.5l10.57-.04h.23l.74 3H1.86l.75-2.96Zm11.9 5v2.46h-13v-3h13zM8.13 2.84H9.6L7.64 4.26l.49-1.02H6.66l1.96-1.42zm-3.3 5.37H2.16v-1.5h2.67zm7.65-.77c0-.41.34-.75.75-.75s.75.34.75.75-.34.75-.75.75-.75-.34-.75-.75m-4.31.77H5.5v-1.5h2.67zm3.33 0H8.83v-1.5h2.67z"/>
</svg>
