<svg viewBox="0 0 24 24" xmlns="http://www.w3.org/2000/svg">
  <path d="M19.05 11.99a1.119 1.119 0 0 1 .79-1.91c.62 0 1.12.5 1.12 1.12a1.118 1.118 0 0 1-1.91.79m-6.12-9.71L10 4.41h2.2l-.73 1.52L14.4 3.8h-2.2zM7 12.1v-1.75H3v1.75zm17-4.14v6.25c0 .83-.67 1.5-1.5 1.5H3.89c.04.58.52 1.04 1.11 1.04h14c1.58 0 2.88 1.29 2.88 2.87s-1.29 2.87-2.88 2.87h-9v.26c0 .69-.57 1.26-1.26 1.26H5.5v-.92H4c-.28 0-.5-.23-.5-.5v-2c0-.28.23-.5.5-.5h1.5v-.92h3.24c.69 0 1.26.57 1.26 1.26v.31h9c.62 0 1.12-.5 1.12-1.12s-.5-1.12-1.12-1.12H5c-1.56 0-2.82-1.24-2.87-2.79H1.5c-.83 0-1.5-.67-1.5-1.5V7.96l1.73-6.27C1.98.7 2.87 0 3.9 0h16.22c1.03 0 1.94.7 2.18 1.71zM8.25 20.92h-1v1.33h1zM2.16 6.74h19.7l-1.24-4.57c-.06-.26-.26-.42-.5-.42H3.91c-.23 0-.43.15-.48.37L2.16 6.73Zm20.09 1.75H1.75v5.47h20.5zm-10 3.61v-1.75h-4v1.75zm5.25 0v-1.75h-4v1.75z"/>
</svg>
