<svg viewBox="0 0 40 40" xmlns="http://www.w3.org/2000/svg">
  <path d="M36.94 1.53v-.05l-.03-.05c-.21-.86-.98-1.45-1.87-1.45L4.98.04c-.87 0-1.64.6-1.85 1.44v.05l-.03.05-2.61 8.63h39.03zM19.01 8.59l1.36-2.82h-4.08l5.44-3.95-1.36 2.82h4.08zM40 24.57V12.45H0v12.12h3.88v1.46c0 2.45 2 4.44 4.46 4.44h23.33c1.22 0 2.21.98 2.21 2.19s-.99 2.19-2.21 2.19h-15v-1.69c0-.17-.04-.34-.1-.49-.13-.3-.37-.54-.67-.67-.15-.06-.31-.1-.49-.1H9.17v1.52H6.34c-.28 0-.5.23-.5.5v3.99c0 .28.23.5.5.5h2.83v1.52h6.24c.17 0 .34-.04.49-.1.3-.13.54-.37.67-.67.06-.15.1-.31.1-.49v-1.6h15c2.46 0 4.46-1.99 4.46-4.44s-2-4.44-4.46-4.44H8.34A2.2 2.2 0 0 1 6.13 26v-1.46H40Zm-7.54-6.32c0-1.03.84-1.87 1.87-1.87h.43c1.03 0 1.87.84 1.87 1.87v.42c0 1.03-.84 1.87-1.87 1.87h-.43c-1.03 0-1.87-.84-1.87-1.87zm-9.68-1.36h7.42v3.24h-7.42zm-9.73 0h7.42v3.24h-7.42zm-9.74 0h7.42v3.24H3.31z"/>
</svg>
