<svg viewBox="0 0 64 64" xmlns="http://www.w3.org/2000/svg">
  <path d="M63.59 18.44 59.47 4.55A5.99 5.99 0 0 0 53.65 0h-.02L10.4.17a5.99 5.99 0 0 0-5.79 4.52L.43 18.42c-.26.27-.43.64-.43 1.05V40.4c0 .83.67 1.5 1.5 1.5h5.14a6.7 6.7 0 0 0 6.7 6.47h37.33c2.18 0 3.96 1.77 3.96 3.94s-1.78 3.94-3.96 3.94h-24v-3.88c0-.69-.57-1.26-1.26-1.26H14.67v2.44H9.83c-.28 0-.5.23-.5.5v7c0 .28.23.5.5.5h4.84v2.44h10.74c.69 0 1.26-.57 1.26-1.26v-3.74h24c3.7 0 6.71-3 6.71-6.69s-3.01-6.69-6.71-6.69H13.33c-2.11 0-3.82-1.65-3.94-3.72h53.1c.83 0 1.5-.67 1.5-1.5V19.46c0-.4-.16-.76-.41-1.03ZM14.53 58.81h-2.45v-2.5h2.45zm9.39 2.44h-6.5v-7.39h6.5zM7.23 5.49l.02-.06.02-.06a3.234 3.234 0 0 1 3.14-2.44l43.23-.17h.01c1.5 0 2.8 1.01 3.16 2.46l.02.06.02.06 3.75 12.64H3.44L7.23 5.5Zm54.02 33.66H2.75V20.72h58.5zm-42.58-6.88H8V27.6h10.67zm14 0H22V27.6h10.67zm14 0H36V27.6h10.67zm3.25-2.42c0-1.65 1.34-2.99 2.99-2.99h.02c1.65 0 2.99 1.34 2.99 2.99s-1.34 2.99-2.99 2.99h-.02c-1.65 0-2.99-1.34-2.99-2.99M32.53 11.57h-5.87l7.82-5.69-1.96 4.06h5.87l-7.82 5.69z"/>
</svg>
