<svg viewBox="0 0 40 40" xmlns="http://www.w3.org/2000/svg">
  <path d="M0 33.54c.01-.18.05-.37.1-.55l2.38-7.5a2.25 2.25 0 0 1 2.14-1.58h9.48a2.24 2.24 0 0 1 2.14 1.57l2.38 7.5c.06.18.09.37.1.55.06.91-.43 1.75-1.2 2.16-.31.16-.66.26-1.04.26H2.24c-.38 0-.73-.09-1.04-.26-.51-.27-.88-.73-1.07-1.27-.09-.27-.15-.56-.13-.86v-.03Zm39.89-.55-.58-1.82-1.8-5.67a2.32 2.32 0 0 0-1.11-1.33c-.31-.16-.66-.25-1.03-.25h-9.48a2.24 2.24 0 0 0-2.14 1.57l-2.38 7.5a2.24 2.24 0 0 0 .17 1.75c.09.18.21.34.34.49q.18.21.42.36c.35.23.76.38 1.21.38h14.24c.38 0 .73-.09 1.04-.26.77-.41 1.26-1.25 1.2-2.16-.01-.18-.05-.37-.1-.55ZM13.3 11.7c-.05.11-.1.22-.14.34l-2.38 7.5a2.36 2.36 0 0 0 .07 1.58c.07.16.15.31.25.45.4.56 1.05.93 1.81.93h14.24c.95 0 1.73-.59 2.07-1.38.13-.32.2-.67.17-1.03-.01-.18-.05-.37-.1-.55l-2.38-7.5c-.19-.59-.59-1.06-1.11-1.32-.31-.16-.66-.25-1.03-.25h-9.48a2.24 2.24 0 0 0-1.59.66c-.16.17-.3.36-.41.57Zm21.39-1.59 1.32-3.62 3.57-1.34-3.57-1.34L34.69.19l-1.32 3.62-3.57 1.34 3.57 1.34zm-24.58 1.38 1.04-2.84 2.81-1.05-2.81-1.05-1.04-2.84-1.04 2.84L6.26 7.6l2.81 1.05zM.04 40.2h39.88v-2.27H.04z"/>
</svg>
