<svg viewBox="0 0 32 32" xmlns="http://www.w3.org/2000/svg">
  <path d="M2.07 28.64h10.8c1.38 0 2.35-1.34 1.93-2.65l-1.76-5.49a2.03 2.03 0 0 0-1.93-1.41H3.83c-.88 0-1.66.57-1.93 1.41L.14 25.99c-.42 1.31.56 2.65 1.93 2.65m1.76-7.54h7.27l.03.02 1.74 5.53-10.83-.04zm24.34-2H20.9c-.88 0-1.66.57-1.93 1.41L17.21 26c-.42 1.31.56 2.65 1.93 2.65h10.8c1.38 0 2.35-1.34 1.93-2.65l-1.76-5.49a2.03 2.03 0 0 0-1.93-1.41Zm-9.06 7.51 1.79-5.51h7.27l.03.02 1.74 5.53zM10.46 9.83 8.7 15.32c-.42 1.31.56 2.65 1.93 2.65h10.8c1.38 0 2.35-1.34 1.93-2.65L21.6 9.83a2.03 2.03 0 0 0-1.93-1.41H12.4c-.88 0-1.66.57-1.93 1.41Zm9.21.6.03.02 1.74 5.53-10.83-.04 1.79-5.51zm6.98-5.07-3.08-1.14 3.08-1.14L27.78 0l1.14 3.08L32 4.22l-3.08 1.14-1.14 3.08-1.14-3.08ZM7.15 7.07l-2.47-.91 2.47-.92.91-2.47.91 2.47 2.47.92-2.47.91-.91 2.48zM0 30h32v2H0z"/>
</svg>
