<svg viewBox="0 0 24 24" xmlns="http://www.w3.org/2000/svg">
  <path d="M.23 20.42c-.18-.25-.25-.58-.15-.9l1.62-5.04a1 1 0 0 1 .96-.7h6.09c.22 0 .43.07.59.19.17.12.3.3.37.51l1.62 5.04c.21.65-.28 1.32-.96 1.32H1.04c-.17 0-.33-.04-.47-.11s-.26-.18-.35-.3Zm22.08-5.94c-.07-.21-.2-.38-.37-.51-.17-.12-.37-.19-.59-.19h-6.09a1 1 0 0 0-.59.19c-.17.12-.3.3-.37.51l-1.62 5.04c-.13.41 0 .82.3 1.07.17.15.4.25.66.25h9.32c.34 0 .63-.17.81-.41.18-.25.25-.58.15-.9l-1.62-5.04ZM7.36 12.95h9.32c.68 0 1.17-.67.96-1.32l-1.62-5.04c-.07-.21-.2-.38-.37-.51-.17-.12-.37-.19-.59-.19H8.97c-.33 0-.63.16-.81.41-.06.09-.11.18-.14.29L6.4 11.63c-.21.65.28 1.32.96 1.32m13.12-5.89.95-2.57L24 3.54l-2.57-.95-.95-2.58-.95 2.57-2.57.95 2.57.95.95 2.57ZM0 24.01h23.97v-1.75H0z"/>
</svg>
