<svg viewBox="0 0 32 32" xmlns="http://www.w3.org/2000/svg">
  <path d="M.43 27.83c-.36-.5-.5-1.16-.29-1.82l1.76-5.49a2.03 2.03 0 0 1 1.93-1.41h7.27c.44 0 .86.14 1.19.39.34.25.6.6.74 1.02l1.76 5.49c.42 1.31-.56 2.65-1.93 2.65H2.07c-.69 0-1.28-.33-1.64-.83m28.93-8.33c-.34-.25-.75-.39-1.19-.39H20.9c-.66 0-1.26.32-1.64.83-.12.17-.22.36-.29.57L17.21 26a2 2 0 0 0 .06 1.41c.24.57.74 1.02 1.37 1.18.16.04.32.06.5.06h10.8A2.025 2.025 0 0 0 31.87 26l-1.76-5.49c-.13-.42-.4-.77-.74-1.02Zm-18.9-9.65L8.7 15.34c-.05.16-.08.33-.09.49a2.03 2.03 0 0 0 2.03 2.16h10.8c1.2 0 2.1-1.03 2.03-2.16a2 2 0 0 0-.09-.49l-1.76-5.49a2.02 2.02 0 0 0-1.94-1.41h-7.27c-.22 0-.43.04-.64.1-.6.2-1.09.68-1.3 1.31Zm17.32-1.4 1.14-3.08L32 4.23l-3.08-1.14L27.78.02 26.64 3.1l-3.08 1.14 3.08 1.14 1.14 3.08ZM8.07 9.56l.91-2.48 2.48-.91-2.48-.91-.91-2.48-.91 2.48-2.48.91 2.48.91zM0 32.02h32v-2H0z"/>
</svg>
