<svg viewBox="0 0 40 40" xmlns="http://www.w3.org/2000/svg">
  <path d="M2.25 35.94h14.24c1.52 0 2.6-1.5 2.14-2.97l-2.38-7.5a2.25 2.25 0 0 0-2.14-1.58H4.63c-.97 0-1.84.64-2.14 1.58L.11 32.98c-.47 1.47.61 2.97 2.14 2.97Zm2.38-9.76h9.48l2.38 7.5H2.25zm30.74-2.28h-9.48c-.97 0-1.84.64-2.14 1.58l-2.38 7.5c-.47 1.47.61 2.97 2.14 2.97h14.24c1.52 0 2.6-1.5 2.14-2.97l-2.38-7.5a2.25 2.25 0 0 0-2.14-1.58m-11.86 9.77 2.38-7.5h9.48l2.38 7.5zM13.16 12.02l-2.38 7.5c-.47 1.47.61 2.97 2.14 2.97h14.24c1.52 0 2.6-1.5 2.14-2.97l-2.38-7.5a2.25 2.25 0 0 0-2.14-1.58H15.3c-.97 0-1.84.64-2.14 1.58m11.62.7 2.38 7.5H12.92l2.38-7.5zm8.58-6.24-3.58-1.34 3.58-1.34L34.68.18 36 3.8l3.57 1.34L36 6.48l-1.32 3.62zM9.07 8.63 6.26 7.58l2.81-1.05 1.04-2.84 1.04 2.84 2.81 1.05-2.81 1.05-1.04 2.84zM.04 37.92h39.88v2.27H.04z"/>
</svg>
