<svg viewBox="0 0 24 24" xmlns="http://www.w3.org/2000/svg">
  <path d="M1.04 20.82h9.32c.68 0 1.17-.67.96-1.32L9.7 14.46a1 1 0 0 0-.96-.7H2.66a1 1 0 0 0-.96.7L.08 19.5c-.21.65.28 1.32.96 1.32m2.16-5.31h5.01l1.14 3.56H2.06zm19.11-1.05a1 1 0 0 0-.96-.7h-6.09a1 1 0 0 0-.96.7l-1.62 5.04c-.21.65.28 1.32.96 1.32h9.32c.68 0 1.17-.67.96-1.32l-1.62-5.04Zm-7.65 4.61 1.14-3.56h5.01l1.14 3.56zm-7.3-6.14h9.32c.68 0 1.17-.67.96-1.32l-1.62-5.04a1 1 0 0 0-.96-.7H8.97a1 1 0 0 0-.96.7l-1.62 5.04c-.21.65.28 1.32.96 1.32Zm2.16-5.31h5.01l1.14 3.56H8.38zm10.01-3.15-2.57-.95 2.57-.95.95-2.57.95 2.57 2.57.95-2.57.95-.95 2.57zM0 22.24h23.97v1.75H0z"/>
</svg>
