<svg viewBox="0 0 32 32" xmlns="http://www.w3.org/2000/svg">
  <path fill="#1e1e1c" d="m16.9 16.24-2.54.6a7.4 7.4 0 0 0-3.1-1.77l-.77-2.55h-2.7l-.77 2.55c-1.16.34-2.21.93-3.07 1.75l-2.6-.61-1.33 2.32 1.82 1.94c-.14.58-.24 1.17-.24 1.79s.09 1.17.22 1.73l-1.83 1.95 1.35 2.34 2.57-.6c.85.82 1.9 1.42 3.07 1.77l.77 2.56h2.7l.76-2.52c1.18-.34 2.25-.94 3.12-1.76l2.55.6 1.35-2.34-1.79-1.9c.15-.59.25-1.19.25-1.82s-.09-1.21-.23-1.78l1.8-1.91-1.35-2.34Zm-7.75 9.04c-1.67 0-3.02-1.35-3.02-3.02s1.35-3.02 3.02-3.02 3.02 1.35 3.02 3.02-1.35 3.02-3.02 3.02M30.44 9.75c0-.62-.09-1.21-.23-1.78l1.8-1.91-1.35-2.34-2.54.6a7.4 7.4 0 0 0-3.1-1.77L24.25 0h-2.7l-.77 2.55c-1.16.34-2.21.93-3.07 1.75l-2.6-.61-1.35 2.34 1.82 1.94c-.14.58-.24 1.17-.24 1.79s.09 1.17.22 1.73l-1.83 1.95 1.35 2.34 2.57-.6c.85.82 1.9 1.42 3.07 1.77l.77 2.56h2.7l.76-2.52c1.18-.34 2.25-.94 3.12-1.76l2.55.6 1.35-2.34-1.79-1.9c.15-.59.25-1.19.25-1.82Zm-7.54 3.01c-1.67 0-3.02-1.35-3.02-3.02s1.35-3.02 3.02-3.02 3.02 1.35 3.02 3.02-1.35 3.02-3.02 3.02"/>
</svg>
