<svg viewBox="0 0 24 24" xmlns="http://www.w3.org/2000/svg">
  <path fill="#1e1e1c" d="M7.1 13.86a2.86 2.86 0 1 0-.001 5.719A2.86 2.86 0 0 0 7.1 13.86m0 3.97c-.61 0-1.11-.5-1.11-1.11s.5-1.11 1.11-1.11 1.11.5 1.11 1.11-.5 1.11-1.11 1.11m9.83-13.4a2.86 2.86 0 1 0-.001 5.719 2.86 2.86 0 0 0 .001-5.719m0 3.96c-.61 0-1.11-.5-1.11-1.11s.5-1.11 1.11-1.11 1.11.5 1.11 1.11-.5 1.11-1.11 1.11m5.83-1.1c0-.29-.03-.59-.08-.9L24 4.99l-1.54-2.66-1.86.44c-.46-.37-1-.68-1.57-.9L18.47 0H15.4l-.56 1.87c-.56.22-1.08.51-1.54.88l-1.91-.45-1.54 2.66 1.33 1.42c-.06.32-.08.62-.08.91s.02.57.07.87L9.83 9.59l1.44 2.5-.5.12c-.47-.37-1-.68-1.57-.89l-.56-1.87H5.57l-.56 1.87c-.56.21-1.08.51-1.54.88l-1.91-.45-1.54 2.64 1.33 1.42c-.05.32-.08.62-.08.91s.02.57.07.87L0 19.01l1.54 2.66 1.88-.44c.46.37.98.67 1.55.89L5.53 24H8.6l.56-1.85c.57-.22 1.11-.52 1.58-.89l1.88.44 1.54-2.66-1.31-1.39c.06-.33.09-.63.09-.93s-.03-.59-.08-.9l1.32-1.4-1.44-2.5.52-.12c.46.37.98.67 1.55.89l.56 1.88h3.07l.56-1.85c.57-.22 1.11-.52 1.58-.89l1.88.44L24 9.61l-1.31-1.39c.06-.33.09-.63.09-.93Zm-11.7 8.46c.09.37.13.67.13.96s-.04.61-.14.99l-.12.46 1.06 1.12-.24.41-1.5-.35-.34.33c-.46.44-1.05.77-1.69.95l-.46.13-.45 1.49h-.47l-.45-1.51-.45-.14c-.64-.19-1.21-.52-1.66-.96l-.34-.33-1.52.36-.24-.41 1.08-1.15-.11-.46c-.08-.34-.12-.65-.12-.94s.04-.6.13-.97l.11-.46-1.08-1.15.24-.41 1.53.36.34-.33c.45-.43 1.03-.76 1.66-.94l.46-.13.45-1.51h.47l.45 1.51.46.13c.64.19 1.22.52 1.68.96l.34.33 1.5-.35.24.41-1.06 1.13.11.46Zm9.83-9.42c.09.35.13.67.13.96s-.04.61-.14.99l-.11.46 1.05 1.12-.24.41-1.51-.35-.34.33c-.46.44-1.05.77-1.69.95l-.46.13-.45 1.49h-.47l-.45-1.51-.45-.14a3.9 3.9 0 0 1-1.66-.96l-.34-.33-1.52.36-.24-.41 1.08-1.15-.11-.46c-.08-.34-.12-.65-.12-.94s.04-.6.13-.97l.11-.46-1.08-1.15.24-.41 1.53.36.34-.33a3.9 3.9 0 0 1 1.66-.94l.45-.13.45-1.51h.47l.45 1.51.45.13c.64.19 1.22.52 1.68.96l.34.33 1.5-.35.24.41-1.06 1.13.11.46Z"/>
</svg>
