<svg viewBox="0 0 16 16" xmlns="http://www.w3.org/2000/svg">
  <path fill="#1e1e1c" d="M10.49 15.79H5.47v-2.33c-.34-.16-.66-.34-.96-.56l-2.02 1.17-2.51-4.35 2-1.16a5.6 5.6 0 0 1 0-1.14l-2-1.14 2.51-4.35L4.51 3.1c.3-.22.62-.4.96-.56V.21h5.02v2.33c.34.16.66.34.96.56l2.02-1.17 2.51 4.35-2 1.16a5.6 5.6 0 0 1 0 1.14l2 1.16-2.51 4.35-2.02-1.17c-.3.22-.62.4-.96.56v2.33Zm-3.52-1.5h2.02v-1.86l.5-.18c.52-.18.99-.46 1.41-.82l.4-.34 1.62.94 1.01-1.75-1.6-.93.1-.52c.06-.3.08-.57.08-.82s-.03-.51-.08-.83l-.1-.52 1.6-.93-1.01-1.75-1.62.93-.4-.34c-.42-.36-.9-.64-1.42-.82l-.5-.18V1.71H6.96v1.86l-.5.18c-.52.18-.99.46-1.41.82l-.4.34-1.62-.94-1.01 1.75 1.6.93-.1.52c-.06.31-.08.57-.08.83s.03.51.08.83l.1.52-1.6.93 1.01 1.75 1.62-.94.4.34c.42.36.9.64 1.41.82l.5.18v1.87Zm1.01-3.04c-1.79 0-3.25-1.46-3.25-3.25s1.46-3.25 3.25-3.25S11.23 6.21 11.23 8s-1.46 3.25-3.25 3.25m0-5c-.96 0-1.75.79-1.75 1.75s.78 1.75 1.75 1.75S9.73 8.96 9.73 8s-.78-1.75-1.75-1.75"/>
</svg>
