<svg viewBox="0 0 24 24" xmlns="http://www.w3.org/2000/svg">
  <path fill="#1e1e1c" d="m12.69 12.17-1.91.45a5.64 5.64 0 0 0-2.33-1.33l-.58-1.91H5.85l-.58 1.91c-.87.26-1.66.7-2.3 1.31l-1.95-.46-1 1.75 1.37 1.46c-.11.43-.18.88-.18 1.34s.07.88.16 1.3L0 19.45l1.01 1.75 1.93-.45c.64.62 1.43 1.07 2.3 1.33L5.82 24h2.02l.57-1.89c.89-.25 1.69-.7 2.34-1.32l1.91.45 1.01-1.75-1.34-1.42c.11-.44.19-.89.19-1.37s-.07-.9-.18-1.34l1.35-1.43-1.01-1.75Zm-5.82 6.79c-1.25 0-2.26-1.01-2.26-2.26s1.01-2.26 2.26-2.26 2.26 1.01 2.26 2.26-1.01 2.26-2.26 2.26M22.83 7.32c0-.46-.07-.9-.18-1.33L24 4.56l-1.01-1.75-1.91.45a5.64 5.64 0 0 0-2.33-1.33L18.18 0h-2.02l-.58 1.91c-.87.26-1.66.7-2.3 1.31l-1.95-.46-1.01 1.75 1.37 1.46c-.11.43-.18.88-.18 1.34s.07.88.16 1.3l-1.37 1.46 1.01 1.75 1.93-.45c.64.62 1.43 1.07 2.3 1.33l.58 1.92h2.02l.57-1.89c.89-.25 1.69-.7 2.34-1.32l1.91.45 1.01-1.75-1.34-1.42c.11-.44.19-.89.19-1.37Zm-5.66 2.27c-1.25 0-2.26-1.01-2.26-2.26s1.01-2.26 2.26-2.26 2.26 1.01 2.26 2.26-1.01 2.26-2.26 2.26"/>
</svg>
