<svg viewBox="0 0 16 16" xmlns="http://www.w3.org/2000/svg">
  <path d="M5.59 8.41c-.28-.3-.27-.78.04-1.06.3-.28.78-.27 1.06.04l.97 1.03 1.95-2.96c.23-.35.69-.44 1.04-.21s.44.69.21 1.04l-3 4.55zm9.28-4.03c0 .21.17.38.38.38H16v2.86h-.75a.38.38 0 1 0 0 .76H16v2.86h-.75a.38.38 0 1 0 0 .76H16v2.86h-.75a.38.38 0 0 0-.38.38v.75h-2.86v-.75a.38.38 0 1 0-.76 0v.75H8.39v-.75a.38.38 0 1 0-.76 0v.75H4.77v-.75a.38.38 0 1 0-.76 0v.75H1.13v-.75a.38.38 0 0 0-.38-.38H0V12h.75a.38.38 0 1 0 0-.76H0V8.38h.75a.38.38 0 1 0 0-.76H0V4.76h.75a.38.38 0 1 0 0-.76H0V1.14h.75c.21 0 .38-.17.38-.38V0h2.86v.75a.38.38 0 1 0 .76 0V0h2.86v.75a.38.38 0 1 0 .76 0V0h2.86v.75a.38.38 0 1 0 .76 0V0h2.86v.75c0 .21.17.38.38.38h.75v2.86h-.75a.38.38 0 0 0-.38.38Zm-.37-1.9c-.44-.19-.79-.54-.98-.98h-.17c-.29.67-.96 1.13-1.73 1.13s-1.44-.47-1.73-1.13h-.17c-.29.67-.96 1.13-1.73 1.13S6.55 2.16 6.26 1.5h-.17c-.29.67-.96 1.13-1.73 1.13S2.92 2.16 2.63 1.5h-.17c-.19.44-.54.79-.98.98v.17c.67.29 1.13.95 1.13 1.73s-.47 1.44-1.13 1.73v.17c.67.29 1.13.95 1.13 1.73s-.47 1.44-1.13 1.73v.17c.67.29 1.13.95 1.13 1.73s-.47 1.44-1.13 1.73v.17c.44.19.79.54.98.98h.17c.29-.67.96-1.13 1.73-1.13s1.44.47 1.73 1.13h.17c.29-.67.96-1.13 1.73-1.13s1.44.47 1.73 1.13h.17c.29-.67.96-1.13 1.73-1.13s1.44.47 1.73 1.13h.17c.19-.44.54-.79.98-.98v-.17c-.67-.29-1.13-.95-1.13-1.73s.47-1.44 1.13-1.73v-.17c-.67-.29-1.13-.95-1.13-1.73s.47-1.44 1.13-1.73v-.17c-.67-.29-1.13-.95-1.13-1.73s.47-1.44 1.13-1.73zm-1.47 1.24v8.51c0 .41-.34.75-.75.75H3.77c-.41 0-.75-.34-.75-.75V3.72c0-.41.34-.75.75-.75h8.51c.41 0 .75.34.75.75m-1.51.75H4.51v7.01h7.01z"/>
</svg>
