<svg viewBox="0 0 64 64" xmlns="http://www.w3.org/2000/svg">
  <path d="M64 11.01v-6c-2.76 0-5-2.24-5-5h-6c0 2.76-2.24 5-5 5s-5-2.23-5-4.99h-6c0 2.76-2.24 5-5 5s-5-2.24-5-5h-6c0 2.76-2.24 5-5 5s-5-2.24-5-5H5c0 2.76-2.24 5-5 5v6c2.76 0 5 2.24 5 5s-2.24 5-5 5v6c2.76 0 5 2.24 5 5s-2.24 5-5 5v6c2.76 0 5 2.24 5 5s-2.24 5-5 5v6c2.76 0 5 2.24 5 5h6c0-2.76 2.24-5 5-5s5 2.24 5 5h6c0-2.76 2.24-5 5-5s5 2.24 5 5h6c0-2.76 2.24-5 5-5s5 2.24 5 5h6c0-2.76 2.24-5 5-5v-6c-2.76 0-5-2.24-5-5s2.24-5 5-5v-6c-2.76 0-5-2.24-5-5s2.24-5 5-5v-6c-2.76 0-5-2.24-5-5s2.24-5 5-5ZM51.43 49.87c0 .76-.62 1.38-1.38 1.38H14.12c-.76 0-1.38-.62-1.38-1.38V13.92c0-.76.62-1.38 1.38-1.38h35.94c.76 0 1.38.62 1.38 1.38v35.94Zm-35.94-1.38h33.19V15.3H15.49zm7.7-17.92c.55-.52 1.43-.49 1.94.07l5.64 6.04 9.5-14.4c.42-.63 1.27-.81 1.91-.39.63.42.81 1.27.39 1.91L31.15 41.11l-8.02-8.59c-.52-.55-.49-1.42.07-1.94Z"/>
</svg>
