<svg viewBox="0 0 40 40" xmlns="http://www.w3.org/2000/svg">
  <path fill="#1e1e1c" d="M11.9 23.06c-2.53 0-4.59 2.06-4.59 4.6s2.06 4.6 4.59 4.6 4.59-2.06 4.59-4.6-2.06-4.6-4.59-4.6m0 6.95c-1.29 0-2.34-1.05-2.34-2.35s1.05-2.34 2.34-2.34 2.34 1.05 2.34 2.34-1.05 2.35-2.34 2.35M28.13 7.75c-2.53 0-4.59 2.06-4.59 4.6s2.06 4.6 4.59 4.6 4.59-2.06 4.59-4.6-2.06-4.6-4.59-4.6m0 6.94c-1.29 0-2.34-1.05-2.34-2.35S26.84 10 28.13 10s2.34 1.05 2.34 2.34-1.05 2.35-2.34 2.35m9.79-2.34c0-.54-.06-1.11-.17-1.71l2.23-2.38-2.39-4.14-3.16.75c-.87-.73-1.87-1.3-2.97-1.7L30.51 0h-4.77l-.95 3.17a9.9 9.9 0 0 0-2.93 1.67l-3.23-.76-2.39 4.14 2.27 2.41c-.12.61-.17 1.17-.17 1.72s.05 1.07.16 1.65l-2.28 2.42 2.15 3.73-.16.04c-.87-.73-1.87-1.3-2.97-1.7l-.95-3.17H9.52l-.95 3.17a9.9 9.9 0 0 0-2.93 1.67l-3.23-.76-2.4 4.13 2.26 2.41c-.12.61-.17 1.18-.17 1.72s.05 1.08.16 1.65l-2.28 2.42 2.39 4.14 3.19-.75c.85.72 1.85 1.29 2.93 1.69L9.45 40h4.77l.94-3.14c1.1-.39 2.11-.96 2.99-1.69l3.18.75 2.39-4.14-2.22-2.36c.12-.62.18-1.2.18-1.76s-.06-1.11-.17-1.71l2.23-2.38-2.15-3.73.19-.05c.85.72 1.85 1.29 2.93 1.69l.96 3.19h4.77l.94-3.14c1.1-.39 2.11-.96 2.99-1.69l3.18.75 2.38-4.14-2.22-2.36c.12-.62.18-1.19.18-1.76ZM19.2 25.88c.16.67.24 1.23.24 1.78s-.08 1.14-.25 1.83l-.15.6 1.9 2.02-.71 1.24-2.71-.64-.44.42c-.86.81-1.94 1.42-3.12 1.76l-.59.17-.81 2.69h-1.43l-.82-2.72-.58-.17c-1.18-.36-2.24-.97-3.07-1.77l-.44-.43-2.74.65-.71-1.24L4.72 30l-.14-.59c-.15-.63-.22-1.2-.22-1.74s.08-1.12.24-1.79l.14-.59-1.94-2.07.71-1.24 2.76.65.44-.42c.84-.8 1.9-1.4 3.07-1.75l.58-.17.82-2.72h1.43l.82 2.72.58.17c1.18.35 2.26.96 3.1 1.78l.44.42 2.7-.64.71 1.24-1.91 2.03.14.59Zm16.24-15.31c.16.67.24 1.23.24 1.78s-.08 1.14-.25 1.83l-.15.6 1.9 2.02-.71 1.24-2.71-.64-.44.42c-.86.81-1.94 1.42-3.12 1.76l-.59.17-.81 2.69h-1.43l-.82-2.72-.58-.17c-1.18-.36-2.24-.97-3.07-1.77l-.44-.43-2.74.65-.71-1.24 1.95-2.07-.14-.59c-.15-.63-.22-1.2-.22-1.74s.08-1.12.24-1.79l.15-.6-1.94-2.07.71-1.24 2.76.65.44-.42c.84-.8 1.9-1.4 3.07-1.75l.58-.17.82-2.72h1.43l.82 2.72.58.17c1.19.35 2.26.96 3.1 1.77l.44.42 2.7-.64.71 1.24-1.91 2.03.14.59Z"/>
</svg>
