<svg viewBox="0 0 24 24" xmlns="http://www.w3.org/2000/svg">
  <path fill="#1e1e1c" d="M21 12c0-.56-.07-1.1-.17-1.64l3.06-1.77-3-5.19-3.08 1.78c-.83-.7-1.77-1.26-2.81-1.63V0H9v3.55c-1.04.37-1.98.93-2.81 1.63L3.11 3.4.1 8.6l3.06 1.76c-.1.53-.17 1.08-.17 1.64s.07 1.1.17 1.64L.1 15.4l3 5.2 3.08-1.78c.82.7 1.77 1.26 2.81 1.63V24h6v-3.55c1.04-.37 1.98-.93 2.81-1.63l3.08 1.78 3-5.2-3.06-1.76c.1-.53.17-1.08.17-1.64Zm-4.75 0c0 2.35-1.91 4.26-4.26 4.26S7.73 14.35 7.73 12s1.91-4.26 4.26-4.26 4.26 1.91 4.26 4.26"/>
</svg>
