<svg viewBox="0 0 48 48" xmlns="http://www.w3.org/2000/svg">
  <path fill="#1e1e1c" d="M14.23 27.83c-2.99 0-5.43 2.43-5.43 5.43s2.43 5.43 5.43 5.43 5.43-2.43 5.43-5.43-2.43-5.43-5.43-5.43m0 8.35c-1.61 0-2.93-1.31-2.93-2.93s1.31-2.93 2.93-2.93 2.93 1.31 2.93 2.93-1.31 2.93-2.93 2.93M33.85 9.33c-2.99 0-5.43 2.43-5.43 5.43s2.43 5.43 5.43 5.43 5.43-2.43 5.43-5.43-2.43-5.43-5.43-5.43m0 8.35c-1.61 0-2.93-1.31-2.93-2.93s1.31-2.93 2.93-2.93 2.93 1.31 2.93 2.93-1.31 2.93-2.93 2.93m11.69-2.92c0-.67-.07-1.35-.21-2.09L48 9.83l-2.8-4.84-3.78.89c-1.05-.89-2.29-1.6-3.64-2.08L36.64 0h-5.59l-1.14 3.8c-1.32.47-2.54 1.17-3.58 2.04l-3.87-.91-2.8 4.84 2.71 2.88c-.14.74-.22 1.43-.22 2.11s.06 1.31.2 2.02l-2.73 2.9 2.65 4.59-.47.11c-1.05-.89-2.29-1.6-3.64-2.08l-1.14-3.8h-5.59l-1.14 3.8c-1.32.47-2.54 1.17-3.58 2.04l-3.87-.91-2.8 4.84 2.71 2.88c-.14.74-.22 1.43-.22 2.1s.06 1.31.2 2.02L0 38.17l2.8 4.84 3.82-.9c1.04.88 2.26 1.59 3.59 2.07l1.15 3.81h5.6l1.13-3.75c1.35-.47 2.59-1.17 3.66-2.07l3.81.9 2.8-4.84-2.66-2.82c.15-.76.23-1.46.23-2.15s-.07-1.35-.21-2.09l2.67-2.84-2.65-4.59.51-.12c1.04.88 2.26 1.59 3.59 2.07l1.15 3.81h5.6l1.13-3.75c1.35-.47 2.59-1.17 3.66-2.07l3.81.9 2.8-4.84-2.66-2.82c.15-.76.23-1.47.23-2.15ZM23.13 31.09c.19.79.29 1.5.29 2.17s-.1 1.39-.31 2.22l-.17.66 2.31 2.45-.94 1.63-3.29-.78-.49.47c-1.04.99-2.36 1.73-3.8 2.14l-.66.19-.98 3.26h-1.88l-.99-3.29-.64-.19c-1.43-.43-2.73-1.18-3.74-2.16l-.49-.47-3.32.78-.94-1.63 2.36-2.51-.15-.65c-.18-.77-.27-1.46-.27-2.11s.1-1.38.29-2.18l.16-.66-2.36-2.5.94-1.63 3.35.79.49-.46a9.1 9.1 0 0 1 3.74-2.12l.65-.19.99-3.29h1.88l.99 3.29.65.19c1.45.42 2.75 1.17 3.78 2.16l.49.47 3.27-.77.94 1.63-2.32 2.46.16.66Zm19.62-18.5c.19.79.29 1.5.29 2.17s-.1 1.39-.31 2.22l-.17.66 2.31 2.45-.94 1.63-3.29-.78-.49.47c-1.04.99-2.36 1.73-3.8 2.14l-.66.19-.98 3.26h-1.88l-.99-3.29-.64-.19c-1.43-.43-2.73-1.18-3.74-2.16l-.49-.47-3.32.78-.94-1.63 2.36-2.51-.15-.65c-.18-.77-.27-1.46-.27-2.11s.1-1.38.29-2.18l.16-.66-2.36-2.5.94-1.63 3.35.79.49-.47c1.02-.97 2.32-1.71 3.74-2.13l.65-.19.99-3.29h1.88l.99 3.29.65.19c1.45.42 2.75 1.17 3.78 2.16l.49.47 3.27-.77.94 1.63-2.32 2.46.16.66Z"/>
</svg>
