<svg viewBox="0 0 16 16" xmlns="http://www.w3.org/2000/svg">
  <path d="M4.52 11.49h7v-7h-7zm1.56-4.16c.3-.28.78-.27 1.06.04l.6.65 1.4-2.12c.23-.35.69-.44 1.04-.21s.44.69.21 1.04l-2.45 3.71-1.9-2.04c-.28-.3-.27-.78.04-1.06ZM16 2.77v-1.5c-.69 0-1.25-.56-1.25-1.25h-1.5a1.25 1.25 0 0 1-2.5 0h-1.5a1.25 1.25 0 0 1-2.5 0h-1.5a1.25 1.25 0 0 1-2.5 0h-1.5C1.25.71.69 1.27 0 1.27v1.5a1.25 1.25 0 0 1 0 2.5v1.5a1.25 1.25 0 0 1 0 2.5v1.5a1.25 1.25 0 0 1 0 2.5v1.5c.69 0 1.25.56 1.25 1.25h1.5a1.25 1.25 0 0 1 2.5 0h1.5a1.25 1.25 0 0 1 2.5 0h1.5a1.25 1.25 0 0 1 2.5 0h1.5c0-.69.56-1.25 1.25-1.25v-1.5a1.25 1.25 0 0 1 0-2.5v-1.5a1.25 1.25 0 0 1 0-2.5v-1.5a1.25 1.25 0 0 1 0-2.5m-2.98 9.47c0 .41-.34.75-.75.75h-8.5c-.41 0-.75-.34-.75-.75v-8.5c0-.41.34-.75.75-.75h8.5c.41 0 .75.34.75.75z"/>
</svg>
