<svg viewBox="0 0 40 40" xmlns="http://www.w3.org/2000/svg">
  <path d="M10.1 29.89H30V9.99H10.1zm4.28-10.97c.45-.42 1.17-.4 1.59.05l3.24 3.46 5.66-8.58a1.127 1.127 0 0 1 1.88 1.24l-7.24 10.96-5.18-5.55c-.42-.45-.4-1.17.05-1.59ZM40 6.89V3.14c-1.73 0-3.12-1.4-3.12-3.12h-3.75c0 1.73-1.4 3.12-3.12 3.12s-3.13-1.4-3.13-3.12h-3.75c0 1.73-1.4 3.12-3.12 3.12s-3.13-1.4-3.13-3.12h-3.75c0 1.73-1.4 3.12-3.12 3.12S6.88 1.74 6.88.02H3.13c0 1.73-1.4 3.12-3.12 3.12v3.75c1.73 0 3.12 1.4 3.12 3.12s-1.4 3.12-3.12 3.12v3.75c1.73 0 3.12 1.4 3.12 3.12s-1.4 3.12-3.12 3.12v3.75c1.73 0 3.12 1.4 3.12 3.12s-1.4 3.12-3.12 3.12v3.75c1.73 0 3.12 1.4 3.12 3.12h3.75c0-1.73 1.4-3.12 3.12-3.12s3.12 1.4 3.12 3.12h3.75c0-1.73 1.4-3.12 3.12-3.12s3.12 1.4 3.12 3.12h3.75c0-1.73 1.4-3.12 3.12-3.12s3.12 1.4 3.12 3.12h3.75c0-1.73 1.4-3.12 3.12-3.12v-3.75c-1.73 0-3.12-1.4-3.12-3.12s1.4-3.12 3.12-3.12v-3.75c-1.73 0-3.12-1.4-3.12-3.12s1.4-3.12 3.12-3.12v-3.75c-1.73 0-3.12-1.4-3.12-3.12s1.4-3.12 3.12-3.12Zm-7.74 24.13c0 .62-.5 1.12-1.12 1.12H8.98c-.62 0-1.12-.5-1.12-1.12V8.87c0-.62.5-1.12 1.12-1.12h22.15c.62 0 1.12.5 1.12 1.12v22.15Z"/>
</svg>
