<svg viewBox="0 0 24 24" xmlns="http://www.w3.org/2000/svg">
  <path d="M24 4.14V1.89c-1.04 0-1.88-.84-1.88-1.88h-2.25c0 1.04-.84 1.88-1.88 1.88s-1.88-.84-1.88-1.88h-2.25c0 1.04-.84 1.88-1.88 1.88S10.1 1.05 10.1.01H7.85c0 1.04-.84 1.88-1.88 1.88S4.12 1.05 4.12.02H1.88C1.88 1.06 1.04 1.9 0 1.9v2.25c1.04 0 1.88.84 1.88 1.88S1.04 7.91 0 7.91v2.25c1.04 0 1.88.84 1.88 1.88S1.04 13.92 0 13.92v2.25c1.04 0 1.88.84 1.88 1.88S1.04 19.93 0 19.93v2.25c1.04 0 1.88.84 1.88 1.88h2.25c0-1.04.84-1.88 1.88-1.88s1.88.84 1.88 1.88h2.25c0-1.04.84-1.88 1.88-1.88s1.88.84 1.88 1.88h2.25c0-1.04.84-1.88 1.88-1.88s1.88.84 1.88 1.88h2.25c0-1.04.84-1.88 1.88-1.88v-2.25c-1.04 0-1.88-.84-1.88-1.88s.84-1.88 1.88-1.88v-2.25c-1.04 0-1.88-.84-1.88-1.88s.84-1.88 1.88-1.88V7.91c-1.04 0-1.88-.84-1.88-1.88s.84-1.88 1.88-1.88ZM19.43 18.5c0 .48-.39.88-.88.88H5.51c-.48 0-.88-.39-.88-.88V5.45c0-.48.39-.88.88-.88h13.05c.48 0 .88.39.88.88V18.5Zm-13.05-.88h11.3V6.32H6.38zm2.16-6.4c.35-.33.91-.31 1.24.04l1.72 1.84 3.19-4.83c.27-.4.81-.51 1.21-.25.4.27.51.81.25 1.21l-4.41 6.68-3.24-3.47a.88.88 0 0 1 .04-1.24Z"/>
</svg>
