<svg viewBox="0 0 64 64" xmlns="http://www.w3.org/2000/svg">
  <path fill="#1e1e1c" d="m33.8 32.47-5.08 1.2c-1.72-1.65-3.85-2.86-6.2-3.55l-1.53-5.1H15.6l-1.53 5.1c-2.32.68-4.42 1.87-6.13 3.49l-5.19-1.22-2.7 4.67 3.65 3.88c-.28 1.15-.47 2.34-.47 3.58s.17 2.35.44 3.47L.01 51.88l2.7 4.67 5.13-1.21c1.7 1.65 3.81 2.85 6.14 3.55L15.52 64h5.39l1.52-5.05c2.37-.68 4.5-1.87 6.24-3.52l5.1 1.2 2.7-4.67-3.57-3.8c.29-1.17.49-2.38.49-3.65s-.19-2.41-.47-3.56l3.59-3.82-2.7-4.67ZM18.3 50.55a6.03 6.03 0 1 1 0-12.06 6.03 6.03 0 0 1 0 12.06M60.87 19.5c0-1.23-.19-2.41-.47-3.56l3.59-3.82-2.7-4.67-5.08 1.2C54.49 7 52.36 5.79 50.01 5.1L48.5 0h-5.39l-1.53 5.1c-2.32.68-4.42 1.87-6.13 3.49l-5.19-1.22-2.7 4.67 3.65 3.88c-.28 1.15-.47 2.34-.47 3.58s.17 2.35.44 3.47l-3.66 3.89 2.7 4.67 5.13-1.21c1.7 1.65 3.81 2.85 6.14 3.55l1.54 5.11h5.39l1.52-5.05c2.37-.68 4.5-1.87 6.24-3.52l5.1 1.2 2.7-4.67-3.57-3.8c.29-1.17.49-2.38.49-3.65ZM45.8 25.53a6.03 6.03 0 1 1 0-12.06 6.03 6.03 0 0 1 0 12.06"/>
</svg>
