<svg viewBox="0 0 40 40" xmlns="http://www.w3.org/2000/svg">
  <path fill="#1e1e1c" d="M34.98 19.94c0-.93-.11-1.84-.28-2.73l5.1-2.94-5-8.66-5.14 2.97c-1.38-1.17-2.95-2.1-4.68-2.72V-.06h-10v5.92c-1.73.62-3.3 1.54-4.68 2.72L5.16 5.61l-5 8.67 5.09 2.94c-.16.89-.28 1.79-.28 2.73s.11 1.84.28 2.73L.16 25.61l5 8.66 5.14-2.97a14.9 14.9 0 0 0 4.68 2.72v5.92h10v-5.92c1.73-.62 3.3-1.54 4.68-2.72l5.14 2.97 5-8.66-5.09-2.94c.16-.89.28-1.79.28-2.73Zm-7.9 0c0 3.91-3.19 7.1-7.1 7.1s-7.1-3.19-7.1-7.1 3.19-7.1 7.1-7.1 7.1 3.19 7.1 7.1"/>
</svg>
