<svg viewBox="0 0 64 64" xmlns="http://www.w3.org/2000/svg">
  <path fill="#1e1e1c" d="M55.97 32c0-1.5-.18-2.95-.44-4.37l8.15-4.71-8-13.85-8.22 4.75a23.8 23.8 0 0 0-7.49-4.35V0h-16v9.47c-2.78.99-5.29 2.47-7.49 4.34L8.26 9.06l-8 13.87 8.15 4.71c-.26 1.42-.44 2.87-.44 4.36s.18 2.94.44 4.36L.26 41.07l8 13.86 8.22-4.75c2.2 1.88 4.71 3.35 7.49 4.34v9.47h16v-9.47a23.8 23.8 0 0 0 7.49-4.35l8.22 4.75 8-13.86-8.15-4.71c.26-1.42.44-2.87.44-4.36Zm-12.64 0c0 6.26-5.1 11.36-11.36 11.36S20.61 38.26 20.61 32s5.1-11.36 11.36-11.36S43.33 25.74 43.33 32"/>
</svg>
