<svg viewBox="0 0 48 48" xmlns="http://www.w3.org/2000/svg">
  <path d="M11.96 36.03h24.2v-24.2h-24.2zm5.34-13.25c.5-.47 1.3-.44 1.77.06l3.99 4.27 6.9-10.45c.38-.58 1.16-.74 1.73-.35.58.38.74 1.16.35 1.73l-8.65 13.1-6.16-6.59c-.47-.5-.44-1.3.06-1.77ZM48 8.27v-4.5c-2.07 0-3.75-1.68-3.75-3.75h-4.5c0 2.07-1.68 3.75-3.75 3.75S32.25 2.09 32.25.02h-4.5c0 2.07-1.68 3.75-3.75 3.75S20.25 2.09 20.25.02h-4.5c0 2.07-1.68 3.75-3.75 3.75S8.25 2.09 8.25.02h-4.5c0 2.07-1.68 3.75-3.75 3.75v4.5c2.07 0 3.75 1.68 3.75 3.75S2.07 15.77 0 15.77v4.5c2.07 0 3.75 1.68 3.75 3.75S2.07 27.77 0 27.77v4.5c2.07 0 3.75 1.68 3.75 3.75S2.07 39.77 0 39.77v4.5c2.07 0 3.75 1.68 3.75 3.75h4.5c0-2.07 1.68-3.75 3.75-3.75s3.75 1.68 3.75 3.75h4.5c0-2.07 1.68-3.75 3.75-3.75s3.75 1.68 3.75 3.75h4.5c0-2.07 1.68-3.75 3.75-3.75s3.75 1.68 3.75 3.75h4.5c0-2.07 1.68-3.75 3.75-3.75v-4.5c-2.07 0-3.75-1.68-3.75-3.75s1.68-3.75 3.75-3.75v-4.5c-2.07 0-3.75-1.68-3.75-3.75s1.68-3.75 3.75-3.75v-4.5c-2.07 0-3.75-1.68-3.75-3.75S45.93 8.27 48 8.27m-9.33 29.01c0 .69-.56 1.25-1.25 1.25H10.71c-.69 0-1.25-.56-1.25-1.25v-26.7c0-.69.56-1.25 1.25-1.25h26.7c.69 0 1.25.56 1.25 1.25v26.7Z"/>
</svg>
