<svg viewBox="0 0 16 16" xmlns="http://www.w3.org/2000/svg">
  <path d="M.96 9.35H5.8v6.67H2.21c-.69 0-1.25-.56-1.25-1.25zm6.34 6.67h1.22V9.35H7.3zm2.72 0h3.69c.69 0 1.25-.56 1.25-1.25V9.35h-4.94zM16 5.24v2.64h-5.98v-2.7c-.07 0-.14.02-.21.02H8.52v2.67H7.3V5.2H6.1c-.1 0-.2-.02-.3-.03v2.71H0V5.24c0-.69.56-1.26 1.25-1.26h2.6c-.24-.38-.38-.83-.38-1.32A2.63 2.63 0 0 1 6.1.02c.78 0 1.4.24 1.85.7C8.4.26 9.03.02 9.8.02a2.65 2.65 0 0 1 2.64 2.64c0 .49-.14.93-.38 1.32h2.69c.69 0 1.25.56 1.25 1.25ZM6.27 3.7h.89c0-.34 0-.71.04-1.08-.05-.35-.14-.66-.32-.85-.06-.06-.24-.25-.78-.25-.63 0-1.13.51-1.13 1.14 0 .67.57 1.03 1.13 1.03h.18Zm3.54-.01c.56 0 1.14-.35 1.14-1.03 0-.63-.51-1.14-1.14-1.14-.54 0-.72.19-.78.25-.18.19-.28.49-.32.85.04.37.04.74.04 1.08h1.07Z"/>
</svg>
