<svg viewBox="0 0 48 48" xmlns="http://www.w3.org/2000/svg">
  <path d="M47.99 13.74c0-.97-.79-1.75-1.75-1.75H34.28c1.43-1.2 2.31-2.96 2.31-5.01C36.58 3.14 33.45.01 29.6.01c-2.07 0-3.71.61-4.88 1.81a5.7 5.7 0 0 0-.75.95 6 6 0 0 0-.75-.95C22.05.62 20.41.01 18.34.01c-3.85 0-6.98 3.13-6.98 6.97 0 2.04.88 3.81 2.31 5.01H1.74c-.96 0-1.75.79-1.75 1.75V24.4H3v21.85c0 .97.79 1.75 1.75 1.75h38.46c.97 0 1.75-.79 1.75-1.75V24.4h3.02V13.74ZM26.87 21.9h-5.76v-7.41h5.76zm-.36-18.33c.69-.71 1.7-1.05 3.09-1.05 2.46 0 4.47 2 4.47 4.47s-1.92 4.13-4.47 4.13h-.53a384 384 0 0 1-3.75.03v-.11c.03-1.33.05-2.8-.1-4.23.17-1.3.53-2.47 1.28-3.24Zm-8.17-1.06c1.39 0 2.4.34 3.09 1.05.75.77 1.11 1.94 1.28 3.24-.16 1.43-.13 2.9-.1 4.23v.11c-.77 0-1.94 0-3.75-.02h-.53c-2.55 0-4.47-1.78-4.47-4.14s2.01-4.47 4.47-4.47ZM2.49 21.9v-7.41H18.6v7.41zm3.02 23.61v-21.1H18.6v21.1zm15.6 0v-21.1h5.76v21.1zm21.35 0H29.37v-21.1h13.09zm3.02-23.61H29.37v-7.41h16.11z"/>
</svg>
