<svg viewBox="0 0 16 16" xmlns="http://www.w3.org/2000/svg">
  <path d="M16 5.21c0-.69-.56-1.25-1.25-1.25H12.1c.24-.38.38-.83.38-1.31A2.623 2.623 0 0 0 9.85.01c-.78 0-1.4.23-1.85.7-.46-.46-1.08-.7-1.86-.7-1.45 0-2.63 1.18-2.63 2.64 0 .49.14.93.38 1.31H1.25C.56 3.96 0 4.52 0 5.21v3.52h1v6.01c0 .69.56 1.25 1.25 1.25h3.64v.02h4.22v-.02h3.64c.69 0 1.25-.56 1.25-1.25V8.73h1zm-1.5 2.02h-4.39V5.46h4.39zm-5.89 7.26H7.39V8.73h1.22zM7.39 7.23V5.46h1.22v1.77zm1.69-5.47c.06-.06.24-.25.78-.25.63 0 1.14.51 1.14 1.14 0 .67-.57 1.02-1.14 1.02H8.79c0-.34 0-.71-.04-1.08.05-.35.14-.66.32-.84Zm-2.94-.25c.54 0 .72.18.78.25.18.18.28.49.32.84-.04.37-.04.74-.04 1.08H6.13C5.57 3.68 5 3.33 5 2.65c0-.63.51-1.14 1.13-1.14ZM1.5 5.46h4.39v1.77H1.5zm1 9.03V8.73h3.39v5.76zm11 0h-3.39V8.73h3.39z"/>
</svg>
