<svg viewBox="0 0 48 48" xmlns="http://www.w3.org/2000/svg">
  <path d="M21.04 24.82h5.76v23.1h-5.76zm8.26 23.1h13.84c.97 0 1.75-.79 1.75-1.75V24.82h-15.6v23.1ZM2.93 46.17c0 .97.79 1.75 1.75 1.75h13.84v-23.1H2.93zm44.99-32.52v8.66H29.3v-8.78h-.27c-.88.01-1.61.02-2.24.02v8.76h-5.76v-8.76c-.64 0-1.38-.01-2.27-.02h-.24v8.78H-.08v-8.66c0-.97.79-1.75 1.75-1.75H13.6c-1.43-1.2-2.31-2.96-2.31-5.01 0-3.84 3.13-6.97 6.98-6.97 2.07 0 3.71.61 4.88 1.81.29.29.53.61.75.95.22-.34.46-.65.75-.95 1.17-1.2 2.82-1.81 4.88-1.81 3.85 0 6.98 3.13 6.98 6.97 0 2.04-.88 3.81-2.31 5.01h11.96c.97 0 1.75.79 1.75 1.75Zm-29.13-2.62c1.81.02 2.98.02 3.75.02v-.11c-.03-1.33-.05-2.8.1-4.23-.17-1.3-.53-2.47-1.28-3.24-.69-.71-1.7-1.05-3.09-1.05-2.46 0-4.47 2-4.47 4.47s1.92 4.13 4.47 4.13h.53Zm10.74-.01c2.55 0 4.47-1.78 4.47-4.13s-2.01-4.47-4.47-4.47c-1.39 0-2.4.34-3.09 1.05-.75.77-1.11 1.94-1.28 3.24.16 1.43.13 2.9.1 4.23v.11c.77 0 1.94 0 3.75-.02h.53Z"/>
</svg>
