<svg viewBox="0 0 64 64" xmlns="http://www.w3.org/2000/svg">
  <path d="M63.91 17.99c0-1.03-.84-1.87-1.87-1.87H44.82c2.29-1.53 3.74-4.07 3.74-7.05-.01-5.01-4.09-9.09-9.09-9.09-2.7 0-4.83.79-6.35 2.34q-.735.765-1.23 1.68c-.34-.6-.74-1.17-1.23-1.68C29.13.77 27-.02 24.3-.02c-5.01 0-9.08 4.08-9.08 9.08 0 2.99 1.45 5.52 3.74 7.05H1.78c-1.03 0-1.87.84-1.87 1.87V32.2h4.06v29.9c0 1.03.84 1.87 1.87 1.87h52.13c1.03 0 1.87-.84 1.87-1.87V32.2h4.06V17.98ZM36.09 29.46h-8.38v-10.6h8.38zM35.08 4.25c1-1.02 2.43-1.51 4.39-1.51 3.49 0 6.33 2.84 6.33 6.33s-2.72 5.87-6.33 5.87h-.7c-2.44.03-4.22.05-5.37.04v-.47c.04-1.81.09-3.82-.14-5.75.24-1.8.75-3.42 1.81-4.51ZM24.3 2.73c1.96 0 3.39.49 4.39 1.51 1.06 1.09 1.57 2.71 1.81 4.51-.22 1.94-.18 3.94-.14 5.75v.47c-1.14 0-2.93-.01-5.36-.04h-.71c-3.61 0-6.33-2.53-6.33-5.88s2.84-6.33 6.33-6.33ZM2.66 29.46v-10.6h22.31v10.6zm4.06 31.78V32.21h18.25v29.03zm21 0V32.21h8.38v29.03zm29.37 0H38.84V32.21h18.25zm4.07-31.78H38.85v-10.6h22.31z"/>
</svg>
