<svg viewBox="0 0 24 24" xmlns="http://www.w3.org/2000/svg">
  <path d="M22.58 5.92h-4.94c.5-.6.8-1.36.8-2.22 0-2.04-1.67-3.7-3.71-3.7-1.09 0-1.97.33-2.6.97-.07.07-.13.16-.19.24-.06-.08-.12-.16-.19-.24C11.13.32 10.26 0 9.16 0c-2.04 0-3.7 1.66-3.7 3.7 0 .86.3 1.62.8 2.22H1.33c-.76 0-1.37.62-1.37 1.38v3.66h9.08V7.23s.08.01.13.01h.24c.56 0 1.01.01 1.38.01v3.7h2.33v-3.7c.37 0 .81 0 1.36-.01h.24s.09-.01.14-.01v3.73h9.08V7.3c0-.76-.62-1.38-1.38-1.38ZM9.16 5.49c-1.13 0-1.95-.75-1.95-1.79s.88-1.95 1.95-1.95c.61 0 1.05.15 1.35.44.32.33.48.85.56 1.43-.07.65-.07 1.3-.06 1.88-.37 0-.88 0-1.59-.01zm5.31 0c-.71 0-1.22.01-1.59.01.01-.58.01-1.23-.06-1.88.08-.59.24-1.1.56-1.43.29-.3.73-.44 1.35-.44 1.08 0 1.95.88 1.95 1.95s-.82 1.79-1.95 1.79zm-3.68 7.06h2.33V24h-2.33zm4.08 0h7.34v10.07c0 .76-.62 1.38-1.38 1.38h-5.96zm-13.17 0h7.34V24H3.08c-.76 0-1.38-.62-1.38-1.38z"/>
</svg>
