<svg viewBox="0 0 40 40" xmlns="http://www.w3.org/2000/svg">
  <path d="M39.93 11.57c0-.9-.73-1.63-1.63-1.63h-9.61c1.1-1 1.77-2.43 1.77-4.07C30.47 2.64 27.83 0 24.59 0c-1.74 0-3.12.51-4.11 1.53-.21.22-.39.46-.56.7-.17-.25-.35-.49-.56-.7C18.37.52 16.98 0 15.25 0c-3.24 0-5.88 2.64-5.88 5.87 0 1.64.67 3.06 1.77 4.07H1.56c-.9 0-1.63.73-1.63 1.63v8.85h2.5v17.96c0 .9.73 1.63 1.63 1.63H35.8c.9 0 1.63-.73 1.63-1.63V20.42h2.5zm-17.69 6.6h-4.61v-5.98h4.61zM22.09 3.1c.56-.57 1.38-.85 2.5-.85 2 0 3.62 1.62 3.62 3.62s-1.52 3.34-3.62 3.34h-.44c-1.44.02-2.38.02-3.02.02.02-1.11.04-2.33-.09-3.51.14-1.06.43-2.01 1.04-2.63Zm-6.84-.85c1.13 0 1.95.28 2.5.85.61.62.9 1.57 1.04 2.63-.13 1.19-.11 2.41-.09 3.51-.64 0-1.58 0-3.02-.02h-.44c-2.1 0-3.62-1.41-3.62-3.35s1.63-3.62 3.62-3.62ZM2.18 18.17v-5.98h13.19v5.98zm2.51 19.58V20.42h10.69v17.33zm12.94 0V20.42h4.61v17.33zm17.55 0H24.49V20.42h10.69zm2.5-19.58h-13.2v-5.98h13.2z"/>
</svg>
