<svg viewBox="0 0 48 48" xmlns="http://www.w3.org/2000/svg">
  <path fill="#1e1e1c" d="M37.83 18.06V3.73c0-2.06-1.68-3.73-3.75-3.73H13.65c-2.06 0-3.74 1.67-3.74 3.73v14.33H0v26.2c0 2.06 1.68 3.73 3.74 3.73h40.51c2.06 0 3.74-1.68 3.74-3.73v-26.2H37.82ZM12.4 3.73c0-.69.56-1.24 1.25-1.24h20.43c.69 0 1.25.56 1.25 1.24V29.8H12.4zM9.91 20.55v9.25H5.88v2.49h36.19V29.8h-4.25v-9.25h7.68v15.27h-43V20.55zm34.35 24.96H3.74c-.69 0-1.25-.56-1.25-1.24v-5.95H45.5v5.95c0 .69-.56 1.24-1.25 1.24Zm-4.95-4.52h2.5v2.49h-2.5zm-9.98 0h2.5v2.49h-2.5zm4.99 0h2.5v2.49h-2.5zM17.71 7.87h12.58v2.49H17.71zm0 5.99h12.58v2.49H17.71zm0 5.94H24v2.49h-6.29z"/>
</svg>
