<svg viewBox="0 0 16 16" xmlns="http://www.w3.org/2000/svg">
  <path d="M10.94 10.78v1.27H1.91v-1.5h2.07v-5.7c0-.14.11-.25.25-.25h1.01c.04-.52.14-1.03.31-1.5H4.23c-.97 0-1.75.79-1.75 1.75v2.77H0v6.83c0 .85.69 1.54 1.53 1.54h9.78c.85 0 1.53-.69 1.53-1.54v-3.98c-.59.2-1.21.32-1.87.32h-.05Zm-.43 3.98h-1.5v-1.5h1.5zm.48-14.78c-2.77 0-5.02 2.25-5.02 5.03s2.25 5.03 5.02 5.03 5.02-2.25 5.02-5.03-2.25-5.03-5.02-5.03m1.6 6.32c-.14.24-.39.38-.65.38-.13 0-.26-.03-.37-.1l-1.14-.66s-.04-.04-.07-.06c-.04-.03-.08-.06-.12-.1-.03-.04-.05-.08-.08-.12-.02-.04-.05-.08-.06-.13-.02-.05-.02-.1-.03-.15 0-.03-.02-.06-.02-.09V3.35c0-.41.34-.75.75-.75s.75.34.75.75v1.49l.76.44c.36.21.48.67.28 1.03Z"/>
</svg>
