<svg viewBox="0 0 48 48" xmlns="http://www.w3.org/2000/svg">
  <path d="M28.69 40.12h2.51v2.51h-2.51zm-2.52 2.5v-2.51h-2.51v2.51zm-5.03 0v-2.51h-2.51v2.51zm13.01 1.72c0 .61-.5 1.1-1.1 1.1H3.66c-.61 0-1.1-.5-1.1-1.1v-17h4.92v6.31h-2.7v2.51H31.9v-2.51h-2.86v-2.79c-.86-.22-1.7-.48-2.51-.83v3.63H9.98V13.78h6.72c.07-.86.2-1.69.39-2.51H9.73c-1.24 0-2.26 1.01-2.26 2.25v11.31H.06v19.51c0 1.99 1.62 3.61 3.61 3.61h29.38c1.99 0 3.61-1.62 3.61-3.61V30.93c-.81.19-1.65.31-2.51.37zm13.91-29.31c0 8.33-6.75 15.08-15.08 15.08S17.9 23.36 17.9 15.03 24.65-.05 32.97-.05 48.05 6.7 48.05 15.03Zm-2.51 0c0-6.93-5.64-12.57-12.57-12.57S20.41 8.1 20.41 15.03 26.05 27.6 32.98 27.6s12.57-5.64 12.57-12.57m-8.52 2.94-3.94-2.28V8.71a1.25 1.25 0 0 0-2.5 0v7.7c0 .05.02.1.03.15a1 1 0 0 0 .15.46c.04.07.08.13.13.2.06.07.12.12.19.17.04.03.07.08.12.1l4.57 2.64a1.26 1.26 0 0 0 1.72-.46c.35-.6.14-1.37-.46-1.71Z"/>
</svg>
