<svg viewBox="0 0 16 16" xmlns="http://www.w3.org/2000/svg">
  <path d="M9.01 12.5h1.5V14h-1.5zm2.31 1.98-9.81-.03V9.12h.97v1.44h-.57v1.5h9.03v-1.27c-.24 0-.47-.02-.71-.06-.13-.02-.25-.05-.38-.07-.13-.03-.27-.05-.4-.09a7 7 0 0 1-.64-.21v.19H3.98v-5.7c0-.14.11-.25.25-.25h1.01c.04-.52.14-1.03.31-1.5H4.23c-.97 0-1.75.79-1.75 1.75v2.77H0v6.83c0 .85.69 1.54 1.53 1.54h9.78c.85 0 1.53-.69 1.53-1.54v-3.98c-.48.17-.99.27-1.51.3l-.02 3.71Zm4.69-9.47c0 2.78-2.25 5.03-5.02 5.03S5.97 7.79 5.97 5.01 8.22-.02 10.99-.02s5.02 2.25 5.02 5.03m-1.5 0c0-1.94-1.58-3.52-3.52-3.52S7.47 3.07 7.47 5.01s1.58 3.52 3.52 3.52 3.52-1.58 3.52-3.52m-2.2.26-.76-.44V3.34c0-.41-.34-.75-.75-.75s-.75.34-.75.75v1.92s.01.06.02.09q0 .075.03.15c.02.05.04.09.06.13s.05.08.08.12c.04.04.08.07.12.1.02.02.04.04.07.06l1.14.66c.12.07.25.1.37.1a.756.756 0 0 0 .37-1.41Z"/>
</svg>
