<svg viewBox="0 0 40 40" xmlns="http://www.w3.org/2000/svg">
  <path fill="#1e1e1c" d="M31.56 14.98V3.11c0-1.72-1.4-3.11-3.12-3.11h-17.1C9.62 0 8.22 1.4 8.22 3.12v11.87H0v21.65C0 38.5 1.51 40 3.37 40h33.26A3.37 3.37 0 0 0 40 36.64V14.98zM10.47 3.11c0-.48.39-.87.87-.87h17.1c.48 0 .87.39.87.87v21.61H10.47zM8.22 17.22v7.5H4.97v2.24H35v-2.24h-3.43v-7.5h6.19v12.49H2.25V17.22zm28.41 20.53H3.37c-.62 0-1.12-.5-1.12-1.12v-4.67h35.5v4.67c0 .62-.5 1.12-1.12 1.12M32.61 34h2.25v2.24h-2.25zM14.78 6.53h10.44v2.24H14.78zm0 4.97h10.44v2.24H14.78zm0 4.92H20v2.24h-5.22zM28.11 34h2.25v2.24h-2.25zm-4.5.02h2.25v2.24h-2.25z"/>
</svg>
