<svg viewBox="0 0 24 24" xmlns="http://www.w3.org/2000/svg">
  <path d="M16.48 0c-4.16 0-7.53 3.37-7.53 7.52 0 1.04.21 2.03.59 2.93a7.55 7.55 0 0 0 6.94 4.6c1.56 0 3.01-.47 4.21-1.29 1.2-.81 2.16-1.96 2.73-3.31.38-.9.59-1.89.59-2.93C24 3.37 20.63 0 16.48 0m2.18 9.32c-.16.28-.46.44-.76.44-.15 0-.3-.04-.44-.12l-1.71-.99s-.05-.05-.08-.07c-.05-.04-.1-.07-.14-.12-.04-.04-.06-.09-.09-.14s-.05-.1-.07-.15c-.02-.06-.03-.11-.04-.17 0-.04-.02-.07-.02-.11V5.01c0-.48.39-.88.88-.88s.88.39.88.88v2.37l1.27.73c.42.24.56.78.32 1.2Zm-4.56 6.25c-.3-.09-.6-.19-.89-.31v1.1h2.93v1.75H2.61v-1.75h2.85V7.07c0-.07.06-.13.13-.13h2.53c.04-.6.14-1.19.31-1.75H5.6c-1.03 0-1.88.84-1.88 1.88v4.89H0v9.98c0 1.13.92 2.05 2.05 2.05h14.66c1.13 0 2.05-.92 2.05-2.05v-6.35c-.73.21-1.49.32-2.28.32s-1.63-.13-2.38-.35Zm-2.64 5.77H9.71v-1.75h1.75zm3.5 0h-1.75v-1.75h1.75z"/>
</svg>
