<svg viewBox="0 0 40 40" xmlns="http://www.w3.org/2000/svg">
  <path d="M24.27 25.81q-1.17-.285-2.25-.75v2.88h4.55v2.25H4.02v-2.25h4.41V11.58h5.42c.05-.77.17-1.52.35-2.25H8.31c-1.17 0-2.13.95-2.13 2.13v9.15H0v16.3c0 1.7 1.38 3.08 3.08 3.08h24.43c1.7 0 3.08-1.38 3.08-3.08V25.82c-1.01.24-2.06.38-3.14.38s-2.17-.14-3.2-.39Zm-7.12 9.76H14.9v-2.25h2.25zm4.45 0h-2.25v-2.25h2.25zm4.5 0h-2.25v-2.25h2.25zM27.46 0c-6.92 0-12.54 5.61-12.54 12.54 0 1.3.2 2.55.56 3.73.37 1.18.9 2.28 1.58 3.28q.675 1.005 1.53 1.86c1.42 1.42 3.17 2.5 5.14 3.11a12.4 12.4 0 0 0 3.73.56c.87 0 1.71-.09 2.53-.25a12.55 12.55 0 0 0 7.87-5.28A12.43 12.43 0 0 0 40 12.54C40 5.61 34.39 0 27.46 0m3.83 16.45a1.13 1.13 0 0 1-1.54.41l-3.8-2.19s-.07-.06-.11-.09c-.06-.05-.12-.09-.17-.15s-.08-.12-.12-.18a.7.7 0 0 1-.09-.19c-.03-.07-.04-.15-.05-.23 0-.05-.03-.09-.03-.14v-6.4c0-.62.5-1.13 1.13-1.13s1.13.5 1.13 1.13v5.75l3.24 1.87c.54.31.72 1 .41 1.54"/>
</svg>
