<svg viewBox="0 0 64 64" xmlns="http://www.w3.org/2000/svg">
  <path d="M58.43 48.4V35.89c0-3.95-3.22-7.16-7.17-7.16H40.92l-6.51-6.51v-3.25h10.86a3 3 0 0 0 2.77-1.83c.15-.36.24-.75.24-1.17V2.99c0-.41-.08-.81-.24-1.17a3 3 0 0 0-2.77-1.83h-26c-1.66 0-3 1.34-3 3v12.98c0 1.66 1.34 3 3 3h10.14v3.25l-6.51 6.51H12.57c-3.95 0-7.17 3.21-7.17 7.16v12.52c-3.18 1.06-5.47 4.05-5.47 7.58 0 4.42 3.58 8 8 8s8-3.58 8-8c0-3.56-2.32-6.57-5.54-7.61V35.89c0-1.19.97-2.16 2.17-2.16H22.9l6.5 6.5v8.17c-3.19 1.05-5.5 4.05-5.5 7.59 0 4.42 3.58 8 8 8s8-3.58 8-8c0-3.54-2.31-6.54-5.5-7.59v-8.17l6.5-6.5h10.35c1.2 0 2.17.97 2.17 2.16V48.4c-3.19 1.05-5.5 4.05-5.5 7.59 0 4.42 3.58 8 8 8s8-3.58 8-8c0-3.54-2.31-6.54-5.5-7.59ZM40.49 7.19a2.1 2.1 0 1 1 0 4.2 2.1 2.1 0 0 1 0-4.2m-8.27 0a2.1 2.1 0 1 1 0 4.2 2.1 2.1 0 0 1 0-4.2m-8.28 4.2a2.1 2.1 0 1 1 0-4.2 2.1 2.1 0 0 1 0 4.2M7.93 58.99c-1.66 0-3-1.34-3-3s1.35-3 3-3 3 1.34 3 3-1.35 3-3 3m23.98 0c-1.66 0-3-1.34-3-3s1.35-3 3-3 3 1.34 3 3-1.35 3-3 3m0-23.33-4.43-4.43 4.43-4.43 4.43 4.43zm24.01 23.33c-1.66 0-3-1.34-3-3s1.35-3 3-3 3 1.34 3 3-1.35 3-3 3"/>
</svg>
