<svg viewBox="0 0 40 40" xmlns="http://www.w3.org/2000/svg">
  <path d="M36.92 30.43v-7.99A4.93 4.93 0 0 0 32 17.52h-6.09l-4-4v-1.66h6.22c.41 0 .8-.13 1.12-.34.21-.14.4-.33.54-.54.22-.32.34-.7.34-1.12V2c.01-1.1-.89-2-1.99-2H12.13c-1.1 0-2 .9-2 2v7.87c0 .41.13.8.34 1.12.14.21.33.4.54.54.32.22.7.34 1.12.34h5.78v1.66l-4 4H7.82a4.93 4.93 0 0 0-4.92 4.92v8c-1.75.78-2.98 2.52-2.98 4.56 0 2.76 2.24 5 5 5s5-2.24 5-5a5.01 5.01 0 0 0-3.02-4.59v-7.97c0-.5.41-.92.92-.92h6.09l4 4v4.9c-1.77.77-3 2.53-3 4.58 0 2.76 2.24 5 5 5s5-2.24 5-5c0-2.05-1.24-3.8-3-4.58v-4.9l4-4H32c.51 0 .92.41.92.92v7.99c-1.77.77-3 2.53-3 4.58 0 2.76 2.24 5 5 5s5-2.24 5-5c0-2.05-1.24-3.8-3-4.58ZM4.93 36c-.55 0-1-.45-1-1s.45-1 1-1 1 .45 1 1-.45 1-1 1M25.4 4.55c.7 0 1.27.57 1.27 1.27s-.57 1.27-1.27 1.27-1.27-.57-1.27-1.27.57-1.27 1.27-1.27m-5.3 0c.7 0 1.27.57 1.27 1.27s-.57 1.27-1.27 1.27-1.27-.57-1.27-1.27.57-1.27 1.27-1.27m-5.29 2.54c-.7 0-1.27-.57-1.27-1.27s.57-1.27 1.27-1.27 1.27.57 1.27 1.27-.57 1.27-1.27 1.27M19.91 36c-.55 0-1-.45-1-1s.45-1 1-1 1 .45 1 1-.45 1-1 1m0-14.13-2.34-2.34 2.34-2.34 2.34 2.34zM34.92 36c-.55 0-1-.45-1-1s.45-1 1-1 1 .45 1 1-.45 1-1 1"/>
</svg>
