<svg viewBox="0 0 40 40" xmlns="http://www.w3.org/2000/svg">
  <path d="M25.92 5.81c0 .7-.57 1.27-1.27 1.27s-1.27-.57-1.27-1.27.57-1.27 1.27-1.27 1.27.57 1.27 1.27M20.1 4.55c-.7 0-1.27.57-1.27 1.27s.57 1.27 1.27 1.27 1.27-.57 1.27-1.27-.57-1.27-1.27-1.27m-4.54 0c-.7 0-1.27.57-1.27 1.27s.57 1.27 1.27 1.27 1.27-.57 1.27-1.27-.57-1.27-1.27-1.27M39.92 35c0 2.76-2.24 5-5 5s-5-2.24-5-5c0-2.37 1.66-4.35 3.88-4.86v-7.7c0-.99-.8-1.79-1.79-1.79h-6.97l-4 4v5.5c2.22.51 3.88 2.49 3.88 4.86 0 2.76-2.24 5-5 5s-5-2.24-5-5c0-2.37 1.66-4.35 3.88-4.86v-5.5l-4-3.99H7.84c-.99 0-1.79.8-1.79 1.79v7.7c2.23.5 3.9 2.49 3.9 4.87 0 2.76-2.24 5-5 5S-.08 37.76-.08 35c0-2.36 1.65-4.33 3.86-4.85v-7.71c0-2.23 1.81-4.04 4.04-4.04h6.96l4.01-4v-2.53h-6.65c-1.1 0-2-.9-2-2V2c-.01-1.11.89-2 1.99-2h16c1.1 0 2 .9 2 2v7.87c0 1.1-.9 2-2 2h-7.1v2.53l4.01 4H32c2.23 0 4.04 1.81 4.04 4.04v7.7c2.22.51 3.88 2.49 3.88 4.86M12.38 9.61h15.5V2.25h-15.5v7.37ZM4.93 32.25c-1.52 0-2.75 1.23-2.75 2.75s1.23 2.75 2.75 2.75S7.68 36.52 7.68 35s-1.23-2.75-2.75-2.75m14.98 0c-1.52 0-2.75 1.23-2.75 2.75s1.23 2.75 2.75 2.75 2.75-1.23 2.75-2.75-1.23-2.75-2.75-2.75m3.07-12.73-3.07-3.07-3.07 3.07 3.07 3.07zM37.67 35c0-1.52-1.23-2.75-2.75-2.75s-2.75 1.23-2.75 2.75 1.23 2.75 2.75 2.75 2.75-1.23 2.75-2.75"/>
</svg>
