<svg viewBox="0 0 48 48" xmlns="http://www.w3.org/2000/svg">
  <path d="M46.36 12.28c0-.97-.56-1.84-1.43-2.26l-.14-.07s-.03-.02-.05-.03L25.12.28c-.35-.17-.72-.26-1.1-.26s-.75.08-1.09.25L6.99 8.05 3.13 9.89s-.04.03-.06.04l-.1.05a2.49 2.49 0 0 0-1.44 2.26v22.25c0 .91.49 1.74 1.28 2.18l20 11.04a2.5 2.5 0 0 0 2.41 0l19.86-11.03a2.49 2.49 0 0 0 1.28-2.18zM4.02 14.85l18.89 9.43v14.74L4.02 28.39zm19.99 7.18-8.04-4.01L34.54 7.9l9.08 4.27zM23.96 3s.05-.02.08-.02.06 0 .08.02l7.62 3.59-18.49 10.08-9.02-4.5zm1.46 21.13 18.45-9.28V28.7L25.42 39.02zM4.02 34.5v-3.25l18.9 10.63v3.03L4.02 34.49Zm21.4 10.25v-2.87l18.45-10.32v2.93L25.42 44.74Z"/>
</svg>
