<svg viewBox="0 0 40 40" xmlns="http://www.w3.org/2000/svg">
  <path d="m38.95 23.89-17.67 9.73V21.27l17.67-8.9V23.9ZM11.9 15.3l8.12 4.05 18.86-9.5-.03-.16c-.15-.52-.44-.99-.84-1.36-.2-.18-.43-.34-.68-.46l-6.36-2.98zm9.38 20.93v3.65l16.49-9.16c.72-.4 1.17-1.16 1.17-1.99V26.5zM19 21.4.96 12.39v11.05L19 33.6zm-9.59-7.34L28.39 3.69 21 .22c-.15-.07-.31-.13-.47-.16-.04 0-.09 0-.14-.01-.12-.02-.24-.04-.36-.04-.09 0-.18.02-.28.03-.07 0-.14 0-.21.02-.11.03-.22.07-.34.11-.05.02-.09.03-.14.05L2.61 7.87c-.63.31-1.12.82-1.39 1.44-.08.18-.14.37-.19.57zM19 36.22.96 26.06v2.66c0 .21.03.41.08.61.16.58.55 1.09 1.1 1.39l16.77 9.25s.06.02.09.04z"/>
</svg>
