<svg viewBox="0 0 24 24" xmlns="http://www.w3.org/2000/svg">
  <path d="m23.37 13.05-10.39 5.7V13l10.39-5.21zm-12.15 5.72v-5.7L.61 7.72v5.05l10.61 6.01ZM7.38 9.16l4.64 2.34 11.24-5.64c-.15-.44-.45-.81-.88-1.02l-3.74-1.85zm3.84 11.64L.61 14.79v1.98a2.28 2.28 0 0 0 1.2 2.03l9.36 5.17s.03.01.05.02zm1.76-.04v3.15l9.19-5.11c.74-.41 1.19-1.18 1.19-2.03v-1.72l-10.39 5.7ZM5.47 8.2l11.24-6.16-3.63-1.8a3 3 0 0 0-.51-.19c-.05-.01-.09 0-.14-.02-.13-.02-.26-.05-.39-.05-.11 0-.22.02-.32.04-.07 0-.14 0-.21.02-.17.04-.35.1-.51.18L1.59 4.85c-.41.2-.7.55-.86.96z"/>
</svg>
