<svg viewBox="0 0 32 32" xmlns="http://www.w3.org/2000/svg">
  <path d="m29.66 6.47-.65-.31L16.9.21c-.28-.14-.58-.2-.88-.2s-.6.07-.88.2L4.63 5.33l-1.97.94-.1.07-.28.13c-.8.39-1.3 1.2-1.3 2.08v14.26c0 .73.4 1.4 1.03 1.75l13.04 7.19c.3.17.63.25.96.25s.67-.08.97-.25l12.95-7.19c.63-.35 1.03-1.02 1.03-1.75V8.54c0-.88-.5-1.69-1.29-2.08ZM2.97 10.03l12.14 6.06v9.32L2.97 18.58zm25.42-1.95L16.01 14.3l-4.85-2.42 11.7-6.4 5.46 2.56.07.03ZM16.03 2.29l4.59 2.15L8.99 10.8 3.55 8.08l12.48-5.8Zm1.08 13.7 11.85-5.96v8.85l-11.85 6.54zM2.97 22.81v-1.94l12.14 6.83v1.8L2.97 22.8Zm14.14 6.58v-1.68l11.84-6.54v1.64z"/>
</svg>
