<svg viewBox="0 0 16 16" xmlns="http://www.w3.org/2000/svg">
  <path d="m8.83 8.5 6.78-3.47v3.18l-6.78 3.85zM5.26 5.81l2.76 1.4 7.26-3.71c-.14-.19-.32-.35-.54-.46l-2.28-1.13L5.25 5.8Zm2.05 2.75L.38 5.03v3.29l6.93 3.79V8.55Zm-3.7-3.59 7.19-3.88L8.72.06c-.11-.06-.22-.1-.34-.12-.04 0-.08 0-.12-.01-.08-.01-.16-.03-.24-.03s-.16.02-.24.03c-.04 0-.08 0-.12.01-.1.02-.2.06-.3.11-.01 0-.03 0-.04.01L1.25 3.04c-.22.11-.39.27-.53.45l2.9 1.47Zm5.22 8.84v2.03l5.98-3.33c.49-.27.8-.79.8-1.36V9.96zm-1.52.04L.38 10.06v1.09c0 .42.17.82.47 1.11.1.1.21.18.33.25l6.08 3.36s.03.01.05.02z"/>
</svg>
