<svg viewBox="0 0 24 24" xmlns="http://www.w3.org/2000/svg">
  <path d="M22.3 4.81 13.07.25C12.74.08 12.39 0 12.03 0s-.7.08-1.03.24L2.61 4.36l-.19.09h-.01l-.73.36c-.6.29-.98.9-.98 1.57v10.26c0 .84.46 1.61 1.19 2.01l9.28 5.12c.26.15.55.22.85.22s.59-.07.85-.22l9.22-5.12c.73-.41 1.18-1.17 1.18-2.01V6.38c0-.66-.37-1.27-.97-1.57M3.38 5.93l.84-.4 7.55-3.69a.54.54 0 0 1 .5 0l2.95 1.45-8.36 4.58-3.68-1.84zm8.64 4.51L8.77 8.82l8.38-4.58 3.65 1.79zM2.45 7.62 11.22 12v6.13l-8.77-4.95zm10.52 4.3 8.55-4.3v5.79l-8.55 4.69zM2.74 17.13a.55.55 0 0 1-.29-.48v-1.46l8.77 4.95v1.67l-8.49-4.68Zm18.5 0-8.27 4.59V20.1l8.55-4.69v1.25c0 .2-.11.38-.28.48Z"/>
</svg>
