<svg viewBox="0 0 64 64" xmlns="http://www.w3.org/2000/svg">
  <path d="m49.14 7.66 11.12 5.23a3.35 3.35 0 0 1 1.93 3.04v.22L32.02 31.31l-13.71-6.86zm13.05 11.62L33.61 33.64v19.75l28.58-15.96V19.27Zm-28.58 37.3v7.22l26.85-14.92a3.36 3.36 0 0 0 1.73-2.94v-5.32L33.6 56.58Zm-2.78-22.74L1.65 19.25v17.63l29.18 16.5zM15.27 22.95 46.02 6.19 33.59.34c-.24-.11-.5-.2-.76-.26-.08-.02-.17-.02-.25-.03-.18-.03-.35-.06-.53-.06-.17 0-.35.03-.52.06-.09.01-.17 0-.26.03-.22.05-.44.13-.65.22-.03.01-.07.02-.1.04L3.26 12.99a2.8 2.8 0 0 0-1.61 2.53v.62zm15.56 33.63L1.65 40.08v5.86c0 1.07.51 2.07 1.36 2.7.12.09.25.17.38.25l27.29 15.06s.04.01.06.02c.03.02.06.02.1.04v-7.42Z"/>
</svg>
