<svg viewBox="0 0 24 24" xmlns="http://www.w3.org/2000/svg">
  <path d="M18.66 19.54 17.89 24l-2.34-2.78s-.02 0-.05.01h-.04c-.03 0-.07.02-.12.03a.3.3 0 0 0-.08.02q-.075.015-.18.03c-.04 0-.07.01-.11.02-.07.01-.15.02-.23.04-.05 0-.1.01-.15.02-.09.01-.19.03-.29.04-.05 0-.1.01-.16.02q-.48.06-1.08.09h-1.12c-.18 0-.37-.01-.56-.03-.05 0-.1 0-.15-.01-.16-.01-.31-.03-.47-.04-.04 0-.09 0-.13-.01-.2-.02-.39-.05-.6-.09-.04 0-.08-.02-.12-.02a9 9 0 0 1-.5-.1c-.05-.01-.11-.02-.16-.04-.41-.1-.82-.22-1.22-.38-.05-.02-.11-.04-.16-.06-.17-.07-.33-.14-.5-.22-.04-.02-.08-.03-.12-.05-.2-.1-.39-.2-.58-.31-.04-.02-.08-.05-.13-.08-.16-.1-.31-.2-.46-.3-.05-.03-.09-.07-.14-.1-.19-.14-.37-.28-.55-.44l-.04-.04c-.16-.15-.32-.3-.47-.47-.04-.05-.09-.1-.13-.14a7 7 0 0 1-.41-.5c-.02-.03-.05-.06-.07-.09-.15-.21-.29-.42-.43-.65-.03-.05-.06-.11-.1-.17-.11-.19-.21-.39-.31-.59a9 9 0 0 1-.42-1.01c-.02-.04-.03-.09-.04-.14-.08-.25-.16-.51-.23-.78-.02-.09-.04-.17-.07-.26-.07-.29-.13-.6-.19-.91 0-.03-.01-.06-.02-.1-.06-.35-.1-.72-.13-1.09 0-.1-.02-.2-.02-.31-.02-.31-.04-.63-.05-.96v-.29c0-.42 0-.85.03-1.3 0-.09.01-.19.02-.28.02-.37.05-.76.09-1.16.01-.13.03-.27.04-.41.06-.5.12-1.01.21-1.54h3.16c-.33 2-.12 3.75-.11 3.87.06.48.5.82.98.75.48-.06.82-.5.76-.98 0-.03-.22-1.79.14-3.65h9.09c.26 1.84-.03 3.58-.03 3.61-.08.48.24.93.71 1.01.05 0 .1.01.15.01.42 0 .79-.3.86-.72.02-.12.32-1.89.07-3.91h2.72s2.55 8.41-2.5 13.46ZM8.9 3.13c.8-.91 1.9-1.35 3.35-1.35s2.5.43 3.25 1.33c.69.82 1.02 1.92 1.18 2.98h1.76c-.17-1.4-.61-2.93-1.59-4.1C15.76.68 14.22.03 12.25.03S8.72.69 7.58 1.98c-1.03 1.17-1.53 2.7-1.76 4.1H7.6c.2-1.05.59-2.14 1.31-2.95Z"/>
</svg>
