<svg viewBox="0 0 64 64" xmlns="http://www.w3.org/2000/svg">
  <path d="M57.47 15.37h-8.36c-.46-3.61-1.59-7.5-4.1-10.48-2.74-3.28-6.68-4.94-11.69-4.94S24.29 1.62 21.4 4.91c-2.62 2.98-3.92 6.86-4.54 10.46H7.3C1.4 51.99 21.41 57.33 33.58 57.33c5.01 0 8.69-.91 8.69-.91l6.34 7.53 2.09-12.09c13.68-13.68 6.77-36.49 6.77-36.49M23.48 6.71c2.34-2.66 5.65-4.01 9.85-4.01s7.38 1.33 9.59 3.95c2.03 2.41 3 5.63 3.43 8.72H19.69c.57-3.06 1.69-6.25 3.8-8.66Zm25.28 43.2-.62.62-.15.86-1.09 6.27-2.53-3.01-1.1-1.3-1.65.4s-3.46.83-8.04.83c-5.72 0-13.63-1.28-18.82-7.37-5.17-6.07-6.88-15.85-5.09-29.09h6.84c-.37 4.11.03 7.35.07 7.62.1.75.77 1.28 1.54 1.19.75-.1 1.28-.79 1.19-1.54 0-.06-.4-3.28-.02-7.26h27.29c.19 3.96-.35 7.14-.36 7.2a1.373 1.373 0 0 0 1.36 1.61c.65 0 1.23-.47 1.35-1.14.05-.27.6-3.54.42-7.68h5.98c.48 2.2 1.15 6.05 1.14 10.52 0 9.01-2.6 16.17-7.71 21.28Z"/>
</svg>
