<svg viewBox="0 0 32 32" xmlns="http://www.w3.org/2000/svg">
  <path d="M28.75 7.97h-3.82c-.23-1.85-.8-3.85-2.1-5.39C21.4.88 19.37.02 16.79.02s-4.65.86-6.14 2.56C9.3 4.12 8.64 6.12 8.33 7.97H3.91C.99 26.1 10.89 28.74 16.92 28.74c2.48 0 4.3-.45 4.3-.45l3.14 3.73 1.04-5.98c6.77-6.77 3.35-18.06 3.35-18.06ZM12.16 3.89c1.11-1.26 2.63-1.88 4.63-1.88s3.46.6 4.5 1.84c.95 1.13 1.41 2.65 1.62 4.11H10.36c.28-1.45.81-2.95 1.8-4.07m11.82 20.73-.45.45-.11.63-.3 1.75-.37-.44-.8-.95-1.2.29s-1.65.39-3.83.39c-2.7 0-6.42-.59-8.83-3.42-2.37-2.78-3.19-7.26-2.44-13.34h2.46c-.1 1.75.07 3.05.08 3.17.07.55.57.94 1.12.86.55-.07.93-.57.87-1.12 0-.03-.15-1.28-.05-2.91h12.94c.02 1.61-.19 2.84-.19 2.87a1.012 1.012 0 0 0 .98 1.18c.48 0 .9-.34.98-.83.02-.12.25-1.45.23-3.22h2.1c.58 3.01 1.34 10.13-3.18 14.65Z"/>
</svg>
