<svg viewBox="0 0 48 48" xmlns="http://www.w3.org/2000/svg">
  <path d="M43.13 11.76h-6.02c-.34-2.74-1.2-5.7-3.1-7.97-2.1-2.5-5.09-3.76-8.91-3.76s-6.86 1.27-9.06 3.78c-2 2.27-2.97 5.22-3.44 7.96H5.68c-4.4 27.34 10.53 31.32 19.61 31.32 3.74 0 6.49-.68 6.49-.68l4.73 5.62 1.56-9.02c10.21-10.22 5.06-27.24 5.06-27.24Zm-25.2-6.31c1.7-1.94 4.12-2.92 7.18-2.92s5.36.94 6.98 2.87c1.48 1.76 2.19 4.11 2.5 6.36H15.14c.42-2.24 1.24-4.56 2.78-6.31Zm18.38 31.78-.56.56-.14.78-.65 3.73-1.27-1.51-1-1.18-1.51.36s-2.54.6-5.9.6c-4.18 0-9.94-.93-13.7-5.34-3.72-4.37-4.98-11.42-3.75-20.97h4.46c-.21 2.86.06 5.07.08 5.27.09.69.72 1.17 1.4 1.08.69-.09 1.17-.72 1.08-1.4 0-.04-.27-2.2-.05-4.94h19.98c.08 2.71-.27 4.85-.28 4.89a1.256 1.256 0 0 0 1.24 1.47c.6 0 1.12-.43 1.23-1.03.03-.19.41-2.43.32-5.32h3.86c.9 4.37 2.35 15.77-4.85 22.97Z"/>
</svg>
