<svg viewBox="0 0 64 64" xmlns="http://www.w3.org/2000/svg">
  <path d="M59.2 29.89c-.07 2.38-.32 4.9-.87 7.44-.44 2.03-1.06 4.08-1.93 6.08-1.3 3-3.14 5.88-5.71 8.45L48.6 63.95l-6.34-7.53h-.07c-.02 0-.04 0-.07.02-.02 0-.04 0-.06.01-.04 0-.08.02-.12.03-.03 0-.05.01-.08.02-.05.01-.12.02-.18.04-.03 0-.06.01-.1.02-.07.01-.16.03-.24.05-.03 0-.06.01-.1.02-.25.05-.54.1-.86.15-.04 0-.09.01-.13.02-.12.02-.25.04-.38.06-.06 0-.12.02-.18.03-.12.02-.25.04-.38.05-.07 0-.15.02-.22.03-.13.02-.27.03-.4.05-.08 0-.15.02-.23.03-.16.02-.32.03-.48.05-.07 0-.13.01-.2.02-.47.05-.96.09-1.48.12-.08 0-.16 0-.24.01l-.54.03c-.1 0-.21 0-.31.01-.17 0-.35.01-.52.02H33.5c-.34 0-.68 0-1.03-.01h-.14c-.31 0-.62-.02-.94-.04-.1 0-.2-.01-.3-.02-.32-.02-.64-.04-.97-.07-.05 0-.1 0-.15-.01-.37-.03-.74-.08-1.11-.12-.1-.01-.2-.03-.31-.04-.3-.04-.6-.08-.9-.13-.1-.02-.19-.03-.29-.05-.38-.06-.76-.14-1.14-.21-.08-.02-.17-.04-.25-.05-.31-.07-.62-.14-.93-.22l-.34-.09c-.38-.1-.75-.2-1.13-.32-.02 0-.04-.01-.06-.02-.37-.12-.75-.24-1.12-.38-.11-.04-.23-.08-.34-.13-.3-.11-.61-.23-.91-.36-.09-.04-.18-.07-.27-.11q-.555-.24-1.11-.51l-.3-.15c-.29-.15-.57-.3-.86-.46-.11-.06-.22-.12-.32-.18-.36-.21-.72-.43-1.08-.67-.06-.04-.12-.08-.17-.12-.3-.2-.6-.42-.89-.64-.11-.08-.21-.16-.32-.24-.29-.23-.58-.47-.87-.71a21 21 0 0 1-1.14-1.07c-.09-.09-.18-.19-.27-.29-.24-.26-.48-.52-.72-.79-.08-.1-.17-.19-.25-.29-.3-.36-.59-.72-.87-1.11-.06-.09-.13-.18-.19-.27-.22-.32-.44-.64-.66-.98-.08-.13-.16-.25-.24-.38-.25-.42-.5-.85-.74-1.3-.01-.03-.03-.05-.04-.08-.24-.45-.46-.92-.67-1.41-.07-.15-.13-.3-.19-.45-.17-.41-.34-.83-.5-1.26-.04-.12-.09-.23-.13-.35-.19-.54-.37-1.09-.53-1.67l-.12-.45c-.13-.46-.25-.94-.36-1.42-.04-.17-.08-.34-.12-.52-.13-.63-.26-1.27-.36-1.93-.02-.1-.03-.2-.04-.3-.09-.58-.17-1.19-.23-1.8l-.06-.62c-.06-.63-.11-1.27-.15-1.94 0-.11-.02-.21-.02-.31-.04-.76-.05-1.54-.06-2.35v-.65c0-.65.02-1.32.04-2 0-.21.01-.41.02-.62.04-.86.1-1.74.17-2.64.02-.18.04-.37.05-.55.07-.75.15-1.53.24-2.31.03-.27.06-.53.1-.8.12-.97.26-1.96.43-2.98h9.57c-.91 5.32-.33 10.04-.29 10.37.1.75.77 1.29 1.54 1.19.75-.1 1.28-.79 1.19-1.54 0-.08-.6-4.86.37-10.01h26.66c.71 5.12-.1 9.88-.11 9.95a1.373 1.373 0 0 0 1.36 1.61c.65 0 1.23-.47 1.35-1.14.06-.33.86-5.08.18-10.43h8.36s.55 1.8 1.03 4.7c.11.64.21 1.34.3 2.09.28 2.23.47 4.88.39 7.73ZM23.48 6.71c2.34-2.66 5.65-4.01 9.85-4.01s7.38 1.33 9.59 3.95c2.03 2.41 3 5.63 3.43 8.72h2.78c-.46-3.61-1.59-7.5-4.1-10.48-2.76-3.28-6.7-4.94-11.71-4.94S24.29 1.62 21.4 4.91c-2.62 2.98-3.92 6.86-4.54 10.46h2.81c.57-3.06 1.69-6.25 3.8-8.66Z"/>
</svg>
