<svg viewBox="0 0 48 48" xmlns="http://www.w3.org/2000/svg">
  <path d="M44.44 21.55c0 2.42-.23 5.09-.93 7.75q-.15.57-.33 1.14c-.95 3.03-2.55 6.01-5.1 8.57l-1.56 9.02-4.73-5.62h-.03c-.02 0-.04.01-.08.02h-.03c-.03 0-.06.01-.1.02-.02 0-.04 0-.07.01-.04 0-.08.02-.13.03-.02 0-.04 0-.07.01-.06.01-.12.02-.18.04-.03 0-.05 0-.08.01-.18.03-.4.07-.64.11-.03 0-.06 0-.09.01-.09.01-.19.03-.29.04-.04 0-.09.01-.14.02-.09.01-.19.03-.29.04-.05 0-.11.01-.16.02-.1.01-.2.03-.3.04-.06 0-.11.01-.17.02-.12.01-.24.03-.36.04-.05 0-.09.01-.14.01-.17.02-.34.03-.52.05h-.04c-.18.01-.36.03-.54.04-.06 0-.12 0-.18.01-.13 0-.27.02-.41.02h-.24c-.13 0-.25 0-.38.01h-.91c-.25 0-.51 0-.77-.01h-.11c-.23 0-.46-.02-.7-.03-.08 0-.15 0-.23-.01-.24-.02-.48-.03-.72-.05h-.11l-.83-.09c-.08 0-.15-.02-.23-.03-.22-.03-.45-.06-.67-.1l-.22-.03c-.28-.05-.57-.1-.85-.16-.06-.01-.12-.03-.18-.04-.23-.05-.46-.1-.7-.16l-.26-.06q-.42-.105-.84-.24c-.02 0-.04-.01-.06-.02-.28-.09-.56-.18-.83-.28-.09-.03-.17-.06-.26-.09-.23-.08-.45-.17-.68-.27-.07-.03-.13-.05-.2-.08-.28-.12-.56-.25-.83-.38-.07-.04-.15-.08-.22-.11-.21-.11-.43-.22-.64-.34-.08-.05-.16-.09-.24-.14-.27-.16-.54-.32-.8-.5-.05-.03-.09-.06-.14-.09-.22-.15-.45-.31-.66-.47l-.24-.18c-.22-.17-.43-.35-.64-.53-.04-.04-.09-.07-.13-.11-.25-.22-.48-.45-.72-.68l-.21-.21c-.18-.19-.36-.39-.54-.59-.06-.07-.12-.14-.19-.21-.22-.27-.44-.54-.65-.83-.05-.07-.09-.14-.14-.2-.17-.24-.33-.48-.49-.73-.06-.09-.12-.19-.18-.29-.19-.31-.37-.63-.55-.97l-.03-.07c-.18-.34-.34-.69-.5-1.05-.05-.11-.1-.22-.14-.33-.13-.31-.25-.62-.37-.94-.03-.09-.07-.17-.1-.26-.14-.4-.27-.82-.4-1.25l-.09-.33c-.1-.35-.18-.7-.27-1.07l-.09-.38q-.15-.705-.27-1.44l-.03-.22c-.07-.44-.12-.89-.17-1.35-.02-.15-.03-.3-.05-.46-.04-.47-.08-.95-.11-1.45 0-.08-.01-.15-.02-.23-.03-.57-.04-1.15-.04-1.75v-.48c0-.49.01-.99.03-1.49 0-.15 0-.3.02-.46.03-.64.07-1.3.13-1.97.01-.14.03-.28.04-.41.05-.56.11-1.14.18-1.73.02-.2.05-.4.07-.6.09-.73.2-1.46.32-2.23h6.92c-.68 3.99-.25 7.52-.22 7.77.09.69.72 1.17 1.4 1.08.69-.09 1.17-.72 1.08-1.4 0-.06-.44-3.63.28-7.45h19.45c.53 3.79-.07 7.33-.08 7.39a1.256 1.256 0 0 0 1.24 1.47c.6 0 1.12-.43 1.23-1.03.04-.25.64-3.8.13-7.82h6.02s1.13 3.74 1.29 8.77c.01.34.02.68.02 1.02ZM17.93 5.45c1.7-1.94 4.12-2.92 7.18-2.92s5.36.94 6.98 2.87c1.48 1.76 2.19 4.11 2.5 6.36h2.52c-.34-2.74-1.2-5.7-3.1-7.97-2.1-2.5-5.09-3.76-8.91-3.76s-6.86 1.27-9.06 3.78c-2 2.27-2.97 5.22-3.44 7.96h2.54c.42-2.24 1.24-4.56 2.78-6.31Z"/>
</svg>
