<svg viewBox="0 0 40 40" xmlns="http://www.w3.org/2000/svg">
  <path d="M35.93 9.84h-4.92c-.29-2.3-1-4.77-2.6-6.68C26.65 1.06 24.14 0 20.94 0s-5.75 1.07-7.6 3.17c-1.67 1.91-2.49 4.38-2.88 6.67H4.79C1.13 32.57 13.55 35.89 21.1 35.89c3.11 0 5.4-.56 5.4-.56L30.43 40l1.3-7.5c8.49-8.49 4.2-22.65 4.2-22.65Zm-20.9-5.19c1.42-1.61 3.35-2.4 5.91-2.4s4.41.77 5.74 2.36c1.21 1.44 1.8 3.38 2.06 5.24h-16c.35-1.84 1.02-3.76 2.29-5.2M30.14 30.9l-.5.5-.12.7-.48 2.74-.82-.98-.9-1.06-1.35.33s-2.1.5-4.86.5c-3.44 0-8.18-.76-11.27-4.39-3.05-3.58-4.08-9.34-3.09-17.16h3.46c-.15 2.31.06 4.07.08 4.22.08.62.64 1.04 1.26.97.62-.08 1.05-.64.97-1.26 0-.04-.21-1.74-.05-3.93h16.46c.05 2.17-.23 3.85-.24 3.88-.11.61.3 1.19.91 1.3.07.01.13.02.2.02.54 0 1.01-.38 1.11-.93.03-.16.33-1.94.28-4.27h2.98c.74 3.7 1.84 12.95-4.02 18.81Z"/>
</svg>
