<svg viewBox="0 0 16 16" xmlns="http://www.w3.org/2000/svg">
  <path d="M14.03 4.17h-1.62c-.12-.96-.41-2.01-1.09-2.82C10.56.45 9.49 0 8.14 0S5.71.45 4.93 1.35c-.71.81-1.05 1.86-1.21 2.82H1.81c-1.44 8.92 3.43 10.22 6.4 10.22 1.22 0 2.12-.22 2.12-.22L11.87 16l.51-2.94c3.33-3.33 1.65-8.89 1.65-8.89M6.06 2.33c.5-.56 1.18-.83 2.08-.83s1.55.27 2.02.81c.43.51.64 1.19.74 1.86H5.25c.13-.66.37-1.33.82-1.84Zm5.26 9.66-.34.34-.04.24-.07-.08-.9.21s-.76.18-1.76.18c-1.22 0-2.89-.26-3.95-1.5-1.01-1.19-1.39-3.1-1.13-5.71h.48c0 .61.05 1.03.05 1.08.05.41.43.7.84.65s.7-.43.65-.84c0 0-.04-.37-.04-.89h5.86c-.02.5-.08.84-.08.85-.07.41.2.8.61.87.04 0 .09.01.13.01.36 0 .67-.26.74-.62 0-.05.08-.49.11-1.11h.35c.24 1.55.37 4.46-1.5 6.33Z"/>
</svg>
