<svg viewBox="0 0 32 32" xmlns="http://www.w3.org/2000/svg">
  <path d="M29.6 14.46c0 .92-.05 1.89-.18 2.88s-.34 2-.66 3.01c-.63 2.01-1.69 3.98-3.38 5.67L24.34 32l-3.13-3.72s-.03 0-.07.02h-.04c-.04 0-.1.02-.17.04-.03 0-.07.01-.11.02-.07.01-.15.03-.24.04-.05 0-.1.02-.16.03-.09.02-.19.03-.3.05l-.2.03c-.12.02-.26.03-.39.05-.07 0-.13.02-.21.03-.43.05-.92.09-1.45.11h-.26c-.19 0-.37.01-.57.01h-.67c-.24 0-.49-.02-.75-.04-.07 0-.14-.01-.21-.02l-.62-.06c-.06 0-.12-.01-.19-.02-.26-.03-.53-.07-.8-.12-.05 0-.11-.02-.16-.03-.22-.04-.44-.09-.67-.14-.07-.02-.15-.03-.22-.05-.55-.13-1.09-.3-1.64-.5-.07-.03-.14-.06-.21-.08-.22-.09-.45-.19-.67-.29-.05-.02-.1-.05-.16-.07-.26-.13-.53-.27-.78-.42-.06-.03-.11-.07-.17-.1-.21-.13-.41-.26-.62-.41-.06-.05-.13-.09-.19-.14a10 10 0 0 1-.73-.59c-.02-.02-.04-.04-.06-.05a9 9 0 0 1-.81-.82c-.19-.21-.37-.43-.55-.67-.03-.04-.06-.08-.1-.12-.2-.27-.39-.57-.58-.87-.04-.07-.09-.15-.13-.23a15 15 0 0 1-.41-.79c-.04-.08-.08-.17-.12-.25a12 12 0 0 1-.44-1.09c-.02-.06-.04-.12-.06-.19-.11-.33-.21-.68-.31-1.04l-.09-.35c-.09-.39-.18-.8-.25-1.22 0-.04-.02-.09-.02-.13q-.105-.705-.18-1.47l-.03-.41c-.03-.42-.05-.84-.06-1.29v-.39c0-.56 0-1.14.03-1.74 0-.12.02-.25.02-.38.03-.5.07-1.02.12-1.55l.06-.55c.08-.66.16-1.34.28-2.05H8.3c-.45 2.66-.16 5.01-.14 5.17.07.55.57.94 1.12.86.55-.07.93-.57.86-1.12 0-.04-.29-2.4.19-4.91h12.54c.35 2.49-.04 4.83-.05 4.87a1.012 1.012 0 0 0 .98 1.18c.48 0 .9-.34.98-.83.03-.16.42-2.53.09-5.21h3.82s.21.7.43 1.87c.11.58.21 1.28.3 2.06l.06.6c.05.61.08 1.27.08 1.96ZM12.17 3.91c1.11-1.26 2.62-1.88 4.63-1.88s3.45.6 4.49 1.84c.95 1.13 1.41 2.64 1.62 4.11h2.01c-.23-1.85-.8-3.85-2.1-5.39C21.4.89 19.37.03 16.79.03s-4.64.86-6.13 2.56C9.31 4.13 8.65 6.13 8.34 7.98h2.03c.28-1.45.81-2.94 1.8-4.07"/>
</svg>
