<svg viewBox="0 0 24 24" xmlns="http://www.w3.org/2000/svg">
  <path d="M17.01 0H-.02v13.21h17.03zM9.68 6.31c-.63.65-1.74.65-2.37 0l-4.4-4.56h11.16l-4.4 4.57Zm-4.95-.16-3 3.5V3.04zm1.22 1.27.1.1c.65.67 1.51 1.04 2.44 1.04s1.8-.37 2.44-1.04l.1-.1 3.45 4.03H2.5zm6.31-1.27 3-3.11v6.61zm8.93 5.62c-1.54 0-2.79 1.25-2.79 2.79 0 .44.11.84.29 1.21l-3.37 3.37a2.78 2.78 0 0 0-1.86-.72c-1.23 0-2.27.81-2.64 1.91H5.43a2.775 2.775 0 0 0-2.64-1.91A2.789 2.789 0 0 0 2.8 24c1.23 0 2.27-.81 2.64-1.91h5.39c.37 1.11 1.4 1.91 2.64 1.91 1.54 0 2.79-1.25 2.79-2.79 0-.16-.02-.32-.05-.47l3.71-3.71c.38.2.82.32 1.28.32a2.791 2.791 0 0 0 0-5.58ZM2.8 22.24c-.57 0-1.04-.47-1.04-1.04s.47-1.04 1.04-1.04 1.04.47 1.04 1.04-.47 1.04-1.04 1.04m10.66 0c-.57 0-1.04-.47-1.04-1.04s.47-1.04 1.04-1.04 1.04.47 1.04 1.04-.47 1.04-1.04 1.04m7.73-6.64c-.57 0-1.04-.47-1.04-1.04s.47-1.04 1.04-1.04 1.04.47 1.04 1.04-.47 1.04-1.04 1.04"/>
</svg>
