<svg viewBox="0 0 40 40" xmlns="http://www.w3.org/2000/svg">
  <path d="M28.14 0H.01v21.67h28.12V0Zm-11.8 10.61c-1.19 1.24-3.33 1.24-4.52 0L3.78 2.26h20.59zm-8.15-.53L2.27 17V3.92zm1.56 1.63.44.46a5.32 5.32 0 0 0 3.88 1.65c1.48 0 2.86-.59 3.88-1.65l.44-.46L25 19.44H3.14l6.61-7.72Zm10.22-1.63 5.92-6.16V17zm15.66 9.87c-2.41 0-4.38 1.96-4.38 4.38 0 .77.22 1.49.57 2.12l-6.16 6.17c-.8-.84-1.92-1.37-3.16-1.37-2.02 0-3.71 1.39-4.21 3.25H8.6c-.5-1.87-2.19-3.25-4.21-3.25-2.43 0-4.39 1.97-4.39 4.38s1.96 4.38 4.38 4.38c2.02 0 3.71-1.39 4.21-3.25h9.69c.5 1.87 2.19 3.25 4.21 3.25 2.41 0 4.38-1.96 4.38-4.38 0-.32-.04-.63-.11-.94l6.62-6.62c.66.4 1.42.64 2.24.64 2.41 0 4.38-1.96 4.38-4.38s-1.96-4.38-4.38-4.38ZM4.38 37.76c-1.17 0-2.13-.95-2.13-2.13s.95-2.13 2.13-2.13 2.13.96 2.13 2.13-.96 2.13-2.13 2.13m18.11 0c-1.17 0-2.13-.95-2.13-2.13s.95-2.13 2.13-2.13 2.13.96 2.13 2.13-.96 2.13-2.13 2.13m13.14-11.3c-1.17 0-2.13-.95-2.13-2.13s.96-2.13 2.13-2.13 2.13.96 2.13 2.13-.95 2.13-2.13 2.13"/>
</svg>
