<svg viewBox="0 0 16 16" xmlns="http://www.w3.org/2000/svg">
  <path d="m7.87 11.05 3.15-3.23V0H3.54L-.01 3.2l.02.03v7.83h7.85Zm-1.5-1.5H1.51V4.68h4.86zm.44-6.36H5.52l1.79-1.68h1.17zm1.06 5.72V4.25l1.65-1.67v4.64zm-3.76-7.4h1.01L3.33 3.19h-1.1zm1.81 5.78H3.74V5.11h2.18zm8.07.39c-1.1 0-2 .9-2 2q0 .405.15.75l-1.99 1.99c-.33-.25-.75-.41-1.2-.41-.84 0-1.55.52-1.85 1.25H3.85c-.3-.73-1.01-1.25-1.85-1.25-1.09 0-1.99.9-1.99 2s.9 2 2 2c.84 0 1.55-.52 1.85-1.25h3.25c.3.73 1.01 1.25 1.85 1.25 1.1 0 2-.9 2-2 0-.08-.01-.16-.02-.24l2.26-2.27c.25.11.52.17.8.17 1.1 0 2-.9 2-2s-.9-2-2-2ZM2.01 14.51c-.27 0-.5-.22-.5-.5s.22-.5.5-.5.5.22.5.5-.22.5-.5.5m6.95 0c-.27 0-.5-.22-.5-.5s.22-.5.5-.5.5.22.5.5-.22.5-.5.5m5.03-4.34c-.27 0-.5-.22-.5-.5s.22-.5.5-.5.5.22.5.5-.22.5-.5.5"/>
</svg>
