<svg viewBox="0 0 40 40" xmlns="http://www.w3.org/2000/svg">
  <path d="m18.39 11.67 8.23 9.96H1.5l8.26-9.96.43.45a5.32 5.32 0 0 0 3.88 1.65c1.48 0 2.86-.59 3.88-1.65l.43-.45ZM.01 1.59V19.9l8.17-9.86zm16.33 8.97 10.2-10.6H1.57l10.25 10.6c1.2 1.25 3.33 1.24 4.53 0Zm11.8-9.02-8.18 8.5 8.18 9.91zm0-1.58h-.04l.04.04zM40 24.28c0 2.41-1.96 4.38-4.38 4.38a4.3 4.3 0 0 1-2.24-.64l-6.62 6.62c.07.3.11.61.11.94 0 2.41-1.96 4.38-4.38 4.38-2.02 0-3.71-1.39-4.21-3.25H8.59c-.5 1.87-2.19 3.25-4.21 3.25C1.96 39.96 0 38 0 35.58s1.96-4.38 4.38-4.38c2.02 0 3.71 1.39 4.21 3.25h9.69c.5-1.87 2.19-3.25 4.21-3.25 1.25 0 2.37.53 3.16 1.37l6.16-6.17a4.36 4.36 0 0 1-.57-2.12c0-2.41 1.96-4.38 4.38-4.38S40 21.86 40 24.28M6.5 35.58c0-1.17-.96-2.13-2.13-2.13s-2.13.95-2.13 2.13.95 2.13 2.13 2.13 2.13-.96 2.13-2.13m18.12 0c0-1.17-.96-2.13-2.13-2.13s-2.13.95-2.13 2.13.95 2.13 2.13 2.13 2.13-.96 2.13-2.13m13.13-11.3c0-1.17-.95-2.13-2.13-2.13s-2.13.95-2.13 2.13.96 2.13 2.13 2.13 2.13-.96 2.13-2.13"/>
</svg>
