<svg viewBox="0 0 16 16" xmlns="http://www.w3.org/2000/svg">
  <path d="M4.84 3.97 1.01 0H9.9L6.01 3.97a.82.82 0 0 1-1.16 0Zm-4.88-2.9v6.39l2.86-3.43zm5.46 4.65c-.58 0-1.12-.22-1.55-.61L.97 8.58h8.98L6.97 5.1c-.42.39-.97.61-1.55.61Zm5.47-4.58-2.85 2.9 2.85 3.33zm0-1.14h-.02l.02.02zm0 8.56-.02.02h.02zM-.04 0v.09L.05 0zm16 9.67c0 1.1-.9 2-2 2-.29 0-.56-.06-.8-.17l-2.26 2.27c0 .08.02.16.02.24 0 1.1-.9 2-2 2-.84 0-1.55-.52-1.85-1.25H3.82c-.3.73-1.01 1.25-1.85 1.25-1.1-.01-1.99-.9-1.99-2s.9-2 2-2c.84 0 1.55.52 1.85 1.25h3.25c.3-.73 1.01-1.25 1.85-1.25.45 0 .86.16 1.2.41l1.99-2c-.1-.23-.15-.49-.15-.75 0-1.1.9-2 2-2s2 .9 2 2ZM2.47 14.01c0-.28-.22-.5-.5-.5s-.5.22-.5.5.22.5.5.5.5-.22.5-.5m6.95 0c0-.28-.22-.5-.5-.5s-.5.22-.5.5.22.5.5.5.5-.22.5-.5m5.04-4.34c0-.28-.22-.5-.5-.5s-.5.22-.5.5.22.5.5.5.5-.22.5-.5"/>
</svg>
