<svg viewBox="0 0 64 64" xmlns="http://www.w3.org/2000/svg">
  <path d="M19.2 24.76h-7.87v-4.09h7.87zM25.76 40H.01V14.25h25.74V40Zm-3.81-22.08H8.58v9.59h13.37zm4.61-6.42L37.95 0H27.17l-12.2 11.5zM23.15 0H12.93L1.13 11.5h9.82zm5.35 39.02 11.36-10.71V1.97L28.5 13.44zm35.51.01c0 3.67-2.98 6.65-6.65 6.65a6.6 6.6 0 0 1-3.72-1.14L42.49 55.69c.14.53.22 1.08.22 1.66 0 3.67-2.98 6.65-6.65 6.65-3.2 0-5.87-2.27-6.51-5.28H13.18C12.54 61.73 9.87 64 6.67 64 3 64 .02 61.02.02 57.35S3 50.7 6.67 50.7c3.2 0 5.87 2.27 6.51 5.28h16.38c.64-3.01 3.31-5.28 6.51-5.28 2.06 0 3.9.94 5.12 2.41l10.55-10.56a6.55 6.55 0 0 1-1.03-3.53c0-3.67 2.98-6.65 6.65-6.65s6.65 2.98 6.65 6.65ZM10.57 57.35c0-2.15-1.75-3.9-3.9-3.9s-3.9 1.75-3.9 3.9 1.75 3.9 3.9 3.9 3.9-1.75 3.9-3.9m29.39 0c0-2.15-1.75-3.9-3.9-3.9s-3.9 1.75-3.9 3.9 1.75 3.9 3.9 3.9 3.9-1.75 3.9-3.9m21.3-18.32c0-2.15-1.75-3.9-3.9-3.9s-3.9 1.75-3.9 3.9 1.75 3.9 3.9 3.9 3.9-1.75 3.9-3.9"/>
</svg>
