<svg viewBox="0 0 48 48" xmlns="http://www.w3.org/2000/svg">
  <path d="M11.66 8.27 20.44 0H28l-8.19 8.27h-8.14Zm2.46 7.36H8.59v2.67h5.53zm4.96 14.19H.05V10.77h19.03zm-2.46-16.69H6.1v7.67h10.52zm4.96 15.79 8.17-7.81V1.79l-8.17 8.25zM16.79 0H9.68L1.09 8.27h6.93zm31.22 29.21c0 2.85-2.32 5.17-5.17 5.17-1 0-1.93-.3-2.72-.79l-8.08 8.08c.09.37.14.76.14 1.16 0 2.85-2.32 5.17-5.17 5.17-2.42 0-4.44-1.68-5-3.92H10.17c-.56 2.25-2.58 3.92-5 3.92C2.33 48 0 45.68 0 42.83s2.32-5.17 5.17-5.17c2.42 0 4.44 1.68 5 3.92h11.84c.56-2.25 2.58-3.92 5-3.92 1.51 0 2.86.66 3.81 1.7l7.57-7.57c-.44-.76-.71-1.64-.71-2.58 0-2.85 2.32-5.17 5.17-5.17s5.17 2.32 5.17 5.17ZM7.85 42.83c0-1.47-1.2-2.67-2.67-2.67s-2.67 1.2-2.67 2.67 1.2 2.67 2.67 2.67 2.67-1.2 2.67-2.67m21.83 0c0-1.47-1.2-2.67-2.67-2.67s-2.67 1.2-2.67 2.67 1.2 2.67 2.67 2.67 2.67-1.2 2.67-2.67m15.83-13.62c0-1.47-1.2-2.67-2.67-2.67s-2.67 1.2-2.67 2.67 1.2 2.67 2.67 2.67 2.67-1.2 2.67-2.67"/>
</svg>
