<svg viewBox="0 0 32 32" xmlns="http://www.w3.org/2000/svg">
  <path d="m15.17 21.72 6.51-6.32V0H6.97L.03 6.57v15.16h15.14Zm0-2.78V7.98l4.51-4.56v11.13zm-.84-16.95h3.96l-4.53 4.58H9.48zm-6.57 0h3.66L6.57 6.57H2.94zm5.42 17.74H2.03V8.57h11.15zM12.15 9.54h-6.9v5.65h6.9zm-2 3.65h-2.9v-1.66h2.9zm18.26 2.64c-1.98 0-3.58 1.61-3.58 3.59 0 .61.16 1.17.43 1.67l-4.77 4.77a3.6 3.6 0 0 0-2.52-1.04c-1.63 0-2.99 1.1-3.42 2.59H7c-.44-1.49-1.8-2.59-3.42-2.59C1.6 24.82 0 26.43 0 28.4s1.61 3.59 3.58 3.59c1.63 0 2.99-1.1 3.42-2.59h7.55c.44 1.49 1.8 2.59 3.42 2.59a3.585 3.585 0 0 0 3.51-4.3l5.16-5.17c.52.3 1.12.48 1.76.48 1.98 0 3.58-1.61 3.58-3.59s-1.61-3.59-3.58-3.59ZM3.58 29.99c-.87 0-1.59-.71-1.59-1.59s.71-1.59 1.59-1.59 1.59.71 1.59 1.59-.71 1.59-1.59 1.59m14.4 0c-.87 0-1.59-.71-1.59-1.59s.71-1.59 1.59-1.59 1.59.71 1.59 1.59-.71 1.59-1.59 1.59m10.43-8.98c-.87 0-1.59-.71-1.59-1.59s.71-1.59 1.59-1.59 1.59.71 1.59 1.59-.71 1.59-1.59 1.59"/>
</svg>
