<svg viewBox="0 0 16 16" xmlns="http://www.w3.org/2000/svg">
  <path d="M5.97 3.73H.01v5.96h5.96zm-.78 3.05h-2.3v-2.3h2.3zm-.67-4.54L6.89 0h1.73L6.41 2.23H4.52Zm-2.19 0H.66L3.14 0h1.55L2.32 2.23Zm5.14 1.05 2.2-2.22v5.8l-2.2 2.25zM14 7.67c-1.1 0-2 .9-2 2q0 .405.15.75l-2 2a2.02 2.02 0 0 0-1.2-.41c-.84 0-1.55.52-1.85 1.25H3.84c-.3-.73-1.01-1.25-1.85-1.25C.9 12 0 12.9 0 14s.9 2 2 2c.84 0 1.55-.52 1.85-1.25h3.26c.3.73 1.01 1.25 1.85 1.25 1.1 0 2-.9 2-2 0-.08-.01-.16-.02-.24l2.27-2.27c.25.11.52.17.8.17 1.1 0 2-.9 2-2s-.9-2-2-2ZM2 14.5c-.28 0-.5-.22-.5-.5s.22-.5.5-.5.5.22.5.5-.22.5-.5.5m6.96 0c-.28 0-.5-.22-.5-.5s.22-.5.5-.5.5.22.5.5-.22.5-.5.5M14 10.16c-.28 0-.5-.22-.5-.5s.22-.5.5-.5.5.22.5.5-.22.5-.5.5"/>
</svg>
