<svg viewBox="0 0 64 64" xmlns="http://www.w3.org/2000/svg">
  <path d="M18.36 17.07 1.89 0h40.88L26.35 17.06c-1.06 1.1-2.47 1.7-4 1.7s-2.94-.6-4-1.7ZM44.73 1.94 31.3 15.9l13.43 16.3zm-44.74.05v30.12L13.41 15.9zm28.34 16.99c-1.58 1.64-3.7 2.54-5.98 2.54s-4.4-.9-5.98-2.54l-1.05-1.09L1.76 34.28h41.12l-13.5-16.39zm16.4 15.28-.02.02h.02zm-44.74.02H0l-.02-.02v.02ZM44.73 0h-.04l.04.04zm19.26 39.03c0 3.67-2.98 6.65-6.65 6.65-1.37 0-2.65-.42-3.72-1.14L42.47 55.69c.14.53.22 1.08.22 1.66 0 3.67-2.98 6.65-6.65 6.65-3.19 0-5.87-2.27-6.5-5.28H13.17C12.54 61.73 9.86 64 6.67 64 3 64.01.02 61.02.02 57.36S3 50.71 6.67 50.71c3.2 0 5.87 2.27 6.5 5.28h16.37c.63-3.01 3.31-5.28 6.5-5.28 2.06 0 3.9.94 5.12 2.41l10.55-10.56a6.54 6.54 0 0 1-1.02-3.53c0-3.67 2.98-6.65 6.65-6.65s6.65 2.98 6.65 6.65M10.57 57.36c0-2.15-1.75-3.9-3.9-3.9s-3.9 1.75-3.9 3.9 1.75 3.9 3.9 3.9 3.9-1.75 3.9-3.9m29.38 0c0-2.15-1.75-3.9-3.9-3.9s-3.9 1.75-3.9 3.9 1.75 3.9 3.9 3.9 3.9-1.75 3.9-3.9m21.29-18.33c0-2.15-1.75-3.9-3.9-3.9s-3.9 1.75-3.9 3.9 1.75 3.9 3.9 3.9 3.9-1.75 3.9-3.9"/>
</svg>
