<svg viewBox="0 0 64 64" xmlns="http://www.w3.org/2000/svg">
  <path fill="#1e1e1c" d="M45.44.04H7.41v64h49.33V14.06zm8.12 14.44h-9.87c-.76 0-1.38-.62-1.38-1.38V2.79h1.82zM10.16 61.3V2.79h29.4V13.1c0 2.28 1.85 4.13 4.13 4.13H54V61.3zm35.1-38.21-4.78 2.76c-.86-.64-1.79-1.18-2.76-1.6v-5.52H26.4v5.52c-.97.43-1.9.96-2.76 1.6l-4.79-2.76-5.66 9.8 4.74 2.74c-.07.57-.11 1.1-.11 1.62s.04 1.05.11 1.62l-4.74 2.74 5.66 9.8 4.79-2.76c.86.64 1.79 1.18 2.76 1.6v5.52h11.32v-5.52c.98-.43 1.9-.96 2.76-1.6l4.78 2.76 5.66-9.8-4.74-2.74c.07-.57.11-1.1.11-1.62s-.04-1.05-.11-1.62l4.74-2.74zm-2.11 11.12.18.96c.15.79.21 1.45.21 2.09s-.07 1.3-.21 2.09l-.18.95 4.02 2.32-2.91 5.04-4.05-2.34-.74.63c-1.07.91-2.28 1.61-3.58 2.08l-.91.33v4.67h-5.82v-4.67l-.91-.32c-1.3-.46-2.51-1.16-3.58-2.08l-.74-.63-4.05 2.34-2.91-5.04 4.02-2.32-.18-.95c-.15-.79-.21-1.45-.21-2.09s.07-1.3.21-2.09l.18-.95-4.02-2.32 2.91-5.04 4.05 2.34.74-.63c1.07-.91 2.28-1.61 3.58-2.08l.91-.32v-4.67h5.82v4.67l.91.32c1.3.47 2.51 1.17 3.58 2.08l.74.63 4.05-2.34 2.91 5.04-4.02 2.32Zm-11.09-4.42c-4.11 0-7.46 3.35-7.46 7.46s3.35 7.46 7.46 7.46 7.46-3.35 7.46-7.46-3.34-7.46-7.46-7.46m0 12.17c-2.6 0-4.71-2.11-4.71-4.71s2.11-4.71 4.71-4.71 4.71 2.11 4.71 4.71-2.11 4.71-4.71 4.71"/>
</svg>
