<svg viewBox="0 0 24 24" xmlns="http://www.w3.org/2000/svg">
  <path fill="#1e1e1c" d="M13.88 14.61c0 1.03-.84 1.88-1.88 1.88s-1.88-.84-1.88-1.88.84-1.88 1.88-1.88 1.88.84 1.88 1.88m7.45-9.27v18.64H2.67V.02h14.35l4.3 5.33Zm-5.24 8.51 1.41-.82-1.39-2.4-1.43.82c-.38-.33-.82-.58-1.3-.75V9.06H10.6v1.64c-.48.17-.92.43-1.3.75l-1.43-.82-1.39 2.4 1.41.82c-.05.25-.08.5-.08.76s.03.51.08.76l-1.41.82 1.39 2.4 1.43-.82c.38.33.82.58 1.3.75v1.64h2.78v-1.64c.48-.17.92-.43 1.3-.75l1.43.82 1.39-2.4-1.41-.82c.05-.25.08-.5.08-.76s-.03-.51-.08-.76m3.86-7.72L15.21.89v4.24c0 .55.45 1 1 1z"/>
</svg>
