<svg viewBox="0 0 24 24" xmlns="http://www.w3.org/2000/svg">
  <path fill="#1e1e1c" d="M17.03 0H2.66v24h18.67V5.33zm1.98 5.24h-2.8c-.07 0-.13-.06-.13-.13V1.75h.1L19 5.24ZM4.42 22.25V1.75h9.93v3.37c0 1.04.84 1.88 1.88 1.88h3.37v15.25zm7.64-10.63c-1.31 0-2.38 1.07-2.38 2.38s1.07 2.38 2.38 2.38 2.38-1.07 2.38-2.38-1.07-2.38-2.38-2.38m0 3c-.35 0-.63-.28-.63-.63s.28-.63.63-.63.63.28.63.63-.28.63-.63.63m4.44-5.8-1.69.97c-.16-.1-.32-.2-.49-.28V7.56H9.79v1.95c-.17.09-.33.18-.49.28l-1.69-.97-2.27 3.92 1.67.96v.58l-1.67.96 2.27 3.92 1.69-.97c.16.1.32.2.49.28v1.95h4.53v-1.95c.17-.09.33-.18.48-.28l1.69.97 2.27-3.92-1.67-.96v-.58l1.67-.97-2.27-3.92Zm-1.21 4.58q.06.33.06.6c0 .27-.02.38-.06.6l-.11.61 1.19.69-.51.89-1.21-.7-.47.4q-.465.39-1.02.6l-.58.21v1.39h-1.03V17.3l-.58-.21c-.37-.13-.72-.33-1.03-.6l-.47-.4-1.2.7-.51-.89 1.19-.69-.11-.61c-.04-.23-.06-.42-.06-.6s.02-.37.06-.6l.11-.61-1.19-.69.51-.89 1.2.7.47-.4c.31-.26.65-.46 1.03-.6l.58-.21V9.31h1.03v1.39l.58.21c.37.13.72.33 1.03.6l.47.4 1.2-.7.51.89-1.19.69z"/>
</svg>
