<svg viewBox="0 0 64 64" xmlns="http://www.w3.org/2000/svg">
  <path fill="#1e1e1c" d="M37.73 40.37c0 3.16-2.57 5.73-5.73 5.73s-5.73-2.57-5.73-5.73 2.57-5.73 5.73-5.73 5.73 2.57 5.73 5.73m19.04-26.33v50.03H7.39V.01h38.07l11.32 14.03ZM43.89 38.17 48 35.79l-4.04-6.99-4.15 2.4c-1.11-.95-2.38-1.69-3.78-2.19v-4.78h-8.07v4.78c-1.4.5-2.67 1.25-3.78 2.19l-4.15-2.4-4.04 6.99 4.11 2.37c-.13.72-.22 1.45-.22 2.2s.09 1.49.22 2.2l-4.11 2.37 4.04 6.99 4.15-2.4c1.11.95 2.38 1.69 3.78 2.19v4.78h8.07v-4.78c1.4-.5 2.67-1.25 3.78-2.19l4.15 2.4L48 44.93l-4.11-2.37c.13-.72.22-1.45.22-2.2s-.09-1.49-.22-2.2Zm9.51-22.33L40.94 1.39v11.69c0 1.52 1.24 2.76 2.76 2.76h9.69Z"/>
</svg>
