<svg viewBox="0 0 16 16" xmlns="http://www.w3.org/2000/svg">
  <path fill="#1e1e1c" d="M11.42.02H1.81v15.96h12.5V3.6zm-.39 9.44c0 .19-.02.37-.06.55l1.03.59-1.01 1.75-1.04-.6c-.28.24-.59.42-.94.55v1.2H6.99v-1.2c-.35-.12-.67-.31-.94-.55l-1.04.6L4 10.6l1.03-.59c-.03-.18-.06-.36-.06-.55s.02-.37.06-.55L4 8.32l1.01-1.75 1.04.6c.28-.24.59-.42.94-.55v-1.2h2.02v1.2c.35.12.67.31.94.55l1.04-.6L12 8.32l-1.03.59c.03.18.06.36.06.55m-.38-5.28c-.28 0-.5-.22-.5-.5V.77l2.91 3.41zM9.43 9.46a1.43 1.43 0 1 1-2.86 0 1.43 1.43 0 0 1 2.86 0"/>
</svg>
