<svg viewBox="0 0 40 40" xmlns="http://www.w3.org/2000/svg">
  <path d="M39.98 19.98v20.03h-40V19.98h2.25v17.78h35.5V19.98zM8.85 33.52h21.99c.62 0 1.13-.5 1.13-1.12s-.5-1.12-1.13-1.12H8.85c-.62 0-1.13.5-1.13 1.12s.5 1.12 1.13 1.12m0-7.17h21.99c.62 0 1.13-.5 1.13-1.12s-.5-1.12-1.13-1.12H8.85c-.62 0-1.13.5-1.13 1.12s.5 1.12 1.13 1.12m0-7.18h21.99c.62 0 1.13-.5 1.13-1.12s-.5-1.12-1.13-1.12H8.85c-.62 0-1.13.5-1.13 1.12s.5 1.12 1.13 1.12m0-10.37h21.99c.62 0 1.13-.5 1.13-1.12s-.5-1.12-1.13-1.12H8.85c-.62 0-1.13.5-1.13 1.12s.5 1.12 1.13 1.12m0-6.54h21.99c.62 0 1.13-.5 1.13-1.12S31.46.01 30.83.01H8.85c-.62 0-1.13.5-1.13 1.12s.5 1.12 1.13 1.12ZM1.83 8.88v7.78l3.89-3.89zm36.23 0-3.89 3.89 3.89 3.89z"/>
</svg>
