<svg viewBox="0 0 40 40" xmlns="http://www.w3.org/2000/svg">
  <path d="M40 19.99v20.03H0V19.99h2.25v17.78h35.5V19.99zM1.85 8.88v7.78l3.89-3.89zm36.24 0-3.89 3.89 3.89 3.89zM23.9.02h-7.79L20 3.91zm-5.13 27.67c-1.65 0-2.94 1.29-2.94 2.87s1.3 2.91 2.94 2.91 2.94-1.29 2.94-2.91-1.3-2.87-2.94-2.87m3.86-12.5c0 1.33-.91 2.28-2.45 3.33-2.31 1.58-3.5 2.94-3.5 5.92v1.09h4.2v-.42c0-1.89.28-2.31 2.94-4.31 2.38-1.79 3.57-3.26 3.57-5.67 0-4.41-3.92-6.48-8.12-6.48-2.45 0-5.18.67-6.55 1.26v4.24c1.58-.77 4.03-1.58 6.13-1.58 2.24 0 3.78.91 3.78 2.63Z"/>
</svg>
