<svg viewBox="0 0 16 16" xmlns="http://www.w3.org/2000/svg">
  <path d="M15.98 7.98v8.03h-16V7.98h1.5v6.53h13V7.98zM3.7 13.54h8.46c.41 0 .75-.34.75-.75s-.34-.75-.75-.75H3.7c-.41 0-.75.34-.75.75s.34.75.75.75m0-2.89h8.46c.41 0 .75-.34.75-.75s-.34-.75-.75-.75H3.7c-.41 0-.75.34-.75.75s.34.75.75.75m0-2.88h8.46c.41 0 .75-.34.75-.75s-.34-.75-.75-.75H3.7c-.41 0-.75.34-.75.75s.34.75.75.75m0-3.5h8.46c.41 0 .75-.34.75-.75s-.34-.75-.75-.75H3.7c-.41 0-.75.34-.75.75s.34.75.75.75m0-2.76h8.46c.41 0 .75-.34.75-.75S12.57 0 12.16 0H3.7c-.41 0-.75.34-.75.75s.34.75.75.75ZM1 3.74v3l1.5-1.5zm13.94 0-1.5 1.5 1.5 1.5z"/>
</svg>
