<svg viewBox="0 0 24 24" xmlns="http://www.w3.org/2000/svg">
  <path d="M7.97 17.78.72 11.72l5.51-4.41c-.01.18-.03.37-.03.55 0 3.8 2.25 7.08 5.51 8.64l-1.54 1.27c-.6.49-1.61.49-2.2 0ZM0 13.4v9.4l5.29-4.98zm11.29 5.72c-.62.51-1.42.77-2.21.77s-1.59-.26-2.21-.77l-.21-.18-5.37 5.05h15.57l-5.34-5.05-.21.18ZM18.14 24v-.03l-.03.03zm-4.5-6.82-.78.64 5.28 4.99v-5.59c-.7.16-1.42.24-2.17.24-.81 0-1.59-.11-2.34-.29Zm3.72-9.37 1.29.85V5.24l-1.29.74zm-3.21-.23h1.46V6.34h-1.46zm9.85.28c0 4.34-3.6 7.86-8.02 7.86s-8.02-3.53-8.02-7.86S11.55 0 15.98 0 24 3.53 24 7.86m-2.94-.92c0-.45-.27-.84-.66-1.02V4.27c0-.38-.18-.74-.49-.96s-.71-.29-1.07-.17l-2.57 1.45h-3.42c-.95 0-1.72.77-1.72 1.72v1.3c0 .85.63 1.56 1.44 1.69l.46 2.6c.1.57.59.98 1.17.98h1.14c.35 0 .69-.16.91-.43.23-.27.32-.62.26-.96l-.25-1.38c.21-.16.35-.39.4-.66l1.96 1.29.18.09c.13.05.28.07.42.07.24 0 .48-.07.68-.21.32-.22.51-.58.51-.97V7.96c.38-.18.66-.57.66-1.02Z"/>
</svg>
