<svg viewBox="0 0 24 24" xmlns="http://www.w3.org/2000/svg">
  <path d="M23.99 11.99v12.02H0V11.99h1.75v10.27h20.5V11.99H24ZM1.3 5.48v4.59l2.3-2.29-2.3-2.29Zm21.38 0-2.3 2.29 2.3 2.29V5.47ZM14.29.01h-4.6l2.3 2.29zm-.72 9.11c0 .8-.55 1.36-1.47 1.99-1.39.94-2.1 1.76-2.1 3.55v.65h2.52v-.25c0-1.13.17-1.39 1.77-2.58 1.43-1.07 2.14-1.95 2.14-3.4 0-2.65-2.35-3.88-4.88-3.88-1.47 0-3.11.4-3.93.76V8.5c.95-.46 2.42-.95 3.68-.95 1.35 0 2.27.55 2.27 1.58Zm-2.31 7.49c-.99 0-1.77.78-1.77 1.72s.78 1.74 1.77 1.74 1.77-.78 1.77-1.74-.78-1.72-1.77-1.72"/>
</svg>
