<svg viewBox="0 0 32 32" xmlns="http://www.w3.org/2000/svg">
  <path d="M31.95 16.07v15.95h-32V16.07h3.51v12.45h24.98V16.07zM9.83 24.45h12.09c.97 0 1.75-.78 1.75-1.75s-.79-1.75-1.75-1.75H9.83c-.97 0-1.75.78-1.75 1.75s.79 1.75 1.75 1.75m0-7.78h12.09c.97 0 1.75-.78 1.75-1.75s-.79-1.75-1.75-1.75H9.83c-.97 0-1.75.78-1.75 1.75s.79 1.75 1.75 1.75m0-13.14h12.09c.97 0 1.75-.78 1.75-1.75S22.89.03 21.92.03H9.83c-.97 0-1.75.78-1.75 1.75s.79 1.75 1.75 1.75m-7.9-.52v10.51l5.26-5.26zm27.92 0-5.26 5.26 5.26 5.26z"/>
</svg>
