<svg viewBox="0 0 48 48" xmlns="http://www.w3.org/2000/svg">
  <path d="m.01 26.37 11.05 9.5L.01 46.28v-19.9Zm20.48 9.89 3.28-2.7c-6.79-2.89-11.54-9.53-11.54-17.27 0-.43.04-.84.06-1.26L.98 23.91l14.38 12.36c1.37 1.13 3.73 1.13 5.13-.02ZM-.03 24.71l.03.04.17-.2zm22.11 13.48c-1.17.96-2.67 1.44-4.16 1.44s-3-.48-4.16-1.44l-.78-.67L1.85 47.98H34L22.88 37.53zm4.49-3.7-1.75 1.44 11 10.34v-11.7c-1.44.34-2.93.54-4.47.54-1.65 0-3.25-.23-4.78-.62m2.74-15.96h-1.07l.83 4.7h1.07l-.65-3.64-.19-1.07Zm-1.38-2.51h4.03v-3.59h-4.03zm20.04.28c0 9-7.46 16.31-16.62 16.31S14.73 25.29 14.73 16.3 22.18-.02 31.35-.02 47.97 7.3 47.97 16.29Zm-5.99-2.12c0-.83-.57-1.52-1.33-1.72V8.74c0-.6-.29-1.16-.77-1.52-.49-.36-1.13-.46-1.7-.27l-5.26 2.98H24.2a2.1 2.1 0 0 0-2.1 2.1v4.39c0 1.16.94 2.1 2.1 2.1h1.51l1 5.66c.16.9.94 1.55 1.86 1.55h2.31c.56 0 1.09-.25 1.45-.68s.51-.98.41-1.53l-.55-3.12c.55-.29.94-.86.94-1.53v-.35h.26l4.46 2.94.25.13a1.88 1.88 0 0 0 1.74-.22c.51-.35.81-.93.81-1.54V15.9c.76-.2 1.33-.89 1.33-1.72m-7.52 2.06 3.69 2.43V9.82l-3.69 2.11z"/>
</svg>
