<svg viewBox="0 0 16 16" xmlns="http://www.w3.org/2000/svg">
  <path d="M16 5.96C16 2.69 13.33.04 10.05.04c-2.8 0-5.15 1.93-5.78 4.53L0 8.09v7.95h12.28v-4.6c2.18-.88 3.71-3 3.71-5.48Zm-11.86.66a5.93 5.93 0 0 0 3.13 4.58l-.51.42c-.32.27-.89.27-1.22 0L1.83 8.53zM1.5 10.2l1.87 1.56-1.87 1.66zm.98 4.35 2.05-1.83.04.03c.44.37 1.01.55 1.57.55s1.13-.18 1.57-.55l.04-.03 2.05 1.83zm8.3-1.13-1.85-1.65c.36.07.73.11 1.11.11.25 0 .5-.02.74-.05zm-.73-3.03C7.6 10.39 5.6 8.4 5.6 5.96s1.99-4.42 4.45-4.42 4.45 1.99 4.45 4.43-2 4.43-4.45 4.43Zm2.89-5.72V3.63c0-.31-.15-.59-.4-.77a.95.95 0 0 0-.86-.13l-1.7.97H8.02c-.88 0-1.6.71-1.6 1.59v.33c0 .65.4 1.22.97 1.46l.3 1.73c.08.46.48.79.95.79h.76c.28 0 .55-.12.74-.34.18-.22.26-.5.21-.78l-.15-.84c.08-.07.13-.16.18-.26l1.11.74.15.08a.97.97 0 0 0 .89-.11c.26-.18.41-.47.41-.78V6.2c.26-.16.44-.44.44-.76s-.18-.6-.44-.76Zm-4.17.52h.64v.53h-.64zm2.67 1.11-.53-.35V4.88l.53-.31v1.72Z"/>
</svg>
