<svg viewBox="0 0 48 48" xmlns="http://www.w3.org/2000/svg">
  <path d="M47.98 17.6C47.98 7.89 39.97 0 30.1 0c-8.97 0-16.37 6.52-17.65 15L.05 24.74H.02v.03l-.04.03.04.05V48h35.79V34.26c7.07-2.35 12.16-8.91 12.16-16.67Zm-35.71.72c.29 7.06 4.79 13.05 11.1 15.58l-2.88 2.38c-1.4 1.15-3.75 1.15-5.15 0L2.69 25.85zM2.52 28.94l8.45 6.97-8.45 7.44zm1.33 16.57 9.07-7.99.83.69c1.17.96 2.66 1.44 4.16 1.44s2.99-.48 4.16-1.44l.83-.69 9.07 7.99zm29.46-2.16-8.45-7.44 1.37-1.13c1.25.27 2.54.42 3.87.42 1.1 0 2.17-.11 3.21-.3zM30.1 32.7c-8.48 0-15.38-6.77-15.38-15.1S21.63 2.51 30.1 2.51s15.38 6.77 15.38 15.1-6.9 15.1-15.38 15.1Zm7.78-18.41v-3.72c0-.6-.29-1.16-.77-1.52-.49-.36-1.12-.46-1.7-.27l-5.26 2.98h-8.71a2.1 2.1 0 0 0-2.1 2.1v4.39c0 1.16.94 2.1 2.1 2.1h1.51l1 5.66c.16.9.94 1.55 1.86 1.55h2.31c.56 0 1.09-.25 1.45-.68s.51-.98.41-1.53l-.55-3.13c.55-.29.94-.86.94-1.53v-.35h.26l4.46 2.94.25.13a1.88 1.88 0 0 0 1.74-.22c.5-.35.81-.93.81-1.54v-3.93c.76-.21 1.33-.9 1.33-1.72s-.57-1.52-1.33-1.72Zm-12.72-.02h4.03v3.59h-4.03zm1.16 10.8-.83-4.71h1.06l.22 1.23.62 3.48zm9.06-4.56-3.69-2.43v-4.31l3.69-2.11v8.86Z"/>
</svg>
