<svg viewBox="0 0 64 64" xmlns="http://www.w3.org/2000/svg">
  <path d="m.06 35.18 14.93 12.81L.06 62.02zm29.03 15.68c-1.51 1.24-3.44 1.87-5.38 1.87s-3.87-.62-5.38-1.87l-1.25-1.07L1.95 64.02h43.56L30.36 49.81zm18.27 13.15v-.07l-.06.07zm-47.3 0h.11l-.11-.11zm0-30.85v.18l-.17.13.04.05.32-.37H.06Zm34.68 13.03-2.24 1.85 14.86 13.94V46.35c-1.92.46-3.93.71-5.99.71-2.29 0-4.51-.31-6.63-.87m-7.4 2.54 4.33-3.57c-9.14-3.75-15.57-12.63-15.57-23 0-.5.02-.99.05-1.48L1.14 32.49l18.95 16.26c1.95 1.61 5.28 1.61 7.25-.02m6.65-25.82h6.48v-5.86h-6.48zm2.68 2.76h-2.3l1.32 7.45H38l-.95-5.38zm27.22-3.51c0 12.21-10.1 22.15-22.52 22.15s-22.52-9.94-22.52-22.15S28.95.01 41.37.01s22.52 9.94 22.52 22.15m-10.04-2.25c0-1.09-.83-1.98-1.88-2.11v-5.59c0-.72-.35-1.4-.93-1.83-.59-.43-1.36-.55-2.05-.33l-7.46 4.24H28.76c-1.22 0-2.22 1-2.22 2.22v6.92c0 1.23 1 2.22 2.22 2.22h2.82l1.48 8.34a2.27 2.27 0 0 0 2.24 1.87h3.27c.68 0 1.31-.3 1.75-.82.43-.51.61-1.18.49-1.84l-.84-4.72c.8-.29 1.37-1.04 1.37-1.93v-.89h.88l6.4 4.23.28.14c.26.1.53.14.8.14.46 0 .92-.14 1.3-.41.61-.42.97-1.12.97-1.86v-5.89a2.13 2.13 0 0 0 1.88-2.11Zm-10.63 3.13 6 3.96V13.06l-6 3.43v6.54Z"/>
</svg>
