<svg viewBox="0 0 32 32" xmlns="http://www.w3.org/2000/svg">
  <path d="M31.97 16.08v15.96h-32V16.08h3.51v12.45h24.98V16.08zM1.95 3.01v10.51l5.26-5.26zm27.92 0-5.26 5.26 5.26 5.26zM21.26.04H10.73l5.26 5.26zm.3 12.91c0-2.91-2.65-4.42-5.99-4.42-1.78 0-3.63.41-4.74.87v3.48c1.23-.58 2.77-.98 4.12-.98 1.68 0 2.43.58 2.43 1.42 0 .7-.36 1.06-1.78 2.07-1.27.86-2.05 1.75-2.05 3.75v.58h3.66v-.14c0-1.3.31-1.59 1.92-2.71 1.59-1.08 2.43-2.23 2.43-3.89Zm-6.19 8.03c-1.52 0-2.5 1.08-2.5 2.31s.99 2.33 2.5 2.33 2.5-1.06 2.5-2.33-.99-2.31-2.5-2.31"/>
</svg>
