<svg viewBox="0 0 40 40" xmlns="http://www.w3.org/2000/svg">
  <path d="M12.92 30.1.95 19.81l9.4-7.39c-.02.35-.05.7-.05 1.05 0 6.41 3.9 11.92 9.49 14.37l-2.72 2.24c-1.13.93-3.04.93-4.15.01Zm9.37-1.4-1.44 1.18 9.1 8.57v-9.67c-1.18.27-2.41.43-3.68.43-1.38 0-2.71-.19-3.99-.51ZM.02 21.98v16.48l9.15-8.62zm18.48 9.84c-.98.81-2.25 1.22-3.51 1.22s-2.53-.41-3.52-1.22l-.59-.51-9.21 8.68h26.64l-9.21-8.66-.61.5Zm5.76-16.41h-.71l.66 3.74h.72l-.52-2.94zm-.99-2.25h3.18v-2.81h-3.18zm5.43.22 2.9 1.91V8.23l-2.9 1.66zm11.32.09c0 7.44-6.16 13.49-13.74 13.49s-13.74-6.05-13.74-13.49S18.7-.01 26.28-.01s13.74 6.05 13.74 13.49Zm-5.07-1.76c0-.7-.47-1.29-1.11-1.49V7.19c0-.52-.25-1.02-.68-1.33s-.99-.4-1.49-.24L27.3 8.1h-6.46c-1.09 0-1.97.88-1.97 1.97v3.37c0 1.09.88 1.97 1.97 1.97h.42l.82 4.64c.14.79.83 1.36 1.63 1.36h1.92c.49 0 .96-.22 1.27-.59s.44-.86.36-1.34l-.45-2.54c.46-.27.77-.75.77-1.32v-.21h.11l3.69 2.43.23.11c.19.07.39.11.58.11.33 0 .67-.1.95-.3.44-.31.71-.81.71-1.35V13.2c.64-.2 1.11-.79 1.11-1.49Z"/>
</svg>
