<svg viewBox="0 0 64 64" xmlns="http://www.w3.org/2000/svg">
  <path d="M63.91 23.58C63.91 10.56 53.21 0 40.01 0 27.86 0 17.83 8.96 16.32 20.54L.31 33.14H.08v.18l-.17.14.17.22v30.33h47.26V46.02c9.61-3.05 16.56-11.94 16.56-22.44Zm-47.78.6c.25 9.73 6.47 18 15.19 21.36l-3.98 3.28c-1.97 1.62-5.29 1.63-7.26 0l-17.2-14.2 13.25-10.43ZM2.83 38.13l12.06 9.96L2.83 58.73zm1.29 23.13 12.91-11.39 1.31 1.08c1.51 1.24 3.44 1.87 5.37 1.87s3.87-.62 5.37-1.87l1.31-1.08L43.3 61.26zm40.49-2.52L32.55 48.1l1.92-1.58c1.78.42 3.64.65 5.55.65 1.57 0 3.11-.15 4.59-.44v12.02Zm-4.6-14.33c-11.67 0-21.16-9.34-21.16-20.82s9.5-20.83 21.16-20.83 21.16 9.34 21.16 20.82S51.68 44.4 40.01 44.4Zm10.1-25.02v-5.22c0-.7-.34-1.37-.91-1.79-.58-.42-1.32-.54-2-.32l-7.05 4.01H28.14c-1.22 0-2.22 1-2.22 2.22v6.46c0 1.23.99 2.22 2.22 2.22h2.56l1.39 7.83a2.22 2.22 0 0 0 2.19 1.83h3.09c.66 0 1.28-.29 1.71-.8.42-.5.6-1.16.48-1.81l-.78-4.41c.75-.3 1.29-1.03 1.29-1.88v-.77h.74l6.04 3.99.27.14c.25.09.52.14.78.14.45 0 .89-.14 1.27-.4.6-.41.95-1.09.95-1.82V23.5c1.01-.16 1.78-1.02 1.78-2.06s-.78-1.91-1.78-2.06Zm-17-.58h5.99v5.4h-5.99zm1.59 15.07-1.22-6.9h2.03l.32 1.78.91 5.12zm12.67-5.86-5.53-3.65v-6.11l5.53-3.17z"/>
</svg>
