<svg viewBox="0 0 24 24" xmlns="http://www.w3.org/2000/svg">
  <path d="M23.97 11.98v12.04h-24V11.98h1.75v10.29h20.5V11.98zM5.42 20.23h12.97c.48 0 .88-.39.88-.88s-.39-.88-.88-.88H5.42c-.48 0-.88.39-.88.88s.39.88.88.88m0-4.43h12.97c.48 0 .88-.39.88-.88s-.39-.88-.88-.88H5.42c-.48 0-.88.39-.88.88s.39.88.88.88m0-4.42h12.97c.48 0 .88-.39.88-.88s-.39-.88-.88-.88H5.42c-.48 0-.88.39-.88.88s.39.88.88.88m0-5.38h12.97c.48 0 .88-.39.88-.88s-.39-.88-.88-.88H5.42c-.48 0-.88.39-.88.88s.39.88.88.88m0-4.23h12.97c.48 0 .88-.39.88-.88s-.39-.88-.88-.88H5.42c-.48 0-.88.39-.88.88s.39.88.88.88M1.27 5.46v4.6l2.3-2.3zm21.39 0-2.3 2.3 2.3 2.3z"/>
</svg>
