<svg viewBox="0 0 24 24" xmlns="http://www.w3.org/2000/svg">
  <path d="M23.98 12v12.02h-24V12h3v9.01h18.01V12h3ZM1.65 2.43v7.78l3.88-3.89zm20.58 0-3.88 3.89 3.88 3.89zM15.89.01H8.13l3.88 3.89zm-4.36 15.48c-1.13 0-1.87.81-1.87 1.73s.74 1.75 1.87 1.75 1.87-.79 1.87-1.75-.74-1.73-1.87-1.73m4.62-6.02c0-2.18-1.98-3.32-4.48-3.32-1.33 0-2.71.31-3.54.65v2.61c.92-.43 2.07-.74 3.07-.74 1.26 0 1.82.43 1.82 1.06 0 .52-.27.79-1.33 1.55-.95.65-1.53 1.32-1.53 2.81v.43h2.73v-.11c0-.97.23-1.19 1.44-2.04 1.19-.81 1.82-1.68 1.82-2.92Z"/>
</svg>
