<svg viewBox="0 0 24 24" xmlns="http://www.w3.org/2000/svg">
  <path d="M23.95 8.78c0-4.85-3.98-8.78-8.89-8.78-4.38 0-8.02 3.13-8.75 7.26L.17 12.29H.05v.1l-.1.09.1.13v11.4h18.06v-6.98c3.4-1.23 5.83-4.45 5.83-8.24ZM6.21 9.6c.3 3.2 2.34 5.9 5.17 7.17l-1.2.99c-.59.49-1.6.49-2.19 0l-5.84-4.83zM1.8 14.91l3.48 2.88-3.48 3.08zm1.08 7.34 3.76-3.33.24.2c.62.51 1.41.77 2.2.77s1.59-.26 2.2-.77l.24-.2 3.76 3.33zm13.49-1.38-3.48-3.08.47-.39c.55.11 1.12.16 1.7.16.45 0 .88-.04 1.31-.11v3.41Zm-1.31-5.05c-3.94 0-7.15-3.16-7.15-7.03s3.21-7.04 7.15-7.04 7.15 3.16 7.15 7.03-3.21 7.03-7.15 7.03Zm4.07-8.84V5.32a1.19 1.19 0 0 0-1.55-1.13l-2.57 1.46H11.6c-.95 0-1.72.77-1.72 1.72v1.3c0 .86.63 1.56 1.44 1.69l.46 2.6c.1.57.59.98 1.17.98h1.13c.35 0 .68-.15.91-.42.22-.27.32-.62.26-.97l-.24-1.38c.21-.16.35-.39.4-.66l1.95 1.29.17.09c.14.05.28.08.42.08a1.186 1.186 0 0 0 1.19-1.18V9.03c.38-.18.65-.57.65-1.02s-.27-.84-.65-1.02Zm-6.23.42h1.46v1.24H12.9zm4.49 2.33-1.29-.85V7.05l1.29-.74z"/>
</svg>
