<svg viewBox="0 0 48 48" xmlns="http://www.w3.org/2000/svg">
  <path d="M48 24.15v23.88H0V24.15h4.5v19.38h39V24.15zM3.17 4.27v16l8-8zm41.39 0-8 8 8 8zM32.01.03H16.02l8 8zm-8.92 31.44c-2.27 0-3.74 1.62-3.74 3.46s1.48 3.49 3.74 3.49 3.74-1.58 3.74-3.49-1.48-3.46-3.74-3.46m9.26-12.03c0-4.36-3.96-6.63-8.96-6.63-2.66 0-5.44.61-7.09 1.3v5.22c1.84-.86 4.14-1.48 6.16-1.48 2.52 0 3.64.86 3.64 2.13 0 1.04-.54 1.58-2.66 3.1-1.91 1.3-3.06 2.63-3.06 5.62v.86h5.47v-.22c0-1.94.47-2.38 2.88-4.07 2.38-1.62 3.64-3.35 3.64-5.83Z"/>
</svg>
