<svg viewBox="0 0 40 40" xmlns="http://www.w3.org/2000/svg">
  <path fill="#1e1e1c" d="M20.84 31.51c0-3.9 2.11-7.31 5.23-9.18h-5.38v-2.25h11.02v.74c1.32.02 2.57.29 3.73.74V8.75l-7.1-8.8H4.51v39.97h20.44c-2.5-1.96-4.11-5-4.11-8.41m4.59-30.44 7.39 8.89h-5.69c-.94 0-1.7-.76-1.7-1.7zM13.31 34.33l-4.22-3.24 1.37-1.79 2.36 1.81 3.67-5.23 1.84 1.29-5.02 7.15Zm0-9.82-4.22-3.24 1.37-1.79 2.36 1.81 3.67-5.23 1.84 1.29-5.02 7.15Zm18.22-1.44c-4.66 0-8.44 3.78-8.44 8.44s3.78 8.44 8.44 8.44 8.44-3.78 8.44-8.44-3.78-8.44-8.44-8.44m-.98 13.75-1.59-1.59 3.4-3.4-3.4-3.4 1.59-1.59 4.99 4.99z"/>
</svg>
