<svg viewBox="0 0 32 32" xmlns="http://www.w3.org/2000/svg">
  <path fill="#1e1e1c" d="m16.25 27.36-.36-.81.36-.81c.1-.23 2.57-5.63 8.24-5.63 1.54 0 2.84.4 3.92.99V7.07L22.71 0H3.6v31.99h16.95c-2.9-1.57-4.23-4.46-4.3-4.63M20.35.99l5.72 7.07H21.7c-.75 0-1.35-.6-1.35-1.35zm-4.27 14.74h9.37v2h-9.37zm-5.89 11.82-3.46-2.66 1.22-1.59 1.81 1.39 2.88-4.1 1.64 1.15-4.08 5.81Zm0-8.03-3.46-2.66 1.22-1.59 1.81 1.39 2.88-4.1 1.64 1.15-4.08 5.81Zm21.63 6.62c-.09-.21-2.3-5.03-7.33-5.03s-7.24 4.83-7.33 5.03l-.18.41.18.41c.09.21 2.3 5.03 7.33 5.03s7.24-4.83 7.33-5.03l.18-.41zm-7.32 3.85c-3.03 0-4.72-2.45-5.29-3.44.57-1 2.26-3.44 5.29-3.44s4.72 2.44 5.29 3.44c-.57 1-2.26 3.44-5.29 3.44m0-5.84c-1.33 0-2.4 1.07-2.4 2.4s1.07 2.4 2.4 2.4 2.4-1.07 2.4-2.4-1.07-2.4-2.4-2.4m.55 2.09c-.31 0-.55-.25-.55-.55s.25-.55.55-.55.55.25.55.55-.25.55-.55.55"/>
</svg>
