<svg viewBox="0 0 64 64" xmlns="http://www.w3.org/2000/svg">
  <path fill="#1e1e1c" d="M33.13 33.06h14.73v2.75H33.13zm-4.38-6.6-6.13 8.73-4.13-3.16-1.67 2.18 6.4 4.91L31 28.05l-2.25-1.58ZM18.5 47.72l-1.67 2.18 6.4 4.91 7.78-11.07-2.25-1.58-6.13 8.73-4.13-3.16Zm22.9 13.51a14 14 0 0 0 3.88 2.75H8.82V0h36.03l10.72 13.29v24.74c-.88-.28-1.8-.48-2.75-.58V16.38H42.56c-1.86 0-3.38-1.51-3.38-3.38V2.75H11.57v58.48zm2.14-58.48h-1.6v10.26c0 .34.28.63.63.63h9.76L43.55 2.75Zm20.43 48.62c0 6.96-5.66 12.63-12.63 12.63s-12.63-5.66-12.63-12.63 5.66-12.63 12.63-12.63 12.63 5.66 12.63 12.63m-2.75 0c0-5.45-4.43-9.88-9.88-9.88s-9.88 4.43-9.88 9.88 4.43 9.88 9.88 9.88 9.88-4.43 9.88-9.88m-13.65-4.18 4.62 4.62-4.62 4.62 1.95 1.95 6.56-6.56-6.56-6.57-1.95 1.95Z"/>
</svg>
