<svg viewBox="0 0 40 40" xmlns="http://www.w3.org/2000/svg">
  <path fill="#1e1e1c" d="m20.72 34.27-.41-.91.41-.91c.12-.28 3.14-6.88 10.06-6.88 1.85 0 3.42.48 4.73 1.18V8.84L28.4.03H4.57V40h21.52c-3.62-1.9-5.28-5.52-5.37-5.72ZM25.5 1.15l7.39 8.89H27.2c-.94 0-1.7-.76-1.7-1.7zm-4.74 19.01h11.02v2.25H20.76zm-7.38 14.25-4.22-3.24 1.37-1.79 2.36 1.81 3.67-5.23 1.84 1.29-5.02 7.15Zm0-9.82-4.22-3.24 1.37-1.79 2.36 1.81 3.67-5.23 1.84 1.29-5.02 7.15ZM35.47 40l.04-.02V40zm4.35-7.1c-.11-.25-2.83-6.21-9.04-6.21s-8.92 5.96-9.04 6.21l-.2.46.2.46c.11.25 2.83 6.21 9.04 6.21s8.92-5.96 9.04-6.21l.2-.46zm-9.04 4.88c-3.91 0-6.06-3.2-6.74-4.42.68-1.22 2.84-4.42 6.74-4.42s6.06 3.2 6.74 4.42c-.68 1.22-2.84 4.42-6.74 4.42m0-7.42c-1.66 0-3 1.34-3 3s1.34 3 3 3 3-1.34 3-3-1.34-3-3-3m.69 2.61c-.38 0-.69-.31-.69-.69s.31-.69.69-.69.69.31.69.69-.31.69-.69.69"/>
</svg>
