<svg viewBox="0 0 16 16" xmlns="http://www.w3.org/2000/svg">
  <path fill="#1e1e1c" d="M8.29 6.99h3.69v1.5H8.29zM6.86 5.51 5.57 7.35l-.7-.53-.91 1.19L5.9 9.5l2.19-3.12-1.23-.86Zm-1.99 5.7-.91 1.19 1.94 1.49 2.19-3.12-1.23-.86-1.29 1.84-.7-.53Zm4.58 4.8H1.79v-16h9.63l2.9 3.59v6.35c-.44-.26-.94-.46-1.5-.56V4.93h-2.16c-.69 0-1.25-.56-1.25-1.25V1.52H3.29v12.99h4.6c.37.53.89 1.08 1.56 1.5M10.9 1.76v1.67h1.34zm5.11 11.28-.14.31c-.05.11-1.22 2.67-3.9 2.67s-3.85-2.56-3.9-2.67l-.14-.31.14-.31c.05-.11 1.22-2.67 3.9-2.67s3.85 2.56 3.9 2.67zm-1.68 0c-.32-.51-1.08-1.47-2.35-1.47s-2.04.96-2.35 1.47c.32.51 1.08 1.47 2.35 1.47s2.04-.96 2.35-1.47m-2.35-1.08c-.6 0-1.08.48-1.08 1.08s.48 1.08 1.08 1.08 1.08-.48 1.08-1.08-.48-1.08-1.08-1.08"/>
</svg>
