<svg viewBox="0 0 64 64" xmlns="http://www.w3.org/2000/svg">
  <path fill="#1e1e1c" d="M33.16 33.06h14.73v2.75H33.16zm-4.38-6.6-6.13 8.73-4.13-3.17-1.67 2.18 6.4 4.91 7.78-11.08-2.25-1.58ZM18.53 47.73l-1.67 2.18 6.4 4.91 7.78-11.08-2.25-1.58-6.13 8.73-4.13-3.17Zm20.61 13.51a16.6 16.6 0 0 0 4.17 2.75H8.84V0h36.05l10.72 13.29v30.02c-.85-.36-1.77-.65-2.75-.85V16.39H42.59c-1.86 0-3.38-1.51-3.38-3.38V2.74H11.59v58.5zm4.43-58.5h-1.61V13c0 .34.28.63.63.63h9.76zM64 53.75l-.25.56c-.18.4-4.42 9.69-14.07 9.69s-13.9-9.29-14.07-9.69l-.25-.56.25-.56c.18-.4 4.42-9.69 14.07-9.69s13.9 9.29 14.07 9.69zm-3.04 0c-.99-1.84-4.57-7.5-11.28-7.5s-10.29 5.65-11.28 7.5c.99 1.84 4.56 7.5 11.28 7.5s10.29-5.65 11.28-7.5m-6.48 0a4.801 4.801 0 0 1-9.6 0 4.801 4.801 0 0 1 9.6 0m-2.59-1.73c0-.61-.5-1.11-1.11-1.11s-1.11.5-1.11 1.11.5 1.11 1.11 1.11 1.11-.5 1.11-1.11"/>
</svg>
