<svg viewBox="0 0 32 32" xmlns="http://www.w3.org/2000/svg">
  <path fill="#1e1e1c" d="M16.47 25.25c0-3.2 1.73-5.99 4.3-7.52h-4.71v-2h9.36v.78c1.04.02 2.04.23 2.96.59V7.07L22.67 0H3.58v31.97h16.04a8.73 8.73 0 0 1-3.16-6.72Zm3.84-24.24 5.72 7.06h-4.37c-.74 0-1.35-.6-1.35-1.35zM10.17 27.54l-3.46-2.65 1.22-1.59 1.81 1.38 2.88-4.1 1.64 1.15-4.08 5.81Zm0-8.02-3.46-2.65 1.22-1.59 1.81 1.38 2.88-4.1 1.64 1.15-4.08 5.81Zm15.05-1.02c-3.73 0-6.75 3.02-6.75 6.75S21.49 32 25.22 32s6.75-3.02 6.75-6.75-3.02-6.75-6.75-6.75m-.97 11.07-1.41-1.41 2.65-2.65-2.65-2.65 1.41-1.41 4.06 4.06z"/>
</svg>
