<svg viewBox="0 0 24 24" xmlns="http://www.w3.org/2000/svg">
  <path fill="#1e1e1c" d="M12.43 11.46h5.52v1.75h-5.52zM10.5 9.14l-2.08 2.97-1.25-.96-1.06 1.39 2.7 2.07 3.13-4.46-1.43-1.01Zm-3.34 8.13L6.1 18.66l2.7 2.07 3.13-4.46-1.43-1.01-2.08 2.97-1.25-.96Zm7.83 6.74H2.96V0h14.05l4.21 5.22v10.23c-.52-.27-1.1-.48-1.75-.6V6.87h-3.49c-.9 0-1.63-.73-1.63-1.63V1.76H4.71v20.5h8.25c.5.6 1.17 1.25 2.04 1.75Zm1.18-22.25h-.07v3.36h2.78zM24 19.81l-.16.36c-.07.16-1.75 3.85-5.61 3.85s-5.54-3.69-5.61-3.85l-.16-.36.16-.36c.07-.16 1.75-3.85 5.61-3.85s5.54 3.69 5.61 3.85zm-1.95 0c-.44-.76-1.68-2.45-3.82-2.45s-3.37 1.69-3.82 2.45c.44.76 1.68 2.45 3.82 2.45s3.37-1.69 3.82-2.45m-3.82-1.62c-.89 0-1.62.73-1.62 1.62s.73 1.62 1.62 1.62 1.62-.73 1.62-1.62-.73-1.62-1.62-1.62"/>
</svg>
