<svg viewBox="0 0 40 40" xmlns="http://www.w3.org/2000/svg">
  <path fill="#1e1e1c" d="m19.58 17.43-5.02 7.15-4.22-3.24 1.37-1.79 2.36 1.81 3.67-5.23 1.84 1.29Zm-7.87 11.94-1.37 1.79 4.22 3.24 5.02-7.15-1.84-1.29-3.67 5.23-2.36-1.81Zm10.9 8.38c.87.92 1.89 1.68 3.03 2.25H5.23V0h22.92l6.84 8.48V20.8c-.71-.34-1.46-.61-2.25-.79v-9.24h-6.15c-1.31 0-2.38-1.07-2.38-2.38V2.25H7.49v35.5h15.13Zm4.47-35.5h-.61V8.4c0 .07.06.13.13.13h5.55l-5.06-6.27Zm-6.39 20.14h2.67c1.19-1.04 2.61-1.82 4.18-2.25h-6.85zm19.26 8.05c0 5.27-4.29 9.57-9.57 9.57s-9.57-4.29-9.57-9.57 4.29-9.57 9.57-9.57 9.57 4.29 9.57 9.57m-2.25 0c0-4.03-3.28-7.31-7.31-7.31s-7.31 3.28-7.31 7.31 3.28 7.31 7.31 7.31 7.31-3.28 7.31-7.31m-10.21-3.08 3.4 3.4-3.4 3.4 1.59 1.59 4.99-4.99-4.99-4.99z"/>
</svg>
