<svg viewBox="0 0 48 48" xmlns="http://www.w3.org/2000/svg">
  <path fill="#1e1e1c" d="M24.87 24.38h11.04v2.5H24.87zm-3.46-4.86-4.46 6.36-2.91-2.23-1.52 1.98 4.98 3.82 5.96-8.49zm-7.38 15.9-1.52 1.98 4.98 3.82 5.96-8.49-2.05-1.44-4.46 6.36zM28.26 45.5c.92.92 2.05 1.81 3.42 2.5H6.42V0h27.34l8.15 10.1V32c-.76-.35-1.6-.62-2.5-.8V12.73h-7.48c-1.52 0-2.75-1.23-2.75-2.75V2.5H8.92v43zm4.31-43h-.88v7.48c0 .14.11.25.25.25h6.86zm15.42 37.6-.23.51c-.13.3-3.37 7.39-10.75 7.39s-10.61-7.09-10.75-7.39l-.23-.51.23-.51c.13-.3 3.37-7.39 10.75-7.39s10.61 7.09 10.75 7.39zm-2.77 0c-.79-1.44-3.41-5.4-8.2-5.4s-7.41 3.96-8.2 5.4c.79 1.44 3.41 5.4 8.2 5.4s7.41-3.96 8.2-5.4m-4.61 0c0 1.99-1.61 3.6-3.6 3.6s-3.6-1.61-3.6-3.6 1.61-3.6 3.6-3.6 3.6 1.61 3.6 3.6m-1.93-1.29c0-.46-.37-.83-.83-.83s-.83.37-.83.83.37.83.83.83.83-.37.83-.83"/>
</svg>
