<svg viewBox="0 0 64 64" xmlns="http://www.w3.org/2000/svg">
  <path fill="#1e1e1c" d="M34.28 50.44c0-6.49 3.84-12.08 9.35-14.68h-10.5v-2.75h18.42v1.25c1.82.12 3.56.52 5.17 1.18V14.01L45.41 0H7.38v64h34.23c-4.41-2.91-7.34-7.9-7.34-13.56Zm6.63-49.07 12.44 14.44h-9.68a2.76 2.76 0 0 1-2.76-2.76zM20.74 54.74l-6.39-4.9 1.67-2.18 4.12 3.16 6.12-8.72 2.25 1.58zm0-15.68-6.39-4.9 1.67-2.18 4.12 3.16 6.12-8.72L28.51 28zm29.78-2.11c-7.45 0-13.49 6.04-13.49 13.49s6.04 13.49 13.49 13.49 13.49-6.04 13.49-13.49-6.04-13.49-13.49-13.49m-1.87 21.68-1.94-1.94 5.73-5.73-5.73-5.73 1.94-1.94 7.68 7.68-7.67 7.67Z"/>
</svg>
