<svg viewBox="0 0 16 16" xmlns="http://www.w3.org/2000/svg">
  <path fill="#1e1e1c" d="M8.06 6.38 5.87 9.5 3.93 8.01l.91-1.19.7.53 1.29-1.84 1.23.86Zm1.18 9.63H1.77V.02h9.62l2.9 3.59v4.08c-.46-.27-.96-.48-1.5-.59V4.94h-2.16c-.69 0-1.25-.56-1.25-1.25V1.52H3.27v12.99h4.45c.39.61.91 1.12 1.52 1.5m1.63-14.24v1.67h1.34zM8.26 8.5h.06A4.87 4.87 0 0 1 11.83 7c.04 0 .08.01.12.01v-.02H8.26v1.5ZM6.83 9.9l-1.29 1.84-.7-.53-.91 1.19 1.94 1.49 1.12-1.59c-.01-.14-.04-.27-.04-.41 0-.59.12-1.15.32-1.68l-.43-.3Zm9.13 1.98a4.131 4.131 0 0 1-8.26 0 4.131 4.131 0 0 1 8.26 0m-1.5 0c0-1.45-1.18-2.63-2.63-2.63S9.2 10.43 9.2 11.88s1.18 2.63 2.63 2.63 2.63-1.18 2.63-2.63m-4-1.02 1.15 1.15-1.15 1.15 1.06 1.06 2.21-2.21-2.21-2.21z"/>
</svg>
