<svg viewBox="0 0 16 16" xmlns="http://www.w3.org/2000/svg">
  <path fill="#1e1e1c" d="m7.39 13.65-.27-.61.27-.61c.51-1.16 2.06-3.11 4.58-3.11.9 0 1.66.25 2.31.62V3.6L11.38.01H1.77v15.98h7.65a5.7 5.7 0 0 1-2.03-2.34M10.12.76l2.91 3.41h-2.41c-.28 0-.5-.22-.5-.5zM8.3 6.98h4.13v1.5H8.3zM4.39 6.8l.7.53 1.29-1.84 1.23.86-2.19 3.12-1.94-1.49.91-1.19Zm-.92 5.58.91-1.19.7.53 1.29-1.84 1.23.86-2.19 3.12-1.94-1.49Zm12.39.36c-.05-.11-1.22-2.66-3.89-2.66s-3.84 2.56-3.89 2.66l-.13.3.13.3c.05.11 1.22 2.67 3.89 2.67s3.84-2.56 3.89-2.67l.13-.3zm-3.89 1.77c-1.27 0-2.04-.96-2.35-1.47.32-.51 1.08-1.47 2.35-1.47s2.03.96 2.35 1.47c-.32.51-1.08 1.47-2.35 1.47m1.08-1.47c0 .6-.48 1.08-1.08 1.08s-1.08-.48-1.08-1.08.48-1.08 1.08-1.08 1.08.48 1.08 1.08"/>
</svg>
