<svg viewBox="0 0 24 24" xmlns="http://www.w3.org/2000/svg">
  <path fill="#1e1e1c" d="M11.9 10.14 8.77 14.6l-2.7-2.07 1.06-1.39 1.25.96 2.08-2.97 1.43 1.01Zm-4.76 7.12-1.06 1.39 2.7 2.07 3.13-4.46-1.43-1.01-2.08 2.97-1.25-.96ZM14.7 24H2.93V0h14.05l4.21 5.22v6.81a6.7 6.7 0 0 0-1.75-.63V6.88h-3.49c-.9 0-1.63-.73-1.63-1.63V1.76H4.68v20.5h7.99c.56.71 1.24 1.31 2.03 1.75Zm1.44-22.24h-.07v3.36h2.78zM12.4 13.21h.84c.85-.84 1.93-1.45 3.12-1.75h-3.97v1.75Zm11.57 4.85c0 3.28-2.66 5.94-5.94 5.94s-5.94-2.67-5.94-5.94 2.67-5.94 5.94-5.94 5.94 2.66 5.94 5.94m-1.75 0c0-2.31-1.88-4.19-4.19-4.19s-4.19 1.88-4.19 4.19 1.88 4.19 4.19 4.19 4.19-1.88 4.19-4.19m-6.07-1.7 1.9 1.9-1.9 1.9 1.24 1.24 3.14-3.14-3.14-3.14z"/>
</svg>
