<svg viewBox="0 0 48 48" xmlns="http://www.w3.org/2000/svg">
  <path fill="#1d1d1b" d="M14.88 27.45h6.34v6.28h-6.34zM48.02 0v48h-48V0zM32.97 4.58h10.45v11.09h2.5V2.08H32.97zm-5.4 16.53h6.32v6.32h6.34v-6.34h-6.32v-6.26h6.32V8.49h-6.34v6.28h-6.32zm-6.36-6.28h6.34V8.49h-6.34zm-19.14.2h2.5V4.58h11.09v-2.5H2.07zm12.9 28.47H4.52V32.41h-2.5V46h12.95zm12.58-9.74v6.31h12.68v-6.34H27.55v-6.31h-6.34v-6.31h-6.34V8.49H8.53v12.62h6.34v6.31H8.53v12.65h12.68v-6.31zM45.98 33h-2.5v10.45H32.39v2.5h13.59z"/>
</svg>
