<svg viewBox="0 0 32 32" xmlns="http://www.w3.org/2000/svg">
  <path fill="#1e1e1c" d="M2.02 10.77h-2V0h11.15v2H2.02v8.78ZM21.24.02v2h8.78v9.15h2V.02zm8.77 29.95h-9.15v2h11.15V21.19h-2zM2.03 20.84H.02v11.15H10.8v-2H2.03zm15.75 6.13v-3.09h-3.1v3.09H5.37v-3.1h3.1V20.8h-3.1v-6.19h3.1v-3.07h-3.1v-3.1h3.1V5.35h3.1v3.1h-3.1v3.07h6.21V5.34h3.1v3.09h3.1V5.34h3.1v3.09h3.1v6.19h-3.1v-3.09h-3.1v6.16h3.1v3.09h3.1v6.19h-9.31Zm3.1-6.18v3.07h3.1v-3.07zm-3.1-3.1v3.09h3.1V17.7h-3.1Zm-9.31 0h3.1v-3.07h-3.1zm6.21.02h-3.1v6.16h3.1zm3.1-3.11v-3.07h-3.1v3.07z"/>
</svg>
