<svg viewBox="0 0 40 40" xmlns="http://www.w3.org/2000/svg">
  <path fill="#1e1e1c" d="M2.27 13.41H.02V0h13.87v2.25H2.27zm35.5.46h2.25V0H26.61v2.25h11.16zm0 12.71v11.16H26.15v2.25h13.87V26.58zm-35.5-.46H.02v13.87h13.41v-2.25H2.27zm19.96 7.64v-3.88h-3.9v3.88H6.64v-3.9h3.9V26h-3.9v-7.78h3.9v-3.86h-3.9v-3.9h3.9V6.58h3.9v3.9h-3.9v3.86h7.79V6.58h3.9v3.88h3.9V6.58h3.9v3.88h3.9v7.78h-3.9v-3.88h-3.9v7.74h3.9v3.88h3.9v7.78H22.24ZM26.12 26v3.86h3.9V26zm-3.89-3.9v3.88h3.9v-3.87h-3.89Zm-11.69 0h3.9v-3.86h-3.9zm7.79.02h-3.9v7.74h3.9zm3.9-3.9v-3.86h-3.9v3.86z"/>
</svg>
