<svg viewBox="0 0 64 64" xmlns="http://www.w3.org/2000/svg">
  <path d="M2.77 21.25H.02V.02H22v2.75H2.77zM42.8-.02v2.75h18.48v19.24h2.75V-.02H42.81Zm18.44 61.25H42.01v2.75h21.98V42.75h-2.75zM2.81 41.99H.06v21.99h21.22v-2.75H2.81zm32.78 12.19v-6.27h-6.3v6.27H10.4v-6.3h6.3v-6.24h-6.3V29.07h6.3v-6.24h-6.3v-6.3h6.3v-6.27H23v6.3h-6.3v6.24h12.59V10.26h6.3v6.27h6.3v-6.27h6.3v6.27h6.3V29.1h-6.3v-6.27h-6.3l.02 12.51h6.28v6.27h6.3v12.57H35.6Zm6.29-12.54v6.24h6.3v-6.24zm-6.29-6.3v6.27h6.3v-6.26h-6.28l-.01-.01Zm-18.89 0H23V29.1h-6.3zm12.59.03h-6.3v12.51h6.3zm6.3-6.3v-6.24h-6.3v6.24z"/>
</svg>
