<svg viewBox="0 0 24 24" xmlns="http://www.w3.org/2000/svg">
  <path fill="#1e1e1c" d="M1.77 8.13H.02V0h8.4v1.75H1.77zM15.89 0v1.75h6.38V8.4h1.75V0zm6.37 22.23h-6.65v1.75h8.4v-8.13h-1.75zM1.77 15.6H.02V24h8.13v-1.75H1.77zm11.56 4.54v-2.29h-2.3v2.29h-6.9v-2.3h2.3v-2.28h-2.3v-4.59h2.3V8.69h-2.3v-2.3h2.3V4.1h2.3v2.3h-2.3v2.28h4.6V4.1h2.3v2.29h2.3V4.1h2.3v2.29h2.3v4.59h-2.3V8.69h-2.3v4.57h2.3v2.29h2.3v4.59zm2.3-4.58v2.28h2.3v-2.28zm-2.3-2.3v2.29h2.3v-2.29zm-6.91 0h2.3v-2.28h-2.3zm4.6.01h-2.3v4.57h2.3zm2.31-2.3V8.69h-2.3v2.28z"/>
</svg>
