<svg viewBox="0 0 16 16" xmlns="http://www.w3.org/2000/svg">
  <path fill="#1e1e1c" d="M8.87 13.28h4.47V10.3h-1.49V8.81h-1.49V5.84h1.49v1.49h1.49V4.35h-1.49V2.86h-1.49v1.49H8.87V2.86H7.38v2.97H4.4V4.35h1.49V2.86H4.4v1.49H2.91v1.49H4.4v1.48H2.91v2.98H4.4v1.48H2.91v1.49h4.47v-1.49h1.49v1.49Zm2.98-1.49h-1.49v-1.48h1.49zM8.87 8.82h1.49v1.48H8.87zM7.38 5.85h1.49v1.48H7.38zM5.89 7.34v1.48H4.4V7.34zm1.49 4.45H5.89V8.82h1.49zM1.54 5.5H.05V.05h5.62v1.49H1.54zM16.05-.04v5.63h-1.49V1.46h-3.95v-1.5zM14.48 10.5h1.49v5.45h-5.62v-1.49h4.13zM1.54 14.47h3.95v1.49H.05v-5.63h1.49z"/>
</svg>
