<svg viewBox="0 0 40 40" xmlns="http://www.w3.org/2000/svg">
  <path fill="#1d1d1b" d="M12.4 22.82h5.28v5.23H12.4zM40.02-.06v40h-40v-40zM27.63 3.69h8.62v9.16h2.25V1.44H27.63zm-4.65 13.84h5.27v5.27h5.28v-5.28h-5.27V12.3h5.27V7.02h-5.28v5.23h-5.27zm-5.3-5.23h5.28V7.02h-5.28zm-16.16.02h2.25V3.7h9.16V1.45H1.52zm10.87 23.87H3.77v-9.16H1.52v11.41h10.87zm10.57-8.12v5.26h10.56v-5.28H22.96v-5.26h-5.28v-5.26H12.4V7.02H7.12v10.52h5.28v5.26H7.12v10.54h10.56v-5.26h5.28Zm15.57-.5h-2.25v8.62h-9.16v2.25h11.41z"/>
</svg>
