<svg viewBox="0 0 48 48" xmlns="http://www.w3.org/2000/svg">
  <path d="M47.62 39.39 26.75 2.65a2.8 2.8 0 0 0-.51-.66c-.06-.06-.14-.1-.21-.16-.14-.11-.27-.23-.42-.32-.09-.05-.18-.07-.27-.11-.15-.06-.29-.14-.44-.18-.11-.03-.22-.03-.32-.04-.14-.02-.29-.05-.43-.05s-.28.03-.42.05c-.11.02-.22.01-.33.04-.14.04-.28.11-.42.16-.1.04-.2.07-.3.12-.15.08-.28.2-.42.31-.07.06-.15.1-.21.16-.17.17-.32.37-.45.59-.02.03-.04.04-.05.07L.42 39.38c-.29.5-.41 1.03-.4 1.55 0 .26.04.51.11.76a3.1 3.1 0 0 0 .72 1.26c.01.01.02.03.03.04.27.27.58.5.95.65.12.05.25.1.37.13.26.07.53.11.82.11h41.99c1.73 0 2.97-1.4 3.01-2.94.01-.51-.11-1.04-.4-1.55M24.23 25.1c.95 0 1.77.51 2.23 1.27a.3.3 0 0 1 .04.08c.09.15.15.31.21.48.02.05.03.1.05.15.05.21.09.42.09.64v.09c-.04 1.14-.8 2.08-1.83 2.4l-.11.03c-.21.06-.44.1-.67.1-.22 0-.42-.03-.62-.08-.02 0-.04-.01-.06-.02-.19-.05-.37-.12-.54-.22-.83-.44-1.4-1.3-1.4-2.3 0-.22.03-.43.08-.63.01-.05.03-.1.05-.15.05-.16.12-.32.2-.46.02-.03.03-.07.05-.1.46-.76 1.28-1.28 2.24-1.28Zm-7.28-1.32c.76-1.37 1.85-2.41 3.11-3.15.33.57 1.37 2.34 2.33 3.98a3.61 3.61 0 0 0-1.78 3.1c0 .08.02.15.02.22l-4.69.15c-.05-1.46.25-2.94 1-4.31Zm7.48 12.39c-1.56.03-3.02-.4-4.28-1.12.33-.59 1.41-2.47 2.37-4.16.51.28 1.09.45 1.71.45.69 0 1.33-.21 1.88-.54l2.54 4.09c-1.24.77-2.67 1.25-4.23 1.28Zm3.41-8.38v-.08c0-1.35-.75-2.52-1.85-3.14l2.19-4.1c1.28.69 2.42 1.69 3.23 3.02.81 1.34 1.16 2.81 1.17 4.27-.67 0-2.8.02-4.75.03Z"/>
</svg>
