<svg viewBox="0 0 40 40" xmlns="http://www.w3.org/2000/svg">
  <path d="m21.69 20.42 1.75-3.27c1.07.57 2.02 1.4 2.69 2.52.67 1.11.97 2.34.97 3.55-.54 0-2.22.01-3.78.02v-.07c0-1.19-.66-2.21-1.63-2.76Zm-2.67.9c-.31.18-.57.44-.75.75a.3.3 0 0 0-.04.08c-.07.12-.12.25-.16.38-.01.04-.03.08-.04.13-.04.17-.07.34-.07.52 0 .05.01.1.02.16.07.94.72 1.71 1.6 1.94.02 0 .03.01.05.01.17.04.34.07.52.07.19 0 .38-.03.56-.08.03 0 .06-.02.09-.03.89-.28 1.53-1.09 1.53-2.07 0-.18-.03-.36-.07-.53-.01-.04-.03-.08-.04-.12-.04-.14-.1-.27-.17-.4-.01-.02-.02-.05-.04-.07-.19-.32-.46-.57-.78-.76-.32-.18-.69-.3-1.08-.3s-.79.12-1.11.31Zm-2.06 1.87c0-1.16.63-2.17 1.57-2.72-.78-1.33-1.59-2.72-1.86-3.17a6.86 6.86 0 0 0-2.59 2.62 6.9 6.9 0 0 0-.84 3.59l3.74-.12c0-.06-.02-.12-.02-.19Zm3.18 3.18c-.55 0-1.06-.15-1.51-.4-.78 1.37-1.62 2.85-1.89 3.32 1.05.6 2.26.96 3.57.93 1.3-.03 2.5-.43 3.52-1.07l-2.03-3.27c-.48.3-1.05.48-1.66.48Zm17.61 10.11H2.27c-1.73 0-2.82-1.87-1.95-3.38L18.16 2.05A2.23 2.23 0 0 1 20.11.92c.76 0 1.53.38 1.96 1.14l17.64 31.05c.85 1.5-.23 3.37-1.96 3.37m0-2.25L20.12 3.17h-.01L2.26 34.22h35.49Z"/>
</svg>
