<svg viewBox="0 0 48 48" xmlns="http://www.w3.org/2000/svg">
  <path d="M24.23 25.09c.95 0 1.77.51 2.23 1.27a.3.3 0 0 1 .04.08c.09.15.15.31.21.48.02.05.03.1.05.15.05.21.09.42.09.64v.09c-.04 1.14-.8 2.08-1.83 2.4l-.11.03c-.21.06-.44.1-.67.1-.22 0-.42-.03-.62-.08-.02 0-.04-.01-.06-.02-.19-.05-.37-.12-.54-.22-.83-.44-1.4-1.3-1.4-2.3 0-.22.03-.43.08-.63.01-.05.03-.1.05-.15.05-.16.12-.32.2-.46.02-.03.03-.07.05-.1.46-.76 1.28-1.28 2.24-1.28Zm3.96-4.62L26 24.57c1.1.62 1.85 1.79 1.85 3.14v.08c1.94-.01 4.08-.02 4.75-.03 0-1.46-.36-2.93-1.17-4.27a8.2 8.2 0 0 0-3.23-3.02Zm-7.58 7.24c0-1.32.72-2.47 1.78-3.1-.96-1.64-2-3.42-2.33-3.98-1.26.73-2.36 1.78-3.11 3.15s-1.05 2.85-1 4.31l4.69-.15c0-.07-.02-.14-.02-.22Zm3.62 3.62c-.62 0-1.2-.17-1.71-.45-.97 1.7-2.04 3.58-2.37 4.16 1.27.72 2.72 1.15 4.28 1.12s3-.51 4.23-1.28l-2.54-4.09c-.55.34-1.19.54-1.88.54Zm20.78 12.54H3.02c-2.31 0-3.75-2.5-2.6-4.5L21.53 2.63c.58-1 1.59-1.51 2.6-1.51 1.02 0 2.04.51 2.61 1.52l20.87 36.74c1.14 2-.31 4.49-2.61 4.49Zm.43-3.25L24.57 3.88c-.1-.17-.24-.25-.44-.25s-.34.08-.43.25L2.59 40.62c-.1.17-.1.33 0 .5s.24.25.43.25h41.99c.19 0 .34-.08.43-.25.1-.16.1-.33 0-.5"/>
</svg>
