<svg viewBox="0 0 40 40" xmlns="http://www.w3.org/2000/svg">
  <path d="M39.71 33.12 22.07 2.07c-.11-.19-.24-.36-.38-.5-.04-.04-.09-.07-.14-.1-.11-.09-.21-.18-.33-.25-.07-.04-.15-.06-.22-.09-.11-.05-.21-.1-.32-.13-.08-.02-.16-.02-.24-.03-.11-.02-.21-.04-.32-.04s-.21.02-.31.04c-.08.01-.17.01-.25.03-.11.03-.2.08-.3.12-.08.03-.16.05-.23.09-.1.06-.2.14-.29.22-.06.05-.13.08-.18.14-.14.14-.27.31-.38.5L.31 33.11c-.22.38-.31.77-.3 1.16 0 .28.08.54.18.79.11.28.26.54.47.75.4.41.96.67 1.61.67h35.49c1.08 0 1.91-.73 2.17-1.64.16-.55.11-1.16-.21-1.73ZM20.14 21.01c1.2 0 2.18.98 2.18 2.18s-.98 2.18-2.18 2.18-2.18-.98-2.18-2.18.98-2.18 2.18-2.18m-6.07-1.1a6.86 6.86 0 0 1 2.59-2.62c.27.45 1.08 1.85 1.86 3.17-.93.56-1.57 1.56-1.57 2.72 0 .06.02.12.02.19l-3.74.12c-.04-1.21.21-2.45.84-3.59Zm6.23 10.32c-1.3.03-2.51-.33-3.57-.93.27-.47 1.11-1.95 1.89-3.32.45.25.96.4 1.51.4.61 0 1.17-.18 1.66-.48l2.03 3.27a6.94 6.94 0 0 1-3.52 1.07Zm3.01-6.97v-.07c0-1.19-.66-2.21-1.63-2.76l1.75-3.27c1.07.57 2.02 1.4 2.69 2.52.67 1.11.97 2.34.97 3.55-.54 0-2.22.01-3.78.02Z"/>
</svg>
