<svg viewBox="0 0 64 64" xmlns="http://www.w3.org/2000/svg">
  <path d="M41.89 31.34c1.08 1.78 1.55 3.75 1.56 5.69-.9 0-3.8.02-6.41.04 0-.04.01-.07.01-.11 0-1.77-.99-3.3-2.43-4.11l2.96-5.54c1.71.91 3.23 2.25 4.3 4.03ZM32.31 41.7c-.82 0-1.57-.23-2.24-.59-1.3 2.28-2.75 4.83-3.2 5.62 1.69.96 3.63 1.53 5.71 1.49s4-.69 5.64-1.71l-3.44-5.53c-.72.44-1.56.71-2.47.71Zm-1.79-7.73c-.12.07-.23.15-.35.24-.02.02-.05.04-.07.06-.17.14-.33.29-.47.46-.05.05-.09.11-.13.16-.06.08-.11.16-.17.25-.07.11-.13.22-.18.34-.03.07-.06.13-.09.2-.06.16-.11.33-.15.5l-.03.17c-.04.2-.06.41-.06.62 0 .09.02.17.03.25.09 1.23.81 2.27 1.84 2.82.18.1.38.18.58.24.08.03.16.05.24.07s.15.03.23.05c.19.03.38.06.58.06s.41-.02.6-.06c.08-.01.16-.03.23-.05l.3-.09a3.47 3.47 0 0 0 2.35-3.29c0-.21-.03-.42-.06-.62-.01-.06-.02-.12-.04-.17a3.5 3.5 0 0 0-.14-.46c-.03-.08-.07-.16-.1-.23-.06-.12-.12-.23-.18-.34-.06-.09-.12-.18-.19-.27-.03-.04-.07-.09-.11-.13a3.46 3.46 0 0 0-2.67-1.27c-.65 0-1.26.19-1.78.5Zm-2.96 2.99c0-1.73.94-3.23 2.33-4.06-1.29-2.21-2.7-4.62-3.15-5.38-1.68.98-3.14 2.37-4.15 4.2-1.01 1.82-1.4 3.8-1.34 5.74l6.33-.21c0-.1-.03-.19-.03-.29ZM60 58.5H4.02c-3.08 0-5-3.33-3.47-6L28.71 3.52c.77-1.34 2.12-2.01 3.47-2.01s2.71.68 3.48 2.03l27.83 48.98c1.52 2.67-.41 5.98-3.48 5.98Zm1.09-4.62L33.26 4.9c-.31-.55-.82-.63-1.09-.63s-.77.08-1.08.63L2.94 53.88a1.23 1.23 0 0 0 0 1.25c.13.23.45.62 1.08.62H60c.63 0 .95-.39 1.08-.62.14-.23.32-.7 0-1.25Z"/>
</svg>
