<svg viewBox="0 0 32 32" xmlns="http://www.w3.org/2000/svg">
  <path d="M31.75 26.27 17.82 1.74c-.09-.17-.21-.31-.33-.44-.05-.05-.1-.07-.15-.12-.09-.07-.17-.15-.26-.2-.06-.04-.13-.05-.2-.08a3 3 0 0 0-.27-.11c-.08-.02-.15-.02-.23-.03-.09-.01-.18-.03-.27-.03-.1 0-.19.02-.28.04-.07.01-.14 0-.21.03-.09.02-.18.07-.26.1-.07.03-.14.05-.21.08-.09.05-.16.12-.24.18-.06.05-.12.08-.18.13-.13.12-.24.27-.34.44L.28 26.26c-.1.17-.16.34-.21.51q-.06.255-.06.51C.03 28.3.85 29.23 2 29.23h28.03c.38 0 .73-.1 1.02-.28s.53-.42.7-.71.26-.62.27-.96c0-.34-.07-.69-.26-1.02Zm-16.53-9.28c.26-.16.56-.25.89-.25a1.76 1.76 0 0 1 1.66 1.21l.03.1c.03.14.06.28.06.43 0 .78-.52 1.44-1.23 1.66-.02 0-.05.02-.07.02-.14.04-.29.06-.44.06-.14 0-.28-.02-.41-.05-.01 0-.02 0-.04-.01a1.74 1.74 0 0 1-1.29-1.68c0-.15.02-.28.06-.42 0-.03.02-.07.03-.1.03-.11.08-.21.13-.31.01-.02.02-.04.04-.07q.225-.375.6-.6Zm-3.96-1.12c.5-.91 1.23-1.61 2.07-2.1.22.37.88 1.51 1.51 2.58-.73.44-1.23 1.23-1.23 2.14 0 .05.01.1.02.15l-3.04.1c-.03-.97.17-1.96.67-2.87m4.98 8.25c-1.04.02-2.01-.27-2.85-.75.22-.38.91-1.59 1.54-2.7.35.19.75.31 1.18.31.48 0 .92-.14 1.3-.37l1.65 2.66c-.82.51-1.78.84-2.82.86Zm2.36-5.58v-.05c0-.93-.52-1.74-1.28-2.16l1.42-2.66a5.5 5.5 0 0 1 2.15 2.01c.54.89.78 1.87.78 2.84-.44 0-1.81.01-3.08.02Z"/>
</svg>
