<svg viewBox="0 0 24 24" xmlns="http://www.w3.org/2000/svg">
  <path d="M23.82 19.74 13.37 1.35c-.07-.13-.16-.23-.25-.33-.03-.03-.07-.05-.1-.08-.07-.06-.13-.12-.21-.16-.04-.02-.09-.03-.13-.05-.07-.03-.14-.07-.22-.09-.05-.01-.11-.01-.16-.02-.07-.01-.14-.03-.21-.03s-.14.02-.2.03c-.06 0-.11 0-.17.02-.07.02-.13.05-.2.08-.05.02-.11.03-.16.06-.07.04-.13.09-.19.14-.04.03-.08.05-.12.09-.1.09-.18.2-.25.33L.21 19.74c-.07.12-.12.25-.16.38-.03.13-.05.26-.04.39a1.484 1.484 0 0 0 1.49 1.46h21.02c1.14 0 1.86-1.23 1.29-2.22ZM11.43 12.8c.2-.12.41-.2.66-.2.43 0 .8.22 1.04.55.04.05.08.11.11.17.03.05.05.1.07.16.05.14.09.28.09.43 0 .47-.26.87-.64 1.1-.09.05-.17.1-.27.13-.12.05-.25.08-.4.08s-.27-.03-.4-.08a1 1 0 0 1-.21-.09c-.41-.22-.7-.64-.7-1.14 0-.15.04-.3.09-.43.02-.06.04-.11.07-.16.03-.06.07-.11.11-.16.1-.14.23-.26.38-.36m-2.98-.86c.38-.68.93-1.21 1.55-1.57.17.28.68 1.17 1.16 1.99-.53.32-.89.89-.89 1.55 0 .04 0 .07.01.11l-2.34.08c-.02-.73.12-1.47.5-2.15Zm3.73 6.19c-.78.02-1.51-.2-2.14-.56.17-.29.7-1.23 1.19-2.08.26.14.54.23.86.23.35 0 .67-.1.94-.27l1.27 2.04c-.62.38-1.33.63-2.11.64Zm1.71-4.18v-.04a1.8 1.8 0 0 0-.93-1.57l1.09-2.05c.64.34 1.21.84 1.61 1.51s.58 1.4.58 2.13c-.33 0-1.4 0-2.37.01Z"/>
</svg>
