<svg viewBox="0 0 16 16" xmlns="http://www.w3.org/2000/svg">
  <path d="M8.06 8.38c.16 0 .3.05.43.13.11.06.19.14.26.24l.08.11c.02.03.03.07.05.11.03.09.06.19.06.29 0 .39-.26.71-.61.82-.08.03-.17.05-.26.05s-.18-.02-.26-.05a.87.87 0 0 1-.6-.76s-.01-.04-.01-.06c0-.1.02-.2.06-.29.01-.04.03-.07.05-.11s.05-.07.07-.11c.07-.1.15-.18.26-.24.13-.08.28-.14.44-.14Zm1.37.87v.03h1.41c0-.49-.12-.98-.39-1.42a2.75 2.75 0 0 0-1.08-1.01l-.65 1.22c.42.24.71.68.71 1.19ZM7.37 8.08c-.29-.5-.59-1.01-.69-1.18-.42.24-.78.59-1.04 1.05-.25.46-.35.95-.33 1.43l1.39-.05v-.08c0-.5.27-.94.68-1.18Zm.69 2.54c-.24 0-.46-.07-.65-.17-.3.52-.61 1.06-.71 1.24a2.72 2.72 0 0 0 2.84-.06l-.76-1.22c-.21.13-.45.21-.72.21m6.96 4H1.01a.994.994 0 0 1-.86-1.49L7.19.87c.19-.33.53-.5.86-.5.34 0 .67.17.86.5l6.97 12.26c.38.66-.1 1.48-.86 1.48Zm-.87-1.5L8.05 2.39 1.88 13.12h12.26Z"/>
</svg>
