<svg viewBox="0 0 16 16" xmlns="http://www.w3.org/2000/svg">
  <path d="M15.88 13.15 8.92.88C8.87.8 8.82.72 8.75.66 8.73.64 8.71.63 8.68.61 8.63.57 8.59.53 8.54.5 8.52.49 8.49.48 8.47.47 8.42.45 8.36.42 8.31.4c-.03 0-.05 0-.08-.01-.06 0-.11-.02-.17-.02-.04 0-.08.01-.13.02-.04 0-.08 0-.12.02-.04.01-.09.03-.13.05-.04.01-.07.02-.11.04-.05.03-.09.06-.13.09-.03.02-.06.04-.08.06-.06.06-.12.13-.17.22L.15 13.14a.97.97 0 0 0-.13.51c0 .51.42.97.99.97h14.01c.76 0 1.24-.82.86-1.48ZM7.62 8.52c.13-.08.28-.14.44-.14s.3.05.43.13c.11.06.19.14.26.24l.08.11c.02.03.03.07.05.11.03.09.06.19.06.29 0 .39-.26.71-.61.82-.08.03-.17.05-.26.05s-.18-.02-.26-.05a.87.87 0 0 1-.6-.76c0-.02-.01-.04-.01-.06 0-.1.02-.2.06-.29.01-.04.03-.07.05-.11s.05-.07.07-.11c.07-.1.15-.17.26-.24Zm-2.32.86c-.02-.48.08-.98.33-1.43.25-.46.62-.8 1.04-1.05.1.17.4.68.69 1.18-.4.24-.68.67-.68 1.18v.08l-1.39.05Zm2.83 2.69c-.52.01-1-.13-1.43-.37.1-.18.41-.72.71-1.24.2.11.42.17.65.17.26 0 .51-.08.72-.21l.76 1.22c-.41.26-.89.42-1.41.43m1.3-2.79v-.03c0-.51-.29-.96-.71-1.19l.65-1.22c.43.23.81.56 1.08 1.01s.39.94.39 1.42H9.43Z"/>
</svg>
