<svg viewBox="0 0 32 32" xmlns="http://www.w3.org/2000/svg">
  <path d="M32 0v4.4H21.66c-.48 0-.92.18-1.21.49-.16.17-.34.44-.32.82l.14 5.29h-8.53l.14-5.27c.02-.4-.17-.68-.32-.84-.3-.31-.74-.49-1.21-.49H0V0zM11.26 28.81l-.03 1.01c0 1.2.95 2.18 2.13 2.18h5.26c1.17 0 2.13-.98 2.13-2.21l-.03-.98h-9.47Zm20.72-4.33c.23 1.77-1.2 3.33-3.05 3.33H3.08c-.93 0-1.75-.39-2.31-1-.28-.31-.5-.67-.63-1.06-.13-.4-.18-.82-.12-1.27L1.3 14.6c.1-.74.47-1.39 1.02-1.85s1.26-.74 2.04-.74h23.28c.58 0 1.13.16 1.6.43.78.46 1.34 1.24 1.46 2.17l1.28 9.88Zm-26.12-5.3q.3 0 .57-.18l2.26-1.56c.46-.31.57-.94.26-1.39s-.94-.57-1.39-.26L5.3 17.35a.998.998 0 0 0 .56 1.82Zm6.28-1.06a.994.994 0 0 0-1.4-.21l-4.42 3.26c-.45.33-.54.95-.21 1.4.2.27.5.41.81.41.21 0 .41-.06.59-.19l4.42-3.26c.45-.33.54-.95.21-1.4Z"/>
</svg>
