<svg viewBox="0 0 64 64" xmlns="http://www.w3.org/2000/svg">
  <path d="M64 0v8.18H43.32c-1.12 0-2.17.43-2.88 1.17-.57.59-.86 1.34-.82 2.1l.29 11.18H24.08l.29-11.14c.04-.79-.25-1.54-.82-2.13-.71-.75-1.76-1.17-2.88-1.17H0V0zM23.19 57l-.08 3.26c0 2.06 1.63 3.74 3.63 3.74h10.53c2 0 3.63-1.68 3.63-3.77L40.82 57H23.2Zm40.76-8.04c.37 2.88-1.45 5.48-4.13 6.35-.62.2-1.28.31-1.98.31H6.16c-.69 0-1.36-.11-1.98-.31C1.7 54.5-.04 52.22 0 49.61c0-.22.02-.44.05-.66l2.56-19.76c.05-.37.13-.73.25-1.07.11-.34.26-.68.43-.99.35-.63.81-1.18 1.35-1.65A6.25 6.25 0 0 1 8.71 24h46.56c3.1 0 5.72 2.23 6.11 5.19l2.56 19.76ZM12.04 38.42c.27 0 .54-.08.78-.24l4.52-3.12c.63-.43.78-1.29.35-1.91-.43-.63-1.29-.78-1.91-.35l-4.52 3.12a1.369 1.369 0 0 0 .78 2.5m11.73-1.81c-.45-.61-1.31-.74-1.92-.29L13 42.84a1.373 1.373 0 0 0 1.63 2.21l8.85-6.52c.61-.45.74-1.31.29-1.92"/>
</svg>
