<svg viewBox="0 0 24 24" xmlns="http://www.w3.org/2000/svg">
  <path d="M24 0v3.43h-7.75c-.32 0-.62.12-.82.33-.1.11-.22.28-.21.52l.1 3.85H8.68l.1-3.83a.73.73 0 0 0-.21-.54c-.2-.21-.5-.33-.82-.33H0V0zM8.32 21.73v.5c-.01.97.76 1.76 1.71 1.76h3.95c.95 0 1.72-.79 1.72-1.78v-.48H8.33Zm14.7-10.78.96 7.41c.11.83-.27 1.6-.91 2.06-.38.28-.86.44-1.38.44H2.31c-.52 0-1-.16-1.38-.44-.13-.09-.24-.2-.35-.31a2.23 2.23 0 0 1-.57-1.26c-.02-.16-.01-.32 0-.49l.96-7.41c.09-.7.51-1.28 1.09-1.62.35-.21.76-.32 1.2-.32h17.46c.44 0 .85.12 1.2.32.58.34 1 .93 1.09 1.62ZM4.27 14.34c.17 0 .34-.05.5-.15l1.7-1.17c.4-.27.5-.82.22-1.22a.87.87 0 0 0-1.22-.22l-1.7 1.17c-.4.27-.5.82-.22 1.22.17.25.44.38.72.38Zm4.93-.83a.877.877 0 0 0-1.22-.19l-3.32 2.44c-.39.29-.47.84-.19 1.22.17.23.44.36.71.36.18 0 .36-.06.52-.17l3.32-2.44c.39-.29.47-.84.19-1.22Z"/>
</svg>
