<svg viewBox="0 0 64 64" xmlns="http://www.w3.org/2000/svg">
  <path d="m24.93 27.55-3.92-3.92c-.54-.54-.54-1.41 0-1.95s1.41-.54 1.95 0l3.88 3.89c-.68.62-1.33 1.27-1.91 1.98M6.96 30.79H22.8c.51-.97 1.11-1.89 1.77-2.75H6.96zm15.95 17.75c.53.97 1.15 1.89 1.84 2.75H0V-.01h30.56l9.11 11.29v9.35h-.12c-.89 0-1.77.08-2.63.2v-6.64h-8.39c-1.68 0-3.05-1.37-3.05-3.05v-8.4H2.75v45.8zm5.32-37.41c0 .17.14.3.3.3h7.73l-7.01-8.69h-1.02zM63.6 63.58c-.27.27-.62.4-.97.4s-.7-.13-.97-.4L50.94 52.86c-3.07 2.63-7.04 4.23-11.39 4.23-9.67 0-17.54-7.87-17.54-17.55s7.87-17.55 17.54-17.55 17.54 7.87 17.54 17.55c0 4.34-1.59 8.3-4.21 11.37L63.6 61.64c.54.54.54 1.41 0 1.95Zm-24.05-9.24c8.15 0 14.79-6.64 14.79-14.79s-6.63-14.79-14.79-14.79c-7.69 0-14.02 5.9-14.72 13.42h16.3l-4.76-4.76c-.54-.54-.54-1.41 0-1.95s1.41-.54 1.95 0l8.08 8.09-8.08 8.09c-.27.27-.62.4-.97.4s-.7-.13-.97-.4c-.54-.54-.54-1.41 0-1.95l4.76-4.76h-16.3c.7 7.51 7.03 13.42 14.72 13.42Z"/>
</svg>
