<svg viewBox="0 0 32 32" xmlns="http://www.w3.org/2000/svg">
  <path d="M10.6 15.74H3.73v-2h8.05s.06-.08.09-.13l-1.48-1.48c-.39-.39-.39-1.02 0-1.42s1.02-.39 1.41 0l1.45 1.45a9.85 9.85 0 0 1 6.44-2.39c.13 0 .27.01.4.02V5.73L15.46 0H0v25.8h11.87a9.87 9.87 0 0 1-1.27-10.05ZM13.49 1l5.11 5.61h-4.29c-.45 0-.82-.37-.82-.82zm17.99 28.01-4.36-4.36c.94-1.42 1.5-3.11 1.5-4.94 0-4.92-4-8.92-8.92-8.92s-8.92 4-8.92 8.92 4 8.92 8.92 8.92c1.83 0 3.54-.56 4.95-1.51l4.36 4.36c.34.34.79.51 1.24.51s.9-.17 1.24-.51c.68-.68.68-1.79 0-2.48Zm-10.87-4.82c-.26 0-.51-.1-.71-.29-.39-.39-.39-1.02 0-1.42l1.78-1.78h-7.91v-2h7.91l-1.78-1.78c-.39-.39-.39-1.02 0-1.42s1.02-.39 1.41 0l4.19 4.19-4.19 4.19c-.2.2-.45.29-.71.29Z"/>
</svg>
