<svg viewBox="0 0 40 40" xmlns="http://www.w3.org/2000/svg">
  <path d="M13.57 19.54H4.56v-2.25h10.36c.05-.07.1-.14.16-.21l-2.04-2.04c-.44-.44-.44-1.15 0-1.59s1.15-.44 1.59 0l2 2c2.15-1.87 4.95-3.02 8.02-3.02.12 0 .25.01.37.02V7.13L19.26 0H0v32.19h15.04a12.16 12.16 0 0 1-2.61-7.52c0-1.83.42-3.56 1.14-5.12Zm3.27-18.42 6.06 7.06h-5.02c-.57 0-1.04-.46-1.04-1.04zm22.57 35.46-5.63-5.63c1.24-1.79 1.96-3.95 1.96-6.29 0-6.12-4.98-11.1-11.1-11.1s-11.1 4.98-11.1 11.1 4.98 11.1 11.1 11.1c2.34 0 4.51-.73 6.31-1.98l5.63 5.63c.39.39.9.59 1.41.59s1.02-.2 1.41-.59c.78-.78.78-2.05 0-2.83Zm-13.62-6.41a1.123 1.123 0 0 1-.8-1.92l2.47-2.46H17.18v-2.25h10.28l-2.47-2.46c-.44-.44-.44-1.15 0-1.59s1.15-.44 1.59 0l5.18 5.18-5.18 5.18c-.22.22-.51.33-.8.33Z"/>
</svg>
