<svg viewBox="0 0 48 48" xmlns="http://www.w3.org/2000/svg">
  <path d="M5.39 20.85h12.68c-.59.78-1.1 1.61-1.53 2.5H5.39zM20 18.76l-2.57-2.57c-.49-.49-1.28-.49-1.77 0s-.49 1.28 0 1.77l2.61 2.61c.52-.65 1.1-1.25 1.73-1.81m-3.38 17.32c.44.89.97 1.73 1.58 2.5H0V0h23.04l6.88 8.54v6.58c-.11 0-.21-.02-.32-.02-.74 0-1.47.07-2.18.18V11h-6a2.5 2.5 0 0 1-2.5-2.5V2.51H2.49v33.57zm4.8-27.57h5.26L21.84 2.5h-.42zm26.21 39.13c-.24.24-.56.37-.88.37s-.64-.12-.88-.37l-7.81-7.81c-2.3 1.91-5.24 3.06-8.45 3.06-7.31 0-13.26-5.95-13.26-13.26s5.95-13.26 13.26-13.26 13.26 5.95 13.26 13.26c0 3.2-1.14 6.15-3.04 8.44l7.81 7.81c.49.49.49 1.28 0 1.77ZM29.6 40.38c5.93 0 10.76-4.83 10.76-10.76S35.53 18.86 29.6 18.86c-5.51 0-10.06 4.17-10.68 9.51h11.3l-3.15-3.15c-.49-.49-.49-1.28 0-1.77s1.28-.49 1.77 0L35 29.62l-6.16 6.17c-.24.24-.56.37-.88.37s-.64-.12-.88-.37a1.25 1.25 0 0 1 0-1.77l3.15-3.15H18.92c.62 5.35 5.17 9.51 10.68 9.51"/>
</svg>
