<svg viewBox="0 0 24 24" xmlns="http://www.w3.org/2000/svg">
  <path d="m8.67 10.15-.92-.92a.88.88 0 0 1 0-1.24c.34-.34.9-.34 1.24 0l.89.89c-.45.37-.85.8-1.21 1.27m-5.76 1.79h4.75c.25-.63.58-1.22.98-1.75H2.91zm4.78 5.7c.26.63.61 1.22 1.02 1.75H0V0h11.66l3.51 4.35v2.79c-.14 0-.28-.02-.43-.02-.45 0-.89.05-1.32.12V5.91h-2.67c-.82 0-1.48-.67-1.48-1.48V1.75H1.75v15.89zm3.32-13.48h1.76l-1.76-2.18zm12.74 19.59c-.17.17-.4.26-.62.26s-.45-.08-.62-.26l-3.66-3.66a6.7 6.7 0 0 1-4.11 1.41c-3.72 0-6.75-3.03-6.75-6.75S11.02 8 14.74 8s6.75 3.03 6.75 6.75c0 1.54-.53 2.96-1.4 4.1l3.66 3.66c.34.34.34.9 0 1.24m-9.01-4c2.76 0 5-2.24 5-5s-2.24-5-5-5c-2.46 0-4.49 1.78-4.91 4.12h4.58l-1.09-1.09a.88.88 0 0 1 0-1.24c.34-.34.9-.34 1.24 0l3.2 3.2-3.2 3.2c-.17.17-.4.26-.62.26s-.45-.08-.62-.26a.88.88 0 0 1 0-1.24l1.09-1.09H9.83c.42 2.34 2.45 4.12 4.91 4.12Z"/>
</svg>
