<svg viewBox="0 0 16 16" xmlns="http://www.w3.org/2000/svg">
  <path d="M2.08 6.65h3.35l-.32-.32c-.29-.29-.29-.77 0-1.06s.77-.29 1.06 0l.35.35c-.82.64-1.44 1.52-1.77 2.53H2.08zm2.69 4.85c.19.55.45 1.05.8 1.5H.01V0h7.86l2.38 2.95v1.56c-.15-.01-.3-.05-.46-.05-.36 0-.7.04-1.04.11v-.35H7.19c-.63 0-1.15-.52-1.15-1.15V1.51H1.51v9.99zm2.77-8.78h.59l-.59-.73zm8.25 13.07c-.15.15-.34.22-.53.22s-.38-.07-.53-.22l-2.28-2.28c-.75.54-1.66.87-2.66.87a4.58 4.58 0 1 1 4.58-4.58c0 .99-.32 1.9-.86 2.65l2.28 2.28c.29.29.29.77 0 1.06m-6-2.92c1.7 0 3.08-1.38 3.08-3.08s-1.38-3.08-3.08-3.08c-1.44 0-2.64.99-2.97 2.33h2.32l-.4-.4c-.29-.29-.29-.77 0-1.06s.77-.29 1.06 0l2.22 2.22-2.22 2.21c-.15.15-.34.22-.53.22s-.38-.07-.53-.22a.754.754 0 0 1 0-1.06l.4-.4H6.82c.34 1.33 1.54 2.33 2.97 2.33Z"/>
</svg>
