<svg viewBox="0 0 16 16" xmlns="http://www.w3.org/2000/svg">
  <path d="M4.75 8.15H2.08v-1.5h3.35l-.32-.32c-.29-.29-.29-.77 0-1.06s.77-.29 1.06 0l.35.35c.91-.71 2.03-1.15 3.27-1.15.16 0 .31.03.46.05V2.96L7.87 0H0v13h5.56c-.68-.9-1.1-2-1.1-3.21 0-.58.12-1.12.29-1.65ZM6.79.76l2.46 2.71H7.19c-.22 0-.4-.18-.4-.4zm8.85 13.11-1.86-1.86c.37-.66.59-1.4.59-2.21a4.58 4.58 0 1 0-9.16 0 4.58 4.58 0 0 0 4.58 4.58c.81 0 1.56-.23 2.22-.6l1.86 1.86a1.257 1.257 0 0 0 1.78 0c.49-.49.49-1.28 0-1.77Zm-5.58-1.64c-.19 0-.38-.07-.53-.22a.754.754 0 0 1 0-1.06l.4-.4H6.75v-1.5h3.18l-.4-.4c-.29-.29-.29-.77 0-1.06s.77-.29 1.06 0l2.22 2.22-2.22 2.22c-.15.15-.34.22-.53.22Z"/>
</svg>
