<svg viewBox="0 0 32 32" xmlns="http://www.w3.org/2000/svg">
  <path d="m11.87 13.62-1.48-1.48a.996.996 0 1 1 1.41-1.41l1.45 1.44c-.51.43-.97.92-1.38 1.45m-8.13 2.12h6.86c.31-.72.71-1.38 1.18-2H3.74zm6.92 8.05c.33.72.73 1.39 1.21 2H0V0h15.46l4.63 5.74V9.8c-.13 0-.26-.02-.4-.02-.55 0-1.08.06-1.6.14V7.61h-3.78a1.82 1.82 0 0 1-1.82-1.82V2.01H2v21.78zm3.83-18.18h2.92L14.5 2h-.02v3.61Zm17.22 26.1c-.2.2-.45.29-.71.29s-.51-.1-.71-.29l-5.04-5.04a8.9 8.9 0 0 1-5.56 1.96c-4.92 0-8.92-4-8.92-8.92s4-8.92 8.92-8.92 8.92 4 8.92 8.92c0 2.1-.73 4.02-1.95 5.55l5.04 5.04c.39.39.39 1.02 0 1.41Zm-12.02-5.09c3.82 0 6.92-3.1 6.92-6.92s-3.1-6.92-6.92-6.92c-3.48 0-6.35 2.58-6.84 5.92h6.83l-1.78-1.78a.996.996 0 1 1 1.41-1.41l4.19 4.19-4.19 4.19c-.2.2-.45.29-.71.29s-.51-.1-.71-.29a.996.996 0 0 1 0-1.41l1.78-1.78h-6.83c.49 3.34 3.36 5.92 6.84 5.92Z"/>
</svg>
