<svg viewBox="0 0 48 48" xmlns="http://www.w3.org/2000/svg">
  <path d="M15.31 27.18c0-.18.02-.37.09-.54.24-1.16.63-2.25 1.13-3.29H5.38v-2.5h12.68c.07-.09.14-.19.21-.28l-2.61-2.61c-.49-.49-.49-1.28 0-1.77s1.28-.49 1.77 0L20 18.76c2.56-2.27 5.92-3.66 9.6-3.66.11 0 .21.01.32.02V8.54L23.03 0H-.01v38.58h18.22a14.4 14.4 0 0 1-3.12-8.96c0-.84.09-1.65.22-2.45Zm4.86-25.93 7.25 8.5h-6c-.69 0-1.25-.56-1.25-1.25zm27.16 42.91-6.9-6.9c1.53-2.16 2.43-4.79 2.43-7.63 0-7.32-5.95-13.27-13.26-13.27s-13.26 5.95-13.26 13.27S22.29 42.9 29.6 42.9c2.85 0 5.49-.91 7.65-2.45l6.9 6.9c.44.44 1.01.66 1.59.66s1.15-.22 1.59-.66c.88-.88.88-2.3 0-3.18Zm-16.12-8c-.32 0-.64-.12-.88-.37a1.25 1.25 0 0 1 0-1.77l3.15-3.15H20.84v-2.5h12.64l-3.15-3.15c-.49-.49-.49-1.28 0-1.77s1.28-.49 1.77 0l6.17 6.17-6.17 6.17c-.24.24-.56.37-.88.37Z"/>
</svg>
