<svg viewBox="0 0 64 64" xmlns="http://www.w3.org/2000/svg">
  <path d="M20.84 36.89c-.33-.53-.29-1.23.17-1.69l.19-.19c.37-1.48.9-2.9 1.59-4.22H6.95v-2.75h17.61c.12-.16.24-.33.37-.49l-3.92-3.92c-.54-.54-.54-1.41 0-1.95s1.41-.54 1.95 0l3.88 3.89c3.36-3.06 7.81-4.95 12.71-4.95h.12v-9.35L30.56-.02H0v51.31h24.75c-2.57-3.23-4.12-7.31-4.12-11.75 0-.9.09-1.78.21-2.65m6.01-35.53 9.69 11.45h-8.01c-.93 0-1.68-.75-1.68-1.68zm36.41 58.35-9.68-9.69c2.19-2.93 3.51-6.55 3.51-10.48 0-9.68-7.87-17.55-17.54-17.55s-17.54 7.87-17.54 17.55 7.87 17.55 17.54 17.55c3.94 0 7.57-1.32 10.5-3.53l9.68 9.68c.49.49 1.13.73 1.77.73s1.28-.24 1.77-.73c.98-.98.98-2.56 0-3.54ZM42.09 48.03a1.376 1.376 0 0 1-.97-2.35l4.76-4.77H28.13v-2.75h17.75l-4.76-4.77c-.54-.54-.54-1.41 0-1.95s1.41-.54 1.95 0l8.08 8.09-8.08 8.09c-.27.27-.62.4-.97.4Z"/>
</svg>
