<svg viewBox="0 0 48 48" xmlns="http://www.w3.org/2000/svg">
  <path d="M.02 6.38C.02 2.86 2.88 0 6.4 0s6.38 2.86 6.38 6.38-2.86 6.38-6.38 6.38S.02 9.9.02 6.38m28.52-.04 2.5-2.5c.88-.88.88-2.3 0-3.18s-2.3-.88-3.18 0l-7.93 7.93 7.93 7.93c.44.44 1.01.66 1.59.66s1.15-.22 1.59-.66c.88-.88.88-2.3 0-3.18l-2.5-2.5H48v-4.5zm-9.79 18.77-6.07 6.25h11.53l6.13-6.25zm7.23 8.02v11.55l6.25-5.63-.14-12.15-6.12 6.24ZM11.76 45.5h11.72V33.87H11.76zm-2.5-14.13-.04-.04 7.02-7.23v-.68c0-3.99-3.25-7.24-7.24-7.24H0V48h11.7-2.44z"/>
</svg>
