<svg viewBox="0 0 16 16" xmlns="http://www.w3.org/2000/svg">
  <path fill="#1e1e1c" d="M8.04 7.48c2.05 0 3.71-1.67 3.71-3.73S10.08.01 8.04.01 4.33 1.68 4.33 3.74 6 7.47 8.04 7.47Zm0-4.96c.67 0 1.22.55 1.22 1.23s-.55 1.23-1.22 1.23-1.22-.55-1.22-1.23.55-1.23 1.22-1.23m8 10.36v3.13h-2.49v-3.13c0-1.24-1.01-2.25-2.24-2.25H7.56v-2.5h3.75c2.61 0 4.73 2.13 4.73 4.76Zm-6.61 0h2.49v3.13H9.43zm-4.22-3.3 3.01 3.02-3.01 3.02c-.24.24-.56.37-.88.37s-.64-.12-.88-.37a1.25 1.25 0 0 1 0-1.77H.04v-2.5h3.41c-.49-.49-.49-1.28 0-1.77s1.27-.49 1.76 0"/>
</svg>
