<svg viewBox="0 0 16 16" xmlns="http://www.w3.org/2000/svg">
  <path d="M2.38 4.78c1.31 0 2.38-1.07 2.38-2.39S3.7.01 2.38.01 0 1.08 0 2.4s1.07 2.39 2.38 2.39Zm0-3.27c.49 0 .88.4.88.88s-.4.88-.88.88-.88-.4-.88-.88.4-.88.88-.88m13.62.6v1.5H9.52l.83.83c.29.29.29.77 0 1.06-.15.15-.34.22-.53.22s-.38-.07-.53-.22L6.65 2.86 9.28.22c.29-.29.77-.29 1.06 0s.29.77 0 1.06l-.83.83h6.48Zm-4.99 4.52H5.57c-.44-.87-1.32-1.47-2.36-1.47H0V16h4.42v-1.28h4.13l2.52-2.07zM8.5 8.13 7.49 9.15H4.98l1-1.02zM2.92 14.5H1.49V6.66h1.72c.58 0 1.05.44 1.12 1.01L2.89 9.14l.07.06v.02h-.04zm4.13-1.28H4.46v-2.57h2.59zm1.5-.44v-2.56l.99-1 .03 2.73z"/>
</svg>
