<svg viewBox="0 0 24 24" xmlns="http://www.w3.org/2000/svg">
  <path d="M.01 3.41C.01 1.54 1.53.03 3.39.03s3.38 1.52 3.38 3.38-1.52 3.38-3.38 3.38S.01 5.27.01 3.41M24 3.16h-8.83l.61-.61c.59-.59.59-1.54 0-2.12s-1.54-.59-2.12 0L9.43 4.66l4.23 4.23c.29.29.68.44 1.06.44s.77-.15 1.06-.44c.59-.59.59-1.54 0-2.12l-.61-.61H24zM13.47 16.33v5.5l2.67-2.08-.06-6.04-2.61 2.63Zm-8.93-1.21-.05-.04 3.86-3.97a3.795 3.795 0 0 0-3.69-2.93H0V24h6.24l-1.7-.01v-8.86Zm4.97-2.69-2.6 2.67h5.32l2.64-2.67H9.5Zm-3.22 9.8h5.43v-5.38H6.29z"/>
</svg>
