<svg viewBox="0 0 32 32" xmlns="http://www.w3.org/2000/svg">
  <path d="M.01 4.39C.01 1.97 1.98 0 4.4 0s4.39 1.97 4.39 4.38S6.82 8.76 4.4 8.76.01 6.8.01 4.39m19.62-.16 1.24-1.24c.68-.68.68-1.79 0-2.47a1.75 1.75 0 0 0-2.47 0l-5.46 5.46 5.46 5.46c.34.34.79.51 1.24.51s.9-.17 1.24-.51c.68-.68.68-1.79 0-2.47l-1.24-1.24h12.37v-3.5H19.64ZM12.74 16l-3.85 4.12h7.79L20.72 16h-7.97Zm5.35 5.53v8.14l4.12-3.22-.09-9.02-4.02 4.1ZM8.15 30h7.94v-7.88H8.15zm-2-9.88 4.86-5.19c-.34-2.4-2.39-4.26-4.88-4.26H0v21.34h8.07-1.93V20.13Z"/>
</svg>
