<svg viewBox="0 0 48 48" xmlns="http://www.w3.org/2000/svg">
  <path fill="#1e1e1c" d="M24.52 21.02c5.78 0 10.49-4.71 10.49-10.5S30.3.01 24.52.01s-10.49 4.71-10.49 10.5 4.71 10.5 10.49 10.5Zm0-16.5c3.3 0 5.99 2.69 5.99 6s-2.69 6-5.99 6-5.99-2.69-5.99-6 2.69-6 5.99-6m23.49 33.86v9.63h-4.5v-9.63c0-4.71-3.83-8.54-8.53-8.54H21.74v-4.5h13.24c7.19 0 13.03 5.85 13.03 13.05Zm-16.5 0h4.5v9.63h-4.5zM14.36 28.37l9.48 9.49-9.48 9.49c-.44.44-1.01.66-1.59.66s-1.15-.22-1.59-.66c-.88-.88-.88-2.3 0-3.18l4.05-4.06H0v-4.5h15.22l-4.05-4.05c-.88-.88-.88-2.3 0-3.18s2.3-.88 3.18 0Z"/>
</svg>
