<svg viewBox="0 0 64 64" xmlns="http://www.w3.org/2000/svg">
  <path d="M.03 8.29C.03 3.72 3.75 0 8.32 0s8.29 3.72 8.29 8.29-3.72 8.29-8.29 8.29S.03 12.85.03 8.29m36.82.18 4.18-4.18c.98-.98.98-2.56 0-3.54s-2.56-.98-3.54 0L27.27 10.97l10.22 10.22c.49.49 1.13.73 1.77.73s1.28-.24 1.77-.73c.98-.98.98-2.56 0-3.54l-4.18-4.18h27.16v-5zm-2.8 35.99v15.91l8.84-7.85-.19-16.89-8.66 8.83Zm-9.42-10.77-8.44 8.84h15.9l8.67-8.84zm-12.18 8.86-.04-.04 8.85-9.28v-2.02c0-5.2-4.23-9.44-9.44-9.44H0v42.22h15.14-2.69V42.54Zm2.75 18.7h16.09V45.28H15.2z"/>
</svg>
