<svg viewBox="0 0 32 32" xmlns="http://www.w3.org/2000/svg">
  <path d="M4.4 8.77c2.42 0 4.39-1.97 4.39-4.38S6.82 0 4.4 0 .01 1.97.01 4.39 1.98 8.77 4.4 8.77M4.4 2a2.39 2.39 0 1 1 0 4.78A2.39 2.39 0 0 1 4.4 2M32 4.24v2H17.82l2.52 2.52a.996.996 0 0 1-.71 1.7c-.26 0-.51-.1-.71-.29l-4.93-4.93L18.92.31a.996.996 0 1 1 1.41 1.41l-2.52 2.52h14.18Zm-20.94 9.61-.26.27c-.64-1.99-2.48-3.45-4.68-3.45H0v21.34h8.07V29.5h8.5v-.08l.09.11 5.14-4.02-.12-11.66zm.85 2h6.43l-3.19 3.22H8.77zM6.07 30H2V12.67h4.12c1.63 0 2.95 1.32 2.95 2.95v.28l-3.05 3.13.05.05v10.93Zm8.5-2.51H8.08v-6.43h6.49zm2-.43v-6.58l3.15-3.17.07 7.24z"/>
</svg>
