<svg viewBox="0 0 40 40" xmlns="http://www.w3.org/2000/svg">
  <path fill="#1e1e1c" d="M20.5 17.48c4.83 0 8.76-3.93 8.76-8.76S25.33-.05 20.5-.05s-8.76 3.93-8.76 8.76 3.93 8.76 8.76 8.76Zm0-13.53c2.63 0 4.76 2.14 4.76 4.76s-2.14 4.76-4.76 4.76-4.76-2.14-4.76-4.76 2.14-4.76 4.76-4.76m19.47 28.04v7.97h-4v-7.97c0-3.82-3.11-6.93-6.92-6.93H18.69v-4h10.36c6.02 0 10.93 4.9 10.93 10.93Zm-13.82 0h4v7.97h-4zm-14.2-8.54 7.94 7.95-7.94 7.95c-.39.39-.9.59-1.41.59s-1.02-.2-1.41-.59c-.78-.78-.78-2.05 0-2.83l3.11-3.12H-.03v-4h12.27l-3.11-3.12c-.78-.78-.78-2.05 0-2.83s2.05-.78 2.83 0Z"/>
</svg>
