<svg viewBox="0 0 32 32" xmlns="http://www.w3.org/2000/svg">
  <path d="m19.57 7.5-6.54 5.67v6.34H1.64l-.03-.03-.03.03H0v12.48h17.21V25.8h9.17l5.61-5.99V7.5H19.56Zm.75 2h8.28l-3.64 3.67h-8.88zM4.81 25.42l-2.8 2.9v-5.64zm1.42 1.4.04.04c.62.61 1.44.91 2.26.91s1.63-.3 2.26-.91l.06-.06 3.17 3.21H3.16l3.08-3.18Zm6.05-1.42 2.93-2.87v5.83zm1.1-3.88-3.99 3.9c-.47.46-1.24.46-1.72 0l-3.99-3.9zm11 2.29h-7.17v-4.3h-2.18v-4.34h9.35zm2-.91v-8.31L30 10.93v8.1zm-3.14-4.57h-2v-2h2zM0 9.75c0-3.21 2.61-5.82 5.82-5.82h6.03L9.63 1.71A.996.996 0 1 1 11.04.3l4.64 4.64-4.64 4.64c-.2.2-.45.29-.71.29s-.51-.1-.71-.29a.996.996 0 0 1 0-1.41l2.22-2.22H5.81C3.71 5.95 2 7.66 2 9.77s1.71 3.82 3.81 3.82h5.43v2H5.81C2.61 15.57 0 12.96 0 9.75"/>
</svg>
