<svg viewBox="0 0 16 16" xmlns="http://www.w3.org/2000/svg">
  <path d="M15.99 5.19v4.27l-1.79 1.96V6.99zm-5.44-1.08L8.34 5.93h4.8l1.8-1.82zM7.58 7.43h5.13v4.72H8.88V9.64h-1.3zm2.58 2.47h1.8V8.4h-1.8zM0 12.04v2.5l1.24-1.28zm3.64 2.75c-.48 0-.95-.17-1.33-.5l-1.64 1.7h6.01l-1.69-1.71c-.38.33-.86.51-1.34.51Zm-.38-1.65c.21.21.56.21.77 0l2.04-2H1.21l2.04 2Zm4.12 1.43v-2.62l-1.31 1.29zm-4.32-6.6h2.27v-1.5H3.06c-.85 0-1.55-.69-1.55-1.55s.69-1.55 1.55-1.55h2.22l-.59.6c-.29.29-.29.77 0 1.06.15.15.34.22.53.22s.38-.07.53-.22l2.4-2.41-2.4-2.4c-.29-.29-.77-.29-1.06 0s-.29.77 0 1.06l.59.6H3.06C1.39 1.87.02 3.24.02 4.92s1.37 3.05 3.04 3.05"/>
</svg>
