<svg viewBox="0 0 64 64" xmlns="http://www.w3.org/2000/svg">
  <path d="m62.07 16.01-9.78 9.87H31.02l11.01-9.87zm-7.83 32.42L64 38.37V17.98l-9.76 9.84zm-24.52-19.8h21.76v20.9H33.83v-9.55h-4.12V28.63Zm15.81 6.21h2.99v-2.75h-2.99zm-25.72 20c-1.22 1.19-2.82 1.79-4.43 1.79s-3.21-.6-4.43-1.79l-.7-.68-9.5 9.81h29.56l-9.77-9.86-.74.72Zm11.28 6.01V43.8l-8.58 8.39zM0 44.13v16.66l8.28-8.56zm12.87 8.74c1.38 1.35 3.63 1.35 5.01 0l10.37-10.14H2.51l10.37 10.14Zm-1.66-22.45H22.3v-2.75H11.21c-4.67 0-8.46-3.79-8.46-8.46s3.8-8.46 8.46-8.46h13.94l-5.68 5.68c-.54.54-.54 1.41 0 1.94.27.27.62.4.97.4s.7-.13.97-.4l9-9-9-8.99c-.54-.54-1.41-.54-1.95 0s-.54 1.41 0 1.94L25.14 8H11.2C5.03 8 0 13.03 0 19.21s5.03 11.21 11.21 11.21"/>
</svg>
