<svg viewBox="0 0 64 64" xmlns="http://www.w3.org/2000/svg">
  <path d="M40.22 15.29 27.3 26.87h-.01v12.95H2.42l-.06-.06-.06.06H.03v24.15h33.8V51.34h18.73l11.46-11.82V15.29zm1.05 2.75h18.07l-8.75 8.84H31.41zM10.1 51.19l-7.33 7.58V44.01l7.33 7.17Zm1.97 1.92.56.55c1.14 1.12 2.64 1.68 4.14 1.68s3-.56 4.14-1.68l.6-.59 8.07 8.15H4.22l7.84-8.12Zm11.41-1.96 7.6-7.44v15.12zm4.83-8.57-9.32 9.12a3.19 3.19 0 0 1-4.44 0l-9.32-9.12zm21.48 6.02H33.82v-8.77h-3.78v-10.2h19.75zm2.75-1.18v-18.6l8.73-8.81v18.4zm-5.35-12.09h-2.75v-2.75h2.75zM.02 19.21c0-6.18 5.03-11.2 11.2-11.2h13.93l-5.68-5.68c-.54-.54-.54-1.41 0-1.94.54-.54 1.41-.54 1.94 0l9 9-9 9c-.27.27-.62.4-.97.4s-.7-.13-.97-.4c-.54-.54-.54-1.41 0-1.94l5.68-5.68H11.22c-4.66 0-8.46 3.79-8.46 8.46s3.79 8.46 8.46 8.46H22.3v2.75H11.22C5.05 30.42.02 25.39.02 19.21"/>
</svg>
