<svg viewBox="0 0 24 24" xmlns="http://www.w3.org/2000/svg">
  <path d="m22.78 6.01-3.09 3.12h-7.64l3.66-3.12zm-1.85 4.36v7.17L24 14.17V7.26l-3.07 3.1Zm-9.74.51h7.99v7.38h-6.12v-3.69h-1.87zm4.87 2.92h2.03v-1.75h-2.03zM0 17.34v4.76l2.36-2.45zm7.55 3.56c-.54.53-1.24.79-1.95.79s-1.41-.26-1.95-.79l-.02-.02L.6 24.01h10.11l-3.12-3.15zm3.76 1.24v-4.92l-2.48 2.42zm-6.44-2.49c.4.39 1.05.39 1.45 0l3.39-3.32H1.48zm-.42-7.83h4.02v-1.75H4.45c-1.49 0-2.69-1.21-2.69-2.69s1.21-2.7 2.69-2.7H8.6L7.18 6.1a.881.881 0 0 0 .62 1.5c.22 0 .45-.09.62-.26l3.53-3.53L8.42.27a.88.88 0 0 0-1.24 0c-.34.34-.34.9 0 1.24L8.6 2.93H4.45C2 2.93 0 4.92 0 7.38s1.99 4.45 4.45 4.45Z"/>
</svg>
