<svg viewBox="0 0 40 40" xmlns="http://www.w3.org/2000/svg">
  <path d="m24.55 9.43-8.14 7.14h-.01v7.98H1.89l-.08-.08-.08.08H.02v15.44h21.39v-7.78h11.53l7.07-7.46V9.43zm.85 2.25h10.79l-4.84 4.89H19.83l5.58-4.89ZM6.11 31.83l-3.85 3.98v-7.74zm1.61 1.58.14.14c.76.74 1.75 1.11 2.75 1.11s1.99-.37 2.75-1.11l.17-.17 4.31 4.35H3.54l4.18-4.33Zm7.42-1.6 4.01-3.93v7.98zm1.9-5.01-5.25 5.14c-.65.63-1.7.63-2.35 0L4.19 26.8h12.86Zm13.65 3.15h-9.28v-5.4h-2.02l-.02-.02-.02.02h-.68v-5.73H30.7v11.13Zm2.25-1.01V18.16l4.82-4.87v10.56zm-3.95-6.16h-2.25v-2.25h2.25zM.01 12.12c0-3.96 3.23-7.19 7.19-7.19h7.91L12.09 1.9c-.44-.44-.44-1.15 0-1.59s1.15-.44 1.59 0l5.74 5.74-5.74 5.74c-.22.22-.51.33-.8.33s-.58-.11-.8-.33c-.44-.44-.44-1.15 0-1.59l3.02-3.03H7.19c-2.72 0-4.93 2.21-4.93 4.94s2.21 4.94 4.93 4.94h6.83v2.25H7.19c-3.95.01-7.18-3.22-7.18-7.18"/>
</svg>
