<svg viewBox="0 0 40 40" xmlns="http://www.w3.org/2000/svg">
  <path d="m38.45 9.97-5.69 5.75H19.45L26 9.97zm-4.1 7.34v12.48l5.67-5.99V11.58zm-15.98.66h13.74v12.74H21.45v-6.06h-3.07v-6.69Zm9.18 4.43h2.52v-2.25h-2.52zM19.2 37.53v-9.59l-4.82 4.71 4.82 4.87Zm-6.72-3.02c-.82.8-1.9 1.21-2.98 1.21s-2.16-.4-2.98-1.21l-.26-.25L.71 40h17.76l-5.71-5.77-.29.28ZM.02 28.15v9.33l4.63-4.8zm8.07 4.75c.78.76 2.04.76 2.82 0l6.13-5.99H1.96zm-.87-13.6h6.82v-2.25H7.22c-2.72 0-4.93-2.21-4.93-4.93S4.5 7.19 7.22 7.19h7.9l-3.02 3.02a1.123 1.123 0 0 0 .79 1.92c.28 0 .58-.11.79-.33l5.73-5.74L13.69.33c-.44-.44-1.15-.44-1.59 0s-.44 1.15 0 1.59l3.02 3.02h-7.9C3.27 4.94.05 8.16.05 12.12s3.22 7.18 7.17 7.18"/>
</svg>
