<svg viewBox="0 0 48 48" xmlns="http://www.w3.org/2000/svg">
  <path d="m30.03 11.36-9.78 8.58.03.03v9.61H.02v18.4h25.57V38.6h13.9l.04.04 8.49-8.96V11.36zm.94 2.5h12.79l-6.05 6.11H24l6.96-6.11ZM14.18 38.47c-.82.8-2.16.8-2.98 0l-6.52-6.38h16.01l-6.52 6.38Zm-6.77-.21-4.89 5.06v-9.85zm1.79 1.75.25.25c.89.87 2.06 1.31 3.24 1.31s2.35-.44 3.24-1.31l.28-.27 5.45 5.5H3.91l5.29-5.47Zm8.8-1.78 5.09-4.98v10.12zm18.99-2.13h-11.4v-6.51h-2.81v-7.12h14.21zm2.5-1.06V21.73l6.02-6.08v13.03zm-4.66-7.8h-2.71v-2.5h2.71zM.02 14.5c0-4.72 3.83-8.55 8.55-8.55h9.79l-3.83-3.83c-.49-.49-.49-1.28 0-1.77s1.28-.49 1.77 0l6.85 6.85-6.85 6.85c-.24.24-.56.37-.88.37s-.64-.12-.88-.37a1.25 1.25 0 0 1 0-1.77l3.83-3.83H8.58c-3.34 0-6.05 2.72-6.05 6.05s2.72 6.05 6.05 6.05h8.23v2.5H8.58C3.85 23.06.02 19.22.02 14.5"/>
</svg>
