<svg viewBox="0 0 32 32" xmlns="http://www.w3.org/2000/svg">
  <path d="m7.5 16.15-6.06-6.5h12.57l-6.5 6.5Zm-3.46 9.51.97-6.45.1-.65.47-.47.52-.52L0 11.05v19.42l4.01-4.66.02-.15Zm23.41 4.85V12.88l-8.57 8.57 8.57 9.05Zm-13.54-4.09-.47.47-.66.1-6.48.95-1.69.25-3.29 3.82h24.8l-8.65-9.14zM31.42 7.5l-2.85 2.85s-.02.04-.03.05c-.02.02-.04.02-.05.04L12.97 25.95l-8.14 1.19 1.22-8.11L24.5.58c.77-.77 2.02-.77 2.79 0l4.13 4.13c.37.37.58.87.58 1.4s-.21 1.02-.58 1.4ZM9.49 18.41l4.1 4.09L26.41 9.69l-4.14-4.07L9.5 18.41Zm2.53 5.66.15-.15-4.09-4.09-.15.15-.72 4.79zM30.01 6.09 25.88 2l-2.21 2.21 4.14 4.08z"/>
</svg>
