<svg viewBox="0 0 40 40" xmlns="http://www.w3.org/2000/svg">
  <path d="M39.32 5.85 34.16.69c-.91-.91-2.4-.91-3.31 0L19.23 12.31H0v27.7h34.05V14.42l1.59-1.59s.05-.03.07-.05.03-.04.04-.06l3.56-3.56c.91-.91.91-2.4 0-3.31ZM9.92 24.79l.31-.31 5.29 5.29-.3.3-6.22.91.93-6.2Zm7.19 3.39-5.29-5.29L27.97 6.74l5.33 5.25zm-.14-13.63-6.86 6.86-6.4-6.86zM2.25 16.28 8.52 23l-.46.46-.26.26-.95 6.33-4.6 5.12zm.71 21.47 3.73-4.15 9.59-1.4 4.77-4.38 9.93 9.93zm28.84-2.36-9.22-9.22 3.83-4.1 5.4-5.4v18.72Zm5.92-27.82-2.83 2.83-5.33-5.25 2.87-2.87s.1-.03.13 0l5.16 5.16s.03.1 0 .13"/>
</svg>
