<svg viewBox="0 0 64 64" xmlns="http://www.w3.org/2000/svg">
  <path d="M63.03 9.23 54.77.96c-1.26-1.26-3.44-1.26-4.7 0L30.52 20.52H0v43.5h53.63V23.34l4.92-4.93s.08-.04.11-.07.04-.07.07-.1l4.3-4.3a3.32 3.32 0 0 0 0-4.7ZM15.9 39.06l.08-.08 9.07 9.08-.08.08-10.66 1.56 1.59-10.63ZM27 46.1l-9.07-9.08L46.58 8.35l9.14 9L27 46.09Zm.78-22.82L15.76 35.31 4.55 23.28zM2.75 25.39 13.8 37.25l-.17.17-.32.32-1.49 9.99-9.07 10.09zm.61 35.88 7.72-8.59-.04.27 15.23-2.23 6.97-6.39 16.93 16.94zm47.52-3.17L35.11 42.32l6.16-6.61 9.61-9.62zm10.21-46.12-3.43 3.43-9.14-9 3.5-3.5a.566.566 0 0 1 .81 0l8.26 8.27c.22.22.22.59 0 .81Z"/>
</svg>
