<svg viewBox="0 0 16 16" xmlns="http://www.w3.org/2000/svg">
  <path d="M1.51 13.11 0 14.87V5.56l2.72 2.92-.25.26-.35.35-.07.49-.47 3.16-.06.38Zm5.17-8.59H1.07l2.7 2.9 2.9-2.9Zm.59 9.03-.35.35-.49.07-3.16.46-1.05.15-1.21 1.41h11.96L9 11.82l-1.72 1.72Zm6.68 1.32V6.86l-3.9 3.91zm1.69-10.76-1.39 1.4s-.01.02-.02.03c0 0-.02.01-.03.02L6.57 13.2l-4.41.65.66-4.4L11.89.36a1.22 1.22 0 0 1 1.73 0l2.02 2.02c.48.48.48 1.26 0 1.74Zm-3.6-1.78 1.64 1.62.7-.7-1.63-1.63-.71.72ZM5.29 9.09l1.63 1.63 5.71-5.71-1.64-1.62-5.69 5.7Zm.57 2.7-1.63-1.63-.29 1.92 1.92-.28Z"/>
</svg>
