<svg viewBox="0 0 16 16" xmlns="http://www.w3.org/2000/svg">
  <path d="M15.64 2.38 13.62.36c-.48-.48-1.25-.47-1.73 0L7.74 4.52H0V16h13.96V5.8l.25-.25s.02-.01.03-.02c0 0 .01-.02.02-.03l1.39-1.4c.48-.48.48-1.25 0-1.74Zm-2.88-.77 1.63 1.63-.7.7-1.64-1.62.71-.72Zm-1.77 1.78 1.64 1.62-5.71 5.71-1.63-1.63 5.69-5.7Zm-6.76 6.77 1.63 1.63-1.92.28zm2.01-4.14L4.29 7.97 2.47 6.02zM1.5 7.17l1.73 1.86-.41.41-.37 2.49-.95 1.06zm.66 7.33.68-.75 3.73-.55 1.97-1.87 3.16 3.17zm10.3-1.36-2.87-2.88 2.87-2.96z"/>
</svg>
