<svg viewBox="0 0 48 48" xmlns="http://www.w3.org/2000/svg">
  <path d="M11.18 25.04 1.79 14.97h19.45L11.17 25.04Zm9.58 14.01-.59.59-.82.12-9.71 1.42-2.44.36-5.56 6.48h37.33l-13.2-13.98-5.02 5.02Zm19.9 7.09V19.15L27.55 32.26zM8.27 28.65l.12-.82.58-.58.44-.44L0 16.71v29.38l6.85-7.98 1.42-9.47Zm38.94-17.82-3.45 3.45s-.03.06-.05.08-.06.03-.08.06L19.6 38.46 7.81 40.19l1.76-11.76L37.18.8c1.06-1.05 2.78-1.06 3.83 0l6.19 6.19a2.704 2.704 0 0 1 0 3.83ZM13.82 27.71l6.49 6.49 20.72-20.72-6.54-6.44zm-3.05 9.51 7.63-1.12.13-.13-6.49-6.49-.13.13zM45.44 8.76l-6.19-6.19c-.08-.08-.21-.08-.3 0l-2.7 2.7 6.54 6.44 2.65-2.65c.08-.08.08-.22 0-.3"/>
</svg>
