<svg viewBox="0 0 48 48" xmlns="http://www.w3.org/2000/svg">
  <path d="M16.1 10c2.76 0 5-2.24 5-5s-2.24-5-5-5-5 2.24-5 5 2.24 5 5 5m0-7.49a2.5 2.5 0 0 1 0 5 2.5 2.5 0 0 1 0-5m9.26 26.24.12.03c.75.19 1.5.15 2.21-.03H48V5.45H24.7v12.48l-1.89-1.2-3.34-3.43a5.17 5.17 0 0 0-3.59-1.44c-2.82 0-5.1 2.21-5.19 5.01L9.8 36.33 2.33 48h8.3l7.85-8.84L20.42 48h7.66l-2.49-15.92-5.48-4.71.21-1.73 4.37 2.72v.39zm12.37-20.8v3.5h-2.77v-3.5zm-10.54 0h5.27v6h7.76v-6h5.27v18.3H30.68c.1-.23.2-.46.27-.71.59-2.24-.57-4.52-2.71-5.36l-1.04-.66V7.95Zm-8.88 13.5-.85 6.95 5.79 4.98 1.89 12.12h-2.73l-1.67-7.63-3.65-6.04-2.14 1.29 2.24 3.71-7.7 8.67H6.88l5.37-8.39.92-20.15a2.69 2.69 0 0 1 2.7-2.61c.7 0 1.36.27 1.83.71l3.41 3.5L27 22.34l.25.12c1 .36 1.55 1.4 1.28 2.42a2.04 2.04 0 0 1-2.28 1.49l-7.94-4.93Z"/>
</svg>
