<svg viewBox="0 0 16 16" xmlns="http://www.w3.org/2000/svg">
  <path d="M16 1.82v7.77h-5.3c.26-.3.47-.64.58-1.04.34-1.27-.32-2.57-1.55-3.06l-1.61-.81V1.82h2.95v2.91h2.14V1.82zM9.46 6.19l-1.84-.93-1.02-.73c-.39-.37-.91-.57-1.45-.57-1.13 0-2.05.88-2.09 1.98l-.27 5.4L.01 16h3.45l2.3-1.88.75 1.87h3.17l-.93-5.47-1.76-1.49 1.15.58.16.06c.99.24 2-.35 2.26-1.32.25-.93-.26-1.88-1.09-2.16ZM4.19 3.32a1.9 1.9 0 0 0 1.03.31c1.02 0 1.84-.81 1.84-1.81S6.23 0 5.22 0c-.13 0-.25.01-.37.04q-.36.075-.66.27c-.3.195-.36.3-.5.49-.2.29-.31.64-.31 1.01s.12.72.31 1.01c.13.19.3.36.5.49Z"/>
</svg>
