<svg viewBox="0 0 24 24" xmlns="http://www.w3.org/2000/svg">
  <path d="M8.05 5a2.5 2.5 0 0 0 0-5 2.5 2.5 0 0 0 0 5m0-3.24c.41 0 .75.34.75.75s-.34.75-.75.75-.75-.34-.75-.75.34-.75.75-.75m4.38 12.77.25.11c.65.16 1.3.05 1.84-.26h9.47V2.73H12.34v5.94l-.78-.5-1.65-1.7c-.53-.51-1.23-.79-1.97-.79-1.54 0-2.79 1.21-2.85 2.74l-.44 9.65-4 5.93H5.4l3.69-3.94L10 24h4.32l-1.3-8.09-2.71-2.33.04-.35 2.07 1.28Zm1.66-10.05h2.7v2.5h3v-2.5h2.45v8.15h-6.5c.21-1.17-.41-2.31-1.52-2.76l-.14-.09v-5.3ZM11.4 16.82l.87 5.43h-.87l-.76-3.28-1.68-2.86-1.5.9.82 1.35-3.64 3.88h-.7l2.43-3.61.46-10.15c.02-.6.5-1.06 1.1-1.06.28 0 .55.11.74.28l1.7 1.75 2.99 1.92.17.08c.38.13.58.53.48.91-.09.36-.43.59-.81.56l-4.26-2.64-.49 3.99 2.93 2.52Z"/>
</svg>
