<svg viewBox="0 0 40 40" xmlns="http://www.w3.org/2000/svg">
  <path d="M13.41 8.33c2.3 0 4.17-1.87 4.17-4.17S15.71 0 13.41 0 9.24 1.87 9.24 4.17s1.87 4.17 4.17 4.17Zm0-6.08a1.92 1.92 0 1 1-.001 3.841 1.92 1.92 0 0 1 .001-3.841m7.53 21.71.1.06.17.04c.75.19 1.51.13 2.19-.1H40V4.53H20.57v10.31l-1.52-.96-2.78-2.86a4.4 4.4 0 0 0-3.05-1.22c-2.39 0-4.33 1.87-4.41 4.25l-.74 16.2-6.33 9.74h7.12l6.48-7.19 1.58 7.19h6.55L21.39 26.7l-4.56-3.92.16-1.27 3.58 2.22v.23h.36ZM31.28 6.78v2.58h-1.97V6.78zm-8.45 0h4.23v4.83h6.47V6.78h4.23v14.93H25.73c.05-.13.11-.26.15-.41a3.85 3.85 0 0 0-2.3-4.57l-.74-.47V6.78Zm-7.64 10.96-.73 5.97 4.84 4.16 1.55 9.88h-2.11l-1.37-6.2-3.03-5-.03-.04-1.93 1.16 1.83 3.03-6.36 7.05H5.88l4.4-6.78.77-16.82c.04-1.17.99-2.09 2.16-2.09.56 0 1.09.21 1.47.57l2.84 2.92 4.93 3.16.22.11a1.59 1.59 0 0 1 1.01 1.92c-.21.8-.99 1.3-1.79 1.18l-6.72-4.17Z"/>
</svg>
