<svg viewBox="0 0 24 24" xmlns="http://www.w3.org/2000/svg">
  <path d="M24 2.73v11.65h-8.12c.32-.38.56-.82.69-1.32.43-1.64-.39-3.3-1.92-3.97l-2.29-1.45V2.73h4.45v4.25h3V2.73h4.2Zm-9.77 7.14-2.67-1.69-1.66-1.7c-.53-.51-1.23-.79-1.97-.79a2.84 2.84 0 0 0-2.85 2.74l-.44 9.65-4 5.93h4.75l3.69-3.94.91 3.94h4.32l-1.3-8.09-2.71-2.33.04-.35 2.07 1.28.25.11c1.33.34 2.69-.48 3.04-1.8.33-1.23-.31-2.49-1.48-2.97ZM5.97 3.9a2.51 2.51 0 0 0 2.57 1.05c.33-.07.63-.2.89-.38.27-.18.5-.41.68-.67.18-.27.31-.57.38-.89a2.508 2.508 0 0 0-2.44-3 2.486 2.486 0 0 0-2.07 3.88Z"/>
</svg>
