<svg viewBox="0 0 32 32" xmlns="http://www.w3.org/2000/svg">
  <path d="M8.37 5.69c-.6-.6-.98-1.44-.98-2.36 0-1.15.58-2.17 1.47-2.76C9.4.21 10.04 0 10.73 0a3.329 3.329 0 0 1 2.76 5.19c-.6.89-1.61 1.47-2.76 1.47-.92 0-1.75-.37-2.36-.98Zm18.61-2.06V9.3h-5.5V3.63h-5.02v6.94l2.9 1.84a4.16 4.16 0 0 1 1.35 6.75H32V3.63zm-2 0h-1.5V7.3h1.5zm-8.32 15.6.29.12c1.69.42 3.41-.6 3.85-2.28.41-1.57-.4-3.17-1.89-3.77l-3.59-2.28-2.22-2.28a3.62 3.62 0 0 0-2.51-1.01c-1.97 0-3.56 1.54-3.63 3.5l-.59 12.93-5.16 7.83h5.93l5.08-5.56 1.25 5.56h5.43L17.21 21.3l-3.63-3.12.1-.81 2.98 1.85Z"/>
</svg>
