<svg viewBox="0 0 16 16" xmlns="http://www.w3.org/2000/svg">
  <path fill="#1e1e1c" d="M14.23 7.37h-5.6v-5.6a1.25 1.25 0 0 1 2.5 0V3.1l3.1-3.1L16 1.77l-3.1 3.1h1.33a1.25 1.25 0 0 1 0 2.5M.52 9.88c0 .69.56 1.25 1.25 1.25H3.1L0 14.23 1.77 16l3.1-3.1v1.33a1.25 1.25 0 0 0 2.5 0v-5.6h-5.6c-.69 0-1.25.56-1.25 1.25M6.13.52c-.69 0-1.25.56-1.25 1.25V3.1L1.77 0 0 1.77l3.1 3.1H1.77a1.25 1.25 0 0 0 0 2.5h5.6v-5.6c0-.69-.56-1.25-1.25-1.25ZM16 14.23l-3.1-3.1h1.34a1.25 1.25 0 0 0 0-2.5h-5.6v5.43a1.25 1.25 0 0 0 2.5 0V12.9l3.1 3.1 1.77-1.77Z"/>
</svg>
