<svg viewBox="0 0 32 32" xmlns="http://www.w3.org/2000/svg">
  <path fill="#1e1e1c" d="M32-.02v9.89c0 .97-.78 1.75-1.75 1.75s-1.75-.78-1.75-1.75V5.96l-7.26 7.26-2.48-2.48 7.26-7.26h-3.91c-.97 0-1.75-.78-1.75-1.75s.78-1.75 1.75-1.75zM9.89 3.49c.97 0 1.75-.78 1.75-1.75S10.86-.02 9.89-.02H0v9.89c0 .97.78 1.75 1.75 1.75s1.75-.78 1.75-1.75V5.96l7.26 7.26 2.48-2.48-7.26-7.25zm20.36 17.2c-.97 0-1.75.78-1.75 1.75V26l-7.24-7.24-2.48 2.48 7.24 7.24h-3.91c-.97 0-1.75.78-1.75 1.75s.78 1.75 1.75 1.75H32v-9.55c0-.97-.78-1.75-1.75-1.75Zm-19.48-1.95L3.51 26v-3.91c0-.97-.78-1.75-1.75-1.75S0 21.12 0 22.09v9.89h9.89c.97 0 1.75-.78 1.75-1.75s-.78-1.75-1.75-1.75H5.98l7.26-7.26-2.48-2.48Z"/>
</svg>
