<svg viewBox="0 0 24 24" xmlns="http://www.w3.org/2000/svg">
  <path fill="#1e1e1c" d="M21.56 10.72h-8.28V2.44c0-.83.67-1.5 1.5-1.5s1.5.67 1.5 1.5v3.15L21.88 0 24 2.12l-5.6 5.6h3.15c.83 0 1.5.67 1.5 1.5s-.67 1.5-1.5 1.5ZM.94 14.78c0 .83.67 1.5 1.5 1.5h3.15L0 21.88 2.12 24l5.59-5.59v3.15c0 .83.67 1.5 1.5 1.5s1.5-.67 1.5-1.5v-8.28H2.44c-.83 0-1.5.67-1.5 1.5M9.24.97c-.83 0-1.5.67-1.5 1.5v3.15L2.15.02.02 2.14l5.6 5.6H2.47c-.83 0-1.5.67-1.5 1.5s.67 1.5 1.5 1.5h8.28V2.47c0-.83-.67-1.5-1.5-1.5ZM24 21.88l-5.6-5.6h3.16c.83 0 1.5-.67 1.5-1.5s-.67-1.5-1.5-1.5h-8.28v8.02c0 .83.67 1.5 1.5 1.5s1.5-.67 1.5-1.5v-2.89L21.87 24l2.12-2.12Z"/>
</svg>
