<svg viewBox="0 0 40 40" xmlns="http://www.w3.org/2000/svg">
  <path d="M40.08 15.72H37.8v24.25h-2.25V15.05L19.81 2.9 4.43 15.13v24.85H2.18V15.72H.08l2.51-2L19.79.04zm-25.57 4.91c0-3.04 2.48-5.52 5.53-5.52s5.53 2.48 5.53 5.52-2.48 5.52-5.53 5.52-5.53-2.48-5.53-5.52m2.25 0a3.28 3.28 0 0 0 6.56 0 3.28 3.28 0 0 0-6.56 0m8.01 7.91h-9.46c-3.45 0-6.26 2.8-6.26 6.25v5.2h2.25v-5.2c0-2.21 1.8-4 4.01-4h9.46c2.21 0 4.01 1.8 4.01 4v5.2h2.25v-5.2c0-3.45-2.81-6.25-6.26-6.25m-10.38 11.5h2.25v-4.81h-2.25zm9.05 0h2.25v-4.81h-2.25z"/>
</svg>
