<svg viewBox="0 0 64 64" xmlns="http://www.w3.org/2000/svg">
  <path fill="#1e1e1c" d="M56.32 26.99H37V7.67a2.5 2.5 0 0 1 5 0v10.78L60.46 0 64 3.54 45.55 21.99h10.78a2.5 2.5 0 0 1 0 5ZM5.18 39.5a2.5 2.5 0 0 0 2.5 2.5h10.78L0 60.46 3.54 64l18.45-18.45v10.78a2.5 2.5 0 0 0 5 0V37.01H7.68a2.5 2.5 0 0 0-2.5 2.5ZM24.5 5.19a2.5 2.5 0 0 0-2.5 2.5v10.78L3.53 0 0 3.54l18.47 18.47H7.68a2.5 2.5 0 0 0 0 5H27V7.69a2.5 2.5 0 0 0-2.5-2.5m31.83 36.82a2.5 2.5 0 0 0 0-5H37.01v18.6a2.5 2.5 0 0 0 5 0V45.55l18.44 18.44 3.54-3.54-18.44-18.44z"/>
</svg>
