<svg viewBox="0 0 24 24" xmlns="http://www.w3.org/2000/svg">
  <path fill="#1e1e1c" d="M24 0v8.28c0 .83-.67 1.5-1.5 1.5S21 9.11 21 8.28V5.13l-5.6 5.6-2.12-2.12 5.6-5.6h-3.16c-.83 0-1.5-.67-1.5-1.5S14.89 0 15.72 0zM8.28 3c.83 0 1.5-.67 1.5-1.5S9.11 0 8.28 0H0v8.28c0 .83.67 1.5 1.5 1.5S3 9.11 3 8.28V5.13l5.6 5.6 2.12-2.12L5.13 3zM22.5 14.48c-.83 0-1.5.67-1.5 1.5v2.89l-5.59-5.59-2.12 2.12 5.6 5.6h-3.16c-.83 0-1.5.67-1.5 1.5s.67 1.5 1.5 1.5h8.28v-8.02c0-.83-.67-1.5-1.5-1.5Zm-13.9-1.2-5.59 5.59v-3.15c0-.83-.67-1.5-1.5-1.5S0 14.89 0 15.72V24h8.28c.83 0 1.5-.67 1.5-1.5S9.11 21 8.28 21H5.13l5.59-5.59-2.12-2.12Z"/>
</svg>
