<svg viewBox="0 0 32 32" xmlns="http://www.w3.org/2000/svg">
  <path fill="#1e1e1c" d="M28.64 13.23h-9.89V3.34c0-.97.78-1.75 1.75-1.75s1.75.78 1.75 1.75v3.91L29.51 0l2.48 2.48-7.25 7.26h3.91c.97 0 1.75.78 1.75 1.75s-.78 1.75-1.75 1.75ZM1.58 20.51c0 .97.78 1.75 1.75 1.75h3.91l-7.25 7.26L2.47 32l7.25-7.26v3.91c0 .97.78 1.75 1.75 1.75s1.75-.78 1.75-1.75v-9.89H3.34c-.97 0-1.75.78-1.75 1.75ZM11.5 1.6c-.97 0-1.75.78-1.75 1.75v3.91L2.5 0 .02 2.48l7.25 7.26H3.36c-.97 0-1.75.78-1.75 1.75s.78 1.75 1.75 1.75h9.88V3.35c0-.97-.78-1.75-1.75-1.75Zm20.49 27.9-7.23-7.23h3.91c.97 0 1.75-.78 1.75-1.75s-.78-1.75-1.75-1.75h-9.88v9.54c0 .97.78 1.75 1.75 1.75s1.75-.78 1.75-1.75v-3.56l7.23 7.23L32 29.5Z"/>
</svg>
