<svg viewBox="0 0 64 64" xmlns="http://www.w3.org/2000/svg">
  <path fill="#1e1e1c" d="M58.08 24.77H39.21V5.9c0-.76.62-1.38 1.38-1.38s1.38.62 1.38 1.38v14.18L62.04 0l1.95 1.95-20.08 20.08h14.17c.76 0 1.38.62 1.38 1.38s-.62 1.38-1.38 1.38ZM4.54 40.59c0 .76.62 1.38 1.38 1.38h14.17L.03 62.03l1.95 1.95 20.07-20.07v14.18c0 .76.62 1.38 1.38 1.38s1.38-.62 1.38-1.38V39.22H5.92c-.76 0-1.38.62-1.38 1.38ZM23.43 4.57c-.76 0-1.38.62-1.38 1.38v14.18L1.93 0-.01 1.94l20.12 20.13H5.93c-.76 0-1.38.62-1.38 1.38s.62 1.38 1.38 1.38H24.8V5.94c0-.76-.62-1.38-1.38-1.38Zm40.56 57.48L43.91 41.97h14.17c.76 0 1.38-.62 1.38-1.38s-.62-1.38-1.38-1.38H39.21v18.12c0 .76.62 1.38 1.38 1.38s1.38-.62 1.38-1.38V43.9l20.08 20.09L64 62.04Z"/>
</svg>
