<svg viewBox="0 0 48 48" xmlns="http://www.w3.org/2000/svg">
  <path fill="#1e1e1c" d="M48 0v14.57c0 1.1-.89 2-2 2s-2-.89-2-2V6.82L31.57 19.24l-2.82-2.82L41.18 4h-7.76c-1.1 0-2-.89-2-2s.91-2 2.01-2zM14.58 4.02c1.1 0 2-.89 2-2s-.9-1.99-2-1.99H.01V14.6c0 1.1.89 2 2 2s2-.89 2-2V6.85l12.43 12.42 2.82-2.82L6.83 4.02h7.76ZM46 31.97a2 2 0 0 0-2 2v7.21L31.57 28.76l-2.82 2.82L41.18 44h-7.76c-1.1 0-2 .89-2 2s.89 2 2 2h14.57V33.97a2 2 0 0 0-2-2Zm-29.58-3.21L3.99 41.18v-7.75c0-1.1-.89-2-2-2s-1.99.9-1.99 2V48h14.57c1.1 0 2-.89 2-2s-.89-2-2-2H6.81l12.43-12.42z"/>
</svg>
