<svg viewBox="0 0 24 24" xmlns="http://www.w3.org/2000/svg">
  <path fill="#1e1e1c" d="M24 0v7.23a.87.87 0 0 1-1.74 0V2.96l-6.53 6.53-1.23-1.23 6.53-6.53h-4.27a.87.87 0 0 1 0-1.74h7.23ZM7.23 1.73a.87.87 0 0 0 0-1.74H0v7.23a.87.87 0 0 0 1.74 0V2.96l6.53 6.53L9.5 8.26 2.96 1.73zm15.9 14.45a.87.87 0 0 0-.87.87v4l-6.53-6.53-1.23 1.23 6.53 6.53h-4.26a.87.87 0 0 0 0 1.74H24v-6.96a.87.87 0 0 0-.87-.87ZM8.26 14.51l-6.53 6.53v-4.27a.87.87 0 0 0-1.74 0V24h7.23a.87.87 0 0 0 0-1.74H2.96l6.53-6.53-1.23-1.23Z"/>
</svg>
