<svg viewBox="0 0 64 64" xmlns="http://www.w3.org/2000/svg">
  <path d="M64.02 24.37h-2.93v39.66h-2.75V23.54L31.68 3.5 5.45 23.66v40.38H2.7V24.37H.02l3.19-2.47L31.66.04zm-40.5 8.59c0-4.68 3.8-8.48 8.48-8.48s8.48 3.8 8.48 8.48-3.8 8.48-8.48 8.48-8.48-3.8-8.48-8.48m2.75 0c0 3.16 2.57 5.73 5.73 5.73s5.73-2.57 5.73-5.73-2.57-5.73-5.73-5.73-5.73 2.57-5.73 5.73m13.36 12.99H24.36c-5.33 0-9.66 4.34-9.66 9.66v8.4h2.75v-8.4c0-3.81 3.1-6.91 6.91-6.91h15.27c3.81 0 6.91 3.1 6.91 6.91v8.4h2.75v-8.4c0-5.33-4.34-9.66-9.66-9.66M22.88 64.04h2.75v-7.78h-2.75zm15.49 0h2.75v-7.78h-2.75z"/>
</svg>
