<svg viewBox="0 0 16 16" xmlns="http://www.w3.org/2000/svg">
  <path fill="#1e1e1c" d="M13.91 6.99H9.02V2.1c0-.41.34-.75.75-.75s.75.34.75.75v2.33L14.95 0l1.06 1.06-4.43 4.43h2.33c.41 0 .75.34.75.75s-.34.75-.75.75M1.35 9.76c0 .41.34.75.75.75h2.33L.01 14.93l1.06 1.06 4.42-4.42v2.33c0 .41.34.75.75.75s.75-.34.75-.75V9.01H2.1c-.41 0-.75.34-.75.75m4.89-8.42c-.41 0-.75.34-.75.75v2.33L1.07 0 0 1.06l4.43 4.43H2.1c-.41 0-.75.34-.75.75s.34.75.75.75h4.89V2.1c0-.41-.34-.75-.75-.75Zm7.67 9.17c.41 0 .75-.34.75-.75s-.34-.75-.75-.75H9.02v4.72c0 .41.34.75.75.75s.75-.34.75-.75v-2.15L14.94 16 16 14.94l-4.42-4.43h2.34Z"/>
</svg>
