<svg viewBox="0 0 48 48" xmlns="http://www.w3.org/2000/svg">
  <path d="M48.06 18.67h-2.57v29.34h-2.5V17.93L23.78 3.18 4.92 18.01v30h-2.5V18.67H.06l2.82-2.23L23.77.01zm-30.55 6.18c0-3.61 2.94-6.55 6.55-6.55s6.55 2.94 6.55 6.55-2.94 6.55-6.55 6.55-6.55-2.94-6.55-6.55m2.5 0c0 2.23 1.82 4.05 4.05 4.05s4.05-1.82 4.05-4.05-1.82-4.05-4.05-4.05-4.05 1.82-4.05 4.05m9.74 9.46H18.36c-4.1 0-7.43 3.33-7.43 7.43V48h2.5v-6.26c0-2.72 2.21-4.93 4.93-4.93h11.39c2.72 0 4.93 2.21 4.93 4.93V48h2.5v-6.26c0-4.1-3.34-7.43-7.44-7.43Zm-12.54 13.7h2.5v-5.8h-2.5zm11.19 0h2.5v-5.8h-2.5z"/>
</svg>
