<svg viewBox="0 0 32 32" xmlns="http://www.w3.org/2000/svg">
  <path fill="#1e1e1c" d="M28.57 12.99H19V3.41c0-.55.45-1 1-1s1 .45 1 1v6.16l9.58-9.59L32 1.4l-9.59 9.59h6.16c.55 0 1 .45 1 1s-.45 1-1 1m-26.16 7c0 .55.45 1 1 1h6.16L0 30.57l1.42 1.42 9.57-9.57v6.16c0 .55.45 1 1 1s1-.45 1-1V19H3.41c-.55 0-1 .45-1 1ZM12 2.41c-.55 0-1 .45-1 1v6.16L1.42-.01 0 1.4l9.59 9.59H3.43c-.55 0-1 .45-1 1s.45 1 1 1h9.58V3.41c0-.55-.45-1-1-1ZM28.59 21c.55 0 1-.45 1-1s-.45-1-1-1h-9.58v9.21c0 .55.45 1 1 1s1-.45 1-1v-5.79l9.56 9.56 1.42-1.42L22.43 21z"/>
</svg>
