<svg viewBox="0 0 64 64" xmlns="http://www.w3.org/2000/svg">
  <path fill="#1e1e1c" d="M63.99 0v18.87c0 .76-.62 1.38-1.38 1.38s-1.38-.62-1.38-1.38V4.7L41.54 24.38l-1.95-1.95 19.7-19.68H45.11c-.76 0-1.38-.62-1.38-1.38s.62-1.38 1.38-1.38h18.87ZM18.88 2.79a1.374 1.374 0 1 0 0-2.75H0v18.87c0 .76.62 1.38 1.38 1.38s1.38-.62 1.38-1.38V4.73l19.69 19.68 1.95-1.95L4.7 2.79zM62.61 44.5c-.76 0-1.38.62-1.38 1.38V59.3L41.54 39.62l-1.95 1.95 19.69 19.68H45.1c-.76 0-1.38.62-1.38 1.38s.62 1.38 1.38 1.38h18.87V45.89c0-.76-.62-1.38-1.38-1.38Zm-40.19-4.88L2.74 59.3V45.12c0-.76-.62-1.38-1.38-1.38s-1.37.63-1.37 1.39V64h18.87c.76 0 1.38-.62 1.38-1.38s-.62-1.38-1.38-1.38H4.68l19.69-19.68-1.95-1.95Z"/>
</svg>
