<svg viewBox="0 0 24 24" xmlns="http://www.w3.org/2000/svg">
  <path d="M17.77 6.76c1.87 0 3.38-1.52 3.38-3.38S19.64 0 17.77 0s-3.38 1.52-3.38 3.38 1.52 3.38 3.38 3.38m0-5.01a1.63 1.63 0 1 1 0 3.26 1.63 1.63 0 0 1 0-3.26m2.43 6.17h-4.85c-2.1 0-3.8 1.7-3.8 3.8v2.43h-1.54V12.5c0-.42-.15-.81-.38-1.12L8.35 5.23H1.66L.38 11.37c-.24.31-.38.7-.38 1.12v3.4h4.94v8.1h1.75v-8.1h7.04l.74 8.11h6.48l.74-8.11h2.33v-4.17c0-2.09-1.71-3.8-3.8-3.8ZM6.91 6.97l.76 3.65H2.32l.76-3.65zm-5.16 5.52c0-.07.05-.12.12-.12h6.26c.07 0 .12.06.12.12v1.65h-6.5zm20.49 1.65h-2.18l-.74 8.11h-3.28l-.74-8.11h-2.02v-2.42c0-1.13.92-2.05 2.05-2.05h4.85c1.13 0 2.05.92 2.05 2.05v2.42Z"/>
</svg>
