<svg viewBox="0 0 40 40" xmlns="http://www.w3.org/2000/svg">
  <path d="M29.97 10.6c2.92 0 5.3-2.38 5.3-5.3S32.89 0 29.97 0s-5.3 2.38-5.3 5.3 2.38 5.3 5.3 5.3m0-8.35c1.68 0 3.05 1.37 3.05 3.05s-1.37 3.05-3.05 3.05-3.05-1.37-3.05-3.05 1.37-3.05 3.05-3.05m4.04 10.33h-8.08c-3.31 0-6 2.69-6 5.99v5.65H18.1v-3.27c0-.65-.25-1.24-.64-1.7l-2.07-9.93H2.72L.65 19.25c-.39.46-.64 1.05-.64 1.7v5.52h8.57v13.54h2.25V26.47h12.7l1.23 13.52h10.18l1.23-13.52h3.85v-7.9c0-3.31-2.69-5.99-6-5.99ZM2.26 20.95c0-.21.17-.37.37-.37h12.86c.2 0 .37.17.37.37v3.25H2.26zm11.31-9.38 1.41 6.75H3.14l1.41-6.75zm24.19 12.65h-3.65l-1.23 13.52h-6.07l-1.23-13.52h-3.4v-5.65a3.75 3.75 0 0 1 3.75-3.74h8.08a3.75 3.75 0 0 1 3.75 3.74zm-29.64-2.9h2.25v2.25H8.12z"/>
</svg>
