<svg viewBox="0 0 32 32" xmlns="http://www.w3.org/2000/svg">
  <path d="M16.17 17.51v-4.35H9.75v-3c0-2.21 1.79-4 4-4h14.43l-2.46 2.46a.996.996 0 0 0 .71 1.7c.26 0 .51-.1.71-.29l4.87-4.88L27.13.29a.996.996 0 1 0-1.41 1.41l2.46 2.46H13.75c-3.31 0-6 2.69-6 6v3H0V25.9h14.16v6.09h12.6l5.23-5.22V14.1H20.32l-4.16 3.4Zm-2.01 4.66-2.64-2.64 2.64-2.83zm-5.37-2.63c-.19.21-.44.32-.7.32s-.51-.11-.7-.32l-4.08-4.38h9.57L8.8 19.54Zm-4.15-.01L2 22.17v-5.48l2.64 2.83Zm1.38 1.46c.56.56 1.29.87 2.07.87s1.5-.31 2.07-.87l2.91 2.91H3.11zm18.73 9h-8.59V21.4h8.59zm2-.81v-8.37l3.24-3.28v8.41zm1.85-13.07-3.26 3.29h-8.37l4.07-3.29zm-4.54 10.88v-4.81h-5.53v4.81zm-3.54-2.8h1.54v.8h-1.54z"/>
</svg>
