<svg viewBox="0 0 48 48" xmlns="http://www.w3.org/2000/svg">
  <path d="m14.19 30.57 5.95 5.95H1.27l5.95-5.95.16.17c.88.95 2.07 1.47 3.33 1.47s2.44-.52 3.33-1.47l.16-.17ZM.02 22.85v11.38l5.49-5.49zm21.37 11.39V22.86l-5.49 5.89zm-12.18-5.2c.81.87 2.19.87 3 0l7.56-8.11h-8.02v-5.86c0-3.47 2.82-6.29 6.29-6.29h25.18l-4.15 4.15a1.25 1.25 0 0 0 0 1.77c.24.24.56.37.88.37s.64-.12.88-.37L48 7.53 40.84.36c-.49-.49-1.28-.49-1.77 0s-.49 1.28 0 1.77l4.15 4.15H18.04c-4.85 0-8.79 3.95-8.79 8.8v5.86h-7.6l7.56 8.11Zm23.14-5.3-7.93 6.42h15.5l6.35-6.42H32.34Zm-.7 15.58h3.18v-1.66h-3.18zm10.04-7.4v15.22l6.33-6.22V25.53zm-17.83.74h15.33V48H23.86zm5.29 9.16h8.18v-6.66h-8.18z"/>
</svg>
