<svg viewBox="0 0 40 40" xmlns="http://www.w3.org/2000/svg">
  <path d="m13.32 23.88 4.39-4.71v9.11zm-1.61 1.73c-.75.81-1.76 1.25-2.84 1.25s-2.09-.45-2.84-1.26l-.08-.08-4.77 4.77h15.38l-4.77-4.77-.08.08Zm-4.04-1.53c.65.7 1.74.69 2.39 0l6.19-6.64h-6.16v-4.85c0-2.83 2.3-5.13 5.13-5.13H35.7l-3.29 3.29a1.123 1.123 0 0 0 .8 1.92c.29 0 .58-.11.8-.33l6-6.01L34 .32c-.44-.44-1.15-.44-1.59 0s-.44 1.15 0 1.59L35.7 5.2H15.22c-4.07 0-7.38 3.31-7.38 7.38v4.85H1.48l6.19 6.64ZM.02 19.17v9.11l4.39-4.4zm26.98.66-6.45 5.22h12.73l5.17-5.22zm7.87 6.81v12.53l5.15-5.06V21.45l-5.15 5.2Zm-8.73 6.21h2.85v-1.5h-2.85zm-6.2-5.55h12.68v12.69H19.94zm3.95 7.8h7.36v-6h-7.36z"/>
</svg>
