<svg viewBox="0 0 16 16" xmlns="http://www.w3.org/2000/svg">
  <path d="M10.1 7 8.51 8.29V6.96h-3.5V5.34c0-.96.79-1.75 1.75-1.75h6.37l-.8.8c-.29.29-.29.77 0 1.06.15.15.34.22.53.22s.38-.07.53-.22L16 2.84 13.38.23c-.29-.29-.77-.29-1.06 0s-.29.77 0 1.06l.8.8H6.75c-1.79 0-3.25 1.46-3.25 3.24v1.62H0v6.8h7.01V16h6.52L16 13.36V7zm.53 1.49h2.82l-1 1H9.38l1.24-1ZM7 9.6v1.44l-.69-.69.69-.74Zm-2.59.58c-.12.12-.2.13-.32 0L2.47 8.45h3.56zm-2.22.17-.7.69V9.6l.7.74Zm1.05 1.07c.29.22.64.34 1.01.34s.72-.12 1.01-.34l.83.83H2.4l.83-.83Zm8.77 3.08H8.5V11h3.51v3.51Zm1.5-.68v-3.27l.98-.99v3.2l-.98 1.05Zm-3.7-.64v-1.77h1.77v1.77z"/>
</svg>
