<svg viewBox="0 0 40 40" xmlns="http://www.w3.org/2000/svg">
  <path d="M20.09 22.22v-5.76h-8.78v-3.87c0-2.83 2.3-5.13 5.13-5.13H35.7l-3.29 3.29a1.123 1.123 0 0 0 .8 1.92c.29 0 .58-.11.8-.33l6-6L34 .33c-.44-.44-1.15-.44-1.59 0s-.44 1.15 0 1.59l3.29 3.29H16.44c-4.07 0-7.38 3.31-7.38 7.38v3.87H0v15.77h17.82V40H33.4l6.59-6.48V17.76h-14.5zm-2.27 5.75-3.62-3.62 3.65-3.91-.02 7.53Zm-6.8-3.53c-.53.57-1.43.57-1.96 0L3.71 18.7h12.66zm-5.13-.09L2.24 28v-7.56zm1.54 1.64c.69.74 1.62 1.14 2.61 1.14s1.91-.41 2.61-1.14l3.98 3.98H3.45zm23.71 11.76H20.06l.02-11.08h11.05v11.08Zm2.25-.9V26.01l4.35-4.39v10.95l-4.35 4.27Zm2.78-16.84-4.37 4.41H20.83l5.45-4.41h9.88Zm-5.85 13.11v-5.6h-6.81v5.6zm-4.55-3.34h2.31v1.09h-2.31z"/>
</svg>
