<svg viewBox="0 0 48 48" xmlns="http://www.w3.org/2000/svg">
  <path d="m30.68 21.43-6.66 5.27v-6.84H13.44v-4.77c0-3.46 2.82-6.28 6.29-6.28h23.48l-4.15 4.14a1.25 1.25 0 0 0 0 1.77c.24.24.56.37.88.37s.64-.12.88-.37l7.16-7.16L40.82.4c-.49-.49-1.28-.49-1.77 0s-.49 1.28 0 1.77l4.15 4.14H19.72c-4.84 0-8.79 3.94-8.79 8.78v4.77H.02v18.78H21.5v9.37h18.56v-.02l.04.04 7.92-7.77V21.43zm.89 2.49h12.21l-5.48 5.53H24.73zM21.5 33.88l-4.63-4.62 4.65-4.99-.03 9.61Zm-8.21-4.44c-.68.73-1.84.73-2.52 0l-6.62-7.09h15.76zm-6.12-.18-4.65 4.65v-9.64zm1.71 1.83.06.06c.82.88 1.92 1.36 3.09 1.36s2.27-.48 3.09-1.36l.06-.06 5.06 5.06H3.82zm28.69 14.42H24l.03-13.56h13.54zm2.49-.94V31.22l5.46-5.51v13.5zm-3.41-5.22v-6.24h-7.62v6.24zm-5.12-3.74h2.62v1.24h-2.62z"/>
</svg>
