<svg viewBox="0 0 16 16" xmlns="http://www.w3.org/2000/svg">
  <path d="M1.07 6.96H3.5V5.34c0-1.79 1.46-3.25 3.25-3.25h6.39l-.8-.8c-.29-.29-.29-.77 0-1.06s.77-.29 1.06 0l2.61 2.61-2.61 2.61c-.15.15-.34.22-.53.22s-.38-.07-.53-.22a.754.754 0 0 1 0-1.06l.8-.8H6.75C5.79 3.59 5 4.38 5 5.34v1.62h2.49l-3.08 3.23c-.12.13-.2.12-.32 0zM0 8v4.68l2.21-2.31zm8.5 5.76v-.05l-.05.05zm-8.5 0h.02L0 13.74zm4.25-1.99c-.36 0-.71-.11-1-.32l-2.22 2.32h6.02v-.4l-1.81-1.92c-.29.21-.63.32-.99.32m2.81-.59V10l1.45-1.21v-.72l-2.2 2.31.76.8ZM11.2 8.5 9.39 10h4.09l1.49-1.5zm-2.64 3h4.5V16h-4.5zm1.86 2.62h1.82V12.3h-1.82zm4.13-3.06v4.28l1.47-1.52V9.57z"/>
</svg>
