<svg viewBox="0 0 48 48" xmlns="http://www.w3.org/2000/svg">
  <path d="M42.33 22.11H28.85v19.42L.02 41.29 0 43.79l28.85.24v.03h.47c.94 2.31 3.19 3.94 5.82 3.94s4.88-1.63 5.82-3.94h3.47c1.95 0 3.53-1.57 3.53-3.5V27.67c0-3.06-2.53-5.56-5.64-5.56Zm-.07 2.5c.86 0 1.67.34 2.28.95.61.62.95 1.45.94 2.34v2.76h-5.46l-.05-.05v-6h2.3ZM35.15 45.5c-2.09 0-3.79-1.72-3.79-3.83s1.7-3.83 3.79-3.83 3.79 1.72 3.79 3.83-1.7 3.83-3.79 3.83m10.32-4.94c0 .54-.47 1-1.04 1h-3c-.06-3.44-2.85-6.22-6.29-6.22-1.43 0-2.74.48-3.79 1.29V24.61h6.11v6c0 1.41 1.14 2.55 2.55 2.55h5.46v7.39Zm-45.5-2.13h17.08l7.19-7.68V14.98H8.34l-8.37 7.28v16.16Zm14.56-2.51H2.47V24.76h12.06zm2.5-1.13V24.03l4.71-4.76v10.49zM9.28 17.48H20l-4.74 4.79H3.78zm-3.41-5.4L.02 6.22 5.87.37c.49-.49 1.28-.49 1.77 0s.49 1.28 0 1.77L4.81 4.98h32.24c3.45 0 6.25 2.81 6.25 6.25s-2.8 6.26-6.25 6.26h-8.53v-2.5h8.53c2.07 0 3.75-1.68 3.75-3.75s-1.68-3.75-3.75-3.75H4.8l2.83 2.84c.49.49.49 1.28 0 1.77-.24.24-.56.37-.88.37s-.64-.12-.88-.37Zm6.66 17.09h-2.52v-2.5h2.52z"/>
</svg>
