<svg viewBox="0 0 64 64" xmlns="http://www.w3.org/2000/svg">
  <path d="M61.87 32.28a7.28 7.28 0 0 0-5.2-2.18H39.08v22.33c1.65-2.81 4.68-4.7 8.15-4.7 5.22 0 9.46 4.27 9.46 9.51 0 .52-.05 1.03-.13 1.53h3.02c2.44 0 4.42-1.96 4.42-4.37V37.55c.02-1.99-.73-3.86-2.13-5.28Zm-.38 12.16h-8.95c-.96 0-1.74-.78-1.74-1.74v-9.67h4.84c3.17 0 5.85 2.57 5.85 5.74v5.66Zm-23.72 12.8c0 .51.05 1 .13 1.48L0 58.41l.02-2.75 37.84.32c-.06.42-.09.84-.09 1.27Zm16.17 0c0 3.73-3.01 6.76-6.71 6.76s-6.71-3.03-6.71-6.76 3.01-6.76 6.71-6.76 6.71 3.03 6.71 6.76m.32-42.57c0-2.92-2.37-5.29-5.29-5.29H5.26l4.28 4.28a1.376 1.376 0 0 1-1.94 1.95L0 8.01 7.6.41c.54-.54 1.41-.54 1.95 0s.54 1.41 0 1.95L5.27 6.64h43.7c4.43 0 8.04 3.61 8.04 8.04s-3.61 8.05-8.04 8.05h-9.96v-2.75h9.96c2.92 0 5.29-2.37 5.29-5.29ZM0 53.02h21.89V32.67H0zm13.89-15.65h3.49v2.75h-3.49zM12 20.34h20.19l-9.48 9.58H1.18l10.81-9.58Zm12.65 31.67V31.86l9.46-9.55v19.83l-9.46 9.88Z"/>
</svg>
