<svg viewBox="0 0 16 16" xmlns="http://www.w3.org/2000/svg">
  <path d="M15.6 7.71c-.05-.08-.12-.15-.18-.22-.03-.03-.04-.06-.07-.09-.4-.41-.95-.66-1.56-.66H8.96v6.46H0v1.5h9.61c.41.77 1.21 1.31 2.14 1.31s1.73-.54 2.14-1.31h.58c.82 0 1.49-.67 1.49-1.5l.02-4.2c0-.47-.14-.92-.4-1.3Zm-1.84.52c.2 0 .38.08.52.22.01.01.02.03.03.05.04.05.08.1.1.16.03.08.05.17.05.26v.66h-1.14V8.23h.43Zm-2 6.28c-.51 0-.93-.42-.93-.94s.42-.94.93-.94.93.42.93.94-.42.94-.93.94m2.72-1.31h-.32c-.18-1.17-1.18-2.07-2.39-2.07-.48 0-.93.15-1.31.39V8.23h1.37v1.66c0 .65.53 1.18 1.18 1.18h1.48v2.13Zm-8.72-.56 2.11-2.48V5.05H2.71L0 7.17v5.48h5.75Zm0-2.31V8.24l.61-.61v1.99zM3.23 6.55h2.08l-.62.63H2.43zm1.03 4.61H1.5V8.68h2.75v2.48ZM2.18 4.6 0 2.41 2.18.23c.3-.29.77-.29 1.06 0s.29.77 0 1.06l-.38.37h9.65c1.24 0 2.25 1.01 2.25 2.25s-1.01 2.25-2.25 2.25H9.03v-1.5h3.48c.41 0 .75-.34.75-.75s-.34-.75-.75-.75H2.87l.38.38c.29.29.29.77 0 1.06-.15.15-.34.22-.53.22s-.38-.07-.53-.22Z"/>
</svg>
