<svg viewBox="0 0 48 48" xmlns="http://www.w3.org/2000/svg">
  <path d="M27.74 41.52c-.08.45-.13.92-.13 1.39 0 .38.04.74.09 1.11l-27.71-.23.02-2.5zm20.25-13.6v12.64c0 1.93-1.59 3.5-3.54 3.5h-1.84c.06-.37.1-.76.1-1.15 0-4.19-3.39-7.59-7.55-7.59-2.63 0-4.94 1.36-6.3 3.41V22.11h13.41c1.53 0 2.98.6 4.06 1.7a5.7 5.7 0 0 1 1.66 4.11m-1.93.92c0-2.38-2.01-4.31-4.39-4.31h-3.63v7.25c0 .72.59 1.3 1.3 1.3h6.72v-4.25Zm-10.91 8.98c-2.78 0-5.05 2.28-5.05 5.09S32.37 48 35.15 48s5.05-2.28 5.05-5.09-2.27-5.09-5.05-5.09m1.9-22.84h-8.53v2.5h8.53c3.45 0 6.25-2.81 6.25-6.25s-2.8-6.25-6.25-6.25H4.79l2.84-2.84c.49-.49.49-1.28 0-1.77s-1.28-.49-1.77 0L0 6.22l5.85 5.85c.24.24.56.37.88.37s.64-.12.88-.37c.49-.49.49-1.28 0-1.77L4.77 7.46h32.26c2.07 0 3.75 1.68 3.75 3.75s-1.68 3.75-3.75 3.75ZM1.17 21.73h15.06l6.41-6.48H8.62zM.05 24.24H15.5v14.33H.05zm9.59 5.43h3.1v-2.5h-3.1zm14.75 1.12V17.04L18 23.49V37.6l6.39-6.82Z"/>
</svg>
