<svg viewBox="0 0 32 32" xmlns="http://www.w3.org/2000/svg">
  <path d="M30.84 15.59a3.93 3.93 0 0 0-2.82-1.18h-9.11V25.5c.97-1.37 2.56-2.28 4.36-2.28 2.96 0 5.37 2.42 5.37 5.39 0 .26-.04.5-.08.75h.91c1.39 0 2.52-1.12 2.52-2.5v-8.42a3.98 3.98 0 0 0-1.16-2.86Zm-.29 5.97h-4.48a.87.87 0 0 1-.87-.87v-4.83h2.42c1.59 0 2.93 1.28 2.93 2.87zm-12.47 5.79c-.1.41-.17.83-.17 1.27 0 .25.04.49.07.73H0v-2zm8.57 1.27c0 1.87-1.51 3.39-3.37 3.39s-3.37-1.52-3.37-3.39 1.51-3.39 3.37-3.39 3.37 1.52 3.37 3.39m.38-21.05c0-1.24-1.01-2.25-2.25-2.25H3.84l1.61 1.61a.996.996 0 0 1-.71 1.7c-.26 0-.51-.1-.71-.29L0 4.32 4.03.3a.996.996 0 1 1 1.41 1.41L3.83 3.32h20.94c2.35 0 4.25 1.91 4.25 4.25s-1.91 4.25-4.25 4.25h-5.96v-2h5.96c1.24 0 2.25-1.01 2.25-2.25ZM5.58 10.21h8.77l-3.89 3.92H.97l4.6-3.92Zm6.3 14.22v-8.88l3.87-3.9v8.58l-3.87 4.21Zm-11.84.8h9.85v-9.1H.04zm5.32-7.12h2.47v2H5.36z"/>
</svg>
