<svg viewBox="0 0 16 16" xmlns="http://www.w3.org/2000/svg">
  <path d="M8.82 13.2c-.13.35-.21.73-.21 1.13 0 .13.02.25.04.37H.06v-1.5zm7.2-4.19L16 13.22c0 .72-.5 1.31-1.17 1.46.01-.11.03-.23.03-.34 0-1.75-1.41-3.17-3.14-3.17-1.16 0-2.17.65-2.71 1.61V6.74h4.77c.6 0 1.16.24 1.58.66.42.43.65 1 .65 1.61Zm-.87.3c0-.79-.64-1.44-1.43-1.44h-1.2v2.42c0 .24.19.43.43.43h2.2V9.3Zm-3.41 3.35c-.91 0-1.65.75-1.65 1.67S10.83 16 11.74 16s1.65-.75 1.65-1.67-.74-1.67-1.65-1.67M2.27 5.71.82 6.85h3.39l1.12-1.14zm1.51 2.64H.02v3.44h3.75V8.35Zm2.59-1.57L5.26 7.9v3.17l1.11-1.31zM2.75 4.81c.19 0 .38-.07.53-.22.29-.29.29-.77 0-1.06l-.37-.38h9.55c.43 0 .77.35.77.78s-.35.78-.77.78H9.03v1.5h3.43c1.25 0 2.26-1.02 2.26-2.28s-1.02-2.28-2.26-2.28H2.91l.37-.38c.29-.29.29-.77 0-1.06s-.76-.28-1.05.01L.05 2.41 2.22 4.6c.15.15.34.22.53.22Z"/>
</svg>
