<svg viewBox="0 0 40 40" xmlns="http://www.w3.org/2000/svg">
  <path d="M35.13 18.13H23.78v16.23H-.05v2.26h23.82v.02h.42c.81 1.93 2.71 3.29 4.92 3.29s4.11-1.36 4.92-3.29h2.84c1.68 0 3.04-1.35 3.04-3.01V22.85c0-2.61-2.15-4.73-4.8-4.73Zm-.07 2.26c.7 0 1.35.27 1.84.77.5.5.77 1.17.76 1.9v2.22h-4.44v-4.89zm-5.94 17.29c-1.7 0-3.09-1.4-3.09-3.12s1.39-3.12 3.09-3.12 3.09 1.4 3.09 3.12-1.38 3.12-3.09 3.12m8.55-4.04c0 .4-.37.75-.78.75h-2.44c-.09-2.88-2.44-5.2-5.33-5.2-1.15 0-2.21.38-3.09 1v-9.8h4.94v4.93c0 1.22.99 2.22 2.22 2.22h4.48zM-.05 18.43v13.6h14.34l.05.03 5.94-6.47V12.38H6.97l-7.05 6.01zm12.09 11.33H2.21v-9.08h9.83zm2.26-.99v-8.75l3.73-3.77v8.46zM7.8 14.63h8.65l-3.75 3.79H3.35l4.44-3.79Zm-2.9-4.45L-.04 5.22 4.9.27c.44-.44 1.16-.44 1.6 0s.44 1.16 0 1.6L4.27 4.1h26.67c2.9 0 5.27 2.37 5.27 5.27s-2.36 5.27-5.27 5.27h-7.17v-2.26h7.17c1.66 0 3.01-1.35 3.01-3.01s-1.35-3.01-3.01-3.01H4.27L6.5 8.59c.44.44.44 1.16 0 1.6-.22.22-.51.33-.8.33s-.58-.11-.8-.33Zm5.02 14.57H7.66v-2.26h2.26z"/>
</svg>
