<svg viewBox="0 0 64 64" xmlns="http://www.w3.org/2000/svg">
  <path d="m9.57 51.49-5.39 4.82a2.515 2.515 0 0 1-3.54-.19 2.5 2.5 0 0 1 .2-3.53l5.39-4.82a2.5 2.5 0 1 1 3.33 3.73Zm2.62 2.21-6.43 5.96a2.497 2.497 0 0 0-.13 3.53c.49.53 1.16.8 1.84.8.61 0 1.22-.22 1.7-.67l6.43-5.96c1.01-.94 1.07-2.52.13-3.53a2.51 2.51 0 0 0-3.54-.13m43.4-27.79L48.6 32.9c.07.23.11.47.11.72v10.09c0 2.58-1 5.01-2.83 6.83L33.61 62.81c-.48.48-1.12.73-1.77.73-.32 0-.65-.06-.96-.19-.93-.39-1.54-1.3-1.54-2.31V49.2l-3.72 3.46c-1.68 1.46-3.02 1.9-4.04 1.9-1.16 0-1.89-.58-2.18-.88l-9.1-9.09c-.55-.55-2.1-2.62.97-6.15l3.03-3.26H2.84c-1.01 0-1.92-.61-2.31-1.54s-.17-2.01.54-2.73l12.27-12.27a9.6 9.6 0 0 1 6.83-2.83h10.1c.12 0 .25 0 .37.03l7.44-7.44C48.47-1.98 62.06.14 62.63.24l.97.16.16.97c.1.57 2.22 14.16-8.17 24.54m-40.72 4.27 9.37-9.36h-4.06c-1.24 0-2.41.48-3.29 1.36l-8 8h5.99Zm11.4 15.05-7.51-7.51-3.77 4.05c-.07.08-.13.16-.19.24l7.18 7.18c.09-.07.19-.15.3-.25zm7.85-.85 3.54-3.54-14.11-14.11-3.54 3.54zm9.59-4.73-9.37 9.36V55l8-8c.88-.88 1.36-2.05 1.36-3.29v-4.06Zm7.55-27.21c-.98-.98-2.26-1.46-3.54-1.46s-2.56.49-3.54 1.46a5.003 5.003 0 0 0 0 7.07c.98.98 2.26 1.46 3.54 1.46s2.56-.49 3.54-1.46a5.003 5.003 0 0 0 0-7.07"/>
</svg>
