<svg viewBox="0 0 64 64" xmlns="http://www.w3.org/2000/svg">
  <path d="M47.71 9.71a6.259 6.259 0 1 0 0 12.52 6.259 6.259 0 1 0 0-12.52m2.49 8.75a3.505 3.505 0 0 1-4.96 0 3.505 3.505 0 0 1 0-4.96 3.505 3.505 0 0 1 4.96 0 3.505 3.505 0 0 1 0 4.96M63.75 1.37 63.59.4l-.97-.16C62.05.15 48.46-1.98 38.08 8.4l-8.53 8.53h-9.36c-2.28 0-4.42.89-6.03 2.5L1.88 31.71a1.375 1.375 0 0 0 .97 2.35h12.24l.93.93-3.9 4.19c-1.64 1.89-2.02 3.62-1.02 4.62l9.1 9.1c.37.37.83.55 1.37.55.93 0 2.07-.54 3.29-1.6l4.16-3.87 1.45 1.45v11.62c0 .56.34 1.06.85 1.27.17.07.35.1.53.1.36 0 .71-.14.97-.4l12.27-12.27a8.47 8.47 0 0 0 2.5-6.03v-9.79l8.01-8.01c10.37-10.39 8.25-23.97 8.15-24.55M31.27 46.34 17.73 32.8l5.28-5.28 13.54 13.54zM16.09 21.38a5.74 5.74 0 0 1 4.09-1.69h6.61L15.18 31.3H6.17zm6.93 28.41c-.54.47-.96.71-1.21.82l-8.42-8.42c.12-.26.36-.69.78-1.17l3.8-4.08 9.1 9.1-4.05 3.77Zm21.81-6.08c0 1.54-.6 2.99-1.69 4.09l-9.92 9.92v-9.17l11.61-11.61zm-6.34-4.6L24.95 25.57l6.29-6.29c.13-.13.22-.28.28-.44l8.49-8.49c7.81-7.81 17.91-7.75 21.12-7.51.25 3.21.3 13.31-7.51 21.12L38.48 39.1ZM9.98 49.63 2.29 56.5c-.26.23-.59.35-.92.35-.38 0-.75-.16-1.03-.46-.51-.57-.46-1.44.11-1.94l7.69-6.87c.56-.51 1.44-.46 1.94.11s.46 1.44-.11 1.94Zm3.8 6.1c.52.56.48 1.43-.07 1.94l-6.43 5.96c-.26.25-.6.37-.93.37a1.374 1.374 0 0 1-.94-2.38l6.43-5.96c.56-.52 1.43-.49 1.94.07"/>
</svg>
