<svg viewBox="0 0 24 24" xmlns="http://www.w3.org/2000/svg">
  <path d="M18.95 4.94c.68.68.68 1.79 0 2.48-.34.34-.79.51-1.24.51s-.9-.17-1.24-.51c-.68-.68-.68-1.79 0-2.48.34-.34.79-.51 1.24-.51s.9.17 1.24.51m1.88 5.11-2.8 2.8v3.4c0 .92-.37 1.81-1.02 2.46l-4.46 4.46a.87.87 0 0 1-.62.26c-.11 0-.23-.02-.33-.07a.88.88 0 0 1-.54-.81v-4.07l-.16-.16-1.25 1.16c-.6.52-1.08.68-1.44.68-.41 0-.67-.2-.77-.31l-3.3-3.31c-.19-.2-.74-.93.35-2.19l1.15-1.24H1.41c-.35 0-.67-.21-.81-.54-.13-.33-.06-.7.19-.95l4.46-4.46c.66-.66 1.53-1.02 2.46-1.02h3.25l2.99-2.99c3.9-3.9 9.02-3.1 9.24-3.06l.62.1.1.62c.04.22.84 5.34-3.07 9.25Zm-7.71 5.24L8.73 10.9l-1.39 1.39 4.39 4.39zm-9.6-3.92h2.21L9.2 7.9H7.7c-.46 0-.89.18-1.22.51zm6.15 5.72-2.76-2.76-1.11 1.2s-.06.08-.09.11l2.65 2.65s.09-.07.13-.11zm6.61-2.39-3.47 3.47v2.27l2.96-2.97c.32-.32.51-.76.51-1.22v-1.56Zm3.32-5.88c2.5-2.5 2.69-5.69 2.64-7.06-1.35-.05-4.55.14-7.05 2.64l-3.03 3.03c-.04.08-.09.15-.16.21L9.98 9.66l4.39 4.39 5.24-5.24ZM3.93 17.8a.87.87 0 0 0-1.23-.07L.29 19.88c-.36.32-.39.87-.07 1.24a.874.874 0 0 0 1.23.07l2.41-2.15c.36-.32.39-.87.07-1.24m.14 2.94-1.94 1.73a.874.874 0 1 0 1.16 1.31l1.94-1.73c.36-.32.39-.88.07-1.24a.87.87 0 0 0-1.23-.07"/>
</svg>
