<svg viewBox="0 0 24 24" xmlns="http://www.w3.org/2000/svg">
  <path d="M2.49 21.1c-.29.25-.64.38-1 .38a1.502 1.502 0 0 1-1-2.62l1.42-1.26a1.502 1.502 0 0 1 2 2.24zm.81-.51-.88.79a1.502 1.502 0 0 0 1 2.62c.35 0 .71-.13 1-.38l.88-.79a1.502 1.502 0 0 0-2-2.24m17.53-10.54-2.14 2.14c.02.1.05.21.05.31v3.67c0 1.1-.43 2.13-1.2 2.9l-4.46 4.46c-.29.29-.67.44-1.06.44-.19 0-.39-.04-.57-.11-.56-.23-.93-.78-.93-1.39v-2.96l-.12.11c-.71.61-1.35.85-1.88.85-.5 0-.91-.2-1.2-.49l-3.3-3.31c-.6-.6-.82-1.7.3-3.01H1.49c-.61 0-1.15-.37-1.39-.93S0 11.52.43 11.1l4.46-4.46c.77-.77 1.8-1.2 2.9-1.2h3.67c.06 0 .12.02.18.03l2.31-2.31C17.85-.75 22.97.05 23.18.09l.62.1.1.62c.04.22.84 5.34-3.07 9.25ZM9.21 16.63l-1.85-1.85-.48.52 1.81 1.81zm5.41-1.99L9.35 9.37l-2.12 2.12 5.27 5.27zm5.65-8.47a2.56 2.56 0 1 0-4.37 1.81c.5.5 1.15.75 1.81.75s1.31-.25 1.81-.75c.48-.48.75-1.13.75-1.81"/>
</svg>
