<svg viewBox="0 0 48 48" xmlns="http://www.w3.org/2000/svg">
  <path d="M35.67 7.45c-1.19 0-2.38.45-3.29 1.36a4.647 4.647 0 0 0 0 6.58c.91.91 2.1 1.36 3.29 1.36s2.38-.45 3.29-1.36a4.647 4.647 0 0 0 0-6.58c-.91-.91-2.1-1.36-3.29-1.36m1.53 6.18c-.41.41-.95.63-1.52.63s-1.12-.22-1.52-.63c-.41-.41-.63-.95-.63-1.52s.22-1.12.63-1.52.95-.63 1.52-.63 1.12.22 1.52.63c.41.41.63.95.63 1.52s-.22 1.12-.63 1.52M47.81 1.22l-.15-.88-.88-.15c-.43-.07-10.63-1.67-18.43 6.13l-6.27 6.27h-6.86c-1.75 0-3.4.68-4.64 1.92l-9.12 9.12c-.36.36-.46.9-.27 1.36.19.47.65.77 1.15.77h9l.46.46-2.75 2.96c-1.31 1.5-1.59 2.9-.75 3.74l6.76 6.75c.32.32.72.48 1.17.48.75 0 1.65-.42 2.6-1.25l2.93-2.72.86.86v8.54a1.23 1.23 0 0 0 1.25 1.24c.33 0 .64-.13.88-.37l9.11-9.11a6.52 6.52 0 0 0 1.92-4.64v-7.18l5.88-5.88c7.8-7.8 6.2-18 6.13-18.43ZM23.46 34.34l-9.73-9.73 3.6-3.6 9.73 9.73zM12.34 16.28c.77-.77 1.79-1.19 2.88-1.19h4.36l-8.17 8.17H5.36zm4.84 20.77c-.29.25-.53.41-.7.5l-6.03-6.03c.09-.17.24-.4.47-.67l2.66-2.86L20 34.41l-2.83 2.63Zm16.12-4.34c0 1.09-.42 2.11-1.19 2.88l-6.98 6.98V36.4l8.17-8.17zm-4.48-3.74-9.73-9.73 4.51-4.51c.11-.11.18-.23.24-.36l6.28-6.28C35.71 2.5 42.9 2.41 45.44 2.57c.16 2.54.06 9.73-5.52 15.32L28.83 28.98Zm-21.03 8.3-5.72 5.11c-.24.21-.54.32-.83.32-.34 0-.69-.14-.93-.42-.46-.51-.42-1.3.1-1.76l5.72-5.11c.51-.46 1.3-.42 1.76.1.46.51.42 1.3-.1 1.76m2.84 4.21c.47.51.44 1.3-.07 1.77l-4.78 4.43c-.24.22-.54.33-.85.33a1.25 1.25 0 0 1-.85-2.17l4.78-4.43c.5-.47 1.29-.44 1.77.07"/>
</svg>
