<svg viewBox="0 0 16 16" xmlns="http://www.w3.org/2000/svg">
  <path d="M12.6 5.09c-.24.24-.56.37-.88.37s-.64-.12-.88-.37a1.25 1.25 0 0 1 0-1.77c.24-.24.56-.37.88-.37s.64.12.88.37c.49.49.49 1.28 0 1.77m1.28 1.77-1.77 1.77v2.14c0 .65-.25 1.27-.72 1.73l-2.9 2.91c-.14.14-.34.22-.53.22a.753.753 0 0 1-.75-.75v-2.44l-.61.57c-.41.36-.77.49-1.07.49-.26 0-.47-.1-.62-.25L2.76 11.1c-.32-.32-.43-.92.22-1.67l.47-.51H1.1a.74.74 0 0 1-.69-.46c-.12-.28-.05-.6.16-.82l2.9-2.91c.46-.46 1.08-.72 1.73-.72h2.04l1.9-1.9C11.75-.5 15.18.04 15.32.06l.53.09.09.53c.02.14.56 3.57-2.05 6.18Zm-5.4 3.29L5.87 7.54l-.65.65 2.61 2.61zM2.91 7.41h.93l1.9-1.9H5.2c-.25 0-.49.1-.67.28zm2.73 4.45.59-.54L4.7 9.79l-.54.59 1.49 1.49Zm4.97-1.66-1.9 1.9v.97l1.62-1.62c.18-.18.28-.42.28-.67zm2.21-4.4c1.51-1.51 1.69-3.37 1.68-4.3-.94.01-2.79.17-4.3 1.68L8.23 5.15c-.03.05-.06.1-.11.14L6.93 6.48l2.6 2.61zm-10 6.92c.31-.28.34-.75.06-1.06a.747.747 0 0 0-1.06-.06L.25 13c-.31.28-.34.75-.06 1.06.15.17.35.25.56.25.18 0 .36-.06.5-.19zm-.11.84-1.26 1.13c-.31.28-.34.75-.06 1.06.15.17.35.25.56.25.18 0 .36-.06.5-.19l1.26-1.13c.31-.28.34-.75.06-1.06a.747.747 0 0 0-1.06-.06"/>
</svg>
