<svg viewBox="0 0 24 24" xmlns="http://www.w3.org/2000/svg">
  <path d="m24 11.11-2.81 2.83-.04-.03h-.45l-.67 2.01h-2.17l.68-2.01h-3.17l-.68 2.01h-1.94l.68-2.01h-3.17l-.68 2.01H8.35l1.78-5.3V5.17H7.81c-1.71 0-3.22 1.09-3.76 2.71L.8 17.56h.01c-.5.67-.81 1.5-.81 2.4A4.04 4.04 0 0 0 4.03 24H24v-8.06h-.81l.81-2.42v-2.39ZM6.89 8.85c.13-.39.49-.65.89-.66l-2.6 7.73h-.67l2.38-7.08ZM4.35 21.1a1.14 1.14 0 1 1-.001-2.279A1.14 1.14 0 0 1 4.35 21.1m4.36 0a1.14 1.14 0 1 1-.001-2.279A1.14 1.14 0 0 1 8.71 21.1m4.35 0a1.14 1.14 0 1 1-.001-2.279 1.14 1.14 0 0 1 .001 2.279m4.36 0a1.14 1.14 0 1 1-.001-2.279 1.14 1.14 0 0 1 .001 2.279m4.36 0a1.14 1.14 0 1 1-.001-2.279 1.14 1.14 0 0 1 .001 2.279m-.63-16.98 2.84-2.87v7.37l-2.84 2.87zm-1.24-1.24h-7.14L16.16 0h6.61l-2.86 2.89Zm-.51 1.75h-7.52v7.53h7.52zm-1.24 3.64h-2.43V5.84h2.43z"/>
</svg>
