<svg viewBox="0 0 40 40" xmlns="http://www.w3.org/2000/svg">
  <path d="M39.99 23.21H37.5V2.25c0-1.24-1-2.25-2.25-2.25H4.65C3.41 0 2.4 1.01 2.4 2.25v20.96H-.01v2.25H2.4v9.44h3.28c-.04.23-.07.47-.07.72C5.61 38.04 7.57 40 10 40s4.39-1.96 4.39-4.38c0-.25-.03-.49-.07-.72h11.67c-.04.23-.07.47-.07.72 0 2.42 1.96 4.38 4.39 4.38s4.39-1.96 4.39-4.38c0-.25-.03-.49-.07-.72h2.9v-9.44h2.49v-2.25ZM4.65 15.7h6.03v4.09H4.65zm30.6-2.25h-6.03V9.36h6.03zm-8.28 0h-5.9V9.36h5.9zm-5.9-6.33V2.25h5.9v4.86h-5.9Zm-2.25 0h-5.9V2.25h5.9v4.86Zm0 2.25v4.09h-5.9V9.37zm-8.15 4.08H4.64V9.36h6.03zm2.25 2.25h5.9v4.09h-5.9zm8.15 0h5.9v4.09h-5.9zm8.15 0h6.03v4.09h-6.03zm6.03-8.58h-6.03V2.25h6.03v4.86ZM10.67 2.25v4.86H4.64V2.25zm1.46 33.37a2.14 2.14 0 0 1-4.28 0c0-.25.05-.5.13-.72h4.01c.08.22.13.47.13.72Zm20.3 0a2.14 2.14 0 0 1-4.28 0c0-.25.05-.5.13-.72h4.01c.08.22.13.47.13.72ZM4.65 32.65V22.04h30.6v10.61z"/>
</svg>
