<svg viewBox="0 0 40 40" xmlns="http://www.w3.org/2000/svg">
  <path d="M39.99 22.33H37.5V2.24C37.5 1 36.5 0 35.25 0H4.65C3.41 0 2.4 1 2.4 2.24v20.08H-.01v4H2.4v8.57h3.28c-.04.24-.07.47-.07.72 0 2.42 1.96 4.38 4.39 4.38s4.39-1.96 4.39-4.38c0-.25-.03-.48-.07-.72h11.66c-.04.24-.07.47-.07.72 0 2.42 1.96 4.38 4.39 4.38s4.39-1.96 4.39-4.38c0-.25-.03-.48-.07-.72h2.9v-8.57h2.49v-4Zm-16.85-8.86v5.45h-6.37v-5.45zm-6.37-4V3.99h6.37v5.47h-6.37Zm16.73 9.44h-6.36v-5.45h6.36zm-20.73 0H6.4v-5.45h6.37zM33.5 9.47h-6.36V3.99h6.36v5.47ZM12.77 3.99v5.47H6.4V3.99z"/>
</svg>
