<svg viewBox="0 0 16 16" xmlns="http://www.w3.org/2000/svg">
  <path d="M3.04 12.42c.41 0 .75.34.75.75s-.34.75-.75.75-.75-.34-.75-.75.34-.75.75-.75m2.12.75c0 .41.34.75.75.75s.75-.34.75-.75-.34-.75-.75-.75-.75.34-.75.75m2.87 0c0 .41.34.75.75.75s.75-.34.75-.75-.34-.75-.75-.75-.75.34-.75.75m2.88 0c0 .41.34.75.75.75s.75-.34.75-.75-.34-.75-.75-.75-.75.34-.75.75m2.87 0c0 .41.34.75.75.75s.75-.34.75-.75-.34-.75-.75-.75-.75.34-.75.75m1.48-2.83h.73v1.5H2.82c-.73 0-1.33.6-1.33 1.33s.6 1.33 1.33 1.33h13.17V16H2.82a2.825 2.825 0 0 1-2.36-4.37l2.13-6.34c.33-.97 1.23-1.62 2.26-1.62h1.63v-.99L9.76 0H16v8.17l-.72 2.17ZM8.84 2.68h3.43l1.17-1.18h-3.16L8.83 2.68Zm-5.41 7.66 1.74-5.17h-.33a.87.87 0 0 0-.83.6l-1.55 4.61c.12-.02.24-.04.37-.04h.61Zm3.64-.8h-.59V5.99l-1.46 4.34H6.8l.27-.8Zm.9-1.5h3.86V4.18H7.97zm2.46 1.5H8.65l-.27.8h1.78zm3.85-.99-.94 1h-1.32l-.27.8h1.94l.6-1.79Zm.21-5.98-1.16 1.17v3.63l1.16-1.22zM9.71 6.28h1.89V4.39H9.71z"/>
</svg>
