<svg viewBox="0 0 16 16" xmlns="http://www.w3.org/2000/svg">
  <path d="M14.09 8.47h-.99V1.49c0-.83-.67-1.5-1.5-1.5H4.42a1.5 1.5 0 0 0-1.51 1.5v6.98H1.9v2.5h1.01v2.98h1.31c-.02.09-.03.19-.03.29a1.734 1.734 0 0 0 1.4 1.71c.11.02.23.04.35.04s.24-.01.35-.04c.11-.02.22-.06.33-.1a1.7 1.7 0 0 0 .77-.64c.19-.28.3-.62.3-.98 0-.1-.01-.19-.03-.29h.83c-.02.09-.03.19-.03.29a1.734 1.734 0 0 0 1.4 1.71c.11.02.23.04.35.04s.24-.01.35-.04c.11-.02.22-.06.33-.1a1.7 1.7 0 0 0 .77-.64c.19-.28.3-.62.3-.98 0-.1-.01-.19-.03-.29h1.16v-2.98h.99v-2.5Zm-3.5-1.37H9.26V5.99h1.33zm-3.82 0H5.42V5.99h1.35zm3.82-3.61H9.26V2.5h1.33zm-3.82-1v.99H5.42v-.99z"/>
</svg>
