<svg viewBox="0 0 48 48" xmlns="http://www.w3.org/2000/svg">
  <path d="M47.99 27.98h-2.98V2.53a2.45 2.45 0 0 0-.43-1.39c-.18-.27-.41-.5-.68-.68s-.57-.31-.89-.38c-.16-.03-.33-.05-.5-.05H5.39a2.51 2.51 0 0 0-2.46 1.99c-.03.16-.05.33-.05.5v25.45H0v2.5h2.89v3.57h42.12v-3.57h2.98v-2.5ZM30.4 18.81l-6.18 6.18-6.18-6.18c-.49-.49-.49-1.28 0-1.77s1.28-.49 1.77 0l3.16 3.16V8.14h2.5V20.2l3.16-3.16c.49-.49 1.28-.49 1.77 0s.49 1.28 0 1.77M2.89 36.54h42.12v5.37h-3.48c.05.28.09.57.09.86 0 2.54-1.8 4.66-4.2 5.15-.34.07-.7.11-1.06.11-.45 0-.88-.07-1.29-.18-.48-.12-.92-.31-1.33-.55a5.3 5.3 0 0 1-1.39-1.16c-.49-.58-.85-1.25-1.05-2-.12-.44-.2-.89-.2-1.37 0-.3.04-.58.09-.86h-14c.05.28.09.57.09.86 0 2.54-1.8 4.66-4.2 5.15-.34.07-.7.11-1.06.11a5.3 5.3 0 0 1-3.72-1.54c-.24-.24-.45-.5-.64-.78a5 5 0 0 1-.58-1.2c-.19-.55-.32-1.13-.32-1.74 0-.3.04-.58.09-.86H2.91v-5.37Z"/>
</svg>
