<svg viewBox="0 0 24 24" xmlns="http://www.w3.org/2000/svg">
  <path d="M21.05 13.09h-1.49V1.74c0-.96-.78-1.74-1.75-1.74H6.14c-.97 0-1.75.78-1.75 1.75V13.1H2.94v3h1.45v4.84h1.97c-.02.14-.04.28-.04.43 0 .54.17 1.05.45 1.47.47.7 1.27 1.16 2.18 1.16s1.71-.46 2.18-1.16c.28-.42.45-.92.45-1.47 0-.15-.02-.29-.04-.43h1.11c-.02.14-.04.28-.04.43 0 .54.17 1.05.45 1.47.47.7 1.27 1.16 2.18 1.16s1.71-.46 2.18-1.16c.28-.42.45-.92.45-1.47 0-.15-.02-.29-.04-.43h1.74V16.1h1.49v-3Zm-4.49-2.05h-3.09V8.68h3.09zm0-5.35h-3.09V3h3.09zm-9.17-2.7h3.09v2.69H7.39zm3.09 5.7v2.36H7.39V8.69z"/>
</svg>
