<svg viewBox="0 0 24 24" xmlns="http://www.w3.org/2000/svg">
  <path d="M23.99 13.09H22.5V1.74C22.5.78 21.71 0 20.75 0H3.19c-.97 0-1.75.78-1.75 1.74v11.35H-.01v3h1.45v4.84h1.97c-.02.14-.04.28-.04.43 0 .54.17 1.05.45 1.47.47.7 1.27 1.16 2.18 1.16s1.71-.46 2.18-1.16c.28-.42.45-.92.45-1.47 0-.15-.02-.29-.04-.43h7c-.02.14-.04.28-.04.43 0 .54.17 1.05.45 1.47.47.7 1.27 1.16 2.18 1.16s1.71-.46 2.18-1.16c.28-.42.45-.92.45-1.47 0-.15-.02-.29-.04-.43h1.74v-4.84H24v-3ZM13.41 8.58v2.46h-2.89V8.58zm-2.89-3V2.99h2.89v2.59zm8.98 5.46h-3.09V8.58h3.09zm-11.98 0H4.43V8.58h3.09zM19.5 5.58h-3.09V2.99h3.09zM7.52 2.99v2.59H4.43V2.99z"/>
</svg>
