<svg viewBox="0 0 64 64" xmlns="http://www.w3.org/2000/svg">
  <path d="m55.16 10.99 8.99-9.03v21.16l-8.99 8.58zM62.22 0H42.95L32.76 9.06h20.45zm1.93 31.88-4.16 12.36h4.15V64H10.08C4.61 63.99.15 59.56.15 54.11a9.8 9.8 0 0 1 2.03-5.97l-.06-.02 8.8-26.02a9.2 9.2 0 0 1 8.72-6.24h9.02v5H27.3l-7.9 23.37h7.01l2.98-8.81h5.3l-2.98 8.81h8.52l2.98-8.81h5.3l-2.98 8.81h9.15l4.1-12.18 5.36-5.11v4.94ZM13.71 54.11c0-1.52-1.24-2.75-2.76-2.75s-2.76 1.23-2.76 2.75 1.24 2.75 2.76 2.75 2.76-1.23 2.76-2.75m.4-9.88 7.9-23.37h-2.37a4.17 4.17 0 0 0-3.96 2.83L8.7 44.33c.45-.06.9-.11 1.37-.11h4.03Zm11.4 9.88c0-1.52-1.24-2.75-2.76-2.75s-2.76 1.23-2.76 2.75 1.24 2.75 2.76 2.75 2.76-1.23 2.76-2.75m11.79 0c0-1.52-1.24-2.75-2.76-2.75s-2.76 1.23-2.76 2.75 1.24 2.75 2.76 2.75 2.76-1.23 2.76-2.75m11.8 0a2.72 2.72 0 0 0-1.22-2.28c-.44-.3-.97-.47-1.55-.47-1.53 0-2.76 1.23-2.76 2.75s1.24 2.75 2.76 2.75c.57 0 1.1-.17 1.55-.47.29-.2.55-.45.75-.74.3-.44.47-.97.47-1.54m9.03-2.75c-1.53 0-2.76 1.23-2.76 2.75s1.24 2.75 2.76 2.75 2.76-1.23 2.76-2.75-1.24-2.75-2.76-2.75M52.4 32.67H31.44V11.8H52.4zm-4.9-16.1H43v4.48h4.5z"/>
</svg>
