<svg viewBox="0 0 24 24" xmlns="http://www.w3.org/2000/svg">
  <path d="M22.48 20.94h-1.74c.02.14.04.28.04.43 0 .54-.17 1.05-.45 1.47-.47.7-1.27 1.16-2.18 1.16s-1.71-.46-2.18-1.16c-.28-.42-.45-.92-.45-1.47 0-.15.02-.29.04-.43h-7c.02.14.04.28.04.43 0 .54-.17 1.05-.45 1.47-.47.7-1.27 1.16-2.18 1.16s-1.71-.46-2.18-1.16c-.28-.42-.45-.92-.45-1.47 0-.15.02-.29.04-.43H1.41v-2.72h21.06v2.72Zm1.49-7.85v3h-1.49v.38H1.42v-.38H-.03v-3h1.45V1.74c0-.12.01-.24.04-.35.02-.11.06-.22.1-.33A1.7 1.7 0 0 1 2.2.29C2.47.1 2.81 0 3.17 0h17.56c.36 0 .7.11.98.3a1.7 1.7 0 0 1 .64.77 2 2 0 0 1 .14.68V13.1h1.49ZM13.26 8.53l1.46-1.46c.34-.34.34-.9 0-1.24a.88.88 0 0 0-1.24 0l-1.46 1.46-1.46-1.46a.88.88 0 0 0-1.24 0c-.34.34-.34.9 0 1.24l1.46 1.46-1.46 1.46a.881.881 0 0 0 .62 1.5c.22 0 .45-.08.62-.26l1.46-1.46 1.46 1.46a.87.87 0 0 0 1.24 0c.34-.34.34-.9 0-1.24z"/>
</svg>
