<svg viewBox="0 0 64 64" xmlns="http://www.w3.org/2000/svg">
  <path d="M63.97 37.55h-3.98V2.74C60 1.22 58.76 0 57.25 0H6.58a2.74 2.74 0 0 0-2.75 2.74v34.81H-.03v2.75h3.86v5.9H60v-5.9h3.98v-2.75ZM40.35 24.68l-8.03 8.03-8.03-8.03c-.54-.54-.54-1.41 0-1.95s1.41-.54 1.95 0l4.71 4.71V10.66h2.75v16.79l4.71-4.71c.54-.54 1.41-.54 1.95 0s.54 1.41 0 1.95ZM3.83 48.95H60v6.88h-4.62c.06.38.1.76.1 1.15 0 3.87-3.14 7.01-7.02 7.01s-7.02-3.14-7.02-7.01c0-.39.04-.78.1-1.15H22.9c.06.38.1.76.1 1.15 0 3.87-3.14 7.01-7.02 7.01s-7.02-3.14-7.02-7.01c0-.39.04-.78.1-1.15H3.83z"/>
</svg>
