<svg viewBox="0 0 48 48" xmlns="http://www.w3.org/2000/svg">
  <path d="M47.99 26.98h-2.98V2.53a2.5 2.5 0 0 0-2.5-2.5H5.38a2.5 2.5 0 0 0-2.5 2.5v24.45H-.01v4.5h2.89v10.43h3.94c-.05.28-.09.57-.09.86 0 .73.15 1.42.41 2.05.4.94 1.07 1.75 1.91 2.31a5.3 5.3 0 0 0 2.94.9 5.28 5.28 0 0 0 4.37-2.32c.19-.28.35-.58.49-.89.27-.63.41-1.32.41-2.05 0-.3-.04-.58-.09-.86h14c-.05.28-.09.57-.09.86 0 .73.15 1.42.41 2.05.4.94 1.07 1.75 1.91 2.31a5.3 5.3 0 0 0 2.94.9c.36 0 .72-.04 1.06-.11.69-.14 1.32-.41 1.88-.79.84-.57 1.51-1.37 1.91-2.31.27-.63.41-1.32.41-2.05 0-.3-.04-.58-.09-.86h3.48V31.48h2.98v-4.5ZM27.96 15.92v6.96h-8.04v-6.96zm-8.04-4.5V4.53h8.04v6.89zm20.59 11.46h-8.05v-6.96h8.05zm0-11.46h-8.05V4.53h8.05zM7.38 4.53h8.04v6.89H7.38zm8.04 11.39v6.96H7.38v-6.96z"/>
</svg>
