<svg viewBox="0 0 64 64" xmlns="http://www.w3.org/2000/svg">
  <path d="M58.01 37.55h-3.98V2.75C54.03 1.23 52.8 0 51.28 0H13.81c-1.52 0-2.75 1.23-2.75 2.75v34.81H7.2v2.75h3.86v15.54h5.23c-.06.37-.1.76-.1 1.15 0 3.87 3.14 7.01 7.02 7.01s7.02-3.14 7.02-7.01c0-.39-.03-.78-.1-1.15h5.43c-.06.37-.1.76-.1 1.15 0 3.87 3.14 7.01 7.02 7.01S49.5 60.87 49.5 57c0-.39-.03-.78-.1-1.15h4.62V40.31H58v-2.75Zm-44.2-13.29h10.82v7.83H13.81zm37.47-2.75H40.59v-7.88h10.69zm-13.44 0H27.38v-7.88h10.46zm-13.21 0H13.81v-7.88h10.82zm2.75 2.75h10.46v7.83H27.38zm13.21 0h10.69v7.83H40.59zM51.28 2.75v8.14H40.59V2.76h-2.75v8.13H27.38V2.76h-2.75v8.13H13.81V2.75zm-23.8 54.24c0 2.35-1.92 4.26-4.27 4.26s-4.27-1.91-4.27-4.26c0-.4.06-.79.17-1.15h8.21a4 4 0 0 1 .17 1.15Zm19.28 0c0 2.35-1.92 4.26-4.27 4.26s-4.27-1.91-4.27-4.26c0-.4.06-.79.17-1.15h8.21a4 4 0 0 1 .17 1.15Zm-32.95-3.9V34.84h37.47v18.25z"/>
</svg>
