<svg viewBox="0 0 24 24" xmlns="http://www.w3.org/2000/svg">
  <path d="M23.99 13.72H22.5V1.75C22.5.78 21.72 0 20.75 0H3.19c-.97 0-1.75.78-1.75 1.75v11.97H0v1.75h1.45v5.47h1.97c-.03.14-.04.28-.04.43 0 1.45 1.18 2.63 2.63 2.63s2.63-1.18 2.63-2.63c0-.15-.02-.29-.04-.43h6.99c-.03.14-.04.28-.04.43 0 1.45 1.18 2.63 2.63 2.63s2.63-1.18 2.63-2.63c0-.15-.02-.29-.04-.43h1.74v-5.47H24v-1.75ZM20.75 1.75v14.44H3.19V1.75zM3.19 17.94h17.56v1.25H3.19zm3.69 3.43c0 .48-.4.88-.88.88s-.88-.39-.88-.88c0-.16.06-.3.13-.43h1.5c.08.13.13.27.13.43m12.18 0c0 .48-.4.88-.88.88s-.88-.39-.88-.88c0-.16.06-.3.13-.43h1.5c.08.13.13.27.13.43M8.91 9.6a.88.88 0 0 1 0-1.24c.34-.34.9-.34 1.24 0l1.15 1.15V4.08h1.75v5.43l1.15-1.15c.34-.34.9-.34 1.24 0s.34.9 0 1.24l-3.27 3.27L8.9 9.6Z"/>
</svg>
