<svg viewBox="0 0 40 40" xmlns="http://www.w3.org/2000/svg">
  <path d="M35.03 22.33h-2.49V2.24c0-1.24-1-2.24-2.25-2.24H10.06C8.82 0 7.81 1 7.81 2.24v20.08H5.4v4h2.41v8.57h3.28c-.04.24-.07.47-.07.72 0 2.42 1.96 4.38 4.39 4.38s4.39-1.96 4.39-4.38c0-.25-.03-.48-.07-.72h1.29c-.04.24-.07.47-.07.72 0 2.42 1.96 4.38 4.39 4.38s4.39-1.96 4.39-4.38c0-.25-.03-.48-.07-.72h2.9v-8.57h2.49v-4Zm-6.49-3.42h-6.36v-5.45h6.36zm-10.36 0h-6.37v-5.45h6.37zm10.36-9.44h-6.36V3.99h6.36v5.47ZM18.18 3.99v5.47h-6.37V3.99z"/>
</svg>
