<svg viewBox="0 0 48 48" xmlns="http://www.w3.org/2000/svg">
  <path d="M8.29 38.08a2.3 2.3 0 1 1 0 4.6 2.3 2.3 0 0 1 0-4.6m6.51 2.3a2.3 2.3 0 1 0 4.6 0 2.3 2.3 0 0 0-4.6 0m8.8 0a2.3 2.3 0 1 0 4.6 0 2.3 2.3 0 0 0-4.6 0m8.81 0a2.3 2.3 0 1 0 4.6 0 2.3 2.3 0 0 0-4.6 0m8.8 0a2.3 2.3 0 1 0 4.6 0 2.3 2.3 0 0 0-4.6 0m6.8-18.66-3.7 11.03h3.68v2.5H7.64c-2.83 0-5.13 2.3-5.13 5.13s2.3 5.13 5.13 5.13H48v2.5H7.64C3.43 48 0 44.58 0 40.38c0-1.59.49-3.07 1.33-4.29L7.9 16.58a6.24 6.24 0 0 1 5.92-4.25h7.22V8.19L30.34 0H48v21.72Zm-8.11 1.84 5.6-5.46V4.29l-5.6 5.65v13.61ZM24.82 8.18h13.3l5.63-5.68H31.28zM37.4 24.54V10.68H23.54v13.86zm-27.15 8.21 6.03-17.93h-2.46c-1.61 0-3.04 1.03-3.55 2.55L4.92 33.25c.84-.32 1.76-.51 2.71-.51h2.62Zm10.32 0 1.92-5.71h-1.45V14.82h-2.19l.07.02-6.03 17.91zm10.32 0 1.92-5.71h-7.68l-1.92 5.71zm10.78 0 3.7-11.03-5.46 5.31v-.02l-.01.02h-4.45l-1.92 5.71h8.15ZM30.92 17.08h3.69v-3.69h-3.69z"/>
</svg>
