<svg viewBox="0 0 48 48" xmlns="http://www.w3.org/2000/svg">
  <path d="M39.08 9.01H23.57v15.5h15.51zm-3.32 7.04h-3.82v-3.81h3.82zm4.05-9.54H24.77L32.18 0h14.08l-6.44 6.5ZM48 1.79v15.56l-6.42 6.25V8.27zm0 23.14v-4.07l-5.01 4.87-2.36 7.03h-6.04L36.53 27h-4.75l-1.94 5.76h-5.57L26.21 27h-4.75l-1.94 5.76h-4.57l5.7-16.92h.42v-4.5h-6.21c-3.12 0-5.88 1.98-6.87 4.93L1.42 35.78l.12.04A7.55 7.55 0 0 0 0 40.38C0 44.58 3.42 48 7.63 48H48V32.75h-2.63L48 24.92Zm-35.75-7.22a2.74 2.74 0 0 1 2.6-1.87h1.03l-5.7 16.92H7.62c-.15 0-.3.01-.46.02l5.08-15.07ZM8.28 42.68a2.3 2.3 0 1 1 0-4.6 2.3 2.3 0 0 1 0 4.6m8.81 0a2.3 2.3 0 1 1 0-4.6 2.3 2.3 0 0 1 0 4.6m8.81 0a2.3 2.3 0 1 1 0-4.6 2.3 2.3 0 0 1 0 4.6m8.81 0a2.3 2.3 0 1 1 0-4.6 2.3 2.3 0 0 1 0 4.6m11.1-2.3a2.3 2.3 0 1 1-4.6 0 2.3 2.3 0 0 1 4.6 0"/>
</svg>
