<svg viewBox="0 0 16 16" xmlns="http://www.w3.org/2000/svg">
  <path d="M14.93 8.99h-.99V1.51C13.93.68 13.26 0 12.43 0H4.52c-.83 0-1.5.68-1.5 1.51v7.48h-.96v1.5h.96v3.48h1.31c-.02.09-.03.19-.03.29 0 .97.78 1.75 1.75 1.75s1.75-.78 1.75-1.75c0-.1-.01-.19-.03-.29h1.55c-.02.09-.03.19-.03.29 0 .97.78 1.75 1.75 1.75s1.75-.78 1.75-1.75c0-.1-.01-.19-.03-.29h1.16v-3.48h.99v-1.5Zm-8.87 5.52c-.14 0-.25-.11-.25-.25s.11-.25.25-.25.25.11.25.25-.11.25-.25.25m4.99 0c-.14 0-.25-.11-.25-.25s.11-.25.25-.25.25.11.25.25-.11.25-.25.25M9.27 4.05v1.03H7.66V4.05zm-1.61-1.5V1.51h1.61v1.04zm0 5.07V6.58h1.61v1.04zm3.11-1.03h1.66v1.04h-1.66zm1.66-1.51h-1.66V4.05h1.66zm-6.27 0H4.53V4.05h1.63zm0 1.51v1.04H4.53V6.59zM4.52 9.12h7.91v3.34H4.52zm7.91-6.57h-1.66V1.51h1.66zM6.16 1.51v1.04H4.53V1.51z"/>
</svg>
