<svg viewBox="0 0 64 64" xmlns="http://www.w3.org/2000/svg">
  <path d="M56.44 36.42h-3.98V2.74A2.74 2.74 0 0 0 49.71 0H16.12c-1.52 0-2.75 1.23-2.75 2.75v33.68H9.51v5h3.86v14.41h5.24c-.06.38-.1.76-.1 1.15 0 3.87 3.14 7.01 7.02 7.01.48 0 .96-.05 1.41-.14 1.83-.37 3.4-1.46 4.41-2.95.76-1.12 1.2-2.47 1.2-3.92 0-.39-.04-.78-.1-1.15h1.57c-.06.38-.1.76-.1 1.15 0 1.69.6 3.25 1.6 4.46.14.17.29.34.45.5.32.32.67.6 1.04.86 1.12.76 2.47 1.2 3.93 1.2.48 0 .96-.05 1.41-.14 1.83-.37 3.4-1.46 4.41-2.95.76-1.12 1.2-2.47 1.2-3.92 0-.39-.04-.78-.1-1.15h4.62V41.44h3.98v-5Zm-21.02-5.46V20.39h12.04v10.57zm12.04-15.57H35.42V4.99h12.04zM18.37 4.99h12.05v10.4H18.37zm12.05 15.4v10.57H18.37V20.39z"/>
</svg>
