<svg viewBox="0 0 24 24" xmlns="http://www.w3.org/2000/svg">
  <path d="M4.35 18.82a1.14 1.14 0 1 1 .001 2.279 1.14 1.14 0 0 1-.001-2.279m3.22 1.14a1.14 1.14 0 1 0 2.279.001 1.14 1.14 0 0 0-2.279-.001m4.36 0a1.14 1.14 0 1 0 2.279.001 1.14 1.14 0 0 0-2.279-.001m4.35 0a1.14 1.14 0 1 0 2.279.001 1.14 1.14 0 0 0-2.279-.001m4.36 0a1.14 1.14 0 1 0 2.279.001 1.14 1.14 0 0 0-2.279-.001m3.35-8.44-1.47 4.4h1.47v1.75H4.03c-1.26 0-2.28 1.02-2.28 2.29s1.02 2.29 2.28 2.29h19.96V24H4.03a4.04 4.04 0 0 1-3.35-6.28l3.24-9.65a3.33 3.33 0 0 1 3.17-2.28h3.02V4.07L14.9 0h9.11v11.52ZM12.82 4.07h5.92l2.29-2.32h-5.49zM5.14 15.92l2.81-8.38h-.86c-.69 0-1.29.44-1.51 1.09l-2.49 7.41c.3-.07.62-.12.94-.12zm5.76-1.95h-.79V7.54H9.8l-2.81 8.38h3.26zm.96-1.75h6.37V5.83h-6.37zM16 13.97h-3.26l-.65 1.95h3.26zm6.02-2.07-2.04 2.07h-2.14l-.65 1.95h3.49zm.24-8.89-2.27 2.3v6.16l2.27-2.3zm-7.24 6h2.34V6.66h-2.34z"/>
</svg>
