<svg viewBox="0 0 40 40" xmlns="http://www.w3.org/2000/svg">
  <path d="M36.43 23.21h-2.49V2.25c0-1.24-1.01-2.25-2.25-2.25H9.23C7.98 0 6.98 1.01 6.98 2.25V23.2H4.57v2.25h2.41v9.44h3.28c-.04.23-.07.47-.07.72 0 2.42 1.96 4.38 4.39 4.38s4.39-1.96 4.39-4.38c0-.25-.03-.49-.07-.72h3.52c-.04.23-.07.47-.07.72 0 2.42 1.96 4.38 4.39 4.38s4.39-1.96 4.39-4.38c0-.25-.03-.49-.07-.72h2.89v-9.44h2.49V23.2ZM23.4 9.12v4.59h-5.9V9.12zm-5.9-2.25V2.25h5.9v4.61h-5.9Zm14.19 6.83h-6.04V9.11h6.04zm-8.29 2.25v3.84h-5.9v-3.84zm2.25 0h6.04v3.84h-6.04zm6.04-9.08h-6.04V2.25h6.04v4.61ZM9.23 2.25h6.03v4.61H9.23zm0 6.87h6.03v4.59H9.23zm6.02 6.83v3.84H9.22v-3.84zm1.46 19.67a2.14 2.14 0 0 1-4.28 0c0-.25.05-.49.13-.72h4.01c.08.22.13.47.13.72Zm12.16 0a2.14 2.14 0 0 1-4.28 0c0-.25.05-.49.13-.72h4.01c.08.22.13.47.13.72ZM9.23 32.65V22.04H31.7v10.61z"/>
</svg>
