<svg viewBox="0 0 32 32" xmlns="http://www.w3.org/2000/svg">
  <path d="M31.97 18.46h-1.99V1.99c0-1.1-.89-1.99-2-1.99H3.9c-1.11 0-2 .89-2 1.99v16.47H-.03v2H1.9v7.46h2.62c-.03.19-.06.38-.06.58 0 1.93 1.57 3.5 3.51 3.5s3.51-1.57 3.51-3.5c0-.2-.02-.39-.06-.58h9.33c-.03.19-.06.38-.06.58 0 1.93 1.57 3.5 3.51 3.5s3.51-1.57 3.51-3.5c0-.2-.02-.39-.06-.58h2.32v-7.46h1.99v-2ZM27.98 1.99v19.95H3.9V1.99zM9.49 28.49c0 .83-.68 1.5-1.51 1.5s-1.51-.67-1.51-1.5c0-.21.05-.4.13-.58h2.77c.08.18.13.37.13.58Zm16.23 0c0 .83-.68 1.5-1.51 1.5s-1.51-.67-1.51-1.5c0-.21.05-.4.13-.58h2.77c.08.18.13.37.13.58ZM3.9 25.92v-1.98h24.08v1.98zm8.66-12.48 2.07-2.07-2.07-2.07a.996.996 0 1 1 1.41-1.41l2.07 2.07 2.07-2.07a.996.996 0 1 1 1.41 1.41l-2.07 2.07 2.07 2.07a.996.996 0 0 1-.71 1.7c-.26 0-.51-.1-.71-.29l-2.07-2.07-2.07 2.07c-.2.2-.45.29-.71.29s-.51-.1-.71-.29a.996.996 0 0 1 0-1.41Z"/>
</svg>
