<svg viewBox="0 0 24 24" xmlns="http://www.w3.org/2000/svg">
  <path d="M23.99 13.72H22.5V1.75C22.5.78 21.71 0 20.75 0H3.19c-.97 0-1.75.78-1.75 1.75v11.97H-.01v1.75h1.45v5.47h1.97c-.03.14-.04.28-.04.43C3.37 22.82 4.55 24 6 24s2.63-1.18 2.63-2.63c0-.15-.02-.29-.04-.43h6.99c-.03.14-.04.28-.04.43 0 1.45 1.18 2.63 2.63 2.63s2.63-1.18 2.63-2.63c0-.15-.02-.29-.04-.43h1.74v-5.47h1.49zm-20.8-4.1h3.02v2.05H3.19zm17.56-1.75h-3.02V5.82h3.02zm-4.77 0h-3.14V5.82h3.14zm-3.14-3.8V1.75h3.14v2.32zm-1.75 0H7.95V1.75h3.14zm0 1.75v2.05H7.95V5.82zM6.2 7.87H3.18V5.82H6.2zm1.75 1.75h3.14v2.05H7.95zm4.89 0h3.14v2.05h-3.14zm4.89 0h3.02v2.05h-3.02zm3.02-5.55h-3.02V1.75h3.02zM6.2 1.75v2.32H3.18V1.75zM3.19 13.43h17.56v5.77H3.19zm3.69 7.94c0 .48-.4.88-.88.88s-.88-.39-.88-.88c0-.16.06-.3.13-.43h1.5c.08.13.13.27.13.43m12.17 0c0 .48-.4.88-.88.88s-.88-.39-.88-.88c0-.16.06-.3.13-.43h1.5c.08.13.13.27.13.43"/>
</svg>
