<svg viewBox="0 0 32 32" xmlns="http://www.w3.org/2000/svg">
  <path d="M32.04 18.46h-1.99V1.99C30.06.89 29.16 0 28.06 0H3.97c-1.1 0-2 .89-2 1.99v16.46H.04v2h1.93v7.46h2.62c-.03.19-.06.38-.06.58 0 1.93 1.57 3.5 3.51 3.5s3.51-1.57 3.51-3.5c0-.2-.02-.39-.06-.58h9.33c-.03.19-.06.38-.06.58 0 1.93 1.57 3.5 3.51 3.5s3.51-1.57 3.51-3.5c0-.2-.02-.39-.06-.58h2.32v-7.46h1.99v-2Zm-3.98-7.8h-4.52V7.34h4.52zm-6.53 0h-4.52V7.34h4.52zm-4.52-5.32V1.99h4.52v3.34h-4.52Zm-2 0h-4.52V1.99h4.52v3.34Zm0 2v3.32h-4.52V7.34zm0 5.32v3.07h-4.52v-3.07zm2 0h4.52v3.07h-4.52zm6.52 0h4.52v3.07h-4.52zm4.53-7.32h-4.52V1.99h4.52v3.34ZM3.97 1.99h4.52v3.34H3.97zm0 5.35h4.52v3.32H3.97zm4.52 5.32v3.07H3.97v-3.07zm1.07 15.83c0 .83-.68 1.5-1.51 1.5s-1.51-.67-1.51-1.5c0-.21.05-.4.13-.58h2.76c.08.18.13.37.13.58m16.24 0c0 .83-.68 1.5-1.51 1.5s-1.51-.67-1.51-1.5c0-.21.05-.4.13-.58h2.76c.08.18.13.37.13.58M3.97 25.92v-8.19h24.08v8.19z"/>
</svg>
