<svg viewBox="0 0 48 48" xmlns="http://www.w3.org/2000/svg">
  <path d="M47.97 27.98h-2.98V2.54a2.5 2.5 0 0 0-2.5-2.5H5.36a2.5 2.5 0 0 0-2.5 2.5v25.45H-.03v2.5h2.89v11.43h3.93c-.05.28-.08.57-.08.86 0 2.9 2.36 5.25 5.27 5.25s5.27-2.35 5.27-5.25c0-.3-.03-.58-.08-.86h13.98c-.05.28-.08.57-.08.86 0 2.9 2.36 5.25 5.27 5.25s5.27-2.35 5.27-5.25c0-.3-.03-.58-.08-.86H45V30.49h2.98v-2.5ZM42.49 2.54v31.92H5.36V2.54h37.12ZM14.74 42.78c0 1.52-1.24 2.75-2.77 2.75S9.2 44.29 9.2 42.78c0-.31.07-.59.16-.86h5.21c.09.27.16.56.16.86Zm24.36 0c0 1.52-1.24 2.75-2.77 2.75s-2.77-1.24-2.77-2.75c0-.31.07-.59.16-.86h5.21c.09.27.16.56.16.86ZM5.36 39.42v-2.46h37.12v2.46zm13.77-18.96 3.28-3.28-3.28-3.28c-.49-.49-.49-1.28 0-1.77s1.28-.49 1.77 0l3.28 3.28 3.28-3.28c.49-.49 1.28-.49 1.77 0s.49 1.28 0 1.77l-3.28 3.28 3.28 3.28c.49.49.49 1.28 0 1.77-.24.24-.56.37-.88.37s-.64-.12-.88-.37l-3.28-3.28-3.28 3.28c-.24.24-.56.37-.88.37s-.64-.12-.88-.37a1.25 1.25 0 0 1 0-1.77Z"/>
</svg>
