<svg viewBox="0 0 40 40" xmlns="http://www.w3.org/2000/svg">
  <path d="M39.99 23.21H37.5V2.25c.01-1.24-1-2.25-2.24-2.25H4.65C3.41 0 2.4 1.01 2.4 2.25v20.96H0v2.25h2.41v9.44h3.28c-.04.23-.07.47-.07.72 0 2.42 1.96 4.38 4.39 4.38s4.39-1.96 4.39-4.38c0-.25-.03-.49-.07-.72h11.66c-.04.23-.07.47-.07.72 0 2.42 1.96 4.38 4.39 4.38s4.39-1.96 4.39-4.38c0-.25-.03-.49-.07-.72h2.9v-9.44h2.49v-2.25ZM35.26 2.25v26.01H4.65V2.25h30.6ZM12.14 35.62a2.14 2.14 0 0 1-4.28 0c0-.25.05-.5.13-.72H12c.08.22.13.47.13.72Zm20.29 0a2.14 2.14 0 0 1-4.28 0c0-.25.05-.5.13-.72h4.01c.08.22.13.47.13.72ZM4.65 32.65v-2.14h30.6v2.14zm10.37-16.91c-.44-.44-.44-1.15 0-1.59s1.15-.44 1.59 0l2.49 2.49V6.79h2.25v9.85l2.49-2.49c.44-.44 1.15-.44 1.59 0s.44 1.15 0 1.59l-5.21 5.21-5.21-5.21Z"/>
</svg>
