<svg viewBox="0 0 32 32" xmlns="http://www.w3.org/2000/svg">
  <path d="M29.98 17.7V1.99c0-.48-.17-.91-.45-1.25q-.12-.15-.27-.27c-.35-.29-.79-.48-1.28-.48H3.9c-1.11 0-2 .89-2 2v15.72H-.03v3.5H1.9v.73h28.08v-.73h1.99v-3.5h-1.99Zm-10.45-4.26a.996.996 0 0 1-.71 1.7c-.26 0-.51-.1-.71-.29l-2.07-2.07-2.07 2.07c-.2.2-.45.29-.71.29s-.51-.1-.71-.29a.996.996 0 0 1 0-1.41l2.07-2.07-2.07-2.07a.996.996 0 1 1 1.41-1.41l2.07 2.07 2.07-2.07a.996.996 0 1 1 1.41 1.41l-2.07 2.07 2.07 2.07Zm10.45 14.47h-2.32c.03.19.06.38.06.58a3.4 3.4 0 0 1-.6 1.96A3.53 3.53 0 0 1 24.21 32c-.97 0-1.85-.39-2.48-1.03-.16-.16-.3-.33-.43-.52-.25-.37-.43-.8-.53-1.25a3.3 3.3 0 0 1-.07-.71c0-.2.03-.39.06-.58h-9.33c.03.19.06.38.06.58A3.51 3.51 0 0 1 7.98 32c-.86 0-1.64-.32-2.25-.83-.36-.3-.66-.67-.87-1.1a3.24 3.24 0 0 1-.39-1.58c0-.2.03-.39.06-.58H1.9v-3.98h28.08z"/>
</svg>
