<svg viewBox="0 0 40 40" xmlns="http://www.w3.org/2000/svg">
  <path d="M6.96 31.66a1.91 1.91 0 1 1 0 3.82 1.91 1.91 0 0 1 0-3.82m5.42 1.91a1.91 1.91 0 1 0 3.82 0 1.91 1.91 0 0 0-3.82 0m7.32 0a1.91 1.91 0 1 0 3.82 0 1.91 1.91 0 0 0-3.82 0m7.32 0a1.91 1.91 0 1 0 3.82 0 1.91 1.91 0 0 0-3.82 0m7.33 0a1.91 1.91 0 1 0 3.82 0 1.91 1.91 0 0 0-3.82 0M40 18.31l-2.96 8.82h2.95v2.25H6.43c-2.3 0-4.18 1.88-4.18 4.18s1.87 4.18 4.18 4.18h33.56v2.25H6.43C2.88 40 0 37.11 0 33.57c0-1.34.41-2.58 1.11-3.61l5.45-16.23c.72-2.15 2.73-3.6 5-3.6h5.8v-3.3l-.04-.05L25.18 0H40zM37.74 3.86l-4.5 4.54v11.2l4.5-4.46zM20.73 6.82h10.92l4.52-4.57H26.01zm-1.11 13.63H31V9.07H19.62zM8.54 27.14l4.96-14.75h-1.93c-1.3 0-2.46.83-2.87 2.06L4.31 27.5c.66-.23 1.37-.37 2.12-.37h2.11Zm10.07-4.44h-1.24V12.38h-1.5l-4.96 14.75h6.21zm8.58 0h-6.21l-1.49 4.43h6.21zm7.48 4.44 2.9-8.65-4.27 4.24-.05-.05v.02h-3.68l-1.49 4.43h6.6ZM25.6 14.4h3.24v-3.25H25.6z"/>
</svg>
