<svg viewBox="0 0 16 16" xmlns="http://www.w3.org/2000/svg">
  <path d="M15.99 8.98H15V1.5c0-.83-.67-1.5-1.5-1.5H2.49C1.67 0 .99.67.99 1.5v7.48H0v1.5h.99v.23H15v-.23h.99zm-5.52-2.49-2.3 2.3-2.3-2.3c-.29-.29-.29-.77 0-1.06s.77-.29 1.06 0l.48.49V2.7h1.5v3.22l.48-.49c.29-.29.77-.29 1.06 0s.29.77 0 1.06ZM.99 12.22H15v1.75h-1.16c.02.09.03.19.03.29 0 .97-.78 1.75-1.75 1.75s-1.75-.78-1.75-1.75c0-.1.01-.19.03-.29H5.75c.02.09.03.19.03.29 0 .97-.78 1.75-1.75 1.75s-1.75-.78-1.75-1.75c0-.1.01-.19.03-.29H.99z"/>
</svg>
