<svg viewBox="0 0 64 64" xmlns="http://www.w3.org/2000/svg">
  <path d="M59.97 55.84h-4.62c.06.38.1.76.1 1.15 0 3.87-3.14 7.01-7.02 7.01s-7.02-3.14-7.02-7.01c0-.39.04-.78.1-1.15H22.87c.06.38.1.76.1 1.15 0 3.87-3.14 7.01-7.02 7.01s-7.02-3.14-7.02-7.01c0-.39.04-.78.1-1.15H3.81v-7.87h56.17v7.87Zm3.98-19.42v5h-3.98v3.79H3.81v-3.79H-.05v-5h3.86V2.74A2.74 2.74 0 0 1 6.56 0h50.67c1.52 0 2.75 1.23 2.75 2.75v33.68h3.98ZM34.04 22.86l4.58-4.58c.54-.54.54-1.41 0-1.95s-1.41-.54-1.95 0l-4.58 4.58-4.58-4.58c-.54-.54-1.41-.54-1.95 0s-.54 1.41 0 1.95l4.58 4.58-4.58 4.58a1.376 1.376 0 0 0 1.94 1.95l4.58-4.58 4.58 4.58c.27.27.62.4.97.4s.7-.13.97-.4c.54-.54.54-1.41 0-1.95l-4.58-4.58Z"/>
</svg>
