<svg viewBox="0 0 40 40" xmlns="http://www.w3.org/2000/svg">
  <path d="M37.49 29.19v5.71h-2.9c.04.24.07.47.07.72 0 2.42-1.96 4.38-4.39 4.38s-4.39-1.96-4.39-4.38c0-.25.03-.48.07-.72H14.29c.04.24.07.47.07.72a4.38 4.38 0 0 1-2.68 4.03c-.52.22-1.1.34-1.71.34-2.42 0-4.39-1.96-4.39-4.38 0-.25.03-.48.07-.72H2.37v-5.71h35.1Zm2.48-6.86v4h-2.49v.61H2.38v-.61H-.03v-4h2.41V2.24C2.38 1 3.39 0 4.63 0h30.6c1.24 0 2.25 1.01 2.25 2.25v20.08zm-18.27-8 2.67-2.67c.44-.44.44-1.15 0-1.59s-1.15-.44-1.59 0l-2.67 2.67-2.67-2.67c-.44-.44-1.15-.44-1.59 0s-.44 1.15 0 1.59l2.67 2.67L15.85 17a1.123 1.123 0 0 0 .8 1.92c.29 0 .58-.11.8-.33l2.67-2.67 2.67 2.67c.22.22.51.33.8.33s.58-.11.8-.33c.44-.44.44-1.15 0-1.59l-2.67-2.67Z"/>
</svg>
