<svg viewBox="0 0 24 24" xmlns="http://www.w3.org/2000/svg">
  <path d="M22.04 13.72h-1.49V1.75A1.76 1.76 0 0 0 18.79 0H6.12c-.97 0-1.75.78-1.75 1.75v11.97H2.92v1.75h1.45v5.47h1.97c-.03.14-.04.28-.04.43C6.3 22.82 7.48 24 8.93 24s2.63-1.18 2.63-2.63c0-.15-.02-.29-.04-.43h2.11c-.03.14-.04.28-.04.43 0 1.45 1.18 2.63 2.63 2.63s2.63-1.18 2.63-2.63c0-.15-.02-.29-.04-.43h1.74v-5.47h1.49zM6.12 9.62h3.02v2.05H6.12zm7.9-3.8v2.05h-3.14V5.82zm-3.14-1.75V1.75h3.14v2.32zm7.91 3.8h-3.02V5.82h3.02zm-9.66 0H6.11V5.82h3.02zm1.75 1.75h3.14v2.05h-3.14zm4.89 0h3.02v2.05h-3.02zm3.02-5.55h-3.02V1.75h3.02zM9.13 1.75v2.32H6.11V1.75zM6.12 13.43H18.8v5.77H6.12zm3.69 7.94c0 .48-.4.88-.88.88s-.88-.39-.88-.88c0-.16.06-.3.13-.43h1.5c.08.13.13.27.13.43m7.29 0c0 .48-.4.88-.88.88s-.88-.39-.88-.88c0-.16.06-.3.13-.43h1.5c.08.13.13.27.13.43"/>
</svg>
