<svg viewBox="0 0 32 32" xmlns="http://www.w3.org/2000/svg">
  <path d="M31.99 18.46H30V1.99C30.01.89 29.11 0 28.01 0H3.92c-1.1 0-2 .89-2 1.99v16.47H0v2h1.93v7.46h2.63c-.04.19-.06.38-.06.58 0 1.93 1.57 3.5 3.51 3.5s3.51-1.57 3.51-3.5c0-.2-.02-.39-.06-.58h9.34c-.04.19-.06.38-.06.58 0 1.93 1.57 3.5 3.51 3.5s3.51-1.57 3.51-3.5c0-.2-.02-.39-.06-.58h2.32v-7.46h1.99v-2ZM28.01 1.99v20.32H3.92V1.99H28Zm-18.5 26.5c0 .83-.68 1.5-1.51 1.5s-1.51-.67-1.51-1.5c0-.2.04-.4.12-.58h2.78c.08.18.12.37.12.58m16.24 0c0 .83-.68 1.5-1.51 1.5s-1.51-.67-1.51-1.5c0-.2.04-.4.12-.58h2.78c.08.18.12.37.12.58M3.92 25.92v-1.6H28v1.6zm8.07-13.3a.996.996 0 1 1 1.41-1.41l1.82 1.82V5.4h2v7.63l1.82-1.82a.996.996 0 1 1 1.41 1.41l-4.23 4.23z"/>
</svg>
