<svg viewBox="0 0 32 32" xmlns="http://www.w3.org/2000/svg">
  <path d="M31.99 17.7H30V1.99a2 2 0 0 0-2-2H3.92c-1.11 0-2 .89-2 2v15.72H-.01v3.5h1.93v6.71h2.62c-.03.19-.06.38-.06.58a3.4 3.4 0 0 0 .6 1.96 3.53 3.53 0 0 0 2.91 1.55c.97 0 1.85-.39 2.48-1.03.16-.16.3-.33.43-.52.25-.37.43-.8.53-1.25.05-.23.07-.46.07-.71 0-.2-.03-.39-.06-.58h9.33c-.03.19-.06.38-.06.58a3.4 3.4 0 0 0 .6 1.96 3.53 3.53 0 0 0 2.91 1.55c.97 0 1.85-.39 2.48-1.03.16-.16.3-.33.43-.52.25-.37.43-.8.53-1.25.05-.23.07-.46.07-.71 0-.2-.03-.39-.06-.58h2.32v-6.71h1.99v-3.5Zm-13.68-6.71v3.99h-4.7v-3.99zm-4.7-3.5v-4h4.7v4zm12.89 7.48h-4.69v-3.99h4.69zm0-7.48h-4.69v-4h4.69zm-21.08-4h4.69v4H5.42zm4.69 7.5v3.99H5.42v-3.99z"/>
</svg>
