<svg viewBox="0 0 40 40" xmlns="http://www.w3.org/2000/svg">
  <path d="M38.5 21.33H27.94v-5.38h-2.25v5.38H1.5c-.83 0-1.5.68-1.5 1.5v12.01c0 .83.67 1.5 1.5 1.5h3.29v3.17c0 .28.23.51.51.51h1.23c.28 0 .51-.23.51-.51v-3.17h25.73v3.17c0 .28.23.51.51.51h1.23c.28 0 .51-.23.51-.51v-3.17h3.48c.83 0 1.5-.68 1.5-1.5V22.83c0-.83-.67-1.5-1.5-1.5m-.75 12.75H2.25v-10.5h35.5zm-15.33-5.25c0-.62.5-1.13 1.12-1.13h10.82c.62 0 1.12.5 1.12 1.13s-.5 1.13-1.12 1.13H23.54c-.62 0-1.12-.5-1.12-1.13m-17.98 0c0-.62.5-1.13 1.12-1.13s1.12.5 1.12 1.13a1.12 1.12 0 1 1-2.24 0m4.5 0c0-.62.5-1.13 1.12-1.13s1.12.5 1.12 1.13a1.12 1.12 0 1 1-2.24 0m4.5 0c0-.62.5-1.13 1.12-1.13s1.12.5 1.12 1.13a1.12 1.12 0 1 1-2.24 0m4.5 0c0-.62.5-1.13 1.12-1.13s1.12.5 1.12 1.13a1.12 1.12 0 1 1-2.24 0m8.87-17.37c.62 0 1.12.5 1.12 1.13a1.12 1.12 0 1 1-2.24 0c0-.63.5-1.13 1.12-1.13m-12.69 1.25c0-7 5.69-12.71 12.69-12.71S39.5 5.7 39.5 12.7c0 .62-.5 1.13-1.12 1.13s-1.12-.5-1.12-1.13c0-5.76-4.68-10.45-10.44-10.45S16.38 6.94 16.38 12.7c0 .62-.5 1.13-1.12 1.13s-1.12-.5-1.12-1.13Zm12.69-4.82c-2.65 0-4.81 2.16-4.81 4.81 0 .62-.5 1.13-1.12 1.13s-1.12-.5-1.12-1.13c0-3.9 3.17-7.07 7.06-7.07s7.06 3.17 7.06 7.07c0 .62-.5 1.13-1.12 1.13s-1.12-.5-1.12-1.13c0-2.65-2.16-4.81-4.81-4.81Z"/>
</svg>
