<svg viewBox="0 0 64 64" xmlns="http://www.w3.org/2000/svg">
  <path d="M61.52 34.12H47.05v-9.89h-5v9.89H2.52c-1.38 0-2.5 1.13-2.5 2.5v19a2.5 2.5 0 0 0 2.5 2.5h3.76v5.37c0 .21.13.39.31.47.06.03.13.04.2.04h5.38c.07 0 .14-.01.2-.04.18-.08.31-.26.31-.47v-5.37h38.37v5.37c0 .12.05.22.11.31.01.02.02.04.04.05.02.02.04.02.05.04.09.07.19.11.31.11h5.38c.07 0 .14-.01.2-.04.18-.08.31-.26.31-.47v-5.37h4.07c1.38 0 2.5-1.13 2.5-2.5v-19a2.5 2.5 0 0 0-2.5-2.5m-55.99 12c0-.76.62-1.38 1.38-1.38s1.38.62 1.38 1.38-.62 1.38-1.38 1.38-1.38-.62-1.38-1.38m6.87 1.38c-.76 0-1.38-.62-1.38-1.38s.62-1.38 1.38-1.38 1.38.62 1.38 1.38-.62 1.38-1.38 1.38m5.5 0c-.76 0-1.38-.62-1.38-1.38s.62-1.38 1.38-1.38 1.38.62 1.38 1.38-.62 1.38-1.38 1.38m5.5 0c-.76 0-1.38-.62-1.38-1.38s.62-1.38 1.38-1.38 1.38.62 1.38 1.38-.62 1.38-1.38 1.38m5.5 0c-.76 0-1.38-.62-1.38-1.38s.62-1.38 1.38-1.38 1.38.62 1.38 1.38-.62 1.38-1.38 1.38m8.71-1.38c0-.76.62-1.38 1.38-1.38h13.14c.76 0 1.38.62 1.38 1.38s-.62 1.38-1.38 1.38H38.99c-.76 0-1.38-.62-1.38-1.38m6.94-29.15a2.5 2.5 0 0 1 0 5 2.5 2.5 0 0 1 0-5m0-3.77c-3.46 0-6.27 2.82-6.27 6.27a2.5 2.5 0 0 1-5 0c0-6.22 5.06-11.28 11.27-11.28s11.27 5.06 11.27 11.28a2.5 2.5 0 0 1-5 0c0-3.46-2.81-6.27-6.27-6.27m-19.46 6.27C25.09 8.74 33.82 0 44.55 0s19.46 8.73 19.46 19.47a2.5 2.5 0 0 1-5 0C59.01 11.49 52.52 5 44.55 5s-14.46 6.49-14.46 14.47a2.5 2.5 0 0 1-5 0"/>
</svg>
