<svg viewBox="0 0 16 16" xmlns="http://www.w3.org/2000/svg">
  <path d="M13.18 0a2.83 2.83 0 0 0-2.82 2.82c0 1.74 2.05 3.85 2.29 4.08l.53.53.53-.53C13.94 6.67 16 4.56 16 2.82 16 1.26 14.73 0 13.18 0m0 3.62c-.44 0-.79-.35-.79-.79s.35-.79.79-.79.79.35.79.79-.35.79-.79.79M2.82 8.56C1.26 8.56 0 9.82 0 11.38c0 1.74 2.05 3.85 2.29 4.08l.53.53.53-.53c.23-.23 2.29-2.34 2.29-4.08 0-1.56-1.27-2.82-2.82-2.82m0 3.62c-.44 0-.79-.35-.79-.79s.35-.79.79-.79.79.35.79.79-.35.79-.79.79m9.04-2.84c0 1.54-1.26 2.8-2.8 2.8H8.5v-1.5h.56c.72 0 1.3-.58 1.3-1.3s-.58-1.3-1.3-1.3H5.05c-1.64 0-2.98-1.34-2.98-2.98s1.34-2.98 2.98-2.98h2.01v1.5H5.05c-.82 0-1.48.66-1.48 1.48s.66 1.48 1.48 1.48h4.01c1.54 0 2.8 1.26 2.8 2.8M9.5 3.57H8v-1.5h1.5zm-3.45 7.07h1.5v1.5h-1.5z"/>
</svg>
