<svg viewBox="0 0 16 16" xmlns="http://www.w3.org/2000/svg">
  <path d="M15.5 8.53h-4.02V6.76h-1.5v1.77H.5c-.27 0-.5.22-.5.5v5c0 .28.23.5.5.5h1.11v.96c0 .28.23.51.51.51h.48c.28 0 .51-.23.51-.51v-.96h9.69v.96c0 .28.23.51.51.51h.48c.28 0 .51-.23.51-.51v-.96h1.19c.27 0 .5-.22.5-.5v-5c0-.27-.22-.5-.5-.5Zm-1 4.5h-13v-3h13zm-2.21-2.25c.41 0 .75.34.75.75s-.34.75-.75.75H9.75c-.41 0-.75-.34-.75-.75s.34-.75.75-.75zm-7.78.75c0 .41-.34.75-.75.75s-.75-.34-.75-.75.34-.75.75-.75.75.34.75.75m2.99 0c0 .41-.34.75-.75.75S6 11.94 6 11.53s.34-.75.75-.75.75.34.75.75m3.22-7c.41 0 .75.34.75.75s-.34.75-.75.75-.75-.34-.75-.75.34-.75.75-.75m-5.27.75C5.45 2.37 7.81 0 10.72 0S16 2.37 16 5.28c0 .41-.34.75-.75.75s-.75-.34-.75-.75c0-2.08-1.69-3.78-3.78-3.78S6.94 3.2 6.94 5.28c0 .41-.34.75-.75.75s-.75-.34-.75-.75Zm5.27-1.58c-.87 0-1.57.71-1.57 1.57 0 .41-.34.75-.75.75s-.75-.34-.75-.75c0-1.7 1.38-3.07 3.07-3.07s3.07 1.38 3.07 3.07c0 .41-.34.75-.75.75s-.75-.34-.75-.75c0-.87-.71-1.57-1.57-1.57"/>
</svg>
