<svg viewBox="0 0 40 40" xmlns="http://www.w3.org/2000/svg">
  <path d="M38.5 21.33h-9.07V16.1h-4v5.23H1.5c-.83 0-1.5.68-1.5 1.5v12c0 .83.67 1.5 1.5 1.5h2.41v3.17c0 .28.23.51.51.51H7.4c.28 0 .51-.23.51-.51v-3.17h23.98v3.17c0 .28.23.51.51.51h2.98c.28 0 .51-.23.51-.51v-3.17h2.61c.83 0 1.5-.68 1.5-1.5v-12c0-.83-.67-1.5-1.5-1.5M5.57 27.7c.62 0 1.12.5 1.12 1.13a1.12 1.12 0 1 1-2.24 0c0-.63.5-1.13 1.12-1.13m4.5 2.25c-.62 0-1.12-.5-1.12-1.13a1.12 1.12 0 1 1 2.24 0c0 .63-.5 1.13-1.12 1.13m4.5 0c-.62 0-1.12-.5-1.12-1.13a1.12 1.12 0 1 1 2.24 0c0 .63-.5 1.13-1.12 1.13m4.5 0c-.62 0-1.12-.5-1.12-1.13a1.12 1.12 0 1 1 2.24 0c0 .63-.5 1.13-1.12 1.13m3.35-1.12c0-.62.5-1.13 1.12-1.13h10.82c.62 0 1.12.5 1.12 1.13s-.5 1.13-1.12 1.13H23.54c-.62 0-1.12-.5-1.12-1.13m5.01-18.25c1.1 0 2 .9 2 2s-.9 2-2 2-2-.9-2-2 .9-2 2-2m0-1.3c-1.82 0-3.3 1.48-3.3 3.3 0 1.1-.9 2-2 2s-2-.9-2-2c0-4.03 3.27-7.3 7.3-7.3s7.3 3.28 7.3 7.3c0 1.1-.9 2-2 2s-2-.9-2-2c0-1.82-1.48-3.3-3.3-3.3m-12.58 3.3C14.85 5.65 20.49 0 27.43 0S40 5.64 40 12.58c0 1.1-.9 2-2 2s-2-.9-2-2C36 7.85 32.15 4 27.43 4s-8.57 3.85-8.57 8.58c0 1.1-.9 2-2 2s-2-.9-2-2Z"/>
</svg>
