<svg viewBox="0 0 64 64" xmlns="http://www.w3.org/2000/svg">
  <path d="M53.87 0c-5.58 0-10.12 4.54-10.12 10.12 0 6.74 8.77 15.6 9.15 15.97l.97.97.97-.97c.37-.37 9.15-9.23 9.15-15.97C63.99 4.54 59.45 0 53.87 0m0 23.13c-2.7-2.95-7.37-8.91-7.37-13s3.31-7.37 7.37-7.37 7.37 3.31 7.37 7.37-4.67 10.05-7.37 13m3.34-12.96a3.35 3.35 0 1 1-6.7 0 3.35 3.35 0 0 1 6.7 0m-47.1 26.76c-5.58 0-10.12 4.54-10.12 10.13 0 6.74 8.77 15.6 9.15 15.97l.97.97.97-.97c.37-.37 9.15-9.23 9.15-15.97 0-5.58-4.54-10.12-10.12-10.12Zm0 23.13c-2.7-2.95-7.37-8.91-7.37-13s3.31-7.37 7.37-7.37 7.37 3.31 7.37 7.37-4.67 10.05-7.37 13m3.34-12.96a3.35 3.35 0 1 1-6.7 0 3.35 3.35 0 0 1 6.7 0m33.05-9.42c0 5.53-4.5 10.03-10.03 10.03h-8v-2.75h8c4.01 0 7.28-3.27 7.28-7.28s-3.27-7.28-7.28-7.28H19.53c-5.95 0-10.8-4.85-10.8-10.8s4.84-10.8 10.8-10.8h15.96v2.75H19.53c-4.44 0-8.05 3.61-8.05 8.05s3.61 8.05 8.05 8.05h16.94c5.53 0 10.03 4.5 10.03 10.03m-23.53 7.29h2.75v2.75h-2.75zM41 11.55h-2.75V8.8H41z"/>
</svg>
