<svg viewBox="0 0 40 40" xmlns="http://www.w3.org/2000/svg">
  <path d="M33.48 0c-3.59 0-6.51 2.92-6.51 6.51 0 4.2 5.13 9.45 5.72 10.04l.8.79.79-.79c.59-.59 5.72-5.84 5.72-10.04C39.99 2.93 37.07 0 33.48 0m0 8.61c-1.14 0-2.06-.92-2.06-2.06s.92-2.06 2.06-2.06 2.06.92 2.06 2.06-.92 2.06-2.06 2.06M6.51 22.66c-3.6 0-6.51 2.92-6.51 6.52 0 4.2 5.13 9.45 5.72 10.04l.8.79.8-.79c.59-.59 5.72-5.84 5.72-10.04 0-3.59-2.92-6.51-6.51-6.51Zm0 8.61c-1.14 0-2.06-.92-2.06-2.06s.92-2.06 2.06-2.06 2.06.92 2.06 2.06-.92 2.06-2.06 2.06m22.7-7.77c0 3.56-2.9 6.46-6.46 6.46h-2.97v-2.25h2.97c2.32 0 4.21-1.89 4.21-4.21s-1.89-4.21-4.21-4.21H12.31c-3.82 0-6.93-3.11-6.93-6.93s3.11-6.93 6.93-6.93h7.9v2.25h-7.9c-2.58 0-4.68 2.1-4.68 4.68s2.1 4.68 4.68 4.68h10.44c3.56 0 6.46 2.9 6.46 6.46M24.72 7.67h-2.25V5.42h2.25zm-9.43 20.04h2.25v2.25h-2.25z"/>
</svg>
