<svg viewBox="0 0 32 32" xmlns="http://www.w3.org/2000/svg">
  <path d="M26.71-.06c-2.91 0-5.28 2.38-5.28 5.3 0 3.39 4.11 7.61 4.58 8.08l.71.71.71-.71c.47-.47 4.58-4.69 4.58-8.08-.02-2.92-2.39-5.3-5.3-5.3m0 6.97c-.9 0-1.64-.74-1.64-1.64a1.641 1.641 0 0 1 3.28 0c0 .9-.73 1.64-1.64 1.64M5.28 17.85c-2.92 0-5.28 2.38-5.28 5.3 0 3.39 4.1 7.61 4.57 8.08l.71.71.71-.71c.47-.47 4.58-4.69 4.58-8.08 0-2.92-2.37-5.3-5.28-5.3Zm0 6.97c-.9 0-1.64-.74-1.64-1.64a1.641 1.641 0 0 1 3.28 0c0 .9-.73 1.64-1.64 1.64m18.15-6.03c0 2.9-2.35 5.26-5.24 5.26h-1.65v-2.01h1.65c1.79 0 3.24-1.46 3.24-3.25s-1.45-3.25-3.24-3.25h-8.3c-3.1 0-5.62-2.53-5.62-5.64s2.52-5.64 5.62-5.64h5.53v2.01H9.89C7.9 6.27 6.27 7.9 6.27 9.9s1.62 3.63 3.62 3.63h8.3c2.89 0 5.24 2.36 5.24 5.26M19.42 6.27h-2V4.26h2zm-6.87 15.77h2v2.01h-2z"/>
</svg>
