<svg viewBox="0 0 32 32" xmlns="http://www.w3.org/2000/svg">
  <path d="M30.51 18.06H22.7v-3.31h-3.5v3.31H1.51c-.83 0-1.51.68-1.51 1.5v9c0 .83.67 1.5 1.5 1.5h1.48v1.43c0 .28.23.51.51.51h2.48c.28 0 .51-.23.51-.51v-1.43h18.88v1.43c0 .28.23.51.51.51h2.48c.28 0 .51-.23.51-.51v-1.43h1.64c.83 0 1.5-.68 1.5-1.5v-9c0-.83-.67-1.5-1.5-1.5Zm-25.49 5c.55 0 1 .45 1 1s-.45 1-1 1-1-.45-1-1 .45-1 1-1m4 2c-.55 0-1-.45-1-1s.45-1 1-1 1 .45 1 1-.45 1-1 1m4 0c-.55 0-1-.45-1-1s.45-1 1-1 1 .45 1 1-.45 1-1 1m4.97-1c0-.55.45-1 1-1h8.02c.55 0 1 .45 1 1s-.45 1-1 1h-8.02c-.55 0-1-.45-1-1m2.96-14.24c.97 0 1.75.78 1.75 1.75s-.78 1.75-1.75 1.75-1.75-.78-1.75-1.75.78-1.75 1.75-1.75m0-1.24c-1.37 0-2.49 1.12-2.49 2.49 0 .97-.78 1.75-1.75 1.75s-1.75-.78-1.75-1.75c0-3.3 2.69-5.99 5.99-5.99s5.99 2.69 5.99 5.99c0 .97-.78 1.75-1.75 1.75s-1.75-.78-1.75-1.75c0-1.37-1.12-2.49-2.49-2.49M9.89 11.07C9.89 4.97 14.85 0 20.95 0s11.06 4.96 11.06 11.06c0 .97-.78 1.75-1.75 1.75s-1.75-.78-1.75-1.75c0-4.17-3.39-7.56-7.56-7.56s-7.56 3.39-7.56 7.56c0 .97-.78 1.75-1.75 1.75s-1.75-.78-1.75-1.75Z"/>
</svg>
