<svg viewBox="0 0 24 24" xmlns="http://www.w3.org/2000/svg">
  <path d="M19.94-.02a4.06 4.06 0 0 0-4.05 4.06c0 2.56 3.08 5.72 3.43 6.07l.62.62.62-.62c.35-.35 3.43-3.51 3.43-6.07a4.05 4.05 0 0 0-4.05-4.06m0 8.23c-1.07-1.22-2.3-3.01-2.3-4.16a2.3 2.3 0 0 1 4.6 0c0 1.15-1.24 2.94-2.3 4.16m1.22-4.15c0 .67-.54 1.22-1.22 1.22s-1.22-.54-1.22-1.22.54-1.22 1.22-1.22 1.22.54 1.22 1.22M4.05 13.23C1.81 13.23 0 15.05 0 17.29c0 2.56 3.08 5.72 3.43 6.07l.62.62.62-.62c.35-.35 3.43-3.51 3.43-6.07a4.06 4.06 0 0 0-4.05-4.06m0 8.22c-1.07-1.22-2.3-3.01-2.3-4.16a2.3 2.3 0 0 1 4.6 0c0 1.15-1.23 2.94-2.3 4.16m1.21-4.14c0 .67-.54 1.22-1.22 1.22s-1.22-.54-1.22-1.22.54-1.22 1.22-1.22 1.22.54 1.22 1.22m12.38-3.25c0 2.22-1.8 4.02-4.02 4.02h-.86v-1.76h.86c1.25 0 2.27-1.02 2.27-2.27s-1.02-2.27-2.27-2.27H7.47c-2.37 0-4.3-1.93-4.3-4.31s1.93-4.31 4.3-4.31h3.08v1.76H7.47c-1.4 0-2.55 1.14-2.55 2.55s1.14 2.55 2.55 2.55h6.15c2.22 0 4.02 1.81 4.02 4.03Zm-3.61-9.12h-1.75V3.18h1.75zM9.29 16.33h1.75v1.76H9.29z"/>
</svg>
