<svg viewBox="0 0 48 48" xmlns="http://www.w3.org/2000/svg">
  <path d="m40.25 20.66-.88-.88c-.7-.7-6.86-7.01-6.86-12.03C32.5 3.47 35.97 0 40.25 0S48 3.48 48 7.75c0 5.02-6.16 11.33-6.86 12.03l-.88.88Zm0-18.17C37.36 2.49 35 4.85 35 7.74s3.24 7.1 5.25 9.32c2-2.22 5.25-6.43 5.25-9.32s-2.35-5.25-5.25-5.25m-2.49 5.29a2.49 2.49 0 1 0 4.98 0 2.49 2.49 0 0 0-4.98 0M7.74 47.99l-.88-.88C6.15 46.4 0 40.1 0 35.08c0-4.27 3.47-7.75 7.75-7.75s7.75 3.48 7.75 7.75c0 5.02-6.16 11.33-6.86 12.03l-.88.88Zm0-18.16c-2.89 0-5.25 2.36-5.25 5.25s3.24 7.1 5.25 9.32c2-2.22 5.25-6.43 5.25-9.32s-2.35-5.25-5.25-5.25m-2.49 5.28a2.49 2.49 0 1 0 4.98 0 2.49 2.49 0 0 0-4.98 0M35 28.23c0-4.24-3.44-7.69-7.68-7.69H14.74c-3.17 0-5.75-2.58-5.75-5.76s2.58-5.76 5.75-5.76H25v-2.5H14.74c-4.55 0-8.25 3.7-8.25 8.26s3.7 8.26 8.25 8.26h12.58a5.181 5.181 0 0 1 0 10.36h-4.38v2.5h4.38c4.23 0 7.68-3.45 7.68-7.69Zm-5.01-21.7h-2.5v2.5h2.5zm-9.55 26.88h-2.5v2.5h2.5z"/>
</svg>
