<svg viewBox="0 0 40 40" xmlns="http://www.w3.org/2000/svg">
  <path d="m39.06 13.91-6.78-2.71-.49-7.29-7.08 1.79L20.04.09 15.36 5.7 8.28 3.91l-.49 7.29-6.78 2.71 3.89 6.18-3.89 6.18 6.78 2.71.49 7.29 7.08-1.79 4.68 5.61 4.68-5.61 7.08 1.79.49-7.29 6.78-2.71-3.89-6.18 3.89-6.18Zm-3.34 11.27-4.27 1.71-1.31.53-.09 1.41-.31 4.59-4.46-1.13-1.37-.35-.91 1.09-2.95 3.54-2.95-3.54-.91-1.09-1.37.35-4.46 1.13-.31-4.59-.09-1.41-1.31-.53-4.27-1.71 2.45-3.9.75-1.2-.75-1.2-2.45-3.9 4.27-1.71 1.31-.53.09-1.41.31-4.59 4.46 1.13 1.37.35.91-1.09 2.95-3.54L23 7.13l.91 1.09 1.37-.35 4.46-1.13.31 4.59.09 1.41 1.31.53 4.27 1.71-2.45 3.9-.75 1.2.75 1.2zm-17.38-8.67c0-2.54-1.24-4.02-3.46-4.02s-3.48 1.48-3.48 4.02 1.24 4.04 3.48 4.04 3.46-1.48 3.46-4.04m-4.44 0c0-1.44.28-2.04.98-2.04s.96.6.96 2.04-.28 2.06-.96 2.06-.98-.6-.98-2.06m12.22-3.86-8.92 13.8h-3.02l8.9-13.8zm-.68 5.88c-2.24 0-3.48 1.48-3.48 4.02s1.24 4.04 3.48 4.04 3.46-1.48 3.46-4.04-1.24-4.02-3.46-4.02m0 6.08c-.7 0-.98-.6-.98-2.06s.28-2.04.98-2.04.96.6.96 2.04-.28 2.06-.96 2.06"/>
</svg>
