<svg viewBox="0 0 32 32" xmlns="http://www.w3.org/2000/svg">
  <path d="M11.89 14.81c-.56 0-.79-.48-.79-1.65s.22-1.63.79-1.63.77.48.77 1.63-.22 1.65-.77 1.65m8.45 1.55c-.56 0-.79.48-.79 1.63s.22 1.65.79 1.65.77-.48.77-1.65-.22-1.63-.77-1.63m7.78-.34 3.11 4.94-5.42 2.17-.39 5.83-5.66-1.43-3.74 4.49-3.74-4.49-5.66 1.43-.39-5.83-5.42-2.17 3.11-4.94L.8 11.08l5.42-2.17.39-5.83 5.66 1.43L16.01.02l3.74 4.49 5.66-1.43.39 5.83 5.42 2.17-3.11 4.94Zm-16.23.37c1.78 0 2.77-1.18 2.77-3.23s-.99-3.22-2.77-3.22-2.79 1.18-2.79 3.22.99 3.23 2.79 3.23m8.99-6.32h-2.43l-7.12 11.04h2.42l7.14-11.04Zm2.23 7.92c0-2.03-.99-3.22-2.77-3.22s-2.79 1.18-2.79 3.22.99 3.23 2.79 3.23 2.77-1.18 2.77-3.23"/>
</svg>
