<svg viewBox="0 0 32 32" xmlns="http://www.w3.org/2000/svg">
  <path d="m31.23 11.12-5.42-2.17-.39-5.83-5.66 1.43L16.01.06l-3.74 4.49-5.66-1.43-.39 5.83L.8 11.12l3.11 4.94L.8 21l5.42 2.17.39 5.83 5.66-1.43 3.74 4.49 3.74-4.49L25.41 29l.39-5.83L31.22 21l-3.11-4.94 3.11-4.94Zm-2.97 8.92-3.2 1.28-1.17.47-.08 1.26-.23 3.44-3.34-.84-1.22-.31-.81.97L16 28.95l-2.21-2.64-.81-.97-1.22.31-3.34.84-.23-3.44-.08-1.26-1.17-.47-3.2-1.28 1.83-2.91.67-1.07-.67-1.07-1.83-2.91 3.2-1.28 1.17-.47.08-1.26.23-3.44 3.34.84 1.22.31.81-.97L16 3.17l2.21 2.64.81.97 1.22-.31 3.34-.84.23 3.44.08 1.26 1.17.47 3.2 1.28-1.83 2.91-.67 1.07.67 1.07zm-7.38-9.93-7.14 11.04h-2.42l7.12-11.04h2.43Zm-.54 4.71c-1.79 0-2.79 1.18-2.79 3.22s.99 3.23 2.79 3.23 2.77-1.18 2.77-3.23-.99-3.22-2.77-3.22m0 4.86c-.56 0-.79-.48-.79-1.65s.22-1.63.79-1.63.77.48.77 1.63-.22 1.65-.77 1.65m-5.68-6.48c0-2.03-.99-3.22-2.77-3.22S9.1 11.16 9.1 13.2s.99 3.23 2.79 3.23 2.77-1.18 2.77-3.23m-3.56 0c0-1.15.22-1.63.79-1.63s.77.48.77 1.63-.22 1.65-.77 1.65-.79-.48-.79-1.65"/>
</svg>
