<svg viewBox="0 0 16 16" xmlns="http://www.w3.org/2000/svg">
  <path d="m15.58 5.57-2.71-1.09-.19-2.91-2.83.72L7.97.04 6.1 2.28l-2.83-.72-.19 2.91-2.72 1.1 1.56 2.47-1.56 2.47 2.71 1.09.19 2.91 2.83-.72 1.87 2.24 1.87-2.24 2.83.72.19-2.91 2.71-1.09L14 8.04l1.56-2.47Zm-2.83 3.27.6.95-1.04.42-.88.35-.06.94-.07 1.12-1.09-.27-.91-.23-.6.72-.72.86-.72-.86-.6-.72-.91.23-1.09.27-.07-1.12-.06-.94-.88-.35-1.04-.42.6-.95.5-.8-.5-.8-.6-.95 1.04-.42.88-.35.06-.94.07-1.12 1.09.27.91.23.6-.72.72-.86.72.86.6.72.91-.23 1.09-.27.07 1.12.06.94.88.35 1.04.42-.6.95-.5.8zM7.29 6.61C7.29 5.59 6.79 5 5.91 5s-1.39.59-1.39 1.61.5 1.62 1.39 1.62 1.38-.59 1.38-1.62m-1.78 0c0-.58.11-.82.39-.82s.38.24.38.82-.11.82-.38.82-.39-.24-.39-.82m4.61.81c-.9 0-1.39.59-1.39 1.61s.5 1.62 1.39 1.62 1.38-.59 1.38-1.62-.5-1.61-1.38-1.61m0 2.43c-.28 0-.39-.24-.39-.82s.11-.82.39-.82.38.24.38.82-.11.82-.38.82m.28-4.78-3.57 5.52H5.62l3.56-5.52z"/>
</svg>
