<svg viewBox="0 0 64 64" xmlns="http://www.w3.org/2000/svg">
  <path d="M23.85 29.56c-1.12 0-1.57-.96-1.57-3.3S22.73 23 23.85 23s1.54.96 1.54 3.26-.45 3.3-1.54 3.3m16.89 3.11c-1.12 0-1.57.96-1.57 3.26s.45 3.3 1.57 3.3 1.54-.96 1.54-3.3-.45-3.26-1.54-3.26m15.58-.68 6.22 9.89-10.85 4.34-.78 11.66-11.33-2.86-7.48 8.97-7.48-8.97-11.33 2.86-.78-11.66-10.85-4.34 6.22-9.89-6.21-9.89 10.85-4.34.78-11.66 11.33 2.86L32.1-.01l7.48 8.97L50.91 6.1l.78 11.66 10.85 4.34zm-32.47.74c3.55 0 5.54-2.37 5.54-6.46s-1.98-6.43-5.54-6.43-5.57 2.37-5.57 6.43 1.98 6.46 5.57 6.46m17.98-12.64h-4.86L22.73 42.17h4.83zm4.45 15.84c0-4.06-1.98-6.43-5.54-6.43s-5.57 2.37-5.57 6.43 1.98 6.46 5.57 6.46 5.54-2.37 5.54-6.46"/>
</svg>
