<svg viewBox="0 0 16 16" xmlns="http://www.w3.org/2000/svg">
  <path d="M10.51 8.98c0 .58-.11.82-.38.82s-.39-.24-.39-.82.11-.82.39-.82.38.24.38.82M6.29 6.57c0-.58-.11-.82-.38-.82s-.39.24-.39.82.11.82.39.82.38-.24.38-.82M14.02 8l1.56 2.47-2.71 1.09-.19 2.91-2.83-.72-1.87 2.24-1.87-2.24-2.83.72-.19-2.91-2.71-1.09L1.94 8 .36 5.52l2.71-1.09.19-2.91 2.83.72L7.97 0l1.87 2.24 2.83-.72.19 2.91 2.71 1.09-1.56 2.47Zm-8.12.18c.89 0 1.38-.59 1.38-1.62s-.5-1.61-1.38-1.61-1.39.59-1.39 1.61.5 1.62 1.39 1.62m4.5-3.16H9.18l-3.56 5.52h1.21zm1.11 3.96c0-1.01-.5-1.61-1.38-1.61s-1.39.59-1.39 1.61.5 1.62 1.39 1.62 1.38-.59 1.38-1.62"/>
</svg>
