<svg viewBox="0 0 40 40" xmlns="http://www.w3.org/2000/svg">
  <path d="M26.4 22.51c0 1.46-.28 2.06-.96 2.06s-.98-.6-.98-2.06.28-2.04.98-2.04.96.6.96 2.04m-10.56-6.04c0-1.44-.28-2.04-.96-2.04s-.98.6-.98 2.04.28 2.06.98 2.06.96-.6.96-2.06m23.22 9.76-6.78 2.71-.49 7.29-7.08-1.79-4.68 5.61-4.68-5.61-7.08 1.79-.03-.49-.45-6.8-6.78-2.71 3.89-6.18-3.89-6.18 6.78-2.71.49-7.29 7.08 1.79L20.04.04l4.68 5.61 7.08-1.79.49 7.29 6.78 2.71-3.89 6.18 2.39 3.79 1.5 2.39Zm-24.18-5.72c2.22 0 3.46-1.48 3.46-4.04s-1.24-4.02-3.46-4.02-3.48 1.48-3.48 4.02 1.24 4.04 3.48 4.04m11.24-7.9h-3.04l-8.9 13.8h3.02zm2.78 9.9c0-2.54-1.24-4.02-3.46-4.02s-3.48 1.48-3.48 4.02 1.24 4.04 3.48 4.04 3.46-1.48 3.46-4.04"/>
</svg>
