<svg viewBox="0 0 24 24" xmlns="http://www.w3.org/2000/svg">
  <path d="M15.8 13.51c0 .88-.17 1.24-.58 1.24s-.59-.36-.59-1.24.17-1.22.59-1.22.58.36.58 1.22M9.47 9.89c0-.86-.17-1.22-.58-1.22s-.59.36-.59 1.22.17 1.24.59 1.24.58-.36.58-1.24M23.4 8.32l-2.33 3.71 2.33 3.71-4.07 1.63-.29 4.37-4.25-1.07-2.81 3.36-2.81-3.36-4.25 1.07-.29-4.37-4.07-1.63 2.33-3.71L.56 8.32l4.07-1.63.29-4.37 4.25 1.07L11.99.03l2.81 3.36 4.25-1.07.29 4.37 4.07 1.63ZM8.89 12.31c1.33 0 2.08-.89 2.08-2.42s-.74-2.41-2.08-2.41-2.09.89-2.09 2.41.74 2.42 2.09 2.42m6.74-4.74h-1.82l-5.34 8.28h1.81zm1.67 5.94c0-1.52-.74-2.41-2.08-2.41s-2.09.89-2.09 2.41.74 2.42 2.09 2.42 2.08-.89 2.08-2.42"/>
</svg>
