<svg viewBox="0 0 40 40" xmlns="http://www.w3.org/2000/svg">
  <path d="M27.72 27.88h10.56v10.47c0 .9-.73 1.63-1.63 1.63h-8.93V27.89Zm12.26-7.31v5.06H27.69v-4.86h-2.25v4.86H13.05v-5.06c0-.9.73-1.63 1.63-1.63h4.96c-.53-.7-.86-1.57-.86-2.52 0-2.46 2-4.46 4.46-4.46 1.31 0 2.36.39 3.12 1.17.09.09.15.19.23.29.08-.1.14-.2.23-.29.76-.78 1.81-1.17 3.12-1.17 2.46 0 4.46 2 4.46 4.46 0 .95-.32 1.82-.86 2.52h4.8c.9 0 1.63.73 1.63 1.63Zm-12.25-2.12c.44 0 1.05 0 1.91-.01h.31c1.28 0 2.21-.85 2.21-2.01s-.99-2.21-2.21-2.21c-.69 0-1.19.16-1.52.49-.72.74-.74 2.41-.71 3.74Zm-6.69-2.02c0 1.17.93 2.01 2.21 2.01h.31c.86.01 1.48.02 1.91.02.03-1.33.01-3-.71-3.74-.32-.33-.82-.49-1.52-.49-1.22 0-2.21.99-2.21 2.21Zm-6.28 21.92c0 .9.73 1.63 1.63 1.63h9.09V27.89H14.76v10.47Zm-.91-20.39c-1.11.36-1.92 1.38-1.92 2.61v5.05H-.02V-.02h36.64v17.84h-1.43c.12-.44.19-.91.19-1.39 0-3.08-2.5-5.59-5.58-5.59-1.5 0-2.55.45-3.28.96-.63-.44-1.52-.82-2.71-.92v-.52H5.31v2.25h13.86c-.78.83-1.31 1.91-1.46 3.09H5.31v2.25h8.53ZM5.31 7.27H23.8V5.02H5.31z"/>
</svg>
