<svg viewBox="0 0 16 16" xmlns="http://www.w3.org/2000/svg">
  <path d="M15.99 8.38c0-.69-.56-1.25-1.25-1.25h-.2V0H-.01v10.18h4.33v.75h.7v3.82c0 .69.56 1.25 1.25 1.25h7.77c.69 0 1.25-.56 1.25-1.25v-3.82h.7V8.39ZM8.97 6.93h-.13c-.28 0-.57-.16-.57-.5 0-.32.26-.57.57-.57.19 0 .32.04.38.1.08.09.13.25.16.44-.02.18-.02.36-.02.53h-.4Zm2.48 0h-.52c0-.17 0-.35-.02-.53.03-.19.08-.35.16-.44.07-.07.2-.1.38-.1.32 0 .57.26.57.57 0 .34-.3.49-.57.49Zm-2.03 1.7v.7h-3.6v-.7zm1.5.7v-.7h3.57v.7zm-9.43-.66V1.5h11.55v3.62c-.38-.46-.95-.75-1.59-.75-.53 0-.96.15-1.3.43-.34-.28-.78-.43-1.3-.43-.56 0-1.07.23-1.45.59H2.59v1.5h4.18c0 .24.05.46.13.68H5.56c-.69 0-1.25.56-1.25 1.25v.29H1.49Zm5.03 2.26h2.91v3.57H6.52zm7.26 3.56h-2.86v-3.57h2.86zM9.94 4H2.59V2.5h7.34V4Z"/>
</svg>
