<svg viewBox="0 0 64 64" xmlns="http://www.w3.org/2000/svg">
  <path d="M62.09 31.02h-8.9c1.15-1.14 1.84-2.71 1.84-4.49 0-3.72-3.02-6.74-6.74-6.74-1.99 0-3.58.59-4.72 1.75-.27.28-.5.57-.71.89-.2-.31-.44-.61-.71-.89-1.14-1.16-2.73-1.75-4.72-1.75-3.72 0-6.74 3.02-6.74 6.74 0 1.78.69 3.35 1.84 4.49h-9.2c-1.03 0-1.88.84-1.88 1.88v8.68h19.96v-8.6c.67 0 1.13-.02 1.44-.05.29.03.72.04 1.31.05v8.6h19.79V32.9c0-1.03-.84-1.88-1.88-1.88Zm-16.55-7.55c.61-.62 1.51-.93 2.75-.93 2.2 0 3.99 1.79 3.99 3.99s-1.68 3.67-3.99 3.67h-.5c-1.7.02-2.8.03-3.51.03-.05-2.4-.11-5.36 1.26-6.76m-8.11-.93c1.24 0 2.14.3 2.75.93 1.37 1.4 1.31 4.37 1.26 6.76-.71 0-1.82 0-3.51-.02h-.5c-2.31 0-3.99-1.55-3.99-3.68s1.79-3.99 3.99-3.99M24.2 44.33h17.26v19.66H26.07c-1.03 0-1.88-.84-1.88-1.88V44.32Zm20.02 0h17.01v17.79c0 1.03-.84 1.88-1.88 1.88H44.22V44.34ZM29.97 29.64c-.27-.61-.46-1.27-.56-1.96H8.55v-2.75h20.92a8.15 8.15 0 0 1 3.31-5.05H8.55v-2.75h29.79v1.34c1.74.15 3.21.71 4.37 1.71 1.36-1.18 3.13-1.78 5.28-1.78 4.48 0 8.12 3.64 8.12 8.11 0 1.12-.23 2.17-.65 3.12h3.53V-.01H-.03v41.27h20.11v-8.37c0-1.79 1.46-3.25 3.25-3.25zM8.55 9.34h29.79v2.75H8.55z"/>
</svg>
