<svg viewBox="0 0 40 40" xmlns="http://www.w3.org/2000/svg">
  <path d="M39.98 20.57c0-.9-.73-1.63-1.63-1.63h-1.74V-.02H-.02v25.65h13.07v1.35h1.7v11.38c0 .9.73 1.63 1.63 1.63h20.28c.9 0 1.63-.73 1.63-1.63V26.98h1.7v-6.4Zm-2.25 4.15H27.69V21.2h10.04zm-14.49-10.5c.69 0 1.19.16 1.52.49.72.74.74 2.41.71 3.74-.44 0-1.05 0-1.91-.01h-.31c-1.28 0-2.21-.85-2.21-2.01s.99-2.21 2.21-2.21Zm5.2.49c.32-.33.82-.49 1.52-.49 1.22 0 2.21.99 2.21 2.21s-.93 2.01-2.21 2.01h-.31c-.86.01-1.48.02-1.91.02-.03-1.33-.01-3 .71-3.74Zm-2.99 6.49v3.52H15.31V21.2zm8.1-2.25c.46-.6.74-1.33.82-2.13v2.13zm-20.5 1.62v2.8H2.23V2.23h32.14v13.8c-.2-2.27-2.09-4.07-4.42-4.07-1.31 0-2.36.39-3.12 1.17-.09.09-.15.19-.23.29-.08-.1-.14-.2-.23-.29-.65-.66-1.51-1.03-2.56-1.13v-1.65H5.31v2.25h15.65c-.96.58-1.67 1.5-1.98 2.59H5.31v2.25h13.61c.14.55.38 1.05.71 1.48h-4.96c-.9 0-1.63.73-1.63 1.63Zm3.96 6.41h8.47v10.75h-8.47zm19.02 10.75h-8.31V26.98h8.31zM23.81 7.77H5.31V5.52H23.8v2.25Z"/>
</svg>
