<svg viewBox="0 0 32 32" xmlns="http://www.w3.org/2000/svg">
  <path d="M30.5 15.02h-3.53c.37-.55.58-1.2.58-1.91a3.66 3.66 0 0 0-3.65-3.66c-1.08 0-1.94.33-2.57.97-.04.04-.07.09-.11.14-.04-.05-.07-.1-.11-.14-.63-.64-1.49-.97-2.57-.97-2.02 0-3.65 1.64-3.65 3.66 0 .71.22 1.36.58 1.91h-3.65c-.83 0-1.5.67-1.5 1.5v4.12h9.88v-3.91h2v3.91H32v-4.12c0-.83-.67-1.5-1.5-1.5m-7.74-3.2c.09-.09.36-.36 1.14-.36.91 0 1.66.74 1.66 1.66 0 .99-.83 1.5-1.66 1.5h-.25c-.63 0-1.09.01-1.43.01-.02-1.02 0-2.27.54-2.81m-4.21-.36c.78 0 1.05.27 1.14.36.53.54.56 1.79.54 2.81-.34 0-.8 0-1.43-.01h-.25c-.82 0-1.66-.52-1.66-1.5 0-.91.74-1.66 1.66-1.66m-6.87 11.18h8.55V32h-7.05c-.83 0-1.5-.67-1.5-1.5zm10.54 0h8.42v7.86c0 .83-.67 1.5-1.5 1.5h-6.92zM4.25 12.54h9.7c.11-.89.47-1.7 1.01-2.36H4.25v-2h14.3v.28c1.17 0 2.01.33 2.61.73.6-.39 1.45-.73 2.61-.73a4.656 4.656 0 0 1 4.56 5.57h.88V0H0v20.45h9.32v-3.93c0-.81.39-1.52.99-1.98H4.25zm0-8.73h14.3v2H4.25z"/>
</svg>
