<svg viewBox="0 0 16 16" xmlns="http://www.w3.org/2000/svg">
  <path d="M2.59 6.71v-1.5h3.68a2.82 2.82 0 0 1 2.57-1.68c.54 0 .96.12 1.3.29.34-.17.76-.29 1.3-.29 1.54 0 2.79 1.24 2.82 2.77h.27V0H-.01v10.18h3.58V8.31c0-.65.32-1.23.8-1.59H2.6Zm0-4.71h7.19v1.5H2.59zm12.15 5.05h-1.11c.08-.22.13-.45.13-.7 0-1.14-.93-2.07-2.07-2.07-.59 0-1.06.18-1.42.53-.36-.35-.83-.53-1.42-.53-1.14 0-2.07.93-2.07 2.07 0 .25.05.48.13.7H5.57c-.69 0-1.25.56-1.25 1.25V10h5.1V8.35h1.5V10h5.07V8.3c0-.69-.56-1.25-1.25-1.25M11.3 5.88c.07-.07.2-.1.38-.1.32 0 .57.26.57.57 0 .34-.3.49-.57.49h-.59c0-.39.04-.8.2-.97Zm-2.45-.1c.19 0 .32.04.38.1.16.16.19.58.2.97h-.59c-.28 0-.57-.16-.57-.5 0-.32.26-.57.57-.57ZM5.02 11.5h4.41v4.49H6.27c-.69 0-1.25-.56-1.25-1.25zm5.91 0h4.36v3.24c0 .69-.56 1.25-1.25 1.25h-3.11z"/>
</svg>
