<svg viewBox="0 0 64 64" xmlns="http://www.w3.org/2000/svg">
  <path d="M63.97 32.9c0-1.03-.84-1.88-1.88-1.88h-3.11V-.01H-.03v41.27h21.49v1.8h2.74v19.05c0 1.03.84 1.88 1.88 1.88h33.27c1.03 0 1.88-.84 1.88-1.88V43.06h2.74V32.89Zm-2.75 7.41H44.18v-6.54h17.04zM37.43 22.54c1.24 0 2.14.3 2.75.93.97.99 1.22 2.77 1.27 4.57-.01.54 0 1.06 0 1.57 0 .21 0 .42-.01.62-.71 0-1.82 0-3.51-.02h-.5c-2.31 0-3.99-1.55-3.99-3.68s1.79-3.99 3.99-3.99m10.8 7.66h-.5c-1.7.02-2.8.03-3.51.03 0-.2 0-.41-.01-.62 0-.51.02-1.04 0-1.57.05-1.8.29-3.58 1.27-4.57.61-.62 1.51-.93 2.75-.93 2.2 0 3.99 1.79 3.99 3.99s-1.68 3.67-3.99 3.67m-6.81 3.57v6.54H24.21v-6.54zm-19.96-.87v5.61H2.72V2.74h53.52v28.28h-3.11c1.15-1.14 1.84-2.71 1.84-4.49 0-3.72-3.02-6.74-6.74-6.74-1.99 0-3.58.59-4.72 1.75-.26.26-.48.55-.68.85-.2-.3-.42-.59-.68-.85-.96-.98-2.25-1.53-3.81-1.68v-2.72H8.55v2.75h27.77a6.74 6.74 0 0 0-5.43 5.05H8.55v2.75H30.8c.23 1.3.84 2.45 1.74 3.33h-9.2c-1.03 0-1.88.84-1.88 1.88m5.49 10.17h14.51v18.17H26.95zm31.52 18.17H44.21V43.07h14.26zM38.34 12.09H8.55V9.34h29.79z"/>
</svg>
