<svg viewBox="0 0 48 48" xmlns="http://www.w3.org/2000/svg">
  <path d="M47.98 24.7c0-.96-.79-1.75-1.75-1.75h-2.19V0H-.02v30.81H15.8v1.57h2.05v13.87c0 .96.79 1.75 1.75 1.75h24.58c.97 0 1.75-.79 1.75-1.75V32.38h2.05v-7.69Zm-2.5 5.19H33.2v-4.44h12.28zM27.95 17.06c.87 0 1.49.2 1.9.63.92.94.92 2.96.88 4.67-.53 0-1.3 0-2.4-.02h-.37c-1.6 0-2.75-1.06-2.75-2.52s1.24-2.75 2.75-2.75Zm6.18.63c.41-.42 1.03-.63 1.9-.63 1.52 0 2.75 1.24 2.75 2.75s-1.16 2.52-2.75 2.52h-.37c-1.11.01-1.87.02-2.4.02-.04-1.7-.04-3.73.88-4.67Zm-3.43 7.76v4.44H18.3v-4.44zm-14.9-.75v3.62H2.48V2.5h39.06v20.44h-1.38c.7-.85 1.12-1.92 1.12-3.13 0-2.9-2.36-5.25-5.26-5.25-1.55 0-2.79.46-3.68 1.38-.13.14-.24.29-.35.44-.11-.15-.22-.31-.35-.44-.76-.77-1.77-1.2-3-1.32v-2.03H6.39v2.5h19.32a5.28 5.28 0 0 0-2.8 3.32H6.39v2.5h16.42c.17.77.52 1.46 1 2.04h-6.26c-.97 0-1.75.79-1.75 1.75m4.55 7.69h10.39v13.12H20.35zM43.43 45.5h-10.2V32.38h10.2zM6.39 6.76h22.24v2.5H6.39z"/>
</svg>
