<svg viewBox="0 0 40 40" xmlns="http://www.w3.org/2000/svg">
  <path d="M0 7.25V.01h7.24c.62 0 1.13.5 1.13 1.12s-.5 1.12-1.13 1.12h-3.4l5.41 5.4-1.59 1.59-5.41-5.39v3.4c0 .62-.5 1.12-1.13 1.12S0 7.87 0 7.25m7.67 23.52-5.41 5.4v-3.4c0-.62-.5-1.12-1.13-1.12s-1.11.5-1.11 1.12v7.24h7.25c.62 0 1.13-.5 1.13-1.12s-.5-1.12-1.13-1.12h-3.4l5.41-5.4-1.59-1.59Zm31.2.87c-.62 0-1.13.5-1.13 1.12v3.4l-5.41-5.4-1.59 1.59 5.41 5.4h-3.4c-.62 0-1.13.5-1.13 1.12s.5 1.12 1.13 1.12h7.24v-7.24c0-.62-.5-1.12-1.13-1.12ZM32.76.02c-.62 0-1.13.5-1.13 1.12s.5 1.12 1.13 1.12h3.4l-5.41 5.4 1.59 1.59 5.41-5.4v3.4c0 .62.5 1.12 1.13 1.12s1.13-.5 1.13-1.12V.02zM22.01 23.31h1.16l-.57-2.08-.58 2.08Zm9.27-9.01v-3.58H8.72v3.58h22.55Zm0 13.73c0 1.45-1.18 2.62-2.63 2.62h-17.3c-1.45 0-2.63-1.18-2.63-2.62V16.55h22.55v11.48Zm-12.12-3.88c0-1-.6-1.59-1.78-1.9l-.56-.15c-.46-.12-.67-.25-.67-.47 0-.28.33-.43.89-.43.65 0 1.13.14 1.68.36v-1.58c-.54-.18-1.1-.26-1.67-.26-1.7 0-2.76.77-2.76 2.05 0 .93.5 1.47 1.64 1.79l.52.15c.69.19.84.32.84.53 0 .35-.45.48-1 .48-.64 0-1.3-.22-1.87-.48v1.58c.49.19 1.09.38 2.09.38 1.77 0 2.67-.84 2.67-2.05Zm6.83 1.94-2.07-6.27H21.3l-2.07 6.27h1.99l.36-1.29h1.99l.35 1.29h2.06Z"/>
</svg>
