<svg viewBox="0 0 16 16" xmlns="http://www.w3.org/2000/svg">
  <path d="M0 3.11V0h3.1c.41 0 .75.34.75.75s-.34.75-.75.75h-.54L4.1 3.04 3.04 4.1 1.5 2.56v.54c0 .41-.34.75-.75.75S0 3.51 0 3.1Zm3.04 8.8L1.5 13.45v-.54c0-.41-.34-.75-.75-.75s-.75.33-.75.74V16h3.1c.41 0 .75-.34.75-.75s-.34-.75-.75-.75h-.54l1.54-1.54-1.06-1.06Zm12.21.24c-.41 0-.75.34-.75.75v.54l-1.54-1.54-1.06 1.06 1.54 1.54h-.54c-.41 0-.75.34-.75.75s.34.75.75.75H16v-3.1c0-.41-.34-.75-.75-.75m-2.29-8.06 1.54-1.54v.54c0 .41.34.75.75.75s.75-.34.75-.75V0h-3.1c-.41 0-.75.34-.75.75s.34.75.75.75h.54L11.9 3.04l1.06 1.06Zm-4.19 5.2h.44l-.22-.8zM3.35 5.37h9.3V4.1h-9.3zm7.05 7.03H5.59c-1.24 0-2.25-1.01-2.25-2.25V6.87h9.3v3.28c0 1.24-1.01 2.25-2.25 2.25ZM7.68 9.61c0-.38-.23-.61-.68-.73l-.22-.06c-.18-.05-.26-.09-.26-.18 0-.11.12-.16.34-.16.25 0 .43.05.65.14v-.61c-.21-.07-.42-.1-.64-.1-.65 0-1.06.3-1.06.79 0 .36.19.57.63.69l.2.06c.27.07.32.12.32.2 0 .13-.17.19-.38.19-.24 0-.5-.08-.72-.19v.61c.19.07.42.15.8.15.68 0 1.03-.32 1.03-.79Zm2.62.74-.8-2.41h-1l-.8 2.41h.76l.14-.5h.76l.14.5h.79Z"/>
</svg>
