<svg viewBox="0 0 64 64" xmlns="http://www.w3.org/2000/svg">
  <path d="M0 11.29V0h11.29c.76 0 1.37.62 1.37 1.37s-.62 1.37-1.37 1.37h-6.6l9.52 9.53-1.95 1.95-9.5-9.53v6.6c0 .76-.62 1.37-1.37 1.37S0 12.05 0 11.29m12.27 38.49L2.75 59.3v-6.6c0-.76-.62-1.37-1.37-1.37S0 51.94 0 52.7v11.29h11.29c.76 0 1.37-.62 1.37-1.37s-.62-1.37-1.37-1.37h-6.6l9.52-9.52-1.95-1.95Zm50.34 1.54c-.76 0-1.37.62-1.37 1.37v6.6l-9.52-9.52-1.95 1.95 9.52 9.52h-6.6c-.76 0-1.37.62-1.37 1.37s.62 1.37 1.37 1.37h11.29V52.69c0-.76-.62-1.37-1.37-1.37M52.71 0c-.76 0-1.37.62-1.37 1.37s.62 1.37 1.37 1.37h6.6l-9.52 9.52 1.95 1.95 9.52-9.52v6.6c0 .76.62 1.37 1.37 1.37S64 12.04 64 11.29V0zm-2.89 22.72v-5.33H14.18v5.33zM35.25 37.36h1.87L36.19 34zm14.57 8.59c0 1.58-1.29 2.87-2.87 2.87h-29.9c-1.58 0-2.87-1.29-2.87-2.87V25.47h35.64zm-19.17-7.24c0-1.62-.97-2.57-2.88-3.07l-.91-.24c-.75-.19-1.09-.4-1.09-.76 0-.46.53-.69 1.44-.69 1.06 0 1.82.22 2.72.59v-2.56c-.88-.29-1.78-.43-2.7-.43-2.75 0-4.47 1.25-4.47 3.32 0 1.5.81 2.38 2.64 2.89l.84.24c1.12.31 1.35.51 1.35.85 0 .56-.72.78-1.62.78-1.03 0-2.1-.35-3.03-.78v2.56c.79.31 1.76.62 3.38.62 2.86 0 4.32-1.37 4.32-3.32Zm11.03 3.14-3.35-10.14H34.1l-3.35 10.14h3.22l.59-2.09h3.22l.57 2.09z"/>
</svg>
