<svg viewBox="0 0 48 48" xmlns="http://www.w3.org/2000/svg">
  <path d="M37.47 12.92H10.53v21.06c0 1.52 1.23 2.75 2.75 2.75h21.44c1.52 0 2.75-1.23 2.75-2.75zm-2.5 2.5v3.32H13.03v-3.32zm-.25 18.81H13.28c-.14 0-.25-.11-.25-.25V21.24h21.94v12.74c0 .14-.11.25-.25.25m-11.73-5.24c0 1.45-1.08 2.47-3.21 2.47-1.2 0-1.92-.23-2.51-.46v-1.9c.69.32 1.48.58 2.25.58.66 0 1.2-.16 1.2-.58 0-.25-.17-.4-1-.63l-.62-.17c-1.36-.38-1.96-1.04-1.96-2.15 0-1.54 1.28-2.46 3.32-2.46.69 0 1.35.1 2.01.32v1.9c-.67-.27-1.23-.44-2.02-.44-.68 0-1.07.17-1.07.51 0 .27.25.42.81.57l.68.17c1.42.37 2.14 1.08 2.14 2.28Zm2.57-5.19-2.49 7.53h2.39l.44-1.55h2.39l.43 1.55h2.48l-2.49-7.53h-3.14Zm.85 4.19.7-2.5.69 2.5zM0 8.62V0h8.62a1.25 1.25 0 0 1 0 2.5H4.27l6.68 6.69-1.77 1.77-6.67-6.69v4.35c0 .69-.56 1.25-1.25 1.25S0 9.31 0 8.62m10.95 30.2-6.68 6.69h4.35a1.25 1.25 0 0 1 0 2.5H0v-8.62a1.25 1.25 0 0 1 2.5 0v4.35l6.68-6.69zm37.04.56V48h-8.62a1.25 1.25 0 0 1 0-2.5h4.35l-6.68-6.69 1.77-1.77 6.68 6.69v-4.35a1.25 1.25 0 0 1 2.5 0M48 0v8.62a1.25 1.25 0 0 1-2.5 0V4.27l-6.68 6.69-1.77-1.77 6.69-6.69h-4.35c-.69 0-1.25-.56-1.25-1.25S38.69 0 39.38 0z"/>
</svg>
