<svg viewBox="0 0 24 24" xmlns="http://www.w3.org/2000/svg">
  <path d="M18.86 6.29H5.14v9.81c0 1.31 1.07 2.38 2.38 2.38h8.97c1.31 0 2.38-1.07 2.38-2.38V6.29Zm-1.75 1.75v1.1H6.89v-1.1zm-.63 8.68H7.52c-.34 0-.62-.28-.62-.62v-5.21h10.22v5.21c0 .34-.28.62-.62.62Zm-4.98-2.29c0 .71-.53 1.21-1.58 1.21-.59 0-.94-.11-1.23-.23v-.93c.34.16.73.28 1.1.28.33 0 .59-.08.59-.28 0-.12-.09-.2-.49-.31l-.31-.09c-.67-.19-.96-.51-.96-1.05 0-.75.63-1.21 1.63-1.21.34 0 .66.05.98.16v.93c-.33-.13-.61-.21-.99-.21-.33 0-.53.09-.53.25 0 .13.12.21.4.28l.33.09c.7.18 1.05.53 1.05 1.12Zm1.27-2.55-1.22 3.7h1.17l.21-.76h1.17l.21.76h1.22l-1.22-3.7zm.41 2.06.34-1.23.34 1.23zM0 4.49V0h4.48c.48 0 .88.39.88.88s-.39.88-.88.88h-1.5l2.83 2.83-1.24 1.24L1.75 3v1.5c0 .48-.39.88-.88.88s-.88-.39-.88-.88Zm5.82 14.93-2.83 2.83h1.5c.48 0 .88.39.88.88s-.39.88-.88.88H0v-4.48c0-.48.39-.88.88-.88s.88.39.88.88v1.5l2.83-2.83 1.24 1.24Zm18.18.09v4.48h-4.48c-.48 0-.88-.39-.88-.88s.39-.88.88-.88h1.5l-2.83-2.83 1.24-1.24 2.83 2.83v-1.5c0-.48.39-.88.88-.88s.88.39.88.88ZM18.18 4.58l2.83-2.83h-1.5c-.48 0-.88-.39-.88-.88s.39-.88.88-.88h4.48v4.48c0 .48-.39.88-.88.88s-.88-.39-.88-.88v-1.5L19.4 5.8l-1.24-1.24Z"/>
</svg>
