<svg viewBox="0 0 64 64" xmlns="http://www.w3.org/2000/svg">
  <path d="M49.82 17.39H14.18v28.56c0 1.58 1.29 2.87 2.87 2.87h29.9c1.58 0 2.87-1.29 2.87-2.87zm-2.75 2.75v3.83H16.92v-3.83zm-.12 25.93h-29.9c-.07 0-.12-.06-.12-.12V26.72h30.15v19.23c0 .07-.06.12-.12.12Zm-16.3-7.36c0 1.95-1.45 3.32-4.32 3.32-1.62 0-2.59-.31-3.38-.62v-2.56c.93.43 2 .78 3.03.78.9 0 1.62-.22 1.62-.78 0-.34-.24-.54-1.35-.85l-.84-.24c-1.84-.51-2.64-1.4-2.64-2.89 0-2.07 1.72-3.32 4.47-3.32.93 0 1.82.13 2.7.43v2.56c-.9-.37-1.66-.59-2.72-.59-.91 0-1.44.24-1.44.69 0 .37.34.57 1.09.76l.91.24c1.91.5 2.88 1.45 2.88 3.07Zm3.45-7-3.35 10.14h3.22l.59-2.09h3.22l.57 2.09h3.33l-3.35-10.14zm1.15 5.65.94-3.36.93 3.36zM0 11.29V0h11.29c.76 0 1.37.62 1.37 1.37s-.62 1.37-1.37 1.37h-6.6l9.52 9.53-1.95 1.95-9.5-9.53v6.6c0 .76-.62 1.37-1.37 1.37S0 12.05 0 11.29m14.22 40.43L4.7 61.24h6.6c.76 0 1.37.62 1.37 1.37s-.62 1.37-1.37 1.37H0V52.69c0-.76.62-1.37 1.37-1.37s1.37.62 1.37 1.37v6.6l9.52-9.52 1.95 1.95Zm49.77.98v11.29H52.7c-.76 0-1.37-.62-1.37-1.37s.62-1.37 1.37-1.37h6.6l-9.52-9.52 1.95-1.95 9.52 9.52v-6.6c0-.76.62-1.37 1.37-1.37s1.37.62 1.37 1.37M64 0v11.29c0 .76-.62 1.37-1.37 1.37s-1.37-.62-1.37-1.37v-6.6l-9.52 9.52-1.95-1.95 9.52-9.52h-6.6c-.76 0-1.37-.62-1.37-1.37S51.95 0 52.71 0z"/>
</svg>
