<svg viewBox="0 0 40 40" xmlns="http://www.w3.org/2000/svg">
  <path fill="#1e1e1c" d="M37.6 0H23.22v5.14h-7.25V0H8.32L-.02 8.34v29.28A2.38 2.38 0 0 0 2.36 40h25.61v-5.3h7.54V40h2.08a2.38 2.38 0 0 0 2.38-2.38V2.38A2.364 2.364 0 0 0 37.6 0M20 30.97c-4.48 0-8.12-3.65-8.12-8.14s3.64-8.14 8.12-8.14 8.12 3.65 8.12 8.14-3.64 8.14-8.12 8.14M30.62 6.76c0 1.86-1.64 3.37-3.66 3.37H10.37V0h2.25v7.87h14.34c.78 0 1.41-.5 1.41-1.12V0h2.25v6.75Zm-12.4-3.87V0h2.75v2.89zm7.65 19.93c0 3.25-2.64 5.89-5.88 5.89s-5.88-2.64-5.88-5.89 2.64-5.89 5.88-5.89 5.88 2.64 5.88 5.89m4.36 14.13h3.04V40h-3.04z"/>
</svg>
