<svg viewBox="0 0 48 48" xmlns="http://www.w3.org/2000/svg">
  <path fill="#1e1e1c" d="M31.25 27.22c0 4-3.25 7.25-7.25 7.25s-7.25-3.25-7.25-7.25S20 19.97 24 19.97s7.25 3.25 7.25 7.25M47.98 2.63v42.72a2.64 2.64 0 0 1-2.65 2.64H2.63c-1.46 0-2.65-1.18-2.65-2.64V10l10-10h35.35c1.46 0 2.65 1.19 2.65 2.64ZM18.86 5.26h8.5V.01h-2.5v2.75h-3.5V.01h-2.5zm-6.11 6H31.4c2.12 0 3.85-1.6 3.85-3.56V.01h-2.5V7.7c0 .58-.62 1.06-1.35 1.06H15.25V.01h-2.5zm21 15.96c0-5.38-4.37-9.75-9.75-9.75s-9.75 4.37-9.75 9.75 4.37 9.75 9.75 9.75 9.75-4.37 9.75-9.75m8.76 13.07h-8.82v7.55h2.5v-5.05h3.82v5.05h2.5z"/>
</svg>
