<svg viewBox="0 0 64 64" xmlns="http://www.w3.org/2000/svg">
  <path fill="#1e1e1c" d="M60.47.03H48.53v12.06c0 2.76-2.33 5.01-5.19 5.01H16.51V.03h-3.18L0 13.36V60.5c0 1.94 1.58 3.52 3.53 3.52h56.95c1.95 0 3.53-1.58 3.53-3.52V3.55c0-1.94-1.59-3.52-3.53-3.52ZM32 50.21c-7.68 0-13.92-6.25-13.92-13.93S24.32 22.35 32 22.35s13.92 6.25 13.92 13.93S39.68 50.21 32 50.21M56.1 64h-2.75v-5.62H48.1V64h-2.75v-8.38H56.1zM31.51 5.45h-4.05V.03h4.05zm11.84 8.89H19.27V.03h5.45V8.2h9.55V.03h11.52v12.06c0 1.25-1.09 2.26-2.44 2.26Zm-.18 21.94c0 6.16-5.01 11.18-11.17 11.18s-11.17-5.01-11.17-11.18S25.84 25.1 32 25.1s11.17 5.01 11.17 11.18"/>
</svg>
