<svg viewBox="0 0 16 16" xmlns="http://www.w3.org/2000/svg">
  <path fill="#1e1e1c" d="M14.25 0H3.46L0 3.46v10.79C0 15.22.78 16 1.75 16h12.5c.96 0 1.75-.79 1.75-1.75V1.75C15.99.78 15.21 0 14.25 0m-8.5 1.5h5v1.59c0 .14-.11.25-.25.25H5.75V1.49Zm8.75 12.75c0 .14-.11.25-.25.25H13v-1.48h-1.5v1.48H1.74c-.14 0-.25-.11-.25-.25V4.08L4.07 1.5h.18v3.35h6.25c.96 0 1.75-.79 1.75-1.75V1.51h2c.14 0 .25.11.25.25v12.5ZM8 6C6.35 6 5 7.35 5 9s1.34 3 3 3 3-1.35 3-3-1.34-3-3-3m0 4.51c-.83 0-1.5-.67-1.5-1.5s.67-1.5 1.5-1.5 1.5.67 1.5 1.5-.67 1.5-1.5 1.5"/>
</svg>
