<svg viewBox="0 0 32 32" xmlns="http://www.w3.org/2000/svg">
  <path fill="#1e1e1c" d="M28.99 0H6.83L-.01 6.84V29c0 1.65 1.34 3 3 3H29c1.65 0 3-1.35 3-3V3a3.01 3.01 0 0 0-3.01-3M10.8 2h1.33v2.88h4.74V2h5.36v3.92c0 .55-.45 1-1 1H10.79V2Zm3.08 0h1.25v1.13h-1.25zm11.95 28h-2.04v-2.04h2.04zm4.16-1c0 .55-.45 1-1 1h-1.16v-4.04H21.8V30H2.99c-.55 0-1-.45-1-1V7.67L7.65 2h1.14v6.92h12.44c1.65 0 3-1.35 3-3V2h4.76c.55 0 1 .45 1 1zM16 12.08c-3.3 0-5.99 2.69-5.99 6s2.69 6 5.99 6 5.99-2.69 5.99-6-2.69-6-5.99-6m0 10.01c-2.2 0-3.99-1.79-3.99-4s1.79-4 3.99-4 3.99 1.79 3.99 4-1.79 4-3.99 4"/>
</svg>
