<svg viewBox="0 0 48 48" xmlns="http://www.w3.org/2000/svg">
  <path d="M45.22-.03H2.72C1.21-.03-.03 1.2-.03 2.72v28.4c0 1.52 1.23 2.76 2.75 2.76h16.24v11.58H8.33v2.5h31.31v-2.5H29.03V33.88h16.18c1.52 0 2.75-1.24 2.75-2.76V2.72c0-1.52-1.23-2.76-2.75-2.76ZM26.54 45.46h-5.07V33.88h5.07zm18.93-14.34c0 .14-.11.25-.25.25H2.72c-.14 0-.25-.11-.25-.25V2.72c0-.14.11-.25.25-.25h42.49c.14 0 .25.11.25.25v28.4ZM31.44 9.51l7.49 7.51-7.49 7.51h-4.19l5.69-5.71h-7.19v5.71h-3.6v-5.71h-7.19l5.99 5.71h-4.49l-7.49-7.51 7.49-7.51h4.49l-5.99 5.71h7.19V9.51h3.6v5.71h7.19l-5.69-5.71z"/>
</svg>
