<svg viewBox="0 0 48 48" xmlns="http://www.w3.org/2000/svg">
  <path d="M35.66.01H12.34c-2.07 0-3.75 1.68-3.75 3.75v40.5c0 2.07 1.68 3.75 3.75 3.75h23.32c2.07 0 3.75-1.68 3.75-3.75V3.76c0-2.07-1.68-3.75-3.75-3.75m-23.32 2.5h23.32c.69 0 1.25.56 1.25 1.25v31.49H11.09V3.76c0-.69.56-1.25 1.25-1.25m23.32 43H12.34c-.69 0-1.25-.56-1.25-1.25v-6.51h25.82v6.51c0 .69-.56 1.25-1.25 1.25M22.75 40.4h2.5v2.71h-2.5zm-3.83-17.83-5.08-5.08 5.08-5.08h3.05l-4.06 3.86h4.88v-3.86h2.44v3.86h4.88l-3.86-3.86h2.85l5.08 5.08-5.08 5.08h-2.85l3.86-3.86h-4.88v3.86h-2.44v-3.86h-4.88l4.06 3.86z"/>
</svg>
