<svg viewBox="0 0 64 64" xmlns="http://www.w3.org/2000/svg">
  <path d="M48.31 0H15.69c-2.28 0-4.13 1.85-4.13 4.13v55.75c0 2.27 1.85 4.12 4.12 4.12H48.3c2.27 0 4.12-1.85 4.12-4.12V4.13C52.44 1.85 50.59 0 48.31 0M15.69 2.75h32.62c.76 0 1.38.62 1.38 1.37v45.81H14.31V4.13c0-.76.62-1.37 1.38-1.37Zm32.62 58.5H15.69c-.76 0-1.38-.62-1.38-1.37v-7.19h35.38v7.19c0 .76-.62 1.37-1.38 1.37m-17.69-5.74h2.75v2.75h-2.75zm-5.39-25.42-6.77-6.77 6.77-6.77h4.06l-5.42 5.15h6.5v-5.15h3.25v5.15h6.5l-5.15-5.15h3.79l6.77 6.77-6.77 6.77h-3.79l5.15-5.15h-6.5v5.15h-3.25v-5.15h-6.5l5.42 5.15z"/>
</svg>
