<svg viewBox="0 0 16 16" xmlns="http://www.w3.org/2000/svg">
  <path d="M11.5 0h-7c-.96 0-1.75.79-1.75 1.75v12.49c0 .97.79 1.75 1.75 1.75h7c.96 0 1.75-.79 1.75-1.75V1.75C13.25.78 12.46 0 11.5 0m-7 1.5h7c.14 0 .25.11.25.25v8.17h-7.5V1.75c0-.14.11-.25.25-.25m7 13h-7c-.14 0-.25-.11-.25-.25v-2.82h7.5v2.82c0 .14-.11.25-.25.25m-4.25-2.25h1.5v1.5h-1.5zm-.94-4.73-1.69-1.7 1.69-1.7h1.02L5.98 5.41h1.63V4.12h.81v1.29h1.63L8.76 4.12h.95l1.69 1.7-1.69 1.7h-.95l1.29-1.29H8.42v1.29h-.81V6.23H5.98l1.35 1.29z"/>
</svg>
