<svg viewBox="0 0 40 40" xmlns="http://www.w3.org/2000/svg">
  <path d="M27.28 22.71v-1.49h-2.15v-1.6h2.03v-2.24h-2.03v-2.96h2.1v-2.24h-2.1V6.12h2.1V3.88h-2.1V2.31c0-1.24-1.01-2.24-2.25-2.24H2.26c-.31 0-.61.06-.88.18A2.23 2.23 0 0 0 .01 2.31v29.15h25.11v-5.84h4.4v-2.24h-2.25v-.67ZM12.1 7.74h1.32v4.42h4.3v2.24h-4.3v-2.24h-2.25V9.98H9.09V7.74zM3.23 3.65h6.24v2.24H5.48v3.78H3.23zm6.05 19.26H3.23V16.7h2.25v3.97h3.8zm2.57-4.24H7.09V14.2h2.25v2.23h2.51zm3.47 3.85h-2.25v-2.24h2.25zm2.26-2.21h-2.25v-2.24h2.24v-2.2h2.25v2.24h-2.24zm2.26 2.21h-2.25v-2.24h2.25zm0-16.59h-4.37V3.69h4.37zm14.42 19.83h-2.23v-2.24h2.23v-2.17h2.25v4.42h-2.25Zm-3.41-13.7h-2.07V9.82h2.26v-2.2h2.25v4.45h-2.44Zm1.32 5.31h-2.25v-2.24h2.25zm4.73-2.25h-2.25v-2.24h2.25zm-4.71 6.73h-2.25v-2.24h2.17v-2.23h2.25v2.24h-2.17zm4.78-13.58h-2.25V6.09H32.5V3.85h4.48v4.42Zm3.04-8.34v10.36h-2.25V2.17h-7.81V-.07zM37.76 19.4h2.25v10.03h-10.4v-2.24h8.15v-7.78ZM.01 37.69a2.255 2.255 0 0 0 2.25 2.25h20.61c1.24 0 2.25-1 2.25-2.24v-3.99H.01v3.99Zm11.36-2.55h2.25v2.24h-2.25z"/>
</svg>
