<svg viewBox="0 0 32 32" xmlns="http://www.w3.org/2000/svg">
  <path d="M23.63 19.13h-2v-4h2v2h2v2zm1.92-5.36v1.94h2v-3.94h-2V9.82h-2v2h2zm-5.54-1.99v12.45h-20V2a2 2 0 0 1 2-2h16c.41 0 .8.13 1.12.34.21.14.4.33.54.54.22.32.34.7.34 1.12v7.79H22v2h-1.99ZM8.8 8.76h2v-2h-2zM2.67 8.1h2V5.18h3.07v-2H2.67zm4.92 8.1H4.67v-3.07h-2v5.07h4.92zm2.88-4.78H8.48V9.43h-2v3.99h3.99zm2.31-2.63h-2v2h2zm2.97 2.57h-2v2h2zm.02-6.91h-2v2h2zm9.76 2.4v1.99h2V4.85h-4v2zM23.9-.01v2h6.12v6.39h2V-.01zm6.11 21.8h-6.39v2h8.39v-8.12h-2zm-30 4.44h20v3.76c0 1.1-.9 2-2 2h-16c-1.1 0-2-.9-2-2zm9 3.6h2v-2h-2z"/>
</svg>
