<svg viewBox="0 0 16 16" xmlns="http://www.w3.org/2000/svg">
  <path d="M11.81 10.11h-1.39V7.13h1.4v1.48h1.4v1.5h-1.4Zm-1.76-3.93v8.32c0 .83-.67 1.5-1.5 1.5H1.51C.68 16 0 15.33 0 14.5V1.51C0 .68.68 0 1.51 0h7.04c.83 0 1.5.67 1.5 1.5v3.18h1.34v1.5zM1.51 1.51V9.9h7.04V6.01h-1.3v1.47H4.48V4.57h1.4v1.4h1.35V4.53H5.85v-1.5h1.4V4.5h1.3V1.51zM8.55 14.5v-3.1H1.51v3.1zm3.82-9.19h1.4V2.44h-2.72v1.5h1.32V5.3ZM3.72 3.46h1.29v-1.5h-2.8v2.72h1.5V3.46ZM11.68 0v1.5h2.83v2.96h1.5V0zm2.83 10.95h-2.96v1.5h4.46V8.12h-1.5zM4.94 8H3.72V6.71h-1.5V9.5h2.72zm-.66 5.66h1.5v-1.5h-1.5z"/>
</svg>
