<svg viewBox="0 0 64 64" xmlns="http://www.w3.org/2000/svg">
  <path d="M36.68 16.83h-2.75v-2.75h2.75zm-13.75 18.8h2.75v-2.68h2.73V30.2h-5.49v5.43Zm.34-16.36h2.75v-5.49h-5.5v2.75h2.75zm1.12 6.66h2.73v2.68h2.75v-2.75h-2.73v-2.68h5.5v-2.75h-5.5v2.74h-2.75v2.75Zm28.66-7.43V13H50.3v2.75h-2.75v2.75h5.51Zm-38.16 5.97h2.75v-2.68h2.73v-2.75h-5.49v5.43ZM48.55 6.81V4.06h-5.51v2.75zM19.22 27.48h2.75v-2.75h-2.75zM48.4 11.12h-2.75v2.75h2.75zM21.53 55.66h-2.75v2.75h2.75zM17.78 27h-2.75v5.47h5.51v-2.75h-2.76zm32.46 8.71h2.64v-2.75h-2.64v-2.63h-2.75v8.02h2.75v-2.63Zm2.85-23.92h2.75V9.04h-2.75zm8.41 9.45h-2.69v-2.75h-2.75v5.5h5.44zM48.35-.01v2.75h12.94V16.2h2.75V-.01h-15.7Zm12.9 44.21H47.77v2.75h16.24V31.28h-2.75V44.2Zm-4.01-4.37h-2.75v2.75H60v-5.5h-2.75v2.75Zm-5.25-11.38v2.75h2.75v-5.5h-5.43v-2.61h2.73v-2.75h-2.75v2.73h-2.73v5.38zm-32.17 5.3h-6.51v-6.8h-2.75v9.54h9.26v-2.75Zm20.45-13.63h5.49v2.75h-5.49v5.61h2.75v2.75h-2.75v5.88h2.75v2.75h2.73v2.75h-5.48v19.14c0 1.24-1.01 2.25-2.25 2.25H2.3C1.06 64 .05 62.99.05 61.75V2.28C.05 1.04 1.06.03 2.3.03h35.71c1.24 0 2.25 1.01 2.25 2.25V6.8H43v2.75h-2.74v4.3h5.36v2.75h-5.36v3.53Zm-2.76 32.71H2.8v8.41h34.71zm0-22.7h-2.74v2.69h2.74zm0-27.35H2.8v47.3h34.71v-14.5h-8.24v-2.75h2.75v-2.71h2.72v-2.73h2.77V12.45H32.3v5.38h-2.75V12.4h2.69V9.7h5.27zm-24.2 9.6h6.81V9.63h-9.56v9.25h2.75zM54.53 4.4v2.75h2.75V9.9h2.75V4.4zm-37 9.39h-2.75v2.75h2.75zm42.46 14.73h-2.75v2.75h2.75z"/>
</svg>
