<svg viewBox="0 0 24 24" xmlns="http://www.w3.org/2000/svg">
  <path d="M17.82 12.71h1.75v1.75h-1.75zm0 0v-1.75h-1.75v3.5h1.75zm2.91-2.91h-1.75v1.75h1.75zM15 8.6v8.5H0V1.76C0 .79.79.01 1.75.01h11.5c.97 0 1.75.78 1.75 1.75v5.09h1.73V8.6zm-4.28-2.65h1.75V4.2h-1.75zm-8.93.11h1.75V3.99h2.18V2.24H1.79zm3.81 7.2H3.53v-2.18H1.78v3.93H5.6zm6.92-3.88h-1.64v-1.7H9.14V5.93H7.39v1.74H5.65v3.5h3.5V9.42h1.63v1.7h1.75V9.37ZM19 7h1.75V3.5h-3.5v1.75H19zm-1.21-7v1.75h4.46v4.67H24V0zm4.46 16.2h-4.67v1.75H24v-6.21h-1.75zM7.39 9.43h1.74V7.69H7.39zM0 18.85h15v3.4c0 .97-.78 1.75-1.75 1.75H1.75C.79 24 0 23.22 0 22.25zm6.6 3.38h1.75v-1.75H6.6z"/>
</svg>
