<svg viewBox="0 0 40 40" xmlns="http://www.w3.org/2000/svg">
  <path d="m26.57 19.41 13.38-12.8-.81-.81c-1.57-1.57-3.65-2.44-5.87-2.44s-4.3.86-5.85 2.41l-7.6 7.18-4.33-4.14c.05-.35.08-.71.08-1.07-.01-4.3-3.51-7.81-7.81-7.81S-.05 3.44-.05 7.75s3.5 7.82 7.81 7.82c.35 0 .7-.03 1.04-.08l4.17 3.93L7.8 24.3h-.05c-4.3 0-7.8 3.51-7.8 7.82s3.5 7.82 7.81 7.82 7.81-3.51 7.81-7.82c0-.67-.09-1.32-.25-1.94l4.51-4.31 7.58 7.14c1.57 1.57 3.65 2.43 5.87 2.43s4.3-.87 5.87-2.43l.81-.82-13.38-12.78ZM7.76 11.45c-2.04 0-3.7-1.66-3.7-3.71s1.66-3.71 3.7-3.71 3.7 1.66 3.7 3.71-1.66 3.71-3.7 3.71m0 24.37c-2.04 0-3.7-1.66-3.7-3.71s1.66-3.71 3.7-3.71 3.7 1.66 3.7 3.71-1.66 3.71-3.7 3.71m12.02-14.63c-.98 0-1.77-.8-1.77-1.77s.8-1.77 1.77-1.77 1.77.8 1.77 1.77-.8 1.77-1.77 1.77"/>
</svg>
