<svg viewBox="0 0 64 64" xmlns="http://www.w3.org/2000/svg">
  <path d="M12.19 6.67a5.56 5.56 0 0 0 0 11.12 5.56 5.56 0 0 0 0-11.12m0 8.37c-1.55 0-2.81-1.26-2.81-2.81s1.26-2.81 2.81-2.81S15 10.68 15 12.23s-1.26 2.81-2.81 2.81m0 31.17a5.56 5.56 0 0 0 0 11.12 5.56 5.56 0 0 0 0-11.12m0 8.37c-1.55 0-2.81-1.26-2.81-2.81s1.26-2.81 2.81-2.81S15 50.22 15 51.77s-1.26 2.81-2.81 2.81M42.25 31.3l21.7-21.02-.99-.99c-5.08-5.08-13.35-5.08-18.41-.02L31.89 21.42l-7.64-7.29c.1-.62.16-1.26.16-1.91C24.41 5.49 18.93 0 12.19 0S-.04 5.49-.04 12.23s5.48 12.23 12.23 12.23c.63 0 1.24-.06 1.84-.15l7.51 7.06-8.3 7.97-.26.25c-.26-.02-.52-.04-.79-.04C5.45 39.54-.04 45.03-.04 51.77S5.44 64 12.19 64s12.23-5.49 12.23-12.23c0-.98-.13-1.94-.35-2.85l7.95-7.7 12.52 11.77c2.54 2.54 5.88 3.81 9.22 3.81s6.68-1.27 9.22-3.81l1-1L42.27 31.3Zm4.22-20.06C48.41 9.3 51 8.23 53.74 8.23c2.27 0 4.44.73 6.22 2.09l-19.7 19.09-6.37-6.08 12.59-12.09Zm-43.76.99c0-5.23 4.25-9.48 9.48-9.48s9.48 4.25 9.48 9.48-4.25 9.48-9.48 9.48-9.48-4.26-9.48-9.48m9.48 49.02c-5.22 0-9.48-4.25-9.48-9.48s4.25-9.48 9.48-9.48c1.63 0 3.16.41 4.5 1.14l1.62 1.12a9.45 9.45 0 0 1 3.35 7.22c0 5.23-4.25 9.48-9.48 9.48Zm11.27-15.58-6.3-6.3 6.37-6.12 6.46 6.08-6.54 6.34Zm22.98 5.34L17.71 23.99 24 17.7l35.95 34.27c-4.03 3.05-9.81 2.74-13.51-.96M29.28 31.15c0-1.34 1.09-2.43 2.43-2.43s2.43 1.09 2.43 2.43-1.09 2.43-2.43 2.43-2.43-1.09-2.43-2.43"/>
</svg>
