<svg viewBox="0 0 64 64" xmlns="http://www.w3.org/2000/svg">
  <path d="m42.26 31.3 21.69-21.02-.99-.99c-5.08-5.08-13.35-5.08-18.41-.02L31.9 21.42l-7.65-7.29c.1-.62.16-1.26.16-1.91C24.41 5.49 18.93 0 12.19 0S-.04 5.49-.04 12.23s5.48 12.23 12.23 12.23c.63 0 1.24-.06 1.84-.15l7.52 7.07L13 39.59c-.27-.02-.53-.04-.8-.04C5.45 39.54-.04 45.03-.04 51.77S5.44 64 12.19 64s12.23-5.49 12.23-12.23c0-.98-.13-1.93-.35-2.84l7.95-7.71 12.51 11.77c2.54 2.54 5.88 3.81 9.22 3.81s6.68-1.27 9.22-3.81l1-1zM12.19 17.79a5.56 5.56 0 0 1 0-11.12 5.56 5.56 0 0 1 0 11.12m0 39.54a5.56 5.56 0 0 1 0-11.12 5.56 5.56 0 0 1 0 11.12m19.52-23.75c-1.34 0-2.43-1.09-2.43-2.43s1.09-2.43 2.43-2.43 2.43 1.09 2.43 2.43-1.09 2.43-2.43 2.43"/>
</svg>
