<svg viewBox="0 0 32 32" xmlns="http://www.w3.org/2000/svg">
  <path d="m31.94 5.54-.72-.72c-1.27-1.27-2.95-1.97-4.74-1.97s-3.47.7-4.72 1.95l-5.91 5.58-3.32-3.18c.03-.27.06-.54.06-.81 0-3.49-2.83-6.32-6.3-6.32S-.02 2.9-.02 6.38s2.83 6.32 6.31 6.32c.27 0 .53-.02.79-.06l3.19 3.01-4 3.78c-3.47 0-6.29 2.84-6.29 6.32s2.83 6.32 6.31 6.32 6.31-2.83 6.31-6.32c0-.52-.07-1.02-.19-1.51l3.46-3.31 5.92 5.57c1.31 1.31 2.89 1.85 4.61 1.85s3.56-.54 4.87-1.85l.72-.72-10.6-10.12L31.96 5.55ZM6.29 9.44c-1.68 0-3.05-1.37-3.05-3.05s1.37-3.05 3.05-3.05 3.05 1.37 3.05 3.05-1.37 3.05-3.05 3.05m0 19.36c-1.68 0-3.05-1.37-3.05-3.05s1.37-3.05 3.05-3.05 3.05 1.37 3.05 3.05-1.37 3.05-3.05 3.05m9.54-11.63c-.83 0-1.51-.68-1.51-1.51s.68-1.52 1.51-1.52 1.51.68 1.51 1.52-.68 1.51-1.51 1.51"/>
</svg>
