<svg viewBox="0 0 48 48" xmlns="http://www.w3.org/2000/svg">
  <path fill="#1e1e1c" d="m40.09 32.02-.48-3.28c2.31.02 4.56.66 6.52 1.87a1.25 1.25 0 1 0 1.31-2.13 15.2 15.2 0 0 0-7.94-2.24c-.08 0-.17.01-.25.01l-.35-2.44c.67.67 1.59 1.08 2.61 1.08h1.25v-7.41h-1.25c-1.41 0-2.62.8-3.25 1.96l-.87-6.01a2.744 2.744 0 0 0-2.74-2.51h-3.6a1.25 1.25 0 0 0 0 2.5h3.6c.13 0 .24.1.26.3l1.86 12.78a15.2 15.2 0 0 0-8.62 4.85v-5.28c0-.83-.45-1.55-1.11-1.95l1.94-2.48h.76a1.25 1.25 0 0 0 0-2.5H25.1v-6.61a1.25 1.25 0 0 0-2.5 0v9.11h3.21l-1.68 2.15h-3.02V1.68c0-.92-.75-1.66-1.67-1.66H1.72C.81.02.06.77.06 1.68v37.86c0 .53.19 1.02.5 1.4.47 3.97 3.85 7.07 7.94 7.07 3.79 0 6.96-2.65 7.79-6.19h9.57c1.26 0 2.28-1.02 2.28-2.28v-3.8c.67-1.31 1.55-2.49 2.61-3.5a12.63 12.63 0 0 1 6.37-3.27l.5 3.44c-3.22 1.03-5.56 4.06-5.56 7.62 0 4.41 3.59 8 8 8s8-3.59 8-8-3.57-7.98-7.97-8ZM2.56 23.78V9.94h7.01v1.39h2.5V9.94h6.52v13.84zM18.59 2.52v4.92h-6.52V5.71h-2.5v1.73H2.56V2.52zM8.5 45.51c-3.03 0-5.5-2.47-5.5-5.5s2.47-5.5 5.5-5.5 5.5 2.47 5.5 5.5-2.47 5.5-5.5 5.5m17.14-6.19h-9.17C16.12 35.23 12.68 32 8.5 32c-2.36 0-4.47 1.03-5.94 2.66v-8.38h23.08zm14.42 6.2a5.51 5.51 0 0 1-5.5-5.5c0-2.3 1.42-4.27 3.43-5.09l.77 5.27c.09.62.63 1.07 1.24 1.07.06 0 .12 0 .18-.01.68-.1 1.16-.73 1.06-1.42l-.77-5.3c2.85.21 5.1 2.58 5.1 5.48s-2.47 5.5-5.5 5.5Z"/>
</svg>
