<svg viewBox="0 0 16 16" xmlns="http://www.w3.org/2000/svg">
  <path fill="#1e1e1c" d="m13.5 10.03-.07-.8c.49.08.97.23 1.4.5.35.22.81.11 1.03-.25.22-.35.11-.81-.25-1.03-.7-.43-1.5-.69-2.32-.76l-.05-.62c.28.26.65.42 1.06.42h.75V4.36h-.75c-.51 0-.96.25-1.24.63l-.07-.8c-.06-.65-.59-1.14-1.24-1.14h-1.19a.749.749 0 1 0 0 1.5h.97l.29 3.2c-.89.17-1.7.57-2.41 1.16-.05-.41-.23-.78-.51-1.05l.82-1.07h.09a.749.749 0 1 0 0-1.5H8.6V3.42a.749.749 0 1 0-1.5 0v3.37h.73l-.43.56h-.74V1.17C6.65.52 6.13 0 5.49 0h-4.3C.55 0 .03.52.03 1.17v11.07c0 .11.02.21.04.31-.02.15-.05.3-.05.45 0 1.66 1.34 3.01 2.98 3.01 1.29 0 2.38-.83 2.8-1.99h1.83c.98 0 1.78-.8 1.78-1.78v-1.07c.19-.34.42-.66.71-.93.51-.48 1.14-.8 1.81-.95l.08.9A3 3 0 0 0 10.05 13c0 1.66 1.34 3.01 2.98 3.01s2.99-1.35 2.99-3.01c0-1.5-1.1-2.73-2.52-2.96ZM1.52 4.46h1.07v.47h1.49v-.47h1.06v2.8H1.52zM5.16 1.5v1.46H4.1v-.57H2.61v.57H1.54V1.5h3.63Zm-2.15 13c-.82 0-1.49-.68-1.49-1.51s.67-1.51 1.49-1.51 1.49.68 1.49 1.51-.67 1.51-1.49 1.51m4.63-1.99H5.95c-.23-1.43-1.45-2.53-2.94-2.53-.54 0-1.05.16-1.49.41V9.11c0-.16.13-.28.28-.28h5.83c.15 0 .28.13.28.28v3.11c0 .16-.13.28-.28.28Zm5.4 1.99c-.82 0-1.49-.68-1.49-1.51 0-.5.24-.94.61-1.21l.11 1.28c.04.39.36.68.74.68h.07c.41-.04.72-.4.68-.81l-.12-1.31c.52.24.89.76.89 1.38 0 .83-.67 1.51-1.49 1.51Z"/>
</svg>
