<svg viewBox="0 0 32 32" xmlns="http://www.w3.org/2000/svg">
  <path fill="#1e1e1c" d="M10.79 27.24v.05a5.41 5.41 0 0 1-5.36 4.72c-3 0-5.43-2.43-5.43-5.41 0-.17.01-.33.03-.5.03-.33.09-.66.18-.97 0-.01 0-.03.01-.04.09-.3.2-.59.34-.87.01-.02.02-.05.03-.07.14-.27.3-.52.48-.76.02-.03.04-.05.06-.08.18-.23.38-.45.59-.65l.08-.08c.22-.19.45-.37.69-.53.03-.02.06-.04.1-.06.25-.15.51-.29.79-.4l.09-.03c.28-.11.58-.2.88-.26h.07a5.42 5.42 0 0 1 6.39 5.32c0 .22-.02.43-.04.64Zm19.3-6.65a1.25 1.25 0 1 0 1.31-2.13c-1.52-.94-3.26-1.44-5.05-1.52l-.27-1.88c.43.31.96.49 1.52.49h1v-5.28h-1c-.84 0-1.59.4-2.07 1.02l-.37-2.56a2.243 2.243 0 0 0-2.24-2.05h-2.4a1.25 1.25 0 0 0 0 2.5h2.18l1.15 7.92c-1.9.37-3.66 1.26-5.11 2.6v-2.14c0-.66-.32-1.23-.8-1.61l1.76-2.3h.3a1.25 1.25 0 0 0 0-2.5h-2.68V7.16a1.25 1.25 0 0 0-2.5 0v6.49h1.73l-1.43 1.87h-1.23V7.05H7.76v1.02h-2V7.05H0v10.31h.03c0 .06-.02.12-.02.18v4a7.38 7.38 0 0 1 5.41-2.36c4.09 0 7.41 3.33 7.41 7.41 0 .44-.05.87-.12 1.29h3.99c1.12 0 2.03-.91 2.03-2.03v-2.11c.42-.79.94-1.51 1.59-2.12a8 8 0 0 1 3.88-2.04l.27 1.89c-2.13.73-3.67 2.74-3.67 5.12 0 2.98 2.43 5.41 5.41 5.41s5.41-2.43 5.41-5.41c0-2.73-2.03-4.98-4.66-5.35l-.26-1.78c1.19.12 2.34.5 3.37 1.13ZM5.75 3.8h2v1.24h6.13V1.42c0-.78-.63-1.42-1.41-1.42H1.41C.63 0 0 .64 0 1.42v3.62h5.75z"/>
</svg>
