<svg viewBox="0 0 24 24" xmlns="http://www.w3.org/2000/svg">
  <path fill="#1e1e1c" d="M8.05 19.97c0 .21-.03.42-.06.63-.3 1.93-1.95 3.42-3.95 3.42-2.22 0-4.02-1.82-4.02-4.05 0-.15.03-.29.04-.43.05-.51.2-.98.42-1.41v-.02c.11-.2.23-.4.37-.58.02-.02.04-.04.06-.07.13-.16.26-.32.42-.46.04-.04.09-.08.14-.12.14-.11.27-.23.42-.32.08-.05.17-.1.26-.14.13-.07.25-.14.38-.2s.28-.09.42-.13c.1-.03.2-.07.3-.09.25-.05.51-.08.78-.08 2.21 0 4.02 1.82 4.02 4.05m15.48-6.44a8 8 0 0 0-3.69-1.14l-.14-1.08c.33.21.71.33 1.12.33h.88V7.43h-.88c-.61 0-1.15.26-1.53.67l-.2-1.57c-.08-.91-.83-1.59-1.74-1.59h-1.8c-.55 0-1 .45-1 1s.45 1 1 1h1.58l.71 5.56c-1.38.27-2.67.91-3.74 1.85v-.94c0-.58-.26-1.09-.67-1.44l1.29-1.69h.19c.55 0 1-.45 1-1s-.45-1-1-1h-1.95V5.35c0-.55-.45-1-1-1s-1 .45-1 1v4.93h1.23l-.93 1.21h-.93V6.38H6.2v1.03H4.45V6.38H.01v6.75h.03c-.01.09-.03.18-.03.27v2.41a5.73 5.73 0 0 1 4.02-1.65c3.18 0 5.77 2.6 5.77 5.8 0 .36-.04.71-.1 1.06h2.49c1.05 0 1.91-.86 1.91-1.91v-1.59c.3-.56.68-1.08 1.15-1.52a5.97 5.97 0 0 1 2.85-1.5l.21 1.63c-1.61.53-2.79 2.04-2.79 3.83 0 2.23 1.8 4.04 4.02 4.04s4.02-1.81 4.02-4.04c0-1.96-1.4-3.6-3.25-3.97l-.2-1.6c.84.1 1.66.38 2.39.83.47.29 1.09.14 1.38-.33s.14-1.09-.33-1.38ZM4.46 3.44h1.75v1.2h4.13V1.31C10.34.6 9.76.02 9.05.02H1.3C.59.02.01.6.01 1.31v3.33h4.45z"/>
</svg>
