<svg viewBox="0 0 48 48" xmlns="http://www.w3.org/2000/svg">
  <path d="M48.01 9.42v38.6H8.65V22.4c.45.05.9.08 1.35.08 3.17 0 6.06-1.19 8.27-3.14l3.51 2.02-4.82 9.51c-.26.51-.14 1.14.3 1.51s1.07.41 1.54.07l12.3-8.74-9.42 14.51c-.32.49-.25 1.14.16 1.56.42.42 1.07.49 1.56.17l14.03-9c-1.28 3.48-2.54 8.09-1.23 10.16.24.38.64.58 1.06.58.23 0 .46-.06.67-.19.58-.37.76-1.14.39-1.72-.8-1.26.86-6.96 2.9-11.49.23-.5.1-1.1-.32-1.46s-1.02-.4-1.49-.11l-12.48 8 9.83-15.14c.33-.5.25-1.17-.18-1.58-.43-.42-1.1-.46-1.59-.12l-13.5 9.6 3.07-6.04c.3-.59.08-1.32-.49-1.65l-4.05-2.32a12.4 12.4 0 0 0 2.49-7.46c0-.19-.02-.38-.03-.58h25.53ZM20 9.99c0-5.5-4.48-9.97-9.99-9.97S0 4.49 0 9.99s4.49 9.98 10 9.98 10-4.48 10-9.98"/>
</svg>
