<svg viewBox="0 0 32 32" xmlns="http://www.w3.org/2000/svg">
  <path d="M14.89 6.25C14.27 2.73 11.2.05 7.51.05a7.498 7.498 0 0 0-1.77 14.79v17.21H32V6.25zM2 7.55c0-3.03 2.47-5.5 5.5-5.5S13 4.52 13 7.55s-2.47 5.5-5.5 5.5S2 10.58 2 7.55m28 22.5H7.74v-15c1.79-.06 3.43-.74 4.69-1.84l1.87 1.07-3.15 6.21c-.21.41-.11.91.24 1.21s.86.32 1.23.06l7.5-5.34-5.81 8.96c-.26.4-.2.92.13 1.25.33.34.85.39 1.25.14l8.95-5.75c-.8 2.29-1.49 5.13-.64 6.48.19.3.51.47.85.47.18 0 .37-.05.53-.16.47-.3.61-.92.31-1.38-.45-.71.46-4.23 1.95-7.53a1 1 0 0 0-.26-1.17c-.33-.29-.82-.32-1.19-.09l-7.68 4.93 6.14-9.47c.26-.4.2-.94-.15-1.27a1 1 0 0 0-1.27-.09l-8.46 6.02 1.74-3.43a1 1 0 0 0-.39-1.32l-2.34-1.35c.65-1 1.08-2.16 1.19-3.41H30v21.79Z"/>
</svg>
