<svg viewBox="0 0 16 16" xmlns="http://www.w3.org/2000/svg">
  <path d="M8.17 11c-.1.14-.22.29-.38.44-.6.6-1.07.77-1.42.77h-.04c0 .01-.02.03-.03.04L3.84 9.79s.02-.02.03-.02c0-.12 0-.24.03-.37.13-.5.64-1.11 1.17-1.5l3.1 3.11Zm-5.47-.24C1.52 11.88.23 13.31.1 13.81l-.1.49 1.47 1.47c.16.16.33.26.53.26.49 0 1.23-.56 2.78-2.12.19-.19.37-.37.53-.54l-2.6-2.6Zm5.33-8.57c-1.18 1.23-2.26 2.47-2.74 3.8l4.77 4.77c.1-.04.2-.08.31-.12.07-.03.13-.06.2-.09.11-.05.22-.11.33-.17.05-.03.11-.06.16-.09a7 7 0 0 0 .48-.31q.24-.165.48-.36l.15-.12.33-.27c.06-.05.12-.1.18-.16.1-.09.2-.17.3-.26.06-.06.13-.12.19-.18.1-.09.19-.18.29-.27.07-.06.13-.12.2-.19.06-.06.12-.12.18-.17L8.02 2.17ZM10.06.03c-.31.36-.65.72-.99 1.08l5.86 5.87.12-.12c.11-.1.21-.2.32-.3.05-.05.11-.1.16-.15.16-.15.32-.29.47-.43z"/>
</svg>
