<svg viewBox="0 0 24 24" xmlns="http://www.w3.org/2000/svg">
  <path d="M24.06 9.02 15.02 0c-3.36 3.86-8.29 7.47-7.29 12.02-.26.17-.52.39-.79.66-.37.37-.67.76-.86 1.12-.23.43-.26.78-.22 1.05-.17.13-.34.27-.5.4-.62.52-1.42 1.26-2.24 2.08C-.19 20.64-.26 21.3.36 21.92l1.76 1.76c.18.18.37.31.63.31.62 0 1.63-.72 3.98-3.07 1.24-1.24 2.03-2.11 2.49-2.74.06 0 .12.02.18.02.24 0 .52-.06.86-.24.35-.19.75-.49 1.12-.86.26-.26.47-.53.65-.8.4.09.79.14 1.18.14 4.01 0 7.32-4.37 10.84-7.43Zm-8.98-6.5 6.45 6.44-.75.72-6.42-6.42c.24-.25.48-.49.72-.75ZM2.94 22.03l-.91-.91c.87-1.16 3.73-4.02 4.89-4.89l.91.91c-.87 1.16-3.73 4.02-4.89 4.89m6.61-5.65-.04-.04-.01-.01-1.76-1.76-.05-.05c.22-.36.75-.89 1.1-1.1l1.87 1.87c-.22.36-.75.89-1.1 1.1Zm-.17-4.97c-.35-2.31 1.54-4.55 3.76-6.89l6.38 6.37c-2.15 2.06-4.22 3.81-6.3 3.81-.2 0-.39-.02-.59-.05L9.38 11.4Z"/>
</svg>
