<svg viewBox="0 0 48 48" xmlns="http://www.w3.org/2000/svg">
  <path d="M23.44 32.67h-.04l-.03-.03c-1 1.59-2.9 3.27-4.33 3.65-.25.07-.47.09-.67.09-.25 0-.46-.05-.64-.12-.01.01-.02.03-.03.04l-5.98-5.97s.04-.03.05-.04c-.16-.49-.16-1.17.33-2.1.35-.67.93-1.43 1.64-2.13.58-.58 1.14-1.03 1.68-1.37l-.07-.07v-.04l8.1 8.09Zm-13.68-.76c-1.02.89-2.26 2.07-3.83 3.64C4.3 37.19 2.83 38.77 1.8 40 .64 41.39-.67 42.95.43 44.05L4 47.62c.14.14.47.4.99.4.14 0 .28-.02.44-.06 1.6-.43 7.35-5.86 10.68-9.7zm38.26-13.62L29.73.01c-.54.62-1.1 1.24-1.68 1.85l18.11 18.09c.16-.15.32-.3.49-.45.05-.05.1-.09.15-.14.41-.37.81-.73 1.22-1.09ZM26.33 3.68c-.46.48-.93.96-1.39 1.44-.94.97-1.87 1.94-2.78 2.91q-.675.735-1.32 1.47c-1.72 1.96-3.24 3.96-4.3 6.03-.27.52-.51 1.04-.71 1.57-.1.26-.2.53-.29.8-.3.91-.48 1.84-.56 2.78l12.34 12.33c.17-.01.34-.01.51-.03.07 0 .13-.02.2-.03.44-.06.88-.15 1.31-.26.02 0 .05-.01.07-.02.43-.11.86-.25 1.28-.41.05-.02.09-.03.14-.05.42-.16.83-.34 1.24-.54.07-.03.14-.07.22-.1.4-.2.8-.42 1.19-.65.07-.04.14-.09.22-.13.4-.24.79-.49 1.19-.76.05-.04.1-.07.16-.11q.6-.42 1.2-.87c.02-.01.03-.02.05-.04.4-.31.81-.63 1.21-.97l.18-.15c.38-.32.76-.65 1.14-.98l.22-.19c.37-.33.75-.67 1.12-1.02.07-.07.14-.13.21-.2.38-.35.75-.71 1.13-1.07.05-.05.1-.1.16-.15.37-.35.74-.71 1.11-1.07.39-.38.79-.76 1.18-1.14.07-.07.15-.14.22-.21.06-.06.13-.12.19-.19z"/>
</svg>
