<svg viewBox="0 0 16 16" xmlns="http://www.w3.org/2000/svg">
  <path d="M7.44 3.1A3.74 3.74 0 0 0 3.76 0C1.68 0 0 1.68 0 3.75c0 1.76 1.23 3.23 2.87 3.63V16H16V3.1zm-5.94.65c0-1.24 1.01-2.25 2.25-2.25S6 2.51 6 3.75 4.99 6 3.75 6 1.5 4.99 1.5 3.75m13 10.75H4.37V7.44c.6-.1 1.14-.34 1.61-.68l.79.45-1.47 2.9c-.16.31-.08.68.18.91s.64.24.92.04l2.68-1.91-2.19 3.38c-.19.3-.15.69.1.94s.64.29.94.1l3.88-2.49c-.31 1.07-.46 2.16-.07 2.78a.76.76 0 0 0 1.04.25c.35-.22.46-.67.24-1.03-.15-.38.32-2.07.98-3.55.14-.3.06-.66-.19-.88a.75.75 0 0 0-.9-.06l-2.87 1.84 2.44-3.77c.2-.3.15-.7-.11-.95s-.66-.28-.95-.07L8.01 8.06l.41-.81c.18-.36.05-.79-.3-.99l-1.14-.65c.18-.31.32-.65.41-1.01h7.1v9.9Z"/>
</svg>
