<svg viewBox="0 0 40 40" xmlns="http://www.w3.org/2000/svg">
  <path d="M19.56 27.22s-.03 0-.05-.01c-.28.43-.65.89-1.11 1.35-.59.59-1.23 1.08-1.8 1.37-.51.27-.93.36-1.29.36-.17 0-.32-.03-.46-.07-.01.02-.03.04-.04.06l-5.13-5.12s.04-.03.06-.05c-.25-.93.32-2.19 1.68-3.55.43-.43.88-.8 1.31-1.09 0-.04-.02-.07-.02-.11l6.85 6.84ZM7.93 26.6c-.79.7-1.73 1.6-2.88 2.75-6 5.98-5.39 6.58-4.69 7.29l2.96 2.96c.22.22.43.43.8.43.8 0 2.36-.99 6.41-5.02 1.19-1.19 2.12-2.16 2.84-2.97zM21.68 3.34c-4.21 4.35-8.64 8.67-9.21 13.62l10.51 10.5h.12c.05 0 .11-.02.16-.02.37-.05.74-.12 1.1-.22.01 0 .02 0 .04-.01.36-.1.72-.21 1.08-.35.04-.02.09-.03.13-.05.35-.13.69-.28 1.03-.45l.18-.09q.495-.255.99-.54c.06-.03.12-.07.18-.11.33-.2.66-.41.99-.64l.12-.09q.495-.345.99-.72c.02-.01.04-.03.05-.04.33-.26.67-.52 1-.8.05-.04.1-.09.16-.13.32-.27.63-.54.95-.82.06-.05.12-.11.18-.16.31-.28.62-.56.93-.85.06-.05.12-.11.17-.16.32-.3.63-.59.95-.9.04-.04.08-.07.11-.11.31-.3.62-.59.93-.89l1.01-.98.08-.08zM24.75.03c-.49.56-1 1.12-1.52 1.68l15.02 15.01c.18-.17.36-.34.54-.5.04-.04.08-.07.12-.11.34-.31.68-.61 1.02-.91z"/>
</svg>
