<svg viewBox="0 0 16 16" xmlns="http://www.w3.org/2000/svg">
  <path d="M15.99 5.98 10.06.03C7.85 2.57 4.65 4.96 5.08 7.88c-.54.39-1.05 1-1.18 1.5-.03.13-.04.25-.03.37C2.56 10.76.28 13.14.1 13.81l-.1.49 1.47 1.47c.16.16.33.26.53.26.49 0 1.23-.56 2.78-2.12.72-.73 1.23-1.27 1.55-1.7h.04c.35 0 .82-.17 1.42-.77.16-.16.29-.31.39-.46.17.02.34.04.5.04 2.69 0 4.93-2.96 7.31-5.04M10.1 2.19l3.74 3.75c-.13.12-.25.24-.38.37L9.73 2.58c.12-.13.24-.25.37-.38ZM8.7 3.66l3.68 3.68c-1.26 1.18-2.53 2.18-3.69 2.18h-.2L6.53 7.56c-.1-1.18.77-2.39 2.17-3.9M2.13 14.32l-.38-.39c.61-.77 2.2-2.37 2.97-2.98l.39.39c-.61.77-2.2 2.37-2.97 2.98Zm4.35-3.72-.03-.03-.99-.99c.12-.16.32-.36.48-.48l1.02 1.03c-.12.16-.32.36-.48.48Z"/>
</svg>
