<svg viewBox="0 0 64 64" xmlns="http://www.w3.org/2000/svg">
  <path d="M29.78 12.56C28.62 5.45 22.45.03 15.01.03 6.73.03.01 6.73.01 15c0 7.06 4.92 12.97 11.52 14.54v34.49h52.48V12.56zM2.76 15C2.76 8.26 8.25 2.78 15 2.78S27.24 8.26 27.24 15 21.75 27.22 15 27.22 2.76 21.73 2.76 15m58.5 46.28H14.28V29.93c.24.01.48.04.73.04 3.95 0 7.53-1.54 10.21-4.03l4.21 2.42-6.56 12.92c-.29.56-.15 1.25.33 1.66s1.18.44 1.69.08l17.65-12.54-13.39 20.63a1.377 1.377 0 0 0 1.9 1.91l19.46-12.47c-1.73 4.55-3.77 11.3-1.98 14.12a1.373 1.373 0 0 0 1.89.43c.64-.41.83-1.26.43-1.9-1.15-1.82 1.11-9.51 3.85-15.6.25-.55.11-1.21-.35-1.61s-1.13-.45-1.64-.12l-17.78 11.4 13.84-21.32c.36-.55.27-1.29-.2-1.74-.48-.46-1.21-.51-1.75-.13L27.85 37.56l4.63-9.11c.33-.65.09-1.45-.54-1.81l-4.84-2.78c1.77-2.4 2.83-5.34 2.9-8.53h31.28V61.3Z"/>
</svg>
