<svg viewBox="0 0 64 64" xmlns="http://www.w3.org/2000/svg">
  <path d="M13.62 27.22C6.11 27.22 0 21.12 0 13.62S6.11.02 13.62.02s13.63 6.1 13.63 13.6-6.11 13.6-13.63 13.6m16.33-14.65c.02.35.05.69.05 1.05 0 3.75-1.28 7.19-3.4 9.95l5.33 3.06c.63.36.87 1.16.54 1.81l-4.62 9.11 18.96-13.48a1.377 1.377 0 0 1 1.95 1.87L34.93 47.25 52.7 35.86c.51-.33 1.18-.28 1.64.12s.61 1.05.35 1.61c-2.75 6.09-5 13.78-3.85 15.6.41.64.21 1.49-.43 1.9-.23.14-.48.21-.73.21-.45 0-.9-.23-1.16-.64-1.78-2.82.26-9.57 1.98-14.11L31.05 53.02a1.379 1.379 0 0 1-1.9-1.91l13.38-20.62-17.64 12.54c-.52.37-1.21.33-1.69-.08s-.61-1.1-.33-1.66l6.56-12.92-4.73-2.72c-2.92 2.68-6.8 4.32-11.07 4.32-.71 0-1.4-.06-2.08-.15v34.2h52.46V12.57z"/>
</svg>
