<svg viewBox="0 0 24 24" xmlns="http://www.w3.org/2000/svg">
  <path d="M11.17 4.65C10.7 2.01 8.4 0 5.63 0A5.63 5.63 0 0 0 0 5.63c0 2.65 1.84 4.86 4.31 5.46V24h19.7V4.65zm-9.42.98c0-2.14 1.74-3.88 3.88-3.88s3.88 1.74 3.88 3.88-1.74 3.88-3.88 3.88-3.88-1.74-3.88-3.88m20.5 16.62H6.06V11.23c1.2-.09 2.3-.55 3.17-1.28l1.33.77-2.31 4.56c-.18.36-.1.8.21 1.06s.75.28 1.08.05l5.09-3.62-4 6.18c-.22.35-.18.8.11 1.09s.75.34 1.09.12l6.41-4.11c-.57 1.71-.97 3.64-.35 4.62.16.26.44.4.72.4.16 0 .32-.04.46-.13.41-.24.54-.79.3-1.2-.3-.52.4-3.16 1.47-5.53.16-.35.07-.77-.23-1.02a.87.87 0 0 0-1.04-.07l-5.27 3.39 4.29-6.62a.88.88 0 0 0-.13-1.11.876.876 0 0 0-1.11-.08l-5.93 4.22 1.08-2.13a.87.87 0 0 0-.34-1.15l-1.75-1.01c.41-.66.69-1.4.8-2.2h11.06v15.85Z"/>
</svg>
