<svg viewBox="0 0 48 48" xmlns="http://www.w3.org/2000/svg">
  <path d="M29.73.01c-6.83 7.86-16.97 15.17-14.38 24.6l.07.07c-.54.34-1.1.79-1.68 1.37-.71.71-1.29 1.46-1.64 2.13-.49.93-.49 1.61-.33 2.1-1.22.86-3.03 2.45-5.84 5.26-1.63 1.64-3.1 3.22-4.13 4.45C.64 41.38-.67 42.94.43 44.04L4 47.61c.14.14.47.4.99.4.14 0 .28-.02.44-.06 1.91-.51 9.74-8.15 12.29-11.7.19.07.39.12.64.12.2 0 .43-.03.67-.09 1.42-.38 3.32-2.06 4.33-3.65l.03.03c1.03.28 2.04.41 3.02.41 8.02 0 14.59-8.7 21.6-14.78zM5.22 45.29l-2.47-2.47c1.5-2.23 8.41-9.13 10.64-10.63l1.24 1.23 1.23 1.23c-1.5 2.23-8.41 9.13-10.64 10.63Zm13.34-11.47-.38-.37-3.57-3.57s-.02-.01-.02-.02l-.35-.35c.34-.87 2.09-2.63 2.97-2.96l4.33 4.32c-.34.87-2.09 2.62-2.97 2.96ZM29.82 3.64l14.56 14.55c-.43.4-.84.81-1.27 1.21L28.6 4.9c.41-.42.81-.84 1.21-1.27Zm-5.15 26.75-7.05-7.05c-1.17-5.81 3.88-11.08 9.26-16.63l14.43 14.42c-5.03 4.87-9.79 9.43-14.89 9.43-.58 0-1.16-.06-1.75-.18Z"/>
</svg>
