<svg viewBox="0 0 24 24" xmlns="http://www.w3.org/2000/svg">
  <path d="M12.02 16.34c-.17.26-.38.52-.63.77-.37.37-.76.67-1.12.86-.34.18-.62.24-.86.24-.07 0-.12-.01-.18-.02 0 0 0 .01-.01.02l-3.36-3.36h.01c-.04-.27 0-.62.22-1.05.19-.35.49-.75.86-1.12.26-.26.52-.47.77-.64l4.31 4.31Zm-7.5-.35c-.44.4-.91.85-1.4 1.34C-.19 20.64-.26 21.3.36 21.92l1.76 1.76c.18.18.37.31.63.31.62 0 1.63-.72 3.98-3.07.53-.53.97-.98 1.34-1.39l-3.55-3.55Zm19.54-6.97L15.02 0c-.38.43-.78.86-1.18 1.29l8.93 8.92c.11-.1.21-.2.32-.3.09-.08.18-.17.26-.25.23-.21.45-.41.68-.61 0 0 .02-.01.02-.02ZM12.63 2.54c-1.06 1.09-2.12 2.19-2.98 3.32-.92 1.2-1.63 2.43-1.92 3.72l6.73 6.72h.01q.225-.045.45-.12c.11-.03.21-.06.32-.1q.225-.075.45-.18c.1-.04.2-.08.3-.13.16-.07.31-.16.47-.24.09-.05.18-.09.27-.15.18-.11.36-.22.54-.34l.18-.12c.24-.16.48-.34.72-.52l.16-.13c.19-.15.37-.29.56-.45l.25-.22c.15-.13.3-.26.45-.4.09-.08.19-.17.28-.26.14-.13.28-.26.43-.39.1-.09.19-.18.29-.27.15-.14.29-.28.44-.42.1-.1.21-.2.31-.3l.16-.16z"/>
</svg>
