<svg viewBox="0 0 48 48" xmlns="http://www.w3.org/2000/svg">
  <path fill="#1e1e1c" d="M28.27 0h-8.54C12.42 0 6.48 5.95 6.48 13.26v17.28c0 9.63 7.83 17.47 17.46 17.47h.12c9.63 0 17.46-7.83 17.46-17.47V13.26C41.52 5.95 35.58 0 28.27 0m10.75 13.26v4.65h-8.89v-2.02c0-2.94-2.09-5.4-4.88-5.98v-7.4h3.02c5.93 0 10.75 4.82 10.75 10.75m-15-.99c1.99 0 3.61 1.62 3.61 3.62v4.92c0 1.99-1.62 3.62-3.61 3.62h-.04c-1.99 0-3.61-1.62-3.61-3.62v-4.92c0-1.99 1.62-3.62 3.65-3.62m-4.29-9.76h3.02V9.9a6.125 6.125 0 0 0-4.88 5.99v2.02H8.98v-4.65c0-5.93 4.82-10.75 10.75-10.75m4.33 42.99h-.12c-8.25 0-14.96-6.71-14.96-14.97V20.4h8.89v.39c0 3.37 2.74 6.12 6.11 6.12h.04c3.37 0 6.11-2.74 6.11-6.12v-.39h8.89v10.13c0 8.25-6.71 14.97-14.96 14.97"/>
</svg>
