<svg viewBox="0 0 64 64" xmlns="http://www.w3.org/2000/svg">
  <path fill="#1e1e1c" d="M32 15.77c2.83 0 5.13 2.3 5.13 5.14v6.51c0 2.83-2.3 5.14-5.13 5.14s-5.13-2.3-5.13-5.14v-6.51c0-2.83 2.3-5.14 5.13-5.14m1.38-2.62c3.69.65 6.51 3.88 6.51 7.76v2.97h15.19v-6.49C55.07 7.79 47.28 0 37.7 0h-4.32zm6.5 13.48v.79c0 4.35-3.54 7.89-7.88 7.89s-7.88-3.54-7.88-7.89v-.79H8.93v14.29C8.93 53.65 19.28 64 32 64s23.07-10.35 23.07-23.08V26.63zm-15.76-2.76V20.9c0-3.88 2.82-7.11 6.51-7.76V0h-4.32C16.72 0 8.93 7.79 8.93 17.38v6.49z"/>
</svg>
