<svg viewBox="0 0 40 40" xmlns="http://www.w3.org/2000/svg">
  <path fill="#1e1e1c" d="M23.51 0h-7.02C10.35 0 5.36 4.99 5.36 11.12v14.25C5.36 33.44 11.93 40 20 40s14.64-6.56 14.64-14.63V11.12C34.64 4.99 29.65 0 23.51 0m8.88 11.12v3.73h-7.21v-1.63c0-2.46-1.74-4.51-4.05-5.01V2.25h2.39c4.89 0 8.88 3.98 8.88 8.87Zm-12.44-.77h.11c1.58 0 2.88 1.29 2.88 2.87v4.16c0 1.58-1.29 2.87-2.88 2.87h-.11c-1.58 0-2.88-1.29-2.88-2.87v-4.16c0-1.58 1.29-2.87 2.88-2.87m-3.46-8.1h2.39v5.97a5.13 5.13 0 0 0-4.05 5.01v1.63H7.62v-3.73c0-4.89 3.98-8.87 8.88-8.87ZM20 37.75c-6.83 0-12.39-5.55-12.39-12.38V17.1h7.21v.28c0 2.82 2.3 5.12 5.12 5.12h.11c2.83 0 5.12-2.3 5.12-5.12v-.28h7.21v8.27c0 6.83-5.56 12.38-12.39 12.38Z"/>
</svg>
