<svg viewBox="0 0 32 32" xmlns="http://www.w3.org/2000/svg">
  <path fill="#1e1e1c" d="M18.72 0h-5.44c-4.96 0-9 4.04-9 9.01v11.26C4.28 26.74 9.54 32 16 32s11.72-5.26 11.72-11.73V9.01c0-4.97-4.04-9.01-9-9.01m7 9.01v2.79h-5.5v-1.18c0-1.96-1.36-3.6-3.22-4.05V2h1.72c3.86 0 7 3.14 7 7.01m-9.69-.57c1.2 0 2.18.98 2.18 2.19v3.28c0 1.21-.98 2.19-2.18 2.19h-.06c-1.2 0-2.18-.98-2.18-2.19v-3.28c0-1.21.98-2.19 2.25-2.19ZM13.28 2H15v4.56a4.19 4.19 0 0 0-3.22 4.07v1.18h-5.5V9.02c0-3.86 3.14-7.01 7-7.01ZM16 30c-5.36 0-9.72-4.36-9.72-9.73v-6.46h5.5v.1c0 2.31 1.88 4.19 4.18 4.19h.06c2.31 0 4.18-1.88 4.18-4.19v-.1h5.5v6.46c0 5.37-4.36 9.73-9.72 9.73Z"/>
</svg>
