<svg viewBox="0 0 48 48" xmlns="http://www.w3.org/2000/svg">
  <path fill="#1e1e1c" d="M24.1 12.28c1.99 0 3.61 1.62 3.61 3.62v4.92c0 1.99-1.62 3.62-3.61 3.62h-.04c-1.99 0-3.61-1.62-3.61-3.62V15.9c0-1.99 1.62-3.62 3.65-3.62m1.23-2.37c2.79.58 4.88 3.04 4.88 5.98v2.02H41.6v-4.65C41.6 5.96 35.66.01 28.35.01h-3.02zm-7.38 8.01V15.9c0-2.95 2.1-5.42 4.88-5.99V.01h-3.02C12.5.01 6.56 5.96 6.56 13.27v4.65zm12.26 2.5v.39c0 3.37-2.74 6.12-6.11 6.12h-.04c-3.37 0-6.11-2.74-6.11-6.12v-.39H6.56v10.13c0 9.63 7.83 17.47 17.46 17.47h.12c9.63 0 17.46-7.83 17.46-17.47V20.42z"/>
</svg>
