<svg viewBox="0 0 16 16" xmlns="http://www.w3.org/2000/svg">
  <path fill="#1e1e1c" d="M9.18 0H6.81a4.76 4.76 0 0 0-4.75 4.75v5.31C2.06 13.33 4.72 16 8 16s5.94-2.66 5.94-5.94V4.75C13.94 2.13 11.81 0 9.19 0Zm3.26 4.75v.95h-2.13v-.34c0-1-.66-1.83-1.56-2.13V1.5h.43c1.79 0 3.25 1.46 3.25 3.25Zm-4.5-.14h.11c.41 0 .75.34.75.75v1.67c0 .41-.34.75-.75.75h-.11c-.41 0-.75-.34-.75-.75V5.36c0-.41.34-.75.75-.75M6.82 1.5h.43v1.73c-.9.29-1.56 1.13-1.56 2.13v.34H3.56v-.95c0-1.79 1.46-3.25 3.25-3.25ZM8 14.5c-2.45 0-4.44-1.99-4.44-4.44V7.2h2.15a2.237 2.237 0 0 0 2.23 2.07h.11c1.18 0 2.14-.92 2.23-2.07h2.15v2.86c0 2.45-1.99 4.44-4.44 4.44Z"/>
</svg>
