<svg viewBox="0 0 32 32" xmlns="http://www.w3.org/2000/svg">
  <path fill="#1e1e1c" d="M16.03 8.44c1.2 0 2.18.98 2.18 2.19v3.28c0 1.21-.98 2.19-2.18 2.19h-.06c-1.2 0-2.18-.98-2.18-2.19v-3.28c0-1.21.98-2.19 2.25-2.19ZM17 6.57c1.86.45 3.22 2.09 3.22 4.05v1.18h7.5V9.01c0-4.97-4.04-9.01-9-9.01H17zm-5.22 5.23v-1.18c0-1.97 1.38-3.62 3.22-4.07V0h-1.72c-4.96 0-9 4.04-9 9.01v2.79zm8.44 2.01v.1c0 2.31-1.88 4.19-4.18 4.19h-.06c-2.31 0-4.18-1.88-4.18-4.19v-.1H4.3v6.46C4.3 26.74 9.56 32 16.02 32s11.72-5.26 11.72-11.73v-6.46h-7.5Z"/>
</svg>
