<svg viewBox="0 0 24 24" xmlns="http://www.w3.org/2000/svg">
  <path d="M12 5.5c1.52 0 2.75-1.23 2.75-2.75S13.52 0 12 0 9.25 1.23 9.25 2.75 10.48 5.5 12 5.5m0-3.75c.55 0 1 .45 1 1s-.45 1-1 1-1-.45-1-1 .45-1 1-1m7.23 20.11v-.02l-2.54-6.61h-2.12v-2.48h1.3v-3.6a2.88 2.88 0 0 0-2.88-2.88h-1.96c-1.58 0-2.88 1.29-2.88 2.88v3.6H9.3v2.48H7.24L4.7 21.84V24h1.75v-2.14h11.04V24h1.75v-2.14ZM9.89 9.16c0-.62.5-1.13 1.12-1.13h1.96c.62 0 1.12.5 1.12 1.13v1.85h-1.3v6.63h-1.77v-6.63H9.87V9.16ZM7.23 20.11l1.2-3.13h.86v2.4h5.27v-2.4h.92l1.2 3.13z"/>
</svg>
