<svg viewBox="0 0 64 64" xmlns="http://www.w3.org/2000/svg">
  <path d="M32 13.05c3.52 0 6.38-2.88 6.38-6.42S35.51.22 32 .22s-6.38 2.88-6.38 6.42 2.86 6.42 6.38 6.42Zm0-10.07c2 0 3.62 1.64 3.62 3.65s-1.63 3.65-3.62 3.65-3.62-1.64-3.62-3.65S30.01 2.98 32 2.98m17.88 54.53v-.02l-6.05-15.84h-5.97v-8.92h3.46V22.27c0-3.72-3.01-6.75-6.71-6.75h-5.23c-3.7 0-6.71 3.03-6.71 6.75v10.46h3.05v8.92h-5.79l-6.05 15.84v6.73h2.75v-6.71h30.5v6.71h2.75zM25.42 29.96v-7.69c0-2.2 1.78-3.98 3.96-3.98h5.23c2.18 0 3.96 1.79 3.96 3.98v7.69h-3.46v18.88h-6.63V29.96h-3.05Zm-7.54 24.78 3.94-10.32h3.9v7.19h12.13v-7.19h4.08l3.94 10.32h-28Z"/>
</svg>
