<svg viewBox="0 0 40 40" xmlns="http://www.w3.org/2000/svg">
  <path d="M20 8.52c2.34 0 4.25-1.91 4.25-4.25S22.34.02 20 .02s-4.25 1.91-4.25 4.25S17.66 8.52 20 8.52m0-6.25c1.1 0 2 .9 2 2s-.9 2-2 2-2-.9-2-2 .9-2 2-2m11.56 33.85-3.99-10.38h-3.65v-5.63h2.16v-5.66c0-2.46-2-4.46-4.46-4.46h-3.27c-2.46 0-4.46 2-4.46 4.46v5.66h1.91v5.63h-3.53L8.28 36.12v3.9h2.25v-3.9H29.3v3.9h2.25v-3.9ZM16.15 14.45c0-1.22.99-2.21 2.21-2.21h3.27c1.22 0 2.21.99 2.21 2.21v3.41h-2.16v11.88h-3.62V17.86h-1.91zm-4.59 19.42 2.26-5.88h1.99v4h8.12v-4h2.1l2.26 5.88z"/>
</svg>
