<svg viewBox="0 0 32 32" xmlns="http://www.w3.org/2000/svg">
  <path d="M16 7.02c1.93 0 3.5-1.57 3.5-3.5S17.92.01 16 .01s-3.5 1.57-3.5 3.5 1.57 3.5 3.5 3.5Zm0-5.01c.83 0 1.5.67 1.5 1.5s-.67 1.5-1.5 1.5-1.5-.67-1.5-1.5.67-1.5 1.5-1.5m9.4 26.98v-.02l-3.26-8.49h-2.88v-3.8h1.73v-4.63c0-2.02-1.64-3.67-3.67-3.67H14.7c-2.02 0-3.67 1.65-3.67 3.67v4.63h1.53v3.8h-2.8L6.5 28.96V32h2v-3.02h14.91V32h2v-3.02ZM13.02 12.06c0-.92.75-1.67 1.67-1.67h2.62c.92 0 1.67.75 1.67 1.67v2.63h-1.73v9h-2.69v-9h-1.53v-2.63ZM9.4 26.99l1.73-4.5h1.42v3.2h6.69v-3.2h1.51l1.73 4.5H9.39Z"/>
</svg>
