<svg viewBox="0 0 32 32" xmlns="http://www.w3.org/2000/svg">
  <path d="M8.38 26.82h15.29V18H8.38zm2-6.82h11.29v4.82H10.38zM27.95 4.97l-3.06-3.83a3.07 3.07 0 0 0-2.4-1.15H6.45a3.07 3.07 0 0 0-3.07 3.07v7.56H5.6v3.09H3.38v15.21c0 1.69 1.38 3.07 3.07 3.07h19.11c1.69 0 3.07-1.38 3.07-3.07V6.89c0-.7-.24-1.38-.67-1.92Zm-1.33 23.95c0 .59-.48 1.07-1.07 1.07H6.45c-.59 0-1.07-.48-1.07-1.07V15.71H7.6V8.62H5.38V3.06c0-.59.48-1.07 1.07-1.07h1.26v3.64h2V1.99h2.01v3.64h2V1.99h2.01v3.64h2V1.99h2.01v3.64h2V1.99h.74c.33 0 .63.15.83.4l3.06 3.83c.15.19.23.43.23.67v22.03Z"/>
</svg>
