<svg viewBox="0 0 40 40" xmlns="http://www.w3.org/2000/svg">
  <path d="M10.55 33.48h18.97V22.65H10.55zm2.25-8.58h14.47v6.33H12.8zM34.93 6.21l-3.85-4.82c-.72-.89-1.78-1.4-2.92-1.4H7.99a3.73 3.73 0 0 0-3.73 3.73v9.38h2.8v4.15h-2.8v19a3.73 3.73 0 0 0 3.73 3.73h24.03a3.73 3.73 0 0 0 3.73-3.73V8.54c0-.84-.29-1.67-.82-2.33m-1.44 30.05c0 .82-.66 1.48-1.48 1.48H7.99c-.81 0-1.48-.66-1.48-1.48V19.51h2.8v-8.66h-2.8V3.72c0-.82.66-1.48 1.48-1.48h1.12v4.71h2.25V2.24h3.14v4.71h2.25V2.24h3.14v4.71h2.25V2.24h3.14v4.71h2.25V2.24h.62c.45 0 .87.2 1.15.56l3.85 4.82c.21.26.32.59.32.92v27.72Z"/>
</svg>
