<svg viewBox="0 0 24 24" xmlns="http://www.w3.org/2000/svg">
  <path d="M8.27 4.71 5.72 6.2l2.63 4.41h3.87l10.55-6.02c1.15-.68 1.55-2.17.9-3.33-.66-1.17-2.15-1.6-3.31-.97l-3.81 1.95L11.31.15 7.96 2.08l3.2 3.21-.94.51-1.95-1.08Zm2.54-2.25.64-.37 5.19 2.08 4.54-2.32c.34-.19.77-.06.96.28.19.33.07.77-.25.95L11.75 8.86H9.34L8.13 6.83l.17-.1 1.91 1.06 3.86-2.07zM19.74 18v-3.41H7.5V18h-.91l-.82-2.5h.76v-4.86H-.01v4.86h.63V18h-.63v4.33c0 .93.75 1.68 1.67 1.68h17.17c.83 0 1.61-.43 2.06-1.13l3.1-4.87h-4.24Zm-5.24-1.66H18v1.6h-3.5zm-5.25 0h3.5v1.6h-3.5zM1.74 12.4h3.05v1.36H1.74zm.62 3.1h1.57l.82 2.5H2.36zm17.05 6.43c-.13.2-.35.32-.58.32H1.74v-2.5H20.8z"/>
</svg>
