<svg viewBox="0 0 64 64" xmlns="http://www.w3.org/2000/svg">
  <path d="m23.71 25-5.42-9.09 3.85-2.24 5.45 3.03 6.79-3.64-9.14-9.14L30.87.67l14.72 5.9L57.36.55c2.16-1.18 4.86-.4 6.06 1.74a4.49 4.49 0 0 1-1.63 6.06L32.57 25zM0 59.53C0 62 2 64 4.47 64h45.78c.56 0 1.1-.07 1.63-.21 1.58-.41 2.97-1.4 3.86-2.81l1.79-2.81H0zM64 48l-4.73 7.42H0V48h1.67v-8.76H0V27.89h17.45v11.35h-2.03L18.29 48h3.12V36.97h32.31V48h10.27ZM12.45 32.89H5v1.35h7.45zm22.62 9.08h-8.66v3.6h8.66zm13.66 0h-8.66v3.6h8.66z"/>
</svg>
