<svg viewBox="0 0 16 16" xmlns="http://www.w3.org/2000/svg">
  <path d="M5.51 3.05 3.58 4.18l1.89 3.16h2.72l6.91-3.97c.84-.5 1.13-1.59.66-2.44a1.815 1.815 0 0 0-2.43-.71l-2.31 1.2L7.52.01 5.03 1.45l2.13 2.13-.35.19zm1.96-1.28.17-.1 3.45 1.39 2.93-1.52c.15-.08.33-.03.42.12.08.15.03.33-.1.41L7.78 5.84H6.31l-.56-.93 1.04.58 2.85-1.53-2.18-2.18ZM12.86 12v-1.97H5V12h-.49l-.61-1.67h.45V6.76H-.01v3.57h.42V12h-.42v2.88c0 .62.5 1.12 1.12 1.12h11.44c.56 0 1.07-.28 1.37-.75L15.99 12zM1.49 8.26h1.36v.57H1.49zm.82 2.07.32.89H1.9v-.89h.4Zm7.39 1.2h1.66v.4H9.7zm-3.2 0h1.66v.4H6.5zm6.16 2.91s-.06.06-.11.06H1.49v-1h11.77z"/>
</svg>
