<svg viewBox="0 0 64 64" xmlns="http://www.w3.org/2000/svg">
  <path d="m36.82 43.86.98 2.64c-3.74 2.23-8.1 3.52-12.76 3.52C11.22 50.02.02 38.82.02 25.01S11.22 0 25.03 0c4.45 0 8.62 1.16 12.24 3.2l-.97 2.62a22.1 22.1 0 0 0-11.26-3.07c-12.29.01-22.27 9.99-22.27 22.26s9.99 22.25 22.26 22.25c4.33 0 8.37-1.25 11.79-3.4m26.8 17.8L43.76 41.8l-1.05 2.84L61.68 63.6c.27.27.62.4.97.4s.7-.13.97-.4c.54-.54.54-1.41 0-1.95Zm-17.2-31.01-6.51 17.6-6.51-17.6-17.6-6.51 17.6-6.51L39.91.03l6.51 17.6 17.6 6.51zm-.96-2.58 10.63-3.93-10.63-3.93-1.19-.44-.44-1.19L39.9 7.95l-3.93 10.63-.44 1.19-1.19.44-10.63 3.93 10.63 3.93 1.19.44.44 1.19 3.93 10.63 3.93-10.63.44-1.19z"/>
</svg>
