<svg viewBox="0 0 40 40" xmlns="http://www.w3.org/2000/svg">
  <path fill="#1e1e1c" d="M2.53 15.5h28.39v4H2.53zm0 10.68h28.39v4H2.53zm0-21.36h32.04v4H2.53z"/>
  <path fill="#fff" d="M32.06 22.81c0 4.77-3.86 8.63-8.63 8.63s-8.63-3.86-8.63-8.63 3.86-8.63 8.63-8.63 8.63 3.86 8.63 8.63m-8.63 12.63c-6.96 0-12.63-5.67-12.63-12.63s5.67-12.63 12.63-12.63 12.63 5.67 12.63 12.63-5.67 12.63-12.63 12.63m0-17.26c-2.55 0-4.63 2.08-4.63 4.63s2.08 4.63 4.63 4.63 4.63-2.08 4.63-4.63-2.08-4.63-4.63-4.63"/>
  <path fill="#1e1e1c" d="M23.44 33.51c-5.88 0-10.67-4.79-10.67-10.67s4.79-10.67 10.67-10.67 10.67 4.79 10.67 10.67-4.79 10.67-10.67 10.67m0-17.34c-3.68 0-6.67 2.99-6.67 6.67s2.99 6.67 6.67 6.67 6.67-2.99 6.67-6.67-2.99-6.67-6.67-6.67m12.71 23.17c-.98 0-1.95-.37-2.7-1.12l-6.57-6.57c-.78-.78-.78-2.05 0-2.83a1.99 1.99 0 0 1 2.1-.46c-.26-.71-.11-1.54.46-2.1.78-.78 2.05-.78 2.83 0l6.57 6.57a3.82 3.82 0 0 1-2.7 6.52Zm-.13-3.68"/>
</svg>
