<svg viewBox="0 0 32 32" xmlns="http://www.w3.org/2000/svg">
  <path d="m16.63 20.16 1.22 3.29c-1.65.82-3.49 1.29-5.46 1.29C5.55 24.74.01 19.2.01 12.37S5.55 0 12.39 0c1.89 0 3.66.43 5.26 1.19l-1.22 3.3a8.86 8.86 0 0 0-4.04-.98C7.5 3.5 3.51 7.47 3.51 12.37s3.98 8.87 8.88 8.87c1.53 0 2.98-.39 4.24-1.08m6.48.47-1.34 3.61 7.25 7.24c.34.34.79.51 1.24.51s.9-.17 1.24-.51c.68-.68.68-1.79 0-2.47zm.1-5.32-3.26 8.79-3.26-8.79-8.8-3.25 8.8-3.25L19.96 0l3.26 8.79 8.8 3.25-8.8 3.25Zm-1.29-3.25-1.44-.53-.53-1.44-.53 1.44-1.44.53 1.44.53.53 1.44.53-1.44z"/>
</svg>
