<svg viewBox="0 0 40 40" xmlns="http://www.w3.org/2000/svg">
  <path d="M39.65 38.1a1.123 1.123 0 0 1-.8 1.92c-.29 0-.58-.11-.8-.33L26.79 28.42l.86-2.33 11.99 12Zm-24.13-9.29c-7.31 0-13.26-5.95-13.26-13.27S8.21 2.27 15.52 2.27c2.45 0 4.74.68 6.71 1.84l.8-2.15A15.45 15.45 0 0 0 15.52.02C6.96.02.01 6.97.01 15.54s6.94 15.52 15.51 15.52c2.83 0 5.48-.77 7.76-2.1l-.8-2.15c-2.03 1.26-4.41 2-6.97 2Zm13.49-9.62L24.94 30.2l-4.07-11.01-11-4.07 11-4.07L24.94.04l4.07 11.01 11 4.07zm-.78-2.11 5.3-1.96-5.3-1.96-.97-.36-.36-.97-1.96-5.3-1.96 5.3-.36.97-.97.36-5.3 1.96 5.3 1.96.97.36.36.97 1.96 5.3 1.96-5.3.36-.97z"/>
</svg>
