<svg viewBox="0 0 40 40" xmlns="http://www.w3.org/2000/svg">
  <path fill="#1e1e1c" d="M34.6 7.95H2.56V5.7H34.6zm-21.61 8.43H2.56v2.25h9.31c.3-.79.67-1.55 1.13-2.25ZM2.56 27.06v2.25h10.47c-.46-.7-.84-1.46-1.14-2.25zm36.53 11.8c-.6.6-1.4.91-2.19.91s-1.59-.3-2.19-.91l-6.68-6.69c-1.48.79-3.16 1.24-4.95 1.24-5.82 0-10.55-4.74-10.55-10.56s4.73-10.56 10.55-10.56 10.55 4.74 10.55 10.56c0 1.78-.45 3.46-1.23 4.93l6.69 6.69a3.096 3.096 0 0 1 0 4.38Zm-16.01-7.7c4.58 0 8.3-3.73 8.3-8.31s-3.73-8.31-8.3-8.31-8.3 3.73-8.3 8.31 3.73 8.31 8.3 8.31m14.42 4.9-6.38-6.39c-.37.43-.77.84-1.2 1.2l6.38 6.39c.32.32.88.32 1.2 0 .33-.33.33-.87 0-1.2"/>
</svg>
