<svg viewBox="0 0 40 40" xmlns="http://www.w3.org/2000/svg">
  <path d="M17.81 0 6.15 9.97h-.02v7.52c1.12-1.19 2.47-2.16 4-2.8v-.72h2.5c.64-.11 1.3-.18 1.97-.18s1.33.07 1.97.18h9.51v9.83c.07.52.12 1.05.12 1.6s-.05 1.07-.12 1.6v2.93h-.8c-.65 1.53-1.63 2.89-2.84 4h7.64v-.02h.01l9.88-9.88V0H17.78ZM12.3 9.98 19.29 4h4.2l-5.92 5.98h-5.26Zm14.97 0h-4.08L29.11 4h4.08zM36 22.37l-5.89 5.9V12.8L36 6.86zm-15.58-7.01h4.18v4.13a11.65 11.65 0 0 0-4.18-4.13m-5.8.44c-5.3 0-9.61 4.31-9.61 9.6 0 1.92.57 3.71 1.55 5.21L.58 36.59a2.004 2.004 0 0 0 1.41 3.42c.51 0 1.02-.2 1.41-.59l5.98-5.97a9.57 9.57 0 0 0 5.23 1.56c5.3 0 9.61-4.31 9.61-9.6s-4.31-9.6-9.61-9.6Zm0 15.2c-3.09 0-5.61-2.51-5.61-5.6s2.52-5.6 5.61-5.6 5.61 2.51 5.61 5.6-2.52 5.6-5.61 5.6"/>
</svg>
