<svg viewBox="0 0 48 48" xmlns="http://www.w3.org/2000/svg">
  <path fill="#1e1e1c" d="M41.51 9.45H3.07v-2.5h38.44zM16.43 19.76H3.07v2.5h12.08c.34-.88.77-1.72 1.28-2.5M3.07 32.58v2.5h13.6c-.54-.78-1.01-1.61-1.39-2.5zM46.91 46.3a3.595 3.595 0 0 1-5.1 0l-8.02-8.03c-1.77.96-3.78 1.5-5.93 1.5-6.89 0-12.5-5.61-12.5-12.51s5.61-12.51 12.5-12.51 12.5 5.61 12.5 12.51c0 2.13-.54 4.14-1.48 5.9l8.03 8.03a3.603 3.603 0 0 1 0 5.1Zm-19.04-9.02c5.52 0 10-4.49 10-10.01s-4.49-10.01-10-10.01-10 4.49-10 10.01 4.49 10.01 10 10.01m17.27 5.68-7.69-7.69c-.47.57-1 1.09-1.56 1.57l7.69 7.69c.42.42 1.15.42 1.57 0s.43-1.14 0-1.57Z"/>
</svg>
