<svg viewBox="0 0 32 32" xmlns="http://www.w3.org/2000/svg">
  <path fill="#1e1e1c" d="M2.02 12.26h22.71v3.5H2.02zm0 8.54h22.71v3.5H2.02zm0-17.08h25.63v3.5H2.02z"/>
  <path fill="#fff" d="M25.52 18.27a6.8 6.8 0 1 1-13.6 0 6.8 6.8 0 0 1 13.6 0m-6.8 10.3c-5.68 0-10.3-4.62-10.3-10.3s4.62-10.3 10.3-10.3 10.3 4.62 10.3 10.3-4.62 10.3-10.3 10.3m0-13.61c-1.82 0-3.3 1.48-3.3 3.3s1.48 3.3 3.3 3.3 3.3-1.48 3.3-3.3-1.48-3.3-3.3-3.3"/>
  <path fill="#1e1e1c" d="M18.71 26.89c-4.72 0-8.57-3.84-8.57-8.57s3.84-8.57 8.57-8.57 8.57 3.84 8.57 8.57-3.84 8.57-8.57 8.57m0-13.64c-2.79 0-5.07 2.27-5.07 5.07a5.07 5.07 0 1 0 5.07-5.07m9.99 18.22c-.81 0-1.63-.31-2.25-.93l-5.17-5.17a1.75 1.75 0 0 1 1.53-2.96 1.75 1.75 0 0 1 2.96-1.53l5.17 5.17a3.18 3.18 0 0 1-2.25 5.42Zm-.23-2.94"/>
  <path fill="none" d="M10.81 10.42h19.8v19.8h-19.8z"/>
</svg>
