<svg viewBox="0 0 32 32" xmlns="http://www.w3.org/2000/svg">
  <path d="M15.07 0 6.12 7.98v6.78c.61-.46 1.28-.83 2-1.1V9.99h13.97v13.96h-3.74c-.28.72-.66 1.39-1.12 2h6.86v-.03l.02.02L32 18.39V0zm.76 2h5.09l-6.35 5.98H9.13zm1.65 5.98L23.83 2h4.78l-5.93 5.98zm6.62 15.21V9.39l5.91-5.96v14.11zm-6.69-6.69h3.6v-5.31h-7.5v2.39c1.59.55 2.94 1.58 3.9 2.92m-1.9-3.31h3.5v1.31h-3.5zm-4.59.95c-3.84 0-6.97 3.13-6.97 6.97 0 1.56.52 2.99 1.39 4.16L.3 30.29a.996.996 0 0 0 .71 1.7c.26 0 .51-.1.71-.29l5.03-5.03c1.16.87 2.6 1.4 4.17 1.4 3.84 0 6.97-3.13 6.97-6.97s-3.13-6.97-6.97-6.97Zm0 11.94c-2.74 0-4.97-2.23-4.97-4.97s2.23-4.97 4.97-4.97 4.97 2.23 4.97 4.97-2.23 4.97-4.97 4.97"/>
</svg>
