<svg viewBox="0 0 48 48" xmlns="http://www.w3.org/2000/svg">
  <path d="m25.61 31.01 1.57 4.25a18.46 18.46 0 0 1-8.51 2.08C8.37 37.34.01 28.98.01 18.67S8.37 0 18.67 0c2.93 0 5.69.69 8.16 1.9l-1.57 4.24a14.1 14.1 0 0 0-6.59-1.64c-7.81 0-14.16 6.35-14.16 14.16s6.35 14.16 14.16 14.16c2.52 0 4.88-.67 6.93-1.83Zm8.62.05-1.72 4.65 11.63 11.64c.44.44 1.02.66 1.59.66a2.25 2.25 0 0 0 1.59-3.84l-13.1-13.1Zm.58-8.06-4.88 13.2L25.05 23l-13.2-4.89 13.2-4.89L29.93.03l4.88 13.2 13.2 4.89-13.2 4.89Zm-1.56-4.22 1.79-.66-1.79-.66-1.94-.72-.72-1.94-.66-1.79-.66 1.79-.72 1.94-1.94.72-1.79.66 1.79.66 1.94.72.72 1.94.66 1.79.66-1.79.72-1.94z"/>
</svg>
