<svg viewBox="0 0 64 64" xmlns="http://www.w3.org/2000/svg">
  <path fill="#1e1e1c" d="M4.06 25.52h45.41v5H4.06zm0 17.09h45.41v5H4.06zm0-34.17h51.25v5H4.06z"/>
  <path fill="#fff" d="M51.83 36.49c0 7.86-6.37 14.24-14.24 14.24-7.86 0-14.24-6.37-14.24-14.24 0-7.86 6.37-14.24 14.24-14.24 7.86 0 14.24 6.37 14.24 14.24M37.59 55.73c-10.61 0-19.24-8.63-19.24-19.24s8.63-19.24 19.24-19.24 19.24 8.63 19.24 19.24-8.63 19.24-19.24 19.24m0-28.48c-5.09 0-9.24 4.14-9.24 9.24s4.14 9.24 9.24 9.24 9.24-4.14 9.24-9.24-4.14-9.24-9.24-9.24"/>
  <path fill="#1e1e1c" d="M37.56 53.11c-9.17 0-16.62-7.46-16.62-16.62s7.46-16.62 16.62-16.62 16.62 7.46 16.62 16.62-7.46 16.62-16.62 16.62m0-28.24c-6.41 0-11.62 5.21-11.62 11.62s5.21 11.62 11.62 11.62 11.62-5.21 11.62-11.62-5.21-11.62-11.62-11.62M58.41 62.8a5.46 5.46 0 0 1-3.89-1.61L43.68 50.35c-.98-.98-.98-2.56 0-3.54l4.24-4.24c.98-.98 2.56-.98 3.54 0L62.3 53.41a5.5 5.5 0 0 1 0 7.77 5.46 5.46 0 0 1-3.89 1.61Z"/>
</svg>
