<svg viewBox="0 0 32 32" xmlns="http://www.w3.org/2000/svg">
  <path d="M31.71 30.29a.996.996 0 0 1-.71 1.7c-.26 0-.51-.1-.71-.29l-8.82-8.82.76-2.06 9.47 9.47Zm-19.32-7.54c-5.72 0-10.38-4.65-10.38-10.38S6.67 2 12.39 2c1.91 0 3.69.53 5.23 1.43l.71-1.91C16.57.55 14.54 0 12.39 0 5.55 0 .01 5.54.01 12.38s5.54 12.38 12.38 12.38c2.23 0 4.32-.6 6.13-1.63l-.71-1.91c-1.58.98-3.43 1.55-5.42 1.55Zm10.82-7.43-3.26 8.8-3.26-8.8-8.8-3.26 8.8-3.26L19.96 0l3.26 8.8 8.8 3.26-8.8 3.26Zm-.69-1.87 3.73-1.38-3.73-1.38-.86-.32-.32-.86-1.38-3.73-1.38 3.73-.32.86-.86.32-3.73 1.38 3.73 1.38.86.32.32.86 1.38 3.73 1.38-3.73.32-.86z"/>
</svg>
