<svg viewBox="0 0 64 64" xmlns="http://www.w3.org/2000/svg">
  <path d="M30.64 0 12.99 16.14h-.02v13.91c.86-.62 1.77-1.16 2.75-1.59v-9.57h29.54v29.54h-9.77c-.44.98-.99 1.9-1.63 2.75h14.15v-.03L64 36.28V0zm1.07 2.75h12.15l-14.21 13.4H17.07zm1.94 13.39 14.21-13.4h11.46l-13.27 13.4H33.64Zm14.36 31.27V18.08L61.25 4.71v30.37zm-6.7-15.33V22.7H26.92v5.4c2.29.84 4.32 2.21 5.94 3.98h8.44Zm-11.63-6.64h8.89v3.88h-8.89zm-7.89 3.11c-7.54 0-13.68 6.14-13.68 13.68 0 3.27 1.16 6.28 3.08 8.63L.4 61.65a1.376 1.376 0 0 0 1.94 1.95l10.79-10.79c2.36 1.93 5.37 3.1 8.65 3.1 7.54 0 13.68-6.14 13.68-13.68s-6.14-13.68-13.68-13.68Zm0 24.61c-6.03 0-10.93-4.9-10.93-10.93s4.9-10.93 10.93-10.93 10.93 4.9 10.93 10.93-4.9 10.93-10.93 10.93"/>
</svg>
