<svg viewBox="0 0 40 40" xmlns="http://www.w3.org/2000/svg">
  <path d="M34.57 8.82H2.53v-4h32.04zM13.15 15.5H2.53v4h8.72c.4-1.45 1.04-2.8 1.89-4ZM2.53 26.18v4h10.66c-.86-1.2-1.52-2.54-1.92-4zm36.32 12.05a3.817 3.817 0 0 1-5.4 0l-5.66-5.66c-1.33.6-2.8.94-4.35.94-5.88 0-10.67-4.79-10.67-10.67s4.79-10.67 10.67-10.67 10.67 4.79 10.67 10.67c0 1.54-.34 3-.93 4.33l5.66 5.66a3.82 3.82 0 0 1 0 5.4Zm-15.41-8.72c3.68 0 6.67-2.99 6.67-6.67s-2.99-6.67-6.67-6.67-6.67 2.99-6.67 6.67 2.99 6.67 6.67 6.67"/>
</svg>
