<svg viewBox="0 0 48 48" xmlns="http://www.w3.org/2000/svg">
  <path fill="#1e1e1c" d="M3.04 18.76H37.1v4.5H3.04zm0 12.82H37.1v4.5H3.04zm0-25.63h38.44v4.5H3.04z"/>
  <path fill="#fff" d="M38.22 27.13c0 6.15-4.98 11.13-11.13 11.13s-11.13-4.98-11.13-11.13S20.94 16 27.09 16s11.13 4.98 11.13 11.13M27.08 42.76c-8.62 0-15.63-7.01-15.63-15.63S18.46 11.5 27.08 11.5s15.63 7.01 15.63 15.63-7.01 15.63-15.63 15.63m0-22.26c-3.66 0-6.63 2.98-6.63 6.63s2.98 6.63 6.63 6.63 6.63-2.97 6.63-6.63-2.97-6.63-6.63-6.63"/>
  <path fill="#1e1e1c" d="M27.08 40.38c-7.36 0-13.35-5.99-13.35-13.36s5.99-13.36 13.35-13.36 13.35 5.99 13.35 13.36-5.99 13.36-13.35 13.36m0-22.22c-4.88 0-8.85 3.97-8.85 8.86s3.97 8.86 8.85 8.86 8.85-3.97 8.85-8.86-3.97-8.86-8.85-8.86m16.67 29.76c-1.09 0-2.17-.41-3-1.24l-8.09-8.09c-.88-.88-.88-2.3 0-3.18.61-.61 1.49-.8 2.26-.56-.24-.77-.06-1.65.56-2.27.88-.88 2.3-.88 3.18 0l8.09 8.09c1.65 1.66 1.65 4.35 0 6-.83.83-1.91 1.24-3 1.24Zm-.19-4.07"/>
</svg>
