<svg viewBox="0 0 24 24" xmlns="http://www.w3.org/2000/svg">
  <path d="m13.16 15.74.62 1.67a9.2 9.2 0 0 1-4.49 1.16c-5.12 0-9.28-4.16-9.28-9.28S4.17 0 9.29 0c1.57 0 3.05.4 4.35 1.08l-.62 1.66c-1.1-.63-2.37-1-3.73-1-4.15.01-7.53 3.39-7.53 7.55s3.38 7.53 7.53 7.53c1.42 0 2.74-.4 3.87-1.08m3.67-.15-.67 1.81 6.35 6.35c.17.17.4.26.62.26s.45-.08.62-.26c.34-.34.34-.9 0-1.24zm.58-4.09-2.44 6.6-2.44-6.6-6.6-2.44 6.6-2.44L14.97.01l2.44 6.6 6.6 2.44-6.6 2.44Zm-.61-1.65 2.16-.8-2.16-.8-.75-.28-.28-.75-.8-2.16-.8 2.16-.28.75-.75.28-2.16.8 2.16.8.75.28.28.75.8 2.16.8-2.16.28-.75z"/>
</svg>
