<svg viewBox="0 0 64 64" xmlns="http://www.w3.org/2000/svg">
  <path fill="#1e1e1c" d="M62.18 53.37 45.07 36.24c2.06-3.56 3.25-7.69 3.25-12.09C48.31 10.83 37.47-.02 24.15-.02S0 10.83 0 24.16s10.84 24.18 24.16 24.18c4.42 0 8.57-1.2 12.14-3.29l17.1 17.11c1.21 1.21 2.8 1.82 4.39 1.82s3.18-.61 4.39-1.82c2.42-2.42 2.42-6.37 0-8.79M2.74 24.16c0-11.82 9.61-21.43 21.41-21.43s21.41 9.61 21.41 21.43-9.6 21.43-21.41 21.43S2.74 35.97 2.74 24.16m57.49 36.06a3.46 3.46 0 0 1-4.89 0L38.63 43.5c1.85-1.39 3.5-3.04 4.89-4.9l16.71 16.72a3.47 3.47 0 0 1 0 4.9"/>
</svg>
