<svg viewBox="0 0 24 24" xmlns="http://www.w3.org/2000/svg">
  <path d="M21.5 5.99V4.52C21.5 2.03 19.47 0 16.99 0s-4.51 2.03-4.51 4.52v1.47h-2.5v4.1H0v13.92h17.78v-6.45h4.35c1.03 0 1.87-.84 1.87-1.88V5.99zm-7.28-1.47c0-1.52 1.24-2.76 2.76-2.76S19.74 3 19.74 4.52v1.47h-5.52zm-4.24 7.32v3.83c0 .4.13.77.34 1.07l-.45.48c-.53.57-1.43.57-1.96 0l-5.02-5.39h7.1Zm-8.24 1.35 3.6 3.87-3.6 3.61V13.2Zm.89 9.06 3.91-3.91.08.09c.6.65 1.4 1 2.26 1s1.66-.35 2.26-1l.08-.09 3.91 3.91zm13.39-1.59-3.11-3.11h3.11zm6.22-4.99c0 .07-.06.13-.12.13H11.85c-.07 0-.12-.06-.12-.13V7.74h10.52v7.93Zm-6.52-4.71c0-.7.57-1.27 1.27-1.27s1.27.57 1.27 1.27c0 .36-.15.68-.39.91v1.03c0 .48-.39.88-.87.88s-.87-.39-.87-.88v-1.03c-.24-.23-.39-.55-.39-.91Z"/>
</svg>
