<svg viewBox="0 0 32 32" xmlns="http://www.w3.org/2000/svg">
  <path d="M7.3 22.84 0 30.58V15l7.31 7.85Zm7.41 1.7c-.77.83-1.81 1.29-2.92 1.29s-2.14-.46-2.92-1.29l-.22-.23L1.38 32h20.84l-7.31-7.7-.22.24Zm-1.53-1.3c-.45-.52-.73-1.2-.73-1.94v-7.7H1.43l8.92 9.58c.76.82 2.04.83 2.84.06Zm10.42 7.3v-6.23h-5.91zm8.39-22.46v13.23c0 1.1-.9 2-2 2H15.45c-1.1 0-2-.9-2-2V8.08h3.37V5.92c0-3.26 2.65-5.92 5.9-5.92s5.9 2.65 5.9 5.91v2.16h3.37Zm-13.17 0h7.8V5.92c0-2.16-1.75-3.91-3.9-3.91s-3.9 1.75-3.9 3.91zm5.52 6.52a1.62 1.62 0 1 0-3.24 0c0 .52.25.97.62 1.27V17c0 .55.45 1 1 1s1-.45 1-1v-1.13c.38-.3.62-.75.62-1.27"/>
</svg>
