<svg viewBox="0 0 16 16" xmlns="http://www.w3.org/2000/svg">
  <path d="M7.51 12.42 10.92 16H1.04l3.42-3.61c.41.4.94.62 1.51.62s1.08-.22 1.49-.61c.01 0 .03 0 .04.01Zm-1.31-.96c-.28-.4-.44-.89-.44-1.42V6.57H1.07l4.39 4.71c.2.21.48.27.74.18M0 7.62v7.31l3.43-3.62zm11.94 7.28v-2.35H9.7zM16 3.9v6.14c0 .97-.78 1.75-1.75 1.75h-6c-.96 0-1.75-.79-1.75-1.75V3.9h1.63v-.78C8.13 1.4 9.53 0 11.25 0s3.12 1.4 3.12 3.12v.78zm-6.37 0h3.24v-.78c0-.89-.73-1.62-1.62-1.62s-1.62.73-1.62 1.62zm2.66 3.42c0-.58-.47-1.05-1.04-1.05a1.048 1.048 0 0 0-.75 1.77v.54c0 .41.34.75.75.75s.75-.34.75-.75v-.55c.18-.19.29-.44.29-.72Z"/>
</svg>
