<svg viewBox="0 0 16 16" xmlns="http://www.w3.org/2000/svg">
  <path d="M14.37 3.9v-.78c0-1.72-1.4-3.12-3.12-3.12S8.13 1.4 8.13 3.12v.78H6.5v2.67H0V16h11.94v-4.2h2.31c.96 0 1.75-.79 1.75-1.75V3.9zm-4.74-.77c0-.89.73-1.62 1.62-1.62s1.62.73 1.62 1.62v.78H9.63zM6.5 8.08v1.97c0 .34.1.65.27.92l-.29.32c-.28.3-.74.3-1.02 0L2.47 8.08zm-5 1.15 1.92 2.06-1.92 1.92zm.83 5.27 2.12-2.12c.42.41.95.64 1.52.64s1.11-.23 1.52-.64l2.12 2.12zm8.11-1.29L9.03 11.8h1.41zm4.06-3.16c0 .14-.11.25-.25.25h-6c-.14 0-.25-.11-.25-.25V5.41h6.5zm-4-2a1.048 1.048 0 0 1 .75-1.77A1.048 1.048 0 0 1 12 8.05v.55c0 .41-.34.75-.75.75s-.75-.34-.75-.75v-.54Z"/>
</svg>
