<svg viewBox="0 0 48 48" xmlns="http://www.w3.org/2000/svg">
  <path d="M42.88 12.22V8.68c0-4.79-3.9-8.69-8.69-8.69s-8.69 3.9-8.69 8.69v3.54h-5.11v8.42H-.01v27.35h35.28V34.76h10.47c1.24 0 2.25-1.01 2.25-2.25V12.22zM28.01 8.68c0-3.41 2.77-6.19 6.18-6.19s6.18 2.78 6.18 6.19v3.54H28V8.68ZM20.4 23.14v9.37c0 .58.23 1.11.59 1.51l-.97 1.04a3.284 3.284 0 0 1-4.8 0L4.11 23.14zM2.49 25.07l8.65 9.28-8.65 8.66zm1.06 20.42 9.3-9.31.55.59c1.12 1.21 2.63 1.87 4.23 1.87s3.1-.66 4.23-1.87l.55-.59 9.3 9.31zm29.21-2.48-8.24-8.24h8.24zm12.73-10.75H22.91V14.72h22.58zM31.74 21.84c0-1.36 1.1-2.46 2.46-2.46s2.46 1.1 2.46 2.46c0 .9-.49 1.68-1.21 2.11v1.53a1.25 1.25 0 0 1-2.5 0v-1.53a2.46 2.46 0 0 1-1.21-2.11"/>
</svg>
