<svg viewBox="0 0 48 48" xmlns="http://www.w3.org/2000/svg">
  <path d="M46.37 16.3s-.01.02-.03.05c0 .01-.01.02-.02.04q-.045.075-.12.21c0 .01-.01.02-.02.03-.05.08-.11.17-.18.28l-.06.09c-.08.12-.17.26-.27.4-.02.02-.04.05-.05.08-.09.13-.2.28-.31.42-.03.03-.05.07-.08.1-.13.17-.27.35-.42.53-.03.04-.06.07-.09.11-.14.17-.29.34-.44.51-.03.03-.06.06-.08.1l-.56.59c-.04.04-.09.09-.14.13-.19.19-.39.37-.6.56-.02.02-.04.04-.06.05-.22.19-.46.39-.7.57-.06.04-.11.09-.17.13q-.375.285-.78.54s-.02.01-.03.02c-.26.17-.53.32-.81.47-.07.04-.13.07-.2.11-.29.15-.59.28-.9.41-.04.02-.08.03-.12.04-.28.11-.57.2-.86.28-.07.02-.14.04-.22.06-.33.08-.66.15-1.01.2-.06 0-.13.01-.19.02a7 7 0 0 1-.94.06h-.24c-.1 0-.21 0-.31-.01-.16 0-.32-.02-.48-.03-.11-.01-.23-.03-.34-.04a8 8 0 0 1-.83-.14l-.49-.12c-.12-.03-.24-.07-.36-.1-.17-.05-.34-.11-.51-.17-.12-.04-.24-.08-.36-.13-.17-.07-.34-.14-.52-.22l-.33-.33c-.24-.23-.37-.56-.34-.9s.2-.64.48-.83l6.85-5.55c.54-.43.62-1.22.19-1.76s-1.22-.62-1.76-.19l-6.74 5.46c-.58.41-1 .99-1.26 1.63l-5.58-4.12c-.56-.41-1.34-.29-1.75.26-.41.56-.29 1.34.26 1.75l6.18 4.57c-.13.08-.27.17-.4.24-.09.05-.17.09-.25.14-.17.09-.34.18-.51.26-.1.05-.19.09-.29.13-.15.07-.3.13-.45.19-.1.04-.2.07-.3.11a7 7 0 0 1-.72.22c-.14.04-.27.07-.41.1-.1.02-.2.04-.29.06l-.4.06-.28.03-.39.03c-.09 0-.17 0-.26.01h-.2c-.27 0-.53-.02-.78-.05a8 8 0 0 1-1-.19c-.06-.02-.12-.03-.18-.05-.24-.07-.48-.15-.72-.23-.03-.01-.07-.02-.1-.04-.26-.1-.5-.22-.74-.34-.06-.03-.11-.06-.17-.09a9 9 0 0 1-.68-.39s-.01 0-.02-.01c-.23-.14-.44-.3-.65-.45-.05-.04-.1-.07-.14-.11-.2-.16-.4-.31-.58-.47-.02-.01-.03-.03-.05-.04-.17-.15-.34-.31-.5-.46-.04-.04-.08-.07-.11-.11-.16-.16-.32-.33-.47-.49-.02-.03-.05-.05-.07-.08-.13-.14-.25-.28-.37-.42-.03-.03-.05-.06-.08-.1-.12-.15-.24-.3-.35-.44a31 31 0 0 1-.32-.43c-.01-.02-.03-.04-.04-.06-.09-.12-.16-.24-.23-.34a.16.16 0 0 1-.04-.07q-.09-.135-.15-.24s0-.01-.01-.02c-.05-.08-.08-.13-.1-.17 0-.02-.01-.02-.02-.03l-.03-.05c-.22-.4-.4-.81-.56-1.21-.63-1.62-.82-3.25-.76-4.77.17-4.18 2.24-7.53 2.24-7.53.15.45.49.88.92 1.27.32.3.7.57 1.07.82 1.13.74 2.3 1.22 2.3 1.22 1.12.3 2.09.59 2.92.87 3.59 1.2 4.57 2.11 4.57 2.11.43.34.8.69 1.13 1.04.18-.47.41-.95.71-1.42.62-1 1.49-2 2.69-2.96 0 0 .7-.65 3-1.6.69-.29 1.52-.6 2.52-.94s2.16-.69 3.52-1.05c0 0 4.47-1.84 5.18-3.99 0 0 .74 1.2 1.45 3.11.12.32.23.66.35 1.01.45 1.42.83 3.12.9 4.96.09 2.29-.28 4.79-1.58 7.22ZM12.15 37.75c-.2.12-.41.17-.63.17-.43 0-.85-.22-1.08-.62-.35-.6-.15-1.36.45-1.71 4.57-2.66 13.21-2.18 18.9-1.28q-.075-.555-.21-1.08c-.03-.12-.07-.24-.11-.36q-.105-.36-.24-.72c-.05-.14-.12-.27-.18-.4-.09-.21-.19-.42-.3-.62-.07-.14-.15-.27-.23-.4q-.165-.285-.36-.57c-.09-.13-.18-.26-.28-.38-.14-.18-.28-.35-.43-.53-.1-.12-.21-.24-.32-.36-.16-.17-.33-.33-.5-.49-.11-.11-.23-.21-.34-.32-.19-.16-.38-.32-.58-.47-.12-.09-.23-.18-.35-.27-.23-.16-.47-.32-.71-.47-.1-.06-.2-.13-.31-.19-.71-.42-1.47-.78-2.28-1.09-.12-.05-.25-.08-.38-.13-.28-.1-.57-.2-.86-.28-.16-.05-.32-.08-.49-.13-.27-.07-.54-.14-.81-.19-.18-.04-.36-.07-.54-.1-.27-.05-.53-.09-.8-.12l-.58-.06c-.27-.03-.54-.04-.82-.06-.2 0-.4-.02-.6-.02-.11 0-.21-.01-.32-.01-.2 0-.4.01-.6.02-.15 0-.29 0-.44.01-.46.03-.93.06-1.4.12-8.2 1.06-14.2 7.1-13.38 13.5.05.38.12.75.22 1.12.03.12.07.24.11.36q.105.36.24.72c.05.14.12.27.18.4.09.21.19.42.3.62.07.14.15.27.23.4q.165.285.36.57c.09.13.18.26.28.38.14.18.28.35.42.52a10 10 0 0 0 .81.85c.11.11.23.22.35.32.19.16.38.31.58.47.12.09.23.19.36.27.23.16.46.31.7.46.11.07.21.14.32.2.71.42 1.47.78 2.27 1.08.13.05.26.09.39.13q.42.15.84.27c.16.05.33.09.5.13.26.07.53.13.8.19.18.04.37.07.55.1.26.05.53.09.8.12l.58.06c.27.03.54.04.81.06.2 0 .4.02.6.02.11 0 .21.01.32.01.2 0 .4-.01.6-.02.15 0 .29 0 .44-.01.46-.03.93-.06 1.4-.12 7.14-.91 12.6-5.59 13.38-11-6.46-1.08-14.14-1.11-17.62.91Zm18.91-15.39c-.2-.1-.41-.21-.61-.32-.1-.05-.2-.1-.3-.16-.31-.18-.62-.37-.94-.58 0 0-.13-.16-.31-.45-.07.14-.13.27-.2.4-.18.33-.34.6-.46.78s-.2.28-.2.28c-.13.09-.25.16-.38.23l1.22.9.06.03c.13.18.27.36.43.52l4.93 5.02.11.1c1.66 1.34 1.74 2.94 1.26 3.98-.47 1.02-1.68 1.99-3.65 1.61-.66-.14-1.41-.27-2.2-.4v.04c.11.84.09 1.67-.03 2.49.59.1 1.18.2 1.74.32 2.8.52 5.31-.66 6.41-3.02 1.09-2.37.35-5.09-1.9-6.93l-4.59-4.67s-.02 0-.03-.01c-.12-.05-.23-.1-.35-.16Z"/>
</svg>
