<svg viewBox="0 0 64 64" xmlns="http://www.w3.org/2000/svg">
  <path d="M60.35-.02c-.95 2.87-6.91 5.33-6.91 5.33-9.64 2.58-12.04 4.78-12.04 4.78-2.37 1.9-3.77 3.9-4.53 5.85-.44-.47-.94-.93-1.51-1.39 0 0-1.99-1.83-9.99-3.97 0 0-4.94-2.03-5.73-4.42 0 0-5.83 9.45-1.23 18.02 0 0 4.36 7.97 11.76 7.97 2.09 0 4.43-.65 6.98-2.29l1.53 1.13s.06.03.09.04q.255.39.6.72l6.58 6.7.12.11c2.35 1.89 2.45 4.16 1.76 5.66-.85 1.84-2.9 2.75-5.19 2.32-.86-.18-1.82-.35-2.85-.51 0-.08 0-.16-.02-.25-.98-7.68-8.98-13.14-18.55-13.14-1.07 0-2.16.07-3.26.21-10.98 1.4-18.99 9.46-17.9 18 .98 7.68 8.98 13.14 18.55 13.14 1.07 0 2.16-.07 3.26-.21 9.65-1.23 17-7.62 17.88-14.96.8.13 1.58.27 2.34.43 3.6.68 6.83-.84 8.22-3.86 1.4-3.04.44-6.53-2.46-8.91L41.3 29.8s-.05-.07-.08-.1c2.32 1.15 4.47 1.63 6.45 1.63 8.91 0 14.18-9.61 14.18-9.61 5.52-10.34-1.5-21.74-1.5-21.74M21.52 61.05c-.97.12-1.95.19-2.91.19-8.24 0-15.05-4.61-15.82-10.73C1.9 43.49 8.85 36.8 18.28 35.6c.97-.12 1.95-.19 2.91-.19 8.02 0 14.65 4.37 15.73 10.24-7.35-.9-16.91-1.05-22.24 2.06a1.373 1.373 0 0 0 .69 2.56c.24 0 .47-.06.69-.19 4.38-2.55 13.11-2.68 20.95-1.66-.67 6.14-7.09 11.57-15.5 12.64Zm8.64-31.64c-5.64 0-9.31-6.48-9.33-6.52-2.25-4.2-1.42-8.8-.38-11.84 1.54 1.07 3.13 1.79 3.86 2.09l.16.07.17.05c6.39 1.71 8.58 3.16 8.88 3.38l.1.08c1.1.88 1.91 1.81 2.47 2.8-.08 1.77.26 3.41.73 4.78-.12.58-.28 1.12-.47 1.6l-5.92-4.38a1.373 1.373 0 0 0-1.63 2.21l5.93 4.38c-1.57.86-3.11 1.32-4.57 1.32Zm29.26-9.02c-.05.08-4.63 8.19-11.77 8.19-1.9 0-3.89-.57-5.92-1.71l8.9-7.2c.59-.48.68-1.34.2-1.94-.48-.59-1.34-.68-1.93-.2l-8.94 7.24c-.1-.21-.2-.44-.3-.68.21-1.56.08-3.33-.74-5.13.29-2.15 1.43-4.5 4.19-6.71h.02l.1-.09c.34-.25 2.98-2.06 10.92-4.18l.17-.05.16-.07c2.26-.93 3.93-1.93 5.16-2.88 1.4 3.74 2.76 9.86-.22 15.42Z"/>
</svg>
