<svg viewBox="0 0 40 40" xmlns="http://www.w3.org/2000/svg">
  <path d="M37.71 0c-.59 1.8-4.32 3.33-4.32 3.33-6.03 1.61-7.53 2.99-7.53 2.99-1.48 1.19-2.36 2.44-2.83 3.66a12 12 0 0 0-.94-.87s-1.24-1.14-6.24-2.48c0 0-3.09-1.27-3.58-2.76 0 0-3.64 5.9-.77 11.26 0 0 2.73 4.98 7.35 4.98 1.24 0 2.62-.37 4.12-1.28l1.04.77s.03.01.04.02c.11.15.22.3.36.43l4.11 4.19.1.09c1.35 1.09 1.41 2.38 1.02 3.22-.38.82-1.36 1.6-2.95 1.3-.56-.11-1.19-.23-1.87-.34-.68-4.74-5.64-8.09-11.57-8.09-.67 0-1.35.04-2.03.13-6.87.86-11.87 5.9-11.19 11.23.61 4.8 5.61 8.21 11.6 8.21.67 0 1.35-.04 2.03-.13 5.91-.75 10.44-4.61 11.13-9.09.49.08.98.17 1.45.27 2.34.44 4.52-.59 5.43-2.57.93-2.01.3-4.31-1.6-5.87l-3.67-3.74c1.2.5 2.33.72 3.37.72 5.57 0 8.86-6.01 8.86-6.01C42.1 7.12 37.71 0 37.71 0M13.37 37.63c-.58.07-1.17.11-1.75.11-4.88 0-8.91-2.68-9.36-6.24-.52-4.1 3.62-8.01 9.22-8.73.58-.07 1.17-.11 1.75-.11 4.55 0 8.35 2.33 9.22 5.53-4.54-.5-10.19-.49-13.42 1.4a1.126 1.126 0 0 0 .56 2.1c.19 0 .39-.05.56-.15 2.49-1.45 7.6-1.63 12.41-1.07-.54 3.49-4.31 6.54-9.2 7.17Zm5.47-19.77c-3.2 0-5.36-3.78-5.36-3.8-1.17-2.17-.91-4.55-.41-6.32.74.45 1.45.77 1.92.96l.13.06.14.04c3.87 1.03 5.2 1.9 5.36 2.02l.05.04c2.09 1.68 2.13 3.47 1.72 4.75l-3.22-2.38c-.5-.37-1.2-.26-1.57.24s-.26 1.21.24 1.57l3.13 2.31c-.73.33-1.44.51-2.12.51Zm17.82-5.37s-2.75 4.85-6.89 4.85c-.96 0-1.96-.26-2.99-.77l5.02-4.06c.48-.39.56-1.1.17-1.58s-1.1-.56-1.58-.17l-5.11 4.14c-.7-1.67-1.08-4.36 2-6.83v.02l.09-.09c.27-.19 1.94-1.25 6.61-2.5l.14-.04.13-.06c.53-.22 1.64-.72 2.75-1.46.74 2.26 1.27 5.55-.33 8.54Z"/>
</svg>
