<svg viewBox="0 0 16 16" xmlns="http://www.w3.org/2000/svg">
  <path d="M15.99 3.05v.47c-.03.63-.18 1.29-.53 1.94 0 0-.02.03-.04.07-.01.02-.01.02-.03.05-.04.06-.09.14-.16.25 0 0-.02.02-.02.03-.06.09-.14.2-.23.31-.02.03-.05.06-.07.09-.1.12-.22.25-.35.39-.02.02-.05.04-.07.07-.12.12-.25.23-.39.34-.03.03-.07.05-.1.08-.16.12-.34.23-.53.33l-.12.06c-.17.08-.36.16-.55.21l-.11.03c-.22.06-.45.08-.69.09h-.07c-.06 0-.13-.01-.19-.02-.07 0-.15 0-.22-.02-.11-.01-.22-.04-.33-.07l-.55-.56.04-.1 2.26-1.84c.32-.26.37-.73.11-1.06A.747.747 0 0 0 12 4.08L9.79 5.87c-.06.04-.11.09-.17.14l-1.14-.93a.76.76 0 0 0-1.06.1c-.26.32-.22.79.1 1.06l1.66 1.37c.02.07.06.13.08.19-.11.05-.22.09-.32.12-.06.02-.12.03-.19.04l-.28.06c-.06 0-.12.01-.18.01-.05 0-.11.01-.16.01h-.06c-.2 0-.39-.03-.57-.07-.03 0-.06-.02-.09-.03-.16-.05-.31-.11-.46-.18-.03-.02-.07-.03-.1-.05-.16-.08-.3-.18-.44-.28a.3.3 0 0 1-.08-.07c-.12-.09-.23-.19-.33-.28-.02-.02-.04-.04-.06-.05a4 4 0 0 1-.29-.32c-.02-.02-.04-.05-.06-.07-.07-.09-.14-.18-.19-.25 0 0-.01-.02-.02-.03-.06-.09-.1-.15-.13-.2l-.02-.04c-.02-.04-.04-.06-.04-.06-1.15-2.14.31-4.5.31-4.5.02.07.07.15.12.22.11.14.26.27.42.39.25.18.52.32.7.4.12.06.2.09.2.09 1.81.48 2.38.9 2.48.98.21-.37.51-.74.96-1.1 0 0 .15-.14.6-.36s1.2-.52 2.41-.84c0 0 1.49-.61 1.73-1.33 0 0 .56.9.8 2.15.05.28.09.57.1.88ZM4.22 12.9c-.12.07-.25.1-.38.1a.752.752 0 0 1-.38-1.4c1.56-.91 4.43-.78 6.37-.49-.03-.12-.05-.25-.1-.37-.03-.08-.08-.15-.11-.22-.07-.15-.15-.3-.24-.44-.06-.08-.12-.16-.19-.23-.1-.12-.2-.24-.31-.35-.08-.07-.16-.14-.25-.21-.12-.1-.25-.19-.38-.28-.1-.06-.2-.12-.3-.17-.14-.08-.29-.15-.44-.21-.11-.05-.22-.09-.34-.13-.16-.05-.33-.1-.5-.14-.12-.03-.24-.06-.36-.08a5 5 0 0 0-.56-.06c-.12 0-.24-.02-.36-.03h-.1c-.27 0-.54.02-.81.05-2.73.35-4.73 2.37-4.46 4.5.03.25.1.5.19.73.03.08.08.15.11.22.07.15.15.3.24.44.06.08.12.16.19.23.1.12.2.24.31.35.08.07.16.14.25.21.12.1.25.19.38.28.1.06.2.12.3.17.14.08.29.15.44.21.11.05.22.09.34.13.16.05.33.1.5.14.12.03.24.06.36.08.18.03.37.05.56.06.12 0 .24.02.36.03h.1c.27 0 .54-.02.81-.05.68-.09 1.32-.28 1.89-.55s1.07-.62 1.47-1.03c.2-.2.38-.42.53-.65.23-.35.4-.72.5-1.11-2.09-.35-4.55-.37-5.64.26Zm6.72-5.19a3 3 0 0 1-.39-.15c-.07-.03-.13-.05-.2-.08-.11-.05-.22-.12-.32-.18-.06.1-.11.16-.11.16-.17.12-.35.21-.51.29-.05.03-.1.04-.15.06.08.16.17.32.3.44l1.71 1.73c.34.28.46.62.32.93-.1.23-.39.45-.85.35-.26-.05-.57-.11-.89-.15.03.12.08.24.09.36.05.39.02.79-.07 1.16.2.03.4.06.58.1 1.07.2 2.08-.28 2.5-1.2.43-.94.14-2.01-.68-2.67l-1.09-1.11c-.07-.02-.15-.03-.22-.05Z"/>
</svg>
