<svg viewBox="0 0 40 40" xmlns="http://www.w3.org/2000/svg">
  <path d="M39.99 20.16 37.12.94c-.08-.55-.56-.96-1.11-.96H5.29c-.33 0-.64.14-.85.39s-.31.58-.26.9l2.85 19.05-.71 4.6h-5.2c-.35 0-.69.17-.9.45s-.28.65-.18.99l3.65 12.81c.14.48.58.82 1.08.82H36c.55 0 1.03-.4 1.11-.95l2.88-18.53v-.34ZM35.03 2.24l2.54 16.97H9.14L6.6 2.24zM2.61 27.18h28.34l3 10.56H5.62l-3-10.56Zm32.87 7.7-2.6-9.14c-.14-.48-.58-.82-1.08-.82H8.6l.54-3.47h28.43l-2.08 13.42ZM30.05 7.43H12.99V5.18h17.06zm0 4.42H12.99V9.6h17.06zm0 4.42H12.99v-2.25h17.06z"/>
</svg>
