<svg viewBox="0 0 64 64" xmlns="http://www.w3.org/2000/svg">
  <path fill="#1e1e1c" d="M31.05 27.38c7.54 0 13.67-6.14 13.67-13.68S38.58 0 31.05 0 17.38 6.14 17.38 13.68s6.13 13.68 13.67 13.68Zm0-22.37c4.78 0 8.67 3.89 8.67 8.68s-3.89 8.68-8.67 8.68-8.67-3.89-8.67-8.68 3.89-8.68 8.67-8.68M16.88 39.28C10.33 39.28 5 44.61 5 51.17v12.84H0V51.17c0-9.32 7.58-16.89 16.88-16.89h18.15v5zm-.69 11.89h5v12.84h-5zm47.82-.55L51.4 63.24c-.49.49-1.13.73-1.77.73s-1.28-.24-1.77-.73c-.98-.98-.98-2.56 0-3.54l6.58-6.58H32.09v-5h22.35l-6.58-6.58c-.98-.98-.98-2.56 0-3.54s2.56-.98 3.53 0L64 50.62Z"/>
</svg>
