<svg viewBox="0 0 16 16" xmlns="http://www.w3.org/2000/svg">
  <path fill="#1e1e1c" d="M7.95 7.5c2.07 0 3.75-1.68 3.75-3.75S10.02 0 7.95 0 4.2 1.68 4.2 3.75 5.88 7.5 7.95 7.5m0-6c1.24 0 2.25 1.01 2.25 2.25S9.19 6 7.95 6 5.7 4.99 5.7 3.75 6.71 1.5 7.95 1.5m-3.71 8.63c-1.52 0-2.75 1.23-2.75 2.75V16h-1.5v-3.12c0-2.35 1.9-4.25 4.25-4.25H10v1.5zm-.04 2.75h1.5V16H4.2zm11.79-.12-2.83 2.83c-.15.15-.34.22-.53.22s-.38-.07-.53-.22a.754.754 0 0 1 0-1.06l1.02-1.02H7.99v-1.5h5.13l-1.02-1.02a.754.754 0 0 1 0-1.06c.29-.29.77-.29 1.06 0z"/>
</svg>
