<svg viewBox="0 0 32 32" xmlns="http://www.w3.org/2000/svg">
  <path fill="#1e1e1c" d="M15.67 14.21c3.91 0 7.1-3.18 7.1-7.1s-3.19-7.1-7.1-7.1-7.1 3.18-7.1 7.1 3.18 7.1 7.1 7.1m0-10.69c1.98 0 3.6 1.61 3.6 3.59s-1.61 3.59-3.6 3.59-3.6-1.61-3.6-3.59 1.61-3.59 3.6-3.59M8.88 20.27c-2.97 0-5.38 2.41-5.38 5.38v6.36H0v-6.36c0-4.9 3.98-8.88 8.88-8.88h8.23v3.5zM7.8 25.65h3.5v6.36H7.8zm24.2-.57-6.41 6.41c-.34.34-.79.51-1.24.51s-.9-.17-1.24-.51c-.68-.68-.68-1.79 0-2.48l2.18-2.18h-9.3v-3.5h9.3l-2.18-2.18c-.68-.68-.68-1.79 0-2.48s1.79-.68 2.48 0l6.41 6.4Z"/>
</svg>
