<svg viewBox="0 0 48 48" xmlns="http://www.w3.org/2000/svg">
  <path fill="#1e1e1c" d="M23.47 21.02c5.78 0 10.49-4.71 10.49-10.5S29.25.01 23.47.01s-10.49 4.71-10.49 10.5 4.7 10.5 10.49 10.5Zm0-16.5c3.3 0 5.99 2.69 5.99 6s-2.69 6-5.99 6-5.99-2.69-5.99-6 2.69-6 5.99-6M13.02 29.84c-4.7 0-8.53 3.83-8.53 8.54v9.63h-4.5v-9.63c0-7.19 5.84-13.05 13.03-13.05h13.24v4.5H13.02Zm-1.04 8.54h4.5v9.63h-4.5zm36.01-.52-9.48 9.49c-.44.44-1.01.66-1.59.66s-1.15-.22-1.59-.66c-.88-.88-.88-2.3 0-3.18l4.05-4.06H24.16v-4.5h15.22l-4.05-4.05c-.88-.88-.88-2.3 0-3.18s2.3-.88 3.18 0l9.48 9.49Z"/>
</svg>
