<svg viewBox="0 0 40 40" xmlns="http://www.w3.org/2000/svg">
  <path d="M31.75-.01H8.25a2 2 0 0 0-2 2v38h27.5v-38a2 2 0 0 0-2-2m-8.92 12.34H8.5v-2.5h14.33zM8.5 14.6h14.33v2.5H8.5zm14.33 4.75v2.5H8.5v-2.5zm0 4.75v2.5H8.5v-2.5zm2.25 4.75V7.58H8.5V2.24h23v31.54h-23v-4.92h16.58ZM8.5 37.74v-1.71h23v1.71zm19.13-26.66c0-.62.5-1.12 1.12-1.12s1.12.5 1.12 1.12-.5 1.12-1.12 1.12-1.12-.5-1.12-1.12m0 4.77c0-.62.5-1.12 1.12-1.12s1.12.5 1.12 1.12-.5 1.12-1.12 1.12-1.12-.5-1.12-1.12m0 4.75c0-.62.5-1.12 1.12-1.12s1.12.5 1.12 1.12-.5 1.12-1.12 1.12-1.12-.5-1.12-1.12m0 4.75c0-.62.5-1.12 1.12-1.12s1.12.5 1.12 1.12-.5 1.12-1.12 1.12-1.12-.5-1.12-1.12"/>
</svg>
