<svg viewBox="0 0 64 64" xmlns="http://www.w3.org/2000/svg">
  <path d="M10 9.64h31.4v5.97H10zm0-2.5V2a2 2 0 0 1 2-2h40c1.1 0 2 .9 2 2v55.83H10v-5.81h33.9V7.14zm36.94 5.5c0 .92.75 1.67 1.67 1.67s1.67-.75 1.67-1.67-.75-1.67-1.67-1.67-1.67.75-1.67 1.67m0 8.47c0 .92.75 1.67 1.67 1.67s1.67-.75 1.67-1.67-.75-1.67-1.67-1.67-1.67.75-1.67 1.67m0 8.48c0 .92.75 1.67 1.67 1.67s1.67-.75 1.67-1.67-.75-1.67-1.67-1.67-1.67.75-1.67 1.67m0 8.47c0 .92.75 1.67 1.67 1.67s1.67-.75 1.67-1.67-.75-1.67-1.67-1.67-1.67.75-1.67 1.67m0 8.47c0 .92.75 1.67 1.67 1.67s1.67-.75 1.67-1.67-.75-1.67-1.67-1.67-1.67.75-1.67 1.67m-5.54 3v-5.97H10v5.97zM10 60.33V64h44v-3.67zm0-25.24v5.94h31.4v-5.94zm0-16.95v5.94h31.4v-5.94zm0 8.47v5.94h31.4v-5.94z"/>
</svg>
