<svg viewBox="0 0 48 48" xmlns="http://www.w3.org/2000/svg">
  <path d="M38.5 0h-29c-1.1 0-2 .9-2 2v46h33V2c0-1.1-.9-2-2-2M10 8.66h17.59v3.39H10zm0 5.9h17.59v3.39H10zm0 5.89h17.59v3.39H10zm0 5.9h17.59v3.39H10zm17.59 5.89v3.39H10v-3.39zm2.5 5.9V6.16H10V2.5h28V41H10v-2.86zM10 45.5v-2h28v2zm22.96-35.14a1.25 1.25 0 1 1 2.5 0 1.25 1.25 0 0 1-2.5 0m0 5.89a1.25 1.25 0 1 1 2.5 0 1.25 1.25 0 0 1-2.5 0m0 5.9a1.25 1.25 0 1 1 2.5 0 1.25 1.25 0 0 1-2.5 0m0 5.89a1.25 1.25 0 1 1 2.5 0 1.25 1.25 0 0 1-2.5 0m0 5.9a1.25 1.25 0 1 1 2.5 0 1.25 1.25 0 0 1-2.5 0"/>
</svg>
