<svg viewBox="0 0 24 24" xmlns="http://www.w3.org/2000/svg">
  <path fill="#1e1e1c" d="M24 7.75V0H8.3L5.28 2.65l.33.61-1.66.55L0 7.41v6.58l.73 1.75-.7 2.78L0 24h4.27l2.48-1.34L8.23 24h8.4l7.36-6.99V12.5l-1.46-2.22c.1-.17.18-.36.24-.58l1.21-1.95Zm-7.58-6h4.6l-1.6 1.61-.8 1.83-1.39.37-1.85 1.86h-5.01l6.03-5.67ZM4.85 5.35l3.29-1.09-.66-1.22 1.48-1.29h4.9L8.05 7.21l-1.38-.64-2.02.85H2.6l2.26-2.06Zm10.03 16.9H8.91l-1.9-1.73-3.18 1.73H1.75v-3.41l.81-3.24-.81-1.96V9.16H5l1.63-.69 1.48.69h6.77v1.75l-.86 2.32 1.57 2.61-.68 2.74-.03 3.66Zm7.37-6-5.62 5.33V18.9l.83-3.34-1.51-2.51.68-1.82V8.65l1.51-1.52 1.74-.47 1.01-2.3L22.25 3v4.25l-1.41 2.26c-.25.19-.45.46-.69.66-.7.6-1.35 1.25-1.98 1.94l.09.15c.89-.25 1.77-.54 2.62-.9.08-.02.16-.04.24-.07l1.13 1.72zM8.74 11.88h3.34v3.33H8.74z"/>
</svg>
