<svg viewBox="0 0 64 64" xmlns="http://www.w3.org/2000/svg">
  <path fill="#1e1e1c" d="M19.46 39.14h14.99V28.25H19.46zM22.21 31h9.49v5.4h-9.49zM63.99.02H22.22l-7.4 6.47 1.1 2.04-5.55 1.84L0 20.37v16.81l2.05 4.92-2.02 7.97-.04 13.75h10.47l7.25-3.91 4.31 3.91H43.7v-.06l.25.26 20.04-18.79V33.6l-4.36-6.64 4.36-7zM43.74 2.76H59.3l-6.01 6.03-1.53 3.48-2.18 2.18-2.64.71-5.18 5.2h-16.8zM11.82 12.77l8.08-2.67-1.62-2.99 4.97-4.35h16.47l-18.4 17.25-4.04-1.87-5.33 2.23H3.81l8-7.6Zm29.13 48.31H23.08l-4.97-4.51-8.35 4.51H2.74v-10.5l2.19-8.68-2.19-5.26V23.12h9.77l4.72-1.98 4.27 1.98h19.45v6.03l-2.26 6.07 4.29 7.1L41 50.25l-.04 10.83Zm16.33-35.54c-.19.07-.39.15-.58.23-1.16.47-2.02 1.43-3.01 2.18-1.99 1.5-3.93 3.07-5.81 4.71l.14.23c2.31-.95 4.59-1.97 6.82-3.07.91-.35 1.78-.75 2.57-1.24l3.84 5.84v9.63L43.71 60.49v-9.74l2.22-8.87-4.19-6.94 1.97-5.3v-7.32l4.67-4.68 4.59-1.23 2.64-6.03 5.64-5.66v14.47l-3.97 6.36Z"/>
</svg>
