<svg viewBox="0 0 24 24" xmlns="http://www.w3.org/2000/svg">
  <path fill="#1e1e1c" d="M15.98 6.83h-6.2L17.06 0h5.71L20.7 2.08l-.94 2.15-1.63.44zm1.24 16.58L24 16.98v-3.84l-1.37-2.1c-.13.05-.26.09-.4.13-.97.43-1.97.8-2.98 1.12l-.09-.15c.94-.87 2.05-2.08 3.13-2.84l1.72-2.76v-5.3l-1.82 1.83-1.15 2.62-1.99.54-1.82 1.83v3.02l-.8 2.15 1.75 2.91-.95 3.83v3.44ZM3.52 6.83l2.31-.97 1.63.76L14.5 0H8.43L6.6 1.6l.74 1.36-3.68 1.22-2.9 2.65zm6.68 6.92h-.09v.08h.09zm6.1 2.67-.8 3.23-.03 4.34h-7.1l-2.16-1.97-3.63 1.97H0v-4.1l.94-3.72L0 13.92V8.57h3.87l1.92-.81 1.73.81h7.95v2.19l-.98 2.64 1.81 3.01ZM11.95 12H8.36v3.58h3.59z"/>
</svg>
