<svg viewBox="0 0 40 40" xmlns="http://www.w3.org/2000/svg">
  <path fill="#1e1e1c" d="M12 24.72h9.8v-7.28H12zm2.25-5.03h5.3v2.78h-5.3zM40 0H13.87L9.06 4.21l.63 1.16-3.16 1.05L0 12.58v10.69l1.27 3.06L0 31.25l.02 8.76h6.8l4.35-2.36 2.59 2.36H27.5L40 28.33v-7.39l-2.49-3.8c.37-.42.68-.92.9-1.55l-.11-.18 1.7-2.74zM27.36 2.26h8.81L32.9 5.55 31.65 8.4l-.41.42-2.16.58-3.17 3.19h-9.54zM7.71 8.41l5.24-1.74-1.05-1.94 2.82-2.47h9.35L13.37 12.3l-2.42-1.13-3.35 1.41H3.28zm17.54 29.35H14.63l-3.13-2.85-5.26 2.85H2.26v-6.19l1.36-5.42-1.36-3.29v-8.03h5.8l2.85-1.2 2.57 1.2h11.77v3.4l-1.42 3.83 2.65 4.41-1.19 4.8-.03 6.49Zm12.5-10.4L27.5 36.99v-5.3l1.38-5.57-2.57-4.28 1.19-3.2v-4.47l2.74-2.76 2.88-.77 1.66-3.8 2.96-2.98v8.18l-2.49 3.99c-.46.31-.85.76-1.28 1.11-1.21.97-2.37 2-3.48 3.07l.12.19c1.46-.51 2.9-1.09 4.31-1.73q.375-.12.72-.27l2.1 3.21v5.74Z"/>
</svg>
