<svg viewBox="0 0 32 32" xmlns="http://www.w3.org/2000/svg">
  <path fill="#fff" d="m32.99-.99-4.53 4.56-1.38 3.14-2.39.64-2.96 2.98"/>
  <path fill="#1e1e1c" d="M15.59 18.24h-4.8v-2.53h4.8zM7.84 8.06l2.18 1.02L19.69 0h-8.47L8.67 2.23l.94 1.75L4.9 5.54.86 9.33h3.96l3.01-1.27Zm24.15.77v-7.4L29.3 4.14l-1.5 3.42-2.6.7-2.48 2.49v4.03l-1.07 2.88 2.32 3.86-1.25 5.01v4.81l9.26-8.7v-5.18l-1.9-2.9c-.21.09-.43.17-.66.25-1.27.58-2.56 1.1-3.88 1.57l-.11-.17c1.25-1.11 2.81-2.67 4.24-3.66l2.31-3.7Zm-10.68.5 2.86-2.87 2.19-.59 1.26-2.88L30.59 0h-7.98l-9.93 9.32h8.64Zm-1.86 8.53 2.39 3.97-1.08 4.32-.03 5.85h-9.59l-2.82-2.56L3.59 32H0v-5.58l1.23-4.88L0 18.58v-7.25h5.23l2.57-1.08 2.32 1.08h10.61v3.08zm-1.86-4.15h-8.8v6.53h8.8z"/>
</svg>
