<svg viewBox="0 0 32 32" xmlns="http://www.w3.org/2000/svg">
  <path fill="#1e1e1c" d="M9.53 19.86h8v-6h-8zm2-4h4v2h-4zM32 0H11.08L7.16 3.43l.48.89-2.42.8L0 10v8.65l.99 2.38L0 24.84V32h5.54l3.42-1.85L10.99 32h11.07v-.03h.01l9.92-9.3v-5.95l-1.97-3c.25-.33.46-.72.6-1.2l-.03-.05 1.4-2.25V0ZM21.88 2.01h6.71l-2.44 2.45-1.1 2.51-1.91.51L20.63 10h-7.28l8.52-7.99ZM6.27 6.88l4.26-1.41-.85-1.58 2.15-1.88h7.13L10.7 9.76l-1.9-.89L6.12 10H2.94zm13.79 23.13h-8.3l-2.51-2.29-4.22 2.29H2v-4.8l1.09-4.33L2 18.26V12h4.52l2.24-.94 2.03.94h9.27v2.58l-1.14 3.08 2.11 3.51-.94 3.77-.03 5.08ZM30 21.8l-7.94 7.45v-3.96l1.11-4.45-2.04-3.39.93-2.51v-3.53l2.13-2.14 2.31-.62 1.33-3.05 2.16-2.17v6.21l-1.95 3.13c-.36.25-.65.61-.99.89-.95.78-1.86 1.62-2.73 2.51l.11.17c1.18-.38 2.34-.82 3.46-1.32.17-.05.33-.1.48-.16l1.61 2.46v4.49Z"/>
</svg>
