<svg viewBox="0 0 16 16" xmlns="http://www.w3.org/2000/svg">
  <path fill="#1e1e1c" d="m11.72 13.44.66-2.64-1.19-1.97.48-1.29.03-2.13 1.18-1.19 1.38-.37.8-1.82.94-.95v3.17l-1.13 1.81c-.65.5-1.51 1.5-2.01 2.02l.08.13c.72-.18 1.4-.42 2.08-.67.04 0 .08-.03.12-.04L16 8.82v2.5l-4.28 4.16zm-7.63 1.19L1.56 16H0v-2.61l.64-2.56L0 9.28V5.83h2.51l1.27-.53 1.15.53h5.29v1.31l-.69 1.84 1.24 2.06-.53 2.13-.02 2.83H5.6zm1.31-4.04h2.75V7.85H5.4zm6.7-7.71 1.08-.29.62-1.42L14.95 0h-3.44l-4.6 4.33h3.74l1.44-1.45ZM2.21 4.33l1.6-.67 1.09.51L9.33 0H5.67l-1.1.97.53.98-2.65.88-1.71 1.5h1.48Z"/>
</svg>
