<svg viewBox="0 0 16 16" xmlns="http://www.w3.org/2000/svg">
  <path d="M12.79 10.19c1.88-.82 3.2-2.69 3.2-4.87 0-2.94-2.38-5.32-5.31-5.32C7.9 0 5.64 2.14 5.41 4.86H2.66l-.31-2.62H-.01v1.5h1.03l1.3 10.81h.96v.06c0 .76.62 1.38 1.38 1.38s1.38-.62 1.38-1.38v-.06h2.89v.06c0 .76.62 1.38 1.38 1.38s1.38-.62 1.38-1.38v-.06h1v-1.5H3.64l-.13-1.08h8.9l.38-1.79Zm-2.59 4.36h.18s.03.04.03.06c0 .13-.23.13-.23 0q0-.03.03-.06Zm-5.65 0h.18s.03.04.03.06c0 .13-.23.13-.23 0q0-.03.03-.06ZM10.68 1.5c2.1 0 3.81 1.71 3.81 3.81s-1.71 3.81-3.81 3.81-3.81-1.71-3.81-3.81S8.58 1.5 10.68 1.5m-5.82 8.97H3.33l-.16-1.32h1.69zm0-2.82H2.99l-.15-1.29h2.02zm1.5 2.82V9.15h.65c.48.45 1.03.82 1.65 1.08v.25h-2.3Zm4.05-2.5c.5 0 1.04-.11 1.47-.31l-.27-.74c-.39.17-.7.25-1.03.25-1.07 0-1.74-.65-1.74-1.74s.76-1.87 1.87-1.87c.97 0 1.73.43 1.73 1.54 0 .58-.15.83-.46.83-.17 0-.25-.08-.25-.29 0-.1.01-.22.05-.39l.21-1.06h-.79l-.08.3c-.09-.28-.37-.4-.69-.4-.52 0-1.18.56-1.18 1.47 0 .72.42 1.06.95 1.06.37 0 .61-.15.78-.41.16.32.48.54.97.54.76 0 1.42-.56 1.42-1.72 0-1.58-1.35-2.3-2.58-2.3-1.66 0-2.88 1.1-2.88 2.7 0 1.47.97 2.54 2.51 2.54Zm.08-2.15c-.19 0-.3-.12-.3-.34 0-.34.17-.6.43-.6.2 0 .3.12.3.34 0 .34-.17.6-.43.6"/>
</svg>
