<svg viewBox="0 0 24 24" xmlns="http://www.w3.org/2000/svg">
  <path d="M4.99 17.8h13.43l.44-2.09c-.63.14-1.29.23-1.97.23-4.7 0-8.54-3.68-8.82-8.31h-4.3L3.3 3.71H-.02v1.75h1.76l1.95 16.22h1.53c-.05.16-.08.33-.08.5a1.83 1.83 0 0 0 3.66 0c0-.18-.03-.34-.08-.5h4.98c-.05.16-.08.33-.08.5a1.83 1.83 0 0 0 3.66 0c0-.18-.03-.34-.08-.5h1.81v-1.75H5.25l-.26-2.12Zm10.46 4.3s.08.03.08.08c0 .08-.15.08-.15 0 0-.04.03-.08.08-.08Zm-8.48 0s.08.03.08.08c0 .08-.15.08-.15 0 0-.04.03-.08.08-.08ZM17.29 6.93c0 .56-.29 1-.71 1-.31 0-.5-.2-.5-.56 0-.57.28-1 .71-1 .33 0 .5.2.5.56M16.89 0C12.98 0 9.8 3.19 9.8 7.1s3.18 7.09 7.09 7.09 7.09-3.18 7.09-7.09S20.8 0 16.89 0m2.13 9.48c-.81 0-1.35-.37-1.62-.9-.28.44-.68.69-1.29.69-.89 0-1.58-.57-1.58-1.77 0-1.51 1.1-2.45 1.96-2.45.54 0 1 .2 1.15.66l.13-.5h1.32l-.35 1.76c-.06.28-.08.49-.08.65 0 .35.13.48.41.48.52 0 .77-.41.77-1.37 0-1.84-1.27-2.56-2.88-2.56-1.85 0-3.11 1.28-3.11 3.11s1.12 2.9 2.9 2.9c.55 0 1.07-.14 1.71-.42l.45 1.23c-.71.34-1.61.52-2.45.52-2.55 0-4.17-1.78-4.17-4.23 0-2.67 2.03-4.5 4.79-4.5 2.05 0 4.3 1.21 4.3 3.83 0 1.92-1.1 2.85-2.35 2.85Z"/>
</svg>
