<svg viewBox="0 0 40 40" xmlns="http://www.w3.org/2000/svg">
  <path d="M31.55 24.22c4.91-1.67 8.44-6.3 8.44-11.77C39.99 5.57 34.42 0 27.55 0S15.11 5.57 15.11 12.44c0 .27.02.53.04.8H6L5.21 6.7H-.01v2.25h3.23l3.25 27.01h2.82c-.22.39-.36.84-.36 1.32 0 1.49 1.22 2.71 2.71 2.71s2.71-1.22 2.71-2.71c0-.48-.14-.93-.36-1.32h9.42c-.22.39-.36.84-.36 1.32 0 1.49 1.21 2.71 2.71 2.71s2.71-1.22 2.71-2.71c0-.48-.14-.93-.36-1.32h3.58v-2.25H8.46l-.5-4.2h22.48l1.11-5.3Zm-5.8 13.53c-.25 0-.46-.21-.46-.46s.21-.46.46-.46.46.21.46.46-.21.46-.46.46m-14.12-.92c.25 0 .46.21.46.46s-.21.46-.46.46-.46-.21-.46-.46.21-.46.46-.46M27.55 2.25c5.62 0 10.19 4.57 10.19 10.19s-4.57 10.19-10.19 10.19-10.19-4.57-10.19-10.19S21.93 2.25 27.55 2.25m-9.71 17.96h-2.66v-4.74h.32c.44 1.76 1.25 3.36 2.34 4.74m-4.91 7.06H7.69l-.58-4.81h5.82zm0-7.06H6.84l-.57-4.72h6.66zm2.25 7.06v-4.81h5.01c.7.51 1.45.96 2.24 1.32v3.49h-7.26Zm9.5 0v-2.73c.92.22 1.88.34 2.86.34.54 0 1.06-.05 1.58-.11l-.52 2.49h-3.93Zm2.21-8.18c1.26 0 2.61-.28 3.68-.79l-.68-1.86c-.96.42-1.75.63-2.57.63-2.68 0-4.36-1.63-4.36-4.36s1.89-4.67 4.67-4.67c2.42 0 4.32 1.08 4.32 3.85 0 1.45-.37 2.07-1.15 2.07-.42 0-.61-.19-.61-.72 0-.25.04-.56.12-.98l.52-2.64h-1.98l-.19.75c-.23-.7-.93-1-1.73-1-1.29 0-2.94 1.4-2.94 3.67 0 1.8 1.05 2.66 2.38 2.66.93 0 1.52-.37 1.94-1.03.4.79 1.21 1.35 2.43 1.35 1.89 0 3.54-1.4 3.54-4.29 0-3.94-3.38-5.76-6.46-5.76-4.15 0-7.19 2.75-7.19 6.76 0 3.67 2.43 6.35 6.27 6.35Zm.19-5.39c-.47 0-.75-.3-.75-.84 0-.86.42-1.5 1.07-1.5.49 0 .75.3.75.84 0 .84-.44 1.5-1.07 1.5"/>
</svg>
