<svg viewBox="0 0 40 40" xmlns="http://www.w3.org/2000/svg">
  <path d="m35.23 23.95-.47 2.49H29.5v-.18c-.71.11-1.43.19-2.16.19h-9.29v-3.62c-.85-.78-1.61-1.66-2.25-2.63v.06H8.45l-.46-3.94h6.06c-.2-.73-.36-1.48-.44-2.25H7.72l-.46-3.94h6.52c.15-.78.36-1.52.63-2.25H6.99L6.09.01H0v2.25h4.09L8 35.66h3.3c-.2.4-.32.85-.32 1.32 0 1.67 1.36 3.03 3.03 3.03s3.03-1.36 3.03-3.03c0-.48-.12-.92-.32-1.32h11.57c-.2.4-.32.85-.32 1.32 0 1.67 1.36 3.03 3.03 3.03s3.03-1.36 3.03-3.03c0-.48-.12-.92-.32-1.32h2.42v-2.25H10l-.55-4.72h27.18l1.38-7.31c-.8.98-1.74 1.84-2.77 2.56ZM14.02 37.76a.781.781 0 0 1 0-1.56.781.781 0 0 1 0 1.56m17 0a.781.781 0 0 1 0-1.56.781.781 0 0 1 0 1.56M15.81 26.44H9.19l-.46-3.94h7.08zm11.53-1.12c6.99 0 12.66-5.67 12.66-12.66S34.33 0 27.34 0 14.68 5.67 14.68 12.66s5.67 12.66 12.66 12.66m0-23.06c5.74 0 10.41 4.67 10.41 10.41s-4.67 10.41-10.41 10.41-10.41-4.67-10.41-10.41S21.6 2.26 27.34 2.26m-4.19 10.07H20.9c0-3.5 2.85-6.35 6.36-6.35 1.2 0 2.34.33 3.33.95l-.05-.32c-.1-.61.32-1.19.93-1.29.62-.1 1.19.32 1.29.93l.67 4.12-4.55.74c-.06 0-.12.01-.18.01-.54 0-1.02-.39-1.11-.94-.1-.61.32-1.19.93-1.29l.73-.12c-.61-.34-1.28-.54-1.99-.54-2.26 0-4.11 1.84-4.11 4.1m8.38.67h2.25c0 3.5-2.85 6.35-6.36 6.35-1.2 0-2.34-.33-3.33-.95l.05.32c.1.61-.32 1.19-.93 1.29-.06 0-.12.01-.18.01-.54 0-1.02-.39-1.11-.94l-.67-4.12 4.55-.74c.62-.1 1.19.32 1.29.93s-.32 1.19-.93 1.29l-.73.12c.61.34 1.28.54 1.99.54 2.26 0 4.11-1.84 4.11-4.1"/>
</svg>
