<svg viewBox="0 0 48 48" xmlns="http://www.w3.org/2000/svg">
  <path d="M9.43 35.43h27.01l1.25-5.94c-1.09.23-2.22.36-3.39.36-8.11 0-14.81-5.97-15.98-13.75H7.11l-.94-7.84H-.02v2.5h3.96l3.9 32.41h3.46c-.31.49-.5 1.07-.5 1.69a3.15 3.15 0 1 0 6.3 0c0-.62-.19-1.2-.5-1.69h11.64c-.31.49-.5 1.07-.5 1.69a3.15 3.15 0 1 0 6.3 0c0-.62-.19-1.2-.5-1.69h4.47v-2.5H10.06zM30.9 44.2c.36 0 .65.29.65.65s-.29.65-.65.65-.65-.29-.65-.65.29-.65.65-.65m-16.94 0c.36 0 .65.29.65.65s-.29.65-.65.65-.65-.29-.65-.65.29-.65.65-.65M34.3 0c-7.54 0-13.67 6.14-13.67 13.68s6.14 13.67 13.68 13.67 13.68-6.13 13.68-13.67S41.85 0 34.3 0m4.16 18.34c-1.59 0-2.64-.73-3.16-1.75-.55.86-1.32 1.34-2.53 1.34-1.73 0-3.09-1.11-3.09-3.46 0-2.96 2.14-4.78 3.82-4.78 1.05 0 1.96.39 2.25 1.3l.25-.98h2.57l-.68 3.43c-.11.55-.16.96-.16 1.27 0 .68.25.93.8.93 1.02 0 1.5-.8 1.5-2.68 0-3.59-2.48-5-5.62-5-3.62 0-6.08 2.5-6.08 6.07s2.19 5.66 5.67 5.66c1.07 0 2.09-.27 3.35-.82l.89 2.41c-1.39.66-3.14 1.02-4.78 1.02-4.98 0-8.15-3.48-8.15-8.26 0-5.21 3.96-8.78 9.35-8.78 4 0 8.4 2.37 8.4 7.48 0 3.75-2.14 5.57-4.6 5.57Zm-3.37-4.99c0 1.09-.57 1.96-1.39 1.96-.61 0-.98-.39-.98-1.09 0-1.11.55-1.96 1.39-1.96.64 0 .98.39.98 1.09"/>
</svg>
