<svg viewBox="0 0 16 16" xmlns="http://www.w3.org/2000/svg">
  <path d="M13.04 11.23c.67-.3 1.28-.72 1.8-1.22l-.26 1.22h-1.55Zm-8.4 1.06H15v2.5h-1.34c-.13.69-.74 1.21-1.47 1.21s-1.34-.52-1.47-1.21H6.98c-.13.69-.74 1.21-1.47 1.21s-1.34-.52-1.47-1.21H2.43L.9 2.51H0V.01h3.1l.39 3.08H4.7a6.3 6.3 0 0 0-.49 2.42c0 2.54 1.53 4.74 3.71 5.72H4.5l.13 1.05Zm.32-6.77C4.96 2.47 7.44 0 10.48 0S16 2.47 16 5.52s-2.47 5.52-5.52 5.52-5.52-2.47-5.52-5.52m8.28.4h-1.5c0 .73-.59 1.32-1.32 1.32-.03 0-.05-.01-.08-.02.16-.19.24-.44.17-.7a.746.746 0 0 0-.93-.51l-2.05.59.54 1.88c.09.33.39.54.72.54.07 0 .14 0 .21-.03.23-.07.39-.23.47-.43.3.11.62.17.94.17 1.56 0 2.82-1.27 2.82-2.82Zm-5.71-.77h1.5c0-.71.56-1.28 1.26-1.31a.73.73 0 0 0-.11.5c.06.37.38.63.74.63h.12l2.1-.34-.32-1.93a.747.747 0 0 0-.86-.62c-.27.04-.47.23-.56.47a2.9 2.9 0 0 0-1.05-.21c-1.56 0-2.82 1.27-2.82 2.82Z"/>
</svg>
