<svg viewBox="0 0 48 48" xmlns="http://www.w3.org/2000/svg">
  <path d="m45.71 25.09-1.72 9.14H12.25l.61 5.06h30.91v4.5h-3.01c.04.22.07.45.07.69 0 1.95-1.59 3.54-3.54 3.54s-3.54-1.59-3.54-3.54c0-.24.03-.46.07-.69H20.36c.04.22.07.45.07.69 0 1.95-1.59 3.54-3.54 3.54s-3.54-1.59-3.54-3.54c0-.24.03-.46.07-.69H8.87L4.11 4.51H0V0h8.1l1.15 9.44h8.52c-.64 1.74-1 3.6-1 5.56 0 8.95 7.29 16.24 16.24 16.24 5.14 0 9.72-2.41 12.7-6.15M48 15c0 1.55-.24 3.05-.67 4.46-.15.47-.31.93-.5 1.38q-.57 1.35-1.38 2.55a15 15 0 0 1-6.6 5.43A14.9 14.9 0 0 1 33.01 30a14.97 14.97 0 0 1-8.39-2.56 15 15 0 0 1-5.43-6.6c-.19-.45-.36-.91-.5-1.38-.44-1.41-.67-2.91-.67-4.46s.24-3.05.67-4.46c.15-.47.31-.93.5-1.38q.57-1.35 1.38-2.55a15 15 0 0 1 6.6-5.43C28.97.43 30.94 0 33.01 0a14.97 14.97 0 0 1 8.39 2.56 15 15 0 0 1 5.43 6.6c.19.45.36.91.5 1.38.44 1.41.67 2.91.67 4.46m-22.54-.4h2.5c0-2.73 2.22-4.94 4.94-4.94.93 0 1.82.27 2.6.76l-1.1.18c-.68.11-1.14.75-1.03 1.43.1.61.63 1.05 1.23 1.05.07 0 .14 0 .2-.02l5.31-.87-.79-4.8c-.11-.68-.76-1.15-1.44-1.03-.68.11-1.14.75-1.03 1.44l.09.56a7.4 7.4 0 0 0-4.06-1.21c-4.1 0-7.44 3.34-7.44 7.44Zm15.09.79h-2.5c0 2.73-2.22 4.94-4.94 4.94-.93 0-1.82-.27-2.6-.76l1.1-.18a1.25 1.25 0 0 0 1.03-1.44c-.11-.68-.76-1.15-1.44-1.03l-5.31.87.79 4.8c.1.61.63 1.05 1.23 1.05.07 0 .14 0 .2-.02a1.25 1.25 0 0 0 1.03-1.44l-.09-.56a7.4 7.4 0 0 0 4.06 1.21c4.1 0 7.44-3.34 7.44-7.44"/>
</svg>
