<svg viewBox="0 0 32 32" xmlns="http://www.w3.org/2000/svg">
  <path d="M27.49 21.01h-3.97v-.41c-.45.06-.9.1-1.37.1-.21 0-.42-.02-.63-.03v.34h-7.08v-3.54c-1.07-1.09-1.91-2.4-2.45-3.87H6.52L5.9 8.27h5.54c.1-.69.27-1.36.49-2H5.67L4.93.03H0v2h3.15l3.1 26.52H8.8c-.12.29-.19.61-.19.94 0 1.39 1.13 2.51 2.51 2.51s2.51-1.13 2.51-2.51c0-.33-.07-.65-.19-.94h8.84c-.12.29-.19.61-.19.94 0 1.39 1.13 2.51 2.51 2.51s2.51-1.13 2.51-2.51c0-.33-.07-.65-.19-.94h1.84v-2H8.03l-.41-3.53h21.54l1.13-6.01c-.7.8-1.52 1.49-2.42 2.05l-.37 1.95Zm-2.87 7.96c.28 0 .51.23.51.51s-.23.51-.51.51-.51-.23-.51-.51.23-.51.51-.51m-13.5 0c.28 0 .51.23.51.51s-.23.51-.51.51-.51-.23-.51-.51.23-.51.51-.51m1.32-7.96H7.39l-.63-5.41h5.69v5.41Zm9.71-1.31c5.44 0 9.85-4.41 9.85-9.85S27.59 0 22.15 0 12.3 4.41 12.3 9.85s4.41 9.85 9.85 9.85m0-17.7C26.48 2 30 5.52 30 9.85s-3.52 7.85-7.85 7.85-7.85-3.52-7.85-7.85S17.82 2 22.15 2m-3.13 7.59h-2c0-2.8 2.27-5.07 5.07-5.07.87 0 1.69.24 2.43.65-.09-.56.28-1.07.83-1.16a1 1 0 0 1 1.15.83l.54 3.33-3.67.6c-.05 0-.11.01-.16.01-.48 0-.91-.35-.99-.84-.09-.54.28-1.06.83-1.15l.2-.03c-.37-.15-.76-.23-1.16-.23-1.69 0-3.07 1.38-3.07 3.07Zm6.27.52h2c0 2.8-2.27 5.07-5.07 5.07-.87 0-1.69-.24-2.43-.65.09.56-.28 1.07-.83 1.16-.05 0-.11.01-.16.01-.48 0-.91-.35-.99-.84l-.54-3.33 3.66-.6c.55-.09 1.06.28 1.15.83s-.28 1.06-.83 1.15l-.2.03c.37.15.76.23 1.16.23 1.69 0 3.07-1.38 3.07-3.07Z"/>
</svg>
