<svg viewBox="0 0 48 48" xmlns="http://www.w3.org/2000/svg">
  <path d="M37.77 29.09c5.93-1.97 10.22-7.56 10.22-14.16C47.99 6.69 41.3.01 33.06.01S18.13 6.69 18.13 14.94c0 .39.03.78.06 1.16H7.11l-.94-7.84H-.01v2.5h3.96l3.9 32.41h3.46c-.31.49-.5 1.07-.5 1.69a3.15 3.15 0 1 0 6.3 0c0-.62-.19-1.2-.5-1.69h11.64c-.31.49-.5 1.07-.5 1.69a3.15 3.15 0 1 0 6.3 0c0-.62-.19-1.2-.5-1.69h4.47v-2.5H10.06l-.63-5.24h27.01zM30.9 44.21c.36 0 .65.29.65.65s-.29.65-.65.65-.65-.29-.65-.65.29-.65.65-.65m-16.94 0c.36 0 .65.29.65.65s-.29.65-.65.65-.65-.29-.65-.65.29-.65.65-.65m19.1-41.7c6.85 0 12.43 5.58 12.43 12.43s-5.58 12.43-12.43 12.43-12.43-5.58-12.43-12.43S26.21 2.51 33.06 2.51M18.11 18.63h.49a14.9 14.9 0 0 0 2.96 5.84h-3.45zm-2.5 14.3H9.13l-.72-5.97h7.2zm0-8.46h-7.5l-.7-5.86 8.2.02zm2.5 8.46v-5.97h6.13c.86.63 1.79 1.18 2.78 1.62v4.35zm11.41 0v-3.5c1.14.28 2.32.44 3.54.44.69 0 1.36-.06 2.03-.15l-.68 3.22h-4.89Zm2.75-10.02c1.51 0 3.13-.34 4.41-.95l-.82-2.22c-1.16.5-2.1.76-3.09.76-3.21 0-5.23-1.95-5.23-5.23s2.27-5.6 5.61-5.6c2.9 0 5.19 1.3 5.19 4.62 0 1.74-.44 2.48-1.38 2.48-.5 0-.74-.23-.74-.86 0-.29.04-.67.15-1.18l.63-3.17h-2.37l-.23.9c-.27-.84-1.11-1.2-2.08-1.2-1.55 0-3.53 1.68-3.53 4.41 0 2.16 1.26 3.19 2.86 3.19 1.11 0 1.83-.44 2.33-1.24.48.95 1.45 1.62 2.92 1.62 2.27 0 4.24-1.68 4.24-5.14 0-4.72-4.05-6.91-7.75-6.91-4.98 0-8.63 3.3-8.63 8.1 0 4.41 2.92 7.62 7.52 7.62Zm.23-6.46c-.57 0-.9-.36-.9-1.01 0-1.03.5-1.81 1.28-1.81.59 0 .9.36.9 1.01 0 1.01-.52 1.81-1.28 1.81"/>
</svg>
