<svg viewBox="0 0 64 64" xmlns="http://www.w3.org/2000/svg">
  <path d="M12.25 47.22h36.1l1.67-7.93c-1.47.32-2.99.5-4.55.5-10.55 0-19.28-7.69-20.96-17.77H9.22L7.96 11.56H-.01v2.75h5.54l5.2 43.23h4.94c-.59.69-.96 1.57-.96 2.54a3.91 3.91 0 1 0 7.82 0c0-.98-.37-1.86-.96-2.54h16.7c-.59.69-.96 1.57-.96 2.54a3.91 3.91 0 1 0 7.82 0c0-.98-.37-1.86-.96-2.54h6.54v-2.75H13.16zm28.96 11.71a1.16 1.16 0 1 1-.002 2.322 1.16 1.16 0 0 1 .002-2.322m-22.59 0a1.16 1.16 0 1 1-.002 2.322 1.16 1.16 0 0 1 .002-2.322M46.5 18.1c0 1.44-.75 2.57-1.82 2.57-.81 0-1.29-.51-1.29-1.44 0-1.47.72-2.57 1.82-2.57.84 0 1.29.51 1.29 1.44M45.47 0C35.26 0 26.95 8.3 26.95 18.52s8.31 18.52 18.52 18.52 18.52-8.31 18.52-18.52S55.68 0 45.47 0m5.46 24.65c-2.09 0-3.47-.96-4.16-2.3-.72 1.14-1.73 1.76-3.32 1.76-2.27 0-4.07-1.47-4.07-4.55 0-3.89 2.81-6.28 5.02-6.28 1.38 0 2.57.51 2.96 1.7l.33-1.29h3.38l-.9 4.52c-.15.72-.21 1.26-.21 1.67 0 .9.33 1.23 1.05 1.23 1.35 0 1.97-1.05 1.97-3.53 0-4.73-3.26-6.58-7.39-6.58-4.76 0-7.99 3.29-7.99 7.99s2.87 7.45 7.45 7.45c1.41 0 2.75-.36 4.4-1.08l1.17 3.17c-1.82.87-4.13 1.35-6.28 1.35-6.55 0-10.71-4.58-10.71-10.86 0-6.85 5.2-11.55 12.29-11.55 5.26 0 11.04 3.11 11.04 9.84 0 4.94-2.81 7.33-6.04 7.33Z"/>
</svg>
