<svg viewBox="0 0 24 24" xmlns="http://www.w3.org/2000/svg">
  <path fill="#1e1e1c" d="M23.96 6.94c.12-.55-.02-1.12-.38-1.56s-.89-.69-1.46-.69H4.36L3.8 0H0v1.75h2.25l2.33 19.66h1.85c-.06.19-.1.38-.1.58a2.01 2.01 0 0 0 4.02 0c0-.2-.04-.4-.1-.58h6.29c-.06.19-.1.38-.1.58a2.01 2.01 0 0 0 4.02 0c0-.2-.04-.4-.1-.58h1.84v-1.75H6.13l-.26-2.19h16.1zM8.08 22c0-.14.12-.26.26-.26s.26.12.26.26c0 .29-.52.29-.52 0m10.12 0c0-.14.12-.26.26-.26s.26.12.26.26c0 .29-.52.29-.52 0m4.02-15.52s.03.07.02.12l-.68 3.57h-3.8V6.43h4.36s.07.02.1.05m-11.27 3.7V6.44h5.06v3.74zm5.07 1.74v3.8h-5.06v-3.8zM9.2 6.43v3.74H5.01l-.44-3.74h4.64Zm-3.98 5.49h3.99v3.8H5.67zm12.55 3.81v-3.8h3.47l-.72 3.8z"/>
</svg>
