<svg viewBox="0 0 24 24" xmlns="http://www.w3.org/2000/svg">
  <path d="M18.9 15.39c2.97-1.16 5.08-4.04 5.08-7.42 0-4.4-3.57-7.97-7.97-7.97S8.28 3.34 8.06 7.54H3.77L3.3 3.62H-.01v1.75h1.76L3.7 21.58h1.56c-.06.19-.11.38-.11.59a1.83 1.83 0 0 0 3.66 0c0-.21-.04-.41-.11-.59h5.04c-.06.19-.11.38-.11.59a1.83 1.83 0 0 0 3.66 0c0-.21-.04-.41-.11-.59h1.84v-1.75H5.25L5 17.71h13.42l.49-2.32Zm-3.45 6.71s.08.03.08.08c0 .08-.15.08-.15 0 0-.04.03-.08.08-.08Zm-8.48 0s.08.03.08.08c0 .08-.15.08-.15 0 0-.04.03-.08.08-.08Zm9.05-20.35c3.43 0 6.22 2.79 6.22 6.22s-2.79 6.22-6.22 6.22S9.8 11.4 9.8 7.97s2.79-6.22 6.22-6.22M7.55 15.96H4.78l-.3-2.48h3.07zm0-4.23H4.27L3.98 9.3h3.57zm1.75 4.23v-2.48h.97c.83.86 1.85 1.54 2.99 1.96v.52H9.31Zm5.7 0v-.09c.33.04.67.07 1.01.07s.67-.03 1-.07l-.02.09zm.63-4c.76 0 1.56-.17 2.2-.47l-.41-1.11c-.58.25-1.05.38-1.54.38-1.61 0-2.61-.98-2.61-2.61s1.13-2.8 2.8-2.8c1.45 0 2.59.65 2.59 2.31 0 .87-.22 1.24-.69 1.24-.25 0-.37-.12-.37-.43 0-.15.02-.34.07-.59l.31-1.58h-1.19l-.12.45c-.14-.42-.56-.6-1.04-.6-.78 0-1.76.84-1.76 2.2 0 1.08.63 1.6 1.43 1.6.56 0 .91-.22 1.17-.62.24.47.72.81 1.46.81 1.13 0 2.12-.84 2.12-2.57 0-2.36-2.03-3.45-3.87-3.45-2.49 0-4.31 1.65-4.31 4.05 0 2.2 1.46 3.81 3.76 3.81Zm.11-3.24c-.28 0-.45-.18-.45-.5 0-.51.25-.9.64-.9.29 0 .45.18.45.5 0 .5-.26.9-.64.9"/>
</svg>
