<svg viewBox="0 0 32 32" xmlns="http://www.w3.org/2000/svg">
  <path fill="#1e1e1c" d="M31.48 7.13c-.45-.55-1.11-.86-1.82-.86H5.69L4.95.01H0v2h3.16l3.12 26.54h2.56c-.12.29-.19.61-.19.94 0 1.39 1.13 2.52 2.53 2.52s2.53-1.13 2.53-2.52c0-.33-.07-.65-.19-.94h8.88c-.12.29-.19.61-.19.94 0 1.39 1.13 2.52 2.53 2.52s2.53-1.13 2.53-2.52c0-.33-.07-.65-.19-.94h1.85v-2H8.07l-.42-3.53H29.3l2.64-13.94c.15-.69-.03-1.4-.47-1.95Zm-20.3 22.88c-.28 0-.52-.23-.52-.51s.23-.52.52-.52.52.23.52.52-.23.51-.52.51m13.57 0c-.29 0-.52-.23-.52-.51s.23-.52.52-.52.52.23.52.52-.23.51-.52.51m5.16-21.62s.1.14.06.3l-.93 4.91h-5.4V8.27h6.01c.14 0 .22.08.26.12m-15.4 5.21V8.27h7.12v5.33zm7.12 2v5.41h-7.12V15.6zM12.5 8.27v5.33H6.55l-.63-5.33zM6.79 15.6h5.72v5.41H7.43zm16.86 5.42v-5.41h5.02l-1.03 5.41h-4Z"/>
</svg>
