<svg viewBox="0 0 48 48" xmlns="http://www.w3.org/2000/svg">
  <path d="m42.61 28.07-.69 3.66h-6.49v-.69c-.79.12-1.59.2-2.42.2h-.08v.5H21.57v-4.93h.32c-1.1-1.03-2.05-2.22-2.82-3.52v1.02H10.1l-.58-4.93h7.87c-.23-.81-.4-1.64-.5-2.5H9.22l-.58-4.93h8.43c.16-.86.41-1.69.7-2.5H8.34L7.22 0H0v2.5h5l4.77 40.28h4.04c-.28.5-.45 1.07-.45 1.69 0 1.95 1.59 3.54 3.54 3.54s3.54-1.59 3.54-3.54c0-.61-.17-1.18-.45-1.69h14.22c-.28.5-.45 1.07-.45 1.69 0 1.95 1.59 3.54 3.54 3.54s3.54-1.59 3.54-3.54c0-.61-.17-1.18-.45-1.69h3.39v-2.5h-31.8l-.72-6.05h32.72l1.73-9.14c-.9 1.13-1.94 2.13-3.11 2.98ZM16.9 45.51c-.57 0-1.04-.47-1.04-1.04s.47-1.04 1.04-1.04 1.04.47 1.04 1.04-.47 1.04-1.04 1.04m20.4 0c-.57 0-1.04-.47-1.04-1.04s.47-1.04 1.04-1.04 1.04.47 1.04 1.04-.47 1.04-1.04 1.04M19.07 31.73h-8.1l-.58-4.93h8.68zm13.94-1.74C41.29 29.99 48 23.28 48 15S41.29.01 33.01.01 18.02 6.72 18.02 15s6.71 14.99 14.99 14.99m0-27.48C39.9 2.51 45.5 8.11 45.5 15s-5.6 12.49-12.49 12.49S20.52 21.89 20.52 15s5.6-12.49 12.49-12.49M27.96 14.6h-2.5c0-4.1 3.34-7.44 7.44-7.44 1.47 0 2.86.42 4.06 1.21l-.09-.56a1.26 1.26 0 0 1 1.03-1.44c.68-.11 1.33.35 1.44 1.03l.79 4.8-5.31.87c-.07.01-.14.02-.2.02-.6 0-1.13-.44-1.23-1.05-.11-.68.35-1.32 1.03-1.43l1.1-.18a4.87 4.87 0 0 0-2.6-.76c-2.73 0-4.94 2.22-4.94 4.94Zm10.09.79h2.5c0 4.1-3.34 7.44-7.44 7.44-1.47 0-2.86-.42-4.06-1.21l.09.56c.11.68-.35 1.32-1.03 1.44-.07.01-.14.02-.2.02-.6 0-1.13-.44-1.23-1.05l-.79-4.8 5.31-.87c.68-.11 1.32.35 1.44 1.03.11.68-.35 1.32-1.03 1.44l-1.1.18c.78.49 1.67.76 2.6.76 2.73 0 4.94-2.22 4.94-4.94"/>
</svg>
