<svg viewBox="0 0 64 64" xmlns="http://www.w3.org/2000/svg">
  <path d="M54.45 35.16h3.32l-1.35 7.17h-8.97V37c-.43.03-.85.07-1.28.07-.5 0-.98-.04-1.47-.07v5.33H28.97v-7.17h8.91c-1.53-.74-2.95-1.66-4.22-2.76h-4.69v-6.05a19.2 19.2 0 0 1-2.02-8.55c0-1.82.27-3.58.75-5.26H10.84L9.36-.07H0v2.76h6.92l6.36 54.26h5.64c-.51.72-.81 1.6-.81 2.55 0 2.45 1.99 4.44 4.43 4.44s4.43-1.99 4.43-4.44c0-.95-.3-1.82-.81-2.55h19.97c-.51.72-.81 1.6-.81 2.55 0 2.45 1.99 4.44 4.43 4.44s4.43-1.99 4.43-4.44c0-.95-.3-1.82-.81-2.55h5.02v-2.76H15.72l-1.07-9.11h44.04l3.01-16a19.3 19.3 0 0 1-7.26 6.07Zm-4.72 22.65c.92 0 1.68.75 1.68 1.68s-.75 1.68-1.68 1.68-1.68-.75-1.68-1.68.75-1.68 1.68-1.68m-27.2 0c.92 0 1.68.75 1.68 1.68s-.75 1.68-1.68 1.68-1.68-.75-1.68-1.68.75-1.68 1.68-1.68m3.68-15.48H14.33l-.84-7.17h12.72zm0-9.93H13.16l-.84-7.17h13.89zm0-9.92H12l-.84-7.17h15.05zm19.95 13.21c9.85 0 17.84-8 17.84-17.88S56.01-.07 46.16-.07s-17.84 8-17.84 17.88 7.99 17.88 17.84 17.88m0-33c8.32 0 15.09 6.78 15.09 15.12s-6.77 15.12-15.09 15.12-15.09-6.78-15.09-15.12S37.84 2.69 46.16 2.69m-6.6 14.62h-2.75c0-5.1 4.14-9.24 9.22-9.24 1.98 0 3.86.63 5.42 1.78l-.2-1.2a1.38 1.38 0 0 1 1.14-1.58c.74-.11 1.46.39 1.58 1.14l.96 5.89-6.52 1.07c-.08.01-.15.02-.22.02a1.38 1.38 0 0 1-.22-2.74l1.92-.32a6.44 6.44 0 0 0-3.87-1.3c-3.57 0-6.47 2.91-6.47 6.49Zm13.2 1h2.75c0 5.1-4.14 9.24-9.22 9.24-1.98 0-3.86-.63-5.42-1.78l.2 1.2c.12.75-.39 1.46-1.14 1.58-.08.01-.15.02-.22.02-.66 0-1.25-.48-1.36-1.16l-.96-5.89 6.52-1.07c.75-.12 1.46.39 1.58 1.14s-.39 1.46-1.14 1.58l-1.92.32c1.13.85 2.46 1.3 3.86 1.3 3.57 0 6.47-2.91 6.47-6.49Z"/>
</svg>
