<svg viewBox="0 0 32 32" xmlns="http://www.w3.org/2000/svg">
  <path d="M6.48 23.61h17.95l.82-3.92c-.71.15-1.45.22-2.21.22-5.56 0-10.15-4.15-10.85-9.52h-7.3l-.63-5.23H0v2h2.49l2.6 21.61h2.18c-.14.29-.22.62-.22.96 0 1.25 1.02 2.27 2.27 2.27s2.27-1.02 2.27-2.27c0-.34-.08-.67-.22-.96h7.2c-.14.29-.22.62-.22.96 0 1.25 1.02 2.27 2.27 2.27s2.27-1.02 2.27-2.27c0-.34-.08-.67-.22-.96h2.7v-2H6.86zm14.12 5.85c.15 0 .27.12.27.27 0 .29-.54.29-.54 0 0-.15.12-.27.27-.27m-11.3 0c.15 0 .27.12.27.27 0 .29-.54.29-.54 0 0-.15.12-.27.27-.27M23.57 8.74c0 .74-.39 1.33-.94 1.33-.42 0-.66-.26-.66-.74 0-.76.37-1.33.94-1.33.43 0 .66.26.66.74M23.04 0c-4.94 0-8.96 4.02-8.96 8.96s4.02 8.96 8.96 8.96S32 13.9 32 8.96 27.98 0 23.04 0m2.81 12.11c-1.08 0-1.79-.49-2.14-1.19-.37.59-.89.91-1.71.91-1.17 0-2.1-.75-2.1-2.34 0-2 1.45-3.24 2.59-3.24.71 0 1.32.26 1.53.88l.17-.66h1.74l-.46 2.33c-.08.37-.11.65-.11.86 0 .46.17.63.54.63.69 0 1.02-.54 1.02-1.82 0-2.44-1.68-3.39-3.81-3.39-2.45 0-4.11 1.7-4.11 4.12s1.48 3.84 3.84 3.84c.72 0 1.42-.18 2.27-.55l.6 1.63c-.94.45-2.13.69-3.24.69-3.37 0-5.52-2.36-5.52-5.59 0-3.53 2.68-5.95 6.33-5.95 2.71 0 5.69 1.6 5.69 5.07 0 2.54-1.45 3.78-3.11 3.78Z"/>
</svg>
