<svg viewBox="0 0 64 64" xmlns="http://www.w3.org/2000/svg">
  <path d="m57.35 61.24 2.75 2.75H1.38a1.38 1.38 0 0 1 0-2.76h55.97ZM40.89 37l-2.15-2.15L50.68 1.42C51 .55 51.75 0 52.51 0c.17 0 .35.03.52.09l9.88 3.57c.91.33 1.34 1.46.95 2.52L49.93 45.14l-.52.4-1.96-1.96h.01l-.04-.03-4.57-4.57 5.63 2.03 10.51-29.39-7.95-3.03-10.16 28.42ZM51.97 5.99l7.95 3.03 1.11-3.12-8-2.89zM11.52 33.4a1.376 1.376 0 0 0 .24-2.74c-4.73-.44-9.5 2.49-11.14 6.77-1.73 4.53.26 10.01 4.44 12.22 2.1 1.11 4.7 1.29 7.12.5a9.3 9.3 0 0 0 3.32-1.9c1.17 3.42 3.36 5.95 6.24 7.14 3.54 1.45 9.18.82 12.36-2.04 3.02 2.14 6.92 3.07 10.43 3.07 1.6 0 3.12-.19 4.44-.55.73-.2 1.17-.96.97-1.69s-.96-1.16-1.69-.97c-2.35.64-5.55.64-8.51-.22l5.29-4.09-1.96-1.96-1.75 1.35-.87-3.97-3.61-3.61 2.69 12.21c-1.72-.52-3.34-1.33-4.66-2.48a1.37 1.37 0 0 0-1.99.2c-2.06 2.67-7.2 3.38-10.08 2.19-3.88-1.59-4.98-6.05-5.28-7.89-.09-.59-.56-1.05-1.16-1.14-.59-.09-1.17.22-1.44.76-.66 1.35-1.97 2.44-3.59 2.97-1.72.56-3.54.45-4.98-.32-2.94-1.55-4.38-5.59-3.15-8.81 1.21-3.18 4.8-5.33 8.32-5.02ZM0 1.94l62.05 62.05L64 62.04 1.94 0z"/>
</svg>
