<svg viewBox="0 0 32 32" xmlns="http://www.w3.org/2000/svg">
  <path d="m27.16 29.99 2 2H1c-.55 0-1-.44-1-1s.45-1 1-1zM6.01 15.8a.99.99 0 0 0 1.08-.91c.05-.55-.36-1.04-.91-1.09-2.49-.22-5.01 1.31-5.87 3.58-.92 2.4.14 5.31 2.36 6.48 1.12.59 2.51.69 3.79.27.52-.17 1-.42 1.41-.73.64 1.58 1.73 2.75 3.13 3.33 1.91.79 4.35.11 6.16-1 1.55 1.07 3.53 1.54 5.32 1.54.63 0 1.22-.07 1.77-.18l-1.81-1.82c-.67 0-1.37-.09-2.05-.27l1.01-.78-2.12-2.12.6 2.75c-.74-.25-1.45-.6-2.02-1.11a.994.994 0 0 0-1.25-.05c-1.35.99-3.51 1.74-4.85 1.19-1.78-.73-2.3-2.83-2.44-3.69a.997.997 0 0 0-1.88-.28c-.29.6-.88 1.08-1.6 1.32-.78.25-1.59.2-2.24-.14-1.33-.7-1.98-2.53-1.42-4 .55-1.43 2.23-2.45 3.82-2.3Zm16.43 3.82-2.99-2.99L25.33.71c.16-.43.54-.71.92-.71.09 0 .17.01.26.05l4.93 1.78c.45.16.67.73.48 1.26l-6.75 18.23-.58.45-1.42-1.43.33-.25.03-.08-1.08-.39ZM26.43 3.5l2.78 1.13.48-1.31-2.82-1.02zm-5.04 13.61 2.82 1.02 4.3-11.62-2.78-1.13zM1.44 0 .02 1.42 30.57 32l1.41-1.41z"/>
</svg>
