<svg viewBox="0 0 48 48" xmlns="http://www.w3.org/2000/svg">
  <path d="M48 46.75c0 .69-.56 1.25-1.25 1.25H1.25a1.25 1.25 0 0 1 0-2.5h45.5c.69 0 1.25.56 1.25 1.25M4.01 35.57c1.63.86 3.64 1 5.51.39.86-.28 1.65-.71 2.32-1.26.92 2.47 2.56 4.31 4.7 5.18 2.82 1.16 6.56.06 9.19-1.58 2.31 1.65 5.3 2.37 7.99 2.37 1.22 0 2.38-.15 3.38-.42.67-.18 1.06-.87.88-1.53-.18-.67-.87-1.06-1.53-.88-1.69.46-3.97.46-6.11-.12l7.42-5.74.03-.07-9.88-3.57-.03.07 2.02 9.17c-1.21-.38-2.36-.96-3.3-1.77-.44-.38-1.09-.41-1.56-.07-2.09 1.53-5.45 2.69-7.56 1.82-2.81-1.15-3.61-4.4-3.83-5.75-.09-.54-.51-.96-1.05-1.04-.54-.09-1.07.2-1.31.69-.47.96-1.4 1.73-2.56 2.11-1.23.4-2.53.32-3.57-.22-2.11-1.12-3.15-4.01-2.26-6.33.88-2.3 3.45-3.86 6.02-3.62.7.06 1.3-.45 1.36-1.13s-.45-1.29-1.13-1.36c-3.63-.34-7.32 1.92-8.58 5.22-1.34 3.5.2 7.73 3.43 9.43ZM46.13 9.41l-9.78-3.84-7.57 20.44 9.88 3.57 7.47-20.16Zm1.77-4.78c.29-.8-.03-1.65-.71-1.89L39.77.07a1 1 0 0 0-.35-.06h-.08c-.12 0-.25.02-.37.07-.01 0-.03.01-.04.02-.11.04-.22.1-.32.18-.02.01-.04.03-.06.04-.1.08-.2.18-.28.29-.02.02-.03.05-.05.07-.08.12-.16.25-.21.4l-.8 2.16 9.78 3.84.9-2.43Z"/>
</svg>
