<svg viewBox="0 0 64 64" xmlns="http://www.w3.org/2000/svg">
  <path d="M64 62.62c0 .76-.62 1.38-1.37 1.38H1.38a1.38 1.38 0 0 1 0-2.76h61.24c.76 0 1.37.62 1.37 1.38ZM5.06 49.66c2.1 1.11 4.7 1.29 7.12.5a9.3 9.3 0 0 0 3.32-1.9c1.17 3.42 3.36 5.95 6.24 7.14 3.54 1.45 9.18.82 12.36-2.04 3.02 2.14 6.92 3.07 10.43 3.07 1.6 0 3.12-.19 4.44-.55.73-.2 1.17-.96.97-1.69s-.96-1.16-1.69-.97c-2.35.64-5.55.64-8.51-.22l10.19-7.88.22-.61-13.17-4.76-.22.61 2.77 12.57c-1.72-.52-3.34-1.33-4.66-2.48a1.37 1.37 0 0 0-1.99.2c-2.06 2.67-7.2 3.38-10.08 2.19-3.88-1.59-4.98-6.05-5.28-7.89-.09-.59-.56-1.05-1.16-1.14-.59-.09-1.17.22-1.44.76-.66 1.35-1.97 2.44-3.59 2.97-1.72.56-3.54.45-4.98-.32-2.94-1.55-4.38-5.59-3.15-8.81 1.22-3.18 4.8-5.34 8.32-5.02.75.07 1.42-.49 1.49-1.25s-.49-1.43-1.25-1.49c-4.73-.44-9.5 2.49-11.14 6.77-1.73 4.53.26 10.01 4.44 12.22Zm56.51-37.08L48.48 7.6 37.91 37.18l13.17 4.76 10.49-29.35Zm2.29-6.41c.1-.27.14-.54.14-.8v-.03c0-.22-.04-.43-.11-.63-.02-.06-.05-.12-.07-.18-.08-.18-.19-.36-.32-.5-.16-.17-.36-.3-.59-.38L56.6 1.37 53.04.08c-.15-.05-.31-.07-.46-.08h-.12c-.17 0-.33.03-.49.09-.02 0-.03.02-.05.02-.15.06-.29.14-.43.24-.03.02-.05.03-.08.05-.14.11-.26.24-.38.39-.02.03-.04.06-.07.1-.11.16-.21.33-.28.53L49.4 5.01l13.09 4.98z"/>
</svg>
