<svg viewBox="0 0 48 48" xmlns="http://www.w3.org/2000/svg">
  <path d="M48 46.75c0 .69-.56 1.25-1.25 1.25H1.25a1.25 1.25 0 0 1 0-2.5h45.5c.69 0 1.25.56 1.25 1.25M.57 26.14c1.26-3.3 4.95-5.55 8.58-5.22.69.06 1.19.67 1.13 1.36s-.66 1.19-1.36 1.13c-2.57-.24-5.14 1.33-6.02 3.62-.88 2.32.15 5.22 2.26 6.33 1.03.55 2.33.63 3.57.22 1.16-.38 2.09-1.15 2.56-2.11.24-.49.76-.78 1.31-.69.54.08.96.5 1.05 1.04.22 1.34 1.02 4.6 3.83 5.75 2.11.87 5.47-.29 7.56-1.82a1.25 1.25 0 0 1 1.56.07c.93.81 2.08 1.39 3.3 1.77l-2.02-9.17L38.02 1.07c.23-.65.8-1.07 1.37-1.07.13 0 .26.02.39.07l7.41 2.67c.68.25 1 1.09.71 1.89L37.77 31.98l-7.42 5.74c2.13.58 4.42.58 6.11.12.67-.18 1.35.21 1.53.88s-.21 1.35-.88 1.53c-1.01.27-2.17.42-3.38.42-2.69 0-5.68-.72-7.99-2.37-2.63 1.64-6.37 2.74-9.19 1.58-2.13-.88-3.77-2.71-4.7-5.18-.67.55-1.46.98-2.32 1.26-1.87.61-3.88.47-5.51-.39C.79 33.86-.75 29.63.59 26.14Zm35.1 4.3.02-.05-5.18-1.87-.03.08 1.1 5 4.08-3.15Zm-4.29-4.27 5.18 1.87 6.8-18.35s-.1 0-.15-.03l-4.96-2.02-6.86 18.53ZM39.11 5.3l5.04 2.05s.04.03.06.04l1-2.7-5.18-1.87z"/>
</svg>
