<svg viewBox="0 0 64 64" xmlns="http://www.w3.org/2000/svg">
  <path d="M3.2 38.42c-1.23 3.22.21 7.25 3.15 8.81 1.45.76 3.26.88 4.98.32 1.62-.53 2.93-1.61 3.59-2.97.26-.54.85-.85 1.44-.76s1.06.55 1.16 1.14c.3 1.84 1.4 6.3 5.28 7.89 2.88 1.19 8.03.47 10.08-2.19.23-.3.58-.49.95-.53.38-.04.75.08 1.04.33 1.32 1.15 2.95 1.96 4.66 2.48l-.46-2.11-2.23-10.1 8.19 8.19-5.29 4.09c2.96.86 6.16.86 8.51.22.73-.2 1.49.23 1.69.97.2.73-.23 1.49-.97 1.69-1.32.36-2.84.55-4.44.55-3.51 0-7.41-.93-10.43-3.07-3.17 2.85-8.82 3.49-12.36 2.04-2.88-1.18-5.07-3.72-6.24-7.14a9.2 9.2 0 0 1-3.32 1.9c-2.42.79-5.02.61-7.12-.5C.88 47.46-1.11 41.98.62 37.45c1.64-4.29 6.41-7.21 11.14-6.77.76.07 1.31.74 1.24 1.49s-.75 1.31-1.49 1.25c-3.52-.31-7.11 1.84-8.32 5.02Zm47.87 3.52 10.49-29.35-13.09-4.98-10.25 28.68L1.94 0 0 1.94l62.04 62.05 1.95-1.95-24.17-24.18 11.26 4.06ZM63.85 6.17c.05-.13.08-.27.11-.4.02-.13.03-.27.03-.4 0-.78-.41-1.48-1.09-1.73L53.03.09c-.15-.05-.31-.07-.46-.08h-.12c-.17 0-.33.03-.49.09-.02 0-.04.02-.05.02-.15.06-.29.14-.43.24-.03.02-.05.03-.08.05-.14.11-.26.24-.38.39a.6.6 0 0 1-.07.09c-.11.16-.21.33-.28.53l-1.28 3.59 13.09 4.98zM49.93 45.13l.22-.61-2.72-.98 1.99 1.99.52-.4ZM1.39 61.24a1.38 1.38 0 0 0 0 2.76H60.1l-2.75-2.75H1.39Z"/>
</svg>
