<svg viewBox="0 0 40 40" xmlns="http://www.w3.org/2000/svg">
  <path d="M39.98 38.87c0 .62-.5 1.13-1.12 1.13H1.13C.51 40 0 39.49 0 38.87s.5-1.13 1.12-1.13h37.73c.62 0 1.12.5 1.12 1.13ZM3.3 29.72c1.38.73 3.07.85 4.66.33.69-.23 1.32-.56 1.87-.99.78 2.03 2.15 3.53 3.92 4.26 2.38.98 5.44.11 7.69-1.29 1.94 1.36 4.42 1.96 6.66 1.96 1.02 0 1.99-.12 2.84-.35a1.124 1.124 0 0 0-.59-2.17c-1.38.38-3.24.38-4.98-.08l6.1-4.72.07-.18-8.23-2.97-.07.18 1.66 7.55c-.98-.32-1.91-.78-2.67-1.44-.4-.34-.98-.37-1.4-.06-1.73 1.26-4.49 2.22-6.22 1.51-2.3-.94-2.96-3.62-3.14-4.73-.08-.48-.46-.86-.95-.93-.48-.07-.96.18-1.18.62-.38.78-1.14 1.41-2.08 1.72-1.01.33-2.07.26-2.91-.18-1.72-.91-2.57-3.28-1.85-5.17.72-1.88 2.84-3.14 4.93-2.97.62.07 1.16-.4 1.22-1.02s-.4-1.17-1.02-1.22C4.57 17.1 1.46 19 .4 21.78c-1.13 2.95.17 6.53 2.9 7.97Zm34.96-21.4-8.11-3.3-6.06 16.37 8.23 2.97zm1.65-4.46c.06-.17.09-.34.09-.5 0-.49-.26-.93-.68-1.08L33.14.05a.9.9 0 0 0-.32-.06c-.02 0-.04.01-.07.01-.05 0-.09.01-.13.02-.09.02-.17.05-.26.09-.05.02-.09.04-.13.07-.08.05-.16.12-.23.19-.03.03-.07.06-.1.1-.09.12-.18.25-.23.41l-.75 2.02 8.11 3.3.87-2.35Z"/>
</svg>
