<svg viewBox="0 0 24 24" xmlns="http://www.w3.org/2000/svg">
  <path d="m19.8 13.5-4.95-1.75 3.2-8.63 4.92 1.84zm4.14-11.18c.04-.1.05-.2.05-.3 0-.29-.15-.56-.41-.65L19.88.03a.6.6 0 0 0-.19-.03h-.04c-.03 0-.05 0-.08.01-.05.01-.1.03-.15.05-.03.01-.05.03-.08.04-.05.03-.09.07-.14.11l-.06.06c-.06.07-.1.15-.14.24l-.35.94 4.92 1.84.37-1Zm-4.77 12.86.02-.05-2.45-.86 1.57 1.57zm-14.6-3.7c.48.06.91-.31.95-.79a.875.875 0 0 0-.79-.95c-1.93-.18-3.8.97-4.47 2.73-.7 1.84.11 4.06 1.8 4.95.86.46 1.92.53 2.91.21.37-.12.7-.29 1.01-.5.55 1.02 1.45 1.87 2.53 2.31.6.25 1.24.36 1.88.36.92 0 1.84-.24 2.63-.72 1.39.35 2.81.56 4.24.64l-2.08-2.08.02.09c-.71-.12-1.41-.26-2.11-.45a.85.85 0 0 0-.74.14c-.9.66-2.15.81-3.18.39S7.36 16.4 7.18 15.3a.88.88 0 0 0-.74-.73.86.86 0 0 0-.91.48c-.2.41-.6.74-1.1.9-.53.17-1.11.14-1.55-.09-.91-.48-1.37-1.78-.99-2.78s1.56-1.7 2.68-1.61ZM.87 22.24c-.48 0-.87.4-.87.88s.39.88.87.88h20.64l-1.75-1.75H.87ZM0 1.24 22.75 24l1.24-1.24L1.24 0z"/>
</svg>
