<svg viewBox="0 0 16 16" xmlns="http://www.w3.org/2000/svg">
  <path d="M13.35 8.75 9.52 7.37l1.82-4.88 3.81 1.43zm2.62-7.03c.02-.07.03-.13.03-.2a.52.52 0 0 0-.16-.35.6.6 0 0 0-.17-.1L12.79.03a.6.6 0 0 0-.17-.03h-.01c-.09 0-.18.03-.25.08-.02.01-.03.02-.05.03-.07.06-.14.13-.17.22l-.28.75 3.81 1.43zM.75 14.49c-.41 0-.75.34-.75.75s.34.75.75.75h13.12l-1.5-1.5zm12.04-4.26.03-.08-.85-.31.56.56zM3.12 7.9a.753.753 0 1 0 .14-1.5C1.93 6.29.64 7.07.18 8.28c-.49 1.27.08 2.81 1.25 3.43.6.32 1.34.37 2.02.15.19-.06.37-.14.53-.24a3.5 3.5 0 0 0 1.63 1.41c.41.17.85.25 1.29.25.6 0 1.21-.15 1.73-.45.8.2 1.63.3 2.45.37l-1.77-1.77c-.21-.04-.41-.07-.61-.12a.74.74 0 0 0-.64.12c-.52.38-1.28.47-1.88.23-.6-.25-1.07-.84-1.18-1.48a.74.74 0 0 0-.63-.62.74.74 0 0 0-.78.41c-.11.22-.33.4-.61.49-.3.1-.62.08-.86-.05-.51-.27-.77-1-.55-1.57.22-.58.9-.98 1.55-.92ZM1.06 0 0 1.06 14.94 16 16 14.94z"/>
</svg>
