<svg viewBox="0 0 48 48" xmlns="http://www.w3.org/2000/svg">
  <path d="m41.96 45.5 2.5 2.5H1.25a1.25 1.25 0 0 1 0-2.5zm-9.04-16.11-3.94-3.94 9.03-24.38c.23-.65.8-1.07 1.37-1.07.13 0 .26.02.39.07l7.41 2.67c.68.25 1 1.09.71 1.89L37.76 31.98l-1.27.98-1.78-1.78.96-.74.02-.05zM39.11 5.3l5.03 2.05s.04.03.06.04l1-2.7-5.18-1.87-.92 2.48Zm-7.73 20.87 5.18 1.87 6.8-18.35s-.1 0-.15-.03l-4.96-2.02-6.86 18.53ZM8.93 23.41c.7.05 1.3-.45 1.36-1.13s-.45-1.29-1.13-1.36c-3.63-.33-7.32 1.92-8.58 5.22-1.34 3.5.2 7.73 3.43 9.43 1.63.86 3.64 1 5.51.39.86-.28 1.65-.71 2.32-1.26.92 2.47 2.56 4.3 4.7 5.18 2.82 1.16 6.56.06 9.19-1.58 2.31 1.65 5.3 2.37 7.99 2.37 1.09 0 2.12-.13 3.06-.36l-2.2-2.2c-1.34.09-2.81-.01-4.24-.4l2.16-1.67-3.77-3.77 1.17 5.31c-1.21-.38-2.36-.96-3.3-1.77-.44-.38-1.09-.41-1.56-.07-2.09 1.53-5.45 2.69-7.56 1.82-2.81-1.15-3.61-4.4-3.83-5.75-.09-.54-.51-.96-1.05-1.04-.54-.09-1.07.2-1.31.69-.47.96-1.4 1.73-2.56 2.11-1.23.4-2.53.32-3.57-.22-2.11-1.12-3.15-4.01-2.26-6.33.88-2.3 3.45-3.87 6.02-3.62ZM1.77 0 0 1.78 46.23 48 48 46.23z"/>
</svg>
