<svg viewBox="0 0 32 32" xmlns="http://www.w3.org/2000/svg">
  <path d="M31.98 31c0 .55-.45 1-1 1H1c-.55 0-1-.45-1-1s.45-1 1-1h29.99c.55 0 1 .45 1 1ZM.32 17.39c.86-2.26 3.39-3.8 5.87-3.58a1.004 1.004 0 0 1-.17 2c-1.62-.15-3.27.84-3.82 2.3-.56 1.46.09 3.29 1.42 4 .65.34 1.46.39 2.24.14.73-.24 1.31-.72 1.6-1.32a.997.997 0 0 1 1.88.28c.14.87.66 2.96 2.44 3.69 1.34.55 3.5-.2 4.85-1.19.38-.28.89-.25 1.25.05.57.5 1.28.86 2.02 1.11l-1.3-5.92L25.33.71c.16-.43.53-.71.91-.71.09 0 .17.01.26.05l4.93 1.78c.45.16.67.73.48 1.26l-6.75 18.23-4.77 3.69c1.35.35 2.79.34 3.85.05.53-.15 1.08.17 1.23.7.14.53-.17 1.08-.7 1.23-.68.19-1.46.28-2.29.28-1.78 0-3.76-.47-5.31-1.54-1.81 1.11-4.25 1.79-6.16 1-1.4-.58-2.49-1.75-3.13-3.33-.42.31-.9.56-1.41.73-1.29.42-2.67.32-3.79-.27C.46 22.69-.59 19.78.32 17.38Zm23.17 2.7.03-.08-2.82-1.02-.04.1.6 2.73 2.23-1.72Zm-2.09-2.98 2.82 1.02 4.3-11.62-2.78-1.13zM26.43 3.5l2.78 1.13.48-1.31-2.82-1.02z"/>
</svg>
