<svg viewBox="0 0 24 24" xmlns="http://www.w3.org/2000/svg">
  <path d="M23.99 23.12c0 .48-.39.88-.87.88H.87c-.48 0-.87-.4-.87-.88s.39-.88.87-.88h22.24c.48 0 .87.39.87.88ZM.25 12.47c.67-1.75 2.54-2.91 4.47-2.73.48.04.84.47.79.95-.04.48-.47.85-.95.79-1.11-.09-2.3.61-2.68 1.61s.08 2.3.99 2.78c.44.23 1.01.27 1.55.09.5-.16.9-.49 1.1-.9.17-.34.53-.54.91-.48s.68.35.74.73c.18 1.1.96 2.09 1.99 2.51s2.28.27 3.18-.39c.21-.16.49-.21.74-.14.69.19 1.4.33 2.11.45l-.96-4.34L19.01.53c.12-.33.4-.53.69-.53.07 0 .13.01.19.03l3.7 1.34c.34.12.5.55.36.95l-4.77 12.87-3.42 2.65c.83.11 1.67.18 2.51.19.48 0 .87.4.86.89 0 .48-.4.86-.87.86h-.01c-1.76-.02-3.51-.25-5.22-.68-.79.47-1.71.72-2.63.72-.64 0-1.29-.12-1.88-.36-1.08-.44-1.98-1.29-2.53-2.31-.3.21-.64.38-1.01.5-.99.32-2.05.25-2.91-.21-1.7-.9-2.5-3.12-1.8-4.95Zm17.46 1.64.02-.05-1.65-.59-.02.07.35 1.59 1.3-1.01Zm-1.02-2.29 1.65.59 2.67-7.2-1.64-.62-2.68 7.22Zm3.62-9.77-.34.91 1.64.62.35-.93-1.65-.59Z"/>
</svg>
