<svg viewBox="0 0 40 40" xmlns="http://www.w3.org/2000/svg">
  <path d="M8.97 39.98h22.05c2.27 0 4.12-1.85 4.12-4.12V8.4c0-.93-.32-1.85-.9-2.58L30.8 1.53a4.12 4.12 0 0 0-3.22-1.55H8.97a4.13 4.13 0 0 0-4.12 4.13v31.75c0 2.27 1.85 4.12 4.12 4.12m17.9-6.12H12.89c-.83 0-1.5-.67-1.5-1.5v-3.07h4.24v4.57h2.25v-4.57h4.24v4.57h2.25v-4.57h4v3.07c0 .83-.67 1.5-1.5 1.5m1.5-15.48v2.64h-3.46v-4.14h1.96c.83 0 1.5.67 1.5 1.5m-9.03-1.5h3.32v4.14h-2.57c-.41 0-.75-.33-.75-.75zm-6.45 0h4.2v3.39c0 1.65 1.34 3 3 3h8.28v3.77H11.39v-8.66c0-.83.67-1.5 1.5-1.5"/>
</svg>
