<svg viewBox="0 0 24 24" xmlns="http://www.w3.org/2000/svg">
  <path d="M5.57 23.99h12.85c1.58 0 2.88-1.29 2.88-2.88V5.32c0-.65-.22-1.29-.63-1.8l-1.96-2.45A2.88 2.88 0 0 0 16.46 0H5.57C3.99 0 2.7 1.29 2.7 2.87v18.25A2.88 2.88 0 0 0 5.58 24Zm1.26-5.38v-1.05h2.11v2.55h-.61c-.83 0-1.5-.67-1.5-1.5m6.49-1.05v2.55h-2.63v-2.55zm2.21 2.55h-.46v-2.55h1.96v1.05c0 .83-.67 1.5-1.5 1.5m0-10.2c.83 0 1.5.67 1.5 1.5v.8h-1.75v-2.3zm-2.01 0v2.3H11.8v-2.3zm-5.19 0h1.72v2.42c0 .9.73 1.63 1.62 1.63h5.35v1.85H6.83v-4.4c0-.83.67-1.5 1.5-1.5"/>
</svg>
