<svg viewBox="0 0 64 64" xmlns="http://www.w3.org/2000/svg">
  <path d="M56.1 57.63V13.27c0-1.44-.5-2.86-1.4-3.99L49.2 2.4A6.33 6.33 0 0 0 44.23.01H14.25c-3.51 0-6.37 2.86-6.37 6.38v51.24c0 3.52 2.86 6.38 6.38 6.38h35.47c3.52 0 6.38-2.86 6.38-6.38Zm-6.38 3.63H14.25c-2 0-3.62-1.63-3.62-3.63V6.39c0-2 1.63-3.63 3.62-3.63h29.97c1.11 0 2.14.5 2.83 1.36l5.5 6.88c.51.64.79 1.44.79 2.27v44.36c0 2-1.63 3.63-3.62 3.63m-30.18-5.37h24.52c1.58 0 2.88-1.29 2.88-2.88V28.47a2.88 2.88 0 0 0-2.88-2.88H19.54c-1.58 0-2.88 1.29-2.88 2.88v24.54a2.88 2.88 0 0 0 2.88 2.88m-.12-2.87v-6.98h7.12v7.11h-6.99c-.07 0-.12-.06-.12-.13Zm16.38-6.98v7.11h-6.51v-7.11zm8.26 7.1h-5.51v-7.11h5.64v6.98c0 .07-.06.13-.12.13Zm.13-24.66v6.29h-5.17v-6.41h5.04c.07 0 .12.06.12.13Zm-13.71-.13h5.79v6.41h-4.13c-.92 0-1.66-.75-1.66-1.66zm-10.94 0h8.19v4.75c0 2.43 1.98 4.41 4.41 4.41h12.05v5.77H19.42v-14.8c0-.07.06-.13.12-.13"/>
</svg>
