<svg viewBox="0 0 32 32" xmlns="http://www.w3.org/2000/svg">
  <path d="m27.33 4.6-2.59-3.24C24.04.49 23.01 0 21.9 0H7.51a3.64 3.64 0 0 0-3.64 3.64v24.71C3.87 30.36 5.5 32 7.51 32h16.98c2.01 0 3.64-1.64 3.64-3.65V6.88c0-.83-.28-1.63-.8-2.28m-1.2 23.75c0 .91-.74 1.64-1.64 1.64H7.51c-.91 0-1.64-.74-1.64-1.64V3.64c0-.91.74-1.64 1.64-1.64H21.9c.5 0 .97.22 1.28.62l2.59 3.24c.23.29.36.65.36 1.03zm-4.99-15.82H10.67a2.5 2.5 0 0 0-2.5 2.5v10.49a2.5 2.5 0 0 0 2.5 2.5h10.47a2.5 2.5 0 0 0 2.5-2.5V15.03a2.5 2.5 0 0 0-2.5-2.5m.5 2.5v1.69h-1.88v-2.19h1.38c.28 0 .5.22.5.5m-6.06-.5h2.18v2.19h-1.7a.49.49 0 0 1-.49-.49v-1.7Zm-4.91 0h2.92v1.7c0 1.37 1.12 2.49 2.49 2.49h5.57v2.76H10.18v-6.45c0-.28.22-.5.5-.5Zm6.6 8.95v2.53h-2.54v-2.53zm-7.1 2.03v-2.03h2.56v2.53h-2.06c-.28 0-.5-.22-.5-.5m10.97.5h-1.88v-2.53h2.38v2.03c0 .28-.22.5-.5.5"/>
</svg>
