<svg viewBox="0 0 48 48" xmlns="http://www.w3.org/2000/svg">
  <path d="m41.11 7.04-4.2-5.25A4.69 4.69 0 0 0 33.21 0h-22.6C7.99 0 5.86 2.13 5.86 4.75v38.5c0 2.62 2.13 4.75 4.75 4.75h26.8c2.62 0 4.75-2.13 4.75-4.75V10c0-1.08-.37-2.13-1.04-2.97Zm-1.45 36.21c0 1.24-1.01 2.25-2.25 2.25h-26.8c-1.24 0-2.25-1.01-2.25-2.25V4.75c0-1.24 1.01-2.25 2.25-2.25h22.6c.69 0 1.33.31 1.76.84l4.2 5.25c.32.4.49.89.49 1.4v33.25Zm-7.07-24.24H15.14c-1.52 0-2.75 1.23-2.75 2.75v17.46c0 1.52 1.23 2.75 2.75 2.75H32.6c1.52 0 2.75-1.23 2.75-2.75V21.76c0-1.52-1.23-2.75-2.75-2.75Zm.25 2.75v3.8h-3.38v-4.05h3.13c.14 0 .25.11.25.25m-9.73-.25h3.85v4.05h-2.84c-.55 0-1.01-.45-1.01-1.01zm-7.97 0h5.47v3.04c0 1.93 1.57 3.51 3.51 3.51h8.73v4.34H14.89V21.76c0-.14.11-.25.25-.25M26.06 34.9v4.57h-4.39V34.9zm-11.17 4.32V34.9h4.28v4.57h-4.03c-.14 0-.25-.11-.25-.25m17.7.25h-4.03V34.9h4.28v4.32c0 .14-.11.25-.25.25"/>
</svg>
