<svg viewBox="0 0 64 64" xmlns="http://www.w3.org/2000/svg">
  <path d="M54.7 9.28 49.2 2.4A6.34 6.34 0 0 0 44.23 0H14.25c-3.51 0-6.37 2.87-6.37 6.39v51.24c0 3.52 2.86 6.38 6.38 6.38h35.47c3.52 0 6.38-2.86 6.38-6.38V13.26c0-1.45-.5-2.86-1.4-3.99ZM39.34 26.97h4.73c.83 0 1.5.67 1.5 1.5v6.29h-6.23zm-8.86 0h6.11v7.79h-4.45c-.92 0-1.66-.75-1.66-1.66zm-4.81 27.54h-6.13c-.83 0-1.5-.67-1.5-1.5v-6.98h7.63zm10.92 0h-8.17v-8.48h8.17zm8.97-1.5c0 .83-.67 1.5-1.5 1.5h-4.73v-8.48h6.23zm-27.52-9.73v-14.8c0-.83.67-1.5 1.5-1.5h8.19v6.13c0 2.43 1.98 4.41 4.41 4.41h13.42v5.76z"/>
</svg>
