<svg viewBox="0 0 16 16" xmlns="http://www.w3.org/2000/svg">
  <path d="M13.98 2.51 12.5.66A1.73 1.73 0 0 0 11.13 0H3.38c-.96 0-1.75.79-1.75 1.75v12.5c0 .97.79 1.75 1.75 1.75h9.23c.96 0 1.75-.79 1.75-1.75V3.6c0-.4-.14-.78-.38-1.09m-1.11 11.74c0 .14-.11.25-.25.25H3.38c-.14 0-.25-.11-.25-.25V1.75c0-.14.11-.25.25-.25h7.75c.08 0 .15.03.19.09l1.48 1.85s.06.1.06.16v10.65Zm-2.52-9.18h-4.8c-.96 0-1.75.79-1.75 1.75v4.8c0 .97.79 1.75 1.75 1.75h4.8c.96 0 1.75-.79 1.75-1.75v-4.8c0-.97-.79-1.75-1.75-1.75m.25 1.75v.74h-.46v-.99h.21c.14 0 .25.11.25.25m-2.56-.25h.61v.99h-.61zm-2.49 0h.98v1.22c0 .7.57 1.27 1.27 1.27h2.79v.52h-5.3V6.82c0-.14.11-.25.25-.25Zm-.25 5.05v-.54h.8v.79h-.55c-.14 0-.25-.11-.25-.25m2.3.25v-.79h.79v.79zm2.75 0h-.46v-.79h.71v.54c0 .14-.11.25-.25.25"/>
</svg>
