<svg viewBox="0 0 24 24" xmlns="http://www.w3.org/2000/svg">
  <path d="m20.67 3.53-1.96-2.45A2.86 2.86 0 0 0 16.46 0H5.57C3.99 0 2.7 1.29 2.7 2.88v18.25a2.88 2.88 0 0 0 2.88 2.88h12.85c1.58 0 2.88-1.29 2.88-2.88V5.33c0-.65-.22-1.29-.63-1.8Zm-1.12 17.59c0 .62-.5 1.13-1.12 1.13H5.57c-.62 0-1.12-.51-1.12-1.13V2.88c0-.62.5-1.13 1.12-1.13h10.89c.34 0 .66.15.88.42l1.96 2.45c.16.2.25.45.25.7v15.79ZM15.53 9.04h-7.2c-1.31 0-2.38 1.07-2.38 2.38v7.2c0 1.31 1.07 2.38 2.38 2.38h7.2c1.31 0 2.38-1.07 2.38-2.38v-7.2c0-1.31-1.07-2.38-2.38-2.38m.62 2.37v.8h-1.18v-1.42h.56c.34 0 .62.28.62.63Zm-4.35-.62h1.42v1.42H11.8zm-3.47 0h1.72v1.55c0 .9.73 1.63 1.62 1.63h4.47v1.85H7.7v-4.4c0-.34.28-.63.62-.63Zm4.51 6.77v1.68h-1.68v-1.68zM7.7 18.62v-1.05h1.71v1.68H8.33c-.34 0-.62-.28-.62-.63Zm7.83.62h-.93v-1.68h1.56v1.05c0 .34-.28.63-.62.63Z"/>
</svg>
