<svg viewBox="0 0 32 32" xmlns="http://www.w3.org/2000/svg">
  <path d="M7.32 23.88c0 .31-.19.5-.49.65l-.7-.24c-.73-.26-1.06-.46-1.06-.87 0-.31.17-.53.48-.67l.53.17c.9.31 1.25.54 1.25.96Zm22.12-11.89v20H0v-20h13.5l-.65.65-1.14 7.65 7.66-1.12 7.17-7.18zM8.38 25.26c.5-.36.81-.9.81-1.58 0-1.18-.86-1.8-2.11-2.23l-.82-.27c-.62-.21-.93-.3-.93-.56 0-.34.46-.47 1.22-.47s1.35.11 1.99.4v-1.69c-.67-.22-1.33-.33-2.03-.33-1.93 0-3.18.85-3.18 2.26 0 .58.23.98.71 1.33-.56.41-.86.92-.86 1.58 0 1.06.66 1.69 2.12 2.16l.61.21c.84.26 1.1.35 1.1.62 0 .38-.56.49-1.32.49-.89 0-1.65-.31-2.31-.63v1.77c.57.23 1.33.48 2.45.48 2.07 0 3.2-.89 3.2-2.24 0-.58-.23-.97-.66-1.28ZM31.51 5.59l-1.88 1.89s-.01.03-.03.04c-.01.01-.03.02-.04.03L18.9 18.23l-6 .88.9-5.99L26.4.48c.31-.31.73-.49 1.18-.49s.86.17 1.18.49l2.75 2.75c.65.65.65 1.71 0 2.36m-4.93-2.46 2.3 2.26.98-.99-2.28-2.28-1 1Zm-9.41 9.42 2.28 2.28 8.01-8.02-2.3-2.26-7.99 8.01Zm.78 3.79.09-.09-2.28-2.28-.09.09-.4 2.68 2.68-.39Z"/>
</svg>
