<svg viewBox="0 0 16 16" xmlns="http://www.w3.org/2000/svg">
  <path d="M3.58 12.02c0 .15-.1.25-.25.33l-.35-.12c-.37-.13-.53-.23-.53-.43 0-.15.09-.26.24-.34l.26.09c.45.15.62.27.62.48Zm10.36-6.03h.78v10H0v-10h6.08l-.13.13-.69 4.61 4.62-.68 4.06-4.07Zm-9.83 6.72c.25-.18.41-.45.41-.79 0-.59-.43-.9-1.05-1.11l-.41-.14c-.31-.1-.46-.15-.46-.28 0-.17.23-.23.61-.23s.68.06 1 .2v-.85c-.34-.11-.66-.17-1.01-.17-.97 0-1.59.42-1.59 1.13 0 .29.11.49.35.66-.28.21-.43.46-.43.79 0 .53.33.85 1.06 1.08l.3.1c.42.13.55.18.55.31 0 .19-.28.25-.66.25-.45 0-.82-.15-1.16-.32v.89c.29.11.66.24 1.22.24 1.04 0 1.6-.45 1.6-1.12 0-.29-.11-.49-.33-.64M16 2.42c0 .29-.11.55-.31.76l-1.23 1.24s0 .01-.01.02c0 0-.01 0-.02.01l-4.89 4.9-3.37.49.5-3.37L12.81.31c.42-.42 1.1-.42 1.51 0l1.36 1.36c.2.2.31.47.31.76Zm-2.86-.32.75.74.42-.42-.75-.75-.43.43ZM9.83 6.92l3.01-3.01-.75-.74-3 3 .75.75Zm-1.9 1.14.8-.12-.68-.68z"/>
</svg>
