<svg viewBox="0 0 32 32" xmlns="http://www.w3.org/2000/svg">
  <path d="M10.7 22.75c0-1.18-.86-1.8-2.11-2.23l-.82-.27c-.62-.21-.93-.3-.93-.56 0-.34.46-.47 1.22-.47s1.35.11 1.99.4v-1.69c-.67-.22-1.33-.33-2.03-.33-1.93 0-3.18.85-3.18 2.26 0 .58.23.98.71 1.33-.56.41-.86.92-.86 1.58 0 1.06.66 1.69 2.12 2.16l.61.21c.84.26 1.1.35 1.1.62 0 .38-.56.49-1.32.49-.89 0-1.65-.31-2.31-.63v1.77c.57.23 1.33.48 2.45.48 2.07 0 3.2-.89 3.2-2.24 0-.58-.23-.97-.66-1.28.5-.36.81-.9.81-1.58Zm-2.37.86-.7-.24c-.73-.26-1.06-.46-1.06-.87 0-.31.17-.53.48-.67l.53.17c.9.31 1.25.54 1.25.96 0 .31-.19.5-.49.65ZM31.51 3.25 28.76.5a1.64 1.64 0 0 0-1.18-.49c-.45 0-.86.17-1.18.49L14.91 12.01H0v20h29.44V12h-4.31l4.44-4.44s.03-.01.04-.03c.01-.01.01-.03.02-.04l1.89-1.89c.65-.65.65-1.71 0-2.36Zm-3.93-1.11 2.28 2.28-.98.99-2.3-2.26 1-1ZM15.67 14.07l.09-.09 2.28 2.28-.09.09-2.68.39.4-2.68Zm3.78.78-2.28-2.28 7.99-8.01 2.3 2.26-8.01 8.02Zm7.99-.85v16H2V14h11.66l-.77 5.11 6-.88L23.12 14h4.31Z"/>
</svg>
