<svg viewBox="0 0 24 24" xmlns="http://www.w3.org/2000/svg">
  <path d="M8.02 17.07c0-.88-.64-1.35-1.58-1.67l-.62-.21c-.46-.15-.69-.22-.69-.42 0-.26.34-.35.92-.35s1.01.09 1.49.3v-1.27c-.51-.16-1-.25-1.52-.25-1.45 0-2.38.63-2.38 1.69 0 .44.17.74.53 1-.42.31-.64.69-.64 1.18 0 .8.5 1.27 1.59 1.62l.46.15c.63.2.82.27.82.46 0 .28-.42.37-.99.37-.67 0-1.24-.23-1.73-.47v1.33c.43.17 1 .36 1.84.36 1.55 0 2.4-.67 2.4-1.68 0-.44-.17-.73-.5-.96.38-.27.61-.68.61-1.18Zm-1.78.64-.52-.18c-.55-.2-.8-.34-.8-.65 0-.23.13-.39.36-.51l.39.13c.68.23.93.4.93.72 0 .23-.15.38-.37.49ZM22.02 6s.01-.02.02-.03l1.56-1.56c.53-.54.53-1.41 0-1.94L21.54.4c-.54-.54-1.41-.54-1.95 0l-8.58 8.59H0v15h22.08v-15h-3.06l2.97-2.98s.02-.01.03-.02Zm-1.46-4.09 1.53 1.54-.7.7-1.54-1.52zm-8.69 8.7.19-.19 1.53 1.54-.19.19-1.8.26zm2.96.11L13.3 9.18l5.31-5.32 1.54 1.52-5.32 5.33Zm5.5.03v11.5H1.75v-11.5h8.34l-.56 3.73 4.71-.69 3.04-3.04h3.06Z"/>
</svg>
