<svg viewBox="0 0 40 40" xmlns="http://www.w3.org/2000/svg">
  <path d="M8.77 30.09c0 .39-.24.63-.62.82l-.87-.3c-.91-.33-1.33-.57-1.33-1.09 0-.39.21-.66.6-.84l.66.21c1.13.39 1.56.67 1.56 1.2m24.07-15.1h3.95v25H0v-25h17.2l-.88.88-1.37 9.18 9.19-1.35 8.69-8.71ZM10.1 31.81c.63-.44 1.02-1.13 1.02-1.97 0-1.47-1.07-2.25-2.63-2.79l-1.03-.34c-.77-.26-1.16-.37-1.16-.7 0-.43.57-.59 1.53-.59s1.69.14 2.49.5V23.8c-.84-.27-1.66-.42-2.53-.42-2.42 0-3.98 1.06-3.98 2.82 0 .73.29 1.23.89 1.66-.7.51-1.07 1.14-1.07 1.97 0 1.33.83 2.12 2.65 2.7l.76.26c1.04.33 1.37.44 1.37.77 0 .47-.7.62-1.64.62-1.12 0-2.06-.39-2.89-.79v2.22c.71.29 1.66.6 3.06.6 2.59 0 4-1.12 4-2.8 0-.73-.29-1.21-.83-1.6ZM39.43 6.8l-2.37 2.38s-.02.03-.03.04-.03.02-.05.03L23.61 22.64l-7.32 1.07 1.09-7.31L33.2.56a1.97 1.97 0 0 1 2.78 0l3.45 3.46c.37.37.57.86.57 1.38s-.2 1.02-.57 1.39Zm-18.32 9.05 3.05 3.05L34.62 8.42l-3.07-3.03zm1.44 4.67.02-.02-3.05-3.05-.02.02-.54 3.58 3.58-.52ZM37.63 5.41l-3.05-3.05-1.45 1.45 3.07 3.03 1.42-1.42Z"/>
</svg>
