<svg viewBox="0 0 64 64" xmlns="http://www.w3.org/2000/svg">
  <path d="M21.4 45.5c0-2.36-1.72-3.6-4.21-4.47l-1.65-.55c-1.24-.41-1.85-.6-1.85-1.12 0-.69.92-.94 2.45-.94s2.7.23 3.98.8v-3.39c-1.35-.43-2.65-.66-4.05-.66-3.87 0-6.36 1.7-6.36 4.51 0 1.17.46 1.97 1.42 2.66-1.12.82-1.72 1.83-1.72 3.16 0 2.13 1.33 3.39 4.23 4.33l1.21.41c1.67.53 2.2.71 2.2 1.24 0 .76-1.12.98-2.63.98-1.79 0-3.3-.62-4.62-1.26v3.55c1.14.46 2.66.96 4.9.96 4.14 0 6.41-1.79 6.41-4.49 0-1.17-.46-1.95-1.33-2.56 1.01-.71 1.63-1.81 1.63-3.16Zm-4.74 1.72-1.4-.48c-1.46-.53-2.13-.92-2.13-1.74 0-.62.34-1.05.96-1.35l1.05.34c1.81.62 2.5 1.08 2.5 1.92 0 .62-.39 1.01-.98 1.31M63.2 6.39 57.61.78c-1.03-1.03-2.84-1.03-3.87 0L30.58 23.99H0v40.02h58.87V24h-9.39l10.47-10.49s.06-.03.08-.06c.02-.02.03-.06.05-.08l3.11-3.12a2.74 2.74 0 0 0 0-3.86ZM30.83 27.63l.11-.11 5.57 5.58-.11.11-6.54.96.98-6.54Zm7.63 3.53-5.57-5.58L51.47 6.93l5.62 5.55-18.64 18.68Zm17.66-4.41v34.52H2.75V26.75h25.44l-1.6 10.68L37.7 35.8l9.04-9.06h9.38Zm2.92-16.22-5.62-5.55 2.25-2.25 5.59 5.58z"/>
</svg>
