<svg viewBox="0 0 24 24" xmlns="http://www.w3.org/2000/svg">
  <path d="M12.77 1.53 6.86 6.67v4.14H0v11.58h15.55v-7.57h3.35l5.09-5.41V1.53H12.76Zm.65 1.75h7.6l-3.37 3.4H9.51zM4.53 16.49l-2.78 2.87v-5.59zm1.25 1.22.06.06c.56.55 1.29.82 2.03.82.7 0 1.39-.25 1.93-.75l2.78 2.8H2.94l2.84-2.94Zm5.28-1.08 2.74-2.68v5.45zm-2.39-.11c-.44.43-1.16.43-1.6 0l-4.04-3.96h9.69l-4.04 3.96Zm8.48-3.44h-1.6v-2.26H8.6V8.43h8.55zm1.75-.8V7.92l3.35-3.38v4.19l-3.35 3.56Zm-2.24-6.44-.34.02h-2.53l2.17-1.75.34-.02h2.48z"/>
</svg>
