<svg viewBox="0 0 16 16" xmlns="http://www.w3.org/2000/svg">
  <path fill="#1e1e1c" d="M13.24 6.42V5c0-1.24-1.01-2.25-2.25-2.25h-6C3.75 2.75 2.74 3.76 2.74 5v6c0 1.24 1.01 2.25 2.25 2.25h6c1.24 0 2.25-1.01 2.25-2.25V9.19c.37-.22.64-.6.64-1.07v-.64c0-.46-.26-.85-.64-1.07Zm-3.94 2a.75.75 0 0 1-.72-.53l-.03-.09-.81 2.04a.76.76 0 0 1-.63.47h-.07a.75.75 0 0 1-.63-.35l-1.02-1.6H3.8v-1.5h2c.26 0 .5.13.63.35l.45.71 1.05-2.66c.12-.3.37-.5.73-.47.32.01.59.22.69.53l.49 1.61h1.89v1.5H9.29Zm2.18-6.65h-7L4.89.65c.15-.39.53-.65.94-.65h4.3c.42 0 .8.26.94.66l.41 1.12ZM4.49 14.24h6.98l-.4 1.1c-.14.39-.52.66-.94.66h-4.3c-.42 0-.8-.26-.94-.66z"/>
</svg>
