<svg viewBox="0 0 64 64" xmlns="http://www.w3.org/2000/svg">
  <path fill="#1e1e1c" d="M52.36 26.44V15.76c0-2.27-1.85-4.12-4.12-4.12h-.52l-3.39-9.3A3.5 3.5 0 0 0 41.05.05H22.86c-1.46 0-2.78.92-3.28 2.29l-3.39 9.3h-.52c-2.27 0-4.12 1.85-4.12 4.12v32.57c0 2.27 1.85 4.12 4.12 4.12h.52l3.39 9.3c.5 1.37 1.82 2.29 3.28 2.29h18.19c1.46 0 2.78-.92 3.28-2.29l3.39-9.3h.52c2.27 0 4.12-1.85 4.12-4.12V36c1.91-.24 3.39-1.85 3.39-3.82v-1.93c0-1.97-1.49-3.58-3.39-3.82ZM22.16 3.28c.11-.29.39-.49.7-.49h18.19c.31 0 .59.2.7.49l3.05 8.36H19.12l3.05-8.36Zm19.58 57.53c-.11.29-.39.49-.7.49H22.85c-.31 0-.59-.2-.7-.49l-3.05-8.36h25.68l-3.05 8.36Zm7.87-12.47c0 .74-.59 1.34-1.32 1.37H15.62c-.73-.03-1.32-.63-1.32-1.37V15.76c0-.76.62-1.37 1.37-1.37h32.57c.76 0 1.37.62 1.37 1.37v32.57Z"/>
</svg>
