<svg viewBox="0 0 16 16" xmlns="http://www.w3.org/2000/svg">
  <path fill="#1e1e1c" d="M13.25 6.42V5c0-.82-.45-1.54-1.11-1.93L11.32.83c-.17-.5-.65-.83-1.17-.83H5.84c-.52 0-.99.33-1.17.82l-.82 2.24c-.66.39-1.11 1.11-1.11 1.93V11c0 .82.45 1.54 1.11 1.93l.82 2.24c.18.49.65.82 1.18.82h4.31c.52 0 1-.33 1.18-.82l.82-2.24c.66-.39 1.11-1.11 1.11-1.93V9.19c.38-.22.64-.61.64-1.07v-.64c0-.46-.26-.85-.64-1.07Zm-8.26 5.34c-.41 0-.75-.34-.75-.75V5c0-.41.34-.75.75-.75H11c.41 0 .75.34.75.75v6.01c0 .41-.33.75-.75.75H4.98ZM6.02 1.5h3.96l.45 1.24H5.57zm3.96 13H6.02l-.45-1.24h4.86z"/>
</svg>
