<svg viewBox="0 0 48 48" xmlns="http://www.w3.org/2000/svg">
  <path fill="#1e1e1c" d="M39.4 19.66v-7.29c0-1.99-1.55-3.6-3.51-3.73l-2.47-6.78A2.85 2.85 0 0 0 30.76 0H17.25C16.07 0 15 .75 14.6 1.85l-2.47 6.78c-1.95.13-3.51 1.74-3.51 3.73v23.27c0 1.99 1.56 3.6 3.51 3.73l2.47 6.78A2.83 2.83 0 0 0 17.25 48h13.51c1.18 0 2.25-.74 2.65-1.86l2.47-6.78c1.95-.13 3.51-1.74 3.51-3.73v-8.52a3.25 3.25 0 0 0 2.52-3.16v-1.14c0-1.54-1.08-2.83-2.52-3.16ZM16.95 2.71c.04-.13.17-.21.3-.21h13.51c.13 0 .26.09.3.21l2.15 5.9H14.8zm14.11 42.58c-.05.13-.17.21-.3.21H17.25c-.13 0-.25-.08-.3-.21l-2.15-5.9h18.41zm5.83-9.65c0 .68-.55 1.24-1.24 1.25H12.36c-.68 0-1.24-.56-1.24-1.25V12.37c0-.69.56-1.25 1.25-1.25h23.27c.69 0 1.25.56 1.25 1.25zm2.52-11.68v.11-1.35 1.25Z"/>
</svg>
