<svg viewBox="0 0 32 32" xmlns="http://www.w3.org/2000/svg">
  <path fill="#1e1e1c" d="M26.31 12.95V8.7c0-1.43-1-2.62-2.34-2.92l-1.61-4.42C22.07.56 21.3.02 20.45.02h-8.91c-.85 0-1.62.54-1.91 1.34L8.02 5.78A3 3 0 0 0 5.68 8.7v14.64c0 1.43 1.01 2.62 2.34 2.92l1.61 4.42c.29.8 1.06 1.34 1.91 1.34h8.91c.85 0 1.62-.54 1.91-1.34l1.61-4.42a3 3 0 0 0 2.34-2.92v-5.06a2 2 0 0 0 1.66-1.97v-1.39c0-.99-.72-1.8-1.66-1.97M8.66 24.34c-.55 0-.99-.45-.99-1V8.7c0-.55.45-1 1-1h14.64c.55 0 1 .45 1 1v14.64a1 1 0 0 1-.99 1zm2.88-22.32 8.94.02 1.33 3.66H10.18zm-.03 27.97-1.33-3.65h11.63l-1.36 3.68-8.94-.02Z"/>
</svg>
