<svg viewBox="0 0 16 16" xmlns="http://www.w3.org/2000/svg">
  <path d="M12.16 11.26c.36-.81 1.28-1.34 1.39-1.39.2-.1.61-.29 1.08-.43-.4-.94-.09-1.33.33-1.65.46-.34 1.04-.61 1.04-1.43 0-.21-.02-.41-.06-.61-.01-.07-.04-.13-.06-.19-.04-.13-.07-.25-.12-.37-.03-.07-.08-.14-.11-.21-.05-.1-.1-.21-.17-.3-.05-.07-.11-.13-.16-.19-.07-.08-.14-.17-.21-.25-.03-.03-.06-.05-.1-.08-.02-.04-.02-.09-.05-.13-.56-.89-.39-1.46.84-2.76.28-.3.27-.78-.03-1.06a.755.755 0 0 0-1.06.03c-.67.7-1.67 1.77-1.53 3.16-.05 0-.09-.01-.14-.01h-.16c-.23.01-.44.06-.65.12-.72-1.16-.35-1.73.19-2.17.32-.26.37-.73.11-1.05a.76.76 0 0 0-1.06-.11c-.79.64-1.83 2-.52 4.13-.18.2-.35.41-.48.65-.3-.41-.62-.74-.92-1-1.32-1.13-3.06-1.59-4.89-1.31-1.38.21-2.65 1.02-3.5 2.2C-.19 6.74-.36 9 .72 10.75c.54.87 1.33 1.5 2.22 1.82-.02 0-.03.01-.05.02-.06.02-.12.04-.18.05-.14.04-.29.09-.44.12-.08.02-.17.03-.26.04q-.21.03-.45.06c-.1 0-.2.01-.3.02-.22 0-.44.01-.68 0H.5c-.04 0-.06.01-.1.01s-.08 0-.12.02c-.04.01-.07.03-.1.04-.03.02-.06.03-.08.05s-.04.05-.05.08c-.01.02-.03.05-.04.07 0 .03-.01.07-.01.1v.1c0 .04.01.08.02.12 0 .04.01.07.02.11s.03.09.05.14c.02.04.03.08.05.13s.05.1.08.15c.03.04.05.09.08.13.03.05.07.1.11.16.03.05.06.09.1.14l.13.16c.04.05.07.09.12.14l.15.15c.04.04.08.09.13.13.05.05.11.1.16.15.05.04.09.08.14.12.06.05.11.09.17.13.05.04.1.08.15.11.06.04.12.08.19.11.05.03.1.06.14.09.07.04.13.06.2.09.04.02.09.04.13.06.07.03.15.05.22.07.04.01.07.03.11.03.11.02.22.04.32.04h1.21c6.1-.65 7.96-4.7 7.98-4.74ZM2 9.96c-.77-1.25-.62-2.83.38-4.24.61-.85 1.55-1.45 2.52-1.59q.405-.06.81-.06c1.09 0 2.09.35 2.88 1.03 1.27 1.09 1.94 2.97 1.94 5.43 0 .16-.11.24-.2.29-.12.06-.3.08-.44-.03-.58-.45-1.25-.73-1.97-.82.38-1.16.02-2.02-.27-2.48C7.07 6.59 5.97 6.05 5 6.2a2.005 2.005 0 0 0-1.68 2.17c.04.41.41.72.83.66.41-.04.71-.42.66-.83-.03-.24.17-.48.42-.52.29-.04.85.15 1.15.62.42.65.08 1.43-.27 1.97-.36.56-.9.93-1.47 1.01-1.04.16-2.05-.35-2.65-1.32Zm13.79 1.53c.3.8.29 1.69-.16 2.43-.75 1.25-2.36 2.08-3.93 2.08H9.32c2.35-1.26 3.71-2.99 4.22-4.14.11-.25.5-.55.71-.67.39-.2.85-.36 1.16-.42.15.22.28.46.38.71Z"/>
</svg>
