<svg viewBox="0 0 40 40" xmlns="http://www.w3.org/2000/svg">
  <path d="m29.96 28.61.22-.51c1.39-3.15 4.23-4.07 6.6-4.11-3.2-6.37 3.23-3.97 3.23-8.13 0-.26-.01-.52-.04-.77 0-.09-.03-.17-.04-.25-.02-.17-.04-.33-.08-.5-.02-.1-.05-.2-.08-.3-.04-.14-.07-.29-.11-.43-.03-.1-.07-.2-.11-.3-.05-.13-.09-.26-.15-.39-.04-.1-.1-.2-.14-.3-.06-.12-.11-.24-.18-.36-.05-.1-.12-.19-.18-.29-.07-.11-.13-.22-.21-.33-.06-.09-.14-.18-.2-.27-.08-.1-.15-.2-.24-.3-.07-.09-.15-.17-.23-.25-.09-.09-.17-.19-.26-.27-.08-.08-.17-.16-.26-.23-.09-.08-.19-.17-.29-.25-.09-.07-.18-.14-.28-.21-.09-.06-.17-.12-.26-.18-1.66-2.8-.64-4.69 2.27-7.8.42-.45.4-1.17-.05-1.59s-1.17-.4-1.59.05c-2.31 2.48-4.28 4.99-3.52 8.2-.08-.01-.16-.03-.24-.04-.13-.02-.26-.03-.4-.04-.12 0-.24-.02-.37-.02-.07 0-.14-.01-.2-.01a7 7 0 0 0-2.24.36c-2.68-3.72-1.31-5.58.23-6.8.49-.39.57-1.09.19-1.58s-1.09-.57-1.58-.19c-2.25 1.77-4.12 4.86-.84 9.62-1.1.82-1.97 1.95-2.52 3.24-.78-1.12-1.61-2-2.4-2.68-3.13-2.68-7.25-3.78-11.63-3.1-3.25.5-6.26 2.4-8.27 5.21C-.3 17.89.46 23.24 2.45 26.47c1.43 2.33 3.57 3.9 5.96 4.51-.31.14-.63.28-.97.41-.05.02-.11.04-.16.06a14 14 0 0 1-2.87.67c-.07 0-.15.01-.23.02-.5.05-1.02.08-1.57.09h-.04c-.32 0-.66-.01-1-.03h-.38c-.06 0-.11 0-.17.01-.06 0-.11.01-.16.02-.05 0-.09.02-.14.03s-.09.03-.13.04c-.04.02-.08.03-.11.05a.4.4 0 0 0-.1.07.6.6 0 0 0-.09.07l-.08.08-.06.09c-.02.03-.04.07-.05.1s-.03.07-.04.1l-.03.12c0 .04-.01.07-.02.11v.26c0 .05 0 .1.02.15 0 .04.01.09.02.13.01.05.02.11.04.16.01.05.02.09.04.14.02.06.04.11.06.17l.06.15c.02.06.05.12.08.18.02.05.05.1.07.16.03.06.06.13.1.19.03.05.06.11.09.16.04.06.07.13.11.19.03.06.07.11.1.17.04.06.08.13.13.19.04.06.08.11.12.17s.09.13.14.2c.04.06.08.12.13.17.05.07.1.13.15.2l.14.17.17.2.14.17c.06.07.12.13.18.19.05.06.1.11.16.17s.12.13.19.19l.16.16c.06.06.13.12.2.18.06.05.11.11.17.16.07.06.13.12.2.18l.18.15c.07.06.14.11.21.17.06.05.12.1.18.14l.21.15c.06.05.13.09.19.14.07.05.15.1.22.14.06.04.13.08.19.12.07.05.15.09.23.13.06.04.13.07.19.11.08.04.15.08.23.12.06.03.13.07.19.1.08.04.15.07.23.1.06.03.12.06.19.08.08.03.16.06.24.08l.18.06c.08.03.17.04.25.07.05.01.11.03.16.04.09.02.18.03.27.04.05 0 .09.02.14.02.13.02.27.02.4.02h6.6C25.84 38.25 28.58 31.89 30 28.59Zm-25.6-3.32c-2.08-3.39-1.71-7.66.99-11.44 1.66-2.32 4.13-3.88 6.78-4.29.72-.11 1.44-.17 2.14-.17 2.9 0 5.57.95 7.68 2.75 3.35 2.87 5.12 7.76 5.12 14.15 0 .85-.64 1.25-.91 1.39-.5.24-1.25.33-1.88-.16a9.26 9.26 0 0 0-5.53-1.96c1.36-3.1.48-5.33-.25-6.47-1.29-2-3.76-3.23-5.87-2.9-2.21.34-3.81 2.4-3.57 4.59.07.62.62 1.07 1.24 1s1.06-.62 1-1.24c-.11-1.01.64-1.97 1.67-2.13 1.05-.16 2.74.51 3.63 1.89 1 1.55.76 3.53-.68 5.74-1.03 1.57-2.56 2.62-4.19 2.87-2.89.45-5.71-.95-7.37-3.64Zm34.1 1.54c1 1.51 1.57 3.28 1.49 5a6.3 6.3 0 0 1-.89 2.98c-1.65 2.73-4.94 4.66-8.35 5.11-.49.06-.98.1-1.47.1h-7.05c6.64-3.05 8.73-7.91 9.84-10.5l.21-.49c1.34-3.03 4.55-2.88 5.91-2.67.1.16.2.31.31.48Z"/>
</svg>
