<svg viewBox="0 0 64 64" xmlns="http://www.w3.org/2000/svg">
  <path d="m48.65 45.19.05-.09c2.31-4.76 7.18-5.68 10.98-5.36-8.3-15.14 4.33-7.31 4.33-14.35q0-.63-.06-1.23c-.01-.14-.04-.27-.06-.4-.04-.27-.07-.53-.13-.79-.03-.16-.08-.32-.12-.47-.06-.23-.11-.46-.18-.68-.05-.16-.12-.32-.18-.48-.08-.21-.15-.42-.24-.62-.07-.16-.15-.32-.23-.48-.09-.19-.18-.38-.28-.57-.09-.16-.19-.31-.28-.46-.11-.18-.21-.35-.33-.53-.1-.15-.22-.29-.33-.44-.12-.16-.24-.33-.38-.48-.12-.14-.25-.27-.37-.41-.14-.15-.27-.3-.42-.44-.13-.13-.27-.25-.41-.37-.15-.13-.3-.27-.46-.4-.14-.12-.29-.22-.44-.33-.16-.12-.33-.24-.5-.35-.1-.07-.21-.13-.31-.19-2.74-4.66-.98-7.92 3.71-12.94.52-.56.49-1.43-.07-1.94-.55-.52-1.42-.49-1.94.07-3.75 4.02-6.91 8.1-5.33 13.36l-.41-.09-.57-.09c-.21-.03-.42-.05-.64-.07l-.59-.03c-.11 0-.22-.02-.33-.02-.21 0-.42 0-.64.02-1.09.06-2.13.28-3.12.63-4.76-6.47-2.17-9.76.27-11.69.6-.47.7-1.34.23-1.93-.47-.6-1.34-.7-1.93-.23-3.49 2.76-6.37 7.58-1.06 15.09-2.15 1.43-3.82 3.57-4.76 6.05-1.28-1.87-2.64-3.32-3.93-4.42-4.9-4.2-11.4-5.93-18.26-4.87-5.08.79-9.8 3.76-12.95 8.16-3.93 5.49-6.45 14.11-1.71 21.81 2.34 3.8 5.86 6.31 9.79 7.16l-.24.12c-.35.17-.71.33-1.08.49-.11.05-.23.09-.34.13-.27.11-.54.21-.82.31-.15.05-.3.1-.46.15-.25.08-.51.16-.77.23-.17.05-.34.09-.51.13-.26.07-.52.13-.79.18-.18.04-.36.07-.54.11-.28.05-.57.1-.86.14-.18.03-.35.05-.53.08-.33.04-.67.07-1.01.1-.15.01-.3.03-.46.04-.5.03-1.02.05-1.55.05-.54 0-1.09-.02-1.66-.05h-.1c-.11 0-.22-.01-.32-.01h-.13c-.09 0-.18 0-.27.02-.09 0-.17.02-.25.04-.08.01-.15.03-.22.05s-.14.04-.21.07c-.06.03-.12.05-.18.08s-.11.07-.17.1c-.05.04-.1.07-.14.11-.05.04-.09.09-.13.14-.04.04-.07.09-.1.14s-.06.11-.09.16c-.02.05-.05.11-.06.16-.02.06-.03.13-.05.19l-.03.18c0 .07 0 .14-.01.22v.2q0 .12.03.24c0 .07.02.14.03.22.02.08.04.17.06.26l.06.23.09.27.09.24c.04.09.08.19.12.29.04.08.07.17.11.25l.15.3c.05.09.09.17.14.26.06.1.12.2.18.31.05.09.11.18.16.27.06.1.13.21.2.31l.18.27c.07.11.15.21.23.32.07.09.13.18.2.27.08.11.16.21.25.32.07.09.14.18.22.27.09.11.18.21.27.32.08.09.15.18.23.27.09.1.19.21.29.31.08.09.16.18.25.27l.3.3c.09.09.17.18.26.26.1.1.21.19.31.29.09.08.18.17.28.25.11.1.22.19.33.28.09.08.19.16.29.24l.33.27c.1.08.19.16.29.23.11.08.23.16.34.25.1.07.2.15.3.22l.35.23c.1.07.2.13.31.2l.36.21.3.18c.12.07.24.13.37.19l.3.15c.12.06.25.11.37.16.1.04.2.09.29.13.13.05.25.09.38.13.1.03.19.07.29.1.13.04.26.07.39.1.09.02.18.05.27.07.14.03.28.05.42.07.08.01.15.03.23.04.21.02.43.04.64.04h4.35c24.18-1.8 30.11-13.99 32.44-18.81Zm-42.03-4.5c-3.43-5.57-2.83-12.59 1.6-18.77 2.72-3.8 6.78-6.37 11.13-7.04 1.18-.18 2.34-.27 3.49-.27 4.74 0 9.11 1.55 12.57 4.51 5.46 4.68 8.34 12.62 8.34 22.97 0 1.6-1.18 2.35-1.69 2.6-.91.45-2.3.6-3.45-.3-2.67-2.07-5.86-3.11-9.26-3.04 2.48-5.09 1.08-8.73-.1-10.55-1.95-3.02-5.8-4.94-8.96-4.44-3.31.51-5.71 3.6-5.35 6.89.08.76.78 1.29 1.52 1.22.76-.08 1.3-.76 1.22-1.52-.2-1.84 1.16-3.58 3.04-3.87 1.86-.29 4.7.84 6.23 3.21 1.18 1.83 1.95 5-1.09 9.65-1.71 2.61-4.26 4.36-7 4.78-4.79.74-9.48-1.57-12.22-6.03Zm57.26 9.43c.07 1.92-.34 3.82-1.39 5.56C59.47 60.67 53.03 64 46.78 64H30.96c13.9-4.66 18.21-13.56 20.17-17.61l.04-.09c2.36-4.87 8.29-3.95 10.29-3.48.02.04.04.07.07.11.91 1.49 1.6 3.09 2 4.73.2.82.32 1.65.35 2.47Z"/>
</svg>
