<svg viewBox="0 0 64 64" xmlns="http://www.w3.org/2000/svg">
  <path d="M64.01 25.39c0-4.3-2.29-8.05-5.71-10.13-2.74-4.66-.98-7.92 3.71-12.94.52-.56.49-1.43-.07-1.94-.55-.52-1.42-.49-1.94.07-3.75 4.02-6.91 8.1-5.34 13.35-.82-.18-1.66-.28-2.53-.28-.21 0-.42 0-.64.02-1.09.06-2.13.28-3.12.63-4.76-6.47-2.17-9.76.27-11.69.6-.47.7-1.34.23-1.93-.47-.6-1.34-.7-1.93-.23-3.49 2.76-6.37 7.58-1.06 15.09-2.15 1.43-3.82 3.57-4.76 6.05-1.28-1.87-2.64-3.32-3.93-4.42-4.9-4.2-11.39-5.93-18.26-4.87-5.08.79-9.8 3.76-12.95 8.16-3.93 5.49-6.45 14.11-1.71 21.81 2.33 3.8 5.85 6.3 9.78 7.15-2.7 1.35-5.87 2.26-9.91 2.26-.58 0-1.17-.02-1.78-.06-.11 0-.22-.01-.32-.01C-4.17 51.48 5.2 64 11.86 64h34.9c6.26 0 12.69-3.33 15.71-8.32 2.4-3.97 1.45-8.79-.96-12.75-11.82-19.4 2.48-10.04 2.48-17.53ZM6.62 40.69C3.2 35.12 3.79 28.1 8.22 21.92c2.72-3.8 6.78-6.37 11.13-7.04 1.18-.18 2.34-.27 3.49-.27 4.74 0 9.11 1.55 12.56 4.51 5.46 4.68 8.34 12.62 8.34 22.97 0 1.6-1.18 2.35-1.69 2.6-.91.45-2.3.6-3.45-.3-2.66-2.07-5.86-3.1-9.25-3.04 2.48-5.09 1.08-8.73-.1-10.55-1.95-3.02-5.8-4.94-8.96-4.44-3.31.51-5.71 3.6-5.35 6.89.08.76.78 1.29 1.52 1.22.76-.08 1.3-.76 1.22-1.52-.2-1.84 1.16-3.58 3.04-3.87 1.86-.28 4.7.84 6.23 3.21 1.18 1.83 1.95 5-1.09 9.65-1.71 2.61-4.26 4.36-7 4.78-4.79.75-9.48-1.57-12.22-6.03Zm-3.5 13.59c.35.01.69.02 1.03.02 6.67 0 11.23-2.2 14.97-4.84.05 0 .1 0 .15-.02 3.23-.5 6.24-2.39 8.36-5.25q.195.03.39 0c3.36-.41 6.35.39 8.89 2.36 1.8 1.4 4.24 1.63 6.35.59 2.03-.99 3.24-2.89 3.24-5.07 0-7.51-1.44-13.08-3.42-17.21.54-4.62 4.17-8.37 8.55-8.6.17 0 .33-.01.5-.01 1.59 0 3.09.41 4.39 1.13.06.04.12.08.18.11 2.72 1.58 4.56 4.52 4.56 7.89 0 .3-.04.45-.05.47-.2.2-1.1.42-1.65.56-1.61.4-4.03 1.01-5.06 3.51-.96 2.35-.29 5.44 2.4 10.48-2.77-.08-6.3.87-8.2 4.68-.54 1.07-.84 2.26-1.16 3.51-1.16 4.55-2.68 10.75-17.25 12.66H11.87c-3.07 0-7.47-4.45-8.75-6.97m57.01-.02c-2.49 4.12-7.99 7-13.36 7h-7.51c7.72-2.61 9.71-7.13 10.94-11.98.28-1.11.55-2.15.95-2.96 2.06-4.11 6.68-3.11 7.45-2.91.19.31.37.62.57.95 1.05 1.72 3.24 6.13.95 9.9Z"/>
</svg>
