<svg viewBox="0 0 24 24" xmlns="http://www.w3.org/2000/svg">
  <path d="M24 9.52c0-1.43-.69-2.69-1.73-3.5-.02-.04-.02-.08-.04-.11-.91-1.45-.64-2.41 1.29-4.44.33-.35.32-.9-.03-1.24s-.91-.32-1.24.03c-1.33 1.41-2.55 2.93-2.2 4.85-.16-.02-.33-.05-.5-.05h-.24c-.38.02-.74.11-1.08.22-1.33-2.02-.64-3.02.25-3.74.38-.3.43-.85.13-1.23a.88.88 0 0 0-1.23-.13C16 1.3 14.85 3.21 16.72 6.15c-.47.42-.84.93-1.11 1.51-.46-.65-.95-1.16-1.42-1.56-1.92-1.64-4.46-2.32-7.14-1.91-2 .31-3.85 1.48-5.09 3.2-1.97 2.77-2.23 6.05-.66 8.59.84 1.36 2.06 2.3 3.44 2.72-.9.37-1.92.62-3.18.62-.22 0-.44 0-.67-.02H.77c-2.33 0 1.19 4.69 3.68 4.69h3.17s.04.01.06.01c.23 0 .43 0 .66-.01h9.2c2.35 0 4.76-1.25 5.89-3.12.9-1.49.6-3.33-.36-4.78-4.05-6.16.93-3.76.93-6.57M2.79 15.07c-1.21-1.96-.99-4.44.59-6.64.97-1.35 2.4-2.26 3.94-2.49.42-.07.84-.1 1.25-.1 1.69 0 3.25.55 4.48 1.6 1.96 1.68 3 4.56 3 8.33 0 .4-.3.59-.43.65-.24.12-.61.16-.92-.07a5.67 5.67 0 0 0-3.15-1.2c.69-1.8.17-3.11-.28-3.8-.82-1.26-2.38-2.04-3.72-1.82-1.43.22-2.46 1.56-2.31 2.97.05.48.47.82.97.77.48-.05.83-.48.77-.97-.05-.49.33-.98.84-1.06.58-.08 1.49.29 1.98 1.04.55.86.41 1.97-.41 3.22-.59.89-1.45 1.49-2.38 1.63-1.65.26-3.27-.55-4.22-2.09Zm-.22 5.96c2.55-.23 4.29-1.32 5.69-2.41.87-.33 1.66-.91 2.28-1.69h.01c1.16-.14 2.19.13 3.07.81.79.61 1.84.71 2.76.26.87-.43 1.42-1.28 1.42-2.22 0-2.41-.39-4.3-.96-5.79V9.9l.01-.06v-.06c0-1.55 1.15-2.87 2.56-2.95h.15c1.45 0 2.64 1.15 2.7 2.63l-.34.17c-.64.3-1.7.81-2.06 2.11-.25.88-.09 1.87.52 3.16-.88.14-1.81.63-2.42 1.85-.22.44-.34.92-.46 1.38-.45 1.79-1.04 4-9.11 4.12H4.47c-.5 0-1.28-.59-1.88-1.21Zm19.36-1.06c-.8 1.32-2.65 2.28-4.39 2.28h-.72c1.49-.99 2.01-2.31 2.36-3.69.1-.41.19-.76.33-1.02.52-1.04 1.4-1 1.83-.9.09.14.17.28.27.43.53.8.89 1.99.33 2.91Z"/>
</svg>
