<svg viewBox="0 0 40 40" xmlns="http://www.w3.org/2000/svg">
  <path d="M40.01 15.87c0-2.58-1.32-4.86-3.33-6.19-1.66-2.79-.63-4.68 2.27-7.79.42-.45.4-1.17-.05-1.59s-1.17-.4-1.59.05c-2.31 2.48-4.28 4.99-3.52 8.2-.39-.06-.8-.11-1.21-.11-.13 0-.27 0-.4.01-.64.03-1.26.15-1.84.35-2.67-3.72-1.31-5.58.23-6.79.49-.39.57-1.09.19-1.58s-1.09-.57-1.58-.19c-2.25 1.77-4.12 4.86-.84 9.62-1.1.82-1.97 1.95-2.51 3.24-.78-1.12-1.61-2-2.4-2.67-3.12-2.68-7.25-3.79-11.63-3.1-3.25.5-6.26 2.4-8.27 5.21C-.3 17.89.46 23.24 2.45 26.47c1.44 2.33 3.57 3.9 5.97 4.51-1.61.74-3.48 1.24-5.82 1.24-.36 0-.73-.01-1.11-.04h-.2c-3.88 0 1.98 7.83 6.14 7.83h21.82c3.91 0 7.93-2.08 9.82-5.2 1.5-2.48 1.01-5.56-.6-7.97-6.61-9.91 1.55-6.28 1.55-10.96ZM4.37 25.29c-2.08-3.39-1.71-7.66.99-11.44 1.66-2.32 4.13-3.88 6.78-4.29.72-.11 1.43-.17 2.14-.17 2.9 0 5.57.95 7.68 2.75 3.35 2.87 5.12 7.76 5.12 14.15 0 .85-.64 1.25-.91 1.39-.5.24-1.25.33-1.88-.16a9.26 9.26 0 0 0-5.53-1.96c1.36-3.1.48-5.33-.25-6.47-1.29-2-3.76-3.23-5.87-2.9-2.21.34-3.81 2.4-3.57 4.59.07.62.62 1.06 1.24 1 .62-.07 1.06-.62 1-1.24-.11-1.01.64-1.97 1.67-2.13 1.05-.16 2.74.51 3.63 1.89 1 1.55.76 3.53-.68 5.74-1.03 1.57-2.56 2.62-4.19 2.87-2.89.45-5.71-.95-7.37-3.64Zm-1.46 9.17c4.37-.07 7.38-1.68 9.77-3.43 1.81-.43 3.48-1.54 4.71-3.14h.15c2.03-.25 3.83.23 5.36 1.42 1.21.94 2.84 1.09 4.25.4 1.34-.66 2.17-1.96 2.17-3.41 0-4.39-.78-7.74-1.89-10.29.13-2.82 2.25-5.17 4.87-5.31h.28c2.85 0 5.17 2.32 5.17 5.17 0 .34 0 .38-1 .9s-2.52 1.32-3 3.2c-.35 1.37-.03 2.98 1.04 5.08-1.58.03-3.45.71-4.59 3-.35.69-.54 1.45-.74 2.25-.84 3.31-1.89 7.44-16.76 7.44H7.42c-1.41 0-3.47-1.84-4.51-3.29Zm34.22-.83c-1.47 2.42-4.71 4.12-7.89 4.12h-2.7c3.39-1.71 4.43-4.23 5.11-6.89.18-.71.34-1.32.57-1.8 1.22-2.43 3.56-1.67 3.84-1.57.06.02.12.02.18.03.12.18.22.36.35.55.99 1.49 1.65 3.73.55 5.56Z"/>
</svg>
