<svg viewBox="0 0 32 32" xmlns="http://www.w3.org/2000/svg">
  <path d="M32 12.7c0-1.99-.98-3.75-2.49-4.83-.01-.02-.01-.04-.02-.06-1.39-2.21-.59-3.67 1.73-6.12A.996.996 0 1 0 29.77.32c-1.79 1.89-3.41 3.94-2.85 6.51-.28-.04-.57-.07-.86-.07h-.32c-.48.03-.93.13-1.37.27-.9-1.23-1.31-2.3-1.21-3.2.09-.74.52-1.41 1.34-2.04.44-.34.51-.97.17-1.4a.99.99 0 0 0-1.4-.17c-1.24.97-1.95 2.11-2.1 3.39-.16 1.36.3 2.8 1.41 4.37-.81.63-1.45 1.46-1.88 2.42-.62-.88-1.28-1.58-1.91-2.12-2.52-2.16-5.86-3.05-9.38-2.51-2.62.41-5.06 1.94-6.68 4.21-3.08 4.31-2.46 8.64-.86 11.25 1.14 1.85 2.81 3.11 4.7 3.63-1.25.55-2.7.92-4.5.92-.29 0-.58 0-.89-.03h-.16c-3.11 0 1.58 6.26 4.91 6.26h17.45c3.13 0 6.35-1.67 7.86-4.16 1.2-1.98.77-4.42-.48-6.38C25.23 12.81 32 16.45 32 12.7M3.58 20.18c-1.64-2.67-1.35-6.05.79-9.04 1.31-1.83 3.27-3.07 5.36-3.39.57-.09 1.14-.13 1.69-.13 2.3 0 4.41.75 6.08 2.18 2.66 2.28 4.06 6.17 4.06 11.25 0 .63-.47.92-.67 1.02-.37.18-.93.25-1.4-.11a7.43 7.43 0 0 0-4.34-1.58c1.02-2.45.32-4.22-.27-5.14-1.05-1.64-3.07-2.63-4.79-2.36-1.82.28-3.13 1.98-2.94 3.79.06.55.56.94 1.1.89a1 1 0 0 0 .89-1.1c-.08-.76.48-1.47 1.26-1.59.8-.13 2.11.4 2.8 1.47.78 1.2.59 2.75-.55 4.48-.81 1.23-2.01 2.06-3.29 2.25-2.28.35-4.49-.75-5.8-2.87Zm-.9 7.58c3.48-.14 5.86-1.48 7.76-2.91 1.35-.39 2.59-1.24 3.52-2.44h.09c1.6-.2 3.01.18 4.22 1.12 1 .78 2.34.9 3.5.33 1.11-.54 1.79-1.62 1.79-2.82 0-3.41-.59-6.03-1.43-8.05.02-2.23 1.68-4.12 3.72-4.23h.21c2.17 0 3.94 1.77 3.94 3.94v.02c-.14.08-.39.18-.57.25-.82.33-2.18.89-2.68 2.46-.38 1.19-.13 2.59.84 4.54-1.24.09-2.64.69-3.52 2.45-.28.57-.44 1.17-.6 1.81-.66 2.58-1.47 5.79-13.29 5.79H5.94c-.7 0-2.32-1.1-3.26-2.24Zm26.85-.95c-1.14 1.88-3.67 3.2-6.14 3.2h-1.68c2.42-1.36 3.19-3.27 3.71-5.3.14-.56.26-1.04.45-1.41.91-1.82 2.61-1.33 2.94-1.2.09.15.17.29.27.45.37.57 1.48 2.57.45 4.27Z"/>
</svg>
