<svg viewBox="0 0 32 32" xmlns="http://www.w3.org/2000/svg">
  <path d="M32.01 12.69c0-.21-.01-.41-.03-.62 0-.07-.02-.13-.03-.2l-.06-.4-.06-.24-.09-.34-.09-.24c-.04-.1-.07-.21-.12-.31l-.12-.24c-.05-.1-.09-.19-.14-.29-.04-.08-.09-.15-.14-.23-.05-.09-.11-.18-.17-.26l-.16-.22c-.06-.08-.12-.16-.19-.24-.06-.07-.12-.14-.18-.2-.07-.07-.14-.15-.21-.22-.07-.06-.14-.13-.21-.19-.07-.07-.15-.13-.23-.2-.07-.06-.15-.11-.22-.17-.01 0-.02-.02-.04-.02-.01-.02-.01-.04-.02-.06-1.39-2.21-.59-3.67 1.73-6.12A.996.996 0 1 0 29.78.31c-1.79 1.89-3.42 3.94-2.85 6.51-.03 0-.06 0-.09-.01-.11-.01-.21-.03-.32-.03-.1 0-.2-.01-.3-.01h-.48c-.48.03-.94.12-1.38.26-.9-1.22-1.3-2.29-1.2-3.18.09-.74.52-1.41 1.34-2.04.44-.34.51-.97.17-1.4a.99.99 0 0 0-1.4-.17c-1.24.97-1.95 2.11-2.1 3.39-.16 1.36.3 2.79 1.4 4.36-.75.59-1.37 1.35-1.8 2.22-.03.06-.05.13-.08.19-.62-.88-1.28-1.57-1.9-2.1-2.52-2.16-5.86-3.05-9.38-2.51C6.79 6.2 4.35 7.73 2.73 10c-3.08 4.29-2.47 8.62-.86 11.23 1.14 1.85 2.81 3.11 4.7 3.62-.2.09-.4.18-.61.26-.04.02-.09.03-.13.05-.32.11-.65.21-1 .29-.07.02-.13.03-.2.05-.35.08-.72.14-1.1.19-.06 0-.12.01-.18.02-.4.04-.82.07-1.26.07h-.03c-.29 0-.58 0-.88-.03h-.16c-.08 0-.13.02-.2.03-.08 0-.17.01-.24.03-.08.02-.13.06-.19.09-.05.03-.11.06-.16.1s-.08.1-.11.15-.06.09-.08.15-.02.13-.03.2c0 .06-.02.12-.01.19 0 .08.03.16.04.25.02.07.02.14.05.22.03.09.07.18.11.28.03.08.06.16.1.25.05.1.11.2.17.3.05.09.09.17.15.26.07.11.14.21.22.32.06.09.12.18.19.27.08.11.17.21.26.32.07.09.14.18.22.27.09.11.2.21.3.31.08.09.16.17.25.26.11.1.22.2.33.29l.27.24c.11.09.23.18.35.27.1.07.19.15.29.21.12.08.25.16.37.23.1.06.19.12.28.17.13.07.27.13.4.19.09.04.18.09.27.13.15.06.3.1.44.14.07.02.15.05.22.07.22.05.43.07.64.07h4.25c10.02-.99 12.24-5.94 13.5-8.74.14-.32.27-.61.4-.86 1.09-2.18 3.78-2.71 5.59-2.81-.73-1.36-1.04-2.3-1.07-2.96-.01-.31.04-.56.13-.77.03-.07.07-.13.11-.19.58-.84 2.02-.85 2.75-1.69.05-.06.1-.12.14-.19.17-.28.28-.63.28-1.1ZM3.57 20.18c-1.64-2.67-1.35-6.05.79-9.04 1.31-1.83 3.27-3.07 5.36-3.39.57-.09 1.14-.13 1.69-.13 2.3 0 4.41.75 6.08 2.18 2.66 2.28 4.06 6.17 4.06 11.25 0 .63-.47.92-.67 1.02-.37.18-.93.25-1.4-.11a7.43 7.43 0 0 0-4.34-1.58c1.02-2.45.32-4.22-.27-5.14-1.05-1.64-3.07-2.63-4.79-2.36-1.82.28-3.14 1.98-2.94 3.79.06.55.56.94 1.1.89a1 1 0 0 0 .89-1.1c-.08-.76.48-1.47 1.26-1.59.81-.13 2.12.4 2.81 1.47.78 1.2.59 2.75-.55 4.48-.81 1.23-2.01 2.06-3.29 2.25-2.28.35-4.49-.75-5.8-2.87Zm28.36 4.49c.11 1.09-.08 2.19-.68 3.17-.19.31-.4.61-.64.9a8.7 8.7 0 0 1-1.68 1.52c-1.59 1.1-3.58 1.75-5.53 1.75h-5.25c4.83-2.28 6.42-5.83 7.36-7.92q.195-.435.36-.78c.79-1.59 3.57-1.78 4.97-1.72.59.96.99 2.02 1.09 3.08"/>
</svg>
