<svg viewBox="0 0 24 24" xmlns="http://www.w3.org/2000/svg">
  <path d="m17.79 17.05.16-.32c.96-1.87 2.81-2.2 4.24-2.13-.08-.15-.17-.31-.23-.44-.38-.79-.5-1.35-.46-1.75s.25-.66.53-.86c.18-.13.4-.23.62-.34.66-.32 1.36-.64 1.36-1.69 0-.31-.03-.62-.1-.91-.02-.1-.06-.19-.09-.28-.05-.19-.1-.39-.18-.57-.05-.11-.11-.2-.17-.31-.08-.15-.16-.31-.26-.46-.07-.1-.16-.19-.24-.29-.11-.13-.2-.26-.32-.37-.09-.09-.2-.16-.3-.24a.6.6 0 0 1-.09-.07c-.02-.04-.02-.08-.04-.12-.91-1.45-.64-2.41 1.29-4.44.33-.35.32-.91-.03-1.24s-.91-.32-1.24.03c-1.33 1.41-2.55 2.94-2.2 4.85-.04 0-.08 0-.12-.01-.13-.01-.25-.04-.38-.04h-.24c-.38.02-.74.11-1.08.22-1.33-2.02-.64-3.02.25-3.74.38-.3.43-.86.13-1.23a.88.88 0 0 0-1.23-.13c-1.38 1.12-2.53 3.04-.66 5.97-.47.42-.84.93-1.11 1.51-.46-.65-.95-1.16-1.42-1.56-1.92-1.64-4.46-2.32-7.14-1.91-2 .31-3.86 1.48-5.09 3.2-1.97 2.78-2.22 6.06-.65 8.61.84 1.36 2.07 2.3 3.45 2.72-.13.05-.26.12-.4.17-.09.03-.18.05-.27.08-.21.07-.43.13-.67.18-.12.03-.25.04-.38.07-.22.04-.44.07-.67.09-.15.01-.3.02-.45.02-.33.01-.66.02-1.02 0H.77c-.06 0-.1.02-.15.02-.06 0-.13.01-.18.03-.06.02-.1.04-.14.07-.04.02-.09.04-.12.07s-.06.07-.08.11-.05.07-.06.11c-.01.05-.02.1-.02.15s-.01.09 0 .14c0 .06.02.12.03.18s.02.11.04.17c.02.07.05.14.08.21.03.06.05.12.08.19.04.07.08.15.12.23.04.07.07.13.11.2.05.08.11.16.16.23s.09.14.15.21c.06.08.13.16.19.24.06.07.11.14.17.21.07.08.15.15.22.23.06.07.13.13.19.2.08.07.16.14.24.22.07.06.14.13.21.18l.26.2c.07.05.14.11.21.16.09.06.19.12.28.17.07.04.14.09.22.13.1.05.2.1.3.14.07.03.14.07.2.1.11.04.22.07.33.1.06.02.11.04.17.05.16.03.33.05.48.05h2.23c8-.81 10.15-5.03 11.11-6.95Zm-15-1.98c-1.21-1.96-.99-4.44.59-6.64.97-1.35 2.4-2.26 3.94-2.49.42-.07.84-.1 1.25-.1 1.69 0 3.25.55 4.48 1.61 1.96 1.68 3 4.57 3 8.34 0 .4-.3.59-.43.65-.24.12-.61.16-.92-.07a5.67 5.67 0 0 0-3.15-1.2c.69-1.8.17-3.12-.28-3.8-.82-1.27-2.38-2.04-3.72-1.83-1.43.22-2.46 1.56-2.31 2.98.05.48.47.82.97.77a.87.87 0 0 0 .77-.97c-.05-.49.33-.98.84-1.06.58-.08 1.49.29 1.98 1.04.55.86.41 1.97-.41 3.23-.59.9-1.45 1.49-2.38 1.63-1.65.26-3.27-.55-4.22-2.09m20.52 1.45c.44.81.7 1.7.66 2.58-.03.62-.2 1.23-.53 1.78-1.13 1.87-3.55 3.12-5.89 3.12h-4.1c3.76-1.87 5.16-4.65 5.92-6.16l.15-.3c.82-1.58 3.06-1.2 3.81-1.02Z"/>
</svg>
