<svg viewBox="0 0 24 24" xmlns="http://www.w3.org/2000/svg">
  <path fill="none" d="M.02 0h24v24h-24z"/>
  <path fill="#010101" d="M12.2 4.17h-.3c-.69 0-3 .2-4.08 2.66-.34.79-.3 2.02-.25 3.05a.4.4 0 0 1-.2-.1c-.15-.05-.3-.1-.44-.1-.49 0-1.08.34-1.23.89-.05.34 0 .93 1.03 1.33.05.05.15.05.25.1s.39.15.49.2c0 0 0 .05-.05.1s-.84 1.87-2.56 2.16c-.39.05-.69.44-.69.84 0 .1.05.2.05.3.2.49.84 1.13 2.02 1.33.05.1.05.25.1.39.1.39.44.64.84.64.15 0 .3-.05.44-.05.2-.05.39-.1.69-.1.15 0 .3 0 .49.05.25.05.54.25.84.44.54.39 1.23.89 2.31.89h.2c1.08 0 1.77-.49 2.31-.89.3-.25.59-.39.84-.44.15-.05.34-.05.49-.05.25 0 .44.05.69.1.2.05.3.05.44.05.39 0 .74-.25.84-.64.05-.15.05-.25.1-.39 1.18-.2 1.77-.54 2.02-1.03.05-.1.05-.2.05-.3 0-.39-.25-1.08-.69-1.13-1.72-.3-2.56-2.16-2.56-2.16l-.05-.1c.1-.1.39-.2.49-.2.1-.05.2-.05.25-.1.89-.34 1.08-.84 1.08-1.18 0-.44-.3-.84-.79-.98-.15-.05-.3-.1-.49-.1-.15 0-.3 0-.49.1-.05 0-.1.05-.15.05.05-1.03.1-2.21-.25-3-1.08-2.46-3.39-2.61-4.08-2.61Z"/>
</svg>
