<svg viewBox="0 0 40 40" xmlns="http://www.w3.org/2000/svg">
  <path d="M18.88 4.52V1.13C18.88.51 19.38 0 20 0s1.12.5 1.12 1.13v3.39c0 .62-.5 1.13-1.12 1.13s-1.12-.5-1.12-1.13M3.43 18.78h3.39c.62 0 1.12-.5 1.12-1.13s-.5-1.13-1.12-1.13H3.43c-.62 0-1.12.5-1.12 1.13s.5 1.13 1.12 1.13m28.58-1.08c0 .62.5 1.13 1.12 1.13h3.39c.62 0 1.12-.5 1.12-1.13s-.5-1.13-1.12-1.13h-3.39c-.62 0-1.12.5-1.12 1.13M10.25 9.42c.22.22.51.33.8.33s.58-.11.8-.33c.44-.44.44-1.15 0-1.59l-2.4-2.4c-.44-.44-1.15-.44-1.59 0s-.44 1.15 0 1.59l2.4 2.4Zm18.69.36c.29 0 .58-.11.8-.33l2.4-2.4c.44-.44.44-1.15 0-1.59s-1.15-.44-1.59 0l-2.4 2.4a1.123 1.123 0 0 0 .8 1.92Zm-16.73 9.86c.62 0 1.12-.5 1.12-1.13 0-3.66 2.98-6.64 6.64-6.64s6.64 2.98 6.64 6.64c0 .62.5 1.13 1.12 1.13s1.12-.5 1.12-1.13c0-4.9-3.99-8.89-8.89-8.89s-8.89 3.99-8.89 8.89c0 .62.5 1.13 1.12 1.13ZM31.08 40H0l5-17.65h30.01l5 17.65h-8.92Zm-3.27-15.4 1.16 5.45h5.87L33.3 24.6zm-6.69 0v5.45h5.54L25.5 24.6h-4.39Zm-6.63 0-1.16 5.45h5.54V24.6h-4.39Zm-7.79 0-1.54 5.45h5.87l1.16-5.45zm2.69 13.15 1.16-5.45H4.52l-1.54 5.45H9.4Zm9.49 0V32.3h-6.02l-1.16 5.45zm9.43 0-1.16-5.45h-6.02v5.45zm2.3 0h6.42l-1.54-5.45h-6.03l1.16 5.45Z"/>
</svg>
