<svg viewBox="0 0 64 64" xmlns="http://www.w3.org/2000/svg">
  <path d="M30.63 6.97V1.39c0-.76.62-1.38 1.38-1.38s1.38.62 1.38 1.38v5.58c0 .76-.62 1.38-1.38 1.38s-1.38-.62-1.38-1.38m-25.9 23h5.58c.76 0 1.38-.62 1.38-1.38s-.62-1.38-1.38-1.38H4.73c-.76 0-1.38.62-1.38 1.38s.62 1.38 1.38 1.38m48.89.08h5.58c.76 0 1.38-.62 1.38-1.38s-.62-1.38-1.38-1.38h-5.58c-.76 0-1.38.62-1.38 1.38s.62 1.38 1.38 1.38M16.29 14.7c.27.27.62.4.97.4s.7-.13.97-.4c.54-.54.54-1.41 0-1.95L14.28 8.8c-.54-.54-1.41-.54-1.95 0s-.54 1.41 0 1.95l3.95 3.95Zm30.43.46c.35 0 .7-.13.97-.4l3.95-3.95c.54-.54.54-1.41 0-1.95s-1.41-.54-1.95 0l-3.95 3.95a1.376 1.376 0 0 0 .97 2.35ZM19.18 31.38c.76 0 1.38-.62 1.38-1.38 0-6.29 5.12-11.41 11.4-11.41s11.4 5.12 11.4 11.41c0 .76.62 1.38 1.38 1.38s1.38-.62 1.38-1.38c0-7.81-6.35-14.16-14.15-14.16S17.82 22.19 17.82 30c0 .76.62 1.38 1.38 1.38ZM64 64.01H0l8-28.25h48zm-19.55-25.5 2.12 10h10.18l-2.83-10zm-2.81 0h-8.3v10h10.43l-2.12-10Zm-19.28 0-2.12 10h10.35v-10zm-15.11 10h10.18l2.12-10h-9.47zm7.47 12.75 2.12-10H6.47l-2.83 10zm2.81 0h13.06v-10H19.66l-2.12 10Zm28.94 0-2.12-10H33.34v10h13.14Zm13.89 0-2.83-10H47.16l2.12 10z"/>
</svg>
