<svg viewBox="0 0 32 32" xmlns="http://www.w3.org/2000/svg">
  <path d="M15.02 3.59V1.03c0-.55.45-1 1-1s1 .45 1 1v2.56c0 .55-.45 1-1 1s-1-.45-1-1M7.78 7.4c.2.2.45.29.71.29s.51-.1.71-.29a.996.996 0 0 0 0-1.41L7.39 4.18a.996.996 0 1 0-1.41 1.41L7.79 7.4Zm-4.99 7.8h2.56c.55 0 1-.45 1-1s-.45-1-1-1H2.79c-.55 0-1 .45-1 1s.45 1 1 1m22.85-.96c0 .55.45 1 1 1h2.56c.55 0 1-.45 1-1s-.45-1-1-1h-2.56c-.55 0-1 .45-1 1m-2.1-6.52c.26 0 .51-.1.71-.29l1.81-1.81a.996.996 0 1 0-1.41-1.41l-1.81 1.81a.996.996 0 0 0 .71 1.7Zm-12.53 7.5h9.97c.55 0 1-.45 1-1 0-3.3-2.69-5.98-5.99-5.98S10 10.92 10 14.22c0 .55.45 1 1 1Zm-1.69 9.59h5.7v-5.22h-4.59zm7.7-5.22v5.22h5.66l-1.11-5.22h-4.54Zm-13.49 0-1.48 5.22h5.23l1.11-5.22zm24.94 0h-4.86l1.11 5.22h5.23zM0 32.03h5.74l1.11-5.22H1.48zm30.52-5.22h-5.37l1.11 5.22H32zm-13.5 0v5.22h7.19l-1.11-5.22zm-9.23 5.22h7.23v-5.22H8.9z"/>
</svg>
