<svg viewBox="0 0 64 64" xmlns="http://www.w3.org/2000/svg">
  <path d="M30.63 6.99V1.41c0-.76.61-1.37 1.37-1.37s1.37.61 1.37 1.37v5.58c0 .76-.61 1.37-1.37 1.37s-1.37-.61-1.37-1.37M4.74 29.97h5.58c.76 0 1.37-.61 1.37-1.37s-.61-1.37-1.37-1.37H4.74c-.76 0-1.37.61-1.37 1.37s.61 1.37 1.37 1.37m48.86.08h5.58a1.374 1.374 0 0 0 0-2.75H53.6a1.374 1.374 0 0 0 0 2.75M16.29 14.71c.27.27.62.4.97.4s.7-.13.97-.4c.54-.54.54-1.41 0-1.94l-3.94-3.94c-.54-.54-1.41-.54-1.94 0-.54.54-.54 1.41 0 1.94zm30.42.46c.35 0 .7-.13.97-.4l3.94-3.94c.54-.54.54-1.41 0-1.94-.54-.54-1.41-.54-1.94 0l-3.94 3.94c-.54.54-.54 1.41 0 1.94.27.27.62.4.97.4M19.19 31.38h25.55c.76 0 1.37-.61 1.37-1.37 0-7.8-6.35-14.15-14.15-14.15s-14.15 6.35-14.15 14.15c0 .76.61 1.37 1.37 1.37Zm26.61 6.7 2.46 11.6h11.67l-3.29-11.6H45.79ZM4.07 49.68h11.67l2.46-11.6H7.35l-3.29 11.6Zm29.26-11.6v11.6h12.12l-2.46-11.6zm-14.78 11.6h12.04v-11.6h-9.57l-2.46 11.6ZM0 64.04h12.69l2.46-11.6H3.29zm60.71-11.61H48.84l2.46 11.6h12.69l-3.29-11.6Zm-27.38 0v11.6H48.5l-2.46-11.6zM15.5 64.04h15.09v-11.6H17.97l-2.46 11.6Z"/>
</svg>
