<svg viewBox="0 0 48 48" xmlns="http://www.w3.org/2000/svg">
  <path d="M22.75 5.36v-4.1C22.75.57 23.31 0 24 0s1.25.56 1.25 1.25v4.11a1.25 1.25 0 0 1-2.5 0M3.92 22.52h4.11a1.25 1.25 0 0 0 0-2.5H3.92a1.25 1.25 0 0 0 0 2.5m35.99.05h4.11a1.25 1.25 0 0 0 0-2.5h-4.11a1.25 1.25 0 0 0 0 2.5M12.26 11.22c.24.24.56.37.88.37s.64-.12.88-.37c.49-.49.49-1.28 0-1.77l-2.91-2.9c-.49-.49-1.28-.49-1.77 0s-.49 1.28 0 1.77l2.91 2.9Zm22.58.41c.32 0 .64-.12.88-.37l2.91-2.9c.49-.49.49-1.28 0-1.77s-1.28-.49-1.77 0l-2.91 2.9a1.25 1.25 0 0 0 0 1.77c.24.24.56.37.88.37ZM14.56 23.56h18.82c.69 0 1.25-.56 1.25-1.25 0-5.87-4.78-10.65-10.66-10.65s-10.66 4.78-10.66 10.65c0 .69.56 1.25 1.25 1.25m31.09 16.15h-8.7L38.71 48h9.28l-2.35-8.29Zm-20.43 0V48h10.94l-1.76-8.29zm-13.38 8.3h10.88v-8.29h-9.11l-1.76 8.29Zm30.75-19.09h-7.93l1.76 8.29h8.52zm-28.45 8.29h8.58v-8.29H15.9zM0 48.01h9.28l1.76-8.29H2.35zm25.22-19.09v8.29h8.65l-1.76-8.29h-6.88Zm-19.81 0-2.35 8.29h8.52l1.76-8.29z"/>
</svg>
