<svg viewBox="0 0 32 32" xmlns="http://www.w3.org/2000/svg">
  <path d="M15.02 3.57V1.01c0-.56.45-1.01 1-1.01s1 .45 1 1v2.57c0 .55-.45 1-1 1s-1-.45-1-1M7.78 7.39c.2.2.45.29.71.29s.51-.1.71-.29a.996.996 0 0 0 0-1.41L7.39 4.17a.996.996 0 1 0-1.41 1.41l1.81 1.81ZM2.79 15.2h2.56c.55 0 1-.45 1-1s-.45-1-1-1H2.79c-.55 0-1 .45-1 1s.45 1 1 1m22.85-.96c0 .55.45 1 1 1h2.56c.55 0 1-.45 1-1s-.45-1-1-1h-2.56c-.55 0-1 .45-1 1m-2.1-6.54c.26 0 .51-.1.71-.29l1.81-1.81a.996.996 0 1 0-1.41-1.41L22.84 6a.996.996 0 0 0 .71 1.7Zm-12.53 7.52c.55 0 1-.45 1-1 0-2.2 1.79-3.99 3.99-3.99s3.99 1.79 3.99 3.99c0 .55.45 1 1 1s1-.45 1-1c0-3.3-2.68-5.99-5.99-5.99s-5.99 2.69-5.99 5.99c0 .55.45 1 1 1M32 32.01H0l4-14.13h24zm-9.41-12.13.86 4.06h4.18l-1.15-4.06h-3.9Zm-2.04 0h-3.53v4.06h4.39zm-9.1 0-.86 4.06h4.43v-4.06zm-5.94 0-1.15 4.06h4.18l.86-4.06H5.5Zm1.75 10.13.86-4.06H3.8l-1.15 4.06zm2.04 0h5.72v-4.06h-4.85l-.86 4.06Zm13.4 0-.86-4.06h-4.82v4.06zm6.65 0-1.15-4.06h-4.33l.86 4.06h4.61Z"/>
</svg>
