<svg viewBox="0 0 32 32" xmlns="http://www.w3.org/2000/svg">
  <path fill="#1e1e1c" d="M25.47 18.94c-1.92 0-3.64.83-4.83 2.15l-7.7-3.85c.08-.4.12-.82.12-1.24s-.04-.84-.12-1.24l7.69-3.85c1.2 1.32 2.92 2.16 4.83 2.16 3.6 0 6.53-2.93 6.53-6.53S29.06 0 25.46 0s-6.53 2.93-6.53 6.53c0 .42.04.84.12 1.24l-7.69 3.85c-1.2-1.32-2.92-2.16-4.83-2.16C2.93 9.47 0 12.4 0 16s2.93 6.53 6.53 6.53c1.92 0 3.64-.83 4.83-2.15l7.7 3.85c-.08.4-.12.82-.12 1.24 0 3.6 2.93 6.53 6.53 6.53S32 29.07 32 25.47s-2.93-6.53-6.53-6.53m-.01-15.43c1.67 0 3.02 1.36 3.02 3.02s-1.36 3.02-3.02 3.02-3.02-1.36-3.02-3.02 1.36-3.02 3.02-3.02M6.53 19.02c-1.67 0-3.02-1.36-3.02-3.02s1.36-3.02 3.02-3.02S9.55 14.34 9.55 16s-1.36 3.02-3.02 3.02m18.94 9.47c-1.67 0-3.02-1.36-3.02-3.02s1.36-3.02 3.02-3.02 3.02 1.36 3.02 3.02-1.36 3.02-3.02 3.02"/>
</svg>
