<svg viewBox="0 0 24 24" xmlns="http://www.w3.org/2000/svg">
  <path fill="#1e1e1c" d="M19.42 14.83c-1.48 0-2.78.71-3.61 1.8l-6.83-3.41c.11-.39.19-.79.19-1.22s-.08-.83-.19-1.22l6.83-3.41c.84 1.09 2.14 1.8 3.61 1.8 2.53 0 4.58-2.06 4.58-4.58S21.95 0 19.42 0s-4.58 2.06-4.58 4.58c0 .42.08.83.19 1.22L8.2 9.21c-.84-1.09-2.14-1.8-3.61-1.8C2.06 7.42 0 9.47 0 12s2.05 4.58 4.58 4.58c1.47 0 2.77-.71 3.61-1.8l6.83 3.41c-.11.39-.19.79-.19 1.22a4.58 4.58 0 1 0 4.58-4.58Zm0-13.08c1.56 0 2.83 1.27 2.83 2.83s-1.27 2.83-2.83 2.83-2.83-1.27-2.83-2.83 1.27-2.83 2.83-2.83M4.58 14.83c-1.56 0-2.83-1.27-2.83-2.83s1.27-2.83 2.83-2.83S7.41 10.44 7.41 12s-1.27 2.83-2.83 2.83m14.84 7.42c-1.56 0-2.83-1.27-2.83-2.83s1.27-2.83 2.83-2.83 2.83 1.27 2.83 2.83-1.27 2.83-2.83 2.83"/>
</svg>
