<svg viewBox="0 0 64 64" xmlns="http://www.w3.org/2000/svg">
  <path fill="#1e1e1c" d="M51.6 39.21c-3.94 0-7.45 1.86-9.72 4.74l-17.53-8.77c.27-1.02.43-2.08.43-3.19s-.16-2.17-.43-3.18l17.53-8.76c2.27 2.88 5.78 4.74 9.72 4.74 6.83 0 12.39-5.56 12.39-12.39S58.43 0 51.6 0 39.21 5.56 39.21 12.4c0 1.1.16 2.17.43 3.18l-17.53 8.76c-2.27-2.88-5.78-4.74-9.73-4.74C5.55 19.6 0 25.16 0 32s5.56 12.39 12.39 12.39c3.94 0 7.45-1.86 9.72-4.74l17.53 8.77c-.27 1.02-.43 2.08-.43 3.19 0 6.83 5.56 12.4 12.39 12.4s12.39-5.56 12.39-12.4-5.56-12.39-12.39-12.39Zm0-34.2c4.08 0 7.39 3.32 7.39 7.39s-3.32 7.39-7.39 7.39-7.39-3.32-7.39-7.39 3.32-7.39 7.39-7.39M12.39 39.39C8.31 39.39 5 36.07 5 32s3.32-7.39 7.39-7.39 7.39 3.32 7.39 7.39-3.32 7.39-7.39 7.39M51.6 59c-4.08 0-7.39-3.32-7.39-7.39s3.32-7.39 7.39-7.39 7.39 3.32 7.39 7.39S55.67 59 51.6 59"/>
</svg>
