<svg viewBox="0 0 40 40" xmlns="http://www.w3.org/2000/svg">
  <path fill="#1e1e1c" d="M3.61 10.36C1.61 10.36 0 11.99 0 14v11.99c0 2.01 1.62 3.64 3.62 3.64h5.56l12.79 10.36V0L9.21 10.36zM2.24 26V14.01c0-.76.62-1.38 1.37-1.38h4.86v14.76H3.61c-.76 0-1.37-.62-1.37-1.38Zm17.47 9.28-9-7.29V12.03l9-7.3zm5.46-7.74v-2.26c2.5 0 4.53-2.05 4.53-4.57s-2.03-4.56-4.53-4.56v-2.26c3.74 0 6.78 3.06 6.78 6.83s-3.04 6.83-6.78 6.83Zm14.82-6.82c0 8.23-6.65 14.93-14.83 14.93v-2.26c6.94 0 12.58-5.68 12.58-12.67S32.1 8.05 25.16 8.05V5.79c8.17 0 14.83 6.7 14.83 14.93"/>
</svg>
