<svg viewBox="0 0 64 64" xmlns="http://www.w3.org/2000/svg">
  <path fill="#1e1e1c" d="M4.9 16.51c-2.69 0-4.88 2.19-4.88 4.88v21.1c0 2.69 2.19 4.88 4.88 4.88h10.07l20.61 16.57v-64L15.01 16.51zM2.77 42.49v-21.1c0-1.17.95-2.13 2.13-2.13h9.22v25.36H4.9c-1.17 0-2.13-.95-2.13-2.13M32.83 58.2 16.87 45.37V18.55L32.83 5.7v52.51Zm7.65-14.53v-2.75c4.29 0 7.77-3.49 7.77-7.77s-3.49-7.77-7.77-7.77v-2.75c5.8 0 10.53 4.72 10.53 10.52s-4.72 10.52-10.53 10.52m23.54-10.52c0 12.97-10.56 23.53-23.54 23.53v-2.75c11.46 0 20.79-9.32 20.79-20.78s-9.33-20.78-20.79-20.78V9.62c12.98 0 23.54 10.55 23.54 23.53"/>
</svg>
