<svg viewBox="0 0 64 64" xmlns="http://www.w3.org/2000/svg">
  <path fill="#1e1e1c" d="M40.47 43.67v-2.75c4.29 0 7.77-3.49 7.77-7.77s-3.49-7.77-7.77-7.77v-2.75c5.8 0 10.53 4.72 10.53 10.52s-4.72 10.52-10.53 10.52m-.69-10.52a5.76 5.76 0 0 1-4.2 5.54v25.25L14.97 47.37H4.89c-2.69 0-4.87-2.19-4.87-4.88v-21.1c0-2.69 2.19-4.88 4.88-4.88h10.11L35.58-.06V27.6c2.42.68 4.2 2.91 4.2 5.54ZM4.89 44.62h9.22V19.26H4.89c-1.17 0-2.13.95-2.13 2.13v21.1c0 1.17.95 2.13 2.13 2.13M32.82 5.69 16.86 18.54v26.82l15.96 12.83zm4.21 27.46c0-1.09-.58-2.03-1.45-2.56v5.13c.87-.53 1.45-1.48 1.45-2.56Z"/>
</svg>
