<svg viewBox="0 0 32 32" xmlns="http://www.w3.org/2000/svg">
  <path fill="#1e1e1c" d="M3 8.29c-1.66 0-3 1.34-3 3v9.42c0 1.65 1.35 3 3 3h4.36L17.67 32V0L7.38 8.29zM2 20.71v-9.42c0-.55.45-1 1-1h3.73v11.42H3c-.55 0-1-.45-1-1m13.66 7.11-6.93-5.58V9.76l6.93-5.58zm4.45-5.76v-2c1.93 0 3.49-1.57 3.49-3.49s-1.57-3.49-3.49-3.49v-2c3.03 0 5.5 2.46 5.5 5.49s-2.47 5.49-5.5 5.49m11.88-5.49c0 6.55-5.33 11.88-11.89 11.88v-2c5.45 0 9.89-4.43 9.89-9.88s-4.43-9.88-9.89-9.88v-2c6.56 0 11.89 5.33 11.89 11.88"/>
</svg>
