<svg viewBox="0 0 32 32" xmlns="http://www.w3.org/2000/svg">
  <path fill="#1e1e1c" d="M8.21 7.61 17.16 0v32l-8.95-7.6zm-8.2 3.2v10.37c0 1.37 1.12 2.49 2.5 2.49h3.7V8.32h-3.7c-1.38.01-2.5 1.12-2.5 2.49m31.47 8.91L27.6 16l3.87-3.72c.7-.67.71-1.77.04-2.46a1.75 1.75 0 0 0-2.47-.04l-3.96 3.81-3.52-3.39a1.75 1.75 0 0 0-2.47.04c-.67.69-.65 1.79.04 2.46l3.43 3.3-3.43 3.3c-.7.67-.71 1.77-.04 2.46.34.35.8.53 1.26.53s.88-.16 1.22-.49l3.52-3.39 3.96 3.81c.34.33.78.49 1.21.49s.92-.18 1.26-.53c.67-.69.65-1.79-.04-2.46"/>
</svg>
