<svg viewBox="0 0 16 16" xmlns="http://www.w3.org/2000/svg">
  <path fill="#1e1e1c" d="M1.75 4.15C.78 4.15 0 4.93 0 5.9v4.21c0 .96.79 1.75 1.75 1.75h1.84l5.16 4.15V0L3.6 4.15zM1.5 10.1V5.89c0-.14.11-.25.25-.25h1.51v4.71H1.75c-.14 0-.25-.11-.25-.25m5.75 2.77-2.49-2V5.14l2.49-2zm2.73-1.68v-1.5c.78 0 1.42-.64 1.42-1.42s-.64-1.42-1.42-1.42v-1.5c1.61 0 2.92 1.31 2.92 2.92s-1.31 2.92-2.92 2.92M16 8.27c0 3.31-2.7 6-6.01 6v-1.5c2.49 0 4.51-2.02 4.51-4.5s-2.02-4.5-4.51-4.5v-1.5c3.32 0 6.01 2.69 6.01 6"/>
</svg>
