<svg viewBox="0 0 24 24" xmlns="http://www.w3.org/2000/svg">
  <path fill="#1e1e1c" d="M2.38 6.2A2.38 2.38 0 0 0 0 8.58v6.82c0 1.31 1.07 2.37 2.38 2.37h3.11l7.75 6.22v-24L5.51 6.21H2.39Zm-.63 9.19V8.57c0-.34.28-.62.63-.62H4.9v8.07H2.38c-.35 0-.63-.28-.63-.62Zm9.73 4.94-4.83-3.87V7.52l4.83-3.88zm3.56-3.71v-1.75c1.35 0 2.46-1.1 2.46-2.45s-1.1-2.45-2.46-2.45V8.22c2.32 0 4.21 1.88 4.21 4.2s-1.89 4.2-4.21 4.2m8.96-4.2c0 4.92-4.02 8.93-8.95 8.93V19.6c3.97 0 7.2-3.22 7.2-7.18s-3.23-7.18-7.2-7.18V3.49c4.94 0 8.95 4 8.95 8.93"/>
</svg>
