<svg viewBox="0 0 48 48" xmlns="http://www.w3.org/2000/svg">
  <path fill="#1e1e1c" d="M4.15 12.44c-2.34 0-4.25 1.9-4.25 4.25v14.63c0 2.35 1.9 4.25 4.24 4.25H11L26.42 48V0L11.03 12.43H4.14ZM2.4 31.32V16.69c0-.97.78-1.75 1.75-1.75h6.08v18.13H4.15c-.96 0-1.75-.79-1.75-1.75m21.53 11.46-11.2-9.03V14.29l11.2-9.05zm6.27-9.86v-2.5c3.06 0 5.54-2.49 5.54-5.56s-2.49-5.55-5.54-5.55v-2.5c4.43 0 8.04 3.61 8.04 8.06s-3.61 8.06-8.04 8.06Zm17.7-8.06c0 9.78-7.94 17.74-17.7 17.74v-2.5c8.38 0 15.2-6.84 15.2-15.24S38.58 9.62 30.2 9.62v-2.5c9.76 0 17.7 7.96 17.7 17.74"/>
</svg>
