<svg viewBox="0 0 32 32" xmlns="http://www.w3.org/2000/svg">
  <path d="M10.36 2.88c.13-1.62 1.42-2.52 1.67-2.69.82-.52 1.9-.28 2.42.54.51.81.29 1.88-.5 2.41l-.01.01c.05.05.11.12.2.21 1.23 1.1 1.48 2.26 1.46 3.03-.03 1.71-1.27 2.81-1.51 3.01a1.74 1.74 0 0 1-2.47-.25c-.61-.75-.5-1.86.24-2.48.09-.08.22-.27.23-.35 0 0-.05-.12-.28-.33-1.31-1.17-1.51-2.34-1.45-3.12ZM17.59 6c.23.21.28.33.28.33 0 .08-.14.27-.23.35-.75.62-.86 1.73-.24 2.48.35.42.85.65 1.36.65.39 0 .78-.13 1.11-.4.25-.2 1.48-1.3 1.51-3.01.01-.78-.23-1.93-1.46-3.03-.09-.08-.16-.15-.2-.21l.01-.01c.79-.53 1.02-1.6.5-2.41A1.75 1.75 0 0 0 17.81.2c-.26.16-1.54 1.07-1.67 2.69-.06.78.14 1.95 1.45 3.12Zm14.37 10.94h.02l-.42 5.9-.52.47c-.53.48-1.16.93-1.87 1.33-1.24 2.9-4.48 7.27-12.75 7.27-7.77 0-11.06-3.5-12.45-6.83-.63-.3-1.23-.62-1.77-.98l-.69-.46-.65-6.66h.01c-.01-.1-.04-.19-.04-.29 0-1.64 1.79-3.12 4.66-4.19L.43 6.7c-.64-.73-.56-1.84.16-2.49.73-.64 1.84-.57 2.47.16l6.2 7.11c2.14-.42 4.57-.66 7.15-.66 8.6 0 15.58 2.63 15.58 5.87 0 .08-.02.16-.03.24Zm-3.75 3.59c-2.86 1.25-7.07 2.04-11.79 2.04s-8.83-.77-11.68-2l.1 1.03c2.62 1.47 6.54 2.27 11.17 2.27 6.17 0 10.22-1.36 12.16-2.75zM4.82 16.7c1.53 1.01 5.59 2.35 11.6 2.35s10.06-1.34 11.6-2.35c-1.53-1.01-5.59-2.35-11.6-2.35-1.62 0-3.1.1-4.42.26l.08.09c.64.73.56 1.84-.16 2.49a1.74 1.74 0 0 1-2.47-.16l-1.43-1.64c-1.47.41-2.55.89-3.19 1.31Z"/>
</svg>
