<svg viewBox="0 0 16 16" xmlns="http://www.w3.org/2000/svg">
  <path d="M15.99 8.17c0-1.59-3.43-2.88-7.67-2.88-1.54 0-2.96.17-4.16.46L1.31 2.51a.756.756 0 0 0-1.06-.07c-.31.27-.34.75-.07 1.06L2.6 6.27C1.39 6.78.65 7.45.65 8.18c0 .17.05.34.12.5l.32 2.84.29.19c.12.08.26.15.39.23h-.02C2.32 13.79 3.92 16 8.32 16c4.93 0 6.37-3.05 6.76-4.39.13-.09.26-.18.36-.28l.22-.2.25-2.55c.05-.13.09-.27.09-.41ZM8.12 11.8c-2.33 0-4.3-.41-5.61-1.16l-.07-.62c1.41.63 3.52 1.03 5.89 1.03s4.53-.41 5.94-1.06l-.04.4c-.95.71-2.99 1.41-6.1 1.41ZM3.66 7.47l.9 1.03c.15.17.36.26.57.26.18 0 .35-.06.49-.19.31-.27.34-.75.07-1.06l-.4-.45c.85-.15 1.85-.26 3.02-.26 3.46 0 5.54.88 6.08 1.37-.54.5-2.62 1.37-6.08 1.37s-5.54-.88-6.08-1.37c.22-.2.7-.46 1.42-.71Zm4.66 7.03c-2.12 0-3.62-.58-4.49-1.73 1.25.35 2.7.53 4.29.53 1.8 0 3.44-.24 4.78-.65-.74.96-2.1 1.85-4.57 1.85ZM6.18 2.79c-.61-.55-.71-1.08-.68-1.44.06-.76.7-1.19.78-1.24.35-.22.81-.12 1.04.23.22.35.12.8-.22 1.03-.04.03-.09.08-.1.11 0-.02.05.07.18.19.58.51.69 1.05.68 1.41-.02.81-.64 1.34-.71 1.39-.14.11-.31.17-.48.17-.22 0-.43-.09-.58-.27a.76.76 0 0 1 .1-1.06c.06-.05.16-.19.16-.26 0-.04-.05-.13-.18-.25Zm2.37 0c-.61-.54-.71-1.08-.68-1.44.06-.76.7-1.19.78-1.24.35-.22.81-.12 1.04.23.22.35.12.8-.22 1.03-.04.03-.09.08-.1.11.01 0 .06.08.18.19.58.51.69 1.05.68 1.41-.02.81-.64 1.34-.71 1.39-.14.11-.31.17-.48.17-.22 0-.43-.09-.58-.27a.76.76 0 0 1 .1-1.06c.06-.05.16-.19.16-.26 0-.04-.05-.13-.18-.25Z"/>
</svg>
