<svg viewBox="0 0 64 64" xmlns="http://www.w3.org/2000/svg">
  <path d="M64.02 33.09c0-6.51-14.09-11.79-31.47-11.79-6.75 0-12.99.8-18.12 2.15l-12-13.67c-.5-.57-1.37-.63-1.94-.13s-.63 1.37-.13 1.94l11.17 12.73c-6.41 2.16-10.45 5.29-10.45 8.77 0 .85.25 1.68.7 2.48l1.23 10.11.54.35c.73.47 1.51.91 2.33 1.33 4.14 13.33 16.78 16.61 26.54 16.61 19.64 0 25.51-12 27.16-17.51.95-.59 1.82-1.21 2.57-1.87l.41-.36.74-8.53h-.06c.51-.84.78-1.72.78-2.61M13.5 26.57l5.06 5.76c.27.31.65.47 1.04.47a1.374 1.374 0 0 0 1.04-2.28l-4.16-4.75c4.41-1.04 9.84-1.72 16.08-1.72 17.53 0 28.72 5.35 28.72 9.04s-11.19 9.04-28.72 9.04-28.73-5.35-28.73-9.04c0-2.06 3.51-4.65 9.67-6.53Zm18.91 34.66c-11.94 0-19.68-4.15-23.05-12.32 5.99 2.28 13.67 3.51 22.32 3.51 9.63 0 18.17-1.49 24.3-4.11-5.09 11.59-17.96 12.92-23.56 12.92Zm-.73-11.56c-10.92 0-20.14-1.99-26.09-5.6l-.65-5.31c5.35 3.65 15.7 6.13 27.61 6.13s22.42-2.51 27.73-6.21l-.37 4.22c-5.16 4.19-15.89 6.78-28.24 6.78ZM23 3.93c.18-2.28 2.16-3.6 2.38-3.74.64-.41 1.49-.22 1.9.42s.22 1.48-.41 1.89c-.03.02-1.06.73-1.13 1.66-.06.81.67 1.64 1.29 2.19 1.51 1.33 2.25 2.83 2.22 4.43-.05 2.53-2.04 4.22-2.26 4.41-.26.21-.56.31-.87.31-.4 0-.79-.17-1.07-.5-.48-.59-.4-1.45.19-1.93 0 0 1.24-1.06 1.25-2.35 0-.76-.43-1.54-1.3-2.31C23.6 7 22.86 5.5 22.98 3.94Zm9.64 0c.18-2.28 2.16-3.6 2.38-3.74.64-.41 1.49-.22 1.9.42s.22 1.48-.41 1.89c-.04.02-1.06.74-1.13 1.66-.06.81.67 1.64 1.29 2.19 1.51 1.33 2.25 2.83 2.22 4.43-.05 2.53-2.04 4.22-2.26 4.41-.26.21-.56.31-.87.31-.4 0-.79-.17-1.07-.5-.48-.59-.4-1.45.19-1.93 0 0 1.24-1.06 1.25-2.35 0-.76-.43-1.54-1.3-2.31C33.24 7 32.5 5.5 32.62 3.94Z"/>
</svg>
