<svg viewBox="0 0 16 16" xmlns="http://www.w3.org/2000/svg">
  <path d="M3.6 11.32c.83 0 1.5-.67 1.5-1.5V6.31c0-.83-.67-1.5-1.5-1.5s-1.5.67-1.5 1.5v3.51c0 .83.67 1.5 1.5 1.5m3.6-2.25v1.14c0 1.72-1.22 3.16-2.84 3.51v.79h1.71v1.5H1.15v-1.5h1.71v-.79a3.6 3.6 0 0 1-2.85-3.51V9.07c0-.41.34-.75.75-.75s.75.34.75.75v1.14c0 1.15.94 2.09 2.09 2.09s2.09-.94 2.09-2.09V9.07c0-.41.34-.75.75-.75s.75.34.75.75ZM14.44 0H8.13c-.87 0-1.57.71-1.57 1.57v5.32c0 .87.71 1.57 1.57 1.57h.99l1.74 1.93 1.74-1.93h1.84c.87 0 1.57-.71 1.57-1.57V1.58c0-.87-.7-1.58-1.57-1.58m-3.33 6.32H9.46c-.41 0-.75-.34-.75-.75s.34-.75.75-.75h1.65c.41 0 .75.34.75.75s-.34.75-.75.75m1.5-2.86H9.46c-.41 0-.75-.34-.75-.75s.34-.75.75-.75h3.15c.41 0 .75.34.75.75s-.34.75-.75.75"/>
</svg>
