<svg viewBox="0 0 24 24" xmlns="http://www.w3.org/2000/svg">
  <path fill="#1e1e1c" d="M6.19 15.82c-1.24 0-2.25-1.01-2.25-2.25v-5.5c0-1.24 1.01-2.25 2.25-2.25s2.25 1.01 2.25 2.25v5.5c0 1.24-1.01 2.25-2.25 2.25m.01 4.47c-3.42 0-6.2-2.78-6.2-6.2v-1.41c0-.83.67-1.5 1.5-1.5s1.5.67 1.5 1.5v1.41c0 1.76 1.43 3.19 3.19 3.19s3.19-1.43 3.19-3.19v-1.41c0-.83.67-1.5 1.5-1.5s1.5.67 1.5 1.5v1.41c0 3.42-2.78 6.19-6.19 6.19Zm-1.51-1.76h3v5.46h-3zm-2.46 2.46h7.92v3H2.23zm12.45-10.97 1.66 2.4 1.66-2.4h3.84c.7 0 1.26-.56 1.26-1.26V2.11c0-.7-.56-1.26-1.26-1.26h-9.68c-.7 0-1.26.56-1.26 1.26v6.65c0 .7.56 1.26 1.26 1.26h2.53Zm1.65 3.93-2.12-3.06h-2.07c-1.18 0-2.14-.96-2.14-2.14V2.11c.01-1.18.97-2.14 2.15-2.14h9.68c1.18 0 2.14.96 2.14 2.14v6.65c0 1.18-.96 2.14-2.14 2.14h-3.39l-2.12 3.06ZM12.15 1.72a.39.39 0 0 0-.39.39v6.65c0 .21.17.39.39.39h2.99l1.2 1.73 1.2-1.73h4.3c.21 0 .39-.17.39-.39V2.11a.39.39 0 0 0-.39-.39h-9.68Z"/>
  <path fill="#fff" d="M19.06 4.56h-4.84c-.48 0-.88-.39-.88-.88s.39-.88.88-.88h4.84c.48 0 .88.39.88.88s-.39.88-.88.88m-2.31 3.27h-2.54c-.48 0-.88-.39-.88-.88s.39-.88.88-.88h2.54c.48 0 .88.39.88.88s-.39.88-.88.88"/>
</svg>
