<svg viewBox="0 0 40 40" xmlns="http://www.w3.org/2000/svg">
  <path fill="#1e1e1c" d="M8.51 28.78c2.41 0 4.38-1.97 4.38-4.38v-8.51c0-2.41-1.96-4.38-4.38-4.38s-4.38 1.97-4.38 4.38v8.51c0 2.41 1.96 4.38 4.38 4.38M6.38 15.89c0-1.17.95-2.13 2.13-2.13s2.13.95 2.13 2.13v3.13H6.39v-3.13Zm4.25 5.39v3.13c0 1.17-.95 2.13-2.13 2.13s-2.13-.95-2.13-2.13v-3.13h4.25Zm6.4 1.48v2.96c0 4.32-3.23 7.89-7.39 8.44v3.57h4.43v2.25H2.95v-2.25h4.43v-3.57C3.22 33.6 0 30.04 0 25.72v-2.96c0-.62.5-1.13 1.13-1.13s1.13.5 1.13 1.13v2.96c0 3.46 2.81 6.27 6.26 6.27s6.27-2.81 6.27-6.27v-2.96c0-.62.5-1.13 1.13-1.13s1.13.5 1.13 1.13ZM36.73-.01h-17.1a3.27 3.27 0 0 0-3.26 3.27v12.12c0 1.8 1.46 3.27 3.26 3.27h3.5l3.59 4.82 3.59-4.82h6.43c1.8 0 3.26-1.47 3.26-3.27V3.25a3.276 3.276 0 0 0-3.27-3.26m1.01 15.38c0 .56-.45 1.01-1.01 1.01h-7.56l-2.46 3.3-2.46-3.3h-4.63c-.56 0-1.01-.45-1.01-1.01V3.25c0-.56.45-1.01 1.01-1.01h17.1c.56 0 1.01.45 1.01 1.01v12.12Zm-3.93-8.6c0 .62-.5 1.13-1.13 1.13h-9.32c-.62 0-1.13-.5-1.13-1.13s.5-1.13 1.13-1.13h9.32c.62 0 1.13.5 1.13 1.13m-3.91 4.88c0 .62-.5 1.13-1.13 1.13h-5.42c-.62 0-1.13-.5-1.13-1.13s.5-1.13 1.13-1.13h5.42c.62 0 1.13.5 1.13 1.13"/>
</svg>
