<svg viewBox="0 0 64 64" xmlns="http://www.w3.org/2000/svg">
  <path fill="#1e1e1c" d="M13.38 45.84c3.67 0 6.65-2.98 6.65-6.65v-13.8c0-3.67-2.98-6.65-6.65-6.65s-6.65 2.98-6.65 6.65v13.8c0 3.67 2.98 6.65 6.65 6.65m-3.9-20.45c0-2.15 1.75-3.9 3.9-3.9s3.9 1.75 3.9 3.9v5.52h-7.8zm7.81 8.27v5.52c0 2.15-1.75 3.9-3.9 3.9s-3.9-1.75-3.9-3.9v-5.52zm9.47 2.86v4.8c0 6.91-5.27 12.61-12 13.3v6.63h7.2V64H4.81v-2.75h7.2v-6.63C5.28 53.93 0 48.23 0 41.32v-4.8c0-.76.62-1.38 1.38-1.38s1.38.62 1.38 1.38v4.8c0 5.86 4.77 10.62 10.62 10.62S24 47.18 24 41.32v-4.8c0-.76.62-1.38 1.38-1.38s1.38.62 1.38 1.38M59.16 0H31.39c-2.67 0-4.85 2.17-4.85 4.84v19.64c0 2.67 2.17 4.85 4.85 4.85h5.9l5.6 7.51 5.6-7.51h10.67c2.67 0 4.85-2.17 4.85-4.85V4.84c0-2.67-2.18-4.84-4.85-4.84m2.1 24.49c0 1.15-.94 2.09-2.09 2.09H47.12l-4.22 5.66-4.22-5.66H31.4a2.09 2.09 0 0 1-2.09-2.09V4.84c0-1.15.94-2.09 2.09-2.09h27.77c1.16 0 2.09.94 2.09 2.09v19.64Zm-7.29-13.95c0 .76-.62 1.38-1.38 1.38H37.45c-.76 0-1.38-.62-1.38-1.38s.62-1.38 1.38-1.38h15.14c.76 0 1.38.62 1.38 1.38m-6.34 7.25c0 .76-.62 1.38-1.38 1.38h-8.79c-.76 0-1.38-.62-1.38-1.38s.62-1.38 1.38-1.38h8.79c.76 0 1.38.62 1.38 1.38"/>
</svg>
