<svg viewBox="0 0 16 16" xmlns="http://www.w3.org/2000/svg">
  <path fill="#1e1e1c" d="M3.61 11.32c-.83 0-1.5-.67-1.5-1.5v-3.5c0-.83.67-1.5 1.5-1.5s1.5.67 1.5 1.5v3.5c0 .83-.67 1.5-1.5 1.5m0-1.5v.75zm0 3.97c-1.98 0-3.58-1.61-3.58-3.59V9.07c0-.41.34-.75.75-.75s.75.34.75.75v1.13c0 1.15.94 2.09 2.09 2.09s2.09-.94 2.09-2.09V9.07c0-.41.34-.75.75-.75s.75.34.75.75v1.13c0 1.98-1.61 3.59-3.59 3.59Zm-.75-1h1.5v3.2h-1.5zm-1.7 1.7h4.9v1.5h-4.9zm8.29-6.77 1.4 1.56 1.4-1.56h2.17c.45 0 .82-.37.82-.82V1.59c0-.45-.37-.82-.82-.82h-6.3c-.45 0-.82.37-.82.82V6.9c0 .45.37.82.82.82h1.32Zm1.4 2.68L9.11 8.47h-.98c-.87 0-1.57-.71-1.57-1.57V1.59c0-.87.7-1.57 1.57-1.57h6.3c.87 0 1.57.7 1.57 1.57V6.9c0 .87-.71 1.57-1.57 1.57h-1.84zM8.13 1.52 8.06 6.9s.03.07.07.07h1.65l1.07 1.19 1.07-1.19h2.51s.07-.03.07-.07V1.59s-.03-.07-.07-.07z"/>
  <path fill="#fff" d="M12.6 3.47H9.45c-.41 0-.75-.34-.75-.75s.34-.75.75-.75h3.15c.41 0 .75.34.75.75s-.34.75-.75.75m-1.5 2.85H9.45c-.41 0-.75-.34-.75-.75s.34-.75.75-.75h1.65c.41 0 .75.34.75.75s-.34.75-.75.75"/>
</svg>
