<svg viewBox="0 0 64 64" xmlns="http://www.w3.org/2000/svg">
  <g fill="#1e1e1c">
    <rect width="8" height="24.34" x="10.5" y="19.02" rx="4" ry="4"/>
    <path d="M14.5 45.85c-3.58 0-6.5-2.92-6.5-6.5V23.01c0-3.58 2.92-6.5 6.5-6.5s6.5 2.92 6.5 6.5v16.34c0 3.58-2.92 6.5-6.5 6.5m0-24.33c-.83 0-1.5.67-1.5 1.5v16.34c0 .83.67 1.5 1.5 1.5s1.5-.67 1.5-1.5V23.02c0-.83-.67-1.5-1.5-1.5"/>
  </g>
  <path fill="#1e1e1c" d="M14.5 54.7C6.51 54.7.01 48.2.01 40.21v-4.8a2.5 2.5 0 0 1 5 0v4.8c0 5.23 4.26 9.49 9.49 9.49s9.49-4.26 9.49-9.49v-4.8a2.5 2.5 0 0 1 5 0v4.8c0 7.99-6.5 14.49-14.49 14.49m-2.5-5h5v14.31h-5zm-7.19 9.31H24.2v5H4.81zm33.17-31.05 4.91 6.58 4.91-6.58h11.35c1.92 0 3.47-1.55 3.47-3.47V4.86c0-1.92-1.55-3.47-3.47-3.47H31.4c-1.92 0-3.47 1.55-3.47 3.47V24.5c0 1.92 1.55 3.47 3.47 3.47h6.59Zm4.9 8.88-5.6-7.51h-5.9c-2.67 0-4.84-2.17-4.84-4.84V4.86c.01-2.67 2.18-4.85 4.85-4.85h27.75c2.67 0 4.84 2.17 4.84 4.84v19.64c0 2.67-2.17 4.84-4.84 4.84H48.48zM31.39 2.76c-1.15 0-2.09.94-2.09 2.09v19.64c0 1.15.94 2.09 2.09 2.09h7.28l4.22 5.66 4.22-5.66h12.04c1.15 0 2.09-.94 2.09-2.09V4.86c0-1.15-.94-2.09-2.09-2.09H31.4Z"/>
  <path fill="#fff" d="M52.58 11.42H36.45c-.83 0-1.5-.67-1.5-1.5s.67-1.5 1.5-1.5h16.13c.83 0 1.5.67 1.5 1.5s-.67 1.5-1.5 1.5m-6.34 8.38h-9.79c-.83 0-1.5-.67-1.5-1.5s.67-1.5 1.5-1.5h9.79c.83 0 1.5.67 1.5 1.5s-.67 1.5-1.5 1.5"/>
</svg>
