<svg viewBox="0 0 48 48" xmlns="http://www.w3.org/2000/svg">
  <g fill="#1e1e1c">
    <rect width="4.5" height="16" x="8.91" y="15.2" rx="2.25" ry="2.25"/>
    <path d="M11.16 33.45c-2.48 0-4.5-2.02-4.5-4.5v-11.5c0-2.48 2.02-4.5 4.5-4.5s4.5 2.02 4.5 4.5v11.5c0 2.48-2.02 4.5-4.5 4.5m0-16v11.5z"/>
  </g>
  <path fill="#1e1e1c" d="M11.16 41.07C5 41.07 0 36.06 0 29.91v-3.57c0-1.24 1.01-2.25 2.25-2.25S4.5 25.1 4.5 26.34v3.57a6.66 6.66 0 0 0 13.33 0v-3.57c0-1.24 1.01-2.25 2.25-2.25s2.25 1.01 2.25 2.25v3.57c0 6.16-5.01 11.16-11.16 11.16Zm-2.25-4.5h4.5v11.42h-4.5zm-5.35 6.92h15.2v4.5H3.56zm24.87-22.47 3.65 4.89 3.65-4.89h8.44a2.58 2.58 0 0 0 2.58-2.58V3.84a2.58 2.58 0 0 0-2.58-2.58H23.54a2.58 2.58 0 0 0-2.58 2.58v14.6a2.58 2.58 0 0 0 2.58 2.58h4.9Zm3.64 6.99-4.27-5.74h-4.27c-2.11 0-3.83-1.72-3.83-3.83V3.84c0-2.11 1.72-3.82 3.83-3.82h20.63c2.11 0 3.83 1.72 3.83 3.83v14.6c0 2.11-1.72 3.83-3.83 3.83h-7.81l-4.27 5.74ZM23.53 2.52c-.73 0-1.33.6-1.33 1.33v14.6c0 .73.6 1.33 1.33 1.33h5.52l3.02 4.05 3.02-4.05h9.07c.73 0 1.33-.6 1.33-1.33V3.84c0-.73-.6-1.33-1.33-1.33H23.53Z"/>
  <path fill="#fff" d="M39.28 9.33H28.03a1.25 1.25 0 0 1 0-2.5h11.25a1.25 1.25 0 0 1 0 2.5m-4.71 5.39h-6.53a1.25 1.25 0 0 1 0-2.5h6.53a1.25 1.25 0 0 1 0 2.5"/>
</svg>
