<svg viewBox="0 0 24 24" xmlns="http://www.w3.org/2000/svg">
  <path d="M3.93 13.57v-5.5c0-1.24 1.01-2.25 2.25-2.25s2.25 1.01 2.25 2.25v5.5c0 1.24-1.01 2.25-2.25 2.25s-2.25-1.01-2.25-2.25m6.96-2.38c-.83 0-1.5.67-1.5 1.5v1.41c0 1.76-1.43 3.19-3.2 3.19s-3.2-1.43-3.2-3.19v-1.41c0-.83-.67-1.5-1.5-1.5s-1.5.67-1.5 1.5v1.41c0 2.89 2 5.32 4.7 6v.9H2.23v3h7.93v-3H7.7v-.9c2.7-.67 4.7-3.1 4.7-6v-1.41c0-.83-.67-1.5-1.5-1.5Zm13.1-9.07v6.64c0 1.18-.96 2.13-2.14 2.13h-3.39l-2.12 3.06-2.12-3.06h-2.07a2.14 2.14 0 0 1-2.14-2.13V2.12c0-1.18.96-2.14 2.14-2.14h9.7c1.18 0 2.14.96 2.14 2.13Zm-6.35 4.84c0-.48-.39-.87-.88-.87h-2.54c-.48 0-.88.39-.88.87s.39.87.88.87h2.54c.48 0 .88-.39.88-.87m2.31-3.27c0-.48-.39-.87-.88-.87h-4.85c-.48 0-.88.39-.88.87s.39.87.88.87h4.85c.48 0 .88-.39.88-.87"/>
</svg>
