<svg viewBox="0 0 48 48" xmlns="http://www.w3.org/2000/svg">
  <path d="M6.66 28.95V17.44c0-2.48 2.02-4.5 4.5-4.5s4.5 2.02 4.5 4.5v11.51c0 2.48-2.02 4.5-4.5 4.5s-4.5-2.02-4.5-4.5m13.41-4.86c-1.24 0-2.25 1.01-2.25 2.25v3.57c0 3.68-2.99 6.67-6.67 6.67s-6.67-2.99-6.67-6.67v-3.57c0-1.24-1.01-2.25-2.25-2.25S0 25.1 0 26.34v3.57c0 5.39 3.83 9.9 8.92 10.94v2.65H3.56V48h15.2v-4.5h-5.35v-2.65c5.08-1.04 8.92-5.55 8.92-10.94v-3.57c0-1.24-1.01-2.25-2.25-2.25ZM47.99 3.83v14.61c0 2.11-1.72 3.83-3.83 3.83h-7.81l-4.28 5.74-4.28-5.74h-4.27c-2.11 0-3.83-1.72-3.83-3.83V3.83A3.85 3.85 0 0 1 23.53 0h20.64C46.28 0 48 1.72 48 3.83Zm-12.17 9.63c0-.69-.56-1.25-1.25-1.25h-6.53a1.25 1.25 0 0 0 0 2.5h6.53c.69 0 1.25-.56 1.25-1.25m4.71-5.39c0-.69-.56-1.25-1.25-1.25H28.03a1.25 1.25 0 0 0 0 2.5h11.25c.69 0 1.25-.56 1.25-1.25"/>
</svg>
