<svg viewBox="0 0 40 40" xmlns="http://www.w3.org/2000/svg">
  <g fill="#1e1e1c">
    <rect width="4.5" height="15" x="8.02" y="10.93" rx="2.25" ry="2.25"/>
    <path d="M10.27 27.93a4.26 4.26 0 0 1-4.25-4.25v-10.5c0-2.34 1.91-4.25 4.25-4.25s4.25 1.91 4.25 4.25v10.5a4.26 4.26 0 0 1-4.25 4.25m0-15c-.14 0-.25.11-.25.25v10.5c0 .28.5.28.5 0v-10.5c0-.14-.11-.25-.25-.25"/>
  </g>
  <path fill="#1e1e1c" d="M10.27 34.2C4.63 34.2.03 29.61.03 23.96v-2.79c0-1.1.9-2 2-2s2 .9 2 2v2.79c0 3.44 2.8 6.24 6.24 6.24s6.24-2.8 6.24-6.24v-2.79c0-1.1.9-2 2-2s2 .9 2 2v2.79c0 5.65-4.59 10.24-10.24 10.24m-2-4h4v9.74h-4zm-4.43 5.74h12.87v4H3.84zm20.57-19.27 2.88 3.86 2.88-3.86h6.66c1.12 0 2.04-.91 2.04-2.04V3.11c0-1.12-.91-2.04-2.04-2.04H20.54c-1.12 0-2.04.91-2.04 2.04v11.53c0 1.12.91 2.04 2.04 2.04h3.87Zm2.88 5.75-3.44-4.62h-3.3c-1.74 0-3.16-1.42-3.16-3.16V3.11c0-1.74 1.42-3.16 3.16-3.16h16.29C38.58-.05 40 1.37 40 3.11v11.53c0 1.74-1.42 3.16-3.16 3.16h-6.1l-3.44 4.62ZM20.55 2.2c-.5 0-.91.41-.91.91v11.53c0 .5.41.91.91.91h4.43l2.31 3.11 2.32-3.11h7.23c.5 0 .91-.41.91-.91V3.11c0-.5-.41-.91-.91-.91z"/>
  <path fill="#fff" d="M32.98 7.58H24.1c-.62 0-1.12-.5-1.12-1.12s.5-1.12 1.12-1.12h8.88c.62 0 1.12.5 1.12 1.12s-.5 1.12-1.12 1.12m-3.72 4.65H24.1c-.62 0-1.12-.5-1.12-1.12s.5-1.12 1.12-1.12h5.16c.62 0 1.12.5 1.12 1.12s-.5 1.12-1.12 1.12"/>
</svg>
