<svg viewBox="0 0 32 32" xmlns="http://www.w3.org/2000/svg">
  <path d="M19.08 3.25c0 .55-.45 1-1 1s-1-.45-1-1 .45-1 1-1 1 .45 1 1m3.31-1c-.55 0-1 .45-1 1s.45 1 1 1 1-.45 1-1-.45-1-1-1m4.31 2c.55 0 1-.45 1-1s-.45-1-1-1-1 .45-1 1 .45 1 1 1m4.31 0c.55 0 1-.45 1-1s-.45-1-1-1-1 .45-1 1 .45 1 1 1m-8.62 2.3c-.55 0-1 .45-1 1s.45 1 1 1 1-.45 1-1-.45-1-1-1m4.31 2c.55 0 1-.45 1-1s-.45-1-1-1-1 .45-1 1 .45 1 1 1m4.31-2c-.55 0-1 .45-1 1s.45 1 1 1 1-.45 1-1-.45-1-1-1m-4.28 4.31c-.55 0-1 .45-1 1s.45 1 1 1 1-.45 1-1-.45-1-1-1m4.28 0c-.55 0-1 .45-1 1s.45 1 1 1 1-.45 1-1-.45-1-1-1m0 4.3c-.55 0-1 .45-1 1s.45 1 1 1 1-.45 1-1-.45-1-1-1m-31-3.41h15.97V32H.01zm3.01 14.68c0 .55.45 1 1 1s1-.45 1-1V15.12c0-.55-.45-1-1-1s-1 .45-1 1zm9.12-21.45v-.72c-.1.03-.2.06-.32.06-.55 0-1-.45-1-1s.45-1 1-1c.11 0 .22.03.32.06v-.07C12.14 1.04 11.1 0 9.83 0H6.17c-.8 0-1.51.41-1.92 1.02-.25.37-.39.81-.39 1.29v2.66c-1.04.04-1.98.47-2.67 1.15C.46 6.86.01 7.86.01 8.96v.79h15.97v-.79c0-1.1-.45-2.1-1.17-2.83a3.97 3.97 0 0 0-2.67-1.15"/>
</svg>
