<svg viewBox="0 0 40 40" xmlns="http://www.w3.org/2000/svg">
  <path d="M15.29 6.23V2.89C15.29 1.29 14 0 12.4 0H7.58c-1.6 0-2.89 1.29-2.89 2.89v3.34C2.08 6.4.02 8.54.02 11.19v28.8h19.96v-28.8c0-2.65-2.07-4.8-4.68-4.96Zm2.43 31.52H2.27V14.66h15.45v23.08ZM6.94 6.17V2.88c0-.35.29-.64.64-.64h4.82c.35 0 .64.29.64.64v.37c-.07-.01-.13-.04-.21-.04a1.25 1.25 0 0 0 0 2.5c.07 0 .14-.03.21-.04v.51h-6.1Zm-4.67 5.02c0-1.51 1.23-2.75 2.75-2.75h9.96c1.51 0 2.75 1.23 2.75 2.75v1.2H2.27zm2.87 21.85V18.9c0-.62.5-1.13 1.13-1.13s1.13.5 1.13 1.13v14.14c0 .62-.5 1.13-1.13 1.13s-1.13-.5-1.13-1.13M23.72 4.05c0 .62-.5 1.13-1.13 1.13s-1.13-.5-1.13-1.13.5-1.13 1.13-1.13 1.13.5 1.13 1.13m14.04 0c0-.62.5-1.13 1.13-1.13s1.13.5 1.13 1.13-.5 1.13-1.13 1.13-1.13-.5-1.13-1.13m-3.18 0c0 .62-.5 1.13-1.13 1.13s-1.13-.5-1.13-1.13.5-1.13 1.13-1.13 1.13.5 1.13 1.13m-5.43 0c0 .62-.5 1.13-1.13 1.13s-1.13-.5-1.13-1.13.5-1.13 1.13-1.13 1.13.5 1.13 1.13m10.87 5.44c0 .62-.5 1.13-1.13 1.13s-1.13-.5-1.13-1.13.5-1.13 1.13-1.13 1.13.5 1.13 1.13m-5.44 0c0 .62-.5 1.13-1.13 1.13s-1.13-.5-1.13-1.13.5-1.13 1.13-1.13 1.13.5 1.13 1.13m-5.43 0c0 .62-.5 1.13-1.13 1.13s-1.13-.5-1.13-1.13.5-1.13 1.13-1.13 1.13.5 1.13 1.13m10.87 5.44c0 .62-.5 1.13-1.13 1.13s-1.13-.5-1.13-1.13.5-1.13 1.13-1.13 1.13.5 1.13 1.13m-5.44 0c0 .62-.5 1.13-1.13 1.13s-1.13-.5-1.13-1.13.5-1.13 1.13-1.13 1.13.5 1.13 1.13m5.44 5.43c0 .62-.5 1.13-1.13 1.13s-1.13-.5-1.13-1.13.5-1.13 1.13-1.13 1.13.5 1.13 1.13"/>
</svg>
