<svg viewBox="0 0 16 16" xmlns="http://www.w3.org/2000/svg">
  <path d="M9.8 1.62c0 .41-.34.75-.75.75s-.75-.34-.75-.75.34-.75.75-.75.75.34.75.75m-3.46.89v-.42h-.05c-.28 0-.51-.23-.51-.51s.23-.51.51-.51h.03A1.14 1.14 0 0 0 5.18 0H2.85c-.64 0-1.16.51-1.16 1.15v1.36C.74 2.67.01 3.49.01 4.48v.78h8v-.78c0-.99-.73-1.81-1.67-1.97M.01 6.76h8v9.23h-8zm1.85 6.31c0 .41.34.75.75.75s.75-.34.75-.75V8.99c0-.41-.34-.75-.75-.75s-.75.34-.75.75zM12.15.87c-.41 0-.75.34-.75.75s.34.75.75.75.75-.34.75-.75-.34-.75-.75-.75m0 3.11c-.41 0-.75.34-.75.75s.34.75.75.75.75-.34.75-.75-.34-.75-.75-.75m3.11-1.61c.41 0 .75-.34.75-.75s-.34-.75-.75-.75-.75.34-.75.75.34.75.75.75m0 1.61c-.41 0-.75.34-.75.75s.34.75.75.75.75-.34.75-.75-.34-.75-.75-.75m0 3.13c-.41 0-.75.34-.75.75s.34.75.75.75.75-.34.75-.75-.34-.75-.75-.75"/>
</svg>
