<svg viewBox="0 0 48 48" xmlns="http://www.w3.org/2000/svg">
  <path d="M28.37 4.85a1.25 1.25 0 1 1-2.5 0 1.25 1.25 0 0 1 2.5 0m18.4 1.25a1.25 1.25 0 1 0 0-2.5 1.25 1.25 0 0 0 0 2.5m-6.55-2.5a1.25 1.25 0 1 0 0 2.5 1.25 1.25 0 0 0 0-2.5m-6.55 0a1.25 1.25 0 1 0 0 2.5 1.25 1.25 0 0 0 0-2.5m13.1 6.55a1.25 1.25 0 1 0 0 2.5 1.25 1.25 0 0 0 0-2.5m-6.55 0a1.25 1.25 0 1 0 0 2.5 1.25 1.25 0 0 0 0-2.5m6.55 6.54a1.25 1.25 0 1 0 0 2.5 1.25 1.25 0 0 0 0-2.5m0 6.55a1.25 1.25 0 1 0 0 2.5 1.25 1.25 0 0 0 0-2.5m-6.55-6.55a1.25 1.25 0 1 0 0 2.5 1.25 1.25 0 0 0 0-2.5m-6.55-6.54a1.25 1.25 0 1 0 0 2.5 1.25 1.25 0 0 0 0-2.5M.02 16.96h23.94v31.03H.02zm4.25 22.67a1.25 1.25 0 0 0 2.5 0V22.66a1.25 1.25 0 0 0-2.5 0zM21.78 8.8a5.93 5.93 0 0 0-3.43-1.35v-.61c-.05 0-.1.02-.15.02-.83 0-1.5-.67-1.5-1.5s.67-1.5 1.5-1.5c.05 0 .1.01.15.02v-.41a3.47 3.47 0 0 0-2.12-3.2C15.82.09 15.36 0 14.88 0H9.09a3.5 3.5 0 0 0-1.35.27c-.41.18-.79.43-1.1.74-.63.63-1.02 1.49-1.02 2.45v4c-1.3.08-2.49.57-3.43 1.35a5.97 5.97 0 0 0-2.17 4.61v1.04h23.94v-1.04c0-1.86-.85-3.53-2.18-4.63Z"/>
</svg>
