<svg viewBox="0 0 64 64" xmlns="http://www.w3.org/2000/svg">
  <path d="M37.82 6.48c0 .92-.75 1.67-1.67 1.67s-1.67-.75-1.67-1.67.75-1.67 1.67-1.67 1.67.75 1.67 1.67m24.53 1.67c.92 0 1.67-.75 1.67-1.67s-.75-1.67-1.67-1.67-1.67.75-1.67 1.67.75 1.67 1.67 1.67m-8.73-3.34c-.92 0-1.67.75-1.67 1.67s.75 1.67 1.67 1.67 1.67-.75 1.67-1.67-.75-1.67-1.67-1.67m-8.74 0c-.92 0-1.67.75-1.67 1.67s.75 1.67 1.67 1.67 1.67-.75 1.67-1.67-.75-1.67-1.67-1.67m17.47 8.76c-.92 0-1.67.75-1.67 1.67s.75 1.67 1.67 1.67 1.67-.75 1.67-1.67-.75-1.67-1.67-1.67m-8.73 0c-.92 0-1.67.75-1.67 1.67s.75 1.67 1.67 1.67 1.67-.75 1.67-1.67-.75-1.67-1.67-1.67m8.73 8.74c-.92 0-1.67.75-1.67 1.67s.75 1.67 1.67 1.67 1.67-.75 1.67-1.67-.75-1.67-1.67-1.67m0 8.73c-.92 0-1.67.75-1.67 1.67s.75 1.67 1.67 1.67 1.67-.75 1.67-1.67-.75-1.67-1.67-1.67m-8.73-8.73c-.92 0-1.67.75-1.67 1.67s.75 1.67 1.67 1.67 1.67-.75 1.67-1.67-.75-1.67-1.67-1.67m-8.74-8.74c-.92 0-1.67.75-1.67 1.67s.75 1.67 1.67 1.67 1.67-.75 1.67-1.67-.75-1.67-1.67-1.67m-13.9.52a7.98 7.98 0 0 0-7.03-4.18h-.49v-.99h-.07a1.96 1.96 0 0 1-1.65-.89 1.9 1.9 0 0 1-.3-.72c-.03-.13-.04-.26-.04-.4 0-.55.22-1.05.59-1.41s.86-.59 1.41-.59h.07v-.32c0-1.6-.81-3-2.04-3.83-.74-.5-1.63-.79-2.59-.79h-5.72C10.57 0 8.5 2.06 8.5 4.62v5.3h-.49a8 8 0 0 0-7.64 5.61c-.23.75-.36 1.55-.36 2.38v1.93h31.93v-1.93c0-.83-.13-1.63-.36-2.38-.16-.5-.36-.98-.61-1.43ZM.02 22.58h31.93v41.41H.02zm5.13 31.78c0 .76.62 1.38 1.38 1.38s1.38-.62 1.38-1.38V28.73c0-.76-.62-1.38-1.38-1.38s-1.38.62-1.38 1.38z"/>
</svg>
