<svg viewBox="0 0 32 32" xmlns="http://www.w3.org/2000/svg">
  <path d="M29.16 19.57c-1.99 0-4.54.24-5.92 1.33-1.94 1.53-4.99 7.45-6.24 9.96v-9.18c1.52-.52 2.67-2.15 2.81-4.16.79.39 1.62.57 2.41.57 1.38 0 2.63-.58 3.27-1.69 1-1.74.16-4.1-1.87-5.46 2.02-1.36 2.87-3.73 1.87-5.46-.64-1.11-1.88-1.69-3.27-1.69-.78 0-1.61.19-2.41.57C19.64 1.93 18.01.02 16 .02s-3.64 1.91-3.81 4.34c-.79-.39-1.62-.57-2.41-.57-1.38 0-2.63.58-3.27 1.69-1 1.74-.16 4.1 1.87 5.46-2.02 1.36-2.87 3.73-1.87 5.46.64 1.11 1.88 1.69 3.27 1.69.78 0 1.61-.19 2.41-.57.14 2.01 1.28 3.64 2.81 4.16v9.18c-1.24-2.52-4.3-8.43-6.24-9.96-1.38-1.09-3.93-1.33-5.92-1.33-1.6 0-2.84.16-2.84.16S.67 26 3.15 27.97c2.13 1.68 9.72 3.46 11.84 3.93v.12H17v-.12c2.13-.47 9.71-2.25 11.84-3.93 2.48-1.96 3.15-8.24 3.15-8.24s-1.24-.16-2.84-.16ZM4.4 26.39c-.9-.71-1.63-2.85-2.06-4.81h.5c3.28 0 4.41.69 4.68.9 1 .79 2.76 3.69 4.31 6.6-3.2-.84-6.42-1.89-7.42-2.68ZM16 13.95a3.01 3.01 0 0 1-3.01-3 3.01 3.01 0 0 1 6.02 0c0 1.65-1.35 3-3.01 3m7.75 1.45c-.36.63-1.19.69-1.53.69-.5 0-1.03-.13-1.53-.37l-1.67-.81c.35-.27.66-.57.93-.92l2.42.5-1.67-1.86c.12-.34.2-.7.25-1.07l1.54 1.04c1.14.77 1.7 2.02 1.25 2.8Zm-3.06-9.24c.5-.24 1.03-.37 1.53-.37.34 0 1.17.07 1.53.69.45.78-.11 2.04-1.25 2.8l-1.54 1.04c-.06-.45-.15-.88-.32-1.28l1.63-1.82-2.45.51c-.24-.28-.5-.53-.79-.76l1.67-.81ZM16 2.02c.9 0 1.71 1.11 1.81 2.48l.13 1.83c-.39-.16-.82-.26-1.26-.32l-.77-2.34-.78 2.36q-.555.09-1.05.3l.13-1.83c.09-1.37.91-2.48 1.81-2.48ZM8.25 6.48c.36-.63 1.19-.69 1.53-.69.5 0 1.03.13 1.53.37l1.67.81c-.35.27-.66.57-.93.92l-2.42-.5 1.67 1.86c-.12.34-.2.7-.25 1.07L9.51 9.28c-1.14-.77-1.7-2.02-1.25-2.8Zm3.06 9.24c-.5.24-1.03.37-1.53.37-.34 0-1.17-.07-1.53-.69-.45-.78.11-2.04 1.25-2.8l1.54-1.04c.06.45.15.88.32 1.28l-1.63 1.82 2.45-.51c.24.28.5.53.79.76l-1.67.81Zm2.76-.16c.39.16.82.26 1.26.32l.77 2.34.78-2.36q.555-.09 1.05-.3l-.13 1.83c-.09 1.37-.91 2.48-1.81 2.48s-1.71-1.11-1.81-2.48l-.13-1.83ZM27.6 26.39c-1 .79-4.23 1.83-7.42 2.68 1.56-2.91 3.31-5.81 4.31-6.6.27-.21 1.39-.9 4.68-.9h.5c-.43 1.96-1.16 4.11-2.06 4.81Z"/>
</svg>
