<svg viewBox="0 0 32 32" xmlns="http://www.w3.org/2000/svg">
  <path d="M31.94 19.77h-.06c-.04 0-.08 0-.13-.01h-.09c-.06 0-.12-.01-.19-.02-.05 0-.1 0-.15-.01-.07 0-.15-.01-.24-.02-.06 0-.12 0-.19-.01-.09 0-.18-.01-.28-.02-.07 0-.14 0-.22-.01-.11 0-.22 0-.33-.01h-1.59c-.09 0-.19 0-.29.01-.16 0-.31.01-.47.03-.11 0-.21.02-.32.03-.15.01-.31.03-.46.05-.11.01-.22.03-.32.04-.15.02-.3.04-.45.07l-.32.06c-.15.03-.29.06-.43.1-.1.03-.2.05-.3.08-.14.04-.28.09-.42.13l-.27.09c-.15.06-.28.12-.42.19a3 3 0 0 0-.75.46c-1.94 1.54-4.99 7.47-6.24 10v-9.21c1.52-.52 2.67-2.16 2.81-4.17.25.12.5.21.75.3l.21.06c.2.06.39.1.59.13l.18.03c.23.03.46.05.68.05h.04c.31 0 .62-.04.91-.1.08-.02.15-.04.22-.06.21-.06.42-.13.62-.22.09-.04.17-.09.26-.13.18-.1.34-.21.49-.34.07-.06.14-.11.2-.17.2-.2.39-.42.53-.67.25-.44.39-.91.42-1.4s-.04-.99-.21-1.48c-.34-.98-1.06-1.92-2.07-2.6 1.01-.68 1.73-1.62 2.07-2.6.17-.49.24-.99.21-1.48s-.17-.96-.42-1.4c-.15-.25-.33-.47-.53-.67-.06-.06-.13-.11-.2-.17-.15-.13-.32-.24-.5-.34-.08-.05-.17-.09-.25-.13-.2-.09-.4-.16-.62-.22-.07-.02-.14-.05-.22-.06-.29-.06-.6-.1-.91-.1h-.04c-.22 0-.45.02-.68.05-.06 0-.12.02-.18.03-.2.03-.39.08-.59.13l-.21.06q-.375.12-.75.3c-.17-2.44-1.8-4.36-3.81-4.36s-3.64 1.92-3.81 4.36c-.25-.12-.5-.21-.75-.3l-.21-.06c-.2-.06-.39-.1-.58-.13l-.18-.03c-.23-.03-.46-.05-.68-.05h-.04c-.31 0-.62.04-.91.1-.08.02-.15.04-.22.06-.21.06-.42.13-.62.22-.09.04-.17.09-.25.13-.18.1-.34.21-.49.34-.07.06-.14.11-.2.17-.2.2-.39.42-.53.67-1 1.74-.16 4.12 1.87 5.48-2.02 1.36-2.87 3.74-1.87 5.48.15.25.33.47.53.67.06.06.13.11.2.17.15.13.32.24.49.34.08.05.17.09.25.13.2.09.4.16.62.22.07.02.14.05.22.06.29.06.6.1.91.1h.04c.22 0 .45-.02.68-.05.06 0 .12-.02.18-.03.2-.03.39-.08.59-.13l.21-.06q.375-.12.75-.3c.14 2.01 1.28 3.65 2.81 4.17V31c-.15-.3-.32-.64-.51-1.03-.26-.52-.56-1.1-.89-1.71-.16-.31-.33-.62-.5-.94-1.39-2.54-3.09-5.33-4.33-6.32-.16-.13-.35-.25-.54-.35-.07-.04-.14-.07-.21-.1-.14-.07-.27-.13-.42-.19l-.27-.09c-.14-.05-.28-.09-.42-.13-.1-.03-.2-.05-.3-.08-.14-.03-.29-.07-.43-.1l-.32-.06c-.15-.03-.3-.05-.45-.07-.11-.01-.22-.03-.32-.04-.15-.02-.31-.03-.46-.05-.11 0-.21-.02-.32-.03l-.47-.03c-.1 0-.19 0-.29-.01H1.98c-.11 0-.22 0-.33.01-.08 0-.15 0-.22.01-.1 0-.19.01-.28.02-.07 0-.13 0-.19.01-.08 0-.16.01-.23.02-.05 0-.11 0-.15.01-.07 0-.13.01-.19.02H.3c-.05 0-.09 0-.13.01H.05s.67 6.29 3.15 8.26c.31.25.74.49 1.25.74 1.15.55 2.71 1.1 4.3 1.58.35.11.71.21 1.06.31s.7.2 1.05.29c1.71.46 3.24.83 4.08 1.02.04 0 .07.02.1.03h2.01s.06-.02.1-.03c.84-.19 2.39-.55 4.1-1.02.34-.09.69-.19 1.05-.29.35-.1.71-.2 1.06-.31 1.59-.48 3.15-1.02 4.3-1.58.51-.25.94-.49 1.25-.74 2.48-1.97 3.15-8.26 3.15-8.26H32ZM16 7.95c1.66 0 3.01 1.35 3.01 3.01s-1.35 3.01-3.01 3.01-3.01-1.35-3.01-3.01S14.34 7.95 16 7.95"/>
</svg>
