<svg viewBox="0 0 40 40" xmlns="http://www.w3.org/2000/svg">
  <path d="M36.45 24.44c-2.49 0-5.68.3-7.4 1.67-2.49 1.97-6.45 9.71-7.92 12.7V27.13c1.97-.59 3.45-2.68 3.63-5.24.99.48 2.03.72 3.01.72 1.73 0 3.28-.73 4.08-2.12 1.26-2.17.2-5.13-2.33-6.83 2.53-1.7 3.59-4.66 2.33-6.83-.8-1.39-2.35-2.12-4.08-2.12-.98 0-2.02.23-3.01.72C24.55 2.39 22.51 0 20 0s-4.55 2.39-4.76 5.43c-.99-.48-2.03-.72-3.01-.72-1.73 0-3.28.73-4.08 2.12-1.26 2.17-.2 5.13 2.33 6.83-2.53 1.7-3.59 4.66-2.33 6.83.8 1.39 2.35 2.12 4.08 2.12.98 0 2.02-.23 3.01-.72.18 2.56 1.66 4.65 3.63 5.24v11.68c-1.47-2.99-5.43-10.74-7.92-12.7-1.72-1.36-4.91-1.67-7.4-1.67-2 0-3.55.19-3.55.19s.84 7.84 3.94 10.3c2.7 2.14 12.45 4.52 14.93 5.07h2.26c2.47-.55 12.22-2.94 14.93-5.07 3.11-2.45 3.94-10.3 3.94-10.3s-1.55-.19-3.55-.19m-31.1 8.72c-1.23-.97-2.2-3.86-2.73-6.46.29 0 .61-.01.93-.01 4.07 0 5.55.82 6 1.18 1.33 1.05 3.7 5 5.72 8.83-4.2-1.09-8.59-2.48-9.92-3.53ZM20 17.66c-2.21 0-4.01-1.8-4.01-4s1.8-4 4.01-4 4.01 1.8 4.01 4-1.8 4-4.01 4m9.9 1.7c-.52.89-1.66.99-2.13.99-.66 0-1.36-.17-2.02-.49l-2.18-1.06c.56-.39 1.04-.86 1.45-1.4l2.94.7-2.1-2.21q.315-.81.39-1.71l2.02 1.35c1.53 1.03 2.27 2.75 1.64 3.83ZM25.75 7.45c.66-.32 1.35-.49 2.02-.49.47 0 1.61.1 2.13.99.63 1.09-.11 2.8-1.64 3.83l-2.02 1.35c-.06-.69-.22-1.35-.49-1.96l2.07-2.18-2.97.71c-.37-.46-.81-.86-1.29-1.19l2.18-1.06ZM20 2.25c1.26 0 2.38 1.49 2.51 3.33L22.68 8a6.3 6.3 0 0 0-1.94-.56l-.86-2.89-.87 2.93c-.59.09-1.16.27-1.68.52l.17-2.42c.13-1.84 1.25-3.33 2.51-3.33Zm-9.9 5.7c.52-.89 1.66-.99 2.13-.99.66 0 1.36.17 2.02.49l2.18 1.06c-.56.39-1.04.86-1.45 1.4l-2.94-.7 2.1 2.21q-.315.81-.39 1.71l-2.02-1.35c-1.53-1.03-2.27-2.75-1.64-3.83Zm4.15 11.91c-.66.32-1.35.49-2.02.49-.47 0-1.61-.1-2.13-.99-.63-1.09.11-2.8 1.64-3.83l2.02-1.35c.06.69.22 1.35.49 1.96l-2.08 2.18 2.97-.71c.37.46.81.86 1.29 1.19zm3.24 1.87-.17-2.42c.6.28 1.25.48 1.94.56l.86 2.89.87-2.93c.59-.09 1.16-.27 1.68-.52l-.17 2.42c-.13 1.84-1.25 3.33-2.51 3.33s-2.38-1.49-2.51-3.33Zm17.16 11.43c-1.33 1.05-5.73 2.45-9.92 3.53 2.02-3.83 4.39-7.78 5.72-8.83.45-.35 1.93-1.18 6-1.18.32 0 .64 0 .93.01-.53 2.59-1.5 5.48-2.73 6.46Z"/>
</svg>
