<svg viewBox="0 0 40 40" xmlns="http://www.w3.org/2000/svg">
  <path d="M39.92 24.62h-.06c-.05 0-.1-.01-.17-.02-.04 0-.09 0-.13-.01-.07 0-.15-.01-.23-.02-.06 0-.11 0-.18-.01-.1 0-.2-.02-.31-.02-.07 0-.14 0-.22-.01-.12 0-.24-.01-.37-.02-.09 0-.17 0-.26-.01-.14 0-.28-.01-.42-.02h-1.36c-.2 0-.41 0-.62.01-.12 0-.24.01-.36.02-.19 0-.39.02-.59.03-.13 0-.27.02-.4.03-.19.02-.38.03-.57.06-.14.02-.27.03-.41.05-.19.03-.37.05-.56.09-.14.02-.27.05-.4.07l-.54.12c-.13.03-.26.06-.38.1-.18.05-.35.11-.52.17-.11.04-.23.08-.34.12-.18.07-.35.15-.52.24-.09.04-.18.08-.26.12-.24.13-.47.28-.68.44-.68.54-1.47 1.5-2.29 2.69-.12.17-.23.34-.35.52-.59.89-1.19 1.87-1.76 2.86-.46.8-.91 1.61-1.33 2.39-.32.58-.62 1.15-.89 1.69-.52 1.01-.97 1.9-1.29 2.56V27.18c1.09-.33 2.04-1.11 2.7-2.19.17-.29.33-.6.46-.92.26-.65.43-1.37.48-2.13.31.15.62.27.93.37.09.03.18.05.27.08.24.07.49.12.73.17.08.01.15.03.23.04.29.04.57.06.85.06h.21c.26 0 .52-.04.78-.08.06 0 .11-.02.17-.03.28-.06.54-.13.8-.23.05-.02.1-.04.16-.07.23-.1.45-.21.65-.34.03-.02.06-.04.1-.06.22-.15.42-.32.61-.51.04-.04.08-.09.13-.13.18-.2.35-.42.49-.66.79-1.36.67-3.02-.15-4.49-.49-.88-1.23-1.7-2.18-2.34.63-.43 1.17-.93 1.61-1.48 1.31-1.65 1.67-3.72.72-5.35-.14-.24-.31-.46-.49-.66a.8.8 0 0 0-.13-.13 4 4 0 0 0-.61-.51c-.03-.02-.06-.04-.1-.06a5 5 0 0 0-.65-.34c-.05-.02-.1-.05-.16-.07-.25-.1-.52-.17-.8-.23l-.17-.03c-.25-.04-.51-.07-.77-.08h-.21c-.28 0-.56.02-.85.06-.08.01-.15.03-.23.04-.24.04-.49.1-.73.17-.09.03-.18.05-.27.08-.31.1-.62.22-.93.37-.05-.76-.22-1.48-.48-2.13-.13-.33-.28-.63-.46-.92-.87-1.44-2.25-2.38-3.82-2.38s-2.96.93-3.82 2.38c-.17.29-.33.6-.46.92-.26.65-.43 1.37-.48 2.13-.31-.15-.62-.27-.93-.37-.09-.03-.18-.05-.27-.08-.24-.07-.49-.12-.73-.17-.08-.01-.15-.03-.23-.04-.29-.04-.57-.06-.85-.06h-.21c-.26 0-.52.04-.77.08-.06 0-.11.02-.17.03-.28.06-.54.13-.8.23-.05.02-.1.04-.16.07-.23.1-.45.21-.65.34-.03.02-.06.04-.1.06-.22.15-.42.32-.61.51-.04.04-.08.09-.13.13-.18.2-.35.42-.49.66-.94 1.63-.58 3.7.72 5.35.44.55.98 1.05 1.61 1.48-.95.64-1.69 1.45-2.18 2.34-.82 1.47-.94 3.14-.15 4.49.14.24.31.46.49.66a.8.8 0 0 0 .13.13c.19.19.39.36.61.51.03.02.06.04.1.06.21.13.42.24.65.34.05.02.1.05.16.07.25.1.52.17.8.23l.17.03c.25.04.51.07.78.08h.21c.28 0 .56-.02.85-.06.08-.01.15-.03.23-.04.24-.04.49-.1.73-.17.09-.03.18-.05.27-.08.31-.1.63-.22.93-.37.05.76.22 1.48.48 2.13.13.33.28.63.46.92.65 1.08 1.6 1.86 2.7 2.19v11.68c-1.47-2.99-5.43-10.74-7.92-12.7-.21-.16-.44-.31-.68-.44-.08-.05-.17-.08-.26-.12-.17-.08-.34-.16-.52-.24-.11-.04-.23-.08-.34-.12-.17-.06-.34-.12-.52-.17-.13-.04-.25-.07-.38-.1-.18-.04-.36-.09-.54-.12-.13-.03-.27-.05-.4-.07l-.56-.09c-.14-.02-.27-.04-.41-.05l-.57-.06-.4-.03-.59-.03c-.12 0-.24-.01-.36-.02-.21 0-.41 0-.62-.01H2.5c-.14 0-.29.01-.42.02-.09 0-.18 0-.26.01-.13 0-.25.01-.36.02-.08 0-.16.01-.23.02-.11 0-.21.02-.3.02a1 1 0 0 0-.18.02c-.09 0-.16.01-.23.02-.05 0-.09 0-.13.01-.07 0-.12.01-.17.02H.08s.84 7.84 3.94 10.3c2.7 2.14 12.45 4.52 14.93 5.07h2.26c2.47-.55 12.22-2.94 14.93-5.07 3.11-2.45 3.94-10.3 3.94-10.3H40ZM20 9.65c2.21 0 4.01 1.8 4.01 4s-1.8 4-4.01 4-4.01-1.8-4.01-4 1.8-4 4.01-4"/>
</svg>
