<svg viewBox="0 0 32 32" xmlns="http://www.w3.org/2000/svg">
  <path d="M1.75 5.53c0-1.65 1.34-2.99 2.99-2.99s2.99 1.34 2.99 2.99-1.34 2.99-2.99 2.99-2.99-1.34-2.99-2.99m7.49 7.39c0-1.83-1.49-3.33-3.32-3.33H3.33C1.5 9.6.02 11.09.02 12.92v2.54h9.22zm18.17-4.4c1.65 0 2.99-1.34 2.99-2.99s-1.34-2.99-2.99-2.99-2.99 1.34-2.99 2.99 1.34 2.99 2.99 2.99M28.7 9.6h-2.59c-1.83 0-3.32 1.49-3.32 3.33v2.54h9.22v-2.54c0-1.83-1.49-3.33-3.32-3.33ZM16.02 5.94c1.65 0 2.99-1.34 2.99-2.99s-1.35-3-2.99-3-2.99 1.34-2.99 2.99 1.34 2.99 2.99 2.99Zm4.61 4.4c0-1.83-1.49-3.33-3.32-3.33h-2.59c-1.83 0-3.32 1.49-3.32 3.33v2.54h9.22v-2.54Zm3.55 9.52-1.61 1.72c.13.52.21 1.05.21 1.6s-.09 1.11-.22 1.64l1.6 1.71-1.21 2.1-2.29-.54c-.78.74-1.74 1.28-2.8 1.59l-.68 2.27h-2.42l-.69-2.3c-1.04-.32-1.99-.86-2.75-1.6l-2.3.54-1.21-2.1 1.64-1.75c-.12-.5-.2-1.02-.2-1.56s.09-1.09.21-1.61l-1.64-1.75 1.21-2.1 2.33.55c.77-.73 1.71-1.26 2.75-1.57l.69-2.29h2.42l.69 2.29c1.06.31 2.01.85 2.78 1.6l2.28-.54zm-5.46 3.32c0-1.5-1.21-2.71-2.71-2.71s-2.71 1.22-2.71 2.71 1.21 2.71 2.71 2.71 2.71-1.22 2.71-2.71"/>
</svg>
