<svg viewBox="0 0 16 16" xmlns="http://www.w3.org/2000/svg">
  <path d="M1.21 2.74a1.06 1.06 0 1 1 2.121.001A1.06 1.06 0 0 1 1.21 2.74m3.31 2.88c0-.68-.55-1.23-1.23-1.23H1.24C.56 4.39 0 4.94 0 5.62v.75h4.51v-.75Zm9.25-1.83a1.06 1.06 0 1 0-.001-2.121 1.06 1.06 0 0 0 .001 2.121m1.02.6h-2.04c-.68 0-1.23.55-1.23 1.23v.75h4.51v-.75c0-.68-.55-1.23-1.23-1.23ZM8.04 2.13c.58 0 1.06-.47 1.06-1.06S8.62.02 8.04.02a1.06 1.06 0 0 0 0 2.12Zm2.25 1.83c0-.68-.55-1.23-1.23-1.23H7.02c-.68 0-1.23.55-1.23 1.23v.75h4.51v-.75Zm0 7.05c0 1.1-.9 2-2 2s-2-.9-2-2 .9-2 2-2 2 .9 2 2m-1.5 0c0-.28-.23-.5-.5-.5s-.5.23-.5.5.23.5.5.5.5-.23.5-.5m3.87-.3-.16.17v.28l.15.16.77.81-.56.97-.49.84-.56.97-1.09-.26-.24-.06c-.07.04-.15.09-.22.13l-.07.22-.32 1.07h-3.2l-.32-1.07-.07-.25-.21-.12-.24.06-1.09.26-.56-.97-.49-.84-.56-.97.77-.81.17-.18v-.25l-.17-.18-.77-.81.56-.97.49-.84.56-.97 1.09.26.25.06c.07-.04.13-.08.2-.12l.07-.24.32-1.07h3.2l.32 1.07.07.24c.07.04.15.08.22.13l.23-.05 1.09-.26.56.97.49.84.56.97-.77.81Zm-1.75-.34.65-.69-.49-.84-.91.22c-.31-.3-.69-.51-1.12-.64l-.28-.92h-.97l-.28.92c-.42.12-.8.34-1.1.63l-.93-.22-.49.84.66.7c-.05.21-.09.42-.09.64s.03.42.08.62l-.66.7.49.84.92-.22c.31.3.69.51 1.1.64l.28.92h.97l.27-.91c.43-.12.81-.34 1.12-.63l.92.22.49-.84-.64-.68c.05-.21.09-.43.09-.66s-.03-.43-.08-.64"/>
</svg>
