<svg viewBox="0 0 48 48" xmlns="http://www.w3.org/2000/svg">
  <path d="M6.9 13.05c2.35 0 4.26-1.92 4.26-4.28S9.25 4.49 6.9 4.49 2.64 6.41 2.64 8.77s1.91 4.28 4.26 4.28m0-6.04c.97 0 1.76.79 1.76 1.77s-.79 1.77-1.76 1.77-1.76-.79-1.76-1.77.79-1.77 1.76-1.77m6.56 12.23c0-2.64-2.14-4.78-4.76-4.78H4.78c-2.63 0-4.76 2.15-4.76 4.78v4.34h13.45v-4.34Zm-2.5 1.84H2.51v-1.83c0-1.25 1.02-2.27 2.26-2.27h3.92c1.25 0 2.26 1.02 2.26 2.27v1.83Zm30.33-8.03c2.35 0 4.26-1.92 4.26-4.28s-1.91-4.28-4.26-4.28-4.26 1.92-4.26 4.28 1.91 4.28 4.26 4.28m0-6.04c.97 0 1.76.79 1.76 1.77s-.79 1.77-1.76 1.77-1.76-.79-1.76-1.77.79-1.77 1.76-1.77m1.96 7.45h-3.92c-2.63 0-4.76 2.14-4.76 4.78v4.34h13.45v-4.34c0-2.64-2.14-4.78-4.76-4.78Zm2.27 6.62h-8.45v-1.83c0-1.25 1.02-2.27 2.26-2.27h3.92c1.25 0 2.26 1.02 2.26 2.27v1.83ZM24.02 8.64c2.35 0 4.26-1.92 4.26-4.28S26.37.09 24.02.09s-4.26 1.92-4.26 4.28 1.91 4.28 4.26 4.28Zm0-6.04c.97 0 1.76.79 1.76 1.77s-.79 1.77-1.76 1.77-1.76-.79-1.76-1.77.79-1.77 1.76-1.77m6.72 12.23c0-2.64-2.14-4.78-4.76-4.78h-3.92c-2.63 0-4.76 2.14-4.76 4.78v4.34h13.45v-4.34Zm-2.5 1.84h-8.45v-1.83c0-1.25 1.02-2.27 2.26-2.27h3.92c1.25 0 2.26 1.02 2.26 2.27v1.83Zm-4.18 13.66c-2.71 0-4.92 2.22-4.92 4.94s2.21 4.94 4.92 4.94 4.92-2.22 4.92-4.94-2.21-4.94-4.92-4.94m0 7.37c-1.34 0-2.42-1.09-2.42-2.43s1.09-2.43 2.42-2.43a2.43 2.43 0 0 1 0 4.86m12.68-5.98-.93-1.61-1.42-2.47-.93-1.61-1.81.43-1.47.35c-.58-.42-1.2-.78-1.87-1.07l-.45-1.51-.54-1.79h-6.56l-.54 1.79-.45 1.51c-.64.29-1.26.64-1.82 1.04l-1.54-.36-1.81-.43-.93 1.61-1.42 2.47-.93 1.61 1.27 1.36 1.06 1.13c-.04.37-.07.74-.07 1.1 0 .34.02.68.06 1.03l-1.08 1.15-1.27 1.36.93 1.61 1.42 2.47.93 1.61 1.81-.43 1.5-.35c.57.41 1.18.77 1.83 1.06l.46 1.52.54 1.79h6.56l.54-1.79.44-1.47c.67-.29 1.3-.65 1.88-1.07l1.49.35 1.81.43.93-1.61 1.42-2.47.93-1.61-1.27-1.36-1.02-1.08c.05-.39.07-.77.07-1.14s-.02-.71-.06-1.08l1.03-1.1 1.27-1.36ZM32 35.27c0 .67-.11 1.31-.26 1.93l1.88 2.01-1.42 2.47-2.69-.64c-.92.87-2.04 1.51-3.29 1.87l-.8 2.67h-2.84l-.81-2.71a7.9 7.9 0 0 1-3.24-1.88l-2.71.64-1.42-2.47 1.93-2.06c-.14-.59-.23-1.2-.23-1.83s.1-1.29.25-1.9l-1.92-2.05 1.42-2.47 2.74.65a7.9 7.9 0 0 1 3.23-1.85l.81-2.7h2.84l.81 2.7c1.24.37 2.36 1 3.27 1.88l2.68-.63 1.42 2.47-1.9 2.02c.15.61.25 1.23.25 1.88"/>
</svg>
