<svg viewBox="0 0 64 64" xmlns="http://www.w3.org/2000/svg">
  <path d="M3.55 11.54c0-2.98 2.44-5.41 5.43-5.41s5.43 2.43 5.43 5.41-2.44 5.41-5.43 5.41-5.43-2.43-5.43-5.41m13.96 13.99c0-3.36-2.74-6.09-6.11-6.09H6.12c-3.37 0-6.11 2.73-6.11 6.09v5.5H17.5v-5.5Zm37.76-8.58c2.99 0 5.43-2.43 5.43-5.41s-2.44-5.41-5.43-5.41-5.43 2.43-5.43 5.41 2.44 5.41 5.43 5.41m2.64 2.49h-5.28c-3.37 0-6.11 2.73-6.11 6.09v5.5h17.49v-5.5c0-3.36-2.74-6.09-6.11-6.09Zm-25.89-8.62c2.99 0 5.43-2.43 5.43-5.41S35.01 0 32.02 0s-5.43 2.43-5.43 5.41 2.44 5.41 5.43 5.41m8.74 8.58c0-3.36-2.74-6.08-6.11-6.08h-5.28c-3.37 0-6.11 2.73-6.11 6.08v5.5h17.49v-5.5Zm7.33 21.1-3.15 3.34c.24 1 .41 2.03.41 3.11s-.18 2.16-.43 3.19l3.14 3.32-2.37 4.09-4.48-1.05c-1.52 1.44-3.4 2.49-5.48 3.08l-1.33 4.41h-4.74l-1.35-4.47c-2.04-.61-3.89-1.66-5.39-3.11l-4.51 1.06-2.37-4.09 3.22-3.41c-.23-.98-.39-1.98-.39-3.03s.17-2.12.42-3.13l-3.2-3.39 2.37-4.09 4.56 1.07c1.5-1.42 3.34-2.46 5.38-3.06l1.35-4.46h4.74l1.35 4.46c2.07.61 3.93 1.66 5.44 3.11l4.46-1.05 2.37 4.09ZM37.4 46.95c0-2.91-2.37-5.28-5.29-5.28s-5.29 2.36-5.29 5.28 2.37 5.28 5.29 5.28 5.29-2.36 5.29-5.28"/>
</svg>
