<svg viewBox="0 0 48 48" xmlns="http://www.w3.org/2000/svg">
  <path d="M2.64 8.76c0-2.36 1.91-4.28 4.26-4.28s4.26 1.92 4.26 4.28-1.91 4.28-4.26 4.28-4.26-1.92-4.26-4.28m10.82 10.98c0-2.64-2.14-4.79-4.76-4.79H4.78c-2.63 0-4.76 2.15-4.76 4.79v3.84h13.45v-3.84Zm27.83-6.7c2.35 0 4.26-1.92 4.26-4.28s-1.91-4.28-4.26-4.28-4.26 1.92-4.26 4.28 1.91 4.28 4.26 4.28m1.96 1.91h-3.92c-2.63 0-4.76 2.15-4.76 4.79v3.84h13.45v-3.84c0-2.64-2.14-4.79-4.76-4.79ZM24.02 8.63c2.35 0 4.26-1.92 4.26-4.28S26.37.07 24.02.07s-4.26 1.92-4.26 4.28 1.91 4.28 4.26 4.28m6.72 6.69c0-2.64-2.14-4.79-4.76-4.79h-3.92c-2.63 0-4.76 2.15-4.76 4.79v3.84h13.45v-3.84Zm5.23 15.06-2.35 2.51c.18.75.31 1.53.31 2.34s-.13 1.63-.32 2.4l2.34 2.5-1.77 3.07-3.34-.79c-1.14 1.09-2.54 1.87-4.09 2.32l-.99 3.32h-3.53l-1.01-3.37a9.75 9.75 0 0 1-4.02-2.34l-3.36.8-1.77-3.07 2.4-2.56c-.17-.74-.29-1.49-.29-2.28s.13-1.6.31-2.36l-2.39-2.55 1.77-3.07 3.4.81a9.8 9.8 0 0 1 4.02-2.3l1.01-3.36h3.53l1.01 3.36c1.54.46 2.93 1.25 4.06 2.34l3.33-.79L36 30.38Zm-7.98 4.86c0-2.19-1.77-3.97-3.95-3.97s-3.95 1.78-3.95 3.97 1.77 3.97 3.95 3.97 3.95-1.78 3.95-3.97"/>
</svg>
