<svg viewBox="0 0 24 24" xmlns="http://www.w3.org/2000/svg">
  <path d="M3.59 6.54c1.3 0 2.36-1.06 2.36-2.36S4.89 1.82 3.59 1.82 1.23 2.88 1.23 4.18s1.06 2.36 2.36 2.36m0-2.97c.34 0 .61.28.61.61s-.28.61-.61.61-.61-.28-.61-.61.28-.61.61-.61m3.58 6.27C7.17 8.4 6 7.23 4.56 7.23H2.62C1.18 7.22.01 8.4.01 9.84v1.9h7.16zm-1.75.14H1.76v-.15c0-.47.39-.86.86-.86h1.94c.47 0 .86.39.86.86zm15.01-3.44c1.3 0 2.36-1.06 2.36-2.36s-1.06-2.36-2.36-2.36-2.36 1.06-2.36 2.36 1.06 2.36 2.36 2.36m0-2.97c.34 0 .61.28.61.61s-.28.61-.61.61-.61-.28-.61-.61.28-.61.61-.61m.97 3.65h-1.94c-1.44 0-2.61 1.17-2.61 2.61v1.9h7.16v-1.9c0-1.44-1.17-2.61-2.61-2.61m.86 2.76H18.6v-.15c0-.47.39-.86.86-.86h1.94c.47 0 .86.39.86.86zM12.02 4.72c1.3 0 2.36-1.06 2.36-2.36S13.32 0 12.02 0 9.66 1.06 9.66 2.36s1.06 2.36 2.36 2.36m0-2.97c.34 0 .61.28.61.61s-.28.61-.61.61-.61-.28-.61-.61.28-.61.61-.61m3.58 6.26c0-1.44-1.17-2.61-2.61-2.61h-1.94c-1.44 0-2.61 1.17-2.61 2.61v1.9h7.16zm-1.75.15h-3.66v-.15c0-.47.39-.86.86-.86h1.94c.47 0 .86.39.86.86zm-1.81 6.7a2.59 2.59 0 1 0 .001 5.181 2.59 2.59 0 0 0-.001-5.181m0 3.43c-.46 0-.84-.38-.84-.84s.38-.84.84-.84.84.38.84.84-.38.84-.84.84m6.64-2.41-.65-1.13-.66-1.15-.65-1.13-1.27.3-.44.1c-.16-.1-.33-.2-.5-.29l-.14-.45-.37-1.25h-3.93l-.37 1.25-.14.45c-.17.08-.33.18-.48.27l-.47-.11-1.27-.3-.65 1.13-.66 1.15-.65 1.13.89.95.32.34v.57l-.33.35-.89.95.65 1.13.66 1.15.65 1.13 1.27-.3.45-.11c.16.1.32.2.49.28l.14.46.37 1.25h3.93l.37-1.25.13-.43c.18-.09.35-.18.51-.29l.45.11 1.27.3.65-1.13.66-1.15.65-1.13-.89-.95-.29-.31c0-.11.01-.22.01-.32v-.3l.3-.32.89-.95Zm-2.93 1.57c0 .31-.05.61-.12.9l.88.94-.66 1.15-1.26-.3c-.43.41-.95.7-1.54.87l-.37 1.24h-1.33l-.38-1.26c-.57-.17-1.09-.47-1.51-.87l-1.27.3-.66-1.15.9-.96c-.07-.28-.11-.56-.11-.85s.05-.6.12-.88l-.9-.96.66-1.15 1.28.3c.42-.4.94-.69 1.51-.86l.38-1.26h1.33l.38 1.26c.58.17 1.1.47 1.53.87l1.25-.29.66 1.15-.89.94c.07.28.12.57.12.88Z"/>
</svg>
