<svg viewBox="0 0 32 32" xmlns="http://www.w3.org/2000/svg">
  <path d="M22.99 15.45h-1.03v-1.24h1.03c.36 0 .62.23.62.62 0 .41-.25.63-.62.63ZM8.83 16.69h1.4l-.69-2.52-.7 2.52Zm14.38.27h-1.25v1.35h1.22c.44 0 .71-.26.71-.68s-.26-.67-.68-.67m6.45-8.46c0 .74.6 1.34 1.34 1.34h1v4.81h-1a1.34 1.34 0 0 0 0 2.68h1v4.81h-1a1.34 1.34 0 0 0 0 2.68h1v4.81h-1c-.73 0-1.32.58-1.34 1.3v1.05h-4.81v-1a1.34 1.34 0 0 0-2.68 0v1h-4.81v-1a1.34 1.34 0 0 0-2.68 0v1H9.87v-1a1.34 1.34 0 0 0-2.68 0v1H2.34v-1c0-.74-.6-1.34-1.34-1.34H0v-4.81h1a1.34 1.34 0 0 0 0-2.68H0v-4.81h1a1.34 1.34 0 0 0 0-2.68H0V9.85h1a1.34 1.34 0 0 0 0-2.68H0V2.34h1c.74 0 1.34-.6 1.34-1.34V0h4.81v1a1.34 1.34 0 0 0 2.68 0V0h4.81v1a1.34 1.34 0 0 0 2.68 0V0h4.81v1a1.34 1.34 0 0 0 2.68 0V0h4.81v1c0 .74.6 1.34 1.34 1.34h1v4.81h-1c-.74 0-1.34.6-1.34 1.34ZM13.65 20.06l-2.51-7.59H7.97l-2.51 7.59h2.41l.44-1.56h2.41l.43 1.56zm5.54-7.92h-2.17l-3.17 7.91h2.22l3.11-7.91Zm7.09 5.56c0-.81-.46-1.36-1.29-1.68.65-.33.96-.77.96-1.51 0-1.45-1.06-2.05-3.11-2.05h-3.17v7.59h3.55c1.86 0 3.06-.65 3.06-2.35"/>
</svg>
