<svg viewBox="0 0 64 64" xmlns="http://www.w3.org/2000/svg">
  <path fill="#1d1d1b" d="m32 21.45 4.5 12.95h-9zm25.5 36.06H6.49V6.5h51v51Zm-8.7-8.61-13-34.5h-7.55l-12.9 34.5h7.1l3.1-8.9h12.9l3.1 8.9zM61 9.15c0 1.66 1.34 3 3 3v3.15c-1.66 0-3 1.34-3 3s1.34 3 3 3v3.15c-1.66 0-3 1.34-3 3s1.34 3 3 3v3.15c-1.66 0-3 1.34-3 3s1.34 3 3 3v3.15c-1.66 0-3 1.34-3 3s1.34 3 3 3v3.15c-1.66 0-3 1.34-3 3s1.34 3 3 3v3.08c-1.66 0-3 1.34-3 3h-3.14c0-1.66-1.34-3-3-3s-3 1.34-3 3h-3.14c0-1.66-1.34-3-3-3s-3 1.34-3 3h-3.14c0-1.66-1.34-3-3-3s-3 1.34-3 3h-3.14c0-1.66-1.34-3-3-3s-3 1.34-3 3H21.3c0-1.66-1.34-3-3-3s-3 1.34-3 3h-3.14c0-1.66-1.34-3-3-3s-3 1.34-3 3H3a2.993 2.993 0 0 0-2.99-2.93V57.9c1.66 0 3-1.34 3-3S1.65 51.92 0 51.92v-3.15c1.66 0 3-1.34 3-3s-1.35-3.01-3-3.01v-3.15c1.66 0 3-1.34 3-3s-1.35-3-3-3v-3.15c1.66 0 3-1.34 3-3s-1.35-3-3-3v-3.15c1.66 0 3-1.34 3-3S1.65 15.3 0 15.3v-3.15c1.66 0 3-1.34 3-3s-1.35-3-3-3V3c1.65 0 3-1.35 3-3h3.14c0 1.66 1.34 3 3 3s3-1.35 3-3h3.14c0 1.66 1.34 3 3 3s3-1.35 3-3h3.14c0 1.66 1.34 3 3 3s3-1.35 3-3h3.14c0 1.66 1.34 3 3 3s3.01-1.35 3.01-3h3.14c0 1.66 1.34 3 3 3s3-1.35 3-3h3.14c0 1.66 1.34 3 3 3s3-1.35 3-3h3.14c0 1.66 1.34 3 3 3v3.15c-1.66 0-3 1.34-3 3ZM58.5 5.5H5.49v53h53v-53Z"/>
</svg>
