<svg viewBox="0 0 24 24" xmlns="http://www.w3.org/2000/svg">
  <path d="m6.23 9.52-1.82 5.52h1.75l.32-1.14h1.75l.31 1.14h1.82L8.54 9.52h-2.3Zm.62 3.07.51-1.83.5 1.83H6.84Zm5.96-3.3h1.58l-2.26 5.75h-1.62zm5.8 2.81c.47-.24.7-.56.7-1.1 0-1.06-.77-1.49-2.26-1.49h-2.3v5.52h2.58c1.35 0 2.23-.47 2.23-1.71 0-.59-.34-.99-.94-1.22Zm-2.2-1.32h.75c.26 0 .45.17.45.45 0 .3-.18.46-.45.46h-.75v-.9Zm.88 3h-.89v-.98h.91c.3 0 .5.18.5.49s-.2.5-.52.5Zm5.83-8.21H24V1.74h-.88c-.47 0-.86-.39-.86-.86V0h-3.84v.88c0 .48-.39.86-.86.86s-.86-.39-.86-.86V0h-3.84v.88c0 .48-.39.86-.86.86s-.86-.39-.86-.86V0H7.3v.88c0 .48-.39.86-.86.86s-.86-.39-.86-.86V0H1.74v.88c0 .48-.39.86-.86.86H0v3.84h.88c.47 0 .86.39.86.86s-.39.86-.86.86H0v3.84h.88c.47 0 .86.39.86.86s-.39.86-.86.86H0v3.84h.88c.47 0 .86.39.86.86s-.39.86-.86.86H0v3.84h.88c.47 0 .86.39.86.86V24h3.84v-.88c0-.48.39-.86.86-.86s.86.39.86.86V24h3.84v-.88c0-.48.39-.86.86-.86s.86.39.86.86V24h3.84v-.88c0-.48.39-.86.86-.86s.86.39.86.86V24h3.84v-.88c0-.47.39-.86.86-.86H24v-3.84h-.88c-.47 0-.86-.39-.86-.86s.39-.86.86-.86H24v-3.84h-.88c-.47 0-.86-.39-.86-.86s.39-.86.86-.86H24V7.3h-.88c-.47 0-.86-.39-.86-.86s.39-.86.86-.86Zm-.87-1.6c-1.01.36-1.74 1.33-1.74 2.46s.73 2.1 1.74 2.46v.63c-1.01.36-1.74 1.33-1.74 2.46s.73 2.1 1.74 2.46v.64c-1.01.36-1.74 1.33-1.74 2.46s.73 2.1 1.74 2.46v.64c-.74.26-1.33.85-1.59 1.59h-.64c-.36-1.01-1.33-1.74-2.46-1.74s-2.1.73-2.46 1.74h-.64c-.36-1.01-1.33-1.74-2.46-1.74s-2.1.73-2.46 1.74H8.9c-.36-1.01-1.33-1.74-2.46-1.74s-2.1.73-2.46 1.74h-.64c-.26-.74-.85-1.32-1.59-1.59V20c1.01-.36 1.74-1.33 1.74-2.46s-.73-2.1-1.74-2.46v-.64c1.01-.36 1.74-1.33 1.74-2.46s-.73-2.1-1.74-2.46v-.64c1.01-.36 1.74-1.33 1.74-2.46s-.73-2.1-1.74-2.46v-.64c.74-.26 1.32-.85 1.59-1.59h.64c.36 1.01 1.33 1.74 2.46 1.74s2.1-.73 2.46-1.74h.64C9.9 2.74 10.87 3.47 12 3.47s2.1-.73 2.46-1.74h.64c.36 1.01 1.33 1.74 2.46 1.74s2.1-.73 2.46-1.74h.64c.26.74.85 1.32 1.59 1.59v.63Z"/>
</svg>
