<svg viewBox="0 0 32 32" xmlns="http://www.w3.org/2000/svg">
  <path d="M8.24 23.74h15.6V8.14H8.24zm8.98-8.08h1.75v-1.78h1.38v1.78h1.75v1.28h-1.75v1.79h-1.38v-1.79h-1.75zm-4.65-3.46h2.14l2.3 6.52H15.2l-.45-1.49H12.5l-.46 1.49h-1.75zM31 7.16h1V2.34h-1c-.74 0-1.34-.6-1.34-1.34V0h-4.81v1a1.34 1.34 0 0 1-2.68 0V0h-4.81v1a1.34 1.34 0 0 1-2.68 0V0H9.87v1a1.34 1.34 0 0 1-2.68 0V0H2.34v1c0 .74-.6 1.34-1.34 1.34H0v4.81h1a1.34 1.34 0 0 1 0 2.68H0v4.81h1a1.34 1.34 0 0 1 0 2.68H0v4.81h1a1.34 1.34 0 0 1 0 2.68H0v4.81h1c.74 0 1.34.6 1.34 1.34v1h4.81v-1a1.34 1.34 0 0 1 2.68 0v1h4.81v-1a1.34 1.34 0 0 1 2.68 0v1h4.81v-1a1.34 1.34 0 0 1 2.68 0v1h4.81v-1.05c.02-.72.62-1.3 1.34-1.3h1V24.8h-1a1.34 1.34 0 0 1 0-2.68h1v-4.81h-1a1.34 1.34 0 0 1 0-2.68h1V9.82h-1a1.34 1.34 0 0 1 0-2.68Zm-5.15 17.58c0 .55-.45 1-1 1H7.24c-.55 0-1-.45-1-1V7.14c0-.55.45-1 1-1h17.6c.55 0 1 .45 1 1v17.6Zm-11.5-8.84h-1.43l.72-2.31z"/>
</svg>
