<svg viewBox="0 0 24 24" xmlns="http://www.w3.org/2000/svg">
  <path d="M6.38 17.61h11.31V6.3H6.38v11.3Zm4.26-9.82h2.72l2.92 8.28h-2.29l-.58-1.9h-2.86l-.59 1.9H7.74l2.89-8.28Zm2.25 4.7h-1.81l.91-2.93zm10.23-6.92H24V1.74h-.88c-.47 0-.86-.39-.86-.86V0h-3.84v.88c0 .48-.39.86-.86.86s-.86-.39-.86-.86V0h-3.84v.88c0 .48-.39.86-.86.86s-.86-.39-.86-.86V0H7.3v.88c0 .48-.39.86-.86.86s-.86-.39-.86-.86V0H1.74v.88c0 .48-.39.86-.86.86H0v3.84h.88c.47 0 .86.39.86.86s-.39.86-.86.86H0v3.84h.88c.47 0 .86.39.86.86s-.39.86-.86.86H0v3.84h.88c.47 0 .86.39.86.86s-.39.86-.86.86H0v3.84h.88c.47 0 .86.39.86.86V24h3.84v-.88c0-.48.39-.86.86-.86s.86.39.86.86V24h3.84v-.88c0-.48.39-.86.86-.86s.86.39.86.86V24h3.84v-.88c0-.48.39-.86.86-.86s.86.39.86.86V24h3.84v-.88c0-.47.39-.86.86-.86H24v-3.84h-.88c-.47 0-.86-.39-.86-.86s.39-.86.86-.86H24v-3.84h-.88c-.47 0-.86-.39-.86-.86s.39-.86.86-.86H24V7.3h-.88c-.47 0-.86-.39-.86-.86s.39-.86.86-.86Zm-3.68 12.91c0 .48-.39.88-.88.88H5.5c-.48 0-.88-.39-.88-.88V5.43c0-.48.39-.88.88-.88h13.06c.48 0 .88.39.88.88v13.06Z"/>
</svg>
