<svg viewBox="0 0 24 24" xmlns="http://www.w3.org/2000/svg">
  <path d="M10.55 14.18h2.86l.58 1.9h2.29L13.36 7.8h-2.72l-2.89 8.28h2.22l.59-1.9Zm1.44-4.62.9 2.93h-1.81zm11.13-3.99H24V1.74h-.88c-.47 0-.86-.39-.86-.86V0h-3.84v.88c0 .48-.39.86-.86.86s-.86-.39-.86-.86V0h-3.84v.88c0 .48-.39.86-.86.86s-.86-.39-.86-.86V0H7.3v.88c0 .48-.39.86-.86.86s-.86-.39-.86-.86V0H1.74v.88c0 .48-.39.86-.86.86H0v3.84h.88c.47 0 .86.39.86.86s-.39.86-.86.86H0v3.84h.88c.47 0 .86.39.86.86s-.39.86-.86.86H0v3.84h.88c.47 0 .86.39.86.86s-.39.86-.86.86H0v3.84h.88c.47 0 .86.39.86.86V24h3.84v-.88c0-.48.39-.86.86-.86s.86.39.86.86V24h3.84v-.88c0-.48.39-.86.86-.86s.86.39.86.86V24h3.84v-.88c0-.48.39-.86.86-.86s.86.39.86.86V24h3.84v-.88c0-.47.39-.86.86-.86H24v-3.84h-.88c-.47 0-.86-.39-.86-.86s.39-.86.86-.86H24v-3.84h-.88c-.47 0-.86-.39-.86-.86s.39-.86.86-.86H24V7.3h-.88c-.47 0-.86-.39-.86-.86s.39-.86.86-.86Zm-.87-1.6c-1.01.36-1.74 1.33-1.74 2.46s.73 2.1 1.74 2.46v.63c-1.01.36-1.74 1.33-1.74 2.46s.73 2.1 1.74 2.46v.64c-1.01.36-1.74 1.33-1.74 2.46s.73 2.1 1.74 2.46v.64c-.74.26-1.33.85-1.59 1.59h-.64c-.36-1.01-1.33-1.74-2.46-1.74s-2.1.73-2.46 1.74h-.64c-.36-1.01-1.33-1.74-2.46-1.74s-2.1.73-2.46 1.74H8.9c-.36-1.01-1.33-1.74-2.46-1.74s-2.1.73-2.46 1.74h-.64c-.26-.74-.85-1.32-1.59-1.59V20c1.01-.36 1.74-1.33 1.74-2.46s-.73-2.1-1.74-2.46v-.64c1.01-.36 1.74-1.33 1.74-2.46s-.73-2.1-1.74-2.46v-.64c1.01-.36 1.74-1.33 1.74-2.46s-.73-2.1-1.74-2.46v-.64c.74-.26 1.32-.85 1.59-1.59h.64c.36 1.01 1.33 1.74 2.46 1.74s2.1-.73 2.46-1.74h.64C9.9 2.74 10.87 3.47 12 3.47s2.1-.73 2.46-1.74h.64c.36 1.01 1.33 1.74 2.46 1.74s2.1-.73 2.46-1.74h.64c.26.74.85 1.32 1.59 1.59v.63Zm-3.69.58H5.5c-.48 0-.88.39-.88.88v13.06c0 .48.39.88.88.88h13.06c.48 0 .88-.39.88-.88V5.43c0-.48-.39-.88-.88-.88m-.88 13.06H6.38V6.3h11.31v11.3Z"/>
</svg>
