<svg viewBox="0 0 24 24" xmlns="http://www.w3.org/2000/svg">
  <path d="M17.16 11.69h-.75v-.9h.75c.26 0 .45.17.45.45 0 .3-.18.46-.45.46Zm-10.31.9h1.02l-.5-1.83-.51 1.83Zm10.47.2h-.91v.98h.89c.32 0 .52-.19.52-.5s-.19-.49-.5-.49Zm4.94-6.36c0 .48.39.86.86.86H24v3.84h-.88c-.47 0-.86.39-.86.86s.39.86.86.86H24v3.84h-.88c-.47 0-.86.39-.86.86s.39.86.86.86H24v3.84h-.88c-.47 0-.86.39-.86.86v.88h-3.84v-.88c0-.48-.39-.86-.86-.86s-.86.39-.86.86v.88h-3.84v-.88c0-.48-.39-.86-.86-.86s-.86.39-.86.86v.88H7.3v-.88c0-.48-.39-.86-.86-.86s-.86.39-.86.86v.88H1.74v-.88a.86.86 0 0 0-.86-.86H0v-3.84h.88c.47 0 .86-.39.86-.86s-.39-.86-.86-.86H0v-3.84h.88c.47 0 .86-.39.86-.86s-.39-.86-.86-.86H0V7.29h.88c.47 0 .86-.39.86-.86s-.39-.86-.86-.86H0V1.74h.88c.47 0 .86-.39.86-.86V0h3.84v.88c0 .48.39.86.86.86s.86-.39.86-.86V0h3.84v.88c0 .48.39.86.86.86s.86-.39.86-.86V0h3.84v.88c0 .48.39.86.86.86s.86-.39.86-.86V0h3.84v.88c0 .48.39.86.86.86H24v3.84h-.88c-.47 0-.86.39-.86.86Zm-11.9 8.61L8.54 9.52h-2.3l-1.82 5.52h1.75l.32-1.14h1.75l.31 1.14h1.82Zm4.03-5.75h-1.58l-2.3 5.75h1.62zm5.16 4.04c0-.59-.34-.99-.94-1.22.47-.24.7-.56.7-1.1 0-1.06-.77-1.49-2.26-1.49h-2.3v5.52h2.58c1.35 0 2.23-.47 2.23-1.71Z"/>
</svg>
