<svg viewBox="0 0 64 64" xmlns="http://www.w3.org/2000/svg">
  <path d="M44.78 29.83h-1.97v-2.37h1.97c.69 0 1.18.44 1.18 1.18 0 .78-.48 1.2-1.18 1.2Zm.42 2.89h-2.39v2.58h2.33c.84 0 1.36-.5 1.36-1.3s-.5-1.28-1.3-1.28m-27.45-.52h2.67l-1.32-4.81-1.34 4.81Zm41.46-15.52c0 1.88 1.53 3.41 3.41 3.41H64v8.49h-1.38c-1.88 0-3.41 1.53-3.41 3.41s1.53 3.41 3.41 3.41H64v8.49h-1.38c-1.88 0-3.41 1.53-3.41 3.41s1.53 3.41 3.41 3.41H64v8.49h-1.38a3.42 3.42 0 0 0-3.41 3.31V64h-8.49v-1.38c0-1.88-1.53-3.41-3.41-3.41s-3.41 1.53-3.41 3.41V64h-8.49v-1.38c0-1.88-1.53-3.41-3.41-3.41s-3.41 1.53-3.41 3.41V64H20.1v-1.38c0-1.88-1.53-3.41-3.41-3.41s-3.41 1.53-3.41 3.41V64H4.79v-1.38c0-1.88-1.53-3.41-3.41-3.41H0v-8.49h1.38c1.88 0 3.41-1.53 3.41-3.41S3.26 43.9 1.38 43.9H0v-8.49h1.38c1.88 0 3.41-1.53 3.41-3.41s-1.53-3.41-3.41-3.41H0V20.1h1.38c1.88 0 3.41-1.53 3.41-3.41s-1.53-3.41-3.41-3.41H0v-8.5h1.38c1.88 0 3.41-1.53 3.41-3.41V0h8.49v1.38c0 1.88 1.53 3.41 3.41 3.41s3.41-1.53 3.41-3.41V0h8.49v1.38c0 1.88 1.53 3.41 3.41 3.41s3.41-1.53 3.41-3.41V0h8.49v1.38c0 1.88 1.53 3.41 3.41 3.41s3.41-1.53 3.41-3.41V0h8.49v1.38c0 1.88 1.53 3.41 3.41 3.41H64v8.49h-1.38c-1.88 0-3.41 1.53-3.41 3.41ZM26.95 38.62l-4.79-14.49h-6.05l-4.79 14.49h4.6l.84-2.98h4.6l.82 2.98zm10.56-15.09h-4.14l-6.05 15.1h4.24l5.94-15.1Zm13.55 10.6c0-1.55-.88-2.6-2.46-3.21 1.24-.63 1.83-1.47 1.83-2.88 0-2.77-2.02-3.91-5.94-3.91h-6.05v14.49h6.78c3.55 0 5.84-1.24 5.84-4.49"/>
</svg>
