<svg viewBox="0 0 16 16" xmlns="http://www.w3.org/2000/svg">
  <path d="M7.18 8.5h.33l1.29 1.84h1.42L8.78 8.36C9.45 8.16 9.8 7.72 9.8 7c0-1.18-.93-1.49-2.17-1.49H5.96v4.84h1.23V8.51Zm.01-2.02h.49c.48 0 .83.07.83.55s-.34.55-.82.55h-.5V6.49Zm8.04-2.49h.75V1.13h-.75a.38.38 0 0 1-.38-.38V0h-2.86v.75a.38.38 0 1 1-.76 0V0H8.37v.75a.38.38 0 1 1-.76 0V0H4.75v.75a.38.38 0 1 1-.76 0V0H1.11v.75c0 .21-.17.38-.38.38h-.75v2.86h.75a.38.38 0 1 1 0 .76h-.75v2.86h.75a.38.38 0 1 1 0 .76h-.75v2.86h.75a.38.38 0 1 1 0 .76h-.75v2.86h.75c.21 0 .38.17.38.38v.75h2.86v-.75a.38.38 0 1 1 .76 0v.75h2.86v-.75a.38.38 0 1 1 .76 0v.75h2.86v-.75a.38.38 0 1 1 .76 0v.75h2.86v-.75c0-.21.17-.38.38-.38h.75v-2.86h-.75a.38.38 0 1 1 0-.76h.75V8.37h-.75a.38.38 0 1 1 0-.76h.75V4.75h-.75a.38.38 0 1 1 0-.76Zm-.75-1.34c-.67.29-1.13.96-1.13 1.73s.47 1.44 1.13 1.73v.17c-.67.29-1.13.96-1.13 1.73s.47 1.44 1.13 1.73v.17c-.67.29-1.13.96-1.13 1.73s.47 1.44 1.13 1.73v.17c-.44.19-.79.54-.98.98h-.17c-.29-.67-.96-1.13-1.73-1.13s-1.44.47-1.73 1.13H9.7c-.29-.67-.96-1.13-1.73-1.13s-1.44.47-1.73 1.13h-.17c-.29-.67-.96-1.13-1.73-1.13s-1.44.47-1.73 1.13h-.17c-.19-.44-.54-.79-.98-.98v-.17c.67-.29 1.13-.96 1.13-1.73s-.47-1.44-1.13-1.73v-.17c.67-.29 1.13-.96 1.13-1.73s-.47-1.44-1.13-1.73v-.17c.67-.29 1.13-.96 1.13-1.73s-.47-1.44-1.13-1.73v-.17c.44-.19.79-.54.98-.98h.17c.29.67.96 1.13 1.73 1.13s1.44-.47 1.73-1.13h.17c.29.67.96 1.13 1.73 1.13S9.41 2.16 9.7 1.5h.17c.29.67.96 1.13 1.73 1.13s1.44-.47 1.73-1.13h.17c.19.44.54.79.98.98zm-2.23.32h-8.5c-.41 0-.75.34-.75.75v8.51c0 .41.34.75.75.75h8.51c.41 0 .75-.34.75-.75V3.72c0-.41-.34-.75-.75-.75Zm-.75 8.5H4.49V4.46h7.01z"/>
</svg>
