<svg viewBox="0 0 24 24" xmlns="http://www.w3.org/2000/svg">
  <path d="M7.28 16.08c0 .52.05 1.03.14 1.53H6.37V6.3h11.31v1.14c-.52-.1-1.06-.15-1.61-.15-4.85 0-8.8 3.94-8.8 8.79ZM23.12 5.57H24V1.74h-.88c-.47 0-.86-.39-.86-.86V0h-3.84v.88c0 .48-.39.86-.86.86s-.86-.39-.86-.86V0h-3.84v.88c0 .48-.39.86-.86.86s-.86-.39-.86-.86V0H7.3v.88c0 .48-.39.86-.86.86s-.86-.39-.86-.86V0H1.74v.88c0 .48-.39.86-.86.86H0v3.84h.88c.47 0 .86.39.86.86s-.39.86-.86.86H0v3.84h.88c.47 0 .86.39.86.86s-.39.86-.86.86H0v3.84h.88c.47 0 .86.39.86.86s-.39.86-.86.86H0v3.84h.88c.47 0 .86.39.86.86V24h3.84v-.88c0-.48.39-.86.86-.86s.86.39.86.86V24h3.84v-.65a8.85 8.85 0 0 1-3.21-3.99H5.51c-.48 0-.88-.39-.88-.88V5.43c0-.48.39-.88.88-.88h13.06c.48 0 .88.39.88.88v2.53c1.59.66 2.95 1.77 3.91 3.18h.65V7.3h-.88c-.47 0-.86-.39-.86-.86s.39-.86.86-.86ZM19.89 24h2.38v-.88c0-.47.39-.86.86-.86h.88v-2.38A8.88 8.88 0 0 1 19.9 24ZM24 16.08c0 3.28-1.99 6.09-4.84 7.3-.24.1-.48.19-.73.27-.5.15-1.01.26-1.55.32a7.925 7.925 0 0 1-8.73-7.88 7.925 7.925 0 0 1 8.73-7.88c.53.05 1.05.16 1.55.32A7.93 7.93 0 0 1 24 16.1Zm-4.69-3.19a.86.86 0 0 0-1.21.25l-2.9 4.39-1.53-1.64c-.33-.35-.89-.37-1.24-.04s-.37.88-.04 1.24l3.05 3.27 4.13-6.25c.27-.4.16-.95-.25-1.21Z"/>
</svg>
