<svg viewBox="0 0 48 48" xmlns="http://www.w3.org/2000/svg">
  <path d="M21.16 28.22h5.95l1.2 3.95h4.77l-6.07-17.25h-5.67l-6.02 17.25h4.62zm3-9.62 1.88 6.1h-3.77l1.9-6.1Zm22.59-8.28H48V3.55h-1.25a2.3 2.3 0 0 1-2.3-2.3V0h-6.76v1.25a2.3 2.3 0 0 1-4.6 0V0h-6.77v1.25a2.3 2.3 0 0 1-4.6 0V0h-6.77v1.25a2.3 2.3 0 0 1-4.6 0V0h-6.8v1.25a2.3 2.3 0 0 1-2.3 2.3H0v6.77h1.25a2.3 2.3 0 0 1 0 4.6H0v6.77h1.25a2.3 2.3 0 0 1 0 4.6H0v6.77h1.25a2.3 2.3 0 0 1 0 4.6H0v6.77h1.25a2.3 2.3 0 0 1 2.3 2.3v1.25h6.76v-1.25a2.3 2.3 0 0 1 4.6 0v1.25h6.77v-1.25a2.3 2.3 0 0 1 4.6 0v1.25h6.77v-1.25a2.3 2.3 0 0 1 4.6 0v1.25h6.77v-1.34a2.304 2.304 0 0 1 2.3-2.22h1.25v-6.76h-1.25a2.3 2.3 0 0 1 0-4.6h1.25V26.3h-1.25a2.3 2.3 0 0 1 0-4.6h1.25v-6.76h-1.25a2.3 2.3 0 0 1 0-4.6Zm-1.25 6.94v2.09c-2.05.55-3.55 2.42-3.55 4.64s1.51 4.09 3.55 4.64v2.09c-2.05.55-3.55 2.42-3.55 4.64s1.51 4.09 3.55 4.64v2.09a4.81 4.81 0 0 0-3.39 3.4h-2.09c-.55-2.04-2.42-3.55-4.64-3.55s-4.09 1.51-4.64 3.55h-2.1c-.55-2.04-2.42-3.55-4.64-3.55s-4.09 1.51-4.64 3.55h-2.1c-.55-2.04-2.42-3.55-4.64-3.55s-4.09 1.51-4.64 3.55H5.89A4.8 4.8 0 0 0 2.5 42.1V40c2.05-.55 3.55-2.42 3.55-4.64s-1.51-4.09-3.55-4.64v-2.1c2.05-.55 3.55-2.42 3.55-4.64s-1.51-4.09-3.55-4.64v-2.1c2.05-.55 3.55-2.42 3.55-4.64S4.54 8.51 2.5 7.96v-2.1a4.8 4.8 0 0 0 3.39-3.39h2.09c.55 2.04 2.42 3.55 4.64 3.55s4.09-1.51 4.64-3.55h2.1c.55 2.04 2.42 3.55 4.64 3.55s4.09-1.51 4.64-3.55h2.1c.55 2.04 2.42 3.55 4.64 3.55s4.09-1.51 4.64-3.55h2.09a4.8 4.8 0 0 0 3.39 3.39v2.09c-2.05.55-3.55 2.42-3.55 4.64s1.51 4.09 3.55 4.64Zm-8.08-7.95H10.71c-.69 0-1.25.56-1.25 1.25v26.7c0 .69.56 1.25 1.25 1.25h26.7c.69 0 1.25-.56 1.25-1.25v-26.7c0-.69-.56-1.25-1.25-1.25Zm-1.25 26.7H11.96v-24.2h24.2v24.2Z"/>
</svg>
