<svg viewBox="0 0 16 16" xmlns="http://www.w3.org/2000/svg">
  <path d="M10.19 8.85c0-.54-.27-.88-.8-1.09.41-.24.6-.53.6-.99 0-.96-.72-1.28-1.89-1.28H6.23v4.84h2.05c1.14 0 1.91-.41 1.91-1.48M7.46 6.46h.71c.33 0 .55.17.55.48 0 .33-.22.5-.55.5h-.71v-.97Zm0 2.9V8.29h.81c.41 0 .63.19.63.53s-.22.55-.64.55h-.81Zm7.79-5.38H16V1.12h-.75a.38.38 0 0 1-.38-.38V0h-2.86v.75a.38.38 0 1 1-.76 0V0H8.39v.75a.38.38 0 1 1-.76 0V0H4.77v.75a.38.38 0 1 1-.76 0V0H1.13v.75c0 .21-.17.38-.38.38H0v2.86h.75a.38.38 0 1 1 0 .76H0v2.86h.75a.38.38 0 1 1 0 .76H0v2.86h.75a.38.38 0 1 1 0 .76H0v2.86h.75c.21 0 .38.17.38.38v.75h2.86v-.75a.38.38 0 1 1 .76 0v.75h2.86v-.75a.38.38 0 1 1 .76 0v.75h2.86v-.75a.38.38 0 1 1 .76 0v.75h2.86v-.75c0-.21.17-.38.38-.38h.75v-2.86h-.75a.38.38 0 1 1 0-.76h.75V8.37h-.75a.38.38 0 1 1 0-.76h.75V4.75h-.75a.38.38 0 1 1 0-.76Zm-.75-1.34c-.67.29-1.13.95-1.13 1.73s.47 1.44 1.13 1.73v.17c-.67.29-1.13.95-1.13 1.73s.47 1.44 1.13 1.73v.17c-.67.29-1.13.95-1.13 1.73s.47 1.44 1.13 1.73v.17c-.44.19-.79.54-.98.98h-.17c-.29-.67-.96-1.13-1.73-1.13s-1.44.47-1.73 1.13h-.17c-.29-.67-.96-1.13-1.73-1.13s-1.44.47-1.73 1.13h-.17c-.29-.67-.96-1.13-1.73-1.13s-1.44.47-1.73 1.13h-.17c-.19-.44-.54-.79-.98-.98v-.17c.67-.29 1.13-.95 1.13-1.73s-.47-1.44-1.13-1.73v-.17c.67-.29 1.13-.95 1.13-1.73s-.47-1.44-1.13-1.73V6.1c.67-.29 1.13-.95 1.13-1.73s-.47-1.44-1.13-1.73v-.17c.44-.19.79-.54.98-.98h.17c.29.67.96 1.13 1.73 1.13s1.44-.47 1.73-1.13h.17c.29.67.96 1.13 1.73 1.13s1.44-.47 1.73-1.13h.17c.29.67.96 1.13 1.73 1.13s1.44-.47 1.73-1.13h.17c.19.44.54.79.98.98zm-2.23.32h-8.5c-.41 0-.75.34-.75.75v8.51c0 .41.34.75.75.75h8.51c.41 0 .75-.34.75-.75V3.71c0-.41-.34-.75-.75-.75Zm-.75 8.51H4.51V4.46h7.01z"/>
</svg>
