<svg viewBox="0 0 64 64" xmlns="http://www.w3.org/2000/svg">
  <path fill="#1d1d1b" d="M33.28 28h-5.6v-8.5h5.6c3.25 0 5.25 1.4 5.25 4.15 0 2.9-1.95 4.35-5.25 4.35m.35 5.1h-5.95v9.5h6.05c4.1 0 6.15-1.75 6.15-4.8s-2.05-4.7-6.25-4.7m23.89 24.41H6.51V6.5h51v51ZM46.93 37.9c0-3.95-1.75-6.25-5.45-7.95 2.9-2.05 4.05-4.3 4.05-7.35 0-7.1-5.65-8.8-12.75-8.8h-11.9v34.5h12.8c7.75 0 13.25-2.9 13.25-10.4M61.02 9.15c0 1.66 1.34 3 3 3v3.15c-1.66 0-3 1.34-3 3s1.34 3 3 3v3.15c-1.66 0-3 1.34-3 3s1.34 3 3 3v3.15c-1.66 0-3 1.34-3 3s1.34 3 3 3v3.15c-1.66 0-3 1.34-3 3s1.34 3 3 3v3.15c-1.66 0-3 1.34-3 3s1.34 3 3 3v3.08c-1.66 0-3 1.34-3 3h-3.14c0-1.66-1.34-3-3-3s-3 1.34-3 3h-3.14c0-1.66-1.34-3-3-3s-3 1.34-3 3H39.6c0-1.66-1.34-3-3-3s-3 1.34-3 3h-3.14c0-1.66-1.34-3-3-3s-3 1.34-3 3h-3.14c0-1.66-1.34-3-3-3s-3 1.34-3 3h-3.14c0-1.66-1.34-3-3-3s-3 1.34-3 3H3.02a2.993 2.993 0 0 0-2.99-2.93V57.9c1.66 0 3-1.34 3-3s-1.34-3-3-3v-3.15c1.66 0 3-1.34 3-3s-1.34-3-3-3V39.6c1.66 0 3-1.34 3-3s-1.34-3-3-3v-3.15c1.66 0 3-1.34 3-3S1.67 24.46.02 24.46v-3.15c1.66 0 3-1.34 3-3s-1.35-3.01-3-3.01v-3.15c1.66 0 3-1.34 3-3s-1.35-3-3-3V3c1.65 0 3-1.35 3-3h3.14c0 1.66 1.34 3 3 3s3-1.35 3-3h3.14c0 1.66 1.34 3 3 3s3-1.35 3-3h3.14c0 1.66 1.34 3 3 3s3-1.35 3-3h3.14c0 1.66 1.34 3 3 3s3.01-1.35 3.01-3h3.14c0 1.66 1.34 3 3 3s3-1.35 3-3h3.14c0 1.66 1.34 3 3 3s3-1.35 3-3h3.14c0 1.66 1.34 3 3 3v3.15c-1.66 0-3 1.34-3 3Zm-2.5-3.65H5.51v53h53v-53Z"/>
</svg>
