<svg viewBox="0 0 16 16" xmlns="http://www.w3.org/2000/svg">
  <path d="M4.3 6.2 3.16 9.66h1.1l.2-.71h1.1l.2.71H6.9L5.76 6.2H4.32Zm.39 1.93.32-1.15.32 1.15zm3.72-2.07h.99l-1.42 3.6H6.97zm3.63 1.76c.3-.15.44-.35.44-.69 0-.66-.48-.93-1.42-.93H9.62v3.46h1.62c.85 0 1.39-.3 1.39-1.07 0-.37-.21-.62-.59-.77m-1.38-.83h.47c.17 0 .28.11.28.28 0 .18-.12.29-.28.29h-.47zm.56 1.88h-.56v-.62h.57c.19 0 .31.12.31.31s-.13.31-.33.31Zm4.03-4.88H16V1.13h-.75a.38.38 0 0 1-.38-.38V0h-2.86v.75a.38.38 0 1 1-.76 0V0H8.39v.75a.38.38 0 1 1-.76 0V0H4.77v.75a.38.38 0 1 1-.76 0V0H1.13v.75c0 .21-.17.38-.38.38H0v2.86h.75a.38.38 0 1 1 0 .76H0v2.86h.75a.38.38 0 1 1 0 .76H0v2.86h.75a.38.38 0 1 1 0 .76H0v2.86h.75c.21 0 .38.17.38.38v.75h2.86v-.75a.38.38 0 1 1 .76 0v.75h2.86v-.75a.38.38 0 1 1 .76 0v.75h2.86v-.75a.38.38 0 1 1 .76 0v.75h2.86v-.75c0-.21.17-.38.38-.38h.75v-2.86h-.75a.38.38 0 1 1 0-.76h.75V8.37h-.75a.38.38 0 1 1 0-.76h.75V4.75h-.75a.38.38 0 1 1 0-.76Zm-.75-1.34c-.67.29-1.13.96-1.13 1.73s.47 1.44 1.13 1.73v.17c-.67.29-1.13.96-1.13 1.73s.47 1.44 1.13 1.73v.17c-.67.29-1.13.96-1.13 1.73s.47 1.44 1.13 1.73v.17c-.44.19-.79.54-.98.98h-.17c-.29-.67-.96-1.13-1.73-1.13s-1.44.47-1.73 1.13h-.17c-.29-.67-.96-1.13-1.73-1.13s-1.44.47-1.73 1.13h-.17c-.29-.67-.96-1.13-1.73-1.13s-1.44.47-1.73 1.13h-.17c-.19-.44-.54-.79-.98-.98v-.17c.67-.29 1.13-.96 1.13-1.73s-.47-1.44-1.13-1.73v-.17c.67-.29 1.13-.96 1.13-1.73s-.47-1.44-1.13-1.73v-.17c.67-.29 1.13-.96 1.13-1.73s-.47-1.44-1.13-1.73v-.17c.44-.19.79-.54.98-.98h.17c.29.67.96 1.13 1.73 1.13S5.8 2.16 6.09 1.5h.17c.29.67.96 1.13 1.73 1.13s1.44-.47 1.73-1.13h.17c.29.67.96 1.13 1.73 1.13s1.44-.47 1.73-1.13h.17c.19.44.54.79.98.98z"/>
</svg>
