<svg viewBox="0 0 64 64" xmlns="http://www.w3.org/2000/svg">
  <path fill="#1d1d1b" d="M64.01 6.15V3c-1.66 0-3-1.34-3-3h-3.14c0 1.66-1.34 3-3 3s-3-1.35-3-3h-3.14c0 1.66-1.34 3-3 3s-3-1.35-3-3h-3.14c0 1.66-1.34 3-3 3s-3.01-1.35-3.01-3h-3.14c0 1.66-1.34 3-3 3s-3-1.35-3-3H21.3c0 1.66-1.34 3-3 3s-3-1.35-3-3h-3.14c0 1.66-1.34 3-3 3s-3-1.35-3-3H3.02A3.01 3.01 0 0 1 .01 2.99v3.15c1.66 0 3 1.34 3 3s-1.34 3.01-3 3.01v3.15c1.66 0 3 1.34 3 3s-1.34 3-3 3v3.15c1.66 0 3 1.34 3 3s-1.34 3-3 3v3.15c1.66 0 3 1.34 3 3s-1.34 3-3 3v3.15c1.66 0 3 1.34 3 3s-1.34 3-3 3v3.15c1.66 0 3 1.34 3 3s-1.34 3-3 3v3.15c1.63 0 2.94 1.31 2.99 2.93h3.16c0-1.66 1.34-3 3-3s3 1.34 3 3h3.14c0-1.66 1.34-3 3-3s3 1.34 3 3h3.14c0-1.66 1.34-3 3-3s3 1.34 3 3h3.14c0-1.66 1.34-3 3-3s3 1.34 3 3h3.14c0-1.66 1.34-3 3-3s3 1.34 3 3h3.14c0-1.66 1.34-3 3-3s3 1.34 3 3H61c0-1.66 1.34-3 3-3V57.9c-1.66 0-3-1.34-3-3s1.34-3 3-3v-3.15c-1.66 0-3-1.34-3-3s1.34-3 3-3V39.6c-1.66 0-3-1.34-3-3s1.34-3 3-3v-3.15c-1.66 0-3-1.34-3-3s1.34-3 3-3V21.3c-1.66 0-3-1.34-3-3s1.34-3 3-3v-3.15c-1.66 0-3-1.34-3-3s1.34-3 3-3Zm-6 51.85h-52V6h52zM25.29 38.96h12.9l3.1 8.9h7.25l-13-34.5h-7.55l-12.9 34.5h7.1zm6.45-18.55 4.5 12.95h-9z"/>
</svg>
