<svg viewBox="0 0 48 48" xmlns="http://www.w3.org/2000/svg">
  <path d="M26.04 24.7h-3.77l1.9-6.1 1.88 6.1ZM11.96 11.81h24.2v24.2h-24.2zm3.36 20.36h4.62l1.22-3.95h5.95l1.2 3.95h4.77l-6.07-17.25h-5.67zm29.13-19.55a2.3 2.3 0 0 0 2.3 2.3H48v6.76h-1.25a2.3 2.3 0 0 0 0 4.6H48v6.76h-1.25a2.3 2.3 0 0 0 0 4.6H48v6.76h-1.25c-1.24 0-2.26.99-2.3 2.22v1.34h-6.77v-1.25a2.3 2.3 0 0 0-4.6 0v1.25h-6.77v-1.25a2.3 2.3 0 0 0-4.6 0v1.25h-6.77v-1.25a2.3 2.3 0 0 0-4.6 0v1.25H3.55v-1.25a2.3 2.3 0 0 0-2.3-2.3H0v-6.76h1.25a2.3 2.3 0 0 0 0-4.6H0v-6.77h1.25a2.3 2.3 0 0 0 0-4.6H0v-6.77h1.25a2.3 2.3 0 0 0 0-4.6H0V3.55h1.25a2.3 2.3 0 0 0 2.3-2.3V0h6.76v1.25a2.3 2.3 0 0 0 4.6 0V0h6.77v1.25a2.3 2.3 0 0 0 4.6 0V0h6.77v1.25a2.3 2.3 0 0 0 4.6 0V0h6.76v1.25a2.3 2.3 0 0 0 2.3 2.3h1.25v6.76h-1.25a2.3 2.3 0 0 0-2.3 2.3Zm-5.78-2.06c0-.69-.56-1.25-1.25-1.25H10.71c-.69 0-1.25.56-1.25 1.25v26.7c0 .69.56 1.25 1.25 1.25h26.7c.69 0 1.25-.56 1.25-1.25v-26.7Z"/>
</svg>
