<svg viewBox="0 0 32 32" xmlns="http://www.w3.org/2000/svg">
  <path fill="#1d1d1b" d="M28.52 3.5H3.51v25h25v-25ZM16.51 23.82h-6.14V7.26h5.71c3.41 0 6.12.82 6.12 4.22 0 1.46-.55 2.54-1.94 3.53 1.78.82 2.62 1.92 2.62 3.82 0 3.6-2.64 4.99-6.36 4.99Zm2.98-5.04c0 1.46-.98 2.3-2.95 2.3h-2.9v-4.56h2.86c2.02 0 3 .77 3 2.26Zm12.53-15.7V1.5c-.83 0-1.5-.67-1.5-1.5h-1.57c0 .83-.67 1.5-1.5 1.5s-1.5-.67-1.5-1.5h-1.57c0 .83-.67 1.5-1.5 1.5s-1.5-.67-1.5-1.5h-1.57c0 .83-.67 1.5-1.5 1.5s-1.5-.67-1.5-1.5h-1.57c0 .83-.67 1.5-1.5 1.5s-1.5-.67-1.5-1.5h-1.57c0 .83-.67 1.5-1.5 1.5S7.67.83 7.67 0H6.1c0 .83-.67 1.5-1.5 1.5S3.1.83 3.1 0H1.53C1.52.83.84 1.5.02 1.5v1.58c.83 0 1.5.67 1.5 1.5s-.68 1.5-1.5 1.5v1.58a1.496 1.496 0 1 1 0 2.99v1.58c.83 0 1.5.67 1.5 1.5s-.68 1.5-1.5 1.5v1.58c.83 0 1.5.67 1.5 1.5s-.67 1.5-1.5 1.5v1.58c.83 0 1.5.67 1.5 1.5s-.67 1.5-1.5 1.5v1.58c.83 0 1.5.67 1.5 1.5s-.67 1.5-1.5 1.5v1.58c.82 0 1.47.65 1.49 1.46h1.58c0-.83.67-1.5 1.5-1.5s1.5.67 1.5 1.5h1.57c0-.83.67-1.5 1.5-1.5s1.5.67 1.5 1.5h1.57c0-.83.67-1.5 1.5-1.5s1.5.67 1.5 1.5h1.57c0-.83.67-1.5 1.5-1.5s1.5.67 1.5 1.5h1.57c0-.83.67-1.5 1.5-1.5s1.5.67 1.5 1.5h1.57c0-.83.67-1.5 1.5-1.5s1.5.67 1.5 1.5h1.57c0-.83.67-1.5 1.5-1.5v-1.54c-.83 0-1.5-.67-1.5-1.5s.67-1.5 1.5-1.5v-1.58c-.83 0-1.5-.67-1.5-1.5s.67-1.5 1.5-1.5v-1.58c-.83 0-1.5-.67-1.5-1.5s.67-1.5 1.5-1.5v-1.58c-.83 0-1.5-.67-1.5-1.5s.67-1.5 1.5-1.5v-1.58c-.83 0-1.5-.67-1.5-1.5s.67-1.5 1.5-1.5V6.07c-.83 0-1.5-.67-1.5-1.5s.67-1.5 1.5-1.5Zm-2.5 26.43H2.51V2.5h27v27Zm-13.2-15.43h-2.69V10h2.69c1.56 0 2.52.67 2.52 1.99 0 1.39-.94 2.09-2.52 2.09"/>
</svg>
