<svg viewBox="0 0 16 16" xmlns="http://www.w3.org/2000/svg">
  <path fill="#1d1d1b" d="M9.84 9.37c0 .73-.49 1.15-1.47 1.15H6.92V8.24h1.43c1.01 0 1.5.38 1.5 1.13Zm4.43 4.88H1.77V1.75h12.5zm-2.73-4.86c0-.95-.42-1.5-1.31-1.91.7-.49.97-1.03.97-1.76 0-1.7-1.36-2.11-3.06-2.11H5.29v8.28h3.07c1.86 0 3.18-.7 3.18-2.5m3.73-7.1c0 .41.34.75.75.75v.79c-.41 0-.75.34-.75.75s.34.75.75.75v.79c-.41 0-.75.34-.75.75s.34.75.75.75v.79c-.41 0-.75.34-.75.75s.34.75.75.75v.79c-.41 0-.75.34-.75.75s.34.75.75.75v.79c-.41 0-.75.34-.75.75s.34.75.75.75v.77c-.41 0-.75.34-.75.75h-.79c0-.41-.34-.75-.75-.75s-.75.34-.75.75h-.79c0-.41-.34-.75-.75-.75s-.75.34-.75.75H9.9c0-.41-.34-.75-.75-.75s-.75.34-.75.75h-.79c0-.41-.34-.75-.75-.75s-.75.34-.75.75h-.79c0-.41-.34-.75-.75-.75s-.75.34-.75.75h-.79c0-.41-.34-.75-.75-.75s-.75.34-.75.75H.74a.745.745 0 0 0-.75-.73v-.79c.41 0 .75-.34.75-.75s-.34-.75-.75-.75v-.79c.41 0 .75-.34.75-.75s-.34-.75-.75-.75v-.79c.41 0 .75-.34.75-.75s-.34-.75-.75-.75v-.79c.41 0 .75-.34.75-.75s-.34-.75-.75-.75v-.79c.41 0 .75-.34.75-.75s-.31-.75-.72-.75v-.79c.41 0 .75-.34.75-.75s-.34-.75-.75-.75V.75C.43.75.77.41.77 0h.79c0 .41.34.75.75.75s.75-.34.75-.75h.79c0 .41.34.75.75.75s.75-.34.75-.75h.79c0 .41.34.75.75.75s.75-.34.75-.75h.79c0 .41.34.75.75.75s.75-.34.75-.75h.79c0 .41.34.75.75.75s.75-.34.75-.75h.79c0 .41.34.75.75.75s.75-.34.75-.75h.79c0 .41.34.75.75.75v.79c-.41 0-.75.34-.75.75Zm-.5-1.04H1.27v13.5h13.5zM9.52 5.97c0-.66-.48-1-1.26-1H6.92v2.04h1.34c.79 0 1.26-.35 1.26-1.04"/>
</svg>
