<svg viewBox="0 0 48 48" xmlns="http://www.w3.org/2000/svg">
  <path d="M24.95 21.84H22.4v-3.47h2.55c1.17 0 1.95.63 1.95 1.7 0 1.17-.78 1.77-1.95 1.77M11.96 11.8h24.2V36h-24.2zM18 32.16h7.32c4.07 0 6.8-1.47 6.8-5.27 0-1.92-.97-3.12-2.85-3.9 1.47-.85 2.13-1.9 2.13-3.52 0-3.42-2.58-4.55-6.75-4.55H18v17.25Zm26.45-19.54a2.3 2.3 0 0 0 2.3 2.3H48v6.76h-1.25a2.3 2.3 0 0 0 0 4.6H48v6.76h-1.25a2.3 2.3 0 0 0 0 4.6H48v6.76h-1.25c-1.24 0-2.26.99-2.3 2.22v1.34h-6.77v-1.25a2.3 2.3 0 0 0-4.6 0v1.25h-6.77v-1.25a2.3 2.3 0 0 0-4.6 0v1.25h-6.77v-1.25a2.3 2.3 0 0 0-4.6 0v1.25H3.55v-1.25a2.3 2.3 0 0 0-2.3-2.3H0v-6.77h1.25a2.3 2.3 0 0 0 0-4.6H0v-6.77h1.25a2.3 2.3 0 0 0 0-4.6H0V14.9h1.25a2.3 2.3 0 0 0 0-4.6H0V3.55h1.25a2.3 2.3 0 0 0 2.3-2.3V0h6.76v1.25a2.3 2.3 0 0 0 4.6 0V0h6.77v1.25a2.3 2.3 0 0 0 4.6 0V0h6.77v1.25a2.3 2.3 0 0 0 4.6 0V0h6.76v1.25a2.3 2.3 0 0 0 2.3 2.3h1.25v6.76h-1.25a2.3 2.3 0 0 0-2.3 2.3Zm-5.78-2.07c0-.69-.56-1.25-1.25-1.25H10.71c-.69 0-1.25.56-1.25 1.25v26.7c0 .69.56 1.25 1.25 1.25h26.7c.69 0 1.25-.56 1.25-1.25v-26.7ZM27.55 26.76c0-1.2-.8-1.88-2.25-1.88h-2.9v3.82h2.87c1.47 0 2.27-.72 2.27-1.95Z"/>
</svg>
