<svg viewBox="0 0 24 24" xmlns="http://www.w3.org/2000/svg">
  <path d="M10.61 12.93h.56l2.21 3.14h2.42l-2.47-3.4c1.15-.34 1.74-1.09 1.74-2.33 0-2.03-1.6-2.56-3.71-2.56H8.5v8.28h2.1v-3.14Zm.02-3.46h.84c.82 0 1.42.12 1.42.94s-.59.94-1.4.94h-.85V9.48Zm12.47-3.9h.88V1.74h-.88c-.47 0-.86-.39-.86-.86V0H18.4v.88c0 .48-.39.86-.86.86s-.86-.39-.86-.86V0h-3.84v.88c0 .48-.39.86-.86.86s-.86-.39-.86-.86V0H7.28v.88c0 .48-.39.86-.86.86s-.86-.39-.86-.86V0H1.72v.88c0 .48-.39.86-.86.86h-.88v3.84h.88c.48 0 .86.39.86.86s-.39.86-.86.86h-.88v3.84h.88c.48 0 .86.39.86.86s-.39.86-.86.86h-.88v3.84h.88c.48 0 .86.39.86.86s-.39.86-.86.86h-.88v3.84h.88c.48 0 .86.39.86.86V24h3.84v-.88c0-.48.39-.86.86-.86s.86.39.86.86V24h3.84v-.88c0-.48.39-.86.86-.86s.86.39.86.86V24h3.84v-.88c0-.48.39-.86.86-.86s.86.39.86.86V24h3.84v-.88c0-.47.39-.86.86-.86h.88v-3.84h-.88c-.47 0-.86-.39-.86-.86s.39-.86.86-.86h.88v-3.84h-.88c-.47 0-.86-.39-.86-.86s.39-.86.86-.86h.88V7.3h-.88c-.47 0-.86-.39-.86-.86s.39-.86.86-.86Zm-.87-1.6c-1.01.36-1.74 1.33-1.74 2.46s.73 2.1 1.74 2.46v.63c-1.01.36-1.74 1.33-1.74 2.46s.73 2.1 1.74 2.46v.64c-1.01.36-1.74 1.33-1.74 2.46s.73 2.1 1.74 2.46v.64c-.74.26-1.33.85-1.59 1.59H20c-.36-1.01-1.33-1.74-2.46-1.74s-2.1.73-2.46 1.74h-.64c-.36-1.01-1.33-1.74-2.46-1.74s-2.1.73-2.46 1.74h-.64c-.36-1.01-1.33-1.74-2.46-1.74s-2.1.73-2.46 1.74h-.64c-.26-.74-.85-1.32-1.59-1.59V20c1.01-.36 1.74-1.33 1.74-2.46s-.73-2.1-1.74-2.46v-.64c1.01-.36 1.74-1.33 1.74-2.46s-.73-2.1-1.74-2.46v-.64c1.01-.36 1.74-1.33 1.74-2.46s-.73-2.1-1.74-2.46v-.64c.74-.26 1.32-.85 1.59-1.59h.64c.36 1.01 1.33 1.74 2.46 1.74s2.1-.73 2.46-1.74h.64c.36 1.01 1.33 1.74 2.46 1.74s2.1-.73 2.46-1.74h.64c.36 1.01 1.33 1.74 2.46 1.74s2.1-.73 2.46-1.74h.64c.26.74.85 1.32 1.59 1.59v.63Zm-3.69.58H5.48c-.48 0-.88.39-.88.88v13.06c0 .48.39.88.88.88h13.06c.48 0 .88-.39.88-.88V5.43c0-.48-.39-.88-.88-.88m-.88 13.06H6.36V6.3h11.3v11.3Z"/>
</svg>
