<svg viewBox="0 0 48 48" xmlns="http://www.w3.org/2000/svg">
  <path d="M11.69 18.51 7.81 30.24h3.72l.68-2.41h3.72l.66 2.41h3.86l-3.88-11.73h-4.9Zm1.33 6.53 1.09-3.89 1.07 3.89zm12.65-7.02h3.35l-4.81 12.22h-3.43l4.9-12.22ZM37.99 24c1-.51 1.48-1.19 1.48-2.33 0-2.24-1.63-3.16-4.81-3.16h-4.9v11.73h5.49c2.87 0 4.73-1 4.73-3.64 0-1.26-.71-2.11-1.99-2.6m-4.69-2.8h1.6c.56 0 .95.36.95.95 0 .63-.39.97-.95.97h-1.6zm1.89 6.36H33.3v-2.09h1.94c.65 0 1.05.39 1.05 1.04s-.43 1.05-1.11 1.05Zm11.56-17.24H48V3.55h-1.25a2.3 2.3 0 0 1-2.3-2.3V0h-6.76v1.25a2.3 2.3 0 0 1-4.6 0V0h-6.77v1.25a2.3 2.3 0 0 1-4.6 0V0h-6.77v1.25a2.3 2.3 0 0 1-4.6 0V0h-6.8v1.25a2.3 2.3 0 0 1-2.3 2.3H0v6.77h1.25a2.3 2.3 0 0 1 0 4.6H0v6.77h1.25a2.3 2.3 0 0 1 0 4.6H0v6.77h1.25a2.3 2.3 0 0 1 0 4.6H0v6.77h1.25a2.3 2.3 0 0 1 2.3 2.3v1.25h6.76v-1.25a2.3 2.3 0 0 1 4.6 0v1.25h6.77v-1.25a2.3 2.3 0 0 1 4.6 0v1.25h6.77v-1.25a2.3 2.3 0 0 1 4.6 0v1.25h6.77v-1.34a2.304 2.304 0 0 1 2.3-2.22h1.25v-6.76h-1.25a2.3 2.3 0 0 1 0-4.6h1.25V26.3h-1.25a2.3 2.3 0 0 1 0-4.6h1.25v-6.76h-1.25a2.3 2.3 0 0 1 0-4.6Zm-1.25 6.94v2.09c-2.05.55-3.55 2.42-3.55 4.64s1.51 4.09 3.55 4.64v2.09c-2.05.55-3.55 2.42-3.55 4.64s1.51 4.09 3.55 4.64v2.09a4.81 4.81 0 0 0-3.39 3.4h-2.09c-.55-2.04-2.42-3.55-4.64-3.55s-4.09 1.51-4.64 3.55h-2.1c-.55-2.04-2.42-3.55-4.64-3.55s-4.09 1.51-4.64 3.55h-2.1c-.55-2.04-2.42-3.55-4.64-3.55s-4.09 1.51-4.64 3.55H5.89A4.8 4.8 0 0 0 2.5 42.1V40c2.05-.55 3.55-2.42 3.55-4.64s-1.51-4.09-3.55-4.64v-2.1c2.05-.55 3.55-2.42 3.55-4.64s-1.51-4.09-3.55-4.64v-2.1c2.05-.55 3.55-2.42 3.55-4.64S4.54 8.51 2.5 7.96v-2.1a4.8 4.8 0 0 0 3.39-3.39h2.09c.55 2.04 2.42 3.55 4.64 3.55s4.09-1.51 4.64-3.55h2.1c.55 2.04 2.42 3.55 4.64 3.55s4.09-1.51 4.64-3.55h2.1c.55 2.04 2.42 3.55 4.64 3.55s4.09-1.51 4.64-3.55h2.09a4.8 4.8 0 0 0 3.39 3.39v2.09c-2.05.55-3.55 2.42-3.55 4.64s1.51 4.09 3.55 4.64Z"/>
</svg>
