<svg viewBox="0 0 48 48" xmlns="http://www.w3.org/2000/svg">
  <path d="M36.29 26.51c0 .65-.43 1.05-1.11 1.05h-1.89v-2.09h1.94c.65 0 1.05.39 1.05 1.04Zm-.44-4.36c0-.6-.39-.95-.95-.95h-1.6v1.92h1.6c.56 0 .95-.34.95-.97m-22.83 2.89h2.16l-1.07-3.89zm31.43-12.42a2.3 2.3 0 0 0 2.3 2.3H48v6.76h-1.25a2.3 2.3 0 0 0 0 4.6H48v6.76h-1.25a2.3 2.3 0 0 0 0 4.6H48v6.76h-1.25c-1.24 0-2.26.99-2.3 2.22v1.34h-6.77v-1.25a2.3 2.3 0 0 0-4.6 0v1.25h-6.77v-1.25a2.3 2.3 0 0 0-4.6 0v1.25h-6.77v-1.25a2.3 2.3 0 0 0-4.6 0v1.25H3.55v-1.25a2.3 2.3 0 0 0-2.3-2.3H0v-6.76h1.25a2.3 2.3 0 0 0 0-4.6H0v-6.77h1.25a2.3 2.3 0 0 0 0-4.6H0v-6.77h1.25a2.3 2.3 0 0 0 0-4.6H0V3.55h1.25a2.3 2.3 0 0 0 2.3-2.3V0h6.76v1.25a2.3 2.3 0 0 0 4.6 0V0h6.77v1.25a2.3 2.3 0 0 0 4.6 0V0h6.77v1.25a2.3 2.3 0 0 0 4.6 0V0h6.76v1.25a2.3 2.3 0 0 0 2.3 2.3h1.25v6.76h-1.25a2.3 2.3 0 0 0-2.3 2.3ZM20.47 30.25l-3.88-11.73h-4.9L7.81 30.25h3.72l.68-2.41h3.72l.66 2.41h3.86Zm8.55-12.23h-3.35l-4.9 12.22h3.43l4.81-12.22Zm10.96 8.59c0-1.26-.71-2.11-1.99-2.6 1-.51 1.48-1.19 1.48-2.33 0-2.24-1.63-3.16-4.81-3.16h-4.9v11.73h5.49c2.87 0 4.73-1 4.73-3.64"/>
</svg>
