<svg viewBox="0 0 40 40" xmlns="http://www.w3.org/2000/svg">
  <path fill="#1d1d1b" d="M40.01 3.84V1.87c-1.04 0-1.88-.84-1.88-1.88h-1.96c0 1.04-.84 1.88-1.88 1.88s-1.88-.84-1.88-1.88h-1.96c0 1.04-.84 1.88-1.88 1.88s-1.88-.84-1.88-1.88h-1.96c0 1.04-.84 1.88-1.88 1.88s-1.88-.84-1.88-1.88h-1.96c0 1.04-.84 1.88-1.88 1.88S15.28 1.03 15.28 0h-1.96a1.876 1.876 0 1 1-3.75 0H7.61c0 1.04-.84 1.88-1.88 1.88S3.85 1.03 3.85 0H1.89c0 1.03-.84 1.87-1.88 1.87v1.97c1.04 0 1.88.84 1.88 1.88S1.05 7.59.01 7.59v1.97c1.04 0 1.88.84 1.88 1.88s-.84 1.88-1.88 1.88v1.97c1.04 0 1.88.84 1.88 1.88s-.84 1.88-1.88 1.88v1.97c1.04 0 1.88.84 1.88 1.88s-.84 1.88-1.88 1.88v1.97c1.04 0 1.88.84 1.88 1.88s-.84 1.88-1.88 1.88v1.97c1.04 0 1.88.84 1.88 1.88s-.84 1.88-1.88 1.88v1.97c1.02 0 1.84.82 1.87 1.83h1.97c0-1.04.84-1.88 1.88-1.88s1.88.84 1.88 1.88h1.96c0-1.04.84-1.88 1.88-1.88s1.88.84 1.88 1.88h1.96c0-1.04.84-1.88 1.88-1.88s1.88.84 1.88 1.88h1.96c0-1.04.84-1.88 1.88-1.88s1.88.84 1.88 1.88h1.96c0-1.04.84-1.88 1.88-1.88s1.88.84 1.88 1.88h1.96c0-1.04.84-1.88 1.88-1.88s1.88.84 1.88 1.88h1.96c0-1.04.84-1.88 1.88-1.88v-1.92c-1.04 0-1.88-.84-1.88-1.88s.84-1.88 1.88-1.88v-1.97c-1.04 0-1.88-.84-1.88-1.88s.84-1.88 1.88-1.88v-1.97c-1.04 0-1.88-.84-1.88-1.88s.84-1.88 1.88-1.88v-1.97c-1.04 0-1.88-.84-1.88-1.88s.84-1.88 1.88-1.88v-1.97c-1.04 0-1.88-.84-1.88-1.88s.84-1.88 1.88-1.88V7.59c-1.04 0-1.88-.84-1.88-1.88s.84-1.88 1.88-1.88Zm-3.75 32.41H3.76V3.75h32.5zM16.13 24.46h8.26l1.98 5.7h4.64L22.69 8.08h-4.83L9.61 30.16h4.54zm4.13-11.87 2.88 8.29h-5.76z"/>
</svg>
