<svg viewBox="0 0 40 40" xmlns="http://www.w3.org/2000/svg">
  <path d="M10.08 29.82h19.9V9.92h-19.9zm4.41-17.07h4.76c3.52 0 6.18.88 6.18 4.26 0 2.06-.98 3.32-2.9 3.88l4.12 5.66h-4.04l-3.68-5.24h-.94v5.24h-3.5zm4.94 5.92h-1.42v-3.12h1.4c1.36 0 2.36.2 2.36 1.56s-.98 1.56-2.34 1.56m19.42-9.99h1.12V2.89h-1.12a1.82 1.82 0 0 1-1.82-1.82V-.06h-5.79v1.12c0 1.01-.82 1.82-1.82 1.82s-1.82-.82-1.82-1.82V-.06h-5.79v1.12c0 1.01-.82 1.82-1.82 1.82s-1.82-.82-1.82-1.82V-.06h-5.79v1.12c0 1.01-.82 1.82-1.83 1.82s-1.82-.82-1.82-1.82V-.06h-5.8v1.12c0 1.01-.82 1.82-1.82 1.82H-.02v5.79H1.1c1.01 0 1.82.82 1.82 1.82s-.82 1.82-1.82 1.82H-.02v5.79H1.1c1.01 0 1.82.82 1.82 1.82s-.82 1.82-1.82 1.82H-.02v5.79H1.1c1.01 0 1.82.82 1.82 1.82s-.82 1.82-1.82 1.82H-.02v5.79H1.1c1.01 0 1.82.82 1.82 1.83v1.12h5.79v-1.12c0-1.01.82-1.83 1.82-1.83s1.83.82 1.83 1.83v1.12h5.79v-1.12c0-1.01.82-1.83 1.82-1.83s1.82.82 1.82 1.83v1.12h5.79v-1.12c0-1.01.82-1.83 1.82-1.83s1.82.82 1.82 1.83v1.12h5.79v-1.18c.03-.98.83-1.77 1.82-1.77h1.12v-5.79h-1.12c-1.01 0-1.82-.82-1.82-1.82s.82-1.82 1.82-1.82h1.12v-5.79h-1.12c-1.01 0-1.82-.82-1.82-1.82s.82-1.82 1.82-1.82h1.12v-5.79h-1.12c-1.01 0-1.82-.82-1.82-1.82s.82-1.82 1.82-1.82Zm-6.61 22.27c0 .62-.5 1.12-1.12 1.12H8.96c-.62 0-1.12-.5-1.12-1.12V8.79c0-.62.5-1.12 1.12-1.12h22.15c.62 0 1.12.5 1.12 1.12v22.15Z"/>
</svg>
