<svg viewBox="0 0 16 16" xmlns="http://www.w3.org/2000/svg">
  <path d="M8.38 9.36h-.81V8.29h.81c.41 0 .63.19.63.53s-.22.55-.64.55Zm.45-2.43c0-.3-.22-.48-.55-.48h-.72v.97h.72c.33 0 .55-.17.55-.5ZM4.52 4.46h7.01v7.01H4.52zm1.82 5.87h2.05c1.14 0 1.91-.41 1.91-1.48 0-.54-.27-.88-.8-1.09.41-.24.6-.53.6-.99 0-.96-.72-1.28-1.89-1.28H6.34zm8.53-5.96c0 .21.17.38.38.38H16v2.86h-.75a.38.38 0 1 0 0 .76H16v2.86h-.75a.38.38 0 1 0 0 .76H16v2.86h-.75a.38.38 0 0 0-.38.38v.75h-2.86v-.75a.38.38 0 1 0-.76 0v.75H8.39v-.75a.38.38 0 1 0-.76 0v.75H4.77v-.75a.38.38 0 1 0-.76 0v.75H1.13v-.75a.38.38 0 0 0-.38-.38H0v-2.86h.75a.38.38 0 1 0 0-.76H0V8.37h.75a.38.38 0 1 0 0-.76H0V4.75h.75a.38.38 0 1 0 0-.76H0V1.12h.75c.21 0 .38-.17.38-.38V0h2.86v.75a.38.38 0 1 0 .76 0V0h2.86v.75a.38.38 0 1 0 .76 0V0h2.86v.75a.38.38 0 1 0 .76 0V0h2.86v.75c0 .21.17.38.38.38h.75v2.86h-.75a.38.38 0 0 0-.38.38Zm-1.84-.66c0-.41-.34-.75-.75-.75H3.77c-.41 0-.75.34-.75.75v8.51c0 .41.34.75.75.75h8.51c.41 0 .75-.34.75-.75z"/>
</svg>
