<svg viewBox="0 0 24 24" xmlns="http://www.w3.org/2000/svg">
  <path d="M6.36 17.61h11.3V6.3H6.36v11.3Zm2.15-9.82h2.86c2.11 0 3.71.53 3.71 2.56 0 1.24-.59 1.99-1.74 2.33l2.47 3.4h-2.42l-2.21-3.14h-.56v3.14h-2.1V7.79Zm2.97 3.56h-.85V9.48h.84c.82 0 1.42.12 1.42.94s-.59.94-1.4.94ZM23.1 5.57h.88V1.74h-.88c-.47 0-.86-.39-.86-.86V0H18.4v.88c0 .48-.39.86-.86.86s-.86-.39-.86-.86V0h-3.84v.88c0 .48-.39.86-.86.86s-.86-.39-.86-.86V0H7.28v.88c0 .48-.39.86-.86.86s-.86-.39-.86-.86V0H1.72v.88c0 .48-.39.86-.86.86h-.88v3.84h.88c.48 0 .86.39.86.86s-.39.86-.86.86h-.88v3.84h.88c.48 0 .86.39.86.86s-.39.86-.86.86h-.88v3.84h.88c.48 0 .86.39.86.86s-.39.86-.86.86h-.88v3.84h.88c.48 0 .86.39.86.86V24h3.84v-.88c0-.48.39-.86.86-.86s.86.39.86.86V24h3.84v-.88c0-.48.39-.86.86-.86s.86.39.86.86V24h3.84v-.88c0-.48.39-.86.86-.86s.86.39.86.86V24h3.84v-.88c0-.47.39-.86.86-.86h.88v-3.84h-.88c-.47 0-.86-.39-.86-.86s.39-.86.86-.86h.88v-3.84h-.88c-.47 0-.86-.39-.86-.86s.39-.86.86-.86h.88V7.3h-.88c-.47 0-.86-.39-.86-.86s.39-.86.86-.86Zm-3.69 12.91c0 .48-.39.88-.88.88H5.48c-.48 0-.88-.39-.88-.88V5.43c0-.48.39-.88.88-.88h13.06c.48 0 .88.39.88.88v13.06Z"/>
</svg>
