<svg viewBox="0 0 48 48" xmlns="http://www.w3.org/2000/svg">
  <path d="M21.32 25.62h1.17l4.6 6.55h5.05l-5.15-7.07c2.4-.7 3.62-2.27 3.62-4.85 0-4.22-3.32-5.32-7.72-5.32h-5.95v17.25h4.37v-6.55Zm.02-7.2h1.75c1.7 0 2.95.25 2.95 1.95s-1.23 1.95-2.92 1.95h-1.77v-3.9Zm25.39-8.1h1.25V3.55h-1.25a2.3 2.3 0 0 1-2.3-2.3V0h-6.77v1.25a2.3 2.3 0 0 1-4.6 0V0h-6.77v1.25a2.3 2.3 0 0 1-4.6 0V0h-6.77v1.25a2.3 2.3 0 0 1-4.6 0V0H3.53v1.25a2.3 2.3 0 0 1-2.3 2.3H-.02v6.77h1.25a2.3 2.3 0 0 1 0 4.6H-.02v6.77h1.25a2.3 2.3 0 0 1 0 4.6H-.02v6.77h1.25a2.3 2.3 0 0 1 0 4.6H-.02v6.77h1.25a2.3 2.3 0 0 1 2.3 2.3v1.25h6.77v-1.25a2.3 2.3 0 0 1 4.6 0v1.25h6.77v-1.25a2.3 2.3 0 0 1 4.6 0v1.25h6.77v-1.25a2.3 2.3 0 0 1 4.6 0v1.25h6.77v-1.34a2.304 2.304 0 0 1 2.3-2.22h1.25v-6.76h-1.25a2.3 2.3 0 0 1 0-4.6h1.25V26.3h-1.25a2.3 2.3 0 0 1 0-4.6h1.25v-6.76h-1.25a2.3 2.3 0 0 1 0-4.6Zm-1.25 6.94v2.09c-2.05.55-3.55 2.42-3.55 4.64s1.51 4.09 3.55 4.64v2.09c-2.05.55-3.55 2.42-3.55 4.64s1.51 4.09 3.55 4.64v2.09a4.81 4.81 0 0 0-3.39 3.4H40c-.55-2.04-2.42-3.55-4.64-3.55s-4.09 1.51-4.64 3.55h-2.1c-.55-2.04-2.42-3.55-4.64-3.55s-4.09 1.51-4.64 3.55h-2.1c-.55-2.04-2.42-3.55-4.64-3.55s-4.09 1.51-4.64 3.55h-2.1a4.8 4.8 0 0 0-3.39-3.39V40c2.05-.55 3.55-2.42 3.55-4.64s-1.51-4.09-3.55-4.64v-2.1c2.05-.55 3.55-2.42 3.55-4.64s-1.51-4.09-3.55-4.64v-2.1c2.05-.55 3.55-2.42 3.55-4.64S4.51 8.51 2.47 7.96v-2.1a4.8 4.8 0 0 0 3.39-3.39h2.1c.55 2.04 2.42 3.55 4.64 3.55s4.09-1.51 4.64-3.55h2.1c.55 2.04 2.42 3.55 4.64 3.55s4.09-1.51 4.64-3.55h2.1c.55 2.04 2.42 3.55 4.64 3.55S39.45 4.51 40 2.47h2.1a4.8 4.8 0 0 0 3.39 3.39v2.09c-2.05.55-3.55 2.42-3.55 4.64s1.51 4.09 3.55 4.64ZM37.4 9.31H10.69c-.69 0-1.25.56-1.25 1.25v26.7c0 .69.56 1.25 1.25 1.25h26.7c.69 0 1.25-.56 1.25-1.25v-26.7c0-.69-.56-1.25-1.25-1.25Zm-1.25 26.7H11.94v-24.2h24.2v24.2Z"/>
</svg>
