<svg viewBox="0 0 24 24" xmlns="http://www.w3.org/2000/svg">
  <path d="M6.38 17.6h11.31V6.29H6.38zm2.69-9.81h3.19c2 0 3.24.54 3.24 2.18 0 .78-.31 1.28-1.02 1.69.9.37 1.37.95 1.37 1.87 0 1.82-1.31 2.53-3.26 2.53H9.07zm3.34 3.32h-1.22V9.44h1.22c.56 0 .94.3.94.82 0 .56-.37.85-.94.85m10.71-5.55H24V1.73h-.88c-.47 0-.86-.39-.86-.86v-.88h-3.84v.88c0 .48-.39.86-.86.86s-.86-.39-.86-.86v-.88h-3.84v.88c0 .48-.39.86-.86.86s-.86-.39-.86-.86v-.88H7.3v.88c0 .48-.39.86-.86.86s-.86-.39-.86-.86v-.88H1.74v.88c0 .48-.39.86-.86.86H0v3.84h.88c.47 0 .86.39.86.86s-.39.86-.86.86H0v3.84h.88c.47 0 .86.39.86.86s-.39.86-.86.86H0v3.84h.88c.47 0 .86.39.86.86s-.39.86-.86.86H0v3.84h.88c.47 0 .86.39.86.86v.88h3.84v-.88c0-.47.39-.86.86-.86s.86.39.86.86v.88h3.84v-.88c0-.47.39-.86.86-.86s.86.39.86.86v.88h3.84v-.88c0-.47.39-.86.86-.86s.86.39.86.86v.88h3.84v-.88c0-.48.39-.86.86-.86H24v-3.84h-.88c-.47 0-.86-.39-.86-.86s.39-.86.86-.86H24v-3.84h-.88c-.47 0-.86-.39-.86-.86s.39-.86.86-.86H24V7.29h-.88c-.47 0-.86-.39-.86-.86s.39-.86.86-.86Zm-3.68 12.91c0 .48-.39.88-.88.88H5.5c-.48 0-.88-.39-.88-.88V5.42c0-.48.39-.88.88-.88h13.06c.48 0 .88.39.88.88v13.06Zm-6.87-4.06h-1.38v-1.84h1.39c.7 0 1.08.32 1.08.9s-.38.94-1.09.94"/>
</svg>
