<svg viewBox="0 0 64 64" xmlns="http://www.w3.org/2000/svg">
  <path d="M33.43 28.9h-3.37v-4.59h3.37c1.55 0 2.57.83 2.57 2.24 0 1.55-1.02 2.34-2.57 2.34ZM15.49 15.27h33.19v33.19H15.49zm8.77 27.26h9.67c5.38 0 8.98-1.95 8.98-6.96 0-2.54-1.29-4.13-3.76-5.15 1.95-1.12 2.8-2.51 2.8-4.65 0-4.52-3.4-6.01-8.91-6.01h-8.78zm12.61-7.13c0-1.58-1.06-2.48-2.97-2.48h-3.83v5.05h3.8c1.95 0 3-.96 3-2.57m22.34-18.73c0 1.88 1.53 3.41 3.41 3.41H64v8.49h-1.38c-1.88 0-3.41 1.53-3.41 3.41s1.53 3.41 3.41 3.41H64v8.49h-1.38c-1.88 0-3.41 1.53-3.41 3.41s1.53 3.41 3.41 3.41H64v8.49h-1.38c-1.85 0-3.36 1.47-3.41 3.31v1.49h-8.49v-1.38c0-1.88-1.53-3.41-3.41-3.41s-3.41 1.53-3.41 3.41v1.38h-8.49v-1.38c0-1.88-1.53-3.41-3.41-3.41s-3.41 1.53-3.41 3.41v1.38H20.1v-1.38c0-1.88-1.53-3.41-3.41-3.41s-3.41 1.53-3.41 3.41v1.38H4.79v-1.38c0-1.88-1.53-3.41-3.41-3.41H0v-8.49h1.38c1.88 0 3.41-1.53 3.41-3.41s-1.53-3.41-3.41-3.41H0V35.4h1.38c1.88 0 3.41-1.53 3.41-3.41s-1.53-3.41-3.41-3.41H0v-8.49h1.38c1.88 0 3.41-1.53 3.41-3.41s-1.53-3.41-3.41-3.41H0v-8.5h1.38c1.88 0 3.41-1.53 3.41-3.41V-.01h8.49v1.38c0 1.88 1.53 3.41 3.41 3.41s3.41-1.53 3.41-3.41V-.01h8.49v1.38c0 1.88 1.53 3.41 3.41 3.41s3.41-1.53 3.41-3.41V-.01h8.49v1.38c0 1.88 1.53 3.41 3.41 3.41s3.41-1.53 3.41-3.41V-.01h8.49v1.38c0 1.88 1.53 3.41 3.41 3.41H64v8.49h-1.38c-1.88 0-3.41 1.53-3.41 3.41Zm-7.78-2.77c0-.76-.62-1.38-1.38-1.38H14.12c-.76 0-1.38.62-1.38 1.38v35.94c0 .76.62 1.38 1.38 1.38h35.94c.76 0 1.38-.62 1.38-1.38V13.9Z"/>
</svg>
