<svg viewBox="0 0 24 24" xmlns="http://www.w3.org/2000/svg">
  <path d="M15.82 13.54c0-.92-.47-1.5-1.37-1.87.71-.41 1.02-.91 1.02-1.69 0-1.64-1.24-2.18-3.24-2.18H9.04v8.28h3.52c1.96 0 3.26-.71 3.26-2.53Zm-4.67-4.1h1.22c.56 0 .94.3.94.82 0 .56-.37.85-.94.85h-1.22zm0 4.97v-1.84h1.39c.7 0 1.08.32 1.08.9s-.38.94-1.09.94zm11.97-8.85H24V1.73h-.88c-.47 0-.86-.39-.86-.86v-.88h-3.84v.88c0 .48-.39.86-.86.86s-.86-.39-.86-.86v-.88h-3.84v.88c0 .48-.39.86-.86.86s-.86-.39-.86-.86v-.88H7.3v.88c0 .48-.39.86-.86.86s-.86-.39-.86-.86v-.88H1.74v.88c0 .48-.39.86-.86.86H0v3.84h.88c.47 0 .86.39.86.86s-.39.86-.86.86H0v3.84h.88c.47 0 .86.39.86.86s-.39.86-.86.86H0v3.84h.88c.47 0 .86.39.86.86s-.39.86-.86.86H0v3.84h.88c.47 0 .86.39.86.86v.88h3.84v-.88c0-.47.39-.86.86-.86s.86.39.86.86v.88h3.84v-.88c0-.47.39-.86.86-.86s.86.39.86.86v.88h3.84v-.88c0-.47.39-.86.86-.86s.86.39.86.86v.88h3.84v-.88c0-.48.39-.86.86-.86H24v-3.84h-.88c-.47 0-.86-.39-.86-.86s.39-.86.86-.86H24v-3.84h-.88c-.47 0-.86-.39-.86-.86s.39-.86.86-.86H24V7.29h-.88c-.47 0-.86-.39-.86-.86s.39-.86.86-.86Zm-.87-1.6c-1.01.36-1.74 1.33-1.74 2.46s.73 2.1 1.74 2.46v.63c-1.01.36-1.74 1.33-1.74 2.46s.73 2.1 1.74 2.46v.63c-1.01.36-1.74 1.33-1.74 2.46s.73 2.1 1.74 2.46v.63c-.74.26-1.33.85-1.59 1.59h-.64c-.36-1.01-1.33-1.74-2.46-1.74s-2.1.73-2.46 1.74h-.64c-.36-1.01-1.33-1.74-2.46-1.74s-2.1.73-2.46 1.74H8.9c-.36-1.01-1.33-1.74-2.46-1.74s-2.1.73-2.46 1.74h-.64c-.26-.74-.85-1.32-1.59-1.59v-.64c1.01-.36 1.74-1.33 1.74-2.46s-.73-2.1-1.74-2.46v-.64c1.01-.36 1.74-1.33 1.74-2.46s-.73-2.1-1.74-2.46v-.64c1.01-.36 1.74-1.33 1.74-2.46s-.73-2.1-1.74-2.46v-.64c.74-.26 1.32-.85 1.59-1.59h.64c.36 1.01 1.33 1.74 2.46 1.74s2.1-.73 2.46-1.74h.64C9.9 2.71 10.87 3.44 12 3.44s2.1-.73 2.46-1.74h.64c.36 1.01 1.33 1.74 2.46 1.74s2.1-.73 2.46-1.74h.64c.26.74.85 1.32 1.59 1.59v.64Zm-3.69.58H5.5c-.48 0-.88.39-.88.88v13.06c0 .48.39.88.88.88h13.06c.48 0 .88-.39.88-.88V5.42c0-.48-.39-.88-.88-.88m-.88 13.06H6.38V6.29h11.31V17.6Z"/>
</svg>
