<svg viewBox="0 0 48 48" xmlns="http://www.w3.org/2000/svg">
  <path d="M21.85 45.79c-.13.29-.21.62-.21.96V48h-6.77v-1.25a2.3 2.3 0 0 0-4.6 0V48H3.49v-1.25a2.3 2.3 0 0 0-2.3-2.3H-.06v-6.76h1.25a2.3 2.3 0 0 0 0-4.6H-.06v-6.77h1.25a2.3 2.3 0 0 0 0-4.6H-.06v-6.77h1.25a2.3 2.3 0 0 0 0-4.6H-.06V3.56h1.25a2.3 2.3 0 0 0 2.3-2.3V0h6.77v1.25a2.3 2.3 0 0 0 4.6 0V0h6.77v1.25a2.3 2.3 0 0 0 4.6 0V0H33v1.25a2.3 2.3 0 0 0 4.6 0V0h6.76v1.25a2.3 2.3 0 0 0 2.3 2.3h1.25v6.76h-1.25a2.3 2.3 0 0 0 0 4.6h1.25v6.76h-1.25c-.34 0-.67.08-.96.22a17.24 17.24 0 0 0-7.12-5.53v-5.82c0-.69-.56-1.25-1.25-1.25H10.65c-.69 0-1.25.56-1.25 1.25v26.7c0 .69.56 1.25 1.25 1.25h5.61c1.17 2.91 3.12 5.42 5.59 7.28Zm10.26-30.7c1.38 0 2.71.18 3.99.49v-3.77H11.9v24.2h3.58c-.29-1.24-.45-2.52-.45-3.84 0-9.42 7.66-17.08 17.08-17.08M38.5 48h5.89v-1.34a2.31 2.31 0 0 1 2.3-2.22h1.25v-5.88A17.18 17.18 0 0 1 38.5 48m9.44-15.83c0 6.56-3.99 12.18-9.67 14.59-1.89.8-3.98 1.24-6.16 1.24s-4.27-.44-6.16-1.24c-5.68-2.4-9.67-8.03-9.67-14.59 0-7.1 4.68-13.11 11.12-15.12 1.49-.46 3.07-.71 4.71-.71s3.22.25 4.71.71c6.44 2 11.12 8.01 11.12 15.12m-9.65-5.96c-.58-.38-1.35-.22-1.73.35l-6.15 9.31-3.5-3.75c-.47-.5-1.26-.53-1.77-.06-.5.47-.53 1.26-.06 1.77l5.67 6.07 7.89-11.96c.38-.58.22-1.35-.35-1.73"/>
</svg>
