<svg viewBox="0 0 16 16" xmlns="http://www.w3.org/2000/svg">
  <path d="M4.52 11.47h7.01V4.46H4.52zm4.04-3.61h.86v-.88h.68v.88h.86v.63h-.86v.88h-.68v-.88h-.86zm-2.3-1.71h1.06l1.14 3.22h-.89l-.22-.74H6.24l-.23.74h-.87l1.13-3.22Zm.88 1.82h-.71l.36-1.14zm8.11-3.98H16V1.13h-.75a.38.38 0 0 1-.38-.38V0h-2.86v.75a.38.38 0 1 1-.76 0V0H8.39v.75a.38.38 0 1 1-.76 0V0H4.77v.75a.38.38 0 1 1-.76 0V0H1.13v.75c0 .21-.17.38-.38.38H0v2.86h.75a.38.38 0 1 1 0 .76H0v2.86h.75a.38.38 0 1 1 0 .76H0v2.86h.75a.38.38 0 1 1 0 .76H0v2.86h.75c.21 0 .38.17.38.38v.75h2.86v-.75a.38.38 0 1 1 .76 0v.75h2.86v-.75a.38.38 0 1 1 .76 0v.75h2.86v-.75a.38.38 0 1 1 .76 0v.75h2.86v-.75c0-.21.17-.38.38-.38h.75v-2.86h-.75a.38.38 0 1 1 0-.76h.75V8.37h-.75a.38.38 0 1 1 0-.76h.75V4.75h-.75a.38.38 0 1 1 0-.76Zm-2.22 8.23c0 .41-.34.75-.75.75H3.77c-.41 0-.75-.34-.75-.75V3.71c0-.41.34-.75.75-.75h8.51c.41 0 .75.34.75.75z"/>
</svg>
