<svg viewBox="0 0 64 64" xmlns="http://www.w3.org/2000/svg">
  <path d="M31.35 29.53h-2.34v-5.15h2.31c2.24 0 3.89.33 3.89 2.57s-1.62 2.57-3.86 2.57ZM15.47 15.28h33.19v33.19H15.47zm7.73 27.26h5.78v-8.65h1.55l6.07 8.65h6.67l-6.8-9.34c3.17-.92 4.79-3 4.79-6.4 0-5.58-4.39-7.03-10.2-7.03H23.2v22.78Zm35.99-25.86c0 1.88 1.53 3.41 3.41 3.41h1.38v8.49H62.6c-1.88 0-3.41 1.53-3.41 3.41s1.53 3.41 3.41 3.41h1.38v8.49H62.6c-1.88 0-3.41 1.53-3.41 3.41s1.53 3.41 3.41 3.41h1.38v8.49H62.6a3.42 3.42 0 0 0-3.41 3.31V64H50.7v-1.38c0-1.88-1.53-3.41-3.41-3.41s-3.41 1.53-3.41 3.41V64h-8.49v-1.38c0-1.88-1.53-3.41-3.41-3.41s-3.41 1.53-3.41 3.41V64h-8.49v-1.38c0-1.88-1.53-3.41-3.41-3.41s-3.41 1.53-3.41 3.41V64h-8.5v-1.38c0-1.88-1.53-3.41-3.41-3.41H-.02v-8.49h1.38c1.88 0 3.41-1.53 3.41-3.41S3.24 43.9 1.36 43.9H-.02v-8.49h1.38c1.88 0 3.41-1.53 3.41-3.41s-1.53-3.41-3.41-3.41H-.02V20.1h1.38c1.88 0 3.41-1.53 3.41-3.41s-1.53-3.41-3.41-3.41H-.02v-8.5h1.38c1.88 0 3.41-1.53 3.41-3.41V0h8.49v1.38c0 1.88 1.53 3.41 3.41 3.41s3.41-1.53 3.41-3.41V0h8.49v1.38c0 1.88 1.53 3.41 3.41 3.41s3.41-1.53 3.41-3.41V0h8.49v1.38c0 1.88 1.53 3.41 3.41 3.41s3.41-1.53 3.41-3.41V0h8.49v1.38c0 1.88 1.53 3.41 3.41 3.41h1.38v8.49H62.6c-1.88 0-3.41 1.53-3.41 3.41Zm-7.78-2.78c0-.76-.62-1.38-1.38-1.38H14.1c-.76 0-1.38.62-1.38 1.38v35.94c0 .76.62 1.38 1.38 1.38h35.94c.76 0 1.38-.62 1.38-1.38V13.9Z"/>
</svg>
