<svg viewBox="0 0 48 48" xmlns="http://www.w3.org/2000/svg">
  <path d="M31.59 26.88c0-1.92-.97-3.12-2.85-3.9 1.47-.85 2.13-1.9 2.13-3.52 0-3.42-2.58-4.55-6.75-4.55h-6.65v17.25h7.32c4.07 0 6.8-1.47 6.8-5.27Zm-9.73-8.52h2.55c1.17 0 1.95.63 1.95 1.7 0 1.17-.78 1.77-1.95 1.77h-2.55zm0 10.35v-3.82h2.9c1.45 0 2.25.67 2.25 1.88s-.8 1.95-2.27 1.95h-2.87Zm24.89-18.4H48V3.54h-1.25a2.3 2.3 0 0 1-2.3-2.3V-.01h-6.76v1.25a2.3 2.3 0 0 1-4.6 0V-.01h-6.77v1.25a2.3 2.3 0 0 1-4.6 0V-.01h-6.77v1.25a2.3 2.3 0 0 1-4.6 0V-.01h-6.8v1.25a2.3 2.3 0 0 1-2.3 2.3H0v6.76h1.25a2.3 2.3 0 0 1 0 4.6H0v6.77h1.25a2.3 2.3 0 0 1 0 4.6H0v6.77h1.25a2.3 2.3 0 0 1 0 4.6H0v6.77h1.25a2.3 2.3 0 0 1 2.3 2.3v1.25h6.76v-1.25a2.3 2.3 0 0 1 4.6 0v1.25h6.77v-1.25a2.3 2.3 0 0 1 4.6 0v1.25h6.77v-1.25a2.3 2.3 0 0 1 4.6 0v1.25h6.77v-1.34a2.31 2.31 0 0 1 2.3-2.22h1.25v-6.76h-1.25a2.3 2.3 0 0 1 0-4.6h1.25v-6.76h-1.25a2.3 2.3 0 0 1 0-4.6h1.25v-6.76h-1.25a2.3 2.3 0 0 1 0-4.6Zm-1.25 6.94v2.09c-2.05.55-3.55 2.42-3.55 4.64s1.51 4.09 3.55 4.64v2.09c-2.05.55-3.55 2.42-3.55 4.64s1.51 4.09 3.55 4.64v2.09a4.81 4.81 0 0 0-3.39 3.4h-2.09c-.55-2.05-2.42-3.55-4.64-3.55s-4.09 1.51-4.64 3.55h-2.1c-.55-2.05-2.42-3.55-4.64-3.55s-4.09 1.51-4.64 3.55h-2.1c-.55-2.05-2.42-3.55-4.64-3.55s-4.09 1.51-4.64 3.55H5.89a4.8 4.8 0 0 0-3.39-3.39v-2.1c2.05-.55 3.55-2.42 3.55-4.64s-1.51-4.09-3.55-4.64v-2.1c2.05-.55 3.55-2.42 3.55-4.64s-1.51-4.09-3.55-4.64v-2.1c2.05-.55 3.55-2.42 3.55-4.64S4.54 8.5 2.5 7.95V5.86a4.8 4.8 0 0 0 3.39-3.39h2.09c.55 2.05 2.42 3.55 4.64 3.55s4.09-1.51 4.64-3.55h2.1c.55 2.05 2.42 3.55 4.64 3.55s4.09-1.51 4.64-3.55h2.1c.55 2.05 2.42 3.55 4.64 3.55s4.09-1.51 4.64-3.55h2.09a4.8 4.8 0 0 0 3.39 3.39v2.09c-2.05.55-3.55 2.42-3.55 4.64s1.51 4.09 3.55 4.64ZM37.42 9.3H10.71c-.69 0-1.25.56-1.25 1.25v26.7c0 .69.56 1.25 1.25 1.25h26.7c.69 0 1.25-.56 1.25-1.25v-26.7c0-.69-.56-1.25-1.25-1.25ZM36.17 36H11.96V11.8h24.2V36Z"/>
</svg>
