<svg viewBox="0 0 48 48" xmlns="http://www.w3.org/2000/svg">
  <path d="M11.96 36.01h24.2v-24.2h-24.2zM26.1 23.47h2.93V20.5h2.31v2.97h2.93v2.14h-2.93v2.99h-2.31v-2.99H26.1zm-7.81-5.79h3.59l3.84 10.92H22.7l-.76-2.5h-3.77l-.78 2.5h-2.93l3.81-10.92Zm28.46-7.36H48V3.55h-1.25a2.3 2.3 0 0 1-2.3-2.3V0h-6.76v1.25a2.3 2.3 0 0 1-4.6 0V0h-6.77v1.25a2.3 2.3 0 0 1-4.6 0V0h-6.77v1.25a2.3 2.3 0 0 1-4.6 0V0h-6.8v1.25a2.3 2.3 0 0 1-2.3 2.3H0v6.76h1.25a2.3 2.3 0 0 1 0 4.6H0v6.77h1.25a2.3 2.3 0 0 1 0 4.6H0v6.77h1.25a2.3 2.3 0 0 1 0 4.6H0v6.76h1.25a2.3 2.3 0 0 1 2.3 2.3v1.25h6.76v-1.25a2.3 2.3 0 0 1 4.6 0v1.25h6.77v-1.25a2.3 2.3 0 0 1 4.6 0v1.25h6.77v-1.25a2.3 2.3 0 0 1 4.6 0v1.25h6.77v-1.34a2.31 2.31 0 0 1 2.3-2.22h1.25v-6.76h-1.25a2.3 2.3 0 0 1 0-4.6h1.25v-6.76h-1.25a2.3 2.3 0 0 1 0-4.6h1.25v-6.76h-1.25a2.3 2.3 0 0 1 0-4.6Zm-8.08 26.94c0 .69-.56 1.25-1.25 1.25H10.71c-.69 0-1.25-.56-1.25-1.25v-26.7c0-.69.56-1.25 1.25-1.25h26.7c.69 0 1.25.56 1.25 1.25v26.7Zm-17.4-13.39h-2.39l1.2-3.86z"/>
</svg>
