<svg viewBox="0 0 48 48" xmlns="http://www.w3.org/2000/svg">
  <path d="M19.99 44.11c.6.61 1.24 1.16 1.92 1.67-.13.29-.22.62-.22.96v1.25h-6.77v-1.25a2.3 2.3 0 0 0-4.6 0v1.25H3.56v-1.25a2.3 2.3 0 0 0-2.3-2.3H0v-6.77h1.25a2.3 2.3 0 0 0 0-4.6H0V26.3h1.25a2.3 2.3 0 0 0 0-4.6H0v-6.77h1.25a2.3 2.3 0 0 0 0-4.6H0V3.55h1.25a2.3 2.3 0 0 0 2.3-2.3V0h6.76v1.25a2.3 2.3 0 0 0 4.6 0V0h6.77v1.25a2.3 2.3 0 0 0 4.6 0V0h6.77v1.25a2.3 2.3 0 0 0 4.6 0V0h6.76v1.25a2.3 2.3 0 0 0 2.3 2.3h1.25v6.76h-1.25a2.3 2.3 0 0 0 0 4.6h1.25v6.76h-1.25c-.34 0-.67.08-.96.22-.51-.68-1.07-1.33-1.68-1.92.42-.28.89-.49 1.38-.63v-2.09c-2.04-.55-3.55-2.42-3.55-4.64s1.51-4.09 3.55-4.64V5.88a4.8 4.8 0 0 1-3.39-3.39h-2.09c-.55 2.04-2.42 3.55-4.64 3.55s-4.09-1.51-4.64-3.55h-2.1c-.55 2.04-2.42 3.55-4.64 3.55s-4.09-1.51-4.64-3.55h-2.1c-.55 2.04-2.42 3.55-4.64 3.55S8.48 4.53 7.93 2.49H5.84a4.8 4.8 0 0 1-3.39 3.39v2.1C4.49 8.53 6 10.4 6 12.62s-1.51 4.09-3.55 4.64v2.1C4.49 19.91 6 21.78 6 24s-1.51 4.09-3.55 4.64v2.1C4.49 31.29 6 33.16 6 35.38s-1.51 4.09-3.55 4.64v2.1c1.65.44 2.95 1.74 3.39 3.39h2.09c.55-2.04 2.42-3.55 4.64-3.55s4.09 1.51 4.64 3.55h2.1c.13-.5.35-.96.63-1.38ZM38.56 48h5.89v-1.34a2.304 2.304 0 0 1 2.3-2.22H48v-5.88A17.15 17.15 0 0 1 38.56 48m.11-31.62v-5.82c0-.69-.56-1.25-1.25-1.25H10.71c-.69 0-1.25.56-1.25 1.25v26.7c0 .69.56 1.25 1.25 1.25h5.61c-.32-.81-.58-1.64-.78-2.5h-3.58v-24.2h24.2v3.77c.86.21 1.7.47 2.5.8ZM32.17 48c-8.74 0-15.83-7.09-15.83-15.83s7.09-15.83 15.83-15.83S48 23.43 48 32.17 40.91 48 32.17 48M45.5 32.17c0-7.35-5.98-13.33-13.33-13.33s-13.33 5.98-13.33 13.33S24.82 45.5 32.17 45.5 45.5 39.52 45.5 32.17m-7.15-5.96c-.58-.38-1.35-.22-1.73.35l-6.15 9.31-3.5-3.75c-.47-.5-1.26-.53-1.77-.06-.5.47-.53 1.26-.06 1.77l5.67 6.07 7.89-11.96c.38-.58.22-1.35-.35-1.73"/>
</svg>
