<svg viewBox="0 0 24 24" xmlns="http://www.w3.org/2000/svg">
  <path fill="#1d1d1b" d="M21.5 2.5H2.49v19h19v-19Zm-5.93 15.31-1.12-3.21H9.81l-1.12 3.21H6.13l4.65-12.42h2.72l4.68 12.42zM24 2.31V1.13c-.62 0-1.12-.5-1.12-1.12H21.7c0 .62-.5 1.12-1.12 1.12S19.46.63 19.46.01h-1.18c0 .62-.5 1.12-1.12 1.12S16.04.63 16.04.01h-1.18c0 .62-.5 1.12-1.12 1.12S12.62.63 12.62.01h-1.18c0 .62-.5 1.12-1.12 1.12S9.2.63 9.2.01H8.02c0 .62-.5 1.12-1.12 1.12S5.78.63 5.78.01H4.6c0 .62-.5 1.12-1.12 1.12S2.36.63 2.36.01H1.18C1.12.62.62 1.12 0 1.12V2.3c.62 0 1.12.5 1.12 1.12S.62 4.56 0 4.56v1.18c.62 0 1.12.5 1.12 1.12S.62 7.99 0 7.99v1.18c.62 0 1.12.5 1.12 1.12S.62 11.42 0 11.42v1.18c.62 0 1.12.5 1.12 1.12S.62 14.86 0 14.86v1.18c.62 0 1.12.5 1.12 1.12S.62 18.28 0 18.28v1.18c.62 0 1.12.5 1.12 1.12S.62 21.7 0 21.7v1.18c.61 0 1.1.49 1.12 1.1H2.3c0-.62.5-1.12 1.12-1.12s1.12.5 1.12 1.12h1.18c0-.62.5-1.12 1.12-1.12s1.12.5 1.12 1.12h1.18c0-.62.5-1.12 1.12-1.12s1.12.5 1.12 1.12h1.18c0-.62.5-1.12 1.12-1.12s1.12.5 1.12 1.12h1.18c0-.62.5-1.12 1.12-1.12s1.12.5 1.12 1.12h1.18c0-.62.5-1.12 1.12-1.12s1.12.5 1.12 1.12h1.18c0-.62.5-1.12 1.12-1.12v-1.15c-.62 0-1.12-.5-1.12-1.12s.5-1.12 1.12-1.12v-1.18c-.62 0-1.12-.5-1.12-1.12s.5-1.12 1.12-1.12v-1.18c-.62 0-1.12-.5-1.12-1.12s.5-1.12 1.12-1.12v-1.18c-.62 0-1.12-.5-1.12-1.12s.5-1.12 1.12-1.12V8.03c-.62 0-1.12-.5-1.12-1.12s.5-1.12 1.12-1.12V4.61c-.62 0-1.12-.5-1.12-1.12s.5-1.12 1.12-1.12ZM22 22H1.99V2h20v20ZM12.13 7.93l1.62 4.66h-3.24z"/>
</svg>
