<svg viewBox="0 0 64 64" xmlns="http://www.w3.org/2000/svg">
  <path d="M15.49 48.47h33.19V15.28H15.49zm18.98-17.06h4.15v-4.22h3.27v4.22h4.15v3.03h-4.15v4.24h-3.27v-4.24h-4.15zM23.41 23.2h5.09l5.45 15.48h-4.28l-1.08-3.54h-5.34l-1.1 3.54H18zm39.21-9.93H64V4.78h-1.38c-1.88 0-3.41-1.53-3.41-3.41V0h-8.49v1.38c0 1.88-1.53 3.41-3.41 3.41S43.9 3.26 43.9 1.38V0h-8.49v1.38c0 1.88-1.53 3.41-3.41 3.41s-3.41-1.53-3.41-3.41V0H20.1v1.38c0 1.88-1.53 3.41-3.41 3.41s-3.41-1.53-3.41-3.41V0H4.79v1.38c0 1.88-1.53 3.41-3.41 3.41H0v8.49h1.38c1.88 0 3.41 1.53 3.41 3.41S3.26 20.1 1.38 20.1H0v8.49h1.38c1.88 0 3.41 1.53 3.41 3.41s-1.53 3.41-3.41 3.41H0v8.49h1.38c1.88 0 3.41 1.53 3.41 3.41s-1.53 3.41-3.41 3.41H0v8.49h1.38c1.88 0 3.41 1.53 3.41 3.41V64h8.49v-1.38c0-1.88 1.53-3.41 3.41-3.41s3.41 1.53 3.41 3.41V64h8.49v-1.38c0-1.88 1.53-3.41 3.41-3.41s3.41 1.53 3.41 3.41V64h8.49v-1.38c0-1.88 1.53-3.41 3.41-3.41s3.41 1.53 3.41 3.41V64h8.49v-1.49a3.414 3.414 0 0 1 3.41-3.31H64v-8.49h-1.38c-1.88 0-3.41-1.53-3.41-3.41s1.53-3.41 3.41-3.41H64V35.4h-1.38c-1.88 0-3.41-1.53-3.41-3.41s1.53-3.41 3.41-3.41H64v-8.49h-1.38c-1.88 0-3.41-1.53-3.41-3.41s1.53-3.41 3.41-3.41M51.43 49.84c0 .76-.62 1.38-1.38 1.38H14.12c-.76 0-1.38-.62-1.38-1.38V13.9c0-.76.62-1.38 1.38-1.38h35.94c.76 0 1.38.62 1.38 1.38v35.94Zm-23.8-17.87h-3.39l1.7-5.47 1.68 5.47Z"/>
</svg>
