<svg viewBox="0 0 16 16" xmlns="http://www.w3.org/2000/svg">
  <path d="M11.54 8.56c0 .19-.13.31-.33.31h-.56v-.62h.57c.19 0 .31.12.31.31Zm-.13-1.29c0-.18-.12-.28-.28-.28h-.47v.57h.47c.17 0 .28-.1.28-.29m-6.72.86h.64l-.32-1.15zm10.18-3.76c0 .21.17.38.38.38H16v2.86h-.75a.38.38 0 1 0 0 .76H16v2.86h-.75a.38.38 0 1 0 0 .76H16v2.86h-.75a.38.38 0 0 0-.38.38v.75h-2.86v-.75a.38.38 0 1 0-.76 0v.75H8.39v-.75a.38.38 0 1 0-.76 0v.75H4.77v-.75a.38.38 0 1 0-.76 0v.75H1.13v-.75a.38.38 0 0 0-.38-.38H0v-2.86h.75a.38.38 0 1 0 0-.76H0V8.37h.75a.38.38 0 1 0 0-.76H0V4.75h.75a.38.38 0 1 0 0-.76H0V1.13h.75c.21 0 .38-.17.38-.38V0h2.86v.75a.38.38 0 1 0 .76 0V0h2.86v.75a.38.38 0 1 0 .76 0V0h2.86v.75a.38.38 0 1 0 .76 0V0h2.86v.75c0 .21.17.38.38.38h.75v2.86h-.75a.38.38 0 0 0-.38.38ZM6.89 9.66 5.75 6.2H4.31L3.17 9.66h1.1l.2-.71h1.1l.2.71h1.14Zm2.51-3.6h-.99l-1.44 3.6h1.01zm3.23 2.53c0-.37-.21-.62-.59-.77.3-.15.44-.35.44-.69 0-.66-.48-.93-1.42-.93H9.62v3.46h1.62c.85 0 1.39-.3 1.39-1.07"/>
</svg>
