<svg viewBox="0 0 40 40" xmlns="http://www.w3.org/2000/svg">
  <path d="M21.77 20.57h-3.02l1.52-4.88zM10.1 9.92H30v19.9H10.1zm3.09 16.63h3.7l.98-3.16h4.76l.96 3.16h3.82l-4.86-13.8h-4.54zm23.86-16.04c0 1.01.82 1.82 1.82 1.82h1.12v5.79h-1.12c-1.01 0-1.82.82-1.82 1.82s.82 1.82 1.82 1.82h1.12v5.79h-1.12c-1.01 0-1.82.82-1.82 1.82s.82 1.82 1.82 1.82h1.12v5.79h-1.12c-.99 0-1.79.79-1.82 1.77v1.18h-5.79v-1.12c0-1.01-.82-1.83-1.82-1.83s-1.82.82-1.82 1.83v1.12h-5.79v-1.12c0-1.01-.82-1.83-1.82-1.83s-1.82.82-1.82 1.83v1.12H12.4v-1.12c0-1.01-.82-1.83-1.82-1.83s-1.82.82-1.82 1.83v1.12H2.95v-1.12c0-1.01-.82-1.83-1.82-1.83H0v-5.79h1.12c1.01 0 1.82-.82 1.82-1.82s-.82-1.82-1.82-1.82H0v-5.79h1.12c1.01 0 1.82-.82 1.82-1.82s-.82-1.82-1.82-1.82H0v-5.79h1.12c1.01 0 1.82-.82 1.82-1.82s-.82-1.82-1.82-1.82H0v-5.8h1.12c1.01 0 1.82-.82 1.82-1.82V-.06h5.79v1.12c0 1.01.82 1.82 1.82 1.82s1.82-.82 1.82-1.82V-.06h5.79v1.12c0 1.01.82 1.82 1.82 1.82s1.82-.82 1.82-1.82V-.06h5.79v1.12c0 1.01.82 1.82 1.82 1.82s1.82-.82 1.82-1.82V-.06h5.79v1.12c0 1.01.82 1.82 1.82 1.82h1.12v5.79h-1.12c-1.01 0-1.82.82-1.82 1.82Zm-4.79-1.72c0-.62-.5-1.12-1.12-1.12H8.98c-.62 0-1.12.5-1.12 1.12v22.15c0 .62.5 1.12 1.12 1.12h22.15c.62 0 1.12-.5 1.12-1.12V8.79Z"/>
</svg>
