<svg viewBox="0 0 40 40" xmlns="http://www.w3.org/2000/svg">
  <path d="M37.05 10.56c0 1.01.82 1.82 1.82 1.82h1.12v5.79h-1.12c-.21 0-.41.04-.6.11-.46-.62-.97-1.21-1.53-1.75.31-.19.64-.35 1-.45v-1.6c-1.7-.49-2.95-2.06-2.95-3.92s1.25-3.43 2.95-3.92v-1.6a4.11 4.11 0 0 1-2.79-2.79h-1.61c-.49 1.7-2.06 2.95-3.92 2.95s-3.43-1.25-3.92-2.95h-1.61c-.49 1.7-2.06 2.95-3.92 2.95s-3.43-1.25-3.92-2.95h-1.61c-.49 1.7-2.06 2.95-3.92 2.95S7.09 3.95 6.6 2.25H4.99A4.11 4.11 0 0 1 2.2 5.04v1.61c1.7.49 2.95 2.06 2.95 3.92S3.9 14 2.2 14.49v1.61c1.7.49 2.95 2.06 2.95 3.92S3.9 23.45 2.2 23.94v1.61c1.7.49 2.95 2.06 2.95 3.92S3.9 32.9 2.2 33.39V35c1.34.39 2.4 1.45 2.79 2.79H6.6c.49-1.7 2.06-2.95 3.92-2.95s3.43 1.25 3.92 2.95h1.61c.1-.36.26-.69.45-.99.54.56 1.13 1.06 1.75 1.53-.06.19-.11.38-.11.59v1.12h-5.79v-1.12c0-1.01-.82-1.82-1.82-1.82s-1.82.82-1.82 1.82v1.12H2.95v-1.12c0-1.01-.82-1.82-1.82-1.82H0v-5.79h1.12c1.01 0 1.82-.82 1.82-1.82s-.82-1.82-1.82-1.82H0v-5.79h1.12c1.01 0 1.82-.82 1.82-1.83s-.82-1.82-1.82-1.82H0v-5.79h1.12c1.01 0 1.82-.82 1.82-1.82S2.12 8.8 1.12 8.8H0V2.95h1.12c1.01 0 1.82-.82 1.82-1.82V0h5.79v1.12c0 1.01.82 1.82 1.82 1.82s1.82-.82 1.82-1.82V0h5.79v1.12c0 1.01.82 1.82 1.82 1.82s1.82-.82 1.82-1.82V0h5.79v1.12c0 1.01.82 1.82 1.82 1.82s1.82-.82 1.82-1.82V0h5.79v1.12c0 1.01.82 1.82 1.82 1.82h1.12v5.79h-1.12c-1.01 0-1.82.82-1.82 1.82ZM32.37 40h4.68v-1.18c.03-.98.83-1.77 1.82-1.77h1.12v-4.68c-1.45 3.43-4.2 6.18-7.63 7.63ZM30.01 9.97v2.89c.77.18 1.53.41 2.25.71V8.84c0-.62-.5-1.12-1.12-1.12H8.98c-.62 0-1.12.5-1.12 1.12v22.15c0 .62.5 1.12 1.12 1.12h4.55c-.29-.72-.53-1.47-.7-2.25H10.1V9.97H30ZM13.62 26.81c0-7.28 5.91-13.19 13.19-13.19S40 19.53 40 26.81 34.09 40 26.81 40s-13.19-5.91-13.19-13.19m2.25 0c0 6.03 4.91 10.94 10.94 10.94s10.94-4.91 10.94-10.94-4.91-10.94-10.94-10.94-10.94 4.91-10.94 10.94m9.82 6.57 6.64-10.05a1.127 1.127 0 0 0-1.88-1.24l-5.06 7.67-2.84-3.05c-.42-.45-1.14-.48-1.59-.05-.45.42-.48 1.14-.05 1.59l4.79 5.13Z"/>
</svg>
