<svg viewBox="0 0 16 16" xmlns="http://www.w3.org/2000/svg">
  <path fill="#1d1d1b" d="M14.25 1.75H1.75v12.5h12.5zM10.5 11.8l-.74-2.13H6.67l-.74 2.13h-1.7l3.08-8.27h1.81l3.12 8.28H10.5ZM8.21 5.22l1.08 3.11H7.13zM16 1.54V.75c-.41 0-.75-.34-.75-.75h-.79c0 .41-.34.75-.75.75s-.75-.34-.75-.75h-.79c0 .41-.34.75-.75.75s-.75-.34-.75-.75h-.79c0 .41-.34.75-.75.75S8.38.41 8.38 0h-.79c0 .41-.34.75-.75.75S6.09.41 6.09 0H5.3c0 .41-.34.75-.75.75S3.8.41 3.8 0h-.79c0 .41-.34.75-.75.75S1.51.41 1.51 0H.72C.75.41.41.75 0 .75v.79c.41 0 .75.34.75.75s-.34.75-.75.75v.79c.41 0 .75.34.75.75s-.34.75-.75.75v.79c.41 0 .75.34.75.75s-.34.75-.75.75v.79c.41 0 .75.34.75.75s-.34.75-.75.75v.79c.41 0 .75.34.75.75s-.34.75-.75.75v.79c.41 0 .75.34.75.75s-.34.75-.75.75v.79c.41 0 .74.33.75.73h.79c0-.41.34-.75.75-.75s.75.34.75.75h.79c0-.41.34-.75.75-.75s.75.34.75.75h.79c0-.41.34-.75.75-.75s.75.34.75.75h.79c0-.41.34-.75.75-.75s.75.34.75.75h.79c0-.41.34-.75.75-.75s.75.34.75.75h.79c0-.41.34-.75.75-.75s.75.34.75.75h.79c0-.41.34-.75.75-.75v-.77c-.41 0-.75-.34-.75-.75s.34-.75.75-.75v-.79c-.41 0-.75-.34-.75-.75s.34-.75.75-.75v-.79c-.41 0-.75-.34-.75-.75s.34-.75.75-.75v-.79c-.41 0-.75-.34-.75-.75s.34-.75.75-.75v-.79c-.41 0-.75-.34-.75-.75s.34-.75.75-.75v-.79c-.41 0-.75-.34-.75-.75s.34-.75.75-.75Zm-1.25 13.21H1.25V1.25h13.5z"/>
</svg>
