<svg viewBox="0 0 16 16" xmlns="http://www.w3.org/2000/svg">
  <path d="M4.7 10.72c0 .26.02.51.05.76h-.23V4.47h7v.28c-.26-.03-.53-.06-.8-.06-3.32 0-6.03 2.71-6.03 6.03Zm10.55 4.15H16v-1.23c-.27.48-.6.92-.98 1.31.06-.05.14-.09.23-.09ZM5.14 12.98H3.77c-.41 0-.75-.34-.75-.75V3.72c0-.41.34-.75.75-.75h8.5c.41 0 .75.34.75.75v1.43c1.2.5 2.2 1.37 2.86 2.47h.11V4.76h-.75a.38.38 0 1 1 0-.76h.75V1.13h-.75a.38.38 0 0 1-.38-.38V0H12v.75a.38.38 0 1 1-.76 0V0H8.38v.75a.38.38 0 1 1-.76 0V0H4.76v.75a.38.38 0 1 1-.76 0V0H1.14v.75c0 .21-.17.38-.38.38H0v2.86h.75a.38.38 0 1 1 0 .76H0v2.86h.75a.38.38 0 1 1 0 .76H0v2.86h.75a.38.38 0 1 1 0 .76H0v2.86h.75c.21 0 .38.17.38.38v.75h2.86v-.75a.38.38 0 1 1 .76 0v.75h2.86v-.12a6.06 6.06 0 0 1-2.48-2.9ZM14.11 16h.75v-.75c0-.09.04-.17.09-.23-.39.38-.83.72-1.32.98zm-3.39 0c-2.92 0-5.28-2.36-5.28-5.28s2.36-5.28 5.28-5.28S16 7.8 16 10.72 13.64 16 10.72 16m2.25-7.55a.753.753 0 0 0-1.04.21l-1.82 2.75-.88-.94a.755.755 0 0 0-1.06-.04c-.3.28-.32.76-.04 1.06l2.18 2.33 2.87-4.34c.23-.35.13-.81-.21-1.04Z"/>
</svg>
