<svg viewBox="0 0 64 64" xmlns="http://www.w3.org/2000/svg">
  <path d="M28.98 33.89h1.55l6.07 8.65h6.67l-6.8-9.34c3.17-.92 4.79-3 4.79-6.4 0-5.58-4.39-7.03-10.2-7.03H23.2v22.78h5.78V33.9Zm.03-9.51h2.31c2.24 0 3.89.33 3.89 2.57s-1.62 2.57-3.86 2.57h-2.34v-5.15ZM62.6 13.27h1.38V4.78H62.6c-1.88 0-3.41-1.53-3.41-3.41V0H50.7v1.38c0 1.88-1.53 3.41-3.41 3.41s-3.41-1.53-3.41-3.41V0h-8.49v1.38c0 1.88-1.53 3.41-3.41 3.41s-3.41-1.53-3.41-3.41V0h-8.49v1.38c0 1.88-1.53 3.41-3.41 3.41s-3.41-1.53-3.41-3.41V0h-8.5v1.38c0 1.88-1.53 3.41-3.41 3.41H-.02v8.49h1.38c1.88 0 3.41 1.53 3.41 3.41S3.24 20.1 1.36 20.1H-.02v8.49h1.38c1.88 0 3.41 1.53 3.41 3.41s-1.53 3.41-3.41 3.41H-.02v8.49h1.38c1.88 0 3.41 1.53 3.41 3.41s-1.53 3.41-3.41 3.41H-.02v8.49h1.38c1.88 0 3.41 1.53 3.41 3.41V64h8.49v-1.38c0-1.88 1.53-3.41 3.41-3.41s3.41 1.53 3.41 3.41V64h8.49v-1.38c0-1.88 1.53-3.41 3.41-3.41s3.41 1.53 3.41 3.41V64h8.49v-1.38c0-1.88 1.53-3.41 3.41-3.41s3.41 1.53 3.41 3.41V64h8.49v-1.49a3.414 3.414 0 0 1 3.41-3.31h1.38v-8.49H62.6c-1.88 0-3.41-1.53-3.41-3.41s1.53-3.41 3.41-3.41h1.38V35.4H62.6c-1.88 0-3.41-1.53-3.41-3.41s1.53-3.41 3.41-3.41h1.38v-8.49H62.6c-1.88 0-3.41-1.53-3.41-3.41s1.53-3.41 3.41-3.41m-1.37 9.42v3.3c-2.74.63-4.79 3.08-4.79 6.01s2.05 5.38 4.79 6.01v3.3c-2.74.63-4.79 3.08-4.79 6.01s2.05 5.38 4.79 6.01v3.3c-2.3.53-4.11 2.34-4.63 4.64h-3.3a6.167 6.167 0 0 0-12.02 0h-3.3a6.167 6.167 0 0 0-12.02 0h-3.3a6.167 6.167 0 0 0-12.02 0h-3.3c-.53-2.3-2.34-4.1-4.63-4.63v-3.3c2.74-.63 4.79-3.08 4.79-6.01s-2.05-5.38-4.79-6.01v-3.3c2.74-.63 4.79-3.08 4.79-6.01S5.45 26.63 2.71 26v-3.3c2.74-.63 4.79-3.08 4.79-6.01s-2.05-5.38-4.79-6.01v-3.3c2.3-.53 4.11-2.34 4.63-4.63h3.3a6.167 6.167 0 0 0 12.02 0h3.3a6.167 6.167 0 0 0 12.02 0h3.3a6.167 6.167 0 0 0 12.02 0h3.3c.53 2.3 2.34 4.1 4.63 4.63v3.3c-2.74.63-4.79 3.08-4.79 6.01s2.05 5.38 4.79 6.01ZM50.04 12.53H14.1c-.76 0-1.38.62-1.38 1.38v35.94c0 .76.62 1.38 1.38 1.38h35.94c.76 0 1.38-.62 1.38-1.38V13.9c0-.76-.62-1.38-1.38-1.38Zm-1.38 35.94H15.47V15.28h33.19z"/>
</svg>
