<svg viewBox="0 0 40 40" xmlns="http://www.w3.org/2000/svg">
  <path fill="#1d1d1b" d="M20.72 17.71h-3.36v-5.1h3.36c1.95 0 3.15.84 3.15 2.49 0 1.74-1.17 2.61-3.15 2.61m.21 3.06h-3.57v5.7h3.63c2.46 0 3.69-1.05 3.69-2.88s-1.23-2.82-3.75-2.82M35.76 35.7H4.26V4.2h31.5zm-6.85-12.05c0-2.37-1.05-3.75-3.27-4.77 1.74-1.23 2.43-2.58 2.43-4.41 0-4.26-3.39-5.28-7.65-5.28h-7.14v20.7h7.68c4.65 0 7.95-1.74 7.95-6.24m9.22-17.98c0 1.04.84 1.88 1.88 1.88v1.97c-1.04 0-1.88.84-1.88 1.88s.84 1.88 1.88 1.88v1.97c-1.04 0-1.88.84-1.88 1.88s.84 1.88 1.88 1.88v1.97c-1.04 0-1.88.84-1.88 1.88s.84 1.88 1.88 1.88v1.97c-1.04 0-1.88.84-1.88 1.88s.84 1.88 1.88 1.88v1.97c-1.04 0-1.88.84-1.88 1.88s.84 1.88 1.88 1.88v1.92c-1.04 0-1.88.84-1.88 1.88h-1.96c0-1.04-.84-1.88-1.88-1.88s-1.88.84-1.88 1.88h-1.96c0-1.04-.84-1.88-1.88-1.88s-1.88.84-1.88 1.88h-1.96c0-1.04-.84-1.88-1.88-1.88s-1.88.84-1.88 1.88h-1.96c0-1.04-.84-1.88-1.88-1.88s-1.88.84-1.88 1.88h-1.96c0-1.04-.84-1.88-1.88-1.88s-1.88.84-1.88 1.88H7.57c0-1.04-.84-1.88-1.88-1.88s-1.88.84-1.88 1.88H1.84a1.88 1.88 0 0 0-1.87-1.83V36.2c1.04 0 1.88-.84 1.88-1.88s-.84-1.88-1.88-1.88v-1.97c1.04 0 1.88-.84 1.88-1.88s-.84-1.88-1.88-1.88v-1.97c1.04 0 1.88-.84 1.88-1.88s-.84-1.88-1.88-1.88v-1.97c1.04 0 1.88-.84 1.88-1.88s-.84-1.88-1.88-1.88v-1.97c1.04 0 1.88-.84 1.88-1.88S1.01 9.52-.03 9.52V7.55c1.04 0 1.88-.84 1.88-1.88S1.04 3.79 0 3.79V1.82c1.04 0 1.88-.84 1.88-1.88h1.96c0 1.04.84 1.88 1.88 1.88S7.6.98 7.6-.06h1.96c0 1.04.84 1.88 1.88 1.88s1.88-.84 1.88-1.88h1.96c0 1.04.84 1.88 1.88 1.88s1.88-.84 1.88-1.88H21c0 1.04.84 1.88 1.88 1.88s1.88-.84 1.88-1.88h1.96c0 1.04.84 1.88 1.88 1.88s1.88-.84 1.88-1.88h1.96c0 1.04.84 1.88 1.88 1.88S36.2.98 36.2-.06h1.96c0 1.04.84 1.88 1.88 1.88v1.97c-1.04 0-1.88.84-1.88 1.88ZM36.76 3.2H3.26v33.5h33.5z"/>
</svg>
