<svg viewBox="0 0 48 48" xmlns="http://www.w3.org/2000/svg">
  <path d="M37.42 9.31H10.71c-.69 0-1.25.56-1.25 1.25v26.7c0 .69.56 1.25 1.25 1.25h26.7c.69 0 1.25-.56 1.25-1.25v-26.7c0-.69-.56-1.25-1.25-1.25Zm-1.25 26.7H11.96v-24.2h24.2v24.2ZM18.18 26.1h3.77l.76 2.5h3.02l-3.84-10.92H18.3L14.49 28.6h2.93l.78-2.5Zm1.9-6.1 1.19 3.86h-2.39zm8.94 5.61h-2.93v-2.14h2.93V20.5h2.31v2.97h2.93v2.14h-2.93v2.99h-2.31zm17.73-15.29H48V3.55h-1.25a2.3 2.3 0 0 1-2.3-2.3V0h-6.76v1.25a2.3 2.3 0 0 1-4.6 0V0h-6.77v1.25a2.3 2.3 0 0 1-4.6 0V0h-6.77v1.25a2.3 2.3 0 0 1-4.6 0V0h-6.8v1.25a2.3 2.3 0 0 1-2.3 2.3H0v6.77h1.25a2.3 2.3 0 0 1 0 4.6H0v6.77h1.25a2.3 2.3 0 0 1 0 4.6H0v6.77h1.25a2.3 2.3 0 0 1 0 4.6H0v6.77h1.25a2.3 2.3 0 0 1 2.3 2.3v1.25h6.76v-1.25a2.3 2.3 0 0 1 4.6 0v1.25h6.77v-1.25a2.3 2.3 0 0 1 4.6 0v1.25h6.77v-1.25a2.3 2.3 0 0 1 4.6 0v1.25h6.77v-1.34a2.304 2.304 0 0 1 2.3-2.22h1.25v-6.76h-1.25a2.3 2.3 0 0 1 0-4.6h1.25V26.3h-1.25a2.3 2.3 0 0 1 0-4.6h1.25v-6.76h-1.25a2.3 2.3 0 0 1 0-4.6Zm-1.25 6.94v2.09c-2.05.55-3.55 2.42-3.55 4.64s1.51 4.09 3.55 4.64v2.09c-2.05.55-3.55 2.42-3.55 4.64s1.51 4.09 3.55 4.64v2.09a4.81 4.81 0 0 0-3.39 3.4h-2.09c-.55-2.04-2.42-3.55-4.64-3.55s-4.09 1.51-4.64 3.55h-2.1c-.55-2.04-2.42-3.55-4.64-3.55s-4.09 1.51-4.64 3.55h-2.1c-.55-2.04-2.42-3.55-4.64-3.55s-4.09 1.51-4.64 3.55H5.89A4.8 4.8 0 0 0 2.5 42.1V40c2.05-.55 3.55-2.42 3.55-4.64s-1.51-4.09-3.55-4.64v-2.1c2.05-.55 3.55-2.42 3.55-4.64s-1.51-4.09-3.55-4.64v-2.1c2.05-.55 3.55-2.42 3.55-4.64S4.54 8.51 2.5 7.96v-2.1a4.8 4.8 0 0 0 3.39-3.39h2.09c.55 2.04 2.42 3.55 4.64 3.55s4.09-1.51 4.64-3.55h2.1c.55 2.04 2.42 3.55 4.64 3.55s4.09-1.51 4.64-3.55h2.1c.55 2.04 2.42 3.55 4.64 3.55s4.09-1.51 4.64-3.55h2.09a4.8 4.8 0 0 0 3.39 3.39v2.09c-2.05.55-3.55 2.42-3.55 4.64s1.51 4.09 3.55 4.64Z"/>
</svg>
