<svg viewBox="0 0 32 32" xmlns="http://www.w3.org/2000/svg">
  <path fill="#1d1d1b" d="M28.5 3.5H3.49v25h25v-25Zm-7.63 19.89-1.49-4.27h-6.19l-1.49 4.27H8.29l6.2-16.56h3.62l6.24 16.56zm-4.58-13.18 2.16 6.22h-4.32zM32 3.08V1.5c-.83 0-1.5-.67-1.5-1.5h-1.57c0 .83-.67 1.5-1.5 1.5s-1.5-.67-1.5-1.5h-1.57c0 .83-.67 1.5-1.5 1.5s-1.5-.67-1.5-1.5h-1.57c0 .83-.67 1.5-1.5 1.5s-1.5-.67-1.5-1.5h-1.57c0 .83-.67 1.5-1.5 1.5s-1.5-.67-1.5-1.5h-1.57c0 .83-.67 1.5-1.5 1.5S7.65.83 7.65 0H6.08c0 .83-.67 1.5-1.5 1.5S3.08.83 3.08 0H1.51C1.5.83.82 1.5 0 1.5v1.58c.83 0 1.5.67 1.5 1.5S.82 6.08 0 6.08v1.58a1.496 1.496 0 1 1 0 2.99v1.58c.83 0 1.5.67 1.5 1.5s-.68 1.5-1.5 1.5v1.58c.83 0 1.5.67 1.5 1.5s-.67 1.5-1.5 1.5v1.58c.83 0 1.5.67 1.5 1.5s-.67 1.5-1.5 1.5v1.58c.83 0 1.5.67 1.5 1.5s-.67 1.5-1.5 1.5v1.58c.82 0 1.47.65 1.49 1.46h1.58c0-.83.67-1.5 1.5-1.5s1.5.67 1.5 1.5h1.57c0-.83.67-1.5 1.5-1.5s1.5.67 1.5 1.5h1.57c0-.83.67-1.5 1.5-1.5s1.5.67 1.5 1.5h1.57c0-.83.67-1.5 1.5-1.5s1.5.67 1.5 1.5h1.57c0-.83.67-1.5 1.5-1.5s1.5.67 1.5 1.5h1.57c0-.83.67-1.5 1.5-1.5s1.5.67 1.5 1.5h1.57c0-.83.67-1.5 1.5-1.5v-1.54c-.83 0-1.5-.67-1.5-1.5s.67-1.5 1.5-1.5v-1.58c-.83 0-1.5-.67-1.5-1.5s.67-1.5 1.5-1.5v-1.58c-.83 0-1.5-.67-1.5-1.5s.67-1.5 1.5-1.5v-1.58c-.83 0-1.5-.67-1.5-1.5s.67-1.5 1.5-1.5v-1.58c-.83 0-1.5-.67-1.5-1.5s.67-1.5 1.5-1.5V6.07c-.83 0-1.5-.67-1.5-1.5s.67-1.5 1.5-1.5Zm-2.5 26.43H2.49V2.5h27v27Z"/>
</svg>
