<svg viewBox="0 0 16 16" xmlns="http://www.w3.org/2000/svg">
  <path d="M7.99 0C3.58 0 0 3.58 0 8s3.58 8 8 8 8-3.58 8-8-3.59-8-8.01-8m0 14.5c-3.58 0-6.5-2.92-6.5-6.5s2.92-6.5 6.5-6.5 6.5 2.92 6.5 6.5-2.92 6.5-6.5 6.5M12.35 5l-1.41-1.41c-.41-.41-1.13-.41-1.53 0L4.33 8.67l-.52 3.45 3.46-.51 3.88-3.88s.01 0 .02-.01c0 0 0-.01.01-.02l1.18-1.18c.2-.2.32-.48.32-.77s-.11-.56-.32-.77Zm-2.18-.06.82.83-.38.38-.83-.82.38-.38ZM6.76 8.36l1.97-1.97.83.82-1.98 1.98-.83-.82ZM5.72 9.44l.77.77-.91.13.14-.91Z"/>
</svg>
