<svg viewBox="0 0 48 48" xmlns="http://www.w3.org/2000/svg">
  <path d="M24.01.02C10.75.02 0 10.77 0 24.02s10.75 24 24 24 24-10.75 24-24-10.74-24-23.99-24m0 45.5c-11.86 0-21.5-9.64-21.5-21.5s9.64-21.5 21.5-21.5 21.5 9.64 21.5 21.5-9.64 21.5-21.5 21.5m5.27-24.3-5.74 8.7-4.26-4.56c-.47-.5-.44-1.3.06-1.77s1.29-.45 1.77.06l2.1 2.24 3.99-6.05c.38-.58 1.16-.74 1.73-.35.58.38.74 1.16.35 1.73M11.54 9.92l.17 23.09 12.37 9.42 12.36-9.54-.17-23.2-24.72.23Zm12.53 29.36-9.87-7.51-.15-19.37 19.72-.19.15 19.46-9.86 7.61Z"/>
</svg>
