<svg viewBox="0 0 32 32" xmlns="http://www.w3.org/2000/svg">
  <path d="M15.99 0C7.16 0 0 7.16 0 16s7.16 16 15.99 16 16-7.16 16-16-7.16-16-16-16m0 30c-7.72 0-14-6.28-14-14s6.28-14 14-14 14 6.28 14 14-6.28 14-14 14m5.54-22.48c-.65-.65-1.71-.65-2.36 0L9.12 17.57l-.91 6.08 6.09-.89 10.05-10.05c.32-.31.49-.73.49-1.18s-.17-.87-.49-1.18l-2.83-2.83Zm-3.75 4.22 2.37 2.34-5.35 5.35-2.36-2.36 5.33-5.33Zm-7.2 9.55.41-2.76.04-.04 2.36 2.36-.04.04-2.77.41Zm10.99-8.62-2.37-2.34 1.15-1.15 2.36 2.36-1.14 1.14Z"/>
</svg>
