<svg viewBox="0 0 48 48" xmlns="http://www.w3.org/2000/svg">
  <path d="M24 .02c-2.07 0-4.08.26-6 .76-1.92.49-3.74 1.22-5.44 2.14q-1.02.555-1.98 1.2c-1.28.86-2.47 1.84-3.55 2.93C2.69 11.39 0 17.39 0 24.02s2.69 12.63 7.03 16.97c1.09 1.09 2.28 2.07 3.55 2.93q.96.645 1.98 1.2c1.7.92 3.52 1.65 5.44 2.14s3.93.76 6 .76c13.25 0 24-10.75 24-24s-10.74-24-24-24m8.94 17.08L22.67 32.66l-7.22-7.73c-.47-.5-.44-1.3.06-1.77s1.29-.44 1.77.06l5.05 5.41 8.52-12.91c.38-.58 1.16-.74 1.73-.35.58.38.74 1.16.35 1.73Z"/>
</svg>
