<svg viewBox="0 0 48 48" xmlns="http://www.w3.org/2000/svg">
  <path d="M24.01.01C10.75.01 0 10.76 0 24.01c0 2.07.26 4.08.76 6 .49 1.92 1.22 3.74 2.14 5.44q.555 1.02 1.2 1.98c.86 1.28 1.84 2.47 2.93 3.55 4.34 4.34 10.34 7.03 16.97 7.03s12.63-2.69 16.97-7.03c1.09-1.09 2.07-2.28 2.93-3.55q.645-.96 1.2-1.98c.92-1.7 1.65-3.52 2.14-5.44s.76-3.93.76-6c.01-13.25-10.74-24-23.99-24m.07 42.4-12.37-9.42-.17-23.09 24.72-.23.17 23.2-12.36 9.54ZM14.06 12.38l.15 19.37 9.87 7.51 9.86-7.61-.15-19.46-19.72.19Zm15.22 8.83-5.74 8.7-4.26-4.56c-.47-.5-.44-1.3.06-1.77s1.29-.45 1.77.06l2.1 2.24 4-6.05c.38-.58 1.16-.74 1.73-.35.58.38.74 1.16.35 1.73Z"/>
</svg>
