<svg viewBox="0 0 24 24" xmlns="http://www.w3.org/2000/svg">
  <path d="M11.99 0C5.37 0 0 5.37 0 12s5.37 12 12 12 12-5.37 12-12S18.62 0 11.99 0m0 22.25c-5.65 0-10.25-4.6-10.25-10.25S6.34 1.75 11.99 1.75 22.24 6.35 22.24 12s-4.6 10.25-10.25 10.25m4.24-16.69c-.53-.53-1.41-.54-1.95 0l-7.57 7.57L6 17.9l4.78-.7 6.01-6.02s.02-.01.03-.02c0 0 .01-.02.02-.03l1.51-1.51c.26-.26.4-.61.4-.97s-.14-.71-.4-.97zm.62 3.09-.66.66-1.6-1.58.67-.67zm-7.28 4.1 3.78-3.78 1.6 1.58-3.79 3.79zm-1.21 1.26 1.55 1.55-1.82.27.27-1.81Z"/>
</svg>
