<svg viewBox="0 0 32 32" xmlns="http://www.w3.org/2000/svg">
  <path d="M16 0c-1.65 0-3.25.26-4.76.73A16.01 16.01 0 0 0 .72 11.25c-.47 1.5-.72 3.1-.72 4.76s.25 3.25.72 4.76c.24.76.54 1.49.89 2.19a15.85 15.85 0 0 0 4.22 5.39c.98.81 2.07 1.49 3.22 2.05.71.34 1.43.65 2.19.89 1.5.47 3.1.72 4.76.72a15.95 15.95 0 0 0 7.63-1.93c1.81-.99 3.42-2.31 4.72-3.89s2.31-3.42 2.93-5.42c.47-1.5.72-3.1.72-4.76C32 7.17 24.84 0 16 0m6.1 11.48-6.96 10.55-4.96-5.31a.99.99 0 0 1 .05-1.41.99.99 0 0 1 1.41.05l3.22 3.45 5.56-8.43c.3-.46.92-.59 1.39-.28.46.3.59.92.28 1.39Z"/>
</svg>
