<svg viewBox="0 0 48 48" xmlns="http://www.w3.org/2000/svg">
  <path d="M10.52 14.17c0-1.24-1.01-2.25-2.25-2.25H2.28c-1.25 0-2.25 1.01-2.25 2.25V43h10.5V14.17ZM8.02 40.5H2.53V14.42h5.5V40.5Zm37.73-24.81h-6c-1.24 0-2.25 1.01-2.25 2.25V43H48V17.94c0-1.24-1.01-2.25-2.25-2.25M45.5 40.5H40V18.19h5.5zM23.02 23.23c0-1.24-1.01-2.25-2.25-2.25h-6c-1.24 0-2.25 1.01-2.25 2.25v19.78h10.5zm-2.5 17.27h-5.5V23.48h5.5zM35.51 2.26C35.51 1.01 34.5 0 33.26 0h-6c-1.24 0-2.25 1.01-2.25 2.25v40.74h10.5zm-2.5 38.24h-5.5V2.51h5.5zm14.98 7.51H0v-2.5h47.99z"/>
</svg>
