<svg viewBox="0 0 32 32" xmlns="http://www.w3.org/2000/svg">
  <path d="m9.71 8.57.09 12.42 6.24 4.75 6.24-4.82-.09-12.47zm9.95 5.64-3.94 5.98-2.99-3.2a.99.99 0 0 1 .05-1.41.99.99 0 0 1 1.41.05l1.25 1.34 2.55-3.86c.3-.46.92-.59 1.39-.28.46.3.59.92.28 1.39ZM16.01-.01C7.17-.01 0 7.15 0 15.99c0 2.21.45 4.31 1.26 6.23.4.96.9 1.87 1.48 2.72 2.88 4.26 7.74 7.05 13.27 7.05s10.39-2.8 13.27-7.05a15.94 15.94 0 0 0 2.74-8.95c-.01-8.84-7.18-16-16.01-16m.04 28.27L7.8 21.98 7.68 6.59l16.48-.15.12 15.47-8.24 6.36Z"/>
</svg>
