<svg viewBox="0 0 24 24" xmlns="http://www.w3.org/2000/svg">
  <path d="m14.59 7.73.67-.67 1.59 1.59-.66.66zm-1.24 1.24-3.78 3.78 1.59 1.59 3.79-3.79zM23.99 12c0 4.14-2.1 7.79-5.29 9.95q-.96.645-2.04 1.11c-1.44.61-3.01.94-4.67.94-1.55 0-3.02-.3-4.38-.83-.98-.38-1.89-.89-2.73-1.51-.93-.68-1.75-1.5-2.45-2.42-.77-1.01-1.38-2.15-1.8-3.37C.23 14.65 0 13.35 0 12 0 5.37 5.37 0 11.99 0a11.87 11.87 0 0 1 6.71 2.05c3.19 2.16 5.29 5.81 5.29 9.95m-5.64-4.32-2.12-2.12c-.53-.54-1.41-.54-1.95 0l-7.57 7.57L6 17.9l4.78-.7 6.01-6.01s.02-.01.03-.02c0 0 .01-.02.02-.03l1.51-1.51c.54-.54.54-1.41 0-1.95m-9.99 6.33-.27 1.81 1.82-.27L8.36 14Z"/>
</svg>
