<svg viewBox="0 0 64 64" xmlns="http://www.w3.org/2000/svg">
  <path d="m18.15 15.92.2 26.69 13.74 10.46 13.73-10.6-.2-26.81-27.46.26Zm20.64 12.19L31.34 39.4l-5.43-5.81c-.52-.55-.49-1.42.07-1.94s1.43-.49 1.94.07l3.05 3.26 5.53-8.38c.42-.63 1.27-.81 1.91-.39.63.42.81 1.27.39 1.91Zm25.18 2.25c-.11-2.18-.44-4.31-.97-6.35-.26-1.02-.58-2.03-.93-3.01-.26-.71-.55-1.41-.86-2.09-.33-.73-.68-1.45-1.06-2.16-.59-1.1-1.26-2.15-1.97-3.16a31.7 31.7 0 0 0-3.54-4.21 32.3 32.3 0 0 0-4.21-3.54c-1.01-.71-2.06-1.38-3.16-1.97-.7-.38-1.42-.73-2.16-1.06-.69-.31-1.38-.6-2.09-.86-.98-.36-1.98-.67-3.01-.93a31.6 31.6 0 0 0-8-1.01C27.59 0 23.38.9 19.55 2.52c-.96.4-1.89.85-2.8 1.35-.91.49-1.79 1.03-2.64 1.6a32.5 32.5 0 0 0-6.8 6.18A32 32 0 0 0 1.94 21c-.36.98-.67 1.98-.93 3.01a31.6 31.6 0 0 0-1.01 8C0 49.68 14.34 64 32.01 64a31.6 31.6 0 0 0 8-1.01c1.02-.26 2.03-.58 3.01-.93 2.94-1.08 5.68-2.57 8.14-4.42.41-.31.81-.62 1.21-.95 2.37-1.96 4.45-4.25 6.18-6.8.58-.85 1.11-1.73 1.6-2.64s.94-1.84 1.35-2.8c1.62-3.83 2.51-8.04 2.51-12.46 0-.55-.01-1.1-.04-1.65ZM32.1 56.54 15.61 43.98l-.23-30.79 32.96-.31.23 30.93L32.1 56.53Z"/>
</svg>
