<svg viewBox="0 0 40 40" xmlns="http://www.w3.org/2000/svg">
  <path d="M20 0C8.95 0 0 8.95 0 20c0 2.76.56 5.39 1.57 7.78.51 1.2 1.13 2.33 1.84 3.4a19.8 19.8 0 0 0 3.86 4.25C10.73 38.28 15.16 40 19.99 40s9.26-1.71 12.72-4.57a19.8 19.8 0 0 0 3.86-4.25 19.2 19.2 0 0 0 1.84-3.4c1.01-2.39 1.57-5.02 1.57-7.78C40 8.95 31.04 0 20 0m-2.64 25.47c0 .62-.5 1.12-1.12 1.12s-1.12-.5-1.12-1.12V14.53c0-.62.5-1.12 1.12-1.12s1.12.5 1.12 1.12zm7.53 0c0 .62-.5 1.12-1.12 1.12s-1.12-.5-1.12-1.12V14.53c0-.62.5-1.12 1.12-1.12s1.12.5 1.12 1.12z"/>
</svg>
