<svg viewBox="0 0 64 64" xmlns="http://www.w3.org/2000/svg">
  <path d="M43.01 32.01c0 6.07-4.93 11-11 11s-11-4.93-11-11 4.93-11 11-11 11 4.93 11 11m21 0c0 4.42-.9 8.63-2.51 12.46-.2.48-.42.95-.64 1.42-.45.93-.94 1.84-1.48 2.72-.27.44-.54.87-.83 1.3-.86 1.28-1.81 2.49-2.85 3.62-.69.76-1.41 1.48-2.17 2.17a31.85 31.85 0 0 1-21.52 8.31c-11.05 0-20.78-5.6-26.53-14.11-.29-.43-.57-.86-.83-1.3A31.8 31.8 0 0 1 .01 32.01c0-4.41.9-8.62 2.52-12.45.34-.8.71-1.57 1.11-2.33.32-.61.65-1.22 1.01-1.81a28 28 0 0 1 1.93-2.81c.39-.51.8-1 1.21-1.49.51-.6 1.04-1.18 1.6-1.73l.05-.05c.51-.51 1.05-1 1.6-1.48 2.01-1.75 4.24-3.24 6.64-4.45.37-.18.73-.36 1.11-.53C22.81 1.04 27.29.01 32.01.01c11.05 0 20.79 5.6 26.54 14.11a34 34 0 0 1 2.31 4.02 31.9 31.9 0 0 1 3.15 13.88Zm-16 0c0-8.84-7.16-16-16-16s-16 7.16-16 16 7.16 16 16 16 16-7.16 16-16"/>
</svg>
