<svg viewBox="0 0 40 40" xmlns="http://www.w3.org/2000/svg">
  <path d="M20.01 0c-2.76 0-5.39.56-7.79 1.57-1.2.51-2.33 1.13-3.4 1.84a19.8 19.8 0 0 0-4.25 3.86C1.72 10.73 0 15.17 0 20s1.71 9.26 4.57 12.72a19.8 19.8 0 0 0 4.25 3.86 19.2 19.2 0 0 0 3.4 1.84c2.39 1.01 5.02 1.57 7.78 1.57 11.05 0 20-8.95 20-20S31.05 0 20.01 0m.06 35.33L9.76 27.48 9.62 8.24l20.6-.19.15 19.33zm-8.19-24.86L12 26.36l8.06 6.13 8.05-6.21-.12-15.96-16.1.15Zm12.59 7.24-4.84 7.34-3.62-3.88c-.42-.45-.4-1.17.05-1.59s1.17-.4 1.59.05l1.67 1.79 3.27-4.96a1.127 1.127 0 0 1 1.88 1.24Z"/>
</svg>
