<svg viewBox="0 0 40 40" xmlns="http://www.w3.org/2000/svg">
  <path d="m16.34 26.69-.06.06-3.96.58.59-3.95.06-.06zm7.46-14.2 3.4 3.34 1.58-1.58-3.37-3.37-1.6 1.6Zm16.19 7.5c0 2.76-.56 5.39-1.57 7.78-.51 1.2-1.13 2.33-1.84 3.4a19.8 19.8 0 0 1-3.86 4.25c-3.46 2.85-7.89 4.57-12.72 4.57s-9.26-1.71-12.72-4.57a19.8 19.8 0 0 1-3.86-4.25 19.2 19.2 0 0 1-1.84-3.4C.55 25.38 0 22.75 0 19.99 0 8.94 8.95 0 19.99 0s20 8.95 20 20Zm-9.45-7.15-3.72-3.72c-.76-.76-2.08-.76-2.83 0L10.81 22.3l-1.15 7.68 7.7-1.13 13.18-13.18c.78-.78.78-2.05 0-2.83m-12.6 12.25 7.67-7.67-3.4-3.34-7.64 7.64z"/>
</svg>
