<svg viewBox="0 0 24 24" xmlns="http://www.w3.org/2000/svg">
  <path d="m7.54 6.67.07 8.94 4.43 3.38 4.43-3.42-.07-8.98zm7.31 4.06-3.04 4.61-2.35-2.51c-.33-.35-.31-.91.04-1.24s.91-.31 1.24.04l.83.89 1.82-2.76c.27-.4.81-.51 1.21-.25.4.27.51.81.25 1.21Zm8.62-2.31c-.47-1.5-1.22-2.88-2.2-4.06A12.04 12.04 0 0 0 15.58.53a12.05 12.05 0 0 0-7.14 0c-1.5.47-2.88 1.22-4.06 2.2A12.04 12.04 0 0 0 0 11.99c0 6.63 5.38 12 12.01 12s12-5.37 12-12c0-1.24-.19-2.44-.54-3.57M12.04 21.19l-6.18-4.71-.09-11.55 12.36-.12.09 11.6-6.18 4.77Z"/>
</svg>
