<svg viewBox="0 0 40 40" xmlns="http://www.w3.org/2000/svg">
  <path d="M20.01.01C8.96.01 0 8.97 0 20.01s8.95 20 20 20 20-8.95 20-20-8.95-20-19.99-20m0 37.75c-9.79 0-17.75-7.96-17.75-17.75S10.22 2.26 20.01 2.26s17.75 7.96 17.75 17.75-7.96 17.75-17.75 17.75m4.46-20.04-4.84 7.34-3.62-3.88c-.42-.45-.4-1.17.05-1.59s1.17-.4 1.59.05l1.67 1.79 3.27-4.96a1.127 1.127 0 0 1 1.88 1.24ZM9.62 8.26l.14 19.24 10.31 7.85 10.3-7.95-.15-19.33zm10.44 24.25L12 26.38l-.12-15.89 16.1-.15.12 15.96-8.05 6.21Z"/>
</svg>
