<svg viewBox="0 0 16 16" xmlns="http://www.w3.org/2000/svg">
  <path d="m11.83 11.95.96 2.83v1.21h-1.5v-1.08l-.86-2.43H5.59l-.86 2.43v1.08h-1.5l.04-1.46.91-2.58c.13-.56.63-.96 1.22-.96h5.2c.58 0 1.08.4 1.22.96Zm4.18-8.78v1c0 .28-.22.5-.5.5H13.2v-.18h-.67V6.4c0 .69-.56 1.25-1.25 1.25h-1.05c.02.13.04.27.04.41 0 1.24-1.01 2.25-2.25 2.25S5.77 9.3 5.77 8.06c0-.14.02-.28.04-.41H4.75c-.69 0-1.25-.56-1.25-1.25V4.49h-.67v.18H.51c-.27 0-.5-.22-.5-.5v-1c0-.28.22-.5.5-.5h2.31v.32h.92c.69 0 1.25.56 1.25 1.25v1.91h.2l.58-3.25c.09-.6.61-1.04 1.23-1.04h2.02c.62 0 1.14.45 1.24 1.06l.57 3.23h.19V4.24c0-.69.56-1.25 1.25-1.25h.92v-.32h2.31c.28 0 .5.22.5.5ZM6.72 6.15h.12c.34-.21.74-.34 1.17-.34s.83.13 1.17.34h.12l-.49-2.79h-1.6zm2.04 1.91c0-.41-.34-.75-.75-.75s-.75.34-.75.75.34.75.75.75.75-.34.75-.75"/>
</svg>
