<svg viewBox="0 0 40 40" xmlns="http://www.w3.org/2000/svg">
  <path d="m28.85 28.81 2.36 6.68v4.47h-2.25v-4.09l-2.31-6.58c0-.06-.06-.1-.12-.1H13.52c-.06 0-.11.04-.12.1l-.05.18-2.26 6.4v4.09H8.84v-4.47l2.36-6.69c.24-1.09 1.2-1.86 2.32-1.86h13.01c1.12 0 2.08.78 2.32 1.87M40.02 7.68v3c0 .55-.45 1-1 1h-6.04v-1.21h-2.31c-.07 0-.12.06-.12.13V16c0 1.31-1.07 2.38-2.38 2.38h-2.7a5.627 5.627 0 0 1-5.45 6.99 5.627 5.627 0 0 1-5.45-6.99h-2.71c-1.31 0-2.38-1.07-2.38-2.38v-5.4c0-.07-.06-.13-.13-.13H7.04v1.21H1.02c-.56 0-1-.45-1-1v-3c0-.55.45-1 1-1h6.04v1.54h2.31c1.31 0 2.38 1.07 2.38 2.38V16c0 .07.06.13.13.13h1.75l1.55-8.73a2.35 2.35 0 0 1 2.34-1.99h5.05c1.18 0 2.17.85 2.35 2.01l1.54 8.71h1.74c.07 0 .13-.06.13-.13v-5.4c0-1.31 1.07-2.38 2.37-2.38h2.31V6.68h6.04c.55 0 1 .45 1 1ZM4.8 8.93H2.26v.5H4.8zm18.6 10.79c0-1.86-1.51-3.37-3.37-3.37s-3.37 1.51-3.37 3.37 1.51 3.37 3.37 3.37 3.37-1.51 3.37-3.37m.71-3.86-1.43-8.09c-.01-.09-.07-.13-.13-.13H17.5c-.06 0-.11.04-.12.11l-1.44 8.12a5.586 5.586 0 0 1 8.16 0Zm13.66-6.93h-2.54v.5h2.54z"/>
</svg>
