<svg viewBox="0 0 64 64" xmlns="http://www.w3.org/2000/svg">
  <path d="m45.74 46.28 3.76 10.65v7.08H14.55v-7.08l3.76-10.65c.33-1.56 1.7-2.68 3.3-2.68h20.82c1.61 0 2.97 1.12 3.3 2.68Zm18.28-33.54v4c0 1.1-.9 2-2 2h-9.26v-2.36h-3.69c-.34 0-.62.28-.62.62v8.64c0 1.86-1.51 3.38-3.38 3.38h-3.01c-1.16-4.46-5.21-7.77-10.03-7.77S23.16 24.56 22 29.02h-3.02c-1.86 0-3.38-1.51-3.38-3.38V17c0-.34-.28-.62-.62-.62h-3.69v2.36H2.02a2 2 0 0 1-2-2v-4c0-1.1.9-2 2-2h9.26v2.89h3.69c1.86 0 3.38 1.51 3.38 3.38v8.64c0 .34.28.62.62.62h3.15l2.54-14.32c.25-1.63 1.65-2.83 3.33-2.83h8.07c1.68 0 3.08 1.2 3.34 2.86l2.53 14.29h3.13c.34 0 .62-.28.62-.62v-8.64c0-1.86 1.51-3.38 3.38-3.38h3.69v-2.89h9.26c1.1 0 2 .9 2 2Zm-55.49.75H2.77v2.5h5.76zm52.74 0h-5.76v2.5h5.76zM32.03 40.62a9 9 0 1 1 .001-18.001 9 9 0 0 1-.001 18.001m0-2.75c3.45 0 6.25-2.8 6.25-6.25s-2.8-6.25-6.25-6.25-6.25 2.8-6.25 6.25 2.8 6.25 6.25 6.25"/>
</svg>
