<svg viewBox="0 0 24 24" xmlns="http://www.w3.org/2000/svg">
  <path d="m17.5 17.26 1.42 4.18v2.57h-1.75v-2.42l-1.36-3.84-7.62.04-1.34 3.8v2.42H5.1l.05-2.86 1.37-3.89c.17-.74.82-1.26 1.58-1.26h7.81c.76 0 1.42.53 1.58 1.26Zm6.51-12.73v2c0 .28-.22.5-.5.5h-3.72V6.5h-1.26v3.11c0 .9-.73 1.63-1.62 1.63h-1.58c.04.2.06.41.06.62 0 1.86-1.51 3.38-3.38 3.38a3.376 3.376 0 0 1-3.32-4H7.11c-.9 0-1.63-.73-1.63-1.63V6.5H4.22v.53H.51a.51.51 0 0 1-.5-.5v-2a.51.51 0 0 1 .5-.5h3.72v.72h1.38c.9 0 1.63.73 1.63 1.63v3.11h.75l.9-5.07c.12-.78.79-1.36 1.6-1.36h3.03c.81 0 1.48.58 1.61 1.38l.9 5.06h.75V6.39c0-.9.73-1.63 1.63-1.63h1.39v-.72h3.72c.28 0 .5.22.5.5ZM9.81 9.32a3.33 3.33 0 0 1 4.42 0l-.8-4.52h-2.82zm3.83 2.54a1.62 1.62 0 1 0-3.24 0 1.62 1.62 0 0 0 3.24 0"/>
</svg>
