<svg viewBox="0 0 32 32" xmlns="http://www.w3.org/2000/svg">
  <path d="m23.18 23.07 1.89 5.36v3.59H6.98v-3.59l1.89-5.36c.2-.91 1.01-1.57 1.95-1.57h10.41c.94 0 1.75.65 1.95 1.57m8.08-17.69h-4.88v1.13h-1.85c-1.1 0-2 .9-2 2v4.32h-1.3l-1.22-6.88c-.15-.98-.98-1.69-1.98-1.69h-4.04c-.99 0-1.82.71-1.97 1.67l-1.22 6.9H9.49V8.51c0-1.1-.9-2-2-2H5.64V5.38H.77c-.42 0-.75.34-.75.75v2.5c0 .41.34.75.75.75h4.88v-.87H7.5v4.32c0 1.1.9 2 2 2h1.12c.47-2.56 2.71-4.51 5.41-4.51s4.94 1.95 5.41 4.51h1.11c1.1 0 2-.9 2-2V8.51h1.85v.87h4.88c.41 0 .75-.34.75-.75v-2.5c0-.41-.34-.75-.75-.75ZM16.02 20.32c-2.49 0-4.5-2.01-4.5-4.5s2.01-4.5 4.5-4.5 4.5 2.01 4.5 4.5-2.01 4.5-4.5 4.5m0-2a2.5 2.5 0 0 0 0-5 2.5 2.5 0 0 0 0 5"/>
</svg>
