<svg viewBox="0 0 40 40" xmlns="http://www.w3.org/2000/svg">
  <path d="m28.85 28.82 2.36 6.68v4.47H8.84V35.5l2.36-6.69c.24-1.09 1.2-1.86 2.32-1.86h13.01c1.12 0 2.08.78 2.32 1.87M40.02 7.68v3c0 .55-.45 1-1 1h-6.04v-1.21h-2.31c-.07 0-.12.06-.12.13V16c0 1.31-1.07 2.38-2.38 2.38h-1.54c-.63-3.07-3.36-5.39-6.61-5.39s-5.98 2.32-6.61 5.39h-1.55c-1.31 0-2.38-1.07-2.38-2.38v-5.4c0-.07-.06-.13-.13-.13H7.04v1.21H1.02c-.56 0-1-.44-1-1v-3c0-.55.45-1 1-1h6.04v1.54h2.31c1.31 0 2.38 1.07 2.38 2.38V16c0 .07.06.13.13.13h1.75l1.55-8.73a2.35 2.35 0 0 1 2.34-1.99h5.05c1.18 0 2.17.85 2.35 2.01l1.54 8.71h1.74c.07 0 .13-.06.13-.13v-5.4c0-1.31 1.07-2.38 2.37-2.38h2.31V6.68h6.04c.55 0 1 .45 1 1ZM4.8 8.93H2.26v.5H4.8zm32.97 0h-2.54v.5h2.54zM20.02 25.36c-3.11 0-5.62-2.52-5.62-5.62s2.52-5.63 5.62-5.63 5.62 2.52 5.62 5.63-2.52 5.62-5.62 5.62m0-2.25c1.86 0 3.37-1.51 3.37-3.37s-1.51-3.37-3.37-3.37-3.37 1.51-3.37 3.37 1.51 3.37 3.37 3.37"/>
</svg>
