<svg viewBox="0 0 32 32" xmlns="http://www.w3.org/2000/svg">
  <path d="M32 29.98v2H0v-2zM2.36 11.4V1.24c0-.69.56-1.25 1.25-1.25h10.16c.69 0 1.25.56 1.25 1.25v10.17c0 .69-.56 1.25-1.25 1.25H3.61c-.69 0-1.25-.56-1.25-1.25Zm2-.75h8.66V1.99H4.36v8.67Zm12.62.75V1.24c0-.69.56-1.25 1.25-1.25h10.16c.69 0 1.25.56 1.25 1.25v10.17c0 .69-.56 1.25-1.25 1.25H18.23c-.69 0-1.25-.56-1.25-1.25Zm2-.75h8.66V1.99h-8.66v8.67ZM2.36 26.08V15.91c0-.69.56-1.25 1.25-1.25h10.16c.69 0 1.25.56 1.25 1.25v10.17c0 .69-.56 1.25-1.25 1.25H3.61c-.69 0-1.25-.56-1.25-1.25m2-.75h8.66v-8.67H4.36zm12.62.7V15.86c0-.69.56-1.25 1.25-1.25h10.16c.69 0 1.25.56 1.25 1.25v10.17c0 .69-.56 1.25-1.25 1.25H18.23c-.69 0-1.25-.56-1.25-1.25m2-.75h8.66v-8.67h-8.66z"/>
</svg>
