<svg viewBox="0 0 32 32" xmlns="http://www.w3.org/2000/svg">
  <path d="M3.61 12.66h10.16c.69 0 1.25-.56 1.25-1.25V1.26c0-.69-.56-1.26-1.25-1.26H3.61c-.69 0-1.25.57-1.25 1.26v10.15c0 .69.56 1.25 1.25 1.25m.75-10.65h8.66v8.66H4.36zM17.92 12.6c.58-.74 1.44-1.19 2.39-1.19s1.86.47 2.44 1.25h5.65c.69 0 1.25-.56 1.25-1.25V1.26C29.64.57 29.08 0 28.39 0H18.23c-.69 0-1.25.56-1.25 1.25V11.4c0 .58.4 1.05.94 1.19Zm1.06-10.59h8.66v8.66h-8.66zM2.36 26.07V15.92c0-.69.56-1.25 1.25-1.25h10.16c.69 0 1.25.56 1.25 1.25v1.27l-2 3.21v-3.73H4.36v8.66h5.59l-1.24 2h-5.1c-.69 0-1.25-.56-1.25-1.25Zm25.28-5.61v-3.85h-2.4l-1.24-2h4.39c.69 0 1.25.56 1.25 1.25v7.81zM8 31.42c.12.22.27.41.43.58H0v-2h7.63c.01.48.13.97.37 1.41Zm23.69-2.57-9.63-15.47c-.4-.65-1.07-.97-1.75-.97s-1.34.32-1.75.97L8.93 28.85c-.85 1.37.13 3.14 1.75 3.14h19.27c1.61 0 2.6-1.77 1.75-3.14Zm-1.75 1.14H10.67s-.03 0-.05-.03-.01-.04 0-.06l9.63-15.47s.02-.03.05-.03.04 0 .05.03l9.63 15.47s.02.03 0 .06-.02.03-.05.03Zm-10.3-4.71-.39-3.02v-2.3h2.11v2.3l-.39 3.02h-1.34Zm1.89 1.74c0 .62-.48 1.14-1.22 1.14s-1.22-.52-1.22-1.14.48-1.12 1.22-1.12 1.22.53 1.22 1.12"/>
</svg>
