<svg viewBox="0 0 16 16" xmlns="http://www.w3.org/2000/svg">
  <path d="M16 14.5V16H0v-1.5zM1.18 5.83V.5c0-.28.22-.5.5-.5h5.33c.28 0 .5.22.5.5v5.33c0 .28-.22.5-.5.5H1.68c-.28 0-.5-.22-.5-.5m1.5-1h3.33V1.5H2.68zm5.81 1V.5c0-.28.23-.5.5-.5h5.33c.28 0 .5.22.5.5v5.33c0 .28-.22.5-.5.5H8.99c-.28 0-.5-.22-.5-.5m1.5-1h3.33V1.5H9.99zm-8.81 8.33V7.83c0-.28.22-.5.5-.5h5.33c.28 0 .5.22.5.5v5.33c0 .28-.22.5-.5.5H1.68c-.28 0-.5-.22-.5-.5m1.5-1h3.33V8.83H2.68zm5.81.98V7.81c0-.28.22-.5.5-.5h5.33c.28 0 .5.22.5.5v5.33c0 .28-.22.5-.5.5H8.99c-.28 0-.5-.22-.5-.5m1.5-1h3.33V8.81H9.99z"/>
</svg>
