<svg viewBox="0 0 64 64" xmlns="http://www.w3.org/2000/svg">
  <path d="M64 61.26v2.75H0v-2.75zM4.72 22.82V2.51a2.5 2.5 0 0 1 2.5-2.5h20.32a2.5 2.5 0 0 1 2.5 2.5v20.31a2.5 2.5 0 0 1-2.5 2.5H7.22a2.5 2.5 0 0 1-2.5-2.5m2.75-.25h19.82V2.76H7.47zm26.49.25V2.51a2.5 2.5 0 0 1 2.5-2.5h20.32a2.5 2.5 0 0 1 2.5 2.5v20.31a2.5 2.5 0 0 1-2.5 2.5H36.46a2.5 2.5 0 0 1-2.5-2.5m2.75-.25h19.82V2.76H36.71zM4.72 52.13V31.82a2.5 2.5 0 0 1 2.5-2.5h20.32a2.5 2.5 0 0 1 2.5 2.5v20.31a2.5 2.5 0 0 1-2.5 2.5H7.22a2.5 2.5 0 0 1-2.5-2.5m2.75-.25h19.82V32.07H7.47zm26.49.16V31.73a2.5 2.5 0 0 1 2.5-2.5h20.32a2.5 2.5 0 0 1 2.5 2.5v20.31a2.5 2.5 0 0 1-2.5 2.5H36.46a2.5 2.5 0 0 1-2.5-2.5m2.75-.25h19.82V31.98H36.71z"/>
</svg>
