<svg viewBox="0 0 48 48" xmlns="http://www.w3.org/2000/svg">
  <path d="M4.98 16.63c-.22-.32-.34-.7-.34-1.12V2.01a2 2 0 0 1 2-2h13.51c1.1 0 2 .9 2 2v13.5c0 .41-.13.8-.34 1.12-.14.21-.33.4-.54.54-.32.22-.7.34-1.12.34H6.64c-.41 0-.8-.13-1.12-.34-.21-.14-.4-.33-.54-.54m22.46.3q.135.135.3.24c.32.22.7.34 1.12.34h13.51c.41 0 .8-.13 1.12-.34.21-.14.4-.33.54-.54.22-.32.34-.7.34-1.12V2.01c0-1.1-.9-2-2-2H28.86c-.41 0-.8.13-1.12.34-.21.14-.4.33-.54.54-.22.32-.34.7-.34 1.12v13.5a2.05 2.05 0 0 0 .58 1.42M6.64 39.78h7.51l7.99-12.84v-2.66c0-1.1-.9-2-2-2H6.64c-1.1 0-2 .9-2 2v13.5c0 1.1.9 2 2 2m5.32 3.74H0v4.5h13.03c-.29-.29-.55-.62-.76-1-.61-1.1-.71-2.35-.31-3.5m30.4-21.31h-6.48l8.48 13.62V24.21c0-1.1-.9-2-2-2M48 44.89c0 .67-.22 1.32-.61 1.85-.55.74-1.42 1.25-2.48 1.25H16.05c-1.06 0-1.93-.51-2.48-1.25-.39-.53-.61-1.18-.61-1.85 0-.54.15-1.09.47-1.6l14.43-23.18c.6-.97 1.61-1.45 2.62-1.45.5 0 1.01.12 1.46.36s.85.61 1.16 1.09l14.43 23.18c.32.51.47 1.06.47 1.6M28.9 33.4l.58 4.53h2l.58-4.53v-3.44H28.9zm3.41 7.14c0-.9-.72-1.68-1.83-1.68s-1.82.79-1.82 1.68.72 1.7 1.82 1.7 1.83-.77 1.83-1.7"/>
</svg>
