<svg viewBox="0 0 24 24" xmlns="http://www.w3.org/2000/svg">
  <path d="M2.91 7.45V1c0-.55.45-1 1-1h6.45c.55 0 1 .45 1 1v6.45c0 .55-.45 1-1 1H3.91c-.55 0-1-.45-1-1m11.73 1h6.45c.55 0 1-.45 1-1V1c0-.55-.45-1-1-1h-6.45c-.55 0-1 .45-1 1v6.45c0 .55.45 1 1 1m6.45 2.27H18l4.09 6.57v-5.57c0-.55-.45-1-1-1M3.91 19.2h3.3l4.15-6.66v-.78c0-.55-.45-1-1-1H3.91c-.55 0-1 .45-1 1v6.45c0 .55.45 1 1 1Zm2.07 1.98.12-.19H0v3h6.18c-.09-.11-.19-.22-.27-.36-.43-.78-.41-1.69.06-2.45Zm17.28 2.6c-.23.14-.5.22-.8.22H8.03c-1.21 0-1.95-1.33-1.31-2.35l7.22-11.59a1.56 1.56 0 0 1 1.3-.73c.5 0 1.01.24 1.31.73l7.22 11.59c.08.13.14.26.18.4.19.67-.11 1.38-.68 1.73Zm-8.81-7.08.29 2.26h1l.29-2.26v-1.72h-1.58zm1.7 3.57c0-.45-.36-.84-.91-.84s-.91.39-.91.84.36.85.91.85.91-.39.91-.85"/>
</svg>
