<svg viewBox="0 0 24 24" xmlns="http://www.w3.org/2000/svg">
  <path d="M2.77 9.5h7.49c.55 0 1-.45 1-1V1.01c0-.56-.44-1.01-1-1.01H2.77c-.55 0-1 .45-1 1.01V8.5c0 .55.45 1 1 1m.75-7.74h5.99v5.99H3.52zm9.8 7.64c.46-.6 1.15-.96 1.91-.96.81 0 1.54.4 1.99 1.06h4.01c.55 0 1-.45 1-1V1.01c0-.55-.45-1-1-1h-7.49c-.55 0-1 .45-1 1V8.5c0 .4.24.74.58.9m1.17-7.64h5.99v5.99h-5.99zM7.47 18.74l-1.09 1.75H2.77c-.55 0-1-.45-1-1V12c0-.55.45-1 1-1h7.49c.55 0 1 .45 1 1v.65l-1.75 2.81v-2.71H3.52v5.99zm13.01-4.03v-2h-1.25l-1.09-1.75h3.08c.55 0 1 .45 1 1v5.56l-1.75-2.81ZM5.89 23.63c.08.14.18.26.28.38H0v-1.75h5.61c-.04.47.05.94.29 1.37Zm17.87-1.99-7.23-11.6c-.3-.48-.81-.73-1.31-.73s-1.01.24-1.31.73l-7.23 11.6c-.64 1.03.1 2.36 1.31 2.36h14.45c1.21 0 1.95-1.33 1.31-2.36Zm-15.38.61 6.85-11 6.85 11zm7.76-1.99c0 .47-.36.85-.91.85s-.91-.39-.91-.85.36-.84.91-.84.91.4.91.84m-1.7-5.29h1.58v1.72l-.29 2.27h-1l-.29-2.27z"/>
</svg>
