<svg viewBox="0 0 64 64" xmlns="http://www.w3.org/2000/svg">
  <path d="M5.06 22.03V2.5a2.45 2.45 0 0 1 .43-1.39C5.94.43 6.7 0 7.56 0h19.53a2.51 2.51 0 0 1 2.5 2.49v19.54a2.5 2.5 0 0 1-2.5 2.5H7.56a2.5 2.5 0 0 1-2.5-2.5m32.43 2.46c.91-.64 2-1 3.15-1s2.3.37 3.22 1.04h13.58a2.5 2.5 0 0 0 2.5-2.5V2.5a2.5 2.5 0 0 0-2.5-2.5H37.91a2.51 2.51 0 0 0-2.5 2.49v19.54c0 1.24.91 2.26 2.09 2.46Zm-32 29.36c.45.66 1.21 1.1 2.07 1.1h10.46l11.57-18.59v-3.44a2.5 2.5 0 0 0-2.5-2.5H7.56a2.5 2.5 0 0 0-2.5 2.5v19.54a2.45 2.45 0 0 0 .43 1.39m51.95-23.53h-9.5l12 19.28V32.82c0-.69-.28-1.32-.73-1.77s-1.08-.73-1.77-.73M16 58.94H0v5h17.71a5.2 5.2 0 0 1-1.1-1.39c-.63-1.14-.83-2.4-.61-3.61m48 .92c0 .18 0 .36-.03.53-.24 1.94-1.87 3.61-4.08 3.61H21.4c-.4 0-.79-.06-1.14-.16-.18-.05-.35-.11-.52-.19a4.14 4.14 0 0 1-2.44-3.79c0-.72.2-1.45.63-2.14l19.24-30.91q.15-.24.33-.45A4.05 4.05 0 0 1 39.66 25c.65-.16 1.34-.16 2 0 .33.08.65.2.95.36s.59.36.85.61c.26.24.49.52.7.85L63.4 57.73c.43.68.62 1.42.63 2.14ZM38.54 44.53l.77 6.04h2.67l.77-6.04v-4.59h-4.21zm4.54 9.53c0-1.19-.96-2.25-2.43-2.25s-2.43 1.05-2.43 2.25.96 2.27 2.43 2.27 2.43-1.03 2.43-2.27"/>
</svg>
