<svg viewBox="0 0 32 32" xmlns="http://www.w3.org/2000/svg">
  <path d="M32 28.5V32H0v-3.5zM4.28 11.35c.13.04.26.08.4.08h8.93c.17 0 .34-.03.49-.1.3-.13.54-.37.67-.67.06-.15.1-.31.1-.49V1.25c0-.17-.03-.34-.1-.49-.13-.3-.37-.54-.67-.67-.15-.05-.31-.09-.49-.09H4.68c-.69 0-1.25.56-1.25 1.25v8.93s.01.05.02.08c.03.51.37.93.83 1.09m14.62-.02c.15.06.31.1.49.1h8.93c.17 0 .34-.03.49-.1.3-.13.54-.37.67-.67.06-.15.1-.31.1-.49V1.25c0-.17-.03-.34-.1-.49-.13-.3-.37-.54-.67-.67-.15-.06-.31-.1-.49-.1h-8.93c-.17 0-.34.04-.49.1-.3.13-.54.37-.67.67-.06.15-.1.31-.1.49v8.93c0 .17.03.34.1.49.13.3.37.54.67.67ZM4.28 26.09c.13.04.26.08.4.08h8.93c.17 0 .34-.03.49-.1.3-.13.54-.37.67-.67.06-.15.1-.31.1-.49v-8.93c0-.17-.03-.34-.1-.49-.13-.3-.37-.54-.67-.67-.15-.06-.31-.1-.49-.1H4.68c-.69 0-1.25.56-1.25 1.25v8.93s.01.05.02.08c.03.51.37.93.83 1.09Zm15.11.04h8.93c.69 0 1.25-.56 1.25-1.25v-8.93c0-.69-.56-1.25-1.25-1.25h-8.93c-.69 0-1.25.56-1.25 1.25v8.93c0 .69.56 1.25 1.25 1.25"/>
</svg>
