<svg viewBox="0 0 16 16" xmlns="http://www.w3.org/2000/svg">
  <path d="M7.57 0H1.25v6.33h6.33V0Zm-1.5 4.82H2.74V1.49h3.33zm2.58 1.45c.33-.53.89-.84 1.51-.84s1.18.31 1.51.84l.04.06h3.18V0H8.56v6.33h.06l.04-.06Zm1.41-4.78h3.33v3.33h-3.33zM4.98 12.16l-.93 1.5h-2.8V7.33h6.33v.66l-1.5 2.41V8.83H2.75v3.33h2.24Zm9.77-.95-2.43-3.9h2.43zm-10.96 4.6c.04.07.09.12.13.18H.01v-1.5h3.62c-.12.44-.07.91.16 1.32m12.06-1.4-4.82-7.75c-.2-.32-.54-.49-.87-.49s-.67.16-.87.49l-4.82 7.75c-.43.69.07 1.57.87 1.57h9.64c.81 0 1.3-.89.87-1.57m-9.66.07 3.97-6.38 3.97 6.38zm3.44-4.52h1.05v1.15l-.19 1.51h-.67l-.19-1.51zm1.14 3.53c0 .31-.24.57-.61.57s-.61-.26-.61-.57.24-.56.61-.56.61.26.61.56"/>
</svg>
