<svg viewBox="0 0 48 48" xmlns="http://www.w3.org/2000/svg">
  <path d="M48 43.52v4.5H0v-4.5zm-41.36-26h13.51c1.1 0 2-.9 2-2V2.02c0-1.1-.9-2-2-2H6.64c-1.1 0-2 .9-2 2v13.5c0 1.1.9 2 2 2m21.1-.34c.32.22.7.34 1.12.34h13.51c1.1 0 2-.9 2-2V2.02c0-1.1-.9-2-2-2H28.86c-.41 0-.8.13-1.12.34-.21.14-.4.33-.54.54-.22.32-.34.7-.34 1.12v13.5c0 .41.13.8.34 1.12.14.21.33.4.54.54M5.52 39.44c.32.22.7.34 1.12.34h13.51c.41 0 .8-.13 1.12-.34.21-.14.4-.33.54-.54.22-.32.34-.7.34-1.12v-13.5c0-1.1-.9-2-2-2H6.64c-1.1 0-2 .9-2 2v13.5c0 .41.13.8.34 1.12.14.21.33.4.54.54m22.22-.06c.32.22.7.34 1.12.34h13.51c1.1 0 2-.9 2-2v-13.5c0-.41-.13-.8-.34-1.12-.14-.21-.33-.4-.54-.54-.32-.22-.7-.34-1.12-.34H28.86c-.41 0-.8.13-1.12.34-.21.14-.4.33-.54.54-.22.32-.34.7-.34 1.12v13.5c0 .41.13.8.34 1.12.14.21.33.4.54.54"/>
</svg>
