<svg viewBox="0 0 16 16" xmlns="http://www.w3.org/2000/svg">
  <path d="M2.02 4.88V.53c0-.28.22-.5.5-.5h4.36c.28 0 .5.22.5.5v4.35c0 .28-.22.5-.5.5H2.52c-.28 0-.5-.22-.5-.5m7.66.5h4.36c.28 0 .5-.22.5-.5V.53c0-.28-.22-.5-.5-.5H9.68c-.28 0-.5.22-.5.5v4.35c0 .28.22.5.5.5m4.24 1.8h-1.71l2.21 3.55V7.68c0-.28-.22-.5-.5-.5m-11.4 5.38h2.25l2.61-4.19V7.7c0-.28-.22-.5-.5-.5H2.52c-.28 0-.5.22-.5.5v4.35c0 .28.22.5.5.5Zm1.67.93H0v2.5h3.88s-.07-.08-.09-.12c-.31-.56-.3-1.25.04-1.8l.36-.57Zm10.78 2.54H5.34c-.81 0-1.3-.89-.87-1.57l4.82-7.74c.2-.32.54-.48.87-.48a1.03 1.03 0 0 1 .88.48l4.82 7.74c.43.68-.07 1.57-.87 1.57Zm-5.34-4.87.19 1.51h.67l.19-1.51v-1.15H9.63zm1.14 2.38c0-.3-.24-.56-.61-.56s-.61.26-.61.56.24.57.61.57.61-.26.61-.57"/>
</svg>
