<svg viewBox="0 0 40 40" xmlns="http://www.w3.org/2000/svg">
  <path d="M3.94 14.17c-.27-.27-.44-.65-.44-1.06V1.5A1.505 1.505 0 0 1 5 0h11.61c.83 0 1.5.67 1.5 1.5v11.61c0 .83-.67 1.5-1.5 1.5H5c-.31 0-.6-.09-.84-.26-.08-.05-.15-.12-.22-.18m19.44.44h11.61c.21 0 .4-.04.58-.12s.34-.19.48-.32c.27-.27.44-.65.44-1.06V1.5c0-.41-.17-.79-.44-1.06-.14-.14-.3-.25-.48-.32-.18-.08-.38-.12-.58-.12H23.38c-.83 0-1.5.67-1.5 1.5v11.61c0 .83.67 1.5 1.5 1.5M35 18.37h-5.08l6.58 10.58v-9.08c0-.83-.67-1.5-1.5-1.5M4.16 32.78c.24.16.53.26.84.26h6.76l6.35-10.2v-2.91c0-.83-.67-1.5-1.5-1.5H5c-.83 0-1.5.67-1.5 1.5v11.61a1.5 1.5 0 0 0 .66 1.24M9.98 36H0v4h10.72a3.7 3.7 0 0 1-.57-.77A3.61 3.61 0 0 1 9.98 36M40 37.41c0 .67-.26 1.32-.72 1.8s-1.1.79-1.86.79H13.38c-.76 0-1.4-.31-1.86-.79s-.72-1.13-.72-1.8c0-.22.03-.45.1-.67.06-.22.16-.45.29-.66l12.03-19.32c.5-.81 1.34-1.21 2.18-1.21s1.68.4 2.18 1.21l12.03 19.32c.13.21.23.44.29.66s.1.45.1.67m-15.91-9.58.48 3.78h1.67l.48-3.78v-2.87h-2.63zm2.84 5.96c0-.75-.6-1.4-1.52-1.4s-1.52.66-1.52 1.4.6 1.42 1.52 1.42 1.52-.64 1.52-1.42"/>
</svg>
