<svg viewBox="0 0 40 40" xmlns="http://www.w3.org/2000/svg">
  <path d="M30 2.68H10L0 20l10 17.32h20L40 20zm-1.3 32.39H11.3L2.6 20l8.7-15.07h17.4L37.4 20zM13.31 20.88c0 1.15-.85 1.95-2.54 1.95-.95 0-1.52-.18-1.98-.36v-1.5c.54.25 1.17.46 1.78.46.53 0 .95-.13.95-.46 0-.2-.14-.32-.79-.5l-.49-.14c-1.08-.3-1.55-.82-1.55-1.7 0-1.22 1.01-1.95 2.62-1.95.54 0 1.07.08 1.59.25v1.5c-.53-.22-.97-.35-1.59-.35-.54 0-.85.14-.85.41 0 .22.2.34.64.45l.53.14c1.12.29 1.69.85 1.69 1.8Zm.35-4.11H19v1.51h-1.78v4.44h-1.79v-4.44h-1.78v-1.51Zm8.79-.09c-1.92 0-3.15 1.04-3.15 3.08s1.22 3.07 3.15 3.07 3.15-1.03 3.15-3.07-1.22-3.08-3.15-3.08m0 4.74c-.74 0-1.25-.54-1.25-1.66s.51-1.67 1.25-1.67 1.25.54 1.25 1.67-.51 1.66-1.25 1.66m6.37-4.65h-2.3v5.95h1.79v-1.83h.51c1.58 0 2.75-.48 2.75-2.07s-1.17-2.05-2.75-2.05m.03 2.73h-.54v-1.34h.54c.53 0 .87.15.87.66s-.34.67-.87.67Z"/>
</svg>
