<svg viewBox="0 0 32 32" xmlns="http://www.w3.org/2000/svg">
  <path d="M23.77 15.06c0 .43-.28.54-.7.54h-.43v-1.07h.43c.42 0 .7.12.7.53m-5.81-.59c-.59 0-1 .43-1 1.34s.41 1.33 1 1.33 1-.43 1-1.33-.41-1.34-1-1.34M32 16l-8 13.86H8L0 16 8 2.14h16zm-21.35.7c0-.76-.46-1.21-1.35-1.44l-.43-.11c-.35-.09-.51-.19-.51-.36 0-.21.25-.32.68-.32.5 0 .86.1 1.28.28v-1.2c-.41-.14-.83-.2-1.27-.2-1.29 0-2.1.59-2.1 1.56 0 .7.38 1.12 1.24 1.36l.39.11c.52.14.63.24.63.4 0 .26-.34.37-.76.37-.48 0-.99-.17-1.42-.37v1.2c.37.14.83.29 1.59.29 1.34 0 2.03-.64 2.03-1.56Zm4.56-3.28h-4.28v1.21h1.42v3.55h1.43v-3.55h1.42v-1.21Zm5.27 2.38c0-1.63-.98-2.46-2.52-2.46s-2.52.83-2.52 2.46.98 2.46 2.52 2.46 2.52-.82 2.52-2.46m4.78-.74c0-1.28-.94-1.64-2.2-1.64h-1.84v4.76h1.43v-1.46h.41c1.26 0 2.2-.39 2.2-1.66"/>
</svg>
