<svg viewBox="0 0 64 64" xmlns="http://www.w3.org/2000/svg">
  <path d="M48 4.29H16L0 32l16 27.71h32L64 32zm-1.59 52.67H17.59L3.18 32 17.59 7.04h28.82L60.82 32zM21.31 33.4c0 1.84-1.37 3.12-4.06 3.12-1.52 0-2.43-.29-3.18-.58v-2.4c.87.4 1.88.73 2.84.73.84 0 1.52-.21 1.52-.73 0-.32-.22-.51-1.27-.8l-.79-.22c-1.73-.48-2.49-1.31-2.49-2.72 0-1.95 1.62-3.12 4.2-3.12.87 0 1.71.12 2.54.4v2.4c-.84-.35-1.56-.55-2.55-.55-.86 0-1.35.22-1.35.65 0 .34.32.54 1.02.72l.86.22c1.79.47 2.71 1.37 2.71 2.89Zm.55-6.57h8.56v2.42h-2.84v7.11h-2.87v-7.11h-2.84v-2.42Zm14.07-.15c-3.08 0-5.04 1.66-5.04 4.93s1.96 4.92 5.04 4.92 5.04-1.64 5.04-4.92-1.96-4.93-5.04-4.93m0 7.59c-1.19 0-2-.87-2-2.67s.81-2.68 2-2.68 2 .87 2 2.68-.82 2.67-2 2.67m10.19-7.44h-3.69v9.53h2.87v-2.93h.82c2.53 0 4.41-.77 4.41-3.31s-1.88-3.29-4.41-3.29m.04 4.36h-.86v-2.14h.86c.84 0 1.39.23 1.39 1.06s-.55 1.08-1.39 1.08"/>
</svg>
