<svg viewBox="0 0 32 32" xmlns="http://www.w3.org/2000/svg">
  <path d="M24 2.14H8L0 16l8 13.86h16L32 16zm-1.15 25.72H9.16L2.31 16 9.16 4.14h13.69L29.7 16zM10.65 16.7c0 .92-.68 1.56-2.03 1.56-.76 0-1.21-.15-1.59-.29v-1.2c.43.2.94.37 1.42.37.42 0 .76-.1.76-.37 0-.16-.11-.25-.63-.4l-.39-.11c-.86-.24-1.24-.66-1.24-1.36 0-.97.81-1.56 2.1-1.56.43 0 .85.06 1.27.2v1.2c-.42-.17-.78-.28-1.28-.28-.43 0-.68.11-.68.32 0 .17.16.27.51.36l.43.11c.9.23 1.35.68 1.35 1.44Zm.28-3.28h4.28v1.21h-1.42v3.55h-1.43v-3.55h-1.42v-1.21Zm7.03-.08c-1.54 0-2.52.83-2.52 2.46s.98 2.46 2.52 2.46 2.52-.82 2.52-2.46-.98-2.46-2.52-2.46m0 3.8c-.59 0-1-.43-1-1.33s.41-1.34 1-1.34 1 .43 1 1.34-.41 1.33-1 1.33m5.1-3.72h-1.84v4.76h1.43v-1.46h.41c1.26 0 2.2-.39 2.2-1.66s-.94-1.64-2.2-1.64m.02 2.18h-.43v-1.07h.43c.42 0 .7.12.7.53s-.28.54-.7.54"/>
</svg>
