<svg viewBox="0 0 48 48" xmlns="http://www.w3.org/2000/svg">
  <path d="M35.67 22.58c0 .64-.41.81-1.05.81h-.64v-1.61h.64c.63 0 1.05.18 1.05.8M48 24 36 44.78H12L0 24 12 3.22h24zm-32.01 1.05c0-1.14-.68-1.81-2.03-2.17l-.64-.17c-.53-.13-.77-.28-.77-.54 0-.32.37-.49 1.02-.49.75 0 1.28.16 1.92.42v-1.8c-.62-.21-1.25-.3-1.91-.3-1.94 0-3.15.88-3.15 2.34 0 1.06.57 1.68 1.87 2.04l.59.17c.79.22.95.36.95.6 0 .39-.51.55-1.14.55-.73 0-1.48-.25-2.13-.55v1.8c.56.22 1.24.43 2.38.43 2.02 0 3.05-.96 3.05-2.34Zm6.83-4.93H16.4v1.81h2.13v5.34h2.16v-5.34h2.13zm7.91 3.58c0-2.46-1.47-3.7-3.78-3.7s-3.78 1.24-3.78 3.7 1.47 3.69 3.78 3.69 3.78-1.23 3.78-3.69m7.17-1.12c0-1.93-1.41-2.47-3.3-2.47h-2.77v7.15h2.16v-2.2h.61c1.9 0 3.3-.58 3.3-2.49Zm-10.95-.89c-.89 0-1.5.65-1.5 2.01s.61 2 1.5 2 1.5-.65 1.5-2-.61-2.01-1.5-2.01"/>
</svg>
