<svg viewBox="0 0 48 48" xmlns="http://www.w3.org/2000/svg">
  <path d="M36 3.22H12L0 24l12 20.78h24L48 24zm-1.44 39.06H13.44L2.89 24 13.44 5.72h21.11L45.11 24 34.55 42.28ZM15.99 25.05c0 1.38-1.03 2.34-3.05 2.34-1.14 0-1.82-.22-2.38-.43v-1.8c.65.3 1.41.55 2.13.55.63 0 1.14-.16 1.14-.55 0-.24-.17-.38-.95-.6l-.59-.17c-1.29-.36-1.87-.98-1.87-2.04 0-1.46 1.21-2.34 3.15-2.34.65 0 1.28.09 1.91.3v1.8c-.63-.26-1.17-.42-1.92-.42-.64 0-1.02.17-1.02.49 0 .26.24.4.77.54l.64.17c1.35.35 2.03 1.03 2.03 2.17Zm.41-4.93h6.42v1.81h-2.13v5.34h-2.16v-5.34H16.4zM26.95 20c-2.31 0-3.78 1.24-3.78 3.7s1.47 3.69 3.78 3.69 3.78-1.23 3.78-3.69-1.47-3.7-3.78-3.7m0 5.7c-.89 0-1.5-.65-1.5-2s.61-2.01 1.5-2.01 1.5.65 1.5 2.01-.61 2-1.5 2m7.64-5.58h-2.77v7.15h2.16v-2.2h.61c1.9 0 3.3-.58 3.3-2.49s-1.41-2.47-3.3-2.47Zm.03 3.27h-.64v-1.61h.64c.63 0 1.05.18 1.05.8s-.41.81-1.05.81"/>
</svg>
