<svg viewBox="0 0 32 32" xmlns="http://www.w3.org/2000/svg">
  <path d="M24.82 25.67c-.23-.56-.78-.93-1.39-.93h-1.21c-.46-2.79-1-6.76-1.18-11l3.6-6.87c0-.27-.88-.48-2.23-.63L24 .97l-4.71 1.6-3.36-2.58-3.31 2.6L8 .99l1.59 5.27c-1.35.15-2.23.36-2.23.63l3.6 6.87c-.14 4.9-.59 8.53-1.03 11H8.42c-.61 0-1.15.37-1.39.93L6.41 32h19.03l-.62-6.31Zm-5.77-11.85c.06 1.37.15 2.71.27 3.99h-6.57c.09-1.23.15-2.56.19-3.99h6.1Zm-8.01-9.67.93.32a1.98 1.98 0 0 0 1.88-.32l2.08-1.63 2.12 1.64c.36.28.79.42 1.22.42.22 0 .43-.03.64-.11l1.04-.35-.59 1.96c-1.33-.07-2.85-.11-4.37-.11s-3.04.04-4.37.11l-.58-1.94ZM16 7.98c2.45 0 4.38.09 5.7.21l-1.9 3.63h-7.6l-1.9-3.63c1.32-.12 3.25-.21 5.7-.21m-3.41 11.83h6.93c.21 1.85.45 3.52.68 4.93h-8.24c.23-1.34.46-2.98.64-4.93ZM8.62 29.98l.32-3.24h13.99l.32 3.24H8.63Z"/>
</svg>
