<svg viewBox="0 0 40 40" xmlns="http://www.w3.org/2000/svg">
  <path d="M31.03 32.13c-.29-.7-.97-1.16-1.73-1.16h-1.52c-.58-3.49-1.24-8.45-1.47-13.74l4.5-8.59c0-.34-1.1-.6-2.79-.78L30 1.28l-5.89 2-4.2-3.26-4.14 3.25-5.78-2 1.98 6.58c-1.69.19-2.79.45-2.79.78l4.5 8.59c-.17 6.11-.74 10.66-1.28 13.75h-1.89c-.76 0-1.44.46-1.73 1.16l-.77 7.89H31.8zm-6.63-9.7h-8.72c.11-1.57.2-3.27.25-5.11h8.12c.08 1.76.2 3.47.35 5.11M13.41 4.84l1.62.56c.24.08.49.12.73.12.5 0 .99-.16 1.39-.48l2.76-2.16 2.81 2.17a2.26 2.26 0 0 0 2.1.35l1.76-.6-.86 2.86c-1.73-.1-3.72-.15-5.72-.15s-4 .05-5.72.15l-.85-2.83Zm6.58 4.92c3.31 0 5.86.13 7.52.3l-2.62 5h-9.81l-2.62-5c1.66-.17 4.21-.3 7.52-.3ZM15.5 24.68h9.13c.26 2.36.57 4.5.86 6.29h-10.8c.29-1.7.58-3.8.81-6.29m-5.01 13.09.44-4.55h17.94l.44 4.55z"/>
</svg>
