<svg viewBox="0 0 16 16" xmlns="http://www.w3.org/2000/svg">
  <path d="M12.42 12.84a.75.75 0 0 0-.69-.46h-.61c-.23-1.4-.5-3.38-.59-5.5l1.8-3.43c0-.13-.45-.24-1.12-.31L12 .5l-2.36.8L7.97 0 6.32 1.3 4.01.5l.79 2.64c-.67.07-1.12.18-1.12.31l1.8 3.44c-.07 2.45-.29 4.26-.51 5.49h-.76c-.3 0-.58.18-.69.46L3.21 16h9.51l-.31-3.16ZM5.95 4.55C6.51 4.52 7.2 4.5 8 4.5s1.49.02 2.05.05l-.44.85c-.77 0-1.91-.01-2.79-.01h-.43zm3.08 2.37c.03.6.07 1.18.11 1.75H6.9c.03-.54.06-1.13.08-1.75h2.04ZM6.27 2.8h.05c.33 0 .66-.11.93-.32l.73-.58.75.58c.27.21.59.31.92.31h.1l-.07.23a45 45 0 0 0-3.34 0l-.07-.23Zm.51 7.36h2.51c.1.82.2 1.57.31 2.22H6.49c.1-.62.21-1.36.29-2.22M4.87 14.5l.06-.62h6.09l.06.62z"/>
</svg>
