<svg viewBox="0 0 64 64" xmlns="http://www.w3.org/2000/svg">
  <path fill="#1e1e1c" d="m22.63 24.55-6.41-6.41 1.95-1.95 6.41 6.41zM15.27 13.3 8.86 6.89 6.91 8.84l6.41 6.41zm3.9 31.23L11.1 52.6l1.95 1.95 8.07-8.07zm26.94 3.5 6.41 6.41 1.95-1.95-6.41-6.41zM25.09 42.5l8.07-8.07-1.95-1.95-8.07 8.07zm12.05-12.05 8.07-8.07-1.95-1.95-8.07 8.07zM49.19 18.4l8.07-8.07-1.95-1.95-8.07 8.07zM17.84 64l16.08-16.08 5.44 5.44c2.3 2.3 2.3 6.04 0 8.34l-2.29 2.29h3.89l.35-.35c1.63-1.63 2.53-3.81 2.53-6.12s-.9-4.48-2.53-6.12l-5.44-5.44 4.1-4.1 2.73 2.73 1.95-1.95-2.73-2.73 4.1-4.1 5.44 5.44c1.63 1.63 3.81 2.53 6.12 2.53s4.48-.9 6.12-2.53l.32-.32v-3.89l-2.27 2.27c-2.3 2.3-6.04 2.3-8.34 0l-5.44-5.44 16.05-16.05v-3.89L13.96 64h3.89Zm38.91-5.34L62.09 64h1.92v-1.97l-5.31-5.31-1.95 1.95ZM0 63.7v.3h3.59l5.48-5.48-1.95-1.95L0 63.69ZM5.08 3.1 1.97 0H0v1.92l3.13 3.13zM48.98 0 31.52 17.46l-3.7-3.7c-1.12-1.11-1.73-2.6-1.73-4.17s.61-3.06 1.73-4.17L33.24 0h-3.89l-3.47 3.47c-1.63 1.63-2.54 3.81-2.54 6.12s.9 4.48 2.53 6.12l3.7 3.7-10.14 10.14-3.7-3.7c-1.63-1.63-3.81-2.54-6.12-2.54s-4.48.9-6.12 2.53l-3.5 3.5v3.89l5.45-5.45c1.11-1.11 2.6-1.73 4.17-1.73s3.06.61 4.17 1.73l3.7 3.7L0 48.98v3.89L52.87 0zM63.7 0l-4.41 4.41 1.95 1.95 2.77-2.77V0h-.3Z"/>
</svg>
