<svg viewBox="0 0 24 24" xmlns="http://www.w3.org/2000/svg">
  <path fill="#1e1e1c" d="M4.78 6.04 2.36 3.62 3.6 2.38 6.02 4.8zM17.14 18.4l2.42 2.42 1.24-1.24-2.42-2.42zM6.68 0H3.62c.97.45 2.09.45 3.06 0M18.8 7.23l3.04-3.04-1.24-1.24-3.04 3.04zm-4.54 4.54 3.04-3.04-1.24-1.24-3.04 3.04zm-6.04 6.05-1.24-1.24-3.04 3.04 1.24 1.24zm1.5-1.5 3.04-3.04-1.24-1.24-3.04 3.04zM7.41 24l5.38-5.38 1.8 1.8c.73.73.73 1.91 0 2.64l-.94.94h2.42c1.15-1.42 1.08-3.51-.24-4.83l-1.8-1.8 1.04-1.04.78.78 1.24-1.24-.78-.78 1.04-1.04 1.8 1.8c1.33 1.33 3.43 1.39 4.85.22v-2.43l-.97.97c-.73.73-1.91.73-2.64 0l-1.8-1.8L24 7.4V4.93L4.94 24zm13.74-1.59L22.74 24H24v-1.21l-1.61-1.61-1.24 1.24ZM0 23.56V24h2.04l1.64-1.64-1.24-1.24zM0 3.68v2.99c.21-.46.33-.97.33-1.49S.21 4.15 0 3.69ZM18.01 0l-6.12 6.12-1.14-1.14c-.73-.73-.73-1.91 0-2.64L13.09 0h-2.48l-1.1 1.1a3.627 3.627 0 0 0 0 5.12l1.14 1.14L9.61 8.4 7.34 6.13 6.1 7.37l2.27 2.27-1.04 1.04-1.14-1.14a3.627 3.627 0 0 0-5.12 0l-1.08 1.08v2.48l2.31-2.31c.73-.73 1.91-.73 2.64 0l1.14 1.14L0 18.01v2.47L20.49 0h-2.47ZM2.17.96 1.21 0H0v1.26l.94.94L2.18.96ZM23.56 0l-1.45 1.45 1.24 1.24.65-.65V0z"/>
</svg>
