<svg viewBox="0 0 40 40" xmlns="http://www.w3.org/2000/svg">
  <path fill="#1d1d1b" d="M0 0v40h40V0zm9.99 4.94 2.67-2.67c.8-.8 2.1-.79 2.89 0l1.96 1.96-5.57 5.57-1.96-1.96c-.39-.39-.6-.9-.6-1.45s.21-1.06.6-1.45Zm2.34 32.4c-.95.41-1.95.61-2.93.61-1.91 0-3.77-.74-5.18-2.15a7.32 7.32 0 0 1-1.55-8.11c.24-.57.91-.84 1.48-.59s.83.91.59 1.48a5.09 5.09 0 0 0 1.07 5.63 5.055 5.055 0 0 0 5.63 1.07 1.126 1.126 0 1 1 .89 2.07Zm1.42-3.87c-.71.3-1.45.45-2.19.45-1.42 0-2.81-.56-3.87-1.61a5.44 5.44 0 0 1-1.15-6.05c.24-.57.9-.84 1.48-.59.57.25.83.91.59 1.48-.53 1.23-.26 2.63.68 3.57s2.35 1.21 3.57.68a1.126 1.126 0 1 1 .89 2.07m11.64-10.24 1.99-1.99-1.88-1.88-1.74 1.74-1.63-1.63-1.29 1.29c2.11 2.88 1.87 6.95-.73 9.55l-.8.8-4.41-4.41-1.1 1.1c.09.59-.08 1.21-.53 1.66-.38.38-.87.56-1.36.56s-.98-.19-1.36-.56c-.75-.75-.75-1.97 0-2.72.45-.45 1.07-.62 1.66-.53l1.1-1.1L8.9 20.7l.79-.79a7.32 7.32 0 0 1 5.2-2.16c1.58 0 3.09.51 4.34 1.43l1.29-1.29-1.63-1.63 1.74-1.74-1.89-1.89-1.99 1.99-3.22-3.22 5.57-5.57 3.22 3.22-1.99 1.99 1.89 1.89 1.74-1.74 1.63 1.63 1.8-1.8-2.61-2.61 5.46-5.46c.36-.36.83-.55 1.33-.55.49 0 .96.19 1.31.54l4.19 4.19c.72.72.72 1.91-.01 2.64l-5.46 5.46-2.61-2.61-1.8 1.8 1.63 1.63-1.74 1.74 1.88 1.88 1.99-1.99 3.31 3.31-5.57 5.57-3.31-3.31Zm12.33 4.1L35.05 30c-.4.4-.92.6-1.45.6s-1.05-.2-1.45-.6l-1.86-1.86 5.57-5.57 1.86 1.86c.8.8.8 2.1 0 2.89Z"/>
</svg>
