<svg viewBox="0 0 40 40" xmlns="http://www.w3.org/2000/svg">
  <path fill="#1d1d1b" d="M5.95 32.98C7.67 34.74 8.7 37.1 9.08 40H5.19c-.34-1.69-1.06-3.11-2.16-4.24-.89-.91-1.95-1.53-3.04-1.96v-4.11c2.15.58 4.29 1.58 5.96 3.29M36 22.46c1.27 0 2.61-.08 3.99-.22v4.99c-5.71-1.14-9.85-.42-12.27 2.19-2.9 3.12-2.46 7.98-1.95 10.58h-9.19c.54-5.94-.74-10.54-3.83-13.7C9.11 22.58 3.81 21.7 0 21.62V12.5c.72.08 1.42.13 2.08.13 3.12 0 5.57-.89 7.34-2.67 2.7-2.72 3.11-6.88 2.96-9.97h3.53c-.22 4.53.31 11.94 5.21 17.06 3.45 3.6 8.44 5.4 14.89 5.4ZM7.53 17.57c.11-.61-.3-1.2-.91-1.31-.99-.18-2.02-.31-3.08-.4-.65-.06-1.17.41-1.22 1.03s.41 1.16 1.03 1.22c.99.08 1.96.21 2.87.38.07.01.13.02.2.02.53 0 1.01-.38 1.11-.93Zm7.87 2.04c-.85-.57-1.79-1.09-2.79-1.54-.57-.25-1.23 0-1.49.56-.26.57 0 1.23.56 1.49.88.4 1.71.85 2.46 1.36a1.125 1.125 0 0 0 1.56-.31c.35-.52.21-1.22-.31-1.56Zm5.01 8.89a1.125 1.125 0 0 0 1.03-1.56c-.42-1-.93-1.95-1.51-2.83a1.12 1.12 0 0 0-1.56-.31c-.52.35-.66 1.04-.31 1.56.51.76.95 1.58 1.31 2.45.18.43.6.69 1.04.69m2.63 7.19c0-.89-.04-1.77-.12-2.62-.06-.62-.6-1.07-1.23-1.01-.62.06-1.07.61-1.01 1.23.07.77.11 1.58.11 2.4v.46c-.01.62.48 1.13 1.1 1.15h.02c.61 0 1.11-.49 1.12-1.1v-.5Zm-11.9-7.81C8.08 24.74 3.41 23.97 0 23.89v3.47c2.67.63 5.41 1.84 7.56 4.04 2.14 2.19 3.41 5.07 3.82 8.6h2.93c.52-5.34-.52-9.42-3.16-12.12ZM38.15 40h1.84v-.94c-.61.09-1.18.29-1.61.67-.09.08-.16.18-.23.27M0 36.28V40h2.88c-.28-1.06-.76-1.95-1.44-2.66-.43-.44-.92-.78-1.44-1.06M34.29 0h-4.18c.19 1.98.79 4.25 2.39 5.9 1.66 1.73 4.18 2.55 7.5 2.48V4.86c-1.6-.59-2.96-1.46-4.08-2.63-.66-.69-1.19-1.45-1.63-2.24Zm2.68 0c.18.24.37.47.58.69.68.71 1.51 1.27 2.45 1.72V0h-3.02ZM7.81 8.39c2.15-2.16 2.45-5.72 2.3-8.39H6.95c-.07.61-.2 1.41-.5 2.29-.16.47-.6.77-1.07.77a1.133 1.133 0 0 1-1.07-1.49c.2-.58.3-1.13.36-1.57H0v5.43c.38-.07.74-.17 1.08-.29a1.124 1.124 0 0 1 .8 2.1c-.58.22-1.21.38-1.88.48v2.51c3.51.44 6.15-.17 7.82-1.85Zm31.79 2.25c.13 0 .27-.01.4-.02v4.32c-.12-.05-.25-.09-.39-.1-1-.04-1.97-.13-2.87-.26-.62-.09-1.19.34-1.27.95-.09.62.34 1.19.95 1.27.98.14 2.02.23 3.1.28h.05c.16 0 .3-.03.44-.09v2.97c-7.79.83-13.59-.66-17.25-4.47-4.34-4.52-4.78-11.37-4.57-15.51h3.8c.19.19.45.32.74.33h.04c.31 0 .59-.13.79-.33h4.3c.2 2.42.94 5.28 3.02 7.45 2.04 2.12 4.96 3.19 8.73 3.19Zm-14.12-3.2c-.4-.8-.74-1.67-.99-2.59-.17-.6-.79-.95-1.38-.79-.6.17-.95.78-.79 1.38.29 1.06.68 2.07 1.15 3a1.13 1.13 0 0 0 1.51.5c.55-.28.78-.96.5-1.51Zm5.83 5.61c-.86-.41-1.65-.89-2.36-1.42-.5-.37-1.2-.28-1.58.22s-.28 1.2.22 1.58c.83.63 1.76 1.19 2.76 1.66.16.07.32.11.48.11.42 0 .83-.24 1.02-.64.27-.56.03-1.23-.54-1.5Zm8.68 16.48v2.84c-.36-.05-.75-.1-1.17-.14-.62-.04-1.16.42-1.21 1.04s.42 1.16 1.04 1.21c.49.04.94.1 1.34.17v2.14c-1.08.11-2.2.46-3.1 1.25-.59.52-1.01 1.18-1.3 1.96h-7.52c-.45-2.04-1.07-6.5 1.3-9.05 1.91-2.06 5.5-2.52 10.62-1.43Zm-6.07 4.51c-.42-.46-1.14-.48-1.59-.06-.87.81-1.46 1.87-1.76 3.15a1.123 1.123 0 0 0 1.1 1.38c.51 0 .97-.35 1.09-.87.2-.85.56-1.51 1.1-2.01.46-.42.48-1.14.06-1.59"/>
</svg>
