<svg viewBox="0 0 16 16" xmlns="http://www.w3.org/2000/svg">
  <path fill="#1d1d1b" d="M10.19 2.19c.1.28.21.55.35.8a.747.747 0 0 1-.66 1.11.76.76 0 0 1-.66-.39c-.18-.32-.33-.67-.46-1.03-.13-.39.07-.82.46-.95.39-.14.82.07.95.46Zm2.16 2.58a.753.753 0 0 0-1.02.29c-.2.36-.07.82.29 1.02.32.17.66.33 1.01.46.09.03.17.05.26.05.31 0 .59-.19.7-.49a.75.75 0 0 0-.45-.96c-.29-.1-.55-.23-.8-.37ZM16 0h-2.3c.17.32.38.62.65.9.45.47 1.01.81 1.65 1.04zM9.07.22h.04c.2 0 .39-.09.53-.22H8.59c.13.12.29.21.48.22m-3-.22c-.09 1.87.14 4.9 2.16 7.02 1.44 1.5 3.51 2.25 6.17 2.25.51 0 1.05-.04 1.6-.09V7.67c-3.03.33-5.28-.23-6.68-1.68C7.66 4.26 7.49 1.61 7.58.01H6.07Zm8.88 13.25c-.05.41.25.78.66.83q.225.03.39.06v-1.52l-.22-.03a.753.753 0 0 0-.83.66m-6.81-2.57c-.39.13-.61.55-.49.94.09.27.16.57.22.88.07.36.38.61.74.61.05 0 .09 0 .14-.01.41-.08.68-.47.6-.87-.07-.37-.16-.72-.26-1.06a.76.76 0 0 0-.94-.49ZM1.7 13.77c-.49-.5-1.09-.8-1.7-.98v1.61c.23.11.45.24.63.42.29.3.47.69.55 1.18H2.7c-.11-.9-.44-1.65-1-2.23m1.68-1.7c-.96-.98-2.2-1.49-3.38-1.74v1.54c.84.22 1.67.6 2.31 1.25.69.7 1.08 1.67 1.19 2.87h1.51c-.13-1.62-.67-2.94-1.64-3.93Zm8.75-8.9c.87.91 2.12 1.37 3.71 1.37h.17v-1.5c-1.24.03-2.18-.27-2.78-.89-.57-.59-.8-1.41-.87-2.14h-1.5c.08 1.02.4 2.24 1.29 3.17Zm2.95 3.17c-.02.41.3.76.72.78h.2v-1.5h-.14c-.41-.03-.76.3-.78.72m-5.61 9.07a.764.764 0 0 0-.69-.81c-.4-.01-.77.28-.81.69-.02.23-.05.47-.08.71H9.4c.02-.2.05-.4.07-.59m2.5-2.85c.86-.92 2.61-.78 4.03-.47v-1.53c-2.37-.46-4.1-.14-5.13.98-1.23 1.33-1.07 3.35-.86 4.45h1.53c-.21-.88-.39-2.55.43-3.44ZM7.09 16c.31-2.63-.22-4.66-1.58-6.05C3.92 8.33 1.6 8 0 7.99v1.5c1.32 0 3.22.26 4.44 1.51 1.05 1.08 1.43 2.76 1.14 5zM0 3.38c.13-.02.26-.04.38-.06.4-.09.65-.5.56-.9s-.5-.66-.9-.56H0zm5.46 4.4c-.24.34-.16.81.18 1.05.24.17.46.36.67.56.15.15.34.22.53.22s.39-.07.53-.22c.29-.29.29-.77 0-1.06-.26-.26-.55-.5-.86-.72a.753.753 0 0 0-1.05.18Zm6.9 6c-.24.35-.4.76-.47 1.23-.06.41.22.79.62.86h.12c.36 0 .68-.26.74-.63.04-.25.12-.46.23-.62.23-.34.15-.81-.2-1.04a.744.744 0 0 0-1.04.2M16 15.91v-1.52c-.5.05-1.02.21-1.44.58-.3.27-.49.62-.62 1.03h1.81c.08-.04.16-.07.25-.09M1.5.37c-.11.4.12.81.52.92.07.02.13.03.2.03.33 0 .63-.22.72-.55.08-.29.12-.56.14-.77H1.57c-.02.11-.04.23-.08.37Zm1.42 2.76c-.61.61-1.6.81-2.92.63v1.52c.29.03.57.06.84.06 1.33 0 2.38-.39 3.14-1.15C5.13 3.04 5.31 1.3 5.25.01h-1.5c.05 1.06-.08 2.37-.83 3.13Zm.59 3.16c-.35-.08-.71-.15-1.05-.19a.754.754 0 0 0-.85.64c-.06.41.23.79.64.85.3.04.61.1.92.17a.747.747 0 0 0 .9-.56c.09-.4-.16-.81-.56-.9ZM0 6.4v.74c.07-.13.12-.27.11-.42 0-.12-.05-.22-.11-.31Z"/>
</svg>
