<svg viewBox="0 0 48 48" xmlns="http://www.w3.org/2000/svg">
  <path fill="#1d1d1b" d="M0 14.86v-2.53c4.28.54 7.48-.19 9.52-2.24 2.6-2.62 2.96-6.88 2.79-10.09h2.51c.17 3.68-.32 8.62-3.53 11.84-2.1 2.11-5.02 3.17-8.73 3.17-.81 0-1.67-.06-2.56-.16Zm37.18-6.03c2.42 2.53 5.91 3.8 10.4 3.8.13 0 .28-.02.42-.02v-2.5c-3.98.07-7.01-.92-9.01-3.01-1.92-2-2.65-4.71-2.89-7.1h-2.52c.25 2.87 1.13 6.25 3.59 8.82Zm7.73 31.05c-.04.69.49 1.28 1.18 1.31.7.04 1.35.12 1.91.22v-2.53c-.54-.08-1.14-.15-1.78-.18-.69-.03-1.28.49-1.31 1.18M27.67 4.15c-.67.16-1.09.83-.93 1.5.33 1.43.8 2.78 1.39 4.03.21.45.66.71 1.13.71q.27 0 .54-.12c.62-.3.89-1.04.59-1.67-.51-1.08-.92-2.27-1.22-3.52-.16-.67-.83-1.09-1.5-.93m8.94 11.04c-1.1-.61-2.11-1.34-2.99-2.15-.5-.47-1.3-.44-1.77.07s-.44 1.3.07 1.77c1.03.95 2.2 1.8 3.48 2.51.19.11.4.16.61.16.44 0 .87-.23 1.09-.64.33-.6.12-1.36-.49-1.7Zm5.27 1.96a1.25 1.25 0 0 0-1.5.94c-.16.67.26 1.34.94 1.5 1.29.3 2.67.52 4.11.65h.12c.64 0 1.18-.49 1.24-1.13.07-.69-.44-1.3-1.13-1.36-1.33-.12-2.6-.33-3.78-.6M48 44.21c-1.26.14-2.55.55-3.59 1.47-.69.62-1.2 1.4-1.54 2.33h2.81c.12-.16.24-.32.39-.45.52-.46 1.21-.7 1.94-.82v-2.53Zm-38.94-6.5C6.48 35.07 3.2 33.64 0 32.88v2.59c2.63.69 5.25 1.91 7.28 3.99 2.1 2.15 3.37 5.01 3.82 8.54h2.52c-.48-4.23-1.99-7.68-4.56-10.3Zm-5.42 5.23C2.57 41.85 1.31 41.11 0 40.6v2.75c.67.35 1.3.78 1.85 1.35.86.88 1.44 1.99 1.78 3.32h2.58c-.41-2.03-1.26-3.72-2.58-5.06ZM0 9.06c.21.44.64.72 1.11.72.12 0 .24-.02.36-.05 1.5-.45 2.82-1.17 3.94-2.13.52-.45.58-1.24.13-1.76a1.25 1.25 0 0 0-1.76-.13A8.3 8.3 0 0 1 .75 7.35c-.34.1-.6.34-.75.64v1.09Zm7.36-6.25c.12.04.24.05.36.05.54 0 1.03-.35 1.2-.89.21-.71.36-1.38.45-1.97H6.83c-.08.39-.18.81-.31 1.25-.2.66.17 1.36.83 1.56Zm17.68 37.84c.04.66.59 1.17 1.25 1.17h.08c.69-.05 1.21-.64 1.16-1.33-.1-1.44-.29-2.83-.57-4.13-.15-.67-.81-1.11-1.49-.96-.67.15-1.1.81-.96 1.49.26 1.19.43 2.46.52 3.77Zm2.38 6.02c.07-.69-.44-1.3-1.13-1.36-.69-.07-1.3.44-1.36 1.13-.05.51-.11 1.04-.18 1.57h2.52c.06-.45.11-.9.16-1.34Zm7.82-9.64c2.31-2.49 6.62-3.07 12.76-1.76V32.7c-6.81-1.35-11.72-.47-14.59 2.63-3.48 3.75-2.91 9.6-2.3 12.67h2.56c-.55-2.45-1.31-7.86 1.58-10.97Zm4.45 3.16c-1.33.92-2.25 2.23-2.73 3.89a1.255 1.255 0 0 0 1.2 1.6c.54 0 1.04-.36 1.2-.9.32-1.11.89-1.94 1.75-2.53a1.251 1.251 0 0 0-1.42-2.06m-19.83 7.82c.66-7.12-.86-12.64-4.57-16.43C10.93 27.13 4.57 26.09 0 26v2.52c4.13.09 9.79 1 13.51 4.81 3.2 3.28 4.48 8.2 3.83 14.67h2.51ZM45.05.85c-.26-.27-.49-.55-.71-.84h-2.99c.51.9 1.13 1.77 1.89 2.56 1.31 1.36 2.9 2.39 4.76 3.09V2.93c-1.13-.53-2.12-1.21-2.95-2.07ZM19.25 0c-.26 5.43.38 14.26 6.23 20.35 4.12 4.29 10.09 6.45 17.8 6.45 1.51 0 3.09-.09 4.73-.26v-2.51c-9.34.99-16.31-.82-20.71-5.41C22.08 13.21 21.53 5 21.77 0h-2.53Zm8.09.65h.03c.46 0 .86-.27 1.07-.65H26.3c.21.37.59.64 1.04.65M24.79 30.4c-.69-1.26-1.51-2.43-2.45-3.49a1.25 1.25 0 0 0-1.76-.11 1.24 1.24 0 0 0-.11 1.76c.81.92 1.53 1.94 2.13 3.04.23.41.66.65 1.1.65.2 0 .41-.05.6-.15.6-.33.83-1.09.49-1.7M3.49 19.02c-.71-.05-1.28.48-1.33 1.16s.48 1.28 1.16 1.33c1.32.09 2.62.24 3.85.44.07.01.14.02.21.02a1.248 1.248 0 0 0 .2-2.48c-1.32-.22-2.69-.38-4.1-.47Zm10.12 2.07c-.65-.24-1.37.08-1.61.73s.08 1.37.73 1.61c1.22.46 2.37 1 3.42 1.62.2.12.42.17.63.17.43 0 .85-.22 1.08-.62.35-.6.15-1.36-.45-1.71-1.17-.69-2.45-1.29-3.8-1.8"/>
</svg>
