<svg viewBox="0 0 64 64" xmlns="http://www.w3.org/2000/svg">
  <path fill="#1e1e1c" d="m49.86 32.7-4 4-5.03-5.03 6.38-6.38 3.35 3.35 12.48-12.48a3.235 3.235 0 0 0 0-4.57L52.4.95a3.235 3.235 0 0 0-4.57 0L35.35 13.43l3.35 3.35-6.38 6.38-5.06-5.07 4-4L18.27 1.11c-1.22-1.22-3.35-1.22-4.57 0L8.33 6.48a3.235 3.235 0 0 0 0 4.57l12.99 12.99 4-4 5.06 5.07-4.13 4.13c-4.89-1.71-10.55-.63-14.45 3.27l-.97.97 8.87 8.87-1.79 1.79a2.96 2.96 0 0 0-2.99.72 2.98 2.98 0 0 0 0 4.21c.56.56 1.31.87 2.11.87s1.55-.31 2.11-.87c.81-.81 1.04-1.97.72-2.99l1.79-1.79 8.87 8.87.97-.97a13.84 13.84 0 0 0 3.28-14.45l4.12-4.12 5.03 5.03-4 4 12.99 12.99c.61.61 1.42.95 2.29.95s1.68-.34 2.29-.95l5.37-5.37a3.235 3.235 0 0 0 0-4.57L49.87 32.71ZM10.27 8.43l5.37-5.37c.12-.12.26-.14.34-.14s.22.02.34.14l4.56 4.56-6.05 6.05-4.56-4.56a.477.477 0 0 1 0-.68m6.51 7.19 6.05-6.05 4.53 4.53-6.05 6.05zm33-12.72c.19-.19.49-.19.68 0l4.48 4.48-5.47 5.47 1.95 1.95 5.47-5.47 4.22 4.22c.19.19.19.49 0 .68L50.58 24.76l-1.41-1.41-4.25-4.25-5.66-5.66L49.79 2.91Zm-9.13 15.83 2.31 2.31 2.31 2.31-11.39 11.39-4.62-4.61 11.39-11.39Zm-10.2 30.49L14.78 33.55c4.38-3.42 10.74-3.11 14.76.91 2.11 2.11 3.27 4.91 3.27 7.9 0 2.52-.83 4.91-2.36 6.86M49.86 36.6l4.72 4.72-6.05 6.05-4.72-4.72zm11.05 11.72-5.37 5.37c-.12.12-.26.14-.34.14s-.22-.02-.34-.14l-4.38-4.38 6.05-6.05 4.38 4.38c.19.19.19.49 0 .68M20.12 61.05c.3.7-.02 1.51-.72 1.81-1.8.77-3.68 1.15-5.54 1.15-3.6 0-7.13-1.41-9.8-4.07-4.04-4.05-5.19-10.07-2.92-15.35a1.376 1.376 0 1 1 2.53 1.09c-1.82 4.23-.9 9.06 2.34 12.3s8.07 4.16 12.3 2.34c.7-.3 1.51.02 1.81.72Zm1.79-6.72c.3.7-.02 1.51-.72 1.81-1.31.56-2.69.84-4.05.84-2.63 0-5.2-1.03-7.15-2.97-2.95-2.95-3.79-7.35-2.14-11.2a1.376 1.376 0 1 1 2.53 1.09c-1.21 2.81-.6 6.01 1.55 8.16s5.35 2.76 8.16 1.55c.7-.3 1.51.02 1.81.72Z"/>
</svg>
