<svg viewBox="0 0 40 40" xmlns="http://www.w3.org/2000/svg">
  <path fill="#1e1e1c" d="m14.52 16.06-4.02-4 1.41-1.41 4.02 4zM37.05 2.83l1.41 1.41 1.53-1.53V-.1l-2.95 2.93ZM9.64 8.38l-4.02-4-1.41 1.41 4.02 4zm2.25 19.5-5.06 5.04 1.41 1.41 5.06-5.04zm19.02-16.12 5.06-5.04-1.41-1.41-5.06 5.04zm-2.12 18.49 4.02 4 1.41-1.41-4.02-4zM15.8 26.8l5.06-5.04-1.41-1.41-5.06 5.04zm7.55-7.52 5.06-5.03L27 12.84l-5.06 5.03zM30.57.1 19.73 10.89l-2.22-2.21a3.543 3.543 0 0 1 0-5.02L21.09.1h-2.83l-2.17 2.15a5.523 5.523 0 0 0 0 7.83l2.22 2.21-6.16 6.14-2.22-2.21a5.59 5.59 0 0 0-7.87 0L0 18.27v2.81l3.48-3.46a3.585 3.585 0 0 1 5.04 0l2.22 2.21L0 30.52v2.81L33.4.1zM3.25 2.02 1.31.1H0v1.51l1.83 1.82 1.41-1.41Zm8.33 37.88 9.66-9.62 3.31 3.3a3.543 3.543 0 0 1 0 5.02l-1.31 1.31h2.81c2.07-2.17 2.05-5.6-.08-7.73l-3.31-3.3 2.41-2.39 1.58 1.64 1.41-1.41-1.58-1.64 2.35-2.33 3.31 3.3a5.59 5.59 0 0 0 7.87 0v-2.81l-1.41 1.41a3.585 3.585 0 0 1-5.04 0l-3.31-3.3 9.77-9.72V8.82L8.77 39.92h2.83Zm23.88-3.01 3.03 3.01h1.52v-1.31l-3.13-3.11-1.41 1.41ZM0 39.71v.19h2.63l3.11-3.1-1.41-1.41L0 39.7Z"/>
</svg>
