<svg viewBox="0 0 32 32" xmlns="http://www.w3.org/2000/svg">
  <path fill="#1e1e1c" d="m24.32 22.99 3.22 3.22-1.41 1.41-3.22-3.22zM7.85 6.52 4.63 3.3 3.22 4.71l3.22 3.22zM8.48 0H5.15c1.07.41 2.26.41 3.33 0m16.41 9.52 4.05-4.05-1.41-1.41-4.05 4.05zm-6.05 6.05 4.05-4.05-1.41-1.41-4.05 4.05zm-9.47 6.64-4.05 4.05 1.41 1.41 4.05-4.05zm3.42-.59 4.05-4.05-1.41-1.41-4.05 4.05zM32 6.74 20.04 18.7l-1.41 1.41L6.75 31.99h2.83l7.43-7.43 2.51 2.51a2.66 2.66 0 0 1 0 3.75l-1.17 1.17h2.78c1.59-1.83 1.53-4.6-.2-6.33l-2.51-2.51 1.62-1.62 1.15 1.15 1.41-1.41-1.15-1.15 1.62-1.62 2.51 2.51c1.76 1.76 4.59 1.8 6.42.13v-2.8l-1.25 1.25a2.653 2.653 0 0 1-3.75 0l-2.51-2.51L32 9.56V6.73Zm-.01-4.32V0h-.41l-2.06 2.06 1.41 1.41 1.06-1.06ZM2.74 1.41 1.33 0H0v1.5l1.32 1.32 1.41-1.41ZM24.19 0l-8.4 8.4-1.64-1.64a2.66 2.66 0 0 1 0-3.75l3-3h-2.83L12.73 1.6a4.666 4.666 0 0 0 0 6.58l1.64 1.64-1.62 1.62-3.19-3.19-1.41 1.41 3.19 3.19-1.62 1.62-1.64-1.64a4.666 4.666 0 0 0-6.58 0l-1.51 1.51v2.83l2.92-2.92a2.66 2.66 0 0 1 3.75 0l1.64 1.64-8.3 8.3v2.83L27.02 0zM0 5.52v2.77c.28-.9.28-1.86 0-2.77m0 26.06V32h2.41l2.33-2.33-1.41-1.41-3.32 3.32Zm28.25-1.84L30.51 32h1.5v-1.33l-2.34-2.34-1.41 1.41Z"/>
</svg>
