<svg viewBox="0 0 32 32" xmlns="http://www.w3.org/2000/svg">
  <path fill="#1d1d1b" d="M30.72 31.74c.34-.3.8-.45 1.28-.52V32h-1.5c.07-.09.13-.18.22-.26M8.83 22.28C6.4 19.8 2.71 19.19 0 19.13v2.57c2.16.51 4.37 1.47 6.12 3.25 1.75 1.79 2.76 4.16 3.07 7.05h2.13c.44-4.29-.38-7.56-2.48-9.72ZM0 23.76v3.06c.9.35 1.77.86 2.51 1.61.92.94 1.51 2.14 1.78 3.57h2.88c-.29-2.34-1.1-4.23-2.48-5.65C3.38 25.01 1.7 24.21 0 23.76m0 5.27V32h2.23c-.22-.87-.59-1.6-1.15-2.16-.32-.33-.69-.59-1.08-.81M6.18 6.58C7.86 4.89 8.1 2.1 7.99 0H5.67c-.07.64-.24 1.54-.65 2.46-.16.38-.53.6-.92.6-.13 0-.27-.03-.4-.08a.99.99 0 0 1-.51-1.32c.26-.61.39-1.2.46-1.66H0v4.19c.35-.07.67-.16.97-.28.51-.21 1.09.02 1.31.53.21.51-.03 1.1-.53 1.31-.53.22-1.12.37-1.75.47v1.8c2.78.35 4.86-.12 6.18-1.44M32 23.64v2.06c-.49-.08-1.05-.14-1.65-.15-.55 0-1.01.43-1.02.98s.43 1.01.98 1.02c.63.01 1.22.09 1.69.18v1.48c-.91.08-1.85.36-2.61 1.03-.52.46-.89 1.05-1.12 1.76h-5.72c-.36-1.54-.93-5.21.98-7.27 1.51-1.63 4.37-1.98 8.47-1.09m-4.67 3.33a1 1 0 0 0-1.41-.12c-.92.77-1.49 1.85-1.7 3.2a.99.99 0 0 0 .83 1.14c.05 0 .11.01.16.01.48 0 .91-.35.99-.84.14-.88.47-1.53 1.02-1.99a1 1 0 0 0 .12-1.41Zm4.29-18.42c.12 0 .26-.01.38-.02v3.25c-.1-.04-.2-.07-.32-.08-1-.04-1.96-.14-2.85-.29a.99.99 0 0 0-1.15.82c-.09.54.27 1.06.82 1.15.97.17 2.02.27 3.11.32h.04c.13 0 .25-.03.36-.07v2.14c-6.22.67-10.85-.49-13.76-3.52C14.81 8.7 14.46 3.29 14.62 0h2.56c.04.52.46.93.98.93.53 0 .95-.41.99-.93h2.99c.17 1.94.76 4.23 2.43 5.97 1.65 1.72 4.01 2.58 7.04 2.58Zm-11-2.36c-.43-.77-.76-1.63-1-2.55-.14-.53-.69-.85-1.22-.71s-.85.69-.71 1.22c.28 1.08.68 2.1 1.19 3.01.18.33.52.52.88.52.16 0 .33-.04.48-.12.48-.27.66-.88.39-1.36Zm4.63 4.18c-.86-.39-1.65-.87-2.33-1.42a1.002 1.002 0 1 0-1.26 1.56c.82.66 1.75 1.23 2.77 1.69a.99.99 0 0 0 1.32-.5c.23-.5 0-1.1-.5-1.32Zm3.5 7.62c1.03 0 2.12-.07 3.25-.18v3.8c-4.62-.93-7.97-.35-9.94 1.77-2.38 2.56-1.98 6.56-1.56 8.63h-2.62a.95.95 0 0 0-.56-.31c-.33-.04-.63.09-.85.31h-3.14c.46-4.82-.55-8.56-3.06-11.13-2.93-2.99-7.19-3.69-10.26-3.76v-7.08c.58.06 1.14.1 1.67.1 2.51 0 4.5-.72 5.93-2.16C9.77 5.8 10.1 2.48 9.99 0h2.61c-.17 3.64.27 9.55 4.19 13.64 2.77 2.89 6.78 4.34 11.96 4.34Zm-22.22-3.9a.986.986 0 0 0-.79-1.17c-.98-.19-2.02-.34-3.09-.42-.54-.04-1.03.37-1.08.92s.37 1.03.92 1.08c.99.08 1.96.21 2.86.39.07.01.13.02.2.02.47 0 .89-.33.98-.81Zm6.04 1.58c-.85-.59-1.79-1.11-2.81-1.54-.5-.21-1.1.02-1.31.53-.22.51.02 1.1.53 1.31.89.38 1.71.83 2.45 1.34.17.12.37.18.57.18.32 0 .63-.15.82-.43.32-.45.2-1.08-.25-1.39m3.76 7.19c.13 0 .26-.02.38-.08.51-.21.75-.8.54-1.31-.42-1.01-.95-1.96-1.58-2.82-.33-.44-.95-.54-1.4-.21s-.54.95-.21 1.4c.53.72.99 1.53 1.34 2.39.16.39.53.62.92.62Zm2.17 5.58c0-1-.06-1.96-.18-2.86a.995.995 0 0 0-1.12-.86 1 1 0 0 0-.86 1.12c.11.82.16 1.69.16 2.6v.24c0 .55.44 1 .99 1.01h.01a1 1 0 0 0 1-.99v-.27ZM27.93 0h-3.78c.15 1.55.63 3.31 1.87 4.6 1.32 1.37 3.33 2.01 5.97 1.94V3.36c-1.17-.43-2.17-1.07-2.99-1.93C28.58.98 28.23.5 27.93 0m2.49 0s.03.03.04.05c.44.45.95.83 1.54 1.12V0z"/>
</svg>
