<svg viewBox="0 0 48 48" xmlns="http://www.w3.org/2000/svg">
  <path fill="#1e1e1c" d="m37.77 22.86-2.81 2.81-3.13-3.13 4.08-4.08 2.35 2.35 8.96-8.96c1-1 1-2.61 0-3.61L39.75.77c-.99-1-2.62-1-3.61 0l-8.96 8.96 2.35 2.35-4.08 4.08-3.15-3.15 2.81-2.81L15.79.88c-.99-1-2.62-1-3.61 0L8.41 4.65c-.99.99-.99 2.61 0 3.61l9.32 9.32 2.81-2.81 3.15 3.15-2.57 2.57c-3.49-1.15-7.5-.35-10.27 2.42l-.88.88 6.23 6.23-1.91 1.91a2.4 2.4 0 0 0-.54-.07 2.377 2.377 0 0 0-2.31 2.92l-.08.08.14.14c.11.34.29.65.56.92.26.26.58.45.92.56l.14.14.08-.08c.18.04.36.07.54.07.64 0 1.23-.25 1.68-.7.6-.6.8-1.44.63-2.22l1.92-1.91 6.23 6.23.88-.88c2.77-2.77 3.57-6.78 2.42-10.27l2.57-2.57 3.13 3.13-2.81 2.81 9.32 9.32a2.56 2.56 0 0 0 3.61-.01l3.77-3.77c.99-.99.99-2.61 0-3.61l-9.32-9.32ZM14.02 2.65l3 3-3.82 3.82-3.03-3.05zm.95 8.6 3.83-3.83 2.78 2.78-3.84 3.84zm15.75-1.52 7.26-7.2 2.94 2.94-3.64 3.64 1.77 1.77 3.64-3.64L45.45 10v.07l-7.19 7.19-.59-.59-6.37-6.37-.58-.58Zm3.42 6.96-7.59 7.6-2.84-2.84 7.59-7.6zM24.11 34.42 13.57 23.88c2.95-2.1 7.08-1.83 9.73.81 2.64 2.65 2.91 6.78.81 9.73m13.66-8.02 2.9 2.92-3.83 3.83-2.91-2.91zm3.78 11.39s-.05.02-.08 0l-2.87-2.87 3.82-3.82 2.9 2.92zm-26.9 7.75c.27.63-.02 1.37-.66 1.64-1.3.56-2.66.83-4 .83-2.6 0-5.15-1.02-7.08-2.94A10.02 10.02 0 0 1 .8 33.99c.27-.63 1.01-.93 1.64-.66.64.27.93 1.01.66 1.64a7.53 7.53 0 0 0 1.58 8.33c2.19 2.19 5.46 2.81 8.32 1.58.64-.27 1.37.02 1.64.66Zm1.47-4.93c.27.63-.02 1.37-.66 1.64-.96.41-1.96.61-2.95.61-1.92 0-3.8-.75-5.22-2.17a7.38 7.38 0 0 1-1.56-8.17c.27-.63 1.01-.93 1.64-.66.64.27.93 1.01.66 1.64-.8 1.86-.4 3.99 1.03 5.42s3.55 1.83 5.42 1.03c.64-.27 1.37.02 1.64.66"/>
</svg>
