<svg viewBox="0 0 32 32" xmlns="http://www.w3.org/2000/svg">
  <path fill="#1d1d1b" d="M0 0v31.99h32V0zm8.13 4.5 2.04-2.04c.66-.66 1.75-.66 2.41 0l1.4 1.39L9.53 8.3l-1.4-1.4a1.7 1.7 0 0 1 0-2.41Zm1.1 25.52a5.49 5.49 0 0 1-6.09-1.16c-1.61-1.61-2.06-4-1.16-6.09.22-.51.81-.74 1.31-.52.51.22.74.81.52 1.31-.58 1.34-.29 2.86.74 3.89a3.53 3.53 0 0 0 3.89.74c.51-.22 1.1.02 1.31.52.22.51-.02 1.1-.52 1.31m1.69-3.47c-.54.23-1.1.34-1.66.34a4.15 4.15 0 0 1-2.94-1.22 4.16 4.16 0 0 1-.88-4.6c.22-.51.81-.74 1.31-.52.51.22.74.81.52 1.31-.35.82-.18 1.76.45 2.39s1.57.81 2.39.45c.5-.21 1.1.02 1.31.52.22.51-.02 1.1-.52 1.31Zm8.87-7.98 1.52-1.52-1.24-1.24-1.15 1.15-1.22-1.22-.65.65a5.73 5.73 0 0 1 1.08 3.33c0 1.54-.6 2.99-1.69 4.07l-.71.71-3.42-3.42-.7.7a1.59 1.59 0 0 1-1.59 1.78c-.43 0-.83-.17-1.14-.47a1.6 1.6 0 0 1 0-2.27c.3-.3.71-.47 1.14-.47.06 0 .12.01.18.02l.7-.7-3.32-3.32.71-.71c1.99-1.99 5.09-2.21 7.34-.66l.66-.66-1.27-1.27 1.15-1.15-1.25-1.25-1.52 1.52-2.46-2.46 4.45-4.45 2.46 2.46-1.52 1.52 1.25 1.25 1.37-1.37 1.27 1.27 1.12-1.12-2.02-2.02 4.33-4.33c.3-.3.7-.47 1.12-.47.41 0 .8.16 1.09.45l3.2 3.2c.29.29.45.68.45 1.1s-.17.82-.47 1.13l-4.32 4.32-1.97-1.97-1.12 1.12 1.22 1.22-1.37 1.37 1.24 1.24 1.52-1.52 2.53 2.53-4.45 4.45-2.53-2.53Zm9.72 3.23-2.04 2.04a1.71 1.71 0 0 1-2.42 0l-1.32-1.32 4.45-4.45 1.32 1.32a1.7 1.7 0 0 1 0 2.41Z"/>
</svg>
