<svg viewBox="0 0 32 32" xmlns="http://www.w3.org/2000/svg">
  <path fill="#1d1d1b" d="M25.25 10.37a1 1 0 0 1-.82 1.82c-1.02-.46-1.95-1.03-2.77-1.69a1.002 1.002 0 1 1 1.26-1.56c.68.55 1.47 1.03 2.33 1.42ZM18.4 2.92c-.53.14-.85.69-.71 1.22.28 1.08.68 2.1 1.19 3.01.18.33.52.52.88.52.16 0 .33-.04.48-.12.48-.27.66-.88.39-1.36-.43-.77-.76-1.63-1-2.55-.14-.53-.69-.85-1.22-.71Zm10.93 23.61c-.01.55.43 1.01.98 1.02.61.01 1.18.09 1.64.17v-2.03c-.47-.07-1.02-.13-1.59-.14-.55 0-1.01.43-1.02.98ZM18.17.93c.53 0 .96-.42.99-.95h-1.98c.03.53.45.95.99.95M12.6-.02c-.18 3.64.26 9.57 4.19 13.66 2.77 2.89 6.78 4.34 11.96 4.34 1.02 0 2.09-.06 3.2-.18v-2.02c-6.19.66-10.8-.5-13.7-3.52-3.44-3.57-3.79-8.99-3.63-12.28zm19.35 29.24c-.89.09-1.81.37-2.55 1.03-.5.45-.87 1.01-1.1 1.68h2.27c.05-.06.1-.13.16-.19.33-.29.76-.44 1.23-.51v-2.02Zm-3.12-17.8a.99.99 0 0 0-1.15.82c-.09.54.27 1.06.82 1.15.97.17 2.02.27 3.11.32h.04c.11 0 .21-.03.3-.06v-1.87c-.09-.03-.17-.06-.27-.06-1-.04-1.96-.14-2.85-.29ZM6.12 24.95C4.37 23.17 2.16 22.21 0 21.7v2.06c1.7.46 3.38 1.25 4.7 2.59 1.36 1.4 2.18 3.27 2.47 5.57h2.01c-.32-2.86-1.32-5.21-3.06-6.98Zm11.37 4.75h.01a1 1 0 0 0 1-.99v-.27c0-1-.06-1.96-.18-2.86a.995.995 0 0 0-1.12-.86 1 1 0 0 0-.86 1.12c.11.82.16 1.69.16 2.6v.24c0 .55.44 1 .99 1.01ZM2.51 28.43C1.77 27.68.9 27.17 0 26.82v2.2c.39.22.76.48 1.09.81.54.55.91 1.26 1.13 2.09h2.06c-.27-1.4-.86-2.57-1.77-3.5ZM24.58 5.98c1.65 1.72 4.01 2.58 7.04 2.58.11 0 .22-.01.33-.01v-2c-2.62.06-4.61-.59-5.92-1.95-1.24-1.29-1.72-3.06-1.87-4.62h-2.01c.16 1.95.76 4.25 2.44 6Zm-7.26 25.71c-.3-.04-.57.06-.79.24h1.27a1 1 0 0 0-.49-.24Zm-.07-10.22c-.42-1.01-.95-1.96-1.58-2.82-.33-.44-.95-.54-1.4-.21-.44.33-.54.95-.21 1.4.53.72.99 1.53 1.34 2.39.16.39.53.62.92.62.13 0 .26-.02.38-.08.51-.21.75-.8.54-1.31ZM0 6.22a7 7 0 0 0 1.75-.47c.51-.21.75-.8.53-1.31a.99.99 0 0 0-1.31-.53c-.3.12-.63.21-.97.28zm13.33 25.71c.44-4.78-.57-8.5-3.07-11.05-2.93-3-7.19-3.7-10.26-3.76v2.01c2.71.06 6.41.66 8.84 3.15 2.09 2.14 2.92 5.39 2.49 9.65zM30.46.05s-.04-.05-.06-.07h-2.48c.3.51.66 1 1.09 1.45.81.84 1.79 1.48 2.94 1.91V1.15c-.57-.29-1.06-.66-1.49-1.1m-4.54 26.8c-.92.77-1.49 1.85-1.7 3.2a.99.99 0 0 0 .83 1.14c.05 0 .11.01.16.01.48 0 .91-.35.99-.84.14-.88.47-1.53 1.02-1.99a1 1 0 1 0-1.29-1.53Zm-2.38-2.12c1.51-1.62 4.34-1.98 8.41-1.1v-2.04c-4.59-.91-7.92-.33-9.88 1.78-2.35 2.54-1.99 6.47-1.58 8.56h2.05c-.36-1.58-.89-5.17 1-7.2M3.19 1.66c-.22.51 0 1.1.51 1.32.13.06.27.08.4.08.38 0 .75-.22.92-.6.41-.94.58-1.85.65-2.48H3.65c-.06.46-.2 1.06-.47 1.68Zm5.27 13c-.22.51.02 1.1.53 1.31.89.38 1.71.83 2.45 1.34.17.12.37.18.57.18.32 0 .63-.15.82-.43.32-.45.2-1.08-.25-1.39-.85-.59-1.79-1.11-2.81-1.54-.5-.21-1.09.02-1.31.53M6.18 6.58C4.86 7.9 2.78 8.37 0 8.02v2.02c.58.06 1.14.1 1.67.1 2.51 0 4.5-.72 5.93-2.16 2.17-2.18 2.51-5.52 2.39-8h-2c.11 2.1-.12 4.9-1.81 6.6M2.66 12.5c-.54-.04-1.03.37-1.08.92s.37 1.03.92 1.08c.99.08 1.96.21 2.86.39.07.01.13.02.2.02.47 0 .89-.33.98-.81a.986.986 0 0 0-.79-1.17c-.98-.19-2.02-.34-3.09-.42Z"/>
</svg>
