<svg viewBox="0 0 24 24" xmlns="http://www.w3.org/2000/svg">
  <path fill="#1d1d1b" d="M23.14 23.96c.23-.2.53-.31.86-.36v.39h-.9s.02-.03.03-.04ZM0 5.94V0h2.61c-.01.07-.02.15-.04.23-.09.48.23.93.7 1.02.05 0 .11.01.16.01.41 0 .78-.29.86-.71.04-.21.06-.39.08-.55h1.49c.09 1.56-.08 3.64-1.32 4.89C3.58 5.85 2.05 6.2 0 5.94m1.25-1.51q.195 0 .39-.09c.37-.18.71-.42 1.02-.69.36-.32.39-.88.07-1.24a.883.883 0 0 0-1.24-.07c-.19.17-.4.31-.63.43-.43.21-.61.74-.39 1.17.15.31.46.49.78.49m5.29 12.42C4.75 15.01 2.01 14.57 0 14.52v1.68c1.65.38 3.34 1.12 4.67 2.48C5.99 20.03 6.76 21.82 7 24h1.36c.32-3.16-.29-5.57-1.83-7.15ZM24 17.91v1.32a.85.85 0 0 0-.85.72c-.08.48.24.93.72 1.01.05 0 .09.02.13.02v.86c-.7.07-1.43.29-2.02.81q-.6.54-.87 1.35h-1.36c-.01-.15-.02-.3-.02-.44v-.3a.88.88 0 0 0-.82-.93c-.47-.03-.9.34-.93.82 0 .13-.01.27-.01.4s.01.29.02.44h-.96c-.26-1.15-.67-3.82.72-5.31 1.1-1.19 3.21-1.44 6.25-.78Zm-3.23 1.44c-.42.13-.8.32-1.14.55a.88.88 0 0 0-.22 1.22.88.88 0 0 0 1.22.21c.18-.13.41-.23.66-.31.46-.14.72-.63.57-1.1a.87.87 0 0 0-1.1-.57Zm.81-5.68c.77 0 1.59-.06 2.42-.14v2.6c-3.49-.69-6.03-.24-7.53 1.37-1.79 1.93-1.53 4.9-1.22 6.5h-1.69c.19-.14.33-.35.36-.61.03-.36.06-.7.08-1.04a.887.887 0 0 0-.83-.92.88.88 0 0 0-.92.83c-.01.31-.04.63-.07.95s.12.6.36.78h-2.41c.33-3.62-.44-6.44-2.34-8.38C5.56 13.33 2.33 12.8 0 12.75v-2.12c.16.2.39.33.66.34.31 0 .63.02.96.04h.06c.46 0 .84-.36.87-.82.03-.48-.33-.9-.82-.93-.36-.02-.7-.04-1.04-.05-.3-.01-.53.12-.69.33V7.67c.43.05.85.09 1.25.09 1.92 0 3.44-.55 4.54-1.66C7.46 4.42 7.71 1.87 7.62-.02h1.72c-.14 2.75.19 7.25 3.17 10.37 2.11 2.2 5.15 3.3 9.07 3.3ZM5.86 9.99q-.51-.15-1.02-.27a.87.87 0 0 0-1.05.66c-.11.47.19.94.66 1.05.3.07.61.15.92.24.08.02.17.04.25.04.38 0 .73-.25.84-.63a.88.88 0 0 0-.59-1.09Zm3.85 1.86c-.29-.21-.6-.41-.91-.6-.42-.24-.95-.11-1.2.31s-.1.95.31 1.2c.26.15.52.32.76.5.16.11.34.17.52.17.27 0 .54-.12.71-.36.29-.39.2-.94-.19-1.22m2.11 4.55a.8.8 0 0 0 .42-.11c.42-.23.58-.76.35-1.19-.18-.33-.37-.64-.58-.93-.28-.4-.82-.49-1.22-.22s-.49.82-.22 1.22c.17.24.33.5.48.77.16.29.46.46.77.46m2.05 2.8q-.075-.54-.18-1.05a.866.866 0 0 0-1.04-.67c-.47.1-.77.57-.67 1.04.06.29.12.6.16.92.06.44.43.76.87.76h.12c.48-.06.81-.51.75-.98ZM0 21.97V24h1.53c-.16-.59-.43-1.09-.81-1.48-.21-.22-.46-.4-.71-.55Zm0-3.96v2.04c.7.27 1.39.66 1.97 1.25.7.72 1.16 1.62 1.36 2.7h1.92c-.22-1.69-.82-3.07-1.82-4.09-.96-.98-2.18-1.56-3.42-1.9ZM22.96 0c.3.31.65.56 1.04.77V0zM20.8 0h-2.55c.11 1.15.46 2.45 1.38 3.4.96 1 2.43 1.47 4.38 1.42V2.68c-.91-.33-1.68-.82-2.32-1.49-.36-.37-.64-.78-.88-1.2Zm2.93 6.58c.09 0 .18 0 .27-.01v5.19c-4.62.5-8.07-.36-10.22-2.6C11.22 6.5 10.97 2.44 11.1 0h5.39c.12 1.49.57 3.26 1.87 4.61 1.26 1.31 3.06 1.97 5.38 1.97Zm-9.6-3.02c.47-.11.76-.58.65-1.05-.07-.31-.13-.61-.17-.91a.88.88 0 0 0-.99-.75c-.48.07-.81.51-.75.99.05.35.11.7.2 1.06.09.4.45.68.85.68.07 0 .13 0 .2-.02Zm2.2 2.16c-.19-.23-.37-.47-.52-.72a.875.875 0 0 0-1.21-.27c-.41.26-.53.8-.27 1.21.2.31.42.61.65.9.17.21.42.32.67.32.2 0 .4-.07.56-.2.37-.31.42-.86.11-1.23Zm2.87 2.07q-.435-.18-.81-.39a.88.88 0 0 0-1.19.34.88.88 0 0 0 .34 1.19c.31.17.63.33.98.48a.876.876 0 0 0 1.15-.47.874.874 0 0 0-.47-1.15m4.4 1.8a.875.875 0 0 0-.79-.95c-.32-.03-.63-.07-.94-.12a.877.877 0 0 0-1 .73c-.08.48.25.92.73 1 .34.05.68.1 1.04.13h.08c.45 0 .83-.34.87-.79Z"/>
</svg>
