<svg viewBox="0 0 40 40" xmlns="http://www.w3.org/2000/svg">
  <path fill="#1d1d1b" d="M0 12.51v-2.27c3.5.43 6.13-.17 7.8-1.85C9.96 6.22 10.25 2.66 10.11 0h2.26c.15 3.09-.26 7.25-2.96 9.97-1.76 1.78-4.22 2.67-7.34 2.67-.66 0-1.35-.05-2.07-.13m30.86-5.06c2.04 2.12 4.96 3.19 8.73 3.19.13 0 .28-.02.41-.02V8.37c-3.32.07-5.85-.75-7.51-2.48C30.9 4.24 30.29 1.98 30.1 0h-2.27c.2 2.42.94 5.28 3.02 7.45Zm6.75 25.81c-.05.62.42 1.16 1.04 1.21.5.04.96.1 1.35.17v-2.28c-.36-.06-.76-.1-1.18-.14-.61-.04-1.16.42-1.21 1.04m-.89-18.67c-.63-.09-1.19.34-1.27.95-.09.62.34 1.19.95 1.27.98.14 2.02.23 3.1.28h.05c.16 0 .31-.04.45-.1v-2.05c-.12-.06-.26-.09-.4-.1-1-.04-1.97-.13-2.87-.26Zm-7.78-2.97c-.5-.37-1.2-.28-1.58.22s-.28 1.2.22 1.58c.83.63 1.76 1.19 2.76 1.66.16.07.32.11.48.11.42 0 .83-.24 1.02-.64.27-.56.03-1.23-.54-1.5-.86-.41-1.65-.88-2.36-1.42ZM40 36.79c-1.09.11-2.21.45-3.11 1.26-.59.52-1.02 1.18-1.3 1.96h2.56c.08-.09.14-.19.23-.27.43-.39 1.01-.58 1.62-.67V36.8ZM7.55 31.4C5.4 29.2 2.67 28 0 27.37v2.33c2.15.58 4.28 1.58 5.94 3.28C7.66 34.74 8.69 37.1 9.07 40h2.29c-.4-3.53-1.67-6.41-3.82-8.6ZM23.1 4.07c-.6.17-.95.78-.79 1.38.29 1.06.68 2.07 1.15 3a1.13 1.13 0 0 0 1.51.5c.55-.28.78-.96.5-1.51-.4-.8-.74-1.67-.99-2.59-.17-.6-.79-.95-1.38-.79ZM3.03 35.76c-.89-.91-1.94-1.53-3.03-1.95v2.48c.51.28 1 .62 1.42 1.05.69.7 1.16 1.6 1.45 2.66h2.32c-.34-1.69-1.06-3.11-2.16-4.24M0 7.71c.66-.1 1.29-.25 1.86-.47a1.124 1.124 0 0 0-.8-2.1c-.33.13-.69.22-1.06.29v2.29ZM5.03 3q.18.06.36.06c.47 0 .91-.3 1.07-.77.29-.88.42-1.68.49-2.29H4.68c-.06.44-.17.99-.36 1.57-.2.59.12 1.23.71 1.43m11.54 37c.54-5.94-.74-10.54-3.83-13.71C9.11 22.58 3.82 21.7 0 21.62v2.27c3.42.08 8.07.85 11.13 3.99 2.64 2.7 3.69 6.79 3.16 12.12zM3.53 15.86c-.65-.06-1.16.41-1.22 1.03-.05.62.41 1.16 1.03 1.22.99.08 1.96.21 2.87.38.07.01.13.02.2.02.53 0 1.01-.38 1.11-.93.11-.61-.3-1.2-.91-1.31-.99-.18-2.02-.31-3.08-.4Zm25.83 15.09c1.92-2.06 5.5-2.53 10.64-1.43v-2.29c-5.72-1.14-9.86-.42-12.29 2.19-2.9 3.13-2.46 7.98-1.95 10.58h2.3c-.45-2.04-1.07-6.49 1.3-9.05m2.96 3.03c-.87.81-1.46 1.87-1.76 3.15a1.123 1.123 0 0 0 1.1 1.38c.51 0 .97-.35 1.09-.87.2-.85.56-1.51 1.1-2.01.46-.42.48-1.14.06-1.59-.42-.46-1.14-.48-1.59-.06M22.71.33h.04c.31 0 .59-.13.79-.33h-1.57c.19.19.45.32.74.33m14.83.36c-.21-.22-.4-.45-.58-.69h-2.68c.44.79.97 1.54 1.63 2.24C37.03 3.41 38.4 4.29 40 4.87V2.41c-.94-.44-1.77-1.01-2.46-1.72M15.89 0c-.22 4.53.31 11.94 5.21 17.06 3.45 3.6 8.44 5.4 14.89 5.4 1.28 0 2.62-.08 4-.22v-2.26c-7.79.84-13.6-.66-17.26-4.47C18.4 10.99 17.96 4.14 18.16 0zm-3.28 18.07c-.57-.25-1.23 0-1.49.56-.26.57 0 1.23.56 1.49.88.4 1.71.85 2.46 1.36a1.125 1.125 0 0 0 1.56-.31c.35-.52.21-1.22-.31-1.56-.85-.57-1.79-1.09-2.79-1.54Zm9.27 19.22h.02c.61 0 1.11-.49 1.12-1.1v-.5c0-.89-.04-1.77-.11-2.62-.06-.62-.61-1.07-1.23-1.01s-1.07.61-1.01 1.23c.07.77.11 1.58.11 2.4v.46c-.01.62.48 1.13 1.1 1.15Zm-.44-10.35c-.42-1-.93-1.95-1.51-2.83a1.12 1.12 0 0 0-1.56-.31c-.52.35-.66 1.04-.31 1.56.51.76.95 1.58 1.31 2.45.18.43.6.69 1.04.69a1.125 1.125 0 0 0 1.03-1.56"/>
</svg>
