<svg viewBox="0 0 40 40" xmlns="http://www.w3.org/2000/svg">
  <path fill="#1e1e1c" d="m31.41 19.01-2.34 2.34-2.49-2.49 3.28-3.28 1.96 1.96 7.53-7.52c.86-.86.86-2.27 0-3.13L33.13.67c-.86-.86-2.26-.86-3.13 0L22.48 8.2l1.96 1.96-3.28 3.28-2.51-2.51 2.34-2.34L13.16.75c-.86-.86-2.26-.86-3.13 0L6.89 3.89c-.42.42-.65.97-.65 1.56s.23 1.15.65 1.56l7.82 7.82 2.34-2.34L19.56 15l-2.05 2.05a8.45 8.45 0 0 0-8.59 2.06l-.8.8 5.19 5.19-1.5 1.5c-.66-.14-1.37.05-1.88.56s-.69 1.22-.56 1.88l-.03.03.06.06c.09.35.26.68.53.95s.6.44.95.53l.06.06.03-.03c.14.03.28.05.42.05.53 0 1.06-.2 1.46-.6.51-.51.69-1.22.56-1.88l1.5-1.5 5.19 5.19.8-.8c1.6-1.6 2.48-3.72 2.48-5.98 0-.9-.15-1.78-.42-2.62L25 20.46l2.49 2.49-2.34 2.34 7.82 7.82c.43.43 1 .65 1.56.65s1.13-.21 1.56-.65l3.14-3.14c.86-.86.86-2.26 0-3.13l-7.82-7.82ZM11.57 2.35l2.44 2.44-3.1 3.1-2.42-2.4zm3.14 9.32L12.5 9.48l3.1-3.1 2.2 2.2zm10.94-3.49 5.88-5.93 2.39 2.39-2.97 2.97 1.59 1.59 2.97-2.97 2.21 2.21-5.91 5.91-.37-.37-5.43-5.43-.37-.37Zm2.62 5.8-6.21 6.21-2.25-2.25 6.21-6.21zm-8.25 14.65-8.64-8.64a6.21 6.21 0 0 1 9.73 5.11c0 1.28-.38 2.5-1.1 3.52Zm11.39-6.44 2.32 2.3-3.1 3.1-2.31-2.31zm3.12 9.29-2.31-2.31 3.1-3.1 2.31 2.3-3.11 3.11Zm-22.15 6.36c.25.57-.02 1.23-.59 1.48a8.4 8.4 0 0 1-9.32-1.78C0 35.08-.69 31.42.69 28.21a1.126 1.126 0 1 1 2.07.89 6.18 6.18 0 0 0 1.3 6.84c1.81 1.81 4.49 2.31 6.84 1.3.57-.25 1.23.02 1.48.59Zm1.67-4.56c.25.57-.02 1.23-.59 1.48a6.22 6.22 0 0 1-6.9-1.31 6.23 6.23 0 0 1-1.32-6.9c.24-.57.9-.84 1.48-.59.57.25.84.91.59 1.48-.65 1.52-.32 3.26.84 4.42a4 4 0 0 0 4.42.84c.57-.25 1.23.02 1.48.59Z"/>
</svg>
