<svg viewBox="0 0 32 32" xmlns="http://www.w3.org/2000/svg">
  <path fill="#1e1e1c" d="m25.01 15.15-1.87 1.87-1.85-1.85 2.48-2.48 1.57 1.57 6.1-6.09a1.86 1.86 0 0 0 0-2.64l-1.72-1.72.02-.02-1.42-1.42-.02.02L26.45.54c-.73-.73-1.92-.73-2.64 0l-6.1 6.09 1.57 1.57-2.48 2.48-1.87-1.87 1.87-1.87L10.47.61c-.73-.73-1.91-.73-2.64 0L5.31 3.12c-.35.35-.55.82-.55 1.32s.19.97.55 1.32l6.34 6.33 1.87-1.87 1.87 1.87-1.52 1.52c-2.37-.74-5.05-.18-6.92 1.69l-.71.71 4.15 4.15-1.11 1.11c-.55-.09-1.13.07-1.53.47-.33.33-.51.77-.51 1.24a1.74 1.74 0 0 0 1.75 1.75 1.74 1.74 0 0 0 1.72-2.06l1.09-1.09 4.15 4.15.71-.71a6.87 6.87 0 0 0 1.69-6.92l1.52-1.52 1.85 1.85-1.87 1.87 6.33 6.33c.35.35.82.55 1.32.55s.97-.19 1.32-.55l2.52-2.51c.73-.73.73-1.91 0-2.64L25 15.15ZM9.14 2.12l1.79 1.79L8.6 6.24 6.81 4.45zm.88 5.53 2.33-2.33 1.62 1.62-2.33 2.33zm10.52-1.02 4.59-4.59 1.75 1.75-2.31 2.31 1.42 1.42 2.31-2.31 1.63 1.63-4.59 4.59-.15-.15-4.49-4.49-.15-.15Zm1.81 4.64-4.83 4.83-1.66-1.66 4.83-4.83zm-6.48 11.56-6.74-6.74a4.895 4.895 0 0 1 6.11.63 4.87 4.87 0 0 1 .63 6.11m9.14-4.85 1.7 1.7-2.33 2.33-1.71-1.7L25 17.98Zm2.5 7.15-1.7-1.7 2.33-2.33 1.71 1.7-2.33 2.33Zm-17.42 4.98c.22.51-.02 1.1-.52 1.32-.89.38-1.82.57-2.74.57-1.78 0-3.52-.69-4.84-2.01a6.86 6.86 0 0 1-1.44-7.58c.22-.51.81-.74 1.32-.52s.74.81.52 1.32a4.86 4.86 0 0 0 1.02 5.37 4.85 4.85 0 0 0 5.37 1.02c.51-.21 1.1.02 1.32.52Zm1.34-3.65c.22.51-.02 1.1-.53 1.31-.66.28-1.35.42-2.04.42a5.1 5.1 0 0 1-3.6-1.5 5.08 5.08 0 0 1-1.08-5.63c.22-.51.81-.74 1.32-.52s.74.81.52 1.32a3.099 3.099 0 0 0 4.08 4.08c.51-.22 1.1.02 1.32.52Z"/>
</svg>
