<svg viewBox="0 0 48 48" xmlns="http://www.w3.org/2000/svg">
  <path fill="#1e1e1c" d="M9.88 11.63 5.05 6.8l1.77-1.77 4.83 4.83zm27.34 2.38 6.08-6.08-1.77-1.77-6.08 6.08zM34.6 36.35l4.83 4.83 1.77-1.77-4.83-4.83zm-15.54-4.17 6.08-6.08-1.77-1.77-6.08 6.08zm9.08-9.09 6.08-6.08-1.77-1.77-6.08 6.08zM14.29 33.41l-6.08 6.08 1.77 1.77 6.08-6.08zM36.6 0 23.75 12.85l-2.64-2.64a4.243 4.243 0 0 1 0-5.99L25.34 0H21.8l-2.46 2.46c-2.63 2.63-2.62 6.9 0 9.52l2.64 2.64-2.79 2.79-4.52-4.52-1.77 1.77 4.52 4.52-2.79 2.79-2.64-2.64c-1.27-1.27-2.96-1.97-4.76-1.97s-3.49.7-4.76 1.97l-2.48 2.48v3.54l4.25-4.25c.8-.8 1.86-1.24 2.99-1.24s2.2.44 3 1.24l2.64 2.64L0 36.6v3.54L40.14 0zM3.97 2.18 1.79 0H0v1.74l2.2 2.2 1.77-1.77ZM0 47.7v.3h3.23l3.74-3.74-1.77-1.77-5.21 5.21Zm42.62-3.34L46.26 48H48v-1.79l-3.61-3.61-1.77 1.77ZM13.98 48l11.58-11.58 3.95 3.95a4.243 4.243 0 0 1 0 5.99L27.87 48h3.52c2.51-2.64 2.47-6.82-.11-9.4l-3.95-3.95 2.71-2.71 1.98 1.83L33.79 32l-1.98-1.83 2.86-2.86 3.95 3.95c1.27 1.27 2.96 1.97 4.76 1.97s3.36-.65 4.61-1.84v-3.52l-1.62 1.62c-.8.8-1.86 1.24-2.99 1.24s-2.2-.44-3-1.24l-3.95-3.95 11.56-11.56v-3.54L10.45 48h3.54ZM47.7 0l-3.16 3.16 1.77 1.77 1.7-1.7V0h-.3Z"/>
</svg>
