<svg viewBox="0 0 48 48" xmlns="http://www.w3.org/2000/svg">
  <path fill="#1d2c1b" d="M0-.01 1.78 0l2.19 2.19L2.2 3.96 0 1.75v20.06l2.48-2.48c1.27-1.27 2.96-1.97 4.76-1.97s3.49.7 4.76 1.97l2.64 2.64 2.79-2.79-4.52-4.52 1.77-1.77 4.52 4.52 2.79-2.79-2.64-2.64c-1.27-1.27-1.97-2.96-1.97-4.76s.7-3.49 1.97-4.76l2.47-2.47h3.54l-4.23 4.23c-.8.8-1.24 1.86-1.24 3s.44 2.19 1.24 2.99l2.64 2.64L36.61 0h3.54L0 40.14v7.56l5.21-5.2 1.77 1.77-3.72 3.72h7.22L48 10.46V14L36.44 25.56l3.95 3.95c.8.8 1.86 1.24 3 1.24s2.19-.44 2.99-1.24L48 27.89v3.52c-1.25 1.18-2.88 1.84-4.61 1.84s-3.49-.7-4.76-1.97l-3.95-3.95-2.71 2.71 1.83 1.98-1.77 1.77-1.83-1.98-2.86 2.86 3.95 3.95c2.58 2.58 2.62 6.74.13 9.38h14.82l-3.61-3.61 1.77-1.77 3.61 3.61V48-.01zm9.89 11.65L5.06 6.81l1.77-1.77 4.83 4.83zm29.55 29.55-4.83-4.83 1.77-1.77 4.83 4.83zm-29.46.08L8.21 39.5l6.08-6.08 1.77 1.77zm9.08-9.08-1.77-1.77 6.08-6.08 1.77 1.77zm9.08-9.09-1.77-1.77 6.08-6.08 1.77 1.77zm9.08-9.08-1.77-1.77 6.08-6.08 1.77 1.77zM48 3.24l-1.69 1.69-1.77-1.77 3.17-3.17H48v3.24ZM29.51 40.38a4.243 4.243 0 0 1 0 5.99l-1.62 1.62H14l11.56-11.56zM12.87 23.74 0 36.61V25.35l4.25-4.25c.8-.8 1.86-1.24 2.99-1.24s2.2.44 3 1.24l2.64 2.64Z"/>
</svg>
