<svg viewBox="0 0 48 48" xmlns="http://www.w3.org/2000/svg">
  <path fill="#1d1d1b" d="M0 0v48h48V0zm11.1 6.01 3.31-3.31c.93-.93 2.45-.93 3.38 0l2.53 2.53-6.7 6.7-2.53-2.53c-.93-.93-.93-2.45 0-3.38Zm.88 39.82c-.97.42-1.98.62-2.98.62-1.94 0-3.83-.76-5.27-2.19-2.17-2.17-2.79-5.41-1.57-8.25.27-.63 1.01-.93 1.64-.65.63.27.93 1.01.65 1.64a4.97 4.97 0 0 0 1.04 5.49 4.93 4.93 0 0 0 5.49 1.04c.64-.27 1.37.02 1.64.65s-.02 1.37-.65 1.64Zm2.34-4.78c-.72.31-1.48.46-2.24.46a5.6 5.6 0 0 1-3.95-1.64 5.58 5.58 0 0 1-1.18-6.19c.27-.63 1-.93 1.64-.65.63.27.93 1.01.65 1.64-.51 1.18-.25 2.53.65 3.43s2.25 1.16 3.43.65c.64-.27 1.37.02 1.64.65s-.02 1.37-.65 1.64Zm15.97-12.47 2.46-2.46-2.53-2.53-1.93 1.93-1.86-1.86-1.48 1.48a8.94 8.94 0 0 1 1.68 5.21c0 2.4-.93 4.65-2.63 6.35l-.88.88-5.47-5.47-1.51 1.51c.03.14.04.28.04.43 0 .6-.23 1.16-.66 1.58a2.29 2.29 0 0 1-2.01.61s-.01 0-.01 0a2.24 2.24 0 0 1-1.14-.61c-.32-.32-.53-.72-.61-1.14s0-.01 0-.01c-.14-.71.07-1.47.61-2.01.55-.54 1.31-.75 2.01-.61l1.51-1.51-5.47-5.47.88-.88c3.26-3.26 8.41-3.48 11.93-.68l1.44-1.44-2.18-2.18 1.93-1.93-2.55-2.55-2.46 2.46-3.99-3.99 6.7-6.7 3.99 3.99-2.46 2.46 2.55 2.55 2.19-2.19 2.18 2.18 2.09-2.09-3.63-3.63 6.9-6.9c.87-.87 2.28-.86 3.14 0l5.57 5.57c.42.42.65.98.65 1.57s-.23 1.15-.65 1.57l-6.9 6.9-3.31-3.31-2.09 2.09 1.86 1.86L32 21.8l2.53 2.53 2.46-2.46 4.11 4.11-6.7 6.7-4.11-4.11Zm14.99 4.98-3.31 3.31c-.45.45-1.05.7-1.69.7s-1.24-.25-1.69-.7l-2.41-2.41 6.7-6.7 2.41 2.41c.93.93.93 2.45 0 3.38Z"/>
</svg>
