<svg viewBox="0 0 48 48" xmlns="http://www.w3.org/2000/svg">
  <path d="M16.59 3.19C10.26 6.97 3.02 17.45 1.05 34.5l-.04.3-.17.25c-.07.1-1.64 2.55-.23 4.1 1.11.74 11.87 7.66 24.4 6.62h.2c5.75.43 20.95.21 22.82-5.83V24.01c0-.16-.25-4.5-9.11-4.5-2.18 0-4.61 2.14-6.72 5.86 1.69 1.18 2.86 2.68 3.31 4.01.22.65-.14 1.36-.79 1.58-.13.04-.26.06-.4.06-.52 0-1.01-.33-1.18-.85-.42-1.25-2.45-3.44-5.47-4.15-2.3-.54-5.85-.38-9.72 3.49-.09.09-.19.14-.3.2-.58 2.6-1.95 4.91-4.79 5.86-.13.04-.26.06-.4.06-.52 0-1.01-.33-1.18-.85-.22-.65.14-1.36.79-1.58 5.61-1.87 2.67-13.33 2.64-13.44-1.36-4.07 1.36-6.85 1.47-6.96a1.25 1.25 0 0 1 1.77 0c.49.48.49 1.27 0 1.76-.02.02-.15.16-.31.39l4.2.41a2.62 2.62 0 0 0 1.81-.77l2.85-2.85c.51-.51.77-1.2.77-1.9l-2.58 2.58-.68-.16c-3.96-.92-4.61-3.59-4.4-4.87l.07-.25.2-.53c.25-.64.97-.96 1.61-.72.64.25.97.97.72 1.61l-.14.36c0 .28.17 1.2 1.85 1.78l2.87-2.87c.38-.38.63-1.13.58-1.71-.01-.14-.06-.37-.19-.49 0 0-4.13-5.22-10.61-1.35Zm2.77 33.4c.26-.64.98-.95 1.62-.7.08.03 5.19 1.98 9.14-.99.55-.42 1.33-.3 1.75.25.41.55.3 1.33-.25 1.75-2.24 1.68-4.69 2.16-6.75 2.16-2.65 0-4.67-.79-4.82-.85-.64-.26-.95-.98-.7-1.62Z"/>
</svg>
