<svg viewBox="0 0 40 40" xmlns="http://www.w3.org/2000/svg">
  <path d="M13.81 2.71C8.64 6.04 2.49 14.61.85 28.85l-.03.27-.15.23c-.05.08-1.34 2.08-.21 3.32.97.64 9.92 6.39 20.35 5.52h.18c4.79.36 17.44.18 19.01-4.81V20.06c0-.13-.22-3.69-7.54-3.69-1.75 0-3.79 1.79-5.52 4.8 1.39.99 2.37 2.24 2.74 3.35.2.59-.12 1.23-.71 1.42q-.18.06-.36.06c-.47 0-.91-.3-1.07-.77-.34-1.03-2.02-2.83-4.52-3.42-1.9-.45-4.84-.31-8.05 2.9-.07.07-.16.11-.24.16-.5 2.19-1.66 4.13-4.05 4.93q-.18.06-.36.06c-.47 0-.91-.3-1.07-.77-.2-.59.12-1.23.71-1.42 4.62-1.54 2.18-11.06 2.16-11.15-1.15-3.45 1.15-5.8 1.25-5.9.44-.44 1.15-.44 1.59 0s.44 1.14 0 1.58c-.01.01-.08.09-.17.21l3.98 1.44c.55-.01 1.07-.23 1.46-.62l2.38-2.38c.36-.36-.04-1.95 0-2.44l-2.04 2.05-.61-.14c-3.37-.79-3.92-3.07-3.74-4.16l.06-.22.17-.44a1.124 1.124 0 0 1 2.1.8l-.11.29c.01.22.16.92 1.45 1.38l2.37-2.37c.3-.3.5-.9.46-1.36a.64.64 0 0 0-.12-.35s-3.5-4.52-8.79-1.13Zm2.2 27.85c.23-.58.89-.85 1.46-.63.06.03 4.3 1.64 7.57-.82.5-.37 1.2-.27 1.57.23s.27 1.2-.23 1.57c-1.89 1.42-3.95 1.82-5.7 1.82-2.23 0-3.93-.66-4.06-.71-.58-.23-.86-.89-.63-1.46Z"/>
</svg>
