<svg viewBox="0 0 48 48" xmlns="http://www.w3.org/2000/svg">
  <path d="M37.39 17.63c-2.87 0-5.73 2.28-8.09 6.41-.48-.19-.98-.37-1.51-.49-2.26-.54-5.55-.5-9.11 2.16-.02-3.13-.76-5.92-.84-6.19-.16-.48-.21-.91-.21-1.32l4.2.41h.12c1.27 0 2.46-.49 3.36-1.39l2.57-2.57c1.28-1.27 1.72-3.2 1.14-4.91l-.07-.21-.17-.21c.44-.78.67-1.73.58-2.6-.09-.95-.54-1.74-1.25-2.21l-5.54-2.8-.12-.05c-.25-.1-2.55-.85-6.46 1.63C9.94 7.14 2.84 16.95.92 32.97c-.87 1.49-1.75 4.41.33 6.49l.17.14c.44.31 10.81 7.46 23.54 6.45.39.03 1.81.11 3.76.11 1.83 0 4.12-.08 6.48-.35 7.44-.85 11.72-3.18 12.73-6.92l.04-14.84c0-.26-.12-6.43-10.58-6.43Zm8.08 20.77c-1.68 5.35-15.28 5.54-20.43 5.15h-.2C13.62 44.5 4 38.32 2.94 37.61c-1.19-1.32.17-3.44.23-3.53l.17-.25.04-.3C5.15 18.21 11.74 8.96 17.33 5.41c2.58-1.64 4.01-1.44 4.21-1.41l5.21 2.62c.06.06.1.19.12.35.05.49-.16 1.12-.48 1.44l-2.53 2.53c-1.34-.48-1.5-1.2-1.51-1.44l.11-.3c.25-.65-.08-1.37-.72-1.61-.65-.25-1.37.08-1.61.72l-.18.47-.07.25c-.19 1.19.41 3.67 4.06 4.53l.68.16 2.13-2.13c-.07.48-.27.94-.62 1.29l-2.57 2.57c-.41.41-.96.65-1.54.66l-3.56-.35c.07-.09.12-.15.14-.16.48-.49.48-1.28 0-1.76s-1.28-.49-1.77 0c-.11.11-2.61 2.66-1.36 6.4.03.1 2.65 10.32-2.3 11.97a1.246 1.246 0 0 0 .4 2.43c.13 0 .26-.02.4-.06 2.59-.86 3.85-2.96 4.39-5.32.09-.05.18-.09.25-.17 3.45-3.45 6.6-3.6 8.64-3.11 2.68.63 4.48 2.56 4.84 3.66.17.52.66.85 1.19.85.13 0 .26-.02.4-.06.65-.22 1.01-.93.79-1.58-.4-1.19-1.44-2.53-2.93-3.6 1.85-3.21 4.03-5.12 5.9-5.12 7.84 0 8.08 3.8 8.08 3.93V38.4Zm-14.34-4.36c.41.55.3 1.34-.25 1.75-2.04 1.53-4.27 1.97-6.16 1.97-2.41 0-4.25-.72-4.39-.77-.64-.26-.95-.98-.7-1.62.26-.64.98-.95 1.62-.7.06.02 4.61 1.76 8.12-.87.55-.42 1.34-.3 1.75.25Z"/>
</svg>
