<svg viewBox="0 0 32 32" xmlns="http://www.w3.org/2000/svg">
  <path d="M24.84 11.64c-1.92 0-3.82 1.49-5.4 4.18-.28-.11-.58-.2-.89-.28-1.98-.47-4.02 0-5.88 1.27-.06-1.96-.5-3.64-.55-3.81-.08-.23-.11-.45-.12-.65l2.65.26c.89 0 1.73-.35 2.36-.98l1.71-1.71c.89-.89 1.2-2.24.79-3.44l-.06-.17-.05-.07c.25-.51.38-1.09.32-1.64-.07-.68-.39-1.24-.9-1.58l-3.67-1.86-.09-.04c-.28-.11-1.82-.56-4.42 1.09C6.62 4.78 1.9 11.27.62 21.88c-.59 1.03-1.17 3.03.26 4.46l.13.11c.29.2 7.17 4.96 15.62 4.29.41.03 1.38.09 2.65.09 4.16 0 11.52-.62 12.67-4.93l.03-9.83c0-.18-.08-4.42-7.15-4.42Zm5.15 13.85c-1.11 3.38-10.16 3.48-13.28 3.25h-.16c-7.28.59-13.53-3.36-14.3-3.87-.67-.77.17-2.09.18-2.1l.13-.2.03-.24C3.74 12.29 8.05 6.23 11.7 3.92c1.6-1.01 2.5-.93 2.62-.91l3.38 1.7c.07.16 0 .67-.25.92l-1.59 1.59c-.54-.22-.75-.5-.78-.71l.06-.17a.994.994 0 0 0-.58-1.29.994.994 0 0 0-1.29.58l-.12.31-.05.2c-.14.84.27 2.59 2.81 3.19l.46.11-.8.8c-.25.25-.58.39-.84.39l-2.06-.2c.23-.38.2-.89-.13-1.22a.996.996 0 0 0-1.41 0c-.07.07-1.79 1.83-.94 4.39.02.07 1.7 6.64-1.4 7.68-.52.17-.81.74-.63 1.27.14.42.53.68.95.68.1 0 .21-.02.32-.05 1.75-.58 2.6-1.99 2.98-3.56.05-.03.1-.05.14-.1 2.21-2.22 4.23-2.31 5.53-2.01 1.7.4 2.84 1.61 3.07 2.3.14.42.53.68.95.68.1 0 .21-.02.32-.05.52-.17.81-.74.63-1.27-.26-.78-.93-1.65-1.87-2.36 1.17-1.98 2.52-3.15 3.66-3.15 4.98 0 5.15 2.34 5.15 2.42v9.43Zm-9.14-2.95c.33.44.24 1.07-.2 1.4-1.38 1.04-2.89 1.33-4.16 1.33-1.63 0-2.87-.48-2.96-.52-.51-.21-.76-.79-.56-1.3.21-.51.79-.76 1.3-.56.03.01 2.95 1.12 5.18-.55.44-.33 1.07-.24 1.4.2"/>
</svg>
