<svg viewBox="0 0 40 40" xmlns="http://www.w3.org/2000/svg">
  <path d="M31.11 14.62c-2.39 0-4.77 1.89-6.74 5.3a9 9 0 0 0-1.2-.39c-2.53-.6-5.14.03-7.5 1.74-.04-2.56-.63-4.8-.69-5.02-.12-.35-.16-.67-.16-.97l3.39.33h.11c1.06 0 2.1-.43 2.85-1.18l2.13-2.13a4.05 4.05 0 0 0 .96-4.16l-.06-.19-.12-.15c.35-.65.54-1.42.46-2.15-.08-.82-.46-1.49-1.07-1.9l-4.61-2.33-.11-.05c-.34-.13-2.22-.68-5.44 1.36C8.28 5.94 2.37 14.09.77 27.4c-.73 1.26-1.46 3.72.29 5.48l.15.13c.36.25 9.01 6.21 19.58 5.37.51.04 1.74.11 3.35.11 5.2 0 14.37-.78 15.8-6.11l.04-12.34c0-.22-.1-5.43-8.87-5.43Zm6.62 17.3c-1.4 4.35-12.9 4.5-16.86 4.2h-.18c-9.24.78-17.19-4.29-18.1-4.9-.93-1.05.2-2.8.2-2.82l.15-.23.03-.27C4.44 15.23 9.89 7.58 14.51 4.64c2.08-1.32 3.26-1.18 3.42-1.16l4.3 2.17s.05.11.07.23c.04.37-.13.88-.38 1.12l-2.06 2.06c-.99-.37-1.13-.9-1.15-1.08l.09-.23a1.124 1.124 0 0 0-2.1-.8l-.15.39-.06.22c-.16 1.02.34 3.13 3.43 3.86l.61.14 1.62-1.62c-.08.28-.23.54-.45.76l-2.13 2.13c-.32.32-.76.51-1.21.52l-2.79-.27c.43-.44.43-1.15 0-1.58-.44-.44-1.15-.44-1.59 0-.09.09-2.2 2.25-1.15 5.39.02.08 2.18 8.48-1.85 9.82-.59.2-.91.83-.71 1.42.16.47.6.77 1.07.77q.18 0 .36-.06c2.17-.72 3.22-2.47 3.68-4.44.07-.04.14-.08.2-.14 2.83-2.83 5.42-2.96 7.09-2.56 2.19.52 3.66 2.09 3.96 2.98.16.47.6.77 1.07.77q.18 0 .36-.06c.59-.2.91-.83.71-1.42-.33-.98-1.18-2.09-2.4-2.98 1.51-2.59 3.27-4.14 4.78-4.14 6.41 0 6.61 3.07 6.62 3.18v11.88Zm-11.74-3.65c.37.5.27 1.2-.23 1.57-1.71 1.28-3.58 1.65-5.16 1.65-2.02 0-3.56-.6-3.67-.64a1.12 1.12 0 0 1-.63-1.46c.23-.58.89-.85 1.46-.63.04.02 3.78 1.44 6.66-.72.5-.37 1.2-.27 1.57.23"/>
</svg>
