<svg viewBox="0 0 24 24" xmlns="http://www.w3.org/2000/svg">
  <path d="M18.56 8.6c-1.45 0-2.88 1.1-4.07 3.07-.18-.07-.37-.13-.57-.17-1.44-.34-2.92-.05-4.27.83-.07-1.37-.37-2.5-.4-2.62-.03-.1-.05-.2-.07-.29l1.82.17c.69 0 1.35-.27 1.84-.76l1.27-1.27c.71-.71.95-1.74.62-2.69l-.05-.15c.17-.38.26-.81.21-1.21-.05-.55-.31-1-.73-1.27L11.34.82c-.22-.09-1.41-.44-3.4.82C4.95 3.54 1.43 8.39.47 16.29c-.46.81-.88 2.34.23 3.45l.12.1c.22.15 5.35 3.7 11.66 3.2.31.02 1.02.06 1.94.06 3.11 0 8.66-.47 9.55-3.76l.03-7.33c0-.14-.06-3.41-5.44-3.41m3.69 10.38c-.74 2.15-6.31 2.55-9.71 2.3h-.14c-5.31.44-9.88-2.43-10.51-2.84-.4-.5.15-1.37.15-1.38l.12-.18.02-.21c.85-7.4 4.02-11.86 6.7-13.56 1.06-.68 1.69-.67 1.84-.65l2.42 1.22c.02.13-.04.38-.16.49l-1.12 1.12c-.26-.12-.38-.25-.41-.35l.04-.1a.87.87 0 0 0-.51-1.13.87.87 0 0 0-1.13.51l-.09.23-.05.17c-.11.67.21 2.05 2.19 2.51l.11.03-.42.42c-.16.16-.38.25-.52.25L9.74 7.7c.1-.3.03-.64-.21-.88a.88.88 0 0 0-1.24 0c-.52.52-1.26 1.83-.73 3.38.01.05 1.23 4.8-.95 5.53-.46.15-.71.65-.55 1.11.12.37.46.6.83.6.09 0 .18-.01.28-.04 1.34-.45 1.99-1.5 2.28-2.69.03-.02.06-.03.09-.06 1.26-1.27 2.64-1.77 3.98-1.45 1.16.27 2.01 1.11 2.18 1.62.12.37.46.6.83.6.09 0 .18-.01.28-.04.46-.15.71-.65.55-1.11-.19-.57-.67-1.21-1.34-1.74.83-1.36 1.76-2.17 2.54-2.17 3.55 0 3.68 1.61 3.69 1.66v6.97Zm-6.54-2.25c.29.39.21.94-.18 1.23-1.05.79-2.2 1.01-3.17 1.01-1.24 0-2.18-.37-2.25-.39a.877.877 0 1 1 .65-1.63c.03.01 2.12.8 3.72-.39.39-.29.94-.21 1.23.18Z"/>
</svg>
