<svg viewBox="0 0 32 32" xmlns="http://www.w3.org/2000/svg">
  <path d="M30.76 22.78h-2.37v-1.73c0-2.26-1.84-4.1-4.1-4.1h-7.23v-3h6.79c.84 0 1.52-.68 1.52-1.52V1.53c0-.84-.68-1.52-1.52-1.52H8.15c-.84 0-1.52.68-1.52 1.52v10.9c0 .84.68 1.52 1.52 1.52h6.91v3H7.73c-2.26 0-4.1 1.84-4.1 4.1v1.73H1.26c-.69 0-1.25.56-1.25 1.25v6.73c0 .69.56 1.25 1.25 1.25H8c.69 0 1.25-.56 1.25-1.25v-6.73c0-.69-.56-1.25-1.25-1.25H5.64v-1.73c0-1.16.94-2.1 2.1-2.1h7.33v3.83h-2.42c-.69 0-1.25.56-1.25 1.25v6.73c0 .69.56 1.25 1.25 1.25h6.74c.69 0 1.25-.56 1.25-1.25v-6.73c0-.69-.56-1.25-1.25-1.25h-2.32v-3.83h7.23c1.16 0 2.1.94 2.1 2.1v1.73h-2.37c-.69 0-1.25.56-1.25 1.25v6.73c0 .69.56 1.25 1.25 1.25h6.74c.69 0 1.25-.56 1.25-1.25v-6.73c0-.69-.56-1.25-1.25-1.25ZM13.03 5.98h2.04V3.94h2v2.04h2.04v2h-2.04v2.04h-2V7.98h-2.04z"/>
</svg>
