<svg viewBox="0 0 24 24" xmlns="http://www.w3.org/2000/svg">
  <path d="M22.88 16.86h-1.56v-1.11c0-1.75-1.42-3.18-3.18-3.18h-5.23V10.6h4.9c.69 0 1.26-.57 1.26-1.26V1.25c0-.69-.56-1.26-1.26-1.26H6.18c-.69 0-1.26.57-1.26 1.26v8.1c0 .69.56 1.26 1.26 1.26h4.99v1.97h-5.3c-1.75 0-3.18 1.43-3.18 3.18v1.11H1.13C.51 16.87 0 17.38 0 18v4.87C0 23.49.51 24 1.13 24H6c.62 0 1.13-.51 1.13-1.13V18c0-.62-.51-1.13-1.13-1.13H4.44v-1.11c0-.79.64-1.43 1.43-1.43h5.3v2.54h-1.6c-.62 0-1.13.51-1.13 1.13v4.87c0 .62.51 1.13 1.13 1.13h4.87c.62 0 1.13-.51 1.13-1.13V18c0-.62-.51-1.13-1.13-1.13h-1.52v-2.54h5.23c.79 0 1.43.64 1.43 1.43v1.11h-1.56c-.62 0-1.13.51-1.13 1.13v4.87c0 .62.51 1.13 1.13 1.13h4.87c.62 0 1.13-.51 1.13-1.13V18c0-.62-.51-1.13-1.13-1.13ZM9.42 4.42h1.75V2.67h1.75v1.75h1.75v1.75h-1.75v1.75h-1.75V6.17H9.42z"/>
</svg>
