<svg viewBox="0 0 16 16" xmlns="http://www.w3.org/2000/svg">
  <path d="M7.26 2.15V.74c0-.41.33-.74.75-.74s.75.34.75.75v1.41c0 .41-.34.75-.75.75s-.75-.34-.75-.75ZM3.34 4.39c.15.15.34.22.53.22s.38-.07.53-.22c.29-.29.29-.77 0-1.06l-1-1c-.29-.29-.77-.29-1.06 0s-.29.77 0 1.06zM.75 8.74h1.41c.41 0 .75-.34.75-.75s-.34-.75-.75-.75H.75a.749.749 0 1 0 0 1.5m12.34-.73c0 .41.34.75.75.75h1.41c.41 0 .75-.34.75-.75s-.34-.75-.75-.75h-1.41c-.41 0-.75.34-.75.75m-.95-3.39c.19 0 .38-.07.53-.22l1-1c.29-.29.29-.77 0-1.06s-.77-.29-1.06 0l-1 1c-.29.29-.29.77 0 1.06.15.15.34.22.53.22M4.36 8.75c.41 0 .75-.34.75-.75C5.11 6.41 6.4 5.11 8 5.11s2.89 1.3 2.89 2.89c0 .41.34.75.75.75s.75-.34.75-.75c0-2.42-1.97-4.39-4.38-4.39S3.63 5.58 3.63 8c0 .41.34.75.75.75Zm6.3.41c-1.58 0-2.39.61-3.11 1.15-.63.48-1.13.85-2.21.85s-1.58-.37-2.21-.85C2.41 9.77 1.6 9.16.02 9.16v1.5c1.08 0 1.58.37 2.21.85.72.54 1.53 1.15 3.11 1.15s2.39-.61 3.11-1.15c.63-.48 1.13-.85 2.21-.85s1.58.37 2.21.85c.72.54 1.53 1.15 3.11 1.15v-1.5c-1.08 0-1.58-.37-2.21-.85-.72-.54-1.53-1.15-3.11-1.15m0 3.34c-1.58 0-2.39.61-3.11 1.15-.63.48-1.13.85-2.21.85s-1.58-.37-2.21-.85C2.41 13.11 1.6 12.5.02 12.5V14c1.08 0 1.58.37 2.21.85.72.54 1.53 1.15 3.11 1.15s2.39-.61 3.11-1.15c.63-.48 1.13-.85 2.21-.85s1.58.37 2.21.85c.72.54 1.53 1.15 3.11 1.15v-1.5c-1.08 0-1.58-.37-2.21-.85-.72-.54-1.53-1.15-3.11-1.15"/>
</svg>
