<svg viewBox="0 0 32 32" xmlns="http://www.w3.org/2000/svg">
  <path d="M15.02 3.98V1.02c0-.56.45-1.02 1-1.02s1 .45 1 1.02v2.96c0 .56-.45 1.02-1 1.02s-1-.45-1-1.02M6.75 8.29a.99.99 0 0 0 1.42 0c.39-.4.39-1.04 0-1.44l-2.06-2.1c-.39-.4-1.02-.4-1.41 0s-.39 1.04 0 1.44l2.06 2.1ZM1 17.28h2.91c.55 0 1-.45 1-1.02s-.45-1.02-1-1.02H1c-.55 0-1 .45-1 1.02s.45 1.02 1 1.02m26.08-.94c0 .56.45 1.02 1 1.02H31c.55 0 1-.45 1-1.02s-.45-1.02-1-1.02h-2.92c-.55 0-1 .45-1 1.02m-2.51-7.73c.26 0 .51-.1.71-.3l2.06-2.09c.39-.4.39-1.04 0-1.44s-1.02-.4-1.41 0l-2.06 2.09c-.39.4-.39 1.04 0 1.44.2.2.45.3.71.3ZM8.47 17.3h15.05c.55 0 1-.45 1-1.02 0-4.78-3.82-8.67-8.52-8.67s-8.52 3.89-8.52 8.67c0 .56.45 1.02 1 1.02Zm12.86 1.82c-3 0-4.56 1.19-5.93 2.24-1.29.98-2.4 1.83-4.73 1.83s-3.44-.85-4.73-1.83c-1.37-1.05-2.93-2.24-5.93-2.24v2.03c2.33 0 3.44.85 4.73 1.83 1.37 1.05 2.93 2.24 5.93 2.24s4.56-1.19 5.93-2.24c1.29-.98 2.4-1.83 4.74-1.83s3.45.85 4.73 1.83c1.37 1.05 2.93 2.24 5.93 2.24v-2.03c-2.33 0-3.45-.85-4.74-1.83-1.37-1.05-2.93-2.24-5.93-2.24m0 6.78c-3 0-4.56 1.19-5.93 2.24-1.29.98-2.4 1.83-4.73 1.83s-3.44-.85-4.73-1.83C4.57 27.09 3.01 25.9.01 25.9v2.03c2.33 0 3.44.85 4.73 1.83C6.11 30.81 7.67 32 10.67 32s4.56-1.19 5.93-2.24c1.29-.98 2.4-1.83 4.74-1.83s3.45.85 4.73 1.83C27.44 30.81 29 32 32 32v-2.03c-2.33 0-3.45-.85-4.74-1.83-1.37-1.05-2.93-2.24-5.93-2.24"/>
</svg>
