<svg viewBox="0 0 40 40" xmlns="http://www.w3.org/2000/svg">
  <path d="M18.9 4.69V1.11c0-.62.5-1.12 1.12-1.12s1.12.5 1.12 1.12v3.57c0 .62-.5 1.12-1.12 1.12s-1.12-.5-1.12-1.12ZM8.73 9.81c.22.22.51.33.8.33s.58-.11.8-.33c.44-.44.44-1.15 0-1.59L7.8 5.69c-.44-.44-1.15-.44-1.59 0s-.44 1.15 0 1.59l2.53 2.53ZM1.52 20.66H5.1c.62 0 1.12-.5 1.12-1.12s-.5-1.12-1.12-1.12H1.52c-.62 0-1.12.5-1.12 1.12s.5 1.12 1.12 1.12m32.31-1.06c0 .62.5 1.12 1.12 1.12h3.57c.62 0 1.12-.5 1.12-1.12s-.5-1.12-1.12-1.12h-3.57c-.62 0-1.12.5-1.12 1.12m-3.32-9.42c.29 0 .58-.11.8-.33l2.53-2.53c.44-.44.44-1.15 0-1.59s-1.15-.44-1.59 0l-2.53 2.53a1.123 1.123 0 0 0 .8 1.92ZM10.77 20.65c.62 0 1.12-.5 1.12-1.12 0-4.47 3.64-8.1 8.1-8.1s8.1 3.63 8.1 8.1c0 .62.5 1.12 1.12 1.12s1.12-.5 1.12-1.12c0-5.71-4.64-10.35-10.35-10.35S9.63 13.82 9.63 19.53c0 .62.5 1.12 1.12 1.12Zm23.19 4.36c-1.7-1.14-3.62-2.44-7.3-2.44s-5.6 1.3-7.3 2.44c-1.64 1.1-3.05 2.06-6.04 2.06s-4.4-.95-6.03-2.06c-1.7-1.14-3.62-2.44-7.29-2.44v2.25c2.99 0 4.4.95 6.03 2.06 1.7 1.14 3.62 2.44 7.29 2.44s5.6-1.3 7.3-2.44c1.64-1.1 3.05-2.06 6.04-2.06s4.4.95 6.04 2.06c1.7 1.14 3.62 2.44 7.3 2.44v-2.25c-2.99 0-4.4-.95-6.04-2.06m-7.3 2.89c-3.68 0-5.6 1.3-7.3 2.44-1.64 1.1-3.05 2.06-6.04 2.06s-4.4-.95-6.03-2.06C5.59 29.2 3.67 27.9 0 27.9v2.25c2.99 0 4.4.95 6.03 2.06 1.7 1.14 3.62 2.44 7.29 2.44s5.6-1.3 7.3-2.44c1.64-1.1 3.05-2.06 6.04-2.06s4.4.95 6.04 2.06c1.7 1.14 3.62 2.44 7.3 2.44V32.4c-2.99 0-4.4-.95-6.04-2.06-1.7-1.14-3.62-2.44-7.3-2.44m0 5.34c-3.68 0-5.6 1.3-7.3 2.44-1.64 1.1-3.05 2.06-6.04 2.06s-4.4-.95-6.03-2.06c-1.7-1.14-3.62-2.44-7.29-2.44v2.25c2.99 0 4.4.95 6.03 2.06 1.7 1.14 3.62 2.44 7.29 2.44s5.6-1.3 7.3-2.44c1.64-1.1 3.05-2.06 6.04-2.06s4.4.95 6.04 2.06c1.7 1.14 3.62 2.44 7.3 2.44v-2.25c-2.99 0-4.4-.95-6.04-2.06-1.7-1.14-3.62-2.44-7.3-2.44"/>
</svg>
