<svg viewBox="0 0 24 24" xmlns="http://www.w3.org/2000/svg">
  <path d="M11.14 2.92V.75c0-.49.39-.88.87-.88s.87.4.87.88v2.17c0 .49-.39.88-.87.88s-.87-.4-.87-.88M5.09 6.17c.17.17.4.26.62.26s.45-.09.62-.26c.34-.35.34-.91 0-1.25L4.81 3.39a.863.863 0 0 0-1.24 0c-.34.35-.34.91 0 1.25zm-4.2 6.61h2.15c.48 0 .87-.4.87-.88s-.39-.88-.87-.88H.89c-.48 0-.87.4-.87.88s.39.88.87.88m19.21-.82c0 .49.39.88.87.88h2.15c.48 0 .87-.4.87-.88s-.39-.88-.87-.88h-2.15c-.48 0-.87.4-.87.88m-1.8-5.51c.22 0 .45-.09.62-.26l1.52-1.53c.34-.35.34-.91 0-1.25a.863.863 0 0 0-1.24 0l-1.52 1.53c-.34.35-.34.91 0 1.25.17.17.4.26.62.26M6.46 12.8h11.08c.48 0 .87-.4.87-.88 0-3.57-2.88-6.48-6.41-6.48s-6.41 2.91-6.41 6.48c0 .49.39.88.87.88m14.06 2.9c-1.05-.79-2.23-1.69-4.53-1.69s-3.48.9-4.53 1.69c-.95.72-1.77 1.34-3.48 1.34s-2.53-.62-3.47-1.34c-1.05-.79-2.23-1.69-4.52-1.69v1.77c1.71 0 2.53.62 3.47 1.34 1.05.79 2.23 1.69 4.52 1.69s3.48-.9 4.52-1.69c.95-.72 1.77-1.34 3.48-1.34s2.53.62 3.48 1.34c1.05.79 2.23 1.69 4.52 1.69v-1.77c-1.71 0-2.53-.62-3.48-1.34ZM16 19.07c-2.29 0-3.48.9-4.53 1.69-.95.72-1.77 1.34-3.48 1.34s-2.53-.62-3.47-1.34c-1.05-.79-2.23-1.69-4.52-1.69v1.77c1.71 0 2.53.62 3.47 1.34 1.05.79 2.23 1.69 4.52 1.69s3.48-.9 4.52-1.69c.95-.72 1.77-1.34 3.48-1.34s2.53.62 3.48 1.34c1.05.79 2.23 1.69 4.52 1.69V22.1c-1.71 0-2.53-.62-3.48-1.34-1.05-.79-2.23-1.69-4.53-1.69Z"/>
</svg>
