<svg viewBox="0 0 64 64" xmlns="http://www.w3.org/2000/svg">
  <path fill="#1e1e1c" d="M63.97 32.02c0 .76-.62 1.38-1.38 1.38H50.18c-.18 2.33-.8 4.53-1.77 6.53l10.75 6.21c.66.38.88 1.22.5 1.88-.25.44-.72.69-1.19.69-.23 0-.47-.06-.69-.18l-10.75-6.2c-1.29 1.87-2.92 3.5-4.8 4.78l6.2 10.74c.38.66.15 1.5-.5 1.88-.22.13-.45.18-.69.18-.48 0-.94-.25-1.19-.69l-6.21-10.75c-2.01.96-4.21 1.57-6.54 1.74v12.41c0 .76-.62 1.38-1.38 1.38s-1.38-.62-1.38-1.38V50.21c-2.33-.18-4.53-.8-6.53-1.77L17.8 59.19c-.25.44-.72.69-1.19.69-.23 0-.47-.06-.69-.18-.66-.38-.88-1.22-.5-1.88l6.2-10.75c-1.87-1.29-3.5-2.92-4.78-4.8L6.1 48.47c-.22.13-.45.18-.69.18-.48 0-.94-.25-1.19-.69-.38-.66-.15-1.5.5-1.88l10.75-6.21c-.96-2.01-1.57-4.21-1.74-6.54H1.35c-.76 0-1.38-.62-1.38-1.38s.62-1.38 1.38-1.38h12.41c.18-2.33.8-4.53 1.77-6.53L4.78 17.83c-.66-.38-.88-1.22-.5-1.88s1.22-.88 1.88-.5l10.75 6.2c1.29-1.87 2.92-3.5 4.8-4.78l-6.2-10.74c-.38-.66-.15-1.5.5-1.88s1.5-.16 1.88.5l6.21 10.76c2.01-.96 4.21-1.57 6.54-1.74V1.35c0-.76.62-1.38 1.38-1.38s1.38.62 1.38 1.38v12.41c2.33.18 4.53.8 6.53 1.77l6.21-10.75c.38-.66 1.22-.88 1.88-.5s.88 1.22.5 1.88l-6.2 10.75c1.87 1.29 3.5 2.92 4.78 4.8l10.74-6.2c.66-.38 1.5-.16 1.88.5s.15 1.5-.5 1.88L48.46 24.1c.96 2.01 1.57 4.21 1.74 6.54h12.41c.76 0 1.38.62 1.38 1.38Z"/>
</svg>
