<svg viewBox="0 0 32 32" xmlns="http://www.w3.org/2000/svg">
  <path d="M15.02 3.89V.98c0-.55.45-1 1-1s1 .45 1 1v2.91c0 .55-.45 1-1 1s-1-.45-1-1M6.76 8.13c.2.2.45.29.71.29s.51-.1.71-.29a.996.996 0 0 0 0-1.41L6.12 4.66a.996.996 0 1 0-1.41 1.41l2.06 2.06Zm-1.85 7.83c0-.55-.45-1-1-1H1c-.55 0-1 .45-1 1s.45 1 1 1h2.91c.55 0 1-.45 1-1m1.82 7.85-2.06 2.06a.996.996 0 0 0 .71 1.7c.26 0 .51-.1.71-.29l2.06-2.06a.996.996 0 1 0-1.41-1.41Zm9.25 3.26c-.55 0-1 .45-1 1v2.91c0 .55.45 1 1 1s1-.45 1-1v-2.91c0-.55-.45-1-1-1m9.26-3.23a.996.996 0 1 0-1.41 1.41l2.06 2.06c.2.2.45.29.71.29s.51-.1.71-.29a.996.996 0 0 0 0-1.41l-2.06-2.06ZM31 15h-2.91c-.55 0-1 .45-1 1s.45 1 1 1H31c.55 0 1-.45 1-1s-.45-1-1-1m-6.44-6.55c.26 0 .51-.1.71-.29l2.06-2.06a.996.996 0 1 0-1.41-1.41l-2.06 2.06a.996.996 0 0 0 .71 1.7Zm.44 7.53c0 4.96-4.04 9-9 9s-9-4.04-9-9 4.04-9 9-9 9 4.04 9 9m-2 0c0-3.86-3.14-7-7-7s-7 3.14-7 7 3.14 7 7 7 7-3.14 7-7"/>
</svg>
