<svg viewBox="0 0 48 48" xmlns="http://www.w3.org/2000/svg">
  <path fill="#1e1e1c" d="M46.74 22.83h-9c-.14-1.61-.56-3.14-1.21-4.54l7.81-4.51c.6-.35.8-1.11.46-1.71-.35-.6-1.11-.8-1.71-.46l-7.8 4.51c-.91-1.29-2.03-2.41-3.31-3.33l4.51-7.81c.34-.6.14-1.36-.46-1.71-.6-.34-1.36-.14-1.71.46l-4.51 7.81c-1.4-.65-2.93-1.09-4.53-1.24v-9a1.25 1.25 0 0 0-2.5 0v9c-1.61.14-3.14.56-4.54 1.21L13.73 3.7c-.35-.6-1.11-.8-1.71-.46-.6.35-.8 1.11-.46 1.71l4.51 7.8c-1.29.91-2.41 2.03-3.33 3.31l-7.81-4.51c-.6-.34-1.36-.14-1.71.46-.34.6-.14 1.36.46 1.71l7.81 4.51c-.65 1.4-1.09 2.93-1.24 4.53H1.24a1.25 1.25 0 0 0 0 2.5h9c.14 1.61.56 3.14 1.21 4.54l-7.81 4.51c-.6.34-.8 1.11-.46 1.71.23.4.65.62 1.08.62.21 0 .43-.05.62-.17l7.8-4.51c.91 1.29 2.03 2.41 3.31 3.33l-4.51 7.81a1.257 1.257 0 0 0 1.08 1.88c.43 0 .85-.22 1.08-.62l4.51-7.8c1.4.65 2.93 1.09 4.53 1.24v9.01a1.25 1.25 0 0 0 2.5 0v-9c1.61-.14 3.14-.56 4.54-1.21l4.51 7.81c.23.4.65.62 1.08.62.21 0 .43-.05.62-.17.6-.34.8-1.11.46-1.71l-4.51-7.8c1.29-.91 2.42-2.03 3.33-3.32l7.81 4.51c.2.11.41.17.62.17a1.248 1.248 0 0 0 .62-2.33l-7.8-4.51c.65-1.4 1.09-2.93 1.24-4.53h9.01a1.25 1.25 0 0 0 0-2.5ZM23.99 35.36c-6.24 0-11.31-5.07-11.31-11.31s5.07-11.31 11.31-11.31S35.3 17.81 35.3 24.05s-5.07 11.31-11.31 11.31"/>
</svg>
