<svg viewBox="0 0 32 32" xmlns="http://www.w3.org/2000/svg">
  <path fill="#1e1e1c" d="M31.97 16c0 .55-.45 1-1 1h-5.78a9 9 0 0 1-.75 2.74l5 2.89c.48.28.64.89.37 1.37-.19.32-.52.5-.87.5-.17 0-.34-.04-.5-.13l-5.01-2.89a9.1 9.1 0 0 1-2.01 2l2.89 5.01a1.002 1.002 0 0 1-.87 1.5c-.35 0-.68-.18-.87-.5l-2.89-5.01c-.86.38-1.78.63-2.75.73v5.77c0 .55-.45 1-1 1s-1-.45-1-1V25.2a9 9 0 0 1-2.74-.75l-2.89 5c-.19.32-.52.5-.87.5-.17 0-.34-.04-.5-.13a1.01 1.01 0 0 1-.37-1.37l2.9-5.01a9.1 9.1 0 0 1-2-2.01l-5.01 2.89c-.16.09-.33.13-.5.13a1.002 1.002 0 0 1-.5-1.87l5.01-2.89c-.38-.86-.63-1.78-.73-2.75H.97c-.55 0-1-.45-1-1s.45-1 1-1h5.78c.11-.97.36-1.89.75-2.74l-5-2.89c-.48-.28-.64-.89-.37-1.37s.89-.64 1.37-.37l5.01 2.89a9.1 9.1 0 0 1 2.01-2L7.63 3.45c-.28-.48-.11-1.09.37-1.37s1.09-.11 1.37.37l2.89 5.01c.86-.38 1.78-.63 2.75-.73V.98c0-.55.45-1 1-1s1 .45 1 1v5.78c.97.11 1.89.36 2.74.75l2.89-5c.28-.48.89-.64 1.37-.37.48.28.64.89.37 1.37l-2.89 5.01a9.1 9.1 0 0 1 2 2.01l5.01-2.89c.48-.28 1.09-.11 1.37.37s.11 1.09-.37 1.37l-5.01 2.89c.38.86.63 1.78.73 2.75h5.77c.55 0 1 .45 1 1Z"/>
</svg>
