<svg viewBox="0 0 40 40" xmlns="http://www.w3.org/2000/svg">
  <path fill="#1e1e1c" d="M38.87 18.9h-7.38c-.12-1.29-.46-2.51-.97-3.64l6.41-3.7a1.126 1.126 0 1 0-1.13-1.95l-6.4 3.7c-.73-1.03-1.63-1.93-2.66-2.67l3.7-6.41a1.126 1.126 0 1 0-1.95-1.13l-3.7 6.4c-1.13-.52-2.35-.87-3.64-.99V1.13a1.129 1.129 0 1 0-2.26 0v7.38c-1.29.12-2.51.46-3.64.97l-3.7-6.41A1.126 1.126 0 1 0 9.6 4.2l3.7 6.4c-1.03.73-1.93 1.63-2.67 2.66l-6.41-3.7a1.126 1.126 0 1 0-1.13 1.95l6.4 3.7c-.52 1.13-.87 2.35-.99 3.64H1.12c-.62 0-1.12.5-1.12 1.12s.5 1.13 1.13 1.13h7.38c.12 1.29.46 2.51.97 3.64l-6.4 3.7a1.126 1.126 0 1 0 1.13 1.95l6.4-3.7c.73 1.03 1.63 1.93 2.66 2.67l-3.7 6.41a1.126 1.126 0 1 0 1.95 1.13l3.7-6.4c1.13.52 2.35.87 3.63.99v7.39c0 .62.5 1.13 1.13 1.13s1.13-.5 1.13-1.13V31.5c1.29-.12 2.51-.46 3.64-.97l3.7 6.41a1.13 1.13 0 0 0 1.54.41c.54-.31.72-1 .41-1.54l-3.7-6.4c1.03-.73 1.93-1.63 2.67-2.66l6.41 3.7a1.13 1.13 0 0 0 1.54-.41c.31-.54.13-1.23-.41-1.54l-6.4-3.7c.52-1.13.87-2.35.99-3.64h7.39c.62 0 1.13-.5 1.13-1.13s-.5-1.13-1.13-1.13ZM19.99 29.29c-5.12 0-9.29-4.17-9.29-9.29s4.17-9.29 9.29-9.29 9.29 4.17 9.29 9.29-4.17 9.29-9.29 9.29"/>
</svg>
