<svg viewBox="0 0 16 16" xmlns="http://www.w3.org/2000/svg">
  <path d="M7.26 2.16V.75c0-.41.34-.75.75-.75s.75.34.75.75v1.41c0 .41-.34.75-.75.75s-.75-.34-.75-.75M3.35 4.39c.15.15.34.22.53.22s.38-.07.53-.22c.29-.29.29-.77 0-1.06l-1-1c-.29-.29-.77-.29-1.06 0s-.29.77 0 1.06zm-.44 3.6c0-.41-.34-.75-.75-.75H.75c-.41 0-.75.34-.75.75s.34.75.75.75h1.41c.41 0 .75-.34.75-.75m.42 3.6-1 1c-.29.29-.29.77 0 1.06.15.15.34.22.53.22s.38-.07.53-.22l1-1c.29-.29.29-.77 0-1.06s-.77-.29-1.06 0m4.66 1.5c-.41 0-.75.34-.75.75v1.41c0 .41.34.75.75.75s.75-.34.75-.75v-1.41c0-.41-.34-.75-.75-.75m4.66-1.48c-.29-.29-.77-.29-1.06 0s-.29.77 0 1.06l1 1c.15.15.34.22.53.22s.38-.07.53-.22c.29-.29.29-.77 0-1.06zm2.6-4.35h-1.41c-.41 0-.75.34-.75.75s.34.75.75.75h1.41c.41 0 .75-.34.75-.75s-.34-.75-.75-.75m-3.11-2.64c.19 0 .38-.07.53-.22l1-1c.29-.29.29-.77 0-1.06s-.77-.29-1.06 0l-1 1c-.29.29-.29.77 0 1.06.15.15.34.22.53.22M8 3.62C5.58 3.62 3.62 5.59 3.62 8S5.59 12.38 8 12.38s4.38-1.97 4.38-4.38S10.41 3.62 8 3.62"/>
</svg>
