<svg viewBox="0 0 24 24" xmlns="http://www.w3.org/2000/svg">
  <path d="M11.14 3.03V.87a.87.87 0 0 1 1.74 0v2.16a.87.87 0 0 1-1.74 0M5.05 6.26c.17.17.39.26.62.26s.45-.08.62-.26a.87.87 0 0 0 0-1.23L4.76 3.5a.87.87 0 1 0-1.23 1.23l1.53 1.53ZM3.9 11.98a.87.87 0 0 0-.87-.87H.87a.87.87 0 0 0 0 1.74h2.16c.48 0 .87-.39.87-.87m1.13 5.73L3.5 19.24a.87.87 0 0 0 0 1.23c.17.17.39.26.62.26s.45-.08.62-.26l1.53-1.53a.87.87 0 1 0-1.23-1.23Zm6.95 2.39a.87.87 0 0 0-.87.87v2.16a.87.87 0 0 0 1.74 0v-2.16a.87.87 0 0 0-.87-.87m6.97-2.36a.87.87 0 1 0-1.23 1.23l1.53 1.53c.17.17.39.26.62.26s.45-.08.62-.26a.87.87 0 0 0 0-1.23l-1.53-1.53Zm4.18-6.6h-2.16a.87.87 0 0 0 0 1.74h2.16a.87.87 0 0 0 0-1.74m-4.78-4.6c.22 0 .45-.08.62-.26l1.53-1.53a.87.87 0 1 0-1.23-1.23l-1.53 1.53a.87.87 0 0 0 0 1.23c.17.17.39.26.62.26ZM18.6 12c0 3.64-2.96 6.6-6.6 6.6S5.4 15.64 5.4 12 8.36 5.4 12 5.4s6.6 2.96 6.6 6.6m-1.74 0c0-2.68-2.18-4.86-4.86-4.86S7.14 9.32 7.14 12s2.18 4.86 4.86 4.86 4.86-2.18 4.86-4.86"/>
</svg>
