<svg viewBox="0 0 64 64" xmlns="http://www.w3.org/2000/svg">
  <path d="M30.67 7.31V1.36c0-.76.61-1.37 1.37-1.37s1.37.61 1.37 1.37v5.95c0 .76-.61 1.37-1.37 1.37s-1.37-.61-1.37-1.37M13.6 15.48c.27.27.62.4.97.4s.7-.13.97-.4c.54-.54.54-1.41 0-1.94l-4.2-4.2c-.54-.54-1.41-.54-1.94 0-.54.54-.54 1.41 0 1.94zm-6.28 15.1H1.37c-.76 0-1.37.61-1.37 1.37s.61 1.37 1.37 1.37h5.95c.76 0 1.37-.61 1.37-1.37s-.61-1.37-1.37-1.37m6.22 17.86-4.2 4.2c-.54.54-.54 1.41 0 1.94.27.27.62.4.97.4s.7-.13.97-.4l4.2-4.2c.54-.54.54-1.41 0-1.94-.54-.54-1.41-.54-1.94 0m18.41 6.86c-.76 0-1.37.61-1.37 1.37v5.95c0 .76.61 1.37 1.37 1.37s1.37-.61 1.37-1.37v-5.95c0-.76-.61-1.37-1.37-1.37m18.44-6.8c-.54-.54-1.41-.54-1.94 0-.54.54-.54 1.41 0 1.94l4.2 4.2c.27.27.62.4.97.4s.7-.13.97-.4c.54-.54.54-1.41 0-1.94zm12.23-17.84h-5.95c-.76 0-1.37.61-1.37 1.37s.61 1.37 1.37 1.37h5.95c.76 0 1.37-.61 1.37-1.37s-.61-1.37-1.37-1.37M52.71 9.39l-4.21 4.2c-.54.54-.54 1.41 0 1.94.27.27.62.4.97.4s.7-.13.97-.4l4.21-4.2c.54-.54.54-1.41 0-1.94-.54-.54-1.41-.54-1.94 0M32 13.64c-10.12 0-18.35 8.23-18.35 18.35S21.88 50.34 32 50.34s18.35-8.23 18.35-18.35S42.12 13.64 32 13.64"/>
</svg>
