<svg viewBox="0 0 40 40" xmlns="http://www.w3.org/2000/svg">
  <path d="M18.9 4.79V1.12C18.9.5 19.4 0 20.02 0s1.12.5 1.12 1.12v3.67c0 .62-.5 1.12-1.12 1.12s-1.12-.5-1.12-1.12M8.47 10.02c.22.22.51.33.8.33s.58-.11.8-.33c.44-.44.44-1.15 0-1.59L7.48 5.84c-.44-.44-1.15-.44-1.59 0s-.44 1.15 0 1.59l2.59 2.59Zm-2.56 9.95c0-.62-.5-1.12-1.12-1.12H1.12c-.62 0-1.12.5-1.12 1.12s.5 1.12 1.12 1.12h3.66c.62 0 1.12-.5 1.12-1.12Zm2.52 9.97-2.59 2.59a1.123 1.123 0 0 0 .8 1.92c.29 0 .58-.11.8-.33l2.59-2.59c.44-.44.44-1.15 0-1.59s-1.15-.44-1.59 0Zm11.54 4.15c-.62 0-1.12.5-1.12 1.12v3.66c0 .62.5 1.12 1.12 1.12s1.12-.5 1.12-1.12v-3.66c0-.62-.5-1.12-1.12-1.12m11.56-4.11c-.44-.44-1.15-.44-1.59 0s-.44 1.15 0 1.59l2.59 2.59c.22.22.51.33.8.33s.58-.11.8-.33c.44-.44.44-1.15 0-1.59l-2.59-2.59Zm7.34-11.08h-3.66c-.62 0-1.12.5-1.12 1.12s.5 1.12 1.12 1.12h3.66c.62 0 1.12-.5 1.12-1.12s-.5-1.12-1.12-1.12m-8.1-8.51c.29 0 .58-.11.8-.33l2.59-2.59c.44-.44.44-1.15 0-1.59s-1.15-.44-1.59 0l-2.59 2.59a1.123 1.123 0 0 0 .8 1.92ZM20 8.88C13.87 8.88 8.88 13.87 8.88 20S13.87 31.12 20 31.12 31.12 26.13 31.12 20 26.13 8.88 20 8.88"/>
</svg>
