<svg viewBox="0 0 16 16" xmlns="http://www.w3.org/2000/svg">
  <path fill="#1e1e1c" d="M15.24 7.26h-2.57c-.05-.33-.13-.64-.25-.94l2.23-1.29c.36-.21.48-.67.27-1.02s-.66-.48-1.02-.27l-2.23 1.29c-.2-.25-.43-.48-.68-.69l1.29-2.24a.746.746 0 0 0-1.29-.75L9.71 3.57c-.3-.12-.61-.2-.94-.25V.75C8.75.34 8.42 0 8 0s-.75.34-.75.75v2.57c-.33.05-.64.13-.94.25L5.02 1.34A.74.74 0 0 0 4 1.07c-.36.21-.48.67-.27 1.02l1.29 2.23c-.25.2-.48.43-.69.68L2.09 3.71A.746.746 0 0 0 1.34 5l2.22 1.28c-.12.3-.2.61-.25.94H.74c-.41.02-.74.36-.74.77s.34.75.75.75h2.57c.05.33.13.64.25.94l-2.23 1.29c-.36.21-.48.67-.27 1.02.14.24.39.38.65.38.13 0 .26-.03.37-.1l2.23-1.29c.2.25.43.48.68.69l-1.29 2.24a.746.746 0 0 0 .64 1.12c.26 0 .51-.13.65-.38l1.28-2.22c.3.12.61.2.94.25v2.57c0 .41.34.75.75.75s.75-.34.75-.75v-2.57c.33-.05.64-.13.94-.25l1.29 2.23c.14.24.39.38.65.38.13 0 .26-.03.37-.1.36-.21.48-.67.27-1.02l-1.29-2.23c.25-.2.48-.43.69-.68l2.24 1.29c.12.07.25.1.37.1.26 0 .51-.13.65-.38.21-.36.08-.82-.27-1.02l-2.22-1.28c.12-.3.2-.61.25-.94h2.57c.41 0 .75-.34.75-.75s-.34-.75-.75-.75Zm-7.25 3.99C6.2 11.25 4.74 9.79 4.74 8S6.2 4.75 7.99 4.75 11.24 6.21 11.24 8s-1.46 3.25-3.25 3.25"/>
</svg>
