<svg viewBox="0 0 40 40" xmlns="http://www.w3.org/2000/svg">
  <path d="M18.9 4.82V1.15c0-.62.5-1.12 1.12-1.12s1.12.5 1.12 1.12v3.67c0 .62-.5 1.12-1.12 1.12s-1.12-.5-1.12-1.12M8.47 10.05a1.12 1.12 0 0 0 1.59 0c.44-.44.44-1.15 0-1.59L7.47 5.87c-.44-.44-1.15-.44-1.59 0s-.44 1.15 0 1.59zM5.91 20c0-.62-.5-1.12-1.12-1.12H1.12C.5 18.87 0 19.38 0 20s.5 1.12 1.12 1.12h3.66c.62 0 1.12-.5 1.12-1.12Zm2.52 9.97-2.59 2.59a1.123 1.123 0 0 0 .8 1.92c.29 0 .58-.11.8-.33l2.59-2.59c.44-.44.44-1.15 0-1.59s-1.15-.44-1.59 0Zm11.54 4.14c-.62 0-1.12.5-1.12 1.12v3.66c0 .62.5 1.12 1.12 1.12s1.12-.5 1.12-1.12v-3.66c0-.62-.5-1.12-1.12-1.12M31.53 30c-.44-.44-1.15-.44-1.59 0s-.44 1.15 0 1.59l2.59 2.59c.22.22.51.33.8.33s.58-.11.8-.33c.44-.44.44-1.15 0-1.59L31.54 30Zm7.34-11.07h-3.66c-.62 0-1.12.5-1.12 1.12s.5 1.12 1.12 1.12h3.66c.62 0 1.12-.5 1.12-1.12s-.5-1.12-1.12-1.12m-8.1-8.52c.29 0 .58-.11.8-.33l2.59-2.59c.44-.44.44-1.15 0-1.59s-1.15-.44-1.59 0l-2.59 2.59a1.123 1.123 0 0 0 .8 1.92Zm.35 9.62c0 6.13-4.99 11.12-11.12 11.12S8.88 26.16 8.88 20.03 13.87 8.91 20 8.91s11.12 4.99 11.12 11.12m-2.25 0c0-4.89-3.98-8.87-8.87-8.87s-8.87 3.98-8.87 8.87S15.11 28.9 20 28.9s8.87-3.98 8.87-8.87"/>
</svg>
