<svg viewBox="0 0 32 32" xmlns="http://www.w3.org/2000/svg">
  <path fill="#1e1e1c" d="M1.85 30h1.88v2H1.85zm3.77 2H7.5v-2H5.62zm7.53 0h1.88v-2h-1.88zm-3.76 0h1.88v-2H9.39zm7.53 0h1.88v-2h-1.88zm7.53 0h1.88v-2h-1.88zm-3.77 0h1.88v-2h-1.88zm7.53 0h1.88v-2h-1.88zm-7.52-20.9-5.09 5.09a.996.996 0 0 0 .71 1.7c.26 0 .51-.1.71-.29l5.09-5.09a.996.996 0 1 0-1.41-1.41Zm6.79-3.55A5.39 5.39 0 0 0 26 12.39l.13.69-9.71 9.71a7.9 7.9 0 0 1-5.63 2.33c-1.79 0-3.49-.59-4.88-1.67L29.35 0h-2.83L3.03 23.5l.71.71c1.88 1.88 4.39 2.92 7.05 2.92s5.17-1.04 7.05-2.92L28.3 13.75l-.33-1.73c-.21-1.11.14-2.25.93-3.05l3.11-3.11V3.03l-4.52 4.52Z"/>
</svg>
