<svg viewBox="0 0 40 40" xmlns="http://www.w3.org/2000/svg">
  <path fill="#1e1e1c" d="M5.22 37.7h1.74v2.24H5.22zm-3.48 2.25h1.74v-2.24H1.74zm10.44 0h1.74v-2.24h-1.74zm3.48 0h1.74v-2.24h-1.74zm3.47 0h1.74v-2.24h-1.74zm-10.43 0h1.74v-2.24H8.7zm27.83 0h1.74v-2.24h-1.74zm-6.96 0h1.74v-2.24h-1.74zm-6.96 0h1.74v-2.24h-1.74zm10.44 0h1.74v-2.24h-1.74zm-6.96 0h1.74v-2.24h-1.74zm-.19-26.08-6.38 6.36a1.123 1.123 0 0 0 .8 1.92c.29 0 .58-.11.8-.33l6.38-6.36c.44-.44.44-1.15 0-1.59s-1.15-.44-1.59 0Zm8.5-4.44a6.6 6.6 0 0 0-1.82 5.93l.18.93-12.21 12.18c-3.67 3.66-9.49 3.91-13.46.75L36.44-.05h-3.18L3.86 29.26l.79.79c2.41 2.4 5.57 3.6 8.74 3.6s6.33-1.2 8.74-3.6l13.05-13.02-.41-2.09c-.28-1.43.17-2.89 1.21-3.92l4.01-4V3.84l-5.6 5.59Z"/>
</svg>
