<svg viewBox="0 0 16 16" xmlns="http://www.w3.org/2000/svg">
  <path fill="#1e1e1c" d="M1.55 14.5H3V16H1.55zM7.33 16h1.45v-1.5H7.33zm-2.89 0h1.45v-1.5H4.44zm5.78 0h1.45v-1.5h-1.45zM11.5 4.29 8.95 6.84c-.29.29-.29.77 0 1.06.15.15.34.22.53.22s.38-.07.53-.22l2.55-2.55c.29-.29.29-.77 0-1.06s-.77-.29-1.06 0M16 3.08V.96l-1.33 1.33c-.69.7-1 1.69-.81 2.65l.04.21-4.78 4.78c-1.24 1.24-3.3 1.42-4.72.48L14.81 0h-2.12L2.23 10.46l.53.53c.99.99 2.31 1.54 3.71 1.54s2.72-.55 3.71-1.54l5.34-5.34-.19-1c-.09-.48.06-.96.4-1.31l.26-.26ZM13.12 16h1.45v-1.5h-1.45z"/>
</svg>
