<svg viewBox="0 0 40 40" xmlns="http://www.w3.org/2000/svg">
  <path d="M20 0C9.02 0 .09 8.97.09 20c0 1.84.27 3.62.74 5.32.05-.25.09-.51.15-.77.47-2.02 1.34-3.98 2.46-5.69H2.39c.15-2.4.78-4.66 1.79-6.71h6.3c-.06.27-.11.55-.16.83 2.6-1.22 5.52-1.84 8.73-1.84 3.18 0 5.82.62 7.18 1.01h.97c.03.11.05.23.07.34l.71.27.17.81c.06.31.93 4.74-.24 9.88-.15 1.53-.38 3.01-.7 4.38h-.81q-.54 1.14-1.26 2.25h1.45c-1.27 3.88-3.24 6.64-5.47 7.35V34.4c-.69.52-1.44.99-2.24 1.4v1.63c-.56-.18-1.1-.48-1.61-.9-1.99.78-4.16 1.22-6.26 1.22h-.17c2.75 1.44 5.86 2.26 9.16 2.26 10.98 0 19.91-8.97 19.91-20S30.98 0 20 0M5.49 9.9a17.78 17.78 0 0 1 8.98-6.75c-1.4 1.68-2.57 3.99-3.4 6.75zm13.39 0h-5.46c1.27-3.87 3.23-6.62 5.46-7.32zm18.74 8.96h-7.31c-.07-2.38-.33-4.64-.78-6.71h6.3c1.01 2.05 1.64 4.31 1.79 6.71M21.12 9.9V2.58c2.22.71 4.18 3.45 5.46 7.32zm4.41-6.75a17.78 17.78 0 0 1 8.98 6.75h-5.58c-.83-2.75-1.99-5.06-3.4-6.75m.01 33.7c1.41-1.69 2.57-4.01 3.4-6.77h5.6a17.77 17.77 0 0 1-9 6.77m3.99-9.03c.45-2.07.71-4.33.78-6.71h7.31c-.15 2.4-.77 4.66-1.78 6.71zm-18.6 8.42h.08c3.5 0 7.26-1.32 9.77-3.48 8.32-7.13 5.91-18.9 5.91-18.9s-3.16-1.18-7.36-1.23-.12 0-.12 0h-.32c-3.63.03-7.96.93-11.7 4.13-4.42 3.79-6.9 11.8-3.56 16.29a77 77 0 0 0-3.54 5.08 1.127 1.127 0 0 0 .94 1.73c.37 0 .73-.18.94-.52a74 74 0 0 1 3.27-4.71c1.57 1.09 3.58 1.59 5.69 1.6Zm-4.3-3.38c3.91-4.85 7.5-7.87 10.11-9.68.51-.35.64-1.05.29-1.56s-1.05-.64-1.56-.29c-2.7 1.87-6.39 4.97-10.39 9.88-.82-1.47-1-3.52-.47-5.8.62-2.68 2.17-5.33 4.03-6.93 2.77-2.37 6.26-3.58 10.36-3.59h.14c2.31.01 4.31.41 5.52.72.28 3 .34 10.57-5.34 15.45C17.24 32.85 13.97 34 11 34c-1.09 0-2.91-.18-4.37-1.14"/>
</svg>
