<svg viewBox="0 0 48 48" xmlns="http://www.w3.org/2000/svg">
  <path d="M24 0C10.83 0 .11 10.77.11 24c0 2.39.36 4.7 1.01 6.89.07-.44.15-.88.25-1.33.31-1.33.77-2.64 1.34-3.9-.01-.14-.04-.28-.05-.43h.24c.42-.88.9-1.71 1.43-2.51H2.67c.17-2.97.94-5.77 2.2-8.29h7.78c-.1.46-.19.94-.28 1.42.9-.43 1.83-.78 2.79-1.09.02-.11.04-.23.07-.33h1.04c2.06-.54 4.26-.82 6.58-.82 2.83 0 5.3.41 7.05.82h2.86c.07.29.13.6.19.9l.41.15.17.82c.06.31.8 4.09.21 8.93h.1a41 41 0 0 1-1.06 8.29h-1.45c-.42.85-.89 1.68-1.44 2.51h2.19c-1.57 4.86-4.04 8.31-6.83 9.11v-4.11c-.77.59-1.6 1.13-2.5 1.6v2.5c-.84-.24-1.65-.73-2.42-1.41-2.29.86-4.77 1.35-7.17 1.35-.2 0-.4-.01-.6-.02 3.4 1.87 7.3 2.93 11.44 2.93 13.18 0 23.89-10.77 23.89-24S37.18 0 24 0M13.3 11.93H6.31C9 7.97 12.97 4.95 17.62 3.49c-1.79 2.05-3.28 4.96-4.32 8.44m9.45 0h-6.82c1.57-4.84 4.03-8.28 6.82-9.08zm22.58 10.8h-9c-.08-2.95-.42-5.74-.98-8.29h7.78c1.26 2.52 2.02 5.33 2.2 8.29m-20.08-10.8V2.85c2.79.8 5.25 4.24 6.82 9.08zm5.13-8.44c4.65 1.46 8.62 4.48 11.31 8.44H34.7c-1.04-3.49-2.53-6.39-4.32-8.44m0 41.02c1.8-2.06 3.29-4.98 4.33-8.48h7.01a21.5 21.5 0 0 1-11.34 8.48m4.98-10.98c.56-2.55.9-5.34.98-8.29h9c-.17 2.96-.93 5.77-2.18 8.29h-7.79Zm-22.2 10.05c4.21 0 8.75-1.6 11.78-4.19 10.03-8.6 7.12-22.77 7.12-22.77s-3.62-1.35-8.5-1.47-.48 0-.48 0h-.23c-4.42 0-9.74 1.06-14.3 4.98C3.21 24.69.21 34.42 4.33 39.82c-1.4 1.84-2.82 3.86-4.24 6.09a1.257 1.257 0 0 0 1.05 1.93c.41 0 .81-.2 1.05-.58 1.32-2.08 2.64-3.96 3.94-5.69 1.93 1.37 4.41 2 7.03 2Zm-7.9-13.11c.76-3.27 2.65-6.51 4.92-8.46 3.34-2.87 7.55-4.33 12.49-4.37s.66 0 .66 0c2.74.05 5.09.53 6.48.9.36 3.56.52 12.92-6.49 18.93-2.55 2.18-6.53 3.59-10.16 3.59-2.21 0-4.1-.51-5.49-1.46 4.77-5.95 9.16-9.66 12.35-11.86.57-.39.71-1.17.32-1.74s-1.17-.72-1.74-.32c-3.28 2.27-7.79 6.06-12.67 12.09-1.1-1.83-1.35-4.43-.68-7.31Z"/>
</svg>
