<svg viewBox="0 0 40 40" xmlns="http://www.w3.org/2000/svg">
  <path d="M28.47 27.9h-.42c.3-.7.56-1.39.78-2.09-.1.71-.22 1.41-.36 2.09M.52 21.12h-.4c.02.31.02.62.05.93q.165-.465.36-.93ZM37.18 9.8c-2.5-4.29-6.5-7.59-11.28-9.09C27.77 2.86 29.29 6 30.26 9.8zm-9.27 0C26.46 4.6 23.97.85 21.12.06v9.57c.58.05 1.13.11 1.66.18h5.13Zm3.56 9.05h8.41c-.13-2.39-.66-4.68-1.55-6.77h-7.57c.4 2.12.64 4.39.7 6.77Zm0 2.27c-.06 2.38-.3 4.66-.7 6.78h7.58c.88-2.1 1.4-4.39 1.54-6.78h-8.41ZM5.23 14.43c1.06-.92 2.22-1.69 3.44-2.36h-7C.78 14.17.26 16.45.12 18.84h1.52c.98-1.69 2.2-3.21 3.59-4.42ZM14.1.72C9.32 2.22 5.31 5.51 2.82 9.8h6.92C10.72 6 12.23 2.86 14.1.71Zm11.8 38.56c4.79-1.51 8.8-4.81 11.3-9.12h-6.93c-.98 3.81-2.5 6.97-4.37 9.12m1.01-9.11c-1.04 1.77-2.4 3.48-4.18 5.02-.49.43-1.04.82-1.6 1.19v3.57c2.86-.79 5.35-4.56 6.8-9.78h-1.01Zm-13.1 9.01c.09.03.18.07.28.1-.04-.04-.08-.08-.11-.12-.05 0-.11.01-.16.02ZM15.56 9.8c1.08-.16 2.18-.25 3.32-.26V.06c-2.85.79-5.34 4.54-6.79 9.75h3.47Zm3.32 30.14v-2.31c-.77.36-1.57.65-2.39.91.75.7 1.56 1.17 2.39 1.4m1.9-7.06c-2.52 2.18-6.29 3.51-9.79 3.51h-.08c-2.11-.01-4.12-.52-5.69-1.62a72 72 0 0 0-3.27 4.76 1.11 1.11 0 0 1-1.55.34 1.15 1.15 0 0 1-.34-1.57c1.19-1.88 2.37-3.58 3.54-5.13-3.35-4.54-.86-12.62 3.56-16.45 3.74-3.23 8.07-4.14 11.71-4.16s.17 0 .17 0h.6c4.04.12 7.05 1.24 7.05 1.24s1.47 7.25-1.86 13.85c-.04.08-.08.16-.13.23-.92 1.77-2.19 3.48-3.94 4.99Zm3.89-17.31c-1.15-.3-3.01-.67-5.18-.72h-.62c-4.06.03-7.51 1.25-10.26 3.62-3.45 2.98-5.57 9.28-3.57 12.85 4.01-4.97 7.71-8.1 10.41-9.98.51-.35 1.21-.23 1.56.29s.22 1.22-.29 1.58c-2.62 1.82-6.21 4.88-10.13 9.77 1.46.97 3.28 1.15 4.38 1.15 2.97 0 6.24-1.17 8.33-2.97 5.69-4.92 5.63-12.56 5.35-15.59Z"/>
</svg>
