<svg viewBox="0 0 32 32" xmlns="http://www.w3.org/2000/svg">
  <path d="M.2 18.14C.15 17.76.12 17.38.09 17h.52c-.15.37-.29.76-.41 1.14m4.14-6.48c.84-.73 1.76-1.35 2.73-1.87h-5.8C.61 11.4.21 13.14.1 14.97h1.53c.75-1.27 1.67-2.41 2.72-3.31Zm20.92 3.31h6.64c-.11-1.83-.51-3.58-1.17-5.19h-6c.3 1.63.48 3.37.53 5.19m4.46-7.22c-1.97-3.37-5.09-5.96-8.81-7.18 1.45 1.73 2.62 4.21 3.39 7.18zm-6.7 12.41c-.19.67-.43 1.35-.72 2.03h.4c.13-.66.23-1.34.32-2.03M25.26 17c-.05 1.82-.23 3.56-.53 5.19h6c.66-1.61 1.05-3.36 1.16-5.19h-6.64ZM11.1.57C7.37 1.8 4.25 4.39 2.29 7.75h5.42C8.48 4.77 9.65 2.29 11.1.57m10.17 23.65c-.8 1.34-1.84 2.63-3.19 3.8-.34.29-.7.57-1.08.82v3.04c2.19-.7 4.09-3.62 5.22-7.66zm-.37 7.21c3.74-1.23 6.86-3.83 8.83-7.21H24.3c-.77 2.99-1.94 5.48-3.39 7.21ZM15 7.75V.12c-2.18.69-4.09 3.6-5.21 7.63zm2-7.63v7.63h5.21C21.09 3.72 19.18.81 17 .12m-2 31.76v-1.9c-.61.28-1.24.51-1.88.71.59.58 1.23.98 1.88 1.19m1.62-5.6c-2 1.74-5 2.8-7.78 2.8-1.66 0-3.25-.38-4.5-1.23-.85 1.15-1.72 2.41-2.6 3.79-.19.3-.51.47-.84.47-.18 0-.37-.05-.54-.16-.46-.3-.6-.93-.3-1.4.95-1.51 1.9-2.88 2.84-4.13-2.18-3.09-1.08-8.15 1.44-11.46.21-.28.43-.55.67-.8.01-.02.03-.03.04-.05.24-.26.49-.51.75-.73 3.02-2.62 6.53-3.33 9.45-3.33 3.45 0 6.08.99 6.08.99s1.5 7.46-2.8 13.16c-.54.72-1.16 1.42-1.91 2.06Zm2.9-13.65c-.97-.24-2.51-.54-4.27-.54-3.24 0-5.98.96-8.15 2.84-2.62 2.27-4.26 7.02-2.88 9.8 3.13-3.85 6-6.29 8.12-7.77a.99.99 0 0 1 1.39.26c.31.46.2 1.09-.26 1.41-2.04 1.43-4.84 3.81-7.88 7.6 1.1.68 2.44.81 3.26.81 2.32 0 4.86-.91 6.48-2.32 4.36-3.78 4.4-9.63 4.19-12.11Z"/>
</svg>
