<svg viewBox="0 0 16 16" xmlns="http://www.w3.org/2000/svg">
  <path fill="#1e1e1c" d="M16 7.89c0 1.65-1.34 3-3 3s-2.4-1.22-2.4-1.22 2.46.14 2.46-1.78-2.46-1.78-2.46-1.78.7-1.22 2.4-1.22 3 1.34 3 3M9.87 1.7a.74.74 0 0 0-1.02-.27l-.64.37c-.15-.12-.32-.22-.5-.3V.76C7.7.35 7.36 0 6.95 0S6.2.34 6.2.75v.74c-.18.07-.35.18-.5.3l-.64-.37c-.36-.21-.82-.08-1.02.27s-.08.82.27 1.02l.64.37c-.01.1-.03.19-.03.29s.02.2.03.29l-.64.37c-.36.21-.48.67-.27 1.02.14.24.39.38.65.38.13 0 .26-.03.37-.1l.64-.37c.15.12.32.22.5.3V6c0 .41.34.75.75.75s.75-.34.75-.75v-.74c.18-.07.35-.18.5-.3l.64.37c.12.07.25.1.37.1.26 0 .51-.13.65-.38.21-.36.08-.82-.27-1.02l-.64-.37c.01-.1.03-.19.03-.29s-.02-.2-.03-.29l.64-.37c.36-.21.48-.67.27-1.02ZM3.97 13c-.13 0-.25.02-.36.05-.03 0-.06.02-.09.03q-.15.045-.27.12c-.02 0-.03.02-.05.03-.22.13-.39.31-.52.53s-.21.48-.21.75c0 .83.68 1.5 1.5 1.5s1.5-.68 1.5-1.5S4.79 13 3.97 13M7.8 7.97a2 2 0 0 1 .59 1.46v4.05c-.01.77-.64 1.4-1.41 1.4h-.69c.02-.12.04-.24.04-.37 0-1.3-1.06-2.37-2.36-2.37-.48 0-.92.15-1.3.39V7.36h3.68c.55 0 1.06.21 1.44.6Zm-.34 1.32c0-.56-.51-1.01-1.14-1.01H5.16v2.23c0 .17.15.31.34.31h1.95V9.3ZM.01 5.88v8.99h1.63c-.02-.12-.04-.24-.04-.37 0-.43.13-.84.33-1.19V5.13H.01z"/>
</svg>
