<svg viewBox="0 0 64 64" xmlns="http://www.w3.org/2000/svg">
  <path fill="#1e1e1c" d="M28.54 31.76H12.99v-9.03H.01v2.75h10.23v30.57H.01v2.75h10.23v.03h2.37c.9 2.98 3.66 5.16 6.92 5.16s6.02-2.18 6.92-5.16h4.43c2.19 0 3.97-1.79 3.97-3.99V43.96l.06-5.54q0-.69-.12-1.35c-.23-2.97-2.94-5.32-6.25-5.32Zm-.19 2.76c1.02 0 1.98.4 2.7 1.13.52.52.86 1.17 1.01 1.87v5.16h-8.03s-.08-.01-.11-.02v-8.15h4.43Zm-8.81 26.73c-2.47 0-4.48-2.03-4.48-4.52s2.01-4.52 4.48-4.52 4.48 2.03 4.48 4.52-2.01 4.52-4.48 4.52m11.34-5.16h-4.14c-.32-3.71-3.43-6.64-7.2-6.64-2.89 0-5.38 1.72-6.54 4.19V34.52h8.18v8.23c0 1.49 1.28 2.69 2.86 2.69h8.07v9.42c0 .68-.55 1.23-1.22 1.23Zm21.26-37.1c-6.68 0-9.49 4.77-9.61 4.97-.25.44-.24.98.02 1.41s.73.67 1.25.65c.04 0 3.92-.18 5.95 1.74.82.77 1.21 1.79 1.21 3.11s-.4 2.33-1.21 3.11c-2.03 1.93-5.91 1.75-5.95 1.74-.53-.02-1 .23-1.26.67s-.26.99 0 1.43c.12.2 3.1 4.94 9.59 4.94S64 37.43 64 30.88 58.67 19 52.13 19Zm0 21.01c-2.45 0-4.23-.87-5.42-1.75 1.59-.29 3.49-.91 4.92-2.26 1.38-1.3 2.08-3.03 2.08-5.12s-.7-3.81-2.08-5.12c-1.44-1.36-3.36-1.99-4.97-2.27 1.16-.88 2.95-1.74 5.47-1.74 5.03 0 9.12 4.1 9.12 9.13S57.17 40 52.14 40M39.07 16.07l-3.13-1.81c.25-.72.39-1.49.39-2.29s-.14-1.57-.39-2.29l3.13-1.81c.66-.38.88-1.22.5-1.88s-1.22-.88-1.88-.5L34.55 7.3A7.07 7.07 0 0 0 30.59 5V1.38C30.6.62 29.98 0 29.22 0s-1.38.62-1.38 1.38V5a7.07 7.07 0 0 0-3.96 2.3l-3.14-1.81c-.66-.38-1.5-.16-1.88.5s-.15 1.5.5 1.88l3.13 1.81c-.25.72-.39 1.49-.39 2.29s.14 1.57.39 2.29l-3.13 1.81c-.66.38-.88 1.22-.5 1.88.26.44.72.69 1.19.69.23 0 .47-.06.69-.18l3.14-1.81a7.07 7.07 0 0 0 3.96 2.3v3.62c0 .76.62 1.38 1.38 1.38s1.38-.62 1.38-1.38v-3.62a7.07 7.07 0 0 0 3.96-2.3l3.14 1.81c.22.13.45.18.69.18.47 0 .94-.25 1.19-.69.38-.66.16-1.5-.5-1.88Zm-9.85.25c-2.4 0-4.35-1.95-4.35-4.35s1.95-4.35 4.35-4.35 4.35 1.95 4.35 4.35-1.95 4.35-4.35 4.35"/>
</svg>
