<svg viewBox="0 0 32 32" xmlns="http://www.w3.org/2000/svg">
  <path fill="#1e1e1c" d="M32.01 15.75c0 3.31-2.68 5.99-5.99 5.99s-4.8-2.44-4.8-2.44 4.91.28 4.91-3.55-4.91-3.55-4.91-3.55 1.4-2.44 4.8-2.44 5.99 2.68 5.99 5.99M19.75 3.37c-.41-.72-1.33-.96-2.05-.55l-1.29.74c-.31-.24-.64-.45-1.01-.59V1.5c.01-.83-.67-1.5-1.49-1.5s-1.5.67-1.5 1.5v1.47c-.37.15-.7.35-1.01.59l-1.29-.74a1.501 1.501 0 0 0-1.5 2.6l1.29.74c-.03.19-.06.38-.06.58s.03.39.06.58l-1.29.74a1.501 1.501 0 0 0 1.5 2.6l1.29-.74c.31.24.64.45 1.01.59v1.47c0 .83.67 1.5 1.5 1.5s1.5-.67 1.5-1.5v-1.47c.37-.15.7-.35 1.01-.59l1.29.74a1.502 1.502 0 0 0 1.5-2.6l-1.29-.74c.03-.19.06-.38.06-.58s-.03-.39-.06-.58l1.29-.74c.72-.41.96-1.33.55-2.05ZM7.96 25.98c-1.66 0-3.01 1.35-3.01 3.01S6.3 32 7.96 32s3.01-1.35 3.01-3.01-1.35-3.01-3.01-3.01m7.65-10.07a4.08 4.08 0 0 1 1.18 2.92l-.03 2.74v5.37c0 1.54-1.25 2.79-2.78 2.79h-1.37c.04-.24.08-.49.08-.74 0-2.61-2.12-4.73-4.73-4.73-.96 0-1.84.29-2.59.78V14.7h7.36c1.09 0 2.12.43 2.89 1.21Zm-.67 2.65c0-1.11-1.02-2.02-2.27-2.02h-2.31v4.45c0 .34.31.61.69.61h3.89v-3.05ZM0 13.24v16.47h3.3c-.04-.24-.07-.48-.07-.73 0-.83.24-1.61.62-2.29V10.24H0z"/>
</svg>
