<svg viewBox="0 0 24 24" xmlns="http://www.w3.org/2000/svg">
  <path fill="#1e1e1c" d="M10.58 11.3H5.17V7.95H-.01V9.7h3.43v10.61H-.01v1.75h3.43l.99.01c.45 1.12 1.55 1.91 2.82 1.91s2.37-.79 2.82-1.91h1.39c1.01 0 1.84-.83 1.84-1.84l.02-6.09c0-.21-.02-.42-.07-.62-.14-1.25-1.28-2.23-2.66-2.23Zm-.07 1.75c.28 0 .54.11.74.31.15.15.23.35.27.56v1.43H9.6v-2.3h.9Zm-3.27 9.19c-.72 0-1.3-.59-1.3-1.31s.58-1.31 1.3-1.31 1.3.59 1.3 1.31-.58 1.31-1.3 1.31m4.21-1.91h-1.22a3.056 3.056 0 0 0-2.99-2.46c-.8 0-1.52.32-2.06.82v-5.63h2.68v2.69c0 .75.64 1.36 1.43 1.36h2.27v3.13c-.01.05-.05.09-.1.09ZM19.2 7.05c-2.69 0-3.84 1.95-3.89 2.03-.16.28-.15.62.01.89s.49.42.79.42c.37-.02 1.42.05 1.95.55.23.22.34.5.34.89s-.11.67-.34.89c-.53.5-1.59.57-1.94.55a.85.85 0 0 0-.8.43c-.17.28-.17.63 0 .91.05.08 1.26 2.01 3.88 2.01s4.78-2.15 4.78-4.79-2.15-4.78-4.78-4.78m0 7.82c-.4 0-.75-.07-1.05-.18.39-.15.78-.37 1.11-.69.58-.55.89-1.3.89-2.17s-.31-1.62-.89-2.17c-.34-.32-.73-.54-1.12-.69.3-.1.65-.17 1.06-.17 1.67 0 3.03 1.36 3.03 3.03s-1.36 3.03-3.03 3.03ZM14.83 2.4a.88.88 0 0 0-1.2-.32l-.93.54c-.33-.31-.73-.53-1.17-.67V.87c.01-.48-.38-.87-.86-.87s-.88.39-.88.88v1.08c-.44.14-.84.36-1.17.67l-.93-.54a.88.88 0 0 0-1.2.32c-.24.42-.1.95.32 1.2l.92.53c-.05.22-.08.44-.08.68s.03.46.08.68l-.92.53a.88.88 0 0 0 .44 1.64c.15 0 .3-.04.44-.12l.93-.54c.33.31.73.53 1.17.67v1.08c0 .48.39.88.88.88s.88-.39.88-.88V7.68c.44-.14.84-.36 1.17-.67l.93.54c.14.08.29.12.44.12.3 0 .6-.16.76-.44.24-.42.1-.95-.32-1.2l-.92-.53c.05-.22.08-.44.08-.68s-.03-.46-.08-.68l.92-.53a.88.88 0 0 0 .32-1.2Zm-4.16 3.67a1.261 1.261 0 1 1 .002-2.522 1.261 1.261 0 0 1-.002 2.522"/>
</svg>
