<svg viewBox="0 0 32 32" xmlns="http://www.w3.org/2000/svg">
  <path fill="#1e1e1c" d="M14.11 15.43H6.74v-4.46H-.01v2h4.75v14.47H-.01v2h4.75l1.28.01C6.57 30.94 7.99 32 9.66 32s3.09-1.07 3.64-2.55h1.97c1.26 0 2.28-1.03 2.28-2.29v-5.37l.03-2.74c0-.27-.03-.53-.09-.79-.18-1.58-1.62-2.83-3.39-2.83Zm-.09 2c.42 0 .81.17 1.11.46.21.21.34.46.41.74v2.19h-3.39v-3.4h1.87ZM9.66 30c-1.05 0-1.9-.86-1.9-1.92s.85-1.91 1.9-1.91 1.9.86 1.9 1.91S10.71 30 9.66 30m5.61-2.55h-1.78c-.3-1.86-1.9-3.28-3.84-3.28-1.17 0-2.2.53-2.92 1.34v-8.09h3.41v3.75c0 .91.78 1.65 1.73 1.65h3.69l-.02 4.34c0 .16-.13.29-.28.29ZM25.78 9.41c-3.5 0-4.98 2.52-5.04 2.62-.18.32-.17.71.02 1.02s.52.48.9.48c.5-.03 1.97.07 2.72.78.34.32.5.75.5 1.31s-.16.99-.5 1.31c-.75.71-2.23.8-2.72.78-.39-.02-.72.17-.92.49-.19.32-.19.72 0 1.04.06.11 1.63 2.6 5.03 2.6s6.21-2.79 6.21-6.21-2.79-6.21-6.21-6.21Zm0 10.42c-.76 0-1.37-.18-1.87-.42.63-.19 1.29-.51 1.83-1.02.74-.7 1.13-1.66 1.13-2.77s-.39-2.07-1.13-2.77c-.55-.52-1.22-.84-1.86-1.03.49-.24 1.11-.41 1.89-.41 2.32 0 4.21 1.89 4.21 4.21s-1.89 4.21-4.21 4.21Zm-5.97-16.7a1.01 1.01 0 0 0-1.37-.37l-1.34.77c-.47-.46-1.06-.8-1.71-.97V1c0-.55-.44-1-1-1s-1 .45-1 1v1.56c-.65.18-1.24.51-1.71.97l-1.34-.77c-.48-.28-1.09-.11-1.37.37s-.11 1.09.37 1.37l1.35.78c-.08.31-.14.64-.14.98s.06.67.14.98l-1.35.78c-.48.28-.64.89-.37 1.37.19.32.52.5.87.5.17 0 .34-.04.5-.13l1.34-.77c.47.46 1.06.8 1.71.97v1.56c0 .55.45 1 1 1s1-.45 1-1V9.96c.65-.18 1.24-.51 1.71-.97l1.34.77c.16.09.33.13.5.13a1.002 1.002 0 0 0 .5-1.87l-1.35-.78c.08-.31.14-.64.14-.98s-.06-.67-.14-.98l1.35-.78c.48-.28.64-.89.37-1.37m-5.42 4.96c-1.02 0-1.84-.83-1.84-1.84s.83-1.84 1.84-1.84 1.84.83 1.84 1.84-.83 1.84-1.84 1.84"/>
</svg>
