<svg viewBox="0 0 16 16" xmlns="http://www.w3.org/2000/svg">
  <path fill="#1e1e1c" d="M6.38 7.36H2.94V5.13H-.01v1.5h1.45v6.74H-.01v1.5h2.25c.38.67 1.09 1.13 1.91 1.13s1.53-.46 1.91-1.13h.9c.77 0 1.39-.63 1.39-1.4l.02-4.06c0-.15-.02-.3-.05-.45-.11-.91-.93-1.62-1.94-1.62Zm-.05 1.5c.14 0 .28.06.38.16.07.07.11.16.13.26v.79H5.9v-1.2h.43Zm-2.18 5.65c-.39 0-.7-.32-.7-.71s.31-.71.7-.71.7.32.7.71-.31.71-.7.71m2.16-1.13a2.21 2.21 0 0 0-2.16-1.79c-.45 0-.86.14-1.21.37V8.87h1.45v1.63c0 .59.5 1.08 1.12 1.08h1.34v1.81H6.3Zm6.3-8.85c-1.89 0-2.71 1.38-2.74 1.44a.74.74 0 0 0 .01.76c.14.23.41.39.68.36.21-.02.87.03 1.18.32.08.08.17.2.17.47s-.09.4-.17.47c-.31.29-.97.33-1.17.32a.77.77 0 0 0-.69.36c-.14.24-.14.54 0 .78.04.06.89 1.42 2.73 1.42s3.36-1.51 3.36-3.36-1.5-3.36-3.36-3.36Zm0 5.21c-.07 0-.14 0-.21-.01.13-.08.25-.17.36-.28.42-.4.64-.94.64-1.57s-.22-1.17-.64-1.57a2 2 0 0 0-.37-.28h.21c1.02 0 1.85.83 1.85 1.85s-.83 1.86-1.85 1.86ZM9.57 4.05l-.51-.3c.02-.12.04-.24.04-.36s-.02-.25-.04-.37l.51-.3a.752.752 0 1 0-.76-1.3l-.52.3c-.19-.16-.4-.28-.63-.37v-.6C7.67.34 7.34 0 6.92 0s-.75.34-.75.75v.6c-.23.09-.44.21-.63.37l-.52-.3a.752.752 0 1 0-.76 1.3l.51.3c-.02.12-.04.24-.04.37s.02.25.04.37l-.51.3c-.36.21-.48.67-.27 1.03.14.24.39.38.65.38.13 0 .26-.03.37-.1l.52-.3c.19.16.4.28.63.37v.6c0 .41.34.75.75.75s.75-.34.75-.75v-.6c.23-.09.44-.21.63-.37l.52.3c.12.07.25.1.37.1.26 0 .51-.13.65-.38.21-.36.09-.82-.27-1.03Zm-3.32-.67a.67.67 0 1 1 1.34 0 .67.67 0 0 1-1.34 0"/>
</svg>
