<svg viewBox="0 0 40 40" xmlns="http://www.w3.org/2000/svg">
  <path d="m22.44 6.62.46.48.53.56.76.11 2.38.36 3.5 1.27-.39 2.07-.17.88.48.75.71 1.12.58.91 1.08.12 2.42.26.27.03.27-.04 2.17-.29-.72 2.85-.18.7.26.67.65 1.67-.5.84-1.36-.11-2.33-.19-.09 2.34-.08 1.98-.04.19-.15.64.06.16-.42-.4-1.05.11-.92.1-.13-.38-.44-1.28-1.34-.21-.28-.04-2.16-.34-.41 2.15-.84 4.46-1.17.06-1.97-4.95-.86-2.16-2.13.93-1.19.52-1.43.63.09 1.56.12 2.19-1.66 1.55H9.38l-.53-3.86-.25-1.81-1.82-.13-2.67-.19-1.44-.1-.39.71v-3.08l.83-.38.72-.33.36-.7.36-.7.29-.58-.06-.65-.21-2.24 1.91-1.68.39-.34.2-.48 2.06-4.89 1.94-1.03 2.31.85.41.15.44-.02 5.01-.17.74-.02 1.7-.05.41-1.65.36-1.44.03-.02m.32-2.88-2.36 1.47-.58 2.32-.74.02-5.01.17-3.25-1.19-3.54 1.88-2.37 5.63-2.78 2.43.32 3.38-.36.7-2.13.99v7.9l2.79.32 1.13-2.07 2.67.19.8 5.8h8.29l3.08-2.87-.18-3.24 1.19-.52 2.57 6.45 4.86-.26v-1.62l.86-4.56.28.04.71 2.08 2.71-.29 1.29 1.25 2.6-1.35v-1.08l-.38-1.06.09-.4.09-2.19 2.75.22 1.79-2.98-1.05-2.7 1.05-4.18-1.75-1.6-3.24.44-2.42-.26-.71-1.12.75-3.95-5.51-2-2.6-.39-1.72-1.81Z"/>
</svg>
