<svg viewBox="0 0 32 32" xmlns="http://www.w3.org/2000/svg">
  <path d="m18.24 5.68.13.14.47.5.68.1 1.88.28 2.62.95-.28 1.49-.15.78.43.67.57.9.51.8.94.11 1.73.21.33.04.32-.07 1.34-.29-.57 2.8-.12.61.25.57.44 1.02-.26.43-.76-.07-2.07-.18-.11 2.07-.06 1.18-.03.15-.05.24-.09-.08-.93.1-.58.06-.05-.15-.39-1.14-1.19-.19-.22-.04-1.82-.29-.44 1.79-.86 3.52-.65.03-1.53-3.83-.76-1.92-1.89.83-.96.42-1.27.56.08 1.39.09 1.66-1.2 1.12h-4.1l-.4-2.91-.22-1.61-1.62-.12-2.14-.15L2 20.07v-1.55l.55-.25.64-.29.32-.62.28-.56.26-.52-.05-.57-.16-1.69 1.45-1.27.35-.3.18-.43 1.62-3.85 1.41-.75 1.76.65.37.13h.39l4.21-.15.59-.02 1.51-.05.37-1.47.21-.83m.18-2.69-1.89 1.18-.46 1.85-.59.02-4.21.14-2.6-.95-2.83 1.5-1.9 4.51-2.22 1.95.25 2.71-.28.56-1.71.77v6.32l2.23.26.9-1.66 2.14.15.64 4.64h6.63L15 24.65l-.14-2.59.96-.42 2.06 5.16 3.89-.21v-1.3l.89-3.65.22.04.57 1.66 2.17-.23 1.03 1 2.08-1.08v-.86l-.3-.84.07-.32.07-1.35 2 .18L32 17.46l-.84-1.96.84-4.15-1.4-1.28-2.59.55-1.73-.21-.57-.9.6-3.16-4.41-1.6-2.08-.31z"/>
</svg>
