<svg viewBox="0 0 16 16" xmlns="http://www.w3.org/2000/svg">
  <path d="m15.58 11.48.42.46-.72 1.3-1-.56h-.03l-.04.16.15.4v.41l-1.04.52-.52-.48-1.08.27-.28-.48-.11-.02-.28 1.74v.62l-1.78.1-1.03-1.99-.64.2.24.76-1.23 1.1H2.79l-.32-2.22-.9-.07-.45.79L0 14.38v-3.02l.52-.37-.19-.27.21-.98 1.11-.93.45-1.68 1.75-1.04.47.3 1.06-.8h1.13v3.44l1.5 2.35 1.5-2.35V4.68l.24.24.87.15 2.54 1.09-.3 1.51.29.43.87.1 1.29-.26.7.61-.42 2.94Zm-8.33-7.3v4.85L8 10.34l.75-1.31V4.18c.82-.31 1.41-1.09 1.41-2.02C10.16.97 9.19 0 8 0S5.84.97 5.84 2.16c0 .93.59 1.71 1.41 2.02"/>
</svg>
