<svg viewBox="0 0 48 48" xmlns="http://www.w3.org/2000/svg">
  <path d="M46.74 34.74 48 36.09l-2.15 3.81-3-1.65-.1.03-.11.45.45 1.18v1.21l-3.12 1.52-1.55-1.4-3.25.79-.85-1.4-.33-.05-.83 5.12v1.82l-5.33.29-3.09-5.83-1.93.58.71 2.23-3.7 3.22H8.37l-.96-6.51-2.71-.22-1.36 2.32L0 43.24v-8.86l1.57-1.1-.57-.79.62-2.86 3.33-2.73 1.34-4.92 5.25-3.04 1.4.87 3.18-2.34h5.38v3.02l-.69-.52h-3.87l-2.52 1.85-1.36 1-1.44-.9-.12-.08-3.06 1.77-1.07 3.93-.21.77-.62.51L3.88 31l-.2.91 1.41 1.94-2.08 1.46-.5.35v4.42l.05-.08.79-1.36 1.57.12 2.71.22 1.99.16.29 1.97.64 4.37h8.35l1.75-1.52-.21-.66-.78-2.42 2.43-.74 1.93-.58 1.97-.6.96 1.82 2.34 4.42 1.42-.08.81-4.97.4-2.43 2.44.36.33.05 1.16.17.51.84 1.48-.36 1.29-.31.98.89.17.15-.25-.65.19-.76.11-.45.35-1.41 1.4-.39.1-.03.98-.28.9.49.84.46.03-.06-.82-.89.17-1.19 1.06-7.25-.12-.11-2.7.54-.38.08-.39-.04-2.6-.29-1.14-.13-.65-.95-.86-1.26-.59-.87.21-1.03.49-2.42-5.45-2.28-2.33-.39-.78-.13-.56-.55-.7-.69h-.02l-.26-2.73.67-.39 2.06 2.03 2.62.44 7.61 3.18-.9 4.43.86 1.26 2.6.29 3.88-.77 2.1 1.79-1.26 8.62ZM18.51 5.49C18.51 2.47 20.97 0 24 0s5.49 2.46 5.49 5.49c0 2.59-1.81 4.77-4.24 5.34v17.31L24 32.39l-1.25-4.25V10.83c-2.42-.57-4.24-2.74-4.24-5.34m2.5 0c0 1.65 1.34 2.99 2.99 2.99s2.99-1.34 2.99-2.99S25.65 2.5 24 2.5s-2.99 1.34-2.99 2.99"/>
</svg>
