<svg viewBox="0 0 40 40" xmlns="http://www.w3.org/2000/svg">
  <path d="M38.95 28.94 40 30.06l-1.79 3.17-2.5-1.37-.09.02-.09.37.38.99v1.01l-2.6 1.26-1.29-1.16-2.71.66-.71-1.16-.28-.04-.7 4.26v1.51l-4.44.24-2.57-4.86-1.61.49.6 1.86-3.08 2.68H6.98l-.8-5.42-2.26-.18-1.13 1.94-2.79-.3v-7.39l1.31-.92-.48-.66.51-2.38 2.78-2.27 1.12-4.1 4.37-2.54 1.17.73 2.65-1.95h4.32v8.96L20 29.07l2.25-5.56V11.44l.39-.23 1.72 1.69 2.18.36 6.34 2.65-.75 3.69.71 1.05 2.17.24 3.24-.64L40 21.74l-1.05 7.18ZM18.87 9.16v14.37l1.12 3.54 1.13-3.54V9.16c2.02-.51 3.53-2.32 3.53-4.5C24.65 2.09 22.57 0 20 0s-4.65 2.09-4.65 4.65c0 2.18 1.51 3.99 3.53 4.5Z"/>
</svg>
