<svg viewBox="0 0 40 40" xmlns="http://www.w3.org/2000/svg">
  <path d="M38.95 28.94 40 30.06l-1.79 3.17-2.5-1.37-.09.02-.09.37.38.99v1.01l-2.6 1.26-1.29-1.16-2.71.66-.71-1.16-.28-.04-.7 4.26v1.51l-4.44.24-2.57-4.86-1.61.49.6 1.86-3.08 2.68H6.98l-.8-5.42-2.26-.18-1.13 1.94-2.79-.3v-7.39l1.31-.92-.48-.66.51-2.38 2.78-2.27 1.12-4.1 4.37-2.54 1.17.73 2.65-1.95h4.32v2.6l-.46-.35h-3.12l-2.06 1.51-1.23.9-1.29-.81h-.02l-2.4 1.38-.88 3.21-.19.69-.56.46-2.17 1.78-.14.63 1.23 1.69-1.88 1.32-.35.24v2.98l.44-.76 1.41.11 2.26.18 1.79.14.26 1.77.52 3.5h6.76L17 36.57l-.14-.45-.7-2.18 2.19-.66 1.61-.49 1.77-.54.87 1.64 1.9 3.59.95-.05.65-4.01.36-2.19 2.19.33.28.04 1.04.15.4.66 1.11-.27 1.16-.28.54.49.16-.65.09-.37.31-1.27 1.26-.35.09-.02.89-.25.74.4-.16-.17.16-1.07.87-5.92-2.13.42-.34.07-.35-.04-2.17-.24-1.03-.11-.58-.85-.71-1.05-.53-.78.19-.93.38-1.88-4.4-1.84-1.93-.32-.7-.12-.51-.5-.34-.33-.19-2.74.39-.23 1.72 1.69 2.18.36 6.34 2.65-.75 3.69.71 1.05 2.17.24 3.24-.64L40 21.74l-1.05 7.18ZM15.34 4.65a4.654 4.654 0 0 1 9.31 0c0 2.18-1.51 3.99-3.53 4.5v14.37l-1.13 3.54-1.13-3.54V9.15c-2.02-.51-3.53-2.32-3.53-4.5Zm2.25 0c0 1.33 1.08 2.4 2.4 2.4s2.4-1.08 2.4-2.4-1.08-2.4-2.4-2.4-2.4 1.08-2.4 2.4"/>
</svg>
