<svg viewBox="0 0 48 48" xmlns="http://www.w3.org/2000/svg">
  <path d="m48 26.12-1.26 8.62L48 36.09l-2.15 3.81-3-1.65-.1.03-.11.45.45 1.18v1.21l-3.12 1.52-1.55-1.4-3.25.79-.33-.54-.52-.85-.33-.05-.83 5.12v1.82l-5.33.29-3.09-5.83-1.93.58.71 2.23-3.7 3.22H8.37l-.96-6.51-2.71-.22-1.36 2.32L0 43.24v-8.86l1.57-1.1-.57-.79.62-2.86 3.33-2.73 1.34-4.92 5.25-3.04 1.4.87 3.18-2.34h5.38v10.66l2.5 6.84 2.5-6.84V13.85l.67-.39 2.06 2.03 2.62.44 7.61 3.18-.9 4.43.86 1.26 2.6.29 3.88-.77 2.1 1.79ZM22.75 10.83v17.31L24 32.39l1.25-4.25V10.83c2.42-.57 4.24-2.74 4.24-5.34C29.48 2.47 27.02 0 24 0s-5.49 2.46-5.49 5.49c0 2.59 1.81 4.77 4.24 5.34"/>
</svg>
