<svg viewBox="0 0 24 24" xmlns="http://www.w3.org/2000/svg">
  <path d="m23.37 17.37.63.67-1.07 1.91-1.5-.82h-.05l-.06.24.23.59v.6l-1.56.76-.77-.7-1.63.39-.43-.7-.17-.02-.42 2.56v.91l-2.66.14-1.54-2.92-.97.29.36 1.12L9.91 24H4.19l-.48-3.26-1.35-.11-.68 1.16L0 21.62v-4.43l.78-.55-.29-.39.31-1.43 1.67-1.37.67-2.46 2.62-1.52.7.44 1.59-1.17h2.19v5.29l1.75 3.49 1.75-3.49V6.9l.86.85 1.09.18.22.04 3.81 1.59-.45 2.22.43.63 1.3.15 1.94-.39 1.05.9-.63 4.31ZM11.12 5.85v8.18l.88 2.12.87-2.12V5.85c1.22-.38 2.12-1.5 2.12-2.85 0-1.65-1.34-3-2.99-3S9.01 1.34 9.01 2.99c0 1.34.9 2.47 2.12 2.85Z"/>
</svg>
