<svg viewBox="0 0 32 32" xmlns="http://www.w3.org/2000/svg">
  <path d="m31.16 23.16.84.9-1.43 2.54-2-1.1-.07.02-.07.3.3.79v.81l-2.08 1.01-1.03-.93-2.17.53-.57-.93-.22-.03-.56 3.41v1.21l-3.55.19-2.06-3.89-1.29.39.48 1.49-2.46 2.15H5.59l-.64-4.34-1.81-.14-.9 1.55L0 28.83v-5.91l1.05-.73-.38-.53.41-1.91 2.22-1.82.9-3.28 3.5-2.03.93.58 2.12-1.56H14v2.18l-.24-.18H11.4l-1.59 1.17-1.09.8-1.06-.66-1.75 1.01-.68 2.49-.17.62-.49.4-1.68 1.38-.08.35 1.05 1.45-1.67 1.17-.19.14v1.54l.04-.07 1.25.1 1.81.14 1.59.13.23 1.58.39 2.63h5.16l.91-.79-.07-.23-.62-1.94 1.95-.59 1.29-.39 1.58-.48.77 1.46 1.46 2.76.47-.03.5-3.05.32-1.95 1.95.29.22.03.92.14.3.48.75-.18 1.03-.25.26.24.05-.2.07-.3.28-1.13 1.12-.32.07-.02.79-.22.28.15.09-.63.65-4.46-1.43.28-.3.06-.31-.03-1.73-.19-.91-.1-.52-.76-.57-.84-.48-.7.17-.83.27-1.35-3.35-1.4-1.52-.25-.62-.1-.4-.4-.13-2.76.11-.06 1.38 1.35 1.75.29 5.08 2.12-.6 2.96.57.84 1.73.19 2.59-.52 1.4 1.19-.84 5.75ZM12.18 3.83C12.18 1.72 13.89 0 16 0s3.82 1.72 3.82 3.82c0 1.76-1.2 3.23-2.82 3.68v11.03l-1 2.83-1-2.83V7.51a3.81 3.81 0 0 1-2.82-3.68m2 0c0 1.01.82 1.82 1.82 1.82s1.82-.82 1.82-1.82S17 2.01 16 2.01s-1.82.82-1.82 1.82"/>
</svg>
