<svg viewBox="0 0 16 16" xmlns="http://www.w3.org/2000/svg">
  <path d="m15.58 11.48.42.46-.72 1.3-1-.56h-.03l-.04.16.15.4v.41l-1.04.52-.52-.48-1.08.27-.28-.48-.11-.02-.28 1.74v.62l-1.78.1-1.03-1.99-.64.2.24.76-1.23 1.1H2.79l-.32-2.22-.9-.07-.45.79L0 14.38v-3.02l.52-.37-.19-.27.21-.98 1.11-.93.45-1.68 1.75-1.04.47.3 1.06-.8h1.13v1.5h-.63l-.66.5-.83.62-.56-.36-.43.25-.29 1.08-.12.46-.36.3-.61.51.61.86-1.11.8v.07l.19.02.9.07 1.19.1.17 1.18.13.93h1.95l.08-.07-.4-1.27 1.44-.44.64-.2 1.2-.37.58 1.11.2.39.07-.41.23-1.47 1.47.22.11.02.7.11.08.13.39-.1.16-.66.84-.24.28-.08.22-1.5h-.02l-.23.05-.24-.03-.87-.1-.69-.08-.39-.58-.29-.43-.34-.52.12-.61.06-.32-1.26-.54-.66-.11-.03-1.73.24.24.87.15 2.54 1.09-.3 1.51.29.43.87.1 1.29-.26.7.61-.42 2.94ZM5.84 2.16C5.84.97 6.81 0 8 0s2.16.97 2.16 2.16c0 .93-.59 1.71-1.41 2.02v4.85L8 10.34l-.75-1.31V4.18a2.16 2.16 0 0 1-1.41-2.02m1.5 0a.66.66 0 1 0 1.319.001.66.66 0 0 0-1.319-.001"/>
</svg>
