<svg viewBox="0 0 48 48" xmlns="http://www.w3.org/2000/svg">
  <path d="m26.96 7.69.66.69.59.62.85.13 2.87.43 4.38 1.59-.5 2.66-.18.97.53.84.86 1.34.65 1.01 1.2.13 2.9.31.3.03.3-.04 2.73-.37.13.12-.9 3.57-.19.77.29.74.82 2.1-.72 1.2-1.76-.14-2.59-.21-.1 2.6-.09 2.4-.06.25-.16.71.24.69.09.25-.21-.2-.84-.81-1.16.12-1.27.13-.21-.61-.49-1.42-1.48-.24-.33-.05-2.4-.38-.45 2.39-1.03 5.47v.04l-1.71.09-2.42-6.07-.96-2.4-2.37 1.03-1.43.63-1.59.69.1 1.73.15 2.72-2.12 1.97h-6.79l-.66-4.8-.28-2.01-2.02-.15-3.21-.23-1.6-.12-.77 1.41v.02l-.01-4.61 1.11-.51.79-.36.39-.78.43-.84.33-.64-.07-.72-.26-2.79 2.37-2.08.43-.38.22-.53 2.5-5.94 2.47-1.31 2.85 1.05.46.17.49-.02 6.01-.21.89-.03 1.89-.06.46-1.83.45-1.8.25-.15m.37-3.17-2.83 1.77-.7 2.78-.89.03-6.01.21-3.9-1.43-4.25 2.26-2.84 6.76-3.33 2.92.38 4.06-.43.84L0 25.85v9.48l3.35.39 1.36-2.49 3.21.23.96 6.96h9.95l3.7-3.44-.21-3.89 1.43-.63 3.09 7.74 5.83-.31v-1.95l1.03-5.47.33.05.85 2.49 3.25-.34 1.55 1.5 3.12-1.62v-1.29l-.45-1.27.11-.48.1-2.63 3.3.26 2.15-3.58-1.26-3.24 1.26-5.02-2.1-1.91-3.88.53-2.9-.31-.86-1.34.9-4.74-6.61-2.41-3.12-.47-2.06-2.17Z"/>
</svg>
