<svg viewBox="0 0 64 64" xmlns="http://www.w3.org/2000/svg">
  <path d="m36.04 9.5 1.21 1.27.65.68.93.14 3.89.58 6.36 2.31-.76 4.03-.2 1.07.59.92 1.14 1.79.71 1.12 1.32.14 3.87.41.33.04.33-.04 3.91-.53.63.58-1.28 5.1-.21.85.32.82 1.19 3.06-1.29 2.15-2.7-.22-2.85-.23-.11 2.86-.13 3.25-.09.39-.18.78.27.76.32.89-.79.41-.64-.62-.92-.89-1.28.14-2.15.23-.43-1.25-.54-1.56-1.63-.26-.44-.07-2.64-.42-.5 2.63-1.38 7.3-.05.25v.24l-3.2.17-3.38-8.48-1.05-2.64-2.6 1.14-1.91.83-1.75.76.11 1.91.21 3.9-3.19 2.97h-9.78l-.95-6.91-.3-2.21-2.22-.16-4.28-.31-1.76-.13-.85 1.55L3 44.68l-.19-.02v-8.43l1.82-.83.87-.4.43-.86.57-1.12.36-.71-.07-.79-.38-4.02 3.39-2.97.48-.42.25-.58 3.41-8.11 3.71-1.97 4.04 1.49.5.19.54-.02 8.01-.27 1.19-.04 2.08-.07.5-2.01.66-2.63.93-.58m.39-3.53-3.78 2.36-.93 3.71-1.19.04-8.02.27-5.2-1.91-5.66 3.01-3.79 9.01-4.45 3.89.51 5.42-.57 1.12L0 34.46v12.65l4.47.52 1.81-3.31 4.28.31 1.28 9.28H25.1l4.93-4.59-.29-5.18 1.91-.83 4.11 10.32 7.77-.41v-2.59l1.38-7.3.44.07 1.14 3.33 4.33-.46 2.06 1.99 4.15-2.16v-1.72l-.6-1.69.15-.64.14-3.51 4.4.35 2.86-4.77-1.68-4.32 1.69-6.69-2.8-2.55-5.18.7-3.87-.41L51 19.06l1.2-6.33-8.82-3.21-4.16-.62-2.75-2.89Z"/>
</svg>
