<svg viewBox="0 0 24 24" xmlns="http://www.w3.org/2000/svg">
  <path d="m13.81 4.76.2.21.59.09 1.39.21 1.74.63-.17.91-.13.68.37.58.43.67.45.7.82.1 1.3.16.29.03.28-.06.63-.13-.35 1.73-.11.54.22.5.28.65-.05.08-.41-.04-1.81-.16-.09 1.81-.04.86v.02l-.61.06-.24.03-.32-.92-1.04-.17-.17-.03-1.59-.25-.38 1.57-.6 2.46h-.12l-1.08-2.7-.67-1.68-1.66.72-.72.31-1.11.49.07 1.21.06 1.12-.74.69H5.96l-.27-1.97-.19-1.41-1.41-.1-1.6-.12-.73-.05v-.77l.26-.12.56-.25.28-.55.21-.42.23-.45-.05-.5-.11-1.14.99-.87.3-.27.16-.37 1.18-2.81.88-.47 1.22.45.32.12h.34l3.16-.11h.44l1.32-.06.32-1.28.05-.18m.01-2.5-1.42.88-.35 1.39h-.44l-3.16.12-1.95-.72-2.12 1.13-1.42 3.38L1.3 9.88l.19 2.03-.21.42-1.28.59v4.74l1.68.19.68-1.24 1.6.12.48 3.48h4.97l1.85-1.72-.11-1.94.72-.31 1.54 3.87 2.91-.15v-.97l.67-2.74.17.03.43 1.25 1.63-.17.77.75 1.56-.81v-.65l-.23-.63.06-.24.05-1.02 1.5.13L24 13.1l-.63-1.47.63-3.11-1.05-.96-1.94.41-1.3-.16-.43-.67.45-2.37-3.31-1.2-1.56-.23-1.03-1.09Z"/>
</svg>
