<svg viewBox="0 0 64 64" xmlns="http://www.w3.org/2000/svg">
  <path fill="#1e1e1c" d="M64 1.95V0h-1.95L50.17 11.88c-2.11-1.95-5.4-1.91-7.44.13l-3.52 3.52c-1-.92-2.27-1.44-3.64-1.44-1.44 0-2.79.56-3.8 1.57L7.68 39.77l-3.9-3.9c-.54-.54-1.41-.54-1.95 0s-.54 1.41 0 1.95l8.08 8.08-4.76 4.76-3.21-3.21L0 49.39l14.62 14.62 1.95-1.95-3.35-3.35 4.76-4.76 8.22 8.22c.27.27.62.4.97.4s.7-.13.97-.4c.54-.54.54-1.41 0-1.95l-3.9-3.9 24.1-24.1c1.01-1.02 1.57-2.37 1.57-3.8s-.52-2.64-1.44-3.64l3.52-3.52a5.373 5.373 0 0 0 .13-7.44L64 1.94ZM11.27 56.76 7.11 52.6l4.76-4.76L16.03 52zm35.12-26.48-24.1 24.1L9.62 41.71l6.03-6.03 6.34 6.34 1.95-1.95-6.34-6.34 5.3-5.3 4.2 4.2 1.95-1.95-4.2-4.2 5.3-5.3 6.33 6.34 1.95-1.95-6.33-6.34 1.62-1.62a2.63 2.63 0 0 1 3.71 0l8.96 8.96a2.63 2.63 0 0 1 0 3.71m3.66-10.96-3.51 3.51-5.36-5.36 3.51-3.51a2.63 2.63 0 0 1 3.71 0l1.65 1.65a2.63 2.63 0 0 1 0 3.71"/>
</svg>
