<svg viewBox="0 0 48 48" xmlns="http://www.w3.org/2000/svg">
  <path fill="#1e1e1c" d="M48 1.77V0h-1.77l-8.77 8.77a4.234 4.234 0 0 0-5.72.24l-2.5 2.5a4.2 4.2 0 0 0-2.71-1.01c-1.14 0-2.2.44-3.01 1.25L5.91 29.36l-2.77-2.77c-.49-.49-1.28-.49-1.77 0s-.49 1.28 0 1.77l5.91 5.91-3.26 3.26-2.25-2.25L0 37.04 10.96 48l1.77-1.77-2.36-2.36 3.26-3.26 6.01 6.01c.24.24.56.37.88.37s.64-.12.88-.37c.49-.49.49-1.28 0-1.77l-2.77-2.77 17.61-17.61c1.57-1.57 1.63-4.05.24-5.72l2.5-2.5c1.57-1.57 1.63-4.05.24-5.72zM8.6 42.11 5.79 39.3l3.26-3.26 2.81 2.81zm7.58-10.29-5.48-5.48 1.77-1.77 5.48 5.48zm3.84-7.04-3.88-3.88 1.77-1.77 3.88 3.88zm7.04-3.83-5.48-5.48 1.77-1.77 5.48 5.48zm10.17-6.46-2.48 2.48-3.71-3.71 2.48-2.48a1.75 1.75 0 0 1 2.47 0l1.24 1.24c.68.68.68 1.79 0 2.47"/>
</svg>
