<svg viewBox="0 0 24 24" xmlns="http://www.w3.org/2000/svg">
  <path fill="#1e1e1c" d="M23.99 1.21V0h-1.26L18.5 4.23c-.91-.61-2.22-.52-3.02.28L14.39 5.6c-.93-.63-2.2-.54-3.02.28l-8.25 8.25-1.21-1.21a.88.88 0 0 0-1.24 0c-.34.34-.34.9 0 1.24l2.78 2.78-1.28 1.28-.95-.95-1.23 1.24L5.47 24l1.24-1.24-1-1 1.28-1.28 2.83 2.83c.17.17.4.26.62.26s.45-.09.62-.26c.34-.34.34-.9 0-1.24l-1.21-1.21 8.25-8.25c.45-.45.7-1.05.7-1.68 0-.49-.15-.95-.42-1.34l1.09-1.09c.45-.45.7-1.05.7-1.68 0-.49-.15-.95-.42-1.34L24 1.23ZM4.47 20.51l-1.05-1.06 1.28-1.28 1.05 1.05-1.28 1.28Zm3.23-4.23-2.74-2.74L6.2 12.3l2.74 2.74zm1.92-3.53-1.94-1.94 1.24-1.24 1.94 1.94zm3.52-1.92L10.4 8.09l1.24-1.24 2.74 2.74zm5.08-3.58-1.06 1.06-1.5-1.51 1.06-1.06c.24-.24.64-.24.88 0l.62.62c.12.12.18.27.18.44s-.07.32-.18.44Z"/>
</svg>
