<svg viewBox="0 0 16 16" xmlns="http://www.w3.org/2000/svg">
  <path fill="#1e1e1c" d="M16.01 1.06V0h-1.06l-2.73 2.73c-.66-.36-1.55-.28-2.1.27l-.64.64c-.67-.38-1.53-.29-2.1.28L2.23 9.08l-.69-.69c-.29-.29-.77-.29-1.06 0s-.29.77 0 1.06l.69.69 1.05 1.05-.62.62-.52-.52L0 12.34 3.66 16l1.06-1.06-.55-.55.62-.62 1.08 1.08.69.69c.15.15.34.22.53.22s.38-.07.53-.22c.29-.29.29-.77 0-1.06l-.69-.69 5.16-5.16c.57-.57.65-1.43.27-2.1l.64-.64c.57-.57.66-1.44.28-2.1zm-4.84 3c.1-.1.26-.1.35 0l.41.41c.06.06.07.14.07.18s0 .11-.07.18l-.59.59-.77-.77.59-.59Zm-8.06 9.26-.47-.47.62-.62.47.47zm7.92-5.75-5.16 5.15-2.6-2.6.35-.35 1.3 1.3 1.06-1.06-1.3-1.3.75-.75.76.76 1.06-1.06-.76-.76.75-.75 1.3 1.3L9.6 6.39l-1.3-1.3.12-.12c.1-.1.26-.1.35 0l2.24 2.24c.1.1.1.26 0 .35Z"/>
</svg>
