<svg viewBox="0 0 40 40" xmlns="http://www.w3.org/2000/svg">
  <path d="M5.05 20c0 8.23 6.71 14.93 14.95 14.93S34.95 28.23 34.95 20 28.24 5.07 20 5.07 5.05 11.77 5.05 20m13.83 2.41V10.89c0-.62.5-1.12 1.12-1.12s1.12.5 1.12 1.12v11.52c1.92.5 3.34 2.22 3.34 4.29 0 2.46-2 4.45-4.46 4.45s-4.46-1.99-4.46-4.45c0-2.07 1.42-3.79 3.34-4.29m-1.09 4.29a2.21 2.21 0 1 1 4.421.001 2.21 2.21 0 0 1-4.421-.001m17.45-14.19 2.19-1.26c.17-.1.29-.24.38-.4 1.28 2.47 2.04 5.24 2.19 8.17-.16-.09-.33-.15-.52-.15h-2.53s-.04.01-.06.01c-.15-2.27-.74-4.42-1.7-6.36.02 0 .03-.01.05-.02Zm-5.81-6.58s.02-.02.02-.03l1.26-2.19c.1-.17.13-.35.13-.53 2.4 1.55 4.44 3.59 5.99 5.98-.18 0-.36.04-.53.13l-2.19 1.26-.03.03a17.1 17.1 0 0 0-4.66-4.66Zm6.88 24.77c.17.09.35.14.52.15-3.57 5.51-9.78 9.18-16.83 9.18S6.74 36.36 3.17 30.85c.18 0 .36-.05.52-.15l2.19-1.26.03-.03c3.04 4.53 8.21 7.52 14.09 7.52s11.05-2.99 14.09-7.52c.01 0 .02.02.03.03zM10.84 2.21C13.31.93 16.09.17 19.02.02c-.09.16-.15.33-.15.52v2.52s.01.04.01.06c-2.28.15-4.43.74-6.37 1.7 0-.02 0-.03-.02-.05l-1.26-2.19c-.1-.17-.24-.29-.4-.38ZM4.76 27.49l-2.19 1.26c-.17.1-.29.24-.38.4A19.8 19.8 0 0 1 0 20.98c.16.09.33.15.52.15h2.53s.04-.01.06-.01c.15 2.27.74 4.42 1.7 6.36-.02 0-.03 0-.05.02ZM21.12.55c0-.19-.06-.36-.15-.52 2.94.14 5.71.91 8.18 2.18-.16.09-.3.21-.4.38l-1.26 2.19s0 .03-.02.05c-1.94-.96-4.09-1.55-6.37-1.7 0-.02.01-.04.01-.06V.55ZM.52 18.88c-.19 0-.37.06-.52.15.14-2.93.91-5.7 2.19-8.17.09.16.21.3.38.4l2.19 1.26s.03.01.05.02c-.96 1.94-1.55 4.09-1.7 6.36-.02 0-.04-.01-.06-.01H.52Zm38.96 2.24c.19 0 .37-.06.52-.15-.14 2.93-.91 5.7-2.19 8.17-.09-.16-.21-.3-.38-.4l-2.19-1.26s-.03 0-.05-.02c.96-1.94 1.55-4.09 1.7-6.36.02 0 .04.01.06.01h2.53ZM3.69 9.3c-.17-.1-.35-.13-.53-.13 1.55-2.39 3.59-4.44 5.99-5.98 0 .18.04.36.13.53l1.26 2.19s.02.02.02.03A16.9 16.9 0 0 0 5.9 10.6c-.01 0-.02-.02-.03-.03L3.68 9.31Z"/>
</svg>
