<svg viewBox="0 0 32 32" xmlns="http://www.w3.org/2000/svg">
  <path d="M16 0C7.16 0 0 7.16 0 16s7.16 16 16 16 16-7.16 16-16S24.84 0 16 0m12.55 22.18c-.08-.1-.17-.19-.29-.26l-1.57-.91s-.04 0-.06-.02c.58-1.23.96-2.58 1.08-4.01.02 0 .04.01.06.01h1.81c.13 0 .26-.03.38-.08a13.8 13.8 0 0 1-1.41 5.25Zm-25.1 0c-.79-1.6-1.28-3.38-1.41-5.25.12.05.24.08.38.08h1.81s.04-.01.06-.01c.12 1.42.49 2.77 1.08 4.01-.02 0-.04 0-.06.02l-1.57.91c-.12.07-.21.16-.29.26Zm0-12.36c.08.1.17.19.29.26l1.57.91s.04.01.05.02c-.58 1.23-.96 2.58-1.07 4-.02 0-.04-.01-.06-.01H2.42c-.13 0-.26.03-.38.08.12-1.88.62-3.65 1.41-5.25ZM5.99 16c0-5.52 4.49-10.01 10.01-10.01S26.01 10.48 26.01 16 21.52 26.01 16 26.01 5.99 21.52 5.99 16m5-10.69-.91-1.57a1 1 0 0 0-.26-.29c1.6-.79 3.38-1.28 5.25-1.41-.05.12-.08.24-.08.38v1.81s.01.04.01.06c-1.42.12-2.77.49-4.01 1.08 0-.02 0-.04-.02-.06Zm10.02 0s0 .04-.02.06c-1.23-.58-2.58-.96-4.01-1.08 0-.02.01-.04.01-.06V2.42c0-.13-.03-.26-.08-.38 1.88.12 3.65.62 5.25 1.41-.1.08-.19.17-.25.29L21 5.31ZM29.58 15h-1.81s-.04.01-.06.01c-.12-1.42-.49-2.77-1.07-4 .02 0 .04-.01.05-.02l1.57-.91c.12-.07.21-.16.29-.26.79 1.6 1.28 3.38 1.41 5.25a1 1 0 0 0-.38-.08Zm-1.95-6.78c-.13.02-.26.06-.38.13l-1.57.91-.04.04c-.8-1.14-1.79-2.14-2.93-2.93.01-.02.02-.03.03-.04l.91-1.57c.07-.12.11-.25.13-.38 1.52 1.02 2.83 2.33 3.85 3.85ZM8.22 4.37c.02.13.06.26.13.38l.91 1.57s.02.03.03.04c-1.14.8-2.14 1.79-2.93 2.93-.02-.01-.02-.03-.04-.04l-1.57-.91c-.12-.07-.25-.11-.38-.13C5.39 6.69 6.7 5.38 8.22 4.36ZM16 30c-4.85 0-9.12-2.48-11.64-6.23.13-.02.26-.05.38-.12l1.57-.91.04-.04C8.47 25.75 12 27.75 16 27.75s7.52-2 9.65-5.05c.02.01.02.03.04.04l1.57.91c.12.07.25.1.38.12C25.13 27.52 20.85 30 16 30m0-5.85c1.84 0 3.33-1.49 3.33-3.33 0-1.49-.98-2.74-2.33-3.16v-7.6c0-.55-.45-1-1-1s-1 .45-1 1v7.6c-1.35.43-2.33 1.67-2.33 3.16 0 1.84 1.49 3.33 3.33 3.33m0-4.67a1.33 1.33 0 1 1 .001 2.659A1.33 1.33 0 0 1 16 19.48"/>
</svg>
