<svg viewBox="0 0 48 48" xmlns="http://www.w3.org/2000/svg">
  <path d="M24 0C10.75 0 0 10.74 0 24s10.75 24 24 24 24-10.75 24-24S37.25 0 24 0m19.19 33.64-2.33-1.35s-.04 0-.06-.02c1.06-2.15 1.72-4.52 1.88-7.03.02 0 .04.01.06.01h2.69c-.17 3-.96 5.84-2.24 8.39M2.56 25.25h2.69s.04-.01.06-.01c.16 2.51.82 4.89 1.88 7.03-.02 0-.04 0-.06.02L4.8 33.64a21.2 21.2 0 0 1-2.24-8.39m2.25-10.89 2.33 1.35s.04.01.05.02a18.7 18.7 0 0 0-1.88 7.03c-.02 0-.04-.01-.06-.01H2.56c.17-3 .96-5.84 2.24-8.39ZM7.51 24c0-9.09 7.4-16.49 16.49-16.49S40.49 14.91 40.49 24 33.09 40.49 24 40.49 7.51 33.09 7.51 24m8.2-16.86-1.35-2.33c2.55-1.29 5.38-2.07 8.39-2.24v2.69s.01.04.01.06c-2.51.16-4.89.82-7.03 1.88 0-.02 0-.04-.02-.06m16.56.06a18.5 18.5 0 0 0-7.03-1.88c0-.02.01-.04.01-.06V2.57c3 .17 5.84.96 8.39 2.24l-1.35 2.33s0 .04-.02.06m10.47 15.55s-.04.01-.06.01c-.16-2.51-.82-4.88-1.88-7.03.02 0 .04-.01.05-.02l2.33-1.35c1.29 2.55 2.07 5.38 2.24 8.39h-2.69Zm-.79-10.56-2.34 1.35-.03.03a18.8 18.8 0 0 0-5.15-5.15c0-.01.02-.02.03-.03l1.35-2.34c2.44 1.61 4.53 3.7 6.14 6.14M12.19 6.05l1.35 2.34.03.03a18.8 18.8 0 0 0-5.15 5.15c-.01 0-.02-.02-.03-.03l-2.34-1.35c1.61-2.44 3.7-4.53 6.14-6.14M24 45.5c-7.5 0-14.1-3.86-17.95-9.69l2.34-1.35.03-.03c3.36 5.01 9.08 8.32 15.57 8.32s12.21-3.3 15.57-8.32c.01 0 .02.02.03.03l2.34 1.35c-3.85 5.83-10.45 9.69-17.95 9.69Zm0-9.78c2.49 0 4.5-2.01 4.5-4.5 0-2.05-1.38-3.76-3.25-4.3V12.43a1.25 1.25 0 0 0-2.5 0v14.49c-1.87.54-3.25 2.25-3.25 4.3 0 2.49 2.01 4.5 4.5 4.5m0-6.5c1.1 0 2 .9 2 2s-.9 2-2 2-2-.9-2-2 .9-2 2-2"/>
</svg>
