<svg viewBox="0 0 40 40" xmlns="http://www.w3.org/2000/svg">
  <path fill="#1e1e1c" d="m32.16-.05-10.7.93L1.42 20.97c-1.9 1.91-1.9 5.01 0 6.91l10.61 10.64c.92.92 2.15 1.43 3.45 1.43s2.53-.51 3.45-1.43l20.03-20.08 1.03-10.63zm4.65 17.46L17.35 36.92c-.99 1-2.72.99-3.71 0L3.02 26.28a2.644 2.644 0 0 1 0-3.72L22.48 3.05l8.84-.77 6.34 6.36-.85 8.76Zm-12.3-8.95a4.913 4.913 0 0 0 0 6.92c.95.95 2.2 1.43 3.45 1.43s2.5-.48 3.45-1.43c1.9-1.91 1.9-5.01 0-6.91-.92-.92-2.15-1.43-3.45-1.43s-2.53.51-3.45 1.43Zm5.31 5.32c-.99 1-2.72 1-3.71 0a2.644 2.644 0 0 1 0-3.72c.5-.5 1.15-.77 1.86-.77s1.36.27 1.86.77a2.644 2.644 0 0 1 0 3.72Z"/>
</svg>
