<svg viewBox="0 0 24 24" xmlns="http://www.w3.org/2000/svg">
  <path fill="#1e1e1c" d="m19.21 0-6.57.57L.94 12.29a3.136 3.136 0 0 0 0 4.42l6.35 6.37c.61.61 1.41.91 2.21.91s1.6-.3 2.21-.91L23.4 11.36l.63-6.53zm2.51 10.57L10.47 21.84c-.53.54-1.4.54-1.94 0l-6.35-6.37c-.54-.54-.54-1.41 0-1.95L13.42 2.26l5.13-.44 3.66 3.67zm-7.31-5.41c-.59.59-.91 1.38-.91 2.21s.32 1.62.91 2.21 1.37.92 2.21.92 1.62-.33 2.21-.92.91-1.38.91-2.21-.32-1.62-.91-2.21c-1.18-1.18-3.24-1.18-4.41 0Zm3.18 1.24c.26.26.4.61.4.97s-.14.71-.4.97c-.52.52-1.42.52-1.94 0-.26-.26-.4-.61-.4-.97a1.37 1.37 0 0 1 2.34-.97"/>
</svg>
