<svg viewBox="0 0 16 16" xmlns="http://www.w3.org/2000/svg">
  <path fill="#1e1e1c" d="M11.84 4.16c.19.19.29.44.29.71s-.1.52-.29.71c-.38.38-1.04.38-1.41 0a1 1 0 0 1-.29-.71.99.99 0 0 1 1-1c.27 0 .52.1.71.29Zm4.17-.81-.44 4.5-7.49 7.51c-.42.43-.99.66-1.59.66s-1.17-.23-1.59-.66L.67 11.1c-.88-.88-.88-2.31 0-3.19L8.16.4l4.52-.4 3.33 3.34Zm-2.37 1.51c0-.67-.26-1.29-.73-1.77-.95-.95-2.59-.95-3.54 0-.47.47-.73 1.1-.73 1.77s.26 1.3.73 1.77 1.1.73 1.77.73 1.29-.26 1.77-.73c.47-.47.73-1.1.73-1.77"/>
</svg>
