<svg viewBox="0 0 40 40" xmlns="http://www.w3.org/2000/svg">
  <path fill="#1e1e1c" d="M29.81 10.03a2.63 2.63 0 0 1 0 3.71c-.99.99-2.72.99-3.71 0a2.63 2.63 0 0 1 0-3.71c.5-.5 1.15-.77 1.86-.77s1.36.27 1.86.77ZM40 7.75l-1.03 10.63-20.03 20.08c-.95.95-2.2 1.43-3.45 1.43s-2.5-.48-3.45-1.43L1.42 27.83c-1.9-1.91-1.9-5.01 0-6.91L21.46.82l10.7-.93zm-8.6.69c-.92-.92-2.14-1.43-3.45-1.43s-2.53.51-3.45 1.43c-1.9 1.9-1.9 4.99 0 6.9.95.95 2.2 1.42 3.45 1.42s2.5-.47 3.45-1.42c1.9-1.9 1.9-4.99 0-6.89Z"/>
</svg>
