<svg viewBox="0 0 32 32" xmlns="http://www.w3.org/2000/svg">
  <path fill="#1e1e1c" d="m25.67-.04-8.64.75L1.17 16.6a4.02 4.02 0 0 0 0 5.67l8.49 8.51c.78.78 1.8 1.17 2.83 1.17s2.05-.39 2.83-1.17l15.85-15.89.83-8.58zm3.58 14.02L13.9 29.37c-.78.78-2.05.78-2.83 0l-8.49-8.51c-.78-.78-.78-2.05 0-2.84L17.93 2.64l6.98-.61 5.01 5.02zM19.44 6.8a4.02 4.02 0 0 0 0 5.67c.78.78 1.81 1.17 2.83 1.17s2.05-.39 2.83-1.17a4.02 4.02 0 0 0 0-5.67 4.01 4.01 0 0 0-5.66 0m4.24 1.42c.78.78.78 2.05 0 2.84-.78.78-2.05.78-2.83 0s-.78-2.05 0-2.84c.39-.39.9-.59 1.42-.59s1.02.19 1.41.59"/>
</svg>
