<svg viewBox="0 0 48 48" xmlns="http://www.w3.org/2000/svg">
  <path fill="#1e1e1c" d="M38.67-.06 25.91 1.05 1.69 25.33a5.794 5.794 0 0 0 0 8.16l12.74 12.77c1.09 1.09 2.53 1.69 4.07 1.69s2.98-.6 4.07-1.69l23.9-23.96.32-.32 1.23-12.67zm5.71 20.9L20.8 44.48c-1.23 1.23-3.37 1.23-4.6 0L3.46 31.71a3.265 3.265 0 0 1 0-4.61L27.04 3.47l10.69-.93 7.68 7.7zM29.59 10.12a5.794 5.794 0 0 0 0 8.16c1.09 1.09 2.53 1.69 4.07 1.69s2.98-.6 4.07-1.69 1.69-2.54 1.69-4.08-.6-2.99-1.69-4.08c-2.24-2.25-5.89-2.25-8.14 0m6.37 6.39c-1.23 1.23-3.37 1.23-4.6 0a3.265 3.265 0 0 1 0-4.61 3.257 3.257 0 0 1 4.6 0 3.265 3.265 0 0 1 0 4.61"/>
</svg>
