<svg viewBox="0 0 16 16" xmlns="http://www.w3.org/2000/svg">
  <path fill="#1e1e1c" d="M12.68 0 8.16.39.67 7.91c-.88.88-.88 2.31 0 3.19l4.24 4.25c.42.43.99.66 1.59.66s1.17-.23 1.59-.66l7.49-7.51.44-4.5zm1.46 7.16-7.11 7.12c-.29.29-.77.29-1.06 0l-4.24-4.24a.754.754 0 0 1 0-1.06l7.1-7.13 3.28-.28 2.34 2.34-.32 3.25ZM9.3 3.51c-.42.43-.66.99-.66 1.59s.23 1.17.66 1.59.99.66 1.59.66 1.17-.23 1.59-.66.66-.99.66-1.59-.23-1.17-.66-1.59c-.85-.85-2.33-.85-3.18 0m2.34 1.59c0 .2-.08.39-.22.53-.28.28-.78.28-1.06 0a.75.75 0 1 1 1.28-.53"/>
</svg>
