<svg viewBox="0 0 40 40" xmlns="http://www.w3.org/2000/svg">
  <path d="M39.99 21.36h-.16c.2 5.29-.18 10.41-3.12 13.36-2.03 2.04-5.09 2.91-9.35 2.7l-26.24.04c-.3 0-.58-.12-.79-.33s-.33-.5-.33-.8V17.67c0-.62.5-1.12 1.12-1.12l11.96-.04c.58 0 1.06.44 1.12 1.01.46 4.56 5.6 7.28 10.43 7.62 3.37.23 7.53-.71 9.26-3.93-3.19-.38-5.72-1.55-7.67-3.05-.39 2.13-1.3 4.09-2.59 5.73-2.55-.37-5.06-1.44-6.65-3.09a6.14 6.14 0 0 0 2.54-4.97c0-3.39-2.76-6.14-6.14-6.14s-5.89 2.52-6.12 5.71l-6.15.02c-.27 0-.53.06-.77.15C.48 8.5 6.27 2.79 13.37 2.79c5.75 0 10.64 3.75 12.37 8.93 1.3 2.23 4.28 5.64 10.35 5.64h3.89v4Z"/>
</svg>
