<svg viewBox="0 0 16 16" xmlns="http://www.w3.org/2000/svg">
  <path d="M15.99 9h-.01c.05 2.42-.21 4.08-1.3 5.17-.76.75-1.85 1.12-3.34 1.12-.16 0-.33 0-.5-.01H.75a.764.764 0 0 1-.75-.76V7.06c0-.41.34-.75.75-.75h4.73c.38 0 .71.29.75.67.17 1.67 2 2.66 3.73 2.78 1.04.07 2.22-.17 2.92-.95-.8-.2-1.5-.54-2.1-.95-.12.41-.27.8-.48 1.16h-.29c-.87-.06-1.8-.39-2.4-.94.39-.48.63-1.07.63-1.73 0-1.52-1.24-2.76-2.76-2.76-1.25 0-2.29.84-2.63 1.97H.75c-.28 0-.54.08-.76.21a5.515 5.515 0 0 1 10.46-1.82c.47.75 1.81 2.55 3.94 2.55h1.6z"/>
</svg>
