<svg viewBox="0 0 24 24" xmlns="http://www.w3.org/2000/svg">
  <path d="M23.99 10.74H21.8c-4.23 0-6.59-4.82-6.61-4.87-1.33-2.6-4.03-4.4-7.15-4.4C3.6 1.48 0 5.08 0 9.51c0 .27.02.54.05.8-.03.09-.06.18-.06.28v11.2c0 .48.39.88.87.88h15.41c.26.01.5.02.75.02 2.23 0 3.87-.56 5.01-1.7 1.88-1.88 2.06-5.15 1.91-8.48h.05v-1.75Zm-3.83 1.56c-.87 2.1-3.34 2.74-5.34 2.59-.26-.02-.51-.05-.77-.09a7.95 7.95 0 0 0 1.99-4.86c1.04 1.02 2.41 1.97 4.12 2.37ZM8.03 3.23a6.29 6.29 0 0 1 6.28 6.28c0 1.9-.85 3.59-2.19 4.74-.82-.35-1.55-.83-2.12-1.43a3.84 3.84 0 0 0 1.91-3.31c0-2.14-1.74-3.89-3.88-3.89S4.15 7.36 4.15 9.51c0 .07.01.13.02.2H1.76v-.2a6.29 6.29 0 0 1 6.28-6.28ZM5.92 9.71c0-.07-.03-.13-.03-.2 0-1.18.96-2.14 2.13-2.14s2.14.96 2.14 2.14c0 .79-.44 1.47-1.07 1.84-.09-.27-.16-.55-.19-.85a.87.87 0 0 0-.87-.79zm14.87 10.03c-.89.9-2.36 1.28-4.45 1.17H1.74v-9.45h5.55c.78 3.12 4.19 4.95 7.4 5.18 3.45.23 6.18-1.23 7.16-3.8h.36c.14 3.74-.28 5.77-1.42 6.91Z"/>
</svg>
