<svg viewBox="0 0 32 32" xmlns="http://www.w3.org/2000/svg">
  <path d="M31.94 16.49h.05v-2h-2.93c-5.04 0-7.39-3.18-8.35-5.07-1.37-4.22-5.34-7.29-10.02-7.29C4.89 2.13.16 6.86.16 12.68c0 .29.02.57.04.86-.12.16-.2.36-.2.58v14.93c0 .55.45 1 1 1h20.88q.51.03.99.03c2.93 0 5.08-.73 6.56-2.21 2.49-2.5 2.71-6.89 2.5-11.36Zm-4.66-.13c-1.16 2.99-4.73 3.86-7.58 3.66-.43-.03-.87-.09-1.3-.17 1.6-1.72 2.63-3.97 2.8-6.46 1.39 1.37 3.35 2.59 6.08 2.97M10.7 4.13c3.31 0 6.18 1.9 7.6 4.66.08.23.25.68.52 1.25.27.83.42 1.72.42 2.64 0 2.63-1.2 4.98-3.08 6.55-1.25-.49-2.38-1.2-3.22-2.1 1.64-.82 2.77-2.5 2.77-4.45 0-2.77-2.25-5.02-5.01-5.02s-5.01 2.25-5.01 5.02c0 .15.02.29.04.43H2.19c0-.14-.02-.29-.02-.43 0-4.71 3.83-8.54 8.54-8.54Zm-2.96 8.98c-.02-.14-.06-.28-.06-.43 0-1.66 1.35-3.02 3.01-3.02s3.01 1.35 3.01 3.02c0 1.26-.78 2.32-1.88 2.77-.19-.45-.32-.93-.38-1.44a1 1 0 0 0-.99-.9H7.73Zm20.28 13.33c-1.23 1.23-3.2 1.76-6.06 1.6H2V15.11h7.62c.98 4.15 5.6 6.6 9.95 6.9 4.7.32 8.38-1.64 9.63-5.06h.76c.2 5.14-.37 7.92-1.94 9.49"/>
</svg>
