<svg viewBox="0 0 48 48" xmlns="http://www.w3.org/2000/svg">
  <path d="M48 21.99h-4.5c-7.7 0-11.28-4.85-12.74-7.74-2.02-6.26-7.89-10.8-14.81-10.8C7.38 3.46.4 10.44.4 19.02c0 .42.02.84.05 1.25-.27.23-.46.56-.46.94V43.6c0 .33.13.65.37.88.23.23.55.37.88.37l31.82-.04c5.08.27 8.73-.79 11.15-3.21 3.72-3.73 4-10.38 3.67-17.11H48zm-6.84 2.36c-1.66 4.84-7.25 6.24-11.71 5.93-.81-.06-1.62-.17-2.43-.34 2.67-2.7 4.34-6.37 4.47-10.43 2.11 2.23 5.21 4.29 9.67 4.84M15.96 5.96c5.06 0 9.45 2.9 11.61 7.12.12.35.37 1.05.82 1.95.4 1.26.63 2.6.63 3.99 0 4.08-1.88 7.71-4.82 10.11-2.07-.79-3.94-1.96-5.28-3.48 2.53-1.14 4.3-3.67 4.3-6.62 0-4.01-3.26-7.27-7.27-7.27s-7.27 3.26-7.27 7.27c0 .31.03.62.07.92l-5.81.02c-.03-.31-.05-.62-.05-.94 0-7.2 5.86-13.06 13.06-13.06ZM11.3 19.94c-.06-.3-.1-.6-.1-.92 0-2.63 2.14-4.77 4.77-4.77s4.77 2.14 4.77 4.77c0 2.08-1.35 3.82-3.21 4.47a7.7 7.7 0 0 1-.68-2.44 1.24 1.24 0 0 0-1.24-1.12H11.3Zm31.15 19.9c-1.89 1.9-4.92 2.71-9.28 2.48h-.07l-30.6.04V22.47l12.04-.04c1.34 6.22 8.24 9.9 14.74 10.35 7 .49 12.48-2.47 14.25-7.6h1.89c.34 7.95-.54 12.23-2.97 14.66"/>
</svg>
