<svg viewBox="0 0 64 64" xmlns="http://www.w3.org/2000/svg">
  <path d="M23.15 47.94c.49.97 1.05 1.88 1.69 2.75H11.17l-1.28-9.55-3.61-.32-1.81 3.41L0 43.7v-13l2.09-1.61-.76-1.16.82-4.2 4.44-4 1.79-7.21 6.99-4.46 1.86 1.28 4.24-3.43h7.38l2.13 1.78 1.19-.04.26-5.18L36.22.04l2.75 2.98 3.49.64 10.15 4.67-1.2 6.5 1.14 1.84 3.47.43 5.18-1.13L64 18.6l-1.69 12.64 1.68 1.98-2.86 5.59-2.74-1.65c-.13-1.26-.38-2.48-.73-3.65l.89.54 1.48.89.68-1.33-.49-.58-.79-.93.16-1.21 1.5-11.24-.71-.67-3.76.82-.46.1-.47-.06-3.47-.43-1.31-.16-.69-1.12-1.14-1.84-.56-.9.19-1.04.81-4.4-7.89-3.63-3.15-.58-.9-.17-.62-.67-1.19-1.28-.65.41-.19 3.77-.13 2.52-2.53.08-1.19.04-1.05.03-.81-.67-1.36-1.14h-5.41l-3.49 2.82-1.59 1.29-1.69-1.16-.36-.25-4.53 2.89-1.53 6.15-.2.82-.62.56-3.76 3.39-.43 2.19.14.22 1.41 2.13-2.02 1.56-1.02.79v9.21l.17.02.92-1.74.85-1.61 1.82.16 3.61.32 2.19.19.29 2.18.96 7.16h9.58Zm40.44 15.71c-.27.26-.61.39-.96.39s-.72-.14-.99-.42l-10.59-10.9c-3.03 2.67-6.96 4.3-11.27 4.3-9.58 0-17.34-7.98-17.34-17.83s7.76-17.83 17.34-17.83 17.34 7.98 17.34 17.83c0 4.41-1.57 8.44-4.15 11.56l10.65 10.96c.53.54.52 1.41-.03 1.94M25.2 39.19c0 2.45.58 4.76 1.59 6.8l2.91-2.78-1.2-4.11 5.27-1.75 4.71 9.78 5.7-.34v-1.88l1.46-9.74 2.52.41 1.07 1.93 4.55-1.22.38.38C52.99 29.55 47 24.11 39.79 24.11c-8.04 0-14.59 6.77-14.59 15.08m14.58 15.08c7.55 0 13.78-5.97 14.51-13.58l-1.34-1.34-5.1 1.36-.22-.39-.72 4.88v4.16l-10.12.61-4.46-9.26-.47.16.92 3.17-4.54 4.35c2.67 3.57 6.84 5.88 11.53 5.88Z"/>
</svg>
