<svg viewBox="0 0 40 40" xmlns="http://www.w3.org/2000/svg">
  <path fill="#1e1e1c" d="M20 .04c-11.03 0-20 8.97-20 20s8.97 20 20 20 20-8.97 20-20-8.97-20-20-20m1.12 37.7v-9.99c0-.62-.5-1.12-1.12-1.12s-1.12.5-1.12 1.12v9.99c-8.89-.56-16.01-7.68-16.57-16.57h9.99c.62 0 1.12-.5 1.12-1.12s-.5-1.12-1.12-1.12h-10c.57-8.9 7.69-16.02 16.58-16.58v9.99c0 .62.5 1.12 1.12 1.12s1.12-.5 1.12-1.12V2.35c8.89.56 16.01 7.68 16.57 16.57H27.7c-.62 0-1.12.5-1.12 1.12s.5 1.12 1.12 1.12h9.99c-.56 8.89-7.68 16.01-16.57 16.57Z"/>
</svg>
