<svg viewBox="0 0 24 24" xmlns="http://www.w3.org/2000/svg">
  <path d="M10.7 9.69c-1.99 0-3.61 1.62-3.61 3.61s1.62 3.61 3.61 3.61 3.61-1.62 3.61-3.61v-.02l2.3-.36c0 .13.02.25.02.38 0 3.27-2.66 5.93-5.93 5.93s-5.93-2.66-5.93-5.93 2.66-5.93 5.93-5.93c.13 0 .25.01.38.02l-.36 2.3zm8.7-2.56-.04-.02-2.15 2.15a7.65 7.65 0 0 1 1.16 4.04c0 4.23-3.44 7.68-7.68 7.68s-7.68-3.44-7.68-7.68 3.44-7.68 7.68-7.68c1.48 0 2.86.43 4.04 1.16l2.16-2.16c-.64-.46-1.31-.87-2.04-1.18-1.28-.54-2.69-.84-4.16-.84a10.66 10.66 0 0 0-6.8 2.44c-.53.44-1.01.92-1.45 1.45-.65.79-1.2 1.68-1.6 2.64C.3 10.41 0 11.82 0 13.29c0 1.48.3 2.88.84 4.16 1.08 2.56 3.13 4.61 5.69 5.69 1.28.54 2.69.84 4.16.84a10.66 10.66 0 0 0 6.8-2.44c.53-.44 1.01-.92 1.45-1.45.65-.79 1.2-1.68 1.6-2.64.54-1.28.84-2.69.84-4.16 0-1.48-.3-2.88-.84-4.16-.3-.72-.71-1.38-1.15-2.01Zm-5.94.94a5.9 5.9 0 0 0-2.25-.66l1.46 1.46.8-.8Zm1.68 3.27 1.46 1.46a6 6 0 0 0-.66-2.26zM8.83 13.3c0 1.03.83 1.86 1.86 1.86.94 0 1.71-.7 1.84-1.6l-2.48.39.39-2.48c-.9.13-1.61.9-1.61 1.84Zm3.83-3.2-.97-.97-1.23 4.42 4.42-1.23-.97-.97 5.24-5.24 1.72.67 3.14-3.14-1.72-.67.73-.73L21.78 1l-.73.73-.67-1.72-3.14 3.14.67 1.72-5.24 5.24Z"/>
</svg>
