<svg viewBox="0 0 32 32" xmlns="http://www.w3.org/2000/svg">
  <path d="m31.16 15.16.84.97-1.43 2.73-1.62-.95c-.14-.78-.37-1.53-.68-2.24l.56-.17.25.15.1-.76.68-4.97-1.43.31-.32.07-.33-.04-1.73-.21-.94-.11-.51-.8-.57-.9-.43-.67.15-.78.31-1.62-3.41-1.53-1.51-.27-.65-.12-.35-.38-.05.88L18 5.6l-1.84.06-.59.02-.75.02-.58-.47-.51-.42h-2.29L9.86 6.06l-1.14.9-1.07-.72-1.72 1.07-.7 2.74-.15.6-.47.41-1.71 1.51-.11.56.98 1.45-1.53 1.15-.25.19v1.84l1.3.1 1.81.15 1.59.14.22 1.59.4 2.93h3.16c.24.71.56 1.38.95 2.01H5.56l-.64-4.67-1.81-.15-.9 1.67-2.23-.26v-6.36l1.05-.79-.38-.56.41-2.05 2.22-1.96.9-3.52 3.5-2.18.93.62 2.12-1.68h3.69l1.06.87.59-.02.13-2.53 1.89-1.18 1.38 1.45 1.75.31 5.08 2.28-.6 3.18.57.9 1.73.21 2.59-.55 1.4 1.28-.84 6.18Zm.37 15.04c.39.39.39 1.03 0 1.42-.2.2-.45.29-.71.29s-.51-.1-.71-.29l-5.27-5.3a8.5 8.5 0 0 1-5.31 1.86c-4.73 0-8.56-3.85-8.56-8.61s3.83-8.61 8.56-8.61 8.56 3.85 8.56 8.61c0 2.01-.69 3.86-1.84 5.32l5.27 5.3ZM12.98 19.58c0 .44.04.86.13 1.27l1.05-.98-.58-1.94 3.04-.99 2.15 4.36 1.95-.11v-.51l.72-4.67 1.69.27.43.75 1.82-.48a6.55 6.55 0 0 0-5.83-3.57c-3.62 0-6.56 2.96-6.56 6.6Zm6.56 6.6c3.62 0 6.56-2.96 6.56-6.6 0-.25-.02-.5-.04-.74l-.5.52-.63-.61-1.97.51-.25 1.64v2.18l-5.15.3-1.33-2.71-2.36 2.21c1.14 1.97 3.25 3.29 5.67 3.29Z"/>
</svg>
