<svg viewBox="0 0 32 32" xmlns="http://www.w3.org/2000/svg">
  <path d="M25.72 9.27c1.75 2.37 2.8 5.29 2.8 8.46 0 7.88-6.39 14.26-14.26 14.26S0 25.61 0 17.74 6.39 3.48 14.26 3.48c3.17 0 6.09 1.05 8.46 2.8l.05.12-2.95 2.95a10 10 0 0 0-5.56-1.68c-5.55 0-10.07 4.52-10.07 10.07s4.52 10.07 10.07 10.07 10.07-4.52 10.07-10.07c0-2.05-.62-3.96-1.68-5.56l2.95-2.95.12.05Zm-11.2 3.85.51-2.74 1.88 1.88 1.45-1.45a7.97 7.97 0 0 0-4.11-1.13c-4.45 0-8.07 3.62-8.07 8.07s3.62 8.07 8.07 8.07 8.07-3.62 8.07-8.07c0-1.5-.42-2.9-1.13-4.11l-1.45 1.45 1.9 1.9-2.76.47c0 .09.03.18.03.28 0 2.56-2.09 4.65-4.65 4.65s-4.65-2.09-4.65-4.65 2.09-4.65 4.65-4.65c.09 0 .17.02.26.03m-.26 7.27c1.44 0 2.61-1.16 2.64-2.59l-3.36.58.61-3.27c-1.41.06-2.54 1.22-2.54 2.64s1.19 2.65 2.65 2.65ZM17 13.58l-1.41-1.41-1.65 5.89 5.89-1.65L18.42 15l6.94-6.94 2.46.96L32 4.84l-2.46-.96 1.02-1.02-1.41-1.41-1.02 1.02-.96-2.46-4.18 4.18.96 2.46-6.94 6.94Z"/>
</svg>
