<svg viewBox="0 0 24 24" xmlns="http://www.w3.org/2000/svg">
  <path d="M11.99 0C5.37 0 0 5.37 0 12s5.37 12 12 12 12-5.37 12-12S18.62 0 11.99 0m.88 22.21v-4.27c0-.48-.39-.88-.88-.88s-.88.39-.88.88v4.27c-4.95-.42-8.91-4.38-9.33-9.33h4.27c.48 0 .88-.39.88-.88s-.39-.88-.88-.88H1.79c.42-4.95 4.38-8.9 9.33-9.33v4.27c0 .48.39.88.88.88s.88-.39.88-.88V1.79c4.95.42 8.91 4.38 9.33 9.33h-4.27c-.48 0-.88.39-.88.88s.39.88.88.88h4.27c-.42 4.95-4.38 8.91-9.33 9.33ZM11.9 8.65c-1.86 0-3.38 1.51-3.38 3.38s1.51 3.38 3.38 3.38 3.38-1.51 3.38-3.38-1.51-3.38-3.38-3.38m0 5a1.62 1.62 0 1 1 0-3.24 1.62 1.62 0 0 1 0 3.24"/>
</svg>
