<svg viewBox="0 0 40 40" xmlns="http://www.w3.org/2000/svg">
  <path d="m38.95 18.96 1.05 1.2-1.79 3.4-1.89-1.11c-1.01-5.58-5.89-9.83-11.76-9.83-6.6 0-11.96 5.37-11.96 11.97 0 2.27.65 4.39 1.75 6.21H6.98l-.11-.8-.69-5.01-2.26-.19-1.13 2.07L0 26.55v-7.91l1.31-.98-.48-.7.51-2.55 2.78-2.44 1.12-4.39 4.37-2.71 1.17.78 2.65-2.09h4.61l1.33 1.08.74-.02.16-3.15 2.37-1.48 1.72 1.81 2.18.39 6.34 2.84-.75 3.96.71 1.12 2.17.26 3.24-.69 1.75 1.6-1.05 7.69Zm.69 19.11a1.123 1.123 0 0 1-.8 1.92c-.29 0-.58-.11-.8-.33L31.38 33a10.76 10.76 0 0 1-6.83 2.43c-5.99 0-10.84-4.85-10.84-10.84s4.85-10.84 10.84-10.84 10.84 4.85 10.84 10.84c0 2.59-.91 4.96-2.42 6.82l6.66 6.66Zm-15.08-4.89c4.74 0 8.59-3.85 8.59-8.59 0-.26-.02-.52-.04-.78l-.15-.14-3.01.78-.79-1.38-.31-.05-.77 5.06v1.8l-4.93.29-2.85-5.77-1.79.58.66 2.21-1.97 1.83c1.51 2.49 4.23 4.16 7.35 4.16Z"/>
</svg>
