<svg viewBox="0 0 24 24" xmlns="http://www.w3.org/2000/svg">
  <path d="m23.37 11.37.63.72-1.07 2.04-1.07-.63c-.12-.71-.33-1.39-.64-2.01l.39-.12.03-.23.46-3.36-.72.15-.28.06-.29-.03-1.3-.16-.82-.1-.45-.7-.43-.67-.37-.58.13-.68.19-1.01-2.35-1.05-1.1-.2-.48-.09v.14l-.09 1.61-1.61.05h-.44l-.65.04-.51-.41-.32-.26H8.67l-1.12.88-1 .78-.82-.54-1.07.66-.5 1.95-.13.53-.41.36L2.4 9.58l-.05.23.81 1.19-1.34 1-.08.06v1.01l.75.06 1.35.12 1.39.12.19 1.39.27 1.97h1.94c.18.62.45 1.21.78 1.75H4.16L3.68 15l-1.35-.12-.68 1.24-1.68-.19v-4.74l.78-.59-.29-.42.31-1.53 1.67-1.46.67-2.63 2.62-1.63.7.47 1.59-1.25h2.77l.8.65h.44l.1-1.9 1.45-.9 1.03 1.09 1.31.23 3.81 1.7-.45 2.37.43.67 1.3.16 1.94-.41 1.05.96-.63 4.61Zm.37 11.14a.881.881 0 0 1-.62 1.5c-.22 0-.45-.08-.62-.26l-3.97-3.96a6.4 6.4 0 0 1-3.88 1.31c-3.55 0-6.42-2.88-6.42-6.42s2.88-6.42 6.42-6.42 6.42 2.88 6.42 6.42c0 1.46-.49 2.79-1.31 3.87l3.97 3.97ZM10.21 13.3l2.31-.75 1.62 3.28 1.26-.07v-.28l.56-3.61 1.45.23.3.53.98-.25c-.81-1.41-2.31-2.37-4.04-2.37-2.1 0-3.85 1.4-4.44 3.3Zm-.23 1.37c0 .2.03.39.06.58l.43-.4-.36-1.22c-.08.34-.13.68-.13 1.04m4.68 4.67c2.58 0 4.67-2.1 4.67-4.67 0-.1-.02-.2-.03-.3l-.22.22-.42-.41-1.33.35-.17 1.13v1.73l-4.07.24-.96-1.94-1.47 1.37c.82 1.36 2.29 2.28 3.99 2.28Z"/>
</svg>
