<svg viewBox="0 0 64 64" xmlns="http://www.w3.org/2000/svg">
  <path d="M21.07 39.2c0 4.32 1.41 8.3 3.76 11.52H11.16l-1.28-9.56-3.61-.32-1.81 3.41-4.47-.53V30.7l2.09-1.62-.77-1.16.82-4.2 4.45-4.01 1.79-7.22 6.99-4.47 1.86 1.28 4.24-3.43h7.38l2.13 1.78 1.19-.04.26-5.19L36.22 0l1.43 1.55 1.32 1.43 3.49.64L52.61 8.3l-1.2 6.51 1.14 1.85 3.47.43 5.18-1.14 2.8 2.63-1.69 12.65 1.68 1.98-2.86 5.59-2.74-1.66c-1-9.64-8.96-17.17-18.61-17.17-10.32 0-18.71 8.62-18.71 19.23m42.52 24.49c-.27.26-.61.39-.96.39s-.72-.14-.99-.42L51.05 52.74c-3.03 2.68-6.97 4.31-11.27 4.31-9.58 0-17.34-7.99-17.34-17.85s7.76-17.85 17.34-17.85 17.34 7.99 17.34 17.85c0 4.42-1.57 8.45-4.15 11.57l10.65 10.98c.53.54.52 1.42-.03 1.94m-23.8-9.39c7.91 0 14.35-6.55 14.57-14.68l-.24-.24-5.09 1.36-1.34-2.41-.52-.08-1.31 8.83v3.14l-8.35.5-4.83-10.06-3.03 1.01 1.12 3.85-2.72 2.61c2.66 3.74 6.93 6.18 11.74 6.18Z"/>
</svg>
