<svg viewBox="0 0 48 48" xmlns="http://www.w3.org/2000/svg">
  <path d="M41.82 20.25c.62 2.01.96 4.15.96 6.36C42.78 38.42 33.2 48 21.39 48S0 38.43 0 26.61c0-2.21.34-4.35.96-6.36.83-2.68 2.18-5.13 3.92-7.25 3.92-4.75 9.86-7.78 16.51-7.78 4.92 0 9.45 1.66 13.06 4.46l.09.24-4.59 4.59a14.76 14.76 0 0 0-8.57-2.75c-8.19 0-14.85 6.66-14.85 14.85s6.66 14.85 14.85 14.85 14.85-6.66 14.85-14.85c0-3.19-1.02-6.15-2.75-8.57l4.59-4.59.21.08c1.54 1.99 2.76 4.25 3.53 6.71Zm-24.65 6.36a4.22 4.22 0 0 0 8.44 0v-.02l-5.23.89.95-5.1a4.23 4.23 0 0 0-4.17 4.22Zm4.63-6.7.78-4.21 3.09 3.09 2.49-2.49a12.33 12.33 0 0 0-6.78-2.04c-6.81 0-12.35 5.54-12.35 12.35s5.54 12.35 12.35 12.35 12.35-5.54 12.35-12.35c0-2.5-.75-4.83-2.04-6.78l-2.49 2.49 3.12 3.12-4.24.73c0 .15.02.29.02.44 0 3.71-3.02 6.72-6.72 6.72s-6.72-3.02-6.72-6.72 3.02-6.72 6.72-6.72c.14 0 .27.01.41.02Zm2.82 1.71-1.43-1.43-1.8 6.42 6.42-1.8-1.43-1.43 11.6-11.6 3.74 1.74L48 7.24 44.26 5.5l1.41-1.41-1.77-1.77-1.42 1.42L40.75 0l-6.28 6.28 1.74 3.75z"/>
</svg>
