<svg viewBox="0 0 48 48" xmlns="http://www.w3.org/2000/svg">
  <path d="M23.99.02C10.74.02 0 10.77 0 24.02s10.75 24 24 24 24-10.75 24-24-10.75-24-24.01-24m2.25 43.36v-7.49c0-1.24-1.01-2.25-2.25-2.25s-2.25 1.01-2.25 2.25v7.49c-8.96-1.03-16.07-8.15-17.11-17.11h7.49c1.24 0 2.25-1.01 2.25-2.25s-1.01-2.25-2.25-2.25H4.63C5.67 12.82 12.79 5.7 21.74 4.66v7.49c0 1.24 1.01 2.25 2.25 2.25s2.25-1.01 2.25-2.25V4.66c8.96 1.04 16.07 8.15 17.11 17.11h-7.49c-1.24 0-2.25 1.01-2.25 2.25s1.01 2.25 2.25 2.25h7.49c-1.04 8.96-8.15 16.07-17.11 17.11m-2.44-25.3c-3.31 0-6 2.69-6 6s2.69 6 6 6 6-2.69 6-6-2.69-6-6-6m0 7.5c-.83 0-1.5-.67-1.5-1.5s.67-1.5 1.5-1.5 1.5.67 1.5 1.5-.67 1.5-1.5 1.5"/>
</svg>
