<svg viewBox="0 0 64 64" xmlns="http://www.w3.org/2000/svg">
  <path d="m34.45 25.66-4.14-4.14-.99 5.32c-.26-.02-.52-.04-.79-.04-4.78 0-8.67 3.89-8.67 8.67s3.89 8.67 8.67 8.67 8.67-3.89 8.67-8.67c0-.28-.02-.56-.04-.83l5.36-.92-4.18-4.18 3.81-3.81c1.97 2.75 3.14 6.1 3.14 9.73 0 9.24-7.52 16.76-16.76 16.76S11.77 44.7 11.77 35.46 19.29 18.7 28.53 18.7c3.63 0 6.99 1.17 9.73 3.14l-3.81 3.81Zm18.47-4.97c-.71-1.16-1.52-2.25-2.38-3.3h-.03l-6.4 6.39c2.46 3.26 3.93 7.31 3.93 11.69 0 10.76-8.75 19.51-19.51 19.51S9.02 46.23 9.02 35.47s8.74-19.51 19.5-19.51c4.39 0 8.43 1.47 11.69 3.93l6.4-6.4-.02-.05c-3.86-3.17-8.56-5.37-13.73-6.15-1.42-.22-2.87-.33-4.34-.33s-2.93.11-4.34.33a28.44 28.44 0 0 0-14.83 7.08 28.6 28.6 0 0 0-5.22 6.32c-.71 1.18-1.35 2.41-1.89 3.69A28.5 28.5 0 0 0 0 35.48c0 1.48.11 2.93.33 4.34.38 2.51 1.1 4.9 2.09 7.15q.585 1.335 1.32 2.61c1.04 1.83 2.27 3.53 3.68 5.07.61.68 1.26 1.32 1.93 1.93 1.54 1.4 3.25 2.63 5.07 3.68q1.26.72 2.61 1.32c2.25.99 4.64 1.71 7.15 2.09 1.42.22 2.87.33 4.34.33s2.93-.11 4.34-.33c12.27-1.88 21.97-11.58 23.85-23.85.22-1.42.33-2.87.33-4.34 0-3.94-.8-7.69-2.24-11.1q-.81-1.92-1.89-3.69ZM28.8 29.57c-.09 0-.18-.01-.28-.01-3.27 0-5.92 2.66-5.92 5.92s2.66 5.92 5.92 5.92 5.92-2.66 5.92-5.92c0-.12-.01-.24-.02-.36l-6.88 1.18 1.25-6.72Zm2.11-2.66-2.39 8.56 8.56-2.39zm2.12 2.12 1.95 1.95 15.39-15.39 5.27 2.45 8.37-8.37-5.27-2.45 1.96-1.96-1.95-1.95-1.96 1.96L54.33 0l-8.37 8.37 2.45 5.28z"/>
</svg>
