<svg viewBox="0 0 64 64" xmlns="http://www.w3.org/2000/svg">
  <path d="M50.59 17.41a28.4 28.4 0 0 1 6.45 18.06c0 15.75-12.77 28.52-28.52 28.52S0 51.23 0 35.48 12.77 6.95 28.52 6.95c6.86 0 13.15 2.42 18.06 6.45l.03.08-1.93 1.93a25.66 25.66 0 0 0-16.16-5.72c-14.21 0-25.77 11.56-25.77 25.77s11.56 25.77 25.77 25.77 25.77-11.56 25.77-25.77c0-6.12-2.15-11.74-5.72-16.16l1.93-1.93.08.03Zm-11.35 3.46c-3.01-2.21-6.7-3.53-10.72-3.53-10.02 0-18.14 8.12-18.14 18.14s8.12 18.14 18.14 18.14 18.14-8.12 18.14-18.14c0-4.02-1.32-7.71-3.53-10.72l-1.97 1.97c1.73 2.49 2.75 5.5 2.75 8.75 0 8.48-6.9 15.39-15.39 15.39s-15.39-6.9-15.39-15.39 6.9-15.39 15.39-15.39c3.25 0 6.26 1.02 8.75 2.75zM28.52 30.93h.02l.51-2.73c-.18-.01-.35-.03-.53-.03-4.03 0-7.3 3.27-7.3 7.3s3.27 7.3 7.3 7.3 7.3-3.27 7.3-7.3q0-.3-.03-.6l-2.73.47s.01.09.01.13c0 2.51-2.04 4.55-4.55 4.55s-4.55-2.04-4.55-4.55 2.04-4.55 4.55-4.55Zm19.89-17.29-2.45-5.28L54.33 0l2.45 5.28 1.96-1.96 1.95 1.95-1.96 1.96L64 9.68l-8.37 8.37-5.27-2.45-15.39 15.39 2.11 2.11-8.56 2.39 2.39-8.56 2.11 2.11L48.4 13.66Zm8.25-4.35-4.23 4.23 2.61 1.21 4.23-4.23zm-7.39-.34 1.2 2.59 4.23-4.23-1.2-2.59z"/>
</svg>
