<svg viewBox="0 0 40 40" xmlns="http://www.w3.org/2000/svg">
  <path d="M19.99-.06C8.95-.06 0 8.89 0 19.94s8.95 20 20 20 20-8.95 20-20-8.96-20-20.01-20m2 35.86v-5.97c0-1.1-.9-2-2-2s-2 .9-2 2v5.97c-7.22-.91-12.95-6.64-13.86-13.86h5.97c1.1 0 2-.9 2-2s-.9-2-2-2H4.13c.91-7.22 6.64-12.96 13.86-13.86v5.97c0 1.1.9 2 2 2s2-.9 2-2V4.08c7.22.91 12.95 6.64 13.86 13.86h-5.97c-1.1 0-2 .9-2 2s.9 2 2 2h5.97c-.91 7.22-6.64 12.95-13.86 13.86m-2.16-20.94c-2.83 0-5.12 2.29-5.12 5.12S17 25.1 19.83 25.1s5.12-2.29 5.12-5.12-2.29-5.12-5.12-5.12m0 6.25c-.62 0-1.12-.5-1.12-1.12s.5-1.12 1.12-1.12 1.12.5 1.12 1.12-.5 1.12-1.12 1.12"/>
</svg>
