<svg viewBox="0 0 16 16" xmlns="http://www.w3.org/2000/svg">
  <path d="m15.5 7.58.42.48-.72 1.36-.55-.32c-.34-2.45-2.42-4.35-4.96-4.35a5.04 5.04 0 0 0-5.03 5.03c0 .93.27 1.79.71 2.54H2.71L2.39 10l-.9-.08-.45.83-1.12-.13V7.46l.52-.39-.19-.28.21-1.02 1.11-.97.45-1.75 1.75-1.09.47.31 1.06-.83h1.84l.53.43h.3L8.04.6l.94-.6.69.72.87.16 2.54 1.14-.3 1.58.29.45.87.1 1.29-.28.7.64-.42 3.07Zm.19 7.14c.29.29.29.77 0 1.06-.15.15-.34.22-.53.22s-.38-.07-.53-.22l-2.49-2.49c-.69.49-1.54.78-2.45.78-1.51 0-2.83-.79-3.59-1.97l-.03.03v-.09c-.41-.66-.65-1.42-.65-2.25 0-2.37 1.92-4.28 4.28-4.28s4.28 1.92 4.28 4.28c0 .91-.29 1.75-.77 2.45l2.49 2.49Zm-6-2.16c1.53 0 2.78-1.25 2.78-2.78 0-.07-.02-.14-.02-.21l-.67.17-.32-.56-.12-.02-.31 2.04v.72l-1.98.12L7.9 9.72l-.72.23.27.89-.22.2c.46.9 1.39 1.52 2.46 1.52"/>
</svg>
