<svg viewBox="0 0 64 64" xmlns="http://www.w3.org/2000/svg">
  <path d="M31.99.01C14.32.01 0 14.34 0 32.01s14.33 32 32 32 32-14.33 32-32-14.33-32-32.01-32m1.38 61.22V48.09c0-.76-.62-1.38-1.38-1.38s-1.38.62-1.38 1.38v13.14c-15.04-.7-27.15-12.82-27.84-27.86.08.01.16.02.24.02h12.9c.76 0 1.38-.62 1.38-1.38s-.62-1.38-1.38-1.38H3.02c-.08 0-.16.01-.24.02C3.47 15.62 15.57 3.5 30.62 2.8v13.14c0 .76.62 1.38 1.38 1.38s1.38-.62 1.38-1.38V2.8c15.04.7 27.14 12.8 27.84 27.84H48.08c-.76 0-1.38.62-1.38 1.38s.62 1.38 1.38 1.38h13.14c-.7 15.04-12.8 27.14-27.84 27.84Zm-1.63-38.14a9 9 0 1 0 .001 18.001 9 9 0 0 0-.001-18.001m0 15.25c-3.45 0-6.25-2.8-6.25-6.25s2.8-6.25 6.25-6.25 6.25 2.8 6.25 6.25-2.8 6.25-6.25 6.25"/>
</svg>
