<svg viewBox="0 0 16 16" xmlns="http://www.w3.org/2000/svg">
  <path d="m15.58 7.58.42.48-.72 1.36-.55-.32a5 5 0 0 0-.63-1.83l.23-1.66h-.02l-.24.06-.25-.03-.87-.1-.66-.08-.06-.03-.36-.57-.29-.45-.32-.5.11-.58.08-.42-1.29-.58-.64-.11-.06 1.1-1.38.04h-.3l-.56.03-.43-.35-.12-.1h-.79l-.65.51-.85.67-.57-.38-.42.26-.3 1.17-.12.45-.35.31-.68.59.61.89-1.07.8v.2l.2.02.9.08 1.2.1.16 1.19.14 1.03h.75c.11.54.33 1.04.6 1.5H2.77l-.32-2.32-.9-.08-.45.83-1.12-.13V7.47l.52-.39-.19-.28.21-1.02 1.11-.97.45-1.75 1.75-1.09.47.31 1.06-.83H7.2l.53.43h.3L8.1.61 9.05 0l.69.72.87.16 2.54 1.14-.3 1.58.29.45.87.1 1.29-.28.7.64zm.19 7.14c.29.29.29.77 0 1.06-.15.15-.34.22-.53.22s-.38-.07-.53-.22l-2.49-2.49c-.69.49-1.54.78-2.45.78-2.36 0-4.28-1.92-4.28-4.28s1.92-4.28 4.28-4.28 4.28 1.92 4.28 4.28c0 .91-.29 1.75-.77 2.45l2.49 2.49ZM7.3 8.53l1.14-.37 1.09 2.21.57-.03.4-2.63 1.21.19.18.31.15-.04c-.5-.72-1.33-1.19-2.27-1.19-1.08 0-2.01.63-2.47 1.53Zm2.47 4.03c1.53 0 2.77-1.24 2.78-2.77l-.16-.15-.69.18-.1.64v1.3l-2.98.17-.59-1.19-.6.56c.5.76 1.35 1.27 2.33 1.27Z"/>
</svg>
