<svg viewBox="0 0 24 24" xmlns="http://www.w3.org/2000/svg">
  <path d="M11.99 0C5.37 0 0 5.38 0 12.01s5.37 12 12 12 12-5.37 12-12S18.62 0 11.99 0m1.5 20.87v-2.93c0-.83-.67-1.5-1.5-1.5s-1.5.67-1.5 1.5v2.93a8.99 8.99 0 0 1-7.36-7.36h2.93c.83 0 1.5-.67 1.5-1.5s-.67-1.5-1.5-1.5H3.13c.64-3.76 3.6-6.73 7.36-7.36v2.93c0 .83.67 1.5 1.5 1.5s1.5-.67 1.5-1.5V3.15c3.76.64 6.73 3.6 7.36 7.36h-2.93c-.83 0-1.5.67-1.5 1.5s.67 1.5 1.5 1.5h2.93a8.99 8.99 0 0 1-7.36 7.36M11.9 9.04c-.1 0-.21 0-.32.02a3 3 0 0 0-2.67 3.3 3 3 0 0 0 2.98 2.69c.1 0 .21 0 .32-.02a3 3 0 0 0 2.67-3.3 3 3 0 0 0-2.98-2.69m.39 3.31c-.06.07-.17.16-.34.18h-.06c-.25 0-.47-.2-.49-.45-.03-.27.17-.52.45-.55h.06c.25 0 .47.2.49.45.02.17-.05.29-.11.37"/>
</svg>
