<svg viewBox="0 0 24 24" xmlns="http://www.w3.org/2000/svg">
  <path d="M23.98 4.19c-.01-.59-.31-1.11-.77-1.42-.16-.11-.34-.18-.52-.23-.04-.01-.09-.03-.13-.04-.1-.02-.21-.03-.32-.03h-4.31v-.74c0-.97-.78-1.76-1.75-1.76H7.8c-.97 0-1.75.79-1.75 1.76v.74H1.74c-.36 0-.7.11-.98.3a1.7 1.7 0 0 0-.74 1.1c-.02.11-.04.23-.04.35h.01v17.99c0 .97.78 1.76 1.75 1.76h20.5c.97 0 1.75-.79 1.75-1.76V4.19ZM7.8 1.72h8.38v3.13H7.8zm8.47 9.24-4.91 7.46-3.56-3.83a.88.88 0 0 1 .04-1.24c.35-.33.91-.31 1.24.04l2.05 2.2 3.68-5.6c.26-.4.81-.52 1.21-.25s.51.81.25 1.22"/>
</svg>
