<svg viewBox="0 0 40 40" xmlns="http://www.w3.org/2000/svg">
  <path d="M7.96 13.08c0 2.75 2.24 4.99 4.99 4.99s4.99-2.24 4.99-4.99-2.24-4.99-4.99-4.99-4.99 2.24-4.99 4.99m7.73 0c0 1.51-1.23 2.74-2.74 2.74s-2.74-1.23-2.74-2.74 1.23-2.74 2.74-2.74 2.74 1.23 2.74 2.74M8.7 22.77c-.77-.33-1.5-.75-2.16-1.24l-1.75.41-1.63.38-.84-1.45-1.5-2.59L0 16.83l1.15-1.22 1.26-1.33c-.05-.41-.08-.81-.08-1.21 0-.42.03-.84.09-1.28l-1.24-1.32L.03 9.26l.84-1.45 1.5-2.59.84-1.45 1.63.38 1.79.42c.66-.48 1.38-.9 2.15-1.22l.53-1.75.46-1.59h6.34l.48 1.6.53 1.74c.78.33 1.52.75 2.19 1.25l1.72-.4 1.63-.38.84 1.45L25 7.86l.84 1.45-1.15 1.22-1.21 1.29c.02.12.01.24.02.36-.83.11-1.6.48-2.2 1.06 0-.05.01-.1.01-.15 0-.68-.1-1.34-.26-1.97L23.04 9l-1.5-2.59-2.82.66c-.96-.92-2.13-1.58-3.44-1.97l-.85-2.83h-2.99l-.85 2.83a8.35 8.35 0 0 0-3.4 1.94l-2.88-.68-1.5 2.59 2.03 2.15c-.16.64-.26 1.3-.26 1.99s.1 1.3.24 1.92l-2.03 2.16 1.5 2.59 2.85-.67c.94.91 2.11 1.58 3.4 1.97l.85 2.84h2.99l.84-2.8c.48-.14.93-.32 1.37-.53l-3.48 5.58h-3.4l-.48-1.6-.53-1.76Zm30.87 12.95L26.4 14.58c-.55-.88-1.47-1.32-2.39-1.32s-1.84.44-2.39 1.32L8.45 35.72c-1.17 1.87.18 4.29 2.39 4.29h26.33c2.21 0 3.55-2.42 2.39-4.29Zm-1.9 1.76c-.07.13-.22.29-.49.29H10.85c-.27 0-.42-.16-.49-.29s-.13-.34.01-.57l13.17-21.14c.14-.22.33-.26.48-.26s.34.05.48.26l13.17 21.14c.14.23.09.44.01.57Zm-14.56-6.65-.53-4.13v-3.14h2.88v3.14l-.53 4.13zm2.57 2.39c0 .85-.66 1.55-1.67 1.55s-1.67-.7-1.67-1.55.66-1.54 1.67-1.54 1.67.72 1.67 1.54"/>
</svg>
