<svg viewBox="0 0 40 40" xmlns="http://www.w3.org/2000/svg">
  <path d="M11.56 14.7c-1.3 0-2.36-1.06-2.36-2.36s1.06-2.36 2.36-2.36 2.36 1.06 2.36 2.36-1.06 2.36-2.36 2.36m-2.75 6.71c-1.47-.44-2.8-1.2-3.87-2.24l-3.24.76L0 16.98l2.31-2.46c-.17-.71-.28-1.43-.28-2.19s.12-1.53.3-2.26L.02 7.63l1.7-2.95L5 5.45c1.08-1.03 2.4-1.77 3.87-2.2L9.85.03h3.4l.97 3.22c1.49.44 2.83 1.2 3.91 2.24l3.2-.75 1.7 2.95-2.27 2.41c.18.72.29 1.47.29 2.25 0 .43-.04.85-.1 1.26-.1.13-.2.26-.28.4l-3.88 6.23c-.81.53-1.7.95-2.65 1.23l-.96 3.19h-3.4l-.97-3.23Zm2.75-4.46c2.54 0 4.61-2.07 4.61-4.61s-2.07-4.61-4.61-4.61-4.61 2.07-4.61 4.61 2.07 4.61 4.61 4.61m28.08 21.63c-.17.31-.41.6-.69.83-.47.38-1.08.62-1.76.62H10.85c-2.2 0-3.55-2.42-2.39-4.29l13.16-21.15c.41-.66 1.03-1.08 1.7-1.24.22-.06.45-.08.68-.08.29 0 .58.06.86.15q.435.135.81.42c.27.2.52.44.72.75l13.16 21.15c.58.94.54 2.01.07 2.85Zm-13.96-5.35c0-.82-.66-1.54-1.66-1.54s-1.66.72-1.66 1.54.66 1.55 1.66 1.55 1.66-.7 1.66-1.55m-3.1-6.52.53 4.13h1.82l.53-4.13v-3.14h-2.88z"/>
</svg>
