<svg viewBox="0 0 24 24" xmlns="http://www.w3.org/2000/svg">
  <path d="M5.02 8.19c0 1.75 1.43 3.17 3.18 3.17s3.18-1.42 3.18-3.17S9.95 5.02 8.2 5.02 5.02 6.44 5.02 8.19m4.6 0c0 .78-.64 1.42-1.42 1.42s-1.42-.64-1.42-1.42.64-1.42 1.42-1.42 1.42.64 1.42 1.42m-4.3 6.07c-.36-.17-.71-.37-1.03-.59l-.86.2-1.27.3-.65-1.13-.89-1.54-.65-1.13.9-.95.61-.65q-.03-.285-.03-.57c0-.2.01-.41.03-.62l-.6-.64-.9-.96.65-1.13.89-1.54.65-1.13 1.27.3.88.21c.32-.22.66-.42 1.02-.58l.26-.85L5.99 0h4.4l.38 1.25.26.85q.555.255 1.05.6l.84-.2 1.27-.3.65 1.13.89 1.54.65 1.13-.9.95-.23.24a2.7 2.7 0 0 0-.93-.19c-.45 0-.87.11-1.24.32l-.06-.31 1.19-1.26-.89-1.54-1.68.39c-.57-.55-1.27-.94-2.05-1.17l-.51-1.68H7.3l-.51 1.68c-.77.23-1.46.62-2.03 1.15l-1.72-.4-.89 1.54L3.36 7c-.09.38-.16.77-.16 1.18s.06.77.15 1.14L2.14 10.6l.89 1.54 1.7-.4c.56.54 1.26.94 2.03 1.17l.51 1.69h.88l-1.1 1.76h-1.1l-.38-1.25-.26-.86Zm18.39 7.16L15.77 8.69c-.33-.53-.89-.8-1.44-.8s-1.11.27-1.44.8L4.95 21.42c-.7 1.13.11 2.59 1.44 2.59h15.88c1.33 0 2.14-1.46 1.44-2.59m-17.21.83L14.33 9.7l7.83 12.55zm8.83-2.34c0 .51-.4.93-1 .93s-1.01-.42-1.01-.93.4-.93 1.01-.93 1 .43 1 .93m-1.87-5.82h1.74v1.89l-.32 2.49h-1.1l-.32-2.49z"/>
</svg>
