<svg viewBox="0 0 24 24" xmlns="http://www.w3.org/2000/svg">
  <path d="M7.11 9.06c-.83 0-1.5-.67-1.5-1.49s.67-1.49 1.5-1.49 1.5.67 1.5 1.49-.67 1.49-1.5 1.49m-1.7 4.09c-.91-.27-1.73-.74-2.4-1.38l-2 .47-1.05-1.82 1.43-1.51c-.1-.43-.17-.88-.17-1.35s.08-.94.19-1.39L-.02 4.66l1.05-1.82 2.03.48c.67-.63 1.49-1.09 2.39-1.36l.6-1.98h2.11l.6 1.98c.92.27 1.75.74 2.42 1.38l1.98-.46 1.05 1.82-1.4 1.49c.1.4.16.82.17 1.24-.33.2-.62.47-.84.82l-2.99 4.78c-.15.05-.29.11-.44.15l-.33 1.08-.55.88H6.01zm1.7-2.34c1.8 0 3.26-1.46 3.26-3.24S8.91 4.33 7.11 4.33 3.85 5.79 3.85 7.57s1.46 3.24 3.26 3.24m16.63 12.3c-.14.25-.34.47-.6.62-.25.15-.55.24-.88.24H6.39c-1.33 0-2.14-1.45-1.44-2.58l7.94-12.7c.33-.53.88-.8 1.44-.8.28 0 .55.07.8.2s.47.33.64.6l7.94 12.7c.35.56.32 1.21.04 1.71Zm-10.28-7.13.32 2.48h1.1l.32-2.48v-1.89h-1.74zm1.87 3.92c0-.49-.4-.92-1-.92s-1 .43-1 .92.4.93 1 .93 1-.42 1-.93"/>
</svg>
