<svg viewBox="0 0 64 64" xmlns="http://www.w3.org/2000/svg">
  <path d="M12.41 20.59c0 4.26 3.47 7.73 7.74 7.73s7.74-3.47 7.74-7.73-3.47-7.73-7.74-7.73-7.74 3.47-7.74 7.73m12.72 0c0 2.75-2.24 4.98-4.99 4.98s-4.99-2.24-4.99-4.98 2.24-4.98 4.99-4.98 4.99 2.24 4.99 4.98m-11.2 15.25c-1.49-.6-2.89-1.4-4.11-2.37l-3.32.78-1.99.47-1.02-1.77-2.46-4.27L0 26.91l1.4-1.49 2.38-2.53c-.12-.8-.18-1.56-.18-2.31s.07-1.58.2-2.42l-2.36-2.5-1.39-1.49 1.02-1.77 2.46-4.27 1.02-1.77 1.99.47 3.39.8c1.23-.96 2.62-1.75 4.1-2.33l1-3.31.59-1.96h9.02l.59 1.96 1 3.31c1.51.6 2.92 1.4 4.17 2.38l3.27-.77 1.99-.47 1.02 1.77 2.46 4.27 1.02 1.77-1.4 1.49-2.31 2.45c.11.67.16 1.3.18 1.93a5.8 5.8 0 0 0-2.84 1.99c.06-.5.11-1 .11-1.52 0-1.12-.17-2.2-.43-3.25l3.28-3.49-2.46-4.26-4.64 1.09c-1.57-1.51-3.51-2.61-5.66-3.24l-1.4-4.66h-4.93l-1.4 4.66c-2.12.62-4.04 1.71-5.6 3.19L5.92 9.51l-2.46 4.27 3.33 3.54c-.26 1.05-.43 2.14-.43 3.27s.16 2.14.4 3.16L3.41 27.3l2.46 4.27 4.69-1.1c1.56 1.5 3.48 2.6 5.61 3.24l1.41 4.67h4.93l1.39-4.61c1.3-.37 2.5-.93 3.61-1.63l-5.6 8.99h-6.38l-.59-1.96-1-3.33Zm49.39 21.32L42.25 23.32c-.88-1.41-2.35-2.12-3.82-2.12s-2.94.71-3.82 2.12L13.54 57.16c-1.86 2.99.29 6.87 3.82 6.87H59.5c3.53 0 5.68-3.88 3.82-6.87m-2.3 3.23c-.15.27-.6.9-1.53.9H17.36c-.93 0-1.38-.63-1.53-.9s-.45-.98.04-1.77l21.07-33.84c.46-.74 1.19-.82 1.48-.82s1.02.08 1.48.82l21.07 33.84c.49.79.19 1.5.04 1.77ZM41.1 53.16c0 1.36-1.05 2.48-2.67 2.48s-2.66-1.13-2.66-2.48 1.05-2.46 2.66-2.46 2.67 1.15 2.67 2.46m-4.13-3.82-.85-6.61v-5.02h4.61v5.02l-.85 6.61h-2.92Z"/>
</svg>
