<svg viewBox="0 0 16 16" xmlns="http://www.w3.org/2000/svg">
  <path d="m3.19 9.78-.43.1-1.09.26-.56-.97-.59-1.03-.56-.96.77-.81.31-.33v-.26c0-.1 0-.19.01-.29l-.3-.32-.78-.81.56-.97.59-1.03.56-.97 1.09.26.45.1c.15-.1.31-.19.47-.27l.13-.43L4.14 0h3.42l.32 1.07.13.43c.17.08.33.18.49.28l.42-.1 1.09-.26.56.97.59 1.03.56.97-.75.8c-.35-.41-.86-.66-1.41-.66h-.04l.34-.36-.59-1.03-1.12.26c-.38-.36-.85-.63-1.36-.78L6.45 1.5H5.26l-.34 1.12c-.51.15-.97.41-1.35.77l-1.14-.27-.59 1.03.8.85a3.04 3.04 0 0 0 0 1.55l-.81.85.59 1.03 1.13-.27c.37.36.84.63 1.35.78l.28.93-1.06 1.7-.32-1.07-.13-.44c-.16-.08-.32-.17-.47-.27ZM5.85 3.5c1.08 0 1.98.75 2.22 1.76-.04.05-.08.09-.11.14L6.33 8.01a2.279 2.279 0 1 1-.47-4.51Zm0 1.5a.781.781 0 0 0 0 1.56.781.781 0 0 0 0-1.56m8.98 10.99H4.27c-.88 0-1.42-.97-.96-1.72l5.28-8.48c.22-.35.59-.53.96-.53s.74.18.96.53l5.28 8.48c.47.75-.07 1.72-.96 1.72m-.68-1.5L9.55 7.1l-4.6 7.39h9.21Zm-5.18-3.84.21 1.66h.73l.21-1.66V9.39H8.96v1.26Zm.58 2c-.41 0-.67.29-.67.62s.26.62.67.62.67-.28.67-.62-.26-.62-.67-.62"/>
</svg>
