<svg viewBox="0 0 48 48" xmlns="http://www.w3.org/2000/svg">
  <path d="M48.02 10.14c-.02-.55-.09-1.1-.22-1.66-.06-.28-.14-.55-.24-.82-.13-.39-.3-.75-.48-1.11-.04-.08-.08-.15-.12-.23a9 9 0 0 0-.62-.97c-.04-.05-.08-.09-.11-.14-.21-.27-.44-.53-.68-.77l-.15-.15a8 8 0 0 0-.86-.71l-.2-.14c-.29-.2-.6-.38-.91-.54a.2.2 0 0 1-.08-.05c-.18-.09-.36-.16-.55-.24L41.88 0 22.57 6.66l3.8 11.03c-.79-.27-1.63-.43-2.51-.43-.09 0-.18.01-.28.01l-2.55-7.42-14.55 4.98 4.32 12.54 5.46-1.87a7.62 7.62 0 0 0 2.73 5.26l-7.16 17.23h4.88l6.44-15.51c.24.02.47.04.72.04.15 0 .29-.01.44-.02l6.44 15.49h4.88l-7.09-17.07c1.81-1.4 2.98-3.58 2.98-6.04 0-.65-.09-1.27-.24-1.87l16.6-5.72-.94-2.73a8.4 8.4 0 0 0 1.12-4.42ZM20.71 24.89c0-1.73 1.41-3.13 3.13-3.13s3.13 1.4 3.13 3.13-1.41 3.13-3.13 3.13-3.13-1.4-3.13-3.13M4.5 16.83l3.46 10.06-3.11 1.12c-.12.04-.24.07-.37.09-.04 0-.08 0-.12.01-.06 0-.11.01-.17.01h-.05c-.18 0-.36-.03-.53-.09-.03-.01-.06-.02-.09-.04-.16-.06-.3-.13-.44-.23-.02-.02-.05-.03-.07-.05-.15-.11-.28-.24-.4-.39-.03-.03-.05-.07-.07-.1-.11-.16-.21-.33-.28-.53L.14 20.58c-.37-1.08.16-2.24 1.19-2.61z"/>
</svg>
