<svg viewBox="0 0 32 32" xmlns="http://www.w3.org/2000/svg">
  <path d="m2.03 11.63 2.36 6.4-1.26.45c-.14.05-.27.07-.41.07h-.07c-.12 0-.24-.02-.35-.05-.02 0-.04-.02-.07-.02-.1-.04-.2-.08-.29-.14-.01 0-.03-.02-.04-.03-.1-.07-.18-.15-.26-.25-.02-.02-.03-.04-.05-.07-.07-.1-.14-.21-.18-.33s-.35-1.01-.35-1.01l-1-2.91c-.05-.15-.06-.31-.06-.46v-.06c.03-.51.37-.98.88-1.17l1.17-.42Zm17.47 9.54L24 32h-3.79l-3.98-9.59c-.11 0-.22.02-.33.02q-.255 0-.51-.03L11.4 32H7.61l4.55-10.94A5.8 5.8 0 0 1 10.1 17l-3.51 1.2-2.94-7.99 8.98-3.08 1.45 3.94c.57-.19 1.18-.29 1.82-.29.07 0 .14 0 .21.01l-2.18-5.93L28.02 0l.65 1.89c1.34.61 2.44 1.74 2.95 3.24.52 1.5.35 3.07-.33 4.38l.68 1.97-10.47 3.61c.13.48.21.99.21 1.51 0 1.85-.87 3.5-2.22 4.57Zm-1.28-4.57c0-1.28-1.04-2.32-2.32-2.32s-2.32 1.04-2.32 2.32 1.04 2.32 2.32 2.32 2.32-1.04 2.32-2.32"/>
</svg>
