<svg viewBox="0 0 24 24" xmlns="http://www.w3.org/2000/svg">
  <path d="M1.07 13.22a1 1 0 0 0 1.29.61l1.12-.4.22.63 4.72-1.61c0 1.14.56 2.14 1.4 2.78L6.17 24h1.9l3.37-8.1c.16.02.32.05.49.05.12 0 .23-.02.35-.04L15.64 24h1.9l-3.61-8.69c.91-.63 1.51-1.68 1.51-2.87 0-.3-.05-.58-.12-.85l8.69-2.99-.52-1.49c.51-.98.64-2.15.25-3.27s-1.21-1.94-2.21-2.4L21.03 0 9.87 3.84l.42 1.22-8.68 2.98.2.56-1.14.41a1 1 0 0 0-.61 1.27l1.02 2.94Zm10.85.98c-.97 0-1.75-.79-1.75-1.75s.79-1.75 1.75-1.75 1.75.79 1.75 1.75-.79 1.75-1.75 1.75m8.02-11.97 1.83 5.29-7.31 2.52c-.1-.11-.22-.2-.33-.29l-1.7-4.93 7.52-2.59Zm-8.75 4.38L12 8.95h-.08c-1.15 0-2.16.56-2.8 1.41l-3.83 1.31-.94-2.72zm-8.31 3.46.53 1.53-.92.33-.53-1.53z"/>
</svg>
