<svg viewBox="0 0 40 40" xmlns="http://www.w3.org/2000/svg">
  <path d="m2.32 14.71 2.95 8-1.35.47c-.17.06-.34.08-.51.09h-.08c-.15 0-.3-.03-.44-.07-.03 0-.05-.02-.08-.03-.13-.05-.25-.1-.36-.18-.02-.01-.04-.02-.05-.03-.12-.09-.23-.19-.32-.31-.02-.03-.04-.05-.06-.08-.09-.13-.17-.26-.22-.42l-1.72-4.9c-.11-.32-.12-.66-.04-.97a1.67 1.67 0 0 1 1.05-1.15l1.22-.43Zm21.53 10.94L29.82 40h-4.34l-5.39-12.95c-.07 0-.14.01-.22.01-.15 0-.3-.01-.45-.02L14.03 40H9.69l6.03-14.5a6.3 6.3 0 0 1-2.17-4.49l-5.78 1.98-3.67-9.98 12.11-4.14 2.12 5.75c.5-.12 1.01-.2 1.54-.2.27 0 .54.02.8.06l-3.11-8.46L35.04 0l.82 2.36c1.67.76 3.05 2.17 3.69 4.04.65 1.87.44 3.83-.41 5.47l.85 2.47-14 4.82c.13.51.21 1.03.21 1.58a6.3 6.3 0 0 1-2.35 4.91m-3.98-2.6c1.28 0 2.32-1.04 2.32-2.32s-1.04-2.32-2.32-2.32-2.32 1.04-2.32 2.32 1.04 2.32 2.32 2.32"/>
</svg>
