<svg viewBox="0 0 32 32" xmlns="http://www.w3.org/2000/svg">
  <path d="M1.42 17.66c.2.57.69.94 1.2.94.12 0 .23-.02.35-.06l1.69-.61.29.83 6.97-2.39c0 .08-.02.15-.02.23 0 1.3.63 2.45 1.6 3.18L8.42 32.01h2.17l4.76-11.46c.18.03.36.06.55.06.13 0 .25-.03.37-.04l4.75 11.45h2.17l-5.03-12.11a4 4 0 0 0 1.74-3.3c0-.32-.05-.62-.12-.92l12.2-4.2-.68-1.98c.68-1.3.84-2.87.33-4.37a5.57 5.57 0 0 0-2.95-3.24L28.02 0 13.9 4.87l.56 1.63-12.3 4.22.26.77-1.72.62c-.6.22-.88.94-.64 1.63l1.36 3.93Zm14.48.94c-1.1 0-2-.9-2-2s.9-2 2-2 2 .9 2 2-.9 2-2 2M26.78 2.55l2.66 7.69-10.33 3.56-2.66-7.69zM15.13 8.39l1.47 4.26h-.04c-.22-.02-.43-.05-.66-.05-1.16 0-2.2.5-2.93 1.3l-6.58 2.25-1.47-4.26zM3.28 13.3l.92 2.66-1.11.4-.92-2.66z"/>
</svg>
