<svg viewBox="0 0 64 64" xmlns="http://www.w3.org/2000/svg">
  <path d="M62.49 4.99H47.84V1.55c0-.83-.67-1.5-1.5-1.5H17.67c-.83 0-1.5.67-1.5 1.5v3.44H1.49C.67 4.99 0 5.67 0 6.49v56.06c0 .83.67 1.5 1.5 1.5h61c.83 0 1.5-.67 1.5-1.5V6.49c0-.83-.67-1.5-1.5-1.5ZM18.93 2.8H45.1v9.32H18.93zm42.31 58.5H2.74V7.74h13.43v7.13h31.67V7.74h13.4zM24.86 23.7l-6.5 9.86-4.88-3.91a1.37 1.37 0 0 1-.21-1.93 1.37 1.37 0 0 1 1.93-.21l2.52 2.02 4.84-7.34c.42-.64 1.27-.81 1.9-.39s.81 1.27.39 1.9Zm-2.1 19.54-2.82 2.78 2.82 2.78-1.93 1.96-2.85-2.81-2.85 2.81-1.93-1.96 2.82-2.78-2.82-2.78 1.93-1.96 2.85 2.81 2.85-2.81zm25.5-16.71c.76 0 1.38.62 1.38 1.38s-.62 1.38-1.38 1.38h-14.4c-.76 0-1.38-.62-1.38-1.38s.62-1.38 1.38-1.38zm1.38 19.6c0 .76-.62 1.38-1.38 1.38h-14.4c-.76 0-1.38-.62-1.38-1.38s.62-1.38 1.38-1.38h14.4c.76 0 1.38.62 1.38 1.38"/>
</svg>
