<svg viewBox="0 0 48 48" xmlns="http://www.w3.org/2000/svg">
  <path d="m22.24 7.3 7.3-7.3 6.04 6.04a4.515 4.515 0 0 0 0 6.38c.66.66 1.48 1.07 2.33 1.24.28.06.57.08.86.08.58 0 1.15-.11 1.7-.33s1.05-.55 1.49-.99L48 18.46l-7.3 7.3-3.02-3.02-12.43-12.43zm3.01 6.55-11.39 11.4 8.88 8.89 11.39-11.4-8.89-8.89Zm13.68 13.68-3.02-3.02-11.39 11.4 3.01 3.01 11.4-11.4ZM9.07 20.46l3.02 3.02 11.39-11.4-3.01-3.01L9.08 20.46Zm13.68 17.22L10.32 25.26 7.3 22.23 0 29.54l6.04 6.04c.44-.44.95-.77 1.49-.99s1.12-.33 1.7-.33 1.15.11 1.7.33 1.05.55 1.49.99a4.515 4.515 0 0 1 0 6.38L18.46 48l7.3-7.3-3.01-3.01Z"/>
</svg>
