<svg viewBox="0 0 32 32" xmlns="http://www.w3.org/2000/svg">
  <path d="m22.17 15.04-7.13 7.13-5.21-5.21 7.13-7.13zm-15.9-1.61 2.13 2.13 7.14-7.15-2.13-2.13-7.15 7.15Zm20.87 3.74L32 12.31l-4.03-4.03c-.29.29-.63.51-1 .66-.18.07-.37.13-.56.17q-.285.06-.57.06c-.77 0-1.54-.29-2.13-.88a3.01 3.01 0 0 1 0-4.25L19.69 0l-4.86 4.86 12.31 12.3ZM4.85 14.84 0 19.69l4.03 4.03c.29-.29.63-.51 1-.66 1.09-.44 2.38-.22 3.26.66.15.15.28.31.39.47.66 1 .66 2.31 0 3.31-.11.17-.24.33-.39.47L12.32 32l4.85-4.85zm20.88 3.74-2.13-2.13-7.14 7.15 2.13 2.13 7.15-7.15Z"/>
</svg>
