<svg viewBox="0 0 24 24" xmlns="http://www.w3.org/2000/svg">
  <path d="M20.98 6.21a2.273 2.273 0 0 1-3.2 0c-.88-.88-.88-2.31 0-3.19L14.76 0 0 14.77l3.02 3.02a2.273 2.273 0 0 1 3.2 0c.88.88.88 2.31 0 3.19L9.24 24 24.01 9.23l-3.02-3.02ZM15.6 3.3c-.48 1.4-.17 3.02.95 4.14.76.76 1.77 1.17 2.84 1.17.45 0 .89-.07 1.31-.22l.83.83-2.39 2.39-6.75-6.75 2.39-2.39.83.83ZM8.33 13.32l4.99-4.99 2.34 2.34-4.99 4.99zm-1.26-1.21-.97-.97 5.04-5.04.97.97zm9.86-.22.97.97-5.04 5.04-.97-.97zM8.4 20.7c.48-1.4.17-3.02-.95-4.14a4 4 0 0 0-2.84-1.17c-.45 0-.89.07-1.31.22l-.83-.83 2.39-2.39 6.75 6.75-2.39 2.39-.83-.83Z"/>
</svg>
