<svg viewBox="0 0 64 64" xmlns="http://www.w3.org/2000/svg">
  <path d="m36.31 52.3-5.08-5.08 16-16.02 5.09 5.09zm-7.02-7.03 16-16.02-10.56-10.56-16 16.02zM11.7 27.68l5.08 5.08 16-16.02-5.08-5.08zm17.59 21.49-.02.02-14.45-14.45.02-.02-5.09-5.09L0 39.38l8.05 8.05c.59-.59 1.27-1.03 1.99-1.32.36-.15.74-.26 1.11-.33s.76-.11 1.15-.11.77.04 1.15.11c.51.1 1 .29 1.48.52.58.28 1.14.65 1.63 1.13.59.59 1.03 1.27 1.32 1.99s.44 1.49.44 2.26c0 1.54-.59 3.08-1.76 4.25l8.05 8.05 9.75-9.75-5.08-5.08Zm26.66-32.61c-.29.29-.61.55-.94.77a6.05 6.05 0 0 1-3.31.99 6.017 6.017 0 0 1-4.25-10.27L39.38 0l-9.73 9.73 5.08 5.08 14.45 14.44 5.09 5.09L64 24.61z"/>
</svg>
