<svg viewBox="0 0 32 32" xmlns="http://www.w3.org/2000/svg">
  <path d="M27.97 8.28c-.59.59-1.36.88-2.13.88s-1.54-.29-2.13-.88a3.01 3.01 0 0 1 0-4.25L19.69 0 0 19.69l4.03 4.03c.59-.59 1.36-.88 2.13-.88s1.54.29 2.13.88a3.01 3.01 0 0 1 0 4.25L12.32 32l19.69-19.69-4.03-4.03Zm-6.79-3.96c-.7 1.8-.33 3.92 1.12 5.37.95.95 2.21 1.47 3.55 1.47.64 0 1.26-.12 1.83-.34l1.49 1.49-3.44 3.44-3.51-3.51-2.45-2.45-3.51-3.52 3.44-3.44 1.49 1.49ZM7.68 14.84l7.15-7.15 1.52 1.52-7.15 7.15zm2.96 2.93 7.13-7.13 3.6 3.6-7.13 7.13zm12.14-2.13 1.52 1.52-7.15 7.15-1.52-1.52zM10.82 27.68c.7-1.8.33-3.92-1.12-5.37a5 5 0 0 0-3.55-1.47c-.64 0-1.26.12-1.83.34l-1.49-1.49 3.44-3.44 3.51 3.51h.01l2.45 2.43-.02.02 3.51 3.51-3.44 3.44-1.49-1.49Z"/>
</svg>
