<svg viewBox="0 0 24 24" xmlns="http://www.w3.org/2000/svg">
  <path d="M11.14 3.63 14.77 0l1.51 1.51 1.51 1.51a2.24 2.24 0 0 0-.66 1.59c0 .18.03.35.07.53.09.39.29.76.59 1.07.28.28.61.45.96.56a2.2 2.2 0 0 0 2.23-.56L24 9.23l-3.63 3.63-3.91-3.91-.02.02-1.28-1.28.02-.02zm5.15 7.67L12.7 7.71l-4.99 5 3.59 3.59zM9.9 4.87 4.86 9.91l1.58 1.58 5.03-5.04-1.58-1.58Zm-1.06 11.5.03-.03-1.26-1.26-.02.02-3.96-3.96L0 14.77l3.02 3.02c.11-.11.23-.21.35-.29.38-.25.81-.37 1.24-.37a2.22 2.22 0 0 1 1.59.66 2.256 2.256 0 0 1-.01 3.2l3.02 3.02 3.62-3.62-4.01-4.01Zm10.29-2.27-1.58-1.58-5.03 5.04 1.58 1.58 5.04-5.04Z"/>
</svg>
