<svg viewBox="0 0 16 16" xmlns="http://www.w3.org/2000/svg">
  <path d="M12.34 5.41v1.71s-.6-.03-1.05-.14c-.62-.17-1.02-.42-1.02-.42s-.28-.18-.3-.2v3.52c0 .2-.05.69-.21 1.09-.14.35-.33.67-.58.96 0 0-.38.48-1.06.79-.61.29-1.14.28-1.3.29 0 0-.92.04-1.75-.53-.28-.2-.53-.43-.74-.7-.26-.34-.42-.73-.47-.85-.07-.2-.21-.68-.18-1.14.03-.82.31-1.32.38-1.44.19-.34.44-.65.74-.91a3.2 3.2 0 0 1 2.46-.72v1.75a1.453 1.453 0 0 0-1.9 1.39c0 .81.65 1.46 1.45 1.46.25 0 .49-.06.71-.19.42-.24.7-.67.73-1.16s0-.01 0-.02V3.01h1.72s-.02.16.02.42a2.37 2.37 0 0 0 1.28 1.72c.44.22.87.29 1.08.26Z"/>
</svg>
