<svg viewBox="0 0 64 64" xmlns="http://www.w3.org/2000/svg">
  <path d="M0 0v63.99h64V0zm49.34 28.45s-2.41-.1-4.2-.58c-2.5-.67-4.1-1.69-4.1-1.69s-1.11-.73-1.19-.78v14.1c0 .78-.21 2.74-.83 4.38-.54 1.4-1.32 2.69-2.3 3.83 0 0-1.53 1.9-4.23 3.18-2.43 1.15-4.57 1.13-5.21 1.15 0 0-3.69.15-7.01-2.11l-.02-.02v.02c-1.12-.78-2.13-1.73-2.98-2.81-1.05-1.34-1.7-2.94-1.87-3.4v-.02c-.27-.79-.82-2.71-.74-4.56.13-3.26 1.23-5.27 1.52-5.77.76-1.37 1.76-2.6 2.94-3.63a12.8 12.8 0 0 1 9.84-2.88v7a5.8 5.8 0 0 0-1.79-.28c-3.2 0-5.8 2.61-5.8 5.83s2.59 5.83 5.8 5.83c1 0 1.98-.26 2.84-.75a5.85 5.85 0 0 0 2.94-4.63v-.21c.02-.35.02-.7.02-1.06V12.02h6.87s-.08.66.09 1.68c.21 1.23.77 2.98 2.28 4.7.6.65 1.28 1.23 2.02 1.72.25.17.52.32.79.46 1.76.88 3.47 1.14 4.32 1.05z"/>
</svg>
