<svg viewBox="0 0 48 48" xmlns="http://www.w3.org/2000/svg">
  <path d="M37.01 16.23v5.12s-1.81-.08-3.15-.43c-1.87-.5-3.07-1.27-3.07-1.27s-.83-.55-.9-.59v10.57c0 .59-.16 2.06-.62 3.28a9.8 9.8 0 0 1-1.73 2.87s-1.15 1.43-3.17 2.38c-1.82.86-3.43.84-3.9.86 0 0-2.77.11-5.26-1.58h-.01c-.84-.59-1.6-1.3-2.23-2.11-.79-1.01-1.27-2.2-1.4-2.55-.2-.61-.62-2.05-.55-3.43.1-2.45.92-3.95 1.14-4.33.57-1.03 1.32-1.95 2.21-2.72a9.58 9.58 0 0 1 7.38-2.16v5.25a4.4 4.4 0 0 0-1.34-.21c-2.4 0-4.35 1.96-4.35 4.38s1.95 4.38 4.35 4.38c.75 0 1.48-.19 2.13-.56a4.36 4.36 0 0 0 2.2-3.47s0-.04 0-.06v-.1c.01-.26.01-.53.01-.79V9.02h5.15s-.06.49.07 1.26c.16.92.58 2.23 1.71 3.53.45.49.96.92 1.52 1.29.19.12.39.24.59.34 1.32.66 2.6.86 3.24.79Z"/>
</svg>
