<svg viewBox="0 0 24 24" xmlns="http://www.w3.org/2000/svg">
  <path d="M0 0v24h24V0zm18.5 10.67s-.9-.04-1.58-.22c-.94-.25-1.54-.63-1.54-.63s-.42-.28-.45-.29v5.29c0 .29-.08 1.03-.31 1.64-.2.52-.5 1.01-.86 1.44 0 0-.58.71-1.59 1.19-.91.43-1.71.42-1.95.43 0 0-1.38.06-2.63-.79-.42-.29-.8-.65-1.12-1.05-.39-.5-.64-1.1-.7-1.28-.1-.3-.31-1.02-.28-1.72.05-1.22.46-1.98.57-2.16.29-.51.66-.97 1.1-1.36a4.78 4.78 0 0 1 3.69-1.08v2.62c-.22-.07-.45-.11-.67-.11-1.2 0-2.17.98-2.17 2.19s.97 2.19 2.17 2.19c.37 0 .74-.1 1.07-.28.63-.36 1.05-1.01 1.1-1.74s0-.02 0-.03V4.51h2.58s-.03.25.03.63c.08.46.29 1.12.85 1.76.23.24.48.46.76.64.1.06.19.12.3.17.66.33 1.3.43 1.62.39v2.56Z"/>
</svg>
