<svg viewBox="0 0 40 40" xmlns="http://www.w3.org/2000/svg">
  <path d="M21.97 19.94c0-6.05-4.93-10.97-10.99-10.97S0 13.89 0 19.94s4.93 10.97 10.99 10.97 10.99-4.92 10.99-10.97ZM9.82 22.27l-.04-.02s-.04-.04-.06-.05c-.09-.06-.18-.12-.25-.2-.05-.05-.08-.12-.12-.18-.03-.05-.07-.1-.09-.16-.04-.11-.06-.22-.07-.33 0-.02-.01-.04-.01-.06v-.11l-.04-5.04c0-.62.5-1.13 1.12-1.13s1.12.5 1.13 1.12l.03 4.45 2.14 1.06a1.122 1.122 0 1 1-1 2.01L9.88 22.3zM37.75-.02H9.84v7.93c.38-.04.76-.06 1.15-.06 6.68 0 12.11 5.43 12.11 12.09s-5.43 12.09-12.11 12.09c-.39 0-.77-.02-1.15-.06v8h27.91c1.24 0 2.25-1.01 2.25-2.25V2.23c0-1.24-1.01-2.25-2.25-2.25m-3.63 25.05h-7.57v-2.34c1.89-1.29 4.31-3.21 4.31-4.65 0-.81-.68-1.16-1.59-1.16-.84 0-1.79.29-2.55.78v-2.48c.87-.39 2.16-.67 3.35-.67 2.3 0 3.91 1.11 3.91 3.2 0 1.67-.93 3.01-3.39 4.95h3.55v2.37Z"/>
</svg>
