<svg viewBox="0 0 24 24" xmlns="http://www.w3.org/2000/svg">
  <path d="M22.25-.04H5.91v5.42C2.59 5.72 0 8.53 0 11.94s2.6 6.21 5.91 6.56v5.47h16.34c.97 0 1.75-.78 1.75-1.75V1.71c0-.97-.78-1.75-1.75-1.75M1.75 11.94c0-2.67 2.18-4.84 4.85-4.84s4.85 2.17 4.85 4.84-2.18 4.84-4.85 4.84-4.85-2.17-4.85-4.84m20.5 10.27H7.66v-3.77c3.13-.51 5.54-3.23 5.54-6.5s-2.4-5.99-5.54-6.5V1.71h14.58v20.5ZM5.8 13.48s-.05-.04-.07-.06c-.06-.04-.12-.08-.17-.13-.04-.05-.07-.1-.1-.15-.02-.04-.05-.08-.07-.12a.7.7 0 0 1-.05-.25c0-.02-.01-.04-.01-.06v-.08l-.02-2.91c0-.48.39-.88.87-.88s.87.39.88.87l.02 2.45 1.12.56c.43.21.61.74.4 1.17-.15.31-.46.49-.79.49q-.195 0-.39-.09l-1.55-.77h-.02l-.04-.02Zm13.62 1.51h-4.54v-1.4c1.14-.77 2.59-1.93 2.59-2.79 0-.49-.41-.69-.96-.69-.51 0-1.07.17-1.53.47V9.09c.52-.23 1.3-.4 2.01-.4 1.38 0 2.34.67 2.34 1.92 0 1-.56 1.81-2.04 2.97h2.13V15Z"/>
</svg>
