<svg viewBox="0 0 24 24" xmlns="http://www.w3.org/2000/svg">
  <path d="M13.2 11.94c0-3.64-2.96-6.59-6.6-6.59S0 8.31 0 11.94s2.96 6.59 6.6 6.59 6.6-2.96 6.6-6.59M5.85 13.5l-.04-.02s-.04-.04-.07-.05a.6.6 0 0 1-.18-.14c-.04-.04-.06-.09-.09-.14-.03-.04-.06-.08-.08-.13-.03-.08-.04-.16-.05-.24 0-.02-.01-.04-.01-.07v-.08l-.02-2.91c0-.48.39-.88.87-.88s.87.39.88.87l.02 2.45 1.12.56c.43.21.61.74.4 1.17-.15.31-.46.49-.79.49q-.195 0-.39-.09l-1.55-.77s-.01 0-.02-.01ZM22.25-.04H5.91V4.5q.345-.03.69-.03c4.12 0 7.48 3.35 7.48 7.47s-3.35 7.47-7.48 7.47q-.345 0-.69-.03v4.59h16.34c.97 0 1.75-.78 1.75-1.75V1.71c0-.97-.78-1.75-1.75-1.75M19.85 15h-1.87v-4.65l-1.41.82V9.69l1.55-.9h1.73z"/>
</svg>
