<svg viewBox="0 0 32 32" xmlns="http://www.w3.org/2000/svg">
  <path d="M17.43 15.98c0-4.75-3.89-8.62-8.68-8.62S.08 11.23.08 15.98s3.89 8.62 8.68 8.62 8.68-3.87 8.68-8.62Zm-9.67 1.91s-.04-.03-.06-.05c-.08-.05-.16-.1-.22-.17-.05-.05-.07-.1-.11-.16-.03-.05-.06-.09-.09-.15-.04-.09-.05-.19-.06-.28 0-.02-.01-.04-.01-.07v-.09l-.03-3.89c0-.55.44-1 1-1.01.55 0 1 .44 1.01.99l.02 3.37 1.6.79c.5.25.7.84.45 1.34-.17.35-.53.56-.9.56-.15 0-.3-.03-.45-.1l-2.08-1.02s-.03-.01-.04-.02l-.04-.02Zm23.97-17c-.07-.11-.15-.21-.25-.3q-.135-.135-.3-.24c-.32-.22-.71-.34-1.13-.34H7.83V6.4c.3-.03.61-.05.92-.05 5.34 0 9.68 4.32 9.68 9.62s-4.34 9.62-9.68 9.62c-.31 0-.62-.02-.92-.05v6.45h22.23c.42 0 .8-.13 1.13-.34.21-.14.4-.33.54-.54.22-.32.34-.7.34-1.12V2.01c0-.41-.13-.8-.34-1.12M27.2 20.05h-6.08v-1.87c1.52-1.03 3.46-2.57 3.46-3.72 0-.65-.54-.92-1.28-.92-.68 0-1.44.23-2.05.62v-1.98c.7-.31 1.74-.54 2.69-.54 1.85 0 3.14.89 3.14 2.55 0 1.33-.75 2.41-2.73 3.96h2.85v1.89Z"/>
</svg>
