<svg viewBox="0 0 24 24" xmlns="http://www.w3.org/2000/svg">
  <path fill="#1e1e1c" d="m19.96 6.88.91-.91c.34-.34.34-.89 0-1.24s-.9-.34-1.24 0l-.91.91a10.4 10.4 0 0 0-5.84-2.42V1.74h2.31V0H8.82v1.75h2.31v1.48c-5.34.44-9.55 4.91-9.55 10.36C1.58 19.33 6.26 24 12 24s10.42-4.67 10.42-10.41c0-2.56-.93-4.9-2.47-6.71ZM12 22.25c-4.78 0-8.67-3.89-8.67-8.66S7.22 4.93 12 4.93s8.67 3.89 8.67 8.66-3.89 8.66-8.67 8.66m3.8-10.87c.34.34.34.9 0 1.24l-3.18 3.18c-.17.17-.4.26-.62.26s-.45-.08-.62-.26L6.8 11.22a.88.88 0 0 1 0-1.24c.34-.34.9-.34 1.24 0l3.97 3.96 2.56-2.56c.34-.34.9-.34 1.24 0Z"/>
</svg>
