<svg viewBox="0 0 32 32" xmlns="http://www.w3.org/2000/svg">
  <path d="M29.99 0H7.76v7.39C3.41 7.86 0 11.53 0 15.98s3.4 8.12 7.76 8.57v7.46h22.23c1.11 0 2.01-.9 2.01-2v-28C32.01.9 31.11 0 29.99 0M2.02 15.98c0-3.65 2.99-6.62 6.67-6.62s6.67 2.97 6.67 6.62-2.99 6.62-6.67 6.62-6.67-2.97-6.67-6.62m27.97 14.03H9.78v-5.48c4.27-.54 7.59-4.16 7.59-8.55s-3.32-8.01-7.59-8.55V2.01H30v28ZM7.69 17.88s-.04-.04-.07-.05a.9.9 0 0 1-.21-.17c-.04-.05-.07-.1-.11-.16-.03-.05-.07-.1-.09-.15-.04-.09-.05-.19-.06-.28 0-.02-.01-.04-.01-.07v-.1l-.03-3.89c0-.55.44-1 1-1.01.55 0 1 .44 1.01.99l.02 3.37 1.6.79c.5.25.7.85.45 1.34a1.016 1.016 0 0 1-1.35.46l-2.08-1.02s-.02-.01-.03-.02l-.04-.02Zm18.18 2.17h-6.08v-1.87c1.52-1.03 3.46-2.57 3.46-3.72 0-.65-.54-.92-1.28-.92-.68 0-1.44.23-2.05.62v-1.98c.7-.31 1.74-.54 2.69-.54 1.85 0 3.14.89 3.14 2.55 0 1.33-.75 2.41-2.73 3.96h2.85v1.89Z"/>
</svg>
