<svg viewBox="0 0 16 16" xmlns="http://www.w3.org/2000/svg">
  <path fill="#1e1e1c" d="M14.99 8.89c0 3.91-3.18 7.1-7.1 7.1S.8 12.8.8 8.89c0-.51.05-1.02.16-1.51l2.44.53c-.07.32-.1.64-.1.98a4.6 4.6 0 0 0 9.2 0c0-2.1-1.42-3.85-3.35-4.4V6.1L5.58 3.05 9.15-.01v1.92C12.47 2.5 15 5.4 15 8.89ZM4.26 6.06 2.29 4.52c-.3.38-.56.79-.77 1.22l2.24 1.11c.14-.28.3-.54.5-.79m1.58-1.29L4.73 2.53c-.43.21-.84.47-1.22.77l1.54 1.97c.25-.19.51-.36.79-.5m3.3 5.39V6.45h-2.5v2.67l-1.27 1.27 1.77 1.77 1.99-1.99Z"/>
</svg>
