<svg viewBox="0 0 16 16" xmlns="http://www.w3.org/2000/svg">
  <path d="M14.48 0H3.95v3.6C1.72 3.86-.02 5.74-.02 8.05s1.74 4.18 3.97 4.45v3.51h10.53c.83 0 1.5-.67 1.5-1.5V1.5c0-.83-.67-1.5-1.5-1.5m-13 8.05c0-1.65 1.34-3 2.99-3s3 1.35 3 3-1.34 3-3 3-2.99-1.35-2.99-3m13 6.45H5.45v-2.07c2.01-.45 3.52-2.24 3.52-4.38S7.46 4.11 5.45 3.66V1.5h9.03zM3.88 9.21s-.04-.03-.06-.05a.6.6 0 0 1-.15-.12c-.03-.04-.05-.08-.08-.12-.02-.04-.05-.08-.07-.12-.02-.06-.03-.12-.04-.19 0-.03-.02-.05-.02-.08V6.57c-.02-.41.32-.75.73-.75s.75.33.75.75v1.5l.65.32a.748.748 0 0 1-.33 1.42.8.8 0 0 1-.33-.08l-1-.5h-.01zm9.06.81H9.92v-.94c.75-.52 1.72-1.28 1.72-1.86 0-.32-.27-.46-.63-.46-.34 0-.71.11-1.02.31v-.99c.35-.16.86-.27 1.33-.27.92 0 1.56.44 1.56 1.28 0 .67-.37 1.21-1.35 1.98h1.41z"/>
</svg>
