<svg viewBox="0 0 48 48" xmlns="http://www.w3.org/2000/svg">
  <path d="M26.38 23.97c0-7.27-5.92-13.18-13.2-13.18S-.01 16.7-.01 23.97s5.92 13.18 13.2 13.18 13.2-5.91 13.2-13.18ZM11.7 26.61c-.1-.06-.19-.12-.27-.21-.06-.06-.1-.14-.15-.21-.03-.06-.07-.11-.1-.17-.05-.13-.07-.26-.08-.4v-.19l-.05-6.11c0-.69.55-1.25 1.24-1.26.69 0 1.25.55 1.25 1.24l.04 5.47 2.66 1.32c.62.31.87 1.06.57 1.68-.22.44-.66.69-1.12.69-.19 0-.38-.04-.56-.13l-3.26-1.61-.06-.03-.05-.02s-.05-.04-.08-.06ZM45.48.01H11.81V9.6c.45-.04.91-.07 1.37-.07 7.97 0 14.45 6.47 14.45 14.43s-6.48 14.43-14.45 14.43c-.46 0-.92-.03-1.37-.07V48h33.67a2.5 2.5 0 0 0 2.5-2.5V2.51c.01-1.38-1.11-2.5-2.5-2.5m-4.64 30.07h-9.08v-2.81c2.27-1.55 5.17-3.85 5.17-5.58 0-.97-.81-1.39-1.91-1.39-1.01 0-2.14.34-3.06.94v-2.97c1.05-.47 2.6-.81 4.02-.81 2.76 0 4.69 1.33 4.69 3.83 0 2-1.12 3.62-4.07 5.94h4.25v2.84Z"/>
</svg>
