<svg viewBox="0 0 40 40" xmlns="http://www.w3.org/2000/svg">
  <path d="M21.97 19.94c0-6.05-4.93-10.97-10.99-10.97S0 13.89 0 19.94s4.93 10.97 10.99 10.97 10.99-4.92 10.99-10.97ZM9.83 22.27l-.04-.02s-.04-.04-.07-.05c-.09-.06-.17-.11-.24-.19-.05-.06-.09-.12-.13-.19l-.09-.15a.8.8 0 0 1-.07-.35c0-.02-.01-.03-.01-.05v-.12l-.04-5.03c0-.62.5-1.13 1.12-1.13s1.12.5 1.13 1.12l.03 4.45 2.14 1.06a1.122 1.122 0 1 1-1 2.01L9.88 22.3s-.03-.02-.05-.03M37.75-.02H9.84v7.93c.38-.04.76-.06 1.15-.06 6.68 0 12.11 5.43 12.11 12.09s-5.43 12.09-12.11 12.09c-.39 0-.77-.02-1.15-.06v8h27.91c1.24 0 2.25-1.01 2.25-2.25V2.23c0-1.24-1.01-2.25-2.25-2.25m-5 25.05h-3.12v-7.75l-2.34 1.37v-2.46l2.58-1.5h2.88v10.35Z"/>
</svg>
