<svg viewBox="0 0 32 32" xmlns="http://www.w3.org/2000/svg">
  <path fill="#1e1e1c" d="M31.34 16.97c0 8.28-6.73 15.01-15.01 15.01S1.32 25.25 1.32 16.97c0-.89.08-1.79.24-2.67l1.97.35c-.14.76-.21 1.54-.21 2.31 0 7.17 5.84 13.01 13.01 13.01s13.01-5.84 13.01-13.01S24.04 4.52 17.33 4v1.93l-3.48-2.98 3.48-2.97v2.03c7.81.52 14.01 7.02 14.01 14.96M6.5 8.41 4.99 7.09c-.89 1.02-1.64 2.15-2.22 3.37l1.8.87c.51-1.05 1.15-2.03 1.93-2.92m5.79-3.81-.62-1.9c-1.28.42-2.51 1-3.64 1.75l1.1 1.67c.98-.65 2.04-1.16 3.15-1.52Zm-.22 16.83c.2.2.45.29.71.29s.51-.1.71-.29l3.52-3.52c.12-.12.19-.26.24-.41.05-.12.08-.25.08-.39v-7c0-.55-.45-1-1-1s-1 .45-1 1v6.67l-3.25 3.25a.996.996 0 0 0 0 1.41Z"/>
</svg>
