<svg viewBox="0 0 48 48" xmlns="http://www.w3.org/2000/svg">
  <path d="M45.49 0H11.81v10.84c-6.63.7-11.82 6.32-11.82 13.12s5.19 12.42 11.82 13.11V48h33.67a2.5 2.5 0 0 0 2.5-2.5V2.51A2.495 2.495 0 0 0 45.49 0m-43 23.96c0-5.89 4.8-10.68 10.69-10.68s10.69 4.79 10.69 10.68-4.8 10.68-10.69 10.68S2.49 29.85 2.49 23.96m43 21.55H14.31v-8.42c6.75-.57 12.07-6.24 12.07-13.13s-5.32-12.55-12.07-13.13V2.51h31.17v43ZM11.78 26.66s-.05-.04-.07-.06c-.1-.06-.2-.13-.28-.21-.06-.06-.1-.14-.14-.21-.03-.06-.07-.11-.1-.17-.05-.13-.07-.26-.08-.4v-.19l-.05-6.11c0-.69.55-1.25 1.24-1.26.69 0 1.25.55 1.25 1.24l.04 5.47 2.66 1.32c.62.31.87 1.06.57 1.67-.22.44-.66.7-1.12.7-.19 0-.38-.04-.55-.13l-3.26-1.61-.06-.03-.04-.02Zm21.66-5.9-2.81 1.64v-2.95l3.1-1.8h3.46v12.42h-3.75z"/>
</svg>
