<svg viewBox="0 0 40 40" xmlns="http://www.w3.org/2000/svg">
  <path fill="#1e1e1c" d="m32.99 11.3 1.79-1.79c.44-.44.44-1.15 0-1.59s-1.15-.44-1.59 0L31.4 9.71c-2.78-2.44-6.35-4-10.27-4.26v-3.2h4.27V0H14.62v2.25h4.27v3.2C9.86 6.03 2.7 13.53 2.7 22.7S10.46 40 20 40s17.3-7.76 17.3-17.3c0-4.37-1.64-8.35-4.31-11.4M20 37.75C11.7 37.75 4.95 31 4.95 22.7S11.7 7.65 20 7.65 35.05 14.4 35.05 22.7 28.3 37.75 20 37.75m6.19-18.55c.44.44.44 1.15 0 1.59l-5.39 5.39c-.22.22-.51.33-.8.33s-.58-.11-.8-.33l-7.59-7.6c-.44-.44-.44-1.15 0-1.59s1.15-.44 1.59 0l6.8 6.8 4.6-4.6c.44-.44 1.15-.44 1.59 0Z"/>
</svg>
