<svg viewBox="0 0 16 16" xmlns="http://www.w3.org/2000/svg">
  <path d="M8.97 8.05c0-2.48-2.02-4.5-4.49-4.5s-4.5 2.02-4.5 4.5 2.02 4.5 4.49 4.5 4.49-2.02 4.49-4.5ZM3.91 9.23l-.03-.02s-.03-.03-.05-.04c-.06-.04-.11-.07-.16-.12-.03-.03-.05-.07-.07-.11a.5.5 0 0 1-.07-.13c-.02-.06-.03-.12-.04-.18 0-.03-.02-.05-.02-.08V6.59c-.02-.41.32-.75.73-.75s.75.33.75.75v1.5l.65.32a.748.748 0 0 1-.33 1.42.8.8 0 0 1-.33-.08l-1-.5s-.01 0-.02-.01ZM14.48 0H3.95v2.85c.17-.02.34-.05.52-.05 2.89 0 5.24 2.35 5.24 5.25S7.36 13.3 4.47 13.3c-.18 0-.35-.04-.52-.05v2.76h10.53c.83 0 1.5-.67 1.5-1.5V1.5c0-.83-.67-1.5-1.5-1.5m-.54 10.02h-3.02v-.94c.75-.52 1.72-1.28 1.72-1.86 0-.32-.27-.46-.63-.46-.34 0-.71.11-1.02.31v-.99c.35-.16.86-.27 1.33-.27.92 0 1.56.44 1.56 1.28 0 .67-.37 1.21-1.35 1.98h1.41z"/>
</svg>
