<svg viewBox="0 0 32 32" xmlns="http://www.w3.org/2000/svg">
  <path fill="#1e1e1c" d="m26.47 9.09 1.35-1.35a.996.996 0 1 0-1.41-1.41l-1.35 1.35c-2.19-1.9-4.98-3.12-8.05-3.34V2h3.29V0h-8.57v2h3.29v2.34c-7.17.52-12.86 6.5-12.86 13.81s6.22 13.86 13.86 13.86 13.86-6.22 13.86-13.86c0-3.46-1.28-6.62-3.39-9.05ZM16 30C9.46 30 4.14 24.68 4.14 18.14S9.46 6.28 16 6.28s11.86 5.32 11.86 11.86S22.54 30 16 30m4.99-14.71c.39.39.39 1.02 0 1.41l-4.29 4.29c-.2.2-.45.29-.71.29s-.51-.1-.71-.29l-5.97-5.97a.996.996 0 1 1 1.41-1.41l5.27 5.27 3.58-3.58a.996.996 0 0 1 1.41 0Z"/>
</svg>
