<svg viewBox="0 0 48 48" xmlns="http://www.w3.org/2000/svg">
  <path fill="#1e1e1c" d="M45.71 25.89C45.71 38.08 35.79 48 23.6 48S1.49 38.08 1.49 25.89c0-.93.06-1.86.17-2.78l4.47.56c-.09.73-.14 1.48-.14 2.22 0 9.71 7.9 17.61 17.61 17.61s17.6-7.9 17.6-17.61c0-8.94-6.71-16.33-15.35-17.44v3.62L18.8 6.04 25.85 0v3.9c11.14 1.13 19.86 10.56 19.86 21.99M16.56 9.73 14.77 5.6c-1.59.69-3.1 1.57-4.49 2.61l2.7 3.6c1.11-.83 2.31-1.53 3.57-2.08Zm-7.08 5.58-3.6-2.71a22.4 22.4 0 0 0-2.61 4.49l4.13 1.79c.55-1.26 1.25-2.47 2.08-3.57m11.86-1.42v12.55l-5.71 5.71 3.18 3.18 7.01-7.01h.02V13.89z"/>
</svg>
