<svg viewBox="0 0 16 16" xmlns="http://www.w3.org/2000/svg">
  <path fill="#1e1e1c" d="M15.44 8.62c0 4.06-3.31 7.37-7.37 7.37S.7 12.68.7 8.62c0-.28.02-.56.05-.83l1.49.17c-.02.22-.04.44-.04.67 0 3.24 2.63 5.87 5.87 5.87s5.87-2.63 5.87-5.87c0-2.98-2.24-5.45-5.12-5.82v1.21L6.47 2.01 8.82 0v1.3c3.71.38 6.62 3.52 6.62 7.33ZM5.77 3.21l-.58-1.38c-.55.23-1.07.53-1.55.9l.9 1.2c.38-.29.8-.53 1.24-.71ZM3.36 5.1l-1.2-.9c-.36.48-.66 1.01-.89 1.56l1.38.58c.18-.44.42-.86.71-1.24m2.49 5.82c.15.15.34.22.53.22s.38-.07.53-.22l1.66-1.66c.08-.08.13-.16.17-.26s.07-.2.07-.31V5.38c0-.41-.34-.75-.75-.75s-.75.34-.75.75V8.4L5.85 9.86c-.29.29-.29.77 0 1.06"/>
</svg>
