<svg viewBox="0 0 64 64" xmlns="http://www.w3.org/2000/svg">
  <path d="M61.36 0H15.67v14.75C6.94 15.68.12 23.04.12 31.95s6.82 16.27 15.54 17.19v14.87h45.69a2.76 2.76 0 0 0 2.77-2.75V2.76A2.76 2.76 0 0 0 61.35.01ZM2.89 31.95c0-8.02 6.56-14.54 14.62-14.54s14.62 6.52 14.62 14.54-6.56 14.54-14.62 14.54S2.89 39.97 2.89 31.95m58.47 29.31H18.43V49.19c9.16-.48 16.46-8.02 16.46-17.24s-7.31-16.76-16.46-17.24V2.76h42.93zm-46-26.27s-.05-.06-.08-.09a1 1 0 0 0-.06-.08 1 1 0 0 1-.1-.19c-.1-.22-.14-.47-.11-.72l-.06-8.13c0-.76.61-1.38 1.37-1.39h.01c.76 0 1.38.61 1.38 1.36l.06 7.47 3.72 1.83c.68.34.96 1.16.63 1.84-.24.48-.73.76-1.24.76-.21 0-.42-.05-.61-.14l-4.36-2.15c-.14-.05-.26-.13-.37-.21l-.01-.01a1 1 0 0 1-.15-.14Zm36.51 5.1H39.7v-3.74c3.04-2.06 6.93-5.14 6.93-7.44 0-1.3-1.09-1.85-2.56-1.85-1.35 0-2.87.46-4.1 1.25v-3.96c1.4-.62 3.48-1.08 5.38-1.08 3.69 0 6.28 1.78 6.28 5.11 0 2.66-1.5 4.82-5.46 7.92h5.7z"/>
</svg>
