<svg viewBox="0 0 32 32" xmlns="http://www.w3.org/2000/svg">
  <path d="m14.96 21.88.06 10.03-12.14-7.44a2.9 2.9 0 0 1-1.52-2.56V8.33l8.2 4.44a6.7 6.7 0 0 0-.42 2.34c0 3.43 2.53 6.27 5.82 6.77m15.67.03V8.33l-8.2 4.44c.27.73.42 1.52.42 2.34 0 3.45-2.57 6.31-5.89 6.78l.06 10.12 12.02-7.51c.99-.54 1.58-1.52 1.58-2.59ZM17.34.34c-.84-.44-1.84-.44-2.69 0L2.5 6.67l8.02 4.34c1.25-1.67 3.24-2.76 5.48-2.76s4.23 1.09 5.48 2.76l8.02-4.34zm3.51 14.77c0-2.68-2.18-4.85-4.85-4.85s-4.86 2.18-4.86 4.85 2.18 4.86 4.86 4.86 4.85-2.18 4.85-4.86"/>
</svg>
