<svg viewBox="0 0 64 64" xmlns="http://www.w3.org/2000/svg">
  <path d="m30.56 42.73.13 21.07L6.17 48.78a6.23 6.23 0 0 1-3.27-5.49V15.84l17.27 9.35c-.61 1.49-.96 3.12-.96 4.83 0 6.56 4.97 11.98 11.35 12.7Zm11.48-12.7c0-5.54-4.5-10.04-10.04-10.04s-10.04 4.5-10.04 10.04S26.46 40.07 32 40.07s10.04-4.5 10.04-10.04m19.07 13.26V15.84l-17.27 9.35c.61 1.49.96 3.12.96 4.83 0 6.61-5.04 12.06-11.48 12.72L33.45 64l24.32-15.19c2.09-1.14 3.34-3.24 3.34-5.53ZM34.89.72c-1.8-.94-3.96-.94-5.77 0L4.46 13.56l17.02 9.22c2.31-3.34 6.16-5.54 10.52-5.54s8.21 2.2 10.52 5.54l17.02-9.22z"/>
</svg>
