<svg viewBox="0 0 40 40" xmlns="http://www.w3.org/2000/svg">
  <path d="M38.25 10.24v17.03c0 1.37-.75 2.62-2.01 3.31L21.16 40l-.08-12.85c4.11-.53 7.3-4.05 7.3-8.31 0-1.04-.2-2.04-.55-2.96zm-26.64 8.6c0-1.04.2-2.04.55-2.96L1.74 10.24v17.03c0 1.37.75 2.62 1.95 3.27l15.22 9.33-.08-12.73c-4.07-.57-7.22-4.07-7.22-8.29Zm14.52 0c0-3.38-2.75-6.13-6.13-6.13s-6.13 2.75-6.13 6.13 2.75 6.13 6.13 6.13 6.13-2.75 6.13-6.13M20 10.45c2.78 0 5.24 1.36 6.76 3.45l10.22-5.54L21.72.42a3.73 3.73 0 0 0-3.44 0L3.02 8.37l10.22 5.54c1.53-2.09 3.99-3.45 6.76-3.45Z"/>
</svg>
