<svg viewBox="0 0 64 64" xmlns="http://www.w3.org/2000/svg">
  <path d="M60.19 13.69 35.82 1a8.25 8.25 0 0 0-7.64 0L3.81 13.69c-.46.24-.74.71-.74 1.22v26.9c0 3.04 1.66 5.82 4.27 7.23l24.18 14.82c.22.14.47.2.72.2s.51-.07.73-.21l23.64-14.77a8.26 8.26 0 0 0 4.33-7.27v-26.9c0-.51-.29-.98-.74-1.22ZM29.45 3.44c1.59-.83 3.5-.83 5.09 0l22.07 11.49-15.06 8.16c-2.12-3-5.61-4.97-9.55-4.97s-7.43 1.97-9.55 4.97L7.38 14.94zM32 38.77c-4.93 0-8.94-4.01-8.94-8.94s4.01-8.94 8.94-8.94 8.94 4.01 8.94 8.94-4.01 8.94-8.94 8.94M5.82 41.81V17.22l15.31 8.29c-.53 1.33-.83 2.78-.83 4.31 0 5.96 4.49 10.89 10.26 11.6l.12 18.69L8.71 46.65a5.5 5.5 0 0 1-2.89-4.85Zm49.4 4.89L33.44 60.31l-.12-18.86c5.83-.66 10.38-5.61 10.38-11.62 0-1.52-.3-2.97-.83-4.31l15.31-8.29v24.59c0 2.02-1.11 3.88-2.96 4.89Z"/>
</svg>
