<svg viewBox="0 0 24 24" xmlns="http://www.w3.org/2000/svg">
  <path d="M21.85 18.4 12.89 24l-.05-7.4c2.53-.41 4.47-2.59 4.47-5.24 0-.6-.12-1.18-.31-1.72l5.99-3.24v10.13c0 .77-.42 1.48-1.14 1.87M6.67 11.36c0-.6.12-1.18.31-1.72L.99 6.4v10.13c0 .77.42 1.48 1.1 1.84l9.05 5.55-.05-7.32c-2.51-.43-4.42-2.61-4.42-5.23Zm8.89 0c0-1.97-1.6-3.57-3.57-3.57s-3.57 1.6-3.57 3.57 1.6 3.57 3.57 3.57 3.57-1.6 3.57-3.57M12.96.24a2.08 2.08 0 0 0-1.94 0L1.98 4.95l5.83 3.16c.98-1.25 2.48-2.07 4.18-2.07s3.21.82 4.18 2.07L22 4.95z"/>
</svg>
