<svg viewBox="0 0 40 40" xmlns="http://www.w3.org/2000/svg">
  <path d="M37.5 8.46 22.48.64a5.37 5.37 0 0 0-4.96 0L2.49 8.46c-.37.19-.61.58-.61 1v16.58c0 1.97 1.08 3.78 2.76 4.69l14.91 9.13a1.12 1.12 0 0 0 1.19 0l14.56-9.1a5.37 5.37 0 0 0 2.81-4.72V9.46c0-.42-.23-.8-.61-1M18.56 2.63c.9-.47 1.98-.47 2.88 0l13.14 6.85-8.62 4.67c-1.37-1.81-3.53-2.98-5.97-2.98s-4.6 1.18-5.97 2.98L5.4 9.48l13.14-6.85ZM20 23.89c-2.89 0-5.24-2.35-5.24-5.24s2.35-5.24 5.24-5.24 5.24 2.35 5.24 5.24-2.35 5.24-5.24 5.24M4.14 26.04V11.35l8.82 4.78c-.28.79-.45 1.64-.45 2.53 0 3.73 2.75 6.83 6.33 7.39l.07 10.79-13.13-8.05a3.13 3.13 0 0 1-1.64-2.74Zm30.03 2.78-13.01 8.13-.07-10.9c3.61-.53 6.4-3.64 6.4-7.4 0-.89-.16-1.74-.45-2.53l8.82-4.78v14.69c0 1.15-.63 2.2-1.69 2.78Z"/>
</svg>
