<svg viewBox="0 0 32 32" xmlns="http://www.w3.org/2000/svg">
  <path d="M2.06 13.07c-2.34-2.54-2.65-6.2-1.05-9.06l5.33 5.32 3.01-3.01L4.01.99C7.08-.72 11.03-.2 13.53 2.5c2.06 2.23 2.56 5.35 1.57 8.01l.43.39 1.06 1.06-2.29 2.29-.74-.74c-.57-.57-1.32-.88-2.12-.88s-1.56.31-2.12.88l-1.97 1.97c-1.95-.09-3.86-.88-5.27-2.41Zm29.01 17.9h-.01a3.17 3.17 0 0 1-4.51.01l-8.15-8.15.12-.12c.57-.57.88-1.32.88-2.12s-.31-1.55-.88-2.12l-.68-.68 2.29-2.29 10.96 10.95a3.18 3.18 0 0 1 0 4.51Zm-1.4-2.44c0-.55-.45-1-1-1s-1 .45-1 1 .45 1 1 1 1-.45 1-1M17.1 19.88c.39.39.39 1.02 0 1.41l-9.83 9.82c-.59.59-1.35.88-2.12.88s-1.54-.29-2.12-.88L.9 28.98a3 3 0 0 1 0-4.24l9.83-9.82c.1-.1.21-.17.33-.22.24-.1.51-.1.75 0 .12.05.23.12.33.22l1.81 1.81 9.29-9.29-.75-.75a2 2 0 0 1-.58-1.2c-.08-.72.24-1.48.92-1.9L28.45.03 32 3.58 28.43 9.2c-.09.14-.2.27-.32.38-.04.04-.08.06-.13.1-.08.07-.17.13-.26.18-.05.03-.11.05-.17.08-.09.04-.17.08-.27.1-.06.02-.12.03-.19.04q-.135.03-.27.03c-.03 0-.07.01-.1.01-.04 0-.08 0-.12-.01-.06 0-.11 0-.16-.02-.08-.01-.17-.03-.25-.05-.05-.01-.1-.03-.15-.05-.09-.03-.17-.08-.26-.12a2.2 2.2 0 0 1-.46-.34l-.68-.68-9.29 9.29 1.74 1.74Zm-5.7-1.36c-.39-.39-1.02-.39-1.42 0l-7.04 7.04a.996.996 0 0 0 .71 1.7c.26 0 .51-.1.71-.29l7.04-7.04a.996.996 0 0 0 0-1.41"/>
</svg>
