<svg viewBox="0 0 32 32" xmlns="http://www.w3.org/2000/svg">
  <path d="M30.83 25.06 19.66 13.93l4.98-4.96.68.68c.4.39.91.58 1.41.58.66 0 1.31-.32 1.69-.93l3.57-5.61L28.45.16l-5.63 3.56a1.984 1.984 0 0 0-.34 3.09l.75.74-4.98 4.96-1.91-1.91c.8-2.78.1-5.75-1.89-7.9A8.325 8.325 0 0 0 4.28 1.11l-1.16.64 5.25 5.23-1.42 1.41-5.24-5.22-.64 1.16a8.245 8.245 0 0 0 1.13 9.65c1.8 1.94 4.4 2.83 7.02 2.54l-8.33 8.3a2.99 2.99 0 0 0 0 4.23l2.13 2.13c.59.58 1.35.88 2.12.88s1.54-.29 2.12-.88l9.18-9.15 8.72 8.69c.76.75 1.76 1.17 2.83 1.17s2.07-.41 2.84-1.18c.76-.75 1.17-1.75 1.17-2.82s-.42-2.07-1.17-2.82ZM23.9 5.41l4.27-2.7 1.28 1.28-2.71 4.26-.68-.68.02-.02-1.42-1.41-.02.02-.75-.74ZM3.67 12.63a6.25 6.25 0 0 1-1.39-6.07l4.67 4.65 4.25-4.23-4.69-4.67c2.29-.69 4.8-.05 6.47 1.75a6.26 6.26 0 0 1 1.27 6.49l-.23.63 2.79 2.77-2.82 2.81-1.95-1.94-.86-.87-.61.22c-2.44.91-5.22.29-6.91-1.54Zm2.18 17.13a1.017 1.017 0 0 1-1.42 0L2.3 27.63a.996.996 0 0 1 0-1.41l9.12-9.09 3.55 3.54zm23.56-.46c-.78.78-2.05.78-2.83 0L15.41 18.17l2.82-2.81 11.19 11.11c.38.38.59.88.59 1.41s-.21 1.03-.6 1.42m-.55-1.51c0 .55-.45 1-1 1s-1-.45-1-1 .45-1 1-1 1 .45 1 1m-17.11-8.22c.39.39.39 1.02 0 1.41l-6.42 6.4c-.2.19-.45.29-.71.29s-.51-.1-.71-.29a.996.996 0 0 1 0-1.41l6.42-6.4c.39-.39 1.02-.39 1.42 0"/>
</svg>
