<svg viewBox="0 0 24 24" xmlns="http://www.w3.org/2000/svg">
  <path d="m14.93 10.43 3.64-3.63.12.12a1.85 1.85 0 0 0 2.86-.31L24 2.77 21.34.1l-3.86 2.44c-1 .63-1.15 2.02-.32 2.86l.17.17-3.64 3.63-1.17-1.17c.58-2.1.04-4.34-1.46-5.97-2-2.17-5.2-2.67-7.79-1.24l-1.01.56 3.96 3.95-.88.88-3.96-3.93-.56 1.01c-1.34 2.41-1 5.38.86 7.39 1.28 1.38 3.09 2.07 4.95 1.98L.66 18.59c-.88.88-.88 2.3 0 3.17l1.6 1.59c.44.44 1.02.66 1.59.66s1.15-.22 1.59-.66l6.8-6.77 6.39 6.37c.61.61 1.41.91 2.21.91s1.61-.31 2.22-.92a3.114 3.114 0 0 0 0-4.41l-8.14-8.11Zm3.49-6.42 2.67-1.69.68.68-1.69 2.66s-.03.04-.08.04a.1.1 0 0 1-.07-.03l-1.52-1.52s-.03-.03-.03-.08.03-.06.04-.07ZM2.97 9.49A4.55 4.55 0 0 1 1.9 5.26l3.44 3.43L8.7 5.34 5.25 1.9c1.61-.4 3.35.07 4.52 1.34 1.19 1.28 1.54 3.1.93 4.74l-.21.55 1.94 1.92-1.82 1.82-1.27-1.26a.8.8 0 0 0-.41-.2l-.39-.39-.53.2c-1.79.66-3.81.21-5.05-1.12Zm1.24 12.63c-.12.12-.26.15-.35.15s-.23-.03-.35-.15l-1.6-1.59c-.2-.19-.2-.51 0-.71l6.8-6.77 2.31 2.3-6.8 6.77Zm17.62-.4c-.54.53-1.41.54-1.95 0l-6.62-6.6a.67.67 0 0 0-.2-.41l-1.22-1.21 1.83-1.82 8.16 8.1c.26.26.4.6.4.97s-.14.71-.41.98Zm-.22-1.1c0 .48-.39.87-.88.87s-.88-.39-.88-.87.39-.87.88-.87.88.39.88.87M9.16 14.5c.34.34.34.89 0 1.23l-4.74 4.72c-.17.17-.4.26-.62.26s-.45-.08-.62-.26a.87.87 0 0 1 0-1.23l4.74-4.72c.34-.34.9-.34 1.24 0"/>
</svg>
