<svg viewBox="0 0 16 16" xmlns="http://www.w3.org/2000/svg">
  <path d="M15.47 13.09c.65.65.65 1.69 0 2.34s-1.7.65-2.34 0l-4.15-4.15.27-.27c.49-.49.49-1.27 0-1.76l-.16-.16 1.2-1.2 5.2 5.19ZM3.78 8.01 5 6.79c.23-.23.55-.36.88-.36s.64.13.88.36l.19.19 1.2-1.2L8 5.63l-.22-.2A4.03 4.03 0 0 0 2.04.49l2.77 2.77-1.56 1.56L.48 2.05c-.83 1.48-.67 3.38.55 4.7.74.8 1.74 1.21 2.76 1.25Zm4.23 1.08 2.65-2.65 1.82-1.82q.15.135.33.21c.02 0 .04.02.06.03.13.05.26.07.4.08h.1c.06 0 .11-.01.17-.02s.12-.03.17-.05c.03-.01.07-.02.1-.04s.07-.03.1-.05.09-.06.14-.1c.11-.09.21-.18.3-.31l1.62-2.56L14.2.06l-2.56 1.62c-.08.05-.16.11-.22.18-.04.04-.07.08-.1.12-.02.03-.05.06-.07.09-.03.05-.05.11-.08.17-.01.03-.03.05-.04.08-.14.42-.06.91.29 1.26L6.95 8.04l-.72-.72a.485.485 0 0 0-.7 0L.48 12.36c-.58.58-.58 1.53 0 2.11l1.06 1.06c.15.15.31.26.49.33s.37.11.56.11c.38 0 .76-.15 1.06-.44l5.05-5.05c.19-.19.19-.51 0-.7z"/>
</svg>
