<svg viewBox="0 0 48 48" xmlns="http://www.w3.org/2000/svg">
  <path d="M46.32 37.9 29.15 20.74l7.64-7.64 1.2 1.2a3.006 3.006 0 0 0 4.66-.51L48 5.35 42.68.02l-8.44 5.35a3.005 3.005 0 0 0-.51 4.66l1.3 1.3-7.64 7.64-3.26-3.26c1.23-4.13.22-8.58-2.73-11.78A12.226 12.226 0 0 0 6.43 1.56l-1.45.81 7.81 7.81-2.48 2.48-7.79-7.81-.81 1.45C-.87 10.94-.21 16.66 3.37 20.54c2.76 2.99 6.83 4.32 10.85 3.69L1.33 37.11a4.503 4.503 0 0 0 0 6.37l3.2 3.2c.88.88 2.03 1.32 3.18 1.32s2.31-.44 3.18-1.32l13.95-13.94 13.32 13.31c1.09 1.09 2.53 1.69 4.07 1.69s2.98-.6 4.09-1.7 1.69-2.53 1.69-4.07-.6-2.98-1.69-4.07M35.58 7.49l6.75-4.28 2.49 2.49-4.28 6.75c-.13.2-.32.23-.43.23a.47.47 0 0 1-.35-.15l-4.27-4.27c-.14-.14-.16-.3-.14-.41s.06-.26.23-.37ZM5.21 18.84c-2.45-2.66-3.18-6.41-2.01-9.77l7.12 7.11 6.02-6.01-7.13-7.13a9.71 9.71 0 0 1 10.35 2.58c2.5 2.71 3.25 6.55 1.96 10.02l-.29.78 4.36 4.34-4.58 4.58-3.21-3.21-1.18-1.2-.76.28c-3.76 1.4-8.03.44-10.64-2.38Zm3.92 26.07c-.38.38-.88.59-1.42.59s-1.04-.21-1.42-.59l-3.2-3.2a1.983 1.983 0 0 1 0-2.82l13.94-13.93 6.03 6.03L9.12 44.92Zm35.41-.63c-1.23 1.23-3.37 1.23-4.6 0L22.77 27.12l4.58-4.58 17.21 17.13a3.247 3.247 0 0 1-.02 4.61m-1-2.45c0 .83-.67 1.5-1.5 1.5s-1.5-.67-1.5-1.5.67-1.5 1.5-1.5 1.5.67 1.5 1.5M17.52 28.71c.49.49.49 1.28 0 1.77L7.25 40.74c-.24.24-.56.37-.88.37s-.64-.12-.88-.37a1.25 1.25 0 0 1 0-1.77l10.27-10.26a1.25 1.25 0 0 1 1.77 0Z"/>
</svg>
