<svg viewBox="0 0 40 40" xmlns="http://www.w3.org/2000/svg">
  <path d="M38.58 31.44 24.41 17.28l6.31-6.31.94.94c.49.49 1.13.73 1.77.73.82 0 1.63-.4 2.12-1.16l4.46-7.03L35.57.02l-7.04 4.46a2.504 2.504 0 0 0-.43 3.88l1.02 1.02-6.31 6.31-2.53-2.53c1.01-3.46.16-7.17-2.31-9.85-3.23-3.51-8.39-4.33-12.57-2l-1.3.72 6.53 6.53-1.95 1.95-6.51-6.52-.73 1.3C-.73 9.2-.17 14 2.83 17.26c2.25 2.44 5.53 3.55 8.82 3.13L1.11 30.93a3.75 3.75 0 0 0 0 5.31l2.67 2.67a3.74 3.74 0 0 0 5.3 0l11.57-11.56 11.02 11.02c.92.92 2.15 1.43 3.45 1.43s2.53-.51 3.46-1.44c1.9-1.9 1.9-5 0-6.9ZM29.74 6.38l5.51-3.49 1.89 1.88-3.5 5.51c-.06.1-.15.12-.21.12-.09 0-.14-.04-.17-.07L29.7 6.77s-.08-.08-.07-.2.09-.17.11-.18ZM4.49 15.73a8 8 0 0 1-1.7-7.93l5.9 5.89 5.13-5.13-5.91-5.9c2.95-.98 6.24-.18 8.41 2.17a8 8 0 0 1 1.61 8.26l-.26.71 3.53 3.51-3.68 3.68-2.35-2.35s-.07-.04-.1-.06l-.1-.1-1.02-1.04-.68.25c-3.1 1.15-6.63.36-8.77-1.96Zm3 21.58a1.5 1.5 0 0 1-2.12 0L2.7 34.64a1.49 1.49 0 0 1 0-2.12l11.57-11.56 4.79 4.79zm29.49-.55c-.99.99-2.72.99-3.71 0L21.45 24.94s-.04-.07-.06-.1l-2.27-2.27 3.68-3.68L37 33.03c1.02 1.02 1.02 2.69-.01 3.73Zm-.77-1.98a1.25 1.25 0 1 1-2.5 0 1.25 1.25 0 0 1 2.5 0M14.27 24.26c.44.44.44 1.15 0 1.59L6.5 33.62c-.22.22-.51.33-.8.33s-.58-.11-.8-.33c-.44-.44-.44-1.15 0-1.59l7.77-7.77c.44-.44 1.15-.44 1.59 0Z"/>
</svg>
