<svg viewBox="0 0 48 48" xmlns="http://www.w3.org/2000/svg">
  <path fill="#1e1e1c" d="M20.07 27.85c-7.18.75-9.54 16.32-9.99 19.87-.43.18-1.34.36-2.27.25-.75-.09-1.04-.31-1.07-.35-1.95-4.03-1.94-15.68-1.7-21.96l.12.03c1.19.38 2.03-.08 3.16.32.11.04.22-.1.16-.2-.45-.9-1.79-1.35-2.46-1.93-.3-.26-.45-.69-.84-.86l-.19-.32c-.07-.12-6.88-11.82-4.5-18.4.64-1.77 1.9-2.97 3.85-3.67.04-.02 4.65-1.64 9.12.4l.17.06c2.72.77 7.01.54 10.41.16-.03.04-.05.07-.08.1-.55.75-1.12 1.51-1.85 2.14l-1.61.99c-.78.32-1.71.53-2.89.53a1.25 1.25 0 0 0 0 2.5c4.94 0 6.92-2.71 8.37-4.69.62-.84 1.15-1.57 1.69-1.76l.1-.04c4.47-2.04 9.07-.42 9.13-.4 1.94.7 3.2 1.89 3.84 3.67 1.55 4.27-.77 10.68-2.61 14.7a15.7 15.7 0 0 0-3.59-.42c-6.41 0-11.93 3.81-14.46 9.27Zm27.91 6.68c0 7.42-6.03 13.45-13.45 13.45s-13.45-6.03-13.45-13.45 6.03-13.45 13.45-13.45 13.45 6.03 13.45 13.45m-7.65-5.41c-.57-.38-1.35-.23-1.73.35l-5.31 7.99-3.63-2.55a1.25 1.25 0 0 0-1.74.3c-.4.56-.26 1.34.3 1.74l5.73 4.03 6.73-10.12c.38-.58.23-1.35-.35-1.73Z"/>
</svg>
