<svg viewBox="0 0 16 16" xmlns="http://www.w3.org/2000/svg">
  <path fill="#1e1e1c" d="M7.11 9.04c-.09-.01-.19-.03-.29-.03-2.76 0-3.69 5.17-3.93 6.97-.2.04-.48.03-.62-.02-.58-1.34-.6-4.87-.53-7.03.33 0 .55-.13.93-.11.06 0 .11-.06.09-.12-.08-.36-.61-.6-.76-.87-.08-.11-.24-.33-.25-.33l-.06-.11C1.04 6.29-.49 3.06.15 1.29.34.76.71.42 1.3.21c.01 0 1.49-.52 2.92.13l.1.04c.84.24 1.95.26 2.9.22-.32.31-.73.52-1.43.52-.41 0-.75.34-.75.75s.34.75.75.75c1.87 0 2.64-1.06 3.15-1.75.14-.18.32-.43.47-.51.01 0 .03-.01.04-.02 1.42-.64 2.89-.13 2.91-.12.59.21.95.55 1.14 1.08.5 1.37-.3 3.61-.99 5.06q-.3-.03-.6-.03c-2.03 0-3.81 1.1-4.79 2.73ZM16 11.91c0 2.26-1.84 4.1-4.1 4.1s-4.1-1.84-4.1-4.1 1.84-4.1 4.1-4.1 4.1 1.84 4.1 4.1m-2.27-1.83a.745.745 0 0 0-1.04.21l-1.25 1.88-.67-.47a.753.753 0 1 0-.87 1.23l1.93 1.36 2.1-3.16c.23-.34.13-.81-.21-1.04Z"/>
</svg>
