<svg viewBox="0 0 32 32" xmlns="http://www.w3.org/2000/svg">
  <path fill="#1e1e1c" d="M13.34 18.43c-4.9.5-6.53 10.85-6.85 13.42-.54.2-1.72.18-1.96-.03-1.26-2.62-1.29-10.09-1.14-14.36.79.2 1.31-.11 2.08.1.47-.09-.51-.9-.72-1.01-.35-.2-.58-.36-.76-.54s-.26-.47-.5-.57v-.11l-.15-.26C3.29 14.99-1.25 7.19.33 2.83.74 1.66 1.55.89 2.82.43 2.85.42 5.89-.65 8.83.69l.14.05c1.87.53 4.55.47 6.59.3-.79 1.05-1.73 2.03-3.87 2.03-.55 0-1 .45-1 1s.45 1 1 1c3.4 0 4.82-1.94 5.76-3.22.38-.52.74-1.02 1.14-1.16.05-.02.1-.04.14-.06.01 0 .02 0 .03-.01C21.65-.6 24.57.42 24.6.44c1.26.45 2.07 1.23 2.49 2.37 1.02 2.8-.5 7.03-1.73 9.71-.73-.15-1.48-.24-2.25-.24-4.3 0-8.02 2.52-9.78 6.16Zm18.65 4.72c0 4.89-3.98 8.87-8.87 8.87s-8.87-3.98-8.87-8.87 3.98-8.87 8.87-8.87 8.87 3.98 8.87 8.87m-4.89-3.77c-.46-.31-1.08-.18-1.39.28l-3.48 5.23-2.3-1.62a.996.996 0 0 0-1.39.24.994.994 0 0 0 .24 1.39l3.98 2.8 4.61-6.94c.31-.46.18-1.08-.28-1.39Z"/>
</svg>
