<svg viewBox="0 0 24 24" xmlns="http://www.w3.org/2000/svg">
  <path fill="#1e1e1c" d="M10.26 13.71h-.02c-3.96 0-5.27 7.77-5.58 10.2-.39.11-1.11.11-1.26.01-.94-1.94-.96-7.48-.85-10.71.53.07.9-.13 1.46-.02.08.01.14-.07.11-.14-.17-.49-.9-.8-1.19-1.14-.11-.13-.15-.33-.3-.42v-.04l-.13-.23C1.53 9.59-.75 4.75.22 2.06c.3-.83.89-1.39 1.81-1.72.01 0 .87-.31 2.04-.31.73 0 1.58.12 2.42.5l.12.05c1.43.41 3.3.41 4.7.33-.55.67-1.23 1.2-2.61 1.2-.48 0-.88.39-.88.88s.39.88.88.88c2.63 0 3.73-1.49 4.45-2.48.27-.36.54-.74.82-.84 2.18-.99 4.44-.2 4.46-.19.92.33 1.51.89 1.81 1.72.73 2.02-.36 5.23-1.36 7.4-.45-.08-.9-.12-1.37-.12-3.14 0-5.87 1.77-7.26 4.37Zm13.73 3.85c0 3.57-2.9 6.47-6.47 6.47s-6.47-2.9-6.47-6.47 2.9-6.47 6.47-6.47 6.47 2.9 6.47 6.47m-3.44-2.92a.87.87 0 0 0-1.21.24l-2.51 3.78-1.6-1.13a.88.88 0 0 0-1.22.21c-.28.4-.18.94.21 1.22l3.07 2.16 3.51-5.27a.87.87 0 0 0-.24-1.21Z"/>
</svg>
