<svg viewBox="0 0 32 32" xmlns="http://www.w3.org/2000/svg">
  <path fill="#1e1e1c" d="M26.23 13.15c1.15-2.66 2.38-6.56 1.34-9.43-.56-1.55-1.68-2.63-3.33-3.22-.14-.05-3.42-1.22-6.67.26-.06.02-.11.04-.17.07-.05 0-.09 0-.14.01-.04 0-4.32.62-6.9-.08C7.06-.71 3.83.45 3.7.5 2.04 1.09.92 2.17.36 3.72c-1.54 4.24 1.87 10.71 2.66 12.13-.11 2.07-.52 11.52 1.13 14.92.33.67 1.07 1.1 2.11 1.19.79.08 2.31-.03 2.95-.9l.16-.22.03-.27c.36-3.18 1.37-7.28 2.78-9.31-.02.28-.04.56-.04.84 0 4.57 3.13 8.42 7.36 9.55.55.24 1.2.32 1.72.32h.19c.21.01.42.03.63.03 5.46 0 9.91-4.44 9.91-9.89 0-3.97-2.35-7.38-5.74-8.96ZM7.47 29.89c-.46.14-1.33.13-1.51 0-1.1-2.27-1.12-8.74-1-12.51.63.09 1.06-.15 1.72-.01.09.02.16-.08.12-.16-.2-.57-1.05-.92-1.39-1.31-.14-.15-.18-.39-.36-.49v-.05l-.15-.26C3.77 13.19 1.1 7.55 2.25 4.4c.35-.97 1.05-1.63 2.13-2.02.02 0 1.02-.36 2.38-.36.86 0 1.85.14 2.84.59l.14.05c1.68.48 3.89.48 5.53.38-.65.8-1.45 1.44-3.09 1.44-.55 0-1 .45-1 1s.45 1 1 1c3.07 0 4.34-1.74 5.18-2.89.33-.45.64-.87.96-.99 2.56-1.16 5.2-.24 5.23-.23 1.08.39 1.77 1.05 2.13 2.02.8 2.19-.26 5.59-1.35 8.09-.73-.17-1.49-.27-2.28-.27-4.07 0-7.58 2.47-9.1 5.98-1.6.59-4.42 2.9-5.49 11.69Zm14.59.12c-4.36 0-7.91-3.54-7.91-7.89s3.55-7.89 7.91-7.89 7.91 3.54 7.91 7.89-3.55 7.89-7.91 7.89m3.64-11.37c.46.31.59.93.28 1.39l-4.22 6.33-3.68-2.58a.996.996 0 0 1-.24-1.39c.32-.45.94-.56 1.4-.24l1.99 1.4 3.08-4.62c.31-.46.93-.59 1.39-.28Z"/>
</svg>
