<svg viewBox="0 0 16 16" xmlns="http://www.w3.org/2000/svg">
  <path fill="#1e1f1d" d="M14.81 1.97c-.29-.82-.91-1.41-1.76-1.72-.07-.03-1.75-.63-3.39.12-.02 0-.03.01-.05.02h-.05C9 .47 7.35.63 6.36.36 4.68-.38 3.04.21 2.97.24c-.86.31-1.47.9-1.77 1.72-.76 2.11.78 5.15 1.26 6.02-.06 1.16-.23 5.6.58 7.27.2.41.64.67 1.23.73.55.05 1.31-.06 1.66-.54l.12-.16.02-.2C6.33 12.77 7.19 10.2 8 10.2s1.67 2.57 1.93 4.88l.02.2.12.16c.3.41.91.55 1.42.55.08 0 .17 0 .25-.01.6-.06 1.03-.31 1.23-.73.8-1.67.63-6.11.57-7.27.48-.87 2.02-3.91 1.26-6.02Zm-2.67 5.46-.12.2c-.03.08-.04.17-.09.23-.15.28-.67.51-.75.87-.02.06.03.12.09.12.33-.02.53.09.8.12.06 1.96-.01 4.5-.41 5.52-.08.02-.2.02-.3 0-.22-1.59-1.03-5.79-3.37-5.79s-3.15 4.19-3.37 5.79h-.3c-.41-1.04-.47-3.69-.4-5.66.17-.05.33-.12.56-.13.27-.1-.12-.49-.25-.62a.64.64 0 0 1-.26-.31c0-.01 0-.03-.01-.04v-.09l-.04-.08c0-.02-.01-.04-.03-.05l-.04-.07c-.52-.89-1.77-3.52-1.26-4.95.14-.4.42-.66.87-.82.01 0 1.19-.41 2.32.1l.1.04c.6.17 1.32.23 1.98.22-.19.09-.42.14-.73.14-.41 0-.75.34-.75.75s.34.75.75.75c1.61 0 2.3-.94 2.71-1.51.1-.13.24-.33.36-.39 1.13-.52 2.31-.11 2.32-.1.45.16.72.42.86.82.52 1.42-.73 4.06-1.26 4.95Z"/>
</svg>
