<svg viewBox="0 0 24 24" xmlns="http://www.w3.org/2000/svg">
  <path fill="#1e1f1d" d="M19.69 13.24c.11 3.24.09 8.75-.8 10.63-.2.16-.97.17-1.31.08-.3-2.4-1.6-10.25-5.58-10.25s-5.27 7.78-5.58 10.22c-.39.11-1.12.11-1.26.01-.94-1.94-.96-7.49-.85-10.73.53.07.9-.13 1.46-.02.08.01.14-.07.11-.14-.17-.49-.9-.8-1.19-1.14-.11-.13-.15-.33-.3-.42v-.04l-.13-.23C3.3 9.57 1.01 4.73 1.99 2.03 2.29 1.2 2.88.63 3.8.3c.01 0 .87-.31 2.04-.31.73 0 1.58.12 2.42.5l.12.05c1.43.41 3.3.41 4.7.33-.55.67-1.23 1.2-2.61 1.2-.48 0-.88.39-.88.88s.39.88.88.88c2.63 0 3.73-1.5 4.45-2.49.27-.36.54-.74.82-.84 2.18-1 4.44-.2 4.46-.19.92.33 1.51.89 1.81 1.72.98 2.7-1.31 7.54-2.27 9.18l-.13.22c-.19.11-.27.35-.42.5-.38.37-1.21.69-1.45 1.25-.04.07.03.16.11.14.33-.08.59-.1.87-.05.23.03.6.02.97-.03"/>
</svg>
