<svg viewBox="0 0 16 16" xmlns="http://www.w3.org/2000/svg">
  <path fill="#1e1f1d" d="M13.09 9.06c.06 2.16.03 5.59-.53 6.9-.14.05-.42.05-.62.02-.24-1.8-1.17-6.97-3.93-6.97s-3.69 5.18-3.93 6.97c-.2.04-.48.03-.62-.02-.58-1.34-.6-4.87-.53-7.02.28-.03.49-.13.82-.11.06 0 .11-.06.09-.12-.08-.36-.61-.6-.76-.87-.04-.06-.06-.15-.09-.23v-.02l-.11-.2C2.22 6.29.69 3.06 1.33 1.28 1.52.75 1.88.41 2.47.2c.01 0 1.49-.52 2.92.13l.1.04c.84.24 1.95.26 2.9.22-.32.31-.73.52-1.43.52-.41 0-.75.34-.75.75s.34.75.75.75c1.87 0 2.64-1.06 3.15-1.75.14-.19.32-.44.47-.51.01 0 .03-.01.04-.02 1.42-.64 2.89-.13 2.91-.12.59.21.95.55 1.14 1.08.64 1.78-.89 5.01-1.53 6.11l-.12.2v.02c-.1.08-.13.24-.21.34-.22.3-.82.54-.95.95-.03.06.03.13.09.12.44-.07.72.07 1.13.05Z"/>
</svg>
