<svg viewBox="0 0 40 40" xmlns="http://www.w3.org/2000/svg">
  <path fill="#1e1e1c" d="M16.75 23.08c-6.07.56-8.08 13.58-8.47 16.65-.33.13-.98.26-1.71.2-.64-.06-.92-.24-.94-.26-1.6-3.32-1.61-12.84-1.42-18.13 1 .3 1.68-.09 2.64.21.1.03.19-.09.14-.18-.35-.76-1.49-1.17-2.04-1.67-.23-.21-.35-.54-.63-.69v-.1l-.17-.3c-.06-.1-5.74-9.85-3.76-15.33C.94 2.03 1.97 1.04 3.58.47 3.62.46 7.44-.89 11.15.8l.16.06c2.27.65 5.77.49 8.53.19-.5.69-1.03 1.37-1.74 1.91l-.75.47c-.7.35-1.56.56-2.69.56-.62 0-1.12.5-1.12 1.13s.5 1.13 1.12 1.13c4.17 0 5.91-2.38 7.06-3.96.51-.69.95-1.29 1.46-1.48 3.71-1.69 7.53-.34 7.57-.33 1.6.57 2.64 1.56 3.17 3.02 1.29 3.55-.65 8.88-2.18 12.23-.93-.21-1.9-.32-2.89-.32-5.34 0-9.94 3.15-12.09 7.68Zm23.24 5.72c0 6.15-5 11.15-11.14 11.15s-11.14-5-11.14-11.15 5-11.15 11.14-11.15 11.14 5 11.14 11.15m-6.26-4.59c-.52-.35-1.21-.2-1.56.31l-4.39 6.6-2.96-2.08c-.51-.36-1.21-.24-1.57.27s-.24 1.21.27 1.57l4.85 3.41 5.66-8.52c.34-.52.2-1.22-.31-1.56Z"/>
</svg>
