<svg viewBox="0 0 64 64" xmlns="http://www.w3.org/2000/svg">
  <path fill="#1e1f1d" d="M59.12 7.13c-1.07-2.97-3.23-5.05-6.39-6.18-.27-.1-6.68-2.4-13.2.55-.13.05-.25.1-.38.16h-.33c-.09.01-9.01 1.3-14.4-.19-6.5-2.91-12.88-.62-13.14-.53-3.17 1.14-5.33 3.22-6.4 6.19-3.11 8.58 4.09 21.96 5.47 24.4-.17 3.25-1.11 23.45 2.23 30.37.56 1.16 1.89 1.89 3.76 2.06 1.92.18 4.44-.23 5.43-1.57l.22-.3.04-.37c.64-5.76 3.86-22.21 9.97-22.21s9.32 16.45 9.97 22.21l.04.37.22.3c.85 1.14 2.81 1.61 4.56 1.61.3 0 .59-.01.87-.04 1.87-.18 3.2-.91 3.76-2.06 3.34-6.92 2.41-27.11 2.23-30.37 1.38-2.44 8.58-15.82 5.47-24.4M48.94 60.7c-.03.06-.31.32-1.12.47-1.27.22-2.63-.04-3.18-.29-.52-4.21-3.46-24.11-12.63-24.11S19.9 56.64 19.38 60.87c-.56.27-1.92.52-3.18.3-.82-.14-1.09-.4-1.12-.47-2.6-5.39-2.29-20.85-2.05-26.92.13.04.27.07.39.11 1.29.44 2.5-.03 3.79.48.12.05.25-.1.17-.22-.58-1.07-2.18-1.57-3.02-2.25-.41-.33-.61-.89-1.15-1.08-.03-.01-.05-.02-.08-.03l-.17-.29c-.08-.14-8.38-14.38-5.46-22.44.79-2.19 2.34-3.67 4.75-4.53.06-.02 5.68-2.01 11.16.49l.19.07c3.88 1.11 9.19.92 12.53.64-1.6 2.18-3.29 4.4-7.74 4.4-.76 0-1.38.62-1.38 1.38s.62 1.38 1.38 1.38c5.92 0 8.3-3.25 10.03-5.63.76-1.04 1.42-1.94 2.11-2.19l.11-.04c5.48-2.49 11.1-.51 11.17-.48 2.4.86 3.95 2.34 4.74 4.53 2.92 8.05-5.38 22.29-5.46 22.44l-.19.32c-.59.28-.89.87-1.38 1.23-1.05.78-2.91 1.26-3.66 2.5-.08.11.04.27.17.22.7-.28 1.35-.42 2.04-.41.76 0 1.63-.06 2.39-.32.18-.06.38-.11.57-.17.23 6.14.53 21.47-2.06 26.83Z"/>
</svg>
