<svg viewBox="0 0 64 64" xmlns="http://www.w3.org/2000/svg">
  <path fill="#1e1e1c" d="M26.3 37.46c-8.93 1.77-11.86 21.84-12.38 26.09-.59.3-2.08.6-3.49.39-.9-.14-1.35-.43-1.43-.59-2.87-5.94-2.5-23.01-2.25-29.54.2.06.4.11.59.17 1.39.48 2.72.01 4.1.6.13.05.25-.1.17-.22-.66-1.15-2.39-1.65-3.33-2.37-.46-.35-.7-.95-1.29-1.17-.03-.01-.07-.02-.1-.04l-.2-.34C6.6 30.28-2.48 14.71.72 5.88 1.58 3.44 3.3 1.8 5.96.85c.06-.02 6.24-2.21 12.27.54l.19.07c3.65 1.04 9.66.65 14.32.08-.17.23-.34.46-.51.7-.54.74-1.09 1.49-1.73 2.17l-4.06 2.45c-.82.21-1.75.34-2.83.34-.76 0-1.38.62-1.38 1.38s.62 1.38 1.38 1.38c6.39 0 8.96-3.52 10.84-6.08.84-1.15 1.57-2.14 2.36-2.43l.11-.04c6.03-2.74 12.2-.56 12.27-.53 2.65.95 4.37 2.59 5.25 5.01 2.05 5.66-.94 14.09-3.38 19.46-1.71-.45-3.5-.72-5.36-.72-8.7 0-16.19 5.3-19.4 12.85Zm37.72 8.22C64.02 55.78 55.8 64 45.7 64s-18.32-8.22-18.32-18.32S35.6 27.36 45.7 27.36s18.32 8.22 18.32 18.32m-10.72-7c-.63-.42-1.49-.25-1.91.38L44.1 50.02l-5.12-3.6a1.378 1.378 0 0 0-1.59 2.25l7.43 5.22 8.85-13.31c.42-.63.25-1.49-.38-1.91Z"/>
</svg>
