<svg viewBox="0 0 32 32" xmlns="http://www.w3.org/2000/svg">
  <path fill="#1e1f1d" d="M26.33 17.48c.15 4.28.13 11.73-1.11 14.31-.26.26-1.49.27-1.98.1-.33-2.59-2.03-13.48-7.23-13.48S9.12 29.23 8.78 31.87c-.54.2-1.72.19-1.96-.03-1.26-2.62-1.29-10.1-1.14-14.38.79.2 1.31-.11 2.08.1.47-.09-.51-.9-.72-1.02-.35-.2-.58-.36-.76-.54s-.26-.47-.5-.58v-.11l-.15-.26c-.05-.08-4.6-7.89-3.01-12.26C3.04 1.64 3.85.87 5.12.42c.03-.01 3.07-1.08 6.02.26l.14.05c1.87.54 4.55.47 6.59.3-.79 1.05-1.73 2.03-3.87 2.03-.55 0-1 .45-1 1s.45 1 1 1c3.4 0 4.82-1.94 5.76-3.22.38-.52.74-1.02 1.14-1.16.05-.02.1-.04.14-.06.01 0 .02 0 .03-.01 2.89-1.22 5.81-.2 5.85-.18C28.18.88 29 1.66 29.41 2.8c1.58 4.37-2.97 12.18-3.01 12.26l-.16.26v.03c-.33.13-.45.48-.7.7-.53.47-1.61.82-1.96 1.54-.05.08.03.19.12.16.41-.13.77-.17 1.15-.13.38.02.95 0 1.49-.13Z"/>
</svg>
