<svg viewBox="0 0 16 16" xmlns="http://www.w3.org/2000/svg">
  <path fill="#1e1e1c" d="M13.18 6.72c.57-1.32 1.18-3.26.65-4.75-.29-.82-.91-1.41-1.76-1.72-.07-.03-1.75-.63-3.39.12-.02 0-.03.01-.05.02h-.05c-.56.08-2.21.24-3.2-.03C3.7-.38 2.05.21 1.99.24 1.11.57.5 1.16.21 1.98-.55 4.09.99 7.13 1.47 8c-.06 1.15-.23 5.6.58 7.26.2.41.64.67 1.23.73.55.05 1.31-.06 1.66-.54l.12-.16.02-.2c.18-1.61.66-3.35 1.2-4.25 0 .1-.03.2-.03.31 0 2.05 1.27 3.79 3.06 4.52.33.25.79.35 1.19.35.09 0 .17 0 .25-.01h.04c.11 0 .22.03.33.03 2.69 0 4.87-2.19 4.87-4.88 0-1.95-1.16-3.63-2.82-4.41Zm-9.53 7.76h-.3c-.41-1.05-.47-3.71-.4-5.68.17-.05.32-.12.55-.13.27-.1-.12-.49-.25-.61a.64.64 0 0 1-.26-.31v-.11l-.04-.09c0-.02-.02-.05-.03-.06l-.03-.05c-.52-.89-1.77-3.52-1.26-4.94.14-.4.42-.66.87-.82.01 0 1.19-.41 2.32.1l.1.04c.6.17 1.32.23 1.98.22-.19.09-.42.14-.73.14-.41 0-.75.34-.75.75s.34.75.75.75c1.61 0 2.3-.94 2.71-1.51.1-.13.24-.33.36-.39 1.13-.52 2.31-.11 2.32-.1.45.16.72.42.86.82.37 1.02-.17 2.65-.7 3.83-.2-.02-.39-.06-.59-.06-1.8 0-3.36 1-4.2 2.46-2.27.11-3.06 4.2-3.28 5.77Zm7.48.02c-1.86 0-3.37-1.51-3.37-3.37s1.51-3.37 3.37-3.37 3.37 1.51 3.37 3.37-1.51 3.37-3.37 3.37m1.84-5.22c.34.23.44.7.21 1.04l-2.12 3.18-1.94-1.37a.753.753 0 1 1 .87-1.23l.68.48 1.26-1.9c.23-.35.69-.44 1.04-.21Z"/>
</svg>
