<svg viewBox="0 0 32 32" xmlns="http://www.w3.org/2000/svg">
  <path d="M24.11 21.24c-2.97 0-5.38 2.41-5.38 5.38S21.14 32 24.11 32s5.38-2.41 5.38-5.38-2.41-5.38-5.38-5.38m0 7.26c-1.04 0-1.88-.84-1.88-1.88s.84-1.88 1.88-1.88 1.88.84 1.88 1.88-.84 1.88-1.88 1.88m3.91-13.41H32v-1.36c0-1.65-1.35-3-3-3h-2.3V8.82h1.45v-2h-4.91v2h1.45v1.91h-4.14l-2.04-8.3C18.19 1 17.02 0 15.67 0H4.92C3.3 0 1.99 1.43 1.99 3.19v7.79a3.22 3.22 0 0 0-1.96 2.96v5.75c1.52-2.89 4.54-4.87 8.02-4.87 4.99 0 9.06 4.06 9.06 9.06 0 .52-.05 1.02-.14 1.51h.88c.58-2.93 3.16-5.15 6.26-5.15s5.49 2.06 6.18 4.84c1-.49 1.7-1.5 1.7-2.69V17.1h-3.98c-.55 0-1-.45-1-1s.45-1 1-1ZM5.49 8.82h2.43v1.77H5.49zm11.42 1.76h-5.49V3.5h3.75zM7.92 3.5v1.82H5.49V3.5zm.13 12.32C3.61 15.82 0 19.43 0 23.88s3.61 8.06 8.06 8.06 8.06-3.62 8.06-8.06-3.61-8.06-8.06-8.06Zm0 11.62c-1.96 0-3.56-1.6-3.56-3.56s1.6-3.56 3.56-3.56 3.56 1.6 3.56 3.56-1.6 3.56-3.56 3.56"/>
</svg>
