<svg viewBox="0 0 16 16" xmlns="http://www.w3.org/2000/svg">
  <path d="M13.84 7.08H16V6.9c0-.96-.78-1.75-1.75-1.75h-.65V4.07h.75v-1.5h-3v1.5h.75v1.08h-1.75l-.89-3.8C9.3.58 8.69.04 8 .04H2.5C1.67.03 1 .8 1 1.75v3.63C.42 5.69.03 6.3.03 7v2.38a4.76 4.76 0 0 1 4-2.18c2.63 0 4.78 2.14 4.78 4.78 0 .15-.03.29-.04.44.41-1.44 1.72-2.51 3.29-2.51s2.97 1.13 3.33 2.64c.37-.32.61-.79.61-1.32V8.58h-2.16c-.41 0-.75-.34-.75-.75s.34-.75.75-.75M4.01 5.12H3.5V2.53h.51zm2.5 0V2.53h.67l.61 2.59H6.52ZM4.03 7.94C1.81 7.94 0 9.75 0 11.97S1.81 16 4.03 16s4.03-1.81 4.03-4.03-1.81-4.03-4.03-4.03m0 5.06C3.46 13 3 12.54 3 11.97s.46-1.03 1.03-1.03 1.03.46 1.03 1.03S4.6 13 4.03 13m8.03-2.35c-1.48 0-2.69 1.21-2.69 2.69s1.21 2.69 2.69 2.69 2.69-1.21 2.69-2.69-1.21-2.69-2.69-2.69m0 3.22c-.29 0-.53-.24-.53-.53s.24-.53.53-.53.53.24.53.53-.24.53-.53.53"/>
</svg>
