<svg viewBox="0 0 40 40" xmlns="http://www.w3.org/2000/svg">
  <path d="M30.14 26.6c-3.71 0-6.72 3.01-6.72 6.72s3.02 6.72 6.72 6.72 6.72-3.01 6.72-6.72-3.02-6.72-6.72-6.72m0 9.43c-1.5 0-2.72-1.22-2.72-2.72s1.22-2.72 2.72-2.72 2.72 1.22 2.72 2.72-1.22 2.72-2.72 2.72m3.93-17.61h5.92v-1.2c0-2-1.63-3.62-3.63-3.62h-3.12v-2.94h1.94V8.41h-6.14v2.25h1.94v2.94h-4.86l-3-10.86c-.4-1.59-1.87-2.71-3.55-2.71H6.15c-2.02 0-3.66 1.6-3.66 3.56v10.28A3.86 3.86 0 0 0 0 17.48v7.18c1.85-3.87 5.8-6.56 10.37-6.56 6.34 0 11.5 5.15 11.5 11.49 0 .7-.07 1.39-.2 2.06h.8c.77-3.53 3.91-6.18 7.67-6.18s6.73 2.52 7.6 5.91a3.62 3.62 0 0 0 2.25-3.35v-5.86h-6.42v-3.26c0-.28.22-.5.5-.5Zm-23.98-6.7h-3.6V9.95h3.6zm0-5.77h-3.6V4.03h3.6zm4 5.77V4.03h5.26l2.12 7.69zm-3.72 7.51c-5.73 0-10.38 4.64-10.38 10.36s4.65 10.37 10.38 10.37 10.38-4.65 10.38-10.37-4.65-10.37-10.38-10.37Zm0 15.23a4.87 4.87 0 1 1-.001-9.739 4.87 4.87 0 0 1 .001 9.739"/>
</svg>
