<svg viewBox="0 0 24 24" xmlns="http://www.w3.org/2000/svg">
  <path d="M7.62 17.91a1.584 1.584 0 0 1-1.58 1.58 1.584 1.584 0 0 1-1.58-1.58c0-.87.71-1.58 1.58-1.58s1.58.71 1.58 1.58M24 10.3v6.49c0 1.17-.86 2.14-1.98 2.33q.09.405.09.84c0 2.22-1.81 4.03-4.03 4.03a4.037 4.037 0 0 1-3.95-4.83h-2.18c-.58 2.73-3.01 4.79-5.91 4.79-3.33 0-6.04-2.71-6.04-6.04s2.71-6.04 6.04-6.04 5.76 2.45 6.02 5.55h2.92c.74-.9 1.85-1.49 3.1-1.49s2.36.59 3.1 1.49h.44c.34 0 .62-.28.62-.62v-3.09H21c-.48 0-.87-.39-.87-.88s.39-.88.87-.88h1.24V10.3c0-.34-.28-.62-.62-.62H10.44c1.78 1.04 3.23 2.64 4 4.63a.876.876 0 0 1-.82 1.19c-.35 0-.68-.21-.82-.56a7.525 7.525 0 0 0-6.98-4.79c-1.6 0-3.13.5-4.42 1.45-.39.29-.94.2-1.22-.19-.29-.39-.2-.94.19-1.22.36-.26.73-.49 1.12-.7V2.2C1.5.98 2.48 0 3.69 0h8.06c1.01 0 1.89.69 2.13 1.67l1.68 6.25h2.84V5.8h-.97V4.05h3.68V5.8h-.97v2.12h1.48c1.31 0 2.37 1.07 2.37 2.38ZM6.38 5.79H3.25v2.14h3.14V5.8Zm5.37-4.04H8.13v6.17h5.62l-1.56-5.8c-.06-.23-.24-.37-.44-.37m-8.5.45v1.85h3.13v-2.3H3.69c-.24 0-.44.2-.44.44Zm7.08 15.71c0-2.37-1.93-4.29-4.29-4.29s-4.29 1.93-4.29 4.29 1.93 4.29 4.29 4.29 4.29-1.93 4.29-4.29m10.03 2.06a2.279 2.279 0 1 0-4.558-.002 2.279 2.279 0 0 0 4.558.002m-2.28-.8c-.11 0-.21.02-.31.06a.794.794 0 0 0 0 1.46c.09.04.2.06.31.06.44 0 .79-.35.79-.79s-.35-.79-.79-.79"/>
</svg>
