<svg viewBox="0 0 64 64" xmlns="http://www.w3.org/2000/svg">
  <path d="M48.22 42.53c-5.93 0-10.76 4.82-10.76 10.75s4.83 10.75 10.76 10.75 10.76-4.82 10.76-10.75-4.83-10.75-10.76-10.75m0 16.49c-3.17 0-5.76-2.58-5.76-5.75s2.58-5.75 5.76-5.75 5.76 2.58 5.76 5.75-2.58 5.75-5.76 5.75m6.57-30.03h9.2v-1.46c0-2.96-2.41-5.37-5.37-5.37h-5.85v-4.05h2.54v-2.75h-7.82v2.75h2.54v4.05h-8.52L37.04 4.7c-.66-2.75-3-4.68-5.7-4.68H9.84c-3.23 0-5.85 2.75-5.85 6.14v16.3a5.78 5.78 0 0 0-3.96 5.49v9.91c3.3-5.74 9.48-9.63 16.57-9.63 10.53 0 19.1 8.56 19.1 19.08 0 .65-.03 1.3-.1 1.93 1.71-5.34 6.72-9.22 12.63-9.22s11.15 4.07 12.74 9.6c1.79-.87 3.04-2.69 3.04-4.81v-9.83h-10v-5.21c0-.44.36-.8.8-.8Zm-37.94-6.93H8.99v-2.29h7.86zm0-7.29H8.99v-2.46h7.86zm0-7.46H8.99V6.16c0-.67.45-1.13.85-1.13h7.01zm5 14.75V5.02h9.5c.36 0 .7.34.81.81v.05l.02.05 4.13 16.13zm-5.26 8.67C7.44 30.73 0 38.17 0 47.32S7.45 63.9 16.6 63.9s16.6-7.44 16.6-16.58-7.45-16.58-16.6-16.58Zm0 26.67c-5.57 0-10.1-4.52-10.1-10.08s4.53-10.08 10.1-10.08 10.1 4.52 10.1 10.08-4.53 10.08-10.1 10.08"/>
</svg>
