<svg viewBox="0 0 64 64" xmlns="http://www.w3.org/2000/svg">
  <path d="M48.22 49.6c-2.01 0-3.65 1.64-3.65 3.65s1.64 3.65 3.65 3.65 3.65-1.64 3.65-3.65-1.64-3.65-3.65-3.65m0 4.55c-.5 0-.9-.4-.9-.9s.4-.9.9-.9.9.4.9.9-.4.9-.9.9m10.4-32.02h-5.85v-5.3h2.54v-2.75h-7.82v2.75h2.54v5.3H42L37.04 4.3c-.66-2.53-3-4.3-5.7-4.3H9.84C6.61 0 3.99 2.52 3.99 5.64v19.25h.97a23.8 23.8 0 0 0-4.12 2.42 1.373 1.373 0 0 0 1.63 2.21c3.69-2.7 8.05-4.13 12.63-4.13 8.77 0 16.79 5.5 19.96 13.68a1.38 1.38 0 0 0 1.78.79c.71-.27 1.06-1.07.79-1.78-2.3-5.93-6.87-10.6-12.46-13.19h17.59v-.02h15.86c1.45 0 2.62 1.17 2.62 2.62v1.34h-6.45c-1.2 0-2.18.98-2.18 2.17v6.58h8.62v7.2c0 1.44-1.18 2.62-2.62 2.62h-1.38c-1.92-2.95-5.24-4.91-9.02-4.91s-7.1 1.96-9.02 4.91h-6.02v-.13c0-9.14-7.45-16.58-16.6-16.58S0 38.14 0 47.29s7.45 16.58 16.6 16.58c8.17 0 14.96-5.93 16.33-13.71h5c-.29.98-.46 2.01-.46 3.09C37.47 59.18 42.3 64 48.23 64s10.76-4.82 10.76-10.75c0-1.07-.16-2.11-.46-3.09h.1c2.96 0 5.37-2.41 5.37-5.37v-17.3c0-2.96-2.41-5.37-5.37-5.37ZM6.74 17.8h11.23v4.33h-4.62c-.09 0-.18.01-.27.02H6.74zm11.23-2.75H6.74v-4.4h11.23zM34.36 4.97V5l.02.03 4.75 17.1H20.72V2.74h10.62c1.44 0 2.68.92 3.02 2.23M9.84 2.74h8.13V7.9H6.74V5.64c0-1.6 1.39-2.9 3.1-2.9m6.75 58.38c-7.64 0-13.85-6.21-13.85-13.83s6.21-13.83 13.85-13.83 13.85 6.21 13.85 13.83-6.21 13.83-13.85 13.83m31.63.12c-4.41 0-8.01-3.59-8.01-8s3.59-8 8.01-8 8.01 3.59 8.01 8-3.59 8-8.01 8m7.15-26.4v-3.26h5.87v3.26zm-38.78 6.6c-3.22 0-5.85 2.62-5.85 5.84s2.62 5.84 5.85 5.84 5.85-2.62 5.85-5.84-2.62-5.84-5.85-5.84m0 8.94a3.1 3.1 0 0 1-3.1-3.09 3.1 3.1 0 0 1 6.2 0 3.1 3.1 0 0 1-3.1 3.09"/>
</svg>
