<svg viewBox="0 0 48 48" xmlns="http://www.w3.org/2000/svg">
  <path d="M36.16 36.9c-1.68 0-3.05 1.37-3.05 3.05S34.48 43 36.16 43s3.05-1.37 3.05-3.05-1.37-3.05-3.05-3.05m0 3.59c-.3 0-.55-.25-.55-.55s.25-.55.55-.55.55.25.55.55-.25.55-.55.55m7.59-24.1H39.8v-3.73h1.58v-2.5h-5.66v2.5h1.58v3.73h-5.9L27.78 3.26C27.29 1.35 25.53 0 23.51 0H7.38C4.96 0 3 1.92 3 4.28v14.5c-.86.44-1.7.96-2.49 1.54-.56.41-.68 1.19-.27 1.75s1.19.68 1.75.27c2.73-2 5.95-3.06 9.34-3.06 6.49 0 12.42 4.07 14.77 10.12.19.5.66.8 1.16.8.15 0 .3-.03.45-.08.64-.25.96-.97.71-1.62-1.63-4.21-4.77-7.58-8.64-9.61h23.97c.96 0 1.75.78 1.75 1.75v.78h-4.62c-1.02 0-1.85.83-1.85 1.85v5.16h6.46v5.18c0 .96-.78 1.75-1.75 1.75h-.97c-1.46-2.09-3.88-3.47-6.62-3.47s-5.16 1.37-6.62 3.47h-4.66c-.07-6.8-5.62-12.31-12.44-12.31S0 28.62 0 35.47s5.58 12.44 12.45 12.44c6.05 0 11.1-4.34 12.21-10.06h3.72c-.18.67-.29 1.37-.29 2.1 0 4.44 3.62 8.06 8.07 8.06s8.07-3.62 8.07-8.06c0-.73-.11-1.44-.29-2.11 2.25-.1 4.06-1.95 4.06-4.23V20.64a4.26 4.26 0 0 0-4.25-4.25M5.5 13.58h7.77v2.75H5.5zm7.76-2.5H5.49V8.22h7.77zm12.08-7.21v.03l.01.03 3.42 12.41H15.75V2.51h7.74c.88 0 1.63.56 1.84 1.36ZM7.38 2.51h5.88v3.21H5.49V4.28c0-.98.85-1.77 1.89-1.77m5.07 42.9c-5.48 0-9.95-4.46-9.95-9.94s4.46-9.94 9.95-9.94 9.95 4.46 9.95 9.94-4.46 9.94-9.95 9.94m23.71.1c-3.07 0-5.57-2.49-5.57-5.56s2.5-5.56 5.57-5.56 5.57 2.49 5.57 5.56-2.5 5.56-5.57 5.56m5.37-19.59v-2.01h3.96v2.01zm-29.08 5.17c-2.42 0-4.38 1.97-4.38 4.38s1.97 4.38 4.38 4.38 4.38-1.97 4.38-4.38-1.97-4.38-4.38-4.38m0 6.27c-1.04 0-1.88-.84-1.88-1.88s.85-1.88 1.88-1.88 1.88.84 1.88 1.88-.85 1.88-1.88 1.88"/>
</svg>
