<svg viewBox="0 0 64 64" xmlns="http://www.w3.org/2000/svg">
  <path d="M31.63 15.82c4.36 0 7.91-3.55 7.91-7.91S36 0 31.63 0s-7.91 3.55-7.91 7.91 3.55 7.91 7.91 7.91m0-13.07c2.84 0 5.16 2.31 5.16 5.16s-2.32 5.16-5.16 5.16-5.16-2.31-5.16-5.16 2.32-5.16 5.16-5.16m32.34 33.21H60.9v-7.24c0-1.03-.84-1.87-1.88-1.87h-7c-1.03 0-1.88.84-1.88 1.87v7.24h-4.52v-7.64c0-4.96-4.04-8.99-9-8.99h-9.98c-4.96 0-9 4.03-9 8.99v7.64h-3.86v-7.24c0-1.03-.84-1.87-1.88-1.87h-7c-1.03 0-1.88.84-1.88 1.87v7.24H-.03v2.75h3.07v7.07c0 1.03.84 1.87 1.88 1.87h7c1.03 0 1.88-.84 1.88-1.87v-7.07h9.43L25.15 64h12.6l1.92-25.29h10.5v7.07c0 1.03.84 1.87 1.88 1.87h7c1.03 0 1.88-.84 1.88-1.87v-7.07H64v-2.75Zm-52.94 8.95H5.78V29.6h5.25zm14.73-8.96h-5.37v-7.63c0-3.44 2.8-6.24 6.25-6.24h9.98c3.45 0 6.25 2.8 6.25 6.24v7.63h-17.1Zm9.42 25.3h-7.5l-1.71-22.54h10.92zm22.97-16.34H52.9V29.6h5.25z"/>
</svg>
