<svg viewBox="0 0 32 32" xmlns="http://www.w3.org/2000/svg">
  <path fill="#1e1e1c" d="M3.96 17.47H0V0h28.22v17.62l-4.09.02c-2.59-2.9-6.27-4.56-10.16-4.56s-7.42 1.59-10.01 4.38Zm15.02 4.15a6.36 6.36 0 0 1 1.37 3.96c0 3.54-2.88 6.42-6.42 6.42s-6.42-2.88-6.42-6.42a6.46 6.46 0 0 1 2.93-5.39.2.2 0 0 0 .06-.04c.17-.11.34-.21.52-.3.05-.03.1-.05.15-.07.15-.07.31-.14.46-.2.07-.03.14-.05.2-.07.15-.05.3-.1.45-.14l.23-.06c.16-.04.32-.06.48-.09l.21-.03c.23-.03.47-.04.71-.04s.48.02.71.04c.07 0 .14.02.21.03q.24.03.48.09l.23.06c.15.04.3.08.45.14.07.02.14.05.2.07.16.06.31.13.46.2.05.02.1.05.15.07.18.09.35.19.52.3.02.01.04.02.06.04.6.39 1.12.87 1.56 1.43Zm-1.57 3.96c0-1.92-1.56-3.47-3.49-3.47s-3.49 1.56-3.49 3.47 1.56 3.47 3.49 3.47 3.49-1.56 3.49-3.47m11.14-5.96-5.35.03-.3-.36c-2.23-2.67-5.48-4.2-8.94-4.2s-6.58 1.47-8.8 4.03l-.3.34-4.87.02v7.5H5.5v-1.12c0-.09-.01-.18-.01-.27 0-.24.02-.48.04-.71.44-4.26 4.02-7.58 8.36-7.58 4.64 0 8.41 3.8 8.41 8.46h.03q0 .3-.03.6v.62h2.23l2.92-5.35h2.53v2.04c0 .55.45 1 1 1s1-.45 1-1v-4.04h-3.44Zm-14.62 4.49c-.82 0-1.49.66-1.49 1.47s.67 1.47 1.49 1.47 1.49-.66 1.49-1.47-.67-1.47-1.49-1.47"/>
</svg>
