<svg viewBox="0 0 32 32" xmlns="http://www.w3.org/2000/svg">
  <path fill="#1e1e1c" d="M28.21 19.67V0H0v27.02h5.5v-1c0-4.71 3.77-8.53 8.4-8.53s8.4 3.83 8.4 8.53v1h3.25l2.92-5.34H30v2.03c0 .55.45 1 1 1s1-.45 1-1v-4.03h-3.78ZM2 25.02v-3.34h2.43c-.47 1.04-.78 2.16-.89 3.34zm11.89-9.54c-3.39 0-6.4 1.65-8.3 4.19H2V2h24.22v17.67h-4.03c-1.9-2.54-4.91-4.19-8.3-4.19m10.46 9.54h-.11c-.11-1.18-.42-2.3-.89-3.34h2.82l-1.83 3.34ZM13.85 19c-3.57 0-6.47 2.92-6.47 6.5s2.9 6.5 6.47 6.5 6.47-2.92 6.47-6.5-2.9-6.5-6.47-6.5m0 11c-2.46 0-4.47-2.02-4.47-4.5s2-4.5 4.47-4.5 4.47 2.02 4.47 4.5-2 4.5-4.47 4.5m0-7.18a2.68 2.68 0 1 0 0 5.36 2.68 2.68 0 0 0 0-5.36m0 3.36c-.38 0-.68-.31-.68-.68s.31-.68.68-.68.68.31.68.68-.31.68-.68.68"/>
</svg>
