<svg viewBox="0 0 24 24" xmlns="http://www.w3.org/2000/svg">
  <path fill="#1d1d1b" d="M0 12.62V0h21.04v12.72l-2.99.02c-1.96-2.17-4.71-3.41-7.63-3.41s-5.57 1.19-7.52 3.28H0Zm17.24 1.87-.26-.32c-1.63-1.97-4.03-3.1-6.57-3.1s-4.84 1.09-6.47 2.98l-.26.3H0v5.87h4.11v-.85h.04c.05-3.43 2.84-6.2 6.26-6.2s6.26 2.82 6.26 6.29c0 .24-.02.47-.04.7v.06h1.54l2.04-3.76H22v1.27c0 .55.44 1 .99 1s.99-.45.99-1v-3.27l-6.75.03Zm-2.3 4.97c0 2.51-2.03 4.54-4.52 4.54S5.9 21.96 5.9 19.46s2.03-4.54 4.52-4.54 4.52 2.04 4.52 4.54m-3.19 0c0-.74-.6-1.35-1.34-1.35s-1.34.6-1.34 1.35.6 1.35 1.34 1.35 1.34-.6 1.34-1.35"/>
</svg>
