<svg viewBox="0 0 40 40" xmlns="http://www.w3.org/2000/svg">
  <path d="M19.77 10.41c2.87 0 5.21-2.34 5.21-5.21S22.64 0 19.77 0s-5.21 2.34-5.21 5.21 2.34 5.21 5.21 5.21Zm0-8.16c1.63 0 2.96 1.33 2.96 2.96s-1.33 2.96-2.96 2.96-2.96-1.33-2.96-2.96 1.33-2.96 2.96-2.96m20.21 19.97h-1.65v-4.07c0-.9-.73-1.62-1.63-1.62h-4c-.9 0-1.63.73-1.63 1.62v4.07h-2.3v-4.3c0-3.25-2.64-5.89-5.89-5.89h-6.24c-3.25 0-5.89 2.64-5.89 5.89v4.3H8.87v-4.07c0-.9-.73-1.62-1.63-1.62h-4c-.9 0-1.63.73-1.63 1.62v4.07H-.02v2.25h1.65v3.97c0 .9.73 1.62 1.63 1.62h4c.9 0 1.63-.73 1.63-1.62v-3.97h5.38L15.47 40h8.37l1.2-15.53h6.05v3.97c0 .9.73 1.62 1.63 1.62h4c.9 0 1.63-.73 1.63-1.62v-3.97H40v-2.25Zm-33.35 5.6H3.88v-9.04h2.75zm9.72-5.6h-3.34v-4.29a3.64 3.64 0 0 1 3.64-3.64h6.24a3.64 3.64 0 0 1 3.64 3.64v4.29zm5.39 15.53h-4.19l-1.02-13.28h6.24zm14.33-9.93h-2.75v-9.04h2.75z"/>
</svg>
