<svg viewBox="0 0 32 32" xmlns="http://www.w3.org/2000/svg">
  <path fill="#1e1e1c" d="M12.87 25.99c0 .61-.49 1.1-1.1 1.1s-1.1-.49-1.1-1.1.49-1.1 1.1-1.1 1.1.49 1.1 1.1m4.89 0c0 3.31-2.69 6.01-6 6.01s-6-2.69-6-6.01c0-1.69.7-3.21 1.82-4.3.4-.39.86-.73 1.37-1 0 0 .02 0 .03-.01.16-.08.32-.16.49-.23.02-.01.05-.02.07-.03.15-.06.31-.12.46-.17.06-.02.11-.03.17-.04.13-.04.26-.07.39-.1.1-.02.19-.03.29-.04.1-.02.2-.03.3-.04a6 6 0 0 1 1.22 0c.1.01.2.03.3.04s.19.03.29.04c.13.03.26.06.39.1.06.02.11.03.17.04.16.05.31.11.46.17.02 0 .05.02.07.03.17.07.33.15.49.23 0 0 .02 0 .03.01.5.27.96.61 1.37 1a6 6 0 0 1 1.82 4.3m-2.89 0c0-1.71-1.39-3.1-3.1-3.1s-3.1 1.39-3.1 3.1 1.39 3.1 3.1 3.1 3.1-1.39 3.1-3.1m17.14-8.58a1.25 1.25 0 0 0-2.5 0v2.02h-4.5v-.2q.165-.105.3-.27l2.57-3.36h1.51a1.25 1.25 0 0 0 0-2.5h-2.74l-1.63 2.13v-1.27h-4.26v.91h-2v-.91H6.27v.91h-2v-.91H0v7.73h1.64v5.6h2.24a7.9 7.9 0 0 1 1.15-5.6c.17-.27.36-.53.56-.77.04-.05.08-.09.12-.14.16-.19.33-.37.5-.54.08-.08.17-.15.25-.23 1.41-1.25 3.26-2.03 5.29-2.03s3.88.77 5.29 2.03c.08.08.17.15.25.23.18.17.34.35.5.54.04.05.08.09.12.14.2.25.39.5.56.77.8 1.24 1.26 2.72 1.26 4.3 0 .44-.05.87-.11 1.3h1.54l3.01-5.35h7.81v-4.53ZM4.27 10.88h2v1.08h12.48v-1.08h2v1.08h4.26V3c0-1.65-1.35-3-3-3h-19A3.01 3.01 0 0 0 0 3v8.96h4.27z"/>
</svg>
