<svg viewBox="0 0 32 32" xmlns="http://www.w3.org/2000/svg">
  <path d="M11.54 4.28c0-2.35 1.92-4.26 4.27-4.26s4.27 1.91 4.27 4.27-1.91 4.27-4.27 4.27-4.27-1.91-4.27-4.27Zm20.44 13.36h-1.22v-3.06c0-.83-.67-1.5-1.5-1.5h-3c-.83 0-1.5.67-1.5 1.5v3.06h-1.64v-3.19c0-2.65-2.16-4.81-4.81-4.81h-4.99c-2.65 0-4.81 2.16-4.81 4.81v3.19h-1.3v-3.06c0-.83-.67-1.5-1.5-1.5h-3c-.83 0-1.5.67-1.5 1.5v3.06H-.02v2H1.2v2.97c0 .83.67 1.5 1.5 1.5h3c.83 0 1.5-.67 1.5-1.5v-2.97h1.3v.03h2.81l.96 12.34h6.88l.96-12.34h3.01v-.03h1.64v2.97c0 .83.67 1.5 1.5 1.5h3c.83 0 1.5-.67 1.5-1.5v-2.97h1.22z"/>
</svg>
