<svg viewBox="0 0 40 40" xmlns="http://www.w3.org/2000/svg">
  <path fill="#1e1e1c" d="M15.4 28.39c-1.84 0-3.33 1.5-3.33 3.34s1.49 3.34 3.33 3.34 3.33-1.5 3.33-3.34-1.49-3.34-3.33-3.34m0 4.43c-.6 0-1.08-.49-1.08-1.08s.48-1.08 1.08-1.08 1.08.49 1.08 1.08-.48 1.08-1.08 1.08M40 21.75a1.129 1.129 0 1 0-2.26 0v2.98h-6.62v-1.18s.11-.07.15-.12l3.34-4.38h2.1a1.129 1.129 0 1 0 0-2.26h-3.22l-2.38 3.12V3.18c0-1.73-1.4-3.14-3.13-3.14H3.12C1.4.04 0 1.45 0 3.18v23.81h1.67v7.09h5.84c1.01 3.44 4.16 5.96 7.89 5.96s6.89-2.52 7.89-5.96h3.08l3.97-7.09H40zm-13.38 2.98h-6.8c-1.28-.83-2.79-1.31-4.42-1.31s-3.14.49-4.42 1.31H2.25V17.3h3.2v1.27H7.7V17.3h15.85v1.27h2.25V17.3h3.08v7.43zM3.12 2.3H28c.48 0 .88.39.88.88v11.86H25.8v-1.48h-2.25v1.48H7.7v-1.48H5.45v1.48h-3.2V3.18c0-.48.39-.88.88-.88Zm.8 29.52v-4.75H8.6a8.3 8.3 0 0 0-1.42 4.67v.09H3.92Zm11.48 5.96c-3.3 0-5.98-2.71-5.98-6.05s2.68-6.05 5.98-6.05 5.98 2.71 5.98 6.05-2.68 6.05-5.98 6.05m9.66-5.96h-1.43v-.09c0-1.73-.53-3.33-1.42-4.67h5.52l-2.66 4.75Z"/>
</svg>
