<svg viewBox="0 0 24 24" xmlns="http://www.w3.org/2000/svg">
  <path fill="#1e1e1c" d="M23.99 0H.02v3h3.31l-.72.94H-.01v1.75L0 24h23.97v-3h-5.82c1.06-.08 1.93-.84 2.2-1.84h.73c1.58 0 2.87-1.2 2.87-2.67l.02-7.2c0-2.96-2.63-5.37-5.87-5.37h-6.38L11 2.98h12.99zM7.12 3h.1l.72.94H6.4zM0 9.69V6.94h2.75v2.75zm16.78-4h1.32c2.27 0 4.12 1.74 4.12 3.88v1.37h-5.44V5.7Zm-1.42 13.47h.21c.26 1 1.14 1.76 2.2 1.84h-4.61c1.06-.08 1.93-.84 2.2-1.84M12.77 21H.2c1.06-.08 1.94-.84 2.2-1.84h8.17c.26 1 1.14 1.76 2.2 1.84M11.4 6.83v6.56H7.9V6.83z"/>
</svg>
