<svg viewBox="0 0 48 48" xmlns="http://www.w3.org/2000/svg">
  <path d="M17.57 6.16c0-3.39 2.76-6.15 6.15-6.15s6.15 2.76 6.15 6.15-2.76 6.15-6.15 6.15-6.15-2.76-6.15-6.15m30.4 20.58h-2.08v-5.08c0-.97-.79-1.75-1.75-1.75h-5c-.97 0-1.75.79-1.75 1.75v5.08h-2.96v-5.26c0-3.84-3.13-6.97-6.97-6.97h-7.48c-3.84 0-6.97 3.12-6.97 6.97v5.26h-2.45v-5.08c0-.97-.79-1.75-1.75-1.75h-5c-.97 0-1.75.79-1.75 1.75v5.08H-.03v2.5h2.08v4.96c0 .97.79 1.75 1.75 1.75h5c.97 0 1.75-.79 1.75-1.75v-4.96h6.65l1.44 18.78h9.85l1.44-18.78h7.45v4.96c0 .97.79 1.75 1.75 1.75h5c.97 0 1.75-.79 1.75-1.75v-4.96h2.08v-2.5Z"/>
</svg>
