<svg viewBox="0 0 40 40" xmlns="http://www.w3.org/2000/svg">
  <path fill="#1e1e1c" d="M17.91 37.75h22.07V40H0v-2.25zm-5.53-10.87c-1.17 0-2.12-.95-2.12-2.13V12.24c0-1.17.95-2.13 2.12-2.13h8c1.17 0 2.12.95 2.12 2.13v12.51c0 1.17-.95 2.13-2.12 2.13zm5.08-2.25h2.79V12.37h-2.79zm-4.96 0h2.71V12.37H12.5zM40 29.68s-.01.08-.01.12v.39h-.04c-.26 2.22-2.13 3.95-4.41 3.95h-1.81c-.51 2.07-2.37 3.61-4.59 3.61s-4.08-1.54-4.59-3.61h-2.06c-.51 2.07-2.37 3.61-4.59 3.61s-4.08-1.54-4.59-3.61H4.5a4.72 4.72 0 0 1-4.49 3.6v-2.26a2.5 2.5 0 0 0 2.12-1.35H.01v-2.25h35.53c1.04 0 1.91-.73 2.14-1.7H0v-2.25h37.73l-.03-6.48h-9.13c-1.65 0-3-1.35-3-3V9.12H0V6.87h5.57l2.85-4.63H0V0h39.98v2.25H12.67l2.85 4.63h14.54c5.42 0 9.85 4.41 9.87 9.83l.06 12.97ZM12.88 6.88l-2.33-3.79-2.33 3.79zm24.69 9.94c0-4.21-3.42-7.63-7.62-7.63h-2.12v9.27c0 .41.34.75.75.75h9v-2.39ZM20.13 34.14H15.7c.41.81 1.25 1.36 2.21 1.36s1.8-.55 2.22-1.36m11.23 0h-4.43c.41.81 1.25 1.36 2.21 1.36s1.8-.55 2.21-1.36ZM7.48 17.81v-5.5c0-1.17-.95-2.13-2.12-2.13H0v2.25h5.22v5.25H0v2.25h5.34c1.17 0 2.12-.95 2.12-2.13Z"/>
</svg>
