<svg viewBox="0 0 40 40" xmlns="http://www.w3.org/2000/svg">
  <path d="M14.56 5.21c0-2.87 2.33-5.21 5.21-5.21s5.21 2.34 5.21 5.21-2.34 5.21-5.21 5.21-5.21-2.34-5.21-5.21m25.42 17.02h-1.65v-4.07c0-.9-.73-1.62-1.63-1.62h-4c-.9 0-1.63.73-1.63 1.62v4.07h-2.3v-4.3c0-3.25-2.64-5.89-5.89-5.89h-6.24c-3.25 0-5.89 2.64-5.89 5.89v4.3H8.87v-4.07c0-.9-.73-1.62-1.63-1.62h-4c-.9 0-1.63.73-1.63 1.62v4.07H-.02v2.25h1.65v3.97c0 .9.73 1.62 1.63 1.62h4c.9 0 1.63-.73 1.63-1.62v-3.97h5.38L15.47 40h8.37l1.2-15.52h6.05v3.97c0 .9.73 1.62 1.63 1.62h4c.9 0 1.63-.73 1.63-1.62v-3.97H40v-2.25Z"/>
</svg>
