<svg viewBox="0 0 16 16" xmlns="http://www.w3.org/2000/svg">
  <path fill="#1e1e1c" d="M2.62 5.7H-.01V1.78C-.01.8.79 0 1.77 0h8.93c.98 0 1.78.8 1.78 1.78V5.7H9.95v-.8h-1.5v.8H4.12v-.8h-1.5zm13.37 2.98a.87.87 0 0 0-1.74 0v.76h-1.76v-.11a.8.8 0 0 0 .25-.2l1.21-1.58h.63a.87.87 0 0 0 0-1.74h-1.49l-1.07 1.4H9.97v.69h-1.5v-.69H4.14v.69h-1.5v-.69H-.01v3.86h.96v2.67h.7c-.02-.15-.05-.3-.05-.46 0-.82.24-1.57.64-2.21.07-.11.14-.21.22-.31.37-.49.84-.89 1.38-1.19h-.02c.59-.33 1.27-.51 1.99-.51s1.4.19 1.99.51h-.02c.54.29 1.01.7 1.38 1.19.07.1.15.2.21.3.4.64.64 1.4.64 2.21 0 .16-.03.3-.05.46h.57l1.43-2.54H16V8.68ZM8.5 13.27c0 1.5-1.21 2.72-2.7 2.72s-2.7-1.22-2.7-2.72c0-1.01.56-1.88 1.37-2.35.06-.03.12-.07.18-.1.07-.03.14-.06.22-.09.09-.03.18-.06.27-.08.06-.02.12-.03.18-.04.16-.03.32-.05.49-.05s.33.02.49.05c.06.01.12.03.18.04.09.02.18.05.27.08.07.03.15.06.22.09.06.03.12.06.18.1.08.04.16.09.23.14.69.49 1.14 1.3 1.14 2.21Zm-1.83 0a.87.87 0 1 0-1.741.001.87.87 0 0 0 1.741-.001"/>
</svg>
