<svg viewBox="0 0 24 24" xmlns="http://www.w3.org/2000/svg">
  <path fill="#1e1e1c" d="M10.9 18.93a1.63 1.63 0 1 1-3.26 0 1.63 1.63 0 0 1 3.26 0m13.11-2.54h-5.86l-2.32 4.12h-1.8c-.67 2.02-2.54 3.48-4.77 3.48s-4.1-1.47-4.77-3.48H1.51v-4.12H.01V2.63C.01 1.18 1.19 0 2.64 0h13.45c1.45 0 2.63 1.18 2.63 2.63v8.18l1.29-1.69h2.03c.48 0 .88.39.88.88s-.39.88-.88.88h-1.16l-.02.02-1.94 2.53c-.06.08-.14.12-.21.17v1.05h3.54v-1.58c0-.48.39-.88.88-.88s.88.39.88.88v3.33Zm-7.04-1.75V10.6h-2.31v1.02h-1.75V10.6h-7.3v1.02H3.86V10.6H1.77v4.05h4.84c.78-.49 1.68-.78 2.67-.78s1.89.29 2.66.78h5.03ZM1.77 2.63v6.21h2.09V7.62h1.75v1.22h7.3V7.62h1.75v1.22h2.31V2.63c0-.48-.39-.88-.88-.88H2.64c-.48 0-.88.39-.88.88Zm1.49 16.13h.99c.03-.85.27-1.65.67-2.35H3.26zm9.31.17c0-1.83-1.48-3.32-3.29-3.32s-3.29 1.49-3.29 3.32 1.48 3.32 3.29 3.32 3.29-1.49 3.29-3.32m3.56-2.51h-2.5c.4.7.64 1.49.67 2.35h.51z"/>
</svg>
