<svg viewBox="0 0 64 64" xmlns="http://www.w3.org/2000/svg">
  <path d="M23.72 7.92c0-4.36 3.55-7.91 7.91-7.91s7.91 3.55 7.91 7.91-3.55 7.91-7.91 7.91-7.91-3.55-7.91-7.91m40.25 28.05H60.9v-7.24c0-1.03-.84-1.87-1.88-1.87h-7c-1.03 0-1.88.84-1.88 1.87v7.24h-4.52v-7.64c0-4.96-4.04-8.99-9-8.99h-9.98c-4.96 0-9 4.03-9 8.99v7.64h-3.86v-7.24c0-1.03-.84-1.87-1.88-1.87h-7c-1.03 0-1.88.84-1.88 1.87v7.24H-.03v2.75h3.07v7.07c0 1.03.84 1.87 1.88 1.87h7c1.03 0 1.88-.84 1.88-1.87v-7.07h9.43l1.92 25.29h12.6l1.92-25.29h10.5v7.07c0 1.03.84 1.87 1.88 1.87h7c1.03 0 1.88-.84 1.88-1.87v-7.07H64v-2.75Z"/>
</svg>
