<svg viewBox="0 0 48 48" xmlns="http://www.w3.org/2000/svg">
  <path fill="#1e1e1c" d="M18.59 34.18c-2.16 0-3.92 1.76-3.92 3.92s1.76 3.92 3.92 3.92 3.92-1.76 3.92-3.92-1.76-3.92-3.92-3.92m0 5.34c-.78 0-1.42-.64-1.42-1.42s.64-1.42 1.42-1.42 1.42.64 1.42 1.42-.63 1.42-1.42 1.42M48 26.1a1.25 1.25 0 0 0-2.5 0v3.66h-7.99v-1.51c.07-.06.14-.13.2-.2l4.04-5.28h2.57a1.25 1.25 0 0 0 0-2.5h-3.81L37.5 24.2V3.75C37.51 1.68 35.82 0 33.75 0h-30C1.68 0 0 1.68 0 3.75v28.51h2.14v8.55h6.99c1.18 4.14 4.97 7.18 9.46 7.18s8.28-3.04 9.46-7.18h3.75l4.81-8.55h11.38V26.1Zm-15.95 3.66h-8.16a9.7 9.7 0 0 0-10.58 0H2.5v-9.09h4.39v1.61h2.5v-1.61h19.22v1.61h2.5v-1.61H35v9.08h-2.96ZM3.75 2.5h30.01c.69 0 1.25.56 1.25 1.25v14.43h-3.89v-1.86h-2.5v1.86H9.39v-1.86h-2.5v1.86H2.5V3.75c0-.69.56-1.25 1.25-1.25m.89 35.82v-5.95h5.94a9.85 9.85 0 0 0-1.83 5.73c0 .07 0 .14.01.22zm13.95 7.18c-4.05 0-7.35-3.32-7.35-7.4s3.3-7.4 7.35-7.4 7.35 3.32 7.35 7.4-3.3 7.4-7.35 7.4m11.75-7.18h-1.91c0-.07.01-.14.01-.22 0-2.14-.68-4.11-1.83-5.73h7.08z"/>
</svg>
