<svg viewBox="0 0 32 32" xmlns="http://www.w3.org/2000/svg">
  <path d="M15.81 8.54c2.35 0 4.27-1.91 4.27-4.27S18.17 0 15.81 0s-4.27 1.91-4.27 4.27 1.91 4.27 4.27 4.27m0-6.53c1.25 0 2.27 1.02 2.27 2.27s-1.02 2.27-2.27 2.27-2.27-1.02-2.27-2.27 1.02-2.27 2.27-2.27m16.17 15.63h-1.22v-3.06c0-.83-.67-1.5-1.5-1.5h-3c-.83 0-1.5.67-1.5 1.5v3.06h-1.64v-3.19c0-2.65-2.16-4.81-4.81-4.81h-4.99c-2.65 0-4.81 2.16-4.81 4.81v3.19h-1.3v-3.06c0-.83-.67-1.5-1.5-1.5h-3c-.83 0-1.5.67-1.5 1.5v3.06H-.02v2H1.2v2.97c0 .83.67 1.5 1.5 1.5h3c.83 0 1.5-.67 1.5-1.5v-2.97h1.3v.03h2.81l.96 12.34h6.88l.96-12.34h3.01v-.03h1.64v2.97c0 .83.67 1.5 1.5 1.5h3c.83 0 1.5-.67 1.5-1.5v-2.97h1.22zM5.2 22.11h-2v-7.03h2zm5.31-7.66c0-1.55 1.26-2.81 2.81-2.81h4.99c1.55 0 2.81 1.26 2.81 2.81v3.19H10.51zm6.79 15.56h-3.17l-.81-10.37h4.78l-.81 10.37Zm11.46-7.9h-2v-7.03h2z"/>
</svg>
