<svg viewBox="0 0 24 24" xmlns="http://www.w3.org/2000/svg">
  <path fill="#1e1e1c" d="M21.16 14.63V0H0v16.38h.02v4.01h4.22v-.88c0-3.46 2.77-6.28 6.18-6.28s6.17 2.82 6.17 6.28v.88h2.51l2.19-4.01h.95v1.4c0 .48.39.88.88.88s.88-.39.88-.88v-3.15zM1.77 18.64v-2.26h1.35c-.3.71-.5 1.46-.59 2.26zm8.65-7.15c-2.56 0-4.84 1.23-6.29 3.14H1.74V1.76H19.4v12.87h-2.71c-1.45-1.91-3.72-3.14-6.28-3.14Zm7.83 6.8c-.1-.67-.29-1.31-.54-1.91h1.59l-1.04 1.91Zm-7.86-3.8c-2.61 0-4.73 2.13-4.73 4.76s2.12 4.76 4.73 4.76 4.73-2.13 4.73-4.76-2.12-4.76-4.73-4.76m0 7.77c-1.65 0-2.98-1.35-2.98-3.01s1.34-3.01 2.98-3.01 2.98 1.35 2.98 3.01-1.34 3.01-2.98 3.01m1.12-3.01a1.129 1.129 0 1 1-1.13-1.13c.62 0 1.13.5 1.13 1.13"/>
</svg>
