<svg viewBox="0 0 40 40" xmlns="http://www.w3.org/2000/svg">
  <path fill="#1e1e1c" d="M12.96 29.39c.56.75.91 1.67.91 2.68a4.5 4.5 0 0 1-9 0c0-1.01.34-1.93.91-2.68 0-.01.02-.02.03-.04.15-.2.32-.39.5-.56.04-.04.08-.06.12-.1.16-.14.33-.28.52-.4.08-.05.18-.09.27-.14.15-.08.3-.17.47-.24.15-.06.3-.1.45-.14.12-.03.24-.08.36-.11q.42-.09.87-.09h.02q.45 0 .87.09c.12.02.24.07.36.11.15.04.31.08.45.14.16.07.31.16.47.24.09.05.18.09.27.14.18.12.35.26.51.4.04.03.08.06.12.1.18.17.35.36.5.56 0 .01.02.02.03.04Zm6.31-16.02H8.91v3.89h10.36zM40 18v10.32c0 1.49-.98 2.75-2.33 3.2-.29-4.15-3.75-7.45-7.98-7.45s-7.79 3.39-7.99 7.63h-4.36c-.19-4.24-3.7-7.63-7.99-7.63s-7.79 3.39-7.99 7.63H0V6.48h30.45zM22.77 9.87H5.41v10.89h17.36zM37.86 21 28.29 9.52v8.14c0 1.85 1.5 3.34 3.34 3.34zm-4.6 8.35c-.15-.2-.32-.39-.5-.56-.04-.04-.08-.07-.12-.1-.16-.14-.33-.28-.51-.4-.08-.05-.18-.09-.27-.14-.15-.08-.3-.17-.47-.24-.15-.06-.3-.1-.45-.14-.12-.03-.24-.08-.36-.11q-.42-.09-.87-.09h-.02q-.45 0-.87.09c-.12.02-.24.07-.36.11-.15.04-.31.08-.45.14-.16.07-.31.16-.47.24-.09.05-.18.09-.27.14-.18.12-.35.26-.52.4-.04.03-.08.06-.12.1-.18.17-.35.36-.5.56 0 .01-.02.02-.03.04-.56.75-.91 1.67-.91 2.68a4.5 4.5 0 0 0 9 0 4.4 4.4 0 0 0-.91-2.68c0-.01-.02-.02-.03-.04Z"/>
</svg>
