<svg viewBox="0 0 16 16" xmlns="http://www.w3.org/2000/svg">
  <path fill="#1e1e1c" d="m12.38 2.74-.22-.27H0v10.32h1.97c.24.99 1.12 1.73 2.18 1.73s1.95-.74 2.18-1.73h2.96c.24.99 1.12 1.73 2.18 1.73s1.95-.74 2.18-1.73h.08c1.24 0 2.25-1.01 2.25-2.25V7.1l-3.62-4.36Zm1.26 3.88h-1.45V4.87zm-9.48 6.4c-.41 0-.75-.34-.75-.75s.34-.75.75-.75.75.34.75.75-.34.75-.75.75m7.32 0c-.41 0-.75-.34-.75-.75s.34-.75.75-.75.75.34.75.75-.34.75-.75.75m2.27-1.73h-.25c-.37-.75-1.13-1.27-2.02-1.27s-1.65.52-2.02 1.27H6.17c-.37-.75-1.13-1.27-2.02-1.27s-1.65.52-2.02 1.27h-.64V3.97h9.19v2.9c0 .69.56 1.25 1.25 1.25h2.56v2.42c0 .41-.34.75-.75.75ZM2.67 9.01h6.82V4.67H2.67zm1.5-2.84h3.82v1.34H4.17z"/>
</svg>
