<svg viewBox="0 0 48 48" xmlns="http://www.w3.org/2000/svg">
  <path fill="#1e1e1c" d="M14.44 27.13c-2.92 1.67-6.42 3.22-10.64 4.53l-.74-2.39c3.72-1.16 6.84-2.5 9.47-3.94-6.27-6.57-7.12-14.98-7.13-15.09l2.49-.23c.04.44.85 8.19 6.83 14.04C25.42 17.25 26.3 8.81 26.25 5.9H.01V3.4h14.61V0h2.5v3.42h18.25v2.5h-6.64c.01 3.48-1.11 12.55-12.06 19.84 1.89 1.44 4.17 2.67 6.94 3.53l-.74 2.39c-3.44-1.06-6.2-2.67-8.43-4.53Zm26.8 11.49H27.45l-4.49 9.37-2.26-1.08 13.6-28.42L48 46.91l-2.25 1.08-4.52-9.37Zm-1.2-2.5-5.72-11.85-5.67 11.85z"/>
</svg>
