<svg viewBox="0 0 24 24" xmlns="http://www.w3.org/2000/svg">
  <path d="m11.87 9.39-1.71-1.71h1.71zM5.01 7.68v3.19h3.38L5.2 7.68H5Zm-2 5.19V5.68h.2L1.37 3.84H.03v15.27h1.14c.25-2.52 2.36-4.5 4.95-4.5s4.7 1.98 4.95 4.5h1.32a4.9 4.9 0 0 1 1.32-2.92l-3.33-3.33H3.01Zm5.92 5.71c-.05-.13-.11-.25-.17-.37a1 1 0 0 0-.07-.12c-.06-.11-.13-.21-.21-.31a5 5 0 0 0-.35-.38l-.18-.15c-.08-.06-.16-.12-.24-.17s-.16-.09-.25-.14c-.08-.04-.15-.08-.23-.11-.11-.04-.22-.07-.34-.1-.07-.02-.13-.04-.2-.05a2.8 2.8 0 0 0-1.14 0c-.07.01-.13.04-.2.05-.11.03-.23.06-.34.1-.08.03-.15.07-.23.11-.09.04-.17.09-.25.14s-.16.11-.24.17l-.18.15c-.08.07-.16.15-.23.24-.04.05-.08.09-.12.14-.08.1-.15.2-.21.31-.02.04-.04.08-.07.12-.06.12-.12.24-.17.37l-.03.09c-.1.3-.17.61-.17.95 0 1.66 1.34 3 3 3s3-1.34 3-3c0-.33-.07-.65-.17-.95 0-.03-.02-.06-.03-.09Zm-.77-12.9L6.32 3.84h11.95L24 10.76v5.73c0 1.13-.72 2.08-1.71 2.45-.33-2.44-2.41-4.33-4.93-4.33-.08 0-.16.02-.24.02l-3.24-3.24V5.68H8.17Zm8.29 5.13c0 1.18.96 2.14 2.14 2.14h3.99l-6.14-7.37v5.22Zm-1.32 6.8c-.11.12-.2.25-.29.38-.04.05-.06.11-.1.17-.04.08-.09.16-.12.24-.04.08-.07.16-.1.24-.02.06-.04.12-.05.18-.07.26-.12.52-.12.8 0 1.66 1.34 3 3 3 .77 0 1.47-.3 2.01-.78l-2.71-2.71-1.51-1.51ZM1.24 0 0 1.24 22.76 24 24 22.76z"/>
</svg>
