<svg viewBox="0 0 32 32" xmlns="http://www.w3.org/2000/svg">
  <path d="M18.5 12.43V4.55h-13v7.88zm-11-5.87h9.01v3.87H7.5zm4.08 13.7h1.51l1.24-2h-2.98c-.59-1.54-2.08-2.64-3.82-2.64s-3.23 1.1-3.82 2.64H1.98V2h20.11v6.08a2.5 2.5 0 0 0 2.5 2.5h5.38v6.68c0 .55-.45 1-1 1H27.5a4.1 4.1 0 0 0-2.78-2.49l2.95 4.75c.02-.09.05-.17.06-.26h1.24c1.65 0 3-1.35 3-3V9.22L24.54.27 24.32 0H-.01v20.26h3.49c.26 2.01 1.97 3.58 4.05 3.58s3.79-1.57 4.05-3.58m12.51-17.4 4.72 5.73h-4.22c-.28 0-.5-.22-.5-.5zM7.53 21.84c-1.16 0-2.1-.95-2.1-2.11s.94-2.11 2.1-2.11 2.1.95 2.1 2.11-.94 2.11-2.1 2.11m24.14 7.02-9.63-15.48c-.4-.65-1.07-.97-1.74-.97s-1.34.32-1.74.97L8.93 28.86c-.85 1.37.13 3.14 1.74 3.14h19.26c1.61 0 2.6-1.77 1.74-3.14M29.93 30H10.67s-.03 0-.05-.03-.01-.04 0-.06l9.63-15.48s.02-.03.05-.03.04 0 .05.03l9.63 15.48s.02.03 0 .06-.02.03-.05.03m-10.3-4.72-.39-3.02v-2.3h2.11v2.3l-.39 3.02h-1.34Zm1.89 1.74c0 .62-.48 1.14-1.22 1.14s-1.22-.52-1.22-1.14.48-1.12 1.22-1.12 1.22.53 1.22 1.12"/>
</svg>
