<svg viewBox="0 0 40 40" xmlns="http://www.w3.org/2000/svg">
  <path fill="#1e1e1c" d="M12.02 22.73c-2.43 1.39-5.33 2.67-8.83 3.76l-.67-2.15c3.05-.95 5.61-2.05 7.78-3.23C5.12 15.62 4.41 8.65 4.4 8.55l2.24-.2c.03.37.7 6.76 5.62 11.61 8.73-5.58 9.54-12.47 9.52-14.94H0V2.77h12.09V0h2.25v2.77h15.13v2.25h-5.45c0 2.97-1.01 10.44-9.99 16.46 1.55 1.16 3.41 2.16 5.67 2.86l-.67 2.15c-2.85-.88-5.15-2.22-7.01-3.76m22.21 9.5H22.84L19.12 40l-2.03-.97L28.5 15.17l11.49 23.85-2.03.98-3.74-7.77Zm-1.08-2.25-4.63-9.61-4.6 9.61z"/>
</svg>
