<svg viewBox="0 0 64 64" xmlns="http://www.w3.org/2000/svg">
  <path d="M48.93 10.63H14.52l5.74 5.74h17.03v16.84h-.2l6.47 6.47c1.35-.53 2.82-.83 4.36-.83 6.38 0 11.6 5.01 11.96 11.31 2.29-.14 4.11-2.03 4.11-4.35v-17L48.92 10.63Zm1.88 22.51a5.17 5.17 0 0 1-5.17-5.17V15.38l14.79 17.76H50.8ZM17.49 21.37l6.84 6.84h-9.22v-6.84zm28.8 28.81 6.07 6.08a7 7 0 0 1-4.44 1.59c-3.87 0-7-3.13-7-7 0-.23.04-.44.06-.67h-.02c0-.1.04-.2.05-.3.02-.17.05-.33.09-.5.05-.22.11-.42.17-.63.05-.15.09-.3.15-.45.09-.23.19-.44.3-.65.06-.11.11-.23.17-.34.19-.32.39-.62.62-.9l3.78 3.78Zm-24.71-.5c.06.38.11.77.11 1.17 0 3.87-3.13 7-7 7s-7-3.13-7-7c0-.4.04-.79.11-1.17 0-.06.02-.12.03-.17.03-.15.07-.3.11-.44.02-.07.03-.14.05-.21.04-.14.09-.27.14-.4.03-.08.05-.15.08-.23.05-.12.11-.24.16-.36.04-.08.07-.16.11-.24.06-.11.12-.22.19-.33.05-.08.09-.16.14-.23l.21-.3.17-.23c.07-.09.15-.18.23-.27.07-.07.13-.15.2-.22.08-.08.16-.17.25-.25.07-.07.15-.14.23-.21s.17-.15.26-.22c.08-.07.17-.13.26-.19s.18-.13.27-.19.19-.12.29-.17c.09-.05.18-.11.28-.16s.21-.1.32-.15c.09-.04.18-.09.28-.13.11-.05.23-.09.35-.13.09-.03.18-.07.28-.1.13-.04.26-.07.38-.1.09-.02.18-.05.27-.06.15-.03.3-.05.45-.07.08-.01.15-.03.23-.03.23-.02.46-.04.7-.04s.47.01.7.04c.08 0 .15.02.23.03.15.02.3.04.45.07.09.02.18.04.27.07a4 4 0 0 1 .66.2c.12.04.23.08.35.13.1.04.19.08.28.13.11.05.21.1.32.15.09.05.19.1.28.16.1.06.19.11.29.17.09.06.18.12.27.19.09.06.17.13.26.19.09.07.17.14.26.22.08.07.15.14.23.21.08.08.17.16.25.25.07.07.13.15.2.22.08.09.16.18.23.27.06.08.12.15.17.23l.21.3c.05.08.1.16.14.23.07.11.13.22.19.34.04.08.08.16.11.23.06.12.11.24.16.37.03.08.06.15.08.23.05.13.1.26.14.4.02.07.04.14.05.21.04.15.08.29.11.44.01.06.02.12.03.17ZM32.3 28.21h-.2l-6.84-6.84h7.03v6.84Zm-2.98 5 9.66 9.66a11.9 11.9 0 0 0-3.02 7.31h-9.3c-.35-6.31-5.57-11.34-11.97-11.34S3.07 43.87 2.72 50.18H0V10.63h6.74l5.74 5.74H10.1v16.84h19.21Zm24.75 16.97-6.33-6.33h.18c.23 0 .47.01.7.04.08 0 .15.02.23.03.15.02.3.04.45.07l.27.06c.13.03.26.06.38.1.09.03.19.06.28.1.12.04.23.08.35.13.09.04.19.08.28.13.11.05.21.1.32.15.09.05.18.1.28.16s.19.11.29.17c.09.06.18.12.27.19.09.06.17.13.26.19.09.07.17.14.26.22.08.07.15.14.23.21.08.08.17.16.25.25.07.07.13.15.2.22.08.09.16.18.23.27.06.08.12.15.17.23l.21.3c.05.08.1.16.14.23.07.11.13.22.19.33.04.08.08.16.11.24.06.12.11.24.16.36.03.08.06.15.08.23.05.13.1.26.14.4.02.07.04.14.05.21.04.15.08.29.11.44a7.5 7.5 0 0 1 .14 1.34v.18l-.85-.85ZM1.94 0l62.05 62.05L62.04 64 0 1.94z"/>
</svg>
