<svg viewBox="0 0 64 64" xmlns="http://www.w3.org/2000/svg">
  <path fill="#1e1e1c" d="M54.92 50.18c.02.22.03.44.03.67 0 3.87-3.14 7-7.01 7s-7.01-3.13-7.01-7c0-.4.04-.79.11-1.17 0-.05.01-.11.03-.17.03-.15.07-.3.11-.45.02-.07.03-.14.05-.21.04-.14.09-.27.14-.4.03-.08.05-.15.08-.23.05-.12.11-.25.17-.37.04-.08.07-.16.11-.23.06-.11.12-.23.19-.34.05-.08.09-.16.14-.23.07-.1.14-.21.21-.31l.17-.23c.07-.09.15-.19.23-.28.07-.07.13-.15.2-.22.08-.08.16-.17.25-.25.07-.07.15-.14.23-.21.09-.07.17-.15.26-.22.08-.07.17-.13.26-.19s.18-.13.27-.19.19-.12.29-.17c.09-.05.18-.11.28-.16s.21-.1.32-.15c.09-.04.19-.09.28-.13.11-.05.23-.09.35-.13.09-.03.19-.07.28-.1.13-.04.25-.07.38-.1.09-.02.18-.05.27-.07.15-.03.3-.05.45-.07.08-.01.15-.03.23-.03.23-.02.46-.03.7-.04.24 0 .47.01.7.04.08 0 .15.02.23.03.15.02.3.04.45.07l.27.06a4 4 0 0 1 .66.2c.12.04.23.08.35.13.09.04.19.08.28.13.11.05.21.1.32.15.09.05.18.1.28.16s.19.11.29.17c.09.06.18.12.27.19.09.06.17.13.26.19.09.07.17.14.26.22.08.07.16.14.23.21.08.08.17.16.24.24.07.07.14.15.2.22.08.09.15.18.23.27.06.08.12.15.17.23l.21.3c.05.08.1.16.14.24.06.11.13.22.19.33.04.08.08.16.11.24.06.12.11.24.16.36.03.08.06.15.09.23.05.13.1.26.14.4.02.07.04.14.06.22.04.14.08.29.11.44l.03.18c.03.16.05.33.07.5Zm-33.39-.68c-.03-.15-.07-.3-.11-.44-.02-.07-.03-.14-.05-.21-.04-.14-.09-.27-.14-.4-.03-.08-.05-.15-.08-.23-.05-.12-.11-.24-.16-.37-.04-.08-.07-.16-.11-.23-.06-.11-.12-.22-.19-.34-.05-.08-.09-.16-.14-.23l-.21-.3-.17-.23c-.07-.09-.15-.18-.23-.27-.07-.07-.13-.15-.2-.22-.08-.08-.16-.17-.25-.25-.07-.07-.15-.14-.23-.21s-.17-.15-.26-.22c-.08-.07-.17-.13-.26-.19s-.18-.13-.27-.19-.19-.12-.29-.17c-.09-.05-.18-.11-.28-.16s-.21-.1-.32-.15c-.09-.04-.19-.09-.28-.13-.11-.05-.23-.09-.35-.13-.09-.03-.19-.07-.28-.1-.13-.04-.25-.07-.38-.1-.09-.02-.18-.05-.27-.07-.15-.03-.3-.05-.45-.07-.08-.01-.15-.03-.23-.03-.23-.02-.46-.04-.7-.04s-.47.01-.7.04c-.08 0-.15.02-.23.03-.15.02-.3.04-.45.07l-.27.06c-.13.03-.26.06-.38.1-.1.03-.19.06-.28.1-.12.04-.23.08-.35.13-.09.04-.19.08-.28.13-.11.05-.21.1-.32.15-.09.05-.18.1-.28.16s-.19.11-.29.17c-.09.06-.18.12-.27.19-.09.06-.17.13-.26.19-.09.07-.17.14-.26.22-.08.07-.15.14-.23.21-.08.08-.17.16-.25.25-.07.07-.14.15-.2.22-.08.09-.16.18-.23.27-.06.08-.12.15-.17.23l-.21.3c-.05.08-.1.16-.14.23-.07.11-.13.22-.19.33-.04.08-.08.16-.11.24-.06.12-.11.24-.16.36-.03.08-.06.15-.08.23-.05.13-.1.26-.14.4-.02.07-.04.14-.05.21-.04.15-.08.29-.11.44l-.03.17c-.06.38-.11.77-.11 1.17 0 3.87 3.14 7 7.01 7s7.01-3.13 7.01-7c0-.4-.04-.79-.11-1.17 0-.06-.02-.12-.03-.17Zm10.76-28.13H15.06v6.84h17.22v-6.84Zm31.76 7.44v17c0 2.32-1.83 4.21-4.12 4.35-.36-6.29-5.59-11.31-11.99-11.31S36.3 43.88 35.95 50.18h-9.32c-.35-6.31-5.58-11.33-11.99-11.33S3 43.88 2.65 50.18H.05V10.63h48.9zM37.3 16.37H10.05v16.84h27.24V16.37Zm23.18 16.77L45.66 15.39v12.59c0 2.85 2.32 5.17 5.18 5.17h9.65Z"/>
</svg>
