<svg viewBox="0 0 32 32" xmlns="http://www.w3.org/2000/svg">
  <path d="M7.53 23.44c-1.73 0-3.13-1.41-3.13-3.13s1.4-3.13 3.13-3.13 3.13 1.4 3.13 3.13-1.4 3.13-3.13 3.13M5.31 9.02h9.01V5.15H5.31zm2.22 6.15c-2.82 0-5.1 2.28-5.12 5.1H-.01V0h24.33l7.64 9.23v8.04c0 1.65-1.34 3-3 3H27.5l-4.61-7.42c-.56-.9-1.53-1.44-2.59-1.44s-2.03.54-2.59 1.44l-4.61 7.42h-.44c-.02-2.81-2.31-5.1-5.12-5.1Zm14.64-6.09c0 .83.67 1.5 1.5 1.5h5.61v-.89l-6.35-7.7h-.76zm-5.86 1.94V3.15h-13v7.88h13Zm15.68 18.91c0 .36-.09.71-.26 1.02-.34.61-.99 1.06-1.8 1.06H10.67c-.81 0-1.46-.44-1.8-1.06-.17-.31-.26-.66-.26-1.02s.1-.73.31-1.07l9.63-15.48c.8-1.29 2.69-1.29 3.49 0l9.63 15.48c.21.34.31.71.31 1.07Zm-12.75-7.68.39 3.02h1.33l.39-3.02v-2.3h-2.11zm2.28 4.78c0-.6-.48-1.13-1.22-1.13s-1.22.53-1.22 1.13.48 1.14 1.22 1.14 1.22-.52 1.22-1.14"/>
</svg>
