<svg viewBox="0 0 48 48" xmlns="http://www.w3.org/2000/svg">
  <path d="M8.29 18.16h19.02V6.84H8.29v11.31Zm2.5-8.81h14.02v6.31H10.79zM37.11.53l-.43-.52H.02v29.9h5.19c.28 3.01 2.81 5.37 5.88 5.37s5.61-2.36 5.88-5.37h3.27l1.56-2.5h-5.14c-.81-2.3-3-3.95-5.57-3.95s-4.76 1.65-5.57 3.95h-3V2.51H33.7v9.63c0 1.79 1.46 3.25 3.25 3.25h8.57v10.77c0 .69-.56 1.25-1.25 1.25H41.4a5.91 5.91 0 0 0-4.7-3.88l4.75 7.63c.13-.4.23-.82.27-1.25h2.56c2.07 0 3.75-1.68 3.75-3.75V13.69zM11.09 25.96c1.88 0 3.41 1.53 3.41 3.41s-1.53 3.41-3.41 3.41-3.41-1.53-3.41-3.41 1.53-3.41 3.41-3.41m25.86-13.07c-.41 0-.75-.34-.75-.75V3.35l7.87 9.54zm-3.88 7.18c-.6-.97-1.61-1.46-2.62-1.46s-2.01.48-2.62 1.46L13.38 43.29c-1.28 2.06.2 4.72 2.62 4.72h28.9c2.42 0 3.9-2.66 2.62-4.72zm12.34 25.14a.56.56 0 0 1-.51.3H16a.56.56 0 0 1-.51-.3.54.54 0 0 1 .01-.59L29.95 21.4c.14-.23.35-.28.5-.28s.35.05.5.28L45.4 44.62c.15.24.09.46.01.59m-15.96-7.29-.58-4.54v-3.45h3.16v3.45l-.58 4.54zm2.83 2.62c0 .93-.72 1.71-1.83 1.71s-1.83-.77-1.83-1.71.72-1.69 1.83-1.69 1.83.79 1.83 1.69"/>
</svg>
