<svg viewBox="0 0 40 40" xmlns="http://www.w3.org/2000/svg">
  <path d="M23.08 15.34V5.72H7.01v9.62zM9.26 7.97h11.57v5.12H9.26zm5.15 17.2h2.2l1.4-2.25h-3.87c-.71-1.92-2.54-3.31-4.7-3.31s-4 1.38-4.7 3.31H2.25V2.26h25.6v7.65c0 1.72 1.4 3.13 3.13 3.13h6.76v8.77c0 .62-.51 1.13-1.13 1.13h-2.2a5.04 5.04 0 0 0-3.65-3.18l3.79 6.08c.05-.21.11-.43.13-.65h1.94c1.86 0 3.38-1.51 3.38-3.38v-10.3L30.9.53 30.46 0H0v25.17h4.47c.27 2.52 2.38 4.49 4.97 4.49s4.7-1.97 4.97-4.49M30.1 3.1l6.34 7.68h-5.46c-.48 0-.88-.39-.88-.88zM9.44 27.41a2.77 2.77 0 1 1 0-5.54 2.77 2.77 0 0 1 0 5.54m30.16 8.67L27.55 16.73c-.5-.81-1.34-1.21-2.18-1.21s-1.68.4-2.18 1.21L11.14 36.08c-1.07 1.71.17 3.93 2.18 3.93h24.09c2.02 0 3.25-2.22 2.18-3.93Zm-1.9 1.51c-.09.16-.23.16-.28.16H13.33s-.19 0-.28-.16-.02-.29 0-.33L25.1 17.91s.09-.15.27-.15.25.11.27.15l12.05 19.35s.1.16 0 .33ZM24.54 31.6l-.48-3.78v-2.87h2.64v2.87l-.48 3.78h-1.67Zm2.36 2.18c0 .78-.6 1.42-1.52 1.42s-1.52-.64-1.52-1.42.6-1.41 1.52-1.41 1.52.66 1.52 1.41"/>
</svg>
