<svg viewBox="0 0 16 16" xmlns="http://www.w3.org/2000/svg">
  <path d="M4.16 11.55c-.78 0-1.42-.63-1.42-1.42s.64-1.41 1.42-1.41 1.42.63 1.42 1.41-.64 1.42-1.42 1.42m3.08-8.59H3.42V4.3h3.82zM16 4.64v3.44c0 1.1-.8 2.02-1.86 2.21L11.65 6.3c-.33-.52-.89-.84-1.51-.84s-1.18.31-1.51.84L6.88 9.12a2.92 2.92 0 0 0-2.72-1.89c-1.61 0-2.92 1.31-2.92 2.91 0 .07.02.13.02.19H0V.01h12.16zM8.74 1.46H1.92V5.8h6.82zm5.79 3.37-3.07-3.72h-.37v3.65c0 .28.22.5.5.5h2.94zm1.31 9.61c.43.69-.07 1.57-.87 1.57H5.32c-.81 0-1.3-.89-.87-1.57L9.27 6.7c.4-.65 1.35-.65 1.75 0zm-6.22-3.3.19 1.51h.67l.19-1.51V9.99H9.61v1.15Zm1.14 2.38c0-.3-.24-.56-.61-.56s-.61.26-.61.56.24.57.61.57.61-.26.61-.57"/>
</svg>
