<svg viewBox="0 0 48 48" xmlns="http://www.w3.org/2000/svg">
  <path fill="#1e1e1c" d="M13.75 28.36c-2.74 1.51-5.96 2.9-9.79 4.11l-1.34-4.34c2.95-.93 5.49-1.97 7.69-3.08-5.39-6.34-6.14-13.84-6.18-14.3l2.24-.2 2.24-.21c.04.39.75 7.06 5.69 12.38 8.23-5.56 9.69-12.05 9.86-15.21H0V2.96h12.99V-.23h4.5v3.18h16.49v4.54h-5.32c-.16 3.98-1.77 11.71-10.76 18.25 1.46.95 3.14 1.77 5.09 2.38l-1.33 4.34c-3.18-.99-5.77-2.44-7.91-4.11Zm26.14 10.91H27.96l-4.03 8.5-4.06-1.96 14.02-29.59L48 45.81l-4.05 1.97zm-2.17-4.55-3.82-8.01-3.79 8.01z"/>
</svg>
