<svg viewBox="0 0 24 24" xmlns="http://www.w3.org/2000/svg">
  <path fill="#1e1e1c" d="m18.48 4.06-.22-.26H0v15.27h2.98c.25 1.5 1.55 2.65 3.13 2.65s2.87-1.15 3.13-2.65h4.98c.25 1.5 1.55 2.65 3.13 2.65s2.87-1.15 3.13-2.65h.9c1.45 0 2.63-1.18 2.63-2.62v-5.73l-5.53-6.65Zm2.76 6.1h-2.96c-.07 0-.13-.06-.13-.12V6.43l3.08 3.73ZM6.11 19.97c-.79 0-1.43-.64-1.43-1.42s.64-1.42 1.43-1.42 1.43.64 1.43 1.42-.64 1.42-1.43 1.42m11.24 0c-.79 0-1.43-.64-1.43-1.42s.64-1.42 1.43-1.42 1.43.64 1.43 1.42-.64 1.42-1.43 1.42m4.03-2.65h-1.1c-.48-1.14-1.61-1.95-2.93-1.95s-2.45.81-2.93 1.95H9.05c-.48-1.14-1.61-1.95-2.93-1.95s-2.45.81-2.93 1.95H1.77V5.55h14.65v4.48c0 1.03.84 1.88 1.88 1.88h3.97v4.54c0 .48-.39.88-.88.88ZM4.09 13.27h9.92v-6.1H4.09zm1.76-4.35h6.41v2.6H5.85z"/>
</svg>
