<svg viewBox="0 0 48 48" xmlns="http://www.w3.org/2000/svg">
  <path fill="#1e1e1c" d="M16.03 37.74c.02.17.05.33.05.51 0 2.76-2.24 5-5 5s-5-2.24-5-5c0-.17.03-.34.05-.51.06-.63.24-1.22.52-1.76v-.01c.13-.26.28-.5.46-.73.02-.03.04-.05.06-.07.16-.2.33-.4.53-.58.05-.05.11-.09.17-.14.17-.14.34-.29.53-.41.1-.07.21-.12.32-.17.16-.09.32-.18.48-.25.17-.07.34-.11.52-.16.13-.04.25-.09.38-.11.31-.06.64-.1.97-.1s.66.04.97.1c.13.03.25.07.38.11.18.05.35.09.52.16s.32.16.48.25c.11.06.22.11.32.17.19.12.36.26.53.41l.17.14c.19.18.36.37.53.58.02.03.04.05.06.07.17.23.33.47.46.73v.01c.28.54.45 1.13.52 1.76Zm24.74 0c-.06-.63-.24-1.22-.52-1.76v-.01c-.13-.26-.28-.5-.46-.73-.02-.03-.04-.05-.06-.08-.16-.2-.33-.4-.52-.58-.05-.05-.11-.09-.17-.14-.17-.14-.34-.29-.53-.41-.1-.07-.21-.12-.32-.17-.16-.09-.32-.18-.48-.25-.17-.07-.34-.11-.52-.16-.13-.04-.25-.09-.38-.11-.31-.06-.64-.1-.97-.1s-.66.04-.97.1c-.13.03-.25.07-.38.11-.18.05-.35.09-.52.16s-.32.16-.48.25c-.11.06-.22.11-.32.17-.19.12-.36.26-.53.41l-.17.14c-.19.18-.36.37-.53.58-.02.03-.04.05-.06.07-.17.23-.33.47-.46.73v.01a5 5 0 0 0-.52 1.76c-.02.17-.05.33-.05.51 0 2.76 2.24 5 5 5s5-2.24 5-5c0-.17-.03-.34-.05-.51ZM23.8 16.1H11.78v4.31H23.8zm24.21 5.42v12.47c0 1.53-.92 2.84-2.24 3.42-.43-5.13-4.72-9.17-9.96-9.17s-9.71 4.22-9.97 9.49h-4.79c-.27-5.28-4.63-9.49-9.97-9.49s-9.7 4.22-9.97 9.5H.01V7.84h36.66zM28.3 11.6H7.28v13.31H28.3zm17.74 13.65L34.52 11.42v9.8c0 2.22 1.8 4.02 4.02 4.02h7.5Z"/>
</svg>
