<svg viewBox="0 0 32 32" xmlns="http://www.w3.org/2000/svg">
  <path fill="#1e1e1c" d="M9.08 19.05c-1.8.97-3.9 1.86-6.38 2.63l-1.04-3.34a33 33 0 0 0 4.75-1.86C2.99 12.31 2.5 7.51 2.48 7.21l3.48-.32c.02.25.48 4.41 3.55 7.8 4.96-3.4 6.02-7.3 6.2-9.38H0v-3.5h8.34V0h3.5v1.82H22.5v3.5h-3.28C19.05 8 17.89 12.84 12.32 17c.87.53 1.85.99 2.98 1.34l-1.04 3.34c-2.07-.64-3.77-1.56-5.18-2.64Zm17.16 7.51h-7.57l-2.59 5.43-3.16-1.51 9.51-19.9 9.58 19.9L28.86 32l-2.61-5.43Zm-1.69-3.5-2.11-4.39-2.1 4.39z"/>
</svg>
