<svg viewBox="0 0 64 64" xmlns="http://www.w3.org/2000/svg">
  <path d="M36.17 23.82V9.22H11.19v14.6h24.99ZM13.94 11.97h19.48v9.1H13.94zm8.34 27.65h5.23l1.71-2.75h-7.29c-.99-3.08-3.88-5.32-7.28-5.32s-6.29 2.24-7.28 5.32H2.81V2.78h42.58v13.44c0 2.14 1.74 3.88 3.88 3.88H61.3v15.14c0 .9-.73 1.63-1.63 1.63h-4.44c-.9-2.82-3.41-4.91-6.44-5.25l6.34 10.18c.25-.69.4-1.42.45-2.18h4.1c2.42 0 4.38-1.97 4.38-4.38V18.22L49.17.3l-.22-.27H.05v39.59h6.97c.22 4.02 3.55 7.22 7.63 7.22s7.4-3.2 7.63-7.22M48.14 3.37l11.54 13.98H49.26c-.62 0-1.13-.51-1.13-1.13V3.37ZM14.65 44.09c-2.7 0-4.89-2.19-4.89-4.89s2.2-4.89 4.89-4.89 4.89 2.19 4.89 4.89-2.2 4.89-4.89 4.89m48.78 13.65L44.14 26.76c-.81-1.29-2.15-1.94-3.5-1.94s-2.69.65-3.5 1.94L17.85 57.74c-1.71 2.74.27 6.29 3.5 6.29h38.59c3.23 0 5.2-3.55 3.5-6.29Zm-2.31 2.84c-.12.21-.47.7-1.19.7H21.34c-.72 0-1.07-.49-1.19-.7s-.35-.77.03-1.38l19.29-30.98c.35-.56.87-.64 1.16-.64s.81.08 1.16.64L61.08 59.2c.38.61.15 1.17.03 1.38Zm-18.04-6.51c0 1.24-.96 2.28-2.44 2.28s-2.44-1.03-2.44-2.28.96-2.25 2.44-2.25 2.44 1.05 2.44 2.25m-3.78-3.49-.77-6.05v-4.6h4.22v4.6l-.77 6.05z"/>
</svg>
