<svg viewBox="0 0 48 48" xmlns="http://www.w3.org/2000/svg">
  <path d="M11.09 34.7c-2.93 0-5.31-2.38-5.31-5.31s2.38-5.31 5.31-5.31 5.31 2.38 5.31 5.31-2.38 5.31-5.31 5.31M21.51 7.67H7.49v6.31h14.02zm26.51 6.03v12.47c0 2.07-1.68 3.75-3.75 3.75h-2.56c-.04.43-.14.85-.27 1.25l-7.31-11.75c-.8-1.28-2.17-2.04-3.68-2.04s-2.88.76-3.68 2.04l-6.53 10.5h-1.36c.01-.18.03-.36.03-.54 0-4.31-3.5-7.81-7.81-7.81s-7.81 3.51-7.81 7.81c0 .18.02.36.03.54H.02V.02h36.66zM24.01 5.17H4.99v11.31h19.02zm20.48 8.78L34.96 2.4h-1.14v10.88c0 1.1.9 2 2 2h8.67zm3.5 30.93v.03a3.12 3.12 0 0 1-1.48 2.66c-.46.28-1 .45-1.61.45H16a3.1 3.1 0 0 1-2.23-.95c-.13-.13-.24-.28-.34-.43-.09-.14-.18-.29-.25-.44a3.06 3.06 0 0 1 .19-2.88L27.82 20.1c.3-.48.7-.85 1.16-1.09.45-.24.96-.36 1.46-.36q.375 0 .75.09c.74.18 1.42.64 1.87 1.36l14.45 23.22c.13.21.23.43.3.65a3.3 3.3 0 0 1 .17.92ZM28.87 33.4l.58 4.54h2l.58-4.54v-3.45h-3.16zm3.41 7.16c0-.9-.72-1.69-1.83-1.69s-1.83.79-1.83 1.69.72 1.71 1.83 1.71 1.83-.77 1.83-1.71"/>
</svg>
