<svg viewBox="0 0 64 64" xmlns="http://www.w3.org/2000/svg">
  <path fill="#1e1e1c" d="m49.38 11.1-.43-.52H.05v39.55h6.97c.22 4.01 3.55 7.21 7.63 7.21s7.4-3.2 7.63-7.21h18.04c.22 4.01 3.55 7.21 7.63 7.21s7.4-3.2 7.63-7.21h4.1c2.42 0 4.38-1.96 4.38-4.38v-17L49.39 11.09Zm10.3 16.78H49.26c-.62 0-1.13-.5-1.13-1.12V13.93l11.54 13.96ZM14.65 54.59c-2.7 0-4.89-2.19-4.89-4.88s2.2-4.88 4.89-4.88 4.89 2.19 4.89 4.88-2.19 4.88-4.89 4.88m33.29 0c-2.7 0-4.89-2.19-4.89-4.88s2.2-4.88 4.89-4.88 4.89 2.19 4.89 4.88-2.2 4.88-4.89 4.88m11.73-7.21h-4.44c-.99-3.08-3.88-5.31-7.28-5.31s-6.3 2.23-7.28 5.31H21.94c-.99-3.08-3.88-5.31-7.28-5.31s-6.3 2.23-7.28 5.31H2.8V13.33h42.58v13.42c0 2.14 1.74 3.88 3.88 3.88h12.03v15.12c0 .9-.73 1.62-1.63 1.62ZM11.18 34.35h24.99V19.76H11.18zm2.76-11.83h19.48v9.09H13.94z"/>
</svg>
