<svg viewBox="0 0 24 24" xmlns="http://www.w3.org/2000/svg">
  <path fill="#1e1e1c" d="M6.77 14.59c-1.33.71-2.88 1.36-4.7 1.93l-.89-2.87c1.25-.39 2.35-.83 3.32-1.29-2.46-3.12-2.82-6.63-2.84-6.85l1.49-.13 1.49-.14c.02.18.34 3.14 2.49 5.61 3.37-2.37 4.22-5.04 4.4-6.58H0v-3h6.05V-.01h3v1.28h7.78v3h-2.28c-.17 2.04-1.09 5.51-5 8.54.58.33 1.22.62 1.95.84l-.89 2.87c-1.52-.47-2.79-1.15-3.84-1.93m12.63 5.44h-5.43l-1.89 3.96-2.71-1.3 7.29-15.26L24 22.69l-2.7 1.3zm-1.45-3.01-1.28-2.66-1.27 2.66z"/>
</svg>
