<svg viewBox="0 0 40 40" xmlns="http://www.w3.org/2000/svg">
  <path d="M27.86 8.71v7.65c0 1.72 1.4 3.12 3.13 3.12h6.76v8.77c0 .62-.5 1.12-1.13 1.12h-2.2c-.7-1.92-2.54-3.31-4.7-3.31-.15 0-.29.02-.44.03l5.52 5.52h1.83a3.38 3.38 0 0 0 3.38-3.37v-10.3L30.48 6.45H9.64l2.25 2.25h15.97Zm2.25.84 6.34 7.67h-5.46a.88.88 0 0 1-.88-.87zm-.39 24.31a2.77 2.77 0 0 1-2.77-2.77c0-.29.06-.56.14-.82l-1.69-1.69c-.15.25-.28.51-.38.79H14.15c-.7-1.92-2.54-3.31-4.7-3.31s-4 1.38-4.7 3.31H2.26V8.71h3.28L3.29 6.46H0v25.16h4.48c.27 2.52 2.38 4.49 4.97 4.49s4.7-1.97 4.97-4.49h10.33c.27 2.52 2.38 4.49 4.97 4.49.92 0 1.77-.26 2.51-.69l-1.69-1.69c-.26.08-.53.14-.82.14Zm-20.27 0a2.77 2.77 0 1 1 0-5.54 2.77 2.77 0 0 1 0 5.54m11.39-16.2v-3.24H17.6l-2.25-2.25h7.74v7.74zM9.27 14.42v5.12h7.09l2.25 2.25H7.02v-9.62h1.97l2.25 2.25zM40 38.41 38.41 40 0 1.59 1.59 0z"/>
</svg>
