<svg viewBox="0 0 24 24" xmlns="http://www.w3.org/2000/svg">
  <path fill="#1e1e1c" d="M13.13 18.51V9.5c0-.48.39-.88.87-.88s.88.39.88.88v9.01c0 .48-.39.88-.87.88s-.88-.39-.88-.88M24 5.49c0 .48-.39.88-.88.88h-2.26v15.76c0 1.04-.84 1.88-1.87 1.88H5c-1.03 0-1.87-.84-1.87-1.88V6.37H.88C.4 6.37 0 5.98 0 5.49s.39-.88.88-.88h4.24V1.88C5.12.84 5.96 0 6.99 0H17c1.03 0 1.88.84 1.88 1.88v2.74h4.25c.48 0 .88.39.88.88ZM6.87 4.62h10.26V1.88c0-.07-.06-.13-.13-.13H6.99c-.07 0-.13.06-.13.13v2.74Zm12.25 1.75H4.87v15.76c0 .07.06.13.12.13h13.99c.07 0 .12-.06.12-.13V6.37Zm-9.6 13.01c.48 0 .88-.39.88-.88V9.49c0-.48-.39-.88-.88-.88s-.88.39-.88.88v9.01c0 .48.39.88.88.88"/>
</svg>
