<svg viewBox="0 0 64 64" xmlns="http://www.w3.org/2000/svg">
  <path fill="#1e1e1c" d="M61.49 11.79h-11.5V6.51c0-3.59-2.86-6.51-6.37-6.51H20.36c-3.51 0-6.37 2.92-6.37 6.51v5.28H2.49a2.5 2.5 0 0 0 0 5h7.5V60c-.01 2.21 1.78 4 3.99 4h35.99c2.21 0 4-1.79 4-4V16.79h7.52a2.5 2.5 0 0 0 0-5M21.98 55.53c-.76 0-1.38-.62-1.38-1.38V24.14a1.374 1.374 0 1 1 2.75 0v30.01c0 .76-.61 1.38-1.37 1.38m9.99 0c-.76 0-1.38-.62-1.38-1.38V24.14a1.374 1.374 0 1 1 2.75 0v30.01c0 .76-.61 1.38-1.37 1.38m10.01 0c-.76 0-1.38-.62-1.38-1.38V24.14a1.374 1.374 0 1 1 2.75 0v30.01c0 .76-.61 1.38-1.37 1.38M18.99 6.51c0-.83.62-1.5 1.37-1.5h23.26c.76 0 1.37.67 1.37 1.5v5.28h-26z"/>
</svg>
