<svg viewBox="0 0 48 48" xmlns="http://www.w3.org/2000/svg">
  <path fill="#1e1e1c" d="M30.7 38.52V17.49c0-.69.55-1.25 1.24-1.25s1.25.56 1.25 1.25v21.03c0 .69-.55 1.25-1.24 1.25s-1.25-.56-1.25-1.25M48.01 9.45c0 .69-.56 1.25-1.25 1.25h-5.02v33.54c0 2.07-1.8 3.75-4.01 3.75H10.25c-2.21 0-4-1.68-4-3.75V10.7H1.26C.57 10.7 0 10.14 0 9.45S.56 8.2 1.25 8.2h9.49V3.74A3.76 3.76 0 0 1 14.5 0h19.01c2.07 0 3.75 1.68 3.75 3.75V8.2h9.5c.69 0 1.25.56 1.25 1.25M13.25 8.2h21.51V3.74c0-.69-.56-1.25-1.25-1.25H14.5c-.69 0-1.25.56-1.25 1.25v4.45Zm25.99 2.5H8.76v33.54c0 .69.66 1.25 1.49 1.25h27.49c.83 0 1.5-.56 1.5-1.25zM24.5 39.77c.69 0 1.25-.56 1.25-1.25V17.49c0-.69-.57-1.25-1.26-1.25s-1.25.56-1.25 1.25v21.03c0 .69.57 1.25 1.26 1.25m-7.52 0c.69 0 1.25-.56 1.25-1.25V17.49c0-.69-.57-1.25-1.26-1.25s-1.25.56-1.25 1.25v21.03c0 .69.57 1.25 1.26 1.25"/>
</svg>
