<svg viewBox="0 0 40 40" xmlns="http://www.w3.org/2000/svg">
  <path fill="#1e1e1c" d="M37.97 6.94h-6.99v-3c-.01-2.2-1.71-4-3.81-4H12.76c-2.1 0-3.8 1.79-3.8 4v3H1.97c-1.11 0-2 .89-2 2s.9 2 2 2h3.99v27.01c0 1.1 1 2 2.24 2h23.53c1.23 0 2.24-.9 2.24-2V10.94h4c1.11 0 2-.89 2-2s-.9-2-2-2m-24 27.13c-.62 0-1.13-.5-1.13-1.12V14.96c0-.62.5-1.12 1.12-1.12s1.13.5 1.13 1.12v17.99c0 .62-.5 1.12-1.12 1.12m6.25 0c-.62 0-1.13-.5-1.13-1.12V14.96c0-.62.5-1.12 1.12-1.12s1.13.5 1.13 1.12v17.99c0 .62-.5 1.12-1.12 1.12m6.26 0c-.62 0-1.13-.5-1.13-1.12V14.96c0-.62.5-1.12 1.12-1.12s1.13.5 1.13 1.12v17.99c0 .62-.5 1.12-1.12 1.12M12.98 3.94h13.99v3h-14v-3Z"/>
</svg>
