<svg viewBox="0 0 32 32" xmlns="http://www.w3.org/2000/svg">
  <path fill="#1e1e1c" d="M17.99 25V12.49c0-.55.44-1 1-1s1 .45 1 1V25c0 .55-.44 1-1 1s-1-.45-1-1M32 7.14c0 .55-.45 1-1 1h-3.51v20.85c0 1.66-1.39 3-3.1 3H7.6c-1.71 0-3.1-1.35-3.1-3V8.14H1c-.55 0-1-.45-1-1s.45-1 1-1h5.99V2.99a3 3 0 0 1 3-2.99H22c1.65 0 3 1.35 3 3v3.15h6c.55 0 1 .45 1 1Zm-23.01-1H23V2.99c0-.55-.45-1-1-1H9.99c-.55 0-1 .45-1 1zm16.5 2H6.5v20.85c0 .54.5 1 1.1 1h16.79c.6 0 1.1-.46 1.1-1zM13.01 26c.55 0 1-.45 1-1V12.49c0-.55-.45-1-1-1s-1 .45-1 1V25c0 .55.45 1 1 1"/>
</svg>
