<svg viewBox="0 0 64 64" xmlns="http://www.w3.org/2000/svg">
  <path fill="#1e1e1c" d="M40.62 52.5v-30c0-.76.61-1.38 1.37-1.38s1.37.62 1.37 1.38v30c0 .76-.61 1.38-1.37 1.38s-1.37-.62-1.37-1.38M64 12.3c0 .76-.62 1.38-1.37 1.38h-8.26v46.2C54.36 62.15 52.45 64 50.1 64H13.89c-2.35 0-4.26-1.85-4.26-4.13v-46.2H1.38a1.374 1.374 0 1 1-.01-2.75h13.25v-6.8A4.14 4.14 0 0 1 18.75 0h26.51a4.13 4.13 0 0 1 4.12 4.13v6.8h13.24c.76 0 1.37.62 1.37 1.38Zm-46.62-1.38h29.26v-6.8c0-.76-.62-1.38-1.37-1.38H18.76c-.76 0-1.37.62-1.37 1.38v6.8Zm34.23 2.75H12.39v46.2c-.01.76.67 1.38 1.5 1.38h36.2c.83 0 1.51-.62 1.51-1.38v-46.2ZM31.99 53.88c.76 0 1.37-.62 1.37-1.38v-30a1.374 1.374 0 1 0-2.75 0v30c0 .76.62 1.38 1.38 1.38m-9.99 0c.76 0 1.37-.62 1.37-1.38v-30a1.374 1.374 0 1 0-2.75 0v30c0 .76.62 1.38 1.38 1.38"/>
</svg>
