<svg viewBox="0 0 40 40" xmlns="http://www.w3.org/2000/svg">
  <path fill="#1e1e1c" d="M10.76 24.95V10.61H.08V8.36h12.93V27.2H.1v-2.25zm29.3-9.18v16.08c0 2.03-1.65 3.68-3.67 3.68H30.8c-.98 2.61-3.48 4.47-6.41 4.47s-5.43-1.86-6.41-4.47L.07 35.5v-2.25h17.16v-31H.07V0h19.4v9.46h14.44c1.65 0 3.19.65 4.35 1.82.42.42.77.9 1.04 1.41.08.14.15.29.21.44l.06.12c.05.13.1.26.14.39.02.07.05.13.07.2.04.12.07.25.1.38.02.07.04.14.05.22.03.15.05.31.07.46 0 .04.01.09.02.13.03.24.04.49.04.74m-9.65-4.06v9.34c0 .17.13.3.3.3h7.09v-5.68c0-.07-.01-.14-.02-.21 0-.19-.02-.39-.06-.57-.03-.14-.08-.28-.12-.42-.03-.11-.06-.23-.1-.34s-.11-.21-.16-.31c-.07-.13-.13-.26-.21-.39l-.02-.02a3.92 3.92 0 0 0-3.23-1.71h-3.47ZM28.99 33.1c0-2.56-2.07-4.65-4.61-4.65s-4.61 2.08-4.61 4.65 2.07 4.65 4.61 4.65 4.61-2.08 4.61-4.65m8.81-1.26V23.6h-7.09c-1.41 0-2.55-1.14-2.55-2.55v-9.34h-8.65v16.55a6.8 6.8 0 0 1 4.88-2.06c3.78 0 6.86 3.09 6.86 6.9v.17h5.15c.78 0 1.41-.64 1.41-1.43Z"/>
</svg>
