<svg viewBox="0 0 64 64" xmlns="http://www.w3.org/2000/svg">
  <path fill="#1e1e1c" d="M17.69 40.62v-24H.05v-2.75h20.39v29.5H.09v-2.75zm46.32-15.25V51.3c-.01 3.03-2.47 5.5-5.48 5.5h-9.31c-1.44 4.19-5.38 7.21-10.03 7.21s-8.59-3.02-10.03-7.21L.02 56.75V54h28.09V2.76H.05V.01h30.81v15.63h23.69c2.53 0 4.91.99 6.69 2.79.64.64 1.16 1.36 1.59 2.14.01.02.03.04.04.07.11.2.2.41.3.62.04.08.08.16.11.25.07.17.13.35.19.53.04.12.09.24.13.37.05.17.09.35.13.52.03.13.07.26.09.39.04.22.07.44.1.66.01.08.03.17.03.25q.06.555.06 1.14m-15.54-6.98v15.5c0 .51.41.92.92.92h11.86v-9.65c0-.22-.01-.44-.03-.65 0-.07-.02-.15-.03-.22l-.06-.42c-.02-.13-.06-.25-.09-.37-.02-.09-.04-.19-.07-.28l-.12-.36c-.04-.1-.07-.2-.11-.29-.03-.08-.08-.16-.11-.25-.06-.13-.12-.26-.18-.38-.01-.02-.03-.05-.04-.07a6.75 6.75 0 0 0-5.9-3.49h-6.03Zm-1.4 34.94c0-4.38-3.53-7.94-7.86-7.94s-7.86 3.56-7.86 7.94 3.53 7.94 7.86 7.94 7.86-3.56 7.86-7.94m14.18-2.03V37.57H49.39c-2.02 0-3.67-1.65-3.67-3.67V18.4H30.9v28.29c1.95-2.46 4.94-4.04 8.3-4.04 5.85 0 10.61 4.79 10.61 10.69 0 .24-.02.48-.04.72h8.76c1.5 0 2.71-1.23 2.71-2.75Z"/>
</svg>
