<svg viewBox="0 0 48 48" xmlns="http://www.w3.org/2000/svg">
  <path fill="#1e1e1c" d="M12.99 30.1V12.61H.04v-2.5h15.45v22.5H.07v-2.5h12.92Zm35.02-11.18V38.3c-.01 2.39-1.94 4.33-4.31 4.33h-6.79c-1.14 3.14-4.13 5.39-7.64 5.39s-6.49-2.25-7.64-5.39h-.83v-.04H.01v-2.5h20.75V2.53H.03V.02h23.22v11.4h17.47c1.95 0 3.78.77 5.15 2.16.49.5.9 1.06 1.23 1.66 0 .01.01.02.02.03.09.16.16.33.24.5a3.5 3.5 0 0 1 .23.59c.03.09.07.18.09.27.04.13.07.27.1.4.02.1.05.2.07.3.03.17.05.33.08.5 0 .07.02.13.03.2.03.29.05.58.04.87Zm-11.6-4.99v11.36c0 .26.21.47.47.47h8.63v-6.94c0-.1-.02-.2-.03-.3a5 5 0 0 0-.07-.66c-.04-.19-.1-.37-.16-.56-.04-.12-.07-.25-.11-.37-.06-.15-.15-.29-.23-.44-.08-.14-.14-.29-.23-.42-.03-.04-.07-.08-.1-.12-.88-1.22-2.29-2.02-3.9-2.02H36.4Zm-1.49 25.89c0-3.15-2.53-5.71-5.65-5.71s-5.65 2.56-5.65 5.71 2.53 5.71 5.65 5.71 5.65-2.56 5.65-5.71M45.5 38.3V28.26h-8.63c-1.63 0-2.96-1.33-2.96-2.97V13.93H23.29v20.32c1.49-1.62 3.61-2.65 5.97-2.65 4.49 0 8.14 3.68 8.14 8.21 0 .11-.01.21-.02.31h6.3c.99 0 1.8-.82 1.8-1.83Z"/>
</svg>
