<svg viewBox="0 0 24 24" xmlns="http://www.w3.org/2000/svg">
  <path fill="#1e1e1c" d="M22.84 6.47a3.25 3.25 0 0 0-2.32-.99h-8.89V16.7c.72-.43 1.56-.69 2.46-.69 2.69 0 4.88 2.19 4.88 4.87 0 .16-.03.31-.05.46h2.88c1.2 0 2.18-1.07 2.18-2.39V9.42c.02-1.13-.4-2.21-1.14-2.95m-1.02 7.36h-4.17c-.4 0-.72-.32-.72-.72V7.82h2.33c1.41 0 2.56 1.14 2.56 2.55v3.45ZM-.01 21.32h9.27c-.01-.15-.05-.29-.05-.45 0-1.17.43-2.22 1.11-3.06V0H0v21.32ZM0 4.82h7.03V16.4H.01v-1.75h5.26V6.57H0zm17.22 16.06c0 1.72-1.4 3.12-3.13 3.12s-3.13-1.4-3.13-3.12 1.4-3.12 3.13-3.12 3.13 1.4 3.13 3.12"/>
</svg>
