<svg viewBox="0 0 24 24" xmlns="http://www.w3.org/2000/svg">
  <path fill="#1e1e1c" d="M6.15 14.67V6.59H0V4.84h7.9v11.59H.02v-1.75h6.13Zm17.84-5.23v9.53c0 1.32-1.08 2.39-2.39 2.39h-3.18c-.65 1.56-2.17 2.65-3.96 2.65s-3.31-1.1-3.96-2.65h-.49v-.02H0v-1.75h10V1.76H0V.01h11.74v5.47h8.38c1.04 0 2.01.41 2.73 1.14.13.14.24.29.36.44.03.05.08.09.11.14.08.12.14.25.21.38.05.1.11.19.15.29.05.12.08.25.12.38.04.12.08.23.1.36.04.18.04.36.06.55 0 .07.02.13.02.2v.08Zm-5.74-2.2v5.3h3.99V9.38s0-.08-.01-.12a1.5 1.5 0 0 0-.1-.54c-.02-.05-.03-.11-.05-.16-.03-.06-.06-.12-.1-.18a.7.7 0 0 0-.11-.19s-.01-.02-.02-.03c-.38-.55-1.02-.91-1.74-.91h-1.86ZM17 19.71c0-1.4-1.14-2.55-2.54-2.55s-2.54 1.14-2.54 2.55 1.14 2.55 2.54 2.55S17 21.12 17 19.71m5.24-.74v-4.68h-4.01c-.95 0-1.72-.77-1.72-1.72V7.24h-4.74v9.16c.74-.61 1.67-.99 2.7-.99 2.33 0 4.22 1.87 4.28 4.19h2.86c.35 0 .63-.29.63-.64Z"/>
</svg>
