<svg viewBox="0 0 48 48" xmlns="http://www.w3.org/2000/svg">
  <path fill="#1e1e1c" d="M17.92 42.49c-.02-.25-.04-.5-.04-.75 0-1.85.58-3.57 1.55-4.99V.04H-.03l-.02 42.45h17.98ZM-.03 10.09h13.8v22.43H0v-2.5h11.28V12.58H-.03v-2.5Zm32.92 31.65c0 3.47-2.81 6.3-6.25 6.3s-6.25-2.83-6.25-6.3 2.81-6.3 6.25-6.3 6.25 2.83 6.25 6.3m12.9-28.27a6.83 6.83 0 0 0-4.89-2.06H21.73v23.05a8.7 8.7 0 0 1 4.9-1.51c4.82 0 8.75 3.95 8.75 8.8 0 .26-.02.53-.04.78h8.41c2.3 0 4.18-1.94 4.18-4.32V18.89c.03-2.04-.75-4.01-2.14-5.41Zm-1.28 15.76h-9.88c-.95 0-1.71-.77-1.71-1.71V14.95h5.53c3.35 0 6.07 2.72 6.07 6.07v8.22Z"/>
</svg>
