<svg viewBox="0 0 40 40" xmlns="http://www.w3.org/2000/svg">
  <path d="M18.5 4.92c-.68-.68-1.58-1.02-2.48-1.02s-1.79.34-2.48 1.02l-8.45 8.45a3.495 3.495 0 0 0 0 4.95l16.59 16.57c.68.68 1.58 1.02 2.48 1.02s1.79-.34 2.48-1.02l8.45-8.45a3.495 3.495 0 0 0 0-4.95zM6.69 14.96l8.45-8.45a1.234 1.234 0 0 1 1.76 0L28.8 18.4 18.58 28.61 6.68 16.72a1.25 1.25 0 0 1 0-1.77Zm26.81 9.89-8.45 8.45a1.234 1.234 0 0 1-1.76 0l-3.1-3.1 10.22-10.21 3.1 3.1a1.234 1.234 0 0 1 0 1.76Zm-6.18.69 1.5 1.5-1.59 1.59-1.5-1.5zm12.35-15.28-5.59 5.59-5.59-5.59c-.44-.44-.44-1.15 0-1.59s1.15-.44 1.59 0l2.88 2.87V4.06c0-.99-.81-1.8-1.8-1.8h-8.58V.02h8.58c2.23 0 4.05 1.82 4.05 4.05v7.48l2.88-2.87c.44-.44 1.15-.44 1.59 0s.44 1.15 0 1.59ZM8.85 37.77h8.58v2.25H8.85c-2.23 0-4.05-1.82-4.05-4.05v-7.48l-2.88 2.87c-.44.44-1.15.44-1.59 0s-.44-1.15 0-1.59l5.59-5.59 5.59 5.59a1.123 1.123 0 0 1-.8 1.92c-.29 0-.58-.11-.8-.33l-2.88-2.87v7.48c0 .99.81 1.8 1.8 1.8Z"/>
</svg>
