<svg viewBox="0 0 24 24" xmlns="http://www.w3.org/2000/svg">
  <path d="M3.3 11.14a2.25 2.25 0 0 1-.62-2.02c.08-.43.29-.83.62-1.16l4.74-4.71c.22-.22.48-.38.75-.49.5-.2 1.07-.21 1.58-.04.18.06.36.14.52.24.13.08.24.18.36.29l6.32 6.29-7.94 7.89-6.32-6.29Zm18 2.35c.11.27.17.56.17.85s-.06.58-.17.85-.28.52-.5.74l-4.74 4.71a2.26 2.26 0 0 1-1.6.65c-.58 0-1.16-.22-1.6-.66l-1.99-1.98 7.94-7.89 1.99 1.98c.22.22.39.47.5.74Zm-3.55 2.87-1.2-1.19-1.25 1.24 1.2 1.19zM23.8 5.17a.893.893 0 0 0-1.25 0L21.21 6.5V2.6c0-1.42-1.17-2.59-2.61-2.59h-5.08v1.75h5.08c.47 0 .85.38.85.85v3.9l-1.34-1.33a.893.893 0 0 0-1.25 0c-.34.34-.34.9 0 1.24l3.46 3.44 3.46-3.44c.34-.34.34-.9 0-1.24ZM4.66 21.41v-3.9L6 18.84c.17.17.4.26.62.26s.45-.08.62-.26c.34-.34.34-.9 0-1.24l-3.46-3.44L.32 17.6c-.34.34-.34.9 0 1.24s.9.34 1.25 0l1.34-1.33v3.9c0 1.43 1.17 2.6 2.61 2.6h5.08v-1.75H5.52a.85.85 0 0 1-.85-.85Z"/>
</svg>
