<svg viewBox="0 0 16 16" xmlns="http://www.w3.org/2000/svg">
  <path d="M7.49 2.35c-.29-.29-.68-.44-1.06-.44s-.77.15-1.06.44L2.31 5.39c-.59.58-.59 1.53 0 2.11l6.2 6.16c.29.29.68.44 1.06.44s.77-.15 1.06-.44l3.06-3.04c.59-.58.59-1.53 0-2.11zM6.43 3.4l3.41 3.39-3.06 3.04-3.41-3.39L6.42 3.4Zm3.14 9.2-1.72-1.71 3.06-3.04 1.72 1.71zm.78-3.31.78.78-1.06 1.05-.78-.78zm5.43-4.77L13.4 6.89l-2.38-2.37c-.29-.29-.29-.76 0-1.05s.77-.29 1.06 0l.57.57V1.91a.38.38 0 0 0-.38-.38H8.96V.04h3.31c1.04 0 1.88.84 1.88 1.87v2.12l.57-.57c.29-.29.77-.29 1.06 0s.29.76 0 1.05ZM3.73 14.55h3.31v1.49H3.73c-1.04 0-1.88-.84-1.88-1.87v-2.12l-.57.57c-.29.29-.77.29-1.06 0s-.29-.76 0-1.05L2.6 9.2l2.38 2.37c.29.29.29.76 0 1.05-.15.15-.34.22-.53.22s-.38-.07-.53-.22l-.57-.57v2.12c0 .21.17.38.38.38"/>
</svg>
