<svg viewBox="0 0 32 32" xmlns="http://www.w3.org/2000/svg">
  <path d="M4.33 14.82c-.59-.59-.88-1.36-.88-2.12 0-.19.02-.38.05-.57.11-.57.38-1.11.82-1.55l6.39-6.4c.08-.08.17-.14.26-.21a2.97 2.97 0 0 1 3.73 0c.09.07.18.13.26.21l9.11 9.12-10.64 10.64zm23.48 2.21c.59.59.88 1.36.88 2.12s-.29 1.54-.88 2.12l-6.39 6.4c-.59.59-1.35.88-2.12.88s-1.54-.29-2.12-.88l-2.32-2.32L25.5 14.71l2.32 2.32Zm-4.3 4.93-1.5-1.5-1.41 1.42 1.5 1.5zm8.21-15.04a.996.996 0 0 0-1.41 0l-2.1 2.1V3.34C28.2 1.5 26.71.01 24.88.01h-6.81v2h6.81c.73 0 1.32.59 1.32 1.32v5.68l-2.1-2.1c-.39-.39-1.02-.39-1.41 0s-.39 1.02 0 1.42l4.51 4.52 4.51-4.52c.39-.39.39-1.02 0-1.42ZM5.81 28.69V23l2.1 2.1c.2.2.45.29.71.29s.51-.1.71-.29c.39-.39.39-1.02 0-1.42l-4.51-4.52L.3 23.69c-.39.39-.39 1.02 0 1.42s1.02.39 1.41 0l2.1-2.1v5.68c0 1.83 1.49 3.32 3.32 3.32h6.8v-2h-6.8c-.73 0-1.32-.59-1.32-1.32"/>
</svg>
