<svg viewBox="0 0 16 16" xmlns="http://www.w3.org/2000/svg">
  <path d="M12.78 7.7h.02c.17.03.34.04.5.04 1.67 0 2.75-1.37 2.69-2.99-.06-1.7-1.46-2.95-3.14-2.95h-.15c-2.68.12-3.22 2.35-3.32 3.1-.43-.34-.89-.63-1.41-.84-.04-.02-.09-.03-.13-.05-.16-.06-.32-.11-.49-.15-.06-.02-.12-.03-.18-.05q-.24-.06-.48-.09c-.06 0-.12-.02-.18-.03-.22-.03-.44-.04-.67-.04s-.43.01-.64.04c-.04 0-.08.01-.12.02-.18.02-.35.05-.52.09-.03 0-.05.01-.08.02-.19.05-.37.1-.55.16 0 0-.02 0-.03.01-.68.24-1.3.6-1.84 1.06-.15.13-.29.27-.43.41-.02.02-.03.04-.05.06-.12.13-.23.26-.34.39-.03.03-.05.07-.07.1-.09.12-.18.25-.26.39-.03.04-.06.09-.08.14-.07.12-.14.25-.21.38-.03.06-.05.11-.08.17-.06.13-.11.25-.16.38-.02.06-.05.12-.07.19-.04.13-.08.26-.11.39-.02.07-.04.13-.05.2-.03.14-.05.28-.07.42 0 .06-.02.12-.03.19-.02.21-.04.42-.04.63 0 .47.18 1.06.82 1.59l-.65 1.19a1.846 1.846 0 0 0 1.74 2.48c.76 0 1.47-.47 1.74-1.22l.7-1.28c.48.05.97.09 1.48.09h.42l.51 1.41a1.85 1.85 0 0 0 2.33 1.19c.97-.31 1.51-1.36 1.19-2.33l-.06-.17c.06 0 .12 0 .17-.02l.38.43c.37.45.9.68 1.44.68.41 0 .82-.14 1.17-.41.79-.64.92-1.81.27-2.6l-1-1.15c-.05-.06-.11-.1-.17-.15.08-.85.08-1.53.29-1.53Zm-1.92-2.54c.04-.49.31-1.8 1.92-1.87h.08c.91 0 1.61.64 1.64 1.5.02.45-.12.86-.38 1.12-.21.22-.48.32-.82.32-.09 0-.18 0-.27-.02l-.13-.02h-.12c-1.56 0-1.68 1.62-1.74 2.39-.16 2.11-.49 2.35-.98 2.37a.57.57 0 0 1-.43-.26.6.6 0 0 1-.11-.35c.97-1.68 1.42-3.42 1.34-5.19Zm-8.53 7.66-.06.1-.04.11c-.06.16-.21.23-.33.23-.04 0-.08 0-.12-.02a.36.36 0 0 1-.2-.18.4.4 0 0 1-.03-.2l.58-1.06c.2.07.42.14.65.2l-.46.83Zm3.94-4.1-1.74-.11-1.75 1.82c-.74-.24-1.18-.55-1.26-.86l1.8-1.88-.59-1.23c.35-.36.78-.66 1.24-.88l.74 1.53 1.72.11 1.22-1.67c.46.21.88.5 1.24.85L7.64 8.1l.57 1.48c-.04.07-.07.15-.12.22-.07.28-.08.55-.05.82-.3.06-.63.12-.98.15l-.8-2.06Zm2.57 4.62c-.03.06-.09.14-.21.18-.04.01-.07.02-.11.02-.13 0-.28-.08-.34-.24v-.02l-.02-.02-.37-1.03c.24-.03.47-.08.7-.13l.36 1c.03.11 0 .2-.03.25Zm3.66-1.86c.11.15.09.36-.06.48-.08.07-.16.08-.22.08s-.18-.02-.27-.13l-.02-.02-.02-.02-.18-.21c.15-.19.27-.41.37-.65l.4.46Zm-.13-6.74c0-.41.34-.75.75-.75s.75.34.75.75-.34.75-.75.75-.75-.34-.75-.75"/>
</svg>
