<svg viewBox="0 0 24 24" xmlns="http://www.w3.org/2000/svg">
  <path d="M19.2 11.55h.03c.26.04.51.06.76.06 2.51 0 4.14-2.06 4.06-4.51-.09-2.55-2.2-4.44-4.73-4.44h-.23c-4.41.2-4.97 4.18-5.03 4.92A8.46 8.46 0 0 0 8.75 5.7c-1.74 0-3.36.53-4.71 1.42h-.02s0 .01-.02.01a8.56 8.56 0 0 0-3.56 5.11c0 .02 0 .03-.01.05-.15.62-.23 1.27-.23 1.94s.24 1.44 1.11 2.17c0 .01-.01.02-.02.03L.2 18.4a2.795 2.795 0 0 0 2.62 3.75c1.14 0 2.21-.7 2.62-1.83l1.09-1.97c.02-.06.03-.13.05-.19.7.07 1.41.12 2.16.12.19 0 .38-.01.57-.02.02.08.02.15.05.23l.78 2.15a2.79 2.79 0 0 0 2.65 1.93c.28 0 .57-.04.86-.14a2.784 2.784 0 0 0 1.79-3.51l-.09-.25.52.6c.55.68 1.36 1.03 2.17 1.03a2.783 2.783 0 0 0 2.17-4.54l-1.47-1.69c.15-1.38.12-2.53.47-2.53Zm-3.4-3.83c.05-.68.45-3.17 3.36-3.3h.15c1.64 0 2.92 1.18 2.97 2.75.03.81-.23 1.56-.71 2.05-.41.43-.95.64-1.59.64-.16 0-.32-.01-.49-.04l-.16-.02h-.14c-1.88 0-2.03 1.97-2.12 3.14-.24 3.03-.7 3.99-1.99 4.03h-.04c-.56-.06-.88-.41-1.01-.61a1.4 1.4 0 0 1-.24-.97c1.46-2.48 2.13-5.06 2-7.66Zm-9.07 4.36 2.81.17.61 1.84c-1.63.15-3.34.05-4.78-.25zm6.55-2.86c.24.21.45.45.66.7-.18 1.25-.57 2.48-1.18 3.68-.28.09-.56.16-.86.23l-.74-2.21 2.11-2.4Zm-1.45-1-2.02 2.3-2.96-.18-1.2-2.11c.93-.48 1.98-.75 3.09-.75s2.16.27 3.08.75ZM4.2 9.23l1.07 1.88-1.7 2.19c-.6-.26-1.06-.57-1.34-.92A6.8 6.8 0 0 1 4.2 9.23m-.29 10.26-.07.12-.05.13a1.035 1.035 0 0 1-1.32.62c-.5-.18-.78-.72-.65-1.23l1.01-1.82c.11.05.21.1.34.14.49.18 1.04.32 1.62.45l-.88 1.6Zm-1.92-5.05c1.64 1.01 4.16 1.47 6.62 1.47 1.2 0 2.38-.12 3.43-.33 0 .22.02.44.07.66-1 .2-2.14.31-3.37.31-3.55 0-6.47-.93-6.75-2.1Zm11.72 5.83c-.13.25-.34.43-.6.51a1.033 1.033 0 0 1-1.3-.66v-.03l-.02-.03-.69-1.9c.65-.07 1.29-.18 1.9-.32.08.07.16.13.25.2l.53 1.47c.08.26.05.53-.07.77Zm5.15-3.37c.34.44.27 1.08-.17 1.43-.24.19-.48.23-.65.23-.31 0-.61-.14-.8-.38l-.02-.02-.02-.02-.08-.09c.56-.45.92-1.1 1.17-1.8l.57.66Zm.31-9.88c0-.48.39-.88.88-.88s.88.39.88.88-.39.88-.88.88-.88-.39-.88-.88"/>
</svg>
