<svg viewBox="0 0 64 64" xmlns="http://www.w3.org/2000/svg">
  <path d="m26.13 31.75 2.45 7.34c-5.44.78-11.5.25-16.23-1.23l5.15-6.64zm23.67 5.61s.06.06.08.09l4.01 4.6a7.434 7.434 0 0 1-1.09 10.46 7.4 7.4 0 0 1-4.68 1.66c-2.16 0-4.31-.94-5.78-2.75l-1.4-1.61.25.68c1.26 3.91-.88 8.1-4.78 9.36a7.43 7.43 0 0 1-9.36-4.79l-2.08-5.73c-.16-.51-.27-1.02-.32-1.53-.44.01-.89.02-1.33.02-1.9 0-3.75-.1-5.52-.28-.07.48-.19.96-.36 1.43l-2.9 5.27a7.45 7.45 0 0 1-6.98 4.89c-.85 0-1.71-.15-2.55-.45a7.43 7.43 0 0 1-4.43-9.53l2.9-5.27c.13-.34.29-.66.46-.98-1.9-1.69-2.41-3.48-2.41-4.91 0-12.02 9.78-21.81 21.81-21.81 6.08 0 11.58 2.52 15.53 6.55-.12-.86-.28-1.76-.45-2.71 0 0-.46-13.84 12.5-14.42.2 0 .4-.01.61-.01 6.74 0 12.37 5.04 12.61 11.85.23 6.53-4.12 12.02-10.81 12.02-.65 0-1.32-.05-2.02-.16h-.07c-1.02 0-.8 3.84-1.4 8.08Zm-8.65-17.63c1.34 7.36 1.59 12.51-5.29 20.3-.29 1.49-.09 2.82.56 3.78.87 1.27 2.38 1.68 3.5 1.8l.22.02c5.32-.07 6.68-4.47 7.31-12.52.1-1.27.18-2.36.35-3.23.6-3.04 2.57-3.37 3.39-3.37.16 0 .33.01.49.04.54.08 1.08.13 1.59.13 2.23 0 4.18-.79 5.63-2.3 1.63-1.69 2.52-4.19 2.42-6.87-.18-5.15-4.5-9.19-9.85-9.19-.16 0-.32 0-.48.01-9.44.42-9.87 9.61-9.86 11.39ZM14.8 47.14c-2.21-.37-4.25-.88-6.01-1.52-.89-.33-1.66-.67-2.35-1.03-.05.11-.11.2-.16.32l-.08.22-.11.2-2.78 5.04c-.71 2.24.47 4.67 2.7 5.48.49.18 1 .27 1.52.27 1.85 0 3.52-1.17 4.16-2.91l.08-.22.11-.2 2.78-5.04c.06-.2.1-.4.14-.6Zm18.19-6.19c.03-.72.14-1.46.35-2.23.25-.27.47-.53.7-.8-.2-.02-.4-.02-.6.05-.68.23-1.39.43-2.12.6l-2.61-7.82 6.31-7.17c.11-.12.18-.26.23-.41-.69-.56-1.42-1.05-2.18-1.51-.04.04-.09.05-.12.09l-6.39 7.26-8.87-.55-3.95-6.93c-.8.47-1.57.99-2.29 1.56l3.75 6.58-5.55 7.16c-2.17-.98-3.85-2.2-4.76-3.62a19 19 0 0 0-.56 3.47c4.03 3.59 11.63 5.49 19.03 5.49 3.39 0 6.7-.42 9.63-1.23Zm5.35 10.51-1.38-3.79c-.72-.32-1.34-.73-1.87-1.22-2.29.59-4.81 1-7.42 1.2.03.24.07.48.15.72l2.06 5.68.02.05.02.05a4.406 4.406 0 0 0 5.57 2.84 4.4 4.4 0 0 0 2.58-2.2c.53-1.04.63-2.22.28-3.33Zm10.69-10.41c-.9 3.04-2.56 5.77-5.75 6.85l1.34 1.54.03.04.03.04c.84 1.04 2.1 1.64 3.44 1.64 1.02 0 1.99-.34 2.78-.99a4.44 4.44 0 0 0 .68-6.19l-2.56-2.93Zm4.94-22.58a2.01 2.01 0 1 0 0-4.02 2.01 2.01 0 0 0 0 4.02"/>
</svg>
