<svg viewBox="0 0 48 48" xmlns="http://www.w3.org/2000/svg">
  <path d="M38.4 21.97h.05c.52.08 1.02.12 1.51.12 5.02 0 8.28-4.11 8.11-9.01-.18-5.11-4.4-8.89-9.45-8.89-.15 0-.3 0-.45.01-9.72.43-9.37 10.81-9.37 10.81.11.6.21 1.16.29 1.71-2.99-2.95-7.07-4.8-11.6-4.8a16.5 16.5 0 0 0-9.17 2.78h-.03c-.01 0-.02.02-.03.03-3.4 2.29-5.9 5.82-6.88 9.92l-.03.11c-.28 1.2-.44 2.44-.44 3.72 0 1.14.41 2.56 1.93 3.89-.09.17-.18.34-.25.53L.41 36.85a5.575 5.575 0 0 0 10.47 3.83l2.18-3.95c.1-.28.17-.57.22-.85 1.35.14 2.75.21 4.19.21.34 0 .69 0 1.03-.02.04.31.11.63.21.94l1.56 4.3a5.57 5.57 0 0 0 7.02 3.59 5.574 5.574 0 0 0 3.59-7.02l-.19-.51 1.05 1.21a5.55 5.55 0 0 0 4.33 2.06c1.23 0 2.48-.41 3.51-1.25a5.574 5.574 0 0 0 .82-7.84l-3-3.45s-.04-.05-.06-.07c.45-3.18.28-6.06 1.05-6.06Zm-.12-15.26h.34c1.83 0 3.56.66 4.85 1.86a6.5 6.5 0 0 1 2.09 4.6c.07 1.89-.55 3.65-1.7 4.83-1 1.04-2.36 1.59-3.91 1.59-.36 0-.74-.03-1.13-.09-.14-.02-.29-.03-.44-.03-2.83 0-3.06 2.97-3.25 5.35-.58 7.45-2.21 8.94-5.02 8.99l-.14-.02c-.75-.08-1.75-.35-2.31-1.16-.41-.6-.54-1.43-.37-2.39 5.18-5.92 4.98-10.02 3.99-15.46 0-1.34.37-7.77 6.98-8.06Zm-8.99 14.16c-.23 2.33-1.2 4.58-3.61 7.4-.22-.05-.45-.07-.68.01-.44.15-.91.28-1.38.4l-1.85-5.55 4.65-5.29s.04-.08.07-.11c1.08.91 2.03 1.97 2.79 3.15Zm-16.06 2.78 6.21.38 1.7 5.1c-3.87.52-8.13.17-11.52-.84l3.6-4.65Zm11.22-7.37-4.62 5.25-6.43-.4-2.8-4.91c2.04-1.15 4.38-1.81 6.88-1.81s4.91.68 6.97 1.86ZM8.53 17.66l2.61 4.59-3.97 5.12c-1.47-.69-2.61-1.54-3.26-2.51.77-2.86 2.4-5.37 4.61-7.2Zm2.24 18.06L8.7 39.48l-.09.17-.07.18a3.08 3.08 0 0 1-2.88 2.02c-.36 0-.71-.06-1.05-.19a3.07 3.07 0 0 1-1.88-3.78l2.07-3.76.09-.17.07-.18c.47.23.99.46 1.56.67 1.26.46 2.71.83 4.28 1.11-.01.06-.01.12-.03.18Zm-7.35-7.23c0-.17.02-.34.03-.5 3.16 2.53 8.71 3.87 14.11 3.87 2.52 0 4.99-.31 7.18-.91 0 .66.09 1.29.28 1.86-2.16.49-4.73.78-7.53.78-7.89 0-14.07-2.24-14.07-5.09Zm24.9 12.5a3.03 3.03 0 0 1-1.79 1.52c-.31.1-.63.15-.95.15-1.33 0-2.51-.85-2.92-2.12v-.04l-.03-.04-1.54-4.25c-.03-.09-.04-.18-.06-.27 1.93-.17 3.79-.47 5.48-.92.27.22.56.42.88.58l1.12 3.09c.24.77.17 1.59-.2 2.3Zm10.17-7.84c.5.63.73 1.42.65 2.22-.08.81-.48 1.55-1.12 2.06-.55.45-1.22.69-1.93.69-.93 0-1.8-.41-2.38-1.13l-.03-.03-.03-.03-.95-1.09c2.14-.83 3.31-2.67 3.98-4.76l1.81 2.08Zm.48-20.8c0-.83.67-1.51 1.51-1.51s1.51.67 1.51 1.51-.67 1.51-1.51 1.51-1.51-.67-1.51-1.51"/>
</svg>
