<svg viewBox="0 0 48 48" xmlns="http://www.w3.org/2000/svg">
  <path d="m19.44 24.03 1.7 5.1c-3.87.52-8.13.17-11.52-.84l3.6-4.65 6.21.38Zm17.91 4 .06.06 3 3.45a5.565 5.565 0 0 1-.82 7.84 5.55 5.55 0 0 1-3.51 1.25c-1.62 0-3.23-.7-4.33-2.06l-1.05-1.21.19.51a5.574 5.574 0 0 1-5.31 7.29c-2.35 0-4.54-1.5-5.3-3.86L18.72 37c-.1-.31-.17-.62-.21-.94-.34 0-.68.02-1.03.02-1.44 0-2.84-.08-4.19-.21-.05.29-.12.57-.22.85l-2.18 3.95a5.58 5.58 0 0 1-7.15 3.32 5.575 5.575 0 0 1-3.32-7.15l2.18-3.95c.07-.19.16-.35.25-.53C1.33 31.03.92 29.61.92 28.47c0-9.14 7.44-16.57 16.57-16.57 4.53 0 8.61 1.85 11.6 4.81-.08-.55-.18-1.12-.29-1.72 0 0-.34-10.38 9.37-10.81.15 0 .3-.01.45-.01 5.06 0 9.28 3.78 9.45 8.89.17 4.9-3.09 9.01-8.11 9.01-.49 0-.99-.04-1.51-.12h-.05c-.77 0-.6 2.88-1.05 6.06ZM31.3 14.77c.99 5.44 1.19 9.54-3.99 15.46-.16.96-.03 1.79.37 2.39.56.82 1.56 1.08 2.31 1.16l.14.02c2.81-.04 4.44-1.54 5.02-8.99.19-2.39.42-5.35 3.25-5.35.15 0 .29.01.44.03.38.06.76.09 1.13.09 1.55 0 2.91-.55 3.91-1.59 1.14-1.18 1.76-2.94 1.7-4.83a6.55 6.55 0 0 0-2.09-4.6c-1.3-1.2-3.02-1.86-4.85-1.86h-.34c-6.61.29-6.97 6.72-6.98 8.06ZM10.8 35.53c-1.57-.27-3.02-.64-4.28-1.11-.58-.21-1.09-.44-1.56-.67l-.07.18-.09.17-2.07 3.76a3.07 3.07 0 0 0 1.88 3.78c.34.12.69.19 1.05.19 1.28 0 2.44-.81 2.88-2.02l.07-.18.09-.17 2.07-3.76c.02-.06.02-.12.03-.18Zm13.94-4.58c0-.61.09-1.24.27-1.9.24-.27.46-.52.68-.78-.22-.05-.45-.07-.68 0-.44.15-.91.28-1.38.4l-1.85-5.55 4.65-5.29s.04-.08.07-.12c-.64-.53-1.33-1.01-2.05-1.42l-4.62 5.25-6.43-.4-2.8-4.91c-.73.41-1.43.89-2.08 1.42l2.61 4.59-3.97 5.12c-1.46-.68-2.61-1.52-3.26-2.48-.26.99-.42 2.03-.46 3.1 3.15 2.53 8.71 3.87 14.11 3.87 2.52 0 4.99-.32 7.18-.91Zm3.78 7.73-1.12-3.09c-.32-.17-.62-.37-.88-.59-1.69.45-3.54.76-5.48.93.02.09.04.18.06.26l1.54 4.25v.04l.03.04a3.05 3.05 0 0 0 2.92 2.12c.32 0 .64-.05.95-.15a3.06 3.06 0 0 0 1.79-1.52c.37-.72.44-1.54.2-2.3Zm8.16-7.6c-.67 2.08-1.85 3.92-3.98 4.76l.95 1.09.03.03.03.03c.59.72 1.45 1.13 2.38 1.13.71 0 1.38-.24 1.93-.69 1.3-1.06 1.51-2.97.47-4.29l-1.81-2.08Zm3.8-17.22c.83 0 1.51-.67 1.51-1.51s-.67-1.51-1.51-1.51-1.51.67-1.51 1.51.67 1.51 1.51 1.51"/>
</svg>
