<svg viewBox="0 0 48 48" xmlns="http://www.w3.org/2000/svg">
  <path fill="#1e1e1c" d="M47 1.06C45.79-.16 43.92-.31 42.5.75L15.44 21.81c-.8-3.47-3.91-6.06-7.62-6.06-4.31 0-7.82 3.51-7.82 7.83s3.51 7.83 7.83 7.83c2.08 0 3.98-.83 5.38-2.16l7.23-5.63 4.02 4.03-5.64 7.28a7.8 7.8 0 0 0-2.06 5.27c0 4.32 3.51 7.83 7.83 7.83s7.83-3.51 7.83-7.83c0-3.72-2.6-6.83-6.08-7.63L47.29 5.53c1.04-1.37.92-3.25-.29-4.47M7.82 26.91a3.329 3.329 0 1 1 0-6.66c1.84 0 3.33 1.49 3.33 3.33s-1.49 3.33-3.33 3.33m20.09 13.3c0 1.84-1.49 3.33-3.33 3.33s-3.33-1.49-3.33-3.33 1.49-3.33 3.33-3.33 3.33 1.49 3.33 3.33m-.67-16.14-3.22-3.23L38.44 9.62 27.25 24.06Z"/>
</svg>
