<svg viewBox="0 0 16 16" xmlns="http://www.w3.org/2000/svg">
  <path fill="#1e1e1c" d="M15.57.45C15-.13 14.12-.2 13.44.3L5.61 6.38c-.51-.92-1.48-1.56-2.6-1.56C1.37 4.82.04 6.16.04 7.81s1.34 2.99 2.98 2.99c.77 0 1.46-.3 1.99-.78s1.28-.99 1.28-.99l.69.69L5.99 11c-.47.53-.76 1.22-.76 1.98 0 1.65 1.34 2.99 2.98 2.99s2.98-1.34 2.98-2.99c0-1.12-.63-2.09-1.55-2.6l6.06-7.81c.49-.65.43-1.54-.14-2.12ZM3.01 8.29c-.26 0-.48-.21-.48-.48s.21-.48.48-.48.48.21.48.48-.21.48-.48.48m5.28-.81 1.08-.84-.84 1.08zm-.08 5.98c-.26 0-.48-.21-.48-.48s.21-.48.48-.48.48.21.48.48-.21.48-.48.48"/>
</svg>
