<svg viewBox="0 0 48 48" xmlns="http://www.w3.org/2000/svg">
  <path fill="#1e1e1c" d="M47.27.75c-.89-.9-2.21-1-3.25-.23L14.14 23.77c0-.08.01-.16.01-.25 0-3.91-3.18-7.09-7.08-7.09S0 19.62 0 23.52s3.18 7.09 7.08 7.09c1.91 0 3.65-.77 4.92-2s8.35-6.52 8.35-6.52l5.6 5.6-6.5 8.39a7.06 7.06 0 0 0-1.92 4.84c0 3.91 3.18 7.09 7.08 7.09s7.08-3.18 7.08-7.09-3.18-7.09-7.08-7.09c-.09 0-.18.01-.27.01L47.47 3.98c.76-1 .68-2.33-.21-3.23ZM7.07 28.11c-2.53 0-4.58-2.06-4.58-4.59s2.06-4.59 4.58-4.59 4.58 2.06 4.58 4.59-2.06 4.59-4.58 4.59m22.12 12.81c0 2.53-2.06 4.59-4.58 4.59s-4.58-2.06-4.58-4.59 2.06-4.59 4.58-4.59 4.58 2.06 4.58 4.59m-1.7-15.22-5.16-5.16L45.49 2.46 27.48 25.7Z"/>
</svg>
