<svg viewBox="0 0 24 24" xmlns="http://www.w3.org/2000/svg">
  <path fill="#1e1e1c" d="M23.58.45c-.52-.53-1.33-.59-1.94-.14L7.42 11.38c-.2-1.87-1.77-3.34-3.69-3.34C1.68 8.04 0 9.71 0 11.77s1.67 3.73 3.73 3.73c1 0 1.9-.4 2.57-1.04s3.91-3.04 3.91-3.04l2.4 2.41-3.04 3.92c-.61.67-1 1.55-1 2.53a3.73 3.73 0 0 0 7.46 0c0-1.93-1.47-3.5-3.34-3.69L23.7 2.37c.45-.59.4-1.4-.12-1.92M3.73 13.75c-1.09 0-1.98-.89-1.98-1.98s.89-1.98 1.98-1.98 1.98.89 1.98 1.98-.89 1.98-1.98 1.98m10.55 6.53c0 1.09-.89 1.98-1.98 1.98s-1.98-.89-1.98-1.98.89-1.98 1.98-1.98 1.98.89 1.98 1.98m-.59-7.84-2.09-2.1 9.36-7.28-7.26 9.37Z"/>
</svg>
