<svg viewBox="0 0 32 32" xmlns="http://www.w3.org/2000/svg">
  <path fill="#1e1e1c" d="M31.45.55c-.65-.65-1.61-.73-2.37-.17L9.65 15.5c-.1-2.58-2.22-4.66-4.82-4.66s-4.85 2.17-4.85 4.84 2.17 4.85 4.84 4.85c1.3 0 2.48-.52 3.35-1.36s5.39-4.19 5.39-4.19l3.46 3.47-4.19 5.41c-.8.87-1.31 2.02-1.31 3.3 0 2.67 2.17 4.85 4.84 4.85s4.84-2.18 4.84-4.85-2.08-4.74-4.67-4.83L31.6 2.9c.56-.73.49-1.7-.16-2.36ZM4.83 18.53c-1.57 0-2.85-1.28-2.85-2.85s1.28-2.85 2.85-2.85 2.85 1.28 2.85 2.85-1.28 2.85-2.85 2.85m14.4 8.62c0 1.57-1.28 2.85-2.85 2.85s-2.85-1.28-2.85-2.85 1.28-2.85 2.85-2.85 2.85 1.28 2.85 2.85m-.96-10.29-3.11-3.11 13.9-10.82z"/>
</svg>
