<svg viewBox="0 0 24 24" xmlns="http://www.w3.org/2000/svg">
  <path fill="#1e1e1c" d="M23.43.61c-.73-.74-1.86-.82-2.72-.19l-12.6 9.8a4.19 4.19 0 0 0-3.89-2.65c-2.31 0-4.19 1.88-4.19 4.2s1.88 4.2 4.19 4.2c1.1 0 2.09-.43 2.83-1.12s3.22-2.5 3.22-2.5l1.43 1.43-2.5 3.23c-.67.75-1.09 1.72-1.09 2.8 0 2.31 1.88 4.2 4.19 4.2s4.19-1.88 4.19-4.2c0-1.77-1.1-3.28-2.66-3.9l9.77-12.6c.63-.83.55-1.96-.17-2.7M4.22 12.96c-.66 0-1.19-.54-1.19-1.19s.53-1.19 1.19-1.19 1.19.53 1.19 1.19-.53 1.19-1.19 1.19m8.09 8.03c-.66 0-1.19-.54-1.19-1.19s.53-1.19 1.19-1.19 1.19.53 1.19 1.19-.53 1.19-1.19 1.19m1.24-9.61-.89-.89 3.98-3.1z"/>
</svg>
