<svg viewBox="0 0 32 32" xmlns="http://www.w3.org/2000/svg">
  <path fill="#1e1e1c" d="M31.28.76c-.89-.9-2.27-1-3.31-.23L10.56 14.07a5.41 5.41 0 0 0-5.15-3.78C2.43 10.3 0 12.72 0 15.7s2.42 5.41 5.4 5.41c1.43 0 2.73-.56 3.7-1.48l4.55-3.54 2.3 2.3-3.54 4.58A5.4 5.4 0 0 0 11 26.6c0 2.98 2.42 5.41 5.4 5.41s5.4-2.42 5.4-5.41c0-2.42-1.59-4.47-3.78-5.16l13.47-17.4c.76-1.01.67-2.39-.21-3.29ZM5.41 17.61c-1.05 0-1.91-.86-1.91-1.91s.86-1.91 1.91-1.91 1.91.86 1.91 1.91-.86 1.91-1.91 1.91m10.98 10.9c-1.05 0-1.91-.86-1.91-1.91s.86-1.91 1.91-1.91 1.91.86 1.91 1.91-.86 1.91-1.91 1.91m1.72-12.9-1.67-1.68 7.49-5.82-5.81 7.5Z"/>
</svg>
