<svg viewBox="0 0 48 48" xmlns="http://www.w3.org/2000/svg">
  <path d="M24 .01c-13.25 0-24 10.75-24 24s10.75 24 24 24 24-10.75 24-24-10.75-24-24-24m13.8 21.75h-3.3c-1.24 0-2.25 1.01-2.25 2.25s1.01 2.25 2.25 2.25h3.3c-.35 2.18-1.21 4.19-2.45 5.92l-2.33-2.33c-.88-.88-2.3-.88-3.18 0s-.88 2.3 0 3.18l2.33 2.33a13.84 13.84 0 0 1-5.92 2.45v-3.3c0-1.24-1.01-2.25-2.25-2.25s-2.25 1.01-2.25 2.25v3.3c-2.18-.35-4.19-1.21-5.92-2.45l2.33-2.33c.88-.88.88-2.3 0-3.18s-2.3-.88-3.18 0l-2.33 2.33a13.84 13.84 0 0 1-2.45-5.92h3.3c1.24 0 2.25-1.01 2.25-2.25s-1.01-2.25-2.25-2.25h-3.3c.35-2.18 1.21-4.19 2.45-5.92l2.33 2.33c.44.44 1.01.66 1.59.66s1.15-.22 1.59-.66c.88-.88.88-2.3 0-3.18l-2.33-2.33a13.84 13.84 0 0 1 5.92-2.45v3.3c0 1.24 1.01 2.25 2.25 2.25s2.25-1.01 2.25-2.25v-3.3c2.18.35 4.19 1.21 5.92 2.45l-2.33 2.33c-.88.88-.88 2.3 0 3.18.44.44 1.01.66 1.59.66s1.15-.22 1.59-.66l2.33-2.33a13.84 13.84 0 0 1 2.45 5.92m-9.95 2.25c0 2.13-1.72 3.85-3.85 3.85s-3.85-1.72-3.85-3.85 1.72-3.85 3.85-3.85 3.85 1.72 3.85 3.85"/>
</svg>
