<svg viewBox="0 0 40 40" xmlns="http://www.w3.org/2000/svg">
  <path d="M20 .01c-11.05 0-20 8.96-20 20 0 2.76.56 5.39 1.57 7.78.51 1.2 1.13 2.33 1.84 3.4a19.8 19.8 0 0 0 3.86 4.25c3.46 2.85 7.89 4.57 12.72 4.57s9.26-1.71 12.72-4.57a19.8 19.8 0 0 0 3.86-4.25 19.2 19.2 0 0 0 1.84-3.4c1.01-2.39 1.57-5.02 1.57-7.78C40 8.97 31.05.01 20 .01m8.71 22h2.61c-.3 1.68-.96 3.24-1.9 4.59l-1.84-1.84c-.78-.78-2.05-.78-2.83 0s-.78 2.05 0 2.83l1.84 1.84c-1.35.94-2.9 1.6-4.59 1.9v-2.61c0-1.1-.9-2-2-2s-2 .9-2 2v2.61c-1.68-.3-3.24-.96-4.59-1.9l1.84-1.84c.78-.78.78-2.05 0-2.83s-2.05-.78-2.83 0l-1.84 1.84c-.94-1.35-1.6-2.9-1.9-4.59h2.61c1.1 0 2-.9 2-2s-.9-2-2-2H8.68c.3-1.68.96-3.24 1.9-4.59l1.84 1.84c.39.39.9.59 1.41.59s1.02-.2 1.41-.59c.78-.78.78-2.05 0-2.83l-1.84-1.84c1.35-.94 2.9-1.6 4.58-1.9v2.6c0 1.1.9 2 2 2s2-.9 2-2v-2.6c1.68.3 3.24.96 4.58 1.9l-1.84 1.84a2.004 2.004 0 0 0 1.41 3.42c.51 0 1.02-.2 1.41-.59l1.84-1.84c.95 1.35 1.6 2.9 1.9 4.59h-2.61c-1.1 0-2 .9-2 2s.9 2 2 2Zm-5.5-2c0 1.77-1.44 3.21-3.21 3.21s-3.21-1.44-3.21-3.21S18.23 16.8 20 16.8s3.21 1.44 3.21 3.21"/>
</svg>
