<svg viewBox="0 0 64 64" xmlns="http://www.w3.org/2000/svg">
  <path d="M32 0C14.33 0 0 14.33 0 32s14.33 32 32 32 32-14.33 32-32S49.67 0 32 0m0 61.25C15.87 61.25 2.75 48.13 2.75 32S15.87 2.75 32 2.75 61.25 15.87 61.25 32 48.13 61.25 32 61.25M32 10c-12.15 0-22 9.85-22 22s9.85 22 22 22 22-9.85 22-22-9.85-22-22-22m14.53 34.59s0-.01-.01-.02l-3.65-3.65c-.54-.54-1.41-.54-1.95 0s-.54 1.41 0 1.95l3.65 3.65s.01 0 .02.01a19.1 19.1 0 0 1-11.22 4.65V46c0-.76-.62-1.38-1.38-1.38s-1.38.62-1.38 1.38v5.18c-4.28-.3-8.16-2-11.22-4.65 0 0 .01 0 .02-.01l3.65-3.65c.54-.54.54-1.41 0-1.95s-1.41-.54-1.95 0l-3.65 3.65s0 .01-.01.02a19.1 19.1 0 0 1-4.65-11.22h5.18c.76 0 1.38-.62 1.38-1.38s-.62-1.38-1.38-1.38H12.8c.3-4.28 2-8.16 4.65-11.22 0 0 0 .01.01.02l3.65 3.65c.27.27.62.4.97.4s.7-.13.97-.4c.54-.54.54-1.41 0-1.95l-3.65-3.65s-.01 0-.02-.01c3.05-2.65 6.94-4.35 11.22-4.65v5.18c0 .76.62 1.38 1.38 1.38s1.38-.62 1.38-1.38V12.8c4.27.3 8.16 2 11.22 4.65 0 0-.01 0-.02.01l-3.65 3.65a1.376 1.376 0 0 0 1.94 1.95l3.65-3.65s0-.01.01-.02c2.65 3.05 4.35 6.94 4.65 11.22h-5.18c-.76 0-1.38.62-1.38 1.38s.62 1.38 1.38 1.38h5.18c-.3 4.28-2 8.16-4.65 11.22ZM32 26.87c-2.83 0-5.13 2.3-5.13 5.13s2.3 5.13 5.13 5.13 5.13-2.3 5.13-5.13-2.3-5.13-5.13-5.13m0 7.51c-1.31 0-2.38-1.07-2.38-2.38s1.07-2.38 2.38-2.38 2.38 1.07 2.38 2.38-1.07 2.38-2.38 2.38"/>
</svg>
