<svg viewBox="0 0 48 48" xmlns="http://www.w3.org/2000/svg">
  <path d="M24 0C10.75 0 0 10.75 0 24s10.75 24 24 24 24-10.75 24-24S37.25 0 24 0m0 45.5C12.14 45.5 2.5 35.86 2.5 24S12.14 2.5 24 2.5 45.5 12.14 45.5 24 35.86 45.5 24 45.5m0-38C14.89 7.5 7.5 14.89 7.5 24S14.89 40.5 24 40.5 40.5 33.11 40.5 24 33.11 7.5 24 7.5m10.74 25.47-2.43-2.43c-.49-.49-1.28-.49-1.77 0s-.49 1.28 0 1.77l2.43 2.43c-2.13 1.78-4.8 2.94-7.72 3.2V34.5a1.25 1.25 0 0 0-2.5 0v3.44c-2.92-.26-5.59-1.42-7.72-3.2l2.43-2.43c.49-.49.49-1.28 0-1.77s-1.28-.49-1.77 0l-2.43 2.43c-1.78-2.13-2.94-4.8-3.2-7.72h3.44a1.25 1.25 0 0 0 0-2.5h-3.44c.26-2.92 1.42-5.59 3.2-7.72l2.43 2.43c.24.24.56.37.88.37s.64-.12.88-.37c.49-.49.49-1.28 0-1.77l-2.43-2.43c2.13-1.78 4.8-2.94 7.72-3.2v3.44a1.25 1.25 0 0 0 2.5 0v-3.44c2.92.26 5.59 1.42 7.72 3.2l-2.43 2.43a1.25 1.25 0 0 0 0 1.77c.24.24.56.37.88.37s.64-.12.88-.37l2.43-2.43c1.78 2.13 2.94 4.8 3.2 7.72h-3.44a1.25 1.25 0 0 0 0 2.5h3.44c-.26 2.92-1.42 5.59-3.2 7.72ZM24 20.15c-2.13 0-3.85 1.72-3.85 3.85s1.72 3.85 3.85 3.85 3.85-1.72 3.85-3.85-1.72-3.85-3.85-3.85m0 5.2a1.35 1.35 0 1 1 .001-2.701A1.35 1.35 0 0 1 24 25.35"/>
</svg>
