<svg viewBox="0 0 24 24" xmlns="http://www.w3.org/2000/svg">
  <path d="M12.88 2.04V.86c0-.48-.39-.88-.88-.88s-.88.39-.88.88v1.18C4.92 2.43 0 6.94 0 12.43v.88h11.41v8.27c0 .36-.29.66-.66.66h-.88a.66.66 0 0 1-.66-.66v-.9H7.46v.9c0 1.33 1.08 2.41 2.41 2.41h.88c1.33 0 2.41-1.08 2.41-2.41v-8.27H24v-.88c0-5.49-4.92-10-11.12-10.39M1.81 11.56c.41-3.42 3.17-6.25 6.89-7.33-1.09 1.71-1.8 4.3-1.91 7.33zm6.73 0c.2-4.52 1.92-7.8 3.46-7.8s3.27 3.28 3.46 7.8H8.53Zm8.68 0c-.12-3.03-.82-5.61-1.91-7.33 3.72 1.08 6.48 3.91 6.89 7.33z"/>
</svg>
