<svg viewBox="0 0 48 48" xmlns="http://www.w3.org/2000/svg">
  <path d="M25.25 4.14V1.23c0-.69-.56-1.24-1.25-1.24s-1.25.56-1.25 1.24v2.91C10.1 4.7 0 13.8 0 24.9v1.24h23.33V43.6c0 1.04-.85 1.89-1.89 1.89h-1.79c-1.04 0-1.89-.85-1.89-1.89v-1.84h-2.49v1.84c0 2.42 1.97 4.38 4.38 4.38h1.79c2.42 0 4.38-1.97 4.38-4.38V26.14H48V24.9C48 13.8 37.9 4.7 25.25 4.14M2.54 23.65C3.17 15.7 9.81 9.14 18.61 7.2c-2.73 3.43-4.56 9.41-4.75 16.45zm13.8 0C16.62 15.34 19.69 6.6 24 6.6s7.37 8.74 7.66 17.05H16.35Zm17.8 0c-.2-7.04-2.02-13.02-4.75-16.45 8.8 1.94 15.44 8.5 16.07 16.45z"/>
</svg>
