<svg viewBox="0 0 64 64" xmlns="http://www.w3.org/2000/svg">
  <path d="M33.38 5.57V1.36c0-.76-.62-1.38-1.38-1.38s-1.38.62-1.38 1.38v4.2C13.61 6.2 0 18.36 0 33.21v1.38h31.39v23.78c0 1.57-1.27 2.84-2.84 2.84h-2.41c-1.57 0-2.84-1.27-2.84-2.84v-2.48h-2.76v2.48c0 3.09 2.51 5.6 5.6 5.6h2.41c3.09 0 5.6-2.51 5.6-5.6V34.59h29.84v-1.38c0-14.86-13.61-27.02-30.62-27.64ZM2.81 31.83C3.53 20.62 13 11.36 25.48 8.93c-3.95 4.46-6.63 12.9-6.85 22.9zm18.58 0C21.72 17.7 27.03 8.3 32 8.3s10.28 9.39 10.61 23.53H21.4Zm23.98 0c-.23-9.99-2.91-18.44-6.85-22.9C51 11.36 60.47 20.62 61.19 31.83z"/>
</svg>
