<svg viewBox="0 0 48 48" xmlns="http://www.w3.org/2000/svg">
  <path d="M48 24.9v1.24H36.02c-.2-9.37-2.63-17.28-6.22-21.41C40.24 6.98 48 15.17 48 24.9M25.25 4.39V1.23c0-.69-.56-1.24-1.25-1.24s-1.25.56-1.25 1.24v3.16c-4.07 1.44-8.03 9.75-8.28 21.73h8.86V43.6c0 1.04-.85 1.89-1.89 1.89h-1.79c-1.04 0-1.89-.85-1.89-1.89v-1.84h-2.49v1.84c0 2.42 1.97 4.38 4.38 4.38h1.79c2.42 0 4.38-1.97 4.38-4.38V26.12h7.71c-.26-11.98-4.21-20.29-8.28-21.73M0 24.9v1.24h11.98c.2-9.37 2.63-17.28 6.22-21.41C7.76 6.98 0 15.17 0 24.9"/>
</svg>
