<svg viewBox="0 0 40 40" xmlns="http://www.w3.org/2000/svg">
  <path d="M27.56 21.76H21.6v14.51c0 2.05-1.67 3.73-3.73 3.73h-1.49c-2.05 0-3.73-1.67-3.73-3.73v-1.53h2.25v1.53c0 .82.66 1.48 1.48 1.48h1.49c.82 0 1.48-.66 1.48-1.48V21.76h-6.91c.22-8.04 2.76-16.51 6.44-17.98V1.12C18.88.5 19.38 0 20 0s1.12.5 1.12 1.12v2.66c3.68 1.47 6.22 9.94 6.44 17.98M24.78 3.94c2.9 3.49 4.86 10.11 5.02 17.93H40v-1.12c0-8.13-6.5-14.95-15.22-16.81M0 20.76v1.12h10.2c.16-7.83 2.11-14.45 5.02-17.93C6.5 5.81 0 12.63 0 20.76"/>
</svg>
