<svg viewBox="0 0 32 32" xmlns="http://www.w3.org/2000/svg">
  <path d="M22.07 17.26h-4.69v11.68c0 1.69-1.38 3.07-3.07 3.07h-1.18c-1.69 0-3.07-1.38-3.07-3.07v-1.21h1.99v1.21c0 .59.48 1.07 1.07 1.07h1.18c.59 0 1.07-.48 1.07-1.07V17.26H9.92c.2-7.41 2.61-12.77 5.07-13.95V.99C15 .44 15.45 0 16 0s1 .45 1 1v2.31c2.46 1.17 4.87 6.53 5.07 13.95m-2.15-14.1c2.42 2.79 4.04 8.13 4.15 14.44h7.94v-1c0-6.48-5.15-11.92-12.08-13.44ZM0 16.6v1h7.94c.11-6.31 1.73-11.65 4.15-14.44C5.15 4.68 0 10.12 0 16.6"/>
</svg>
