<svg viewBox="0 0 32 32" xmlns="http://www.w3.org/2000/svg">
  <path d="M17 2.76V.99c0-.55-.45-.99-1-.99s-1 .45-1 1v1.77C6.65 3.22 0 9.24 0 16.6v1h15.38v11.33c0 .59-.48 1.07-1.07 1.07h-1.18c-.59 0-1.07-.48-1.07-1.07v-1.21h-1.99v1.21c0 1.69 1.38 3.07 3.07 3.07h1.18c1.69 0 3.07-1.38 3.07-3.07V17.6h14.62v-1c0-7.36-6.65-13.39-15-13.84ZM2.04 15.6c.49-4.95 4.56-9.04 9.99-10.4-1.65 2.31-2.74 6.05-2.89 10.4zm9.09 0C11.36 9.13 13.8 4.71 16 4.71s4.64 4.42 4.87 10.89h-9.73Zm11.72 0c-.15-4.35-1.24-8.09-2.89-10.4 5.44 1.36 9.51 5.46 9.99 10.4z"/>
</svg>
