<svg viewBox="0 0 16 16" xmlns="http://www.w3.org/2000/svg">
  <path d="M8.75 1.35v-.6a.749.749 0 1 0-1.5 0v.6C3.19 1.68 0 4.66 0 8.29v.75h7.43v5.21c0 .14-.11.25-.25.25h-.57c-.14 0-.25-.11-.25-.25v-.59h-1.5v.59c0 .96.79 1.75 1.75 1.75h.57c.96 0 1.75-.78 1.75-1.75V9.04H16v-.75c0-3.63-3.19-6.61-7.25-6.94M1.56 7.54C1.88 5.61 3.4 4 5.46 3.26c-.57 1.09-.95 2.58-1.04 4.28zm4.37 0C6.1 4.63 7.21 2.81 8 2.81s1.9 1.82 2.07 4.73zm5.64 0c-.09-1.7-.46-3.19-1.04-4.28 2.06.74 3.59 2.34 3.9 4.28h-2.87Z"/>
</svg>
