<svg viewBox="0 0 48 48" xmlns="http://www.w3.org/2000/svg">
  <path d="M8.37 17.12h4.5v4.5h-4.5zm8.9 4.5h4.5v-4.5h-4.5zm-8.9 9.04h4.5v-4.5h-4.5zm8.9 0h4.5v-4.5h-4.5zm8.9 0h4.5v-4.5h-4.5zm13.85-9.29v26.66H24.01v-8.01h-8v8.01H0V8h26.67C27.94 3.42 32.15.03 37.13.03 43.12.03 48 4.91 48 10.9c0 4.99-3.39 9.2-7.98 10.47m-2.5.38c-.13 0-.26.02-.39.02-2.42 0-4.65-.81-6.46-2.15v2h-4.5v-4.5h2.06c-1.23-1.76-1.96-3.9-1.96-6.21 0-.13.02-.27.02-.4H2.5v35.03h11.01v-8.01h13.01v8.01h11.01V21.76ZM45.5 10.9c0-4.61-3.75-8.37-8.37-8.37s-8.37 3.75-8.37 8.37 3.75 8.37 8.37 8.37 8.37-3.75 8.37-8.37m-8.27-4.35c-.92 0-1.84.18-2.47.43v1.97c.68-.3 1.38-.44 2.03-.44.89 0 1.13.26 1.13.54s-.06.32-.92.95c-.5.36-.86.77-.86 1.75v.22h2.14c0-.65.2-.8.91-1.26.77-.49 1.2-1.13 1.2-1.94 0-1.42-1.3-2.21-3.14-2.21Zm-.04 5.98c-.91 0-1.44.6-1.44 1.28s.53 1.28 1.44 1.28 1.44-.59 1.44-1.28-.53-1.28-1.44-1.28"/>
</svg>
