<svg viewBox="0 0 24 24" xmlns="http://www.w3.org/2000/svg">
  <path d="M11.78 4.97c-.41 0-.84.09-1.27.28V4.02c.4-.16.97-.27 1.55-.27 1.16 0 1.97.49 1.97 1.38 0 .51-.27.91-.75 1.22-.44.29-.57.38-.57.78s-1.34 0-1.34 0V7c0-.62.22-.87.54-1.1.54-.39.58-.43.58-.59s-.15-.34-.71-.34m.25 2.51c-.57 0-.9.38-.9.8s.33.8.9.8.9-.37.9-.8-.33-.8-.9-.8M5.68 6.25C5.68 2.8 8.48 0 11.94 0s6.26 2.8 6.26 6.25-2.8 6.25-6.26 6.25-6.26-2.8-6.26-6.25m1.75 0c0 2.48 2.02 4.5 4.51 4.5s4.51-2.02 4.51-4.5-2.03-4.5-4.51-4.5-4.51 2.02-4.51 4.5m10.45 8.04H6.15c-3.39 0-6.14 2.74-6.14 6.12v3.6h1.75v-3.6c0-2.41 1.97-4.37 4.38-4.37h11.73c2.42 0 4.38 1.96 4.38 4.37v3.6H24v-3.6c0-3.38-2.75-6.12-6.14-6.12ZM6.05 24.01H7.8v-3.6H6.05zm10.04 0h1.75v-3.6h-1.75z"/>
</svg>
