<svg viewBox="0 0 48 48" xmlns="http://www.w3.org/2000/svg">
  <path d="m48 24.68-1.26 9.21L48 35.33l-2.15 4.07-3-1.76-.1.03-.11.48.45 1.27v1.29l-3.12 1.62-1.55-1.49-3.25.84-.85-1.49-.33-.05-.83 5.47v1.94l-5.33.31-3.09-6.23-1.93.62.71 2.38-3.7 3.44H8.37l-.96-6.96-2.71-.23-1.36 2.48L0 42.98v-9.47l1.57-1.18-.57-.84.62-3.06 3.33-2.92 1.34-5.25 4.41-2.73c2.18 5.2 7.31 8.85 13.3 8.85 6.41 0 11.83-4.18 13.71-9.95l1.76.78-.9 4.74.86 1.34 2.6.31 3.88-.83 2.1 1.91ZM12.09 11.97C12.09 5.41 17.43.07 24 .07s11.91 5.34 11.91 11.9-5.34 11.9-11.91 11.9-11.91-5.34-11.91-11.9m13.21 2.91c0-.68-.53-1.28-1.44-1.28s-1.44.6-1.44 1.28.53 1.28 1.44 1.28 1.44-.59 1.44-1.28m-3.88-4.86c.68-.3 1.38-.44 2.03-.44.89 0 1.13.26 1.13.54s-.06.32-.92.95c-.5.36-.86.77-.86 1.75v.22h2.13c0-.65.2-.8.91-1.26.77-.49 1.2-1.13 1.2-1.94 0-1.41-1.29-2.2-3.14-2.2-.92 0-1.83.18-2.47.43v1.96Z"/>
</svg>
