<svg viewBox="0 0 40 40" xmlns="http://www.w3.org/2000/svg">
  <path d="M20.4 0 8.07 12.09l.79.81.05 7.01 4.65 4.66-4.59 4.59.07 9.66v1.19h24.59V19.29h6.38zm.49 34.16c-1.39 0-2.49-1.08-2.49-2.42s1.1-2.39 2.49-2.39 2.49 1.08 2.49 2.39-1.1 2.42-2.49 2.42m4.26-10.54c-2.25 1.66-2.49 2.01-2.49 3.58v.35h-3.55v-.9c0-2.48 1.01-3.61 2.96-4.92 1.3-.87 2.07-1.66 2.07-2.77 0-1.43-1.3-2.18-3.2-2.18-1.78 0-3.85.67-5.18 1.31v-3.52c1.16-.49 3.47-1.05 5.54-1.05 3.55 0 6.87 1.72 6.87 5.39 0 2.01-1.01 3.23-3.02 4.72Zm-13.19.95-6.1 6.11c-.22.22-.51.33-.8.33s-.58-.11-.8-.33c-.44-.44-.44-1.15 0-1.59l3.38-3.39H0v-2.25h7.65l-3.38-3.39c-.44-.44-.44-1.15 0-1.59s1.15-.44 1.59 0l6.1 6.11Z"/>
</svg>
