<svg viewBox="0 0 64 64" xmlns="http://www.w3.org/2000/svg">
  <path d="m64 32.86-2.8-2.55-5.18 1.1-3.47-.41-1.14-1.79 1.2-6.32-5.43-2.43c.43-1.44.67-2.97.67-4.55C47.86 7.16 40.76.06 32 .06s-15.86 7.1-15.86 15.85c0 2.67.67 5.18 1.83 7.39l-.73.57-1.86-1.24-6.99 4.34-1.79 7.01-4.45 3.89-.82 4.08.77 1.12-2.09 1.57v12.64l4.47.52 1.81-3.31 3.61.31 1.28 9.28h15.26l4.93-4.59-.95-3.18 2.58-.83 4.11 8.31 7.1-.41v-2.59l1.11-7.29.44.07 1.14 1.99 4.33-1.13 2.06 1.99 4.15-2.16v-1.72l-.6-1.69.15-.64.14-.04 4 2.35 2.86-5.43-1.68-1.92L64 32.89ZM32 2.81c7.23 0 13.11 5.88 13.11 13.1S39.23 29.01 32 29.01s-13.11-5.88-13.11-13.1S24.77 2.81 32 2.81m28.25 44.15.44.5-.64 1.21-1.52-.89-1.04-.61-1.15.35-.14.04-1.53.46-.36 1.55-.15.64-.18.78.27.76.32.89-.79.41-.64-.62-1.11-1.07-1.49.39-2.3.6-.1-.17-.65-1.14-1.3-.21-.44-.07-2.73-.44-.42 2.74-1.11 7.29-.03.21v.21l-2.7.16-3.31-6.68-1.05-2.13-2.26.73-2.58.83-2.56.83.77 2.58.46 1.54-2.89 2.69H13.56l-.95-6.9-.3-2.18-2.19-.19-3.61-.31-1.79-.15-.86 1.57-.92 1.69-.19-.02v-8.82l.99-.74 2.1-1.58-1.48-2.17-.11-.17.41-2.03 3.75-3.28.64-.56.21-.83 1.52-5.94 4.55-2.82.39.26 1.66 1.1 1.57-1.23.53-.42c2.9 3.73 7.42 6.15 12.52 6.15 6.2 0 11.55-3.56 14.16-8.75l3.35 1.5-.79 4.19-.2 1.07.59.92 1.14 1.79.7 1.1 1.29.15 3.47.41.45.05.45-.09 3.8-.81.69.63-1.49 10.85-.17 1.24.83.94ZM31.27 12.71c-.86 0-1.79.19-2.71.59v-2.62c.85-.34 2.06-.58 3.3-.58 2.47 0 4.19 1.06 4.19 2.94 0 1.09-.58 1.94-1.6 2.59-.94.61-1.22.82-1.22 1.66v.02h-2.85v-.29c0-1.31.48-1.86 1.15-2.34 1.15-.83 1.23-.91 1.23-1.26s-.32-.72-1.5-.72Zm2.47 7.07c0 .93-.7 1.71-1.92 1.71s-1.92-.78-1.92-1.71.7-1.71 1.92-1.71 1.92.8 1.92 1.71"/>
</svg>
