<svg viewBox="0 0 40 40" xmlns="http://www.w3.org/2000/svg">
  <path d="M39.99 19.26h-6.38V40h-2.25V17.01h3.13L20.38 3.16 9.63 13.69l-1.57-1.61L20.38 0zm-20.2-5.76c-2.07 0-4.38.55-5.54 1.05v3.52c1.33-.64 3.41-1.31 5.18-1.31 1.9 0 3.2.76 3.2 2.18 0 1.11-.77 1.89-2.07 2.76-1.95 1.31-2.96 2.44-2.96 4.92v.9h3.55v-.35c0-1.57.24-1.92 2.49-3.58 2.02-1.48 3.02-2.7 3.02-4.71 0-3.67-3.32-5.38-6.87-5.38m-.41 15.82c-1.39 0-2.49 1.08-2.49 2.39s1.1 2.41 2.49 2.41 2.49-1.08 2.49-2.41-1.1-2.39-2.49-2.39M4.26 18.44c-.44.44-.44 1.15 0 1.59l3.38 3.38H0v2.25h7.65l-3.38 3.38a1.123 1.123 0 0 0 .8 1.92c.29 0 .58-.11.8-.33l6.1-6.1-6.1-6.1c-.44-.44-1.15-.44-1.59 0Z"/>
</svg>
