<svg viewBox="0 0 32 32" xmlns="http://www.w3.org/2000/svg">
  <path d="M5.58 11.42h3v3h-3zm5.93 3h3v-3h-3zm-5.93 6.03h3v-3h-3zm5.93 0h3v-3h-3zm5.94 0h3v-3h-3zm9.24-5.93v17.5H16.01v-5.33h-5.34v5.33H0V5.35h17.47A7.4 7.4 0 0 1 24.58.02C28.67.02 32 3.34 32 7.43c0 3.35-2.24 6.19-5.3 7.1Zm-2 .3h-.11c-1.53 0-2.95-.46-4.13-1.26v.85h-3v-3h.9a7.34 7.34 0 0 1-1.19-4v-.07H2V30h6.67v-5.33h9.34V30h6.67V14.81Zm5.3-7.4c0-2.98-2.43-5.41-5.41-5.41s-5.41 2.43-5.41 5.41 2.43 5.41 5.41 5.41 5.41-2.43 5.41-5.41M24.62 8.5c-.61 0-.96.4-.96.86s.35.86.96.86.96-.39.96-.86-.35-.86-.96-.86m.02-3.98c-.62 0-1.22.12-1.65.29v1.31c.46-.2.92-.3 1.35-.3.59 0 .75.18.75.36s-.04.22-.62.63c-.34.24-.58.51-.58 1.17v.14h1.42c0-.43.14-.54.61-.84.51-.33.8-.75.8-1.29 0-.94-.86-1.47-2.1-1.47Z"/>
</svg>
