<svg viewBox="0 0 16 16" xmlns="http://www.w3.org/2000/svg">
  <path d="M15.99 13.61v2.4h-3.52v-2.4h-1.5v2.4H4.95v-2.4h-1.5v2.4H-.01v-2.4c0-2.35 1.9-4.25 4.25-4.25h7.5a4.26 4.26 0 0 1 4.25 4.25M3.7 4.26C3.7 1.91 5.61 0 7.95 0s4.25 1.9 4.25 4.25S10.3 8.5 7.95 8.5 3.7 6.6 3.7 4.25Zm4.92 1.35c0-.29-.22-.54-.6-.54s-.6.25-.6.54.22.54.6.54.6-.25.6-.54M7 3.59c.29-.13.58-.18.85-.18.37 0 .47.11.47.22s-.03.14-.39.4c-.21.15-.36.32-.36.73v.09h.89c0-.27.08-.34.38-.53.32-.21.5-.47.5-.81 0-.59-.54-.92-1.31-.92-.39 0-.77.08-1.03.18z"/>
</svg>
