<svg viewBox="0 0 32 32" xmlns="http://www.w3.org/2000/svg">
  <path d="M15.16 7.43c0-.71.09-1.4.24-2.07H0v26.66h10.68v-5.33h5.34v5.33H26.7V16.6c-.68.16-1.38.25-2.11.25-5.2 0-9.42-4.22-9.42-9.41ZM8.58 20.45h-3v-3h3zm0-6.02h-3v-3h3zm5.94 6.02h-3v-3h3zm0-6.02h-3v-3h3zm5.93 6.02h-3v-3h3zM24.58.02c-4.09 0-7.42 3.32-7.42 7.41s3.33 7.41 7.42 7.41S32 11.52 32 7.43 28.67.02 24.58.02m.04 10.2c-.61 0-.96-.39-.96-.86s.35-.86.96-.86.96.4.96.86-.35.86-.96.86m1.32-2.92c-.47.3-.61.41-.61.83s-1.42 0-1.42 0v-.14c0-.66.24-.93.58-1.17.58-.41.62-.45.62-.63s-.16-.36-.75-.36c-.43 0-.9.1-1.35.3V4.82c.42-.17 1.03-.29 1.65-.29 1.23 0 2.1.53 2.1 1.47 0 .54-.29.97-.8 1.29Z"/>
</svg>
