<svg viewBox="0 0 24 24" xmlns="http://www.w3.org/2000/svg">
  <path d="M10.86 5.71c0-.59.08-1.16.21-1.71H.02v20h8v-4h4v4h8V12.97c-.55.13-1.11.2-1.7.2-4.11 0-7.46-3.35-7.46-7.46m-4.41 9.62H4.2v-2.25h2.25zm0-4.52H4.2V8.56h2.25zm4.44 4.52H8.64v-2.25h2.25zm0-4.52H8.64V8.56h2.25zm4.45 4.52h-2.25v-2.25h2.25zM18.31 0c-3.14 0-5.7 2.57-5.7 5.71s2.56 5.71 5.71 5.71 5.71-2.56 5.71-5.71S21.46 0 18.31 0m.03 7.81c-.45 0-.72-.29-.72-.64s.26-.64.72-.64.72.3.72.64-.26.64-.72.64m.99-2.2c-.35.23-.45.31-.45.62s-1.07 0-1.07 0v-.11c0-.49.18-.7.43-.88.43-.31.46-.34.46-.47 0-.14-.12-.27-.56-.27-.32 0-.67.07-1.01.22v-.98c.32-.13.77-.22 1.23-.22.92 0 1.57.4 1.57 1.1 0 .41-.22.73-.6.97Z"/>
</svg>
