<svg viewBox="0 0 48 48" xmlns="http://www.w3.org/2000/svg">
  <path d="M26.14 16.58c0 .87-.66 1.6-1.8 1.6s-1.8-.74-1.8-1.6.66-1.6 1.8-1.6 1.8.75 1.8 1.6m-.9-5.95c0 .33-.07.41-1.16 1.18-.63.45-1.08.96-1.08 2.19v.27h2.67c0-.81.25-1 1.14-1.57.96-.61 1.5-1.41 1.5-2.43 0-1.77-1.62-2.76-3.93-2.76-1.16 0-2.3.22-3.09.54v2.46c.85-.37 1.73-.55 2.54-.55 1.11 0 1.41.33 1.41.67m-13.71 1.88c0-6.9 5.6-12.5 12.5-12.5s12.51 5.59 12.51 12.5-5.6 12.5-12.51 12.5-12.51-5.59-12.51-12.5Zm2.5 0c0 5.51 4.49 10 10 10s10-4.48 10-10-4.48-10-10-10-10 4.48-10 10m22.25 16.56H11.79C5.31 29.07.04 34.34.04 40.82v7.19h2.5v-7.19c0-5.1 4.15-9.25 9.25-9.25h24.49c5.1 0 9.25 4.15 9.25 9.25v7.19h2.5v-7.19c0-6.48-5.27-11.75-11.76-11.75ZM12.76 48.01h2.5v-7.19h-2.5zm20.05 0h2.5v-7.19h-2.5z"/>
</svg>
