<svg viewBox="0 0 16 16" xmlns="http://www.w3.org/2000/svg">
  <path d="m15.58 11.31.42.48-.72 1.35-1-.59h-.03l-.04.17.15.42v.43l-1.04.54-.52-.5-1.08.28-.28-.5-.11-.02-.28 1.82v.65l-1.78.1-1.03-2.07-.64.21.24.79-1.23 1.14H2.79l-.32-2.31-.9-.08-.45.83L0 14.32v-3.15l.52-.39-.19-.28.21-1.02 1.11-.97.45-1.75.86-.53C3.82 8.16 5.75 9.5 8 9.5s4.24-1.38 5.08-3.34l-.22 1.16.29.45.87.1 1.29-.27.7.64-.42 3.06ZM3.99 4.03c0-2.21 1.8-4 4.01-4s4.01 1.79 4.01 4-1.8 4-4.01 4-4.01-1.79-4.01-4m4.44.96c0-.23-.18-.43-.48-.43s-.48.2-.48.43.18.43.48.43.48-.2.48-.43M7.14 3.38c.23-.1.46-.15.68-.15.3 0 .38.09.38.18s-.02.11-.31.31c-.17.12-.29.25-.29.58v.07h.71c0-.22.07-.27.3-.42.26-.16.4-.37.4-.65 0-.47-.43-.73-1.05-.73-.31 0-.61.06-.82.14v.65Z"/>
</svg>
