<svg viewBox="0 0 16 16" xmlns="http://www.w3.org/2000/svg">
  <path d="M16 8.07h-2.88v7.94h-1.5V6.57h.71L7.81 2.11 3.98 5.87 2.93 4.8 7.81 0 16 8.06Zm-8.57 3.79c-.53 0-.94.41-.94.9s.41.91.94.91.94-.41.94-.91-.41-.9-.94-.9m.15-5.99c-.78 0-1.66.21-2.09.4V7.6c.5-.24 1.29-.49 1.96-.49.72 0 1.21.29 1.21.82 0 .42-.29.72-.78 1.05-.74.5-1.12.92-1.12 1.86v.34H8.1v-.13c0-.59.09-.73.94-1.35.76-.56 1.14-1.02 1.14-1.78 0-1.39-1.25-2.04-2.59-2.04ZM1.29 6.9c-.29.29-.29.77 0 1.06l1.09 1.1H0v1.5h2.38l-1.1 1.1c-.29.29-.29.77 0 1.06.15.15.34.22.53.22s.38-.07.53-.22l2.9-2.91-2.9-2.91a.754.754 0 0 0-1.06 0Z"/>
</svg>
