<svg viewBox="0 0 16 16" xmlns="http://www.w3.org/2000/svg">
  <path d="M2.88 5.83h1.46V7.3H2.88zm2.9 1.47h1.46V5.83H5.78zm-2.9 2.9h1.46V8.73H2.88zm2.9 0h1.46V8.73H5.78zm2.89 0h1.46V8.73H8.67zm4.32-2.58v8.37H7.78v-2.61h-2.6v2.61h-5.2V2.95h8.4A3.85 3.85 0 0 1 12.12 0c2.13 0 3.86 1.73 3.86 3.86a3.87 3.87 0 0 1-2.99 3.76m-1.46 6.91V7.67c-.5-.08-.97-.25-1.39-.51v.14H8.68V5.83h.14c-.25-.43-.43-.9-.5-1.41H1.44v10.11h2.28v-2.61h5.53v2.61zm2.98-10.67a2.4 2.4 0 1 0-4.801.001 2.4 2.4 0 0 0 4.801-.001m-2.36-1.42c-.3 0-.6.06-.8.14v.64c.22-.1.45-.14.66-.14.29 0 .37.09.37.18s-.02.11-.3.31c-.16.12-.28.25-.28.57v.07h.69c0-.21.07-.26.3-.41.25-.16.39-.37.39-.63 0-.46-.42-.72-1.02-.72Zm-.01 1.95c-.3 0-.47.2-.47.42s.17.42.47.42.47-.19.47-.42-.17-.42-.47-.42"/>
</svg>
