<svg viewBox="0 0 48 48" xmlns="http://www.w3.org/2000/svg">
  <path d="M29.21 21.63h-3.05v-3.11c-1.52-2.17-2.41-4.8-2.41-7.64 0-.98.11-1.93.31-2.85H0v39.98h16v-8h8v8h16V23.92c-.93.21-1.9.32-2.89.32-2.96 0-5.7-.98-7.92-2.62Zm-16.34 9.03h-4.5v-4.5h4.5zm0-9.03h-4.5v-4.5h4.5zm8.9 9.03h-4.5v-4.5h4.5zm0-9.03h-4.5v-4.5h4.5zm8.9 9.03h-4.5v-4.5h4.5zM37.13.01c-6 0-10.88 4.88-10.88 10.87s4.88 10.87 10.88 10.87 10.88-4.88 10.88-10.87S43.13.01 37.13.01m.06 15.06c-.91 0-1.44-.59-1.44-1.28s.53-1.28 1.44-1.28 1.44.6 1.44 1.28-.53 1.28-1.44 1.28m1.98-4.39c-.71.46-.91.61-.91 1.25s-2.14.01-2.14.01v-.22c0-.98.36-1.39.86-1.75.86-.62.92-.68.92-.95s-.24-.54-1.13-.54c-.65 0-1.34.14-2.03.44V6.95c.64-.25 1.55-.43 2.47-.43 1.85 0 3.14.79 3.14 2.21 0 .82-.43 1.45-1.2 1.94Z"/>
</svg>
