<svg viewBox="0 0 40 40" xmlns="http://www.w3.org/2000/svg">
  <path d="M23.83 18.04h-2.02v-2.06c-1.45-1.91-2.33-4.28-2.33-6.85 0-.83.1-1.64.27-2.42H0v33.3h13.35v-6.66h6.67v6.66h13.35V20.2c-.81.18-1.64.28-2.5.28-2.66 0-5.1-.92-7.03-2.45Zm-13.11 7.53H6.97v-3.75h3.75zm0-7.53H6.97v-3.75h3.75zm7.42 7.53h-3.75v-3.75h3.75zm0-7.53h-3.75v-3.75h3.75zm7.42 7.53h-3.75v-3.75h3.75zM30.86.02c-5.03 0-9.13 4.09-9.13 9.11s4.1 9.11 9.13 9.11 9.13-4.09 9.13-9.11S35.9.02 30.86.02m.05 12.6c-.76 0-1.2-.49-1.2-1.07s.44-1.07 1.2-1.07 1.2.5 1.2 1.07-.44 1.07-1.2 1.07m1.65-3.66c-.59.38-.76.51-.76 1.04s-1.78 0-1.78 0v-.18c0-.82.3-1.16.72-1.46.72-.52.77-.57.77-.79s-.2-.45-.94-.45c-.54 0-1.12.12-1.69.37V5.85c.53-.21 1.29-.36 2.06-.36 1.54 0 2.62.66 2.62 1.84 0 .68-.36 1.21-1 1.62Z"/>
</svg>
