<svg viewBox="0 0 24 24" xmlns="http://www.w3.org/2000/svg">
  <path d="M24.01 20.41v3.6h-5.17v-3.6h-1.75v3.6H6.8v-3.6H5.05v3.6H.01v-3.6c0-3.37 2.75-6.12 6.14-6.12h11.73c3.38 0 6.13 2.75 6.13 6.12M5.68 6.26c0-.65.1-1.27.28-1.86s.45-1.14.79-1.64C7.87 1.1 9.77 0 11.94 0s4.07 1.09 5.19 2.75c.34.5.6 1.05.79 1.64a6.254 6.254 0 0 1-5.98 8.11c-3.46 0-6.26-2.8-6.26-6.25Zm7.26 2.03c0-.43-.33-.8-.9-.8s-.9.38-.9.8.33.8.9.8.9-.37.9-.8m-2.43-3.04c.43-.19.86-.28 1.27-.28.56 0 .71.16.71.34s-.04.2-.58.59c-.32.23-.54.48-.54 1.1v.13h1.34c0-.41.13-.5.57-.79.48-.31.75-.71.75-1.22 0-.89-.81-1.38-1.97-1.38-.58 0-1.15.11-1.55.27v1.23Z"/>
</svg>
