<svg viewBox="0 0 48 48" xmlns="http://www.w3.org/2000/svg">
  <path d="M24.61.02 9.81 14.53l.87.89.05 8.25 5.32 5.32-5.25 5.26.07 12.52v1.25h29.59V23.01H48zm-.22 40.8c-1.68 0-3-1.3-3-2.92s1.32-2.88 3-2.88 3 1.3 3 2.88-1.32 2.92-3 2.92m5.15-12.72c-2.72 2-3 2.42-3 4.32v.42h-4.29v-1.09c0-2.99 1.21-4.36 3.57-5.94 1.57-1.05 2.5-2 2.5-3.34 0-1.72-1.57-2.64-3.86-2.64-2.14 0-4.65.81-6.25 1.58v-4.25c1.39-.6 4.18-1.26 6.68-1.26 4.29 0 8.29 2.07 8.29 6.5 0 2.42-1.21 3.9-3.64 5.69Zm-15.26.9L7 36.29c-.24.24-.56.37-.88.37s-.64-.12-.88-.37a1.25 1.25 0 0 1 0-1.77l4.27-4.27H0v-2.5h9.49l-4.27-4.27c-.49-.49-.49-1.28 0-1.77s1.28-.49 1.77 0L14.27 29Z"/>
</svg>
