<svg viewBox="0 0 64 64" xmlns="http://www.w3.org/2000/svg">
  <path d="M33.21.04 13.46 19.41l.96.98.15 11.6 6.21 6.21-6.05 6.05.24 18.4v1.38h39.31v-33.7h9.73zm.11 54.63c-2.27 0-4.05-1.75-4.05-3.94s1.79-3.89 4.05-3.89 4.05 1.75 4.05 3.89-1.79 3.94-4.05 3.94m6.94-17.17c-3.67 2.7-4.05 3.27-4.05 5.83v.57h-5.79v-1.47c0-4.03 1.64-5.88 4.82-8.01 2.12-1.42 3.38-2.7 3.38-4.5 0-2.32-2.12-3.56-5.21-3.56-2.89 0-6.27 1.09-8.44 2.13v-5.74c1.88-.81 5.64-1.71 9.02-1.71 5.79 0 11.19 2.8 11.19 8.77 0 3.27-1.64 5.26-4.92 7.68Zm-21.43.71-9.61 9.62c-.27.27-.62.4-.97.4s-.7-.13-.97-.4c-.54-.54-.54-1.41 0-1.95l6.29-6.29H0v-2.75h13.56l-6.29-6.29c-.54-.54-.54-1.41 0-1.95s1.41-.54 1.95 0l9.61 9.62Z"/>
</svg>
