<svg viewBox="0 0 16 16" xmlns="http://www.w3.org/2000/svg">
  <path fill="#1e1e1c" d="M2.95 3.74a.754.754 0 0 1 0-1.06L5.63 0l2.68 2.68c.29.29.29.77 0 1.06-.15.15-.34.22-.53.22s-.38-.07-.53-.22l-.87-.87v2.68l-.72-.18-.78 1.36V2.88l-.87.87c-.29.29-.77.29-1.06 0ZM5.08 9.9l-3.58.02V5.1H0v4.82c0 .8.65 1.45 1.45 1.45H4.3l1.11-1.14-.32-.33Zm9.48.62L16 12l-1.29 2.24-2.01-.51c-.15.1-.31.2-.48.28l-.56 2H9.08l-.56-2c-.16-.08-.32-.17-.47-.28l-2.01.51L4.75 12l1.44-1.48c0-.09-.01-.19-.01-.28s0-.19.01-.28L4.75 8.48l1.29-2.24 2.01.51c.15-.1.31-.2.47-.28l.56-2h2.58l.56 2c.16.08.32.17.47.28l2.01-.51 1.29 2.24-1.44 1.48c0 .09.01.19.01.28s0 .19-.01.28Zm-1.6-1.08 1.17-1.2-.15-.27-1.62.41-.29-.24c-.23-.19-.48-.33-.73-.43l-.35-.14-.45-1.61h-.31l-.45 1.61-.35.14c-.26.1-.5.24-.74.43l-.29.24-1.62-.41-.15.27 1.17 1.2-.06.37c-.02.14-.05.28-.05.43s.02.29.05.43l.06.37-1.17 1.2.15.27 1.62-.41.29.24c.24.19.48.34.74.43l.35.13.45 1.61h.31l.45-1.61.35-.13c.25-.1.5-.24.73-.43l.29-.24 1.62.41.15-.27-1.17-1.2.06-.37c.02-.14.05-.28.05-.43s-.02-.29-.05-.43zm-2.59-.71c-.83 0-1.5.67-1.5 1.5s.67 1.5 1.5 1.5 1.5-.67 1.5-1.5-.67-1.5-1.5-1.5"/>
</svg>
