<svg viewBox="0 0 48 48" xmlns="http://www.w3.org/2000/svg">
  <path fill="#1e1e1c" d="M9.17 11.48c-.88-.88-.88-2.3 0-3.18L17.44.01l8.28 8.28c.88.88.88 2.3 0 3.18-.44.44-1.01.66-1.59.66s-1.15-.22-1.59-.66L19.7 8.62v11.34l-3.67 6.37h-.82V8.63l-2.84 2.85c-.88.88-2.3.88-3.18 0Zm10.97 20.94c0-.28.01-.56.04-.82l-.88-.9H4.5V15.78H0v15c0 2.44 1.98 4.42 4.42 4.42h13.85l1.91-1.96c-.02-.26-.04-.54-.04-.82m23.81 1.7 4.04 4.15-2.25 3.89-5.63-1.43c-.88.72-1.85 1.3-2.93 1.71l-1.57 5.57h-4.49l-1.57-5.57c-1.08-.41-2.05-1-2.93-1.71l-5.63 1.43-2.25-3.89 4.04-4.15c-.09-.56-.17-1.12-.17-1.7s.08-1.14.17-1.7l-4.04-4.15 2.25-3.89 5.63 1.43c.88-.72 1.85-1.3 2.93-1.71l1.57-5.57h4.49l1.57 5.57c1.08.41 2.05 1 2.93 1.71l5.63-1.43 2.25 3.89-4.04 4.15c.09.56.17 1.12.17 1.7s-.08 1.14-.17 1.7m-5.07-1.7c0-3.04-2.46-5.5-5.5-5.5s-5.5 2.46-5.5 5.5 2.46 5.5 5.5 5.5 5.5-2.46 5.5-5.5"/>
</svg>
