<svg viewBox="0 0 24 24" xmlns="http://www.w3.org/2000/svg">
  <path fill="#1e1e1c" d="M4.63 6.47a1.49 1.49 0 0 1 0-2.12L8.98 0l4.35 4.35c.59.58.59 1.54 0 2.12-.29.29-.68.44-1.06.44s-.77-.15-1.06-.44l-.73-.73v3.93l-.63-.16-2.31 4h-.07V5.74l-.73.73c-.59.59-1.53.59-2.12 0Zm5.13 9.86v-.21l-.83-.85H3V8.32H0v7.38a2.57 2.57 0 0 0 2.57 2.57h5.5l1.69-1.74v-.21Zm12.25.83L24 19.2l-1.11 1.92-2.77-.71c-.43.35-.91.64-1.44.84l-.77 2.74H15.7l-.77-2.74c-.53-.2-1.01-.49-1.44-.84l-2.77.71-1.11-1.92 1.99-2.04c-.04-.27-.08-.55-.08-.84s.04-.56.08-.84l-1.99-2.04 1.11-1.92 2.77.71c.43-.35.91-.64 1.44-.84l.77-2.74h2.21l.77 2.74c.53.2 1.01.49 1.44.84l2.77-.71L24 13.44l-1.99 2.04c.04.27.08.55.08.84s-.04.56-.08.84m-2.59-.83c0-1.45-1.17-2.62-2.62-2.62s-2.62 1.18-2.62 2.62 1.17 2.62 2.62 2.62 2.62-1.18 2.62-2.62"/>
</svg>
