<svg viewBox="0 0 48 48" xmlns="http://www.w3.org/2000/svg">
  <path d="M40.41 18.71c-.43-6.69-4.85-12.27-10.89-14.44C28.87 1.81 26.63 0 23.97 0s-4.9 1.82-5.55 4.28C12.37 6.45 7.96 12.03 7.53 18.72h-.05l3 29.28h27l3-29.28h-.05ZM23.97 2.5c.91 0 1.73.37 2.32.98h-4.64c.59-.6 1.41-.98 2.32-.98m-2.16 3.47h4.31c5.21.82 9.51 4.53 11.13 9.48H10.68c1.62-4.95 5.92-8.66 11.13-9.48m16.11 12.9v.12l-.06.62H10.07l-.06-.62v-.12c.03-.31.07-.62.11-.92h27.7c.04.31.08.61.1.92M12.72 45.5l-.18-1.77h22.85l-.18 1.77zm22.93-4.27H12.29l-1.96-19.12h27.28z"/>
</svg>
