<svg viewBox="0 0 64 64" xmlns="http://www.w3.org/2000/svg">
  <path d="M53.92 24.98c-.57-8.91-6.46-16.36-14.52-19.25-.87-3.28-3.85-5.7-7.41-5.7s-6.53 2.42-7.4 5.7c-8.06 2.89-13.95 10.34-14.52 19.25H10l4 39.05h36l4-39.05h-.07ZM31.99 2.78c1.82 0 3.41.99 4.26 2.47h-8.53a4.93 4.93 0 0 1 4.26-2.47Zm-5.45 5.21h10.91c6.18 1.84 11.11 6.71 12.96 12.93H13.58c1.86-6.22 6.78-11.09 12.96-12.93m24.64 17.17v.2l-.1 1.11H12.91l-.11-1.11v-.2c.05-.5.1-.99.17-1.48h38.06c.07.49.12.98.16 1.48Zm-34.7 36.12-.33-3.23h31.7l-.33 3.23H16.49Zm31.65-5.99H15.86l-2.67-26.08h37.6l-2.67 26.08Z"/>
</svg>
