<svg viewBox="0 0 40 40" xmlns="http://www.w3.org/2000/svg">
  <path d="M26.5 10.01V2.25C26.5 1.01 25.49 0 24.25 0h-8.5c-1.24 0-2.25 1.01-2.25 2.25v7.76h-6V27.5C7.5 34.4 13.1 40 20 40s12.5-5.6 12.5-12.5V10.01zM15.75 2.25h8.5V10h-8.5zm14.5 25.25c0 5.65-4.6 10.25-10.25 10.25S9.75 33.15 9.75 27.5V12.26h20.5zM20 35.24c2.09 0 3.78-1.69 3.78-3.78s-1.69-3.78-3.78-3.78-3.78 1.69-3.78 3.78 1.69 3.78 3.78 3.78m0-5.31c.85 0 1.53.69 1.53 1.53s-.69 1.53-1.53 1.53-1.53-.69-1.53-1.53.69-1.53 1.53-1.53"/>
</svg>
