<svg viewBox="0 0 48 48" xmlns="http://www.w3.org/2000/svg">
  <path d="M9 15.26V33a14.97 14.97 0 0 0 2.56 8.39 15 15 0 0 0 6.6 5.43C19.95 47.58 21.93 48 24 48c3.11 0 5.99-.94 8.39-2.56 1.2-.81 2.27-1.79 3.19-2.9s1.68-2.36 2.25-3.7A14.9 14.9 0 0 0 39.01 33V15.26zm15 29.29c-2.51 0-4.54-2.03-4.54-4.54s2.03-4.54 4.54-4.54 4.54 2.03 4.54 4.54-2.03 4.54-4.54 4.54m2.04-4.54c0 1.12-.91 2.04-2.04 2.04s-2.04-.91-2.04-2.04.91-2.04 2.04-2.04 2.04.91 2.04 2.04M35 12.76V0H13v12.76zm-7.71-8.18h3v3h-3zm-9.52 0h3v3h-3z"/>
</svg>
