<svg viewBox="0 0 16 16" xmlns="http://www.w3.org/2000/svg">
  <path d="M11.06 8.56c0-1.36 1.11-2.47 2.47-2.47S16 7.2 16 8.56s-1.11 2.47-2.47 2.47-2.47-1.11-2.47-2.47m-2.29 5.6v1.86h2.6v-1.86h1.5v1.86h3.12v-4.59H11.5c-1.51 0-2.73 1.23-2.73 2.73m-3.9-9.2c1.36 0 2.47-1.11 2.47-2.47S6.23.01 4.87.01 2.4 1.12 2.4 2.48s1.11 2.47 2.47 2.47Zm.7 3.05c.23.23.34.52.39.81h.68c.05-.3.16-.58.39-.81a1.49 1.49 0 0 1 2.12 0l.58.58v-.5c0-1.51-1.22-2.73-2.73-2.73H2.73A2.74 2.74 0 0 0 0 8.09v1.87h1.51l1.94-1.94a1.49 1.49 0 0 1 2.12 0Zm3.05.53c-.29-.29-.77-.29-1.06 0s-.29.74-.02 1.03H5.06c.27-.3.26-.75-.02-1.03s-.77-.29-1.06 0L2.22 10.3l1.76 1.76c.15.15.34.22.53.22a.742.742 0 0 0 .58-1.21h2.42a.742.742 0 0 0 .58 1.21c.19 0 .38-.07.53-.22l1.76-1.76z"/>
</svg>
