<svg viewBox="0 0 16 16" xmlns="http://www.w3.org/2000/svg">
  <path d="M10.48 5.13a2.5 2.5 0 0 0-5 0 2.5 2.5 0 0 0 5 0m-3.5 0c0-.55.45-1 1-1s1 .45 1 1-.45 1-1 1-1-.45-1-1M6.5 8.12h3c1.24 0 2.25 1.01 2.25 2.25v.86h-1.5v-.86c0-.41-.34-.75-.75-.75h-3c-.41 0-.75.34-.75.75v.86h-1.5v-.86c0-1.24 1.01-2.25 2.25-2.25M8 0C6.59 0 5.28.38 4.13 1.02A2.247 2.247 0 0 0 .6 2.87c0 1.25 1.01 2.25 2.25 2.25S5.1 4.11 5.1 2.87c0-.22-.04-.42-.1-.62.9-.47 1.91-.75 2.99-.75 3.58 0 6.5 2.92 6.5 6.5 0 .78-.14 1.52-.39 2.21.53.11.98.41 1.3.81.38-.93.59-1.95.59-3.02C16 3.58 12.42 0 8 0M2.85 3.62c-.41 0-.75-.34-.75-.75s.34-.75.75-.75.75.34.75.75-.34.75-.75.75m10.3 7.29c-1.24 0-2.25 1.01-2.25 2.25 0 .21.04.41.09.6-.9.47-1.91.74-2.99.74-3.58 0-6.5-2.92-6.5-6.5 0-.77.14-1.5.39-2.19-.53-.11-.98-.41-1.3-.82A7.998 7.998 0 0 0 8 16c1.4 0 2.71-.38 3.85-1.01.37.26.81.42 1.3.42 1.24 0 2.25-1.01 2.25-2.25s-1.01-2.25-2.25-2.25m0 3c-.41 0-.75-.34-.75-.75s.34-.75.75-.75.75.34.75.75-.34.75-.75.75"/>
</svg>
