<svg viewBox="0 0 32 32" xmlns="http://www.w3.org/2000/svg">
  <path d="M27.51 21.37c2.48 0 4.49-2.02 4.49-4.5s-2.02-4.5-4.49-4.5-4.49 2.02-4.49 4.5 2.02 4.5 4.49 4.5m0-6.99c1.38 0 2.49 1.12 2.49 2.5s-1.12 2.5-2.49 2.5-2.49-1.12-2.49-2.5 1.12-2.5 2.49-2.5m4.68 8.83v2h-9.15c-1.67 0-3.02 1.36-3.02 3.02v3.79h-2v-3.79c0-2.77 2.25-5.02 5.02-5.02zm-8.38 5.02h2v3.79h-2zM9.56 9.07c2.49 0 4.52-2.03 4.52-4.52S12.05.02 9.56.02 5.04 2.05 5.04 4.54s2.03 4.52 4.52 4.52Zm0-7.05c1.39 0 2.52 1.13 2.52 2.52s-1.13 2.52-2.52 2.52-2.52-1.13-2.52-2.52 1.13-2.52 2.52-2.52M5.21 12.88c-1.67 0-3.02 1.36-3.02 3.02v3.79h-2V15.9c0-2.77 2.25-5.02 5.02-5.02h8.68c2.77 0 5.02 2.25 5.02 5.02v1.98l-1.38-1.39a2 2 0 0 0-.62-.42v-.18c0-1.67-1.36-3.02-3.02-3.02H5.21Zm14.81 7.52-3.2 3.2c-.2.2-.45.29-.71.29s-.51-.1-.71-.29c-.39-.39-.39-1.02 0-1.42l.74-.74H8.79l.74.74c.39.39.39 1.02 0 1.42-.2.2-.45.29-.71.29s-.51-.1-.71-.29l-3.2-3.2 3.2-3.2c.39-.39 1.02-.39 1.41 0s.39 1.02 0 1.42l-.83.83h7.53l-.83-.83c-.39-.39-.39-1.02 0-1.42s1.02-.39 1.41 0l3.2 3.2Z"/>
</svg>
