<svg viewBox="0 0 32 32" xmlns="http://www.w3.org/2000/svg">
  <path d="M5.72 4.27C5.72 1.92 7.63 0 9.98 0s4.27 1.91 4.27 4.27-1.92 4.27-4.27 4.27-4.27-1.92-4.27-4.27Zm2.77 17.86c0-5.19 3.42-9.59 8.12-11.08-.88-.92-2.11-1.5-3.47-1.5H6.82c-2.65 0-4.81 2.16-4.81 4.81v5.31h2.81L5.78 32h8.21c-3.29-2.07-5.5-5.71-5.5-9.87m21.5 0c0 5.44-4.43 9.87-9.87 9.87s-9.87-4.43-9.87-9.87 4.43-9.87 9.87-9.87 9.87 4.43 9.87 9.87m-16.25 0c0 1.11.29 2.16.79 3.07l8.65-8.65a6.4 6.4 0 0 0-3.07-.79 6.38 6.38 0 0 0-6.37 6.37m12.75 0c0-1.13-.3-2.2-.82-3.12L17 27.68c.92.52 1.99.82 3.12.82a6.38 6.38 0 0 0 6.37-6.37"/>
</svg>
