<svg viewBox="0 0 48 48" xmlns="http://www.w3.org/2000/svg">
  <path d="M34.97 25.2c0-3.59 2.92-6.52 6.52-6.52a6.521 6.521 0 0 1 0 13.04c-3.6 0-6.52-2.92-6.52-6.52m-.75 9.81c-4.03 0-7.31 3.28-7.31 7.31v5.69h8.73v-5.69h2.5v5.69h9.89v-13zM13.9 13.14c3.62 0 6.56-2.94 6.56-6.56S17.51.01 13.9.01 7.34 2.95 7.34 6.57s2.94 6.56 6.56 6.56ZM14.56 25c.84.84.95 2.13.35 3.09h6.75c-.61-.97-.49-2.25.35-3.09.98-.98 2.56-.98 3.54 0l2.19 2.2v-3.45c0-4.03-3.28-7.31-7.31-7.31H7.33C3.3 16.43.02 19.71.02 23.74v5.71h6.55L11.02 25c.98-.98 2.56-.98 3.54 0m10.1.88c-.49-.49-1.28-.49-1.77 0s-.49 1.28 0 1.77l1.69 1.69h-12.6l1.69-1.69c.49-.49.49-1.28 0-1.77s-1.28-.49-1.77 0l-4.64 4.64 4.64 4.64c.24.24.56.37.88.37s.64-.12.88-.37c.49-.49.49-1.28 0-1.77l-1.55-1.56h12.33l-1.55 1.56a1.25 1.25 0 0 0 0 1.77c.24.24.56.37.88.37s.64-.12.88-.37l4.64-4.64-4.64-4.64Z"/>
</svg>
