<svg viewBox="0 0 64 64" xmlns="http://www.w3.org/2000/svg">
  <path d="M40.29 21.02c0-4.62-3.76-8.38-8.38-8.38s-8.38 3.76-8.38 8.38 3.76 8.38 8.38 8.38 8.38-3.76 8.38-8.38m-14 0c0-3.1 2.52-5.62 5.62-5.62s5.62 2.52 5.62 5.62-2.52 5.62-5.62 5.62-5.62-2.52-5.62-5.62M26 33.11h12c4.07 0 7.38 3.31 7.38 7.38v3.45h-2.75v-3.45c0-2.55-2.08-4.62-4.62-4.62h-12c-2.55 0-4.62 2.08-4.62 4.62v3.45h-2.75v-3.45c0-4.07 3.31-7.38 7.38-7.38ZM32 0a31.8 31.8 0 0 0-17.09 4.97 7.36 7.36 0 0 0-3.5-.88c-4.07 0-7.38 3.31-7.38 7.38s3.31 7.38 7.38 7.38 7.38-3.31 7.38-7.38c0-1.75-.62-3.36-1.64-4.62C21.51 4.27 26.58 2.76 32 2.76c16.13 0 29.25 13.12 29.25 29.25 0 4.13-.86 8.05-2.41 11.62.82.58 1.51 1.32 2.04 2.18 2-4.18 3.12-8.86 3.12-13.8C64 14.33 49.67 0 32 0M11.41 16.09c-2.55 0-4.62-2.08-4.62-4.62s2.08-4.62 4.62-4.62 4.62 2.08 4.62 4.62-2.08 4.62-4.62 4.62m41.18 29.18c-4.07 0-7.38 3.31-7.38 7.38 0 1.72.59 3.3 1.58 4.55-4.35 2.57-9.4 4.06-14.8 4.06-16.13 0-29.25-13.12-29.25-29.25 0-4.1.85-8 2.38-11.55a7.5 7.5 0 0 1-2.03-2.2 31.8 31.8 0 0 0-3.1 13.75c0 17.67 14.33 32 32 32 6.26 0 12.08-1.81 17.01-4.92 1.06.59 2.28.93 3.58.93 4.07 0 7.38-3.31 7.38-7.38s-3.31-7.38-7.38-7.38Zm0 12c-2.55 0-4.62-2.08-4.62-4.62s2.08-4.62 4.62-4.62 4.62 2.08 4.62 4.62-2.08 4.62-4.62 4.62"/>
</svg>
