<svg viewBox="0 0 24 24" xmlns="http://www.w3.org/2000/svg">
  <path d="M4.03 3.33C4.03 1.49 5.52 0 7.36 0s3.33 1.49 3.33 3.33S9.2 6.66 7.36 6.66 4.03 5.17 4.03 3.33M6.04 16.4c0-3.67 2.19-6.84 5.33-8.27-.5-.25-1.05-.4-1.65-.4H4.98c-2.06 0-3.73 1.68-3.73 3.74v4.11h2.12L4.09 24h6.03a9.08 9.08 0 0 1-4.08-7.58Zm16.69 0c0 4.19-3.41 7.6-7.59 7.6s-7.59-3.41-7.59-7.6 3.41-7.6 7.59-7.6 7.59 3.41 7.59 7.6m-12.19 0c0 .71.18 1.38.46 1.98l6.1-6.11c-.6-.29-1.27-.46-1.98-.46-2.53 0-4.59 2.06-4.59 4.6Zm9.19 0c0-.73-.19-1.41-.49-2.02l-6.12 6.13c.61.3 1.29.49 2.02.49 2.53 0 4.59-2.06 4.59-4.6"/>
</svg>
