<svg viewBox="0 0 48 48" xmlns="http://www.w3.org/2000/svg">
  <path d="M30.44 15.76c0-3.58-2.92-6.5-6.5-6.5s-6.5 2.92-6.5 6.5 2.92 6.5 6.5 6.5 6.5-2.92 6.5-6.5m-10.5 0c0-2.21 1.79-4 4-4s4 1.79 4 4-1.79 4-4 4-4-1.79-4-4m-.44 8.85h9c3.17 0 5.75 2.58 5.75 5.75v2.59h-2.5v-2.59c0-1.79-1.46-3.25-3.25-3.25h-9c-1.79 0-3.25 1.46-3.25 3.25v2.59h-2.5v-2.59c0-3.17 2.58-5.75 5.75-5.75M24 0c-4.63 0-8.94 1.33-12.6 3.6-.84-.48-1.8-.75-2.84-.75-3.17 0-5.75 2.58-5.75 5.75s2.58 5.75 5.75 5.75 5.75-2.58 5.75-5.75c0-1.19-.36-2.29-.98-3.21C16.48 3.57 20.11 2.5 24 2.5c11.86 0 21.5 9.64 21.5 21.5 0 2.93-.59 5.72-1.66 8.27.78.46 1.44 1.08 1.93 1.84C47.2 31.04 48 27.61 48 24 48 10.75 37.25 0 24 0M8.56 11.85c-1.79 0-3.25-1.46-3.25-3.25s1.46-3.25 3.25-3.25 3.25 1.46 3.25 3.25-1.46 3.25-3.25 3.25m30.89 21.88c-3.17 0-5.75 2.58-5.75 5.75 0 1.16.35 2.25.95 3.15-3.14 1.81-6.76 2.87-10.64 2.87-11.86 0-21.5-9.64-21.5-21.5 0-2.91.59-5.68 1.64-8.21-.78-.46-1.44-1.1-1.92-1.86A23.9 23.9 0 0 0 .01 24c0 13.25 10.75 24 24 24 4.6 0 8.89-1.31 12.54-3.56.85.5 1.84.79 2.9.79 3.17 0 5.75-2.58 5.75-5.75s-2.58-5.75-5.75-5.75m0 9c-1.79 0-3.25-1.46-3.25-3.25s1.46-3.25 3.25-3.25 3.25 1.46 3.25 3.25-1.46 3.25-3.25 3.25"/>
</svg>
