<svg viewBox="0 0 40 40" xmlns="http://www.w3.org/2000/svg">
  <path d="M10.62 5.15c0-2.87 2.34-5.21 5.21-5.21s5.21 2.34 5.21 5.21-2.34 5.21-5.21 5.21-5.21-2.34-5.21-5.21m3.04 22.64c0-6.64 4.6-12.21 10.78-13.73a5.86 5.86 0 0 0-4.66-2.3h-7.9c-3.25 0-5.89 2.64-5.89 5.89v6.51h3.5l1.2 15.66h9.7c-4.03-2.5-6.73-6.95-6.73-12.03m26.31 0c0 6.7-5.45 12.16-12.16 12.16S15.66 34.5 15.66 27.79s5.45-12.16 12.15-12.16 12.16 5.45 12.16 12.16m-20.31 0c0 1.51.42 2.92 1.14 4.14l11.15-11.15a8.1 8.1 0 0 0-4.14-1.14c-4.5 0-8.15 3.66-8.15 8.16Zm16.31 0c0-1.54-.44-2.97-1.18-4.2L23.61 34.77c1.23.74 2.66 1.18 4.2 1.18 4.5 0 8.16-3.66 8.16-8.16"/>
</svg>
