<svg viewBox="0 0 24 24" xmlns="http://www.w3.org/2000/svg">
  <path fill="#1e1e1c" d="M5.16 5.32c1.47 0 2.66-1.19 2.66-2.65S6.62 0 5.16 0 2.5 1.19 2.5 2.65 3.69 5.3 5.16 5.3Zm0-3.56c.5 0 .9.4.9.9s-.41.9-.9.9-.9-.4-.9-.9.41-.9.9-.9M7.4 8.33H2.95c-.66 0-1.2.54-1.2 1.2v1.42H0V9.53C0 7.9 1.32 6.57 2.95 6.57H7.4c1.63 0 2.95 1.32 2.95 2.95v1.42H8.6V9.52c0-.66-.54-1.2-1.2-1.2Zm11.4-3.01c1.47 0 2.66-1.19 2.66-2.65S20.27 0 18.8 0s-2.66 1.19-2.66 2.65S17.33 5.3 18.8 5.3Zm0-3.56c.5 0 .9.4.9.9s-.41.9-.9.9-.9-.4-.9-.9.41-.9.9-.9M24 9.52v1.42h-1.75V9.52c0-.66-.54-1.2-1.2-1.2H16.6c-.66 0-1.2.54-1.2 1.2v1.42h-1.75V9.52c0-1.63 1.32-2.95 2.95-2.95h4.45c1.63 0 2.95 1.32 2.95 2.95M9.32 15.73c0 1.46 1.19 2.65 2.66 2.65s2.66-1.19 2.66-2.65-1.19-2.65-2.66-2.65-2.66 1.19-2.66 2.65m2.66-.9c.5 0 .9.4.9.9s-.41.9-.9.9-.9-.4-.9-.9.41-.9.9-.9m5.2 7.76v1.42h-1.75v-1.42c0-.66-.54-1.2-1.2-1.2H9.78c-.66 0-1.2.54-1.2 1.2v1.42H6.83v-1.42c0-1.63 1.32-2.95 2.95-2.95h4.45c1.63 0 2.95 1.32 2.95 2.95M7.7 18.54H6.22a3.18 3.18 0 0 1-3.18-3.17v-2.75h1.75v2.75c0 .78.64 1.42 1.42 1.42h1.48v1.75Zm11.51-5.93h1.75v2.75a3.18 3.18 0 0 1-3.18 3.17H16.3v-1.75h1.48c.79 0 1.42-.64 1.42-1.42v-2.75Z"/>
</svg>
