<svg viewBox="0 0 40 40" xmlns="http://www.w3.org/2000/svg">
  <path d="M16.07 14.28c0-2.14 1.74-3.88 3.88-3.88s3.88 1.74 3.88 3.88-1.74 3.88-3.88 3.88-3.88-1.74-3.88-3.88M11.75 25.3v2.16h16.5V25.3c0-2.48-2.02-4.5-4.5-4.5h-7.5c-2.48 0-4.5 2.02-4.5 4.5M40 20c0 2.97-.67 5.78-1.83 8.32-.76-1.14-2-1.92-3.43-2.1.81-1.91 1.26-4.01 1.26-6.21 0-8.82-7.18-16-16-16-2.91 0-5.62.8-7.97 2.16a5.002 5.002 0 0 1-4.9 6c-2.76 0-5-2.24-5-5s2.25-5.01 5-5.01c.94 0 1.8.27 2.55.72 3.01-1.82 6.53-2.89 10.31-2.89 11.05 0 20 8.95 20 20ZM9.63 7.16a2.5 2.5 0 0 0-5 0 2.5 2.5 0 0 0 5 0M37.87 32.9c0 2.76-2.24 5-5 5-.96 0-1.85-.29-2.61-.76-3 1.8-6.5 2.86-10.26 2.86C8.95 40 0 31.05 0 20c0-2.96.66-5.76 1.81-8.29a4.9 4.9 0 0 0 3.42 2.14C4.44 15.75 4 17.82 4 20c0 8.82 7.18 16 16 16 2.91 0 5.62-.8 7.97-2.16a5.002 5.002 0 0 1 4.91-5.94c2.76 0 5 2.24 5 5Zm-2.5 0a2.5 2.5 0 0 0-5 0 2.5 2.5 0 0 0 5 0"/>
</svg>
