<svg viewBox="0 0 48 48" xmlns="http://www.w3.org/2000/svg">
  <path d="M9.3 6.15C9.3 2.76 12.06 0 15.46 0s6.15 2.76 6.15 6.15-2.76 6.15-6.15 6.15-6.15-2.76-6.15-6.15Zm3.83 27.4c0-7.92 5.55-14.56 12.97-16.25-1.23-1.96-3.41-3.28-5.9-3.28h-9.48c-3.84 0-6.97 3.13-6.97 6.97v7.71h4.19L9.38 48h11.86v-.15c-4.84-2.92-8.1-8.23-8.1-14.29Zm31.12 0c0 7.96-6.48 14.44-14.44 14.44s-14.44-6.48-14.44-14.44 6.48-14.44 14.44-14.44 14.44 6.48 14.44 14.44m-24.37 0c0 1.91.55 3.69 1.49 5.2L35.02 25.1a9.83 9.83 0 0 0-5.2-1.49c-5.48 0-9.94 4.46-9.94 9.94m19.87 0c0-1.94-.57-3.75-1.54-5.28L24.53 41.95c1.53.97 3.34 1.54 5.28 1.54 5.48 0 9.94-4.46 9.94-9.94"/>
</svg>
