<svg viewBox="0 0 48 48" xmlns="http://www.w3.org/2000/svg">
  <path d="M41.49 31.71c3.59 0 6.52-2.92 6.52-6.52a6.521 6.521 0 0 0-13.04 0c0 3.6 2.92 6.52 6.52 6.52m0-10.53a4.02 4.02 0 1 1 0 8.04 4.02 4.02 0 0 1 0-8.04M34.22 35h13.79v2.5H34.22c-2.65 0-4.81 2.16-4.81 4.81v5.7h-2.5v-5.7c0-4.03 3.28-7.31 7.31-7.31m1.42 7.31h2.5v5.7h-2.5zM13.89 13.13c3.62 0 6.56-2.94 6.56-6.56S17.51.01 13.89.01 7.33 2.95 7.33 6.57s2.94 6.56 6.56 6.56m0-10.62c2.24 0 4.06 1.82 4.06 4.06s-1.82 4.06-4.06 4.06-4.06-1.82-4.06-4.06 1.82-4.06 4.06-4.06M7.33 18.92c-2.65 0-4.81 2.16-4.81 4.81v5.7H.01v-5.7c0-4.03 3.28-7.31 7.31-7.31h13.1c4.03 0 7.31 3.28 7.31 7.31v3.45l-2.2-2.19c-.1-.1-.2-.17-.31-.25v-1.01c0-2.65-2.16-4.81-4.81-4.81zM29.3 30.51l-4.64 4.64c-.24.24-.56.37-.88.37s-.64-.12-.88-.37a1.25 1.25 0 0 1 0-1.77l1.55-1.55H12.12l1.55 1.55c.49.49.49 1.28 0 1.77-.24.24-.56.37-.88.37s-.64-.12-.88-.37l-4.64-4.64 4.64-4.64c.49-.49 1.28-.49 1.77 0s.49 1.28 0 1.77l-1.69 1.69H24.6l-1.69-1.69c-.49-.49-.49-1.28 0-1.77s1.28-.49 1.77 0l4.64 4.64Z"/>
</svg>
