<svg viewBox="0 0 64 64" xmlns="http://www.w3.org/2000/svg">
  <path fill="#1e1e1c" d="M6.9 6.28C6.9 2.82 9.71 0 13.18 0s6.28 2.81 6.28 6.27-2.82 6.27-6.28 6.27S6.9 9.73 6.9 6.27Zm19.55 22.71v-5.94c0-3.91-3.18-7.09-7.1-7.09H7.11c-3.91-.01-7.1 3.17-7.1 7.08v5.94h26.44Zm24.29-16.44c3.46 0 6.28-2.81 6.28-6.27S54.2 0 50.74 0s-6.28 2.81-6.28 6.27 2.82 6.27 6.28 6.27Zm6.18 3.4H44.67c-3.91 0-7.1 3.18-7.1 7.09v5.94h26.44v-5.94c0-3.91-3.18-7.09-7.1-7.09ZM31.96 47.69c3.46 0 6.28-2.81 6.28-6.27s-2.82-6.27-6.28-6.27-6.28 2.81-6.28 6.27 2.82 6.27 6.28 6.27m6.18 3.4H25.89c-3.91 0-7.1 3.18-7.1 7.09V64h26.44v-5.82c0-3.91-3.18-7.09-7.1-7.09Zm-17.97-5.42H16.1a4.96 4.96 0 0 1-4.96-4.96v-7.58H8.39v7.58c0 4.25 3.46 7.71 7.71 7.71h4.07zm32.73-4.96c0 2.73-2.23 4.96-4.96 4.96h-4.07v2.75h4.07c4.25 0 7.71-3.46 7.71-7.71v-7.58H52.9z"/>
</svg>
