<svg viewBox="0 0 64 64" xmlns="http://www.w3.org/2000/svg">
  <path d="M22.32 15.83c4.36 0 7.91-3.55 7.91-7.91S26.69 0 22.32 0s-7.91 3.55-7.91 7.91 3.55 7.91 7.91 7.91Zm0-13.08c2.85 0 5.16 2.32 5.16 5.16s-2.32 5.16-5.16 5.16-5.16-2.32-5.16-5.16 2.32-5.16 5.16-5.16m4.91 58.09c.82.68 1.7 1.29 2.63 1.83L29.77 64H14.49l-1.92-26.98H7v-9.99c0-4.96 4.04-9 9-9h12.65c4.93 0 8.94 3.98 9 8.89-.94.09-1.85.27-2.74.5v-.39c0-3.45-2.8-6.25-6.25-6.25H16.01c-3.45 0-6.25 2.8-6.25 6.25v7.24h5.38l1.92 26.98h10.16l.03-.41Zm12.33-32.38c-9.72 0-17.62 7.91-17.62 17.62S29.85 63.7 39.56 63.7s17.62-7.91 17.62-17.62-7.91-17.62-17.62-17.62m0 2.75c3.59 0 6.88 1.28 9.45 3.4L28.08 55.54c-2.12-2.57-3.4-5.86-3.4-9.45 0-8.2 6.67-14.87 14.87-14.87Zm0 29.74c-3.63 0-6.95-1.31-9.54-3.47l20.94-20.93c2.17 2.58 3.47 5.91 3.47 9.54 0 8.2-6.67 14.87-14.87 14.87Z"/>
</svg>
