<svg viewBox="0 0 16 16" xmlns="http://www.w3.org/2000/svg">
  <path d="M13.52 11.03c1.36 0 2.47-1.11 2.47-2.47s-1.11-2.47-2.47-2.47-2.47 1.11-2.47 2.47 1.11 2.47 2.47 2.47m0-3.44c.53 0 .97.44.97.97a.97.97 0 0 1-1.94 0c0-.53.43-.97.97-.97M16 11.42v1.5h-4.5c-.68 0-1.23.55-1.23 1.23v1.87h-1.5v-1.87c0-1.51 1.22-2.73 2.73-2.73zm-4.13 2.73h1.5v1.87h-1.5zm-7-9.19c1.36 0 2.47-1.11 2.47-2.47S6.23.01 4.87.01 2.4 1.12 2.4 2.48s1.11 2.47 2.47 2.47Zm0-3.45c.53 0 .97.44.97.97a.97.97 0 0 1-1.94 0c0-.53.43-.97.97-.97M2.73 6.85c-.68 0-1.23.55-1.23 1.23v1.86H0V8.08c0-1.51 1.22-2.73 2.73-2.73H7c1.5 0 2.73 1.23 2.73 2.73v.5L9.15 8c-.29-.29-.66-.43-1.04-.44-.19-.42-.62-.72-1.11-.72H2.73Zm7.65 3.44-1.76 1.76c-.15.15-.34.22-.53.22a.742.742 0 0 1-.58-1.21H5.09a.742.742 0 0 1-.58 1.21c-.19 0-.38-.07-.53-.22l-1.76-1.76 1.76-1.76c.29-.29.77-.29 1.06 0s.29.73.02 1.03h2.48a.746.746 0 0 1 .02-1.03c.29-.29.77-.29 1.06 0z"/>
</svg>
