<svg viewBox="0 0 40 40" xmlns="http://www.w3.org/2000/svg">
  <path d="M13.86 10.52c2.87 0 5.21-2.35 5.21-5.23S16.73.07 13.86.07 8.65 2.41 8.65 5.3s2.34 5.23 5.21 5.23Zm0-8.2c1.63 0 2.96 1.33 2.96 2.97s-1.33 2.97-2.96 2.97-2.96-1.33-2.96-2.97 1.33-2.97 2.96-2.97m1.89 35.37c.88.89 1.89 1.65 3 2.25s-10.03 0-10.03 0l-1.2-15.71h-3.5V17.7c0-3.26 2.64-5.91 5.89-5.91h7.9c2.7 0 4.98 1.83 5.67 4.33-.77.08-1.51.23-2.23.44a3.625 3.625 0 0 0-3.44-2.5h-7.9c-2.01 0-3.64 1.64-3.64 3.65v4.27h3.34l1.2 15.71h4.95Zm8.97-20.26c-6.22 0-11.28 5.08-11.28 11.32s5.06 11.32 11.28 11.32S36 34.99 36 28.75s-5.06-11.32-11.28-11.32m0 2.26c2.07 0 3.98.71 5.5 1.89L17.57 34.27a9 9 0 0 1-1.88-5.52c0-5 4.05-9.06 9.03-9.06m0 18.12c-2.1 0-4.03-.73-5.56-1.94l12.66-12.7a9.05 9.05 0 0 1 1.93 5.58c0 5-4.05 9.06-9.03 9.06"/>
</svg>
