<svg viewBox="0 0 32 32" xmlns="http://www.w3.org/2000/svg">
  <path d="M10.99 8.54c2.35 0 4.27-1.92 4.27-4.27S13.34 0 10.99 0 6.72 1.91 6.72 4.27s1.92 4.27 4.27 4.27m0-6.54c1.25 0 2.27 1.02 2.27 2.27s-1.02 2.27-2.27 2.27-2.27-1.02-2.27-2.27S9.74 2 10.99 2m1.7 28c.68.69 1.46 1.28 2.32 1.75l-.02.25H6.78l-.96-12.33H3.01v-5.31c0-2.65 2.16-4.81 4.81-4.81h6.32c2.12 0 3.9 1.38 4.54 3.28-.67.08-1.33.22-1.95.43-.43-1-1.43-1.71-2.59-1.71H7.82c-1.55 0-2.81 1.26-2.81 2.81v3.31h2.66L8.63 30zm7.19-16.25c-5.03 0-9.12 4.09-9.12 9.12s4.09 9.12 9.12 9.12S29 27.9 29 22.87s-4.09-9.12-9.12-9.12m0 2c1.59 0 3.06.53 4.25 1.42l-9.95 9.95a7.07 7.07 0 0 1-1.42-4.25c0-3.93 3.2-7.12 7.12-7.12m0 14.25c-1.61 0-3.1-.55-4.3-1.45l9.96-9.97c.91 1.2 1.46 2.68 1.46 4.3 0 3.93-3.2 7.12-7.12 7.12"/>
</svg>
