<svg viewBox="0 0 40 40" xmlns="http://www.w3.org/2000/svg">
  <path fill="#1e1e1c" d="M4.24 4.15a4.144 4.144 0 1 1 8.29 0c0 2.29-1.86 4.15-4.14 4.15S4.24 6.44 4.24 4.15m12.61 14.03v-3.67c0-2.57-2.09-4.65-4.65-4.65H4.65C2.08 9.85 0 11.94 0 14.51v3.67zM31.54 8.3c2.29 0 4.14-1.86 4.14-4.15S33.82 0 31.54 0s-4.15 1.86-4.15 4.15 1.86 4.15 4.15 4.15m3.81 1.55H27.8a4.66 4.66 0 0 0-4.65 4.65v3.67H40V14.5c0-2.57-2.09-4.65-4.65-4.65M19.96 30.12c2.29 0 4.14-1.86 4.14-4.15s-1.86-4.15-4.14-4.15-4.15 1.86-4.15 4.15 1.86 4.15 4.15 4.15m3.81 1.55h-7.55a4.66 4.66 0 0 0-4.65 4.65v3.67h16.85v-3.67c0-2.57-2.09-4.65-4.65-4.65M12.7 28.2h-2.51c-1.53 0-2.78-1.25-2.78-2.79v-4.68H5.16v4.68c0 2.78 2.26 5.04 5.03 5.04h2.51zm19.89-2.78c0 1.54-1.25 2.79-2.78 2.79H27.3v2.25h2.51c2.77 0 5.03-2.26 5.03-5.04v-4.68h-2.25z"/>
</svg>
