<svg viewBox="0 0 24 24" xmlns="http://www.w3.org/2000/svg">
  <path d="M20.51 16.18c1.92 0 3.48-1.56 3.48-3.48s-1.56-3.48-3.48-3.48-3.48 1.56-3.48 3.48 1.56 3.48 3.48 3.48m0-5.21c.95 0 1.73.78 1.73 1.73s-.78 1.73-1.73 1.73-1.73-.78-1.73-1.73.78-1.73 1.73-1.73M24 17.3v1.75h-6.82c-1.17 0-2.12.95-2.12 2.13V24h-1.75v-2.82c0-2.14 1.74-3.88 3.87-3.88zm-6.38 3.87h1.75v2.82h-1.75zM7.12 7.01a3.504 3.504 0 0 0 0-7.01c-1.93 0-3.5 1.57-3.5 3.5S5.19 7 7.12 7Zm0-5.26c.97 0 1.75.79 1.75 1.75s-.79 1.75-1.75 1.75-1.75-.79-1.75-1.75.79-1.75 1.75-1.75m-3.25 8.1c-1.17 0-2.12.95-2.12 2.13v2.82H0v-2.82C0 9.84 1.74 8.1 3.87 8.1h6.48c2.14 0 3.87 1.74 3.87 3.88v1.24l-.98-.98c-.23-.23-.5-.37-.79-.45-.1-1.08-1-1.94-2.1-1.94zm11.24 5.48-2.48 2.48c-.17.17-.4.26-.62.26s-.45-.09-.62-.26a.88.88 0 0 1 0-1.24l.33-.33H6.86l.33.33a.881.881 0 0 1-.62 1.5c-.22 0-.45-.09-.62-.26l-2.48-2.48 2.48-2.48c.34-.34.9-.34 1.24 0s.34.9 0 1.24l-.4.4h5l-.4-.4c-.34-.34-.34-.9 0-1.24s.9-.34 1.24 0z"/>
</svg>
