<svg viewBox="0 0 24 24" xmlns="http://www.w3.org/2000/svg">
  <path d="M15.47 7.69c0-1.93-1.57-3.5-3.5-3.5s-3.5 1.57-3.5 3.5 1.57 3.5 3.5 3.5 3.5-1.57 3.5-3.5m-5.25 0c0-.96.79-1.75 1.75-1.75s1.75.79 1.75 1.75-.79 1.75-1.75 1.75-1.75-.79-1.75-1.75m-.47 4.74h4.5c1.72 0 3.12 1.4 3.12 3.12v1.29h-1.75v-1.29c0-.76-.62-1.38-1.38-1.38h-4.5c-.76 0-1.38.62-1.38 1.38v1.29H6.61v-1.29c0-1.72 1.4-3.12 3.12-3.12ZM12 0C9.79 0 7.72.61 5.94 1.66a3.05 3.05 0 0 0-1.66-.49c-1.72 0-3.12 1.4-3.12 3.12s1.4 3.12 3.12 3.12S7.4 6.01 7.4 4.29c0-.46-.11-.9-.29-1.29 1.45-.79 3.11-1.26 4.88-1.26 5.65 0 10.25 4.6 10.25 10.25 0 1.3-.25 2.55-.7 3.69.59.22 1.09.6 1.45 1.1.64-1.47 1-3.09 1-4.79C24 5.37 18.63 0 12 0M4.28 5.67c-.76 0-1.38-.62-1.38-1.38s.62-1.38 1.38-1.38 1.38.62 1.38 1.38-.62 1.38-1.38 1.38m15.44 10.95c-1.72 0-3.12 1.4-3.12 3.12 0 .45.1.88.27 1.26-1.45.79-3.1 1.25-4.87 1.25-5.65 0-10.25-4.6-10.25-10.25 0-1.29.25-2.52.69-3.66-.59-.22-1.09-.61-1.45-1.11C.36 8.69 0 10.3 0 12c0 6.63 5.37 12 12 12 2.2 0 4.25-.61 6.02-1.64.49.32 1.07.51 1.7.51 1.72 0 3.12-1.4 3.12-3.12s-1.4-3.12-3.12-3.12Zm0 4.5c-.76 0-1.38-.62-1.38-1.38s.62-1.38 1.38-1.38 1.38.62 1.38 1.38-.62 1.38-1.38 1.38"/>
</svg>
