<svg viewBox="0 0 40 40" xmlns="http://www.w3.org/2000/svg">
  <path fill="#1e1e1c" d="M8.39 8.3c2.29 0 4.14-1.86 4.14-4.15S10.67 0 8.39 0 4.24 1.86 4.24 4.15 6.1 8.3 8.39 8.3m0-6.05a1.9 1.9 0 1 1 0 3.8 1.9 1.9 0 1 1 0-3.8m3.81 9.85H4.65c-1.32 0-2.4 1.08-2.4 2.4v3.67H0V14.5c0-2.56 2.08-4.65 4.65-4.65h7.55a4.66 4.66 0 0 1 4.65 4.65v3.67H14.6V14.5a2.4 2.4 0 0 0-2.4-2.4m19.34-3.8c2.29 0 4.14-1.86 4.14-4.15a4.144 4.144 0 1 0-8.29 0c0 2.29 1.86 4.15 4.15 4.15m0-6.05a1.9 1.9 0 1 1 0 3.8 1.9 1.9 0 1 1 0-3.8M40 14.51v3.67h-2.25v-3.67a2.4 2.4 0 0 0-2.4-2.4H27.8c-1.32 0-2.4 1.08-2.4 2.4v3.67h-2.25v-3.67c0-2.57 2.09-4.65 4.65-4.65h7.55A4.66 4.66 0 0 1 40 14.51M19.96 30.12c2.29 0 4.14-1.86 4.14-4.15s-1.86-4.15-4.14-4.15-4.15 1.86-4.15 4.15 1.86 4.15 4.15 4.15m0-6.05a1.9 1.9 0 1 1 0 3.8 1.9 1.9 0 1 1 0-3.8m8.46 12.26V40h-2.25v-3.67a2.4 2.4 0 0 0-2.4-2.4h-7.55c-1.32 0-2.4 1.08-2.4 2.4V40h-2.25v-3.67c0-2.57 2.09-4.65 4.65-4.65h7.55a4.66 4.66 0 0 1 4.65 4.65M12.7 30.46h-2.51c-2.77 0-5.03-2.26-5.03-5.04v-4.68h2.25v4.68c0 1.54 1.25 2.79 2.78 2.79h2.51zm19.89-9.72h2.25v4.68c0 2.78-2.26 5.04-5.03 5.04H27.3v-2.25h2.51c1.53 0 2.78-1.25 2.78-2.79z"/>
</svg>
