<svg viewBox="0 0 24 24" xmlns="http://www.w3.org/2000/svg">
  <path d="M17.03 12.71c0-1.92 1.56-3.48 3.48-3.48s3.48 1.56 3.48 3.48-1.56 3.48-3.48 3.48-3.48-1.56-3.48-3.48m5.91 4.59h-5.76c-2.14 0-3.88 1.74-3.88 3.88V24h4.32v-2.82h1.75V24h4.61v-6.69h-1.04ZM7.12 7.01c1.93 0 3.5-1.57 3.5-3.51S9.05 0 7.12 0s-3.5 1.57-3.5 3.51 1.57 3.51 3.5 3.51Zm.69 5.23c.38.38.54.89.5 1.38h1.96c-.04-.49.12-1 .5-1.38.68-.68 1.79-.68 2.48 0l.98.98v-1.24c0-2.14-1.74-3.88-3.88-3.88H3.87C1.73 8.1 0 9.84 0 11.98v2.83h2.78l2.56-2.57c.68-.68 1.79-.68 2.48 0Zm4.82.62a.88.88 0 0 0-1.24 0c-.34.34-.34.9 0 1.24l.4.4h-5l.4-.4c.34-.34.34-.9 0-1.24a.88.88 0 0 0-1.24 0l-2.48 2.48 2.48 2.48c.17.17.4.26.62.26s.45-.09.62-.26c.34-.34.34-.9 0-1.24l-.33-.33h4.86l-.33.33a.881.881 0 0 0 .62 1.5c.22 0 .45-.09.62-.26l2.48-2.48z"/>
</svg>
