<svg viewBox="0 0 16 16" xmlns="http://www.w3.org/2000/svg">
  <path d="M2.36 2.38C2.36 1.07 3.43 0 4.75 0a2.38 2.38 0 1 1-2.38 2.38Zm1.27 8.31c0-2.31 1.2-4.34 3.01-5.51-.1-.01-.21-.03-.31-.03H3.17C1.71 5.15.51 6.34.51 7.81v2.9h1.43L2.42 16h3.93a6.54 6.54 0 0 1-2.72-5.31m11.87 0c0 2.93-2.38 5.31-5.31 5.31s-5.31-2.38-5.31-5.31 2.38-5.31 5.31-5.31 5.31 2.38 5.31 5.31m-8.12 0c0 .31.06.6.15.87l3.53-3.53c-.28-.09-.57-.15-.87-.15-1.55 0-2.81 1.26-2.81 2.81m5.62 0c0-.32-.06-.62-.16-.9l-3.55 3.55c.29.1.59.16.9.16 1.55 0 2.81-1.26 2.81-2.81"/>
</svg>
