<svg viewBox="0 0 48 48" xmlns="http://www.w3.org/2000/svg">
  <path fill="#1e1e1c" d="M5.11 4.9C5.11 2.2 7.31 0 10 0s4.89 2.2 4.89 4.9S12.7 9.79 10 9.79 5.11 7.59 5.11 4.9m14.98 16.91v-4.42c0-3.04-2.47-5.5-5.5-5.5H5.5C2.46 11.88 0 14.35 0 17.38v4.42h20.1ZM37.91 9.8c2.7 0 4.89-2.2 4.89-4.89S40.61 0 37.91 0s-4.89 2.2-4.89 4.9 2.19 4.89 4.89 4.89Zm4.59 2.08h-9.1a5.51 5.51 0 0 0-5.5 5.5v4.42h20.09v-4.42c0-3.04-2.47-5.5-5.5-5.5ZM23.96 36.09c2.7 0 4.89-2.2 4.89-4.9s-2.19-4.89-4.89-4.89-4.89 2.2-4.89 4.89 2.19 4.9 4.89 4.9m4.59 2.08h-9.1a5.51 5.51 0 0 0-5.5 5.5V48h20.1v-4.33c0-3.04-2.47-5.5-5.5-5.5M15.2 33.99h-3.02c-1.91 0-3.46-1.55-3.46-3.46v-5.64h-2.5v5.64c0 3.29 2.67 5.96 5.96 5.96h3.02zm24.09-3.46c0 1.91-1.55 3.46-3.46 3.46h-3.02v2.5h3.02c3.29 0 5.96-2.67 5.96-5.96v-5.64h-2.5z"/>
</svg>
