<svg viewBox="0 0 64 64" xmlns="http://www.w3.org/2000/svg">
  <path d="M52.68.01H17.23l1.4 4.02v11.51c2.43.21 4.35 2.23 4.35 4.71v1.2h.6c2.07 0 3.75 1.68 3.75 3.75v2.47h26.94v2.75H27.33v7.77h26.94v2.75H27.33v7.77h18.38v2.75H32.9c.14.33.23.7.23 1.09 0 1.52-1.23 2.75-2.75 2.75h-9.96v4.53h7.94v4.2h35.65v-50zm-1.75 15.82a2.76 2.76 0 0 1-2.76-2.76V1.39l12.45 14.44zM18.42 53.91h11.96c.76 0 1.38-.61 1.38-1.37s-.62-1.37-1.38-1.37h-4.43V25.21c0-1.31-1.07-2.37-2.38-2.37h-1.98v-2.57c0-1.86-1.51-3.37-3.38-3.37h-.97V4.04l-1.36-4-1.37 3.99v12.86h-.97a3.38 3.38 0 0 0-3.38 3.37v2.57H8.19c-1.31 0-2.38 1.06-2.38 2.37v4.99h7.13v2.75H5.81v3.96h5.38v2.75H5.81v4.17h10.08v2.75H5.8v4.6H1.37c-.76 0-1.37.61-1.37 1.37s.62 1.37 1.38 1.37h12.04v7.28H6.15v2.75H25.6v-2.75h-7.19v-7.28ZM12.9 20.26c0-.34.28-.62.63-.62h4.7c.34 0 .63.28.63.62v2.57h-5.95v-2.57Z"/>
</svg>
