<svg viewBox="0 0 40 40" xmlns="http://www.w3.org/2000/svg">
  <path fill="#1e1e1c" d="M14.62 18.34H2.49v-5.42a2.5 2.5 0 0 1 2.5-2.5h7.12a2.5 2.5 0 0 1 2.5 2.5v5.42Zm.87 2.27H1.63c-.9 0-1.63.72-1.63 1.62v4.76h8.4v6.4H0v4.93c0 .9.73 1.62 1.63 1.62h13.86c.9 0 1.63-.73 1.63-1.62v-16.1c0-.9-.73-1.62-1.63-1.62ZM40 32.58c0 .62-.5 1.12-1.13 1.12h-7.26v3.98h4.29v2.25H23.82v-2.25h3.79V33.7h-6.76c-.62 0-1.13-.5-1.13-1.12s.5-1.12 1.13-1.12h2.48V27.9h6.53v-2.25h-6.53v-4.28h4.49v-2.25h-4.49v-3.15c0-1.17.95-2.12 2.13-2.12h.58v-2.03c0-1.17.95-2.12 2.13-2.12h.58V2.44l1.12-2.49 1.12 2.48v7.26h.58c1.17 0 2.13.95 2.13 2.12v2.03h.58c1.17 0 2.13.95 2.13 2.12v15.48h2.48c.62 0 1.13.5 1.13 1.12Zm-8.55-20.64H28.3v1.9h3.15z"/>
</svg>
