<svg viewBox="0 0 16 16" xmlns="http://www.w3.org/2000/svg">
  <path fill="#1e1e1c" d="M16.04 12.78c0 .41-.33.75-.75.75h-2.26v.96h1.11v1.5H9.43v-1.5h1.12v-.96H8.28a.749.749 0 1 1 0-1.5h.66v-.78h2.85v-1.5H8.94V8.4h2.02V6.9H8.94v-.03c0-.72.43-1.34 1.05-1.61v-.95c0-.46.18-.74.34-.89.21-.21.46-.29.72-.33V.97l.73-.97.74.97V3.1c.25.04.51.12.72.33.15.15.34.43.34.89v.95c.62.27 1.05.89 1.05 1.61v5.15h.66c.41 0 .75.34.75.75M6.35 4.85c0-.96-.78-1.75-1.74-1.75H2.55c-.96 0-1.74.78-1.74 1.75v1.68h5.54zm-.47 3.18H1.29C.6 8.03.05 8.59.05 9.28v1.49h3.18v2.42H.04v1.55c0 .69.56 1.25 1.24 1.25h4.59c.69 0 1.24-.56 1.24-1.25V9.28c0-.69-.56-1.25-1.24-1.25Z"/>
</svg>
