<svg viewBox="0 0 32 32" xmlns="http://www.w3.org/2000/svg">
  <path fill="#1e1e1c" d="M31 25.02h-1.87V12.98c0-1.1-.9-2-2-2h-.15V9.42c0-1.1-.9-2-2-2h-.15V1.98L23.82 0l-1 1.98v5.44h-.15c-1.1 0-2 .9-2 2v1.56h-.15c-1.1 0-2 .9-2 2v2.14h3.62v2h-3.62v3.27h5.31v2h-5.31v2.63h-1.87c-.55 0-1 .45-1 1s.45 1 1 1h5.43v2.97h-3.07v2h9.64v-2h-3.07v-2.97h5.43c.55 0 1-.45 1-1s-.45-1-1-1Zm-6.02-14.04h-2.31V9.42h2.31zM11.84 14.5H1.91v-4.33c0-1.24 1.01-2.25 2.25-2.25h5.42c1.24 0 2.25 1.01 2.25 2.25v4.33Zm1.91 3.48v12.51c0 .83-.67 1.5-1.5 1.5H1.51C.68 32 0 31.33 0 30.5v-3.79h6.67v-5.06H0v-3.66c0-.83.67-1.5 1.5-1.5h10.74c.83 0 1.5.67 1.5 1.5Z"/>
</svg>
