<svg viewBox="0 0 40 40" xmlns="http://www.w3.org/2000/svg">
  <path d="M32.88.03H11.27l1.11 2.42v6.19c1.53.26 2.7 1.59 2.7 3.19v.96c1.53.26 2.7 1.59 2.7 3.19v1.06h15.94v2.25H17.78v4.22h15.94v2.25H17.78v4.22h10.67v2.25h-7.1c.02.11.03.23.03.34 0 1.24-1.01 2.25-2.25 2.25h-5.76v1.73h5.04v3.41h21.57V8.83zm-1.22 10.01c-.94 0-1.7-.76-1.7-1.7V1.15l7.39 8.88h-5.7ZM9 2.45l1.12-2.48 1.12 2.48v7.26H8.99V2.45Zm2.87 31.25h7.26c.62 0 1.13-.5 1.13-1.12s-.5-1.12-1.13-1.12h-2.48V15.98c0-1.17-.95-2.12-2.13-2.12h-.58v-2.03c0-1.17-.95-2.12-2.13-2.12h-3.4c-1.17 0-2.13.95-2.13 2.12v2.03H5.7c-1.17 0-2.13.95-2.13 2.12v2.4h4.61v2.25H3.59v5.03h6.53v2.25H3.59v3.55H1.11c-.62 0-1.13.5-1.13 1.12s.5 1.12 1.13 1.12h6.76v3.98H4.08v2.25h12.09v-2.25h-4.29V33.7ZM8.55 11.95h3.15v1.9H8.55z"/>
</svg>
