<svg viewBox="0 0 40 40" xmlns="http://www.w3.org/2000/svg">
  <path d="M32.89 0H11.2l1.06 2.25h16.59v6.07c0 1.56 1.27 2.82 2.82 2.82h6.08v26.61H18.41V40H40V8.81zm-1.8 8.32V2.25h.72l5.35 6.64h-5.51a.57.57 0 0 1-.57-.57Zm2.62 10.96H17.76v-2.25h15.95zm-15.95 4.23h15.95v2.25H17.76zm0 6.47h10.69v2.25h-7.13a2.245 2.245 0 0 0-2.21-1.85h-1.35zm-1.12 3.78h2.48c.62 0 1.12-.5 1.12-1.13s-.5-1.13-1.12-1.13h-2.48V16.01c0-1.17-.95-2.13-2.12-2.13h-.57v-2.53c0-1.17-.95-2.13-2.12-2.13h-.58V2.49L10.12 0 9 2.48v6.76h-.57c-1.17 0-2.12.95-2.12 2.13v2.53h-.58c-1.17 0-2.12.95-2.12 2.13v15.49H1.12C.5 31.51 0 32.01 0 32.64s.5 1.13 1.12 1.13h5.56v3.98h-2.6V40h12.07v-2.25h-2.71v-3.98h3.2Zm-7.71 3.98V34h2.26v3.74zM8.54 11.5h3.15v2.4H8.54zm-2.7 16.45h4.27V25.7H5.84v-3.11h2.7v-2.25h-2.7v-4.2h8.55V31.5H5.84v-3.56Z"/>
</svg>
