<svg viewBox="0 0 16 16" xmlns="http://www.w3.org/2000/svg">
  <path fill="#1e1e1c" d="M15.24 12.05h-.66V6.89c0-.72-.44-1.34-1.06-1.61v-.51c0-.72-.44-1.34-1.06-1.61V.97L11.7 0l-.75.97v2.19c-.62.27-1.06.89-1.06 1.61v.51c-.62.27-1.06.89-1.06 1.61v5.16h-.66c-.41 0-.75.34-.75.75s.34.75.75.75H11v.94H9.08v1.5h5.25v-1.5H12.5v-.94h2.74c.41 0 .75-.34.75-.75s-.34-.75-.75-.75m-3.85-7.28c0-.14.11-.25.25-.25h.12c.14 0 .25.11.25.25v.37h-.62zm-1.06 7.28v-.78h1.62v-1.5h-1.62v-.6h1v-1.5h-1v-.78c0-.14.11-.25.25-.25h2.24c.14 0 .25.11.25.25v5.16zM5.77 7.64V6.51c0-.69-.56-1.25-1.25-1.25H2.5c-.69 0-1.25.56-1.25 1.25v1.13C.56 7.64 0 8.2 0 8.89v5.85c0 .69.56 1.25 1.25 1.25h4.52c.69 0 1.25-.56 1.25-1.25V8.89c0-.69-.56-1.25-1.25-1.25m-1.51-.88v.88H2.74v-.88zm-2.77 4.59h1.63v.88H1.49zm0 3.15v-.77h3.13V9.85H1.49v-.7h4.02v5.35z"/>
</svg>
