<svg viewBox="0 0 32 32" xmlns="http://www.w3.org/2000/svg">
  <path d="M26.29 0H9.04l1.12 1.99L22.92 2v4.71c0 1.3 1.05 2.35 2.35 2.35h4.71v20.9H14.97v2h17.01V7.07zm-1.36 6.72V2h.4l4.08 5.06h-4.14c-.19 0-.35-.16-.35-.35Zm1.97 8.81H14.47v-2H26.9zm-12.43 3.15H26.9v2H14.47zm0 5.14h8.25v2h-5.4a1.994 1.994 0 0 0-1.98-1.79h-.87zm-1 3.21h1.87c.55 0 1-.45 1-1s-.45-1-1-1h-1.87V12.98c0-1.1-.9-2-2-2h-.15V9.17c0-1.1-.9-2-2-2h-.15V1.99L8.17 0l-1 1.98v5.19h-.15c-1.1 0-2 .9-2 2v1.81h-.15c-1.1 0-2 .9-2 2v12.05H.99c-.55 0-1 .45-1 1s.45 1 1 1h4.34V30H3.36v2h9.63v-2h-2.06v-2.97h2.55ZM7.32 30v-2.78h1.6V30zM7.01 9.18h2.31v1.81H7.01zM4.86 22.4h3.31v-2H4.86v-2.27h2.05v-2H4.86v-3.14h6.61v12.05H4.86v-2.63Z"/>
</svg>
