<svg viewBox="0 0 40 40" xmlns="http://www.w3.org/2000/svg">
  <path fill="#1e1e1c" d="M38.86 31.5h-2.48V16.02c0-1.17-.95-2.12-2.13-2.12h-.58v-2.53c0-1.17-.95-2.12-2.13-2.12h-.58V2.49L29.85 0l-1.12 2.48v6.76h-.58c-1.17 0-2.13.95-2.13 2.12v2.53h-.58c-1.17 0-2.13.95-2.13 2.12v15.48h-2.48c-.62 0-1.13.5-1.13 1.12s.5 1.12 1.13 1.12h5.57v3.98h-2.6v2.25h12.08v-2.25h-2.71v-3.98h5.68c.62 0 1.13-.5 1.13-1.12s-.5-1.12-1.13-1.12ZM28.27 11.49h3.15v2.4h-3.15zm2.66 26.24h-2.27v-3.98h2.27zm-5.36-6.23v-3.56h4.28v-2.25h-4.28v-3.11h2.7v-2.25h-2.7v-4.19h8.56V31.5zM15.46 20.65h-1.74V16.6c0-.9-.73-1.62-1.63-1.62H4.97c-.9 0-1.63.73-1.63 1.62v4.05H1.6c-.9 0-1.63.73-1.63 1.62v16.1c0 .9.73 1.62 1.63 1.62h13.85c.9 0 1.63-.73 1.63-1.62v-16.1c0-.9-.73-1.62-1.63-1.62ZM5.6 17.23h5.87v3.42H5.6zM2.23 28.16H8.4v4.15H2.23zm12.61 9.59H2.23v-3.18h8.42v-8.65H2.23v-3.01h12.6v14.85Z"/>
</svg>
