<svg viewBox="0 0 48 48" xmlns="http://www.w3.org/2000/svg">
  <path d="M47.99 10.55v37.44H21.83v-2.5H45.5V13.21h-7.44c-1.82 0-3.29-1.48-3.29-3.29V2.5H14.32L13.13 0h26.35zm-9.93.17h6.86L38.3 2.51h-1.03v7.42c0 .44.36.8.8.8Zm2.47 9.8H21.06v2.5h19.47zm-19.47 10.3h19.47v-2.5H21.06zm0 5.95h1.83a2.5 2.5 0 0 1 2.41 1.86h8.89v-2.5H21.06zm-5.09 3.75v4.99h3.36v2.5H4.81v-2.5h3.23v-4.99h-6.8a1.25 1.25 0 0 1 0-2.5h3.08V19.1c0-1.24 1.01-2.25 2.25-2.25h1V13.6c0-1.24 1.01-2.25 2.25-2.25h1V3.02L12.07.04l1.25 2.98v8.32h1c1.24 0 2.25 1.01 2.25 2.25v3.25h1c1.24 0 2.25 1.01 2.25 2.25v18.92h3.08a1.25 1.25 0 0 1 0 2.5h-6.92Zm-2.5 4.99v-4.7h-2.93v4.7zm-3.4-28.66h4v-3h-4zM6.82 38.02h10.49V19.35H6.82v5.25h3.35v2.5H6.82v3.94h5.25v2.5H6.82z"/>
</svg>
