<svg viewBox="0 0 40 40" xmlns="http://www.w3.org/2000/svg">
  <path d="M36.5 9.18 21.13.31a2.28 2.28 0 0 0-2.26 0L3.51 9.18c-.7.4-1.13 1.15-1.13 1.95v17.75c0 .8.43 1.55 1.13 1.95l15.37 8.87a2.28 2.28 0 0 0 2.26 0l15.37-8.87c.7-.4 1.13-1.15 1.13-1.95V11.13c0-.8-.43-1.55-1.13-1.95Zm-1.13 19.7L20 37.75 4.63 28.88V11.13L20 2.26l15.37 8.87zM20 12.6c-4.09 0-7.41 3.32-7.41 7.41s3.32 7.41 7.41 7.41 7.41-3.32 7.41-7.41S24.09 12.6 20 12.6m0 12.57a5.16 5.16 0 1 1 0-10.32 5.16 5.16 0 0 1 0 10.32"/>
</svg>
