<svg viewBox="0 0 24 24" xmlns="http://www.w3.org/2000/svg">
  <path d="M21.76 5.35 12.88.23C12.61.07 12.31 0 12 0s-.61.08-.88.23L2.25 5.35c-.54.31-.88.89-.88 1.52v10.25c0 .63.33 1.2.88 1.52l8.87 5.12c.27.16.57.23.88.23s.61-.08.88-.23l8.87-5.12c.54-.31.88-.89.88-1.52V6.87c0-.63-.33-1.2-.88-1.52Zm-.88 11.77-8.87 5.12-8.87-5.12V6.87l8.87-5.12 8.87 5.12zM7.54 11.99c0 2.47 2 4.47 4.47 4.47s4.47-2 4.47-4.47-2-4.47-4.47-4.47-4.47 2-4.47 4.47m7.18 0c0 1.5-1.22 2.72-2.72 2.72s-2.72-1.22-2.72-2.72S10.5 9.27 12 9.27s2.72 1.22 2.72 2.72"/>
</svg>
