<svg viewBox="0 0 64 64" xmlns="http://www.w3.org/2000/svg">
  <path d="M58.71 15 34.68 1.12 33.37.37C32.95.12 32.48 0 32 0s-.95.12-1.37.37-12.66 7.31-12.66 7.31L5.3 14.99a2.73 2.73 0 0 0-1.37 2.37v29.25c0 .98.52 1.89 1.37 2.38l12.67 7.31 12.66 7.31c.42.25.9.37 1.37.37s.95-.12 1.37-.37 1.31-.76 1.31-.76l24.03-13.87a2.73 2.73 0 0 0 1.37-2.37V17.36c0-.98-.52-1.89-1.37-2.38Zm-15.1 19.51a11.7 11.7 0 0 1-1.19 3.26c-.91 1.68-2.22 3.11-3.79 4.18-1.89 1.28-4.17 2.02-6.62 2.02s-4.73-.75-6.62-2.02a11.8 11.8 0 0 1-4.29-5.22q-.45-1.065-.69-2.22c-.24-1.155-.24-1.57-.24-2.39 0-6.54 5.3-11.85 11.85-11.85s11.85 5.3 11.85 11.85c0 .82-.08 1.62-.24 2.39Z"/>
</svg>
