<svg viewBox="0 0 48 48" xmlns="http://www.w3.org/2000/svg">
  <path d="M44.39 11.56c-.15-.15-.33-.29-.52-.4L25.25.4c-.19-.11-.4-.2-.61-.25-.21-.06-.43-.08-.64-.08s-.43.03-.64.08c-.21.06-.41.14-.61.25L4.13 11.16a2.49 2.49 0 0 0-1.25 2.16v21.5c0 .45.12.88.33 1.25s.53.69.91.91l18.62 10.75a2.54 2.54 0 0 0 2.5 0l18.62-10.75c.39-.22.7-.54.91-.91s.33-.8.33-1.25v-21.5c0-.67-.27-1.3-.73-1.76ZM31.81 28.3c-1.5 2.77-4.44 4.65-7.81 4.65s-6.3-1.88-7.81-4.65a8.9 8.9 0 0 1-1.07-4.23c0-.92.14-1.81.4-2.64.43-1.39 1.2-2.63 2.2-3.64 1.61-1.61 3.83-2.6 6.28-2.6s4.67.99 6.28 2.6a8.87 8.87 0 0 1 2.6 6.28c0 1.53-.39 2.97-1.07 4.23"/>
</svg>
