<svg viewBox="0 0 32 32" xmlns="http://www.w3.org/2000/svg">
  <path d="M31.99 16c0 .55-.45 1-1 1h-3.12c-.55 0-1-.45-1-1s.45-1 1-1h3.12c.55 0 1 .45 1 1m-6.58-5.43c.19.32.52.5.87.5.17 0 .34-.04.5-.13l2.7-1.56c.48-.28.64-.89.37-1.37a1.01 1.01 0 0 0-1.37-.37l-2.7 1.56c-.48.28-.64.89-.37 1.37m-2.8-6.01c.16.09.33.13.5.13.35 0 .68-.18.87-.5l1.56-2.7c.28-.48.11-1.09-.37-1.37S24.08.01 23.8.49l-1.56 2.7c-.28.48-.11 1.09.37 1.37m1.4 23.23a1.01 1.01 0 0 0-1.37-.37c-.48.28-.64.89-.37 1.37l1.56 2.7c.19.32.52.5.87.5.17 0 .34-.04.5-.13.48-.28.64-.89.37-1.37zm5.47-5.17-2.7-1.56c-.48-.28-1.09-.11-1.37.37s-.11 1.09.37 1.37l2.7 1.56c.16.09.33.13.5.13a1.002 1.002 0 0 0 .5-1.87M19.1 27.53v.57c0 .28-.22.5-.5.5h-7.78v-.56C5.74 27.83-.01 22.66-.01 16S5.74 4.17 10.82 3.96V3.4h7.78c.28 0 .5.22.5.5v.57c2.83 1.93 4.77 6.31 4.77 11.53s-1.94 9.61-4.77 11.53m-8.28-1.49V5.96C6.74 6.18 1.99 10.57 1.99 16s4.75 9.82 8.83 10.04m2.01.56h4.27V5.4h-4.27zm6.27-1.79c1.65-1.91 2.77-5.17 2.77-8.81s-1.12-6.9-2.77-8.81z"/>
</svg>
