<svg viewBox="0 0 48 48" xmlns="http://www.w3.org/2000/svg">
  <path d="M47.98 24.01c0 .69-.56 1.25-1.25 1.25H42a1.25 1.25 0 0 1 0-2.5h4.73c.69 0 1.25.56 1.25 1.25m-9.47-8.38c.23.4.65.63 1.08.63.21 0 .43-.05.62-.17l4.09-2.36c.6-.35.8-1.11.46-1.71-.35-.6-1.11-.81-1.71-.46l-4.09 2.36c-.6.35-.8 1.11-.46 1.71Zm-4.35-9.21a1.23 1.23 0 0 0 1.7-.46l2.36-4.09c.35-.6.14-1.36-.46-1.71S36.4.02 36.05.62l-2.36 4.09c-.35.6-.14 1.36.46 1.71Zm1.75 35.61c-.35-.6-1.11-.81-1.71-.46s-.8 1.11-.46 1.71l2.36 4.09c.23.4.65.63 1.08.63.21 0 .43-.05.62-.17.6-.35.8-1.11.46-1.71l-2.36-4.09Zm8.4-7.74-4.09-2.36c-.6-.35-1.36-.14-1.71.46s-.14 1.36.46 1.71l4.09 2.36a1.23 1.23 0 0 0 1.7-.46c.35-.6.14-1.36-.46-1.71ZM28.7 41.42v1.2c0 .28-.22.5-.5.5H16.14V42C8.56 41.69-.02 33.95-.02 24.01s8.58-17.69 16.17-18V4.89h12.06c.28 0 .5.22.5.5v1.2c4.15 2.96 6.97 9.56 6.97 17.42s-2.83 14.46-6.97 17.42ZM16.15 39.5V8.51C9.84 8.84 2.49 15.62 2.49 24s7.36 15.16 13.66 15.49Zm2.5 1.12h7.55V7.39h-7.55v33.22ZM28.7 38c2.66-2.97 4.47-8.18 4.47-14s-1.81-11.03-4.47-14z"/>
</svg>
