<svg viewBox="0 0 40 40" xmlns="http://www.w3.org/2000/svg">
  <path d="M39.98 20c0 .62-.5 1.13-1.13 1.13h-3.92c-.62 0-1.13-.5-1.13-1.13s.5-1.13 1.13-1.13h3.92c.62 0 1.13.5 1.13 1.13m-8.02-6.9a1.13 1.13 0 0 0 1.54.41l3.4-1.96a1.126 1.126 0 1 0-1.13-1.95l-3.4 1.96c-.54.31-.72 1-.41 1.54m-3.57-7.61a1.13 1.13 0 0 0 1.54-.41l1.96-3.4A1.126 1.126 0 1 0 29.94.55l-1.96 3.4c-.31.54-.13 1.23.41 1.54m1.57 29.42a1.126 1.126 0 1 0-1.95 1.13l1.96 3.4a1.13 1.13 0 0 0 1.54.41c.54-.31.72-1 .41-1.54zm6.93-6.46-3.4-1.96a1.126 1.126 0 1 0-1.13 1.95l3.4 1.96a1.13 1.13 0 0 0 1.54-.41c.31-.54.13-1.23-.41-1.54M23.9 34.47v.88c0 .28-.22.5-.5.5h-9.92v-.84C7.15 34.76-.02 28.3-.02 20S7.15 5.24 13.49 4.98v-.84h9.92c.28 0 .5.22.5.5v.88c3.49 2.44 5.87 7.93 5.87 14.47s-2.38 12.03-5.87 14.47Zm-8.16-.86h5.91V6.39h-5.91zm8.16-2.21c2.15-2.44 3.62-6.67 3.62-11.4s-1.47-8.96-3.62-11.4z"/>
</svg>
