<svg viewBox="0 0 64 64" xmlns="http://www.w3.org/2000/svg">
  <path d="M63.97 32c0 .76-.62 1.38-1.38 1.38h-6.36c-.76 0-1.38-.62-1.38-1.38s.62-1.38 1.38-1.38h6.36c.76 0 1.38.62 1.38 1.38M52.99 21.26c.23 0 .47-.06.69-.18l5.51-3.18c.66-.38.88-1.22.5-1.88s-1.22-.88-1.88-.5L52.3 18.7c-.66.38-.88 1.22-.5 1.88.25.44.72.69 1.19.69ZM45.83 8.07c.22.13.45.18.69.18.48 0 .94-.25 1.19-.69l3.18-5.51c.38-.66.15-1.5-.5-1.88-.66-.38-1.5-.16-1.88.5l-3.18 5.51c-.38.66-.15 1.5.5 1.88Zm1.94 48.34c-.38-.66-1.22-.88-1.88-.5s-.88 1.22-.5 1.88l3.18 5.51c.25.44.72.69 1.19.69.23 0 .47-.06.69-.18.66-.38.88-1.22.5-1.88l-3.18-5.51ZM59.19 46.1l-5.51-3.18c-.66-.38-1.5-.16-1.88.5s-.15 1.5.5 1.88l5.51 3.18c.22.13.45.18.69.18.48 0 .94-.25 1.19-.69.38-.66.15-1.5-.5-1.88Zm-20.86 8.32v2.8c0 .28-.22.5-.5.5h-16.4v-1.79c-4.86-.21-10.14-2.79-14.26-7.01C2.53 44.18-.03 38.17-.03 32s2.56-12.18 7.2-16.93c4.12-4.21 9.4-6.8 14.26-7.01V6.27h16.4c.28 0 .5.22.5.5v2.8c5.64 3.37 9.56 12.01 9.56 22.42s-3.92 19.05-9.56 22.42ZM35.58 9.03H24.19v45.95h11.39zM45.14 32c0-8.19-2.82-15.47-6.81-18.98v37.96c3.99-3.51 6.81-10.79 6.81-18.98"/>
</svg>
