<svg viewBox="0 0 64 64" xmlns="http://www.w3.org/2000/svg">
  <path d="M54.22 41.38c0 4.63-1.8 8.97-5.07 12.24-.27.27-.62.4-.97.4s-.7-.13-.97-.4c-.54-.54-.54-1.41 0-1.95 2.75-2.75 4.26-6.41 4.26-10.29s-1.51-7.55-4.26-10.3c-.54-.54-.54-1.41 0-1.95s1.41-.54 1.94 0c3.27 3.27 5.07 7.62 5.07 12.24Zm-12.03-6.06a1.375 1.375 0 0 0-1.82 2.06c1.22 1.08 1.89 2.5 1.89 4s-.67 2.92-1.89 3.99c-.57.5-.62 1.37-.12 1.94a1.374 1.374 0 0 0 1.94.13c1.82-1.61 2.82-3.76 2.82-6.06s-1-4.45-2.82-6.06m13.32-14.46c-.54-.54-1.41-.54-1.95 0s-.54 1.41 0 1.95c4.95 4.96 7.68 11.56 7.68 18.57s-2.73 13.63-7.69 18.59a1.376 1.376 0 0 0 1.94 1.95c5.48-5.49 8.5-12.78 8.5-20.54s-3.01-15.04-8.48-20.52m-27.78 3.42c-.21-.3-.47-.66-.58-.84-.05-1.83-.86-9.62-1.13-12.15C24.04-1.68 8.08-.17 2.07.41 1.17.5.4.57 0 .57v2.75c.54 0 1.33-.08 2.34-.17 9.59-.91 19.57-.61 20.96 8.49.56 5.26 1.14 11.22 1.12 11.91v.12c.02.72.45 1.32 1.1 2.22.88 1.23 2.22 3.08 3.24 6.05.07.19.04.24.03.26-.23.35-1.3.7-2.11.78l-.14.02c-.87.17-2.35 1.11-2.35 3.5l-.04 2.35h-2.51a2.88 2.88 0 0 0-2.88 2.88v5.36a2.88 2.88 0 0 0 2.88 2.88h2.39c-.28 2.06-1.52 4.63-7.92 4.63H9.37v9.43h2.75v-6.68h3.99c10.49 0 10.69-6.44 10.76-8.56l.05-1.58h-5.29c-.07 0-.13-.06-.13-.13v-5.36c0-.07.06-.13.13-.13h5.21l.09-5.08c0-.52.13-.75.2-.83.81-.1 2.98-.5 3.95-2 .35-.54.68-1.44.27-2.65-1.15-3.36-2.69-5.49-3.61-6.77Z"/>
</svg>
