<svg viewBox="0 0 32 32" xmlns="http://www.w3.org/2000/svg">
  <path d="M27.16 20.8c0 2.37-.92 4.61-2.6 6.29-.2.2-.45.29-.71.29s-.51-.1-.71-.29c-.39-.39-.39-1.02 0-1.42 1.3-1.3 2.02-3.03 2.02-4.87s-.72-3.57-2.02-4.87c-.39-.39-.39-1.02 0-1.42s1.02-.39 1.41 0a8.83 8.83 0 0 1 2.6 6.29Zm-7.47-3.15a.99.99 0 0 0 .09 1.41c.53.47.83 1.09.83 1.74s-.29 1.27-.83 1.74c-.41.37-.45 1-.09 1.41.2.22.47.34.75.34.24 0 .47-.08.66-.25.97-.86 1.5-2.01 1.5-3.24s-.53-2.38-1.51-3.24a.99.99 0 0 0-1.41.09Zm8.02-7.23a.996.996 0 0 0-1.41 0c-.39.39-.39 1.02 0 1.42 2.39 2.4 3.71 5.58 3.71 8.97s-1.32 6.58-3.72 8.98c-.39.39-.39 1.02 0 1.42.2.2.45.29.71.29s.51-.1.71-.29c2.77-2.78 4.3-6.47 4.3-10.39s-1.52-7.61-4.29-10.38Zm-13.72 1.73c-.09-.13-.17-.24-.23-.32-.04-.99-.36-4.06-.56-5.97C12.17-.87 4.05-.09.99.2.56.25.21.28 0 .28v2c.26 0 .67-.04 1.18-.09 4.6-.44 9.39-.31 10.03 3.91.27 2.59.56 5.49.55 5.93.01.46.26.8.61 1.28.42.57 1.04 1.43 1.52 2.81-.17.08-.47.17-.72.19h-.1c-.49.11-1.42.67-1.42 2.06l-.02.85h-.93c-.96 0-1.74.78-1.74 1.75v2.65c0 .96.78 1.75 1.74 1.75h.8c-.23.84-.97 1.65-3.54 1.65H4.3v4.99h2v-2.99h1.66c3.65 0 5.55-1.53 5.65-4.62l.04-1.04h-2.69v-2.14h2.64l.05-2.83v-.12c.53-.09 1.51-.35 2-1.1.3-.46.36-1.03.17-1.59-.59-1.71-1.37-2.79-1.83-3.43"/>
</svg>
