<svg viewBox="0 0 32 32" xmlns="http://www.w3.org/2000/svg">
  <path d="M26.91 20.58c0 2.57-1 4.99-2.82 6.82-.34.34-.79.51-1.24.51s-.9-.17-1.24-.51c-.68-.68-.68-1.79 0-2.48 1.16-1.16 1.8-2.7 1.8-4.34s-.64-3.18-1.8-4.34c-.68-.68-.68-1.79 0-2.48s1.79-.68 2.48 0a9.57 9.57 0 0 1 2.82 6.82m-6.57-3.8c-.72-.64-1.83-.57-2.47.16s-.57 1.83.16 2.47c.21.19.57.59.57 1.17s-.36.99-.57 1.18c-.72.64-.79 1.75-.15 2.47.35.39.83.59 1.31.59.41 0 .83-.14 1.16-.44 1.13-1 1.76-2.35 1.76-3.8s-.62-2.8-1.76-3.8Zm7.14-7.11c-.68-.69-1.79-.69-2.48 0-.68.68-.69 1.79 0 2.48 2.25 2.25 3.49 5.25 3.49 8.44s-1.24 6.19-3.5 8.45c-.68.68-.68 1.79 0 2.48.34.34.79.51 1.24.51s.9-.17 1.24-.51c2.92-2.92 4.52-6.8 4.52-10.92s-1.6-8-4.51-10.91Zm-13.49 2.48c-.09-.13-.17-.24-.23-.32-.04-.99-.36-4.06-.56-5.97C12.17-.86 4.05-.09.99.21.55.25.21.28 0 .28v31.73h6.31v-2.99h1.66c3.65 0 5.55-1.53 5.65-4.62l.04-1.04h-2.69v-2.14h2.64l.05-2.83v-.12c.53-.09 1.51-.35 2-1.1.3-.46.36-1.03.17-1.59-.59-1.71-1.37-2.79-1.83-3.43Z"/>
</svg>
