<svg viewBox="0 0 48 48" xmlns="http://www.w3.org/2000/svg">
  <path d="M40.7 31.11c0 3.51-1.37 6.81-3.85 9.3-.24.24-.56.37-.88.37s-.64-.12-.88-.37a1.25 1.25 0 0 1 0-1.77c2.01-2.01 3.12-4.68 3.12-7.53s-1.11-5.52-3.12-7.53c-.49-.49-.49-1.28 0-1.77s1.28-.49 1.77 0a13.08 13.08 0 0 1 3.85 9.3Zm-9.06-4.69c-.52-.46-1.31-.41-1.77.11s-.41 1.31.11 1.77c.86.76 1.34 1.76 1.34 2.82s-.47 2.05-1.34 2.82a1.252 1.252 0 0 0 .83 2.19c.29 0 .59-.1.83-.31 1.41-1.24 2.18-2.91 2.18-4.69s-.77-3.45-2.18-4.69Zm9.96-10.78a1.25 1.25 0 0 0-1.77 0 1.25 1.25 0 0 0 0 1.77c3.65 3.66 5.66 8.53 5.66 13.71s-2.02 10.06-5.68 13.72a1.25 1.25 0 0 0 0 1.77c.24.24.56.37.88.37s.64-.12.88-.37c4.13-4.14 6.41-9.64 6.41-15.49s-2.27-11.34-6.39-15.48Zm-20.72 2.58c-.14-.2-.31-.43-.39-.57-.05-1.44-.59-6.66-.85-9.04C18.13-1.28 6.07-.13 1.52.31.86.37.29.42 0 .42v2.5c.42 0 1.01-.06 1.77-.13 7.06-.67 14.4-.46 15.4 6.13.35 3.33.84 8.28.83 8.85v.12c.02.61.35 1.08.86 1.78.65.9 1.64 2.27 2.43 4.45-.13.18-.84.43-1.4.48l-.13.02c-.72.14-1.93.9-1.93 2.83l-.03 1.54h-1.66c-1.31 0-2.37 1.07-2.37 2.38v4c0 1.31 1.06 2.38 2.37 2.38h1.53c-.27 1.44-1.3 3.01-5.65 3.01H6.76v7.27h2.5v-4.76h2.75c8.05 0 8.2-4.97 8.26-6.61l.05-1.41h-4.05V31.5h3.98l.08-4.02c0-.22.03-.35.06-.41.7-.1 2.27-.44 3-1.58.41-.63.49-1.4.23-2.17-.87-2.54-2.03-4.15-2.73-5.11Z"/>
</svg>
