<svg viewBox="0 0 64 64" xmlns="http://www.w3.org/2000/svg">
  <path d="M54.21 41.34c0 4.92-1.92 9.55-5.4 13.04-.49.49-1.13.73-1.77.73s-1.28-.24-1.77-.73c-.98-.98-.98-2.56 0-3.53 2.54-2.54 3.94-5.91 3.94-9.5s-1.4-6.96-3.94-9.5c-.98-.98-.98-2.56 0-3.53s2.56-.98 3.54 0c3.48 3.48 5.4 8.11 5.4 13.03Zm-12.42-6.9a2.51 2.51 0 0 0-3.53.22c-.91 1.04-.82 2.62.22 3.53.98.86 1.51 1.98 1.51 3.15s-.54 2.29-1.51 3.15c-1.04.91-1.13 2.49-.22 3.53a2.49 2.49 0 0 0 3.53.22c2.07-1.82 3.2-4.27 3.2-6.9s-1.14-5.08-3.2-6.9m13.39-14.41c-.98-.98-2.56-.98-3.54 0s-.98 2.56 0 3.53c4.74 4.75 7.35 11.07 7.35 17.78s-2.62 13.04-7.37 17.8c-.98.98-.98 2.56 0 3.53.49.49 1.13.73 1.77.73s1.28-.24 1.77-.73C60.86 56.97 64 49.4 64 41.34s-3.13-15.61-8.82-21.31m-27.42 4.22c-.21-.3-.47-.66-.58-.84-.05-1.82-.87-9.62-1.14-12.15C24.07-1.71 8.09-.19 2.07.38 1.18.47.41.54 0 .54v63.47h12.12v-6.7h4c10.49 0 10.7-6.44 10.77-8.55l.06-1.58h-5.29c-.07 0-.13-.06-.13-.13v-5.36c0-.07.06-.13.13-.13h5.22l.09-5.08c0-.52.13-.75.2-.83.81-.1 2.98-.5 3.95-2 .35-.54.68-1.44.27-2.65-1.15-3.36-2.69-5.49-3.62-6.77Z"/>
</svg>
