<svg viewBox="0 0 16 16" xmlns="http://www.w3.org/2000/svg">
  <path d="M13.32 10.48c0 1.24-.48 2.4-1.36 3.28-.15.15-.34.22-.53.22s-.38-.07-.53-.22a.754.754 0 0 1 0-1.06 3.12 3.12 0 0 0 0-4.42c-.29-.29-.29-.77 0-1.06s.77-.29 1.06 0c.88.88 1.36 2.04 1.36 3.27ZM9.96 8.7a.746.746 0 0 0-1.06.06c-.27.31-.25.78.06 1.06.21.18.32.42.32.66s-.11.48-.32.66c-.31.27-.34.75-.06 1.06.15.17.35.25.56.25.18 0 .35-.06.5-.19.53-.47.83-1.11.83-1.79s-.29-1.31-.83-1.79Zm3.84-3.51a.754.754 0 0 0-1.06 0c-.29.29-.29.77 0 1.06 1.13 1.13 1.75 2.63 1.75 4.23s-.62 3.1-1.75 4.23c-.29.29-.29.77 0 1.06.15.15.34.22.53.22s.38-.07.53-.22c1.42-1.41 2.19-3.29 2.19-5.3s-.78-3.88-2.19-5.29Zm-6.71.89s-.05-.07-.07-.09C7 5.68 6.94 4.94 6.74 3.1 6.21-.45 2.03-.05.46.09.26.11.09.13 0 .13v1.5c.13 0 .34-.02.61-.04 2.15-.2 4.38-.16 4.66 1.7.13 1.24.27 2.65.27 2.9 0 .3.17.52.35.77.17.23.41.57.62 1.06-.04 0-.07.01-.11.02-.44.08-.91.52-.91 1.25v.17h-.21c-.62 0-1.12.5-1.12 1.12v1.3c0 .6.47 1.09 1.06 1.12-.21.18-.58.3-1.29.3H1.86v2.71h1.5V14.8h.56c1.35 0 2.97-.43 3.04-2.52l.03-.78H5.65v-.54h1.3l.03-1.5c.31-.08.71-.25.95-.61.19-.3.23-.65.11-1.01-.3-.88-.7-1.43-.94-1.76Z"/>
</svg>
