<svg viewBox="0 0 48 48" xmlns="http://www.w3.org/2000/svg">
  <path d="M40.7 31.16c0 3.78-1.47 7.33-4.14 10-.44.44-1.02.66-1.59.66a2.25 2.25 0 0 1-1.59-3.84c1.82-1.82 2.82-4.24 2.82-6.82s-1-4.99-2.82-6.81c-.88-.88-.88-2.3 0-3.18s2.3-.88 3.18 0c2.67 2.67 4.14 6.22 4.14 10Zm-9.4-5.44c-.93-.82-2.35-.73-3.18.2s-.73 2.35.2 3.18c.64.57 1 1.3 1 2.06s-.35 1.5-1 2.06c-.93.82-1.02 2.25-.2 3.18.44.5 1.06.76 1.69.76.53 0 1.06-.19 1.49-.56 1.63-1.44 2.52-3.37 2.52-5.44s-.89-4-2.52-5.44m10-10.74c-.88-.88-2.31-.88-3.18 0-.88.88-.88 2.3 0 3.18 3.46 3.47 5.37 8.09 5.37 12.99s-1.91 9.53-5.39 13.01A2.25 2.25 0 0 0 39.69 48c.57 0 1.15-.22 1.59-.66 4.32-4.32 6.7-10.07 6.7-16.19s-2.37-11.85-6.69-16.17Zm-20.42 3.24c-.14-.2-.31-.43-.39-.56-.05-1.44-.59-6.66-.85-9.03C18.13-1.26 6.06-.11 1.52.32.86.39.29.44 0 .44v47.61h9.26v-4.79h2.76c8.05 0 8.2-4.97 8.26-6.6l.05-1.41h-4.05v-3.74h3.98l.08-4.01c0-.22.03-.35.06-.41.7-.1 2.27-.44 3-1.58.41-.63.49-1.4.23-2.17-.87-2.54-2.03-4.15-2.73-5.11Z"/>
</svg>
