<svg viewBox="0 0 16 16" xmlns="http://www.w3.org/2000/svg">
  <path d="M13.33 10.22c0 1.3-.51 2.53-1.43 3.45-.2.2-.45.29-.71.29s-.51-.1-.71-.29a.996.996 0 0 1 0-1.41c.54-.54.84-1.27.84-2.04s-.3-1.49-.84-2.04a.996.996 0 1 1 1.41-1.41c.92.92 1.43 2.15 1.43 3.45ZM9.79 8.25a1 1 0 0 0-1.41.09.99.99 0 0 0 .09 1.41c.11.09.24.25.24.48s-.13.38-.24.47c-.41.37-.45 1-.09 1.41.2.22.47.34.75.34.24 0 .47-.08.66-.25.59-.52.91-1.22.91-1.97s-.32-1.45-.91-1.97Zm3.95-3.49a.996.996 0 1 0-1.41 1.41 5.737 5.737 0 0 1 0 8.11.996.996 0 0 0 .71 1.7c.26 0 .51-.1.71-.29 1.46-1.46 2.27-3.4 2.27-5.47s-.8-4-2.26-5.46ZM7.1 6.08s-.05-.07-.07-.09c-.02-.31-.08-1.04-.28-2.89C6.21-.45 2.04-.05.47.1.26.12.1.14 0 .14v15.87h3.37v-1.22h.56c1.35 0 2.97-.43 3.04-2.52l.03-.78H5.67v-.54h1.29l.03-1.5c.31-.08.71-.25.95-.61.19-.3.23-.65.11-1.01-.3-.88-.7-1.43-.94-1.76Z"/>
</svg>
