<svg viewBox="0 0 64 64" xmlns="http://www.w3.org/2000/svg">
  <path d="M30.06 12.73c3.53 0 6.41-2.89 6.41-6.44S33.59-.15 30.06-.15s-6.41 2.89-6.41 6.44 2.88 6.44 6.41 6.44m0-10.12c2.02 0 3.66 1.65 3.66 3.68s-1.64 3.68-3.66 3.68-3.66-1.65-3.66-3.68 1.64-3.68 3.66-3.68m2.62 14.12s-.02-.01-.03-.02l-.97-.62-.02.04a14 14 0 0 0-1.82-.83c-.43-.19-2.84-1.16-5.22-.25-1.54.59-2.7 1.79-3.48 3.65l-3.33 9.19-.04.11c-.78 2.91-.87 9.2 4.37 12.17l.23.13.24.04-11.66 15.87 7.98 7.34 11.64-16.44 3.37 16.75 10.85-1.45-4.68-25.13-2.51-5.11c.73.19 1.44.3 2.15.3q.9 0 1.77-.21c3.8-.9 5.69-4.47 5.77-4.62l.58-1.12zm8.88 43.32-5.43.72-4.11-20.47L18.5 59.38l-3.86-3.55 11.75-15.99 3.15-14.49-2.69-.59-2.82 12.97-.74-.11c-4.26-2.62-3.02-8.24-2.87-8.87l3.28-9.06c.46-1.08 1.07-1.76 1.89-2.07 1.46-.57 3.13.19 3.14.19l.11.04c4.11 1.54 4.86 3.99 4.96 4.39l.21 8.82 3.48 7.09 4.08 21.89Zm-.69-30.47c-1.28.3-2.68.05-4.18-.71l-.15-6.37 7.59 4.89c-.66.8-1.76 1.83-3.26 2.18Z"/>
</svg>
