<svg viewBox="0 0 64 64" xmlns="http://www.w3.org/2000/svg">
  <path d="m47.93 26.69-.53 1.01c-.08.15-1.95 3.68-5.73 4.57-.58.14-1.16.2-1.75.2-.8 0-1.61-.13-2.44-.38l2.7 5.55 4.66 24.91-10.67 1.42-3.43-17.01L18.91 63.6l-7.84-7.19 11.82-16.03-.45-.06-.21-.12c-5.21-2.95-5.12-9.19-4.34-12.07l.03-.1 3.36-9.23c.77-1.82 1.92-3.01 3.43-3.58 2.36-.9 4.75.07 5.16.25.67.25 18.07 11.21 18.07 11.21ZM30.14 12.65c3.49 0 6.33-2.84 6.33-6.33S33.63-.02 30.14-.02s-6.33 2.84-6.33 6.33 2.84 6.33 6.33 6.33Z"/>
</svg>
