<svg viewBox="0 0 64 64" xmlns="http://www.w3.org/2000/svg">
  <path d="M35.19 13.56c3.73 0 6.77-3.04 6.77-6.77S38.92.02 35.19.02s-6.77 3.04-6.77 6.77 3.04 6.77 6.77 6.77m0-10.79c2.21 0 4.02 1.8 4.02 4.02a4.02 4.02 0 1 1-4.02-4.02m6.83 28.43c1.79 0 3.36-.46 4.7-1.38 3.38-2.31 3.85-6.68 3.87-6.86l.12-1.24-16.48-3.27c-.99-.94-2.38-1.87-4.33-2.6-2.5-1.05-7.79-1.76-9.85 3.09l-3.8 8.19-.09.25c-.8 3.29-.62 10.26 5.71 13.43l-3.25 6.97-11.65 2.68 1.72 11.48 17.99-4.32 4.86-7.67 4.52 5.35 1.43 8.71h12.19L46.4 48.05 40.2 37.8l-3.32-6.73-.02-.86 1.58.44c1.27.35 2.47.53 3.58.53Zm-4.26 7.89 6.04 9.99 2.51 12.18h-6.49l-1.17-7.15-5.63-6.66 2.74-4.36-2.33-1.46-4.19 6.68.07.04-4.35 6.87-13.99 3.36-.9-5.99 10.48-2.41L25 40.64l4.54-14.52-2.62-.82-4.04 12.95c-5.34-2.86-4.27-9.11-4.06-10.08l3.76-8.1c1.5-3.53 5.79-1.87 6.32-1.65 4.19 1.56 4.94 4.05 5.04 4.44l.21 8.91 3.62 7.32Zm-1.08-16.41v-.17s-.07-.35-.24-.82l11.15 2.21c-.33 1.1-1.02 2.69-2.44 3.66-1.47 1-3.48 1.15-5.98.45l-2.39-.67-.11-4.67Z"/>
</svg>
