<svg viewBox="0 0 40 40" xmlns="http://www.w3.org/2000/svg">
  <path d="M21.89 8.91c2.45 0 4.45-2 4.45-4.45S24.34 0 21.89 0s-4.45 2-4.45 4.45 2 4.45 4.45 4.45Zm0-6.65c1.21 0 2.2.99 2.2 2.2s-.99 2.2-2.2 2.2-2.2-.99-2.2-2.2.99-2.2 2.2-2.2M26.1 20.4c1.16 0 2.18-.3 3.05-.9 2.19-1.5 2.49-4.31 2.5-4.43l.1-1.02L21.43 12c-.63-.58-1.5-1.15-2.7-1.6-1.63-.69-5.08-1.14-6.43 2.04l-2.35 5.05-.07.21c-.5 2.05-.4 6.34 3.37 8.44l-1.75 3.33-7.33 1.69 1.14 7.63 11.49-2.76 2.85-4.5 2.49 2.95.91 5.53h8.09l-2.11-10.24-3.85-5.72-2-4.06v-.1l.61.17c.81.23 1.57.34 2.28.34Zm-2.88 4.71 3.72 5.54 1.46 7.1h-3.42l-.7-4.25-3.41-4.04 1.07-1.77-1.93-1.16-2.04 3.37.04.03-2.61 4.12-8.22 1.97-.47-3.14 6.31-1.45 2.81-5.34 2.84-9.03-2.15-.67-2.39 7.65c-2.73-1.71-2.2-5.09-2.08-5.71l2.31-4.97c.82-1.92 3.23-1 3.54-.87 2.39.89 2.86 2.27 2.93 2.51l.13 5.52 2.26 4.57Zm-.14-10.25v-.14s-.02-.05-.03-.1l6.12 1.21c-.22.6-.61 1.35-1.3 1.82-.83.56-2 .64-3.45.24l-1.27-.36-.06-2.68Z"/>
</svg>
