<svg viewBox="0 0 48 48" xmlns="http://www.w3.org/2000/svg">
  <path d="M22.51 10.06c2.77 0 5.03-2.25 5.03-5.03S25.28 0 22.51 0s-5.03 2.26-5.03 5.03 2.25 5.03 5.03 5.03m0-7.55c1.39 0 2.53 1.13 2.53 2.53s-1.13 2.53-2.53 2.53-2.53-1.13-2.53-2.53 1.13-2.53 2.53-2.53m2.19 10.7c-.09-.06-.2-.13-.3-.19l-.55-.36-.02.02c-.42-.23-.88-.44-1.39-.63-1.92-.81-5.99-1.35-7.63 2.5l-2.51 6.89c-.77 2.27-.87 7.17 4.14 9.56L7.9 41.19l6.17 6.69 8.72-10.87 2.49 10.98 8.55-1.14-3.54-18.11-1.56-3.23c.3.05.6.08.89.08.48 0 .96-.06 1.43-.18 3.04-.76 4.54-3.76 4.6-3.88l.49-1-11.44-7.34Zm6.17 31.53-3.66.49-3.13-13.81-10.14 12.65-2.71-2.94 8.72-10.4 2.38-10.91-2.44-.53-2.07 9.49-.37-.05c-4.09-2.01-2.92-6.02-2.79-6.44l2.47-6.8c1.02-2.4 4-1.25 4.38-1.1 2.93 1.09 3.5 2.8 3.58 3.1l.16 6.61 2.62 5.31 3 15.34Zm-.44-21.73c-.83.2-1.74.07-2.71-.38l-.11-4.58 5.18 3.33c-.5.62-1.3 1.38-2.36 1.64Z"/>
</svg>
