<svg viewBox="0 0 24 24" xmlns="http://www.w3.org/2000/svg">
  <path d="M13.2 5.62c1.55 0 2.81-1.26 2.81-2.81S14.75 0 13.2 0s-2.81 1.26-2.81 2.81 1.26 2.81 2.81 2.81m0-3.87c.58 0 1.06.48 1.06 1.06s-.48 1.06-1.06 1.06-1.06-.48-1.06-1.06.48-1.06 1.06-1.06m4.41 10.06c1.37-.94 1.57-2.62 1.59-2.8l.08-.79-6.33-1.26c-.39-.35-.9-.69-1.62-.96-1.21-.51-3.31-.57-4.12 1.33L5.8 10.36l-.06.16c-.3 1.23-.25 3.75 1.84 5.12L6.39 17.3l-4.1 1.06.74 4.98 6.69-1.74 2.03-2.63 1.36 1.6.56 3.43h5.27l-1.32-6.44-2.33-3.3-1.03-2.08c.49.13.96.2 1.39.2.74 0 1.39-.19 1.94-.57Zm-1.62 6.46.82 3.97h-1.64l-.4-2.44-1.99-2.36.57-.94-1.5-.91-1.07 1.77-2.06 2.67-4.23 1.1-.22-1.49 3.19-.82 2.17-3.04 1.78-5.56-1.67-.52-1.35 4.33c-1.26-.98-1.02-2.67-.95-3.04l1.38-2.97c.4-.96 1.61-.52 1.87-.41 1.3.48 1.58 1.21 1.62 1.35l.08 3.34 1.37 2.78 2.22 3.17Zm-1.9-7.96-.03-1.35 3.18.63c-.13.28-.32.58-.62.78-.45.3-1.09.34-1.9.12l-.62-.17Z"/>
</svg>
