<svg viewBox="0 0 32 32" xmlns="http://www.w3.org/2000/svg">
  <path d="M15.15 6.77c1.88 0 3.4-1.53 3.4-3.42s-1.53-3.41-3.4-3.41-3.4 1.53-3.4 3.42 1.53 3.42 3.4 3.42Zm0-4.83c.77 0 1.4.63 1.4 1.41s-.63 1.41-1.4 1.41-1.4-.63-1.4-1.41.63-1.41 1.4-1.41m5.61 15.2c2.1-.53 3.13-2.6 3.18-2.69l.39-.8-8.32-5.36v.02c-.3-.16-.61-.31-.96-.44-1.34-.57-4.16-.93-5.31 1.77l-1.67 4.62c-.52 1.53-.6 4.8 2.62 6.49l-5.63 6.44 4.34 4.73 5.74-6.88 1.62 6.9 6.03-.8-2.4-11.97-.93-1.93c.11 0 .21.03.32.03.33 0 .67-.04.99-.12Zm-.36 12.28-2.11.28-2.12-9.03-6.84 8.2-1.58-1.72 5.73-6.55 1.6-7.36-1.95-.43-1.35 6.2h-.07c-2.57-1.3-1.83-3.84-1.75-4.1l1.64-4.55c.62-1.45 2.47-.74 2.71-.64 1.84.69 2.22 1.74 2.28 1.94l.11 4.45 1.76 3.57 1.95 9.73Zm-1.74-14.45-.06-2.63 3.03 1.95c-.32.36-.78.75-1.37.9-.49.12-1.03.03-1.6-.22"/>
</svg>
