<svg viewBox="0 0 48 48" xmlns="http://www.w3.org/2000/svg">
  <path d="M26.35 10.54c2.9 0 5.26-2.36 5.26-5.26S29.25.02 26.35.02s-5.26 2.36-5.26 5.26 2.36 5.26 5.26 5.26m0-8.02c1.52 0 2.76 1.24 2.76 2.76s-1.24 2.76-2.76 2.76-2.76-1.24-2.76-2.76 1.24-2.76 2.76-2.76m5.08 21.13c1.38 0 2.59-.35 3.62-1.06 2.6-1.78 2.96-5.12 2.98-5.26l.11-1.13-12.38-2.46c-.75-.7-1.8-1.39-3.24-1.93-1.93-.81-6.02-1.35-7.62 2.41l-2.83 6.08-.08.23c-.61 2.47-.47 7.67 4.17 10.13l-2.27 4.88-8.76 2.01 1.34 8.98 13.7-3.29 3.5-5.51 3.12 3.69 1.08 6.6h9.54L34.9 35.85l-4.62-7.64-2.44-4.94v-.28l.87.25c.97.27 1.88.4 2.73.4Zm-3.37 5.73 4.48 7.41 1.8 8.73h-4.35l-.85-5.18-4.12-4.87 1.95-3.1-2.12-1.33L21.74 36l.05.03-3.18 5.02-10.06 2.42-.6-4 7.69-1.77 3.35-7.19 3.39-10.81-2.39-.75-2.92 9.35c-3.51-2.08-2.82-6.33-2.67-7.08l2.79-6c1.03-2.41 4.03-1.26 4.41-1.1 2.95 1.1 3.52 2.82 3.6 3.12l.16 6.64 2.71 5.49Zm-.37-12.3v-.15s-.03-.12-.07-.27l7.66 1.52c-.26.76-.74 1.74-1.65 2.36-1.03.7-2.46.8-4.25.3l-1.61-.45-.08-3.3Z"/>
</svg>
