<svg viewBox="0 0 64 64" xmlns="http://www.w3.org/2000/svg">
  <path d="m38.44 30.68-1.58-.44.02.86 3.32 6.73 6.2 10.25 3.28 15.95H37.49l-1.43-8.7-4.52-5.35-4.86 7.67-17.99 4.32-1.72-11.48 11.65-2.68 3.25-6.97c-6.32-3.17-6.51-10.13-5.71-13.43l.09-.25 3.8-8.19c2.06-4.85 7.34-4.15 9.85-3.09 1.95.73 3.34 1.66 4.33 2.6l16.48 3.27-.12 1.24c-.02.18-.49 4.54-3.87 6.86-1.34.92-2.91 1.38-4.7 1.38-1.11 0-2.31-.18-3.58-.53Zm-3.25-17.11c3.73 0 6.77-3.04 6.77-6.77S38.92.03 35.19.03s-6.77 3.04-6.77 6.77 3.04 6.77 6.77 6.77"/>
</svg>
