<svg viewBox="0 0 32 32" xmlns="http://www.w3.org/2000/svg">
  <path d="M17.51 7.32c2.02 0 3.66-1.64 3.66-3.66S19.53 0 17.51 0s-3.66 1.64-3.66 3.66 1.64 3.66 3.66 3.66m0-5.32c.91 0 1.66.74 1.66 1.66s-.74 1.66-1.66 1.66-1.66-.74-1.66-1.66S16.59 2 17.51 2m3.38 14.52c.95 0 1.78-.25 2.5-.73 1.79-1.23 2.04-3.52 2.05-3.62l.09-.9-8.33-1.65c-.53-.48-1.23-.93-2.16-1.28-1.34-.56-4.16-.93-5.27 1.69l-1.88 4.04-.06.18c-.4 1.65-.32 5.06 2.62 6.79l-1.37 2.35-5.83 1.37.94 6.3 9.23-2.24 2.33-3.54 1.9 2.25.73 4.48h6.68l-1.72-8.35-3.09-4.38-1.54-3.12.32.09q.99.27 1.86.27m1.35-2.38c-.64.43-1.54.49-2.68.18l-.95-.27-.05-2.07v-.06l4.64.92c-.17.45-.47.96-.96 1.29Zm-.78 10.33L22.6 30h-2.53l-.55-3.34-2.7-3.2.82-1.35-1.71-1.04-1.63 2.7h.02l-2.15 3.28-6.34 1.54-.35-2.31 4.88-1.14 2.37-4.08 2.3-7.28-1.91-.6-1.87 5.99c-1.99-1.35-1.61-3.88-1.51-4.38l1.84-3.97c.62-1.45 2.47-.74 2.71-.64 1.84.69 2.22 1.74 2.27 1.93l.11 4.43 1.82 3.68 2.97 4.24Z"/>
</svg>
