<svg viewBox="0 0 16 16" xmlns="http://www.w3.org/2000/svg">
  <path fill="none" d="M0 0h16v16H0z"/>
  <path fill="#1e1e1c" d="M14.74 7.77h-.25v-.03c0-.43-.13-.83-.34-1.17C15.25 5.98 16 4.83 16 3.5c.01-1.93-1.56-3.5-3.49-3.5S9.17 1.44 9.04 3.25h-.91c-.42-.79-1.24-1.34-2.2-1.34s-1.78.55-2.2 1.34H2.25c-1.1 0-2.02.81-2.2 1.87H0v8.63C0 14.99 1.01 16 2.25 16h9.99c1.23 0 2.23-.99 2.24-2.22h.25c.69 0 1.25-.56 1.25-1.25v-3.5c0-.69-.56-1.25-1.25-1.25Zm-.25 4.51h-4.5v-3h4.5zM12.51 1.5c1.1 0 2 .9 2 2s-.9 2-2 2-2-.9-2-2 .9-2 2-2m-2.42 4.52H7.82c.35-.41.57-.93.59-1.5h.77c.18.58.49 1.09.91 1.5M5.93 3.41c.55 0 1 .45 1 1s-.45 1-1 1-1-.45-1-1 .45-1 1-1M1.6 5.27c0-.41.34-.75.75-.75h1.09c.03.57.25 1.09.59 1.5H2.34c-.41 0-.75-.34-.75-.75Zm9.2 5.5c0-.54.44-.98.98-.98s.98.44.98.98-.44.98-.98.98-.98-.44-.98-.98"/>
</svg>
