<svg viewBox="0 0 64 64" xmlns="http://www.w3.org/2000/svg">
  <path fill="#1e1e1c" d="M62.12 36.31h-1.55v-7.76c0-1.69-1.02-3.13-2.47-3.77a13.56 13.56 0 0 0 5.89-11.19C64 6.09 57.9 0 50.42 0S36.84 6.1 36.84 13.59c0 .77.08 1.53.2 2.27h-4.11c-1.44-2.53-4.16-4.24-7.27-4.24s-5.83 1.71-7.27 4.24H4.13A4.123 4.123 0 0 0 0 19.98v12.96h.01v26.93C.01 62.15 1.86 64 4.14 64h52.31c2.27 0 4.13-1.85 4.13-4.13v-6.8h1.55c1.03 0 1.88-.84 1.88-1.88V38.18c0-1.03-.84-1.88-1.88-1.88ZM50.42 2.75c5.97 0 10.83 4.86 10.83 10.84s-4.86 10.84-10.83 10.84-10.83-4.86-10.83-10.84S44.45 2.75 50.42 2.75M37.8 18.6c.93 2.33 2.48 4.33 4.45 5.82h-9.51c.81-1.29 1.28-2.8 1.28-4.43 0-.47-.05-.94-.12-1.39zm-12.15-4.24c3.1 0 5.63 2.52 5.63 5.63 0 1.8-.85 3.4-2.17 4.43H22.2a5.6 5.6 0 0 1-2.17-4.43c0-3.1 2.52-5.63 5.63-5.63ZM2.76 19.98c0-.76.62-1.38 1.38-1.38h13.27a8.3 8.3 0 0 0 1.16 5.82H4.13c-.48 0-.94.1-1.37.25zm55.06 39.89c0 .76-.62 1.38-1.38 1.38H4.13c-.76 0-1.38-.62-1.38-1.38V28.51c.02-.74.63-1.33 1.37-1.33h52.31c.76 0 1.38.62 1.38 1.38v7.76h-12.7c-1.03 0-1.88.84-1.88 1.88v13.01c0 1.03.84 1.88 1.88 1.88h12.7v6.8Zm3.43-9.55H46V39.06h15.25zm-11.79-5.63c0-1.27 1.03-2.31 2.3-2.31s2.3 1.03 2.3 2.31S53.03 47 51.76 47s-2.3-1.03-2.3-2.31"/>
</svg>
