<svg viewBox="0 0 24 24" xmlns="http://www.w3.org/2000/svg">
  <path fill="none" d="M0-.02h24v24H0z"/>
  <path fill="#1e1e1c" d="M22.63 12.15h-.64v-.8c0-.74-.32-1.41-.82-1.89C22.84 8.65 24 6.95 24 4.98c0-2.76-2.25-5-5-5s-5 2.24-5 5c0 .13.03.26.04.39h-1.32c-.64-.85-1.64-1.4-2.78-1.4s-2.14.56-2.78 1.4H2.37A2.38 2.38 0 0 0 0 7.66v13.68c0 1.45 1.18 2.63 2.62 2.63h16.74c1.45 0 2.62-1.18 2.62-2.63v-.7h.64c.76 0 1.37-.62 1.37-1.38v-5.75c0-.76-.62-1.38-1.37-1.38ZM19 1.73c1.79 0 3.25 1.46 3.25 3.25S20.79 8.23 19 8.23s-3.25-1.46-3.25-3.25S17.21 1.73 19 1.73m-4.54 5.32c.31.68.78 1.27 1.35 1.75h-2.64c.17-.41.27-.86.27-1.33 0-.14-.03-.28-.04-.42h1.07ZM9.93 5.72c.96 0 1.75.79 1.75 1.75s-.79 1.75-1.75 1.75-1.75-.79-1.75-1.75.79-1.75 1.75-1.75m-8.08 2.2c0-.48.39-.88.87-.88h3.74c-.02.14-.04.27-.04.42 0 .47.1.92.27 1.33H2.72c-.48 0-.87-.39-.87-.88Zm20.4 10.98H16v-5h6.25zm-5.04-2.5c0-.67.55-1.22 1.22-1.22s1.22.55 1.22 1.22-.55 1.22-1.22 1.22-1.22-.55-1.22-1.22"/>
</svg>
