<svg viewBox="0 0 32 32" xmlns="http://www.w3.org/2000/svg">
  <path fill="#1e1e1c" d="M30.54 17.05h-1.58v-2.06c0-.99-.49-1.86-1.23-2.4a6.5 6.5 0 0 0 4.23-6.09c0-3.59-2.91-6.5-6.48-6.5S19 2.92 19 6.5c0 .34.03.68.09 1.01h-2.01c-.82-1.13-2.13-1.87-3.62-1.87s-2.81.74-3.62 1.87h-6.8c-1.65-.01-3 1.34-3 2.99v18.49a3 3 0 0 0 2.99 3h22.93a3 3 0 0 0 2.99-3v-1.94h1.58c.83 0 1.5-.67 1.5-1.5v-7c0-.83-.67-1.5-1.5-1.5ZM25.48 1.99c2.48 0 4.49 2.02 4.49 4.5s-2.01 4.5-4.49 4.5-4.49-2.02-4.49-4.5 2.01-4.5 4.49-4.5m-5.43 8.05c.53.81 1.23 1.49 2.06 2H17.5c.27-.58.43-1.22.43-1.9 0-.03 0-.07-.01-.1zm-6.61-2.41c1.38 0 2.49 1.12 2.49 2.5s-1.12 2.5-2.49 2.5-2.49-1.12-2.49-2.5 1.12-2.5 2.49-2.5m-11 3.41c0-.55.45-1 1-1h5.53s-.01.07-.01.1c0 .68.16 1.32.43 1.9H3.43c-.55 0-1-.45-1-1Zm27.6 14.01h-6.98v-6h6.98zm-5.75-3a1.34 1.34 0 1 1 2.68 0 1.34 1.34 0 0 1-2.68 0"/>
</svg>
