<svg viewBox="0 0 16 16" xmlns="http://www.w3.org/2000/svg">
  <path fill="#1e1e1c" d="M14.74 7.77h-.25v-.03c0-.43-.13-.83-.34-1.17C15.25 5.98 16 4.83 16 3.5c.01-1.93-1.56-3.5-3.49-3.5S9.17 1.44 9.04 3.25h-.91c-.42-.79-1.24-1.34-2.2-1.34s-1.78.55-2.2 1.34H2.25c-1.1 0-2.02.81-2.2 1.87H0v8.63C0 14.99 1.01 16 2.25 16h9.99c1.23 0 2.23-.99 2.24-2.22h.25c.69 0 1.25-.56 1.25-1.25v-3.5c0-.69-.56-1.25-1.25-1.25ZM8.39 4.75h.86c.1.26.23.51.38.74H8.16c.11-.23.19-.48.22-.74Zm4.12-3.25c1.1 0 2 .9 2 2s-.9 2-2 2-2-.9-2-2 .9-2 2-2M5.93 3.41c.55 0 1 .45 1 1s-.45 1-1 1-1-.45-1-1 .45-1 1-1M2.26 4.75h1.21c.04.26.11.51.22.74H1.51c0-.41.34-.74.75-.74m9.99 9.75H2.26c-.41 0-.75-.34-.75-.75v-6c0-.41.34-.75.75-.75h9.99c.41 0 .75.34.75.75v.03H9.75c-.69 0-1.25.56-1.25 1.25v3.5c0 .69.56 1.25 1.25 1.25h3.24c-.02.4-.34.72-.74.72m2.24-2.22h-4.5v-3h4.5zm-3.69-1.51c0-.54.44-.98.98-.98s.98.44.98.98-.44.98-.98.98-.98-.44-.98-.98"/>
</svg>
