<svg viewBox="0 0 64 64" xmlns="http://www.w3.org/2000/svg">
  <path d="M63.14 49 36.78 6.73c-1.1-1.77-2.94-2.65-4.78-2.65s-3.68.88-4.78 2.65L.86 49c-2.33 3.74.36 8.58 4.78 8.58h52.73c4.42 0 7.11-4.84 4.78-8.58Zm-2.27 4.36c-.25.44-.99 1.47-2.51 1.47H5.64c-1.53 0-2.26-1.03-2.51-1.47s-.73-1.61.07-2.91L29.56 8.19c.54-.86 1.42-1.35 2.44-1.35s1.9.49 2.44 1.35L60.8 50.46c.81 1.29.32 2.46.07 2.91ZM30.18 39.23l-1.06-8.25v-6.27h5.77v6.27l-1.06 8.25h-3.66ZM35.34 44c0 1.7-1.31 3.1-3.33 3.1s-3.34-1.41-3.34-3.1 1.31-3.07 3.34-3.07 3.33 1.44 3.33 3.07"/>
</svg>
