<svg viewBox="0 0 64 64" xmlns="http://www.w3.org/2000/svg">
  <path d="M64 51.87c0-.47-.07-.95-.21-1.43-.14-.49-.35-.98-.65-1.44L36.78 6.73a5.7 5.7 0 0 0-2.11-1.99c-.41-.22-.85-.39-1.3-.5s-.91-.17-1.37-.17-.92.06-1.37.17-.88.28-1.3.5c-.83.44-1.56 1.1-2.11 1.99L.86 49c-.29.47-.5.95-.65 1.44-.14.49-.21.99-.21 1.48 0 .81.18 1.61.51 2.33.31.69.76 1.32 1.32 1.84.2.18.4.35.63.5.15.11.31.2.47.29.79.43 1.7.7 2.71.7h52.73c3.31 0 5.66-2.72 5.64-5.66v-.05ZM29.89 24.7h4.23v6.24l-.83 8.83h-2.57l-.83-8.83zM32 47.04c-1.51 0-2.69-1.18-2.69-2.66s1.19-2.62 2.69-2.62 2.69 1.18 2.69 2.62-1.19 2.66-2.69 2.66"/>
</svg>
