<svg viewBox="0 0 40 40" xmlns="http://www.w3.org/2000/svg">
  <path d="M39.46 30.62 22.99 4.2C22.3 3.1 21.15 2.54 20 2.54s-2.3.55-2.99 1.66L.54 30.62c-1.46 2.34.23 5.36 2.99 5.36h32.95c2.76 0 4.44-3.03 2.99-5.36Zm-1.88 2.47c-.11.19-.43.65-1.1.65H3.52c-.67 0-1-.45-1.1-.65s-.32-.71.03-1.28L18.93 5.39c.33-.54.86-.59 1.07-.59s.74.06 1.07.59l16.48 26.42c.35.57.14 1.08.03 1.28m-18.72-8.58-.66-5.16v-3.92h3.61v3.92l-.66 5.16zm3.23 2.98c0 1.06-.82 1.94-2.09 1.94s-2.08-.88-2.08-1.94.82-1.92 2.08-1.92 2.09.9 2.09 1.92"/>
</svg>
