<svg viewBox="0 0 24 24" xmlns="http://www.w3.org/2000/svg">
  <path d="M22.1 0H1.85C.82 0-.03.85-.03 1.89v22.12h24V1.89C23.97.85 23.13 0 22.1 0m.12 1.89v3.89H8.72V1.76H22.1c.07 0 .13.06.13.13ZM1.85 1.76h5.12v4.01H1.73V1.89c0-.07.06-.13.13-.13Zm-.12 20.5V7.52h20.5v14.73H1.73ZM11.96 8.55c-3.49 0-6.33 2.84-6.33 6.33s2.84 6.33 6.33 6.33 6.33-2.84 6.33-6.33-2.84-6.33-6.33-6.33m0 10.9a4.57 4.57 0 0 1-4.47-3.63h1.95c.48 0 .88-.39.88-.88s-.39-.88-.88-.88H7.47c.38-2.14 2.25-3.77 4.49-3.77 2.52 0 4.57 2.05 4.57 4.58s-2.05 4.57-4.57 4.57Zm6.65-15.76a1.071 1.071 0 0 1 2.14 0 1.071 1.071 0 0 1-2.14 0m-4.27 0a1.071 1.071 0 0 1 2.14 0 1.071 1.071 0 0 1-2.14 0m-9.12.95H3.47V2.89h1.75z"/>
</svg>
