<svg viewBox="0 0 32 32" xmlns="http://www.w3.org/2000/svg">
  <path d="M6.47 7.79V.02h-4.5c-1.1 0-2 .9-2 2v5.77zM2.39 2.91h2v2h-2zm6.08 4.88h23.5V2.02c0-1.1-.9-2-2-2H8.47zm19.84-5.31a1.261 1.261 0 1 1-.002 2.522 1.261 1.261 0 0 1 .002-2.522m-5.06 0a1.261 1.261 0 1 1-.002 2.522 1.261 1.261 0 0 1 .002-2.522m-.95 17.41c0 3.5-2.85 6.35-6.35 6.35a6.35 6.35 0 0 1-6.25-5.25h2.84c.55 0 1-.45 1-1s-.45-1-1-1H9.67c.44-3.07 3.08-5.45 6.28-5.45 3.5 0 6.35 2.85 6.35 6.35M-.03 9.79v22.23h32V9.79zm15.98 18.45c-4.6 0-8.35-3.75-8.35-8.35s3.75-8.35 8.35-8.35 8.35 3.75 8.35 8.35-3.75 8.35-8.35 8.35"/>
</svg>
