<svg viewBox="0 0 64 64" xmlns="http://www.w3.org/2000/svg">
  <path d="M61.59 0H2.34C1.03 0-.03 1.06-.03 2.37v61.62h64V2.37C63.97 1.06 62.9 0 61.59 0m-.37 15.85H17.38V2.75h43.83v13.11ZM14.63 2.75v13.11H2.72V2.75h11.92ZM2.72 61.25V18.6h58.5v42.64H2.72Zm29.21-39.33c-9.91 0-17.97 8.06-17.97 17.96s8.06 17.97 17.97 17.97S49.9 49.79 49.9 39.88s-8.06-17.96-17.97-17.96m0 33.18c-7.85 0-14.33-5.98-15.13-13.62h7c.76 0 1.38-.62 1.38-1.38s-.62-1.38-1.38-1.38h-7.03c.59-7.85 7.16-14.06 15.16-14.06s15.22 6.83 15.22 15.21-6.83 15.22-15.22 15.22ZM51.29 9.08a1.9 1.9 0 1 1 3.8 0 1.9 1.9 0 1 1-3.8 0m-7.63 0a1.9 1.9 0 1 1 3.8 0 1.9 1.9 0 1 1-3.8 0m-7.62 0a1.9 1.9 0 1 1 3.8 0 1.9 1.9 0 1 1-3.8 0M10.5 10.66H6.85V7.91h3.65z"/>
</svg>
