<svg viewBox="0 0 40 40" xmlns="http://www.w3.org/2000/svg">
  <path d="M37.84.01H2.1C.92.01-.03.96-.03 2.14v37.87h40V2.14c0-1.18-.95-2.13-2.13-2.13m-.12 9.78H11.25V2.26h26.47zM9 2.26v7.53H2.22V2.26zm-6.78 35.5V12.04h35.5v25.72zm17.72-24.24c-6.26 0-11.35 5.09-11.35 11.35s5.09 11.35 11.35 11.35 11.35-5.09 11.35-11.35-5.09-11.35-11.35-11.35m0 20.46c-4.59 0-8.39-3.42-9.01-7.84h3.99c.62 0 1.13-.5 1.13-1.13s-.5-1.13-1.13-1.13h-4.04c.5-4.56 4.36-8.11 9.05-8.11 5.02 0 9.1 4.08 9.1 9.1s-4.08 9.1-9.1 9.1ZM31.6 5.89a1.451 1.451 0 0 1 2.9 0 1.451 1.451 0 0 1-2.9 0m-5.83 0a1.451 1.451 0 0 1 2.9 0 1.451 1.451 0 0 1-2.9 0M6.73 7.14H4.48V4.89h2.25z"/>
</svg>
