<svg viewBox="0 0 16 16" xmlns="http://www.w3.org/2000/svg">
  <path d="M14.77 0H1.27C.58 0 .02.57.02 1.26v14.75h16V1.26c0-.69-.56-1.26-1.25-1.26m-.25 3.76H6.66V1.51h7.86v2.26ZM5.17 1.51v2.26H1.52V1.51h3.64Zm-3.65 13V5.26h13v9.24h-13Zm6.49-8.93c-2.37 0-4.3 1.93-4.3 4.3s1.93 4.3 4.3 4.3 4.3-1.93 4.3-4.3-1.93-4.3-4.3-4.3m0 7.1c-1.27 0-2.33-.85-2.67-2h1.03c.41 0 .75-.34.75-.75s-.34-.75-.75-.75H5.31a2.8 2.8 0 0 1 2.7-2.1c1.54 0 2.8 1.26 2.8 2.8s-1.26 2.8-2.8 2.8m-3.98-9.3h-1.5v-1.5h1.5zm8.14-.8c0-.48.39-.88.88-.88s.88.39.88.88-.39.88-.88.88-.88-.39-.88-.88"/>
</svg>
