<svg viewBox="0 0 24 24" xmlns="http://www.w3.org/2000/svg">
  <path d="M10.51 9.01c0-.83.67-1.5 1.5-1.5s1.5.67 1.5 1.5-.67 1.5-1.5 1.5-1.5-.67-1.5-1.5M24.01 24H0v-1.75h6.67l1.02-5.33A9.02 9.02 0 0 1 3 9.01C3.01 4.32 6.6.47 11.19.05c.27-.03.55-.04.83-.04s.55.01.83.04c4.58.42 8.17 4.27 8.17 8.96 0 3.41-1.9 6.38-4.69 7.91l1.02 5.33h6.67V24ZM12.03 1.76H12c-.46 0-.92.05-1.39.15v2.47c.45-.14.92-.22 1.42-.22s.95.08 1.38.21V1.91c-.47-.1-.93-.15-1.39-.15ZM8.96 9.01c0 1.68 1.37 3.05 3.05 3.05s3.05-1.37 3.05-3.05-1.37-3.05-3.05-3.05-3.05 1.37-3.05 3.05m3.05 7.26c4 0 7.25-3.25 7.25-7.26 0-2.87-1.68-5.35-4.1-6.52v2.93c1 .88 1.65 2.16 1.65 3.6a4.801 4.801 0 0 1-9.6 0c0-1.44.65-2.72 1.65-3.6V2.49c-2.42 1.18-4.1 3.65-4.1 6.52 0 4 3.25 7.26 7.25 7.26m-3.55 5.98h7.1l-.83-4.35h-1.34c-.45.07-.91.12-1.38.12s-.93-.05-1.38-.12H9.29z"/>
</svg>
