<svg viewBox="0 0 16 16" xmlns="http://www.w3.org/2000/svg">
  <path d="M8.01 7.72c.94 0 1.7-.76 1.7-1.7s-.76-1.7-1.7-1.7-1.7.76-1.7 1.7.76 1.7 1.7 1.7m0-2.7c.55 0 1 .45 1 1s-.45 1-1 1-1-.45-1-1 .45-1 1-1m0-3.5c.2 0 .4.02.6.05v1.27c-.19-.03-.39-.05-.59-.05-.21 0-.42.02-.61.06V1.58c.2-.03.4-.05.6-.05Zm8 14.48H.02v-2.5h4.69l.42-2.23a6 6 0 0 1-3.11-5.26C2.01 3.45 3.64 1.26 5.91.41v3.22c-.67.59-1.1 1.44-1.1 2.4 0 1.77 1.43 3.2 3.2 3.2s3.2-1.43 3.2-3.2c0-.96-.43-1.81-1.1-2.4V.41c2.28.85 3.9 3.04 3.9 5.61 0 2.27-1.26 4.24-3.11 5.26l.42 2.23h4.69v2.5Z"/>
</svg>
