<svg viewBox="0 0 24 24" xmlns="http://www.w3.org/2000/svg">
  <path d="M12.01 1.76c.46 0 .93.05 1.4.15v2.46c-.44-.13-.9-.21-1.38-.21s-.98.08-1.42.22V1.92c.47-.1.94-.15 1.4-.15ZM8.96 9.02c0-1.68 1.37-3.05 3.05-3.05s3.05 1.37 3.05 3.05-1.37 3.05-3.05 3.05-3.05-1.37-3.05-3.05m1.55 0c0 .83.67 1.5 1.5 1.5s1.5-.67 1.5-1.5-.67-1.5-1.5-1.5-1.5.67-1.5 1.5m13.5 11.97H17.1l-.78-4.07a8.8 8.8 0 0 0 2.63-2.18 8.8 8.8 0 0 0 1.35-2.22c.23-.54.4-1.1.52-1.69.06-.29.11-.59.14-.89s.05-.61.05-.92a8.9 8.9 0 0 0-1.54-5.03c-.32-.48-.69-.92-1.1-1.33-.9-.9-2-1.6-3.21-2.06v4.83c1 .88 1.65 2.16 1.65 3.59a4.801 4.801 0 0 1-9.6 0c0-1.44.65-2.71 1.65-3.59V.59a9.03 9.03 0 0 0-4.31 3.39c-.16.24-.31.49-.45.74a9 9 0 0 0-1.09 4.29c0 .31.02.62.05.92s.08.6.14.89c.12.59.3 1.15.52 1.69a8.8 8.8 0 0 0 1.35 2.22 9.2 9.2 0 0 0 2.63 2.18l-.78 4.07H.01v3h6.34l11.33.01 6.34-.01v-3Z"/>
</svg>
