<svg viewBox="0 0 40 40" xmlns="http://www.w3.org/2000/svg">
  <path d="M17.76 15.02c0-1.24 1.01-2.25 2.25-2.25s2.25 1.01 2.25 2.25-1.01 2.25-2.25 2.25-2.25-1.01-2.25-2.25m22.25 24.99h-40v-2.25h10.97l1.76-9.61c-4.61-2.56-7.73-7.48-7.73-13.12C5.01 7.2 11 .78 18.64.08c.45-.05.91-.07 1.38-.07s.92.02 1.38.07c7.64.7 13.62 7.12 13.62 14.94 0 5.65-3.12 10.56-7.73 13.12l1.76 9.61h10.97V40ZM20.02 2.27c-.98 0-1.99.13-3 .39v4.95c.93-.38 1.94-.59 3-.59s2.08.21 3 .59V2.66c-1.01-.26-2.02-.39-3-.39m-5.76 12.75c0 3.17 2.58 5.75 5.75 5.75s5.75-2.58 5.75-5.75c0-1.67-.72-3.18-1.86-4.23-1.15-.8-2.48-1.46-3.86-1.46-1.64 0-3.1.89-4.35 1.9a5.72 5.72 0 0 0-1.43 3.79m5.75 12.76c7.03 0 12.75-5.72 12.75-12.76 0-5.16-3.08-9.6-7.5-11.61V9a8 8 0 0 1 2.75 6.03c0 4.42-3.58 8.01-8 8.01s-8-3.58-8-8.01c0-2.41 1.07-4.56 2.75-6.03V3.41c-4.41 2.01-7.5 6.45-7.5 11.61 0 7.04 5.72 12.76 12.75 12.76m-6.74 9.98h13.48l-1.58-8.65c-1.61.59-3.34.93-5.16.93s-3.55-.34-5.16-.93z"/>
</svg>
