<svg viewBox="0 0 48 48" xmlns="http://www.w3.org/2000/svg">
  <path d="M22.1 19.95a2.693 2.693 0 0 1 1.91-4.6 2.7 2.7 0 0 1 2.7 2.69 2.7 2.7 0 0 1-4.61 1.91m25.91 25.64v2.49h-48v-2.49h13.1l2.17-11.84c-5.53-3.07-9.27-8.95-9.27-15.7C6.01 8.68 13.19 1 22.36.17c.54-.05 1.09-.08 1.65-.08s1.11.03 1.65.08c9.17.83 16.35 8.51 16.35 17.88 0 6.76-3.74 12.64-9.27 15.7l2.17 11.84zM25.25 2.64c-.41-.03-.82-.06-1.24-.06s-.83.03-1.24.06c-.85.08-1.71.22-2.57.45v6.16c.67-.29 1.38-.5 2.11-.63.56-.12 1.13-.19 1.73-.19.65 0 1.28.09 1.89.23h.02c.05.01.09.02.14.04.6.13 1.18.32 1.73.55V3.1c-.86-.23-1.72-.38-2.57-.45Zm-8.34 15.41c0 3.91 3.18 7.08 7.1 7.08s7.1-3.18 7.1-7.08c0-2.28-1.09-4.3-2.77-5.6-.94-.61-1.96-1.12-3.04-1.36-.42-.08-.85-.12-1.3-.12-.38 0-.76.04-1.12.1-1.48.31-2.81 1.14-3.99 2.08-1.23 1.27-1.99 3-1.99 4.9Zm7.1 15.46c8.55 0 15.5-6.94 15.5-15.47 0-6.29-3.78-11.7-9.19-14.12v6.9a9.52 9.52 0 0 1 3.29 7.21c0 5.29-4.3 9.58-9.6 9.58s-9.6-4.29-9.6-9.58a9.54 9.54 0 0 1 3.29-7.21V3.93c-5.41 2.42-9.19 7.83-9.19 14.12 0 8.53 6.95 15.47 15.5 15.47Zm-6.38 1.31-1.95 10.63h16.66l-1.95-10.63c-1.99.75-4.13 1.18-6.38 1.18s-4.4-.43-6.38-1.18"/>
</svg>
