<svg viewBox="0 0 32 32" xmlns="http://www.w3.org/2000/svg">
  <path d="M16.04 5.44c-.8 0-1.54.16-2.23.43V2.26c.74-.18 1.48-.27 2.2-.27s1.46.09 2.2.27v3.6c-.68-.26-1.41-.42-2.18-.42Zm-4.43 6.55a4.4 4.4 0 1 1 8.8 0 4.4 4.4 0 0 1-8.8 0m2.4 0c0 1.1.9 2 2 2s2-.9 2-2-.9-2-2-2-2 .9-2 2m8.92 16.49-1.1-6c.64-.36 1.25-.77 1.81-1.23a12.04 12.04 0 0 0 3.83-5.69 12.05 12.05 0 0 0 0-7.14c-.47-1.5-1.22-2.88-2.2-4.06a11.9 11.9 0 0 0-5.06-3.6v6.41a6.38 6.38 0 0 1 2.2 4.82c0 3.53-2.87 6.4-6.4 6.4s-6.4-2.87-6.4-6.4c0-1.92.85-3.64 2.2-4.82V.76c-4.55 1.71-7.8 6.08-7.8 11.23a11.94 11.94 0 0 0 2.74 7.63 12 12 0 0 0 3.44 2.86l-1.1 6H.01v3.5h32v-3.5z"/>
</svg>
