<svg viewBox="0 0 48 48" xmlns="http://www.w3.org/2000/svg">
  <path d="M24.01 25.13c3.91 0 7.1-3.19 7.1-7.1 0-2.28-1.09-4.31-2.77-5.61-.94-.62-1.96-1.12-3.04-1.36-.42-.08-.85-.12-1.3-.12-.38 0-.76.04-1.12.1-1.48.31-2.81 1.14-3.99 2.09a7.07 7.07 0 0 0-1.99 4.91c0 3.91 3.18 7.1 7.1 7.1Zm0-9.8a2.701 2.701 0 0 1 1.91 4.61c-.49.49-1.16.79-1.91.79s-1.42-.3-1.91-.79c-.24-.24-.44-.54-.58-.86s-.21-.68-.21-1.05c0-1.49 1.21-2.7 2.7-2.7m24 28.18v4.5h-48v-4.5H13.5l1.78-9.74c-.46-.25-.91-.52-1.34-.81a17.6 17.6 0 0 1-2.66-2.2 18.7 18.7 0 0 1-2.2-2.66c-.65-.96-1.2-1.98-1.66-3.06-.91-2.15-1.41-4.52-1.41-7.01 0-3.73 1.13-7.19 3.07-10.06S13.77 2.81 17 1.45c.23-.1.47-.17.7-.26v9.62a9.55 9.55 0 0 0-3.29 7.23c0 5.3 4.3 9.6 9.6 9.6s9.6-4.3 9.6-9.6c0-2.89-1.28-5.47-3.29-7.23V1.19c6.83 2.56 11.69 9.12 11.69 16.84 0 2.49-.5 4.85-1.41 7.01a18.1 18.1 0 0 1-6.52 7.92c-.43.29-.88.56-1.34.81l1.78 9.74zm-24-40.98c1.25 0 2.52.17 3.81.52v6.17c-.55-.24-1.13-.42-1.73-.56a1 1 0 0 1-.14-.04h-.01c-.61-.14-1.24-.23-1.89-.23-.6 0-1.17.08-1.73.19-.74.13-1.45.34-2.11.63V3.05c1.29-.34 2.56-.52 3.81-.52Z"/>
</svg>
