<svg viewBox="0 0 40 40" xmlns="http://www.w3.org/2000/svg">
  <path fill="#1e1e1c" d="M37.37-.02H2.63C1.18-.02 0 1.16 0 2.6v37.38h40V2.6c0-1.45-1.18-2.62-2.63-2.62M2.63 2.23h34.75c.21 0 .38.17.38.37v6.28H2.25V2.6c0-.21.17-.37.38-.37m-.38 35.5v-26.6h35.5v26.6zM4.5 5.58c0-.82.67-1.48 1.48-1.48s1.48.66 1.48 1.48-.67 1.48-1.48 1.48S4.5 6.4 4.5 5.58m4.37 0c0-.82.67-1.48 1.48-1.48s1.48.66 1.48 1.48-.67 1.48-1.48 1.48-1.48-.66-1.48-1.48m10.48 19.14.22 12.27 10.74-23.22L7.07 24.5zm2.29 2.42-.08-4.63-4.63-.08 8.77-4.05z"/>
</svg>
