<svg viewBox="0 0 40 40" xmlns="http://www.w3.org/2000/svg">
  <path d="M14.51 22.24H25.7V11.01H14.51zm1.45-9.78h8.29v8.33h-8.29zm2.8 2.81h2.7v2.71h-2.7zM38.05.03H2.06c-1.11 0-2 .89-2 2v28.65a2 2 0 0 0 2 2h16v3.33H7.63v4.01h24.86v-4.01H22.06v-3.33h16a2 2 0 0 0 2-2V2.03a2 2 0 0 0-2-2Zm-6.77 11.08H28.5v1.88h2.78v2.81H28.5v1.88h2.78v2.81H28.5v1.88h2.78v2.81h-2.76v2.19h-2.8v-2.32h-1.87v2.32h-2.8v-2.32h-1.87v2.32h-2.8v-2.32h-1.87v2.32h-2.8v-2.19h-2.8v-2.81h2.8v-1.88h-2.8v-2.81h2.8V15.8h-2.8v-2.81h2.8v-1.88h-2.8V8.3h2.8V5.4h2.8v2.79h1.87V5.4h2.8v2.79h1.87V5.4h2.8v2.79h1.87V5.4h2.8v2.9h2.76z"/>
</svg>
