<svg viewBox="0 0 64 64" xmlns="http://www.w3.org/2000/svg">
  <path d="M62.28 0H1.78C.81 0 .03.78.03 1.75v48.86c0 .97.78 1.75 1.75 1.75h28.91v8.89H12.17V64h39.71v-2.75H33.44v-8.89h28.84c.97 0 1.75-.78 1.75-1.75V1.75c0-.97-.78-1.75-1.75-1.75m-1 49.61H2.78V2.75h58.5V49.6Zm-42.55-5.79h4.47V40.1h2.99v3.72h4.47V40.1h2.99v3.72h4.47V40.1h2.99v3.72h4.47V40.3h4.41v-4.5h-4.44v-3.02h4.44v-4.5h-4.44v-3.01h4.44v-4.5h-4.44v-3.01h4.44v-4.5h-4.41V8.61h-4.47v4.48h-2.99V8.61h-4.47v4.48h-2.99V8.61h-4.47v4.48H23.2V8.61h-4.47v4.66h-4.48v4.5h4.48v3.01h-4.48v4.5h4.48v3.01h-4.48v4.5h4.48v3.02h-4.48v4.5h4.48v3.52Zm4.47-26.23h17.88V35.6H23.2zm2.32 15.67h13.25V19.91H25.52zm4.47-8.84h4.31v4.34h-4.31z"/>
</svg>
