<svg viewBox="0 0 48 48" xmlns="http://www.w3.org/2000/svg">
  <path d="M17.41 26.77h13.42V13.24H17.41zm1.73-11.78h9.95v10.03h-9.95zM45.56.02h-43C1.18.02.06 1.14.06 2.53v34.33a2.5 2.5 0 0 0 2.5 2.5h19.25v4.16H9.16v4.51h29.8v-4.51H26.31v-4.16h19.25a2.5 2.5 0 0 0 2.5-2.5V2.53a2.5 2.5 0 0 0-2.5-2.5Zm-8.05 13.35h-3.33v2.26h3.33v3.38h-3.33v2.26h3.33v3.38h-3.33v2.27h3.33v3.38H34.2v2.64h-3.36v-2.79h-2.25v2.79h-3.36v-2.79h-2.24v2.79h-3.36v-2.79h-2.24v2.79h-3.36V30.3h-3.36v-3.38h3.36v-2.27h-3.36v-3.38h3.36v-2.26h-3.36v-3.38h3.36v-2.26h-3.36V9.99h3.36V6.5h3.36v3.36h2.24V6.5h3.36v3.36h2.24V6.5h3.36v3.36h2.25V6.5h3.36V10h3.31v3.38ZM22.5 18.38h3.24v3.26H22.5z"/>
</svg>
