<svg viewBox="0 0 24 24" xmlns="http://www.w3.org/2000/svg">
  <path d="M22.25 0H1.75C.79 0 0 .78 0 1.75V17.9c0 .97.78 1.75 1.75 1.75h9.42v2.59H4.58v1.75H19.5v-1.75h-6.59v-2.59h9.33c.97 0 1.75-.78 1.75-1.75V1.75A1.73 1.73 0 0 0 22.25 0m0 17.9H1.75V1.75h20.5zM7.04 16.45h1.68v-1.4h1.12v1.4h1.68v-1.4h1.12v1.4h1.68v-1.4h1.13v1.4h1.68v-1.32h1.66v-1.69h-1.67v-1.13h1.67v-1.69h-1.67V9.49h1.67V7.8h-1.67V6.67h1.67V4.98h-1.66V3.23h-1.68v1.68h-1.13V3.23h-1.68v1.68h-1.12V3.23H9.84v1.68H8.72V3.23H7.04v1.75H5.36v1.69h1.68V7.8H5.36v1.69h1.68v1.13H5.36v1.69h1.68v1.13H5.36v1.69h1.68zM8.72 6.6h6.72v6.76H8.72zm.87 5.89h4.98V7.48H9.59zm1.68-3.32h1.62v1.63h-1.62z"/>
</svg>
