<svg viewBox="0 0 16 16" xmlns="http://www.w3.org/2000/svg">
  <path d="M14.51 0H1.5C.67 0 0 .68 0 1.51V11.6c0 .83.67 1.5 1.49 1.5h5.8v1.41H3.05v1.5h10v-1.5H8.8V13.1h5.71c.82 0 1.49-.67 1.49-1.5V1.51C16.01.68 15.34 0 14.51 0m0 11.6H1.5V1.51h13.02V11.6Zm-9.79-.66h1.13v-.93h.75v.93h1.13v-.93h.75v.93h1.13v-.93h.75v.93h1.13v-.88h1.11V8.93h-1.12v-.75h1.12V7.05h-1.12V6.3h1.12V5.17h-1.12v-.75h1.12V3.29h-1.11V2.13h-1.13v1.12h-.75V2.13H8.48v1.12h-.75V2.13H6.6v1.12h-.75V2.13H4.72v1.16H3.59v1.13h1.13v.75H3.59V6.3h1.13v.75H3.59v1.13h1.13v.75H3.59v1.13h1.13zm1.12-6.56h4.5v4.5h-4.5zm.59 3.92h3.34V4.96H6.43zm1.12-2.21h1.09v1.09H7.55z"/>
</svg>
