<svg viewBox="0 0 40 40" xmlns="http://www.w3.org/2000/svg">
  <path d="M38.05 0H2.06a2 2 0 0 0-2 2v28.6c0 1.1.9 2 2 2h16.87v5.14H7.63v2.25h24.86v-2.25h-11.3V32.6h16.87a2 2 0 0 0 2-2V2c0-1.1-.9-2-2.01-2m-.25 30.36H2.31V2.25h35.5v28.1ZM11.71 27.3h2.8v-2.32h1.87v2.32h2.8v-2.32h1.87v2.32h2.8v-2.32h1.87v2.32h2.8v-2.19h2.76v-2.8H28.5v-1.88h2.78v-2.8H28.5v-1.87h2.78v-2.8H28.5v-1.87h2.78v-2.8h-2.76v-2.9h-2.8v2.79h-1.87V5.39h-2.8v2.79h-1.87V5.39h-2.8v2.79h-1.87V5.39h-2.8v2.9h-2.8v2.8h2.8v1.87h-2.8v2.8h2.8v1.87h-2.8v2.8h2.8v1.88h-2.8v2.8h2.8zm2.8-16.34H25.7v11.22H14.51zm1.45 9.76h8.29v-8.31h-8.29zm2.8-5.5h2.7v2.7h-2.7z"/>
</svg>
