<svg viewBox="0 0 48 48" xmlns="http://www.w3.org/2000/svg">
  <path d="M45.49.04h-43a2.5 2.5 0 0 0-2.5 2.5v34.22a2.5 2.5 0 0 0 2.5 2.5h20.25v6.29H9.09v2.5h29.8v-2.5H25.24v-6.29h20.25a2.5 2.5 0 0 0 2.5-2.5V2.54a2.5 2.5 0 0 0-2.5-2.5m0 36.71h-43V2.54h43v34.22Zm-31.51-3.89h3.36v-2.79h2.24v2.79h3.36v-2.79h2.24v2.79h3.36v-2.79h2.25v2.79h3.36v-2.63h3.31v-3.37h-3.33V24.6h3.33v-3.37h-3.33v-2.25h3.33v-3.37h-3.33v-2.25h3.33V9.99h-3.31V6.51h-3.36v3.35h-2.25V6.51h-3.36v3.35h-2.24V6.51h-3.36v3.35h-2.24V6.51h-3.36v3.48h-3.36v3.37h3.36v2.25h-3.36v3.37h3.36v2.25h-3.36v3.37h3.36v2.26h-3.36v3.37h3.36zm3.36-19.64h13.42v13.49H17.34zm1.73 11.74h9.95v-10h-9.95zm3.36-6.62h3.24v3.25h-3.24z"/>
</svg>
