<svg viewBox="0 0 40 40" xmlns="http://www.w3.org/2000/svg">
  <path d="M34.37 9.11h-9.8c.72-.95 1.14-2.12 1.14-3.4.01-3.13-2.55-5.68-5.68-5.68s-5.69 2.55-5.69 5.68c0 1.28.43 2.45 1.14 3.4H5.63L0 40.03h40zm-17.78-3.4c0-1.89 1.54-3.43 3.44-3.43s3.44 1.54 3.44 3.43c0 1.79-1.39 3.25-3.14 3.4h-.6c-1.75-.15-3.14-1.61-3.14-3.4m-9.08 5.65h11.93a5.7 5.7 0 0 0 1.18 0H32.5l4.81 26.42H2.7zm8.62 14.98 4.09 5.05h-4.09l-3.14-4.02v4.02H9.7V17.74h3.29v7.95l3.1-4.02h3.67zm11.19-3.42c-.55-.95-1.71-1.5-3.04-1.5-2.45 0-4.32 1.78-4.32 4.8s1.86 4.8 4.32 4.8c1.33 0 2.51-.57 3.04-1.48v.89c0 1.58-1.24 2.2-2.95 2.2-1.31 0-2.42-.36-3.41-.85v2.62c1.07.47 2.57.7 3.86.7 3.38 0 5.78-1.67 5.78-5.13v-8.31h-3.29v1.25Zm-1.96 5.7c-1.24 0-2.05-.91-2.05-2.39s.82-2.39 2.05-2.39 2.09.8 2.09 2.39-.88 2.39-2.09 2.39"/>
</svg>
