<svg viewBox="0 0 24 24" xmlns="http://www.w3.org/2000/svg">
  <path d="M16.49 15.35c0 .92-.51 1.39-1.21 1.39s-1.19-.53-1.19-1.39.47-1.39 1.19-1.39 1.21.46 1.21 1.39M24 24.01H0L3.38 5.38h5.55c-.31-.53-.5-1.13-.5-1.79C8.43 1.61 10.04 0 12.02 0s3.58 1.61 3.58 3.58c0 .65-.19 1.26-.5 1.79h5.52L24 24ZM11.43 3.59a.58.58 0 1 0 1.16 0 .58.58 0 0 0-1.16 0m.88 14.76-2.37-2.93 2.1-2.71H9.92l-1.79 2.33v-4.61h-1.9v7.91h1.9v-2.33l1.81 2.33h2.37Zm6.01-5.64h-1.9v.73c-.32-.55-.99-.87-1.76-.87-1.42 0-2.5 1.03-2.5 2.78s1.08 2.78 2.5 2.78c.77 0 1.45-.33 1.76-.86v.52c0 .91-.72 1.28-1.71 1.28-.76 0-1.4-.21-1.97-.5v1.52c.62.28 1.49.41 2.23.41 1.96 0 3.34-.97 3.34-2.97v-4.82Z"/>
</svg>
