<svg viewBox="0 0 32 32" xmlns="http://www.w3.org/2000/svg">
  <path d="M27.5 7.24h-7.66c.51-.74.81-1.64.81-2.6C20.64 2.1 18.57.02 16.02.02S11.4 2.09 11.4 4.64c0 .96.3 1.86.81 2.6h-7.7L0 32.02h32zm-14.1-2.6a2.631 2.631 0 0 1 5.26 0 2.62 2.62 0 0 1-2.39 2.6h-.46a2.61 2.61 0 0 1-2.39-2.6Zm-7.23 4.6h9.62c.08 0 .15.02.23.02s.15-.02.23-.02h9.58l3.78 20.79H2.39zm6.66 11.88 3.22 3.98h-3.22l-2.47-3.17v3.17H7.77V14.34h2.59v6.27l2.44-3.17h2.89zm8.81-2.69c-.44-.75-1.35-1.18-2.4-1.18-1.93 0-3.4 1.41-3.4 3.79s1.47 3.79 3.4 3.79c1.05 0 1.98-.45 2.4-1.17v.7c0 1.24-.97 1.74-2.32 1.74-1.03 0-1.9-.28-2.68-.67v2.07c.84.37 2.02.55 3.04.55 2.67 0 4.55-1.32 4.55-4.04v-6.56h-2.59v.99Zm-1.54 4.49c-.97 0-1.62-.72-1.62-1.89s.64-1.89 1.62-1.89 1.65.63 1.65 1.89-.69 1.89-1.65 1.89"/>
</svg>
