<svg viewBox="0 0 48 48" xmlns="http://www.w3.org/2000/svg">
  <path d="M32.93 31.47c0 1.91-1.05 2.87-2.51 2.87s-2.46-1.09-2.46-2.87.98-2.87 2.46-2.87 2.51.96 2.51 2.87M48 48.06H0l6.75-37.09h12.07a6.64 6.64 0 0 1-1.5-4.21c0-3.7 3.01-6.7 6.71-6.7s6.71 3 6.71 6.7c0 1.6-.56 3.06-1.5 4.21h12.01zM21.82 6.76a2.21 2.21 0 1 0 4.421-.001 2.21 2.21 0 0 0-4.421.001m2.44 30.9-4.9-6.06 4.36-5.6h-4.4l-3.72 4.83v-9.54h-3.95v16.37h3.95v-4.83l3.76 4.83zM36.72 26h-3.95v1.5c-.66-1.14-2.05-1.8-3.65-1.8-2.94 0-5.18 2.14-5.18 5.76s2.24 5.76 5.18 5.76c1.6 0 3.01-.68 3.65-1.77v1.07c0 1.89-1.48 2.64-3.54 2.64-1.57 0-2.9-.43-4.08-1.02v3.14c1.28.57 3.08.84 4.63.84 4.06 0 6.93-2 6.93-6.15V26Z"/>
</svg>
