<svg viewBox="0 0 16 16" xmlns="http://www.w3.org/2000/svg">
  <path d="M15.99 9.31c0-.95-1.08-1.74-2.59-2.06.74-1.23.88-2.46.25-3.1-.28-.28-.66-.41-1.11-.41-.52 0-1.12.19-1.74.51-.09-2.37-1.31-4.26-2.81-4.26S5.27 1.87 5.18 4.25c-.61-.33-1.22-.51-1.73-.51-.45 0-.84.13-1.11.41-.64.64-.49 1.87.25 3.1C1.07 7.57 0 8.36 0 9.31c0 .44.24.85.64 1.19-.05.23-.09.46-.09.7C.55 13.85 3.89 16 8 16s7.45-2.15 7.45-4.8c0-.24-.04-.47-.09-.7.4-.34.64-.75.64-1.19Zm-4 .71c-.57 0-1.02-.09-1.4-.2.58-.27 1.17-.68 1.72-1.21 1.17.07 1.93.45 2.14.69-.24.26-1.09.72-2.46.72m-4.17-.11c.05-.04.12-.06.17-.11.05.05.12.07.17.11.29.57.97 1.03 1.88 1.32-.57.45-1.27.73-2.05.73s-1.48-.28-2.05-.73c.91-.28 1.59-.75 1.88-1.32m4.72-4.67h.02c.01.36-.27 1.28-1.23 2.24-.84.84-1.74 1.23-2.22 1.23h-.02c-.01-.36.27-1.28 1.23-2.24.84-.84 1.74-1.23 2.22-1.23M7.99 1.5c.47 0 1.33 1.15 1.33 3.03 0 .32-.03.62-.08.9a6.3 6.3 0 0 0-1.25 1.74 6.3 6.3 0 0 0-1.25-1.74c-.05-.28-.08-.57-.08-.9 0-1.88.86-3.03 1.33-3.03M3.45 5.24c.48 0 1.38.38 2.22 1.23.96.96 1.25 1.89 1.23 2.24h-.02c-.48 0-1.38-.38-2.22-1.23-.96-.96-1.25-1.89-1.23-2.24zm.21 3.36c.56.55 1.16.96 1.75 1.23-.38.11-.85.19-1.42.19-1.37 0-2.22-.46-2.46-.72.22-.24.96-.64 2.13-.7m4.33 5.9c-3.49 0-5.92-1.72-5.95-3.27.58.18 1.24.29 1.95.29h.13c.89 1.18 2.29 1.94 3.87 1.94s2.98-.77 3.87-1.94h.13c.71 0 1.37-.11 1.95-.29-.03 1.55-2.46 3.27-5.95 3.27"/>
</svg>
