<svg viewBox="0 0 48 48" xmlns="http://www.w3.org/2000/svg">
  <path d="M47.99 27.92c0-2.84-3.22-5.25-7.74-6.21 2.2-3.68 2.61-7.36.71-9.27-.83-.83-1.98-1.22-3.33-1.22-1.55 0-3.36.53-5.19 1.51C32.17 5.63 28.5 0 23.99 0s-8.18 5.63-8.45 12.74c-1.83-.97-3.63-1.51-5.19-1.51-1.35 0-2.51.39-3.33 1.22-1.9 1.9-1.49 5.59.71 9.26-4.52.96-7.74 3.37-7.74 6.21 0 1.32.7 2.55 1.91 3.59-.16.69-.26 1.38-.26 2.1 0 7.95 10.01 14.4 22.36 14.4s22.36-6.45 22.36-14.4c0-.72-.08-1.43-.24-2.12 1.19-1.03 1.88-2.25 1.88-3.57Zm-2.5 0c0 1.69-3.7 4.15-9.5 4.15-3.07 0-5.54-.69-7.19-1.59 2.63-.48 5.7-2.17 8.38-4.84.54-.54 1.04-1.1 1.5-1.67 4.23.6 6.81 2.54 6.81 3.95m-22.04 1.92c.19-.13.37-.26.54-.43.16.16.35.3.54.43 1.16 2.12 4.17 3.8 8 4.44-2.19 2.2-5.2 3.59-8.54 3.59s-6.35-1.38-8.54-3.59c3.83-.64 6.84-2.32 8-4.44m14.18-16.11c.49 0 1.16.08 1.56.48.57.57.64 1.82.2 3.35-.59 2.06-2.04 4.36-3.99 6.3-2.59 2.59-5.77 4.27-8.08 4.27-.49 0-1.16-.08-1.56-.48-.57-.57-.64-1.82-.2-3.35.59-2.06 2.04-4.36 3.99-6.3 2.59-2.59 5.77-4.27 8.08-4.27M18 13.58C18 7.05 21.15 2.5 23.98 2.5s5.98 4.55 5.98 11.08c0 .26-.02.51-.03.76-.74.56-1.47 1.18-2.17 1.89-1.66 1.66-2.93 3.47-3.78 5.23-.85-1.76-2.13-3.57-3.78-5.23-.7-.7-1.43-1.32-2.17-1.89-.01-.25-.03-.5-.03-.76m-9.21.64c.4-.4 1.07-.48 1.57-.48 2.32 0 5.49 1.68 8.08 4.27 4.1 4.1 4.98 8.45 3.78 9.65-.4.4-1.07.48-1.56.48-2.32 0-5.49-1.68-8.08-4.27-1.94-1.94-3.4-4.24-3.99-6.3-.44-1.53-.36-2.78.2-3.35m.51 9.74c.46.57.96 1.13 1.5 1.67 2.68 2.68 5.75 4.36 8.38 4.84-1.66.9-4.13 1.59-7.19 1.59-5.8 0-9.5-2.46-9.5-4.15 0-1.41 2.59-3.35 6.81-3.95m34.55 9.64c0 6.45-9.09 11.9-19.86 11.9S4.13 40.05 4.13 33.6c0-.22.04-.43.06-.64 2.1 1 4.82 1.6 7.8 1.6.12 0 .25 0 .37-.01 2.66 3.53 6.87 5.82 11.63 5.82s8.97-2.29 11.63-5.82c.12 0 .24.01.37.01 2.99 0 5.72-.61 7.82-1.61.02.22.03.43.03.65Z"/>
</svg>
