<svg viewBox="0 0 24 24" xmlns="http://www.w3.org/2000/svg">
  <path d="M16.53 17.82a6.546 6.546 0 0 1-9.04 0c2.03-.41 3.62-1.33 4.24-2.49.1-.07.2-.14.29-.23.09.09.19.16.29.23.62 1.16 2.2 2.08 4.24 2.49Zm2.35.24h-.21a8.324 8.324 0 0 1-13.32 0h-.21c-1.57 0-3.01-.29-4.16-.78 0 .08-.02.15-.02.23 0 3.52 5.06 6.5 11.06 6.5s11.06-2.98 11.06-6.5c0-.08-.02-.15-.02-.23-1.16.49-2.6.78-4.16.78Zm-8.78-4.01c.18 0 .51-.02.67-.18.19-.19.28-.76.04-1.61-.32-1.13-1.13-2.4-2.2-3.47C6.87 7.05 5.15 6.44 4.2 6.44c-.18 0-.51.02-.67.18-.51.51-.08 2.83 2.17 5.08 1.74 1.74 3.46 2.35 4.41 2.35Zm-1.36 1.56c-1.38-.38-2.93-1.3-4.29-2.67-.22-.22-.42-.44-.61-.67-2.4.3-3.84 1.36-3.84 1.98 0 .73 1.95 2.06 5.12 2.06 1.51 0 2.74-.31 3.61-.7Zm1.1-8.06c.95.95 1.68 1.99 2.17 3 .49-1.01 1.22-2.05 2.17-3 .3-.3.61-.57.92-.82.01-.23.02-.46.02-.7 0-3.45-1.65-6.03-3.11-6.03S8.9 2.58 8.9 6.03c0 .24 0 .47.02.7.31.25.62.52.92.82m3.4 6.32c.16.16.49.18.67.18.95 0 2.67-.62 4.41-2.35 1.08-1.08 1.88-2.34 2.2-3.47.24-.84.16-1.41-.04-1.61-.16-.16-.49-.18-.67-.18-.95 0-2.67.62-4.41 2.35-2.25 2.25-2.68 4.57-2.17 5.08Zm6.93-1.6c-.19.22-.4.45-.61.67-1.36 1.36-2.91 2.28-4.29 2.67.88.39 2.1.7 3.61.7 3.18 0 5.12-1.33 5.12-2.06 0-.62-1.43-1.68-3.83-1.97Z"/>
</svg>
