<svg viewBox="0 0 32 32" xmlns="http://www.w3.org/2000/svg">
  <path d="M31.99 18.61c0-1.89-2.15-3.49-5.16-4.13 1.47-2.45 1.75-4.91.47-6.18-.55-.55-1.32-.81-2.22-.81-1.03 0-2.24.36-3.46 1.01-.18-4.74-2.63-8.49-5.63-8.49s-5.45 3.76-5.63 8.49C9.14 7.85 7.94 7.49 6.9 7.49c-.9 0-1.67.26-2.22.81-1.27 1.27-.99 3.73.47 6.18C2.14 15.12 0 16.72 0 18.61c0 .88.47 1.7 1.28 2.4-.11.46-.18.92-.18 1.39 0 5.3 6.67 9.6 14.91 9.6s14.91-4.3 14.91-9.6c0-.48-.07-.94-.18-1.39.8-.69 1.28-1.51 1.28-2.4Zm-2 0c0 .86-2.28 2.43-6 2.43-1.79 0-3.2-.37-4.23-.85 1.62-.44 3.42-1.51 5.02-3.11.26-.26.51-.53.74-.8 2.8.35 4.47 1.59 4.47 2.33M15.63 19.9c.13-.09.25-.18.36-.28.1.1.22.19.34.27.73 1.35 2.58 2.42 4.96 2.9-1.38 1.32-3.24 2.13-5.3 2.13s-3.92-.82-5.3-2.14c2.37-.47 4.21-1.54 4.94-2.88m9.45-10.41c.22 0 .61.03.81.23.61.61.11 3.33-2.52 5.96-2.03 2.03-4.04 2.75-5.15 2.75-.22 0-.61-.03-.81-.23-.28-.28-.3-1.03-.05-1.91.38-1.32 1.32-2.8 2.57-4.06 2.03-2.03 4.04-2.75 5.15-2.75Zm-12.75-.43c0-4.04 1.93-7.06 3.66-7.06s3.66 3.02 3.66 7.06c0 .27-.02.53-.04.79-.37.3-.74.62-1.1.98-1.11 1.11-1.96 2.31-2.52 3.49-.57-1.17-1.42-2.38-2.52-3.49-.35-.35-.72-.67-1.09-.98-.02-.26-.04-.52-.04-.79Zm-6.24.65c.2-.2.59-.23.81-.23 1.11 0 3.13.72 5.15 2.75 1.26 1.26 2.19 2.73 2.57 4.06.25.88.23 1.62-.05 1.91-.2.2-.59.23-.81.23-1.11 0-3.13-.72-5.15-2.75-2.63-2.63-3.13-5.36-2.52-5.96Zm.37 6.58c.23.27.47.54.73.8 1.59 1.59 3.4 2.67 5.02 3.11-1.02.47-2.44.85-4.23.85-3.72 0-6-1.57-6-2.43 0-.73 1.68-1.97 4.47-2.32ZM28.9 22.4c0 4.12-5.91 7.6-12.91 7.6S3.08 26.52 3.08 22.4c0-.1.01-.19.02-.29 1.35.58 3.04.93 4.89.93h.26c1.77 2.35 4.57 3.88 7.74 3.88s5.97-1.53 7.74-3.88h.26c1.84 0 3.53-.35 4.89-.93 0 .1.02.19.02.29"/>
</svg>
