<svg viewBox="0 0 24 24" xmlns="http://www.w3.org/2000/svg">
  <path d="M23.99 13.96c0-1.42-1.61-2.62-3.88-3.1 1.1-1.84 1.31-3.68.36-4.64-.41-.41-.99-.61-1.67-.61-.78 0-1.68.27-2.59.75-.14-3.55-1.97-6.37-4.23-6.37S7.89 2.81 7.75 6.36c-.92-.49-1.82-.75-2.59-.75-.67 0-1.25.2-1.67.61-.95.95-.74 2.8.36 4.64-2.24.48-3.85 1.68-3.85 3.1 0 .67.36 1.28.96 1.8-.08.34-.14.68-.14 1.04C.82 20.78 5.83 24 12 24s11.18-3.22 11.18-7.2c0-.36-.06-.7-.14-1.04.61-.52.96-1.14.96-1.8Zm-1.75 0c0 .4-1.46 1.57-4.25 1.57-1.2 0-2.13-.22-2.83-.5 1.12-.38 2.33-1.13 3.42-2.22.12-.12.22-.24.33-.37 2.17.22 3.33 1.15 3.33 1.51Zm-10.52.96c.1-.07.19-.13.27-.22.08.08.16.14.25.2.51.96 1.78 1.73 3.43 2.12-.98.87-2.27 1.41-3.68 1.41s-2.7-.54-3.68-1.41c1.63-.38 2.89-1.15 3.41-2.1m7.09-7.56c.25 0 .38.05.43.1.08.08.18.47-.03 1.18-.27.95-.95 2.02-1.87 2.93-1.37 1.37-2.84 1.99-3.69 1.99-.25 0-.38-.05-.43-.1-.29-.29-.08-2.15 1.89-4.12 1.37-1.37 2.84-1.99 3.69-1.99ZM9.5 6.79c0-2.84 1.34-5.04 2.49-5.04s2.49 2.2 2.49 5.04c0 .29-.03.55-.06.82-.18.16-.36.32-.54.5-.83.83-1.47 1.74-1.89 2.63-.43-.89-1.06-1.79-1.89-2.63-.18-.18-.36-.34-.55-.51-.03-.27-.06-.53-.06-.82Zm-4.76.67s.18-.1.43-.1c.85 0 2.32.61 3.69 1.99 1.97 1.97 2.18 3.83 1.89 4.12-.04.04-.18.1-.43.1-.85 0-2.32-.61-3.69-1.99-1.97-1.97-2.18-3.83-1.89-4.12m.33 4.99c.11.12.21.25.33.37 1.09 1.09 2.3 1.84 3.42 2.22-.7.28-1.63.5-2.83.5-2.79 0-4.25-1.17-4.25-1.57 0-.36 1.15-1.29 3.33-1.51Zm16.35 4.35c0 2.95-4.32 5.45-9.43 5.45s-9.43-2.5-9.43-5.45v-.11c.97.37 2.15.59 3.42.59h.19c1.33 1.76 3.43 2.91 5.81 2.91s4.48-1.15 5.81-2.91h.19c1.27 0 2.45-.22 3.42-.59v.11Z"/>
</svg>
