<svg viewBox="0 0 64 64" xmlns="http://www.w3.org/2000/svg">
  <path d="M63.97 37.22c0-3.74-4.19-6.92-10.1-8.22 2.96-4.92 3.52-9.86.97-12.4-1.1-1.1-2.65-1.62-4.44-1.62-2.14 0-4.63.76-7.16 2.15C42.92 7.58 38.01 0 31.97 0S21.02 7.58 20.69 17.12c-2.52-1.38-5.02-2.14-7.15-2.14-1.8 0-3.34.52-4.44 1.62-2.55 2.55-1.99 7.48.97 12.4-5.91 1.3-10.1 4.48-10.1 8.22 0 1.75.93 3.38 2.51 4.75-.21.92-.32 1.86-.32 2.82 0 10.6 13.35 19.2 29.81 19.2s29.81-8.59 29.81-19.2c0-.96-.11-1.9-.32-2.82 1.58-1.37 2.51-3 2.51-4.75m-2.75 0c0 2.89-5.67 6.11-13.25 6.11-4.39 0-8.11-1.08-10.49-2.55 3.73-.3 8.35-2.64 12.32-6.61.88-.88 1.67-1.79 2.38-2.71 5.37.91 9.04 3.44 9.04 5.76m-29.77 2.22c.09-.08.19-.14.28-.22.09-.09.16-.2.25-.3.08.1.16.2.25.3s.2.15.3.24c1.46 3.12 5.91 5.57 11.56 6.35-3.04 3.23-7.33 5.27-12.1 5.27s-9.06-2.04-12.1-5.27c5.66-.79 10.12-3.24 11.58-6.37ZM50.4 17.72c1.12 0 1.96.27 2.5.82.92.92 1.07 2.76.42 5.04-.81 2.84-2.81 5.99-5.46 8.65-3.56 3.56-7.95 5.86-11.19 5.86-1.12 0-1.96-.27-2.5-.82-.92-.92-1.07-2.76-.42-5.04.81-2.84 2.81-5.99 5.46-8.65 3.56-3.56 7.95-5.86 11.19-5.86m-26.99.39c0-8.33 3.92-15.36 8.56-15.36s8.56 7.03 8.56 15.36c0 .25-.01.49-.02.74-1.11.81-2.2 1.75-3.25 2.79-2.37 2.37-4.17 4.98-5.29 7.49-1.13-2.51-2.92-5.11-5.29-7.49a28 28 0 0 0-3.25-2.79c0-.25-.02-.49-.02-.74m-12.37.43c.54-.54 1.38-.82 2.5-.82 3.24 0 7.63 2.3 11.19 5.86 2.66 2.66 4.65 5.81 5.46 8.65.65 2.28.5 4.12-.42 5.04-.54.54-1.38.82-2.5.82-3.24 0-7.63-2.3-11.19-5.86-2.66-2.66-4.65-5.81-5.46-8.65-.65-2.28-.5-4.12.42-5.04m.72 12.93c.71.92 1.5 1.83 2.38 2.71 3.96 3.96 8.57 6.29 12.3 6.61-2.38 1.47-6.09 2.55-10.47 2.55-7.58 0-13.25-3.23-13.25-6.11 0-2.32 3.67-4.85 9.04-5.75ZM59.03 44.8c0 8.91-12.39 16.45-27.06 16.45S4.91 53.72 4.91 44.8c0-.38.03-.77.08-1.14 2.87 1.5 6.72 2.43 10.98 2.43.17 0 .33-.01.49-.01 3.55 4.7 9.16 7.76 15.51 7.76s11.96-3.05 15.51-7.75c.16 0 .33.01.49.01 4.26 0 8.11-.93 10.98-2.43.05.38.08.76.08 1.14Z"/>
</svg>
