<svg viewBox="0 0 32 32" xmlns="http://www.w3.org/2000/svg">
  <path d="M22.28 23.69c-1.61 1.6-3.83 2.59-6.28 2.59s-4.66-.99-6.28-2.59c3.64-.64 6.28-2.52 6.28-4.75 0 2.23 2.64 4.11 6.28 4.75m2.73.24h-.28c-1.99 2.64-5.15 4.36-8.72 4.36s-6.73-1.72-8.72-4.36h-.28c-2.18 0-4.18-.43-5.74-1.14-.01.14-.03.28-.03.42 0 4.77 6.76 8.8 14.77 8.8s14.77-4.03 14.77-8.8c0-.14-.02-.28-.03-.42-1.56.71-3.56 1.14-5.74 1.14M12.2 20.82c-1.93-.41-4.14-1.65-6.08-3.59-.37-.37-.71-.75-1.03-1.14C1.97 16.52 0 17.94 0 18.94c0 1.19 2.79 2.99 7 2.99 2.17 0 3.97-.48 5.19-1.11Zm1.31-1.84c.35 0 .82-.06 1.09-.33.84-.84.14-4.09-2.84-7.06-2.34-2.34-4.68-3.16-5.98-3.17-.35 0-.82.06-1.09.33-.84.84-.14 4.09 2.84 7.06 2.34 2.34 4.68 3.17 5.98 3.17m13.41-2.89c-.32.39-.66.77-1.03 1.14-1.94 1.94-4.16 3.18-6.08 3.59 1.23.63 3.02 1.11 5.19 1.11 4.21 0 7-1.8 7-2.99 0-1-1.97-2.42-5.08-2.85m-9.5 2.56c.27.27.74.33 1.09.33 1.3 0 3.64-.83 5.98-3.17 2.98-2.98 3.68-6.22 2.84-7.06-.27-.27-.74-.33-1.09-.33-1.3 0-3.64.83-5.98 3.17-2.98 2.98-3.68 6.22-2.84 7.06m-4.25-8.47c1.24 1.24 2.2 2.6 2.84 3.92.64-1.32 1.59-2.68 2.84-3.92.49-.49.99-.92 1.51-1.32 0-.22.02-.44.02-.67C20.37 3.37 18.07 0 16.01 0s-4.36 3.36-4.36 8.19c0 .23 0 .45.02.67.51.4 1.02.83 1.51 1.32Z"/>
</svg>
