<svg viewBox="0 0 16 16" xmlns="http://www.w3.org/2000/svg">
  <path fill="#1d1d1b" d="M8.15 3.51c-.78 0-1.56.22-2.22.62a4.185 4.185 0 0 0-1.31 5.75l.09.16-.44 1.56 1.59-.41.16.03c.66.41 1.38.59 2.12.59 2.28 0 4.16-1.88 4.16-4.16s-1.88-4.16-4.16-4.16Zm2.38 5.94c-.16.31-.47.53-.84.59-.06 0-.16.03-.25.03-.16 0-.31-.03-.47-.06-.25-.06-.47-.16-.72-.25a5.45 5.45 0 0 1-2.09-1.84c-.31-.41-.5-.84-.53-1.31 0-.34.12-.72.41-.97.09-.12.22-.19.34-.19h.22c.12 0 .22.06.25.19l.16.38c.09.25.22.53.25.59s.03.16 0 .19c-.03.09-.06.16-.12.22l-.06.06c-.03.06-.09.09-.12.12l-.09.06.06.12c.16.34.41.69.69.94s.59.44.94.59l.19.06.09-.06c.19-.16.34-.31.47-.5.03-.06.09-.09.12-.09s.06 0 .12.03c.12.03.66.31.84.41l.06.03c.06.03.12.06.16.09.03.19.03.41-.06.56ZM0-.01v16h16v-16zm12.53 9.99a4.96 4.96 0 0 1-4.41 2.66c-.81 0-1.59-.19-2.31-.56l-.06-.03-2.62.69.72-2.56-.03-.06a4.97 4.97 0 0 1-.06-4.72c.84-1.66 2.53-2.66 4.38-2.66.81 0 1.62.19 2.34.56 2.41 1.25 3.34 4.28 2.06 6.69Z"/>
</svg>
