<svg viewBox="0 0 16 16" xmlns="http://www.w3.org/2000/svg">
  <path d="M9.39 10.08c-.16 0-.31-.03-.47-.06-.25-.06-.47-.16-.72-.25a5.4 5.4 0 0 1-2.1-1.84c-.31-.41-.5-.84-.53-1.31 0-.34.13-.72.41-.97.09-.12.22-.19.34-.19h.22c.13 0 .22.06.25.19l.16.37c.09.25.22.53.25.59s.03.16 0 .19c-.03.09-.06.16-.13.22l-.06.06c-.03.06-.09.09-.13.12l-.09.06.06.12c.16.34.41.69.69.94s.59.44.94.59l.19.06.09-.06c.19-.16.34-.31.47-.5.03-.06.09-.09.13-.09s.06 0 .13.03c.13.03.66.31.85.41l.06.03c.06.03.13.06.16.09.03.19.03.41-.06.56-.16.31-.47.53-.85.59-.06 0-.16.03-.25.03Zm-6.33 2.66 2.63-.69.06.03c.72.38 1.5.56 2.32.56 1.85 0 3.54-1 4.41-2.66 1.28-2.41.34-5.44-2.07-6.69a5.15 5.15 0 0 0-2.35-.56c-1.85 0-3.54 1-4.38 2.66-.78 1.5-.75 3.25.06 4.72l.03.06-.72 2.56Z"/>
</svg>
