<svg viewBox="0 0 48 48" xmlns="http://www.w3.org/2000/svg">
  <path fill="#1e1e1c" d="M18.7 5.98c0-3.29 2.67-5.96 5.95-5.96s5.95 2.67 5.95 5.96-2.67 5.96-5.95 5.96-5.95-2.67-5.95-5.96m21.4 19.95c-.41-1.11-1.46-1.85-2.62-1.85h-5.41v-7.3c0-1.56-1.26-2.82-2.82-2.82h-9.21c-1.55 0-2.81 1.27-2.81 2.83l.11 15.37c.02 2.35 1.93 4.25 4.27 4.25h2.09V21.75a1.25 1.25 0 0 1 2.5 0v11.17h5.2v3.87c-.39.22-.71.55-.92.98-1.71 3.53-5.2 5.72-9.11 5.72-5.58 0-10.12-4.55-10.12-10.15 0-3.24 1.49-6.21 4.09-8.15 1-.74 1.21-2.16.46-3.16-.74-1-2.15-1.21-3.15-.47-3.7 2.76-5.91 7.16-5.91 11.78C6.74 41.42 13.3 48 21.36 48c3.9 0 7.6-1.6 10.3-4.28h6.37c1.26 0 2.29-1.03 2.29-2.3V27.03c0-.38-.08-.75-.23-1.11Z"/>
</svg>
