<svg viewBox="0 0 32 32" xmlns="http://www.w3.org/2000/svg">
  <path fill="#1e1e1c" d="M16.44 8.21c2.26 0 4.11-1.84 4.11-4.11S18.7-.01 16.44-.01s-4.11 1.84-4.11 4.11 1.84 4.11 4.11 4.11m0-6.22c1.16 0 2.11.95 2.11 2.11s-.95 2.11-2.11 2.11-2.11-.95-2.11-2.11.95-2.11 2.11-2.11m10.39 15.22c-.3-.8-1.05-1.33-1.9-1.33h-3.4v-4.65c0-1.12-.91-2.04-2.04-2.04h-6.1c-1.12 0-2.04.91-2.04 2.04l.07 9.49a3.01 3.01 0 0 0 3 2.98h3.21v-1.64h3.1v3.86c-1.2 2.46-3.73 4.05-6.46 4.05-3.96 0-7.19-3.23-7.19-7.19 0-2.3 1.06-4.4 2.91-5.78.44-.33.54-.96.21-1.4s-.96-.54-1.4-.21a9.23 9.23 0 0 0-3.71 7.38c0 5.07 4.12 9.19 9.19 9.19 2.49 0 4.84-1.05 6.55-2.78h4.48c.93 0 1.69-.76 1.69-1.69v-9.51c0-.27-.06-.54-.17-.79Zm-4.09 10v-7.14h-5.1v-5.1h-2v6.76h-1.2a1 1 0 0 1-1-.99l-.04-9.52 6.13.04v6.65h5.41s.01.01.02.03l.04 9.29h-2.26Z"/>
</svg>
