<svg viewBox="0 0 64 64" xmlns="http://www.w3.org/2000/svg">
  <path fill="#1e1e1c" d="M32.81 15.45c4.26 0 7.72-3.47 7.72-7.73S37.07 0 32.81 0s-7.72 3.47-7.72 7.73 3.46 7.73 7.72 7.73Zm0-12.7c2.74 0 4.97 2.23 4.97 4.97s-2.23 4.97-4.97 4.97-4.97-2.23-4.97-4.97 2.23-4.97 4.97-4.97m20.6 32c-.5-1.37-1.8-2.29-3.25-2.29h-7.62V22.3c0-1.93-1.57-3.49-3.49-3.49H26.6c-1.92 0-3.49 1.57-3.49 3.5l.14 20.73c.02 2.99 2.47 5.42 5.46 5.42h.01l5.87-.02v-4.69l7.66-.02v8.75l-.06.09c-2.59 5.34-7.88 8.66-13.81 8.66-8.46 0-15.34-6.89-15.34-15.35 0-4.91 2.26-9.4 6.2-12.33.61-.45.74-1.31.28-1.92s-1.31-.74-1.92-.28c-4.58 3.4-7.31 8.84-7.31 14.54 0 9.98 8.12 18.1 18.09 18.1 5.39 0 10.47-2.46 13.87-6.51v.83h8.66c1.54 0 2.79-1.25 2.79-2.79V36.11c0-.47-.1-.93-.29-1.37Zm-2.5 20.82H45V40.98L34.59 41V29.22h-2.75V45.7h-3.12c-1.48 0-2.7-1.21-2.71-2.69l-.14-20.72c0-.41.33-.74.74-.74h12.45c.41 0 .74.33.74.74V35.2h10.37c.37 0 .6.27.68.51l.04.11c.05.11.07.21.07.3l-.04 19.44Z"/>
</svg>
