<svg viewBox="0 0 16 16" xmlns="http://www.w3.org/2000/svg">
  <path fill="#1e1e1c" d="M7.85 4.53c1.24 0 2.25-1.01 2.25-2.25S9.09.02 7.85.02 5.6 1.03 5.6 2.27s1.01 2.25 2.25 2.25Zm0-3.01c.41 0 .75.34.75.75s-.34.75-.75.75-.75-.34-.75-.75.34-.75.75-.75m5.94 6.99c-.18-.49-.65-.81-1.17-.81h-2.04V6.3c0-.69-.56-1.25-1.25-1.25H6.72c-.69 0-1.25.56-1.25 1.25v4.34c0 .69.56 1.25 1.25 1.25h2.94v.87a3.17 3.17 0 0 1-2.85 1.76c-1.76 0-3.2-1.44-3.2-3.21 0-1.03.47-1.96 1.29-2.58a.75.75 0 0 0-.9-1.2 4.74 4.74 0 0 0-1.9 3.78c0 2.6 2.11 4.71 4.7 4.71 1.08 0 2.09-.37 2.9-1.01h2.92c.69 0 1.25-.56 1.25-1.25V9c0-.16-.03-.32-.1-.48Zm-1.41 4.99h-1.22v-3.14H6.97V6.54h2.11v2.65h3.31v4.3Zm0-4.46v-.07.08Z"/>
</svg>
