<svg viewBox="0 0 40 40" xmlns="http://www.w3.org/2000/svg">
  <path fill="#1e1e1c" d="M15.51 4.96c0-2.78 2.26-5.04 5.04-5.04s5.04 2.26 5.04 5.04S23.33 10 20.55 10s-5.04-2.26-5.04-5.04M33.5 21.51a2.43 2.43 0 0 0-2.26-1.59h-4.42v-5.98c0-1.34-1.09-2.43-2.43-2.43h-7.67c-1.34 0-2.43 1.09-2.43 2.44l.09 11.94c.02 2 1.65 3.62 3.64 3.62h1.66V18.62c0-.62.5-1.13 1.12-1.13s1.12.5 1.12 1.13v8.82h4.17v2.93c-.33.19-.61.48-.79.86a8.26 8.26 0 0 1-7.48 4.69c-4.58 0-8.31-3.73-8.31-8.31 0-2.38 1.03-4.65 2.81-6.23.83-.73.91-2 .18-2.82-.73-.83-2-.91-2.82-.18-2.65 2.34-4.17 5.7-4.17 9.23 0 6.79 5.52 12.31 12.31 12.31 3.24 0 6.31-1.3 8.58-3.5h5.31c1.1 0 2-.89 2-1.99V22.47c0-.32-.07-.64-.2-.95Z"/>
</svg>
