<svg viewBox="0 0 16 16" xmlns="http://www.w3.org/2000/svg">
  <path fill="#1e1e1c" d="M5.65 2.3C5.65 1.06 6.66.04 7.9.04s2.25 1.01 2.25 2.26S9.14 4.56 7.9 4.56 5.65 3.55 5.65 2.3m8.18 6.26c-.18-.49-.65-.82-1.17-.82h-2.04V6.33c0-.69-.56-1.26-1.25-1.26H6.76c-.69 0-1.25.56-1.25 1.26v4.71c0 .69.56 1.26 1.25 1.26h1.38a.4.4 0 0 1-.03-.16V8.25c0-.28.22-.5.5-.5s.5.22.5.5v3.89q0 .075-.03.15a.48.48 0 0 1-.25.29c-.5.57-1.2.93-1.98.93a2.71 2.71 0 0 1-2.7-2.71c0-.66.24-1.29.67-1.78.45-.52.4-1.32-.12-1.77a1.24 1.24 0 0 0-1.76.12c-.83.95-1.28 2.17-1.28 3.44 0 2.88 2.33 5.23 5.2 5.23 1.11 0 2.14-.35 3-.97h2.82c.69 0 1.25-.56 1.25-1.26V9.04c0-.16-.03-.32-.1-.48"/>
</svg>
