<svg viewBox="0 0 64 64" xmlns="http://www.w3.org/2000/svg">
  <path fill="#1e1e1c" d="M25.14 7.73C25.14 3.46 28.6 0 32.86 0s7.72 3.47 7.72 7.74-3.46 7.74-7.72 7.74-7.72-3.47-7.72-7.74ZM53.46 34.8c-.5-1.38-1.81-2.3-3.25-2.3h-7.62V22.33c0-1.93-1.57-3.5-3.49-3.5H26.65c-1.92 0-3.49 1.57-3.49 3.51l.14 20.76c.02 3 2.47 5.43 5.46 5.43h3.13V29.26c0-.76.62-1.38 1.38-1.38s1.38.62 1.38 1.38v14.56l7.66-.02v6.03a2.5 2.5 0 0 0-1.07 1.11c-2.4 4.96-7.3 8.04-12.8 8.04-7.84 0-14.22-6.39-14.22-14.25 0-4.55 2.1-8.73 5.75-11.45 1.11-.83 1.34-2.39.52-3.51a2.506 2.506 0 0 0-3.5-.52c-4.86 3.62-7.77 9.4-7.77 15.47 0 10.62 8.62 19.26 19.22 19.26 5.29 0 10.29-2.24 13.87-5.96v.38h8.66c1.54 0 2.79-1.25 2.79-2.79V36.17c0-.46-.1-.93-.29-1.38Z"/>
</svg>
