<svg viewBox="0 0 24 24" xmlns="http://www.w3.org/2000/svg">
  <path fill="#1e1e1c" d="M9.3 3.2c0-1.75 1.42-3.17 3.16-3.17s3.16 1.42 3.16 3.17-1.42 3.17-3.16 3.17S9.3 4.95 9.3 3.2m10.94 9.62c-.24-.64-.85-1.07-1.53-1.07h-2.37V8.83c0-.91-.73-1.64-1.64-1.64h-4.49c-.9 0-1.64.74-1.64 1.65l.05 6.61c.01 1.31 1.04 2.37 2.38 2.36h.72v-6.6c0-.48.39-.88.88-.88s.88.39.88.88v5.39h2v1.25c-.23.14-.42.35-.55.61a4.5 4.5 0 0 1-4.08 2.56c-2.5 0-4.53-2.04-4.53-4.54 0-1.29.55-2.53 1.52-3.39a1.502 1.502 0 0 0-2-2.24 7.57 7.57 0 0 0-2.52 5.63c0 4.16 3.38 7.55 7.53 7.55 2.22 0 4.31-1.01 5.72-2.67h2.4c.76 0 1.38-.62 1.38-1.39v-6.51c0-.22-.04-.43-.13-.64Z"/>
</svg>
