<svg viewBox="0 0 40 40" xmlns="http://www.w3.org/2000/svg">
  <path fill="#1e1e1c" d="M20.04 28.43c-3.15 0-5.72 2.57-5.72 5.73s2.57 5.72 5.72 5.72 5.72-2.57 5.72-5.73-2.57-5.72-5.73-5.72Zm.01 7.45c-.95 0-1.71-.77-1.71-1.72s.77-1.71 1.72-1.71 1.71.77 1.71 1.72-.77 1.72-1.71 1.72ZM39.59 9.75c-.4.48-.97.73-1.54.73-.45 0-.9-.15-1.27-.46-4.85-4.01-10.66-6.13-16.8-6.13S8.14 5.97 3.32 9.91c-.86.7-2.12.57-2.82-.28-.7-.86-.57-2.12.28-2.82C6.33 2.28 12.97-.12 19.98-.12s13.77 2.44 19.35 7.05c.85.7.97 1.97.27 2.82Zm-4.99 4.82a2.005 2.005 0 0 1-1.27 3.55c-.45 0-.9-.15-1.27-.46-3.48-2.88-7.65-4.4-12.05-4.4s-8.49 1.49-11.95 4.32c-.86.7-2.12.57-2.82-.29s-.57-2.12.29-2.82c4.19-3.42 9.19-5.22 14.48-5.22s10.39 1.84 14.6 5.32Zm-5.55 7.49a2.005 2.005 0 0 1-1.27 3.55c-.45 0-.9-.15-1.27-.46-1.88-1.55-4.12-2.37-6.48-2.37s-4.56.8-6.43 2.33c-.86.7-2.12.57-2.82-.29s-.57-2.12.29-2.82c2.59-2.11 5.69-3.23 8.96-3.23s6.43 1.14 9.04 3.29Z"/>
</svg>
