<svg viewBox="0 0 24 24" xmlns="http://www.w3.org/2000/svg">
  <path fill="#1e1e1c" d="M12.01 17.64a3.171 3.171 0 0 0 0 6.34 3.171 3.171 0 0 0 0-6.34m0 4.6a1.419 1.419 0 1 1-.002-2.838 1.419 1.419 0 0 1 .002 2.838M5.56 3.08 4.23 1.75C6.64.6 9.26 0 11.97 0c4.28 0 8.34 1.49 11.72 4.28.37.31.42.86.12 1.23-.17.21-.42.32-.68.32-.2 0-.39-.07-.56-.2-3.06-2.53-6.73-3.87-10.61-3.87-2.23 0-4.39.46-6.41 1.32Zm-4.42.52 1.25 1.25c-.32.23-.63.45-.94.7-.38.31-.93.25-1.23-.12A.87.87 0 0 1 .34 4.2c.26-.21.53-.4.8-.6m18.51 6.75c-2.22-1.83-4.87-2.8-7.67-2.8-.61 0-1.21.05-1.81.15L8.68 6.21c1.07-.27 2.17-.41 3.29-.41 3.22 0 6.25 1.11 8.79 3.2.37.31.42.86.12 1.23-.17.21-.42.32-.67.32-.2 0-.39-.07-.56-.2M6.45 8.92c-.73.38-1.43.84-2.09 1.37-.38.31-.93.25-1.23-.12a.87.87 0 0 1 .12-1.23c.61-.49 1.24-.93 1.9-1.31l1.29 1.29Zm8.12 3.17c.99.33 1.93.84 2.77 1.53.37.31.42.86.12 1.23-.02.02-.05.03-.07.05l-2.82-2.82Zm-3.53 1.42c-1.18.17-2.29.65-3.25 1.44-.38.31-.93.25-1.23-.12a.87.87 0 0 1 .12-1.23c.88-.72 1.85-1.23 2.89-1.55l1.47 1.47Zm12.97 9.25L22.77 24 0 1.24 1.25 0z"/>
</svg>
