<svg viewBox="0 0 48 48" xmlns="http://www.w3.org/2000/svg">
  <path fill="#1e1e1c" d="M24 36.02c-3.27 0-5.94 2.66-5.94 5.98s2.66 5.94 5.94 5.94h.04c3.27 0 5.93-2.66 5.93-5.98s-2.66-5.94-5.97-5.94m.04 9.4H24c-1.89 0-3.43-1.54-3.43-3.47s1.54-3.43 3.47-3.43 3.43 1.54 3.43 3.47-1.54 3.43-3.43 3.43m23.7-35.11c-.25.3-.6.45-.96.45-.28 0-.56-.09-.8-.29-6.36-5.26-13.99-8.05-22.04-8.05S8.4 5.16 2.07 10.33c-.53.44-1.32.36-1.76-.18-.44-.53-.36-1.32.18-1.76C7.26 2.85 15.37-.07 23.93-.07s16.82 2.98 23.64 8.62c.53.44.61 1.23.17 1.76m-6.15 7.89c.53.44.61 1.23.17 1.76-.25.3-.6.45-.96.45-.28 0-.56-.09-.8-.29-4.63-3.83-10.18-5.86-16.04-5.86s-11.31 1.99-15.91 5.75c-.54.44-1.32.36-1.76-.18s-.36-1.32.18-1.76c5.06-4.13 11.11-6.31 17.5-6.31s12.55 2.22 17.64 6.43Zm-7 9.47c.53.44.61 1.23.17 1.76-.25.3-.61.45-.97.45-.28 0-.56-.09-.8-.29-2.6-2.15-5.72-3.29-9.01-3.29s-6.35 1.12-8.94 3.23c-.54.44-1.32.35-1.76-.18s-.36-1.32.18-1.76c3.04-2.48 6.68-3.79 10.52-3.79s7.55 1.34 10.61 3.86Z"/>
</svg>
