<svg viewBox="0 0 32 32" xmlns="http://www.w3.org/2000/svg">
  <path fill="#1e1e1c" d="M15.98 23.79c-2.24 0-4.06 1.82-4.06 4.13s1.82 4.06 4.06 4.06h.07c2.24 0 4.07-1.82 4.07-4.13s-1.82-4.06-4.13-4.06Zm.07 6.2h-.07c-1.14 0-2.06-.93-2.06-2.13 0-1.14.93-2.06 2.13-2.06 1.14 0 2.07.93 2.07 2.13 0 1.14-.93 2.06-2.07 2.06m-9.23-26-1.5-1.5C8.63.87 12.23.02 15.96.02 21.69.02 27.12 2 31.64 5.74A1 1 0 0 1 31 7.51c-.22 0-.45-.08-.64-.23-4.16-3.44-9.14-5.26-14.41-5.26-3.19 0-6.27.67-9.13 1.96Zm-5.04.61 1.43 1.43c-.53.36-1.04.75-1.55 1.16a1 1 0 0 1-1.41-.14 1 1 0 0 1 .14-1.41c.45-.37.92-.71 1.38-1.04Zm24.65 9.04c-3.02-2.5-6.64-3.82-10.46-3.82-1.02 0-2.03.1-3.02.29l-1.68-1.68c1.52-.41 3.09-.61 4.7-.61 4.29 0 8.35 1.48 11.73 4.28a1 1 0 0 1-.64 1.77c-.22 0-.45-.08-.64-.23Zm-17.7-2.09c-1.1.55-2.15 1.22-3.13 2.02a1 1 0 0 1-1.41-.14 1 1 0 0 1 .14-1.41c.92-.75 1.9-1.4 2.91-1.96l1.48 1.48Zm6.26 6.26c-1.74.19-3.37.88-4.78 2.03a1 1 0 0 1-1.41-.14 1 1 0 0 1 .14-1.41c1.3-1.06 2.77-1.8 4.33-2.2zm4.02-1.63c1.47.42 2.84 1.14 4.07 2.16a1 1 0 0 1 .13 1.41c-.1.12-.23.21-.37.27L19 16.18Zm13 14.4-1.41 1.41L0 1.41 1.42 0l30.59 30.59Z"/>
</svg>
