<svg viewBox="0 0 40 40" xmlns="http://www.w3.org/2000/svg">
  <path fill="#1e1e1c" d="M19.99 29.88c-2.75 0-5 2.24-5 5.05s2.24 5 5 5h.05c2.75 0 5-2.24 5-5.05s-2.24-5-5.05-5m.05 7.8h-.05c-1.52 0-2.75-1.23-2.75-2.8s1.23-2.75 2.8-2.75 2.75 1.23 2.75 2.8-1.23 2.75-2.75 2.75M8.06 4.83 6.37 3.14c4.21-2.1 8.81-3.2 13.57-3.2 7.18 0 13.98 2.48 19.64 7.17.48.4.55 1.11.15 1.59-.22.27-.54.41-.87.41-.25 0-.51-.09-.72-.26-5.26-4.35-11.55-6.66-18.21-6.66-4.15 0-8.17.9-11.88 2.64Zm-5.68.7L4 7.15c-.72.49-1.43 1.02-2.12 1.58-.48.39-1.19.32-1.58-.16s-.32-1.19.16-1.58c.63-.51 1.27-.99 1.92-1.45ZM33.2 16.86c-3.82-3.17-8.4-4.84-13.24-4.84-1.44 0-2.86.17-4.25.46l-1.87-1.87c1.97-.55 4.02-.85 6.12-.85 5.37 0 10.44 1.85 14.67 5.36.48.4.55 1.11.15 1.59-.22.27-.54.41-.87.41-.25 0-.51-.09-.72-.26Zm-22.22-2.75c-1.45.71-2.85 1.59-4.15 2.65-.48.39-1.19.32-1.58-.16s-.32-1.19.16-1.58c1.23-1.01 2.54-1.85 3.9-2.58zm12.45 6.08c1.95.51 3.78 1.44 5.4 2.79.48.4.55 1.11.15 1.59-.2.25-.49.37-.78.39l-4.77-4.76Zm-4.51 1.86c-2.29.21-4.44 1.1-6.29 2.61-.48.39-1.19.32-1.58-.16s-.32-1.19.16-1.58c1.72-1.41 3.67-2.35 5.75-2.82l1.96 1.96Zm21.09 16.29-1.59 1.6L.01 1.56 1.6-.03l38.41 38.38Z"/>
</svg>
