<svg viewBox="0 0 16 16" xmlns="http://www.w3.org/2000/svg">
  <path fill="#1e1e1c" d="M8.01 11.51c-1.24 0-2.25 1.01-2.25 2.25s1.01 2.25 2.25 2.25 2.25-1.01 2.25-2.25-1.01-2.25-2.25-2.25m0 3c-.41 0-.75-.34-.75-.75s.34-.75.75-.75.75.34.75.75-.34.75-.75.75m7.83-10.62c-.15.18-.36.27-.58.27-.17 0-.34-.06-.48-.17-1.96-1.63-4.32-2.48-6.8-2.48s-4.8.84-6.75 2.43a.75.75 0 0 1-1.06-.11.76.76 0 0 1 .11-1.06C2.51.97 5.17 0 7.98 0s5.52.98 7.76 2.83c.32.26.36.74.1 1.06m-2.01 2.02c.32.26.36.74.1 1.06-.15.18-.36.27-.58.27-.17 0-.34-.06-.48-.17-1.41-1.17-3.1-1.79-4.89-1.79s-3.45.61-4.85 1.75a.76.76 0 0 1-1.06-.11.76.76 0 0 1 .11-1.06c1.68-1.37 3.68-2.09 5.8-2.09s4.16.74 5.84 2.13ZM11.6 8.93c.32.26.36.74.1 1.06-.15.18-.36.27-.58.27-.17 0-.34-.06-.48-.17a4.17 4.17 0 0 0-5.28-.02.76.76 0 0 1-1.06-.11.76.76 0 0 1 .11-1.06c2.08-1.7 5.11-1.68 7.18.02Z"/>
</svg>
