<svg viewBox="0 0 24 24" xmlns="http://www.w3.org/2000/svg">
  <path fill="#1e1e1c" d="M7.83 3.6 5.47 1.24C7.53.44 9.72 0 11.97 0c4.21 0 8.18 1.45 11.5 4.19a1.495 1.495 0 0 1-.96 2.65c-.34 0-.67-.11-.95-.34C18.79 4.21 15.47 3 11.97 3c-1.42 0-2.8.21-4.13.6ZM.35 6.22c.48.59 1.32.71 1.95.32L.24 4.49c-.33.53-.31 1.23.11 1.73m9.52-.58 2.86 2.86c2.21.16 4.29.99 6.06 2.46.28.23.62.34.95.34.43 0 .86-.19 1.16-.54.53-.64.44-1.58-.2-2.11-2.52-2.08-5.53-3.17-8.73-3.17-.71 0-1.41.06-2.11.17ZM3.9 8.14c-.2.14-.39.28-.58.44-.64.52-.74 1.47-.21 2.11.52.64 1.47.74 2.11.21.27-.22.55-.42.83-.61L3.9 8.15Zm3.95 3.95c-.45.25-.89.54-1.3.88-.64.52-.74 1.47-.21 2.11.52.64 1.47.74 2.11.21.51-.42 1.08-.73 1.67-.93zm5.08 5.07c-.3-.08-.61-.14-.93-.14-1.93 0-3.5 1.57-3.5 3.49S10.07 24 12 24s3.5-1.57 3.5-3.49c0-.32-.06-.63-.14-.93zM2.13.02.01 2.14l21.88 21.85 2.12-2.12z"/>
</svg>
