<svg viewBox="0 0 24 24" xmlns="http://www.w3.org/2000/svg">
  <path fill="#1e1e1c" d="M12.01 17.65c-1.75 0-3.18 1.43-3.18 3.18s1.42 3.18 3.18 3.18 3.18-1.42 3.18-3.18-1.42-3.18-3.18-3.18m0 4.6c-.79 0-1.42-.64-1.42-1.42s.64-1.43 1.42-1.43 1.42.64 1.42 1.43-.64 1.42-1.42 1.42m11.8-16.74c-.17.21-.42.32-.68.32-.2 0-.39-.07-.56-.2-3.06-2.53-6.73-3.87-10.61-3.87S4.49 3.07 1.44 5.55c-.38.31-.93.25-1.23-.12A.87.87 0 0 1 .33 4.2C3.7 1.45 7.72 0 11.97 0s8.34 1.48 11.73 4.28c.37.31.43.86.12 1.23ZM20.77 9a.874.874 0 0 1-.55 1.55c-.2 0-.39-.07-.56-.2-2.22-1.83-4.87-2.8-7.68-2.8s-5.41.95-7.61 2.75c-.38.31-.93.25-1.23-.12a.87.87 0 0 1 .12-1.23C5.78 6.89 8.8 5.8 11.98 5.8s6.26 1.11 8.79 3.21Zm-3.42 4.63a.874.874 0 0 1-.55 1.55c-.2 0-.39-.07-.56-.2-1.22-1.01-2.69-1.55-4.24-1.55s-2.99.53-4.2 1.52c-.38.31-.93.25-1.23-.12a.87.87 0 0 1 .12-1.23c1.53-1.25 3.37-1.91 5.31-1.91s3.81.67 5.35 1.95Z"/>
</svg>
