<svg viewBox="0 0 64 64" xmlns="http://www.w3.org/2000/svg">
  <path fill="#1e1e1c" d="M32.1 48.45h-.13c-4.21 0-7.64 3.42-7.64 7.63v.13c0 4.21 3.43 7.63 7.64 7.63h.13c4.21 0 7.64-3.42 7.64-7.63v-.13c0-4.21-3.43-7.63-7.64-7.63m4.89 7.76c0 2.69-2.19 4.88-4.89 4.88h-.13c-2.7 0-4.89-2.19-4.89-4.88v-.13c0-2.69 2.19-4.88 4.89-4.88h.13c2.7 0 4.89 2.19 4.89 4.88zM4.46 8.36l1.99 1.98a50 50 0 0 0-4.16 3.04c-.59.48-1.45.39-1.93-.2s-.39-1.45.2-1.93c1.27-1.03 2.58-1.99 3.91-2.89Zm6.93-.85L9.34 5.46A48.6 48.6 0 0 1 31.91-.06c11.56 0 22.5 3.98 31.62 11.52.59.48.67 1.35.18 1.93-.27.33-.67.5-1.06.5-.31 0-.62-.1-.87-.32C53.15 6.46 42.82 2.69 31.91 2.69c-7.2 0-14.15 1.65-20.52 4.81Zm6.44 14.2a35.5 35.5 0 0 0-7.5 4.7c-.59.48-1.45.39-1.93-.2s-.39-1.45.2-1.93c2.26-1.84 4.66-3.38 7.18-4.63l2.06 2.05Zm35.9 4.85c-6.29-5.2-13.82-7.94-21.79-7.94-2.86 0-5.66.36-8.38 1.06l-2.23-2.23a36.3 36.3 0 0 1 10.61-1.57c8.61 0 16.75 2.97 23.54 8.57.59.48.67 1.35.18 1.93-.27.33-.67.5-1.06.5-.31 0-.62-.1-.87-.32m-17.31 5.95c3.49.72 6.76 2.29 9.63 4.65.59.48.67 1.35.18 1.93-.27.33-.67.5-1.06.5-.31 0-.62-.1-.87-.32-1.05-.86-2.16-1.59-3.31-2.21l-4.56-4.56Zm-5.45 2.32c-4.08.21-7.94 1.7-11.21 4.37-.59.48-1.45.39-1.93-.2s-.39-1.45.2-1.93c3.09-2.52 6.66-4.13 10.45-4.74l2.5 2.5ZM1.96.04 64.01 62l-1.94 1.94L.02 1.98z"/>
</svg>
