<svg viewBox="0 0 16 16" xmlns="http://www.w3.org/2000/svg">
  <path fill="#1e1e1c" d="M10.54 13.52c0 1.38-1.12 2.5-2.51 2.5s-2.51-1.12-2.51-2.5 1.12-2.5 2.51-2.5 2.51 1.12 2.51 2.5m5.04-10.75C13.4.97 10.78.02 8.01.02S2.67.95.5 2.72c-.54.44-.62 1.22-.18 1.76s1.23.62 1.76.18c1.72-1.4 3.77-2.14 5.93-2.14s4.25.75 5.97 2.18a1.256 1.256 0 0 0 1.77-.16c.44-.53.37-1.32-.17-1.76Zm-7.56.75c-2.1 0-4.09.71-5.75 2.06-.54.44-.62 1.22-.18 1.76s1.23.62 1.76.18c1.21-.98 2.65-1.5 4.16-1.5s2.98.53 4.19 1.53a1.256 1.256 0 0 0 1.77-.16c.44-.53.37-1.32-.17-1.76-1.67-1.38-3.67-2.1-5.79-2.1Zm.01 3.56c-1.34 0-2.62.46-3.68 1.32-.54.44-.62 1.22-.18 1.76.44.53 1.23.62 1.76.18 1.23-1 2.99-.99 4.2.01a1.256 1.256 0 0 0 1.77-.16c.44-.53.37-1.32-.17-1.76a5.84 5.84 0 0 0-3.71-1.35Z"/>
</svg>
