<svg viewBox="0 0 16 16" xmlns="http://www.w3.org/2000/svg">
  <path d="m14.59 10.14-.95.25 1.01.58a.746.746 0 0 1-.38 1.39c-.13 0-.26-.03-.37-.1l-1.01-.58.25.95c.11.4-.13.81-.53.92a.7.7 0 0 1-.19.03c-.33 0-.63-.22-.72-.56l-.64-2.39L8.75 9.3v2.67l1.75 1.75c.29.29.29.77 0 1.06-.15.15-.34.22-.53.22s-.38-.07-.53-.22l-.69-.69v1.16c0 .41-.34.75-.75.75s-.75-.34-.75-.75v-1.16l-.69.69c-.29.29-.77.29-1.06 0s-.29-.77 0-1.06l1.75-1.75V9.3l-2.31 1.33-.64 2.39c-.09.33-.39.56-.72.56-.06 0-.13 0-.19-.03a.75.75 0 0 1-.53-.92l.25-.95-1.01.58a.746.746 0 1 1-.75-1.29l1.01-.58-.95-.25a.75.75 0 1 1 .39-1.45l2.39.64L6.5 8 4.19 6.67l-2.39.64a.7.7 0 0 1-.19.03c-.33 0-.63-.22-.72-.56a.75.75 0 0 1 .53-.92l.95-.25-1.01-.58a.74.74 0 0 1-.27-1.02.74.74 0 0 1 1.02-.27l1.01.58-.25-.95a.75.75 0 1 1 1.45-.39l.64 2.39L7.27 6.7V4.03L5.52 2.28c-.29-.29-.29-.77 0-1.06s.77-.29 1.06 0l.69.69V.75c0-.41.34-.75.75-.75s.75.34.75.75v1.16l.69-.69c.29-.29.77-.29 1.06 0s.29.77 0 1.06L8.77 4.03V6.7l2.31-1.33.64-2.39a.75.75 0 1 1 1.45.39l-.25.95 1.01-.58a.746.746 0 0 1 .75 1.29l-1.01.58.95.25c.4.11.64.52.53.92-.09.33-.39.56-.72.56-.06 0-.13 0-.19-.03l-2.39-.64L9.54 8l2.31 1.33 2.39-.64a.75.75 0 1 1 .39 1.45Z"/>
</svg>
