<svg viewBox="0 0 48 48" xmlns="http://www.w3.org/2000/svg">
  <path d="m44.4 29.65-5.54 1.48 5.46 3.15c.6.35.8 1.11.46 1.71-.23.4-.65.63-1.08.63-.21 0-.43-.05-.62-.17l-5.46-3.15 1.48 5.54c.18.67-.22 1.35-.88 1.53a1.26 1.26 0 0 1-1.53-.89l-2.13-7.95-9.3-5.37V36.9l5.82 5.82c.49.49.49 1.28 0 1.77-.24.24-.56.37-.88.37s-.64-.12-.88-.37l-4.06-4.06v6.31a1.25 1.25 0 0 1-2.5 0v-6.31l-4.06 4.06c-.49.49-1.28.49-1.77 0s-.49-1.28 0-1.77l5.82-5.82V26.16l-9.3 5.37-2.13 7.95c-.15.56-.65.93-1.21.93a1.242 1.242 0 0 1-1.2-1.57l1.48-5.54-5.46 3.15a1.23 1.23 0 0 1-1.7-.46c-.34-.6-.14-1.36.46-1.71l5.46-3.15-5.54-1.48c-.67-.18-1.06-.86-.88-1.53s.87-1.06 1.53-.88l7.95 2.13 9.3-5.37-9.3-5.37-7.95 2.13a1.26 1.26 0 0 1-1.53-.89c-.18-.67.22-1.35.88-1.53l5.54-1.48-5.46-3.15c-.6-.35-.8-1.11-.46-1.71.35-.6 1.11-.8 1.71-.46l5.46 3.15-1.48-5.54c-.18-.67.22-1.35.88-1.53.67-.18 1.35.22 1.53.88l2.13 7.95 9.3 5.37V11.08l-5.82-5.82c-.49-.49-.49-1.28 0-1.77s1.28-.49 1.77 0l4.06 4.06v-6.3a1.25 1.25 0 0 1 2.5 0v6.31l4.06-4.06c.49-.49 1.28-.49 1.77 0s.49 1.28 0 1.77l-5.82 5.82v10.74l9.3-5.37 2.13-7.95c.18-.67.87-1.06 1.53-.88.67.18 1.06.86.88 1.53l-1.48 5.54 5.46-3.15c.6-.34 1.36-.14 1.71.46.34.6.14 1.36-.46 1.71l-5.46 3.15 5.54 1.48c.67.18 1.06.86.88 1.53-.15.56-.65.93-1.21.93-.11 0-.22-.01-.32-.04l-7.95-2.13-9.3 5.37 9.3 5.37 7.95-2.13c.67-.18 1.35.22 1.53.88.18.67-.22 1.35-.88 1.53Z"/>
</svg>
