<svg viewBox="0 0 40 40" xmlns="http://www.w3.org/2000/svg">
  <path d="M38.65 23.18a2 2 0 0 1-1.41 2.45l-2.38.64 1.73 1c.96.55 1.28 1.78.73 2.73-.37.64-1.04 1-1.73 1-.34 0-.68-.09-1-.27l-1.73-1 .64 2.38a2 2 0 0 1-1.93 2.52c-.88 0-1.69-.59-1.93-1.48l-1.67-6.24-5.96-3.44v6.89l4.57 4.57a2.004 2.004 0 0 1-1.41 3.42c-.51 0-1.02-.2-1.41-.59l-1.74-1.74v2c0 1.1-.9 2-2 2s-2-.9-2-2v-2l-1.74 1.74c-.78.78-2.05.78-2.83 0s-.78-2.05 0-2.83l4.57-4.57v-6.89l-5.96 3.44-1.67 6.24c-.24.89-1.05 1.48-1.93 1.48-.17 0-.35-.02-.52-.07a1.993 1.993 0 0 1-1.41-2.45l.64-2.38-1.73 1A1.997 1.997 0 0 1 2.71 30c-.55-.96-.22-2.18.73-2.73l1.73-1-2.38-.64a1.993 1.993 0 0 1-1.41-2.45c.29-1.07 1.37-1.7 2.45-1.41l6.24 1.67L16.03 20l-5.96-3.44-6.24 1.67c-.17.05-.35.07-.52.07a2 2 0 0 1-.52-3.93l2.38-.64-1.73-1A1.997 1.997 0 0 1 2.71 10c.55-.96 1.77-1.29 2.73-.73l1.73 1-.64-2.38a2 2 0 0 1 1.41-2.45 2 2 0 0 1 2.45 1.41l1.67 6.24 5.96 3.44V9.64l-4.57-4.57c-.78-.78-.78-2.05 0-2.83s2.05-.78 2.83 0l1.74 1.74v-2c0-1.1.9-2 2-2s2 .9 2 2v2l1.74-1.74c.78-.78 2.05-.78 2.83 0s.78 2.05 0 2.83l-4.57 4.57v6.89l5.96-3.44 1.67-6.24c.29-1.07 1.39-1.7 2.45-1.41 1.07.29 1.7 1.38 1.41 2.45l-.64 2.38 1.73-1c.95-.55 2.18-.22 2.73.73.55.96.22 2.18-.73 2.73l-1.73 1 2.38.64c1.07.29 1.7 1.38 1.41 2.45-.24.89-1.05 1.48-1.93 1.48-.17 0-.34-.02-.52-.07l-6.24-1.67L24.01 20l5.96 3.44 6.24-1.67a2 2 0 0 1 2.45 1.41Z"/>
</svg>
