<svg viewBox="0 0 16 16" xmlns="http://www.w3.org/2000/svg">
  <path d="M15.18 8.84c-.11-.41-.42-.7-.8-.83.38-.13.69-.44.8-.86.16-.6-.16-1.2-.71-1.44.6-.35.8-1.11.46-1.71-.35-.6-1.11-.8-1.71-.46.06-.6-.29-1.17-.9-1.34-.42-.11-.84.02-1.15.3.08-.4 0-.83-.32-1.14-.44-.44-1.12-.46-1.61-.11a1.25 1.25 0 1 0-2.5-.01c-.49-.35-1.17-.33-1.61.11-.31.31-.4.74-.32 1.14-.3-.27-.72-.41-1.14-.3-.6.16-.96.74-.9 1.34-.6-.35-1.36-.14-1.71.45-.34.6-.14 1.36.46 1.71-.55.25-.87.85-.71 1.45.11.42.42.72.8.86-.37.13-.69.42-.8.83-.16.6.16 1.2.71 1.44-.6.35-.8 1.11-.46 1.71.23.4.65.63 1.08.63.21 0 .43-.05.62-.17-.06.6.29 1.17.9 1.34a1.24 1.24 0 0 0 1.14-.28c-.08.39.01.82.32 1.12.44.44 1.12.46 1.61.11a1.25 1.25 0 1 0 2.5.01c.22.15.46.25.72.25.32 0 .64-.12.88-.37.31-.31.4-.73.32-1.12.22.2.51.32.82.32.11 0 .22-.01.32-.04.6-.16.96-.74.9-1.34a1.23 1.23 0 0 0 1.7-.46c.34-.6.14-1.36-.46-1.71.55-.25.87-.85.71-1.45Zm-4.43-5.6-.55 2.05-.95.55v-1.1zm-5.5 0 1.5 1.5v1.1l-.95-.55zM2.5 8l2.05-.55.95.55-.95.55zm2.75 4.76.55-2.05.95-.55v1.1zm5.5 0-1.5-1.5v-1.1l.95.55zM10.5 8l.95-.55L13.5 8l-2.05.55z"/>
</svg>
