<svg viewBox="0 0 24 24" xmlns="http://www.w3.org/2000/svg">
  <path d="M23.29 13.79c.21.8-.26 1.62-1.06 1.84l-.64.17.25.15a1.501 1.501 0 0 1-1.5 2.6l-.26-.15.17.65c.21.8-.26 1.62-1.06 1.84a1.504 1.504 0 0 1-1.84-1.06l-.95-3.54-2.91-1.68v3.36l2.59 2.59c.59.59.59 1.54 0 2.12-.29.29-.68.44-1.06.44s-.77-.15-1.06-.44l-.47-.47v.29c0 .83-.67 1.5-1.5 1.5s-1.5-.67-1.5-1.5v-.29l-.47.47c-.59.59-1.54.59-2.12 0s-.59-1.54 0-2.12l2.59-2.59v-3.36l-2.91 1.68-.95 3.54a1.504 1.504 0 0 1-1.84 1.06c-.8-.22-1.28-1.04-1.06-1.84l.17-.65-.26.15a1.502 1.502 0 0 1-1.5-2.6l.25-.15-.64-.17a1.501 1.501 0 1 1 .78-2.9l3.54.95L8.98 12l-2.91-1.68-3.54.95a1.504 1.504 0 0 1-1.84-1.06c-.21-.8.26-1.62 1.06-1.84l.64-.17-.25-.15a1.501 1.501 0 0 1 1.5-2.6l.26.15-.17-.65c-.21-.8.26-1.62 1.06-1.84.8-.21 1.62.26 1.84 1.06l.95 3.54 2.91 1.68V6.03L7.9 3.44c-.59-.59-.59-1.54 0-2.12s1.54-.59 2.12 0l.47.47V1.5c0-.83.67-1.5 1.5-1.5s1.5.67 1.5 1.5v.29l.47-.47c.59-.59 1.54-.59 2.12 0s.59 1.54 0 2.12l-2.59 2.59v3.36l2.91-1.68.95-3.54a1.501 1.501 0 1 1 2.9.78l-.17.65.26-.15c.72-.42 1.64-.17 2.05.55s.17 1.64-.55 2.05l-.25.15.64.17a1.501 1.501 0 1 1-.78 2.9l-3.54-.95L15 12l2.91 1.68 3.54-.95c.8-.21 1.62.26 1.84 1.06"/>
</svg>
