<svg viewBox="0 0 32 32" xmlns="http://www.w3.org/2000/svg">
  <path d="m28.88 20.13-1.52.41 1.85 1.07c.84.48 1.12 1.55.64 2.39a1.75 1.75 0 0 1-2.39.65l-1.85-1.07.41 1.52a1.745 1.745 0 0 1-1.69 2.2c-.77 0-1.48-.52-1.69-1.3l-1.31-4.9-3.58-2.06v4.13l3.59 3.59c.68.68.68 1.79 0 2.48-.34.34-.79.51-1.24.51s-.9-.17-1.24-.51l-1.11-1.11v2.14c0 .97-.78 1.75-1.75 1.75s-1.75-.78-1.75-1.75v-2.14l-1.11 1.11c-.68.68-1.79.68-2.48 0s-.68-1.79 0-2.48l3.59-3.59v-4.13l-3.58 2.06L9.36 26c-.21.78-.92 1.3-1.69 1.3q-.225 0-.45-.06a1.753 1.753 0 0 1-1.24-2.14l.41-1.52-1.85 1.07c-.28.16-.58.23-.87.23-.61 0-1.19-.31-1.52-.88-.48-.84-.2-1.91.64-2.39l1.85-1.07-1.52-.41a1.748 1.748 0 1 1 .9-3.38l4.9 1.31L12.5 16l-3.58-2.06-4.9 1.31q-.225.06-.45.06c-.77 0-1.48-.52-1.69-1.3-.25-.93.3-1.89 1.24-2.14l1.52-.41-1.85-1.07a1.75 1.75 0 0 1 1.75-3.03l1.85 1.07-.41-1.52c-.25-.93.3-1.89 1.24-2.14s1.9.3 2.14 1.24l1.31 4.9 3.58 2.06V8.84l-3.59-3.59c-.68-.68-.68-1.79 0-2.48s1.79-.68 2.48 0l1.11 1.11V1.75C14.25.78 15.03 0 16 0s1.75.78 1.75 1.75v2.14l1.11-1.11c.68-.68 1.79-.68 2.48 0s.68 1.79 0 2.48l-3.59 3.59v4.13l3.58-2.06 1.31-4.9a1.748 1.748 0 1 1 3.38.9l-.41 1.52 1.85-1.07c.84-.48 1.91-.2 2.39.64s.2 1.91-.64 2.39l-1.85 1.07 1.52.41c.93.25 1.49 1.21 1.24 2.14-.21.78-.92 1.3-1.69 1.3q-.225 0-.45-.06l-4.9-1.31-3.58 2.06 3.58 2.06 4.9-1.31c.94-.25 1.89.31 2.14 1.24s-.3 1.89-1.24 2.14Z"/>
</svg>
