<svg viewBox="0 0 24 24" xmlns="http://www.w3.org/2000/svg">
  <path d="M14.67 3.14H7.05L10.69.02h7.07zm1.24 5.43h2.73l.35-.38V1.27l-3.08 3.11zm5.6 5.56 2.48 2.51V11.7zm-2.36-.14 3.74-3.67h-8.94l3.74 3.67c.4.39 1.05.39 1.45 0Zm-8.22-4.32H6.16V4.9h7.99v3.68h-3.23v1.1ZM9.44 7.85h3.46V6.1H9.44zm5.48 6.61.36-.38-1.33-1.31.97 1.68Zm3.5 1.58c-.71 0-1.41-.26-1.95-.79l-.11-.11-.66.68.85 1.47-.35.61h6.57l-2.52-2.55c-.52.45-1.17.69-1.83.69m-4.3-1.22 1.42 2.47-3.89 6.74H3.88L0 17.28l3.89-6.74h7.77l2.46 4.27Zm-3.5 1.15a.544.544 0 1 0-1.07-.21l-.14.74h-.06l.15-1.7c.03-.3-.2-.56-.49-.59-.3-.03-.56.2-.59.49l-.15 1.77h-.03v-2.46c0-.3-.24-.53-.53-.53s-.53.24-.53.53v2.11c-.08-.66-.27-1.91-.24-1.67-.03-.29-.3-.5-.6-.46s-.51.3-.47.6l.23 3.34-.69-.75a.505.505 0 0 0-.76 0c-.21.23-.21.61 0 .84l1.2 1.8s.35.76 1.12.76c.24 0 .46-.09.65-.23h1.04c.82 0 1.49-.67 1.49-1.49v-1.2l.49-1.71Z"/>
</svg>
