<svg viewBox="0 0 64 64" xmlns="http://www.w3.org/2000/svg">
  <path d="M34.05 20.89h-6.34v-2.75h6.34zm29.94 6.49V50.4H39.93l1.59-2.75h17.8l-7.9-7.97-.26.26c-1.16 1.14-2.69 1.71-4.22 1.71s-3.05-.57-4.22-1.71l-.6-.59-2.23 2.3-1.43-2.48 1.69-1.75-6.22-6.08-2.37-4.1h-2.1v-2.23h7.85V14.57H16.36v12.66h-2.75V11.82h.02L26.83 0h24.99v24.7l-.3.33h12.47zM38.13 11.84l9.01-9.1H27.88l-10.13 9.1zm1.94 1.94v11.25h7.72l1.27-1.39V4.71zm19.59 13.99H34.22l10.43 10.2c1.26 1.23 3.32 1.24 4.58 0zm1.58 2.3-7.86 7.68 7.86 7.93zM41.43 46.06 31.07 63.99H10.35L0 46.06l10.36-17.93h20.72l10.36 17.93Zm-3.18 0-8.77-15.18H11.94L3.17 46.06l8.77 15.19h17.54zm-11.07-5.18c-.78-.15-1.54.36-1.7 1.14l-.38 1.96h-.15l.39-4.52c.07-.8-.52-1.49-1.32-1.56s-1.5.52-1.57 1.32l-.4 4.71h-.07v-6.54c0-.79-.64-1.42-1.43-1.42s-1.43.64-1.43 1.42V43c-.21-1.78-.72-5.06-.65-4.44v.03c-.09-.79-.8-1.35-1.59-1.26s-1.35.8-1.26 1.59l.62 8.9-1.84-1.99c-.56-.62-1.46-.62-2.01 0-.56.62-.56 1.62 0 2.24l3.19 4.79c.09.1.94 2.03 2.97 2.03.64 0 1.24-.23 1.73-.61h2.77c2.19 0 3.97-1.77 3.97-3.96v-3.19l1.3-4.54c.15-.78-.36-1.54-1.14-1.7Z"/>
</svg>
