<svg viewBox="0 0 48 48" xmlns="http://www.w3.org/2000/svg">
  <path d="M25.32 16.11h-4.76v-2.5h4.76zm22.67 2.67v19.48H29.94l1.44-2.5h12.36l-5.4-5.45-.04.04c-.91.89-2.11 1.34-3.32 1.34s-2.4-.45-3.31-1.34l-.29-.29-1.18 1.22-1.3-2.25.7-.72-2.55-2.5-3.23-5.59h-2.14v-1.44h5.89v-7.39H12.29v8.83h-2.5V8.89L19.82 0h19.04v18.78zM28.28 8.89l6.33-6.39H20.77l-7.22 6.39zm1.78 9.89h5.47l.83-.91V4.29l-6.3 6.36zm13.93 2.5H25.98l7.44 7.28c.87.85 2.27.85 3.13 0zm1.5 2.03-5.36 5.25 5.36 5.41zM31.07 34.55 23.3 48H7.76L0 34.55 7.77 21.1h15.54l7.77 13.45Zm-2.88 0L21.86 23.6H9.21L2.88 34.55 9.21 45.5h12.65zm-7.81-3.89c-.59-.12-1.16.27-1.27.86l-.29 1.47h-.11L19 29.6c.05-.6-.39-1.12-.99-1.17s-1.12.39-1.17.99l-.3 3.53h-.05v-4.9a1.071 1.071 0 0 0-2.14 0v4.2c-.16-1.33-.54-3.8-.49-3.33v.02a1.07 1.07 0 0 0-1.19-.94c-.59.07-1.01.6-.95 1.19l.46 6.67-1.38-1.49a1 1 0 0 0-1.51 0c-.42.46-.42 1.22 0 1.68l2.39 3.6c.07.08.71 1.52 2.23 1.52.48 0 .93-.17 1.3-.46h2.08a2.97 2.97 0 0 0 2.97-2.97v-2.39l.98-3.41c.12-.59-.27-1.16-.86-1.27Z"/>
</svg>
