<svg viewBox="0 0 32 32" xmlns="http://www.w3.org/2000/svg">
  <path d="M16.71 11.08H12.5v-2h4.21zM32 12.52v13.32H20.11l1.15-2h7.34l-3.21-3.24c-.63.57-1.42.86-2.23.86-.84 0-1.69-.31-2.33-.94l-.25-.25-.28.29-4.26-7.37h-1.93v-.67h3.93v-4.6H8.19v5.26h-2V5.92h.01L12.99 0h12.92v12.52zM18.62 5.93l3.89-3.92h-8.77L9.23 5.93zm1.42 6.59h3.41l.46-.51V3.43l-3.87 3.91zm8.71 2H17.56l4.67 4.56c.51.5 1.34.5 1.86 0l4.67-4.56ZM30 16.1l-3.17 3.1L30 22.4v-6.31Zm-9.29 6.93L15.53 32H5.18L0 23.03l5.18-8.97h10.36l5.18 8.97Zm-2.3 0-4.02-6.97H6.33l-4.02 6.97L6.33 30h8.05l4.02-6.97Zm-4.82-2.59a.726.726 0 0 0-.85.57l-.19.98h-.08l.19-2.26c.03-.4-.26-.75-.66-.78s-.75.26-.78.66l-.2 2.36h-.03V18.7c0-.39-.32-.71-.71-.71s-.71.32-.71.71v2.8c-.11-.89-.36-2.53-.32-2.22a.727.727 0 0 0-.8-.62c-.39.05-.68.4-.63.79l.31 4.45-.92-.99c-.28-.31-.73-.31-1.01 0s-.28.81 0 1.12l1.59 2.4c.05.05.47 1.01 1.49 1.01.32 0 .62-.11.86-.3h1.39c1.09 0 1.98-.89 1.98-1.98v-1.59l.65-2.27a.726.726 0 0 0-.57-.85Z"/>
</svg>
