<svg viewBox="0 0 48 48" xmlns="http://www.w3.org/2000/svg">
  <path d="M29.55 7.01H13.53L21.44 0h15.05zm1.77 10.58h5.98l.94-1.03V1.8l-6.92 6.98v8.82Zm10.74 10.37 5.94 6V22.14zm-3.65.07 8.1-7.93H26.83l8.1 7.93c.96.94 2.51.94 3.47 0Zm-15.89-7.81H12.31V9.52h16.51v8.08h-6.3zm-1.27-5.65h5.09v-2.5h-5.09zm3.77 7.75 4.19 7.26 1.82-1.88-6.01-5.88zm15.14 7.5c-.96.94-2.22 1.41-3.48 1.41s-2.52-.47-3.48-1.41l-.38-.37-2.3 2.38 1.57 2.72-.7 1.21h14.87l-5.98-6.04-.1.1ZM23.3 21.09l7.77 13.46-7.77 13.46H7.77L0 34.55l7.77-13.46h15.54Zm-2.06 10.84c.12-.59-.27-1.16-.86-1.27-.59-.12-1.16.27-1.27.86l-.29 1.47h-.11L19 29.6c.05-.6-.39-1.12-.99-1.17s-1.12.39-1.17.99l-.3 3.53h-.05v-4.91a1.071 1.071 0 0 0-2.14 0v4.21c-.16-1.33-.54-3.8-.49-3.33v.02a1.07 1.07 0 0 0-1.19-.94c-.59.07-1.01.6-.95 1.19l.46 6.68-1.38-1.49a1 1 0 0 0-1.51 0c-.42.46-.42 1.22 0 1.68l2.39 3.6c.07.08.71 1.52 2.23 1.52.48 0 .93-.17 1.3-.46h2.08a2.97 2.97 0 0 0 2.97-2.97v-2.39l.98-3.41Z"/>
</svg>
