<svg viewBox="0 0 32 32" xmlns="http://www.w3.org/2000/svg">
  <path fill="#1d1d1b" d="m13.09 11.77 7.64 4-7.64 4zM32.02.08v32h-32v-32zm-1.78 14.89c0-2.22-.27-4.53-.27-4.53s-.27-1.96-1.16-2.84c-1.07-1.16-2.31-1.16-2.84-1.24-4-.27-9.96-.27-9.96-.27s-5.96 0-9.96.27c-.53.09-1.78.09-2.84 1.24-.89.89-1.16 2.84-1.16 2.84s-.27 2.31-.27 4.62v2.13c0 2.31.27 4.62.27 4.62s.27 1.96 1.16 2.84c1.07 1.16 2.49 1.07 3.11 1.24 2.31.18 9.69.18 9.69.18s5.96 0 9.96-.27c.53-.09 1.78-.09 2.84-1.24.89-.89 1.16-2.84 1.16-2.84s.27-2.31.27-4.62z"/>
</svg>
