<svg viewBox="0 0 48 48" xmlns="http://www.w3.org/2000/svg">
  <path fill="#1d1d1b" d="m19.62 17.54 11.47 6-11.47 6zM48.02 0v48h-48V0zm-2.67 22.34c0-3.33-.4-6.8-.4-6.8s-.4-2.93-1.73-4.27c-1.6-1.73-3.47-1.73-4.27-1.87-6-.4-14.93-.4-14.93-.4s-8.93 0-14.93.4c-.8.13-2.67.13-4.27 1.87-1.33 1.33-1.73 4.27-1.73 4.27s-.4 3.47-.4 6.93v3.2c0 3.47.4 6.93.4 6.93s.4 2.93 1.73 4.27c1.6 1.73 3.73 1.6 4.67 1.87 3.47.27 14.53.27 14.53.27s8.93 0 14.93-.4c.8-.13 2.67-.13 4.27-1.87 1.33-1.33 1.73-4.27 1.73-4.27s.4-3.47.4-6.93z"/>
</svg>
