<svg viewBox="0 0 64 64" xmlns="http://www.w3.org/2000/svg">
  <path fill="none" d="M0 0h64v64H0z"/>
  <path fill="#020303" d="M26.13 39.38v-16l15.29 8zm33.78-18.67s-.53-3.91-2.31-5.69c-2.13-2.31-4.62-2.31-5.69-2.49C43.91 12 32 12 32 12s-11.91 0-19.91.53c-1.07.18-3.56.18-5.69 2.49-1.78 1.78-2.31 5.69-2.31 5.69s-.53 4.62-.53 9.24v4.27c0 4.62.53 9.24.53 9.24s.53 3.91 2.31 5.69c2.13 2.31 4.98 2.13 6.22 2.49C17.24 52 32 52 32 52s11.91 0 19.91-.53c1.07-.18 3.56-.18 5.69-2.49 1.78-1.78 2.31-5.69 2.31-5.69s.53-4.62.53-9.24v-4.27c0-4.44-.53-9.07-.53-9.07"/>
</svg>
