<svg viewBox="0 0 40 40" xmlns="http://www.w3.org/2000/svg">
  <path d="M16.33 24.1v-10l9.56 5zm21.11-11.67S37.11 9.99 36 8.87c-1.33-1.44-2.89-1.44-3.56-1.56-5-.33-12.44-.33-12.44-.33s-7.44 0-12.44.33c-.67.11-2.22.11-3.56 1.56-1.11 1.11-1.44 3.56-1.44 3.56s-.33 2.89-.33 5.78v2.67c0 2.89.33 5.78.33 5.78S2.89 29.1 4 30.22c1.33 1.44 3.11 1.33 3.89 1.56C10.78 32 20 32 20 32s7.44 0 12.44-.33c.67-.11 2.22-.11 3.56-1.56 1.11-1.11 1.44-3.56 1.44-3.56s.33-2.89.33-5.78V18.1c0-2.78-.33-5.67-.33-5.67"/>
</svg>
