<svg viewBox="0 0 24 24" xmlns="http://www.w3.org/2000/svg">
  <path fill="none" d="M0 .01h24v24H0z"/>
  <path fill="#020303" d="M9.8 14.78v-6l5.73 3zm12.66-7s-.2-1.47-.87-2.13c-.8-.87-1.73-.87-2.13-.93-3-.2-7.47-.2-7.47-.2s-4.47 0-7.47.2c-.4.07-1.33.07-2.13.93-.67.67-.87 2.13-.87 2.13s-.2 1.73-.2 3.47v1.6c0 1.73.2 3.47.2 3.47s.2 1.47.87 2.13c.8.87 1.87.8 2.33.93 1.73.13 7.27.13 7.27.13s4.47 0 7.47-.2c.4-.07 1.33-.07 2.13-.93.67-.67.87-2.13.87-2.13s.2-1.73.2-3.47v-1.6c0-1.67-.2-3.4-.2-3.4"/>
</svg>
