<svg viewBox="0 0 40 40" xmlns="http://www.w3.org/2000/svg">
  <path fill="#1d1d1b" d="m16.35 14.62 9.56 5-9.56 5zM40.02 0v40h-40V0zM37.8 18.62c0-2.78-.33-5.67-.33-5.67s-.33-2.44-1.44-3.56c-1.33-1.44-2.89-1.44-3.56-1.56-5-.33-12.44-.33-12.44-.33s-7.44 0-12.44.33c-.67.11-2.22.11-3.56 1.56-1.11 1.11-1.44 3.56-1.44 3.56s-.33 2.89-.33 5.78v2.67c0 2.89.33 5.78.33 5.78s.33 2.44 1.44 3.56c1.33 1.44 3.11 1.33 3.89 1.56 2.89.22 12.11.22 12.11.22s7.44 0 12.44-.33c.67-.11 2.22-.11 3.56-1.56 1.11-1.11 1.44-3.56 1.44-3.56s.33-2.89.33-5.78z"/>
</svg>
