<?xml version="1.0" encoding="UTF-8"?>
<svg id="a" data-name="3219" xmlns="http://www.w3.org/2000/svg" viewBox="0 0 16 16">
  <path d="M15.14,7.13c-.69-.77-1.98-.75-2.64-.01l-.79.84V1.85C11.71.83,10.88,0,9.87,0s-1.85.83-1.85,1.85c0,.02,0,.04,0,.06-.02.22-.04.5-.05.84-.1-.02-.2-.03-.3-.03-.79,0-1.46.5-1.72,1.2-.15-.04-.3-.07-.46-.07-.88,0-1.61.61-1.8,1.43-.13-.03-.26-.05-.4-.05-1.02,0-1.86.83-1.86,1.86v1.15c0,.51.21.97.54,1.3v2.19c0,2.08,1.7,3.78,3.79,3.78h1.88c.47.31,1.01.47,1.56.47.83,0,2-.32,2.88-1.86l3.07-4.29c.68-.76.68-1.96,0-2.72ZM7.67,4.22c.19,0,.34.15.34.34v3.71c0,.19-.15.34-.34.34s-.32-.14-.33-.31c0-.03,0-.05,0-.08v-2.51s-.01-.09-.01-.14v-1.02c0-.19.15-.34.34-.34ZM5.48,5.36c.17,0,.31.13.34.29v2.63s0,0,0,.01c-.03.17-.17.3-.34.3s-.32-.14-.35-.31c0,0,0,0,0-.01v-1.15s0-.07-.01-.11v-1.28c0-.2.16-.36.36-.36ZM2.93,7.1c0-.2.16-.36.36-.36.18,0,.32.13.34.3v1.18s0,.04,0,.06c-.01.18-.16.33-.35.33s-.36-.16-.36-.36v-1.15ZM13.98,8.91l-3.07,4.3s-.11.15-.14.2c-.42.74-.94,1.1-1.58,1.1-.3,0-.6-.11-.86-.31-.13-.1-.29-.16-.46-.16h-.21c0-.07-.01-.14-.02-.22,0-.02.01-.03.01-.05,0-.92.46-1.61.87-1.61s.75-.34.75-.75-.34-.75-.75-.75c-.84,0-1.56.55-1.98,1.39-.31-.19-.67-.3-1.05-.3-.41,0-.75.34-.75.75s.34.75.75.75c.36,0,.65.35.67.8h-.41c-1.26,0-2.28-1.02-2.28-2.28v-1.66c.34-.04.66-.16.93-.37.31.22.68.35,1.08.35s.77-.13,1.08-.35c.31.23.69.38,1.11.38,1.01,0,1.84-.83,1.84-1.84v-1.82s0,0,0,0V2.24s0,0,0,0c0-.12,0-.22,0-.29,0-.03,0-.06,0-.09,0-.19.16-.35.35-.35s.35.16.35.35v7.99c0,.31.18.58.47.7.28.11.61.04.82-.18l2.1-2.22c.12-.14.3-.14.42,0,.17.19.17.52-.05.78Z" fill="#1e1e1c"/>
</svg>