<?xml version="1.0" encoding="UTF-8"?>
<svg id="a" data-name="3219" xmlns="http://www.w3.org/2000/svg" viewBox="0 0 40 40">
  <path d="M37.18,18.65h0c-.74-.83-1.74-1.28-2.8-1.28h0c-1.07,0-2.06.45-2.78,1.26l-3.39,3.58V3.93C28.21,1.76,26.45,0,24.29,0s-3.85,1.69-3.92,3.8v.13s0,.07,0,.11c-.1.78-.15,2.02-.18,3.93-.47-.2-.98-.31-1.51-.31-1.95,0-3.56,1.44-3.85,3.32-.53-.26-1.11-.41-1.75-.41-2.17,0-3.93,1.76-3.93,3.93h0c-.51-.24-1.08-.38-1.69-.38-2.17,0-3.93,1.76-3.93,3.93v2.99c0,1.19.54,2.24,1.38,2.96l.02,5.96c0,4.89,3.98,8.87,8.86,8.87h5.04c1.13.78,2.41,1.19,3.74,1.19,1.9,0,4.6-.75,6.66-4.33l.06-.1h0l7.93-11.08c1.43-1.65,1.42-4.2-.04-5.83ZM18.67,9.91c.91,0,1.66.74,1.66,1.66v9.48c0,.91-.74,1.66-1.66,1.66s-1.58-.68-1.64-1.54c0-.07.02-.14.02-.22v-6.46c0-.12-.02-.22-.03-.34v-2.59c0-.91.74-1.66,1.66-1.66ZM13.13,12.81c.81,0,1.49.58,1.64,1.34v6.9s.01.08.01.12c-.11.82-.8,1.46-1.65,1.46h-.04c-.86,0-1.57-.66-1.66-1.5,0-.03.01-.07.01-.1v-2.99c0-.1-.02-.19-.03-.28v-3.27c0-.92.75-1.68,1.72-1.68ZM5.79,18.04c0-.92.75-1.68,1.72-1.68.83,0,1.51.61,1.65,1.4v3.19c0,.06.02.12.02.18-.05.88-.78,1.58-1.67,1.58h-.04c-.92,0-1.68-.75-1.68-1.68v-2.99ZM35.5,23.03s-.05.06-.08.1l-7.95,11.1c-.07.09-.12.18-.2.31-1.22,2.13-2.81,3.21-4.71,3.21-.95,0-1.88-.33-2.68-.95-.2-.15-.44-.24-.69-.24h-1.33s.02-.07.02-.11c0-.23-.04-.45-.06-.67,0-.05.03-.09.03-.13,0-2.66,1.37-4.9,3-4.9.62,0,1.12-.5,1.12-1.13s-.5-1.13-1.12-1.13c-2.1,0-3.87,1.6-4.71,3.97-.82-.74-1.87-1.2-3.02-1.2-.62,0-1.12.5-1.12,1.13s.5,1.13,1.12,1.13c1.39,0,2.51,1.32,2.51,2.94,0,.04.02.07.02.11h-1.87c-3.65,0-6.61-2.97-6.61-6.62l-.02-5.02c.1,0,.2.03.3.03h.04c1.11,0,2.11-.47,2.82-1.21.71.7,1.68,1.13,2.75,1.13h.04c1.07,0,2.03-.43,2.74-1.12.71.74,1.7,1.2,2.81,1.2,2.15,0,3.91-1.75,3.91-3.91v-4.66s0-.01,0-.02V5.25s0-.02,0-.03c0-.5.02-.89.02-1.13,0-.05.01-.11.01-.17,0-.92.75-1.68,1.68-1.68s1.68.75,1.68,1.68v21.11c0,.46.27.88.7,1.05.42.17.92.06,1.23-.27l5.35-5.66c.62-.69,1.63-.69,2.25,0,.7.78.7,2.1,0,2.88Z" fill="#1e1e1c"/>
</svg>