<?xml version="1.0" encoding="UTF-8"?>
<svg id="a" data-name="3219" xmlns="http://www.w3.org/2000/svg" viewBox="0 0 48 48">
  <path d="M6.56,27.87h0c-1.05-.29-1.83-1.24-1.83-2.38v-3.99c0-1.36,1.11-2.47,2.54-2.47s2.47,1.11,2.47,2.47v3.99s-.01.09-.01.14h0s0,0,0,0c-.03.49-.19.94-.46,1.31,0,0,0,0,0,0-.09.12-.19.24-.29.34-.02.01-.03.03-.05.04-.1.09-.2.17-.3.24-.04.03-.09.05-.13.07-.09.05-.18.1-.27.14-.08.03-.16.05-.25.08-.07.02-.13.05-.21.06-.16.03-.32.05-.49.05h-.07c-.13,0-.26-.02-.38-.04-.09-.01-.18-.03-.26-.06,0,0,0,0,0,0ZM12.49,26.51c.07.13.14.25.23.37,0,.01.02.02.03.03.08.1.17.2.26.29.03.02.05.04.08.07.09.07.17.14.27.2.05.03.1.06.16.09.08.04.16.09.24.12.08.03.17.06.26.08.06.02.12.04.19.06.16.03.32.05.48.05h.07c.16,0,.32-.02.48-.05.06-.01.12-.04.18-.05.09-.02.18-.05.26-.08.08-.03.15-.07.23-.11.06-.03.11-.06.17-.09.09-.06.17-.12.25-.19.03-.03.07-.05.1-.08.09-.08.17-.17.25-.27.01-.02.03-.03.04-.05.08-.11.15-.22.22-.34,0,0,0-.01.01-.02.07-.13.12-.26.17-.4,0,0,0,0,0,0,.07-.23.12-.48.12-.73v-8.61c0-1.36-1.11-2.47-2.47-2.47-1.44,0-2.54,1.11-2.54,2.47v8.61c0,.4.11.78.28,1.12,0,0,0,0,0,0ZM44.71,24.16c-.92-1.02-2.45-1.02-3.36,0l-7.12,7.53c-.35.37-.89.49-1.37.3-.48-.19-.79-.65-.79-1.16V2.49c.01-1.37-1.1-2.48-2.47-2.48s-2.48,1.11-2.48,2.48c0,.07,0,.13-.01.19-.03,1.18-.03,22.83-.03,22.83,0,2.73-2.22,4.95-4.95,4.95-1.49,0-2.82-.68-3.73-1.73-.91.99-2.2,1.62-3.65,1.62h-.07c-1.45,0-2.75-.64-3.66-1.63-.91,1.06-2.24,1.74-3.75,1.74h-.07c-.22,0-.43-.04-.64-.06l.02,6.96c0,5,4.06,9.06,9.05,9.06h2.78c-.04-.12-.08-.25-.08-.39,0-2.29-1.61-4.16-3.59-4.16-.69,0-1.25-.56-1.25-1.25s.56-1.25,1.25-1.25c1.59,0,3.04.68,4.13,1.78,1.04-3.24,3.37-5.46,6.16-5.46.69,0,1.25.56,1.25,1.25s-.56,1.25-1.25,1.25c-2.3,0-4.24,3.1-4.24,6.78,0,.04-.02.07-.02.11.04.31.07.63.07.95,0,.14-.04.27-.08.39h2.07c.28,0,.55.09.77.26,1.11.87,2.4,1.32,3.72,1.32,2.62,0,4.8-1.48,6.48-4.39.1-.17.17-.29.25-.39l10.58-14.79s.06-.07.09-.11c1.01-1.13,1.01-3.04,0-4.17ZM19.7,25.68s0,0,0,0c.03.48.2.92.47,1.28,0,0,0,0,0,0,.09.12.18.22.28.32.02.02.04.03.06.05.09.08.19.16.29.23.04.03.09.05.14.07.09.05.17.1.26.14.08.03.16.05.24.08.07.02.13.05.2.06.16.03.32.05.48.05,1.35,0,2.45-1.1,2.45-2.45v-12.61c0-1.35-1.1-2.45-2.45-2.45s-2.45,1.1-2.45,2.45v12.61c0,.06.01.11.02.16h0Z" fill="#1e1e1c"/>
</svg>