<?xml version="1.0" encoding="UTF-8"?>
<svg id="a" data-name="3219" xmlns="http://www.w3.org/2000/svg" viewBox="0 0 32 32">
  <path d="M29.85,14.73c-.61-.68-1.44-1.06-2.32-1.06s-1.71.38-2.3,1.04l-2.54,2.69V3.26c0-1.79-1.45-3.25-3.24-3.25s-3.19,1.4-3.24,3.14c0,.03,0,.07,0,.1,0,.03,0,.06,0,.09-.07.59-.12,1.47-.14,2.75-.35-.13-.72-.21-1.12-.21-1.56,0-2.87,1.12-3.16,2.6-.4-.17-.85-.27-1.32-.27-1.74,0-3.15,1.38-3.23,3.1-.39-.16-.82-.25-1.27-.25-1.79,0-3.24,1.46-3.24,3.25v2.4c0,.97.43,1.82,1.1,2.42v4.73c.01,3.97,3.24,7.2,7.21,7.2h4.01c.91.62,1.95.95,3.03.95,1.55,0,3.75-.61,5.42-3.52l6.39-8.95c1.18-1.36,1.17-3.46-.04-4.8ZM14.96,7.89c.68,0,1.23.55,1.23,1.23v7.6c0,.68-.55,1.23-1.23,1.23s-1.18-.52-1.21-1.17c0-.05.01-.09.01-.14v-5.18c0-.09-.02-.18-.03-.27v-2.07c0-.68.55-1.23,1.23-1.23ZM10.51,10.22c.64,0,1.15.49,1.22,1.11v5.39s0,.02,0,.04c-.06.63-.58,1.13-1.22,1.13h-.04c-.65,0-1.17-.51-1.22-1.15,0-.01,0-.02,0-.04v-2.4c0-.08-.02-.15-.02-.23v-2.61c0-.69.56-1.25,1.28-1.25ZM4.73,14.31c0-.69.56-1.25,1.28-1.25.65,0,1.16.5,1.22,1.13v2.45s.01.08.01.12c-.03.66-.57,1.19-1.23,1.19h-.04c-.69,0-1.24-.56-1.24-1.25v-2.4ZM28.37,18.25s-.05.06-.07.09l-6.37,8.9c-.06.07-.1.15-.16.26-.97,1.7-2.18,2.52-3.69,2.52-.74,0-1.46-.26-2.09-.74-.17-.14-.39-.21-.61-.21h-1.07c.07-.14.12-.28.12-.45,0-.18-.03-.35-.05-.53,0-.04.02-.07.02-.11,0-.72.13-1.39.35-1.98l1.05-1.53c.28-.21.59-.32.91-.32.55,0,1-.45,1-1s-.45-1-1-1c-1.68,0-3.11,1.25-3.82,3.11-.66-.55-1.48-.89-2.37-.89-.55,0-1,.45-1,1s.45,1,1,1c1.06,0,1.91,1.01,1.91,2.25,0,.16.05.31.12.45h-1.5c-2.87,0-5.2-2.33-5.2-5.21v-3.91s.08.01.13.01h.04c.88,0,1.69-.36,2.27-.93.58.54,1.35.87,2.19.87h.04c.85,0,1.61-.33,2.19-.86.58.57,1.38.93,2.26.93,1.78,0,3.23-1.45,3.23-3.23v-3.73s0-.01,0-.02V4.06s0,0,0,0c0-.27,0-.5.01-.65,0-.05,0-.09,0-.14,0-.69.56-1.25,1.24-1.25s1.24.56,1.24,1.25v16.66c0,.41.24.78.62.93.38.15.81.06,1.1-.24l4.29-4.54c.46-.51,1.2-.51,1.65,0h0c.53.59.53,1.59,0,2.18Z" fill="#1e1e1c"/>
</svg>