<?xml version="1.0" encoding="UTF-8"?>
<svg id="a" data-name="3219" xmlns="http://www.w3.org/2000/svg" viewBox="0 0 40 40">
  <path d="M34.66,13.68H13.65v-3.4c0-3.5,2.85-6.35,6.35-6.35s6.35,2.85,6.35,6.35h4C30.35,4.58,25.71-.06,20-.06s-10.35,4.64-10.35,10.35v3.4h-4.31c-.81,0-1.47.66-1.47,1.47v21.41c0,1.86,1.51,3.37,3.37,3.37h25.51c1.86,0,3.37-1.51,3.37-3.37V15.15c0-.81-.66-1.47-1.47-1.47ZM22.28,27.27v1.98c0,1.23-.99,2.22-2.22,2.22s-2.22-.99-2.22-2.22v-1.98c-.68-.61-1.11-1.48-1.11-2.47,0-1.84,1.49-3.33,3.33-3.33s3.33,1.49,3.33,3.33c0,.98-.43,1.86-1.11,2.47Z" fill="#1e1e1c"/>
</svg>