<?xml version="1.0" encoding="UTF-8"?>
<svg id="a" data-name="3219" xmlns="http://www.w3.org/2000/svg" viewBox="0 0 32 32">
  <path d="M27.67,10.98H11.06v-2.54c0-2.72,2.21-4.93,4.94-4.93s4.94,2.21,4.94,4.93h3.5C24.44,3.79,20.65,0,16,0S7.56,3.79,7.56,8.44v2.54h-3.23c-.74,0-1.35.6-1.35,1.35v16.67c0,1.66,1.35,3,3,3h20.04c1.66,0,3-1.35,3-3V12.33c0-.74-.6-1.35-1.35-1.35ZM17.83,21.97v1.58c0,.98-.8,1.78-1.78,1.78s-1.78-.8-1.78-1.78v-1.58c-.54-.49-.89-1.19-.89-1.98,0-1.47,1.2-2.67,2.67-2.67s2.67,1.2,2.67,2.67c0,.79-.35,1.49-.89,1.98Z" fill="#1e1e1c"/>
</svg>