<?xml version="1.0" encoding="UTF-8"?>
<svg id="a" data-name="3219" xmlns="http://www.w3.org/2000/svg" viewBox="0 0 32 32">
  <path d="M18.87,19.62c0,1.58-1.29,2.87-2.87,2.87s-2.87-1.29-2.87-2.87,1.29-2.87,2.87-2.87,2.87,1.29,2.87,2.87ZM28.4,7.08v24.89H3.62V.01h19.08l5.7,7.07ZM21.94,18.52l2.06-1.19-2.02-3.49-2.07,1.2c-.56-.47-1.19-.85-1.89-1.1v-2.39h-4.04v2.39c-.7.25-1.33.62-1.89,1.1l-2.07-1.2-2.02,3.5,2.06,1.19c-.07.36-.11.72-.11,1.1s.04.74.11,1.1l-2.06,1.19,2.02,3.5,2.07-1.2c.55.47,1.19.85,1.89,1.1v2.39h4.04v-2.39c.7-.25,1.33-.62,1.89-1.1l2.07,1.2,2.02-3.5-2.06-1.19c.07-.36.11-.72.11-1.1s-.05-.74-.11-1.1ZM26.06,8.07l-5.72-7.06v5.71c0,.74.6,1.35,1.35,1.35h4.37Z" fill="#1e1e1c"/>
</svg>