<?xml version="1.0" encoding="UTF-8"?>
<svg id="a" data-name="3219" xmlns="http://www.w3.org/2000/svg" viewBox="0 0 40 40">
  <path d="M23.58,23.97c0,1.97-1.61,3.58-3.58,3.58s-3.58-1.61-3.58-3.58,1.61-3.58,3.58-3.58,3.58,1.61,3.58,3.58ZM35.49,8.75v31.18H4.53V-.06h23.85l7.11,8.82ZM27.43,22.59l2.57-1.48-2.52-4.37-2.59,1.5c-.69-.59-1.49-1.06-2.36-1.37v-2.99h-5.05v2.99c-.88.31-1.67.78-2.36,1.37l-2.59-1.5-2.52,4.37,2.57,1.48c-.08.45-.14.9-.14,1.38s.06.93.14,1.38l-2.57,1.48,2.52,4.37,2.59-1.5c.69.59,1.49,1.06,2.36,1.37v2.99h5.05v-2.99c.88-.31,1.67-.78,2.36-1.37l2.59,1.5,2.52-4.37-2.57-1.48c.08-.45.14-.9.14-1.38s-.06-.93-.14-1.38ZM32.85,9.97L25.46,1.08v7.19c0,.94.76,1.7,1.7,1.7h5.69Z" fill="#1e1e1c"/>
</svg>