<?xml version="1.0" encoding="UTF-8"?>
<svg id="a" data-name="3219" xmlns="http://www.w3.org/2000/svg" viewBox="0 0 48 48">
  <path d="M28.66,29.37c0,2.57-2.09,4.66-4.66,4.66s-4.66-2.09-4.66-4.66,2.09-4.66,4.66-4.66,4.66,2.09,4.66,4.66ZM42.61,10.59v37.44H5.51V.03h28.59l8.52,10.56ZM33.67,27.57l3.34-1.93-3.28-5.68-3.37,1.95c-.9-.77-1.93-1.38-3.07-1.78v-3.89h-6.56v3.89c-1.14.41-2.17,1.01-3.07,1.78l-3.37-1.95-3.28,5.69,3.34,1.93c-.11.58-.18,1.18-.18,1.79s.07,1.21.18,1.79l-3.34,1.93,3.28,5.69,3.37-1.95c.9.77,1.93,1.38,3.07,1.78v3.89h6.56v-3.89c1.14-.41,2.17-1.01,3.07-1.78l3.37,1.95,3.28-5.69-3.34-1.93c.11-.58.18-1.18.18-1.79s-.07-1.21-.18-1.79ZM39.86,12.01L30.64,1.28v8.68c0,1.13.92,2.05,2.05,2.05h7.18Z" fill="#1e1e1c"/>
</svg>