<?xml version="1.0" encoding="UTF-8"?>
<svg id="a" data-name="3219" xmlns="http://www.w3.org/2000/svg" viewBox="0 0 32 32">
  <path d="M22.09,27.92c0,2.24-1.81,4.06-4.03,4.06s-4.03-1.82-4.03-4.06,1.81-4.06,4.03-4.06,4.03,1.82,4.03,4.06ZM31.99,12.56v12.81c0,1.67-1.28,3.04-2.85,3.04h-5.08c.01-.16.02-.32.02-.49,0-3.34-2.7-6.06-6.03-6.06-1.09,0-2.11.3-2.99.8V7.43h12.27c1.18,0,2.3.48,3.16,1.34.96.97,1.5,2.35,1.49,3.78ZM29.37,13.79c0-1.94-1.58-3.52-3.52-3.52h-3.21v7.29c0,.55.44.99.99.99h5.73v-4.77ZM0-.02h13.36v24.15c-.83,1.04-1.33,2.36-1.33,3.79,0,.16.01.31.02.46H0V-.02ZM.01,8.56h7.42v11.22H.03v2h9.41V6.56H.01v2Z" fill="#1e1e1c"/>
</svg>