<?xml version="1.0" encoding="UTF-8"?>
<svg id="a" data-name="3219" xmlns="http://www.w3.org/2000/svg" viewBox="0 0 48 48">
  <path d="M17.92,42.49c-.02-.25-.04-.5-.04-.75,0-1.85.58-3.57,1.55-4.99V.04H-.03l-.02,42.45h17.98ZM-.03,10.09h13.8v22.43H0v-2.5h11.28V12.58H-.03v-2.5ZM32.89,41.74c0,3.47-2.81,6.3-6.25,6.3s-6.25-2.83-6.25-6.3,2.81-6.3,6.25-6.3,6.25,2.83,6.25,6.3ZM45.79,13.47c-1.31-1.33-3.05-2.06-4.89-2.06h-19.17v23.05c1.4-.95,3.09-1.51,4.9-1.51,4.82,0,8.75,3.95,8.75,8.8,0,.26-.02.53-.04.78h8.41c2.3,0,4.18-1.94,4.18-4.32v-19.32c.03-2.04-.75-4.01-2.14-5.41ZM44.51,29.23h-9.88c-.95,0-1.71-.77-1.71-1.71v-12.57h5.53c3.35,0,6.07,2.72,6.07,6.07v8.22Z" fill="#1e1e1c"/>
</svg>