<?xml version="1.0" encoding="UTF-8"?>
<svg id="a" data-name="3219" xmlns="http://www.w3.org/2000/svg" viewBox="0 0 32 32">
  <path d="M8.41,19.81v-11.22H0v-2h10.41v15.22H.02v-2h8.39ZM31.98,12.59v12.81c0,1.67-1.36,3.04-3.03,3.04h-4.38c-.81,2.08-2.83,3.56-5.18,3.56s-4.37-1.48-5.18-3.56l-14.21-.02v-2h13.58V2.01H0V0h15.57v7.45h11.41c1.34,0,2.6.52,3.54,1.48.18.18.32.38.47.58.04.06.1.11.14.17.11.16.18.33.27.5.07.13.14.25.2.38.06.16.1.32.15.48.05.16.11.31.14.47.04.23.06.46.07.69,0,.09.03.18.03.27v.05s0,.04,0,.06ZM24.29,9.46v7.34c0,.08.06.14.14.14h5.55v-4.42c0-.07-.01-.14-.02-.21,0-.13-.02-.27-.04-.4-.02-.12-.07-.24-.1-.36-.02-.07-.04-.15-.07-.22-.04-.1-.1-.19-.15-.29-.05-.08-.08-.17-.14-.25-.02-.03-.05-.05-.07-.08-.55-.76-1.44-1.26-2.44-1.26h-2.67ZM22.95,26.41c0-1.99-1.6-3.6-3.57-3.6s-3.57,1.62-3.57,3.6,1.6,3.6,3.57,3.6,3.57-1.62,3.57-3.6ZM29.97,25.41v-6.47s-5.55,0-5.55,0c-1.18,0-2.14-.96-2.14-2.14v-7.34h-6.69v12.85c1-.93,2.32-1.51,3.79-1.51,3.07,0,5.57,2.51,5.57,5.6,0,.01,0,.02,0,.04h4c.56,0,1.02-.47,1.02-1.04Z" fill="#1e1e1c"/>
</svg>