<?xml version="1.0" encoding="UTF-8"?>
<svg id="a" data-name="3219" xmlns="http://www.w3.org/2000/svg" viewBox="0 0 24 24">
  <path d="M22.84,6.47c-.63-.64-1.46-.99-2.32-.99h-8.89v11.22c.72-.43,1.56-.69,2.46-.69,2.69,0,4.88,2.19,4.88,4.87,0,.16-.03.31-.05.46h2.88c1.2,0,2.18-1.07,2.18-2.39v-9.53c.02-1.13-.4-2.21-1.14-2.95ZM21.82,13.83h-4.17c-.4,0-.72-.32-.72-.72v-5.29h2.33c1.41,0,2.56,1.14,2.56,2.55v3.45ZM-.01,21.32h9.27c-.01-.15-.05-.29-.05-.45,0-1.17.43-2.22,1.11-3.06V0H0v21.32ZM0,4.82h7.03v11.58H.01v-1.75h5.26V6.57H0v-1.75ZM17.22,20.88c0,1.72-1.4,3.12-3.13,3.12s-3.13-1.4-3.13-3.12,1.4-3.12,3.13-3.12,3.13,1.4,3.13,3.12Z" fill="#1e1e1c"/>
</svg>