<?xml version="1.0" encoding="UTF-8"?>
<svg id="Ebene_2" xmlns="http://www.w3.org/2000/svg" viewBox="0 0 64 64">
  <defs>
    <style>
      .cls-1 {
        fill: #1e1e1c;
      }
    </style>
  </defs>
  <g id="_x33_219">
    <path class="cls-1" d="M25.41,15.7c0-3.63,2.96-6.59,6.59-6.59s6.59,2.96,6.59,6.59-2.96,6.59-6.59,6.59-6.59-2.96-6.59-6.59ZM52.53,23.92c-.38-1.29-1.25-2.35-2.43-2.99-1.18-.64-2.55-.78-3.83-.39l-12.34,3.68h-3.87l-12.34-3.68c-1.29-.38-2.65-.24-3.83.39-1.18.64-2.04,1.7-2.43,2.99-.38,1.29-.24,2.65.39,3.83.64,1.18,1.7,2.04,2.99,2.43l9.6,2.86v2.87l-5.62,9.69c-1.45,2.29-.79,5.33,1.48,6.82,2.29,1.5,5.38.86,6.94-1.52l4.7-7.8,4.87,7.88c.95,1.45,2.55,2.24,4.17,2.24.93,0,1.88-.26,2.72-.81,2.27-1.49,2.92-4.53,1.48-6.82l-5.62-9.69v-2.87l9.6-2.86c1.29-.38,2.35-1.25,2.99-2.43.64-1.18.78-2.54.39-3.83ZM64,32c0,17.64-14.36,32-32,32S0,49.64,0,32,14.36,0,32,0s32,14.36,32,32ZM58.99,32c0-14.88-12.11-26.99-26.99-26.99S5.01,17.12,5.01,32s12.11,26.99,26.99,26.99,26.99-12.11,26.99-26.99Z"/>
  </g>
</svg>