<?xml version="1.0" encoding="UTF-8"?>
<svg id="Ebene_2" xmlns="http://www.w3.org/2000/svg" viewBox="0 0 40 40">
  <defs>
    <style>
      .cls-1 {
        fill: #1e1e1c;
      }
    </style>
  </defs>
  <g id="_x33_219">
    <path class="cls-1" d="M15.58,9.58c0-2.44,1.98-4.42,4.42-4.42s4.42,1.98,4.42,4.42-1.98,4.42-4.42,4.42-4.42-1.98-4.42-4.42ZM32.64,15.59c-.27-.9-.87-1.63-1.69-2.08s-1.77-.54-2.66-.27l-7.22,2.15h-2.14l-7.22-2.15c-.9-.27-1.84-.17-2.66.27s-1.42,1.18-1.69,2.08c-.55,1.85.5,3.8,2.35,4.35l5.3,1.58v1.17l-3.25,5.6c-1,1.59-.54,3.7,1.04,4.74,1.6,1.04,3.75.6,4.83-1.06l2.34-3.88,2.44,3.94c.66,1.01,1.77,1.56,2.9,1.56.65,0,1.31-.18,1.89-.57,1.58-1.03,2.03-3.15,1.03-4.74l-3.25-5.6v-1.17l5.3-1.58c1.85-.55,2.9-2.5,2.35-4.35ZM40,20c0,11.03-8.97,20-20,20S0,31.03,0,20,8.97,0,20,0s20,8.97,20,20ZM35.99,20c0-8.82-7.17-15.99-15.99-15.99s-15.99,7.17-15.99,15.99,7.17,15.99,15.99,15.99,15.99-7.17,15.99-15.99Z"/>
  </g>
</svg>