<?xml version="1.0" encoding="UTF-8"?>
<svg id="Ebene_2" xmlns="http://www.w3.org/2000/svg" viewBox="0 0 48 48">
  <defs>
    <style>
      .cls-1 {
        fill: #1e1e1c;
      }
    </style>
  </defs>
  <g id="_x33_219">
    <path class="cls-1" d="M18.83,11.24c0-2.85,2.32-5.17,5.17-5.17s5.17,2.32,5.17,5.17-2.32,5.17-5.17,5.17-5.17-2.32-5.17-5.17ZM39.08,18.22c-.31-1.04-1.01-1.89-1.96-2.41-.95-.51-2.05-.63-3.09-.32l-8.72,2.6h-2.62l-8.72-2.6c-1.03-.31-2.13-.2-3.09.32-.95.52-1.65,1.37-1.96,2.41-.31,1.04-.2,2.13.32,3.09.52.95,1.37,1.65,2.41,1.96l6.5,1.94v1.57l-3.93,6.78c-1.16,1.84-.63,4.3,1.2,5.5.89.59,1.97.79,3.02.57,1.05-.22,1.95-.83,2.59-1.8l2.94-4.89,3.07,4.96c.59.9,1.49,1.51,2.54,1.73.28.06.55.09.83.09.77,0,1.53-.22,2.19-.66,1.83-1.2,2.36-3.65,1.2-5.5l-3.93-6.78v-1.57l6.5-1.94c1.04-.31,1.89-1.01,2.41-1.96.52-.95.63-2.05.32-3.09ZM48,24c0,13.23-10.77,24-24,24S0,37.23,0,24,10.77,0,24,0s24,10.77,24,24ZM43.49,24c0-10.74-8.74-19.49-19.49-19.49S4.51,13.26,4.51,24s8.74,19.49,19.49,19.49,19.49-8.74,19.49-19.49Z"/>
  </g>
</svg>