<?xml version="1.0" encoding="UTF-8"?>
<svg id="Ebene_2" xmlns="http://www.w3.org/2000/svg" viewBox="0 0 40 40">
  <defs>
    <style>
      .cls-1 {
        fill: #1e1e1c;
      }
    </style>
  </defs>
  <g id="_x33_219">
    <path class="cls-1" d="M20,13.25c2.14,0,3.88-1.74,3.88-3.88s-1.74-3.88-3.88-3.88-3.88,1.74-3.88,3.88,1.74,3.88,3.88,3.88ZM20,7.75c.9,0,1.63.73,1.63,1.63s-.73,1.63-1.63,1.63-1.63-.73-1.63-1.63.73-1.63,1.63-1.63ZM33.29,14.42c-.45-1.49-2.02-2.35-3.52-1.9l-8.39,2.5h-2.77l-8.39-2.5c-1.49-.45-3.07.41-3.51,1.9-.45,1.49.41,3.07,1.9,3.52l6.86,2.05v2.51l-3.85,6.64c-.84,1.28-.48,3.02.8,3.86.46.3.98.46,1.52.46.19,0,.38-.02.57-.06.73-.15,1.36-.58,1.79-1.24l3.64-6.04,3.76,6.08c.41.62,1.03,1.05,1.76,1.2.72.15,1.47.01,2.1-.4,1.28-.84,1.64-2.57.84-3.81l-3.88-6.69v-2.51l6.87-2.05c1.49-.45,2.34-2.02,1.9-3.52ZM31.09,15.5c-.07.13-.19.23-.34.28l-8.47,2.53v4.79l4.21,7.26c.16.25.09.58-.15.74-.16.11-.32.09-.4.08-.08-.02-.23-.07-.32-.21l-5.68-9.2-5.52,9.17c-.11.16-.26.21-.34.23-.08.02-.24.03-.4-.08-.25-.16-.32-.5-.12-.8l4.18-7.21v-4.79l-8.47-2.53c-.15-.04-.27-.14-.34-.28-.07-.13-.09-.29-.04-.44.07-.25.3-.41.55-.41.05,0,.11,0,.16.02l8.55,2.55,3.42.05,8.87-2.6c.3-.09.63.08.72.39h0c.04.15.03.3-.04.44ZM20,0C8.97,0,0,8.97,0,20s8.97,20,20,20,20-8.97,20-20S31.03,0,20,0ZM20,37.75c-9.79,0-17.75-7.96-17.75-17.75S10.21,2.25,20,2.25s17.75,7.96,17.75,17.75-7.96,17.75-17.75,17.75Z"/>
  </g>
</svg>