<?xml version="1.0" encoding="UTF-8"?>
<svg id="Ebene_2" xmlns="http://www.w3.org/2000/svg" viewBox="0 0 32 32">
  <defs>
    <style>
      .cls-1 {
        fill: #1e1e1c;
      }
    </style>
  </defs>
  <g id="_x33_219">
    <path class="cls-1" d="M12.51,7.86c0-1.92,1.56-3.49,3.49-3.49s3.49,1.56,3.49,3.49-1.56,3.49-3.49,3.49-3.49-1.56-3.49-3.49ZM25.44,12.82c-.45-1.49-2.03-2.35-3.52-1.9l-5.19,1.55h-1.46l-5.19-1.55c-1.49-.44-3.07.41-3.52,1.9-.22.73-.14,1.49.22,2.16.36.66.96,1.15,1.68,1.37l3.63,1.08v.55l-2.27,3.93c-.41.63-.55,1.38-.4,2.11s.58,1.36,1.21,1.78c1.3.84,3.04.48,3.92-.87l1.44-2.39,1.51,2.45c.54.82,1.44,1.27,2.35,1.27.53,0,1.06-.15,1.53-.46.63-.41,1.06-1.04,1.21-1.77s.01-1.48-.35-2.03l-2.33-4.01v-.54l3.63-1.08c.72-.22,1.32-.7,1.68-1.37.36-.67.44-1.43.22-2.16ZM32,16c0,8.82-7.18,16-16,16S0,24.82,0,16,7.18,0,16,0s16,7.18,16,16ZM28.5,16c0-6.89-5.61-12.5-12.5-12.5S3.5,9.11,3.5,16s5.61,12.5,12.5,12.5,12.5-5.61,12.5-12.5Z"/>
  </g>
</svg>