<?xml version="1.0" encoding="UTF-8"?>
<svg id="Ebene_2" xmlns="http://www.w3.org/2000/svg" viewBox="0 0 48 48">
  <defs>
    <style>
      .cls-1 {
        fill: #1e1e1c;
      }
    </style>
  </defs>
  <g id="_x33_219">
    <path class="cls-1" d="M23.37,21.05c5.83,0,10.57-4.72,10.57-10.53S29.19,0,23.37,0s-10.57,4.72-10.57,10.53,4.74,10.53,10.57,10.53ZM23.37,2.5c4.45,0,8.06,3.6,8.06,8.03s-3.62,8.03-8.06,8.03-8.06-3.6-8.06-8.03,3.62-8.03,8.06-8.03ZM32.56,29.03H11.98c-5.23,0-9.48,4.23-9.48,9.44v9.54H0v-9.54c0-6.58,5.38-11.94,11.98-11.94h20.58v2.5ZM12.92,38.46h2.5v9.54h-2.5v-9.54ZM48,40.09h-7.78v7.91h-2.5v-7.91h-8.11v-2.5h8.11v-7.91h2.5v7.91h7.78v2.5Z"/>
  </g>
</svg>