<?xml version="1.0" encoding="UTF-8"?>
<svg id="Ebene_2" xmlns="http://www.w3.org/2000/svg" viewBox="0 0 24 24">
  <defs>
    <style>
      .cls-1 {
        fill: #1e1e1c;
      }
    </style>
  </defs>
  <g id="_x33_219">
    <path class="cls-1" d="M11.81,10.94c3.02,0,5.48-2.45,5.48-5.47S14.84,0,11.81,0s-5.48,2.45-5.48,5.47,2.46,5.47,5.48,5.47ZM11.81,1.75c2.06,0,3.73,1.67,3.73,3.72s-1.68,3.72-3.73,3.72-3.73-1.67-3.73-3.72,1.68-3.72,3.73-3.72ZM16.36,14.85H6.18c-2.44,0-4.43,1.98-4.43,4.42v4.73H0v-4.73c0-3.4,2.77-6.17,6.18-6.17h10.18v1.75ZM6.39,19.27h1.75v4.73h-1.75v-4.73ZM24,20.33h-3.59v3.67h-1.75v-3.67h-3.76v-1.75h3.76v-3.67h1.75v3.67h3.59v1.75Z"/>
  </g>
</svg>