<?xml version="1.0" encoding="UTF-8"?>
<svg id="Ebene_2" xmlns="http://www.w3.org/2000/svg" viewBox="0 0 16 16">
  <defs>
    <style>
      .cls-1 {
        fill: #1e1e1c;
      }
    </style>
  </defs>
  <g id="_x33_219">
    <path class="cls-1" d="M7.96,7.5c2.07,0,3.75-1.68,3.75-3.75s-1.68-3.75-3.75-3.75-3.75,1.68-3.75,3.75,1.68,3.75,3.75,3.75ZM7.96,1.5c1.24,0,2.25,1.01,2.25,2.25s-1.01,2.25-2.25,2.25-2.25-1.01-2.25-2.25,1.01-2.25,2.25-2.25ZM4.25,10.13c-1.52,0-2.75,1.23-2.75,2.75v3.12H0v-3.12c0-2.34,1.91-4.25,4.25-4.25h6.71v1.5h-6.71ZM4.21,12.88h1.5v3.12h-1.5v-3.12ZM16,13.75h-2.2v2.25h-1.5v-2.25h-2.31v-1.5h2.31v-2.25h1.5v2.25h2.2v1.5Z"/>
  </g>
</svg>