<?xml version="1.0" encoding="UTF-8"?>
<svg id="Ebene_2" xmlns="http://www.w3.org/2000/svg" viewBox="0 0 24 24">
  <defs>
    <style>
      .cls-1 {
        fill: #1e1e1c;
      }
    </style>
  </defs>
  <g id="_x33_219">
    <path class="cls-1" d="M11.8,10.97c3.04,0,5.51-2.46,5.51-5.48S14.84,0,11.8,0s-5.51,2.46-5.51,5.48,2.47,5.48,5.51,5.48ZM11.8,2.99c1.38,0,2.5,1.12,2.5,2.49s-1.12,2.49-2.5,2.49-2.5-1.12-2.5-2.49,1.12-2.49,2.5-2.49ZM6.81,15.48c-2.1,0-3.81,1.7-3.81,3.8v4.72H0v-4.72c0-3.74,3.06-6.79,6.81-6.79h8.69v2.99H6.81ZM6.39,19.28h3v4.72h-3v-4.72ZM24,20.96h-2.97v3.04h-3v-3.04h-3.14v-2.99h3.14v-3.04h3v3.04h2.97v2.99Z"/>
  </g>
</svg>