<?xml version="1.0" encoding="UTF-8"?>
<svg id="Ebene_2" xmlns="http://www.w3.org/2000/svg" viewBox="0 0 32 32">
  <defs>
    <style>
      .cls-1 {
        fill: #1e1e1c;
      }
    </style>
  </defs>
  <g id="_x33_219">
    <path class="cls-1" d="M15.67,14.33c3.96,0,7.18-3.21,7.18-7.17S19.62,0,15.67,0s-7.18,3.21-7.18,7.17,3.22,7.17,7.18,7.17ZM15.67,2c2.85,0,5.17,2.32,5.17,5.17s-2.32,5.17-5.17,5.17-5.17-2.32-5.17-5.17,2.32-5.17,5.17-5.17ZM21.76,19.56h-13.65c-3.37,0-6.11,2.74-6.11,6.1v6.34H0v-6.34c0-4.47,3.64-8.1,8.12-8.1h13.65v2ZM8.57,25.66h2v6.34h-2v-6.34ZM32,26.91h-4.99v5.09h-2v-5.09h-5.21v-2h5.21v-5.09h2v5.09h4.99v2Z"/>
  </g>
</svg>