<?xml version="1.0" encoding="UTF-8"?>
<svg id="Ebene_2" xmlns="http://www.w3.org/2000/svg" viewBox="0 0 12.8 16">
  <defs>
    <style>
      .cls-1 {
        fill: #1e1e1c;
      }
    </style>
  </defs>
  <g id="_x33_219">
    <path class="cls-1" d="M12.8,14.19l-1.06-6.15v-2.59c0-1.86-1.32-3.42-3.1-3.87-.28-.9-1.16-1.57-2.21-1.57s-1.89.63-2.19,1.5c-1.73.34-2.85,1.84-2.85,3.95v2.58l-1.38,6.17h3.99c.32,1.04,1.28,1.81,2.43,1.81s2.11-.77,2.43-1.81h3.95ZM2.87,8.27l.02-2.82c0-1.22.55-2.52,2.11-2.52h2.59c1.46,0,2.66,1.13,2.66,2.52v2.66l.78,4.59H1.88l.99-4.42ZM5.68,14.19h1.49c-.38.38-1.1.38-1.49,0Z"/>
  </g>
</svg>