<?xml version="1.0" encoding="UTF-8"?>
<svg id="Ebene_2" xmlns="http://www.w3.org/2000/svg" viewBox="0 0 48 48">
  <defs>
    <style>
      .cls-1 {
        fill: #1e1e1c;
      }
    </style>
  </defs>
  <g id="_x33_219">
    <path class="cls-1" d="M3.11,48l7.03-7.01c1.88,1.25,4.06,1.88,6.25,1.88,2.89,0,5.77-1.1,7.97-3.29l2.82-2.81-3.38-3.38,4.63-4.62c.88-.88.88-2.3,0-3.18s-2.31-.88-3.19,0l-4.63,4.62-3.06-3.06,4.63-4.62c.88-.88.88-2.3,0-3.18s-2.31-.88-3.19,0l-4.63,4.62-3.12-3.11-2.82,2.81c-3.84,3.83-4.32,9.76-1.45,14.13l-6.96,6.95v3.26h3.11ZM11.24,27.23l1.39,1.39s.06.09.1.13.09.07.13.1l6.02,6s.06.09.1.13.09.07.13.1l1.66,1.66c-2.65,2.27-6.66,2.15-9.17-.35h-.01c-2.51-2.52-2.62-6.52-.35-9.17ZM23.63,8.48l-2.82,2.81,15.94,15.91,2.82-2.81c3.85-3.85,4.33-9.81,1.42-14.17l7.01-7V0h-3.15l-7.05,7.04c-4.37-2.88-10.33-2.4-14.17,1.44ZM36.73,20.82l-9.54-9.52c2.65-2.27,6.67-2.15,9.18.36,2.51,2.51,2.63,6.51.36,9.16Z"/>
  </g>
</svg>