<?xml version="1.0" encoding="UTF-8"?>
<svg id="Ebene_2" xmlns="http://www.w3.org/2000/svg" viewBox="0 0 32 32">
  <defs>
    <style>
      .cls-1 {
        fill: #1e1e1c;
      }
    </style>
  </defs>
  <g id="_x33_219">
    <path class="cls-1" d="M15.6,5.32l-2.05,2.06,10.96,11.02,2.05-2.06c2.6-2.61,2.96-6.63,1.09-9.64l4.36-4.38V0h-2.64l-4.2,4.22c-2.99-1.87-6.97-1.5-9.57,1.1ZM24.48,13.4l-5.95-5.98c1.66-1.26,4.04-1.13,5.56.4,1.51,1.52,1.64,3.92.39,5.59ZM2.47,32l4.36-4.38c1.22.78,2.64,1.2,4.12,1.2,2.07,0,4.02-.81,5.48-2.28l2.05-2.06-2.25-2.26,2.91-2.92c.68-.69.68-1.8,0-2.49s-1.79-.69-2.47,0l-2.91,2.92-1.68-1.69,2.91-2.92c.68-.69.68-1.8,0-2.49s-1.79-.69-2.47,0l-2.91,2.92-2.08-2.09-2.05,2.06c-1.46,1.47-2.27,3.43-2.27,5.51,0,1.47.41,2.88,1.16,4.1L0,29.51v2.49h2.47ZM7.55,18.45l.74.74s.04.06.07.08.05.04.08.07l4.01,4.04s.04.06.07.08.05.04.08.07l.91.92c-.73.55-1.62.86-2.55.86-1.13,0-2.2-.44-3-1.25s-1.25-1.88-1.25-3.02c0-.94.3-1.83.85-2.57Z"/>
  </g>
</svg>