<?xml version="1.0" encoding="UTF-8"?>
<svg id="Ebene_2" xmlns="http://www.w3.org/2000/svg" viewBox="0 0 64 64">
  <defs>
    <style>
      .cls-1 {
        fill: #1e1e1c;
      }
    </style>
  </defs>
  <g id="_x33_219">
    <path class="cls-1" d="M32.73,12.47l-2.6,2.6,18.92,18.91,2.6-2.6c4.89-4.89,5.19-12.66.91-17.91l11.45-11.44V0h-1.86l-11.53,11.53c-5.25-4.25-12.99-3.94-17.87.94ZM49.7,29.43l-.66.66-15.03-15.02.66-.66c2.01-2.01,4.67-3.11,7.51-3.11s5.51,1.11,7.51,3.11c4.14,4.14,4.14,10.88,0,15.02ZM1.97,64l11.49-11.49c2.46,2.01,5.47,3.02,8.48,3.02,3.42,0,6.85-1.3,9.46-3.91l2.6-2.6-4.5-4.5,7.31-7.31c.54-.54.54-1.41,0-1.94-.54-.54-1.41-.54-1.95,0l-7.31,7.31-6.37-6.37,7.31-7.31c.54-.54.54-1.41,0-1.94-.54-.54-1.41-.54-1.95,0l-7.31,7.31-4.15-4.15-2.6,2.6c-4.87,4.87-5.19,12.6-.95,17.85L0,62.09v1.91h1.97ZM14.42,34.66l.66-.66,3.1,3.1s.03.07.06.09c.03.03.06.04.09.06l8.16,8.16s.03.07.06.09c.03.03.07.04.1.06l3.45,3.45-.66.66c-2.01,2.01-4.67,3.11-7.51,3.11s-5.51-1.11-7.51-3.11c-4.14-4.14-4.14-10.88,0-15.02Z"/>
  </g>
</svg>