<?xml version="1.0" encoding="UTF-8"?>
<svg id="Ebene_2" xmlns="http://www.w3.org/2000/svg" viewBox="0 0 29 40">
  <defs>
    <style>
      .cls-1 {
        fill: #1e1e1c;
      }
    </style>
  </defs>
  <g id="_x33_219">
    <path class="cls-1" d="M20.65,40H0V11.91c0-1.79.87-3.49,2.34-4.53L11.28,1.03c1.92-1.37,4.51-1.37,6.44,0l8.94,6.36c1.46,1.04,2.34,2.73,2.34,4.53v23.72c0,1.11-.9,2-2,2s-2-.9-2-2V11.91c0-.5-.24-.98-.65-1.27l-8.94-6.36c-.54-.39-1.26-.38-1.8,0l-8.95,6.36c-.41.29-.65.76-.65,1.27v24.08h12.65V14.69l-2.15-1.54-2.16,1.54v17.36c0,1.11-.9,2-2,2s-2-.9-2-2V13.96c0-.84.41-1.63,1.1-2.12l3.56-2.54c.9-.64,2.11-.64,3.01,0l3.56,2.54c.68.48,1.09,1.27,1.09,2.11v26.04ZM17.24,15.11s0,0,0,0h0ZM11.76,15.1h0s0,0,0,0Z"/>
  </g>
</svg>