<?xml version="1.0" encoding="UTF-8"?>
<svg id="Ebene_2" xmlns="http://www.w3.org/2000/svg" viewBox="0 0 23.11 32">
  <defs>
    <style>
      .cls-1 {
        fill: #1e1e1c;
      }
    </style>
  </defs>
  <g id="_x33_219">
    <path class="cls-1" d="M16.07,32H0V9.37c0-1.29.63-2.51,1.68-3.26L9.24.74c1.39-.99,3.25-.99,4.64,0l7.55,5.37c1.05.75,1.68,1.97,1.68,3.26v19.63c0,.55-.45,1-1,1s-1-.45-1-1V9.37c0-.65-.31-1.26-.84-1.63l-7.55-5.37c-.69-.49-1.63-.49-2.32,0L2.84,7.74c-.53.37-.84.98-.84,1.63v20.62h12.06V11.36l-2.51-1.79-2.51,1.79v14.61c0,.55-.45,1-1,1s-1-.45-1-1v-14.87c0-.48.24-.94.63-1.22l3.01-2.14c.52-.37,1.22-.37,1.74,0l3.01,2.15c.39.28.63.74.63,1.22v20.9Z"/>
  </g>
</svg>