<?xml version="1.0" encoding="UTF-8"?>
<svg id="Ebene_2" xmlns="http://www.w3.org/2000/svg" viewBox="0 0 17.58 24">
  <defs>
    <style>
      .cls-1 {
        fill: #1e1e1c;
      }
    </style>
  </defs>
  <g id="_x33_219">
    <path class="cls-1" d="M12.29,24H0V7.15c0-1.01.49-1.96,1.31-2.55L6.98.58c1.08-.77,2.54-.77,3.62,0l5.66,4.03c.82.58,1.31,1.54,1.31,2.55v14.47c0,.48-.39.88-.88.88s-.88-.39-.88-.88V7.15c0-.44-.22-.86-.58-1.12l-5.66-4.03c-.48-.34-1.12-.34-1.6,0L2.33,6.03c-.36.26-.58.68-.58,1.12v15.1h8.79v-13.55l-1.76-1.25-1.76,1.25v10.65c0,.48-.39.88-.88.88s-.88-.39-.88-.88v-10.91c0-.4.2-.78.52-1.02l2.26-1.61c.43-.31,1.02-.31,1.45,0l2.26,1.61c.33.23.52.62.52,1.02v15.55ZM9.08,7.24h0s0,0,0,0Z"/>
  </g>
</svg>