<?xml version="1.0" encoding="UTF-8"?>
<svg id="Ebene_2" xmlns="http://www.w3.org/2000/svg" viewBox="0 0 44.95 64">
  <defs>
    <style>
      .cls-1 {
        fill: #1e1e1c;
      }
    </style>
  </defs>
  <g id="_x33_219">
    <path class="cls-1" d="M30.87,64H0V18.11c0-2.38,1.16-4.63,3.1-6.01L18.21,1.36c2.56-1.82,5.99-1.82,8.55,0l15.1,10.74c1.94,1.38,3.1,3.63,3.1,6.01v40.51c0,.76-.62,1.38-1.38,1.38s-1.38-.62-1.38-1.38V18.11c0-1.49-.73-2.9-1.94-3.77L25.16,3.61c-1.6-1.14-3.76-1.14-5.36,0L4.7,14.34c-1.22.87-1.95,2.28-1.95,3.77v43.14h25.37V21.76l-5.64-4.02-5.65,4.02v30.35c0,.76-.62,1.38-1.38,1.38s-1.38-.62-1.38-1.38v-30.54c0-.77.37-1.49,1-1.93l6.02-4.29c.82-.59,1.93-.59,2.76,0l6.02,4.29c.63.45,1,1.17,1,1.93v42.43Z"/>
  </g>
</svg>