<?xml version="1.0" encoding="UTF-8"?>
<svg id="Ebene_2" xmlns="http://www.w3.org/2000/svg" viewBox="0 0 17.91 24">
  <defs>
    <style>
      .cls-1 {
        fill: #1e1e1c;
      }
    </style>
  </defs>
  <g id="_x33_219">
    <path class="cls-1" d="M12.94,24H0V7.41c0-1.17.57-2.27,1.52-2.95L6.86.67c1.25-.89,2.94-.89,4.2,0l5.33,3.79c.95.68,1.52,1.78,1.52,2.95v13.05c0,.83-.67,1.5-1.5,1.5s-1.5-.67-1.5-1.5V7.41c0-.2-.1-.39-.26-.51l-5.34-3.79c-.22-.15-.5-.15-.72,0l-5.34,3.79c-.16.12-.26.3-.26.51v13.58h6.93v-11.76l-.98-.7-.98.7v8.23c0,.83-.67,1.5-1.5,1.5s-1.5-.67-1.5-1.5v-8.82c0-.6.29-1.17.78-1.51l2.12-1.51c.64-.46,1.51-.46,2.15,0l2.12,1.51c.49.35.78.91.78,1.51v15.35ZM7.5,9.58h0s0,0,0,0Z"/>
  </g>
</svg>