<?xml version="1.0" encoding="UTF-8"?>
<svg id="Ebene_2" xmlns="http://www.w3.org/2000/svg" viewBox="0 0 23.51 32">
  <defs>
    <style>
      .cls-1 {
        fill: #1e1e1c;
      }
    </style>
  </defs>
  <g id="_x33_219">
    <path class="cls-1" d="M16.83,32H0V9.68c0-1.48.72-2.89,1.93-3.75L9.09.85c1.59-1.13,3.73-1.13,5.33,0l7.16,5.09c1.21.86,1.93,2.26,1.93,3.74v18.56c0,.97-.78,1.75-1.75,1.75s-1.75-.78-1.75-1.75V9.68c0-.35-.17-.69-.46-.89l-7.16-5.09c-.38-.27-.89-.27-1.27,0l-7.16,5.09c-.29.2-.46.54-.46.89v18.81h9.83V11.98l-1.58-1.12-1.58,1.12v12.77c0,.97-.78,1.75-1.75,1.75s-1.75-.78-1.75-1.75v-13.42c0-.72.35-1.4.94-1.81l2.85-2.03c.77-.55,1.81-.55,2.58,0l2.85,2.04c.58.42.93,1.09.93,1.81v20.68ZM13.86,12.36h0s0,0,0,0ZM9.64,12.36h0s0,0,0,0Z"/>
  </g>
</svg>