<?xml version="1.0" encoding="UTF-8"?>
<svg id="Ebene_2" xmlns="http://www.w3.org/2000/svg" viewBox="0 0 24 22.55">
  <defs>
    <style>
      .cls-1 {
        fill: #1e1e1c;
      }
    </style>
  </defs>
  <g id="_x33_219">
    <path class="cls-1" d="M8.25,3v16.55c0,.83-.67,1.5-1.5,1.5s-1.5-.67-1.5-1.5V3c0-.83.67-1.5,1.5-1.5s1.5.67,1.5,1.5ZM17.25,0c-.83,0-1.5.67-1.5,1.5v19.55c0,.83.67,1.5,1.5,1.5s1.5-.67,1.5-1.5V1.5c0-.83-.67-1.5-1.5-1.5ZM1.5,6.01c-.83,0-1.5.67-1.5,1.5v7.53c0,.83.67,1.5,1.5,1.5s1.5-.67,1.5-1.5v-7.53c0-.83-.67-1.5-1.5-1.5ZM12,4.51c-.83,0-1.5.67-1.5,1.5v10.53c0,.83.67,1.5,1.5,1.5s1.5-.67,1.5-1.5V6.01c0-.83-.67-1.5-1.5-1.5ZM22.5,7.51c-.83,0-1.5.67-1.5,1.5v4.53c0,.83.67,1.5,1.5,1.5s1.5-.67,1.5-1.5v-4.53c0-.83-.67-1.5-1.5-1.5Z"/>
  </g>
</svg>