<?xml version="1.0" encoding="UTF-8"?>
<svg id="Ebene_2" xmlns="http://www.w3.org/2000/svg" viewBox="0 0 24 21.3">
  <defs>
    <style>
      .cls-1 {
        fill: #1e1e1c;
      }
    </style>
  </defs>
  <g id="_x33_219">
    <path class="cls-1" d="M6.2,2.38v16.55c0,.48-.39.88-.88.88s-.88-.39-.88-.88V2.38c0-.48.39-.88.88-.88s.88.39.88.88ZM14.22,0c-.48,0-.88.39-.88.88v19.55c0,.48.39.88.88.88s.88-.39.88-.88V.88c0-.48-.39-.88-.88-.88ZM.88,6.01c-.48,0-.88.39-.88.88v7.53c0,.48.39.88.88.88s.88-.39.88-.88v-7.53c0-.48-.39-.88-.88-.88ZM23.12,7.01c-.48,0-.88.39-.88.88v5.53c0,.48.39.88.88.88s.88-.39.88-.88v-5.53c0-.48-.39-.88-.88-.88ZM9.77,4.51c-.48,0-.88.39-.88.88v10.53c0,.48.39.88.88.88s.88-.39.88-.88V5.39c0-.48-.39-.88-.88-.88ZM18.67,4.51c-.48,0-.88.39-.88.88v10.53c0,.48.39.88.88.88s.88-.39.88-.88V5.39c0-.48-.39-.88-.88-.88Z"/>
  </g>
</svg>