<?xml version="1.0" encoding="UTF-8"?>
<svg id="Ebene_2" xmlns="http://www.w3.org/2000/svg" viewBox="0 0 24 24">
  <defs>
    <style>
      .cls-1 {
        fill: #1d1d1b;
      }
    </style>
  </defs>
  <g id="_x33_219">
    <path class="cls-1" d="M0,0v24h24V0H0ZM13.66,4.78h.68v12.97h-.68V4.78ZM8.66,18.54h.68v.68h-.68v-.68ZM8.59,17.75V4.78h.34v12.97h-.34ZM9.32,17.75V4.78h1.35v12.97h-1.35ZM1.5,1.5h8.17v1.75H3.25v6.1h-1.75V1.5ZM7.66,17.75V4.78h.68v12.97h-.68ZM7.84,18.54v.68h-.68v-.68h.68ZM4.99,17.75V4.78h2.03v12.97h-2.03ZM6.34,18.54v.68h-.68v-.68h.68ZM9.35,22.5H1.5v-8.17h1.75v6.42h6.1v1.75ZM10.84,19.22h-.68v-.68h.68v.68ZM12.34,19.22h-.68v-.68h.68v.68ZM12.34,17.75h-.68V4.78h.68v12.97ZM12.83,4.78h.34v12.97h-.34V4.78ZM13.84,19.22h-.68v-.68h.68v.68ZM22.5,22.49h-8.17v-1.75h6.42v-6.1h1.75v7.85ZM15.33,18.54v.68h-.68v-.68h.68ZM14.71,17.75V4.78h.34v12.97h-.34ZM16.67,17.75h-1.35V4.78h1.35v12.97ZM16.83,18.54v.68h-.68v-.68h.68ZM17.32,17.75V4.78h1.35v12.97h-1.35ZM18.33,18.54v.68h-.68v-.68h.68ZM22.5,9.67h-1.75V3.25h-6.1v-1.75h7.85v8.17Z"/>
  </g>
</svg>