<?xml version="1.0" encoding="UTF-8"?>
<svg id="Ebene_2" xmlns="http://www.w3.org/2000/svg" viewBox="0 0 40 40">
  <defs>
    <style>
      .cls-1 {
        fill: #1e1e1c;
      }
    </style>
  </defs>
  <g id="_x33_219">
    <path class="cls-1" d="M2.25,13.41H0V0h13.87v2.25H2.25v11.16ZM37.75,13.87h2.25V0h-13.41v2.25h11.16v11.62ZM37.75,26.58v11.16h-11.62v2.25h13.87v-13.41h-2.25ZM2.25,26.13H0v13.87h13.41v-2.25H2.25v-11.62ZM13.33,7.61h-1.25v23.98h1.25V7.61ZM11.15,34.3h1.25v-1.25h-1.25v1.25ZM17.65,7.61h-2.5v23.98h2.5V7.61ZM10.88,7.61h-3.75v23.98h3.75V7.61ZM25.73,7.61h-.62v23.98h.62V7.61ZM32.44,7.61h-2.5v23.98h2.5V7.61ZM31.81,34.3v-1.25h-1.25v1.25h1.25ZM27.79,34.3h1.25v-1.25h-1.25v1.25ZM28.74,7.61h-2.5v23.98h2.5V7.61ZM19.47,31.59h1.25V7.61h-1.25v23.98ZM22.26,7.61h-.62v23.98h.62V7.61ZM22.24,34.3h1.25v-1.25h-1.25v1.25ZM26.26,33.05h-1.25v1.25h1.25v-1.25ZM23.17,31.59h1.25V7.61h-1.25v23.98ZM16.7,34.3h1.25v-1.25h-1.25v1.25ZM13.93,34.3h1.25v-1.25h-1.25v1.25ZM14.43,7.61h-.62v23.98h.62V7.61ZM9.63,34.3v-1.25h-1.25v1.25h1.25ZM19.47,34.3h1.25v-1.25h-1.25v1.25Z"/>
  </g>
</svg>