<?xml version="1.0" encoding="UTF-8"?>
<svg id="Ebene_2" xmlns="http://www.w3.org/2000/svg" viewBox="0 0 16 16">
  <defs>
    <style>
      .cls-1 {
        fill: #1d1d1b;
      }
    </style>
  </defs>
  <g id="_x33_219">
    <path class="cls-1" d="M0,0v16h16V0H0ZM9.51,1h5.48v5.66h-1.5V2.5h-3.98V1ZM11.34,11.62V3.45h.85v8.17h-.85ZM11.98,12.12v.43h-.43v-.43h.43ZM10.09,12.12v.43h-.43v-.43h.43ZM9.69,11.62V3.45h.21v8.17h-.21ZM10.08,11.62V3.45h.85v8.17h-.85ZM10.61,12.12h.43v.43h-.43v-.43ZM9.03,3.45h.43v8.17h-.43V3.45ZM5.88,12.12h.43v.43h-.43v-.43ZM5.84,11.62V3.45h.21v8.17h-.21ZM6.3,11.62V3.45h.85v8.17h-.85ZM.97,1.01h5.66v1.5H2.47v3.98H.97V1.01ZM5.25,11.62V3.45h.43v8.17h-.43ZM5.36,12.12v.43h-.43v-.43h.43ZM3.57,11.62V3.45h1.28v8.17h-1.28ZM4.42,12.12v.43h-.43v-.43h.43ZM6.45,15H.97v-5.66h1.5v4.16h3.98v1.5ZM7.25,12.54h-.43v-.43h.43v.43ZM8.2,12.54h-.43v-.43h.43v.43ZM8.2,11.62h-.43V3.45h.43v8.17ZM8.51,3.45h.21v8.17h-.21V3.45ZM9.14,12.54h-.43v-.43h.43v.43ZM15,14.99h-5.66v-1.5h4.16v-3.98h1.5v5.48Z"/>
  </g>
</svg>