<?xml version="1.0" encoding="UTF-8"?>
<svg id="Ebene_2" xmlns="http://www.w3.org/2000/svg" viewBox="0 0 32 32">
  <defs>
    <style>
      .cls-1 {
        fill: #1e1e1c;
      }
    </style>
  </defs>
  <g id="_x33_219">
    <path class="cls-1" d="M2,10.77H0V0h11.14v2H2v8.77ZM29.95,11.17h2V.03h-10.76v2h8.77v9.14ZM30,21.23v8.77h-9.14v2h11.14v-10.77h-2ZM2.01,20.83H0v11.14h10.76v-2H2.01v-9.14ZM14.08,6.04h-2v19.18h2V6.04ZM8.88,27.39h1v-1h-1v1ZM10.62,6.04h-1v19.18h1V6.04ZM25.4,27.39v-1h-1v1h1ZM25.9,6.04h-2v19.18h2V6.04ZM20.54,6.04h-.5v19.18h.5V6.04ZM22.94,6.04h-2v19.18h2V6.04ZM22.18,27.39h1v-1h-1v1ZM13.32,27.39h1v-1h-1v1ZM17.76,6.04h-.5v19.18h.5V6.04ZM17.75,27.39h1v-1h-1v1ZM15.53,25.22h1V6.04h-1v19.18ZM18.49,25.22h1V6.04h-1v19.18ZM20.96,26.39h-1v1h1v-1ZM15.53,27.39h1v-1h-1v1ZM11.5,6.04h-.5v19.18h.5V6.04ZM8.67,6.04h-3v19.18h3V6.04ZM7.67,27.39v-1h-1v1h1ZM11.1,27.39h1v-1h-1v1Z"/>
  </g>
</svg>