<?xml version="1.0" encoding="UTF-8"?>
<svg id="Ebene_2" xmlns="http://www.w3.org/2000/svg" viewBox="0 0 32 32">
  <defs>
    <style>
      .cls-1 {
        fill: #1d1d1b;
      }
    </style>
  </defs>
  <g id="_x33_219">
    <path class="cls-1" d="M0,0v32h32V0H0ZM20.56,6.11h1.85v17.77h-1.85V6.11ZM22.64,24.97v.93h-.93v-.93h.93ZM19.72,6.11h.46v17.77h-.46V6.11ZM12.35,6.11h1.85v17.77h-1.85V6.11ZM1.5,1.51h9.23v2H3.5v6.8H1.5V1.51ZM6.4,23.88V6.11h2.78v17.77h-2.78ZM8.26,24.97v.93h-.93v-.93h.93ZM10.3,30.5H1.5v-9.23h2v7.23h6.8v2ZM10.31,25.89h-.93v-.93h.93v.93ZM10.99,23.88h-.93V6.11h.93v17.77ZM11.35,6.11h.46v17.77h-.46V6.11ZM12.36,25.89h-.93v-.93h.93v.93ZM14.42,25.89h-.93v-.93h.93v.93ZM16.47,25.89h-.93v-.93h.93v.93ZM16.47,23.88h-.93V6.11h.93v17.77ZM17.15,6.11h.46v17.77h-.46V6.11ZM18.53,25.89h-.93v-.93h.93v.93ZM19.21,23.88h-.93V6.11h.93v17.77ZM20.58,25.89h-.93v-.93h.93v.93ZM30.5,30.5h-9.23v-2h7.23v-6.8h2v8.8ZM23.3,23.88V6.11h1.85v17.77h-1.85ZM24.69,24.97v.93h-.93v-.93h.93ZM30.51,10.75h-2V3.52h-6.8V1.52h8.8v9.23Z"/>
  </g>
</svg>