<?xml version="1.0" encoding="UTF-8"?>
<svg id="Ebene_2" xmlns="http://www.w3.org/2000/svg" viewBox="0 0 64 64">
  <defs>
    <style>
      .cls-1 {
        fill: #1e1e1c;
      }
    </style>
  </defs>
  <g id="_x33_219">
    <path class="cls-1" d="M19.32,12.14h2v38.36h-2V12.14ZM26.71,54.84h2v-2h-2v2ZM23.08,12.14h-1v38.36h1V12.14ZM22.28,54.84h2v-2h-2v2ZM15.41,54.84v-2h-2v2h2ZM17.85,52.84v2h2v-2h-2ZM45.97,12.14h-4v38.36h4V12.14ZM41.16,12.14h-1v38.36h1V12.14ZM17.41,12.14h-6v38.36h6V12.14ZM28.23,12.14h-4v38.36h4V12.14ZM44.45,54.84h2v-2h-2v2ZM42.01,52.84h-2v2h2v-2ZM51.88,12.14h-4v38.36h4V12.14ZM50.88,54.84v-2h-2v2h2ZM37.06,50.5h2V12.14h-2v38.36ZM35.58,54.84h2v-2h-2v2ZM31.15,54.84h2v-2h-2v2ZM31.15,50.5h2V12.14h-2v38.36ZM35.6,12.14h-1v38.36h1V12.14ZM.02,21.27h2.75V2.79h19.23V.04H.02v21.23ZM42.77,0v2.75h18.48v19.24h2.75V0h-21.23ZM61.22,61.25h-19.23v2.75h21.98v-21.23h-2.75v18.48ZM2.75,42.01H0v21.99h21.23v-2.75H2.75v-19.24Z"/>
  </g>
</svg>