<?xml version="1.0" encoding="UTF-8"?>
<svg id="Ebene_2" xmlns="http://www.w3.org/2000/svg" viewBox="0 0 39.95 28.25">
  <defs>
    <style>
      .cls-1 {
        fill: #1e1e1c;
      }
    </style>
  </defs>
  <g id="_x33_219">
    <path class="cls-1" d="M0,0v28.25h39.95V0H0ZM37.7,26H2.25V2.25h35.45v23.75ZM13.61,7.45H4.43v-2.25h9.19v2.25ZM9.56,11.29h-5.13v-2.25h5.13v2.25ZM19.08,5.64h-2.25v-2.25h2.25v2.25ZM33.06,17.37h2.25v2.25h-4.5v-4.48h2.25v2.23ZM26.31,19.62h-2.25v-2.25h2.25v-2.23h2.25v2.25h-2.25v2.23ZM26.31,24.12h-2.25v-2.25h2.25v-2.25h6.75v2.25h2.25v2.25h-2.25v-2.25h-2.25v2.25h-2.25v-2.25h-2.25v2.25ZM19.08,10.43h-2.25v-2.25h2.25v2.25ZM19.08,15.22h-2.25v-2.25h2.25v2.25ZM19.08,20h-2.25v-2.25h2.25v2.25ZM19.08,24.79h-2.25v-2.25h2.25v2.25ZM31.94,11.93c2.35,0,4.27-1.92,4.27-4.27s-1.92-4.27-4.27-4.27-4.27,1.92-4.27,4.27,1.92,4.27,4.27,4.27ZM31.94,5.64c1.11,0,2.02.91,2.02,2.02s-.91,2.02-2.02,2.02-2.02-.91-2.02-2.02.91-2.02,2.02-2.02ZM7.57,24.79c2.35,0,4.27-1.92,4.27-4.27s-1.92-4.27-4.27-4.27-4.27,1.92-4.27,4.27,1.92,4.27,4.27,4.27ZM7.57,18.5c1.11,0,2.02.91,2.02,2.02s-.91,2.02-2.02,2.02-2.02-.91-2.02-2.02.91-2.02,2.02-2.02Z"/>
  </g>
</svg>