<?xml version="1.0" encoding="UTF-8"?>
<svg id="Ebene_2" xmlns="http://www.w3.org/2000/svg" viewBox="0 0 48 33.88">
  <defs>
    <style>
      .cls-1 {
        fill: #1e1e1c;
      }
    </style>
  </defs>
  <g id="_x33_219">
    <path class="cls-1" d="M11.58,24.66c0,1.4-1.14,2.54-2.55,2.54s-2.54-1.14-2.54-2.54,1.14-2.55,2.54-2.55,2.55,1.14,2.55,2.55ZM48,0v33.88H0V0h48ZM29.9,23.92h2.5v-2.5h2.5v-2.5h-2.5v2.5h-2.5v2.5ZM5.24,13.5h6.19v-2.5h-6.19v2.5ZM14.08,24.66c0-2.78-2.26-5.05-5.05-5.05s-5.04,2.26-5.04,5.05,2.26,5.04,5.04,5.04,5.05-2.26,5.05-5.04ZM16.32,6.27H5.24v2.5h11.09v-2.5ZM22.81,27.2h-2.5v2.5h2.5v-2.5ZM22.81,21.42h-2.5v2.5h2.5v-2.5ZM22.81,15.65h-2.5v2.5h2.5v-2.5ZM22.81,9.87h-2.5v2.5h2.5v-2.5ZM22.81,4.1h-2.5v2.5h2.5v-2.5ZM42.4,21.42h-2.5v-2.5h-2.5v2.5h0v2.5h0s-5,0-5,0v2.46h-2.5v2.5h2.5v-2.46h2.5v2.46h2.5v-2.46h2.5v2.46h2.5v-2.5h-2.5v-2.46h0s2.5,0,2.5,0v-2.5ZM43.48,9.14c0-2.78-2.26-5.05-5.05-5.05s-5.04,2.26-5.04,5.05,2.26,5.04,5.04,5.04,5.05-2.26,5.05-5.04ZM38.43,6.6c-1.4,0-2.54,1.14-2.54,2.55s1.14,2.54,2.54,2.54,2.55-1.14,2.55-2.54-1.14-2.55-2.55-2.55Z"/>
  </g>
</svg>