<?xml version="1.0" encoding="UTF-8"?>
<svg id="Ebene_2" xmlns="http://www.w3.org/2000/svg" viewBox="0 0 48 33.88">
  <defs>
    <style>
      .cls-1 {
        fill: #1e1e1c;
      }
    </style>
  </defs>
  <g id="_x33_219">
    <path class="cls-1" d="M0,0v33.88h48V0H0ZM45.5,31.38H2.5V2.5h43v28.88ZM16.32,8.77H5.23v-2.5h11.09v2.5ZM11.43,13.5h-6.19v-2.5h6.19v2.5ZM22.81,6.6h-2.5v-2.5h2.5v2.5ZM39.9,21.42h2.5v2.5h-5v-2.5h0v-2.5h2.5v2.5ZM32.4,23.92h-2.5v-2.5h2.5v-2.5h2.5v2.5h-2.5v2.5ZM32.4,28.89h-2.5v-2.5h2.5v-2.46h7.5v2.46h2.5v2.5h-2.5v-2.46h-2.5v2.46h-2.5v-2.46h-2.5v2.46ZM22.81,12.37h-2.5v-2.5h2.5v2.5ZM22.81,18.15h-2.5v-2.5h2.5v2.5ZM22.81,23.92h-2.5v-2.5h2.5v2.5ZM22.81,29.7h-2.5v-2.5h2.5v2.5ZM38.43,14.19c2.78,0,5.04-2.26,5.04-5.05s-2.26-5.04-5.04-5.04-5.05,2.26-5.05,5.04,2.26,5.05,5.05,5.05ZM38.43,6.6c1.4,0,2.54,1.14,2.54,2.54s-1.14,2.55-2.54,2.55-2.55-1.14-2.55-2.55,1.14-2.54,2.55-2.54ZM9.03,29.7c2.78,0,5.04-2.26,5.04-5.04s-2.26-5.04-5.04-5.04-5.05,2.26-5.05,5.04,2.26,5.04,5.05,5.04ZM9.03,22.11c1.4,0,2.54,1.14,2.54,2.54s-1.14,2.54-2.54,2.54-2.55-1.14-2.55-2.54,1.14-2.54,2.55-2.54Z"/>
  </g>
</svg>