<?xml version="1.0" encoding="UTF-8"?>
<svg id="Ebene_2" xmlns="http://www.w3.org/2000/svg" viewBox="0 0 64 44.99">
  <defs>
    <style>
      .cls-1 {
        fill: #1e1e1c;
      }
    </style>
  </defs>
  <g id="_x33_219">
    <path class="cls-1" d="M0,0v44.99h64V0H0ZM61.25,42.24H2.75V2.75h58.5v39.49ZM21.66,11.19H6.74v-2.75h14.92v2.75ZM15.07,16.72H6.74v-2.75h8.34v2.75ZM30.09,8.26h-2.75v-2.75h2.75v2.75ZM45.46,28.29h-2.75v2.75h2.75v2.74h-2.75v2.74h-2.75v2.75h2.75v-2.74h2.75v2.74h2.75v-2.74h2.75v2.74h2.75v-2.74h2.75v-2.75h-2.75v-2.74h2.75v-2.75h-2.75v-2.75h2.75v-2.75h-2.75v2.75h-2.75v2.75h0v2.74h-5.5v-2.74h2.75v-2.75h2.75v-2.75h-2.75v2.75h-2.75v-2.75h-2.75v2.75h2.75v2.75ZM53.71,36.52h-2.75v-2.74h2.75v2.74ZM48.21,33.79v2.74h-2.75v-2.74h2.75ZM42.71,28.3h-2.75v-2.75h0v-2.75h2.75v2.75h0v2.75ZM42.71,33.78h-2.75v-2.75h2.75v2.75ZM30.09,16.04h-2.75v-2.75h2.75v2.75ZM30.09,23.81h-2.75v-2.75h2.75v2.75ZM30.09,31.59h-2.75v-2.75h2.75v2.75ZM30.09,39.36h-2.75v-2.75h2.75v2.75ZM51.43,18.48c3.58,0,6.48-2.91,6.48-6.48s-2.91-6.48-6.48-6.48-6.48,2.91-6.48,6.48,2.91,6.48,6.48,6.48ZM51.43,8.26c2.06,0,3.73,1.67,3.73,3.73s-1.68,3.73-3.73,3.73-3.73-1.67-3.73-3.73,1.68-3.73,3.73-3.73ZM11.85,39.36c3.58,0,6.48-2.91,6.48-6.48s-2.91-6.48-6.48-6.48-6.48,2.91-6.48,6.48,2.91,6.48,6.48,6.48ZM11.85,29.14c2.06,0,3.73,1.67,3.73,3.73s-1.68,3.73-3.73,3.73-3.73-1.67-3.73-3.73,1.68-3.73,3.73-3.73Z"/>
  </g>
</svg>