<?xml version="1.0" encoding="UTF-8"?>
<svg id="Ebene_2" xmlns="http://www.w3.org/2000/svg" viewBox="0 0 31.97 22.67">
  <defs>
    <style>
      .cls-1 {
        fill: #1e1e1c;
      }
    </style>
  </defs>
  <g id="_x33_219">
    <path class="cls-1" d="M8.22,15.61c0,.83-.67,1.5-1.5,1.5s-1.5-.67-1.5-1.5.67-1.5,1.5-1.5,1.5.67,1.5,1.5ZM23.95,8.66c.83,0,1.5-.67,1.5-1.5s-.67-1.5-1.5-1.5-1.5.67-1.5,1.5.67,1.5,1.5,1.5ZM22.28,14.78h-2v2h2v-2ZM31.97,0v22.67H0V0h31.97ZM20.45,7.16c0,1.93,1.57,3.5,3.5,3.5s3.5-1.57,3.5-3.5-1.57-3.5-3.5-3.5-3.5,1.57-3.5,3.5ZM3.62,10.02h4.08v-2H3.62v2ZM10.22,15.61c0-1.93-1.57-3.5-3.5-3.5s-3.5,1.57-3.5,3.5,1.57,3.5,3.5,3.5,3.5-1.57,3.5-3.5ZM10.93,4.13H3.62v2h7.3v-2ZM15.38,18.68h-2v2h2v-2ZM15.38,14.51h-2v2h2v-2ZM15.38,10.34h-2v2h2v-2ZM15.38,6.16h-2v2h2v-2ZM15.38,1.99h-2v2h2V1.99ZM28.28,16.78h-2v-2h0v-2h-2v2h-2v-2h-2v2h-2v2h2v2h4v-2h2v2h2v-2Z"/>
  </g>
</svg>