<?xml version="1.0" encoding="UTF-8"?>
<svg id="Ebene_2" xmlns="http://www.w3.org/2000/svg" viewBox="0 0 24 17.05">
  <defs>
    <style>
      .cls-1 {
        fill: #1e1e1c;
      }
    </style>
  </defs>
  <g id="_x33_219">
    <path class="cls-1" d="M0,0v17.05h24V0H0ZM22.25,15.3H1.75V1.75h20.49v13.55ZM8.25,4.81H2.83v-1.75h5.42v1.75ZM5.85,7.69h-3.03v-1.75h3.03v1.75ZM11.68,4.25h-1.75v-1.75h1.75v1.75ZM17.04,14.7h-1.75v-1.75h1.75v-1.74h-1.75v-1.75h1.75v1.74h1.73v-1.74h1.75v1.74h0v1.75h-3.48v1.74ZM11.68,7.69h-1.75v-1.75h1.75v1.75ZM11.68,11.12h-1.75v-1.75h1.75v1.75ZM11.68,14.55h-1.75v-1.75h1.75v1.75ZM17.91,7.81c1.31,0,2.38-1.07,2.38-2.38s-1.07-2.38-2.38-2.38-2.38,1.07-2.38,2.38,1.07,2.38,2.38,2.38ZM17.91,4.81c.35,0,.63.28.63.62s-.28.62-.63.62-.63-.28-.63-.62.28-.62.63-.62ZM5.13,14.07c1.31,0,2.38-1.07,2.38-2.38s-1.07-2.38-2.38-2.38-2.38,1.07-2.38,2.38,1.07,2.38,2.38,2.38ZM5.13,11.07c.35,0,.63.28.63.62s-.28.62-.63.62-.63-.28-.63-.62.28-.62.63-.62Z"/>
  </g>
</svg>