<?xml version="1.0" encoding="UTF-8"?>
<svg id="Ebene_2" xmlns="http://www.w3.org/2000/svg" viewBox="0 0 63.99 44.99">
  <defs>
    <style>
      .cls-1 {
        fill: #1e1e1c;
      }
    </style>
  </defs>
  <g id="_x33_219">
    <path class="cls-1" d="M15.58,32.88c0,2.06-1.67,3.73-3.73,3.73s-3.73-1.67-3.73-3.73,1.67-3.73,3.73-3.73,3.73,1.67,3.73,3.73ZM50.95,36.52h2.75v-2.74h-2.75v2.74ZM63.99,0v44.99H0V0h63.99ZM6.74,16.72h8.33v-2.75H6.74v2.75ZM18.33,32.88c0-3.57-2.91-6.48-6.48-6.48s-6.48,2.91-6.48,6.48,2.91,6.48,6.48,6.48,6.48-2.91,6.48-6.48ZM21.66,8.44H6.74v2.75h14.92v-2.75ZM30.08,36.61h-2.75v2.75h2.75v-2.75ZM30.08,28.84h-2.75v2.75h2.75v-2.75ZM30.08,21.06h-2.75v2.75h2.75v-2.75ZM30.08,13.29h-2.75v2.75h2.75v-2.75ZM30.08,5.51h-2.75v2.75h2.75v-2.75ZM39.95,33.78h2.75v-2.75h-2.75v2.75ZM56.45,28.29h-2.75v-2.75h2.75v-2.75h-2.75v2.75h-2.75v2.75h0v2.74h-5.5v-2.74h2.75v-2.75h2.75v-2.75h-2.75v2.75h-2.75v-2.75h-5.5v2.75h0v2.75h2.75v-2.75h0s0,0,0,0h0s2.75,0,2.75,0v2.75h-2.75v2.75h2.75v2.74h-2.75v2.74h-2.75v2.75h2.75v-2.74h2.75v2.74h2.75v-2.74h2.75v2.74h2.75v-2.74h2.75v-2.75h-2.75v-2.74h2.75v-2.75ZM57.91,12c0-3.58-2.91-6.48-6.48-6.48s-6.48,2.91-6.48,6.48,2.91,6.48,6.48,6.48,6.48-2.91,6.48-6.48ZM45.45,36.52h2.75v-2.74h-2.75v2.74ZM51.42,8.26c-2.06,0-3.73,1.67-3.73,3.73s1.67,3.73,3.73,3.73,3.73-1.67,3.73-3.73-1.67-3.73-3.73-3.73Z"/>
  </g>
</svg>