<?xml version="1.0" encoding="UTF-8"?>
<svg id="Ebene_2" xmlns="http://www.w3.org/2000/svg" viewBox="0 0 33.82 40">
  <defs>
    <style>
      .cls-1 {
        fill: #1e1e1c;
      }
    </style>
  </defs>
  <g id="_x33_219">
    <path class="cls-1" d="M28.94,0H8.76s-3.88,0-3.88,0C2.19,0,0,2.19,0,4.87v6.12h6.52l.06,29,13.63-10.6,13.62,10.6V4.88C33.82,2.19,31.63,0,28.94,0ZM6.51,8.74H2.25v-3.87c0-1.45,1.18-2.62,2.62-2.62h1.62v5.55s.01.94.01.94ZM31.57,35.4l-11.36-8.85-11.39,8.86-.05-27.3V2.25h20.18c1.45,0,2.62,1.18,2.62,2.62v30.52Z"/>
  </g>
</svg>