<?xml version="1.0" encoding="UTF-8"?>
<svg id="Ebene_2" xmlns="http://www.w3.org/2000/svg" viewBox="0 0 27.47 32">
  <defs>
    <style>
      .cls-1 {
        fill: #1e1e1c;
      }
    </style>
  </defs>
  <g id="_x33_219">
    <path class="cls-1" d="M22.88,0h-14.43s-3.69,0-3.69,0C2.13,0,0,2.13,0,4.75v5.39h4.95l.05,21.84,11.24-8.74,11.24,8.75V4.6C27.47,2.06,25.41,0,22.88,0ZM3.5,6.64v-1.89c0-.69.56-1.25,1.25-1.25h.19v3.14s-1.44,0-1.44,0ZM23.97,24.84l-7.73-6.03-7.76,6.04-.04-18.02v-3.32h14.43c.61,0,1.1.49,1.1,1.1v20.24Z"/>
  </g>
</svg>