<?xml version="1.0" encoding="UTF-8"?>
<svg id="Ebene_2" xmlns="http://www.w3.org/2000/svg" viewBox="0 0 32 32">
  <defs>
    <style>
      .cls-1 {
        fill: #1e1e1c;
      }
    </style>
  </defs>
  <g id="_x33_219">
    <path class="cls-1" d="M0,8.46V0h6.43v3.48h2V0h15.14v3.48h2V0h6.43v8.46H0ZM32,10.46v18.53c0,1.65-1.35,3-3,3H3c-1.65,0-3-1.35-3-3V10.46h32ZM8.86,22.5h-3.07v3.07h3.07v-3.07ZM8.86,15h-3.07v3.07h3.07v-3.07ZM14.64,22.5h-3.07v3.07h3.07v-3.07ZM14.64,15h-3.07v3.07h3.07v-3.07ZM20.43,22.5h-3.07v3.07h3.07v-3.07ZM20.43,15h-3.07v3.07h3.07v-3.07ZM26.21,22.5h-3.07v3.07h3.07v-3.07ZM26.21,15h-3.07v3.07h3.07v-3.07Z"/>
  </g>
</svg>