<?xml version="1.0" encoding="UTF-8"?>
<svg id="Ebene_2" xmlns="http://www.w3.org/2000/svg" viewBox="0 0 24 24">
  <defs>
    <style>
      .cls-1 {
        fill: #1e1e1c;
      }
    </style>
  </defs>
  <g id="_x33_219">
    <path class="cls-1" d="M0,6.28V0h4.77v2.59h1.75V0h10.96v2.59h1.75V0h4.77v6.28H0ZM24,8.03v13.35c0,1.45-1.18,2.63-2.63,2.63H2.63c-1.45,0-2.63-1.18-2.63-2.63v-13.35h24ZM7.71,16.69h-2.54v2.54h2.54v-2.54ZM7.71,11.12h-2.54v2.55h2.54v-2.55ZM13.27,16.69h-2.55v2.54h2.55v-2.54ZM13.27,11.12h-2.55v2.55h2.55v-2.55ZM18.83,16.69h-2.54v2.54h2.54v-2.54ZM18.83,11.12h-2.54v2.55h2.54v-2.55Z"/>
  </g>
</svg>