<?xml version="1.0" encoding="UTF-8"?>
<svg id="Ebene_2" xmlns="http://www.w3.org/2000/svg" viewBox="0 0 24 24">
  <defs>
    <style>
      .cls-1 {
        fill: #1e1e1c;
      }
    </style>
  </defs>
  <g id="_x33_219">
    <path class="cls-1" d="M0,0v21.37c0,1.45,1.18,2.63,2.63,2.63h18.75c1.45,0,2.63-1.18,2.63-2.63V0H0ZM4.77,1.75v1.71h1.75v-1.71h10.96v1.71h1.75v-1.71h3.02v4.53H1.75V1.75h3.02ZM21.37,22.25H2.63c-.48,0-.88-.39-.88-.88v-13.35h20.5v13.35c0,.48-.39.88-.88.88ZM5.17,11.12h2.54v2.55h-2.54v-2.55ZM10.73,11.12h2.55v2.55h-2.55v-2.55ZM16.29,11.12h2.54v2.55h-2.54v-2.55ZM5.17,16.69h2.54v2.54h-2.54v-2.54ZM10.73,16.69h2.55v2.54h-2.55v-2.54ZM16.29,16.69h2.54v2.54h-2.54v-2.54Z"/>
  </g>
</svg>