<?xml version="1.0" encoding="UTF-8"?>
<svg id="Ebene_2" xmlns="http://www.w3.org/2000/svg" viewBox="0 0 40 40">
  <defs>
    <style>
      .cls-1 {
        fill: #1e1e1c;
      }
    </style>
  </defs>
  <g id="_x33_219">
    <path class="cls-1" d="M34.86,29.72c-1.2,0-2.29.43-3.16,1.12l-4.74-4.36c.76-1.24,1.2-2.68,1.2-4.23,0-4.11-3.06-7.5-7.02-8.05v-4.06c2.29-.52,4.01-2.56,4.01-5,0-2.83-2.31-5.13-5.14-5.13s-5.14,2.3-5.14,5.13c0,2.44,1.72,4.48,4.01,5v4.06c-3.96.55-7.02,3.95-7.02,8.05,0,1.56.45,3.01,1.21,4.25l-4.87,4.25c-.86-.63-1.9-1.02-3.05-1.02-2.84,0-5.14,2.3-5.14,5.13s2.31,5.13,5.14,5.13,5.14-2.3,5.14-5.13c0-.87-.24-1.68-.62-2.4l4.84-4.23c1.45,1.33,3.38,2.15,5.5,2.15s4.06-.82,5.52-2.16l4.75,4.37c-.34.69-.55,1.45-.55,2.26,0,2.83,2.31,5.13,5.14,5.13s5.14-2.3,5.14-5.13-2.31-5.13-5.14-5.13ZM17.11,5.13c0-1.59,1.29-2.88,2.88-2.88s2.88,1.29,2.88,2.88-1.29,2.88-2.88,2.88-2.88-1.29-2.88-2.88ZM5.14,37.75c-1.59,0-2.88-1.29-2.88-2.88s1.29-2.88,2.88-2.88,2.88,1.29,2.88,2.88-1.29,2.88-2.88,2.88ZM20,28.13c-3.25,0-5.9-2.64-5.9-5.89s2.64-5.89,5.9-5.89,5.9,2.64,5.9,5.89-2.64,5.89-5.9,5.89ZM34.86,37.74c-1.59,0-2.88-1.29-2.88-2.88s1.29-2.88,2.88-2.88,2.88,1.29,2.88,2.88-1.29,2.88-2.88,2.88Z"/>
  </g>
</svg>