<?xml version="1.0" encoding="UTF-8"?>
<svg id="Ebene_2" xmlns="http://www.w3.org/2000/svg" viewBox="0 0 16 16">
  <defs>
    <style>
      .cls-1 {
        fill: #1e1e1c;
      }
    </style>
  </defs>
  <g id="_x33_219">
    <path class="cls-1" d="M15.98,13.46c-.08-.6-.38-1.13-.86-1.49-.6-.46-1.35-.57-2.03-.37l-1.57-1.45c.15-.4.24-.84.24-1.29,0-1.63-1.05-3-2.51-3.52v-1.22c.6-.4,1-1.09,1-1.87,0-1.24-1.01-2.25-2.26-2.25s-2.26,1.01-2.26,2.25c0,.78.4,1.47,1,1.87v1.22c-1.46.52-2.51,1.89-2.51,3.52,0,.45.09.88.24,1.28l-1.64,1.41c-.69-.19-1.45-.06-2.04.43-.96.79-1.09,2.21-.3,3.17.38.46.93.75,1.53.81.07,0,.14.01.22.01.52,0,1.03-.18,1.43-.52.61-.51.89-1.27.8-2l1.6-1.38c.56.34,1.21.54,1.92.54s1.35-.2,1.91-.54l1.59,1.46c-.07.74.23,1.5.86,1.99h0c.41.32.89.47,1.38.47.68,0,1.34-.3,1.79-.87.37-.47.53-1.07.45-1.66ZM8.01,2c.14,0,.25.11.25.25,0,.28-.5.28-.5,0,0-.14.11-.25.25-.25ZM2.41,13.92c-.11.09-.26.07-.35-.03-.04-.05-.06-.12-.06-.18,0-.07.04-.13.09-.17.04-.04.1-.06.16-.06,0,0,.02,0,.02,0,.07,0,.13.04.17.09.09.11.07.26-.03.35ZM8.01,10.11c-.69,0-1.25-.56-1.25-1.25s.56-1.25,1.25-1.25,1.25.56,1.25,1.25-.56,1.25-1.25,1.25ZM13.5,13.78c0-.07,0-.13.05-.18.04-.05.1-.09.17-.1.01,0,.02,0,.03,0,.05,0,.11.02.15.05l-.31.4c-.05-.04-.09-.1-.09-.17ZM13.94,13.9c-.08.11-.24.13-.35.05h0l.31-.4c.11.08.13.24.05.35Z"/>
  </g>
</svg>