<?xml version="1.0" encoding="UTF-8"?>
<svg id="Ebene_2" xmlns="http://www.w3.org/2000/svg" viewBox="0 0 16 16">
  <defs>
    <style>
      .cls-1 {
        fill: #1e1e1c;
      }
    </style>
  </defs>
  <g id="_x33_219">
    <path class="cls-1" d="M13.75,0H2.25C1.01,0,0,1.01,0,2.25v7.9c0,1.24,1.01,2.25,2.25,2.25h6.28l2.08,3.6,2.08-3.6h1.07c1.24,0,2.25-1.01,2.25-2.25V2.25c0-1.24-1.01-2.25-2.25-2.25ZM5.65,7.51c-.83,0-1.5-.67-1.5-1.5s.67-1.5,1.5-1.5,1.5.67,1.5,1.5-.67,1.5-1.5,1.5ZM10.41,7.51c-.83,0-1.5-.67-1.5-1.5s.67-1.5,1.5-1.5,1.5.67,1.5,1.5-.67,1.5-1.5,1.5Z"/>
  </g>
</svg>