<?xml version="1.0" encoding="UTF-8"?>
<svg id="Ebene_2" xmlns="http://www.w3.org/2000/svg" viewBox="0 0 64 64">
  <defs>
    <style>
      .cls-1 {
        fill: #1e1e1c;
      }
    </style>
  </defs>
  <g id="_x33_219">
    <path class="cls-1" d="M56.3,0H7.7C3.45,0,0,3.47,0,7.73v33.83c0,4.26,3.45,7.73,7.7,7.73h25.48l8.74,14.71,8.74-14.71h5.64c4.24,0,7.7-3.47,7.7-7.73V7.73c0-4.26-3.45-7.73-7.7-7.73ZM22.37,28.5c-2.76,0-5-2.24-5-5s2.24-5,5-5,5,2.24,5,5-2.24,5-5,5ZM41.5,28.5c-2.76,0-5-2.24-5-5s2.24-5,5-5,5,2.24,5,5-2.24,5-5,5Z"/>
  </g>
</svg>