<?xml version="1.0" encoding="UTF-8"?>
<svg id="Ebene_2" xmlns="http://www.w3.org/2000/svg" viewBox="0 0 16.1 16">
  <defs>
    <style>
      .cls-1 {
        fill: #1e1e1c;
      }
    </style>
  </defs>
  <g id="_x33_219">
    <path class="cls-1" d="M5.67,4.51c-.83,0-1.5.67-1.5,1.5s.67,1.5,1.5,1.5,1.5-.67,1.5-1.5-.67-1.5-1.5-1.5ZM10.44,4.51c-.83,0-1.5.67-1.5,1.5s.67,1.5,1.5,1.5,1.5-.67,1.5-1.5-.67-1.5-1.5-1.5ZM13.85,0H2.25C1.01,0,0,1.01,0,2.25v7.9c0,1.24,1.01,2.25,2.25,2.25h6.29l2.08,3.6,2.08-3.6h1.13c1.24,0,2.25-1.01,2.25-2.25V2.25c0-1.24-1.01-2.25-2.25-2.25ZM14.6,10.15c0,.41-.34.75-.75.75h-2l-1.22,2.1-1.22-2.1H2.25c-.41,0-.75-.34-.75-.75V2.25c0-.41.34-.75.75-.75h11.59c.41,0,.75.34.75.75v7.9Z"/>
  </g>
</svg>