<?xml version="1.0" encoding="UTF-8"?>
<svg id="Ebene_2" xmlns="http://www.w3.org/2000/svg" viewBox="0 0 40 40">
  <defs>
    <style>
      .cls-1 {
        fill: #1e1e1c;
      }
    </style>
  </defs>
  <g id="_x33_219">
    <path class="cls-1" d="M34.97,0H5.03C2.25,0,0,2.26,0,5.04v20.58c0,2.78,2.25,5.04,5.03,5.04h15.59l5.56,9.33,5.56-9.33h3.25c2.77,0,5.03-2.26,5.03-5.04V5.04c0-2.78-2.25-5.04-5.03-5.04ZM14.14,17.92c-1.7,0-3.08-1.38-3.08-3.08s1.38-3.08,3.08-3.08,3.08,1.38,3.08,3.08-1.38,3.08-3.08,3.08ZM25.86,17.92c-1.7,0-3.08-1.38-3.08-3.08s1.38-3.08,3.08-3.08,3.08,1.38,3.08,3.08-1.38,3.08-3.08,3.08Z"/>
  </g>
</svg>