<?xml version="1.0" encoding="UTF-8"?>
<svg id="Ebene_2" xmlns="http://www.w3.org/2000/svg" viewBox="0 0 24 24">
  <defs>
    <style>
      .cls-1 {
        fill: #1e1e1c;
      }
    </style>
  </defs>
  <g id="_x33_219">
    <path class="cls-1" d="M10.46,9.05c0,1.13-.91,2.05-2.02,2.05s-2.02-.92-2.02-2.05.91-2.05,2.02-2.05,2.02.92,2.02,2.05ZM15.49,7c-1.11,0-2.02.92-2.02,2.05s.91,2.05,2.02,2.05,2.02-.92,2.02-2.05-.91-2.05-2.02-2.05ZM24,3.22v12.26c0,1.77-1.42,3.22-3.17,3.22h-1.85l-3.02,5.31-3.02-5.31H3.17c-1.75,0-3.17-1.44-3.17-3.22V3.22C0,1.44,1.42,0,3.17,0h17.67c1.75,0,3.17,1.44,3.17,3.22ZM22.26,3.22c0-.8-.64-1.45-1.42-1.45H3.17c-.78,0-1.42.65-1.42,1.45v12.26c0,.8.64,1.45,1.42,1.45h10.78l2.02,3.54,2.02-3.54h2.85c.78,0,1.42-.65,1.42-1.45V3.22Z"/>
  </g>
</svg>