<?xml version="1.0" encoding="UTF-8"?>
<svg id="Ebene_2" xmlns="http://www.w3.org/2000/svg" viewBox="0 0 64 64">
  <defs>
    <style>
      .cls-1 {
        fill: #1e1e1c;
      }
    </style>
  </defs>
  <g id="_x33_219">
    <path class="cls-1" d="M27.32,23.6c0,2.77-2.24,5.03-5,5.03s-5-2.26-5-5.03,2.24-5.03,5-5.03,5,2.26,5,5.03ZM41.44,18.57c-2.76,0-5,2.26-5,5.03s2.24,5.03,5,5.03,5-2.26,5-5.03-2.24-5.03-5-5.03ZM64,7.73v33.83c0,4.26-3.45,7.73-7.68,7.73h-5.74l-8.73,14.71-8.73-14.71H7.68c-4.24,0-7.68-3.47-7.68-7.73V7.73C0,3.47,3.45,0,7.68,0h48.64c4.24,0,7.68,3.47,7.68,7.73ZM61.25,7.73c0-2.74-2.21-4.96-4.93-4.96H7.68c-2.72,0-4.93,2.23-4.93,4.96v33.83c0,2.74,2.21,4.96,4.93,4.96h27l7.17,12.08,7.17-12.08h7.3c2.72,0,4.93-2.23,4.93-4.96V7.73Z"/>
  </g>
</svg>