<?xml version="1.0" encoding="UTF-8"?>
<svg id="Ebene_2" xmlns="http://www.w3.org/2000/svg" viewBox="0 0 16 16">
  <defs>
    <style>
      .cls-1 {
        fill: #1e1e1c;
      }
    </style>
  </defs>
  <g id="_x33_219">
    <path class="cls-1" d="M9.79,8l-7.65,7.63c-.24.24-.57.37-.89.37s-.64-.12-.89-.37c-.49-.49-.49-1.28,0-1.77l5.88-5.87L.37,2.13C-.12,1.65-.12.85.37.37S1.65-.12,2.14.37l7.65,7.63ZM8.35.37c-.49-.49-1.28-.49-1.77,0s-.49,1.28,0,1.77l5.88,5.87-5.88,5.87c-.49.49-.49,1.28,0,1.77.24.24.57.37.89.37s.64-.12.89-.37l7.65-7.63L8.35.37Z"/>
  </g>
</svg>