<?xml version="1.0" encoding="UTF-8"?>
<svg id="Ebene_2" xmlns="http://www.w3.org/2000/svg" viewBox="0 0 24 24">
  <defs>
    <style>
      .cls-1 {
        fill: #1e1e1c;
      }
    </style>
  </defs>
  <g id="_x33_219">
    <path class="cls-1" d="M14.12,12L2.56,23.56c-.29.29-.68.44-1.06.44s-.77-.15-1.06-.44c-.59-.59-.59-1.54,0-2.12l9.44-9.44L.44,2.56C-.15,1.98-.15,1.03.44.44S1.98-.15,2.56.44l11.56,11.56ZM12.44.44c-.59-.59-1.54-.59-2.12,0s-.59,1.54,0,2.12l9.44,9.44-9.44,9.44c-.59.59-.59,1.54,0,2.12.29.29.68.44,1.06.44s.77-.15,1.06-.44l11.56-11.56L12.44.44Z"/>
  </g>
</svg>