<?xml version="1.0" encoding="UTF-8"?>
<svg id="Ebene_2" xmlns="http://www.w3.org/2000/svg" viewBox="0 0 64 64">
  <defs>
    <style>
      .cls-1 {
        fill: #1e1e1c;
      }
    </style>
  </defs>
  <g id="_x33_219">
    <path class="cls-1" d="M64,32l-31.59,31.6c-.27.27-.62.4-.97.4s-.7-.13-.97-.4c-.54-.54-.54-1.41,0-1.95l29.65-29.65L30.47,2.35c-.54-.54-.54-1.41,0-1.95.54-.54,1.41-.54,1.95,0l31.59,31.6ZM2.35.4C1.81-.13.94-.13.4.4-.13.94-.13,1.81.4,2.35l29.64,29.65L.4,61.65c-.54.54-.54,1.41,0,1.95.27.27.62.4.97.4s.7-.13.97-.4l31.59-31.6L2.35.4Z"/>
  </g>
</svg>