<?xml version="1.0" encoding="UTF-8"?>
<svg id="Ebene_2" xmlns="http://www.w3.org/2000/svg" viewBox="0 0 48 48">
  <defs>
    <style>
      .cls-1 {
        fill: #1e1e1c;
      }
    </style>
  </defs>
  <g id="_x33_219">
    <path class="cls-1" d="M27.2,24L3.84,47.34c-.44.44-1.02.66-1.59.66s-1.15-.22-1.59-.66c-.88-.88-.88-2.3,0-3.18l20.17-20.16L.66,3.84C-.22,2.96-.22,1.54.66.66,1.54-.22,2.96-.22,3.84.66l23.35,23.34ZM24.65.66c-.88-.88-2.31-.88-3.18,0-.88.88-.88,2.3,0,3.18l20.17,20.16-20.17,20.16c-.88.88-.88,2.3,0,3.18.44.44,1.02.66,1.59.66s1.15-.22,1.59-.66l23.35-23.34L24.65.66Z"/>
  </g>
</svg>