<?xml version="1.0" encoding="UTF-8"?>
<svg id="Ebene_2" xmlns="http://www.w3.org/2000/svg" viewBox="0 0 64 64">
  <defs>
    <style>
      .cls-1 {
        fill: #1e1e1c;
      }
    </style>
  </defs>
  <g id="_x33_219">
    <path class="cls-1" d="M35.54,32L4.27,63.27c-.49.49-1.13.73-1.77.73s-1.28-.24-1.77-.73c-.98-.98-.98-2.56,0-3.54l27.73-27.73L.73,4.27C-.24,3.29-.24,1.71.73.73S3.29-.24,4.27.73l31.27,31.27ZM32.73.73c-.98-.98-2.56-.98-3.54,0-.98.98-.98,2.56,0,3.54l27.73,27.73-27.73,27.73c-.98.98-.98,2.56,0,3.54.49.49,1.13.73,1.77.73s1.28-.24,1.77-.73l31.27-31.27L32.73.73Z"/>
  </g>
</svg>