<?xml version="1.0" encoding="UTF-8"?>
<svg id="Ebene_2" xmlns="http://www.w3.org/2000/svg" viewBox="0 0 16 16">
  <defs>
    <style>
      .cls-1 {
        fill: #1e1e1c;
      }
    </style>
  </defs>
  <g id="_x33_219">
    <path class="cls-1" d="M9.06,8L1.28,15.78c-.15.15-.34.22-.53.22s-.38-.07-.53-.22c-.29-.29-.29-.77,0-1.06l6.72-6.72L.22,1.28C-.07.99-.07.51.22.22S.99-.07,1.28.22l7.78,7.78ZM8.22.22c-.29-.29-.77-.29-1.06,0s-.29.77,0,1.06l6.72,6.72-6.72,6.72c-.29.29-.29.77,0,1.06.15.15.34.22.53.22s.38-.07.53-.22l7.78-7.78L8.22.22Z"/>
  </g>
</svg>