<?xml version="1.0" encoding="UTF-8"?>
<svg id="Ebene_2" xmlns="http://www.w3.org/2000/svg" viewBox="0 0 48 48">
  <defs>
    <style>
      .cls-1 {
        fill: #1e1e1c;
      }
    </style>
  </defs>
  <g id="_x33_219">
    <path class="cls-1" d="M25.79,24L2.14,47.63c-.24.24-.56.37-.88.37s-.64-.12-.88-.37c-.49-.49-.49-1.28,0-1.77l21.88-21.87L.37,2.13C-.12,1.65-.12.85.37.37S1.65-.12,2.14.37l23.65,23.63ZM24.35.37c-.49-.49-1.28-.49-1.77,0s-.49,1.28,0,1.77l21.88,21.87-21.88,21.87c-.49.49-.49,1.28,0,1.77.24.24.56.37.88.37s.64-.12.88-.37l23.65-23.63L24.35.37Z"/>
  </g>
</svg>