<?xml version="1.0" encoding="UTF-8"?>
<svg id="Ebene_2" xmlns="http://www.w3.org/2000/svg" viewBox="0 0 40 40">
  <defs>
    <style>
      .cls-1 {
        fill: #1e1e1c;
      }
    </style>
  </defs>
  <g id="_x33_219">
    <path class="cls-1" d="M21.64,20L1.93,39.67c-.22.22-.51.33-.8.33s-.58-.11-.8-.33c-.44-.44-.44-1.15,0-1.59l18.12-18.08L.33,1.92C-.11,1.48-.11.77.33.33.77-.11,1.48-.11,1.93.33l19.71,19.67ZM20.29.33c-.44-.44-1.16-.44-1.6,0-.44.44-.44,1.15,0,1.59l18.12,18.08-18.12,18.08c-.44.44-.44,1.15,0,1.59.22.22.51.33.8.33s.58-.11.8-.33l19.71-19.67L20.29.33Z"/>
  </g>
</svg>