<?xml version="1.0" encoding="UTF-8"?>
<svg id="Ebene_2" xmlns="http://www.w3.org/2000/svg" viewBox="0 0 17.84 17.84">
  <defs>
    <style>
      .cls-1 {
        fill: #1e1e1c;
      }
    </style>
  </defs>
  <g id="_x33_219">
    <path class="cls-1" d="M17.4.44c.59.59.59,1.54,0,2.12l-6.36,6.36,6.36,6.36c.59.59.59,1.54,0,2.12s-1.54.59-2.12,0l-6.36-6.36-6.36,6.36c-.59.59-1.54.59-2.12,0s-.59-1.54,0-2.12l6.36-6.36L.44,2.56c-.59-.59-.59-1.54,0-2.12s1.54-.59,2.12,0l6.36,6.36L15.28.44c.59-.59,1.54-.59,2.12,0Z"/>
  </g>
</svg>