<?xml version="1.0" encoding="UTF-8"?>
<svg id="Ebene_2" xmlns="http://www.w3.org/2000/svg" viewBox="0 0 46.06 46.06">
  <defs>
    <style>
      .cls-1 {
        fill: #1e1e1c;
      }
    </style>
  </defs>
  <g id="_x33_219">
    <path class="cls-1" d="M45.65.4c.54.54.54,1.41,0,1.94l-20.68,20.68,20.68,20.68c.54.54.54,1.41,0,1.94s-1.41.54-1.94,0l-20.68-20.68L2.35,45.65c-.54.54-1.41.54-1.94,0s-.54-1.41,0-1.94l20.68-20.68L.4,2.35c-.54-.54-.54-1.41,0-1.94s1.41-.54,1.94,0l20.68,20.68L43.71.4c.54-.54,1.41-.54,1.94,0Z"/>
  </g>
</svg>