<?xml version="1.0" encoding="UTF-8"?>
<svg id="Ebene_2" xmlns="http://www.w3.org/2000/svg" viewBox="0 0 34.53 34.53">
  <defs>
    <style>
      .cls-1 {
        fill: #1e1e1c;
      }
    </style>
  </defs>
  <g id="_x33_219">
    <path class="cls-1" d="M34.16.37c.49.49.49,1.28,0,1.77l-15.13,15.13,15.13,15.13c.49.49.49,1.28,0,1.77s-1.28.49-1.77,0l-15.13-15.13-15.13,15.13c-.49.49-1.28.49-1.77,0s-.49-1.28,0-1.77l15.13-15.13L.37,2.13c-.49-.49-.49-1.28,0-1.77s1.28-.49,1.77,0l15.13,15.13L32.39.37c.49-.49,1.28-.49,1.77,0Z"/>
  </g>
</svg>