<?xml version="1.0" encoding="UTF-8"?>
<svg id="Ebene_2" xmlns="http://www.w3.org/2000/svg" viewBox="0 0 35.24 35.24">
  <defs>
    <style>
      .cls-1 {
        fill: #1e1e1c;
      }
    </style>
  </defs>
  <g id="_x33_219">
    <path class="cls-1" d="M34.58.66c.88.88.88,2.3,0,3.18l-13.78,13.78,13.78,13.78c.88.88.88,2.3,0,3.18s-2.3.88-3.18,0l-13.78-13.78-13.78,13.78c-.88.88-2.3.88-3.18,0s-.88-2.3,0-3.18l13.78-13.78L.66,3.84c-.88-.88-.88-2.3,0-3.18s2.3-.88,3.18,0l13.78,13.78L31.4.66c.88-.88,2.3-.88,3.18,0Z"/>
  </g>
</svg>