<?xml version="1.0" encoding="UTF-8"?>
<svg id="Ebene_2" xmlns="http://www.w3.org/2000/svg" viewBox="0 0 46.72 46.72">
  <defs>
    <style>
      .cls-1 {
        fill: #1e1e1c;
      }
    </style>
  </defs>
  <g id="_x33_219">
    <path class="cls-1" d="M45.99.73c.98.98.98,2.56,0,3.54l-19.09,19.09,19.09,19.09c.98.98.98,2.56,0,3.54s-2.56.98-3.54,0l-19.09-19.09L4.27,45.99c-.98.98-2.56.98-3.54,0s-.98-2.56,0-3.54l19.09-19.09L.73,4.27c-.98-.98-.98-2.56,0-3.54s2.56-.98,3.54,0l19.09,19.09L42.45.73c.98-.98,2.56-.98,3.54,0Z"/>
  </g>
</svg>