<?xml version="1.0" encoding="UTF-8"?>
<svg id="Ebene_2" xmlns="http://www.w3.org/2000/svg" viewBox="0 0 12.04 12.04">
  <defs>
    <style>
      .cls-1 {
        fill: #1e1e1c;
      }
    </style>
  </defs>
  <g id="_x33_219">
    <path class="cls-1" d="M11.67.37c.49.49.49,1.28,0,1.77l-3.89,3.89,3.89,3.89c.49.49.49,1.28,0,1.77s-1.28.49-1.77,0l-3.89-3.89-3.89,3.89c-.49.49-1.28.49-1.77,0s-.49-1.28,0-1.77l3.89-3.89L.37,2.13c-.49-.49-.49-1.28,0-1.77s1.28-.49,1.77,0l3.89,3.89L9.91.37c.49-.49,1.28-.49,1.77,0Z"/>
  </g>
</svg>