<?xml version="1.0" encoding="UTF-8"?>
<svg id="Ebene_2" xmlns="http://www.w3.org/2000/svg" viewBox="0 0 40 36.03">
  <defs>
    <style>
      .cls-1 {
        fill: #1e1e1c;
      }
    </style>
  </defs>
  <g id="_x33_219">
    <path class="cls-1" d="M40,16.75C40,7.51,31.03,0,20,0S0,7.51,0,16.75s8.97,16.75,20,16.75c3.37,0,6.7-.73,9.67-2.1l9.99,4.64-2.33-10.96c1.74-2.54,2.66-5.41,2.66-8.32ZM29.65,28.89l-.48.24c-2.78,1.38-5.95,2.1-9.17,2.1-9.79,0-17.75-6.5-17.75-14.49S10.21,2.25,20,2.25s17.75,6.5,17.75,14.49c0,2.59-.87,5.16-2.52,7.41l-.3.41,1.6,7.53-6.88-3.19ZM10.63,9.99h18.93v2.25H10.63v-2.25ZM21.14,15.84v2.25h-10.28v-2.25h10.28ZM10.86,21.7h15.7v2.25h-15.7v-2.25Z"/>
  </g>
</svg>