<?xml version="1.0" encoding="UTF-8"?>
<svg id="Ebene_2" xmlns="http://www.w3.org/2000/svg" viewBox="0 0 24 21.82">
  <defs>
    <style>
      .cls-1 {
        fill: #1e1e1c;
      }
    </style>
  </defs>
  <g id="_x33_219">
    <path class="cls-1" d="M24,10.08C24,4.52,18.62,0,12,0S0,4.52,0,10.08s5.38,10.08,12,10.08c1.98,0,3.95-.42,5.7-1.22l6.19,2.87-1.44-6.79c1.02-1.51,1.55-3.22,1.55-4.95ZM21.44,18.75l-3.76-1.75-.38.19c-1.61.8-3.44,1.22-5.31,1.22-5.65,0-10.25-3.74-10.25-8.33S6.35,1.75,12,1.75s10.25,3.74,10.25,8.33c0,1.48-.5,2.95-1.45,4.24l-.23.32.87,4.11ZM6.48,7.29h11.16v1.75H6.48v-1.75ZM6.61,11.17h6.95v1.75h-6.95v-1.75Z"/>
  </g>
</svg>