<?xml version="1.0" encoding="UTF-8"?>
<svg id="Ebene_2" xmlns="http://www.w3.org/2000/svg" viewBox="0 0 16 16">
  <defs>
    <style>
      .cls-1 {
        fill: #1e1e1c;
      }
    </style>
  </defs>
  <g id="_x33_219">
    <path class="cls-1" d="M14.22,7.37h-5.6V1.77c0-.69.56-1.25,1.25-1.25s1.25.56,1.25,1.25v1.33l3.1-3.1,1.77,1.77-3.1,3.1h1.33c.69,0,1.25.56,1.25,1.25s-.56,1.25-1.25,1.25ZM.52,9.88c0,.69.56,1.25,1.25,1.25h1.33l-3.1,3.1,1.77,1.77,3.1-3.1v1.33c0,.69.56,1.25,1.25,1.25s1.25-.56,1.25-1.25v-5.6H1.77c-.69,0-1.25.56-1.25,1.25ZM6.13.52c-.69,0-1.25.56-1.25,1.25v1.33L1.77,0,0,1.77l3.1,3.1h-1.33c-.69,0-1.25.56-1.25,1.25s.56,1.25,1.25,1.25h5.6V1.78c0-.69-.56-1.25-1.25-1.25ZM16,14.23l-3.1-3.1h1.34c.69,0,1.25-.56,1.25-1.25s-.56-1.25-1.25-1.25h-5.6v5.43c0,.69.56,1.25,1.25,1.25s1.25-.56,1.25-1.25v-1.16l3.1,3.1,1.77-1.77Z"/>
  </g>
</svg>