<?xml version="1.0" encoding="UTF-8"?>
<svg id="Ebene_2" xmlns="http://www.w3.org/2000/svg" viewBox="0 0 40 40">
  <defs>
    <style>
      .cls-1 {
        fill: #1e1e1c;
      }
    </style>
  </defs>
  <g id="_x33_219">
    <path class="cls-1" d="M35.92,15.98h-11.91V4.07c0-.62.5-1.13,1.13-1.13s1.13.5,1.13,1.13v8.07L38.41,0l1.59,1.59-12.14,12.14h8.07c.62,0,1.13.5,1.13,1.13s-.5,1.13-1.13,1.13ZM2.96,25.13c0,.62.5,1.13,1.13,1.13h8.07L0,38.41l1.59,1.59,12.15-12.15v8.07c0,.62.5,1.13,1.13,1.13s1.13-.5,1.13-1.13v-11.91H4.09c-.62,0-1.13.5-1.13,1.13ZM4.09,13.75c-.62,0-1.13.5-1.13,1.13s.5,1.13,1.13,1.13h11.91V4.09c0-.62-.5-1.13-1.13-1.13s-1.13.5-1.13,1.13v8.07L1.59,0,0,1.59l12.16,12.16H4.09ZM40,38.4l-12.15-12.15h8.07c.62,0,1.13-.5,1.13-1.13s-.5-1.13-1.13-1.13h-11.91v11.45c0,.62.5,1.13,1.13,1.13s1.13-.5,1.13-1.13v-7.61l12.15,12.15,1.59-1.59Z"/>
  </g>
</svg>