<?xml version="1.0" encoding="UTF-8"?>
<svg id="Ebene_2" xmlns="http://www.w3.org/2000/svg" viewBox="0 0 16 16">
  <defs>
    <style>
      .cls-1 {
        fill: #1e1e1c;
      }
    </style>
  </defs>
  <g id="_x33_219">
    <path class="cls-1" d="M13.9,6.99h-4.89V2.1c0-.41.34-.75.75-.75s.75.34.75.75v2.33L14.94,0l1.06,1.06-4.43,4.43h2.33c.41,0,.75.34.75.75s-.34.75-.75.75ZM1.35,9.77c0,.41.34.75.75.75h2.33L0,14.94l1.06,1.06,4.42-4.42v2.33c0,.41.34.75.75.75s.75-.34.75-.75v-4.89H2.1c-.41,0-.75.34-.75.75ZM6.24,1.35c-.41,0-.75.34-.75.75v2.33L1.06,0,0,1.06l4.43,4.43h-2.33c-.41,0-.75.34-.75.75s.34.75.75.75h4.89V2.1c0-.41-.34-.75-.75-.75ZM13.9,10.51c.41,0,.75-.34.75-.75s-.34-.75-.75-.75h-4.89v4.72c0,.41.34.75.75.75s.75-.34.75-.75v-2.15l4.42,4.42,1.06-1.06-4.42-4.43h2.34Z"/>
  </g>
</svg>