<?xml version="1.0" encoding="UTF-8"?>
<svg id="Ebene_2" xmlns="http://www.w3.org/2000/svg" viewBox="0 0 24 24">
  <defs>
    <style>
      .cls-1 {
        fill: #1e1e1c;
      }
    </style>
  </defs>
  <g id="_x33_219">
    <path class="cls-1" d="M21.32,9.99h-7.3V2.68c0-.48.39-.88.88-.88s.88.39.88.88v4.31L22.76,0l1.24,1.24-7,7h4.31c.48,0,.88.39.88.88s-.39.88-.88.88ZM1.83,14.87c0,.48.39.88.88.88h4.31L0,22.76l1.24,1.24,7.02-7.02v4.31c0,.48.39.88.88.88s.88-.39.88-.88v-7.31H2.7c-.48,0-.88.39-.88.88ZM2.7,8.24c-.48,0-.88.39-.88.88s.39.88.88.88h7.31V2.69c0-.48-.39-.88-.88-.88s-.88.39-.88.88v4.31L1.25,0,.01,1.24l7,7H2.7ZM21.33,15.77c.48,0,.88-.39.88-.88s-.39-.88-.88-.88h-7.3v7.03c0,.48.39.88.88.88s.88-.39.88-.88v-4.04l6.99,6.99,1.24-1.24-6.98-6.98h4.31Z"/>
  </g>
</svg>