<?xml version="1.0" encoding="UTF-8"?>
<svg id="Ebene_2" xmlns="http://www.w3.org/2000/svg" viewBox="0 0 64 64">
  <defs>
    <style>
      .cls-1 {
        fill: #1e1e1c;
      }
    </style>
  </defs>
  <g id="_x33_219">
    <path class="cls-1" d="M58.09,24.78h-18.87V5.91c0-.76.62-1.38,1.38-1.38s1.38.62,1.38,1.38v14.18L62.05,0l1.95,1.95-20.08,20.08h14.17c.76,0,1.38.62,1.38,1.38s-.62,1.38-1.38,1.38ZM4.56,40.59c0,.76.62,1.38,1.38,1.38h14.17L.04,62.04l1.95,1.95,20.07-20.07v14.18c0,.76.62,1.38,1.38,1.38s1.38-.62,1.38-1.38v-18.87H5.93c-.76,0-1.38.62-1.38,1.38ZM23.44,4.57c-.76,0-1.38.62-1.38,1.38v14.18L1.95,0,0,1.95l20.12,20.13H5.95c-.76,0-1.38.62-1.38,1.38s.62,1.38,1.38,1.38h18.87V5.95c0-.76-.62-1.38-1.38-1.38ZM64,62.05l-20.08-20.08h14.17c.76,0,1.38-.62,1.38-1.38s-.62-1.38-1.38-1.38h-18.87v18.12c0,.76.62,1.38,1.38,1.38s1.38-.62,1.38-1.38v-13.43l20.08,20.09,1.95-1.95Z"/>
  </g>
</svg>