<?xml version="1.0" encoding="UTF-8"?>
<svg id="Ebene_2" xmlns="http://www.w3.org/2000/svg" viewBox="0 0 24 17.17">
  <defs>
    <style>
      .cls-1 {
        fill: #1e1e1c;
      }
    </style>
  </defs>
  <g id="_x33_219">
    <path class="cls-1" d="M21.39,0H2.61C1.17,0,0,1.18,0,2.62v11.92c0,1.45,1.17,2.62,2.61,2.62h18.78c1.44,0,2.61-1.18,2.61-2.62V2.62c0-1.45-1.17-2.62-2.61-2.62ZM22.26,14.55c0,.48-.39.88-.87.88H2.61c-.48,0-.87-.39-.87-.88V6.36h20.52v8.19ZM1.74,3.84v-1.21c0-.48.39-.88.87-.88h18.78c.48,0,.87.39.87.88v1.21H1.74ZM5.01,13.81h1.96c1.03,0,1.87-.84,1.87-1.88v-1.97c0-1.03-.84-1.88-1.87-1.88h-1.96c-1.03,0-1.87.84-1.87,1.88v1.97c0,1.03.84,1.88,1.87,1.88ZM4.88,9.96c0-.07.06-.12.12-.12h1.96c.07,0,.12.06.12.12v1.97c0,.07-.06.12-.12.12h-1.96c-.07,0-.12-.06-.12-.12v-1.97ZM10.67,12.43c0-.48.39-.88.87-.88h4.18c.48,0,.87.39.87.88s-.39.88-.87.88h-4.18c-.48,0-.87-.39-.87-.88ZM10.67,9.29c0-.48.39-.88.87-.88h8.35c.48,0,.87.39.87.88s-.39.88-.87.88h-8.35c-.48,0-.87-.39-.87-.88Z"/>
  </g>
</svg>