<?xml version="1.0" encoding="UTF-8"?>
<svg id="Ebene_2" xmlns="http://www.w3.org/2000/svg" viewBox="0 0 48 33.88">
  <defs>
    <style>
      .cls-1 {
        fill: #1e1e1c;
      }
    </style>
  </defs>
  <g id="_x33_219">
    <path class="cls-1" d="M15.46,25.7v.72h-7.5v-.72h2.82v-2.5h-2.82v-1.06h2.82v-2.5h-2.82v-.72h7.5v.72h-2.79v2.5h2.79v1.06h-2.79v2.5h2.79ZM48,7.28v-3.53c0-2.07-1.68-3.75-3.75-3.75H3.75C1.68,0,0,1.68,0,3.75v3.53h48ZM48,12.78v17.35c0,2.07-1.68,3.75-3.75,3.75H3.75c-2.07,0-3.75-1.68-3.75-3.75V12.78h48ZM17.96,18.67c0-1.24-1.01-2.25-2.25-2.25H7.71c-1.24,0-2.25,1.01-2.25,2.25v8c0,1.24,1.01,2.25,2.25,2.25h8c1.24,0,2.25-1.01,2.25-2.25v-8ZM32.85,24.19c0-.69-.56-1.25-1.25-1.25h-8.54c-.69,0-1.25.56-1.25,1.25s.56,1.25,1.25,1.25h8.54c.69,0,1.25-.56,1.25-1.25ZM41.39,19.29c0-.69-.56-1.25-1.25-1.25h-17.07c-.69,0-1.25.56-1.25,1.25s.56,1.25,1.25,1.25h17.07c.69,0,1.25-.56,1.25-1.25Z"/>
  </g>
</svg>