<?xml version="1.0" encoding="UTF-8"?>
<svg id="Ebene_2" xmlns="http://www.w3.org/2000/svg" viewBox="0 0 48 33.88">
  <defs>
    <style>
      .cls-1 {
        fill: #1e1e1c;
      }
    </style>
  </defs>
  <g id="_x33_219">
    <path class="cls-1" d="M44.25,0H3.75C1.68,0,0,1.68,0,3.75v26.38c0,2.07,1.68,3.75,3.75,3.75h40.5c2.07,0,3.75-1.68,3.75-3.75V3.75c0-2.07-1.68-3.75-3.75-3.75ZM2.5,8.53h43v3H2.5v-3ZM45.5,30.12c0,.69-.56,1.25-1.25,1.25H3.75c-.69,0-1.25-.56-1.25-1.25V14.03h43v16.1ZM2.5,6.03v-2.28c0-.69.56-1.25,1.25-1.25h40.5c.69,0,1.25.56,1.25,1.25v2.28H2.5ZM7.71,28.92h8c1.24,0,2.25-1.01,2.25-2.25v-8c0-1.24-1.01-2.25-2.25-2.25H7.71c-1.24,0-2.25,1.01-2.25,2.25v8c0,1.24,1.01,2.25,2.25,2.25ZM15.46,18.92v.72h-2.79v2.5h2.79v1.06h-2.79v2.5h2.79v.72h-7.5v-.72h2.82v-2.5h-2.82v-1.06h2.82v-2.5h-2.82v-.72h7.5ZM21.82,24.19c0-.69.56-1.25,1.25-1.25h8.54c.69,0,1.25.56,1.25,1.25s-.56,1.25-1.25,1.25h-8.54c-.69,0-1.25-.56-1.25-1.25ZM21.82,19.29c0-.69.56-1.25,1.25-1.25h17.07c.69,0,1.25.56,1.25,1.25s-.56,1.25-1.25,1.25h-17.07c-.69,0-1.25-.56-1.25-1.25Z"/>
  </g>
</svg>