<?xml version="1.0" encoding="UTF-8"?>
<svg id="Ebene_2" xmlns="http://www.w3.org/2000/svg" viewBox="0 0 64 44.99">
  <defs>
    <style>
      .cls-1 {
        fill: #1e1e1c;
      }
    </style>
  </defs>
  <g id="_x33_219">
    <path class="cls-1" d="M59.87,0H4.13C1.85,0,0,1.85,0,4.12v36.74c0,2.27,1.85,4.12,4.13,4.12h55.75c2.27,0,4.13-1.85,4.13-4.12V4.12c0-2.27-1.85-4.12-4.13-4.12ZM2.75,9.67h58.5v3.75H2.75v-3.75ZM61.25,40.86c0,.76-.62,1.38-1.38,1.38H4.13c-.76,0-1.38-.62-1.38-1.38v-24.69h58.5v24.69ZM2.75,6.92v-2.8c0-.76.62-1.38,1.38-1.38h55.75c.76,0,1.38.62,1.38,1.38v2.8H2.75ZM10.33,36.46h10.25c1.31,0,2.38-1.07,2.38-2.38v-10.25c0-1.31-1.07-2.38-2.38-2.38h-10.25c-1.31,0-2.38,1.07-2.38,2.38v10.25c0,1.31,1.07,2.38,2.38,2.38ZM20.2,24.21v1.18h-3.11v2.75h3.11v1.63h-3.11v2.75h3.11v1.19h-9.5v-1.19h3.22v-2.75h-3.22v-1.63h3.22v-2.75h-3.22v-1.18h9.5ZM29.37,30.01c0-.76.62-1.38,1.38-1.38h11.49c.76,0,1.38.62,1.38,1.38s-.62,1.38-1.38,1.38h-11.49c-.76,0-1.38-.62-1.38-1.38ZM29.37,24.41c0-.76.62-1.38,1.38-1.38h22.98c.76,0,1.38.62,1.38,1.38s-.62,1.38-1.38,1.38h-22.98c-.76,0-1.38-.62-1.38-1.38Z"/>
  </g>
</svg>