<?xml version="1.0" encoding="UTF-8"?>
<svg id="Ebene_2" xmlns="http://www.w3.org/2000/svg" viewBox="0 0 32 22.7">
  <defs>
    <style>
      .cls-1 {
        fill: #1e1e1c;
      }
    </style>
  </defs>
  <g id="_x33_219">
    <path class="cls-1" d="M29,0H3C1.35,0,0,1.35,0,3v16.7c0,1.65,1.35,3,3,3h26c1.65,0,3-1.35,3-3V3c0-1.65-1.35-3-3-3ZM2,5.5h28v1.5H2v-1.5ZM30,19.7c0,.55-.45,1-1,1H3c-.55,0-1-.45-1-1v-10.7h28v10.7ZM2,3.5v-.5c0-.55.45-1,1-1h26c.55,0,1,.45,1,1v.5H2ZM5.9,18.52h4c1.1,0,2-.9,2-2v-4c0-1.1-.9-2-2-2h-4c-1.1,0-2,.9-2,2v4c0,1.1.9,2,2,2ZM9.89,12.52v1s-1.27,0-1.27,0v2h1.28v1s-4,0-4,0v-1h1.33v-2h-1.33v-1h4ZM14.39,15.84c0-.55.45-1,1-1h5.63c.55,0,1,.45,1,1s-.45,1-1,1h-5.63c-.55,0-1-.45-1-1ZM14.39,12.29c0-.55.45-1,1-1h11.26c.55,0,1,.45,1,1s-.45,1-1,1h-11.26c-.55,0-1-.45-1-1Z"/>
  </g>
</svg>