<?xml version="1.0" encoding="UTF-8"?>
<svg id="Ebene_2" xmlns="http://www.w3.org/2000/svg" viewBox="0 0 32 22.7">
  <defs>
    <style>
      .cls-1 {
        fill: #1e1e1c;
      }
    </style>
  </defs>
  <g id="_x33_219">
    <path class="cls-1" d="M0,4.5v-1.5C0,1.35,1.35,0,3,0h26c1.65,0,3,1.35,3,3v1.5H0ZM8.62,15.52v-2h1.27v-1h-4v1h1.33v2h-1.33v1h4v-1h-1.28ZM32,8v11.7c0,1.65-1.35,3-3,3H3c-1.65,0-3-1.35-3-3V8h32ZM11.89,12.52c0-1.1-.9-2-2-2h-4c-1.1,0-2,.9-2,2v4c0,1.1.9,2,2,2h4c1.1,0,2-.9,2-2v-4ZM22.01,15.84c0-.55-.45-1-1-1h-5.63c-.55,0-1,.45-1,1s.45,1,1,1h5.63c.55,0,1-.45,1-1ZM27.64,12.29c0-.55-.45-1-1-1h-11.26c-.55,0-1,.45-1,1s.45,1,1,1h11.26c.55,0,1-.45,1-1Z"/>
  </g>
</svg>