<?xml version="1.0" encoding="UTF-8"?>
<svg id="Ebene_2" xmlns="http://www.w3.org/2000/svg" viewBox="0 0 20.29 24">
  <defs>
    <style>
      .cls-1 {
        fill: #1e1e1c;
      }
    </style>
  </defs>
  <g id="_x33_219">
    <path class="cls-1" d="M6.05,11.32c0-1.3,1.05-2.35,2.35-2.35s2.35,1.05,2.35,2.35-1.05,2.35-2.35,2.35-2.35-1.05-2.35-2.35ZM7.5,7.18h1.79V1.26h-1.79v5.92ZM18.13,8.2C18.05,1.1,14.35.13,10.77,0c.19.24.31.54.31.87v7.32c.88.76,1.46,1.87,1.46,3.12,0,.72-.2,1.39-.53,1.98.34.28.87.67,1.61,1.04.19-.09.4-.15.62-.15.77,0,1.41.63,1.41,1.41s-.63,1.4-1.41,1.4c-.64,0-1.17-.43-1.34-1.02-.94-.46-1.61-.95-2.06-1.33-.69.5-1.52.81-2.44.81-2.28,0-4.14-1.86-4.14-4.14,0-1.25.57-2.37,1.46-3.12V.87c0-.09.01-.18.03-.27C2.38,1.9,0,5.08,0,8.79c0,1.69.5,3.33,1.44,4.76.67,2.22,0,3.48-.05,3.55-1.01,1.86-.39,2.94-.1,3.3,1.84,2.99,6.92,3.41,7.69,3.46.4.09.77.14,1.11.14.62,0,1.15-.15,1.58-.46.79-.57.87-1.42.88-1.52v-.05s-.03-.82-.03-.82c0-.21.06-.35.2-.48.59-.54,2.19-.59,2.94-.52h.06c2.07,0,2.71-2.21,2.75-3.43v-1.74s.43,0,.43,0c.52,0,.96-.24,1.19-.67.67-1.19-.67-3.93-1.97-6.11Z"/>
  </g>
</svg>