<?xml version="1.0" encoding="UTF-8"?>
<svg id="Ebene_2" xmlns="http://www.w3.org/2000/svg" viewBox="0 0 33.69 40">
  <defs>
    <style>
      .cls-1 {
        fill: #1e1e1c;
      }
    </style>
  </defs>
  <g id="_x33_219">
    <path class="cls-1" d="M12.39,1.21h2.98v10.85h-2.98V1.21ZM13.88,14.5c-2.4,0-4.35,1.95-4.35,4.35s1.95,4.35,4.35,4.35,4.35-1.95,4.35-4.35-1.95-4.35-4.35-4.35ZM30.04,13.66C29.93,1.62,23.8.17,17.58,0c.06.18.11.37.11.57v12.82c1.72,1.2,2.86,3.2,2.86,5.46,0,1.26-.36,2.44-.97,3.45.59.53,1.63,1.33,3.17,2.08.31-.19.67-.31,1.06-.31,1.12,0,2.02.91,2.02,2.02s-.91,2.02-2.02,2.02c-.98,0-1.79-.69-1.98-1.61-1.78-.86-3.02-1.79-3.77-2.46-1.14.92-2.59,1.47-4.16,1.47-3.67,0-6.66-2.99-6.66-6.66,0-2.26,1.13-4.25,2.86-5.46V.81C4.22,2.81,0,8.21,0,14.56c0,2.81.84,5.54,2.42,7.91,1.22,3.96-.02,6.23-.09,6.35-1.65,3.02-.62,4.71-.18,5.22,3.04,4.98,11.64,5.65,12.8,5.72.66.16,1.27.23,1.83.23.98,0,1.81-.24,2.47-.72,1.2-.87,1.34-2.17,1.35-2.31v-.07s-.05-1.38-.05-1.38c0-.46.14-.79.46-1.08,1.18-1.08,4.19-1.07,5.23-.98.03,0,.06,0,.09,0,3.24,0,4.23-3.52,4.31-5.45l-.02-3.31h1.1c.75,0,1.37-.35,1.71-.95,1.11-1.97-1.57-7.05-3.39-10.09Z"/>
  </g>
</svg>