<?xml version="1.0" encoding="UTF-8"?>
<svg id="Ebene_2" xmlns="http://www.w3.org/2000/svg" viewBox="0 0 53.76 64">
  <defs>
    <style>
      .cls-1 {
        fill: #1e1e1c;
      }
    </style>
  </defs>
  <g id="_x33_219">
    <path class="cls-1" d="M19.18,1.24h5.77v18.55h-5.77V1.24ZM22.07,22.61c-4.15,0-7.52,3.37-7.52,7.52s3.37,7.52,7.52,7.52,7.52-3.37,7.52-7.52-3.37-7.52-7.52-7.52ZM47.82,21.85C47.69,2.42,37.75.24,27.74,0c.02.11.03.23.03.34v21.17c2.79,1.85,4.64,5.02,4.64,8.62,0,2.1-.63,4.05-1.71,5.69.95.9,2.84,2.43,5.77,3.82.47-.35,1.05-.57,1.68-.57,1.55,0,2.82,1.26,2.82,2.82s-1.26,2.82-2.82,2.82c-1.43,0-2.6-1.08-2.78-2.46-3.25-1.52-5.38-3.22-6.54-4.31-1.82,1.57-4.18,2.53-6.76,2.53-5.7,0-10.34-4.64-10.34-10.34,0-3.59,1.85-6.76,4.64-8.62V1.17C6.86,4.26,0,12.95,0,23.18c0,4.49,1.34,8.86,3.88,12.64,2.09,6.69-.05,10.53-.17,10.73-2.54,4.67-.93,7.25-.34,7.97,4.83,8,18.81,9.01,20.48,9.11,1.05.25,2.02.38,2.9.38,1.5,0,2.75-.36,3.74-1.08,1.78-1.29,1.98-3.2,2-3.41v-.08s-.09-2.24-.09-2.24c0-.87.29-1.54.9-2.1,2.05-1.87,6.99-1.88,8.81-1.71.05,0,.09,0,.14,0,4.91,0,6.42-5.42,6.53-8.38l-.03-5.83h2.25c1.06,0,1.9-.46,2.38-1.31,1.75-3.12-3.15-11.99-5.57-16.02Z"/>
  </g>
</svg>