<?xml version="1.0" encoding="UTF-8"?>
<svg id="Ebene_2" xmlns="http://www.w3.org/2000/svg" viewBox="0 0 13.37 16">
  <defs>
    <style>
      .cls-1 {
        fill: #1e1e1c;
      }
    </style>
  </defs>
  <g id="_x33_219">
    <path class="cls-1" d="M11.97,5.67C11.9.88,9.2.36,6.85.3c-.22-.18-.48-.3-.79-.3h-1c-.46,0-.85.26-1.06.63C1.67,1.43,0,3.58,0,6.1c0,1.11.32,2.18.94,3.12.39,1.32,0,2.06-.02,2.11-.69,1.25-.28,2.01-.05,2.29,1.22,1.97,4.42,2.25,5.05,2.29.26.06.51.09.74.09.44,0,.81-.11,1.12-.33.56-.4.63-.99.64-1.19l-.02-.48c0-.09.02-.13.07-.18.3-.27,1.2-.34,1.76-.29h.04c1.27,0,1.9-1.2,1.94-2.37v-.93s.1,0,.1,0c.4,0,.73-.19.92-.52.14-.25.57-1.01-1.24-4.04ZM5.56,6.39c.73,0,1.33.6,1.33,1.33s-.6,1.33-1.33,1.33-1.33-.6-1.33-1.33.6-1.33,1.33-1.33ZM5.56,4.9c-.09,0-.17.02-.25.03V1.5h.5v3.42c-.08,0-.16-.03-.25-.03ZM10.69,8.74v2.4s-.06.9-.38.9h0c-.32-.03-1.96-.14-2.85.67-.37.33-.56.78-.56,1.31v.43s-.19.1-.69-.02l-.15-.02c-.85-.04-3.22-.41-3.94-1.61l-.08-.12c-.02-.08,0-.29.17-.62.08-.14.77-1.38.12-3.41l-.09-.19c-.49-.71-.74-1.53-.74-2.37,0-1.61.94-3,2.31-3.74v3.15c-.65.52-1.08,1.31-1.08,2.2,0,1.56,1.27,2.82,2.83,2.82.58,0,1.11-.17,1.56-.47.28.23.67.5,1.19.75.15.41.54.7,1,.7.59,0,1.08-.48,1.08-1.07s-.48-1.07-1.08-1.07c-.14,0-.27.03-.39.08-.35-.18-.62-.36-.81-.52.18-.37.29-.78.29-1.22,0-.89-.43-1.68-1.08-2.2V1.81c1.95.1,3.17.69,3.17,4.07v.21l.11.18c.55.9,1.03,1.9,1.21,2.47h-1.11Z"/>
  </g>
</svg>