<?xml version="1.0" encoding="UTF-8"?>
<svg id="Ebene_2" xmlns="http://www.w3.org/2000/svg" viewBox="0 0 18.53 24">
  <defs>
    <style>
      .cls-1 {
        fill: #1e1e1c;
      }
    </style>
  </defs>
  <g id="_x33_219">
    <path class="cls-1" d="M11.78.16c-.83-.11-1.68-.16-2.52-.16s-1.69.05-2.52.16C3.15.62,0,2.07,0,4.37v15.25c0,2.84,4.77,4.38,9.26,4.38s9.26-1.53,9.26-4.38V4.37c0-2.31-3.15-3.75-6.74-4.21ZM9.26,1.75c.29,0,.57,0,.84.02,4.1.17,6.67,1.6,6.67,2.61,0,1.07-2.93,2.62-7.51,2.62S1.75,5.45,1.75,4.38c0-1,2.57-2.43,6.67-2.61.27-.01.55-.02.84-.02ZM9.26,22.25c-4.59,0-7.51-1.55-7.51-2.62v-2.31c1.79,1.14,4.71,1.74,7.51,1.74s5.72-.6,7.51-1.74v2.31c0,1.07-2.93,2.62-7.51,2.62ZM16.78,14.68c0,1.07-2.93,2.62-7.51,2.62s-7.51-1.55-7.51-2.62v-2.47c1.79,1.14,4.71,1.74,7.51,1.74s5.72-.6,7.51-1.74v2.47ZM16.78,9.57c0,1.07-2.93,2.62-7.51,2.62s-7.51-1.55-7.51-2.62v-2.56c1.79,1.14,4.71,1.74,7.51,1.74s5.72-.6,7.51-1.74v2.56Z"/>
  </g>
</svg>