<?xml version="1.0" encoding="UTF-8"?>
<svg id="Ebene_2" xmlns="http://www.w3.org/2000/svg" viewBox="0 0 18.8 24">
  <defs>
    <style>
      .cls-1 {
        fill: #1e1e1c;
      }
    </style>
  </defs>
  <g id="_x33_219">
    <path class="cls-1" d="M9.4,0C4.73,0,0,1.65,0,4.81v14.39c0,3.16,4.73,4.81,9.4,4.81s9.4-1.65,9.4-4.81V4.81C18.8,1.65,14.07,0,9.4,0ZM9.4,3.01c.51,0,.99.02,1.43.06.16.01.3.04.45.06.27.03.55.06.8.1.16.03.3.06.45.09.21.04.43.08.62.13.15.04.26.08.4.12.17.05.35.1.5.15.13.05.22.09.34.14.13.05.26.1.37.16.1.05.17.1.26.14.09.05.2.1.27.15.07.05.11.09.17.13.06.05.13.1.17.14.04.04.05.07.08.11.03.04.06.08.08.11-.19.51-2.36,1.79-6.4,1.79s-6.27-1.32-6.4-1.78c.13-.5,2.31-1.82,6.4-1.82ZM9.4,20.99c-4.1,0-6.27-1.32-6.4-1.8v-1.06c1.76.79,4.09,1.2,6.4,1.2s4.64-.41,6.4-1.2v1.04c-.13.5-2.31,1.82-6.4,1.82ZM15.8,14.51c-.14.5-2.31,1.81-6.4,1.81s-6.27-1.32-6.4-1.8v-1.21c1.76.79,4.09,1.2,6.4,1.2s4.64-.41,6.4-1.2v.97s0,0,0,0v.23ZM15.8,9.7c-.14.5-2.31,1.81-6.4,1.81s-6.27-1.32-6.4-1.8v-.09h0v-1.21c1.76.79,4.09,1.2,6.4,1.2s4.64-.41,6.4-1.2v1.21s0,0,0,0v.07Z"/>
  </g>
</svg>