<?xml version="1.0" encoding="UTF-8"?>
<svg id="Ebene_2" xmlns="http://www.w3.org/2000/svg" viewBox="0 0 49.52 64">
  <defs>
    <style>
      .cls-1 {
        fill: #1e1e1c;
      }
    </style>
  </defs>
  <g id="_x33_219">
    <path class="cls-1" d="M24.76,0C12.76,0,0,4.13,0,11.78v40.44c0,7.65,12.76,11.78,24.76,11.78s24.76-4.13,24.76-11.78V11.78c0-7.65-12.76-11.78-24.76-11.78ZM24.76,5c12.06,0,19.76,4.01,19.76,6.78s-7.7,6.78-19.76,6.78S5,14.55,5,11.78s7.7-6.78,19.76-6.78ZM24.76,59c-12.06,0-19.76-4.01-19.76-6.78v-5.82c4.82,2.95,12.43,4.49,19.76,4.49s14.95-1.54,19.76-4.49v5.82c0,2.76-7.7,6.78-19.76,6.78ZM44.52,39.11c0,2.76-7.7,6.78-19.76,6.78s-19.76-4.01-19.76-6.78v-6.25c4.82,2.95,12.43,4.49,19.76,4.49s14.95-1.54,19.76-4.49v6.25ZM44.52,25.57c0,2.76-7.7,6.78-19.76,6.78s-19.76-4.01-19.76-6.78v-6.5c4.82,2.95,12.43,4.49,19.76,4.49s14.95-1.54,19.76-4.49v6.5Z"/>
  </g>
</svg>