<?xml version="1.0" encoding="UTF-8"?>
<svg id="Ebene_2" xmlns="http://www.w3.org/2000/svg" viewBox="0 0 48 48">
  <defs>
    <style>
      .cls-1 {
        fill: #1e1e1c;
      }
    </style>
  </defs>
  <g id="_x33_219">
    <path class="cls-1" d="M23.32,21.01c5.81,0,10.55-4.71,10.55-10.51S29.13,0,23.32,0s-10.55,4.71-10.55,10.51,4.73,10.51,10.55,10.51ZM23.32,2.49c4.44,0,8.05,3.59,8.05,8.01s-3.61,8.01-8.05,8.01-8.05-3.59-8.05-8.01,3.61-8.01,8.05-8.01ZM11.96,26.47h20.54v2.49H11.96c-5.22,0-9.46,4.22-9.46,9.42v9.52H0v-9.52c0-6.57,5.36-11.91,11.96-11.91ZM12.89,38.39h2.5v9.52h-2.5v-9.52ZM42.41,40.65l5.49,5.49-1.77,1.76-5.49-5.49-5.59,5.58-1.77-1.76,5.59-5.58-5.73-5.72,1.77-1.76,5.73,5.72,5.59-5.58,1.77,1.76-5.59,5.58Z"/>
  </g>
</svg>