<?xml version="1.0" encoding="UTF-8"?>
<svg id="Ebene_2" xmlns="http://www.w3.org/2000/svg" viewBox="0 0 32 32">
  <defs>
    <style>
      .cls-1 {
        fill: #1e1e1c;
      }
    </style>
  </defs>
  <g id="_x33_219">
    <path class="cls-1" d="M15.48,14.48c3.99,0,7.23-3.25,7.23-7.24S19.46,0,15.48,0s-7.23,3.25-7.23,7.24,3.24,7.24,7.23,7.24ZM15.48,3.5c2.06,0,3.74,1.68,3.74,3.75s-1.68,3.75-3.74,3.75-3.74-1.68-3.74-3.75,1.68-3.75,3.74-3.75ZM8.83,20.25c-2.94,0-5.34,2.4-5.34,5.34v6.33H0v-6.33c0-4.87,3.96-8.84,8.83-8.84h12.09v3.5h-12.09ZM8.52,25.6h3.49v6.33h-3.49v-6.33ZM28.94,26.47l2.98,2.98-2.47,2.47-2.98-2.98-3.06,3.06-2.47-2.47,3.06-3.06-3.14-3.14,2.47-2.47,3.14,3.14,3.06-3.06,2.47,2.47-3.06,3.06Z"/>
  </g>
</svg>