<?xml version="1.0" encoding="UTF-8"?>
<svg id="Ebene_2" xmlns="http://www.w3.org/2000/svg" viewBox="0 0 32 32">
  <defs>
    <style>
      .cls-1 {
        fill: #1e1e1c;
      }
    </style>
  </defs>
  <g id="_x33_219">
    <path class="cls-1" d="M15.6,14.29c3.94,0,7.15-3.21,7.15-7.15S19.54,0,15.6,0s-7.15,3.21-7.15,7.15,3.21,7.15,7.15,7.15ZM15.6,1.99c2.84,0,5.15,2.31,5.15,5.15s-2.31,5.15-5.15,5.15-5.15-2.31-5.15-5.15S12.76,1.99,15.6,1.99ZM8.09,17.51h13.59v1.99h-13.59c-3.36,0-6.09,2.73-6.09,6.09v6.32H0v-6.32c0-4.46,3.63-8.08,8.09-8.08ZM8.53,25.59h2v6.32h-2v-6.32ZM28.41,27l3.51,3.51-1.41,1.41-3.51-3.51-3.59,3.59-1.41-1.41,3.59-3.59-3.67-3.67,1.41-1.41,3.67,3.67,3.59-3.59,1.41,1.41-3.59,3.59Z"/>
  </g>
</svg>