<?xml version="1.0" encoding="UTF-8"?>
<svg id="Ebene_2" xmlns="http://www.w3.org/2000/svg" viewBox="0 0 24 24">
  <defs>
    <style>
      .cls-1 {
        fill: #1e1e1c;
      }
    </style>
  </defs>
  <g id="_x33_219">
    <path class="cls-1" d="M11.79,10.94c3.02,0,5.47-2.45,5.47-5.47S14.8,0,11.79,0s-5.47,2.45-5.47,5.47,2.45,5.47,5.47,5.47ZM11.79,1.75c2.05,0,3.72,1.67,3.72,3.72s-1.67,3.72-3.72,3.72-3.72-1.67-3.72-3.72,1.67-3.72,3.72-3.72ZM16.32,14.85H6.17c-2.44,0-4.42,1.98-4.42,4.42v4.73H0v-4.73c0-3.4,2.77-6.17,6.17-6.17h10.16v1.75ZM6.37,19.27h1.75v4.73h-1.75v-4.73ZM21.41,20.15l2.53,2.53-1.24,1.24-2.53-2.53-2.59,2.59-1.24-1.24,2.59-2.59-2.65-2.65,1.24-1.24,2.65,2.65,2.59-2.59,1.24,1.24-2.59,2.59Z"/>
  </g>
</svg>