<?xml version="1.0" encoding="UTF-8"?>
<svg id="Ebene_2" xmlns="http://www.w3.org/2000/svg" viewBox="0 0 64 64">
  <defs>
    <style>
      .cls-1 {
        fill: #1e1e1c;
      }
    </style>
  </defs>
  <g id="_x33_219">
    <path class="cls-1" d="M31.36,27.45c7.59,0,13.77-6.16,13.77-13.72S38.95,0,31.36,0s-13.77,6.16-13.77,13.72,6.18,13.72,13.77,13.72ZM31.36,2.75c6.08,0,11.02,4.92,11.02,10.98s-4.95,10.98-11.02,10.98-11.02-4.92-11.02-10.98S25.28,2.75,31.36,2.75ZM15.65,35.58h27.39v2.75H15.65c-7.12,0-12.91,5.77-12.91,12.85v12.7H0v-12.7c0-8.6,7.02-15.6,15.65-15.6ZM17.19,51.18h2.75v12.7h-2.75v-12.7ZM56.35,54.41l7.53,7.52-1.94,1.94-7.53-7.52-7.65,7.65-1.94-1.94,7.65-7.65-7.84-7.84,1.94-1.94,7.84,7.84,7.65-7.65,1.94,1.94-7.65,7.65Z"/>
  </g>
</svg>