<?xml version="1.0" encoding="UTF-8"?>
<svg id="Ebene_2" xmlns="http://www.w3.org/2000/svg" viewBox="0 0 40 40">
  <defs>
    <style>
      .cls-1 {
        fill: #1e1e1c;
      }
    </style>
  </defs>
  <g id="_x33_219">
    <path class="cls-1" d="M19.43,17.92c4.96,0,8.99-4.02,8.99-8.96S24.39,0,19.43,0s-8.99,4.02-8.99,8.96,4.03,8.96,8.99,8.96ZM19.43,3.99c2.75,0,4.99,2.23,4.99,4.97s-2.24,4.97-4.99,4.97-4.99-2.23-4.99-4.97,2.24-4.97,4.99-4.97ZM10.92,25.09c-3.82,0-6.93,3.09-6.93,6.89v7.93H0v-7.93c0-6,4.9-10.89,10.92-10.89h15.62v3.99h-15.62ZM10.74,31.99h4v7.93h-4v-7.93ZM36.02,33.2l3.9,3.9-2.82,2.82-3.9-3.9-3.98,3.98-2.82-2.82,3.98-3.98-4.1-4.09,2.82-2.82,4.1,4.09,3.98-3.98,2.82,2.82-3.98,3.98Z"/>
  </g>
</svg>