<?xml version="1.0" encoding="UTF-8"?>
<svg id="Ebene_2" xmlns="http://www.w3.org/2000/svg" viewBox="0 0 16 16">
  <defs>
    <style>
      .cls-1 {
        fill: #1e1e1c;
      }
    </style>
  </defs>
  <g id="_x33_219">
    <path class="cls-1" d="M7.96,7.48c2.07,0,3.75-1.68,3.75-3.74s-1.68-3.74-3.75-3.74-3.75,1.68-3.75,3.74,1.68,3.74,3.75,3.74ZM7.96,1.5c1.24,0,2.25,1.01,2.25,2.24s-1.01,2.24-2.25,2.24-2.25-1.01-2.25-2.24,1.01-2.24,2.25-2.24ZM4.25,10.1c-1.52,0-2.75,1.23-2.75,2.74v3.12H0v-3.12c0-2.34,1.91-4.24,4.25-4.24h6.71v1.5h-6.71ZM4.21,12.84h1.5v3.12h-1.5v-3.12ZM14.94,15.96l-1.59-1.59-1.63,1.63-1.06-1.06,1.63-1.63-1.59-1.59,1.06-1.06,1.59,1.59,1.55-1.55,1.06,1.06-1.55,1.55,1.59,1.59-1.06,1.06Z"/>
  </g>
</svg>