<?xml version="1.0" encoding="UTF-8"?>
<svg id="Ebene_2" xmlns="http://www.w3.org/2000/svg" viewBox="0 0 64 58.46">
  <defs>
    <style>
      .cls-1 {
        fill: #1e1e1c;
      }
    </style>
  </defs>
  <g id="_x33_219">
    <path class="cls-1" d="M64,37.57h0V9.86h-19.35c-1.86,0-3.37,1.51-3.37,3.38v22.34c0,1.86,1.51,3.38,3.37,3.38h14.36v7.93h-25.59V1.88c0-1.03-.84-1.88-1.87-1.88H8.54c-1.03,0-1.87.84-1.87,1.88v45H0v5h10.6v6.58h5v-6.58h48.4v-2.5h0v-11.8h0ZM20.04,42.16c-1.13,0-2.04-.92-2.04-2.04s.92-2.04,2.04-2.04,2.04.92,2.04,2.04-.92,2.04-2.04,2.04ZM24.7,22.33h-9.33c-.76,0-1.37-.62-1.37-1.38s.62-1.38,1.37-1.38h9.33c.76,0,1.37.62,1.37,1.38s-.62,1.38-1.37,1.38ZM24.7,16.94h-9.33c-.76,0-1.37-.62-1.37-1.38s.62-1.38,1.37-1.38h9.33c.76,0,1.37.62,1.37,1.38s-.62,1.38-1.37,1.38ZM24.7,11.3h-9.33c-.76,0-1.37-.62-1.37-1.38s.62-1.38,1.37-1.38h9.33c.76,0,1.37.62,1.37,1.38s-.62,1.38-1.37,1.38Z"/>
  </g>
</svg>