<?xml version="1.0" encoding="UTF-8"?>
<svg id="Ebene_2" xmlns="http://www.w3.org/2000/svg" viewBox="0 0 16 15.02">
  <defs>
    <style>
      .cls-1 {
        fill: #1e1e1c;
      }
    </style>
  </defs>
  <g id="_x33_219">
    <path class="cls-1" d="M11.16,2.46c-.69,0-1.25.56-1.25,1.25v5.58c0,.69.56,1.25,1.25,1.25h2.32v.95h-4.72V1.25c0-.69-.56-1.25-1.25-1.25H2.51c-.69,0-1.25.56-1.25,1.25v10.25H0v2.5h2.02v1.02h2.5v-1.02h11.48v-2.5h-.02v-.95h.02V2.46h-4.84ZM5.01,10.81c-.48,0-.88-.39-.88-.88s.39-.88.88-.88.88.39.88.88-.39.88-.88.88ZM6.01,6.43h-2c-.41,0-.75-.34-.75-.75s.34-.75.75-.75h2c.41,0,.75.34.75.75s-.34.75-.75.75ZM6.01,4.29h-2c-.41,0-.75-.34-.75-.75s.34-.75.75-.75h2c.41,0,.75.34.75.75s-.34.75-.75.75Z"/>
  </g>
</svg>