<?xml version="1.0" encoding="UTF-8"?>
<svg id="Ebene_2" xmlns="http://www.w3.org/2000/svg" viewBox="0 0 16 15.02">
  <defs>
    <style>
      .cls-1 {
        fill: #1e1e1c;
      }
    </style>
  </defs>
  <g id="_x33_219">
    <path class="cls-1" d="M16,3.96v-1.5h-4.84c-.69,0-1.25.56-1.25,1.25v5.58c0,.69.56,1.25,1.25,1.25h2.82v1.45h-5.22V1.25c0-.69-.56-1.25-1.25-1.25H2.51c-.69,0-1.25.56-1.25,1.25v10.75H0v1.5h2.52v1.52h1.5v-1.52h11.98v-1.5h-.52v-1.45h.52v-1.5h-4.59V3.96h4.59ZM2.76,12V1.5h4.5v10.5H2.76ZM6.76,3.54c0,.41-.34.75-.75.75h-2c-.41,0-.75-.34-.75-.75s.34-.75.75-.75h2c.41,0,.75.34.75.75ZM6.76,5.68c0,.41-.34.75-.75.75h-2c-.41,0-.75-.34-.75-.75s.34-.75.75-.75h2c.41,0,.75.34.75.75ZM5.88,10.44c0,.48-.39.88-.88.88s-.88-.39-.88-.88.39-.88.88-.88.88.39.88.88Z"/>
  </g>
</svg>