<?xml version="1.0" encoding="UTF-8"?>
<svg id="Ebene_2" xmlns="http://www.w3.org/2000/svg" viewBox="0 0 48 44.06">
  <defs>
    <style>
      .cls-1 {
        fill: #1e1e1c;
      }
    </style>
  </defs>
  <g id="_x33_219">
    <path class="cls-1" d="M33.48,7.39c-1.52,0-2.75,1.23-2.75,2.75v16.75c0,1.52,1.23,2.75,2.75,2.75h10v5.35h-18.2V1.75c0-.96-.79-1.75-1.75-1.75H6.53c-.96,0-1.75.79-1.75,1.75v33.25H0v4.5h7.57v4.56h4.5v-4.56h35.93v-4.5h-.02v-5.35h.02V7.39h-14.52ZM15.03,32.05c-.96,0-1.75-.79-1.75-1.75s.79-1.75,1.75-1.75,1.75.79,1.75,1.75-.79,1.75-1.75,1.75ZM18.53,18.18h-7c-.69,0-1.25-.56-1.25-1.25s.56-1.25,1.25-1.25h7c.69,0,1.25.56,1.25,1.25s-.56,1.25-1.25,1.25ZM18.53,13.65h-7c-.69,0-1.25-.56-1.25-1.25s.56-1.25,1.25-1.25h7c.69,0,1.25.56,1.25,1.25s-.56,1.25-1.25,1.25ZM18.53,8.91h-7c-.69,0-1.25-.56-1.25-1.25s.56-1.25,1.25-1.25h7c.69,0,1.25.56,1.25,1.25s-.56,1.25-1.25,1.25Z"/>
  </g>
</svg>