<?xml version="1.0" encoding="UTF-8"?>
<svg id="Ebene_2" xmlns="http://www.w3.org/2000/svg" viewBox="0 0 64 58.46">
  <defs>
    <style>
      .cls-1 {
        fill: #1e1e1c;
      }
    </style>
  </defs>
  <g id="_x33_219">
    <path class="cls-1" d="M44.65,12.61h19.35v-2.75h-19.35c-1.86,0-3.38,1.51-3.38,3.38v22.34c0,1.86,1.51,3.38,3.38,3.38h14.31v9.05h-25.54V1.88c0-1.03-.84-1.88-1.88-1.88H8.54c-1.03,0-1.88.84-1.88,1.88v46.12H0v2.75h11.72v7.71h2.75v-7.71h49.53v-2.75h-2.3v-9.05h2.3v-2.75h-19.35c-.34,0-.62-.28-.62-.62V13.23c0-.34.28-.62.62-.62ZM9.41,48V2.75h21.25v45.25H9.41ZM26.08,9.92c0,.76-.62,1.38-1.38,1.38h-9.33c-.76,0-1.38-.62-1.38-1.38s.62-1.38,1.38-1.38h9.33c.76,0,1.38.62,1.38,1.38ZM26.08,15.57c0,.76-.62,1.38-1.38,1.38h-9.33c-.76,0-1.38-.62-1.38-1.38s.62-1.38,1.38-1.38h9.33c.76,0,1.38.62,1.38,1.38ZM26.08,20.95c0,.76-.62,1.38-1.38,1.38h-9.33c-.76,0-1.38-.62-1.38-1.38s.62-1.38,1.38-1.38h9.33c.76,0,1.38.62,1.38,1.38ZM22.08,40.11c0,1.13-.92,2.04-2.04,2.04s-2.04-.92-2.04-2.04.92-2.04,2.04-2.04,2.04.92,2.04,2.04Z"/>
  </g>
</svg>