<?xml version="1.0" encoding="UTF-8"?>
<svg id="Ebene_2" xmlns="http://www.w3.org/2000/svg" viewBox="0 0 40 40">
  <defs>
    <style>
      .cls-1 {
        fill: #1e1e1c;
      }
    </style>
  </defs>
  <g id="_x33_219">
    <path class="cls-1" d="M28.5,0v2.71H4.88c-1.16,0-2.15.86-2.32,2L.01,22.14v.14c-.01,1.54,1.24,2.79,2.78,2.79h9.27l-1.19,8.36v.14c0,4.09,1.95,6.43,5.36,6.43.96,0,1.83-.59,2.19-1.48l6.89-13.45h3.19v2.71h11.5V0h-11.5ZM24.09,23.07l-7.47,14.58-.05.11c-.05.14-.19.24-.34.24-1.44,0-3.34-.45-3.37-4.36l1.23-8.59h3.06c.55,0,1-.45,1-1s-.45-1-1-1h-8.02s-.06.02-.1.02H2.79c-.42,0-.76-.32-.79-.73L4.54,5.01c.02-.17.17-.29.34-.29h23.63v18.36h-4.41ZM38,25.79h-7.5V2h7.5v23.79Z"/>
  </g>
</svg>