<?xml version="1.0" encoding="UTF-8"?>
<svg id="Ebene_2" xmlns="http://www.w3.org/2000/svg" viewBox="0 0 42.72 48">
  <defs>
    <style>
      .cls-1 {
        fill: #1d1d1b;
      }
    </style>
  </defs>
  <g id="_x33_219">
    <path class="cls-1" d="M34.2,0H5.61v12.37h-2.86c-1.52,0-2.75,1.23-2.75,2.75v21.02c0,1.52,1.23,2.75,2.75,2.75h2.86v9.11h37.11V10.56L34.2,0ZM2.5,36.14V15.12c0-.14.11-.25.25-.25h22.88c.14,0,.25.11.25.25v21.27H2.75c-.14,0-.25-.11-.25-.25ZM32.79,11.98c-1.13,0-2.05-.92-2.05-2.05V1.25l9.22,10.72h-7.18ZM18.75,19.83h3.8l-2.24,12.43h-4.18l-1.93-8.02-2,8.02h-4.16l-2.22-12.43h3.82l.94,8.36,1.75-8.36h3.73l2,8.41.68-8.41Z"/>
  </g>
</svg>