<?xml version="1.0" encoding="UTF-8"?>
<svg id="Ebene_2" xmlns="http://www.w3.org/2000/svg" viewBox="0 0 36.72 39.96">
  <defs>
    <style>
      .cls-1 {
        fill: #1d1d1b;
      }
    </style>
  </defs>
  <g id="_x33_219">
    <path class="cls-1" d="M29.62,0H5.79v10.25h-3.17c-1.45,0-2.62,1.18-2.62,2.62v17c0,1.45,1.18,2.62,2.62,2.62h3.17v7.46h30.93V8.81L29.62,0ZM2.25,29.88V12.88c0-.21.17-.38.38-.38h18.56c.21,0,.38.17.38.38v17.38H2.62c-.21,0-.38-.17-.38-.38ZM28.41,10.01c-.94,0-1.7-.76-1.7-1.7V1.13l7.39,8.89h-5.69ZM13.69,16.55h3.04v10.35h-3.25l-3.43-6.17v6.17h-3.04v-10.35h3.27l3.42,6.13v-6.13Z"/>
  </g>
</svg>