<?xml version="1.0" encoding="UTF-8"?>
<svg id="Ebene_2" xmlns="http://www.w3.org/2000/svg" viewBox="0 0 48 41.35">
  <defs>
    <style>
      .cls-1 {
        fill: #1d1d1b;
      }
    </style>
  </defs>
  <g id="_x33_219">
    <path class="cls-1" d="M48,10.53L39.5,0H5.66v13.74h-2.92c-1.51,0-2.75,1.23-2.75,2.75v22.11c0,1.51,1.23,2.75,2.75,2.75h26.81v-6.25h18.44V10.53ZM44.92,10.7h-7.3c-.18,0-.32-.14-.32-.32V2.5h1.01l6.62,8.2ZM27.06,38.85H2.75c-.14,0-.25-.11-.25-.25v-22.11c0-.14.11-.25.25-.25h24.07c.14,0,.25.11.25.25v22.36ZM29.56,32.6v-16.11c0-1.51-1.23-2.75-2.75-2.75H8.16V2.5h26.64v7.88c0,1.55,1.26,2.82,2.82,2.82h7.88v19.41h-15.94ZM10.07,22.28h-4.19v10.83h3.26v-3.33h.93c2.87,0,5.01-.88,5.01-3.77s-2.14-3.74-5.01-3.74ZM10.12,27.24h-.97v-2.43h.97c.96,0,1.59.27,1.59,1.21s-.63,1.22-1.59,1.22ZM20.15,22.28h-4.19v10.83h3.26v-3.33h.93c2.87,0,5.01-.88,5.01-3.77s-2.14-3.74-5.01-3.74ZM20.19,27.24h-.97v-2.43h.97c.96,0,1.59.27,1.59,1.21s-.63,1.22-1.59,1.22Z"/>
  </g>
</svg>