<?xml version="1.0" encoding="UTF-8"?>
<svg id="Ebene_2" xmlns="http://www.w3.org/2000/svg" viewBox="0 0 14.35 16">
  <defs>
    <style>
      .cls-1 {
        fill: #1d1d1b;
      }
    </style>
  </defs>
  <g id="_x33_219">
    <path class="cls-1" d="M11.46,0H1.83v3.89c-1.04.2-1.83,1.12-1.83,2.21v5.01c0,1.1.79,2.01,1.83,2.21v2.67h12.53V3.59l-2.9-3.59ZM1.5,11.12v-5.01c0-.41.34-.75.75-.75h5.64c.41,0,.75.34.75.75v5.76H2.26c-.41,0-.75-.34-.75-.75ZM10.69,4.17c-.28,0-.5-.22-.5-.5V.75l2.92,3.42h-2.41ZM4.46,10.56h-1.12v-3.8h1.2l1.26,2.25v-2.25h1.12v3.8h-1.2l-1.26-2.26v2.26Z"/>
  </g>
</svg>