<?xml version="1.0" encoding="UTF-8"?>
<svg id="Ebene_2" xmlns="http://www.w3.org/2000/svg" viewBox="0 0 48 41.35">
  <defs>
    <style>
      .cls-1 {
        fill: #1e1e1c;
      }
    </style>
  </defs>
  <g id="_x33_219">
    <path class="cls-1" d="M10.07,22.28h-4.19v10.83h3.27v-3.33h.93c2.87,0,5.01-.88,5.01-3.77s-2.14-3.74-5.01-3.74ZM10.12,27.24h-.97v-2.43h.97c.96,0,1.59.27,1.59,1.21s-.63,1.22-1.59,1.22ZM20.15,22.28h-4.19v10.83h3.27v-3.33h.93c2.87,0,5.01-.88,5.01-3.77s-2.14-3.74-5.01-3.74ZM20.19,27.24h-.97v-2.43h.97c.96,0,1.59.27,1.59,1.21s-.63,1.22-1.59,1.22ZM48,10.53L39.5,0H5.66v13.74h-2.92c-1.51,0-2.75,1.23-2.75,2.75v22.11c0,1.51,1.23,2.75,2.75,2.75h26.81v-6.25h18.44V10.53ZM27.06,38.85H2.75c-.14,0-.25-.11-.25-.25v-22.11c0-.14.11-.25.25-.25h24.07c.14,0,.25.11.25.25v22.36ZM38.61,12.59c-1.13,0-2.04-.91-2.04-2.04V1.89l9.21,10.7h-7.16Z"/>
  </g>
</svg>