<?xml version="1.0" encoding="UTF-8"?>
<svg id="Ebene_2" xmlns="http://www.w3.org/2000/svg" viewBox="0 0 16 13.88">
  <defs>
    <style>
      .cls-1 {
        fill: #1e1e1c;
      }
    </style>
  </defs>
  <g id="_x33_219">
    <path class="cls-1" d="M3.56,7.45h-1.34v3.45h1.04v-1.06h.29c.92,0,1.6-.28,1.6-1.2s-.68-1.19-1.6-1.19ZM3.58,9.03h-.31v-.78h.31c.3,0,.5.08.5.39s-.2.39-.5.39ZM6.67,7.45h-1.34v3.45h1.04v-1.06h.3c.92,0,1.6-.28,1.6-1.2s-.68-1.19-1.6-1.19ZM6.69,9.03h-.31v-.78h.31c.31,0,.51.08.51.39s-.2.39-.51.39ZM13.11,0H1.8v4.42c-1.03.21-1.8,1.12-1.8,2.21v5c0,1.24,1.01,2.25,2.25,2.25h7.87v-1.99h5.88V3.59l-2.89-3.59ZM8.62,12.38H2.25c-.41,0-.75-.34-.75-.75v-5c0-.41.34-.75.75-.75h5.62c.41,0,.75.34.75.75v5.75ZM12.37,4.23c-.28,0-.5-.22-.5-.5V.82l2.91,3.41h-2.41Z"/>
  </g>
</svg>