<?xml version="1.0" encoding="UTF-8"?>
<svg id="Ebene_2" xmlns="http://www.w3.org/2000/svg" viewBox="0 0 36.76 40">
  <defs>
    <style>
      .cls-1 {
        fill: #1d1d1b;
      }
    </style>
  </defs>
  <g id="_x33_219">
    <path class="cls-1" d="M29.65,0H5.8v10.26h-3.17c-1.45,0-2.63,1.18-2.63,2.63v17.02c0,1.45,1.18,2.63,2.63,2.63h3.17v7.46h30.96V8.82L29.65,0ZM2.25,29.91V12.89c0-.21.17-.38.38-.38h18.57c.21,0,.38.17.38.38v17.39H2.63c-.21,0-.38-.17-.38-.38ZM28.43,10.02c-.94,0-1.7-.76-1.7-1.7V1.13l7.4,8.9h-5.7ZM15.71,16.57h3.17l-1.86,10.36h-3.48l-1.61-6.68-1.67,6.68h-3.47l-1.85-10.36h3.18l.78,6.97,1.46-6.97h3.11l1.67,7.01.57-7.01Z"/>
  </g>
</svg>