<?xml version="1.0" encoding="UTF-8"?>
<svg id="Ebene_2" xmlns="http://www.w3.org/2000/svg" viewBox="0 0 40 34.48">
  <defs>
    <style>
      .cls-1 {
        fill: #1d1d1b;
      }
    </style>
  </defs>
  <g id="_x33_219">
    <path class="cls-1" d="M40,8.8L32.9,0H4.7v11.4h-2.08c-1.44,0-2.62,1.17-2.62,2.62v17.84c0,1.44,1.17,2.62,2.62,2.62h22.08v-5.18h15.3V8.8ZM37.18,8.88h-5.88c-.1,0-.18-.08-.18-.18V2.24h.71l5.35,6.63ZM22.45,32.24H2.62c-.21,0-.37-.17-.37-.37V14.02c0-.21.17-.37.37-.37h19.46c.21,0,.37.17.37.37v18.21ZM24.7,27.05v-13.03c0-1.44-1.17-2.62-2.62-2.62H6.94V2.24h21.94v6.45c0,1.34,1.09,2.42,2.42,2.42h6.45v15.93h-13.06ZM8.44,18.58h-3.47v8.98h2.71v-2.76h.77c2.38,0,4.15-.73,4.15-3.12s-1.77-3.1-4.15-3.1ZM8.48,22.69h-.81v-2.02h.81c.79,0,1.31.22,1.31,1s-.52,1.02-1.31,1.02ZM16.54,18.58h-3.47v8.98h2.71v-2.76h.77c2.38,0,4.15-.73,4.15-3.12s-1.77-3.1-4.15-3.1ZM16.58,22.69h-.81v-2.02h.81c.79,0,1.31.22,1.31,1s-.52,1.02-1.31,1.02Z"/>
  </g>
</svg>