<?xml version="1.0" encoding="UTF-8"?>
<svg id="Ebene_2" xmlns="http://www.w3.org/2000/svg" viewBox="0 0 28.43 31.96">
  <defs>
    <style>
      .cls-1 {
        fill: #1d1d1b;
      }
    </style>
  </defs>
  <g id="_x33_219">
    <path class="cls-1" d="M22.73,0H3.64v8.09h-1.14c-1.38,0-2.5,1.12-2.5,2.5v13c0,1.38,1.12,2.5,2.5,2.5h1.14v5.86h24.79V7.07L22.73,0ZM2,23.59v-13c0-.28.22-.5.5-.5h14.24c.28,0,.5.22.5.5v13.5H2.5c-.28,0-.5-.22-.5-.5ZM21.71,8.06c-.74,0-1.35-.6-1.35-1.35V1l5.72,7.06h-4.37ZM10.89,13.24h2.44v8.28h-2.6l-2.75-4.93v4.93h-2.43v-8.28h2.61l2.73,4.91v-4.91Z"/>
  </g>
</svg>