<?xml version="1.0" encoding="UTF-8"?>
<svg id="Ebene_2" xmlns="http://www.w3.org/2000/svg" viewBox="0 0 56.71 64">
  <defs>
    <style>
      .cls-1 {
        fill: #1d1d1b;
      }
    </style>
  </defs>
  <g id="_x33_219">
    <path class="cls-1" d="M45.41,0H7.37v16.76H2.87c-1.58,0-2.87,1.29-2.87,2.87v28.97c0,1.58,1.29,2.87,2.87,2.87h4.5v12.52h49.34V14.01L45.41,0ZM53.52,14.44h-9.87c-.76,0-1.38-.62-1.38-1.38V2.75h1.82l9.43,11.69ZM2.75,48.61v-28.97c0-.07.06-.12.12-.12h31.46c.07,0,.12.06.12.12v29.1H2.87c-.07,0-.12-.05-.12-.12ZM10.12,61.25v-9.77h27.08v-31.84c0-1.58-1.29-2.87-2.87-2.87H10.12V2.75h29.4v10.31c0,2.28,1.85,4.13,4.13,4.13h10.31v44.07H10.12ZM24.66,26.4h5.06l-2.97,16.55h-5.56l-2.57-10.67-2.66,10.67h-5.54l-2.95-16.55h5.08l1.25,11.13,2.33-11.13h4.96l2.66,11.2.91-11.2Z"/>
  </g>
</svg>