<?xml version="1.0" encoding="UTF-8"?>
<svg id="Ebene_2" xmlns="http://www.w3.org/2000/svg" viewBox="0 0 56.76 64.06">
  <defs>
    <style>
      .cls-1 {
        fill: #1d1d1b;
      }
    </style>
  </defs>
  <g id="_x33_219">
    <path class="cls-1" d="M45.45,0H7.38v16.78H2.88c-1.58,0-2.88,1.29-2.88,2.88v29c0,1.58,1.29,2.88,2.88,2.88h4.51v12.53h49.38V14.03L45.45,0ZM53.57,14.45h-9.88c-.76,0-1.38-.62-1.38-1.38V2.75h1.82l9.44,11.7ZM2.75,48.65v-29c0-.07.06-.12.12-.12h31.49c.07,0,.12.06.12.12v29.12H2.88c-.07,0-.12-.05-.12-.12ZM10.13,61.31v-9.78h27.11v-31.88c0-1.58-1.29-2.88-2.88-2.88H10.13V2.75h29.43v10.32c0,2.28,1.85,4.13,4.13,4.13h10.32v44.11H10.13ZM21.82,26.43h4.87v16.56h-5.21l-5.5-9.87v9.87h-4.87v-16.56h5.23l5.47,9.82v-9.82Z"/>
  </g>
</svg>