<?xml version="1.0" encoding="UTF-8"?>
<svg id="Ebene_2" xmlns="http://www.w3.org/2000/svg" viewBox="0 0 64 55.05">
  <defs>
    <style>
      .cls-1 {
        fill: #1e1e1c;
      }
    </style>
  </defs>
  <g id="_x33_219">
    <path class="cls-1" d="M13.45,29.66h-5.58v14.42h4.35v-4.43h1.23c3.82,0,6.67-1.17,6.67-5.02s-2.84-4.97-6.67-4.97ZM13.52,36.27h-1.3v-3.24h1.3c1.28,0,2.11.36,2.11,1.61s-.84,1.63-2.11,1.63ZM26.87,29.66h-5.58v14.42h4.35v-4.43h1.23c3.82,0,6.67-1.17,6.67-5.02s-2.84-4.97-6.67-4.97ZM26.93,36.27h-1.3v-3.24h1.3c1.28,0,2.11.36,2.11,1.61s-.84,1.63-2.11,1.63ZM64,13.98L52.72,0H7.62v18.5H2.87c-1.58,0-2.87,1.29-2.87,2.87v30.81c0,1.58,1.29,2.87,2.87,2.87h36.31v-8.41h24.83V13.98ZM36.43,52.3H2.87c-.07,0-.12-.06-.12-.12v-30.81c0-.07.06-.12.12-.12h33.44c.07,0,.12.06.12.12v30.93ZM51.2,17.2c-1.52,0-2.75-1.23-2.75-2.75V2.78l12.42,14.42h-9.67Z"/>
  </g>
</svg>