<?xml version="1.0" encoding="UTF-8"?>
<svg id="Ebene_2" xmlns="http://www.w3.org/2000/svg" viewBox="0 0 24 20.75">
  <defs>
    <style>
      .cls-1 {
        fill: #1d1d1b;
      }
    </style>
  </defs>
  <g id="_x33_219">
    <path class="cls-1" d="M24,5.32L19.71,0H2.77v6.72h-.39c-1.31,0-2.38,1.07-2.38,2.38v9.27c0,1.31,1.07,2.38,2.38,2.38h12.6v-3.06h9.02V5.32ZM21.77,5.35h-3.13V1.75h.22l2.9,3.6ZM13.23,19H2.38c-.35,0-.63-.28-.63-.63v-9.27c0-.35.28-.63.63-.63h10.23c.35,0,.63.28.63.63v9.9ZM14.98,15.94v-6.84c0-1.31-1.07-2.38-2.38-2.38H4.52V1.75h12.62v3.59c0,.84.68,1.52,1.52,1.52h3.59v9.08h-7.26ZM5.19,11.16h-2.05v5.29h1.6v-1.63h.45c1.4,0,2.45-.43,2.45-1.84s-1.04-1.83-2.45-1.83ZM5.21,13.59h-.48v-1.19h.48c.47,0,.77.13.77.59s-.31.6-.77.6ZM9.96,11.16h-2.05v5.29h1.6v-1.63h.45c1.4,0,2.45-.43,2.45-1.84s-1.04-1.83-2.45-1.83ZM9.98,13.59h-.48v-1.19h.48c.47,0,.77.13.77.59s-.31.6-.77.6Z"/>
  </g>
</svg>