<?xml version="1.0" encoding="UTF-8"?>
<svg id="Ebene_2" xmlns="http://www.w3.org/2000/svg" viewBox="0 0 32 27.62">
  <defs>
    <style>
      .cls-1 {
        fill: #1d1d1b;
      }
    </style>
  </defs>
  <g id="_x33_219">
    <path class="cls-1" d="M32,7.06L26.3,0H3.73v9.06h-1.22c-1.38,0-2.51,1.13-2.51,2.51v13.54c0,1.38,1.13,2.51,2.51,2.51h17.33v-4.12h12.15V7.06ZM29.41,7.04l-4.46-.02V2.01h.4l4.06,5.04ZM17.84,25.61H2.51c-.28,0-.5-.23-.5-.5v-13.54c0-.28.23-.5.5-.5h14.82c.28,0,.5.23.5.5v14.04ZM19.85,21.49v-9.92c0-1.38-1.13-2.51-2.51-2.51H5.74V2.01h17.2v5.01c0,1.12.91,2.04,2.04,2.04h5.01v12.43h-10.15ZM6.82,14.87h-2.76v7.14h2.15v-2.19h.61c1.89,0,3.3-.58,3.3-2.48s-1.41-2.46-3.3-2.46ZM6.85,18.14h-.64v-1.6h.64c.63,0,1.04.18,1.04.8s-.41.81-1.04.81ZM13.25,14.87h-2.76v7.14h2.15v-2.19h.61c1.89,0,3.3-.58,3.3-2.48s-1.41-2.46-3.3-2.46ZM13.28,18.14h-.64v-1.6h.64c.63,0,1.04.18,1.04.8s-.41.81-1.04.81Z"/>
  </g>
</svg>