<?xml version="1.0" encoding="UTF-8"?>
<svg id="Ebene_2" xmlns="http://www.w3.org/2000/svg" viewBox="0 0 48 48">
  <defs>
    <style>
      .cls-1 {
        fill: #1e1e1c;
      }
    </style>
  </defs>
  <g id="_x33_219">
    <path class="cls-1" d="M13.28,24.07c-.88-.88-.88-2.3,0-3.18s2.3-.88,3.17,0l5.3,5.31V0h4.49v26.2l5.3-5.31c.88-.88,2.3-.88,3.17,0s.88,2.3,0,3.18l-10.72,10.73-10.72-10.73ZM43.51,20.96v21.65c0,.49-.39.89-.86.89H5.35c-.48,0-.86-.4-.86-.89v-21.65H0v21.65c0,2.97,2.4,5.38,5.35,5.38h37.3c2.95,0,5.35-2.42,5.35-5.38v-21.65h-4.49Z"/>
  </g>
</svg>