<?xml version="1.0" encoding="UTF-8"?>
<svg id="Ebene_2" xmlns="http://www.w3.org/2000/svg" viewBox="0 0 48 48">
  <defs>
    <style>
      .cls-1 {
        fill: #1e1e1c;
      }
    </style>
  </defs>
  <g id="_x33_219">
    <path class="cls-1" d="M13.57,24.36c-.49-.49-.49-1.28,0-1.77s1.28-.49,1.77,0l7.41,7.41V0h2.5v30.01l7.41-7.41c.49-.49,1.28-.49,1.77,0s.49,1.28,0,1.77l-10.43,10.43-10.43-10.43ZM45.5,20.86v22.62c0,1.12-.9,2.03-2,2.03H4.5c-1.1,0-2-.91-2-2.03v-22.62H0v22.62c0,2.5,2.02,4.53,4.5,4.53h39c2.48,0,4.5-2.03,4.5-4.53v-22.62h-2.5Z"/>
  </g>
</svg>