<?xml version="1.0" encoding="UTF-8"?>
<svg id="Ebene_2" xmlns="http://www.w3.org/2000/svg" viewBox="0 0 32 32">
  <defs>
    <style>
      .cls-1 {
        fill: #1e1e1c;
      }
    </style>
  </defs>
  <g id="_x33_219">
    <path class="cls-1" d="M8.93,16.36c-.39-.39-.39-1.02,0-1.41s1.02-.39,1.41,0l4.66,4.66V0h2v19.61l4.66-4.66c.39-.39,1.02-.39,1.41,0s.39,1.02,0,1.41l-7.07,7.07-7.07-7.07ZM30,13.91v14.93c0,.64-.51,1.16-1.14,1.16H3.14c-.63,0-1.14-.52-1.14-1.16v-14.93H0v14.93c0,1.74,1.41,3.16,3.14,3.16h25.71c1.73,0,3.14-1.42,3.14-3.16v-14.93h-2Z"/>
  </g>
</svg>