<?xml version="1.0" encoding="UTF-8"?>
<svg id="Ebene_2" xmlns="http://www.w3.org/2000/svg" viewBox="0 0 9.56 24">
  <defs>
    <style>
      .cls-1 {
        fill: #1e1e1c;
      }
    </style>
  </defs>
  <g id="_x33_219">
    <path class="cls-1" d="M1.24,6.02l-1.24-1.24L4.78,0l4.74,4.74-1.24,1.24-3.5-3.5-3.54,3.54ZM4.78,21.52l-3.5-3.5L.04,19.26l4.74,4.74,4.78-4.78-1.24-1.24-3.54,3.54ZM1.68,9.37c-.48,0-.88.39-.88.88s.39.88.88.88h6.21c.48,0,.88-.39.88-.88s-.39-.88-.88-.88H1.68ZM1.68,12.88c-.48,0-.88.39-.88.88s.39.88.88.88h6.21c.48,0,.88-.39.88-.88s-.39-.88-.88-.88H1.68Z"/>
  </g>
</svg>