<?xml version="1.0" encoding="UTF-8"?>
<svg id="Ebene_2" xmlns="http://www.w3.org/2000/svg" viewBox="0 0 40 40">
  <defs>
    <style>
      .cls-1 {
        fill: #1e1e1c;
      }
    </style>
  </defs>
  <g id="_x33_219">
    <path class="cls-1" d="M14.78,10.88l-2.83-2.83L20,0l7.99,7.98-2.83,2.83-5.15-5.15-5.22,5.22ZM10.82,14.85l-2.83-2.83L0,20l8.05,8.05,2.83-2.83-5.22-5.22,5.15-5.15ZM20,34.34l-5.15-5.15-2.83,2.83,7.99,7.99,8.05-8.05-2.83-2.83-5.22,5.22ZM31.95,11.95l-2.83,2.83,5.22,5.22-5.15,5.15,2.83,2.83,7.99-7.99-8.05-8.05ZM24.95,18h-9.91c-1.11,0-2,.9-2,2s.9,2,2,2h9.91c1.11,0,2-.9,2-2s-.9-2-2-2ZM24.95,11.99h-9.91c-1.11,0-2,.9-2,2s.9,2,2,2h9.91c1.11,0,2-.9,2-2s-.9-2-2-2ZM24.95,23.99h-9.91c-1.11,0-2,.9-2,2s.9,2,2,2h9.91c1.11,0,2-.9,2-2s-.9-2-2-2Z"/>
  </g>
</svg>