<?xml version="1.0" encoding="UTF-8"?>
<svg id="Ebene_2" xmlns="http://www.w3.org/2000/svg" viewBox="0 0 9.76 24">
  <defs>
    <style>
      .cls-1 {
        fill: #1e1e1c;
      }
    </style>
  </defs>
  <g id="_x33_219">
    <path class="cls-1" d="M2.12,7L0,4.88,4.88,0l4.84,4.84-2.12,2.12-2.72-2.72-2.76,2.76ZM4.88,19.75l-2.72-2.72L.04,19.16l4.84,4.84,4.88-4.88-2.12-2.12-2.76,2.76ZM7.73,8.24H2.03c-.83,0-1.5.67-1.5,1.5s.67,1.5,1.5,1.5h5.7c.83,0,1.5-.67,1.5-1.5s-.67-1.5-1.5-1.5ZM7.73,12.73H2.03c-.83,0-1.5.67-1.5,1.5s.67,1.5,1.5,1.5h5.7c.83,0,1.5-.67,1.5-1.5s-.67-1.5-1.5-1.5Z"/>
  </g>
</svg>