<?xml version="1.0" encoding="UTF-8"?>
<svg id="Ebene_2" xmlns="http://www.w3.org/2000/svg" viewBox="0 0 40 16.11">
  <defs>
    <style>
      .cls-1 {
        fill: #1e1e1c;
      }
    </style>
  </defs>
  <g id="_x33_219">
    <path class="cls-1" d="M10.82,2.9L7.99.07,0,8.05l8.05,8.05,2.83-2.83-5.22-5.22,5.15-5.15ZM31.95,0l-2.83,2.83,5.22,5.22-5.15,5.15,2.83,2.83,7.99-7.99L31.95,0ZM24.95,6.05h-9.91c-1.11,0-2,.9-2,2s.9,2,2,2h9.91c1.11,0,2-.9,2-2s-.9-2-2-2ZM24.95.04h-9.91c-1.11,0-2,.9-2,2s.9,2,2,2h9.91c1.11,0,2-.9,2-2S26.06.04,24.95.04ZM24.95,12.04h-9.91c-1.11,0-2,.9-2,2s.9,2,2,2h9.91c1.11,0,2-.9,2-2s-.9-2-2-2Z"/>
  </g>
</svg>