<?xml version="1.0" encoding="UTF-8"?>
<svg id="Ebene_2" xmlns="http://www.w3.org/2000/svg" viewBox="0 0 40 40">
  <defs>
    <style>
      .cls-1 {
        fill: #1e1e1c;
      }
    </style>
  </defs>
  <g id="_x33_219">
    <path class="cls-1" d="M13.68,9.51l-1.6-1.6L20,0l7.84,7.84-1.6,1.6-6.25-6.25-6.32,6.32ZM9.44,13.75l-1.6-1.6L0,20l7.91,7.91,1.6-1.6-6.32-6.32,6.25-6.25ZM20,36.81l-6.25-6.25-1.6,1.6,7.84,7.84,7.91-7.91-1.6-1.6-6.32,6.32ZM32.09,12.09l-1.6,1.6,6.32,6.32-6.25,6.24,1.6,1.6,7.84-7.84-7.91-7.91ZM25.31,18.87h-10.62c-.62,0-1.13.51-1.13,1.13s.51,1.13,1.13,1.13h10.62c.62,0,1.13-.51,1.13-1.13s-.51-1.13-1.13-1.13ZM25.31,23.38h-10.62c-.62,0-1.13.51-1.13,1.13s.51,1.13,1.13,1.13h10.62c.62,0,1.13-.51,1.13-1.13s-.51-1.13-1.13-1.13ZM25.31,14.36h-10.62c-.62,0-1.13.51-1.13,1.13s.51,1.13,1.13,1.13h10.62c.62,0,1.13-.51,1.13-1.13s-.51-1.13-1.13-1.13Z"/>
  </g>
</svg>