<?xml version="1.0" encoding="UTF-8"?>
<svg id="Ebene_2" xmlns="http://www.w3.org/2000/svg" viewBox="0 0 16.11 40">
  <defs>
    <style>
      .cls-1 {
        fill: #1e1e1c;
      }
    </style>
  </defs>
  <g id="_x33_219">
    <path class="cls-1" d="M2.83,10.88l-2.83-2.83L8.05,0l7.99,7.98-2.83,2.83-5.15-5.15-5.22,5.22ZM8.05,34.34l-5.15-5.15L.07,32.01l7.99,7.99,8.05-8.05-2.83-2.83-5.22,5.22ZM13.01,18H3.1c-1.11,0-2,.9-2,2s.9,2,2,2h9.91c1.11,0,2-.9,2-2s-.9-2-2-2ZM13.01,11.99H3.1c-1.11,0-2,.9-2,2s.9,2,2,2h9.91c1.11,0,2-.9,2-2s-.9-2-2-2ZM13.01,23.99H3.1c-1.11,0-2,.9-2,2s.9,2,2,2h9.91c1.11,0,2-.9,2-2s-.9-2-2-2Z"/>
  </g>
</svg>