<?xml version="1.0" encoding="UTF-8"?>
<svg id="Ebene_2" xmlns="http://www.w3.org/2000/svg" viewBox="0 0 6.43 16">
  <defs>
    <style>
      .cls-1 {
        fill: #1e1e1c;
      }
    </style>
  </defs>
  <g id="_x33_219">
    <path class="cls-1" d="M1.06,4.27l-1.06-1.06L3.21,0l3.19,3.19-1.06,1.06-2.12-2.12-2.15,2.15ZM3.21,13.88l-2.12-2.12L.03,12.81l3.19,3.19,3.21-3.21-1.06-1.06-2.15,2.15ZM1.21,5.75c-.41,0-.75.34-.75.75s.34.75.75.75h4c.41,0,.75-.34.75-.75s-.34-.75-.75-.75H1.21ZM1.21,8.75c-.41,0-.75.34-.75.75s.34.75.75.75h4c.41,0,.75-.34.75-.75s-.34-.75-.75-.75H1.21Z"/>
  </g>
</svg>