<?xml version="1.0" encoding="UTF-8"?>
<svg id="Ebene_2" xmlns="http://www.w3.org/2000/svg" viewBox="0 0 19.28 48">
  <defs>
    <style>
      .cls-1 {
        fill: #1e1e1c;
      }
    </style>
  </defs>
  <g id="_x33_219">
    <path class="cls-1" d="M3.19,12.83l-3.19-3.19L9.64,0l9.56,9.56-3.19,3.19-6.37-6.37-6.45,6.45ZM9.64,41.62l-6.37-6.37L.08,38.44l9.56,9.56,9.64-9.64-3.19-3.19-6.45,6.45ZM15.65,21.74H3.63c-1.25,0-2.26,1.01-2.26,2.26s1.01,2.26,2.26,2.26h12.01c1.25,0,2.26-1.01,2.26-2.26s-1.01-2.26-2.26-2.26ZM15.65,14.77H3.63c-1.25,0-2.26,1.01-2.26,2.26s1.01,2.26,2.26,2.26h12.01c1.25,0,2.26-1.01,2.26-2.26s-1.01-2.26-2.26-2.26ZM15.65,28.73H3.63c-1.25,0-2.26,1.01-2.26,2.26s1.01,2.26,2.26,2.26h12.01c1.25,0,2.26-1.01,2.26-2.26s-1.01-2.26-2.26-2.26Z"/>
  </g>
</svg>