<?xml version="1.0" encoding="UTF-8"?>
<svg id="Ebene_2" xmlns="http://www.w3.org/2000/svg" viewBox="0 0 32 32">
  <defs>
    <style>
      .cls-1 {
        fill: #1e1e1c;
      }
    </style>
  </defs>
  <g id="_x33_219">
    <path class="cls-1" d="M12.01,8.94l-2.48-2.48L16,0l6.41,6.41-2.48,2.48-3.94-3.94-3.99,3.99ZM8.89,12.06l-2.48-2.48L0,16l6.47,6.47,2.48-2.48-3.99-3.99,3.94-3.94ZM16,27.04l-3.94-3.94-2.48,2.48,6.41,6.41,6.47-6.47-2.48-2.48-3.99,3.99ZM25.53,9.53l-2.48,2.48,3.99,3.99-3.94,3.94,2.48,2.48,6.41-6.41-6.47-6.47ZM19.9,11.23h-7.8c-.97,0-1.75.78-1.75,1.75s.78,1.75,1.75,1.75h7.8c.97,0,1.75-.78,1.75-1.75s-.78-1.75-1.75-1.75ZM19.9,17.24h-7.8c-.97,0-1.75.78-1.75,1.75s.78,1.75,1.75,1.75h7.8c.97,0,1.75-.78,1.75-1.75s-.78-1.75-1.75-1.75Z"/>
  </g>
</svg>