<?xml version="1.0" encoding="UTF-8"?>
<svg id="Ebene_2" xmlns="http://www.w3.org/2000/svg" viewBox="0 0 48 18.96">
  <defs>
    <style>
      .cls-1 {
        fill: #1e1e1c;
      }
    </style>
  </defs>
  <g id="_x33_219">
    <path class="cls-1" d="M11.16,1.86L9.39.09,0,9.48l9.48,9.48,1.77-1.77-7.71-7.71L11.16,1.86ZM38.52,0l-1.77,1.77,7.71,7.71-7.62,7.62,1.77,1.77,9.39-9.39L38.52,0ZM30.41,8.23h-12.83c-.69,0-1.25.56-1.25,1.25s.56,1.25,1.25,1.25h12.83c.69,0,1.25-.56,1.25-1.25s-.56-1.25-1.25-1.25ZM30.41,13.24h-12.83c-.69,0-1.25.56-1.25,1.25s.56,1.25,1.25,1.25h12.83c.69,0,1.25-.56,1.25-1.25s-.56-1.25-1.25-1.25ZM30.41,3.22h-12.83c-.69,0-1.25.56-1.25,1.25s.56,1.25,1.25,1.25h12.83c.69,0,1.25-.56,1.25-1.25s-.56-1.25-1.25-1.25Z"/>
  </g>
</svg>