<?xml version="1.0" encoding="UTF-8"?>
<svg id="Ebene_2" xmlns="http://www.w3.org/2000/svg" viewBox="0 0 64 64">
  <defs>
    <style>
      .cls-1 {
        fill: #1e1e1c;
      }
    </style>
  </defs>
  <g id="_x33_219">
    <path class="cls-1" d="M21.36,14.54l-1.95-1.95L32,0l12.47,12.47-1.95,1.95-10.52-10.52-10.64,10.64ZM14.43,21.48l-1.95-1.95L0,32l12.59,12.59,1.95-1.95-10.64-10.64,10.52-10.52ZM32,60.1l-10.52-10.52-1.95,1.95,12.47,12.47,12.59-12.59-1.95-1.95-10.64,10.64ZM51.41,19.41l-1.95,1.95,10.64,10.64-10.52,10.52,1.95,1.95,12.47-12.47-12.59-12.59ZM23.33,30.62c-.76,0-1.38.62-1.38,1.38s.62,1.38,1.38,1.38h17.34c.76,0,1.38-.62,1.38-1.38s-.62-1.38-1.38-1.38h-17.34ZM23.33,36.14c-.76,0-1.38.62-1.38,1.38s.62,1.38,1.38,1.38h17.34c.76,0,1.38-.62,1.38-1.38s-.62-1.38-1.38-1.38h-17.34ZM23.33,25.1c-.76,0-1.38.62-1.38,1.38s.62,1.38,1.38,1.38h17.34c.76,0,1.38-.62,1.38-1.38s-.62-1.38-1.38-1.38h-17.34Z"/>
  </g>
</svg>