<?xml version="1.0" encoding="UTF-8"?>
<svg id="Ebene_2" xmlns="http://www.w3.org/2000/svg" viewBox="0 0 25.19 64">
  <defs>
    <style>
      .cls-1 {
        fill: #1e1e1c;
      }
    </style>
  </defs>
  <g id="_x33_219">
    <path class="cls-1" d="M1.95,14.54l-1.95-1.95L12.59,0l12.47,12.47-1.95,1.95L12.59,3.9,1.95,14.54ZM12.59,60.1l-10.52-10.52-1.95,1.95,12.47,12.47,12.59-12.59-1.95-1.95-10.64,10.64ZM3.92,30.62c-.76,0-1.38.62-1.38,1.38s.62,1.38,1.38,1.38h17.34c.76,0,1.38-.62,1.38-1.38s-.62-1.38-1.38-1.38H3.92ZM3.92,36.14c-.76,0-1.38.62-1.38,1.38s.62,1.38,1.38,1.38h17.34c.76,0,1.38-.62,1.38-1.38s-.62-1.38-1.38-1.38H3.92ZM3.92,25.1c-.76,0-1.38.62-1.38,1.38s.62,1.38,1.38,1.38h17.34c.76,0,1.38-.62,1.38-1.38s-.62-1.38-1.38-1.38H3.92Z"/>
  </g>
</svg>