<?xml version="1.0" encoding="UTF-8"?>
<svg id="Ebene_2" xmlns="http://www.w3.org/2000/svg" viewBox="0 0 24 24">
  <defs>
    <style>
      .cls-1 {
        fill: #1e1e1c;
      }
    </style>
  </defs>
  <g id="_x33_219">
    <path class="cls-1" d="M8.46,6.02l-1.24-1.24L12,0l4.74,4.74-1.24,1.24-3.5-3.5-3.54,3.54ZM5.98,8.5l-1.24-1.24L0,12l4.78,4.78,1.24-1.24-3.54-3.54,3.5-3.5ZM12,21.52l-3.5-3.5-1.24,1.24,4.74,4.74,4.78-4.78-1.24-1.24-3.54,3.54ZM19.22,7.22l-1.24,1.24,3.54,3.54-3.5,3.5,1.24,1.24,4.74-4.74-4.78-4.78ZM8.89,9.37c-.48,0-.88.39-.88.88s.39.88.88.88h6.21c.48,0,.88-.39.88-.88s-.39-.88-.88-.88h-6.21ZM8.89,12.88c-.48,0-.88.39-.88.88s.39.88.88.88h6.21c.48,0,.88-.39.88-.88s-.39-.88-.88-.88h-6.21Z"/>
  </g>
</svg>