<?xml version="1.0" encoding="UTF-8"?>
<svg id="Ebene_2" xmlns="http://www.w3.org/2000/svg" viewBox="0 0 16 16">
  <defs>
    <style>
      .cls-1 {
        fill: #1e1e1c;
      }
    </style>
  </defs>
  <g id="_x33_219">
    <path class="cls-1" d="M5.85,4.27l-1.06-1.06,3.21-3.21,3.19,3.19-1.06,1.06-2.12-2.12-2.15,2.15ZM4.25,5.88l-1.06-1.06-3.19,3.19,3.21,3.21,1.06-1.06-2.15-2.15,2.12-2.12ZM8,13.88l-2.12-2.12-1.06,1.06,3.19,3.19,3.21-3.21-1.06-1.06-2.15,2.15ZM12.79,4.79l-1.06,1.06,2.15,2.15-2.12,2.12,1.06,1.06,3.19-3.19-3.21-3.21ZM6,5.75c-.41,0-.75.34-.75.75s.34.75.75.75h4c.41,0,.75-.34.75-.75s-.34-.75-.75-.75h-4ZM6,8.75c-.41,0-.75.34-.75.75s.34.75.75.75h4c.41,0,.75-.34.75-.75s-.34-.75-.75-.75h-4Z"/>
  </g>
</svg>