<?xml version="1.0" encoding="UTF-8"?>
<svg id="Ebene_2" xmlns="http://www.w3.org/2000/svg" viewBox="0 0 64 25.55">
  <defs>
    <style>
      .cls-1 {
        fill: #1e1e1c;
      }
    </style>
  </defs>
  <g id="_x33_219">
    <path class="cls-1" d="M16.21,3.66L12.66.11,0,12.77l12.77,12.77,3.55-3.55L7.1,12.77,16.21,3.66ZM51.23,0l-3.55,3.55,9.22,9.22-9.11,9.11,3.55,3.55,12.66-12.66L51.23,0ZM40.21,10.26h-16.42c-1.39,0-2.51,1.12-2.51,2.51s1.12,2.51,2.51,2.51h16.42c1.39,0,2.51-1.12,2.51-2.51s-1.12-2.51-2.51-2.51ZM40.21,2.25h-16.42c-1.39,0-2.51,1.12-2.51,2.51s1.12,2.51,2.51,2.51h16.42c1.39,0,2.51-1.12,2.51-2.51s-1.12-2.51-2.51-2.51ZM40.21,18.33h-16.42c-1.39,0-2.51,1.12-2.51,2.51s1.12,2.51,2.51,2.51h16.42c1.39,0,2.51-1.12,2.51-2.51s-1.12-2.51-2.51-2.51Z"/>
  </g>
</svg>