<?xml version="1.0" encoding="UTF-8"?>
<svg id="Ebene_2" xmlns="http://www.w3.org/2000/svg" viewBox="0 0 40 15.83">
  <defs>
    <style>
      .cls-1 {
        fill: #1e1e1c;
      }
    </style>
  </defs>
  <g id="_x33_219">
    <path class="cls-1" d="M9.44,1.67L7.84.07,0,7.91l7.91,7.91,1.6-1.6L3.19,7.91,9.44,1.67ZM32.09,0l-1.6,1.6,6.32,6.32-6.25,6.24,1.6,1.6,7.84-7.84-7.91-7.91ZM25.31,6.79h-10.62c-.62,0-1.13.51-1.13,1.13s.51,1.13,1.13,1.13h10.62c.62,0,1.13-.51,1.13-1.13s-.51-1.13-1.13-1.13ZM25.31,11.3h-10.62c-.62,0-1.13.51-1.13,1.13s.51,1.13,1.13,1.13h10.62c.62,0,1.13-.51,1.13-1.13s-.51-1.13-1.13-1.13ZM25.31,2.28h-10.62c-.62,0-1.13.51-1.13,1.13s.51,1.13,1.13,1.13h10.62c.62,0,1.13-.51,1.13-1.13s-.51-1.13-1.13-1.13Z"/>
  </g>
</svg>