<?xml version="1.0" encoding="UTF-8"?>
<svg id="Ebene_2" xmlns="http://www.w3.org/2000/svg" viewBox="0 0 24 9.76">
  <defs>
    <style>
      .cls-1 {
        fill: #1e1e1c;
      }
    </style>
  </defs>
  <g id="_x33_219">
    <path class="cls-1" d="M6.96,2.16L4.84.04,0,4.88l4.88,4.88,2.12-2.12-2.76-2.76,2.72-2.72ZM19.12,0l-2.12,2.12,2.76,2.76-2.72,2.72,2.12,2.12,4.84-4.84L19.12,0ZM14.85,1.12h-5.7c-.83,0-1.5.67-1.5,1.5s.67,1.5,1.5,1.5h5.7c.83,0,1.5-.67,1.5-1.5s-.67-1.5-1.5-1.5ZM14.85,5.61h-5.7c-.83,0-1.5.67-1.5,1.5s.67,1.5,1.5,1.5h5.7c.83,0,1.5-.67,1.5-1.5s-.67-1.5-1.5-1.5Z"/>
  </g>
</svg>