<?xml version="1.0" encoding="UTF-8"?>
<svg id="Ebene_2" xmlns="http://www.w3.org/2000/svg" viewBox="0 0 32 12.93">
  <defs>
    <style>
      .cls-1 {
        fill: #1e1e1c;
      }
    </style>
  </defs>
  <g id="_x33_219">
    <path class="cls-1" d="M8.89,2.53L6.41.05,0,6.47l6.47,6.47,2.48-2.48-3.99-3.99,3.94-3.94ZM25.53,0l-2.48,2.48,3.99,3.99-3.94,3.94,2.48,2.48,6.41-6.41L25.53,0ZM19.9,1.7h-7.8c-.97,0-1.75.78-1.75,1.75s.78,1.75,1.75,1.75h7.8c.97,0,1.75-.78,1.75-1.75s-.78-1.75-1.75-1.75ZM19.9,7.7h-7.8c-.97,0-1.75.78-1.75,1.75s.78,1.75,1.75,1.75h7.8c.97,0,1.75-.78,1.75-1.75s-.78-1.75-1.75-1.75Z"/>
  </g>
</svg>