<?xml version="1.0" encoding="UTF-8"?>
<svg id="Ebene_2" xmlns="http://www.w3.org/2000/svg" viewBox="0 0 64 25.19">
  <defs>
    <style>
      .cls-1 {
        fill: #1e1e1c;
      }
    </style>
  </defs>
  <g id="_x33_219">
    <path class="cls-1" d="M14.43,2.07L12.47.12,0,12.59l12.59,12.59,1.95-1.95L3.9,12.59,14.43,2.07ZM51.41,0l-1.95,1.95,10.64,10.64-10.52,10.52,1.95,1.95,12.47-12.47L51.41,0ZM23.33,11.21c-.76,0-1.38.62-1.38,1.38s.62,1.38,1.38,1.38h17.34c.76,0,1.38-.62,1.38-1.38s-.62-1.38-1.38-1.38h-17.34ZM23.33,16.74c-.76,0-1.38.62-1.38,1.38s.62,1.38,1.38,1.38h17.34c.76,0,1.38-.62,1.38-1.38s-.62-1.38-1.38-1.38h-17.34ZM23.33,5.69c-.76,0-1.38.62-1.38,1.38s.62,1.38,1.38,1.38h17.34c.76,0,1.38-.62,1.38-1.38s-.62-1.38-1.38-1.38h-17.34Z"/>
  </g>
</svg>