<?xml version="1.0" encoding="UTF-8"?>
<svg id="Ebene_2" xmlns="http://www.w3.org/2000/svg" viewBox="0 0 48 48">
  <defs>
    <style>
      .cls-1 {
        fill: #1e1e1c;
      }
    </style>
  </defs>
  <g id="_x33_219">
    <path class="cls-1" d="M47.12,8.34l-7.48-7.48c-1.14-1.14-3.12-1.14-4.27,0L2.06,34.16l-2.06,13.84,13.81-2.09L47.12,12.6c1.18-1.18,1.18-3.09,0-4.27ZM5.06,34.71L31.81,7.95l8.27,8.15-26.82,26.82-8.21-8.21ZM4.13,37.32l6.54,6.54-7.69,1.16,1.15-7.7ZM45.35,10.83l-3.5,3.5-8.27-8.15,3.56-3.56c.2-.2.53-.2.73,0l7.48,7.48c.2.2.2.53,0,.73Z"/>
  </g>
</svg>