<?xml version="1.0" encoding="UTF-8"?>
<svg id="Ebene_2" xmlns="http://www.w3.org/2000/svg" viewBox="0 0 48 48">
  <defs>
    <style>
      .cls-1 {
        fill: #1e1e1c;
      }
    </style>
  </defs>
  <g id="_x33_219">
    <path class="cls-1" d="M24,0C10.77,0,0,10.77,0,24s10.77,24,24,24,24-10.77,24-24S37.23,0,24,0ZM31.37,11.67c2.17,0,3.92,2.81,3.92,6.28s-1.76,6.28-3.92,6.28-3.92-2.81-3.92-6.28,1.76-6.28,3.92-6.28ZM17.4,11.67c2.17,0,3.92,2.81,3.92,6.28s-1.76,6.28-3.92,6.28-3.92-2.81-3.92-6.28,1.76-6.28,3.92-6.28ZM35.92,37.76c-.2.11-.41.17-.63.17-.43,0-.85-.22-1.08-.62-2.11-3.64-6.02-5.9-10.21-5.9s-8.1,2.26-10.21,5.9c-.35.6-1.11.8-1.71.46-.6-.35-.8-1.11-.46-1.71,2.56-4.41,7.3-7.15,12.38-7.15s9.82,2.74,12.38,7.15c.35.6.14,1.36-.46,1.71Z"/>
  </g>
</svg>