<?xml version="1.0" encoding="UTF-8"?>
<svg id="Ebene_2" xmlns="http://www.w3.org/2000/svg" viewBox="0 0 24 24">
  <defs>
    <style>
      .cls-1 {
        fill: #1e1e1c;
      }
    </style>
  </defs>
  <g id="_x33_219">
    <path class="cls-1" d="M12,0C5.38,0,0,5.38,0,12s5.38,12,12,12,12-5.38,12-12S18.62,0,12,0ZM15.6,5.97c1.06,0,1.92,1.37,1.92,3.07s-.86,3.07-1.92,3.07-1.92-1.37-1.92-3.07.86-3.07,1.92-3.07ZM8.77,5.97c1.06,0,1.92,1.37,1.92,3.07s-.86,3.07-1.92,3.07-1.92-1.37-1.92-3.07.86-3.07,1.92-3.07ZM19.36,15.13c-1.52,2.62-4.34,4.25-7.36,4.25s-5.84-1.63-7.36-4.25c-.24-.42-.1-.95.32-1.2.42-.24.95-.1,1.2.32,1.21,2.09,3.45,3.38,5.85,3.38s4.64-1.3,5.85-3.38c.24-.42.78-.56,1.2-.32.42.24.56.78.32,1.2Z"/>
  </g>
</svg>