<?xml version="1.0" encoding="UTF-8"?>
<svg id="Ebene_2" xmlns="http://www.w3.org/2000/svg" viewBox="0 0 64 64">
  <defs>
    <style>
      .cls-1 {
        fill: #1e1e1c;
      }
    </style>
  </defs>
  <g id="_x33_219">
    <path class="cls-1" d="M32,0C14.36,0,0,14.36,0,32s14.36,32,32,32,32-14.36,32-32S49.64,0,32,0ZM41.92,15.4c2.92,0,5.28,3.78,5.28,8.45s-2.36,8.45-5.28,8.45-5.28-3.78-5.28-8.45,2.36-8.45,5.28-8.45ZM23.12,15.4c2.92,0,5.28,3.78,5.28,8.45s-2.36,8.45-5.28,8.45-5.28-3.78-5.28-8.45,2.36-8.45,5.28-8.45ZM51.38,40.1c-4,6.91-11.43,11.2-19.38,11.2s-15.38-4.29-19.38-11.2c-.38-.66-.16-1.5.5-1.88.66-.38,1.5-.16,1.88.5,3.51,6.06,10.03,9.83,17,9.83s13.49-3.77,17-9.83c.38-.66,1.22-.88,1.88-.5.66.38.88,1.22.5,1.88Z"/>
  </g>
</svg>