<?xml version="1.0" encoding="UTF-8"?>
<svg id="Ebene_2" xmlns="http://www.w3.org/2000/svg" viewBox="0 0 16 16">
  <defs>
    <style>
      .cls-1 {
        fill: #1e1e1c;
      }
    </style>
  </defs>
  <g id="_x33_219">
    <path class="cls-1" d="M8,0C3.59,0,0,3.59,0,8s3.59,8,8,8,8-3.59,8-8S12.41,0,8,0ZM8,14.5c-3.58,0-6.5-2.92-6.5-6.5S4.42,1.5,8,1.5s6.5,2.92,6.5,6.5-2.92,6.5-6.5,6.5ZM9.1,6.07c0-1.1.56-2,1.25-2s1.25.9,1.25,2-.56,2-1.25,2-1.25-.9-1.25-2ZM4.65,6.07c0-1.1.56-2,1.25-2s1.25.9,1.25,2-.56,2-1.25,2-1.25-.9-1.25-2ZM12.06,10.76c0,.41-.34.75-.75.75h-6.62c-.41,0-.75-.34-.75-.75s.34-.75.75-.75h6.62c.41,0,.75.34.75.75Z"/>
  </g>
</svg>