<?xml version="1.0" encoding="UTF-8"?>
<svg id="Ebene_2" xmlns="http://www.w3.org/2000/svg" viewBox="0 0 32 32">
  <defs>
    <style>
      .cls-1 {
        fill: #1e1e1c;
      }
    </style>
  </defs>
  <g id="_x33_219">
    <path class="cls-1" d="M16,0C7.18,0,0,7.18,0,16s7.18,16,16,16,16-7.18,16-16S24.82,0,16,0ZM20.86,7.87c1.43,0,2.59,1.85,2.59,4.14s-1.16,4.14-2.59,4.14-2.59-1.85-2.59-4.14,1.16-4.14,2.59-4.14ZM11.65,7.87c1.43,0,2.59,1.85,2.59,4.14s-1.16,4.14-2.59,4.14-2.59-1.85-2.59-4.14,1.16-4.14,2.59-4.14ZM22.91,22.63h-13.83c-.55,0-1-.45-1-1s.45-1,1-1h13.83c.55,0,1,.45,1,1s-.45,1-1,1Z"/>
  </g>
</svg>