<?xml version="1.0" encoding="UTF-8"?>
<svg id="Ebene_2" xmlns="http://www.w3.org/2000/svg" viewBox="0 0 48 48">
  <defs>
    <style>
      .cls-1 {
        fill: #1e1e1c;
      }
    </style>
  </defs>
  <g id="_x33_219">
    <path class="cls-1" d="M24,0C10.77,0,0,10.77,0,24s10.77,24,24,24,24-10.77,24-24S37.23,0,24,0ZM31.37,11.68c2.16,0,3.92,2.81,3.92,6.27s-1.76,6.27-3.92,6.27-3.92-2.81-3.92-6.27,1.76-6.27,3.92-6.27ZM17.4,11.68c2.16,0,3.92,2.81,3.92,6.27s-1.76,6.27-3.92,6.27-3.92-2.81-3.92-6.27,1.76-6.27,3.92-6.27ZM35.01,33.25H12.99c-.69,0-1.25-.56-1.25-1.25s.56-1.25,1.25-1.25h22.02c.69,0,1.25.56,1.25,1.25s-.56,1.25-1.25,1.25Z"/>
  </g>
</svg>