<?xml version="1.0" encoding="UTF-8"?><svg id="Ebene_2" xmlns="http://www.w3.org/2000/svg" viewBox="0 0 48 48"><defs><style>.cls-1{fill:#1e1e1c;}</style></defs><g id="_x33_219"><path class="cls-1" d="M24,0C10.77,0,0,10.77,0,24s10.77,24,24,24,24-10.77,24-24S37.23,0,24,0ZM24,45.5c-11.85,0-21.5-9.64-21.5-21.5S12.15,2.5,24,2.5s21.5,9.64,21.5,21.5-9.64,21.5-21.5,21.5ZM32.73,17.04l-6.96,6.96,6.96,6.96c.49.49.49,1.28,0,1.77-.24.24-.56.37-.88.37s-.64-.12-.88-.37l-6.96-6.96-6.96,6.96c-.24.24-.56.37-.88.37s-.64-.12-.88-.37c-.49-.49-.49-1.28,0-1.77l6.96-6.96-6.96-6.96c-.49-.49-.49-1.28,0-1.77s1.28-.49,1.77,0l6.96,6.96,6.96-6.96c.49-.49,1.28-.49,1.77,0s.49,1.28,0,1.77Z"/></g></svg>