<?xml version="1.0" encoding="UTF-8"?><svg id="Ebene_2" xmlns="http://www.w3.org/2000/svg" viewBox="0 0 40 40"><defs><style>.cls-1{fill:#1e1e1c;}</style></defs><g id="_x33_219"><path class="cls-1" d="M20,0C8.97,0,0,8.97,0,20s8.97,20,20,20,20-8.97,20-20S31.03,0,20,0ZM27.3,25.71c.44.44.44,1.15,0,1.59-.22.22-.51.33-.8.33s-.58-.11-.8-.33l-5.71-5.71-5.71,5.71c-.22.22-.51.33-.8.33s-.58-.11-.8-.33c-.44-.44-.44-1.15,0-1.59l5.71-5.71-5.71-5.71c-.44-.44-.44-1.15,0-1.59.44-.44,1.15-.44,1.59,0l5.71,5.71,5.71-5.71c.44-.44,1.15-.44,1.59,0,.44.44.44,1.15,0,1.59l-5.71,5.71,5.71,5.71Z"/></g></svg>