<?xml version="1.0" encoding="UTF-8"?><svg id="Ebene_2" xmlns="http://www.w3.org/2000/svg" viewBox="0 0 32 32"><defs><style>.cls-1{fill:#1e1e1c;}</style></defs><g id="_x33_219"><path class="cls-1" d="M16,0C7.18,0,0,7.18,0,16s7.18,16,16,16,16-7.18,16-16S24.82,0,16,0ZM21.88,20.46c.39.39.39,1.02,0,1.41-.2.2-.45.29-.71.29s-.51-.1-.71-.29l-4.46-4.46-4.46,4.46c-.2.2-.45.29-.71.29s-.51-.1-.71-.29c-.39-.39-.39-1.02,0-1.41l4.46-4.46-4.46-4.46c-.39-.39-.39-1.02,0-1.41s1.02-.39,1.41,0l4.46,4.46,4.46-4.46c.39-.39,1.02-.39,1.41,0s.39,1.02,0,1.41l-4.46,4.46,4.46,4.46Z"/></g></svg>