<?xml version="1.0" encoding="UTF-8"?>
<svg id="Ebene_2" xmlns="http://www.w3.org/2000/svg" viewBox="0 0 24 24">
  <defs>
    <style>
      .cls-1 {
        fill: #1e1e1c;
      }
    </style>
  </defs>
  <g id="_x33_219">
    <path class="cls-1" d="M24,0v8.28c0,.83-.67,1.5-1.5,1.5s-1.5-.67-1.5-1.5v-3.15l-5.6,5.6-2.12-2.12,5.6-5.6h-3.16c-.83,0-1.5-.67-1.5-1.5s.67-1.5,1.5-1.5h8.28ZM8.28,3c.83,0,1.5-.67,1.5-1.5s-.67-1.5-1.5-1.5H0v8.28c0,.83.67,1.5,1.5,1.5s1.5-.67,1.5-1.5v-3.15l5.6,5.6,2.12-2.12L5.13,3h3.15ZM22.5,14.48c-.83,0-1.5.67-1.5,1.5v2.89l-5.59-5.59-2.12,2.12,5.6,5.6h-3.16c-.83,0-1.5.67-1.5,1.5s.67,1.5,1.5,1.5h8.28v-8.02c0-.83-.67-1.5-1.5-1.5ZM8.6,13.28l-5.59,5.59v-3.15c0-.83-.67-1.5-1.5-1.5s-1.5.67-1.5,1.5v8.28h8.28c.83,0,1.5-.67,1.5-1.5s-.67-1.5-1.5-1.5h-3.15l5.59-5.59-2.12-2.12Z"/>
  </g>
</svg>