<?xml version="1.0" encoding="UTF-8"?>
<svg id="Ebene_2" xmlns="http://www.w3.org/2000/svg" viewBox="0 0 48 48">
  <defs>
    <style>
      .cls-1 {
        fill: #1e1e1c;
      }
    </style>
  </defs>
  <g id="_x33_219">
    <path class="cls-1" d="M48,0v14.25c0,.69-.56,1.25-1.25,1.25s-1.25-.56-1.25-1.25V4.27l-14.24,14.23-1.77-1.77,14.24-14.23h-9.98c-.69,0-1.25-.56-1.25-1.25s.56-1.25,1.25-1.25h14.25ZM14.26,2.53c.69,0,1.25-.56,1.25-1.25S14.95.03,14.26.03H.01v14.25c0,.69.56,1.25,1.25,1.25s1.25-.56,1.25-1.25V4.3l14.23,14.23,1.77-1.77L4.28,2.53h9.98ZM46.75,33.06c-.69,0-1.25.56-1.25,1.25v9.42l-14.23-14.23-1.77,1.77,14.23,14.23h-9.98c-.69,0-1.25.56-1.25,1.25s.56,1.25,1.25,1.25h14.25v-13.69c0-.69-.56-1.25-1.25-1.25ZM16.74,29.5l-14.23,14.23v-9.98c0-.69-.56-1.25-1.25-1.25s-1.25.56-1.25,1.25v14.25h14.25c.69,0,1.25-.56,1.25-1.25s-.56-1.25-1.25-1.25H4.27l14.23-14.23-1.77-1.77Z"/>
  </g>
</svg>