<?xml version="1.0" encoding="UTF-8"?>
<svg id="Ebene_2" xmlns="http://www.w3.org/2000/svg" viewBox="0 0 40 40">
  <defs>
    <style>
      .cls-1 {
        fill: #1e1e1c;
      }
    </style>
  </defs>
  <g id="_x33_219">
    <path class="cls-1" d="M40,0v11.91c0,.62-.5,1.13-1.13,1.13s-1.13-.5-1.13-1.13V3.84l-11.66,11.66-1.59-1.59,11.66-11.66h-8.07c-.62,0-1.13-.5-1.13-1.13s.5-1.13,1.13-1.13h11.91ZM11.92,2.27c.62,0,1.13-.5,1.13-1.13S12.54.02,11.92.02H0v11.91c0,.62.5,1.13,1.13,1.13s1.13-.5,1.13-1.13V3.87l11.66,11.66,1.59-1.59L3.85,2.27h8.07ZM38.87,27.43c-.62,0-1.13.5-1.13,1.13v7.6l-11.66-11.66-1.59,1.59,11.66,11.66h-8.07c-.62,0-1.13.5-1.13,1.13s.5,1.13,1.13,1.13h11.91v-11.45c0-.62-.5-1.13-1.13-1.13ZM13.91,24.5l-11.66,11.66v-8.07c0-.62-.5-1.13-1.13-1.13s-1.13.5-1.13,1.13v11.91h11.91c.62,0,1.13-.5,1.13-1.13s-.5-1.13-1.13-1.13H3.84l11.66-11.66-1.59-1.59Z"/>
  </g>
</svg>