<?xml version="1.0" encoding="UTF-8"?>
<svg id="Ebene_2" xmlns="http://www.w3.org/2000/svg" viewBox="0 0 16 16">
  <defs>
    <style>
      .cls-1 {
        fill: #1e1e1c;
      }
    </style>
  </defs>
  <g id="_x33_219">
    <path class="cls-1" d="M16,0v5.61c0,.69-.56,1.25-1.25,1.25s-1.25-.56-1.25-1.25v-1.33l-3.11,3.11-1.77-1.77,3.11-3.11h-1.33c-.69,0-1.25-.56-1.25-1.25s.56-1.25,1.25-1.25h5.61ZM5.61,2.5c.69,0,1.25-.56,1.25-1.25s-.56-1.25-1.25-1.25H0v5.61c0,.69.56,1.25,1.25,1.25s1.25-.56,1.25-1.25v-1.33l3.11,3.11,1.77-1.77-3.11-3.11h1.33ZM14.75,9.3c-.69,0-1.25.56-1.25,1.25v1.16l-3.1-3.1-1.77,1.77,3.11,3.11h-1.34c-.69,0-1.25.56-1.25,1.25s.56,1.25,1.25,1.25h5.61v-5.44c0-.69-.56-1.25-1.25-1.25ZM5.61,8.62l-3.1,3.1v-1.33c0-.69-.56-1.25-1.25-1.25s-1.25.56-1.25,1.25v5.61h5.61c.69,0,1.25-.56,1.25-1.25s-.56-1.25-1.25-1.25h-1.33l3.1-3.1-1.77-1.77Z"/>
  </g>
</svg>