<?xml version="1.0" encoding="UTF-8"?>
<svg id="Ebene_2" xmlns="http://www.w3.org/2000/svg" viewBox="0 0 16 16">
  <defs>
    <style>
      .cls-1 {
        fill: #1e1e1c;
      }
    </style>
  </defs>
  <g id="_x33_219">
    <path class="cls-1" d="M8.22,4.69l-2.25-2.25c.62-.17,1.29-.27,2.02-.27,5.33,0,7.67,5.11,7.76,5.33l.23.51-.23.51c-.04.1-.51,1.12-1.47,2.25l-1.77-1.77c.3-.37.53-.72.68-.98-.6-1.02-2.22-3.19-4.98-3.31ZM2.78,8c.16-.27.39-.62.69-.99l-1.77-1.77C.74,6.36.27,7.39.23,7.49L0,8l.23.51c.1.22,2.43,5.33,7.76,5.33.74,0,1.41-.1,2.03-.27l-2.25-2.25c-2.77-.12-4.39-2.29-4.99-3.31ZM15.63,13.86L2.14.37C1.65-.12.86-.12.37.37S-.12,1.65.37,2.14l13.5,13.5c.24.24.56.37.89.37s.64-.12.89-.37c.49-.49.49-1.28,0-1.77Z"/>
  </g>
</svg>