<?xml version="1.0" encoding="UTF-8"?>
<svg id="Ebene_2" xmlns="http://www.w3.org/2000/svg" viewBox="0 0 40 40">
  <defs>
    <style>
      .cls-1 {
        fill: #1e1e1c;
      }
    </style>
  </defs>
  <g id="_x33_219">
    <path class="cls-1" d="M12.94,9.75l-1.71-1.71c2.47-1.24,5.38-2.07,8.77-2.07,13.48,0,19.42,13.01,19.66,13.57l.2.46-.2.46c-.15.33-2.36,5.18-7.04,8.98l-1.63-1.63c3.65-2.9,5.73-6.54,6.39-7.81-1.15-2.22-6.73-11.77-17.38-11.77-2.67,0-5.02.6-7.06,1.53ZM20,31.77c-10.65,0-16.23-9.55-17.38-11.77.65-1.27,2.74-4.91,6.39-7.81l-1.63-1.63C2.7,14.36.48,19.21.34,19.54l-.2.46.2.46c.25.55,6.19,13.57,19.66,13.57,3.39,0,6.31-.83,8.77-2.07l-1.71-1.71c-2.04.93-4.39,1.53-7.06,1.53ZM16.33,13.15l10.52,10.52c.59-1.09.92-2.34.92-3.67,0-4.29-3.48-7.77-7.77-7.77-1.33,0-2.57.33-3.67.92ZM23.67,26.85l-10.52-10.52c-.59,1.09-.92,2.34-.92,3.67,0,4.29,3.48,7.77,7.77,7.77,1.33,0,2.57-.33,3.67-.92ZM39.67,38.08L1.92.33C1.48-.11.77-.11.33.33-.11.77-.11,1.48.33,1.92l37.75,37.75c.22.22.51.33.8.33s.58-.11.8-.33c.44-.44.44-1.15,0-1.59Z"/>
  </g>
</svg>