<?xml version="1.0" encoding="UTF-8"?>
<svg id="Ebene_2" xmlns="http://www.w3.org/2000/svg" viewBox="0 0 64 45.52">
  <defs>
    <style>
      .cls-1 {
        fill: #1e1e1c;
      }
    </style>
  </defs>
  <g id="_x33_219">
    <path class="cls-1" d="M63.55,21.74c-.39-.89-9.91-21.74-31.55-21.74S.85,20.86.45,21.74l-.45,1.02.45,1.02c.39.89,9.91,21.74,31.55,21.74s31.15-20.86,31.55-21.74l.45-1.02-.45-1.02ZM32,40.51c-15.83,0-24.37-13.85-26.46-17.76,2.08-3.92,10.57-17.75,26.46-17.75s24.36,13.84,26.46,17.76c-2.08,3.92-10.57,17.75-26.46,17.75ZM32,8.06c-8.11,0-14.7,6.6-14.7,14.71s6.6,14.7,14.7,14.7,14.7-6.6,14.7-14.7-6.6-14.71-14.7-14.71ZM28.25,22.11c-2.02,0-3.66-1.64-3.66-3.66s1.64-3.66,3.66-3.66,3.66,1.64,3.66,3.66-1.64,3.66-3.66,3.66ZM37.37,30c-1.35,0-2.44-1.09-2.44-2.44s1.09-2.44,2.44-2.44,2.44,1.09,2.44,2.44-1.09,2.44-2.44,2.44Z"/>
  </g>
</svg>