<?xml version="1.0" encoding="UTF-8"?>
<svg id="Ebene_2" xmlns="http://www.w3.org/2000/svg" viewBox="0 0 24 24">
  <defs>
    <style>
      .cls-1 {
        fill: #1e1e1c;
      }
    </style>
  </defs>
  <g id="_x33_219">
    <path class="cls-1" d="M11.85,16.8c-2.52-.08-4.55-2.11-4.64-4.64l4.64,4.64ZM16.79,11.84c-.09-2.52-2.11-4.54-4.63-4.62l4.63,4.62ZM12,17.66c-4.99,0-7.76-4.07-8.64-5.65.3-.53.8-1.33,1.53-2.17l-2.12-2.12c-1.61,1.81-2.4,3.52-2.47,3.67l-.27.61.27.61c.15.33,3.67,8.04,11.7,8.04,1.18,0,2.25-.18,3.24-.47l-2.57-2.57c-.22.02-.44.03-.67.03ZM12,6.36c4.98,0,7.75,4.06,8.64,5.65-.3.52-.81,1.32-1.53,2.16l2.13,2.13c1.6-1.81,2.4-3.52,2.46-3.67l.27-.61-.27-.61c-.15-.33-3.67-8.04-11.7-8.04-1.18,0-2.25.18-3.23.46l2.57,2.57c.22-.02.44-.03.66-.03ZM23.49,21.01L2.99.51C2.3-.17,1.2-.17.51.51-.17,1.2-.17,2.31.51,2.99l20.5,20.5c.34.34.79.51,1.24.51s.9-.17,1.24-.51c.68-.68.68-1.79,0-2.48Z"/>
  </g>
</svg>