<?xml version="1.0" encoding="UTF-8"?>
<svg id="Ebene_2" xmlns="http://www.w3.org/2000/svg" viewBox="0 0 16 11.44">
  <defs>
    <style>
      .cls-1 {
        fill: #1e1e1c;
      }
    </style>
  </defs>
  <g id="_x33_219">
    <path class="cls-1" d="M15.87,5.42c-.1-.22-2.47-5.42-7.87-5.42S.23,5.2.13,5.42l-.13.3.13.3c.1.22,2.47,5.42,7.87,5.42s7.77-5.2,7.87-5.42l.13-.3-.13-.3ZM8,9.94c-3.79,0-5.8-3.2-6.34-4.22.55-1.02,2.56-4.22,6.34-4.22s5.8,3.2,6.34,4.22c-.55,1.02-2.56,4.22-6.34,4.22ZM8,2.73c-1.65,0-2.99,1.34-2.99,2.99s1.34,2.99,2.99,2.99,2.99-1.34,2.99-2.99-1.34-2.99-2.99-2.99ZM7.08,5.56c-.5,0-.9-.4-.9-.9s.4-.9.9-.9.9.4.9.9-.4.9-.9.9ZM9.32,7.5c-.33,0-.6-.27-.6-.6s.27-.6.6-.6.6.27.6.6-.27.6-.6.6Z"/>
  </g>
</svg>