<?xml version="1.0" encoding="UTF-8"?>
<svg id="Ebene_2" xmlns="http://www.w3.org/2000/svg" viewBox="0 0 32 32">
  <defs>
    <style>
      .cls-1 {
        fill: #1e1e1c;
      }
    </style>
  </defs>
  <g id="_x33_219">
    <path class="cls-1" d="M10.63,7.8l-1.53-1.53c1.95-.96,4.24-1.59,6.9-1.59,10.84,0,15.62,10.47,15.82,10.91l.18.41-.18.41c-.12.26-1.85,4.05-5.49,7.09l-1.45-1.45c2.76-2.25,4.38-5.02,4.91-6.04-.97-1.85-5.39-9.32-13.79-9.32-2.02,0-3.8.44-5.37,1.12ZM16,25.32c-8.39,0-12.82-7.47-13.79-9.32.54-1.03,2.15-3.79,4.92-6.05l-1.45-1.45C2.03,11.54.3,15.33.18,15.6l-.18.41.18.41c.2.45,4.97,10.91,15.82,10.91,2.66,0,4.95-.63,6.9-1.59l-1.53-1.53c-1.57.68-3.35,1.12-5.37,1.12ZM13.26,10.43l8.31,8.31c.41-.83.64-1.76.64-2.74,0-3.43-2.78-6.21-6.21-6.21-.98,0-1.91.24-2.74.64ZM18.74,21.57l-8.31-8.31c-.41.83-.64,1.76-.64,2.74,0,3.43,2.78,6.21,6.21,6.21.99,0,1.91-.24,2.74-.64ZM1.71.29C1.32-.1.68-.1.29.29S-.1,1.32.29,1.71l30,30c.2.2.45.29.71.29s.51-.1.71-.29c.39-.39.39-1.02,0-1.41L1.71.29Z"/>
  </g>
</svg>