<?xml version="1.0" encoding="UTF-8"?>
<svg id="Ebene_2" xmlns="http://www.w3.org/2000/svg" viewBox="0 0 16 16">
  <defs>
    <style>
      .cls-1 {
        fill: #1e1e1c;
      }
    </style>
  </defs>
  <g id="_x33_219">
    <path class="cls-1" d="M5.9,12.8l.7,1.33-3.56,1.87.94-5.77L0,6.16l5.5-.84L8.01,0l2.5,5.32,5.49.84-2.9,3.01-1.08-1.04.89-.93-3.42-.52-1.48-3.15-1.48,3.15-3.41.52,2.47,2.52-.58,3.54.89-.47ZM13.28,11.84h-1.89v-1.88c0-.41-.34-.75-.75-.75s-.75.34-.75.75v1.88h-1.89c-.41,0-.75.34-.75.75s.34.75.75.75h1.89v1.88c0,.41.34.75.75.75s.75-.34.75-.75v-1.88h1.89c.41,0,.75-.34.75-.75s-.34-.75-.75-.75Z"/>
  </g>
</svg>