<?xml version="1.0" encoding="UTF-8"?>
<svg id="Ebene_2" xmlns="http://www.w3.org/2000/svg" viewBox="0 0 32 32">
  <defs>
    <style>
      .cls-1 {
        fill: #1e1e1c;
      }
    </style>
  </defs>
  <g id="_x33_219">
    <path class="cls-1" d="M11.82,25.02l1.63,3.1-7.39,3.88,1.89-11.53L0,12.34l11-1.68L16.02,0l5.02,10.66,10.97,1.67-5.97,6.21-2.53-2.42,1.29-1.35-6.14-.94-2.63-5.6-2.63,5.6-6.1.93,4.42,4.52-1.04,6.34,1.16-.61ZM26.14,23.14h-3.31v-3.3c0-.97-.79-1.75-1.75-1.75s-1.75.78-1.75,1.75v3.3h-3.31c-.97,0-1.75.78-1.75,1.75s.79,1.75,1.75,1.75h3.31v3.3c0,.97.79,1.75,1.75,1.75s1.75-.78,1.75-1.75v-3.3h3.31c.97,0,1.75-.78,1.75-1.75s-.79-1.75-1.75-1.75Z"/>
  </g>
</svg>