<?xml version="1.0" encoding="UTF-8"?>
<svg id="Ebene_2" xmlns="http://www.w3.org/2000/svg" viewBox="0 0 24 24">
  <defs>
    <style>
      .cls-1 {
        fill: #1e1e1c;
      }
    </style>
  </defs>
  <g id="_x33_219">
    <path class="cls-1" d="M8.89,18.33l1.4,2.65-5.74,3.02,1.41-8.64L0,9.27l8.25-1.26L12.01,0l3.77,8.01,8.22,1.25-4.62,4.8-2.17-2.08.61-.63-4.07-.62-1.73-3.67-1.73,3.67-4.04.62,2.93,3-.69,4.19.4-.21ZM19.29,16.95h-2.13v-2.13c0-.83-.67-1.5-1.5-1.5s-1.5.67-1.5,1.5v2.13h-2.13c-.83,0-1.5.67-1.5,1.5s.67,1.5,1.5,1.5h2.13v2.13c0,.83.67,1.5,1.5,1.5s1.5-.67,1.5-1.5v-2.13h2.13c.83,0,1.5-.67,1.5-1.5s-.67-1.5-1.5-1.5Z"/>
  </g>
</svg>