<?xml version="1.0" encoding="UTF-8"?>
<svg id="Ebene_2" xmlns="http://www.w3.org/2000/svg" viewBox="0 0 39.83 39.92">
  <defs>
    <style>
      .cls-1 {
        fill: #1e1e1c;
      }
    </style>
  </defs>
  <g id="_x33_219">
    <path class="cls-1" d="M14.7,31.64l1.86,3.54-9,4.74,2.35-14.39L0,15.38l13.7-2.09L19.93,0l6.24,13.28,13.66,2.09-7.3,7.61-2.89-2.77,1.97-2.05-8.15-1.25-3.52-7.5-3.52,7.5-8.11,1.24,5.88,6.03-1.38,8.46,1.9-1ZM32.37,25.27c-.78-.78-2.05-.78-2.83,0l-3.15,3.15-3.15-3.15c-.78-.78-2.05-.78-2.83,0s-.78,2.05,0,2.83l3.15,3.15-3.15,3.15c-.78.78-.78,2.05,0,2.83.39.39.9.59,1.41.59s1.02-.2,1.41-.59l3.15-3.15,3.15,3.15c.39.39.9.59,1.41.59s1.02-.2,1.41-.59c.78-.78.78-2.05,0-2.83l-3.15-3.15,3.15-3.15c.78-.78.78-2.05,0-2.83Z"/>
  </g>
</svg>