<?xml version="1.0" encoding="UTF-8"?>
<svg id="Ebene_2" xmlns="http://www.w3.org/2000/svg" viewBox="0 0 64 64">
  <defs>
    <style>
      .cls-1 {
        fill: #1e1e1c;
      }
    </style>
  </defs>
  <g id="_x33_219">
    <path class="cls-1" d="M23.54,52.03l2.35,4.43-13.73,7.17,3.77-22.95L0,24.47l22.03-3.34L32.02,0l9.99,21.13,21.99,3.33-11.23,11.62-3.64-3.46,4.51-4.66-15.05-2.28-6.57-13.89-6.57,13.89-15,2.27,10.86,11.05-2.55,15.53,4.78-2.5ZM53.95,48.12h-8.44v-8.38c0-1.38-1.13-2.5-2.52-2.5s-2.52,1.12-2.52,2.5v8.38h-8.44c-1.39,0-2.52,1.12-2.52,2.5s1.13,2.5,2.52,2.5h8.44v8.38c0,1.38,1.13,2.5,2.52,2.5s2.52-1.12,2.52-2.5v-8.38h8.44c1.39,0,2.52-1.12,2.52-2.5s-1.13-2.5-2.52-2.5Z"/>
  </g>
</svg>