<?xml version="1.0" encoding="UTF-8"?>
<svg id="Ebene_2" xmlns="http://www.w3.org/2000/svg" viewBox="0 0 48 48">
  <defs>
    <style>
      .cls-1 {
        fill: #1e1e1c;
      }
    </style>
  </defs>
  <g id="_x33_219">
    <path class="cls-1" d="M17.59,39.93l1.19,2.21-9.64,4.98,2.83-17.01L0,18.08l16.54-2.48L24.01,0l7.47,15.6,16.52,2.47-7.97,8.15-1.84-1.73,4.57-4.67-13.01-1.95-5.74-11.98-5.74,11.98-12.98,1.94,9.4,9.45-2.21,13.3,5.11-2.64ZM41.49,36.93h-7.46v-7.32c0-.69-.57-1.25-1.28-1.25s-1.28.56-1.28,1.25v7.32h-7.46c-.7,0-1.28.56-1.28,1.25s.57,1.25,1.28,1.25h7.46v7.32c0,.69.57,1.25,1.28,1.25s1.28-.56,1.28-1.25v-7.32h7.46c.7,0,1.28-.56,1.28-1.25s-.57-1.25-1.28-1.25Z"/>
  </g>
</svg>