<?xml version="1.0" encoding="UTF-8"?>
<svg id="Ebene_2" xmlns="http://www.w3.org/2000/svg" viewBox="0 0 31.51 31.55">
  <defs>
    <style>
      .cls-1 {
        fill: #1e1e1c;
      }
    </style>
  </defs>
  <g id="_x33_219">
    <path class="cls-1" d="M12.21,12.27l-8.06,1.23,5.84,5.99-1.37,8.42,2.95-1.55.93,1.77-6.5,3.42,1.86-11.39L0,12.12l10.86-1.66L15.76,0l4.91,10.46,10.84,1.66-5.35,5.58-1.44-1.38,2.69-2.8-8.08-1.23-3.55-7.57-3.55,7.57ZM26.03,20.71c-.39-.39-1.02-.39-1.41,0l-3.25,3.25-3.25-3.25c-.39-.39-1.02-.39-1.41,0s-.39,1.02,0,1.41l3.25,3.25-3.25,3.25c-.39.39-.39,1.02,0,1.41.2.2.45.29.71.29s.51-.1.71-.29l3.25-3.25,3.25,3.25c.2.2.45.29.71.29s.51-.1.71-.29c.39-.39.39-1.02,0-1.41l-3.25-3.25,3.25-3.25c.39-.39.39-1.02,0-1.41Z"/>
  </g>
</svg>