<?xml version="1.0" encoding="UTF-8"?>
<svg id="Ebene_2" xmlns="http://www.w3.org/2000/svg" viewBox="0 0 23.75 23.79">
  <defs>
    <style>
      .cls-1 {
        fill: #1e1e1c;
      }
    </style>
  </defs>
  <g id="_x33_219">
    <path class="cls-1" d="M9.37,9.48l-5.74.88,4.15,4.26-.98,5.99,1.92-1.01.81,1.55-5.03,2.65,1.4-8.58L0,9.15l8.18-1.25L11.88,0l3.71,7.9,8.16,1.25-4.12,4.3-1.26-1.21,1.79-1.87-5.75-.88-2.52-5.36-2.52,5.36ZM19.54,15.46c-.34-.34-.9-.34-1.24,0l-2.29,2.29-2.29-2.29c-.34-.34-.9-.34-1.24,0-.34.34-.34.9,0,1.24l2.29,2.29-2.29,2.29c-.34.34-.34.9,0,1.24.17.17.4.26.62.26s.45-.08.62-.26l2.29-2.29,2.29,2.29c.17.17.4.26.62.26s.45-.08.62-.26c.34-.34.34-.9,0-1.24l-2.29-2.29,2.29-2.29c.34-.34.34-.9,0-1.24Z"/>
  </g>
</svg>