<?xml version="1.0" encoding="UTF-8"?>
<svg id="Ebene_2" xmlns="http://www.w3.org/2000/svg" viewBox="0 0 15.81 16.03">
  <defs>
    <style>
      .cls-1 {
        fill: #1e1e1c;
      }
    </style>
  </defs>
  <g id="_x33_219">
    <path class="cls-1" d="M7.12,7.58l-1.93.29,1.4,1.44-.44,2.71.9,1.71-4.06,2.14.93-5.71L0,6.14l5.42-.83L7.92,0l2.49,5.31,5.4.82-3.23,3.37-1.65-1.58-2.21-.34-.8-1.7-.8,1.7ZM12.26,12.94l.93-.93c.49-.49.49-1.28,0-1.77s-1.28-.49-1.77,0l-.93.93-.81-.81c-.49-.49-1.28-.49-1.77,0s-.49,1.28,0,1.77l.81.81-.84.84c-.49.49-.49,1.28,0,1.77.24.24.56.37.88.37s.64-.12.88-.37l.84-.84.95.95c.24.24.56.37.88.37s.64-.12.88-.37c.49-.49.49-1.28,0-1.77l-.95-.95Z"/>
  </g>
</svg>