<?xml version="1.0" encoding="UTF-8"?>
<svg id="Ebene_2" xmlns="http://www.w3.org/2000/svg" viewBox="0 0 23.93 24">
  <defs>
    <style>
      .cls-1 {
        fill: #1e1e1c;
      }
    </style>
  </defs>
  <g id="_x33_219">
    <path class="cls-1" d="M8.86,18.33l1.4,2.65-5.73,3.01,1.41-8.64L0,9.26l8.22-1.26L11.98,0l3.76,8.01,8.19,1.25-4.61,4.8-2.16-2.08.6-.63-4.06-.62-1.72-3.67-1.72,3.67-4.03.62,2.92,3-.68,4.19.4-.21ZM19.23,14.82c-.59-.59-1.54-.59-2.12,0l-1.5,1.5-1.5-1.5c-.59-.59-1.54-.59-2.12,0s-.59,1.54,0,2.12l1.5,1.5-1.5,1.5c-.59.59-.59,1.54,0,2.12.29.29.68.44,1.06.44s.77-.15,1.06-.44l1.5-1.5,1.5,1.5c.29.29.68.44,1.06.44s.77-.15,1.06-.44c.59-.59.59-1.54,0-2.12l-1.5-1.5,1.5-1.5c.59-.59.59-1.54,0-2.12Z"/>
  </g>
</svg>