<?xml version="1.0" encoding="UTF-8"?>
<svg id="Ebene_2" xmlns="http://www.w3.org/2000/svg" viewBox="0 0 47.83 47.92">
  <defs>
    <style>
      .cls-1 {
        fill: #1e1e1c;
      }
    </style>
  </defs>
  <g id="_x33_219">
    <path class="cls-1" d="M19.51,20.02l-10.17,1.55,7.37,7.55-1.73,10.61,2.66-1.4,2.1,3.98-10.65,5.61,2.82-17.28L0,18.45l16.46-2.51L23.94,0l7.48,15.94,16.41,2.51-8.66,9.02-3.25-3.12,2.66-2.77-10.22-1.56-4.43-9.43-4.43,9.43ZM38.98,30.53c-.88-.88-2.3-.88-3.18,0l-3.98,3.98-3.98-3.98c-.88-.88-2.3-.88-3.18,0s-.88,2.3,0,3.18l3.98,3.98-3.98,3.98c-.88.88-.88,2.3,0,3.18.44.44,1.01.66,1.59.66s1.15-.22,1.59-.66l3.98-3.98,3.98,3.98c.44.44,1.01.66,1.59.66s1.15-.22,1.59-.66c.88-.88.88-2.3,0-3.18l-3.98-3.98,3.98-3.98c.88-.88.88-2.3,0-3.18Z"/>
  </g>
</svg>