<?xml version="1.0" encoding="UTF-8"?>
<svg id="Ebene_2" xmlns="http://www.w3.org/2000/svg" viewBox="0 0 39.23 39.28">
  <defs>
    <style>
      .cls-1 {
        fill: #1e1e1c;
      }
    </style>
  </defs>
  <g id="_x33_219">
    <path class="cls-1" d="M15.05,15.05l-10.38,1.59,7.51,7.7-1.77,10.84,3.97-2.09,1.05,1.99-7.97,4.2,2.31-14.18L0,15.08l13.52-2.07L19.63,0l6.11,13.01,13.5,2.06-6.58,6.86-1.62-1.56,3.58-3.73-10.4-1.59-4.58-9.76-4.58,9.76ZM32.5,25.93c-.44-.44-1.15-.44-1.59,0l-4.21,4.21-4.21-4.21c-.44-.44-1.15-.44-1.59,0-.44.44-.44,1.15,0,1.59l4.21,4.21-4.21,4.21c-.44.44-.44,1.15,0,1.59.22.22.51.33.8.33s.58-.11.8-.33l4.21-4.21,4.21,4.21c.22.22.51.33.8.33s.58-.11.8-.33c.44-.44.44-1.15,0-1.59l-4.21-4.21,4.21-4.21c.44-.44.44-1.15,0-1.59Z"/>
  </g>
</svg>