<?xml version="1.0" encoding="UTF-8"?>
<svg id="Ebene_2" xmlns="http://www.w3.org/2000/svg" viewBox="0 0 24 24">
  <defs>
    <style>
      .cls-1 {
        fill: #1e1e1c;
      }
    </style>
  </defs>
  <g id="_x33_219">
    <path class="cls-1" d="M24,17c0-1.83-1.29-3.37-3-3.77V0h-1.75v13.23c-1.72.4-3,1.93-3,3.77s1.29,3.37,3,3.77v3.23h1.75v-3.23c1.72-.4,3-1.93,3-3.77ZM20.12,19.12c-1.17,0-2.13-.95-2.13-2.12s.95-2.12,2.13-2.12,2.13.95,2.13,2.12-.95,2.12-2.13,2.12ZM12.86,3.23V0h-1.75v3.23c-1.72.4-3,1.93-3,3.77s1.29,3.37,3,3.77v13.23h1.75v-13.23c1.72-.4,3-1.93,3-3.77s-1.29-3.37-3-3.77ZM11.99,9.13c-1.17,0-2.13-.95-2.13-2.12s.95-2.12,2.13-2.12,2.13.95,2.13,2.12-.95,2.12-2.13,2.12ZM4.75,13.26V0h-1.75v13.26c-1.72.4-3,1.93-3,3.77s1.29,3.37,3,3.77v3.21h1.75v-3.21c1.72-.4,3-1.93,3-3.77s-1.29-3.37-3-3.77ZM3.88,19.15c-1.17,0-2.13-.95-2.13-2.12s.95-2.12,2.13-2.12,2.13.95,2.13,2.12-.95,2.12-2.13,2.12Z"/>
  </g>
</svg>