<?xml version="1.0" encoding="UTF-8"?>
<svg id="Ebene_2" xmlns="http://www.w3.org/2000/svg" viewBox="0 0 64 64">
  <defs>
    <style>
      .cls-1 {
        fill: #1e1e1c;
      }
    </style>
  </defs>
  <g id="_x33_219">
    <path class="cls-1" d="M64,45.33c0-4.7-3.48-8.59-8-9.26V0h-2.75v36.07c-4.52.67-8,4.56-8,9.26s3.48,8.59,8,9.26v9.41h2.75v-9.41c4.52-.67,8-4.56,8-9.26ZM54.62,51.96c-3.65,0-6.63-2.97-6.63-6.62s2.97-6.62,6.63-6.62,6.63,2.97,6.63,6.62-2.97,6.62-6.63,6.62ZM33.36,9.41V0h-2.75v9.41c-4.52.67-8,4.56-8,9.26s3.48,8.59,8,9.26v36.07h2.75V27.93c4.52-.67,8-4.56,8-9.26s-3.48-8.59-8-9.26ZM31.98,25.29c-3.65,0-6.63-2.97-6.63-6.62s2.97-6.62,6.63-6.62,6.63,2.97,6.63,6.62-2.97,6.62-6.63,6.62ZM10.75,36.14V0h-2.75v36.14c-4.52.67-8,4.56-8,9.26s3.48,8.59,8,9.26v9.33h2.75v-9.33c4.52-.67,8-4.56,8-9.26s-3.48-8.59-8-9.26ZM9.38,52.03c-3.65,0-6.63-2.97-6.63-6.62s2.97-6.62,6.63-6.62,6.63,2.97,6.63,6.62-2.97,6.62-6.63,6.62Z"/>
  </g>
</svg>