<?xml version="1.0" encoding="UTF-8"?>
<svg id="Ebene_2" xmlns="http://www.w3.org/2000/svg" viewBox="0 0 32 32">
  <defs>
    <style>
      .cls-1 {
        fill: #1e1e1c;
      }
    </style>
  </defs>
  <g id="_x33_219">
    <path class="cls-1" d="M32,22.67c0-2.56-1.69-4.73-4.01-5.48V0h-3.51v17.19c-2.32.74-4.01,2.92-4.01,5.48s1.69,4.73,4.01,5.48v3.86h3.51v-3.86c2.32-.74,4.01-2.92,4.01-5.48ZM26.24,24.92c-1.24,0-2.25-1.01-2.25-2.25s1.01-2.25,2.25-2.25,2.25,1.01,2.25,2.25-1.01,2.25-2.25,2.25ZM21.76,9.33c0-2.56-1.69-4.73-4.01-5.48V0h-3.51v3.86c-2.32.74-4.01,2.92-4.01,5.48s1.69,4.73,4.01,5.48v17.19h3.51V14.81c2.32-.74,4.01-2.92,4.01-5.48ZM16,11.58c-1.24,0-2.25-1.01-2.25-2.25s1.01-2.25,2.25-2.25,2.25,1.01,2.25,2.25-1.01,2.25-2.25,2.25ZM7.51,17.23V0h-3.51v17.23c-2.32.74-4.01,2.92-4.01,5.48s1.69,4.73,4.01,5.48v3.82h3.51v-3.82c2.32-.74,4.01-2.92,4.01-5.48s-1.69-4.73-4.01-5.48ZM5.76,24.95c-1.24,0-2.25-1.01-2.25-2.25s1.01-2.25,2.25-2.25,2.25,1.01,2.25,2.25-1.01,2.25-2.25,2.25Z"/>
  </g>
</svg>