<?xml version="1.0" encoding="UTF-8"?>
<svg id="Ebene_2" xmlns="http://www.w3.org/2000/svg" viewBox="0 0 24 24">
  <defs>
    <style>
      .cls-1 {
        fill: #1e1e1c;
      }
    </style>
  </defs>
  <g id="_x33_219">
    <path class="cls-1" d="M24,17c0-1.95-1.26-3.6-3-4.22V0h-3v12.78c-1.74.62-3,2.27-3,4.22s1.26,3.6,3,4.22v2.78h3v-2.78c1.74-.62,3-2.27,3-4.22ZM19.49,18.5c-.83,0-1.5-.67-1.5-1.5s.67-1.5,1.5-1.5,1.5.67,1.5,1.5-.67,1.5-1.5,1.5ZM16.49,7c0-1.95-1.26-3.6-3-4.22V0h-3v2.78c-1.74.62-3,2.27-3,4.22s1.26,3.6,3,4.22v12.78h3v-12.78c1.74-.62,3-2.27,3-4.22ZM11.98,5.5c.83,0,1.5.67,1.5,1.5s-.67,1.5-1.5,1.5-1.5-.67-1.5-1.5.67-1.5,1.5-1.5ZM6.01,12.8V0h-3v12.8c-1.74.62-3,2.27-3,4.22s1.26,3.6,3,4.22v2.75h3v-2.75c1.74-.62,3-2.27,3-4.22s-1.26-3.6-3-4.22ZM4.51,18.53c-.83,0-1.5-.67-1.5-1.5s.67-1.5,1.5-1.5,1.5.67,1.5,1.5-.67,1.5-1.5,1.5Z"/>
  </g>
</svg>