<?xml version="1.0" encoding="UTF-8"?>
<svg id="Ebene_2" xmlns="http://www.w3.org/2000/svg" viewBox="0 0 16 16">
  <defs>
    <style>
      .cls-1 {
        fill: #1e1e1c;
      }
    </style>
  </defs>
  <g id="_x33_219">
    <path class="cls-1" d="M16,11.33c0-1.25-.85-2.3-2-2.63V0h-1.5v8.7c-1.15.33-2,1.38-2,2.63s.85,2.3,2,2.63v2.03h1.5v-2.03c1.15-.33,2-1.38,2-2.63ZM13.24,12.58c-.69,0-1.25-.56-1.25-1.25s.56-1.25,1.25-1.25,1.25.56,1.25,1.25-.56,1.25-1.25,1.25ZM10.73,4.67c0-1.25-.85-2.3-2-2.63V0h-1.5v2.04c-1.15.33-2,1.38-2,2.63s.85,2.3,2,2.63v8.7h1.5V7.3c1.15-.33,2-1.38,2-2.63ZM7.97,5.92c-.69,0-1.25-.56-1.25-1.25s.56-1.25,1.25-1.25,1.25.56,1.25,1.25-.56,1.25-1.25,1.25ZM3.51,8.72V0h-1.5v8.72c-1.15.33-2,1.38-2,2.63s.85,2.3,2,2.63v2.02h1.5v-2.02c1.15-.33,2-1.38,2-2.63s-.85-2.3-2-2.63ZM2.76,12.6c-.69,0-1.25-.56-1.25-1.25s.56-1.25,1.25-1.25,1.25.56,1.25,1.25-.56,1.25-1.25,1.25Z"/>
  </g>
</svg>