<?xml version="1.0" encoding="UTF-8"?>
<svg id="Ebene_2" xmlns="http://www.w3.org/2000/svg" viewBox="0 0 64 64">
  <defs>
    <style>
      .cls-1 {
        fill: #1e1e1c;
      }
    </style>
  </defs>
  <g id="_x33_219">
    <path class="cls-1" d="M32,0C14.33,0,0,14.33,0,32s14.33,32,32,32,32-14.33,32-32S49.67,0,32,0ZM35.68,46.84c-.27.27-.62.4-.97.4s-.7-.13-.97-.4c-.54-.54-.54-1.41,0-1.95l11.52-11.52H10.78v-2.75h34.47l-11.52-11.52c-.54-.54-.54-1.41,0-1.95.54-.54,1.41-.54,1.95,0l14.84,14.84-14.84,14.84Z"/>
  </g>
</svg>