<?xml version="1.0" encoding="UTF-8"?>
<svg id="Ebene_2" xmlns="http://www.w3.org/2000/svg" viewBox="0 0 21.86 24">
  <defs>
    <style>
      .cls-1 {
        fill: #1e1e1c;
      }
    </style>
  </defs>
  <g id="_x33_219">
    <path class="cls-1" d="M10.93,0C4.7,0,0,4.37,0,10.16c0,3.35,1.56,6.53,4.19,8.59v2.87c0,1.31,1.07,2.38,2.38,2.38h9.31c1.31,0,2.38-1.07,2.38-2.38v-3.35c2.3-2.07,3.61-5.01,3.61-8.11C21.86,4.37,17.16,0,10.93,0ZM17.37,14.36c-.48,0-.88.39-.88.88v6.39c0,.34-.28.63-.63.63h-.66v-3.77h-1.75v3.77h-1.36v-3.77h-1.75v3.77h-1.36v-3.77h-1.75v3.77h-.66c-.34,0-.63-.28-.63-.63v-1.75s0,0,0,0v-4.63c0-.48-.39-.88-.88-.88s-.88.39-.88.88v1.12c-1.54-1.68-2.44-3.89-2.44-6.2C1.75,5.29,5.61,1.75,10.93,1.75s9.18,3.54,9.18,8.41c0,2.02-.66,3.95-1.86,5.53v-.45c0-.48-.39-.88-.88-.88ZM8.85,11.97c-.99.99-1.92,1.49-2.78,1.49-.64,0-1.23-.28-1.79-.83-1.44-1.44-1.44-3.79,0-5.23,1.44-1.44,3.79-1.44,5.23,0,1.29,1.29,1.07,2.83-.67,4.57ZM17.59,12.77c-.55.55-1.15.83-1.79.83-.86,0-1.79-.5-2.78-1.49-1.74-1.74-1.96-3.27-.67-4.57,1.44-1.44,3.79-1.44,5.23,0,1.44,1.44,1.44,3.79,0,5.23ZM12.53,14.82c.23.43.07.96-.36,1.19-.13.07-.27.1-.41.1-.31,0-.61-.17-.77-.46l-.06-.1-.06.1c-.16.29-.46.46-.77.46-.14,0-.28-.03-.41-.1-.43-.23-.59-.76-.36-1.19l.83-1.54s.04-.04.05-.06c.03-.05.07-.09.11-.13.04-.04.09-.08.13-.11.02-.01.04-.04.06-.05.03-.01.06-.01.08-.02.06-.02.11-.04.17-.05.06-.01.11-.02.16-.02.06,0,.11,0,.16.02.06.01.11.03.17.05.03.01.06.01.08.03.02.01.04.04.06.05.05.03.09.07.13.11.04.04.08.09.11.14.01.02.04.04.05.06l.83,1.54Z"/>
  </g>
</svg>