<?xml version="1.0" encoding="UTF-8"?>
<svg id="Ebene_2" xmlns="http://www.w3.org/2000/svg" viewBox="0 0 36.35 40">
  <defs>
    <style>
      .cls-1 {
        fill: #1e1e1c;
      }
    </style>
  </defs>
  <g id="_x33_219">
    <path class="cls-1" d="M18.18,0C7.81,0,0,7.25,0,16.87c0,5.86,2.79,11.06,7.11,14.39v6.11c0,1.45,1.18,2.63,2.63,2.63h14.83v-7.7h2.25v7.7h.79c1.45,0,2.63-1.18,2.63-2.63v-6.93c3.74-3.33,6.12-8.17,6.12-13.57C36.35,7.25,28.54,0,18.18,0ZM12.57,39.9h-2.25v-7.7h2.25v7.7ZM10.56,21.81c-.34.1-.74.18-1.18.18-.91,0-1.98-.32-3.03-1.38-2.48-2.48-2.48-6.53,0-9.01,2.49-2.48,6.53-2.48,9.01,0,3.27,3.27-.12,6.66-1.24,7.78-1.34,1.33-2.47,2.11-3.57,2.44ZM17.32,39.9h-2.25v-7.7h2.25v7.7ZM18.59,25.38l-.41-.77-.41.77c-.2.38-.59.59-.99.59-.18,0-.36-.04-.53-.13-.55-.29-.75-.98-.46-1.52l1.4-2.62s.04-.05.06-.08c.04-.06.09-.12.15-.18.05-.05.11-.1.17-.14.03-.02.05-.05.08-.06.03-.02.07-.02.1-.03.07-.03.14-.05.22-.07.07-.01.14-.02.21-.02.07,0,.14,0,.21.02.08.01.15.04.22.07.03.01.07.01.1.03.03.02.05.04.08.06.07.04.12.09.18.15.05.05.1.11.14.17.02.03.05.05.07.08l1.4,2.62c.29.55.09,1.23-.46,1.52-.17.09-.35.13-.53.13-.4,0-.79-.22-.99-.59ZM22.07,39.9h-2.25v-7.7h2.25v7.7ZM30.03,20.83c-1.01,1.01-2.04,1.39-3,1.39-2.15,0-4-1.85-4.78-2.62-1.11-1.12-4.51-4.51-1.24-7.78h0c2.49-2.48,6.53-2.48,9.01,0,2.48,2.49,2.48,6.53,0,9.02Z"/>
  </g>
</svg>