<?xml version="1.0" encoding="UTF-8"?>
<svg id="Ebene_2" xmlns="http://www.w3.org/2000/svg" viewBox="0 0 57.28 64">
  <defs>
    <style>
      .cls-1 {
        fill: #1e1e1c;
      }
    </style>
  </defs>
  <g id="_x33_219">
    <path class="cls-1" d="M28.64,0C12.31,0,0,11.42,0,26.55c0,9.31,4.47,17.59,11.36,22.82v11.75c0,1.59,1.29,2.88,2.88,2.88h3.05v-11.45h2.75v11.45h4.31v-11.45h2.75v11.45h4.31v-11.45h2.75v11.45h4.31v-11.3h2.75v11.3h3.38c1.59,0,2.88-1.29,2.88-2.88v-13.04c5.99-5.25,9.79-12.95,9.79-21.53C57.28,11.42,44.97,0,28.64,0ZM21.6,47.37c-.94,0-1.71-.77-1.71-1.71s.77-1.71,1.71-1.71,1.71.77,1.71,1.71-.77,1.71-1.71,1.71ZM21.71,31.92c-1.44,1.44-4.53,4.53-8.09,4.53-1.6,0-3.3-.63-4.98-2.31-2.04-2.04-3.17-4.76-3.17-7.65s1.12-5.61,3.17-7.65c4.22-4.22,11.08-4.22,15.29,0,2.08,2.08,2.75,4.41,2,6.93-.56,1.87-1.9,3.82-4.22,6.14ZM31.53,40.8c-.21.11-.43.16-.65.16-.49,0-.97-.26-1.21-.73l-1.03-1.93-1.03,1.93c-.25.46-.72.72-1.21.72-.22,0-.44-.05-.65-.16-.67-.36-.92-1.19-.56-1.86l2.25-4.19s0,0,0,0c.08-.15.2-.29.34-.41,0,0,.02,0,.02-.02.06-.05.12-.09.2-.13.04-.02.09-.02.13-.04.09-.04.17-.06.26-.08.09-.02.17-.03.26-.03.09,0,.17,0,.26.03.09.02.18.04.26.08.04.02.09.02.13.04.07.04.14.09.2.13,0,0,.01,0,.02.01.14.12.26.26.34.41,0,0,0,0,0,0h0s0,0,0,.01l2.24,4.18c.36.67.11,1.5-.56,1.86ZM36.39,47.37c-.94,0-1.71-.77-1.71-1.71s.77-1.71,1.71-1.71,1.71.77,1.71,1.71-.77,1.71-1.71,1.71ZM43.7,36.8c-3.56,0-6.65-3.09-8.09-4.53-2.09-2.09-7.65-7.65-2.23-13.07h0c4.22-4.22,11.08-4.22,15.3,0,4.22,4.22,4.22,11.08,0,15.29-1.68,1.68-3.38,2.31-4.98,2.31Z"/>
  </g>
</svg>