<?xml version="1.0" encoding="UTF-8"?>
<svg id="Ebene_2" xmlns="http://www.w3.org/2000/svg" viewBox="0 0 19.22 24">
  <defs>
    <style>
      .cls-1 {
        fill: #1e1e1c;
      }
    </style>
  </defs>
  <g id="_x33_219">
    <path class="cls-1" d="M18.28,15.06c-.01-.18-.04-.36-.09-.54v-3.05c.04-.2.07-.41.07-.62v-3.12c0-1.62-1.31-2.93-2.93-2.93-.78,0-1.48.31-2.01.81-.54-.61-1.31-1-2.18-1-.8,0-1.52.32-2.05.84-.53-.52-1.25-.84-2.04-.84-.42,0-.82.09-1.18.25v-1.94c0-1.62-1.31-2.93-2.93-2.93S0,1.32,0,2.93v7.54c0,.1,0,.19.03.31v5.79c0,3.62,2.94,6.56,6.55,6.56h4.66c.83.57,1.78.87,2.76.87,2.88,0,5.21-2.56,5.21-5.72,0-1.16-.33-2.26-.94-3.23ZM14.14,7.74c0-.65.53-1.18,1.18-1.18s1.18.53,1.18,1.18v3.12c0,.65-.53,1.18-1.18,1.18s-1.18-.53-1.18-1.18v-3.12ZM11.13,6.37c.65,0,1.18.53,1.18,1.18v3.5c0,.65-.53,1.18-1.18,1.18s-1.13-.5-1.17-1.12c0-.02,0-.04,0-.06v-3.5s0-.04,0-.06c.04-.62.54-1.12,1.17-1.12ZM7.04,6.37c.63,0,1.13.5,1.17,1.12,0,.02,0,.04,0,.06v3.5s0,.04,0,.06c-.04.62-.54,1.12-1.17,1.12s-1.18-.53-1.18-1.18v-3.5c0-.65.53-1.18,1.18-1.18ZM1.78,16.57l-.03-13.64c0-.65.53-1.18,1.18-1.18s1.18.53,1.18,1.18v8.12c0,1.31.87,2.41,2.07,2.79v1.46c0,1.63,1.26,2.95,2.85,3.08-.17.22-.31.45-.44.69-.73-.79-1.73-1.28-2.84-1.28-.48,0-.88.39-.88.88s.39.88.88.88c.4,0,.76.13,1.09.34l.86.96c.09.17.16.35.21.54h-1.31c-2.65,0-4.8-2.16-4.8-4.81ZM14,22.25c-.69,0-1.36-.24-1.94-.69l-.24-.18h-2.09c.05-1.58,1.13-2.85,2.49-2.97h1.65c.48,0,.88-.39.88-.88s-.39-.88-.88-.88h-4.59c-.75,0-1.36-.61-1.36-1.36v-1.36h7.26c1.79,0,2.28,3.43,2.28,4.35,0,2.19-1.55,3.97-3.46,3.97Z"/>
  </g>
</svg>