<?xml version="1.0" encoding="UTF-8"?>
<svg id="Ebene_2" xmlns="http://www.w3.org/2000/svg" viewBox="0 0 40.86 48">
  <defs>
    <style>
      .cls-1 {
        fill: #1e1e1c;
      }
    </style>
  </defs>
  <g id="_x33_219">
    <path class="cls-1" d="M39.57,22.97h0c-.86-.96-2.01-1.48-3.25-1.48h0c-1.23,0-2.39.53-3.22,1.46l-4.14,4.36V7.5c0-2.51-2.04-4.55-4.55-4.55-.81,0-1.55.23-2.2.61-.45-2.03-2.26-3.56-4.42-3.56-2.5,0-4.53,2.03-4.53,4.53v.66c-.62-.31-1.3-.5-2.04-.5-2.53,0-4.58,2.05-4.58,4.58v2.11c-.62-.31-1.31-.5-2.05-.5C2.05,10.87,0,12.92,0,15.54l1.61,21.21c0,.09.04.16.07.25.4,5.36,4.88,9.6,10.34,9.6h5.97c1.32.92,2.83,1.4,4.39,1.4,2.22,0,5.38-.88,7.79-5.07l.07-.12s0,0,0,0l9.37-13.06c1.67-1.92,1.65-4.88-.05-6.78ZM37.71,28.13s-.06.07-.09.11l-9.38,13.08c-.08.1-.14.21-.23.36-1.46,2.53-3.35,3.82-5.62,3.82-1.14,0-2.26-.39-3.22-1.14-.22-.17-.49-.26-.77-.26h-1.71c.05-.14.09-.28.09-.44,0-.29-.02-.56-.06-.84,0-.03.02-.06.02-.1,0-3.17,1.66-5.85,3.62-5.85.69,0,1.25-.56,1.25-1.25s-.56-1.25-1.25-1.25c-2.47,0-4.54,1.9-5.52,4.71-.97-.91-2.23-1.46-3.6-1.46-.69,0-1.25.56-1.25,1.25s.56,1.25,1.25,1.25c1.68,0,3.04,1.59,3.04,3.53,0,.16.04.3.09.44h-2.35c-4.35,0-7.88-3.53-7.88-7.87l-.06.02-1.59-20.8c0-1.15.93-2.08,2.08-2.08,1.03,0,1.89.76,2.05,1.74v8.94c0,.18.04.35.11.5.16.51.62.89,1.18.89.69,0,1.25-.56,1.25-1.25v-8.74c0-.12-.03-.22-.03-.34v-5.85c0-1.15.93-2.08,2.08-2.08,1.01,0,1.85.72,2.04,1.67v15.38c0,.69.56,1.25,1.25,1.25.58,0,1.05-.41,1.19-.94.07-.15.1-.32.1-.49v-14.79c0-.14-.03-.27-.04-.41v-4.33c0-1.12.91-2.03,2.03-2.03s2.03.91,2.03,2.03v19.45c0,.69.56,1.25,1.25,1.25s1.25-.56,1.25-1.25v-3.72s0-.02,0-.02v-11.55s0-.02,0-.02v-.07c0-.36.01-.67.02-.88.01-.07.02-.14.02-.21,0-1.13.92-2.05,2.06-2.05s2.05.92,2.05,2.05v22.94c-.01.51.3.97.78,1.16.47.19,1.02.07,1.37-.3l6.32-6.67c.76-.84,2.01-.84,2.77,0,.85.95.85,2.55,0,3.49Z"/>
  </g>
</svg>