<?xml version="1.0" encoding="UTF-8"?>
<svg id="Ebene_2" xmlns="http://www.w3.org/2000/svg" viewBox="0 0 49.33 64">
  <defs>
    <style>
      .cls-1 {
        fill: #1e1e1c;
      }
    </style>
  </defs>
  <g id="_x33_219">
    <path class="cls-1" d="M46.84,41.19c-.03-.55-.12-1.08-.26-1.6v-9.15c0-.12.02-.24.02-.36v-8.39c0-3.82-3.08-6.92-6.86-6.92-2.05,0-3.89.92-5.15,2.36-1.2-2.01-3.38-3.36-5.87-3.36-2.23,0-4.2,1.08-5.45,2.75-1.25-1.66-3.23-2.75-5.45-2.75-1.54,0-2.96.52-4.11,1.39V6.92c0-3.82-3.08-6.92-6.86-6.92S0,3.11,0,6.92v21.64c0,.25.03.49.06.72v15.69c0,9.19,7.42,16.68,16.52,16.68h12.74c2.11,1.54,4.54,2.35,7.06,2.35,7.14,0,12.95-6.47,12.95-14.42,0-3.03-.86-5.9-2.49-8.39ZM35.64,21.7c0-2.29,1.84-4.15,4.11-4.15s4.11,1.86,4.11,4.15v8.39c0,2.23-1.75,4.03-3.93,4.13-.13,0-.26-.02-.39-.02h-.16c-2.09-.19-3.74-1.95-3.74-4.11v-8.39ZM28.73,16.55c2.26,0,4.11,1.86,4.11,4.15v9.42c0,2.07-1.51,3.78-3.48,4.08h-1.25c-1.85-.29-3.28-1.82-3.45-3.73,0-.12.02-.24.02-.36v-9.42c0-.12-.01-.24-.02-.36.18-2.12,1.93-3.79,4.07-3.79ZM17.82,16.55c2.14,0,3.89,1.67,4.07,3.79,0,.12-.02.24-.02.36v9.42c0,.12.01.24.02.36-.16,1.91-1.6,3.44-3.45,3.73h-1.25c-1.97-.31-3.48-2.01-3.48-4.08v-9.42c0-2.29,1.84-4.15,4.11-4.15ZM2.82,44.97v-15.72l-.03-.34c-.02-.11-.04-.23-.04-.35V6.92c0-2.29,1.84-4.15,4.11-4.15s4.11,1.86,4.11,4.15v23.19c0,3.35,2.37,6.15,5.51,6.79v2.64c0,4.99,3.85,9.09,8.71,9.43-1.32,1.23-2.38,2.78-3.05,4.57-1.78-2.62-4.6-4.32-7.78-4.32-.76,0-1.38.62-1.38,1.39s.62,1.39,1.38,1.39c3.51,0,6.42,2.99,6.92,6.87h-4.69c-7.59,0-13.77-6.24-13.77-13.9ZM36.39,61.22c-2.05,0-4.05-.71-5.76-2.06l-.37-.29h-6.2c-.01-.13-.04-.25-.05-.37.02-.1.03-.19.03-.3,0-4.66,3.01-8.52,6.91-9.2h5.1c.76,0,1.38-.62,1.38-1.39s-.62-1.39-1.38-1.39h-10.2c-3.65,0-6.62-3-6.62-6.69v-2.57h8.62c.29.04.58.06.88.06s.59-.03.88-.06h9.42c.23.02.47.04.71.04.04,0,.07,0,.1,0,2.38.17,4.27,2.15,4.27,4.6,0,.27.08.52.21.74l-.03.02c1.49,2.11,2.28,4.6,2.28,7.22,0,6.42-4.57,11.64-10.2,11.64Z"/>
  </g>
</svg>