<?xml version="1.0" encoding="UTF-8"?>
<svg id="Ebene_2" xmlns="http://www.w3.org/2000/svg" viewBox="0 0 52.96 63.97">
  <defs>
    <style>
      .cls-1 {
        fill: #1e1e1c;
      }
    </style>
  </defs>
  <g id="_x33_219">
    <path class="cls-1" d="M51.91,38.61s-.06.08-.09.12l-13.63,19.01c-.09.12-.17.26-.3.48-2.2,3.82-5.08,5.76-8.55,5.76-1.76,0-3.47-.6-4.94-1.75-.24-.19-.54-.29-.84-.29h-2.81s0-.05,0-.08c0-.39-.03-.77-.08-1.14.01-.07.02-.14.02-.22,0-4.85,2.61-8.94,5.69-8.94.76,0,1.38-.62,1.38-1.38s-.62-1.38-1.38-1.38c-3.59,0-6.58,2.95-7.82,7.23-1.38-1.54-3.3-2.49-5.42-2.49-.76,0-1.38.62-1.38,1.38s.62,1.38,1.38,1.38c2.68,0,4.86,2.5,4.86,5.57,0,.03,0,.05,0,.08h-3.73c-6.55,0-11.89-5.32-11.89-11.87L0,19.2c.03-1.89,1.57-3.41,3.47-3.41s3.47,1.55,3.47,3.46v13.34c0,.1.02.2.05.29.2.52.69.88,1.28.88.76,0,1.38-.62,1.38-1.38V10.26c0-1.91,1.55-3.46,3.47-3.46s3.47,1.55,3.47,3.46l-.05,22.11s0,0,0,0h0s0,0,0,0h0v.28c0,.76.62,1.38,1.38,1.38.71,0,1.28-.54,1.36-1.22.04-.13.07-.28.07-.43v-.81l-.06-28.19c0-1.87,1.52-3.38,3.39-3.38s3.39,1.52,3.39,3.38v28.89s0,.04,0,.06c.03.73.63,1.32,1.37,1.32s1.38-.62,1.38-1.38V9.38c.01-.6.02-1.1.03-1.42.02-.08.02-.17.02-.25,0-1.88,1.54-3.42,3.43-3.42s3.43,1.53,3.43,3.42l-.02,33.96c0,.56.34,1.07.87,1.28.52.21,1.12.08,1.51-.33l9.17-9.67c1.27-1.41,3.41-1.41,4.68,0,1.4,1.56,1.4,4.1,0,5.66Z"/>
  </g>
</svg>