<?xml version="1.0" encoding="UTF-8"?>
<svg id="Ebene_2" xmlns="http://www.w3.org/2000/svg" viewBox="0 0 47.21 64">
  <defs>
    <style>
      .cls-1 {
        fill: #1e1e1c;
      }
    </style>
  </defs>
  <g id="_x33_219">
    <path class="cls-1" d="M46.2,4.65c-.9-1.39-2.29-2.35-3.92-2.69-1.62-.35-3.28-.04-4.67.86-1.39.9-2.35,2.3-2.69,3.89l-3.86,16.69-3.24-18.18c-.25-1.64-1.13-3.08-2.47-4.05-1.33-.96-2.97-1.35-4.6-1.1-1.64.25-3.08,1.12-4.07,2.46-.98,1.34-1.38,2.98-1.13,4.63l1.71,10.75c-1.4-.73-3.08-.92-4.71-.42-2.62.82-4.3,3.22-4.35,5.82-1.24-.43-2.58-.46-3.86-.06-1.58.5-2.88,1.58-3.65,3.05s-.92,3.15-.42,4.74l.13.42c-.03.27-.06.53-.06.81v14.94c0,8.12,6.61,14.73,14.73,14.73h11.18c1.88,1.35,4.04,2.05,6.28,2.05,6.38,0,11.58-5.73,11.58-12.76,0-2.8-.84-5.47-2.42-7.73v-11.14c.24-1.32,3.32-14.38,5.37-23.01,0,0,0-.02,0-.03.35-1.62.04-3.28-.87-4.67ZM11.36,21.82c.43-.82,1.15-1.42,2.03-1.7.34-.11.69-.16,1.04-.16.55,0,1.1.13,1.6.4.82.43,1.42,1.15,1.7,2.03l2.85,9.12c-.45.23-.89.51-1.29.84-1.48,1.22-2.34,2.9-2.42,4.74-.03.74.07,1.46.29,2.15-.97-.36-1.77-1.14-2.1-2.2l-.57-1.82c-.05-.38-.12-.76-.24-1.13l-2.12-6.76c-.11-.36-.26-.7-.44-1.03l-.58-1.85c-.28-.88-.19-1.82.24-2.64ZM3.15,27.59c.43-.82,1.15-1.42,2.03-1.7.34-.11.69-.16,1.04-.16.55,0,1.1.13,1.6.4.57.3,1.02.74,1.35,1.28l2.61,8.33c.04.63-.08,1.25-.38,1.82-.43.82-1.15,1.42-2.03,1.7-.88.28-1.82.19-2.64-.24s-1.42-1.15-1.7-2.03l-2.12-6.76c-.28-.88-.19-1.82.24-2.64ZM3.11,47.21v-7.94c.58.91,1.36,1.67,2.34,2.18.9.47,1.88.71,2.87.71.62,0,1.25-.09,1.86-.29,1.28-.4,2.35-1.2,3.13-2.26,1.16,1.63,3.05,2.6,5.05,2.6.23,0,.46-.03.69-.05l4.95,4.83c-2.2.93-3.96,3.14-4.85,6.02-1.27-1.34-3-2.17-4.9-2.17-.76,0-1.38.62-1.38,1.38s.62,1.38,1.38,1.38c2.39,0,4.33,2.24,4.33,4.99,0,.22.06.42.15.61h-3.64c-6.6,0-11.98-5.38-11.98-11.98ZM32.54,61.25c-1.78,0-3.5-.61-4.98-1.76-.24-.19-.54-.29-.84-.29h-5.54c.09-.18.15-.39.15-.61,0-.36-.03-.71-.07-1.05,0-.06.02-.13.02-.2,0-4.36,2.31-8.05,5.06-8.07l3.45,3.36c.27.26.61.39.96.39s.72-.14.99-.42c.53-.54.52-1.41-.03-1.95l-10.9-10.62c-.81-.79-1.23-1.79-1.19-2.84.04-1.04.55-2.01,1.42-2.73,1.9-1.57,4.89-1.45,6.71.33l11.32,9.83s.07.04.11.06c.02.03.03.06.05.09,1.4,1.87,2.15,4.1,2.15,6.46,0,5.52-3.96,10.01-8.83,10.01ZM44.38,8.74c-5.44,22.91-5.44,23.33-5.44,23.53v8.61l-9.34-8.1c-1.69-1.65-4.11-2.35-6.41-2.07l-2.26-7.24-2.67-16.73c-.14-.91.08-1.83.63-2.57s1.35-1.23,2.26-1.37c1.89-.29,3.66.99,3.95,2.88l4.42,24.83c.11.64.67,1.12,1.32,1.13.65,0,1.23-.43,1.38-1.07l5.39-23.26c.4-1.87,2.24-3.06,4.1-2.66.9.19,1.68.73,2.18,1.5.5.77.67,1.69.49,2.59Z"/>
  </g>
</svg>