<?xml version="1.0" encoding="UTF-8"?>
<svg id="Ebene_2" xmlns="http://www.w3.org/2000/svg" viewBox="0 0 27.41 32">
  <defs>
    <style>
      .cls-1 {
        fill: #1e1e1c;
      }
    </style>
  </defs>
  <g id="_x33_219">
    <path class="cls-1" d="M26.52,15.13c-.6-.67-1.41-1.04-2.28-1.04h0c-.87,0-1.68.37-2.26,1.02l-2.45,2.58V5.14c0-1.76-1.42-3.19-3.18-3.19-.49,0-.95.12-1.36.32-.39-1.31-1.59-2.27-3.03-2.27-1.75,0-3.17,1.42-3.17,3.17v.16c-.37-.15-.76-.23-1.18-.23-1.77,0-3.21,1.44-3.21,3.21v1.13c-.37-.15-.77-.23-1.19-.23C1.44,7.2,0,8.64,0,10.48l1.07,13.91c0,.06.03.11.05.17.27,3.64,3.31,6.52,7.02,6.52h3.9c.89.61,1.91.93,2.96.93,1.52,0,3.66-.6,5.35-3.51l6.2-8.64c1.16-1.33,1.14-3.39-.04-4.71ZM25.03,18.55s-.05.06-.07.08l-6.22,8.67c-.06.07-.1.15-.16.26-.95,1.64-2.12,2.44-3.58,2.44-.72,0-1.42-.25-2.03-.72-.17-.14-.39-.21-.61-.21h-1c.06-.13.09-.26.09-.41,0-.18-.03-.35-.05-.52,0-.04.02-.07.02-.1,0-.73.14-1.43.38-2.02l.87-1.27c.3-.25.62-.41.97-.41.55,0,1-.45,1-1s-.45-1-1-1c-1.64,0-3.04,1.21-3.74,3.01-.64-.53-1.44-.85-2.3-.85-.55,0-1,.45-1,1s.45,1,1,1c1.02,0,1.85.97,1.85,2.17,0,.15.04.28.09.41h-1.42c-2.78,0-5.05-2.26-5.05-5.05h-.04s-1.05-13.62-1.05-13.62c0-.66.54-1.21,1.21-1.21.63,0,1.13.49,1.19,1.1v5.66c0,.14.03.27.08.4.13.4.49.69.94.69.55,0,1-.45,1-1v-5.65c0-.07-.02-.14-.02-.21v-3.89c0-.66.54-1.21,1.21-1.21.62,0,1.11.47,1.18,1.07v9.91c0,.55.45,1,1,1,.46,0,.83-.31.95-.73.05-.12.08-.25.08-.39V6.31c0-.09-.02-.18-.03-.27v-2.87c0-.65.53-1.17,1.18-1.17s1.18.53,1.18,1.17v12.74c0,.55.45,1,1,1s1-.45,1-1v-2.47s0,0,0-.01v-7.51s0,0,0-.01v-.1c0-.2,0-.39.01-.51,0-.05.01-.1.01-.16,0-.66.53-1.19,1.19-1.19s1.19.53,1.19,1.19v15.06c0,.41.24.78.62.93.38.15.81.06,1.1-.24l4.19-4.42c.44-.48,1.15-.49,1.58,0,.51.57.51,1.52,0,2.09Z"/>
  </g>
</svg>