<?xml version="1.0" encoding="UTF-8"?>
<svg id="Ebene_2" xmlns="http://www.w3.org/2000/svg" viewBox="0 0 21.27 24">
  <defs>
    <style>
      .cls-1 {
        fill: #1e1e1c;
      }
    </style>
  </defs>
  <g id="_x33_219">
    <path class="cls-1" d="M20.56,10.84c-.97-1.08-2.71-1.06-3.65-.02l-1.69,1.79V2.56c0-1.41-1.14-2.56-2.55-2.56s-2.56,1.15-2.56,2.56c0,.02,0,.05,0,.07-.05.39-.08.93-.1,1.67-.24-.07-.49-.12-.76-.12-1.18,0-2.16.82-2.43,1.91-.29-.1-.6-.17-.93-.17-1.31,0-2.38,1-2.5,2.28-.27-.09-.56-.15-.88-.15-1.39,0-2.53,1.13-2.53,2.53v1.86c0,.74.32,1.39.83,1.86v3.47c.01,3.05,2.49,5.52,5.53,5.52h2.96c.7.47,1.49.72,2.31.72,1.2,0,2.89-.47,4.2-2.75l4.73-6.61c.96-1.07.96-2.74,0-3.8ZM9.33,5.92c.42,0,.76.34.76.76v5.77c0,.42-.34.76-.76.76h-.07c-.4,0-.72-.32-.75-.71,0-.04.01-.07.01-.11v-3.95c0-.07-.02-.13-.02-.2v-1.56c0-.42.34-.76.83-.76ZM5.99,7.67c.39,0,.7.3.75.67v4.11s0,.02,0,.03c-.05.38-.36.69-.76.69h-.09c-.4,0-.72-.31-.76-.71,0,0,0-.02,0-.02v-1.86c0-.06-.01-.11-.02-.16v-1.97c0-.43.35-.78.87-.78ZM1.75,10.57c0-.43.35-.78.87-.78.4,0,.72.31.76.69v1.9s0,.06,0,.09c-.02.41-.35.74-.77.74h-.09c-.43,0-.78-.35-.78-.78v-1.86ZM19.2,13.55l-4.73,6.61c-.07.08-.12.16-.18.26-.71,1.23-1.57,1.83-2.66,1.83-.53,0-1.04-.18-1.49-.53-.15-.12-.34-.18-.54-.18h-.63c.02-.07.04-.13.04-.21,0-.14-.02-.27-.04-.4,0-.03.02-.05.02-.08,0-1.62.84-2.75,1.6-2.75.48,0,.88-.39.88-.88s-.39-.88-.88-.88c-1.26,0-2.33.9-2.9,2.25-.49-.37-1.09-.59-1.74-.59-.48,0-.88.39-.88.88s.39.88.88.88c.72,0,1.31.7,1.31,1.56,0,.07.02.14.04.21h-.95c-2.08,0-3.77-1.69-3.77-3.78v-2.8s.03,0,.03,0c.64,0,1.22-.25,1.67-.65.44.37,1,.6,1.61.6h.09c.61,0,1.17-.23,1.61-.59.44.39,1.02.64,1.66.64h.07c1.38,0,2.51-1.13,2.51-2.51v-2.83s0,0,0-.01V3.16s0,0,0,0c0-.19,0-.36.01-.47,0-.04,0-.08,0-.12,0-.45.36-.81.81-.81s.81.36.81.81v12.25c0,.36.21.68.54.81.33.13.71.05.96-.21l3.22-3.4c.29-.33.76-.33,1.06,0,.36.4.36,1.07-.06,1.54Z"/>
  </g>
</svg>