<?xml version="1.0" encoding="UTF-8"?>
<svg id="Ebene_2" xmlns="http://www.w3.org/2000/svg" viewBox="0 0 26.8 32">
  <defs>
    <style>
      .cls-1 {
        fill: #1e1e1c;
      }
    </style>
  </defs>
  <g id="_x33_219">
    <path class="cls-1" d="M26.33,18.98s-.05.06-.07.08l-7.05,9.82c-.06.08-.11.16-.17.28-1.08,1.88-2.49,2.84-4.17,2.84-.85,0-1.67-.29-2.38-.84-.17-.14-.39-.21-.61-.21h-1.18s.02-.07.02-.11c0-.2-.03-.39-.05-.59,0-.04.02-.08.02-.12,0-2.35,1.22-4.33,2.66-4.33.55,0,1-.45,1-1s-.45-1-1-1c-1.86,0-3.43,1.42-4.18,3.51-.73-.66-1.65-1.07-2.67-1.07-.55,0-1,.45-1,1s.45,1,1,1c1.23,0,2.23,1.16,2.23,2.59,0,.04.02.07.02.11h-1.66c-3.23,0-5.86-2.62-5.86-5.85v-1.76S0,9.66,0,9.66c0-.83.67-1.5,1.5-1.5s1.5.67,1.5,1.5v6.4s.01.06.01.1c.1.45.48.8.96.8.55,0,1-.45,1-1h0V5.02c0-.83.67-1.5,1.5-1.5s1.5.67,1.5,1.5v10.94h-.03v.14c0,.55.45,1,1,1,.46,0,.83-.32.95-.75.04-.09.05-.19.06-.29h0s0-14.59,0-14.59c0-.81.66-1.46,1.47-1.46s1.47.66,1.47,1.46v14.44s0,.03,0,.04c.02.53.45.96.99.96s1-.45,1-1V4.5c0-.26.01-.48.01-.63,0-.05.01-.11.01-.17,0-.82.67-1.48,1.48-1.48s1.48.66,1.48,1.48v17.06c0,.41.24.78.62.93.38.15.81.06,1.09-.24l4.75-5.01c.27-.3.63-.47,1-.47h0c.37,0,.72.17,1,.47.62.69.62,1.85,0,2.54Z"/>
  </g>
</svg>