<?xml version="1.0" encoding="UTF-8"?>
<svg id="Ebene_2" xmlns="http://www.w3.org/2000/svg" viewBox="0 0 18.23 24">
  <defs>
    <style>
      .cls-1 {
        fill: #1e1e1c;
      }
    </style>
  </defs>
  <g id="_x33_219">
    <path class="cls-1" d="M17.79,1.72c-.39-.6-.99-1.02-1.7-1.17-1.45-.31-2.88.62-3.18,2.05l-.87,3.68-.76-4.02c-.11-.71-.49-1.34-1.07-1.76-.58-.42-1.28-.59-1.99-.48-.71.11-1.33.49-1.76,1.07-.42.58-.6,1.29-.49,2l.43,2.73c-.46-.11-.95-.12-1.43.04-1.03.32-1.72,1.21-1.85,2.22-.4-.06-.81-.05-1.23.08-.68.21-1.25.68-1.58,1.32-.33.64-.4,1.36-.18,2.05l.02.08s-.01.09-.01.14v5.6c0,3.24,2.64,5.88,5.88,5.88h4.08c.74.51,1.59.77,2.47.77,2.59,0,4.7-2.31,4.7-5.14,0-1.09-.31-2.12-.91-3.01v-4.03c.12-.61,1.16-5.21,1.81-8.06,0,0,0,0,0-.01.15-.7.02-1.42-.37-2.02ZM5.49,7.53c.09-.03.19-.04.28-.04.4,0,.77.26.9.66l.99,3.16c-.1.06-.2.12-.29.19-.6.5-.95,1.17-1.02,1.92l-.3-.95s0,0,0-.01l-.79-2.53s0-.01,0-.02l-.37-1.19c-.15-.49.12-1.02.61-1.18ZM4.31,13.69c-.12.22-.31.38-.55.46-.24.08-.49.05-.71-.06-.22-.12-.38-.31-.46-.55l-.79-2.53c-.07-.24-.05-.49.06-.72.12-.22.31-.38.55-.46.09-.03.19-.04.28-.04.39,0,.76.25.89.65l.8,2.55c.07.24.05.49-.07.71ZM1.88,17.35v-1.94c.11.08.23.16.35.23.39.2.81.31,1.24.31.27,0,.54-.04.81-.12.44-.14.82-.39,1.13-.72.17.16.36.31.58.43.39.2.81.31,1.24.31.04,0,.08,0,.13,0l1.4,1.37c-.58.38-1.05.98-1.37,1.72-.48-.36-1.07-.57-1.69-.57-.48,0-.88.39-.88.88s.39.88.88.88c.66,0,1.2.61,1.25,1.38h-.94c-2.28,0-4.13-1.85-4.13-4.13ZM12.56,22.25c-.58,0-1.15-.2-1.65-.59-.15-.12-.34-.18-.54-.18h-1.67c0-.09-.01-.17-.02-.26,0-.03.02-.05.02-.08,0-1.48.72-2.52,1.41-2.64l1.17,1.14c.17.17.39.25.61.25s.46-.09.63-.26c.34-.35.33-.9-.02-1.24l-4.09-3.98c-.23-.22-.35-.5-.34-.79s.15-.56.4-.76c.57-.47,1.49-.43,2.02.08l4.09,3.98c.14.14.33.21.51.23.28.52.42,1.11.42,1.71,0,1.87-1.32,3.39-2.95,3.39ZM16.46,3.37c-1.85,8.1-1.85,8.24-1.85,8.37v2.75l-2.89-2.82c-.65-.63-1.53-.93-2.4-.9l-.75-2.39-.87-5.56c-.08-.51.27-.99.79-1.07.25-.04.5.02.7.17.2.14.33.36.37.63l1.53,8.08c.08.41.43.7.84.71.39-.01.78-.27.87-.67l1.82-7.69c.11-.51.61-.83,1.11-.72.24.05.45.2.59.41.13.21.18.46.13.7Z"/>
  </g>
</svg>