<?xml version="1.0" encoding="UTF-8"?>
<svg id="Ebene_2" xmlns="http://www.w3.org/2000/svg" viewBox="0 0 13.15 16">
  <defs>
    <style>
      .cls-1 {
        fill: #1e1e1c;
      }
    </style>
  </defs>
  <g id="_x33_219">
    <path class="cls-1" d="M12.68,10.12c-.01-.32-.09-.63-.23-.9l.04-4.23c0-1.17-.95-2.12-2.12-2.12-.5,0-.96.18-1.32.48-.38-.37-.9-.6-1.47-.6-.52,0-.99.2-1.36.51-.37-.31-.84-.51-1.36-.51-.22,0-.42.04-.62.1v-.72c0-1.17-.95-2.12-2.12-2.12S0,.95,0,2.12l.02,8.75C.02,13.38,2.05,15.42,4.55,15.42h3.06c.57.38,1.22.58,1.89.58,2.01,0,3.64-1.79,3.64-3.98,0-.67-.16-1.32-.46-1.9ZM9.76,4.98c0-.34.28-.62.62-.62s.62.28.62.62v2.08c0,.34-.28.62-.62.62s-.62-.28-.62-.62v-2.08ZM7.59,4.24c.34,0,.62.28.62.62v2.33c0,.34-.28.62-.62.62s-.59-.26-.61-.58c0-.02,0-.03,0-.05v-2.33s0-.03,0-.05c.02-.32.29-.58.61-.58ZM4.86,4.24c.33,0,.59.26.61.58,0,.02,0,.03,0,.05v2.33s0,.03,0,.05c-.02.32-.29.58-.61.58-.34,0-.62-.28-.62-.62v-2.33c0-.34.28-.62.62-.62ZM1.52,10.88l-.02-8.75c0-.34.28-.62.62-.62s.62.28.62.62v5.07c0,.97.65,1.78,1.54,2.03v.97c0,.38.1.73.27,1.04-.18-.04-.36-.06-.55-.06-.41,0-.75.34-.75.75s.34.75.75.75c.64,0,1.18.53,1.31,1.24h-.75c-1.67,0-3.04-1.36-3.04-3.04ZM9.5,14.5c-.42,0-.83-.15-1.19-.42l-.2-.16h-1.3s0-.02,0-.04c0-.03.02-.05.02-.08,0-.54.19-1.02.5-1.37h2.26c.41,0,.75-.34.75-.75s-.34-.75-.75-.75h-3.06c-.41,0-.74-.33-.74-.74v-.74h4.67c1.16,0,1.19,2.07,1.19,2.57,0,1.37-.96,2.48-2.14,2.48Z"/>
  </g>
</svg>