<?xml version="1.0" encoding="UTF-8"?>
<svg id="Ebene_2" xmlns="http://www.w3.org/2000/svg" viewBox="0 0 12.33 16">
  <defs>
    <style>
      .cls-1 {
        fill: #1e1e1c;
      }
    </style>
  </defs>
  <g id="_x33_219">
    <path class="cls-1" d="M10.78.61c-.51-.11-1.04-.01-1.47.27-.44.29-.74.73-.85,1.22l-.25,1.05-.28-1.49c-.08-.52-.35-.98-.78-1.29-.42-.31-.94-.44-1.46-.36-.52.08-.97.36-1.28.78-.31.42-.44.94-.36,1.46l.18,1.19c-.27-.03-.54-.01-.82.07-.5.16-.91.5-1.15.97-.08.16-.13.32-.17.49-.25-.02-.49,0-.73.08-.5.16-.91.5-1.15.97-.24.47-.29,1-.13,1.5v.02s0,.05,0,.08v3.75c0,2.26,1.83,4.11,4.09,4.11h2.67c.51.34,1.09.52,1.7.52,1.82,0,3.3-1.62,3.3-3.61,0-.74-.21-1.45-.61-2.07v-2.6c.04-.25.66-3.06,1.05-4.77,0,0,0,0,0,0,.22-1.06-.45-2.11-1.51-2.33ZM8.86,6.95l1.06-4.51c.03-.12.1-.22.2-.29.1-.07.22-.09.34-.06.12.03.22.1.29.2.07.1.09.22.07.34-1.08,4.8-1.08,4.89-1.08,5v1.31l-1.57-1.41c.32-.02.62-.24.7-.57ZM5.63,1.7c.07-.1.18-.16.3-.18.13-.01.24.01.34.08s.16.18.19.33l.94,4.99s.02.06.04.09c-.29-.13-.61-.2-.93-.21l-.45-1.46-.5-3.31c-.02-.12.01-.24.08-.34ZM3.61,5.19c.06-.11.15-.19.27-.23.05-.01.09-.02.14-.02.07,0,.15.02.21.05.11.06.19.15.23.27l.62,2s-.07.04-.1.07c-.27.22-.46.5-.59.8l-.02-.07s0-.01,0-.02l-.53-1.7s0,0,0-.01l-.25-.8c-.04-.12-.03-.24.03-.35ZM2.62,9.08c-.25.08-.5-.06-.57-.3l-.53-1.7c-.04-.12-.03-.24.03-.35s.15-.19.27-.23c.04-.01.09-.02.14-.02.07,0,.15.02.21.05.11.06.18.15.22.27l.53,1.71c.07.24-.06.5-.3.57ZM1.59,11.38v-.99c.28.15.59.22.9.22.2,0,.39-.03.59-.09h0c.27-.09.51-.23.71-.41.09.07.2.14.31.2.28.15.59.22.91.22,0,0,.01,0,.02,0l.74.73c-.29.24-.55.55-.74.93-.31-.19-.67-.3-1.05-.3-.41,0-.75.34-.75.75s.34.75.75.75c.3,0,.55.25.63.59h-.43c-1.43,0-2.59-1.17-2.59-2.6ZM8.54,14.49c-.35,0-.7-.12-.99-.36-.13-.1-.29-.16-.46-.16h-.97s0,0,0,0c0-.02.01-.03.01-.05,0-.82.36-1.45.72-1.59l.72.7c.15.14.33.21.52.21s.39-.08.54-.23c.29-.3.28-.78-.01-1.07l-2.72-2.67c-.12-.12-.18-.26-.17-.4,0-.15.08-.28.21-.39.31-.26.83-.24,1.14.07l2.92,2.62s.01,0,.02.01c.17.28.33.68.33,1.19,0,1.16-.81,2.11-1.8,2.11Z"/>
  </g>
</svg>