<?xml version="1.0" encoding="UTF-8"?>
<svg id="Ebene_2" xmlns="http://www.w3.org/2000/svg" viewBox="0 0 39.93 48">
  <defs>
    <style>
      .cls-1 {
        fill: #1e1e1c;
      }
    </style>
  </defs>
  <g id="_x33_219">
    <path class="cls-1" d="M39.19,28.68s-.06.07-.09.11l-10.42,14.52c-.08.1-.15.22-.24.39-1.65,2.86-3.79,4.3-6.36,4.3-1.3,0-2.57-.45-3.65-1.29-.22-.17-.49-.26-.77-.26h-2.01c.03-.11.07-.23.07-.35,0-.32-.03-.63-.07-.93,0-.04.02-.07.02-.11,0-3.6,1.9-6.64,4.15-6.64.69,0,1.25-.56,1.25-1.25s-.56-1.25-1.25-1.25c-2.74,0-5.04,2.17-6.07,5.35-1.07-1.07-2.49-1.73-4.06-1.73-.69,0-1.25.56-1.25,1.25s.56,1.25,1.25,1.25c1.94,0,3.52,1.82,3.52,4.06,0,.12.04.24.07.35h-2.72c-4.9,0-8.89-3.98-8.89-8.88v-2.01s-.01.02-.01.02L0,14.64c0-1.35,1.1-2.45,2.45-2.45s2.45,1.1,2.45,2.45v9.7c0,.16.04.3.09.44.23.31.58.53.99.53.69,0,1.25-.56,1.25-1.25V7.64c0-1.35,1.1-2.45,2.45-2.45s2.45,1.1,2.45,2.45v16.41h-.05v.21c0,.69.56,1.25,1.25,1.25.59,0,1.06-.41,1.19-.96.05-.11.07-.22.09-.34h-.03s0-21.83,0-21.83c0-1.32,1.08-2.39,2.4-2.39s2.4,1.07,2.4,2.39v21.58c0,.69.56,1.25,1.25,1.25s1.25-.56,1.25-1.25V6.96c0-.43.02-.8.02-1.05.01-.07.02-.14.02-.22,0-1.33,1.09-2.42,2.42-2.42s2.42,1.08,2.42,2.41v25.46c-.01.51.3.97.77,1.16.47.19,1.01.07,1.37-.3l7.01-7.4c.89-1,2.39-1,3.29,0,.99,1.1.99,2.96,0,4.06Z"/>
  </g>
</svg>