<?xml version="1.0" encoding="UTF-8"?>
<svg id="Ebene_2" xmlns="http://www.w3.org/2000/svg" viewBox="0 0 16 16">
  <defs>
    <style>
      .cls-1 {
        fill: #1e1e1c;
      }
    </style>
  </defs>
  <g id="_x33_219">
    <path class="cls-1" d="M15,0H1C.45,0,0,.45,0,1v2.84c0,.55.45,1,1,1h14c.55,0,1-.45,1-1V1c0-.55-.45-1-1-1ZM2.98,3.16h-1.5v-1.5h1.5v1.5ZM5.48,3.16h-1.5v-1.5h1.5v1.5ZM14.4,3.16h-5.49c-.41,0-.75-.33-.75-.75s.34-.75.75-.75h5.49c.41,0,.75.33.75.75s-.34.75-.75.75ZM15,5.58H1c-.55,0-1,.45-1,1v2.84c0,.55.45,1,1,1h14c.55,0,1-.45,1-1v-2.84c0-.55-.45-1-1-1ZM2.98,8.72h-1.5v-1.5h1.5v1.5ZM5.48,8.72h-1.5v-1.5h1.5v1.5ZM14.4,8.72h-5.49c-.41,0-.75-.33-.75-.75s.34-.75.75-.75h5.49c.41,0,.75.33.75.75s-.34.75-.75.75ZM15,11.17H1c-.55,0-1,.45-1,1v2.84c0,.55.45,1,1,1h14c.55,0,1-.45,1-1v-2.84c0-.55-.45-1-1-1ZM2.98,14.28h-1.5v-1.5h1.5v1.5ZM5.48,14.28h-1.5v-1.5h1.5v1.5ZM14.4,14.28h-5.49c-.41,0-.75-.33-.75-.75s.34-.75.75-.75h5.49c.41,0,.75.33.75.75s-.34.75-.75.75Z"/>
  </g>
</svg>