<?xml version="1.0" encoding="UTF-8"?>
<svg id="Ebene_2" xmlns="http://www.w3.org/2000/svg" viewBox="0 0 40 40">
  <defs>
    <style>
      .cls-1 {
        fill: #1e1e1c;
      }
    </style>
  </defs>
  <g id="_x33_219">
    <path class="cls-1" d="M38,0H2C.9,0,0,.89,0,1.99v8.58c0,1.1.9,1.99,2,1.99h36c1.11,0,2-.89,2-1.99V1.99c0-1.1-.9-1.99-2-1.99ZM5.91,7.4h-2.25v-2.24h2.25v2.24ZM10.53,7.4h-2.25v-2.24h2.25v2.24ZM15.02,7.4h-2.25v-2.24h2.25v2.24ZM35.62,7.4h-14.36c-.62,0-1.13-.5-1.13-1.12s.5-1.12,1.13-1.12h14.36c.62,0,1.13.5,1.13,1.12s-.5,1.12-1.13,1.12ZM38,13.7H2c-1.11,0-2,.89-2,1.99v8.58c0,1.1.9,1.99,2,1.99h36c1.11,0,2-.89,2-1.99v-8.58c0-1.1-.9-1.99-2-1.99ZM5.91,21.04h-2.25v-2.24h2.25v2.24ZM10.53,21.04h-2.25v-2.24h2.25v2.24ZM15.02,21.04h-2.25v-2.24h2.25v2.24ZM35.62,21.04h-14.36c-.62,0-1.13-.5-1.13-1.12s.5-1.12,1.13-1.12h14.36c.62,0,1.13.5,1.13,1.12s-.5,1.12-1.13,1.12ZM38,27.44H2c-1.11,0-2,.89-2,1.99v8.58c0,1.1.9,1.99,2,1.99h36c1.11,0,2-.89,2-1.99v-8.58c0-1.1-.9-1.99-2-1.99ZM5.91,34.71h-2.25v-2.24h2.25v2.24ZM10.53,34.71h-2.25v-2.24h2.25v2.24ZM15.02,34.71h-2.25v-2.24h2.25v2.24ZM35.62,34.71h-14.36c-.62,0-1.13-.5-1.13-1.12s.5-1.12,1.13-1.12h14.36c.62,0,1.13.5,1.13,1.12s-.5,1.12-1.13,1.12Z"/>
  </g>
</svg>