<?xml version="1.0" encoding="UTF-8"?>
<svg id="Ebene_2" xmlns="http://www.w3.org/2000/svg" viewBox="0 0 32 32">
  <defs>
    <style>
      .cls-1 {
        fill: #1e1e1c;
      }
    </style>
  </defs>
  <g id="_x33_219">
    <path class="cls-1" d="M32,2.5c0-1.38-1.12-2.5-2.5-2.5H2.5C1.12,0,0,1.12,0,2.5v7.01c0,.56.2,1.08.51,1.5-.32.42-.51.93-.51,1.5v7.01c0,.56.2,1.08.51,1.5-.32.42-.51.93-.51,1.5v7.01c0,1.38,1.12,2.5,2.5,2.5h26.99c1.38,0,2.5-1.12,2.5-2.5v-7.01c0-.56-.2-1.08-.51-1.5.32-.42.51-.93.51-1.5v-7.01c0-.56-.2-1.08-.51-1.5.32-.42.51-.93.51-1.5V2.5ZM2,2.5c0-.27.23-.5.5-.5h26.99c.28,0,.5.22.5.5v7.01c0,.27-.23.5-.5.5H2.5c-.28,0-.5-.22-.5-.5V2.5ZM30,12.5v7.01c0,.27-.23.5-.5.5H2.5c-.28,0-.5-.22-.5-.5v-7.01c0-.27.23-.5.5-.5h26.99c.28,0,.5.22.5.5ZM30,29.5c0,.27-.23.5-.5.5H2.5c-.28,0-.5-.22-.5-.5v-7.01c0-.27.23-.5.5-.5h26.99c.28,0,.5.22.5.5v7.01ZM14.81,6c0-.55.45-1,1-1h11.4c.55,0,1,.45,1,1s-.45,1-1,1h-11.4c-.55,0-1-.45-1-1ZM9.38,7h-2v-2h2v2ZM6.11,7h-2v-2h2v2ZM14.81,15.95c0-.55.45-1,1-1h11.4c.55,0,1,.45,1,1s-.45,1-1,1h-11.4c-.55,0-1-.45-1-1ZM9.38,16.95h-2v-2h2v2ZM6.11,16.95h-2v-2h2v2ZM28.21,25.9c0,.55-.45,1-1,1h-11.4c-.55,0-1-.45-1-1s.45-1,1-1h11.4c.55,0,1,.45,1,1ZM7.38,24.9h2v2h-2v-2ZM12.55,7h-2v-2h2v2ZM12.55,16.95h-2v-2h2v2ZM10.55,24.9h2v2h-2v-2ZM4.11,24.9h2v2h-2v-2Z"/>
  </g>
</svg>