<?xml version="1.0" encoding="UTF-8"?>
<svg id="Ebene_2" xmlns="http://www.w3.org/2000/svg" viewBox="0 0 32 32">
  <defs>
    <style>
      .cls-1 {
        fill: #1e1e1c;
      }
    </style>
  </defs>
  <g id="_x33_219">
    <path class="cls-1" d="M30.5,0H1.5C.67,0,0,.67,0,1.5v7c0,.83.67,1.5,1.5,1.5h29c.83,0,1.5-.67,1.5-1.5V1.5c0-.83-.67-1.5-1.5-1.5ZM4.64,5.99h-2v-1.99h2v1.99ZM8.4,5.99h-2v-1.99h2v1.99ZM12.06,5.99h-2v-1.99h2v1.99ZM29.17,5.99h-11.36c-.55,0-1-.45-1-1s.45-1,1-1h11.36c.55,0,1,.45,1,1s-.45,1-1,1ZM30.5,11H1.5c-.83,0-1.5.67-1.5,1.5v7c0,.83.67,1.5,1.5,1.5h29c.83,0,1.5-.67,1.5-1.5v-7c0-.83-.67-1.5-1.5-1.5ZM4.64,16.95h-2v-1.99h2v1.99ZM8.4,16.95h-2v-1.99h2v1.99ZM12.06,16.95h-2v-1.99h2v1.99ZM29.17,16.95h-11.36c-.55,0-1-.45-1-1s.45-1,1-1h11.36c.55,0,1,.45,1,1s-.45,1-1,1ZM30.5,22.01H1.5c-.83,0-1.5.67-1.5,1.5v7c0,.83.67,1.5,1.5,1.5h29c.83,0,1.5-.67,1.5-1.5v-7c0-.83-.67-1.5-1.5-1.5ZM4.64,27.9h-2v-1.99h2v1.99ZM8.4,27.9h-2v-1.99h2v1.99ZM12.06,27.9h-2v-1.99h2v1.99ZM29.17,27.9h-11.36c-.55,0-1-.45-1-1s.45-1,1-1h11.36c.55,0,1,.45,1,1s-.45,1-1,1Z"/>
  </g>
</svg>