<?xml version="1.0" encoding="UTF-8"?>
<svg id="Ebene_2" xmlns="http://www.w3.org/2000/svg" viewBox="0 0 48 48">
  <defs>
    <style>
      .cls-1 {
        fill: #1e1e1c;
      }
    </style>
  </defs>
  <g id="_x33_219">
    <path class="cls-1" d="M2,15.01h43.92c1.1,0,2-.9,2-2V2c0-1.11-.89-2-2-2H2C.89,0,0,.9,0,2v11.01c0,1.11.89,2,2,2ZM26.17,6.26h17.28c.69,0,1.25.56,1.25,1.25s-.56,1.25-1.25,1.25h-17.28c-.69,0-1.25-.56-1.25-1.25s.56-1.25,1.25-1.25ZM14.46,6.26h2.5v2.5h-2.5v-2.5ZM9.66,6.26h2.5v2.5h-2.5v-2.5ZM4.7,6.26h2.5v2.5h-2.5v-2.5ZM46,16.6H2.08c-1.1,0-2,.9-2,2v11.01c0,1.11.89,2,2,2h43.92c1.1,0,2-.9,2-2v-11.01c0-1.11-.89-2-2-2ZM7.28,25.28h-2.5v-2.5h2.5v2.5ZM12.24,25.28h-2.5v-2.5h2.5v2.5ZM17.05,25.28h-2.5v-2.5h2.5v2.5ZM43.54,25.28h-17.28c-.69,0-1.25-.56-1.25-1.25s.56-1.25,1.25-1.25h17.28c.69,0,1.25.56,1.25,1.25s-.56,1.25-1.25,1.25ZM45.95,32.99H2.03c-1.1,0-2,.9-2,2v11.01c0,1.11.89,2,2,2h43.92c1.1,0,2-.9,2-2v-11.01c0-1.11-.89-2-2-2ZM7.31,41.51h-2.5v-2.5h2.5v2.5ZM12.27,41.51h-2.5v-2.5h2.5v2.5ZM17.07,41.51h-2.5v-2.5h2.5v2.5ZM43.57,41.51h-17.28c-.69,0-1.25-.56-1.25-1.25s.56-1.25,1.25-1.25h17.28c.69,0,1.25.56,1.25,1.25s-.56,1.25-1.25,1.25Z"/>
  </g>
</svg>