<?xml version="1.0" encoding="UTF-8"?>
<svg id="Ebene_2" xmlns="http://www.w3.org/2000/svg" viewBox="0 0 48 41.05">
  <defs>
    <style>
      .cls-1 {
        fill: #1e1e1c;
      }
    </style>
  </defs>
  <g id="_x33_219">
    <path class="cls-1" d="M33.75,0c-3.62,0-7.1,1.41-9.75,3.91-2.65-2.5-6.13-3.91-9.75-3.91C6.39,0,0,6.37,0,14.2c0,13.52,22.1,26,23.04,26.52l.6.34.61-.33c.97-.52,23.75-12.99,23.75-26.53,0-7.83-6.39-14.2-14.25-14.2ZM23.66,38.18c-3.52-2.08-21.15-13.07-21.15-23.99C2.51,7.75,7.78,2.5,14.25,2.5c2.98,0,5.86,1.18,8.04,3.26-.4.46-1.13,1.39-1.34,2.26-.16.67.25,1.35.93,1.51.1.02.2.04.3.04.57,0,1.08-.38,1.22-.96.07-.29.56-.97.96-1.39,0,0,0,0,0-.01l.59-.67c2.25-2.57,5.46-4.04,8.8-4.04,6.47,0,11.74,5.25,11.74,11.7,0,10.92-18.24,21.93-21.83,23.99Z"/>
  </g>
</svg>