<?xml version="1.0" encoding="UTF-8"?>
<svg id="Ebene_2" xmlns="http://www.w3.org/2000/svg" viewBox="0 0 40 34.39">
  <defs>
    <style>
      .cls-1 {
        fill: #db0d15;
      }

      .cls-2 {
        fill: #1e1e1c;
      }
    </style>
  </defs>
  <g id="_x33_219">
    <path class="cls-1" d="M40,11.91c0,11.33-18.95,21.74-19.75,22.18l-.54.29-.54-.3c-.78-.44-19.16-10.85-19.16-22.17C0,5.34,5.34,0,11.91,0c3,0,5.89,1.16,8.09,3.23,2.2-2.06,5.09-3.23,8.09-3.23,6.57,0,11.91,5.34,11.91,11.91Z"/>
    <path class="cls-2" d="M28.09,0c-3,0-5.89,1.16-8.09,3.23C17.8,1.16,14.91,0,11.91,0,5.34,0,0,5.34,0,11.91c0,11.32,18.38,21.73,19.16,22.17l.54.3.54-.29c.81-.44,19.75-10.85,19.75-22.18,0-6.57-5.34-11.91-11.91-11.91ZM19.72,31.81c-3-1.79-17.47-10.88-17.47-19.89C2.25,6.58,6.58,2.25,11.91,2.25c2.5,0,4.89,1.01,6.7,2.78-.17.06-.33.14-.46.28-.25.27-1.1,1.23-1.32,2.14-.14.6.23,1.21.83,1.36.09.02.18.03.26.03.51,0,.97-.35,1.09-.86.05-.21.42-.74.77-1.12.09-.09.14-.2.19-.32l.02.02.85-.97c1.85-2.12,4.49-3.34,7.24-3.34,5.33,0,9.66,4.33,9.66,9.66,0,9.01-14.96,18.12-18.03,19.89Z"/>
  </g>
</svg>