<?xml version="1.0" encoding="UTF-8"?>
<svg id="Ebene_2" xmlns="http://www.w3.org/2000/svg" viewBox="0 0 46.22 64">
  <defs>
    <style>
      .cls-1 {
        fill: #1e1e1c;
      }
    </style>
  </defs>
  <g id="_x33_219">
    <path class="cls-1" d="M8.91,42.56c-.44,0-.88-.12-1.29-.36-1.18-.71-1.57-2.25-.85-3.43,1.44-2.39,3.81-2.01,4.94-1.83.57.09,1.06.17,1.56.1.16-.02.57-.08.99-.98.77-1.65.68-4.11.38-5.39-3.41.12-5.24-1.15-6.2-2.34-.81-1-1.12-2.69-1.23-3.93-.42-3.61.72-5.84,2.96-8.67,4.72-5.96,13.41-6.97,19.37-2.24,4.05,3.21,5.96,8.37,4.97,13.45-.26,1.36-1.58,2.24-2.93,1.98-1.36-.26-2.24-1.58-1.98-2.93.63-3.24-.58-6.52-3.17-8.57-1.84-1.46-4.13-2.11-6.46-1.84-2.33.27-4.42,1.43-5.87,3.27-1.78,2.25-2.12,3.14-1.9,5.04.05.51.16,1.11.25,1.41.37.31,1.28.52,2.86.3,1.15-.16,2.28.32,3.07,1.33,1.72,2.21,2.02,7.36.62,10.81-.99,2.44-2.77,3.96-5.02,4.27-1.24.18-2.28,0-3.04-.11-.08-.01-.17-.03-.26-.04-.47.47-1.11.72-1.76.72ZM20.46,0C12.79,0,5.58,3.38.72,9.2l-.09.09c-.92,1.03-.84,2.61.19,3.53,1.03.92,2.61.84,3.53-.19l.14-.16c3.96-4.75,9.77-7.47,15.95-7.47,11.45,0,20.76,9.31,20.76,20.76,0,6.54-3.06,12.58-8.38,16.57l-.21.17c-1.67,1.56-1.95,4.05-2.24,6.68-.58,5.26-1.09,9.8-9.67,9.8-2.09,0-4.09-.66-5.76-1.9-.88-.66-1.65-1.45-2.26-2.36-.78-1.15-2.33-1.45-3.48-.67s-1.45,2.33-.67,3.48c.93,1.38,2.09,2.58,3.42,3.58,2.55,1.89,5.57,2.89,8.75,2.89,13.06,0,14.09-9.27,14.64-14.25.14-1.23.34-3.06.66-3.54,6.49-4.94,10.21-12.38,10.21-20.44C46.22,11.56,34.66,0,20.46,0Z"/>
  </g>
</svg>