<?xml version="1.0" encoding="UTF-8"?>
<svg id="Ebene_2" xmlns="http://www.w3.org/2000/svg" viewBox="0 0 48 41.55">
  <defs>
    <style>
      .cls-1 {
        fill: #db0d15;
      }

      .cls-2 {
        fill: #1e1e1c;
      }
    </style>
  </defs>
  <g id="_x33_219">
    <path class="cls-1" d="M48,14.2c0,13.53-22.78,26-23.75,26.53l-.61.33-.6-.34c-.94-.52-23.04-13-23.04-26.52C0,6.37,6.39,0,14.25,0c3.62,0,7.1,1.41,9.75,3.91,2.65-2.5,6.13-3.91,9.75-3.91,7.86,0,14.25,6.37,14.25,14.2Z"/>
    <path class="cls-2" d="M33.75.5c-3.62,0-7.1,1.41-9.75,3.91-2.65-2.5-6.13-3.91-9.75-3.91C6.39.5,0,6.87,0,14.7c0,13.52,22.1,26,23.04,26.52l.6.34.61-.33c.97-.52,23.75-12.99,23.75-26.53,0-7.83-6.39-14.2-14.25-14.2ZM23.66,38.68c-3.52-2.08-21.15-13.07-21.15-23.99C2.51,8.25,7.78,3,14.25,3c2.98,0,5.86,1.18,8.04,3.26-.4.46-1.13,1.39-1.34,2.26-.16.67.25,1.35.93,1.51.1.02.2.04.3.04.57,0,1.08-.38,1.22-.96.07-.29.56-.97.96-1.39,0,0,0,0,0-.01l.59-.67c2.25-2.57,5.46-4.04,8.8-4.04,6.47,0,11.74,5.25,11.74,11.7,0,10.92-18.24,21.93-21.83,23.99Z"/>
  </g>
</svg>