<?xml version="1.0" encoding="UTF-8"?>
<svg id="Ebene_2" xmlns="http://www.w3.org/2000/svg" viewBox="0 0 28.44 40">
  <defs>
    <style>
      .cls-1 {
        fill: #1e1e1c;
      }
    </style>
  </defs>
  <g id="_x33_219">
    <path class="cls-1" d="M5.77,26.92c-.34,0-.69-.09-1-.29-.93-.57-1.22-1.8-.67-2.75,1.02-1.73,2.7-1.46,3.41-1.34.3.05.56.09.79.06.43-.23.65-1.87.51-2.94-1.97-.02-3.08-.85-3.68-1.62-.45-.57-.73-1.46-.83-2.65-.27-2.36.45-3.8,1.86-5.63,2.97-3.84,8.44-4.49,12.18-1.44,2.55,2.07,3.75,5.39,3.13,8.67-.21,1.09-1.23,1.8-2.29,1.58-1.06-.21-1.75-1.26-1.54-2.35.34-1.8-.32-3.63-1.72-4.77-1-.81-2.23-1.18-3.51-1.02-1.26.15-2.39.79-3.19,1.82-1.03,1.33-1.14,1.76-1.03,2.72.02.2.06.43.09.6.16.06.52.13,1.24.03.85-.12,1.68.24,2.26.99,1.11,1.46,1.32,4.83.43,7.07-.65,1.65-1.84,2.68-3.36,2.9-.77.11-1.43.01-1.89-.06-.34.27-.76.41-1.19.41ZM12.64,0C7.94,0,3.52,2.12.5,5.83c-.72.82-.65,2.09.15,2.83.81.74,2.04.67,2.76-.15l.1-.11c2.27-2.79,5.6-4.39,9.14-4.39,6.56,0,11.9,5.47,11.9,12.19,0,3.84-1.75,7.39-4.8,9.73l-.16.14c-1.12,1.07-1.29,2.68-1.48,4.37-.35,3.23-.6,5.56-5.3,5.56-1.15,0-2.24-.37-3.15-1.07-.48-.37-.9-.81-1.24-1.33-.6-.92-1.82-1.16-2.71-.54-.89.62-1.13,1.86-.52,2.78.59.89,1.31,1.66,2.15,2.3,1.6,1.21,3.49,1.86,5.48,1.86,8.19,0,8.83-5.93,9.18-9.12.07-.63.17-1.56.31-1.91,3.92-3.11,6.16-7.75,6.16-12.77C28.44,7.27,21.35,0,12.64,0Z"/>
  </g>
</svg>