<?xml version="1.0" encoding="UTF-8"?>
<svg id="Ebene_2" xmlns="http://www.w3.org/2000/svg" viewBox="0 0 34.89 48">
  <defs>
    <style>
      .cls-1 {
        fill: #1e1e1c;
      }
    </style>
  </defs>
  <g id="_x33_219">
    <path class="cls-1" d="M6.97,32.19c-.39,0-.79-.1-1.16-.32-1.06-.64-1.41-2.02-.77-3.08,1.2-1.99,3.2-1.67,4.05-1.54.39.06.72.11,1.03.07.12-.02.25-.16.39-.44.49-.98.5-2.51.35-3.46-2.44.04-3.82-.97-4.56-1.89-.66-.82-.91-2.15-1-3.11-.32-2.79.54-4.51,2.26-6.68,1.75-2.21,4.26-3.61,7.07-3.93,2.81-.32,5.57.46,7.78,2.22,3.11,2.46,4.57,6.41,3.81,10.31-.24,1.22-1.41,2.01-2.63,1.78-1.22-.24-2.01-1.42-1.78-2.63.44-2.24-.4-4.51-2.19-5.93-1.27-1.01-2.86-1.46-4.47-1.27-1.61.19-3.06.99-4.06,2.26-1.24,1.57-1.47,2.14-1.32,3.42.03.29.08.62.13.83.21.1.73.22,1.7.08.52-.07,3.12-.21,3.72,4.1.56,3.98-.84,8.28-4.59,8.8-.98.14-1.78,0-2.36-.08h0c-.4.33-.91.5-1.42.5ZM15.49,0C9.72,0,4.29,2.54.57,6.99c-.82.93-.74,2.35.19,3.17s2.35.74,3.17-.19l.11-.12c2.84-3.41,7.02-5.36,11.45-5.36,8.22,0,14.91,6.69,14.91,14.91,0,4.7-2.2,9.03-6.02,11.9l-.19.16c-1.34,1.25-1.55,3.16-1.78,5.18-.43,3.84-.76,6.87-6.73,6.87-1.46,0-2.85-.46-4.01-1.32-.62-.46-1.14-1.01-1.57-1.65-.69-1.03-2.09-1.3-3.12-.6-1.03.69-1.3,2.09-.6,3.12.71,1.06,1.59,1.98,2.62,2.74,1.95,1.45,4.26,2.21,6.69,2.21,9.99,0,10.77-7.07,11.2-10.87.09-.83.23-2.06.37-2.37,4.86-3.72,7.65-9.31,7.65-15.36C34.89,8.7,26.18,0,15.49,0Z"/>
  </g>
</svg>