<?xml version="1.0" encoding="UTF-8"?>
<svg id="Ebene_2" xmlns="http://www.w3.org/2000/svg" viewBox="0 0 40 40">
  <defs>
    <style>
      .cls-1 {
        fill: #1e1e1c;
      }
    </style>
  </defs>
  <g id="_x33_219">
    <path class="cls-1" d="M34.09,10.68c.59,1.67.93,3.46.93,5.33,0,5.02-2.33,9.66-6.39,12.73-.31.35-.45,1.57-.56,2.56-.36,3.25-.97,8.69-8.9,8.69-1.93,0-3.77-.61-5.31-1.75-.81-.6-1.51-1.33-2.08-2.18-.35-.51-.21-1.21.3-1.56.52-.35,1.21-.21,1.56.3.43.63.95,1.18,1.56,1.63,1.15.86,2.53,1.31,3.97,1.31,5.92,0,6.29-3.4,6.66-6.69.19-1.66.34-3.1,1.29-3.98l.09-.08c3.53-2.64,5.55-6.65,5.55-10.98,0-1.22-.18-2.41-.48-3.54l1.8-1.79ZM40,1.59L1.59,40l-1.59-1.59,12.61-12.61s-.04,0-.06,0c-.22.3-.57.47-.93.47-.2,0-.39-.05-.57-.16-.53-.32-.71-1-.39-1.53.75-1.25,1.96-1.06,2.68-.94.38.06.74.12,1.14.06.07,0,.19-.03.34-.11l.49-.49c.08-.13.17-.28.25-.48.55-1.39.36-3.27.09-3.98-2.21.19-3.37-.58-3.95-1.3-.47-.58-.63-1.66-.69-2.26-.25-2.17.41-3.46,1.79-5.2,1.38-1.75,3.37-2.85,5.58-3.11,2.22-.26,4.4.37,6.14,1.75,1.03.82,1.83,1.85,2.36,3l3.38-3.38c-2.49-3.56-6.6-5.89-11.26-5.89-4.09,0-7.94,1.8-10.57,4.95l-.08.09c-.42.46-1.13.5-1.59.08-.46-.42-.5-1.13-.08-1.59C9.77,2.1,14.25,0,19.01,0c5.28,0,9.96,2.57,12.88,6.52L38.41,0l1.59,1.59ZM18.16,20.25l7-7c-.36-1.15-1.04-2.19-2.03-2.97-2.63-2.09-6.47-1.64-8.56.99-1.13,1.43-1.48,2.14-1.32,3.57.04.45.16.98.23,1.13.32.39,1.15.54,2.3.38.44-.06,1.89-.04,2.29,2.85.05.35.07.69.08,1.04Z"/>
  </g>
</svg>