<?xml version="1.0" encoding="UTF-8"?>
<svg id="Ebene_2" xmlns="http://www.w3.org/2000/svg" viewBox="0 0 40 40">
  <defs>
    <style>
      .cls-1 {
        fill: #1e1e1c;
      }
    </style>
  </defs>
  <g id="_x33_219">
    <path class="cls-1" d="M35.02,13.46c.16.9.26,1.82.26,2.77,0,5.02-2.3,9.65-6.31,12.76-.14.35-.24,1.28-.31,1.91-.35,3.18-1.01,9.11-9.4,9.11-2.04,0-3.98-.64-5.62-1.85-.63-.47-1.17-1.03-1.67-1.64l2.84-2.83c.34.48.74.91,1.22,1.26.94.7,2.06,1.07,3.23,1.07,4.81,0,5.07-2.33,5.43-5.55.19-1.7.37-3.3,1.52-4.37l.17-.14c2.84-2.13,4.57-5.25,4.86-8.68l3.81-3.81ZM40,2.83L2.83,39.98l-2.83-2.83,10.73-10.72c-.71-.63-.9-1.69-.39-2.53,1.04-1.73,2.76-1.45,3.5-1.34.26.04.49.07.7.06l.38-.38c.25-.6.36-1.74.25-2.56-2.02-.02-3.15-.85-3.77-1.61-.46-.56-.74-1.45-.85-2.65-.27-2.36.46-3.8,1.9-5.62,3.04-3.84,8.64-4.49,12.48-1.44.73.58,1.36,1.26,1.86,2.01l1.78-1.78c-2.23-2.77-5.64-4.56-9.47-4.56-3.62,0-7.04,1.6-9.36,4.38l-.1.11c-.74.82-2,.89-2.83.15-.82-.74-.89-2-.15-2.82C9.74,2.17,14.27.05,19.09.05s9.34,2.23,12.31,5.72l5.77-5.77,2.83,2.83ZM18.91,18.25l4.93-4.93c-.31-.7-.78-1.33-1.41-1.82-2.11-1.67-5.19-1.31-6.86.79-1.06,1.33-1.17,1.75-1.06,2.72.02.2.06.43.09.6.16.06.54.13,1.27.03.87-.12,1.72.24,2.31.99.32.41.56.97.73,1.61Z"/>
  </g>
</svg>