<?xml version="1.0" encoding="UTF-8"?>
<svg id="Ebene_2" xmlns="http://www.w3.org/2000/svg" viewBox="0 0 11.61 16">
  <defs>
    <style>
      .cls-1 {
        fill: #1e1e1c;
      }
    </style>
  </defs>
  <g id="_x33_219">
    <path class="cls-1" d="M11.61,6.57c0,1.98-.88,3.82-2.43,5.08-.02.13-.05.33-.06.49-.13,1.16-.43,3.86-4.02,3.86-.87,0-1.71-.28-2.41-.8-.37-.27-.69-.61-.94-.98-.39-.57-.24-1.35.34-1.73.57-.39,1.35-.24,1.73.34.1.14.22.27.36.38.26.2.58.3.91.3,1.36,0,1.41-.45,1.54-1.64.07-.67.16-1.42.72-1.95l.1-.09c1.05-.78,1.65-1.97,1.65-3.25,0-2.25-1.83-4.07-4.08-4.07-1.21,0-2.35.53-3.13,1.47l-.98-.78-.92-.84C1.24.86,3.08,0,5.03,0c3.63,0,6.57,2.95,6.57,6.57ZM1.65,10.11c0,.69.56,1.25,1.25,1.25.33,0,.48-.02.72-.06l.24-.04c1.12-.16,1.8-1.26,1.7-2.74-.1-1.39-.83-1.75-1.26-1.85-.02-.08-.03-.17-.03-.23.02-.31.08-.39.16-.5.11-.15.27-.2.38-.21.18-.02.37.03.51.14.23.18.27.45.23.63-.13.68.31,1.33.99,1.47.67.13,1.33-.31,1.47-.99.22-1.16-.21-2.33-1.13-3.07-.67-.53-1.54-.77-2.39-.66-.83.11-1.56.54-2.06,1.2-.28.38-.58.9-.65,1.84-.01.23-.03,1.42.72,2.21.14.14.29.26.45.36-.02,0-.04,0-.06,0-.69,0-1.25.56-1.25,1.25Z"/>
  </g>
</svg>