<?xml version="1.0" encoding="UTF-8"?><svg id="Ebene_2" xmlns="http://www.w3.org/2000/svg" viewBox="0 0 16 16"><defs><style>.cls-1{fill:#1d1d1b;}</style></defs><g id="_x33_219"><path class="cls-1" d="M8,0C3.59,0,0,3.59,0,8s3.59,8,8,8,8-3.59,8-8S12.41,0,8,0ZM8,14.5c-3.58,0-6.5-2.92-6.5-6.5S4.42,1.5,8,1.5s6.5,2.92,6.5,6.5-2.92,6.5-6.5,6.5ZM9.12,10.62c0,.58-.45,1.07-1.14,1.07s-1.14-.48-1.14-1.07.45-1.06,1.14-1.06,1.14.5,1.14,1.06ZM10.8,5.89c0,.76-.4,1.29-1.11,1.78-.65.45-.88.59-.88,1.24v.11h-1.67v-.31c0-.91.35-1.32.92-1.72.44-.31.81-.56.81-.95s-.33-.65-1.1-.65c-.63,0-1.32.19-1.89.45v-1.6c.52-.21,1.36-.4,2.18-.4,1.53,0,2.74.69,2.74,2.02Z"/></g></svg>