<?xml version="1.0" encoding="UTF-8"?><svg id="Ebene_2" xmlns="http://www.w3.org/2000/svg" viewBox="0 0 48 48"><defs><style>.cls-1{fill:#1e1e1c;}</style></defs><g id="_x33_219"><path class="cls-1" d="M24,0C10.77,0,0,10.77,0,24s10.77,24,24,24,24-10.77,24-24S37.23,0,24,0ZM23.96,35.29c-2.21,0-3.65-1.54-3.65-3.4s1.44-3.37,3.65-3.37,3.65,1.58,3.65,3.37-1.44,3.4-3.65,3.4ZM29.43,22.5c-2.07,1.44-2.8,1.89-2.8,3.96v.21h-5.33v-.84c0-2.91,1.12-4.21,2.94-5.47,1.4-.98,2.59-1.79,2.59-3.02s-1.05-2.07-3.51-2.07c-2,0-4.21.6-6.03,1.44v-5.08c1.65-.67,4.35-1.26,6.94-1.26,4.87,0,8.73,2.21,8.73,6.45,0,2.42-1.26,4.1-3.54,5.68Z"/></g></svg>