<?xml version="1.0" encoding="UTF-8"?>
<svg id="Ebene_2" xmlns="http://www.w3.org/2000/svg" viewBox="0 0 48 48">
  <defs>
    <style>
      .cls-1 {
        fill: #1e1e1c;
      }
    </style>
  </defs>
  <g id="_x33_219">
    <path class="cls-1" d="M43.75,11.76h-13.95l-4.34-9.3c-.7-1.49-2.21-2.46-3.85-2.46H4.25C1.91,0,0,1.91,0,4.25v37.01h19.25v-2.5H2.5v-5.07h.03v-16.48c0-1.63,1.32-2.95,2.95-2.95h23.55s14.72,0,14.72,0c.97,0,1.75.79,1.75,1.75v22.75h-15.73v2.5h18.23v-25.25c0-2.34-1.91-4.25-4.25-4.25ZM2.5,12.65V4.25c0-.96.79-1.75,1.75-1.75h17.35c.68,0,1.3.4,1.59,1.01l3.84,8.25H5.48c-1.1,0-2.12.33-2.98.89ZM25.75,23v25h-2.5v-25l-7.42,7.41c-.49.49-1.28.49-1.77,0s-.49-1.28,0-1.77l10.43-10.43,10.43,10.43c.49.49.49,1.28,0,1.77-.24.24-.56.37-.88.37s-.64-.12-.88-.37l-7.42-7.41Z"/>
  </g>
</svg>