<?xml version="1.0" encoding="UTF-8"?>
<svg id="Ebene_2" xmlns="http://www.w3.org/2000/svg" viewBox="0 0 40 40">
  <defs>
    <style>
      .cls-1 {
        fill: #1e1e1c;
      }
    </style>
  </defs>
  <g id="_x33_219">
    <path class="cls-1" d="M36.62,8.75h-11.64l-2.87-6.71c-.53-1.24-1.75-2.05-3.1-2.05H3.38C1.51,0,0,1.51,0,3.38v30.13h16.4v-2.25H2.25v-4.37h.03v-13.57c0-1.28,1.04-2.31,2.31-2.31h19.68s12.35,0,12.35,0c.62,0,1.13.5,1.13,1.13v19.13h-13.1v2.25h15.35V12.13c0-1.86-1.51-3.38-3.38-3.38ZM2.25,9.42V3.38c0-.62.51-1.13,1.13-1.13h15.63c.45,0,.86.27,1.03.68l2.49,5.82H4.59c-.86,0-1.65.25-2.34.67ZM21.63,18.2v21.8h-2.25v-21.8l-6.04,6.04c-.44.44-1.15.44-1.59,0-.44-.44-.44-1.15,0-1.59l8.75-8.75,8.75,8.75c.44.44.44,1.15,0,1.59-.22.22-.51.33-.8.33s-.58-.11-.8-.33l-6.04-6.04Z"/>
  </g>
</svg>