<?xml version="1.0" encoding="UTF-8"?>
<svg id="Ebene_2" xmlns="http://www.w3.org/2000/svg" viewBox="0 0 40 40">
  <defs>
    <style>
      .cls-1 {
        fill: #1e1e1c;
      }
    </style>
  </defs>
  <g id="_x33_219">
    <path class="cls-1" d="M4.59,6.49C2.07,6.49.03,8.54.03,11.06v22.46h-.03V3.38C0,1.51,1.51,0,3.38,0h15.63c1.35,0,2.57.8,3.1,2.05l1.9,4.45H4.59ZM40,33.51h-18.25v6.49h-2.25v-6.49H2.28V11.06c0-1.28,1.04-2.31,2.31-2.31h20.4s11.64.01,11.64.01c1.86,0,3.38,1.51,3.38,3.38v21.38ZM29.38,21.48l-8.75-8.75-8.75,8.75c-.44.44-.44,1.15,0,1.59.44.44,1.15.44,1.59,0l6.04-6.04v16.45h2.25v-16.45l6.04,6.04c.22.22.51.33.8.33s.58-.11.8-.33c.44-.44.44-1.15,0-1.59Z"/>
  </g>
</svg>