<?xml version="1.0" encoding="UTF-8"?><svg id="Ebene_2" xmlns="http://www.w3.org/2000/svg" viewBox="0 0 40 40"><defs><style>.cls-1{fill:#1d1d1b;}</style></defs><g id="_x33_219"><path class="cls-1" d="M20,0C8.97,0,0,8.97,0,20s8.97,20,20,20,20-8.97,20-20S31.03,0,20,0ZM20,37.75c-9.78,0-17.75-7.96-17.75-17.75S10.22,2.25,20,2.25s17.75,7.96,17.75,17.75-7.96,17.75-17.75,17.75ZM22.26,10.81c0,1.22-1.01,2.23-2.26,2.23s-2.26-1.01-2.26-2.23,1.02-2.23,2.26-2.23,2.26,1.01,2.26,2.23ZM18.09,15.6h3.83v14.09h-3.83v-14.09Z"/></g></svg>