<?xml version="1.0" encoding="UTF-8"?><svg id="Ebene_2" xmlns="http://www.w3.org/2000/svg" viewBox="0 0 16 16"><defs><style>.cls-1{fill:#1e1e1c;}</style></defs><g id="_x33_219"><path class="cls-1" d="M10.06,9.04h5.16v5.21c0,.96-.77,1.75-1.71,1.75H2.45c-.94,0-1.71-.78-1.71-1.75v-5.21h5.19v.3c0,.69.56,1.25,1.26,1.25h1.61c.69,0,1.26-.56,1.26-1.25v-.3ZM16,5.33v2.21h-5.94v-1.56h-4.12v1.56H0v-2.21c0-.96.78-1.75,1.75-1.75h2.41v-1.33c0-1.24,1.01-2.25,2.25-2.25h3.65c1.24,0,2.25,1.01,2.25,2.25v1.33h1.96c.96,0,1.75.78,1.75,1.75ZM9.8,2.5h-3.14v1.08h3.14v-1.08ZM7.44,7.48v1.61h1.12v-1.61h-1.12Z"/></g></svg>