<?xml version="1.0" encoding="UTF-8"?><svg id="Ebene_2" xmlns="http://www.w3.org/2000/svg" viewBox="0 0 32 32"><defs><style>.cls-1{fill:#1e1e1c;}</style></defs><g id="_x33_219"><path class="cls-1" d="M14.25,18.5v-4.48h3.5v4.48s-.03.06-.06.06l-3.44-.06ZM19.75,17.35v1.15c0,1.14-.92,2.06-2.06,2.06h-3.38c-1.14,0-2.06-.92-2.06-2.06v-1.15H1.42v11.81c0,1.57,1.24,2.84,2.76,2.84h23.23c1.52,0,2.76-1.28,2.76-2.84v-11.81h-10.41ZM0,15.35v-5.29c0-1.57,1.27-2.84,2.84-2.84h5.98v-3.37c0-2.12,1.72-3.84,3.84-3.84h7.66c2.12,0,3.84,1.72,3.84,3.84v3.37h5c1.57,0,2.84,1.28,2.84,2.84v5.29h-12.25v-3.33h-7.5v3.33H0ZM12.32,7.22h8.34v-3.37c0-.19-.15-.34-.34-.34h-7.66c-.19,0-.34.15-.34.34v3.37Z"/></g></svg>