<?xml version="1.0" encoding="UTF-8"?><svg id="Ebene_2" xmlns="http://www.w3.org/2000/svg" viewBox="0 0 24 24"><defs><style>.cls-1{fill:#1e1e1c;}</style></defs><g id="_x33_219"><path class="cls-1" d="M9.08,11.5v-2.41h5.82v2.41h9.1v-3.71c0-1.26-1.03-2.29-2.3-2.29h-3.47v-2.47c0-1.67-1.37-3.04-3.05-3.04h-5.66c-1.68,0-3.05,1.36-3.05,3.04v2.47H2.3c-1.27,0-2.3,1.03-2.3,2.29v3.71h9.08ZM9.52,3l5.7.04v2.47h-5.73l.03-2.51ZM22.65,13.25v8.46c0,1.26-1,2.29-2.23,2.29H3.26c-1.23,0-2.23-1.03-2.23-2.29v-8.46h8.06v.75c0,.91.74,1.65,1.66,1.65h2.5c.92,0,1.66-.74,1.66-1.65v-.75h7.75ZM10.84,13.91v-3.06h2.31v3.06h-2.31Z"/></g></svg>