<?xml version="1.0" encoding="UTF-8"?><svg id="Ebene_2" xmlns="http://www.w3.org/2000/svg" viewBox="0 0 24 24"><defs><style>.cls-1{fill:#1e1e1c;}</style></defs><g id="_x33_219"><path class="cls-1" d="M24,7.13c0-1.32-1.08-2.4-2.41-2.4h-4.43v-2.32c0-1.32-1.08-2.4-2.4-2.4h-5.59c-1.32,0-2.4,1.08-2.4,2.4v2.32H2.41c-1.33,0-2.41,1.08-2.41,2.4v5.81h1.02v8.66c0,1.32,1.08,2.4,2.4,2.4h17.16c1.32,0,2.4-1.08,2.4-2.4v-8.66h1.02v-5.81ZM8.53,2.4c0-.36.29-.65.65-.65h5.59c.36,0,.65.29.65.65v2.32h-6.89v-2.32ZM2.41,6.47h19.19c.36,0,.66.29.66.65v4.05h-7.4v-1.53h-5.76v1.53H1.75v-4.05c0-.36.29-.65.66-.65ZM13.11,11.4v2.56h-2.26v-2.56h2.26ZM20.58,22.25H3.42c-.36,0-.65-.29-.65-.65v-8.67h6.32v1.14c0,.91.74,1.65,1.65,1.65h2.47c.91,0,1.65-.74,1.65-1.65v-1.14h6.38v8.67c0,.36-.29.65-.65.65Z"/></g></svg>