<?xml version="1.0" encoding="UTF-8"?>
<svg id="Ebene_2" xmlns="http://www.w3.org/2000/svg" viewBox="0 0 40 19.75">
  <defs>
    <style>
      .cls-1 {
        fill: #1e1e1c;
      }
    </style>
  </defs>
  <g id="_x33_219">
    <path class="cls-1" d="M18.15,4.38c-.07-.11-.15-.21-.23-.31-.08-.11-.17-.23-.26-.34-.22-.28-.45-.54-.7-.79-.05-.05-.11-.1-.16-.15-.24-.23-.49-.45-.75-.65-.09-.07-.17-.13-.26-.2-.25-.19-.51-.36-.78-.52-.06-.04-.13-.08-.19-.12-.69-.39-1.43-.7-2.21-.92-.08-.02-.17-.04-.25-.06-.31-.08-.62-.14-.93-.19-.1-.02-.2-.03-.29-.04-.4-.05-.79-.08-1.2-.08C4.45,0,0,4.43,0,9.88s4.45,9.88,9.92,9.88c.41,0,.81-.03,1.2-.08.1-.01.2-.03.29-.04.32-.05.63-.11.93-.19.08-.02.17-.04.25-.06.78-.22,1.52-.53,2.21-.92.07-.04.13-.08.2-.12.27-.16.53-.33.78-.52.09-.07.18-.13.27-.2.26-.2.51-.42.74-.64.06-.06.12-.12.18-.18.24-.24.47-.5.69-.77.09-.11.18-.23.26-.35.07-.1.16-.2.23-.3h2.19l2.87.96,2.9-2.14,3.26,2.49,2.88-2.31h3.63l4.12-10.01h-21.85ZM9.14,13.42c-1.94,0-3.51-1.57-3.51-3.5s1.58-3.5,3.51-3.5,3.51,1.57,3.51,3.5-1.58,3.5-3.51,3.5ZM32.59,10.09h-10.64c-.62,0-1.13-.5-1.13-1.12s.51-1.12,1.13-1.12h10.64c.62,0,1.13.5,1.13,1.12s-.51,1.12-1.13,1.12Z"/>
  </g>
</svg>