<?xml version="1.0" encoding="UTF-8"?>
<svg id="Ebene_2" xmlns="http://www.w3.org/2000/svg" viewBox="0 0 24 12.25">
  <defs>
    <style>
      .cls-1 {
        fill: #1e1e1c;
      }
    </style>
  </defs>
  <g id="_x33_219">
    <path class="cls-1" d="M11.14,2.62c-.67-.96-1.6-1.7-2.67-2.14-.09-.04-.18-.08-.27-.11-.14-.05-.28-.09-.42-.13-.15-.04-.31-.08-.46-.11-.11-.02-.22-.05-.33-.06-.28-.04-.56-.07-.85-.07C2.75,0,0,2.75,0,6.12s2.75,6.12,6.13,6.12c.29,0,.57-.03.85-.07.1-.01.21-.04.31-.06.17-.03.33-.07.49-.12.13-.04.25-.08.38-.12.12-.04.24-.09.35-.14,1.05-.45,1.96-1.18,2.63-2.12h.78l1.79.6,1.7-1.25,1.95,1.5,1.79-1.44h2.23l2.63-6.4h-12.86ZM20.2,7.28h-1.68l-1.2.96-1.91-1.46-2.02,1.5-1.06-.35h-.41c-.02-.35-.23-.66-.57-.79-.45-.17-.96.06-1.13.52-.05.14-.12.27-.19.41l-.15.25c-.29.49-.65.91-1.07,1.24-.03.02-.06.05-.09.07-.09.07-.19.13-.29.19-.09.06-.18.11-.28.16-.07.04-.14.07-.22.11-.13.06-.26.11-.39.16-.06.02-.12.04-.18.06-.15.05-.3.08-.46.11-.05,0-.1.02-.16.03-.21.03-.42.05-.64.05-2.41,0-4.38-1.96-4.38-4.38S3.71,1.75,6.13,1.75c.22,0,.43.02.64.05.06,0,.12.03.18.04.14.03.29.06.43.1.08.02.15.05.22.08.11.04.23.09.34.14.09.04.18.09.27.13.07.04.14.08.21.12.59.37,1.1.89,1.48,1.53l.16.27c.07.15.15.3.2.45.16.46.67.7,1.12.53.36-.13.58-.47.58-.83h9.45l-1.19,2.9ZM5.56,4.15c-1.1,0-2,.9-2,2s.9,2,2,2,2-.9,2-2-.9-2-2-2ZM5.56,6.65c-.28,0-.5-.22-.5-.5s.22-.5.5-.5.5.22.5.5-.22.5-.5.5Z"/>
  </g>
</svg>