<?xml version="1.0" encoding="UTF-8"?>
<svg id="Ebene_2" xmlns="http://www.w3.org/2000/svg" viewBox="0 0 64 40.75">
  <defs>
    <style>
      .cls-1 {
        fill: #1e1e1c;
      }
    </style>
  </defs>
  <g id="_x33_219">
    <path class="cls-1" d="M60.12,0H3.88C1.74,0,0,1.74,0,3.88v33c0,2.14,1.74,3.88,3.88,3.88h56.25c2.14,0,3.88-1.74,3.88-3.88V3.88c0-2.14-1.74-3.88-3.88-3.88ZM42.22,6.63h2.75v2.75h-2.75v-2.75ZM42.22,12.81h2.75v2.75h-2.75v-2.75ZM42.22,18.99h2.75v2.75h-2.75v-2.75ZM42.22,25.17h2.75v2.75h-2.75v-2.75ZM36.44,6.63h2.75v2.75h-2.75v-2.75ZM36.44,12.81h2.75v2.75h-2.75v-2.75ZM36.44,18.99h2.75v2.75h-2.75v-2.75ZM36.44,25.17h2.75v2.75h-2.75v-2.75ZM30.66,6.63h2.75v2.75h-2.75v-2.75ZM30.66,12.81h2.75v2.75h-2.75v-2.75ZM30.66,18.99h2.75v2.75h-2.75v-2.75ZM30.66,25.17h2.75v2.75h-2.75v-2.75ZM24.88,6.63h2.75v2.75h-2.75v-2.75ZM24.88,12.81h2.75v2.75h-2.75v-2.75ZM24.88,18.99h2.75v2.75h-2.75v-2.75ZM24.88,25.17h2.75v2.75h-2.75v-2.75ZM19.09,6.63h2.75v2.75h-2.75v-2.75ZM19.09,12.81h2.75v2.75h-2.75v-2.75ZM19.09,18.99h2.75v2.75h-2.75v-2.75ZM19.09,25.17h2.75v2.75h-2.75v-2.75ZM13.31,6.63h2.75v2.75h-2.75v-2.75ZM13.31,12.81h2.75v2.75h-2.75v-2.75ZM13.31,18.99h2.75v2.75h-2.75v-2.75ZM10.28,34.1h-2.75v-2.75h2.75v2.75ZM10.28,27.92h-2.75v-2.75h2.75v2.75ZM10.28,21.74h-2.75v-2.75h2.75v2.75ZM10.28,15.56h-2.75v-2.75h2.75v2.75ZM10.28,9.38h-2.75v-2.75h2.75v2.75ZM13.31,25.17h2.75v2.75h-2.75v-2.75ZM49.66,34.1H14.4v-2.75h35.26v2.75ZM50.75,27.92h-2.75v-2.75h2.75v2.75ZM50.75,21.74h-2.75v-2.75h2.75v2.75ZM50.75,15.56h-2.75v-2.75h2.75v2.75ZM50.75,9.38h-2.75v-2.75h2.75v2.75ZM56.53,34.1h-2.75v-2.75h2.75v2.75ZM56.53,27.92h-2.75v-2.75h2.75v2.75ZM56.53,21.74h-2.75v-2.75h2.75v2.75ZM56.53,15.56h-2.75v-2.75h2.75v2.75ZM56.53,9.38h-2.75v-2.75h2.75v2.75Z"/>
  </g>
</svg>