<?xml version="1.0" encoding="UTF-8"?>
<svg id="Ebene_2" xmlns="http://www.w3.org/2000/svg" viewBox="0 0 32 20.63">
  <defs>
    <style>
      .cls-1 {
        fill: #1e1e1c;
      }
    </style>
  </defs>
  <g id="_x33_219">
    <path class="cls-1" d="M29.5,0H2.5C1.12,0,0,1.12,0,2.5v15.63c0,1.38,1.12,2.5,2.5,2.5h27c1.38,0,2.5-1.12,2.5-2.5V2.5c0-1.38-1.12-2.5-2.5-2.5ZM30,18.13c0,.28-.22.5-.5.5H2.5c-.28,0-.5-.22-.5-.5V2.5c0-.28.22-.5.5-.5h27c.28,0,.5.22.5.5v15.63ZM7.79,15.37h16.45v2H7.79v-2ZM4.18,7.78h2v2h-2v-2ZM9.79,9.78h-2v-2h2v2ZM13.4,9.78h-2v-2h2v2ZM22.24,7.78h2v2h-2v-2ZM25.85,7.78h2v2h-2v-2ZM4.18,11.57h2v2h-2v-2ZM9.79,13.57h-2v-2h2v2ZM13.4,13.57h-2v-2h2v2ZM17.02,9.78h-2v-2h2v2ZM17.02,13.57h-2v-2h2v2ZM20.63,9.78h-2v-2h2v2ZM4.18,3.98h2v2h-2v-2ZM9.79,5.98h-2v-2h2v2ZM13.4,5.98h-2v-2h2v2ZM22.24,3.98h2v2h-2v-2ZM25.85,3.98h2v2h-2v-2ZM17.02,5.98h-2v-2h2v2ZM20.63,5.98h-2v-2h2v2ZM20.63,13.57h-2v-2h2v2ZM22.24,11.57h2v2h-2v-2ZM25.85,11.57h2v2h-2v-2ZM4.18,15.37h2v2h-2v-2ZM25.85,15.37h2v2h-2v-2Z"/>
  </g>
</svg>