<?xml version="1.0" encoding="UTF-8"?>
<svg id="Ebene_2" xmlns="http://www.w3.org/2000/svg" viewBox="0 0 48 30.74">
  <defs>
    <style>
      .cls-1 {
        fill: #1e1e1c;
      }
    </style>
  </defs>
  <g id="_x33_219">
    <path class="cls-1" d="M44.75,0H3.25C1.46,0,0,1.46,0,3.25v24.24c0,1.79,1.46,3.25,3.25,3.25h41.5c1.79,0,3.25-1.46,3.25-3.25V3.25c0-1.79-1.46-3.25-3.25-3.25ZM34.52,4.93h2.5v2.5h-2.5v-2.5ZM34.52,9.52h2.5v2.5h-2.5v-2.5ZM34.52,14.12h2.5v2.5h-2.5v-2.5ZM34.52,18.71h2.5v2.5h-2.5v-2.5ZM29.82,4.93h2.5v2.5h-2.5v-2.5ZM29.82,9.52h2.5v2.5h-2.5v-2.5ZM29.82,14.12h2.5v2.5h-2.5v-2.5ZM29.82,18.71h2.5v2.5h-2.5v-2.5ZM25.12,4.93h2.5v2.5h-2.5v-2.5ZM25.12,9.52h2.5v2.5h-2.5v-2.5ZM25.12,14.12h2.5v2.5h-2.5v-2.5ZM25.12,18.71h2.5v2.5h-2.5v-2.5ZM20.43,4.93h2.5v2.5h-2.5v-2.5ZM20.43,9.52h2.5v2.5h-2.5v-2.5ZM20.43,14.12h2.5v2.5h-2.5v-2.5ZM20.43,18.71h2.5v2.5h-2.5v-2.5ZM15.73,4.93h2.5v2.5h-2.5v-2.5ZM15.73,9.52h2.5v2.5h-2.5v-2.5ZM15.73,14.12h2.5v2.5h-2.5v-2.5ZM15.73,18.71h2.5v2.5h-2.5v-2.5ZM11.03,4.93h2.5v2.5h-2.5v-2.5ZM11.03,9.52h2.5v2.5h-2.5v-2.5ZM11.03,14.12h2.5v2.5h-2.5v-2.5ZM11.03,18.71h2.5v2.5h-2.5v-2.5ZM8.84,25.81h-2.5v-2.5h2.5v2.5ZM8.84,21.21h-2.5v-2.5h2.5v2.5ZM8.84,16.62h-2.5v-2.5h2.5v2.5ZM8.84,12.02h-2.5v-2.5h2.5v2.5ZM8.84,7.43h-2.5v-2.5h2.5v2.5ZM37.12,25.81H10.93v-2.5h26.19v2.5ZM41.71,25.81h-2.5v-2.5h2.5v2.5ZM41.71,21.21h-2.5v-2.5h2.5v2.5ZM41.71,16.62h-2.5v-2.5h2.5v2.5ZM41.71,12.02h-2.5v-2.5h2.5v2.5ZM41.71,7.43h-2.5v-2.5h2.5v2.5Z"/>
  </g>
</svg>