<?xml version="1.0" encoding="UTF-8"?>
<svg id="Ebene_2" xmlns="http://www.w3.org/2000/svg" viewBox="0 0 16 10.5">
  <defs>
    <style>
      .cls-1 {
        fill: #1e1e1c;
      }
    </style>
  </defs>
  <g id="_x33_219">
    <path class="cls-1" d="M14.75,0H1.25C.56,0,0,.56,0,1.25v8c0,.69.56,1.25,1.25,1.25h13.5c.69,0,1.25-.56,1.25-1.25V1.25c0-.69-.56-1.25-1.25-1.25ZM14.5,9H1.5V1.5h13v7.5ZM11.38,8.26h-6.74v-1.5h6.74v1.5ZM3.52,3.74h-1.5v-1.5h1.5v1.5ZM6.14,3.74h-1.5v-1.5h1.5v1.5ZM8.76,3.74h-1.5v-1.5h1.5v1.5ZM11.38,3.74h-1.5v-1.5h1.5v1.5ZM14,3.74h-1.5v-1.5h1.5v1.5ZM3.52,5.97h-1.5v-1.5h1.5v1.5ZM6.14,5.97h-1.5v-1.5h1.5v1.5ZM8.76,5.97h-1.5v-1.5h1.5v1.5ZM11.38,5.97h-1.5v-1.5h1.5v1.5ZM14,5.97h-1.5v-1.5h1.5v1.5ZM3.52,8.26h-1.5v-1.5h1.5v1.5ZM14,8.26h-1.5v-1.5h1.5v1.5Z"/>
  </g>
</svg>