<?xml version="1.0" encoding="UTF-8"?>
<svg id="Ebene_2" xmlns="http://www.w3.org/2000/svg" viewBox="0 0 40 25.67">
  <defs>
    <style>
      .cls-1 {
        fill: #1e1e1c;
      }
    </style>
  </defs>
  <g id="_x33_219">
    <path class="cls-1" d="M37.87,0H2.13C.95,0,0,.95,0,2.12v21.42c0,1.17.95,2.12,2.13,2.12h35.75c1.17,0,2.13-.95,2.13-2.12V2.12c0-1.17-.95-2.12-2.13-2.12ZM24.74,5h2.25v2.25h-2.25v-2.25ZM24.74,9.78h2.25v2.25h-2.25v-2.25ZM24.74,14.55h2.25v2.25h-2.25v-2.25ZM20.84,5h2.25v2.25h-2.25v-2.25ZM20.84,9.78h2.25v2.25h-2.25v-2.25ZM20.84,14.55h2.25v2.25h-2.25v-2.25ZM16.95,5h2.25v2.25h-2.25v-2.25ZM16.95,9.78h2.25v2.25h-2.25v-2.25ZM16.95,14.55h2.25v2.25h-2.25v-2.25ZM13.05,5h2.25v2.25h-2.25v-2.25ZM13.05,9.78h2.25v2.25h-2.25v-2.25ZM13.05,14.55h2.25v2.25h-2.25v-2.25ZM9.16,5h2.25v2.25h-2.25v-2.25ZM9.16,9.78h2.25v2.25h-2.25v-2.25ZM9.16,14.55h2.25v2.25h-2.25v-2.25ZM7.51,21.58h-2.25v-2.25h2.25v2.25ZM7.51,16.8h-2.25v-2.25h2.25v2.25ZM7.51,12.03h-2.25v-2.25h2.25v2.25ZM7.51,7.25h-2.25v-2.25h2.25v2.25ZM30.89,21.58H9.16v-2.25h21.73v2.25ZM30.89,16.8h-2.25v-2.25h2.25v2.25ZM30.89,12.03h-2.25v-2.25h2.25v2.25ZM30.89,7.25h-2.25v-2.25h2.25v2.25ZM34.78,21.58h-2.25v-2.25h2.25v2.25ZM34.78,16.8h-2.25v-2.25h2.25v2.25ZM34.78,12.03h-2.25v-2.25h2.25v2.25ZM34.78,7.25h-2.25v-2.25h2.25v2.25Z"/>
  </g>
</svg>