<?xml version="1.0" encoding="UTF-8"?>
<svg id="Ebene_2" xmlns="http://www.w3.org/2000/svg" viewBox="0 0 40 25.67">
  <defs>
    <style>
      .cls-1 {
        fill: #1e1e1c;
      }
    </style>
  </defs>
  <g id="_x33_219">
    <path class="cls-1" d="M37.87,0H2.13C.95,0,0,.95,0,2.12v21.42c0,1.17.95,2.12,2.13,2.12h35.75c1.17,0,2.13-.95,2.13-2.12V2.12c0-1.17-.95-2.12-2.13-2.12ZM37.75,23.42H2.25V2.25h35.5v21.17ZM30.89,21.58H9.15v-2.25h21.73v2.25ZM7.51,12.03h-2.25v-2.25h2.25v2.25ZM11.41,12.03h-2.25v-2.25h2.25v2.25ZM15.3,12.03h-2.25v-2.25h2.25v2.25ZM30.89,12.03h-2.25v-2.25h2.25v2.25ZM34.78,12.03h-2.25v-2.25h2.25v2.25ZM7.51,16.8h-2.25v-2.25h2.25v2.25ZM11.41,16.8h-2.25v-2.25h2.25v2.25ZM15.3,16.8h-2.25v-2.25h2.25v2.25ZM19.2,12.03h-2.25v-2.25h2.25v2.25ZM19.2,16.8h-2.25v-2.25h2.25v2.25ZM23.09,12.03h-2.25v-2.25h2.25v2.25ZM7.51,7.25h-2.25v-2.25h2.25v2.25ZM11.41,7.25h-2.25v-2.25h2.25v2.25ZM15.3,7.25h-2.25v-2.25h2.25v2.25ZM30.89,7.25h-2.25v-2.25h2.25v2.25ZM34.78,7.25h-2.25v-2.25h2.25v2.25ZM19.2,7.25h-2.25v-2.25h2.25v2.25ZM23.09,7.25h-2.25v-2.25h2.25v2.25ZM23.09,16.8h-2.25v-2.25h2.25v2.25ZM26.99,12.03h-2.25v-2.25h2.25v2.25ZM26.99,7.25h-2.25v-2.25h2.25v2.25ZM26.99,16.8h-2.25v-2.25h2.25v2.25ZM30.89,16.8h-2.25v-2.25h2.25v2.25ZM34.78,16.8h-2.25v-2.25h2.25v2.25ZM7.51,21.58h-2.25v-2.25h2.25v2.25ZM34.78,21.58h-2.25v-2.25h2.25v2.25Z"/>
  </g>
</svg>