<?xml version="1.0" encoding="UTF-8"?><svg id="Ebene_2" xmlns="http://www.w3.org/2000/svg" viewBox="0 0 16 16"><defs><style>.cls-1{fill:#1e1e1c;}</style></defs><g id="_x33_219"><path class="cls-1" d="M8.77,0C4.97,0,1.85,2.95,1.56,6.68.64,7.56.08,8.71.08,9.98c0,.82.24,1.63.7,2.35l-.78,3.67,3.34-1.55c.82.35,1.72.53,2.63.53s1.82-.19,2.61-.53c.06,0,.12.01.18.01,3.99,0,7.23-3.24,7.23-7.23S12.76,0,8.77,0ZM14.45,6.48h-2.32c-.03-.65-.1-1.29-.2-1.9h1.92c.31.58.51,1.22.6,1.9ZM12.71,3.08h-1.14c-.12-.38-.25-.73-.4-1.05.57.27,1.09.62,1.55,1.05ZM8.77,1.54c.37,0,.84.56,1.21,1.55h-2.43c.38-.98.84-1.55,1.21-1.55ZM10.39,4.58c.11.57.19,1.21.23,1.9h-.45c-.83-.72-1.9-1.22-3.11-1.42.02-.17.05-.33.08-.48h3.25ZM6.37,2.03c-.15.32-.29.67-.4,1.05h-1.14c.45-.43.97-.79,1.55-1.05ZM3.69,4.58h1.92c-.02.13-.03.28-.05.41-.81.05-1.57.23-2.25.53.1-.33.23-.64.39-.94ZM3.67,12.95l-.32-.16-1.26.58.29-1.37-.2-.27c-.4-.54-.6-1.13-.6-1.75,0-1.93,1.97-3.5,4.39-3.5s4.39,1.57,4.39,3.5-1.97,3.5-4.39,3.5c-.81,0-1.6-.18-2.3-.53ZM11.17,12.43c.05-.12.1-.25.15-.37.09-.17.18-.35.25-.54h.99c-.41.37-.88.67-1.39.91ZM13.77,10.02h-1.87c.12-.65.2-1.34.23-2.04h2.32c-.1.73-.33,1.42-.67,2.04Z"/></g></svg>