<?xml version="1.0" encoding="UTF-8"?><svg id="Ebene_2" xmlns="http://www.w3.org/2000/svg" viewBox="0 0 48 48"><defs><style>.cls-1{fill:#1e1e1c;}</style></defs><g id="_x33_219"><path class="cls-1" d="M26.46,0C14.65,0,5.04,9.59,4.93,21.42,1.89,23.99,0,27.54,0,31.45c0,2.44.75,4.84,2.18,6.97L.15,48l8.7-4.05c2.46,1.12,5.21,1.71,8,1.71,3.5,0,6.74-.9,9.44-2.45.06,0,.12,0,.18,0,11.87,0,21.54-9.69,21.54-21.61S38.34,0,26.46,0ZM43.01,12.18c1.39,2.44,2.26,5.22,2.46,8.17h-9.55c-.07-2.95-.37-5.7-.88-8.17h7.97ZM41.32,9.68h-6.88c-.75-2.66-1.76-4.86-2.96-6.49,3.93,1.08,7.36,3.38,9.85,6.49ZM27.33,20.36c-2.18-1.47-4.79-2.48-7.65-2.89.16-1.9.41-3.69.77-5.28h12.03c.53,2.38.86,5.15.94,8.17h-6.08ZM33.42,22.86c-.04,1.68-.17,3.27-.37,4.76-.58-1.75-1.55-3.36-2.83-4.76h3.19ZM26.46,2.62c1.92,0,3.97,2.65,5.35,7.07h-10.69c1.38-4.41,3.42-7.07,5.35-7.07ZM21.46,3.19c-1.2,1.63-2.21,3.83-2.96,6.49h-6.88c2.48-3.11,5.91-5.41,9.85-6.49ZM9.92,12.18h7.97c-.32,1.58-.56,3.29-.7,5.08-.12,0-.23-.01-.34-.01-3.44,0-6.64.88-9.31,2.38.28-2.68,1.11-5.2,2.39-7.44ZM9.41,41.44l-.54-.27-5.25,2.45,1.22-5.76-.33-.45c-1.32-1.81-2.02-3.87-2.02-5.96,0-6.45,6.44-11.7,14.35-11.7s14.35,5.25,14.35,11.7-6.44,11.7-14.35,11.7c-2.61,0-5.18-.59-7.44-1.71ZM31.47,40.02c1.13-1.54,2.1-3.59,2.84-6.05h6.65c-2.45,2.89-5.74,5.02-9.48,6.05ZM42.74,31.47h-7.8c.56-2.58.89-5.49.97-8.62h9.55c-.21,3.14-1.18,6.07-2.72,8.62Z"/></g></svg>