<?xml version="1.0" encoding="UTF-8"?><svg id="Ebene_2" xmlns="http://www.w3.org/2000/svg" viewBox="0 0 40 40"><defs><style>.cls-1{fill:#1e1e1c;}</style></defs><g id="_x33_219"><path class="cls-1" d="M16.41,8.05C17.54,3.66,19.35.75,21.15.04c.28-.01.55-.04.84-.04s.56.03.84.04c1.8.7,3.61,3.61,4.75,8.01h-11.17ZM37.02,8.05c-2.37-3.54-5.95-6.19-10.15-7.37,1.29,1.81,2.34,4.32,3.06,7.37h7.09ZM30.32,26.17h7.79c1.08-2.13,1.74-4.49,1.89-6.99h-9.02c-.05,2.49-.28,4.85-.66,6.99ZM17.11.69c-4.2,1.18-7.78,3.83-10.15,7.37h7.09c.72-3.04,1.77-5.56,3.06-7.37ZM30.98,16.93h9.02c-.15-2.36-.75-4.59-1.72-6.62h-7.91c.35,2.04.55,4.27.61,6.62ZM13.6,10.3h-7.91c-1.12,2.35-1.77,4.96-1.77,7.74,2.55-1.65,5.7-2.66,9.14-2.74.09-1.75.28-3.43.54-4.99ZM28.35,23.99c.2-1.5.34-3.11.38-4.81h-4.02c1.6,1.35,2.84,2.99,3.64,4.81ZM29.02,31.12c-.36,1.53-1.05,2.96-1.98,4.25,3.98-1.16,7.39-3.64,9.72-6.94h-6.93c-.24.96-.51,1.85-.81,2.69ZM26.75,26.17h0s0,0,0,0c-.1-.36-.22-.72-.36-1.07,0-.02-.02-.04-.03-.06-.14-.33-.29-.65-.46-.97-.01-.02-.03-.05-.04-.07-.17-.31-.36-.61-.57-.91-.02-.02-.03-.04-.05-.06-.21-.3-.44-.58-.68-.86-.01-.02-.03-.03-.04-.05-.25-.28-.52-.56-.8-.82,0,0-.02-.01-.02-.02-.29-.27-.6-.52-.92-.77,0,0,0,0,0,0-.65-.5-1.37-.94-2.13-1.33,0,0,0,0,0,0h0c-2.07-1.04-4.49-1.65-7.1-1.65s-5.03.61-7.1,1.65h0s0,0,0,0c-.41.21-.81.43-1.19.67-.01,0-.02.01-.03.02-3.17,2.02-5.22,5.14-5.22,8.66,0,1.96.66,3.9,1.91,5.6l.3.41-1.16,5.46,4.99-2.32.48.24c2.13,1.05,4.55,1.61,7.01,1.61,7.46,0,13.54-4.93,13.54-11,0-.81-.12-1.6-.32-2.36ZM28.07,10.3h-12.16c-.29,1.56-.49,3.25-.59,5.06,2.1.2,4.07.74,5.84,1.56h7.58c-.06-2.4-.29-4.63-.66-6.62Z"/></g></svg>