<?xml version="1.0" encoding="UTF-8"?><svg id="Ebene_2" xmlns="http://www.w3.org/2000/svg" viewBox="0 0 24 24"><defs><style>.cls-1{fill:#1e1e1c;}</style></defs><g id="_x33_219"><path class="cls-1" d="M16.46,4.75h-6.61C10.46,2.39,11.38.69,12.32.04c.28-.02.55-.04.84-.04s.56.02.84.04c.95.65,1.86,2.34,2.47,4.71ZM22.15,4.75c-1.3-1.9-3.2-3.37-5.42-4.14.65,1.1,1.18,2.5,1.56,4.14h3.86ZM9.58.61c-2.22.77-4.11,2.24-5.42,4.14h3.86c.38-1.64.91-3.04,1.56-4.14ZM18.92,9.99h5.08c-.1-1.23-.4-2.4-.88-3.49h-4.5c.17,1.09.27,2.26.3,3.49ZM18.59,15.45h4.43c.53-1.14.88-2.39.98-3.7h-5.08c-.04,1.31-.15,2.55-.34,3.7ZM9.48,6.51c-.12.69-.19,1.44-.25,2.21,1.62.13,3.12.58,4.43,1.28h3.51c-.04-1.24-.15-2.41-.33-3.49h-7.35ZM7.47,8.71c.05-.76.12-1.5.23-2.2H3.2c-.48,1.08-.78,2.26-.88,3.49h.61c1.33-.71,2.88-1.17,4.54-1.28ZM17.27,20.91c1.9-.78,3.53-2.07,4.72-3.71h-3.65c-.01,1.33-.4,2.59-1.07,3.71ZM17.08,13.04c.03-.43.07-.85.09-1.3h-1.13c.4.4.74.84,1.05,1.3ZM13.21,11.75s0,0,0,0h0c-1.38-.82-3.08-1.32-4.92-1.32C3.72,10.43,0,13.43,0,17.13c0,1.19.4,2.37,1.16,3.4l.23.32-.67,3.15,2.89-1.34.38.19c1.31.65,2.8.99,4.31.99,4.57,0,8.29-3.01,8.29-6.7,0-2.21-1.33-4.16-3.38-5.39Z"/></g></svg>