<?xml version="1.0" encoding="UTF-8"?><svg id="Ebene_2" xmlns="http://www.w3.org/2000/svg" viewBox="0 0 16 16"><defs><style>.cls-1{fill:#1e1e1c;}</style></defs><g id="_x33_219"><path class="cls-1" d="M14.72,3.03h-2.41c-.24-.99-.56-1.89-.97-2.63,1.37.52,2.55,1.44,3.38,2.63ZM12.76,6.44h3.24c-.07-.67-.23-1.31-.47-1.91h-2.94c.09.63.15,1.27.17,1.91ZM8.79,0c-.64,0-1.45,1.11-1.97,3.03h3.95c-.52-1.92-1.34-3.03-1.97-3.03ZM6.25.4c-1.37.52-2.55,1.44-3.38,2.63h2.41c.24-.99.56-1.89.97-2.63ZM12.57,10h2.91c.27-.64.45-1.33.52-2.05h-3.24c-.03.69-.09,1.38-.19,2.05ZM11.26,6.44c-.03-.68-.09-1.32-.18-1.91h-4.57c-.03.18-.05.36-.07.55,1.51.11,2.88.6,3.99,1.36h.83ZM5,4.53h-2.94c-.21.52-.34,1.07-.42,1.65.96-.57,2.09-.95,3.31-1.08.02-.19.03-.38.05-.57ZM12.77,13.24c.71-.47,1.34-1.05,1.85-1.73h-1.48c-.03.6-.15,1.19-.37,1.73ZM5.83,6.56c-1.61,0-3.07.53-4.13,1.39h-.11s.01.06.02.09c-.99.84-1.6,1.98-1.6,3.23,0,.83.28,1.65.81,2.38l.2.27-.44,2.08,1.9-.89.32.16c.92.46,1.97.7,3.03.7,3.21,0,5.82-2.11,5.82-4.71s-2.61-4.71-5.82-4.71Z"/></g></svg>