<?xml version="1.0" encoding="UTF-8"?><svg id="Ebene_2" xmlns="http://www.w3.org/2000/svg" viewBox="0 0 40 40"><defs><style>.cls-1{fill:#1e1e1c;}</style></defs><g id="_x33_219"><path class="cls-1" d="M21.99,0C12.15,0,4.14,7.95,4,17.78c-2.47,2.15-4,5.07-4,8.29,0,2.04.62,4.04,1.81,5.82L.09,40l7.38-3.43c2.06.93,4.35,1.42,6.67,1.42,2.82,0,5.44-.71,7.65-1.91.07,0,.13,0,.2,0,9.93,0,18.01-8.09,18.01-18.04S31.92,0,21.99,0ZM35.71,10.3c1.12,1.98,1.81,4.23,1.98,6.62h-7.75c-.06-2.38-.31-4.61-.71-6.62h6.48ZM34.18,8.05h-5.49c-.6-2.08-1.39-3.84-2.32-5.17,3.1.9,5.82,2.72,7.82,5.17ZM23.19,16.92c-1.89-1.33-4.2-2.24-6.74-2.6.13-1.44.33-2.8.6-4.02h9.89c.42,1.94.7,4.17.76,6.62h-4.51ZM27.7,19.17c-.03,1.05-.1,2.06-.2,3.02-.45-1.09-1.07-2.1-1.85-3.02h2.05ZM21.99,2.35c1.56,0,3.21,2.14,4.34,5.7h-8.68c1.13-3.56,2.78-5.7,4.34-5.7ZM17.62,2.88c-.93,1.33-1.72,3.08-2.32,5.17h-5.5c2-2.44,4.71-4.27,7.82-5.17ZM8.27,10.3h6.48c-.24,1.2-.41,2.51-.53,3.85-.03,0-.05,0-.08,0-2.86,0-5.52.73-7.75,1.96.26-2.09.89-4.06,1.88-5.81ZM7.97,34.32l-.48-.24-4.26,1.98.99-4.67-.3-.41c-1.09-1.5-1.67-3.2-1.67-4.92,0-5.33,5.34-9.67,11.89-9.67s11.89,4.34,11.89,9.67-5.34,9.67-11.89,9.67c-2.16,0-4.3-.49-6.17-1.42ZM26.37,33.2c.88-1.25,1.63-2.87,2.21-4.8h5.28c-1.96,2.25-4.55,3.94-7.49,4.8ZM35.49,26.15h-6.34c.45-2.1.73-4.46.79-6.99h7.75c-.18,2.54-.96,4.92-2.21,6.99Z"/></g></svg>