<?xml version="1.0" encoding="UTF-8"?>
<svg id="Ebene_2" xmlns="http://www.w3.org/2000/svg" viewBox="0 0 48 39.47">
  <defs>
    <style>
      .cls-1 {
        fill: #1e1e1c;
      }
    </style>
  </defs>
  <g id="_x33_219">
    <path class="cls-1" d="M45.39,27.97V1.75c0-.96-.78-1.75-1.75-1.75H4.36c-.96,0-1.75.79-1.75,1.75v26.22H0v8.75c0,1.52,1.23,2.75,2.75,2.75h42.51c1.51,0,2.75-1.23,2.75-2.75v-8.75h-2.61ZM19.8,30.47h8.39v2h-8.39v-2ZM5.11,2.5h37.78v25.42H5.11V2.5ZM45.5,36.72c0,.14-.11.25-.25.25H2.75c-.14,0-.25-.11-.25-.25v-6.25h14.81v2.75c0,.96.78,1.75,1.75,1.75h9.89c.96,0,1.75-.79,1.75-1.75v-2.75h14.81v6.25Z"/>
  </g>
</svg>