<?xml version="1.0" encoding="UTF-8"?>
<svg id="Ebene_2" xmlns="http://www.w3.org/2000/svg" viewBox="0 0 32 26.39">
  <defs>
    <style>
      .cls-1 {
        fill: #1e1e1c;
      }
    </style>
  </defs>
  <g id="_x33_219">
    <path class="cls-1" d="M30.28,18.39V1.5c0-.83-.67-1.5-1.5-1.5H3.22c-.83,0-1.5.67-1.5,1.5v16.89H0v6.5c0,.83.67,1.5,1.5,1.5h29c.83,0,1.5-.67,1.5-1.5v-6.5h-1.72ZM13.41,20.39h5.18v1h-5.18v-1ZM3.72,2h24.55v16.38H3.72V2ZM30,24.39H2v-4h9.41v1.5c0,.83.67,1.5,1.5,1.5h6.18c.83,0,1.5-.67,1.5-1.5v-1.5h9.41v4Z"/>
  </g>
</svg>