<?xml version="1.0" encoding="UTF-8"?>
<svg id="Ebene_2" xmlns="http://www.w3.org/2000/svg" viewBox="0 0 24 20.14">
  <defs>
    <style>
      .cls-1 {
        fill: #1e1e1c;
      }
    </style>
  </defs>
  <g id="_x33_219">
    <path class="cls-1" d="M22.38,13.79V1.38c0-.76-.62-1.38-1.38-1.38H2.99c-.76,0-1.38.62-1.38,1.38v12.42H0v4.47c0,1.03.84,1.88,1.88,1.88h20.25c1.04,0,1.88-.84,1.88-1.88v-4.47h-1.62ZM3.37,1.75h17.26v12.04H3.37V1.75ZM22.25,18.26c0,.07-.06.12-.13.12H1.88c-.07,0-.13-.06-.13-.12v-2.72h6.68v.16c0,.76.62,1.38,1.38,1.38h4.39c.76,0,1.38-.62,1.38-1.38v-.16h6.68v2.72Z"/>
  </g>
</svg>