<?xml version="1.0" encoding="UTF-8"?>
<svg id="Ebene_2" xmlns="http://www.w3.org/2000/svg" viewBox="0 0 40 32.96">
  <defs>
    <style>
      .cls-1 {
        fill: #1e1e1c;
      }
    </style>
  </defs>
  <g id="_x33_219">
    <path class="cls-1" d="M37.83,23.16V1.62c0-.9-.73-1.62-1.62-1.62H3.79c-.9,0-1.62.73-1.62,1.62v21.53H0v7.68c0,1.17.95,2.12,2.12,2.12h35.75c1.17,0,2.12-.95,2.12-2.12v-7.68h-2.17ZM16.61,25.41h6.79v1.53h-6.79v-1.53ZM4.42,2.25h31.17v20.9H4.42V2.25ZM37.75,30.71H2.25v-5.31h12.11v2.15c0,.9.73,1.62,1.62,1.62h8.04c.9,0,1.62-.73,1.62-1.62v-2.15h12.11v5.31Z"/>
  </g>
</svg>