<?xml version="1.0" encoding="UTF-8"?>
<svg id="Ebene_2" xmlns="http://www.w3.org/2000/svg" viewBox="0 0 24 24">
  <defs>
    <style>
      .cls-1 {
        fill: #1e1e1c;
      }
    </style>
  </defs>
  <g id="_x33_219">
    <path class="cls-1" d="M16.69,7.15v1.59h-1.4l-3.95-7.71c-.26-.62-.87-1.04-1.55-1.04-2.18,0-3.43,1.48-3.43,4.05l.66,4.69H1.92c-1.06,0-1.92.86-1.92,1.92l1.5,10.32c.12.81.83,1.42,1.65,1.42h13.54v1.59h7.31V7.15h-7.31ZM1.75,10.63c.02-.08.09-.14.17-.14h5.08c1.43,0,3.33.57,3.33,5.48,0,3.69-2.72,4.56-3.2,4.69h-3.91l-1.47-10.03ZM10.37,20.66c.95-1.02,1.71-2.54,1.71-4.69,0-4.44-1.52-6.27-3.25-6.92l-.72-5.06c.02-2.24,1.18-2.24,1.61-2.29l4.5,8.79h2.47v10.17h-6.31ZM22.25,22.25h-3.81v-13.35h3.81v13.35Z"/>
  </g>
</svg>