<?xml version="1.0" encoding="UTF-8"?>
<svg id="Ebene_2" xmlns="http://www.w3.org/2000/svg" viewBox="0 0 24 16.52">
  <defs>
    <style>
      .cls-1 {
        fill: #1e1e1c;
      }
    </style>
  </defs>
  <g id="_x33_219">
    <path class="cls-1" d="M3.68,9.01h2.8v3h-2.8c-2.03,0-3.68-1.65-3.68-3.68V3.68C0,1.65,1.65,0,3.68,0h9.17c2.03,0,3.68,1.65,3.68,3.68v4.66c0,2.03-1.65,3.68-3.68,3.68h-1.3v-3h1.3c.37,0,.67-.3.67-.67V3.68c0-.37-.3-.67-.67-.67H3.68c-.37,0-.67.3-.67.67v4.66c0,.37.3.67.67.67ZM20.32,4.51h-2.8v3h2.8c.37,0,.67.3.67.67v4.66c0,.37-.3.67-.67.67h-9.17c-.37,0-.67-.3-.67-.67v-4.66c0-.37.3-.67.67-.67h1.3v-3h-1.3c-2.03,0-3.68,1.65-3.68,3.68v4.66c0,2.03,1.65,3.68,3.68,3.68h9.17c2.03,0,3.68-1.65,3.68-3.68v-4.66c0-2.03-1.65-3.68-3.68-3.68Z"/>
  </g>
</svg>