<?xml version="1.0" encoding="UTF-8"?>
<svg id="Ebene_2" xmlns="http://www.w3.org/2000/svg" viewBox="0 0 16 11.19">
  <defs>
    <style>
      .cls-1 {
        fill: #1e1e1c;
      }
    </style>
  </defs>
  <g id="_x33_219">
    <path class="cls-1" d="M2.65,5.79h1.16v2.5h-1.16c-1.46,0-2.65-1.19-2.65-2.65v-3C0,1.19,1.19,0,2.65,0h5.89c1.46,0,2.65,1.19,2.65,2.65v3c0,1.46-1.19,2.65-2.65,2.65h-.23v-2.5h.23c.08,0,.15-.07.15-.15v-3c0-.08-.07-.15-.15-.15H2.65c-.08,0-.15.07-.15.15v3c0,.08.07.15.15.15ZM13.35,2.9h-1.15v2.5h1.15c.08,0,.15.07.15.15v3c0,.08-.07.15-.15.15h-5.89c-.08,0-.15-.07-.15-.15v-3c0-.08.07-.15.15-.15h.24v-2.5h-.24c-1.46,0-2.65,1.19-2.65,2.65v3c0,1.46,1.19,2.65,2.65,2.65h5.89c1.46,0,2.65-1.19,2.65-2.65v-3c0-1.46-1.19-2.65-2.65-2.65Z"/>
  </g>
</svg>