<?xml version="1.0" encoding="UTF-8"?>
<svg id="Ebene_2" xmlns="http://www.w3.org/2000/svg" viewBox="0 0 16 16">
  <defs>
    <style>
      .cls-1 {
        fill: #1e1e1c;
      }
    </style>
  </defs>
  <g id="_x33_219">
    <path class="cls-1" d="M13.5,8.56h2.5v5.25c0,1.21-.98,2.19-2.18,2.19H2.18c-1.2,0-2.18-.98-2.18-2.19V2.18C0,.98.98,0,2.18,0h4.69v2.5H2.5v10.99h11v-4.93ZM9.7,0c-.69,0-1.25.56-1.25,1.25s.56,1.25,1.25,1.25h2.07l-6.04,6.05,1.77,1.77,6-6.01v2c0,.69.56,1.25,1.25,1.25s1.25-.56,1.25-1.25V0h-6.3Z"/>
  </g>
</svg>