<?xml version="1.0" encoding="UTF-8"?>
<svg id="Ebene_2" xmlns="http://www.w3.org/2000/svg" viewBox="0 0 64 64">
  <defs>
    <style>
      .cls-1 {
        fill: #1e1e1c;
      }
    </style>
  </defs>
  <g id="_x33_219">
    <path class="cls-1" d="M58.99,34.46h5.01v21.73c0,4.31-3.5,7.81-7.81,7.81H7.81c-4.31,0-7.81-3.5-7.81-7.81V7.81C0,3.5,3.5,0,7.81,0h19.27v5.01H7.81c-1.54,0-2.8,1.26-2.8,2.8v48.38c0,1.54,1.26,2.8,2.8,2.8h48.38c1.54,0,2.8-1.26,2.8-2.8v-21.73ZM39.37,0c-1.38,0-2.51,1.12-2.51,2.51s1.12,2.51,2.51,2.51h16.07L22.86,37.6l3.54,3.54L58.99,8.55v16.07c0,1.38,1.12,2.51,2.51,2.51s2.51-1.12,2.51-2.51V0h-24.63Z"/>
  </g>
</svg>