<?xml version="1.0" encoding="UTF-8"?>
<svg id="Ebene_2" xmlns="http://www.w3.org/2000/svg" viewBox="0 0 40 26.55">
  <defs>
    <style>
      .cls-1 {
        fill: #1e1e1c;
      }
    </style>
  </defs>
  <g id="_x33_219">
    <path class="cls-1" d="M5.03,16.21h5.04v2.24h-5.04c-2.78,0-5.03-2.26-5.03-5.03V5.03C0,2.26,2.26,0,5.03,0h16.48c2.78,0,5.03,2.26,5.03,5.03v8.38c0,2.78-2.26,5.03-5.03,5.03h-2.33v-2.24h2.33c1.54,0,2.79-1.25,2.79-2.79V5.03c0-1.54-1.25-2.79-2.79-2.79H5.03c-1.54,0-2.79,1.25-2.79,2.79v8.38c0,1.54,1.25,2.79,2.79,2.79ZM34.97,8.1h-5.04v2.24h5.04c1.54,0,2.79,1.25,2.79,2.79v8.38c0,1.54-1.25,2.79-2.79,2.79h-16.48c-1.54,0-2.79-1.25-2.79-2.79v-8.38c0-1.54,1.25-2.79,2.79-2.79h2.33v-2.24h-2.33c-2.78,0-5.03,2.26-5.03,5.03v8.38c0,2.78,2.26,5.03,5.03,5.03h16.48c2.78,0,5.03-2.26,5.03-5.03v-8.38c0-2.78-2.26-5.03-5.03-5.03Z"/>
  </g>
</svg>