<?xml version="1.0" encoding="UTF-8"?>
<svg id="Ebene_2" xmlns="http://www.w3.org/2000/svg" viewBox="0 0 48 32.5">
  <defs>
    <style>
      .cls-1 {
        fill: #1e1e1c;
      }
    </style>
  </defs>
  <g id="_x33_219">
    <path class="cls-1" d="M6.75,18.68h5.8v4.49h-5.8c-3.72,0-6.75-3.03-6.75-6.75V6.75C0,3.03,3.03,0,6.75,0h19c3.72,0,6.75,3.03,6.75,6.75v9.66c0,3.72-3.03,6.75-6.75,6.75h-2.69v-4.49h2.69c1.25,0,2.27-1.02,2.27-2.27V6.75c0-1.25-1.02-2.27-2.27-2.27H6.75c-1.25,0-2.27,1.02-2.27,2.27v9.66c0,1.25,1.02,2.27,2.27,2.27ZM41.25,9.34h-5.8v4.49h5.8c1.25,0,2.27,1.02,2.27,2.27v9.66c0,1.25-1.02,2.27-2.27,2.27h-19c-1.25,0-2.27-1.02-2.27-2.27v-9.66c0-1.25,1.02-2.27,2.27-2.27h2.69v-4.49h-2.69c-3.72,0-6.75,3.03-6.75,6.75v9.66c0,3.72,3.03,6.75,6.75,6.75h19c3.72,0,6.75-3.03,6.75-6.75v-9.66c0-3.72-3.03-6.75-6.75-6.75Z"/>
  </g>
</svg>