<?xml version="1.0" encoding="UTF-8"?>
<svg id="Ebene_2" xmlns="http://www.w3.org/2000/svg" viewBox="0 0 32 32">
  <defs>
    <style>
      .cls-1 {
        fill: #1e1e1c;
      }
    </style>
  </defs>
  <g id="_x33_219">
    <path class="cls-1" d="M28.5,17.19h3.5v10.5c0,2.38-1.94,4.31-4.32,4.31H4.31c-2.38,0-4.31-1.94-4.31-4.31V4.31C0,1.94,1.94,0,4.31,0h9.31v3.5H4.31c-.45,0-.81.36-.81.81v23.37c0,.45.36.81.81.81h23.37c.45,0,.81-.36.81-.81v-10.5ZM19.56,0c-.97,0-1.75.78-1.75,1.75s.78,1.75,1.75,1.75h6.46l-14.52,14.52,2.48,2.48,14.52-14.52v6.46c0,.97.78,1.75,1.75,1.75s1.75-.78,1.75-1.75V0h-12.44Z"/>
  </g>
</svg>