<?xml version="1.0" encoding="UTF-8"?>
<svg id="Ebene_2" xmlns="http://www.w3.org/2000/svg" viewBox="0 0 64 64">
  <defs>
    <style>
      .cls-1 {
        fill: #1e1e1c;
      }
    </style>
  </defs>
  <g id="_x33_219">
    <path class="cls-1" d="M61.25,34.55h2.75v22.57c0,3.8-3.09,6.88-6.88,6.88H6.88c-3.8,0-6.88-3.09-6.88-6.88V6.88C0,3.09,3.09,0,6.88,0h20.01v2.75H6.88c-2.28,0-4.13,1.85-4.13,4.13v50.23c0,2.28,1.85,4.13,4.13,4.13h50.23c2.28,0,4.13-1.85,4.13-4.13v-22.57ZM39.66,0c-.76,0-1.37.62-1.37,1.37s.62,1.37,1.37,1.37h19.65L23.37,38.68l1.94,1.94L61.25,4.69v19.65c0,.76.62,1.37,1.37,1.37s1.37-.62,1.37-1.37V0h-24.34Z"/>
  </g>
</svg>