<?xml version="1.0" encoding="UTF-8"?>
<svg id="Ebene_2" xmlns="http://www.w3.org/2000/svg" viewBox="0 0 64 42.18">
  <defs>
    <style>
      .cls-1 {
        fill: #1e1e1c;
      }
    </style>
  </defs>
  <g id="_x33_219">
    <path class="cls-1" d="M7.72,26.29h8.17v2.74H7.72c-4.26,0-7.72-3.46-7.72-7.72V7.72C0,3.46,3.46,0,7.72,0h26.74c4.26,0,7.72,3.46,7.72,7.72v13.6c0,4.26-3.46,7.72-7.72,7.72h-3.79v-2.74h3.79c2.75,0,4.98-2.23,4.98-4.98V7.72c0-2.75-2.23-4.98-4.98-4.98H7.72c-2.75,0-4.98,2.23-4.98,4.98v13.6c0,2.75,2.23,4.98,4.98,4.98ZM56.28,13.15h-8.17v2.74h8.17c2.75,0,4.98,2.23,4.98,4.98v13.6c0,2.75-2.23,4.98-4.98,4.98h-26.74c-2.75,0-4.98-2.23-4.98-4.98v-13.6c0-2.75,2.23-4.98,4.98-4.98h3.79v-2.74h-3.79c-4.26,0-7.72,3.46-7.72,7.72v13.6c0,4.26,3.46,7.72,7.72,7.72h26.74c4.26,0,7.72-3.46,7.72-7.72v-13.6c0-4.26-3.46-7.72-7.72-7.72Z"/>
  </g>
</svg>