<?xml version="1.0" encoding="UTF-8"?>
<svg id="Ebene_2" xmlns="http://www.w3.org/2000/svg" viewBox="0 0 32 21.32">
  <defs>
    <style>
      .cls-1 {
        fill: #1e1e1c;
      }
    </style>
  </defs>
  <g id="_x33_219">
    <path class="cls-1" d="M4.11,12.88h4v2h-4c-2.27,0-4.11-1.84-4.11-4.11v-6.66C0,1.84,1.84,0,4.11,0h13.1c2.27,0,4.11,1.84,4.11,4.11v6.66c0,2.27-1.84,4.11-4.11,4.11h-1.85v-2h1.85c1.16,0,2.11-.95,2.11-2.11v-6.66c0-1.16-.95-2.11-2.11-2.11H4.11c-1.16,0-2.11.95-2.11,2.11v6.66c0,1.16.95,2.11,2.11,2.11ZM27.89,6.44h-4v2h4c1.16,0,2.11.95,2.11,2.11v6.66c0,1.16-.95,2.11-2.11,2.11h-13.1c-1.16,0-2.11-.95-2.11-2.11v-6.66c0-1.16.95-2.11,2.11-2.11h1.85v-2h-1.85c-2.27,0-4.11,1.84-4.11,4.11v6.66c0,2.27,1.84,4.11,4.11,4.11h13.1c2.26,0,4.11-1.84,4.11-4.11v-6.66c0-2.27-1.84-4.11-4.11-4.11Z"/>
  </g>
</svg>