<?xml version="1.0" encoding="UTF-8"?>
<svg id="Ebene_2" xmlns="http://www.w3.org/2000/svg" viewBox="0 0 64 42.99">
  <defs>
    <style>
      .cls-1 {
        fill: #1e1e1c;
      }
    </style>
  </defs>
  <g id="_x33_219">
    <path class="cls-1" d="M8.62,25.32h7.87v5.01h-7.87c-4.75,0-8.62-3.87-8.62-8.62v-13.09C0,3.87,3.86,0,8.62,0h25.75c4.75,0,8.62,3.87,8.62,8.62v13.09c0,4.75-3.87,8.62-8.62,8.62h-3.65v-5.01h3.65c1.99,0,3.61-1.62,3.61-3.61v-13.09c0-1.99-1.62-3.61-3.61-3.61H8.62c-1.99,0-3.61,1.62-3.61,3.61v13.09c0,1.99,1.62,3.61,3.61,3.61ZM55.38,12.66h-7.87v5.01h7.87c1.99,0,3.61,1.62,3.61,3.61v13.09c0,1.99-1.62,3.61-3.61,3.61h-25.75c-1.99,0-3.61-1.62-3.61-3.61v-13.09c0-1.99,1.62-3.61,3.61-3.61h3.65v-5.01h-3.65c-4.75,0-8.62,3.87-8.62,8.62v13.09c0,4.75,3.86,8.62,8.62,8.62h25.75c4.75,0,8.62-3.87,8.62-8.62v-13.09c0-4.75-3.87-8.62-8.62-8.62Z"/>
  </g>
</svg>