<?xml version="1.0" encoding="UTF-8"?>
<svg id="Ebene_2" xmlns="http://www.w3.org/2000/svg" viewBox="0 0 24 16.07">
  <defs>
    <style>
      .cls-1 {
        fill: #1e1e1c;
      }
    </style>
  </defs>
  <g id="_x33_219">
    <path class="cls-1" d="M3.18,9.55h2.97v1.75h-2.97c-1.75,0-3.18-1.43-3.18-3.18V3.18C0,1.43,1.43,0,3.18,0h9.71c1.75,0,3.18,1.43,3.18,3.18v4.94c0,1.75-1.43,3.18-3.18,3.18h-1.38v-1.75h1.38c.79,0,1.43-.64,1.43-1.43V3.18c0-.79-.64-1.43-1.43-1.43H3.18c-.79,0-1.43.64-1.43,1.43v4.94c0,.79.64,1.43,1.43,1.43ZM20.82,4.77h-2.97v1.75h2.97c.79,0,1.43.64,1.43,1.43v4.94c0,.79-.64,1.43-1.43,1.43h-9.71c-.79,0-1.43-.64-1.43-1.43v-4.94c0-.79.64-1.43,1.43-1.43h1.37v-1.75h-1.37c-1.75,0-3.18,1.43-3.18,3.18v4.94c0,1.75,1.43,3.18,3.18,3.18h9.71c1.75,0,3.18-1.43,3.18-3.18v-4.94c0-1.75-1.43-3.18-3.18-3.18Z"/>
  </g>
</svg>