<?xml version="1.0" encoding="UTF-8"?>
<svg id="Ebene_2" xmlns="http://www.w3.org/2000/svg" viewBox="0 0 24 24">
  <defs>
    <style>
      .cls-1 {
        fill: #1e1e1c;
      }
    </style>
  </defs>
  <g id="_x33_219">
    <path class="cls-1" d="M22.26,12.94h1.74v8.4c0,1.47-1.19,2.67-2.66,2.67H2.66c-1.46,0-2.66-1.2-2.66-2.67V2.69C0,1.22,1.19.02,2.66.02h7.44v1.75H2.66c-.5,0-.91.41-.91.92v18.65c0,.51.41.92.91.92h18.69c.5,0,.91-.41.91-.92v-8.4ZM24,0h-9.17c-.48,0-.87.39-.87.87s.39.87.87.87h6.3l-12.07,12.12,1.23,1.24L22.26,3.09v6.12c0,.48.39.87.87.87s.87-.39.87-.87V0Z"/>
  </g>
</svg>