<?xml version="1.0" encoding="UTF-8"?>
<svg id="Ebene_2" xmlns="http://www.w3.org/2000/svg" viewBox="0 0 48 48">
  <defs>
    <style>
      .cls-1 {
        fill: #1e1e1c;
      }
    </style>
  </defs>
  <g id="_x33_219">
    <path class="cls-1" d="M43.5,25.81h4.5v16.02c0,3.4-2.76,6.16-6.16,6.16H6.16c-3.4,0-6.16-2.77-6.16-6.16V6.16C0,2.77,2.76,0,6.16,0h14.21v4.5H6.16c-.91,0-1.66.74-1.66,1.66v35.67c0,.91.74,1.66,1.66,1.66h35.67c.91,0,1.66-.74,1.66-1.66v-16.02ZM29.44,0c-1.24,0-2.25,1.01-2.25,2.25s1.01,2.25,2.25,2.25h10.94l-23.64,23.64,3.18,3.18L43.5,7.75v10.81c0,1.24,1.01,2.25,2.25,2.25s2.25-1.01,2.25-2.25V0h-18.56Z"/>
  </g>
</svg>