<?xml version="1.0" encoding="UTF-8"?>
<svg id="Ebene_2" xmlns="http://www.w3.org/2000/svg" viewBox="0 0 40 40">
  <defs>
    <style>
      .cls-1 {
        fill: #1e1e1c;
      }
    </style>
  </defs>
  <g id="_x33_219">
    <path class="cls-1" d="M32.2,25.77c-2.93,0-5.44,1.78-6.53,4.31h-3.06V4.02h17.38s0-4.02,0-4.02l-21.38.02v30.6L1.4,36.09c-1.05.34-1.63,1.46-1.3,2.51.27.85,1.06,1.4,1.91,1.4.2,0,.41-.03.61-.09l18.32-5.82h4.28c.57,3.35,3.49,5.92,7,5.92s6.43-2.56,7-5.92h.79v-4h-1.26c-1.09-2.53-3.61-4.31-6.53-4.31ZM32.2,36c-1.71,0-3.11-1.4-3.11-3.11s1.39-3.11,3.11-3.11,3.11,1.4,3.11,3.11-1.39,3.11-3.11,3.11ZM40,17.19v4h-12.32V7.52h12.31v4h-8.31v5.67h8.32ZM9.65,18.68H.03v-4h9.62l-3.1-3.1c-.78-.78-.78-2.05,0-2.83.78-.78,2.05-.78,2.83,0l7.92,7.93-7.92,7.93c-.39.39-.9.59-1.42.59s-1.02-.2-1.41-.59c-.78-.78-.78-2.05,0-2.83l3.1-3.1Z"/>
  </g>
</svg>