<?xml version="1.0" encoding="UTF-8"?>
<svg id="Ebene_2" xmlns="http://www.w3.org/2000/svg" viewBox="0 0 64 64">
  <defs>
    <style>
      .cls-1 {
        fill: #1e1e1c;
      }
    </style>
  </defs>
  <g id="_x33_219">
    <path class="cls-1" d="M50.79,43.85c-4.57,0-8.43,3.11-9.62,7.34h-8.59V2.78l31.41-.03V0S29.84.03,29.84.03v51.54L.95,61.27c-.72.24-1.11,1.02-.87,1.74.19.58.73.94,1.3.94.14,0,.29-.02.44-.07l29.61-9.95h9.35c0,5.55,4.49,10.07,10,10.07s10-4.51,10-10.07h3.2v-2.75h-3.59c-1.19-4.23-5.04-7.34-9.62-7.34ZM50.79,61.25c-4,0-7.25-3.29-7.25-7.33s3.25-7.33,7.25-7.33,7.25,3.29,7.25,7.33-3.25,7.33-7.25,7.33ZM47.91,15.54v13.7h16.08v2.75h-18.83V12.79h18.83v2.75h-16.08ZM22.11,27.76H0v-2.75h22.11l-8.01-8.08c-.53-.54-.53-1.41,0-1.94.54-.53,1.41-.53,1.94,0l11.29,11.39-11.29,11.39c-.27.27-.62.41-.98.41s-.7-.13-.97-.4c-.54-.53-.54-1.4,0-1.94l8.01-8.08Z"/>
  </g>
</svg>