<?xml version="1.0" encoding="UTF-8"?>
<svg id="Ebene_2" xmlns="http://www.w3.org/2000/svg" viewBox="0 0 29.69 40">
  <defs>
    <style>
      .cls-1 {
        fill: #1e1e1c;
      }
    </style>
  </defs>
  <g id="_x33_219">
    <path class="cls-1" d="M14.84,0C6.66,0,0,6.67,0,14.86c0,10.16,13.48,23.77,14.05,24.34l.8.8.79-.8c.57-.57,14.05-14.18,14.05-24.34C29.69,6.67,23.03,0,14.84,0ZM14.84,36.78c-2.88-3.07-12.59-14.01-12.59-21.92C2.25,7.91,7.9,2.25,14.84,2.25s12.6,5.66,12.6,12.61c0,7.9-9.71,18.85-12.6,21.92ZM14.84,8.55c-3.52,0-6.38,2.86-6.38,6.38s2.86,6.38,6.38,6.38,6.38-2.86,6.38-6.38-2.86-6.38-6.38-6.38ZM14.84,19.06c-2.27,0-4.12-1.85-4.12-4.13s1.85-4.13,4.12-4.13,4.12,1.85,4.12,4.13-1.85,4.13-4.12,4.13Z"/>
  </g>
</svg>