<?xml version="1.0" encoding="UTF-8"?>
<svg id="Ebene_2" xmlns="http://www.w3.org/2000/svg" viewBox="0 0 32 32">
  <defs>
    <style>
      .cls-1 {
        fill: #1e1e1c;
      }
    </style>
  </defs>
  <g id="_x33_219">
    <path class="cls-1" d="M21.75,19.64l-3.45,3.53,1.44,8.83-7.56-4.17-7.56,4.17,1.44-8.83L0,16.97l8.38-1.28,3.8-8.09,3.8,8.09,3.1.47c.91,1.31,1.85,2.51,2.67,3.47ZM24.73,8.96c.92,0,1.66-.74,1.66-1.66s-.75-1.66-1.66-1.66-1.66.74-1.66,1.66.75,1.66,1.66,1.66ZM24.73,19.97c-.4-.44-.95-1.05-1.57-1.78h0s0,0,0,0c-.2-.24-.41-.49-.62-.76,0,0,0,0,0,0-.21-.27-.43-.54-.65-.83,0,0,0,0,0,0h0c-2.13-2.76-4.41-6.41-4.41-9.33,0-4,3.26-7.26,7.27-7.26s7.27,3.26,7.27,7.26c0,4.44-5.32,10.6-7.27,12.71ZM21.06,7.3c0,2.02,1.65,3.67,3.67,3.67s3.67-1.65,3.67-3.67-1.65-3.67-3.67-3.67-3.67,1.65-3.67,3.67Z"/>
  </g>
</svg>