<?xml version="1.0" encoding="UTF-8"?>
<svg id="Ebene_2" xmlns="http://www.w3.org/2000/svg" viewBox="0 0 40 40">
  <defs>
    <style>
      .cls-1 {
        fill: #1e1e1c;
      }
    </style>
  </defs>
  <g id="_x33_219">
    <path class="cls-1" d="M27.31,24.2l-4.73,4.86,1.78,10.94-9.33-5.17-9.33,5.17,1.78-10.94L0,21.38l10.34-1.58,4.69-10.01,4.69,10.01,4.75.73c.98,1.38,1.97,2.63,2.85,3.68ZM30.95,7.04c-1.15,0-2.08.94-2.08,2.09s.93,2.09,2.08,2.09,2.08-.94,2.08-2.09-.93-2.09-2.08-2.09ZM40,9.07c0,5.58-6.71,13.32-9.05,15.84-2.34-2.53-9.05-10.26-9.05-15.84,0-5,4.06-9.07,9.05-9.07s9.05,4.07,9.05,9.07ZM35.28,9.12c0-2.39-1.94-4.34-4.33-4.34s-4.33,1.95-4.33,4.34,1.94,4.34,4.33,4.34,4.33-1.95,4.33-4.34Z"/>
  </g>
</svg>