<?xml version="1.0" encoding="UTF-8"?>
<svg id="Ebene_2" xmlns="http://www.w3.org/2000/svg" viewBox="0 0 16 16">
  <defs>
    <style>
      .cls-1 {
        fill: #1e1e1c;
      }
    </style>
  </defs>
  <g id="_x33_219">
    <path class="cls-1" d="M8,0C3.59,0,0,3.59,0,8s3.59,8,8,8,8-3.59,8-8S12.41,0,8,0ZM8.75,14.45v-3.5c0-.41-.34-.75-.75-.75s-.75.34-.75.75v3.5c-2.99-.34-5.36-2.72-5.7-5.7h3.5c.41,0,.75-.34.75-.75s-.34-.75-.75-.75H1.55c.34-2.99,2.72-5.36,5.7-5.7v3.5c0,.41.34.75.75.75s.75-.34.75-.75V1.55c2.99.34,5.36,2.72,5.7,5.7h-3.5c-.41,0-.75.34-.75.75s.34.75.75.75h3.5c-.34,2.99-2.72,5.36-5.7,5.7Z"/>
  </g>
</svg>