<?xml version="1.0" encoding="UTF-8"?>
<svg id="Ebene_2" xmlns="http://www.w3.org/2000/svg" viewBox="0 0 24 24">
  <defs>
    <style>
      .cls-1 {
        fill: #1e1e1c;
      }
    </style>
  </defs>
  <g id="_x33_219">
    <path class="cls-1" d="M16.45,14.58l-2.52,2.61,1.1,6.81-5.76-3.22-5.76,3.22,1.1-6.81L0,12.41l6.37-.99,2.9-6.24,2.9,6.24,2.17.34c.71,1.07,1.46,2.03,2.11,2.81ZM18.77,6.32c.55,0,.99-.45.99-1s-.44-1-.99-1-.99.45-.99,1,.44,1,.99,1ZM18.77,14.59c-.33-.36-.71-.8-1.1-1.28h0c-.3-.37-.61-.76-.93-1.18,0,0,0,0,0,0h0c-1.61-2.14-3.2-4.81-3.2-6.85,0-2.92,2.35-5.29,5.23-5.29s5.23,2.37,5.23,5.29-3.35,7.24-5.23,9.3ZM16.04,5.32c0,1.52,1.22,2.76,2.73,2.76s2.73-1.24,2.73-2.76-1.22-2.76-2.73-2.76-2.73,1.24-2.73,2.76Z"/>
  </g>
</svg>