<?xml version="1.0" encoding="UTF-8"?>
<svg id="Ebene_2" xmlns="http://www.w3.org/2000/svg" viewBox="0 0 32 32">
  <defs>
    <style>
      .cls-1 {
        fill: #1e1e1c;
      }
    </style>
  </defs>
  <g id="_x33_219">
    <path class="cls-1" d="M23.98,0c-4.42,0-8.02,3.57-8.02,7.95,0,2.74,1.86,5.93,3.71,8.42l-3.7-.56-3.8-8.02-3.8,8.02-8.37,1.27,6.05,6.15-1.44,8.76,7.56-4.14,7.56,4.14-1.44-8.76,3.82-3.89c.64.71,1.09,1.17,1.16,1.24l.71.7.71-.7c.3-.3,7.31-7.31,7.31-12.63,0-4.39-3.6-7.95-8.02-7.95ZM16.14,22.56l.94,5.71-4.91-2.69-4.91,2.69.94-5.71-4.03-4.1,5.56-.84,2.43-5.14,2.43,5.14,5.56.84-4.03,4.1ZM23.98,18.44c-2.16-2.33-6.01-7.16-6.01-10.48s2.7-5.96,6.01-5.96,6.01,2.67,6.01,5.96-3.85,8.16-6.01,10.48ZM23.98,4.75c-1.8,0-3.27,1.45-3.27,3.24s1.47,3.24,3.27,3.24,3.27-1.45,3.27-3.24-1.47-3.24-3.27-3.24ZM23.98,9.24c-.69,0-1.26-.56-1.26-1.25s.56-1.25,1.26-1.25,1.26.56,1.26,1.25-.56,1.25-1.26,1.25Z"/>
  </g>
</svg>