<?xml version="1.0" encoding="UTF-8"?>
<svg id="Ebene_2" xmlns="http://www.w3.org/2000/svg" viewBox="0 0 24 24">
  <defs>
    <style>
      .cls-1 {
        fill: #1e1e1c;
      }
    </style>
  </defs>
  <g id="_x33_219">
    <path class="cls-1" d="M17.95,0c-3.34,0-6.05,2.71-6.05,6.05,0,1.85,1.11,3.96,2.32,5.72l-1.96-.3-2.92-6.22-2.92,6.22-6.42.98,4.64,4.76-1.11,6.79,5.8-3.21,5.8,3.21-1.11-6.79,2.48-2.54c.45.5.76.82.81.87l.62.62.62-.62c.22-.22,5.43-5.48,5.43-9.49,0-3.34-2.72-6.05-6.05-6.05ZM12.17,16.62l.67,4.1-3.5-1.93-3.5,1.93.67-4.1-2.88-2.95,3.98-.61,1.73-3.69,1.73,3.69,3.98.61-2.88,2.95ZM17.95,13.65c-1.6-1.76-4.3-5.22-4.3-7.6s1.93-4.3,4.3-4.3,4.3,1.93,4.3,4.3-2.7,5.85-4.3,7.6ZM17.95,3.63c-1.35,0-2.45,1.1-2.45,2.45s1.1,2.45,2.45,2.45,2.45-1.1,2.45-2.45-1.1-2.45-2.45-2.45ZM17.95,6.78c-.39,0-.7-.32-.7-.7s.32-.7.7-.7.7.32.7.7-.32.7-.7.7Z"/>
  </g>
</svg>