<?xml version="1.0" encoding="UTF-8"?>
<svg id="Ebene_2" xmlns="http://www.w3.org/2000/svg" viewBox="0 0 17.88 24">
  <defs>
    <style>
      .cls-1 {
        fill: #1e1e1c;
      }
    </style>
  </defs>
  <g id="_x33_219">
    <path class="cls-1" d="M8.94,0C4.01,0,0,4.01,0,8.94c0,6.05,7.98,14.1,8.32,14.44l.62.62.62-.62c.34-.34,8.32-8.39,8.32-14.44C17.88,4.01,13.87,0,8.94,0ZM8.94,21.5c-1.85-1.99-7.19-8.12-7.19-12.56,0-3.96,3.23-7.19,7.19-7.19s7.19,3.23,7.19,7.19c0,4.43-5.34,10.57-7.19,12.56ZM8.94,4.86c-2.27,0-4.12,1.85-4.12,4.12s1.85,4.12,4.12,4.12,4.12-1.85,4.12-4.12-1.85-4.12-4.12-4.12ZM8.94,11.36c-1.31,0-2.38-1.07-2.38-2.37s1.07-2.37,2.38-2.37,2.38,1.07,2.38,2.37-1.07,2.37-2.38,2.37Z"/>
  </g>
</svg>