<?xml version="1.0" encoding="UTF-8"?>
<svg id="Ebene_2" xmlns="http://www.w3.org/2000/svg" viewBox="0 0 64 64">
  <defs>
    <style>
      .cls-1 {
        fill: #1e1e1c;
      }
    </style>
  </defs>
  <g id="_x33_219">
    <path class="cls-1" d="M47.31,0c-9.2,0-16.69,7.5-16.69,16.71,0,5.09,3.01,10.95,6.4,15.93l-5.58-.85-7.46-15.92-7.46,15.92L0,34.31l11.95,12.27-2.84,17.42,14.87-8.23,14.87,8.23-2.84-17.42,6.56-6.73c2.04,2.38,3.57,3.93,3.77,4.12l.97.97.97-.97c.64-.64,15.72-15.86,15.72-27.26,0-9.21-7.49-16.71-16.69-16.71ZM33.08,45.65l2.15,13.2-11.25-6.23-11.25,6.23,2.15-13.2-9.18-9.42,12.68-1.94,5.6-11.94,5.6,11.94,9.7,1.48c.52.68,1.03,1.33,1.53,1.95l-7.73,7.93ZM47.31,41.01c-3.31-3.54-13.94-15.59-13.94-24.3,0-7.7,6.25-13.96,13.94-13.96s13.94,6.26,13.94,13.96c0,8.7-10.63,20.75-13.94,24.3ZM47.31,10.58c-3.42,0-6.2,2.78-6.2,6.21s2.78,6.21,6.2,6.21,6.2-2.78,6.2-6.21-2.78-6.21-6.2-6.21ZM47.31,20.25c-1.9,0-3.45-1.55-3.45-3.46s1.55-3.46,3.45-3.46,3.45,1.55,3.45,3.46-1.55,3.46-3.45,3.46Z"/>
  </g>
</svg>