<?xml version="1.0" encoding="UTF-8"?>
<svg id="Ebene_2" xmlns="http://www.w3.org/2000/svg" viewBox="0 0 48 48">
  <defs>
    <style>
      .cls-1 {
        fill: #1e1e1c;
      }
    </style>
  </defs>
  <g id="_x33_219">
    <path class="cls-1" d="M35.58,0c-6.85,0-12.42,5.57-12.42,12.43,0,3.94,2.43,8.48,5.06,12.25l-4.71-.72-5.59-11.9-5.59,11.9-12.34,1.88,8.92,9.15-2.12,13.01,11.12-6.15,11.12,6.15-2.12-13.01,5.19-5.32c1.4,1.62,2.44,2.67,2.57,2.8l.88.88.88-.88c.47-.47,11.54-11.64,11.54-20.04,0-6.85-5.57-12.43-12.42-12.43ZM24.25,34.15l1.5,9.17-7.82-4.33-7.83,4.33,1.5-9.17-6.41-6.57,8.85-1.35,3.89-8.29,3.89,8.29,8.54,1.3c.05.07.11.13.16.2l-6.26,6.41ZM35.58,29.77c-2.58-2.78-9.92-11.24-9.92-17.34,0-5.47,4.45-9.93,9.92-9.93s9.92,4.45,9.92,9.93c0,6.11-7.34,14.56-9.92,17.34ZM35.58,7.71c-2.63,0-4.77,2.14-4.77,4.77s2.14,4.77,4.77,4.77,4.77-2.14,4.77-4.77-2.14-4.77-4.77-4.77ZM35.58,14.76c-1.25,0-2.27-1.02-2.27-2.27s1.02-2.27,2.27-2.27,2.27,1.02,2.27,2.27-1.02,2.27-2.27,2.27Z"/>
  </g>
</svg>