<?xml version="1.0" encoding="UTF-8"?>
<svg id="Ebene_2" xmlns="http://www.w3.org/2000/svg" viewBox="0 0 47.43 64">
  <defs>
    <style>
      .cls-1 {
        fill: #1e1e1c;
      }
    </style>
  </defs>
  <g id="_x33_219">
    <path class="cls-1" d="M23.71,0C10.64,0,0,10.65,0,23.73c0,16.35,21.81,38.37,22.74,39.3l.97.97.97-.97c.93-.93,22.74-22.94,22.74-39.3C47.43,10.65,36.79,0,23.71,0ZM23.71,60.07C19.46,55.58,2.75,37.08,2.75,23.73,2.75,12.16,12.15,2.75,23.71,2.75s20.96,9.41,20.96,20.98c0,13.35-16.71,31.85-20.96,36.34ZM23.71,14.09c-5.38,0-9.75,4.38-9.75,9.76s4.37,9.76,9.75,9.76,9.75-4.38,9.75-9.76-4.37-9.76-9.75-9.76ZM23.71,30.85c-3.86,0-7-3.14-7-7s3.14-7,7-7,7,3.14,7,7-3.14,7-7,7Z"/>
  </g>
</svg>