<?xml version="1.0" encoding="UTF-8"?>
<svg id="Ebene_2" xmlns="http://www.w3.org/2000/svg" viewBox="0 0 48 48">
  <defs>
    <style>
      .cls-1 {
        fill: #1e1e1c;
      }
    </style>
  </defs>
  <g id="_x33_219">
    <path class="cls-1" d="M24,0C10.77,0,0,10.77,0,24s10.77,24,24,24,24-10.77,24-24S37.23,0,24,0ZM25.25,45.44v-12.16c0-.69-.56-1.25-1.25-1.25s-1.25.56-1.25,1.25v12.16c-10.86-.63-19.56-9.33-20.19-20.19h12.16c.69,0,1.25-.56,1.25-1.25s-.56-1.25-1.25-1.25H2.56C3.19,11.89,11.89,3.19,22.75,2.56v12.16c0,.69.56,1.25,1.25,1.25s1.25-.56,1.25-1.25V2.56c10.86.63,19.56,9.33,20.19,20.19h-12.16c-.69,0-1.25.56-1.25,1.25s.56,1.25,1.25,1.25h12.16c-.63,10.86-9.33,19.56-20.19,20.19Z"/>
  </g>
</svg>