<?xml version="1.0" encoding="UTF-8"?>
<svg id="Ebene_2" xmlns="http://www.w3.org/2000/svg" viewBox="0 0 32 32">
  <defs>
    <style>
      .cls-1 {
        fill: #1e1e1c;
      }
    </style>
  </defs>
  <g id="_x33_219">
    <path class="cls-1" d="M12.51,22.87h-3.35v-3.35h3.35v3.35ZM32,7.98c0,5.34-6.98,12.38-7.27,12.67l-.71.71-.02-.02v3.66l-7.29,6.94v.07H0V15.29h.07l8.22-7.35h7.75c.02-4.38,3.59-7.94,7.98-7.94s7.98,3.58,7.98,7.98ZM3.07,15.29h4.73l5.31-5.35h-4.05l-5.98,5.35ZM14.71,17.29H2v12.71h12.71v-12.71ZM15.29,15.29l2.26-2.28c-.54-1.01-.98-2.05-1.24-3.07h-.4l-5.31,5.35h4.68ZM22,24.14v-4.9c-.95-1.07-2.25-2.66-3.39-4.44l-1.89,1.91v12.47l5.29-5.03ZM30,7.98c0-3.3-2.68-5.98-5.98-5.98s-5.98,2.68-5.98,5.98,3.83,8.18,5.98,10.52c2.15-2.34,5.98-7.18,5.98-10.52ZM27.27,8.02c0,1.79-1.46,3.25-3.25,3.25s-3.25-1.46-3.25-3.25,1.46-3.25,3.25-3.25,3.25,1.46,3.25,3.25ZM25.27,8.02c0-.69-.56-1.25-1.25-1.25s-1.25.56-1.25,1.25.56,1.25,1.25,1.25,1.25-.56,1.25-1.25Z"/>
  </g>
</svg>