<?xml version="1.0" encoding="UTF-8"?>
<svg id="Ebene_2" xmlns="http://www.w3.org/2000/svg" viewBox="0 0 48 48">
  <defs>
    <style>
      .cls-1 {
        fill: #1e1e1c;
      }
    </style>
  </defs>
  <g id="_x33_219">
    <path class="cls-1" d="M24,0C10.77,0,0,10.77,0,24s10.77,24,24,24,24-10.77,24-24S37.23,0,24,0ZM26.25,43.36v-10.48c0-1.24-1.01-2.25-2.25-2.25s-2.25,1.01-2.25,2.25v10.48c-8.95-1.04-16.07-8.15-17.1-17.1h10.48c1.24,0,2.25-1.01,2.25-2.25s-1.01-2.25-2.25-2.25H4.64C5.68,12.8,12.8,5.68,21.75,4.64v10.48c0,1.24,1.01,2.25,2.25,2.25s2.25-1.01,2.25-2.25V4.64c8.95,1.04,16.07,8.15,17.1,17.1h-10.48c-1.24,0-2.25,1.01-2.25,2.25s1.01,2.25,2.25,2.25h10.48c-1.04,8.95-8.15,16.07-17.1,17.1Z"/>
  </g>
</svg>