<?xml version="1.0" encoding="UTF-8"?>
<svg id="Ebene_2" xmlns="http://www.w3.org/2000/svg" viewBox="0 0 16 16">
  <defs>
    <style>
      .cls-1 {
        fill: #1e1e1c;
      }
    </style>
  </defs>
  <g id="_x33_219">
    <path class="cls-1" d="M11.2,9.71l-1.6,1.64.76,4.65-3.97-2.2-3.97,2.2.76-4.65-3.17-3.26,4.38-.67,2-4.27,2,4.27,1.2.18c.55.82,1.13,1.55,1.61,2.1ZM12.7,9.16c-.14-.16-.3-.34-.46-.53h0s0,0,0,0c-1.23-1.46-2.84-3.71-2.84-5.33,0-1.82,1.48-3.3,3.3-3.3s3.3,1.48,3.3,3.3-2.05,4.47-3.3,5.86ZM11.26,3.32c0,.8.65,1.45,1.45,1.45s1.45-.65,1.45-1.45-.65-1.45-1.45-1.45-1.45.65-1.45,1.45Z"/>
  </g>
</svg>