<?xml version="1.0" encoding="UTF-8"?>
<svg id="Ebene_2" xmlns="http://www.w3.org/2000/svg" viewBox="0 0 64 64">
  <defs>
    <style>
      .cls-1 {
        fill: #1e1e1c;
      }
    </style>
  </defs>
  <g id="_x33_219">
    <path class="cls-1" d="M42.85,39.56l-6.83,7.01,2.84,17.43-14.87-8.23-14.87,8.23,2.84-17.43L0,34.31l16.52-2.53,7.46-15.92,7.46,15.92,6.21.95c1.75,2.56,3.58,4.9,5.2,6.83ZM48.69,19.31c2.14,0,3.88-1.75,3.88-3.89s-1.74-3.89-3.88-3.89-3.88,1.74-3.88,3.89,1.74,3.89,3.88,3.89ZM43.2,35.59s-.04-.05-.06-.08c-4.53-5.76-9.76-13.79-9.76-20.18,0-8.45,6.87-15.33,15.31-15.33s15.31,6.88,15.31,15.33c0,9.61-11.8,22.91-15.31,26.65-1.02-1.08-2.73-2.97-4.64-5.33-.05-.06-.09-.11-.14-.17-.23-.29-.47-.59-.71-.89ZM42.06,15.42c0,3.66,2.98,6.64,6.63,6.64s6.63-2.98,6.63-6.64-2.98-6.64-6.63-6.64-6.63,2.98-6.63,6.64Z"/>
  </g>
</svg>