<?xml version="1.0" encoding="UTF-8"?>
<svg id="Ebene_2" xmlns="http://www.w3.org/2000/svg" viewBox="0 0 16 16">
  <defs>
    <style>
      .cls-1 {
        fill: #1e1e1c;
      }
    </style>
  </defs>
  <g id="_x33_219">
    <path class="cls-1" d="M12.01,0c-2.2,0-3.99,1.8-3.99,4.01,0,1.27.76,2.69,1.57,3.84l-1.44-.22-1.95-4.17-1.95,4.17-4.26.65,3.08,3.18-.74,4.54,3.86-2.15,3.86,2.15-.74-4.54,1.73-1.78c.21.23.36.38.42.45l.53.53.53-.53c.35-.36,3.46-3.55,3.46-6.12,0-2.21-1.79-4.01-3.99-4.01ZM8.1,13.19l-1.89-1.05-1.9,1.05.36-2.24-1.58-1.63,2.18-.34.93-2,.93,2,2.18.34-1.58,1.63.36,2.24ZM12.01,8.5c-.99-1.12-2.49-3.12-2.49-4.49s1.12-2.51,2.49-2.51,2.5,1.13,2.5,2.51-1.5,3.36-2.5,4.49ZM13.32,4.03c0,.72-.59,1.31-1.31,1.31s-1.31-.59-1.31-1.31.59-1.32,1.31-1.32,1.31.59,1.31,1.32Z"/>
  </g>
</svg>