<?xml version="1.0" encoding="UTF-8"?>
<svg id="Ebene_2" xmlns="http://www.w3.org/2000/svg" viewBox="0 0 48 48">
  <defs>
    <style>
      .cls-1 {
        fill: #1e1e1c;
      }
    </style>
  </defs>
  <g id="_x33_219">
    <path class="cls-1" d="M9.01,23.51H0l10.99-9.84h7.76l-9.74,9.84ZM15.64,32.5h.16v-.16h-.16v.16ZM0,26.01h21.98v21.99H0v-21.99ZM13.14,35h5.16v-5.16h-5.16v5.16ZM23.48,13.67h-1.21l-9.74,9.84h10.18l3.29-3.32c-1.16-2.15-2.09-4.37-2.52-6.51ZM24.48,25.27v21.92l9.75-9.29v-6.45c-1.78-1.96-4.59-5.29-6.93-9.04l-2.83,2.85ZM48,11.15c0,6.91-8.37,16.47-11.15,19.45-1.12-1.2-3.13-3.46-5.15-6.18-.02-.03-.04-.06-.07-.09-.87-1.18-1.73-2.44-2.52-3.74,0,0,0,0,0,0h0c-.45-.75-.88-1.5-1.28-2.26h0s0,0,0,0c-.14-.28-.28-.56-.41-.84-.07-.15-.15-.3-.21-.46-.12-.27-.23-.54-.34-.81-.06-.15-.12-.31-.18-.46-.1-.28-.2-.55-.29-.82-.04-.14-.08-.27-.12-.41-.35-1.16-.57-2.3-.57-3.38,0-6.15,5-11.15,11.15-11.15s11.15,5,11.15,11.15ZM41.1,11.22c0-2.34-1.91-4.25-4.25-4.25s-4.25,1.91-4.25,4.25,1.91,4.25,4.25,4.25,4.25-1.91,4.25-4.25Z"/>
  </g>
</svg>