<?xml version="1.0" encoding="UTF-8"?>
<svg id="Ebene_2" xmlns="http://www.w3.org/2000/svg" viewBox="0 0 32 32">
  <defs>
    <style>
      .cls-1 {
        fill: #1e1e1c;
      }
    </style>
  </defs>
  <g id="_x33_219">
    <path class="cls-1" d="M7.4,22.72L0,30.11v-15.2l7.4,7.81ZM14.93,24.45c-.78.83-1.83,1.3-2.95,1.3s-2.17-.46-2.95-1.3l-.26-.27-7.84,7.83h22.09l-7.84-7.83-.26.27ZM13.47,23.08l4.77-5.04c-1.03-1.45-2.02-3.04-2.79-4.67H1.3l9.19,9.7c.81.87,2.18.86,2.98,0ZM19.45,19.67l-2.89,3.05,7.4,7.39v-5.36l-.66-.66c-.16-.16-1.91-1.93-3.85-4.42ZM24.01,9.93c1.05,0,1.9-.85,1.9-1.9s-.85-1.89-1.9-1.89-1.9.85-1.9,1.89.85,1.9,1.9,1.9ZM24.01,21.93s-.03-.03-.04-.05h0s0,0,0,0c-.17-.18-.36-.4-.58-.63-.03-.03-.05-.06-.08-.09-.69-.77-1.55-1.79-2.46-2.96,0,0,0,0,0,0h0c-.4-.52-.8-1.07-1.2-1.64h0s0,0,0,0c-1.91-2.74-3.63-5.93-3.63-8.58,0-4.4,3.59-7.98,7.99-7.98s7.99,3.58,7.99,7.98c0,4.91-5.92,11.72-7.99,13.95ZM20.11,8.03c0,2.15,1.75,3.9,3.9,3.9s3.9-1.75,3.9-3.9-1.75-3.89-3.9-3.89-3.9,1.75-3.9,3.89Z"/>
  </g>
</svg>