<?xml version="1.0" encoding="UTF-8"?>
<svg id="Ebene_2" xmlns="http://www.w3.org/2000/svg" viewBox="0 0 64 64">
  <defs>
    <style>
      .cls-1 {
        fill: #1e1e1c;
      }
    </style>
  </defs>
  <g id="_x33_219">
    <path class="cls-1" d="M11.83,31.63H0l15.13-13.55h10.11l-13.41,13.55ZM.05,34.38h29.59v29.62H.05v-29.62ZM19.1,45.46h6.27v-6.28h-6.27v6.28ZM30.88,18.07h-1.77l-13.41,13.55h14.74l4.02-4.07c-1.71-3.13-3.05-6.39-3.58-9.49ZM32.38,33.57v29.74l13.43-12.81v-7.56c-2.39-2.6-6.55-7.44-9.92-12.92l-3.51,3.55ZM64,15.33c0,9.61-11.8,22.91-15.31,26.65-3.51-3.74-15.31-17.05-15.31-26.65,0-8.45,6.87-15.33,15.31-15.33s15.31,6.88,15.31,15.33ZM54.56,15.42c0-3.24-2.64-5.88-5.88-5.88s-5.88,2.64-5.88,5.88,2.64,5.88,5.88,5.88,5.88-2.64,5.88-5.88Z"/>
  </g>
</svg>