<?xml version="1.0" encoding="UTF-8"?>
<svg id="Ebene_2" xmlns="http://www.w3.org/2000/svg" viewBox="0 0 38.52 48">
  <defs>
    <style>
      .cls-1 {
        fill: #1e1e1c;
      }
    </style>
  </defs>
  <g id="_x33_219">
    <path class="cls-1" d="M36.92,16.49h-5.39v-4.22c0-6.76-5.5-12.27-12.27-12.27S6.99,5.5,6.99,12.27v4.22H1.59c-.88,0-1.59.72-1.59,1.6v26.17c0,2.07,1.68,3.75,3.75,3.75h31.02c2.07,0,3.75-1.68,3.75-3.75v-26.17c0-.88-.72-1.6-1.59-1.6ZM21.99,32.7v2.37c0,1.47-1.19,2.67-2.67,2.67s-2.67-1.19-2.67-2.67v-2.37c-.81-.73-1.33-1.78-1.33-2.96,0-2.21,1.79-4,4-4s4,1.79,4,4c0,1.18-.52,2.23-1.33,2.96ZM27.03,16.49h-15.54v-4.22c0-4.28,3.48-7.77,7.77-7.77s7.77,3.49,7.77,7.77v4.22Z"/>
  </g>
</svg>