<?xml version="1.0" encoding="UTF-8"?>
<svg id="Ebene_2" xmlns="http://www.w3.org/2000/svg" viewBox="0 0 13.51 16">
  <defs>
    <style>
      .cls-1 {
        fill: #1e1e1c;
      }
    </style>
  </defs>
  <g id="_x33_219">
    <path class="cls-1" d="M4.17,5.49v-1.4c0-1.43,1.16-2.59,2.59-2.59s2.59,1.16,2.59,2.59h1.5c0-2.26-1.84-4.09-4.09-4.09S2.66,1.84,2.66,4.09v1.4H0v8.75c0,.97.79,1.75,1.75,1.75h10.01c.97,0,1.75-.79,1.75-1.75V5.49H4.17ZM12.01,14.25c0,.14-.11.25-.25.25H1.75c-.14,0-.25-.11-.25-.25v-7.25h10.51v7.25ZM5.14,11.64c0,.9.74,1.64,1.64,1.64s1.64-.74,1.64-1.64v-.5c.29-.36.44-.81.44-1.28,0-1.15-.94-2.09-2.08-2.09s-2.09.94-2.09,2.09c0,.46.16.91.44,1.28v.5ZM6.78,9.27c.32,0,.58.26.58.58,0,.22-.12.36-.2.43l-.25.22v1.12c0,.15-.28.15-.28,0v-1.12l-.25-.22c-.07-.07-.2-.21-.2-.43,0-.32.26-.58.58-.58Z"/>
  </g>
</svg>