<?xml version="1.0" encoding="UTF-8"?>
<svg id="Ebene_2" xmlns="http://www.w3.org/2000/svg" viewBox="0 0 32.28 40">
  <defs>
    <style>
      .cls-1 {
        fill: #1e1e1c;
      }
    </style>
  </defs>
  <g id="_x33_219">
    <path class="cls-1" d="M30.8,13.73H8.91v-4.25c0-3.99,3.24-7.23,7.23-7.23s7.23,3.24,7.23,7.23h2.25c0-5.23-4.25-9.48-9.48-9.48S6.66,4.25,6.66,9.48v4.25H1.47c-.81,0-1.47.66-1.47,1.47v21.42c0,1.86,1.51,3.38,3.38,3.38h25.52c1.86,0,3.38-1.51,3.38-3.38V15.2c0-.81-.66-1.47-1.47-1.47ZM30.03,36.62c0,.62-.5,1.13-1.13,1.13H3.38c-.62,0-1.13-.5-1.13-1.13V15.98h27.77v20.64ZM12.85,29.31c0,1.85,1.5,3.35,3.35,3.35s3.35-1.5,3.35-3.35v-1.52c.71-.81,1.11-1.85,1.11-2.93,0-2.46-2-4.46-4.46-4.46s-4.46,2-4.46,4.46c0,1.08.4,2.12,1.11,2.93v1.52ZM16.19,22.66c1.22,0,2.21.99,2.21,2.21,0,.62-.26,1.2-.74,1.63l-.37.34v2.48c0,.61-.49,1.1-1.1,1.1s-1.1-.49-1.1-1.1v-2.48l-.37-.34c-.48-.43-.74-1.01-.74-1.63,0-1.22.99-2.21,2.21-2.21Z"/>
  </g>
</svg>