<?xml version="1.0" encoding="UTF-8"?>
<svg id="Ebene_2" xmlns="http://www.w3.org/2000/svg" viewBox="0 0 19.77 24">
  <defs>
    <style>
      .cls-1 {
        fill: #1e1e1c;
      }
    </style>
  </defs>
  <g id="_x33_219">
    <path class="cls-1" d="M18.55,8.24h-2.78v-2.35c0-3.25-2.64-5.89-5.89-5.89S4,2.64,4,5.89v2.35H1.22c-.67,0-1.22.55-1.22,1.22v11.91c0,1.45,1.18,2.63,2.63,2.63h14.52c1.45,0,2.63-1.18,2.63-2.63v-11.91c0-.67-.55-1.22-1.22-1.22ZM5.75,5.89c0-2.28,1.86-4.14,4.14-4.14s4.14,1.86,4.14,4.14v2.35H5.75v-2.35ZM18.02,21.37c0,.48-.39.88-.88.88H2.63c-.48,0-.88-.39-.88-.88v-11.38h16.27v11.38ZM7.71,17.79c0,1.22.99,2.21,2.21,2.21s2.21-.99,2.21-2.21v-.84c.43-.51.67-1.16.67-1.83,0-1.59-1.29-2.88-2.88-2.88s-2.88,1.29-2.88,2.88c0,.67.24,1.32.67,1.83v.84ZM9.92,13.99c.62,0,1.13.51,1.13,1.13,0,.32-.13.61-.38.83l-.29.26v1.58c0,.25-.21.46-.46.46s-.46-.21-.46-.46v-1.58l-.29-.26c-.24-.22-.38-.51-.38-.83,0-.62.51-1.13,1.13-1.13Z"/>
  </g>
</svg>