<?xml version="1.0" encoding="UTF-8"?>
<svg id="Ebene_2" xmlns="http://www.w3.org/2000/svg" viewBox="0 0 24 24">
  <defs>
    <style>
      .cls-1 {
        fill: #1e1e1c;
      }
    </style>
  </defs>
  <g id="_x33_219">
    <path class="cls-1" d="M23.72,20.09c0,2.16-1.75,3.91-3.91,3.91s-3.91-1.75-3.91-3.91,1.75-3.91,3.91-3.91,3.91,1.75,3.91,3.91ZM3.94,16.18C1.79,16.18.03,17.93.03,20.09s1.75,3.91,3.91,3.91,3.91-1.75,3.91-3.91-1.75-3.91-3.91-3.91ZM24,12.52v3h-7.33s-.82-.06-1.37.39v7.21h-5.88v-2.96c0-2.75-2.24-4.99-4.98-4.99-.74,0-2.92.02-2.92.02H0S0,.02,0,.02l7.71-.02c1.71,0,4.41.81,6.09,3.35V1.25c0-.14.11-.25.25-.25h2.53c.14,0,.25.11.25.25v11.27s.05,0,.06,0h7.1ZM3,3.02v5.19h5.22l2.72,2.56h1.36v-1.75c0-5.74-4.1-6-4.6-6.01H3Z"/>
  </g>
</svg>