<?xml version="1.0" encoding="UTF-8"?>
<svg id="Ebene_2" xmlns="http://www.w3.org/2000/svg" viewBox="0 0 16 16">
  <defs>
    <style>
      .cls-1 {
        fill: #1e1e1c;
      }
    </style>
  </defs>
  <g id="_x33_219">
    <path class="cls-1" d="M8,9.25H0v-2.5h8l-.93-.93c-.49-.49-.49-1.28,0-1.77s1.28-.49,1.77,0l3.95,3.94-3.95,3.94c-.24.24-.56.37-.88.37s-.64-.12-.88-.37c-.49-.49-.49-1.28,0-1.77l.93-.93ZM13.79,0H3.2v2.5h10.3v11H3.2v2.5h10.59c1.22,0,2.21-.99,2.21-2.21V2.21c0-1.22-.99-2.21-2.21-2.21Z"/>
  </g>
</svg>