<?xml version="1.0" encoding="UTF-8"?>
<svg id="Ebene_2" xmlns="http://www.w3.org/2000/svg" viewBox="0 0 32 32">
  <defs>
    <style>
      .cls-1 {
        fill: #1e1e1c;
      }
    </style>
  </defs>
  <g id="_x33_219">
    <path class="cls-1" d="M25.71,21.07c-3.02,0-5.48,2.45-5.48,5.47s2.46,5.47,5.48,5.47,5.48-2.45,5.48-5.47-2.46-5.47-5.48-5.47ZM25.71,30c-1.92,0-3.48-1.56-3.48-3.47s1.56-3.47,3.48-3.47,3.48,1.56,3.48,3.47-1.56,3.47-3.48,3.47ZM5.51,21.07C2.49,21.07.03,23.52.03,26.53s2.46,5.47,5.48,5.47,5.48-2.45,5.48-5.47-2.46-5.47-5.48-5.47ZM5.51,30c-1.92,0-3.48-1.56-3.48-3.47s1.56-3.47,3.48-3.47,3.48,1.56,3.48,3.47-1.56,3.47-3.48,3.47ZM23.29,17.85c-.14-.01-.5-.03-.97.02V1.88c0-.69-.56-1.25-1.25-1.25h-2.49c-.69,0-1.25.56-1.25,1.25v2.23C14.54.07,9.81,0,9.74,0H0v18.83h5.12c4.49,0,8.15,3.65,8.15,8.13v3.04h6.07v-6.08c0-1.48.38-2.57,1.13-3.24,1.08-.98,2.67-.84,2.68-.83h8.87s0-1.99,0-1.99h-8.71ZM19.33,2.62h.99v15.22h-.99V2.62ZM9.74,2c.33,0,7.59.18,7.59,9.57v2.93h-3.66l-3.65-3.41H2V2h7.73ZM17.33,28h-2.06v-1.05c0-5.58-4.55-10.12-10.15-10.12h-3.12v-3.76h7.23l3.65,3.41h4.45v11.51Z"/>
  </g>
</svg>