<?xml version="1.0" encoding="UTF-8"?>
<svg id="Ebene_2" xmlns="http://www.w3.org/2000/svg" viewBox="0 0 64 64">
  <defs>
    <style>
      .cls-1 {
        fill: #1e1e1c;
      }
    </style>
  </defs>
  <g id="_x33_219">
    <path class="cls-1" d="M42.56,33.37H0v-2.75h42.56l-11.03-11.03c-.54-.54-.54-1.41,0-1.95.54-.54,1.41-.54,1.95,0l14.35,14.35-14.35,14.35c-.27.27-.62.4-.97.4s-.7-.13-.97-.4c-.54-.54-.54-1.41,0-1.95l11.03-11.03ZM58.57,0H11.55v2.75h47.02c1.48,0,2.68,1.22,2.68,2.71v53.08c0,1.49-1.2,2.71-2.68,2.71H11.55v2.75h47.02c2.99,0,5.43-2.45,5.43-5.46V5.46c0-3.01-2.44-5.46-5.43-5.46Z"/>
  </g>
</svg>