<?xml version="1.0" encoding="UTF-8"?>
<svg id="Ebene_2" xmlns="http://www.w3.org/2000/svg" viewBox="0 0 24 24">
  <defs>
    <style>
      .cls-1 {
        fill: #1e1e1c;
      }
    </style>
  </defs>
  <g id="_x33_219">
    <path class="cls-1" d="M19.81,16.18c-2.15,0-3.91,1.75-3.91,3.91s1.75,3.91,3.91,3.91,3.91-1.75,3.91-3.91-1.75-3.91-3.91-3.91ZM19.81,22.25c-1.19,0-2.16-.97-2.16-2.16s.97-2.16,2.16-2.16,2.16.97,2.16,2.16-.97,2.16-2.16,2.16ZM3.95,16.18C1.79,16.18.04,17.93.04,20.09s1.75,3.91,3.91,3.91,3.91-1.75,3.91-3.91-1.75-3.91-3.91-3.91ZM3.95,22.25c-1.19,0-2.16-.97-2.16-2.16s.97-2.16,2.16-2.16,2.16.97,2.16,2.16-.97,2.16-2.16,2.16ZM17.71,13.15V1.39c0-.62-.5-1.13-1.12-1.13h-2.53c-.62,0-1.12.51-1.12,1.13v1.42C10.79.05,7.44,0,7.39,0H0v14.14h3.95c3.28,0,5.95,2.67,5.95,5.95v2.41h4.78v-4.68c0-1.07.27-1.85.8-2.33.48-.44,1.11-.56,1.54-.59h6.99v-1.75h-6.29ZM14.68,2.01h1.28v11.13h-1.28V2.01ZM7.39,1.75c.25,0,5.54.15,5.54,7.03v1.11h-2.55l-2.72-2.55H1.75V1.75h5.64ZM12.93,20.75h-1.28v-.66c0-4.25-3.45-7.7-7.7-7.7H1.75v-3.3h5.21l2.72,2.55h3.24v9.1Z"/>
  </g>
</svg>