<?xml version="1.0" encoding="UTF-8"?>
<svg id="Ebene_2" xmlns="http://www.w3.org/2000/svg" viewBox="0 0 40 40">
  <defs>
    <style>
      .cls-1 {
        fill: #1e1e1c;
      }
    </style>
  </defs>
  <g id="_x33_219">
    <path class="cls-1" d="M39.03,33.07c0,3.72-3.03,6.75-6.75,6.75s-6.75-3.03-6.75-6.75,3.03-6.75,6.75-6.75,6.75,3.03,6.75,6.75ZM6.75,26.5c-3.72,0-6.75,3.03-6.75,6.75s3.03,6.75,6.75,6.75,6.75-3.03,6.75-6.75-3.03-6.75-6.75-6.75ZM40,21.57v4h-11.21s-1.69-.15-2.79.86c-.77.7-1.16,1.89-1.16,3.52v8.4h-8.88v-4.46c0-4.95-4.03-8.98-8.98-8.98-1.25,0-4.95.02-4.95.02H.02S.02.02.02.02l12.51-.02c.09,0,6.85.1,10.31,6.13V1.65c0-.14.11-.25.25-.25h3.25c.14,0,.25.11.25.25v20.14c1.16-.27,2.14-.25,2.51-.22h10.9ZM4.02,4.02v9.91h8.34l4.58,4.3h3.9v-3.51c0-10.29-7.44-10.7-8.32-10.72l-8.5.02Z"/>
  </g>
</svg>