<?xml version="1.0" encoding="UTF-8"?>
<svg id="Ebene_2" xmlns="http://www.w3.org/2000/svg" viewBox="0 0 48 48">
  <defs>
    <style>
      .cls-1 {
        fill: #1e1e1c;
      }
    </style>
  </defs>
  <g id="_x33_219">
    <path class="cls-1" d="M38.62,31.95c-4.42,0-8.02,3.6-8.02,8.02s3.6,8.02,8.02,8.02,8.02-3.6,8.02-8.02-3.6-8.02-8.02-8.02ZM38.62,45.5c-3.05,0-5.52-2.48-5.52-5.52s2.48-5.52,5.52-5.52,5.52,2.48,5.52,5.52-2.48,5.52-5.52,5.52ZM8.07,31.95C3.64,31.95.04,35.55.04,39.98s3.6,8.02,8.02,8.02,8.02-3.6,8.02-8.02-3.6-8.02-8.02-8.02ZM8.07,45.5c-3.05,0-5.52-2.48-5.52-5.52s2.48-5.52,5.52-5.52,5.52,2.48,5.52,5.52-2.48,5.52-5.52,5.52ZM34.95,27.06c-.22-.02-.88-.05-1.73.05V2.45c0-.83-.67-1.5-1.5-1.5h-4.02c-.83,0-1.5.67-1.5,1.5v4.42C22.15.11,14.57,0,14.46,0H0v28.03h7.47c6.94,0,12.58,5.65,12.58,12.59v4.35h8.65v-8.96c0-2.32.6-4.04,1.79-5.12,1.73-1.56,4.23-1.32,4.25-1.33h13.25s0-2.49,0-2.49h-13.05ZM28.7,3.45h2.02v23.61h-2.02V3.45ZM14.46,2.5c.48,0,11.74.17,11.74,14.77v4.71h-5.9l-5.51-5.18H2.5V2.5h11.96ZM26.21,42.46h-3.65v-1.85c0-8.32-6.77-15.09-15.08-15.09H2.5v-6.23h11.3l5.51,5.18h6.89v17.99Z"/>
  </g>
</svg>