<?xml version="1.0" encoding="UTF-8"?>
<svg id="Ebene_2" xmlns="http://www.w3.org/2000/svg" viewBox="0 0 16 16">
  <defs>
    <style>
      .cls-1 {
        fill: #1e1e1c;
      }
    </style>
  </defs>
  <g id="_x33_219">
    <path class="cls-1" d="M13.23,10.5c-1.52,0-2.75,1.23-2.75,2.75s1.24,2.75,2.75,2.75,2.75-1.23,2.75-2.75-1.24-2.75-2.75-2.75ZM13.23,14.5c-.69,0-1.25-.56-1.25-1.25s.56-1.25,1.25-1.25,1.25.56,1.25,1.25-.56,1.25-1.25,1.25ZM2.75,10.5c-1.52,0-2.75,1.23-2.75,2.75s1.24,2.75,2.75,2.75,2.75-1.23,2.75-2.75-1.24-2.75-2.75-2.75ZM2.75,14.5c-.69,0-1.25-.56-1.25-1.25s.56-1.25,1.25-1.25,1.25.56,1.25,1.25-.56,1.25-1.25,1.25ZM12.02,8.5V1c0-.55-.45-1-1-1h-1.5c-.55,0-1,.45-1,1v.56C7.06.03,5.06,0,5.03,0H0v9.5h2.75c2.07,0,3.76,1.68,3.76,3.75v1.76h3.51v-3.26c0-.65.16-1.12.47-1.41.31-.28.73-.34.98-.34h4.54v-1.5h-3.98ZM10.02,1.5h.5v7h-.5V1.5ZM5.03,1.5c.14,0,3.48.05,3.48,4.46v.39h-1.44l-1.8-1.68H1.5V1.5h3.53ZM8.51,13.51h-.5v-.26c0-2.9-2.36-5.25-5.26-5.25h-1.25v-1.83h3.18l1.8,1.68h2.04v5.66Z"/>
  </g>
</svg>