<?xml version="1.0" encoding="UTF-8"?>
<svg id="Ebene_2" xmlns="http://www.w3.org/2000/svg" viewBox="0 0 48 48">
  <defs>
    <style>
      .cls-1 {
        fill: #1e1e1c;
      }
    </style>
  </defs>
  <g id="_x33_219">
    <path class="cls-1" d="M35.32,33.15l7.89-7.9H11.85v-2.5h31.37l-7.89-7.9c-.49-.49-.49-1.28,0-1.77s1.28-.49,1.77,0l10.91,10.92-10.91,10.92c-.24.24-.56.37-.88.37s-.64-.12-.88-.37c-.49-.49-.49-1.28,0-1.77ZM2.5,43.72V4.28c0-.98.8-1.78,1.77-1.78h35.05V0H4.27C1.92,0,0,1.92,0,4.28v39.43c0,2.36,1.92,4.28,4.27,4.28h35.05v-2.5H4.27c-.98,0-1.77-.8-1.77-1.78Z"/>
  </g>
</svg>