<?xml version="1.0" encoding="UTF-8"?>
<svg id="Ebene_2" xmlns="http://www.w3.org/2000/svg" viewBox="0 0 16 16">
  <defs>
    <style>
      .cls-1 {
        fill: #1e1e1c;
      }
    </style>
  </defs>
  <g id="_x33_219">
    <path class="cls-1" d="M11.11,10.76l2.01-2.01H3.63v-1.5h9.49l-2.01-2.01c-.29-.29-.29-.77,0-1.06s.77-.29,1.06,0l3.83,3.83-3.83,3.83c-.15.15-.34.22-.53.22s-.39-.07-.53-.22c-.29-.29-.29-.77,0-1.06ZM1.5,14.21V1.79c0-.16.13-.28.28-.28h11.4V0H1.79C.8,0,0,.8,0,1.79v12.42c0,.99.8,1.79,1.79,1.79h11.4v-1.5H1.79c-.16,0-.28-.13-.28-.28Z"/>
  </g>
</svg>