<?xml version="1.0" encoding="UTF-8"?>
<svg id="Ebene_2" xmlns="http://www.w3.org/2000/svg" viewBox="0 0 40 40">
  <defs>
    <style>
      .cls-1 {
        fill: #1e1e1c;
      }
    </style>
  </defs>
  <g id="_x33_219">
    <path class="cls-1" d="M27.78,26.55l4.55-4.55H8.85v-4h23.48l-4.55-4.55c-.78-.78-.78-2.05,0-2.83s2.05-.78,2.83,0l9.39,9.38-9.39,9.38c-.39.39-.9.59-1.42.59s-1.02-.2-1.42-.59c-.78-.78-.78-2.05,0-2.83ZM4,35.6V4.4c0-.22.18-.4.39-.4h27.78V0H4.4C1.97,0,0,1.97,0,4.4v31.2c0,2.43,1.97,4.4,4.4,4.4h27.78v-4H4.4c-.22,0-.39-.18-.39-.4Z"/>
  </g>
</svg>