<?xml version="1.0" encoding="UTF-8"?>
<svg id="Ebene_2" xmlns="http://www.w3.org/2000/svg" viewBox="0 0 32 32">
  <defs>
    <style>
      .cls-1 {
        fill: #1e1e1c;
      }
    </style>
  </defs>
  <g id="_x33_219">
    <path class="cls-1" d="M21.95,21.11l3.35-3.36H7v-3.5h18.3l-3.35-3.36c-.68-.68-.68-1.79,0-2.48s1.79-.68,2.47,0l7.58,7.59-7.58,7.59c-.34.34-.79.51-1.24.51s-.9-.17-1.24-.51c-.68-.68-.68-1.79,0-2.48ZM3.5,28.35V3.65c0-.08.07-.15.15-.15h22.01V0H3.65C1.64,0,0,1.64,0,3.65v24.7c0,2.01,1.64,3.65,3.65,3.65h22.01v-3.5H3.65c-.08,0-.15-.07-.15-.15Z"/>
  </g>
</svg>