<?xml version="1.0" encoding="UTF-8"?>
<svg id="Ebene_2" xmlns="http://www.w3.org/2000/svg" viewBox="0 0 16 16">
  <defs>
    <style>
      .cls-1 {
        fill: #1e1e1c;
      }
    </style>
  </defs>
  <g id="_x33_219">
    <path class="cls-1" d="M10.28,10.18l.93-.93h-6.71v-2.5h6.71l-.93-.93c-.49-.49-.49-1.28,0-1.77s1.28-.49,1.77,0l3.95,3.95-3.95,3.95c-.24.24-.56.37-.88.37s-.64-.12-.88-.37c-.49-.49-.49-1.28,0-1.77ZM2.5,2.5h10.3V0H2.21C.99,0,0,.99,0,2.22v11.57c0,1.22.99,2.22,2.21,2.22h10.59v-2.5H2.5V2.5Z"/>
  </g>
</svg>