<?xml version="1.0" encoding="UTF-8"?>
<svg id="Ebene_2" xmlns="http://www.w3.org/2000/svg" viewBox="0 0 40 40">
  <defs>
    <style>
      .cls-1 {
        fill: #1e1e1c;
      }
    </style>
  </defs>
  <g id="_x33_219">
    <path class="cls-1" d="M24.05,40h-4.05C8.97,40,0,31.03,0,20c0-5.46,2.16-10.55,6.07-14.35C9.99,1.85,15.14-.18,20.61.01c10.69.32,19.39,9.64,19.39,20.78v8.57c0,3.22-2.62,5.84-5.84,5.84s-5.84-2.62-5.84-5.84v-2.84c-.5.64-.9,1.01-.95,1.06-2.52,2.47-6,3.48-9.55,2.77-3.96-.8-7.22-3.97-8.1-7.89-.73-3.24.02-6.55,2.06-9.08,2.02-2.5,5.01-3.93,8.22-3.93h.1c5.77.05,10.46,5.02,10.46,11.07h0v8.85c0,1.98,1.61,3.6,3.59,3.6s3.6-1.61,3.6-3.6v-8.57c0-9.94-7.72-18.25-17.21-18.54-4.85-.13-9.43,1.63-12.91,5-3.48,3.37-5.39,7.9-5.39,12.74,0,9.79,7.96,17.75,17.75,17.75h4.05c.62,0,1.12.5,1.12,1.12s-.5,1.12-1.12,1.12ZM20,11.69c-2.53,0-4.88,1.12-6.47,3.1-1.61,1.99-2.2,4.61-1.62,7.17.69,3.08,3.25,5.56,6.35,6.19,2.81.56,5.56-.24,7.56-2.2.05-.05,2.49-2.35,2.5-5.43,0-4.82-3.7-8.78-8.24-8.82h-.08Z"/>
  </g>
</svg>