<?xml version="1.0" encoding="UTF-8"?>
<svg id="Ebene_2" xmlns="http://www.w3.org/2000/svg" viewBox="0 0 23.72 32">
  <defs>
    <style>
      .cls-1 {
        fill: #1e1e1c;
      }
    </style>
  </defs>
  <g id="_x33_219">
    <path class="cls-1" d="M6.12,14.41V5.75c0-3.17,2.58-5.75,5.75-5.75s5.75,2.58,5.75,5.75v8.67c0,3.17-2.58,5.75-5.75,5.75s-5.75-2.58-5.75-5.75ZM21.97,9.8c-.97,0-1.75.78-1.75,1.75v2.54c0,4.61-3.75,8.35-8.36,8.35S3.5,18.69,3.5,14.09v-2.54c0-.97-.78-1.75-1.75-1.75s-1.75.78-1.75,1.75v2.54c0,5.94,4.4,10.86,10.11,11.71v2.71h-6.07v3.5h15.63v-3.5h-6.07v-2.71c5.71-.85,10.11-5.77,10.11-11.71v-2.54c0-.97-.78-1.75-1.75-1.75Z"/>
  </g>
</svg>