<?xml version="1.0" encoding="UTF-8"?>
<svg id="Ebene_2" xmlns="http://www.w3.org/2000/svg" viewBox="0 0 29.29 40">
  <defs>
    <style>
      .cls-1 {
        fill: #1e1e1c;
      }
    </style>
  </defs>
  <g id="_x33_219">
    <path class="cls-1" d="M7.65,17.95V7.02c0-3.87,3.14-7.02,7-7.02s7,3.15,7,7.02v10.94c0,3.87-3.14,7.02-7,7.02s-7-3.15-7-7.02ZM27.29,12.64c-1.1,0-2,.9-2,2v3.07c0,5.88-4.78,10.67-10.65,10.67s-10.65-4.79-10.65-10.67v-3.07c0-1.11-.9-2-2-2s-2,.9-2,2v3.07c0,7.41,5.52,13.54,12.65,14.53v3.75h-7.59v4.01h19.18v-4.01h-7.59v-3.75c7.13-.98,12.65-7.11,12.65-14.53v-3.07c0-1.11-.9-2-2-2Z"/>
  </g>
</svg>