<?xml version="1.0" encoding="UTF-8"?>
<svg id="Ebene_2" xmlns="http://www.w3.org/2000/svg" viewBox="0 0 16 16">
  <defs>
    <style>
      .cls-1 {
        fill: #1e1e1c;
      }
    </style>
  </defs>
  <g id="_x33_219">
    <path class="cls-1" d="M10.24,6.7L5.75,2.22C5.77.99,6.77,0,8,0s2.25,1.01,2.25,2.25v4.39s0,.05,0,.07ZM9.24,13.5v-.72L2.15,5.69s0,.02,0,.03v.92c0,2.79,1.97,5.14,4.6,5.71v1.16h-2.76v2.5h8.02v-.46l-2.04-2.04h-.72ZM13.84,6.63v-.92c0-.69-.56-1.25-1.25-1.25s-1.25.56-1.25,1.25v.92c0,.35-.07.69-.17,1.01l1.89,1.89c.49-.86.78-1.85.78-2.9ZM15.63,13.87L2.13.37C1.64-.12.85-.12.37.37S-.12,1.64.37,2.13l13.5,13.5c.24.24.56.37.88.37s.64-.12.88-.37c.49-.49.49-1.28,0-1.77Z"/>
  </g>
</svg>