<?xml version="1.0" encoding="UTF-8"?>
<svg id="Ebene_2" xmlns="http://www.w3.org/2000/svg" viewBox="0 0 16 16">
  <defs>
    <style>
      .cls-1 {
        fill: #1e1e1c;
      }
    </style>
  </defs>
  <g id="_x33_219">
    <path class="cls-1" d="M9.32,5.64v1.39s-.02.09-.03.14l1.18,1.18c.22-.39.35-.84.35-1.32V2.75c0-1.52-1.23-2.75-2.75-2.75h-.14c-1.52,0-2.75,1.23-2.75,2.75v.31l2.58,2.58h1.56ZM6.68,2.75c0-.69.56-1.25,1.25-1.25h.14c.69,0,1.25.56,1.25,1.25v1.39h-2.64v-1.39ZM7.63,9.75c-1.27-.14-2.28-1.15-2.42-2.42l2.42,2.42ZM12.68,10.55l-1.06-1.06c.51-.72.81-1.59.81-2.53v-2.07c0-.41.34-.75.75-.75s.75.34.75.75v2.07c0,1.36-.48,2.6-1.25,3.59ZM8.75,14.49h3.1v1.5h-7.71v-1.5h3.1v-1.66c-2.91-.37-5.17-2.86-5.17-5.87v-2.07c0-.19.08-.36.2-.5l1.3,1.3v1.26c0,2.44,1.98,4.42,4.42,4.42.38,0,.75-.06,1.11-.16l1.17,1.17c-.48.2-.99.37-1.53.43v1.66ZM15.78,15.78c-.15.15-.34.22-.53.22s-.38-.07-.53-.22L.22,1.28C-.07.99-.07.51.22.22S.99-.07,1.28.22l14.5,14.5c.29.29.29.77,0,1.06Z"/>
  </g>
</svg>