<?xml version="1.0" encoding="UTF-8"?>
<svg id="Ebene_2" xmlns="http://www.w3.org/2000/svg" viewBox="0 0 11.85 16">
  <defs>
    <style>
      .cls-1 {
        fill: #1e1e1c;
      }
    </style>
  </defs>
  <g id="_x33_219">
    <path class="cls-1" d="M5.85,9.79h.14c1.52,0,2.75-1.23,2.75-2.75V2.75c0-1.52-1.23-2.75-2.75-2.75h-.14c-1.52,0-2.75,1.23-2.75,2.75v4.28c0,1.52,1.23,2.75,2.75,2.75ZM4.6,2.75c0-.69.56-1.25,1.25-1.25h.14c.69,0,1.25.56,1.25,1.25v1.39h-2.64v-1.39ZM7.24,5.64v1.39c0,.69-.56,1.25-1.25,1.25h-.14c-.69,0-1.25-.56-1.25-1.25v-1.39h2.64ZM11.85,4.89v2.07c0,3.01-2.26,5.51-5.17,5.88v1.66h3.1v1.5H2.07v-1.5h3.1v-1.66c-2.91-.37-5.17-2.86-5.17-5.88v-2.07c0-.41.34-.75.75-.75s.75.34.75.75v2.07c0,2.44,1.98,4.43,4.42,4.43s4.42-1.99,4.42-4.43v-2.07c0-.41.34-.75.75-.75s.75.34.75.75Z"/>
  </g>
</svg>