<?xml version="1.0" encoding="UTF-8"?>
<svg id="Ebene_2" xmlns="http://www.w3.org/2000/svg" viewBox="0 0 11.7 16">
  <defs>
    <style>
      .cls-1 {
        fill: #1e1e1c;
      }
    </style>
  </defs>
  <g id="_x33_219">
    <path class="cls-1" d="M3.6,6.65V2.25c0-1.24,1.01-2.25,2.25-2.25s2.25,1.01,2.25,2.25v4.4c0,1.24-1.01,2.25-2.25,2.25s-2.25-1.01-2.25-2.25ZM10.45,4.48c-.69,0-1.25.56-1.25,1.25v.92c0,1.85-1.5,3.36-3.35,3.36s-3.35-1.51-3.35-3.36v-.92c0-.69-.56-1.25-1.25-1.25s-1.25.56-1.25,1.25v.92c0,2.8,1.97,5.15,4.6,5.73v1.12H1.84v2.51h8.02v-2.51h-2.76v-1.12c2.63-.58,4.6-2.92,4.6-5.73v-.92c0-.69-.56-1.25-1.25-1.25Z"/>
  </g>
</svg>