<?xml version="1.0" encoding="UTF-8"?>
<svg id="Ebene_2" xmlns="http://www.w3.org/2000/svg" viewBox="0 0 40 40">
  <defs>
    <style>
      .cls-1 {
        fill: #1e1e1c;
      }
    </style>
  </defs>
  <g id="_x33_219">
    <path class="cls-1" d="M22,36.01h7.59v3.99H10.4v-3.99h7.59v-3.9c-7.13-.98-12.65-7.08-12.65-14.45v-3.05c0-.8.47-1.48,1.15-1.8l2.85,2.84v2.01c0,5.85,4.78,10.62,10.65,10.62.63,0,1.24-.07,1.84-.17l3.24,3.23c-.98.36-2.02.62-3.08.77v3.9ZM27,17.9V7.02C27,3.17,23.86.04,20,.04s-6.78,2.92-6.98,6.59l13.6,13.55c.25-.72.39-1.48.39-2.28ZM13.19,19.49c.61,2.57,2.64,4.59,5.21,5.2l-5.21-5.2ZM34.65,17.66v-3.05c0-1.1-.9-1.99-2-1.99s-2,.89-2,1.99v3.05c0,1.88-.5,3.65-1.36,5.18l2.91,2.9c1.55-2.32,2.46-5.09,2.46-8.08ZM39.34,36.04L3.84.66C2.96-.22,1.54-.22.66.66-.22,1.53-.22,2.95.66,3.83l35.5,35.38c.44.44,1.02.66,1.59.66s1.15-.22,1.59-.66c.88-.88.88-2.3,0-3.17Z"/>
  </g>
</svg>