<?xml version="1.0" encoding="UTF-8"?>
<svg id="Ebene_2" xmlns="http://www.w3.org/2000/svg" viewBox="0 0 40 40">
  <defs>
    <style>
      .cls-1 {
        fill: #1e1e1c;
      }
    </style>
  </defs>
  <g id="_x33_219">
    <path class="cls-1" d="M21.12,37.74h7.98v2.25H10.9v-2.25h7.98v-5.78c-7.42-.58-13.29-6.79-13.29-14.36v-5.32c0-.62.5-1.13,1.13-1.13s1.13.5,1.13,1.13v5.32c0,6.71,5.46,12.17,12.17,12.17,1.92,0,3.72-.46,5.34-1.25l1.67,1.67c-1.77.99-3.76,1.61-5.88,1.78v5.77ZM21.82,25l-2.03-2.03c-2.53-.11-4.56-2.14-4.67-4.67l-2.27-2.27v2.06c0,3.94,3.21,7.15,7.15,7.15.63,0,1.24-.09,1.82-.24ZM14.68,11.5l-1.83-1.83v-2.52c0-3.94,3.21-7.15,7.15-7.15s7.15,3.21,7.15,7.15v10.95c0,1.65-.57,3.16-1.5,4.37l-1.61-1.61c.54-.79.86-1.74.86-2.77v-4.35h-7.97l-2.25-2.25h0ZM15.1,11.5h9.8v-4.35c0-2.7-2.2-4.9-4.9-4.9s-4.9,2.2-4.9,4.9v4.35ZM34.42,17.6v-5.32c0-.62-.5-1.13-1.13-1.13s-1.13.5-1.13,1.13v5.32c0,3.16-1.22,6.02-3.19,8.19l1.59,1.59c2.38-2.57,3.85-6,3.85-9.78ZM39.67,38.08L1.92.33C1.48-.11.77-.11.33.33-.11.77-.11,1.48.33,1.92l37.75,37.75c.22.22.51.33.8.33s.58-.11.8-.33c.44-.44.44-1.15,0-1.59Z"/>
  </g>
</svg>