<?xml version="1.0" encoding="UTF-8"?>
<svg id="Ebene_2" xmlns="http://www.w3.org/2000/svg" viewBox="0 0 10.5 16">
  <defs>
    <style>
      .cls-1 {
        fill: #1e1e1c;
      }
    </style>
  </defs>
  <g id="_x33_219">
    <path class="cls-1" d="M8.75,0H1.75C.79,0,0,.79,0,1.75v12.49c0,.97.79,1.75,1.75,1.75h7c.96,0,1.75-.79,1.75-1.75V1.75c0-.97-.79-1.75-1.75-1.75ZM1.75,1.5h7c.14,0,.25.11.25.25v8.17H1.5V1.75c0-.14.11-.25.25-.25ZM8.75,14.5H1.75c-.14,0-.25-.11-.25-.25v-2.82h7.5v2.82c0,.14-.11.25-.25.25ZM4.5,12.25h1.5v1.5h-1.5v-1.5Z"/>
  </g>
</svg>