<?xml version="1.0" encoding="UTF-8"?>
<svg id="Ebene_2" xmlns="http://www.w3.org/2000/svg" viewBox="0 0 64 64">
  <defs>
    <style>
      .cls-1 {
        fill: #1e1e1c;
      }
    </style>
  </defs>
  <g id="_x33_219">
    <path class="cls-1" d="M64,44.24v-1.8s0,0,0-.01c0,0,0-.01,0-.02v-6.59s0,0,0-.01c0-3.91-3.68-7.14-8.93-8.32V0H0v31.24h39.17c-1.2,1.33-1.9,2.89-1.9,4.58,0,0,0,0,0,.01h0v8.85c-2.37-2.37-6.45-3.92-11.17-3.92-7.5,0-13.37,3.87-13.37,8.81,0,.02,0,.04,0,.06v5.51s0,.03,0,.05c0,.02,0,.04,0,.06v.18h.01c.19,4.82,5.98,8.57,13.35,8.57,5.58,0,10.26-2.15,12.29-5.29,2.04,3.11,6.7,5.24,12.26,5.24,6.55,0,11.86-2.96,13.1-7h.27v-1.8s0,0,0-.01c0,0,0-.01,0-.02v-6.57s0,0,0-.01c0,0,0-.01,0-.02h0v-4.29ZM61.07,41.37c.11.34.18.7.18,1.05,0,3.29-4.86,6.07-10.62,6.07s-10.62-2.78-10.62-6.07c0-.36.07-.71.18-1.05,2.43,2,6.17,3.25,10.44,3.25s8.01-1.26,10.44-3.25ZM40.01,48.54c0-.22.03-.43.07-.65,2.43,2.05,6.21,3.35,10.55,3.35s8.12-1.3,10.55-3.35c.04.21.07.43.07.65,0,3.29-4.86,6.07-10.62,6.07s-10.62-2.78-10.62-6.07ZM61.25,35.81c0,3.29-4.86,6.07-10.62,6.07s-10.62-2.78-10.62-6.07,4.86-6.07,10.62-6.07,10.62,2.78,10.62,6.07ZM14.17,2.75h26.74v25.74H14.17V2.75ZM52.32,27.07c-.55-.04-1.11-.07-1.69-.07-2.58,0-4.96.47-6.98,1.27V2.75h8.67v24.33ZM2.75,2.75h8.67v25.74H2.75V2.75ZM26.09,43.5c5.76,0,10.62,2.78,10.62,6.07s-4.86,6.07-10.62,6.07-10.62-2.78-10.62-6.07,4.86-6.07,10.62-6.07ZM26.09,61.25c-5.76,0-10.62-2.78-10.62-6.07,0-.07,0-.13.01-.2,2.42,2.08,6.23,3.4,10.61,3.4s8.18-1.32,10.61-3.4c0,.07.01.13.01.2,0,3.29-4.86,6.07-10.62,6.07ZM50.63,61.21c-5.76,0-10.62-2.78-10.62-6.07,0-.36.07-.7.18-1.04,2.43,2,6.17,3.26,10.44,3.26s8.01-1.26,10.44-3.26c.11.34.18.69.18,1.04,0,3.29-4.86,6.07-10.62,6.07ZM27.53,7.27c-4.61,0-8.35,3.74-8.35,8.35s3.75,8.34,8.35,8.34,8.35-3.74,8.35-8.34-3.75-8.35-8.35-8.35ZM27.53,21.22c-3.09,0-5.6-2.51-5.6-5.6s2.51-5.6,5.6-5.6,5.6,2.51,5.6,5.6-2.51,5.6-5.6,5.6Z"/>
  </g>
</svg>