<?xml version="1.0" encoding="UTF-8"?>
<svg id="Ebene_2" xmlns="http://www.w3.org/2000/svg" viewBox="0 0 48 48">
  <defs>
    <style>
      .cls-1 {
        fill: #1e1e1c;
      }
    </style>
  </defs>
  <g id="_x33_219">
    <path class="cls-1" d="M47.98,21.55c0-3.64-3.13-6.69-7.69-8.01V0H0v25.51h22.36v1.68c0,.08-.01.16-.01.24,0,.06.01.12.01.18v5.54c0,.08-.01.16-.01.24,0,.06.01.12.01.18v5.45c0,.08-.01.16-.01.24,0,.06.01.12.01.18v.94h.1c.79,4.34,6.08,7.6,12.7,7.6,7.14,0,12.73-3.78,12.81-8.62h.01v-4.16h.02v-13.66h-.02ZM12.31,4.5h15.75v9.76c-3.26,1.45-5.43,3.89-5.68,6.75h-10.07V4.5ZM43.9,27.97c-.52,2.07-3.96,4.18-8.74,4.18s-8.22-2.1-8.74-4.18c2.27,1.43,5.33,2.3,8.74,2.3s6.46-.87,8.74-2.3ZM26.39,33.83c2.28,1.44,5.34,2.32,8.77,2.32s6.49-.88,8.77-2.32c-.42,2.11-3.91,4.29-8.77,4.29s-8.35-2.18-8.77-4.29ZM43.98,21.56c0,2.23-3.62,4.72-8.81,4.72s-8.81-2.49-8.81-4.72,3.62-4.71,8.81-4.71,8.81,2.48,8.81,4.71ZM35.79,12.86c-.21,0-.41-.02-.62-.02-.89,0-1.76.06-2.59.17V4.5h3.22v8.36ZM4.5,4.5h3.31v16.51h-3.31V4.5ZM35.16,44c-4.78,0-8.22-2.1-8.74-4.18,2.27,1.43,5.33,2.3,8.74,2.3s6.46-.87,8.74-2.3c-.52,2.07-3.96,4.18-8.74,4.18ZM20.14,17.68c-2.67,0-4.84-2.2-4.84-4.91s2.17-4.91,4.84-4.91,4.84,2.2,4.84,4.91-2.17,4.91-4.84,4.91Z"/>
  </g>
</svg>