<?xml version="1.0" encoding="UTF-8"?>
<svg id="Ebene_2" xmlns="http://www.w3.org/2000/svg" viewBox="0 0 40 40">
  <defs>
    <style>
      .cls-1 {
        fill: #1e1e1c;
      }
    </style>
  </defs>
  <g id="_x33_219">
    <path class="cls-1" d="M40,28.83v-4.8s0-.02,0-.03c0-.01,0-.02,0-.03v-5.33s0-.02,0-.03c0-2.94-3.11-5.29-7.29-5.71V0H0v18.86h22.41v8.77c-.8-2.65-4.22-4.59-8.45-4.59-4.84,0-8.62,2.54-8.62,5.78,0,0,0,0,0,0h0v5.6h.02c.17,3.14,3.88,5.56,8.61,5.56s8.43-2.42,8.61-5.56h.19c.17,3.14,3.88,5.56,8.61,5.56s8.62-2.54,8.62-5.78c0-.04,0-.08,0-.12h0v-4.96s0-.02,0-.03c0-.01,0-.02,0-.04v-.25ZM8.9,2.25h14.92v13.49h.05c-.23.28-.42.57-.59.87h-14.38V2.25ZM37.33,22.82c.26.37.41.77.41,1.18,0,1.88-2.98,3.53-6.37,3.53s-6.37-1.65-6.37-3.53c0-.41.16-.81.41-1.18,1.54.98,3.62,1.57,5.96,1.57s4.42-.6,5.96-1.57ZM25,29.11c0-.34.1-.67.28-.98,1.55,1.03,3.69,1.66,6.09,1.66s4.55-.63,6.09-1.66c.18.32.28.65.28.98,0,1.88-2.98,3.53-6.37,3.53s-6.37-1.65-6.37-3.53ZM37.75,18.61c0,1.88-2.98,3.53-6.37,3.53s-6.37-1.65-6.37-3.53,2.98-3.53,6.37-3.53,6.37,1.65,6.37,3.53ZM30.46,12.86c-1.66.11-3.16.53-4.4,1.17V2.25h4.4v10.61ZM2.25,2.25h4.4v14.36H2.25V2.25ZM13.97,25.29c3.39,0,6.37,1.65,6.37,3.53s-2.98,3.53-6.37,3.53-6.37-1.65-6.37-3.53,2.98-3.53,6.37-3.53ZM6.3,31.5s0,.01.01.02c0,0,0,.01-.01.02v-.04ZM13.97,37.74c-3.39,0-6.37-1.65-6.37-3.53,0-.41.16-.81.41-1.18,1.54.98,3.62,1.57,5.96,1.57s4.42-.6,5.96-1.57c.26.37.41.77.41,1.18,0,1.88-2.98,3.53-6.37,3.53ZM31.38,37.75c-3.39,0-6.37-1.65-6.37-3.53,0-.34.1-.67.28-.98,1.55,1.03,3.69,1.66,6.09,1.66s4.54-.63,6.09-1.66c.18.32.28.65.28.98,0,1.88-2.98,3.53-6.37,3.53ZM16.36,4.47c-2.72,0-4.93,2.22-4.93,4.96s2.21,4.96,4.93,4.96,4.93-2.22,4.93-4.96-2.21-4.96-4.93-4.96ZM16.36,12.14c-1.48,0-2.68-1.21-2.68-2.71s1.2-2.71,2.68-2.71,2.68,1.21,2.68,2.71-1.2,2.71-2.68,2.71Z"/>
  </g>
</svg>