<?xml version="1.0" encoding="UTF-8"?>
<svg id="Ebene_2" xmlns="http://www.w3.org/2000/svg" viewBox="0 0 48 48">
  <defs>
    <style>
      .cls-1 {
        fill: #1e1e1c;
      }
    </style>
  </defs>
  <g id="_x33_219">
    <path class="cls-1" d="M47.99,41.18s0-.05,0-.07c0-.02,0-.03,0-.05v-9.42h-.09v-.07s0-.05,0-.07c0-.02,0-.03,0-.05v-4.85s0-.05,0-.07c0-2.86-2.51-5.26-6.18-6.3V0H0v23.88h28.19c-.5.81-.78,1.71-.78,2.66,0,.06.01.11.01.17v4.68s-.01.08-.01.12c0,.06.01.11.01.17v.1h0c.01.22.04.44.08.66v.98c-1.72-2.13-5.08-3.55-9.03-3.55-5.75,0-10.25,3-10.25,6.84,0,.03,0,.07,0,.1v4.29s0,.05,0,.07c0,.03,0,.07,0,.1v.17h.01c.21,3.7,4.62,6.57,10.23,6.57,4.51,0,8.24-1.85,9.65-4.5,1.42,2.62,5.14,4.45,9.62,4.45,5.43,0,9.75-2.68,10.2-6.22h.04v-.55ZM45.37,31.08c.03.14.04.28.04.43,0,2.35-3.55,4.34-7.75,4.34s-7.75-1.99-7.75-4.34c0-.14.01-.29.04-.43,1.86,1.41,4.6,2.3,7.71,2.3s5.84-.88,7.71-2.3ZM29.91,36.5c0-.15.02-.31.05-.46,1.86,1.41,4.6,2.29,7.7,2.29s5.84-.88,7.7-2.29c.03.15.05.3.05.45,0,2.35-3.55,4.34-7.75,4.34s-7.75-1.99-7.75-4.34ZM45.41,26.54c0,2.35-3.55,4.34-7.75,4.34s-7.75-1.99-7.75-4.34,3.55-4.34,7.75-4.34,7.75,1.99,7.75,4.34ZM11.06,2.5h19.61v18.88H11.06V2.5ZM39.23,19.78c-.51-.05-1.03-.08-1.57-.08-1.62,0-3.14.25-4.49.68V2.5h6.06v17.28ZM2.5,2.5h6.06v18.88H2.5V2.5ZM18.48,32.36c4.2,0,7.75,1.99,7.75,4.34s-3.55,4.34-7.75,4.34-7.75-1.99-7.75-4.34,3.55-4.34,7.75-4.34ZM18.48,45.5c-4.17,0-7.7-1.96-7.74-4.29,1.87,1.43,4.62,2.32,7.74,2.32s5.88-.89,7.74-2.32c-.05,2.33-3.57,4.29-7.74,4.29ZM37.75,45.45c-4.2,0-7.75-1.99-7.75-4.34,0-.01,0-.02,0-.03,1.86,1.39,4.58,2.26,7.66,2.26s5.95-.91,7.82-2.37c0,.05.02.1.02.15,0,2.35-3.55,4.34-7.75,4.34ZM20.86,5.76c-3.39,0-6.15,2.77-6.15,6.18s2.76,6.18,6.15,6.18,6.15-2.77,6.15-6.18-2.76-6.18-6.15-6.18ZM20.86,15.62c-2.01,0-3.65-1.65-3.65-3.68s1.64-3.68,3.65-3.68,3.65,1.65,3.65,3.68-1.64,3.68-3.65,3.68Z"/>
  </g>
</svg>