<?xml version="1.0" encoding="UTF-8"?>
<svg id="Ebene_2" xmlns="http://www.w3.org/2000/svg" viewBox="0 0 24 24">
  <defs>
    <style>
      .cls-1 {
        fill: #1e1e1c;
      }
    </style>
  </defs>
  <g id="_x33_219">
    <path class="cls-1" d="M24,10.95c0-1.73-1.67-3.13-3.99-3.54V0H0v11.72h13.26v4.26c-.67-1.5-2.66-2.57-5.1-2.57-3.01,0-5.37,1.61-5.37,3.67,0,0,0,0,0,0h0v3.36h.02c.1,1.99,2.41,3.54,5.35,3.54,2.6,0,4.71-1.21,5.24-2.87.52,1.66,2.63,2.87,5.24,2.87,3.01,0,5.37-1.61,5.37-3.67,0-.02,0-.05,0-.07h0v-9.31h0ZM5.73,1.75h8.54v7.04c-.37.35-.63.75-.8,1.18h-7.74V1.75ZM22.12,13.74c.08.15.13.3.13.45,0,.91-1.49,1.92-3.62,1.92s-3.62-1.01-3.62-1.92c0-.15.05-.3.13-.45.93.54,2.14.88,3.49.88s2.56-.34,3.49-.88ZM15.01,17.26c0-.1.03-.21.06-.32.94.57,2.17.92,3.56.92s2.61-.35,3.56-.92c.04.11.06.21.06.32,0,.91-1.49,1.92-3.62,1.92s-3.62-1.01-3.62-1.92ZM22.25,10.95c0,.91-1.49,1.92-3.62,1.92s-3.62-1.01-3.62-1.92,1.49-1.92,3.62-1.92,3.62,1.01,3.62,1.92ZM18.26,7.31c-.81.04-1.57.19-2.24.44V1.75h2.24v5.55ZM1.75,1.75h2.24v8.22H1.75V1.75ZM8.16,15.17c2.13,0,3.62,1.01,3.62,1.92s-1.49,1.92-3.62,1.92-3.62-1.01-3.62-1.92,1.49-1.92,3.62-1.92ZM8.16,22.24c-2.13,0-3.62-1.01-3.62-1.92,0-.15.05-.3.13-.45.93.54,2.14.88,3.49.88s2.55-.34,3.49-.88c.08.15.13.3.13.45,0,.91-1.49,1.92-3.62,1.92ZM18.63,22.25c-2.13,0-3.62-1.01-3.62-1.92,0-.1.03-.21.06-.32.94.57,2.17.92,3.56.92s2.61-.35,3.56-.92c.04.11.06.21.06.32,0,.91-1.49,1.92-3.62,1.92ZM10,2.69c-1.74,0-3.16,1.42-3.16,3.18s1.42,3.18,3.16,3.18,3.16-1.42,3.16-3.18-1.42-3.18-3.16-3.18ZM10,7.29c-.78,0-1.41-.64-1.41-1.42s.63-1.42,1.41-1.42,1.41.64,1.41,1.42-.63,1.42-1.41,1.42Z"/>
  </g>
</svg>