<?xml version="1.0" encoding="UTF-8"?>
<svg id="Ebene_2" xmlns="http://www.w3.org/2000/svg" viewBox="0 0 9.76 40">
  <defs>
    <style>
      .cls-1 {
        fill: #1e1e1c;
      }
    </style>
  </defs>
  <g id="_x33_219">
    <path class="cls-1" d="M4.88,30.24c-2.69,0-4.88,2.19-4.88,4.88s2.19,4.88,4.88,4.88,4.88-2.19,4.88-4.88-2.19-4.88-4.88-4.88ZM4.88,37.75c-1.45,0-2.63-1.18-2.63-2.63s1.18-2.63,2.63-2.63,2.63,1.18,2.63,2.63-1.18,2.63-2.63,2.63ZM4.88,15.11c-2.69,0-4.88,2.19-4.88,4.88s2.19,4.88,4.88,4.88,4.88-2.19,4.88-4.88-2.19-4.88-4.88-4.88ZM4.88,22.62c-1.45,0-2.63-1.18-2.63-2.63s1.18-2.63,2.63-2.63,2.63,1.18,2.63,2.63-1.18,2.63-2.63,2.63ZM4.88,9.76c2.69,0,4.88-2.19,4.88-4.88S7.57,0,4.88,0,0,2.19,0,4.88s2.19,4.88,4.88,4.88ZM4.88,2.25c1.45,0,2.63,1.18,2.63,2.63s-1.18,2.63-2.63,2.63-2.63-1.18-2.63-2.63,1.18-2.63,2.63-2.63Z"/>
  </g>
</svg>