<?xml version="1.0" encoding="UTF-8"?>
<svg id="Ebene_2" xmlns="http://www.w3.org/2000/svg" viewBox="0 0 14.75 64">
  <defs>
    <style>
      .cls-1 {
        fill: #1e1e1c;
      }
    </style>
  </defs>
  <g id="_x33_219">
    <path class="cls-1" d="M7.38,49.25c-4.07,0-7.38,3.31-7.38,7.38s3.31,7.38,7.38,7.38,7.38-3.31,7.38-7.38-3.31-7.38-7.38-7.38ZM7.38,61.25c-2.55,0-4.63-2.08-4.63-4.63s2.08-4.63,4.63-4.63,4.63,2.08,4.63,4.63-2.08,4.63-4.63,4.63ZM7.38,24.61c-4.07,0-7.38,3.31-7.38,7.38s3.31,7.38,7.38,7.38,7.38-3.31,7.38-7.38-3.31-7.38-7.38-7.38ZM7.38,36.61c-2.55,0-4.63-2.08-4.63-4.63s2.08-4.63,4.63-4.63,4.63,2.08,4.63,4.63-2.08,4.63-4.63,4.63ZM7.38,14.75c4.07,0,7.38-3.31,7.38-7.38S11.44,0,7.38,0,0,3.31,0,7.38s3.31,7.38,7.38,7.38ZM7.38,2.75c2.55,0,4.63,2.08,4.63,4.63s-2.08,4.63-4.63,4.63-4.63-2.08-4.63-4.63S4.83,2.75,7.38,2.75Z"/>
  </g>
</svg>