<?xml version="1.0" encoding="UTF-8"?>
<svg id="Ebene_2" xmlns="http://www.w3.org/2000/svg" viewBox="0 0 40 40">
  <defs>
    <style>
      .cls-1 {
        fill: #1e1e1c;
      }
    </style>
  </defs>
  <g id="_x33_219">
    <path class="cls-1" d="M.01,0v33.54s-.01.05-.01.07.01.05.01.07v6.32h39.99V0H.01ZM10.8,34.73v3.01h-3.13v-3.01h3.13ZM13.05,34.73h3.13v3.01h-3.13v-3.01ZM18.42,34.73h3.13v3.01h-3.13v-3.01ZM23.8,34.73h3.13v3.01h-3.13v-3.01ZM29.18,34.73h3.13v3.01h-3.13v-3.01ZM2.26,32.48V7.51h35.49v24.98H2.26ZM29.18,5.25v-3h3.13v3h-3.13ZM26.93,5.25h-3.13v-3h3.13v3ZM21.55,5.25h-3.13v-3h3.13v3ZM16.17,5.25h-3.13v-3h3.13v3ZM10.8,5.25h-3.13v-3h3.13v3ZM37.75,5.25h-3.19v-3h3.19v3ZM5.42,2.25v3h-3.15v-3h3.15ZM2.26,34.73h3.15v3.01h-3.15v-3.01ZM34.56,37.75v-3.01h3.19v3.01h-3.19ZM27.39,18.62l-12.1-6.54c-.48-.26-1.05-.25-1.52.03-.47.28-.75.77-.76,1.32l-.06,12.17c0,.53.26,1.02.71,1.31.26.17.55.25.84.25.22,0,.44-.05.65-.14l12.16-5.63c.54-.25.88-.77.9-1.36.02-.59-.29-1.13-.81-1.41ZM15.2,24.51l.05-9.89,9.84,5.31-9.89,4.58Z"/>
  </g>
</svg>