<?xml version="1.0" encoding="UTF-8"?>
<svg id="Ebene_2" xmlns="http://www.w3.org/2000/svg" viewBox="0 0 16 16">
  <defs>
    <style>
      .cls-1 {
        fill: #1e1e1c;
      }
    </style>
  </defs>
  <g id="_x33_219">
    <path class="cls-1" d="M0,0v12.72s0,.02,0,.03,0,.02,0,.03v3.23h15.99V0H0ZM7.25,13.49v1.01h-2.13v-1.01h2.13ZM8.75,13.49h2.13v1.01h-2.13v-1.01ZM1.51,11.99v-7.99h13v7.99H1.51ZM8.75,2.5v-1h2.13v1h-2.13ZM7.25,2.5h-2.13v-1h2.13v1ZM14.5,2.5h-2.13v-1h2.13v1ZM3.63,1.5v1H1.51v-1h2.12ZM1.51,13.49h2.12v1.01H1.51v-1.01ZM12.37,14.5v-1.01h2.13v1.01h-2.13ZM10.99,7.19l-4.65-2.51c-.28-.15-.63-.15-.9.02-.28.16-.45.46-.45.78l-.02,4.68c0,.31.16.6.42.77.15.1.32.15.49.15.13,0,.26-.03.38-.08l4.67-2.16c.31-.15.52-.45.53-.8.01-.35-.17-.66-.48-.83ZM6.47,9.24v-2.77s2.77,1.49,2.77,1.49l-2.77,1.28Z"/>
  </g>
</svg>