<?xml version="1.0" encoding="UTF-8"?>
<svg id="Ebene_2" xmlns="http://www.w3.org/2000/svg" viewBox="0 0 64 64">
  <defs>
    <style>
      .cls-1 {
        fill: #1e1e1c;
      }
    </style>
  </defs>
  <g id="_x33_219">
    <path class="cls-1" d="M.03,0v54.83c-.02.08-.03.17-.03.25s.01.17.03.25v8.67h63.97V0H.03ZM15.31,56.46v4.8h-4.91v-4.8h4.91ZM18.06,56.46h4.91v4.8h-4.91v-4.8ZM25.72,56.46h4.91v4.8h-4.91v-4.8ZM33.37,56.46h4.91v4.8h-4.91v-4.8ZM41.03,56.46h4.91v4.8h-4.91v-4.8ZM48.69,56.46h4.91v4.8h-4.91v-4.8ZM2.77,53.71V10.27h58.48v43.43H2.77ZM48.69,7.53V2.75h4.91v4.78h-4.91ZM45.94,7.53h-4.91V2.75h4.91v4.78ZM38.28,7.53h-4.91V2.75h4.91v4.78ZM30.63,7.53h-4.91V2.75h4.91v4.78ZM22.97,7.53h-4.91V2.75h4.91v4.78ZM15.31,7.53h-4.91V2.75h4.91v4.78ZM61.25,7.53h-4.91V2.75h4.91v4.78ZM7.66,2.75v4.78H2.77V2.75h4.88ZM2.77,56.46h4.88v4.8H2.77v-4.8ZM56.34,61.25v-4.8h4.91v4.8h-4.91ZM43.77,30.16l-19.64-10.61c-.64-.35-1.4-.33-2.03.04-.63.37-1.01,1.03-1.01,1.76l-.1,19.74c0,.71.35,1.36.94,1.74.34.22.73.33,1.11.33.29,0,.59-.06.87-.19l19.74-9.14c.71-.33,1.17-1.02,1.19-1.81s-.39-1.5-1.08-1.88ZM23.75,40.03l.09-17.52,17.42,9.41-17.51,8.1Z"/>
  </g>
</svg>