<?xml version="1.0" encoding="UTF-8"?>
<svg id="Ebene_2" xmlns="http://www.w3.org/2000/svg" viewBox="0 0 32 32">
  <defs>
    <style>
      .cls-1 {
        fill: #1e1e1c;
      }
    </style>
  </defs>
  <g id="_x33_219">
    <path class="cls-1" d="M16.96,8.47V0H.01s-.01,0-.01,0v8.47h16.96ZM10.66,4.33h3.04v2h-3.04v-2ZM0,17.26h16.96v-6.79H0v6.79ZM13.7,12.86v2h-3.04v-2h3.04ZM32,10.47h-13.04v6.79h13.04v-6.79ZM26.92,14.86v-2h3.04v2h-3.04ZM18.96,8.47h13.04V0h-13.04v8.47ZM29.96,4.33v2h-3.04v-2h3.04ZM16.96,19.25H0v12.75h16.96v-12.75ZM10.66,23.17v-2h3.04v2h-3.04ZM18.96,19.25v12.75h13.04v-.04h0v-12.7h-13.04ZM29.96,23.17h-3.04v-2h3.04v2Z"/>
  </g>
</svg>