<?xml version="1.0" encoding="UTF-8"?>
<svg id="Ebene_2" xmlns="http://www.w3.org/2000/svg" viewBox="0 0 24 24">
  <defs>
    <style>
      .cls-1 {
        fill: #1e1e1c;
      }
    </style>
  </defs>
  <g id="_x33_219">
    <path class="cls-1" d="M24,0H0v24h24v-1.75h-9.63v-7.67h9.63v-1.75h-9.63v-4.8h9.63v-1.75h-9.63V1.75h9.63V0ZM12.62,22.25H1.75v-7.67h10.87v7.67ZM12.62,12.83H1.75v-4.8h10.87v4.8ZM12.62,6.27H1.75V1.75h10.87v4.52ZM10.32,4.94h-2.26v-1.75h2.26v1.75ZM8.06,11.3v-1.75h2.26v1.75h-2.26ZM8.06,17.87v-1.75h2.26v1.75h-2.26ZM20.15,4.94v-1.75h2.26v1.75h-2.26ZM20.15,11.3v-1.75h2.26v1.75h-2.26ZM20.15,17.87v-1.75h2.26v1.75h-2.26Z"/>
  </g>
</svg>