<?xml version="1.0" encoding="UTF-8"?>
<svg id="Ebene_2" xmlns="http://www.w3.org/2000/svg" viewBox="0 0 64 64">
  <defs>
    <style>
      .cls-1 {
        fill: #1e1e1c;
      }
    </style>
  </defs>
  <g id="_x33_219">
    <path class="cls-1" d="M36.68,16.86h27.32V2.75h0V0h-27.32v16.86ZM59.31,8.56v2.75h-6.09v-2.75h6.09ZM0,34.45h33.93v-14.85H0v14.85ZM26.78,25.66v2.75h-6.09v-2.75h6.09ZM33.93,16.86V0H0v16.86h33.93ZM20.7,8.56h6.09v2.75h-6.09v-2.75ZM64,19.6h-27.32v14.85h27.32v-14.85ZM53.23,28.41v-2.75h6.09v2.75h-6.09ZM64,37.2h-27.32v26.8h27.32v-.04h0v-2.75h0v-24.02ZM59.31,45.04h-6.09v-2.75h6.09v2.75ZM33.93,64v-26.8H0v26.77h0v.03h33.92ZM20.7,42.29h6.09v2.75h-6.09v-2.75Z"/>
  </g>
</svg>