<?xml version="1.0" encoding="UTF-8"?>
<svg id="Ebene_2" xmlns="http://www.w3.org/2000/svg" viewBox="0 0 39.98 40">
  <defs>
    <style>
      .cls-1 {
        fill: #1e1e1c;
      }
    </style>
  </defs>
  <g id="_x33_219">
    <path class="cls-1" d="M39.98,0H0v40h39.98v-2.25h-16.53s0-13.97,0-13.97h16.53v-2.25h-16.53s0-8.74,0-8.74h16.53v-2.25h-16.53s0-8.28,0-8.28h16.53V0ZM21.2,37.75H2.25s0-13.97,0-13.97h18.95s0,13.97,0,13.97ZM21.2,21.53H2.25s0-8.74,0-8.74h18.95s0,8.74,0,8.74ZM21.2,10.54H2.25s0-8.28,0-8.28h18.95s0,8.28,0,8.28ZM17,7.6h-3.8v-2.25h3.8v2.25ZM13.2,18.28v-2.25h3.8v2.25h-3.8ZM13.2,28.68v-2.25h3.8v2.25h-3.8ZM33.53,7.6v-2.25h3.8v2.25h-3.8ZM33.53,18.28v-2.25h3.8v2.25h-3.8ZM33.53,28.68v-2.25h3.8v2.25h-3.8Z"/>
  </g>
</svg>