<?xml version="1.0" encoding="UTF-8"?>
<svg id="Ebene_2" xmlns="http://www.w3.org/2000/svg" viewBox="0 0 32 32">
  <defs>
    <style>
      .cls-1 {
        fill: #1e1e1c;
      }
    </style>
  </defs>
  <g id="_x33_219">
    <path class="cls-1" d="M32,0H0v32h32v-2h-13.04v-10.77h13.04v-2h-13.04v-6.8h13.04v-2h-13.04V2h13.04V0ZM16.96,30H2v-10.77h14.96v10.77ZM16.96,17.23H2v-6.8h14.96v6.8ZM16.96,8.43H2V2h14.96v6.43ZM13.7,6.28h-3.04v-2h3.04v2ZM10.66,14.83v-2h3.04v2h-3.04ZM10.66,23.15v-2h3.04v2h-3.04ZM26.92,6.28v-2h3.04v2h-3.04ZM26.92,14.83v-2h3.04v2h-3.04ZM26.92,23.15v-2h3.04v2h-3.04Z"/>
  </g>
</svg>