<?xml version="1.0" encoding="UTF-8"?><svg id="Ebene_2" xmlns="http://www.w3.org/2000/svg" viewBox="0 0 32 32"><defs><style>.cls-1{fill:#1e1e1c;}</style></defs><g id="_x33_219"><path class="cls-1" d="M9.4,11.47l.33.35c.83.89,1.94,1.38,3.13,1.38h0c1.19,0,2.3-.49,3.13-1.38l.33-.35.07.07c.64-.34,1.31-.61,2-.82l-.71-.71,6.03-6.47v6.8c.69.12,1.36.29,2,.53V0H0v19.97h10.33c.11-.68.28-1.35.51-2H2.9l6.5-6.5ZM2,16.04V3.54l6.03,6.47-6.03,6.03ZM12.86,11.21h0c-.63,0-1.22-.27-1.67-.75L3.3,2h19.12l-7.89,8.46c-.45.48-1.04.75-1.67.75ZM22.17,11.72c-2.78-.07-5.39.93-7.37,2.86-1.99,1.93-3.08,4.51-3.08,7.28,0,5.59,4.55,10.14,10.14,10.14h1.96c.55,0,1-.45,1-1s-.45-1-1-1h-1.96c-4.49,0-8.14-3.65-8.14-8.14,0-2.22.88-4.3,2.47-5.84,1.59-1.55,3.7-2.37,5.92-2.29,4.35.13,7.89,3.95,7.89,8.52v4.15c0,.71-.58,1.29-1.29,1.29s-1.29-.58-1.29-1.29v-4.28h0c0-3.18-2.48-5.79-5.52-5.82-1.75.02-3.31.74-4.39,2.07-1.08,1.33-1.47,3.08-1.09,4.78.47,2.07,2.19,3.75,4.28,4.17,1.7.34,3.44-.1,4.72-1.18v.25c0,1.81,1.47,3.29,3.29,3.29s3.29-1.47,3.29-3.29v-4.15c0-5.64-4.41-10.36-9.83-10.52ZM24.36,24.41c-.86.84-2.04,1.19-3.25.94-1.33-.27-2.43-1.33-2.72-2.65-.25-1.11,0-2.23.69-3.09.68-.85,1.7-1.33,2.78-1.33h.03c1.92.02,3.54,1.77,3.54,3.82,0,1.28-1.04,2.28-1.07,2.3Z"/></g></svg>