<?xml version="1.0" encoding="UTF-8"?><svg id="Ebene_2" xmlns="http://www.w3.org/2000/svg" viewBox="0 0 64 64"><defs><style>.cls-1{fill:#1e1e1c;}</style></defs><g id="_x33_219"><path class="cls-1" d="M34.52,19.78L51.18,1.92v19.91c-2.07-.71-4.25-1.12-6.52-1.19-2.81-.05-5.53.36-8.08,1.2l-2.06-2.06ZM33.81,22.96l-1.17-1.17-1.14,1.23c-1.57,1.68-3.67,2.61-5.9,2.61s-4.33-.93-5.9-2.61l-1.14-1.23L.89,39.43h20.16c.9-4.62,3.18-8.85,6.65-12.21,1.81-1.76,3.87-3.19,6.1-4.26ZM0,1.92v34.52l16.66-16.66L0,1.92ZM25.59,22.88c1.47,0,2.85-.62,3.89-1.74L49.2,0H1.97l19.72,21.14c1.04,1.12,2.43,1.74,3.89,1.74ZM64,44.75v8.47c0,3.33-2.71,6.04-6.04,6.04s-6.04-2.71-6.04-6.04v-2.08c-.27.31-.47.48-.5.51-2.54,2.49-6.08,3.53-9.67,2.8-4.02-.81-7.32-4.03-8.22-8.01-.74-3.28.02-6.63,2.09-9.19s5.11-4,8.44-3.99c5.85.05,10.61,5.08,10.61,11.21h0v8.75c0,1.81,1.48,3.29,3.29,3.29s3.29-1.48,3.29-3.29v-8.47c0-9.68-7.52-17.78-16.76-18.06-4.72-.12-9.19,1.59-12.57,4.87-3.39,3.28-5.25,7.69-5.25,12.4,0,9.53,7.76,17.28,17.29,17.28h4c.76,0,1.38.62,1.38,1.38s-.62,1.38-1.38,1.38h-4c-11.05,0-20.04-8.99-20.04-20.04,0-5.47,2.16-10.57,6.08-14.38,3.92-3.81,9.1-5.81,14.57-5.65,10.71.32,19.43,9.66,19.43,20.81ZM51.91,44.47c0-4.62-3.54-8.42-7.88-8.46h-.07c-2.42,0-4.67,1.08-6.2,2.96-1.54,1.91-2.1,4.41-1.55,6.86.66,2.94,3.11,5.32,6.08,5.92,2.68.54,5.32-.23,7.24-2.1.05-.05,2.39-2.26,2.39-5.18Z"/></g></svg>