<?xml version="1.0" encoding="UTF-8"?><svg id="Ebene_2" xmlns="http://www.w3.org/2000/svg" viewBox="0 0 32 32"><defs><style>.cls-1{fill:#1e1e1c;}</style></defs><g id="_x33_219"><path class="cls-1" d="M17.68,10.01L25.72,1.39v9.47c-1.11-.41-2.29-.65-3.51-.69-1.32-.03-2.6.16-3.82.54l-.7-.7ZM14.34,12.92c-.47.18-.96.28-1.47.28h0c-1.19,0-2.3-.49-3.13-1.38l-.33-.35L.9,19.97h9.43c.4-2.46,1.56-4.72,3.39-6.5.2-.19.41-.37.62-.55ZM12.86,11.21h0c.63,0,1.22-.27,1.67-.75L24.28,0H1.44l9.76,10.46c.45.48,1.04.75,1.67.75ZM0,1.39v16.64l8.04-8.03L0,1.39ZM32,22.24v4.15c0,1.81-1.47,3.29-3.29,3.29s-3.29-1.47-3.29-3.29v-.25c-1.28,1.07-3.02,1.52-4.72,1.18-2.09-.42-3.81-2.1-4.28-4.17-.38-1.7.01-3.45,1.09-4.78,1.08-1.33,2.64-2.09,4.39-2.07,3.04.03,5.52,2.64,5.52,5.82h0v4.29c0,.71.58,1.29,1.29,1.29s1.29-.58,1.29-1.29v-4.15c0-4.57-3.54-8.39-7.89-8.52-2.22-.06-4.33.75-5.92,2.29-1.6,1.55-2.47,3.62-2.47,5.84,0,4.49,3.65,8.14,8.14,8.14h1.96c.55,0,1,.45,1,1s-.45,1-1,1h-1.96c-5.59,0-10.14-4.55-10.14-10.14,0-2.77,1.09-5.35,3.08-7.28,1.98-1.93,4.6-2.93,7.37-2.86,5.42.16,9.83,4.88,9.83,10.52ZM25.43,22.11c0-2.05-1.62-3.8-3.54-3.82h-.03c-1.09,0-2.1.48-2.78,1.33-.69.86-.94,1.98-.69,3.09.3,1.32,1.39,2.38,2.72,2.65,1.21.24,2.39-.1,3.25-.94.03-.03,1.07-1.02,1.07-2.3Z"/></g></svg>