<?xml version="1.0" encoding="UTF-8"?><svg id="Ebene_2" xmlns="http://www.w3.org/2000/svg" viewBox="0 0 48 48"><defs><style>.cls-1{fill:#1e1e1c;}</style></defs><g id="_x33_219"><path class="cls-1" d="M14,16.74l.69.74c1.21,1.3,2.83,2.01,4.55,2.01s3.34-.71,4.55-2.01l.69-.74.55.54c.81-.41,1.66-.73,2.52-1.01l-1.36-1.36,9.79-10.49v11.31c.85.16,1.69.37,2.5.65V0H0v29.75h15.7c.15-.85.37-1.69.65-2.5H3.49l10.51-10.51ZM2.5,24.7V4.42l9.79,10.49L2.5,24.7ZM16.51,15.78L4.13,2.5h30.22l-12.39,13.28c-1.46,1.57-3.98,1.57-5.45,0ZM33.35,17.78c-4.11-.13-8.03,1.39-10.99,4.26-2.96,2.87-4.59,6.72-4.59,10.84,0,8.33,6.78,15.11,15.12,15.11h2.97c.69,0,1.25-.56,1.25-1.25s-.56-1.25-1.25-1.25h-2.97c-6.96,0-12.62-5.66-12.62-12.61,0-3.44,1.36-6.65,3.83-9.05,2.47-2.4,5.73-3.66,9.18-3.56,6.74.2,12.23,6.12,12.23,13.19v6.29c0,1.22-.99,2.22-2.22,2.22s-2.22-.99-2.22-2.22v-6.5h0c0-4.68-3.64-8.51-8.11-8.56h-.08c-2.49,0-4.81,1.11-6.37,3.05-1.58,1.96-2.16,4.52-1.6,7.02.69,3.04,3.21,5.5,6.28,6.12,2.7.54,5.46-.26,7.37-2.13v.99c0,2.6,2.12,4.72,4.72,4.72s4.72-2.12,4.72-4.72v-6.29c0-8.41-6.57-15.44-14.65-15.69ZM36.86,36.95c-1.37,1.34-3.25,1.89-5.17,1.5-2.12-.43-3.86-2.12-4.34-4.22-.4-1.75,0-3.54,1.1-4.9,1.09-1.35,2.7-2.12,4.43-2.12h.05c3.1.03,5.63,2.74,5.63,6.06,0,2.07-1.66,3.64-1.71,3.69Z"/></g></svg>