<?xml version="1.0" encoding="UTF-8"?>
<svg id="Ebene_2" xmlns="http://www.w3.org/2000/svg" viewBox="0 0 40 40">
  <defs>
    <style>
      .cls-1 {
        fill: #1e1e1c;
      }
    </style>
  </defs>
  <g id="_x33_219">
    <path class="cls-1" d="M40,8.9V2.62c0-1.45-1.18-2.62-2.63-2.62H2.63C1.18,0,0,1.18,0,2.62v6.27h40ZM9.36,3.6c.82,0,1.48.67,1.48,1.48s-.67,1.48-1.48,1.48-1.48-.67-1.48-1.48.67-1.48,1.48-1.48ZM4.98,3.6c.82,0,1.48.67,1.48,1.48s-.67,1.48-1.48,1.48-1.48-.67-1.48-1.48.67-1.48,1.48-1.48ZM23.58,25.6c0,1.96-1.61,3.55-3.58,3.55s-3.58-1.59-3.58-3.55,1.61-3.55,3.58-3.55,3.58,1.59,3.58,3.55ZM0,11.15v28.85h40V11.15H0ZM27.57,25.6c0,.47-.06.92-.14,1.36l2.57,1.47-2.52,4.33-2.59-1.48c-.69.59-1.49,1.05-2.36,1.36v2.96h-5.05v-2.96c-.88-.31-1.67-.77-2.36-1.36l-2.59,1.48-2.52-4.33,2.57-1.47c-.08-.44-.14-.9-.14-1.36s.06-.92.14-1.36l-2.57-1.47,2.52-4.33,2.59,1.48c.69-.59,1.49-1.05,2.36-1.36v-2.96h5.05v2.96c.88.31,1.67.77,2.36,1.36l2.59-1.48,2.52,4.33-2.57,1.47c.08.44.14.9.14,1.36Z"/>
  </g>
</svg>