<?xml version="1.0" encoding="UTF-8"?>
<svg id="Ebene_2" xmlns="http://www.w3.org/2000/svg" viewBox="0 0 48 48">
  <defs>
    <style>
      .cls-1 {
        fill: #1e1e1c;
      }
    </style>
  </defs>
  <g id="_x33_219">
    <path class="cls-1" d="M48,9.25V2.75c0-1.52-1.23-2.75-2.75-2.75H2.75C1.23,0,0,1.23,0,2.75v6.5h48ZM9.93,3.5c.93,0,1.68.75,1.68,1.68s-.75,1.68-1.68,1.68-1.68-.75-1.68-1.68.75-1.68,1.68-1.68ZM5.18,3.5c.93,0,1.68.75,1.68,1.68s-.75,1.68-1.68,1.68-1.68-.75-1.68-1.68.75-1.68,1.68-1.68ZM28.66,29.5c0,2.54-2.09,4.61-4.66,4.61s-4.66-2.07-4.66-4.61,2.09-4.61,4.66-4.61,4.66,2.07,4.66,4.61ZM0,11.75v36.25h48V11.75H0ZM33.84,29.5c0,.61-.07,1.2-.18,1.77l3.34,1.91-3.28,5.63-3.37-1.93c-.9.76-1.93,1.36-3.07,1.77v3.85h-6.56v-3.85c-1.14-.4-2.17-1-3.07-1.76l-3.37,1.93-3.28-5.63,3.34-1.91c-.11-.58-.18-1.17-.18-1.77s.07-1.2.18-1.77l-3.34-1.91,3.28-5.63,3.37,1.93c.9-.76,1.93-1.36,3.07-1.77v-3.85h6.56v3.85c1.14.4,2.17,1,3.07,1.77l3.37-1.93,3.28,5.63-3.34,1.91c.11.58.18,1.17.18,1.77Z"/>
  </g>
</svg>