<?xml version="1.0" encoding="UTF-8"?>
<svg id="Ebene_2" xmlns="http://www.w3.org/2000/svg" viewBox="0 0 24 24">
  <defs>
    <style>
      .cls-1 {
        fill: #1e1e1c;
      }
    </style>
  </defs>
  <g id="_x33_219">
    <path class="cls-1" d="M21.62,0H2.38C1.07,0,0,1.07,0,2.38v21.62h24V2.38c0-1.31-1.07-2.38-2.38-2.38ZM2.38,1.75h19.25c.34,0,.63.28.63.63v3.49H1.75v-3.49c0-.35.28-.63.63-.63ZM1.75,22.25V7.62h20.5v14.63H1.75ZM3.12,3.71c0-.6.49-1.09,1.09-1.09s1.09.49,1.09,1.09-.49,1.09-1.09,1.09-1.09-.49-1.09-1.09ZM6.37,3.71c0-.6.49-1.09,1.09-1.09s1.09.49,1.09,1.09-.49,1.09-1.09,1.09-1.09-.49-1.09-1.09ZM12.1,12.12c-1.49,0-2.71,1.22-2.71,2.71s1.22,2.71,2.71,2.71,2.71-1.22,2.71-2.71-1.22-2.71-2.71-2.71ZM12.1,15.79c-.53,0-.96-.43-.96-.96s.43-.96.96-.96.96.43.96.96-.43.96-.96.96ZM16.53,9.69l-1.68.96c-.16-.1-.32-.2-.49-.28v-1.93h-4.53v1.93c-.17.08-.33.18-.49.28l-1.68-.96-2.27,3.9,1.67.96c0,.1,0,.19,0,.28s0,.19,0,.28l-1.67.96,2.27,3.9,1.68-.96c.16.1.32.2.49.28v1.93h4.53v-1.93c.17-.08.33-.18.49-.28l1.68.96,2.27-3.9-1.67-.96c0-.09,0-.19,0-.28s0-.19,0-.28l1.67-.96-2.27-3.9ZM15.33,14.24c.04.22.06.41.06.59s-.02.37-.06.59l-.11.61,1.19.68-.51.87-1.2-.69-.47.39c-.31.26-.65.46-1.03.59l-.58.21v1.37h-1.03v-1.37l-.58-.21c-.37-.13-.72-.33-1.03-.59l-.47-.39-1.2.69-.51-.87,1.19-.68-.11-.61c-.04-.22-.06-.41-.06-.59s.02-.36.06-.59l.11-.61-1.19-.68.51-.87,1.2.69.47-.39c.31-.26.65-.46,1.03-.59l.58-.21v-1.37h1.03v1.37l.58.21c.37.13.72.33,1.03.59l.47.39,1.2-.69.51.87-1.19.68.11.61Z"/>
  </g>
</svg>