<?xml version="1.0" encoding="UTF-8"?>
<svg id="Ebene_2" xmlns="http://www.w3.org/2000/svg" viewBox="0 0 64 64">
  <defs>
    <style>
      .cls-1 {
        fill: #1e1e1c;
      }
    </style>
  </defs>
  <g id="_x33_219">
    <path class="cls-1" d="M38.45,38.54c0,3.52-2.89,6.39-6.45,6.39s-6.45-2.87-6.45-6.39,2.89-6.39,6.45-6.39,6.45,2.87,6.45,6.39ZM0,11.66V2.88C0,1.29,1.29,0,2.88,0h58.25c1.59,0,2.88,1.29,2.88,2.88v8.79H0ZM10.13,6.94c0,1.07.87,1.95,1.95,1.95s1.95-.87,1.95-1.95-.87-1.95-1.95-1.95-1.95.87-1.95,1.95ZM4.63,6.94c0,1.07.87,1.95,1.95,1.95s1.95-.87,1.95-1.95-.87-1.95-1.95-1.95-1.95.87-1.95,1.95ZM64,14.41v49.59H0V14.41h64ZM45.37,36.08l4.63-2.65-4.54-7.79-4.67,2.67c-1.25-1.06-2.68-1.89-4.25-2.45v-5.33h-9.08v5.33c-1.58.56-3,1.39-4.25,2.44l-4.67-2.67-4.54,7.8,4.63,2.65c-.15.8-.25,1.61-.25,2.45s.1,1.66.25,2.45l-4.63,2.65,4.54,7.8,4.67-2.67c1.25,1.06,2.67,1.89,4.25,2.44v5.33h9.08v-5.33c1.58-.56,3-1.39,4.25-2.44l4.67,2.67,4.54-7.8-4.63-2.65c.15-.8.25-1.61.25-2.45s-.1-1.66-.25-2.46Z"/>
  </g>
</svg>