<?xml version="1.0" encoding="UTF-8"?>
<svg id="Ebene_2" xmlns="http://www.w3.org/2000/svg" viewBox="0 0 40 40">
  <defs>
    <style>
      .cls-1 {
        fill: #1e1e1c;
      }
    </style>
  </defs>
  <g id="_x33_219">
    <path class="cls-1" d="M40,0H13.87L0,12.58h0v27.41h27.5s0,0,0,0h0s12.49-11.64,12.49-11.64V0ZM27.36,2.25h8.81l-10.26,10.33h-9.54L27.36,2.25ZM14.74,2.25h9.34l-10.99,10.33H3.35L14.74,2.25ZM25.26,37.74H2.25V14.83h23.01v22.91ZM27.51,36.92V14.17l10.24-10.32v23.52l-10.24,9.55ZM23.48,16.98h-10.25v7.25h10.25v-7.25ZM21.23,21.98h-5.75v-2.75h5.75v2.75Z"/>
  </g>
</svg>