<?xml version="1.0" encoding="UTF-8"?>
<svg id="Ebene_2" xmlns="http://www.w3.org/2000/svg" viewBox="0 0 32 32">
  <defs>
    <style>
      .cls-1 {
        fill: #1e1e1c;
      }
    </style>
  </defs>
  <g id="_x33_219">
    <path class="cls-1" d="M11.08,0L0,10H0s0,0,0,0h0v22h22.06s0,0,0,0l9.93-9.31V0H11.08ZM21.89,2h6.71l-7.95,8h-7.27L21.89,2ZM11.85,2h7.12l-8.51,8H2.99L11.85,2ZM20.07,30H2V12h18.06v18ZM22.07,29.26V11.41l7.94-7.99v18.39l-7.94,7.44ZM18.62,13.87h-8v6h8v-6ZM16.62,17.87h-4v-2h4v2Z"/>
  </g>
</svg>