<?xml version="1.0" encoding="UTF-8"?>
<svg id="Ebene_2" xmlns="http://www.w3.org/2000/svg" viewBox="0 0 40 40">
  <defs>
    <style>
      .cls-1 {
        fill: #1e1e1c;
      }
    </style>
  </defs>
  <g id="_x33_219">
    <path class="cls-1" d="M0,0v40h40V0H0ZM37.75,37.75H2.25v-8.64l7.17-11.43,10.32,10.32,9.29-3.8,8.73,5.58v7.97ZM29.25,21.68l-8.98,3.68-11.26-11.26-6.76,10.78V2.25h35.5v24.86l-8.5-5.43ZM29.19,3.7c-3.59,0-6.52,2.92-6.52,6.52s2.92,6.52,6.52,6.52,6.52-2.92,6.52-6.52-2.92-6.52-6.52-6.52ZM29.19,14.48c-2.35,0-4.27-1.91-4.27-4.27s1.91-4.27,4.27-4.27,4.27,1.91,4.27,4.27-1.91,4.27-4.27,4.27Z"/>
  </g>
</svg>