<?xml version="1.0" encoding="UTF-8"?>
<svg id="Ebene_2" xmlns="http://www.w3.org/2000/svg" viewBox="0 0 48 48">
  <defs>
    <style>
      .cls-1 {
        fill: #1e1e1c;
      }
    </style>
  </defs>
  <g id="_x33_219">
    <path class="cls-1" d="M0,0v48h48V0H0ZM45.51,45.51H2.49v-11.55l8.73-13.92,12.48,12.49,11.18-4.58,10.63,6.79v10.78ZM35.14,25.15l-10.84,4.44-13.52-13.52L2.49,29.28V2.49h43.03v29.29l-10.37-6.63ZM35.76,4.28c-4.27,0-7.75,3.47-7.75,7.75s3.47,7.75,7.75,7.75,7.75-3.47,7.75-7.75-3.47-7.75-7.75-7.75ZM35.76,17.28c-2.9,0-5.26-2.36-5.26-5.26s2.36-5.26,5.26-5.26,5.26,2.36,5.26,5.26-2.36,5.26-5.26,5.26Z"/>
  </g>
</svg>