<?xml version="1.0" encoding="UTF-8"?>
<svg id="Ebene_2" xmlns="http://www.w3.org/2000/svg" viewBox="0 0 16 16">
  <defs>
    <style>
      .cls-1 {
        fill: #1e1e1c;
      }
    </style>
  </defs>
  <g id="_x33_219">
    <path class="cls-1" d="M0,0v16h16V0H0ZM14.5,14.5H1.5v-2.33l2.49-3.97,3.83,3.83,3.61-1.48,3.07,1.96v1.99ZM11.58,8.86l-3.41,1.4L3.72,5.8l-2.22,3.54V1.5h13v9.22l-2.91-1.86ZM10.95,2c-1.56,0-2.82,1.27-2.82,2.82s1.27,2.82,2.82,2.82,2.82-1.27,2.82-2.82-1.27-2.82-2.82-2.82ZM10.95,6.14c-.73,0-1.32-.59-1.32-1.32s.59-1.32,1.32-1.32,1.32.59,1.32,1.32-.59,1.32-1.32,1.32Z"/>
  </g>
</svg>