<?xml version="1.0" encoding="UTF-8"?>
<svg id="Ebene_2" xmlns="http://www.w3.org/2000/svg" viewBox="0 0 32 32">
  <defs>
    <style>
      .cls-1 {
        fill: #1e1e1c;
      }
    </style>
  </defs>
  <g id="_x33_219">
    <path class="cls-1" d="M18.97,20.79l-1.56,8.35-6.17-6.02-8.74,8.88-2.5-2.46,8.73-8.87-5.78-5.65,8.46-1.8,7.56,7.56ZM31.08,9.5L22.24.87c-.59-.57-1.37-.85-2.17-.87-.82,0-1.58.34-2.15.92l-3.57,3.66,2.94,2.87-4.36,4.47,7.24,7.24,4.44-4.56,2.95,2.88,3.57-3.66c.57-.59.88-1.36.87-2.17,0-.82-.34-1.58-.92-2.15Z"/>
  </g>
</svg>