<?xml version="1.0" encoding="UTF-8"?>
<svg id="Ebene_2" xmlns="http://www.w3.org/2000/svg" viewBox="0 0 40 40">
  <defs>
    <style>
      .cls-1 {
        fill: #1e1e1c;
      }
    </style>
  </defs>
  <g id="_x33_219">
    <path class="cls-1" d="M23.72,25.39l-2.04,10.87-7.73-7.54-11.1,11.28-2.85-2.81,11.09-11.26-7.25-7.07,10.85-2.31.08-.09,8.93,8.93ZM38.88,11.91L27.76,1.06C27.05.36,26.11-.01,25.12,0c-.99.01-1.92.41-2.61,1.12l-4.4,4.51,3.71,3.62-5.46,5.6,8.92,8.92,5.56-5.7,3.71,3.62,4.4-4.51c.69-.71,1.07-1.65,1.06-2.64-.01-.99-.41-1.92-1.12-2.61Z"/>
  </g>
</svg>