<?xml version="1.0" encoding="UTF-8"?>
<svg id="Ebene_2" xmlns="http://www.w3.org/2000/svg" viewBox="0 0 32 32">
  <defs>
    <style>
      .cls-1 {
        fill: #1e1e1c;
      }
    </style>
  </defs>
  <g id="_x33_219">
    <path class="cls-1" d="M31.08,9.49L22.24.87c-.59-.57-1.37-.86-2.17-.87-.82,0-1.58.34-2.15.92l-3.57,3.66,2.95,2.87-5.56,5.7-8.79,1.87,6.32,6.17L0,30.59l1.42,1.41,9.27-9.41,6.71,6.54,1.65-8.83,5.56-5.7,2.95,2.87,3.57-3.66c.57-.59.88-1.36.87-2.17,0-.82-.34-1.58-.92-2.15ZM7.02,16.21l4.9-1.04,2.56,2.5,2.56,2.5-.92,4.93-9.11-8.89ZM18.11,18.41l-2.23-2.18-2.23-2.18,5.07-5.2,4.46,4.35-5.07,5.2ZM29.7,12.42l-2.18,2.23-10.35-10.1,2.18-2.23c.2-.2.46-.32.74-.32,0,0,0,0,.01,0,.28,0,.54.11.74.3l8.84,8.63c.2.2.32.46.32.74,0,.28-.1.55-.3.75Z"/>
  </g>
</svg>