<?xml version="1.0" encoding="UTF-8"?>
<svg id="Ebene_2" xmlns="http://www.w3.org/2000/svg" viewBox="0 0 64 64">
  <defs>
    <style>
      .cls-1 {
        fill: #1e1e1c;
      }
    </style>
  </defs>
  <g id="_x33_219">
    <path class="cls-1" d="M37.64,40.61l-3.13,16.73-12.44-12.14L3.56,64l-3.56-3.51,18.49-18.78-11.66-11.38,16.89-3.59.03-.03,13.9,13.9ZM62.32,19.15L44.32,1.58c-1.06-1.04-2.47-1.57-3.96-1.58-1.49.02-2.88.61-3.92,1.68l-6.81,6.98,6,5.86-9.97,10.22,13.8,13.8,10.14-10.39,6,5.85,6.81-6.99c1.04-1.06,1.6-2.47,1.58-3.96-.02-1.49-.61-2.88-1.68-3.92Z"/>
  </g>
</svg>