<?xml version="1.0" encoding="UTF-8"?>
<svg id="Ebene_2" xmlns="http://www.w3.org/2000/svg" viewBox="0 0 40 40">
  <defs>
    <style>
      .cls-1 {
        fill: #1e1e1c;
      }
    </style>
  </defs>
  <g id="_x33_219">
    <path class="cls-1" d="M20,0C8.97,0,0,8.97,0,20s8.97,20,20,20,20-8.97,20-20S31.03,0,20,0ZM37.75,20c0,.45-.03.9-.07,1.34l-10.38,2.78,4.62-17.23c3.57,3.25,5.83,7.92,5.83,13.11ZM13.45,21.75l1.73-6.47-.13-.03,6.69-1.79,4.79,4.79-1.75,6.55-6.55,1.75-4.79-4.79ZM30,5.35l-2.78,10.39L14.58,3.1c1.71-.55,3.53-.85,5.42-.85,3.71,0,7.15,1.15,10,3.1ZM12.32,4.02l7.6,7.6L2.66,16.24c1.17-5.4,4.81-9.88,9.66-12.22ZM2.25,20c0-.45.03-.9.07-1.34l10.38-2.78-4.62,17.23c-3.57-3.25-5.83-7.92-5.83-13.11ZM10,34.65l2.78-10.39,12.63,12.64c-1.71.55-3.53.85-5.41.85-3.71,0-7.15-1.15-10-3.1ZM27.68,35.98l-7.6-7.6,17.26-4.62c-1.17,5.4-4.81,9.88-9.66,12.22Z"/>
  </g>
</svg>