<?xml version="1.0" encoding="UTF-8"?>
<svg id="Ebene_2" xmlns="http://www.w3.org/2000/svg" viewBox="0 0 48 48">
  <defs>
    <style>
      .cls-1 {
        fill: #1e1e1c;
      }
    </style>
  </defs>
  <g id="_x33_219">
    <path class="cls-1" d="M24,0C10.77,0,0,10.77,0,24s10.77,24,24,24,24-10.77,24-24S37.23,0,24,0ZM45.5,24c0,.57-.04,1.14-.09,1.7l-12.76,3.42,5.66-21.11c4.4,3.94,7.19,9.64,7.19,16ZM15.99,26.15l2.11-7.86-.25-.07,8.3-2.22,5.86,5.86-2.15,8.01-8.01,2.15-5.86-5.86ZM36.18,6.3l-3.42,12.76L17.28,3.59c2.12-.7,4.37-1.09,6.72-1.09,4.52,0,8.71,1.41,12.18,3.8ZM14.77,4.61l9.33,9.33L2.95,19.62c1.38-6.64,5.85-12.15,11.81-15ZM2.5,24c0-.57.04-1.13.09-1.7l12.76-3.42-5.66,21.11c-4.4-3.94-7.19-9.64-7.19-16ZM11.82,41.7l3.42-12.76,15.47,15.47c-2.12.7-4.37,1.09-6.72,1.09-4.52,0-8.71-1.41-12.18-3.8ZM33.23,43.39l-9.33-9.33,21.15-5.67c-1.38,6.64-5.85,12.15-11.81,15Z"/>
  </g>
</svg>