<?xml version="1.0" encoding="UTF-8"?>
<svg id="Ebene_2" xmlns="http://www.w3.org/2000/svg" viewBox="0 0 40 40">
  <defs>
    <style>
      .cls-1 {
        fill: #1e1e1c;
      }
    </style>
  </defs>
  <g id="_x33_219">
    <path class="cls-1" d="M.27,16.88C1.26,10.57,5.2,5.23,10.64,2.34l9.28,9.28L.27,16.88ZM26.55,18.25l-4.79-4.79-6.7,1.79.13.03-1.73,6.48,4.8,4.8,6.55-1.75,1.75-6.55ZM27.3,24.12l12.66-3.39c0-.24.04-.48.04-.73,0-6.27-2.9-11.86-7.43-15.53l-5.27,19.66ZM27.22,15.73l3.39-12.66c-3.08-1.94-6.71-3.08-10.61-3.08-2.53,0-4.94.49-7.16,1.35l14.39,14.39ZM12.7,15.88L.04,19.27c0,.24-.04.48-.04.73,0,6.27,2.9,11.86,7.43,15.53l5.27-19.66ZM20.08,28.39l9.28,9.28c5.44-2.9,9.38-8.23,10.37-14.54l-19.65,5.27ZM12.78,24.27l-3.39,12.66c3.08,1.94,6.71,3.08,10.61,3.08,2.53,0,4.94-.49,7.16-1.35l-14.39-14.39Z"/>
  </g>
</svg>