<?xml version="1.0" encoding="UTF-8"?>
<svg id="Ebene_2" xmlns="http://www.w3.org/2000/svg" viewBox="0 0 64 64">
  <defs>
    <style>
      .cls-1 {
        fill: #1e1e1c;
      }
    </style>
  </defs>
  <g id="_x33_219">
    <path class="cls-1" d="M.35,27.31C1.89,16.87,8.49,8.07,17.56,3.46l15.17,15.17L.35,27.31ZM43.95,25.95l5.55-20.72C44.47,1.93,38.46,0,32,0c-4.15,0-8.11.8-11.76,2.25l23.7,23.7ZM43.12,29.02l-8.14-8.14-11.86,3.18.64.17-2.88,10.75,8.14,8.14,11.12-2.98,2.98-11.12ZM43.21,39.32l20.74-5.56c.03-.58.05-1.17.05-1.76,0-10.13-4.74-19.18-12.12-25.04l-8.67,32.37ZM31.27,45.37l15.17,15.17c9.08-4.61,15.67-13.41,17.21-23.85l-32.39,8.68ZM20.79,24.68L.05,30.23c-.03.58-.05,1.17-.05,1.77,0,10.13,4.74,19.18,12.12,25.04l8.67-32.37ZM20.05,38.05l-5.55,20.72c5.03,3.3,11.04,5.23,17.5,5.23,4.15,0,8.11-.8,11.76-2.25l-23.7-23.7Z"/>
  </g>
</svg>