<?xml version="1.0" encoding="UTF-8"?>
<svg id="Ebene_2" xmlns="http://www.w3.org/2000/svg" viewBox="0 0 48 48">
  <defs>
    <style>
      .cls-1 {
        fill: #1e1e1c;
      }
    </style>
  </defs>
  <g id="_x33_219">
    <path class="cls-1" d="M.28,20.34C1.45,12.68,6.27,6.21,12.89,2.74l11.22,11.22L.28,20.34ZM32.75,19.07l4.1-15.32c-3.72-2.37-8.13-3.75-12.85-3.75-3.06,0-5.99.58-8.69,1.63l17.43,17.43ZM32,21.86l-5.86-5.86-8.3,2.22.26.07-2.1,7.86,5.86,5.86,8-2.14,2.14-8ZM32.65,29.11l15.33-4.11c.01-.33.03-.67.03-1,0-7.55-3.51-14.29-8.98-18.7l-6.38,23.81ZM23.9,34.04l11.22,11.22c6.62-3.47,11.43-9.95,12.61-17.6l-23.82,6.38ZM15.25,28.93l-4.1,15.32c3.72,2.37,8.13,3.75,12.85,3.75,3.06,0,5.99-.58,8.69-1.63L15.25,28.93ZM15.35,18.89L.03,23c-.01.33-.03.67-.03,1,0,7.55,3.51,14.29,8.98,18.7l6.38-23.81Z"/>
  </g>
</svg>