<?xml version="1.0" encoding="UTF-8"?>
<svg id="Ebene_2" xmlns="http://www.w3.org/2000/svg" viewBox="0 0 24 24">
  <defs>
    <style>
      .cls-1 {
        fill: #1e1e1c;
      }
    </style>
  </defs>
  <g id="_x33_219">
    <path class="cls-1" d="M12,0C5.38,0,0,5.38,0,12s5.38,12,12,12,12-5.38,12-12S18.62,0,12,0ZM22.25,12c0,.21-.02.42-.03.62l-5.61,1.5,2.54-9.46c1.91,1.86,3.11,4.46,3.11,7.34ZM8.38,12.97l.97-3.62,3.62-.97,2.65,2.65-.97,3.62-3.62.97-2.65-2.65ZM17.65,3.46l-1.5,5.62-6.93-6.93c.89-.25,1.82-.39,2.78-.39,2.09,0,4.03.63,5.65,1.71ZM7.43,2.84l4.11,4.11-9.46,2.54c.74-2.91,2.72-5.33,5.35-6.64ZM1.75,12c0-.21.02-.42.03-.62l5.61-1.5-2.54,9.46c-1.91-1.86-3.11-4.46-3.11-7.34ZM6.35,20.54l1.5-5.62,6.93,6.93c-.89.25-1.82.39-2.78.39-2.09,0-4.03-.63-5.65-1.71ZM16.57,21.16l-4.11-4.11,9.46-2.54c-.74,2.91-2.72,5.33-5.35,6.64Z"/>
  </g>
</svg>