<?xml version="1.0" encoding="UTF-8"?>
<svg id="Ebene_2" xmlns="http://www.w3.org/2000/svg" viewBox="0 0 16 16">
  <defs>
    <style>
      .cls-1 {
        fill: #1e1e1c;
      }
    </style>
  </defs>
  <g id="_x33_219">
    <path class="cls-1" d="M8,0C3.59,0,0,3.59,0,8s3.59,8,8,8,8-3.59,8-8S12.41,0,8,0ZM14.5,8c0,.09,0,.18-.01.27l-3.23.87,1.49-5.56c1.08,1.16,1.75,2.72,1.75,4.43ZM5.84,8.58l.58-2.16,2.16-.58,1.58,1.58-.58,2.16-2.16.58-1.58-1.58ZM11.47,2.52l-.87,3.23L6.53,1.67c.47-.11.96-.17,1.47-.17,1.28,0,2.47.38,3.47,1.02ZM4.99,2.25l2.37,2.37-5.57,1.49c.51-1.67,1.68-3.06,3.2-3.86ZM1.5,8c0-.09,0-.18.01-.27l3.23-.87-1.49,5.56c-1.08-1.16-1.75-2.72-1.75-4.43ZM4.53,13.48l.87-3.23,4.08,4.08c-.47.11-.96.17-1.47.17-1.28,0-2.47-.38-3.47-1.02ZM11.01,13.75l-2.37-2.37,5.57-1.49c-.51,1.67-1.68,3.06-3.2,3.86Z"/>
  </g>
</svg>