<?xml version="1.0" encoding="UTF-8"?>
<svg id="Ebene_2" xmlns="http://www.w3.org/2000/svg" viewBox="0 0 24 24">
  <defs>
    <style>
      .cls-1 {
        fill: #1e1e1c;
      }
    </style>
  </defs>
  <g id="_x33_219">
    <path class="cls-1" d="M14.65,14.65l-3.62.97-2.65-2.65.97-3.62,3.62-.97,2.65,2.65-.97,3.62ZM16.15,9.08l1.98-7.38c-1.8-1.07-3.88-1.7-6.12-1.7-1.47,0-2.87.28-4.17.76l8.31,8.31ZM16.61,14.13l7.39-1.98s0-.1,0-.15c0-3.71-1.69-7.03-4.35-9.24l-3.04,11.36ZM11.54,6.95L6.13,1.54C3.04,3.29.8,6.36.18,9.99l11.36-3.04ZM7.4,9.87L0,11.85s0,.1,0,.15c0,3.71,1.69,7.03,4.35,9.24l3.04-11.36ZM12.46,17.05l5.41,5.41c3.1-1.74,5.34-4.82,5.95-8.45l-11.36,3.04ZM7.85,14.92l-1.98,7.38c1.8,1.07,3.88,1.7,6.12,1.7,1.47,0,2.87-.28,4.17-.76L7.85,14.92Z"/>
  </g>
</svg>