<?xml version="1.0" encoding="UTF-8"?>
<svg id="Ebene_2" xmlns="http://www.w3.org/2000/svg" viewBox="0 0 32 32">
  <defs>
    <style>
      .cls-1 {
        fill: #1e1e1c;
      }
    </style>
  </defs>
  <g id="_x33_219">
    <path class="cls-1" d="M16,0C7.18,0,0,7.18,0,16s7.18,16,16,16,16-7.18,16-16S24.82,0,16,0ZM30,16c0,.33-.03.65-.05.98l-7.99,2.14,3.58-13.34c2.74,2.56,4.47,6.19,4.47,10.22ZM10.92,17.36l1.36-5.08,5.08-1.36,3.72,3.72-1.36,5.08-5.08,1.36-3.72-3.72ZM23.83,4.4l-2.14,8L11.9,2.62c1.3-.4,2.68-.62,4.1-.62,2.9,0,5.59.88,7.83,2.4ZM9.88,3.43l5.85,5.85-13.35,3.58c.96-4.15,3.76-7.6,7.51-9.43ZM2,16c0-.33.03-.65.05-.98l7.99-2.14-3.57,13.34c-2.74-2.56-4.47-6.19-4.47-10.22ZM8.17,27.6l2.14-8,9.78,9.78c-1.3.4-2.68.62-4.1.62-2.9,0-5.59-.88-7.83-2.4ZM22.12,28.57l-5.85-5.85,13.35-3.58c-.96,4.15-3.76,7.6-7.51,9.43Z"/>
  </g>
</svg>