<?xml version="1.0" encoding="UTF-8"?>
<svg id="Ebene_2" xmlns="http://www.w3.org/2000/svg" viewBox="0 0 39.64 40">
  <defs>
    <style>
      .cls-1 {
        fill: #1e1e1c;
      }
    </style>
  </defs>
  <g id="_x33_219">
    <path class="cls-1" d="M34.82,20c0-.93-.11-1.84-.28-2.73l5.1-2.94-5-8.66-5.14,2.97c-1.38-1.17-2.95-2.1-4.68-2.72V0h-10v5.92c-1.73.62-3.3,1.54-4.68,2.72l-5.14-2.97L0,14.33l5.09,2.94c-.16.89-.28,1.79-.28,2.73s.11,1.84.28,2.73l-5.09,2.94,5,8.66,5.14-2.97c1.37,1.17,2.94,2.1,4.68,2.72v5.92h10v-5.92c1.73-.62,3.3-1.54,4.68-2.72l5.14,2.97,5-8.66-5.09-2.94c.16-.89.28-1.79.28-2.73ZM26.92,20c0,3.91-3.19,7.1-7.1,7.1s-7.1-3.19-7.1-7.1,3.19-7.1,7.1-7.1,7.1,3.19,7.1,7.1Z"/>
  </g>
</svg>