<?xml version="1.0" encoding="UTF-8"?>
<svg id="Ebene_2" xmlns="http://www.w3.org/2000/svg" viewBox="0 0 47.57 48">
  <defs>
    <style>
      .cls-1 {
        fill: #1e1e1c;
      }
    </style>
  </defs>
  <g id="_x33_219">
    <path class="cls-1" d="M41.78,24c0-1.12-.13-2.21-.33-3.27l6.11-3.53-6-10.39-6.17,3.56c-1.65-1.41-3.54-2.52-5.62-3.26V0h-12v7.11c-2.08.74-3.97,1.85-5.62,3.26l-6.17-3.56L0,17.2l6.11,3.53c-.2,1.06-.33,2.15-.33,3.27s.13,2.21.33,3.27l-6.11,3.53,6,10.39,6.17-3.56c1.65,1.41,3.53,2.52,5.62,3.26v7.11h12v-7.11c2.08-.74,3.97-1.85,5.62-3.26l6.17,3.56,6-10.39-6.11-3.53c.2-1.06.33-2.15.33-3.27ZM32.3,24c0,4.7-3.82,8.52-8.52,8.52s-8.52-3.82-8.52-8.52,3.82-8.52,8.52-8.52,8.52,3.82,8.52,8.52Z"/>
  </g>
</svg>