<?xml version="1.0" encoding="UTF-8"?>
<svg id="Ebene_2" xmlns="http://www.w3.org/2000/svg" viewBox="0 0 15.86 16">
  <defs>
    <style>
      .cls-1 {
        fill: #1e1e1c;
      }
    </style>
  </defs>
  <g id="_x33_219">
    <path class="cls-1" d="M13.93,8c0-.37-.04-.74-.11-1.09l2.04-1.18-2-3.46-2.06,1.19c-.55-.47-1.18-.84-1.87-1.09V0h-4v2.37c-.69.25-1.32.62-1.87,1.09l-2.06-1.19L0,5.73l2.04,1.18c-.07.35-.11.72-.11,1.09s.04.74.11,1.09l-2.04,1.18,2,3.46,2.06-1.19c.55.47,1.18.84,1.87,1.09v2.37h4v-2.37c.69-.25,1.32-.62,1.87-1.09l2.06,1.19,2-3.46-2.04-1.18c.07-.35.11-.72.11-1.09ZM10.77,8c0,1.57-1.27,2.84-2.84,2.84s-2.84-1.27-2.84-2.84,1.27-2.84,2.84-2.84,2.84,1.27,2.84,2.84Z"/>
  </g>
</svg>