<?xml version="1.0" encoding="UTF-8"?>
<svg id="Ebene_2" xmlns="http://www.w3.org/2000/svg" viewBox="0 0 39.97 39.49">
  <defs>
    <style>
      .cls-1 {
        fill: #1e1e1c;
      }
    </style>
  </defs>
  <g id="_x33_219">
    <path class="cls-1" d="M25.77,39.49h-11.56v-5.87c-1.19-.5-2.3-1.15-3.34-1.94l-5.09,2.94L0,24.61l5.04-2.91c-.1-.69-.15-1.34-.15-1.95s.05-1.26.15-1.95L0,14.88,5.78,4.87l5.09,2.94c1.03-.79,2.15-1.44,3.34-1.94V0h11.56v5.87c1.19.5,2.31,1.15,3.34,1.94l5.09-2.94,5.78,10.01-5.04,2.91c.1.69.15,1.34.15,1.96s-.05,1.26-.15,1.95l5.04,2.91-5.78,10.01-5.09-2.94c-1.03.79-2.15,1.44-3.34,1.94v5.87ZM16.46,37.24h7.06v-5.18l.75-.27c1.46-.52,2.8-1.3,4-2.32l.61-.51,4.5,2.6,3.53-6.11-4.46-2.57.14-.78c.16-.88.24-1.62.24-2.33s-.08-1.47-.24-2.33l-.14-.78,4.46-2.58-3.53-6.11-4.5,2.6-.6-.52c-1.2-1.02-2.55-1.81-4.01-2.33l-.75-.27V2.25h-7.06v5.18l-.75.27c-1.46.52-2.81,1.3-4,2.32l-.6.52-4.5-2.6-3.53,6.11,4.46,2.57-.14.78c-.16.86-.24,1.63-.24,2.33s.08,1.47.24,2.33l.14.78-4.46,2.57,3.53,6.11,4.5-2.6.6.51c1.2,1.02,2.54,1.8,4,2.32l.75.27v5.18ZM19.99,27.48c-4.26,0-7.73-3.47-7.73-7.73s3.47-7.73,7.73-7.73,7.73,3.47,7.73,7.73-3.47,7.73-7.73,7.73ZM19.99,14.26c-3.02,0-5.48,2.46-5.48,5.48s2.46,5.48,5.48,5.48,5.48-2.46,5.48-5.48-2.46-5.48-5.48-5.48Z"/>
  </g>
</svg>