<?xml version="1.0" encoding="UTF-8"?>
<svg id="Ebene_2" xmlns="http://www.w3.org/2000/svg" viewBox="0 0 23.96 23.51">
  <defs>
    <style>
      .cls-1 {
        fill: #1e1e1c;
      }
    </style>
  </defs>
  <g id="_x33_219">
    <path class="cls-1" d="M15.57,23.51h-7.19v-3.5c-.62-.27-1.2-.61-1.75-1.02l-3.04,1.75L0,14.52l3.01-1.74c-.05-.36-.07-.7-.07-1.03s.02-.67.07-1.03l-3.01-1.74L3.6,2.76l3.04,1.75c.55-.41,1.13-.75,1.75-1.02V0h7.19v3.5c.62.27,1.2.61,1.75,1.02l3.04-1.75,3.6,6.23-3.01,1.74c.05.36.07.7.07,1.03s-.02.67-.07,1.03l3.01,1.74-3.6,6.23-3.04-1.75c-.55.41-1.13.75-1.75,1.02v3.5ZM10.13,21.76h3.69v-2.96l.58-.21c.83-.29,1.59-.74,2.27-1.32l.47-.4,2.57,1.49,1.85-3.2-2.55-1.47.11-.61c.09-.5.14-.93.14-1.33s-.04-.82-.14-1.33l-.11-.61,2.55-1.47-1.85-3.19-2.57,1.49-.47-.4c-.68-.58-1.44-1.02-2.27-1.32l-.58-.21V1.75h-3.69v2.96l-.58.21c-.83.29-1.59.74-2.27,1.32l-.47.4-2.57-1.49-1.85,3.2,2.55,1.47-.11.61c-.09.49-.14.92-.14,1.32s.04.83.14,1.32l.11.61-2.55,1.47,1.85,3.2,2.57-1.49.47.4c.68.58,1.45,1.02,2.27,1.32l.58.21v2.96ZM11.98,16.49c-2.61,0-4.74-2.12-4.74-4.74s2.12-4.74,4.74-4.74,4.74,2.12,4.74,4.74-2.12,4.74-4.74,4.74ZM11.98,8.77c-1.65,0-2.99,1.34-2.99,2.99s1.34,2.99,2.99,2.99,2.99-1.34,2.99-2.99-1.34-2.99-2.99-2.99Z"/>
  </g>
</svg>