<?xml version="1.0" encoding="UTF-8"?>
<svg id="Ebene_2" xmlns="http://www.w3.org/2000/svg" viewBox="0 0 31.71 32">
  <defs>
    <style>
      .cls-1 {
        fill: #1e1e1c;
      }
    </style>
  </defs>
  <g id="_x33_219">
    <path class="cls-1" d="M27.86,16c0-.75-.09-1.47-.22-2.18l4.08-2.35-4-6.93-4.11,2.37c-1.1-.94-2.36-1.68-3.75-2.17V0h-8v4.74c-1.39.49-2.64,1.23-3.74,2.17l-4.11-2.37L0,11.46l4.08,2.35c-.13.71-.22,1.43-.22,2.18s.09,1.47.22,2.18l-4.08,2.35,4,6.93,4.11-2.37c1.1.94,2.36,1.68,3.74,2.17v4.74h8v-4.74c1.39-.49,2.64-1.23,3.74-2.17l4.11,2.37,4-6.93-4.08-2.35c.13-.71.22-1.43.22-2.18ZM21.53,16c0,3.13-2.55,5.68-5.68,5.68s-5.68-2.55-5.68-5.68,2.55-5.68,5.68-5.68,5.68,2.55,5.68,5.68Z"/>
  </g>
</svg>