<?xml version="1.0" encoding="UTF-8"?>
<svg id="Ebene_2" xmlns="http://www.w3.org/2000/svg" viewBox="0 0 40 40">
  <defs>
    <style>
      .cls-1 {
        fill: #1e1e1c;
      }
    </style>
  </defs>
  <g id="_x33_219">
    <path class="cls-1" d="M31.56,14.99V3.12c0-1.72-1.4-3.12-3.12-3.12H11.34c-1.72,0-3.12,1.4-3.12,3.12v11.87H0v21.65c0,1.86,1.51,3.36,3.37,3.36h33.26c1.86,0,3.37-1.51,3.37-3.36V14.99h-8.44ZM10.47,3.12c0-.48.39-.87.87-.87h17.1c.48,0,.87.39.87.87v21.61H10.47V3.12ZM8.22,17.23v7.5h-3.25v2.24h30.03v-2.24h-3.43v-7.5h6.19v12.49H2.25v-12.49h5.97ZM36.63,37.76H3.37c-.62,0-1.12-.5-1.12-1.12v-4.67h35.5v4.67c0,.62-.5,1.12-1.12,1.12ZM32.61,34.01h2.25v2.24h-2.25v-2.24ZM14.78,6.53h10.44v2.24h-10.44v-2.24ZM14.78,11.5h10.44v2.24h-10.44v-2.24ZM14.78,16.43h5.22v2.24h-5.22v-2.24ZM28.11,34.01h2.25v2.24h-2.25v-2.24ZM23.61,34.02h2.25v2.24h-2.25v-2.24Z"/>
  </g>
</svg>