<?xml version="1.0" encoding="UTF-8"?>
<svg id="Ebene_2" xmlns="http://www.w3.org/2000/svg" viewBox="0 0 32 32">
  <defs>
    <style>
      .cls-1 {
        fill: #1e1e1c;
      }
    </style>
  </defs>
  <g id="_x33_219">
    <path class="cls-1" d="M25.3,11.94V2c0-1.1-.9-2-2-2h-14.76c-1.1,0-2,.9-2,2v9.94H0v16.99c0,1.69,1.38,3.07,3.07,3.07h25.86c1.69,0,3.07-1.38,3.07-3.07V11.94h-6.71ZM8.53,2h14.76v17.7h-14.76V2ZM6.53,13.94v5.76h-2.48v2h23.87v-2h-2.62v-5.76h4.71v10.17H2v-10.17h4.53ZM28.93,30H3.07c-.59,0-1.07-.48-1.07-1.07v-2.82h28v2.82c0,.59-.48,1.07-1.07,1.07ZM25.92,27.19h2v2h-2v-2ZM21.92,27.19h2v2h-2v-2ZM11.85,5.21h8.29v2h-8.29v-2ZM11.85,9.16h8.29v2h-8.29v-2ZM11.85,13.09h4.15v2h-4.15v-2Z"/>
  </g>
</svg>