<?xml version="1.0" encoding="UTF-8"?>
<svg id="Ebene_2" xmlns="http://www.w3.org/2000/svg" viewBox="0 0 32 32.06">
  <defs>
    <style>
      .cls-1 {
        fill: #1e1e1c;
      }
    </style>
  </defs>
  <g id="_x33_219">
    <path class="cls-1" d="M11.78,5.21h8.29v2h-8.29v-2ZM11.78,11.16h8.29v-2h-8.29v2ZM11.78,15.09h4.15v-2h-4.15v2ZM32,13.94v8.86H0v-8.86h6.46V2c0-1.1.9-2,2-2h14.76c1.1,0,2,.9,2,2v11.94h6.78ZM8.46,19.7h14.76V2h-14.76v17.7ZM0,24.8h32v5.07c0,1.21-.99,2.19-2.21,2.19H2.21c-1.22,0-2.21-.98-2.21-2.19v-5.07ZM27.96,29.19h2v-2h-2v2ZM23.96,29.19h2v-2h-2v2Z"/>
  </g>
</svg>