<?xml version="1.0" encoding="UTF-8"?>
<svg id="Ebene_2" xmlns="http://www.w3.org/2000/svg" viewBox="0 0 64 63.98">
  <defs>
    <style>
      .cls-1 {
        fill: #1e1e1c;
      }
    </style>
  </defs>
  <g id="_x33_219">
    <path class="cls-1" d="M50.42,28.62V5.5c0-3.03-2.47-5.5-5.5-5.5h-26.2c-3.03,0-5.5,2.47-5.5,5.5v23.12H0v19.57h64v-19.57h-13.58ZM16.22,5.5c0-1.38,1.12-2.5,2.5-2.5h26.2c1.38,0,2.5,1.12,2.5,2.5v34.45h-31.2V5.5ZM0,59.98c0,2.21,1.79,4,4,4h56c2.21,0,4-1.79,4-4v-9.1H0v9.1ZM58.46,55.09h2.75v2.75h-2.75v-2.75ZM52.96,55.09h2.75v2.75h-2.75v-2.75ZM47.46,55.09h2.75v2.75h-2.75v-2.75ZM23.54,10.51h16.92v2.75h-16.92v-2.75ZM23.54,18.59h16.92v2.75h-16.92v-2.75ZM23.54,26.59h8.46v2.75h-8.46v-2.75Z"/>
  </g>
</svg>