<?xml version="1.0" encoding="UTF-8"?>
<svg id="Ebene_2" xmlns="http://www.w3.org/2000/svg" viewBox="0 0 24 24">
  <defs>
    <style>
      .cls-1 {
        fill: #1e1e1c;
      }
    </style>
  </defs>
  <g id="_x33_219">
    <path class="cls-1" d="M19.03,7.83V1.87c0-1.03-.84-1.87-1.88-1.87H6.72c-1.04,0-1.88.84-1.88,1.87v5.96H0v13.76c0,1.33,1.08,2.41,2.41,2.41h19.17c1.33,0,2.41-1.08,2.41-2.41V7.83h-4.97ZM6.6,1.87c0-.07.06-.12.13-.12h10.43c.07,0,.13.06.13.12v11.7H6.6V1.87ZM4.84,9.58v3.99h-1.7v1.75h17.7v-1.75h-1.81v-3.99h3.22v7.64H1.75v-7.64h3.09ZM21.59,22.25H2.41c-.36,0-.66-.3-.66-.66v-2.63h20.5v2.63c0,.36-.3.66-.66.66ZM19.03,19.67h1.75v1.75h-1.75v-1.75ZM15.52,19.67h1.75v1.75h-1.75v-1.75ZM8.93,4.98h6.15v1.75h-6.15v-1.75ZM8.93,8.6h3.07v1.75h-3.07v-1.75Z"/>
  </g>
</svg>