<?xml version="1.0" encoding="UTF-8"?>
<svg id="Ebene_2" xmlns="http://www.w3.org/2000/svg" viewBox="0 0 40 40">
  <defs>
    <style>
      .cls-1 {
        fill: #1e1e1c;
      }
    </style>
  </defs>
  <g id="_x33_219">
    <path class="cls-1" d="M20,17.66c4.87,0,8.83-3.96,8.83-8.83S24.87,0,20,0s-8.83,3.96-8.83,8.83,3.96,8.83,8.83,8.83ZM20,2.25c3.63,0,6.58,2.95,6.58,6.58s-2.95,6.58-6.58,6.58-6.58-2.95-6.58-6.58,2.95-6.58,6.58-6.58ZM40,30.56v9.44h-2.25v-9.44c0-4.34-3.58-7.87-7.99-7.87H10.24c-4.41,0-7.99,3.53-7.99,7.87v9.44H0v-9.44c0-5.58,4.59-10.11,10.24-10.11h19.52c5.65,0,10.24,4.54,10.24,10.11ZM9.38,30.56h2.25v9.44h-2.25v-9.44ZM28.22,30.56h2.25v9.44h-2.25v-9.44Z"/>
  </g>
</svg>