<?xml version="1.0" encoding="UTF-8"?>
<svg id="Ebene_2" xmlns="http://www.w3.org/2000/svg" viewBox="0 0 18.67 24">
  <defs>
    <style>
      .cls-1 {
        fill: #1e1e1c;
      }
    </style>
  </defs>
  <g id="_x33_219">
    <path class="cls-1" d="M14.37,0H0v24h18.67V5.33L14.37,0ZM16.35,5.24h-2.8c-.07,0-.13-.06-.13-.13V1.75h.1l2.82,3.49ZM1.75,22.25V1.75h9.93v3.37c0,1.04.84,1.88,1.88,1.88h3.37v15.25H1.75ZM9.39,11.62c-1.31,0-2.38,1.07-2.38,2.38s1.07,2.38,2.38,2.38,2.38-1.07,2.38-2.38-1.07-2.38-2.38-2.38ZM9.39,14.62c-.35,0-.63-.28-.63-.63s.28-.63.63-.63.63.28.63.63-.28.63-.63.63ZM13.83,8.81l-1.69.97c-.16-.1-.32-.2-.49-.28v-1.95h-4.53v1.95c-.17.09-.33.18-.49.28l-1.69-.97-2.27,3.92,1.67.96c0,.1,0,.2,0,.29s0,.19,0,.29l-1.67.96,2.27,3.92,1.69-.97c.16.1.32.2.49.28v1.95h4.53v-1.95c.17-.09.33-.18.48-.28l1.69.97,2.27-3.92-1.67-.96c0-.1,0-.19,0-.29s0-.19,0-.29l1.67-.97-2.27-3.92ZM12.62,13.4c.04.22.06.42.06.6s-.02.38-.06.6l-.11.61,1.19.69-.51.89-1.21-.7-.47.4c-.31.26-.65.46-1.02.6l-.58.21v1.39h-1.03v-1.39l-.58-.21c-.37-.13-.72-.33-1.03-.6l-.47-.4-1.2.7-.51-.89,1.19-.69-.11-.61c-.04-.23-.06-.42-.06-.6s.02-.37.06-.6l.11-.61-1.19-.69.51-.89,1.2.7.47-.4c.31-.26.65-.46,1.03-.6l.58-.21v-1.39h1.03v1.39l.58.21c.37.13.72.33,1.03.6l.47.4,1.2-.7.51.89-1.19.69.11.61Z"/>
  </g>
</svg>