<?xml version="1.0" encoding="UTF-8"?>
<svg id="Ebene_2" xmlns="http://www.w3.org/2000/svg" viewBox="0 0 37.11 48">
  <defs>
    <style>
      .cls-1 {
        fill: #1e1e1c;
      }
    </style>
  </defs>
  <g id="_x33_219">
    <path class="cls-1" d="M23.15,29.33c0,2.57-2.09,4.66-4.66,4.66s-4.66-2.09-4.66-4.66,2.09-4.66,4.66-4.66,4.66,2.09,4.66,4.66ZM37.11,10.56v37.44H0V0h28.59l8.52,10.56ZM28.16,27.54l3.34-1.93-3.28-5.68-3.37,1.95c-.9-.77-1.93-1.38-3.07-1.78v-3.89h-6.56v3.89c-1.14.41-2.17,1.01-3.07,1.78l-3.37-1.95-3.28,5.69,3.34,1.93c-.11.58-.18,1.18-.18,1.79s.07,1.21.18,1.79l-3.34,1.93,3.28,5.69,3.37-1.95c.9.77,1.93,1.38,3.07,1.78v3.89h6.56v-3.89c1.14-.41,2.17-1.01,3.07-1.78l3.37,1.95,3.28-5.69-3.34-1.93c.11-.58.18-1.18.18-1.79s-.07-1.21-.18-1.79ZM34.35,11.98L25.13,1.25v8.68c0,1.13.92,2.05,2.05,2.05h7.18Z"/>
  </g>
</svg>