<?xml version="1.0" encoding="UTF-8"?>
<svg id="Ebene_2" xmlns="http://www.w3.org/2000/svg" viewBox="0 0 12.5 15.96">
  <defs>
    <style>
      .cls-1 {
        fill: #1e1e1c;
      }
    </style>
  </defs>
  <g id="_x33_219">
    <path class="cls-1" d="M9.61,0H0v15.96h12.5V3.58l-2.89-3.58ZM9.22,9.44c0,.19-.02.37-.06.55l1.03.59-1.01,1.75-1.04-.6c-.28.24-.59.42-.94.55v1.2h-2.02v-1.2c-.35-.12-.67-.31-.94-.55l-1.04.6-1.01-1.75,1.03-.59c-.03-.18-.06-.36-.06-.55s.02-.37.06-.55l-1.03-.59,1.01-1.75,1.04.6c.28-.24.59-.42.94-.55v-1.2h2.02v1.2c.35.12.67.31.94.55l1.04-.6,1.01,1.75-1.03.59c.03.18.06.36.06.55ZM8.84,4.16c-.28,0-.5-.22-.5-.5V.75l2.91,3.41h-2.41ZM7.62,9.44c0,.79-.64,1.43-1.43,1.43s-1.43-.64-1.43-1.43.64-1.43,1.43-1.43,1.43.64,1.43,1.43Z"/>
  </g>
</svg>