<?xml version="1.0" encoding="UTF-8"?>
<svg id="Ebene_2" xmlns="http://www.w3.org/2000/svg" viewBox="0 0 40 40">
  <defs>
    <style>
      .cls-1 {
        fill: #1d1d1b;
      }
    </style>
  </defs>
  <g id="_x33_219">
    <path class="cls-1" d="M12.96,22.68h4.9v4.85h-4.9v-4.85ZM40,0v40H0V0h40ZM27.12,4.25h8.62v9.16h2.25V2h-10.87v2.25ZM22.77,17.78h4.89v4.89h4.9v-4.9h-4.89v-4.84h4.89v-4.9h-4.9v4.85h-4.89v4.9ZM17.86,12.93h4.9v-4.9h-4.9v4.9ZM2.01,12.88h2.25V4.25h9.16v-2.25H2.01v10.87ZM12.87,35.75H4.25v-9.16H2v11.41h10.87v-2.25ZM22.75,27.56v4.88h9.8v-4.9h-9.8v-4.88h-4.9v-4.88h-4.9v-9.75h-4.9v9.75h4.9v4.88h-4.9v9.78h9.8v-4.88h4.9ZM38.01,27.12h-2.25v8.62h-9.16v2.25h11.41v-10.87Z"/>
  </g>
</svg>