<?xml version="1.0" encoding="UTF-8"?>
<svg id="Ebene_2" xmlns="http://www.w3.org/2000/svg" viewBox="0 0 48 48">
  <defs>
    <style>
      .cls-1 {
        fill: #1d1d1b;
      }
    </style>
  </defs>
  <g id="_x33_219">
    <path class="cls-1" d="M0,0v48h48V0H0ZM32.46,2.58h12.95v13.59h-2.5V5.08h-10.45v-2.5ZM27.37,15.32h5.96v-5.92h5.97v5.97h-5.96v5.9h5.96v5.97h-5.97v-5.96h-5.96v-5.97ZM21.38,9.4h5.97v5.97h-5.97v-5.97ZM2.55,2.58h13.59v2.5H5.05v10.45h-2.5V2.58ZM15.45,45.5H2.5v-13.59h2.5v11.09h10.45v2.5ZM21.38,33.21v5.95h-11.95v-11.92h5.97v-5.95h-5.97v-11.89s5.97,0,5.97,0v11.89h5.97v5.95h5.97v5.95h11.95v5.97h-11.95v-5.95h-5.97ZM45.46,45.45h-13.59v-2.5h11.09v-10.45h2.5v12.95ZM15.4,27.26h5.97v5.92h-5.97v-5.92Z"/>
  </g>
</svg>