<?xml version="1.0" encoding="UTF-8"?>
<svg id="Ebene_2" xmlns="http://www.w3.org/2000/svg" viewBox="0 0 64 64">
  <defs>
    <style>
      .cls-1 {
        fill: #1e1e1c;
      }
    </style>
  </defs>
  <g id="_x33_219">
    <path class="cls-1" d="M2.75,21.27H0V.04h21.98v2.75H2.75v18.48ZM42.78,0v2.75h18.48v19.24h2.75V0h-21.22ZM61.22,61.25h-19.23v2.75h21.98v-21.23h-2.75v18.48ZM2.79,42.01H.04v21.99h21.22v-2.75H2.79v-19.24ZM48.16,54.2h-12.59v-6.27h-6.3v6.27H10.38v-6.3h6.3v-6.24h-6.3v-12.57h6.3v-6.24h-6.3v-6.3h6.3v-6.27h6.3v6.3h-6.3v6.24h12.59v-12.54h6.3v6.27h6.3v-6.27h6.3v6.27h6.3v12.57h-6.3v-6.27h-6.3v6.23h.02v6.29h6.28v6.27h6.3v12.57h-6.3ZM22.97,35.36v-6.24h-6.3v6.24h6.3ZM29.27,35.39h-6.3v12.51h6.3v-12.51ZM35.57,29.09v-6.24h-6.3v6.24h6.3ZM41.87,41.63v-6.26h-6.28s-.01-.01-.01-.01v6.27h6.3ZM41.87,47.9h6.3v-6.24h-6.3v6.24Z"/>
  </g>
</svg>