<?xml version="1.0" encoding="UTF-8"?>
<svg id="Ebene_2" xmlns="http://www.w3.org/2000/svg" viewBox="0 0 32 32">
  <defs>
    <style>
      .cls-1 {
        fill: #1e1e1c;
      }
    </style>
  </defs>
  <g id="_x33_219">
    <path class="cls-1" d="M2,10.78H0V0h11.15v2H2v8.78ZM21.22.03v2h8.78v9.15h2V.03h-10.78ZM29.99,29.98h-9.15v2h11.15v-10.78h-2v8.78ZM2.01,20.85H0v11.15h10.78v-2H2.01v-9.15ZM17.76,26.98v-3.09h-3.1v3.09H5.35v-3.1h3.1v-3.07h-3.1v-3.09h0v-3.1h3.1v-3.07h-3.1v-3.1h3.1v-3.09h3.1v3.1h-3.1v3.07h6.21v-3.07h0v-3.1h3.1v3.09h3.1v-3.09h3.1v3.09h3.1v3.09h0v3.1h-3.1v-3.09h-3.1v3.07h0v3.1h3.09v3.09h3.1v3.09h0v3.1h-9.31ZM20.87,20.8v3.07h3.1v-3.07h-3.1ZM17.76,17.7v3.09h3.1v-3.08h-3.1s0,0,0,0ZM11.56,17.7v-3.07h-3.1v3.07h3.1ZM14.66,17.71h-3.1v3.07h0v3.09h3.1v-3.07h0v-3.09ZM17.76,14.61v-3.07h-3.1v3.07h3.1Z"/>
  </g>
</svg>