<?xml version="1.0" encoding="UTF-8"?>
<svg id="Ebene_2" xmlns="http://www.w3.org/2000/svg" viewBox="0 0 32 32">
  <defs>
    <style>
      .cls-1 {
        fill: #1d1d1b;
      }
    </style>
  </defs>
  <g id="_x33_219">
    <path class="cls-1" d="M10.81,18h3.62v3.59h-3.62v-3.59ZM32,0v32H0V0h32ZM18.07,14.37h3.61v3.61h3.62v-3.62h-3.61v-3.58h3.61v-3.62h-3.62v3.59h-3.61v3.62ZM14.43,10.79h3.62v-3.62h-3.62v3.62ZM2,10.81h2v-6.8h7.23v-2H2v8.8ZM10.8,28h-6.8v-7.23h-2v9.23h8.8v-2ZM18.05,21.6v3.6h7.24v-3.62h-7.24v-3.6h-3.62v-3.6h-3.62v-7.21h-3.62v7.21h3.62v3.6h-3.62v7.23h7.24v-3.6h3.62ZM30,21.2h-2v6.8h-7.23v2h9.23v-8.8ZM30.01,2.02h-8.8v2h6.8v7.23h2V2.02Z"/>
  </g>
</svg>