<?xml version="1.0" encoding="UTF-8"?>
<svg id="Ebene_2" xmlns="http://www.w3.org/2000/svg" viewBox="0 0 32 32">
  <defs>
    <style>
      .cls-1 {
        fill: #1e1e1c;
      }
    </style>
  </defs>
  <g id="_x33_219">
    <path class="cls-1" d="M16.33,14.2c3.91,0,7.1-3.18,7.1-7.1S20.25,0,16.33,0s-7.1,3.18-7.1,7.1,3.18,7.1,7.1,7.1ZM16.33,3.5c1.98,0,3.59,1.61,3.59,3.59s-1.61,3.59-3.59,3.59-3.59-1.61-3.59-3.59,1.61-3.59,3.59-3.59ZM32,25.64v6.36h-3.5v-6.36c0-2.97-2.41-5.38-5.38-5.38h-8.23v-3.5h8.23c4.9,0,8.88,3.98,8.88,8.88ZM20.69,25.64h3.5v6.36h-3.5v-6.36ZM9.6,18.66l6.4,6.4-6.4,6.41c-.34.34-.79.51-1.24.51s-.9-.17-1.24-.51c-.68-.68-.68-1.79,0-2.48l2.18-2.18H0v-3.5h9.3l-2.18-2.18c-.68-.68-.68-1.79,0-2.48s1.79-.68,2.48,0Z"/>
  </g>
</svg>