<?xml version="1.0" encoding="UTF-8"?>
<svg id="Ebene_2" xmlns="http://www.w3.org/2000/svg" viewBox="0 0 64 64">
  <defs>
    <style>
      .cls-1 {
        fill: #1e1e1c;
      }
    </style>
  </defs>
  <g id="_x33_219">
    <path class="cls-1" d="M32.94,27.37c7.54,0,13.68-6.14,13.68-13.68S40.48,0,32.94,0s-13.68,6.14-13.68,13.68,6.14,13.68,13.68,13.68ZM32.94,5c4.79,0,8.68,3.89,8.68,8.68s-3.89,8.68-8.68,8.68-8.68-3.89-8.68-8.68,3.89-8.68,8.68-8.68ZM64,51.16v12.84h-5v-12.84c0-6.56-5.33-11.89-11.88-11.89h-18.16v-5h18.16c9.31,0,16.88,7.58,16.88,16.89ZM42.81,51.16h5v12.84h-5v-12.84ZM19.32,37.99l12.62,12.62-12.62,12.62c-.49.49-1.13.73-1.77.73s-1.28-.24-1.77-.73c-.98-.98-.98-2.56,0-3.54l6.58-6.58H0v-5h22.37l-6.58-6.58c-.98-.98-.98-2.56,0-3.54s2.56-.98,3.54,0Z"/>
  </g>
</svg>