<?xml version="1.0" encoding="UTF-8"?>
<svg id="Ebene_2" xmlns="http://www.w3.org/2000/svg" viewBox="0 0 16 16">
  <defs>
    <style>
      .cls-1 {
        fill: #1e1e1c;
      }
    </style>
  </defs>
  <g id="_x33_219">
    <path class="cls-1" d="M8,7.47c2.05,0,3.71-1.67,3.71-3.73s-1.67-3.73-3.71-3.73-3.71,1.67-3.71,3.73,1.67,3.73,3.71,3.73ZM8,2.5c.67,0,1.22.55,1.22,1.23s-.55,1.23-1.22,1.23-1.22-.55-1.22-1.23.55-1.23,1.22-1.23ZM16,12.87v3.13h-2.49v-3.13c0-1.24-1.01-2.25-2.24-2.25h-3.75v-2.5h3.75c2.61,0,4.73,2.13,4.73,4.76ZM9.39,12.87h2.49v3.13h-2.49v-3.13ZM5.17,9.56l3.01,3.02-3.01,3.02c-.24.24-.56.37-.88.37s-.64-.12-.88-.37c-.49-.49-.49-1.28,0-1.77H0v-2.5h3.41c-.49-.49-.49-1.28,0-1.77s1.27-.49,1.76,0Z"/>
  </g>
</svg>