<?xml version="1.0" encoding="UTF-8"?>
<svg id="Ebene_2" xmlns="http://www.w3.org/2000/svg" viewBox="0 0 64 64">
  <defs>
    <style>
      .cls-1 {
        fill: #1e1e1c;
      }
    </style>
  </defs>
  <g id="_x33_219">
    <path class="cls-1" d="M32.98,27.39c7.56,0,13.71-6.14,13.71-13.69S40.54,0,32.98,0s-13.7,6.14-13.7,13.7,6.15,13.69,13.7,13.69ZM32.98,2.75c6.04,0,10.96,4.91,10.96,10.95s-4.91,10.95-10.96,10.95-10.95-4.91-10.95-10.95,4.91-10.95,10.95-10.95ZM64,51.17v12.83h-2.75v-12.83c0-7.17-5.84-13-13.01-13h-23.67v-2.75h23.67c8.69,0,15.76,7.07,15.76,15.75ZM43.93,51.17h2.75v12.83h-2.75v-12.83ZM18.53,39.95l11.82,11.81-11.82,11.81c-.27.27-.62.4-.97.4s-.7-.13-.97-.4c-.54-.54-.54-1.41,0-1.94l8.5-8.5H0v-2.75h25.08l-8.5-8.5c-.54-.54-.54-1.41,0-1.94.54-.54,1.41-.54,1.95,0Z"/>
  </g>
</svg>