<?xml version="1.0" encoding="UTF-8"?>
<svg id="Ebene_2" xmlns="http://www.w3.org/2000/svg" viewBox="0 0 38.22 40">
  <defs>
    <style>
      .cls-1 {
        fill: #1e1e1c;
      }
    </style>
  </defs>
  <g id="_x33_219">
    <path class="cls-1" d="M38.22,23.98c-1.58,9.28-9.56,16.02-18.97,16.02C8.63,40,0,31.35,0,20.72S8.63,1.44,19.25,1.44c5.23,0,10.12,2.07,13.78,5.82l.03.03V2c0-1.11.9-2,2-2s2,.9,2,2v12.08h-13.5c-1.1,0-2-.9-2-2s.9-2,2-2h6.62c-2.93-3-6.8-4.63-10.94-4.63-8.41,0-15.25,6.85-15.25,15.27s6.84,15.27,15.25,15.27c7.46,0,13.78-5.34,15.03-12.69l3.94.67Z"/>
  </g>
</svg>