<?xml version="1.0" encoding="UTF-8"?>
<svg id="Ebene_2" xmlns="http://www.w3.org/2000/svg" viewBox="0 0 22.07 24">
  <defs>
    <style>
      .cls-1 {
        fill: #1e1e1c;
      }
    </style>
  </defs>
  <g id="_x33_219">
    <path class="cls-1" d="M22.07,14.76c-.91,5.36-5.52,9.24-10.96,9.24C4.99,24,0,19.01,0,12.88S4.99,1.76,11.11,1.76c2.94,0,5.69,1.14,7.78,3.19V1.5c0-.83.67-1.5,1.5-1.5s1.5.67,1.5,1.5v8.68h-9.69c-.83,0-1.5-.67-1.5-1.5s.67-1.5,1.5-1.5h4.68c-1.57-1.57-3.6-2.42-5.77-2.42-4.47,0-8.11,3.64-8.11,8.12s3.64,8.12,8.11,8.12c3.97,0,7.33-2.84,8-6.74l2.96.5Z"/>
  </g>
</svg>