<?xml version="1.0" encoding="UTF-8"?>
<svg id="Ebene_2" xmlns="http://www.w3.org/2000/svg" viewBox="0 0 45.83 48">
  <defs>
    <style>
      .cls-1 {
        fill: #1e1e1c;
      }
    </style>
  </defs>
  <g id="_x33_219">
    <path class="cls-1" d="M45.83,28.81c-1.89,11.12-11.46,19.19-22.75,19.19C10.35,48,0,37.64,0,24.91S10.35,1.82,23.08,1.82c6.27,0,12.14,2.47,16.52,6.97l2.24,2.19V1.25c0-.69.56-1.25,1.25-1.25s1.25.56,1.25,1.25v13.99h-15.8c-.69,0-1.25-.56-1.25-1.25s.56-1.25,1.25-1.25h11.53l-2.24-2.19c-3.93-4.03-9.16-6.23-14.75-6.23C11.73,4.32,2.5,13.56,2.5,24.91s9.23,20.59,20.58,20.59c10.07,0,18.6-7.19,20.29-17.11l2.46.42Z"/>
  </g>
</svg>