<?xml version="1.0" encoding="UTF-8"?>
<svg id="Ebene_2" xmlns="http://www.w3.org/2000/svg" viewBox="0 0 38.19 40">
  <defs>
    <style>
      .cls-1 {
        fill: #1e1e1c;
      }
    </style>
  </defs>
  <g id="_x33_219">
    <path class="cls-1" d="M38.19,24.01c-1.58,9.27-9.55,15.99-18.96,15.99C8.63,40,0,31.37,0,20.75S8.63,1.51,19.23,1.51c5.23,0,10.11,2.06,13.77,5.81l1.71,1.67V1.13c0-.62.5-1.13,1.12-1.13s1.12.5,1.12,1.13v11.7h-13.19c-.62,0-1.12-.5-1.12-1.13s.5-1.13,1.12-1.13h9.35l-1.7-1.66c-3.24-3.33-7.56-5.15-12.17-5.15C9.87,3.76,2.25,11.38,2.25,20.75s7.62,16.99,16.98,16.99c8.31,0,15.34-5.94,16.74-14.12l2.22.38Z"/>
  </g>
</svg>