<?xml version="1.0" encoding="UTF-8"?>
<svg id="Ebene_2" xmlns="http://www.w3.org/2000/svg" viewBox="0 0 22.92 24">
  <defs>
    <style>
      .cls-1 {
        fill: #1e1e1c;
      }
    </style>
  </defs>
  <g id="_x33_219">
    <path class="cls-1" d="M22.92,14.4c-.95,5.56-5.73,9.6-11.38,9.6C5.18,24,0,18.82,0,12.45S5.18.89,11.54.89c3.14,0,6.07,1.24,8.26,3.49l.64.63V.88c0-.48.39-.88.88-.88s.88.39.88.88v7.11h-7.99c-.48,0-.88-.39-.88-.88s.39-.88.88-.88h4.99l-.63-.62c-1.87-1.92-4.36-2.97-7.03-2.97C6.14,2.64,1.75,7.04,1.75,12.45s4.39,9.8,9.79,9.8c4.79,0,8.85-3.43,9.65-8.14l1.72.29Z"/>
  </g>
</svg>