<?xml version="1.0" encoding="UTF-8"?>
<svg id="Ebene_2" xmlns="http://www.w3.org/2000/svg" viewBox="0 0 32 32">
  <defs>
    <style>
      .cls-1 {
        fill: #1e1e1c;
      }
    </style>
  </defs>
  <g id="_x33_219">
    <path class="cls-1" d="M29,0H6.84L0,6.84v22.16c0,1.65,1.34,3,3,3h26.01c1.65,0,3-1.35,3-3V3c0-1.65-1.34-3-3-3ZM10.81,2h1.33v2.88h4.74v-2.88h5.36v3.92c0,.55-.45,1-1,1h-10.44V2ZM13.89,2h1.25v1.13h-1.25v-1.13ZM25.84,30h-2.04v-2.04h2.04v2.04ZM30,29c0,.55-.45,1-1,1h-1.16v-4.04h-6.03v4.04H3c-.55,0-1-.45-1-1V7.67L7.66,2h1.14v6.92h12.44c1.65,0,3-1.35,3-3v-3.92h4.76c.55,0,1,.45,1,1v26ZM16.01,12.09c-3.3,0-5.99,2.69-5.99,6s2.69,6,5.99,6,5.99-2.69,5.99-6-2.69-6-5.99-6ZM16.01,22.09c-2.2,0-3.99-1.79-3.99-4s1.79-4,3.99-4,3.99,1.79,3.99,4-1.79,4-3.99,4Z"/>
  </g>
</svg>