<?xml version="1.0" encoding="UTF-8"?>
<svg id="Ebene_2" xmlns="http://www.w3.org/2000/svg" viewBox="0 0 64 64">
  <defs>
    <style>
      .cls-1 {
        fill: #1e1e1c;
      }
    </style>
  </defs>
  <g id="_x33_219">
    <path class="cls-1" d="M60.47,0h-11.94v12.06c0,2.76-2.33,5.01-5.19,5.01h-26.83V0h-3.18L0,13.34v47.14c0,1.94,1.58,3.52,3.53,3.52h56.95c1.95,0,3.53-1.58,3.53-3.52V3.52c0-1.94-1.59-3.52-3.53-3.52ZM32,50.19c-7.68,0-13.92-6.25-13.92-13.93s6.24-13.93,13.92-13.93,13.92,6.25,13.92,13.93-6.24,13.93-13.92,13.93ZM56.1,63.97h-2.75v-5.62h-5.25v5.62h-2.75v-8.38h10.75v8.38ZM31.52,5.42h-4.05V0h4.05v5.42ZM43.35,14.32h-24.08V0h5.45v8.17h9.55V0h11.52v12.06c0,1.25-1.09,2.26-2.44,2.26ZM43.17,36.26c0,6.16-5.01,11.18-11.17,11.18s-11.17-5.01-11.17-11.18,5.01-11.18,11.17-11.18,11.17,5.01,11.17,11.18Z"/>
  </g>
</svg>