<?xml version="1.0" encoding="UTF-8"?>
<svg id="Ebene_2" xmlns="http://www.w3.org/2000/svg" viewBox="0 0 48 48">
  <defs>
    <style>
      .cls-1 {
        fill: #1e1e1c;
      }
    </style>
  </defs>
  <g id="_x33_219">
    <path class="cls-1" d="M44.24,0H10.21L0,10.22v34.03c0,2.07,1.69,3.75,3.76,3.75h40.48c2.07,0,3.76-1.68,3.76-3.75V3.75c0-2.07-1.69-3.75-3.76-3.75ZM15.64,2.5h2.93v4.65h7.29V2.5h6.52v7.07c0,.69-.56,1.25-1.25,1.25h-15.5V2.5ZM21.08,2.5h2.28v2.15h-2.28v-2.15ZM39.12,45.5h-3.48v-3.61h3.48v3.61ZM45.49,44.25c0,.69-.56,1.25-1.25,1.25h-2.61v-6.11h-8.49v6.11H3.76c-.69,0-1.25-.56-1.25-1.25V11.25L11.25,2.5h1.88v10.82h18c2.07,0,3.76-1.68,3.76-3.75V2.5h9.34c.69,0,1.25.56,1.25,1.25v40.5ZM24.02,17.8c-5.12,0-9.28,4.15-9.28,9.25s4.16,9.25,9.28,9.25,9.28-4.15,9.28-9.25-4.16-9.25-9.28-9.25ZM24.02,33.81c-3.73,0-6.77-3.03-6.77-6.75s3.04-6.75,6.77-6.75,6.77,3.03,6.77,6.75-3.04,6.75-6.77,6.75Z"/>
  </g>
</svg>