<?xml version="1.0" encoding="UTF-8"?>
<svg id="Ebene_2" xmlns="http://www.w3.org/2000/svg" viewBox="0 0 24 24">
  <defs>
    <style>
      .cls-1 {
        fill: #1e1e1c;
      }
    </style>
  </defs>
  <g id="_x33_219">
    <path class="cls-1" d="M21.38,0H5.15L0,5.15v16.23c0,1.45,1.17,2.62,2.62,2.62h18.76c1.44,0,2.62-1.18,2.62-2.62V2.62c0-1.45-1.17-2.62-2.62-2.62ZM8.28,1.75h8.22v2.51c0,.48-.39.87-.87.87h-7.35V1.75ZM19.17,22.25h-1.25v-1.25h1.25v1.25ZM22.25,21.38c0,.48-.39.87-.87.87h-.47v-3h-4.74v3H2.62c-.48,0-.87-.39-.87-.87V5.87L5.87,1.75h.66v5.14h9.1c1.44,0,2.62-1.18,2.62-2.62V1.75h3.13c.48,0,.87.39.87.87v18.76ZM12.01,9.18c-2.41,0-4.36,1.96-4.36,4.37s1.96,4.37,4.36,4.37,4.36-1.96,4.36-4.37-1.96-4.37-4.36-4.37ZM12.01,16.17c-1.44,0-2.62-1.18-2.62-2.62s1.17-2.62,2.62-2.62,2.62,1.18,2.62,2.62-1.17,2.62-2.62,2.62Z"/>
  </g>
</svg>