<?xml version="1.0" encoding="UTF-8"?>
<svg id="Ebene_2" xmlns="http://www.w3.org/2000/svg" viewBox="0 0 64 64">
  <defs>
    <style>
      .cls-1 {
        fill: #1e1e1c;
      }
    </style>
  </defs>
  <g id="_x33_219">
    <path class="cls-1" d="M59.25,0H13.57L0,13.57v45.69c0,2.62,2.13,4.74,4.75,4.74h54.5c2.62,0,4.75-2.13,4.75-4.74V4.74c0-2.62-2.13-4.74-4.75-4.74ZM19.87,2.75h5.1v6.38h9.25V2.75h10.91v9.94c0,1.16-1.02,2.1-2.27,2.1h-22.99V2.75ZM27.73,2.75h3.75v3.63h-3.75v-3.63ZM52.55,61.25h-5.25v-5.52h5.25v5.52ZM61.25,59.26c0,1.1-.9,1.99-2,1.99h-3.95v-8.28h-10.75v8.28H4.75c-1.1,0-2-.89-2-1.99V14.71L14.71,2.75h2.41v14.8h25.74c2.77,0,5.02-2.18,5.02-4.85V2.75h11.36c1.1,0,2,.89,2,1.99v54.51ZM32,22.69c-7.38,0-13.38,6.01-13.38,13.39s6,13.39,13.38,13.39,13.38-6.01,13.38-13.39-6-13.39-13.38-13.39ZM32,46.71c-5.86,0-10.63-4.77-10.63-10.64s4.77-10.64,10.63-10.64,10.63,4.77,10.63,10.64-4.77,10.64-10.63,10.64Z"/>
  </g>
</svg>