<?xml version="1.0" encoding="UTF-8"?>
<svg id="Ebene_2" xmlns="http://www.w3.org/2000/svg" viewBox="0 0 24 24">
  <defs>
    <style>
      .cls-1 {
        fill: #1d1d1b;
      }
    </style>
  </defs>
  <g id="_x33_219">
    <path class="cls-1" d="M20.06,15.5l-.16-1.25c.98.07,1.92.36,2.76.87.41.25.95.12,1.2-.29.25-.41.12-.95-.29-1.2-1.18-.72-2.52-1.11-3.9-1.14l-.16-1.29c.35.27.79.43,1.26.43h.88v-4.21h-.88c-.67,0-1.26.32-1.64.8l-.22-1.69c-.08-.84-.77-1.48-1.62-1.48h-1.8c-.48,0-.88.39-.88.88s.39.88.88.88h1.69l.74,5.82c-1.44.29-2.78.97-3.86,2.01,0,0-.01.02-.02.03v-1.26c0-.62-.3-1.17-.76-1.52l1.33-1.73h.26c.48,0,.88-.39.88-.88s-.39-.88-.88-.88h-2.07v-3.05c0-.48-.39-.88-.88-.88s-.88.39-.88.88v4.8h1.36l-1.03,1.34h-1.08V1.29c0-.71-.58-1.29-1.29-1.29H1.29C.58,0,0,.58,0,1.29v17.82c0,.09.03.18.04.26-.01.12-.04.24-.04.36,0,2.35,1.9,4.27,4.24,4.27,1.89,0,3.48-1.26,4.03-2.98h3.86c1.05,0,1.91-.86,1.91-1.91v-1.57c.32-.61.73-1.17,1.23-1.64.81-.77,1.81-1.28,2.88-1.52l.17,1.36c-1.64.59-2.82,2.15-2.82,4,0,2.35,1.91,4.27,4.25,4.27s4.24-1.91,4.24-4.27-1.74-4.07-3.94-4.23ZM1.75,6.38h2.66v1.03h1.75v-1.03h2.39v5H1.75v-5ZM8.55,1.75v2.87h-2.39v-1.2h-1.75v1.2H1.75V1.75h6.8ZM4.25,22.25c-1.38,0-2.49-1.13-2.49-2.52s1.12-2.52,2.49-2.52,2.5,1.13,2.5,2.52-1.12,2.52-2.5,2.52ZM12.29,19.11c0,.09-.07.16-.16.16h-3.69c-.24-2.13-2.02-3.8-4.2-3.8-.94,0-1.79.32-2.5.83v-2.9c0-.09.07-.16.16-.16h10.23c.09,0,.16.07.16.16v5.71ZM19.76,22.25c-1.38,0-2.5-1.13-2.5-2.52,0-.95.53-1.76,1.3-2.19l.29,2.3c.06.44.43.77.87.77.04,0,.07,0,.11,0,.48-.06.82-.5.76-.98l-.3-2.34c1.12.25,1.96,1.25,1.96,2.45,0,1.39-1.12,2.52-2.49,2.52Z"/>
  </g>
</svg>