<?xml version="1.0" encoding="UTF-8"?>
<svg id="Ebene_2" xmlns="http://www.w3.org/2000/svg" viewBox="0 0 40 40">
  <defs>
    <style>
      .cls-1 {
        fill: #1e1e1c;
      }
    </style>
  </defs>
  <g id="_x33_219">
    <path class="cls-1" d="M33.35,26.52l-.37-2.56c1.87.03,3.7.55,5.29,1.53.53.32,1.22.16,1.55-.37.33-.53.16-1.22-.37-1.55-2-1.23-4.31-1.88-6.66-1.88-.05,0-.09,0-.14,0l-.37-2.55c.55.44,1.23.72,1.99.72h1.13v-6.34h-1.13c-1.08,0-2.03.54-2.61,1.37l-.55-3.81c-.11-1.23-1.13-2.16-2.37-2.16h-3c-.62,0-1.13.5-1.13,1.12s.5,1.12,1.13,1.12h3c.07,0,.12.05.13.18l1.53,10.55c-2.39.45-4.61,1.58-6.41,3.28-.21.2-.41.41-.6.62v-4.01c0-.72-.36-1.36-.91-1.75l1.69-2.32h.59c.62,0,1.13-.5,1.13-1.12s-.5-1.12-1.13-1.12h-3.79v-5.42c0-.62-.5-1.12-1.13-1.12s-1.13.5-1.13,1.12v7.66h2.67l-1.4,1.91h-2.53V1.54c0-.85-.69-1.54-1.54-1.54H1.54C.69,0,0,.69,0,1.54v20.18h.01s0,.06,0,.09v10.87c0,.33.08.63.21.91.18,3.56,3.13,6.4,6.74,6.4,3.17,0,5.83-2.2,6.55-5.15h7.74c1.19,0,2.16-.97,2.16-2.16v-2.97c.55-1.08,1.27-2.05,2.15-2.88,1.46-1.38,3.25-2.3,5.18-2.68l.39,2.71c-2.68.89-4.63,3.42-4.63,6.4,0,3.72,3.03,6.74,6.75,6.74s6.75-3.03,6.75-6.74-2.98-6.69-6.65-6.74ZM7.71,8.8v1.41h2.25v-1.41h5.27v10.67H2.25v-10.67h5.45ZM15.22,2.25v4.3h-5.27v-1.69h-2.25v1.69H2.25V2.25h12.97ZM6.95,37.74c-2.48,0-4.5-2.02-4.5-4.5s2.02-4.5,4.5-4.5,4.5,2.02,4.5,4.5-2.02,4.5-4.5,4.5ZM21.15,32.59h-7.48c-.33-3.41-3.22-6.09-6.72-6.09-1.82,0-3.48.73-4.69,1.91v-6.5h18.89v10.69ZM33.25,37.75c-2.48,0-4.5-2.02-4.5-4.5,0-1.84,1.12-3.42,2.71-4.12l.62,4.28c.08.56.56.96,1.11.96.05,0,.11,0,.16-.01.61-.09,1.04-.66.95-1.27l-.62-4.29c2.28.22,4.07,2.12,4.07,4.45,0,2.48-2.02,4.5-4.5,4.5Z"/>
  </g>
</svg>