<?xml version="1.0" encoding="UTF-8"?>
<svg id="Ebene_2" xmlns="http://www.w3.org/2000/svg" viewBox="0 0 64 64">
  <defs>
    <style>
      .cls-1 {
        fill: #1e1e1c;
      }
    </style>
  </defs>
  <g id="_x33_219">
    <path class="cls-1" d="M22.25,54.42c-.07.45-.16.9-.28,1.33h0c-1.3,4.74-5.64,8.24-10.78,8.24-6.17,0-11.19-5.03-11.19-11.21,0-.66.07-1.3.18-1.93,0-.03,0-.06.01-.09.06-.3.13-.6.21-.9.01-.05.02-.1.04-.15.08-.28.17-.55.27-.82.02-.06.05-.13.07-.19.1-.25.21-.5.33-.74.04-.07.07-.15.11-.22.12-.23.24-.45.37-.67.05-.08.1-.17.15-.25.13-.21.27-.41.41-.6.06-.09.13-.18.2-.26.14-.18.29-.36.44-.53.08-.09.16-.18.25-.27.15-.16.3-.32.46-.47.1-.09.2-.18.3-.27.16-.14.31-.27.47-.4.12-.09.24-.18.35-.27.16-.12.32-.23.48-.34.13-.09.27-.17.41-.25.16-.1.32-.19.49-.28.15-.08.31-.15.47-.23.16-.07.32-.15.48-.22.17-.07.35-.13.53-.2.16-.05.31-.11.47-.16.2-.06.4-.11.6-.16.15-.04.29-.08.44-.11.23-.05.47-.08.71-.11.13-.02.25-.04.37-.05.37-.04.74-.06,1.11-.06,6.17,0,11.19,5.03,11.19,11.21,0,.49-.04.96-.1,1.43,0,.07-.02.13-.03.2ZM60.96,41.53c.94.58,2.17.28,2.75-.66.58-.94.28-2.17-.66-2.75-3.07-1.89-6.59-2.9-10.19-2.96l-.33-2.3c.78.6,1.74.96,2.8.96h1.37v-9.3h-1.37c-1.53,0-2.89.76-3.73,1.91l-1.21-8.36c-.21-2.05-1.91-3.58-3.97-3.58h-4.79c-1.1,0-2,.9-2,2s.89,2,2,2h4.79s2.46,16.99,2.46,16.99c-3.83.7-7.38,2.49-10.26,5.22-.41.39-.79.79-1.17,1.21v-7.23c0-1.03-.65-1.9-1.55-2.24l3.85-5.03h.84c1.1,0,2-.9,2-2s-.89-2-2-2h-5.85v-8.48c0-1.11-.89-2-2-2s-2,.9-2,2v12.48h3.97l-3.72,4.86h-2.61V12.58h-12.57v1.72h-2.75v-1.72H.05v31.86c2.55-3.4,6.59-5.61,11.14-5.61,7.69,0,13.94,6.26,13.94,13.96,0,1.02-.12,2.01-.32,2.96h10.23c1.33,0,2.41-1.08,2.41-2.41v-4.55c.22-.18.42-.38.55-.65.85-1.7,1.99-3.23,3.37-4.54,2.27-2.16,5.07-3.59,8.08-4.17l.36,2.46c-4.9,1.19-8.55,5.61-8.55,10.88,0,6.18,5.02,11.21,11.19,11.21s11.19-5.03,11.19-11.21c0-5.72-4.3-10.44-9.83-11.11l-.36-2.48c2.66.15,5.24.96,7.52,2.35ZM13.05,7.65h2.75v2.18h12.57V1.79c0-.99-.8-1.79-1.79-1.79H1.84C.85,0,.05.8.05,1.79v8.04h13v-2.18Z"/>
  </g>
</svg>