<?xml version="1.0" encoding="UTF-8"?>
<svg id="Ebene_2" xmlns="http://www.w3.org/2000/svg" viewBox="0 0 48 48">
  <defs>
    <style>
      .cls-1 {
        fill: #1e1e1c;
      }
    </style>
  </defs>
  <g id="_x33_219">
    <path class="cls-1" d="M16.39,40.78s-.01.06-.01.1c-.54,4.02-3.98,7.13-8.15,7.13-4.54,0-8.23-3.69-8.23-8.23,0-1.89.64-3.62,1.72-5.01.03-.03.05-.07.07-.1.12-.14.24-.28.36-.42.05-.05.09-.11.14-.16.12-.12.24-.23.36-.35.07-.06.13-.12.2-.18.12-.1.23-.2.36-.29.08-.06.17-.13.25-.19.12-.08.23-.16.35-.24.1-.06.2-.12.3-.18.12-.07.23-.13.35-.19.11-.06.23-.11.34-.17.11-.05.23-.11.35-.15.13-.05.26-.1.39-.14.11-.04.22-.08.34-.11.14-.04.29-.08.44-.11.11-.03.21-.06.32-.08.17-.03.34-.06.51-.08.09-.01.18-.03.27-.04.27-.03.54-.04.81-.04,4.54,0,8.23,3.69,8.23,8.23,0,.34-.03.68-.07,1.01ZM47.17,28.03c-2.25-1.38-4.81-2.16-7.45-2.29l-.22-1.49c.59.39,1.29.62,2.04.62h1.25v-7.41h-1.25c-1.14,0-2.15.53-2.83,1.34l-.79-5.45c-.15-1.69-1.54-2.96-3.24-2.96h-3.6c-.97,0-1.75.78-1.75,1.75s.78,1.75,1.75,1.75h3.38l1.75,12.07c-3,.53-5.79,1.92-8.05,4.05v-3.97c0-.82-.43-1.53-1.08-1.93l2.71-3.53h.51c.97,0,1.75-.78,1.75-1.75s-.78-1.75-1.75-1.75h-4.14v-6.11c0-.97-.78-1.75-1.75-1.75s-1.75.78-1.75,1.75v9.61h2.72l-2.44,3.18h-1.83v-13.85h-9.02v1.39h-2.5v-1.39H.07v22.9c1.97-2.31,4.89-3.78,8.16-3.78,5.92,0,10.73,4.81,10.73,10.73,0,.7-.07,1.38-.2,2.04h7.12c1.26,0,2.28-1.02,2.28-2.28v-3.81c.63-1.17,1.42-2.23,2.39-3.14,1.73-1.64,3.86-2.72,6.16-3.15l.35,2.41c-3.5.95-6.08,4.14-6.08,7.93,0,4.54,3.69,8.23,8.23,8.23s8.23-3.69,8.23-8.23c0-4.07-2.97-7.45-6.86-8.1l-.35-2.38c1.81.19,3.55.77,5.1,1.72.83.51,1.9.25,2.41-.58.51-.82.25-1.9-.58-2.41ZM9.59,5.69h2.5v1.73h9.02V1.66c0-.92-.75-1.66-1.67-1.66H1.74C.82,0,.07.75.07,1.66v5.75h9.52v-1.73Z"/>
  </g>
</svg>