<?xml version="1.0" encoding="UTF-8"?>
<svg id="Ebene_2" xmlns="http://www.w3.org/2000/svg" viewBox="0 0 23.44 32">
  <defs>
    <style>
      .cls-1 {
        fill: #1e1e1c;
      }
    </style>
  </defs>
  <g id="_x33_219">
    <path class="cls-1" d="M14.44,0h-5.44C4.04,0,0,4.04,0,9.01v11.26c0,6.47,5.26,11.73,11.72,11.73s11.72-5.26,11.72-11.73v-11.26C23.44,4.04,19.4,0,14.44,0ZM21.44,9.01v2.79h-5.5v-1.18c0-1.96-1.36-3.6-3.22-4.05V2h1.72c3.86,0,7,3.14,7,7.01ZM11.75,8.44c1.2,0,2.18.98,2.18,2.19v3.28c0,1.21-.98,2.19-2.18,2.19h-.06c-1.2,0-2.18-.98-2.18-2.19v-3.28c0-1.21.98-2.19,2.25-2.19ZM9,2h1.72v4.56c-1.84.44-3.22,2.09-3.22,4.07v1.18H2v-2.79c0-3.86,3.14-7.01,7-7.01ZM11.72,30c-5.36,0-9.72-4.36-9.72-9.73v-6.46h5.5v.1c0,2.31,1.88,4.19,4.18,4.19h.06c2.31,0,4.18-1.88,4.18-4.19v-.1h5.5v6.46c0,5.37-4.36,9.73-9.72,9.73Z"/>
  </g>
</svg>