<?xml version="1.0" encoding="UTF-8"?>
<svg id="Ebene_2" xmlns="http://www.w3.org/2000/svg" viewBox="0 0 29.27 40">
  <defs>
    <style>
      .cls-1 {
        fill: #1e1e1c;
      }
    </style>
  </defs>
  <g id="_x33_219">
    <path class="cls-1" d="M18.15,0h-7.02C4.99,0,0,4.99,0,11.12v14.25c0,8.07,6.57,14.63,14.64,14.63s14.64-6.56,14.64-14.63v-14.25c0-6.13-4.99-11.12-11.12-11.12ZM27.02,11.12v3.73h-7.21v-1.63c0-2.46-1.74-4.51-4.05-5.01V2.25h2.39c4.89,0,8.88,3.98,8.88,8.87ZM14.58,10.35h.11c1.58,0,2.88,1.29,2.88,2.87v4.16c0,1.58-1.29,2.87-2.88,2.87h-.11c-1.58,0-2.88-1.29-2.88-2.87v-4.16c0-1.58,1.29-2.87,2.88-2.87ZM11.12,2.25h2.39v5.97c-2.31.49-4.05,2.55-4.05,5.01v1.63H2.25v-3.73C2.25,6.23,6.23,2.25,11.12,2.25ZM14.64,37.75c-6.83,0-12.39-5.55-12.39-12.38v-8.27h7.21v.28c0,2.82,2.3,5.12,5.12,5.12h.11c2.83,0,5.12-2.3,5.12-5.12v-.28h7.21v8.27c0,6.83-5.56,12.38-12.39,12.38Z"/>
  </g>
</svg>