<?xml version="1.0" encoding="UTF-8"?>
<svg id="Ebene_2" xmlns="http://www.w3.org/2000/svg" viewBox="0 0 35.04 48">
  <defs>
    <style>
      .cls-1 {
        fill: #1e1e1c;
      }
    </style>
  </defs>
  <g id="_x33_219">
    <path class="cls-1" d="M17.54,12.27c1.99,0,3.61,1.62,3.61,3.62v4.92c0,1.99-1.62,3.62-3.61,3.62h-.04c-1.99,0-3.61-1.62-3.61-3.62v-4.92c0-1.99,1.62-3.62,3.65-3.62ZM18.77,9.9c2.79.58,4.88,3.04,4.88,5.98v2.02h11.39v-4.65c0-7.31-5.94-13.25-13.25-13.25h-3.02v9.9ZM11.39,17.9v-2.02c0-2.95,2.1-5.42,4.88-5.99V0h-3.02C5.94,0,0,5.95,0,13.25v4.65h11.39ZM23.65,20.4v.39c0,3.37-2.74,6.12-6.11,6.12h-.04c-3.37,0-6.11-2.74-6.11-6.12v-.39H0v10.13c0,9.63,7.83,17.47,17.46,17.47h.12c9.63,0,17.46-7.83,17.46-17.47v-10.13h-11.39Z"/>
  </g>
</svg>