<?xml version="1.0" encoding="UTF-8"?>
<svg id="Ebene_2" xmlns="http://www.w3.org/2000/svg" viewBox="0 0 11.87 16">
  <defs>
    <style>
      .cls-1 {
        fill: #1e1e1c;
      }
    </style>
  </defs>
  <g id="_x33_219">
    <path class="cls-1" d="M6.69,0h.43c2.62,0,4.75,2.13,4.75,4.75v.95h-3.63v-.34c0-1-.66-1.83-1.56-2.13V0ZM5.13,7.03c0,.41.34.75.75.75h.11c.41,0,.75-.34.75-.75v-1.67c0-.41-.34-.75-.75-.75h-.11c-.41,0-.75.34-.75.75v1.67ZM8.22,7.21c-.09,1.16-1.05,2.07-2.23,2.07h-.11c-1.18,0-2.14-.92-2.23-2.07H0v2.86c0,3.27,2.66,5.94,5.94,5.94s5.94-2.66,5.94-5.94v-2.86h-3.65ZM3.63,5.71v-.34c0-1,.66-1.83,1.56-2.13V0h-.43C2.13,0,0,2.13,0,4.75v.95h3.63Z"/>
  </g>
</svg>