<?xml version="1.0" encoding="UTF-8"?>
<svg id="Ebene_2" xmlns="http://www.w3.org/2000/svg" viewBox="0 0 32 32">
  <defs>
    <style>
      .cls-1 {
        fill: #1e1e1c;
      }
    </style>
  </defs>
  <g id="_x33_219">
    <path class="cls-1" d="M31.02,26.27l-8.12-8.13c.98-1.76,1.54-3.77,1.54-5.92C24.43,5.48,18.95,0,12.22,0S0,5.48,0,12.22s5.48,12.22,12.22,12.22c2.16,0,4.18-.57,5.94-1.55l8.12,8.12c.63.63,1.47.98,2.37.98h0c.9,0,1.74-.35,2.37-.98,1.31-1.31,1.31-3.44,0-4.75ZM2.01,12.22C2.01,6.59,6.59,2.01,12.22,2.01s10.2,4.58,10.2,10.21-4.58,10.21-10.2,10.21S2.01,17.85,2.01,12.22ZM29.6,29.59c-.52.52-1.37.52-1.9,0l-7.84-7.85c.7-.56,1.33-1.2,1.89-1.9l7.85,7.85c.52.52.52,1.38,0,1.9Z"/>
  </g>
</svg>