<?xml version="1.0" encoding="UTF-8"?>
<svg id="Ebene_2" data-name="Ebene 2" xmlns="http://www.w3.org/2000/svg" viewBox="0 0 14.89 13.53">
  <g id="_3219" data-name="3219">
    <path d="M6.76,1.5H0V0h12.82v1.5h-3.69c-.38-.09-.78-.15-1.19-.15s-.8.06-1.19.15ZM3.27,4.27H0v1.5h2.79c.08-.53.25-1.03.48-1.5ZM0,8.54v1.5h4.04c-.39-.44-.72-.94-.95-1.5H0ZM14.67,13.31c-.15.15-.34.22-.53.22s-.38-.07-.53-.22l-3.08-3.08c-.73.52-1.62.84-2.59.84-2.47,0-4.48-2.01-4.48-4.48S5.47,2.1,7.94,2.1s4.49,2.01,4.49,4.49c0,.96-.31,1.85-.83,2.59l3.08,3.08c.29.29.29.77,0,1.06ZM7.94,9.57c1.65,0,2.99-1.34,2.99-2.98s-1.34-2.99-2.99-2.99-2.98,1.34-2.98,2.99,1.34,2.98,2.98,2.98Z"/>
  </g>
</svg>