<?xml version="1.0" encoding="UTF-8"?>
<svg id="Ebene_2" data-name="Ebene 2" xmlns="http://www.w3.org/2000/svg" viewBox="0 0 59.84 54.36">
  <g id="_3219" data-name="3219">
    <path d="M51.25,5H0V0h51.25v5ZM17.75,17.08H0v5h15.26c.59-1.8,1.43-3.48,2.5-5ZM0,34.17v5h17.86c-1.08-1.52-1.94-3.2-2.55-5H0ZM58.23,52.75c-1.04,1.04-2.42,1.61-3.89,1.61s-2.85-.57-3.89-1.61l-9.75-9.75c-2.18,1.06-4.62,1.67-7.21,1.67-9.17,0-16.62-7.46-16.62-16.62s7.46-16.62,16.62-16.62,16.62,7.46,16.62,16.62c0,2.57-.6,5-1.65,7.17l9.76,9.76c2.14,2.14,2.14,5.63,0,7.77ZM33.5,39.67c6.41,0,11.62-5.21,11.62-11.62s-5.21-11.62-11.62-11.62-11.62,5.21-11.62,11.62,5.21,11.62,11.62,11.62Z"/>
  </g>
</svg>