<?xml version="1.0" encoding="UTF-8"?>
<svg id="Ebene_2" xmlns="http://www.w3.org/2000/svg" viewBox="0 0 24 24">
  <defs>
    <style>
      .cls-1 {
        fill: #1e1e1c;
      }
    </style>
  </defs>
  <g id="_x33_219">
    <path class="cls-1" d="M23.3,19.91l-5.79-5.8c.81-1.39,1.28-2.99,1.28-4.71C18.79,4.22,14.57,0,9.39,0S0,4.22,0,9.4s4.21,9.4,9.39,9.4c1.73,0,3.34-.48,4.73-1.29l5.79,5.79c.47.47,1.08.7,1.69.7s1.23-.23,1.69-.7c.93-.93.93-2.46,0-3.39ZM3,9.4c0-3.53,2.87-6.39,6.39-6.39s6.39,2.87,6.39,6.39-2.87,6.39-6.39,6.39-6.39-2.87-6.39-6.39Z"/>
  </g>
</svg>