<?xml version="1.0" encoding="UTF-8"?>
<svg id="Ebene_2" xmlns="http://www.w3.org/2000/svg" viewBox="0 0 16 16">
  <defs>
    <style>
      .cls-1 {
        fill: #1e1e1c;
      }
    </style>
  </defs>
  <g id="_x33_219">
    <path class="cls-1" d="M15.78,14.72l-4.69-4.7c.82-1.05,1.32-2.38,1.32-3.81,0-3.42-2.78-6.21-6.2-6.21S0,2.78,0,6.21s2.78,6.21,6.2,6.21c1.44,0,2.77-.5,3.82-1.33l4.69,4.7c.15.15.34.22.53.22s.38-.07.53-.22c.29-.29.29-.77,0-1.06ZM1.5,6.21C1.5,3.61,3.61,1.5,6.2,1.5s4.7,2.11,4.7,4.7-2.11,4.7-4.7,4.7S1.5,8.8,1.5,6.21Z"/>
  </g>
</svg>