<?xml version="1.0" encoding="UTF-8"?>
<svg id="Ebene_2" data-name="Ebene 2" xmlns="http://www.w3.org/2000/svg" viewBox="0 0 37.44 34.06">
  <g id="_3219" data-name="3219">
    <path d="M32.04,2.25H0V0h32.04v2.25ZM10.43,10.68H0v2.25h9.31c.3-.79.67-1.55,1.13-2.25ZM0,21.36v2.25h10.47c-.46-.7-.84-1.46-1.14-2.25H0ZM36.54,33.15c-.6.6-1.4.91-2.19.91s-1.59-.3-2.19-.91l-6.68-6.69c-1.48.79-3.16,1.24-4.95,1.24-5.82,0-10.55-4.74-10.55-10.56s4.73-10.56,10.55-10.56,10.55,4.74,10.55,10.56c0,1.78-.45,3.46-1.23,4.93l6.69,6.69c1.21,1.21,1.21,3.18,0,4.38ZM20.52,25.46c4.58,0,8.3-3.73,8.3-8.31s-3.73-8.31-8.3-8.31-8.3,3.73-8.3,8.31,3.73,8.31,8.3,8.31ZM34.94,30.36l-6.38-6.39c-.37.43-.77.84-1.2,1.2l6.38,6.39c.32.32.88.32,1.2,0,.33-.33.33-.87,0-1.2Z"/>
  </g>
</svg>