<?xml version="1.0" encoding="UTF-8"?>
<svg id="Ebene_2" xmlns="http://www.w3.org/2000/svg" viewBox="0 0 40 40">
  <defs>
    <style>
      .cls-1 {
        fill: #1e1e1c;
      }
    </style>
  </defs>
  <g id="_x33_219">
    <path class="cls-1" d="M38.59,31.76l-9.34-9.35c1.06-2.09,1.67-4.45,1.67-6.95C30.91,6.94,23.98,0,15.46,0S0,6.94,0,15.47s6.93,15.47,15.46,15.47c2.51,0,4.88-.62,6.98-1.69l9.33,9.34c.91.91,2.12,1.41,3.41,1.41s2.5-.5,3.41-1.41,1.41-2.12,1.41-3.41-.5-2.5-1.41-3.41ZM4.01,15.47c0-6.32,5.14-11.46,11.45-11.46s11.45,5.14,11.45,11.46-5.14,11.46-11.45,11.46-11.45-5.14-11.45-11.46ZM35.75,35.75c-.21.21-.45.24-.58.24s-.37-.03-.58-.24l-8.81-8.82c.4-.36.79-.75,1.15-1.15l8.81,8.82c.21.21.24.45.24.57s-.03.37-.24.58Z"/>
  </g>
</svg>