<?xml version="1.0" encoding="UTF-8"?>
<svg id="Ebene_2" data-name="Ebene 2" xmlns="http://www.w3.org/2000/svg" viewBox="0 0 22.47 20.51">
  <g id="_3219" data-name="3219">
    <path d="M19.18,1.75H0V0h19.18v1.75ZM6,6.39H0v1.75h5.2c.19-.62.47-1.21.81-1.75ZM0,12.78v1.75h6.24c-.38-.53-.69-1.12-.92-1.75H0ZM21.87,19.91c-.39.39-.91.6-1.46.6h0c-.55,0-1.07-.21-1.45-.6l-3.82-3.81c-.88.44-1.87.7-2.92.7-3.6,0-6.52-2.93-6.52-6.52s2.93-6.52,6.52-6.52,6.52,2.93,6.52,6.52c0,1.05-.25,2.03-.69,2.91l3.82,3.82c.8.8.8,2.11,0,2.91ZM12.22,15.04c2.63,0,4.77-2.14,4.77-4.77s-2.14-4.77-4.77-4.77-4.77,2.14-4.77,4.77,2.14,4.77,4.77,4.77ZM20.72,18.45s-.01-.14-.09-.22l-3.59-3.59c-.14.15-.28.3-.43.43l3.59,3.59c.08.08.21.08.22.09.05,0,.14-.01.22-.09.08-.08.09-.17.09-.22Z"/>
  </g>
</svg>