<?xml version="1.0" encoding="UTF-8"?>
<svg id="Ebene_2" data-name="Ebene 2" xmlns="http://www.w3.org/2000/svg" viewBox="0 0 29.86 27.76">
  <g id="_3219" data-name="3219">
    <path d="M25.63,3.5H0V0h25.63v3.5ZM8.34,8.54H0v3.5h6.71c.32-1.28.88-2.46,1.63-3.5ZM0,17.08v3.5h8.36c-.75-1.04-1.32-2.22-1.64-3.5H0ZM28.93,26.83c-.62.62-1.43.93-2.25.93s-1.63-.31-2.25-.93l-4.36-4.36c-1.04.45-2.18.7-3.39.7-4.72,0-8.57-3.84-8.57-8.57s3.84-8.57,8.57-8.57,8.57,3.84,8.57,8.57c0,1.2-.25,2.33-.69,3.37l4.37,4.37c1.24,1.24,1.24,3.25,0,4.49ZM16.69,19.67c2.79,0,5.07-2.27,5.07-5.07s-2.27-5.07-5.07-5.07-5.07,2.27-5.07,5.07,2.27,5.07,5.07,5.07Z"/>
  </g>
</svg>