<?xml version="1.0" encoding="UTF-8"?>
<svg id="Ebene_2" data-name="Ebene 2" xmlns="http://www.w3.org/2000/svg" viewBox="0 0 37.43 34.52">
  <g id="_3219" data-name="3219">
    <path d="M32.04,4H0V0h32.04v4ZM10.62,10.68H0v4h8.72c.4-1.45,1.04-2.8,1.89-4ZM0,21.36v4h10.66c-.86-1.2-1.52-2.54-1.92-4H0ZM36.32,33.41c-.74.74-1.72,1.12-2.7,1.12s-1.95-.37-2.7-1.12l-5.66-5.66c-1.33.6-2.8.94-4.35.94-5.88,0-10.67-4.79-10.67-10.67s4.79-10.67,10.67-10.67,10.67,4.79,10.67,10.67c0,1.54-.34,3-.93,4.33l5.66,5.66c1.49,1.49,1.49,3.91,0,5.4ZM20.91,24.69c3.68,0,6.67-2.99,6.67-6.67s-2.99-6.67-6.67-6.67-6.67,2.99-6.67,6.67,2.99,6.67,6.67,6.67Z"/>
  </g>
</svg>