<?xml version="1.0" encoding="UTF-8"?>
<svg id="Ebene_2" xmlns="http://www.w3.org/2000/svg" viewBox="0 0 48 48">
  <defs>
    <style>
      .cls-1 {
        fill: #1e1e1c;
      }
    </style>
  </defs>
  <g id="_x33_219">
    <path class="cls-1" d="M23.48,21c5.78,0,10.49-4.71,10.49-10.5S29.26,0,23.48,0s-10.49,4.71-10.49,10.5,4.7,10.5,10.49,10.5ZM23.48,4.5c3.3,0,5.99,2.69,5.99,6s-2.69,6-5.99,6-5.99-2.69-5.99-6,2.69-6,5.99-6ZM13.03,29.82c-4.7,0-8.53,3.83-8.53,8.54v9.63H0v-9.63c0-7.19,5.84-13.05,13.03-13.05h13.24v4.5h-13.24ZM11.99,38.37h4.5v9.63h-4.5v-9.63ZM48,37.85l-9.48,9.49c-.44.44-1.01.66-1.59.66s-1.15-.22-1.59-.66c-.88-.88-.88-2.3,0-3.18l4.05-4.06h-15.22v-4.5h15.22l-4.05-4.05c-.88-.88-.88-2.3,0-3.18s2.3-.88,3.18,0l9.48,9.49Z"/>
  </g>
</svg>