<?xml version="1.0" encoding="UTF-8"?>
<svg id="Ebene_2" xmlns="http://www.w3.org/2000/svg" viewBox="0 0 40 40">
  <defs>
    <style>
      .cls-1 {
        fill: #1e1e1c;
      }
    </style>
  </defs>
  <g id="_x33_219">
    <path class="cls-1" d="M19.51,17.55c4.84,0,8.77-3.94,8.77-8.77S24.35,0,19.51,0s-8.77,3.94-8.77,8.77,3.94,8.77,8.77,8.77ZM19.51,2.25c3.6,0,6.52,2.93,6.52,6.52s-2.93,6.52-6.52,6.52-6.52-2.93-6.52-6.52,2.93-6.52,6.52-6.52ZM24.73,24.24h-14.68c-4.3,0-7.8,3.5-7.8,7.8v7.96H0v-7.96c0-5.54,4.51-10.05,10.05-10.05h14.68v2.25ZM10.74,32.04h2.25v7.96h-2.25v-7.96ZM40,32.34l-7.32,7.32c-.22.22-.51.33-.8.33s-.58-.11-.8-.33c-.44-.44-.44-1.15,0-1.59l4.61-4.61h-14.37v-2.25h14.37l-4.61-4.61c-.44-.44-.44-1.15,0-1.59.44-.44,1.15-.44,1.59,0l7.32,7.32Z"/>
  </g>
</svg>