<?xml version="1.0" encoding="UTF-8"?>
<svg id="Ebene_2" xmlns="http://www.w3.org/2000/svg" viewBox="0 0 16 16">
  <defs>
    <style>
      .cls-1 {
        fill: #1e1e1c;
      }
    </style>
  </defs>
  <g id="_x33_219">
    <path class="cls-1" d="M11.11,1.28c-.29-.29-.29-.77,0-1.06s.77-.29,1.06,0l3.82,3.83-3.82,3.83c-.15.15-.34.22-.53.22s-.38-.07-.53-.22c-.29-.29-.29-.77,0-1.06l2.03-2.03h-.96c-3.58,0-6.5,2.92-6.5,6.5v.7h-1.5v-.7c0-4.41,3.59-8,8-8h.92l-1.99-1.99ZM14.49,14.5H2.3c-.44,0-.8-.36-.8-.8V1.5h5.98V0H0v13.7c0,1.27,1.03,2.3,2.3,2.3h13.69v-6.96h-1.5v5.46Z"/>
  </g>
</svg>