<?xml version="1.0" encoding="UTF-8"?>
<svg id="Ebene_2" xmlns="http://www.w3.org/2000/svg" viewBox="0 0 16 16">
  <defs>
    <style>
      .cls-1 {
        fill: #1e1e1c;
      }
    </style>
  </defs>
  <g id="_x33_219">
    <path class="cls-1" d="M12.49,9.01c-.91,0-1.73.35-2.35.92l-3.16-1.59c.01-.11.03-.22.03-.34,0-.13-.02-.26-.04-.39l3.14-1.56c.63.58,1.45.94,2.37.94,1.93,0,3.51-1.57,3.51-3.5s-1.57-3.5-3.51-3.5-3.51,1.57-3.51,3.5c0,.11.02.22.03.33l-3.18,1.58c-.62-.55-1.43-.9-2.32-.9-1.93,0-3.51,1.57-3.51,3.5s1.57,3.5,3.51,3.5c.91,0,1.74-.36,2.36-.93l3.15,1.58c-.01.12-.04.23-.04.35,0,1.93,1.57,3.5,3.51,3.5s3.51-1.57,3.51-3.5-1.57-3.5-3.51-3.5ZM12.49,2.49c.56,0,1.01.45,1.01,1.01s-.45,1.01-1.01,1.01-1.01-.45-1.01-1.01.45-1.01,1.01-1.01ZM3.51,9.01c-.56,0-1.01-.45-1.01-1.01s.45-1.01,1.01-1.01,1.01.45,1.01,1.01-.45,1.01-1.01,1.01ZM12.49,13.51c-.56,0-1.01-.45-1.01-1.01s.45-1.01,1.01-1.01,1.01.45,1.01,1.01-.45,1.01-1.01,1.01Z"/>
  </g>
</svg>