<?xml version="1.0" encoding="UTF-8"?>
<svg id="Ebene_2" xmlns="http://www.w3.org/2000/svg" viewBox="0 0 64 64">
  <defs>
    <style>
      .cls-1 {
        fill: #1e1e1c;
      }
    </style>
  </defs>
  <g id="_x33_219">
    <path class="cls-1" d="M52.36,40.71c-4.06,0-7.63,2.09-9.72,5.25l-20.05-10.03c.44-1.23.7-2.55.7-3.93s-.25-2.7-.7-3.93l20.04-10.02c2.08,3.16,5.66,5.25,9.72,5.25,6.42,0,11.64-5.22,11.64-11.65S58.77,0,52.35,0s-11.64,5.22-11.64,11.65c0,1.38.25,2.7.7,3.93l-20.04,10.02c-2.08-3.16-5.66-5.25-9.72-5.25-6.42,0-11.64,5.22-11.64,11.65s5.22,11.65,11.64,11.65c4.06,0,7.63-2.09,9.72-5.25l20.05,10.03c-.44,1.23-.7,2.55-.7,3.94,0,6.42,5.22,11.65,11.64,11.65s11.64-5.22,11.64-11.65-5.22-11.65-11.64-11.65ZM52.35,2.75c4.9,0,8.89,3.99,8.89,8.9s-3.99,8.9-8.89,8.9-8.89-3.99-8.89-8.9,3.99-8.9,8.89-8.9ZM11.64,40.89c-4.9,0-8.89-3.99-8.89-8.9s3.99-8.9,8.89-8.9,8.89,3.99,8.89,8.9-3.99,8.9-8.89,8.9ZM52.36,61.25c-4.9,0-8.89-3.99-8.89-8.9s3.99-8.9,8.89-8.9,8.89,3.99,8.89,8.9-3.99,8.9-8.89,8.9Z"/>
  </g>
</svg>