<?xml version="1.0" encoding="UTF-8"?>
<svg id="Ebene_2" xmlns="http://www.w3.org/2000/svg" viewBox="0 0 32 32">
  <defs>
    <style>
      .cls-1 {
        fill: #1e1e1c;
      }
    </style>
  </defs>
  <g id="_x33_219">
    <path class="cls-1" d="M25.47,18.94c-1.92,0-3.64.83-4.83,2.15l-7.7-3.85c.08-.4.12-.82.12-1.24s-.04-.84-.12-1.24l7.69-3.85c1.2,1.32,2.92,2.16,4.83,2.16,3.6,0,6.53-2.93,6.53-6.53S29.07,0,25.47,0s-6.53,2.93-6.53,6.53c0,.42.04.84.12,1.24l-7.69,3.85c-1.2-1.32-2.92-2.16-4.83-2.16-3.6,0-6.53,2.93-6.53,6.53s2.93,6.53,6.53,6.53c1.92,0,3.64-.83,4.83-2.15l7.7,3.85c-.08.4-.12.82-.12,1.24,0,3.6,2.93,6.53,6.53,6.53s6.53-2.93,6.53-6.53-2.93-6.53-6.53-6.53ZM25.47,3.51c1.67,0,3.02,1.36,3.02,3.02s-1.36,3.02-3.02,3.02-3.02-1.36-3.02-3.02,1.36-3.02,3.02-3.02ZM6.53,19.02c-1.67,0-3.02-1.36-3.02-3.02s1.36-3.02,3.02-3.02,3.02,1.36,3.02,3.02-1.36,3.02-3.02,3.02ZM25.47,28.49c-1.67,0-3.02-1.36-3.02-3.02s1.36-3.02,3.02-3.02,3.02,1.36,3.02,3.02-1.36,3.02-3.02,3.02Z"/>
  </g>
</svg>