<?xml version="1.0" encoding="UTF-8"?>
<svg id="Ebene_2" xmlns="http://www.w3.org/2000/svg" viewBox="0 0 64 64">
  <defs>
    <style>
      .cls-1 {
        fill: #1e1e1c;
      }
    </style>
  </defs>
  <g id="_x33_219">
    <path class="cls-1" d="M47.15,2.35c-.54-.54-.54-1.41,0-1.95.54-.54,1.41-.54,1.95,0l14.89,14.89-14.89,14.89c-.27.27-.62.4-.97.4s-.7-.13-.97-.4c-.54-.54-.54-1.41,0-1.95l11.66-11.65h-8.37c-16.13,0-29.25,13.12-29.25,29.25v2.95h-2.75v-2.95c0-17.64,14.36-32,32-32h8.2l-11.49-11.49ZM61.25,36.38v24.87H7.94c-2.86,0-5.19-2.33-5.19-5.19V2.75h27.06V0H0v56.06c0,4.38,3.56,7.94,7.94,7.94h56.06v-27.62h-2.75Z"/>
  </g>
</svg>