<?xml version="1.0" encoding="UTF-8"?>
<svg id="Ebene_2" xmlns="http://www.w3.org/2000/svg" viewBox="0 0 32 32">
  <defs>
    <style>
      .cls-1 {
        fill: #1e1e1c;
      }
    </style>
  </defs>
  <g id="_x33_219">
    <path class="cls-1" d="M31.48,7.12c-.45-.55-1.11-.86-1.82-.86H5.69l-.73-6.25H0v2h3.16l3.12,26.54h2.56c-.12.29-.19.61-.19.94,0,1.39,1.13,2.52,2.53,2.52s2.53-1.13,2.53-2.52c0-.33-.07-.65-.19-.94h8.88c-.12.29-.19.61-.19.94,0,1.39,1.13,2.52,2.53,2.52s2.53-1.13,2.53-2.52c0-.33-.07-.65-.19-.94h1.85v-2H8.07l-.42-3.53h21.65l2.64-13.94c.15-.69-.03-1.4-.47-1.95ZM11.18,30c-.28,0-.52-.23-.52-.51s.23-.52.52-.52.52.23.52.52-.23.51-.52.51ZM24.75,30c-.29,0-.52-.23-.52-.51s.23-.52.52-.52.52.23.52.52-.23.51-.52.51ZM29.91,8.38s.1.14.06.3l-.93,4.91h-5.4v-5.33h6.01c.14,0,.22.08.26.12ZM14.51,13.59v-5.33h7.12v5.33h-7.12ZM21.63,15.59v5.41h-7.12v-5.41h7.12ZM12.5,8.25v5.33h-5.95l-.63-5.33h6.58ZM6.79,15.59h5.72v5.41h-5.08l-.64-5.41ZM23.65,21v-5.41h5.02l-1.03,5.41h-4Z"/>
  </g>
</svg>