<?xml version="1.0" encoding="UTF-8"?>
<svg id="Ebene_2" xmlns="http://www.w3.org/2000/svg" viewBox="0 0 48 48">
  <defs>
    <style>
      .cls-1 {
        fill: #1e1e1c;
      }
    </style>
  </defs>
  <g id="_x33_219">
    <path class="cls-1" d="M47.27,10.65c-.62-.77-1.55-1.21-2.54-1.21H8.34L7.22,0H0v2.5h5l4.77,40.28h4.04c-.28.5-.45,1.07-.45,1.69,0,1.95,1.59,3.54,3.54,3.54s3.54-1.59,3.54-3.54c0-.61-.17-1.18-.45-1.69h14.22c-.28.5-.45,1.07-.45,1.69,0,1.95,1.59,3.54,3.54,3.54s3.54-1.59,3.54-3.54c0-.61-.17-1.18-.45-1.69h3.39v-2.5H11.99l-.72-6.05h32.73l3.93-20.84c.2-.97-.04-1.96-.66-2.73ZM16.9,45.5c-.57,0-1.04-.47-1.04-1.04s.47-1.04,1.04-1.04,1.04.47,1.04,1.04-.47,1.04-1.04,1.04ZM37.31,45.5c-.57,0-1.04-.47-1.04-1.04s.47-1.04,1.04-1.04,1.04.47,1.04,1.04-.47,1.04-1.04,1.04ZM32.93,24.3h-11.36v-4.93h11.36v4.93ZM35.43,19.37h8.82l-.93,4.93h-7.89v-4.93ZM32.93,26.8v4.93h-11.36v-4.93h11.36ZM9.51,19.37h9.56v4.93h-8.98l-.58-4.93ZM21.57,16.87v-4.93h11.36v4.93h-11.36ZM19.07,11.94v4.93h-9.86l-.58-4.93h10.44ZM10.39,26.8h8.68v4.93h-8.1l-.58-4.93ZM35.43,31.72v-4.93h7.42l-.93,4.93h-6.49ZM45.48,12.89l-.75,3.98h-9.3v-4.93h9.3c.32,0,.51.18.59.28.09.11.22.33.15.67Z"/>
  </g>
</svg>