<?xml version="1.0" encoding="UTF-8"?>
<svg id="Ebene_2" xmlns="http://www.w3.org/2000/svg" viewBox="0 0 24 24">
  <defs>
    <style>
      .cls-1 {
        fill: #1e1e1c;
      }
    </style>
  </defs>
  <g id="_x33_219">
    <path class="cls-1" d="M23.96,6.94c.12-.55-.02-1.12-.38-1.56s-.89-.69-1.46-.69H4.36L3.81,0H0v1.75h2.25l2.33,19.66h1.85c-.06.19-.1.38-.1.58,0,1.11.9,2.01,2.01,2.01s2.01-.9,2.01-2.01c0-.2-.04-.4-.1-.58h6.29c-.06.19-.1.38-.1.58,0,1.11.9,2.01,2.01,2.01s2.01-.9,2.01-2.01c0-.2-.04-.4-.1-.58h1.84v-1.75H6.13l-.26-2.19h16.1l1.99-10.53ZM8.08,21.99c0-.14.12-.26.26-.26s.26.12.26.26c0,.29-.52.29-.52,0ZM18.2,21.99c0-.14.12-.26.26-.26s.26.12.26.26c0,.29-.52.29-.52,0ZM22.22,6.47s.03.07.02.12l-.68,3.57h-3.8v-3.74h4.36s.07.02.1.05ZM10.95,10.17v-3.74h5.06v3.74h-5.06ZM16.02,11.92v3.8h-5.06v-3.8h5.06ZM9.2,6.43v3.74h-4.19l-.44-3.74h4.64ZM5.22,11.92h3.99v3.8h-3.54l-.45-3.8ZM17.77,15.72v-3.8h3.47l-.72,3.8h-2.75Z"/>
  </g>
</svg>