<?xml version="1.0" encoding="UTF-8"?>
<svg id="Ebene_2" xmlns="http://www.w3.org/2000/svg" viewBox="0 0 40 40">
  <defs>
    <style>
      .cls-1 {
        fill: #1e1e1c;
      }
    </style>
  </defs>
  <g id="_x33_219">
    <path class="cls-1" d="M39.37,8.9c-.54-.66-1.33-1.04-2.18-1.04H7.01l-.92-7.87H0v2.25h4.09l3.91,33.4h3.31c-.2.4-.32.85-.32,1.32,0,1.67,1.36,3.03,3.03,3.03s3.04-1.36,3.04-3.03c0-.48-.12-.92-.32-1.32h11.57c-.2.4-.32.85-.32,1.32,0,1.67,1.36,3.03,3.04,3.03s3.03-1.36,3.03-3.03c0-.48-.12-.92-.32-1.32h2.43v-2.25H10.01l-.55-4.72h27.19l3.29-17.43c.17-.83-.03-1.68-.57-2.34ZM14.03,37.75c-.43,0-.78-.35-.78-.78s.35-.78.78-.78.78.35.78.78-.35.78-.78.78ZM31.04,37.75c-.43,0-.78-.35-.78-.78s.35-.78.78-.78.78.35.78.78-.35.78-.78.78ZM27.27,20.24h-9.2v-3.94h9.2v3.94ZM29.52,16.3h7.17l-.74,3.94h-6.43v-3.94ZM27.27,22.49v3.94h-9.2v-3.94h9.2ZM8,16.3h7.81v3.94h-7.35l-.46-3.94ZM18.07,14.06v-3.94h9.2v3.94h-9.2ZM15.82,10.12v3.94H7.74l-.46-3.94h8.54ZM8.73,22.49h7.09v3.94h-6.63l-.46-3.94ZM29.52,26.43v-3.94h6l-.74,3.94h-5.26ZM37.12,14.06h-7.6v-3.94h7.67c.23,0,.37.13.43.2.06.08.16.24.11.49l-.61,3.25Z"/>
  </g>
</svg>