<?xml version="1.0" encoding="UTF-8"?>
<svg id="Ebene_2" xmlns="http://www.w3.org/2000/svg" viewBox="0 0 20 20">
  <defs>
    <style>
      .cls-1 {
        fill: #020303;
      }
    </style>
  </defs>
  <g id="_x33_219">
    <path class="cls-1" d="M14.44,0H5.56C2.5,0,0,2.5,0,5.56v8.87c0,3.06,2.5,5.56,5.56,5.56h8.87c3.06,0,5.56-2.5,5.56-5.56V5.56c0-3.06-2.5-5.56-5.56-5.56ZM18.13,14.44c0,2.06-1.69,3.69-3.69,3.69H5.56c-2.06,0-3.69-1.63-3.69-3.69V5.56c0-2.06,1.63-3.69,3.69-3.69h8.87c2.06,0,3.69,1.63,3.69,3.69v8.88ZM10,4.69c-2.94,0-5.31,2.38-5.31,5.31s2.38,5.31,5.31,5.31,5.31-2.37,5.31-5.31-2.37-5.31-5.31-5.31ZM10,13.44c-1.88,0-3.44-1.56-3.44-3.44s1.56-3.44,3.44-3.44,3.44,1.56,3.44,3.44-1.56,3.44-3.44,3.44ZM16.56,4.56c0,.63-.5,1.19-1.19,1.19-.63,0-1.19-.5-1.19-1.19s.5-1.19,1.19-1.19c.63.06,1.19.56,1.19,1.19Z"/>
  </g>
</svg>