<?xml version="1.0" encoding="UTF-8"?>
<svg id="Ebene_2" xmlns="http://www.w3.org/2000/svg" viewBox="0 0 48 48">
  <defs>
    <style>
      .cls-1 {
        fill: #1d1d1b;
      }
    </style>
  </defs>
  <g id="_x33_219">
    <path class="cls-1" d="M0,0v48h48V0H0ZM39.7,31.77c-.49.98-1.67,1.67-4.03,2.07-.1.3-.1.49-.2.79-.2.79-.89,1.28-1.67,1.28-.3,0-.49,0-.89-.1-.49-.1-.89-.2-1.38-.2-.3,0-.69,0-.98.1-.49.1-1.08.39-1.67.89-1.08.79-2.46,1.77-4.62,1.77h-.39c-2.16,0-3.54-.98-4.62-1.77-.59-.39-1.18-.79-1.67-.89-.39-.1-.69-.1-.98-.1-.59,0-.98.1-1.38.2-.3,0-.59.1-.89.1-.79,0-1.48-.49-1.67-1.28-.1-.3-.1-.59-.2-.79-2.36-.39-3.64-1.67-4.03-2.66,0-.2-.1-.39-.1-.59,0-.79.59-1.57,1.38-1.67,3.44-.59,5.11-4.33,5.11-4.33.1-.1.1-.2.1-.2-.2-.1-.79-.3-.98-.39-.2-.1-.39-.1-.49-.2-2.07-.79-2.16-1.97-2.07-2.66.3-1.08,1.48-1.77,2.46-1.77.3,0,.59.1.89.2.1.1.3.2.39.2-.1-2.07-.2-4.52.49-6.1,2.16-4.92,6.79-5.31,8.16-5.31h.59c1.38,0,6,.3,8.16,5.21.69,1.57.59,3.93.49,6,.1,0,.2-.1.3-.1.39-.2.69-.2.98-.2.39,0,.69.1.98.2.98.3,1.57,1.08,1.57,1.97,0,.69-.39,1.67-2.16,2.36-.1.1-.3.1-.49.2-.2,0-.79.2-.98.39,0,0,0,.1.1.2,0,0,1.67,3.74,5.11,4.33.89.1,1.38,1.48,1.38,2.26,0,.2,0,.39-.1.59Z"/>
  </g>
</svg>