<?xml version="1.0" encoding="UTF-8"?>
<svg id="Ebene_2" xmlns="http://www.w3.org/2000/svg" viewBox="0 0 16 16">
  <defs>
    <style>
      .cls-1 {
        fill: #1d1d1b;
      }
    </style>
  </defs>
  <g id="_x33_219">
    <path class="cls-1" d="M0,0v16h16V0H0ZM5.59,13.01h-2.06v-6.66h2.06v6.66ZM4.56,5.45c-.69.03-1.22-.53-1.22-1.22s.53-1.22,1.22-1.22,1.22.56,1.22,1.22-.53,1.22-1.22,1.22ZM13.34,13.01h-2.06v-3.5c0-.97-.38-1.5-1.12-1.5-.81,0-1.25.56-1.25,1.5v3.5h-1.97v-6.69h1.97v.91s.59-1.09,2-1.09,2.44.88,2.44,2.66v4.22Z"/>
  </g>
</svg>