<?xml version="1.0" encoding="UTF-8"?>
<svg id="Ebene_2" xmlns="http://www.w3.org/2000/svg" viewBox="0 0 10 10">
  <defs>
    <style>
      .cls-1 {
        fill: #020303;
      }
    </style>
  </defs>
  <g id="_x33_219">
    <path class="cls-1" d="M7.22,0H2.78C1.25,0,0,1.25,0,2.78v4.44c0,1.53,1.25,2.78,2.78,2.78h4.44c1.53,0,2.78-1.25,2.78-2.78V2.78c0-1.53-1.25-2.78-2.78-2.78ZM9.06,7.22c0,1.03-.84,1.84-1.84,1.84H2.78c-1.03,0-1.84-.81-1.84-1.84V2.78c0-1.03.81-1.84,1.84-1.84h4.44c1.03,0,1.84.81,1.84,1.84v4.44ZM5,2.34c-1.47,0-2.66,1.19-2.66,2.66s1.19,2.66,2.66,2.66,2.66-1.19,2.66-2.66-1.19-2.66-2.66-2.66ZM5,6.72c-.94,0-1.72-.78-1.72-1.72s.78-1.72,1.72-1.72,1.72.78,1.72,1.72-.78,1.72-1.72,1.72ZM8.28,2.28c0,.31-.25.59-.59.59-.31,0-.59-.25-.59-.59s.25-.59.59-.59c.31.03.59.28.59.59Z"/>
  </g>
</svg>