<?xml version="1.0" encoding="UTF-8"?>
<svg id="Ebene_2" xmlns="http://www.w3.org/2000/svg" viewBox="0 0 26.23 25">
  <defs>
    <style>
      .cls-1 {
        fill: #010101;
      }
    </style>
  </defs>
  <g id="_x33_219">
    <path class="cls-1" d="M13.36,0h-.49c-1.15,0-5,.33-6.8,4.43-.57,1.31-.49,3.36-.41,5.08-.08,0-.25-.08-.33-.16-.25-.08-.49-.16-.74-.16-.82,0-1.8.57-2.05,1.48-.08.57,0,1.56,1.72,2.21.08.08.25.08.41.16s.66.25.82.33c0,0,0,.08-.08.16h0s-1.39,3.11-4.26,3.61c-.66.08-1.15.74-1.15,1.39,0,.16.08.33.08.49.33.82,1.39,1.89,3.36,2.21h0c.08.16.08.41.16.66.16.66.74,1.07,1.39,1.07.25,0,.49-.08.74-.08.33-.08.66-.16,1.15-.16.25,0,.49,0,.82.08.41.08.9.41,1.39.74.9.66,2.05,1.48,3.85,1.48h.33c1.8,0,2.95-.82,3.85-1.48.49-.41.98-.66,1.39-.74.25-.08.57-.08.82-.08.41,0,.74.08,1.15.16.33.08.49.08.74.08.66,0,1.23-.41,1.39-1.07.08-.25.08-.41.16-.66h0c1.97-.33,2.95-.9,3.36-1.72.08-.16.08-.33.08-.49,0-.66-.41-1.8-1.15-1.89-2.87-.49-4.26-3.61-4.26-3.61h0c-.08-.08-.08-.16-.08-.16.16-.16.66-.33.82-.33.16-.08.33-.08.41-.16,1.48-.57,1.8-1.39,1.8-1.97,0-.74-.49-1.39-1.31-1.64-.25-.08-.49-.16-.82-.16-.25,0-.49,0-.82.16-.08,0-.16.08-.25.08.08-1.72.16-3.69-.41-5C18.36.25,14.51,0,13.36,0h0Z"/>
  </g>
</svg>