<?xml version="1.0" encoding="UTF-8"?>
<svg id="Ebene_2" xmlns="http://www.w3.org/2000/svg" viewBox="0 0 25 25">
  <defs>
    <style>
      .cls-1 {
        fill: #020303;
      }
    </style>
  </defs>
  <g id="_x33_219">
    <path class="cls-1" d="M15.81,18.36c-.39,0-.78-.08-1.17-.16-.63-.16-1.17-.39-1.8-.62-2.11-1.02-3.91-2.66-5.24-4.61-.78-1.02-1.25-2.11-1.33-3.28,0-.86.31-1.8,1.02-2.42.23-.31.55-.47.86-.47h.55c.31,0,.55.16.63.47l.39.94c.23.63.55,1.33.63,1.48s.08.39,0,.47c-.08.23-.16.39-.31.55l-.16.16c-.08.16-.23.23-.31.31l-.23.16.16.31c.39.86,1.02,1.72,1.72,2.34s1.49,1.09,2.35,1.48l.47.16.23-.16c.47-.39.86-.78,1.17-1.25.08-.16.23-.23.31-.23s.16,0,.31.08c.31.08,1.64.78,2.11,1.02l.16.08c.16.08.31.16.39.23.08.47.08,1.02-.16,1.41-.39.78-1.17,1.33-2.11,1.48-.16,0-.39.08-.63.08h0ZM0,25l6.58-1.72.16.08c1.8.94,3.76,1.41,5.79,1.41,4.62,0,8.85-2.5,11.04-6.64,3.21-6.02.86-13.59-5.17-16.72-1.8-.94-3.84-1.41-5.87-1.41C7.91,0,3.68,2.5,1.57,6.64c-1.96,3.75-1.88,8.12.16,11.8l.08.16-1.8,6.41ZM6.89,21.17l-3.99,1.02,1.1-3.91-.23-.39C.7,13.05,2.19,6.56,7.04,3.52c1.64-1.02,3.6-1.56,5.56-1.56,5.71,0,10.41,4.69,10.41,10.39s-4.7,10.39-10.41,10.39c-1.88,0-3.68-.47-5.32-1.48l-.39-.08Z"/>
  </g>
</svg>