<?xml version="1.0" encoding="UTF-8"?>
<svg id="Ebene_2" xmlns="http://www.w3.org/2000/svg" viewBox="0 0 35.56 25">
  <defs>
    <style>
      .cls-1 {
        fill: #020303;
      }
    </style>
  </defs>
  <g id="_x33_219">
    <path class="cls-1" d="M14.11,17.11V7.11l9.56,5-9.56,5h0ZM35.22,5.44s-.33-2.44-1.44-3.56c-1.33-1.44-2.89-1.44-3.56-1.56-5-.33-12.44-.33-12.44-.33h0s-7.44,0-12.44.33c-.67.11-2.22.11-3.56,1.56C.67,3,.33,5.44.33,5.44c0,0-.33,2.89-.33,5.78v2.67c0,2.89.33,5.78.33,5.78,0,0,.33,2.44,1.44,3.56,1.33,1.44,3.11,1.33,3.89,1.56,2.89.22,12.11.22,12.11.22,0,0,7.44,0,12.44-.33.67-.11,2.22-.11,3.56-1.56,1.11-1.11,1.44-3.56,1.44-3.56,0,0,.33-2.89.33-5.78v-2.67c0-2.78-.33-5.67-.33-5.67"/>
  </g>
</svg>