<?xml version="1.0" encoding="UTF-8"?>
<svg id="Ebene_2" xmlns="http://www.w3.org/2000/svg" viewBox="0 0 32 32">
  <defs>
    <style>
      .cls-1 {
        fill: #1d1d1b;
      }
    </style>
  </defs>
  <g id="_x33_219">
    <path class="cls-1" d="M0,0v32h32V0H0ZM11.17,26.03h-4.12v-13.31h4.12v13.31ZM9.11,10.9c-1.38.06-2.44-1.06-2.44-2.44s1.06-2.44,2.44-2.44,2.44,1.12,2.44,2.44-1.06,2.44-2.44,2.44ZM26.67,26.03h-4.12v-7c0-1.94-.75-3-2.25-3-1.62,0-2.5,1.12-2.5,3v7h-3.94v-13.38h3.94v1.81s1.19-2.19,4-2.19,4.88,1.75,4.88,5.31v8.44Z"/>
  </g>
</svg>