<?xml version="1.0" encoding="UTF-8"?>
<svg id="Ebene_2" xmlns="http://www.w3.org/2000/svg" viewBox="0 0 20 20">
  <defs>
    <style>
      .cls-1 {
        fill: #020303;
      }
    </style>
  </defs>
  <g id="_x33_219">
    <path class="cls-1" d="M12.65,14.69c-.31,0-.63-.06-.94-.13-.5-.13-.94-.31-1.44-.5-1.69-.81-3.13-2.12-4.2-3.69-.63-.81-1-1.69-1.06-2.62,0-.69.25-1.44.81-1.94.19-.25.44-.38.69-.38h.44c.25,0,.44.12.5.38l.31.75c.19.5.44,1.06.5,1.19s.06.31,0,.38c-.06.19-.13.31-.25.44l-.13.12c-.06.12-.19.19-.25.25l-.19.12.13.25c.31.69.81,1.38,1.38,1.88s1.19.87,1.88,1.19l.38.13.19-.13c.38-.31.69-.62.94-1,.06-.13.19-.19.25-.19s.13,0,.25.06c.25.06,1.32.62,1.69.81l.13.06c.13.06.25.13.31.19.06.38.06.81-.13,1.12-.31.62-.94,1.06-1.69,1.19-.13,0-.31.06-.5.06h0ZM0,20l5.26-1.38.13.06c1.44.75,3.01,1.12,4.63,1.12,3.69,0,7.08-2,8.83-5.31,2.57-4.81.69-10.87-4.13-13.37-1.44-.75-3.07-1.12-4.7-1.12C6.32,0,2.94,2,1.25,5.31c-1.57,3-1.5,6.5.13,9.44l.06.13-1.44,5.12ZM5.51,16.94l-3.19.81.88-3.12-.19-.31C.56,10.44,1.75,5.25,5.64,2.81c1.32-.81,2.88-1.25,4.45-1.25,4.57,0,8.33,3.75,8.33,8.31s-3.76,8.31-8.33,8.31c-1.5,0-2.94-.38-4.26-1.19l-.31-.06Z"/>
  </g>
</svg>