<?xml version="1.0" encoding="UTF-8"?>
<svg id="Ebene_2" xmlns="http://www.w3.org/2000/svg" viewBox="0 0 42.67 30">
  <defs>
    <style>
      .cls-1 {
        fill: #020303;
      }
    </style>
  </defs>
  <g id="_x33_219">
    <path class="cls-1" d="M16.93,20.53v-12l11.47,6-11.47,6h0ZM42.27,6.53s-.4-2.93-1.73-4.27c-1.6-1.73-3.47-1.73-4.27-1.87-6-.4-14.93-.4-14.93-.4h0S12.4,0,6.4.4c-.8.13-2.67.13-4.27,1.87C.8,3.6.4,6.53.4,6.53c0,0-.4,3.47-.4,6.93v3.2c0,3.47.4,6.93.4,6.93,0,0,.4,2.93,1.73,4.27,1.6,1.73,3.73,1.6,4.67,1.87,3.47.27,14.53.27,14.53.27,0,0,8.93,0,14.93-.4.8-.13,2.67-.13,4.27-1.87,1.33-1.33,1.73-4.27,1.73-4.27,0,0,.4-3.47.4-6.93v-3.2c0-3.33-.4-6.8-.4-6.8"/>
  </g>
</svg>