<?xml version="1.0" encoding="UTF-8"?>
<svg id="Ebene_2" xmlns="http://www.w3.org/2000/svg" viewBox="0 0 64 64">
  <defs>
    <style>
      .cls-1 {
        fill: #1d1d1b;
      }
    </style>
  </defs>
  <g id="_x33_219">
    <path class="cls-1" d="M26.13,23.38l15.29,8-15.29,8v-16ZM64,0v64H0V0h64ZM60.44,29.78c0-4.44-.53-9.07-.53-9.07,0,0-.53-3.91-2.31-5.69-2.13-2.31-4.62-2.31-5.69-2.49-8-.53-19.91-.53-19.91-.53,0,0-11.91,0-19.91.53-1.07.18-3.56.18-5.69,2.49-1.78,1.78-2.31,5.69-2.31,5.69,0,0-.53,4.62-.53,9.24v4.27c0,4.62.53,9.24.53,9.24,0,0,.53,3.91,2.31,5.69,2.13,2.31,4.98,2.13,6.22,2.49,4.62.36,19.38.36,19.38.36,0,0,11.91,0,19.91-.53,1.07-.18,3.56-.18,5.69-2.49,1.78-1.78,2.31-5.69,2.31-5.69,0,0,.53-4.62.53-9.24v-4.27Z"/>
  </g>
</svg>