<?xml version="1.0" encoding="UTF-8"?>
<svg id="Ebene_2" xmlns="http://www.w3.org/2000/svg" viewBox="0 0 40 40">
  <defs>
    <style>
      .cls-1 {
        fill: #1d1d1b;
      }
    </style>
  </defs>
  <g id="_x33_219">
    <path class="cls-1" d="M25.55,9.84h-11.09c-2.58,0-4.61,2.03-4.61,4.61v11.09c0,2.58,2.03,4.61,4.61,4.61h11.09c2.5,0,4.61-2.03,4.61-4.61v-11.09c0-2.58-2.03-4.61-4.61-4.61ZM20,26.64c-3.67,0-6.64-2.97-6.64-6.64s2.97-6.64,6.64-6.64,6.64,2.97,6.64,6.64-2.97,6.64-6.64,6.64ZM26.72,14.69c-.78,0-1.48-.62-1.48-1.48s.62-1.48,1.48-1.48c.78.08,1.48.7,1.48,1.48s-.62,1.48-1.48,1.48ZM24.3,20c0,2.34-1.95,4.3-4.3,4.3s-4.3-1.95-4.3-4.3,1.95-4.3,4.3-4.3,4.3,1.95,4.3,4.3ZM0,0v40h40V0H0ZM32.5,25.55c0,3.83-3.12,6.95-6.95,6.95h-11.09c-3.83,0-6.95-3.12-6.95-6.95v-11.09c0-3.83,3.12-6.95,6.95-6.95h11.09c3.83,0,6.95,3.12,6.95,6.95v11.09Z"/>
  </g>
</svg>