<?xml version="1.0" encoding="UTF-8"?>
<svg id="Ebene_2" xmlns="http://www.w3.org/2000/svg" viewBox="0 0 64 64">
  <defs>
    <style>
      .cls-1 {
        fill: #020303;
      }
    </style>
  </defs>
  <g id="_x33_219">
    <path class="cls-1" d="M0,0v64h64V0H0ZM45.58,51c0,.5-.5,1-1,1h-6.27c-.63,0-1-.5-1-1v-8.4c0-2.26-1.88-4.01-4.14-4.01h-2.26c-2.26,0-4.14,1.76-4.14,4.01v8.4c0,.5-.5,1-1,1h-6.27c-.63,0-1-.5-1-1V13c-.25-.5.25-1,.88-1h6.27c.5,0,1,.5,1,1v17.93c1.25-.5,2.76-.75,4.14-.75h2.13c2.26,0,4.14-1.76,4.14-4.01l.13-2.01c.13-.5.5-.88,1-.88h6.27c.5,0,1,.38,1,.88v2.01c0,3.13-1.25,6.02-3.13,8.15,2.01,2.13,3.26,5.02,3.26,8.28v8.4Z"/>
  </g>
</svg>