<?xml version="1.0" encoding="UTF-8"?>
<svg id="Ebene_2" xmlns="http://www.w3.org/2000/svg" viewBox="0 0 48 48">
  <defs>
    <style>
      .cls-1 {
        fill: #1d1d1b;
      }
    </style>
  </defs>
  <g id="_x33_219">
    <path class="cls-1" d="M30.66,11.81h-13.31c-3.09,0-5.53,2.44-5.53,5.53v13.31c0,3.09,2.44,5.53,5.53,5.53h13.31c3,0,5.53-2.44,5.53-5.53v-13.31c0-3.09-2.44-5.53-5.53-5.53ZM24,31.97c-4.41,0-7.97-3.56-7.97-7.97s3.56-7.97,7.97-7.97,7.97,3.56,7.97,7.97-3.56,7.97-7.97,7.97ZM32.06,17.62c-.94,0-1.78-.75-1.78-1.78s.75-1.78,1.78-1.78c.94.09,1.78.84,1.78,1.78s-.75,1.78-1.78,1.78ZM29.16,24c0,2.81-2.34,5.16-5.16,5.16s-5.16-2.34-5.16-5.16,2.34-5.16,5.16-5.16,5.16,2.34,5.16,5.16ZM0,0v48h48V0H0ZM39,30.66c0,4.59-3.75,8.34-8.34,8.34h-13.31c-4.59,0-8.34-3.75-8.34-8.34v-13.31c0-4.59,3.75-8.34,8.34-8.34h13.31c4.59,0,8.34,3.75,8.34,8.34v13.31Z"/>
  </g>
</svg>