<?xml version="1.0" encoding="UTF-8"?>
<svg id="Ebene_2" xmlns="http://www.w3.org/2000/svg" viewBox="0 0 10 10">
  <defs>
    <style>
      .cls-1 {
        fill: #020303;
      }
    </style>
  </defs>
  <g id="_x33_219">
    <path class="cls-1" d="M2.44,1.22c0,.69-.53,1.22-1.22,1.22-.69.03-1.22-.53-1.22-1.22S.53,0,1.22,0s1.22.56,1.22,1.22ZM.19,10h2.06V3.34H.19v6.66ZM7.56,3.12c-1.41,0-2,1.09-2,1.09v-.91h-1.97v6.69h1.97v-3.5c0-.94.44-1.5,1.25-1.5.75,0,1.13.53,1.13,1.5v3.5h2.06v-4.22c0-1.78-1.03-2.66-2.44-2.66Z"/>
  </g>
</svg>