<?xml version="1.0" encoding="UTF-8"?>
<svg id="Ebene_2" xmlns="http://www.w3.org/2000/svg" viewBox="0 0 16 16">
  <defs>
    <style>
      .cls-1 {
        fill: #1d1d1b;
      }
    </style>
  </defs>
  <g id="_x33_219">
    <path class="cls-1" d="M0,0v16h16V0H0ZM13.23,10.59c-.16.33-.56.56-1.34.69-.03.1-.03.16-.07.26-.07.26-.3.43-.56.43-.1,0-.16,0-.3-.03-.16-.03-.3-.07-.46-.07-.1,0-.23,0-.33.03-.16.03-.36.13-.56.3-.36.26-.82.59-1.54.59h-.13c-.72,0-1.18-.33-1.54-.59-.2-.13-.39-.26-.56-.3-.13-.03-.23-.03-.33-.03-.2,0-.33.03-.46.07-.1,0-.2.03-.3.03-.26,0-.49-.16-.56-.43-.03-.1-.03-.2-.07-.26-.79-.13-1.21-.56-1.34-.89,0-.07-.03-.13-.03-.2,0-.26.2-.52.46-.56,1.15-.2,1.7-1.44,1.7-1.44.03-.03.03-.07.03-.07-.07-.03-.26-.1-.33-.13-.07-.03-.13-.03-.16-.07-.69-.26-.72-.66-.69-.89.1-.36.49-.59.82-.59.1,0,.2.03.3.07.03.03.1.07.13.07-.03-.69-.07-1.51.16-2.03.72-1.64,2.26-1.77,2.72-1.77h.2c.46,0,2,.1,2.72,1.74.23.52.2,1.31.16,2,.03,0,.07-.03.1-.03.13-.07.23-.07.33-.07.13,0,.23.03.33.07.33.1.52.36.52.66,0,.23-.13.56-.72.79-.03.03-.1.03-.16.07-.07,0-.26.07-.33.13,0,0,0,.03.03.07,0,0,.56,1.25,1.7,1.44.3.03.46.49.46.75,0,.07,0,.13-.03.2Z"/>
  </g>
</svg>