<?xml version="1.0" encoding="UTF-8"?>
<svg id="Ebene_2" xmlns="http://www.w3.org/2000/svg" viewBox="0 0 21.33 15">
  <defs>
    <style>
      .cls-1 {
        fill: #020303;
      }
    </style>
  </defs>
  <g id="_x33_219">
    <path class="cls-1" d="M8.47,10.27v-6l5.73,3-5.73,3h0ZM21.13,3.27s-.2-1.47-.87-2.13c-.8-.87-1.73-.87-2.13-.93-3-.2-7.47-.2-7.47-.2h0S6.2,0,3.2.2c-.4.07-1.33.07-2.13.93C.4,1.8.2,3.27.2,3.27c0,0-.2,1.73-.2,3.47v1.6c0,1.73.2,3.47.2,3.47,0,0,.2,1.47.87,2.13.8.87,1.87.8,2.33.93,1.73.13,7.27.13,7.27.13,0,0,4.47,0,7.47-.2.4-.07,1.33-.07,2.13-.93.67-.67.87-2.13.87-2.13,0,0,.2-1.73.2-3.47v-1.6c0-1.67-.2-3.4-.2-3.4"/>
  </g>
</svg>