<?xml version="1.0" encoding="UTF-8"?>
<svg id="Ebene_2" xmlns="http://www.w3.org/2000/svg" viewBox="0 0 30 30">
  <defs>
    <style>
      .cls-1 {
        fill: #020303;
      }
    </style>
  </defs>
  <g id="_x33_219">
    <path class="cls-1" d="M7.31,3.66c0,2.06-1.59,3.66-3.66,3.66-2.06.09-3.66-1.59-3.66-3.66S1.59,0,3.66,0s3.66,1.69,3.66,3.66ZM.56,30h6.19V10.03H.56v19.97ZM22.69,9.38c-4.22,0-6,3.28-6,3.28v-2.72h-5.91v20.06h5.91v-10.5c0-2.81,1.31-4.5,3.75-4.5,2.25,0,3.38,1.59,3.38,4.5v10.5h6.19v-12.66c0-5.34-3.09-7.97-7.31-7.97Z"/>
  </g>
</svg>