<?xml version="1.0" encoding="UTF-8"?>
<svg id="Ebene_2" xmlns="http://www.w3.org/2000/svg" viewBox="0 0 32 24.21">
  <defs>
    <style>
      .cls-1 {
        fill: #1e1e1c;
      }
    </style>
  </defs>
  <g id="_x33_219">
    <path class="cls-1" d="M14.82,8.66c.39-.39.39-1.02,0-1.41L7.56,0,.29,7.25c-.39.39-.39,1.02,0,1.41.2.2.45.29.71.29s.51-.1.71-.29L6.55,3.83v20.38h2V3.83l4.84,4.83c.39.39,1.03.39,1.42,0ZM7.55,2.84h0s0,0,0,0h-.02ZM13.69,22.2h18.31v2H13.69v-2ZM17.76,12.53h14.24v2h-14.24v-2ZM32,2.84v2h-10.19v-2h10.19Z"/>
  </g>
</svg>