<?xml version="1.0" encoding="UTF-8"?>
<svg id="Ebene_2" xmlns="http://www.w3.org/2000/svg" viewBox="0 0 24 19.73">
  <defs>
    <style>
      .cls-1 {
        fill: #1e1e1c;
      }
    </style>
  </defs>
  <g id="_x33_219">
    <path class="cls-1" d="M10.11,8.02l-2.27-2.27-.03,13.98h-3s.03-13.99.03-13.99l-2.28,2.27c-.59.59-1.54.58-2.12,0-.59-.59-.58-1.54,0-2.12L6.35,0l5.89,5.9c.59.59.58,1.54,0,2.12-.29.29-.68.44-1.06.44s-.77-.15-1.06-.44ZM10.49,19.73h13.51v-3h-13.51v3ZM13.49,12.58h10.51v-3h-10.51v3ZM16.48,2.42v3h7.52v-3h-7.52Z"/>
  </g>
</svg>