<?xml version="1.0" encoding="UTF-8"?>
<svg id="Ebene_2" xmlns="http://www.w3.org/2000/svg" viewBox="0 0 48 38.36">
  <defs>
    <style>
      .cls-1 {
        fill: #1e1e1c;
      }
    </style>
  </defs>
  <g id="_x33_219">
    <path class="cls-1" d="M23.63,23.71c.88.88.88,2.3,0,3.18l-9.23,9.22v.08h-.08l-2.18,2.17-2.18-2.17h-.08v-.08L.66,26.89c-.88-.88-.88-2.3,0-3.18s2.31-.88,3.19,0l6.05,6.04V0h4.51v29.75l6.05-6.04c.88-.88,2.31-.88,3.19,0ZM20.36,0v4.5h27.64V0h-27.64ZM26.51,19.14h21.49v-4.5h-21.49v4.5ZM32.62,33.74h15.38v-4.5h-15.38v4.5Z"/>
  </g>
</svg>