<?xml version="1.0" encoding="UTF-8"?>
<svg id="Ebene_2" xmlns="http://www.w3.org/2000/svg" viewBox="0 0 16 16">
  <defs>
    <style>
      .cls-1 {
        fill: #1e1e1c;
      }
    </style>
  </defs>
  <g id="_x33_219">
    <path class="cls-1" d="M1.74,4.15c-.96,0-1.74.79-1.74,1.75v4.21c0,.96.78,1.75,1.74,1.75h1.83l5.12,4.15V0L3.57,4.15h-1.83ZM1.49,10.1v-4.21c0-.14.11-.25.25-.25h1.5v4.71h-1.5c-.14,0-.25-.11-.25-.25ZM7.19,12.87l-2.46-2v-5.73l2.46-2v9.73ZM15.79,10.7c-.15.15-.34.23-.54.23s-.37-.07-.52-.21l-2.07-2.02-1.86,1.8c-.14.14-.33.21-.52.21s-.39-.08-.54-.23c-.29-.3-.28-.77.02-1.06l1.82-1.77-1.78-1.73c-.3-.29-.3-.76-.02-1.06.29-.3.76-.3,1.05-.02l1.82,1.77,2.03-1.98c.3-.29.77-.28,1.05.02.29.3.28.77-.02,1.06l-2,1.94,2.04,1.98c.3.29.3.76.02,1.06Z"/>
  </g>
</svg>