<?xml version="1.0" encoding="UTF-8"?>
<svg id="Ebene_2" xmlns="http://www.w3.org/2000/svg" viewBox="0 0 32 32">
  <defs>
    <style>
      .cls-1 {
        fill: #1e1e1c;
      }
    </style>
  </defs>
  <g id="_x33_219">
    <path class="cls-1" d="M2.99,8.29c-1.65,0-2.99,1.35-2.99,3v9.42c0,1.65,1.34,3,2.99,3h4.35l10.27,8.29V0L7.36,8.29H2.99ZM2,20.71v-9.42c0-.55.45-1,1-1h3.72v11.42h-3.72c-.55,0-1-.45-1-1ZM15.62,27.82l-6.91-5.58v-12.48l6.91-5.58v23.64ZM31.72,21.7c-.2.2-.46.31-.72.31s-.5-.09-.69-.28l-4.52-4.37-4.08,3.94c-.19.19-.44.28-.69.28s-.52-.1-.72-.31c-.38-.4-.37-1.03.03-1.41l4.02-3.89-3.94-3.82c-.4-.38-.41-1.02-.03-1.41.38-.4,1.01-.41,1.41-.03l3.99,3.87,4.43-4.29c.4-.38,1.03-.37,1.41.03.38.4.37,1.03-.03,1.41l-4.38,4.24,4.46,4.32c.4.38.41,1.02.03,1.41Z"/>
  </g>
</svg>