<?xml version="1.0" encoding="UTF-8"?>
<svg id="Ebene_2" xmlns="http://www.w3.org/2000/svg" viewBox="0 0 40 40">
  <defs>
    <style>
      .cls-1 {
        fill: #1e1e1c;
      }
    </style>
  </defs>
  <g id="_x33_219">
    <path class="cls-1" d="M3.12,10.39h4.14v19.22H3.12c-1.72,0-3.12-1.4-3.12-3.13v-12.96c0-1.73,1.4-3.13,3.12-3.13ZM9.76,30.1l11.73,9.9V0l-11.73,9.92v20.18ZM34.35,20.51l5.04-4.88c.79-.77.82-2.04.05-2.83s-2.03-.82-2.83-.05l-5.14,4.98-4.48-4.33c-.79-.77-2.06-.75-2.83.05-.77.8-.74,2.06.05,2.83l4.38,4.23-4.36,4.22c-.79.77-.82,2.04-.05,2.83.39.41.92.61,1.44.61s1-.19,1.39-.56l4.47-4.32,5.13,4.97c.39.37.89.56,1.39.56s1.05-.2,1.44-.61c.77-.8.74-2.06-.05-2.83l-5.03-4.87Z"/>
  </g>
</svg>