<?xml version="1.0" encoding="UTF-8"?>
<svg id="Ebene_2" xmlns="http://www.w3.org/2000/svg" viewBox="0 0 24 24">
  <defs>
    <style>
      .cls-1 {
        fill: #1e1e1c;
      }
    </style>
  </defs>
  <g id="_x33_219">
    <path class="cls-1" d="M2.37,6.22c-1.31,0-2.37,1.07-2.37,2.37v6.82c0,1.31,1.06,2.37,2.37,2.37h3.09l7.71,6.22V0l-7.7,6.22h-3.11ZM1.75,15.41v-6.82c0-.34.28-.62.62-.62h2.51v8.07h-2.51c-.34,0-.62-.28-.62-.62ZM11.43,20.35l-4.81-3.87V7.54l4.81-3.88v16.69ZM23.76,16.86c-.17.18-.4.27-.63.27s-.44-.08-.61-.25l-3.3-3.19-2.97,2.87c-.17.16-.39.25-.61.25-.23,0-.46-.09-.63-.27-.33-.35-.32-.9.02-1.24l2.93-2.83-2.87-2.77c-.35-.34-.36-.89-.02-1.24.34-.35.89-.36,1.23-.02l2.91,2.81,3.24-3.13c.35-.34.9-.32,1.23.02.33.35.32.9-.02,1.24l-3.2,3.09,3.26,3.15c.35.34.36.89.02,1.24Z"/>
  </g>
</svg>