<?xml version="1.0" encoding="UTF-8"?>
<svg id="Ebene_2" xmlns="http://www.w3.org/2000/svg" viewBox="0 0 64 64">
  <defs>
    <style>
      .cls-1 {
        fill: #1e1e1c;
      }
    </style>
  </defs>
  <g id="_x33_219">
    <path class="cls-1" d="M4.88,16.57c-2.69,0-4.88,2.19-4.88,4.88v21.1c0,2.69,2.19,4.88,4.88,4.88h10.07l20.59,16.57V0L14.98,16.57H4.88ZM2.75,42.55v-21.1c0-1.17.95-2.13,2.13-2.13h9.22v25.36H4.88c-1.17,0-2.13-.95-2.13-2.13ZM32.79,58.26l-15.95-12.83v-26.82l15.95-12.85v52.51ZM63.56,41.1c.55.53.56,1.4.03,1.94-.27.28-.63.42-.99.42s-.69-.13-.96-.39l-9.49-9.16-8.42,8.13c-.27.26-.61.39-.96.39s-.72-.14-.99-.42c-.53-.55-.51-1.42.03-1.94l8.35-8.06-8.37-8.08c-.55-.53-.56-1.4-.03-1.94.53-.55,1.4-.56,1.94-.03l8.44,8.15,9.51-9.18c.55-.53,1.42-.51,1.94.03.53.55.51,1.42-.03,1.94l-9.44,9.11,9.42,9.09Z"/>
  </g>
</svg>