<?xml version="1.0" encoding="UTF-8"?>
<svg id="Ebene_2" xmlns="http://www.w3.org/2000/svg" viewBox="0 0 48 48">
  <defs>
    <style>
      .cls-1 {
        fill: #1e1e1c;
      }
    </style>
  </defs>
  <g id="_x33_219">
    <path class="cls-1" d="M4.24,12.43c-2.34,0-4.24,1.91-4.24,4.25v14.63c0,2.35,1.9,4.25,4.24,4.25h6.86l15.42,12.43V0l-15.39,12.43h-6.89ZM2.5,31.32v-14.63c0-.97.78-1.75,1.75-1.75h6.08v18.13h-6.08c-.96,0-1.75-.79-1.75-1.75ZM24.02,42.78l-11.2-9.03V14.28l11.2-9.05v37.54ZM30.3,32.92v-2.5c3.06,0,5.54-2.49,5.54-5.56s-2.49-5.55-5.54-5.55v-2.5c4.43,0,8.04,3.61,8.04,8.06s-3.61,8.06-8.04,8.06ZM48,24.86c0,9.78-7.94,17.74-17.7,17.74v-2.5c8.38,0,15.2-6.84,15.2-15.24s-6.82-15.24-15.2-15.24v-2.5c9.76,0,17.7,7.96,17.7,17.74Z"/>
  </g>
</svg>