<?xml version="1.0" encoding="UTF-8"?>
<svg id="Ebene_2" xmlns="http://www.w3.org/2000/svg" viewBox="0 0 16 16">
  <defs>
    <style>
      .cls-1 {
        fill: #1e1e1c;
      }
    </style>
  </defs>
  <g id="_x33_219">
    <path class="cls-1" d="M8.95,11.83v-2.48c.63,0,1.15-.51,1.15-1.14s-.51-1.14-1.15-1.14v-2.48c2.01,0,3.64,1.63,3.64,3.63s-1.63,3.63-3.64,3.63ZM8.95,1.18v2.48c2.51,0,4.56,2.04,4.56,4.54s-2.04,4.54-4.56,4.54v2.48c3.89,0,7.05-3.15,7.05-7.02S12.84,1.18,8.95,1.18ZM0,5.67v4.67c0,.82.67,1.49,1.5,1.49h1.11v-7.65h-1.11c-.83,0-1.5.67-1.5,1.49ZM3.6,12.4l4.35,3.6V0L3.6,3.61v8.79Z"/>
  </g>
</svg>