<?xml version="1.0" encoding="UTF-8"?>
<svg id="Ebene_2" xmlns="http://www.w3.org/2000/svg" viewBox="0 0 24 24">
  <defs>
    <style>
      .cls-1 {
        fill: #1e1e1c;
      }
    </style>
  </defs>
  <g id="_x33_219">
    <path class="cls-1" d="M1.88,6.26h2.57v11.47H1.88c-1.03,0-1.88-.83-1.88-1.86v-7.75c0-1.03.84-1.86,1.88-1.86ZM5.95,18.16l6.76,5.84V0l-6.76,5.85v12.31ZM20.77,12.44l2.78-2.66c.6-.57.61-1.51.04-2.1-.57-.59-1.53-.61-2.12-.04l-2.85,2.73-2.52-2.41c-.6-.57-1.55-.55-2.12.04-.58.59-.56,1.53.04,2.1l2.44,2.34-2.43,2.32c-.6.57-.61,1.51-.04,2.1.29.3.69.45,1.08.45s.75-.14,1.04-.42l2.51-2.4,2.84,2.71c.29.28.67.42,1.04.42s.79-.15,1.08-.45c.58-.59.56-1.53-.04-2.1l-2.76-2.64Z"/>
  </g>
</svg>