<?xml version="1.0" encoding="UTF-8"?>
<svg id="Ebene_2" xmlns="http://www.w3.org/2000/svg" viewBox="0 0 40 40">
  <defs>
    <style>
      .cls-1 {
        fill: #1e1e1c;
      }
    </style>
  </defs>
  <g id="_x33_219">
    <path class="cls-1" d="M6,23.74v-10.5c0-2.34,1.91-4.25,4.25-4.25s4.25,1.91,4.25,4.25v10.5c0,2.34-1.91,4.25-4.25,4.25s-4.25-1.91-4.25-4.25ZM18.5,19.22c-1.11,0-2,.9-2,2v2.8c0,3.44-2.8,6.24-6.24,6.24s-6.25-2.8-6.25-6.24v-2.8c0-1.1-.9-2-2-2s-2,.9-2,2v2.8c0,4.96,3.55,9.11,8.25,10.04v1.94H3.81v4h12.88v-4h-4.44v-1.94c4.7-.93,8.25-5.08,8.25-10.04v-2.8c0-1.1-.9-2-2-2ZM40,3.16v11.53c0,1.74-1.42,3.16-3.16,3.16h-6.1l-3.45,4.62-3.45-4.62h-3.31c-1.74,0-3.16-1.42-3.16-3.16V3.16c0-1.74,1.42-3.16,3.16-3.16h16.3c1.74,0,3.16,1.42,3.16,3.16ZM30.38,11.16c0-.62-.5-1.13-1.13-1.13h-5.16c-.62,0-1.13.5-1.13,1.13s.5,1.13,1.13,1.13h5.16c.62,0,1.13-.5,1.13-1.13ZM34.11,6.51c0-.62-.5-1.13-1.13-1.13h-8.89c-.62,0-1.13.5-1.13,1.13s.5,1.13,1.13,1.13h8.89c.62,0,1.13-.5,1.13-1.13Z"/>
  </g>
</svg>