<?xml version="1.0" encoding="UTF-8"?>
<svg id="Ebene_2" xmlns="http://www.w3.org/2000/svg" viewBox="0 0 40 40">
  <defs>
    <style>
      .cls-1 {
        fill: #1e1e1c;
      }
    </style>
  </defs>
  <g id="_x33_219">
    <path class="cls-1" d="M8.51,28.8c2.41,0,4.38-1.97,4.38-4.38v-8.51c0-2.41-1.96-4.38-4.38-4.38s-4.38,1.97-4.38,4.38v8.51c0,2.41,1.96,4.38,4.38,4.38ZM6.39,15.91c0-1.17.95-2.13,2.13-2.13s2.13.95,2.13,2.13v3.13h-4.25v-3.13ZM10.64,21.29v3.13c0,1.17-.95,2.13-2.13,2.13s-2.13-.95-2.13-2.13v-3.13h4.25ZM17.03,22.77v2.96c0,4.32-3.23,7.89-7.39,8.44v3.57h4.43v2.25H2.96v-2.25h4.43v-3.57c-4.16-.55-7.39-4.12-7.39-8.44v-2.96c0-.62.5-1.13,1.13-1.13s1.13.5,1.13,1.13v2.96c0,3.46,2.81,6.27,6.26,6.27s6.27-2.81,6.27-6.27v-2.96c0-.62.5-1.13,1.13-1.13s1.13.5,1.13,1.13ZM36.74,0h-17.1c-1.8,0-3.26,1.47-3.26,3.27v12.12c0,1.8,1.46,3.27,3.26,3.27h3.5l3.59,4.82,3.59-4.82h6.43c1.8,0,3.26-1.47,3.26-3.27V3.27c0-1.8-1.46-3.27-3.26-3.27ZM37.75,15.38c0,.56-.45,1.01-1.01,1.01h-7.56l-2.46,3.3-2.46-3.3h-4.63c-.56,0-1.01-.45-1.01-1.01V3.27c0-.56.45-1.01,1.01-1.01h17.1c.56,0,1.01.45,1.01,1.01v12.12ZM33.82,6.78c0,.62-.5,1.13-1.13,1.13h-9.32c-.62,0-1.13-.5-1.13-1.13s.5-1.13,1.13-1.13h9.32c.62,0,1.13.5,1.13,1.13ZM29.91,11.67c0,.62-.5,1.13-1.13,1.13h-5.42c-.62,0-1.13-.5-1.13-1.13s.5-1.13,1.13-1.13h5.42c.62,0,1.13.5,1.13,1.13Z"/>
  </g>
</svg>