<?xml version="1.0" encoding="UTF-8"?>
<svg id="Ebene_2" xmlns="http://www.w3.org/2000/svg" viewBox="0 0 24 24">
  <defs>
    <style>
      .cls-1 {
        fill: #1e1e1c;
      }
    </style>
  </defs>
  <g id="_x33_219">
    <path class="cls-1" d="M3.95,13.58v-5.5c0-1.24,1.01-2.25,2.25-2.25s2.25,1.01,2.25,2.25v5.5c0,1.24-1.01,2.25-2.25,2.25s-2.25-1.01-2.25-2.25ZM10.9,11.2c-.83,0-1.5.67-1.5,1.5v1.41c0,1.76-1.43,3.19-3.2,3.19s-3.2-1.43-3.2-3.19v-1.41c0-.83-.67-1.5-1.5-1.5s-1.5.67-1.5,1.5v1.41c0,2.89,2,5.32,4.7,6v.9h-2.46v3h7.93v-3h-2.46v-.9c2.7-.67,4.7-3.1,4.7-6v-1.41c0-.83-.67-1.5-1.5-1.5ZM24,2.13v6.64c0,1.18-.96,2.13-2.14,2.13h-3.39l-2.12,3.06-2.12-3.06h-2.07c-1.18,0-2.14-.96-2.14-2.13V2.13c0-1.18.96-2.13,2.14-2.13h9.7c1.18,0,2.14.96,2.14,2.13ZM17.65,6.97c0-.48-.39-.87-.88-.87h-2.54c-.48,0-.88.39-.88.87s.39.87.88.87h2.54c.48,0,.88-.39.88-.87ZM19.96,3.71c0-.48-.39-.87-.88-.87h-4.85c-.48,0-.88.39-.88.87s.39.87.88.87h4.85c.48,0,.88-.39.88-.87Z"/>
  </g>
</svg>