<?xml version="1.0" encoding="UTF-8"?>
<svg id="Ebene_2" xmlns="http://www.w3.org/2000/svg" viewBox="0 0 48 48">
  <defs>
    <style>
      .cls-1 {
        fill: #1e1e1c;
      }
    </style>
  </defs>
  <g id="_x33_219">
    <path class="cls-1" d="M10.16,34.51c2.85,0,5.17-2.32,5.17-5.17v-10.25c0-2.85-2.32-5.17-5.17-5.17s-5.17,2.32-5.17,5.17v10.25c0,2.85,2.32,5.17,5.17,5.17ZM7.49,19.09c0-1.47,1.2-2.67,2.67-2.67s2.67,1.2,2.67,2.67v3.87h-5.34v-3.87ZM12.83,25.46v3.88c0,1.47-1.2,2.67-2.67,2.67s-2.67-1.2-2.67-2.67v-3.88h5.34ZM20.33,27.36v3.57c0,5.18-3.9,9.46-8.92,10.08v4.5h5.35v2.5H3.57v-2.5h5.35v-4.5c-5.02-.62-8.91-4.9-8.91-10.08v-3.57c0-.69.56-1.25,1.25-1.25s1.25.56,1.25,1.25v3.57c0,4.22,3.44,7.66,7.66,7.66s7.67-3.44,7.67-7.66v-3.57c0-.69.56-1.25,1.25-1.25s1.25.56,1.25,1.25ZM44.17,0h-20.63c-2.11,0-3.83,1.72-3.83,3.83v14.59c0,2.11,1.72,3.83,3.83,3.83h4.27l4.27,5.73,4.27-5.73h7.81c2.11,0,3.83-1.72,3.83-3.83V3.83c0-2.11-1.72-3.83-3.83-3.83ZM45.5,18.42c0,.73-.6,1.33-1.33,1.33h-9.07l-3.02,4.05-3.02-4.05h-5.52c-.73,0-1.33-.6-1.33-1.33V3.83c0-.73.6-1.33,1.33-1.33h20.63c.73,0,1.33.6,1.33,1.33v14.59ZM40.54,8.06c0,.69-.56,1.25-1.25,1.25h-11.25c-.69,0-1.25-.56-1.25-1.25s.56-1.25,1.25-1.25h11.25c.69,0,1.25.56,1.25,1.25ZM35.83,13.45c0,.69-.56,1.25-1.25,1.25h-6.53c-.69,0-1.25-.56-1.25-1.25s.56-1.25,1.25-1.25h6.53c.69,0,1.25.56,1.25,1.25Z"/>
  </g>
</svg>