<?xml version="1.0" encoding="UTF-8"?>
<svg id="Ebene_2" xmlns="http://www.w3.org/2000/svg" viewBox="0 0 24 24">
  <defs>
    <style>
      .cls-1 {
        fill: #1e1e1c;
      }
    </style>
  </defs>
  <g id="_x33_219">
    <path class="cls-1" d="M5.21,16.97h.08c1.31,0,2.38-1.06,2.38-2.37v-5c0-1.31-1.07-2.37-2.45-2.37-1.31,0-2.38,1.06-2.38,2.37v5c0,1.31,1.07,2.37,2.38,2.37ZM4.58,9.6c0-.34.28-.62.7-.62.35,0,.63.28.63.62v1.62h-1.33v-1.62ZM5.91,12.97v1.62c0,.34-.28.62-.63.62h-.08c-.35,0-.63-.28-.63-.62v-1.62h1.33ZM10.49,13.63v1.74c0,2.59-1.89,4.73-4.37,5.15v1.72h2.62v1.75H1.75v-1.75h2.62v-1.72c-2.48-.42-4.37-2.56-4.37-5.15v-1.74c0-.48.39-.87.88-.87s.88.39.88.87v1.74c0,1.92,1.57,3.49,3.49,3.49s3.49-1.56,3.49-3.49v-1.74c0-.48.39-.87.88-.87s.88.39.88.87ZM21.86,0h-9.7c-1.18,0-2.14.96-2.14,2.14v7.14c0,1.18.96,2.14,2.14,2.14h1.64l2.55,2.83,2.55-2.83h2.96c1.18,0,2.14-.96,2.14-2.14V2.14c0-1.18-.96-2.14-2.14-2.14ZM22.25,9.28c0,.21-.17.39-.39.39h-3.74l-1.77,1.96-1.77-1.96h-2.42c-.21,0-.39-.17-.39-.39V2.14c0-.21.17-.39.39-.39h9.7c.21,0,.39.17.39.39v7.14ZM20.34,4.21c0,.48-.39.87-.88.87h-4.85c-.48,0-.88-.39-.88-.87s.39-.87.88-.87h4.85c.48,0,.88.39.88.87ZM18.03,7.09c0,.48-.39.87-.88.87h-2.54c-.48,0-.88-.39-.88-.87s.39-.87.88-.87h2.54c.48,0,.88.39.88.87Z"/>
  </g>
</svg>