<?xml version="1.0" encoding="UTF-8"?>
<svg id="Ebene_2" xmlns="http://www.w3.org/2000/svg" viewBox="0 0 48 48">
  <defs>
    <style>
      .cls-1 {
        fill: #1d1d1b;
      }
    </style>
  </defs>
  <g id="_x33_219">
    <path class="cls-1" d="M24.45,21.29h-4.25v-6.46h4.25c2.47,0,3.99,1.06,3.99,3.15,0,2.2-1.48,3.31-3.99,3.31ZM43,43.01H5V5.01h38v38ZM34.82,28.81c0-3-1.33-4.75-4.14-6.04,2.2-1.56,3.08-3.27,3.08-5.58,0-5.39-4.29-6.69-9.69-6.69h-9.04v26.22h9.73c5.89,0,10.07-2.2,10.07-7.9ZM24.72,25.17h-4.52v7.22h4.6c3.12,0,4.67-1.33,4.67-3.65s-1.56-3.57-4.75-3.57ZM45.75,6.86c0,1.24,1.01,2.25,2.25,2.25v2.37c-1.24,0-2.25,1.01-2.25,2.25s1.01,2.25,2.25,2.25v2.36c-1.24,0-2.25,1.01-2.25,2.25s1.01,2.25,2.25,2.25v2.37c-1.24,0-2.25,1.01-2.25,2.25s1.01,2.25,2.25,2.25v2.37c-1.24,0-2.25,1.01-2.25,2.25s1.01,2.25,2.25,2.25v2.36c-1.24,0-2.25,1.01-2.25,2.25s1.01,2.25,2.25,2.25v2.31c-1.24,0-2.25,1.01-2.25,2.25h-2.36c0-1.24-1.01-2.25-2.25-2.25s-2.25,1.01-2.25,2.25h-2.36c0-1.24-1.01-2.25-2.25-2.25s-2.25,1.01-2.25,2.25h-2.36c0-1.24-1.01-2.25-2.25-2.25s-2.25,1.01-2.25,2.25h-2.36c0-1.24-1.01-2.25-2.25-2.25s-2.25,1.01-2.25,2.25h-2.36c0-1.24-1.01-2.25-2.25-2.25s-2.25,1.01-2.25,2.25h-2.36c0-1.24-1.01-2.25-2.25-2.25s-2.25,1.01-2.25,2.25h-2.37c-.03-1.22-1.02-2.19-2.24-2.19v-2.37c1.24,0,2.25-1.01,2.25-2.25s-1.01-2.25-2.25-2.25v-2.36c1.24,0,2.25-1.01,2.25-2.25s-1.01-2.25-2.25-2.25v-2.37c1.24,0,2.25-1.01,2.25-2.25s-1.01-2.25-2.25-2.25v-2.37c1.24,0,2.25-1.01,2.25-2.25s-1.01-2.25-2.25-2.25v-2.36c1.24,0,2.25-1.01,2.25-2.25s-1.01-2.25-2.25-2.25v-2.37c1.24,0,2.25-1.01,2.25-2.25s-1.01-2.25-2.25-2.25v-2.36c1.24,0,2.25-1.01,2.25-2.25h2.36c0,1.24,1.01,2.25,2.25,2.25s2.25-1.01,2.25-2.25h2.36c0,1.24,1.01,2.25,2.25,2.25s2.25-1.01,2.25-2.25h2.36c0,1.24,1.01,2.25,2.25,2.25s2.25-1.01,2.25-2.25h2.36c0,1.24,1.01,2.25,2.25,2.25s2.25-1.01,2.25-2.25h2.36c0,1.24,1.01,2.25,2.25,2.25s2.25-1.01,2.25-2.25h2.36c0,1.24,1.01,2.25,2.25,2.25s2.25-1.01,2.25-2.25h2.36c0,1.24,1.01,2.25,2.25,2.25v2.36c-1.24,0-2.25,1.01-2.25,2.25ZM44,4.01H4v40h40V4.01Z"/>
  </g>
</svg>