<?xml version="1.0" encoding="UTF-8"?>
<svg id="Ebene_2" xmlns="http://www.w3.org/2000/svg" viewBox="0 0 32 32">
  <defs>
    <style>
      .cls-1 {
        fill: #1d1d1b;
      }
    </style>
  </defs>
  <g id="_x33_219">
    <path class="cls-1" d="M28.5,3.5H3.5v25h25V3.5ZM16.5,23.82h-6.14V7.26h5.71c3.41,0,6.12.82,6.12,4.22,0,1.46-.55,2.54-1.94,3.53,1.78.82,2.62,1.92,2.62,3.82,0,3.6-2.64,4.99-6.36,4.99ZM19.47,18.78c0,1.46-.98,2.3-2.95,2.3h-2.9v-4.56h2.86c2.02,0,3,.77,3,2.26ZM32,3.08v-1.58c-.83,0-1.5-.67-1.5-1.5h-1.57c0,.83-.67,1.5-1.5,1.5s-1.5-.67-1.5-1.5h-1.57c0,.83-.67,1.5-1.5,1.5s-1.5-.67-1.5-1.5h-1.57c0,.83-.67,1.5-1.5,1.5s-1.5-.67-1.5-1.5h-1.57c0,.83-.67,1.5-1.5,1.5s-1.5-.67-1.5-1.5h-1.57c0,.83-.67,1.5-1.5,1.5s-1.5-.67-1.5-1.5h-1.57c0,.83-.67,1.5-1.5,1.5s-1.5-.67-1.5-1.5h-1.57c0,.83-.67,1.5-1.5,1.5v1.58c.83,0,1.5.67,1.5,1.5s-.67,1.5-1.5,1.5v1.58c.83,0,1.5.67,1.5,1.5s-.67,1.5-1.5,1.5v1.58c.83,0,1.5.67,1.5,1.5s-.67,1.5-1.5,1.5v1.58c.83,0,1.5.67,1.5,1.5s-.67,1.5-1.5,1.5v1.58c.83,0,1.5.67,1.5,1.5s-.67,1.5-1.5,1.5v1.58c.83,0,1.5.67,1.5,1.5s-.67,1.5-1.5,1.5v1.58c.82,0,1.47.65,1.49,1.46h1.58c0-.83.67-1.5,1.5-1.5s1.5.67,1.5,1.5h1.57c0-.83.67-1.5,1.5-1.5s1.5.67,1.5,1.5h1.57c0-.83.67-1.5,1.5-1.5s1.5.67,1.5,1.5h1.57c0-.83.67-1.5,1.5-1.5s1.5.67,1.5,1.5h1.57c0-.83.67-1.5,1.5-1.5s1.5.67,1.5,1.5h1.57c0-.83.67-1.5,1.5-1.5s1.5.67,1.5,1.5h1.57c0-.83.67-1.5,1.5-1.5v-1.54c-.83,0-1.5-.67-1.5-1.5s.67-1.5,1.5-1.5v-1.58c-.83,0-1.5-.67-1.5-1.5s.67-1.5,1.5-1.5v-1.58c-.83,0-1.5-.67-1.5-1.5s.67-1.5,1.5-1.5v-1.58c-.83,0-1.5-.67-1.5-1.5s.67-1.5,1.5-1.5v-1.58c-.83,0-1.5-.67-1.5-1.5s.67-1.5,1.5-1.5v-1.58c-.83,0-1.5-.67-1.5-1.5s.67-1.5,1.5-1.5ZM29.5,29.51H2.5V2.5h27v27ZM16.31,14.08h-2.69v-4.08h2.69c1.56,0,2.52.67,2.52,1.99,0,1.39-.94,2.09-2.52,2.09Z"/>
  </g>
</svg>