<?xml version="1.0" encoding="UTF-8"?>
<svg id="Ebene_2" xmlns="http://www.w3.org/2000/svg" viewBox="0 0 24 24">
  <defs>
    <style>
      .cls-1 {
        fill: #1d1d1b;
      }
    </style>
  </defs>
  <g id="_x33_219">
    <path class="cls-1" d="M12.23,10.61h-2.02v-3.06h2.02c1.17,0,1.89.5,1.89,1.49,0,1.04-.7,1.57-1.89,1.57ZM21.5,21.5H2.5V2.5h19v19ZM17.15,14.18c0-1.42-.63-2.25-1.96-2.86,1.04-.74,1.46-1.55,1.46-2.65,0-2.56-2.03-3.17-4.59-3.17h-4.29v12.42h4.61c2.79,0,4.77-1.04,4.77-3.75ZM22.88,3.43c0,.62.5,1.12,1.12,1.12v1.18c-.62,0-1.12.5-1.12,1.12s.5,1.12,1.12,1.12v1.18c-.62,0-1.12.5-1.12,1.12s.5,1.12,1.12,1.12v1.18c-.62,0-1.12.5-1.12,1.12s.5,1.12,1.12,1.12v1.18c-.62,0-1.12.5-1.12,1.12s.5,1.12,1.12,1.12v1.18c-.62,0-1.12.5-1.12,1.12s.5,1.12,1.12,1.12v1.15c-.62,0-1.12.5-1.12,1.12h-1.18c0-.62-.5-1.12-1.12-1.12s-1.12.5-1.12,1.12h-1.18c0-.62-.5-1.12-1.12-1.12s-1.12.5-1.12,1.12h-1.18c0-.62-.5-1.12-1.12-1.12s-1.12.5-1.12,1.12h-1.18c0-.62-.5-1.12-1.12-1.12s-1.12.5-1.12,1.12h-1.18c0-.62-.5-1.12-1.12-1.12s-1.12.5-1.12,1.12h-1.18c0-.62-.5-1.12-1.12-1.12s-1.12.5-1.12,1.12h-1.18c-.02-.61-.51-1.1-1.12-1.1v-1.18c.62,0,1.12-.5,1.12-1.12s-.5-1.12-1.12-1.12v-1.18c.62,0,1.12-.5,1.12-1.12s-.5-1.12-1.12-1.12v-1.18c.62,0,1.12-.5,1.12-1.12s-.5-1.12-1.12-1.12v-1.18c.62,0,1.12-.5,1.12-1.12s-.5-1.12-1.12-1.12v-1.18c.62,0,1.12-.5,1.12-1.12s-.5-1.12-1.12-1.12v-1.18c.62,0,1.12-.5,1.12-1.12s-.5-1.12-1.12-1.12v-1.18c.62,0,1.12-.5,1.12-1.12h1.18c0,.62.5,1.12,1.12,1.12s1.12-.5,1.12-1.12h1.18c0,.62.5,1.12,1.12,1.12s1.12-.5,1.12-1.12h1.18c0,.62.5,1.12,1.12,1.12s1.12-.5,1.12-1.12h1.18c0,.62.5,1.12,1.12,1.12s1.12-.5,1.12-1.12h1.18c0,.62.5,1.12,1.12,1.12s1.12-.5,1.12-1.12h1.18c0,.62.5,1.12,1.12,1.12s1.12-.5,1.12-1.12h1.18c0,.62.5,1.12,1.12,1.12v1.18c-.62,0-1.12.5-1.12,1.12ZM22,2H2v20h20V2ZM12.36,12.45h-2.14v3.42h2.18c1.48,0,2.21-.63,2.21-1.73s-.74-1.69-2.25-1.69Z"/>
  </g>
</svg>