<?xml version="1.0" encoding="UTF-8"?>
<svg id="Ebene_2" xmlns="http://www.w3.org/2000/svg" viewBox="0 0 16 16">
  <defs>
    <style>
      .cls-1 {
        fill: #1d1d1b;
      }
    </style>
  </defs>
  <g id="_x33_219">
    <path class="cls-1" d="M9.83,9.37c0,.73-.49,1.15-1.47,1.15h-1.45v-2.28h1.43c1.01,0,1.5.38,1.5,1.13ZM14.25,14.25H1.75V1.75h12.5v12.5ZM11.52,9.39c0-.95-.42-1.5-1.31-1.91.7-.49.97-1.03.97-1.76,0-1.7-1.36-2.11-3.06-2.11h-2.85v8.28h3.07c1.86,0,3.18-.7,3.18-2.5ZM15.25,2.29c0,.41.34.75.75.75v.79c-.41,0-.75.34-.75.75s.34.75.75.75v.79c-.41,0-.75.34-.75.75s.34.75.75.75v.79c-.41,0-.75.34-.75.75s.34.75.75.75v.79c-.41,0-.75.34-.75.75s.34.75.75.75v.79c-.41,0-.75.34-.75.75s.34.75.75.75v.77c-.41,0-.75.34-.75.75h-.79c0-.41-.34-.75-.75-.75s-.75.34-.75.75h-.79c0-.41-.34-.75-.75-.75s-.75.34-.75.75h-.79c0-.41-.34-.75-.75-.75s-.75.34-.75.75h-.79c0-.41-.34-.75-.75-.75s-.75.34-.75.75h-.79c0-.41-.34-.75-.75-.75s-.75.34-.75.75h-.79c0-.41-.34-.75-.75-.75s-.75.34-.75.75h-.79c-.01-.41-.34-.73-.75-.73v-.79c.41,0,.75-.34.75-.75s-.34-.75-.75-.75v-.79c.41,0,.75-.34.75-.75s-.34-.75-.75-.75v-.79c.41,0,.75-.34.75-.75s-.34-.75-.75-.75v-.79c.41,0,.75-.34.75-.75s-.34-.75-.75-.75v-.79c.41,0,.75-.34.75-.75s-.34-.75-.75-.75v-.79c.41,0,.75-.34.75-.75s-.34-.75-.75-.75v-.79c.41,0,.75-.34.75-.75h.79c0,.41.34.75.75.75s.75-.34.75-.75h.79c0,.41.34.75.75.75s.75-.34.75-.75h.79c0,.41.34.75.75.75s.75-.34.75-.75h.79c0,.41.34.75.75.75s.75-.34.75-.75h.79c0,.41.34.75.75.75s.75-.34.75-.75h.79c0,.41.34.75.75.75s.75-.34.75-.75h.79c0,.41.34.75.75.75v.79c-.41,0-.75.34-.75.75ZM14.75,1.25H1.25v13.5h13.5V1.25ZM9.51,5.97c0-.66-.48-1-1.26-1h-1.34v2.04h1.34c.79,0,1.26-.35,1.26-1.04Z"/>
  </g>
</svg>