<?xml version="1.0" encoding="UTF-8"?>
<svg id="Ebene_2" xmlns="http://www.w3.org/2000/svg" viewBox="0 0 32 32">
  <defs>
    <style>
      .cls-1 {
        fill: #1d1d1b;
      }
    </style>
  </defs>
  <g id="_x33_219">
    <path class="cls-1" d="M32,3.08v-1.58c-.83,0-1.5-.67-1.5-1.5h-1.57c0,.83-.67,1.5-1.5,1.5s-1.5-.67-1.5-1.5h-1.57c0,.83-.67,1.5-1.5,1.5s-1.5-.67-1.5-1.5h-1.57c0,.83-.67,1.5-1.5,1.5s-1.5-.67-1.5-1.5h-1.57c0,.83-.67,1.5-1.5,1.5s-1.5-.67-1.5-1.5h-1.57c0,.83-.67,1.5-1.5,1.5s-1.5-.67-1.5-1.5h-1.57c0,.83-.67,1.5-1.5,1.5s-1.5-.67-1.5-1.5h-1.57c0,.83-.67,1.5-1.5,1.5v1.58c.83,0,1.5.67,1.5,1.5s-.67,1.5-1.5,1.5v1.58c.83,0,1.5.67,1.5,1.5s-.67,1.5-1.5,1.5v1.58c.83,0,1.5.67,1.5,1.5s-.67,1.5-1.5,1.5v1.58c.83,0,1.5.67,1.5,1.5s-.67,1.5-1.5,1.5v1.58c.83,0,1.5.67,1.5,1.5s-.67,1.5-1.5,1.5v1.58c.83,0,1.5.67,1.5,1.5s-.67,1.5-1.5,1.5v1.58c.82,0,1.47.65,1.49,1.46h1.58c0-.83.67-1.5,1.5-1.5s1.5.67,1.5,1.5h1.57c0-.83.67-1.5,1.5-1.5s1.5.67,1.5,1.5h1.57c0-.83.67-1.5,1.5-1.5s1.5.67,1.5,1.5h1.57c0-.83.67-1.5,1.5-1.5s1.5.67,1.5,1.5h1.57c0-.83.67-1.5,1.5-1.5s1.5.67,1.5,1.5h1.57c0-.83.67-1.5,1.5-1.5s1.5.67,1.5,1.5h1.57c0-.83.67-1.5,1.5-1.5v-1.54c-.83,0-1.5-.67-1.5-1.5s.67-1.5,1.5-1.5v-1.58c-.83,0-1.5-.67-1.5-1.5s.67-1.5,1.5-1.5v-1.58c-.83,0-1.5-.67-1.5-1.5s.67-1.5,1.5-1.5v-1.58c-.83,0-1.5-.67-1.5-1.5s.67-1.5,1.5-1.5v-1.58c-.83,0-1.5-.67-1.5-1.5s.67-1.5,1.5-1.5v-1.58c-.83,0-1.5-.67-1.5-1.5s.67-1.5,1.5-1.5ZM29,29.01H3V3h26v26ZM13.08,19.33h6.19l1.49,4.27h3.48l-6.24-16.56h-3.62l-6.19,16.56h3.41l1.49-4.27ZM16.18,10.43l2.16,6.22h-4.32l2.16-6.22Z"/>
  </g>
</svg>