<?xml version="1.0" encoding="UTF-8"?>
<svg id="Ebene_2" xmlns="http://www.w3.org/2000/svg" viewBox="0 0 64 64">
  <defs>
    <style>
      .cls-1 {
        fill: #1d1d1b;
      }
    </style>
  </defs>
  <g id="_x33_219">
    <path class="cls-1" d="M64,6.15v-3.15c-1.66,0-3-1.34-3-3h-3.14c0,1.66-1.34,3-3,3s-3-1.34-3-3h-3.14c0,1.66-1.34,3-3,3s-3-1.34-3-3h-3.14c0,1.66-1.34,3-3,3s-3-1.34-3-3h-3.14c0,1.66-1.34,3-3,3s-3-1.34-3-3h-3.14c0,1.66-1.34,3-3,3s-3-1.34-3-3h-3.14c0,1.66-1.34,3-3,3s-3-1.34-3-3h-3.14c0,1.66-1.34,3-3,3v3.15c1.66,0,3,1.34,3,3s-1.34,3-3,3v3.15c1.66,0,3,1.34,3,3s-1.34,3-3,3v3.15c1.66,0,3,1.34,3,3s-1.34,3-3,3v3.15c1.66,0,3,1.34,3,3s-1.34,3-3,3v3.15c1.66,0,3,1.34,3,3s-1.34,3-3,3v3.15c1.66,0,3,1.34,3,3s-1.34,3-3,3v3.15c1.63,0,2.94,1.31,2.99,2.93h3.16c0-1.66,1.34-3,3-3s3,1.34,3,3h3.14c0-1.66,1.34-3,3-3s3,1.34,3,3h3.14c0-1.66,1.34-3,3-3s3,1.34,3,3h3.14c0-1.66,1.34-3,3-3s3,1.34,3,3h3.14c0-1.66,1.34-3,3-3s3,1.34,3,3h3.14c0-1.66,1.34-3,3-3s3,1.34,3,3h3.14c0-1.66,1.34-3,3-3v-3.08c-1.66,0-3-1.34-3-3s1.34-3,3-3v-3.15c-1.66,0-3-1.34-3-3s1.34-3,3-3v-3.15c-1.66,0-3-1.34-3-3s1.34-3,3-3v-3.15c-1.66,0-3-1.34-3-3s1.34-3,3-3v-3.15c-1.66,0-3-1.34-3-3s1.34-3,3-3v-3.15c-1.66,0-3-1.34-3-3s1.34-3,3-3ZM58,58.01H6V6.01h52v52ZM25.28,38.97h12.9l3.1,8.9h7.25l-13-34.5h-7.55l-12.9,34.5h7.1l3.1-8.9ZM31.73,20.41l4.5,12.95h-9l4.5-12.95Z"/>
  </g>
</svg>