<?xml version="1.0" encoding="UTF-8"?>
<svg id="Ebene_2" xmlns="http://www.w3.org/2000/svg" viewBox="0 0 40 40">
  <defs>
    <style>
      .cls-1 {
        fill: #1d1d1b;
      }
    </style>
  </defs>
  <g id="_x33_219">
    <path class="cls-1" d="M40,3.85v-1.97c-1.04,0-1.88-.84-1.88-1.88h-1.96c0,1.04-.84,1.88-1.88,1.88s-1.88-.84-1.88-1.88h-1.96c0,1.04-.84,1.88-1.88,1.88s-1.88-.84-1.88-1.88h-1.96c0,1.04-.84,1.88-1.88,1.88s-1.88-.84-1.88-1.88h-1.96c0,1.04-.84,1.88-1.88,1.88s-1.88-.84-1.88-1.88h-1.96c0,1.04-.84,1.88-1.88,1.88s-1.88-.84-1.88-1.88h-1.96c0,1.04-.84,1.88-1.88,1.88s-1.88-.84-1.88-1.88h-1.96c0,1.04-.84,1.88-1.88,1.88v1.97c1.04,0,1.88.84,1.88,1.88s-.84,1.88-1.88,1.88v1.97c1.04,0,1.88.84,1.88,1.88s-.84,1.88-1.88,1.88v1.97c1.04,0,1.88.84,1.88,1.88s-.84,1.88-1.88,1.88v1.97c1.04,0,1.88.84,1.88,1.88s-.84,1.88-1.88,1.88v1.97c1.04,0,1.88.84,1.88,1.88s-.84,1.88-1.88,1.88v1.97c1.04,0,1.88.84,1.88,1.88s-.84,1.88-1.88,1.88v1.97c1.02,0,1.84.82,1.87,1.83h1.97c0-1.04.84-1.88,1.88-1.88s1.88.84,1.88,1.88h1.96c0-1.04.84-1.88,1.88-1.88s1.88.84,1.88,1.88h1.96c0-1.04.84-1.88,1.88-1.88s1.88.84,1.88,1.88h1.96c0-1.04.84-1.88,1.88-1.88s1.88.84,1.88,1.88h1.96c0-1.04.84-1.88,1.88-1.88s1.88.84,1.88,1.88h1.96c0-1.04.84-1.88,1.88-1.88s1.88.84,1.88,1.88h1.96c0-1.04.84-1.88,1.88-1.88v-1.92c-1.04,0-1.88-.84-1.88-1.88s.84-1.88,1.88-1.88v-1.97c-1.04,0-1.88-.84-1.88-1.88s.84-1.88,1.88-1.88v-1.97c-1.04,0-1.88-.84-1.88-1.88s.84-1.88,1.88-1.88v-1.97c-1.04,0-1.88-.84-1.88-1.88s.84-1.88,1.88-1.88v-1.97c-1.04,0-1.88-.84-1.88-1.88s.84-1.88,1.88-1.88v-1.97c-1.04,0-1.88-.84-1.88-1.88s.84-1.88,1.88-1.88ZM36.25,36.26H3.75V3.75h32.5v32.5ZM28.78,24.6c0-2.53-1.12-4-3.49-5.09,1.86-1.31,2.59-2.75,2.59-4.7,0-4.54-3.62-5.63-8.16-5.63h-7.62v22.08h8.19c4.96,0,8.48-1.86,8.48-6.66ZM16.47,12.82h3.58c2.08,0,3.36.9,3.36,2.66,0,1.86-1.25,2.78-3.36,2.78h-3.58v-5.44ZM16.47,21.52h3.81c2.69,0,4,1.02,4,3.01s-1.31,3.07-3.94,3.07h-3.87v-6.08Z"/>
  </g>
</svg>