<?xml version="1.0" encoding="UTF-8"?>
<svg id="Ebene_2" xmlns="http://www.w3.org/2000/svg" viewBox="0 0 24 24">
  <defs>
    <style>
      .cls-1 {
        fill: #1d1d1b;
      }
    </style>
  </defs>
  <g id="_x33_219">
    <path class="cls-1" d="M24,2.31v-1.18c-.62,0-1.12-.5-1.12-1.12h-1.18c0,.62-.5,1.12-1.12,1.12s-1.12-.5-1.12-1.12h-1.18c0,.62-.5,1.12-1.12,1.12s-1.12-.5-1.12-1.12h-1.18c0,.62-.5,1.12-1.12,1.12s-1.12-.5-1.12-1.12h-1.18c0,.62-.5,1.12-1.12,1.12s-1.12-.5-1.12-1.12h-1.18c0,.62-.5,1.12-1.12,1.12s-1.12-.5-1.12-1.12h-1.18c0,.62-.5,1.12-1.12,1.12s-1.12-.5-1.12-1.12h-1.18c0,.62-.5,1.12-1.12,1.12v1.18c.62,0,1.12.5,1.12,1.12s-.5,1.12-1.12,1.12v1.18c.62,0,1.12.5,1.12,1.12s-.5,1.12-1.12,1.12v1.18c.62,0,1.12.5,1.12,1.12s-.5,1.12-1.12,1.12v1.18c.62,0,1.12.5,1.12,1.12s-.5,1.12-1.12,1.12v1.18c.62,0,1.12.5,1.12,1.12s-.5,1.12-1.12,1.12v1.18c.62,0,1.12.5,1.12,1.12s-.5,1.12-1.12,1.12v1.18c.61,0,1.1.49,1.12,1.1h1.18c0-.62.5-1.12,1.12-1.12s1.12.5,1.12,1.12h1.18c0-.62.5-1.12,1.12-1.12s1.12.5,1.12,1.12h1.18c0-.62.5-1.12,1.12-1.12s1.12.5,1.12,1.12h1.18c0-.62.5-1.12,1.12-1.12s1.12.5,1.12,1.12h1.18c0-.62.5-1.12,1.12-1.12s1.12.5,1.12,1.12h1.18c0-.62.5-1.12,1.12-1.12s1.12.5,1.12,1.12h1.18c0-.62.5-1.12,1.12-1.12v-1.15c-.62,0-1.12-.5-1.12-1.12s.5-1.12,1.12-1.12v-1.18c-.62,0-1.12-.5-1.12-1.12s.5-1.12,1.12-1.12v-1.18c-.62,0-1.12-.5-1.12-1.12s.5-1.12,1.12-1.12v-1.18c-.62,0-1.12-.5-1.12-1.12s.5-1.12,1.12-1.12v-1.18c-.62,0-1.12-.5-1.12-1.12s.5-1.12,1.12-1.12v-1.18c-.62,0-1.12-.5-1.12-1.12s.5-1.12,1.12-1.12ZM21.75,21.75H2.25V2.25h19.5v19.5ZM16.82,14.2c0-1.42-.63-2.25-1.96-2.86,1.04-.74,1.46-1.55,1.46-2.65,0-2.56-2.03-3.17-4.59-3.17h-4.29v12.42h4.61c2.79,0,4.77-1.04,4.77-3.75ZM9.89,7.58h2.02c1.17,0,1.89.5,1.89,1.49,0,1.04-.7,1.57-1.89,1.57h-2.02v-3.06ZM9.89,12.47h2.14c1.51,0,2.25.58,2.25,1.69s-.74,1.73-2.21,1.73h-2.18v-3.42Z"/>
  </g>
</svg>