<?xml version="1.0" encoding="UTF-8"?>
<svg id="Ebene_2" xmlns="http://www.w3.org/2000/svg" viewBox="0 0 40 40">
  <defs>
    <style>
      .cls-1 {
        fill: #1d1d1b;
      }
    </style>
  </defs>
  <g id="_x33_219">
    <path class="cls-1" d="M40,3.85v-1.97c-1.04,0-1.88-.84-1.88-1.88h-1.96c0,1.04-.84,1.88-1.88,1.88s-1.88-.84-1.88-1.88h-1.96c0,1.04-.84,1.88-1.88,1.88s-1.88-.84-1.88-1.88h-1.96c0,1.04-.84,1.88-1.88,1.88s-1.88-.84-1.88-1.88h-1.96c0,1.04-.84,1.88-1.88,1.88s-1.88-.84-1.88-1.88h-1.96c0,1.04-.84,1.88-1.88,1.88s-1.88-.84-1.88-1.88h-1.96c0,1.04-.84,1.88-1.88,1.88s-1.88-.84-1.88-1.88h-1.96c0,1.04-.84,1.88-1.88,1.88v1.97c1.04,0,1.88.84,1.88,1.88s-.84,1.88-1.88,1.88v1.97c1.04,0,1.88.84,1.88,1.88s-.84,1.88-1.88,1.88v1.97c1.04,0,1.88.84,1.88,1.88s-.84,1.88-1.88,1.88v1.97c1.04,0,1.88.84,1.88,1.88s-.84,1.88-1.88,1.88v1.97c1.04,0,1.88.84,1.88,1.88s-.84,1.88-1.88,1.88v1.97c1.04,0,1.88.84,1.88,1.88s-.84,1.88-1.88,1.88v1.97c1.02,0,1.84.82,1.87,1.83h1.97c0-1.04.84-1.88,1.88-1.88s1.88.84,1.88,1.88h1.96c0-1.04.84-1.88,1.88-1.88s1.88.84,1.88,1.88h1.96c0-1.04.84-1.88,1.88-1.88s1.88.84,1.88,1.88h1.96c0-1.04.84-1.88,1.88-1.88s1.88.84,1.88,1.88h1.96c0-1.04.84-1.88,1.88-1.88s1.88.84,1.88,1.88h1.96c0-1.04.84-1.88,1.88-1.88s1.88.84,1.88,1.88h1.96c0-1.04.84-1.88,1.88-1.88v-1.92c-1.04,0-1.88-.84-1.88-1.88s.84-1.88,1.88-1.88v-1.97c-1.04,0-1.88-.84-1.88-1.88s.84-1.88,1.88-1.88v-1.97c-1.04,0-1.88-.84-1.88-1.88s.84-1.88,1.88-1.88v-1.97c-1.04,0-1.88-.84-1.88-1.88s.84-1.88,1.88-1.88v-1.97c-1.04,0-1.88-.84-1.88-1.88s.84-1.88,1.88-1.88v-1.97c-1.04,0-1.88-.84-1.88-1.88s.84-1.88,1.88-1.88ZM36.25,36.26H3.75V3.75h32.5v32.5ZM16.12,24.47h8.26l1.98,5.7h4.64l-8.32-22.08h-4.83l-8.25,22.08h4.54l1.98-5.7ZM20.25,12.59l2.88,8.29h-5.76l2.88-8.29Z"/>
  </g>
</svg>