<?xml version="1.0" encoding="UTF-8"?>
<svg id="Ebene_2" xmlns="http://www.w3.org/2000/svg" viewBox="0 0 64 64">
  <defs>
    <style>
      .cls-1 {
        fill: #1d1d1b;
      }
    </style>
  </defs>
  <g id="_x33_219">
    <path class="cls-1" d="M32,21.45l4.5,12.95h-9l4.5-12.95ZM57.5,57.51H6.5V6.51h51v51ZM48.8,48.9l-13-34.5h-7.55l-12.9,34.5h7.1l3.1-8.9h12.9l3.1,8.9h7.25ZM61,9.15c0,1.66,1.34,3,3,3v3.15c-1.66,0-3,1.34-3,3s1.34,3,3,3v3.15c-1.66,0-3,1.34-3,3s1.34,3,3,3v3.15c-1.66,0-3,1.34-3,3s1.34,3,3,3v3.15c-1.66,0-3,1.34-3,3s1.34,3,3,3v3.15c-1.66,0-3,1.34-3,3s1.34,3,3,3v3.08c-1.66,0-3,1.34-3,3h-3.14c0-1.66-1.34-3-3-3s-3,1.34-3,3h-3.14c0-1.66-1.34-3-3-3s-3,1.34-3,3h-3.14c0-1.66-1.34-3-3-3s-3,1.34-3,3h-3.14c0-1.66-1.34-3-3-3s-3,1.34-3,3h-3.14c0-1.66-1.34-3-3-3s-3,1.34-3,3h-3.14c0-1.66-1.34-3-3-3s-3,1.34-3,3h-3.16c-.04-1.62-1.35-2.93-2.99-2.93v-3.15c1.66,0,3-1.34,3-3s-1.34-3-3-3v-3.15c1.66,0,3-1.34,3-3s-1.34-3-3-3v-3.15c1.66,0,3-1.34,3-3s-1.34-3-3-3v-3.15c1.66,0,3-1.34,3-3s-1.34-3-3-3v-3.15c1.66,0,3-1.34,3-3s-1.34-3-3-3v-3.15c1.66,0,3-1.34,3-3s-1.34-3-3-3v-3.15c1.66,0,3-1.34,3-3h3.14c0,1.66,1.34,3,3,3s3-1.34,3-3h3.14c0,1.66,1.34,3,3,3s3-1.34,3-3h3.14c0,1.66,1.34,3,3,3s3-1.34,3-3h3.14c0,1.66,1.34,3,3,3s3-1.34,3-3h3.14c0,1.66,1.34,3,3,3s3-1.34,3-3h3.14c0,1.66,1.34,3,3,3s3-1.34,3-3h3.14c0,1.66,1.34,3,3,3v3.15c-1.66,0-3,1.34-3,3ZM58.5,5.51H5.5v53h53V5.51Z"/>
  </g>
</svg>