<?xml version="1.0" encoding="UTF-8"?>
<svg id="Ebene_2" xmlns="http://www.w3.org/2000/svg" viewBox="0 0 40 40">
  <defs>
    <style>
      .cls-1 {
        fill: #1d1d1b;
      }
    </style>
  </defs>
  <g id="_x33_219">
    <path class="cls-1" d="M20.71,17.76h-3.36v-5.1h3.36c1.95,0,3.15.84,3.15,2.49,0,1.74-1.17,2.61-3.15,2.61ZM20.92,20.82h-3.57v5.7h3.63c2.46,0,3.69-1.05,3.69-2.88s-1.23-2.82-3.75-2.82ZM35.75,35.76H4.25V4.25h31.5v31.5ZM28.9,23.7c0-2.37-1.05-3.75-3.27-4.77,1.74-1.23,2.43-2.58,2.43-4.41,0-4.26-3.39-5.28-7.65-5.28h-7.14v20.7h7.68c4.65,0,7.95-1.74,7.95-6.24ZM38.12,5.72c0,1.04.84,1.88,1.88,1.88v1.97c-1.04,0-1.88.84-1.88,1.88s.84,1.88,1.88,1.88v1.97c-1.04,0-1.88.84-1.88,1.88s.84,1.88,1.88,1.88v1.97c-1.04,0-1.88.84-1.88,1.88s.84,1.88,1.88,1.88v1.97c-1.04,0-1.88.84-1.88,1.88s.84,1.88,1.88,1.88v1.97c-1.04,0-1.88.84-1.88,1.88s.84,1.88,1.88,1.88v1.92c-1.04,0-1.88.84-1.88,1.88h-1.96c0-1.04-.84-1.88-1.88-1.88s-1.88.84-1.88,1.88h-1.96c0-1.04-.84-1.88-1.88-1.88s-1.88.84-1.88,1.88h-1.96c0-1.04-.84-1.88-1.88-1.88s-1.88.84-1.88,1.88h-1.96c0-1.04-.84-1.88-1.88-1.88s-1.88.84-1.88,1.88h-1.96c0-1.04-.84-1.88-1.88-1.88s-1.88.84-1.88,1.88h-1.96c0-1.04-.84-1.88-1.88-1.88s-1.88.84-1.88,1.88h-1.97c-.03-1.01-.85-1.83-1.87-1.83v-1.97c1.04,0,1.88-.84,1.88-1.88s-.84-1.88-1.88-1.88v-1.97c1.04,0,1.88-.84,1.88-1.88s-.84-1.88-1.88-1.88v-1.97c1.04,0,1.88-.84,1.88-1.88s-.84-1.88-1.88-1.88v-1.97c1.04,0,1.88-.84,1.88-1.88s-.84-1.88-1.88-1.88v-1.97c1.04,0,1.88-.84,1.88-1.88s-.84-1.88-1.88-1.88v-1.97c1.04,0,1.88-.84,1.88-1.88s-.84-1.88-1.88-1.88v-1.97c1.04,0,1.88-.84,1.88-1.88h1.96c0,1.04.84,1.88,1.88,1.88s1.88-.84,1.88-1.88h1.96c0,1.04.84,1.88,1.88,1.88s1.88-.84,1.88-1.88h1.96c0,1.04.84,1.88,1.88,1.88s1.88-.84,1.88-1.88h1.96c0,1.04.84,1.88,1.88,1.88s1.88-.84,1.88-1.88h1.96c0,1.04.84,1.88,1.88,1.88s1.88-.84,1.88-1.88h1.96c0,1.04.84,1.88,1.88,1.88s1.88-.84,1.88-1.88h1.96c0,1.04.84,1.88,1.88,1.88v1.97c-1.04,0-1.88.84-1.88,1.88ZM36.75,3.25H3.25v33.5h33.5V3.25Z"/>
  </g>
</svg>