<?xml version="1.0" encoding="UTF-8"?>
<svg id="Ebene_2" xmlns="http://www.w3.org/2000/svg" viewBox="0 0 40 40">
  <defs>
    <style>
      .cls-1 {
        fill: #1e1e1c;
      }
    </style>
  </defs>
  <g id="_x33_219">
    <path class="cls-1" d="M6.89,7.03c-.42-.42-.65-.97-.65-1.56,0-.59.23-1.15.65-1.56l3.14-3.14c.86-.86,2.26-.86,3.12,0l2.44,2.44-6.26,6.27-2.44-2.44ZM31.4,19.01l-2.34,2.34-2.49-2.49,3.01-3.01-1.92-1.92,2.39-2.39,3.07,3.07,6.28-6.28c.78-.78.79-2.05.02-2.82l-4.93-4.93c-.37-.37-.87-.57-1.39-.57h0c-.54,0-1.05.21-1.43.59l-6.28,6.28,3.07,3.07-2.39,2.39-1.92-1.92-3.01,3.01-2.51-2.51,2.34-2.34-3.79-3.79-6.26,6.26,3.79,3.79,2.34-2.34,2.51,2.51-1.07,1.07,1.92,1.92-.37.37c-1.47-1.12-3.25-1.74-5.12-1.74-2.26,0-4.38.88-5.98,2.48l-.79.8,5.18,5.18-1.5,1.5c-.66-.14-1.37.05-1.88.56-.51.51-.69,1.22-.55,1.88l-.03.03.06.06c.09.35.26.68.53.95.27.27.6.44.95.53l.06.06.03-.03c.14.03.28.05.42.05.53,0,1.06-.2,1.46-.6h0c.51-.51.69-1.22.56-1.88l1.5-1.5,5.18,5.18.8-.79c1.6-1.6,2.48-3.72,2.48-5.98,0-1.88-.62-3.66-1.74-5.12l.37-.37,1.92,1.92,1.07-1.07,2.49,2.49-2.34,2.34,3.89,3.89,6.26-6.26-3.89-3.89ZM36.88,24.49l-6.26,6.26,2.33,2.33c.43.43,1,.65,1.56.65s1.13-.21,1.56-.65l3.14-3.14c.86-.86.86-2.26,0-3.12l-2.33-2.33ZM10.9,37.24c-2.35,1.01-5.04.5-6.84-1.3-1.8-1.8-2.31-4.49-1.3-6.84.25-.57-.02-1.23-.59-1.48-.57-.25-1.23.02-1.48.59-1.38,3.2-.68,6.86,1.78,9.32,1.62,1.62,3.76,2.47,5.95,2.47,1.13,0,2.28-.23,3.37-.7.57-.25.83-.91.59-1.48-.25-.57-.91-.84-1.48-.59ZM12.57,32.69c-1.52.65-3.25.33-4.42-.84-1.16-1.16-1.49-2.9-.84-4.42.25-.57-.02-1.23-.59-1.48-.57-.25-1.23.02-1.48.59-1.02,2.37-.5,5.08,1.32,6.9,1.2,1.2,2.78,1.83,4.4,1.83.84,0,1.68-.17,2.49-.52.57-.25.83-.91.59-1.48-.25-.57-.91-.84-1.48-.59Z"/>
  </g>
</svg>