<?xml version="1.0" encoding="UTF-8"?>
<svg id="Ebene_2" xmlns="http://www.w3.org/2000/svg" viewBox="0 0 48 48">
  <defs>
    <style>
      .cls-1 {
        fill: #1e1e1c;
      }
    </style>
  </defs>
  <g id="_x33_219">
    <path class="cls-1" d="M8.43,8.3c-.48-.48-.75-1.12-.75-1.8s.27-1.32.75-1.8l3.77-3.77c.96-.96,2.64-.96,3.61,0l3,3-7.37,7.37-3-3ZM37.74,22.87l-2.8,2.8-3.13-3.13,3.51-3.51-2.12-2.12,2.62-2.62,3.76,3.76,7.72-7.72c.92-.92.92-2.41,0-3.33l-6.33-6.33c-.44-.44-1.04-.69-1.66-.69h0c-.63,0-1.22.24-1.66.69l-7.72,7.72,4.13,4.13-2.62,2.62-2.48-2.48-3.51,3.51-3.15-3.15,2.8-2.8-4.54-4.54-7.37,7.37,4.54,4.54,2.8-2.8,3.15,3.15-1.18,1.18,2.48,2.48-.66.66c-3.94-3.24-9.79-3.01-13.47.66l-.88.88,6.22,6.22-1.91,1.91c-.77-.18-1.61.03-2.21.63-.6.6-.8,1.44-.63,2.21l-.08.08.14.14c.11.33.29.65.56.92s.58.45.92.56l.14.14.08-.08c.18.04.36.07.54.07.61,0,1.21-.23,1.68-.69.6-.6.8-1.44.63-2.22l1.91-1.91,6.22,6.22.88-.88c1.9-1.9,2.94-4.42,2.94-7.1,0-2.17-.7-4.23-1.96-5.95l.71-.71,2.12,2.12,1.18-1.18,3.13,3.13-2.8,2.8,4.67,4.67,7.37-7.37-4.67-4.67ZM44.18,29.31l-7.37,7.37,2.87,2.87c.48.48,1.12.75,1.8.75s1.32-.27,1.8-.75l3.77-3.77c.99-.99.99-2.61,0-3.61l-2.87-2.87ZM13.02,44.88c-2.86,1.23-6.12.61-8.31-1.58-2.19-2.19-2.81-5.45-1.58-8.31.27-.63-.02-1.37-.65-1.64-.63-.27-1.37.02-1.64.65-1.64,3.8-.81,8.15,2.11,11.06,1.92,1.92,4.47,2.94,7.07,2.94,1.34,0,2.7-.27,4-.83.63-.27.93-1.01.65-1.64-.27-.63-1.01-.93-1.64-.65ZM14.49,39.95c-1.86.8-3.98.4-5.41-1.03-1.42-1.43-1.83-3.55-1.03-5.41.27-.63-.02-1.37-.65-1.64-.64-.28-1.37.02-1.64.65-1.21,2.81-.6,6.01,1.56,8.16,1.42,1.42,3.29,2.17,5.21,2.17.99,0,1.99-.2,2.95-.61.63-.27.93-1.01.65-1.64-.27-.63-1.01-.93-1.64-.65Z"/>
  </g>
</svg>