<?xml version="1.0" encoding="UTF-8"?>
<svg id="Ebene_2" xmlns="http://www.w3.org/2000/svg" viewBox="0 0 31.95 31.95">
  <defs>
    <style>
      .cls-1 {
        fill: #1d1d1b;
      }
    </style>
  </defs>
  <g id="_x33_219">
    <path class="cls-1" d="M25.26,10.39c.5.23.73.82.5,1.32-.17.37-.53.59-.91.59-.14,0-.28-.03-.41-.09-1.02-.46-1.95-1.03-2.77-1.69-.43-.35-.49-.98-.15-1.41.35-.43.98-.5,1.41-.15.68.55,1.47,1.03,2.33,1.42ZM18.4,2.94c-.53.14-.85.69-.71,1.22.28,1.08.68,2.1,1.19,3.01.18.33.52.52.88.52.16,0,.33-.04.48-.12.48-.27.66-.88.39-1.36-.43-.77-.76-1.63-1-2.55-.14-.53-.69-.85-1.22-.71ZM29.33,26.55c-.01.55.43,1.01.98,1.02.61.01,1.18.09,1.64.17v-2.03c-.47-.07-1.02-.13-1.59-.14-.55,0-1.01.43-1.02.98ZM18.17.95h0c.53,0,.96-.42.99-.95h-1.98c.03.53.45.95.99.95ZM12.6,0c-.18,3.64.26,9.57,4.19,13.66,2.77,2.89,6.78,4.34,11.96,4.34,1.02,0,2.09-.06,3.2-.18v-2.02c-6.19.66-10.8-.5-13.7-3.52-3.44-3.58-3.78-9-3.62-12.29h-2.02ZM31.95,29.24c-.89.09-1.81.37-2.55,1.03-.5.45-.87,1.01-1.1,1.68h2.27c.05-.06.1-.13.16-.19.33-.29.76-.44,1.23-.51v-2.02ZM28.83,11.44c-.55-.09-1.06.27-1.15.82-.09.54.27,1.06.82,1.15.97.17,2.02.27,3.11.32.01,0,.03,0,.04,0,.11,0,.21-.03.3-.06v-1.87c-.09-.03-.17-.06-.27-.06-1-.04-1.96-.14-2.85-.29ZM6.12,24.97c-1.74-1.78-3.96-2.74-6.12-3.25v2.06c1.7.46,3.38,1.25,4.7,2.59,1.36,1.4,2.18,3.27,2.47,5.57h2.01c-.32-2.86-1.32-5.21-3.06-6.98ZM17.49,29.72h.01c.55,0,.99-.44,1-.99v-.27c0-1-.06-1.96-.18-2.86-.07-.55-.57-.93-1.12-.86-.55.07-.93.58-.86,1.12.11.82.16,1.69.16,2.6v.24c0,.55.44,1,.99,1.01ZM2.51,28.45c-.74-.75-1.61-1.26-2.51-1.61v2.2c.39.22.76.48,1.09.81.54.55.91,1.26,1.13,2.09h2.06c-.27-1.4-.86-2.57-1.77-3.5ZM24.58,6c1.65,1.72,4.01,2.58,7.04,2.58.11,0,.22-.01.33-.01v-2c-2.62.06-4.61-.59-5.92-1.95-1.24-1.29-1.72-3.06-1.87-4.62h-2.01c.16,1.95.76,4.25,2.44,6ZM17.32,31.71c-.3-.04-.57.06-.79.24h1.27c-.14-.12-.3-.21-.49-.24ZM17.25,21.49c-.42-1.01-.95-1.96-1.58-2.82-.33-.44-.95-.54-1.4-.21-.44.33-.54.95-.21,1.4.53.72.99,1.53,1.34,2.39.16.39.53.62.92.62.13,0,.26-.02.38-.08.51-.21.75-.8.54-1.31ZM0,6.24c.63-.09,1.21-.24,1.75-.47.51-.21.75-.8.53-1.31-.21-.51-.8-.75-1.31-.53-.3.12-.63.21-.97.28v2.03ZM13.33,31.95c.44-4.78-.57-8.5-3.07-11.05-2.93-2.99-7.19-3.69-10.26-3.76v2.01c2.71.06,6.41.66,8.84,3.15,2.09,2.14,2.92,5.39,2.49,9.65h2ZM30.46.07s-.04-.05-.06-.07h-2.48c.3.51.66,1,1.09,1.45.81.84,1.79,1.48,2.94,1.91V1.17c-.57-.29-1.06-.66-1.49-1.1ZM25.92,26.87c-.92.77-1.49,1.85-1.7,3.2-.09.55.29,1.06.83,1.14.05,0,.11.01.16.01.48,0,.91-.35.99-.84.14-.88.47-1.53,1.02-1.99.42-.36.48-.99.12-1.41-.36-.42-.99-.48-1.41-.12ZM23.54,24.75c1.51-1.62,4.34-1.98,8.41-1.1v-2.04c-4.59-.91-7.92-.33-9.88,1.78-2.35,2.54-1.99,6.47-1.58,8.56h2.05c-.36-1.58-.89-5.17,1-7.2ZM3.19,1.68c-.22.51,0,1.1.51,1.32.13.06.27.08.4.08.38,0,.75-.22.92-.6.41-.94.58-1.85.65-2.48h-2.02c-.06.46-.2,1.06-.47,1.68ZM8.46,14.68c-.22.51.02,1.1.53,1.31.89.38,1.71.83,2.45,1.34.17.12.37.18.57.18.32,0,.63-.15.82-.43.32-.45.2-1.08-.25-1.39-.85-.59-1.79-1.11-2.81-1.54-.5-.21-1.09.02-1.31.53ZM6.18,6.6c-1.31,1.32-3.4,1.79-6.18,1.44v2.02c.58.06,1.14.1,1.67.1,2.51,0,4.5-.72,5.93-2.16,2.17-2.19,2.51-5.52,2.39-8h-2c.11,2.1-.12,4.9-1.81,6.6ZM2.66,12.52c-.54-.04-1.03.37-1.08.92s.37,1.03.92,1.08c.99.08,1.96.21,2.86.39.07.01.13.02.2.02.47,0,.89-.33.98-.81.11-.54-.24-1.07-.79-1.17-.98-.19-2.02-.34-3.09-.42Z"/>
  </g>
</svg>