<?xml version="1.0" encoding="UTF-8"?>
<svg id="Ebene_2" xmlns="http://www.w3.org/2000/svg" viewBox="0 0 32 32">
  <defs>
    <style>
      .cls-1 {
        fill: #1e1e1c;
      }
    </style>
  </defs>
  <g id="_x33_219">
    <path class="cls-1" d="M24.32,22.99l3.22,3.22-1.41,1.41-3.22-3.22,1.41-1.41ZM7.85,6.52l-3.22-3.22-1.41,1.41,3.22,3.22,1.41-1.41ZM8.48,0h-3.33c1.07.41,2.26.41,3.33,0ZM24.89,9.52l4.05-4.05-1.41-1.41-4.05,4.05,1.41,1.41ZM18.84,15.57l4.05-4.05-1.41-1.41-4.05,4.05,1.41,1.41ZM9.37,22.21l-4.05,4.05,1.41,1.41,4.05-4.05-1.41-1.41ZM12.79,21.62l4.05-4.05-1.41-1.41-4.05,4.05,1.41,1.41ZM32,6.74l-11.96,11.96-1.41,1.41h0s-11.88,11.88-11.88,11.88h2.83l7.43-7.43,2.51,2.51c1.03,1.04,1.03,2.72,0,3.75l-1.17,1.17h2.78c1.59-1.83,1.53-4.6-.2-6.33l-2.51-2.51,1.62-1.62,1.15,1.15,1.41-1.41-1.15-1.15,1.62-1.62,2.51,2.51c1.76,1.76,4.59,1.8,6.42.13v-2.8l-1.25,1.25c-1.04,1.04-2.72,1.03-3.75,0l-2.51-2.51,7.51-7.52v-2.83ZM31.99,2.42V0h-.41l-2.06,2.06,1.41,1.41,1.06-1.06ZM2.74,1.41L1.33,0H0v1.5l1.32,1.32,1.41-1.41ZM24.19,0l-8.4,8.4-1.64-1.64c-1.03-1.04-1.03-2.72,0-3.75l3-3h-2.83l-1.59,1.59c-1.81,1.81-1.81,4.77,0,6.58l1.64,1.64-1.62,1.62-3.19-3.19-1.41,1.41,3.19,3.19-1.62,1.62-1.64-1.64c-1.81-1.81-4.77-1.81-6.58,0l-1.51,1.51v2.83l2.92-2.92c1.04-1.03,2.72-1.03,3.75,0l1.64,1.64L0,24.19v2.83L27.02,0h-2.83ZM0,5.52v2.77c.28-.9.28-1.86,0-2.77ZM0,31.58v.42h2.41l2.33-2.33-1.41-1.41-3.32,3.32ZM28.25,29.74l2.26,2.26h1.5v-1.33l-2.34-2.34-1.41,1.41Z"/>
  </g>
</svg>