<?xml version="1.0" encoding="UTF-8"?>
<svg id="Ebene_2" xmlns="http://www.w3.org/2000/svg" viewBox="0 0 16 16">
  <defs>
    <style>
      .cls-1 {
        fill: #1e1e1c;
      }
    </style>
  </defs>
  <g id="_x33_219">
    <path class="cls-1" d="M12.64,4.91l-1.06-1.06,2.03-2.03,1.06,1.06-2.03,2.03ZM11.64,5.91l-1.06-1.06-2.03,2.03,1.06,1.06,2.03-2.03ZM8.61,8.94l-1.06-1.06-2.03,2.03,1.06,1.06,2.03-2.03ZM2.5,12.93l1.06,1.06,2.03-2.03-1.06-1.06-2.03,2.03ZM1.56.5l-.5-.5H0v1.07l.49.49L1.56.5ZM11.29,12.36l1.61,1.61,1.06-1.06-1.61-1.61-1.06,1.06ZM1.44,2.51l1.61,1.61,1.06-1.06-1.61-1.61-1.06,1.06ZM0,2.1v2.65c.24-.4.38-.85.38-1.32s-.14-.93-.38-1.33ZM4.74,0h-2.64c.8.46,1.83.46,2.64,0ZM11.73,0l-3.82,3.82-.64-.64c-.42-.42-.42-1.1,0-1.53l1.65-1.65h-2.12l-.59.59c-1,1.01-1,2.64,0,3.65l.64.64-.46.46-1.55-1.55-1.06,1.06,1.55,1.55-.46.46-.64-.64c-1-1.01-2.64-1-3.65,0l-.59.59v2.12l1.65-1.65c.42-.42,1.11-.42,1.53,0l.64.64-3.82,3.82v2.12L13.85,0h-2.12ZM5.13,16l3.38-3.38,1.08,1.08c.42.42.42,1.1,0,1.53l-.78.78h2.07c.76-1.01.69-2.45-.23-3.36l-1.08-1.08.46-.46.4.4,1.06-1.06-.4-.4.46-.46,1.08,1.08c.92.92,2.36.99,3.37.23v-2.07l-.78.78c-.42.42-1.11.42-1.53,0l-1.08-1.08,3.39-3.39v-2.12L3.01,16h2.12ZM0,15.43v.57h1.55l1-1-1.06-1.06-1.5,1.5ZM13.97,15.03l.97.97h1.07v-1.06l-.97-.97-1.06,1.06ZM15.43,0l-.83.83,1.06,1.06.33-.33V0h-.57Z"/>
  </g>
</svg>