<?xml version="1.0" encoding="UTF-8"?>
<svg id="Ebene_2" xmlns="http://www.w3.org/2000/svg" viewBox="0 0 48 48">
  <defs>
    <style>
      .cls-1 {
        fill: #1d2c1b;
      }
    </style>
  </defs>
  <g id="_x33_219">
    <path class="cls-1" d="M0,0h0s1.78.01,1.78.01l2.19,2.19-1.77,1.77L0,1.77v20.06l2.48-2.48c1.27-1.27,2.96-1.97,4.76-1.97s3.49.7,4.76,1.97l2.64,2.64,2.79-2.79-4.52-4.52,1.77-1.77,4.52,4.52,2.79-2.79-2.64-2.64c-1.27-1.27-1.97-2.96-1.97-4.76s.7-3.49,1.97-4.76L21.81.01h3.54l-4.23,4.23c-.8.8-1.24,1.86-1.24,3s.44,2.19,1.24,2.99l2.64,2.64L36.61.01h3.54L0,40.16v7.56l5.21-5.2,1.77,1.77-3.72,3.72h7.22L48,10.47v3.54l-11.56,11.56,3.95,3.95c.8.8,1.86,1.24,3,1.24s2.19-.44,2.99-1.24l1.62-1.62v3.52c-1.25,1.18-2.88,1.84-4.61,1.84s-3.49-.7-4.76-1.97l-3.95-3.95-2.71,2.71,1.83,1.98-1.77,1.77-1.83-1.98-2.86,2.86,3.95,3.95c2.58,2.58,2.62,6.74.13,9.38h14.82l-3.61-3.61,1.77-1.77,3.61,3.61v1.77h0V0H0ZM9.88,11.65l-4.83-4.83,1.77-1.77,4.83,4.83-1.77,1.77ZM39.43,41.2l-4.83-4.83,1.77-1.77,4.83,4.83-1.77,1.77ZM9.97,41.28l-1.77-1.77,6.08-6.08,1.77,1.77-6.08,6.08ZM19.06,32.2l-1.77-1.77,6.08-6.08,1.77,1.77-6.08,6.08ZM28.14,23.12l-1.77-1.77,6.08-6.08,1.77,1.77-6.08,6.08ZM37.22,14.03l-1.77-1.77,6.08-6.08,1.77,1.77-6.08,6.08ZM48,3.26l-1.69,1.69-1.77-1.77L47.71.01h.29v3.24ZM29.51,40.39c1.65,1.65,1.65,4.34,0,5.99l-1.62,1.62h-13.89l11.56-11.56,3.95,3.95ZM12.87,23.75L0,36.62v-11.26l4.25-4.25c.8-.8,1.86-1.24,2.99-1.24s2.2.44,3,1.24l2.64,2.64Z"/>
  </g>
</svg>