<?xml version="1.0" encoding="UTF-8"?>
<svg id="Ebene_2" xmlns="http://www.w3.org/2000/svg" viewBox="0 0 32 32">
  <defs>
    <style>
      .cls-1 {
        fill: #1e1e1c;
      }
    </style>
  </defs>
  <g id="_x33_219">
    <path class="cls-1" d="M5.32,5.81c-.73-.73-.73-1.91,0-2.64L7.83.66c.71-.7,1.94-.7,2.64,0l1.88,1.88-5.15,5.15-1.88-1.88ZM25,15.18l-1.87,1.87-1.85-1.85,2.33-2.32-1.51-1.51,1.8-1.8,2.43,2.43,5.16-5.16c.67-.67.68-1.75.02-2.41l-3.94-3.94c-.66-.66-1.74-.65-2.41.02l-5.16,5.16,2.48,2.48-1.8,1.8-1.56-1.56-2.33,2.32-1.87-1.86,1.87-1.87-3.03-3.03-5.15,5.15,3.03,3.03,1.87-1.87,1.87,1.86-.78.78,1.56,1.56-.6.6c-1.18-.89-2.61-1.38-4.12-1.38-1.83,0-3.56.71-4.86,2.01l-.71.71,4.15,4.15-.76.76c-.54-.09-1.13.07-1.53.47-.33.33-.51.77-.51,1.24s.18.91.51,1.24c.33.33.77.51,1.24.51s.91-.18,1.24-.51c.33-.33.51-.77.51-1.24,0-.1-.01-.2-.03-.3l.74-.74,4.15,4.15.71-.71c2.43-2.43,2.65-6.23.67-8.91l.6-.6,1.51,1.51.78-.78,1.85,1.85-1.87,1.87,3.12,3.12,5.15-5.15-3.12-3.12ZM29.53,19.71l-5.15,5.15,1.8,1.79c.35.35.82.55,1.32.55s.97-.2,1.32-.55l2.51-2.51c.35-.35.55-.82.55-1.32s-.19-.97-.55-1.32l-1.8-1.79ZM8.79,29.6c-1.84.79-3.95.39-5.36-1.02s-1.81-3.52-1.02-5.36c.22-.51-.02-1.1-.52-1.31-.51-.22-1.1.02-1.31.52-1.12,2.6-.55,5.57,1.44,7.56,1.32,1.31,3.05,2.01,4.83,2.01.92,0,1.85-.19,2.73-.57.51-.22.74-.81.52-1.31-.22-.51-.81-.74-1.31-.52ZM10.12,25.96c-1.18.51-2.52.25-3.43-.65-.9-.9-1.16-2.24-.65-3.42.22-.51-.02-1.1-.52-1.31-.51-.21-1.09.02-1.31.52-.83,1.93-.41,4.14,1.07,5.63.98.98,2.27,1.5,3.6,1.5.68,0,1.37-.14,2.03-.42.51-.22.74-.81.52-1.31-.22-.51-.81-.74-1.31-.52Z"/>
  </g>
</svg>