<?xml version="1.0" encoding="UTF-8"?>
<svg id="Ebene_2" xmlns="http://www.w3.org/2000/svg" viewBox="0 0 40 40">
  <defs>
    <style>
      .cls-1 {
        fill: #1d1d1b;
      }
    </style>
  </defs>
  <g id="_x33_219">
    <path class="cls-1" d="M5.96,32.98c1.72,1.76,2.75,4.12,3.13,7.02h-3.89c-.34-1.69-1.06-3.11-2.16-4.24-.89-.91-1.95-1.53-3.04-1.96v-4.11c2.15.58,4.29,1.58,5.96,3.29ZM36.01,22.46c1.27,0,2.61-.08,3.99-.22v4.99c-5.71-1.14-9.85-.42-12.27,2.19-2.9,3.12-2.46,7.98-1.95,10.58h-9.19c.54-5.94-.74-10.54-3.83-13.7-3.64-3.71-8.93-4.59-12.75-4.67v-9.12c.72.08,1.42.13,2.08.13,3.12,0,5.57-.89,7.34-2.67,2.7-2.72,3.11-6.88,2.96-9.97h3.53c-.22,4.53.31,11.94,5.21,17.06,3.45,3.6,8.44,5.4,14.89,5.4ZM7.53,17.57c.11-.61-.3-1.2-.91-1.31-.99-.18-2.02-.31-3.08-.4-.65-.06-1.17.41-1.22,1.03-.05.62.41,1.16,1.03,1.22.99.08,1.96.21,2.87.38.07.01.13.02.2.02.53,0,1.01-.38,1.11-.93ZM15.41,19.61c-.85-.57-1.79-1.09-2.79-1.54-.57-.25-1.23,0-1.49.56-.26.57,0,1.23.56,1.49.88.4,1.71.85,2.46,1.36.19.13.41.19.62.19.36,0,.72-.17.94-.5.35-.52.21-1.22-.31-1.56ZM20.42,28.5c.15,0,.29-.03.43-.09.57-.24.84-.9.6-1.47-.42-1-.93-1.95-1.51-2.83-.35-.52-1.05-.66-1.56-.31-.52.35-.66,1.04-.31,1.56.51.76.95,1.58,1.31,2.45.18.43.6.69,1.04.69ZM23.05,35.69c0-.89-.04-1.77-.12-2.62-.06-.62-.6-1.07-1.23-1.01-.62.06-1.07.61-1.01,1.23.07.77.11,1.58.11,2.4v.46c-.01.62.48,1.13,1.1,1.15h.02c.61,0,1.11-.49,1.12-1.1v-.5ZM11.15,27.88c-3.07-3.14-7.73-3.9-11.15-3.99v3.47c2.67.63,5.41,1.84,7.56,4.04,2.14,2.19,3.41,5.07,3.82,8.6h2.93c.52-5.34-.52-9.42-3.16-12.12ZM38.16,40h1.84v-.94c-.61.09-1.18.29-1.61.67-.09.08-.16.18-.23.27ZM0,36.28v3.72h2.88c-.28-1.06-.76-1.95-1.44-2.66-.43-.44-.92-.78-1.44-1.06ZM34.29,0h-4.18c.19,1.98.79,4.25,2.39,5.9,1.66,1.73,4.18,2.55,7.5,2.48v-3.52c-1.6-.59-2.96-1.46-4.08-2.63-.66-.69-1.19-1.45-1.63-2.24ZM36.98,0c.18.24.37.47.58.69.68.71,1.51,1.27,2.45,1.72V0h-3.02ZM7.82,8.39c2.15-2.16,2.45-5.72,2.3-8.39h-3.16c-.07.61-.2,1.41-.5,2.29-.16.47-.6.77-1.07.77-.12,0-.24-.02-.36-.06-.59-.2-.91-.84-.71-1.43.2-.58.3-1.13.36-1.57H0v5.43c.38-.07.74-.17,1.08-.29.58-.22,1.23.07,1.45.65.22.58-.07,1.23-.65,1.45-.58.22-1.21.38-1.88.48v2.51c3.51.44,6.15-.17,7.82-1.85ZM39.6,10.64c.13,0,.27-.01.4-.02v4.32c-.12-.05-.25-.09-.39-.1-1-.04-1.97-.13-2.87-.26-.62-.09-1.19.34-1.27.95-.09.62.34,1.19.95,1.27.98.14,2.02.23,3.1.28.02,0,.03,0,.05,0,.16,0,.3-.03.44-.09v2.97c-7.79.83-13.59-.66-17.25-4.47-4.34-4.52-4.78-11.37-4.57-15.51h3.8c.19.19.45.32.74.33.01,0,.03,0,.04,0,.31,0,.59-.13.79-.33h4.3c.2,2.42.94,5.28,3.02,7.45,2.04,2.12,4.96,3.19,8.73,3.19ZM25.49,7.44c-.4-.8-.74-1.67-.99-2.59-.17-.6-.79-.95-1.38-.79-.6.17-.95.78-.79,1.38.29,1.06.68,2.07,1.15,3,.2.39.59.62,1.01.62.17,0,.34-.04.5-.12.55-.28.78-.96.5-1.51ZM31.32,13.05c-.86-.41-1.65-.89-2.36-1.42-.5-.37-1.2-.28-1.58.22-.38.5-.28,1.2.22,1.58.83.63,1.76,1.19,2.76,1.66.16.07.32.11.48.11.42,0,.83-.24,1.02-.64.27-.56.03-1.23-.54-1.5ZM40,29.53v2.84c-.36-.05-.75-.1-1.17-.14-.62-.04-1.16.42-1.21,1.04-.05.62.42,1.16,1.04,1.21.49.04.94.1,1.34.17v2.14c-1.08.11-2.2.46-3.1,1.25-.59.52-1.01,1.18-1.3,1.96h-7.52c-.45-2.04-1.07-6.5,1.3-9.05,1.91-2.06,5.5-2.52,10.62-1.43ZM33.92,34.04c-.42-.46-1.14-.48-1.59-.06-.87.81-1.46,1.87-1.76,3.15-.14.6.23,1.21.84,1.35.09.02.17.03.26.03.51,0,.97-.35,1.09-.87.2-.85.56-1.51,1.1-2.01.46-.42.48-1.14.06-1.59Z"/>
  </g>
</svg>