<?xml version="1.0" encoding="UTF-8"?>
<svg id="Ebene_2" xmlns="http://www.w3.org/2000/svg" viewBox="0 0 48 48">
  <defs>
    <style>
      .cls-1 {
        fill: #1e1e1c;
      }
    </style>
  </defs>
  <g id="_x33_219">
    <path class="cls-1" d="M37.8,22.84l-2.81,2.81-3.13-3.13,4.08-4.08,2.35,2.35,8.96-8.96c1-1,1-2.61,0-3.61l-7.47-7.47c-.99-1-2.62-1-3.61,0l-8.96,8.96,2.35,2.35-4.08,4.08-3.15-3.15,2.81-2.81L15.82.86c-.99-1-2.62-1-3.61,0l-3.77,3.77c-.99.99-.99,2.61,0,3.61l9.32,9.32,2.81-2.81,3.15,3.15-2.57,2.57c-3.49-1.15-7.5-.35-10.27,2.42l-.88.88,6.23,6.23-1.91,1.91c-.18-.04-.35-.07-.54-.07h0c-.64,0-1.23.25-1.68.7-.6.6-.81,1.45-.63,2.22l-.08.08.14.14c.11.34.29.65.56.92.26.26.58.45.92.56l.14.14.08-.08c.18.04.36.07.54.07h0c.64,0,1.23-.25,1.68-.7.6-.6.8-1.44.63-2.22l1.92-1.91,6.23,6.23.88-.88c2.77-2.77,3.57-6.78,2.42-10.27l2.57-2.57,3.13,3.13-2.81,2.81,9.32,9.32c.5.5,1.15.74,1.8.74s1.31-.25,1.81-.75l3.77-3.77c.99-.99.99-2.61,0-3.61l-9.32-9.32ZM14.05,2.63l3,3-3.82,3.82-3.03-3.05,3.85-3.77ZM15,11.23l3.83-3.83,2.78,2.78-3.84,3.84-2.77-2.79ZM30.75,9.71l7.26-7.2,2.94,2.94-3.64,3.64,1.77,1.77,3.64-3.64,2.76,2.76v.07l-7.19,7.19-.59-.59-6.37-6.37-.58-.58ZM34.17,16.67l-7.59,7.6-2.84-2.84,7.59-7.6,2.84,2.84ZM24.14,34.4l-10.54-10.54c2.95-2.1,7.08-1.83,9.73.81,2.64,2.65,2.91,6.78.81,9.73ZM37.8,26.38l2.9,2.92-3.83,3.83-2.91-2.91,3.84-3.84ZM41.58,37.77s-.05.02-.08,0l-2.87-2.87,3.82-3.82,2.9,2.92-3.77,3.77ZM14.68,45.53c.27.63-.02,1.37-.66,1.64-1.3.56-2.66.83-4,.83-2.6,0-5.15-1.02-7.08-2.94C.02,42.14-.81,37.79.83,33.98c.27-.63,1.01-.93,1.64-.66.64.27.93,1.01.66,1.64-1.23,2.86-.61,6.13,1.58,8.33,2.19,2.19,5.46,2.81,8.32,1.58.64-.27,1.37.02,1.64.66ZM16.15,40.59c.27.63-.02,1.37-.66,1.64-.96.41-1.96.61-2.95.61-1.92,0-3.8-.75-5.22-2.17-2.15-2.16-2.77-5.36-1.56-8.17.27-.63,1.01-.93,1.64-.66.64.27.93,1.01.66,1.64-.8,1.86-.4,3.99,1.03,5.42,1.43,1.43,3.55,1.83,5.42,1.03.64-.27,1.37.02,1.64.66Z"/>
  </g>
</svg>