<?xml version="1.0" encoding="UTF-8"?>
<svg id="Ebene_2" xmlns="http://www.w3.org/2000/svg" viewBox="0 0 24 24">
  <defs>
    <style>
      .cls-1 {
        fill: #1e1e1c;
      }
    </style>
  </defs>
  <g id="_x33_219">
    <path class="cls-1" d="M18.64,11.32l-1.4,1.4-1.21-1.21,1.69-1.68,1.18,1.18,4.66-4.66c.29-.29.45-.67.45-1.08s-.16-.79-.45-1.08l-3.74-3.74c-.59-.59-1.56-.59-2.16,0l-4.66,4.66,1.18,1.18-1.69,1.68-1.22-1.22,1.4-1.4L7.82.5c-.58-.57-1.58-.58-2.16,0l-1.89,1.89c-.59.6-.59,1.56,0,2.16l4.84,4.84,1.4-1.4,1.22,1.22-2.02,2.02c-1.8-.53-3.82-.11-5.23,1.3l-.62.62,3.12,3.12-1.29,1.29c-.52-.1-1.1.04-1.49.43-.31.31-.48.72-.48,1.15s.17.84.48,1.15c.32.32.73.47,1.15.47s.83-.16,1.15-.47h0c.31-.31.48-.72.48-1.15,0-.12-.02-.24-.04-.35l1.28-1.28,3.12,3.11.62-.62c1-1,1.55-2.32,1.55-3.73,0-.52-.1-1.02-.24-1.5l2.02-2.02,1.21,1.21-1.4,1.4,4.84,4.84c.29.29.67.45,1.08.45s.79-.16,1.08-.45l1.89-1.89c.29-.29.45-.67.45-1.08,0-.41-.16-.79-.45-1.08l-4.84-4.84ZM6.74,1.9l1.17,1.17-1.57,1.57-1.17-1.17,1.57-1.57ZM7.58,5.87l1.57-1.57,1.04,1.04-1.57,1.57-1.04-1.04ZM18.73,1.84l1.09,1.09-1.77,1.77,1.24,1.24,1.77-1.77,1.09,1.09-3.26,3.26-3.42-3.42,3.26-3.26ZM10.76,18.07l-4.84-4.84c1.35-.8,3.13-.62,4.29.54.67.67,1.03,1.55,1.03,2.5,0,.64-.17,1.26-.49,1.8ZM11.46,12.53s0,0,0,0l-.53-.53,4.48-4.48,1.07,1.07-4.48,4.48-.53-.53s0,0,0,0ZM18.64,13.8l1.1,1.1-1.57,1.57-1.1-1.1,1.57-1.57ZM20.52,18.81l-1.1-1.1,1.57-1.57,1.1,1.1-1.57,1.57ZM7.83,22.41c.19.44-.01.96-.46,1.15-.68.29-1.4.44-2.1.44-1.37,0-2.71-.53-3.72-1.55C.01,20.92-.42,18.64.44,16.63c.19-.44.7-.65,1.15-.46.44.19.65.71.46,1.15-.58,1.34-.28,2.86.74,3.89,1.03,1.03,2.55,1.31,3.89.74.45-.19.96.01,1.15.46Z"/>
  </g>
</svg>