<?xml version="1.0" encoding="UTF-8"?>
<svg id="Ebene_2" xmlns="http://www.w3.org/2000/svg" viewBox="0 0 48 48">
  <defs>
    <style>
      .cls-1 {
        fill: #1e1e1c;
      }
    </style>
  </defs>
  <g id="_x33_219">
    <path class="cls-1" d="M9.88,11.63l-4.83-4.83,1.77-1.77,4.83,4.83-1.77,1.77ZM37.22,14.01l6.08-6.08-1.77-1.77-6.08,6.08,1.77,1.77ZM34.6,36.35l4.83,4.83,1.77-1.77-4.83-4.83-1.77,1.77ZM19.06,32.18l6.08-6.08-1.77-1.77-6.08,6.08,1.77,1.77ZM28.14,23.09l6.08-6.08-1.77-1.77-6.08,6.08,1.77,1.77ZM14.29,33.41l-6.08,6.08,1.77,1.77,6.08-6.08-1.77-1.77ZM36.6,0l-12.85,12.85-2.64-2.64c-1.65-1.65-1.65-4.34,0-5.99L25.34,0h-3.54l-2.46,2.46c-2.63,2.63-2.62,6.9,0,9.52l2.64,2.64-2.79,2.79-4.52-4.52-1.77,1.77,4.52,4.52-2.79,2.79-2.64-2.64c-1.27-1.27-2.96-1.97-4.76-1.97s-3.49.7-4.76,1.97l-2.48,2.48v3.54l4.25-4.25c.8-.8,1.86-1.24,2.99-1.24s2.2.44,3,1.24l2.64,2.64L0,36.6v3.54L40.14,0h-3.54ZM3.97,2.18L1.79,0H0v1.74l2.2,2.2,1.77-1.77ZM0,47.7v.3h3.23l3.74-3.74-1.77-1.77-5.21,5.21ZM42.62,44.36l3.64,3.64h1.74v-1.79l-3.61-3.61-1.77,1.77ZM13.98,48l11.58-11.58,3.95,3.95c1.65,1.65,1.65,4.34,0,5.99l-1.64,1.64h3.52c2.51-2.64,2.47-6.82-.11-9.4l-3.95-3.95,2.71-2.71,1.98,1.83,1.77-1.77-1.98-1.83,2.86-2.86,3.95,3.95c1.27,1.27,2.96,1.97,4.76,1.97s3.36-.65,4.61-1.84v-3.52l-1.62,1.62c-.8.8-1.86,1.24-2.99,1.24s-2.2-.44-3-1.24l-3.95-3.95,11.56-11.56v-3.54L10.45,48h3.54ZM47.7,0l-3.16,3.16,1.77,1.77,1.7-1.7V0h-.3Z"/>
  </g>
</svg>