<?xml version="1.0" encoding="UTF-8"?><svg id="Ebene_2" xmlns="http://www.w3.org/2000/svg" viewBox="0 0 48 48"><defs><style>.cls-1{fill:#1e1e1c;}</style></defs><g id="_x33_219"><path class="cls-1" d="M35.19,15.03l-12.37,19.48-10.46-8.78c-.53-.44-.6-1.23-.15-1.76.44-.53,1.23-.6,1.76-.15l8.27,6.94,10.84-17.07c.37-.58,1.14-.76,1.73-.39.58.37.76,1.14.39,1.73ZM48,24c0,13.23-10.77,24-24,24S0,37.23,0,24,10.77,0,24,0s24,10.77,24,24ZM45.5,24c0-11.85-9.64-21.5-21.5-21.5S2.5,12.15,2.5,24s9.64,21.5,21.5,21.5,21.5-9.64,21.5-21.5Z"/></g></svg>