<?xml version="1.0" encoding="UTF-8"?><svg id="Ebene_2" xmlns="http://www.w3.org/2000/svg" viewBox="0 0 24 24"><defs><style>.cls-1{fill:#1e1e1c;}</style></defs><g id="_x33_219"><path class="cls-1" d="M17.69,7.76l-6.21,9.78-5.35-4.49c-.37-.31-.42-.86-.11-1.23.31-.37.86-.42,1.23-.11l3.81,3.2,5.14-8.09c.26-.41.8-.53,1.21-.27.41.26.53.8.27,1.21ZM24,12c0,6.62-5.38,12-12,12S0,18.62,0,12,5.38,0,12,0s12,5.38,12,12ZM22.25,12c0-5.65-4.6-10.25-10.25-10.25S1.75,6.35,1.75,12s4.6,10.25,10.25,10.25,10.25-4.6,10.25-10.25Z"/></g></svg>