<?xml version="1.0" encoding="UTF-8"?>
<svg id="Ebene_2" xmlns="http://www.w3.org/2000/svg" viewBox="0 0 19.75 24">
  <defs>
    <style>
      .cls-1 {
        fill: #1e1e1c;
      }
    </style>
  </defs>
  <g id="_x33_219">
    <path class="cls-1" d="M17.12,0H2.62C1.18,0,0,1.17,0,2.62v18.76c0,1.44,1.18,2.62,2.62,2.62h14.5c1.45,0,2.62-1.17,2.62-2.62V2.62c0-1.44-1.18-2.62-2.62-2.62ZM2.62,1.75h14.5c.48,0,.88.39.88.87v13.6H1.75V2.62c0-.48.39-.87.88-.87ZM17.12,22.25H2.62c-.48,0-.88-.39-.88-.87v-3.42h16.25v3.42c0,.48-.39.87-.88.87ZM9,19.28h1.75v1.75h-1.75v-1.75Z"/>
  </g>
</svg>