<?xml version="1.0" encoding="UTF-8"?>
<svg id="Ebene_2" xmlns="http://www.w3.org/2000/svg" viewBox="0 0 32.25 40">
  <defs>
    <style>
      .cls-1 {
        fill: #1e1e1c;
      }
    </style>
  </defs>
  <g id="_x33_219">
    <path class="cls-1" d="M28.88,0H3.38C1.51,0,0,1.51,0,3.38v33.25c0,1.86,1.51,3.38,3.38,3.38h25.5c1.86,0,3.38-1.51,3.38-3.38V3.38c0-1.86-1.51-3.38-3.38-3.38ZM3.38,2.25h25.5c.62,0,1.12.51,1.12,1.13v25.86H2.25V3.38c0-.62.5-1.13,1.12-1.13ZM28.88,37.75H3.38c-.62,0-1.12-.51-1.12-1.13v-5.14h27.75v5.14c0,.62-.5,1.13-1.12,1.13ZM15,33.59h2.25v2.25h-2.25v-2.25Z"/>
  </g>
</svg>