<?xml version="1.0" encoding="UTF-8"?>
<svg id="Ebene_2" xmlns="http://www.w3.org/2000/svg" viewBox="0 0 48 48">
  <defs>
    <style>
      .cls-1 {
        fill: #1e1e1c;
      }
    </style>
  </defs>
  <g id="_x33_219">
    <path class="cls-1" d="M38.66,0l-12.76,1.11L1.68,25.39c-2.24,2.25-2.24,5.91,0,8.16l12.74,12.77c1.09,1.09,2.53,1.69,4.07,1.69s2.98-.6,4.07-1.69l23.9-23.96.32-.32,1.23-12.67L38.66,0ZM44.37,20.9l-23.58,23.64c-1.23,1.23-3.37,1.23-4.6,0L3.45,31.77c-1.27-1.27-1.27-3.34,0-4.61L27.03,3.53l10.69-.93,7.68,7.7-1.03,10.6ZM29.59,10.18c-2.24,2.25-2.24,5.91,0,8.16,1.09,1.09,2.53,1.69,4.07,1.69s2.98-.6,4.07-1.69c1.09-1.09,1.69-2.54,1.69-4.08s-.6-2.99-1.69-4.08c-2.24-2.25-5.89-2.25-8.14,0ZM35.95,16.57c-1.23,1.23-3.37,1.23-4.6,0-1.27-1.27-1.27-3.34,0-4.61.63-.63,1.47-.95,2.3-.95s1.67.32,2.3.95c1.27,1.27,1.27,3.34,0,4.61Z"/>
  </g>
</svg>