<?xml version="1.0" encoding="UTF-8"?>
<svg id="Ebene_2" xmlns="http://www.w3.org/2000/svg" viewBox="0 0 40 40">
  <defs>
    <style>
      .cls-1 {
        fill: #1e1e1c;
      }
    </style>
  </defs>
  <g id="_x33_219">
    <path class="cls-1" d="M32.16,0l-10.7.93L1.43,21.02c-1.9,1.91-1.9,5.01,0,6.91l10.61,10.64c.92.92,2.15,1.43,3.45,1.43s2.53-.51,3.45-1.43l20.03-20.08,1.03-10.63-7.84-7.86ZM36.81,17.46l-19.46,19.51c-.99,1-2.72.99-3.71,0L3.02,26.34c-1.02-1.03-1.02-2.7,0-3.72L22.48,3.11l8.84-.77,6.34,6.36-.85,8.76ZM24.51,8.51c-1.9,1.91-1.9,5.01,0,6.92.95.95,2.2,1.43,3.45,1.43s2.5-.48,3.45-1.43c1.9-1.91,1.9-5.01,0-6.91-.92-.92-2.15-1.43-3.45-1.43s-2.53.51-3.45,1.43ZM29.82,13.83c-.99,1-2.72,1-3.71,0-1.02-1.03-1.02-2.7,0-3.72.5-.5,1.15-.77,1.86-.77s1.36.27,1.86.77c1.02,1.03,1.02,2.7,0,3.72Z"/>
  </g>
</svg>