<?xml version="1.0" encoding="UTF-8"?>
<svg id="Ebene_2" xmlns="http://www.w3.org/2000/svg" viewBox="0 0 64 64">
  <defs>
    <style>
      .cls-1 {
        fill: #1e1e1c;
      }
    </style>
  </defs>
  <g id="_x33_219">
    <path class="cls-1" d="M51.74,0l-16.77,1.46L2.16,34.34c-2.88,2.88-2.88,7.58,0,10.47l16.99,17.03c1.39,1.4,3.25,2.17,5.22,2.17s3.83-.77,5.22-2.17L62.38,28.96l1.62-16.66L51.74,0ZM50.37,23.98h0c-1.44,1.44-3.33,2.16-5.21,2.16s-3.78-.72-5.21-2.16c-1.39-1.39-2.16-3.25-2.16-5.22s.77-3.82,2.16-5.21c1.39-1.39,3.24-2.16,5.21-2.16s3.82.77,5.22,2.16c2.88,2.88,2.88,7.55,0,10.43ZM48.42,15.5c1.8,1.8,1.8,4.74,0,6.54-1.8,1.8-4.74,1.8-6.54,0-.87-.87-1.36-2.04-1.36-3.27s.48-2.4,1.36-3.27,2.03-1.35,3.27-1.35,2.4.48,3.27,1.36Z"/>
  </g>
</svg>