<?xml version="1.0" encoding="UTF-8"?>
<svg id="Ebene_2" xmlns="http://www.w3.org/2000/svg" viewBox="0 0 13.12 16">
  <defs>
    <style>
      .cls-1 {
        fill: #1e1e1c;
      }
    </style>
  </defs>
  <g id="_x33_219">
    <path class="cls-1" d="M12.76,5.01c.49-.49.49-1.28,0-1.77s-1.28-.49-1.77,0l-.79.79c-.71-.48-1.53-.83-2.41-1v-.53h1.21V0h-4.91v2.5h1.21v.53C2.28,3.61,0,6.27,0,9.45c0,3.61,2.94,6.55,6.54,6.55s6.54-2.94,6.54-6.55c0-1.35-.41-2.61-1.12-3.66l.79-.79ZM9.04,9.69l-1.61,1.61c-.24.24-.56.37-.88.37s-.64-.12-.88-.37l-2.35-2.35c-.49-.49-.49-1.28,0-1.77s1.28-.49,1.77,0l1.46,1.46.73-.73c.49-.49,1.28-.49,1.77,0s.49,1.28,0,1.77Z"/>
  </g>
</svg>