<?xml version="1.0" encoding="UTF-8"?>
<svg id="Ebene_2" xmlns="http://www.w3.org/2000/svg" viewBox="0 0 27.91 32">
  <defs>
    <style>
      .cls-1 {
        fill: #1e1e1c;
      }
    </style>
  </defs>
  <g id="_x33_219">
    <path class="cls-1" d="M24.97,9.49l.77-.77c.68-.68.68-1.79,0-2.48s-1.79-.68-2.47,0l-.77.77c-1.93-1.5-4.25-2.5-6.79-2.82v-.69h2.32V0h-8.14v3.5h2.32v.69C5.34,5.06,0,10.93,0,18.04c0,7.7,6.26,13.96,13.96,13.96s13.96-6.26,13.96-13.96c0-3.22-1.11-6.18-2.94-8.54ZM19.26,17.24l-4.07,4.07c-.34.34-.79.51-1.24.51s-.9-.17-1.24-.51l-5.67-5.67c-.68-.68-.68-1.79,0-2.48s1.79-.68,2.47,0l4.43,4.44,2.83-2.83c.68-.68,1.79-.68,2.47,0s.68,1.79,0,2.48Z"/>
  </g>
</svg>