<?xml version="1.0" encoding="UTF-8"?>
<svg id="Ebene_2" xmlns="http://www.w3.org/2000/svg" viewBox="0 0 27.71 32">
  <defs>
    <style>
      .cls-1 {
        fill: #1e1e1c;
      }
    </style>
  </defs>
  <g id="_x33_219">
    <path class="cls-1" d="M24.32,9.09l1.35-1.35c.39-.39.39-1.02,0-1.41s-1.02-.39-1.41,0l-1.35,1.35c-2.19-1.9-4.98-3.12-8.05-3.34v-2.34h3.29V0h-8.57v2h3.29v2.34C5.68,4.85,0,10.84,0,18.14s6.22,13.86,13.86,13.86,13.86-6.22,13.86-13.86c0-3.46-1.28-6.62-3.39-9.05ZM13.86,30c-6.54,0-11.86-5.32-11.86-11.86S7.32,6.29,13.86,6.29s11.86,5.32,11.86,11.86-5.32,11.86-11.86,11.86ZM18.85,15.29c.39.39.39,1.02,0,1.41l-4.29,4.29c-.2.2-.45.29-.71.29s-.51-.1-.71-.29l-5.97-5.97c-.39-.39-.39-1.02,0-1.41s1.02-.39,1.41,0l5.27,5.27,3.58-3.58c.39-.39,1.02-.39,1.41,0Z"/>
  </g>
</svg>