<?xml version="1.0" encoding="UTF-8"?>
<svg id="Ebene_2" xmlns="http://www.w3.org/2000/svg" viewBox="0 0 13.89 16">
  <defs>
    <style>
      .cls-1 {
        fill: #1e1e1c;
      }
    </style>
  </defs>
  <g id="_x33_219">
    <path class="cls-1" d="M12.36,4.68l.8-.8c.29-.29.29-.77,0-1.06s-.77-.29-1.06,0l-.8.8c-1.01-.81-2.24-1.35-3.6-1.5v-.61h1.32V0h-4.13v1.5h1.32v.61C2.72,2.49,0,5.45,0,9.04c0,3.84,3.12,6.96,6.95,6.96s6.95-3.12,6.95-6.96c0-1.65-.58-3.17-1.54-4.36ZM6.95,14.5c-3,0-5.45-2.45-5.45-5.46S3.94,3.58,6.95,3.58s5.45,2.45,5.45,5.46-2.44,5.46-5.45,5.46ZM9.2,7.81c.29.29.29.77,0,1.06l-1.72,1.72c-.15.15-.34.22-.53.22s-.38-.07-.53-.22l-2.5-2.51c-.29-.29-.29-.77,0-1.06s.77-.29,1.06,0l1.97,1.98,1.19-1.19c.29-.29.77-.29,1.06,0Z"/>
  </g>
</svg>