<?xml version="1.0" encoding="UTF-8"?>
<svg id="Ebene_2" xmlns="http://www.w3.org/2000/svg" viewBox="0 0 24 24">
  <defs>
    <style>
      .cls-1 {
        fill: #1e1e1c;
      }
    </style>
  </defs>
  <g id="_x33_219">
    <path class="cls-1" d="M21.16,14.62V0H0v16.38h.03v4.01h4.22v-.88c0-3.46,2.77-6.28,6.18-6.28s6.17,2.82,6.17,6.28v.88h2.51l2.19-4.01h.95v1.4c0,.48.39.88.88.88s.88-.39.88-.88v-3.15h-2.84ZM1.78,18.63v-2.26h1.35c-.3.71-.5,1.46-.59,2.26h-.76ZM10.43,11.48c-2.56,0-4.84,1.23-6.29,3.14H1.75V1.75h17.66v12.87h-2.71c-1.45-1.91-3.72-3.14-6.28-3.14ZM18.26,18.29c-.1-.67-.29-1.31-.54-1.91h1.59l-1.04,1.91ZM10.4,14.49c-2.61,0-4.73,2.13-4.73,4.76s2.12,4.76,4.73,4.76,4.73-2.13,4.73-4.76-2.12-4.76-4.73-4.76ZM10.4,22.25c-1.65,0-2.98-1.35-2.98-3.01s1.34-3.01,2.98-3.01,2.98,1.35,2.98,3.01-1.34,3.01-2.98,3.01ZM11.52,19.24c0,.62-.51,1.13-1.13,1.13s-1.13-.5-1.13-1.13.51-1.13,1.13-1.13,1.13.5,1.13,1.13Z"/>
  </g>
</svg>