<?xml version="1.0" encoding="UTF-8"?>
<svg id="Ebene_2" xmlns="http://www.w3.org/2000/svg" viewBox="0 0 48 48">
  <defs>
    <style>
      .cls-1 {
        fill: #1e1e1c;
      }
    </style>
  </defs>
  <g id="_x33_219">
    <path class="cls-1" d="M18.7,39.03c0,.78-.64,1.42-1.42,1.42s-1.42-.64-1.42-1.42.63-1.42,1.42-1.42,1.42.64,1.42,1.42ZM26.18,39.03c0,4.94-3.99,8.97-8.89,8.97s-8.89-4.02-8.89-8.97c0-2.95,1.43-5.57,3.62-7.2.02-.02.04-.03.06-.05.18-.13.37-.26.56-.38.04-.03.08-.05.13-.08.18-.11.36-.21.55-.3.06-.03.13-.06.2-.1.17-.08.34-.16.52-.23.09-.04.18-.07.28-.1.16-.06.32-.11.48-.16.12-.04.25-.07.37-.1.14-.04.28-.07.43-.1.16-.03.33-.05.5-.08.11-.02.22-.04.34-.05.29-.03.57-.04.87-.04s.58.02.87.04c.11.01.22.03.34.05.17.02.34.04.5.08.14.03.29.07.43.1.12.03.25.06.37.1.16.05.32.11.48.16.09.03.18.07.28.1.18.07.35.15.52.23.07.03.13.06.2.1.19.09.37.2.55.3.04.03.08.05.13.08.19.12.38.25.56.38.02.01.04.03.06.05,2.19,1.63,3.62,4.25,3.62,7.2ZM21.2,39.03c0-2.16-1.76-3.92-3.92-3.92s-3.92,1.76-3.92,3.92,1.76,3.92,3.92,3.92,3.92-1.76,3.92-3.92ZM48,26.12c0-.97-.78-1.75-1.75-1.75s-1.75.78-1.75,1.75v3.16h-7v-.42c.23-.12.43-.28.6-.49l3.89-5.09h2.33c.97,0,1.75-.78,1.75-1.75s-.78-1.75-1.75-1.75h-4.05l-2.76,3.61v-2.69h-6.39v1.62h-2.5v-1.62H9.38v1.62h-2.5v-1.62H0v11.6h2.14v8.56h3.91c-.09-.59-.16-1.2-.16-1.82,0-2.64.91-5.06,2.4-7,.15-.19.3-.38.46-.57.14-.16.29-.31.43-.46.15-.15.3-.3.45-.44.18-.16.37-.32.56-.47,1.95-1.57,4.4-2.53,7.09-2.53s5.14.96,7.09,2.53c.19.15.38.31.56.47.15.14.3.29.45.44.15.15.29.3.43.46.16.18.31.37.46.57,1.5,1.94,2.4,4.36,2.4,7,0,.62-.06,1.23-.16,1.82h3.28l4.53-8.06h11.67v-6.67ZM6.89,16.33h2.5v1.86h19.22v-1.86h2.5v1.86h6.39V3.76c0-2.07-1.68-3.76-3.75-3.76H3.75C1.68,0,0,1.68,0,3.76v14.44h6.89v-1.86Z"/>
  </g>
</svg>