<?xml version="1.0" encoding="UTF-8"?>
<svg id="Ebene_2" xmlns="http://www.w3.org/2000/svg" viewBox="0 0 64 64">
  <defs>
    <style>
      .cls-1 {
        fill: #1e1e1c;
      }
    </style>
  </defs>
  <g id="_x33_219">
    <path class="cls-1" d="M64,39.85v7.44c0,.76-.62,1.38-1.38,1.38s-1.38-.62-1.38-1.38v-4.69h-4.81s-1.26,0-1.26,0l-5.84,10.68h-4.09v-1.81c0-9.67-7.83-17.54-17.44-17.54s-17.43,7.87-17.43,17.54l.03,1.81H0v-12.04h0v-1.7h6.6l2.86-.03.41-.47c4.55-5.26,11.14-8.27,18.06-8.27s13.78,3.14,18.35,8.62l.38.46h9.78s0,0,0,0h7.56ZM27.93,28.02c7.7,0,14.96,3.31,20.04,9.11l8.47-.04V0H0v36.8l8.2-.02c5.06-5.57,12.21-8.76,19.72-8.76ZM27.86,48.1c-1.83,0-3.31,1.47-3.31,3.29s1.49,3.29,3.31,3.29,3.31-1.47,3.31-3.29-1.49-3.29-3.31-3.29ZM40.48,51.38c0,6.96-5.66,12.62-12.62,12.62s-12.62-5.66-12.62-12.62,5.66-12.62,12.62-12.62,12.62,5.66,12.62,12.62ZM33.93,51.38c0-3.33-2.72-6.04-6.06-6.04s-6.06,2.71-6.06,6.04,2.72,6.04,6.06,6.04,6.06-2.71,6.06-6.04Z"/>
  </g>
</svg>