<?xml version="1.0" encoding="UTF-8"?>
<svg id="Ebene_2" xmlns="http://www.w3.org/2000/svg" viewBox="0 0 64 64">
  <defs>
    <style>
      .cls-1 {
        fill: #1e1e1c;
      }
    </style>
  </defs>
  <g id="_x33_219">
    <path class="cls-1" d="M24.79,45.97c-2.74,0-4.98,2.23-4.98,4.98s2.23,4.98,4.98,4.98,4.98-2.23,4.98-4.98-2.23-4.98-4.98-4.98ZM24.79,53.17c-1.23,0-2.23-1-2.23-2.23s1-2.23,2.23-2.23,2.23,1,2.23,2.23-1,2.23-2.23,2.23ZM64,34.8c0-.76-.62-1.38-1.38-1.38s-1.38.62-1.38,1.38v5.17h-11.24v-2.46c.12-.08.23-.17.33-.3l5.48-7.15h3.58c.76,0,1.38-.62,1.38-1.38s-.62-1.38-1.38-1.38h-4.94l-4.45,5.81V4.13c0-2.28-1.85-4.13-4.13-4.13H4.13C1.85,0,0,1.85,0,4.13v38.6h1.95v11.57h10.3c1.48,5.57,6.53,9.7,12.53,9.7s11.05-4.12,12.53-9.7h5.12l6.51-11.57h1.05s13.99,0,13.99,0v-7.92ZM43.02,39.97s-.05,0-.08,0h-11.14c-2.03-1.32-4.43-2.09-7.02-2.09s-4.99.77-7.02,2.09H2.75v-12.7h7v2.44h2.75v-2.44h26.22v2.44h2.75v-2.44h5.78v12.69h-4.24ZM4.13,2.75h41.75c.76,0,1.38.62,1.38,1.38v20.4h-5.78v-2.78h-2.75v2.78H12.5v-2.78h-2.75v2.78H2.75V4.13c0-.76.62-1.38,1.38-1.38ZM4.7,51.55v-8.66h9.88c-1.74,2.22-2.78,5.01-2.78,8.05,0,.2.02.4.03.61h-7.13ZM24.79,61.25c-5.64,0-10.23-4.62-10.23-10.3s4.59-10.3,10.23-10.3,10.23,4.62,10.23,10.3-4.59,10.3-10.23,10.3ZM40.83,51.55h-3.1c0-.2.03-.4.03-.61,0-3.04-1.05-5.83-2.78-8.05h10.72l-4.87,8.66Z"/>
  </g>
</svg>