<?xml version="1.0" encoding="UTF-8"?>
<svg id="Ebene_2" xmlns="http://www.w3.org/2000/svg" viewBox="0 0 32 32">
  <defs>
    <style>
      .cls-1 {
        fill: #1e1e1c;
      }
    </style>
  </defs>
  <g id="_x33_219">
    <path class="cls-1" d="M16.08,20.87c1.1,0,2-.9,2-2v-9c0-1.1-.9-2-2-2h-6c-1.1,0-2,.9-2,2v9c0,1.1.9,2,2,2h6ZM14.14,9.86h1.94v9s-1.94,0-1.94,0v-9ZM10.08,9.86h2.06v9h-2.06v-9ZM27.03,27.13h1.3c2.02,0,3.66-1.64,3.67-3.67l-.05-10.38c-.02-4.39-3.61-7.96-8-7.96h-11.51l-2.03-3.12h21.55V0H0v2h6.42l-2.03,3.12H0v2h20.26v7.37c0,1.38,1.12,2.5,2.5,2.5h7.21l.02,4.73H0v2h29.97c-.12.8-.81,1.41-1.64,1.41h-1.15s-1,0-1,0c-1.14,0-2.07,0-2.84,0h-5.15s-1,0-1,0c-1.14,0-2.07,0-2.84,0H3.8s-1,0-1,0c-1.13,0-2.05,0-2.8,0v2h1.51c-.32.51-.88.84-1.51.88v4h31.96v-2h-8.51c1.72-.07,3.15-1.27,3.58-2.87ZM6.78,5.12l1.64-2.52,1.64,2.52h-3.28ZM29.86,14.99h-7.1c-.28,0-.5-.22-.5-.5v-7.31h1.6c3.31,0,6,2.69,6,6v1.81ZM.08,30c1.72-.07,3.15-1.27,3.58-2.87h6.91c.43,1.61,1.86,2.8,3.58,2.87H.08ZM12.71,27.13h3.2c-.33.53-.93.89-1.6.89s-1.26-.36-1.6-.89ZM14.47,30c1.72-.07,3.15-1.27,3.58-2.87h1.5c.43,1.61,1.86,2.8,3.58,2.87h-8.66ZM21.69,27.13h3.2c-.33.53-.93.89-1.6.89s-1.26-.36-1.6-.89ZM3.98,16.02H0v-2h3.98v-4H0v-2h3.98c1.1,0,2,.9,2,2v4c0,1.1-.9,2-2,2Z"/>
  </g>
</svg>