<?xml version="1.0" encoding="UTF-8"?>
<svg id="Ebene_2" xmlns="http://www.w3.org/2000/svg" viewBox="0 0 48 48">
  <defs>
    <style>
      .cls-1 {
        fill: #1e1e1c;
      }
    </style>
  </defs>
  <g id="_x33_219">
    <path class="cls-1" d="M47.92,20.91c-.03-6.71-5.53-12.18-12.25-12.18h-17l-3.76-6.24h33.06V0H0v2.5h10.61l-3.76,6.24H0v2.5h31.01v11.33c0,1.93,1.57,3.5,3.5,3.5h10.93l.04,8.18H0v2.5h45.37c-.34,1.13-1.38,1.96-2.62,1.96H0s0,0,0,0v2.5c.07,0,2.82,0,2.82,0-.48,1.08-1.56,1.83-2.82,1.83,0,0,0,0,0,0v2.48h0v2.5h47.97v-2.5h-12.51c2.47-.17,4.51-1.95,5.05-4.31h2.24c2.62,0,4.78-1.94,5.17-4.46h.06v-.54c0-.08.03-.16.03-.25l-.08-15.05ZM9.77,8.73l2.99-4.96,2.99,4.96h-5.98ZM45.42,23.56h-10.9c-.55,0-1-.45-1-1v-11.21h2.15c5.37,0,9.75,4.37,9.75,9.74v2.47ZM.39,45.5c2.47-.17,4.51-1.95,5.05-4.31h10.72c.54,2.35,2.58,4.14,5.05,4.31H.39ZM18.78,41.2h5.64c-.48,1.08-1.56,1.83-2.82,1.83s-2.34-.75-2.82-1.83ZM21.99,45.5c2.47-.17,4.51-1.95,5.05-4.31h2.6c.54,2.35,2.58,4.14,5.05,4.31h-12.7ZM35.08,43.03c-1.25,0-2.34-.75-2.82-1.83h5.64c-.48,1.08-1.56,1.83-2.82,1.83ZM23.76,33.13c1.79,0,3.25-1.46,3.25-3.25v-13.98c0-1.79-1.46-3.25-3.25-3.25h-8c-1.79,0-3.25,1.46-3.25,3.25v13.98c0,1.79,1.46,3.25,3.25,3.25h8ZM20.96,15.15h2.8c.41,0,.75.34.75.75v13.98c0,.41-.34.75-.75.75h-2.8v-15.48ZM15.01,29.88v-13.98c0-.41.34-.75.75-.75h2.7v15.48h-2.7c-.41,0-.75-.34-.75-.75ZM.24,24.14c-.08,0-.16-.02-.24-.02v-2.52c.08.03.15.05.24.05h5c.41,0,.75-.34.75-.75v-4.99c0-.41-.34-.75-.75-.75H.24c-.08,0-.16.02-.24.05v-2.52c.08,0,.16-.02.24-.02h5c1.79,0,3.25,1.46,3.25,3.25v4.99c0,1.79-1.46,3.25-3.25,3.25H.24Z"/>
  </g>
</svg>