<?xml version="1.0" encoding="UTF-8"?>
<svg id="Ebene_2" xmlns="http://www.w3.org/2000/svg" viewBox="0 0 40 40">
  <defs>
    <style>
      .cls-1 {
        fill: #1e1e1c;
      }
    </style>
  </defs>
  <g id="_x33_219">
    <path class="cls-1" d="M17.91,37.75h22.07v2.25H0v-2.25h17.91ZM12.38,26.89c-1.17,0-2.12-.95-2.12-2.13v-12.51c0-1.17.95-2.13,2.12-2.13h8c1.17,0,2.12.95,2.12,2.13v12.51c0,1.17-.95,2.13-2.12,2.13h-8ZM17.47,24.64h2.79v-12.26h-2.79v12.26ZM12.51,24.64h2.71v-12.26h-2.71v12.26ZM40,29.68s-.01.08-.01.12v.39h-.04c-.26,2.22-2.13,3.95-4.41,3.95h-1.81c-.51,2.07-2.37,3.61-4.59,3.61s-4.08-1.54-4.59-3.61h-2.06c-.51,2.07-2.37,3.61-4.59,3.61s-4.08-1.54-4.59-3.61H4.5c-.5,2.04-2.31,3.56-4.49,3.6v-2.26c.92-.04,1.72-.57,2.12-1.35H.09s-.06,0-.08,0v-2.25c.95,0,2.1,0,3.52,0h1.12s12.76,0,12.76,0c1.05,0,2.38,0,4.11,0h1.12s4.16,0,4.16,0c.6,0,1.35,0,2.34,0h4.74s1.66,0,1.66,0c1.04,0,1.91-.73,2.14-1.7H0v-2.25h37.73l-.03-6.48h-9.13c-1.65,0-3-1.35-3-3v-9.33H0v-2.25h5.57l2.85-4.63H0V0h39.98v2.25H12.68l2.85,4.63h14.54c5.42,0,9.85,4.41,9.87,9.83l.06,12.97ZM12.88,6.88l-2.33-3.79-2.33,3.79h4.66ZM37.57,16.82c0-4.21-3.42-7.63-7.62-7.63h-2.12v9.27c0,.41.34.75.75.75h9v-2.39ZM20.13,34.14h-4.43c.41.81,1.25,1.36,2.21,1.36s1.8-.55,2.22-1.36ZM31.36,34.14h-4.43c.41.81,1.25,1.36,2.21,1.36s1.8-.55,2.21-1.36ZM7.48,17.81v-5.5c0-1.17-.95-2.13-2.12-2.13H0v2.25h5.22v5.25H0v2.25h5.34c1.17,0,2.12-.95,2.12-2.13Z"/>
  </g>
</svg>