<?xml version="1.0" encoding="UTF-8"?>
<svg id="Ebene_2" xmlns="http://www.w3.org/2000/svg" viewBox="0 0 64 64">
  <defs>
    <style>
      .cls-1 {
        fill: #1e1e1c;
      }
    </style>
  </defs>
  <g id="_x33_219">
    <path class="cls-1" d="M24.81,51.87c0,1.23-1,2.23-2.23,2.23s-2.23-1-2.23-2.23,1-2.23,2.23-2.23,2.23,1,2.23,2.23ZM34.63,51.87c0,6.69-5.4,12.13-12.05,12.13s-12.05-5.44-12.05-12.13c0-3.64,1.61-6.89,4.13-9.12h0s0,0,0,0c.25-.22.51-.43.77-.62.03-.02.06-.04.08-.06.25-.18.5-.35.76-.51.06-.04.11-.07.17-.11.24-.14.49-.28.74-.41.09-.05.18-.09.27-.13.23-.11.46-.21.7-.31.13-.05.25-.09.38-.14.21-.08.43-.15.65-.22.17-.05.34-.09.51-.13.19-.05.38-.1.58-.14.22-.04.45-.07.68-.1.15-.02.3-.05.45-.06.39-.04.78-.06,1.17-.06s.79.02,1.17.06c.15.02.3.04.45.06.23.03.45.06.68.1.2.04.39.09.58.14.17.04.34.08.51.13.22.07.43.14.65.22.13.05.25.09.38.14.24.09.47.2.7.31.09.04.18.09.27.13.25.13.5.26.74.41.06.03.11.07.17.11.26.16.51.33.76.51.03.02.06.04.08.06.27.2.53.41.77.63h0c2.53,2.22,4.13,5.48,4.13,9.12ZM27.57,51.87c0-2.75-2.23-4.98-4.98-4.98s-4.98,2.23-4.98,4.98,2.23,4.98,4.98,4.98,4.98-2.23,4.98-4.98ZM64,34.82c0-1.11-.9-2-2-2s-2,.9-2,2v4.55h-9.97v-1.13c.31-.13.6-.33.82-.62l5.29-6.91h3.27c1.11,0,2-.9,2-2s-.9-2-2-2h-5.25l-4.14,5.41v-4.81h-8.53v2.44h-2.75v-2.44H12.51v2.44h-2.75v-2.44H0v15.46h1.95v11.58h6.06c-.13-.8-.22-1.62-.22-2.46,0-3.49,1.21-6.69,3.22-9.22.2-.25.41-.48.63-.72.16-.18.32-.37.49-.54.19-.19.4-.37.6-.55.21-.19.43-.39.65-.57,2.53-2.04,5.73-3.27,9.21-3.27s6.68,1.23,9.21,3.27c.23.18.44.38.65.57.2.18.41.36.6.55.17.17.33.36.49.54.21.24.43.47.63.72,2.01,2.54,3.22,5.74,3.22,9.22,0,.84-.09,1.66-.22,2.46h5.3l6.17-10.96h15.37v-8.55ZM9.76,21.76h2.75v2.78h26.23v-2.78h2.75v2.78h8.53V4.13c0-2.28-1.85-4.13-4.13-4.13H4.13C1.85,0,0,1.85,0,4.13v20.41h9.76v-2.78Z"/>
  </g>
</svg>