<?xml version="1.0" encoding="UTF-8"?>
<svg id="Ebene_2" xmlns="http://www.w3.org/2000/svg" viewBox="0 0 40 30.08">
  <defs>
    <style>
      .cls-1 {
        fill: #1e1e1c;
      }
    </style>
  </defs>
  <g id="_x33_219">
    <path class="cls-1" d="M12.96,22.9c.56.75.91,1.67.91,2.68,0,2.49-2.02,4.5-4.5,4.5s-4.5-2.01-4.5-4.5c0-1.01.34-1.93.91-2.68,0-.01.02-.02.03-.04.15-.2.32-.39.5-.56.04-.04.08-.06.12-.1.16-.14.33-.28.52-.4.08-.05.18-.09.27-.14.15-.08.3-.17.47-.24.15-.06.3-.1.45-.14.12-.03.24-.08.36-.11.28-.06.57-.09.87-.09,0,0,0,0,.01,0s0,0,.01,0c.3,0,.59.03.87.09.12.02.24.07.36.11.15.04.31.08.45.14.16.07.31.16.47.24.09.05.18.09.27.14.18.12.35.26.51.4.04.03.08.06.12.1.18.17.35.36.5.56,0,.01.02.02.03.04ZM19.27,6.89h-10.36v3.89h10.36v-3.89ZM40,11.52v10.32c0,1.49-.98,2.75-2.33,3.2-.29-4.15-3.75-7.45-7.98-7.45s-7.79,3.39-7.99,7.63h-4.36c-.19-4.24-3.7-7.63-7.99-7.63s-7.79,3.39-7.99,7.63H0V0h30.45l9.55,11.52ZM22.77,3.39H5.41v10.89h17.36V3.39ZM37.87,14.52L28.3,3.04v8.14c0,1.85,1.5,3.34,3.34,3.34h6.23ZM33.26,22.87c-.15-.2-.32-.39-.5-.56-.04-.04-.08-.07-.12-.1-.16-.14-.33-.28-.51-.4-.08-.05-.18-.09-.27-.14-.15-.08-.3-.17-.47-.24-.15-.06-.3-.1-.45-.14-.12-.03-.24-.08-.36-.11-.28-.06-.57-.09-.87-.09,0,0,0,0-.01,0s0,0-.01,0c-.3,0-.59.03-.87.09-.12.02-.24.07-.36.11-.15.04-.31.08-.45.14-.16.07-.31.16-.47.24-.09.05-.18.09-.27.14-.18.12-.35.26-.52.4-.04.03-.08.06-.12.1-.18.17-.35.36-.5.56,0,.01-.02.02-.03.04-.56.75-.91,1.67-.91,2.68,0,2.49,2.02,4.5,4.5,4.5s4.5-2.01,4.5-4.5c0-1.01-.34-1.93-.91-2.68,0-.01-.02-.02-.03-.04Z"/>
  </g>
</svg>