<?xml version="1.0" encoding="UTF-8"?>
<svg id="Ebene_2" xmlns="http://www.w3.org/2000/svg" viewBox="0 0 40 40">
  <defs>
    <style>
      .cls-1 {
        fill: #1e1e1c;
      }
    </style>
  </defs>
  <g id="_x33_219">
    <path class="cls-1" d="M12.02,22.73c-2.43,1.39-5.33,2.67-8.83,3.76l-.67-2.15c3.05-.95,5.61-2.05,7.78-3.23-5.18-5.49-5.89-12.46-5.9-12.56l2.24-.2c.03.37.7,6.76,5.62,11.61,8.73-5.58,9.54-12.47,9.52-14.94H0v-2.25h12.09V0h2.25v2.77h15.13v2.25h-5.45c0,2.97-1.01,10.44-9.99,16.46,1.55,1.16,3.41,2.16,5.67,2.86l-.67,2.15c-2.85-.88-5.15-2.22-7.01-3.76ZM34.23,32.23h-11.39l-3.72,7.77-2.03-.97,11.41-23.86,11.49,23.85-2.03.98-3.74-7.77ZM33.14,29.98l-4.63-9.61-4.6,9.61h9.23Z"/>
  </g>
</svg>