<?xml version="1.0" encoding="UTF-8"?>
<svg id="Ebene_2" xmlns="http://www.w3.org/2000/svg" viewBox="0 0 24 17.92">
  <defs>
    <style>
      .cls-1 {
        fill: #1e1e1c;
      }
    </style>
  </defs>
  <g id="_x33_219">
    <path class="cls-1" d="M18.47.26l-.22-.26H0v15.27h2.98c.25,1.5,1.55,2.65,3.13,2.65s2.87-1.15,3.13-2.65h4.98c.25,1.5,1.55,2.65,3.13,2.65s2.87-1.15,3.13-2.65h.9c1.45,0,2.63-1.18,2.63-2.62v-5.73L18.47.26ZM21.24,6.36h-2.96c-.07,0-.13-.06-.13-.12v-3.61l3.08,3.73ZM6.1,16.17c-.79,0-1.43-.64-1.43-1.42s.64-1.42,1.43-1.42,1.43.64,1.43,1.42-.64,1.42-1.43,1.42ZM17.34,16.17c-.79,0-1.43-.64-1.43-1.42s.64-1.42,1.43-1.42,1.43.64,1.43,1.42-.64,1.42-1.43,1.42ZM21.37,13.52h-1.1c-.48-1.14-1.61-1.95-2.93-1.95s-2.45.81-2.93,1.95h-5.37c-.48-1.14-1.61-1.95-2.93-1.95s-2.45.81-2.93,1.95h-1.42V1.75h14.65v4.48c0,1.03.84,1.88,1.88,1.88h3.97v4.54c0,.48-.39.88-.88.88ZM4.09,9.47h9.92V3.37H4.09v6.1ZM5.84,5.12h6.41v2.6h-6.41v-2.6Z"/>
  </g>
</svg>