<?xml version="1.0" encoding="UTF-8"?>
<svg id="Ebene_2" xmlns="http://www.w3.org/2000/svg" viewBox="0 0 64 64">
  <defs>
    <style>
      .cls-1 {
        fill: #1e1e1c;
      }
    </style>
  </defs>
  <g id="_x33_219">
    <path class="cls-1" d="M19.27,35.85c-3.91,2.26-8.62,4.35-14.31,6.12l-.82-2.62c5.15-1.61,9.44-3.46,13.04-5.44C8.63,25.18,7.48,13.81,7.46,13.65l2.74-.25c.06.6,1.16,11.19,9.39,19.1,15.1-9.41,15.86-21.18,15.69-24.9H0v-2.75h19.77V0h2.75v4.85h24.63v2.75h-9.15c.08,4.37-1.14,16.84-16.28,26.74,2.6,2.04,5.77,3.8,9.66,5l-.81,2.63c-4.62-1.43-8.32-3.6-11.29-6.12ZM55.42,51.33h-18.75l-6.06,12.67-2.48-1.19,17.88-37.36,18,37.36-2.48,1.19-6.1-12.67ZM54.09,48.58l-8.09-16.78-8.03,16.78h16.11Z"/>
  </g>
</svg>