<?xml version="1.0" encoding="UTF-8"?>
<svg id="Ebene_2" xmlns="http://www.w3.org/2000/svg" viewBox="0 0 40 29.65">
  <defs>
    <style>
      .cls-1 {
        fill: #1e1e1c;
      }
    </style>
  </defs>
  <g id="_x33_219">
    <path class="cls-1" d="M30.88.52l-.43-.52H0v25.16h4.39c.27,2.52,2.39,4.49,4.98,4.49s4.71-1.97,4.98-4.49h10.36c.27,2.52,2.39,4.49,4.98,4.49s4.71-1.97,4.98-4.49h1.94c1.87,0,3.38-1.51,3.38-3.38v-10.3L30.88.52ZM36.44,10.77h-5.47c-.48,0-.88-.39-.88-.88V3.1l6.35,7.67ZM9.37,27.4c-1.53,0-2.78-1.24-2.78-2.77s1.25-2.77,2.78-2.77,2.78,1.24,2.78,2.77-1.25,2.77-2.78,2.77ZM29.69,27.4c-1.53,0-2.78-1.24-2.78-2.77s1.25-2.77,2.78-2.77,2.78,1.24,2.78,2.77-1.25,2.77-2.78,2.77ZM36.62,22.91h-2.21c-.71-1.92-2.54-3.31-4.71-3.31s-4.01,1.38-4.71,3.31h-10.9c-.71-1.92-2.54-3.31-4.71-3.31s-4.01,1.38-4.71,3.31h-2.4V2.25h25.57v7.65c0,1.72,1.41,3.12,3.13,3.12h6.78v8.77c0,.62-.51,1.12-1.13,1.12ZM6.94,15.34h16.11V5.72H6.94v9.62ZM9.19,7.97h11.6v5.12h-11.6v-5.12Z"/>
  </g>
</svg>