<?xml version="1.0" encoding="UTF-8"?>
<svg id="Ebene_2" xmlns="http://www.w3.org/2000/svg" viewBox="0 0 40 40">
  <defs>
    <style>
      .cls-1 {
        fill: #1e1e1c;
      }
    </style>
  </defs>
  <g id="_x33_219">
    <path class="cls-1" d="M11.42,23.76c-2.27,1.23-4.94,2.37-8.09,3.36l-1.19-3.82c2.38-.74,4.44-1.57,6.23-2.46C3.96,15.6,3.34,9.48,3.3,9.1l1.99-.18,1.99-.18c.03.32.61,5.71,4.62,10.05,6.6-4.46,7.87-9.63,8.05-12.24H0V2.54h10.68V0h4v2.54h13.59v4h-4.31c-.17,3.32-1.55,9.58-8.84,14.9,1.17.73,2.5,1.37,4.04,1.85l-1.18,3.82c-2.63-.81-4.78-1.99-6.55-3.36ZM33.06,33.06h-9.76l-3.31,6.93-3.61-1.73,11.77-24.64,11.85,24.63-3.6,1.74-3.34-6.94ZM31.13,29.06l-2.97-6.17-2.95,6.17h5.92Z"/>
  </g>
</svg>