<?xml version="1.0" encoding="UTF-8"?>
<svg id="Ebene_2" xmlns="http://www.w3.org/2000/svg" viewBox="0 0 32 24.21">
  <defs>
    <style>
      .cls-1 {
        fill: #1e1e1c;
      }
    </style>
  </defs>
  <g id="_x33_219">
    <path class="cls-1" d="M25.85,20.26c.02.15.05.3.05.45,0,1.93-1.57,3.5-3.5,3.5s-3.5-1.57-3.5-3.5c0-.16.03-.3.05-.45h0s0,0,0,0c.03-.21.07-.42.14-.61,0,0,0-.01,0-.02.06-.19.14-.37.23-.54,0-.02.02-.04.03-.05.09-.16.19-.31.3-.45.02-.03.05-.06.08-.09.1-.12.21-.24.33-.35.05-.04.1-.08.15-.13.11-.09.22-.17.33-.25.08-.05.17-.09.25-.14.1-.05.2-.11.31-.15.12-.05.25-.08.37-.12.08-.02.16-.05.25-.07.22-.04.44-.07.68-.07s.46.02.68.07c.09.02.17.05.25.07.13.04.25.07.37.12.11.04.21.1.31.15.08.04.17.09.25.14.12.07.23.16.33.25.05.04.1.08.15.13.12.11.23.23.33.35.03.03.05.06.08.09.11.14.21.29.3.45,0,.02.02.04.03.05.09.17.17.35.23.54,0,0,0,.01,0,.02.06.2.11.4.14.61,0,0,0,0,0,0h0ZM10.89,20.26s0,0,0,0c-.03-.21-.07-.42-.14-.61,0,0,0-.01,0-.02-.06-.19-.14-.37-.23-.54,0-.02-.02-.04-.03-.05-.09-.16-.19-.31-.3-.45-.02-.03-.05-.06-.08-.09-.1-.12-.21-.24-.33-.35-.05-.04-.1-.08-.15-.13-.11-.09-.22-.17-.33-.25-.08-.05-.17-.09-.25-.14-.1-.05-.2-.11-.31-.15-.12-.05-.25-.08-.37-.12-.08-.02-.16-.05-.25-.07-.22-.04-.44-.07-.68-.07s-.46.02-.68.07c-.09.02-.17.05-.25.07-.13.04-.25.07-.37.12-.11.04-.21.1-.31.15-.08.04-.17.09-.25.14-.12.07-.23.16-.33.25-.05.04-.1.08-.15.13-.12.11-.23.23-.33.35-.03.03-.05.06-.08.09-.11.14-.21.29-.3.45,0,.02-.02.04-.03.05-.09.17-.17.35-.23.54,0,0,0,.01,0,.02-.06.2-.11.4-.14.61,0,0,0,0,0,0h0c-.02.15-.05.3-.05.45,0,1.93,1.57,3.5,3.5,3.5s3.5-1.57,3.5-3.5c0-.16-.03-.3-.05-.45h0ZM15.05,5.98H7.03v2.87h8.01v-2.87ZM32,9.22v8.04c0,1.65-1.35,3-3,3h-.13c-.23-3.37-3.05-6.05-6.48-6.05s-6.24,2.67-6.48,6.05h-2c-.23-3.37-3.05-6.05-6.48-6.05s-6.24,2.67-6.48,6.05h-.96V0h24.35l7.65,9.22ZM18.05,2.98H4.03v8.87h14.01V2.98ZM30.12,12.2l-7.85-9.42v6.68c0,1.51,1.23,2.74,2.74,2.74h5.11Z"/>
  </g>
</svg>