<?xml version="1.0" encoding="UTF-8"?>
<svg id="Ebene_2" xmlns="http://www.w3.org/2000/svg" viewBox="0 0 16 12.05">
  <defs>
    <style>
      .cls-1 {
        fill: #1e1e1c;
      }
    </style>
  </defs>
  <g id="_x33_219">
    <path class="cls-1" d="M12.38.27l-.22-.27H0v10.32h1.97c.24.99,1.12,1.73,2.18,1.73s1.95-.74,2.18-1.73h2.96c.24.99,1.12,1.73,2.18,1.73s1.95-.74,2.18-1.73h.08c1.24,0,2.25-1.01,2.25-2.25v-3.44L12.38.27ZM13.64,4.15h-1.45v-1.75l1.45,1.75ZM4.16,10.55c-.41,0-.75-.34-.75-.75s.34-.75.75-.75.75.34.75.75-.34.75-.75.75ZM11.48,10.55c-.41,0-.75-.34-.75-.75s.34-.75.75-.75.75.34.75.75-.34.75-.75.75ZM13.75,8.82h-.25c-.37-.75-1.13-1.27-2.02-1.27s-1.65.52-2.02,1.27h-3.29c-.37-.75-1.13-1.27-2.02-1.27s-1.65.52-2.02,1.27h-.64V1.5h9.19v2.9c0,.69.56,1.25,1.25,1.25h2.56v2.42c0,.41-.34.75-.75.75ZM2.67,6.54h6.82V2.2H2.67v4.34ZM4.17,3.7h3.82v1.34h-3.82v-1.34Z"/>
  </g>
</svg>