<?xml version="1.0" encoding="UTF-8"?>
<svg id="Ebene_2" xmlns="http://www.w3.org/2000/svg" viewBox="0 0 32 23.84">
  <defs>
    <style>
      .cls-1 {
        fill: #1e1e1c;
      }
    </style>
  </defs>
  <g id="_x33_219">
    <path class="cls-1" d="M24.35,0H0v20.26h3.5c.26,2.01,1.97,3.58,4.05,3.58s3.79-1.56,4.05-3.58h8.05c.26,2.01,1.97,3.58,4.05,3.58s3.79-1.56,4.05-3.58h1.24c1.65,0,3-1.35,3-3v-8.04L24.35,0ZM28.85,8.58h-4.23c-.28,0-.5-.22-.5-.5V2.86l4.73,5.73ZM7.55,21.84c-1.16,0-2.11-.95-2.11-2.11s.95-2.11,2.11-2.11,2.11.95,2.11,2.11-.94,2.11-2.11,2.11ZM23.7,21.84c-1.16,0-2.11-.95-2.11-2.11s.95-2.11,2.11-2.11,2.11.95,2.11,2.11-.95,2.11-2.11,2.11ZM29,18.26h-1.47c-.59-1.54-2.08-2.64-3.82-2.64s-3.23,1.1-3.82,2.64h-8.51c-.59-1.54-2.08-2.64-3.82-2.64s-3.23,1.1-3.82,2.64h-1.73V2h20.12v6.08c0,1.38,1.12,2.5,2.5,2.5h5.38v6.68c0,.55-.45,1-1,1ZM5.52,12.43h13.01v-7.87H5.52v7.87ZM7.52,6.56h9.01v3.87H7.52v-3.87Z"/>
  </g>
</svg>