<?xml version="1.0" encoding="UTF-8"?>
<svg id="Ebene_2" xmlns="http://www.w3.org/2000/svg" viewBox="0 0 48 48">
  <defs>
    <style>
      .cls-1 {
        fill: #1e1e1c;
      }
    </style>
  </defs>
  <g id="_x33_219">
    <path class="cls-1" d="M14.43,27.14c-2.92,1.67-6.42,3.22-10.64,4.53l-.74-2.39c3.72-1.16,6.84-2.5,9.47-3.94-6.27-6.57-7.12-14.98-7.13-15.09l2.49-.23c.04.44.85,8.19,6.83,14.04,10.7-6.8,11.58-15.24,11.53-18.15H0v-2.5h14.61V0h2.5v3.42h18.25v2.5h-6.64c.01,3.48-1.11,12.55-12.06,19.84,1.89,1.44,4.17,2.67,6.94,3.53l-.74,2.39c-3.44-1.06-6.2-2.67-8.43-4.53ZM41.23,38.63h-13.79l-4.49,9.37-2.26-1.08,13.6-28.42,13.7,28.42-2.25,1.08-4.52-9.37ZM40.02,36.13l-5.72-11.85-5.67,11.85h11.39Z"/>
  </g>
</svg>