<?xml version="1.0" encoding="UTF-8"?>
<svg id="Ebene_2" xmlns="http://www.w3.org/2000/svg" viewBox="0 0 32 32">
  <defs>
    <style>
      .cls-1 {
        fill: #1e1e1c;
      }
    </style>
  </defs>
  <g id="_x33_219">
    <path class="cls-1" d="M30.25,6.39h-5v-2.64c0-2.07-1.63-3.75-3.62-3.75h-11.25c-2,0-3.62,1.68-3.62,3.75v2.64H1.75c-.97,0-1.75.78-1.75,1.75s.78,1.75,1.75,1.75h3.25v20.11c0,1.1.94,2,2.1,2h17.81c1.16,0,2.1-.9,2.1-2V9.89h3.25c.97,0,1.75-.78,1.75-1.75s-.78-1.75-1.75-1.75ZM13.02,27.2c-.55,0-1-.45-1-1v-12.5c0-.55.44-1,1-1s1,.45,1,1v12.5c0,.55-.44,1-1,1ZM19,27.2c-.55,0-1-.45-1-1v-12.5c0-.55.44-1,1-1s1,.45,1,1v12.5c0,.55-.44,1-1,1ZM10.25,3.75c0-.17.1-.25.12-.25h11.25s.12.08.12.25v2.64h-11.5v-2.64Z"/>
  </g>
</svg>