<?xml version="1.0" encoding="UTF-8"?>
<svg id="Ebene_2" xmlns="http://www.w3.org/2000/svg" viewBox="0 0 48 48">
  <defs>
    <style>
      .cls-1 {
        fill: #1e1e1c;
      }
    </style>
  </defs>
  <g id="_x33_219">
    <path class="cls-1" d="M45.75,8.21h-8.5v-3.46c0-2.62-2.04-4.75-4.54-4.75H15.29c-2.5,0-4.54,2.13-4.54,4.75v3.46H2.25c-1.24,0-2.25,1.01-2.25,2.25s1.01,2.25,2.25,2.25h5.25v32.78c0,1.38,1.22,2.5,2.74,2.5h27.49c1.52,0,2.75-1.12,2.75-2.5V12.72h5.27c1.24,0,2.25-1.01,2.25-2.25s-1.01-2.25-2.25-2.25ZM16.5,41c-.69,0-1.25-.56-1.25-1.25v-21.02c0-.69.55-1.25,1.24-1.25s1.25.56,1.25,1.25v21.02c0,.69-.55,1.25-1.24,1.25ZM24.03,41c-.69,0-1.25-.56-1.25-1.25v-21.02c0-.69.55-1.25,1.24-1.25s1.25.56,1.25,1.25v21.02c0,.69-.55,1.25-1.24,1.25ZM31.48,41c-.69,0-1.25-.56-1.25-1.25v-21.02c0-.69.55-1.25,1.24-1.25s1.25.56,1.25,1.25v21.02c0,.69-.55,1.25-1.24,1.25ZM15.25,4.75c0-.16.08-.25.04-.25h17.36s.1.08.1.25v3.46H15.25v-3.46Z"/>
  </g>
</svg>