<?xml version="1.0" encoding="UTF-8"?>
<svg id="Ebene_2" xmlns="http://www.w3.org/2000/svg" viewBox="0 0 16 16">
  <defs>
    <style>
      .cls-1 {
        fill: #1e1e1c;
      }
    </style>
  </defs>
  <g id="_x33_219">
    <path class="cls-1" d="M14.75,3.95h-2.5v-1.7c0-1.24-1.01-2.25-2.25-2.25h-4.01c-1.24,0-2.25,1.01-2.25,2.25v1.7H1.25c-.69,0-1.25.56-1.25,1.25s.56,1.25,1.25,1.25h1.24v8.55c0,.55.41,1,.92,1h9.17c.51,0,.92-.45.92-1V6.45h1.25c.69,0,1.25-.56,1.25-1.25s-.56-1.25-1.25-1.25ZM6.33,13.56c-.41,0-.75-.34-.75-.75v-5c0-.41.33-.75.75-.75s.75.34.75.75v5c0,.41-.33.75-.75.75ZM9.73,13.56c-.41,0-.75-.34-.75-.75v-5c0-.41.33-.75.75-.75s.75.34.75.75v5c0,.41-.33.75-.75.75ZM6.25,2.5h3.51v1.45h-3.51v-1.45Z"/>
  </g>
</svg>