<?xml version="1.0" encoding="UTF-8"?>
<svg id="Ebene_2" xmlns="http://www.w3.org/2000/svg" viewBox="0 0 48 48">
  <defs>
    <style>
      .cls-1 {
        fill: #1e1e1c;
      }
    </style>
  </defs>
  <g id="_x33_219">
    <path class="cls-1" d="M30.69,38.53v-21.03c0-.69.55-1.25,1.24-1.25s1.25.56,1.25,1.25v21.03c0,.69-.55,1.25-1.24,1.25s-1.25-.56-1.25-1.25ZM48,9.46c0,.69-.56,1.25-1.25,1.25h-5.02v33.54c0,2.07-1.8,3.75-4.01,3.75H10.24c-2.21,0-4-1.68-4-3.75V10.71s-4.99,0-4.99,0c-.69,0-1.25-.56-1.25-1.25s.56-1.25,1.25-1.25h9.49V3.75c0-2.07,1.68-3.75,3.75-3.75h19.01c2.07,0,3.75,1.68,3.75,3.75v4.45h9.5c.69,0,1.25.56,1.25,1.25ZM13.24,8.21h21.51V3.75c0-.69-.56-1.25-1.25-1.25H14.49c-.69,0-1.25.56-1.25,1.25v4.45ZM39.23,10.71H8.75v33.54c0,.69.66,1.25,1.49,1.25h27.49c.83,0,1.5-.56,1.5-1.25V10.71ZM24.49,39.78c.69,0,1.25-.56,1.25-1.25v-21.03c0-.69-.57-1.25-1.26-1.25s-1.25.56-1.25,1.25v21.03c0,.69.57,1.25,1.26,1.25ZM16.97,39.78c.69,0,1.25-.56,1.25-1.25v-21.03c0-.69-.57-1.25-1.26-1.25s-1.25.56-1.25,1.25v21.03c0,.69.57,1.25,1.26,1.25Z"/>
  </g>
</svg>