<?xml version="1.0" encoding="UTF-8"?>
<svg id="Ebene_2" xmlns="http://www.w3.org/2000/svg" viewBox="0 0 64 64">
  <defs>
    <style>
      .cls-1 {
        fill: #1e1e1c;
      }
    </style>
  </defs>
  <g id="_x33_219">
    <path class="cls-1" d="M61.2,18.33c-1.71-1.73-3.98-2.69-6.38-2.69h-25.49v29.26c1.64-.9,3.51-1.41,5.5-1.41,6.36,0,11.53,5.22,11.53,11.63,0,.59-.06,1.16-.14,1.73h12.44c2.93,0,5.32-2.47,5.32-5.5v-25.96c.04-2.69-.95-5.19-2.78-7.05ZM59.83,36.22h-10.87c-1.04,0-1.88-.85-1.88-1.89v-13.87h6.08c3.69,0,6.67,3,6.67,6.7v9.07ZM43.57,56c-.03.29-.07.57-.13.85,0,0,0,0,0,0h0c-.8,4.07-4.36,7.15-8.61,7.15-4.84,0-8.78-3.98-8.78-8.88,0-3.24,1.73-6.07,4.3-7.62.07-.04.14-.09.21-.13.13-.07.27-.14.4-.21.11-.05.21-.11.32-.15.13-.06.25-.11.38-.16.12-.05.25-.1.38-.14.12-.04.24-.08.37-.12.14-.04.29-.08.44-.11.11-.03.23-.05.34-.08.17-.03.35-.06.53-.08.1-.01.19-.03.29-.04.28-.03.56-.04.84-.04,4.84,0,8.78,3.98,8.78,8.87,0,.3-.02.59-.04.88ZM.03,1.51L0,54.05h0v2.75h23.43c-.08-.55-.13-1.11-.13-1.68,0-2.46.77-4.75,2.07-6.63V0H.03v1.51ZM.04,13.87h18.46v29.54H.07v-2.75h15.67v-24.03H.04v-2.75Z"/>
  </g>
</svg>