<?xml version="1.0" encoding="UTF-8"?>
<svg id="Ebene_2" xmlns="http://www.w3.org/2000/svg" viewBox="0 0 24 24">
  <defs>
    <style>
      .cls-1 {
        fill: #1e1e1c;
      }
    </style>
  </defs>
  <g id="_x33_219">
    <path class="cls-1" d="M6.43,7.7c-.58-.59-.58-1.53,0-2.12L12,0l5.57,5.58c.58.59.58,1.53,0,2.12-.29.29-.68.44-1.06.44s-.77-.15-1.06-.44l-1.95-1.96v12h-2.99V5.74l-1.95,1.96c-.58.59-1.53.59-2.12,0ZM21.01,10.67v10.33s-18.01,0-18.01,0v-10.34H0v10.34c0,1.65,1.34,3,3,3h18c1.65,0,3-1.34,3-3v-10.34h-2.99Z"/>
  </g>
</svg>