<?xml version="1.0" encoding="UTF-8"?>
<svg id="Ebene_2" xmlns="http://www.w3.org/2000/svg" viewBox="0 0 24 24">
  <defs>
    <style>
      .cls-1 {
        fill: #1e1e1c;
      }
    </style>
  </defs>
  <g id="_x33_219">
    <path class="cls-1" d="M6.61,6.63c-.34-.34-.34-.9,0-1.24L12,0l5.39,5.4c.34.34.34.9,0,1.24-.17.17-.4.26-.62.26s-.45-.09-.62-.26l-3.28-3.28v14.41h-1.75V3.35l-3.28,3.28c-.34.34-.9.34-1.24,0ZM22.25,10.6v10.94c0,.39-.32.71-.71.71H2.46c-.39,0-.71-.32-.71-.71v-10.94H0v10.94c0,1.36,1.11,2.46,2.46,2.46h19.07c1.36,0,2.46-1.1,2.46-2.46v-10.94h-1.75Z"/>
  </g>
</svg>