<?xml version="1.0" encoding="UTF-8"?>
<svg id="Ebene_2" xmlns="http://www.w3.org/2000/svg" viewBox="0 0 32 32">
  <defs>
    <style>
      .cls-1 {
        fill: #1e1e1c;
      }
    </style>
  </defs>
  <g id="_x33_219">
    <path class="cls-1" d="M30.5,17.06h-1.58v-2.06c0-.99-.49-1.86-1.22-2.41,2.46-.92,4.22-3.3,4.22-6.09,0-3.59-2.91-6.5-6.48-6.5s-6.48,2.92-6.48,6.5c0,.34.03.68.09,1.01h-2.01c-.82-1.13-2.13-1.87-3.62-1.87s-2.81.74-3.62,1.87H3C1.35,7.51,0,8.86,0,10.51v.08h0v5.78h0v12.63c0,1.65,1.34,3,2.99,3h22.93c1.65,0,2.99-1.35,2.99-3v-1.94h1.58c.83,0,1.5-.67,1.5-1.5v-7c0-.83-.67-1.5-1.5-1.5ZM25.44,2c2.48,0,4.49,2.02,4.49,4.5s-2.01,4.5-4.49,4.5-4.49-2.02-4.49-4.5,2.01-4.5,4.49-4.5ZM19.7,9.51c.53,1.02,1.32,1.87,2.29,2.48h-4.52c.26-.57.43-1.19.43-1.85,0-.22-.03-.42-.06-.63h1.87ZM13.4,7.64c1.38,0,2.49,1.12,2.49,2.5,0,.74-.33,1.39-.83,1.85h-3.32c-.51-.46-.83-1.11-.83-1.85,0-1.38,1.12-2.5,2.49-2.5ZM2,10.51c0-.55.45-1,1-1h5.98c-.03.21-.06.42-.06.63,0,.67.16,1.29.43,1.85H2v-1.48ZM26.93,29c0,.55-.45,1-1,1H3c-.55,0-1-.45-1-1v-14c0-.55.45-1,1-1h22.93c.55,0,1,.45,1,1v2.06h-4.4c-.83,0-1.5.67-1.5,1.5v7c0,.83.67,1.5,1.5,1.5h4.4v1.94ZM30,25.06h-6.98v-6h6.98v6ZM24.25,22.06c0-.74.6-1.34,1.34-1.34s1.34.6,1.34,1.34-.6,1.34-1.34,1.34-1.34-.6-1.34-1.34Z"/>
  </g>
</svg>