<?xml version="1.0" encoding="UTF-8"?>
<svg id="Ebene_2" xmlns="http://www.w3.org/2000/svg" viewBox="0 0 48 48">
  <defs>
    <style>
      .cls-1 {
        fill: #1e1e1c;
      }
    </style>
  </defs>
  <g id="_x33_219">
    <path class="cls-1" d="M46.25,26.45h-1.48v-4.8c0-1.61-1.02-2.97-2.44-3.5,3.28-1.5,5.57-4.8,5.57-8.65,0-5.24-4.25-9.5-9.48-9.5s-9.48,4.26-9.48,9.5c0,.68.07,1.34.21,1.97h-3.92c-1.18-1.6-3.07-2.64-5.21-2.64s-4.03,1.04-5.21,2.64H3.74c-2.06,0-3.74,1.68-3.74,3.75v5.47h0S0,21.64,0,21.64c0,0,0,0,0,0v22.6c0,2.07,1.68,3.75,3.74,3.75h37.28c2.06,0,3.74-1.68,3.74-3.75v-4.3h1.48c.96,0,1.75-.79,1.75-1.75v-10c0-.96-.78-1.75-1.75-1.75ZM38.42,2.5c3.85,0,6.99,3.14,6.99,7s-3.13,7-6.99,7-6.99-3.14-6.99-7,3.13-7,6.99-7ZM30.06,13.97c.89,1.67,2.27,3.04,3.94,3.93h-8.05c.34-.79.55-1.65.55-2.57,0-.47-.05-.92-.14-1.36h3.7ZM20.01,11.33c2.2,0,3.99,1.79,3.99,4,0,.98-.37,1.87-.96,2.57h-6.06c-.59-.69-.96-1.58-.96-2.57,0-2.21,1.79-4,3.99-4ZM3.74,13.97h9.93c-.09.44-.14.89-.14,1.36,0,.92.21,1.78.55,2.57H3.74c-.44,0-.85.09-1.25.23v-2.41h0v-.5c0-.69.56-1.25,1.25-1.25ZM42.27,44.25c0,.69-.56,1.25-1.25,1.25H3.74c-.69,0-1.25-.56-1.25-1.25v-19.86h0v-2.75c0-.69.56-1.24,1.25-1.24h37.28c.69,0,1.25.56,1.25,1.25v4.8h-8.5c-.96,0-1.75.79-1.75,1.75v10c0,.96.78,1.75,1.75,1.75h8.5v4.3ZM45.5,37.45h-10.98v-8.5h10.98v8.5ZM36.68,33.2c0-1.07.87-1.95,1.94-1.95s1.94.87,1.94,1.95-.87,1.95-1.94,1.95-1.94-.87-1.94-1.95Z"/>
  </g>
</svg>