<?xml version="1.0" encoding="UTF-8"?>
<svg id="Ebene_2" xmlns="http://www.w3.org/2000/svg" viewBox="0 0 24 24">
  <defs>
    <style>
      .cls-1 {
        fill: #1e1e1c;
      }
    </style>
  </defs>
  <g id="_x33_219">
    <path class="cls-1" d="M22.63,12.17h-.64v-.8c0-.74-.31-1.41-.81-1.89,1.66-.81,2.82-2.51,2.82-4.48,0-2.76-2.24-5-5-5s-5,2.24-5,5c0,.13.03.26.04.39h-1.32c-.64-.85-1.64-1.4-2.78-1.4s-2.14.56-2.78,1.4H2.37C1.09,5.39.05,6.41,0,7.68H0v.07s0,0,0,0v2.74h0v.87s0,0,0,0v10c0,1.45,1.18,2.63,2.62,2.63h16.74c1.45,0,2.62-1.18,2.62-2.63v-.7h.64c.76,0,1.37-.62,1.37-1.38v-5.75c0-.76-.62-1.38-1.37-1.38ZM19,1.75c1.79,0,3.25,1.46,3.25,3.25s-1.46,3.25-3.25,3.25-3.25-1.46-3.25-3.25,1.46-3.25,3.25-3.25ZM14.49,7.14c.3.62.72,1.16,1.23,1.61h-2.54c.16-.39.24-.82.24-1.26,0-.12-.02-.23-.04-.35h1.1ZM9.93,5.73c.96,0,1.75.79,1.75,1.75,0,.5-.21.94-.55,1.26h-2.41c-.33-.32-.55-.77-.55-1.26,0-.96.79-1.75,1.75-1.75ZM1.75,7.76c0-.34.28-.63.62-.63h4.09c-.01.12-.04.23-.04.35,0,.45.09.87.24,1.26H1.75v-.99ZM20.24,21.37c0,.48-.39.88-.87.88H2.62c-.48,0-.87-.39-.87-.88v-10c0-.48.39-.88.87-.88h16.74c.48,0,.87.39.87.88v.8h-4.61c-.76,0-1.37.62-1.37,1.38v5.75c0,.76.62,1.38,1.37,1.38h4.61v.7ZM22.25,18.92h-6.25v-5h6.25v5ZM17.21,16.42c0-.67.55-1.22,1.22-1.22s1.22.55,1.22,1.22-.55,1.22-1.22,1.22-1.22-.55-1.22-1.22Z"/>
  </g>
</svg>