<?xml version="1.0" encoding="UTF-8"?>
<svg id="Ebene_2" xmlns="http://www.w3.org/2000/svg" viewBox="0 0 64 64">
  <defs>
    <style>
      .cls-1 {
        fill: #1e1e1c;
      }
    </style>
  </defs>
  <g id="_x33_219">
    <path class="cls-1" d="M62.12,36.32h-1.55v-7.76c0-1.69-1.02-3.13-2.47-3.77,3.56-2.45,5.89-6.55,5.89-11.19,0-7.49-6.09-13.59-13.58-13.59s-13.58,6.1-13.58,13.59c0,.77.08,1.53.2,2.27h-4.11c-1.44-2.53-4.16-4.24-7.27-4.24s-5.83,1.71-7.27,4.24H4.14C1.86,15.86.01,17.71.01,19.98v1.39h-.01v11.57h.01v26.93c0,2.28,1.85,4.13,4.13,4.13h52.31c2.27,0,4.13-1.85,4.13-4.13v-6.8h1.55c1.03,0,1.88-.84,1.88-1.88v-13.01c0-1.03-.84-1.88-1.88-1.88ZM50.42,2.75c5.97,0,10.83,4.86,10.83,10.84s-4.86,10.84-10.83,10.84-10.83-4.86-10.83-10.84,4.86-10.84,10.83-10.84ZM42.13,24.33h-9.32c.71-1.18,1.15-2.54,1.2-4h4.63c.89,1.55,2.08,2.91,3.49,4ZM25.65,14.37c3.1,0,5.63,2.52,5.63,5.63s-2.52,5.63-5.63,5.63-5.63-2.52-5.63-5.63,2.52-5.63,5.63-5.63ZM4.07,22.33c0-1.11.9-2,2-2h11.22c.06,1.46.49,2.83,1.2,4H6.07c-1.1,0-2-.9-2-2ZM61.25,50.32h-15.25v-11.26h15.25v11.26ZM49.46,44.7c0-1.27,1.03-2.31,2.3-2.31s2.3,1.03,2.3,2.31-1.03,2.31-2.3,2.31-2.3-1.03-2.3-2.31Z"/>
  </g>
</svg>