<?xml version="1.0" encoding="UTF-8"?>
<svg id="Ebene_2" xmlns="http://www.w3.org/2000/svg" viewBox="0 0 16 16">
  <defs>
    <style>
      .cls-1 {
        fill: #1e1e1c;
      }
    </style>
  </defs>
  <g id="_x33_219">
    <path class="cls-1" d="M14.73,7.77h-.25v-.03c0-.43-.13-.83-.34-1.17,1.1-.59,1.85-1.74,1.85-3.07,0-1.93-1.57-3.5-3.5-3.5s-3.34,1.44-3.47,3.25h-.91c-.42-.79-1.24-1.34-2.2-1.34s-1.78.55-2.2,1.34h-1.48C1.14,3.25.22,4.06.04,5.12h-.04v8.63c0,1.24,1.01,2.25,2.25,2.25h9.99c1.23,0,2.23-.99,2.24-2.22h.25c.69,0,1.25-.56,1.25-1.25v-3.5c0-.69-.56-1.25-1.25-1.25ZM14.48,12.28h-4.5v-3h4.5v3ZM12.5,1.5c1.1,0,2,.9,2,2s-.9,2-2,2-2-.9-2-2,.9-2,2-2ZM10.09,6.02h-2.27c.35-.41.57-.93.59-1.5h.77c.18.58.49,1.09.91,1.5ZM5.92,3.41c.55,0,1,.45,1,1s-.45,1-1,1-1-.45-1-1,.45-1,1-1ZM1.59,5.27c0-.41.34-.75.75-.75h1.09c.03.57.25,1.09.59,1.5h-1.69c-.41,0-.75-.34-.75-.75ZM10.79,10.78c0-.54.44-.98.98-.98s.98.44.98.98-.44.98-.98.98-.98-.44-.98-.98Z"/>
  </g>
</svg>