<?xml version="1.0" encoding="UTF-8"?><svg id="Ebene_2" xmlns="http://www.w3.org/2000/svg" viewBox="0 0 24 24"><defs><style>.cls-1{fill:#1d1d1b;}</style></defs><g id="_x33_219"><path class="cls-1" d="M12,0C5.38,0,0,5.38,0,12s5.38,12,12,12,12-5.38,12-12S18.62,0,12,0ZM12,22.25c-5.65,0-10.25-4.6-10.25-10.25S6.35,1.75,12,1.75s10.25,4.6,10.25,10.25-4.6,10.25-10.25,10.25ZM11.17,13.64l-.56-4.46v-3.33h3.06v3.33l-.58,4.46h-1.92ZM13.91,16.41c0,.9-.7,1.65-1.77,1.65s-1.77-.75-1.77-1.65.7-1.63,1.77-1.63,1.77.77,1.77,1.63Z"/></g></svg>