<?xml version="1.0" encoding="UTF-8"?><svg id="Ebene_2" xmlns="http://www.w3.org/2000/svg" viewBox="0 0 40 40"><defs><style>.cls-1{fill:#1d1d1b;}</style></defs><g id="_x33_219"><path class="cls-1" d="M20,0C8.97,0,0,8.97,0,20s8.97,20,20,20,20-8.97,20-20S31.03,0,20,0ZM20,37.75c-9.78,0-17.75-7.96-17.75-17.75S10.22,2.25,20,2.25s17.75,7.96,17.75,17.75-7.96,17.75-17.75,17.75ZM18.58,22.62l-.96-7.58v-5.67h5.21v5.67l-.98,7.58h-3.27ZM23.24,27.73c0,1.53-1.19,2.81-3.01,2.81s-3.01-1.27-3.01-2.81,1.19-2.78,3.01-2.78,3.01,1.3,3.01,2.78Z"/></g></svg>