<?xml version="1.0" encoding="UTF-8"?><svg id="Ebene_2" xmlns="http://www.w3.org/2000/svg" viewBox="0 0 48 48"><defs><style>.cls-1{fill:#1d1d1b;}</style></defs><g id="_x33_219"><path class="cls-1" d="M24,0C10.77,0,0,10.77,0,24s10.77,24,24,24,24-10.77,24-24S37.23,0,24,0ZM24,45.5c-11.85,0-21.5-9.64-21.5-21.5S12.15,2.5,24,2.5s21.5,9.64,21.5,21.5-9.64,21.5-21.5,21.5ZM22.29,26.81l-1.16-9.17v-6.86h6.3v6.86l-1.19,9.17h-3.96ZM27.92,32.62c0,1.85-1.44,3.39-3.64,3.39s-3.64-1.54-3.64-3.39,1.44-3.36,3.64-3.36,3.64,1.58,3.64,3.36Z"/></g></svg>