<?xml version="1.0" encoding="UTF-8"?>
<svg id="Ebene_2" xmlns="http://www.w3.org/2000/svg" viewBox="0 0 40 40">
  <defs>
    <style>
      .cls-1 {
        fill: #1e1e1c;
      }
    </style>
  </defs>
  <g id="_x33_219">
    <path class="cls-1" d="M37.37,0H2.63C1.18,0,0,1.18,0,2.62v37.38h40V2.62c0-1.45-1.18-2.62-2.63-2.62ZM2.63,2.25h34.75c.21,0,.38.17.38.37v6.28H2.25V2.62c0-.21.17-.37.38-.37ZM2.25,37.75V11.15h35.5v26.6H2.25ZM4.5,5.6c0-.82.67-1.48,1.48-1.48s1.48.66,1.48,1.48-.67,1.48-1.48,1.48-1.48-.66-1.48-1.48ZM8.87,5.6c0-.82.67-1.48,1.48-1.48s1.48.66,1.48,1.48-.67,1.48-1.48,1.48-1.48-.66-1.48-1.48ZM19.35,24.74l.22,12.27,10.74-23.22L7.07,24.52l12.28.22ZM21.64,27.16l-.08-4.63-4.63-.08,8.77-4.05-4.06,8.76Z"/>
  </g>
</svg>