<?xml version="1.0" encoding="UTF-8"?>
<svg id="Ebene_2" xmlns="http://www.w3.org/2000/svg" viewBox="0 0 48 48">
  <defs>
    <style>
      .cls-1 {
        fill: #1e1e1c;
      }
    </style>
  </defs>
  <g id="_x33_219">
    <path class="cls-1" d="M48,10.25V2.75c0-1.52-1.23-2.75-2.75-2.75H2.75C1.23,0,0,1.23,0,2.75v7.5h48ZM10.92,4c.93,0,1.68.75,1.68,1.68s-.75,1.68-1.68,1.68-1.68-.75-1.68-1.68.75-1.68,1.68-1.68ZM6.17,4c.93,0,1.68.75,1.68,1.68s-.75,1.68-1.68,1.68-1.68-.75-1.68-1.68.75-1.68,1.68-1.68ZM0,12.75v35.25h48V12.75H0ZM24.91,42.51l-.23-12.68-12.68-.23,24.01-11.1-11.1,24.01Z"/>
  </g>
</svg>