<?xml version="1.0" encoding="UTF-8"?>
<svg id="Ebene_2" xmlns="http://www.w3.org/2000/svg" viewBox="0 0 24 24">
  <defs>
    <style>
      .cls-1 {
        fill: #1e1e1c;
      }
    </style>
  </defs>
  <g id="_x33_219">
    <path class="cls-1" d="M24,5.87v-3.49c0-1.31-1.07-2.38-2.38-2.38H2.38C1.07,0,0,1.07,0,2.38v3.49h24ZM6.46,2.11c.6,0,1.09.49,1.09,1.09s-.49,1.09-1.09,1.09-1.09-.49-1.09-1.09.49-1.09,1.09-1.09ZM3.21,2.11c.6,0,1.09.49,1.09,1.09s-.49,1.09-1.09,1.09-1.09-.49-1.09-1.09.49-1.09,1.09-1.09ZM0,7.62v16.38h24V7.62H0ZM12.38,20.77l-.09-5.29-5.29-.09,10-4.63-4.62,10.01Z"/>
  </g>
</svg>