<?xml version="1.0" encoding="UTF-8"?>
<svg id="Ebene_2" xmlns="http://www.w3.org/2000/svg" viewBox="0 0 40 40">
  <defs>
    <style>
      .cls-1 {
        fill: #1e1e1c;
      }
    </style>
  </defs>
  <g id="_x33_219">
    <path class="cls-1" d="M40,8.9V2.62c0-1.45-1.18-2.62-2.63-2.62H2.63C1.18,0,0,1.18,0,2.62v6.28h40ZM9.86,3.61c.82,0,1.48.66,1.48,1.48s-.67,1.48-1.48,1.48-1.48-.66-1.48-1.48.67-1.48,1.48-1.48ZM5.48,3.61c.82,0,1.48.66,1.48,1.48s-.67,1.48-1.48,1.48-1.48-.66-1.48-1.48.67-1.48,1.48-1.48ZM0,11.15v28.85h40V11.15H0ZM20.25,35.28l-.19-10.56-10.57-.19,20.01-9.24-9.25,19.99Z"/>
  </g>
</svg>