<?xml version="1.0" encoding="UTF-8"?>
<svg id="Ebene_2" xmlns="http://www.w3.org/2000/svg" viewBox="0 0 16 16">
  <defs>
    <style>
      .cls-1 {
        fill: #1e1e1c;
      }
    </style>
  </defs>
  <g id="_x33_219">
    <path class="cls-1" d="M16,4.75v-2.5c0-1.24-1.01-2.25-2.25-2.25H2.25C1.01,0,0,1.01,0,2.25v2.5h16ZM5.36,1.89c.49,0,.89.4.89.89s-.4.89-.89.89-.89-.4-.89-.89.4-.89.89-.89ZM2.86,1.89c.49,0,.89.4.89.89s-.4.89-.89.89-.89-.4-.89-.89.4-.89.89-.89ZM0,6.25v9.75h16V6.25H0ZM7.91,14.07l-.06-3.17-3.17-.06,6-2.77-2.77,6Z"/>
  </g>
</svg>