<?xml version="1.0" encoding="UTF-8"?>
<svg id="Ebene_2" xmlns="http://www.w3.org/2000/svg" viewBox="0 0 27.32 40">
  <defs>
    <style>
      .cls-1 {
        fill: #1e1e1c;
      }
    </style>
  </defs>
  <g id="_x33_219">
    <path class="cls-1" d="M14.16,10.08c2.78,0,5.04-2.26,5.04-5.04S16.94,0,14.16,0s-5.04,2.26-5.04,5.04,2.26,5.04,5.04,5.04ZM14.16,2.25c1.54,0,2.79,1.25,2.79,2.79s-1.25,2.79-2.79,2.79-2.79-1.25-2.79-2.79,1.25-2.79,2.79-2.79ZM27.12,21.59c-.35-.95-1.26-1.59-2.26-1.59h-4.42v-5.98c0-1.34-1.09-2.43-2.43-2.43h-7.67c-1.34,0-2.43,1.09-2.43,2.44l.09,11.94c.02,2,1.65,3.62,3.64,3.62h3.9v-2.07h4.17s0,5.04,0,5.04c0,0,0,0,0,0-1.55,3.2-4.72,5.18-8.27,5.18-5.06,0-9.18-4.12-9.18-9.18,0-2.94,1.35-5.62,3.71-7.38.5-.37.6-1.08.23-1.57-.37-.5-1.08-.6-1.57-.23C1.73,21.53,0,24.96,0,28.57c0,6.31,5.13,11.43,11.43,11.43,3.16,0,6.14-1.34,8.27-3.56v.06h5.62c1.1,0,2-.89,2-1.99v-11.96c0-.32-.07-.64-.2-.95ZM21.96,34.25v-8.99l-6.42.02v-6.57h-2.25v6.57h0v2.06h-1.65s0,0,0,0c-.76,0-1.39-.62-1.39-1.38l-.09-11.93c0-.1.08-.18.18-.18h7.67c.1,0,.18.08.18.18v8.23h6.67c.11,0,.15.1.16.13l.06,11.87h-3.11Z"/>
  </g>
</svg>