<?xml version="1.0" encoding="UTF-8"?>
<svg id="Ebene_2" xmlns="http://www.w3.org/2000/svg" viewBox="0 0 21.91 32">
  <defs>
    <style>
      .cls-1 {
        fill: #1e1e1c;
      }
    </style>
  </defs>
  <g id="_x33_219">
    <path class="cls-1" d="M11.35,8.22c2.26,0,4.11-1.84,4.11-4.11S13.62,0,11.35,0s-4.11,1.84-4.11,4.11,1.84,4.11,4.11,4.11ZM11.35,2c1.16,0,2.11.95,2.11,2.11s-.95,2.11-2.11,2.11-2.11-.95-2.11-2.11.95-2.11,2.11-2.11ZM21.74,17.23c-.3-.8-1.05-1.33-1.9-1.33h-3.4v-4.65c0-1.12-.91-2.04-2.04-2.04h-6.1c-1.12,0-2.04.91-2.04,2.04l.07,9.49c.01,1.64,1.36,2.98,3,2.98h3.21v-1.64h3.1s0,3.86,0,3.86c-1.2,2.46-3.73,4.05-6.46,4.05-3.96,0-7.19-3.23-7.19-7.19,0-2.3,1.06-4.4,2.91-5.78.44-.33.54-.96.21-1.4-.33-.44-.96-.54-1.4-.21-2.33,1.73-3.71,4.49-3.71,7.38,0,5.07,4.12,9.19,9.19,9.19,2.49,0,4.84-1.05,6.55-2.78h4.48c.93,0,1.69-.76,1.69-1.69v-9.51c0-.27-.06-.54-.17-.79ZM17.65,27.22v-7.14h-5.1s0-5.1,0-5.1h-2v5.12h0v1.64h-1.2s0,0,0,0c-.55,0-1-.45-1-.99l-.04-9.52,6.13.04v6.65h5.41s.01.01.02.03l.04,9.29h-2.26Z"/>
  </g>
</svg>