<?xml version="1.0" encoding="UTF-8"?>
<svg id="Ebene_2" xmlns="http://www.w3.org/2000/svg" viewBox="0 0 28.19 40">
  <defs>
    <style>
      .cls-1 {
        fill: #1e1e1c;
      }
    </style>
  </defs>
  <g id="_x33_219">
    <path class="cls-1" d="M10,5.04c0-2.78,2.26-5.04,5.04-5.04s5.04,2.26,5.04,5.04-2.26,5.04-5.04,5.04-5.04-2.26-5.04-5.04ZM27.99,21.59c-.35-.95-1.26-1.59-2.26-1.59h-4.42v-5.98c0-1.34-1.09-2.43-2.43-2.43h-7.67c-1.34,0-2.43,1.09-2.43,2.44l.09,11.94c.02,2,1.65,3.62,3.64,3.62h1.66v-10.89c0-.62.5-1.13,1.12-1.13s1.12.5,1.12,1.13v8.82h4.17s0,2.93,0,2.93c-.33.19-.61.48-.79.86-1.4,2.89-4.27,4.69-7.48,4.69-4.58,0-8.31-3.73-8.31-8.31,0-2.38,1.03-4.65,2.81-6.23.83-.73.91-2,.18-2.82-.73-.83-2-.91-2.82-.18C1.52,20.79,0,24.16,0,27.69c0,6.79,5.52,12.31,12.31,12.31,3.24,0,6.31-1.3,8.58-3.5h5.31c1.1,0,2-.89,2-1.99v-11.96c0-.32-.07-.64-.2-.95Z"/>
  </g>
</svg>