<?xml version="1.0" encoding="UTF-8"?>
<svg id="Ebene_2" xmlns="http://www.w3.org/2000/svg" viewBox="0 0 40 40">
  <defs>
    <style>
      .cls-1 {
        fill: #1e1e1c;
      }
    </style>
  </defs>
  <g id="_x33_219">
    <path class="cls-1" d="M20.01,28.49c-3.15,0-5.71,2.56-5.71,5.72s2.56,5.71,5.71,5.71h.01c3.15,0,5.71-2.56,5.71-5.72s-2.56-5.71-5.72-5.71ZM20.02,35.92h-.01c-.94,0-1.71-.77-1.71-1.72s.77-1.71,1.72-1.71,1.71.77,1.71,1.72-.77,1.71-1.71,1.71ZM11.15,5.53l-3.07-3.06C11.81.85,15.81,0,19.94,0c7.07,0,13.75,2.43,19.33,7.04.85.7.97,1.96.27,2.81-.4.48-.97.73-1.54.73-.45,0-.9-.15-1.27-.46-4.85-4-10.65-6.12-16.78-6.12-3.03,0-5.99.52-8.79,1.53ZM1.02,6.72l2.86,2.85c-.19.15-.39.28-.58.44-.85.7-2.12.57-2.81-.28-.7-.85-.57-2.11.29-2.81.08-.07.17-.12.26-.19ZM10.35,16.04c-.8.48-1.59,1.02-2.33,1.63-.85.7-2.12.57-2.81-.28-.7-.85-.57-2.11.29-2.81.63-.52,1.29-.98,1.96-1.43l2.9,2.9ZM31.99,17.74c-3.48-2.87-7.64-4.39-12.03-4.39-.32,0-.63.02-.94.04l-3.57-3.57c1.47-.3,2.98-.47,4.51-.47,5.34,0,10.38,1.84,14.58,5.31.85.7.97,1.96.27,2.81-.4.48-.97.73-1.54.73-.45,0-.9-.15-1.27-.46ZM25.73,20.09c1.16.52,2.26,1.2,3.28,2.05.58.48.81,1.22.68,1.91l-3.96-3.96ZM17.49,23.16c-1.41.36-2.75,1.04-3.93,2.01-.85.7-2.12.57-2.81-.28-.7-.85-.57-2.11.28-2.81,1.03-.84,2.15-1.52,3.33-2.04l3.13,3.13ZM40,37.17l-2.83,2.83L0,2.87,2.83.04l37.17,37.13Z"/>
  </g>
</svg>