<?xml version="1.0" encoding="UTF-8"?>
<svg id="Ebene_2" xmlns="http://www.w3.org/2000/svg" viewBox="0 0 64 64">
  <defs>
    <style>
      .cls-1 {
        fill: #1e1e1c;
      }
    </style>
  </defs>
  <g id="_x33_219">
    <path class="cls-1" d="M32.07,48.58h-.13c-4.21,0-7.64,3.43-7.64,7.64v.13c0,4.21,3.43,7.64,7.64,7.64h.13c4.21,0,7.64-3.43,7.64-7.64v-.13c0-4.21-3.43-7.64-7.64-7.64ZM36.96,56.36c0,2.7-2.19,4.89-4.89,4.89h-.13c-2.7,0-4.89-2.19-4.89-4.89v-.13c0-2.7,2.19-4.89,4.89-4.89h.13c2.7,0,4.89,2.19,4.89,4.89v.13ZM63.68,13.47c-.27.33-.67.5-1.06.5-.31,0-.62-.1-.88-.32C53.12,6.52,42.79,2.75,31.88,2.75S10.82,6.45,2.24,13.45c-.59.48-1.45.39-1.94-.2-.48-.59-.39-1.45.2-1.94C9.58,3.91,20.43,0,31.88,0s22.5,3.99,31.63,11.53c.59.48.67,1.35.18,1.94ZM55.46,24.53c.59.48.67,1.35.18,1.94-.27.33-.67.5-1.06.5-.31,0-.62-.1-.88-.32-6.29-5.21-13.83-7.96-21.79-7.96s-15.36,2.7-21.62,7.81c-.59.48-1.45.39-1.94-.2-.48-.59-.39-1.45.2-1.94,6.75-5.51,14.83-8.43,23.36-8.43s16.76,2.97,23.55,8.59ZM46.03,37.28c.59.48.67,1.35.18,1.94-.27.33-.67.5-1.06.5-.31,0-.62-.1-.88-.32-3.56-2.95-7.82-4.5-12.33-4.5s-8.69,1.53-12.23,4.42c-.59.48-1.45.39-1.94-.2-.48-.59-.39-1.45.2-1.94,4.04-3.3,8.87-5.04,13.97-5.04s10.02,1.78,14.08,5.13Z"/>
  </g>
</svg>