<?xml version="1.0" encoding="UTF-8"?>
<svg id="Ebene_2" xmlns="http://www.w3.org/2000/svg" viewBox="0 0 64 64">
  <defs>
    <style>
      .cls-1 {
        fill: #1e1e1c;
      }
    </style>
  </defs>
  <g id="_x33_219">
    <path class="cls-1" d="M31.98,46.8c-4.73,0-8.58,3.85-8.58,8.62s3.85,8.58,8.58,8.58h.04c4.73,0,8.58-3.85,8.58-8.62s-3.85-8.58-8.62-8.58ZM32.02,59h-.04c-1.97,0-3.58-1.61-3.58-3.62s1.61-3.58,3.62-3.58,3.58,1.61,3.58,3.62-1.61,3.58-3.58,3.58ZM63.43,14.9c-.5.6-1.21.91-1.93.91-.56,0-1.13-.19-1.59-.57-8.09-6.7-17.78-10.23-28.03-10.23S12.13,8.48,4.08,15.05c-1.07.87-2.65.71-3.52-.36-.87-1.07-.71-2.65.36-3.52C9.87,3.86,20.58,0,31.88,0s22.21,3.94,31.21,11.38c1.06.88,1.21,2.46.33,3.52ZM55.34,23.9c1.06.88,1.21,2.46.33,3.52-.5.6-1.21.91-1.93.91-.56,0-1.13-.19-1.59-.57-5.85-4.84-12.85-7.4-20.25-7.4s-14.26,2.51-20.08,7.26c-1.07.87-2.65.71-3.52-.36-.87-1.07-.71-2.65.36-3.52,6.72-5.49,14.76-8.39,23.24-8.39s16.68,2.95,23.43,8.54ZM46.26,36.18c1.06.88,1.21,2.46.33,3.52-.49.6-1.21.91-1.93.91-.56,0-1.13-.19-1.59-.57-3.22-2.66-7.06-4.07-11.12-4.07s-7.84,1.38-11.03,3.99c-1.07.87-2.65.71-3.52-.36-.87-1.07-.71-2.65.36-3.52,4.1-3.35,9.01-5.12,14.2-5.12s10.19,1.8,14.31,5.21Z"/>
  </g>
</svg>