<?xml version="1.0" encoding="UTF-8"?>
<svg id="Ebene_2" xmlns="http://www.w3.org/2000/svg" viewBox="0 0 16 16">
  <defs>
    <style>
      .cls-1 {
        fill: #1e1e1c;
      }
    </style>
  </defs>
  <g id="_x33_219">
    <path class="cls-1" d="M6.22,2.69L4.19.65C5.4.23,6.67.02,7.97.02,10.74.02,13.35.97,15.53,2.76c.53.44.61,1.23.17,1.76-.25.3-.6.45-.96.45-.28,0-.56-.09-.8-.29-1.72-1.42-3.78-2.18-5.96-2.18-.59,0-1.18.06-1.75.17ZM.3,4.47c.27.33.67.46,1.07.43L.03,3.56c-.03.32.06.64.27.91ZM7.98,3.52c-.3,0-.59.02-.88.05l2.78,2.78c.82.25,1.6.63,2.29,1.2.23.19.51.29.79.29.36,0,.72-.15.96-.45.44-.53.36-1.32-.17-1.76-1.66-1.37-3.66-2.1-5.78-2.1ZM2.16,5.69c-.43.45-.49,1.15-.09,1.65.44.53,1.23.61,1.76.18.03-.02.06-.04.09-.06l-1.76-1.76ZM6.44,9.97l-1.8-1.8c-.11.07-.22.13-.32.22-.54.44-.62,1.22-.18,1.76.44.53,1.22.62,1.76.18.17-.14.35-.25.54-.35ZM5.5,13.5c0,1.38,1.12,2.5,2.5,2.5,1.22,0,2.23-.87,2.45-2.02l-2.93-2.93c-1.15.22-2.02,1.24-2.02,2.45ZM1.77,0L0,1.77l14.23,14.22,1.77-1.77L1.77,0Z"/>
  </g>
</svg>