<?xml version="1.0" encoding="UTF-8"?>
<svg id="Ebene_2" xmlns="http://www.w3.org/2000/svg" viewBox="0 0 24 24">
  <defs>
    <style>
      .cls-1 {
        fill: #1e1e1c;
      }
    </style>
  </defs>
  <g id="_x33_219">
    <path class="cls-1" d="M7.82,3.59l-2.36-2.36c2.06-.81,4.24-1.24,6.49-1.24,4.21,0,8.19,1.45,11.5,4.18.64.53.73,1.47.2,2.11-.3.36-.73.54-1.16.54-.34,0-.67-.11-.95-.34-2.77-2.29-6.09-3.5-9.59-3.5-1.42,0-2.8.21-4.13.6ZM.34,6.21c.48.59,1.32.71,1.95.32L.23,4.48c-.33.53-.31,1.23.11,1.73ZM9.86,5.63l2.86,2.86c2.21.16,4.29.99,6.06,2.46.28.23.62.34.95.34.43,0,.86-.19,1.16-.54.53-.64.44-1.58-.2-2.11-2.52-2.08-5.53-3.17-8.73-3.17-.71,0-1.41.06-2.11.17ZM3.89,8.14c-.2.14-.39.28-.58.44-.64.52-.74,1.47-.21,2.11.52.64,1.47.74,2.11.21.27-.22.55-.42.83-.61l-2.15-2.14ZM7.84,12.08c-.45.25-.89.54-1.3.88-.64.52-.74,1.47-.21,2.11.52.64,1.47.74,2.11.21.51-.42,1.08-.73,1.67-.93l-2.27-2.27ZM12.92,17.15c-.3-.08-.61-.14-.93-.14-1.93,0-3.5,1.57-3.5,3.49s1.57,3.49,3.5,3.49,3.5-1.57,3.5-3.49c0-.32-.06-.63-.14-.93l-2.43-2.42ZM2.12.02L0,2.13l21.88,21.85,2.12-2.12L2.12.02Z"/>
  </g>
</svg>