<?xml version="1.0" encoding="UTF-8"?>
<svg id="Ebene_2" xmlns="http://www.w3.org/2000/svg" viewBox="0 0 32 32">
  <defs>
    <style>
      .cls-1 {
        fill: #1e1e1c;
      }
    </style>
  </defs>
  <g id="_x33_219">
    <path class="cls-1" d="M15.99,22.61c-2.58,0-4.68,2.1-4.68,4.71s2.1,4.68,4.68,4.68h.03c2.58,0,4.68-2.1,4.68-4.71s-2.1-4.68-4.71-4.68ZM16.01,28.5h-.03c-.65,0-1.18-.53-1.18-1.21s.53-1.19,1.21-1.19,1.18.53,1.18,1.21-.53,1.18-1.18,1.18ZM31.6,8.09c-.35.42-.85.63-1.35.63-.39,0-.79-.13-1.11-.4-3.81-3.15-8.37-4.82-13.19-4.82s-9.3,1.64-13.09,4.73c-.75.61-1.85.5-2.46-.25-.61-.75-.5-1.85.25-2.46C5.07,1.91,10.36,0,15.94,0s10.98,1.94,15.42,5.62c.74.62.85,1.72.23,2.46ZM27.62,11.67c.74.62.85,1.72.23,2.46-.35.42-.85.63-1.35.63-.39,0-.79-.13-1.11-.4-2.73-2.26-5.99-3.45-9.43-3.45s-6.65,1.17-9.36,3.38c-.75.61-1.85.5-2.46-.25-.61-.75-.5-1.85.25-2.46,3.34-2.73,7.34-4.17,11.57-4.17s8.3,1.47,11.66,4.25ZM23.23,17.6c.74.62.85,1.72.23,2.46-.35.42-.85.63-1.35.63-.39,0-.79-.13-1.11-.4-1.46-1.2-3.2-1.84-5.03-1.84s-3.54.62-4.99,1.81c-.75.61-1.85.5-2.46-.25-.61-.75-.5-1.85.25-2.46,2.08-1.7,4.57-2.6,7.2-2.6s5.17.91,7.26,2.64Z"/>
  </g>
</svg>