<?xml version="1.0" encoding="UTF-8"?>
<svg id="Ebene_2" xmlns="http://www.w3.org/2000/svg" viewBox="0 0 48 48">
  <defs>
    <style>
      .cls-1 {
        fill: #1e1e1c;
      }
    </style>
  </defs>
  <g id="_x33_219">
    <path class="cls-1" d="M23.98,36.09c-3.27,0-5.94,2.66-5.94,5.98s2.66,5.94,5.94,5.94h.04c3.27,0,5.93-2.66,5.93-5.98s-2.66-5.94-5.97-5.94ZM24.02,45.5h-.04c-1.89,0-3.43-1.54-3.43-3.47s1.54-3.43,3.47-3.43,3.43,1.54,3.43,3.47-1.54,3.43-3.43,3.43ZM47.71,10.38c-.25.3-.6.45-.96.45-.28,0-.56-.09-.8-.29-6.36-5.26-13.99-8.05-22.04-8.05S8.37,5.23,2.04,10.4c-.53.44-1.32.36-1.76-.18-.44-.53-.36-1.32.18-1.76C7.24,2.93,15.35,0,23.91,0s16.82,2.98,23.64,8.62c.53.44.61,1.23.17,1.76ZM41.57,18.28c.53.44.61,1.23.17,1.76-.25.3-.6.45-.96.45-.28,0-.56-.09-.8-.29-4.63-3.83-10.18-5.86-16.04-5.86s-11.31,1.99-15.91,5.75c-.54.44-1.32.36-1.76-.18-.44-.54-.36-1.32.18-1.76,5.06-4.13,11.11-6.31,17.5-6.31s12.55,2.22,17.64,6.43ZM34.57,27.74c.53.44.61,1.23.17,1.76-.25.3-.61.45-.97.45-.28,0-.56-.09-.8-.29-2.6-2.15-5.72-3.29-9.01-3.29s-6.35,1.12-8.94,3.23c-.54.44-1.32.35-1.76-.18-.44-.53-.36-1.32.18-1.76,3.04-2.48,6.68-3.79,10.52-3.79s7.55,1.34,10.61,3.86Z"/>
  </g>
</svg>