<?xml version="1.0" encoding="UTF-8"?>
<svg id="a" data-name="3219" xmlns="http://www.w3.org/2000/svg" viewBox="0 0 48 48">
  <path d="M13.91,31.47c-.22,0-.44-.06-.63-.17-.59-.36-.8-1.11-.44-1.7.88-1.45,2.29-1.23,3.13-1.09.47.08.91.15,1.4.08.22-.03.9-.13,1.4-1.42.67-1.75.4-4.07.05-4.88-2.69.26-4.06-.67-4.74-1.52-.55-.68-.74-1.96-.8-2.67-.3-2.58.48-4.12,2.14-6.2,1.65-2.08,4.02-3.4,6.66-3.71,2.65-.31,5.25.44,7.33,2.09,2.93,2.32,4.3,6.04,3.59,9.71-.13.68-.79,1.13-1.47.99-.68-.13-1.12-.79-.99-1.47.53-2.74-.5-5.53-2.68-7.26-1.56-1.23-3.5-1.79-5.48-1.56-1.98.23-3.74,1.21-4.98,2.77-1.38,1.75-1.81,2.62-1.61,4.38.05.57.19,1.22.29,1.4.42.51,1.45.71,2.87.51.65-.09,1.29.19,1.74.78,1.18,1.51,1.37,5.24.39,7.67-.67,1.65-1.86,2.67-3.34,2.88-.86.12-1.6,0-2.14-.09-.2-.03-.45-.07-.59-.08-.24.36-.65.56-1.07.56ZM22.8.03C17.1.03,11.72,2.54,8.02,6.97c-.46.52-.42,1.31.1,1.77.52.46,1.31.42,1.77-.1l.09-.11c3.18-3.81,7.85-6,12.81-6,9.2,0,16.68,7.48,16.68,16.68,0,5.26-2.45,10.11-6.73,13.32l-.1.09c-1.11,1.03-1.3,2.75-1.52,4.74-.45,4.01-.91,8.16-8.13,8.16-1.76,0-3.44-.55-4.85-1.6-.74-.55-1.38-1.22-1.9-1.99-.39-.57-1.17-.72-1.74-.34-.57.39-.72,1.17-.34,1.74.68,1,1.51,1.88,2.48,2.6,1.85,1.37,4.04,2.09,6.34,2.09,9.47,0,10.19-6.5,10.62-10.39.14-1.27.3-2.7.7-3.14,4.88-3.68,7.67-9.24,7.67-15.27C42,8.64,33.39.03,22.8.03Z" fill="#1e1e1c"/>
</svg>