<?xml version="1.0" encoding="UTF-8"?>
<svg id="a" data-name="3219" xmlns="http://www.w3.org/2000/svg" viewBox="0 0 24 24">
  <path d="M7.07,15.92c-.16,0-.31-.04-.45-.13-.41-.25-.55-.78-.3-1.19.52-.86,1.39-.72,1.8-.66.21.03.41.06.61.04.07,0,.26-.04.43-.43.3-.66.25-1.64.13-2.12-1.29.07-1.98-.41-2.34-.86-.3-.37-.41-.99-.45-1.45-.16-1.34.27-2.17,1.1-3.22.85-1.07,2.07-1.75,3.43-1.91,1.36-.16,2.7.23,3.78,1.08,1.51,1.2,2.22,3.11,1.85,5.01-.09.48-.56.79-1.03.69-.48-.09-.79-.55-.69-1.03.24-1.25-.22-2.51-1.22-3.3-.71-.56-1.59-.81-2.49-.71-.9.1-1.7.55-2.26,1.26-.68.86-.81,1.22-.73,1.95.02.23.08.51.12.59.11.12.55.19,1.13.11.41-.06.81.12,1.09.48.63.8.74,2.75.23,4.01-.36.9-1.02,1.45-1.84,1.57-.46.07-.85,0-1.13-.04-.05,0-.09-.02-.13-.02-.17.17-.4.27-.64.27ZM11.42.01C8.55.01,5.85,1.28,4.01,3.49l.65.59.71.53c1.51-1.8,3.72-2.84,6.06-2.84,4.35,0,7.9,3.54,7.9,7.9,0,2.49-1.16,4.78-3.26,6.36-.61.57-.72,1.5-.82,2.48-.21,1.93-.42,3.76-3.71,3.76-.8,0-1.57-.25-2.21-.73-.34-.25-.63-.56-.87-.91-.27-.4-.81-.51-1.22-.23-.4.27-.51.82-.23,1.22.35.51.78.96,1.27,1.33.95.7,2.08,1.08,3.26,1.08,4.87,0,5.23-3.33,5.46-5.32.05-.49.14-1.24.21-1.33,2.47-1.85,3.89-4.66,3.89-7.71C21.07,4.34,16.74.01,11.42.01Z" fill="#1e1e1c"/>
</svg>