<?xml version="1.0" encoding="UTF-8"?>
<svg id="_x33_219" xmlns="http://www.w3.org/2000/svg" version="1.1" viewBox="0 0 24 24">
  <!-- Generator: Adobe Illustrator 29.0.1, SVG Export Plug-In . SVG Version: 2.1.0 Build 192)  -->
  <defs>
    <style>
      .st0 {
        fill: #1e1e1c;
      }
    </style>
  </defs>
  <path class="st0" d="M12,7.19c-2.66,0-4.82,2.16-4.82,4.82s2.16,4.82,4.82,4.82,4.82-2.16,4.82-4.82-2.16-4.82-4.82-4.82ZM10.67,11.77c-.72,0-1.3-.58-1.3-1.3s.58-1.3,1.3-1.3,1.3.58,1.3,1.3-.58,1.3-1.3,1.3ZM13.9,14.57c-.48,0-.86-.39-.86-.86s.39-.86.86-.86.86.39.86.86-.39.86-.86.86ZM23.73,11.39c-.15-.33-3.68-8.06-11.73-8.06S.42,11.06.27,11.39l-.27.61.27.61c.15.33,3.68,8.06,11.73,8.06s11.58-7.73,11.73-8.06l.27-.61-.27-.61ZM12,17.67c-5,0-7.78-4.08-8.66-5.66.89-1.59,3.67-5.67,8.66-5.67s7.77,4.07,8.66,5.66c-.89,1.58-3.7,5.67-8.66,5.67Z"/>
</svg>