<?xml version="1.0" encoding="UTF-8"?>
<svg id="_x33_219" xmlns="http://www.w3.org/2000/svg" version="1.1" viewBox="0 0 32 32">
  <!-- Generator: Adobe Illustrator 29.0.1, SVG Export Plug-In . SVG Version: 2.1.0 Build 192)  -->
  <defs>
    <style>
      .st0 {
        fill: #1e1e1c;
      }
    </style>
  </defs>
  <path class="st0" d="M31.82,15.59c-.2-.45-4.97-10.91-15.82-10.91S.38,15.15.18,15.59l-.18.41.18.41c.2.45,4.97,10.91,15.82,10.91s15.62-10.47,15.82-10.91l.18-.41-.18-.41ZM16,25.32c-8.39,0-12.82-7.47-13.79-9.32.97-1.85,5.39-9.32,13.79-9.32s12.82,7.47,13.79,9.32c-.97,1.85-5.39,9.32-13.79,9.32ZM16,9.79c-3.43,0-6.21,2.78-6.21,6.21s2.78,6.21,6.21,6.21,6.21-2.78,6.21-6.21-2.78-6.21-6.21-6.21ZM14.09,15.67c-1.03,0-1.86-.83-1.86-1.86s.83-1.86,1.86-1.86,1.86.83,1.86,1.86-.83,1.86-1.86,1.86ZM18.73,19.69c-.69,0-1.24-.56-1.24-1.24s.56-1.24,1.24-1.24,1.24.56,1.24,1.24-.56,1.24-1.24,1.24Z"/>
</svg>