<?xml version="1.0" encoding="UTF-8"?>
<svg id="_x33_219" xmlns="http://www.w3.org/2000/svg" version="1.1" viewBox="0 0 64 64">
  <!-- Generator: Adobe Illustrator 29.0.1, SVG Export Plug-In . SVG Version: 2.1.0 Build 192)  -->
  <defs>
    <style>
      .st0 {
        fill: #1e1e1c;
      }
    </style>
  </defs>
  <path class="st0" d="M63.75,31.43c-.1-.22-10-21.93-31.75-21.93S.35,31.21.25,31.43l-.25.56.25.56c.1.22,10,21.93,31.75,21.93s31.65-21.71,31.75-21.93l.25-.56-.25-.56ZM32,51.71c-18.02,0-27.27-16.43-28.93-19.71,1.67-3.28,10.91-19.71,28.93-19.71s27.27,16.43,28.93,19.71c-1.67,3.28-10.91,19.71-28.93,19.71ZM32,19.29c-7.02,0-12.71,5.69-12.71,12.71s5.69,12.71,12.71,12.71,12.71-5.69,12.71-12.71-5.69-12.71-12.71-12.71ZM28.09,31.31c-2.11,0-3.81-1.71-3.81-3.81s1.71-3.81,3.81-3.81,3.81,1.71,3.81,3.81-1.71,3.81-3.81,3.81ZM37.59,39.54c-1.4,0-2.54-1.14-2.54-2.54s1.14-2.54,2.54-2.54,2.54,1.14,2.54,2.54-1.14,2.54-2.54,2.54Z"/>
</svg>