<?xml version="1.0" encoding="UTF-8"?>
<svg id="_x33_219" xmlns="http://www.w3.org/2000/svg" version="1.1" viewBox="0 0 64 64">
  <!-- Generator: Adobe Illustrator 29.0.1, SVG Export Plug-In . SVG Version: 2.1.0 Build 192)  -->
  <defs>
    <style>
      .st0 {
        fill: #1e1e1c;
      }
    </style>
  </defs>
  <path class="st0" d="M63.55,30.98c-.39-.89-9.91-21.74-31.55-21.74S.85,30.09.45,30.98l-.45,1.02.45,1.02c.39.89,9.91,21.74,31.55,21.74s31.15-20.86,31.55-21.74l.45-1.02-.45-1.02ZM32,49.75c-15.83,0-24.37-13.85-26.46-17.76,2.08-3.92,10.57-17.75,26.46-17.75s24.36,13.84,26.46,17.76c-2.08,3.92-10.57,17.75-26.46,17.75ZM32,17.29c-8.11,0-14.7,6.6-14.7,14.71s6.6,14.7,14.7,14.7,14.7-6.6,14.7-14.7-6.6-14.71-14.7-14.71ZM28.25,31.34c-2.02,0-3.66-1.64-3.66-3.66s1.64-3.66,3.66-3.66,3.66,1.64,3.66,3.66-1.64,3.66-3.66,3.66ZM37.37,39.24c-1.35,0-2.44-1.09-2.44-2.44s1.09-2.44,2.44-2.44,2.44,1.09,2.44,2.44-1.09,2.44-2.44,2.44Z"/>
</svg>