<?xml version="1.0" encoding="UTF-8"?>
<svg id="a" data-name="3219" xmlns="http://www.w3.org/2000/svg" viewBox="0 0 64 64">
  <path d="M31.99,0C18.91,0,8.27,10.64,8.27,23.73c0,16.35,21.81,38.37,22.74,39.3l.97.97.97-.97c.93-.93,22.74-22.94,22.74-39.3C55.7,10.64,45.06,0,31.99,0ZM31.99,60.07c-4.25-4.49-20.96-22.99-20.96-36.34C11.02,12.16,20.43,2.75,31.99,2.75s20.96,9.41,20.96,20.98c0,13.35-16.71,31.85-20.96,36.34ZM31.99,14.09c-5.38,0-9.75,4.38-9.75,9.76s4.37,9.76,9.75,9.76,9.75-4.38,9.75-9.76-4.37-9.76-9.75-9.76ZM31.99,30.85c-3.86,0-7-3.14-7-7s3.14-7,7-7,7,3.14,7,7-3.14,7-7,7Z" fill="#1e1e1c"/>
</svg>