<?xml version="1.0" encoding="UTF-8"?>
<svg id="a" data-name="3219" xmlns="http://www.w3.org/2000/svg" viewBox="0 0 24 24">
  <path d="M12,.01C7.07.01,3.06,4.02,3.06,8.95c0,6.05,7.98,14.1,8.32,14.44l.62.62.62-.62c.34-.34,8.32-8.39,8.32-14.44C20.94,4.02,16.93.01,12,.01ZM12,21.51c-1.85-1.99-7.19-8.12-7.19-12.56,0-3.96,3.23-7.19,7.19-7.19s7.19,3.23,7.19,7.19c0,4.43-5.34,10.57-7.19,12.56ZM12,4.87c-2.27,0-4.12,1.85-4.12,4.12s1.85,4.12,4.12,4.12,4.12-1.85,4.12-4.12-1.85-4.12-4.12-4.12ZM12,11.37c-1.31,0-2.38-1.07-2.38-2.37s1.07-2.37,2.38-2.37,2.38,1.07,2.38,2.37-1.07,2.37-2.38,2.37Z" fill="#1e1e1c"/>
</svg>