<?xml version="1.0" encoding="UTF-8"?>
<svg id="a" data-name="3219" xmlns="http://www.w3.org/2000/svg" viewBox="0 0 40 40">
  <path d="M20-.02C11.82-.02,5.16,6.65,5.16,14.84c0,10.16,13.48,23.77,14.05,24.34l.8.8.79-.8c.57-.57,14.05-14.18,14.05-24.34C34.85,6.65,28.19-.02,20-.02ZM20,36.76c-2.88-3.07-12.59-14.01-12.59-21.92,0-6.95,5.65-12.61,12.59-12.61s12.6,5.66,12.6,12.61c0,7.9-9.71,18.85-12.6,21.92ZM20,8.53c-3.52,0-6.38,2.86-6.38,6.38s2.86,6.38,6.38,6.38,6.38-2.86,6.38-6.38-2.86-6.38-6.38-6.38ZM20,19.04c-2.27,0-4.12-1.85-4.12-4.13s1.85-4.13,4.12-4.13,4.12,1.85,4.12,4.13-1.85,4.13-4.12,4.13Z" fill="#1e1e1c"/>
</svg>