<?xml version="1.0" encoding="UTF-8"?>
<svg id="a" data-name="3219" xmlns="http://www.w3.org/2000/svg" viewBox="0 0 16 16">
  <path d="M8,.01C4.7.01,2.02,2.69,2.02,5.99c0,4,5.22,9.27,5.45,9.49l.53.53.53-.53c.22-.22,5.45-5.49,5.45-9.49C13.98,2.69,11.3.01,8,.01ZM8,13.87c-1.61-1.75-4.48-5.38-4.48-7.88S5.53,1.51,8,1.51s4.48,2.01,4.48,4.48-2.87,6.13-4.48,7.88ZM8,3.27c-1.52,0-2.75,1.23-2.75,2.75s1.23,2.75,2.75,2.75,2.75-1.23,2.75-2.75-1.23-2.75-2.75-2.75ZM8,7.27c-.69,0-1.25-.56-1.25-1.25s.56-1.25,1.25-1.25,1.25.56,1.25,1.25-.56,1.25-1.25,1.25Z" fill="#1e1e1c"/>
</svg>