<?xml version="1.0" encoding="UTF-8"?>
<svg id="a" data-name="3219" xmlns="http://www.w3.org/2000/svg" viewBox="0 0 64 64">
  <path d="M62.18,53.37l-17.11-17.13c2.06-3.56,3.25-7.69,3.25-12.09C48.31,10.83,37.47-.02,24.15-.02S0,10.83,0,24.16s10.84,24.18,24.16,24.18c4.42,0,8.57-1.2,12.14-3.29l17.1,17.11c1.21,1.21,2.8,1.82,4.39,1.82s3.18-.61,4.39-1.82c2.42-2.42,2.42-6.37,0-8.79ZM2.74,24.16C2.74,12.34,12.35,2.73,24.15,2.73s21.41,9.61,21.41,21.43-9.6,21.43-21.41,21.43S2.74,35.97,2.74,24.16ZM60.23,60.22c-1.35,1.35-3.54,1.35-4.89,0l-16.71-16.72c1.85-1.39,3.5-3.04,4.89-4.9l16.71,16.72c1.35,1.35,1.35,3.55,0,4.9Z" fill="#1e1e1c"/>
</svg>