<?xml version="1.0" encoding="UTF-8"?>
<svg id="a" data-name="3219" xmlns="http://www.w3.org/2000/svg" viewBox="0 0 48 48">
  <path d="M46.58,39.77l-12.48-12.49c1.52-2.66,2.4-5.74,2.4-9.02C36.5,8.19,28.31,0,18.25,0S-.01,8.19-.01,18.26s8.19,18.27,18.26,18.27c3.3,0,6.39-.89,9.06-2.43l12.47,12.48c.91.91,2.12,1.41,3.4,1.41s2.49-.5,3.4-1.41c.91-.91,1.41-2.12,1.41-3.41s-.5-2.5-1.41-3.41ZM2.49,18.26c0-8.69,7.07-15.77,15.76-15.77s15.76,7.07,15.76,15.77-7.07,15.77-15.76,15.77S2.49,26.96,2.49,18.26ZM44.81,44.81c-.87.87-2.4.87-3.27,0l-12.12-12.13c1.22-.95,2.32-2.05,3.26-3.28l12.13,12.14c.44.44.68,1.02.68,1.64s-.24,1.2-.68,1.64Z" fill="#1e1e1c"/>
</svg>