<?xml version="1.0" encoding="UTF-8"?>
<svg id="a" data-name="3219" xmlns="http://www.w3.org/2000/svg" viewBox="0 0 32 32">
  <path d="M31.11,26.36l-8.12-8.13c.98-1.76,1.54-3.77,1.54-5.92C24.52,5.58,19.04.09,12.31.09S.09,5.58.09,12.32s5.48,12.22,12.22,12.22c2.16,0,4.18-.57,5.94-1.55l8.12,8.12c.63.63,1.47.98,2.37.98h0c.9,0,1.74-.35,2.37-.98,1.31-1.31,1.31-3.44,0-4.75ZM2.1,12.32C2.1,6.69,6.68,2.11,12.31,2.11s10.2,4.58,10.2,10.21-4.58,10.21-10.2,10.21S2.1,17.95,2.1,12.32ZM29.69,29.69c-.52.52-1.37.52-1.9,0l-7.84-7.85c.7-.56,1.33-1.2,1.89-1.9l7.85,7.85c.52.52.52,1.38,0,1.9Z" fill="#1e1e1c"/>
</svg>