<?xml version="1.0" encoding="UTF-8"?>
<svg id="a" data-name="3219" xmlns="http://www.w3.org/2000/svg" viewBox="0 0 64 64">
  <path d="M61.9,51.75l-15.85-15.86c1.81-3.42,2.85-7.31,2.85-11.44C48.89,10.96,37.92-.02,24.44-.02S0,10.96,0,24.45s10.97,24.47,24.45,24.47c4.15,0,8.06-1.04,11.49-2.88l15.84,15.85c1.4,1.4,3.23,2.09,5.06,2.09s3.67-.7,5.07-2.1c2.79-2.79,2.79-7.34,0-10.14ZM5,24.45C5,13.72,13.72,5,24.44,5s19.44,8.73,19.44,19.45-8.72,19.45-19.44,19.45S5,35.17,5,24.45ZM58.35,58.34c-.84.84-2.21.84-3.04,0l-15.16-15.17c1.1-.93,2.12-1.94,3.04-3.05l15.16,15.17c.84.84.84,2.21,0,3.04Z" fill="#1e1e1c"/>
</svg>