<?xml version="1.0" encoding="UTF-8"?>
<svg id="_x33_219" xmlns="http://www.w3.org/2000/svg" version="1.1" viewBox="0 0 40 40">
  <!-- Generator: Adobe Illustrator 29.0.1, SVG Export Plug-In . SVG Version: 2.1.0 Build 192)  -->
  <defs>
    <style>
      .st0 {
        fill: #1e1e1c;
      }
    </style>
  </defs>
  <path class="st0" d="M23.5,29.81l3.23,3.23c-1.99.73-4.22,1.18-6.72,1.18C6.57,34.22.67,21.31.42,20.76l-.36-.81.36-.81c.13-.28,1.76-3.85,5.15-7.24l2.82,2.82c-2.01,2.01-3.3,4.11-3.9,5.23,1.39,2.57,6.32,10.27,15.51,10.27,1.24,0,2.4-.15,3.5-.4ZM20,9.67c9.19,0,14.11,7.69,15.51,10.27-.61,1.13-1.89,3.23-3.91,5.23l2.82,2.82c3.39-3.39,5.03-6.96,5.15-7.25l.36-.81-.36-.81c-.24-.55-6.14-13.46-19.58-13.46-2.5,0-4.74.45-6.72,1.18l3.23,3.23c1.09-.25,2.25-.4,3.5-.4ZM17.36,10.94l11.66,11.66c.25-.84.39-1.73.39-2.65,0-5.18-4.22-9.39-9.4-9.39-.92,0-1.8.14-2.64.38ZM22.64,28.95l-11.65-11.65c-.25.84-.39,1.73-.39,2.64,0,5.18,4.22,9.39,9.4,9.39.92,0,1.8-.14,2.64-.38ZM39.34,36.11L3.85.61c-.88-.88-2.31-.88-3.19,0s-.88,2.3,0,3.18l35.49,35.5c.44.44,1.02.66,1.59.66s1.15-.22,1.59-.66c.88-.88.88-2.3,0-3.18Z"/>
</svg>