<?xml version="1.0" encoding="UTF-8"?>
<svg id="a" data-name="3219" xmlns="http://www.w3.org/2000/svg" viewBox="0 0 16 16">
  <path d="M15.99,8.82h0c0-1.08-.6-2.04-1.58-2.74V-.01H0v9.5h5.13v2.46h.02c0,.06-.02.12-.02.18,0,2.16,2.39,3.85,5.44,3.85s5.43-1.69,5.43-3.85h0v-3.32ZM7.62,8.82c0-.54,1.17-1.35,2.94-1.35s2.94.81,2.94,1.35-1.17,1.35-2.94,1.35-2.94-.81-2.94-1.35ZM2.49,2.49h9.42v2.61c-.44-.08-.88-.13-1.36-.13-.59,0-1.15.08-1.68.2.03-.13.05-.27.05-.41,0-.95-.77-1.73-1.72-1.73s-1.72.78-1.72,1.73c0,.68.39,1.26.96,1.54-.25.21-.47.44-.66.69h-3.29V2.49ZM10.55,13.49c-1.77,0-2.94-.81-2.94-1.35,0-.02.02-.04.02-.06.84.37,1.83.6,2.92.6s2.08-.22,2.92-.6c0,.02.02.04.02.06,0,.54-1.17,1.35-2.94,1.35Z" fill="#1e1e1c"/>
</svg>