<?xml version="1.0" encoding="UTF-8"?>
<svg id="a" data-name="3219" xmlns="http://www.w3.org/2000/svg" viewBox="0 0 64 64">
  <path d="M64,36.87v-.03s0-.05,0-.08c0-.04,0-.07,0-.11v-7.64s0-.05,0-.08,0-.05,0-.08v-.18h-.01c-.16-4.96-4.75-9.03-11.27-10.55V0H0v33h30.15v19.39h.02c0,.05,0,.11,0,.16,0,6.42,7.43,11.45,16.92,11.45s16.81-4.96,16.91-11.32h0v-.05s0-.05,0-.08c0-.04,0-.07,0-.11v-7.64s0-.05,0-.08c0-.04,0-.07,0-.11v-7.73ZM15.92,5h21.51v14.48c-4.06,1.88-6.79,4.95-7.19,8.52h-14.31V5ZM58.96,37.14c-.38,2.95-5.15,6.07-11.88,6.07s-11.5-3.12-11.88-6.07c3.03,2.01,7.21,3.23,11.88,3.23s8.85-1.23,11.88-3.23ZM35.19,44.97c3.03,2.01,7.21,3.24,11.89,3.24s8.86-1.23,11.89-3.24c-.26,2.98-5.06,6.2-11.89,6.2s-11.63-3.21-11.89-6.2ZM59,28.92c0,3.05-4.89,6.45-11.92,6.45s-11.92-3.4-11.92-6.45,4.89-6.45,11.92-6.45,11.92,3.4,11.92,6.45ZM47.72,17.49c-.21,0-.42-.02-.63-.02-1.62,0-3.18.16-4.66.43V5h5.29v12.5ZM5,5h5.91v23h-5.91V5ZM47.08,59c-6.73,0-11.5-3.12-11.88-6.07,3.03,2.01,7.21,3.23,11.88,3.23s8.85-1.23,11.88-3.23c-.38,2.95-5.15,6.07-11.88,6.07ZM26.36,22.81c-3.42,0-6.2-2.82-6.2-6.29s2.78-6.29,6.2-6.29,6.21,2.82,6.21,6.29-2.78,6.29-6.21,6.29Z" fill="#1e1e1c"/>
</svg>