<?xml version="1.0" encoding="UTF-8"?>
<svg id="a" data-name="3219" xmlns="http://www.w3.org/2000/svg" viewBox="0 0 16 16">
  <path d="M5.58,4.5c-.83,0-1.5.67-1.5,1.5s.67,1.5,1.5,1.5,1.5-.67,1.5-1.5-.67-1.5-1.5-1.5ZM10.35,4.5c-.83,0-1.5.67-1.5,1.5s.67,1.5,1.5,1.5,1.5-.67,1.5-1.5-.67-1.5-1.5-1.5ZM13.76,0H2.17C.92,0-.09,1.01-.09,2.25v7.9c0,1.24,1.01,2.25,2.25,2.25h6.29l2.08,3.6,2.08-3.6h1.13c1.24,0,2.25-1.01,2.25-2.25V2.25C16.01,1.01,15,0,13.76,0ZM14.51,10.14c0,.41-.34.75-.75.75h-2l-1.22,2.1-1.22-2.1H2.17c-.41,0-.75-.34-.75-.75V2.25c0-.41.34-.75.75-.75h11.59c.41,0,.75.34.75.75v7.9Z" fill="#1e1e1c"/>
</svg>