<?xml version="1.0" encoding="UTF-8"?>
<svg id="a" data-name="3219" xmlns="http://www.w3.org/2000/svg" viewBox="0 0 40 40.13">
  <path d="M34.93,0H4.98C2.21,0-.05,2.27-.05,5.05v20.58c0,2.78,2.25,5.04,5.03,5.04h15.59l5.56,9.33,5.56-9.33h3.25c2.77,0,5.03-2.26,5.03-5.04V5.05C39.95,2.27,37.7,0,34.93,0ZM14.09,17.93c-1.7,0-3.08-1.38-3.08-3.08s1.38-3.08,3.08-3.08,3.08,1.38,3.08,3.08-1.38,3.08-3.08,3.08ZM25.81,17.93c-1.7,0-3.08-1.38-3.08-3.08s1.38-3.08,3.08-3.08,3.08,1.38,3.08,3.08-1.38,3.08-3.08,3.08Z" fill="#1e1e1c"/>
</svg>