<?xml version="1.0" encoding="UTF-8"?>
<svg id="a" data-name="3219" xmlns="http://www.w3.org/2000/svg" viewBox="0 0 40 40">
  <path d="M17.13,14.83c0,1.7-1.38,3.08-3.07,3.08s-3.07-1.38-3.07-3.08,1.38-3.08,3.07-3.08,3.07,1.38,3.07,3.08ZM25.74,11.75c-1.69,0-3.07,1.38-3.07,3.08s1.38,3.08,3.07,3.08,3.07-1.38,3.07-3.08-1.38-3.08-3.07-3.08ZM39.92,5.04v20.58c0,2.78-2.25,5.04-5.02,5.04h-3.3l-5.55,9.33-5.55-9.33H4.94C2.18,30.67-.08,28.41-.08,25.63V5.04C-.08,2.26,2.18,0,4.94,0h29.96c2.77,0,5.02,2.26,5.02,5.04ZM37.68,5.04c0-1.54-1.25-2.79-2.78-2.79H4.94c-1.53,0-2.78,1.25-2.78,2.79v20.58c0,1.54,1.25,2.79,2.78,2.79h16.84l4.28,7.19,4.28-7.19h4.57c1.53,0,2.78-1.25,2.78-2.79V5.04Z" fill="#1e1e1c"/>
</svg>