<?xml version="1.0" encoding="UTF-8"?>
<svg id="a" data-name="3219" xmlns="http://www.w3.org/2000/svg" viewBox="0 0 24 24">
  <path d="M20.83,0H3.17C1.42,0,0,1.45,0,3.22v12.25c0,1.77,1.42,3.22,3.17,3.22h9.8l3.03,5.31,3.03-5.31h1.8c1.75,0,3.17-1.45,3.17-3.22V3.22c0-1.77-1.42-3.22-3.17-3.22ZM8.46,11.11c-1.12,0-2.03-.91-2.03-2.03s.91-2.03,2.03-2.03,2.03.91,2.03,2.03-.91,2.03-2.03,2.03ZM15.54,11.11c-1.12,0-2.03-.91-2.03-2.03s.91-2.03,2.03-2.03,2.03.91,2.03,2.03-.91,2.03-2.03,2.03Z" fill="#1e1e1c"/>
</svg>