<?xml version="1.0" encoding="UTF-8"?>
<svg id="a" data-name="3219" xmlns="http://www.w3.org/2000/svg" viewBox="0 0 32 32">
  <path d="M27.88-.11H4.07C1.81-.1-.03,1.75-.03,4.04v16.46c0,2.28,1.84,4.14,4.1,4.14h12.33l4.46,7.26,4.46-7.26h2.54c2.26,0,4.1-1.86,4.1-4.15V4.03C31.97,1.75,30.14-.11,27.88-.11ZM11.01,14.45c-1.41,0-2.55-1.15-2.55-2.55s1.15-2.55,2.55-2.55,2.55,1.15,2.55,2.55-1.15,2.55-2.55,2.55ZM20.92,14.45c-1.41,0-2.55-1.15-2.55-2.55s1.15-2.55,2.55-2.55,2.55,1.15,2.55,2.55-1.15,2.55-2.55,2.55Z" fill="#1e1e1c"/>
</svg>