<?xml version="1.0" encoding="UTF-8"?>
<svg id="a" data-name="3219" xmlns="http://www.w3.org/2000/svg" viewBox="0 0 32 32">
  <path d="M32-.02v9.89c0,.97-.78,1.75-1.75,1.75s-1.75-.78-1.75-1.75v-3.91l-7.26,7.26-2.48-2.48,7.26-7.26h-3.91c-.97,0-1.75-.78-1.75-1.75S21.14-.02,22.11-.02h9.89ZM9.89,3.49c.97,0,1.75-.78,1.75-1.75S10.86-.02,9.89-.02H0v9.89c0,.97.78,1.75,1.75,1.75s1.75-.78,1.75-1.75v-3.91l7.26,7.26,2.48-2.48L5.98,3.49h3.91ZM30.25,20.69c-.97,0-1.75.78-1.75,1.75v3.56l-7.24-7.24-2.48,2.48,7.24,7.24h-3.91c-.97,0-1.75.78-1.75,1.75s.78,1.75,1.75,1.75h9.89v-9.55c0-.97-.78-1.75-1.75-1.75ZM10.77,18.74l-7.26,7.26v-3.91c0-.97-.78-1.75-1.75-1.75S0,21.12,0,22.09v9.89h9.89c.97,0,1.75-.78,1.75-1.75s-.78-1.75-1.75-1.75h-3.91l7.26-7.26-2.48-2.48Z" fill="#1e1e1c"/>
</svg>