<?xml version="1.0" encoding="UTF-8"?>
<svg id="a" data-name="3219" xmlns="http://www.w3.org/2000/svg" viewBox="0 0 40 40">
  <path d="M40-.06v12.28c0,1.1-.9,2-2,2s-2-.9-2-2v-5.45l-9.54,9.53-2.83-2.83,9.54-9.53h-5.45c-1.1,0-2-.9-2-2S26.61-.06,27.72-.06h12.29ZM12.29,3.97c1.1,0,2-.9,2-2S13.4-.04,12.29-.04H0v12.28c0,1.1.9,2,2,2s2-.9,2-2v-5.45l9.54,9.53,2.83-2.83L6.84,3.97h5.45ZM38,26.1c-1.1,0-2,.9-2,2v5.01l-9.54-9.53-2.83,2.83,9.54,9.53h-5.45c-1.1,0-2,.9-2,2s.9,2,2,2h12.29v-11.84c0-1.1-.9-2-2-2ZM13.54,23.58l-9.54,9.53v-5.45c0-1.1-.9-2-2-2S0,26.55,0,27.66v12.28h12.29c1.1,0,2-.9,2-2s-.9-2-2-2h-5.45l9.54-9.53-2.83-2.83Z" fill="#1e1e1c"/>
</svg>