<?xml version="1.0" encoding="UTF-8"?>
<svg id="a" data-name="3219" xmlns="http://www.w3.org/2000/svg" viewBox="0 0 64 64">
  <path d="M63.99,0v18.87c0,.76-.62,1.38-1.38,1.38s-1.38-.62-1.38-1.38V4.7l-19.69,19.68-1.95-1.95L59.29,2.75h-14.18c-.76,0-1.38-.62-1.38-1.38s.62-1.38,1.38-1.38h18.87ZM18.88,2.79c.76,0,1.38-.62,1.38-1.38S19.64.04,18.88.04H0v18.87c0,.76.62,1.38,1.38,1.38s1.38-.62,1.38-1.38V4.73l19.69,19.68,1.95-1.95L4.7,2.79h14.18ZM62.61,44.5c-.76,0-1.38.62-1.38,1.38v13.42l-19.69-19.68-1.95,1.95,19.69,19.68h-14.18c-.76,0-1.38.62-1.38,1.38s.62,1.38,1.38,1.38h18.87v-18.12c0-.76-.62-1.38-1.38-1.38ZM22.42,39.62L2.74,59.3v-14.18c0-.76-.62-1.38-1.38-1.38S-.01,44.37-.01,45.13v18.87h18.87c.76,0,1.38-.62,1.38-1.38s-.62-1.38-1.38-1.38H4.68l19.69-19.68-1.95-1.95Z" fill="#1e1e1c"/>
</svg>