<?xml version="1.0" encoding="UTF-8"?>
<svg id="a" data-name="3219" xmlns="http://www.w3.org/2000/svg" viewBox="0 0 48 48">
  <path d="M48,0v14.57c0,1.1-.89,2-2,2s-2-.89-2-2v-7.75l-12.43,12.42-2.82-2.82,12.43-12.42h-7.76c-1.1,0-2-.89-2-2S32.33,0,33.43,0h14.57ZM14.58,4.02c1.1,0,2-.89,2-2S15.68.03,14.58.03H.01v14.57c0,1.1.89,2,2,2s2-.89,2-2v-7.75l12.43,12.42,2.82-2.82L6.83,4.02h7.76ZM46,31.97c-1.1,0-2,.89-2,2v7.21l-12.43-12.42-2.82,2.82,12.43,12.42h-7.76c-1.1,0-2,.89-2,2s.89,2,2,2h14.57v-14.03c0-1.1-.89-2-2-2ZM16.42,28.76l-12.43,12.42v-7.75c0-1.1-.89-2-2-2S0,32.33,0,33.43v14.57h14.57c1.1,0,2-.89,2-2s-.89-2-2-2h-7.76l12.43-12.42-2.82-2.82Z" fill="#1e1e1c"/>
</svg>