<?xml version="1.0" encoding="UTF-8"?>
<svg id="a" data-name="3219" xmlns="http://www.w3.org/2000/svg" viewBox="0 0 32 32">
  <path d="M0,0V31.99h32V0H0ZM8.13,4.5l2.04-2.04c.66-.66,1.75-.66,2.41,0l1.4,1.39-4.45,4.45-1.4-1.4c-.32-.32-.5-.75-.5-1.21,0-.46.18-.88.5-1.2ZM9.23,30.02c-.71.31-1.46.46-2.2.46-1.43,0-2.83-.56-3.89-1.62-1.61-1.61-2.06-4-1.16-6.09.22-.51.81-.74,1.31-.52.51.22.74.81.52,1.31-.58,1.34-.29,2.86.74,3.89,1.03,1.02,2.55,1.31,3.89.74.51-.22,1.1.02,1.31.52.22.51-.02,1.1-.52,1.31ZM10.92,26.55c-.54.23-1.1.34-1.66.34-1.08,0-2.14-.42-2.94-1.22-1.21-1.21-1.56-3.02-.88-4.6.22-.51.81-.74,1.31-.52.51.22.74.81.52,1.31-.35.82-.18,1.76.45,2.39.63.63,1.57.81,2.39.45.5-.21,1.1.02,1.31.52.22.51-.02,1.1-.52,1.31ZM19.79,18.57l1.52-1.52-1.24-1.24-1.15,1.15-1.22-1.22-.65.65c.69.97,1.08,2.12,1.08,3.33,0,1.54-.6,2.99-1.69,4.07l-.71.71-3.42-3.42-.7.7c.05.47-.09.95-.45,1.31-.3.3-.71.47-1.14.47h0c-.43,0-.83-.17-1.14-.47-.63-.63-.63-1.65,0-2.27.3-.3.71-.47,1.14-.47h0c.06,0,.12.01.18.02l.7-.7-3.32-3.32.71-.71c1.99-1.99,5.09-2.21,7.34-.66l.66-.66-1.27-1.27,1.15-1.15-1.25-1.25-1.52,1.52-2.46-2.46,4.45-4.45,2.46,2.46-1.52,1.52,1.25,1.25,1.37-1.37,1.27,1.27,1.12-1.12-2.02-2.02,4.33-4.33c.3-.3.7-.47,1.12-.47h0c.41,0,.8.16,1.09.45l3.2,3.2c.29.29.45.68.45,1.1s-.17.82-.47,1.13l-4.32,4.32-1.97-1.97-1.12,1.12,1.22,1.22-1.37,1.37,1.24,1.24,1.52-1.52,2.53,2.53-4.45,4.45-2.53-2.53ZM29.51,21.8l-2.04,2.04c-.33.33-.77.5-1.21.5s-.87-.17-1.21-.5l-1.32-1.32,4.45-4.45,1.32,1.32c.32.32.5.75.5,1.21,0,.46-.18.88-.5,1.2Z" fill="#1d1d1b"/>
</svg>