<?xml version="1.0" encoding="UTF-8"?>
<svg id="a" data-name="3219" xmlns="http://www.w3.org/2000/svg" viewBox="0 0 16 16">
  <path d="M11.82,8.64l-1.08,1.08-.82-.83,1.18-1.18.93.93,3.62-3.63c.49-.49.49-1.28,0-1.77L12.79.37c-.49-.49-1.28-.49-1.76,0l-3.62,3.63.88.88-1.18,1.18-.82-.82,1.08-1.08L3.59.39C3.1-.1,2.31-.1,1.83.39L.38,1.84c-.49.49-.49,1.28,0,1.77l3.76,3.77,1.08-1.08.82.82-1.46,1.46c-.36-.1-.74-.17-1.12-.17-1.1,0-2.13.43-2.91,1.21L.01,10.15l2.38,2.39-.97.98c-.37-.05-.76.05-1.04.34-.48.49-.48,1.28,0,1.77.24.24.56.37.88.37s.64-.12.88-.37c.28-.28.38-.67.33-1.04l.97-.98,2.38,2.39.53-.53c.78-.78,1.21-1.82,1.21-2.92,0-.39-.07-.76-.17-1.13l1.46-1.46.82.83-1.08,1.08,3.76,3.77c.24.24.56.36.88.36s.64-.12.88-.36l1.44-1.45c.49-.49.49-1.28,0-1.77l-3.76-3.77ZM2.71,1.63l.78.79-1.09,1.09-.78-.79,1.09-1.09ZM3.46,4.57l1.09-1.1.68.69-1.09,1.09-.68-.69ZM11.9,1.61l.7.7-1.68,1.68,1.06,1.06,1.68-1.68.75.75-2.39,2.4-2.51-2.52,2.39-2.4ZM5.76,13.8l-3.56-3.57c.98-.53,2.3-.36,3.11.45.5.5.77,1.16.77,1.86,0,.44-.11.87-.32,1.25ZM6.02,9.27l3.32-3.33.71.71-3.32,3.33-.71-.71ZM11.82,10.76l.73.74-1.09,1.1-.73-.74,1.09-1.09ZM13.25,14.39l-.73-.74,1.09-1.1.73.74-1.09,1.1Z" fill="#1e1e1c"/>
</svg>