<?xml version="1.0" encoding="UTF-8"?>
<svg id="a" data-name="3219" xmlns="http://www.w3.org/2000/svg" viewBox="0 0 32 32">
  <path d="M25.01,15.15l-1.87,1.87-1.85-1.85,2.48-2.48,1.57,1.57,6.1-6.09c.35-.35.55-.82.55-1.32s-.2-.97-.55-1.32l-1.72-1.72.02-.02-1.42-1.42-.02.02-1.85-1.85c-.73-.73-1.92-.73-2.64,0l-6.1,6.09,1.57,1.57-2.48,2.48-1.87-1.87,1.87-1.87L10.47.61c-.73-.73-1.91-.73-2.64,0l-2.52,2.51c-.35.35-.55.82-.55,1.32s.19.97.55,1.32l6.34,6.33,1.87-1.87,1.87,1.87-1.52,1.52c-2.37-.74-5.05-.18-6.92,1.69l-.71.71,4.15,4.15-1.11,1.11c-.55-.09-1.13.07-1.53.47-.33.33-.51.77-.51,1.24s.18.91.51,1.24c.33.33.77.51,1.24.51s.91-.18,1.24-.51c.33-.33.51-.77.51-1.24,0-.1-.01-.21-.03-.31l1.09-1.09,4.15,4.15.71-.71c1.87-1.87,2.43-4.56,1.69-6.92l1.52-1.52,1.85,1.85-1.87,1.87,6.33,6.33c.35.35.82.55,1.32.55s.97-.19,1.32-.55l2.52-2.51c.73-.73.73-1.91,0-2.64l-6.34-6.33ZM9.14,2.12l1.79,1.79-2.33,2.33-1.79-1.79,2.33-2.33ZM10.02,7.65l2.33-2.33,1.62,1.62-2.33,2.33-1.62-1.62ZM20.54,6.63l4.59-4.59,1.75,1.75-2.31,2.31,1.42,1.42,2.31-2.31,1.63,1.63-4.59,4.59-.15-.15-4.49-4.49-.15-.15ZM22.35,11.27l-4.83,4.83-1.66-1.66,4.83-4.83,1.66,1.66ZM15.87,22.83l-6.74-6.74c1.89-1.23,4.45-1.02,6.11.63,1.66,1.66,1.87,4.22.63,6.11ZM25.01,17.98l1.7,1.7-2.33,2.33-1.71-1.7,2.33-2.33ZM27.51,25.13l-1.7-1.7,2.33-2.33,1.71,1.7-2.33,2.33ZM10.09,30.11c.22.51-.02,1.1-.52,1.32-.89.38-1.82.57-2.74.57-1.78,0-3.52-.69-4.84-2.01C0,27.98-.57,25.01.55,22.41c.22-.51.81-.74,1.32-.52.51.22.74.81.52,1.32-.79,1.85-.39,3.95,1.02,5.37,1.42,1.41,3.52,1.82,5.37,1.02.51-.21,1.1.02,1.32.52ZM11.43,26.46c.22.51-.02,1.1-.53,1.31-.66.28-1.35.42-2.04.42-1.32,0-2.62-.52-3.6-1.5-1.49-1.49-1.91-3.7-1.08-5.63.22-.51.81-.74,1.32-.52.51.22.74.81.52,1.32-.51,1.18-.25,2.52.65,3.43.9.9,2.25,1.16,3.43.65.51-.22,1.1.02,1.32.52Z" fill="#1e1e1c"/>
</svg>