<?xml version="1.0" encoding="UTF-8"?>
<svg id="a" data-name="3219" xmlns="http://www.w3.org/2000/svg" viewBox="0 0 64 64">
  <path d="M49.86,32.7l-4,4-5.03-5.03,6.38-6.38,3.35,3.35,12.48-12.48c1.26-1.26,1.26-3.31,0-4.57L52.4.95c-1.26-1.26-3.31-1.26-4.57,0l-12.48,12.48,3.35,3.35-6.38,6.38-5.06-5.07,4-4L18.27,1.11c-1.22-1.22-3.35-1.22-4.57,0l-5.37,5.37c-1.26,1.26-1.26,3.31,0,4.57l12.99,12.99,4-4,5.06,5.07-4.13,4.13c-4.89-1.71-10.55-.63-14.45,3.27l-.97.97,8.87,8.87-1.79,1.79c-1.02-.32-2.18-.09-2.99.72-1.16,1.16-1.16,3.05,0,4.21.56.56,1.31.87,2.11.87s1.55-.31,2.11-.87c.81-.81,1.04-1.97.72-2.99l1.79-1.79,8.87,8.87.97-.97c2.63-2.63,4.08-6.13,4.08-9.84,0-1.6-.28-3.15-.8-4.61l4.12-4.12,5.03,5.03-4,4,12.99,12.99c.61.61,1.42.95,2.29.95s1.68-.34,2.29-.95l5.37-5.37c1.26-1.26,1.26-3.31,0-4.57l-12.99-12.99ZM10.27,8.43l5.37-5.37c.12-.12.26-.14.34-.14s.22.02.34.14l4.56,4.56-6.05,6.05-4.56-4.56c-.19-.19-.19-.49,0-.68ZM16.78,15.62l6.05-6.05,4.53,4.53-6.05,6.05-4.53-4.53ZM49.78,2.9c.19-.19.49-.19.68,0l4.48,4.48-5.47,5.47,1.95,1.95,5.47-5.47,4.22,4.22c.19.19.19.49,0,.68l-10.53,10.53-1.41-1.41h0s-4.25-4.25-4.25-4.25l-5.66-5.66,10.53-10.53ZM40.65,18.73l2.31,2.31,2.31,2.31-11.39,11.39-4.62-4.61,11.39-11.39ZM30.45,49.22l-15.67-15.67c4.38-3.42,10.74-3.11,14.76.91,2.11,2.11,3.27,4.91,3.27,7.9,0,2.52-.83,4.91-2.36,6.86ZM49.86,36.6l4.72,4.72-6.05,6.05-4.72-4.72,6.05-6.05ZM60.91,48.32l-5.37,5.37c-.12.12-.26.14-.34.14s-.22-.02-.34-.14l-4.38-4.38,6.05-6.05,4.38,4.38c.19.19.19.49,0,.68ZM20.12,61.05c.3.7-.02,1.51-.72,1.81-1.8.77-3.68,1.15-5.54,1.15-3.6,0-7.13-1.41-9.8-4.07C.02,55.89-1.13,49.87,1.14,44.59c.3-.7,1.11-1.02,1.81-.72.7.3,1.02,1.11.72,1.81-1.82,4.23-.9,9.06,2.34,12.3,3.24,3.24,8.07,4.16,12.3,2.34.7-.3,1.51.02,1.81.72ZM21.91,54.33c.3.7-.02,1.51-.72,1.81-1.31.56-2.69.84-4.05.84-2.63,0-5.2-1.03-7.15-2.97-2.95-2.95-3.79-7.35-2.14-11.2.3-.7,1.11-1.02,1.81-.72.7.3,1.02,1.11.72,1.81-1.21,2.81-.6,6.01,1.55,8.16,2.15,2.15,5.35,2.76,8.16,1.55.7-.3,1.51.02,1.81.72Z" fill="#1e1e1c"/>
</svg>