<?xml version="1.0" encoding="UTF-8"?>
<svg id="a" data-name="3219" xmlns="http://www.w3.org/2000/svg" viewBox="0 0 64 64">
  <path d="M40.96,63.77h-17.95v-9.43c-2.1-.85-4.07-1.99-5.87-3.41l-8.18,4.72L-.02,40.11l8.11-4.68c-.19-1.22-.28-2.36-.28-3.43s.09-2.21.28-3.43L-.02,23.89l8.97-15.55,8.18,4.72c1.8-1.42,3.77-2.56,5.87-3.41V.22h17.95v9.43c2.1.85,4.07,1.99,5.88,3.41l8.18-4.72,8.98,15.54-8.11,4.68c.19,1.23.28,2.36.28,3.43s-.09,2.2-.28,3.43l8.11,4.68-8.98,15.55-8.18-4.72c-1.8,1.42-3.77,2.56-5.87,3.41v9.43ZM25.76,61.02h12.45v-8.59l.91-.33c2.44-.87,4.68-2.17,6.68-3.88l.74-.63,7.46,4.31,6.23-10.78-7.39-4.27.18-.96c.27-1.46.4-2.7.4-3.9s-.13-2.46-.4-3.9l-.18-.96,7.4-4.27-6.22-10.78-7.46,4.31-.74-.63c-2-1.71-4.25-3.01-6.68-3.88l-.91-.33V2.97h-12.45v8.59l-.91.33c-2.43.87-4.68,2.17-6.68,3.88l-.74.63-7.46-4.31-6.22,10.78,7.4,4.27-.18.96c-.27,1.44-.4,2.71-.4,3.89s.13,2.46.4,3.89l.18.96-7.4,4.27,6.22,10.78,7.46-4.31.74.63c2,1.71,4.25,3.01,6.68,3.88l.91.33v8.6ZM31.99,44.16c-6.71,0-12.16-5.46-12.16-12.16s5.46-12.16,12.16-12.16,12.16,5.46,12.16,12.16-5.46,12.16-12.16,12.16ZM31.99,22.58c-5.19,0-9.41,4.22-9.41,9.41s4.22,9.41,9.41,9.41,9.41-4.22,9.41-9.41-4.22-9.41-9.41-9.41Z" fill="#1e1e1c"/>
</svg>