<?xml version="1.0" encoding="UTF-8"?>
<svg id="a" data-name="3219" xmlns="http://www.w3.org/2000/svg" viewBox="0 0 32 32">
  <path d="M20.71,31.51h-9.4v-4.61c-.9-.38-1.74-.86-2.53-1.44l-4.07,2.31L.01,19.75l4.03-2.29c-.07-.51-.11-1-.11-1.46s.03-.94.11-1.46L.01,12.25,4.71,4.24l4.07,2.31c.79-.58,1.63-1.07,2.53-1.44V.49h9.4v4.61c.9.38,1.74.86,2.53,1.45l4.07-2.31,4.7,8.01-4.03,2.29c.07.51.11,1,.11,1.46s-.03.94-.11,1.46l4.03,2.29-4.7,8.02-4.07-2.31c-.79.58-1.63,1.07-2.53,1.44v4.61ZM13.34,29.51h5.34v-4l.67-.24c1.14-.4,2.2-1,3.13-1.79l.55-.46,3.53,2.01,2.67-4.55-3.5-1.99.13-.69c.13-.68.19-1.25.19-1.8s-.06-1.12-.19-1.8l-.13-.69,3.5-1.99-2.67-4.55-3.53,2-.55-.46c-.94-.79-1.99-1.39-3.13-1.79l-.67-.24V2.49h-5.34v4l-.67.24c-1.14.4-2.19,1-3.13,1.79l-.55.46-3.53-2.01-2.67,4.55,3.5,1.99-.13.69c-.13.68-.19,1.25-.19,1.8s.06,1.12.19,1.8l.13.69-3.5,1.99,2.67,4.55,3.53-2.01.55.46c.94.79,1.99,1.39,3.13,1.79l.67.24v4ZM16.01,22.15c-3.45,0-6.25-2.76-6.25-6.15s2.8-6.15,6.25-6.15,6.25,2.76,6.25,6.15-2.8,6.15-6.25,6.15ZM16.01,11.85c-2.33,0-4.22,1.86-4.22,4.15s1.89,4.15,4.22,4.15,4.22-1.86,4.22-4.15-1.89-4.15-4.22-4.15Z" fill="#1e1e1c"/>
</svg>