<?xml version="1.0" encoding="UTF-8"?>
<svg id="a" data-name="3219" xmlns="http://www.w3.org/2000/svg" viewBox="0 0 16 16">
  <path d="M10.49,15.79h-5.02v-2.33c-.34-.16-.66-.34-.96-.56l-2.02,1.17L-.02,9.72l2-1.16c-.02-.2-.03-.38-.03-.57s.01-.37.03-.57L-.02,6.28,2.49,1.93l2.02,1.17c.3-.22.62-.4.96-.56V.21h5.02v2.33c.34.16.66.34.96.56l2.02-1.17,2.51,4.35-2,1.16c.02.2.03.38.03.57s-.01.37-.03.57l2,1.16-2.51,4.35-2.02-1.17c-.3.22-.62.4-.96.56v2.33ZM6.97,14.29h2.02v-1.86l.5-.18c.52-.18.99-.46,1.41-.82l.4-.34,1.62.94,1.01-1.75-1.6-.93.1-.52c.06-.3.08-.57.08-.82s-.03-.51-.08-.83l-.1-.52,1.6-.93-1.01-1.75-1.62.93-.4-.34c-.42-.36-.9-.64-1.42-.82l-.5-.18v-1.86h-2.02v1.86l-.5.18c-.52.18-.99.46-1.41.82l-.4.34-1.62-.94-1.01,1.75,1.6.93-.1.52c-.06.31-.08.57-.08.83s.03.51.08.83l.1.52-1.6.93,1.01,1.75,1.62-.94.4.34c.42.36.9.64,1.41.82l.5.18v1.87ZM7.98,11.25c-1.79,0-3.25-1.46-3.25-3.25s1.46-3.25,3.25-3.25,3.25,1.46,3.25,3.25-1.46,3.25-3.25,3.25ZM7.98,6.25c-.96,0-1.75.79-1.75,1.75s.78,1.75,1.75,1.75,1.75-.79,1.75-1.75-.78-1.75-1.75-1.75Z" fill="#1e1e1c"/>
</svg>