<?xml version="1.0" encoding="UTF-8"?>
<svg id="a" data-name="3219" xmlns="http://www.w3.org/2000/svg" viewBox="0 0 16 16">
  <path d="M7.85,4.53c1.24,0,2.25-1.01,2.25-2.25S9.09.02,7.85.02s-2.25,1.01-2.25,2.25,1.01,2.25,2.25,2.25ZM7.85,1.52c.41,0,.75.34.75.75s-.34.75-.75.75-.75-.34-.75-.75.34-.75.75-.75ZM13.79,8.51c-.18-.49-.65-.81-1.17-.81h-2.04v-1.4c0-.69-.56-1.25-1.25-1.25h-2.61c-.69,0-1.25.56-1.25,1.25v4.34c0,.69.56,1.25,1.25,1.25h2.94s0,.87,0,.87c-.55,1.09-1.64,1.76-2.85,1.76-1.76,0-3.2-1.44-3.2-3.21,0-1.03.47-1.96,1.29-2.58.33-.25.4-.72.15-1.05-.25-.33-.71-.4-1.05-.15-1.19.89-1.9,2.3-1.9,3.78,0,2.6,2.11,4.71,4.7,4.71,1.08,0,2.09-.37,2.9-1.01h2.92c.69,0,1.25-.56,1.25-1.25v-4.76c0-.16-.03-.32-.1-.48ZM12.38,13.5h-1.22v-3.14h-4.19s0-3.82,0-3.82h2.11v2.65h3.31v4.3ZM12.38,9.04v-.07s0,.08,0,.08c0,0,0,0,0,0Z" fill="#1e1e1c"/>
</svg>