<?xml version="1.0" encoding="UTF-8"?>
<svg id="a" data-name="3219" xmlns="http://www.w3.org/2000/svg" viewBox="0 0 48 48">
  <path d="M18.7,5.98C18.7,2.69,21.37.02,24.65.02s5.95,2.67,5.95,5.96-2.67,5.96-5.95,5.96-5.95-2.67-5.95-5.96ZM40.1,25.93c-.41-1.11-1.46-1.85-2.62-1.85h-5.41v-7.3c0-1.56-1.26-2.82-2.82-2.82h-9.21c-1.55,0-2.81,1.27-2.81,2.83l.11,15.37c.02,2.35,1.93,4.25,4.27,4.25h2.09v-14.66c0-.69.56-1.25,1.25-1.25s1.25.56,1.25,1.25v11.17h5.2s0,3.87,0,3.87c-.39.22-.71.55-.92.98-1.71,3.53-5.2,5.72-9.11,5.72-5.58,0-10.12-4.55-10.12-10.15,0-3.24,1.49-6.21,4.09-8.15,1-.74,1.21-2.16.46-3.16-.74-1-2.15-1.21-3.15-.47-3.7,2.76-5.91,7.16-5.91,11.78,0,8.08,6.56,14.66,14.62,14.66,3.9,0,7.6-1.6,10.3-4.28h6.37c1.26,0,2.29-1.03,2.29-2.3v-14.39c0-.38-.08-.75-.23-1.11Z" fill="#1e1e1c"/>
</svg>