<?xml version="1.0" encoding="UTF-8"?>
<svg id="a" data-name="3219" xmlns="http://www.w3.org/2000/svg" viewBox="0 0 48 48">
  <path d="M24.6,11.92c3.28,0,5.95-2.68,5.95-5.97S27.88-.02,24.6-.02s-5.95,2.68-5.95,5.97,2.67,5.97,5.95,5.97ZM24.6,2.49c1.9,0,3.45,1.55,3.45,3.46s-1.55,3.46-3.45,3.46-3.45-1.55-3.45-3.46,1.55-3.46,3.45-3.46ZM40.05,25.94c-.41-1.11-1.46-1.85-2.62-1.85h-5.41v-7.31c0-1.56-1.26-2.83-2.82-2.83h-9.21c-1.55,0-2.81,1.27-2.81,2.84l.11,15.4c.02,2.35,1.93,4.26,4.27,4.26h4.58v-3.5h5.2s0,6.2,0,6.2c0,0-.01.02-.02.03-1.88,3.89-5.71,6.3-10.01,6.3-6.13,0-11.12-5.01-11.12-11.17,0-3.57,1.64-6.84,4.5-8.97.55-.41.67-1.2.26-1.76-.41-.56-1.2-.67-1.75-.26-3.45,2.57-5.5,6.68-5.5,10.99,0,7.54,6.11,13.68,13.62,13.68,3.84,0,7.48-1.67,10.03-4.44v.22h6.64c1.26,0,2.29-1.03,2.29-2.3v-14.42c0-.37-.08-.75-.23-1.11ZM37.78,41.25h-3.93v-10.83l-7.7.02v-8.52h-2.5v8.52h0v3.48h-2.08s0,0,0,0c-.97,0-1.77-.79-1.77-1.77l-.11-15.39c0-.17.14-.32.31-.32h9.21c.17,0,.32.14.32.32v9.82h7.91c.15,0,.25.11.28.22l.04.1c.02.05.03.09.03.13v14.21Z" fill="#1e1e1c"/>
</svg>