<?xml version="1.0" encoding="UTF-8"?>
<svg id="a" data-name="3219" xmlns="http://www.w3.org/2000/svg" viewBox="0 0 16 16">
  <path d="M5.65,2.3C5.65,1.06,6.66.04,7.9.04s2.25,1.01,2.25,2.26-1.01,2.26-2.25,2.26-2.25-1.01-2.25-2.26ZM13.83,8.56c-.18-.49-.65-.82-1.17-.82h-2.04v-1.41c0-.69-.56-1.26-1.25-1.26h-2.61c-.69,0-1.25.56-1.25,1.26v4.71c0,.69.56,1.26,1.25,1.26h1.38c-.02-.05-.03-.1-.03-.16v-3.89c0-.28.22-.5.5-.5s.5.22.5.5v3.89c0,.05-.01.1-.03.15h0s0,0,0,0c-.04.13-.13.23-.25.29-.5.57-1.2.93-1.98.93-1.49,0-2.7-1.22-2.7-2.71,0-.66.24-1.29.67-1.78.45-.52.4-1.32-.12-1.77-.52-.46-1.31-.4-1.76.12-.83.95-1.28,2.17-1.28,3.44,0,2.88,2.33,5.23,5.2,5.23,1.11,0,2.14-.35,3-.97h2.82c.69,0,1.25-.56,1.25-1.26v-4.77c0-.16-.03-.32-.1-.48Z" fill="#1e1e1c"/>
</svg>