<?xml version="1.0" encoding="UTF-8"?>
<svg id="a" data-name="3219" xmlns="http://www.w3.org/2000/svg" viewBox="0 0 32 32">
  <path d="M12.38,4.13C12.38,1.86,14.22.01,16.49.01s4.11,1.85,4.11,4.12-1.84,4.12-4.11,4.12-4.11-1.85-4.11-4.12ZM26.88,17.28c-.3-.8-1.05-1.33-1.9-1.33h-3.41v-4.66c0-1.13-.91-2.04-2.04-2.04h-6.1c-1.12,0-2.04.92-2.04,2.05l.07,9.51c.01,1.65,1.36,2.99,3,2.99h1.21v-8.78c0-.55.45-1,1-1s1,.45,1,1v7.13h3.1s0,1.98,0,1.98c-.28.17-.52.42-.67.73-1.09,2.25-3.31,3.64-5.79,3.64-3.55,0-6.44-2.9-6.44-6.45,0-1.88.82-3.67,2.24-4.9.73-.63.82-1.74.18-2.48-.63-.74-1.74-.82-2.47-.19-2.2,1.9-3.46,4.65-3.46,7.56,0,5.49,4.46,9.97,9.94,9.97,2.55,0,4.96-1.02,6.78-2.72h4.26c.93,0,1.69-.76,1.69-1.7v-9.53c0-.27-.05-.54-.16-.79Z" fill="#1e1e1c"/>
</svg>