<?xml version="1.0" encoding="UTF-8"?>
<svg id="a" data-name="3219" xmlns="http://www.w3.org/2000/svg" viewBox="0 0 24 24">
  <path d="M2.61,4.01C1.17,4.01,0,5.18-.01,6.63V2.38C-.01,1.07,1.05,0,2.37,0h9.13c.95,0,1.81.57,2.19,1.44l1.1,2.56H2.61ZM23.99,7.64v12.88H1.24V6.64c0-.76.62-1.38,1.38-1.38h14.97s4.03,0,4.03,0c1.31,0,2.38,1.07,2.38,2.38ZM17.9,14.65l-5.4-5.39-5.4,5.39c-.34.34-.34.9,0,1.24.34.34.9.34,1.24,0l3.28-3.28v7.89h1.75v-7.89l3.28,3.28c.17.17.4.26.62.26s.45-.08.62-.26c.34-.34.34-.9,0-1.24ZM11.62,24.01h1.75v-3.49h-1.75v3.49Z"/>
</svg>