<?xml version="1.0" encoding="UTF-8"?>
<svg id="a" data-name="3219" xmlns="http://www.w3.org/2000/svg" viewBox="0 0 40 40">
  <path d="M4.58,6.5C2.06,6.5.01,8.55.01,11.06v22.46H-.01V3.38C-.01,1.52,1.5,0,3.36,0h15.63c1.35,0,2.57.8,3.1,2.05l1.9,4.45H4.58ZM39.99,33.52h-18.25v6.49h-2.25v-6.49H2.26V11.06c0-1.28,1.04-2.31,2.31-2.31h20.4s11.64.01,11.64.01c1.86,0,3.38,1.51,3.38,3.38v21.38ZM29.36,21.48l-8.75-8.75-8.75,8.75c-.44.44-.44,1.15,0,1.59.44.44,1.15.44,1.59,0l6.04-6.04v16.45h2.25v-16.45l6.04,6.04c.22.22.51.33.8.33s.58-.11.8-.33c.44-.44.44-1.15,0-1.59Z" fill="#1e1e1c"/>
</svg>