<?xml version="1.0" encoding="UTF-8"?>
<svg id="a" data-name="3219" xmlns="http://www.w3.org/2000/svg" viewBox="0 0 16 16">
  <path d="M14.75,3.51h-4.26l-1.04-2.44C9.17.43,8.54,0,7.84,0H1.25C.56,0,0,.57,0,1.26v12.77h5.22v-1.5H1.51v-2.25h.01v-4.51c0-.41.34-.75.75-.75h7.74s4.5,0,4.5,0v7.51h-3.76v1.5h5.26V4.77c0-.69-.56-1.25-1.25-1.25ZM1.51,3.66V1.51h6.34c.1,0,.19.06.23.15l.79,1.85H2.27c-.27,0-.52.06-.76.14ZM10.65,10.71l-1.9-1.9v7.2h-1.5v-7.2l-1.9,1.9c-.29.29-.77.29-1.06,0s-.29-.77,0-1.06l3.71-3.72,3.71,3.72c.29.29.29.77,0,1.06-.15.15-.34.22-.53.22s-.38-.07-.53-.22Z" fill="#1e1e1c"/>
</svg>