<?xml version="1.0" encoding="UTF-8"?>
<svg id="a" data-name="3219" xmlns="http://www.w3.org/2000/svg" viewBox="0 0 16 16">
  <path d="M7.73,14.01h1.5v2h-1.5v-2ZM10.05,2.49l-.61-1.42C9.17.42,8.54,0,7.83,0H1.24C.56,0,0,.56,0,1.25v2.68c.03-.8.69-1.44,1.49-1.44h8.56ZM14.75,3.5h-4.26v-.02H1.49c-.28,0-.5.22-.5.5v10.02h6.74v-5.2l-1.9,1.9c-.15.15-.34.22-.53.22s-.38-.07-.53-.22c-.29-.29-.29-.77,0-1.06l3.71-3.71,3.71,3.71c.29.29.29.77,0,1.06s-.77.29-1.06,0l-1.9-1.9v5.2h6.77V4.75c0-.69-.56-1.25-1.25-1.25Z" fill="#1e1e1c"/>
</svg>