<?xml version="1.0" encoding="UTF-8"?>
<svg id="a" data-name="3219" xmlns="http://www.w3.org/2000/svg" viewBox="0 0 32 32">
  <path d="M3.77,5.01C1.7,5.01.02,6.69.02,8.76v18.26H0V3.01C0,1.35,1.35,0,3,0h12.18c1.2,0,2.29.71,2.76,1.82l1.36,3.18H3.77ZM29,7.01H3.77c-.97,0-1.75.79-1.75,1.75v18.26h13.55v-12.1l-4.66,4.66c-.39.39-1.02.39-1.41,0s-.39-1.02,0-1.41l7.07-7.07,7.07,7.07c.39.39.39,1.02,0,1.41-.2.2-.45.29-.71.29s-.51-.1-.71-.29l-4.66-4.66v12.1h14.43V10.01c0-1.66-1.35-3-3-3ZM15.57,32.01h2v-4.96h-2v4.96Z" fill="#1e1f1c"/>
</svg>