<?xml version="1.0" encoding="UTF-8"?>
<svg id="a" data-name="3219" xmlns="http://www.w3.org/2000/svg" viewBox="0 0 48 48">
  <path d="M47.99,16.02c0-2.34-1.91-4.25-4.25-4.25h-13.95s-24.34,0-24.34,0c-1.63,0-2.95,1.32-2.95,2.95v26.56h20.91v6.72h2.5v-6.72s22.08,0,22.08,0v-25.26ZM35.09,32.5c-.24.24-.56.37-.88.37s-.64-.12-.88-.37l-7.42-7.42v16.21s0,0,0,0h-2.5v-16.21s-7.42,7.42-7.42,7.42c-.49.49-1.28.49-1.77,0s-.49-1.28,0-1.77l10.43-10.43,10.44,10.43c.49.49.49,1.28,0,1.77ZM5.45,9.27C2.44,9.27,0,11.72,0,14.72v26.56h0V4.26C0,1.92,1.9.01,4.24.01h17.35c1.65,0,3.16.96,3.85,2.46l3.17,6.8H5.45Z" fill="#1e1e1c"/>
</svg>