<?xml version="1.0" encoding="UTF-8"?>
<svg id="a" data-name="3219" xmlns="http://www.w3.org/2000/svg" viewBox="0 0 64 64">
  <path d="M32,0C14.36,0,0,14.36,0,32s14.36,32,32,32,32-14.36,32-32S49.64,0,32,0ZM32,61.25c-16.13,0-29.25-13.12-29.25-29.25S15.87,2.75,32,2.75s29.25,13.12,29.25,29.25-13.12,29.25-29.25,29.25ZM29.65,36.13l-1.58-12.58v-9.41h8.64v9.41l-1.63,12.58h-5.42ZM37.38,44.33c0,2.54-1.97,4.66-4.99,4.66s-4.99-2.11-4.99-4.66,1.97-4.61,4.99-4.61,4.99,2.16,4.99,4.61Z" fill="#1d1d1b"/>
</svg>