<?xml version="1.0" encoding="UTF-8"?>
<svg id="a" data-name="3219" xmlns="http://www.w3.org/2000/svg" viewBox="0 0 40 40">
  <path d="M19.94,0C8.91,0-.06,8.97-.06,20s8.97,20,20,20,20-8.97,20-20S30.97,0,19.94,0ZM19.94,37.75c-9.78,0-17.75-7.96-17.75-17.75S10.16,2.25,19.94,2.25s17.75,7.96,17.75,17.75-7.96,17.75-17.75,17.75ZM18.52,22.62l-.96-7.58v-5.67h5.21v5.67l-.98,7.58h-3.27ZM23.18,27.73c0,1.53-1.19,2.81-3.01,2.81s-3.01-1.27-3.01-2.81,1.19-2.78,3.01-2.78,3.01,1.3,3.01,2.78Z" fill="#1d1d1b"/>
</svg>