<?xml version="1.0" encoding="UTF-8"?>
<svg id="_x33_219" xmlns="http://www.w3.org/2000/svg" version="1.1" viewBox="0 0 48 48">
  <!-- Generator: Adobe Illustrator 29.0.1, SVG Export Plug-In . SVG Version: 2.1.0 Build 192)  -->
  <defs>
    <style>
      .st0 {
        fill: #1e1e1c;
      }
    </style>
  </defs>
  <path class="st0" d="M16.29,11.23l-1.77-1.77L24-.02l9.39,9.39-1.77,1.77-7.62-7.62-7.71,7.71ZM11.16,16.36l-1.77-1.77L0,23.97l9.48,9.48,1.77-1.77-7.71-7.71,7.62-7.62ZM24,44.43l-7.62-7.62-1.77,1.77,9.39,9.39,9.48-9.48-1.77-1.77-7.71,7.71ZM38.52,14.5l-1.77,1.77,7.71,7.71-7.62,7.62,1.77,1.77,9.39-9.39-9.48-9.48ZM30.41,22.72h-12.83c-.69,0-1.25.56-1.25,1.25s.56,1.25,1.25,1.25h12.83c.69,0,1.25-.56,1.25-1.25s-.56-1.25-1.25-1.25ZM30.41,27.73h-12.83c-.69,0-1.25.56-1.25,1.25s.56,1.25,1.25,1.25h12.83c.69,0,1.25-.56,1.25-1.25s-.56-1.25-1.25-1.25ZM30.41,17.71h-12.83c-.69,0-1.25.56-1.25,1.25s.56,1.25,1.25,1.25h12.83c.69,0,1.25-.56,1.25-1.25s-.56-1.25-1.25-1.25Z"/>
</svg>