<?xml version="1.0" encoding="UTF-8"?>
<svg id="_x33_219" xmlns="http://www.w3.org/2000/svg" version="1.1" viewBox="0 0 64 64">
  <!-- Generator: Adobe Illustrator 29.0.1, SVG Export Plug-In . SVG Version: 2.1.0 Build 192)  -->
  <defs>
    <style>
      .st0 {
        fill: #1e1e1c;
      }
    </style>
  </defs>
  <path class="st0" d="M22.78,16.28l-3.55-3.55L32-.04l12.66,12.66-3.55,3.55-9.11-9.11-9.22,9.22ZM16.21,22.85l-3.55-3.55L0,31.96l12.77,12.77,3.55-3.55-9.22-9.22,9.11-9.11ZM32,56.86l-9.11-9.11-3.55,3.55,12.66,12.66,12.77-12.77-3.55-3.55-9.22,9.22ZM51.23,19.19l-3.55,3.55,9.22,9.22-9.11,9.11,3.55,3.55,12.66-12.66-12.77-12.77ZM40.21,29.45h-16.42c-1.39,0-2.51,1.12-2.51,2.51s1.12,2.51,2.51,2.51h16.42c1.39,0,2.51-1.12,2.51-2.51s-1.12-2.51-2.51-2.51ZM40.21,21.44h-16.42c-1.39,0-2.51,1.12-2.51,2.51s1.12,2.51,2.51,2.51h16.42c1.39,0,2.51-1.12,2.51-2.51s-1.12-2.51-2.51-2.51ZM40.21,37.51h-16.42c-1.39,0-2.51,1.12-2.51,2.51s1.12,2.51,2.51,2.51h16.42c1.39,0,2.51-1.12,2.51-2.51s-1.12-2.51-2.51-2.51Z"/>
</svg>