<?xml version="1.0" encoding="UTF-8"?>
<svg id="a" data-name="3219" xmlns="http://www.w3.org/2000/svg" viewBox="0 0 32 32">
  <path d="M12.41,22.56c-1.52,0-2.75,1.23-2.75,2.75s1.23,2.75,2.75,2.75,2.75-1.23,2.75-2.75-1.23-2.75-2.75-2.75ZM12.41,26.06c-.41,0-.75-.34-.75-.75s.34-.75.75-.75.75.34.75.75-.34.75-.75.75ZM32,17.39c0-.55-.45-1-1-1s-1,.45-1,1v2.27h-4.99v-.8s.07-.04.1-.08l2.21-2.89.75-.57h1.32c.55,0,1-.45,1-1s-.45-1-1-1h-2.62l-1.75,2.29V2.99C25,1.34,23.66-.01,22.01-.01H3C1.34-.01,0,1.34,0,2.99v18.68h1.64v5.6h4.44c.84,2.73,3.36,4.72,6.34,4.72s5.51-1.99,6.34-4.72h2.43l3.15-5.6h.67s6.99,0,6.99,0v-4.28ZM21.2,19.67s-.01,0-.02,0h-5.22c-1.03-.66-2.24-1.04-3.55-1.04s-2.52.39-3.55,1.04H2v-5.73h2.27v.91h2v-.91h12.48v.91h2v-.91h2.26v5.72h-1.81ZM3,1.99h19.01c.55,0,1,.45,1,1v8.95h-2.26v-1.08h-2v1.08H6.26v-1.08h-2v1.08H2V2.99c0-.55.45-1,1-1ZM3.63,21.73h3.19c-.65,1.03-1.04,2.24-1.04,3.55h-2.14v-3.55ZM12.41,29.99c-2.56,0-4.64-2.1-4.64-4.68s2.08-4.68,4.64-4.68,4.64,2.1,4.64,4.68-2.08,4.68-4.64,4.68ZM20.01,25.27h-.97c0-1.3-.39-2.52-1.04-3.55h4l-1.99,3.55Z" fill="#1e1e1c"/>
</svg>