<?xml version="1.0" encoding="UTF-8"?>
<svg id="a" data-name="3219" xmlns="http://www.w3.org/2000/svg" viewBox="0 0 16 16">
  <path d="M7.05,12.52c0,.48-.39.87-.88.87s-.88-.39-.88-.87.39-.87.88-.87.88.39.88.87ZM16.01,11.07h-3.5s-.45,0-.45,0l-1.5,2.67h-1.14c-.49,1.32-1.75,2.27-3.23,2.27s-2.74-.95-3.23-2.27H.97v-2.67H0V1.79C0,.8.81,0,1.79,0h8.94c.98,0,1.78.8,1.78,1.78v4.91l.61-.8h1.43c.41,0,.75.34.75.75s-.34.75-.75.75h-.69l-1.25,1.63s-.07.06-.11.09v.46h2v-.89c0-.41.34-.75.75-.75s.75.34.75.75v2.39ZM11.01,9.57v-2.36h-1.03v.69h-1.5v-.69h-4.34v.69h-1.5v-.69h-1.13v2.36h2.86c.53-.33,1.14-.52,1.8-.52s1.28.2,1.8.52h2.37s0,0,0,0h.65ZM1.51,1.79v3.92h1.13v-.8h1.5v.8h4.34v-.8h1.5v.8h1.03V1.79c0-.16-.13-.28-.28-.28H1.79c-.16,0-.28.13-.28.28ZM2.47,12.24h.27c.03-.41.13-.81.3-1.17h-.57v1.17ZM8.14,12.52c0-1.09-.88-1.98-1.96-1.98s-1.96.89-1.96,1.98.88,1.98,1.96,1.98,1.96-.89,1.96-1.98ZM10.33,11.07h-1.02c.17.36.26.75.3,1.17h.07l.66-1.17Z" fill="#1e1e1c"/>
</svg>