<svg width="128" height="143" viewBox="0 0 128 143" fill="none" xmlns="http://www.w3.org/2000/svg">
<path d="M17.3754 122.965L7 6H121L110.616 122.917L63.9309 136L17.3754 122.965Z" stroke="#373632" stroke-width="12"/>
<path d="M99.1468 34.0017L95.6932 72.9665L95.7035 73.1769L95.689 73.6608V73.6566L93.2353 100.901L92.9649 103.322L63.7014 111.45L63.6787 111.47L34.4656 103.297L32.4876 80.7719H46.8129L47.8293 92.2257L63.7055 96.5465L63.7014 96.5548V96.5527L79.6364 92.1708L81.3204 73.5188H48.0088L47.723 70.3658L47.0719 62.979L46.7303 59.0125H82.5865L83.8908 44.5063H29.2785L28.9927 41.3553L28.3426 33.9664L28 30H99.4884L99.1468 34.0017Z" fill="#373632"/>
</svg>
