<?xml version="1.0" encoding="UTF-8"?>
<svg id="a" data-name="3219" xmlns="http://www.w3.org/2000/svg" viewBox="0 0 16 16">
  <path d="M14.23,4.97c.49-.49.49-1.28,0-1.77s-1.28-.49-1.77,0l-.79.79c-.71-.48-1.53-.83-2.41-1v-.53h1.21V-.03h-4.91v2.5h1.21v.53c-3.01.59-5.29,3.24-5.29,6.43,0,3.61,2.94,6.55,6.54,6.55s6.54-2.94,6.54-6.55c0-1.35-.41-2.61-1.12-3.66l.79-.79ZM10.51,9.66l-1.61,1.61c-.24.24-.56.37-.88.37s-.64-.12-.88-.37l-2.35-2.35c-.49-.49-.49-1.28,0-1.77s1.28-.49,1.77,0l1.46,1.46.73-.73c.49-.49,1.28-.49,1.77,0s.49,1.28,0,1.77Z" fill="#1e1e1c"/>
</svg>