<?xml version="1.0" encoding="UTF-8"?>
<svg id="a" data-name="3219" xmlns="http://www.w3.org/2000/svg" viewBox="0 0 32 32">
  <path d="M26.47,9.09l1.35-1.35c.39-.39.39-1.02,0-1.41s-1.02-.39-1.41,0l-1.35,1.35c-2.19-1.9-4.98-3.12-8.05-3.34v-2.34h3.29V0h-8.57v2h3.29v2.34c-7.17.52-12.86,6.5-12.86,13.81s6.22,13.86,13.86,13.86,13.86-6.22,13.86-13.86c0-3.46-1.28-6.62-3.39-9.05ZM16,30c-6.54,0-11.86-5.32-11.86-11.86s5.32-11.86,11.86-11.86,11.86,5.32,11.86,11.86-5.32,11.86-11.86,11.86ZM20.99,15.29c.39.39.39,1.02,0,1.41l-4.29,4.29c-.2.2-.45.29-.71.29s-.51-.1-.71-.29l-5.97-5.97c-.39-.39-.39-1.02,0-1.41s1.02-.39,1.41,0l5.27,5.27,3.58-3.58c.39-.39,1.02-.39,1.41,0Z" fill="#1e1e1c"/>
</svg>