<?xml version="1.0" encoding="UTF-8"?>
<svg id="a" data-name="3219" xmlns="http://www.w3.org/2000/svg" viewBox="0 0 24 24">
  <path d="M19.96,6.88l.91-.91c.34-.34.34-.89,0-1.24s-.9-.34-1.24,0l-.91.91c-1.61-1.36-3.63-2.23-5.84-2.42v-1.48h2.31V0h-6.37v1.75h2.31v1.48C5.79,3.67,1.58,8.14,1.58,13.59c0,5.74,4.68,10.41,10.42,10.41s10.42-4.67,10.42-10.41c0-2.56-.93-4.9-2.47-6.71ZM12,22.25c-4.78,0-8.67-3.89-8.67-8.66S7.22,4.93,12,4.93s8.67,3.89,8.67,8.66-3.89,8.66-8.67,8.66ZM15.8,11.38c.34.34.34.9,0,1.24l-3.18,3.18c-.17.17-.4.26-.62.26s-.45-.08-.62-.26l-4.58-4.58c-.34-.34-.34-.9,0-1.24.34-.34.9-.34,1.24,0l3.97,3.96,2.56-2.56c.34-.34.9-.34,1.24,0Z" fill="#1e1e1c"/>
</svg>