<?xml version="1.0" encoding="UTF-8"?>
<svg id="a" data-name="3219" xmlns="http://www.w3.org/2000/svg" viewBox="0 0 40 40">
  <path d="M40.01,19.15c0-9.23-8.97-16.75-20-16.75S.01,9.92.01,19.15s8.97,16.75,20,16.75c3.37,0,6.7-.73,9.67-2.1l9.99,4.64-2.33-10.96c1.74-2.54,2.66-5.41,2.66-8.32ZM29.66,31.3l-.48.24c-2.78,1.38-5.95,2.1-9.17,2.1-9.79,0-17.75-6.5-17.75-14.49S10.23,4.66,20.01,4.66s17.75,6.5,17.75,14.49c0,2.59-.87,5.16-2.52,7.41l-.3.41,1.6,7.53-6.88-3.19ZM10.65,12.39h18.93v2.25H10.65v-2.25ZM21.15,18.25v2.25h-10.28v-2.25h10.28ZM10.87,24.11h15.7v2.25h-15.7v-2.25Z" fill="#1e1e1c"/>
</svg>