<?xml version="1.0" encoding="UTF-8"?>
<svg id="a" data-name="3219" xmlns="http://www.w3.org/2000/svg" viewBox="0 0 16 16">
  <path d="M16,7.43c0-3.72-3.59-6.75-8-6.75S0,3.71,0,7.43s3.59,6.75,8,6.75c1.29,0,2.57-.27,3.71-.78l4.28,1.99-1-4.7c.66-1,1-2.12,1-3.26ZM13.91,12.77l-2.2-1.02-.32.16c-1.02.51-2.19.77-3.38.77-3.58,0-6.5-2.36-6.5-5.25s2.92-5.25,6.5-5.25,6.5,2.36,6.5,5.25c0,.93-.31,1.85-.91,2.66l-.2.27.51,2.41ZM4.4,5.24h7.27v1.5h-7.27v-1.5ZM4.49,8.26h4.53v1.5h-4.53v-1.5Z" fill="#1e1e1c"/>
</svg>