<?xml version="1.0" encoding="UTF-8"?>
<svg id="a" data-name="3219" xmlns="http://www.w3.org/2000/svg" viewBox="0 0 64 64">
  <path d="M64,30.62c0-14.73-14.35-26.72-32-26.72S0,15.89,0,30.62s14.35,26.72,32,26.72c5.48,0,10.89-1.19,15.69-3.46l15.59,7.24-3.63-17.09c2.85-4.09,4.35-8.71,4.35-13.41ZM47.67,50.84l-.59.29c-4.57,2.26-9.79,3.46-15.07,3.46-16.13,0-29.25-10.75-29.25-23.97S15.88,6.66,32,6.66s29.25,10.75,29.25,23.97c0,4.31-1.45,8.56-4.18,12.29l-.36.5,2.74,12.9-11.78-5.47ZM16.81,20.11h30.72v2.75h-30.72v-2.75ZM33.85,29.61v2.75h-16.69v-2.75h16.69ZM17.17,39.12h25.48v2.75h-25.48v-2.75Z" fill="#1e1e1c"/>
</svg>