<?xml version="1.0" encoding="UTF-8"?>
<svg id="a" data-name="3219" xmlns="http://www.w3.org/2000/svg" viewBox="0 0 24 24">
  <rect x="0" y="0" width="24" height="24" fill="none"/>
  <path d="M8.66,6.35c0,1.03-.8,1.83-1.83,1.83-1.03.05-1.83-.8-1.83-1.83s.8-1.83,1.83-1.83,1.83.84,1.83,1.83ZM5.29,19.52h3.09v-9.98h-3.09v9.98ZM16.35,9.21c-2.11,0-3,1.64-3,1.64v-1.36h-2.95v10.03h2.95v-5.25c0-1.41.66-2.25,1.88-2.25,1.12,0,1.69.8,1.69,2.25v5.25h3.09v-6.33c0-2.67-1.55-3.98-3.66-3.98Z" fill="#020303"/>
</svg>