<?xml version="1.0" encoding="UTF-8"?>
<svg id="a" data-name="3219" xmlns="http://www.w3.org/2000/svg" viewBox="0 0 40 40">
  <rect x="0" y="0" width="40" height="40" fill="none"/>
  <path d="M14.44,10.57c0,1.72-1.33,3.05-3.05,3.05-1.72.08-3.05-1.33-3.05-3.05s1.33-3.05,3.05-3.05,3.05,1.41,3.05,3.05ZM8.81,32.53h5.16V15.88h-5.16v16.64ZM27.25,15.34c-3.52,0-5,2.73-5,2.73v-2.27h-4.92v16.72h4.92v-8.75c0-2.34,1.09-3.75,3.12-3.75,1.87,0,2.81,1.33,2.81,3.75v8.75h5.16v-10.55c0-4.45-2.58-6.64-6.09-6.64Z" fill="#020303"/>
</svg>