<?xml version="1.0" encoding="UTF-8"?>
<svg id="a" data-name="3219" xmlns="http://www.w3.org/2000/svg" viewBox="0 0 32 32">
  <rect x="0" y="-.01" width="32" height="32" fill="none"/>
  <path d="M11.55,8.45c0,1.38-1.06,2.44-2.44,2.44-1.38.06-2.44-1.06-2.44-2.44s1.06-2.44,2.44-2.44,2.44,1.12,2.44,2.44ZM7.05,26.01h4.12v-13.31h-4.12v13.31ZM21.8,12.26c-2.81,0-4,2.19-4,2.19v-1.81h-3.94v13.37h3.94v-7c0-1.88.87-3,2.5-3,1.5,0,2.25,1.06,2.25,3v7h4.12v-8.44c0-3.56-2.06-5.31-4.87-5.31Z" fill="#020303"/>
</svg>