<?xml version="1.0" encoding="UTF-8"?>
<svg id="_x33_219" xmlns="http://www.w3.org/2000/svg" version="1.1" viewBox="0 0 48 48">
  <!-- Generator: Adobe Illustrator 29.0.1, SVG Export Plug-In . SVG Version: 2.1.0 Build 192)  -->
  <defs>
    <style>
      .st0 {
        fill: #1e1e1c;
      }
    </style>
  </defs>
  <path class="st0" d="M47.09,8.36l-7.48-7.48c-1.14-1.14-3.12-1.14-4.27,0L2.04,34.19-.03,48.03l13.81-2.09L47.09,12.63c1.18-1.18,1.18-3.09,0-4.27ZM5.03,34.74L31.78,7.98l8.27,8.15-26.82,26.82-8.21-8.21ZM4.1,37.34l6.54,6.54-7.69,1.16,1.15-7.7ZM45.32,10.86l-3.5,3.5-8.27-8.15,3.56-3.56c.2-.2.53-.2.73,0l7.48,7.48c.2.2.2.53,0,.73Z"/>
</svg>