<?xml version="1.0" encoding="UTF-8"?>
<svg id="_x33_219" xmlns="http://www.w3.org/2000/svg" version="1.1" viewBox="0 0 40 40">
  <!-- Generator: Adobe Illustrator 29.0.1, SVG Export Plug-In . SVG Version: 2.1.0 Build 192)  -->
  <defs>
    <style>
      .st0 {
        fill: #1e1e1c;
      }
    </style>
  </defs>
  <path class="st0" d="M39.22,7.14l-6.2-6.2c-.98-.98-2.69-.98-3.66,0L1.71,28.56-.02,40.2l11.61-1.78,23.44-23.43s.11-.11.13-.13l4.07-4.07c1.01-1.01,1.01-2.65,0-3.66ZM4.39,29.07L25.96,7.52l6.73,6.63-21.61,21.6-6.68-6.68ZM3.56,31.42l5.16,5.16-6.07.93.91-6.09ZM37.63,9.21l-3.35,3.34-6.73-6.63,3.4-3.4c.16-.16.31-.16.48,0l6.2,6.2c.13.13.13.35,0,.48Z"/>
</svg>