<?xml version="1.0" encoding="UTF-8"?>
<svg id="_x33_219" xmlns="http://www.w3.org/2000/svg" version="1.1" viewBox="0 0 16 16">
  <!-- Generator: Adobe Illustrator 29.0.1, SVG Export Plug-In . SVG Version: 2.1.0 Build 192)  -->
  <defs>
    <style>
      .st0 {
        fill: #1e1e1c;
      }
    </style>
  </defs>
  <path class="st0" d="M8,0C3.59,0,0,3.59,0,8s3.59,8,8,8,8-3.59,8-8S12.41,0,8,0ZM8,14.5c-3.58,0-6.5-2.92-6.5-6.5S4.42,1.5,8,1.5s6.5,2.92,6.5,6.5-2.92,6.5-6.5,6.5ZM9.1,6.07c0-1.1.56-2,1.25-2s1.25.9,1.25,2-.56,2-1.25,2-1.25-.9-1.25-2ZM4.65,6.07c0-1.1.56-2,1.25-2s1.25.9,1.25,2-.56,2-1.25,2-1.25-.9-1.25-2ZM12.96,10.13c-1.02,1.77-2.92,2.86-4.96,2.86s-3.93-1.1-4.96-2.86c-.21-.36-.08-.82.27-1.03s.82-.09,1.03.27c.76,1.31,2.16,2.12,3.66,2.12s2.9-.81,3.66-2.12c.21-.36.67-.48,1.03-.27.36.21.48.67.27,1.03Z"/>
</svg>