<?xml version="1.0" encoding="UTF-8"?>
<svg id="_x33_219" xmlns="http://www.w3.org/2000/svg" version="1.1" viewBox="0 0 64 64">
  <!-- Generator: Adobe Illustrator 29.0.1, SVG Export Plug-In . SVG Version: 2.1.0 Build 192)  -->
  <defs>
    <style>
      .st0 {
        fill: #1e1e1c;
      }
    </style>
  </defs>
  <path class="st0" d="M32,0C14.36,0,0,14.35,0,32s14.36,32,32,32,32-14.36,32-32S49.64,0,32,0ZM32,61.25c-16.13,0-29.25-13.12-29.25-29.25S15.87,2.75,32,2.75s29.25,13.12,29.25,29.25-13.12,29.25-29.25,29.25ZM36.64,23.84c0-4.67,2.36-8.45,5.28-8.45s5.28,3.78,5.28,8.45-2.36,8.45-5.28,8.45-5.28-3.78-5.28-8.45ZM17.83,23.84c0-4.67,2.36-8.45,5.28-8.45s5.28,3.78,5.28,8.45-2.36,8.45-5.28,8.45-5.28-3.78-5.28-8.45ZM51.39,40.1c-4,6.91-11.43,11.2-19.39,11.2s-15.39-4.29-19.39-11.2c-.38-.66-.16-1.5.5-1.88.66-.38,1.5-.16,1.88.5,3.51,6.07,10.03,9.83,17.01,9.83s13.5-3.77,17.01-9.83c.38-.66,1.22-.88,1.88-.5.66.38.88,1.22.5,1.88Z"/>
</svg>