<svg viewBox="0 0 32 32" xmlns="http://www.w3.org/2000/svg"><g id="icon">
  <path d="M29.333 28h-6l.4-1.333c0-.133.8-3.733-.267-6.4.8 0 1.733.267 2.8 1.333l.933-.933c-1.6-1.6-3.333-1.733-4.267-1.6.267-.667.933-1.6 2.533-1.6v-1.333c-1.6 0-2.667.8-3.2 1.6-.933-.933-2-1.733-3.6-1.733v1.333c1.333 0 2.133.8 2.533 1.467-1.2-.267-2.8-.133-4.4 1.6l.933.933c.933-1.067 1.867-1.333 2.533-1.333-.933.667-1.733 1.867-1.733 3.733h1.333c0-2.133 1.333-2.8 2-3.067l.133.133c1.067 2.267.267 5.733.267 5.733L21.997 28H9.33v1.333h20V28zM4 9.333h8v1.333H4V9.333z"/>
  <path d="M25.333 13.333V0H0v18.667h6.667V32H32V13.333h-6.667zm-24 4v-16H24v12H6.667v4H1.334zm29.334 13.334H8v-16h22.667v16z"/>
  <path d="M4 6.667h8V8H4V6.667zm18.667-4h-5.333V8h5.333V2.667zm-1.334 4h-2.667V4h2.667v2.667z"/>
</g></svg>
