<svg viewBox="0 0 32 32" xmlns="http://www.w3.org/2000/svg">
  <path d="M29.33 28h-6l.4-1.33c0-.13.8-3.73-.27-6.4.8 0 1.73.27 2.8 1.33l.93-.93c-1.6-1.6-3.33-1.73-4.27-1.6.27-.67.93-1.6 2.53-1.6v-1.33c-1.6 0-2.67.8-3.2 1.6-.93-.93-2-1.73-3.6-1.73v1.33c1.33 0 2.13.8 2.53 1.47-1.2-.27-2.8-.13-4.4 1.6l.93.93c.93-1.07 1.87-1.33 2.53-1.33-.93.67-1.73 1.87-1.73 3.73h1.33c0-2.13 1.33-2.8 2-3.07l.13.13c1.07 2.27.27 5.73.27 5.73L22 28H9.33v1.33h20zM4 9.33h8v1.33H4zm21.33 4V0H0v18.67h6.67V32H32V13.33zm-24 4v-16H24v12H6.67v4zm29.33 13.33H8v-16h22.67zM4 6.67h8V8H4zm18.67-4h-5.33V8h5.33zm-1.33 4h-2.67V4h2.67z"/>
</svg>
