<svg viewBox="0 0 32 32" xmlns="http://www.w3.org/2000/svg"><g id="icon">
  <path d="m26.533 16 3.733-2.133c.667-.4 1.067-1.067 1.067-1.867s-.4-1.467-1.067-1.867l-.667-.4c-.533-.267-1.067-.4-1.6-.267s-1.067.533-1.333.933l-1.333 2.667V-.001H0v18.667h14.667v13.333H32v-16h-5.467zm1.334-4.8c.133-.133.267-.267.533-.4h.267c.134 0 .267 0 .4.133l.667.4c.4.267.4.533.4.667s0 .533-.4.667L26.001 14.8l1.867-3.6zM1.333 17.333v-16H24V14l-.8-3.067c-.267-1.067-1.467-1.733-2.533-1.467l-2.267.533c-.8.267-1.467.933-1.6 1.733s.267 1.733 1.067 2.133l3.733 2.133h-6.933v1.333H1.334zm21.6-2-4.4-2.533c-.4-.267-.4-.8-.4-.8 0-.133.133-.533.533-.667l2.267-.667h.267c.4 0 .667.267.8.533l.933 4.133zm7.734 15.334H16v-8h14.667v8zm0-9.334H16v-4h14.667v4z"/>
  <path d="M4 6.667h8V8H4V6.667zm0 2.666h8v1.333H4V9.333zm18.667-6.666h-5.333V8h5.333V2.667zm-1.334 4h-2.667V4h2.667v2.667z"/>
</g></svg>
