<svg viewBox="0 0 32 32" xmlns="http://www.w3.org/2000/svg"><g id="icon">
  <path d="M10.267 12h5.067c1.067 0 2-.933 2-2V2c0-1.067-.933-2-2-2H2.001c-1.067 0-2 .933-2 2v8c0 1.067.933 2 2 2h2v6.267L10.268 12zM2 10.667c-.4 0-.667-.267-.667-.667V2c0-.4.267-.667.667-.667h13.333c.4 0 .667.267.667.667v8c0 .4-.267.667-.667.667h-5.6l-4.4 4.4v-4.4zm17.067 0L13.334 16.4v6.267h-4V32h14.667v-2.667h2.267l5.733-5.733V10.667H19.068zM21.6 24l-4.4 3.867a.644.644 0 0 1-.933 0L11.734 24h9.867zm-10.933.8 2.667 2.267-2.667 2.667v-4.933zm.933 5.867L14.267 28l.933.8c.4.4.933.533 1.467.533S17.734 29.2 18 28.8l.933-.933 2.667 2.667h-10zm11.067-.934L20 27.066l2.667-2.267v4.933zM25.333 28H24v-5.333h-9.333v-5.333h10.667v10.667zm.4-12H15.6l4-4h10.133zm4.934 7.067-4 4V16.934l4-4z"/>
  <path d="m24.667 13.333-1.333 1.333h1.867l1.333-1.333z"/>
</g></svg>
