<svg viewBox="0 0 32 32" xmlns="http://www.w3.org/2000/svg"><g id="icon">
  <path d="M14.667 28h2.667v1.333h-2.667V28z"/>
  <path d="M25.333 6.4V2.533C25.333 1.2 24.133 0 22.8 0H9.2C7.867 0 6.667 1.2 6.667 2.533v26.8C6.667 30.8 7.867 32 9.2 32h13.467c1.467 0 2.533-1.2 2.533-2.533V16.8l5.2-5.2-5.067-5.2zM28 10.933h-5.333V5.6L28 10.933zm-4 18.534c0 .667-.533 1.2-1.2 1.2H9.2c-.667 0-1.2-.533-1.2-1.2v-2.8h16v2.8zm0-4.134H8v-22.8c0-.667.533-1.2 1.2-1.2h13.467c.8 0 1.333.533 1.333 1.2v2.4l-2-2-12 12 8.533 8.533L24 17.999v7.333zM12.533 14.4l8.8-8.8V14c0 .267-.133.4-.4.4h-8.4zm5.334 1.333v5.333l-5.333-5.333h5.333zm1.333 5.334v-5.333h1.733c.933 0 1.733-.8 1.733-1.733v-1.733h5.333l-8.8 8.8z"/>
</g></svg>
