<svg xml:space="preserve" viewBox="0 0 32 32" xmlns="http://www.w3.org/2000/svg"><g id="icon">
  <path d="M6.648 15.766H12v1.25H9.34c-.113 0-.24-.002-.384-.004a621.885 621.885 0 0 1-.808-.016 5.303 5.303 0 0 1-.288-.011V17c.061.066.147.165.257.296.11.13.218.267.326.41l.207.276-.828.574-1.174-1.67v-1.12zm4.416-3.764c0 .245.002.508.004.79s.01.544.02.79h-.016a7.917 7.917 0 0 0-.798-1.012c-.219-.241-.422-.44-.609-.599-.186-.158-.365-.286-.536-.383a1.906 1.906 0 0 0-1-.26c-.277 0-.514.052-.714.156s-.362.246-.49.422c-.128.177-.221.377-.28.602a2.79 2.79 0 0 0-.088.705c0 .307.026.606.08.897.054.292.132.547.234.767l.997-.115a2.675 2.675 0 0 1-.268-.632 2.302 2.302 0 0 1-.085-.61c0-.123.013-.239.038-.349a.76.76 0 0 1 .13-.288c.062-.08.141-.146.238-.195s.215-.073.353-.073c.189 0 .378.045.567.134.19.09.393.229.61.418.217.19.456.433.717.732.26.3.554.658.881 1.078H12v-3.765h-.936v.79m1.043-3.297c0 .705-.23 1.223-.69 1.553-.46.33-1.13.494-2.008.494-.997 0-1.724-.167-2.182-.502-.457-.335-.686-.863-.686-1.583 0-.664.225-1.16.675-1.488.45-.327 1.138-.49 2.063-.49.93 0 1.634.16 2.112.483.477.321.716.833.716 1.533m-.874.008c0-.256-.16-.453-.48-.59-.318-.139-.79-.208-1.413-.208-1.283 0-1.925.269-1.925.805 0 .261.153.46.46.598.307.138.77.207 1.388.207 1.314 0 1.97-.27 1.97-.812m16.769-.545v21c0 .814-.666 1.48-1.48 1.48H14.783c-.814 0-1.48-.666-1.48-1.48V24h-1.296v-.659a.675.675 0 0 0-1.35 0V24h-2.65v-.659a.675.675 0 0 0-1.35 0V24H4s.008-.302.008-.674a.675.675 0 0 0-.675-.675h-.659V20h.66a.675.675 0 0 0 0-1.349h-.66V16h.66a.675.675 0 0 0 0-1.349h-.66V12h.66a.675.675 0 0 0 0-1.349h-.66V8h.66a.675.675 0 0 0 0-1.349h-.66V4h.66a.675.675 0 0 0 .674-.674v-.66h2.65v.66a.675.675 0 0 0 1.35 0v-.66h2.65v.66a.675.675 0 0 0 1.35 0v-.66h2.65v.66a.675.675 0 0 0 1.35 0v-.66h2.65v.66a.675.675 0 0 0 1.35 0v-.66h2.65v.66a.675.675 0 0 0 1.35 0v-.66h2.65v.66c0 .371.303.674.675.674h.675L28 6.651h-.659a.656.656 0 0 0-.372.127c.593.193 1.033.734 1.033 1.39zM14.784 8.02a.15.15 0 0 0-.147.147v15.809h12.031V8.167a.15.15 0 0 0-.147-.146H14.784m0-1.333h10.668c.194-.583.64-1.05 1.218-1.255V5.22A2.018 2.018 0 0 1 25.443 4h-.217c-.278.776-1.021 1.333-1.892 1.333S21.72 4.776 21.442 4h-.217c-.278.776-1.021 1.333-1.892 1.333S17.72 4.776 17.442 4h-.217a2.012 2.012 0 0 1-1.892 1.333c-.87 0-1.613-.557-1.89-1.333h-.218c-.278.776-1.021 1.333-1.892 1.333S9.72 4.776 9.443 4h-.218c-.278.776-1.021 1.333-1.892 1.333S5.72 4.776 5.443 4h-.218a2.018 2.018 0 0 1-1.217 1.217v.217a2.01 2.01 0 0 1 0 3.783v.217a2.01 2.01 0 0 1 0 3.783v.217a2.011 2.011 0 0 1 1.333 1.892c0 .87-.557 1.613-1.333 1.89v.218a2.011 2.011 0 0 1 1.333 1.892c0 .87-.557 1.613-1.333 1.89v.218c.57.204 1.023.66 1.222 1.233h.212c.278-.777 1.02-1.334 1.891-1.334s1.614.557 1.892 1.334h.217c.278-.777 1.02-1.334 1.891-1.334s1.614.557 1.892 1.334h.079v-14.5c0-.813.666-1.48 1.48-1.48m11.884 22.48V25.31H14.637v3.858a.15.15 0 0 0 .147.147H26.52a.15.15 0 0 0 .147-.147m-7.332-1.17H22v-1.333h-2.664V28m-.659-9.34h-1.342v-5.321h1.342v-1.334h-2.676v7.99h2.676v-1.334m6.654-6.655h-2.676v1.334h1.342v5.322h-1.342v1.333h2.676v-7.989"/>
</g></svg>
