<svg xml:space="preserve" viewBox="0 0 32 32" xmlns="http://www.w3.org/2000/svg"><g id="icon">
  <path fill="currentColor" d="M30 7.992h.659v-2.65H30a.675.675 0 0 1-.675-.675v-.66h-2.65v.66a.675.675 0 0 1-1.35 0v-.66h-2.65v.66a.675.675 0 0 1-1.35 0v-.66h-2.65v.66a.675.675 0 0 1-1.35 0v-.66h-2.65v.66a.676.676 0 0 1-1.35 0v-.66h-2.65v.66a.675.675 0 0 1-1.35 0v-.66h-2.65v.66a.675.675 0 0 1-1.35 0v-.66h-2.65v.66A.675.675 0 0 1 2 5.34h-.659v2.651H2a.675.675 0 0 1 0 1.35h-.659v2.65H2a.675.675 0 0 1 0 1.35h-.659v2.65H2a.676.676 0 0 1 0 1.35h-.659v2.65H2a.675.675 0 0 1 0 1.35h-.659v2.65H2a.675.675 0 0 1 0 1.35h-.659v2.65H2c.372 0 .674.302.674.675v.658h2.652v-.658a.675.675 0 0 1 1.348 0v.658h2.652v-.658a.675.675 0 0 1 1.348 0v.658h2.652v-.658a.675.675 0 0 1 1.349 0v.658h2.65v-.658a.675.675 0 0 1 1.35 0v.658h2.65v-.658a.675.675 0 0 1 1.35 0v.658h2.65v-.658a.675.675 0 0 1 1.35 0v.658h2.65v-.658c0-.373.303-.675.675-.675h.659v-2.65H30a.675.675 0 0 1 0-1.35h.659v-2.65H30a.675.675 0 0 1 0-1.35h.659v-2.65H30a.675.675 0 0 1 0-1.35h.659v-2.65H30a.675.675 0 0 1 0-1.35h.659v-2.65H30a.675.675 0 0 1 0-1.35zm-.675-1.217c-.776.278-1.333 1.021-1.333 1.892s.557 1.613 1.333 1.89v.218c-.776.278-1.333 1.021-1.333 1.892s.557 1.613 1.333 1.89v.218a2.011 2.011 0 0 0-1.333 1.892c0 .87.557 1.613 1.333 1.89v.218a2.011 2.011 0 0 0-1.333 1.892c0 .87.557 1.613 1.333 1.89v.218a2.011 2.011 0 0 0-1.333 1.892c0 .87.557 1.613 1.333 1.89v.218a2.018 2.018 0 0 0-1.216 1.217h-.218c-.277-.776-1.02-1.333-1.891-1.333s-1.614.557-1.891 1.333h-.218c-.277-.776-1.02-1.333-1.891-1.333s-1.614.557-1.891 1.333h-.218c-.277-.776-1.02-1.333-1.891-1.333s-1.614.557-1.891 1.333h-.218c-.277-.776-1.02-1.333-1.891-1.333s-1.614.557-1.891 1.333h-.218c-.277-.776-1.02-1.333-1.891-1.333s-1.614.557-1.891 1.333H7.89C7.614 27.216 6.871 26.66 6 26.66s-1.614.557-1.891 1.333H3.89a2.018 2.018 0 0 0-1.217-1.217v-.217a2.011 2.011 0 0 0 1.334-1.891c0-.871-.557-1.614-1.334-1.892v-.217a2.011 2.011 0 0 0 1.334-1.891c0-.871-.557-1.614-1.334-1.892v-.217a2.011 2.011 0 0 0 1.334-1.891c0-.871-.557-1.614-1.334-1.892v-.217c.777-.278 1.334-1.02 1.334-1.891s-.557-1.614-1.334-1.892v-.217c.777-.278 1.334-1.02 1.334-1.891S3.45 7.053 2.674 6.775v-.217A2.018 2.018 0 0 0 3.891 5.34h.218c.277.776 1.02 1.333 1.891 1.333s1.614-.557 1.891-1.333h.218c.277.776 1.02 1.333 1.891 1.333s1.614-.557 1.891-1.333h.218c.277.776 1.02 1.333 1.891 1.333s1.614-.557 1.891-1.333h.218c.277.776 1.02 1.333 1.891 1.333s1.614-.557 1.891-1.333h.218c.277.776 1.02 1.333 1.891 1.333s1.614-.557 1.891-1.333h.218c.277.776 1.02 1.333 1.891 1.333s1.614-.557 1.891-1.333h.218a2.018 2.018 0 0 0 1.216 1.217v.217zM14.1 9.487h1.363v6.515H13.94v-3.239c0-.137.001-.292.004-.466l.01-.514.01-.471c.002-.146.006-.263.013-.35h-.019a12.164 12.164 0 0 1-.859.71l-.336.251-.7-1.008L14.1 9.487zm5.945 5.376h.961v1.139h-4.582v-1.158c.51-.397.947-.755 1.311-1.073.365-.317.662-.608.891-.873.232-.264.401-.511.51-.741.107-.23.162-.461.162-.69a.944.944 0 0 0-.089-.43.821.821 0 0 0-.237-.29c-.099-.074-.216-.127-.35-.158s-.275-.047-.426-.047c-.242 0-.49.034-.74.103-.253.068-.51.177-.77.326l-.14-1.213a3.88 3.88 0 0 1 .932-.285 6.049 6.049 0 0 1 1.093-.098c.297 0 .584.036.857.107.276.072.518.186.734.342.214.155.386.354.513.597.128.242.19.531.19.867 0 .206-.023.408-.07.607-.044.2-.127.403-.247.612a4.249 4.249 0 0 1-.466.653 8.342 8.342 0 0 1-.727.742 9.882 9.882 0 0 1-1.232.97v.02c.297-.013.618-.02.961-.024.341-.003.662-.005.961-.005zm4.06-5.506c-.877 0-1.52.278-1.927.835-.407.557-.612 1.442-.612 2.655 0 1.07.2 1.885.602 2.445.402.56 1.03.84 1.89.84.853 0 1.474-.29 1.867-.872.392-.582.588-1.439.588-2.571 0-1.127-.2-1.964-.598-2.511s-1.001-.821-1.81-.821zm.663 5.128c-.168.39-.408.583-.719.583-.66 0-.99-.8-.99-2.398 0-.753.084-1.316.252-1.69.168-.373.411-.56.73-.56.651 0 .978.782.978 2.343 0 .76-.083 1.333-.251 1.722z"/>
</g></svg>
