<svg viewBox="0 0 32 32" xmlns="http://www.w3.org/2000/svg">
  <path d="M30 7.992h.659v-2.65H30a.675.675 0 0 1-.675-.675v-.66h-2.65v.66a.675.675 0 0 1-1.35 0v-.66h-2.65v.66a.675.675 0 0 1-1.35 0v-.66h-2.65v.66a.675.675 0 0 1-1.35 0v-.66h-2.65v.66a.676.676 0 0 1-1.35 0v-.66h-2.65v.66a.675.675 0 0 1-1.35 0v-.66h-2.65v.66a.675.675 0 0 1-1.35 0v-.66h-2.65v.66A.675.675 0 0 1 2 5.34h-.659v2.651H2a.675.675 0 0 1 0 1.35h-.659v2.65H2a.675.675 0 0 1 0 1.35h-.659v2.65H2a.676.676 0 0 1 0 1.35h-.659v2.65H2a.675.675 0 0 1 0 1.35h-.659v2.65H2a.675.675 0 0 1 0 1.35h-.659v2.65H2c.372 0 .674.302.674.675v.658h2.652v-.658a.675.675 0 0 1 1.348 0v.658h2.652v-.658a.675.675 0 0 1 1.348 0v.658h2.652v-.658a.675.675 0 0 1 1.349 0v.658h2.65v-.658a.675.675 0 0 1 1.35 0v.658h2.65v-.658a.675.675 0 0 1 1.35 0v.658h2.65v-.658a.675.675 0 0 1 1.35 0v.658h2.65v-.658c0-.373.303-.675.675-.675h.659v-2.65H30a.675.675 0 0 1 0-1.35h.659v-2.65H30a.675.675 0 0 1 0-1.35h.659v-2.65H30a.675.675 0 0 1 0-1.35h.659v-2.65H30a.675.675 0 0 1 0-1.35h.659v-2.65H30a.675.675 0 0 1 0-1.35m-.675-1.217a2.009 2.009 0 0 0 0 3.782v.218a2.009 2.009 0 0 0 0 3.782v.218a2.01 2.01 0 0 0-1.333 1.892c0 .87.557 1.613 1.333 1.89v.218a2.01 2.01 0 0 0-1.333 1.892c0 .87.557 1.613 1.333 1.89v.218a2.01 2.01 0 0 0-1.333 1.892c0 .87.557 1.613 1.333 1.89v.218a2.02 2.02 0 0 0-1.216 1.217h-.218c-.277-.776-1.02-1.333-1.891-1.333s-1.614.557-1.891 1.333h-.218c-.277-.776-1.02-1.333-1.891-1.333s-1.614.557-1.891 1.333h-.218c-.277-.776-1.02-1.333-1.891-1.333s-1.614.557-1.891 1.333h-.218c-.277-.776-1.02-1.333-1.891-1.333s-1.614.557-1.891 1.333h-.218c-.277-.776-1.02-1.333-1.891-1.333s-1.614.557-1.891 1.333H7.89a2.007 2.007 0 0 0-3.781.002H3.89a2.02 2.02 0 0 0-1.217-1.217v-.217a2.01 2.01 0 0 0 1.334-1.891c0-.871-.557-1.614-1.334-1.892v-.217a2.01 2.01 0 0 0 1.334-1.891c0-.871-.557-1.614-1.334-1.892v-.217a2.01 2.01 0 0 0 1.334-1.891c0-.871-.557-1.614-1.334-1.892v-.217c.777-.278 1.334-1.02 1.334-1.891s-.557-1.614-1.334-1.892v-.217c.777-.278 1.334-1.02 1.334-1.891S3.45 7.053 2.674 6.775v-.217A2.02 2.02 0 0 0 3.891 5.34h.218c.277.776 1.02 1.333 1.891 1.333s1.614-.557 1.891-1.333h.218c.277.776 1.02 1.333 1.891 1.333s1.614-.557 1.891-1.333h.218c.277.776 1.02 1.333 1.891 1.333s1.614-.557 1.891-1.333h.218c.277.776 1.02 1.333 1.891 1.333s1.614-.557 1.891-1.333h.218c.277.776 1.02 1.333 1.891 1.333s1.614-.557 1.891-1.333h.218c.277.776 1.02 1.333 1.891 1.333s1.614-.557 1.891-1.333h.218a2.02 2.02 0 0 0 1.216 1.217zM14.1 9.487h1.363v6.515H13.94v-3.239q0-.205.004-.466l.01-.514.01-.471q.003-.22.013-.35h-.019a12 12 0 0 1-.859.71l-.336.251-.7-1.008zm5.945 5.376h.961v1.139h-4.582v-1.158q.765-.596 1.311-1.073.547-.476.891-.873.347-.396.51-.741.161-.346.162-.69a.94.94 0 0 0-.089-.43.8.8 0 0 0-.237-.29q-.149-.111-.35-.158c-.2-.047-.275-.047-.426-.047q-.364 0-.74.103-.38.102-.77.326l-.14-1.213a4 4 0 0 1 .932-.285 6 6 0 0 1 1.093-.098q.447 0 .857.107.412.108.734.342.322.232.513.597.191.363.19.867 0 .309-.07.607-.066.3-.247.612a4.3 4.3 0 0 1-.466.653 8 8 0 0 1-.727.742 10 10 0 0 1-1.232.97v.02q.446-.019.961-.024.512-.005.961-.005m4.06-5.506q-1.316 0-1.927.835-.611.836-.612 2.655 0 1.605.602 2.445.601.84 1.89.84 1.278 0 1.867-.872.588-.873.588-2.571 0-1.69-.598-2.511c-.598-.821-1.001-.821-1.81-.821m.663 5.128q-.252.584-.719.583-.99 0-.99-2.398 0-1.13.252-1.69t.73-.56q.977 0 .978 2.343 0 1.14-.251 1.722"/>
</svg>
