<svg viewBox="0 0 32 32" xmlns="http://www.w3.org/2000/svg">
  <path d="M12.903 5.89h1.187v5.674h-1.325V8.743q0-.18.004-.406a89 89 0 0 1 .029-1.163h-.017a10 10 0 0 1-.748.618l-.292.22-.61-.879zm4.34 4.686q-.446.005-.837.02v-.016q.204-.138.456-.325t.618-.52q.38-.35.635-.646.25-.297.406-.57.152-.272.216-.532.06-.26.06-.529 0-.438-.167-.756a1.5 1.5 0 0 0-.446-.52 1.9 1.9 0 0 0-.64-.297 3 3 0 0 0-.747-.093 5 5 0 0 0-.951.086q-.464.084-.813.248l.121 1.056q.341-.195.672-.284.329-.09.645-.09.195 0 .37.041a.8.8 0 0 1 .305.138q.13.098.208.252a.8.8 0 0 1 .078.374q0 .3-.144.602-.142.3-.442.646-.3.345-.777.76a28 28 0 0 1-1.142.935v1.008h3.992v-.992h-.837q-.39 0-.839.004m5.952-4.085q.52.716.521 2.187 0 1.48-.513 2.24-.512.76-1.625.76-1.123 0-1.647-.732-.523-.732-.523-2.13 0-1.586.532-2.313t1.678-.727q1.058 0 1.577.715m-.78 2.252q0-2.04-.854-2.04-.414 0-.634.487-.219.489-.219 1.471 0 2.09.861 2.09.407 0 .626-.508t.22-1.5m6.977 4.493V30.68H2.678V13.236h1.989V11.59h.666c.193 0 .35-.146.35-.325s-.157-.325-.35-.325h-.666V8.615h.666c.193 0 .35-.146.35-.325s-.157-.325-.35-.325h-.666V5.64h.666c.193 0 .35-.146.35-.325s-.157-.325-.35-.325h-.666V2.665h.666c.193 0 .35-.146.35-.325v-.667h2.349v.667c0 .179.175.268.35.268.174 0 .348-.09.348-.268v-.667h2.35v.667c0 .179.174.268.349.268s.349-.09.349-.268v-.667h2.349v.667c0 .179.175.268.35.268.174 0 .348-.09.348-.268v-.667h2.35v.667c0 .179.174.268.348.268.175 0 .35-.09.35-.268v-.667h2.35v.667c0 .179.174.268.349.268.174 0 .349-.09.349-.268v-.667h2.348v.667c0 .179.175.268.35.268s.35-.09.35-.268v-.667h2.349v.667c0 .179.156.325.349.325h.666V4.99h-.666c-.193 0-.35.145-.35.325s.157.325.35.325h.666v2.325h-.666c-.193 0-.35.146-.35.325s.157.325.35.325h.666v2.325h-.666c-.193 0-.35.146-.35.325s.157.325.35.325h.666v1.646zm-18.157 9.74-6.338 6.37h22.25l-6.327-6.353-2.66 2.731a2.85 2.85 0 0 1-2.125.94c-.78 0-1.562-.313-2.125-.94zm15.884-8.364H4.951l9.914 10.182c.325.36.728.537 1.17.537s.845-.177 1.134-.499zM6 13.236h20v-.449a1.66 1.66 0 0 1-1.016-1.522c0-.651.384-1.216.94-1.487a1.66 1.66 0 0 1-.94-1.488c0-.652.383-1.217.94-1.488a1.66 1.66 0 0 1-.94-1.487c0-.652.384-1.217.94-1.488a1.68 1.68 0 0 1-.784-.79c-.267.54-.841.905-1.52.905-.683 0-1.259-.368-1.525-.911-.266.543-.841.91-1.523.91-.683 0-1.258-.368-1.524-.911-.267.543-.842.912-1.525.912S16.266 3.574 16 3.03c-.266.543-.842.91-1.524.91s-1.257-.367-1.524-.91c-.266.543-.841.91-1.523.91s-1.258-.367-1.524-.91c-.266.543-.842.91-1.524.91-.68 0-1.253-.365-1.521-.905a1.68 1.68 0 0 1-.783.791c.556.271.939.836.939 1.488 0 .651-.383 1.216-.94 1.487.557.271.94.836.94 1.488a1.66 1.66 0 0 1-.94 1.488c.556.27.94.836.94 1.487A1.66 1.66 0 0 1 6 12.787zm-1.989 2.322v12.788l6.294-6.324zm24.048 0-6.31 6.48 6.31 6.335z"/>
</svg>
