<svg xml:space="preserve" viewBox="0 0 32 32" xmlns="http://www.w3.org/2000/svg"><g id="icon">
  <path d="M12.903 5.89h1.187v5.674h-1.325V8.743a89.004 89.004 0 0 1 .033-1.569h-.017a9.865 9.865 0 0 1-.748.618l-.292.22-.61-.879 1.772-1.244m4.34 4.686c-.297.003-.576.01-.837.02v-.016a8.675 8.675 0 0 0 1.074-.845c.254-.233.465-.449.635-.646.166-.198.303-.388.406-.57.101-.181.174-.359.216-.532.039-.173.06-.35.06-.529 0-.292-.055-.544-.167-.756a1.485 1.485 0 0 0-.446-.52 1.897 1.897 0 0 0-.64-.297 2.965 2.965 0 0 0-.747-.093 5.2 5.2 0 0 0-.951.086c-.31.056-.58.139-.813.248l.121 1.056c.228-.13.451-.225.672-.284.219-.06.434-.09.645-.09.13 0 .254.014.37.041a.814.814 0 0 1 .305.138c.087.065.156.15.208.252a.822.822 0 0 1 .078.374c0 .2-.048.401-.144.602-.095.2-.242.416-.442.646-.2.23-.46.483-.777.76a28.31 28.31 0 0 1-1.142.935v1.008h3.992v-.992h-.837c-.26 0-.54.002-.839.004m5.952-4.085c.347.477.521 1.206.521 2.187 0 .986-.17 1.733-.513 2.24-.341.506-.883.76-1.625.76-.749 0-1.297-.244-1.647-.732-.349-.488-.523-1.198-.523-2.13 0-1.057.177-1.828.532-2.313.354-.485.914-.727 1.678-.727.705 0 1.231.238 1.577.715m-.78 2.252c0-1.36-.285-2.04-.854-2.04-.276 0-.487.162-.634.487-.146.326-.219.816-.219 1.471 0 1.394.287 2.09.861 2.09.272 0 .48-.17.626-.508.147-.339.22-.839.22-1.5m6.977 4.493V30.68H2.678V13.236h1.989V11.59h.666c.193 0 .35-.146.35-.325s-.157-.325-.35-.325h-.666V8.615h.666c.193 0 .35-.146.35-.325 0-.18-.157-.325-.35-.325h-.666V5.64h.666c.193 0 .35-.146.35-.325 0-.18-.157-.325-.35-.325h-.666V2.665h.666c.193 0 .35-.146.35-.325v-.667h2.349v.667c0 .179.175.268.35.268.174 0 .348-.09.348-.268v-.667h2.35v.667c0 .179.174.268.349.268s.349-.09.349-.268v-.667h2.349v.667c0 .179.175.268.35.268.174 0 .348-.09.348-.268v-.667h2.35v.667c0 .179.174.268.348.268.175 0 .35-.09.35-.268v-.667h2.35v.667c0 .179.174.268.349.268.174 0 .349-.09.349-.268v-.667h2.348v.667c0 .179.175.268.35.268s.35-.09.35-.268v-.667h2.349v.667c0 .179.156.325.349.325h.666V4.99h-.666c-.193 0-.35.145-.35.325 0 .18.157.325.35.325h.666v2.325h-.666c-.193 0-.35.146-.35.325 0 .18.157.325.35.325h.666v2.325h-.666c-.193 0-.35.146-.35.325s.157.325.35.325h.666v1.646h2.059zm-18.157 9.74-6.338 6.37h22.25l-6.327-6.353-2.66 2.731a2.847 2.847 0 0 1-2.125.94c-.78 0-1.562-.313-2.125-.94l-2.675-2.747m15.884-8.364H4.951l9.914 10.182c.325.36.728.537 1.17.537.442 0 .845-.177 1.134-.499l9.95-10.22M6 13.236h20v-.449a1.66 1.66 0 0 1-1.016-1.522c0-.651.384-1.216.94-1.487a1.659 1.659 0 0 1-.94-1.488c0-.652.383-1.217.94-1.488a1.658 1.658 0 0 1-.94-1.487c0-.652.384-1.217.94-1.488a1.68 1.68 0 0 1-.784-.79c-.267.54-.841.905-1.52.905-.683 0-1.259-.368-1.525-.911-.266.543-.841.91-1.523.91-.683 0-1.258-.368-1.524-.911-.267.543-.842.912-1.525.912-.682 0-1.257-.368-1.523-.911-.266.543-.842.91-1.524.91s-1.257-.367-1.524-.91c-.266.543-.841.91-1.523.91s-1.258-.367-1.524-.91c-.266.543-.842.91-1.524.91-.68 0-1.253-.365-1.521-.905a1.68 1.68 0 0 1-.783.791c.556.271.939.836.939 1.488 0 .651-.383 1.216-.94 1.487.557.271.94.836.94 1.488 0 .651-.384 1.217-.94 1.488.556.27.94.836.94 1.487A1.66 1.66 0 0 1 6 12.787v.449m-1.989 2.322v12.788l6.294-6.324-6.294-6.464m24.048 0-6.31 6.48 6.31 6.335V15.558"/>
</g></svg>
