<svg xmlns="http://www.w3.org/2000/svg" viewBox="0 0 32 32"><symbol id="icon">
    <path d="M1.333 4v24h29.333V4H1.333zm28 22.667H2.666V5.334h26.667v21.333z"/>
    <path d="M6.667 16H16v1.333H6.667V16zM6.667 18.667h6.667V20H6.667v-1.333zM6.667 21.333H16v1.333H6.667v-1.333zM18.667 16H20v1.333h-1.333V16z"/>
    <path d="M21.333 20v-1.333h1.333V16h-1.333v1.333H20v1.333h-1.333v1.333H20v1.333h2.667v-1.333zM22.667 18.667H24V20h-1.333v-1.333z"/>
    <path d="M22.667 21.333v1.333h2.667v-2.667h-1.333v1.333zM18.667 21.333H20v1.333h-1.333v-1.333zM24 17.333v1.333h1.333v-2.667H24zM6.667 10.667h18.667V12H6.667v-1.333z"/>
</symbol></svg>
