<svg viewBox="0 0 32 32" xmlns="http://www.w3.org/2000/svg"><g id="icon">
  <path d="M13.2 16.133c-.667-.267-1.067-.4-1.733-.4-.8 0-1.6.267-1.6 1.2 0 1.733 4 1.333 4 4.4 0 2-1.467 2.8-3.333 2.8-.667 0-1.333-.133-1.867-.4l.133-1.2c.4.133 1.2.4 1.867.4.8 0 1.867-.4 1.867-1.467 0-2.133-4-1.467-4-4.4 0-1.6 1.333-2.533 2.933-2.533.667 0 1.333.133 2 .267l-.267 1.333zm5.467-1.466H20L23.867 24H22.4l-.933-2.4h-4.533l-.8 2.4h-1.333l3.867-9.333zM19.333 16l-1.867 4.667h3.733L19.332 16z"/>
  <path d="M25.333 2.667V1.334H24v1.333H8V1.334H6.667v1.333H1.334v28h29.333v-28h-5.333zm4 26.666H2.666V10.666h26.667v18.667zm0-20H2.666V4h4v1.333h1.333V4h16v1.333h1.333V4h4v5.333z"/>
</g></svg>
