<svg viewBox="0 0 32 32" xmlns="http://www.w3.org/2000/svg"><g id="icon">
  <path d="M20 17.333h10.667v1.333H20zm0 5.334h10.667V24H20zM20 28h10.667v1.333H20zm-3.467-7.867c-1.2 0-2.133-.933-2.133-2.133s.933-2.133 2.133-2.133 2.133.933 2.133 2.133-.933 2.133-2.133 2.133m0-2.933c-.4 0-.8.4-.8.8s.4.8.8.8.8-.4.8-.8-.4-.8-.8-.8m0 8.267c-1.2 0-2.133-.933-2.133-2.133s.933-2.133 2.133-2.133 2.133.933 2.133 2.133-.933 2.133-2.133 2.133m0-2.934c-.4 0-.8.4-.8.8s.4.8.8.8.8-.4.8-.8-.4-.8-.8-.8m0 8.267c-1.2 0-2.133-.933-2.133-2.133s.933-2.133 2.133-2.133 2.133.933 2.133 2.133-.933 2.133-2.133 2.133m0-2.933c-.4 0-.8.4-.8.8s.4.8.8.8.8-.4.8-.8-.4-.8-.8-.8"/>
  <path d="M28.4 14.667h1.867L16 .4.4 16h4.933v16h1.333V14.667H3.599l12.4-12.4z"/>
</g></svg>
