<svg xmlns="http://www.w3.org/2000/svg" viewBox="0 0 32 32"><symbol id="icon">
    <path d="M20 17.333h10.667v1.333H20v-1.333zM20 22.667h10.667V24H20v-1.333zM20 28h10.667v1.333H20V28zM16.533 20.133c-1.2 0-2.133-.933-2.133-2.133s.933-2.133 2.133-2.133 2.133.933 2.133 2.133-.933 2.133-2.133 2.133zm0-2.933c-.4 0-.8.4-.8.8s.4.8.8.8.8-.4.8-.8-.4-.8-.8-.8zM16.533 25.467c-1.2 0-2.133-.933-2.133-2.133s.933-2.133 2.133-2.133 2.133.933 2.133 2.133-.933 2.133-2.133 2.133zm0-2.934c-.4 0-.8.4-.8.8s.4.8.8.8.8-.4.8-.8-.4-.8-.8-.8zM16.533 30.8c-1.2 0-2.133-.933-2.133-2.133s.933-2.133 2.133-2.133 2.133.933 2.133 2.133-.933 2.133-2.133 2.133zm0-2.933c-.4 0-.8.4-.8.8s.4.8.8.8.8-.4.8-.8-.4-.8-.8-.8z"/>
    <path d="M28.4 14.667h1.867L16 .4.4 16h4.933v16h1.333V14.667H3.599l12.4-12.4z"/>
</symbol></svg>
