<svg viewBox="0 0 32 32" xmlns="http://www.w3.org/2000/svg">
  <path d="M11.33 13.33c2.54 0 4.67-2.13 4.67-4.66S13.87 4 11.33 4 6.66 6.13 6.66 8.67s2.13 4.67 4.67 4.67m0-8c1.87 0 3.33 1.47 3.33 3.33S13.19 12 11.33 12 8 10.53 8 8.67s1.47-3.33 3.33-3.33M6.67 21.33H8V28H6.67zM14.8 16c.4-.4.8-.93 1.33-1.2-.27 0-.53-.13-.8-.13h-8c-2.53 0-4.67 2.13-4.67 4.67v8.67h1.33v-8.67a3.3 3.3 0 0 1 3.33-3.33h7.47zm1.2 6c0-3.33 2.67-6 6-6 1.47 0 2.67.53 3.73 1.33H24v1.33h4v-4h-1.33v1.73c-1.33-1.07-2.93-1.73-4.67-1.73-4 0-7.33 3.33-7.33 7.33 0 .67.13 1.33.27 2h1.47a5.3 5.3 0 0 1-.4-2zm13.07-2H27.6q.4 1 .4 2c0 3.33-2.67 6-6 6-1.47 0-2.67-.53-3.73-1.33H20v-1.33h-4v4h1.33v-1.73c1.33 1.07 2.93 1.73 4.67 1.73 4 0 7.33-3.33 7.33-7.33 0-.67-.13-1.33-.27-2z"/>
</svg>
