<svg viewBox="0 0 32 32" xmlns="http://www.w3.org/2000/svg"><g id="icon">
  <path d="M25.333 2.667V1.334H24v1.333H8V1.334H6.667v1.333H1.334v28h29.333v-28h-5.333zm4 26.666H2.666V10.666h26.667v18.667zm0-20H2.666V4h4v1.333h1.333V4h16v1.333h1.333V4h4v5.333z"/>
  <path d="M10.4 22a5.344 5.344 0 0 1-.4-2c0-3.333 2.667-6 6-6 1.467 0 2.667.533 3.733 1.333H18v1.333h4v-4h-1.333v1.733c-1.333-1.067-2.933-1.733-4.667-1.733-4 0-7.333 3.333-7.333 7.333 0 .667.133 1.333.267 2h1.467zM22 20c0 3.333-2.667 6-6 6-1.467 0-2.667-.533-3.733-1.333H14v-1.333h-4v4h1.333v-1.733c1.333 1.067 2.933 1.733 4.667 1.733 4 0 7.333-3.333 7.333-7.333 0-.667-.133-1.333-.267-2h-1.467c.267.667.4 1.333.4 2z"/>
</g></svg>
