<svg viewBox="0 0 32 32" xmlns="http://www.w3.org/2000/svg"><g id="icon">
  <path d="M14.667 17.333H32v-16h-2.667V0H28v1.333h-9.333V0h-1.333v1.333h-2.667zM16 2.667h1.333V4h1.333V2.667h9.333V4h1.333V2.667h1.333v2.667H15.998V2.667zM30.667 16H16V6.667h14.667zm-22 1.333c2.533 0 4.667-2.133 4.667-4.667s-2.133-4.667-4.667-4.667S4 10.132 4 12.666s2.133 4.667 4.667 4.667m0-8C10.534 9.333 12 10.8 12 12.666s-1.467 3.333-3.333 3.333-3.333-1.467-3.333-3.333a3.3 3.3 0 0 1 3.333-3.333m4 9.334h-8C2.134 18.667 0 20.8 0 23.334v8.667h1.333v-8.667a3.3 3.3 0 0 1 3.333-3.333h8a3.3 3.3 0 0 1 3.333 3.333v8.667h1.333v-8.667c0-2.533-2.133-4.667-4.667-4.667z"/>
  <path d="M4 24.667h1.333V32H4zm8 0h1.333V32H12z"/>
</g></svg>
