<svg viewBox="0 0 32 32" xmlns="http://www.w3.org/2000/svg"><g id="icon">
  <path d="M17.333 18.667h4V20h-4zM16 14c2.933 0 5.333-2.4 5.333-5.333V7.334H24V6.001h-2.667c0-2.533-2.133-4.667-4.667-4.667h-1.333c-2.533 0-4.667 2.133-4.667 4.667v2.667c0 2.933 2.4 5.333 5.333 5.333zm-.667-11.333h1.333A3.3 3.3 0 0 1 19.999 6h-8a3.3 3.3 0 0 1 3.333-3.333zM12 7.333h8v1.333c0 2.267-1.733 4-4 4s-4-1.733-4-4z"/>
  <path d="M22 16H10c-3.333 0-6 2.667-6 6v10h1.333V22c0-2.533 2.133-4.667 4.667-4.667h12c2.533 0 4.667 2.133 4.667 4.667v10H28V22c0-3.333-2.667-6-6-6"/>
  <path d="M9.333 22.667h1.333V32H9.333zm12 0h1.333V32h-1.333z"/>
</g></svg>
