<svg viewBox="0 0 32 32" xmlns="http://www.w3.org/2000/svg"><g id="icon">
  <path d="M25.333 30.667h-24v-24h16V5.334H0v26.667h26.667V14.668h-1.333z"/>
  <path d="M7.333 25.067c.267-.267.4-.667.4-1.2s-.133-.933-.267-1.2c-.267-.267-.533-.533-.8-.533-.4-.133-.667-.133-1.067-.267H2.666v7.467h1.467v-3.067h.533c.267 0 .533 0 .667.133s.267.267.4.533l.8 2.4h1.733l-1.2-2.933c-.133-.133-.133-.4-.267-.533s-.267-.267-.533-.267c.533 0 .8-.267 1.067-.533zm-1.2-.534c-.133.133-.267.267-.4.267-.133.133-.267.133-.533.133H4.134v-2H5.2c.133 0 .4 0 .533.133.133 0 .267.133.4.267s.133.267.133.533-.133.533-.133.667m7.334-1.466v-1.2H9.334v7.467h1.467v-3.333h2.533v-1.067h-2.533v-1.867zm1.2-1.2h1.467v7.467h-1.467zm2.933 0v7.467h2c.533 0 1.2 0 1.6-.133.533-.133.933-.267 1.333-.533s.667-.667.933-1.2c.267-.533.4-1.067.4-1.867s-.133-1.333-.4-1.867c-.267-.533-.533-.8-.933-1.2-.8-.533-1.867-.8-3.067-.8h-1.867zm4.133 1.866c.533.4.8 1.067.8 1.867s-.267 1.467-.8 1.867c-.533.4-1.067.667-1.733.667h-.8v-5.067h.8c.667 0 1.2.267 1.733.667zM20 14.667c1.467 0 2.667-1.2 2.667-2.667S21.467 9.333 20 9.333s-2.667 1.2-2.667 2.667c0 1.467 1.2 2.667 2.667 2.667m0-4c.8 0 1.333.533 1.333 1.333S20.8 13.333 20 13.333 18.667 12.8 18.667 12 19.2 10.667 20 10.667m0-5.334v1.333c2.933 0 5.333 2.4 5.333 5.333h1.333c0-3.733-2.933-6.667-6.667-6.667z"/>
  <path d="M20 1.333v1.333c5.2 0 9.333 4.133 9.333 9.333h1.333c0-5.867-4.8-10.667-10.667-10.667z"/>
</g></svg>
