<svg viewBox="0 0 32 32" xmlns="http://www.w3.org/2000/svg"><g id="icon">
  <path d="M16 22.667c-1.467 0-2.667 1.2-2.667 2.667s1.2 2.667 2.667 2.667 2.667-1.2 2.667-2.667-1.2-2.667-2.667-2.667m0 4c-.8 0-1.333-.533-1.333-1.333S15.2 24.001 16 24.001s1.333.533 1.333 1.333S16.8 26.667 16 26.667m-9.467-10.8.933.933c2.267-2.267 5.333-3.467 8.533-3.467s6.267 1.2 8.533 3.467l.933-.933C22.932 13.334 19.598 12 15.998 12s-6.933 1.333-9.467 3.867zM16 2.667c-6 0-11.733 2.4-16 6.667l.933.933C4.933 6.267 10.266 4 16 4s11.067 2.267 15.067 6.267L32 9.334c-4.267-4.267-10-6.667-16-6.667"/>
</g></svg>
