<svg viewBox="0 0 32 32" xmlns="http://www.w3.org/2000/svg"><g id="icon">
  <path d="M1.333 12c0-2.267 1.733-4 4-4H18.8l-4 4h1.867l4.667-4.667-4.667-4.667H14.8l4 4H5.333C2.4 6.666 0 9.066 0 11.999s2.4 5.333 5.333 5.333h4v-1.333h-4c-2.267 0-4-1.733-4-4z"/>
  <path d="M10.667 16v14.667H32V16H10.667zm19.066 1.333L21.866 25.2a.644.644 0 0 1-.933 0l-8-7.867h16.8zM12 18.267l5.067 5.067L12 28.401V18.268zm.933 11.066L18 24.266l1.867 1.867c.4.4.933.533 1.467.533s1.067-.133 1.467-.533l1.867-1.867 5.067 5.067h-16.8zm17.734-.933L25.6 23.333l5.067-5.067v10.133z"/>
</g></svg>
