<svg viewBox="0 0 32 32" xmlns="http://www.w3.org/2000/svg"><g id="icon">
  <path d="M12 27.333c2.933 0 5.333-1.6 6.533-4.133h-1.6C15.866 24.8 14 26 11.866 26c-3.333 0-6-2.667-6-6s2.667-6 6-6c2.133 0 4 1.2 5.067 2.933h-4l1.333 1.333h4.933v-5.067l-1.333-1.333v3.867c-1.333-1.867-3.467-3.067-5.867-3.067-4 0-7.333 3.333-7.333 7.333s3.333 7.333 7.333 7.333z"/>
  <path d="M1.333 30.667h29.333V9.334h-8v-8H1.333v29.333zm20-1.334H2.666V10.666h18.667zm0-20H2.666V2.666h18.667v6.667m8 20h-6.667V10.666h6.667z"/>
</g></svg>
