<svg viewBox="0 0 32 32" xmlns="http://www.w3.org/2000/svg">
  <path d="M10.13 17.07h1.2l2.13 5.6h-1.2l-.53-1.33H9.6l-.53 1.33h-1.2zm.53 1.07-.8 2.27h1.6zm4.01-1.07h2c.67 0 1.73.27 1.73 1.47 0 .67-.4 1.07-1.07 1.2.8.13 1.33.53 1.33 1.33 0 1.47-1.2 1.6-2 1.6h-2zm1.07 2.27h.4c.53 0 1.07-.13 1.07-.67 0-.67-.53-.67-1.07-.67h-.4v1.33zm0 2.4h.53c.53 0 1.2-.13 1.2-.8s-.53-.8-1.2-.8h-.53zm8.26.79c-.4.13-.8.13-1.33.13-1.87 0-3.07-.93-3.07-2.8s1.2-2.93 3.07-2.93c.4 0 .8.13 1.2.27l-.13.93c-.4-.27-.8-.27-1.2-.27-1.2 0-1.87.93-1.87 2 0 1.2.67 2 1.87 2 .4 0 .93-.13 1.2-.27l.27.93zm-4.4-21.2H5.33v29.33h21.33V8.4l-7.07-7.07zM20 3.6 24.4 8H20zm5.33 25.73H6.67V2.67h12v6.67h6.67z"/>
</svg>
