<svg viewBox="0 0 32 32" xmlns="http://www.w3.org/2000/svg"><g id="icon">
  <path d="M27.333 6.667H20v-2a3.3 3.3 0 0 0-3.333-3.333H14a3.3 3.3 0 0 0-3.333 3.333v2H3.334c-.4 0-.667.267-.667.667s.267.667.667.667h2v19.333a3.3 3.3 0 0 0 3.333 3.333H22a3.3 3.3 0 0 0 3.333-3.333V8.001h2c.4 0 .667-.267.667-.667s-.267-.667-.667-.667M12 4.667c0-1.067.933-2 2-2h2.667c1.067 0 2 .933 2 2v2H12zm12 22.666c0 1.067-.933 2-2 2H8.667c-1.067 0-2-.933-2-2V8H24z"/>
  <path d="M14.667 12H16v13.333h-1.333zm-5.334 0h1.333v13.333H9.333zM20 12h1.333v13.333H20z"/>
</g></svg>
