<svg viewBox="0 0 32 32" xmlns="http://www.w3.org/2000/svg"><g id="icon">
  <path d="M26.4 20h4.267v-6.667H26.4c-.4-.267-.667-.533-.8-.933-.267-.4-.133-.8-.133-1.2l3.067-3.067-4.667-4.667L20.8 6.533c-.4.133-.8 0-1.2-.133s-.667-.4-.933-.8V1.333H12V5.6c-.267.4-.533.667-.933.8a1.67 1.67 0 0 1-1.2.133L6.8 3.466 2.133 8.133 5.2 11.2c.133.4 0 .8-.133 1.2s-.4.667-.8.933H0V20h4.267c.4.267.667.533.8.933s.133.8.133 1.2L2.133 25.2 6.8 29.867 9.867 26.8c.4-.133.8 0 1.2.133s.667.4.933.8V32h6.667v-4.267c.267-.4.533-.667.933-.8s.8-.133 1.2-.133l3.067 3.067 4.667-4.667-3.067-3.067c-.133-.4 0-.8.133-1.2s.4-.667.8-.933m-2.133 2.667v.133l2.4 2.4-2.8 2.8-2.4-2.4h-.133c-.8-.267-1.6-.133-2.267.133s-1.2.8-1.6 1.467l-.133.133v3.333h-4v-3.333l-.133-.133c-.4-.667-.933-1.2-1.6-1.467-.667-.4-1.467-.4-2.267-.133h-.133l-2.4 2.4-2.8-2.8 2.4-2.4v-.133c.267-.8.267-1.6-.133-2.267-.267-.667-.8-1.2-1.467-1.6l-.133-.133H1.335v-4h3.333l.133-.133c.667-.4 1.2-.933 1.467-1.6.4-.667.4-1.467.133-2.267v-.133l-2.4-2.4 2.8-2.8 2.4 2.4h.133c.8.267 1.6.267 2.267-.133.667-.267 1.2-.8 1.6-1.467l.133-.133V2.668h4v3.333l.133.133c.4.667.933 1.2 1.6 1.467.667.4 1.467.4 2.267.133h.133l2.4-2.4 2.8 2.8-2.4 2.4v.133c-.267.8-.267 1.6.133 2.267.267.667.8 1.2 1.467 1.6l.133.133h3.333v4H26l-.133.133c-.667.4-1.2.933-1.467 1.6-.4.667-.4 1.467-.133 2.267"/>
  <path d="M15.333 10.667c-3.333 0-6 2.667-6 6s2.667 6 6 6 6-2.667 6-6-2.667-6-6-6m0 10.666c-2.533 0-4.667-2.133-4.667-4.667s2.133-4.667 4.667-4.667S20 14.132 20 16.666s-2.133 4.667-4.667 4.667"/>
</g></svg>
