<svg viewBox="0 0 32 32" xmlns="http://www.w3.org/2000/svg"><g id="icon">
  <path d="M27.333 2.667H8c-.533 0-1.067.267-1.467.533L3.2 6.533c-.267.4-.533.933-.533 1.467v19.333c0 1.067.933 2 2 2h22.667c1.067 0 2-.933 2-2V4.666c0-1.067-.933-2-2-2zM12 4h8v4h-8zm16 23.333c0 .4-.267.667-.667.667H4.666c-.4 0-.667-.267-.667-.667V8c0-.133.133-.4.133-.533l3.333-3.333c.133 0 .4-.133.533-.133h2.667v5.333h10.667V4.001h6c.4 0 .667.267.667.667v22.667z"/>
  <path d="M16 12.667c-2.267 0-4 1.733-4 4s1.733 4 4 4 4-1.733 4-4-1.733-4-4-4zm0 6.666c-1.467 0-2.667-1.2-2.667-2.667s1.2-2.667 2.667-2.667c1.467 0 2.667 1.2 2.667 2.667s-1.2 2.667-2.667 2.667"/>
</g></svg>
