<svg viewBox="0 0 32 32" xmlns="http://www.w3.org/2000/svg"><g id="icon">
  <path d="M2.667 10.667h8v-8h-8v8zM4 4h5.333v5.333H4V4zm8 6.667h8v-8h-8v8zM13.333 4h5.333v5.333h-5.333V4zm8-1.333v8h8v-8h-8zM28 9.333h-5.333V4H28v5.333zM2.667 20h8v-8h-8v8zM4 13.333h5.333v5.333H4v-5.333zM12 20h8v-8h-8v8zm1.333-6.667h5.333v5.333h-5.333v-5.333zm8 6.667h8v-8h-8v8zm1.334-6.667H28v5.333h-5.333v-5.333zm-20 16h8v-8h-8v8zM4 22.667h5.333V28H4v-5.333zm8 6.666h8v-8h-8v8zm1.333-6.666h5.333V28h-5.333v-5.333zm8 6.666h8v-8h-8v8zm1.334-6.666H28V28h-5.333v-5.333z"/>
</g></svg>
