<svg viewBox="0 0 32 32" xmlns="http://www.w3.org/2000/svg"><g id="icon">
  <path d="M0 5.333h5.333V0H0zm1.333-4H4V4H1.333zM12 0H6.667v5.333H12zm-1.333 4H8V1.333h2.667zm8-4h-5.333v5.333h5.333zm-1.334 4h-2.667V1.333h2.667zM0 12h5.333V6.667H0zm1.333-4H4v2.667H1.333zM0 18.667h5.333v-5.333H0zm1.333-4H4v2.667H1.333zM24.4 21.6c.533-1.067.933-2.267.933-3.6 0-4-3.333-7.333-7.333-7.333S10.667 14 10.667 18 14 25.333 18 25.333c1.333 0 2.533-.4 3.6-.933l6.533 6.533 2.8-2.8zM18 24c-3.333 0-6-2.667-6-6s2.667-6 6-6 6 2.667 6 6-2.667 6-6 6m4.667-.4c.4-.267.667-.667.933-.933L28.933 28 28 29.067zm-8-15.6h2.667v1.333h1.334V6.666h-5.333v4c.4-.267.8-.533 1.333-.667v-2zM12 11.733V6.666H6.667v5.333h5.067zm-1.333-1.066H8V8h2.667zm-.667 4c.133-.533.4-.933.667-1.333h-4v5.333h2.667v-1.334H8.001v-2.667h2z"/>
</g></svg>
