<svg viewBox="0 0 32 32" xmlns="http://www.w3.org/2000/svg">
  <path d="M0 5.33h5.33V0H0zm1.33-4H4V4H1.33zM12 0H6.67v5.33H12zm-1.33 4H8V1.33h2.67zm8-4h-5.33v5.33h5.33zm-1.33 4h-2.67V1.33h2.67zM0 12h5.33V6.67H0zm1.33-4H4v2.67H1.33zM0 18.67h5.33v-5.33H0zm1.33-4H4v2.67H1.33zM24.4 21.6c.53-1.07.93-2.27.93-3.6 0-4-3.33-7.33-7.33-7.33S10.67 14 10.67 18 14 25.33 18 25.33c1.33 0 2.53-.4 3.6-.93l6.53 6.53 2.8-2.8zM18 24c-3.33 0-6-2.67-6-6s2.67-6 6-6 6 2.67 6 6-2.67 6-6 6m4.67-.4c.4-.27.67-.67.93-.93L28.93 28 28 29.07zm-8-15.6h2.67v1.33h1.33V6.67h-5.33v4c.4-.27.8-.53 1.33-.67zM12 11.73V6.67H6.67V12h5.07zm-1.33-1.07H8V8h2.67zM10 14.67c.13-.53.4-.93.67-1.33h-4v5.33h2.67v-1.33H8v-2.67z"/>
</svg>
