<svg viewBox="0 0 32 32" xmlns="http://www.w3.org/2000/svg"><g id="icon">
  <path d="M4 4h5.333V2.667H2.666v26.667h6.667v-1.333H4zm18.667-1.333V4H28v24h-5.333v1.333h6.667V2.666zm-8 18.666h-1.333v1.333h2.667v-2.667h-1.333zm-1.334-2.666h1.333v-1.333h-2.667v2.667h1.333zm-4 0V20h1.333v-2.667H9.333zm0 2.666v1.333H12v-1.333h-1.333zM18.667 16v-1.333h-1.333v2.667h1.333zm0-5.333V9.334h-1.333v2.667h1.333zM20 13.333h2.667V12h-4v1.333zm2.667-2.666V9.334H20v1.333h1.333zm-2.667 4v2.667h1.333v-1.333h1.333v-1.333h-1.333zM18.667 20v-1.333h-1.333v-1.333h-1.333v2.667h1.333zm-1.334 1.333v1.333H20v-1.333h-1.333zm4 1.334h1.333v-4h-2.667V20h1.333v1.333zm-5.333-8V9.334H9.333v6.667H16v-1.333zm-1.333 0h-4v-4h4z"/>
  <path d="M12 12h1.333v1.333H12z"/>
</g></svg>
