<svg viewBox="0 0 32 32" xmlns="http://www.w3.org/2000/svg">
  <path d="M23.33.67c-4.4 0-8 3.6-8 8s3.6 8 8 8 8-3.6 8-8-3.6-8-8-8m5.73 4.67h-1.73c-.27-1.07-.67-1.87-1.07-2.67 1.2.67 2.13 1.6 2.8 2.67M26.4 8.67c0 .67-.13 1.33-.13 2H24v-4h2.27c0 .67.13 1.33.13 2m-6.13 0c0-.67.13-1.33.13-2h2.27v4H20.4c0-.67-.13-1.33-.13-2m2.4-6.4v3.07H20.8c.4-1.6 1.07-2.67 1.87-3.07m0 9.73v3.07c-.8-.4-1.47-1.6-1.87-3.07zM24 15.07V12h1.87c-.4 1.6-1.07 2.67-1.87 3.07m0-9.73V2.27c.8.4 1.47 1.47 1.87 3.07zm-3.6-2.67c-.4.67-.8 1.6-1.07 2.67H17.6c.67-1.07 1.6-2 2.8-2.67m-3.33 4h2.13c-.13.67-.13 1.33-.13 2s0 1.33.13 2h-2.13q-.4-1-.4-2c0-1 .13-1.33.4-2M17.6 12h1.73c.27 1.07.67 1.87 1.07 2.67A7.7 7.7 0 0 1 17.6 12m8.67 2.67c.4-.67.8-1.6 1.07-2.67h1.73c-.67 1.07-1.6 2-2.8 2.67m3.33-4h-2.13c.13-.67.13-1.33.13-2s0-1.33-.13-2h2.13q.4 1 .4 2c0 1-.13 1.33-.4 2m-4.27 10c0 .4-.27.67-.67.67H2c-.4 0-.67-.27-.67-.67V6c0-.4.27-.67.67-.67h12V4H2C.93 4 0 4.93 0 6v14.8c0 .93.93 1.87 2 1.87h7.33V28H4v1.33h18.67V28h-5.33v-5.33h7.33c1.07 0 2-.93 2-2v-2h-1.33zM16 28h-5.33v-5.33H16z"/>
</svg>
