<svg viewBox="0 0 32 32" xmlns="http://www.w3.org/2000/svg"><g id="icon">
  <path d="M23.333.667c-4.4 0-8 3.6-8 8s3.6 8 8 8 8-3.6 8-8-3.6-8-8-8m5.734 4.666h-1.733c-.267-1.067-.667-1.867-1.067-2.667 1.2.667 2.133 1.6 2.8 2.667M26.4 8.667c0 .667-.133 1.333-.133 2H24v-4h2.267c0 .667.133 1.333.133 2m-6.133 0c0-.667.133-1.333.133-2h2.267v4H20.4c0-.667-.133-1.333-.133-2m2.4-6.4v3.067H20.8c.4-1.6 1.067-2.667 1.867-3.067m0 9.733v3.067c-.8-.4-1.467-1.6-1.867-3.067zM24 15.067V12h1.867c-.4 1.6-1.067 2.667-1.867 3.067m0-9.734V2.266c.8.4 1.467 1.467 1.867 3.067zm-3.6-2.666c-.4.667-.8 1.6-1.067 2.667H17.6c.667-1.067 1.6-2 2.8-2.667m-3.333 4H19.2c-.133.667-.133 1.333-.133 2s0 1.333.133 2h-2.133q-.4-1-.4-2c0-1 .133-1.333.4-2M17.6 12h1.733c.267 1.067.667 1.867 1.067 2.667A7.7 7.7 0 0 1 17.6 12m8.667 2.667c.4-.667.8-1.6 1.067-2.667h1.733c-.667 1.067-1.6 2-2.8 2.667m3.333-4h-2.133c.133-.667.133-1.333.133-2s0-1.333-.133-2H29.6q.4 1 .4 2c0 1-.133 1.333-.4 2"/>
  <path d="M25.333 20.667c0 .4-.267.667-.667.667H1.999c-.4 0-.667-.267-.667-.667V6c0-.4.267-.667.667-.667h12V4h-12c-1.067 0-2 .933-2 2v14.8c0 .933.933 1.867 2 1.867h7.333V28H3.999v1.333h18.667V28h-5.333v-5.333h7.333c1.067 0 2-.933 2-2v-2h-1.333zM16 28h-5.333v-5.333H16z"/>
</g></svg>
