<svg viewBox="0 0 32 32" xmlns="http://www.w3.org/2000/svg">
  <path d="M24 4.8c-1.73 0-3.2 1.47-3.2 3.2s1.47 3.2 3.2 3.2 3.2-1.47 3.2-3.2-1.47-3.2-3.2-3.2m0 5.07c-1.07 0-1.87-.8-1.87-1.87s.8-1.87 1.87-1.87 1.87.8 1.87 1.87-.8 1.87-1.87 1.87m5.6.13H32V6h-2.4c-.13-.13-.13-.13-.13-.27v-.27l1.73-1.73-2.8-2.8-1.87 1.73h-.27c-.13 0-.13-.13-.27-.13V0h-4v2.4c-.13.13-.13.13-.27.13h-.27L19.73.8l-2.8 2.8 1.73 1.87v.27c0 .13-.13.13-.13.27H16v4h2.4c.13.13.13.13.13.27v.27l-1.73 1.73 2.8 2.8 1.73-1.73h.27c.13 0 .13.13.27.13v2.53h4v-2.4c.13-.13.13-.13.27-.13h.27l1.73 1.73 2.8-2.8-1.6-1.87v-.27zm-.4-1.33-.13.13a3.1 3.1 0 0 0-.93.93c-.13.4-.13.8 0 1.33v.13l1.07 1.07-.93.93-1.07-1.07h-.13c-.4-.13-.93-.13-1.33 0s-.8.53-.93.93l-.13.13v1.47h-1.33v-1.47l-.13-.13a3.1 3.1 0 0 0-.93-.93c-.4-.13-.8-.13-1.33 0h-.13l-1.07 1.07-.93-.93 1.07-1.07v-.13c.13-.4.13-.93 0-1.33s-.53-.8-.93-.93l-.13-.13h-1.47V7.33h1.47l.13-.13c.4-.27.67-.53.93-.93.13-.4.13-.8 0-1.33v-.13l-1.07-1.07.93-.93 1.07 1.07h.13c.4.13.93.13 1.33 0s.8-.53.93-.93l.13-.13V1.34h1.33v1.47l.13.13c.27.4.53.67.93.93.4.13.8.13 1.33 0h.13l1.07-1.07.93.93-1.07 1.07v.13c-.13.53-.13.93 0 1.33s.53.8.93.93l.13.13h1.47v1.33zm-3.87 12c0 .4-.27.67-.67.67H2c-.4 0-.67-.27-.67-.67V6c0-.4.27-.67.67-.67h12.67V4H2C.93 4 0 4.93 0 6v14.8c0 .93.93 1.87 2 1.87h7.33V28H4v1.33h18.67V28h-5.33v-5.33h7.33c1.07 0 2-.93 2-2v-3.33h-1.33zM16 28h-5.33v-5.33H16z"/>
</svg>
