<svg viewBox="0 0 32 32" xmlns="http://www.w3.org/2000/svg"><g id="icon">
  <path d="M30 8h-6.667c-1.067 0-2 .933-2 2v17.333c0 1.067.933 2 2 2H30c1.067 0 2-.933 2-2V10c0-1.067-.933-2-2-2m.667 19.333c0 .4-.267.667-.667.667h-6.667c-.4 0-.667-.267-.667-.667V10c0-.4.267-.667.667-.667H30c.4 0 .667.267.667.667z"/>
  <path d="M24 12h5.333v1.333H24zm0 2.667h5.333V16H24zM18 4H0v1.333h18c.4 0 .667.267.667.667v14.667c0 .4-.267.667-.667.667H0v1.333h2.667V28H0v1.333h16V28h-5.333v-5.333H18c1.067 0 2-.933 2-2V6c0-1.067-.933-2-2-2zM9.333 28H4v-5.333h5.333z"/>
</g></svg>
