<svg viewBox="0 0 32 32" xmlns="http://www.w3.org/2000/svg">
  <path d="M28 9.333h-1.6l5.2-5.2L27.867.4l-8.933 8.933H4.001A2.675 2.675 0 0 0 1.334 12v16c0 1.467 1.2 2.667 2.667 2.667h24c1.467 0 2.667-1.2 2.667-2.667V12c0-.667-.267-1.333-.8-1.867s-1.2-.8-1.867-.8zm-.133-7.066 1.867 1.867-.933.933L26.934 3.2zm0 3.733L15.2 18.667 13.333 16.8 26 4.133zM14.133 19.6l-2.267.533.533-2.267zm15.2 8.4c0 .667-.667 1.333-1.333 1.333H4c-.8 0-1.333-.533-1.333-1.333V12c0-.8.533-1.333 1.333-1.333h13.6l-6.4 6.4-1.2 5.067 5.067-1.2 10-10.267H28c.4 0 .667.133.933.4s.4.533.4.933z"/>
</svg>
