<svg viewBox="0 0 32 32" xmlns="http://www.w3.org/2000/svg">
  <rect/>
  <path d="m29.8 11.5-.3-2.3-6.8-6.8-2.5-.1-4.5 4.6-1-.9-5.6 5.6c-.4.5-.8 1-1 1.6l-2.1 7-4.5 4.5.9.9 4.2-4.2 3.9 3.9-4.2 4.2.9.9 4.4-4.4 7.4-2.4c.6-.2 1.1-.5 1.6-1l5.4-5.4-1-1zm-1.4-.5-4.2 4.2-3.8-3.7.9-.9.9 1 2.9-2.9-.9-.9 1-1 3 3zm-7.7-7.4 1.4.1 2.2 2.2-2 2 .9.9-1 1-.9-1-1.9 1.8-2.9-2.8zm-1 18.1c-.3.3-.6.5-1 .6l-6.8 2.2L7.4 20l2-6.6c.1-.4.3-.8.6-1.1l4.6-4.6 9.4 9.4zm1.2-13.4-1.4-1.4.9-.9 1.4 1.4zm3.7 1.9 1.4 1.4-.9.9-1.4-1.4z"/>
</svg>
