<svg viewBox="0 0 32 32" xmlns="http://www.w3.org/2000/svg"><g id="icon">
  <path d="M8.667 9.333c2.533 0 4.667-2.133 4.667-4.667S11.201-.001 8.667-.001 4 2.132 4 4.666s2.133 4.667 4.667 4.667m0-8C10.534 1.333 12 2.8 12 4.666s-1.467 3.333-3.333 3.333-3.333-1.467-3.333-3.333 1.467-3.333 3.333-3.333M4 17.333h1.333V24H4z"/>
  <path d="M12.133 12c.533-.4.933-.8 1.6-1.2-.4-.133-.667-.133-1.067-.133h-8c-2.533 0-4.667 2.133-4.667 4.667v8.667h1.333v-8.667a3.3 3.3 0 0 1 3.333-3.333h7.467zm19.6 16.933L25.6 22.666c.667-1.2 1.067-2.533 1.067-4 0-4.4-3.6-8-8-8s-8 3.6-8 8 3.6 8 8 8c1.467 0 2.8-.4 4-1.067l6.133 6.133 2.933-2.8zM12 18.667C12 14.934 14.933 12 18.667 12s6.667 2.933 6.667 6.667-2.933 6.667-6.667 6.667S12 22.401 12 18.667m12.8 5.2 5.067 5.067-.933.933-5.067-5.067z"/>
</g></svg>
