<svg viewBox="0 0 32 32" xmlns="http://www.w3.org/2000/svg">
  <path d="M30.8 15.8s-3.6-10-14.7-10c-3 0-5.4.7-7.4 1.8L3.9 3l-1 .9 4.5 4.5c-4.5 2.9-6.1 7.5-6.1 7.5s3.3 10 14.7 10c2.9 0 5.3-.6 7.2-1.6l4.9 4.9.9-.9-4.6-4.6c4.8-3.1 6.4-7.9 6.4-7.9M16 7.2c8.9 0 12.5 6.8 13.3 8.6-.5 1.2-2.2 4.5-5.9 6.7l-1.9-1.9c1.1-1.3 1.8-3 1.8-4.8 0-4-3.3-7.3-7.3-7.3-1.8 0-3.5.7-4.8 1.8L9.6 8.7c1.8-.9 3.9-1.5 6.4-1.5m3.6 13.4q-1.5 1.2-3.6 1.2c-3.3 0-6-2.7-6-6 0-1.4.5-2.6 1.2-3.6zm-7.4-9.3c1-.9 2.4-1.4 3.8-1.4 3.3 0 6 2.7 6 6 0 1.5-.5 2.8-1.4 3.8zM16 24.5c-9.1 0-12.5-6.8-13.3-8.6.5-1.1 2.2-4.3 5.7-6.5l1.9 1.9c-1 1.3-1.6 2.8-1.6 4.6 0 4 3.3 7.3 7.3 7.3 1.7 0 3.3-.6 4.6-1.6l1.6 1.6c-1.7.8-3.7 1.3-6.2 1.3"/>
</svg>
