<svg xmlns="http://www.w3.org/2000/svg" viewBox="0 0 24 24" xml:space="preserve"><symbol id="icon">
    <path fill="none" d="M0 0h24v24H0z"/>
    <path d="M20.5 3h-17C2.673 3 2 3.656 2 4.463v11.074C2 16.344 2.673 17 3.5 17H9v4H5v1h14v-1h-4v-4h5.5c.827 0 1.5-.656 1.5-1.463V4.5c0-.827-.673-1.5-1.5-1.5zm-17 1h10.041l-1.442 1.304A1.986 1.986 0 0 0 11 4.972c-1.103 0-2 .897-2 2 0 .45.156.863.409 1.198l-1.596 2.006A1.985 1.985 0 0 0 7.001 10a1.98 1.98 0 0 0-1.227.433L3 8.313v-3.85C3 4.208 3.224 4 3.5 4zM12 6.972c0 .551-.449 1-1 1s-1-.449-1-1 .449-1 1-1 1 .448 1 1zM8.001 12c0 .551-.448 1-1 1-.55 0-1-.449-1-1s.45-1 1-1c.552 0 1 .449 1 1zM3.5 16c-.276 0-.5-.208-.5-.463V9.572l2.16 1.65A2.002 2.002 0 0 0 7.001 14c1.102 0 2-.897 2-2a1.98 1.98 0 0 0-.41-1.198l1.596-2.006c.249.11.522.176.812.176.433 0 .831-.142 1.159-.376l3.041 2.548c-.125.26-.2.548-.2.856 0 .334.09.644.236.921L11.83 16H3.5zM14 21h-4v-4h4v4zm7-5.463c0 .255-.225.463-.5.463h-7.178l2.579-2.332c.316.209.693.332 1.099.332 1.103 0 2-.897 2-2s-.897-2-2-2c-.433 0-.83.142-1.159.376l-3.04-2.548c.124-.26.199-.549.199-.856 0-.334-.09-.645-.235-.922L15.032 4H20.5a.5.5 0 0 1 .5.5v11.037zM16 12a1 1 0 0 1 2 0 1 1 0 0 1-2 0z"/>
</symbol></svg>
