<svg xmlns="http://www.w3.org/2000/svg" viewBox="0 0 24 24" xml:space="preserve"><symbol id="icon">
    <path fill="none" d="M0 0h24v24H0z"/>
    <g fill="#1D1D1B">
        <path d="M12 2C7.864 2 4.5 5.364 4.5 9.5h1C5.5 5.916 8.416 3 12 3s6.5 2.916 6.5 6.5c0 1.864-.73 3.621-2.09 4.986l-.299.371A5.015 5.015 0 0 0 15 18c0 1.654-1.346 3-3 3s-3-1.346-3-3H8c0 2.206 1.794 4 4 4s4-1.794 4-4c0-.925.308-1.794.89-2.515l.263-.332A7.948 7.948 0 0 0 19.5 9.5C19.5 5.364 16.136 2 12 2z"/>
        <path d="M15.117 11.976A3.96 3.96 0 0 0 16 9.5c0-2.206-1.794-4-4-4-.94 0-1.793.34-2.476.883l.707.707A2.972 2.972 0 0 1 12 6.5c1.654 0 3 1.346 3 3 0 .664-.224 1.272-.59 1.77l.707.706z"/>
    </g>
</symbol></svg>
