<svg viewBox="0 0 32 32" xmlns="http://www.w3.org/2000/svg">
  <path d="M16 1.3C10.2 1.3 4 3 4 6v20c0 3 6.2 4.7 12 4.7s12-1.6 12-4.7V6c0-3-6.2-4.7-12-4.7m0 21.4c-6.6 0-10.7-1.9-10.7-3.3v-4.5c2.1 1.6 6.5 2.5 10.7 2.5s8.5-.8 10.7-2.5v4.5c0 1.3-4.1 3.3-10.7 3.3m0-6.7c-6.6 0-10.7-1.9-10.7-3.3V8.2c2.1 1.6 6.5 2.5 10.7 2.5s8.5-.8 10.7-2.5v4.5c0 1.4-4.1 3.3-10.7 3.3m0-13.3c6.6 0 10.7 1.9 10.7 3.3S22.6 9.3 16 9.3 5.3 7.4 5.3 6 9.4 2.7 16 2.7m0 26.6c-6.6 0-10.7-1.9-10.7-3.3v-4.5C7.5 23.2 11.8 24 16 24s8.5-.8 10.7-2.5V26c0 1.4-4.1 3.3-10.7 3.3"/>
</svg>
