<svg viewBox="0 0 32 32" xmlns="http://www.w3.org/2000/svg">
  <path d="M27.7 13.3h-1v-1.7c0-1.3-1.1-2.3-2.3-2.3h-1.6V7.9c1.1-.3 1.9-1.3 1.9-2.6 0-1.5-1.2-2.7-2.7-2.7s-2.7 1.2-2.7 2.7c0 1.3.9 2.3 2.1 2.6v1.4H10.7V7.9c1.1-.3 2-1.3 2-2.6 0-1.5-1.2-2.7-2.7-2.7S7.3 3.9 7.3 5.3c0 1.2.9 2.3 2 2.6v1.4H7.7c-1.3 0-2.3 1.1-2.3 2.3v1.7h-1c-1.3 0-2.3 1.1-2.3 2.3v4.6c0 1.3 1.1 2.3 2.3 2.3h1v1.7c0 1.3 1.1 2.3 2.3 2.3h16.6c1.3 0 2.3-1.1 2.3-2.3v-1.7h1c1.3 0 2.3-1.1 2.3-2.3v-4.6c.1-1.2-1-2.3-2.2-2.3m-7-8c0-.7.6-1.3 1.3-1.3s1.3.6 1.3 1.3-.6 1.4-1.3 1.4-1.3-.6-1.3-1.4m-12 0c0-.7.6-1.3 1.3-1.3s1.3.6 1.3 1.3-.6 1.4-1.3 1.4-1.3-.6-1.3-1.4m-4.4 16c-.6 0-1-.5-1-1v-4.6c0-.6.5-1 1-1h1v6.7h-1zm21 3c0 .6-.5 1-1 1H7.7c-.6 0-1-.5-1-1V11.6c0-.6.5-1 1-1h16.6c.6 0 1 .5 1 1zm3.4-4c0 .6-.5 1-1 1h-1v-6.7h1c.6 0 1 .5 1 1zm-16-5c0-1.1-.9-2-2-2s-2 .9-2 2 .9 2 2 2 2-.9 2-2m-2 .7c-.4 0-.7-.3-.7-.7s.3-.7.7-.7.7.3.7.7c-.1.4-.4.7-.7.7m10.6-2.7c-1.1 0-2 .9-2 2s.9 2 2 2 2-.9 2-2-.9-2-2-2m0 2.7c-.4 0-.7-.3-.7-.7s.3-.7.7-.7.7.3.7.7-.3.7-.7.7m-1.7 4.4 1.1.8c-1.1 1.5-2.8 2.4-4.6 2.4s-3.5-.9-4.6-2.5l1.1-.8c.9 1.2 2.2 1.9 3.6 1.9 1.2 0 2.5-.6 3.4-1.8"/>
</svg>
