<svg xml:space="preserve" viewBox="0 0 32 32" xmlns="http://www.w3.org/2000/svg"><g id="icon">
  <rect/>
  <path fill="currentColor" d="M26.7 13.3V0H0v18.6h5.3V32H32V13.4h-5.3zm2.5 1.4-9.4 8.9c-.3.3-.7.5-1.2.5s-.9-.2-1.2-.5l-9.3-8.9h21.1zm-18-3.5c.6.6 1.3.8 2.1.8s1.6-.3 2.1-.8L17 9.7l3.5 3.6H6.1l3.5-3.6 1.6 1.5zM14 22.1l-7.4 7.6V15.1l7.4 7zm1 .9 1.5 1.5c.6.6 1.3.8 2.1.8s1.6-.3 2.1-.8l1.5-1.5 7.4 7.6h-22L15 23zm10.3-9.7h-2.9L18 8.8l7.4-7v11.5zm-1.4-12-9.4 8.9c-.3.3-.7.5-1.2.5s-.9-.2-1.2-.5L2.8 1.3h21.1zM8.7 8.8l-7.4 7.6V1.8l7.4 7zm-3.4 8.5h-3l3.1-3.2v3.2zm25.4 12.4-7.4-7.6 7.4-7v14.6z"/>
</g></svg>
