<svg viewBox="0 0 32 32" xmlns="http://www.w3.org/2000/svg">
  <path d="M16 9.333A2.667 2.667 0 1 0 16 4a2.667 2.667 0 0 0 0 5.333m0-4a1.334 1.334 0 1 1-1.333 1.333c0-.735.598-1.333 1.333-1.333m10.384 2.229-.223-.693-8.15 3.412h-4.03L5.706 6.825l-.219.696c-.346 1.101-.344 3.445 2.14 4.432a121 121 0 0 1 5.04 2.171v3.104l-3.065 9.458 3.24 1.287 3.306-7.86 3.306 7.87 3.258-1.294-3.379-9.47v-3.14c.845-.39 2.95-1.347 4.913-2.126 2.487-.988 2.486-3.305 2.138-4.391m-2.63 3.152c-2.555 1.015-5.343 2.322-5.371 2.335l-.383.18v4.104l3.025 8.593-.847.336-4.029-9.589-4.03 9.578-.864-.343 2.712-8.369.033-4.268-.386-.18c-.03-.013-2.943-1.363-5.496-2.377-1.21-.48-1.457-1.392-1.46-2.047l6.932 2.896 4.555.052 7.069-2.903c-.008.64-.26 1.525-1.46 2.002M16 0C7.163 0 0 7.163 0 16s7.163 16 16 16 16-7.163 16-16S24.837 0 16 0m0 30.667c-8.087 0-14.667-6.58-14.667-14.667S7.913 1.333 16 1.333 30.667 7.913 30.667 16 24.087 30.667 16 30.667"/>
</svg>
