<svg version="1.1" id="Ebene_2" xmlns="http://www.w3.org/2000/svg" x="0" y="0" viewBox="0 0 32 32" xml:space="preserve"><symbol id="icon">
    <style>
        .st1{fill:#010202}
    </style>
    <path d="M0 0h32v32H0z"/>
    <path class="st1" d="M21.7 1.9h-2.5V0h-6.5v1.9h-2.3c-1.5 0-2.7 1.2-2.7 2.7v24.7c0 1.5 1.2 2.7 2.7 2.7h11.4c1.5 0 2.7-1.2 2.7-2.7V4.6c-.1-1.5-1.3-2.7-2.8-2.7zm1.1 27.4c0 .6-.5 1.1-1.1 1.1H10.3c-.6 0-1.1-.5-1.1-1.1V4.6c0-.6.5-1.1 1.1-1.1h11.4c.6 0 1.1.5 1.1 1.1v24.7z"/>
    <path class="st1" d="M12.6 22.7h6.6V24h-6.6zM16.6 7.2h-1.3v2.6h-2.7v1.4h2.7v2.6h1.3v-2.6h2.7V9.8h-2.7z"/>
</symbol></svg>
