<svg viewBox="0 0 32 32" xmlns="http://www.w3.org/2000/svg">
  <path d="M24.667 27.089V32h-1.334v-4.911c0-2.07-1.4-3.756-3.123-3.756h-8.42c-1.722 0-3.123 1.685-3.123 3.756V32H7.333v-4.911c0-2.806 2-5.089 4.457-5.089h8.42c2.457 0 4.457 2.283 4.457 5.089M11.098 32h1.334v-4.392h-1.334zm8.471 0h1.333v-4.392H19.57zM20 16.667a4 4 0 1 1-8 0 4 4 0 0 1 8 0m-1.333 0C18.667 15.197 17.47 14 16 14s-2.667 1.196-2.667 2.667S14.53 19.333 16 19.333s2.667-1.196 2.667-2.666M9.963 16l-3.296-1.733L3.37 16 4 12.33l-2.667-2.6 3.686-.535 1.648-3.34 1.648 3.34L12 9.73l-2.667 2.6zm-.829-5.339-1.011-.146-.694-.101-.31-.629-.452-.916-.453.916-.31.629-.694.1-1.01.147.731.713.503.49-.12.69-.172 1.009.905-.476.62-.326.62.326.905.476-.173-1.008-.118-.691.502-.49zM28 12.33l.63 3.67-3.296-1.733L22.037 16l.63-3.67L20 9.73l3.685-.535 1.649-3.34 1.647 3.34 3.686.535zm-.2-1.668-1.01-.146-.694-.101-.31-.629-.453-.916-.452.916-.31.629-.694.1-1.01.147.73.713.503.49-.118.69-.173 1.009.904-.476.62-.326.621.326.905.476-.173-1.008-.119-.691.502-.49zM13.335 6.474l-2.667-2.6 3.685-.534L16 0l1.648 3.34 3.685.535-2.666 2.599.63 3.67L16 8.412l-3.296 1.732zm.199-1.668.732.713.502.49-.119.69-.173 1.008.905-.475.62-.327.62.327.905.475-.173-1.008-.118-.69.502-.49.732-.713-1.012-.147-.694-.1-.31-.63L16 3.013l-.452.917-.31.628-.694.101z"/>
</svg>
