<svg viewBox="0 0 32 32" xmlns="http://www.w3.org/2000/svg">
  <rect/>
  <path d="M0 20h5.3v10.7H0v-1.3h4v-8H0zm30.6-8c0 5.5-4.3 10.1-9.7 10.6-.3-.6-.7-1.2-1.4-1.5l-.2-.1v-4.7H16c.4 1.7 1.1 3 1.9 3.9l-1.6-.9c-.2-.1-.5-.2-.7-.3-.4-.8-.7-1.7-.9-2.6h-3c.4.9 1.1 1.7 1.8 2.4-.3 0-.5.1-.8.1l-.8.2c-1.6-1.9-2.5-4.3-2.5-6.9-.1-6 4.7-10.8 10.6-10.8 5.8 0 10.6 4.8 10.6 10.6m-16.4 0c0-1 .1-2 .2-2.9h-3.3c-.3.9-.5 1.9-.5 2.9s.2 2 .5 2.9h3.3c-.2-.9-.2-1.9-.2-2.9m.4-4.2c.4-1.8 1.1-3.3 2-4.4-2.1.8-3.9 2.4-4.9 4.4zm4.7 1.4h-3.6c-.1.9-.2 1.9-.2 2.9s.1 2 .2 2.9h3.6zm0-6.3c-1.3.5-2.6 2.3-3.3 5h3.3zm4 .5c.9 1.1 1.5 2.7 2 4.4h2.9c-1-2-2.8-3.6-4.9-4.4m-2.7 4.4h3.3c-.7-2.6-2-4.5-3.3-4.9zm0 7.1h3.5c.1-.9.2-1.8.2-2.9 0-1-.1-2-.2-2.9h-3.5zm3.3 1.3h-3.3v5c1.3-.5 2.6-2.3 3.3-5m4.3 0h-3c-.4 1.8-1.1 3.3-2 4.5 2.2-.8 4-2.4 5-4.5m.6-1.3c.3-.9.5-1.9.5-2.9s-.2-2-.5-2.9h-3.3c.1.9.2 1.9.2 2.9s-.1 2-.2 2.9zm-1.4 9.3c.6 1 .2 2.2-.7 2.7l-8.1 4.7c-.5.3-1.1.4-1.7.4-.3 0-.6 0-.9-.1l-8-2.1c-.9-.2-1.5-1-1.5-1.9v-4.6c0-.9.6-1.7 1.5-1.9l5-1.4c.3-.1.6-.1.9-.1.6 0 1.1.2 1.7.4l3.3 1.9c1 .6 1.3 1.8.7 2.7-.3.5-1.4 1.5-2.7.8l-2.2-1.3c-.1-.1-.2-.1-.3-.1-.2 0-.5.1-.6.3-.1.1-.1.2-.1.3v.2c0 .2.2.3.3.4l3.1 1.8c.1.1.2.1.3.1s.2 0 .3-.1l6.9-4c.3-.2.6-.3 1-.3.2 0 .3 0 .5.1.6.3 1 .6 1.3 1.1m-1.2.6c-.1-.2-.2-.3-.4-.3h-.2c-.1 0-.2 0-.3.1l-6.9 4c-.3.2-.7.3-1 .3s-.7-.1-1-.3l-3.1-1.8c-1.1-.8-1-1.5-1-1.7 0-.4.1-.7.3-1 .4-.6 1-1 1.7-1 .3 0 .7.1 1 .3l2.2 1.3c.4.2.8-.1.9-.2.2-.3.1-.7-.2-.9l-3.3-1.9c-.3-.2-.6-.3-1-.3-.2 0-.4 0-.5.1l-4.9 1.3c-.3-.1-.5.2-.5.5v4.6c0 .3.2.6.5.6l8 2.1c.2 0 .3.1.5.1.3 0 .7-.1 1-.3l8.1-4.7c.2-.1.3-.5.1-.9"/>
</svg>
