<svg xml:space="preserve" viewBox="0 0 32 32" xmlns="http://www.w3.org/2000/svg"><g id="icon">
  <path fill="currentColor" d="M27.105 5.02H21.88l-3.634 3.605h5.226l3.634-3.605zM21.481 7.29l.946-.938h1.442l-.945.938H21.48zm-7.027-4.624-7.495 7.506V14H.031v13.054l-.05.054.05.047V28h.906l.018.017L.971 28h17.341l.016.017.018-.017h.905v-.846l.05-.046-.05-.053v-9.722h5.236l7.494-7.506v-7.16H14.454zM15.005 4h14.701L23.9 9.734H9.28L15.005 4zm1.607 11.333-6.441 6.983c-.183.209-.41.24-.53.24s-.346-.031-.551-.264l-6.42-6.959h13.942zm-15.25.548 4.518 4.897-4.517 4.848V15.88zm.851 10.786 4.573-4.907 1.326 1.437c.406.462.967.692 1.53.692s1.123-.23 1.528-.692l1.326-1.437 4.574 4.907H2.213zm11.19-5.89 4.517-4.896v9.745l-4.518-4.848zm5.848-6.34V14H8.291v-2.933h15.268V16h-4.308v-1.563zm5.64.606v-4.416l5.759-5.688v4.336l-5.76 5.768z"/>
</g></svg>
