<svg viewBox="0 0 32 32" xmlns="http://www.w3.org/2000/svg">
  <path d="M16.414 2.082 13.2 5.272h4.624l3.215-3.19zm.861 1.857h-.84l.527-.523h.84zm1.446 18.238 6.63-6.642V0H9.845l-6.63 6.643v10.69H0l.006 12h16.029v-7.156zm5.3-7.195-4.865 4.874V7.076L24.02 2.27zM10.396 1.333h12.678L18.17 6.177H5.561zM4.546 7.51h13.279v13.334h-1.79v-3.51H4.545zM8.4 24.157a.365.365 0 0 1-.567 0l-.025-.03-.027-.027-5.253-5.427 11.046-.005zM4.71 22.84l-3.362 4.014.035-7.451zm.932.963 1.185 1.224a1.697 1.697 0 0 0 2.58 0l1.166-1.235L13.996 28H2.127zm5.852-.988 3.21-3.405v7.35zm20.122 2.477-4.88 4.888h-1.829l-.026-.026 4.186-4.193-10.369.017-.002-1.333 10.375-.018-4.187-4.194h1.882z"/>
</svg>
