<svg viewBox="0 0 32 32" xmlns="http://www.w3.org/2000/svg">
  <path d="m23.378 10.275 1.673-.556-1.315-3.942-2.127.707L19.454.016 14.2 6.702l-7.521 4.43.328.984-3.112 2.145v17.755l25.204-.03V14.26zm-10.51 13.682 1.635 1.67c.529.6 1.261.9 1.994.9.732 0 1.465-.3 1.994-.9l1.635-1.67 6.227 6.7-19.732.023zm-7.64 6.264V16.153l6.707 6.85zm15.83-7.217 6.708-6.851v14.07zm4.044-6.035-1.676-5.03 3.903 2.755zm-2.21-9.508.471 1.415-.862.286-.471-1.415zm.187 7.654-5.6-1.505-2.087-6.27 3.58-4.553zm-6.793 1.297-.24.313-.576-1.732.332-.036zm-2.172-1.27.354 1.063 1.216 3.649-.996.33-2.563-4.823zm.16-6.938 1.792 5.382-6.91.762-.871-2.616zm-6.827 5.232.784 2.353 2.467-.271 3.342 6.287 3.33-1.109-.814-2.442 1.217-1.594-.582-1.748 7.858 2.11-7.512 7.673-.024.025-.023.027c-.255.289-.608.448-.993.448s-.738-.16-.993-.448l-.023-.027-.025-.025-9.791-10.001z"/>
</svg>
