<svg viewBox="0 0 32 32" xmlns="http://www.w3.org/2000/svg">
  <path d="M25.349 15.24C25.275 8.863 15.822-.048 15.822-.048S6.577 9.078 6.651 15.455c.07 6.07 4.196 10.987 8.782 11.4l.017 4.433c0 .367.3.664.667.664h.003a.667.667 0 0 0 .665-.67l-.016-4.436c4.601-.48 8.65-5.508 8.58-11.606m-8.585 10.265-.006-1.897 5.069-4.557a.665.665 0 0 0 .048-.941.665.665 0 0 0-.943-.048l-4.18 3.759-.012-3.085 4.055-4.143c.258-.263.253-.685-.01-.942s-.687-.252-.945.01l-3.107 3.174-.013-3.626 2.345-2.128a.666.666 0 0 0 .046-.942.67.67 0 0 0-.943-.045l-1.455 1.319-.015-4.132a.667.667 0 0 0-.667-.664h-.003a.667.667 0 0 0-.665.67l.015 4.133-1.284-1.252a.67.67 0 0 0-.944.01.666.666 0 0 0 .01.943l2.225 2.17.013 3.598-3.218-3.14a.67.67 0 0 0-.945.011.666.666 0 0 0 .01.943l4.16 4.057.01 3.051-4.287-3.64a.668.668 0 0 0-.865 1.016l5.159 4.38.007 1.952c-3.974-.437-7.384-4.954-7.443-10.08-.049-4.247 5.019-10.556 7.858-13.593 2.909 2.97 8.12 9.162 8.17 13.41.059 5.14-3.233 9.718-7.25 10.25"/>
</svg>
