<svg viewBox="0 0 32 32" xmlns="http://www.w3.org/2000/svg">
  <path d="M16 8a8 8 0 1 0 0 16 8 8 0 0 0 0-16m0 14.667c-3.676 0-6.667-2.991-6.667-6.667S12.324 9.333 16 9.333s6.667 2.991 6.667 6.667-2.991 6.667-6.667 6.667M15.333 6V1.333a.666.666 0 1 1 1.334 0V6a.666.666 0 1 1-1.334 0M8.09 3.632a.667.667 0 1 1 1.155-.667l2.333 4.042a.667.667 0 1 1-1.154.666zM2.721 8.333a.666.666 0 0 1 .91-.244l4.042 2.334a.667.667 0 1 1-.666 1.154L2.965 9.244a.667.667 0 0 1-.244-.91M6 16.667H1.333a.666.666 0 1 1 0-1.334H6a.666.666 0 1 1 0 1.334m1.917 4a.666.666 0 0 1-.244.91L3.632 23.91a.667.667 0 0 1-.667-1.154l4.042-2.333a.665.665 0 0 1 .91.244m3.66 4.326-2.333 4.042a.667.667 0 0 1-1.155-.667l2.334-4.041a.666.666 0 1 1 1.155.667M16.667 26v4.667a.666.666 0 1 1-1.334 0V26a.666.666 0 1 1 1.334 0m7.243 2.368a.665.665 0 0 1-.577 1 .67.67 0 0 1-.576-.333l-2.334-4.042a.665.665 0 0 1 .244-.91.665.665 0 0 1 .91.244zm5.369-4.701a.665.665 0 0 1-.91.243l-4.042-2.333a.666.666 0 0 1 .667-1.154l4.041 2.334a.665.665 0 0 1 .244.91M31.333 16a.666.666 0 0 1-.666.667H26a.666.666 0 1 1 0-1.334h4.667c.368 0 .666.299.666.667m-7.25-4.667a.666.666 0 0 1 .244-.91l4.041-2.334a.666.666 0 1 1 .667 1.155l-4.042 2.333a.667.667 0 0 1-.91-.244m-3.66-4.326 2.334-4.042a.666.666 0 1 1 1.154.667l-2.334 4.041a.665.665 0 1 1-1.154-.666"/>
</svg>
