<svg xml:space="preserve" viewBox="0 0 32 32" xmlns="http://www.w3.org/2000/svg"><g id="icon">
  <path d="M0 0z"/>
  <path fill="currentColor" d="M11.4 13.4c2.6 0 4.6-2.2 4.6-4.7S13.9 4 11.3 4C8.8 4 6.7 6.1 6.7 8.7s2.1 4.7 4.7 4.7zm-.1-8.1c1.8 0 3.3 1.5 3.3 3.3S13.2 12 11.3 12 8 10.5 8 8.7c0-1.8 1.5-3.4 3.3-3.4zM14.8 16H7.3C5.5 16 4 17.5 4 19.4v7.3H2.6v-7.3c0-2.6 2.1-4.7 4.7-4.7h8.9c-.5.4-1 .8-1.4 1.3zm7.2 2.8c-1.8 0-3.2 1.4-3.2 3.2s1.4 3.2 3.2 3.2 3.2-1.4 3.2-3.2-1.4-3.2-3.2-3.2zm0 5.1c-1 0-1.9-.8-1.9-1.9 0-1 .9-1.9 1.9-1.9s1.9.8 1.9 1.9c0 1-.8 1.9-1.9 1.9zm5.4.1h2.4v-4h-2.4l-.2-.2v-.3l1.7-1.7-2.8-2.8-1.7 1.7H24.1c-.1 0-.2-.1-.2-.2V14H20v2.4l-.2.2H19.5l-1.7-1.7-2.8 2.8 1.7 1.7v.3c0 .1-.1.2-.2.2H14v4h2.4l.2.2c0 .1.1.2 0 .3l-1.7 1.7 2.8 2.8 1.7-1.7H19.7c.1 0 .2.1.2.2V30h4v-2.4l.2-.2H24.4l1.7 1.7 2.8-2.8-1.7-1.7v-.3c0-.1.1-.2.2-.3zm-1.3.8.1.5.3.3.7.7-.9.9-.7-.7-.3-.3-.5-.1h-.2c-.3 0-.5 0-.7.1-.3.1-.6.3-.8.6l-.3.4v1.5h-1.3v-1.6l-.5-.3c-.2-.3-.5-.5-.8-.6-.2-.1-.4-.2-.7-.2h-.3l-.5.1-.3.3-.7.7-.9-.9.7-.7.3-.3.1-.5c0-.3 0-.7-.1-1-.1-.3-.3-.6-.6-.8l-.4-.3h-1.5v-1.3h1.5l.4-.3c.3-.2.5-.5.6-.8.1-.3.2-.6.1-1l-.1-.5-.3-.3-.7-.7.9-.9.7.7.3.3h.7c.3 0 .5 0 .7-.1.3-.1.6-.3.8-.6l.3-.4v-1.5h1.5V16.9l.3.4c.2.3.5.5.8.6.2.1.5.1.7.1h.7l.3-.3.7-.7.9.9-.7.7-.3.3v.5c0 .3 0 .7.1 1 .1.3.3.6.6.8l.4.3h1.6v1.3h-1.5l-.5.2c-.3.2-.5.5-.6.8-.1.3-.2.6-.1 1z"/>
</g></svg>
