<svg viewBox="0 0 32 32" xmlns="http://www.w3.org/2000/svg">
  <rect/>
  <path d="M15.9 7.8c2.1 0 3.9-1.7 3.9-3.9S18 0 15.9 0 12 1.7 12 3.9s1.7 3.9 3.9 3.9m0-6.5c1.4 0 2.5 1.1 2.5 2.5s-1.1 2.5-2.5 2.5-2.5-1.1-2.5-2.5c-.1-1.3 1.1-2.5 2.5-2.5m11.1 8c-1.1 0-2.1.7-2.1 2.1V17l-2.1 3.7h-1.4l1.3-1.6c.1-.1.1-.2.2-.4 0 0 0 .1-.1.1h.3v-5.3c0-2.6-2.1-4.7-4.7-4.7h-5.1c-2.6 0-4.7 2.1-4.7 4.7v5.3h.5c0-.1 0-.1-.1-.2.1.1.1.2.2.4l1.3 1.6H9.3L7.1 17v-5.6c0-1.4-1-2.1-2.1-2.1-1 0-2.1.7-2.1 2.1v7.8q0 .9.6 1.5l3.6 4.1V28h7.1v-3.2l.8-2.2c.4-1 .3-2-.3-2.9l-.6-.9h3.6l-.6.9c-.5.9-.7 1.9-.3 2.9l.8 2.2V28h7.1v-3.2l3.6-4.1q.6-.6.6-1.5v-7.8c.2-1.4-.9-2.1-1.9-2.1m-17 7v-2.8c0-1.8 1.5-3.3 3.3-3.3h5.1c1.8 0 3.3 1.5 3.3 3.3v2.6c.1 0 .1 0 .2.1-.2-.1-.5-.2-.7-.2-.4 0-.8.1-1.2.5l-.1.1v-2.8h-1.3v3.7h-5.3v-3.7H12v2.6l.1.1c-.3-.3-.7-.5-1.2-.5-.4.1-.6.1-.9.3m3.9 5.9-.9 2.2c-.1.2-.1.3-.1.5v1.8H8.5v-1.8q0-.45-.3-.9l-3.6-4.1-.1-.1c-.1-.1-.2-.3-.2-.5v-7.8c0-.7.5-.8.8-.8s.8.1.8.8V17c0 .2.1.5.2.7l2.1 3.7c.2.4.6.6 1.1.6h1.4c.5 0 1-.3 1.2-.8s.2-1-.2-1.4l-1.3-1.6c-.2-.3-.1-.5-.1-.6.1-.2.3-.3.5-.3.1 0 .1 0 .2.1.2.2.4.4.6.5.7.7 1.4 1.4 2.1 2.4.3.7.4 1.3.2 1.9m13.9-2.9c0 .2-.1.4-.2.5l-.1.1-3.7 4.1c-.2.2-.3.6-.3.9v1.8h-4.4v-1.8c0-.2 0-.3-.1-.5l-.8-2.2c-.2-.6-.2-1.2.2-1.7.7-1.1 1.4-1.7 2.1-2.4.2-.2.4-.4.6-.5.1-.1.2-.1.2-.1.2 0 .4.1.5.3.1.1.1.3-.1.6L20.4 20c-.3.4-.4.9-.2 1.4s.7.8 1.2.8h1.4c.5 0 .9-.3 1.2-.7l2.1-3.7c.1-.2.2-.4.2-.7v-5.6c0-.7.5-.8.8-.8s.8.1.8.8v7.8zm-20.9 10h7.3V32h-1.3v-1.3H8.2V32H6.9zm10.9 0h7.3V32h-1.3v-1.3h-4.7V32h-1.3z"/>
</svg>
