<svg viewBox="0 0 32 32" xmlns="http://www.w3.org/2000/svg">
  <rect/>
  <path d="M25.3 9.5c0-5.2-4.2-9.3-9.3-9.3S6.7 4.3 6.7 9.5c0 1.8.5 3.4 1.3 4.8V32l8-7.9 8 7.9V14.3c.8-1.4 1.3-3.1 1.3-4.8m-9.3-8c4.4 0 8 3.6 8 8s-3.6 8-8 8-8-3.6-8-8 3.6-8 8-8m6.7 27.3L17 23.2l-1-.9-.9.9-5.7 5.6V16c.6.6 1.3 1.2 2.1 1.6v6.2c0 .4.3.7.7.7s.7-.3.7-.7v-5.6c.8.3 1.7.5 2.6.6v1.9c0 .4.3.7.7.7s.7-.3.7-.7v-1.9q1.35-.15 2.7-.6v5.6c0 .4.3.7.7.7s.7-.3.7-.7v-6.2c.7-.4 1.4-.9 2-1.6v12.8zM12 15.7l4.1-2.3 4.1 2.3-.8-4.8 3.3-3.4-4.6-.7L16 2.4l-2 4.4-4.6.7 3.3 3.4zm.2-7.3 2-.3.7-.1.3-.6.9-1.8.9 1.8.2.6.7.1 2 .3-1.5 1.6-.4.4.1.7.3 2.1-1.7-.9-.6-.4-.6.4-1.7.9.3-2.1.1-.7-.5-.5z"/>
</svg>
