<svg viewBox="0 0 32 32" xmlns="http://www.w3.org/2000/svg">
  <path d="M2.262 30.667h4.993L5.92 32H-.014v-5.903l1.333-1.333v4.96l4.529-4.529.943.943zm4.416-7.618V8.68h19.757v14.37zM9.31 10.014l6.654 7.201a.77.77 0 0 0 .592.282.75.75 0 0 0 .571-.258l6.675-7.225zM8.011 20.676l4.69-5.027-4.69-5.077zm16.238 1.04-4.745-5.085-1.376 1.489c-.417.474-.994.71-1.572.71a2.1 2.1 0 0 1-1.572-.71l-1.375-1.488-4.745 5.084zm.852-11.144-4.69 5.077 4.69 5.028zm5.552 13.962v5.19l-4.529-4.529-.942.943 4.528 4.529h-4.96L26.082 32h5.903v-6.163l-1.303-1.303zM1.319 2.276l4.862 4.862.943-.943-4.862-4.862h5.19v-.03L6.15 0H-.014v6.132L1.32 7.465zM25.854 0l-1.333 1.333h5.19L25.514 5.53l.943.942 4.195-4.195v4.992l1.333-1.333V0z"/>
</svg>
