<svg viewBox="0 0 32 32" xmlns="http://www.w3.org/2000/svg">
  <path d="M12.333 8.023V6.298H13V3.455c0-.74-.6-1.334-1.339-1.334H9.005c-.739 0-1.338.594-1.338 1.334v2.843h.666v1.725c-1.572.87-2.666 2.714-2.666 4.868v14.695s0 1.23 1.697 1.23c.644 0 1.197-.003 1.484-.615.288.612.841.614 1.485.614s1.198-.002 1.485-.614c.288.612.841.614 1.485.614C15 28.815 15 27.586 15 27.586V12.891c0-2.154-1.094-3.999-2.667-4.868M9.005 3.455h2.662v1.51H9.003zM7 14.242h6.667v5.334H7zm6.667 13.195c-.058.02-.17.045-.364.045-.105 0-.245 0-.353-.006l-1.118-2.347-1.144 2.347c-.108.006-.249.006-.355.006s-.245 0-.353-.006L8.862 25.13l-1.144 2.347c-.107.006-.248.006-.354.006-.194 0-.307-.026-.364-.045V20.91h6.667zm0-14.528H7v-.018c0-1.402.582-2.64 1.467-3.374l-.008-.023c.203.432.645.63 1.208.702V6.298h1.332L11 10.196c.563-.072 1.005-.27 1.208-.702l-.008.023c.884.733 1.467 1.972 1.467 3.374zm10-4.886V6.298h.666V3.455c0-.74-.599-1.334-1.338-1.334h-2.656c-.74 0-1.339.594-1.339 1.334v2.843h.667v1.725C18.094 8.893 17 10.737 17 12.89v14.695s0 1.23 1.697 1.23c.644 0 1.197-.003 1.485-.615.287.612.84.614 1.485.614.644 0 1.197-.002 1.485-.614.287.612.84.614 1.484.614 1.697 0 1.697-1.229 1.697-1.229V12.891c0-2.154-1.094-3.999-2.666-4.868m-3.328-4.568H23v1.51h-2.664zm-2.006 10.787H25v5.334h-6.667zM25 27.437a1.1 1.1 0 0 1-.364.045c-.105 0-.245 0-.353-.006l-1.117-2.347-1.145 2.347c-.107.006-.248.006-.354.006s-.246 0-.353-.006l-1.118-2.347-1.144 2.347c-.108.006-.25.006-.355.006-.193 0-.306-.026-.364-.045V20.91H25zM18.333 12.91v-.018c0-1.402.583-2.64 1.467-3.374l-.008-.023c.203.432.645.63 1.208.702V6.298h1.332l.001 3.898c.563-.072 1.005-.27 1.208-.702q-.003.012-.008.023C24.418 10.25 25 11.489 25 12.89v.018z"/>
</svg>
