<svg viewBox="0 0 32 32" xmlns="http://www.w3.org/2000/svg">
  <path d="M13.33 24.082v5.24h-1.334v-5.24c0-1.664-1.073-2.781-2.67-2.781H2.655v-1.334h6.673c2.319 0 4.002 1.73 4.002 4.115M14.67 24v5.315h1.334V24c0-2.279 1.73-3.996 4.025-3.996h9.298V18.67h-9.298c-3.055 0-5.358 2.291-5.358 5.329m-6.669 5.333h1.334V24H8zm10.668 0h1.334V24H18.67zM2.667 14.667a4 4 0 1 1 8 0 4 4 0 0 1-8 0m1.333 0c0 1.47 1.196 2.666 2.667 2.666s2.666-1.196 2.666-2.666S8.137 12 6.667 12 4 13.196 4 14.667m16-2a4.667 4.667 0 1 1 9.333 0 4.667 4.667 0 0 1-9.333 0m1.333 0c0 1.838 1.496 3.333 3.334 3.333S28 14.505 28 12.667s-1.495-3.334-3.333-3.334-3.334 1.496-3.334 3.334M7.805 9.472a.667.667 0 1 0 .073-1.33.667.667 0 0 0-.073 1.33m1.6-2.092a.667.667 0 1 0 .074-1.33.667.667 0 0 0-.074 1.33m2.104-1.546a.667.667 0 1 0 .073-1.331.667.667 0 0 0-.073 1.331m2.565-2.111a.667.667 0 1 0-.073 1.33.667.667 0 0 0 .073-1.33m2.593 1.417a.667.667 0 1 0 .073-1.331.667.667 0 0 0-.073 1.33m2.533.807a.667.667 0 1 0 .073-1.331.667.667 0 0 0-.073 1.331m2.2 1.526a.667.667 0 1 0 .073-1.332.667.667 0 0 0-.073 1.332"/>
</svg>
