<svg viewBox="0 0 32 32" xmlns="http://www.w3.org/2000/svg">
  <path d="M10.626 27.37v2.006H9.318V27.37a.687.687 0 0 0-.704-.702H4.589a.687.687 0 0 0-.704.702v2.006H2.577V27.37c0-1.103.906-2.006 2.012-2.006h4.025c1.106 0 2.012.903 2.012 2.006m16.097-11.434c0 .501 0 .903-.1 1.404h1.308c.1-.501.1-.903.1-1.404 0-4.514-2.615-8.726-6.64-10.732v1.504c3.22 1.906 5.332 5.416 5.332 9.228m-1.307 3.711c1.307 0 2.313 1.003 2.313 2.307s-1.006 2.307-2.313 2.307-2.315-1.003-2.315-2.307c0-1.204 1.107-2.307 2.315-2.307m.1 1.304c-.503 0-1.006.401-1.006 1.003a1.007 1.007 0 0 0 2.012 0c0-.502-.503-1.003-1.006-1.003M4.288 22.054c0-1.304 1.006-2.307 2.314-2.307s2.314 1.003 2.314 2.307-1.006 2.307-2.314 2.307-2.314-1.103-2.314-2.307m1.307-.1c0 .502.504 1.003 1.007 1.003s1.006-.401 1.006-1.003c0-.502-.403-1.003-1.006-1.003-.503 0-1.007.501-1.007 1.003m-1.71-6.018c0 .401.1.903.1 1.304h1.41c-.101-.401-.101-.803-.101-1.304 0-3.912 2.012-7.422 5.332-9.328V5.103l-.302.201C6.4 7.31 3.885 11.422 3.885 15.936m23.543 9.428h-4.025a2.015 2.015 0 0 0-2.012 2.006v2.006H22.7V27.37c0-.4.302-.702.704-.702h4.025c.402 0 .704.301.704.702v2.006h1.408V27.37c0-1.103-.905-2.006-2.112-2.006m-15.293.502-.1-.1v1.404c1.207.501 2.615.702 3.923.702 1.409 0 2.817-.2 4.125-.702v-1.405l-.201.1c-2.515 1.004-5.433.903-7.747 0m6.588-10.215H17.5V5.895h-2.854V7.52h1.223v8.13h-1.223v1.627h4.078zM17.499 2.643h-1.631v1.626h1.63z"/>
</svg>
