<svg viewBox="0 0 32 32" xmlns="http://www.w3.org/2000/svg">
  <path d="M16.048 6.203c1.304 0 2.307-1.003 2.307-2.307S17.352 1.59 16.048 1.59 13.74 2.593 13.74 3.896s1.003 2.307 2.307 2.307m0-3.31c.602 0 1.003.502 1.003 1.003S16.549 4.9 16.048 4.9c-.602 0-1.003-.501-1.003-1.003s.401-1.003 1.003-1.003m4.012 6.32v2.005h-1.304V9.212c0-.4-.301-.702-.702-.702h-4.012a.686.686 0 0 0-.702.702v2.006h-1.304V9.212c0-1.103.902-2.006 2.006-2.006h4.012c1.103 0 2.006.903 2.006 2.006M6.62 24.357c1.303 0 2.306-1.003 2.306-2.307s-1.003-2.307-2.307-2.307-2.306 1.003-2.306 2.307c0 1.204 1.003 2.307 2.306 2.307m0-3.41c.601 0 1.002.501 1.002 1.003 0 .602-.501 1.003-1.003 1.003s-1.003-.502-1.003-1.003c0-.502.502-1.003 1.003-1.003m4.012 6.419v2.006H9.328v-2.006a.686.686 0 0 0-.703-.702H4.613c-.4 0-.702.3-.702.702v2.006H2.607v-2.006c0-1.103.903-2.006 2.006-2.006h4.012c1.104 0 2.007.903 2.007 2.006m12.437-5.416c0 1.304 1.003 2.307 2.307 2.307s2.307-1.003 2.307-2.307-1.003-2.307-2.307-2.307c-1.204 0-2.307 1.103-2.307 2.307m3.41 0c0 .602-.501 1.003-1.003 1.003a1.005 1.005 0 0 1-1.003-1.003c0-.602.502-1.003 1.003-1.003.502 0 1.003.501 1.003 1.003m3.01 5.416v2.006h-1.405v-2.006c0-.401-.3-.702-.702-.702H23.37c-.401 0-.702.3-.702.702v2.006h-1.304v-2.006c0-1.103.902-2.006 2.006-2.006h4.012c1.203 0 2.106.903 2.106 2.006M10.33 5.301l.3-.2v1.504c-3.31 1.905-5.315 5.416-5.315 9.328 0 .501 0 .902.1 1.304H4.012c0-.402-.1-.903-.1-1.304 0-4.514 2.507-8.626 6.419-10.632m11.033 1.404V5.2c4.012 2.006 6.62 6.22 6.62 10.733 0 .501 0 .902-.1 1.404h-1.305c.1-.502.1-.903.1-1.404 0-3.812-2.106-7.322-5.315-9.228m-1.505 19.157.2-.1v1.404c-1.303.502-2.707.703-4.112.703-1.303 0-2.708-.201-3.911-.703v-1.404l.1.1c2.307.903 5.216 1.004 7.723 0"/>
</svg>
