<svg viewBox="0 0 32 32" xmlns="http://www.w3.org/2000/svg">
  <path d="M27.99 22.656v6.657h-1.333v-6.657c0-2.279-1.729-3.998-4.023-3.998h-9.78c1.09.962 1.77 2.364 1.77 3.998v6.657H13.29v-6.657c0-2.279-1.73-3.998-4.025-3.998H4.012v-1.333h18.622c3.053 0 5.357 2.292 5.357 5.33M22.66 29.33h1.333v-6.675H22.66zm-13.325 0h1.334v-6.675H9.334zm3.995-17.977a4.667 4.667 0 1 1 9.333 0 4.667 4.667 0 0 1-9.333 0m1.333 0a3.337 3.337 0 0 0 3.334 3.334 3.337 3.337 0 0 0 3.333-3.334 3.337 3.337 0 0 0-3.333-3.333 3.337 3.337 0 0 0-3.334 3.333m-5.328 0a4.667 4.667 0 0 0-4.666-4.666c-.225 0-.44.035-.656.066v1.333a3.337 3.337 0 0 1 3.99 3.267 3.337 3.337 0 0 1-3.99 3.267v1.334c.216.03.431.066.656.066a4.667 4.667 0 0 0 4.666-4.667"/>
</svg>
