<svg viewBox="0 0 32 32" xmlns="http://www.w3.org/2000/svg">
  <path d="M25.333 20h4c1.1 0 2-.9 2-2s-.9-2-2-2h-4v-1.333a10 10 0 0 0-.08-1.163l3.425-3.426a2.006 2.006 0 0 0 0-2.828 2 2 0 0 0-1.414-.583c-.513 0-1.025.194-1.414.583l-2.156 2.155a9.4 9.4 0 0 0-3.356-2.99 4.64 4.64 0 0 0-.883-2.487l.749-1.74a1.56 1.56 0 0 0-.781-2.053 1.56 1.56 0 0 0-2.053.78l-.535 1.243A4.6 4.6 0 0 0 15.692 2a4.6 4.6 0 0 0-1.143.158L14.015.916a1.56 1.56 0 0 0-2.053-.78 1.56 1.56 0 0 0-.781 2.053l.748 1.739a4.63 4.63 0 0 0-.904 2.739c0 .04.01.077.012.116a9.4 9.4 0 0 0-2.762 2.663L6.078 7.25a2 2 0 0 0-1.414-.583c-.512 0-1.025.194-1.414.583a2.006 2.006 0 0 0 0 2.828l3.488 3.488a9 9 0 0 0-.071 1.1V16h-4c-1.1 0-2 .9-2 2s.9 2 2 2h4v2.667c0 .162.016.32.024.48l-4.036 4.036a2.006 2.006 0 0 0 0 2.828c.39.39.902.584 1.414.584.513 0 1.026-.195 1.415-.584l2.537-2.537C9.661 30.178 12.624 32 16 32s6.34-1.822 7.979-4.526l2.537 2.537c.39.39.902.584 1.415.584.512 0 1.025-.195 1.414-.584a2.006 2.006 0 0 0 0-2.828l-4.036-4.036c.008-.16.024-.318.024-.48zm0-2.667h4c.362 0 .667.306.667.667a.676.676 0 0 1-.667.667h-4zM6.667 18.667h-4A.676.676 0 0 1 2 18c0-.361.305-.667.667-.667h4zM26.793 8.193c.167-.168.367-.193.47-.193s.305.025.472.193a.676.676 0 0 1 0 .943l-2.81 2.81a9 9 0 0 0-.541-1.344zM13.154 3.4l-.757-1.758a.22.22 0 0 1-.003-.168.22.22 0 0 1 .2-.142c.073 0 .164.04.196.11l.535 1.242.45 1.044 1.102-.279c.314-.08.574-.117.815-.117s.5.037.816.117l1.102.28.45-1.045.526-1.223a.23.23 0 0 1 .205-.129q.044 0 .086.019c.106.048.158.184.102.31L18.23 3.4l-.3.698.448.615c.242.331.39.7.495 1.08a9.24 9.24 0 0 0-6.449.258c.093-.475.285-.93.583-1.338l.448-.615zM16 6.667c3.228 0 6.008 1.925 7.271 4.684C21.547 10.3 18.963 9.333 16 9.333l-.069.004-.016-.004c-.01 0-.018.005-.027.006-2.924.023-5.432.945-7.156 2.004C9.997 8.588 12.775 6.667 16 6.667M4.193 9.136C4.025 8.968 4 8.768 4 8.664s.025-.303.193-.471A.66.66 0 0 1 4.664 8c.104 0 .304.025.472.193l2.457 2.457c-.21.435-.391.885-.532 1.354zm.348 19.933a.66.66 0 0 1-.472.192.66.66 0 0 1-.471-.192.66.66 0 0 1-.193-.472c0-.104.025-.303.193-.471L6.924 24.8c.116.491.265.97.456 1.429zm12.04 1.568v-8.679c0-.345-.298-.625-.666-.625s-.667.28-.667.625v8.67C11.188 30.249 8 26.825 8 22.668v-8c0-.463.048-.914.124-1.356a.66.66 0 0 0 .302-.132c1.288-1.07 3.8-2.293 6.822-2.475v1.963a.666.666 0 1 0 1.333 0v-1.972c3.1.145 5.682 1.393 6.993 2.484.09.075.195.113.302.133.076.441.124.892.124 1.355v8c0 4.215-3.279 7.67-7.419 7.97m11.821-2.511a.676.676 0 0 1 0 .943c-.168.167-.367.192-.471.192s-.304-.025-.472-.192l-2.84-2.84c.192-.459.34-.938.457-1.43z"/>
</svg>
