<svg viewBox="0 0 32 32" xmlns="http://www.w3.org/2000/svg">
  <path d="M31.225 14.548a3.35 3.35 0 0 0-2.586-1.215H28v-2h.667V10H24v1.333h.667v2h-3.739L18 4H6L4.74 14.036a9.93 9.93 0 0 0-4.223 3.17.667.667 0 0 0 1.055.815 8.57 8.57 0 0 1 6.82-3.354c4.277 0 7.947 3.192 8.535 7.424a.666.666 0 1 0 1.32-.182c-.437-3.152-2.358-5.797-4.989-7.284H20v4.708h1.333v-4.666h7.307c.605 0 1.172.267 1.56.732.386.466.543 1.074.445 1.614l-1.931 6.945h-.812c-.93-1.563-2.62-2.625-4.569-2.625-1.965 0-3.666 1.08-4.591 2.667h-2.658c0-4.411-3.588-8-8-8s-8 3.589-8 8 3.589 8 8 8c3.959 0 7.246-2.893 7.88-6.674.013 0 .024.007.036.007h2.19c-.112.429-.19.87-.19 1.334C18 29.607 20.392 32 23.333 32s5.334-2.393 5.334-5.333c0-.479-.084-.934-.203-1.375h1.263l2.214-7.978a3.35 3.35 0 0 0-.716-2.766M7.176 5.333H8.83l2.274 7.959H6.178zm5.315 7.959-2.274-7.959h6.804l2.497 7.959zM26 13.333v-2h.667v2zM8.084 30.667c-3.676 0-6.667-2.991-6.667-6.667s2.991-6.667 6.667-6.667 6.667 2.991 6.667 6.667-2.99 6.667-6.667 6.667m15.25 0c-2.206 0-4-1.795-4-4s1.794-4 4-4 4 1.794 4 4-1.795 4-4 4M8.083 19.685c-2.38 0-4.315 1.936-4.315 4.315s1.936 4.315 4.315 4.315S12.4 26.38 12.4 24s-1.935-4.315-4.315-4.315m0 7.297c-1.644 0-2.982-1.338-2.982-2.982s1.338-2.982 2.982-2.982 2.982 1.338 2.982 2.982-1.338 2.982-2.982 2.982M23.334 24a2.67 2.67 0 0 0-2.667 2.667c0 1.47 1.196 2.666 2.666 2.666S26 28.137 26 26.667A2.67 2.67 0 0 0 23.333 24m0 4A1.335 1.335 0 0 1 22 26.667c0-.736.598-1.334 1.333-1.334a1.335 1.335 0 0 1 0 2.667"/>
</svg>
