<svg viewBox="0 0 32 32" xmlns="http://www.w3.org/2000/svg">
  <path d="M22.738 0H9.262a2.6 2.6 0 0 0-2.595 2.596v26.809A2.6 2.6 0 0 0 9.262 32h13.476a2.6 2.6 0 0 0 2.595-2.595V2.595A2.6 2.6 0 0 0 22.738 0M9.262 1.333h13.476c.696 0 1.262.567 1.262 1.263v22.737H8V2.596c0-.696.566-1.263 1.262-1.263m13.476 29.334H9.262A1.263 1.263 0 0 1 8 29.405v-2.738h16v2.738c0 .696-.566 1.262-1.262 1.262M14.374 28h3.252v1.333h-3.252zM14 18v-1.333h1.333v-4.07H14v-1.334h2.667v5.404H18V18zm2.667-8h-1.334V8.616h1.334z"/>
</svg>
