<svg viewBox="0 0 32 32" xmlns="http://www.w3.org/2000/svg">
  <path d="M31.641 13.487c0-2.001-1.47-3.628-3.385-3.938V1.641L11.654 8.282H5.846v.057c-2.535.284-4.513 2.41-4.513 5.02s1.978 4.736 4.513 5.02v.057h.226l2.03 10.154h6.77L13 19.23l15.256 6.103v-7.908c1.914-.31 3.385-1.936 3.385-3.938M7.19 9.615h4.133v7.488H7.19zM2.667 13.36c0-1.871 1.384-3.412 3.18-3.687v7.373c-1.796-.274-3.18-1.815-3.18-3.686m6.529 13.897-1.723-8.615h4.05l1.722 8.615zm17.727-3.892L12.688 17.67l-.021-.106V9.313L26.923 3.61zm1.333-7.285v-5.184c1.174.29 2.052 1.33 2.052 2.592s-.878 2.303-2.052 2.592"/>
</svg>
