<svg xml:space="preserve" viewBox="0 0 32 32" xmlns="http://www.w3.org/2000/svg"><g id="icon">
  <path fill="currentColor" d="m17.762 14.836-1.897-1.903a1.268 1.268 0 0 1 .048-.739c.094-.224.26-.414.493-.568l2.686.003.004-4.151-2.686-.003a1.257 1.257 0 0 1-.49-.565 1.283 1.283 0 0 1-.052-.748l1.899-1.894-2.931-2.935-1.9 1.895a1.53 1.53 0 0 1-.307.033c-.158 0-.305-.028-.442-.084a1.253 1.253 0 0 1-.562-.49L11.627 0h-4.15l-.002 2.686a1.245 1.245 0 0 1-.563.487 1.15 1.15 0 0 1-.442.085 1.5 1.5 0 0 1-.305-.033L4.267 1.326 1.333 4.261l1.895 1.897c.057.276.04.526-.049.745a1.263 1.263 0 0 1-.493.565H0v4.15h2.685c.234.154.398.343.488.56.092.224.11.477.053.753l-1.9 1.894 2.931 2.936 1.9-1.897c.108-.022.212-.034.312-.034.154 0 .298.028.43.083.224.093.414.26.569.496l-.002 2.684h4.151l.002-2.683c.153-.234.342-.4.562-.49.137-.056.285-.085.443-.085.097 0 .198.01.303.033l1.896 1.903 2.939-2.935zm-4.17-.19-.39-.083a2.798 2.798 0 0 0-.578-.062c-.33 0-.648.062-.953.186-.465.193-.869.536-1.168.993l-.217.332v.397l-.001 1.35H8.8l.001-1.349v-.398l-.218-.333a2.577 2.577 0 0 0-1.17-.997 2.44 2.44 0 0 0-.944-.185c-.191 0-.388.021-.585.062l-.388.082-.28.28-.957.954-1.047-1.048.955-.952.283-.282.081-.391a2.622 2.622 0 0 0-.126-1.534 2.59 2.59 0 0 0-.988-1.164l-.333-.219h-1.75V8.801h1.749l.333-.218c.462-.303.796-.695.997-1.177a2.61 2.61 0 0 0 .121-1.517l-.08-.391-.282-.282-.954-.955 1.05-1.049.954.956.282.281.39.082c.193.04.387.06.576.06.332 0 .652-.062.95-.185.466-.192.87-.533 1.169-.988l.219-.333V1.333h1.485l-.001 1.353v.399l.219.334a2.6 2.6 0 0 0 1.172.992c.297.122.615.183.946.183.187 0 .38-.02.573-.06l.392-.08.283-.282.957-.954 1.047 1.048-.955.952-.284.284-.08.393a2.601 2.601 0 0 0 .125 1.524 2.6 2.6 0 0 0 .99 1.17l.332.219h.399l1.353.002-.001 1.484-1.352-.002h-.401l-.335.22a2.6 2.6 0 0 0-.995 1.182 2.61 2.61 0 0 0-.118 1.506l.08.391.281.283.957.96-1.052 1.05-.954-.957-.28-.282zM9.546 5.81a3.74 3.74 0 0 0-3.736 3.736 3.74 3.74 0 0 0 3.736 3.735 3.74 3.74 0 0 0 3.736-3.735A3.74 3.74 0 0 0 9.547 5.81zm0 6.138a2.405 2.405 0 0 1-2.402-2.402 2.405 2.405 0 0 1 2.402-2.403 2.405 2.405 0 0 1 2.403 2.403 2.405 2.405 0 0 1-2.403 2.402zM32 27.085v4.911h-1.333v-4.911c0-2.07-1.401-3.756-3.124-3.756h-8.42c-1.722 0-3.123 1.685-3.123 3.756v4.911h-1.333v-4.911c0-2.806 1.999-5.089 4.457-5.089h8.419C30 21.996 32 24.28 32 27.085zm-13.569.52h1.333v4.391h-1.333v-4.392zm8.471 0h1.334v4.391h-1.334v-4.392zm-3.569-6.943a4 4 0 1 0 0-8 4 4 0 0 0 0 8zm0-6.666A2.67 2.67 0 0 1 26 16.662a2.67 2.67 0 0 1-2.667 2.667 2.67 2.67 0 0 1-2.666-2.667 2.67 2.67 0 0 1 2.666-2.666z"/>
</g></svg>
