<svg xml:space="preserve" viewBox="0 0 32 32" xmlns="http://www.w3.org/2000/svg"><g id="icon">
  <path fill="currentColor" d="M30.667 10v4h-1.334v-4c0-.368-.299-.667-.666-.667H14.872a3.329 3.329 0 0 1-2.125-.762l-.042-.036-.04-.039-2.705-2.71a2 2 0 0 0-1.266-.453h-5.36c-.368 0-.667.3-.667.667v20.667h13.445V28H1.333V6c0-1.103.897-2 2-2h5.361c.795 0 1.565.285 2.169.803l2.746 2.751c.325.275.787.446 1.263.446h13.795c1.102 0 2 .897 2 2zm-5.343 6h-1.333v5.298h-5.324v1.334h5.324V28h1.333v-5.368h5.343v-1.334h-5.343V16z"/>
</g></svg>
