<svg xml:space="preserve" viewBox="0 0 32 32" xmlns="http://www.w3.org/2000/svg"><g id="icon">
  <path d="M12.196 4a4.667 4.667 0 1 0 0 9.333 4.667 4.667 0 0 0 0-9.333m0 8a3.337 3.337 0 0 1-3.333-3.333 3.337 3.337 0 0 1 3.333-3.334 3.337 3.337 0 0 1 3.333 3.334A3.337 3.337 0 0 1 12.196 12m-3.987 2.64h8.167a5.54 5.54 0 0 0-.587 1.333H8.21a3.35 3.35 0 0 0-3.346 3.347v7.347h2.666v-5.334h1.334v5.334h6.666V28h-12v-8.68a4.694 4.694 0 0 1 4.68-4.68m16.865 2.693c-.124-2.097-1.847-3.764-3.976-3.764s-3.852 1.667-3.976 3.764h-.024v13.343l4-3.558 4 3.558V17.333h-.024m-3.976-2.431c1.47 0 2.667 1.196 2.667 2.667s-1.197 2.666-2.667 2.666c-1.47 0-2.667-1.196-2.667-2.666s1.197-2.667 2.667-2.667m.886 11.22-.886-.788-.886.788-1.78 1.584V20.53a3.97 3.97 0 0 0 2.666 1.038c1.03 0 1.958-.4 2.667-1.038v7.175l-1.78-1.584"/>
</g></svg>
