<svg xml:space="preserve" viewBox="0 0 32 32" xmlns="http://www.w3.org/2000/svg"><g id="icon">
  <path d="M4.667 14.667c1.103 0 2-.897 2-2 0-.868-.56-1.601-1.334-1.878V8.91l3.334-4V1.332H12v9.724l-2 2v3.066A1.997 1.997 0 0 0 8.667 18c0 1.103.897 2 2 2s2-.897 2-2c0-.868-.56-1.601-1.334-1.877v-2.514l2-2V1.333h2.675L16 20.79a1.997 1.997 0 0 0-1.333 1.878c0 1.103.897 2 2 2s2-.897 2-2c0-.868-.56-1.601-1.334-1.877l.008-19.457H20v7l2.667 2.003v3.787A1.997 1.997 0 0 0 21.333 16c0 1.103.897 2 2 2s2-.897 2-2c0-.868-.559-1.601-1.333-1.877V9.67l-2.667-2.003V1.333h3.334V6.32L28 8.987v1.802a1.997 1.997 0 0 0-1.333 1.878c0 1.103.897 2 2 2s2-.897 2-2c0-.868-.56-1.601-1.334-1.878V8.346L26 5.68V0H7.333v4.425L4 8.425v2.364a1.997 1.997 0 0 0-1.333 1.878c0 1.103.897 2 2 2m6 4a.668.668 0 1 1 .001-1.335.668.668 0 0 1-.001 1.335m6 4.666a.668.668 0 1 1 .001-1.335.668.668 0 0 1-.001 1.335m6.666-6.666a.668.668 0 1 1 .002-1.335.668.668 0 0 1-.002 1.335m5.334-3.334a.668.668 0 1 1 .001-1.335.668.668 0 0 1-.001 1.335M4.667 12a.667.667 0 1 1-.001 1.334.667.667 0 0 1 0-1.334m22.224 8.92c-.146.349-.17.75-.078 1.19l3.045 3.053-4.714 4.707-3.042-3.05a2.426 2.426 0 0 0-.493-.053c-.255 0-.494.045-.717.137-.349.144-.65.408-.898.784V32h-6.666v-4.313c-.248-.378-.552-.644-.908-.792a1.84 1.84 0 0 0-.701-.133 2.45 2.45 0 0 0-.495.053L8.177 29.86l-4.713-4.713 3.05-3.048c.092-.441.063-.844-.083-1.199-.146-.354-.41-.658-.784-.904l-4.313-.002V16h1.334v2.66l2.98.002h.399l.333.22c.602.395 1.034.903 1.284 1.51.25.606.302 1.272.155 1.978l-.08.39-.282.281-2.107 2.106 2.828 2.827 2.104-2.102.282-.282.391-.08c.259-.054.515-.081.764-.081.424 0 .83.078 1.205.231.615.257 1.123.692 1.519 1.296l.218.333v3.378h4v-3.378l.219-.333c.396-.604.902-1.036 1.502-1.284a3.215 3.215 0 0 1 1.227-.238c.25 0 .506.027.763.08l.392.081.282.283 2.1 2.106 2.827-2.823-2.104-2.109-.28-.28-.081-.388c-.15-.712-.098-1.378.152-1.978.254-.608.69-1.118 1.298-1.515l.333-.218h.398l2.975.002V16h1.334v4.01l-4.31-.003c-.38.248-.647.554-.797.912"/>
</g></svg>
