<svg xml:space="preserve" viewBox="0 0 32 32" xmlns="http://www.w3.org/2000/svg"><g id="icon">
  <path fill="currentColor" d="M31.346 5.67 27.73 2.057l-6.14 6.139H1.338V26.564h25.258V10.422l4.75-4.751zM10.8 18.986l-.067.067-1.204 4.82 4.82-1.205 3.951-3.952 6.098 6.516H3.53l6.552-7.02.718.774zm1.031 1.174 1.41 1.41-1.88.47.47-1.88zm2.513.627-1.73-1.73L25.792 5.882l1.729 1.73-13.176 13.175zM29.46 5.671l-.997.996-1.729-1.729.997-.997 1.73 1.73zm-9.202 3.857-8.513 8.514-7.891-8.514h16.404zM9.174 17.23 2.67 24.2v-13.99l6.504 7.02zm16.087 6.974-6.017-6.43 6.017-6.018v12.448z"/>
</g></svg>
