<svg viewBox="0 0 32 32" xmlns="http://www.w3.org/2000/svg">
  <path d="M25.471 27.781 20 22.31V7.799c.584-.361 1-.81 1.149-1.31V3.946c0-1.443-2.048-2.614-4.575-2.614S12 2.503 12 3.947v2.541c.163.552.653 1.039 1.333 1.416v7.739l-5.427-5.427a8 8 0 0 0-.349-.879c-.448-.953-1.129-2.013-1.582-2.466-.965-.966-2.595-.904-3.636.135s-1.1 2.67-.135 3.636c.453.453 1.513 1.133 2.467 1.582.317.15.592.244.866.336l7.796 7.797v6.976a3.333 3.333 0 0 0 6.667 0v-.31l3.115 3.115c.324.326.75.487 1.178.487s.854-.161 1.178-.487c.65-.65.65-1.707 0-2.357M14.667 8.422a7.56 7.56 0 0 0 4-.05v1.99c-.148.473-.932.971-2 .971s-1.853-.498-2-.972zm1.907-1.861c1.267 0 2.413-.295 3.241-.77v.434c-.283.44-1.475 1.108-3.24 1.108-1.767 0-2.958-.668-3.242-1.108V5.79c.829.475 1.975.77 3.241.77m-1.907 5.627c1.125.605 2.875.605 4 0v2.203c-.17.465-.955.942-2 .942-1.047 0-1.83-.477-2-.942zm1.907-9.521c2.106 0 3.241.909 3.241 1.28s-1.135 1.28-3.24 1.28-3.242-.908-3.242-1.28 1.136-1.28 3.241-1.28m-1.907 13.51a4.2 4.2 0 0 0 2 .49 4.2 4.2 0 0 0 2-.49v4.8l-4-4zM3.282 7.95c.286-.286.653-.433.999-.433.282 0 .551.097.752.298.747.747 1.98 3.196 1.814 3.648-.504.212-2.953-1.015-3.7-1.763-.445-.445-.385-1.23.135-1.75m15.385 19.384c0 1.103-.898 2-2 2s-2-.897-2-2V21.69l4 4zm5.862 1.862a.333.333 0 0 1-.472 0L7.473 12.611c.1-.056.206-.102.287-.184.083-.082.122-.194.178-.294l16.59 16.591c.13.13.13.341 0 .471"/>
</svg>
