<svg viewBox="0 0 32 32" xmlns="http://www.w3.org/2000/svg">
  <path d="M0 20h5.333v10.667H0v-1.334h4v-8H0zm26.667 6.898-8.06 4.654a3.32 3.32 0 0 1-2.53.332l-7.96-2.131a2.004 2.004 0 0 1-1.482-1.933v-4.565c0-.904.61-1.698 1.482-1.932l4.906-1.315a3.3 3.3 0 0 1 2.53.335l1.801 1.04v-1.44c-.008-.008-.02-.011-.028-.02l-1.392-1.416a10 10 0 0 1-.829.038c-1.187 0-2.75-.22-3.746-1.217-1.787-1.787-2.157-6.471-2.157-6.471s4.684.37 6.471 2.157c1.24 1.24 1.278 3.353 1.186 4.532l.495.505-.02-5.937c-1.976-.58-3.428-2.385-3.428-4.548V4c.601 0 1.171.123 1.701.327.336-1.147 1.338-1.393 2.338-2.994.99 1.623 1.965 1.856 2.288 3.045A4.7 4.7 0 0 1 22.094 4v3.566c0 2.155-1.441 3.955-3.406 4.541v5.767l.322-.328c-.093-1.179-.055-3.292 1.185-4.532 1.787-1.787 6.472-2.157 6.472-2.157s-.37 4.684-2.157 6.47c-.997.998-2.56 1.218-3.747 1.218a10 10 0 0 1-.828-.038l-1.247 1.269v1.777c1.962.392 3.552 1.634 4.241 2.885l1.738-1.003a1.97 1.97 0 0 1 1.517-.2 2.002 2.002 0 0 1 .483 3.664m-6.321-10.71 2.5-2.545a.668.668 0 0 1 .95.935l-2.56 2.605c1.041-.066 1.868-.335 2.33-.798.743-.742 1.259-2.457 1.542-3.97-1.513.283-3.228.8-3.97 1.541-.525.525-.728 1.398-.792 2.231m-5.714.995-2.561-2.605a.666.666 0 1 1 .95-.935l2.502 2.544c-.064-.833-.268-1.705-.793-2.23-.745-.746-2.46-1.262-3.97-1.544.283 1.514.799 3.23 1.542 3.972.463.463 1.289.732 2.33.798m5.103 6.113a1.986 1.986 0 0 1-1.866 2.693c-.348 0-.69-.09-.998-.266l-2.191-1.267a.668.668 0 0 0-.667 1.156l3.109 1.794a.67.67 0 0 0 .666 0l3.68-2.124.319-.199c-.325-.587-1.051-1.302-2.052-1.787M20.76 5.603a3.43 3.43 0 0 0-2.094 3.158v1.962a3.43 3.43 0 0 0 2.094-3.157zm-3.732-1.2a14 14 0 0 1 .898.927c.302-.352.613-.664.88-.924-.1-.144-.254-.3-.495-.537a18 18 0 0 1-.38-.384q-.22.222-.406.398c-.24.23-.395.381-.497.52m.304 6.32V8.761a3.43 3.43 0 0 0-2.094-3.158v1.963c0 1.417.865 2.636 2.094 3.157m8.912 14.112a.65.65 0 0 0-.405-.312.63.63 0 0 0-.501.064l-6.884 3.974a2 2 0 0 1-1.996.002l-3.112-1.796a1.996 1.996 0 0 1-.73-2.737 2.003 2.003 0 0 1 2.723-.733l2.198 1.271a.66.66 0 0 0 .512.064.668.668 0 0 0 .153-1.22l-3.317-1.915a1.98 1.98 0 0 0-1.522-.2L8.462 22.61a.67.67 0 0 0-.494.644v4.565a.67.67 0 0 0 .495.645l7.959 2.131a2 2 0 0 0 1.519-.199L26 25.744a.667.667 0 0 0 .244-.909"/>
</svg>
