<svg viewBox="0 0 32 32" xmlns="http://www.w3.org/2000/svg">
  <path d="m28.878 19.966-1.6.533c-.038.468-.093 1.481-.093 3.501 0 .047-.061 4.667-5.333 4.667h-2V32h-1.334v-4c0-.368.298-.667.667-.667h2.667c3.855 0 3.996-2.994 4-3.337 0-3.238.136-4.018.164-4.14a.67.67 0 0 1 .44-.489l1.402-.467c-.213-.722-.471-1.41-.721-2.081C26.552 15.254 26 13.776 26 12c0-1.208-.626-3.104-.633-3.122-1.707-6.753-11.374-6.22-11.473-6.213-4.447.002-7.573 1.17-9.333 3.476-2.006 2.626-2.28 6.68-.814 12.05l.063.232c3.49 6.705 3.38 10.13 3.374 10.274V32H5.853v-3.333c0-.059.07-3.318-3.258-9.692a.6.6 0 0 1-.054-.142l-.08-.291C.88 12.75 1.23 8.305 3.502 5.332c2.026-2.654 5.508-3.999 10.35-3.999.065-.006 10.831-.61 12.795 7.17.015.039.687 2.072.687 3.497 0 1.535.512 2.904 1.052 4.352.332.887.675 1.804.929 2.82a.667.667 0 0 1-.436.794m-14.878.7A7.333 7.333 0 1 1 14 6a7.333 7.333 0 0 1 0 14.667m6-7.333c0-3.308-2.692-6-6-6s-6 2.692-6 6 2.692 6 6 6 6-2.691 6-6m-10.4-.666V14h8.8v-1.333z"/>
</svg>
