<svg viewBox="0 0 32 32" xmlns="http://www.w3.org/2000/svg">
  <path d="M16.552 3.998h-1.885L16 2.667h1.886zm-11.21 8.006h9.322v9.323H0v-9.323h4.008V5.715L9.732 0h12.943v8.677a2.4 2.4 0 0 0-1.333.522V2.297l-4 3.965v9.977a3.3 3.3 0 0 0-.722-.086h-.612V6.641H5.342zm-.204 5.444-2.731 2.546h9.84l-2.721-2.546-1.027.942a1.62 1.62 0 0 1-1.167.481c-.428 0-.857-.16-1.166-.48zm6.896-4.11H2.63l4.437 4.07.03.027.028.03c.044.045.122.073.207.073s.163-.028.208-.074l.028-.029.03-.027zm-10.7.62v5.213l2.819-2.627zm11.997 0-2.82 2.586 2.82 2.638zm-7.028-8.65H16.41l4.012-3.975H10.284zM30.044 25.34V15.147c0-1.103-.898-2-2.001-2-.266 0-.519.054-.751.149a2 2 0 0 0-1.92-1.47c-.234 0-.457.048-.666.122v-.55c0-1.105-.706-2.004-2.002-2.004-1.137 0-1.818.874-1.967 1.675a2 2 0 0 0-.685-.127c-1.103 0-2 .898-2 2l-.002 4.352a2.74 2.74 0 0 0-1.44-.416h-1.238v8.881c-.122 2.89.943 3.878 2.176 5.022.215.2.442.41.673.64l.943-.942a25 25 0 0 0-.71-.676c-1.15-1.067-1.846-1.713-1.75-4.015l.002-7.574c.745.05 1.334.67 1.334 1.427h.009l-.002 4.513h1.333l.005-11.211c0-.368.3-.668.667-.668.357 0 .607.266.652.373l.003 8.638 1.333.003-.002-9.891c0-.368.3-.668.666-.668h.062a.68.68 0 0 1 .606.668l-.004 10.15h1.334l.004-7.722c0-.368.3-.667.666-.667s.667.3.667.667v7.72h1.337v-6.399a.668.668 0 0 1 1.335 0v10.59h.012c.082 2.306-.388 2.762-1.563 3.832-.289.263-.61.556-.965.91l.943.943c.337-.337.645-.616.92-.867 1.465-1.334 2.16-2.114 1.986-5.215"/>
</svg>
