<svg viewBox="0 0 32 32" xmlns="http://www.w3.org/2000/svg">
  <path d="M25.305 2.667V1.333H23.97v1.334H8V1.333H6.667v1.334H1.333v28h29.334v-28zm4.028 26.666H2.667V10.667h26.666zm-26.666-20V4h4v1.333H8V4h15.971v1.333h1.334V4h4.028v5.333zm6.622 12.793 6.517 6.551 6.514-6.548c2.347-2.346 2.347-4.39 2.347-5.16 0-2.74-2.23-4.969-4.97-4.969a5 5 0 0 0-3.891 1.885A5 5 0 0 0 11.914 12a4.975 4.975 0 0 0-4.969 4.969c0 .77 0 2.814 2.344 5.157m2.625-8.793c1.398 0 2.69.82 3.29 2.089l.602 1.275.603-1.275a3.66 3.66 0 0 1 3.289-2.089 3.64 3.64 0 0 1 3.635 3.636c0 .618 0 2.261-1.957 4.218l-5.57 5.6-5.573-5.602C8.28 19.23 8.28 17.587 8.28 16.969a3.64 3.64 0 0 1 3.635-3.636"/>
</svg>
