<svg viewBox="0 0 32 32" xmlns="http://www.w3.org/2000/svg">
  <path d="M16.667 5.367v-2.7H20V1.333h-8v1.334h3.333v2.7c-7.052.35-12.666 6.16-12.666 13.3C2.667 26.03 8.637 32 16 32s13.333-5.97 13.333-13.333c0-7.14-5.614-12.95-12.666-13.3M16 30.667c-6.617 0-12-5.384-12-12 0-6.617 5.383-12 12-12s12 5.383 12 12c0 6.616-5.383 12-12 12m.001-22v10.625H6.034c.324 5.23 4.656 9.374 9.967 9.374 5.522 0 9.999-4.477 9.999-10s-4.477-9.998-9.999-9.998m0 18.665c-4.076 0-7.54-2.85-8.43-6.707h9.763V10.103c4.148.644 7.333 4.239 7.333 8.564 0 4.778-3.888 8.665-8.666 8.665"/>
</svg>
