<svg xml:space="preserve" viewBox="0 0 32 32" xmlns="http://www.w3.org/2000/svg"><g id="icon">
  <path fill="currentColor" d="M19.111 5.333c.8 0 1.586.087 2.352.259-3.818 2.01-6.292 6.029-6.284 10.415.008 4.386 2.496 8.396 6.32 10.392-.771.175-1.567.265-2.382.268a10.597 10.597 0 0 1-7.524-3.11 10.6 10.6 0 0 1-3.138-7.536 10.59 10.59 0 0 1 3.109-7.55 10.59 10.59 0 0 1 7.533-3.138h.014m0-1.333h-.014a11.916 11.916 0 0 0-8.478 3.531 11.915 11.915 0 0 0-3.497 8.492 11.927 11.927 0 0 0 3.53 8.479A11.919 11.919 0 0 0 19.117 28H19.144a12.042 12.042 0 0 0 4.169-.753l2.026-.752-2.028-.748c-4.058-1.499-6.79-5.414-6.798-9.742-.008-4.328 2.709-8.253 6.76-9.766l2.018-.753-2.019-.746a11.944 11.944 0 0 0-4.16-.74z"/>
</g></svg>
