<svg viewBox="0 0 32 32" xmlns="http://www.w3.org/2000/svg">
  <rect/>
  <path d="m25.999 24.012.882-11.155-.324-.364c-1.37-1.545-3.175-3.339-4.592-3.886l3.53-2.522L20.363.954l-3.778 5.668-2.538-5.71L8.109 6l.593.506c.077.066 1.29 1.104 2.432 2.055-.05.006-.079.014-.099.019-1.314.327-4.418 2.799-5.339 3.548l-.47.384.977 11.193C4.741 24.946 4 26.004 4 26.854c0 1.091.908 2.616 1.299 3.223l.338.523 19.442.032.343-.365c2.026-2.17 2.305-2.923 2.305-3.413 0-.428-.211-1.101-1.728-2.842m-1.496 5.286-18.14-.031c-.506-.802-1.03-1.872-1.03-2.413 0-.349.621-1.23 1.986-2.341l.273-.223-.977-11.19c1.766-1.433 3.979-3.035 4.707-3.218.186-.021 1.05.042 1.743.114l2.326.244-1.847-1.433c-.77-.598-2.476-2.039-3.383-2.809l3.395-2.91 2.795 6.29 4.22-6.332 2.87 2.869-6.556 4.681 3.046-.609c.496-.099 1.118-.208 1.25-.213.691 0 2.465 1.454 4.325 3.544l-.882 11.153.188.213c1.476 1.658 1.576 2.135 1.583 2.148-.01.055-.137.578-1.892 2.466M22.18 6.104l-5.45 3.633 3.632-5.45zm-5.854 4.124-5.789-4.342 2.895-1.447zm.796 3.862s-.623-.09-.233-.03a6 6 0 0 0-1.043-.105 6.12 6.12 0 0 0-3.672 1.235h-.016v.013c-1.502 1.127-2.488 2.905-2.488 4.928a6.176 6.176 0 0 0 6.176 6.175 6.16 6.16 0 0 0 5.174-2.821l.086-.053-.03-.049c.59-.947.945-2.055.945-3.252a6.176 6.176 0 0 0-4.9-6.041m3.15 7.987-2.407-3.916 1.784-.991a4.8 4.8 0 0 1 1.039 2.96c0 .694-.152 1.35-.415 1.947m-4.636-.384c-.093 1.006-.671 1.978-1.667 2.9-.168-.07-.32-.169-.478-.257V20.59l1.7-.945c.242.448.526 1.177.445 2.047m-1.073-3.224-1.072.596v-3.14a4.8 4.8 0 0 1 1.783-.58 3.6 3.6 0 0 0-.72 1.213 2.96 2.96 0 0 0 .009 1.911m1.217-.676a1.6 1.6 0 0 1 .036-.807c.226-.68.849-1.2 1.303-1.507a4.8 4.8 0 0 1 1.532.72zm-4.777 2.338c0-1.186.445-2.259 1.155-3.102v6.203c-.71-.843-1.155-1.916-1.155-3.101m4.843 4.842c-.116 0-.224-.026-.337-.034.857-.977 1.353-2.02 1.455-3.123.111-1.21-.27-2.198-.608-2.817l.343-.19 2.768 4.503c-.888 1.01-2.174 1.66-3.621 1.66"/>
</svg>
