<svg xml:space="preserve" viewBox="0 0 32 32" xmlns="http://www.w3.org/2000/svg"><g id="icon">
  <path d="M8.365 20.333a.666.666 0 0 1-.667-.666c0-.8.252-1.536.667-2.139a2.178 2.178 0 0 1-1.032-1.861.666.666 0 1 1 1.334 0c0 .46.333.833.743.833.012 0 .023.007.036.007A3.318 3.318 0 0 1 11.184 16a.666.666 0 1 1 0 1.333c-1.187 0-2.153 1.047-2.153 2.334a.666.666 0 0 1-.666.666m16.002-4.666a.666.666 0 1 0-1.333 0c0 .46-.333.833-.744.833-.012 0-.023.007-.035.007A3.318 3.318 0 0 0 20.517 16a.666.666 0 1 0 0 1.333c1.186 0 2.152 1.047 2.152 2.334a.666.666 0 1 0 1.334 0c0-.8-.252-1.536-.667-2.14a2.178 2.178 0 0 0 1.031-1.86m4.966 1.775c0-1.692-.98-3.142-2.393-3.856a4.296 4.296 0 0 0 1.06-2.81c0-2.326-1.835-4.208-4.134-4.314.08-.329.134-.667.134-1.02a4.333 4.333 0 0 0-4.333-4.334c-1.551 0-2.901.822-3.667 2.046a4.319 4.319 0 0 0-3.667-2.046A4.333 4.333 0 0 0 8 5.442c0 .353.054.691.134 1.02C5.835 6.568 4 8.45 4 10.775c0 1.079.408 2.053 1.06 2.811-1.414.714-2.393 2.164-2.393 3.856 0 1.579.853 2.947 2.115 3.704-.07.31-.115.63-.115.962a4.327 4.327 0 0 0 2.666 3.993v-1.536C6.52 24.015 6 23.118 6 22.108c0-.204.027-.422.082-.666l.215-.942-.829-.497A2.972 2.972 0 0 1 4 17.442a2.98 2.98 0 0 1 1.661-2.665l.746-.377c1.644-.203 2.926-1.593 2.926-3.292a.666.666 0 1 0-1.333 0c0 .974-.701 1.786-1.625 1.962l-.303-.353a2.962 2.962 0 0 1-.739-1.942 2.988 2.988 0 0 1 2.862-2.981l.358-.017c.256.477.613.894 1.075 1.203a3.31 3.31 0 0 0 2.503.495.666.666 0 1 0-.262-1.308 1.98 1.98 0 0 1-1.501-.297 1.974 1.974 0 0 1-.796-1.136l-.143-.587a2.96 2.96 0 0 1-.096-.705c0-1.654 1.346-3 3-3s3 1.346 3 3V11c-.46 0-.896.1-1.299.27-.328-.747-1.047-1.27-1.884-1.27a.666.666 0 1 0 0 1.333c.379 0 .68.325.725.737a3.751 3.751 0 0 0-1.027 2.597.666.666 0 1 0 1.333 0c0-1.287.965-2.334 2.152-2.334V16h1.334v-3.667c1.186 0 2.152 1.047 2.152 2.334a.666.666 0 1 0 1.333 0 3.752 3.752 0 0 0-1.028-2.597c.045-.412.347-.737.726-.737a.666.666 0 1 0 0-1.333c-.837 0-1.557.523-1.885 1.27a3.312 3.312 0 0 0-1.298-.27V5.442c0-1.654 1.345-3 3-3 1.654 0 3 1.346 3 3 0 .211-.03.435-.096.705l-.143.586c-.128.463-.393.869-.795 1.137a1.982 1.982 0 0 1-1.501.297.666.666 0 1 0-.262 1.307 3.314 3.314 0 0 0 2.503-.495c.462-.308.819-.725 1.074-1.202l.358.017a2.988 2.988 0 0 1 2.862 2.981c0 .895-.402 1.55-.739 1.942l-1.11 1.292 1.52.768A2.98 2.98 0 0 1 28 17.442c0 1.052-.549 2.01-1.468 2.561l-.829.497.215.942c.055.244.082.462.082.666 0 1.01-.52 1.908-1.335 2.458l-.001.982v.555a4.328 4.328 0 0 0 2.67-3.995 4.32 4.32 0 0 0-.116-.962c1.262-.757 2.115-2.125 2.115-3.704m-8.185 5.394 2.185.002-.003 3.667-2.184-.003a.592.592 0 0 0-.18.23.56.56 0 0 0-.031.28l1.543 1.55-2.596 2.592-1.542-1.549a.557.557 0 0 0-.289.035.576.576 0 0 0-.223.177V32h-3.666v-2.185a.596.596 0 0 0-.228-.18.531.531 0 0 0-.283-.033l-1.546 1.542-2.59-2.593 1.546-1.541a.588.588 0 0 0-.035-.29.58.58 0 0 0-.177-.223H8.667V22.83h2.182a.597.597 0 0 0 .182-.229.583.583 0 0 0 .03-.283l-1.54-1.542 2.592-2.593 1.542 1.544a.765.765 0 0 0 .081.005.54.54 0 0 0 .21-.04.578.578 0 0 0 .222-.176l.001-2.183h3.665v2.186a.568.568 0 0 0 .225.176.55.55 0 0 0 .21.038.88.88 0 0 0 .078-.004l1.546-1.542 2.588 2.593-1.545 1.542a.59.59 0 0 0 .033.285.588.588 0 0 0 .18.229m.85 1.334-.851-.001h-.47l-.367-.296a1.908 1.908 0 0 1-.57-.75 1.911 1.911 0 0 1-.13-.94l.05-.47.334-.335.601-.6-.704-.705-.602.6-.342.341-.48.043a1.883 1.883 0 0 1-.909-.127 1.893 1.893 0 0 1-.765-.578l-.292-.366v-1.319h-.999V19.987l-.296.366a1.894 1.894 0 0 1-.745.569 1.891 1.891 0 0 1-.947.13l-.47-.049-.333-.334-.598-.6-.707.707.6.6.33.33.051.465c.037.329-.004.642-.12.929a1.936 1.936 0 0 1-.582.77l-.366.294H10v1h1.318l.365.292c.256.205.447.455.57.742.128.315.17.63.133.96l-.052.465-.332.33-.6.6.705.706.603-.601.323-.322.453-.057a1.857 1.857 0 0 1 .95.12c.31.133.56.325.766.582l.294.365V30.666h.998l.001-.85v-.467l.292-.365c.207-.259.459-.452.748-.574a1.903 1.903 0 0 1 .952-.13l.467.051.331.333.6.603.708-.708-.603-.605-.328-.33-.052-.462a1.874 1.874 0 0 1 .127-.945c.114-.28.305-.534.563-.746l.37-.303h.478l.85.002zm-3.066.498A2.936 2.936 0 0 1 16 27.602a2.937 2.937 0 0 1-2.933-2.934A2.937 2.937 0 0 1 16 21.735a2.936 2.936 0 0 1 2.932 2.933m-1.266 0c0-.919-.747-1.666-1.666-1.666-.92 0-1.667.747-1.667 1.666 0 .92.748 1.667 1.667 1.667s1.666-.747 1.666-1.667"/>
</g></svg>
