<svg xml:space="preserve" viewBox="0 0 32 32" xmlns="http://www.w3.org/2000/svg"><g id="icon">
  <path d="m25.986 20.388-.01.003a9.986 9.986 0 0 0-7.31-9.354V5.333h.836c.643 0 1.165-.521 1.165-1.164V2.498c0-.643-.522-1.165-1.165-1.165h-7.004c-.643 0-1.165.522-1.165 1.165v1.67c0 .644.522 1.165 1.165 1.165h.835v5.704c-3.484.964-6.177 3.771-7.026 7.3l-.02-.011c-.025.104-.036.212-.058.317-.04.195-.08.388-.108.586-.071.47-.121.947-.121 1.438 0 5.523 4.477 10 10 10s10-4.477 10-10c0-.094-.011-.185-.014-.279M12.666 4V2.667h6.667V4h-6zm1.023 8.322.978-.27V5.333h2.666v1.334H16V8h1.333v1.322H16v1.333h1.333V12H16v1.333h1.529v-1.227l.782.216a8.684 8.684 0 0 1 6.356 8.345l-.002.03a28.544 28.544 0 0 1-5.998.636c-4.25 0-8.136-.884-11.15-2.349.632-3.154 2.984-5.78 6.172-6.662m-6.356 8.345c0-.097.02-.188.024-.284 3.227 1.48 7.165 2.284 11.31 2.284 2.007 0 3.974-.192 5.872-.572l-.015.095a8.586 8.586 0 0 1-.336 1.29 8.637 8.637 0 0 1-.634 1.42c-.029.052-.062.101-.092.152a8.712 8.712 0 0 1-.782 1.13l-.017.019c-.292.35-.615.673-.958.973-.04.036-.078.074-.12.109a8.712 8.712 0 0 1-1.07.767 8.63 8.63 0 0 1-1.37.684c-.071.028-.144.053-.216.079a8.57 8.57 0 0 1-1.3.362c-.057.01-.115.016-.172.026-.475.08-.96.132-1.457.132-4.779 0-8.667-3.888-8.667-8.666m11.334 6.666a2 2 0 1 0 0-4 2 2 0 0 0 0 4m0-2.666a.667.667 0 1 1-.002 1.335.667.667 0 0 1 .002-1.335m2-4.667a2 2 0 1 0 0-4 2 2 0 0 0 0 4m0-2.667a.667.667 0 1 1-.002 1.335.667.667 0 0 1 .002-1.335M13.333 16a2 2 0 1 0 0 4 2 2 0 0 0 0-4m0 2.667a.667.667 0 1 1 .002-1.335.667.667 0 0 1-.002 1.335m-1.876-2.849a6.666 6.666 0 0 0-1.84 3.03.666.666 0 1 1-1.283-.362 7.99 7.99 0 0 1 2.208-3.638.667.667 0 0 1 .915.97M16.699 28a.666.666 0 0 1-.666.667 7.97 7.97 0 0 1-7.128-4.364 7.953 7.953 0 0 1-.74-2.182.668.668 0 0 1 .534-.777.675.675 0 0 1 .776.535c.117.634.324 1.245.617 1.818a6.642 6.642 0 0 0 5.94 3.636c.369 0 .667.299.667.667M16 14.678h1.529v1.334H16z"/>
</g></svg>
