<svg xml:space="preserve" viewBox="0 0 32 32" xmlns="http://www.w3.org/2000/svg"><g id="icon">
  <rect/>
  <path fill="currentColor" d="M28.667 14.667V8.474l-9.884 6.14v-6.14l-9.97 6.193H8V2H1.333v28.667h29.334v-16h-2zm-1.334-3.795v3.795h-6.11l6.11-3.795zm-9.883 0v3.795h-6.11l6.11-3.795zM6.667 7.333h-4V6h4v1.333zm-4-4h4v1.334h-4V3.333zm12.45 26H11.45v-4.666h3.667v4.666zm1.333 0v-4.666h3.667v4.666H16.45zm12.883 0H21.45v-6H10.117v6h-7.45V8.667h4V16h22.666v13.333zM5.333 22h6v-4.667h-6V22zm1.334-3.333H10v2H6.667v-2zm6 3.333h6v-4.667h-6V22zM14 18.667h3.333v2H14v-2zM20 22h6v-4.667h-6V22zm1.333-3.333h3.334v2h-3.334v-2z"/>
</g></svg>
