<svg xml:space="preserve" viewBox="0 0 32 32" xmlns="http://www.w3.org/2000/svg"><g id="icon">
  <path d="M6.62 29.282h8.615v-8.615H6.62v8.615zM7.953 22h5.949v5.949H7.953V22m1.539.872h2.871v1.334H9.492v-1.334m7.179 6.41h8.615v-8.615h-8.615v8.615M18.004 22h5.949v5.949h-5.949V22m1.539.872h2.871v1.334h-2.871v-1.334M6.62 19.231h8.615v-8.616H6.62v8.616m1.333-7.282h5.949v5.948H7.953V11.95m1.539.871h2.871v1.334H9.492V12.82m7.179 6.41h8.615v-8.615h-8.615v8.616m1.333-7.281h5.949v5.948h-5.949V11.95m1.539.871h2.871v1.334h-2.871V12.82m11.124-3.744v1.541L16.004 2.094l-14.67 8.47v-1.54L16.006.554l14.66 8.522"/>
</g></svg>
