<svg viewBox="0 0 32 32" xmlns="http://www.w3.org/2000/svg">
  <path d="M6.62 29.282h8.615v-8.615H6.62zM7.953 22h5.949v5.949H7.953zm1.539.872h2.871v1.334H9.492zm7.179 6.41h8.615v-8.615h-8.615zM18.004 22h5.949v5.949h-5.949zm1.539.872h2.871v1.334h-2.871zM6.62 19.231h8.615v-8.616H6.62zm1.333-7.282h5.949v5.948H7.953zm1.539.871h2.871v1.334H9.492zm7.179 6.41h8.615v-8.615h-8.615zm1.333-7.281h5.949v5.948h-5.949zm1.539.871h2.871v1.334h-2.871zm11.124-3.744v1.541L16.004 2.094l-14.67 8.47v-1.54L16.006.554z"/>
</svg>
