<svg viewBox="0 0 32 32" xmlns="http://www.w3.org/2000/svg">
  <path d="M4 26h1.333v6H4zm.667-10.941a4 4 0 1 1 8 0 4 4 0 0 1-8 0m1.333 0c0 1.47 1.196 2.667 2.667 2.667s2.666-1.197 2.666-2.667-1.196-2.667-2.666-2.667S6 13.588 6 15.06m18-7.726V6.055h-1.333v1.278h-1.334v1.334h1.334v1.388H24V8.667h1.333V7.333zM30 0v32h-1.333V12.544h-1.334v1.41a1.38 1.38 0 0 1-1.378 1.38h-.622V18H24v8c0 1.615-.697 4.667-3.333 4.667-1.649 0-2.072-.63-2.39-1.33-.145-.319-.26-.55-.944-.634V32H16v-1.333h-2.667V32H12v-6h1.333v.667H16V25.48c0-2.07-1.401-3.755-3.124-3.755H4.457c-1.723 0-3.124 1.685-3.124 3.755V32H0v-6.52c0-2.806 2-5.088 4.457-5.088h8.42c2.457 0 4.456 2.282 4.456 5.088v1.884c1.446.14 1.853.75 2.158 1.421.17.376.249.548 1.176.548 1.966 0 2-3.3 2-3.334V18h-1.334v-2.667h-.62a1.38 1.38 0 0 1-1.38-1.378V2.443a1.38 1.38 0 0 1 1.38-1.378h5.242c.761 0 1.378.617 1.378 1.378v.89h1.334V0zM16 29.333V28h-2.667v1.333zm4.708-26h5.289l.003-.89-.045-.045h-5.243zm-.03 7.877h5.288l.025-6.543h-5.288zM24 15.333h-1.333v1.334H24zm1.96-2.79h-5.288l-.005 1.412 5.288.045zm2.707-7.876h-1.334v6.543h1.334z"/>
</svg>
