<svg viewBox="0 0 32 32" xmlns="http://www.w3.org/2000/svg">
  <path d="m23.956 12 3.297-7.065a1.79 1.79 0 0 0-.845-2.368l-1.148-.553a1.79 1.79 0 0 0-2.273.633L16.872 12H1.367c0 6.297 2.682 11.796 6.633 15.009v1.828c0 1.01.82 1.83 1.83 1.83h12.34c1.01 0 1.83-.82 1.83-1.83V27.01c3.95-3.213 6.633-8.712 6.633-15.009zm.53-8.83a.45.45 0 0 1 .196.045l1.147.553c.224.108.32.378.215.603l-.468 1.005-2.095-1.048.622-.951a.46.46 0 0 1 .383-.207m-1.74 2.282 2.265 1.132L22.484 12h-4.02zm-.08 23.385a.497.497 0 0 1-.496.496H9.83a.497.497 0 0 1-.497-.496V28h13.334zm-.472-2.17H9.806c-3.885-2.641-6.681-7.63-7.061-13.334h26.51c-.38 5.704-3.176 10.693-7.06 13.334m-4.194-12h-4v2.502h-2.667v4H14V24h4v-2.831h2.667v-4H18zm1.333 3.835v1.333h-2.666v2.832h-1.334v-2.832h-2.666v-1.333h2.666V16h1.334v2.502z"/>
</svg>
