<svg viewBox="0 0 32 32" xmlns="http://www.w3.org/2000/svg">
  <path d="M30.661 16c0-.756-.458-1.469-1.259-1.956l-1.167-.71 1.167-.711c.801-.488 1.26-1.2 1.26-1.956s-.459-1.47-1.26-1.957L18.624 2.15c-1.472-.895-3.777-.895-5.248 0L2.598 8.71c-.8.488-1.26 1.2-1.26 1.957s.46 1.468 1.26 1.956l1.167.71-1.167.71c-.8.488-1.26 1.201-1.26 1.957s.46 1.469 1.26 1.956l1.168.71-1.168.712c-.8.487-1.26 1.2-1.26 1.955s.46 1.47 1.26 1.956l10.777 6.56c.736.45 1.68.673 2.625.673.944 0 1.888-.225 2.624-.673l10.778-6.56c.801-.487 1.26-1.2 1.26-1.956 0-.755-.459-1.468-1.26-1.955l-1.168-.711 1.168-.711c.801-.487 1.26-1.2 1.26-1.956m-27.37-4.516c-.394-.24-.62-.538-.62-.817s.226-.578.62-.817L14.07 3.29c.523-.32 1.227-.479 1.931-.479s1.408.16 1.931.479L28.71 9.85c.393.24.618.537.618.817s-.225.577-.618.817l-10.779 6.56c-1.047.636-2.814.636-3.863 0zm25.419 9.032c.393.24.618.537.618.817s-.225.578-.618.818l-10.779 6.56c-1.047.635-2.814.635-3.863 0L3.292 22.15c-.395-.24-.62-.538-.62-.818s.225-.576.619-.817l1.757-1.07 8.327 5.07c.736.449 1.68.673 2.625.673.944 0 1.888-.225 2.624-.673l8.329-5.07zm0-3.699-10.779 6.56c-1.047.636-2.814.636-3.863 0l-10.776-6.56c-.395-.24-.62-.538-.62-.817s.225-.577.619-.817l1.757-1.07 8.327 5.07c.736.449 1.68.672 2.625.672.944 0 1.888-.225 2.624-.673l8.329-5.068 1.757 1.069c.393.24.618.538.618.817s-.225.577-.618.817M18.284 5.158 6.951 12.057l-1.283-.78 11.334-6.9zm-2.655 5.979-5.095 3.101-.2-.122-1.082-.658 5.095-3.102zm0-1.561 4.956-3.017 1.082.658.2.123-4.956 3.016zm3.584 2.18 4.955-3.016 1.283.78-4.956 3.017zm-5.096 4.663-1.282-.78 5.095-3.102 1.282.78z"/>
</svg>
