<svg viewBox="0 0 32 32" xmlns="http://www.w3.org/2000/svg">
  <path d="M2.667 6v20.667H14.76L14.77 28H1.333V6c0-1.103.897-2 2-2h5.361c.795 0 1.565.285 2.169.803l2.746 2.751c.325.275.787.446 1.263.446h13.795c1.102 0 2 .897 2 2v2.667h-1.334V10a.667.667 0 0 0-.666-.667H14.872a3.33 3.33 0 0 1-2.125-.762l-.042-.036-.04-.039-2.705-2.71a2 2 0 0 0-1.266-.453h-5.36c-.368 0-.667.3-.667.667M32 15.397v14.667H17.333V15.397zm-1.333 1.333h-12v12h12zm-2.138 3.676-1.058-.812-3.632 4.73-2.034-2.034-.943.943 3.11 3.11z"/>
</svg>
