<svg xml:space="preserve" viewBox="0 0 32 32" xmlns="http://www.w3.org/2000/svg"><g id="icon">
  <path d="m16.012 26.667.01 1.333H1.332V6c0-1.103.897-2 2-2h5.361c.795 0 1.565.285 2.169.803l2.746 2.751c.325.275.787.446 1.263.446h13.795c1.102 0 2 .897 2 2v4.667h-1.334V10c0-.368-.299-.667-.666-.667H14.872a3.329 3.329 0 0 1-2.125-.762l-.042-.036-.04-.039-2.705-2.71a2 2 0 0 0-1.266-.453h-5.36c-.368 0-.667.3-.667.667v20.667h13.345m4.866-8V20H32v-1.333H20.878m0 6H32v-1.334H20.878v1.334m0 4.666H32V28H20.878v1.333"/>
</g></svg>
