<svg viewBox="0 0 32 32" xmlns="http://www.w3.org/2000/svg">
  <path d="M3.77 11.31h14.138V3.77H3.77zm1.333-6.207h11.472v4.874H5.103zm-1.333 8.23h5.655v1.334H3.77zM8.483 16v1.333H3.77V16zM3.77 21.333h4.713v1.334H3.77zm7.54-8h6.598v1.334H11.31zm0 2.667h5.655v1.333h-5.654zm-7.54 2.667h5.655V20H3.77zm7.54 0h3.357V20H11.31zm16.01-.016h-5.642v-1.623c.516.196 1.07.316 1.655.316a4.667 4.667 0 0 0 0-9.333c-.585 0-1.139.12-1.655.316V0H0v27.333h14.667V32H16v-8.67a3.35 3.35 0 0 1 3.346-3.346h7.974a3.35 3.35 0 0 1 3.347 3.346V32H32v-8.67a4.693 4.693 0 0 0-4.68-4.68m-6.975-2.417v2.417h-.999c-1.857 0-3.458 1.104-4.212 2.682h-3.823v1.334h3.423c-.032.218-.067.436-.067.663V26H1.333V1.333h19.012v7.788c-1.018.856-1.678 2.122-1.678 3.556s.66 2.701 1.678 3.557M20 12.677a3.337 3.337 0 0 1 3.333-3.333 3.337 3.337 0 0 1 3.334 3.333 3.337 3.337 0 0 1-3.334 3.334A3.337 3.337 0 0 1 20 12.677m-1.333 12H20V32h-1.333zm8.01 0h1.333V32h-1.333z"/>
</svg>
