<svg xml:space="preserve" viewBox="0 0 32 32" xmlns="http://www.w3.org/2000/svg"><g id="icon">
  <path fill="currentColor" d="M10.667 1.333v9.02H2.942c-.907 0-1.648.742-1.648 1.648v17.018c0 .906.741 1.648 1.648 1.648h9.118c.906 0 1.648-.742 1.648-1.648v-13.14h3.196l1.332-1.334h-4.528v-1.06l3.716-4.384 1.652 1.788a2.11 2.11 0 0 0 1.59.72c.585 0 1.17-.24 1.592-.72l1.388-1.503 4.535 5.16h-5.365c.288.425.54.87.763 1.333h7.088V1.333h-20zM2.942 11.687h9.118c.17 0 .314.144.314.314v12.92H2.627v-12.92c0-.17.144-.314.315-.314zm9.118 17.646H2.942a.319.319 0 0 1-.315-.314v-2.764h9.747v2.764c0 .17-.144.314-.314.314zm1.648-17.332c0-.906-.742-1.648-1.648-1.648H12V3.231l4.513 4.884-2.9 3.42c.046.15.095.301.095.466zm7.549-1.993a.778.778 0 0 1-.59.267.802.802 0 0 1-.612-.291l-6.761-7.317h14.745l-6.782 7.341zm8.076 3.827-4.776-5.434 4.776-5.17v10.604zM6.373 27.178H8.63v1.334H6.372v-1.334zM3.84 18.583a1.622 1.622 0 0 1-.117-.638c0-.229.04-.435.119-.616.08-.183.19-.336.334-.462.144-.125.314-.222.509-.289s.41-.1.646-.1c.131 0 .252.006.363.02.11.014.22.04.326.078l-.045.545a1.382 1.382 0 0 0-.293-.094c-.097-.02-.2-.029-.306-.029-.14 0-.267.02-.383.06a.785.785 0 0 0-.495.468c-.046.116-.07.25-.07.404 0 .15.024.285.073.403.047.119.114.22.198.302s.187.145.306.19c.119.042.25.064.395.064a1.584 1.584 0 0 0 .607-.11l.038.553c-.099.03-.207.053-.324.068a2.746 2.746 0 0 1-.362.023c-.246 0-.469-.032-.67-.095a1.415 1.415 0 0 1-.516-.281 1.234 1.234 0 0 1-.333-.464zm3.386.799h-.68v-2.864h.68v1.116h1.079v-1.116h.68v2.864h-.68v-1.214h-1.08v1.214zm3.105 0H9.66v-2.864h1.73v.517h-1.058v.677h1.01v.508h-1.01v1.162zm5.926-.839c.58.557.9 1.306.9 2.11 0 .8-.335 1.576-.917 2.126l-.916-.97c.322-.304.499-.714.499-1.157 0-.437-.174-.843-.489-1.145l.923-.964zm3.998 2.11a5.977 5.977 0 0 1-1.815 4.31l-.932-.954a4.657 4.657 0 0 0 1.414-3.357 4.652 4.652 0 0 0-1.399-3.34l.935-.951a5.976 5.976 0 0 1 1.797 4.291zm.38-6.467a9.036 9.036 0 0 1 2.698 6.466c0 2.453-.96 4.753-2.704 6.474l-.938-.948A7.711 7.711 0 0 0 22 20.652a7.71 7.71 0 0 0-2.302-5.519l.937-.947z"/>
</g></svg>
