<svg viewBox="0 0 32 32" xmlns="http://www.w3.org/2000/svg">
  <path d="M16.023 20.781c-2.08-.574-3.706-1.522-5.002-2.63-1.636 1.275-3.623 2.55-6.054 3.777l-.6-1.19c2.272-1.147 4.131-2.337 5.666-3.525-3.41-3.627-3.825-8.315-3.83-8.382l1.329-.1c.019.247.404 4.442 3.519 7.655 5.386-4.605 5.996-9 6.036-10.459H1.333V4.594h8.868V2.667h1.333v1.927h11.133v1.333h-4.238c-.016 1.727-.646 6.46-6.37 11.375 1.138.918 2.542 1.703 4.319 2.193zM30.336 28h-1.621l-1.664-4.031h-7.552L17.857 28h-1.58l6.23-14.89h1.557q1.579 3.754 3.147 7.445 1.566 3.69 3.125 7.445m-3.776-5.247-2.176-5.399q-.108-.255-.256-.64-.15-.383-.31-.8-.159-.415-.309-.82-.15-.406-.234-.726h-.043q-.106.32-.255.715t-.3.81q-.15.417-.298.8l-.257.661-2.153 5.399z"/>
</svg>
