<svg viewBox="0 0 32 32" xmlns="http://www.w3.org/2000/svg">
  <path d="M12.88 12.367a1.7 1.7 0 0 0-.113.64q-.001.352.1.636.1.284.29.487t.467.313q.275.11.636.11.148 0 .274-.013.125-.013.24-.04v-1.047h-.861v-.806h1.867v2.533a4 4 0 0 1-.74.166 6 6 0 0 1-.767.054q-.612 0-1.106-.16a2.3 2.3 0 0 1-.838-.464 2.05 2.05 0 0 1-.53-.742 2.6 2.6 0 0 1-.186-1.008q0-.559.19-1.01.19-.449.547-.76.357-.31.86-.476a3.6 3.6 0 0 1 1.123-.167q.346 0 .674.04.326.041.68.154l-.08.907a2.3 2.3 0 0 0-.587-.197 3.4 3.4 0 0 0-.667-.064q-.36 0-.652.11a1.4 1.4 0 0 0-.5.313q-.208.204-.32.491m6.313.64v.013q.254.06.39.2.137.142.25.406l.687 1.707h-1.174L18.9 14.1a2 2 0 0 0-.137-.307.6.6 0 0 0-.167-.19.6.6 0 0 0-.22-.1 1.3 1.3 0 0 0-.303-.029h-.26v1.86h-1.106V10.68h1.466q.44 0 .81.05t.64.187.424.373.154.61q0 .46-.258.737-.255.277-.75.37m-.1-.947q-.001-.346-.266-.457-.268-.11-.767-.11h-.246v1.18h.246q.526 0 .78-.14.255-.139.254-.473m3.277-.216q.203-.192.487-.287.283-.097.622-.097.262 0 .498.047c.236.047.316.082.476.153l.073-.887a2.4 2.4 0 0 0-.53-.126 5 5 0 0 0-.59-.034q-.574 0-1.05.163-.476.164-.826.47a2.1 2.1 0 0 0-.543.75q-.194.444-.194 1.004 0 .586.19 1.036.189.45.54.754.35.304.84.456.49.154 1.09.154.3 0 .586-.037.287-.036.527-.11l-.06-.9q-.253.1-.493.14t-.493.04q-.354 0-.644-.106a1.4 1.4 0 0 1-.496-.307 1.4 1.4 0 0 1-.324-.49 1.8 1.8 0 0 1-.116-.656q0-.375.113-.658a1.3 1.3 0 0 1 .317-.472m4.03-.304q.215-.12.56-.12a2.7 2.7 0 0 1 1.007.2l.073-.86a3 3 0 0 0-.57-.127 6 6 0 0 0-.624-.033 2.6 2.6 0 0 0-.712.093 1.7 1.7 0 0 0-.564.27 1.24 1.24 0 0 0-.37.437 1.3 1.3 0 0 0-.134.593q0 .255.081.458.08.203.233.363a1.7 1.7 0 0 0 .377.289q.224.131.516.237.247.093.417.173t.27.164a.5.5 0 0 1 .144.173q.043.09.043.203 0 .255-.217.387-.217.133-.57.133a2.7 2.7 0 0 1-.546-.063 3 3 0 0 1-.62-.21l-.094.92q.62.2 1.32.2.426 0 .768-.104.339-.103.579-.293c.24-.19.282-.28.367-.463q.125-.274.126-.62 0-.267-.076-.476a1.1 1.1 0 0 0-.233-.377 1.7 1.7 0 0 0-.394-.303 3.3 3.3 0 0 0-.557-.25q-.247-.095-.406-.17c-.16-.076-.19-.102-.25-.15a.4.4 0 0 1-.124-.15.5.5 0 0 1-.032-.177q0-.227.212-.347M0 19.947h4v8H0v1.333h5.333V18.613H0zM20 1.333c-6.627 0-12 5.373-12 12 0 1.773.394 3.45 1.084 4.964l1.313-.352a10.6 10.6 0 0 1-1.064-4.612C9.333 7.452 14.118 2.667 20 2.667s10.667 4.785 10.667 10.666a10.63 10.63 0 0 1-3.235 7.636c.38.239.707.551.966.929A11.96 11.96 0 0 0 32 13.333c0-6.627-5.373-12-12-12m7.399 21.448c.55.953.223 2.179-.732 2.73l-8.06 4.654a3.32 3.32 0 0 1-2.53.333l-7.96-2.132a2.004 2.004 0 0 1-1.482-1.932v-4.565c0-.904.61-1.698 1.482-1.933l4.906-1.315a3.3 3.3 0 0 1 2.53.335l3.318 1.915a2.002 2.002 0 0 1-1.002 3.731c-.348 0-.69-.09-.998-.266l-2.191-1.267a.669.669 0 0 0-.978.751.67.67 0 0 0 .311.405l3.109 1.795a.67.67 0 0 0 .666 0l6.88-3.972a1.97 1.97 0 0 1 1.516-.2c.517.138.948.47 1.215.933m-1.154.668a.65.65 0 0 0-.405-.313.63.63 0 0 0-.501.064l-6.884 3.974a2 2 0 0 1-1.996.002l-3.112-1.796a1.996 1.996 0 0 1-.73-2.737 2.003 2.003 0 0 1 2.723-.732l2.198 1.27a.66.66 0 0 0 .512.064.668.668 0 0 0 .153-1.22l-3.317-1.914a1.98 1.98 0 0 0-1.522-.2l-4.902 1.313a.67.67 0 0 0-.494.645v4.565c0 .3.204.566.495.644l7.959 2.132a1.98 1.98 0 0 0 1.519-.2L26 24.358a.667.667 0 0 0 .244-.908"/>
</svg>
