<svg viewBox="0 0 32 32" xmlns="http://www.w3.org/2000/svg">
  <rect/>
  <path d="M25.333 9.479a9.333 9.333 0 1 0-18.666 0c0 1.753.492 3.388 1.333 4.789V32l8-7.862L24 32V14.268a9.3 9.3 0 0 0 1.333-4.79m-9.333-8c4.411 0 8 3.588 8 8s-3.589 8-8 8-8-3.59-8-8 3.589-8 8-8m6.667 27.341-5.732-5.633L16 22.27l-.935.918-5.732 5.633V16.005a9.4 9.4 0 0 0 2.058 1.583v6.204a.666.666 0 1 0 1.333 0v-5.583a9.3 9.3 0 0 0 2.61.57v1.912a.666.666 0 1 0 1.333 0v-1.913a9.3 9.3 0 0 0 2.652-.585v5.599a.666.666 0 1 0 1.333 0v-6.23a9.4 9.4 0 0 0 2.015-1.557zM10.984 11.272q.345.13.77.13h.083l.083-.005.581.646h1.104l-.853-.854q.444-.225.688-.658.246-.434.246-1.07 0-.448-.137-.802a1.7 1.7 0 0 0-.381-.603 1.7 1.7 0 0 0-.587-.382 2.1 2.1 0 0 0-.757-.133q-.443 0-.8.128a1.7 1.7 0 0 0-.61.37 1.6 1.6 0 0 0-.39.601q-.136.357-.136.816 0 .464.133.827.134.363.377.61.242.248.586.38m.168-2.678a.72.72 0 0 1 .614-.317q.41 0 .645.312.234.313.235.91 0 .56-.235.866c-.235.306-.365.307-.624.307a.75.75 0 0 1-.624-.312 1.2 1.2 0 0 1-.176-.37 1.8 1.8 0 0 1-.064-.497q0-.58.23-.899m3.957 2.74h-.9V7.61h1.61l.346 1.162q.102.336.2.699.1.363.19.715h.01q.097-.352.2-.715.105-.363.21-.699l.358-1.162h1.542v3.722h-.966V10.16l.002-.443q.004-.234.006-.477l.005-.48q.003-.237.009-.45h-.012q-.047.175-.112.394-.063.22-.133.44-.07.222-.13.421l-.11.34-.48 1.428h-.884l-.486-1.44-.085-.266-.139-.449-.15-.487q-.074-.244-.111-.382h-.011q.005.215.008.45l.01.958q.004.235.003.443zm4.387-2.262a.9.9 0 0 1-.073-.379q0-.288.117-.504.12-.215.323-.36.205-.144.483-.216.277-.072.598-.072.277 0 .527.027.252.027.476.096l-.059.774a2.3 2.3 0 0 0-.854-.165 1 1 0 0 0-.42.08q-.166.08-.166.25 0 .07.026.122a.3.3 0 0 0 .099.104q.072.051.193.107.12.056.31.125.497.187.764.446.266.259.267.69-.001.284-.107.507a1 1 0 0 1-.307.379 1.4 1.4 0 0 1-.489.237 2.4 2.4 0 0 1-.644.082q-.599.001-1.125-.16l.08-.816q.266.119.53.174.263.056.467.056.266 0 .424-.09a.3.3 0 0 0 .156-.278q0-.15-.15-.256a2.6 2.6 0 0 0-.527-.246 3 3 0 0 1-.402-.18 1.4 1.4 0 0 1-.315-.236 1 1 0 0 1-.202-.298"/>
</svg>
