<svg viewBox="0 0 32 32" xmlns="http://www.w3.org/2000/svg">
  <path d="M10.667 9.362V7.005c1.341.821 3.006 1.173 3.333.606a55 55 0 0 1-1.892-3.064l.06-.04h1.086A.746.746 0 0 0 14 3.76V2.586a.746.746 0 0 0-.746-.746h-.14c-.24-.391-.651-.666-1.144-.666H5.363C4.61 1.174 4 1.784 4 2.537v2a2.66 2.66 0 0 0 2 2.572v2.859C4.93 11.76 3.174 16 3.174 16v12.507a2.16 2.16 0 0 0 2.16 2.16h7.173a2.16 2.16 0 0 0 2.16-2.16v-14c0-2.482-1.704-4.55-4-5.145M7.333 6.936a46 46 0 0 0 2-.875v3.113h-2zm-2-2.4.03-2.03h6.607l.03.03v.411c-.557.622-3.016 1.914-5.542 2.907a1.335 1.335 0 0 1-1.125-1.317m8 12.797v8H4.507v-8zm0 11.174c0 .456-.37.826-.826.826H5.333a.827.827 0 0 1-.826-.826v-1.84h8.826zm0-12.507H4.62c.925-2.194 2.043-4.604 2.603-5.493h2.11c2.206 0 4 1.794 4 4zM24.667 9.57V6.555A.555.555 0 0 0 24.11 6h-3.473c-.72 0-1.305.584-1.305 1.304v2.664C18.263 11.76 16.507 16 16.507 16v12.507a2.16 2.16 0 0 0 2.16 2.16h7.173a2.16 2.16 0 0 0 2.16-2.16v-14a5.33 5.33 0 0 0-3.333-4.938m-1.334-2.236v1.84h-2.679l-.016-1.84zm3.334 10v4H17.84v-4zm0 11.174a.827.827 0 0 1-.827.826h-7.173a.827.827 0 0 1-.827-.826v-5.84h8.827zM17.953 16c.925-2.194 2.043-4.604 2.603-5.493h2.11c2.206 0 4 1.794 4 4V16z"/>
</svg>
