<svg xml:space="preserve" viewBox="0 0 32 32" xmlns="http://www.w3.org/2000/svg"><g id="icon">
  <path fill="currentColor" d="M24 3.36H12l-.606.462-1.75-2.27-4.45 3.43 1.732 2.244L6 7.932v22.095h20V5.51c0-1.188-.896-2.15-2-2.15zm-14.598.062.728.944-2.337 1.802-.728-.944 2.337-1.802zm15.265 25.272H7.333V8.592l5.117-3.898H24c.361 0 .667.374.667.817v23.183zM21.925 6h-6.6a2.081 2.081 0 0 0-2.076 2.075c0 1.141.934 2.075 2.075 2.075h6.601A2.081 2.081 0 0 0 24 8.075 2.081 2.081 0 0 0 21.925 6zm0 2.817h-6.6a.752.752 0 0 1-.742-.742c0-.402.34-.742.741-.742h6.601c.402 0 .742.34.742.742 0 .402-.34.742-.742.742zm-.12 5.654a.666.666 0 1 0-.943-.942l-1.805 1.804H13.61l-1.804-1.804a.666.666 0 1 0-.943.942l1.805 1.805v2.781l-1.805 1.805a.666.666 0 1 0 .943.943L13.609 20h5.448l1.805 1.805a.665.665 0 0 0 .943 0 .666.666 0 0 0 0-.943L20 19.057v-2.781l1.805-1.805zM14 16.667h4.667v2H14v-2zm8 10a.666.666 0 0 1-.667.666H8.667a.666.666 0 1 1 0-1.333h12.666c.369 0 .667.298.667.667zM8 24.18c0-.369.298-.667.667-.667h4a.666.666 0 1 1 0 1.333h-4A.666.666 0 0 1 8 24.18z"/>
</g></svg>
