<svg xml:space="preserve" viewBox="0 0 32 32" xmlns="http://www.w3.org/2000/svg"><g id="icon">
  <path d="M14.662 19.53H8.216c-1.01 0-1.93-.55-2.459-1.473a3.291 3.291 0 0 1 .01-3.293l2.541-4.347-3.681 1.002-.002-.008.94-1.629 4.394-1.195 1.29 4.476-.915 1.584-.016.005-.97-3.37-2.43 4.155c-.35.6-.352 1.35-.005 1.956.293.51.768.804 1.303.804h6.446zm11.093-4.72-2.937-5.225-1.162.653 2.938 5.225c.337.602.33 1.347-.018 1.943-.295.503-.766.79-1.296.79h-5.018l2.552-2.588H18.94l-3.222 3.27 3.208 3.254h1.872l-2.565-2.602h5.046c1 0 1.914-.542 2.447-1.45a3.301 3.301 0 0 0 .028-3.27M14.154 3.058a2.018 2.018 0 0 1 1.749-1 1.99 1.99 0 0 1 1.734 1.03l2.222 3.953-3.485-.986v.001l.954 1.655 4.427 1.252 1.197-4.608-.929-1.608-.03-.008-.955 3.68-2.24-3.985a3.309 3.309 0 0 0-2.883-1.71c-1.24.023-2.298.61-2.912 1.66L10.2 7.179l1.151.673zm1.16 7.502c.262.418.392 1.025.392 1.82a4.8 4.8 0 0 1-.083.914 2.415 2.415 0 0 1-.27.756 1.454 1.454 0 0 1-.49.513 1.36 1.36 0 0 1-.737.19c-.293 0-.54-.063-.74-.19a1.42 1.42 0 0 1-.483-.52 2.546 2.546 0 0 1-.266-.773 5.108 5.108 0 0 1-.084-.95c0-.765.134-1.353.4-1.767.267-.413.667-.62 1.2-.62.511 0 .898.21 1.16.627m-.287 1.773c0-.604-.078-1.064-.234-1.38-.156-.315-.376-.473-.66-.473-.289 0-.511.158-.666.473-.156.316-.234.774-.234 1.374 0 .622.079 1.091.237 1.406.158.316.384.473.676.473.29 0 .508-.157.657-.473.149-.315.224-.782.224-1.4m2.302-1.41c-.237.314-.363.755-.376 1.324h.02a.903.903 0 0 1 .207-.237c.084-.069.177-.125.277-.17a1.633 1.633 0 0 1 .637-.133 1.325 1.325 0 0 1 1.28.88c.066.177.099.366.099.567 0 .222-.034.43-.103.623-.07.193-.17.361-.304.503a1.466 1.466 0 0 1-.483.34 1.558 1.558 0 0 1-.643.127c-.529 0-.932-.19-1.207-.57-.276-.38-.413-.941-.413-1.684 0-.813.168-1.443.506-1.89s.822-.67 1.454-.67c.16 0 .312.01.457.027.145.018.292.051.443.1l-.067.553a1.93 1.93 0 0 0-.8-.16c-.417 0-.745.157-.984.47m-.283 2.257c0 .151.022.292.067.424.045.13.106.244.186.34.081.095.174.17.28.226a.833.833 0 0 0 .717.003.81.81 0 0 0 .277-.22c.075-.093.134-.203.177-.33a1.28 1.28 0 0 0 .064-.403c0-.138-.017-.268-.051-.39a.935.935 0 0 0-.156-.323.743.743 0 0 0-.278-.22.936.936 0 0 0-.402-.08.8.8 0 0 0-.348.076.932.932 0 0 0-.466.514 1.08 1.08 0 0 0-.067.383m-.942 13.53c.095.18.143.412.143.696 0 .285-.054.517-.16.697a1.197 1.197 0 0 1-.42.427 1.72 1.72 0 0 1-.6.216c-.227.04-.46.061-.7.061h-.393v1.86h-.68v-4.654h1.073c.266 0 .515.02.743.06.23.04.428.112.597.213.169.103.3.244.397.424m-.53.703a.88.88 0 0 0-.084-.403.601.601 0 0 0-.247-.256 1.217 1.217 0 0 0-.4-.134 3.363 3.363 0 0 0-.543-.04h-.326v1.66h.333c.204 0 .386-.012.543-.037.158-.025.29-.066.397-.126a.597.597 0 0 0 .243-.25.899.899 0 0 0 .084-.414m2.772.574a3.551 3.551 0 0 1-.449-.227 1.443 1.443 0 0 1-.267-.207.521.521 0 0 1-.13-.203.727.727 0 0 1-.034-.224c0-.186.078-.34.235-.46.154-.12.356-.179.605-.179a2.01 2.01 0 0 1 .867.2l.087-.58a2.655 2.655 0 0 0-.493-.133 2.924 2.924 0 0 0-.494-.04c-.222 0-.425.03-.61.092-.184.063-.34.148-.47.258-.129.108-.228.24-.3.396a1.215 1.215 0 0 0-.106.513c0 .143.018.273.053.39a.91.91 0 0 0 .183.33c.087.103.202.202.344.297.142.096.322.192.54.29.178.08.323.155.44.224.115.068.208.138.277.21.069.07.116.147.143.229.026.083.039.173.039.27 0 .227-.086.408-.26.544s-.401.203-.687.203c-.142 0-.291-.019-.449-.056a2.485 2.485 0 0 1-.516-.197l-.074.62c.169.07.343.122.52.154.178.03.367.045.566.045.236 0 .452-.034.647-.103.196-.069.364-.164.503-.286.14-.123.249-.268.324-.436a1.36 1.36 0 0 0 .113-.562c0-.31-.09-.573-.27-.786-.18-.214-.472-.409-.877-.586"/>
</g></svg>
