<svg viewBox="0 0 32 32" xmlns="http://www.w3.org/2000/svg">
  <path d="M15.829 17.007h-3.335v-1.334h3.335zM6.936 6.447V5.113h.007c.037-2.084 1.748-3.78 3.84-3.78h1.198c2.093 0 3.803 1.696 3.84 3.78h2.231v1.334H15.83v1c0 2.446-2.001 4.447-4.447 4.447S6.936 9.893 6.936 7.447zm7.56 0H8.268v1c0 1.717 1.397 3.113 3.113 3.113s3.113-1.396 3.113-3.113zm-6.22-1.334h6.212a2.514 2.514 0 0 0-2.507-2.446h-1.197a2.514 2.514 0 0 0-2.508 2.446m22.39 9.554v11.207l-4.792 4.793H14.667v-2.655H1.333v-8.559c0-3.24 2.652-5.892 5.892-5.892h8.27c1.535 0 2.91.624 3.959 1.596l.546-.49zm-13.424 4.27h8.162L28.446 16H20.51zm-2.575 7.741V19.46l3.8-3.416c-.8-.702-1.827-1.149-2.972-1.149h-8.27a4.564 4.564 0 0 0-4.558 4.559v7.225h3.047v-7.56h1.333v7.56zm10.373 2.655v-9.062H16v9.062zm4.293-4.011v-8.325l-2.96 2.858v8.427zm-1.866-8.967h-3.2l-1.742 1.6h3.342z"/>
</svg>
