<svg xml:space="preserve" viewBox="0 0 32 32" xmlns="http://www.w3.org/2000/svg"><g id="icon">
  <path fill="currentColor" d="M27.388 4H4.612a1.95 1.95 0 0 0-1.945 1.945v14.777a1.95 1.95 0 0 0 1.945 1.945H12V28H6.667v1.333h18.666V28h-5.418v-5.333h7.473a1.95 1.95 0 0 0 1.945-1.945V5.945A1.95 1.95 0 0 0 27.388 4zm-8.806 24h-5.249v-5.333h5.249V28zM28 20.722a.62.62 0 0 1-.612.611H4.612A.62.62 0 0 1 4 20.722V5.945a.62.62 0 0 1 .612-.612h22.776a.62.62 0 0 1 .612.612v14.777zm-16.844-5.658h2.216V16h-3.328v-5.584h3.304v.928h-2.192v1.344h2.017v.904h-2.017v1.472zm6.4-1.716c.234.259.353.593.353 1.004 0 .266-.05.508-.149.724a1.55 1.55 0 0 1-.42.552 1.873 1.873 0 0 1-.664.348c-.261.08-.552.12-.872.12a4.5 4.5 0 0 1-1.48-.24l.104-.984c.24.118.47.2.688.248.219.048.427.072.624.072.298 0 .543-.06.732-.18a.575.575 0 0 0 .284-.516.784.784 0 0 0-.048-.284.64.64 0 0 0-.172-.236 1.518 1.518 0 0 0-.332-.216 5.707 5.707 0 0 0-.528-.224c-.496-.181-.856-.395-1.08-.64-.224-.245-.336-.565-.336-.96 0-.245.048-.468.144-.668.096-.2.232-.37.408-.512a1.86 1.86 0 0 1 .632-.324 2.79 2.79 0 0 1 .816-.112c.25 0 .483.015.696.044.213.03.432.081.656.156l-.087.912a3.274 3.274 0 0 0-.609-.188 2.827 2.827 0 0 0-.528-.052c-.299 0-.534.057-.708.172a.527.527 0 0 0-.26.46.67.67 0 0 0 .04.236.526.526 0 0 0 .152.208c.075.067.177.134.308.2s.3.137.508.212c.517.187.893.41 1.128.668zm4.384 0c.234.259.353.593.353 1.004 0 .266-.05.508-.148.724s-.239.4-.421.552a1.873 1.873 0 0 1-.664.348c-.26.08-.55.12-.871.12-.524 0-1.017-.08-1.48-.24l.104-.984a2.908 2.908 0 0 0 1.313.32c.297 0 .54-.06.73-.18a.576.576 0 0 0 .285-.516.77.77 0 0 0-.049-.284.644.644 0 0 0-.171-.236 1.55 1.55 0 0 0-.332-.216 5.807 5.807 0 0 0-.53-.224c-.494-.181-.855-.395-1.079-.64-.223-.245-.335-.565-.335-.96 0-.245.048-.468.144-.668.095-.2.232-.37.408-.512s.386-.25.631-.324c.246-.075.518-.112.817-.112.25 0 .483.015.695.044.213.03.432.081.656.156l-.087.912a3.254 3.254 0 0 0-.608-.188 2.839 2.839 0 0 0-.529-.052c-.298 0-.534.057-.707.172a.526.526 0 0 0-.26.46c0 .086.013.164.04.236a.53.53 0 0 0 .151.208c.076.067.177.134.309.2.13.067.3.137.507.212.517.187.894.41 1.128.668z"/>
</g></svg>
