<svg viewBox="0 0 32 32" xmlns="http://www.w3.org/2000/svg">
  <path d="m19.296 9.809.942-.943.943.943-.943.942zm0-1.886-.943-.943-.943.943.943.943zm3.77 5.658.944.942.943-.944-.944-.942zm-.942-2.829-.943.943.943.942.942-.942zm-10.43 10.429-.942.943.943.942.942-.942zm-3.77-3.77-.944.942.943.943.943-.943zm.942 2.827.943.943.942-.943-.942-.942zm3.77 3.771.943.944.944-.943-.942-.944zm18.03-12.898L11.112 30.667l-2.45-2.45a3.55 3.55 0 0 0 .495-1.787 3.585 3.585 0 0 0-3.586-3.586 3.55 3.55 0 0 0-1.787.495l-2.45-2.45L20.89 1.333l2.385 2.385a3.55 3.55 0 0 0-.755 2.178 3.585 3.585 0 0 0 3.585 3.585c.823 0 1.572-.288 2.178-.755zm-19.555 17.67 17.67-17.67-.714-.713a4.8 4.8 0 0 1-1.963.417 4.924 4.924 0 0 1-4.919-4.919c0-.682.142-1.346.417-1.964l-.713-.713-17.67 17.67.86.86q.726-.237 1.491-.238a4.924 4.924 0 0 1 4.919 4.919q0 .766-.239 1.49zm2.09-13.88 1.573 1.574-1.583 1.584-1.573-1.573-.804.803 3.95 3.948.802-.802-1.709-1.708 1.585-1.585 1.708 1.708.798-.798-3.949-3.948zm6.466-1.452 2.054.83-.877.877-1.56-.678a6 6 0 0 0-.37-.141.65.65 0 0 0-.286-.035.64.64 0 0 0-.274.108q-.135.09-.318.272l-.208.209 1.64 1.64-.796.798-3.949-3.949 1.142-1.142a6.5 6.5 0 0 1 .709-.618q.345-.253.671-.35a1.17 1.17 0 0 1 .646-.01c.21.056.422.188.627.395q.39.39.406.84.013.45-.296.92l.01.01q.129-.073.253-.104a.85.85 0 0 1 .492.023q.131.041.284.105m-1.651-.222q.09-.344-.211-.644a.7.7 0 0 0-.32-.198.6.6 0 0 0-.341.017 1.2 1.2 0 0 0-.365.207q-.189.149-.403.364l-.232.232 1.074 1.075.233-.232q.474-.475.565-.82"/>
</svg>
