<svg xml:space="preserve" viewBox="0 0 32 32" xmlns="http://www.w3.org/2000/svg"><g id="icon">
  <path fill="currentColor" d="M2.667 4v22.667l18.666 4v-4h8V4H2.667zM20 29.017 4 25.59v-9.273l16 3.429v9.272zm8-3.684h-6.667v-6.666L8.89 16H28v9.333zM4 14.667V5.333h24v9.334H4zm22.667-5.334a1.333 1.333 0 1 1-2.667 0 1.333 1.333 0 0 1 2.667 0zm-7.2 14.267c0 .669-.345 1.148-.794 1.148a.664.664 0 0 1-.14-.015c-.515-.11-.933-.797-.933-1.533 0-.669.344-1.148.794-1.148.045 0 .092.004.14.015.515.11.933.797.933 1.533z"/>
</g></svg>
