<svg xml:space="preserve" viewBox="0 0 32 32" xmlns="http://www.w3.org/2000/svg"><g id="icon">
  <path d="M7.01 24.137c.127-.282.19-.559.19-.832 0-.218-.039-.405-.115-.564a1.162 1.162 0 0 0-.774-.626 2.243 2.243 0 0 0-.585-.073c-.526 0-1.084.168-1.674.505l-.116-.927c.288-.14.595-.248.921-.32.327-.075.68-.111 1.058-.111.351 0 .673.045.964.137.292.09.542.223.753.4.21.175.374.389.49.641.116.253.173.542.173.863 0 .232-.035.464-.105.696-.07.232-.183.475-.337.732-.154.256-.354.53-.6.821-.246.292-.548.616-.905.974-.302.302-.59.563-.864.784-.274.221-.526.413-.758.574v.021c.161-.006.338-.012.532-.016l.584-.01c.197-.004.388-.005.574-.005h2.037v.863H3.757v-1.053a44.247 44.247 0 0 0 1.58-1.42 13 13 0 0 0 1.068-1.129c.277-.335.48-.644.605-.925m6.982-2.822v4.875h.979v.863h-.98v1.611h-.989v-1.61H9.527v-.864l3.022-4.875h1.443m-.948.652h-.021a14.73 14.73 0 0 1-.363.717c-.159.294-.318.571-.48.832l-1.61 2.674h2.432v-2.064a55.73 55.73 0 0 1 .042-2.159m9.044 1.636-4.854 4.854v-9.124H15.9v10.111H2.643V16.157H12v-1.333H3.661L8.485 10H12V8.667H7.933l-6.157 6.157H1.73v.045l-.42.42v15.489h15.488l6.623-6.623v-4.822h-1.333v4.27m8.365-21.275v16.018h-4.712v-5.295c0-.548.004-1.132.009-1.752l.004-.35c-.138.504-.262.934-.371 1.289l-1.82 6.108h-4.092l-1.84-6.156a173.15 173.15 0 0 1-.37-1.302l.005.41c.005.62.009 1.205.009 1.753v5.295h-4.489V2.328h6.818l1.344 5.083c.238.888.473 1.811.704 2.77l.05.209c.02-.072.038-.145.056-.217.245-.96.49-1.885.742-2.773l1.383-5.072h6.57M29.12 3.661H24.9l-1.116 4.096c-.25.884-.493 1.797-.736 2.745-.24.95-.473 1.887-.696 2.811l-.124.51h-1.056l-.156-.518c-.212-.923-.431-1.86-.662-2.81-.229-.95-.46-1.863-.696-2.741v-.002l-1.08-4.09h-4.46v13.351h1.822v-3.962c0-.544-.003-1.125-.009-1.74l-.037-3.775c-.007-.621-.016-1.212-.028-1.77l-.015-.681h1.208l.16.512c.085.36.214.854.385 1.482l.523 1.929c.174.642.337 1.229.484 1.76.148.528.247.877.297 1.043l1.555 5.202h2.105l1.538-5.161c.112-.365.238-.803.379-1.321l.46-1.667c.16-.577.313-1.152.463-1.724a90.18 90.18 0 0 0 .388-1.546l.124-.51h1.207l.022.683a138.38 138.38 0 0 0-.029 1.769l-.038 3.776c-.005.614-.009 1.195-.009 1.74v3.961h2.046V3.661z"/>
</g></svg>
