<svg viewBox="0 0 32 32" xmlns="http://www.w3.org/2000/svg">
  <path d="M27.022 8.126h.004l-.73.729h-1.032l.001-.002h-.001l.73-.73h1.032zm3.012-1.46v7.085L26.9 16.884h-.209V20h-9.33l-.028-6.649h2.482V9.795l3.134-3.128zM18.695 17.324l1.234-.924-1.234-1.213zm6.146 1.344-1.748-1.311-.353.346c-.197.219-.47.328-.742.328s-.545-.11-.742-.328l-.365-.358-1.765 1.323zm-2.843-2.105 1.912-1.878h-3.823zm3.36-1.432-1.303 1.281 1.303.976zm.724-4.526h-4.933v2.747h4.933zM27.694 8H23.5l-1.273 1.27h4.243zm1.006.879-1.285 1.333v4.271l1.285-1.285zM15.998 21.303h10.795v1.334h-11.43c-2.089 0-4.14 1.93-4.14 3.897l.01 1.104H7.275v-.667c0-1.8-1.464-3.263-3.263-3.263H2.036V11.024h3.626c1.773 0 4.173 1.156 5.104 4.414l1.335 4.548v2.442c.186-.139.386-.258.588-.375V8.635h3.31zm-5.23 1.533H9.41l-1.746-1.747H3.37v1.286h.643a4.6 4.6 0 0 1 4.548 3.93h1.336c.049-.888.366-1.743.872-2.487zm0-2.753-1.282-4.271c-.94-3.289-3.35-3.455-3.824-3.455H3.37v7.398h4.848l1.747 1.748h.804zm3.897-10.115h-.643v11.304h.643zm3.318 16.566a3.056 3.056 0 1 1-6.112 0 3.056 3.056 0 0 1 6.112 0m-1.334 0c0-.95-.773-1.722-1.722-1.722s-1.723.772-1.723 1.722.773 1.723 1.723 1.723 1.722-.773 1.722-1.723m-10.017.437a2.62 2.62 0 1 1-5.24 0 2.62 2.62 0 0 1 5.24 0m-1.334 0a1.287 1.287 0 0 0-2.572 0c0 .709.577 1.286 1.286 1.286s1.286-.577 1.286-1.286"/>
</svg>
