<svg viewBox="0 0 32 32" xmlns="http://www.w3.org/2000/svg">
  <path d="M29.333 16.333c0-2.059-.483-3.994-1.301-5.742A2.32 2.32 0 0 0 28.667 9a2.333 2.333 0 0 0-3.214-2.159 13.7 13.7 0 0 0-2.958-2.305 2.3 2.3 0 0 0 .172-.87 2.326 2.326 0 0 0-4.531-.753 13.6 13.6 0 0 0-2.47-.246c-1.903 0-3.7.418-5.346 1.124a2.33 2.33 0 0 0-1.987-1.124 2.333 2.333 0 0 0-1.927 3.646C3.706 8.81 2 12.366 2 16.333c0 4.182 1.905 7.892 4.867 10.395A2.333 2.333 0 0 0 9 30c.756 0 1.422-.366 1.848-.924 1.501.577 3.114.924 4.819.924 2.24 0 4.334-.575 6.197-1.535a2.32 2.32 0 0 0 1.803.868 2.333 2.333 0 0 0 1.923-3.652c2.309-2.444 3.743-5.72 3.743-9.348m-4.785 8.509a2 2 0 0 0-.322-.1c.112-2.422-.118-4.57-.614-6.46.056-.036.105-.08.157-.122 1.957.878 3.143 1.78 3.564 2.14a12.3 12.3 0 0 1-2.785 4.542m-15.01.56c-.063-2.793.226-5.25.761-7.405l.034.003a2.33 2.33 0 0 0 2.249-1.743c2.95-.122 5.446.172 7.505.675.072.27.187.523.344.746-3.837 4.818-7.368 7.346-9.58 8.582a2.32 2.32 0 0 0-1.313-.858m4.795-16.735a1.001 1.001 0 0 1 0-2 1.001 1.001 0 0 1 0 2m0 1.333c.63 0 1.198-.252 1.618-.656 1.755 1.268 3.478 2.993 4.78 5.3a2.3 2.3 0 0 0-.576.872c-2.119-.49-4.655-.768-7.633-.632a2.33 2.33 0 0 0-.769-1.057 21 21 0 0 1 2.314-3.854c.089.01.175.027.266.027m-4 4.667a1.001 1.001 0 0 1 0 2 1.001 1.001 0 0 1 0-2m11 1.666a1.001 1.001 0 0 1 2 0 1.001 1.001 0 0 1-2 0m6.396 2.56c-.63-.49-1.717-1.188-3.177-1.872.068-.219.115-.447.115-.688 0-.559-.205-1.065-.533-1.467A61 61 0 0 0 26.3 11.33l.034.003c.188 0 .368-.028.543-.07A12.2 12.2 0 0 1 28 16.333c0 .878-.096 1.733-.27 2.56M27.333 9a1.001 1.001 0 0 1-2 0 1.001 1.001 0 0 1 2 0m-2.935-1.304a2.327 2.327 0 0 0 .595 3.21 59 59 0 0 1-1.98 3.207 2.3 2.3 0 0 0-.68-.113q-.236.001-.458.046c-1.442-2.525-3.355-4.418-5.289-5.802.048-.186.08-.377.08-.577q-.001-.252-.052-.489a20 20 0 0 1 2.212-1.744 2.31 2.31 0 0 0 2.798.175 12.3 12.3 0 0 1 2.774 2.087m-4.065-5.03a1.001 1.001 0 0 1 0 2 1.001 1.001 0 0 1 0-2m-2.251 1.581q.014.052.031.102A22 22 0 0 0 16 6.038a2.326 2.326 0 0 0-3.318-.02 23 23 0 0 0-2.036-.81c.003-.04.01-.08.012-.121A12.2 12.2 0 0 1 15.667 4c.827 0 1.633.09 2.415.247M8.333 4a1.001 1.001 0 0 1 0 2 1.001 1.001 0 0 1 0-2m-5 12.333c0-3.651 1.62-6.907 4.152-9.164.264.103.548.164.848.164a2.32 2.32 0 0 0 1.834-.905 22 22 0 0 1 1.896.718 2.4 2.4 0 0 0-.063.52c0 .734.345 1.38.874 1.808a23 23 0 0 0-2.302 3.883c-.08-.008-.157-.024-.239-.024-1.19 0-2.161.895-2.304 2.047a44 44 0 0 0-4.69 1.065c0-.038-.006-.074-.006-.112m.098 1.483a41 41 0 0 1 4.831-1.096c.183.358.447.667.78.889-.597 2.3-.936 4.908-.869 7.882a2.3 2.3 0 0 0-.455.229c-2.313-1.961-3.905-4.741-4.287-7.904M9 28.666a1.001 1.001 0 0 1 0-2 1.001 1.001 0 0 1 0 2m6.667 0a12.2 12.2 0 0 1-4.353-.81c.005-.064.02-.125.02-.19 0-.038-.01-.075-.012-.114 2.35-1.262 6.108-3.897 10.18-9.045.257.099.534.158.825.16.453 1.793.65 3.84.527 6.153a2.33 2.33 0 0 0-1.52 2.18c0 .08.015.155.023.233-1.707.898-3.631 1.434-5.69 1.434m8-.666a1.001 1.001 0 0 1 0-2 1.001 1.001 0 0 1 0 2"/>
</svg>
