<svg viewBox="0 0 32 32" xmlns="http://www.w3.org/2000/svg">
  <path d="M25.888 4.667h-6.5c-1.133 0-2.055.847-2.055 1.889v15.556c0 1.041.922 1.888 2.055 1.888h6.5c1.133 0 2.055-.847 2.055-1.888V6.556c0-1.042-.922-1.89-2.055-1.89M19.388 6h6.5c.391 0 .721.254.721.556v12.073h-7.942V6.556c0-.302.33-.556.721-.556m6.5 16.667h-6.5c-.39 0-.721-.255-.721-.555v-2.15h7.942v2.15c0 .3-.33.555-.72.555m-3.884-1.994h1.333v1.334h-1.333zM12.608 4.667H4.059c-.766 0-1.392.626-1.392 1.392v3.287c0 .765.626 1.392 1.392 1.392h.642a3.65 3.65 0 0 0 2.632 3.106v-1.411a2.33 2.33 0 0 1-1.274-1.695h4.548a2.33 2.33 0 0 1-1.274 1.695v1.411a3.65 3.65 0 0 0 2.633-3.106h.642c.765 0 1.392-.627 1.392-1.392V6.059c0-.766-.627-1.392-1.392-1.392m.059 4.679c0 .029-.03.059-.06.059H4.06c-.03 0-.059-.03-.059-.06V6.06C4 6.03 4.03 6 4.06 6h8.548c.029 0 .059.03.059.06zM12 7.738a1 1 0 1 1-2 0 1 1 0 0 1 2 0M5.282 6.662h2.667v1.333H5.282zm7.326 10.005H4.059c-.766 0-1.392.626-1.392 1.392v3.287c0 .765.626 1.392 1.392 1.392h.646a3.65 3.65 0 0 0 2.628 3.106v-1.411a2.32 2.32 0 0 1-1.27-1.695h4.54a2.32 2.32 0 0 1-1.27 1.695v1.411a3.65 3.65 0 0 0 2.629-3.106h.646c.765 0 1.392-.627 1.392-1.392v-3.287c0-.766-.627-1.392-1.392-1.392m.059 4.679c0 .029-.03.059-.06.059H4.06c-.03 0-.059-.03-.059-.06V18.06c0-.03.03-.059.06-.059h8.548c.029 0 .059.03.059.06zM12 19.738a1 1 0 1 1-2 0 1 1 0 0 1 2 0m-6.718-1.077h2.667v1.334H5.282z"/>
</svg>
