<svg viewBox="0 0 32 32" xmlns="http://www.w3.org/2000/svg">
  <path d="M24.667 26.341v5.662h-1.334v-5.662c0-2.071-1.4-3.755-3.123-3.755h-8.42c-1.722 0-3.123 1.684-3.123 3.755v5.662H7.333v-5.662c0-2.805 2-5.088 4.457-5.088h8.42c2.457 0 4.457 2.283 4.457 5.088m-13.569 5.662h1.334V26.86h-1.334zm8.471 0h1.333V26.86H19.57zM12 15.921a4 4 0 1 1 7.999.001 4 4 0 0 1-7.999 0m1.333 0c0 1.47 1.197 2.666 2.667 2.666s2.667-1.196 2.667-2.666S17.47 13.255 16 13.255s-2.667 1.196-2.667 2.666m17.334 1.163h-6.29l2.56-2.496h-1.91l-3.233 3.15 3.216 3.4h1.835l-2.573-2.72h6.395zM6.972 14.588h-1.91l2.561 2.496h-6.29v1.333h6.395l-2.573 2.72H6.99l3.215-3.4zm12.426-7.596V5.158l-2.72 2.572V1.336h-1.334v6.289l-2.497-2.56v1.909L16 10.206z"/>
</svg>
