<svg xml:space="preserve" viewBox="0 0 32 32" xmlns="http://www.w3.org/2000/svg"><g id="icon">
  <path fill="currentColor" d="m29.658 8.75-.649 1.166L16 2.688 2.99 9.916l-.647-1.165L16 1.163l13.658 7.588zM8 8h16V30.667h-4.571V28H12.57v2.667H8V8zm1.333 5.333h1.905V12H9.333v1.333zm3.238 0h6.858V12H12.57v1.333zm-3.238 5.334h1.905v-1.334H9.333v1.334zm3.238 0h6.858v-1.334H12.57v1.334zM9.333 24h1.905v-1.333H9.333V24zm3.238 0h6.858v-1.333H12.57V24zm-1.333 4H9.333v1.333h1.905V28zm11.429 0h-1.905v1.333h1.905V28zm0-2.667H9.333v1.334h13.334v-1.334zm0-2.666h-1.905V24h1.905v-1.333zm0-2.667H9.333v1.333h13.334V20zm0-2.667h-1.905v1.334h1.905v-1.334zm0-2.666H9.333V16h13.334v-1.333zm0-2.667h-1.905v1.333h1.905V12zM9.333 10.667h13.334V9.333H9.333v1.334z"/>
</g></svg>
