<svg viewBox="0 0 32 32" xmlns="http://www.w3.org/2000/svg">
  <path d="M17.143 16.814a4.16 4.16 0 0 0 4.148 4.148 4.16 4.16 0 0 0 4.149-4.148V14.59h-.011c-.06-1.924-1.642-3.482-3.58-3.482h-1.116c-1.938 0-3.52 1.558-3.58 3.482h-2.085v1.333h2.075zm6.963 0c0 1.552-1.262 2.815-2.815 2.815s-2.815-1.263-2.815-2.815v-.89h5.63zm-3.373-4.371h1.117c1.207 0 2.187.955 2.245 2.148h-5.608a2.254 2.254 0 0 1 2.246-2.148m-7.4-10.22h-2.666v-.89H4v.89H1.333v16.444h12zM9.333 4h-4V2.667h4zM12 17.333H2.667V3.556H4v1.777h6.667V3.556H12zm-1.219-8.78H4V7.218h6.781zm0 2.78H4.115V10h6.666zM8.115 14h-4v-1.333h4zm16.66 8.518h-6.872c-3.24 0-5.892 2.651-5.892 5.892V32h1.333v-3.59c0-2.097 1.43-3.849 3.36-4.379V32h1.334v-3.333h6.629V32H26v-7.96c1.916.539 3.333 2.283 3.333 4.37V32h1.334v-3.59c0-3.241-2.652-5.892-5.892-5.892m-6.737 4.815v-3.482h6.629v3.482z"/>
</svg>
