<svg xml:space="preserve" viewBox="0 0 32 32" xmlns="http://www.w3.org/2000/svg"><g id="icon">
  <path fill="currentColor" d="m28.052 23.407 2.61.003.005-4.036-2.612-.003a1.222 1.222 0 0 1-.477-.55 1.247 1.247 0 0 1-.05-.727l1.847-1.841-2.85-2.854-1.848 1.843a1.492 1.492 0 0 1-.298.032c-.153 0-.296-.028-.43-.082a1.217 1.217 0 0 1-.546-.477l.002-2.612h-4.036l-.001 2.611a1.211 1.211 0 0 1-.547.474 1.118 1.118 0 0 1-.43.083c-.095 0-.194-.01-.296-.032l-1.845-1.846-2.854 2.853 1.843 1.844c.056.268.039.512-.048.725-.09.215-.25.4-.48.549h-2.61V23.4h2.61c.228.15.387.332.475.543.09.219.106.465.05.733l-1.846 1.841 2.85 2.855 1.847-1.844c.105-.022.206-.033.303-.033.15 0 .29.026.419.08.217.09.402.253.552.482l-.002 2.61h4.037l.001-2.609c.15-.228.333-.388.546-.477.133-.054.278-.082.432-.082.094 0 .192.01.294.032l1.843 1.85 2.858-2.853-1.845-1.85a1.232 1.232 0 0 1 .048-.719 1.24 1.24 0 0 1 .479-.552zm-1.833 1.538.08.39.282.284.904.907-.97.969-.902-.905-.28-.281-.388-.083a2.76 2.76 0 0 0-.57-.06c-.326 0-.64.06-.94.183-.46.19-.859.529-1.154.98l-.217.332v1.672h-1.37V27.66l-.217-.333a2.542 2.542 0 0 0-1.155-.983 2.408 2.408 0 0 0-.932-.183c-.188 0-.382.021-.576.062l-.388.081-.28.28-.905.902-.965-.967.902-.899.283-.282.081-.392a2.585 2.585 0 0 0-.124-1.513 2.555 2.555 0 0 0-.975-1.148l-.333-.219H13.434v-1.369h1.675l.333-.218c.45-.294.788-.692.984-1.16.186-.456.227-.974.12-1.497l-.081-.391-.282-.283-.901-.902.967-.967.903.903.281.281.39.081c.191.04.382.06.568.06.328 0 .643-.061.938-.183.46-.19.858-.526 1.153-.974l.219-.333v-.399l.001-1.278h1.369v1.278l-.001.399.219.333c.295.45.692.787 1.156.98.294.12.608.18.934.18.184 0 .374-.02.565-.058l.392-.08.283-.283.904-.902.966.967-.902.9-.284.283-.08.393c-.109.53-.066 1.05.123 1.503.19.46.527.86.976 1.154l.333.22h.398l1.279.002-.001 1.369-1.277-.002h-.401l-.335.22a2.563 2.563 0 0 0-.981 1.166 2.574 2.574 0 0 0-.118 1.486zm-4.836-7.192a3.636 3.636 0 0 0-3.632 3.632 3.636 3.636 0 0 0 3.632 3.632 3.636 3.636 0 0 0 3.633-3.632 3.636 3.636 0 0 0-3.633-3.632zm0 5.93a2.301 2.301 0 0 1-2.299-2.298c0-1.268 1.031-2.299 2.3-2.299 1.267 0 2.298 1.031 2.298 2.3a2.302 2.302 0 0 1-2.299 2.298zM9.493 6.187a3.041 3.041 0 0 0-3.841 1.92 3.04 3.04 0 0 0 2.878 3.997 3.041 3.041 0 0 0 2.882-2.076 3.04 3.04 0 0 0-1.919-3.84zm.654 3.42a1.702 1.702 0 1 1-3.23-1.077 1.702 1.702 0 0 1 3.23 1.076zm2.464 3.378a.59.59 0 0 1 .122-.264.62.62 0 0 1 .253-.168l2.143.718 1.204-3.598-2.144-.719a.601.601 0 0 1-.1-.28.61.61 0 0 1 .06-.294l2.022-1.007-1.694-3.394-2.023 1.008a.623.623 0 0 1-.27-.128.59.59 0 0 1-.164-.247l.717-2.145-3.6-1.2-.716 2.142a.595.595 0 0 1-.31.1.67.67 0 0 1-.262-.06L6.84 1.427 3.446 3.123 4.454 5.14a.594.594 0 0 1-.125.269.61.61 0 0 1-.251.165L1.934 4.86l-1.2 3.6 2.143.715c.06.093.093.185.1.275a.609.609 0 0 1-.062.298l-2.02 1.007 1.692 3.394 2.024-1.008a.582.582 0 0 1 .266.124.615.615 0 0 1 .166.253l-.717 2.144 3.6 1.201.716-2.143a.593.593 0 0 1 .313-.102c.084 0 .172.023.258.061l1.009 2.026 3.396-1.694-1.007-2.027zm-1.194.593.415.835-1.011.504-.414-.831-.213-.428-.437-.195a1.96 1.96 0 0 0-.802-.177l-.082.001-.048.004a1.91 1.91 0 0 0-.906.31l-.393.254-.148.444-.294.879-1.07-.357.294-.879.149-.445-.163-.44a1.947 1.947 0 0 0-.548-.802 1.92 1.92 0 0 0-.872-.42l-.448-.09-.41.203-.83.414-.503-1.008.827-.412.42-.21.196-.425c.141-.306.202-.624.18-.95a1.902 1.902 0 0 0-.31-.905l-.254-.393L3.3 7.91l-.879-.293.357-1.07.88.293.446.15.442-.166c.314-.117.58-.298.79-.54.21-.24.351-.53.423-.863l.098-.457-.21-.418-.412-.826 1.01-.505.412.828.219.437.449.193c.261.112.526.169.788.169l.08-.001.048-.004c.317-.023.62-.126.901-.307l.395-.253.15-.446.293-.879 1.07.357-.293.879-.15.447.165.441c.118.317.3.584.545.794.237.204.522.344.846.417l.463.104.424-.212.83-.413.503 1.007-.827.412-.424.211-.196.432c-.14.309-.2.626-.177.94.023.317.127.622.308.905l.254.395.445.15.88.294-.357 1.07-.879-.294-.45-.151-.445.168a1.954 1.954 0 0 0-.795.549c-.205.24-.344.527-.413.853l-.096.454.207.416z"/>
</g></svg>
