<svg viewBox="0 0 32 32" xmlns="http://www.w3.org/2000/svg">
  <path d="M16.203 22.667v4H24v-4zm6.464 2.666h-5.13V24h5.13zM6.114 14.586c1.217 1.709 1.86 3.559 1.86 5.35v1.073h5.904v-.83c0-1.47.293-3.593 1.69-5.365a5.83 5.83 0 0 0 1.26-3.643 5.9 5.9 0 0 0-5.912-5.902c-.416 0-.838.044-1.257.132-2.282.477-4.102 2.342-4.53 4.64-.301 1.617.049 3.23.985 4.545m.326-4.3c.33-1.774 1.734-3.213 3.493-3.58.325-.068.657-.103.985-.103 1.052 0 2.078.362 2.888 1.02a4.56 4.56 0 0 1 1.69 3.548 4.5 4.5 0 0 1-.975 2.818c-1.477 1.872-1.9 4.045-1.966 5.687h-3.25c-.06-1.988-.784-4.01-2.105-5.864a4.58 4.58 0 0 1-.76-3.526m6.218-1.31a2.8 2.8 0 0 0-1.74-.627l.017-1.333c.933.011 1.843.34 2.564.925a4.13 4.13 0 0 1 1.533 3.22h-1.333a2.8 2.8 0 0 0-1.04-2.184m1.22 14.175H7.975v-1.333h5.903zM8.96 25.119v-1.333h3.935v1.333zm2.634-20.833H10.26V1.333h1.333zM4.04 11.838H1.089v-1.333h2.95zM30 9.68l-3.947-3.947H18v3.772h1.333V7.066h5.334v4h4v9.6h-1.932v-3.333h-7.402v-4.495H18v4.495h-2.316c-.164.45-.275.9-.348 1.334h10.065V28H8v-4H6.667v5.333h20.068V22H30zm-4-2.115 2.168 2.168H26zm-5.236 4.273h-2.951v-1.333h2.951zM5.576 6.77 3.502 4.686l.945-.94L6.521 5.83zm.014 8.799.94.945-2.085 2.074-.94-.946zM16.281 6.77l-.945-.94 2.074-2.086.945.94z"/>
</svg>
