<svg viewBox="0 0 32 32" xmlns="http://www.w3.org/2000/svg">
  <path d="M9.167 18.437a2.736 2.736 0 0 0-2.734 2.733 2.736 2.736 0 0 0 2.734 2.733 2.736 2.736 0 0 0 2.732-2.733 2.736 2.736 0 0 0-2.732-2.733m0 4.132a1.4 1.4 0 1 1 1.399-1.399 1.4 1.4 0 0 1-1.4 1.4m4.597.784a.53.53 0 0 1 .03-.26.56.56 0 0 1 .168-.215l2.035.003.003-3.416-2.036-.003a.54.54 0 0 1-.166-.211.55.55 0 0 1-.031-.268l1.44-1.436-2.414-2.416-1.44 1.438-.07.003a.5.5 0 0 1-.198-.036.53.53 0 0 1-.21-.164l.002-2.036H7.461L7.46 16.37a.54.54 0 0 1-.21.164.5.5 0 0 1-.2.035l-.067-.003-1.438-1.438-2.415 2.415 1.436 1.437q.016.151-.03.265a.55.55 0 0 1-.168.212H2.334v3.416h2.034a.5.5 0 0 1 .163.207q.05.12.033.271l-1.438 1.436 2.411 2.416 1.441-1.437a.5.5 0 0 1 .263.03q.119.05.214.17L7.454 28h3.416v-2.034a.53.53 0 0 1 .21-.165.5.5 0 0 1 .267-.033l1.438 1.443 2.417-2.414zm-1.272.612.328.329.498.5-.531.53-.496-.497-.338-.339-.476-.047a1.83 1.83 0 0 0-.909.128 1.85 1.85 0 0 0-.738.564l-.293.365v1.168h-.749v-.7l.001-.47-.294-.366a1.9 1.9 0 0 0-.75-.568 1.8 1.8 0 0 0-.93-.12l-.454.057-.324.323-.497.496-.528-.53.494-.493.332-.331.051-.466a1.9 1.9 0 0 0-.126-.929 1.84 1.84 0 0 0-.562-.737l-.365-.292H3.668v-.75H4.84l.367-.296a1.9 1.9 0 0 0 .56-.738q.178-.43.124-.923l-.052-.465-.33-.33-.493-.494.53-.53.494.495.345.345.487.041q.091.008.179.008.37 0 .713-.138.428-.18.734-.558l.295-.366V15.67h.75v.7l-.001.472.295.366q.31.385.745.563a1.85 1.85 0 0 0 .905.124l.472-.048.336-.335.497-.495.528.528-.495.494-.335.334-.05.471c-.034.327.01.636.127.918q.179.429.56.738l.366.295h.47l.702.001v.75l-.701-.001-.475-.001-.369.3c-.25.203-.437.45-.562.749a1.9 1.9 0 0 0-.118.91zM30 14.075v4.34h-1.333v-4.34c0-1.787-1.203-3.24-2.683-3.24h-7.437V9.5h7.437C28.2 9.501 30 11.553 30 14.075m-3.326 4.34h-1.333v-3.882h1.333zM22.266 8.4a3.534 3.534 0 1 0 0-7.068 3.534 3.534 0 0 0 0 7.068m0-5.734c1.213 0 2.2.987 2.2 2.2s-.987 2.2-2.2 2.2-2.2-.987-2.2-2.2.986-2.2 2.2-2.2M28.034 20c.42.96.633 1.983.633 3.04 0 4.19-3.41 7.6-7.6 7.6a7.53 7.53 0 0 1-4.878-1.771v1.797h-1.334v-4.133h4.133v1.333h-1.92a6.2 6.2 0 0 0 4 1.44 6.273 6.273 0 0 0 5.744-8.772zM3.489 12.533a7.5 7.5 0 0 1-.634-3.04c0-4.19 3.41-7.6 7.6-7.6a7.53 7.53 0 0 1 4.878 1.775v-1.8h1.334V6h-4.133V4.667h1.869c-1.116-.916-2.483-1.44-3.949-1.44A6.272 6.272 0 0 0 4.71 12z"/>
</svg>
