<svg viewBox="0 0 32 32" xmlns="http://www.w3.org/2000/svg">
  <path d="M24.02 1.33H7.98c-.725 0-1.313.588-1.313 1.313v22.71c0 .726.588 1.314 1.313 1.314h5.353v2.68H9.354v1.334h13.347v-1.333h-4.034v-2.681h5.353c.725 0 1.313-.588 1.313-1.314V2.643c0-.725-.588-1.313-1.313-1.313M24 2.663l.002 2.004H7.982L7.98 2.663zM7.983 6h16.02l.014 16H22v-5.302a3.2 3.2 0 0 0-3.195-3.195h-5.616a3.2 3.2 0 0 0-3.196 3.195V22H7.997zm12.684 16h-1.179v-4.612h-1.333V22h-4.317v-4.612h-1.333V22h-1.178v-5.302c0-1.027.835-1.862 1.862-1.862h5.616c1.027 0 1.862.835 1.862 1.862zm-3.334 7.334h-2.666v-2.667h2.666zM8 25.354l-.002-2.02h16.02l.002 2zm7.997-12.672a2.667 2.667 0 1 0 0-5.333 2.667 2.667 0 0 0 0 5.333m0-4a1.335 1.335 0 0 1 0 2.667 1.335 1.335 0 0 1-1.334-1.334c0-.735.598-1.333 1.334-1.333"/>
</svg>
