<svg viewBox="0 0 32 32" xmlns="http://www.w3.org/2000/svg">
  <path d="M29.426 18.75a5.8 5.8 0 0 1-3.772-5.405 5.8 5.8 0 0 1 3.751-5.418l1.12-.418-1.12-.414a6.6 6.6 0 0 0-2.31-.41h-.007a6.6 6.6 0 0 0-3.645 1.097 5 5 0 0 0-.242-.778l2.316-1.337-.667-1.155-2.298 1.327a5 5 0 0 0-.887-.878l1.33-2.303-1.154-.666L20.52 4.28a5 5 0 0 0-1.213-.317v-2.65h-1.333v2.655c-.423.058-.833.15-1.215.308L15.44 1.992l-1.154.667 1.327 2.298a5 5 0 0 0-.884.884L12.43 4.515l-.666 1.155 2.284 1.319a5 5 0 0 0-.307 1.215h-2.656v1.333h2.656c.058.423.15.833.308 1.215l-2.284 1.318.667 1.155 2.298-1.327q.386.498.884.883l-1.327 2.3 1.155.666 1.319-2.285c.382.157.792.25 1.214.307v2.655h1.334v-2.64c.4-.059.782-.168 1.146-.315a6.6 6.6 0 0 0 1.947 4.59A6.6 6.6 0 0 0 27.1 20h.014a6.7 6.7 0 0 0 2.314-.418l1.124-.417zM15.007 8.869a3.64 3.64 0 0 1 3.634-3.634 3.633 3.633 0 0 1 3.626 3.552 6.6 6.6 0 0 0-1.659 3.128 3.6 3.6 0 0 1-1.967.588 3.64 3.64 0 0 1-3.634-3.634m8.337 8.246a5.3 5.3 0 0 1-1.567-3.763 5.3 5.3 0 0 1 1.552-3.768 5.28 5.28 0 0 1 3.372-1.552 7.14 7.14 0 0 0-2.38 5.315 7.14 7.14 0 0 0 2.4 5.306 5.3 5.3 0 0 1-3.377-1.538m-8.368.16L5.265 15.82v10.196H4.12V15.333H0v1.334h2.787v8.986H0v1.696h4.854v1.217H0V29.9h7.93c.477 1.139 1.603 1.942 2.914 1.942s2.437-.803 2.915-1.942h2.703c.788 0 1.427-.64 1.427-1.428V24.56l-.971-3.885c-.486-2.427-.971-2.913-1.942-3.399M12.424 18.3l2.147.269c.406.23.673.576 1.034 2.341l.224 1.344h-3.405zm-1.58 12.208c-1.007 0-1.827-.819-1.827-1.826s.82-1.827 1.827-1.827 1.827.82 1.827 1.827-.82 1.826-1.827 1.826m5.711-2.036a.094.094 0 0 1-.093.094h-2.47c-.061-1.688-1.445-3.045-3.148-3.045s-3.086 1.357-3.148 3.045H6.598V17.367l3.324.499 1.17.175v5.547h5.18l.283 1.135z"/>
</svg>
