<svg xml:space="preserve" viewBox="0 0 32 32" xmlns="http://www.w3.org/2000/svg"><g id="icon">
  <path d="m31.389 15.57-.056-.057-8.035-8.222a2.133 2.133 0 0 0-.584-.414l-.032-.018a2.136 2.136 0 0 0-.918-.214h-4.777c.124.432.215.877.272 1.333h4.074V16h8.612l.49.502c.15.152.232.354.232.567v4.67a.813.813 0 0 1-.813.813h-1.956A3.328 3.328 0 0 0 24.667 20a3.328 3.328 0 0 0-3.232 2.552h-10.87C10.212 21.09 8.904 20 7.333 20s-2.878 1.09-3.231 2.552H1.333v-8.327A8.796 8.796 0 0 1 0 11.474v12.41h4.056c.264 1.578 1.625 2.783 3.277 2.783s3.014-1.205 3.278-2.782H21.39a3.327 3.327 0 0 0 3.278 2.782 3.327 3.327 0 0 0 3.277-2.782h1.91c1.185 0 2.146-.96 2.146-2.146v-4.67c0-.56-.22-1.098-.611-1.5M7.333 25.333c-1.102 0-2-.897-2-2s.898-2 2-2 2 .898 2 2-.897 2-2 2m17.334 0c-1.103 0-2-.897-2-2s.897-2 2-2 2 .898 2 2-.898 2-2 2m-2-10.666V8.552l5.975 6.115h-5.975M7.829 16.54v.034h1.334v-.034a7.501 7.501 0 0 0-.667-14.974A7.502 7.502 0 0 0 7.83 16.54zm6.77-8.137h-1.834a12.26 12.26 0 0 0-.315-2.24h1.456c.368.683.605 1.435.693 2.24M7.83 13.31v1.717c-.512-.289-1.006-.883-1.406-1.717H7.83m-1.892-1.333a10.63 10.63 0 0 1-.359-2.24h2.251v2.24H5.937zm3.226 3.05V13.31h1.406c-.4.834-.894 1.429-1.406 1.718m0-3.05v-2.24h2.251a10.63 10.63 0 0 1-.359 2.24H9.163zm3.602-2.24h1.834a6.086 6.086 0 0 1-.694 2.24H12.45a12.26 12.26 0 0 0 .315-2.24m-1.35-1.334H9.162v-2.24h1.892c.189.675.313 1.427.36 2.24M9.162 4.83V3.112c.512.29 1.006.884 1.406 1.718H9.163zM7.829 3.112V4.83H6.423c.4-.834.894-1.429 1.406-1.718m0 3.051v2.24H5.578c.047-.813.17-1.565.359-2.24h1.892zm-3.602 2.24H2.393a6.086 6.086 0 0 1 .694-2.24h1.455a12.26 12.26 0 0 0-.315 2.24m0 1.333c.04.788.147 1.542.315 2.24H3.087a6.086 6.086 0 0 1-.694-2.24h1.834m-.192 3.574h.925c.158.404.339.778.538 1.12a6.177 6.177 0 0 1-1.463-1.12m7.46 1.12c.199-.342.38-.717.538-1.12h.924a6.18 6.18 0 0 1-1.462 1.12m1.463-9.6h-.925a8.052 8.052 0 0 0-.538-1.12 6.176 6.176 0 0 1 1.463 1.12m-7.46-1.12c-.2.342-.38.716-.539 1.12h-.924a6.174 6.174 0 0 1 1.463-1.12"/>
</g></svg>
