<svg viewBox="0 0 32 32" xmlns="http://www.w3.org/2000/svg">
  <path d="M28.715 16.912h-5.431a1.96 1.96 0 0 0-1.959 1.959v8.378h-5.451c-.41 0-.757-.51-.757-1.112V18.81h.47V20h1.334v-5.811c0-2.541-1.815-4.608-4.046-4.608H5.371c-2.23 0-4.046 2.067-4.046 4.608V20H2.66v-5.811c0-1.806 1.216-3.275 2.712-3.275h7.504c1.496 0 2.713 1.469 2.713 3.275v1.057h-2.233v-.594h-1.333V20h1.333v-1.189h.429v7.326c0 1.349.937 2.445 2.09 2.445h5.451v.126c0 1.082.877 1.959 1.959 1.959h5.431a1.96 1.96 0 0 0 1.959-1.959v-9.837a1.96 1.96 0 0 0-1.959-1.959m-15.287-.333h2.087v.9h-2.087zM29.34 28.708c0 .345-.28.625-.626.625h-5.431a.626.626 0 0 1-.625-.625v-9.837c0-.345.28-.625.625-.625h5.431c.345 0 .626.28.626.625zm-1.425-9.962h-3.654a.924.924 0 0 0-.924.924v3.654c0 .51.414.924.924.924h3.654c.51 0 .924-.414.924-.924V19.67a.924.924 0 0 0-.924-.924m-.41 4.169h-2.834v-2.836h2.835zm-1.514 1.918a2 2 0 1 0 0 4 2 2 0 0 0 0-4m0 2.666a.667.667 0 1 1 .002-1.335.667.667 0 0 1-.002 1.335M4.659 14.652h1.333V20H4.659zm4.464-6.188a3.566 3.566 0 1 0 0-7.13 3.566 3.566 0 0 0 0 7.13m0-5.797a2.235 2.235 0 0 1 2.232 2.232A2.235 2.235 0 0 1 9.123 7.13 2.235 2.235 0 0 1 6.891 4.9a2.235 2.235 0 0 1 2.232-2.232M17.46 6.77c-.342-.847-.342-1.515-.342-1.836a3.834 3.834 0 0 1 3.83-3.83c1.104 0 2.144.485 2.861 1.289a3.85 3.85 0 0 1 2.862-1.288 3.834 3.834 0 0 1 3.83 3.83c0 .585 0 2.142-1.778 3.918l-4.914 4.94-3.47-3.494.944-.94 2.526 2.543 3.97-3.99c1.388-1.387 1.388-2.502 1.388-2.978a2.5 2.5 0 0 0-2.496-2.496 2.51 2.51 0 0 0-2.259 1.434l-.603 1.276-.602-1.276a2.51 2.51 0 0 0-2.26-1.434 2.5 2.5 0 0 0-2.496 2.496c0 .255 0 .73.246 1.336zm4.504 1.796h-4.638V7.232h3.927l1.141-1.7 1.01 1.759 1.52-3.323 1.225 3.253h.663v1.334h-1.585l-.423-1.122-1.268 2.772-1.23-2.148z"/>
</svg>
