<svg viewBox="0 0 32 32" xmlns="http://www.w3.org/2000/svg">
  <path d="m25.41 24.473 2.433-9.018a4.63 4.63 0 0 0-.467-3.54L25.693 9a4.68 4.68 0 0 0-4.04-2.333h-3.082l3.68-2.125a2.08 2.08 0 0 0 1.04-2.107A2.085 2.085 0 0 0 21.74.667L19.52.072a2.116 2.116 0 0 0-2.59 1.496l-1.08 4.033-2.511-4.348a2.1 2.1 0 0 0-1.285-.986 2.1 2.1 0 0 0-1.605.21l-.617.357c-.662.383-1.058 1.067-1.058 1.832s.395 1.45 1.058 1.832l3.755 2.168h-3.255A4.68 4.68 0 0 0 6.29 9l-1.663 2.88a4.64 4.64 0 0 0-.466 3.543l2.431 9.05-1.526 1.56A3.498 3.498 0 0 0 7.536 32h16.933a3.498 3.498 0 0 0 2.476-5.96zM17.139 5.946l1.08-4.033a.783.783 0 0 1 .958-.553l2.22.595c.32.086.529.325.572.653a.75.75 0 0 1-.385.78l-3.679 2.124-.892.902zM10.5 3.344a.77.77 0 0 1-.391-.678c0-.287.142-.533.391-.677l.615-.356a.77.77 0 0 1 .596-.078.76.76 0 0 1 .474.365l2.076 3.595-.006-.003zm13.97 27.323H7.536a2.162 2.162 0 0 1-1.517-3.7l1.527-1.562.531-.544-.197-.734-2.431-9.049a3.32 3.32 0 0 1 .333-2.53l1.663-2.881A3.34 3.34 0 0 1 10.332 8h11.321c1.187 0 2.292.639 2.886 1.667l1.683 2.915c.445.77.564 1.668.334 2.526l-2.433 9.017-.198.736.533.545 1.544 1.576a2.163 2.163 0 0 1-1.532 3.685"/>
</svg>
