<svg viewBox="0 0 32 32" xmlns="http://www.w3.org/2000/svg">
  <path d="M10 16.267h3.932v1.77h1.333v-1.77h5.457a1.95 1.95 0 0 0 1.945-1.945V3.278a1.95 1.95 0 0 0-1.945-1.945H3.278a1.95 1.95 0 0 0-1.945 1.945v11.044a1.95 1.95 0 0 0 1.945 1.945h5.389V20.4H4.533v1.333h6.8V20.4H10zm-7.333-1.945V3.278a.62.62 0 0 1 .611-.611h17.444a.62.62 0 0 1 .611.611v11.044a.62.62 0 0 1-.611.611H3.278a.62.62 0 0 1-.611-.611M25.77 19.37l-1.615-2.259H19.25l-1.615 2.26h-4.97v11.296H30.74V19.37zm3.637 9.963H14v-8.63h4.322l1.615-2.259h3.533l1.615 2.26h4.323zm-7.704-8.457a3.77 3.77 0 0 0-3.766 3.766 3.77 3.77 0 0 0 3.766 3.765 3.77 3.77 0 0 0 3.765-3.765 3.77 3.77 0 0 0-3.765-3.766m0 6.198c-1.341 0-2.432-1.091-2.432-2.432s1.09-2.432 2.432-2.432 2.432 1.09 2.432 2.432-1.091 2.432-2.432 2.432"/>
</svg>
