<svg viewBox="0 0 32 32" xmlns="http://www.w3.org/2000/svg">
  <path d="m22.667 18.342.018-5.714h1.687l3.214-5.233-5.7-3.438a4.3 4.3 0 0 0-1.286-.51l-.002-.02-.18-.017a4 4 0 0 0-.743-.076h-7.34c-.272 0-.541.035-.807.087l-.192.018v.022c-.426.103-.84.265-1.223.496l-5.7 3.438 3.214 5.233 1.706.077v5.637c0 1.95-.261 3.886-.777 5.753L7.17 29.111l.689.15c.138.03 3.449.739 7.474.739h1.334c4.024 0 7.336-.708 7.475-.74l.689-.15-1.387-5.016a21.6 21.6 0 0 1-.777-5.752M19.276 4.678c-.29 1.702-1.654 2.998-3.272 2.998-1.622 0-2.987-1.302-3.274-3.01zm-2.61 23.989h-1.333a39 39 0 0 1-6.498-.577l1.006-3.64c.548-1.984.826-4.039.826-6.108v-5.637c0-.777-.606-1.41-1.352-1.41h-.942l-2.12-3.452 4.55-2.744c.195-.118.406-.199.62-.27.373 2.364 2.285 4.18 4.58 4.18s4.207-1.814 4.582-4.176c.21.07.42.15.613.266l4.55 2.744-2.12 3.452h-.943c-.745 0-1.352.633-1.352 1.41v5.637c0 2.073.279 4.128.826 6.107l1.006 3.64a39 39 0 0 1-6.498.578"/>
</svg>
