<svg xml:space="preserve" viewBox="0 0 32 32" xmlns="http://www.w3.org/2000/svg"><g id="icon">
  <path d="M3.61 14.667h3.005V32H5.282V16H.39L16 .39l10.471 10.472-.942.943L16 2.276zm21.265 7.51c.378.387.566.947.566 1.678 0 .706-.19 1.266-.573 1.678-.382.411-.898.617-1.546.617s-1.166-.206-1.552-.617c-.387-.412-.581-.972-.581-1.678 0-.731.191-1.291.574-1.678s.906-.58 1.572-.58c.648 0 1.161.193 1.54.58m-.592 1.678c0-.473-.088-.824-.262-1.048a.842.842 0 0 0-.7-.337c-.299 0-.536.117-.71.35-.175.232-.262.586-.262 1.06 0 .465.09.815.268 1.047a.845.845 0 0 0 .705.349.827.827 0 0 0 .699-.354c.174-.237.262-.593.262-1.067m-6.672-2.157c-.65 0-1.167-.206-1.554-.617-.386-.413-.58-.972-.58-1.679 0-.73.192-1.29.574-1.677.383-.386.906-.58 1.571-.58.649 0 1.162.194 1.54.58s.568.947.568 1.677c0 .707-.19 1.266-.574 1.679-.383.411-.897.617-1.545.617m-.706-1.223a.847.847 0 0 0 .706.35c.29 0 .523-.12.698-.356s.261-.593.261-1.067-.087-.823-.261-1.047a.838.838 0 0 0-.698-.337c-.3 0-.537.117-.712.35-.174.232-.262.586-.262 1.06 0 .465.09.814.268 1.047m5.88-3.642-5.537 9.429h.936l5.537-9.429zm6.548 4.5c0 5.146-4.187 9.334-9.333 9.334s-9.333-4.188-9.333-9.334S14.854 12 20 12s9.333 4.187 9.333 9.333m-1.333 0c0-4.411-3.589-8-8-8s-8 3.589-8 8 3.589 8 8 8 8-3.588 8-8"/>
</g></svg>
