<svg viewBox="0 0 32 32" xmlns="http://www.w3.org/2000/svg">
  <path d="M11.333 9.09V6a2.333 2.333 0 0 0-4.666 0v3.021c-2.054.689-3.493 2.352-3.493 4.726v14.76a2.16 2.16 0 0 0 2.16 2.16h7.173a2.16 2.16 0 0 0 2.16-2.16v-14.76c0-2.31-1.37-3.935-3.334-4.657M8 6c0-.551.449-1 1-1s1 .449 1 1v2H8zm5.333 22.507c0 .456-.37.826-.826.826H5.333a.827.827 0 0 1-.826-.826v-14.76C4.507 11.158 6.723 10 8.92 10s4.413 1.158 4.413 3.747zm13.943-7.84c-.27-2.267-1.856-4.097-3.936-4.555v-3.445h1.333V14h1.334v-2.667H19.34v4.706c-3.086.392-2.827 4.628-2.827 4.628v7.84c0 1.193.91 2.16 2.034 2.16h6.758c1.124 0 2.035-.967 2.035-2.16v-7.84zm-6.603-6h1.333V16h-1.333zm1.333-2v.666h-1.333v-.666zM18.6 17.789c.184-.196.508-.456 1.203-.456h2.512c1.825 0 3.334 1.446 3.629 3.334h-8.098v-.042l-.003-.042c-.024-.394.031-2.021.757-2.794M26.006 22v4h-8.16v-4zm0 6.507c0 .456-.314.826-.701.826h-6.758c-.386 0-.7-.37-.7-.826v-1.174h8.16zM6 24.667h5.84v-10H6zM7.333 16h3.174v7.333H7.333z"/>
</svg>
