<svg viewBox="0 0 32 32" xmlns="http://www.w3.org/2000/svg">
  <path d="M27.388 4H4.612a1.95 1.95 0 0 0-1.945 1.945v14.777a1.95 1.95 0 0 0 1.945 1.945H12V28H6.667v1.333h18.666V28h-5.418v-5.333h7.473a1.95 1.95 0 0 0 1.945-1.945V5.945A1.95 1.95 0 0 0 27.388 4m-8.806 24h-5.249v-5.333h5.249zM28 20.722a.62.62 0 0 1-.612.611H4.612A.62.62 0 0 1 4 20.722V5.945a.62.62 0 0 1 .612-.612h22.776a.62.62 0 0 1 .612.612zM9.98 13.348q.352.388.352 1.004 0 .4-.148.724-.149.324-.42.552a1.9 1.9 0 0 1-.664.348q-.392.12-.872.12a4.5 4.5 0 0 1-1.48-.24l.104-.984q.36.177.688.248t.624.072q.447 0 .732-.18a.57.57 0 0 0 .284-.516.8.8 0 0 0-.048-.284.64.64 0 0 0-.172-.236 1.5 1.5 0 0 0-.332-.216 6 6 0 0 0-.528-.224q-.744-.272-1.08-.64-.336-.367-.336-.96 0-.368.144-.668t.408-.512a1.9 1.9 0 0 1 .632-.324 2.8 2.8 0 0 1 .816-.112q.376 0 .696.044t.656.156l-.088.912a3.3 3.3 0 0 0-.608-.188 3 3 0 0 0-.528-.052q-.448 0-.708.172a.53.53 0 0 0-.26.46.7.7 0 0 0 .04.236.5.5 0 0 0 .152.208q.112.1.308.2c.196.1.3.137.508.212q.775.28 1.128.668m5.088-.492q.08.336.08.752V16h-1.056v-1.984q0-.296-.02-.548a1.4 1.4 0 0 0-.1-.436.66.66 0 0 0-.232-.288q-.152-.105-.416-.104-.504 0-.752.4t-.248 1.096V16h-1.056V9.952h1.056v1.624q0 .272-.008.544-.007.271-.016.456h.016q.224-.36.552-.576c.328-.216.477-.216.776-.216q.408 0 .696.128c.288.128.348.208.468.368q.18.24.26.576m4.692-.48a2 2 0 0 0-.677-.436 2.3 2.3 0 0 0-.864-.156q-.496 0-.9.152t-.691.432a1.9 1.9 0 0 0-.448.68 2.4 2.4 0 0 0-.16.896q0 .48.16.876.159.395.444.68c.285.285.417.336.684.44q.4.156.88.156c.48 0 .613-.05.88-.152a1.93 1.93 0 0 0 1.133-1.116q.154-.396.154-.876 0-.488-.154-.892a1.9 1.9 0 0 0-.44-.684m-.817 2.54a.91.91 0 0 1-.763.364.88.88 0 0 1-.74-.36q-.277-.36-.277-.968.001-.665.272-1.02.272-.356.753-.356.488 0 .764.348.275.349.276.988c0 .64-.095.761-.285 1.004m5.99-2.552a1.5 1.5 0 0 0-.549-.428 1.7 1.7 0 0 0-.724-.152q-.473 0-.8.188a1.84 1.84 0 0 0-.592.572h-.015q0-.159-.008-.348a5 5 0 0 0-.025-.316h-1.025q.026.256.033.588t.008.66v4.552h1.071v-1.56l-.002-.296-.008-.28a3 3 0 0 0-.013-.192h.015q.217.353.537.548t.784.196q.408 0 .737-.16c.219-.107.403-.257.56-.452q.23-.293.355-.696.123-.405.124-.892 0-.48-.12-.868a2 2 0 0 0-.344-.664m-.705 2.104a1.3 1.3 0 0 1-.189.424.83.83 0 0 1-.715.38.9.9 0 0 1-.42-.1.95.95 0 0 1-.32-.28 1.4 1.4 0 0 1-.204-.42 1.8 1.8 0 0 1-.073-.528q0-.288.073-.528.07-.24.209-.416a1 1 0 0 1 .322-.276.9.9 0 0 1 .421-.1q.456 0 .707.352.254.352.253.952 0 .296-.064.54"/>
</svg>
