<svg xml:space="preserve" viewBox="0 0 32 32" xmlns="http://www.w3.org/2000/svg"><g id="icon">
  <path d="M27.388 4H4.612a1.95 1.95 0 0 0-1.945 1.945v14.777a1.95 1.95 0 0 0 1.945 1.945H12V28H6.667v1.333h18.666V28h-5.418v-5.333h7.473a1.95 1.95 0 0 0 1.945-1.945V5.945A1.95 1.95 0 0 0 27.388 4m-8.806 24h-5.249v-5.333h5.249zM28 20.722a.62.62 0 0 1-.612.611H4.612A.62.62 0 0 1 4 20.722V5.945a.62.62 0 0 1 .612-.612h22.776a.62.62 0 0 1 .612.612zM10.565 10.416h1.752V16h-1.08v-3.184c0-.17.001-.348.005-.532l.007-.548c.003-.181.007-.352.012-.512h-.016c-.043.133-.087.28-.136.44l-.147.48-.145.456-.116.368L9.621 16H8.613l-1.04-3-.104-.32a41.877 41.877 0 0 1-.44-1.456h-.016c.006.16.01.33.012.512l.008.548c.003.184.004.361.004.532V16H6.005v-5.584h1.808l.873 2.664c.074.234.155.504.243.808.089.304.164.587.229.848h.015c.075-.261.158-.544.248-.848.09-.304.173-.574.248-.808zm5.736 1.464h1.08l-1.624 4.408c-.08.213-.17.41-.268.592a2.04 2.04 0 0 1-.348.472 1.47 1.47 0 0 1-.464.312 1.533 1.533 0 0 1-.608.112 2.745 2.745 0 0 1-.768-.112l.08-.8c.165.053.341.08.528.08a.672.672 0 0 0 .456-.168c.128-.112.235-.312.32-.6l-1.6-4.296h1.168l.64 1.992c.059.171.121.37.188.6.067.23.13.45.188.664h.016c.059-.213.121-.434.188-.66.067-.227.13-.428.188-.604zm3.84-1.464h1.127V16h-1.127zm1.944 0h4.231v.944l-1.56-.024V16h-1.144v-4.664l-1.527.024z"/>
</g></svg>
