<svg viewBox="0 0 32 32" xmlns="http://www.w3.org/2000/svg">
  <path d="M26.667 19.333a2.65 2.65 0 0 0-1.99.907l-1.446-.835A8 8 0 0 0 24 16c0-1.22-.28-2.37-.769-3.405l1.446-.835a2.65 2.65 0 0 0 1.99.907A2.667 2.667 0 1 0 24 10c0 .197.025.388.065.573l-1.498.865a7.99 7.99 0 0 0-5.9-3.404V6.572A2.66 2.66 0 0 0 16 1.333c-1.358 0-2.302.584-2.669 1.983-.372 1.421.304 2.815 1.729 3.175.208.053.273.081.273.081v1.462a7.99 7.99 0 0 0-5.9 3.404l-1.498-.865c.04-.185.065-.376.065-.573a2.667 2.667 0 1 0-2.667 2.667c.795 0 1.501-.355 1.99-.907l1.446.835A7.95 7.95 0 0 0 8 16c0 1.22.28 2.37.769 3.405l-1.446.835a2.65 2.65 0 0 0-1.99-.907A2.667 2.667 0 1 0 8 22c0-.198-.025-.389-.066-.574l1.498-.865a7.99 7.99 0 0 0 5.901 3.405v1.462A2.66 2.66 0 0 0 16 30.667c1.354 0 2.304-.59 2.664-2.014s-.407-2.927-1.928-3.23l-.069.005v-1.462a7.99 7.99 0 0 0 5.9-3.405l1.499.865A2.6 2.6 0 0 0 24 22a2.667 2.667 0 1 0 2.667-2.667m0-10.666C27.402 8.667 28 9.265 28 10a1.335 1.335 0 0 1-2.667 0c0-.735.598-1.333 1.334-1.333M5.333 11.333A1.335 1.335 0 0 1 4 10a1.335 1.335 0 0 1 2.667 0c0 .735-.598 1.333-1.334 1.333m0 12A1.335 1.335 0 0 1 4 22a1.335 1.335 0 0 1 2.667 0c0 .735-.598 1.333-1.334 1.333m17.266-8h-2.666a3.97 3.97 0 0 0-1.393-2.4l1.344-2.328a6.64 6.64 0 0 1 2.715 4.728M16 20c.49 0 .954-.1 1.389-.262l1.344 2.328a6.6 6.6 0 0 1-2.733.6 6.6 6.6 0 0 1-2.732-.6l1.344-2.328c.434.161.898.262 1.388.262m0-1.333A2.67 2.67 0 0 1 13.333 16c0-1.47 1.197-2.667 2.667-2.667S18.667 14.53 18.667 16A2.67 2.67 0 0 1 16 18.667M16 12c-.49 0-.954.1-1.388.262l-1.344-2.328a6.6 6.6 0 0 1 2.732-.6 6.6 6.6 0 0 1 2.733.6l-1.344 2.328A4 4 0 0 0 16 12m-1.333-8c0-.735.598-1.333 1.333-1.333s1.333.598 1.333 1.333S16.735 5.333 16 5.333A1.335 1.335 0 0 1 14.667 4m-2.552 6.605 1.345 2.329a3.97 3.97 0 0 0-1.393 2.4H9.401a6.64 6.64 0 0 1 2.714-4.729m-2.714 6.062h2.666c.16.941.655 1.794 1.393 2.4l-1.345 2.328a6.64 6.64 0 0 1-2.714-4.728M17.333 28c0 .735-.598 1.333-1.333 1.333s-1.333-.598-1.333-1.333.598-1.333 1.333-1.333 1.333.598 1.333 1.333m2.551-6.605-1.344-2.329a3.97 3.97 0 0 0 1.393-2.4h2.666a6.64 6.64 0 0 1-2.715 4.729m6.783 1.938A1.335 1.335 0 0 1 25.333 22 1.335 1.335 0 0 1 28 22c0 .735-.598 1.333-1.333 1.333"/>
</svg>
