<svg viewBox="0 0 32 32" xmlns="http://www.w3.org/2000/svg">
  <path d="M14 17.723V21.5c0 3.264-2.491 5.928-5.667 6.266v1.567H10.5a.666.666 0 1 1 0 1.334H4.833a.666.666 0 1 1 0-1.334H7v-1.567c-3.176-.338-5.667-3.002-5.667-6.266v-3.777a.666.666 0 1 1 1.334 0V21.5c0 2.757 2.243 5 5 5s5-2.243 5-5v-3.777a.666.666 0 1 1 1.333 0M3.889 21.5v-7.556c0-2.077 1.7-3.777 3.778-3.777s3.777 1.7 3.777 3.777V21.5c0 2.078-1.7 3.778-3.777 3.778s-3.778-1.7-3.778-3.778m1.42-8.167h1.413v1.334h-1.5v1.373h1.5v1.332h-1.5v1.295h1.5V20h-1.5v1.333h1.5v1.334h-1.19c.416.757 1.211 1.277 2.135 1.277s1.718-.52 2.134-1.277H8.667v-1.334h1.444V20H8.667v-1.333h1.444v-1.295H8.667V16.04h1.444v-1.373H8.667v-1.334h1.357C9.751 12.282 8.802 11.5 7.667 11.5s-2.085.782-2.358 1.833m25.358-10v8c0 1.103-.898 2-2 2h-5.058l-6.276 6.276v-6.276h-2c-1.103 0-2-.897-2-2v-8c0-1.103.897-2 2-2h13.334c1.102 0 2 .897 2 2m-1.334 0a.667.667 0 0 0-.666-.666H15.333a.667.667 0 0 0-.666.666v8c0 .368.299.667.666.667h3.334v4.39l4-4 .39-.39h5.61c.367 0 .666-.3.666-.667zM16 5.333h12V4H16zm0 2.6h12V6.598H16zm0 2.63h6.667V9.23H16z"/>
</svg>
