<svg viewBox="0 0 32 32" xmlns="http://www.w3.org/2000/svg">
  <path d="M7.333 24H6v1.333H4v5.334h5.333v-5.334h-2zM8 26.667v2.666H5.333v-2.666zm2.667 4h6.666v-7.334h-6.666zM12 29.333V28h4v1.333zm1.333-4.666V26h1.334v-1.333H16v2h-4v-2zM14 6h4.667v1.333H14zm4.667 24.667H28V24h-9.333zM20 25.333h6.667v4H20zm1.155 1.334h4.357V28h-4.357zm8.18-25.197v7.197H28v-4h-5.333v4h-1.334V3.333h-10v5.334H10v-4H4.667v4H3.24V1.333H1.908v29.334H3.24v-9.334h26.094v9.47h1.333V1.47zM24 6h.667v1.333H26V6h.667v2.667H24zM12.667 4.667H20v4h-7.333zM6 6h.667v1.333H8V6h.667v2.667H6zm-.667 14v-2.667h1.334v1.334H8v-1.334h1.333v1.334h1.334v-1.334H12V20zM16 20v-2.667h1.333v1.334h1.334v-1.334H20V20zm2.667-5.333v-1.334H20V16h-4v-2.667h1.333v1.334zM24 20v-1.333h2.667V20zm2.667-2.667H24V16h2.667zM28 20v-5.333h-5.333V20h-1.334v-8h-6.666v8h-1.334v-4H4v4h-.76V10h26.095v10z"/>
</svg>
