<svg viewBox="0 0 32 32" xmlns="http://www.w3.org/2000/svg">
  <path d="M23.587 5.615a2.667 2.667 0 1 0 0 5.333 2.667 2.667 0 0 0 0-5.333m.943 3.61c-.252.251-.587.39-.943.39s-.69-.139-.943-.39a1.33 1.33 0 0 1-.39-.943 1.33 1.33 0 0 1 1.333-1.333c.356 0 .691.138.943.39s.39.587.39.943-.138.69-.39.943m5.371-6.71-.078-.47-.47-.078c-.244-.04-6.046-.947-10.48 3.487L14.828 9.5h-3.369c-.868 0-1.685.338-2.298.952L3.593 16.02h5.105l.78.78-.59.68c-.728.839-.889 1.615-.429 2.072l3.858 3.86a.88.88 0 0 0 .639.256c.412 0 .91-.233 1.434-.686l.68-.59.78.78v5.104l5.567-5.566a3.27 3.27 0 0 0 .951-2.299v-3.368l4.047-4.047C30.85 8.562 29.941 2.76 29.901 2.515M16.045 21.482l-5.657-5.658 1.414-1.414 5.658 5.657zm-5.941-10.086a1.9 1.9 0 0 1 1.354-.562h2.035L9.64 14.686H6.81zm3.413 10.578c-.188.163-.34.258-.442.309l-3.49-3.489a2.2 2.2 0 0 1 .31-.441l.527-.609 3.703 3.703zm7.518-1.563c0 .506-.204 1-.561 1.356l-3.291 3.29V22.23l.672-.673 3.18-3.18zm1.333-5.253-3.965 3.966-5.658-5.657 7.071-7.07c3.233-3.234 7.395-3.264 8.82-3.165.098 1.42.068 5.59-3.163 8.821zM6.261 22.819l.938.948-2.064 2.04-.937-.948zm1.54.318-.943-.943 1.276-1.276.943.943zm-.867 2.349.933.953-1.065 1.04-.932-.953zM5.28 27.14l.932.953-1.064 1.04-.932-.953zm4.524-4.554.943.943-2.275 2.275-.942-.943z"/>
</svg>
