<svg viewBox="0 0 32 32" xmlns="http://www.w3.org/2000/svg">
  <path d="M24 20.667h-1.333v-1.334H24zm-2.667-1.334H20v1.334h1.333zm-2.666 0h-1.334v1.334h1.334zM24 16.667h-1.333V18H24zm-2.667 0H20V18h1.333zm-2.666 0h-1.334V18h1.334zM24 14h-1.333v1.333H24zm-2.667 0H20v1.333h1.333zm-2.666 0h-1.334v1.333h1.334zM24 22h-6.667v1.333H24zm-9.333-2.77h-8v1.334h8zm13.273 7.137-.332 1.659A2.46 2.46 0 0 1 25.201 30H6a2.46 2.46 0 0 1-2.407-1.974l-.354-1.77a1.41 1.41 0 0 1-.443-1.138l1.095-13.14a1.43 1.43 0 0 1 1.425-1.311H8V8h5.333v2.667h5.334v-4H16.72a1.387 1.387 0 0 1-1.387-1.387V2.667c0-.766.621-1.387 1.387-1.387h8.56c.766 0 1.387.62 1.387 1.387V5.28c0 .766-.621 1.387-1.387 1.387h-1.947v4h2.684c.744 0 1.364.57 1.426 1.311l1.095 13.14c.043.517-.212.966-.598 1.25M18.667 5.333h6.613c.03 0 .053-.024.053-.053V2.667a.054.054 0 0 0-.053-.054h-8.56a.054.054 0 0 0-.053.054V5.28c0 .03.024.053.053.053zM20 6.667v4.666c0 .648.898.667 1 .667s1-.019 1-.667V6.667zm-10.667 10H12V9.333H9.333zm-5.208 8.562a.1.1 0 0 0 .025.073c.028.031.06.031.07.031h22.892c.01 0 .043 0 .072-.03a.1.1 0 0 0 .025-.074l-1.095-13.14a.097.097 0 0 0-.097-.089H23.21c-.32.884-1.26 1.333-2.209 1.333s-1.888-.45-2.209-1.333h-5.458v4.667h1.334V18h-8v-1.333H8V12H5.316a.097.097 0 0 0-.097.089zm8.542 3.438v-2H4.68l.22 1.099c.104.522.566.9 1.099.9zm6 0v-2H14v2zm7.634-.903.22-1.097H20v2h5.2c.533 0 .995-.38 1.1-.903"/>
</svg>
