<svg xmlns="http://www.w3.org/2000/svg" viewBox="0 0 32 32" xml:space="preserve"><g id="icon">
  <path fill="currentColor" d="M5.333 2.549v26.666h21.678V2.55H5.333zm20.345 25.333H6.667v-24h19.011v24zM14.76 17.215H9.103v-1.333h5.656v1.333zm-.943 2.667H9.103v-1.334h4.713v1.334zm0 5.333H9.103v-1.333h4.713v1.333zm2.827-9.333h6.598v1.333h-6.598v-1.333zm0 2.666H22.3v1.334h-5.656v-1.334zm-1.884 4H9.103v-1.333h5.656v1.333zm5.241 0h-3.357v-1.333H20v1.333zm-3.357 1.334h4.024v1.333h-4.024v-1.333zm-2.112-10.464H10l.436-2.08h.832l-.218 1.028h1.686l.219-1.028h2.012l-.437 2.08zm-1.816-2.75h.535c.282 0 .466-.029.645-.081a1.716 1.716 0 0 0 1.185-1.359c.144-.81-.259-1.41-1.059-1.545a2.877 2.877 0 0 0-.42-.028h-1.167l-.92 4.337h.92l.281-1.323zm.466-2.215h.403c.115 0 .201.012.27.035.23.076.368.303.305.694a.778.778 0 0 1-.61.659 1.659 1.659 0 0 1-.293.029h-.374l.3-1.417zm4.843 4.92h-2.827l.17-.824h1.966l.519-2.452h2.594l.346-1.64h-2.608l.555-2.621h-1.757l-.554 2.621h-.86l.725-3.433h3.477l-.549 2.622h2.6l-.692 3.269h-2.585l-.52 2.458z"/>
</g></svg>
