<svg viewBox="0 0 32 32" xmlns="http://www.w3.org/2000/svg">
  <path d="M27.294 8.568h-3.89c-.214-1.695-.742-3.516-1.917-4.916C20.197 2.113 18.35 1.333 16 1.333c-2.354 0-4.236.783-5.59 2.326-1.23 1.4-1.835 3.219-2.124 4.909H3.831c-2.759 17.124 6.596 19.62 12.287 19.62 2.343 0 4.066-.423 4.066-.423l2.963 3.52.592-5.653c6.4-6.4 3.555-17.064 3.555-17.064m-15.88-4.032c1.09-1.24 2.634-1.87 4.586-1.87 1.936 0 3.439.62 4.464 1.84.943 1.123 1.397 2.623 1.596 4.062H9.641c.267-1.427.788-2.913 1.772-4.032m11.382 20.153-.334.334-.05.47-.264 2.534-.944-1.12-.534-.632-.802.195c-.016.003-1.615.385-3.75.385-2.665 0-6.348-.595-8.764-3.43-2.404-2.823-3.2-7.37-2.373-13.524h3.132a18 18 0 0 0 .034 3.518.667.667 0 0 0 1.322-.171 17 17 0 0 1-.011-3.347h12.721a17.3 17.3 0 0 1-.169 3.317.666.666 0 1 0 1.313.231c.022-.125.276-1.635.196-3.548h2.693c.476 2.666 1.274 10.098-3.416 14.788"/>
</svg>
