<svg viewBox="0 0 32 32" xmlns="http://www.w3.org/2000/svg">
  <path d="M4 24.667h1.333v4.666H4zm8.01 0h1.334v4.666H12.01zM23.46 4.47a3.27 3.27 0 0 0-2.339.996 3.27 3.27 0 0 0-2.34-.996 3.257 3.257 0 0 0-3.252 3.253c0 .445 0 1.802 1.485 3.289l4.107 4.128 4.104-4.127c1.489-1.488 1.489-2.845 1.489-3.29a3.257 3.257 0 0 0-3.253-3.253m.821 5.602-3.16 3.177-3.163-3.178c-1.096-1.098-1.096-1.974-1.096-2.348 0-1.059.86-1.92 1.92-1.92.738 0 1.42.434 1.736 1.104l.603 1.278.603-1.278a1.93 1.93 0 0 1 1.737-1.103c1.059 0 1.92.86 1.92 1.919 0 .374 0 1.25-1.1 2.349m5.774-8.423h-18.11A1.95 1.95 0 0 0 10 3.595V9.56a4.6 4.6 0 0 0-1.333-.216 4.667 4.667 0 0 0 0 9.333c1.41 0 2.658-.639 3.514-1.627h5.402v4.283H15.93a4.66 4.66 0 0 0-3.275-1.35H4.68A4.694 4.694 0 0 0 0 24.663v4.67h1.333v-4.67a3.35 3.35 0 0 1 3.347-3.346h7.974A3.35 3.35 0 0 1 16 24.663v4.67h1.333v-4.67c0-.716-.176-1.388-.467-1.996h11.835v-1.334h-4.355V17.05h5.709A1.95 1.95 0 0 0 32 15.105V3.595a1.95 1.95 0 0 0-1.945-1.945M8.667 17.344c-1.838 0-3.334-1.496-3.334-3.334s1.496-3.333 3.334-3.333S12 12.172 12 14.01s-1.495 3.334-3.333 3.334m14.346 3.99h-4.096V17.05h4.096zm7.654-6.229a.62.62 0 0 1-.612.612H13.001c.209-.53.332-1.103.332-1.707a4.66 4.66 0 0 0-2-3.822V3.595a.62.62 0 0 1 .612-.612h18.11a.62.62 0 0 1 .612.612z"/>
</svg>
