<svg viewBox="0 0 32 32" xmlns="http://www.w3.org/2000/svg">
  <path d="M14.112 5.814a1.64 1.64 0 0 0-1.163-.48c-.42 0-.842.16-1.162.48L5.75 11.851a1.647 1.647 0 0 0 0 2.325l12.01 12.01c.32.32.741.48 1.162.48s.842-.16 1.163-.48l6.037-6.037a1.646 1.646 0 0 0 0-2.325zm-7.42 6.98 6.038-6.037a.3.3 0 0 1 .22-.09c.058 0 .144.015.22.09l9.565 9.566-6.477 6.476-9.565-9.566a.31.31 0 0 1 0-.44m18.487 6.412-6.037 6.037a.3.3 0 0 1-.22.09.3.3 0 0 1-.22-.09l-1.501-1.501 6.476-6.477 1.502 1.502a.31.31 0 0 1 0 .44m-3.72 1.058.943.943-1.333 1.333-.943-.942zM30.355 8.89l-.25 1.736-4.044 3.024-3.025-4.043.25-1.736.074-.056 2.318 3.099c.662-1.883.364-3.965-.823-5.551a5.9 5.9 0 0 0-3.905-2.319 5.9 5.9 0 0 0-4.4 1.122l-.799-1.068c3.207-2.4 7.77-1.741 10.172 1.466 1.452 1.94 1.817 4.488 1.022 6.76l3.354-2.509zM15.452 27.484l.799 1.068a7.22 7.22 0 0 1-5.39 1.374 7.22 7.22 0 0 1-4.783-2.84 7.29 7.29 0 0 1-1.022-6.76l-3.354 2.509-.056-.075.25-1.736L5.94 18l3.026 4.043-.25 1.737-.075.056-2.318-3.098c-.661 1.883-.363 3.964.823 5.55a5.94 5.94 0 0 0 8.306 1.197"/>
</svg>
