<svg xml:space="preserve" viewBox="0 0 32 32" xmlns="http://www.w3.org/2000/svg"><g id="icon">
  <style>
    .st0{fill:#000}
  </style>
  <path fill="currentColor" d="M28.243 24.067A14.6 14.6 0 0 0 30.666 16C30.666 7.9 24.1 1.334 16 1.334S1.334 7.9 1.334 16c0 2.982.895 5.751 2.423 8.066q.486.735 1.054 1.405.039.043.078.085.5.579 1.058 1.104.135.125.273.247.495.445 1.03.843c.1.075.196.151.298.223.44.312.894.605 1.369.867l.031.02c.49.269 1 .506 1.522.72.125.05.256.092.383.14a15 15 0 0 0 1.724.528q.585.14 1.186.23c.17.026.339.058.51.078.568.067 1.142.11 1.727.11s1.159-.043 1.726-.11c.172-.02.34-.052.51-.078a15 15 0 0 0 1.715-.366q.61-.17 1.196-.393c.127-.047.258-.088.383-.14a15 15 0 0 0 1.522-.72l.031-.019c.475-.262.928-.555 1.37-.867q.15-.11.297-.223.535-.398 1.03-.843.138-.122.273-.247.558-.524 1.058-1.104.039-.043.078-.085.568-.67 1.054-1.404M2.667 16C2.667 8.648 8.648 2.667 16 2.667S29.333 8.648 29.333 16c0 2.53-.722 4.89-1.951 6.908a14.63 14.63 0 0 0-10.049-5.356v1.326a13.3 13.3 0 0 1 9.267 5.177q-.068.09-.135.18c-.197.25-.405.488-.617.722-.115.126-.225.257-.345.379a13 13 0 0 1-1.298 1.151c-.273.215-.55.425-.84.617-.165.11-.338.207-.508.31-.237.142-.474.283-.72.41-.177.093-.36.178-.543.263a13 13 0 0 1-1.317.53q-.424.141-.857.255c-.174.046-.346.095-.522.134-.324.073-.654.126-.985.174-.149.021-.294.051-.444.068-.485.053-.974.085-1.469.085s-.984-.032-1.47-.085c-.149-.017-.294-.047-.443-.068a13 13 0 0 1-.985-.174c-.176-.039-.348-.088-.522-.134q-.433-.114-.857-.255a13 13 0 0 1-1.317-.53c-.183-.086-.365-.17-.543-.263a13 13 0 0 1-.72-.41c-.17-.103-.343-.2-.508-.31a13 13 0 0 1-.84-.617 13.308 13.308 0 0 1-1.298-1.152c-.12-.121-.23-.252-.345-.378-.212-.234-.42-.472-.617-.722q-.068-.09-.135-.18a13.3 13.3 0 0 1 9.267-5.177v-1.326a14.63 14.63 0 0 0-10.049 5.356A13.23 13.23 0 0 1 2.667 16" class="st0"/>
  <path d="M15.333 3.844h1.333v3.533h-1.333zM9.345 5.806l1.155-.667 1.767 3.06-1.155.666zM5.14 10.5l.667-1.156 3.06 1.767-.668 1.155zM3.844 15.333h3.533v1.333H3.844zM24.622 15.333h3.534v1.333h-3.534zM23.134 11.111l3.06-1.766.667 1.155-3.06 1.767zM19.734 8.199l1.767-3.06 1.154.667-1.768 3.06zM13.067 24.066a2.933 2.933 0 1 0 5.866 0 2.93 2.93 0 0 0-2.266-2.85V10.133a.666.666 0 1 0-1.334 0v11.083a2.93 2.93 0 0 0-2.266 2.85m4.533 0c0 .883-.718 1.6-1.6 1.6s-1.6-.717-1.6-1.6c0-.882.718-1.6 1.6-1.6s1.6.718 1.6 1.6" class="st0"/>
</g></svg>
