<svg viewBox="0 0 32 32" xmlns="http://www.w3.org/2000/svg">
  <path d="M30 15.933c-1.1 0-2 .9-2 2v6.066h-.667v-4.826a3.255 3.255 0 0 0-3.251-3.251H23.5V1.333h-1.333v2h-1.334v-.89c0-.761-.617-1.378-1.379-1.378h-1.91c-.76 0-1.378.617-1.378 1.378v4.844c0 .762.617 1.38 1.379 1.38h1.91a1.38 1.38 0 0 0 1.378-1.38v-2.62h1.334v11.255h-6.834v2h-.749a3.255 3.255 0 0 0-3.25 3.251V24h-1.102c.24-.398.386-.859.386-1.357a2.642 2.642 0 1 0-5.285 0c0 .498.146.96.386 1.357H4v-8.666c0-1.1-.9-2-2-2s-2 .9-2 2v15.255h4V28h18.167v2.667H23.5V28H28v2.588h4V17.933c0-1.1-.9-2-2-2M17.545 2.398h1.91l.045.045-.009.89h-1.955zm1.91 4.935L17.5 7.288l.024-2.621h1.955zm-11.48 14a1.31 1.31 0 1 1-.001 2.616 1.31 1.31 0 0 1 .002-2.616m-5.308 7.922H1.333V15.333c0-.361.306-.666.667-.666s.667.305.667.666zm14-12h7.415A1.92 1.92 0 0 1 26 19.173V24h-9.333v-6.744m-4 3.918a1.92 1.92 0 0 1 1.917-1.918h.75V24h-2.667zM23.5 26.667H4.003v-1.335h11.33v.001H28v1.334zm7.167 2.588h-1.334V28h.004v-4.001h-.004v-6.066c0-.362.306-.667.667-.667s.667.305.667.667z"/>
</svg>
