<svg viewBox="0 0 32 32" xmlns="http://www.w3.org/2000/svg">
  <path d="M28 19.333c0-.886-.26-1.706-.69-2.412.439-1.227.69-2.543.69-3.921 0-6.443-5.89-11.667-12.333-11.667S4 6.557 4 13c0 1.378.251 2.694.69 3.921A4.6 4.6 0 0 0 4 19.333a4.65 4.65 0 0 0 1.407 3.334h-.074l2.134 4.666 2.025.791.508 2.543h12l.508-2.543 2.025-.79 2.134-4.667h-.074A4.65 4.65 0 0 0 28 19.333M8.455 26.288 7.409 24h1.258l.514 2.572zm10.878 3.045v-4.666H18v4.666h-1.333v-4.666h-1.334v4.666H14v-4.666h-1.333v4.666h-1.574L9.974 23.74l-.214-1.072H8.667a3.337 3.337 0 0 1-3.334-3.334c0-.6.167-1.178.496-1.72l.17-.28H6l1.577-2.444c.277-.461.423-.989.423-1.526v-2.696H6.667v2.696c0 .296-.081.587-.233.84l-.78 1.3c-.21-.826-.32-1.665-.32-2.503 0-5.562 4.419-10.099 9.929-10.313l-2.238 2.797 2.181 1.455-.505 1.517a.666.666 0 1 0 1.264.422l.829-2.483-1.82-1.213 1.949-2.434c5.318.627 9.744 5.145 9.744 10.252 0 .838-.11 1.676-.32 2.503l-.78-1.3a1.63 1.63 0 0 1-.234-.84v-2.696H24v2.696c0 .538.146 1.066.423 1.526L26 17.333l.17.28c.33.542.497 1.12.497 1.72a3.337 3.337 0 0 1-3.334 3.334H22.24l-.214 1.072-1.12 5.594zM24.591 24l-1.046 2.288-.726.284.514-2.572zm-.103-4.485c.376-2.17-1.742-5.28-3.9-5.531a4 4 0 0 0-.48-.029c-1.892 0-2.996 1.409-3.343 3.414-.375 2.17.294 4.098 2.464 4.474.417.072.853.11 1.29.11 1.836 0 3.666-.684 3.97-2.438m-1.313-.227c-.22 1.268-2.252 1.332-2.657 1.332a6.3 6.3 0 0 1-1.062-.09c-1.512-.263-1.583-1.74-1.377-2.933.265-1.532.948-2.309 2.03-2.309q.157 0 .325.02c.578.068 1.29.583 1.86 1.344.649.87 1.003 1.929.88 2.636m-11.283-5.333q-.232 0-.48.029c-2.158.252-4.276 3.36-3.9 5.531.303 1.754 2.133 2.439 3.97 2.439.436 0 .872-.039 1.289-.111 2.17-.376 2.84-2.303 2.464-4.474-.347-2.005-1.45-3.414-3.343-3.414m.652 6.574c-.35.06-.707.091-1.062.091-.405 0-2.437-.064-2.657-1.332-.122-.707.232-1.767.882-2.636.569-.761 1.281-1.276 1.859-1.344q.167-.02.326-.02c1.081 0 1.764.777 2.029 2.309.206 1.193.135 2.67-1.377 2.932"/>
</svg>
