<svg xml:space="preserve" viewBox="0 0 32 32" xmlns="http://www.w3.org/2000/svg"><g id="icon">
  <path d="M1.38 30.667h7.98V20.042a90.396 90.396 0 0 1-7.98 2.625v8zm1.33-6.992a91.686 91.686 0 0 0 5.32-1.722v7.38H2.71v-5.658m7.98 7.08h7.98v-15.57a91.525 91.525 0 0 1-7.98 3.794v11.776m1.33-10.892a92.985 92.985 0 0 0 5.32-2.484v12.042h-5.32v-9.558zM20 30.667h7.98v-22L20 13.707v16.96m1.33-16.224 5.32-3.36v18.25h-5.32v-14.89m9.312-13.107v4.586l-1.33 1.333v-3.69C17.338 17.038.308 19.274.132 19.296l-.163-1.324C.141 17.95 16.7 15.763 28.33 2.67h-4.256l1.33-1.333h5.24z"/>
</g></svg>
