<svg viewBox="0 0 32 32" xmlns="http://www.w3.org/2000/svg">
  <path d="M8.687 12.69c.209 3.926 3.448 7.047 7.426 7.047 4.005 0 7.262-3.164 7.43-7.128.963-.344 1.849-.821 1.849-2.382V9.56h-1.246V6.902l-.016-.145c-.036-.164-.927-3.886-5.423-5.34C18.542.61 17.787 0 16.878 0h-1.763c-.907 0-1.663.611-1.828 1.416C8.79 2.871 7.9 6.594 7.864 6.757L7.85 9.56H6.6v.667c0 1.688 1.038 2.108 2.086 2.464m7.426 5.714c-3.034 0-5.518-2.233-5.99-5.136l2.007.91c.468.171.957.258 1.454.258h4.826c.496 0 .986-.087 1.501-.277l2.217-1.006c-.423 2.96-2.94 5.251-6.015 5.251m6.628-6.929q-.279.092-.587.203l-2.746 1.248a2.9 2.9 0 0 1-.998.176h-4.826c-.34 0-.676-.059-.95-.157L9.84 11.678q-.31-.11-.588-.203c-.667-.224-1.01-.348-1.175-.582h15.84c-.167.234-.508.358-1.176.582M9.18 6.985c.078-.281.45-1.377 1.486-2.45v1.566H12V3.48q.553-.34 1.252-.612v4.448h1.333V1.743c0-.222.243-.41.53-.41h1.763c.288 0 .53.188.53.41v5.574h1.334V2.87q.703.274 1.258.615V6h1.333V4.541c1.034 1.074 1.404 2.167 1.48 2.443V9.56H9.182zm.835 17.682h1.334V32h-1.334zm10.653 0h1.334V32h-1.334zm3.559-1.965-4.617-2.309-.32.959c-.237.245-1.348.648-3.291.648-1.923 0-3.03-.394-3.284-.64l-.338-.96-4.55 2.275C3.702 22.76.372 25.853.372 29.65V32h1.334v-2.349c0-2.923 2.494-5.307 5.666-5.594.052 1.52-.018 5.366-1.808 7.943h1.571c1.674-3.03 1.636-6.933 1.562-8.27l2.925-1.463L15.058 32h2.089l3.242-9.727 2.914 1.457c-.074 1.337-.112 5.24 1.562 8.27h1.57c-1.772-2.55-1.857-6.343-1.809-7.894 2.914.493 5.13 2.787 5.13 5.545V32h1.333v-2.349c0-3.615-3.014-6.596-6.861-6.949m-8.132 8.235-2.79-7.905c.754.192 1.692.301 2.694.301.545 0 1.704-.036 2.731-.3z"/>
</svg>
