<svg viewBox="0 0 32 32" xmlns="http://www.w3.org/2000/svg">
  <path d="M26.471 13.529c-3.067-3.067-2.48-9.4-2.475-9.463l.046-.457-5.098-2.55-.32.96c-.236.245-1.346.648-3.29.648-1.923 0-3.03-.394-3.284-.64l-.34-.961-5.085 2.543.045.457c.006.064.592 6.396-2.475 9.463L4 13.724V30h22.667V13.724zM15.333 4c.546 0 1.705-.036 2.731-.3l-2.634 7.903-2.79-7.904c.753.192 1.691.301 2.693.301m-10 24.667V14.268c2.833-3.063 2.785-8.282 2.698-9.872l2.925-1.462 3.748 10.621.085-.03-1.421 4.264-.035 9.82 1.058 1.058zm20 0h-9.057l-1.61-1.61v-8.949L19.724 2.94l2.914 1.456c-.089 1.59-.136 6.81 2.696 9.872zM16 18h8.667v1.333H16zm5.336-4.667h-1.333v-8h1.333zm-10.653 0H9.35v-8h1.333zm5.317 8h8.667v1.334H16zM6.667 18H12v1.333H6.667zm0 3.333H12v1.334H6.667z"/>
</svg>
