<svg xml:space="preserve" viewBox="0 0 32 32" xmlns="http://www.w3.org/2000/svg"><g id="icon">
  <path d="m26.562 8.203-.597.597a3.109 3.109 0 0 1-2.213.917h-2.26l-2.646 2.99a8.703 8.703 0 0 0-.849-1.053l2.497-2.82.398-.45h2.86c.48 0 .931-.187 1.27-.526l.597-.598a1.806 1.806 0 0 0 .402-1.929l-1.406 1.406-.506.506-.7-.142a2.488 2.488 0 0 1-1.95-1.949l-.141-.701.506-.506L23.23 2.54a1.796 1.796 0 0 0-1.93.402l-.597.597c-.34.339-.526.79-.526 1.27V7.573l-.335.379-2.619 2.958a8.69 8.69 0 0 0-1.095-.775l2.716-3.067v-2.26c0-.836.325-1.623.917-2.214l.597-.596c.59-.591 1.376-.917 2.213-.917s1.622.326 2.214.917l.435.436-2.454 2.454c.092.455.452.814.907.906l2.454-2.454.435.436a3.134 3.134 0 0 1 0 4.427m-8.5 12.89 6.514 6.516-2.828 2.828-6.537-6.5a7.316 7.316 0 1 1-3.538-13.718 7.304 7.304 0 0 1 6.227 3.49c.032.049.075.09.107.14l-.013.015a7.277 7.277 0 0 1 .069 7.229m-3.77-7.48-.397.45H10.716c-.588 0-1.167.24-1.587.658l-.68.68a2.225 2.225 0 0 0-.655 1.584c0 .383.095.751.273 1.077l1.797-1.797.507-.507.702.143a2.656 2.656 0 0 1 2.075 2.077l.143.702-.506.507-1.797 1.796c.327.179.694.274 1.076.274.598 0 1.161-.233 1.585-.657l.681-.681c.424-.423.657-.986.657-1.584V15.25l.335-.378.968-1.094a6.006 6.006 0 0 0-1.161-1.11l-.836.945m3.363 3.922c0-.933-.233-1.805-.615-2.593l-.72.813v2.58c0 .955-.371 1.852-1.047 2.527l-.681.681a3.554 3.554 0 0 1-2.528 1.047 3.55 3.55 0 0 1-2.527-1.047l-.497-.497 2.802-2.802a1.332 1.332 0 0 0-1.035-1.036L8.004 20.01l-.498-.497a3.564 3.564 0 0 1-1.045-2.529c0-.915.349-1.83 1.045-2.527l.682-.682a3.61 3.61 0 0 1 2.528-1.047h2.578l.643-.725a5.94 5.94 0 0 0-2.264-.452 5.99 5.99 0 0 0-5.982 5.983c0 3.298 2.683 5.982 5.982 5.982s5.982-2.684 5.982-5.982m-.27 4.765c-.262.31-.585.622-.992.931l5.352 5.323.946-.945-5.307-5.31"/>
</g></svg>
