<svg viewBox="0 0 32 32" xmlns="http://www.w3.org/2000/svg">
  <path d="m26.562 8.203-.597.597a3.1 3.1 0 0 1-2.213.917h-2.26l-2.646 2.99a9 9 0 0 0-.849-1.053l2.497-2.82.398-.45h2.86c.48 0 .931-.187 1.27-.526l.597-.598a1.81 1.81 0 0 0 .402-1.929l-1.406 1.406-.506.506-.7-.142a2.49 2.49 0 0 1-1.95-1.949l-.141-.701.506-.506L23.23 2.54a1.8 1.8 0 0 0-1.93.402l-.597.597a1.78 1.78 0 0 0-.526 1.27v2.765l-.335.379-2.619 2.958a9 9 0 0 0-1.095-.775l2.716-3.067v-2.26c0-.836.325-1.623.917-2.214l.597-.596c.59-.591 1.376-.917 2.213-.917s1.622.326 2.214.917l.435.436-2.454 2.454c.092.455.452.814.907.906l2.454-2.454.435.436a3.134 3.134 0 0 1 0 4.427m-8.5 12.89 6.514 6.516-2.828 2.828-6.537-6.5a7.316 7.316 0 1 1-3.538-13.718 7.3 7.3 0 0 1 6.227 3.49c.032.049.075.09.107.14l-.013.015a7.28 7.28 0 0 1 .069 7.229m-3.77-7.48-.397.45h-3.179c-.588 0-1.167.24-1.587.658l-.68.68a2.23 2.23 0 0 0-.655 1.584c0 .383.095.751.273 1.077l1.797-1.797.507-.507.702.143a2.66 2.66 0 0 1 2.075 2.077l.143.702-.506.507-1.797 1.796c.327.179.694.274 1.076.274.598 0 1.161-.233 1.585-.657l.681-.681c.424-.423.657-.986.657-1.584V15.25l.335-.378.968-1.094a6 6 0 0 0-1.161-1.11zm3.363 3.922c0-.933-.233-1.805-.615-2.593l-.72.813v2.58c0 .955-.371 1.852-1.047 2.527l-.681.681a3.55 3.55 0 0 1-2.528 1.047 3.55 3.55 0 0 1-2.527-1.047l-.497-.497 2.802-2.802a1.33 1.33 0 0 0-1.035-1.036L8.004 20.01l-.498-.497a3.56 3.56 0 0 1-1.045-2.529c0-.915.349-1.83 1.045-2.527l.682-.682a3.6 3.6 0 0 1 2.528-1.047h2.578l.643-.725a5.9 5.9 0 0 0-2.264-.452 5.99 5.99 0 0 0-5.982 5.983c0 3.298 2.683 5.982 5.982 5.982s5.982-2.684 5.982-5.982m-.27 4.765a6.2 6.2 0 0 1-.992.931l5.352 5.323.946-.945z"/>
</svg>
