<svg xml:space="preserve" viewBox="0 0 32 32" xmlns="http://www.w3.org/2000/svg"><g id="icon">
  <path fill="currentColor" d="M28.26 8.178c-1.67-.188-2.32-.398-2.829-1.227-.371-.606-.51-1.36-.784-2.035-.086-.212-.238-.482-.423-.554-2.611-1.01-5.23-2-7.857-2.964a1.188 1.188 0 0 0-.404-.065c-.176 0-.355.032-.506.088-2.425.903-4.833 1.855-7.261 2.75-.575.212-.854.502-.964 1.152-.312 1.827-1.281 2.662-3.073 2.8-.102.007-.203.034-.342.058-.044.404-.11.79-.124 1.179-.095 2.52.063 5.014.631 7.478 1.44 6.245 4.744 10.923 10.583 13.496.207.091.398.22.596.333h.89c.072-.044.14-.098.216-.13 4.86-1.978 8.2-5.502 10.102-10.51.951-2.505 1.441-5.11 1.594-7.777.077-1.359-.024-2.728-.045-4.072zm-1.286 3.996c-.155 2.698-.648 5.111-1.51 7.379-1.794 4.728-4.856 7.917-9.358 9.75a1.78 1.78 0 0 0-.071.03h-.168a4.28 4.28 0 0 0-.423-.22c-5.184-2.283-8.396-6.397-9.82-12.575-.502-2.174-.698-4.506-.599-7.128l.003-.06C7 8.962 8.181 7.686 8.546 5.546c.006-.037.013-.066.018-.087.022-.01.052-.023.093-.038 1.312-.484 2.618-.984 3.924-1.484 1.113-.426 2.225-.852 3.335-1.266a.2.2 0 0 1 .038-.005c2.393.878 4.909 1.827 7.486 2.822.074.193.137.393.2.592.157.49.334 1.045.655 1.567.66 1.076 1.542 1.477 2.663 1.691l.004.141c.032.935.062 1.817.012 2.694zm-4.695 5.562V22h-1.334v-4.264a2.706 2.706 0 0 0-2.702-2.703h-4.608a2.706 2.706 0 0 0-2.703 2.703V22H9.6v-4.264a4.04 4.04 0 0 1 4.036-4.037h4.608a4.04 4.04 0 0 1 4.036 4.037zm-9.334.394h1.334V22h-1.334v-3.87zm4.654 0h1.333V22H17.6v-3.87zm-1.32-5.437a3.346 3.346 0 1 0 0-6.693 3.346 3.346 0 0 0 0 6.693zm0-5.36c1.11 0 2.013.903 2.013 2.013 0 1.11-.903 2.013-2.013 2.013s-2.013-.903-2.013-2.013c0-1.11.903-2.013 2.013-2.013z"/>
</g></svg>
