<svg viewBox="0 0 32 32" xmlns="http://www.w3.org/2000/svg">
  <path d="M30.759 16.941c-.55-2.745-1.098-3.294-2.196-3.843l-6.04-.917V4H0v20.746h2.267c-.025.167-.052.335-.052.51a3.415 3.415 0 0 0 3.413 3.41c1.88 0 3.411-1.53 3.411-3.41 0-.175-.026-.343-.051-.51h13.535v-.032h.566a3.4 3.4 0 0 0-.055.541c0 1.882 1.53 3.412 3.411 3.412s3.412-1.53 3.412-3.412c0-.185-.026-.364-.055-.541H30c.891 0 1.614-.723 1.614-1.614l.243-3.1zm-2.604-2.166c.383.207.607.473.931 2.09l.19 1.135H26.1l-.01-3.676zM1.333 5.333H21.19v14H1.333zm4.295 22a2.08 2.08 0 0 1-2.08-2.078 2.08 2.08 0 0 1 2.08-2.078 2.08 2.08 0 0 1 2.078 2.078 2.08 2.08 0 0 1-2.078 2.078m0-5.49a3.4 3.4 0 0 0-2.863 1.57H1.333v-2.667H21.19v2.666H8.49a3.4 3.4 0 0 0-2.862-1.568m20.817 5.49a2.08 2.08 0 0 1-2.078-2.078c0-1.146.932-2.078 2.078-2.078s2.078.932 2.078 2.078a2.08 2.08 0 0 1-2.078 2.078m3.84-4.337-.004.052v.052a.28.28 0 0 1-.281.28h-.71c-.61-.924-1.656-1.536-2.845-1.536s-2.234.612-2.845 1.536h-1.06l.112-9.832 2.105.32.014 5.465h5.43l.305.848zM11.667 6.666a5.667 5.667 0 1 0 0 11.334 5.667 5.667 0 0 0 0-11.333m.666 9.933v-1.432H11V16.6A4.32 4.32 0 0 1 7.4 13h1.433v-1.333H7.401A4.32 4.32 0 0 1 11 8.067V9.5h1.333V8.067a4.32 4.32 0 0 1 3.6 3.6H14.5V13h1.433a4.32 4.32 0 0 1-3.6 3.6m1.612-5.601-1.177 1.177c.008.054.032.102.032.158a1.133 1.133 0 0 1-2.267 0c0-.08.03-.15.046-.224L8.64 9.915l.998-.883 1.932 2.187c.033-.003.062-.019.096-.019.056 0 .104.024.158.032l1.177-1.177z"/>
</svg>
