<svg xml:space="preserve" viewBox="0 0 32 32" xmlns="http://www.w3.org/2000/svg"><g id="icon">
  <path fill="currentColor" d="M29.333 1.333h-28v29.334h1.334V17.333h26.666v13.334h1.334V1.333h-1.334zM24 16v-2.667h-2.667V16h-2.666v-2.667H16V16h-2.667v-2.667h-2.666V16H8v-2.667H5.333V16H2.667v-2.667h2.666v-2.666H2.667V8h2.666V5.333H2.667V2.667h2.666v2.666H8V2.667h2.667v2.666h2.666V2.667H16v2.666h2.667V2.667h2.666v2.666H24V2.667h2.667v2.666h2.666V8h-2.666v2.667h2.666v2.666h-2.666V16H24zM8 8V5.333h2.667V8H8zm5.333 0V5.333H16V8h-2.667zm5.334 0V5.333h2.666V8h-2.666zM24 8V5.333h2.667V8H24zM8 10.667H5.333V8H8v2.667zM13.333 8v2.667h-2.666V8h2.666zm5.334 0v2.667H16V8h2.667zM24 8v2.667h-2.667V8H24zm-13.333 2.667v2.666H8v-2.666h2.667zm5.333 0v2.666h-2.667v-2.666H16zm5.333 0v2.666h-2.666v-2.666h2.666zm5.334 2.666H24v-2.666h2.667v2.666z"/>
</g></svg>
