<svg xml:space="preserve" viewBox="0 0 32 32" xmlns="http://www.w3.org/2000/svg"><g id="icon">
  <path fill="currentColor" d="M14.667 4h-12V2.667h12V4zM12 5.333H2.667v1.334H12V5.333zm15.333 4H0V0h27.333v9.333zm-1.333-8H1.333V8H26V1.333zM2.667 14.667h12v-1.334h-12v1.334zm0 2.666H12V16H2.667v1.333zm0 10.667H12v-1.333H2.667V28zM32 22.667A9.333 9.333 0 0 1 22.667 32a9.275 9.275 0 0 1-4.79-1.333H0v-9.334h13.44A9.29 9.29 0 0 1 13.724 20H0v-9.333h27.333v3.925C30.12 16.207 32 19.214 32 22.667zm-17.756-4c1.499-3.15 4.702-5.334 8.423-5.334 1.176 0 2.297.227 3.333.624V12H1.333v6.667h12.91zm1.897 10.666a9.322 9.322 0 0 1-2.416-4H2.667V24h10.772a9.353 9.353 0 0 1-.106-1.333h-12v6.666h14.808zm14.526-6.666c0-4.412-3.59-8-8-8s-8 3.588-8 8 3.588 8 8 8 8-3.59 8-8zm-3.961-4.823a1.724 1.724 0 0 0-1.227-.51h-.001c-.464 0-.9.18-1.228.508l-1.772 1.771.943.943 1.772-1.77a.399.399 0 0 1 .562-.007l.794.815a.399.399 0 0 1-.001.568l-3.113 3.114a.399.399 0 0 1-.559.012l-.393-.414-.966.919.405.426c.338.338.782.508 1.228.508s.89-.17 1.228-.508l3.113-3.115c.328-.328.509-.764.509-1.229a1.717 1.717 0 0 0-.503-1.219l-.791-.812zm-6.564 8.817a.403.403 0 0 1-.564.008l-.794-.816a.399.399 0 0 1 .001-.568l3.113-3.114a.401.401 0 0 1 .563-.01l.605.628.959-.924-.614-.637a1.738 1.738 0 0 0-2.455 0l-3.114 3.114c-.328.329-.509.765-.509 1.23.002.463.181.898.503 1.218l.793.815c.337.339.782.507 1.226.507s.89-.168 1.228-.507l1.728-1.729-.943-.942-1.726 1.727z"/>
</g></svg>
