<svg xml:space="preserve" viewBox="0 0 32 32" xmlns="http://www.w3.org/2000/svg"><g id="icon">
  <path fill="currentColor" d="M17.333 4H4.667v7.333h12.666V4zM16 10H6V5.333h10V10zm1.333 4H4.667v-1.333h12.666V14zm5.334-.667a9.35 9.35 0 0 0-2 .22V1.334H1.333v23.334h12.22C14.47 28.859 18.2 32 22.668 32a9.333 9.333 0 0 0 0-18.667zm-20 10V2.667h16.666v11.29a9.307 9.307 0 0 0-2.428 1.376H4.667v1.334h10.855a9.358 9.358 0 0 0-.93 1.333H4.667v1.333h9.29c-.165.431-.303.875-.403 1.334H4.667V22h8.7c-.016.221-.034.442-.034.667s.018.445.034.666h-10.7zm20 7.334c-4.412 0-8-3.59-8-8s3.588-8 8-8 8 3.588 8 8-3.59 8-8 8zm4.83-12.01c.322.32.502.754.503 1.218 0 .465-.181.901-.51 1.23l-3.112 3.114c-.339.338-.783.508-1.228.508s-.89-.17-1.228-.508l-.405-.426.966-.92.393.415c.147.147.4.146.559-.012l3.113-3.115a.399.399 0 0 0 .001-.567l-.794-.815a.399.399 0 0 0-.563.007l-1.771 1.77-.943-.943 1.772-1.77c.328-.329.764-.51 1.228-.51h.001c.464.002.899.181 1.227.51l.791.813zm-5.629 6.277.943.942-1.728 1.73c-.338.338-.784.506-1.228.506s-.889-.168-1.226-.507l-.793-.815a1.717 1.717 0 0 1-.503-1.218c0-.465.181-.901.51-1.23l3.113-3.114a1.738 1.738 0 0 1 2.455 0l.614.637-.959.924-.605-.628a.401.401 0 0 0-.563.01l-3.113 3.114a.399.399 0 0 0-.001.568l.794.816a.403.403 0 0 0 .564-.008l1.726-1.727z"/>
</g></svg>
