<svg xml:space="preserve" viewBox="0 0 32 32" xmlns="http://www.w3.org/2000/svg"><g id="icon">
  <path d="M30 1.333H1.979a.667.667 0 1 0 0 1.334h3.354v28h5.334a5.207 5.207 0 0 1 1.341-2.368c1.028-1.028 2.51-1.541 3.992-1.541s2.964.513 3.992 1.54a5.207 5.207 0 0 1 1.341 2.369h5.334v-28H30a.667.667 0 0 0 0-1.334m-4.667 28h-3.055a6.37 6.37 0 0 0-1.344-1.977c-1.227-1.228-3.026-1.932-4.934-1.932s-3.707.704-4.934 1.932a6.37 6.37 0 0 0-1.344 1.977H6.667V2.667h18.666v26.666zM8.897 18.667l1.527-2.394-1.374-2.26h1.454l.34.62a12.358 12.358 0 0 1 .467.927 204.832 204.832 0 0 1 .34-.703l.113-.217.34-.627h1.353l-1.36 2.193 1.493 2.46h-1.493l-.393-.732a8.626 8.626 0 0 1-.127-.237l-.133-.26a6.43 6.43 0 0 1-.12-.247 3.306 3.306 0 0 1-.08-.19 3.25 3.25 0 0 1-.094.187 18.212 18.212 0 0 1-.273.503 10.63 10.63 0 0 0-.134.244l-.412.733H8.897m9.44 0h-1.493l-.393-.733a8.624 8.624 0 0 1-.127-.237l-.133-.26a6.429 6.429 0 0 1-.12-.247 3.306 3.306 0 0 1-.08-.19 3.25 3.25 0 0 1-.094.187 18.213 18.213 0 0 1-.273.503c-.05.086-.093.168-.134.244l-.413.733h-1.433l1.527-2.394-1.374-2.26h1.454l.34.62a12.357 12.357 0 0 1 .466.927c.032-.067.065-.139.104-.217a203.321 203.321 0 0 1 .236-.486l.113-.217.34-.627h1.354l-1.36 2.193 1.493 2.46m4.614-4.654-1.361 2.193 1.493 2.46H21.59l-.393-.732a6.151 6.151 0 0 1-.127-.237c-.044-.088-.09-.174-.134-.26a6.374 6.374 0 0 1-.12-.247 2.523 2.523 0 0 1-.079-.19 3.326 3.326 0 0 1-.094.187l-.13.243c-.047.087-.094.174-.143.26a8.5 8.5 0 0 0-.133.244l-.414.733h-1.434l1.528-2.394-1.374-2.26h1.453l.341.62c.089.16.173.323.257.487.082.165.152.311.21.44.03-.067.064-.139.102-.217l.117-.243a7.766 7.766 0 0 1 .234-.46l.34-.627h1.354zM10 21.333h1.333v1.334H10v-1.334m-1.333 1.334H7.333v-1.334h1.334v1.334zm4-1.334H14v1.334h-1.333v-1.334m2.666 0h1.334v1.334h-1.334v-1.334m2.667 0h1.333v1.334H18v-1.334m2.667 0H22v1.334h-1.333v-1.334m4 1.334h-1.334v-1.334h1.334v1.334m-6.2-11.334H15.8l.162-.766h1.854l.489-2.282h2.447l.327-1.527h-2.46l.523-2.44h-1.657l-.523 2.44h-.812l.685-3.196h3.28l-.518 2.44h2.453l-.653 3.043h-2.439l-.491 2.288m-3.46 0H9.914l.045-.215h5.095l-.047.214m-2.757-1.28h.871l.081-.375h2.168l.047-.214h-2.169l.14-.646h.506c.266 0 .44-.027.61-.076.625-.19 1.006-.702 1.12-1.252.164-.751-.245-1.333-1.001-1.458a2.785 2.785 0 0 0-.397-.027H13.12l-.744 3.459h-2.055l-.046.214h2.055l-.081.375m1.578-3.303h.381c.109 0 .19.01.256.033.218.07.365.272.288.63-.054.268-.217.518-.49.616a1.11 1.11 0 0 1-.31.044h-.408l.283-1.323m1.357 3.757h-5.094l.046-.213h5.094l-.046.213"/>
</g></svg>
