<svg xml:space="preserve" viewBox="0 0 32 32" xmlns="http://www.w3.org/2000/svg"><g id="icon">
  <path fill="currentColor" d="m10.568 23.766.609 1.184a56.562 56.562 0 0 0-4.539 2.624l-.715-1.121a58.315 58.315 0 0 1 4.645-2.687zm7.32-3.288a76.038 76.038 0 0 0-4.92 2.1l.562 1.208a73.719 73.719 0 0 1 4.834-2.065l-.476-1.243zm-6.39-11.691a2.702 2.702 0 0 1-2.692 2.707 2.702 2.702 0 0 1-2.692-2.707A2.702 2.702 0 0 1 8.806 6.08 2.702 2.702 0 0 1 11.5 8.787zm-1.324 0c0-.758-.613-1.375-1.368-1.375-.754 0-1.367.617-1.367 1.375s.613 1.375 1.367 1.375c.755 0 1.368-.617 1.368-1.375zM32 17.888v1.3c-8.917 0-14.292 9.121-16.055 12.823h-1.472c1.152-2.599 4.541-9.193 10.459-12.38-1.508.375-2.828.8-3.953 1.178l-.42-1.264a53.197 53.197 0 0 1 3.898-1.17c-4.349.107-9.294.915-13.67 1.847l-1.98 3.455-1.526-2.66a145.173 145.173 0 0 0-7.205 1.932v-1.393A144.635 144.635 0 0 1 6.583 19.8l-4.175-7.28a7.455 7.455 0 0 1-1.005-3.733c0-4.104 3.322-7.444 7.403-7.444 4.082 0 7.403 3.34 7.403 7.444a7.46 7.46 0 0 1-1.006 3.735l-3.516 6.132c7.04-1.426 15.206-2.417 20.313-.766zm-17.945-6.031c.544-.938.83-1.998.83-3.07 0-3.37-2.727-6.112-6.079-6.112-3.351 0-6.078 2.742-6.078 6.112 0 1.072.285 2.13.825 3.062l5.253 9.161 5.25-9.153zM.076 31.017v.965l.034.03h.852c.539-.546 1.667-1.609 3.518-2.96l-.78-1.077C1.84 29.333.679 30.412.077 31.016z"/>
</g></svg>
