<svg viewBox="0 0 32 32" xmlns="http://www.w3.org/2000/svg">
  <path d="m10.568 23.766.609 1.184a57 57 0 0 0-4.539 2.624l-.715-1.121a58 58 0 0 1 4.645-2.687m7.32-3.288a76 76 0 0 0-4.92 2.1l.562 1.208a74 74 0 0 1 4.834-2.065zm-6.39-11.691a2.7 2.7 0 0 1-2.692 2.707 2.7 2.7 0 0 1-2.692-2.707A2.7 2.7 0 0 1 8.806 6.08 2.7 2.7 0 0 1 11.5 8.787m-1.324 0c0-.758-.613-1.375-1.368-1.375-.754 0-1.367.617-1.367 1.375s.613 1.375 1.367 1.375c.755 0 1.368-.617 1.368-1.375M32 17.888v1.3c-8.917 0-14.292 9.121-16.055 12.823h-1.472c1.152-2.599 4.541-9.193 10.459-12.38-1.508.375-2.828.8-3.953 1.178l-.42-1.264a53 53 0 0 1 3.898-1.17c-4.349.107-9.294.915-13.67 1.847l-1.98 3.455-1.526-2.66a145 145 0 0 0-7.205 1.932v-1.393A145 145 0 0 1 6.583 19.8l-4.175-7.28a7.46 7.46 0 0 1-1.005-3.733c0-4.104 3.322-7.444 7.403-7.444 4.082 0 7.403 3.34 7.403 7.444a7.46 7.46 0 0 1-1.006 3.735l-3.516 6.132c7.04-1.426 15.206-2.417 20.313-.766m-17.945-6.031c.544-.938.83-1.998.83-3.07 0-3.37-2.727-6.112-6.079-6.112S2.728 5.417 2.728 8.787c0 1.072.285 2.13.825 3.062l5.253 9.161zM.076 31.017v.965l.034.03h.852c.539-.546 1.667-1.609 3.518-2.96l-.78-1.077C1.84 29.333.679 30.412.077 31.016"/>
</svg>
