<svg xml:space="preserve" viewBox="0 0 32 32" xmlns="http://www.w3.org/2000/svg"><g id="icon">
  <path d="M3.61 14.667h3.005V32H5.282V16H.39L16 .39l10.471 10.472-.942.943L16 2.276zm15.989 6.668a2.936 2.936 0 0 1-2.932 2.934 2.937 2.937 0 0 1-2.934-2.934 2.937 2.937 0 0 1 2.934-2.934 2.936 2.936 0 0 1 2.932 2.934m-1.334 0c0-.882-.717-1.6-1.598-1.6-.883 0-1.6.718-1.6 1.6 0 .883.717 1.6 1.6 1.6.881 0 1.598-.717 1.598-1.6m3.55-1.833 2.185.003-.004 3.666-2.183-.003a.592.592 0 0 0-.18.23.56.56 0 0 0-.032.281l1.543 1.55-2.595 2.591-1.542-1.548a.557.557 0 0 0-.289.035.576.576 0 0 0-.223.177l-.001 2.183h-3.665v-2.185a.596.596 0 0 0-.228-.181.531.531 0 0 0-.283-.032l-1.547 1.542-2.588-2.593 1.544-1.542a.588.588 0 0 0-.034-.29.58.58 0 0 0-.177-.222H9.333v-3.667h2.183a.597.597 0 0 0 .181-.23.583.583 0 0 0 .032-.283l-1.541-1.542 2.592-2.593 1.542 1.545a.765.765 0 0 0 .08.004.54.54 0 0 0 .21-.039.578.578 0 0 0 .223-.176L14.836 14h3.665v2.185a.568.568 0 0 0 .224.177.55.55 0 0 0 .21.038.88.88 0 0 0 .08-.004l1.545-1.542 2.588 2.592-1.545 1.543a.59.59 0 0 0 .033.284.588.588 0 0 0 .179.23m.85 1.335-.852-.001h-.47l-.366-.297a1.909 1.909 0 0 1-.57-.75 1.911 1.911 0 0 1-.13-.94l.049-.47.335-.334.601-.6-.704-.706-.602.6-.342.342-.481.043a1.883 1.883 0 0 1-.909-.127 1.893 1.893 0 0 1-.764-.579l-.292-.365v-1.32h-1V16.653l-.295.367a1.894 1.894 0 0 1-.746.569 1.892 1.892 0 0 1-.946.13l-.47-.05-.333-.333-.599-.6-.706.707.599.599.33.33.052.465c.036.33-.004.642-.12.93a1.936 1.936 0 0 1-.583.77l-.366.293h-1.319v1h1.318l.366.293c.255.205.447.454.57.741.127.316.169.631.132.96l-.052.465-.33.331-.602.6.706.706.603-.601.322-.322.453-.057a1.858 1.858 0 0 1 .951.12c.31.132.56.325.766.582l.293.365V27.333h1v-1.317l.292-.365c.207-.26.459-.452.747-.574a1.903 1.903 0 0 1 .952-.13l.467.051.332.333.6.602.708-.707-.603-.606-.328-.33-.053-.461a1.875 1.875 0 0 1 .128-.945c.114-.28.305-.534.562-.746l.37-.304.478.001.85.001zm2.472-4.799-.004.004v1.872l3.683 3.656-3.683 3.687v1.876l.005.005 5.566-5.57z"/>
</g></svg>
