<svg viewBox="0 0 32 32" xmlns="http://www.w3.org/2000/svg">
  <path d="m16.15 16.803 4.812 2.53-.919-5.358 3.894-3.795-5.38-.782-2.407-4.875-2.406 4.875-5.38.782 3.893 3.795-.92 5.358zm-4.921-5.692 2.707-.393.693-.101.31-.629 1.211-2.453 1.21 2.453.31.629.695.1 2.706.394-1.958 1.909-.502.49.118.69.462 2.696-2.42-1.273-.62-.326-.621.326-2.421 1.273.462-2.696.118-.69-.502-.49zM0 20h5.333v10.667H0v-1.334h4v-8H0zm7.725.052c-.449.128-.85.35-1.195.633A11.93 11.93 0 0 1 4 13.333c0-6.627 5.373-12 12-12s12 5.373 12 12c0 3.58-1.576 6.784-4.061 8.982l-2.737 1.58a3.4 3.4 0 0 0-.112-.765c-.034-.125-.088-.24-.134-.36 3.39-1.787 5.71-5.344 5.71-9.437 0-5.881-4.784-10.666-10.666-10.666S5.333 7.452 5.333 13.333c0 2.545.9 4.883 2.392 6.719m18.46 3.182a1.97 1.97 0 0 0-1.517.2l-6.88 3.972a.68.68 0 0 1-.666 0l-3.109-1.794a.667.667 0 1 1 .667-1.156l2.19 1.267a2 2 0 0 0 2.73-.733 2 2 0 0 0-.73-2.732l-3.317-1.916a3.3 3.3 0 0 0-2.53-.334l-4.906 1.315a2 2 0 0 0-1.482 1.932v4.565c0 .904.61 1.698 1.482 1.933l7.96 2.131a3.3 3.3 0 0 0 2.53-.332l8.06-4.654a2.002 2.002 0 0 0-.483-3.664M26 25.744l-8.06 4.653a2 2 0 0 1-1.52.2l-7.958-2.132a.67.67 0 0 1-.495-.645v-4.565c0-.301.204-.566.494-.644l4.902-1.314q.263-.07.527-.07c.347 0 .69.093.995.27l3.317 1.915a.668.668 0 0 1-.665 1.156l-2.198-1.27a2.003 2.003 0 0 0-2.926 2.256c.138.512.468.942.933 1.213l3.112 1.796a2 2 0 0 0 1.996-.002l6.884-3.975a.63.63 0 0 1 .501-.063.667.667 0 0 1 .16 1.221"/>
</svg>
