<svg xml:space="preserve" viewBox="0 0 32 32" xmlns="http://www.w3.org/2000/svg"><g id="icon">
  <path d="M30 7.992h.659v-2.65H30a.675.675 0 0 1-.675-.675v-.66h-2.65v.66a.675.675 0 0 1-1.35 0v-.66h-2.65v.66a.675.675 0 0 1-1.35 0v-.66h-2.65v.66a.675.675 0 0 1-1.35 0v-.66h-2.65v.66a.676.676 0 0 1-1.35 0v-.66h-2.65v.66a.675.675 0 0 1-1.35 0v-.66h-2.65v.66a.675.675 0 0 1-1.35 0v-.66h-2.65v.66A.675.675 0 0 1 2 5.34h-.659v2.651H2a.675.675 0 0 1 0 1.35h-.659v2.65H2a.675.675 0 0 1 0 1.35h-.659v2.65H2a.676.676 0 0 1 0 1.35h-.659v2.65H2a.675.675 0 0 1 0 1.35h-.659v2.65H2a.675.675 0 0 1 0 1.35h-.659v2.65H2c.372 0 .674.302.674.675v.658h2.652v-.658a.675.675 0 0 1 1.348 0v.658h2.652v-.658a.675.675 0 0 1 1.348 0v.658h2.652v-.658a.675.675 0 0 1 1.349 0v.658h2.65v-.658a.675.675 0 0 1 1.35 0v.658h2.65v-.658a.675.675 0 0 1 1.35 0v.658h2.65v-.658a.675.675 0 0 1 1.35 0v.658h2.65v-.658c0-.373.303-.675.675-.675h.659v-2.65H30a.675.675 0 0 1 0-1.35h.659v-2.65H30a.675.675 0 0 1 0-1.35h.659v-2.65H30a.675.675 0 0 1 0-1.35h.659v-2.65H30a.675.675 0 0 1 0-1.35h.659v-2.65H30a.675.675 0 0 1 0-1.35m-.675-1.217c-.776.278-1.333 1.021-1.333 1.892s.557 1.613 1.333 1.89v.218c-.776.278-1.333 1.021-1.333 1.892s.557 1.613 1.333 1.89v.218a2.011 2.011 0 0 0-1.333 1.892c0 .87.557 1.613 1.333 1.89v.218a2.011 2.011 0 0 0-1.333 1.892c0 .87.557 1.613 1.333 1.89v.218a2.011 2.011 0 0 0-1.333 1.892c0 .87.557 1.613 1.333 1.89v.218a2.018 2.018 0 0 0-1.216 1.217h-.218c-.277-.776-1.02-1.333-1.891-1.333s-1.614.557-1.891 1.333h-.218c-.277-.776-1.02-1.333-1.891-1.333s-1.614.557-1.891 1.333h-.218c-.277-.776-1.02-1.333-1.891-1.333s-1.614.557-1.891 1.333h-.218c-.277-.776-1.02-1.333-1.891-1.333s-1.614.557-1.891 1.333h-.218c-.277-.776-1.02-1.333-1.891-1.333s-1.614.557-1.891 1.333H7.89C7.614 27.216 6.871 26.66 6 26.66s-1.614.557-1.891 1.333H3.89a2.018 2.018 0 0 0-1.217-1.217v-.217a2.011 2.011 0 0 0 1.334-1.891c0-.871-.557-1.614-1.334-1.892v-.217a2.011 2.011 0 0 0 1.334-1.891c0-.871-.557-1.614-1.334-1.892v-.217a2.011 2.011 0 0 0 1.334-1.891c0-.871-.557-1.614-1.334-1.892v-.217c.777-.278 1.334-1.02 1.334-1.891s-.557-1.614-1.334-1.892v-.217c.777-.278 1.334-1.02 1.334-1.891S3.45 7.053 2.674 6.775v-.217A2.018 2.018 0 0 0 3.891 5.34h.218c.277.776 1.02 1.333 1.891 1.333s1.614-.557 1.891-1.333h.218c.277.776 1.02 1.333 1.891 1.333s1.614-.557 1.891-1.333h.218c.277.776 1.02 1.333 1.891 1.333s1.614-.557 1.891-1.333h.218c.277.776 1.02 1.333 1.891 1.333s1.614-.557 1.891-1.333h.218c.277.776 1.02 1.333 1.891 1.333s1.614-.557 1.891-1.333h.218c.277.776 1.02 1.333 1.891 1.333s1.614-.557 1.891-1.333h.218a2.018 2.018 0 0 0 1.216 1.217zm-14.391 4.758L11.28 20.84h1.933l.813-2.147h3.88l.813 2.147h2.04l-3.706-9.307zm-.427 5.746.774-2.173c.053-.142.11-.31.173-.5l.193-.587c.067-.2.127-.389.18-.567.053-.177.098-.328.133-.453h.027c.027.125.067.276.12.453l.167.567a16.442 16.442 0 0 0 .353 1.087l.773 2.173z"/>
</g></svg>
