<svg xml:space="preserve" viewBox="0 0 32 32" xmlns="http://www.w3.org/2000/svg"><g id="icon">
  <path d="M30 7.992h.659v-2.65H30a.675.675 0 0 1-.675-.675v-.66h-2.65v.66a.675.675 0 0 1-1.35 0v-.66h-2.65v.66a.675.675 0 0 1-1.35 0v-.66h-2.65v.66a.675.675 0 0 1-1.35 0v-.66h-2.65v.66a.676.676 0 0 1-1.35 0v-.66h-2.65v.66a.675.675 0 0 1-1.35 0v-.66h-2.65v.66a.675.675 0 0 1-1.35 0v-.66h-2.65v.66A.675.675 0 0 1 2 5.34h-.659v2.651H2a.675.675 0 0 1 0 1.35h-.659v2.65H2a.675.675 0 0 1 0 1.35h-.659v2.65H2a.676.676 0 0 1 0 1.35h-.659v2.65H2a.675.675 0 0 1 0 1.35h-.659v2.65H2a.675.675 0 0 1 0 1.35h-.659v2.65H2c.372 0 .674.302.674.675v.658h2.652v-.658a.675.675 0 0 1 1.348 0v.658h2.652v-.658a.675.675 0 0 1 1.348 0v.658h2.652v-.658a.675.675 0 0 1 1.349 0v.658h2.65v-.658a.675.675 0 0 1 1.35 0v.658h2.65v-.658a.675.675 0 0 1 1.35 0v.658h2.65v-.658a.675.675 0 0 1 1.35 0v.658h2.65v-.658c0-.373.303-.675.675-.675h.659v-2.65H30a.675.675 0 0 1 0-1.35h.659v-2.65H30a.675.675 0 0 1 0-1.35h.659v-2.65H30a.675.675 0 0 1 0-1.35h.659v-2.65H30a.675.675 0 0 1 0-1.35h.659v-2.65H30a.675.675 0 0 1 0-1.35m-.675-1.217c-.776.278-1.333 1.021-1.333 1.892s.557 1.613 1.333 1.89v.218c-.776.278-1.333 1.021-1.333 1.892s.557 1.613 1.333 1.89v.218a2.011 2.011 0 0 0-1.333 1.892c0 .87.557 1.613 1.333 1.89v.218a2.011 2.011 0 0 0-1.333 1.892c0 .87.557 1.613 1.333 1.89v.218a2.011 2.011 0 0 0-1.333 1.892c0 .87.557 1.613 1.333 1.89v.218a2.018 2.018 0 0 0-1.216 1.217h-.218c-.277-.776-1.02-1.333-1.891-1.333s-1.614.557-1.891 1.333h-.218c-.277-.776-1.02-1.333-1.891-1.333s-1.614.557-1.891 1.333h-.218c-.277-.776-1.02-1.333-1.891-1.333s-1.614.557-1.891 1.333h-.218c-.277-.776-1.02-1.333-1.891-1.333s-1.614.557-1.891 1.333h-.218c-.277-.776-1.02-1.333-1.891-1.333s-1.614.557-1.891 1.333H7.89C7.614 27.216 6.871 26.66 6 26.66s-1.614.557-1.891 1.333H3.89a2.018 2.018 0 0 0-1.217-1.217v-.217a2.011 2.011 0 0 0 1.334-1.891c0-.871-.557-1.614-1.334-1.892v-.217a2.011 2.011 0 0 0 1.334-1.891c0-.871-.557-1.614-1.334-1.892v-.217a2.011 2.011 0 0 0 1.334-1.891c0-.871-.557-1.614-1.334-1.892v-.217c.777-.278 1.334-1.02 1.334-1.891s-.557-1.614-1.334-1.892v-.217c.777-.278 1.334-1.02 1.334-1.891S3.45 7.053 2.674 6.775v-.217A2.018 2.018 0 0 0 3.891 5.34h.218c.277.776 1.02 1.333 1.891 1.333s1.614-.557 1.891-1.333h.218c.277.776 1.02 1.333 1.891 1.333s1.614-.557 1.891-1.333h.218c.277.776 1.02 1.333 1.891 1.333s1.614-.557 1.891-1.333h.218c.277.776 1.02 1.333 1.891 1.333s1.614-.557 1.891-1.333h.218c.277.776 1.02 1.333 1.891 1.333s1.614-.557 1.891-1.333h.218c.277.776 1.02 1.333 1.891 1.333s1.614-.557 1.891-1.333h.218a2.018 2.018 0 0 0 1.216 1.217v.217m-20.34 6-2.922 7.444h1.546l.65-1.718h3.105l.651 1.718h1.631l-2.964-7.445H8.986zm-.341 4.596.619-1.738c.042-.114.089-.248.138-.4l.155-.47c.053-.16.102-.31.144-.453.043-.142.078-.263.107-.363h.021c.022.1.054.221.096.363.043.142.087.294.133.454a15.37 15.37 0 0 0 .283.869l.619 1.738H8.644m8.469-4.597h1.282L15.79 20.22h-1.292l2.614-7.445m6.422 3.637v-.021c.52-.107.906-.311 1.163-.613.256-.302.384-.667.384-1.093 0-.342-.066-.633-.198-.875a1.593 1.593 0 0 0-.56-.592 2.61 2.61 0 0 0-.873-.336 5.578 5.578 0 0 0-1.132-.107h-2.283v7.445h2.316c.37 0 .729-.034 1.076-.102.35-.066.66-.178.934-.336.273-.156.495-.366.661-.629s.25-.587.25-.97c0-.49-.152-.89-.458-1.2-.306-.31-.732-.5-1.28-.57m-2.048-2.528h.544c.214 0 .417.015.608.043.192.028.361.08.507.155.146.075.259.176.341.304s.122.295.122.501a.96.96 0 0 1-.127.523.867.867 0 0 1-.352.314c-.15.075-.33.125-.544.15a6.144 6.144 0 0 1-.704.037h-.395v-2.027zm1.845 4.966c-.292.167-.742.25-1.354.25h-.491v-2.144h.417c.639 0 1.11.08 1.412.24s.454.433.454.817c0 .39-.146.669-.438.837"/>
</g></svg>
