<svg viewBox="0 0 32 32" xmlns="http://www.w3.org/2000/svg">
  <path d="m30.648 26.018-4.765 4.745h-1.871l-.01-.01 4.077-4.059H16.211v-1.333h11.895l-4.05-4.054h1.885zM1.333 20v-.936l-.002-.003.002-.003V4.485h21.334v14.573l.002.003-.002.003V20zm7.449-6.969-5.26 5.636H20.48l-5.26-5.636-1.522 1.646c-.45.512-1.073.768-1.697.768s-1.247-.256-1.697-.768zm12.551-6.618-5.207 5.636 5.207 5.58zm-17.4-.595 7.35 7.955c.262.297.56.338.717.338s.455-.04.696-.314l7.371-7.979zM2.667 17.63l5.207-5.581-5.207-5.636z"/>
</svg>
