<svg xml:space="preserve" viewBox="0 0 32 32" xmlns="http://www.w3.org/2000/svg"><g id="icon">
  <path fill="currentColor" d="M22.667 17.61V2.667H7.723l-6.39 6.39V24h14.944l6.39-6.39zm-1.334-.552-4.612 4.612V9.484l4.612-4.548v12.122zM8.275 4h12.11l-4.65 4.583H3.692L8.275 4zM2.667 9.917h12.72v12.75H2.667V9.917zM14.054 4.67l-3.098 3.068h4.455L18.51 4.67h-4.455zm.809 1.735h-.667l.406-.402h.667l-.406.402zm15.785 19.613-4.765 4.745h-1.871l-.01-.01 4.077-4.059H16.211v-1.333h11.895l-4.05-4.054h1.885l4.707 4.711z"/>
</g></svg>
