<svg xml:space="preserve" viewBox="0 0 32 32" xmlns="http://www.w3.org/2000/svg"><g id="icon">
  <path fill="currentColor" d="M24.983 4.667H7.007l-7-1.868v23.736l7-1.868h.33v4.33c0 .922.746 1.67 1.668 1.67h1.992a1.67 1.67 0 0 0 1.67-1.67v-4.33h6.662v4.33c0 .922.747 1.67 1.67 1.67h1.99a1.67 1.67 0 0 0 1.67-1.67v-4.33h.324l7.005 1.869V2.797l-7.005 1.87zm0 17.08-3.35-6.27V6h3.35v15.748zM20.3 15.334h-9.351V6h9.35v9.333zm-9.683 1.334h4.733v2.609H9.526l1.09-2.61zm6.066 0h4.073l1.395 2.609h-5.468v-2.61zM9.616 6v9.604l-2.609 6.24V6h2.609zM1.34 4.534 5.67 5.69v17.953L1.34 24.8V4.534zm9.994 24.463a.337.337 0 0 1-.337.336H9.005a.337.337 0 0 1-.336-.336v-4.33h2.665v4.33zM7.83 23.333 8.97 20.61h6.381v2.724H7.83zm8.853 0V20.61h6.18l1.455 2.724h-7.635zm6.644 5.664a.337.337 0 0 1-.337.336h-1.992a.337.337 0 0 1-.337-.336v-4.33h2.666v4.33zm7.329-4.197-4.331-1.155V5.688l4.33-1.155V24.8z"/>
</g></svg>
