<svg viewBox="0 0 32 32" xmlns="http://www.w3.org/2000/svg">
  <path d="M24.992 4.67H7.026L.013 2.798v23.744l7.013-1.872h.329V29c0 .922.747 1.67 1.668 1.67h1.99a1.67 1.67 0 0 0 1.67-1.67v-4.33h6.659V29c0 .922.746 1.67 1.668 1.67H23A1.67 1.67 0 0 0 24.67 29v-4.33h.323l6.986 1.865V2.805zm0 17.082-3.348-6.27V6.004h3.348zm-4.68-6.415h-6.98V10.71c0-1.108.9-2.009 2.007-2.009s2.007.901 2.007 2.01v.562L16.005 9.93v1.886l1.999 2 1.803-1.805v-1.886l-1.13 1.132v-.547c0-1.843-1.497-3.342-3.338-3.342S12 8.868 12 10.71v4.626h-1.035V6.003h9.347zm-9.678 1.333H12v1.318h1.332V16.67h2.033v2.609H9.544zm6.063 0h4.07l1.394 2.609h-5.464zM9.633 6.003v9.605l-2.607 6.24V6.003zm-8.288-1.47 4.345 1.16v17.954l-4.345 1.16zM11.35 29a.337.337 0 0 1-.336.337h-1.99A.337.337 0 0 1 8.686 29v-4.33h2.663zm-3.502-5.663 1.139-2.725h6.378v2.725zm8.849 0v-2.725h6.176l1.455 2.725zM23.337 29a.337.337 0 0 1-.336.337H21.01a.337.337 0 0 1-.337-.337v-4.33h2.664zm7.31-4.2-4.313-1.152V5.692l4.312-1.151z"/>
</svg>
