<svg viewBox="0 0 32 32" xmlns="http://www.w3.org/2000/svg">
  <path d="M13.058 18.116h1.333v3.216h-1.333zm4.555 3.216h1.334V18.13h-1.334zm-7.28-3.41v3.41h1.334v-3.41a2.12 2.12 0 0 1 2.117-2.118h4.432a2.12 2.12 0 0 1 2.117 2.118v3.41h1.334v-3.41a3.45 3.45 0 0 0-3.45-3.45h-4.433a3.46 3.46 0 0 0-3.45 3.45m2.834-7.09a2.833 2.833 0 1 1 5.666 0 2.833 2.833 0 0 1-5.666 0m1.333 0a1.501 1.501 0 0 0 3 0c0-.827-.673-1.5-1.5-1.5s-1.5.673-1.5 1.5M32 16c0 8.837-7.163 16-16 16-3.286 0-6.318-1.017-8.855-2.72a2.65 2.65 0 0 1-1.812.72A2.667 2.667 0 1 1 8 27.333c0 .286-.057.557-.14.815 2.33 1.575 5.12 2.519 8.14 2.519 8.087 0 14.667-6.58 14.667-14.667a14.56 14.56 0 0 0-2.291-7.837l1.022-.893A15.9 15.9 0 0 1 32 16M6.667 27.333a1.334 1.334 0 1 0-1.333 1.333c.735 0 1.333-.597 1.333-1.333M6.145 11.93A10.6 10.6 0 0 0 5.333 16c0 5.882 4.785 10.667 10.667 10.667 2.668 0 5.097-1 6.969-2.625a2.64 2.64 0 0 1-.636-1.709A2.667 2.667 0 1 1 25 25a2.6 2.6 0 0 1-.926-.175C21.941 26.782 19.123 28 16 28 9.373 28 4 22.627 4 16c0-1.745.38-3.397 1.05-4.893zm17.522 10.404c0 .736.598 1.334 1.333 1.334a1.335 1.335 0 0 0 0-2.667c-.735 0-1.333.598-1.333 1.333M28 16c0 .985-.132 1.937-.356 2.853l-1.245-.51c.17-.755.268-1.537.268-2.343 0-5.882-4.785-10.667-10.667-10.667-2.021 0-3.89.599-5.498 1.582.148.332.234.697.234 1.084A2.667 2.667 0 1 1 8.07 5.332c.595 0 1.14.203 1.584.533C11.498 4.703 13.659 4 16 4c6.627 0 12 5.373 12 12M9.403 7.999a1.335 1.335 0 0 0-2.667 0A1.335 1.335 0 0 0 9.403 8m-6.08 15.344-1.057.834A15.9 15.9 0 0 1 0 16C0 7.163 7.163 0 16 0c3.095 0 5.968.903 8.414 2.427a2.66 2.66 0 0 1 2.032-.608 2.667 2.667 0 1 1-2.968 2.327c.027-.221.088-.428.164-.628A14.5 14.5 0 0 0 16 1.333C7.913 1.333 1.333 7.913 1.333 16c0 2.677.733 5.18 1.99 7.343M24.802 4.306A1.335 1.335 0 0 0 26.129 5.8a1.333 1.333 0 1 0-1.327-1.494"/>
</svg>
