<svg xml:space="preserve" viewBox="0 0 32 32" xmlns="http://www.w3.org/2000/svg"><g id="icon">
  <path fill="currentColor" d="M21.124 5.484c-1.408-.576-2.774-.864-4.095-.864-1.195 0-2.16.267-2.896.8-.737.534-1.104 1.249-1.104 2.144 0 .683.218 1.238.656 1.665.437.427 1.168.853 2.192 1.28 1.045.427 1.977.821 2.799 1.183.821.363 1.514.753 2.08 1.169.566.416.997.885 1.296 1.407.298.524.448 1.168.448 1.936 0 1.024-.267 1.899-.8 2.624a5.696 5.696 0 0 1-2.08 1.728c.64.427 1.137.928 1.488 1.504.352.577.529 1.238.529 1.984 0 .832-.167 1.573-.496 2.224a4.563 4.563 0 0 1-1.361 1.616 6.335 6.335 0 0 1-2 .977 8.473 8.473 0 0 1-2.415.336c-.854 0-1.718-.076-2.592-.224a12.674 12.674 0 0 1-2.528-.705l.256-2.048c1.685.747 3.328 1.12 4.928 1.12 1.13 0 2.084-.255 2.863-.767.778-.513 1.168-1.292 1.168-2.336 0-.384-.059-.715-.176-.992s-.298-.534-.544-.768a5.186 5.186 0 0 0-.976-.705c-.405-.234-.896-.479-1.471-.736a56.6 56.6 0 0 0-2.56-1.12 10.74 10.74 0 0 1-2.048-1.072 4.65 4.65 0 0 1-1.36-1.392c-.332-.533-.496-1.237-.496-2.112 0-1.024.276-1.893.832-2.608a5.407 5.407 0 0 1 2.144-1.647c-.62-.427-1.088-.907-1.409-1.44-.32-.534-.48-1.174-.48-1.92 0-.726.155-1.387.465-1.985a4.815 4.815 0 0 1 1.28-1.552c.544-.437 1.194-.773 1.952-1.008a8.352 8.352 0 0 1 2.48-.352c1.557 0 2.975.224 4.255.673l-.224 1.983zm-6.975 6.336c-.704.3-1.27.731-1.697 1.297-.426.565-.64 1.22-.64 1.968 0 .469.08.869.24 1.199.16.332.406.635.737.913.33.277.752.539 1.264.783s1.12.507 1.824.784l2.366.96a3.855 3.855 0 0 0 1.633-1.168c.426-.522.64-1.178.64-1.967 0-.918-.342-1.649-1.024-2.193-.683-.544-1.728-1.104-3.135-1.68l-2.208-.896z"/>
</g></svg>
