<svg viewBox="0 0 32 32" xmlns="http://www.w3.org/2000/svg">
  <path d="M8.683 8.03H3.359a3.38 3.38 0 0 0-3.377 3.38v6.523a3.38 3.38 0 0 0 2.722 3.312l.014 10.746h6.655L9.36 21.243a3.384 3.384 0 0 0 2.7-3.31V11.41a3.38 3.38 0 0 0-3.377-3.38m2.046 9.903c0 .89-.575 1.642-1.37 1.922l-.01-7.85-1.332.002.024 18.651H6.687V19.993H5.355v10.665H4.048l-.024-18.652-1.331.001.01 7.854a2.04 2.04 0 0 1-1.39-1.928V11.41c0-1.129.918-2.047 2.046-2.047h5.324c1.128 0 2.046.918 2.046 2.047zM6.005 6.683c1.839 0 3.343-1.506 3.343-3.346S7.844-.01 6.005-.01c-1.84 0-3.344 1.505-3.344 3.346s1.504 3.346 3.344 3.346m0-5.36a2.015 2.015 0 0 1 0 4.028c-1.11 0-2.013-.904-2.013-2.014s.903-2.014 2.013-2.014M29.962 20h-12.66l-1.983 5.994h.021v5.996h1.332v-5.996h13.27v5.996h1.331v-5.996h.035zm-12.8 4.662 1.101-3.33h10.634l.747 3.33zm2.799-2.332h7.327v1.333h-7.327zm8.024-20.977h-9.611v10.658h9.61zm-1.332 9.326h-6.948V2.686h6.948zm-3.942-2.134-1.843-1.62.88-1 .903.795 2.222-2.223.941.942zm1.258 4.337v4.004l1.438-1.438v1.883l-2.1 2.1-2.168-2.18v-1.867l.01-.01 1.489 1.496v-3.988z"/>
</svg>
