<svg xml:space="preserve" viewBox="0 0 32 32" xmlns="http://www.w3.org/2000/svg"><g id="icon">
  <path d="M22.667 11.329a3.308 3.308 0 0 0-3.298-3.298H12.63a3.308 3.308 0 0 0-3.298 3.298v8.004h13.334V11.33zM21.333 18h-1.34v-5.303h-1.334V18h-5.367v-5.303H11.96V18h-1.292v-6.671c0-1.084.881-1.965 1.964-1.965h6.738c1.083 0 1.964.881 1.964 1.965V18zM15.974 6.697a3.308 3.308 0 1 0 0-6.615 3.308 3.308 0 0 0 0 6.615m0-5.282c1.089 0 1.975.886 1.975 1.975a1.977 1.977 0 0 1-1.975 1.974A1.977 1.977 0 0 1 14 3.39c0-1.089.886-1.975 1.974-1.975zm6.043 19.918c-1.964 0-3.658 1.08-4.578 2.667H5.74l-2.666 2.667 2.666 2.666h2l.667.667c.26.26.601.39.943.39.341 0 .683-.13.942-.39l.667-.667h.781l.667.667c.26.26.602.39.943.39.34 0 .683-.13.942-.39l.667-.667h2.479C18.359 30.92 20.053 32 22.017 32c2.942 0 5.334-2.393 5.334-5.333s-2.392-5.334-5.334-5.334m0 9.334c-1.417 0-2.698-.749-3.425-2.003L18.206 28h-3.798l-.39.39-.667.667-.667-.667-.39-.39H10.408l-.39.39-.667.667-.667-.667-.39-.39h-2L4.96 26.667l1.334-1.334H18.206l.386-.664c.727-1.254 2.008-2.002 3.425-2.002 2.206 0 4 1.794 4 4 0 2.205-1.794 4-4 4m0-6c-1.102 0-2 .897-2 2s.898 2 2 2 2-.897 2-2-.897-2-2-2m0 2.666a.667.667 0 1 1 .002-1.335.667.667 0 0 1-.002 1.335M0 6.695V5.36A1.975 1.975 0 0 0 1.949 3.39c0-1.08-.873-1.958-1.949-1.972V.085a3.306 3.306 0 0 1 0 6.61zm6.667 12.638H0V18h2.659v-5.303h1.333V18h1.341v-6.671A1.967 1.967 0 0 0 3.37 9.364H0V8.031h3.369a3.308 3.308 0 0 1 3.298 3.298v8.004zM30 3.39c0 1.088.886 1.974 1.974 1.974.01 0 .017-.002.026-.003v1.334l-.026.002a3.308 3.308 0 0 1 0-6.615c.01 0 .017.003.026.003v1.333c-.009 0-.017-.003-.026-.003A1.977 1.977 0 0 0 30 3.39m-1.369 4.64H32v1.334h-3.369a1.967 1.967 0 0 0-1.964 1.965V18h1.293v-5.303h1.333V18H32v1.333h-6.667V11.33a3.308 3.308 0 0 1 3.298-3.298"/>
</g></svg>
