<svg xml:space="preserve" viewBox="0 0 32 32" xmlns="http://www.w3.org/2000/svg"><g id="icon">
  <path d="M27.388 4H4.612a1.95 1.95 0 0 0-1.945 1.945v14.777a1.95 1.95 0 0 0 1.945 1.945H12V28H6.667v1.333h18.666V28h-5.418v-5.333h7.473a1.95 1.95 0 0 0 1.945-1.945V5.945A1.95 1.95 0 0 0 27.388 4m-8.055 9.333h-6V8h6v5.333m-7.333 0h-1.333v1.334H22v-1.334h-1.333v-2h2.208L23.733 16H8.423l1.264-4.667H12v2m11.965 4v4H8v-4h15.965M18.582 28h-5.249v-5.333h5.249V28M28 20.722a.62.62 0 0 1-.612.611h-2.09v-4L23.986 10h-3.32V6.667H12V10H8.667l-2 7.333v4H4.612A.62.62 0 0 1 4 20.722V5.945a.62.62 0 0 1 .612-.612h22.776a.62.62 0 0 1 .612.612v14.777m-12.333-7.78-1.972-1.97.943-.943 1.029 1.028 2.195-2.195.943.943-3.138 3.138"/>
</g></svg>
