<svg viewBox="0 0 32 32" xmlns="http://www.w3.org/2000/svg">
  <path d="M28.667 5.333H3.713C2.4 5.333 1.333 6.365 1.333 8v16c0 1.635 1.068 2.667 2.38 2.667h24.954c1.312 0 2-1.032 2-2.667V8c0-1.635-.688-2.667-2-2.667M2.667 24V8c0-.81.41-1.333 1.046-1.333H24v18.666H3.713c-.636 0-1.046-.523-1.046-1.333m26.666 0c0 1.333-.484 1.333-.666 1.333h-3.334V6.667h3.334c.182 0 .666 0 .666 1.333zm-2.666-9.333H28v2.666h-1.333zM21.333 10H4V8.667h17.333zM16 12.602H4v-1.334h12zM4 24h10.667v-9.333H4zm1.333-8h8v6.667h-8zM16 14.667V24h6.667v-9.333zm5.333 8h-4V16h4zm-10.43-5.138.943.942-3.108 3.108-1.845-1.62.88-1.002.906.797z"/>
</svg>
