<svg viewBox="0 0 32 32" xmlns="http://www.w3.org/2000/svg">
  <path d="M27.996 24.5h.662v1.019h-3.8v-.988q.602-.457 1.031-.817t.703-.668c.275-.308.318-.398.403-.58q.128-.275.127-.543a.7.7 0 0 0-.067-.327.6.6 0 0 0-.18-.21.8.8 0 0 0-.264-.112 1.4 1.4 0 0 0-.315-.033q-.3 0-.606.081-.305.083-.621.256l-.128-1.071q.33-.151.786-.234.455-.081.921-.082a3 3 0 0 1 .697.082q.342.083.61.27.266.189.432.487c.166.298.165.443.165.727q0 .248-.052.483a1.8 1.8 0 0 1-.185.48q-.131.242-.357.506a6 6 0 0 1-.571.562 9 9 0 0 1-.934.72v.015q.369-.015.764-.02l.78-.004M21.33 5.272c0-2.934 2.388-5.313 5.334-5.313s5.334 2.379 5.334 5.313-2.388 5.313-5.334 5.313-5.334-2.379-5.334-5.313m1.333 0c0 2.197 1.795 3.985 4.001 3.985s4.001-1.788 4.001-3.985-1.795-3.985-4-3.985c-2.207 0-4.002 1.788-4.002 3.985m3.724 2.7q.534 0 .967-.138t.737-.393q.305-.255.47-.611.165-.355.166-.79 0-.375-.138-.672a1.5 1.5 0 0 0-.385-.501 1.7 1.7 0 0 0-.583-.315 2.4 2.4 0 0 0-.737-.109q-.165 0-.27.008-.107.007-.28.037l.015-.877h2.16v-.966h-3.325l-.03 2.862q.256-.067.507-.105.252-.036.5-.037.565 0 .888.176t.323.58c0 .405-.099.473-.296.608q-.297.202-.839.202a3.5 3.5 0 0 1-1.129-.195l-.068 1.08a5.7 5.7 0 0 0 1.347.156M0 5.398C0 2.463 2.388.085 5.334.085s5.335 2.378 5.335 5.313S8.28 10.71 5.334 10.71 0 8.332 0 5.398m1.333 0c0 2.197 1.795 3.984 4.001 3.984s4.001-1.787 4.001-3.984-1.794-3.985-4-3.985S1.332 3.2 1.332 5.398m2.64-.74q.218-.15.429-.321.21-.173.308-.263h.016q-.008.105-.012.281l-.008.382-.006.416q-.004.21-.004.375V8H6.08V2.77H4.846l-1.76 1.17.616.913zm9.29 6.733q.195-.018.397-.052.2-.035.298-.058l.01.005q-.045.068-.113.18c-.068.111-.093.156-.145.246l-.16.267-.14.242-.914 1.607.901.508 1.932-3.4-.802-.453-1.576.116.063.819zm1.626 1.637q.28-.491.559-.796a1.7 1.7 0 0 1 .577-.435q.294-.13.617-.087.32.045.682.248.658.369.738.973.085.603-.416 1.484-.539.945-1.11 1.204-.573.26-1.253-.123-.686-.388-.787-.991-.103-.604.393-1.477m.545 1.354q-.05.366.18.496.22.124.508-.1.289-.223.614-.793.344-.607.39-.96.049-.346-.186-.48-.231-.129-.506.078-.276.207-.598.772-.35.62-.402.987m16.564 8.44c0 2.933-2.388 5.312-5.334 5.312-1.1 0-2.1-.361-2.946-.934-.042.013-.087.017-.13.026v2.423a2.32 2.32 0 0 1-2.32 2.311H3.592a2.26 2.26 0 0 1-2.263-2.255V15.703c0-1.323 1.08-2.4 2.41-2.4h1.368v-.01l3.943.003 4.559-8.023 12.215 6.885-2.984 5.25a2.3 2.3 0 0 1 .676 1.147 5.3 5.3 0 0 1 3.148-1.047c2.946 0 5.334 2.379 5.334 5.313m-14.125-.002-.005 3.125 5.461.005.005-3.125-.005-.005zm-9.27-6.042 9.185.006a1.2 1.2 0 0 1-.298-.592q-.104-.604.393-1.476a4.4 4.4 0 0 1 .558-.797q.281-.305.577-.435a1.15 1.15 0 0 1 .617-.086q.322.043.684.247.656.37.737.973.084.603-.417 1.485a4.4 4.4 0 0 1-.473.682l1.102.001c.128 0 .25.018.373.038l2.366-4.164-9.894-5.577zm10.005-.212q.219.123.508-.1t.612-.793q.346-.608.393-.96.047-.347-.187-.48-.23-.13-.507.077-.276.208-.598.772-.35.62-.4.987-.052.367.18.497m-15.946-.863c0 .59.483 1.071 1.076 1.071l3.334.003 1.223-2.154-2.608-.002v.01h-1.95c-.593 0-1.076.481-1.076 1.072M22.254 29.65v-2.37h-4.381c-.74 0-1.338-.598-1.338-1.334v-3.12c0-.736.599-1.333 1.338-1.333h4.38v-2.395a.986.986 0 0 0-.985-.983l-17.53-.012c-.386 0-.752-.09-1.076-.253v11.856c0 .51.417.927.93.927h17.676c.543 0 .986-.44.986-.983m8.411-6.828c0-2.197-1.795-3.985-4-3.985a3.97 3.97 0 0 0-3.078 1.47v1.238c.611.123 1.08.636 1.08 1.281v3.12c0 .096-.035.18-.054.27a3.9 3.9 0 0 0 2.051.591c2.206 0 4.001-1.788 4.001-3.985m-11.237 2.436c.483 0 .875-.39.875-.872a.873.873 0 0 0-.875-.872.873.873 0 0 0-.876.872c0 .481.392.872.876.872"/>
</svg>
