<svg viewBox="0 0 32 32" xmlns="http://www.w3.org/2000/svg">
  <path d="M14.572 25.435h2.245v1.333h-2.245zm9.87-7.307v9.157a2.854 2.854 0 0 1-2.85 2.85H10.247a2.854 2.854 0 0 1-2.851-2.85V18h.116L.625 14.238l6.388-3.49.383-.209V4.716a2.855 2.855 0 0 1 2.851-2.852h11.345c1.572 0 2.85 1.28 2.85 2.852v5.632l7.122 3.89zm-21.035-3.89 12.688 6.931 12.688-6.93-4.34-2.372v2.8h-1.334v-9.95a1.52 1.52 0 0 0-1.517-1.52H10.247a1.52 1.52 0 0 0-1.518 1.52v9.95H7.396v-2.608zm19.702 13.047v-3.042H8.73v3.042a1.52 1.52 0 0 0 1.518 1.517h11.345a1.52 1.52 0 0 0 1.517-1.517m0-8.428-7.014 3.831-7.366-4.023v4.245h14.38zM18.184 6.889l-1.182-.615-.616 1.182 1.183.616zm4.733 2.463-1.183-.616-.617 1.182 1.182.616zM20.549 8.12l-1.182-.615-.614 1.183 1.182.615zM9.352 9.467l.64 1.17 1.17-.642-.641-1.169zm4.147-.753-.64-1.17-1.169.64.64 1.17zm2.339-1.282-.64-1.17-1.17.641.64 1.17zM20 16.4 16 18l-4-1.6v-5.467l4-1.6 4 1.6zm-4-5.63-2.307.922 2.307.923 2.307-.923zm-2.667 4.727 2 .8v-2.512l-2-.8zm5.334 0v-2.512l-2 .8v2.512z"/>
</svg>
