<svg viewBox="0 0 32 32" xmlns="http://www.w3.org/2000/svg">
  <path d="M28.26 8.178c-1.67-.188-2.32-.398-2.829-1.227-.371-.606-.51-1.36-.784-2.035-.087-.212-.239-.482-.423-.554q-3.916-1.516-7.858-2.964a1.2 1.2 0 0 0-.403-.065 1.5 1.5 0 0 0-.507.088c-2.425.903-4.833 1.855-7.26 2.75-.575.212-.854.502-.965 1.152-.311 1.827-1.28 2.662-3.073 2.8-.102.007-.202.034-.341.058-.044.404-.11.79-.124 1.179-.096 2.52.062 5.014.63 7.478 1.44 6.245 4.745 10.923 10.583 13.496.207.091.398.22.597.333h.89c.072-.044.14-.098.215-.13 4.861-1.978 8.201-5.502 10.103-10.51.95-2.505 1.44-5.11 1.594-7.777.077-1.359-.025-2.728-.045-4.072m-1.287 3.996c-.154 2.698-.648 5.111-1.508 7.379-1.796 4.728-4.857 7.917-9.36 9.75l-.07.03h-.169a4 4 0 0 0-.422-.22c-5.184-2.283-8.396-6.397-9.821-12.575-.502-2.174-.697-4.506-.598-7.128l.003-.06c1.97-.387 3.153-1.663 3.518-3.803q.009-.056.018-.087.032-.015.093-.038c1.312-.484 2.618-.984 3.924-1.484a400 400 0 0 1 3.335-1.266l.037-.005c2.393.878 4.91 1.827 7.487 2.822.074.193.137.393.2.592.157.49.334 1.045.655 1.567.66 1.076 1.542 1.477 2.662 1.691l.005.141c.032.935.062 1.817.011 2.694M10 22.667h4.667V20.02h2.666v2.625H22V8.02H10zm1.333-13.313h9.334v11.959h-2v-2.625h-5.334v2.645h-2zm4 8h-2.666v-2.666h2.666zm0-4h-2.666v-2.666h2.666zm4 0h-2.666v-2.666h2.666zm0 4h-2.666v-2.666h2.666z"/>
</svg>
