<svg viewBox="0 0 32 32" xmlns="http://www.w3.org/2000/svg">
  <path d="M11.34 10.329c1.171 0 2.122-.949 2.122-2.118s-.95-2.118-2.123-2.118c-1.172 0-2.122.948-2.122 2.118s.95 2.118 2.122 2.118m.683-3.27a.499.499 0 1 1 .001.997.499.499 0 0 1-.001-.997m-1.165 1.989a.301.301 0 1 1 .001.602.301.301 0 0 1 0-.602M28.503.065H27.17c0 .716 0 1.8-3.391 1.8v.008a7.66 7.66 0 0 0-4.95-1.808h-5.704a7.66 7.66 0 0 0-4.938 1.797C4.928 1.834 4.922.772 4.922.065H3.588c0 1.817 1.1 2.8 3.41 3.056q-.181.236-.343.488a6.6 6.6 0 0 0-1.878 4.602c0 1.681.65 3.201 1.688 4.372q.368.639.849 1.194v5.229c0 2.018 1.157 5.203 3.895 7.923a2.545 2.545 0 0 0-2.03 2.49l1.334 2.544h2.429l.665-1.267.665 1.267H16.7l.634-1.209.082.03.619 1.18h2.429l.177-.338c1.377.245 2.856.4 4.493.4.1 0 .193-.026.279-.066.072.012.134.031.207.042a.668.668 0 0 0 .769-.657v-19.96c0-.028-.013-.052-.016-.08.496-.928.803-1.97.803-3.094 0-1.79-.72-3.41-1.879-4.603a8 8 0 0 0-.328-.47c2.4-.231 3.533-1.222 3.533-3.073m-3.447 30.484c-1.367-.29-2.424-.759-3.275-1.314a2.53 2.53 0 0 0-2.238-2.33c-1.115-1.942-.978-3.902-.962-4.085v-6.38h.248c.326 0 .645-.027.96-.066.004 2.494.819 4.748 2.446 6.7l1.026-.849a9.5 9.5 0 0 1-1.366-2.152l-.58-1.75a9.4 9.4 0 0 1-.191-2.232 7.6 7.6 0 0 0 1.19-.491 8.5 8.5 0 0 0 .87 3.395l1.198-.587a7.16 7.16 0 0 1-.724-3.676c.53-.429.998-.929 1.398-1.482zM11.424 2.909c1.485 0 2.892.654 3.908 1.776v4.697c-1.117.636-2.078 2.632-2.078 3.571l.092.157c-.61.245-1.254.402-1.922.402-2.93 0-5.314-2.378-5.314-5.301s2.384-5.302 5.314-5.302m4.577 7.6c.465.199 1.19 1.43 1.374 2.155l-1.372 2.324-1.373-2.324c.183-.724.907-1.955 1.37-2.155m-4.577 4.334c.91 0 1.785-.22 2.602-.582l.5.847h-1.401a6 6 0 0 1-1.725-.267zm6.545-.564c.805.351 1.667.564 2.561.564l.024-.002a6 6 0 0 1-1.725.267h-1.35zm2.561-.767c-.653 0-1.284-.149-1.882-.383l.104-.176c0-.941-.966-2.938-2.086-3.572V4.642c1.013-1.094 2.4-1.733 3.864-1.733 2.93 0 5.314 2.378 5.314 5.302s-2.384 5.301-5.314 5.301m-1.7-12.117c.518 0 1.014.083 1.495.203a6.6 6.6 0 0 0-4.348 1.817 6.6 6.6 0 0 0-4.348-1.817c.48-.12.977-.203 1.496-.203zm-6.695 29.238h-.815l-.778-1.483a1.217 1.217 0 0 1 2.37 0zm3.759 0h-.815L14.3 29.15a1.217 1.217 0 0 1 2.37 0zm1.474-2.915a2.54 2.54 0 0 0-1.882-.842 2.53 2.53 0 0 0-1.631.604c-3.723-2.652-5.208-6.313-5.208-8.474v-4.013a7.65 7.65 0 0 0 4.478 1.446h2.187l.69 1.17.692-1.17h.554l.004 6.314c-.005.04-.168 2.154.917 4.372a2.5 2.5 0 0 0-.8.593m1.475 2.915-.778-1.483a1.217 1.217 0 0 1 2.37 0l-.777 1.483zM20.2 6.093c-1.172 0-2.122.948-2.122 2.118s.95 2.118 2.122 2.118 2.122-.949 2.122-2.118-.95-2.118-2.122-2.118m-.454 3.375a.3.3 0 1 1 0-.602.3.3 0 0 1 0 .602m1.165-1.594a.499.499 0 1 1-.002-.997.499.499 0 0 1 .002.997"/>
</svg>
