<svg viewBox="0 0 32 32" xmlns="http://www.w3.org/2000/svg">
  <path d="M29.284 4.023V1.356h-1.333v2.667h-1.29V1.356h-1.334v2.667H23.95v3.23a2.11 2.11 0 0 0 2.103 2.103h.617v17.703c0 .183-.15.333-.334.333h-2.851l1.9-8.172-4.167.025a1.406 1.406 0 0 0-1.353 1.048l-1.147 3.491c-.145.551-.61.935-1.162 1.016l-.529-1.572a1.79 1.79 0 0 0-1.695-1.218H11.28c-.768 0-1.45.49-1.695 1.218l-.498 1.48a1.4 1.4 0 0 1-.758-.859l-1.308-3.616a1.41 1.41 0 0 0-1.348-1.006h-.007l-4.282.02 2.352 10.091a1.76 1.76 0 0 0 1.717 1.363h15.862c.82 0 1.532-.565 1.717-1.364l.143-.612h3.161c.92 0 1.667-.747 1.667-1.666V9.356h.51a2.11 2.11 0 0 0 2.104-2.103v-3.23zM10.85 23.653a.455.455 0 0 1 .43-.31h4.053c.196 0 .369.125.431.31l.333.989h-5.58zm10.885 5.382a.43.43 0 0 1-.42.333H5.455a.43.43 0 0 1-.42-.333l-1.972-8.462 2.611-.013c.032 0 .061.021.07.052l.011.038.014.037 1.296 3.585c.249.79.855 1.391 1.6 1.695l-.004.008h.019a2.7 2.7 0 0 0 1.007.214l7.681-.023a2.74 2.74 0 0 0 2.628-1.998l1.137-3.459.012-.038.01-.039a.07.07 0 0 1 .072-.054l2.477-.015zm7.55-21.782a.78.78 0 0 1-.77.77h-2.46a.78.78 0 0 1-.77-.77V5.356h4zM6.652 27.296h13.286v1.333H6.652zm4.542-6.148 8.832-11.315h-4.72L17.587 2.7l-8.83 11.312h4.721zm.295-8.469 2.551-3.268-.562 1.756h3.817l-2.552 3.268.562-1.756z"/>
</svg>
