<svg viewBox="0 0 32 32" xmlns="http://www.w3.org/2000/svg">
  <path d="M30.433 26.741 20.924 8.383a1.71 1.71 0 0 0-1.567-1.027c-.341 0-.677.11-.968.314l-.83-1.6a1.71 1.71 0 0 0-1.567-1.028c-.341 0-.677.11-.968.314l-.83-1.601a1.71 1.71 0 0 0-1.567-1.027 1.71 1.71 0 0 0-1.567 1.027L1.55 22.113C.97 23.38 1.92 24.7 3.108 24.7c.235 0 .478-.051.72-.164l1.36-.633-.273.525c-.58 1.266.37 2.586 1.558 2.586a1.7 1.7 0 0 0 .72-.164l1.359-.633-.272.525c-.581 1.266.37 2.586 1.558 2.586.234 0 .478-.051.72-.164l6.37-2.967a5.75 5.75 0 0 1 4.857 0l6.37 2.967c.243.113.486.164.72.164 1.189 0 2.14-1.32 1.558-2.586M3.266 23.326a.4.4 0 0 1-.158.04c-.114 0-.24-.08-.32-.206-.067-.104-.126-.273-.054-.434l9.537-18.415c.095-.206.246-.25.356-.25s.261.044.384.307l1.147 2.215-7.967 15.38zM6.63 25.64a.4.4 0 0 1-.158.04c-.114 0-.24-.081-.32-.206-.067-.104-.126-.273-.054-.434l9.537-18.415c.095-.206.246-.25.356-.25s.26.044.384.307l1.147 2.215-7.967 15.38zm22.565 2.148c-.08.125-.206.206-.32.206a.4.4 0 0 1-.158-.04l-6.37-2.967a7 7 0 0 0-2.991-.664 7 7 0 0 0-2.991.664l-6.37 2.967a.4.4 0 0 1-.158.04c-.115 0-.24-.08-.32-.206-.067-.104-.126-.273-.054-.434L19 8.94c.095-.206.246-.25.356-.25s.26.044.383.307l9.482 18.302a.49.49 0 0 1-.026.49"/>
</svg>
