<svg xml:space="preserve" viewBox="0 0 32 32" xmlns="http://www.w3.org/2000/svg"><g id="icon">
  <path d="m26.054 13.209 3.179 1.835 2.163-3.747-3.179-1.836 3.18-1.835-2.164-3.748-3.18 1.836V2.043h-4.327v3.67L18.97 4.123l-.72-1.39c-.4-.87-1.196-1.305-1.991-1.305-.796 0-1.592.435-1.991 1.305L2.19 26.048c-.738 1.607.469 3.284 1.978 3.284.298 0 .607-.065.915-.209l8.09-3.768a7.298 7.298 0 0 1 3.085-.685c1.051 0 2.103.228 3.084.685l8.09 3.768c.308.144.617.209.915.209 1.51 0 2.717-1.677 1.979-3.284l-4.75-9.169h.477v-3.67zM23.06 8.023V3.376h1.66v4.648l2-1.156L28.745 5.7l.83 1.438-2.024 1.168-2 1.155 2 1.155 2.024 1.169-.83 1.438-2.025-1.169-2-1.155v4.647h-1.66v-4.647l-2 1.155-2.024 1.169-.83-1.438 2.023-1.17 2-1.154-2-1.155-2.024-1.168.83-1.438 2.025 1.168 2 1.155m6.055 18.58a.98.98 0 0 1-.057.968c-.168.264-.44.428-.71.428a.834.834 0 0 1-.352-.084l-8.09-3.768a8.578 8.578 0 0 0-3.647-.81 8.577 8.577 0 0 0-3.647.81l-8.09 3.768a.834.834 0 0 1-.353.084c-.27 0-.541-.164-.71-.428-.11-.17-.262-.521-.085-.91L15.48 3.288c.22-.476.618-.528.78-.528.161 0 .56.052.807.585l.846 1.634-1.528 2.647 3.179 1.835-3.179 1.836 1.929 3.34-1.346 4.082c-.035.107-.073.227-.113.36l-.127.42c-.045.147-.086.293-.126.44-.04.147-.078.278-.113.393h-.028a47.454 47.454 0 0 0-.506-1.613l-1.973-6.066h-2.014l3.293 9.306h2.281l2.846-7.977 1.34-.773v3.67h2.35l5.038 9.725z"/>
</g></svg>
