<svg viewBox="0 0 32 32" xmlns="http://www.w3.org/2000/svg">
  <path d="M30.333 26.05 18.256 2.733c-.4-.87-1.195-1.305-1.99-1.305-.796 0-1.592.435-1.992 1.305l-.916 1.768a9 9 0 0 0-3.02-.53 8.995 8.995 0 0 0-8.996 8.994 8.98 8.98 0 0 0 3.824 7.353l-2.969 5.73c-.738 1.608.47 3.285 1.979 3.285.297 0 .606-.065.915-.209l8.09-3.768a7.3 7.3 0 0 1 3.084-.685c1.052 0 2.103.228 3.084.685l8.09 3.768c.31.144.618.209.916.209 1.509 0 2.716-1.677 1.978-3.285M2.676 12.965c0-4.224 3.437-7.661 7.661-7.661S18 8.742 18 12.966s-3.437 7.662-7.662 7.662-7.661-3.437-7.661-7.662m26.39 14.607c-.17.264-.442.428-.711.428a.8.8 0 0 1-.352-.084l-8.09-3.769a8.6 8.6 0 0 0-3.648-.81 8.6 8.6 0 0 0-3.647.81l-8.09 3.769a.8.8 0 0 1-.352.084c-.27 0-.542-.164-.71-.428-.11-.17-.262-.521-.085-.91l2.932-5.66a8.94 8.94 0 0 0 4.024.959 8.995 8.995 0 0 0 4.245-16.926l.904-1.746c.219-.476.618-.528.78-.528.16 0 .56.052.806.585l12.05 23.259a.98.98 0 0 1-.057.967m-15.8-10.852 1.337 1.324.94-.948-1.085-1.074c1.68-1.26 2.257-2.986 2.257-2.986s-1.551-4.276-6.329-4.276a6.8 6.8 0 0 0-2.707.542l-1.313-1.3-.938.946L6.47 9.983c-1.756 1.264-2.414 3.054-2.414 3.054s1.398 4.276 6.33 4.276c1.142 0 2.09-.237 2.88-.592m-2.88-6.627c2.962 0 4.38 2.038 4.87 2.959a5.54 5.54 0 0 1-1.769 2.008l-1.252-1.241c.095-.234.15-.489.15-.757a2.024 2.024 0 0 0-2.799-1.87l-.852-.844a5.6 5.6 0 0 1 1.652-.255m-4.871 2.963a5.86 5.86 0 0 1 1.926-2.112l1.155 1.145c-.16.29-.26.618-.26.973 0 1.118.906 2.025 2.024 2.025.362 0 .696-.103.99-.269l.875.869a5.8 5.8 0 0 1-1.839.292c-3.051 0-4.412-2.013-4.871-2.923"/>
</svg>
