<svg viewBox="0 0 32 32" xmlns="http://www.w3.org/2000/svg">
  <path d="M5.88 9.333h5.1v1.334h-5.1zM5.867 12h6.8v1.333h-6.8zm21.375 10.466c0 .736-.598 1.334-1.334 1.334H4a1.335 1.335 0 0 1-1.333-1.334V9.333C2.667 8.598 3.265 8 4 8h21.908c.736 0 1.334.598 1.334 1.333v1.334h1.333V9.333a2.667 2.667 0 0 0-2.667-2.666H4a2.667 2.667 0 0 0-2.667 2.666v13.133A2.667 2.667 0 0 0 4 25.133h21.908a2.667 2.667 0 0 0 2.667-2.667v-1.133h-1.333zm-21.375-3.8C5.867 20.507 7.362 22 9.2 22s3.333-1.495 3.333-3.333-1.495-3.334-3.333-3.334-3.333 1.496-3.333 3.334m5.333 0c0 1.104-.897 2-2 2s-2-.896-2-2c0-1.102.897-2 2-2s2 .898 2 2m8.924-3.476-.943.943 4.142 4.143 7.815-7.814-.943-.943-6.872 6.872z"/>
</svg>
