<svg viewBox="0 0 32 32" xmlns="http://www.w3.org/2000/svg">
  <path d="M27.02 16.19a16 16 0 0 1-2.467 1.807l2.252 3.573-1.128.711-2.298-3.647a16.3 16.3 0 0 1-2.5.987l1.198 4.077-1.279.375-1.213-4.127q-1.276.269-2.604.334l-.058 4.393-1.334-.018.059-4.364q-1.352-.044-2.651-.3l-1.166 4.107-1.282-.365 1.149-4.049a16.3 16.3 0 0 1-3.004-1.181l.33.208-2.253 3.57-1.127-.71 2.222-3.522a16 16 0 0 1-2.494-1.804l-2.91 2.79-.924-.963 2.88-2.76a14.5 14.5 0 0 1-2.947-4.58l1.238-.494c2.083 5.227 7.492 8.739 13.459 8.739 5.947 0 11.349-3.496 13.443-8.698l1.237.497a14.5 14.5 0 0 1-2.88 4.477l2.942 2.819-.922.963z"/>
</svg>
