<svg viewBox="0 0 32 32" xmlns="http://www.w3.org/2000/svg">
  <path d="M24.943-.001H10.667v9.52c.474.122.918.308 1.333.546V1.332h12v6.666h6.667v19.999H20.64v1.333H32V7.056zm.39 2.276 4.391 4.39h-4.39zM9.338 18.794a4.063 4.063 0 1 0 0-8.127 4.063 4.063 0 0 0 0 8.127m0-6.793a2.733 2.733 0 0 1 2.73 2.73 2.733 2.733 0 0 1-2.73 2.73 2.733 2.733 0 0 1-2.73-2.73A2.733 2.733 0 0 1 9.338 12m9.301 12.407V32h-1.333v-7.59a3.43 3.43 0 0 0-3.424-3.425H4.794a3.43 3.43 0 0 0-3.424 3.424V32H.036v-7.59a4.763 4.763 0 0 1 4.758-4.758h9.088a4.763 4.763 0 0 1 4.757 4.757m-13.206.48V32H4.1v-7.11zm9.143 0V32h-1.333v-7.11zM16 14.007h8.404l-3.436-3.438h1.885l4.091 4.094-4.116 4.097h-1.89l3.435-3.42H16z"/>
</svg>
