<svg xml:space="preserve" viewBox="0 0 32 32" xmlns="http://www.w3.org/2000/svg"><g id="icon">
  <path fill="currentColor" d="m26.987 22.346-6.66 6.677c-.084.082-1.772 1.676-4.945 1.676-.31 0-.63-.014-.967-.047l.13-1.328c3.146.32 4.782-1.19 4.85-1.254l6.65-6.666c.247-.248.383-.578.383-.931 0-.355-.136-.685-.384-.933-.493-.493-1.368-.496-1.863 0l-1.514 1.515-.943-.943.019-.019-.055-.055 2.436-2.436c.247-.248.384-.58.384-.933s-.137-.684-.384-.931c-.498-.496-1.37-.496-1.864 0l-2.436 2.436-.942-.942.027-.028-.044-.044 3.354-3.354a1.319 1.319 0 0 0 0-1.864c-.494-.493-1.367-.496-1.864 0l-3.354 3.354-.942-.943 3.354-3.354c.086-.086.184-.155.28-.226l-.032-.031 4.607-4.685a1.322 1.322 0 0 0 .004-1.868c-.495-.495-1.37-.495-1.864 0L9.173 17.423H8.23l-.127-.666v-6.04c0-.537-.166-.96-.507-1.294-.556-.543-1.456-.744-2.067-.818v14.222c.332 2.165 2.908 3.83 2.935 3.846L7.75 27.8c-.127-.08-3.117-2-3.547-4.873L4.196 7.245l.651-.016c.088 0 2.368-.04 3.68 1.24.603.589.91 1.345.91 2.248v4.558L21.464 3.246c.997-.999 2.752-.999 3.75 0a2.655 2.655 0 0 1 0 3.749l-3.284 3.34c.457.108.889.323 1.23.664.836.836.984 2.09.47 3.087a2.578 2.578 0 0 1 1.435.71c.5.498.775 1.164.775 1.873 0 .433-.114.845-.307 1.218.54.081 1.057.313 1.453.71.5.5.775 1.166.775 1.876s-.276 1.375-.775 1.873zm-15-21.074h-1.334v3.71h1.333v-3.71zm-2.904 3.7L6.461 2.347l-.943.943 2.623 2.623.942-.943zm7.798-1.681-.943-.943-2.622 2.623.942.943 2.623-2.623z"/>
</g></svg>
