<svg viewBox="0 0 32 32" xmlns="http://www.w3.org/2000/svg">
  <path d="M1.333 18.06H1.27v12.607l17.398-.055V18.006H1.333zm5.23 6-3.96 4.258v-8.544zm.908.982 1.15 1.246c.366.415.872.623 1.379.623s1.013-.208 1.379-.623l1.15-1.244 3.905 4.242-12.947.04zm2.907.365c-.13.148-.293.17-.378.17s-.247-.022-.4-.194l-5.54-5.998 11.917-.037zm6.95 3.876.005-.004v.004zm.005-.99-3.897-4.232 3.897-4.218zm13.62-16.145-1.204.573c-.12-.308-.237-.617-.382-.92a13.58 13.58 0 0 0-7.77-7.007 13.7 13.7 0 0 0-4.584-.795c-1.972 0-3.935.438-5.773 1.297l-.573-1.205a14.9 14.9 0 0 1 11.375-.554 14.9 14.9 0 0 1 8.528 7.691c.145.303.26.612.382.92m-3.62.62c.145.304.267.612.383.92l-1.203.574q-.167-.465-.383-.92a10.02 10.02 0 0 0-5.733-5.17 10.1 10.1 0 0 0-3.381-.586c-1.447 0-2.885.32-4.235.946l-.573-1.205a11.34 11.34 0 0 1 8.635-.412 11.34 11.34 0 0 1 6.49 5.854m-3.235 1.542c.144.303.26.614.364.928l-1.228.585a6.6 6.6 0 0 0-.34-.94 6.51 6.51 0 0 0-5.88-3.708c-.905 0-1.82.195-2.692.593l-.574-1.204c3.886-1.786 8.508-.125 10.35 3.746m-4.562.719a1.667 1.667 0 1 1-3.334 0 1.667 1.667 0 0 1 3.334 0"/>
</svg>
