<svg viewBox="0 0 32 32" xmlns="http://www.w3.org/2000/svg">
  <path d="M20.8 7.6h-2.5l1.8-1.7h2.5zm6 12.8h-1.9l4.2 4.2H18.7v1.3h10.4l-4.2 4.2h1.8l4.9-4.9zM6.1 9.4c.7 0 1.2-.5 1.2-1.2V8l1.9-2.2-1-.9-1.9 2.2C6.2 7 6.1 7 6.1 7c-.2 0-.3 0-.5.1l-1.2-.9-.8 1 1.3 1c-.1.7.5 1.2 1.2 1.2m10 12.7v7.3H0l.1-12h8.6v-3.6c-.8.4-1.6.6-2.5.6C2.7 14.3 0 11.6 0 8.2c0-3.1 2.4-5.7 5.4-6v-.9H4.2V0h3.6v1.3H6.7v.9c2.4.3 4.3 1.9 5 4L14 4h12.6v12.6l-4.9 4.9v.1h-.1l-.4.4h-5.1zm9.2-6V6.3l-3.6 3.5v9.9zM12.1 7.8v.4c0 .2 0 .5-.1.7h8.7l3.6-3.6h-9.8zm-6.7 5.1v-1.6h1.3v1.6c2.1-.3 3.7-1.9 4-4H9.1V7.6h1.6c-.3-2.1-1.9-3.7-4-4v1.6H5.4V3.6c-2.1.3-3.7 1.9-4 4H3v1.3H1.4c.3 2.1 1.9 3.7 4 4m4.5 4.4H16v3.4h4.3V10.2h-8.7c-.4 1-1 1.9-1.8 2.6v4.5zm3.7 1.4H2.5l5.3 5.4c.1.1.2.1.3.1s.2 0 .3-.1zm-12.2.7v7.4l3.4-4zm.7 8.6H14l-3.4-4.2L9.4 25c-.3.4-.8.6-1.3.6s-1-.2-1.3-.6l-1.2-1.2zm12.6-1.2v-7.3l-3.2 3.4z"/>
</svg>
