<svg viewBox="0 0 32 32" xmlns="http://www.w3.org/2000/svg">
  <path d="M22.333 3.33A7.71 7.71 0 0 0 16 6.683 7.71 7.71 0 0 0 9.667 3.33C5.439 3.33 2 6.77 2 10.997c0 1.205 0 4.407 3.692 8.1L16 29.456l10.305-10.358C30 15.404 30 12.202 30 10.997c0-4.227-3.439-7.666-7.667-7.666m-19 7.667a6.34 6.34 0 0 1 6.334-6.333c2.393 0 4.599 1.382 5.666 3.525v.767l-3.912 2.347L17.4 15.29l-4.552 2.6 4.895 4.197-2.41 3.012v1.797l-8.697-8.741c-3.303-3.303-3.303-6.104-3.303-7.158m22.028 7.16-8.694 8.74v-1.33l2.923-3.654-4.438-3.804 4.782-2.732-6.021-4.014 2.754-1.652V8.189c1.067-2.143 3.272-3.525 5.666-3.525a6.34 6.34 0 0 1 6.334 6.333c0 1.054 0 3.855-3.306 7.16"/>
</svg>
