<svg viewBox="0 0 32 32" xmlns="http://www.w3.org/2000/svg">
  <path d="m5.542 25.516 4.715-4.715.942.942-4.714 4.715zm8.485-6.6 4.714-4.715-.943-.943-4.713 4.715zM2.93 1.785 1.239.095l-.943.942 1.69 1.69zm2.057 3.942.943-.943-1.512-1.512-.942.943zm1.667 1.667 1.512 1.511.942-.942-1.511-1.512zm4.69 4.69.943-.943-1.512-1.512-.943.943zm12.634 10.747-1.512-1.512-.943.943 1.512 1.512zm3.178 3.178L25.643 24.5l-.942.942 1.511 1.512zm.724 2.61 1.512 1.513.942-.943-1.511-1.513zm-6.262-17.294 4.714-4.715-.943-.942-4.714 4.714zM8.667 4.784a2.64 2.64 0 0 0 1.88-.78L14.553 0h-1.885L9.605 3.062a1.324 1.324 0 0 1-1.876 0L4.666 0H2.78l4.005 4.005c.502.502 1.17.779 1.88.779M4.784 8.667c0-.71-.277-1.379-.78-1.881L0 2.78v1.886l3.062 3.061a1.327 1.327 0 0 1 0 1.877L0 12.667v1.885l4.005-4.004c.502-.503.779-1.17.779-1.881M24.929 0 14.798 10.131l-1.86-1.86a1.327 1.327 0 0 1 0-1.876L19.333 0h-1.885l-5.453 5.452a2.663 2.663 0 0 0 0 3.762l1.86 1.86-2.781 2.78-1.86-1.859c-.502-.502-1.17-.779-1.88-.779s-1.38.277-1.882.78L0 17.447v1.885l6.395-6.395a1.323 1.323 0 0 1 1.876 0l1.86 1.86L0 24.929v1.886L26.815 0zm6.128 0-2.793 2.793.943.943L32 .942V0zM0 31.057V32h.943l2.713-2.714-.942-.942zM7.071 32l10.131-10.131 1.36 1.36a1.327 1.327 0 0 1 0 1.876L11.667 32h1.885l5.953-5.952a2.663 2.663 0 0 0 0-3.762l-1.36-1.36 1.02-1.02.69.69.943-.942-.69-.69.818-.819 1.36 1.36c.502.502 1.17.779 1.88.779.711 0 1.38-.277 1.882-.78L32 13.553v-1.885l-6.895 6.895a1.324 1.324 0 0 1-1.876 0l-1.36-1.36L32 7.071V5.185L5.185 32zm15.762-5.284a2.64 2.64 0 0 0-1.88.78L16.447 32h1.885l3.562-3.562a1.323 1.323 0 0 1 1.876 0L27.334 32h1.886l-4.505-4.505a2.64 2.64 0 0 0-1.88-.779M31.258 32H32v-1.143l-.943.942zm-3.763-7.286L32 29.22v-1.886l-3.562-3.561a1.327 1.327 0 0 1 0-1.877L32 18.333v-1.885l-4.505 4.504a2.663 2.663 0 0 0 0 3.762"/>
</svg>
