<svg xml:space="preserve" viewBox="0 0 32 32" xmlns="http://www.w3.org/2000/svg"><g id="icon">
  <path d="M16.094 11.379a2 2 0 1 0 0 4 2 2 0 0 0 0-4m0 2.666a.667.667 0 1 1 .001-1.334.667.667 0 0 1-.001 1.334m-6.92-.666a2 2 0 1 0 4 0 2 2 0 0 0-4 0m2.667 0a.667.667 0 1 1-1.335-.002.667.667 0 0 1 1.335.002m9.172 2a2 2 0 1 0 0-4 2 2 0 0 0 0 4m0-2.667a.667.667 0 1 1-.001 1.335.667.667 0 0 1 .001-1.335m-7.245-7.78A2.66 2.66 0 0 0 16 6.145a2.659 2.659 0 0 0 2.506-1.787c.008-.02.02-.032.026-.052.023-.065.034-.126.05-.19.01-.045.025-.088.034-.134a3.02 3.02 0 0 0 .045-.362c-.003 0-.006 0-.008-.002.002-.047.014-.092.014-.14a2.667 2.667 0 1 0-5.334 0c0 .056.013.108.017.164a12.696 12.696 0 0 0-9.082 7.602l1.199.6c1.395-3.522 4.513-6.148 8.301-6.912M16 2.145c.735 0 1.333.598 1.333 1.333S16.735 4.812 16 4.812a1.335 1.335 0 0 1-1.333-1.334c0-.735.598-1.333 1.333-1.333m2.232 24.923A2.66 2.66 0 0 0 16 25.855a2.66 2.66 0 0 0-2.496 1.754c-.012.031-.03.051-.042.085-.031.089-.047.174-.065.26-.003.014-.008.028-.01.043-.025.134-.04.264-.045.384h.005c-.002.048-.014.093-.014.14a2.667 2.667 0 0 0 5.334 0c0-.055-.013-.107-.017-.163a12.695 12.695 0 0 0 9.084-7.608l-1.199-.6c-1.393 3.525-4.513 6.153-8.303 6.918M16 29.855c-.735 0-1.333-.598-1.333-1.333s.598-1.334 1.333-1.334 1.333.599 1.333 1.334-.598 1.333-1.333 1.333M4.931 18.232A2.66 2.66 0 0 0 6.145 16a2.66 2.66 0 0 0-1.76-2.498c-.018-.007-.029-.017-.047-.023-.053-.019-.103-.026-.155-.04a2.64 2.64 0 0 0-.705-.106 2.667 2.667 0 1 0 0 5.334c.056 0 .109-.013.164-.017a12.695 12.695 0 0 0 7.575 9.072l.6-1.198c-3.508-1.4-6.123-4.513-6.886-8.292M2.145 16c0-.735.598-1.333 1.333-1.333s1.334.598 1.334 1.333-.599 1.333-1.334 1.333S2.145 16.735 2.145 16m26.377-2.667c-.057 0-.11.014-.167.017a12.692 12.692 0 0 0-7.603-9.083l-.6 1.198c3.525 1.395 6.146 4.516 6.909 8.308A2.661 2.661 0 0 0 25.855 16a2.667 2.667 0 1 0 2.667-2.667m0 4A1.335 1.335 0 0 1 27.188 16c0-.735.599-1.333 1.334-1.333s1.333.598 1.333 1.333-.598 1.333-1.333 1.333m-14.588 3.334H12.6v-2.489c0-.221.044-.43.11-.63a.582.582 0 0 0-.194-.041H9.645c-.348 0-.63.302-.63.671v2.489H7.68v-2.489c0-1.105.88-2.004 1.964-2.004h2.87c.376 0 .718.12 1.015.308a1.919 1.919 0 0 1 1.035-.308h2.87c.38 0 .734.116 1.035.308a1.88 1.88 0 0 1 1.014-.308h2.871c1.084 0 1.964.899 1.964 2.004v2.489h-1.333v-2.489c0-.37-.283-.671-.63-.671h-2.872a.582.582 0 0 0-.193.041c.065.2.109.409.109.63v2.489h-1.334v-2.489c0-.37-.283-.671-.631-.671h-2.87c-.348 0-.631.302-.631.671z"/>
</g></svg>
