<svg xml:space="preserve" viewBox="0 0 32 32" xmlns="http://www.w3.org/2000/svg"><g id="icon">
  <path d="M16.185 5.753a2.873 2.873 0 1 0 0-5.745 2.873 2.873 0 0 0 0 5.745m0-4.413c.849 0 1.54.691 1.54 1.54s-.691 1.54-1.54 1.54c-.849 0-1.54-.691-1.54-1.54s.691-1.54 1.54-1.54m-3.095 8.791h1.333v3.061H13.09zm4.503.006h1.333v3.054h-1.333zm8.859-1.052a2.873 2.873 0 1 0 0-5.745 2.873 2.873 0 0 0 0 5.745m0-4.414c.849 0 1.54.691 1.54 1.54s-.691 1.54-1.54 1.54c-.849 0-1.54-.691-1.54-1.54s.691-1.54 1.54-1.54m5.538 8.502v3.35h-1.333v-3.35c0-1.131-.92-2.051-2.051-2.051h-4.559c-1.131 0-2.051.92-2.051 2.051v3.35h-1.333v-3.35c0-.255.034-.502.088-.742.013-.055.034-.106.05-.16.053-.189.118-.372.202-.546.019-.039.041-.075.061-.113.1-.19.216-.368.349-.535l.037-.045c.153-.185.324-.353.513-.503a3.35 3.35 0 0 1 2.083-.741h4.559a3.395 3.395 0 0 1 3.385 3.385m-8.592.314h1.333v3.036h-1.333zm4.532.006h1.333v3.03H27.93zM11.378 9.951a4.722 4.722 0 0 0-1.272-.95c.284-1.579 1.666-2.79 3.323-2.79h5.152c1.656 0 3.037 1.208 3.323 2.785a4.73 4.73 0 0 0-1.272.943v-.344c0-1.131-.92-2.051-2.051-2.051h-5.152c-1.131 0-2.051.92-2.051 2.051zm-5.562-.866a2.873 2.873 0 1 0 0-5.745 2.873 2.873 0 0 0 0 5.745m0-4.414c.849 0 1.54.691 1.54 1.54s-.691 1.54-1.54 1.54-1.54-.691-1.54-1.54.691-1.54 1.54-1.54m-2.423 6.451c-1.131 0-2.051.92-2.051 2.051v3.35H.01v-3.35a3.394 3.394 0 0 1 3.384-3.384h4.559c1.051 0 1.982.495 2.604 1.253l.033.04c.133.168.25.347.35.538.019.036.041.071.059.108.084.175.149.358.202.548.015.053.036.102.049.156.054.239.088.485.088.74v3.35h-1.333v-3.35c0-1.131-.92-2.051-2.051-2.051H3.393zm-.673 2.34h1.333v3.061H2.72zm5.835 3.061H7.223v-3.054h1.333zm12.633 5.687a.612.612 0 0 1-.035-.297l1.612-1.608-2.7-2.704-1.612 1.608a.775.775 0 0 1-.082.004.578.578 0 0 1-.219-.039.59.59 0 0 1-.234-.184v-2.279h-3.823l-.001 2.277a.604.604 0 0 1-.233.184.565.565 0 0 1-.303.036l-1.608-1.611-2.704 2.704 1.607 1.608a.624.624 0 0 1-.032.296.62.62 0 0 1-.189.239H8.355v3.824h2.277c.087.07.148.148.184.233.036.089.049.19.036.302L9.241 28.41l2.701 2.704 1.613-1.608a.63.63 0 0 1 .295.034c.087.037.167.1.238.189v2.279h3.823l.001-2.277a.607.607 0 0 1 .233-.185.578.578 0 0 1 .301-.036l1.608 1.615 2.708-2.703-1.61-1.616a.579.579 0 0 1 .034-.293.617.617 0 0 1 .187-.24l2.278.003.004-3.824-2.279-.003a.612.612 0 0 1-.188-.239m1.132 2.732-.945-.001-.478-.001-.369.303a1.922 1.922 0 0 0-.57.755 1.894 1.894 0 0 0-.129.956l.052.462.328.329.67.673-.821.82-.667-.67-.332-.333-.467-.051a1.97 1.97 0 0 0-.963.132 1.915 1.915 0 0 0-.757.581l-.291.365v.467l-.001.945h-1.16V29.26l-.293-.365a1.965 1.965 0 0 0-.775-.589 1.879 1.879 0 0 0-.963-.121l-.452.057-.323.322-.67.668-.818-.819.668-.666.331-.33.052-.465a1.95 1.95 0 0 0-.135-.972 1.923 1.923 0 0 0-.577-.75l-.365-.295H9.688v-1.159H11.101l.366-.294c.261-.21.457-.464.59-.779.117-.291.158-.607.121-.941l-.051-.464-.33-.331-.666-.666.819-.819.666.667.333.334.469.05a1.922 1.922 0 0 0 .959-.132c.291-.122.545-.316.755-.576l.295-.366v-1.415h1.159v1.415l.292.365c.212.265.469.461.774.586.224.091.466.137.72.137.064 0 .131-.003.201-.009l.481-.043.342-.341.669-.668.817.818-.668.667-.335.334-.049.47c-.035.333.008.65.131.952.123.294.318.55.578.76l.366.295h.47l.947.001zm-6.315-3.641a3.063 3.063 0 0 0-3.06 3.06 3.064 3.064 0 0 0 3.06 3.06 3.062 3.062 0 0 0 3.059-3.06 3.063 3.063 0 0 0-3.059-3.06m0 4.787a1.73 1.73 0 0 1-1.727-1.727 1.73 1.73 0 0 1 1.727-1.727c.952 0 1.726.775 1.726 1.727 0 .952-.774 1.727-1.726 1.727"/>
</g></svg>
