<svg xml:space="preserve" viewBox="0 0 32 32" xmlns="http://www.w3.org/2000/svg"><g id="icon">
  <path d="M28 22.593 24.93 6.218h-5.117a3.07 3.07 0 0 0-6.14 0H8.555l-1.014 5.407h-2.32L2.151 28h22.516l-1.014-5.407H28zM16.742 4.481c.958 0 1.737.779 1.737 1.737h-3.474c0-.958.779-1.737 1.737-1.737zM3.758 26.667l2.57-13.708H20.49l2.57 13.708H3.758zm7.914-15.042c0-.958.779-1.737 1.737-1.737s1.737.779 1.737 1.737h-3.474zm9.924 0h-5.117a3.07 3.07 0 0 0-6.14 0H8.897l.764-4.074h14.162l2.57 13.708h-2.991l-1.806-9.634zm-10.877 8.212 2.645 3.046h-1.555l-1.262-1.539a7.145 7.145 0 0 1-.188-.237l-.229-.303a49.76 49.76 0 0 1-.25-.336 19.142 19.142 0 0 1-.242-.336h-.016v2.751H8.467v-5.715h1.155v2.49h.016l.217-.279a32.197 32.197 0 0 1 .558-.688l.216-.263 1.073-1.26h1.432l-2.415 2.669zm5.371-.271h2.318v3.07a5.004 5.004 0 0 1-.951.234 6.882 6.882 0 0 1-.974.069c-.436 0-.842-.066-1.216-.201a2.796 2.796 0 0 1-.97-.581 2.63 2.63 0 0 1-.638-.926 3.125 3.125 0 0 1-.229-1.232c0-.443.076-.842.229-1.201.152-.357.37-.661.65-.913.281-.25.621-.443 1.02-.577a4.198 4.198 0 0 1 1.344-.201c.284 0 .56.017.831.049.27.033.522.09.757.172l-.081 1.023a2.714 2.714 0 0 0-.668-.229c-.27-.06-.552-.09-.848-.09-.306 0-.581.046-.827.138a1.798 1.798 0 0 0-.626.393c-.172.169-.306.376-.401.622s-.143.518-.143.819c0 .294.044.565.132.81.087.246.214.454.38.626.167.173.372.306.618.402.245.095.526.143.842.143.121 0 .24-.008.357-.021.117-.014.223-.034.315-.061v-1.424h-1.22v-.913z"/>
</g></svg>
