<svg xml:space="preserve" id="_x32_037" x="0" y="0" version="1.1" viewBox="0 0 32 32" xmlns="http://www.w3.org/2000/svg"><g id="icon">
  <style>
    .st0{fill:#010202}
  </style>
  <path d="M24.112 9.07h-5.117a3.07 3.07 0 0 0-6.14 0H7.737l-3.07 16.375h22.516zm-8.188-1.737c.958 0 1.737.779 1.737 1.737h-3.474a1.74 1.74 0 0 1 1.737-1.737m-7.08 3.071h14.162l2.57 13.708H6.273z" class="st0"/>
  <path d="M15.65 14.613h-1.432l-1.073 1.26-.216.263a23.653 23.653 0 0 0-.558.688c-.09.115-.163.207-.217.279h-.016v-2.49h-1.155v5.715h1.155v-2.751h.016a26.289 26.289 0 0 0 .492.672l.229.303c.07.092.133.172.188.237l1.262 1.539h1.555l-2.645-3.046zm2.955 3.317h1.22v1.424a1.957 1.957 0 0 1-.315.061 3.229 3.229 0 0 1-.357.021c-.316 0-.598-.048-.842-.143a1.694 1.694 0 0 1-.618-.402 1.693 1.693 0 0 1-.38-.626 2.41 2.41 0 0 1-.132-.81c0-.301.048-.573.143-.819s.229-.453.401-.622c.172-.169.382-.299.626-.393.246-.092.521-.138.827-.138.296 0 .578.03.848.09.271.06.492.137.668.229l.081-1.023a3.611 3.611 0 0 0-.757-.172 6.858 6.858 0 0 0-.831-.049 4.18 4.18 0 0 0-1.344.201 2.923 2.923 0 0 0-1.02.577 2.57 2.57 0 0 0-.65.913 3.008 3.008 0 0 0-.229 1.201c0 .458.076.868.229 1.232.152.363.365.672.638.926.273.253.596.447.97.581.374.134.78.201 1.216.201.327 0 .652-.023.974-.069a5.1 5.1 0 0 0 .951-.234v-3.07h-2.318z" class="st0"/>
</g></svg>
