<svg viewBox="0 0 32 32" xmlns="http://www.w3.org/2000/svg">
  <path d="M20.108 13a3.774 3.774 0 1 0-7.549 0 3.774 3.774 0 0 0 7.549 0m-3.775 2.441A2.444 2.444 0 0 1 13.892 13c0-1.346 1.095-2.441 2.441-2.441s2.441 1.095 2.441 2.441a2.444 2.444 0 0 1-2.441 2.441m3.885 5.453a4.2 4.2 0 0 0-.263-1.362A7.48 7.48 0 0 0 23.807 13c0-4.121-3.352-7.473-7.473-7.473S8.86 8.879 8.86 13a7.47 7.47 0 0 0 3.317 6.207 4.2 4.2 0 0 0-.36 1.343c-2.567-1.539-4.29-4.34-4.29-7.55a8.807 8.807 0 0 1 17.613 0c0 3.467-2.009 6.458-4.922 7.894M4.022 17.152A13 13 0 0 1 3.333 13c0-7.18 5.82-13 13-13s13 5.82 13 13c0 1.567-.291 3.063-.8 4.454a4.2 4.2 0 0 0-1.224-.538C27.748 15.69 28 14.375 28 13c0-6.433-5.234-11.667-11.667-11.667S4.667 6.567 4.667 13c0 1.332.235 2.608.649 3.801a4.2 4.2 0 0 0-1.294.351m1.764 6.721a2.893 2.893 0 1 0 0-5.785 2.893 2.893 0 0 0 0 5.785m0-4.453c.86 0 1.56.7 1.56 1.56s-.7 1.56-1.56 1.56-1.56-.7-1.56-1.56.7-1.56 1.56-1.56m7.321 1.56a2.893 2.893 0 1 0 5.785 0 2.893 2.893 0 0 0-5.785 0m4.453 0c0 .86-.7 1.56-1.56 1.56s-1.56-.7-1.56-1.56.7-1.56 1.56-1.56 1.56.7 1.56 1.56m8.654 2.893a2.893 2.893 0 1 0 0-5.785 2.893 2.893 0 0 0 0 5.785m0-4.453c.86 0 1.56.7 1.56 1.56s-.7 1.56-1.56 1.56-1.56-.7-1.56-1.56.7-1.56 1.56-1.56M32 27.693V32h-1.333v-4.307c0-.696-.566-1.263-1.263-1.263h-6.38c-.667 0-1.201.524-1.246 1.18.001.028.008.055.008.083V32h-1.358v-4.307c0-.028.008-.055.008-.083a1.256 1.256 0 0 0-1.246-1.18h-6.38c-.667 0-1.201.524-1.246 1.18.001.028.008.055.008.083V32h-1.358v-4.307c0-.028.008-.055.008-.083a1.256 1.256 0 0 0-1.246-1.18h-6.38c-.696 0-1.263.566-1.263 1.263V32H0v-4.307a2.603 2.603 0 0 1 2.596-2.596h6.38c.761 0 1.441.338 1.917.863a2.58 2.58 0 0 1 1.917-.863h6.38c.761 0 1.441.338 1.917.863a2.58 2.58 0 0 1 1.917-.863h6.38A2.603 2.603 0 0 1 32 27.693M7.546 29.448h1.333V32H7.546zm5.33-.106h1.333V32h-1.333zm4.886-.009h1.333V32h-1.333zm5.336.115h1.333V32h-1.333zm4.912 0h1.333V32H28.01zm-25.343-.115H4V32H2.667z"/>
</svg>
