<svg viewBox="0 0 32 32" xmlns="http://www.w3.org/2000/svg">
  <path d="m8.668 6.12.659 1.8-1.251.459-.658-1.8zm3.073 2.014 1.149.674.968-1.654-1.149-.674zm-5.367 1.94-1.798-.657-.456 1.252 1.798.658zm-1.929 4.59.666 1.155 1.658-.959-.666-1.155zm27.543 8.141c-.017.371-.036.785-.036 1.262H30.62c0-.5.02-.934.039-1.324.078-1.672.107-2.298-1.867-4.062l-1.782-1.783-3.24-3.244a.686.686 0 0 0-.943 0 .66.66 0 0 0-.194.471.66.66 0 0 0 .194.471l1.392 1.394-.942.943-2.326-2.327a.685.685 0 0 0-.942 0c-.125.126-.194.293-.194.472s.069.346.194.471l.838.841.23.23 1.257 1.261-.942.943-1.743-1.749-1.506-1.507a.685.685 0 0 0-.942 0 .667.667 0 0 0-.014.924l3.271 3.282-.942.943-1.263-1.268-.001.001-1.993-1.995c-.006-.006-.008-.015-.014-.021l-3.747-3.76a.667.667 0 0 0-.942.944l8.858 8.873-.942.943-3.187-3.193-.007.007a1.43 1.43 0 0 0-1.95-.065l4.238 4.242 1.072 1.075c1.558 1.695 2.504 1.663 4.074 1.602.31-.012.633-.023.978-.023v1.333c-.328 0-.635.012-.929.022-.278.01-.552.021-.821.021-1.354 0-2.633-.257-4.264-2.031l-1.087-1.091-5.146-5.152.873-.875c.374-.374.832-.61 1.312-.724l-1.637-1.64H3.035a3.023 3.023 0 0 1-3.022-3.025V5.784a3.023 3.023 0 0 1 3.022-3.025h18.099a3.023 3.023 0 0 1 3.022 3.025v6.565c.201.092.396.2.557.36l4.352 4.357-.001.001.643.644c2.315 2.069 2.375 3.113 2.281 5.094M12.209 12.179a2.02 2.02 0 0 0-2.017-1.995 2.023 2.023 0 0 0-2.019 2.021c0 1.061.824 1.924 1.863 2.005-.001-.023-.007-.045-.007-.068 0-.535.207-1.038.584-1.415.438-.436 1.025-.601 1.596-.548m10.614.054V5.784c0-.933-.758-1.692-1.69-1.692H3.035c-.932 0-1.69.759-1.69 1.692v9.127c0 .933.758 1.692 1.69 1.692h8.624l-1.045-1.046c-.015-.015-.026-.034-.04-.049-.127.017-.249.052-.381.052-1.851 0-3.351-1.502-3.351-3.355s1.5-3.355 3.351-3.355 3.351 1.502 3.351 3.355c0 .194-.032.378-.064.563l2.408 2.416c.095-.2.207-.396.372-.561.621-.622 1.614-.701 2.37-.296a2 2 0 0 1 .439-.666c.624-.624 1.622-.701 2.38-.289a2 2 0 0 1 .438-.663c.257-.259.589-.396.936-.476"/>
</svg>
