<svg viewBox="0 0 32 32" xmlns="http://www.w3.org/2000/svg">
  <path d="M19.93 16.67h6.83c.3 1.15 1.33 2 2.57 2a2.67 2.67 0 1 0 0-5.34c-1.24 0-2.27.85-2.57 2h-6.83c-.25-1.51-1.35-2.71-2.79-3.15l3.29-7.52h6.32c.3 1.15 1.33 2 2.57 2C30.81 6.67 32 5.47 32 4s-1.19-2.67-2.67-2.67c-1.24 0-2.27.85-2.57 2h-7.2L16 11.48l-3.56-8.14h-7.2c-.3-1.15-1.33-2-2.57-2C1.19 1.33 0 2.53 0 4s1.19 2.67 2.67 2.67c1.24 0 2.27-.85 2.57-2h6.32l3.29 7.52a3.99 3.99 0 0 0-2.79 3.15H5.24c-.3-1.15-1.33-2-2.57-2C1.19 13.34 0 14.53 0 16a2.67 2.67 0 0 0 2.67 2.67c1.24 0 2.28-.85 2.57-2h6.83a3.97 3.97 0 0 0 2.79 3.15l-3.29 7.52H5.24c-.3-1.15-1.33-2-2.57-2C1.19 25.33 0 26.53 0 28s1.19 2.67 2.67 2.67c1.24 0 2.27-.85 2.57-2h7.2L16 20.53l3.56 8.14h7.2c.3 1.15 1.33 2 2.57 2A2.67 2.67 0 0 0 32 28a2.663 2.663 0 0 0-5.24-.67h-6.32l-3.29-7.52a3.98 3.98 0 0 0 2.78-3.14m9.4-2a1.33 1.33 0 1 1 0 2.66C28.6 17.34 28 16.74 28 16c0-.73.6-1.33 1.33-1.33m0-12a1.33 1.33 0 1 1 .001 2.659 1.33 1.33 0 0 1-.001-2.659M2.67 5.33a1.33 1.33 0 1 1-.001-2.659A1.33 1.33 0 0 1 2.67 5.33m0 12.01a1.33 1.33 0 1 1 0-2.66C3.4 14.68 4 15.27 4 16c0 .74-.6 1.34-1.33 1.34m0 11.99a1.33 1.33 0 1 1-.001-2.659 1.33 1.33 0 0 1 .001 2.659m26.66-2.66a1.33 1.33 0 1 1 .001 2.659 1.33 1.33 0 0 1-.001-2.659m-13.33-8c-1.47 0-2.67-1.2-2.67-2.67s1.2-2.67 2.67-2.67 2.67 1.2 2.67 2.67-1.2 2.67-2.67 2.67"/>
</svg>
