<svg viewBox="0 0 32 32" xmlns="http://www.w3.org/2000/svg">
  <path d="M10.66 18.65v-1.32H9.33v8.43c0 1.25 1.02 2.27 2.27 2.27h8.8c1.25 0 2.27-1.02 2.27-2.27v-8.82c0-1.25-1.02-2.26-2.27-2.26h-5.7V16h2.61v10.69h-2.65v-8.04zm2.67 1.33v2.65h-2.67v-2.65zm-2.67 5.78v-1.8h2.67v2.73H11.6c-.52 0-.94-.42-.94-.93m7.99-5.75h2.68v2.62h-2.68zM20.4 16c.52 0 .93.42.93.93v1.74h-2.68V16zm-1.75 7.96h2.68v1.8c0 .51-.42.93-.93.93h-1.74v-2.73zm8.08-13.98v19.34c0 1.48-1.21 2.69-2.69 2.69H8.05c-1.48 0-2.69-1.21-2.69-2.69l-.01-12h1.33l.01 12c0 .75.61 1.36 1.36 1.36h15.98c.75 0 1.36-.61 1.36-1.36V9.98c0-.37-.15-.73-.42-.98l-6.24-5.94c-.26-.24-.59-.38-.94-.38h-6.68a4.5 4.5 0 0 0-.63-1.33h7.31c.69 0 1.35.26 1.86.74l6.24 5.94c.53.51.84 1.22.84 1.95M13.37 5.34h-2.7V4.01a3.999 3.999 0 1 0-8 0v1.33H0V16h13.37zM4 4.01c0-1.47 1.2-2.66 2.67-2.66s2.67 1.19 2.67 2.66v1.33H4zm8.04 10.65H1.33V6.67h10.7v7.99zM6.67 8a2 2 0 0 0-2 2c0 .87.56 1.6 1.33 1.88v.79a.67.67 0 0 0 1.34 0v-.79c.77-.28 1.33-1.01 1.33-1.88 0-1.1-.9-2-2-2m0 2.67a.67.67 0 1 1 .67-.67c-.01.37-.31.67-.67.67"/>
</svg>
