<svg viewBox="0 0 32 32" xmlns="http://www.w3.org/2000/svg">
  <path d="m30.95 15.99-4.12 4.1h-1.89l3.43-3.42h-8.39v-1.33h8.42l-3.44-3.44h1.89zM13.32 5.34a2.67 2.67 0 1 1 5.339-.001 2.67 2.67 0 0 1-5.339.001m1.34 0a1.34 1.34 0 1 0 2.68 0 1.34 1.34 0 0 0-2.68 0m1.29 5.74 3.38 6.52-.53.32c-.08.05-.69.4-1.48.4-.23 0-.47-.03-.72-.1-.79-.23-1.44-.83-1.91-1.77l-.12-.2-.37 1.36 2.96 5.13 1.49 7.08-3.83 1.06-1.43-6.67L12 21.73v8.94H0v-1.33h3.41l-1.6-1.61 5.75-5.88.71-2.48c-1.86-.81-1.78-2.65-1.47-3.52l1.33-4.71.11-.12c.97-1.05 1.78-1.74 2.44-2.18V2.66H0V1.33h12v6.81c.34-.11.58-.14.68-.13 1.23-.1 2.18.2 2.75.89.67.78.59 1.78.52 2.18m-5.28 18.25v-4.96c-.32.53-.68 1.04-.93 1.28l-3.7 3.68zm2.1-11.52 1.85-6.88s.17-.73-.21-1.18c-.36-.42-1.11-.45-1.68-.41-.04 0-1.22.12-3.41 2.46l-1.26 4.44c-.08.25-.37 1.29.57 1.82l1.46-5.12 2.11-1.64.82 1.05-1.76 1.37-2.51 8.8-5.06 5.18 1.04 1.04 4.08-4.05c.37-.37 1.12-1.62 1.19-2l1.36-4.83 3.34 5.96 1.15 5.38 1.26-.35-1.21-5.74zm4.74-.83-2.06-3.97-.39 1.44.81 1.37c.32.63.68 1 1.09 1.12.19.06.38.06.55.04"/>
</svg>
