<svg viewBox="0 0 32 32" xmlns="http://www.w3.org/2000/svg">
  <path d="M28.58 2.75V0H4.83v2.75c0 .69.56 1.25 1.24 1.25h.09v24h-.09c-.69 0-1.25.56-1.25 1.25V32h23.75v-2.75c0-.69-.56-1.25-1.25-1.25V4c.7 0 1.26-.56 1.26-1.25M6.16 1.33h21.09v1.33H6.16zM10 28v-2.86c.97-.25 4.18-.97 6.64.06 1.15.48 2.42.64 3.59.64 1.32 0 2.51-.2 3.3-.38V28zm6-13.33v2h-1.05c.04-.31.06-.64.06-1 0-.34-.02-.68-.07-1zm0 3.41v5.53c-2.26-.54-4.68-.14-5.9.14.46-3 2.87-5.33 5.9-5.67m1.33 5.96v-5.98c3.24.28 5.81 2.82 6.13 6.06-1.2.27-3.93.74-6.13-.08m1.06-7.37h-1.05v-2h1.06c-.04.31-.06.65-.06 1.01-.01.35.01.68.05.99m-1.63-3.34a6.75 6.75 0 0 1-5.6-2.98c1.41-.23 3.55-.39 5.3.34 1.03.43 2.36.56 3.57.56.6 0 1.16-.03 1.65-.07a6.7 6.7 0 0 1-4.92 2.15m5.95-3.61c-1.86.26-4.32.33-5.73-.26-2.2-.92-4.8-.67-6.47-.35-.33-.78-.51-1.64-.51-2.54V4h13.53v2.57c0 1.15-.32 2.21-.82 3.15M7.49 4h1.17v2.57c0 3.26 1.93 6.06 4.71 7.35.4.9.4 2.6 0 3.5a8.09 8.09 0 0 0-4.71 7.35V28H7.49zm19.76 26.67H6.16v-1.33h21.09zM26 28h-1.14v-3.24c0-3.36-2.05-6.25-4.97-7.47-.31-.88-.3-2.38.01-3.26 2.91-1.23 4.96-4.11 4.96-7.47V4H26z"/>
</svg>
