<svg viewBox="0 0 32 32" xmlns="http://www.w3.org/2000/svg">
  <path d="M10.5 13.21h1.1v2.35c0 1.79 1.02 3.33 2.51 4.11-1.48.78-2.51 2.32-2.51 4.11v2.34h-1.1v1.33H22v-1.33h-1.1v-2.34c0-1.79-1.02-3.33-2.51-4.11 1.48-.78 2.51-2.32 2.51-4.11v-2.35H22v-1.33H10.5zm9.07 2.28h-6.64v-2.16h6.64zm-6.64 8.7h6.64V26h-6.64zm6.5-1.34h-6.35c.4-1.38 1.67-2.4 3.18-2.4s2.76 1.02 3.17 2.4m-3.18-3.97c-1.38 0-2.57-.85-3.07-2.06h6.14a3.33 3.33 0 0 1-3.07 2.06m.21 1.64a.85.85 0 1 1 .001 1.699.85.85 0 0 1-.001-1.699m8.91-17.85V1.33h-1.33v1.33H8V1.33H6.67v1.33H1.33v28h29.33v-28h-5.29zM6.67 4v1.33H8V4h16.04v1.33h1.33V4h3.96v5.33H2.67V4zm-4 25.33V10.67h26.67v18.67H2.67z"/>
</svg>
