<svg data-name="3219" viewBox="0 0 32 32" xmlns="http://www.w3.org/2000/svg">
  <path d="M26.79 1.74c-1.1 0-2 .9-2 2s.89 2 2 2 2-.9 2-2-.89-2-2-2m0 2.67a.67.67 0 1 1 0-1.34.67.67 0 0 1 0 1.34m0 5.86c-1.1 0-2 .9-2 2s.89 2 2 2 2-.9 2-2-.89-2-2-2m0 2.67a.67.67 0 1 1 0-1.34.67.67 0 0 1 0 1.34m0-6.88c-1.1 0-2 .9-2 2s.89 2 2 2 2-.9 2-2-.89-2-2-2m0 2.67a.67.67 0 1 1 0-1.34.67.67 0 0 1 0 1.34m-10.53 2.98a2.469 2.469 0 1 0-2.47-2.47c0 1.36 1.1 2.47 2.47 2.47m0-3.6c.63 0 1.13.51 1.13 1.14s-.51 1.14-1.13 1.14-1.13-.51-1.13-1.14.51-1.14 1.13-1.14M13.84 32h18.14l-4.53-6.61v-9.37h2c.74 0 1.33-.6 1.33-1.33V1.35c0-.74-.6-1.33-1.33-1.33h-5.33c-.74 0-1.33.6-1.33 1.33v13.33c0 .74.6 1.33 1.33 1.33h2v7.43l-1.53-2.23a1.99 1.99 0 0 0-1.64-.87c-.62 0-1.27.32-1.65.86l-1.93 2.79-4.51-4.52-.78-1.9.35-4.61c-.01-.11-.13-1.13-1-1.79-.62-.48-1.44-.63-2.43-.46l-.19.03c-.06-.01-.12-.02-.19-.02l-4.19.21h-.02l-2.05-2a.664.664 0 1 0-.93.95l1.81 1.77c-.08.19-.13.4-.11.61l.47 3.93-.6.63-1.59 6.87-3.43 6.07 3.39 1.9 3.94-6.93.32-.83.66 2v6.12h3.81v-6.26l-1.97-7.17.23-.23c.02.07.04.15.07.23l.96 2.51c.04.11.4 1.08 1.42 1.52.75.32 1.62.26 2.58-.17l.38-.17 2.84 2.84L13.85 32ZM9.48 12.13l-.9.93-.87-.85 1.77-.09Zm-1.82 1.9-.86.9-.24-1.97zm5.68 7.37c-.5-.21-.7-.74-.71-.76l-.95-2.48c-.22-.73-.17-1.13-.17-1.13l.38-2.11-3.24 3.3 2.13 7.64v4.83H9.63v-4.9l-1.9-5.87-1.61 4.24-3.24 5.68-1.07-.6 2.83-4.96 1.6-6.79L11.45 12c.5-.06.89.02 1.17.23.4.3.48.77.49.76l-.38 4.8 1.5 3.64c-.34.08-.64.06-.89-.04ZM24.13 1.35h5.33v13.33h-5.33zM22.4 21.97c.13-.18.34-.35.55-.29.22 0 .42.11.55.29l5.95 8.69H16.38z"/>
</svg>
