<svg viewBox="0 0 32 32" xmlns="http://www.w3.org/2000/svg">
  <path d="M3.86 8v16a.67.67 0 0 1-1.34 0V8a.67.67 0 0 1 1.34 0m1.9-5.33c-.37 0-.67.3-.67.67v25.33a.67.67 0 0 0 1.34 0V3.33c0-.37-.3-.67-.67-.67ZM8.31 8c-.37 0-.67.3-.67.67v14.67a.67.67 0 0 0 1.34 0V8.67c0-.37-.3-.67-.67-.67m2.56-8c-.37 0-.67.3-.67.67v30.67a.67.67 0 0 0 1.34 0V.67c0-.37-.3-.67-.67-.67m5.12 11.33c-.37 0-.67.3-.67.67v8a.67.67 0 0 0 1.34 0v-8c0-.37-.3-.67-.67-.67m-15.35 2c-.37 0-.67.3-.67.67v4a.67.67 0 0 0 1.34 0v-4c0-.37-.3-.67-.67-.67M13.43 6c-.37 0-.67.3-.67.67v18.67a.67.67 0 0 0 1.34 0V6.67c0-.37-.3-.67-.67-.67m5.07 0c-.37 0-.67.3-.67.67v18.67a.67.67 0 0 0 1.34 0V6.67c0-.37-.3-.67-.67-.67m2.56-6c-.37 0-.67.3-.67.67v30.67a.67.67 0 0 0 1.34 0V.67c0-.37-.3-.67-.67-.67m2.56 8c-.37 0-.67.3-.67.67v14.67a.67.67 0 0 0 1.34 0V8.67c0-.37-.3-.67-.67-.67m2.56-5.33c-.37 0-.67.3-.67.67v25.33a.67.67 0 0 0 1.34 0V3.33c0-.37-.3-.67-.67-.67Zm5.12 9.99c-.37 0-.67.3-.67.67v5.34a.67.67 0 0 0 1.34 0v-5.34c0-.37-.3-.67-.67-.67m-2.56-3.99c-.37 0-.67.3-.67.67v13.34a.67.67 0 0 0 1.34 0V9.34c0-.37-.3-.67-.67-.67"/>
</svg>
