<svg data-name="3219" viewBox="0 0 32 32" xmlns="http://www.w3.org/2000/svg">
  <path d="m26.09 17.81-.2.39.19-.39Zm4.99-9.91-.05.11-.02.03-.7 1.38-4 7.94a5.48 5.48 0 0 1-4.91 3.01h-8.67L7.25 31.26c-.24.48-.71.72-1.17.72s-.93-.24-1.17-.72l-4.3-8.52c-.43-.85-.33-1.78.12-2.49s3.96-7.88 3.96-7.88a2.62 2.62 0 0 1 2.34-1.44h18.06c-.96-.88-2.22-1.46-3.68-1.46H8.25c-.97 0-1.61-1.02-1.17-1.88L10.53.72c.22-.44.68-.72 1.17-.72h14.46c4.08 0 6.74 4.27 4.91 7.9Zm-9.67.24c2.18 0 4.17 1.02 5.45 2.74.49-.05.96-.18 1.41-.36l1.62-3.21a4.09 4.09 0 0 0-.18-4.02 4.12 4.12 0 0 0-3.54-1.96H11.71L8.28 8.18l13.13-.03ZM11.24 20.39H2.83c-.56.03-.87.4-.97.57-.11.17-.33.64-.05 1.19l4.3 8.54 5.14-10.3Zm16.21-8.25c-.39.07-.78.1-1.18.1H7.04c-.49 0-.93.27-1.15.71l-3.07 6.11s.05-.01.08-.01h10.49l8.01.01c1.58 0 3.01-.87 3.72-2.28l2.33-4.63Z"/>
</svg>
