<svg viewBox="0 0 32 32" xmlns="http://www.w3.org/2000/svg">
  <path d="M18.21 14.06H7.77v-1.33h10.44zM7.77 17.69h7.31v-1.33H7.77zm0 3.52h5.7v-1.33h-5.7zm17.37 9.45h-.02c-.7.25-1.45.42-2.25.42s-1.54-.16-2.25-.42H3.81V1.34h14.28l7.06 7.06v9.78c2.56.93 4.4 3.36 4.4 6.25s-1.84 5.32-4.4 6.25ZM18.47 8h4.39l-4.39-4.39zm-.06 21.34c-1.34-1.22-2.2-2.96-2.2-4.92 0-3.68 2.98-6.67 6.67-6.67.32 0 .63.05.93.09V9.33h-6.67V2.67h-12v26.67zm9.73-4.26h-1.93v-1.33h1.93c-.3-2.4-2.2-4.3-4.6-4.6v1.93h-1.33v-1.93c-2.4.3-4.3 2.2-4.6 4.6h1.93v1.33h-1.93c.3 2.4 2.2 4.3 4.6 4.6v-1.93h1.33v1.93c2.4-.3 4.29-2.2 4.6-4.6m-1.79-3.19a.664.664 0 0 0-.94 0l-2.57 2.57-1.77-1.7a.673.673 0 0 0-.94.02c-.26.27-.25.69.02.94l2.71 2.6 3.5-3.49c.26-.26.26-.68 0-.94Z"/>
</svg>
