<svg viewBox="0 0 32 32" xmlns="http://www.w3.org/2000/svg">
  <path d="M30.92 18.32c-.54-2.71-1.08-3.25-2.15-3.79 0 0-10.78-1.62-10.77-1.62v11.38h-2.67l-1.05 1.05-.28.28h4.01v1.67H0v1.33h20.55c.27 1.9 1.89 3.38 3.86 3.38s3.6-1.47 3.86-3.38h2.14c.87 0 1.58-.71 1.58-1.59v-4.37l-1.08-4.33h.01Zm-5.17-2.83 2.6.33c.51.28.84.64 1.25 2.72l.28 1.7h-4.13V15.5Zm-1.33 15.16c-1.42 0-2.58-1.16-2.58-2.58s1.16-2.58 2.58-2.58S27 26.65 27 28.07s-1.16 2.58-2.58 2.58m6.25-3.63c0 .14-.11.26-.25.26h-2.16c-.37-1.78-1.95-3.12-3.84-3.12s-3.47 1.34-3.84 3.12h-1.25V14.45s.1.02.15.02l3.7.56 1.23.19v6.35h5.94l.31 1.25v4.2zM5 11.25H2.67V4.7h6.54v5.31h1.33V4.32l2.04-2.03v5.88L10.75 10h1.89l1.28-1.28V0H5.19L1.33 3.85v8.73h2.33l1.33-1.33zm.74-9.92h3.08L7.7 2.43h1.73l1.12-1.1h1.09L9.59 3.36H3.71zm-.4 24.28H0v-1.33h4.01l1.04 1.04zm4.33-10.12a2.77 2.77 0 1 0 0 5.54 2.77 2.77 0 0 0 0-5.54m0 4.2a1.44 1.44 0 1 1 0-2.88 1.44 1.44 0 0 1 0 2.88m3.67-7.55-1.46 1.46h-.07c-.07 0-.14-.01-.2-.04a.5.5 0 0 1-.21-.17v-2.06H7.94v2.06c-.06.08-.14.13-.21.17-.06.02-.12.04-.2.04h-.08l-1.46-1.46-.45.45-2 2 1.45 1.46q.015.15-.03.27c-.045.12-.09.15-.17.22H2.73V20h2.06c.08.06.13.13.17.21q.045.12.03.27l-1.46 1.46 2.44 2.45 1.46-1.46h.08c.07 0 .13.01.19.04.08.03.15.09.22.17v2.06h3.46v-2.06c.06-.08.14-.14.21-.17.06-.02.13-.04.2-.04h.07l1.46 1.46 2.45-2.45-1.46-1.46c-.01-.1 0-.19.03-.26a.6.6 0 0 1 .17-.22h2.06v-3.46h-2.06a.5.5 0 0 1-.2-.49l1.46-1.46-2.44-2.45zm1.19 5.72h.73v.8h-1.21l-.37.3c-.25.21-.44.46-.55.73-.12.29-.16.6-.13.93l.05.46.33.33.52.52-.56.56-.51-.52-.33-.33-.47-.05c-.07 0-.15-.01-.22-.01-.25 0-.48.05-.72.14-.28.12-.53.31-.74.56l-.29.36v1.2h-.79v-1.2l-.29-.37q-.3-.375-.75-.57a1.8 1.8 0 0 0-.69-.13c-.08 0-.16 0-.24.02l-.45.06-.32.32-.52.52-.56-.56.51-.51.33-.33.05-.47c.04-.32 0-.63-.13-.94-.12-.28-.31-.53-.56-.73l-.37-.29h-1.2v-.8h1.2l.37-.29c.25-.2.44-.45.57-.76.11-.28.15-.59.12-.91l-.05-.46-.33-.33-.51-.51.56-.56.51.51.33.33.47.05c.08 0 .15.01.22.01.24 0 .48-.05.71-.14.28-.12.53-.31.73-.56l.29-.37v-1.2h.79v1.2l.29.37q.315.39.75.57c.22.09.45.13.7.13h.19l.48-.04.34-.34.52-.51.56.56-.51.51-.33.33-.05.47c-.03.32 0 .63.13.92.12.29.31.53.56.74l.37.3h.47z"/>
</svg>
