<svg viewBox="0 0 32 32" xmlns="http://www.w3.org/2000/svg">
  <path d="M31.99 24.54h-4.07v-4.82h4.07v-1.34h-7.76c-.37.5-.79.94-1.25 1.34h3.56v4.82h-6.28V21.3c-.44.16-.88.28-1.33.36v2.88h-6.32v-4.03a8 8 0 0 1-1.19-.92c-.04-.04-.08-.07-.12-.1-.36-.35-.69-.72-.98-1.11H.02v1.34h3.54v4.82H.01v7.49H32v-7.49zM4.95 19.72h6.32v4.82H4.95zm2.73 10.97H1.35v-4.82h6.33zm7.66 0H9.01v-4.82h6.33zm7.66 0h-6.33v-4.82H23zm7.67 0h-6.33v-4.82h6.33zM17.42 20.46c3.63 0 7.28-2.75 7.28-7.84-.01-2.46-.77-4.67-2.16-6.82 0 2.54-1.49 3.67-2.54 3.67C21.06 1.93 15.62.1 15.62.1c0 5.5-5.8 6.41-5.8 13.04 0 1.39 1.17 7.33 7.6 7.33Zm-2.36-3.77c.23.08.47.11.71.11h1.33v-1.34c0-.68.12-1.22.29-1.64.25.35.53.64.77.9.64.67 1.05 1.11 1.05 2.17 0 .02-.09 2.02-2.15 2.02-.96 0-1.99-.7-2-2.23Zm-1.11-9.88c1.05-1.25 2.19-2.63 2.72-4.52 1.18 1.05 2.55 3.13 2.02 6.99l-.21 1.52h1.53c1.02 0 2.05-.53 2.8-1.51.38 1.09.56 2.19.57 3.33 0 2.93-1.42 4.88-3.26 5.83.33-.65.44-1.28.44-1.55 0-3.03-2.66-3.08-2.66-5.6 0 0-2.12.98-2.12 4.17-.8 0-1.05-.98-1.05-1.93-.63.99-.99 2-.99 3.13 0 .6.11 1.12.31 1.58-2.66-1.66-2.88-5.07-2.88-5.11 0-2.98 1.36-4.6 2.79-6.32Z"/>
</svg>
