<svg viewBox="0 0 32 32" xmlns="http://www.w3.org/2000/svg">
  <path d="M16 0C7.16 0 0 7.16 0 16s7.16 16 16 16 16-7.16 16-16S24.84 0 16 0m0 30.67C7.91 30.67 1.33 24.09 1.33 16S7.91 1.33 16 1.33 30.67 7.91 30.67 16 24.09 30.67 16 30.67M9.18 10.66c-3.35 3.35-3.35 8.81 0 12.16 1.68 1.68 3.88 2.51 6.08 2.51s4.4-.84 6.08-2.51a8.7 8.7 0 0 0 2.21-3.81L24.3 7.7l-11.24.73a8.6 8.6 0 0 0-3.88 2.23m13.68-1.53-.64 9.65a7.16 7.16 0 0 1-1.83 3.09c-1.37 1.37-3.19 2.12-5.14 2.12s-3.77-.75-5.14-2.12c-2.83-2.83-2.83-7.44 0-10.27.87-.87 1.96-1.51 3.16-1.85l9.58-.62Zm-7.6 10.83a3.2 3.2 0 0 0 2.28-.94 3.223 3.223 0 0 0 0-4.56c-.63-.63-1.45-.94-2.28-.94s-1.65.31-2.28.94a3.223 3.223 0 0 0 0 4.56 3.2 3.2 0 0 0 2.28.94m-1.34-4.56c.36-.36.83-.55 1.34-.55s.98.2 1.34.55c.36.36.55.83.55 1.34s-.2.98-.55 1.34c-.36.36-.83.55-1.34.55s-.98-.2-1.34-.55-.55-.83-.55-1.34.2-.98.55-1.34"/>
</svg>
