<svg viewBox="0 0 32 32" xmlns="http://www.w3.org/2000/svg">
  <path d="M31.94 16.97h-16.4V2.19c0-1.19-.96-2.16-2.15-2.16H2.19C1.01.03.04 1 .04 2.19V24.5c0 1.19.97 2.16 2.16 2.16h9.14v5.33h20.6V16.98Zm-1.33 12.64-4.97-5.34 4.97-5.39zM20 26.83a2.185 2.185 0 0 0 3.28 0l1.46-1.58 5.03 5.4H13.52l5.03-5.4 1.46 1.58Zm9.33-8.52-7.05 7.65c-.22.25-.5.29-.64.29s-.42-.04-.66-.31l-5.43-5.89v-1.74h13.79ZM2.19 1.36h11.19c.46 0 .83.37.83.83V21H1.37V2.19c0-.46.37-.83.83-.83ZM1.37 24.5v-2.17h12.85v2.17c0 .46-.37.83-.83.83H2.19c-.46 0-.83-.37-.83-.83Zm11.29 2.16h.72c1.19 0 2.16-.97 2.16-2.16v-2.49l2.09 2.27-4.97 5.34zm-5.92-3.44h2.22v1.33H6.74zm-.06-8.94-3.13-3.13.94-.94 2.19 2.19 4.85-4.85.94.94-5.79 5.8Z"/>
</svg>
