<svg viewBox="0 0 32 32" xmlns="http://www.w3.org/2000/svg">
  <path d="M15.99 6.66c1.84 0 3.33-1.49 3.33-3.33S17.83-.01 15.99-.01s-3.33 1.49-3.33 3.33 1.49 3.33 3.33 3.33Zm0-5.34c1.1 0 2 .9 2 2s-.9 2-2 2-2-.9-2-2 .9-2 2-2m13.24 1.17-.35-.55-9.3 5.68h-5.97l-9.95 9.89.44.47s1.01 1.06 2.44 1.07h.01c.98 0 1.92-.46 2.75-1.34.15-.14 1.73-1.37 3.49-2.74l.03 4.22-4.66 12.8h4.01l4.61-9.93 1.63-.56-2.72 10.49h3.65l4.89-14.33c.15-.45.06-.93-.24-1.29s-.75-.55-1.24-.48l-3.33.53.37-3.75c1.1-.74 5.45-3.67 7.86-5.21 1.71-1.09 2.06-2.37 2.05-3.26 0-.95-.42-1.63-.47-1.7Zm-2.3 3.84c-2.79 1.78-8.1 5.37-8.15 5.41l-.26.18-.6 6.09 5.04-.78-4.58 13.43h-.97l2.91-11.22-4.51 1.55-4.49 9.67h-1.25l4.09-11.24-.04-5.49c.56-.43 1.1-.86 1.6-1.24l-.82-1.05c-6.37 4.95-6.49 5.08-6.54 5.12-.6.63-1.2.95-1.8.95-.37 0-.7-.12-.95-.26l8.56-8.51h5.79l8.38-5.11c.12.62 0 1.6-1.4 2.49Z"/>
</svg>
