<svg viewBox="0 0 32 32" xmlns="http://www.w3.org/2000/svg">
  <path d="M0 20h5.33v10.67H0v-1.33h4v-8H0v-1.33Zm30.58-7.95c0 5.55-4.25 10.09-9.68 10.57-.23-.51-.59-.95-1.05-1.29h.1c1.72 0 3.33-.48 4.71-1.3v-3.09l-2-2V11.8l1.64-2.46h4.53c-.09-.28-.19-.56-.3-.83l-3.87-.89-1.63-1.63-.31-2.79c-.87-.27-1.8-.42-2.76-.42-1.1 0-2.15.2-3.14.56l1.91 2.54-1.54 6.15h-3.04l.49 2.45 1.51 3.02-1.23 1.23c-.6-.14-1.22-.15-1.85-.04-.13.02-.26.03-.39.06l-.8.21c-1.58-1.86-2.55-4.26-2.55-6.89 0-5.87 4.76-10.62 10.62-10.62 4.18 0 7.78 2.42 9.51 5.92h.01v.02c.7 1.41 1.1 3 1.1 4.68ZM15.57 3.86c-2.91 1.57-4.9 4.65-4.9 8.18 0 2.49.99 4.75 2.59 6.42l1.26-1.26-1.18-2.4-.83-4.13h3.63l1.13-4.52-1.71-2.28ZM27.7 6.94a9.3 9.3 0 0 0-3.58-3.18l.18 1.6 1.03 1.03zm1.54 5.11c0-.47-.05-.93-.11-1.38h-4.1l-1.02 1.54v2.19l2 2v2.69a9.25 9.25 0 0 0 3.24-7.04ZM27.4 24.17c.55.95.22 2.18-.73 2.73l-8.06 4.65a3.26 3.26 0 0 1-2.53.33l-7.96-2.13a2 2 0 0 1-1.48-1.93v-4.57c0-.9.61-1.7 1.48-1.93L13.03 20c.29-.08.58-.11.87-.11.58 0 1.15.15 1.66.45l3.32 1.92c.95.55 1.28 1.78.73 2.73-.27.46-.7.79-1.21.93a1.98 1.98 0 0 1-1.52-.2l-2.19-1.27a.67.67 0 0 0-.91.24c-.06.1-.09.22-.09.33 0 .06 0 .12.02.17.05.17.16.32.31.4l3.11 1.79a.66.66 0 0 0 .66 0l6.88-3.97a1.97 1.97 0 0 1 1.51-.2c.52.14.95.47 1.21.93Zm-1.16.67a.62.62 0 0 0-.4-.31c-.06-.02-.12-.02-.18-.02a.6.6 0 0 0-.32.09l-6.88 3.97c-.31.18-.65.27-1 .27s-.69-.09-1-.26l-3.11-1.8a2.02 2.02 0 0 1-1-1.73c0-.35.09-.7.27-1a2.005 2.005 0 0 1 2.72-.74l2.2 1.27q.15.09.33.09c.06 0 .12 0 .18-.02a.62.62 0 0 0 .4-.31c.19-.32.08-.73-.24-.91l-3.32-1.91a1.97 1.97 0 0 0-1.52-.2l-4.9 1.31c-.29.08-.49.34-.49.64v4.57c0 .3.2.57.49.64l7.96 2.13a1.98 1.98 0 0 0 1.52-.2l8.06-4.65c.32-.18.43-.59.24-.91Z"/>
</svg>
