<svg viewBox="0 0 32 32" xmlns="http://www.w3.org/2000/svg">
  <path d="M25.37 21.37c0-2.59-2.11-4.7-4.7-4.7h-9.33c-2.59 0-4.7 2.11-4.7 4.7v5.96H5.31v-5.96c0-3.33 2.71-6.04 6.04-6.04h9.33c3.33 0 6.04 2.71 6.04 6.04v5.96h-1.33v-5.96Zm-14.74 5.96h1.33v-6.67h-1.33zm9.41 0h1.33v-6.67h-1.33zM10.67 8c0-2.95 2.39-5.33 5.33-5.33S21.33 5.06 21.33 8s-2.39 5.33-5.33 5.33-5.33-2.39-5.33-5.33M12 8c0 2.21 1.79 4 4 4s4-1.79 4-4-1.79-4-4-4-4 1.79-4 4M1.33 1.33h6V0H0v7.33h1.33zm0 23.34H0V32h7.33v-1.33h-6zM24.67 0v1.33h6v6H32V0zm6 30.67h-6V32H32v-7.33h-1.33z"/>
</svg>
