<svg viewBox="0 0 32 32" xmlns="http://www.w3.org/2000/svg">
  <path d="M28.26 8.18c-1.67-.19-2.32-.4-2.83-1.23-.37-.61-.51-1.36-.78-2.04-.09-.21-.24-.48-.42-.55-2.61-1.01-5.23-2-7.86-2.96a1.3 1.3 0 0 0-.4-.06c-.18 0-.36.03-.51.09-2.42.9-4.83 1.85-7.26 2.75-.57.21-.85.5-.96 1.15-.31 1.83-1.28 2.66-3.07 2.8-.1 0-.2.03-.34.06-.04.4-.11.79-.12 1.18-.1 2.52.06 5.01.63 7.48 1.44 6.24 4.74 10.92 10.58 13.5.21.09.4.22.6.33h.89c.07-.04.14-.1.22-.13 4.86-1.98 8.2-5.5 10.1-10.51.95-2.5 1.44-5.11 1.59-7.78.08-1.36-.02-2.73-.04-4.07Zm-1.29 3.99c-.15 2.7-.65 5.11-1.51 7.38-1.8 4.73-4.86 7.92-9.36 9.75-.02.01-.05.02-.07.03h-.17c-.14-.08-.28-.16-.42-.22-5.18-2.28-8.4-6.4-9.82-12.58-.5-2.17-.7-4.51-.6-7.13v-.06c1.97-.39 3.15-1.66 3.52-3.8a.2.2 0 0 1 .02-.09c.02-.01.05-.02.09-.04 1.31-.48 2.62-.98 3.92-1.48 1.11-.43 2.23-.85 3.34-1.27h.04c2.39.88 4.91 1.83 7.49 2.82.07.19.14.39.2.59.16.49.33 1.04.65 1.57.66 1.08 1.54 1.48 2.66 1.69v.14c.03.93.06 1.82.01 2.69ZM16 7.9c-3.19 0-5.78 1.41-5.78 3.16 0 .31.11.61.27.9h-.27v2.1c0 .31.11.61.27.9h-.27v2.1c0 .31.11.61.27.9h-.27v2.1c0 1.74 2.59 3.16 5.78 3.16s5.78-1.41 5.78-3.16v-2.1h-.27c.16-.29.27-.58.27-.9v-2.1h-.27c.16-.29.27-.58.27-.9v-2.1h-.27c.16-.29.27-.58.27-.9 0-1.74-2.59-3.16-5.78-3.16m4.09 5.39h.36v.77c0 .64-1.69 1.82-4.45 1.82s-4.45-1.18-4.45-1.82v-.77h.36c1.05.57 2.49.92 4.09.92s3.04-.35 4.09-.92m-8.54 3.77v-.77h.36c1.05.57 2.49.92 4.09.92s3.04-.35 4.09-.92h.36v.77c0 .64-1.69 1.82-4.45 1.82s-4.45-1.18-4.45-1.82M16 9.23c2.76 0 4.45 1.18 4.45 1.82s-1.69 1.82-4.45 1.82-4.45-1.18-4.45-1.82S13.24 9.23 16 9.23m4.45 10.83c0 .64-1.69 1.82-4.45 1.82s-4.45-1.18-4.45-1.82v-.77h.36c1.05.57 2.49.92 4.09.92s3.04-.35 4.09-.92h.36z"/>
</svg>
