<svg viewBox="0 0 32 32" xmlns="http://www.w3.org/2000/svg">
  <path d="M29.01 24.31 27.24 2.23c-.1-1.25-1.1-2.2-2.3-2.2H7.44C6.23.02 5.23.98 5.13 2.22L3.36 24.3c-.05.59.13 1.15.43 1.59h-.02l.62 3.6C4.73 30.94 6.19 32 7.87 32h16.41c1.68 0 3.14-1.05 3.49-2.55l.56-3.26c.46-.48.73-1.16.67-1.89ZM6.46 2.33c.04-.55.47-.97.97-.97h17.5c.5 0 .93.43.97.97l1.77 22.08c.03.32-.08.62-.28.85-.11.12-.34.31-.69.31H5.67c-.35 0-.58-.19-.69-.31-.21-.22-.31-.53-.28-.85zm20.01 26.86c-.2.86-1.12 1.48-2.18 1.48H7.88c-1.07 0-1.98-.62-2.18-1.44l-.41-2.36c.12.02.25.04.38.04h21.04c.05 0 .1-.01.16-.02zM7.98 16.05h16.2c.66 0 1.18-.62 1.12-1.35l-.86-11.43c-.05-.64-.54-1.14-1.12-1.14H8.84c-.58 0-1.07.5-1.12 1.14L6.86 14.7c-.05.73.46 1.35 1.12 1.35M9.05 3.47h14.07l.85 11.25H8.2zm9.52 20.97h-1.46V23.1h1.46zm1.4-4.41h1.33v4.47h-1.33zm-5.77 3.08h1.46v1.34H14.2zm-2.92 0h1.46v1.34h-1.46zm5.83-2.93h1.46v1.34h-1.46zm-2.91 0h1.46v1.34H14.2zm-2.92 0h1.46v1.34h-1.46zm5.83-2.92h1.46v1.34h-1.46zm2.84 0h1.46v1.34h-1.46zm-5.75 0h1.46v1.34H14.2zm-2.92 0h1.46v1.34h-1.46zm9.45 11.38c0 .37-.3.67-.67.67h-7.54a.67.67 0 0 1 0-1.34h7.54c.37 0 .67.3.67.67M16.02 3.86c-4.01 0-7.16 2.2-7.16 5.01s3.15 5.01 7.16 5.01 7.16-2.2 7.16-5.01-3.15-5.01-7.16-5.01m0 8.68c-3.16 0-5.83-1.68-5.83-3.67s2.67-3.67 5.83-3.67 5.83 1.68 5.83 3.67-2.67 3.67-5.83 3.67m.31-3.72c0 .73-.28 1.41-.79 1.92l-.94-.94c.26-.26.4-.61.4-.98s-.14-.72-.4-.98l.94-.94c.51.51.79 1.2.79 1.92m-2.28-.8c.18.24.28.51.28.81s-.1.57-.28.81l-1.06-.81 1.06-.8Zm3.09-2.18c.8.8 1.23 1.86 1.23 2.99s-.44 2.19-1.24 2.99l-.94-.94c.55-.55.85-1.28.85-2.05s-.3-1.5-.85-2.05l.94-.94Z"/>
</svg>
