<svg viewBox="0 0 32 32" xmlns="http://www.w3.org/2000/svg">
  <path d="m31.63 11.99-3.3-1.57 3.39-2.33c.19-.13.29-.34.29-.57s-.13-.43-.32-.55L20.5.1a.67.67 0 0 0-.73.02l-3.95 2.72L12.07.12a.69.69 0 0 0-.73-.04L.34 6.5c-.2.11-.32.32-.33.54s.09.44.28.57l3.3 2.38-3.24 1.86c-.2.12-.33.33-.33.57s.12.45.32.58l3.81 2.34v9.58c0 .24.12.46.33.58l11.19 6.41a.66.66 0 0 0 .66 0l11-6.41c.2-.12.33-.34.33-.58v-9.41l4.02-2.34a.67.67 0 0 0 .33-.6.66.66 0 0 0-.38-.57Zm-15.61 4.17-1.24-.76 1.1-.64 1.24.76zm.46-2.6V4.84l9.23 5.67-7.28 4.24-1.94-1.19Zm-1.34.08-1.66.97-7.37-4.53 9.03-5.26zm5.03-12.18 9.95 6.11-3.14 2.16-9.95-6.11zm-8.53 0 2.95 2.13-9.74 5.67L1.9 7.13zM4.8 10.84l2.17 1.33 7.73 4.75-2.82 1.62-9.89-6.08 2.82-1.62Zm.68 5.33 6.05 3.71a.66.66 0 0 0 .68.01l3.13-1.8v5.71l-.01 6.38-3.51-2.01v-3.83l-4.16-2.7v4.15l-2.19-1.26v-8.37Zm5 11.24-1.51-.87H9V24.1l1.48.96v2.34Zm12.51-.93-1.48.86v-2.28l1.48-.96zm3.34-1.94-2 1.17v-4.06l-4.16 2.7v3.78l-3.51 2.04V17.99l3.39 1.61c.09.04.19.07.29.07.12 0 .23-.03.34-.09l5.65-3.29zm-6.02-6.29-2.88-1.38 9.6-5.6 2.88 1.38z"/>
</svg>
