<svg viewBox="0 0 32 32" xmlns="http://www.w3.org/2000/svg">
  <path d="M29.63 10h2.39V6h-2.39a.8.8 0 0 1-.2-.25.7.7 0 0 1-.04-.31l1.69-1.68L28.25.93l-1.69 1.68h-.09c-.09 0-.16-.01-.23-.04a.7.7 0 0 1-.25-.19V0h-4v2.38c-.07.09-.16.15-.25.19-.07.03-.14.04-.23.04h-.09L19.74.93l-2.83 2.83 1.68 1.68c.01.12 0 .22-.03.31-.04.09-.11.18-.2.25h-2.38v4h2.38c.09.07.16.15.19.24.04.09.05.2.04.32l-1.69 1.68 2.83 2.83 1.69-1.68h.09c.08 0 .15.01.22.04.09.04.17.1.25.2v2.38h4v-2.38c.07-.09.16-.16.24-.19.07-.03.15-.04.23-.04h.09l1.68 1.69 2.83-2.83-1.69-1.69a.59.59 0 0 1 .24-.56Zm-1.51 1.17.33.33.74.75-.95.94-.74-.74-.33-.33-.47-.05c-.08 0-.16-.01-.23-.01-.26 0-.5.05-.75.15-.3.12-.56.32-.77.59l-.29.36v1.52h-1.33v-1.52l-.29-.37c-.21-.26-.47-.46-.79-.6-.23-.09-.47-.14-.72-.14-.08 0-.17 0-.26.02l-.45.06-.32.32-.74.74-.94-.94.74-.74.33-.33.05-.47c.04-.34 0-.66-.14-.99-.13-.29-.32-.55-.59-.76l-.37-.29h-1.52V7.34h1.52l.37-.29c.27-.21.46-.47.6-.79.12-.29.16-.62.12-.95l-.05-.46-.33-.33-.74-.74.94-.94.74.74.33.33.47.05c.08 0 .16.01.23.01.26 0 .5-.05.74-.15.3-.12.55-.32.77-.58l.3-.37V1.35h1.33v1.52l.29.37c.22.27.48.47.79.6.23.09.47.14.73.14h.2l.48-.04.34-.34.74-.74.94.94-.74.74-.34.33-.05.47c-.04.34 0 .66.13.97.13.3.32.56.59.77l.37.3h1.52v1.33h-1.53l-.37.3c-.27.22-.46.48-.58.77-.13.3-.17.63-.13.97l.05.46ZM24.01 4.8c-1.77 0-3.2 1.44-3.2 3.2s1.44 3.2 3.2 3.2 3.2-1.44 3.2-3.2-1.44-3.2-3.2-3.2m0 5.07c-1.03 0-1.87-.84-1.87-1.87s.84-1.87 1.87-1.87 1.87.84 1.87 1.87-.84 1.87-1.87 1.87M18.5 25.96V32h-1.33v-6.04c0-1.87-1.52-3.39-3.4-3.39H4.75c-1.87 0-3.4 1.52-3.4 3.39V32H.02v-6.04c0-2.6 2.12-4.72 4.73-4.72h9.02a4.73 4.73 0 0 1 4.73 4.72m-14.45.47h1.33V32H4.05zm9.08 0h1.33V32h-1.33zm-3.87-6.55c2.23 0 4.04-1.8 4.04-4.03s-1.81-4.03-4.04-4.03-4.04 1.8-4.04 4.03 1.81 4.03 4.04 4.03m0-6.73c1.49 0 2.7 1.21 2.7 2.7s-1.21 2.7-2.7 2.7-2.7-1.21-2.7-2.7 1.21-2.7 2.7-2.7"/>
</svg>
