<svg viewBox="0 0 32 32" xmlns="http://www.w3.org/2000/svg">
  <path d="M26.7 17.34h1.47c.28.77 1 1.33 1.86 1.33 1.09 0 1.99-.9 1.99-2s-.89-2-1.99-2c-.86 0-1.59.56-1.86 1.33h-1.16c.22-1.15.36-2.33.43-3.51.03-.5.02-1.01.01-1.52h.72c.28.77 1 1.33 1.86 1.33 1.09 0 1.99-.9 1.99-2s-.89-2-1.99-2c-.86 0-1.59.56-1.86 1.33h-.74l-.03-.95c-1.55-.18-2.15-.37-2.63-1.15-.35-.57-.47-1.28-.73-1.91-.08-.2-.22-.45-.39-.52-2.42-.95-4.86-1.88-7.3-2.78-.11-.04-.24-.06-.37-.06-.16 0-.33.03-.47.08-2.25.85-4.49 1.74-6.74 2.58-.53.2-.79.47-.9 1.08-.29 1.71-1.19 2.5-2.85 2.62-.09 0-.19.03-.32.06-.03.33-.08.64-.1.95h-.74C3.58 8.86 2.86 8.3 2 8.3.91 8.29.02 9.19.02 10.29s.89 2 1.98 2c.86 0 1.59-.56 1.86-1.33h.72c0 1.69.13 3.37.45 5.03H3.86c-.28-.77-1-1.33-1.86-1.33-1.09 0-1.98.9-1.98 2.01s.89 2 1.98 2c.86 0 1.59-.56 1.86-1.33h1.47c.46 1.83 1.1 3.51 1.93 5.03h-3.4c-.28-.77-1-1.33-1.86-1.33-1.09 0-1.98.9-1.98 2s.89 2 1.98 2c.86 0 1.59-.56 1.86-1.33H8.1c1.66 2.44 3.91 4.39 6.9 5.72.19.09.37.21.55.31h.83c.07-.04.13-.09.2-.12 3.12-1.28 5.54-3.27 7.34-5.91h4.25c.28.77 1 1.33 1.86 1.33 1.09 0 1.99-.9 1.99-2s-.89-2-1.99-2c-.86 0-1.59.56-1.86 1.33h-3.42c.45-.82.87-1.67 1.21-2.59.3-.8.53-1.61.74-2.43Zm3.33-1.33c.36 0 .65.3.65.66s-.29.66-.65.66-.65-.29-.65-.66.29-.66.65-.66M2 23.7c-.36 0-.65-.29-.65-.66s.29-.66.65-.66.65.29.65.66-.29.66-.65.66m28.03-1.32c.36 0 .65.29.65.66s-.29.66-.65.66-.65-.29-.65-.66.29-.66.65-.66m0-12.74c.36 0 .65.29.65.66s-.29.66-.65.66-.65-.3-.65-.66.29-.66.65-.66M2 10.95c-.36 0-.65-.3-.65-.66s.29-.66.65-.66.65.29.65.66-.29.66-.65.66m0 6.37c-.36 0-.65-.29-.65-.66S1.64 16 2 16s.65.3.65.66-.29.66-.65.66m14.08 11.06s-.03.01-.05.02h-.11c-.12-.07-.25-.14-.38-.2-4.78-2.13-7.75-5.96-9.06-11.72-.46-2.02-.64-4.2-.55-6.64 1.83-.39 2.93-1.6 3.27-3.63v-.03c.01 0 .02 0 .04-.01 1.22-.45 2.43-.92 3.64-1.39 1.03-.4 2.06-.8 3.09-1.18 2.2.82 4.52 1.7 6.89 2.62.06.17.12.34.17.51.15.46.31.99.62 1.49.62 1.02 1.43 1.41 2.46 1.62v.05c.03.87.06 1.7.01 2.52-.14 2.52-.6 4.77-1.39 6.89-1.66 4.41-4.48 7.38-8.64 9.08Zm-2.4-10.93c-.44 0-.79.4-.79.89a.67.67 0 0 1-1.34 0c0-.37.1-.72.25-1.04-.27-.27-.44-.64-.44-1.05a.67.67 0 0 1 1.34 0c.05 0 .09.02.14.03q.39-.18.84-.18a.67.67 0 0 1 0 1.34Zm8.75-3.2a2.706 2.706 0 0 0-1.91-4.47c.05-.21.08-.42.08-.64 0-1.5-1.21-2.72-2.69-2.72-.81 0-1.53.37-2.03.95-.49-.57-1.21-.95-2.03-.95-1.49 0-2.69 1.22-2.69 2.72 0 .22.03.43.08.64a2.706 2.706 0 0 0-1.91 4.47c-.88.45-1.49 1.36-1.49 2.42 0 .99.53 1.85 1.32 2.33-.04.19-.07.4-.07.6 0 1.14.7 2.11 1.68 2.52.11 1.52 1.35 2.71 2.88 2.71.9 0 1.7-.43 2.23-1.08.53.65 1.33 1.08 2.23 1.08 1.53 0 2.77-1.2 2.88-2.71.98-.4 1.68-1.38 1.68-2.52 0-.21-.03-.41-.07-.6.78-.48 1.32-1.33 1.32-2.33 0-1.06-.61-1.97-1.49-2.42m-8.78 9.23c-.81 0-1.49-.64-1.55-1.47l-.05-.61c0-.53.44-.96.96-.96a.67.67 0 0 0 0-1.34c-.98 0-1.82.63-2.15 1.51a1.34 1.34 0 0 1-.45-1c0-.09.01-.19.04-.31l.21-.95-.83-.5c-.42-.25-.67-.69-.67-1.17 0-.51.29-.98.75-1.22l1.1-.56.42-.21h-.01c.61-.44 1.01-1.15 1.01-1.95a.67.67 0 0 0-1.34 0c0 .39-.23.73-.56.89l-.21-.25c-.15-.18-.34-.48-.34-.89 0-.73.57-1.33 1.3-1.36l.72-.03.04.04c.31.21.66.31 1.01.31.12 0 .24-.01.36-.04.36-.07.6-.43.52-.79a.666.666 0 0 0-.78-.53c-.13.03-.27 0-.38-.07a.5.5 0 0 1-.21-.32l-.06-.23a1.5 1.5 0 0 1-.05-.32c0-.76.61-1.37 1.36-1.37s1.36.61 1.36 1.37v3.95c-.08.02-.16.04-.24.07-.28-.35-.71-.59-1.23-.59a.67.67 0 0 0 0 1.34h.03c-.29.35-.47.78-.47 1.24a.67.67 0 0 0 1.34 0c0-.29.24-.53.58-.66v5.41c-.83.13-1.4.58-1.4 1.2a.67.67 0 0 0 1.31.2c.02-.01.07-.02.1-.03v.63c0 .87-.7 1.58-1.57 1.58Zm8.27-5.64-.83.5.21.95c.03.12.04.22.04.31 0 .39-.17.75-.44 1a2.3 2.3 0 0 0-2.15-1.51.67.67 0 0 0 0 1.34c.52 0 .95.42.96.95l-.05.63c-.06.82-.74 1.47-1.55 1.47-.86 0-1.57-.71-1.57-1.58v-.65c.06.02.13.04.16.05a.67.67 0 0 0 1.31-.2c0-.64-.6-1.09-1.47-1.2v-5.4c.34.13.58.38.58.66a.67.67 0 0 0 1.34 0c0-.46-.18-.89-.47-1.24h.03a.67.67 0 0 0 0-1.34c-.51 0-.95.24-1.23.59-.08-.02-.16-.05-.24-.07V9.15c0-.76.61-1.37 1.36-1.37s1.36.62 1.36 1.37c0 .09-.01.19-.05.32l-.07.29s-.01.03-.02.04c-.05.27-.32.46-.59.4a.66.66 0 0 0-.78.53c-.07.37.16.72.52.79.12.02.24.04.36.04.45 0 .87-.17 1.19-.46l.62.03a1.356 1.356 0 0 1 .96 2.25l-.23.27c-.34-.16-.59-.5-.59-.91a.67.67 0 0 0-1.34 0c0 1.01.64 1.87 1.53 2.2l1.03.52c.47.24.75.7.75 1.22 0 .48-.25.92-.67 1.17Zm-1.52-1.59c0 .42-.17.79-.44 1.05.16.31.25.66.25 1.04s-.3.67-.67.67-.67-.3-.67-.67c0-.49-.35-.89-.79-.89a.67.67 0 0 1 0-1.34c.34 0 .65.09.93.24.02-.01.05-.03.05-.08a.67.67 0 0 1 1.34 0Z"/>
</svg>
