<svg viewBox="0 0 32 32" xmlns="http://www.w3.org/2000/svg">
  <path d="M16 9.08c-3.82 0-6.92 3.1-6.92 6.92s3.1 6.92 6.92 6.92 6.92-3.1 6.92-6.92-3.1-6.92-6.92-6.92M18 16c0 1.1-.9 2-2 2s-2-.9-2-2 .9-2 2-2 2 .9 2 2m-1.33-3.27v-2.25c.53.06 1.05.18 1.53.38l-1.15 1.99c-.13-.04-.25-.09-.38-.12m-1.34 0c-.13.03-.25.07-.38.12l-1.15-1.99c.48-.2.99-.32 1.52-.38v2.25Zm-2.59 2.59h-2.25c.07-.53.18-1.05.39-1.52l1.98 1.15c-.04.12-.09.25-.12.38Zm-.01 1.33c.03.13.07.25.11.38l-1.99 1.15c-.2-.48-.32-.99-.38-1.53h2.25Zm2.59 2.61v2.25c-.53-.07-1.05-.18-1.53-.39l1.15-1.98c.13.04.25.09.38.12m1.33.01q.195-.045.39-.12l1.15 1.99c-.48.2-1 .32-1.53.38v-2.25Zm2.62-2.6h2.25c-.06.54-.18 1.05-.39 1.53l-1.99-1.15c.04-.13.09-.25.12-.39Zm0-1.34c-.03-.13-.08-.26-.12-.38l1.99-1.15c.21.48.32 1 .39 1.53h-2.25Zm1.18-2.67-1.97 1.14c-.09-.1-.18-.19-.28-.28l1.14-1.97q.63.48 1.11 1.11m-7.79-1.11 1.14 1.97c-.1.09-.19.18-.28.28l-1.97-1.14q.48-.63 1.11-1.11m-1.12 7.78 1.97-1.14c.09.1.18.19.28.28l-1.14 1.97q-.63-.48-1.11-1.11m7.79 1.13-1.14-1.97c.1-.09.19-.18.28-.28l1.97 1.14c-.32.42-.69.8-1.12 1.11Zm12-5.13h-4.54c-.09-1.49-.48-2.89-1.11-4.15l2.11-1.22 1.82-1.05c.32-.18.43-.59.24-.91a.657.657 0 0 0-.91-.24l-1.34.78-2.58 1.49c-.8-1.21-1.84-2.24-3.04-3.04l1.21-2.1 1.05-1.82c.18-.32.08-.73-.24-.91a.675.675 0 0 0-.91.24l-.78 1.34-1.49 2.59a10.7 10.7 0 0 0-4.15-1.11V.67a.67.67 0 0 0-1.34 0v4.54c-1.49.09-2.89.48-4.15 1.11L9.69 3.73l-.78-1.34A.657.657 0 0 0 8 2.15c-.32.18-.43.59-.24.91l1.05 1.82 1.21 2.1c-1.21.8-2.24 1.84-3.04 3.04l-2.1-1.21-1.82-1.05a.657.657 0 0 0-.91.24c-.18.32-.07.73.24.91l1.34.78 2.59 1.49a10.7 10.7 0 0 0-1.11 4.15H.67a.67.67 0 0 0 0 1.34h4.54c.09 1.49.48 2.89 1.11 4.15l-2.59 1.49-1.34.78c-.32.18-.43.59-.24.91a.67.67 0 0 0 .91.24l1.82-1.05 2.1-1.21c.8 1.21 1.84 2.24 3.04 3.04L8.53 27.6l-.78 1.34c-.18.32-.07.73.24.91.1.06.22.09.33.09.23 0 .45-.12.58-.33l1.05-1.82 1.22-2.11c1.26.63 2.67 1.02 4.15 1.11v4.54a.67.67 0 0 0 1.34 0v-4.54c1.49-.09 2.89-.48 4.15-1.11l1.49 2.59.78 1.34a.67.67 0 0 0 .91.24c.32-.18.43-.59.24-.91l-1.05-1.82-1.21-2.1c1.21-.8 2.24-1.84 3.04-3.04l2.1 1.21 1.82 1.05q.165.09.33.09c.23 0 .45-.12.58-.33.18-.32.08-.73-.24-.91l-1.35-.78-2.59-1.49a10.7 10.7 0 0 0 1.11-4.15h4.54a.67.67 0 0 0 0-1.34ZM16 25.49c-5.23 0-9.49-4.26-9.49-9.49S10.77 6.51 16 6.51s9.49 4.26 9.49 9.49-4.26 9.49-9.49 9.49"/>
</svg>
