<svg viewBox="0 0 32 32" xmlns="http://www.w3.org/2000/svg">
  <path d="M20.68 9.57c-2.95 0-5.33 2.39-5.33 5.33s2.39 5.33 5.33 5.33 5.33-2.39 5.33-5.33-2.39-5.33-5.33-5.33m-.16 1.35v3.82H16.7a3.984 3.984 0 0 1 3.82-3.82m.16 7.98c-1.8 0-3.3-1.2-3.8-2.83h4.98v-4.98c1.63.5 2.83 2.01 2.83 3.8 0 2.21-1.79 4-4 4ZM21.9 1.33V0H10.67v1.33H4.29V32h24V1.33h-6.38Zm-9.9 0h8.56v2.1H12zm14.95 29.34H5.62v-28h5.05v2.1H21.9v-2.1h5.05zm-5.7-22.96H8V6.38h13.25zm-5.75 2.67H8V9.05h7.5zm-2.17 2.69H8v-1.33h5.33zm10.09 7.59c-1.1 0-2 .9-2 2 0 .29.07.56.18.81l-2.6 2.6c-.25-.11-.52-.18-.81-.18s-.56.06-.81.18l-2.64-2.64c.11-.25.18-.52.18-.81 0-1.1-.9-2-2-2s-2 .9-2 2c0 .3.07.59.2.85l-1.66 1.66c-.26-.12-.54-.2-.85-.2-1.1 0-2 .9-2 2s.9 2 2 2 2-.9 2-2c0-.31-.08-.6-.2-.87l1.66-1.66a1.91 1.91 0 0 0 1.76-.03l2.6 2.6c-.14.27-.23.58-.23.9 0 1.1.9 2 2 2s2-.9 2-2c0-.33-.09-.63-.23-.9l2.56-2.56c.27.14.58.22.9.22 1.1 0 2-.9 2-2s-.9-2-2-2ZM8.59 27.61a.67.67 0 1 1 0-1.34.67.67 0 0 1 0 1.34m4.32-4.31a.67.67 0 1 1 0-1.34.67.67 0 0 1 0 1.34m5.27 5.27a.67.67 0 1 1 0-1.34.67.67 0 0 1 0 1.34m5.24-5.24a.67.67 0 1 1 0-1.34.67.67 0 0 1 0 1.34"/>
</svg>
