<svg viewBox="0 0 32 32" xmlns="http://www.w3.org/2000/svg">
  <path d="M4 4h24v24H4zm5.64 21.09c1.51 0 2.74-1.23 2.74-2.74s-1.23-2.74-2.74-2.74-2.74 1.23-2.74 2.74 1.23 2.74 2.74 2.74m0-4.15c.78 0 1.41.63 1.41 1.41s-.63 1.41-1.41 1.41-1.41-.63-1.41-1.41.63-1.41 1.41-1.41m-5.21 5.94 1.68-.58c.55.49 1.19.86 1.89 1.09l.34 1.74h2.62l.34-1.74c.7-.23 1.34-.6 1.89-1.09l1.68.58 1.31-2.27-1.34-1.17a4.6 4.6 0 0 0 0-2.17l1.34-1.17-1.31-2.27-1.68.58c-.55-.49-1.19-.86-1.89-1.09l-.34-1.74H8.34L8 17.32c-.7.23-1.34.6-1.89 1.09l-1.67-.58-1.31 2.27 1.34 1.17a4.6 4.6 0 0 0 0 2.18l-1.34 1.17 1.31 2.27Zm.61-7.43 1.43.49.3-.31c.53-.56 1.21-.96 1.96-1.14l.42-.1.29-1.48h.42l.29 1.48.42.1c.75.18 1.43.57 1.96 1.13l.3.31 1.43-.49.21.37-1.15 1 .12.41c.13.42.19.78.19 1.13s-.06.7-.19 1.12l-.12.41 1.15 1-.21.37-1.43-.49-.3.31c-.53.56-1.21.96-1.96 1.14l-.42.1-.29 1.48h-.42l-.29-1.48-.42-.1c-.75-.18-1.43-.57-1.96-1.13l-.3-.31-1.43.49-.21-.37 1.15-1-.12-.41c-.13-.42-.19-.78-.19-1.13s.06-.7.19-1.13l.12-.41-1.15-1 .21-.37Zm17.3-12.54c-1.51 0-2.74 1.23-2.74 2.74s1.23 2.74 2.74 2.74 2.74-1.23 2.74-2.74-1.23-2.74-2.74-2.74m0 4.15c-.78 0-1.41-.63-1.41-1.41s.63-1.41 1.41-1.41 1.41.63 1.41 1.41-.63 1.41-1.41 1.41m5.22-5.94-1.68.58c-.55-.49-1.19-.86-1.89-1.09l-.34-1.74h-2.63l-.34 1.74c-.7.23-1.34.6-1.89 1.09l-1.67-.58-1.31 2.27 1.34 1.17c-.09.38-.13.74-.13 1.09s.04.7.13 1.09l-1.34 1.17 1.31 2.27 1.68-.58c.55.49 1.19.86 1.89 1.09l.34 1.74h2.63l.34-1.74c.7-.23 1.34-.6 1.88-1.09l1.68.58 1.31-2.27-1.34-1.17a4.6 4.6 0 0 0 0-2.17l1.34-1.17-1.31-2.27Zm-.61 7.43-1.43-.49-.29.31c-.53.56-1.21.96-1.96 1.14l-.42.1-.29 1.48h-.42l-.29-1.48-.42-.1c-.75-.18-1.43-.57-1.96-1.13l-.3-.31-1.43.49-.21-.37 1.15-1-.12-.41c-.13-.43-.19-.79-.19-1.13s.06-.7.19-1.13l.12-.41-1.15-1 .21-.37 1.43.49.3-.31c.53-.56 1.21-.96 1.96-1.14l.42-.1.29-1.48h.42l.29 1.48.42.1c.75.18 1.43.57 1.96 1.13l.3.31 1.43-.49.21.37-1.15 1 .12.41c.13.43.19.78.19 1.13s-.06.7-.19 1.12l-.12.41 1.15 1-.21.37Zm5.04-2.91c0 5.32-4.33 9.65-9.65 9.65-2.52 0-4.88-.96-6.68-2.71a8.28 8.28 0 0 0-6-2.55c-4.58 0-8.31 3.73-8.31 8.31s3.73 8.31 8.31 8.31c1.68 0 3.29-.51 4.66-1.43l-1.07-.25.31-1.3 3.4.8-.78 3.31-1.3-.31.29-1.22a9.6 9.6 0 0 1-5.5 1.73C4.32 31.99 0 27.67 0 22.35s4.33-9.65 9.65-9.65c2.52 0 4.88.96 6.68 2.71a8.26 8.26 0 0 0 6 2.55c4.58 0 8.31-3.73 8.31-8.31s-3.72-8.32-8.3-8.32c-1.68 0-3.29.51-4.66 1.43l1.07.25-.31 1.3-3.4-.8.78-3.31 1.3.31-.29 1.22A9.65 9.65 0 0 1 22.34 0c5.32 0 9.65 4.32 9.65 9.64"/>
</svg>
