<svg viewBox="0 0 32 32" xmlns="http://www.w3.org/2000/svg">
  <path d="M4 4h24v24H4zm6.36 13.5c-2.28 0-4.14 1.86-4.14 4.14s1.86 4.14 4.14 4.14 4.14-1.86 4.14-4.14-1.86-4.14-4.14-4.14m0 6.96c-1.55 0-2.81-1.26-2.81-2.81s1.26-2.81 2.81-2.81 2.81 1.26 2.81 2.81-1.26 2.81-2.81 2.81M30.27 3.19h-6.25V1.51c0-.83-.68-1.52-1.52-1.52h-4.98c-.83 0-1.52.68-1.52 1.52v1.68H9.78c-.95 0-1.73.78-1.73 1.73v6.37h-.28v3.08c-.1.12-.2.2-.32.25-.09.04-.19.06-.29.06h-.11L4.87 12.5l-3.66 3.66 2.18 2.18c.02.15 0 .29-.04.4-.05.12-.14.23-.26.32H0v5.18h3.08c.12.09.2.2.25.32s.07.26.05.41L1.2 27.15l3.66 3.66 2.18-2.18h.12c.1 0 .2.02.28.05.12.05.23.14.32.26v3.09h5.18v-3.08c.1-.12.2-.2.32-.25a.7.7 0 0 1 .3-.06h.11l2.18 2.19 3.67-3.66-2.18-2.19c-.02-.15 0-.28.05-.4s.13-.23.25-.33h3.08v-3.48h9.56c.95 0 1.73-.78 1.73-1.73V4.92c0-.95-.78-1.73-1.73-1.73ZM17.34 1.52c0-.1.09-.18.18-.18h4.98c.1 0 .18.09.18.18V3.2h-5.34zm-7.95 3.4c0-.21.18-.39.39-.39H16v.02h8.01v-.02h6.25c.21 0 .39.18.39.39v3.01c0 .21-.18.39-.39.39h-6.25v-.33c0-.73-.6-1.33-1.33-1.33h-5.34c-.73 0-1.33.6-1.33 1.33v.33H9.79c-.21 0-.39-.18-.39-.39V4.92Zm13.3 3.07v1.88h-5.34V7.99zM19.38 22.9h-2.23l-.37.3c-.29.24-.51.53-.64.84-.14.32-.18.68-.14 1.06l.05.46.33.33 1.24 1.24-1.78 1.78-1.24-1.24-.33-.33-.47-.05c-.09 0-.17-.01-.26-.01-.28 0-.55.05-.81.16-.32.14-.6.35-.84.65l-.29.36v2.22H9.09v-2.22l-.29-.37c-.23-.29-.52-.51-.86-.66-.25-.1-.51-.15-.79-.15-.09 0-.19 0-.28.02l-.45.06-.32.32-1.24 1.24-1.77-1.78 1.24-1.23.33-.33.05-.47c.04-.37 0-.73-.15-1.08-.14-.32-.35-.6-.64-.83l-.37-.29H1.33v-2.51h2.22l.37-.29c.29-.23.51-.52.66-.86.13-.32.17-.67.13-1.05l-.05-.46-.33-.33-1.23-1.24 1.78-1.78 1.23 1.24.33.33.47.05c.09 0 .17.01.26.01.28 0 .55-.05.81-.16.32-.13.6-.35.84-.64l.29-.37v-2.22h2.51v2.22l.29.37c.24.3.52.51.86.65.25.1.52.15.8.15.07 0 .15 0 .23-.01l.48-.04.34-.34 1.24-1.24 1.77 1.77-1.24 1.24-.33.33-.05.47c-.04.37 0 .73.14 1.06s.35.61.64.84l.37.3h2.22zm10.89-3.48h-9.56v-.36h-3.09c-.12-.1-.2-.2-.25-.32-.05-.13-.06-.27-.05-.4l2.18-2.18-3.66-3.66-2.18 2.18h-.11c-.11 0-.21-.02-.3-.05a.8.8 0 0 1-.32-.25v-3.09H9.37V9.58c.13.03.25.08.39.08h6.22v.22c0 .74.6 1.33 1.33 1.33h5.34c.74 0 1.33-.6 1.33-1.33v-.22h6.25c.14 0 .26-.05.39-.08v9.45c0 .21-.18.39-.39.39Z"/>
</svg>
