<svg viewBox="0 0 32 32" xmlns="http://www.w3.org/2000/svg">
  <path d="M12.01 14c2.94 0 5.32-2.39 5.32-5.33s-2.38-5.33-5.32-5.33-5.32 2.39-5.32 5.33S9.07 14 12.01 14m0-9.33c1.4 0 2.63.73 3.34 1.82-1.06.26-2.64.49-3.74-.12-.53-.29-.88-.76-1.08-1.41.46-.19.96-.29 1.48-.29M9.29 5.76c.05.57 0 1.25-.32 1.73-.2.29-.5.49-.89.62.13-.92.56-1.74 1.21-2.35m.78 2.48c.22-.32.35-.67.43-1.03.15.12.3.24.47.33.73.4 1.59.54 2.41.54.94 0 1.83-.18 2.5-.36.07.3.12.62.12.94 0 2.2-1.79 4-3.99 4-1.92 0-3.53-1.37-3.91-3.18.86-.19 1.53-.6 1.96-1.25Zm21.85 7.83c-1.18-.13-1.64-.28-2-.87-.26-.43-.36-.96-.55-1.44-.06-.15-.17-.34-.3-.39-1.85-.72-3.7-1.42-5.56-2.1a.9.9 0 0 0-.29-.05c-.12 0-.25.02-.36.06-1.72.64-3.42 1.31-5.14 1.95-.41.15-.6.36-.68.82-.21 1.23-.85 1.81-2 1.95H6c-3.32 0-6.03 2.71-6.03 6.03v9.96H1.3v-9.96c0-2.59 2.11-4.7 4.69-4.7h2.52l-.85 5.29 2.44-.87.62 1.78-.77 8.46h1.34l.71-7.88h.31l.7 7.88h1.34l-.75-8.47.51-1.58.92.4c.48 2 1.24 3.77 2.31 5.27v4.37h1.33v-2.79c1.05 1.04 2.31 1.9 3.81 2.57.04.02.08.05.12.07v.16h.28s.01 0 .02.01h.63s.01 0 .02-.01h.39v-.2c3.3-1.42 5.58-3.87 6.9-7.33.67-1.77 1.02-3.62 1.13-5.51.06-.96-.02-1.93-.03-2.88Zm-18.58 1.26-1.29 1.87-1.41-1.87zm-3.12 2.96-.88.31.37-2.3L11 20l-.78.28Zm2.22 2.49h-.57l-.52-1.48.69-.25.84.37-.45 1.36Zm2.09-2.1-.58-.25-.87-.38 1.23-1.78.29 1.34c.03.39.08.77.13 1.16zm15.05 3.31c-1.22 3.22-3.3 5.4-6.35 6.66-.07-.04-.14-.08-.22-.11-3.55-1.57-5.75-4.39-6.73-8.64-.33-1.44-.47-2.98-.42-4.7 1.32-.36 2.16-1.3 2.46-2.78.88-.33 1.76-.66 2.64-1 .75-.29 1.49-.57 2.24-.85 1.6.59 3.28 1.22 5 1.89.03.08.05.16.08.24.12.37.25.79.5 1.2.48.78 1.1 1.12 1.84 1.31.02.58.03 1.13 0 1.67-.11 1.87-.45 3.54-1.04 5.11m-24.22.95h1.33v7.05H5.36zm20.99-6.98c0-1.81-1.44-3.29-3.21-3.29s-3.21 1.47-3.21 3.29v.87h-1.18v7.1h8.77v-7.1h-1.18v-.87Zm-5.08 0c0-1.08.84-1.95 1.87-1.95s1.87.88 1.87 1.95v.87h-3.75v-.87Zm4.93 6.64h-6.11v-4.43h6.11zm-3.72-2.2v.55a.67.67 0 0 0 1.34 0v-.55s-.01-.05-.01-.07c.1-.14.17-.3.17-.48 0-.45-.37-.82-.82-.82s-.82.37-.82.82c0 .18.07.34.17.48 0 .02-.01.04-.01.07Z"/>
</svg>
