<svg viewBox="0 0 32 32" xmlns="http://www.w3.org/2000/svg">
  <path d="M0 30.66h29.23v1.33H0zm27.11-10.5L32 25.05v1.89l-5.38-5.38v7.75H2.6V14.14c0-1.22 1-2.22 2.22-2.22h4.03c-.01-.21-.03-.41-.03-.62C8.82 5.05 13.87 0 20.11 0S31.4 5.06 31.4 11.29c0 2.15-.61 4.16-1.66 5.87L32 19.42v1.89l-3.01-3.01c-.53.66-1.18 1.31-1.88 1.86m-16.96-8.87c0 5.49 4.47 9.96 9.96 9.96s9.96-4.47 9.96-9.96-4.47-9.96-9.96-9.96-9.96 4.47-9.96 9.96m15.14 16.68v-6.65c-1.55.8-3.31 1.27-5.18 1.27-5.57 0-10.18-4.04-11.11-9.34H4.83c-.48 0-.89.41-.89.89v13.84h21.35Zm.57-10.38H14.35v-9.3h8.42V7.14c0-1.52-1.2-2.77-2.66-2.77s-2.67 1.24-2.67 2.77h-1.33c0-2.26 1.79-4.1 4-4.1s4 1.84 4 4.1v1.15h1.76v9.3Zm-1.33-7.97h-8.84v6.63h8.84zm-5.09 3.45v.61a.67.67 0 0 0 1.34 0v-.61c.25-.2.41-.49.41-.83 0-.6-.48-1.08-1.08-1.08s-1.08.48-1.08 1.08c0 .34.17.63.41.83"/>
</svg>
