<svg viewBox="0 0 32 32" xmlns="http://www.w3.org/2000/svg">
  <path d="M16.57 16.98c0 .32-.25.58-.62.58s-.62-.26-.62-.58.25-.58.62-.58.62.27.62.58m-1.16-2.44.2 1.55h.68l.2-1.55v-1.18h-1.08zM16 8.62l6.18 10.7H9.83l6.18-10.7Zm3.86 9.37-3.87-6.7-3.87 6.7h7.73Zm12.1-2.96c0 1.09-.89 1.99-1.98 1.99-.86 0-1.58-.55-1.86-1.32h-1.93v4.76h2.21v1.82c0 1.22-.99 2.22-2.21 2.22l.77.77c.73-.33 1.65-.21 2.23.37.37.38.58.87.58 1.4s-.21 1.03-.58 1.4c-.37.38-.87.58-1.4.58s-1.03-.21-1.4-.58-.58-.87-.58-1.4c0-.3.07-.58.2-.85l-1.69-1.7h-7.65v3.65c.76.28 1.32 1 1.32 1.86 0 1.09-.89 1.99-1.98 1.99s-1.98-.89-1.98-1.99c0-.86.55-1.59 1.32-1.86v-3.65H7.7l-1.69 1.7c.12.26.2.55.2.85 0 .53-.21 1.03-.58 1.4-.37.38-.87.58-1.4.58s-1.03-.21-1.4-.58c-.37-.38-.58-.87-.58-1.4s.21-1.03.58-1.4c.58-.59 1.5-.7 2.23-.37l.77-.77a2.23 2.23 0 0 1-2.19-2.22v-1.82h2.21V15.7H3.89c-.28.77-1 1.32-1.86 1.32-1.13-.01-2.02-.9-2.02-1.99s.89-1.99 1.98-1.99c.86 0 1.58.55 1.86 1.32h1.96V9.2c0-.39.11-.75.29-1.07L5.04 7.07c-.26.12-.55.2-.85.2-.53 0-1.03-.21-1.4-.58-.37-.38-.58-.87-.58-1.4s.21-1.03.58-1.4c.75-.75 2.06-.75 2.8 0 .61.61.72 1.5.38 2.24l1.09 1.1c.29-.15.62-.23.97-.23h7.28V3.87c-.77-.28-1.32-1-1.32-1.86C14 .9 14.89 0 15.98 0s1.98.89 1.98 1.99c0 .86-.55 1.59-1.32 1.86v3.13h7.31c.34 0 .66.09.95.23l1.09-1.09c-.34-.74-.23-1.63.38-2.24.75-.75 2.05-.75 2.8 0 .77.77.77 2.03 0 2.81-.37.38-.87.58-1.4.58-.3 0-.58-.07-.85-.2l-1.05 1.05c.18.32.29.69.29 1.08v5.16h1.93c.28-.77 1-1.32 1.86-1.32 1.09 0 1.98.89 1.98 1.99Zm-4.64-9.28c.26.26.67.25.92 0s.25-.67 0-.92a.67.67 0 0 0-.92 0c-.25.25-.25.67 0 .92M4.65 4.83c-.12-.12-.29-.19-.46-.19s-.34.07-.46.19-.19.29-.19.46.07.34.19.46c.25.25.67.25.92 0s.25-.67 0-.92m-2 10.2c0-.36-.29-.65-.65-.65s-.65.29-.65.65.29.65.65.65.65-.29.65-.65m2.19 12.02a.66.66 0 0 0-.19-.46c-.13-.13-.29-.19-.46-.19s-.33.06-.46.19c-.12.12-.19.29-.19.46s.07.34.19.46c.25.25.67.25.92 0a.66.66 0 0 0 .19-.46m22.29 0c0 .17.07.34.19.46.25.25.67.25.92 0 .12-.12.19-.29.19-.46s-.07-.34-.19-.46c-.13-.13-.29-.19-.46-.19s-.33.06-.46.19a.66.66 0 0 0-.19.46M15.33 1.99c0 .36.29.65.65.65s.65-.29.65-.65-.29-.65-.65-.65-.65.29-.65.65M7.15 20.45h17.7V9.2c0-.48-.41-.89-.89-.89H8.03c-.48 0-.89.41-.89.89v11.25Zm9.48 9.57c0-.36-.29-.65-.65-.65s-.65.29-.65.65.29.65.65.65.65-.29.65-.65m-11.7-8.23v.49c0 .48.41.89.89.89h20.35c.48 0 .89-.41.89-.89v-.49zm25.69-6.76c0-.36-.29-.65-.65-.65s-.65.29-.65.65.29.65.65.65.65-.29.65-.65"/>
</svg>
