<svg viewBox="0 0 32 32" xmlns="http://www.w3.org/2000/svg">
  <path d="M22.52 2.25A2.925 2.925 0 0 0 19.69 0h-5.9c-1.6 0-2.92 1.31-2.92 2.92s1.31 2.92 2.92 2.92h1.17v2.37c-.68.83-1.68 2.2-2.11 3.4H8.22v4.83c-1.82 1.92-2.95 4.5-2.95 7.35 0 3.3 1.49 6.25 3.83 8.22h13.79c2.34-1.97 3.83-4.92 3.83-8.22 0-2.85-1.13-5.43-2.95-7.35v-4.83h-5.39c-.43-1.19-1.43-2.55-2.11-3.39V5.84h3.4c1.37 0 2.53-.97 2.83-2.25h9.48V2.26H22.5Zm-7.5 2.25V1.33h1.16V4.5zm2.49-3.17h1.16V4.5h-1.16zm-5.3 1.59c0-.84.66-1.51 1.48-1.56v3.13c-.82-.06-1.48-.73-1.48-1.56Zm10.18 27.75H9.61c-1.92-1.78-3-4.26-3-6.88s1.04-4.87 2.71-6.57h13.37c1.67 1.7 2.71 4.01 2.71 6.57s-1.09 5.1-3 6.88Zm-3.81-17.74h3.87v2.95H9.55v-2.95h3.12c.16 2 1.66 2.7 2.95 2.7 1.4 0 2.8-.71 2.95-2.7Zm-2.96 1.37c-.75 0-1.65-.3-1.65-1.71 0-.66.79-1.96 1.65-3.09.9 1.19 1.65 2.47 1.65 3.09 0 .79-.19 1.71-1.65 1.71m4.39-9.86V1.4c.72.15 1.27.76 1.27 1.52s-.55 1.37-1.27 1.52m-4.4 7.92c.02.15.05.15.12.15a.67.67 0 0 1 0 1.34c-.75 0-1.31-.5-1.44-1.27a.66.66 0 0 1 .55-.76c.36-.06.71.19.76.55Zm4.58 10.15.72-.73a.664.664 0 1 0-.94-.94l-.84.84c-.28-.38-.65-.7-1.07-.92 0-.34-.12-.64-.3-.9l.34-.34a.664.664 0 1 0-.94-.94l-.43.43s-.05.07-.07.11c-.11-.02-.2-.06-.31-.06s-.21.04-.31.06a.4.4 0 0 0-.07-.11l-.43-.43a.664.664 0 1 0-.94.94l.34.34c-.17.27-.3.57-.3.9v.01c-.46.24-.85.58-1.14 1.01l-.93-.93a.664.664 0 1 0-.94.94l.97.97c-.33.32-.6.67-.73 1.03-.46 1.26-.08 3.21.78 4 .22.2.48.31.74.37a3.12 3.12 0 0 0 2.69 1.57h.54c1.13 0 2.11-.61 2.67-1.52.03 0 .06.01.09.01.38 0 .74-.15 1.05-.43.86-.8 1.24-2.74.78-4-.17-.46-.55-.89-1.02-1.29Zm-3.66 2.51c.14.48.33.96.56 1.39-.36.02-.75.02-1.12.01.23-.44.42-.92.56-1.41Zm-2.73 1.84c-.09.05-.15.05-.26-.05-.44-.4-.73-1.74-.43-2.56.22-.59 1.4-1.37 2.52-1.95.01 0 .02.01.03.02-.14 1.62-.61 3.96-1.86 4.54m2.81 1.54h-.54c-.51 0-.97-.22-1.3-.57.06-.04.12-.09.18-.14.42.04.88.07 1.39.07.71 0 1.26-.03 1.71-.09-.33.44-.85.72-1.44.72Zm2.91-1.58c-.11.1-.16.09-.26.05-1.26-.58-1.73-2.96-1.86-4.57 1.13.58 2.33 1.37 2.55 1.96.3.82 0 2.16-.43 2.56"/>
</svg>
