<svg viewBox="0 0 32 32" xmlns="http://www.w3.org/2000/svg">
  <path d="M24.61 17.83c0-1.44-.83-2.71-2.12-3.3.43-.65.66-1.4.66-2.18 0-2.22-1.8-4.02-4.01-4.02-1.95 0-3.58 1.4-3.93 3.27-.48-.23-1.01-.34-1.54-.34-1.77 0-3.26 1.27-3.57 3-1.73.31-3 1.8-3 3.58a3.66 3.66 0 0 0 3.65 3.66h3.38v2.19h7.07v-2.22c1.9-.12 3.42-1.7 3.42-3.63Zm-5.76-.35H16.6v-.78c0-.62.5-1.12 1.12-1.12s1.12.5 1.12 1.12v.78Zm1.01 4.86h-4.41v-3.53h4.41zm1.33-2.21v-2.65h-1.01v-.78c0-1.36-1.1-2.46-2.46-2.46s-2.45 1.1-2.45 2.46v.78h-1.15v2.67h-3.38c-1.28 0-2.32-1.04-2.32-2.32 0-1.11.8-2.07 1.9-2.27l.91-.16.16-.91c.2-1.1 1.15-1.9 2.26-1.9.34 0 .67.07.98.22l1.56.73.32-1.69a2.676 2.676 0 0 1 2.62-2.18c1.48 0 2.68 1.21 2.68 2.69 0 .52-.15 1-.44 1.44l-.86 1.3 1.41.65c.83.38 1.34 1.18 1.34 2.09 0 1.2-.92 2.18-2.08 2.3Zm-4.21.49a.67.67 0 1 1 1.34 0 .67.67 0 0 1-1.34 0M15.52 6.95l-2.53-2.54V2.52l1.85 1.86V0h1.33v4.4l1.87-1.87v1.88L15.5 6.95Zm-9.92.62L1.96 3.93l.94-.94 3.65 3.65V4h.02l1.32 1.32v3.59H4.31L2.98 7.58H5.6Zm18.5 1.34V5.32L25.42 4h.01v2.64l3.65-3.65.94.94-3.63 3.64h2.62L27.68 8.9H24.1ZM7.88 24.98v3.59l-1.32 1.32h-.01v-2.64L2.9 30.9l-.94-.94 3.63-3.64H2.97l1.33-1.33h3.58Zm18.51 1.34 3.63 3.64-.94.94-3.65-3.65v2.64h-.02l-1.32-1.32v-3.59h3.58L29 26.31h-2.62Zm-10.83-1.23 2.53 2.54v1.89l-1.85-1.86V32h-1.33v-4.36l-1.86 1.87h-.01v-1.88l2.54-2.54ZM3.74 19.84H1.85l1.86-1.86H0v-1.34h3.73l-1.86-1.87h.01l1.86-.01 2.53 2.54-2.54 2.53ZM32 17.98h-3.72l1.86 1.85h-1.88l-2.54-2.53 2.53-2.54h1.87l-1.86 1.88H32z"/>
</svg>
