<svg viewBox="0 0 32 32" xmlns="http://www.w3.org/2000/svg">
  <path d="M27.79-.02H24.2v1.68h-6.74v9.42c.34-.44.79-.77 1.33-.96V3h5.41v20.05h-5.41v-8.83l-1.33 2.6v7.56h6.74V26h3.59L32 24.31V1.61zm-1.33 24.68h-.94V1.32h.94zm4.21-1.3-2.88 1.19V1.41l2.88 1.13zM28.25 12.2v-1.33h.85v1.33zm-9.3.24c.11-.22.3-.38.53-.45.23-.08.48-.06.69.06l.26.13-.49.95 1.18.61 1.09-2.14-1.44-.74c-.53-.27-1.14-.32-1.71-.14s-1.03.58-1.31 1.12l-1.92 3.76-1.77-3.44c.07-.41.15-1.4-.51-2.19-.57-.69-1.51-.98-2.74-.89-.32 0-1.8.13-4.43 3.01l-.11.12-1.33 4.72c-.31.87-.38 2.72 1.46 3.53l-.7 2.48L0 28.83l2.89 2.92 5-5c.48-.48 1.41-1.95 1.54-2.64l.48-1.71 1.63 2.9 1.42 6.67 3.81-1.06-1.49-7.09-2.95-5.13.36-1.36.12.2c.34.68.76 1.18 1.27 1.49l-.56 1.11 1.18.61.68-1.34h.04c.79 0 1.39-.35 1.48-.4l.53-.32-.84-1.64 2.35-4.61Zm-4.94 11.78 1.21 5.75-1.25.35-1.15-5.39-3.32-5.97-1.35 4.84c-.08.38-.82 1.64-1.19 2L2.9 29.86l-1.03-1.04 5.04-5.19 2.49-8.81 1.76-1.37-.81-1.05-2.1 1.64-1.45 5.12c-.94-.53-.65-1.57-.57-1.82l1.25-4.45c2.18-2.35 3.35-2.46 3.39-2.46.57-.04 1.32 0 1.68.41.38.44.21 1.18.21 1.18l-1.84 6.88 3.1 5.32Zm-.82-8.68.39-1.44 2.05 3.98c-.17.02-.36.02-.55-.04-.41-.12-.77-.49-1.09-1.12zm.93-6.45c1.47 0 2.66-1.2 2.66-2.67s-1.19-2.67-2.66-2.67-2.66 1.2-2.66 2.67 1.19 2.67 2.66 2.67m0-4.02c.73 0 1.33.6 1.33 1.34s-.6 1.34-1.33 1.34-1.33-.6-1.33-1.34.6-1.34 1.33-1.34"/>
</svg>
