<svg viewBox="0 0 32 32" xmlns="http://www.w3.org/2000/svg">
  <path d="M5.6 20.47v1.33H2.79v-1.33zm3.56 0H6.35v1.33h2.81zm.82 1.33h5.15v-1.33H9.98zm-7.19 2.62h5.62v-1.33H2.79zm6.72 0h5.62v-1.33H9.51zM2.79 27.1h4v-1.33h-4zm4.96 0h4v-1.33h-4zm4.96 0h2.41v-1.33h-2.41zM6.87 14.13l-2.74-.86 2.74-.86v-1.06l-4.13 1.38v1.13l4.13 1.38zm4.03-4.55H9.56l-2.27 5.75h1.38zm18.46 13.54-5.27-5.3c-1.01.57-2.16.92-3.39.92-.96 0-1.88-.2-2.71-.55v11.55H0V4.44h4.19V3.19h9.61v1.25h4.19v.94c.83-.35 1.75-.55 2.71-.55 3.84 0 6.96 3.11 6.96 6.95 0 1.24-.35 2.39-.92 3.4l5.27 5.29-2.64 2.64ZM5.52 5.93h6.94v-1.4H5.52zm11.13 11.49a7 7 0 0 1-2.43-3.15l-2.89.97v-1.09l2.61-.81-.03-.09-2.58-.81v-1.09l2.46.82c0-.13-.04-.25-.04-.38 0-2.33 1.15-4.37 2.91-5.64v-.37h-2.85v1.49H4.19V5.78H1.33v22.63h15.31V17.43Zm4.05-.02c3.1 0 5.62-2.52 5.62-5.62S23.8 6.16 20.7 6.16s-5.62 2.52-5.62 5.62 2.52 5.62 5.62 5.62m4.56-.29 4.1 4.12.75-.75-4.09-4.11c-.23.26-.49.51-.76.75Zm-4.57-3.78c.31 0 .57-.25.57-.57s-.25-.57-.57-.57-.57.25-.57.57.25.57.57.57m2.24-3.21h.74v5.2h-5.95v-5.2h.86v-.66c0-1.2.97-2.17 2.17-2.17s2.17.97 2.17 2.17v.66Zm-3.01 0h1.68v-.66c0-.46-.38-.84-.84-.84s-.84.38-.84.84zm2.42 1.34h-3.28V14h3.28z"/>
</svg>
