<svg viewBox="0 0 32 32" xmlns="http://www.w3.org/2000/svg">
  <path d="M29.14 21.67V6.06c0-1.22-1-2.22-2.21-2.22H20.7c-1.49-.73-3.12-1.11-4.74-1.11s-3.25.38-4.74 1.11H5.08c-1.22 0-2.21 1-2.21 2.22v15.61H0v3.01c0 1.22 1 2.22 2.21 2.22h11.06V32h1.33v-7.48c.52.08 1 .12 1.48.12.42 0 .82-.03 1.24-.09V32h1.33v-5.1h11.14c1.22 0 2.21-1 2.21-2.22v-3.01zM26.93 5.18c.48 0 .88.41.88.89v15.59H23.2c.14-.12.28-.24.41-.37 4.23-4.24 4.23-11.12 0-15.36-.26-.26-.54-.51-.82-.74h4.13Zm-4.26 1.68c3.7 3.71 3.7 9.76 0 13.47-1.79 1.8-4.18 2.79-6.72 2.79s-4.92-.99-6.72-2.79c-3.7-3.71-3.7-9.76 0-13.47 1.79-1.8 4.18-2.79 6.72-2.79s4.92.99 6.72 2.79m-18.48-.8c0-.48.41-.89.89-.89h4.05c-.28.23-.56.48-.82.74-4.23 4.24-4.23 11.12 0 15.36.13.13.28.25.41.37H4.19zM2.21 25.57c-.48 0-.89-.41-.89-.89V23h9.23c.86.5 1.77.86 2.71 1.1v1.46H2.21Zm28.46-.89c0 .48-.41.89-.88.89H18.65v-1.46c.94-.24 1.84-.61 2.7-1.1h9.32v1.68Zm-14.71-8.6c1.47 0 2.66-1.2 2.66-2.67s-1.19-2.67-2.66-2.67-2.66 1.2-2.66 2.67 1.19 2.67 2.66 2.67m0-4c.73 0 1.33.6 1.33 1.33s-.6 1.33-1.33 1.33-1.33-.6-1.33-1.33.6-1.33 1.33-1.33m-4.73-.64a.6.6 0 0 1-.17.22H8.98v3.5h2.08c.08.06.14.14.17.21.03.08.04.17.03.28l-1.47 1.47 2.46 2.48 1.47-1.47h.08c.07 0 .13.01.19.04.08.03.15.09.22.17v2.09h3.49v-2.08c.06-.08.14-.14.21-.17.06-.02.13-.04.2-.04h.07l1.47 1.48 2.47-2.47-1.47-1.48q-.015-.15.03-.27a.6.6 0 0 1 .17-.22h2.08v-3.5h-2.08a.6.6 0 0 1-.17-.22.5.5 0 0 1-.03-.27l1.47-1.47-2.46-2.47-1.47 1.47h-.07c-.08 0-.14-.01-.2-.04a.5.5 0 0 1-.21-.17V6.42h-3.49V8.5c-.06.08-.14.14-.21.17-.06.02-.13.04-.2.04h-.08l-1.47-1.47-2.47 2.48 1.47 1.47q.015.15-.03.27Zm1.3-.88-.33-.33-.53-.53.59-.59.53.53.33.33.47.05c.08 0 .15.01.22.01.24 0 .48-.05.71-.14.28-.12.53-.31.73-.56l.29-.37V7.74h.83v1.22l.29.37q.315.39.75.57c.22.09.45.13.7.13h.19l.48-.04.34-.34.53-.53.59.59-.53.53-.33.33-.05.47a1.85 1.85 0 0 0 .69 1.67l.36.3h1.22v.83h-1.23l-.37.3c-.25.21-.44.46-.55.74-.12.29-.16.6-.13.93l.05.46.33.33.53.54-.59.59-.53-.53-.33-.33-.47-.05c-.08 0-.15-.01-.22-.01-.25 0-.48.05-.72.14-.28.12-.53.31-.74.57l-.29.36v1.22h-.83v-1.22l-.29-.37q-.3-.375-.75-.57a1.8 1.8 0 0 0-.69-.13c-.08 0-.16 0-.24.02l-.45.06-.32.32-.53.53-.59-.59.53-.53.33-.33.05-.47a1.84 1.84 0 0 0-.69-1.68l-.36-.29H10.3v-.83h1.22l.36-.29c.25-.2.44-.45.57-.76a2 2 0 0 0 .12-.92l-.05-.46Z"/>
</svg>
