<svg viewBox="0 0 32 32" xmlns="http://www.w3.org/2000/svg">
  <path d="M2.4 13.11h1.33v2.78H2.4zm.82-6.93c0-1.4 1.14-2.53 2.56-2.53s2.56 1.13 2.56 2.53S7.2 8.71 5.78 8.71 3.22 7.58 3.22 6.18m1.33 0c0 .67.55 1.21 1.22 1.21s1.22-.54 1.22-1.21-.55-1.21-1.22-1.21-1.22.54-1.22 1.21m8.89-3.55C13.44 1.23 14.59.1 16 .1s2.56 1.13 2.56 2.53S17.42 5.16 16 5.16s-2.56-1.13-2.56-2.53m1.34 0c0 .67.55 1.21 1.22 1.21s1.22-.54 1.22-1.21-.55-1.21-1.22-1.21-1.22.54-1.22 1.21M28.26 15.9h1.33v-2.78h-1.33zm-4.59-9.72c0-1.4 1.14-2.53 2.56-2.53s2.56 1.13 2.56 2.53-1.14 2.53-2.56 2.53-2.56-1.13-2.56-2.53m1.33 0c0 .67.55 1.21 1.22 1.21s1.22-.54 1.22-1.21-.55-1.21-1.22-1.21S25 5.51 25 6.18m7 6.6v3.11h-1.33v-3.11c0-1.18-.79-2.14-1.75-2.14h-5.38c-.66 0-1.23.45-1.53 1.12.12.04.23.09.35.13.14.05.26.26.33.43.11.26.18.53.27.8h1.23v1.46c.32.11.72.18 1.29.25.02 1.03.09 2.08.03 3.13-.12 2.05-.5 4.05-1.23 5.97-1.47 3.85-4.06 6.55-7.82 8.07-.06.02-.11.07-.17.1h-.69c-.15-.09-.3-.19-.46-.26-4.52-1.98-7.08-5.57-8.19-10.37-.44-1.89-.56-3.81-.49-5.74.01-.3.06-.59.1-.91.11-.02.19-.04.26-.05.39-.03.71-.11 1-.23V13.1h1.23c.05-.16.12-.3.15-.48.09-.5.3-.72.75-.88.01 0 .03-.01.04-.02-.3-.65-.86-1.09-1.51-1.09H3.09c-.97 0-1.75.96-1.75 2.14v3.11H0v-3.11c0-1.9 1.38-3.45 3.09-3.45h5.38c.65 0 1.26.24 1.75.63v-.72c0-1.91 1.39-3.46 3.09-3.46h5.38c1.7 0 3.09 1.55 3.09 3.46v.72c.5-.39 1.1-.63 1.75-.63h5.38c1.7 0 3.09 1.55 3.09 3.46M11.55 9.24v1.9c.36-.13.72-.27 1.07-.4V9.57h1.33v.67c.53-.2 1.07-.4 1.6-.6.12-.04.26-.07.39-.07.11 0 .22.02.31.05l1.77.66v-.71h1.33v1.21c.36.13.72.27 1.07.4V9.24c0-1.18-.79-2.14-1.75-2.14h-5.38c-.97 0-1.76.96-1.76 2.14Zm10.6 5.33c-.27-.43-.41-.88-.54-1.27-.03-.11-.07-.21-.1-.32-1.92-.73-3.79-1.43-5.57-2.08-.83.31-1.66.62-2.5.94-.98.37-1.97.75-2.95 1.11-.32 1.63-1.25 2.64-2.71 3.01-.06 1.91.09 3.62.46 5.22 1.08 4.65 3.51 7.74 7.43 9.45.1.04.19.09.28.14 3.4-1.37 5.72-3.77 7.08-7.32.66-1.71 1.03-3.54 1.15-5.58.04-.62.02-1.25 0-1.92-.82-.19-1.51-.55-2.03-1.39Zm-1.83 7.19h1.31v3.36H10.91v-3.36h1.3l.96-5.1h6.18zm-6.75 0h5.39l-.72-3.78h-3.96zm6.72 2.04v-.71h-8.05v.71zm-3.36-10.32H15.6v1.78h1.33zm-3.62 2.34-1.27-1.26-.94.94 1.27 1.26zm8.12-.32-.94-.94-1.27 1.26.94.94zm-7.02 5.07 1.31.24.21-1.1h1.02v-1.32h-2.12l-.41 2.18Z"/>
</svg>
