<svg viewBox="0 0 32 32" xmlns="http://www.w3.org/2000/svg">
  <path d="M6.4 4a.66.66 0 0 1 .15-.93C9.29 1.06 12.54 0 15.95 0s6.72 1.08 9.49 3.12c.3.22.36.64.14.93-.13.18-.33.27-.54.27a.66.66 0 0 1-.4-.13c-2.53-1.87-5.54-2.86-8.69-2.86s-6.1.97-8.62 2.8a.66.66 0 0 1-.93-.15Zm3.51 2.77c3.61-2.37 8.55-2.35 12.15.05.11.08.24.11.37.11.21 0 .43-.1.55-.3.2-.31.12-.72-.18-.92-4.03-2.69-9.57-2.72-13.62-.06-.31.2-.39.61-.19.92s.62.39.92.19Zm14.73 21.09c-2.52 1.83-5.5 2.8-8.62 2.8s-6.16-.99-8.69-2.86a.66.66 0 0 0-.93.14c-.22.3-.16.71.14.93 2.76 2.04 6.04 3.12 9.48 3.12s6.66-1.06 9.41-3.06c.3-.22.36-.63.15-.93a.67.67 0 0 0-.93-.15Zm-2.58-2.63c-3.61 2.37-8.56 2.35-12.15-.05a.67.67 0 0 0-.92.18.66.66 0 0 0 .18.92c2.03 1.36 4.4 2.07 6.85 2.07s4.76-.7 6.77-2.02a.663.663 0 1 0-.73-1.11Zm-18.47.48c.14 0 .27-.04.39-.13.3-.22.36-.63.15-.93-1.83-2.51-2.8-5.49-2.8-8.62s.99-6.16 2.86-8.69c.22-.3.16-.71-.14-.93a.66.66 0 0 0-.93.14C1.06 9.32-.01 12.6-.01 16.04s1.06 6.66 3.06 9.4c.13.18.33.27.54.27m3.16-3.63c-1.18-1.79-1.8-3.88-1.8-6.04s.64-4.3 1.85-6.11a.66.66 0 0 0-.18-.92.66.66 0 0 0-.92.18c-1.36 2.03-2.07 4.4-2.07 6.85s.7 4.76 2.02 6.77c.13.2.34.3.56.3.13 0 .25-.04.37-.11.31-.2.39-.62.19-.92ZM27.99 6.41a.67.67 0 0 0-.15.93c1.83 2.51 2.8 5.49 2.8 8.62s-.99 6.16-2.86 8.69c-.22.3-.16.71.14.93a.68.68 0 0 0 .94-.14c2.04-2.76 3.12-6.04 3.12-9.48s-1.06-6.66-3.06-9.4a.67.67 0 0 0-.93-.15m.36 9.55c0-2.42-.7-4.76-2.02-6.77a.663.663 0 1 0-1.11.73c1.18 1.79 1.8 3.88 1.8 6.04s-.64 4.3-1.85 6.11c-.2.31-.12.72.18.92.11.08.24.11.37.11.21 0 .43-.1.55-.3a12.26 12.26 0 0 0 2.07-6.85Zm2.3 11.14v2.64L27 26.09l-.94.94 3.64 3.63h-2.62l1.33 1.33h3.58v-3.58l-1.32-1.32h-.02ZM27 5.94l3.65-3.65v2.64h.02l1.32-1.32V.03h-3.58l-1.33 1.33h2.62l-3.64 3.63.94.94ZM4.98 26.09l-3.65 3.65V27.1h-.02L0 28.42v3.59h3.58l1.33-1.33H2.29l3.64-3.63-.94-.94ZM1.33 4.93V2.29l3.65 3.65.94-.94-3.63-3.64h2.62L3.58.03H0v3.58l1.32 1.32zm21.78 14.22c-1.26 3.15-3.48 5.36-6.71 6.61-.05.02-.1.05-.14.08h-.59c-.13-.07-.26-.15-.4-.21-3.88-1.62-6.07-4.56-7.03-8.48-.38-1.55-.48-3.12-.42-4.7 0-.24.05-.49.08-.74.09-.02.16-.03.23-.04 1.19-.09 1.83-.61 2.04-1.76.07-.41.26-.59.64-.72 1.61-.56 3.21-1.16 4.82-1.73.1-.04.22-.05.34-.05.09 0 .19.01.27.04q2.61.915 5.22 1.86c.12.04.22.21.28.35.18.42.27.9.52 1.28.34.52.77.65 1.88.77.01.84.08 1.71.03 2.56-.1 1.68-.43 3.31-1.06 4.89Zm-.27-6.31c-.68-.17-1.25-.49-1.7-1.19-.25-.38-.38-.78-.49-1.1-.02-.05-.03-.1-.05-.14-1.6-.58-3.15-1.14-4.64-1.66-.7.25-1.4.5-2.09.75-.81.29-1.62.59-2.43.87-.23.98-.83 2.06-2.29 2.47-.03 1.46.1 2.76.39 3.99.91 3.72 2.95 6.19 6.24 7.57.07.03.13.06.2.09 2.83-1.11 4.76-3.02 5.89-5.84.55-1.37.87-2.83.96-4.47.03-.43.02-.88 0-1.34Zm-7.52 4.45v.48a.67.67 0 0 0 1.34 0v-.48c0-.06-.02-.11-.03-.16.05-.1.08-.2.08-.32 0-.4-.32-.72-.72-.72s-.72.32-.72.72c0 .12.03.22.08.32-.01.05-.03.1-.03.16m3.55-3.11h.95v6.2h-7.67v-6.2h.95v-.76c0-1.63 1.3-2.95 2.89-2.95s2.89 1.33 2.89 2.95v.76Zm-4.44 0h3.11v-.76c0-.89-.7-1.62-1.56-1.62s-1.56.73-1.56 1.62v.76Zm4.06 1.33h-5.01v3.53h5.01z"/>
</svg>
