<svg viewBox="0 0 32 32" xmlns="http://www.w3.org/2000/svg">
  <path d="M15.99 10.49c2.89 0 5.25-2.36 5.25-5.25S18.89 0 15.99 0s-5.25 2.36-5.25 5.25 2.35 5.25 5.25 5.25Zm0-9.17c2.16 0 3.91 1.76 3.91 3.92s-1.76 3.92-3.91 3.92-3.91-1.76-3.91-3.92 1.76-3.92 3.91-3.92m4.04 14.42c-1.95 0-3.54 1.59-3.54 3.54s1.59 3.54 3.54 3.54 3.54-1.59 3.54-3.54-1.59-3.54-3.54-3.54m0 5.74a2.21 2.21 0 0 1 0-4.42c1.22 0 2.2.99 2.2 2.21s-.99 2.21-2.2 2.21m7.87-2.69-2.32-4.33c-1.4-3.48-5.23-3.42-5.4-3.42h-8.31c-2.95.26-4.52 3-4.6 3.15l-2.26 4.58c-1.83 3.58-1.47 6.4-1.43 6.62 1.24 4.2 5.64 5.79 5.76 5.83 1.26.6 2.63.77 3.78.77 1.45 0 2.55-.27 2.64-.29 2.77-.78 3.06-2.83 2.82-3.81-.46-1.83-2.13-2.14-3-2.07-1.67.29-3.71-.22-4.93-.6.72-.18 1.44-.44 1.81-.58.29-.05.53-.21.68-.45.26-.42.13-.92.06-1.12l-.7-1.67c-.1-.21-.33-.92-.15-1.32.04-.1.12-.22.37-.3.93-.3 1.53 1.09 1.55 1.13 1.21 3.1 3.33 3.99 4.7 4.22-.54 1.07-.61 2.23-.13 3.09.47.85 1.37 1.24 2.46 1.06 4.22-.52 6.51-4.79 6.62-5.01 1.23-2.74.05-5.35-.02-5.49Zm-15.81 4.58h.02zm14.64.32s-2.07 3.84-5.61 4.28c-.55.08-.92-.04-1.1-.39-.3-.55-.17-1.66.67-2.61l1.19-1.35-1.79.24c-.13.02-3.09.38-4.58-3.45-.37-.9-1.51-2.46-3.2-1.91-.56.18-.96.54-1.18 1.03-.45 1.02.1 2.27.15 2.39l.61 1.5c-1.11.4-2.25.69-2.53.64l-.12-.03h-.12c-.39.05-.84.26-.95.72-.1.42.11.82.76 1.24.16.07 3.89 1.64 6.84 1.14.21-.02 1.25-.05 1.53 1.06.04.16.28 1.61-1.87 2.21-.03.01-3.11.76-5.57-.42-.04-.01-3.95-1.44-4.97-4.88 0-.02-.31-2.55 1.32-5.74l2.25-4.56s1.3-2.24 3.49-2.44h8.3c.34 0 3.1.08 4.15 2.65l2.34 4.36s.97 2.18.02 4.31Z"/>
</svg>
