<svg viewBox="0 0 32 32" xmlns="http://www.w3.org/2000/svg">
  <path d="M31.21 14.94c-.27-1.36-.76-2.24-1.36-2.67-.03-.02-.05-.04-.08-.06-.08-.05-.16-.09-.25-.13l-.15-.06c-.13-.04-.27-.06-.41-.06h-5.91V3.9H0v16.19h2.67v3.82H1.24v1.33h4.29v-1.33H4v-3.82h2.05v3.22h2.98c.37 1.11 1.42 1.92 2.66 1.92s2.29-.81 2.66-1.92h8.68l.74-.02c.37 1.12 1.42 1.95 2.67 1.95s2.34-.85 2.69-2l1.69-.02c.64 0 1.16-.17 1.16-1.42v-3.7l-.79-3.15Zm-2.25-1.65s.03 0 .05.01c.12.05.46.35.89 2.04l.15.97h-2.26v-3.02zM1.33 5.22h20.38v13.54H1.33zm6.06 14.87h2.74a2.8 2.8 0 0 0-1.21 1.88H7.39zm4.31 3.81c-.82 0-1.49-.66-1.49-1.48s.67-1.48 1.49-1.48 1.49.66 1.49 1.48-.67 1.48-1.49 1.48m2.77-1.92c-.13-.78-.57-1.46-1.21-1.88h8.44v1.88zm11.99 1.92c-.82 0-1.49-.66-1.49-1.48s.67-1.48 1.49-1.48 1.49.66 1.49 1.48-.67 1.48-1.49 1.48m4.21-2.11v.09h-1.44c-.25-1.28-1.39-2.27-2.77-2.27s-2.55 1.02-2.77 2.34h-.64v-8.67h3.41v4.35h4.05l.16.62z"/>
</svg>
