<svg viewBox="0 0 32 32" xmlns="http://www.w3.org/2000/svg">
  <path d="M26.7 6.83c-.31-.11-.62-.17-.93-.17a2.682 2.682 0 0 0-.93 5.2c.31.11.62.17.93.17a2.682 2.682 0 0 0 .93-5.2m.33 2.98c-.2.53-.7.88-1.27.88-.16 0-.32-.03-.47-.08-.34-.13-.61-.38-.76-.7-.15-.33-.16-.7-.04-1.03a1.36 1.36 0 0 1 1.74-.8c.34.13.61.38.76.7.15.33.16.7.04 1.03m-3.11 2.42c-.45-.71-1.21-1.16-2.27-1.36l-.22-.04-7.94 3.9-3.44 1-5.97-2.28-1.4 3.77 7.36 2.53-.92 1.39-5.86 2.62 1.68 3.66 7.41-3.62 2.15-2.38 2.99-2.86 1.25-.59.18 2c0 .11.08 1.05.87 1.69.44.36 1 .54 1.67.54.2 0 .4-.02.62-.05l.64-.1-.3-2.76.26.58c.05.11.48 1.13 1.6 1.54.3.11.61.17.94.17.57 0 1.17-.16 1.81-.49l.57-.29-3.27-7a2.7 2.7 0 0 0-.41-1.6Zm-13.24 6.34-6.26-2.15.46-1.23 5.13 1.96 2.19-.64-1.3 1.98-.21.09Zm9.97 2.09c-.35-.28-.39-.74-.39-.76l-.22-2.51.8-.37.42 3.86c-.25-.03-.45-.1-.6-.23Zm4.11-.46c-.58-.21-.84-.8-.85-.82l-2.23-5-1.22.55.29.65-3.92 1.84-3.29 3.1-1.89 2.16-6.06 2.96-.55-1.19 4.98-2.23 4.17-6.34 7.43-3.64c.56.13.95.37 1.17.71.33.5.18 1.11.18 1.12l.07.02-.05.02 2.84 6.09c-.41.12-.76.13-1.07.02ZM9.31 12.03H7.98V6.31h1.33zm9.22-3.29H17.2V4.69h1.33zm-4.61 1.73h-1.33V2.96h1.33z"/>
</svg>
