<svg viewBox="0 0 32 32" xmlns="http://www.w3.org/2000/svg">
  <path d="m22.55 19.37-3.4-2.89c-.39-.33-.93-.52-1.49-.52h-.42l-.82-2.13h-5.38l-.82 2.13H5.45c-.56 0-1.1.19-1.49.52L.61 19.33c-.38.33-.6.76-.6 1.22v6.39c0 .87 1.7 2.13 4.02 2.36.29 1.54 1.64 2.71 3.27 2.71s2.95-1.14 3.26-2.66h10.76c.31 1.52 1.65 2.66 3.26 2.66s2.95-1.14 3.26-2.66h2.01c1.15 0 2.15-.78 2.15-1.74v-4.06c0-3.14-5.84-3.39-9.46-4.17Zm-10.6-4.21h3.55l.3.79h-4.15zM21 19.8l-1.47 1.47h-8.89v-3.98h7.03c.24 0 .48.08.63.2l2.71 2.31ZM4.82 17.49c.15-.13.39-.2.63-.2H9.3v3.98H4.24l-2.42-1.22 3.01-2.56Zm2.47 13.17c-1.1 0-2-.9-2-2s.9-2 2-2 2 .9 2 2-.9 2-2 2m17.29 0c-1.1 0-2-.9-2-2s.9-2 2-2 2 .9 2 2-.9 2-2 2M29.86 28h-2.01c-.31-1.52-1.65-2.67-3.26-2.67s-2.96 1.15-3.26 2.67H10.57c-.31-1.52-1.65-2.67-3.26-2.67s-2.93 1.13-3.25 2.63c-1.47-.17-2.46-.84-2.7-1.16v-5.48l2.57 1.29h16.16l1.98-1.98.22.05c.71.15 1.47.28 2.28.41 2.06.34 4.71.79 5.72 1.68h-2.92v1.34h3.33v3.5c0 .1-.3.4-.82.4Zm-9.21-16.35c.15.31.26.62.36.93l-1.23.59c-.1-.32-.19-.64-.34-.94a6.47 6.47 0 0 0-3.7-3.34 6.4 6.4 0 0 0-4.88.22c-.18-.38-.38-.79-.57-1.21 1.87-.86 3.96-.96 5.9-.27a7.8 7.8 0 0 1 4.46 4.02M7.79 2.62c-.21-.44-.4-.84-.57-1.21 7.46-3.49 16.38-.3 19.92 7.15.14.3.26.61.38.92l-1.2.57c-.12-.31-.24-.62-.38-.92-2.34-4.92-7.26-7.81-12.38-7.81-1.94 0-3.9.42-5.77 1.29Zm5.77 2.3c-1.42 0-2.86.31-4.23.94-.19-.41-.38-.81-.57-1.21 5.67-2.64 12.44-.21 15.14 5.45.14.3.27.61.38.92l-1.2.57c-.11-.31-.24-.62-.38-.92-1.73-3.63-5.36-5.76-9.13-5.76Z"/>
</svg>
