<svg viewBox="0 0 32 32" xmlns="http://www.w3.org/2000/svg">
  <path d="m13.78 1.35.8.02.37.36.32.31.44.06.89.12.06.16.24.62-1.95 1.52-.64.5.14.8.13.74-.07.14-.21.44.12.47.31 1.26.11.46.38.28 2.83 2.12 1.37 1.95.13.19.19.13 2.46 1.74.41.29.49-.05 1.26-.12.13.5.19.72.71.22 3.87 1.18.26.29h-.05l-.4.02-1.06-.29-1.2-.33-.41 1.18-.63 1.8-.26.73.51.58.96 1.1-.07.07-.82.73-.57.5.14.75.04.18-.37.44-.94-.69.79-.94.44-.52-.16-.66-.03-.13v-.05l-.03-.05-.38-1.14.04-.39.09-.83-.71-.44-.18-.11.06-.18-.45-.58-.65-.84-.57-.73-.88.28-.48-.38-.58-.78-.44-.58-.72.05-1.11.08-5.09-4.43-.75-1.77-.06-.56-.07-.59-.49-.35-2.37-1.68-.31-.22-.38-.03-1.36-.09-.68-.05-.44.53-.47.56-.23-.08-.56-.19.51-.58L5 6.38l.09-.1.5-.58-.26-.73-.16-.44.29.07.6.14.49-.38.24-.18.25.31 1.44 1.83.85-2.16.16-.41 1.31-.59.3-.14.2-.26 1.51.64-.02-1.35.51.12.43-.78M8.74 20.11l-.2.96-.1.5.26.44.03.06-.13 1.13-.35-.07-.06-2.42v-.32l.18-.08.26-.1.11-.11m12.24 7.8.07.1-.25 1.72-.03.2-.76-.31-.35-.15-.3.05-1.99-1.05.16-.26.51.2.34.13.36-.06 1.18-.21.11-.02.1-.04.85-.29M13 0l-.33.6-1.18-.28v1.01l-.56-.24-.63.81-1.81.81-.36.92-1.06-1.34-1.28.98-.68-.15-1.65.46.64 1.81-.88 1.03.68.7-.45.51.4.98 1.48.51v.95l1.01-.46 1.15-1.39 1.36.09 2.37 1.68.08.75.94 2.23 5.74 5 1.67-.12.69.92 1.17.92.66-.21.65.84-.18.51 1.1.68-.07.68.47 1.41.03.13-1.71 2.04 2.41 1.75.38.5.82-.14.15-.63.93-1.11-.16-.81.82-.73.53.05v-1.62l-1.3-1.47.63-1.8 1.26.35.61-.03.87 1.13.76.29.26-2.65-1.41-1.57L25.79 16l-.29-1.11-.44-.45-2.08.2-2.46-1.74-1.5-2.12-3-2.24-.31-1.26.26-.53-.21-1.17 2.71-2.11v-.06l-.57-1.5.63-.76-2.65-.36-.75-.74-2.14-.04ZM8.88 18.07l-1 1.02-1.63.66.61 1.01.1 4.09.41.52.6.25.56-1.06 1.18.23.21-1.3.2-1.69-.26-.44.28-1.38-.51-1.36-.74-.54Zm12.6 8.25-1.79.62-1.18.21-1.54-.59-.29.48-.64-.23-.71 2.03.61.75.59-.05 2.59 1.37.36-.06.77.32.43.63 1.32.21.78-1.03-.68-1.06.33-2.25-.96-1.35Z"/>
</svg>
