<svg viewBox="0 0 32 32" xmlns="http://www.w3.org/2000/svg">
  <path d="M14.38 8.04H9.1c-1.57 0-2.96 1.11-3.29 2.61l-1.55 5.66q-.045.225-.06.45c-.08.01-.15.03-.23.07a.67.67 0 0 0-.25.91l.75 1.32L1.53 29.7.22 30.82a.666.666 0 0 0 .44 1.17c.15 0 .31-.05.43-.16l1.62-1.38.12-.43c.16.1.32.2.5.25q.24.06.48.06c.31 0 .61-.08.88-.23.42-.24.72-.62.84-1.08.26-.95-.3-1.94-1.26-2.2-.19-.05-.37-.06-.55-.05l1.03-3.73c.16.1.32.2.5.25q.24.06.48.06c.31 0 .61-.08.88-.23.42-.24.72-.62.84-1.08.19-.68-.05-1.38-.55-1.82a.64.64 0 0 0 .37-.4l1.09-3.32.02 14.78c0 .37.3.66.67.66h5.33c.18 0 .35-.07.47-.19.13-.12.19-.29.19-.47V21.22a3.38 3.38 0 0 0 2.69-3.3v-6.51a3.38 3.38 0 0 0-3.38-3.37ZM3.94 28.1c.25.07.39.32.32.57-.03.12-.11.22-.22.28a.43.43 0 0 1-.35.04.44.44 0 0 1-.28-.22.43.43 0 0 1-.04-.35.46.46 0 0 1 .57-.32m2.25-6.42c-.03.12-.11.22-.22.28a.43.43 0 0 1-.35.04.44.44 0 0 1-.28-.22.43.43 0 0 1-.04-.35c.03-.12.11-.22.22-.28.07-.04.15-.06.23-.06.04 0 .08 0 .12.02.25.07.39.32.32.57m10.24-3.76c0 .89-.57 1.65-1.37 1.93v-7.84h-1.34l.02 18.61h-1.36V19.98h-1.33v10.64H9.74l-.02-18.28c0-.33-.24-.6-.56-.66a.67.67 0 0 0-.74.45l-2.17 6.61c-.22-.14-.4-.34-.53-.58-.22-.43-.27-.98-.15-1.53l1.55-5.66c.2-.93 1.04-1.6 1.99-1.6h5.28c1.13 0 2.05.92 2.05 2.04v6.51ZM11.69 6.69c1.64 0 3-1.19 3.29-2.74h1.7c.37 0 .67-.3.67-.66s-.3-.66-.67-.66h-1.73A3.346 3.346 0 0 0 11.69.02c-1.84 0-3.35 1.5-3.35 3.34S9.85 6.7 11.69 6.7Zm0-1.32c-.9 0-1.66-.6-1.91-1.41h3.83c-.26.81-1.01 1.41-1.91 1.41Zm0-4.02c.85 0 1.58.53 1.87 1.28H9.81c.29-.75 1.02-1.28 1.87-1.28Zm8.89 2.6h2.05a3.346 3.346 0 0 0 6.65-.53c0-1.84-1.51-3.33-3.35-3.33-1.56 0-2.87 1.09-3.24 2.53h-2.11c-.37 0-.67.3-.67.66s.3.66.67.66Zm5.35 1.49c-.93 0-1.7-.63-1.94-1.48h3.88a2.01 2.01 0 0 1-1.94 1.48m0-4.02c.82 0 1.53.5 1.85 1.21h-3.69c.31-.71 1.02-1.21 1.85-1.21Zm2.68 6.69h-5.33c-1.87 0-3.38 1.51-3.38 3.37v6.51c0 1.64 1.17 3 2.73 3.31v10.72h6.68V21.3A3.38 3.38 0 0 0 32 18v-6.51a3.38 3.38 0 0 0-3.38-3.37Zm2.05 9.88c0 .89-.58 1.64-1.37 1.92v-7.83h-1.34l.02 18.61h-1.36V20.05h-1.33v10.64h-1.31l-.02-18.61h-1.33l.01 7.84A2.03 2.03 0 0 1 21.24 18v-6.51c0-1.13.92-2.04 2.05-2.04h5.33c1.13 0 2.05.92 2.05 2.04V18Z"/>
</svg>
