<svg xml:space="preserve" viewBox="0 0 32 32" xmlns="http://www.w3.org/2000/svg"><g id="icon">
  <path d="M0 0"/>
  <path d="M17.3 15.7c1.1-.5 1.9-1 2.5-1.7.6-.6.9-1.4.9-2.3C20.7 8 16.6 8 15.9 8c-.7 0-5 0-5 3.9 0 .9.3 1.7.8 2.3.6.6 1.4 1.1 2.5 1.5-1.2.4-2.1 1-2.8 1.6-.7.7-1 1.5-1 2.5 0 .7.1 1.3.4 1.8.2.5.6 1 1.1 1.4s1 .7 1.7.9c.6.2 1.4.3 2.2.3.8 0 1.5-.1 2.2-.3.7-.2 1.2-.5 1.7-.9s.8-.8 1.1-1.4.4-1.1.4-1.8c0-2.3-3.3-4-3.9-4.1m-4.7-3.8c0-2.4 2.3-2.7 3.2-2.7.9 0 3.2.2 3.2 2.7 0 .4-.3 2.4-3 3.3-.4-.1-3.4-.5-3.4-3.3M15.7 23c-3.5 0-3.7-2.1-3.7-3.1 0-2.5 2.2-3.1 3.4-3.5 1.4.4 3.9.8 3.9 3.6 0 1.3-.4 3-3.6 3"/>
</g></svg>
