<svg xml:space="preserve" viewBox="0 0 32 32" xmlns="http://www.w3.org/2000/svg"><g id="icon">
  <rect/>
  <path fill="currentColor" d="M19.6 9.5c-.9-1.2-2.2-1.8-3.9-1.8-.8 0-1.4.1-2.1.4-.6.3-1.1.6-1.6 1.1-.4.5-.8 1-1 1.7-.2.6-.4 1.3-.4 2.1 0 .7.1 1.4.3 1.9.2.6.5 1.1.9 1.5.4.4.9.8 1.5 1 .6.2 1.2.4 1.9.4.8 0 1.6-.2 2.4-.6.7-.4 1.3-.9 1.6-1.7h.1c0 1.1-.1 2-.4 2.9s-.6 1.6-1 2.3c-.4.6-1 1.1-1.6 1.5-.7.4-1.4.5-2.2.5-.5 0-.9 0-1.3-.1s-.9-.2-1.3-.5l-.1 1.4c.5.2 1 .3 1.4.4.5.1.9.1 1.4.1 1.1 0 2.1-.2 2.9-.7.8-.4 1.5-1.1 2.1-1.8.6-.8 1-1.7 1.3-2.8.3-1.1.4-2.3.4-3.6 0-2.5-.4-4.3-1.3-5.6zm-.7 4.9c-.2.4-.4.8-.7 1.1-.3.3-.7.6-1.1.7-.4.2-.9.3-1.4.3-1.1 0-2-.3-2.5-1-.6-.7-.8-1.6-.8-2.8 0-.5.1-1.1.2-1.5.2-.5.4-.9.7-1.2.3-.3.7-.6 1.1-.8.3-.1.8-.2 1.3-.2s1 .1 1.4.3c.4.2.8.5 1.1.9.3.4.5.8.7 1.3.2.5.2 1 .2 1.6 0 .5-.1.9-.2 1.3z"/>
</g></svg>
