<svg viewBox="0 0 32 32" xmlns="http://www.w3.org/2000/svg">
  <rect/>
  <path d="M15.3 6.7C16.8 6.7 18 5.5 18 4s-1.2-2.7-2.7-2.7-2.6 1.2-2.6 2.7 1.2 2.7 2.6 2.7m0-4c.7 0 1.3.6 1.3 1.3s-.6 1.3-1.3 1.3S14 4.8 14 4s.6-1.3 1.3-1.3M32 13.6v-1.4l-11 3c-.2-.7-.5-1.1-.8-1.3-.5-.4-1.1-.6-1.6-.6l.1-1.9c0-1.8-1.5-3.3-3.4-3.3C13.4 8 12 9.5 12 11.3v6.4l-7.5 2c-1.6.4-2.9 1.4-3.7 2.8s-1 3-.6 4.6l.1.5c.8 2.7 3.2 4.4 5.9 4.4.5 0 1.1-.1 1.6-.2L32 25.3v-1.4L16.8 28l1.5-10.7zm-13.4 1c.3 0 .5.1.8.3.2.1.3.4.3.6l-1.2.3zM12 29.3l-4.5 1.2c-1.2.3-2.5.2-3.6-.5-1.1-.6-1.9-1.6-2.2-2.8l-.1-.5c-.3-1.2-.2-2.5.5-3.6s1.6-1.9 2.9-2.2l7-1.9zm3.4-.9-2.1.6V18.6l3.7-1zm1.9-15-1.3.4V12h-1.3v3.5l2.6-.7-.1 1.4-3.9 1v-6c0-1.1.9-1.9 2-1.9s2 .9 2 2z"/>
</svg>
