<svg viewBox="0 0 32 32" xmlns="http://www.w3.org/2000/svg">
  <rect/>
  <path d="M18 5.3c1.5 0 2.7-1.2 2.7-2.7C20.7 1.2 19.5 0 18 0s-2.7 1.2-2.7 2.7c0 1.4 1.2 2.6 2.7 2.6m0-4c.7 0 1.3.6 1.3 1.3S18.7 4 18 4s-1.3-.6-1.3-1.3.6-1.4 1.3-1.4M32 20v-1.4l-8.8-2.3c.3-.8.1-1.4 0-1.8-.4-1-1.4-1.4-1.8-1.6V10c0-1.8-1.5-3.3-3.4-3.3-1.8 0-3.3 1.5-3.3 3.3v4l-6.9-1.8c-3.2-.9-6.5 1.1-7.4 4.3l-.2.5c-.9 3.2 1.1 6.5 4.3 7.4L32 31.8v-1.4L19.5 27l1.5-9.9zm-10.6-5.1v-.5c.2.2.4.4.5.6q.15.45 0 .9l-.6-.2zm-6.8 10.8-9.8-2.6c-2.5-.7-4-3.2-3.4-5.8l.1-.5c.7-2.5 3.3-4 5.8-3.4l7.3 1.9zm3.6 1-2.2-.6V15.8l3.8 1zm1.7-11.3-4-1V9.9C16 8.8 16.9 8 18 8s2 .9 2 2v2.5l-1.4-.4v-1.5h-1.3v2.5l2.8.7v.9z"/>
</svg>
