<svg viewBox="0 0 32 32" xmlns="http://www.w3.org/2000/svg">
  <rect/>
  <path d="M22 6.7c1.8 0 3.3-1.5 3.3-3.3C25.3 1.5 23.8 0 22 0s-3.3 1.5-3.3 3.3c0 1.9 1.5 3.4 3.3 3.4m0-5.4c1.1 0 2 .9 2 2s-.9 2-2 2-2-.9-2-2 .9-2 2-2M2.7 32h10.6V18.7H2.7zM4 20h8v10.7H4zm5.5-2.9-2.7-2.7.9-.9 2.7 2.7zM24.7 8H8v.7c0 1.1.8 3.3 4 3.3h6.7v20h6.7V21.3C26.9 21 28 19.6 28 18v-6.7C28 9.5 26.5 8 24.7 8m2 10c0 .9-.6 1.6-1.3 1.9V12H24v18.7h-1.3V20h-1.3v10.7H20v-20h-8c-1.6 0-2.3-.7-2.5-1.3h15.2c1.1 0 2 .9 2 2zm-20 10h4v1.3h-4zM8 25.3h1.3v1.3H8zm-1.3-.6H5.3c0-1.8 1.5-3.3 3.3-3.3v1.3c-1 0-1.9.9-1.9 2"/>
</svg>
