<svg viewBox="0 0 32 32" xmlns="http://www.w3.org/2000/svg">
  <rect/>
  <path d="M22 3.3c-1.5 0-2.7 1.2-2.7 2.7s1.2 2.7 2.7 2.7 2.7-1.2 2.7-2.7-1.2-2.7-2.7-2.7m0 4c-.7 0-1.4-.6-1.4-1.4 0-.7.6-1.4 1.4-1.4.7 0 1.4.6 1.4 1.4-.1.8-.7 1.4-1.4 1.4m-2 2.8c0-.1-.1-1.2-1.1-1.9-.7-.5-1.5-.7-2.6-.5h-.2l-6.3 6.6-1.7 7.5-3.7 6.5 3.6 2 4.3-7.5.4-1.1.8 2.3v6.6h4v-6.7l-2.2-7.8.8-.8c.1.5.3 1.1.7 1.5l2 2.1c.1.1.8.8 1.9.9v10.8H22v-11c.4-.2.9-.5 1.3-1l.4-.5-3.7-3.6zm.8 8.4c-.6 0-1.1-.5-1.1-.5l-2-2.1c-.4-.4-.5-1.5-.5-2.1l.1-1.7-3.5 3.6 2.3 8.3v5.3h-1.4V24l-2-6.2-1.7 4.4-3.6 6.2-1.3-.7 3.1-5.4 1.7-7.4 5.7-6c.6-.1 1 0 1.3.3.5.3.5.9.6.9V15l3.2 3.1c-.2.3-.6.4-.9.4"/>
</svg>
