<svg viewBox="0 0 32 32" xmlns="http://www.w3.org/2000/svg">
  <rect/>
  <path d="M15.3 6.7c1.8 0 3.3-1.5 3.3-3.3S17.1 0 15.3 0 12 1.5 12 3.3s1.5 3.4 3.3 3.4m0-5.4c1.1 0 2 .9 2 2s-.9 2-2 2-2-.9-2-2 .9-2 2-2m4.9 18.5c1.1-.5 1.8-1.6 1.8-2.8l-1.4-6c-.3-1-1-2.9-3.2-2.9h-4.3c-2.1 0-2.8 1.7-3.2 3l-1.3 5.8v.1c0 1.2.7 2.3 1.8 2.8L9.3 24h2.6v8h6.6v-8h2.7zm-6.7-6.6-1.3-.3-1.4 5.6c-.5-.3-.8-.8-.8-1.4l1.3-5.7c.5-1.7 1.1-2 1.9-2h4.3c.9 0 1.4.5 1.9 2l1.3 5.7c0 .5-.3 1-.8 1.3l-1.4-5.5-1.3.3 2.4 9.4H11zm-.2 17.5V24h1.3v6.7zm4 0h-1.4V24h1.3z"/>
</svg>
