<svg viewBox="0 0 32 32" xmlns="http://www.w3.org/2000/svg">
  <path d="M8.7 5.3c1.5 0 2.7-1.2 2.7-2.7S10.2-.1 8.7-.1C7.2 0 6 1.2 6 2.7c0 1.4 1.2 2.6 2.7 2.6m0-4c.7 0 1.3.6 1.3 1.3S9.4 4 8.7 4s-1.3-.6-1.3-1.3.6-1.4 1.3-1.4M15.6 16H12v-6c0-1.8-1.5-3.3-3.3-3.3S5.4 8.2 5.4 10v4.2C2.1 15.8 0 19 0 22.7 0 27.8 4.2 32 9.4 32c2.9 0 5.7-1.4 7.4-3.7l.4 1.3 3.9-.9-2.9-10.9c-.4-1-1.4-1.8-2.6-1.8M9.4 30.7c-4.4 0-8-3.6-8-8 0-2.9 1.6-5.5 4-7v3c0 1.8 1.5 3.3 3.3 3.3h.7v-2h5.2l1.8 6.7c-1.5 2.4-4.1 4-7 4m8.7-2.6-2.5-9.4H9.4V10H8v10.5c-.8-.3-1.3-1-1.3-1.9V10c0-1.1.9-2 2-2s2 .9 2 2v7.3h4.9c.6 0 1.1.4 1.2.9l2.5 9.6zm5.4-26.6h1.3L23.1 8h-1.7l-1.2-5.3L19 8h-1.7l-1.8-6.5h1.4s1.3 5.4 1.3 5.5c0-.1 1.2-5.5 1.2-5.5h1.7s1.3 5.4 1.3 5.5c0-.1 1.1-5.5 1.1-5.5m7 6.4c-.2 0-5 1.3-5-3.1s4.8-3.2 5.1-3.1l-.1 1.1c-.2-.1-3.7-1.2-3.7 1.9s3.4 2.1 3.6 2z"/>
</svg>
