<svg viewBox="0 0 32 32" xmlns="http://www.w3.org/2000/svg">
  <path d="M6.553 17.887h2.3v.78h-3.3v-.795a68 68 0 0 1 .824-1.172q.383-.533.68-.937.297-.402.487-.653.19-.25.25-.324H5.64v-.773H8.8v.78q-.52.74-.907 1.284-.387.543-.66.916-.273.375-.44.59a11 11 0 0 1-.24.304m3.026.78h.894v-3.434H9.58zm0-4.087h.894v-.853H9.58zm4.514 1.024q.38.45.38 1.383a2 2 0 0 1-.013.213h-2.3a.81.81 0 0 0 .303.633q.29.233.756.233.287 0 .538-.073.249-.073.462-.207l.014.734a2.2 2.2 0 0 1-.506.166 3 3 0 0 1-.614.06q-.42 0-.767-.12a1.6 1.6 0 0 1-.59-.353 1.6 1.6 0 0 1-.376-.57 2.1 2.1 0 0 1-.134-.77q0-.386.124-.713a1.6 1.6 0 0 1 .35-.563q.226-.237.543-.37a1.8 1.8 0 0 1 .703-.133q.747 0 1.127.45m-.44.983q0-.42-.193-.61-.195-.19-.527-.19a.78.78 0 0 0-.523.2q-.23.2-.264.6zm4.396-1.02a1 1 0 0 0-.389-.307 1.4 1.4 0 0 0-.58-.106q-.375 0-.647.18-.273.18-.46.48h-.013a21 21 0 0 0 .02-.834v-1.353h-.88v5.04h.88v-1.554q0-.579.206-.913.207-.333.627-.333a.6.6 0 0 1 .347.086q.127.087.193.24.067.154.083.364.017.21.017.456v1.654h.88v-1.994q0-.346-.067-.626a1.3 1.3 0 0 0-.217-.48m3.859.037q.379.45.38 1.383a2 2 0 0 1-.013.213h-2.301q.014.399.303.633.29.233.757.233.287 0 .536-.073t.464-.207l.013.734a2.2 2.2 0 0 1-.507.166q-.285.06-.613.06-.42 0-.767-.12a1.6 1.6 0 0 1-.59-.353 1.6 1.6 0 0 1-.376-.57 2.1 2.1 0 0 1-.133-.77q0-.386.123-.713.124-.326.35-.563t.543-.37a1.8 1.8 0 0 1 .704-.133q.747 0 1.127.45m-.44.983q-.001-.42-.193-.61-.194-.19-.528-.19a.78.78 0 0 0-.523.2q-.23.2-.263.6zm4.595-.547a1.25 1.25 0 0 0-.21-.477 1 1 0 0 0-.383-.303 1.4 1.4 0 0 0-.577-.106q-.375 0-.66.17a1.4 1.4 0 0 0-.48.483h-.013q0-.134-.007-.297a4 4 0 0 0-.02-.277h-.847A14 14 0 0 1 22.9 16.3v2.367h.88v-1.554q0-.512.146-.8a.9.9 0 0 1 .294-.323.7.7 0 0 1 .406-.123.6.6 0 0 1 .344.086.54.54 0 0 1 .186.24q.063.154.077.364t.013.456v1.654h.88v-2q.001-.346-.064-.627"/>
</svg>
