<svg xml:space="preserve" viewBox="0 0 32 32" xmlns="http://www.w3.org/2000/svg"><g id="icon">
  <path d="M6.553 17.887h2.3v.78h-3.3v-.795a68 68 0 0 1 .824-1.172c.255-.356.482-.667.68-.937.198-.268.36-.486.487-.653.126-.167.21-.274.25-.324H5.64v-.773H8.8v.78c-.347.493-.649.921-.907 1.284-.258.362-.478.668-.66.916-.182.25-.329.446-.44.59a10.99 10.99 0 0 1-.24.304m3.026.78h.894v-3.434H9.58v3.434m0-4.087h.894v-.853H9.58v.853m4.514 1.024c.253.3.38.76.38 1.383a2.082 2.082 0 0 1-.013.213h-2.3a.81.81 0 0 0 .303.633c.193.155.445.233.756.233.192 0 .37-.024.538-.073.166-.049.32-.118.462-.207l.014.734a2.181 2.181 0 0 1-.506.166 2.97 2.97 0 0 1-.614.06c-.28 0-.536-.04-.767-.12a1.59 1.59 0 0 1-.59-.353 1.596 1.596 0 0 1-.376-.57 2.083 2.083 0 0 1-.134-.77c0-.257.041-.495.124-.713a1.64 1.64 0 0 1 .35-.563c.15-.158.332-.281.543-.37a1.8 1.8 0 0 1 .703-.133c.498 0 .874.15 1.127.45m-.44.983c0-.28-.064-.483-.193-.61-.13-.127-.305-.19-.527-.19a.777.777 0 0 0-.523.2c-.153.133-.241.333-.264.6h1.507m4.396-1.02a.968.968 0 0 0-.389-.307 1.43 1.43 0 0 0-.58-.106c-.25 0-.465.06-.647.18s-.336.28-.46.48h-.013a20.499 20.499 0 0 0 .02-.834v-1.353h-.88v5.04h.88v-1.554c0-.386.068-.69.206-.913.138-.222.347-.333.627-.333a.61.61 0 0 1 .347.086c.084.058.149.138.193.24.044.103.073.224.083.364.012.14.017.292.017.456v1.654h.88v-1.994c0-.23-.023-.44-.067-.626a1.28 1.28 0 0 0-.217-.48m3.859.037c.252.3.38.76.38 1.383a2.08 2.08 0 0 1-.013.213h-2.301c.01.266.11.477.303.633.194.155.446.233.757.233.191 0 .37-.024.536-.073.167-.049.322-.118.464-.207l.013.734a2.16 2.16 0 0 1-.507.166c-.19.04-.395.06-.613.06-.28 0-.535-.04-.767-.12a1.6 1.6 0 0 1-.59-.353 1.603 1.603 0 0 1-.376-.57 2.084 2.084 0 0 1-.133-.77c0-.257.04-.495.123-.713a1.604 1.604 0 0 1 .893-.934 1.81 1.81 0 0 1 .704-.132c.498 0 .873.15 1.127.45m-.44.983c0-.28-.066-.483-.193-.61-.13-.127-.305-.19-.528-.19a.777.777 0 0 0-.523.2c-.154.133-.24.333-.263.6h1.506m4.595-.547a1.245 1.245 0 0 0-.21-.477.966.966 0 0 0-.383-.303 1.407 1.407 0 0 0-.577-.106c-.25 0-.47.056-.66.17a1.404 1.404 0 0 0-.48.483h-.013c0-.089-.003-.188-.007-.297a4.02 4.02 0 0 0-.02-.277h-.847A13.598 13.598 0 0 1 22.9 16.3v2.367h.88v-1.554c0-.342.048-.608.146-.8a.872.872 0 0 1 .294-.323.716.716 0 0 1 .406-.123.6.6 0 0 1 .344.086.541.541 0 0 1 .186.24c.042.103.068.224.077.364.01.14.013.292.013.456v1.654h.88v-2c0-.231-.02-.44-.064-.627"/>
</g></svg>
