<svg viewBox="0 0 32 32" xmlns="http://www.w3.org/2000/svg">
  <path d="M7.08 16.456q.293.325.293.838 0 .333-.123.602-.124.27-.35.46a1.6 1.6 0 0 1-.554.29q-.326.101-.726.1a3.8 3.8 0 0 1-1.233-.2l.086-.82q.3.147.574.208.273.06.52.06.373 0 .61-.152a.48.48 0 0 0 .236-.43.7.7 0 0 0-.04-.236.5.5 0 0 0-.143-.196 1.3 1.3 0 0 0-.277-.18 5 5 0 0 0-.44-.187q-.62-.225-.9-.533-.28-.306-.28-.8 0-.306.12-.557.12-.249.34-.426a1.6 1.6 0 0 1 .527-.27q.306-.094.68-.093.313 0 .58.036.267.037.547.13l-.074.76a2.4 2.4 0 0 0-.947-.2q-.373 0-.59.143a.44.44 0 0 0-.216.384q0 .106.033.196a.44.44 0 0 0 .127.174q.093.083.257.166.163.084.423.177.646.232.94.556m2.686 1.531q-.326 0-.43-.181-.102-.18-.103-.573v-1.34h.82v-.66h-.82v-1.006l-.84.286v.72H7.72v.66h.66v1.52q0 .68.264.987.263.306.856.306.174 0 .33-.02.158-.02.284-.066l-.02-.686a1 1 0 0 1-.327.053m4.217-1.77q.13.336.13.743 0 .4-.13.73a1.6 1.6 0 0 1-.943.93 2 2 0 0 1-.734.126 2 2 0 0 1-.733-.13 1.6 1.6 0 0 1-.57-.366 1.7 1.7 0 0 1-.37-.566 1.9 1.9 0 0 1-.134-.73q0-.414.134-.748.133-.332.374-.566.24-.233.576-.36t.75-.126q.393 0 .72.13t.564.362.366.57m-.81.71q0-.534-.23-.823-.23-.29-.637-.29a.74.74 0 0 0-.626.296q-.227.297-.227.85 0 .506.23.807.23.3.616.3.401 0 .637-.304.237-.302.237-.837m3.68.066a1.2 1.2 0 0 0-.307-.21 3 3 0 0 0-.406-.163 5 5 0 0 1-.303-.11 1 1 0 0 1-.194-.1q-.07-.049-.1-.113c-.03-.064-.03-.093-.03-.15q0-.174.147-.267a.7.7 0 0 1 .373-.094q.393 0 .82.194l.074-.667a2.5 2.5 0 0 0-.934-.16q-.307 0-.557.074a1.3 1.3 0 0 0-.43.21q-.18.136-.276.33a.8.8 0 0 0-.097.44q0 .38.21.603.21.224.703.39.207.073.337.13a1 1 0 0 1 .204.117q.073.06.102.126a.4.4 0 0 1 .03.154.29.29 0 0 1-.166.276.8.8 0 0 1-.393.09q-.227 0-.47-.057a2.4 2.4 0 0 1-.497-.177l-.047.707q.255.094.517.137.264.043.543.043.314 0 .574-.07.259-.069.443-.21a1 1 0 0 0 .287-.344q.102-.203.102-.468.001-.22-.065-.38c-.066-.16-.11-.2-.194-.28m2.98 0a1.3 1.3 0 0 0-.307-.21 3 3 0 0 0-.406-.163 5 5 0 0 1-.304-.11 1 1 0 0 1-.194-.1.3.3 0 0 1-.099-.113.34.34 0 0 1-.03-.15q0-.174.146-.267a.7.7 0 0 1 .374-.094q.393 0 .82.194l.073-.667a2.5 2.5 0 0 0-.933-.16q-.307 0-.556.074a1.3 1.3 0 0 0-.431.21.9.9 0 0 0-.276.33.96.96 0 0 0-.097.44q0 .38.21.603.21.224.703.39.207.073.337.13a1 1 0 0 1 .203.117q.074.06.103.126a.4.4 0 0 1 .03.154.29.29 0 0 1-.166.276.8.8 0 0 1-.394.09q-.225 0-.47-.057a2.4 2.4 0 0 1-.496-.177l-.047.707q.254.094.517.137c.263.043.357.043.543.043q.313 0 .573-.07.26-.069.444-.21a.8.8 0 0 0 .287-.344q.103-.203.102-.468a1 1 0 0 0-.066-.38.8.8 0 0 0-.193-.28m3.607-1.39q.38.45.38 1.384a2 2 0 0 1-.013.213h-2.3q.013.399.303.633t.756.233q.287 0 .537-.073t.463-.207l.013.734a2.2 2.2 0 0 1-.506.166q-.286.06-.613.06-.42 0-.767-.12a1.6 1.6 0 0 1-.59-.353q-.243-.234-.376-.57c-.133-.336-.133-.481-.133-.77q0-.386.122-.713.125-.326.35-.563.226-.237.543-.37a1.8 1.8 0 0 1 .705-.133q.745 0 1.126.45m-.44.984q0-.42-.193-.61-.194-.19-.527-.19a.78.78 0 0 0-.523.2q-.23.2-.264.6zm4.73-.547a1.25 1.25 0 0 0-.21-.477 1 1 0 0 0-.383-.303 1.4 1.4 0 0 0-.577-.106q-.375 0-.66.17a1.4 1.4 0 0 0-.48.483h-.014a9 9 0 0 0-.006-.297 4 4 0 0 0-.021-.277h-.846a14 14 0 0 1 .033 1.067v2.367h.88v-1.554q0-.512.146-.8a.9.9 0 0 1 .295-.323.7.7 0 0 1 .406-.123.6.6 0 0 1 .344.086.54.54 0 0 1 .186.24q.063.154.077.364t.013.456v1.654h.88v-2q.001-.346-.064-.627"/>
</svg>
