<svg xml:space="preserve" viewBox="0 0 32 32" xmlns="http://www.w3.org/2000/svg"><g id="icon">
  <path d="M7.08 16.456c.195.217.293.495.293.838 0 .222-.041.422-.123.602-.082.18-.2.333-.35.46a1.558 1.558 0 0 1-.554.29c-.217.068-.46.1-.726.1a3.77 3.77 0 0 1-1.233-.2l.086-.82c.2.098.392.167.574.208.182.039.355.06.52.06.249 0 .452-.051.61-.152a.477.477 0 0 0 .236-.43.651.651 0 0 0-.04-.236.529.529 0 0 0-.143-.196 1.256 1.256 0 0 0-.277-.18 4.543 4.543 0 0 0-.44-.187c-.413-.15-.713-.328-.9-.533-.187-.204-.28-.471-.28-.8a1.213 1.213 0 0 1 .46-.983 1.55 1.55 0 0 1 .527-.27c.204-.063.431-.093.68-.093.209 0 .402.011.58.036.178.025.36.068.547.13l-.074.76a2.364 2.364 0 0 0-.947-.2c-.249 0-.445.048-.59.143a.44.44 0 0 0-.216.384.44.44 0 0 0 .16.37c.062.055.147.111.257.166.109.056.25.115.423.177.431.155.744.34.94.556m2.686 1.531c-.217 0-.361-.061-.43-.181-.068-.12-.103-.311-.103-.573v-1.34h.82v-.66h-.82v-1.006l-.84.286v.72H7.72v.66h.66v1.52c0 .453.088.782.264.987.175.204.461.306.856.306.116 0 .226-.007.33-.02.105-.013.2-.035.284-.066l-.02-.686a1.038 1.038 0 0 1-.327.053m4.217-1.77c.087.224.13.472.13.743 0 .267-.043.51-.13.73a1.612 1.612 0 0 1-.943.93 2.048 2.048 0 0 1-.734.126 1.99 1.99 0 0 1-.733-.13 1.633 1.633 0 0 1-.57-.366 1.685 1.685 0 0 1-.37-.566 1.94 1.94 0 0 1-.134-.73c0-.276.045-.525.134-.748.089-.222.213-.41.374-.566.159-.156.352-.275.576-.36.224-.085.474-.126.75-.126.262 0 .502.043.72.13.218.086.405.207.564.362.157.156.28.346.366.57m-.81.71c0-.356-.077-.63-.23-.823-.153-.194-.366-.29-.637-.29a.744.744 0 0 0-.626.296c-.151.198-.227.481-.227.85 0 .338.076.606.23.807.153.2.359.3.616.3.267 0 .48-.102.637-.304.158-.202.237-.48.237-.837m3.68.066a1.242 1.242 0 0 0-.307-.21 2.996 2.996 0 0 0-.406-.163 4.542 4.542 0 0 1-.303-.11.936.936 0 0 1-.194-.1c-.047-.033-.08-.07-.1-.113s-.03-.093-.03-.15c0-.116.049-.205.147-.267a.683.683 0 0 1 .373-.094c.262 0 .535.065.82.194l.074-.667a2.477 2.477 0 0 0-.934-.16c-.205 0-.39.025-.557.074a1.31 1.31 0 0 0-.43.21c-.12.091-.212.201-.276.33s-.097.275-.097.44c0 .253.07.454.21.603.14.149.374.28.703.39.138.049.25.092.337.13a.86.86 0 0 1 .204.117c.048.04.083.082.102.126a.37.37 0 0 1 .03.154.294.294 0 0 1-.166.276.816.816 0 0 1-.393.09c-.152 0-.308-.019-.47-.057a2.421 2.421 0 0 1-.497-.177l-.047.707c.17.063.342.108.517.137.176.029.357.043.543.043.21 0 .4-.023.574-.07.173-.046.32-.116.443-.21a1.01 1.01 0 0 0 .287-.344c.068-.135.102-.291.102-.468 0-.147-.02-.274-.065-.38s-.11-.2-.194-.28m2.98 0a1.271 1.271 0 0 0-.307-.21 2.995 2.995 0 0 0-.406-.163 4.68 4.68 0 0 1-.304-.11.979.979 0 0 1-.194-.1.299.299 0 0 1-.099-.113.337.337 0 0 1-.03-.15c0-.116.049-.205.146-.267a.683.683 0 0 1 .374-.094c.262 0 .535.065.82.194l.073-.667a2.466 2.466 0 0 0-.933-.16c-.205 0-.39.025-.556.074a1.33 1.33 0 0 0-.431.21.931.931 0 0 0-.276.33.96.96 0 0 0-.097.44c0 .253.07.454.21.603.14.149.374.28.703.39.138.049.25.092.337.13a.868.868 0 0 1 .203.117c.049.04.084.082.103.126a.36.36 0 0 1 .03.154.293.293 0 0 1-.166.276.816.816 0 0 1-.394.09c-.15 0-.307-.019-.47-.057a2.421 2.421 0 0 1-.496-.177l-.047.707c.17.063.341.108.517.137s.357.043.543.043c.209 0 .4-.023.573-.07.173-.046.322-.116.444-.21s.218-.207.287-.344c.069-.135.102-.291.102-.468a.988.988 0 0 0-.066-.38.823.823 0 0 0-.193-.28m3.607-1.39c.253.3.38.762.38 1.384a2.082 2.082 0 0 1-.013.213h-2.3c.009.266.11.477.303.633.194.155.445.233.756.233.192 0 .37-.024.537-.073.167-.049.321-.118.463-.207l.013.734a2.16 2.16 0 0 1-.506.166c-.19.04-.396.06-.613.06-.28 0-.536-.04-.767-.12a1.6 1.6 0 0 1-.59-.353c-.162-.156-.288-.346-.376-.57s-.133-.481-.133-.77c0-.257.04-.495.122-.713a1.603 1.603 0 0 1 .893-.934 1.81 1.81 0 0 1 .705-.132c.497 0 .872.15 1.126.45m-.44.984c0-.28-.065-.483-.193-.61-.13-.127-.304-.19-.527-.19a.777.777 0 0 0-.523.2c-.154.133-.241.333-.264.6H23m4.73-.547a1.245 1.245 0 0 0-.21-.477.966.966 0 0 0-.383-.303 1.406 1.406 0 0 0-.577-.106c-.25 0-.47.056-.66.17a1.404 1.404 0 0 0-.48.483h-.014a8.5 8.5 0 0 0-.006-.297 4.02 4.02 0 0 0-.021-.277h-.846a13.604 13.604 0 0 1 .033 1.067v2.367h.88v-1.554c0-.342.049-.608.146-.8a.872.872 0 0 1 .295-.323.716.716 0 0 1 .406-.123.6.6 0 0 1 .344.086.541.541 0 0 1 .186.24c.042.103.068.224.077.364.009.14.013.292.013.456v1.654h.88v-2c0-.231-.02-.44-.064-.627"/>
</g></svg>
