<svg xml:space="preserve" viewBox="0 0 32 32" xmlns="http://www.w3.org/2000/svg"><g id="icon">
  <path d="M6.786 14.013h3.527v.787l-1.3-.02v3.887H8.06V14.78l-1.274.02v-.787m4.16.567h.894v-.853h-.894v.853m0 4.087h.894v-3.434h-.894v3.434m3.714-3.513a.937.937 0 0 0-.61.196c-.163.131-.288.31-.377.537h-.013c0-.045-.002-.097-.004-.157l-.006-.18-.007-.173a1.884 1.884 0 0 0-.01-.144h-.84a7.4 7.4 0 0 1 .027.48c.004.178.006.358.006.54v2.414h.907v-1.4c0-.902.298-1.354.893-1.354.111 0 .214.016.307.047l.02-.767a.602.602 0 0 0-.144-.033 1.539 1.539 0 0 0-.15-.006m3.516 3.032.03.48h-.78a3.185 3.185 0 0 1-.01-.414c.002-.053.006-.106.01-.16h-.013a1.312 1.312 0 0 1-.46.468c-.19.116-.43.173-.72.173-.169 0-.323-.025-.463-.073a.974.974 0 0 1-.597-.544 1.095 1.095 0 0 1-.086-.45c0-.36.152-.636.457-.83.304-.193.74-.29 1.31-.29.07 0 .15.002.236.004s.17.008.25.016c0-.266-.065-.46-.194-.579-.128-.12-.333-.18-.613-.18-.182 0-.364.029-.546.086a2.457 2.457 0 0 0-.5.22l-.034-.693c.174-.089.371-.156.594-.2.222-.044.435-.066.64-.066.266 0 .494.033.683.1.189.066.342.16.46.28.118.12.204.266.26.44.056.172.083.366.083.58a18.788 18.788 0 0 0-.007.51c0 .095 0 .187-.003.276-.003.088-.003.167-.003.233 0 .204.005.409.016.613m-.823-1.1a1.193 1.193 0 0 0-.156-.012h-.137c-.356 0-.626.04-.813.123a.43.43 0 0 0-.28.423c0 .15.047.267.14.346.093.08.224.12.393.12a.966.966 0 0 0 .33-.056.714.714 0 0 0 .274-.177.831.831 0 0 0 .182-.31 1.37 1.37 0 0 0 .067-.456m3.527-1.932a.933.933 0 0 0-.61.196c-.163.131-.288.31-.377.537h-.013l-.002-.157-.008-.18-.007-.173a1.92 1.92 0 0 0-.009-.144h-.841c.013.143.022.303.027.48.004.178.007.358.007.54v2.414h.906v-1.4c0-.902.297-1.354.893-1.354.112 0 .214.016.308.047l.02-.767c-.049-.017-.096-.028-.143-.033s-.099-.006-.15-.006m3.727 1.833a2.082 2.082 0 0 1-.013.213h-2.301c.01.266.11.477.303.633.194.155.446.233.757.233.191 0 .37-.024.536-.073.167-.049.322-.118.464-.207l.013.734a2.16 2.16 0 0 1-.507.166c-.19.04-.395.06-.613.06-.28 0-.535-.04-.767-.12a1.6 1.6 0 0 1-.59-.353 1.603 1.603 0 0 1-.376-.57 2.084 2.084 0 0 1-.133-.77c0-.257.04-.495.123-.713a1.603 1.603 0 0 1 .893-.934 1.81 1.81 0 0 1 .704-.132c.498 0 .873.15 1.127.45.252.3.38.76.38 1.383m-.82-.4c0-.28-.066-.483-.193-.61-.13-.127-.305-.19-.528-.19a.777.777 0 0 0-.523.2c-.154.133-.24.333-.263.6h1.506"/>
</g></svg>
