<svg xml:space="preserve" viewBox="0 0 32 32" xmlns="http://www.w3.org/2000/svg"><g id="icon">
  <path fill="currentColor" d="M5.08 16.456c.195.217.293.495.293.838 0 .222-.041.423-.123.603s-.2.333-.35.46a1.56 1.56 0 0 1-.554.29c-.217.067-.46.1-.726.1a3.77 3.77 0 0 1-1.233-.2l.086-.82c.2.097.392.166.574.207s.355.06.52.06c.249 0 .452-.05.61-.15a.48.48 0 0 0 .236-.43.654.654 0 0 0-.04-.238.529.529 0 0 0-.143-.196 1.256 1.256 0 0 0-.277-.18 4.543 4.543 0 0 0-.44-.187c-.413-.15-.713-.328-.9-.533-.187-.204-.28-.471-.28-.8a1.213 1.213 0 0 1 .46-.983 1.55 1.55 0 0 1 .527-.27c.204-.063.431-.093.68-.093.209 0 .402.011.58.036.178.025.36.068.547.13l-.074.76a2.364 2.364 0 0 0-.947-.2c-.249 0-.445.048-.59.143a.44.44 0 0 0-.216.384.44.44 0 0 0 .16.37c.062.055.147.111.257.166.109.056.25.115.423.177.431.155.744.34.94.556zm4.413-.266c.067.216.1.456.1.723 0 .271-.034.52-.103.745a1.753 1.753 0 0 1-.297.579 1.333 1.333 0 0 1-1.08.51c-.258 0-.476-.054-.653-.164a1.343 1.343 0 0 1-.447-.455h-.014c.005.035.008.088.01.158l.007.235c.002.083.004.167.004.246v1.299h-.894v-3.793c0-.182-.002-.365-.006-.55a7.47 7.47 0 0 0-.027-.49h.854c.008.072.015.16.02.264.004.104.006.2.006.29h.013c.147-.213.312-.372.494-.477.182-.104.404-.156.666-.156.222 0 .424.041.603.126.18.085.333.203.457.357.125.153.22.338.287.553zm-.82.75c0-.333-.07-.598-.21-.794a.684.684 0 0 0-.59-.292.73.73 0 0 0-.35.083.833.833 0 0 0-.27.23 1.056 1.056 0 0 0-.174.346c-.04.133-.06.28-.06.44 0 .16.02.307.06.44.04.134.097.25.17.35.074.1.163.179.267.234.104.056.222.083.35.083a.693.693 0 0 0 .597-.317c.069-.1.121-.217.157-.352a1.8 1.8 0 0 0 .053-.45zm1.7-2.36h.893v-.853h-.894v.853zm0 4.087h.893v-3.434h-.894v3.434zm4.846-3.104a.957.957 0 0 0-.383-.303 1.402 1.402 0 0 0-.577-.106c-.249 0-.469.056-.66.17a1.404 1.404 0 0 0-.48.483h-.013c0-.089-.002-.188-.006-.297a4.066 4.066 0 0 0-.02-.277h-.848c.014.187.023.37.027.547.005.178.007.35.007.52v2.367h.88v-1.554c0-.342.049-.608.146-.8a.876.876 0 0 1 .294-.323.72.72 0 0 1 .407-.123c.146 0 .26.029.343.086a.538.538 0 0 1 .187.24c.042.103.067.224.077.364.008.14.013.292.013.456v1.654h.88v-2c0-.231-.022-.44-.063-.627a1.246 1.246 0 0 0-.211-.477zm3.495-.33h.826V18.4c0 .258-.036.493-.106.707a1.45 1.45 0 0 1-.327.55 1.522 1.522 0 0 1-.564.36c-.228.087-.499.13-.81.13-.236 0-.465-.017-.69-.05a3.275 3.275 0 0 1-.676-.176l.067-.76c.213.115.421.197.626.247.204.048.405.072.6.072.151 0 .29-.02.413-.063a.809.809 0 0 0 .32-.197.907.907 0 0 0 .207-.336c.048-.137.073-.297.073-.484v-.173c0-.058.005-.118.013-.18h-.013c-.101.173-.243.32-.423.44s-.405.18-.677.18c-.221 0-.425-.04-.606-.123a1.345 1.345 0 0 1-.467-.347 1.567 1.567 0 0 1-.3-.537 2.125 2.125 0 0 1-.106-.693c0-.267.035-.511.107-.734.07-.222.173-.413.306-.573.134-.16.294-.284.483-.374.188-.088.4-.132.636-.132.267 0 .49.057.667.173.178.115.318.266.42.453h.014a3.373 3.373 0 0 1-.013-.287v-.26zm-.054 1.68c0-.15-.02-.292-.06-.423a1.03 1.03 0 0 0-.173-.34.854.854 0 0 0-.27-.227.731.731 0 0 0-.674 0 .857.857 0 0 0-.25.227c-.07.095-.125.21-.163.343a1.559 1.559 0 0 0-.057.427c0 .307.072.558.214.753a.685.685 0 0 0 .587.294.741.741 0 0 0 .342-.08.818.818 0 0 0 .271-.22.988.988 0 0 0 .173-.334c.04-.129.06-.269.06-.42zm4.34-1.31c.253.3.38.762.38 1.384a2.082 2.082 0 0 1-.013.213h-2.3c.009.267.11.478.303.633.194.157.445.233.756.233a1.875 1.875 0 0 0 1-.28l.013.735c-.146.07-.315.126-.506.167-.19.039-.396.06-.613.06-.28 0-.536-.041-.767-.12a1.602 1.602 0 0 1-.59-.355 1.58 1.58 0 0 1-.377-.57 2.084 2.084 0 0 1-.132-.77c0-.257.04-.495.122-.713a1.603 1.603 0 0 1 .893-.934 1.81 1.81 0 0 1 .705-.132c.497 0 .872.15 1.126.45zm-.44.984c0-.28-.065-.483-.193-.61-.13-.127-.305-.19-.527-.19a.777.777 0 0 0-.524.2c-.153.133-.24.333-.263.6h1.507zm3.387-1.433a.94.94 0 0 0-.611.196c-.163.131-.288.31-.376.537h-.013a3.69 3.69 0 0 0-.004-.157l-.007-.18-.006-.173a2.84 2.84 0 0 0-.01-.144h-.84c.012.143.022.303.025.48.006.178.008.358.008.54v2.414h.907v-1.4c0-.902.296-1.354.893-1.354.11 0 .213.016.306.047l.02-.767c-.049-.017-.096-.028-.143-.033s-.097-.006-.15-.006zm3.726 1.833a2.082 2.082 0 0 1-.013.213h-2.3c.008.267.11.478.303.633.194.157.445.233.756.233a1.875 1.875 0 0 0 1-.28l.013.735c-.146.07-.315.126-.506.167-.19.039-.396.06-.613.06-.28 0-.536-.041-.767-.12a1.602 1.602 0 0 1-.59-.355 1.58 1.58 0 0 1-.377-.57 2.084 2.084 0 0 1-.132-.77c0-.257.04-.495.122-.713a1.603 1.603 0 0 1 .893-.934 1.81 1.81 0 0 1 .705-.132c.497 0 .872.15 1.126.45.253.3.38.76.38 1.383zm-.82-.4c0-.28-.065-.483-.193-.61-.13-.127-.305-.19-.527-.19a.777.777 0 0 0-.524.2c-.153.133-.24.333-.263.6h1.507z"/>
</g></svg>
