<svg xml:space="preserve" viewBox="0 0 32 32" xmlns="http://www.w3.org/2000/svg"><g id="icon">
  <path d="M13.104 14.294c-.18-.107-.39-.18-.627-.22a4.437 4.437 0 0 0-.744-.061H10.56v4.654h.94v-1.774h.233c.267 0 .519-.023.757-.07.238-.046.446-.126.623-.24s.32-.262.423-.446c.105-.185.157-.417.157-.697 0-.289-.053-.525-.16-.71a1.19 1.19 0 0 0-.43-.436m-.447 1.516a.576.576 0 0 1-.217.226.913.913 0 0 1-.336.114 2.89 2.89 0 0 1-.437.03H11.5v-1.46h.167c.35 0 .616.052.797.157.18.104.27.294.27.57a.77.77 0 0 1-.077.363m4.866 2.377c.002.178.012.338.03.48h-.833a3.142 3.142 0 0 1-.02-.25 7.686 7.686 0 0 1-.007-.317h-.013c-.111.179-.26.33-.446.457-.187.127-.432.19-.734.19-.182 0-.348-.03-.497-.093a1.042 1.042 0 0 1-.38-.27 1.265 1.265 0 0 1-.243-.423 1.644 1.644 0 0 1-.086-.547v-2.18h.88v1.779c0 .152.008.288.026.41a.913.913 0 0 0 .1.314.521.521 0 0 0 .2.203c.085.05.191.073.32.073s.244-.027.343-.083a.78.78 0 0 0 .257-.227c.07-.095.124-.208.16-.34.036-.13.053-.27.053-.416v-1.714h.887v2.414c0 .182 0 .362.003.54m.997-4.56h.893v5.04h-.893zm2.813 0v5.04h-.894v-5.04z"/>
</g></svg>
