<svg viewBox="0 0 32 32" xmlns="http://www.w3.org/2000/svg">
  <path d="M7.52 12h-3.3v-.794q.44-.639.824-1.173.382-.532.68-.937.296-.402.486-.653a14 14 0 0 1 .25-.323H4.307v-.774h3.16v.781q-.521.739-.907 1.283-.387.543-.66.917-.274.373-.44.59-.167.216-.24.303h2.3zm.726-4.087h.894V7.06h-.894zm0 4.087h.894V8.566h-.894zm1.8-.964a2.1 2.1 0 0 1-.133-.77q0-.386.123-.713a1.6 1.6 0 0 1 .35-.563q.227-.237.544-.37a1.8 1.8 0 0 1 .703-.133q.747 0 1.127.45t.38 1.383a2 2 0 0 1-.014.213h-2.3q.014.4.304.634t.756.233q.286 0 .537-.073.25-.073.463-.207l.014.734a2.2 2.2 0 0 1-.507.166q-.287.06-.613.06-.42 0-.767-.12a1.6 1.6 0 0 1-.59-.353 1.6 1.6 0 0 1-.377-.57m.767-1.116h1.507q0-.42-.194-.61-.193-.19-.526-.19a.78.78 0 0 0-.524.2q-.229.2-.263.6M17 12v-1.993q0-.347-.068-.627a1.3 1.3 0 0 0-.216-.48 1 1 0 0 0-.39-.307 1.4 1.4 0 0 0-.58-.106q-.373 0-.646.18-.274.18-.46.48h-.014a21 21 0 0 0 .02-.834V6.96h-.88V12h.88v-1.553q0-.58.207-.914.207-.333.627-.333a.6.6 0 0 1 .346.086q.128.087.194.24.066.154.083.364.016.21.017.456V12zm.86-.964a2.1 2.1 0 0 1-.132-.77q0-.386.122-.713.125-.326.35-.563.228-.237.543-.37a1.8 1.8 0 0 1 .705-.133q.745 0 1.126.45t.38 1.383a2 2 0 0 1-.013.213h-2.3a.81.81 0 0 0 .303.634q.29.233.757.233.286 0 .536-.073t.464-.207l.013.734a2.2 2.2 0 0 1-.507.166q-.286.06-.613.06-.42 0-.767-.12a1.6 1.6 0 0 1-.59-.353 1.6 1.6 0 0 1-.376-.57m.768-1.116h1.506q0-.42-.193-.61-.194-.19-.527-.19a.78.78 0 0 0-.523.2q-.23.2-.263.6m6.101-.547a1.25 1.25 0 0 0-.21-.477 1 1 0 0 0-.382-.303 1.4 1.4 0 0 0-.577-.106q-.375 0-.66.17a1.4 1.4 0 0 0-.48.483h-.014a9 9 0 0 0-.006-.297 4 4 0 0 0-.021-.277h-.846a14 14 0 0 1 .033 1.067V12h.88v-1.553q0-.515.146-.8a.9.9 0 0 1 .295-.323.7.7 0 0 1 .406-.124.6.6 0 0 1 .344.086.54.54 0 0 1 .186.24q.063.154.077.364t.013.456V12h.88v-2q.001-.346-.064-.627M4.12 14.8l1.274-.02v3.887h.953V14.78l1.3.02v-.787H4.12zm4.027 3.867h.894v-3.434h-.894zm0-4.087h.894v-.853h-.894zm3.713.574a.94.94 0 0 0-.61.196q-.243.197-.376.537h-.014q0-.067-.003-.157l-.006-.18-.008-.173a2 2 0 0 0-.01-.144h-.84q.02.215.028.48c.008.266.006.358.006.54v2.414h.907v-1.4q0-1.354.893-1.354.166 0 .307.047l.02-.767a.6.6 0 0 0-.144-.033 2 2 0 0 0-.15-.006m.877 3.12a1.6 1.6 0 0 1-.377-.57 2.1 2.1 0 0 1-.133-.77q-.001-.387.124-.714a1.6 1.6 0 0 1 .35-.563q.226-.237.543-.37a1.8 1.8 0 0 1 .703-.133q.747 0 1.127.45t.38 1.383a2 2 0 0 1-.014.213h-2.3q.014.4.304.633.29.234.756.233.287.001.537-.073a1.8 1.8 0 0 0 .463-.207l.014.735q-.22.105-.507.167-.286.06-.613.06-.42 0-.767-.12a1.6 1.6 0 0 1-.59-.355m.39-1.687h1.507q0-.42-.194-.61-.192-.19-.526-.19a.78.78 0 0 0-.524.2q-.229.2-.263.6m3.968 2.08v-1.4q0-1.354.893-1.354.167 0 .305.047l.02-.767q-.073-.025-.143-.033c-.07-.008-.096-.006-.148-.006a.95.95 0 0 0-.612.196q-.243.197-.375.537h-.014l-.004-.157-.006-.18-.007-.173a2 2 0 0 0-.01-.144h-.84q.02.215.027.48c.007.266.006.358.006.54v2.414zm-12.974 2.8 1.273-.02v3.886h.953v-3.886l1.3.02v-.787H4.12zm4.026 3.866h.894V21.9h-.894zm0-4.086h.894v-.854h-.894zm3.713.573a.94.94 0 0 0-.61.197q-.243.197-.376.536h-.014q0-.066-.003-.156l-.006-.18-.008-.173a2 2 0 0 0-.01-.144h-.84q.02.215.028.48.006.268.006.54v2.413h.907v-1.4q0-1.353.893-1.352.166 0 .307.047l.02-.767a.6.6 0 0 0-.144-.034 2 2 0 0 0-.15-.007m3.65 3.034.03.48h-.78a1 1 0 0 1-.009-.12 4 4 0 0 1 0-.293l.01-.16h-.013a1.3 1.3 0 0 1-.46.466q-.287.173-.72.173a1.4 1.4 0 0 1-.463-.073.97.97 0 0 1-.597-.543 1.1 1.1 0 0 1-.087-.45q0-.54.457-.83.455-.29 1.31-.29.106 0 .236.003.13.004.25.016 0-.4-.193-.58-.195-.18-.613-.179-.274 0-.547.086a2.5 2.5 0 0 0-.5.22l-.034-.693q.261-.133.594-.2t.64-.067q.4 0 .683.1c.283.1.343.16.46.28q.177.18.26.44t.084.58q0 .1-.004.233-.003.135-.003.277c0 .142-.001.188-.003.277q-.004.133-.004.234 0 .306.017.613m-.822-1.1a1 1 0 0 0-.157-.013h-.137q-.532 0-.813.122c-.28.122-.28.224-.28.423q0 .226.14.348.14.12.393.12.174 0 .33-.057a.7.7 0 0 0 .274-.176.84.84 0 0 0 .183-.31 1.4 1.4 0 0 0 .067-.457m3.527-1.934a.93.93 0 0 0-.61.197q-.246.197-.377.536h-.013l-.003-.156-.008-.18-.006-.173a2 2 0 0 0-.01-.144h-.84q.02.215.027.48.006.268.006.54v2.413h.906v-1.4q0-1.353.894-1.352.167 0 .307.047l.02-.767a.6.6 0 0 0-.142-.034 2 2 0 0 0-.151-.007m3.213.45q.38.45.38 1.384a2 2 0 0 1-.013.213h-2.3q.014.4.303.633.29.233.756.233a1.9 1.9 0 0 0 1-.28l.013.734q-.218.106-.506.167-.286.06-.613.06-.42 0-.767-.12a1.6 1.6 0 0 1-.59-.354 1.6 1.6 0 0 1-.376-.57 2.1 2.1 0 0 1-.133-.77q0-.387.122-.713.125-.327.35-.563.227-.237.543-.37a1.8 1.8 0 0 1 .705-.134q.745 0 1.126.45m-.44.984q0-.42-.193-.61-.194-.19-.527-.19a.78.78 0 0 0-.524.2q-.229.199-.263.6z"/>
</svg>
