<svg xml:space="preserve" viewBox="0 0 32 32" xmlns="http://www.w3.org/2000/svg"><g id="icon">
  <path fill="currentColor" d="M7.52 12h-3.3v-.794c.293-.426.568-.817.824-1.173.255-.355.481-.667.68-.937.197-.268.36-.486.486-.653a14.2 14.2 0 0 1 .25-.323H4.307v-.774h3.16v.781c-.347.493-.65.92-.907 1.283-.258.362-.478.668-.66.917-.183.249-.329.445-.44.59-.111.144-.191.245-.24.303h2.3V12zm.726-4.087h.894V7.06h-.894v.853zm0 4.087h.894V8.566h-.894V12zm1.8-.964a2.083 2.083 0 0 1-.133-.77c0-.257.04-.495.123-.713a1.64 1.64 0 0 1 .35-.563c.151-.158.333-.281.544-.37a1.8 1.8 0 0 1 .703-.133c.498 0 .874.15 1.127.45.253.3.38.76.38 1.383a2.08 2.08 0 0 1-.014.213h-2.3c.01.267.11.478.304.634.193.155.445.233.756.233a1.834 1.834 0 0 0 1-.28l.014.734a2.213 2.213 0 0 1-.507.166c-.191.04-.396.06-.613.06-.28 0-.536-.04-.767-.12a1.59 1.59 0 0 1-.59-.353 1.585 1.585 0 0 1-.377-.57zm.767-1.116h1.507c0-.28-.065-.483-.194-.61-.129-.126-.304-.19-.526-.19a.777.777 0 0 0-.524.2c-.153.133-.24.334-.263.6zM17 12v-1.993c0-.232-.023-.44-.068-.627a1.28 1.28 0 0 0-.216-.48.975.975 0 0 0-.39-.307 1.427 1.427 0 0 0-.58-.106c-.249 0-.464.06-.646.18-.183.12-.336.28-.46.48h-.014a20.481 20.481 0 0 0 .02-.834V6.96h-.88V12h.88v-1.553c0-.387.069-.691.207-.914.138-.222.347-.333.627-.333a.61.61 0 0 1 .346.086c.085.058.15.138.194.24.044.103.072.224.083.364.01.14.017.292.017.456V12H17zm.86-.964a2.084 2.084 0 0 1-.132-.77c0-.257.04-.495.122-.713.084-.217.2-.405.35-.563.152-.158.333-.281.543-.37a1.81 1.81 0 0 1 .705-.133c.497 0 .872.15 1.126.45.253.3.38.76.38 1.383a2.082 2.082 0 0 1-.013.213h-2.3a.81.81 0 0 0 .303.634c.194.155.445.233.757.233a1.839 1.839 0 0 0 1-.28l.013.734a2.192 2.192 0 0 1-.507.166c-.19.04-.396.06-.613.06-.28 0-.535-.04-.767-.12a1.6 1.6 0 0 1-.59-.353 1.592 1.592 0 0 1-.376-.57zm.768-1.116h1.506c0-.28-.065-.483-.193-.61-.13-.126-.304-.19-.527-.19a.777.777 0 0 0-.523.2c-.154.133-.241.334-.263.6zm6.101-.547a1.245 1.245 0 0 0-.21-.477.966.966 0 0 0-.382-.303 1.407 1.407 0 0 0-.577-.106c-.25 0-.47.057-.66.17a1.404 1.404 0 0 0-.48.483h-.014a8.5 8.5 0 0 0-.006-.297 4.02 4.02 0 0 0-.021-.277h-.846a13.604 13.604 0 0 1 .033 1.067V12h.88v-1.553c0-.343.049-.61.146-.8a.872.872 0 0 1 .295-.323.716.716 0 0 1 .406-.124.6.6 0 0 1 .344.086.541.541 0 0 1 .186.24c.042.103.068.224.077.364.009.14.013.292.013.456V12h.88v-2c0-.231-.02-.44-.064-.627zM4.12 14.8l1.274-.02v3.887h.953V14.78l1.3.02v-.787H4.12v.787zm4.027 3.867h.894v-3.434h-.894v3.434zm0-4.087h.894v-.853h-.894v.853zm3.713.574a.937.937 0 0 0-.61.196c-.162.131-.287.31-.376.537h-.014c0-.045 0-.097-.003-.157l-.006-.18-.008-.173a1.885 1.885 0 0 0-.01-.144h-.84c.014.143.023.303.028.48s.006.358.006.54v2.414h.907v-1.4c0-.902.297-1.354.893-1.354.11 0 .214.016.307.047l.02-.767a.602.602 0 0 0-.144-.033 1.539 1.539 0 0 0-.15-.006zm.877 3.12a1.574 1.574 0 0 1-.377-.57 2.083 2.083 0 0 1-.133-.77c0-.258.04-.496.124-.714a1.64 1.64 0 0 1 .35-.563c.15-.158.332-.281.543-.37a1.8 1.8 0 0 1 .703-.133c.498 0 .874.15 1.127.45.253.3.38.76.38 1.383a2.08 2.08 0 0 1-.014.213h-2.3c.01.267.11.478.304.633.193.157.445.233.756.233.192 0 .37-.023.537-.073a1.79 1.79 0 0 0 .463-.207l.014.735c-.147.07-.316.126-.507.167-.191.039-.395.06-.613.06-.28 0-.536-.041-.767-.12a1.592 1.592 0 0 1-.59-.355zm.39-1.687h1.507c0-.28-.065-.483-.194-.61-.128-.127-.304-.19-.526-.19a.777.777 0 0 0-.524.2c-.153.133-.24.333-.263.6zm3.968 2.08v-1.4c0-.902.297-1.354.893-1.354.11 0 .214.016.305.047l.02-.767c-.049-.017-.096-.028-.143-.033s-.096-.006-.148-.006a.945.945 0 0 0-.612.196c-.162.131-.287.31-.375.537h-.014a3.69 3.69 0 0 0-.004-.157l-.006-.18-.007-.173a1.851 1.851 0 0 0-.01-.144h-.84c.013.143.022.303.027.48s.006.358.006.54v2.414h.908zm-12.974 2.8 1.273-.02v3.886h.953v-3.886l1.3.02v-.787H4.12v.787zm4.026 3.866h.894V21.9h-.894v3.433zm0-4.086h.894v-.854h-.894v.854zm3.713.573a.937.937 0 0 0-.61.197c-.162.131-.287.31-.376.536h-.014c0-.044 0-.096-.003-.156l-.006-.18-.008-.173a1.904 1.904 0 0 0-.01-.144h-.84c.014.143.023.303.028.48.004.179.006.358.006.54v2.413h.907v-1.4c0-.902.297-1.352.893-1.352.11 0 .214.015.307.047l.02-.767a.605.605 0 0 0-.144-.034 1.776 1.776 0 0 0-.15-.007zm3.65 3.034.03.48h-.78a1.123 1.123 0 0 1-.009-.12 4.209 4.209 0 0 1 0-.293 4.4 4.4 0 0 1 .01-.16h-.013a1.316 1.316 0 0 1-.46.466c-.191.115-.432.173-.72.173a1.38 1.38 0 0 1-.463-.073.974.974 0 0 1-.597-.543 1.106 1.106 0 0 1-.087-.45c0-.36.152-.637.457-.83.304-.194.74-.29 1.31-.29.07 0 .15 0 .236.003.087.002.17.008.25.016 0-.266-.064-.46-.193-.58-.13-.12-.334-.179-.613-.179-.183 0-.365.029-.547.086a2.493 2.493 0 0 0-.5.22l-.034-.693c.174-.088.372-.156.594-.2.222-.045.436-.067.64-.067.266 0 .494.034.683.1s.343.16.46.28c.118.12.205.267.26.44.056.174.084.367.084.58 0 .066-.001.145-.004.233-.002.09-.003.182-.003.277s-.001.188-.003.277a11.341 11.341 0 0 0 .013.848zm-.822-1.1a1.105 1.105 0 0 0-.157-.013h-.137c-.355 0-.626.04-.813.122s-.28.224-.28.423c0 .151.047.267.14.348.093.08.225.12.393.12.116 0 .226-.02.33-.057a.726.726 0 0 0 .274-.176.842.842 0 0 0 .183-.31 1.38 1.38 0 0 0 .067-.457zm3.527-1.934a.933.933 0 0 0-.61.197c-.164.131-.289.31-.377.536h-.013l-.003-.156-.008-.18-.006-.173a1.94 1.94 0 0 0-.01-.144h-.84c.013.143.022.303.027.48.004.179.006.358.006.54v2.413h.906v-1.4c0-.902.297-1.352.894-1.352.112 0 .213.015.307.047l.02-.767a.6.6 0 0 0-.142-.034 1.846 1.846 0 0 0-.151-.007zm3.213.45c.253.3.38.761.38 1.384a2.057 2.057 0 0 1-.013.213h-2.3c.009.267.11.478.303.633.194.156.445.233.756.233a1.875 1.875 0 0 0 1-.28l.013.734c-.145.07-.315.127-.506.167-.19.04-.396.06-.613.06-.28 0-.536-.04-.767-.12a1.602 1.602 0 0 1-.59-.354 1.58 1.58 0 0 1-.376-.57 2.081 2.081 0 0 1-.133-.77c0-.258.04-.496.122-.713a1.605 1.605 0 0 1 .893-.934 1.81 1.81 0 0 1 .705-.133c.497 0 .872.15 1.126.45zm-.44.984c0-.28-.065-.483-.193-.61-.13-.127-.304-.19-.527-.19a.78.78 0 0 0-.524.2c-.153.132-.24.333-.263.6h1.507z"/>
</g></svg>
