<svg viewBox="0 0 32 32" xmlns="http://www.w3.org/2000/svg">
  <rect/>
  <path d="M12.3 15.2q1.5-1.65 1.5-4.8c0-2-.5-3.5-1.5-4.6C11.4 4.6 10 4 8.3 4Q5.6 4 4.1 5.8q-1.5 1.65-1.5 4.8c0 2 .5 3.5 1.5 4.6s2.4 1.7 4.1 1.7 3.1-.6 4.1-1.7M5.6 14c-.6-.8-.9-2-.9-3.4 0-1.5.3-2.8.9-3.6.6-.9 1.5-1.3 2.6-1.3q1.8 0 2.7 1.2c.6.8.9 2 .9 3.5s-.3 2.8-1 3.6c-.6.9-1.5 1.3-2.6 1.3s-2-.4-2.6-1.3m22.9 3.8c-1-1.1-2.3-1.7-4-1.7-1.8 0-3.2.6-4.2 1.7q-1.5 1.65-1.5 4.8c0 2 .5 3.5 1.5 4.7s2.4 1.7 4.1 1.7 3.1-.6 4.1-1.8q1.5-1.8 1.5-4.8c-.1-1.9-.5-3.4-1.5-4.6m-1.6 8.3c-.6.9-1.5 1.3-2.6 1.3s-2-.4-2.6-1.3c-.6-.8-.9-2-.9-3.5q0-2.25.9-3.6c.6-.9 1.5-1.3 2.6-1.3 1.2 0 2 .4 2.7 1.2.6.8.9 2 .9 3.5 0 1.6-.3 2.8-1 3.7m-2.5-23L10 29.4H8.2L22.6 3.1z"/>
</svg>
