<svg viewBox="0 0 32 32" xmlns="http://www.w3.org/2000/svg">
  <rect/>
  <path d="M14.7 28h2.5c3 0 5.6-1.6 7-4h1.9c1.8 0 3.3-1.5 3.3-3.3s-1.5-3.3-3.3-3.3h-.7V16H6.7v3.9c0 4.5 3.6 8.1 8 8.1m11.4-9.3c1.1 0 2 .9 2 2s-.9 2-2 2h-1.2c.3-.9.5-1.8.5-2.7v-1.3zM8 17.3h16v2.6c0 3.7-3 6.7-6.7 6.7h-2.5c-3.7 0-6.7-3-6.7-6.7zm-5.3 12h26.4v1.3H2.7zM15.4 5c.1-.4.3-.9.9-1.2l.7 1.1c-.2.1-.3.3-.3.4-.1.3.1.7.4 1.2l1.2 2c.5.9.6 2 .3 3.2-.4 1.3-1.2 2.3-2.2 2.9l-.6-1.2c.7-.4 1.3-1.2 1.6-2.1.2-.8.2-1.6-.1-2.2l-1.3-2c-.6-.7-.8-1.5-.6-2.1m-1.8 3.3c-1.6-2.7-1-5.5 1.4-6.9l.7 1.2c-2.1 1.2-1.9 3.5-1 5.1l1 1.8c.6 1.4-.1 2.4-.7 2.8l-.6-1.3s.5-.3.2-1z"/>
</svg>
