<svg viewBox="0 0 32 32" xmlns="http://www.w3.org/2000/svg">
  <rect/>
  <path d="M5.5 2.1q.15 0 0 0 .45 0 .6.3l2.8 4.8c.1.3.1.6-.1.8L7.2 9.6l-.7.7.5 1c3.4 5.6 8.2 10.4 13.8 13.8l.9.6.7-.8 1.5-1.5c.1-.1.3-.2.5-.2.1 0 .2 0 .3.1l4.8 2.8c.2.1.3.3.3.5s0 .4-.2.6l-2 2-.8.8C13.9 28.6 3.4 18.1 2.2 5.1l.9-.9 2-2c.1 0 .3-.1.4-.1m0-1.3c-.5 0-1 .2-1.4.6l-2 2L.9 4.6v.1c1 14 12.3 25.4 26.4 26.5h.1l1.3-1.3 2-2c.4-.4.7-1.1.6-1.7s-.4-1.2-1-1.5l-4.8-2.8c-.3-.2-.7-.3-1-.3-.5 0-1 .2-1.4.6l-1.5 1.5c-5.4-3.3-10-7.9-13.4-13.4L9.7 9c.6-.6.8-1.6.3-2.4L7.3 1.8C7 1.2 6.4.9 5.8.8z"/>
</svg>
