<svg xml:space="preserve" viewBox="0 0 32 32" xmlns="http://www.w3.org/2000/svg"><g id="icon">
  <rect/>
  <path fill="currentColor" d="M26.7 5.3V4h-5.3v1.3H10.7V4H5.3v1.3H0v21.3h5.3V28h5.3v-1.3h10.7V28h5.3v-1.3H32V5.3h-5.3zm-5.4 1.4v2.7H10.7V6.7h10.6zm0 14.6H10.7v-2.7h10.7v2.7zm-10.6-4v-2.6h10.7v2.6H10.7zm0-4v-2.6h10.7v2.6H10.7zM1.3 6.7h4v2.7h-4V6.7zm0 4h4v2.6h-4v-2.6zm4 4v2.6h-4v-2.6h4zm0 6.6h-4v-2.7h4v2.7zm-4 4v-2.7h4v2.7h-4zm8 1.4H6.7V5.3h2.7v21.4h-.1zm1.4-1.4v-2.7h10.7v2.7H10.7zm14.6 1.4h-2.7V5.3h2.7v21.4zm1.4-8.1h4v2.7h-4v-2.7zm4 6.7h-4v-2.7h4v2.7zm0-8h-4v-2.6h4v2.6zm0-4h-4v-2.6h4v2.6zm-4-4V6.7h4v2.7h-4z"/>
</g></svg>
