<svg viewBox="0 0 32 32" xmlns="http://www.w3.org/2000/svg">
  <path d="M18.2 8c.9 1.6 2.6 2.7 4.6 2.7 2.9 0 5.3-2.4 5.3-5.3S25.7 0 22.7 0c-2 0-3.7 1.1-4.6 2.7H6.5L3.8 5.3 6.5 8h2l.7.7c.3.3.6.4.9.4s.7-.1.9-.4l.7-.7h.8l.7.7c.3.3.6.4.9.4s.7-.1.9-.4l.7-.7zm-3.5-.9-.7.7-.7-.7-.3-.4h-2l-.4.4-.7.7-.5-.7-.4-.4H7L5.7 5.3 7 4h11.9l.4-.7c.7-1.3 2-2 3.4-2 2.2 0 4 1.8 4 4s-1.8 4-4 4c-1.4 0-2.7-.7-3.4-2l-.4-.7H15zm8 .2c1.1 0 2-.9 2-2s-.9-2-2-2-2 .9-2 2 .9 2 2 2m0-2.6c.4 0 .7.3.7.7s-.3.7-.7.7-.7-.3-.7-.7c0-.5.4-.7.7-.7M11.8 25.2c.6.7.9 1.5.9 2.5 0 .6-.1 1.2-.4 1.8-.2.5-.6 1-1 1.4s-1 .7-1.6.9-1.3.3-2 .3c-.6 0-1.3-.1-1.9-.2s-1.2-.3-1.7-.5l.2-1.5c.6.3 1.2.5 1.7.6s1.1.2 1.6.2c1.1 0 1.9-.3 2.5-.8s1-1.2 1-2.1c0-.4-.1-.7-.2-1s-.3-.6-.5-.8c-.3-.3-.6-.5-1-.8s-.9-.5-1.6-.8S4 22.9 4 20c0-.6.1-1.1.3-1.6s.5-.9 1-1.3c.4-.4.9-.6 1.5-.8s1.2-.3 2-.3c1.2 0 2.2.2 3.2.6l-.2 1.4c-.9-.4-1.9-.6-2.9-.6-.5 0-.9.1-1.3.2s-.7.3-1 .5-.5.5-.7.8-.2.7-.2 1.1c0 .3.1.6.2.9s.3.5.6.8.6.5 1 .8.9.5 1.6.8c1.1.6 2.1 1.2 2.7 1.9m6.5.2 6.3 6.3h-2s-5.4-5.7-5.6-6v6h-1.4V15H17v10.2c.2-.2 5.2-4.7 5.2-4.7h2zm7.9-9.2h1.7V18h-1.7zm.2 4.3h1.4v11.2h-1.4z"/>
</svg>
