<svg viewBox="0 0 32 32" xmlns="http://www.w3.org/2000/svg">
  <rect/>
  <path d="M3.3 8.7C4.8 8.7 6 7.5 6 6S4.8 3.3 3.3 3.3.7 4.5.7 6s1.2 2.7 2.6 2.7m0-4c.7 0 1.3.6 1.3 1.3s-.5 1.3-1.3 1.3S2 6.7 2 6s.6-1.3 1.3-1.3M22 14.6c3.3 0 6-2.7 6-6s-2.7-6-6-6-6 2.7-6 6 2.7 6 6 6M22 4c2.6 0 4.6 2.1 4.6 4.6s-2.1 4.6-4.6 4.6-4.6-2.1-4.6-4.6S19.4 4 22 4m4.7 18.7H24v-1.4c0-.7-.6-1.3-1.3-1.3H20c-.7 0-1.3.6-1.3 1.3v1.4H16c-.7 0-1.3.6-1.3 1.3v6.7c0 .7.6 1.3 1.3 1.3h10.8c.7 0 1.3-.6 1.3-1.3V24c-.1-.8-.6-1.3-1.4-1.3M20 21.3h2.7v1.3H20zm-4 9.4V24h10.7v6.7zm6-20.4L19.7 8l.9-1L22 8.4 24.4 6l.9 1zM9.7 20l.4-1.5-3.4-.9v-4.3c0-1.9-1.5-3.4-3.4-3.4S0 11.5 0 13.4V24h8v8h4v-8.6c.1-1.8-.6-3-2.3-3.4m-6.3-8.7c1.1 0 2 .9 2 2v3.9L4 16.9V14H2.7v3.9l3.1.9.6.2 2.1.6c-.1.4-.2.7-.4.8-.6.4-1.6.1-2 0L1.3 19v-5.6c0-1.2.9-2.1 2.1-2.1m7.3 19.4H9.3v-8h-8v-2.3l4.3 1.2c.1 0 .8.3 1.6.3.5 0 1.1-.1 1.6-.5.1 0 .1-.1.2-.2l.4.1c.7.1 1.3.4 1.2 2v7.4z"/>
</svg>
