<svg viewBox="0 0 32 32" xmlns="http://www.w3.org/2000/svg">
  <rect/>
  <path d="M6.4 13.9c-.4 1.5.4 3 1.9 3.4h.1-5.1c-.5 0-1 .2-1.4.5-.4.4-.6.9-.6 1.4 0 .3 0 .5.1.7C.6 20.3 0 21.1 0 22s.6 1.7 1.5 1.9c-.1.2-.1.5-.1.7 0 .9.6 1.7 1.5 1.9-.1.2-.1.5-.1.7 0 1.1.9 2 2 2h16.6V24h-1.5c-.6 0-1.2-.6-1.2-1.2v-.2c0-.7.5-1.2 1.2-1.2h1.5v-4.8L6.7 12.7zm1.3.4L20 17.6V20h-.2c-1.4 0-2.5 1.2-2.5 2.6v.2c0 1.4 1.1 2.6 2.5 2.6h.2V28H4.7c-.4 0-.7-.3-.7-.7s.3-.7.7-.7h4.6v-1.3h-6c-.4 0-.7-.3-.7-.7s.4-.6.7-.6H10v-1.3H2c-.4 0-.7-.3-.7-.7s.3-.7.7-.7h8.7V20H3.2c-.3-.1-.5-.3-.5-.7 0-.2.1-.3.2-.5.1-.1.3-.2.5-.2h9.8l.7-.1v-1.2L8.7 16c-.7-.2-1.2-.9-1-1.7m20.3-5h1.4c1.5 0 2.7-1.2 2.7-2.7S30.8 4 29.4 4H28v1.3h1.4c.7 0 1.3.6 1.3 1.3S30.1 8 29.4 8h-8V2.4L0 8.7l21.3 6.4V9.3h5.3V13l-4 4v12.3H32V17.1l-4-4zm-8 4L4.7 8.7 20 4.2zM30.6 28H24V17.6l3.3-3.4 3.3 3.4zm-5.2-9.5c.7-.2 1.3-.3 1.9-.3.7 0 1.3.1 1.7.4s.6.7.6 1.3c0 .1 0 .3-.1.4 0 .1-.1.3-.2.4s-.2.3-.3.4c-.1.2-.3.3-.5.5s-.3.4-.4.5-.2.3-.2.4-.1.2-.1.3v.3h-1.2v-.6c0-.1.1-.3.1-.4.1-.1.1-.3.2-.4s.2-.3.4-.5c.2-.3.4-.5.5-.7s.2-.4.2-.6c0-.3-.1-.5-.3-.7-.2-.1-.5-.2-.8-.2s-.5 0-.8.1-.5.2-.8.3zm1.3 5.5h1.4v1.3h-1.4z"/>
</svg>
