<svg xml:space="preserve" viewBox="0 0 32 32" xmlns="http://www.w3.org/2000/svg"><g id="icon">
  <path d="M0 0z"/>
  <path fill="currentColor" d="m30.7 21.6-4.4-4.4H8V15L4 0 0 14.8V32h30.6l.1-10.4zM12 30.7H9.3v-4c0-.7.6-1.3 1.3-1.3s1.3.6 1.3 1.3l.1 4zm6.7 0H16v-4c0-.7.6-1.3 1.3-1.3s1.3.6 1.3 1.3v4h.1zm6.6 0h-2.7v-4c0-.7.6-1.3 1.3-1.3s1.3.6 1.3 1.3v4h.1zm1.4 0v-4c0-1.5-1.2-2.7-2.7-2.7s-2.7 1.2-2.7 2.7v4H20v-4c0-1.5-1.2-2.7-2.7-2.7s-2.7 1.2-2.7 2.7v4h-1.3v-4c0-1.5-1.2-2.7-2.7-2.7S8 25.2 8 26.7v4H1.3V15L4 5.2l2.7 10V18.6h19l2.8 2.8H6.7v1.3h22.7v8h-2.7z"/>
</g></svg>
