<svg viewBox="0 0 32 32" xmlns="http://www.w3.org/2000/svg"><g id="icon">
  <path d="M24.667 22.667h-1.2C26.134 20.4 28 17.067 28 13.334c0-6.667-5.333-12-12-12s-12 5.333-12 12c0 3.733 1.733 7.067 4.533 9.333h-1.2c-1.067 0-2 .933-2 2v4c0 1.067.933 2 2 2h17.333c1.067 0 2-.933 2-2v-4c0-1.067-.933-2-2-2zM5.333 13.333c0-5.867 4.8-10.667 10.667-10.667s10.667 4.8 10.667 10.667S21.867 24 16 24 5.333 19.2 5.333 13.333zm20 15.334c0 .4-.267.667-.667.667H7.333c-.4 0-.667-.267-.667-.667v-4c0-.4.267-.667.667-.667h3.2c1.6.8 3.467 1.333 5.467 1.333S19.867 24.8 21.467 24h3.2c.4 0 .667.267.667.667v4z"/>
  <path d="M22.667 13.333c0-3.733-2.933-6.667-6.667-6.667s-6.667 2.933-6.667 6.667C9.333 17.066 12.266 20 16 20s6.667-2.933 6.667-6.667zm-12 0C10.667 10.4 13.067 8 16 8s5.333 2.4 5.333 5.333c0 2.933-2.4 5.333-5.333 5.333s-5.333-2.4-5.333-5.333z"/>
  <path d="M18.667 13.333c0 .4.267.667.667.667s.667-.267.667-.667c0-2.267-1.733-4-4-4-.4 0-.667.267-.667.667s.267.667.667.667c1.467 0 2.667 1.2 2.667 2.667z"/>
</g></svg>
