<svg viewBox="0 0 32 32" xmlns="http://www.w3.org/2000/svg">
  <path d="M24.67 22.67h-1.2c2.66-2.27 4.53-5.6 4.53-9.34 0-6.67-5.33-12-12-12s-12 5.33-12 12c0 3.73 1.73 7.07 4.53 9.33h-1.2c-1.07 0-2 .93-2 2v4c0 1.07.93 2 2 2h17.33c1.07 0 2-.93 2-2v-4c0-1.07-.93-2-2-2zM5.33 13.33c0-5.87 4.8-10.67 10.67-10.67s10.67 4.8 10.67 10.67S21.87 24 16 24 5.33 19.2 5.33 13.33m20 15.33c0 .4-.27.67-.67.67H7.33c-.4 0-.67-.27-.67-.67v-4c0-.4.27-.67.67-.67h3.2c1.6.8 3.47 1.33 5.47 1.33s3.87-.52 5.47-1.32h3.2c.4 0 .67.27.67.67zm-2.66-15.33c0-3.73-2.93-6.67-6.67-6.67s-6.67 2.93-6.67 6.67S12.27 20 16 20s6.67-2.93 6.67-6.67m-12 0C10.67 10.4 13.07 8 16 8s5.33 2.4 5.33 5.33-2.4 5.33-5.33 5.33-5.33-2.4-5.33-5.33m8 0c0 .4.27.67.67.67s.67-.27.67-.67c0-2.27-1.73-4-4-4-.4 0-.67.27-.67.67s.27.67.67.67c1.47 0 2.67 1.2 2.67 2.67z"/>
</svg>
