<svg viewBox="0 0 32 32" xmlns="http://www.w3.org/2000/svg">
  <path d="M22.8 0H9.2C7.87 0 6.67 1.2 6.67 2.53v26.8C6.67 30.8 7.87 32 9.2 32h13.47c1.47 0 2.53-1.2 2.53-2.53V2.53C25.33 1.2 24.13 0 22.8 0M24 29.47c0 .67-.53 1.2-1.2 1.2H9.2c-.67 0-1.2-.53-1.2-1.2v-2.8h16zm0-4.13H8V2.54c0-.67.53-1.2 1.2-1.2h13.47c.8 0 1.33.53 1.33 1.2zM14.67 28h2.67v1.33h-2.67zM16 6.67c-3.73 0-6.67 2.93-6.67 6.67s2.93 6.67 6.67 6.67 6.67-2.93 6.67-6.67S19.73 6.67 16 6.67m0 12c-2.93 0-5.33-2.4-5.33-5.33s2.4-5.33 5.33-5.33 5.33 2.4 5.33 5.33-2.4 5.33-5.33 5.33m-2.67-1.47L20 13.33l-6.67-3.87v7.73zm1.33-5.47 2.67 1.6-2.67 1.6z"/>
</svg>
