<svg viewBox="0 0 32 32" xmlns="http://www.w3.org/2000/svg"><g id="icon">
  <path d="M13.333 16h-8v-5.333h8zm-6.666-1.333H12V12H6.667z"/>
  <path d="M20.667 25.333H3.334c-1.067 0-2-.933-2-2V8.666c0-1.067.933-2 2-2h17.333c1.067 0 2 .933 2 2v2.933l5.2-2.133c.667-.267 1.333-.133 1.867.133.667.4.933 1.067.933 1.733v9.333c0 .667-.267 1.333-.933 1.6-.533.4-1.2.4-1.867.133l-5.2-2.133v2.933c0 1.2-.933 2.133-2 2.133zM3.333 8c-.4 0-.667.267-.667.667v14.667c0 .4.267.667.667.667h17.333c.4 0 .667-.267.667-.667v-5.067L28.4 21.2c.267.133.4 0 .667 0 .133-.133.267-.267.267-.533v-9.333c0-.267-.133-.4-.267-.533-.267-.133-.4-.133-.667-.133l-7.067 2.933V8.668c0-.4-.267-.667-.667-.667z"/>
</g></svg>
