<svg viewBox="0 0 32 32" xmlns="http://www.w3.org/2000/svg">
  <path d="M13.33 16h-8v-5.33h8zm-6.67-1.33H12V12H6.67zm14.01 10.66H3.33c-1.07 0-2-.93-2-2V8.67c0-1.07.93-2 2-2h17.33c1.07 0 2 .93 2 2v2.93l5.2-2.13c.67-.27 1.33-.13 1.87.13.67.4.93 1.07.93 1.73v9.33c0 .67-.27 1.33-.93 1.6-.53.4-1.2.4-1.87.13l-5.2-2.13v2.93c0 1.2-.93 2.13-2 2.13zM3.33 8c-.4 0-.67.27-.67.67v14.67c0 .4.27.67.67.67h17.33c.4 0 .67-.27.67-.67v-5.07l7.07 2.93c.27.13.4 0 .67 0 .13-.13.27-.27.27-.53v-9.33c0-.27-.13-.4-.27-.53-.27-.13-.4-.13-.67-.13l-7.07 2.93V8.67c0-.4-.27-.67-.67-.67z"/>
</svg>
