<svg viewBox="0 0 32 32" xmlns="http://www.w3.org/2000/svg">
  <path d="M5.3 16h12v-5.3h-12zm1.4-4H16v2.7H6.7zm24.7 3.6-8.1-8.3c-.2-.2-.4-.3-.6-.4-.3-.1-.6-.2-.9-.2H0V24h4.1c.3 1.5 1.7 2.7 3.3 2.7s3-1.1 3.3-2.7h10.8c.3 1.5 1.7 2.7 3.3 2.7s3-1.1 3.3-2.7H28h2c1.2 0 2-1.1 2-2.3V17c0-.5-.2-1-.6-1.4m-8.7-7 6 6.1h-6zM7.3 25.3c-1.1 0-2-.9-2-2s.9-2 2-2 2 .9 2 2-.9 2-2 2m17.4 0c-1.1 0-2-.9-2-2s.9-2 2-2 2 .9 2 2-.9 2-2 2m5.8-3.8c0 .4-.2 1-.6 1h-2c-.4-1.5-1.7-2.6-3.2-2.6-1.6 0-2.9 1.1-3.2 2.6H10.6c-.4-1.4-1.7-2.5-3.3-2.5s-2.9 1.1-3.2 2.6H1.3V8h20v8h8.6s.7.2.7 1.1z"/>
</svg>
