<svg viewBox="0 0 32 32" xmlns="http://www.w3.org/2000/svg">
  <path d="M30.533 17.467 28.4 9.6c-.267-1.2-1.2-2-2.4-2.4L13.333 3.733v17.6H12V2.666H0v1.333h10.667v17.333H0v1.333h13.333v2.667H0v1.333h16.133c.533 2.267 2.667 4 5.2 4s4.533-1.733 5.2-4h2.133c1.067 0 2-.933 2-2v-6.267c0-.4 0-.667-.133-.933zm-3.333-7.6L28.8 16h-6.133V7.733l3.067.8c.667.133 1.2.667 1.467 1.333zm-5.867 19.466c-2.267 0-4-1.733-4-4s1.733-4 4-4 4 1.733 4 4-1.733 4-4 4m8-4.666c0 .4-.267.667-.667.667h-2c0-2.933-2.4-5.333-5.333-5.333S16 22.401 16 25.334h-1.333V5.601l6.667 1.733v10h7.733l.133.533c0 .133.133.4.133.533z"/>
</svg>
