<svg viewBox="0 0 32 32" xmlns="http://www.w3.org/2000/svg">
  <path d="M30.4 15.5c-.6-.6-1.5-1-2.4-1h-2.4l-5.4-5.4V6.6c0-.9-.4-1.8-1-2.4l-.6-.6c-.7-.7-1.5-1-2.4-1s-1.7.3-2.4 1l-.5.5L16 6.8c-.1.5-.5.9-1 1l-2.7-2.7-.5.5c-.6.6-1 1.5-1 2.4s.4 1.8 1 2.4l.6.6c.6.6 1.5 1 2.4 1h2.4l5.4 5.4v2.4c0 .9.4 1.8 1 2.4l.6.6c.7.7 1.5 1 2.4 1s1.7-.3 2.4-1l.5-.5-2.7-2.7c.1-.5.5-.9 1-1l2.7 2.7.5-.5c.6-.6 1-1.5 1-2.4s-.4-1.8-1-2.4zm.1 3.9-1.6-1.6-.5-.5-.7.1c-1 .2-1.8 1-2 2l-.1.7.5.5 1.6 1.6c-.3.1-.6.2-.9.2-.5 0-1.1-.2-1.5-.6l-.6-.6q-.6-.6-.6-1.5v-3l-.4-.4-5.5-5.3-.4-.4h-3c-.5 0-1.1-.2-1.5-.6l-.6-.6q-.6-.6-.6-1.5c0-.3.1-.6.2-.9L14 8.6l.5.5.7-.1c1-.2 1.8-1 2-2l.1-.7-.5-.5-1.6-1.6c.3-.1.6-.2.9-.2.5 0 1.1.2 1.5.6l.6.6q.6.6.6 1.5v3l.4.4 5.4 5.4.4.4h3c.5 0 1.1.2 1.5.6l.6.6q.6.6.6 1.5c0 .2-.1.5-.2.8m-18.6 3.3v2h-1.3V24H8v.7H6.7v-2zm5.2-3.8-.6-3c-.3-1.5-1.6-2.6-3.1-2.6H5.3c-1.5 0-2.8 1.1-3.1 2.6l-.6 3c-1 .4-1.6 1.3-1.6 2.4V32h4.1v-2.7h10.6V32h4V21.3c0-1.1-.7-2-1.6-2.4M3.5 16.1c.2-.9.9-1.5 1.8-1.5h8.1c.9 0 1.7.6 1.8 1.5l.5 2.5H3zm-2.2 6.6h.8c.3 0 .6.2.6.6v1.5c0 .3-.3.6-.6.6h-.8zm1.4 8H1.3V29c.4.2.9.4 1.4.4zm0-2.7c-.7 0-1.3-.6-1.4-1.3h.8c1 0 1.9-.8 1.9-1.9v-1.5c0-1-.8-1.9-1.9-1.9h-.8c0-.7.5-1.2 1.1-1.3h13.8c.6.1 1.1.7 1.1 1.3h-.8c-1 0-1.9.8-1.9 1.9v1.5c0 1 .8 1.9 1.9 1.9h.8c0 .7-.6 1.3-1.4 1.3zm14.6-5.3v2.7h-.8c-.3 0-.6-.2-.6-.6v-1.5c0-.3.3-.6.6-.6zm.1 6.2v1.8H16v-1.3c.5-.1 1-.2 1.4-.5M32 4.5v1.4L16 1.4 0 5.9V4.5L16 0z"/>
</svg>
