<svg viewBox="0 0 32 32" xmlns="http://www.w3.org/2000/svg">
  <path d="M.4 27.3H19L9.4 11.5zm16.3-1.4h-14l6.8-11.8zM30.2 5.6l-.6-3C29.3 1.1 27.9 0 26.3 0h-8.6c-1.6 0-3 1.1-3.3 2.6l-.6 3C12.7 5.9 12 6.9 12 8l-.8-1.4c-.4-.7-1.1-1-1.8-1S8 6 7.6 6.7L0 20.2V23L8.7 7.2c.2-.4.5-.4.7-.4.1 0 .5 0 .7.4l13 22.3c.2.3.1.7 0 .8s-.3.4-.7.4H0V32h22.4c1.6 0 2.6-1.8 1.8-3.2L16.7 16h10.9v2.7H32V8.1c0-1.1-.8-2.1-1.8-2.5M15.6 2.8c.2-.8 1-1.5 2-1.5h8.6c1 0 1.9.6 2 1.5l.5 2.5H15.1zm-1.2 9.3-1-1.8v-.9h1c.3 0 .6.3.6.6v1.5c0 .3-.2.6-.6.6m1.5 2.6-.9-1.6.1.1c.7-.3 1.2-1 1.2-1.8V10c0-1-.8-1.9-1.9-1.9h-1c0-.7.5-1.2 1.1-1.3h15c.6.1 1.1.7 1.1 1.3h-1c-1 0-1.9.8-1.9 1.9v1.5c0 1 .8 1.9 1.9 1.9h1c0 .7-.6 1.3-1.4 1.3zm14.7-2.6h-1c-.4 0-.6-.3-.6-.6V10c0-.3.3-.6.6-.6h1zM29 17.4v-1.3h.2c.5 0 1-.2 1.4-.4v1.7zm-9.6-8.1h5.3v2h-1.4v-.6h-2.6v.7h-1.3z"/>
</svg>
