<svg viewBox="0 0 32 32" xmlns="http://www.w3.org/2000/svg">
  <rect/>
  <path d="M30.3 20.3s-7.1-2.2-7.5-2.5l-3.4-2.9c-.4-.3-.9-.5-1.5-.5h-3V4.3q0-.3.3-.3h9v.6c0 1.2.9 2.1 2.1 2.1h3.2V5.3H32V4h-2.7V2.7H32V1.3h-2.7V0h-3.2C24.9 0 24 .9 24 2.1v.5h-9c-.9 0-1.7.7-1.7 1.7v10.3H5.5c-.6 0-1.1.2-1.5.5L.6 17.9c-.4.3-.6.8-.6 1.2v7c0 1 1 1.7 2.2 1.7h.6c.3 1.5 1.7 2.7 3.3 2.7s2.9-1.1 3.3-2.7h12.1c.3 1.5 1.7 2.7 3.3 2.7s2.9-1.1 3.3-2.7h2c1.2 0 1.9-.8 1.9-1.7v-1.7c0-1.6.2-3.3-1.7-4.1m-5-18.2c0-.4.4-.8.8-.8H28v4h-1.9c-.4 0-.8-.4-.8-.8zM10.6 15.9h7c.3 0 .6.1.7.2l2.7 2.3-1.5 1.5h-8.9zm-5.7.2c.1-.1.3-.2.6-.2h3.8v4h-5l-2.4-1.2zM6 29.2c-1.1 0-2-.9-2-2s.9-2 2-2 2 .9 2 2-.9 2-2 2m18.6 0c-1.1 0-2-.9-2-2s.9-2 2-2 2 .9 2 2-.9 2-2 2m6-4.8v1.7c0 .1-.3.4-.8.4h-2c-.3-1.5-1.6-2.7-3.3-2.7-1.6 0-3 1.1-3.3 2.7H9.3C9 25.1 7.6 23.9 6 23.9S3 25 2.7 26.6h-.6c-.5 0-.9-.3-.9-.4v-6.3L4 21.2h16.1l2-2c.6.3 7.6 2.5 7.6 2.5s.9.1.9 1.8z"/>
</svg>
