<svg viewBox="0 0 32 32" xmlns="http://www.w3.org/2000/svg">
  <path d="M29.8 10.7 28.2 5c-.5-2.2-1.6-3.7-4.2-3.7H8C5.4 1.3 4.2 2.9 3.7 5l-1.6 6L0 14.4V32h7v-5.3h18V32h7V14.4zM5 5.3c.4-1.9 1.3-2.7 3-2.7h16c1.7 0 2.4.7 2.9 2.7l1.3 4.6H3.7zm-3.7 12H4v4.6H1.3zm4.3 13.4H1.3v-4.4c.4.2.9.4 1.4.4h2.9zm20.8 0v-4h2.9c.5 0 1-.1 1.4-.4v4.4zm4.3-8.8H28v-4.6h2.7zM28 16c-.7 0-1.3.6-1.3 1.3v4.6c0 .7.6 1.3 1.3 1.3h2.7v.9c0 .7-.6 1.2-1.4 1.2H2.7c-.8 0-1.4-.5-1.4-1.2v-.9H4c.7 0 1.3-.6 1.3-1.3v-4.6c0-.7-.6-1.3-1.3-1.3H1.3v-1.2l2.1-3.5h25.3l2 3.4V16zm-8 1.3v3.3h-1.3v-2h-5.3v2H12v-3.3zm-6.7-9.1v1c-.2.1-1.1.1-1.3.1-.4 0-3-.1-3-2.8 0-1.3.7-3.3 3.7-2.8.2 0 .4.1.7.2l-.1 1c-.2-.1-.5-.3-1.2-.3-2 0-1.9 1.6-1.9 1.9 0 2.2 2.2 1.9 2.4 1.9s.5-.1.7-.2m4.2-4.5h1.1v5.6h-1.1V6.9h-2.2v2.4h-1.1V3.7h1.1V6h2.2zm2.2 0h3.1v.9h-2V6h1.9v1h-1.9v2.3h-1.1z"/>
</svg>
