<svg viewBox="0 0 32 32" xmlns="http://www.w3.org/2000/svg">
  <path d="M30.7 24.7V24H28v.7h-1.3v-2H32v2zm-14.4-13-4.9-9v9.9H5.7l5.8 5.8.9-.9L8.9 14h3.7V7.9l3.1 5.6 2.5-1.5-.9 3.8 1.3.3 1.7-6.9zm1 14.2v1.7c0 1-.9 1.7-2.1 1.7h-2c-.3 1.6-1.6 2.7-3.2 2.7s-2.9-1.1-3.3-2.7H0V28h6.7c.3-1.5 1.6-2.7 3.3-2.7 1.6 0 3 1.1 3.3 2.7h2c.5 0 .8-.3.8-.4V25c0-1.2 0-1.6-.8-1.8 0 0-7.2-2.2-7.8-2.5l-2 2H0v-1.3h4.9l1.5-1.5-2.7-2.3c-.2-.1-.4-.2-.6-.2H0V16h3.1c.6 0 1.1.2 1.5.5L8 19.4c.4.3 7.5 2.5 7.5 2.5 2.1.7 1.8 2.4 1.8 4M12 28.7c0-1.1-.9-2-2-2s-2 .9-2 2 .9 2 2 2 2-.9 2-2m11.5-12.6-.5 2.5h9V20h-9.5c-.6.1-1.1.7-1.1 1.3h.8c1 0 1.9.8 1.9 1.9v1.5c0 1-.8 1.9-1.9 1.9h-.8c0 .7.6 1.3 1.4 1.3H32v1.3h-7.9V32H20V21.4c0-1.1.6-2 1.6-2.4l.6-3c.3-1.5 1.6-2.6 3.1-2.6H32v1.3h-6.7c-.8-.1-1.6.5-1.8 1.4m-2.1 12.8v1.7h1.4v-1.3c-.6 0-1-.1-1.4-.4m0-6.2v2.7h.8c.3 0 .6-.3.6-.6v-1.5c0-.3-.3-.6-.6-.6z"/>
</svg>
