<svg viewBox="0 0 32 32" xmlns="http://www.w3.org/2000/svg"><g id="icon">
  <path d="M20.667 22.667C18.134 22.667 16 24.8 16 27.334s2.133 4.667 4.667 4.667 4.667-2.133 4.667-4.667-2.133-4.667-4.667-4.667zm0 8c-1.867 0-3.333-1.467-3.333-3.333s1.467-3.333 3.333-3.333S24 25.468 24 27.334s-1.467 3.333-3.333 3.333zM4 24c-2.267 0-4 1.733-4 4s1.733 4 4 4 4-1.733 4-4-1.733-4-4-4zm0 6.667c-1.467 0-2.667-1.2-2.667-2.667s1.2-2.667 2.667-2.667 2.667 1.2 2.667 2.667-1.2 2.667-2.667 2.667z"/>
  <path d="M22.667 13.333V20h-1.333V0h-4v20.8c-.533.267-.933.533-1.333.933v-4.8l-2-7.467c-.8-3.2-3.733-5.467-7.067-5.467h-5.6v18.667h2.667c2.933 0 5.333 2.4 5.333 5.333v.667h5.333v-1.333c0-3.333 2.667-6 6-6H32v-8h-9.333zm-8 9.867c-.8 1.2-1.333 2.667-1.333 4.133h-2.667c-.4-3.333-3.2-6-6.667-6H2.667v-2.667h7.067l2.667 2.667h2.267V23.2zm0-3.2h-1.733l-2.667-2.667h-7.6v-12h4.267c2.667 0 5.067 1.867 5.733 4.4l1.867 7.2V20zM20 20c-.4 0-.933.133-1.333.267V1.334H20v18.667zm10.667 0H24v-5.333h6.667V20z"/>
</g></svg>
