<svg viewBox="0 0 32 32" xmlns="http://www.w3.org/2000/svg">
  <rect/>
  <path d="M32 2.7V1.3h-2.7V0h-3.2C24.9 0 24 .9 24 2.1v.5h-7.7c-.9 0-1.7.7-1.7 1.7V16h-3.8l-1.6-2.7h1.5c.4 0 .7-.3.7-.7s-.3-.7-.7-.7h-4c-.4.1-.7.4-.7.8s.3.7.7.7h1l2.4 3.9-1.7 3.2c-.9-.3-1.6-.5-2.4-.5-3.3 0-6 2.7-6 6s2.7 6 6 6c3.1 0 5.6-2.3 5.9-5.3h2.2c.3.8 1 1.3 1.9 1.3 1.1 0 2-.9 2-2 0-.5-.2-1-.6-1.4l3.3-6.1 1.6 2.7C20.9 22.3 20 24.1 20 26c0 3.3 2.7 6 6 6s6-2.7 6-6-2.7-6-6-6c-.9 0-1.7.2-2.5.6l-4.2-7.2h4c.4 0 .7.3.7.7s-.3.7-.7.7-.7.3-.7.7.3.7.7.7c1.1 0 2-.9 2-2s-.9-2-2-2h-4c-.5 0-1 .3-1.2.7-.3.4-.2 1 0 1.4l1.1 1.9H16V4.3q0-.3.3-.3H24v.6c0 1.2.9 2.1 2.1 2.1h3.2V5.3H32V4h-2.7V2.7zm-6 18.6c2.6 0 4.7 2.1 4.7 4.7s-2.1 4.7-4.7 4.7-4.7-2.1-4.7-4.7c0-1.5.7-2.7 1.7-3.6l2.4 3.9q.15.3.6.3c.1 0 .2 0 .3-.1.3-.2.4-.6.2-.9l-2.4-4c.7-.1 1.3-.3 1.9-.3m-6.1-4L16.3 24h-.6l-4.1-6.7zm-9.1 1.2 3.7 6.1c-.2.2-.3.4-.4.7h-2.2c-.2-1.8-1.1-3.3-2.5-4.3zm-.2 6.8H7.1l1.7-3.1c.9.8 1.6 1.9 1.8 3.1M6 30.7c-2.6 0-4.7-2.1-4.7-4.7s2.1-4.7 4.7-4.7c.6 0 1.1.1 1.6.3l-2.2 4.1c-.1.2-.1.5 0 .7q.15.3.6.3h4.6c-.3 2.2-2.3 4-4.6 4m10-4c-.4 0-.7-.3-.7-.7s.3-.7.7-.7.7.3.7.7-.3.7-.7.7M28 5.3h-1.9c-.4 0-.8-.4-.8-.8V2.1c0-.4.4-.8.8-.8H28zM1.4 7.7h1.5c.7 0 1.4-.1 2-.2.6-.2 1.1-.4 1.6-.7.4-.3.8-.7 1-1.2.3-.5.4-1 .4-1.7 0-1.3-.4-2.3-1.3-2.9-1-.7-2.2-1-3.7-1H0v13.3h1.3V7.7zm0-6.5h1.4c1.2 0 2.1.2 2.8.6q.9.6.9 2.1c0 1-.3 1.6-.9 2-.7.4-1.6.6-2.8.6H1.4z"/>
</svg>
