<svg viewBox="0 0 32 32" xmlns="http://www.w3.org/2000/svg">
  <path d="M1.3 7.7h1.5c.7 0 1.4-.1 2-.2.6-.2 1.1-.4 1.6-.7.4-.3.8-.7 1-1.2.3-.5.4-1 .4-1.7 0-1.3-.4-2.3-1.3-2.9-.9-.7-2.1-1-3.6-1H0v13.3h1.3zm0-6.5h1.4c1.2 0 2.1.2 2.8.6q.9.6.9 2.1c0 1.5-.3 1.6-.9 2s-1.5.6-2.7.6H1.3zM18.1 20c0 .4-.3.7-.7.7h-3.3c-.4 0-.7-.3-.7-.7s.3-.7.7-.7h3.3c.4 0 .7.3.7.7m0 1.9c0 .4-.3.7-.7.7h-2.7c-.4 0-.7-.3-.7-.7s.3-.7.7-.7h2.7c.4 0 .7.3.7.7m14-19.2V1.3h-2.7V0h-3.2c-1.2 0-2.1.9-2.1 2.1v.5h-7.7c-.9 0-1.7.7-1.7 1.7v12.1c-.2.4-.4.7-.5.9h-1.5v-.7h.7c.4 0 .7-.3.7-.7s-.3-.7-.7-.7h-3.3l-.8-1.1c-.2-.1-.6-.2-.9 0s-.4.6-.1.9l1 1.3c.1.2.3.3.5.3h1.7v.8c-.5.2-.8.5-1.1 1-1.3-.7-2.8-1.1-4.3-1.1-2.1 0-4.1.8-5.7 2.2-.3.2-.3.7-.1.9.2.3.7.3.9.1 1.3-1.2 3.1-1.8 4.8-1.8 3.3 0 6.1 2.2 7 5.3h-1.4c-.8-2.3-3-4-5.6-4-3.3 0-6 2.7-6 6s2.7 6 6 6c2.6 0 4.8-1.7 5.6-4h5c1.1 0 2-.9 2-2 0-3.2 2-5.9 4.8-6.9.1.4.2.9.3 1.3-2.2.9-3.8 3-3.8 5.6 0 3.3 2.7 6 6 6s6-2.7 6-6-2.7-6-6-6c-.3 0-.6 0-.9.1-.1-.4-.2-.9-.3-1.3.4-.1.8-.1 1.2-.1 1.8 0 3.5.7 4.9 1.8.3.2.7.2.9-.1s.2-.7-.1-.9c-1.6-1.4-3.6-2.2-5.7-2.2-.5 0-.9 0-1.4.1l-.1-1.1q.45.3 1.2.3c1.3 0 1.3-4.7 0-4.7-1 0-1.8.6-2.2 1.5-.4-1.6-.7-2.8-.9-3.2-.9-1.8-4.2-.6-4.8-.3l.5 1.2c1.3-.5 2.9-.8 3.2-.3.1.3.4 1.2.7 2.4h-3c-1.3 0-2.3.6-3 1.3V4.3q0-.3.3-.3h7.7v.6c0 1.2.9 2.1 2.1 2.1h3.2V5.3h2.7V4h-2.7V2.7zm-6 18.6c2.6 0 4.7 2.1 4.7 4.7s-2.1 4.7-4.7 4.7-4.7-2.1-4.7-4.7c0-1.9 1.1-3.5 2.8-4.2q.3 1.5.6 2.7c-.4.4-.7.9-.7 1.5 0 1.1.9 2 2 2s2-.9 2-2-.9-2-2-2c-.1-.6-.3-1.5-.6-2.6.2 0 .4-.1.6-.1m.7 4.7c0 .4-.3.7-.7.7s-.7-.3-.7-.7.3-.7.7-.7.7.3.7.7M6.1 30.7c-2.6 0-4.7-2.1-4.7-4.7s2.1-4.7 4.7-4.7c1.9 0 3.4 1.1 4.2 2.7H6.1c-1.1 0-2 .9-2 2s.9 2 2 2h4.2c-.8 1.6-2.3 2.7-4.2 2.7m4.7-4.7c0 .2 0 .4-.1.7H8c.1-.2.1-.5.1-.7s0-.5-.1-.7h2.7c0 .3.1.5.1.7m-5.4 0c0-.4.3-.7.7-.7s.7.3.7.7-.3.7-.7.7-.7-.3-.7-.7m11.4.7h-4.7c0-.2.1-.4.1-.7s0-.4-.1-.7h4.7c.4 0 .7.3.7.7-.1.4-.4.7-.7.7m.8-2.5c-.2-.1-.5-.2-.8-.2h-2.3c-.5-1.9-1.5-3.6-3-4.8.1-.3.4-.6.7-.6h6.4c.4 0 .8.4.8.8v1c-.8 1.1-1.5 2.4-1.8 3.8m7.8-10.8c.1.5.1 1.3 0 1.8-.3-.2-.6-.5-.6-.9q0-.6.6-.9m-6.3 1.3h3.1c.1 0 .2 0 .3.1.2.9.5 1.9.7 2.9L20.7 19c-.2-.9-1.1-1.6-2.1-1.6h-2.9c.6-1.1 1.7-2.7 3.4-2.7m9-9.4h-1.9c-.4 0-.8-.4-.8-.8V2.1c0-.4.4-.8.8-.8h1.9z"/>
</svg>
