<svg viewBox="0 0 32 32" xmlns="http://www.w3.org/2000/svg"><g id="icon">
  <path d="M16 0C10.133 0 5.333 4.8 5.333 10.667c0 1.867.533 3.6 1.467 5.333L16 32l9.2-16c.933-1.6 1.467-3.467 1.467-5.333C26.667 4.8 21.867 0 16 0zm8 15.333-8 14-8.133-14a9.73 9.73 0 0 1-1.2-4.667c0-5.2 4.133-9.333 9.333-9.333s9.333 4.133 9.333 9.333c0 1.6-.4 3.2-1.333 4.667z"/>
  <path d="M16 6.667c-2.267 0-4 1.733-4 4s1.733 4 4 4 4-1.733 4-4-1.733-4-4-4zm0 6.666c-1.467 0-2.667-1.2-2.667-2.667s1.2-2.667 2.667-2.667c1.467 0 2.667 1.2 2.667 2.667s-1.2 2.667-2.667 2.667z"/>
</g></svg>
