<svg xml:space="preserve" viewBox="0 0 32 32" xmlns="http://www.w3.org/2000/svg"><g id="icon">
  <path fill="currentColor" d="M32.001 7.972c0-4.396-3.578-7.96-7.992-7.96-4.413 0-7.991 3.564-7.991 7.96 0 1.554.472 2.985 1.245 4.209a10.006 10.006 0 0 0-2.879 1.098C13.53 10.19 10.72 7.91 7.348 7.91c-4.05 0-7.334 3.27-7.334 7.305s3.283 7.306 7.334 7.306c.686 0 1.336-.125 1.965-.302.128 5.424 4.573 9.784 10.05 9.784 5.557 0 10.061-4.487 10.061-10.022 0-2.54-.956-4.854-2.52-6.62C29.88 14.204 32 11.347 32 7.972zM1.346 15.216c0-3.296 2.692-5.978 6.002-5.978 2.914 0 5.301 2.095 5.838 4.843a9.99 9.99 0 0 0-3.812 6.738 5.773 5.773 0 0 1-2.026.376c-3.31 0-6.002-2.682-6.002-5.979zm18.017 15.461c-4.814 0-8.73-3.9-8.73-8.695s3.916-8.696 8.73-8.696c4.813 0 8.73 3.9 8.73 8.696s-3.917 8.695-8.73 8.695zm6.465-16.37a10.04 10.04 0 0 0-6.465-2.348c-.205 0-.404.018-.606.03-.866-1.118-1.407-2.498-1.407-4.017 0-3.658 2.987-6.633 6.66-6.633 3.671 0 6.659 2.975 6.659 6.633 0 3.025-2.057 5.542-4.841 6.334zM7.946 12.14v6.484H6.622v-3.391c0-.136 0-.29.004-.46a1350.385 1350.385 0 0 1 .019-.97c.003-.143.008-.257.014-.344H6.64a5.784 5.784 0 0 1-.326.293c-.143.12-.299.25-.466.385l-.336.269-.643-.873L6.76 12.14h1.185zm17.1-2.614h1.09v1.013h-4.438V9.46c.522-.42.968-.797 1.337-1.128.371-.331.674-.633.91-.906a3.33 3.33 0 0 0 .517-.761c.11-.235.164-.47.164-.706 0-.173-.03-.324-.09-.45a.81.81 0 0 0-.245-.312c-.107-.08-.23-.139-.374-.177a1.821 1.821 0 0 0-.456-.055c-.492 0-.993.145-1.501.436l-.132-1.077c.262-.124.56-.218.895-.283a5.503 5.503 0 0 1 1.045-.098c.298 0 .582.039.853.117.27.077.509.193.713.348.205.154.367.35.485.585s.177.51.177.826c0 .205-.026.406-.08.604-.051.198-.139.404-.26.618-.122.213-.284.44-.49.678a9.94 9.94 0 0 1-.754.775c-.28.26-.523.47-.728.628-.205.157-.395.295-.57.413v.018c.3-.012.622-.02.971-.023.347-.003.667-.005.96-.005zm-3.568 12.6c.108.252.163.532.163.841 0 .347-.064.658-.191.933a2.001 2.001 0 0 1-.54.706c-.234.196-.518.346-.854.451s-.708.158-1.118.158a5.934 5.934 0 0 1-1.501-.195l.018-1.097c.447.194.908.29 1.38.29.447 0 .81-.099 1.086-.293.276-.196.415-.485.415-.869 0-.396-.135-.69-.406-.882-.27-.192-.654-.289-1.15-.289-.412 0-.837.071-1.278.214l.046-3.474h3.86v.976h-2.723l-.037 1.421c.136-.031.256-.05.359-.056.102-.006.222-.009.359-.009.335 0 .644.046.923.139.28.093.52.227.722.399.203.174.358.386.467.636z"/>
</g></svg>
