<svg viewBox="0 0 32 32" xmlns="http://www.w3.org/2000/svg">
  <path d="M28 8.4V5.733L22.933 0h-13.6v8.4l-4 4v3.733C2.266 16.533 0 18.133 0 20v8c0 2.267 3.2 4 7.333 4 3.2 0 5.867-1.067 6.933-2.667h17.733V12.4zm0 1.867 2.4 2.4-2.4 2.4zm-5.333-8.534 3.2 3.6h-3.2zM9.333 10.267v4.8l-2.4-2.4zM6.667 16v-1.733L8.4 16zm6.666 12c0 1.2-2.4 2.667-6 2.667s-6-1.467-6-2.667v-.4c1.333 1.067 3.467 1.733 6 1.733s4.667-.667 6-1.733zm0-2.667c0 1.2-2.4 2.667-6 2.667s-6-1.467-6-2.667v-.4c1.333 1.067 3.467 1.733 6 1.733s4.667-.667 6-1.733zm0-2.666c0 1.2-2.4 2.667-6 2.667s-6-1.467-6-2.667v-.4C2.666 23.334 4.8 24 7.333 24s4.667-.667 6-1.733zm-6 0c-3.6 0-6-1.467-6-2.667s2.4-2.667 6-2.667 6 1.467 6 2.667-2.4 2.667-6 2.667M10.8 16.4l-.133-15.067h10.667v5.333h5.333v9.733l-3.6 3.6h-8.4c0-1.6-1.6-2.933-3.867-3.6zM30.667 28h-16v-6.667H23.6l7.067-7.067v13.733z"/>
</svg>
