<svg viewBox="0 0 32 32" xmlns="http://www.w3.org/2000/svg"><g id="icon">
  <path d="M29.867 3.2 28.8 2.133l-9.467 9.6-4.8-4.933-1.067 1.067 5.867 5.733zM7.333 13.333c-4.133 0-7.333 1.733-7.333 4V28c0 2.267 3.2 4 7.333 4s7.333-1.733 7.333-4V17.333c0-2.267-3.2-4-7.333-4m6 14.667c0 1.2-2.4 2.667-6 2.667s-6-1.467-6-2.667v-.4c1.333 1.067 3.467 1.733 6 1.733s4.667-.667 6-1.733zm0-2.667c0 1.2-2.4 2.667-6 2.667s-6-1.467-6-2.667v-.4c1.333 1.067 3.467 1.733 6 1.733s4.667-.667 6-1.733zm0-2.666c0 1.2-2.4 2.667-6 2.667s-6-1.467-6-2.667v-.4C2.666 23.334 4.8 24 7.333 24s4.667-.667 6-1.733zm0-2.667c0 1.2-2.4 2.667-6 2.667s-6-1.467-6-2.667v-.4c1.333 1.067 3.467 1.733 6 1.733s4.667-.667 6-1.733zm-6 0c-3.6 0-6-1.467-6-2.667s2.4-2.667 6-2.667 6 1.467 6 2.667c0 1.2-2.4 2.667-6 2.667m17.334 1.333c-4.133 0-7.333 1.733-7.333 4V28c0 2.267 3.2 4 7.333 4S32 30.267 32 28v-2.667c0-2.267-3.2-4-7.333-4m6 6.667c0 1.2-2.4 2.667-6 2.667s-6-1.467-6-2.667v-.4c1.333 1.067 3.467 1.733 6 1.733s4.667-.667 6-1.733zm-6 0c-3.6 0-6-1.467-6-2.667s2.4-2.667 6-2.667 6 1.467 6 2.667-2.4 2.667-6 2.667"/>
</g></svg>
