<svg viewBox="0 0 32 32" xmlns="http://www.w3.org/2000/svg">
  <path d="M29.87 3.2 28.8 2.13l-9.47 9.6-4.8-4.93-1.07 1.07 5.87 5.73zM7.33 13.33c-4.13 0-7.33 1.73-7.33 4V28c0 2.27 3.2 4 7.33 4s7.33-1.73 7.33-4V17.33c0-2.27-3.2-4-7.33-4m6 14.67c0 1.2-2.4 2.67-6 2.67s-6-1.47-6-2.67v-.4c1.33 1.07 3.47 1.73 6 1.73s4.67-.67 6-1.73zm0-2.67c0 1.2-2.4 2.67-6 2.67s-6-1.47-6-2.67v-.4c1.33 1.07 3.47 1.73 6 1.73s4.67-.67 6-1.73zm0-2.67c0 1.2-2.4 2.67-6 2.67s-6-1.47-6-2.67v-.4C2.67 23.33 4.8 24 7.33 24s4.67-.67 6-1.73zm0-2.67c0 1.2-2.4 2.67-6 2.67s-6-1.47-6-2.67v-.4c1.33 1.07 3.47 1.73 6 1.73s4.67-.67 6-1.73zm-6 0c-3.6 0-6-1.47-6-2.67s2.4-2.67 6-2.67 6 1.47 6 2.67-2.4 2.67-6 2.67m17.34 1.34c-4.13 0-7.33 1.73-7.33 4V28c0 2.27 3.2 4 7.33 4S32 30.27 32 28v-2.67c0-2.27-3.2-4-7.33-4m6 6.67c0 1.2-2.4 2.67-6 2.67s-6-1.47-6-2.67v-.4c1.33 1.07 3.47 1.73 6 1.73s4.67-.67 6-1.73zm-6 0c-3.6 0-6-1.47-6-2.67s2.4-2.67 6-2.67 6 1.47 6 2.67-2.4 2.67-6 2.67"/>
</svg>
