<svg viewBox="0 0 32 32" xmlns="http://www.w3.org/2000/svg">
  <path d="M18.67 8c-2.93 0-5.33 2.4-5.33 5.33H0V32h32V13.33h-8C24 10.4 21.6 8 18.67 8m0 1.33c2.27 0 4 1.73 4 4s-1.73 4-4 4-4-1.73-4-4 1.73-4 4-4m12 5.33v16H1.33v-16h12.13c.53 2.27 2.67 4 5.2 4s4.53-1.73 5.2-4zM8 12c2.93 0 5.33-2.4 5.33-5.33S10.93 1.33 8 1.33s-5.33 2.4-5.33 5.33S5.07 12 8 12m0-9.33c2.27 0 4 1.73 4 4s-1.73 4-4 4-4-1.73-4-4 1.73-4 4-4m18.67 8c2.93 0 5.33-2.4 5.33-5.33S29.6 0 26.67 0s-5.33 2.4-5.33 5.33 2.4 5.33 5.33 5.33m0-9.33c2.27 0 4 1.73 4 4s-1.73 4-4 4-4-1.73-4-4 1.73-4 4-4M7.47 5.47v3.87h1.47V4H7.6L5.87 5.2l.53.93zm13.2 9.6h-2.13l.4-.27c.53-.4 1.6-1.47 1.6-2.53s-.8-1.6-2-1.6c-.27 0-.8 0-1.6.27v1.07c.27-.13.93-.4 1.33-.4s.8.13.8.67c0 .67-1.2 1.73-2.4 2.67v1.07h3.87v-.93zm8-8.94c0-1.2-.93-1.6-2-1.6h-.4V3.6h2.27v-.93h-3.47v2.8c.4-.13.8-.13 1.2-.13.53 0 1.2.13 1.2.8s-.53.8-1.07.8c-.4 0-.93-.13-1.33-.27v1.2c.27.13.8.27 1.2.27 1.2 0 2.4-.53 2.4-2zm-22 21.07 1.2 1.73.93-.67-.67-.93H12v-1.47H6.67zm2.66-6.27c-1.33 0-2.8.27-2.8 2.13 0 1.73 1.33 2.13 2.8 2.13s2.8-.27 2.8-2.13c0-1.73-1.47-2.13-2.8-2.13m0 2.8c-.8 0-1.73 0-1.73-.67s.93-.67 1.73-.67 1.73 0 1.73.67-.93.67-1.73.67m0-7.6c-1.33 0-2.8.27-2.8 2.13 0 1.73 1.33 2.13 2.8 2.13s2.8-.27 2.8-2.13-1.47-2.13-2.8-2.13m0 2.8c-.8 0-1.73 0-1.73-.67s.93-.67 1.73-.67 1.73 0 1.73.67c0 .53-.93.67-1.73.67"/>
</svg>
