<svg viewBox="0 0 32 32" xmlns="http://www.w3.org/2000/svg"><g id="icon">
  <path d="M28 16.667V8h-8V1.333H1.333V12h8v4.667h-8v14h29.333v-14h-2.667zm-25.333-6v-8h16V8H9.334v2.667zm8-1.334h16v7.333h-16zm18.666 20H2.666V18h26.667z"/>
  <path d="M6.667 28c1.467 0 2.667-1.2 2.667-2.667s-1.2-2.667-2.667-2.667S4 23.866 4 25.333 5.2 28 6.667 28m0-4c.8 0 1.333.533 1.333 1.333s-.533 1.333-1.333 1.333-1.333-.533-1.333-1.333S5.867 24 6.667 24m18.666.667C26.8 24.667 28 23.467 28 22s-1.2-2.667-2.667-2.667-2.667 1.2-2.667 2.667 1.2 2.667 2.667 2.667m0-4c.8 0 1.333.533 1.333 1.333s-.533 1.333-1.333 1.333S24 22.8 24 22s.533-1.333 1.333-1.333M7.333 8.4l-.267-.267c-.267-.4-1.067-1.067-1.733-1.067-.8 0-1.067.533-1.067 1.467 0 .267 0 .533.267 1.067h.8c-.267-.267-.4-.8-.4-1.067S5.066 8 5.466 8s1.2.933 1.867 1.6H8V6.933h-.667zm-1.2-4.933c-.933 0-1.867.267-1.867 1.467s.933 1.467 1.867 1.467S8 6.134 8 4.934c0-1.2-.933-1.467-1.867-1.467m0 2c-.533 0-1.2 0-1.2-.533 0-.4.667-.533 1.2-.533s1.2 0 1.2.533-.667.533-1.2.533m8.534 8c-.8 0-1.2.667-1.2 1.467v.267h-.533v-1.6h-.667v2.4h2c-.133-.267-.133-.533-.133-.8 0-.4.133-.8.533-.8.533 0 .533.4.533.8 0 .267 0 .667-.267.933h.8c.133-.267.133-.667.133-.933.133-.933-.133-1.733-1.2-1.733zm-.534-3.334c-.933 0-1.867.267-1.867 1.467s.933 1.467 1.867 1.467c.933 0 1.867-.267 1.867-1.467s-.933-1.467-1.867-1.467m0 2c-.533 0-1.2 0-1.2-.533 0-.4.667-.533 1.2-.533s1.2 0 1.2.533-.667.533-1.2.533M12 19.333h1.333V28H12z"/>
</g></svg>
