<svg viewBox="0 0 32 32" xmlns="http://www.w3.org/2000/svg">
  <path d="M28 16.67V8h-8V1.33H1.33V12h8v4.67h-8v14h29.33v-14h-2.67zm-25.33-6v-8h16V8H9.33v2.67zm8-1.33h16v7.33h-16zm18.67 20H2.67V18h26.67zM6.67 28c1.47 0 2.67-1.2 2.67-2.67s-1.2-2.67-2.67-2.67S4 23.87 4 25.33 5.2 28 6.67 28m0-4c.8 0 1.33.53 1.33 1.33s-.53 1.33-1.33 1.33-1.33-.53-1.33-1.33S5.87 24 6.67 24m18.66.67c1.47 0 2.67-1.2 2.67-2.67s-1.2-2.67-2.67-2.67-2.67 1.2-2.67 2.67 1.2 2.67 2.67 2.67m0-4c.8 0 1.33.53 1.33 1.33s-.53 1.33-1.33 1.33S24 22.8 24 22s.53-1.33 1.33-1.33M7.33 8.4l-.27-.27c-.27-.4-1.07-1.07-1.73-1.07-.8 0-1.07.53-1.07 1.47 0 .27 0 .53.27 1.07h.8c-.27-.27-.4-.8-.4-1.07S5.07 8 5.47 8s1.2.93 1.87 1.6H8V6.93h-.67zm-1.2-4.93c-.93 0-1.87.27-1.87 1.47s.93 1.47 1.87 1.47S8 6.13 8 4.93s-.93-1.47-1.87-1.47m0 2c-.53 0-1.2 0-1.2-.53 0-.4.67-.53 1.2-.53s1.2 0 1.2.53-.67.53-1.2.53m8.54 8.01c-.8 0-1.2.67-1.2 1.47v.27h-.53v-1.6h-.67v2.4h2c-.13-.27-.13-.53-.13-.8 0-.4.13-.8.53-.8.53 0 .53.4.53.8 0 .27 0 .67-.27.93h.8c.13-.27.13-.67.13-.93.13-.93-.13-1.73-1.2-1.73zm-.54-3.34c-.93 0-1.87.27-1.87 1.47s.93 1.47 1.87 1.47S16 12.8 16 11.6s-.93-1.47-1.87-1.47m0 2c-.53 0-1.2 0-1.2-.53 0-.4.67-.53 1.2-.53s1.2 0 1.2.53-.67.53-1.2.53M12 19.33h1.33V28H12z"/>
</svg>
