<svg viewBox="0 0 32 32" xmlns="http://www.w3.org/2000/svg"><g id="icon">
  <path d="M0 5.333V28h32V5.333H0zm1.333 21.334v-20h29.333v12H11.999V20h18.667v6.667H1.333z"/>
  <path d="M2.667 9.333h6.667v1.333H2.667zm0 4H4v1.333H2.667zm2.666 0h1.333v1.333H5.333zm2.667 0h1.333v1.333H8zm18.667 0c1.467 0 2.667-1.2 2.667-2.667s-1.2-2.667-2.667-2.667S24 9.199 24 10.666s1.2 2.667 2.667 2.667m0-4c.8 0 1.333.533 1.333 1.333s-.533 1.333-1.333 1.333-1.333-.533-1.333-1.333.533-1.333 1.333-1.333M5.333 18.667c-1.467 0-2.667 1.2-2.667 2.667s1.2 2.667 2.667 2.667S8 22.801 8 21.334s-1.2-2.667-2.667-2.667m0 4c-.8 0-1.333-.533-1.333-1.333s.533-1.333 1.333-1.333 1.333.533 1.333 1.333-.533 1.333-1.333 1.333M12 8h1.333v1.333H12zm0 2.667h1.333V12H12zm0 2.666h1.333v1.333H12zM12 16h1.333v1.333H12V16zm0 5.333h1.333v1.333H12zM12 24h1.333v1.333H12z"/>
</g></svg>
