<svg viewBox="0 0 32 32" xmlns="http://www.w3.org/2000/svg"><g id="icon">
  <path d="M21.6 5.333H3.333A3.3 3.3 0 0 0 0 8.666v14.667a3.3 3.3 0 0 0 3.333 3.333h25.333a3.3 3.3 0 0 0 3.333-3.333v-7.6zm6.133 8h-6.4V12H26.4zm1.334 1.334L30.4 16h-7.067c-.933 0-1.6-.533-1.867-1.333h7.6zm-4-4h-3.733V6.934zm3.6 14.666H3.334c-1.067 0-2-.933-2-2V8.666c0-1.067.933-2 2-2h16.667v7.333a3.3 3.3 0 0 0 3.333 3.333h7.333v6c0 1.067-.933 2-2 2z"/>
  <path d="M9.333 10.667H4V16h5.333zm-1.333 4H5.333V12H8zm-4 6.666h1.333v1.333H4zm2.667 0H8v1.333H6.667zm2.666 0h1.333v1.333H9.333zm2.667 0h1.333v1.333H12zm2.667 0H16v1.333h-1.333z"/>
</g></svg>
