<svg viewBox="0 0 32 32" xmlns="http://www.w3.org/2000/svg">
  <path d="M23.07 22a1.07 1.07 0 1 1-2.13 0 1.07 1.07 0 0 1 2.13 0M30 14.67 28 2.93c-.13-.53-.4-.93-.8-1.33-.53-.27-1.07-.27-1.6-.27L6.67 4.67C5.6 4.93 4.8 6 5.07 7.07l.4 2.27H4a2.68 2.68 0 0 0-2.67 2.67v16c0 1.47 1.2 2.67 2.67 2.67h20c1.47 0 2.67-1.2 2.67-2.67v-2.67c.8 0 1.33-.53 1.33-1.33v-4c0-.8-.53-1.33-1.33-1.33v-1.33l1.73-.27c.53-.13.93-.4 1.33-.8.27-.53.27-1.07.27-1.6zm-2.8-8.13-20.27 3.6-.26-1.34 20.27-3.6zM6.93 6l18.93-3.33c.13 0 .4 0 .53.13s.27.27.27.4v.67L6.53 7.47 6.4 6.8c-.13-.4.13-.67.53-.8M4 10.67h1.73l.53 2.67H4c-.8 0-1.33-.53-1.33-1.33S3.2 10.68 4 10.68zM26.67 24H20v-4h6.67zM20 18.67c-.8 0-1.33.53-1.33 1.33v4c0 .8.53 1.33 1.33 1.33h5.33V28c0 .8-.53 1.33-1.33 1.33H4c-.8 0-1.33-.53-1.33-1.33V14.27c.4.27.8.4 1.33.4h20c.8 0 1.33.53 1.33 1.33v2.67zm8.53-3.2c-.13.13-.27.27-.4.27l-1.47.27c0-1.47-1.2-2.67-2.67-2.67H7.47l-.27-2 20.27-3.6 1.2 7.07c0 .27 0 .53-.13.67z"/>
</svg>
