<svg viewBox="0 0 32 32" xmlns="http://www.w3.org/2000/svg"><g id="icon">
  <path d="M23.067 22a1.067 1.067 0 1 1-2.135 0 1.067 1.067 0 0 1 2.135 0z"/>
  <path d="M30 14.667 28 2.934c-.133-.533-.4-.933-.8-1.333-.533-.267-1.067-.267-1.6-.267L6.667 4.667C5.6 4.934 4.8 6 5.067 7.067l.4 2.267H4a2.675 2.675 0 0 0-2.667 2.667v16c0 1.467 1.2 2.667 2.667 2.667h20c1.467 0 2.667-1.2 2.667-2.667v-2.667c.8 0 1.333-.533 1.333-1.333v-4c0-.8-.533-1.333-1.333-1.333v-1.333l1.733-.267c.533-.133.933-.4 1.333-.8.267-.533.267-1.067.267-1.6zm-2.8-8.134-20.267 3.6L6.666 8.8l20.267-3.6.267 1.333zM6.933 6l18.933-3.333c.133 0 .4 0 .533.133s.267.267.267.4v.667l-20.133 3.6L6.4 6.8c-.133-.4.133-.667.533-.8zM4 10.667h1.733l.533 2.667H3.999c-.8 0-1.333-.533-1.333-1.333s.533-1.333 1.333-1.333zM26.667 24H20v-4h6.667v4zM20 18.667c-.8 0-1.333.533-1.333 1.333v4c0 .8.533 1.333 1.333 1.333h5.333V28c0 .8-.533 1.333-1.333 1.333H4c-.8 0-1.333-.533-1.333-1.333V14.267c.4.267.8.4 1.333.4h20c.8 0 1.333.533 1.333 1.333v2.667H20zm8.533-3.2c-.133.133-.267.267-.4.267l-1.467.267c0-1.467-1.2-2.667-2.667-2.667H7.466l-.267-2 20.267-3.6 1.2 7.067c0 .267 0 .533-.133.667z"/>
</g></svg>
