<svg viewBox="0 0 32 32" xmlns="http://www.w3.org/2000/svg">
  <path d="M5.33 14.67c2.27 0 4-1.73 4-4s-1.73-4-4-4-4 1.73-4 4 1.73 4 4 4m0-6.67C6.8 8 8 9.2 8 10.67s-1.2 2.67-2.67 2.67-2.67-1.2-2.67-2.67S3.87 8 5.33 8M16 0v16h16V0zm14.67 14.67H17.33V1.33h13.33zm-1.34-12H28V4h-1.33v1.33h2.67zm-4 0H24V4h-1.33v1.33h2.67zm-4 0H20V4h-1.33v1.33h2.67zm8 4H28V8h-1.33v1.33h2.67zm-4 0H24V8h-1.33v1.33h2.67zm-4 0H20V8h-1.33v1.33h2.67zm8 4H28V12h-1.33v1.33h2.67zm-4 0H24V12h-1.33v1.33h2.67zm-4 0H20V12h-1.33v1.33h2.67zm5.07 8H13.6c-.93 0-1.6.67-1.6 1.6v3.33c-.4-.13-.93-.13-1.33-.13v-2.13c0-2.93-2.4-5.33-5.33-5.33S.01 18.41.01 21.34v10.67h1.33v-.53l8-2.13v2.67h1.33v-3.07l3.47-.93h12.27c.93 0 1.6-.67 1.6-1.6v-6.13c0-.93-.67-1.6-1.6-1.6zM1.33 30v-8.67c0-2.27 1.73-4 4-4s4 1.73 4 4v2.4l-4 1.07v-3.47H4v5.2l6.13-1.6c1.47-.4 3.07.4 3.73 1.73zm25.33-3.6a.29.29 0 0 1-.27.27H15.33c-.4-1.07-1.2-2-2.13-2.53v-1.47h13.33v3.73zm0-5.07H13.33v-1.07c0-.13.13-.27.27-.27h12.8c.13 0 .27.13.27.27v1.07z"/>
</svg>
