<svg viewBox="0 0 32 32" xmlns="http://www.w3.org/2000/svg"><g id="icon">
  <path d="M12.533 9.333c0-1.733-1.467-3.2-3.2-3.2s-3.2 1.467-3.2 3.2 1.467 3.2 3.2 3.2 3.2-1.467 3.2-3.2zm-5.066 0c0-1.067.8-1.867 1.867-1.867s1.867.8 1.867 1.867-.8 1.867-1.867 1.867-1.867-.8-1.867-1.867z"/>
  <path d="M11.333 17.333v-2.4c.133-.133.133-.133.267-.133h.267l1.733 1.733 2.8-2.8-1.733-1.867v-.267c0-.133.133-.133.133-.267h2.4v-4h-2.4c-.133-.133-.133-.133-.133-.267v-.267L16.4 5.065l-2.8-2.8-1.733 1.733H11.6c-.133 0-.133-.133-.267-.133v-2.4h-4v2.4h-.267c0 .133-.133.133-.267.133L5.066 2.265l-2.8 2.8 1.733 1.733v.267c0 .133-.133.133-.133.267H1.333v4h2.4c.133.133.133.133.133.267v.267l-1.733 1.733 2.8 2.8L6.8 14.666h.267c.133 0 .133.133.267.133v2.4h4zm-5.066-3.866h-.133l-1.067 1.067-.933-.933 1.067-1.067v-.133c.133-.4.133-.933 0-1.333-.267-.4-.533-.8-.933-.933l-.133-.133H2.668V8.669h1.467l.133-.133c.4-.133.667-.533.933-.933.133-.4.133-.8 0-1.333v-.133L4.134 5.07l.933-.933 1.067 1.067h.133c.4.133.933.133 1.333 0 .4-.267.8-.533.933-.933l.133-.133V2.671h1.333v1.467l.133.133c.267.4.533.667.933.933.4.133.933.133 1.333 0h.133l1.067-1.067.933.933-1.067 1.067v.133c-.133.4-.133.933 0 1.333s.533.8.933.933l.133.133h1.467v1.333H14.53l-.133.133a3.11 3.11 0 0 0-.933.933c-.133.4-.133.8 0 1.333v.133l1.067 1.067-.933.933-1.067-1.067h-.133c-.4-.133-.933-.133-1.333 0s-.8.533-.933.933l-.133.133V16H8.666v-1.467l-.133-.133a3.11 3.11 0 0 0-.933-.933c-.4-.133-.8-.133-1.333 0zm23.2 2.666-12.8 12.933-6.133-6.267-1.067 1.067 7.2 7.067L30.534 17.2z"/>
</g></svg>
