<svg viewBox="0 0 32 32" xmlns="http://www.w3.org/2000/svg"><g id="icon">
  <path d="m23.867 11.867-.933-.933-5.6 5.467c-.4-.267-.8-.4-1.333-.4-1.467 0-2.667 1.2-2.667 2.667s1.2 2.667 2.667 2.667 2.667-1.2 2.667-2.667a2.25 2.25 0 0 0-.4-1.333l5.6-5.467zM16 20c-.8 0-1.333-.533-1.333-1.333S15.2 17.334 16 17.334s1.333.533 1.333 1.333S16.8 20 16 20m-.667-12h1.333v4h-1.333zm0 17.333h1.333v4h-1.333zM22.667 18h4v1.333h-4zM5.333 18h4v1.333h-4z"/>
  <path d="m30.133 10.133.933-.933-5.6-5.6-.933.933 2.4 2.4L25.066 8.8c-2.4-2-5.2-3.333-8.4-3.467V2.666h3.333V1.333h-8v1.333h3.333v2.667c-7.067.4-12.667 6.267-12.667 13.333 0 7.333 6 13.333 13.333 13.333s13.333-6 13.333-13.333c0-3.467-1.333-6.533-3.467-8.933l1.867-1.867 2.4 2.267zM16 30.667c-6.667 0-12-5.333-12-12s5.333-12 12-12 12 5.333 12 12-5.333 12-12 12"/>
</g></svg>
