<svg viewBox="0 0 32 32" xmlns="http://www.w3.org/2000/svg">
  <path d="M28.8 8.933c-.133-.133-.4-.4-.667-.4.4-.8.4-1.733-.267-2.4-.133-.133-.4-.4-.667-.4.4-.8.4-1.733-.267-2.4s-1.6-.667-2.4-.267c-.133-.267-.267-.4-.4-.667-.8-.8-2-.8-2.8 0l-5.733 5.6h-2.267c-.4 0-.667-.267-.667-.667V3.999c0-1.467-1.2-2.667-2.667-2.667H8.665v12.933c0 .533-.267 1.067-.533 1.467l-4.4 4.267h1.867l3.467-3.467c.667-.667.933-1.467.933-2.4V2.665c.8 0 1.333.533 1.333 1.333v3.333c0 1.067.933 2 2 2h2.8l6.133-6.133c.267-.267.667-.267.933 0s.267.667 0 .933l-6.133 6.133.933.933 7.067-7.067c.267-.267.667-.267.933 0s.267.667 0 .933l-7.067 7.067.933.933 6.133-6.133c.267-.267.667-.267.933 0s.267.667 0 .933l-6.133 6.133.933.933 5.2-5.2c.267-.267.667-.267.933 0s.267.667 0 .933l-9.2 9.333h-3.067l-.8-.8a.644.644 0 0 1 0-.933l1.733-1.733c1.067-1.067 1.067-2.667 0-3.733l-.933-.933-9.067 9.067c-.267.133-.8.4-1.333.4H2.663v1.333h2.533c.933 0 1.733-.4 2.4-.933l8.133-8.133a1.29 1.29 0 0 1 0 1.867l-1.867 1.867c-.8.8-.8 2 0 2.8l1.2 1.2h8.933c.4 0 .667.267.667.667s-.267.667-.667.667h-8.667v1.333h10c.4 0 .667.267.667.667s-.267.667-.667.667h-10v1.333h8.667c.4 0 .667.267.667.667s-.267.667-.667.667h-8.667v1.333h7.333c.4 0 .667.267.667.667s-.267.667-.667.667h-20v1.333h20c1.067 0 2-.933 2-2 0-.267 0-.533-.133-.8.8-.267 1.467-1.067 1.467-1.867 0-.267 0-.533-.133-.8.8-.267 1.467-1.067 1.467-1.867s-.667-1.733-1.467-1.867c.133-.267.133-.533.133-.8 0-1.067-.933-2-2-2h-3.467l8.267-8.267c.8-.8.8-2.133 0-2.8z"/>
</svg>
