<svg viewBox="0 0 32 32" xmlns="http://www.w3.org/2000/svg">
  <path d="M17.33 18.67h9.33V20h-9.33zm0 2.66H24v1.33h-6.67zm0 2.67h9.33v1.33h-9.33zM32 8.4l-7.07-7.07H10.67v12.4c-.93-.27-2.13-.4-3.33-.4-4.13 0-7.33 1.73-7.33 4V28c0 2.27 3.2 4 7.33 4 2.27 0 4.13-.53 5.47-1.33H32zm-6.67-4.8 4.4 4.4h-4.4zm-18 11.07c3.6 0 6 1.47 6 2.67s-2.4 2.67-6 2.67-6-1.47-6-2.67 2.4-2.67 6-2.67m-6 4.93c1.33 1.07 3.47 1.73 6 1.73s4.67-.67 6-1.73v.4c0 1.2-2.4 2.67-6 2.67s-6-1.47-6-2.67zm0 2.67C2.67 23.33 4.8 24 7.33 24s4.67-.67 6-1.73v.4c0 1.2-2.4 2.67-6 2.67s-6-1.47-6-2.67zm0 2.67c1.33 1.07 3.47 1.73 6 1.73s4.67-.67 6-1.73v.4c0 1.2-2.4 2.67-6 2.67s-6-1.47-6-2.67zm0 3.07v-.4c1.33 1.07 3.47 1.73 6 1.73s4.67-.67 6-1.73v.4c0 1.2-2.4 2.67-6 2.67s-6-1.47-6-2.67m29.33 1.33h-16.4c.27-.4.4-.8.4-1.33V17.33c0-1.2-1.07-2.4-2.67-3.07V2.66h12v6.67h6.67z"/>
</svg>
