<svg viewBox="0 0 32 32" xmlns="http://www.w3.org/2000/svg">
  <path d="M8.526 22.244a2.3 2.3 0 0 0-.602-.462 6 6 0 0 0-.978-.423q-.686-.24-1.03-.429-.343-.188-.343-.485 0-.183.086-.298a.64.64 0 0 1 .217-.182.9.9 0 0 1 .303-.092q.173-.021.344-.022.48 0 .92.097.442.096.774.234l.217-1.531a6 6 0 0 0-.87-.17 8 8 0 0 0-1.087-.07q-.539 0-1.048.12-.51.12-.91.37a2 2 0 0 0-.646.647q-.246.394-.247.943 0 .434.155.754.155.319.52.594-.445.263-.669.668-.223.405-.223.84 0 .364.098.651.096.285.314.519.217.235.579.44.36.206.887.388.445.163.727.274.28.116.44.218a.7.7 0 0 1 .223.205.5.5 0 0 1 .063.252q0 .297-.258.418-.257.12-.624.12-.228 0-.503-.036a6 6 0 0 1-.56-.096 7 7 0 0 1-.562-.148 6 6 0 0 1-.492-.178l-.137 1.6q.458.159 1.065.263.605.101 1.259.102.583 0 1.087-.131.503-.133.876-.394.371-.264.589-.67.218-.405.218-.94 0-.367-.138-.699a1.5 1.5 0 0 0-.47-.593q.402-.251.613-.651.212-.4.212-.857 0-.343-.086-.63a1.4 1.4 0 0 0-.303-.53m-1.409 1.788a.7.7 0 0 1-.205.24l-.882-.343a3.2 3.2 0 0 1-.624-.314q-.246-.165-.246-.497 0-.148.075-.303a.8.8 0 0 1 .235-.28l.515.194q.377.138.612.258t.366.234a.7.7 0 0 1 .183.234q.052.12.052.257a.66.66 0 0 1-.08.32m22.05-17.449 2.83-2.824-3.773-3.765-1.886 1.883L16.17 12.024H-.003v19.97h29.447v-19.97h-5.728zM15.491 18.351l-1.887-1.883L26.337 3.759l.944.942.943.941zm-2.687-.799 1.6 1.597-2.2.6zm15.42-15.675 1.886 1.882-.943.942-1.886-1.883zm-.114 11.479v17.307H1.33V13.356h13.506l-2.175 2.17-.943.942-1.415 5.178 5.188-1.413.943-.94 5.948-5.937z"/>
</svg>
