<svg viewBox="0 0 32 32" xmlns="http://www.w3.org/2000/svg"><g id="icon">
  <path d="M24 4V1.333h-1.333C22.667 2.266 22.4 3.2 22 4H0v1.333h21.067C19.6 6.933 17.334 8 14.667 8h-4v9.333h16V8H24V5.333h5.333v25.333H0v1.333h30.667v-28H24zM12 16V9.333h2.667c3.333 0 6.4-1.6 8-3.867v3.867c0 3.733-4.133 6.667-9.333 6.667h-1.333zm13.333-6.667V16H19.2c2.933-1.467 4.8-3.867 4.8-6.667h1.333z"/>
  <path d="M10.667 21.333H20v1.333h-9.333v-1.333zm0 2.667h6.667v1.333h-6.667V24zm0 2.667H20V28h-9.333v-1.333z"/>
</g></svg>
