<svg viewBox="0 0 32 32" xmlns="http://www.w3.org/2000/svg">
  <rect/>
  <path d="m25.4 24.5 2.4-9c.3-1.2.2-2.5-.5-3.5l-1.6-3c-.8-1.4-2.4-2.3-4-2.3h-3.1l3.7-2.1c.8-.4 1.2-1.2 1-2.1-.1-.9-.7-1.5-1.5-1.8L19.6.1c-.3-.1-.4-.1-.6-.1-.9 0-1.8.6-2 1.6l-1.1 4-2.5-4.3c-.3-.5-.7-.8-1.3-1-.2 0-.4-.1-.6-.1-.4 0-.7.1-1.1.3l-.6.3c-.6.4-1 1.1-1 1.9s.4 1.4 1.1 1.8l3.8 2.2h-3.3c-1.7 0-3.2.9-4 2.3l-1.7 2.9c-.7 1.1-.9 2.3-.5 3.5l2.4 9.1L5.1 26c-.7.7-1 1.5-1 2.5C4 30.4 5.6 32 7.5 32h16.9c1.9 0 3.5-1.6 3.5-3.5 0-.9-.4-1.8-1-2.5zM17.1 5.9l1.1-4c.1-.3.4-.6.8-.6h.2l2.2.7c.3 0 .5.3.6.6 0 .3-.1.6-.4.8l-3.7 2.1-.2.1-.1.2-.6.6zm-6.6-2.6c-.2-.1-.4-.4-.4-.7s.1-.5.4-.7l.6-.4c.1-.1.3-.1.4-.1h.2c.2.1.4.2.5.4l2.1 3.6zm14 27.4h-17c-1.2 0-2.2-1-2.2-2.2q0-.9.6-1.5l1.5-1.6.5-.5-.2-.7-2.4-9c-.2-.9-.1-1.8.3-2.5l1.7-2.9C8 8.6 9.1 8 10.3 8h11.3c1.2 0 2.3.6 2.9 1.7l1.7 2.9c.4.8.6 1.7.3 2.5l-2.4 9-.2.7.5.5L26 27q.6.6.6 1.5c0 1.2-.9 2.2-2.1 2.2m-11.7-12v1.2c-.2.1-.5.1-.7.2-.3 0-.6.1-.8.1-.5 0-1-.1-1.5-.2-.4-.2-.8-.4-1.1-.7s-.6-.7-.7-1.1c-.2-.4-.3-.9-.3-1.4s.1-1 .3-1.4.4-.8.7-1.1.7-.5 1.1-.7.9-.2 1.4-.2h.8c.3 0 .5.1.8.2l-.1 1.2c-.2-.1-.5-.2-.7-.2s-.5-.1-.7-.1c-.3 0-.6 0-.9.1s-.5.2-.7.4-.3.4-.4.7-.2.6-.2 1 .1.7.2 1 .3.5.5.7.4.3.7.4.6.2.9.2c.2 0 .5 0 .7-.1.2 0 .4-.1.7-.2m5-5.4h1.3V20h-1.3v-2.9h-2.7V20h-1.4v-6.7h1.4V16h2.7zm6.5 3.9H22V20h-1.3v-6.7h3.7v1.1H22v1.7h2.3z"/>
</svg>
