<svg viewBox="0 0 32 32" xmlns="http://www.w3.org/2000/svg">
  <path d="M6.884 15.73v-.039q1.315-.286 2.04-1.087t.725-1.926q0-.915-.353-1.554a2.95 2.95 0 0 0-.972-1.05q-.62-.409-1.478-.6a8.6 8.6 0 0 0-1.87-.19H2.003v13.311h3.051q.991 0 1.888-.19a4.5 4.5 0 0 0 1.564-.63 3.2 3.2 0 0 0 1.058-1.154q.391-.714.391-1.745 0-1.315-.849-2.155-.848-.839-2.22-.992M3.3 10.39h1.564q1.658 0 2.555.562c.897.562.896.982.896 1.821q0 .649-.257 1.107-.258.458-.715.743-.459.286-1.087.42-.63.134-1.373.133H3.299zm4.357 10.489q-.963.63-2.813.629H3.3v-5.264h1.564q1.925 0 2.84.63.916.628.916 1.983 0 1.393-.963 2.022m9.259.591h2.937v1.125H11.69v-1.277a60 60 0 0 0 2.928-2.651q1.23-1.203 2.03-2.241.802-1.04 1.184-1.955t.381-1.774q0-.648-.22-1.125a2.2 2.2 0 0 0-.6-.791 2.5 2.5 0 0 0-.887-.468 3.7 3.7 0 0 0-1.078-.152q-.725 0-1.468.21a7 7 0 0 0-1.545.667l-.228-1.164a8.3 8.3 0 0 1 1.61-.59q.83-.21 1.765-.21.84 0 1.573.219.734.22 1.279.667.543.45.858 1.116t.314 1.564q0 1.47-.925 2.984-.926 1.517-2.813 3.405a36 36 0 0 1-1.545 1.43q-.705.61-1.335 1.049v.038q.439-.017.954-.03.514-.006 1.04-.017l1.03-.02q.504-.009.924-.009m12.633-4.749q-.848-.839-2.221-.992v-.038q1.315-.286 2.04-1.087t.725-1.926q0-.915-.352-1.554a3 3 0 0 0-.973-1.05q-.62-.409-1.478-.6a8.6 8.6 0 0 0-1.87-.19h-2.975v13.311h3.052q.99 0 1.888-.19a4.5 4.5 0 0 0 1.564-.63 3.2 3.2 0 0 0 1.059-1.154q.39-.714.39-1.745 0-1.315-.849-2.155m-5.807-6.332h1.564q1.659 0 2.556.563c.897.563.896.982.896 1.821q0 .649-.257 1.107-.258.458-.716.743-.458.286-1.086.42-.63.134-1.374.133h-1.583zm4.358 10.49q-.963.63-2.813.629h-1.545v-5.264h1.564q1.926 0 2.842.63.915.628.916 1.983 0 1.393-.964 2.022"/>
</svg>
