<svg xml:space="preserve" viewBox="0 0 32 32" xmlns="http://www.w3.org/2000/svg"><g id="icon">
  <path d="M6.884 15.73v-.039c.877-.19 1.557-.553 2.04-1.087.484-.534.725-1.176.725-1.926 0-.61-.117-1.128-.353-1.554a2.954 2.954 0 0 0-.972-1.05c-.413-.273-.906-.472-1.478-.6a8.629 8.629 0 0 0-1.87-.19H2.003v13.311h3.051c.661 0 1.29-.064 1.888-.19a4.544 4.544 0 0 0 1.564-.63 3.18 3.18 0 0 0 1.058-1.154c.261-.476.391-1.058.391-1.745 0-.877-.283-1.595-.849-2.155-.565-.559-1.306-.89-2.22-.992M3.3 10.39h1.564c1.106 0 1.957.187 2.555.562s.896.982.896 1.821c0 .433-.085.801-.257 1.107-.172.305-.41.553-.715.743-.306.19-.668.331-1.087.42-.42.09-.877.133-1.373.133H3.299zm4.357 10.489c-.642.42-1.58.629-2.813.629H3.3v-5.264h1.564c1.283 0 2.23.21 2.84.63.611.419.916 1.08.916 1.983 0 .928-.32 1.603-.963 2.022m9.259.591h2.937v1.125h-8.163v-1.277a59.672 59.672 0 0 0 2.928-2.651c.82-.802 1.497-1.549 2.03-2.241.535-.694.929-1.345 1.184-1.955.254-.61.381-1.201.381-1.774 0-.432-.073-.807-.22-1.125a2.2 2.2 0 0 0-.6-.791 2.535 2.535 0 0 0-.887-.468 3.713 3.713 0 0 0-1.078-.152c-.483 0-.973.07-1.468.21a6.941 6.941 0 0 0-1.545.667l-.228-1.164a8.331 8.331 0 0 1 1.61-.59c.554-.14 1.141-.21 1.765-.21.56 0 1.084.073 1.573.219.49.146.915.37 1.279.667.362.3.648.672.858 1.116.21.445.314.966.314 1.564 0 .98-.308 1.974-.925 2.984-.617 1.011-1.555 2.147-2.813 3.405a35.8 35.8 0 0 1-1.545 1.43c-.47.407-.915.757-1.335 1.049v.038c.293-.012.61-.021.954-.03a1501.696 1501.696 0 0 0 2.07-.038c.336-.005.644-.008.924-.008m12.633-4.749c-.565-.559-1.306-.89-2.221-.992v-.038c.877-.19 1.557-.553 2.04-1.087.483-.534.725-1.176.725-1.926 0-.61-.118-1.128-.352-1.554a2.965 2.965 0 0 0-.973-1.05c-.414-.273-.906-.472-1.478-.6a8.635 8.635 0 0 0-1.87-.19h-2.975v13.311h3.052c.66 0 1.29-.064 1.888-.19a4.54 4.54 0 0 0 1.564-.63 3.188 3.188 0 0 0 1.059-1.154c.26-.476.39-1.058.39-1.745 0-.877-.282-1.595-.849-2.155m-5.807-6.332h1.564c1.106 0 1.958.188 2.556.563s.896.982.896 1.821c0 .433-.086.801-.257 1.107-.172.305-.41.553-.716.743-.305.19-.667.331-1.086.42-.42.09-.878.133-1.374.133h-1.583zm4.358 10.49c-.642.42-1.58.629-2.813.629h-1.545v-5.264h1.564c1.284 0 2.231.21 2.842.63.61.419.916 1.08.916 1.983 0 .928-.322 1.603-.964 2.022"/>
</g></svg>
