<svg xml:space="preserve" viewBox="0 0 32 32" xmlns="http://www.w3.org/2000/svg"><g id="icon">
  <path fill="currentColor" d="M6.167 15.818v-.037c.877-.191 1.557-.554 2.04-1.088s.725-1.175.725-1.925c0-.611-.118-1.129-.353-1.555a2.954 2.954 0 0 0-.973-1.049c-.413-.273-.905-.473-1.478-.6a8.629 8.629 0 0 0-1.869-.192H1.285v13.313h3.05c.662 0 1.291-.064 1.889-.19a4.544 4.544 0 0 0 1.564-.63 3.18 3.18 0 0 0 1.058-1.154c.26-.477.391-1.059.391-1.745 0-.877-.283-1.596-.849-2.155-.566-.56-1.306-.89-2.221-.993zm-3.586-5.34h1.564c1.106 0 1.958.189 2.556.564s.896.981.896 1.82c0 .433-.086.801-.258 1.107-.171.305-.41.553-.715.743-.305.191-.667.332-1.087.42-.42.09-.877.134-1.373.134H2.581v-4.787zm4.358 10.49c-.642.42-1.58.63-2.813.63H2.58v-5.265h1.564c1.284 0 2.231.21 2.841.63.611.42.916 1.081.916 1.984 0 .928-.321 1.602-.963 2.022zm9.258.592h2.937v1.125h-8.162v-1.277a59.673 59.673 0 0 0 2.927-2.651c.82-.803 1.497-1.55 2.031-2.242.534-.693.928-1.345 1.183-1.955.254-.61.38-1.201.38-1.774 0-.432-.072-.807-.218-1.125a2.2 2.2 0 0 0-.6-.791 2.535 2.535 0 0 0-.888-.468 3.713 3.713 0 0 0-1.077-.152c-.483 0-.973.07-1.468.21a6.941 6.941 0 0 0-1.545.667l-.229-1.163a8.331 8.331 0 0 1 1.611-.592c.553-.139 1.141-.21 1.764-.21.56 0 1.084.074 1.574.22.49.147.915.37 1.277.667.362.3.648.672.858 1.116.21.446.315.967.315 1.564 0 .98-.308 1.974-.924 2.985-.617 1.01-1.555 2.147-2.813 3.404a35.801 35.801 0 0 1-1.545 1.431c-.471.407-.916.757-1.335 1.049v.037c.292-.011.61-.02.953-.028l1.04-.018 1.03-.02c.336-.006.644-.01.924-.01zm14.475-.382.095 1.278c-.369.127-.785.22-1.25.277-.464.057-.938.086-1.42.086-1.055 0-2.021-.159-2.9-.478a6.543 6.543 0 0 1-2.26-1.354 5.956 5.956 0 0 1-1.458-2.135c-.344-.84-.514-1.781-.514-2.823 0-1.005.17-1.924.514-2.756a6.284 6.284 0 0 1 1.44-2.146 6.468 6.468 0 0 1 2.222-1.392c.864-.33 1.817-.496 2.86-.496.496 0 .982.032 1.46.096.477.063.918.177 1.324.343l-.152 1.24a4.515 4.515 0 0 0-1.24-.391 8.462 8.462 0 0 0-1.467-.125c-.827 0-1.58.14-2.26.42a5.213 5.213 0 0 0-1.756 1.164 5.216 5.216 0 0 0-1.143 1.782 6.106 6.106 0 0 0-.41 2.26c0 .84.14 1.606.419 2.299.28.694.67 1.285 1.173 1.773.502.49 1.108.869 1.82 1.136.713.267 1.508.4 2.385.4.419 0 .84-.032 1.259-.096.419-.063.838-.183 1.259-.362z"/>
</g></svg>
