<svg viewBox="0 0 32 32" xmlns="http://www.w3.org/2000/svg">
  <path d="M6.167 15.818v-.037q1.316-.287 2.04-1.088c.724-.8.725-1.175.725-1.925q0-.916-.353-1.555a2.95 2.95 0 0 0-.973-1.049q-.619-.41-1.478-.6a8.6 8.6 0 0 0-1.869-.192H1.285v13.313h3.05q.992 0 1.889-.19a4.5 4.5 0 0 0 1.564-.63 3.2 3.2 0 0 0 1.058-1.154q.39-.716.391-1.745 0-1.316-.849-2.155-.849-.84-2.221-.993m-3.586-5.34h1.564q1.659 0 2.556.564c.897.564.896.981.896 1.82q0 .649-.258 1.107-.257.458-.715.743-.457.287-1.087.42-.63.134-1.373.134H2.581zm4.358 10.49q-.963.63-2.813.63H2.58v-5.265h1.564q1.926 0 2.841.63t.916 1.984q0 1.392-.963 2.022m9.258.592h2.937v1.125h-8.162v-1.277a60 60 0 0 0 2.927-2.651q1.23-1.204 2.031-2.242.8-1.04 1.183-1.955.38-.915.38-1.774 0-.648-.218-1.125a2.2 2.2 0 0 0-.6-.791 2.5 2.5 0 0 0-.888-.468 3.7 3.7 0 0 0-1.077-.152q-.725 0-1.468.21a7 7 0 0 0-1.545.667l-.229-1.163a8.3 8.3 0 0 1 1.611-.592q.83-.21 1.764-.21.84 0 1.574.22.734.221 1.277.667.543.45.858 1.116.315.669.315 1.564 0 1.47-.924 2.985-.926 1.517-2.813 3.404a36 36 0 0 1-1.545 1.431q-.707.61-1.335 1.049v.037q.438-.016.953-.028l1.04-.018 1.03-.02q.504-.01.924-.01m14.475-.382.095 1.278q-.553.191-1.25.277t-1.42.086q-1.582 0-2.9-.478a6.5 6.5 0 0 1-2.26-1.354 6 6 0 0 1-1.458-2.135q-.515-1.26-.514-2.823-.001-1.508.514-2.756a6.3 6.3 0 0 1 1.44-2.146 6.5 6.5 0 0 1 2.222-1.392q1.296-.495 2.86-.496.743 0 1.46.096.715.094 1.324.343l-.152 1.24a4.5 4.5 0 0 0-1.24-.391 8.5 8.5 0 0 0-1.467-.125q-1.24 0-2.26.42a5.2 5.2 0 0 0-1.756 1.164 5.2 5.2 0 0 0-1.143 1.782 6.1 6.1 0 0 0-.41 2.26q0 1.26.419 2.299.42 1.041 1.173 1.773.752.735 1.82 1.136 1.07.4 2.385.4.63 0 1.259-.096.628-.094 1.259-.362"/>
</svg>
