<svg viewBox="0 0 32 32" xmlns="http://www.w3.org/2000/svg">
  <path d="m5.4 13.6-5.4-2V10l5.3-2v1.5S1 10.8.9 10.8c.1 0 4.5 1.3 4.5 1.3zM.2 19l.5.7 1.2-.9V24h1.2v-6.4h-1zm8.5 1.8c0 1.9-.7 3.3-2.2 3.3-1.6 0-2.2-1.7-2.2-3.3 0-1.5.6-3.2 2.2-3.2s2.2 1.5 2.2 3.2m-1.1 0c0-.8-.1-1.2-.3-1.6s-.4-.6-.8-.6c-.3 0-.6.2-.8.6s-.3.9-.3 1.6c0 .8.1 1.3.3 1.7s.4.6.8.6c.3 0 .6-.2.8-.6s.3-.9.3-1.7m6.2 0c0 1.9-.7 3.3-2.2 3.3-1.6 0-2.2-1.7-2.2-3.3 0-1.5.6-3.2 2.2-3.2s2.2 1.5 2.2 3.2m-1.1 0c0-.8-.1-1.2-.3-1.6s-.4-.6-.8-.6c-.3 0-.6.2-.8.6s-.3.9-.3 1.6c0 .8.1 1.3.3 1.7s.4.6.8.6c.3 0 .6-.2.8-.6s.3-.9.3-1.7m8.9 0c0 1.9-.7 3.3-2.2 3.3-1.6 0-2.2-1.7-2.2-3.3 0-1.5.6-3.2 2.2-3.2s2.2 1.5 2.2 3.2m-1.1 0c0-.8-.1-1.2-.3-1.6s-.4-.6-.8-.6c-.3 0-.6.2-.8.6s-.3.9-.3 1.6c0 .8.1 1.3.3 1.7s.4.6.8.6c.3 0 .6-.2.8-.6s.3-.9.3-1.7m6.2 0c0 1.9-.7 3.3-2.2 3.3-1.6 0-2.2-1.7-2.2-3.3 0-1.5.6-3.2 2.2-3.2s2.2 1.5 2.2 3.2m-1.1 0c0-.8-.1-1.2-.3-1.6s-.4-.6-.8-.6c-.3 0-.6.2-.8.6s-.3.9-.3 1.6c0 .8.1 1.3.3 1.7s.4.6.8.6c.3 0 .6-.2.8-.6s.3-.9.3-1.7m6.2 0c0 1.9-.7 3.3-2.2 3.3-1.6 0-2.2-1.7-2.2-3.3 0-1.5.6-3.2 2.2-3.2s2.2 1.5 2.2 3.2m-1.1 0c0-.8-.1-1.2-.3-1.6s-.4-.6-.8-.6c-.3 0-.6.2-.8.6s-.3.9-.3 1.6c0 .8.1 1.3.3 1.7s.4.6.8.6c.3 0 .6-.2.8-.6s.3-.9.3-1.7m-16-1.3h1.2l.6-2.2h-1z"/>
</svg>
