<svg viewBox="0 0 32 32" xmlns="http://www.w3.org/2000/svg"><g id="icon">
  <path d="m16 2.267 8.4 8.4h1.867L16 .4.4 16h4.933v16h1.333V14.667H3.599z"/>
  <path d="M27.333 13.333c-2.533 0-4.667 2.133-4.667 4.667v2H11.999v12h14.667V20h-2.667v-2c0-1.867 1.467-3.333 3.333-3.333s3.333 1.467 3.333 3.333v2.933h1.333V18c0-2.533-2.133-4.667-4.667-4.667zm-2 8v9.333h-12v-9.333h12z"/>
  <path d="M18.667 27.2v.8c0 .4.267.667.667.667s.667-.267.667-.667v-.8c.8-.267 1.333-1.067 1.333-1.867 0-1.067-.933-2-2-2s-2 .933-2 2c0 .933.533 1.6 1.333 1.867zm.666-2.533c.4 0 .667.267.667.667s-.267.667-.667.667-.667-.267-.667-.667.267-.667.667-.667z"/>
</g></svg>
