<svg viewBox="0 0 32 32" xmlns="http://www.w3.org/2000/svg"><g id="icon">
  <path d="M24 20v-2c0-2.533-2.133-4.667-4.667-4.667S14.666 15.466 14.666 18v2h-2.667v12h14.667V20h-2.667zm-8-2c0-1.867 1.467-3.333 3.333-3.333s3.333 1.467 3.333 3.333v2h-6.667v-2zm9.333 12.667h-12v-9.333h12v9.333z"/>
  <path d="M18.667 27.2v.8c0 .4.267.667.667.667s.667-.267.667-.667v-.8c.8-.267 1.333-1.067 1.333-1.867 0-1.067-.933-2-2-2s-2 .933-2 2c0 .933.533 1.6 1.333 1.867zm.666-2.533c.4 0 .667.267.667.667s-.267.667-.667.667-.667-.267-.667-.667.267-.667.667-.667zM16 2.267l8.4 8.4h1.867L16 .4.4 16h4.933v16h1.333V14.667H3.599z"/>
</g></svg>
