<svg viewBox="0 0 32 32" xmlns="http://www.w3.org/2000/svg">
  <path d="M24 20v-2c0-2.53-2.13-4.67-4.67-4.67s-4.66 2.14-4.66 4.67v2H12v12h14.67V20zm-8-2c0-1.87 1.47-3.33 3.33-3.33s3.33 1.47 3.33 3.33v2h-6.67v-2zm9.33 12.67h-12v-9.33h12zm-6.66-3.47v.8c0 .4.27.67.67.67s.67-.27.67-.67v-.8c.8-.27 1.33-1.07 1.33-1.87 0-1.07-.93-2-2-2s-2 .93-2 2c0 .93.53 1.6 1.33 1.87m.67-2.53c.4 0 .67.27.67.67s-.27.67-.67.67-.67-.27-.67-.67.27-.67.67-.67M16 2.27l8.4 8.4h1.87L16 .4.4 16h4.93v16h1.33V14.67H3.6z"/>
</svg>
