<svg viewBox="0 0 32 32" xmlns="http://www.w3.org/2000/svg"><g id="icon">
  <path d="M15.333 2.667c-7.733 0-14 6.267-14 14s6.267 14 14 14 14-6.267 14-14-6.267-14-14-14zm0 26.666C8.4 29.333 2.666 23.6 2.666 16.666S8.399 3.999 15.333 3.999C22.266 3.999 28 9.732 28 16.666s-5.733 12.667-12.667 12.667z"/>
  <path d="M14.667 5.733H16v3.6h-1.333v-3.6zM4.4 16H8v1.333H4.4V16zm10.267 8H16v3.6h-1.333V24zm8-8h3.6v1.333h-3.6V16zm-9.6-1.6L6.934 24.933 17.467 18.8 23.6 8.267 13.067 14.4zm3.466 3.467-5.867 3.467 3.333-5.867 6-3.467-3.467 5.867z"/>
</g></svg>
