<svg viewBox="0 0 32 32" xmlns="http://www.w3.org/2000/svg">
  <rect/>
  <path d="M30 12h-3.4v-.7c0-1.1-.9-2-2-2h-4.1c-1.1 0-2 .9-2 2v.7h-3.4c-1.1 0-2 .9-2 2v10.7c0 1.1.9 2 2 2H30c1.1 0 2-.9 2-2V14c0-1.1-.9-2-2-2m-10-.7c0-.3.3-.6.6-.6h4.1c.3 0 .6.3.6.6v.7H20zm-1.3 4c0-.6.8-1.1 1.3-1.3.5.2 1.3.6 1.3 1.3v2.8c0 .3-.3.6-.6.6h-1.4c-.3 0-.6-.3-.6-.6zm12 9.4c0 .3-.3.6-.6.6H15.3c-.3 0-.6-.3-.6-.6V14c0-.3.3-.6.6-.6h3.3c-.6.4-1.2 1.1-1.2 2v2.8c0 1.1.9 1.9 1.9 1.9h1.5c1.1 0 1.9-.9 1.9-1.9v-2.8c0-.9-.6-1.6-1.2-2H30c.3 0 .6.3.6.6zM0 28h32v1.3H0zM12 2.7H0v24h12zM10.7 4v8H1.3V4zM1.3 25.3v-12h9.3v12zm1.4-16H4v1.3H2.7zm5.3 0h1.3v1.3H8zM6.7 6.7H5.3V5.3h1.3zM3.5 8.5l-.9-1 .9-.9.9.9zm2 1 3.3-3.3.9.9-3.3 3.3z"/>
</svg>
