<svg xml:space="preserve" viewBox="0 0 32 32" xmlns="http://www.w3.org/2000/svg"><g id="icon">
  <rect/>
  <path fill="currentColor" d="M21 4h-1V3c0-1.6-1.3-3-3-3h-2.1c-1.6 0-3 1.3-3 3v1h-1C9.3 4 8 5.3 8 7v22c0 1.6 1.3 3 3 3h10c1.6 0 3-1.3 3-3V7c-.1-1.7-1.4-3-3-3zm-7.7-1c0-.9.7-1.6 1.6-1.6H17c.9 0 1.6.7 1.6 1.6v1h-5.3V3zm9.3 26c0 .9-.7 1.6-1.6 1.6H11c-.9 0-1.6-.7-1.6-1.6V7c0-.9.7-1.6 1.6-1.6h10c.9 0 1.6.7 1.6 1.6v22zM10.7 16.2l10.7-3V6.7H10.7v9.5zM12 8h8v4.2l-8 2.3V8zm-1.3 21.3h10.7V14.4l-10.7 3v11.9zM12 18.5l8-2.3V28h-8v-9.5z"/>
</g></svg>
