<svg viewBox="0 0 32 32" xmlns="http://www.w3.org/2000/svg"><g id="icon">
  <path d="M11.2 18.667h.8c.933 0 2.267-.267 2.267-1.467 0-1.067-.8-1.467-1.867-1.467-.8 0-1.467.267-2 .533l-.133-1.2c.667-.267 1.6-.4 2.267-.4 1.6 0 3.067.8 3.067 2.533 0 1.2-.933 1.867-2 2.133 1.2.267 2.133.933 2.133 2.267 0 2.133-1.867 2.667-3.6 2.667-.8 0-1.6-.133-2.133-.4l.133-1.2c.533.267 1.2.533 2 .533 1.067 0 2.267-.4 2.267-1.6 0-1.333-1.067-1.733-2.267-1.733h-.933v-1.2zm9.067-2.4-1.467 1.2-.667-.933 2.267-1.867h1.2V24h-1.333v-7.733z"/>
  <path d="M25.333 2.667V1.334H24v1.333H8V1.334H6.667v1.333H1.334v28h29.333v-28h-5.333zm4 26.666H2.666V10.666h26.667v18.667zm-26.666-20V4h4v1.333H8V4h16v1.333h1.333V4h4v5.333H2.666z"/>
</g></svg>
