<svg viewBox="0 0 32 32" xmlns="http://www.w3.org/2000/svg"><g id="icon">
  <path d="M32 29.333H0V4.666c0-1.067.933-2 2-2h6.667c.8 0 1.6.267 2.133.8l2.8 2.8c.4.267.8.4 1.333.4H30c1.067 0 2 .933 2 2zM1.333 28h29.333V8.667c0-.4-.267-.667-.667-.667H14.932c-.8 0-1.6-.267-2.267-.8L9.998 4.4c-.4-.267-.8-.4-1.333-.4H1.998c-.4 0-.667.267-.667.667V28z"/>
  <path d="M20 21.333c-1.467 0-2.667-1.2-2.667-2.667s1.2-2.667 2.667-2.667 2.667 1.2 2.667 2.667-1.2 2.667-2.667 2.667m0-4c-.8 0-1.333.533-1.333 1.333S19.2 19.999 20 19.999s1.333-.533 1.333-1.333S20.8 17.333 20 17.333m4.667 9.334h-1.333v-2c0-.4-.267-.667-.667-.667h-5.333c-.4 0-.667.267-.667.667v2h-1.333v-2c0-1.067.933-2 2-2h5.333c1.067 0 2 .933 2 2zM6.933 16.133c-2 0-3.733-1.733-3.733-3.733s1.733-3.733 3.733-3.733 3.733 1.733 3.733 3.733-1.733 3.733-3.733 3.733m0-6.133c-1.333 0-2.4 1.067-2.4 2.4s1.067 2.4 2.4 2.4 2.4-1.067 2.4-2.4a2.39 2.39 0 0 0-2.4-2.4M14 26.667h-1.333v-6c0-1.067-.933-2-2-2h-8v-1.333h8A3.3 3.3 0 0 1 14 20.667z"/>
  <path d="M10 22.667h1.333v4H10z"/>
</g></svg>
