<svg viewBox="0 0 32 32" xmlns="http://www.w3.org/2000/svg"><g id="icon">
  <path d="M18.667 12h-5.333v4h-4v5.333h4v4h5.333v-4h4V16h-4v-4zm2.666 5.333V20h-4v4h-2.667v-4h-4v-2.667h4v-4h2.667v4h4z"/>
  <path d="M30 6.667H14.933c-.533 0-.933-.133-1.2-.4l-2.933-2.8c-.533-.533-1.333-.8-2.133-.8H2c-1.067 0-2 .933-2 2v24.667h32V8.667c0-1.067-.933-2-2-2zM30.667 28H1.334V4.667c0-.4.267-.667.667-.667h6.667c.533 0 .933.133 1.2.4l2.8 2.8c.667.533 1.467.8 2.267.8h15.067c.4 0 .667.267.667.667V28z"/>
</g></svg>
