<svg xml:space="preserve" viewBox="0 0 32 32" xmlns="http://www.w3.org/2000/svg"><g id="icon">
  <path d="M0 0z"/>
  <path fill="currentColor" d="M10 9.3c2.6 0 4.7-2.1 4.7-4.7S12.6 0 10 0 5.3 2.1 5.3 4.7 7.4 9.3 10 9.3zm0-8c1.8 0 3.3 1.5 3.3 3.3C13.3 6.5 11.8 8 10 8S6.7 6.5 6.7 4.7c0-1.9 1.5-3.4 3.3-3.4zM16 4v8.1c-.2 0-.4-.1-.6-.1H4.6C2.1 12 0 14.1 0 16.6v11.3C0 30.1 1.9 32 4.2 32h1.2V18.7H4.1v12c-1.5 0-2.7-1.3-2.7-2.8V16.6c0-1.8 1.5-3.3 3.3-3.3h10.8c1.8 0 3.3 1.5 3.3 3.3v11.2c0 1.5-1.1 2.7-2.6 2.8v-12h-1.3v12h-.1V32H16c2.3 0 4.2-1.9 4.2-4.2v-6.3c1.2.7 2.5 1.1 4 1.1 4.4 0 7.8-3.6 7.8-8V4H16zm14.7 1.3v1.4c-.4.1-.7.2-.9.3-.3.2-.5.3-.9.3s-.6-.1-.9-.3c-.3-.2-.8-.4-1.5-.4s-1.3.3-1.6.4c-.3.2-.5.3-.9.3s-.6-.1-.9-.3c-.3-.2-.8-.4-1.5-.4-.8 0-1.2.2-1.5.4-.3.2-.5.3-.9.3s-.6-.1-.9-.3c-.2-.1-.5-.3-.9-.3V5.3h13.3zm0 2.8v2.4c-.1 0-.2-.1-.2-.1-.3-.2-.8-.4-1.5-.4-.8 0-1.2.2-1.5.4s-.5.3-.9.3-.6-.1-.9-.3c-.5-.2-.9-.4-1.7-.4s-1.2.2-1.5.4-.5.3-.9.3-.6-.1-.9-.3-.8-.4-1.5-.4c-.8 0-1.2.2-1.5.4-.1 0-.2.1-.2.1V8.1c.1 0 .2.1.2.1.3.2.8.4 1.5.4.8 0 1.2-.2 1.5-.4.2-.1.4-.2.8-.2s.6.1.9.3.8.4 1.5.4c.8 0 1.2-.2 1.5-.4.4-.2.6-.3 1-.3s.6.1.9.3.8.4 1.5.4c.8 0 1.2-.2 1.5-.4.2-.1.3-.2.4-.2zm-13.4 4.3v-.5c.4-.1.7-.2.9-.3.3-.2.5-.3.9-.3s.6.1.9.3.8.4 1.5.4 1.2-.2 1.5-.4.5-.3.9-.3.6.1.9.3.8.4 1.5.4c.8 0 1.2-.2 1.5-.4s.5-.3.9-.3.6.1.9.3c.2.1.5.3.9.3v2c-.3-.2-.7-.4-1.4-.4s-1.1.3-1.4.4c-.2.1-.4.2-.7.2-.3 0-.5-.1-.7-.2-.3-.2-.7-.4-1.4-.4s-1.1.3-1.4.4c-.2.1-.4.2-.7.2-.3 0-.5-.1-.7-.2-.3-.2-.7-.4-1.4-.4s-1.1.3-1.4.4c-.1 0-.1.1-.2.1-.4-.7-1-1.2-1.8-1.6zM30 17.1c-.3-.2-.7-.4-1.4-.4s-1.1.3-1.4.4c-.2.1-.3.2-.6.2s-.4-.1-.6-.2c-.3-.2-.7-.4-1.4-.4s-1.1.3-1.4.4c-.2.1-.3.2-.6.2s-.4-.1-.6-.2c-.3-.2-.7-.4-1.4-.4-.3 0-.5 0-.7.1v-.2c0-.5-.1-1-.2-1.4.1-.1.2-.1.3-.2.2-.1.4-.2.7-.2.3 0 .5.1.7.2.3.2.7.4 1.4.4s1.1-.3 1.4-.4c.2-.1.4-.2.7-.2.3 0 .5.1.7.2.3.2.7.4 1.4.4s1.1-.3 1.4-.4c.2-.1.4-.2.7-.2.3 0 .5.1.7.2.2.1.4.2.7.3-.1.7-.2 1.3-.4 1.9l-.1-.1zm-6 4.2c-1.5 0-2.9-.5-4-1.4v-1.7c.2-.1.3-.2.6-.2s.4.1.6.2c.3.2.7.4 1.4.4s1.1-.3 1.4-.4c.2-.1.3-.2.6-.2s.4.1.6.2c.3.2.7.4 1.4.4s1.1-.3 1.4-.4c.2-.1.3-.2.6-.2s.4.1.6.2c.1 0 .1.1.2.1-1.1 1.9-3.1 3-5.4 3z"/>
</g></svg>
