<svg viewBox="0 0 32 32" xmlns="http://www.w3.org/2000/svg">
  <path d="M24.2 8c2.2 0 4-1.8 4-4s-1.8-4-4-4-4 1.8-4 4 1.8 4 4 4m0-6.7c1.5 0 2.7 1.2 2.7 2.7 0 1.4-1.2 2.6-2.7 2.6-1.4 0-2.6-1.2-2.6-2.7 0-1.4 1.1-2.6 2.6-2.6m7 26.9h-3V32h-1.3v-3.8h-3.3v-1.3h5.9l-2.9-11.4 1.3-.3 1.7 6.8c.7-.4 1.1-1.1 1.1-1.8l-1.6-6.9c-.6-1.8-1.3-2.5-2.5-2.5h-5.1c-1.2 0-1.9.7-2.4 2.5l-1.6 6.9c0 .8.5 1.5 1.2 1.9l1.8-6.9 1.3.3-2 7.7-.2.5-.6-.2c-1.6-.5-2.8-1.9-2.8-3.5v-.1l1.6-7c.5-1.5 1.3-3.5 3.7-3.5h5.1c2.3 0 3.1 1.7 3.7 3.4L32 20c0 1.4-.8 2.6-2.1 3.2zM24.9 12v1.3h1.3v1.3h-1.3V16h-1.3v-1.3h-1.4v-1.3h1.3V12zm-5.1 13.5-4.8-1-1.7-2.3c-.4-.4-1.2-.8-1.9-.8H5.3v-8H3.6L12 4.9l4.9 4.9.9-.9L12 3.1.4 14.7H4v6.7h-.3c-.6 0-1.3.3-1.7.7l-1 1c-.6.6-1 1.4-1 2.3v3.7c0 .8.7 1.5 1.5 1.5h1.4c.4.9 1.2 1.4 2.1 1.4s1.7-.5 2.1-1.3h7.2c.4.8 1.2 1.3 2.1 1.3s1.7-.5 2.1-1.3h1.4c.8 0 1.5-.7 1.5-1.5v-1.7c-.1-1-.7-1.8-1.6-2M5 30.7c-.6 0-1-.4-1-1s.4-1 1-1 1 .4 1 1c0 .5-.4 1-1 1m11.3 0c-.6 0-1-.4-1-1s.4-1 1-1 1 .4 1 1c0 .5-.4 1-1 1m3.7-1.6c0 .1-.1.2-.2.2h-1.2c-.2-1.1-1.1-2-2.3-2s-2.1.9-2.3 2H7.3c-.2-1.1-1.1-2-2.3-2s-2.1.9-2.3 2H1.5c-.1 0-.2-.1-.2-.2v-3.7c0-.5.2-1 .6-1.4L3 23c.2-.2.5-.3.8-.3h7.7c.2 0 .6.2.9.3l1.6 2.2.3.4.5.1 4.8 1c.3.1.5.3.5.7v1.7z"/>
</svg>
