<svg xmlns="http://www.w3.org/2000/svg" viewBox="0 0 24 24" xml:space="preserve"><symbol id="icon">
    <path fill="none" d="M0 0h24v24H0z"/>
    <path d="m14.814 19.102-3.586-.767-1.259-1.754c-.327-.328-.925-.576-1.391-.577H4V10H2.707L9 3.707l3.646 3.647.708-.708L9 2.293.293 11H3v5.003h-.209c-.475 0-.94.192-1.276.528l-.795.796A2.439 2.439 0 0 0 0 19.063v2.785C0 22.483.517 23 1.152 23h1.024c.282.59.879 1 1.574 1s1.292-.41 1.574-1h5.351c.283.59.88 1 1.575 1s1.292-.41 1.575-1h1.023c.635 0 1.152-.517 1.152-1.152v-1.279c0-.703-.499-1.32-1.186-1.467zM3.75 23a.751.751 0 0 1 0-1.5.751.751 0 0 1 0 1.5zm8.5 0a.751.751 0 0 1 0-1.5.751.751 0 0 1 0 1.5zM15 21.848a.153.153 0 0 1-.152.152h-.873c-.123-.846-.846-1.5-1.725-1.5s-1.602.654-1.725 1.5h-5.05c-.123-.846-.846-1.5-1.725-1.5s-1.602.654-1.725 1.5h-.873A.153.153 0 0 1 1 21.848v-2.785c0-.388.151-.753.427-1.029l.795-.796a.814.814 0 0 1 .569-.235h5.785c.203.002.543.143.632.222l1.432 2.006 3.964.85c.23.048.396.254.396.488v1.279zM17.5 9v1h-1v1h1v1h1v-1h1v-1h-1V9zM18 6c1.654 0 3-1.346 3-3s-1.346-3-3-3-3 1.346-3 3 1.346 3 3 3zm0-5c1.103 0 2 .897 2 2s-.897 2-2 2-2-.897-2-2 .897-2 2-2z"/>
    <path d="m23.905 14.382-1.28-5.149A2.941 2.941 0 0 0 19.768 7h-3.536c-1.354 0-2.529.918-2.857 2.234l-1.277 5.139a2.853 2.853 0 0 0 1.974 3.473l.492.137 1.62-6.23h-1.035l-1.278 4.92a1.856 1.856 0 0 1-.806-2.049l1.28-5.148A1.941 1.941 0 0 1 16.233 8h3.536c.894 0 1.67.607 1.886 1.475l1.283 5.158a1.826 1.826 0 0 1-.756 2l-1.327-4.88h-1.036L22.06 20H17.5v1h2.444v3h1v-3h2.425l-.915-3.364a2.843 2.843 0 0 0 1.451-3.254z"/>
</symbol></svg>
