<svg viewBox="0 0 32 32" xmlns="http://www.w3.org/2000/svg"><g id="icon">
  <path d="M18.667 23.333V32H20v-8.667A3.3 3.3 0 0 1 23.333 20H32v-1.333h-8.667c-2.533 0-4.667 2.133-4.667 4.667zm8.666-6c2.533 0 4.667-2.133 4.667-4.667s-2.133-4.667-4.667-4.667-4.667 2.133-4.667 4.667 2.133 4.667 4.667 4.667m0-8c1.867 0 3.333 1.467 3.333 3.333s-1.467 3.333-3.333 3.333S24 14.532 24 12.666a3.3 3.3 0 0 1 3.333-3.333"/>
  <path d="M22.667 25.333H24V32h-1.333zM0 17.333h18.667v1.333H0zM18.667 0h-5.333v16h5.333zm-1.334 14.667h-2.667V1.334h2.667zM12 5.333H6.667V16H12zm-1.333 9.334H8v-8h2.667zm-5.334-12H0V16h5.333zM4 14.667H1.333V4H4z"/>
</g></svg>
