<svg viewBox="0 0 32 32" xmlns="http://www.w3.org/2000/svg"><g id="icon">
  <path d="M8 17.333H0v1.333h8a3.3 3.3 0 0 1 3.333 3.333v10h1.333v-10c0-2.533-2.133-4.667-4.667-4.667zm-3.333-2c2.533 0 4.667-2.133 4.667-4.667S7.201 5.999 4.667 5.999 0 8.132 0 10.666s2.133 4.667 4.667 4.667zm0-8C6.534 7.333 8 8.8 8 10.666s-1.467 3.333-3.333 3.333-3.333-1.467-3.333-3.333 1.467-3.333 3.333-3.333z"/>
  <path d="M7.333 22.667h1.333V32H7.333v-9.333zM26.667 14C29.6 14 32 11.6 32 8.667s-2.4-5.333-5.333-5.333-5.333 2.4-5.333 5.333S23.734 14 26.667 14zm0-9.333c2.267 0 4 1.733 4 4s-1.733 4-4 4-4-1.733-4-4 1.733-4 4-4zM14.667 22v10H16V22c0-2.533 2.133-4.667 4.667-4.667H32V16H20.667c-3.333 0-6 2.667-6 6z"/>
  <path d="M20 22.667h1.333V32H20v-9.333z"/>
</g></svg>
