<svg viewBox="0 0 32 32" xmlns="http://www.w3.org/2000/svg"><g id="icon">
  <path d="M6 8c1.467 0 2.667-1.2 2.667-2.667S7.467 2.666 6 2.666s-2.667 1.2-2.667 2.667S4.533 8 6 8zm0-4c.8 0 1.333.533 1.333 1.333S6.8 6.666 6 6.666s-1.333-.533-1.333-1.333S5.2 4 6 4zm19.067 4c1.467 0 2.667-1.2 2.667-2.667s-1.2-2.667-2.667-2.667c-1.467 0-2.667 1.2-2.667 2.667S23.6 8 25.067 8zm0-4c.8 0 1.333.533 1.333 1.333s-.533 1.333-1.333 1.333c-.8 0-1.333-.533-1.333-1.333S24.401 4 25.067 4zm-9.734 14c1.067 0 2-.933 2-2s-.933-2-2-2-2 .933-2 2 .933 2 2 2zm0-2.667c.4 0 .667.267.667.667s-.267.667-.667.667-.667-.267-.667-.667.267-.667.667-.667z"/>
  <path d="m31.733 16.8-1.467-5.867c-.267-.933-1.067-1.6-2-1.6h-5.867c-.933 0-1.733.667-2 1.467l-1.467 5.867c-.133.4-.133.933 0 1.333-1.067.4-2.267.533-3.6.533-1.2 0-2.267-.133-3.333-.533v-6c0-1.467-1.2-2.667-2.667-2.667H2.665A2.675 2.675 0 0 0-.002 12v6c0 1.6 1.2 2.933 2.667 3.2V32h6.667V21.467c1.2.533 2.667.933 4 1.067v9.467h4v-9.467c1.067-.133 2-.4 2.933-.667L19.732 24h2.267v8h6.667v-8h2.267L30 20.533c.533-.267 1.067-.667 1.333-1.333.533-.667.667-1.6.4-2.4zM8 30.667H6.667V20H5.334v10.667H4.001V13.334H2.668v6.533C1.868 19.6 1.335 18.8 1.335 18v-6c0-.8.533-1.333 1.333-1.333h6.667c.8 0 1.333.533 1.333 1.333v6c0 .933-.533 1.6-1.333 1.867v-6.533H8.002v17.333zm8 0h-1.333v-9.333c-1.333 0-2.667-.267-3.867-.667.4-.267.667-.667.933-1.067 1.2.4 2.4.533 3.733.533 1.467 0 2.8-.267 4-.667.267.4.667.8 1.067 1.067-1.333.533-2.933.8-4.4.933v9.2zM23.333 24h1.333v6.667h-1.333V24zm4 6.667H26V24h1.333v6.667zm2.934-12.134c-.133.267-.4.4-.533.667l-1.6-5.867h-1.333l2.4 9.333h-7.733l2.4-9.333h-1.333L21.068 19.2c-.267-.133-.4-.4-.533-.667-.267-.4-.4-.933-.267-1.467l1.467-5.867c.133-.267.4-.533.667-.533h5.867c.267 0 .533.267.667.533l1.467 5.867c.133.533.133 1.067-.133 1.467z"/>
</g></svg>
