<svg viewBox="0 0 32 32" xmlns="http://www.w3.org/2000/svg"><g id="icon">
  <path d="M30.667 1.333H1.334v18.8c-.8.8-1.333 2-1.333 3.2V32h1.333v-8.667A3.3 3.3 0 0 1 4.667 20h7.6c.933 0 1.733-.4 2.4-.933L21.734 12a1.29 1.29 0 0 1 1.867 0c.267.133.4.533.4.933s-.133.667-.4.933l-8.533 8.533c-1.2 1.067-1.733 2.667-1.733 4.267v5.333h1.333v-5.467c0-.4.133-.8.133-1.2h15.867v-24zM29.333 24H15.466c.133-.267.4-.533.533-.667l8.533-8.533c.533-.533.8-1.2.8-1.867s-.267-1.333-.8-1.867l3.867-3.867-.933-.933-4.133 4.133c-.933-.267-1.867 0-2.667.667l-7.067 7.067c-.267.267-.8.533-1.333.533h-7.6c-.667 0-1.333.133-2 .533V2.666h26.667v21.333z"/>
  <path d="M10 17.333c2.533 0 4.667-2.133 4.667-4.667S12.534 7.999 10 7.999s-4.667 2.133-4.667 4.667c0 2.533 2.133 4.667 4.667 4.667m0-8c1.867 0 3.333 1.467 3.333 3.333S11.866 15.999 10 15.999s-3.333-1.467-3.333-3.333A3.3 3.3 0 0 1 10 9.333M4 24.667h1.333V32H4z"/>
</g></svg>
