<svg viewBox="0 0 32 32" xmlns="http://www.w3.org/2000/svg"><g id="icon">
  <path d="M16 6.4c-1.333 0-2.4-1.067-2.4-2.4s1.067-2.4 2.4-2.4 2.4 1.067 2.4 2.4-1.067 2.4-2.4 2.4zm0-3.467c-.533 0-1.067.4-1.067 1.067s.4 1.067 1.067 1.067 1.067-.4 1.067-1.067S16.534 2.933 16 2.933m4 8.4h-1.333v-2c0-.4-.267-.667-.667-.667h-4c-.4 0-.667.267-.667.667v2H12v-2c0-1.067.933-2 2-2h4c1.067 0 2 .933 2 2zM6.667 24.267c-1.333 0-2.4-1.067-2.4-2.4s1.067-2.133 2.4-2.133 2.4 1.067 2.4 2.4-1.067 2.133-2.4 2.133m0-3.2c-.533 0-1.067.4-1.067 1.067s.4 1.067 1.067 1.067 1.067-.4 1.067-1.067-.533-1.067-1.067-1.067m4 8.266H9.334v-2c0-.4-.267-.667-.667-.667h-4c-.4 0-.667.267-.667.667v2H2.667v-2c0-1.067.933-2 2-2h4c1.067 0 2 .933 2 2zm14.666-5.066c-1.333 0-2.4-1.067-2.4-2.4s1.067-2.4 2.4-2.4 2.4 1.067 2.4 2.4-1.067 2.4-2.4 2.4m0-3.2c-.533 0-1.067.4-1.067 1.067s.4 1.067 1.067 1.067 1.067-.4 1.067-1.067-.533-1.067-1.067-1.067m4 8.266H28v-2c0-.4-.267-.667-.667-.667h-4c-.4 0-.667.267-.667.667v2h-1.333v-2c0-1.067.933-2 2-2h4c1.067 0 2 .933 2 2zM20 25.867c-1.2.533-2.533.8-4 .8s-2.8-.267-4-.8v1.467c1.2.4 2.533.667 4 .667s2.8-.267 4-.667zM21.333 5.2v1.467c3.2 1.867 5.333 5.333 5.333 9.2 0 .667-.133 1.333-.133 2h1.333c.133-.667.133-1.333.133-2 0-4.533-2.667-8.667-6.667-10.667zM10.667 6.8V5.2C6.667 7.2 4 11.333 4 16c0 .667.133 1.333.133 2h1.333c0-.667-.133-1.333-.133-2 0-4 2.133-7.333 5.333-9.2z"/>
</g></svg>
