<svg viewBox="0 0 32 32" xmlns="http://www.w3.org/2000/svg"><g id="icon">
  <path d="M23.333 13.333c1.867 0 3.333-1.467 3.333-3.333s-1.467-3.333-3.333-3.333S20 8.134 20 10s1.467 3.333 3.333 3.333m0-5.333c1.067 0 2 .933 2 2s-.933 2-2 2-2-.933-2-2 .933-2 2-2"/>
  <path d="M30 0H3.333c-1.067 0-2 .933-2 2v19.467c-.8.8-1.333 2-1.333 3.2V32h1.333v-7.333a3.3 3.3 0 0 1 3.333-3.333h9.333a3.3 3.3 0 0 1 3.333 3.333V32h1.333v-6.667h11.333c1.067 0 2-.933 2-2V2c0-1.067-.933-2-2-2zm-3.333 24v-5.333h-1.333V24h-4v-5.333h-1.333V24h-1.333v-6c0-1.067.933-2 2-2h5.333c1.067 0 2 .933 2 2v6h-1.333zm4-.667c0 .4-.267.667-.667.667h-.667v-6A3.3 3.3 0 0 0 26 14.667h-5.333A3.3 3.3 0 0 0 17.334 18v3.467c-.8-.933-2-1.467-3.333-1.467H4.668c-.667 0-1.333.133-2 .533v-15.2h28v18zm0-19.333h-28V2c0-.4.267-.667.667-.667h26.667c.4 0 .667.267.667.667v2z"/>
  <path d="M9.333 18.667C11.866 18.667 14 16.534 14 14s-2.133-4.667-4.667-4.667S4.666 11.466 4.666 14c0 2.533 2.133 4.667 4.667 4.667m0-8c1.867 0 3.333 1.467 3.333 3.333s-1.467 3.333-3.333 3.333S6 15.866 6 14a3.3 3.3 0 0 1 3.333-3.333m4 14.666h1.333V32h-1.333zm-9.333 0h1.333V32H4zM16.8 2.667a.8.8 0 1 1-1.6 0 .8.8 0 0 1 1.6 0"/>
</g></svg>
