<svg viewBox="0 0 32 32" xmlns="http://www.w3.org/2000/svg"><g id="icon">
  <path d="M12.667 20h-8c-1.2 0-2.4.533-3.333 1.333-.933.933-1.333 2-1.333 3.333v7.333h1.333v-7.333c0-.933.4-1.733.933-2.4.667-.533 1.467-.933 2.4-.933h8A3.3 3.3 0 0 1 16 24.666v7.333h1.333v-7.333c0-2.533-2.133-4.667-4.667-4.667zm-3.334-2C11.866 18 14 15.867 14 13.333s-2.133-4.667-4.667-4.667-4.667 2.133-4.667 4.667S6.799 18 9.333 18m0-8c1.867 0 3.333 1.467 3.333 3.333s-1.467 3.333-3.333 3.333S6 15.199 6 13.333A3.3 3.3 0 0 1 9.333 10"/>
  <path d="M13.333 26.667h1.333V32h-1.333zm-9.333 0h1.333V32H4zM23.333 0c-4.8 0-8.667 3.333-8.667 7.333 0 2 .933 3.733 2.4 5.067l-2.4 4.8 7.6-2.533h1.067c4.8 0 8.667-3.333 8.667-7.333S28.133.001 23.333.001zm0 13.333h-1.2l-4.8 1.467L18.8 12l-.4-.267c-1.467-1.067-2.4-2.667-2.4-4.4 0-3.333 3.333-6 7.333-6s7.333 2.667 7.333 6-3.333 6-7.333 6"/>
</g></svg>
