<svg viewBox="0 0 32 32" xmlns="http://www.w3.org/2000/svg">
  <path d="M12.67 20h-8c-1.2 0-2.4.53-3.33 1.33-.93.93-1.33 2-1.33 3.33v7.33h1.33v-7.33c0-.93.4-1.73.93-2.4.67-.53 1.47-.93 2.4-.93h8A3.3 3.3 0 0 1 16 24.67V32h1.33v-7.33c0-2.53-2.13-4.67-4.67-4.67zm-3.34-2c2.54 0 4.67-2.13 4.67-4.67s-2.13-4.67-4.67-4.67-4.67 2.13-4.67 4.67S6.8 18 9.33 18m0-8c1.87 0 3.33 1.47 3.33 3.33s-1.47 3.33-3.33 3.33S6 15.2 6 13.33A3.3 3.3 0 0 1 9.33 10m4 16.67h1.33V32h-1.33zm-9.33 0h1.33V32H4zM23.33 0c-4.8 0-8.67 3.33-8.67 7.33 0 2 .93 3.73 2.4 5.07l-2.4 4.8 7.6-2.53h1.07c4.8 0 8.67-3.33 8.67-7.33S28.13 0 23.33 0m0 13.33h-1.2l-4.8 1.47L18.8 12l-.4-.27c-1.47-1.07-2.4-2.67-2.4-4.4 0-3.33 3.33-6 7.33-6s7.33 2.67 7.33 6-3.33 6-7.33 6"/>
</svg>
