<svg viewBox="0 0 32 32" xmlns="http://www.w3.org/2000/svg">
  <path d="M14.7 7.3c0-4-3.3-7.3-7.3-7.3S0 3.3 0 7.3C0 8.6.3 9.9 1 11l6.3 11 6.3-11c.7-1.1 1.1-2.4 1.1-3.7m-2.2 3-5.2 9-5.2-9c-.5-.9-.8-2-.8-3 0-3.3 2.7-6 6-6s6 2.7 6 6c0 1.1-.3 2.1-.8 3M7.3 4.7c-1.5 0-2.7 1.2-2.7 2.7S5.9 10 7.3 10 10 8.8 10 7.3 8.8 4.7 7.3 4.7m0 4C6.6 8.7 6 8.1 6 7.3S6.6 6 7.3 6s1.3.6 1.3 1.3-.5 1.4-1.3 1.4m6 10.1V32H32V18.8zm16.5 1.3-6.7 6.8c-.2.2-.4.2-.5.2s-.3 0-.5-.2l-6.7-6.8zm-8.7 7.8c.4.5.9.7 1.5.7s1.1-.2 1.5-.7l1.5-1.5 4.2 4.4H15.5l4.2-4.4zm-2.4-2.5-4.1 4.3v-8.5zm12 4.3-4.1-4.3 4.1-4.2z"/>
</svg>
