<svg xmlns="http://www.w3.org/2000/svg" viewBox="0 0 24 24" xml:space="preserve"><symbol id="icon">
    <path fill="none" d="M0 0h24v24H0z"/>
    <path d="M11 5.5C11 2.5 8.6 0 5.5 0S0 2.4 0 5.5c0 1 .3 1.9.7 2.8l4.8 8.2 4.8-8.2c.4-.9.7-1.8.7-2.8zM9.4 7.8l-3.9 6.7-3.9-6.7C.4 5.6 1.1 2.9 3.2 1.6s4.9-.5 6.2 1.6c.8 1.4.8 3.2 0 4.6z"/>
    <path d="M5.5 3.5c-1.1 0-2 .9-2 2s.9 2 2 2 2-.9 2-2-.9-2-2-2zm0 3c-.6 0-1-.4-1-1s.4-1 1-1 1 .4 1 1-.4 1-1 1zM23 14H10v10h14V14h-1zm-5.6 6.2c-.2.2-.5.2-.6.1l-.1-.1-5-5.2h10.7c-1.5 1.5-4.5 4.6-5 5.2zm-3.2-1.1L11 22.3v-6.6l3.2 3.4zm.7.7 1 1.1c.3.3.7.5 1.1.5.4 0 .7-.2 1-.5l1-1.1 3.3 3.2H11.7l3.2-3.2zm4.9-.7 3.2-3.3v6.5l-3.2-3.2z"/>
</symbol></svg>
