<svg viewBox="0 0 32 32" xmlns="http://www.w3.org/2000/svg">
  <path d="M10.7 6.7c1.8 0 3.3-1.5 3.3-3.3C14 1.5 12.5 0 10.7 0S7.3 1.5 7.3 3.3c0 1.9 1.5 3.4 3.4 3.4m0-5.4c1.1 0 2 .9 2 2s-.9 2-2 2-2-.9-2-2 .9-2 2-2M16 11.4c0-1.1-.9-2-2-2H7.3V8H14c1.9 0 3.4 1.5 3.4 3.4v7.3H16zm-9.3 0v7.3H5.3v-7.3c0-1.1-.9-2-2-2H0V8h3.3c1.9 0 3.4 1.5 3.4 3.4m6.6 1.3h1.3v6h-1.3zm-10.7 0h1.3v6H2.6zm24.1 8.6V20c0-2.2-1.8-4-4-4s-4 1.8-4 4v1.3H16V32h13.4V21.3zM20 20c0-1.5 1.2-2.7 2.7-2.7s2.7 1.2 2.7 2.7v1.3H20zm8 10.7H17.3v-8H28zm-6-2.8v.8c0 .4.3.7.7.7s.7-.3.7-.7v-.8c.8-.3 1.3-1 1.3-1.9 0-1.1-.9-2-2-2s-2 .9-2 2c0 .9.5 1.6 1.3 1.9m.7-2.6c.4 0 .7.3.7.7s-.3.7-.7.7-.7-.3-.7-.7.3-.7.7-.7M0 6.7V5.3c1.1 0 2-.9 2-2s-.9-2-2-2V0c1.8 0 3.3 1.5 3.3 3.3 0 1.9-1.5 3.4-3.3 3.4"/>
</svg>
