<svg xml:space="preserve" viewBox="0 0 32 32" xmlns="http://www.w3.org/2000/svg"><g id="icon">
  <path fill="currentColor" d="M2.7 12.7H4v6H2.7v-6zm4.7-9.4C7.4 1.5 8.9 0 10.7 0 12.5 0 14 1.5 14 3.3c0 1.8-1.5 3.3-3.3 3.3-1.8.1-3.3-1.4-3.3-3.3zm1.3 0c0 1.1.9 2 2 2s2-.9 2-2-.9-2-2-2-2 .9-2 2zM3.3 8H.1v1.3h3.3c1.1 0 2 .9 2 2v7.3h1.3v-7.3C6.7 9.5 5.2 8 3.3 8zm27.4 12v1.3h-1.3V20c0-1.5-1.2-2.7-2.7-2.7-1.5 0-2.7 1.2-2.7 2.7v1.3h2.7V32H13.3V21.3h9.4V20c0-2.2 1.8-4 4-4s4 1.8 4 4zm-16.1 2.7v8h10.7v-8H14.6zM18 26c0-1.1.9-2 2-2s2 .9 2 2c0 .9-.6 1.6-1.3 1.9v.8c0 .4-.3.7-.7.7-.4 0-.7-.3-.7-.7v-.8c-.8-.3-1.3-1-1.3-1.9zm1.3 0c0 .4.3.7.7.7s.7-.3.7-.7-.3-.7-.7-.7-.7.3-.7.7zm-3.2-14.6v7.3h1.3v-7.3C17.4 9.5 15.9 8 14 8H7.4v1.3H14c1.1 0 2.1 1 2.1 2.1zm-2.7 7.3h1.3v-6h-1.3v6zM3.4 3.3C3.4 1.5 1.9 0 .1 0H0v1.3h.1c1.1 0 2 .9 2 2s-.9 2-2 2H0v1.3h.1c1.8.1 3.3-1.4 3.3-3.3z"/>
</g></svg>
