<svg xmlns="http://www.w3.org/2000/svg" viewBox="0 0 24 24" xml:space="preserve"><symbol id="icon">
    <path fill="none" d="M0 0h24v24H0z"/>
    <path d="M24 7V6h-8v1h3.5v1.071c-.521.136-.96.476-1.225.929H5.725A2.012 2.012 0 0 0 4.5 8.071V7H8V6H0v1h3.5v1.071C2.64 8.295 2 9.071 2 10c0 1.103.897 2 2 2h3v3.41c0 .877.713 1.59 1.59 1.59h6.82c.877 0 1.59-.713 1.59-1.59V12h3c1.103 0 2-.897 2-2 0-.93-.64-1.705-1.5-1.929V7H24zM3 10c0-.551.449-1 1-1s1 .449 1 1c0 .551-.449 1-1 1s-1-.449-1-1zm11 3.3V16h-4V12.946c0-.522.497-.946 1.106-.946h1.788c.61 0 1.106.424 1.106.946v.354zm2-2.3v4.41a.59.59 0 0 1-.59.59H15V12.946C15 11.873 14.055 11 12.894 11h-1.788C9.945 11 9 11.873 9 12.946V16h-.41a.59.59 0 0 1-.59-.59V11H5.722c.172-.295.278-.634.278-1h12c0 .366.106.705.278 1H16zm5-1a1 1 0 0 1-2 0 1 1 0 0 1 2 0z"/>
</symbol></svg>
