<svg viewBox="0 0 32 32" xmlns="http://www.w3.org/2000/svg">
  <path d="M31.9 9.3V8H21.3v1.3H26v1.4c-.7.2-1.3.6-1.6 1.2H7.6c-.4-.6-.9-1.1-1.6-1.2V9.3h4.7V8H0v1.3h4.7v1.4c-1.1.3-2 1.3-2 2.6 0 1.5 1.2 2.7 2.7 2.7h4v4.5c0 1.2 1 2.1 2.1 2.1h9.1c1.2 0 2.1-1 2.1-2.1V16h4c1.5 0 2.7-1.2 2.7-2.7 0-1.2-.9-2.3-2-2.6V9.3zM4 13.3c0-.7.6-1.3 1.3-1.3s1.3.6 1.3 1.3-.6 1.3-1.3 1.3S4 14.1 4 13.3m14.7 8h-5.3v-3.9c0-.8.6-1.4 1.4-1.4h2.6c.8 0 1.4.6 1.4 1.4v3.9zm2.6-6.6v5.9c0 .4-.4.8-.8.8H20v-3.9c0-1.5-1.2-2.7-2.7-2.7h-2.6c-1.5 0-2.7 1.2-2.7 2.7v3.9h-.5c-.4 0-.8-.4-.8-.8v-5.9h-3c.2-.4.3-.9.3-1.4h16c0 .5.1.9.4 1.3h-3.1zm6.7-1.4c0 .7-.6 1.3-1.3 1.3s-1.3-.6-1.3-1.3.6-1.3 1.3-1.3 1.3.6 1.3 1.3"/>
</svg>
