<svg xmlns="http://www.w3.org/2000/svg" viewBox="0 0 24 24" xml:space="preserve"><symbol id="icon">
    <path fill="none" d="M0 0h24v24H0z"/>
    <path d="M20 13.412A3.416 3.416 0 0 0 16.588 10h-1.881l-5-5L5 .293.293 5h8l5 5h-5.88A3.416 3.416 0 0 0 4 13.412v4.176c0 .954.415 1.795 1.05 2.413A2.503 2.503 0 0 0 7.5 23c1.207 0 2.217-.86 2.45-2h.1c.233 1.14 1.243 2 2.45 2 1.208 0 2.217-.86 2.45-2h.1c.233 1.14 1.242 2 2.45 2 1.379 0 2.5-1.121 2.5-2.5 0-.496-.15-.955-.399-1.344.25-.47.399-1 .399-1.568v-4.176zM2.707 4 5 1.707 7.293 4H2.707zM7.5 22c-.827 0-1.5-.673-1.5-1.5S6.673 19 7.5 19s1.5.673 1.5 1.5S8.327 22 7.5 22zm5 0c-.827 0-1.5-.673-1.5-1.5s.673-1.5 1.5-1.5 1.5.673 1.5 1.5-.673 1.5-1.5 1.5zm2.55-2h-.1a2.504 2.504 0 0 0-2.45-2c-1.207 0-2.217.86-2.45 2h-.1a2.504 2.504 0 0 0-2.45-2c-.826 0-1.554.407-2.01 1.027a2.371 2.371 0 0 1-.49-1.44V17h11.793l1.05 1.05c-.114-.016-.223-.05-.343-.05-1.208 0-2.217.86-2.45 2zm2.45 2c-.827 0-1.5-.673-1.5-1.5s.673-1.5 1.5-1.5 1.5.673 1.5 1.5-.673 1.5-1.5 1.5zm1.5-4.412c0 .064-.014.123-.02.184L17.206 16H5v-2.588A2.415 2.415 0 0 1 7.412 11h6.881l2.353 2.354.708-.708L15.707 11h.88A2.415 2.415 0 0 1 19 13.412v4.176z"/>
</symbol></svg>
