<svg viewBox="0 0 32 32" xmlns="http://www.w3.org/2000/svg">
  <path d="M19.7.6 21 4h-2.3v1.3h2.6v1.4c0 2.5 2.1 4.6 4.7 4.6s4.7-2.1 4.7-4.6v-6zm9.7 6.1c0 1.8-1.6 3.3-3.4 3.3s-3.3-1.5-3.3-3.3V5.3h6.7zM29.3 4h-6.9l-.7-2h7.7zm-8.2 9.4c-1.2 0-2.4.5-3.3 1.4l-8.2 8.4c-.5.5-.8 1.2-.8 1.9 0 .6.2 1.2.6 1.6H5.3v-12H1.9c-1.1 0-1.9.9-1.9 1.9v9.5c0 1 .9 1.9 1.9 1.9H4v2.1c0 .9.6 1.7 1.5 1.9h10.2c.9-.2 1.5-1 1.5-1.9v-3.4h-3.6l6.9-7V32H22v-4h8.7v-1.3H23l7.7-7.6v-1.9L22 25.8v-9.4L12.5 26c-.5.5-1.4.5-1.9 0-.3-.3-.4-.6-.4-.9 0-.4.1-.7.4-1l8.2-8.4c.6-.6 1.4-1 2.3-1h9.5v-1.3zM4 26.7H1.9c-.3 0-.6-.3-.6-.6v-9.5c0-.3.3-.6.6-.6H4zM15.9 28v2.1c0 .3-.3.6-.6.6H5.9c-.3 0-.6-.3-.6-.6V28z"/>
</svg>
