<svg xmlns="http://www.w3.org/2000/svg" viewBox="0 0 24.062 24.074" xml:space="preserve"><symbol id="icon">
    <path d="M12.03.038C5.412.038.036 5.401.036 12.018l.02 6.267c0 .83.537 1.553 1.348 1.72.112.022.23.033.35.033h.351c.465 2.28 2.485 4 4.9 4h3.025l-.015-10h-3.01a4.934 4.934 0 0 0-3.99 2v-4c0-4.963 4.026-9 8.99-9s9.01 4.037 9.01 9v4a4.974 4.974 0 0 0-4.01-2h-2.99v10h2.99a5.008 5.008 0 0 0 4.898-4h.351c.12 0 .239-.011.35-.034.811-.166 1.432-.894 1.432-1.723v-6.239c0-6.617-5.39-12.004-12.006-12.004zm-4.515 15h1.5v8h-1.5v-8zm9 8h-1.5l.02-8h1.5l-.02 8zm-10-8v8c-1.971-.247-3.48-1.964-3.48-4s1.509-3.753 3.48-4zm11.02 8v-8c1.971.247 3.48 1.964 3.48 4s-1.509 3.753-3.48 4zm5.47-4.75a.752.752 0 0 1-.75.75h-.22l-.02-7c0-5.513-4.497-10-10.01-10s-9.99 4.487-9.99 10l-.01 7h-.25a.741.741 0 0 1-.151-.014c-.348-.07-.548-.383-.548-.739l-.02-6.247c0-6.065 4.903-11 10.968-11s11.01 4.935 11.01 11l-.01 6.25z"/>
</symbol></svg>
