<svg viewBox="0 0 32 32" xmlns="http://www.w3.org/2000/svg">
  <path d="M16 0C7.2 0 0 7.2 0 16v8.4c0 1.3 1 2.3 2.3 2.3h.5c.6 3 3.3 5.4 6.5 5.4h4V18.7h-4c-2.2 0-4.1 1.1-5.3 2.7v-5.5c0-6.6 5.4-12 12-12s12.1 5.4 12.1 12v5.5c-1.2-1.7-3.2-2.7-5.4-2.7h-4V32h4c3.2 0 5.9-2.3 6.5-5.3h.5c1.3 0 2.3-1 2.3-2.3V16c.1-8.8-7.2-16-16-16m-4 30.7h-2V20h2zM8.7 20.1v10.5C6 30.3 4 28 4 25.3s2-4.9 4.7-5.2m11.4-.1h2v10.6h-2zm3.3 10.6V20.1c2.6.3 4.7 2.5 4.7 5.3s-2.1 4.9-4.7 5.2m7.3-6.2c0 .5-.4 1-1 1h-.3V16c0-7.3-6.1-13.3-13.4-13.3S2.7 8.6 2.7 15.9v9.4h-.4c-.5 0-1-.4-1-1V16C1.3 7.9 7.9 1.3 16 1.3S30.7 7.9 30.7 16z"/>
</svg>
