<svg viewBox="0 0 32 32" xmlns="http://www.w3.org/2000/svg">
  <path d="M16.5 16.1c5.8-3.7 8.7-8.5 8.9-14.7h-1.3c0 .5-.1.9-.1 1.4H6.8c0-.4-.1-.9-.1-1.4H5.4c.2 6.2 3.1 11 8.9 14.7C8 20.9 5 25.9 5.5 30.8h1.3v-1.4H24v1.4h1.3c.5-5-2.5-9.9-8.8-14.7m3.8 5.2c.8.9 1.5 1.8 2 2.7H8.4c.5-.9 1.2-1.8 2-2.7zM11.7 20c1.1-1 2.3-2.1 3.7-3.1 1.4 1 2.6 2.1 3.7 3.1zM8.3 8h14.1c-.5.9-1 1.8-1.7 2.7H10C9.4 9.8 8.8 8.9 8.3 8m15.4-4c-.2.9-.4 1.8-.8 2.7H7.7C7.4 5.8 7.1 4.9 7 4zm-12.5 8h8.2c-1.2 1.2-2.5 2.2-4.1 3.2-1.5-1-2.9-2-4.1-3.2M6.8 28q.3-1.35.9-2.7H23q.6 1.35.9 2.7z"/>
</svg>
