<svg xmlns="http://www.w3.org/2000/svg" viewBox="0 0 24 24" xml:space="preserve"><symbol id="icon">
    <path fill="none" d="M0 0h24v24H0z"/>
    <path d="M16.5 18.25c0-.089-.018-.173-.026-.26A8.457 8.457 0 0 0 19.5 11.5C19.5 6.813 15.686 3 11 3V0H6v11.151L7.232 13h2.536L11 11.151V7c2.481 0 4.5 2.019 4.5 4.5S13.481 16 11 16H6v4h5v1H4v3h15v-3h-2.5v-2.75zM10 1v8H7V1h3zm-.768 11H7.768L7 10.849V10h3v.849L9.232 12zm7.268-.5C16.5 8.467 14.032 6 11 6V4c4.136 0 7.5 3.364 7.5 7.5a7.456 7.456 0 0 1-2.348 5.438 2.743 2.743 0 0 0-1.552-1.29 5.485 5.485 0 0 0 1.9-4.148zM7 19v-2h4c.11 0 .216-.01.323-.016-.2.38-.323.807-.323 1.266V19H7zm11 3v1H5v-1h7v-3.75c0-.965.785-1.75 1.75-1.75s1.75.785 1.75 1.75V22H18z"/>
</symbol></svg>
