<svg xmlns="http://www.w3.org/2000/svg" viewBox="0 0 24 24" xml:space="preserve"><symbol id="icon">
    <path fill="none" d="M0 0h24v24H0z"/>
    <path d="M16.793 4 14.5 6.293V2.5C14.5 1.122 13.379 0 12 0a2.503 2.503 0 0 0-2.5 2.5v8.792l-2.707 2.706H4.5v1h2.707L9.5 12.706v5.37c-.63.65-1 1.513-1 2.424 0 1.93 1.57 3.5 3.5 3.5s3.5-1.57 3.5-3.5c0-.91-.37-1.774-1-2.425V7.706L17.207 5H19.5V4h-2.707zM10.5 2.5c0-.827.673-1.5 1.5-1.5s1.5.673 1.5 1.5v4.792l-3 3V2.5zm2 18a.5.5 0 1 1-1.001-.001.5.5 0 0 1 1.001.001zm1.167-1.864A2.503 2.503 0 0 1 12 23a2.503 2.503 0 0 1-2.5-2.5c0-.71.304-1.39.833-1.863.052-.047.112-.082.167-.124v-6.808l1-1v8.387c-.58.207-1 .757-1 1.408 0 .827.673 1.5 1.5 1.5s1.5-.673 1.5-1.5c0-.651-.42-1.2-1-1.408V9.706l1-1V18.512c.055.042.115.077.167.124zM.403 1.403a.882.882 0 1 1 1.766-.002.882.882 0 0 1-1.766.002zm.456 0c0 .117.042.216.126.3s.184.126.3.126c.116 0 .216-.042.3-.126s.126-.183.126-.3-.042-.216-.126-.3-.184-.126-.3-.126c-.116 0-.216.042-.3.126s-.126.184-.126.3zM6.367 4.685c-.16.04-.336.078-.528.114s-.43.054-.714.054c-.28 0-.563-.038-.85-.114s-.543-.198-.773-.366-.418-.389-.564-.663-.22-.609-.22-1.005c0-.364.06-.683.18-.957.121-.274.288-.502.502-.684a2.11 2.11 0 0 1 .762-.408c.294-.09.613-.135.957-.135.216 0 .426.021.63.063.204.042.408.093.612.153l-.09.906c-.18-.1-.36-.174-.537-.222a2.109 2.109 0 0 0-.555-.072c-.2 0-.38.034-.54.102a1.218 1.218 0 0 0-.675.711 1.54 1.54 0 0 0-.093.543c0 .204.035.388.105.552.07.164.166.303.288.417.122.114.269.201.441.261s.36.09.564.09c.184 0 .366-.02.546-.063.18-.042.346-.093.498-.153l.054.876z"/>
    <path d="M17.338 1.184h.583v.615h.615v.583h-.615v.616h-.583v-.616h-.617V1.8h.617v-.615zM21.344 2.393v.605h-1.987v-.706l.146-.075.189-.1a6.165 6.165 0 0 0 .4-.235 3.01 3.01 0 0 0 .122-.09.785.785 0 0 0 .112-.105.522.522 0 0 0 .08-.124.358.358 0 0 0-.009-.31.314.314 0 0 0-.105-.107.48.48 0 0 0-.152-.06.84.84 0 0 0-.17-.018c-.097 0-.192.009-.287.026a1.211 1.211 0 0 0-.275.082V.521c.132-.024.263-.043.393-.057.131-.015.265-.022.402-.022s.273.013.409.038c.136.025.258.069.367.131s.197.147.265.254c.066.107.1.24.1.402a.753.753 0 0 1-.097.385 1.225 1.225 0 0 1-.248.304c-.1.09-.212.17-.333.24a8.72 8.72 0 0 1-.35.19v.007h1.028zM23.573 1.068h-.947v.389c.034-.004.076-.007.126-.009l.155-.002c.105 0 .205.018.3.054a.733.733 0 0 1 .417.396.791.791 0 0 1 .064.32c0 .164-.034.299-.102.404s-.158.19-.267.252-.232.106-.37.131-.273.038-.41.038c-.131 0-.261-.01-.388-.029a3.705 3.705 0 0 1-.386-.079v-.572c.087.019.174.036.261.052.088.016.178.024.269.024.05 0 .102-.004.156-.011a.497.497 0 0 0 .146-.042.24.24 0 0 0 .147-.236c0-.065-.015-.117-.046-.156s-.071-.071-.121-.094a.531.531 0 0 0-.161-.045 1.478 1.478 0 0 0-.395.004c-.074.01-.15.024-.223.043V.485h1.775v.583zM.846 16.748h.583v.616h.615v.583H1.43v.615H.846v-.615H.23v-.583h.616v-.616zM2.747 16.68l.946-.63h.774v2.512H3.56v-1.63l-.558.403-.255-.655zM6.786 16.633h-.947v.388c.034-.004.076-.007.126-.008l.155-.002a.84.84 0 0 1 .3.054.732.732 0 0 1 .417.396.794.794 0 0 1 .064.32c0 .163-.034.298-.103.403s-.157.19-.266.252-.232.107-.37.132a2.556 2.556 0 0 1-.799.009 3.968 3.968 0 0 1-.384-.08v-.571c.086.018.173.036.26.051.088.016.178.024.269.024.05 0 .102-.004.156-.01a.48.48 0 0 0 .146-.042.28.28 0 0 0 .106-.087.243.243 0 0 0 .042-.15.244.244 0 0 0-.047-.156.316.316 0 0 0-.121-.093.534.534 0 0 0-.162-.045 1.463 1.463 0 0 0-.394.004c-.074.01-.149.023-.223.043V16.05h1.775v.583z"/>
</symbol></svg>
