<svg xmlns="http://www.w3.org/2000/svg" viewBox="0 0 24 24" xml:space="preserve"><symbol id="icon">
    <path fill="none" d="M0 0h24v24H0z"/>
    <path d="M6.35 6.366 6 6.191V0H2v6.19l-.35.176A2.968 2.968 0 0 0 0 9.036V22.5c0 .602.4 1.5 1.5 1.5h5c.603 0 1.5-.4 1.5-1.5V9.036c0-1.138-.632-2.161-1.65-2.67zM7 22.5c0 .402-.275.494-.5.5h-5c-.401 0-.494-.273-.5-.504V9.036c0-.757.42-1.437 1.097-1.775L3 6.809V1h2v5.81l.903.45A1.974 1.974 0 0 1 7 9.037V22.5zM17.038 14h-1.076C12.123 14 9 17.252 9 21.25 9 22.767 10.19 24 11.654 24h9.692C22.81 24 24 22.767 24 21.25c0-3.998-3.123-7.25-6.962-7.25zm4.308 9h-9.692C10.742 23 10 22.215 10 21.25c0-2.316 1.21-4.337 3-5.417V19h1v-3.645A5.678 5.678 0 0 1 15.962 15H16v4h1v-4h.038c.688 0 1.347.13 1.962.355V19h1v-3.166c1.79 1.08 3 3.1 3 5.416 0 .965-.742 1.75-1.654 1.75zm-10.234-9.503c.492 0 .986-.17 1.382-.513l7.583-6.572c.591-.513.946-1.255.974-2.036A2.82 2.82 0 0 0 20.73 3H22.5V2h-1.293l.785-.786-.707-.707-.785.785V0h-1v1.764a2.722 2.722 0 0 0-1.376-.315 2.839 2.839 0 0 0-2.036.973l-6.572 7.584a2.119 2.119 0 0 0 .102 2.876c.409.409.95.615 1.494.615zm-.84-2.835.635-.734 1.186 1.186.707-.707-1.236-1.237 4.596-5.303 1.59 1.59.707-.707-1.64-1.64.027-.032a1.811 1.811 0 0 1 1.384-.631c.487 0 .943.188 1.29.535.362.363.552.845.534 1.358-.019.513-.242.98-.63 1.316L16.36 8.31 14.922 6.87l-.707.707 1.388 1.388-3.765 3.263a1.113 1.113 0 0 1-1.513-.054 1.114 1.114 0 0 1-.054-1.513z"/>
</symbol></svg>
