<svg xmlns="http://www.w3.org/2000/svg" viewBox="0 0 24 24" xml:space="preserve"><symbol id="icon">
    <path fill="#1D1D1B" d="M12.5 3h-1V0h1v3zM7.404 4.697 5.282 2.575l-.707.707 2.122 2.122.707-.707zM5 9.5H2v1h3v-1zm-.425 7.218.707.707 2.122-2.121-.707-.707-2.122 2.12zm12.022-1.414 2.12 2.12.708-.706-2.121-2.121-.707.707zM19 9.5v1h3v-1h-3zm.425-6.218-.707-.707-2.121 2.122.707.707 2.12-2.122zm-2.707 10.421c-1.42 1.8-1.718 3.96-1.718 5.453V20H9v-1.09c0-1.821-.654-3.702-1.892-5.44-.951-1.335-1.307-2.975-1.001-4.618.435-2.337 2.286-4.233 4.605-4.717a6.037 6.037 0 0 1 5.07 1.206A5.981 5.981 0 0 1 18 10a5.93 5.93 0 0 1-1.282 3.703zm-.785-.619A4.94 4.94 0 0 0 17 10a4.983 4.983 0 0 0-1.849-3.882c-1.175-.956-2.717-1.32-4.235-1.005-1.926.403-3.464 1.98-3.826 3.922-.256 1.374.04 2.743.832 3.856C9.282 14.798 10 16.879 10 18.91V19h4.001c.021-1.645.384-3.953 1.932-5.916zM10 24h4v-1h-4v1zm-1-2h6v-1H9v1zm3-16v1c1.654 0 3 1.346 3 3h1c0-2.206-1.794-4-4-4z"/>
</symbol></svg>
