<svg viewBox="0 0 32 32" xmlns="http://www.w3.org/2000/svg">
  <path d="M8.3 24.1c3.3 0 6.7-2.5 6.7-7.2 0-2.3-.7-4.3-2-6.3 0 2.3-1.4 3.4-2.3 3.4 1-6.9-4-8.6-4-8.6 0 5.1-5.3 5.9-5.3 12-.1 1.2 1 6.7 6.9 6.7M8 22.5c-.8 0-1.7-.6-1.7-1.8.8.3 1.8.1 1.8.1s-.5-1.8.2-2.6c.2.4.3.6.6.7 1.9.9 1.4 3.7-.9 3.6M5.2 11.6c.9-1.1 2-2.4 2.5-4 1 1 2.2 2.9 1.7 6.2l-.2 1.5h1.5c.9 0 1.8-.5 2.5-1.3.3.9.5 1.9.5 2.8 0 2.6-1.2 4.3-2.8 5.2.2-.5.3-1 .3-1.3 0-2.8-2.4-2.8-2.4-5.1 0 0-2 .9-2 3.8-.7 0-1-.9-1-1.8-.6.9-.9 1.8-.9 2.9 0 .5.1.9.2 1.3-2.3-1.5-2.5-4.5-2.5-4.5.1-2.7 1.2-4.1 2.6-5.7m17.7 12.5c3.4 0 6.8-1.8 6.8-6.9 0-4.4-6.8-11.8-6.8-11.8s-6.8 7.4-6.8 11.8c0 5.1 3.7 6.9 6.8 6.9m0-16.7c2.1 2.5 5.5 7 5.5 9.7 0 4.9-3.4 5.6-5.4 5.6-1.3 0-5.4-.4-5.4-5.6-.1-2.6 3.2-7.2 5.3-9.7m-3.9 11c-.1-.4.2-.7.6-.8s.7.2.8.6c.2 1.5 1.2 1.8 1.9 1.8.4 0 .7.3.7.7s-.3.7-.7.7c-1.8 0-3-1.1-3.3-3m1-4.7c.6-1.4 1.5-2.6 1.6-2.7.2-.3.6-.4.9-.1.3.2.4.6.1.9 0 0-.9 1.2-1.4 2.4-.1.3-.4.4-.6.4-.1 0-.2 0-.3-.1-.2-.1-.4-.5-.3-.8m10.7 15.6v1.3H1.3v-1.3z"/>
</svg>
