<svg xml:space="preserve" viewBox="0 0 32 32" xmlns="http://www.w3.org/2000/svg"><g id="icon">
  <path d="m13.02 15.862.093 1.26a3.99 3.99 0 0 1-.973.253 7.699 7.699 0 0 1-1.094.081 6.201 6.201 0 0 1-2.026-.315 4.516 4.516 0 0 1-1.593-.925 4.121 4.121 0 0 1-1.047-1.513c-.249-.603-.374-1.292-.374-2.069 0-.696.128-1.333.38-1.909.254-.575.6-1.071 1.04-1.487.44-.415.963-.739 1.567-.97a5.42 5.42 0 0 1 1.96-.349c.373 0 .735.025 1.087.074.351.049.686.145 1.006.288l-.12 1.259c-.55-.313-1.208-.469-1.972-.469-.525 0-1.003.09-1.434.268-.43.179-.802.424-1.113.737A3.287 3.287 0 0 0 7.68 11.2c-.174.437-.26.915-.26 1.433 0 .554.091 1.054.273 1.5.183.447.434.827.753 1.14.32.312.703.555 1.147.73.444.173.929.26 1.453.26.33 0 .649-.027.96-.08.311-.054.65-.161 1.014-.322m9.753-5.19c.208.585.314 1.239.314 1.962 0 .75-.106 1.43-.314 2.036a4.243 4.243 0 0 1-.9 1.54c-.392.42-.864.744-1.42.972-.555.227-1.18.341-1.873.341-.685 0-1.303-.114-1.854-.341s-1.025-.552-1.42-.972a4.297 4.297 0 0 1-.913-1.52c-.214-.594-.32-1.257-.32-1.99 0-.74.109-1.41.326-2.008a4.283 4.283 0 0 1 .934-1.527c.405-.42.89-.743 1.46-.972.568-.227 1.204-.341 1.907-.341.658 0 1.255.114 1.793.341.538.229 1 .552 1.387.972.386.42.685.922.893 1.506m-1.126 2.015c0-.57-.072-1.089-.214-1.553a3.502 3.502 0 0 0-.613-1.192 2.653 2.653 0 0 0-.968-.757 2.972 2.972 0 0 0-1.259-.261c-.453 0-.87.091-1.247.274a2.897 2.897 0 0 0-.973.764 3.56 3.56 0 0 0-.634 1.178 4.85 4.85 0 0 0-.227 1.521c0 .571.075 1.088.22 1.554.148.463.356.86.628 1.185a2.81 2.81 0 0 0 2.233 1.024c.453 0 .866-.089 1.24-.268.373-.178.695-.433.967-.762.271-.331.48-.724.627-1.179.145-.455.22-.965.22-1.528m5.23 4.079c-.125 0-.26.002-.405.006l-.448.011c-.153.005-.294.007-.423.007v-.024c.137-.098.276-.203.417-.317.142-.113.308-.267.502-.462.242-.25.444-.477.604-.68.162-.202.29-.39.388-.565a2.12 2.12 0 0 0 .206-.498c.04-.158.06-.318.06-.48 0-.446-.15-.792-.453-1.039-.302-.247-.704-.37-1.204-.37a3.421 3.421 0 0 0-1.44.315l.122.814c.2-.113.397-.2.586-.261.19-.061.377-.091.562-.091.267 0 .474.06.624.182.148.121.224.3.224.535 0 .373-.202.79-.606 1.252-.403.461-.947.996-1.632 1.604v.814h3.35v-.753h-.714zM32 14.675c0 3.693-2.99 6.697-6.667 6.697h-9.345v8.069l4-3.926v1.873l-4.642 4.557-4.716-4.56v-1.86l4.024 3.892v-8.045H6.667C2.99 21.372 0 18.368 0 14.675a6.603 6.603 0 0 1 2.701-5.34 8.8 8.8 0 0 1-.034-.683c0-4.809 3.88-8.707 8.666-8.707a8.624 8.624 0 0 1 6.555 3.022A6.6 6.6 0 0 1 20 2.62c3.24 0 5.96 2.328 6.529 5.496A6.648 6.648 0 0 1 32 14.675m-1.333 0a5.321 5.321 0 0 0-4.375-5.24l-.911-.165-.165-.916C24.76 5.808 22.566 3.959 20 3.959c-.575 0-1.143.094-1.688.277l-.848.287-.585-.68a7.315 7.315 0 0 0-5.546-2.558C7.29 1.285 4 4.589 4 8.652c0 .195.015.388.03.58l.058.743-.598.44a5.242 5.242 0 0 0-2.157 4.26c0 2.954 2.393 5.358 5.334 5.358h18.666c2.941 0 5.334-2.404 5.334-5.358"/>
</g></svg>
