<svg xml:space="preserve" viewBox="0 0 32 32" xmlns="http://www.w3.org/2000/svg"><g id="icon">
  <rect/>
  <path fill="currentColor" d="M17.3 14h-12v5.3h12V14zM16 18H6.7v-2.7H16V18zM32 2.7V1.3h-2.7V0h-3.2C24.9 0 24 .9 24 2.1v.5h-9c-.9 0-1.7.7-1.7 1.7V10H0v17.3h4.1c.3 1.6 1.6 2.7 3.2 2.7s3-1.1 3.3-2.7h10.8c.3 1.5 1.7 2.7 3.3 2.7 1.6 0 3-1.1 3.3-2.7h2c1.1 0 2-.9 2-2v-4.2c0-.9-.3-1.7-1-2.4L23.3 11c-.3-.3-1-.8-2.4-1h-6.2V4.3c0-.2.1-.3.3-.3h9v.6c0 1.2.9 2.1 2.1 2.1h3.2V5.3H32V4h-2.7V2.7H32zm-24.7 26c-1.1 0-2-.9-2-2s.9-2 2-2 2 .9 2 2-.9 2-2 2zm17.4 0c-1.1 0-2-.9-2-2s.9-2 2-2 2 .9 2 2-.9 2-2 2zM28 18h-4.7v-4.7L28 18zm-6-6.3v7.7h7.7l.4.4c.4.4.6.9.6 1.4v4.2c0 .4-.3.7-.7.7h-2.1c-.3-1.5-1.7-2.7-3.3-2.7-1.6 0-3 1.1-3.3 2.7H10.6c-.3-1.5-1.7-2.7-3.3-2.7s-3 1.1-3.3 2.7H1.3V11.3h19.6c.4 0 .8.1 1.1.4zm6-6.4h-1.9c-.4 0-.8-.4-.8-.8V2.1c0-.4.4-.8.8-.8H28v4z"/>
</g></svg>
