<svg viewBox="0 0 32 32" xmlns="http://www.w3.org/2000/svg">
  <rect/>
  <path d="M23.1 0H8.9C4 0 0 4 0 8.9v14.2C0 28 4 32 8.9 32h14.2c4.9 0 8.9-4 8.9-8.9V8.9C32 4 28 0 23.1 0M29 23.1c0 3.3-2.7 5.9-5.9 5.9H8.9C5.6 29 3 26.4 3 23.1V8.9C3 5.6 5.6 3 8.9 3h14.2C26.4 3 29 5.6 29 8.9zM16 7.5c-4.7 0-8.5 3.8-8.5 8.5s3.8 8.5 8.5 8.5 8.5-3.8 8.5-8.5-3.8-8.5-8.5-8.5m0 14c-3 0-5.5-2.5-5.5-5.5s2.5-5.5 5.5-5.5 5.5 2.5 5.5 5.5-2.5 5.5-5.5 5.5M26.5 7.3c0 1-.8 1.9-1.9 1.9-1 0-1.9-.8-1.9-1.9s.8-1.9 1.9-1.9c1 .1 1.9.9 1.9 1.9"/>
</svg>
