<svg xml:space="preserve" viewBox="0 0 32 32" xmlns="http://www.w3.org/2000/svg"><g id="icon">
  <rect/>
  <path fill="currentColor" d="M14.8 0h.1c.1 0 .2.1.2.1.3.3.6.5.8.8.8.9 1.5 1.9 2 3 .6 1.2 1 2.4 1.2 3.7.1.6.1 1.1.2 1.6 0 0-.1.1-.2-.1-.4-.9-.7-1.8-1.1-2.7-.9-2.1-1.9-4.2-3.1-6.2 0-.1-.1-.1-.1-.2zm9.3 16s0-.1 0 0c-.4.1-.7.2-1 .3l-.9.3-.9.3c0 .1.1.1.1.2.1.2.2.4.2.7.2.7.3 1.4.4 2.2 0 .6 0 1.2-.1 1.8-.2 1-.5 2-1 3-.7 1.2-1.5 2.2-2.7 3-1.4.9-2.9 1.4-4.5 1.4h-.1l.1-.1c1.1-.8 2-1.7 2.9-2.7 1-1.1 1.8-2.4 2.5-3.8.6-1.3 1-2.6 1.3-3.9.1-.7.2-1.3.2-2 0-1.2 0-2.4-.3-3.6-.2-1.2-.6-2.4-1-3.6 0 0 0-.1-.1-.1v3.9c0 .8-.1 1.6-.2 2.4-.1.9-.2 1.8-.4 2.6-.2 1.2-.5 2.4-.9 3.6-.4 1.1-.8 2.1-1.4 3-.6 1-1.3 1.8-2.1 2.6-.6.6-1.4 1-2.1 1.3-.1 0-.2.1-.3 0-1-.2-2-.6-2.9-1.1-1.1-.7-2-1.7-2.7-2.8-.7-1.2-1.1-2.4-1.2-3.8-.1-.8 0-1.6.1-2.3.1-.8.3-1.5.6-2.3.5-1.2 1.3-2.2 2.3-3.1.7-.6 1.4-1.1 2.3-1.5.8-.3 1.6-.5 2.4-.6.6-.1 1.2 0 1.7 0 .7.1 2 .5 2.1.6.1-.3.8-2.1.9-2.4-.1-.1-.2-.1-.2-.1-1-.3-2.1-.5-3.1-.6-1 0-1.9 0-2.9.2-1.4.3-2.6.8-3.8 1.5-1.2.8-2.2 1.8-3 3-1.3 1.8-2 3.9-2.1 6.1 0 .8 0 1.6.1 2.4.2 1.1.5 2.2.9 3.3.6 1.2 1.3 2.3 2.2 3.3 1.3 1.4 2.8 2.3 4.6 2.9.9.3 1.8.4 2.7.4 1.1.1 2.2 0 3.3-.3 1.4-.3 2.7-.9 3.9-1.7 1.1-.8 2-1.8 2.8-2.9 1.2-1.7 1.8-3.6 2-5.7.1-1 0-2-.1-3-.1-.8-.3-1.6-.6-2.3zm5.6-10.9c-.1-.7-.3-1.5-.5-2.2-.2-.7-.5-1.4-.9-2 0-.1-.1-.1-.2-.2 0 .1-.1.2-.1.3-.4.8-1 1.5-1.7 2-.6.5-1.4.9-2.2 1.1-.8.2-1.5.5-2.2.8-.6.3-1.1.7-1.5 1.2-.5.7-.8 1.4-.8 2.2-.1 1 .2 1.9.6 2.7l.1.1c1.2-.3 2.3-.7 3.3-1.3 1.8-.9 3-2.3 4-3.9v.4c-.2.5-.5 1-.8 1.4-.5.7-1.2 1.2-1.8 1.8-1.1.9-2.3 1.7-3.6 2.5-.1.1-.2.1-.3.2v.1c.6.6 1.3 1.1 2.1 1.3.7.2 1.4.3 2.1.1.8-.2 1.5-.6 2-1.1s.9-1 1.3-1.7c.3-.5.5-1 .7-1.6.2-.6.3-1.3.4-1.9.1-.8.1-1.6 0-2.3z"/>
</g></svg>
