<svg xmlns="http://www.w3.org/2000/svg" viewBox="0 0 24 24" xml:space="preserve"><symbol id="icon">
    <path fill="none" d="M0 0h24v24H0z"/>
    <path d="M22.542 3.5V1.953h-8.417V0h-.75L0 2.5v18.719L13.406 24h.719v-2.234h8.417V20.613h1.45v-5.15h-1.45v-.817H24v-5.15h-1.458v-.78H24V3.5h-1.458zM10 17l-2.125-.345L6 11v5.345L4 16V8l2.188-.375L8 13V7.345L10 7v10zm13-9.283h-1.458v13.049h-7.417v-1.85h5.896v-1h-5.896v-1.55h5.896v-1h-5.896v-1.55h5.896v-1h-5.896v-1.55h5.896v-1h-5.896v-1.55h5.896v-1h-5.896v-1.55h5.896v-1h-5.896V2.954h7.417V4.5H23v3.217z"/>
</symbol></svg>
