<svg viewBox="0 0 32 32" xmlns="http://www.w3.org/2000/svg">
  <path d="M16.2 1.8C15.9.6 15 0 14.3.1c-.8.1-1.7.6-2.1 1.4-1 2.3 1.1 8.9 1.4 10-2 6.2-9.1 18.4-12.5 19.2-.1-.8.4-3.1 4.9-6.1.2-.3.5-.6.6-.8-3.8 1.9-8.8 4.9-5.8 7.1.2.1.4.2.7.3 2.3.8 5.5-1.9 8.7-8.2 3.5-1.2 6.4-2 10.4-2.7 4.4 3 7.4 3.6 9.4 2.8.6-.2 1.4-.9 1.7-1.8-1.6 2-5.5.6-8.5-1.3 2.8-.3 5.7-.5 7-.1 1.6.5 1.5 1.3 1.5 1.4.1-.4.3-1.1 0-1.7-1.3-2.2-7.5-.9-9.8-.7-3.5-2.1-6-5.9-7-8.7C16 6.9 17 4.3 16.2 1.8m-1.5 7.4c-.6-2.1-1.4-6.8-.1-8.3 2.6 1.5 1 5 .1 8.3m4.9 10.4c-3.4.6-5.7 1.5-9.1 2.8 1-1.9 2.9-6.8 3.8-10.1 1.2 2.6 2.8 5 5.3 7.3"/>
</svg>
