<svg xmlns="http://www.w3.org/2000/svg" viewBox="0 0 24 24" xml:space="preserve"><symbol id="icon">
    <path fill="none" d="M0 0h24v24H0z"/>
    <path fill="#272118" d="M12.216 1.715c.89 0 3.907.247 5.327 3.43.473 1.063.356 2.924.262 4.42l-.004.065-.037.604c.023.023.205.198.615.214.312-.012.67-.112 1.063-.296a.803.803 0 0 1 .33-.065c.133 0 .268.026.38.073l.007.002c.318.113.526.336.53.569.005.219-.162.549-.984.873a5.192 5.192 0 0 1-.309.105c-.47.149-1.178.373-1.395.885-.118.28-.08.62.113 1.013l.005.011c.06.138 1.478 3.372 4.645 3.894.117.02.2.124.194.242a.391.391 0 0 1-.033.132c-.13.306-.72.739-2.78 1.057-.167.026-.233.245-.333.705a7.11 7.11 0 0 1-.125.505c-.043.15-.137.22-.294.22h-.026c-.109 0-.264-.02-.46-.058a6.152 6.152 0 0 0-1.238-.131c-.29 0-.591.025-.893.075-.618.103-1.143.474-1.698.866-.808.571-1.641 1.16-2.94 1.16-.056 0-.112-.001-.167-.004a1.393 1.393 0 0 1-.11.004c-1.298 0-2.131-.589-2.937-1.158-.557-.394-1.082-.765-1.7-.868a5.485 5.485 0 0 0-.893-.075c-.523 0-.936.08-1.237.14a2.701 2.701 0 0 1-.461.066c-.126 0-.262-.027-.32-.229a7.254 7.254 0 0 1-.125-.508c-.092-.421-.157-.68-.334-.708-2.06-.318-2.649-.751-2.78-1.06a.396.396 0 0 1-.032-.13.232.232 0 0 1 .194-.243c3.166-.52 4.585-3.756 4.644-3.894l.005-.01c.194-.393.232-.734.113-1.014-.217-.512-.925-.737-1.394-.885-.115-.037-.224-.071-.31-.105-.935-.37-1.013-.75-.977-.943.063-.33.504-.56.86-.56.098 0 .184.017.256.051.421.197.8.297 1.128.297.453 0 .65-.19.674-.215-.011-.214-.026-.438-.04-.669-.094-1.496-.211-3.356.262-4.417 1.42-3.182 4.429-3.43 5.317-3.43l.39-.003h.052m0-1H12.16l-.387.004c-1.039 0-4.564.29-6.228 4.021-.544 1.22-.46 3.08-.363 4.636-.092-.03-.2-.071-.323-.13a1.595 1.595 0 0 0-.68-.145c-.778 0-1.68.514-1.843 1.373-.094.497-.013 1.426 1.592 2.06.103.04.234.083.372.127.174.055.61.193.76.318a.865.865 0 0 1-.07.186l-.013.025-.016.037c-.011.026-1.257 2.866-3.886 3.299a1.229 1.229 0 0 0-1.03 1.284c.01.16.046.316.109.465.328.767 1.251 1.248 3.055 1.576 0 .006.002.01.003.016.04.185.084.377.142.576.17.584.661.947 1.28.947.217 0 .429-.041.653-.085.276-.054.619-.121 1.045-.121.236 0 .481.02.73.062.391.065.805.358 1.285.697.846.598 1.899 1.342 3.515 1.342.04 0 .08 0 .12-.003.052.002.104.003.157.003 1.617 0 2.67-.744 3.517-1.343.479-.338.892-.63 1.285-.696.247-.041.493-.062.729-.062.39 0 .7.045 1.045.112.263.052.477.077.653.077.63 0 1.11-.36 1.28-.94a8.068 8.068 0 0 0 .145-.584c1.804-.328 2.727-.807 3.053-1.57.063-.144.101-.303.11-.466a1.232 1.232 0 0 0-1.029-1.288c-2.628-.433-3.875-3.272-3.888-3.301l-.01-.024-.017-.035a.872.872 0 0 1-.07-.186c.15-.125.585-.263.758-.317.138-.044.27-.087.372-.127 1.356-.536 1.629-1.287 1.619-1.823-.013-.653-.483-1.24-1.197-1.492a1.929 1.929 0 0 0-.72-.133c-.189 0-.472.028-.754.159a3.122 3.122 0 0 1-.198.085c.096-1.546.175-3.383-.365-4.592-1.665-3.734-5.197-4.024-6.24-4.024z"/>
</symbol></svg>
