<svg xml:space="preserve" viewBox="0 0 32 32" xmlns="http://www.w3.org/2000/svg"><g id="icon">
  <rect/>
  <path fill="currentColor" d="M20.3 23.5c-.5 0-1-.1-1.5-.2-.8-.2-1.5-.5-2.3-.8-2.7-1.3-5-3.4-6.7-5.9-1-1.3-1.6-2.7-1.7-4.2 0-1.1.4-2.3 1.3-3.1.3-.4.7-.6 1.1-.6h.7c.4 0 .7.2.8.6l.5 1.2c.3.8.7 1.7.8 1.9.1.2.1.5 0 .6-.1.3-.2.5-.4.7l-.2.2c-.1.2-.3.3-.4.4l-.3.2.2.4c.5 1.1 1.3 2.2 2.2 3 .9.8 1.9 1.4 3 1.9l.6.2.3-.2c.6-.5 1.1-1 1.5-1.6.1-.2.3-.3.4-.3.1 0 .2 0 .4.1.4.1 2.1 1 2.7 1.3l.2.1c.2.1.4.2.5.3.1.6.1 1.3-.2 1.8-.5 1-1.5 1.7-2.7 1.9-.2 0-.5.1-.8.1zM.1 32l8.4-2.2.2.1c2.3 1.2 4.8 1.8 7.4 1.8 5.9 0 11.3-3.2 14.1-8.5 4.1-7.7 1.1-17.4-6.6-21.4C21.3.6 18.7 0 16.1 0c-5.9 0-11.3 3.2-14 8.5-2.5 4.8-2.4 10.4.2 15.1l.1.2L.1 32zm8.8-4.9-5.1 1.3 1.4-5-.3-.5C1 16.7 2.9 8.4 9.1 4.5c2.1-1.3 4.6-2 7.1-2 7.3 0 13.3 6 13.3 13.3 0 7.3-6 13.3-13.3 13.3-2.4 0-4.7-.6-6.8-1.9l-.5-.1z"/>
</g></svg>
