<?xml version="1.0" encoding="UTF-8"?>
<svg id="a" data-name="3219" xmlns="http://www.w3.org/2000/svg" viewBox="0 0 24 24">
  <path d="M12,0C5.38,0,0,5.38,0,12s5.38,12,12,12,12-5.38,12-12S18.62,0,12,0ZM12,22.25c-5.65,0-10.25-4.6-10.25-10.25S6.35,1.75,12,1.75s10.25,4.6,10.25,10.25-4.6,10.25-10.25,10.25ZM13.69,9.04c0-1.7.86-3.07,1.92-3.07s1.92,1.37,1.92,3.07-.86,3.07-1.92,3.07-1.92-1.37-1.92-3.07ZM6.85,9.04c0-1.7.86-3.07,1.92-3.07s1.92,1.37,1.92,3.07-.86,3.07-1.92,3.07-1.92-1.37-1.92-3.07ZM17.62,17.57c.24.42.1.95-.32,1.2-.14.08-.29.12-.44.12-.3,0-.6-.16-.76-.44-.85-1.46-2.42-2.37-4.11-2.37s-3.26.91-4.11,2.37c-.24.42-.78.56-1.2.32-.42-.24-.56-.78-.32-1.2,1.16-2,3.32-3.25,5.62-3.25s4.46,1.25,5.62,3.25Z" fill="#1e1e1c"/>
</svg>