<?xml version="1.0" encoding="UTF-8"?>
<svg id="a" data-name="3219" xmlns="http://www.w3.org/2000/svg" viewBox="0 0 40 40">
  <path d="M20,0C8.97,0,0,8.97,0,20s8.97,20,20,20,20-8.97,20-20S31.03,0,20,0ZM20,37.75c-9.79,0-17.75-7.96-17.75-17.75S10.21,2.25,20,2.25s17.75,7.96,17.75,17.75-7.96,17.75-17.75,17.75ZM29.37,14.97c0,2.88-1.46,5.21-3.25,5.21s-3.25-2.33-3.25-5.21,1.46-5.21,3.25-5.21,3.25,2.33,3.25,5.21ZM11.27,14.97c0-2.88,1.46-5.21,3.25-5.21s3.25,2.33,3.25,5.21-1.46,5.21-3.25,5.21-3.25-2.33-3.25-5.21ZM29.07,29.58c.31.54.13,1.23-.41,1.54-.18.1-.37.15-.56.15-.39,0-.77-.2-.98-.56-1.47-2.54-4.2-4.11-7.12-4.11s-5.65,1.58-7.12,4.11c-.31.54-1,.72-1.54.41-.54-.31-.72-1-.41-1.54,1.87-3.23,5.34-5.24,9.06-5.24s7.19,2.01,9.06,5.24Z" fill="#1e1e1c"/>
</svg>