<?xml version="1.0" encoding="UTF-8"?>
<svg id="a" data-name="3219" xmlns="http://www.w3.org/2000/svg" viewBox="0 0 32 32">
  <path d="M4.09,18.22h4v2h-4C1.82,20.22-.02,18.38-.02,16.11v-6.66C-.02,7.19,1.82,5.34,4.09,5.34h13.1c2.27,0,4.11,1.84,4.11,4.11v6.66c0,2.27-1.84,4.11-4.11,4.11h-1.85v-2h1.85c1.16,0,2.11-.95,2.11-2.11v-6.66c0-1.16-.95-2.11-2.11-2.11H4.09c-1.16,0-2.11.95-2.11,2.11v6.66c0,1.16.95,2.11,2.11,2.11ZM27.87,11.78h-4v2h4c1.16,0,2.11.95,2.11,2.11v6.66c0,1.16-.95,2.11-2.11,2.11h-13.1c-1.16,0-2.11-.95-2.11-2.11v-6.66c0-1.16.95-2.11,2.11-2.11h1.85v-2h-1.85c-2.27,0-4.11,1.84-4.11,4.11v6.66c0,2.27,1.84,4.11,4.11,4.11h13.1c2.26,0,4.11-1.84,4.11-4.11v-6.66c0-2.27-1.84-4.11-4.11-4.11Z" fill="#1e1e1c"/>
</svg>