<?xml version="1.0" encoding="UTF-8"?>
<svg id="a" data-name="3219" xmlns="http://www.w3.org/2000/svg" viewBox="0 0 48 48">
  <path d="M5.93,27.64h6.07v2.49h-6.07C2.64,30.13-.03,27.45-.03,24.17v-10.1c0-3.29,2.67-5.96,5.96-5.96h19.87c3.29,0,5.96,2.67,5.96,5.96v10.1c0,3.29-2.67,5.96-5.96,5.96h-2.81v-2.49h2.81c1.91,0,3.47-1.56,3.47-3.47v-10.1c0-1.91-1.56-3.47-3.47-3.47H5.93c-1.91,0-3.47,1.56-3.47,3.47v10.1c0,1.91,1.56,3.47,3.47,3.47ZM42.01,17.87h-6.07v2.49h6.07c1.91,0,3.47,1.56,3.47,3.47v10.1c0,1.91-1.56,3.47-3.47,3.47h-19.87c-1.91,0-3.47-1.56-3.47-3.47v-10.1c0-1.91,1.56-3.47,3.47-3.47h2.81v-2.49h-2.81c-3.29,0-5.96,2.67-5.96,5.96v10.1c0,3.29,2.67,5.96,5.96,5.96h19.87c3.29,0,5.96-2.67,5.96-5.96v-10.1c0-3.29-2.67-5.96-5.96-5.96Z" fill="#1e1e1c"/>
</svg>