<?xml version="1.0" encoding="UTF-8"?>
<svg id="a" data-name="3219" xmlns="http://www.w3.org/2000/svg" viewBox="0 0 16 16">
  <path d="M2.64,8.2h1.16v2.5h-1.16C1.18,10.7-.01,9.51-.01,8.05v-3C-.01,3.59,1.18,2.4,2.64,2.4h5.89c1.46,0,2.65,1.19,2.65,2.65v3c0,1.46-1.19,2.65-2.65,2.65h-.23v-2.5h.23c.08,0,.15-.07.15-.15v-3c0-.08-.07-.15-.15-.15H2.64c-.08,0-.15.07-.15.15v3c0,.08.07.15.15.15ZM13.34,5.3h-1.15v2.5h1.15c.08,0,.15.07.15.15v3c0,.08-.07.15-.15.15h-5.89c-.08,0-.15-.07-.15-.15v-3c0-.08.07-.15.15-.15h.24v-2.5h-.24c-1.46,0-2.65,1.19-2.65,2.65v3c0,1.46,1.19,2.65,2.65,2.65h5.89c1.46,0,2.65-1.19,2.65-2.65v-3c0-1.46-1.19-2.65-2.65-2.65Z" fill="#1e1e1c"/>
</svg>