<?xml version="1.0" encoding="UTF-8"?>
<svg id="a" data-name="3219" xmlns="http://www.w3.org/2000/svg" viewBox="0 0 24 24">
  <path d="M3.16,13.51h2.97v1.75h-2.97C1.41,15.26-.02,13.84-.02,12.08v-4.94C-.02,5.39,1.41,3.96,3.16,3.96h9.71c1.75,0,3.18,1.43,3.18,3.18v4.94c0,1.75-1.43,3.18-3.18,3.18h-1.38v-1.75h1.38c.79,0,1.43-.64,1.43-1.43v-4.94c0-.79-.64-1.43-1.43-1.43H3.16c-.79,0-1.43.64-1.43,1.43v4.94c0,.79.64,1.43,1.43,1.43ZM20.8,8.74h-2.97v1.75h2.97c.79,0,1.43.64,1.43,1.43v4.94c0,.79-.64,1.43-1.43,1.43h-9.71c-.79,0-1.43-.64-1.43-1.43v-4.94c0-.79.64-1.43,1.43-1.43h1.37v-1.75h-1.37c-1.75,0-3.18,1.43-3.18,3.18v4.94c0,1.75,1.43,3.18,3.18,3.18h9.71c1.75,0,3.18-1.43,3.18-3.18v-4.94c0-1.75-1.43-3.18-3.18-3.18Z" fill="#1e1e1c"/>
</svg>