<?xml version="1.0" encoding="UTF-8"?>
<svg id="a" data-name="3219" xmlns="http://www.w3.org/2000/svg" viewBox="0 0 48 48">
  <path d="M6.72,26.43h5.8v4.49h-5.8C3,30.91-.03,27.88-.03,24.16v-9.66C-.03,10.78,3,7.75,6.72,7.75h19c3.72,0,6.75,3.03,6.75,6.75v9.66c0,3.72-3.03,6.75-6.75,6.75h-2.69v-4.49h2.69c1.25,0,2.27-1.02,2.27-2.27v-9.66c0-1.25-1.02-2.27-2.27-2.27H6.72c-1.25,0-2.27,1.02-2.27,2.27v9.66c0,1.25,1.02,2.27,2.27,2.27ZM41.21,17.09h-5.8v4.49h5.8c1.25,0,2.27,1.02,2.27,2.27v9.66c0,1.25-1.02,2.27-2.27,2.27h-19c-1.25,0-2.27-1.02-2.27-2.27v-9.66c0-1.25,1.02-2.27,2.27-2.27h2.69v-4.49h-2.69c-3.72,0-6.75,3.03-6.75,6.75v9.66c0,3.72,3.03,6.75,6.75,6.75h19c3.72,0,6.75-3.03,6.75-6.75v-9.66c0-3.72-3.03-6.75-6.75-6.75Z" fill="#1e1e1c"/>
</svg>