<?xml version="1.0" encoding="UTF-8"?>
<svg id="a" data-name="3219" xmlns="http://www.w3.org/2000/svg" viewBox="0 0 48 48">
  <path d="M45.38,31.37V5.15c0-.96-.78-1.75-1.75-1.75H4.36c-.96,0-1.75.79-1.75,1.75v26.22H0v8.75c0,1.52,1.23,2.75,2.75,2.75h42.51c1.51,0,2.75-1.23,2.75-2.75v-8.75h-2.61ZM19.8,33.87h8.39v2h-8.39v-2ZM5.11,5.9h37.78v25.42H5.11V5.9ZM45.5,40.12c0,.14-.11.25-.25.25H2.74c-.14,0-.25-.11-.25-.25v-6.25h14.81v2.75c0,.96.78,1.75,1.75,1.75h9.89c.96,0,1.75-.79,1.75-1.75v-2.75h14.81v6.25Z" fill="#1e1e1c"/>
</svg>