<?xml version="1.0" encoding="UTF-8"?>
<svg id="_x33_219" xmlns="http://www.w3.org/2000/svg" version="1.1" viewBox="0 0 24 24">
  <!-- Generator: Adobe Illustrator 29.0.1, SVG Export Plug-In . SVG Version: 2.1.0 Build 192)  -->
  <defs>
    <style>
      .st0 {
        fill: #1e1e1c;
      }
    </style>
  </defs>
  <path class="st0" d="M8.81,19.6l.82,1.55-5.08,2.65,1.42-8.59L0,9.15l8.27-1.25L12,0l3.74,7.9,8.25,1.25-4.17,4.3-1.28-1.21,1.81-1.87-5.81-.88-2.54-5.37-2.54,5.37-5.8.88,4.2,4.26-.99,5.99,1.94-1.01ZM20.33,18.13h-3.28v-3.25c0-.48-.4-.88-.88-.88s-.88.39-.88.88v3.25h-3.28c-.49,0-.88.39-.88.88s.4.88.88.88h3.28v3.25c0,.48.4.88.88.88s.88-.39.88-.88v-3.25h3.28c.49,0,.88-.39.88-.88s-.4-.88-.88-.88Z"/>
</svg>