<?xml version="1.0" encoding="UTF-8"?>
<svg id="_x33_219" xmlns="http://www.w3.org/2000/svg" version="1.1" viewBox="0 0 64 64">
  <!-- Generator: Adobe Illustrator 29.0.1, SVG Export Plug-In . SVG Version: 2.1.0 Build 192)  -->
  <defs>
    <style>
      .st0 {
        fill: #1e1e1c;
      }
    </style>
  </defs>
  <path class="st0" d="M23.52,52.05l2.35,4.43-13.73,7.17,3.77-22.95L-.02,24.49l22.03-3.34L32,.02l9.99,21.13,21.99,3.33-11.23,11.62-3.64-3.46,4.51-4.66-15.05-2.28-6.57-13.89-6.57,13.89-15,2.27,10.86,11.05-2.55,15.53,4.78-2.5ZM53.92,48.14h-8.44v-8.38c0-1.38-1.13-2.5-2.52-2.5s-2.52,1.12-2.52,2.5v8.38h-8.44c-1.39,0-2.52,1.12-2.52,2.5s1.13,2.5,2.52,2.5h8.44v8.38c0,1.38,1.13,2.5,2.52,2.5s2.52-1.12,2.52-2.5v-8.38h8.44c1.39,0,2.52-1.12,2.52-2.5s-1.13-2.5-2.52-2.5Z"/>
</svg>