<?xml version="1.0" encoding="UTF-8"?>
<svg id="_x33_219" xmlns="http://www.w3.org/2000/svg" version="1.1" viewBox="0 0 24 24">
  <!-- Generator: Adobe Illustrator 29.0.1, SVG Export Plug-In . SVG Version: 2.1.0 Build 192)  -->
  <defs>
    <style>
      .st0 {
        fill: #1e1e1c;
      }
    </style>
  </defs>
  <path class="st0" d="M8.88,18.32l1.4,2.65-5.74,3.02,1.41-8.64L0,9.25l8.25-1.26L12.01-.01l3.77,8.01,8.22,1.25-4.62,4.8-2.17-2.08.61-.63-4.07-.62-1.73-3.67-1.73,3.67-4.04.62,2.93,3-.69,4.19.4-.21ZM19.28,16.94h-2.13v-2.13c0-.83-.67-1.5-1.5-1.5s-1.5.67-1.5,1.5v2.13h-2.13c-.83,0-1.5.67-1.5,1.5s.67,1.5,1.5,1.5h2.13v2.13c0,.83.67,1.5,1.5,1.5s1.5-.67,1.5-1.5v-2.13h2.13c.83,0,1.5-.67,1.5-1.5s-.67-1.5-1.5-1.5Z"/>
</svg>