<?xml version="1.0" encoding="UTF-8"?>
<svg id="_x33_219" xmlns="http://www.w3.org/2000/svg" version="1.1" viewBox="0 0 24 24">
  <!-- Generator: Adobe Illustrator 29.0.1, SVG Export Plug-In . SVG Version: 2.1.0 Build 192)  -->
  <defs>
    <style>
      .st0 {
        fill: #1e1e1c;
      }
    </style>
  </defs>
  <path class="st0" d="M24.01,17c0-1.95-1.26-3.6-3-4.22V0h-3v12.78c-1.74.62-3,2.27-3,4.22s1.26,3.6,3,4.22v2.78h3v-2.78c1.74-.62,3-2.27,3-4.22ZM19.5,18.5c-.83,0-1.5-.67-1.5-1.5s.67-1.5,1.5-1.5,1.5.67,1.5,1.5-.67,1.5-1.5,1.5ZM16.5,7c0-1.95-1.26-3.6-3-4.22V0h-3v2.78c-1.74.62-3,2.27-3,4.22s1.26,3.6,3,4.22v12.78h3v-12.78c1.74-.62,3-2.27,3-4.22ZM11.99,5.5c.83,0,1.5.67,1.5,1.5s-.67,1.5-1.5,1.5-1.5-.67-1.5-1.5.67-1.5,1.5-1.5ZM6.02,12.8V0h-3v12.8C1.27,13.42,0,15.07,0,17.03s1.26,3.6,3,4.22v2.75h3v-2.75c1.74-.62,3-2.27,3-4.22s-1.26-3.6-3-4.22ZM4.51,18.53c-.83,0-1.5-.67-1.5-1.5s.67-1.5,1.5-1.5,1.5.67,1.5,1.5-.67,1.5-1.5,1.5Z"/>
</svg>