<?xml version="1.0" encoding="UTF-8"?>
<svg id="_x33_219" xmlns="http://www.w3.org/2000/svg" version="1.1" viewBox="0 0 40 40">
  <!-- Generator: Adobe Illustrator 29.0.1, SVG Export Plug-In . SVG Version: 2.1.0 Build 192)  -->
  <defs>
    <style>
      .st0 {
        fill: #1e1e1c;
      }
    </style>
  </defs>
  <path class="st0" d="M40,28.33c0-2.99-2.16-5.49-5-6.02V0h-2.25v22.31c-2.84.53-5,3.02-5,6.02s2.16,5.49,5,6.02v5.65h2.25v-5.65c2.84-.53,5-3.02,5-6.02ZM33.87,32.21c-2.14,0-3.88-1.74-3.88-3.88s1.74-3.88,3.88-3.88,3.88,1.74,3.88,3.88-1.74,3.88-3.88,3.88ZM21.11,5.65V0h-2.25v5.65c-2.84.53-5,3.02-5,6.02s2.16,5.49,5,6.02v22.32h2.25v-22.32c2.84-.53,5-3.02,5-6.02s-2.16-5.49-5-6.02ZM19.98,15.54c-2.14,0-3.88-1.74-3.88-3.88s1.74-3.88,3.88-3.88,3.88,1.74,3.88,3.88-1.74,3.88-3.88,3.88ZM7.25,22.36V0h-2.25v22.36C2.16,22.89,0,25.39,0,28.38s2.16,5.49,5,6.02v5.61h2.25v-5.61c2.84-.53,5-3.02,5-6.02s-2.16-5.49-5-6.02ZM6.12,32.25c-2.14,0-3.88-1.74-3.88-3.88s1.74-3.88,3.88-3.88,3.88,1.74,3.88,3.88-1.74,3.88-3.88,3.88Z"/>
</svg>