<?xml version="1.0" encoding="UTF-8"?>
<svg id="_x33_219" xmlns="http://www.w3.org/2000/svg" version="1.1" viewBox="0 0 16 16">
  <!-- Generator: Adobe Illustrator 29.0.1, SVG Export Plug-In . SVG Version: 2.1.0 Build 192)  -->
  <defs>
    <style>
      .st0 {
        fill: #1e1e1c;
      }
    </style>
  </defs>
  <path class="st0" d="M16,11.33c0-1.35-.83-2.51-2-3V0h-2.5v8.33c-1.17.49-2,1.65-2,3s.83,2.51,2,3v1.67h2.5v-1.67c1.17-.49,2-1.65,2-3ZM12.75,12.08c-.41,0-.75-.34-.75-.75s.34-.75.75-.75.75.34.75.75-.34.75-.75.75ZM11.24,4.67c0-1.35-.83-2.51-2-3V0h-2.5v1.67c-1.17.49-2,1.65-2,3s.83,2.51,2,3v8.33h2.5V7.67c1.17-.49,2-1.65,2-3ZM7.99,3.92c.41,0,.75.34.75.75s-.34.75-.75.75-.75-.34-.75-.75.34-.75.75-.75ZM4.5,8.35V0H2v8.35c-1.17.49-2,1.65-2,3s.83,2.51,2,3v1.65h2.5v-1.65c1.17-.49,2-1.65,2-3s-.83-2.51-2-3ZM3.25,12.1c-.41,0-.75-.34-.75-.75s.34-.75.75-.75.75.34.75.75-.34.75-.75.75Z"/>
</svg>