<?xml version="1.0" encoding="UTF-8"?>
<svg id="_x33_219" xmlns="http://www.w3.org/2000/svg" version="1.1" viewBox="0 0 48 48">
  <!-- Generator: Adobe Illustrator 29.0.1, SVG Export Plug-In . SVG Version: 2.1.0 Build 192)  -->
  <defs>
    <style>
      .st0 {
        fill: #1e1e1c;
      }
    </style>
  </defs>
  <path class="st0" d="M47.99,34c0-3.77-2.55-6.95-6.01-7.93V0h-4.51v26.07c-3.46.98-6.01,4.16-6.01,7.93s2.55,6.95,6.01,7.93v6.07h4.51v-6.07c3.46-.98,6.01-4.16,6.01-7.93ZM39.73,37.75c-2.07,0-3.76-1.68-3.76-3.75s1.69-3.75,3.76-3.75,3.76,1.68,3.76,3.75-1.69,3.75-3.76,3.75ZM32.24,14c0-3.77-2.55-6.95-6.01-7.93V0h-4.51v6.07c-3.46.98-6.01,4.16-6.01,7.93s2.55,6.95,6.01,7.93v26.07h4.51v-26.07c3.46-.98,6.01-4.16,6.01-7.93ZM23.98,17.75c-2.07,0-3.76-1.68-3.76-3.75s1.69-3.75,3.76-3.75,3.76,1.68,3.76,3.75-1.69,3.75-3.76,3.75ZM10.51,26.12V0h-4.51v26.12C2.54,27.11,0,30.29,0,34.05s2.55,6.95,6.01,7.93v6.02h4.51v-6.02c3.46-.98,6.01-4.16,6.01-7.93s-2.55-6.95-6.01-7.93ZM8.26,37.8c-2.07,0-3.76-1.68-3.76-3.75s1.69-3.75,3.76-3.75,3.76,1.68,3.76,3.75-1.69,3.75-3.76,3.75Z"/>
</svg>