<?xml version="1.0" encoding="UTF-8"?>
<svg id="_x33_219" xmlns="http://www.w3.org/2000/svg" version="1.1" viewBox="0 0 64 64">
  <!-- Generator: Adobe Illustrator 29.0.1, SVG Export Plug-In . SVG Version: 2.1.0 Build 192)  -->
  <defs>
    <style>
      .st0 {
        fill: #1e1e1c;
      }
    </style>
  </defs>
  <path class="st0" d="M63.99,45.33c0-4.7-3.48-8.59-8-9.26V0h-2.75v36.07c-4.52.67-8,4.56-8,9.26s3.48,8.59,8,9.26v9.41h2.75v-9.41c4.52-.67,8-4.56,8-9.26ZM54.61,51.96c-3.65,0-6.63-2.97-6.63-6.62s2.97-6.62,6.63-6.62,6.63,2.97,6.63,6.62-2.97,6.62-6.63,6.62ZM33.35,9.41V0h-2.75v9.41c-4.52.67-8,4.56-8,9.26s3.48,8.59,8,9.26v36.07h2.75V27.93c4.52-.67,8-4.56,8-9.26s-3.48-8.59-8-9.26ZM31.97,25.29c-3.65,0-6.63-2.97-6.63-6.62s2.97-6.62,6.63-6.62,6.63,2.97,6.63,6.62-2.97,6.62-6.63,6.62ZM10.74,36.14V0h-2.75v36.14C3.47,36.81-.01,40.7-.01,45.41s3.48,8.59,8,9.26v9.33h2.75v-9.33c4.52-.67,8-4.56,8-9.26s-3.48-8.59-8-9.26ZM9.37,52.03c-3.65,0-6.63-2.97-6.63-6.62s2.97-6.62,6.63-6.62,6.63,2.97,6.63,6.62-2.97,6.62-6.63,6.62Z"/>
</svg>