<?xml version="1.0" encoding="UTF-8"?>
<svg id="_x33_219" xmlns="http://www.w3.org/2000/svg" version="1.1" viewBox="0 0 64 64">
  <!-- Generator: Adobe Illustrator 29.0.1, SVG Export Plug-In . SVG Version: 2.1.0 Build 192)  -->
  <defs>
    <style>
      .st0 {
        fill: #1e1e1c;
      }
    </style>
  </defs>
  <path class="st0" d="M64.02,45.33c0-4.93-3.41-9.06-8-10.19V0h-5v35.14c-4.58,1.13-8,5.26-8,10.19s3.41,9.06,8,10.19v8.48h5v-8.48c4.58-1.13,8-5.26,8-10.19ZM53.53,50.83c-3.03,0-5.5-2.47-5.5-5.5s2.47-5.5,5.5-5.5,5.5,2.47,5.5,5.5-2.47,5.5-5.5,5.5ZM34.47,8.48V0h-5v8.48c-4.58,1.13-8,5.26-8,10.19s3.41,9.06,8,10.19v35.14h5V28.86c4.58-1.13,8-5.26,8-10.19s-3.41-9.06-8-10.19ZM31.97,24.17c-3.03,0-5.5-2.47-5.5-5.5s2.47-5.5,5.5-5.5,5.5,2.47,5.5,5.5-2.47,5.5-5.5,5.5ZM13.02,35.22V0h-5v35.22C3.44,36.34.02,40.48.02,45.41s3.41,9.06,8,10.19v8.41h5v-8.41c4.58-1.13,8-5.26,8-10.19s-3.41-9.06-8-10.19ZM10.52,50.91c-3.03,0-5.5-2.47-5.5-5.5s2.47-5.5,5.5-5.5,5.5,2.47,5.5,5.5-2.47,5.5-5.5,5.5Z"/>
</svg>