<?xml version="1.0" encoding="UTF-8"?>
<svg id="_x33_219" xmlns="http://www.w3.org/2000/svg" version="1.1" viewBox="0 0 40 40">
  <!-- Generator: Adobe Illustrator 29.0.1, SVG Export Plug-In . SVG Version: 2.1.0 Build 192)  -->
  <defs>
    <style>
      .st0 {
        fill: #1e1e1c;
      }
    </style>
  </defs>
  <path class="st0" d="M40,28.34c0-3.16-2.11-5.84-5-6.71V0h-4v21.63c-2.89.86-5,3.54-5,6.71s2.11,5.84,5,6.71v4.96h4v-4.96c2.89-.86,5-3.54,5-6.71ZM33,31.34c-1.65,0-3-1.35-3-3s1.35-3,3-3,3,1.35,3,3-1.35,3-3,3ZM26.98,11.68c0-3.16-2.11-5.84-5-6.71V0h-4v4.96c-2.89.86-5,3.54-5,6.71s2.11,5.84,5,6.71v21.63h4v-21.63c2.89-.86,5-3.54,5-6.71ZM19.98,14.68c-1.65,0-3-1.35-3-3s1.35-3,3-3,3,1.35,3,3-1.35,3-3,3ZM9,21.68V0h-4v21.67C2.11,22.54,0,25.22,0,28.39s2.11,5.84,5,6.71v4.92h4v-4.92c2.89-.86,5-3.54,5-6.71s-2.11-5.84-5-6.71ZM7,31.39c-1.65,0-3-1.35-3-3s1.35-3,3-3,3,1.35,3,3-1.35,3-3,3Z"/>
</svg>