<?xml version="1.0" encoding="UTF-8"?>
<svg id="a" data-name="3219" xmlns="http://www.w3.org/2000/svg" viewBox="0 0 32 32">
  <path d="M29.95,16.19c.09-.66.16-1.33.16-2C30.1,6.4,23.76.05,15.96.05S1.83,6.4,1.83,14.2c0,.67.06,1.34.16,2-1.82,1.79-2.54,4.55-1.61,7.1l1.58,4.34c.99,2.73,3.58,4.43,6.33,4.43.76,0,1.54-.13,2.29-.41l3.13-1.14L7.52,13.53l-2.2.8s0-.09,0-.13c0-5.87,4.77-10.65,10.64-10.65s10.65,4.78,10.65,10.65c0,.04,0,.09,0,.13l-2.2-.8-6.18,16.98,3.13,1.14c.75.27,1.53.41,2.3.41.97,0,1.93-.21,2.84-.63,1.63-.76,2.86-2.11,3.48-3.8l1.58-4.34c.93-2.55.21-5.3-1.61-7.1ZM9.22,28.41c-1.63.51-3.4-.36-3.99-1.98l-1.58-4.34c-.59-1.62.21-3.42,1.78-4.08l3.79,10.4ZM28.28,22.09l-1.58,4.34c-.59,1.62-2.36,2.49-3.99,1.98l3.79-10.4c1.58.66,2.37,2.46,1.78,4.08Z" fill="#1e1e1c"/>
</svg>