<svg xmlns="http://www.w3.org/2000/svg" viewBox="0 0 32 32"><symbol id="icon">
    <path d="M2.667 10.667h8v-8h-8v8zM4 4h5.333v5.333H4V4zM12 10.667h8v-8h-8v8zM13.333 4h5.333v5.333h-5.333V4zM21.333 2.667v8h8v-8h-8zM28 9.333h-5.333V4H28v5.333zM2.667 20h8v-8h-8v8zM4 13.333h5.333v5.333H4v-5.333zM12 20h8v-8h-8v8zm1.333-6.667h5.333v5.333h-5.333v-5.333zM21.333 20h8v-8h-8v8zm1.334-6.667H28v5.333h-5.333v-5.333zM2.667 29.333h8v-8h-8v8zM4 22.667h5.333V28H4v-5.333zM12 29.333h8v-8h-8v8zm1.333-6.666h5.333V28h-5.333v-5.333zM21.333 29.333h8v-8h-8v8zm1.334-6.666H28V28h-5.333v-5.333z"/>
</symbol></svg>
