<svg xmlns="http://www.w3.org/2000/svg" viewBox="0 0 32 32"><symbol id="icon">
    <path d="M4 4h5.333V2.667H2.666v26.667h6.667v-1.333H4zM22.667 2.667V4H28v24h-5.333v1.333h6.667V2.666zM14.667 21.333h-1.333v1.333h2.667v-2.667h-1.333zM13.333 18.667h1.333v-1.333h-2.667v2.667h1.333zM9.333 18.667V20h1.333v-2.667H9.333zM9.333 21.333v1.333H12v-1.333h-1.333zM18.667 16v-1.333h-1.333v2.667h1.333zM18.667 10.667V9.334h-1.333v2.667h1.333zM20 13.333h2.667V12h-4v1.333zM22.667 10.667V9.334H20v1.333h1.333zM20 14.667v2.667h1.333v-1.333h1.333v-1.333h-1.333zM18.667 20v-1.333h-1.333v-1.333h-1.333v2.667h1.333zM17.333 21.333v1.333H20v-1.333h-1.333zM21.333 22.667h1.333v-4h-2.667V20h1.333v1.333zM16 14.667V9.334H9.333v6.667H16v-1.333zm-1.333 0h-4v-4h4v4z"/>
    <path d="M12 12h1.333v1.333H12V12z"/>
</symbol></svg>
