<svg xmlns="http://www.w3.org/2000/svg" viewBox="0 0 24 24" xml:space="preserve"><symbol id="icon">
    <path fill="none" d="M0 0h24v24H0z"/>
    <path d="M20.728 19H7.82a1.28 1.28 0 0 1-.901-.374l-5.227-5.227a1.273 1.273 0 0 1 0-1.798L6.92 6.373A1.28 1.28 0 0 1 7.82 6h12.908c.7 0 1.272.57 1.272 1.272v10.456c0 .7-.571 1.272-1.272 1.272zM7.82 7a.273.273 0 0 0-.193.08L2.4 12.308a.273.273 0 0 0 0 .384l5.228 5.228a.27.27 0 0 0 .193.08h12.908c.15 0 .272-.122.272-.272V7.272A.272.272 0 0 0 20.728 7H7.82z"/>
    <path d="m18.854 9.354-.708-.708L15 11.793l-3.146-3.147-.708.708 3.147 3.146-3.147 3.146.708.708L15 13.207l3.146 3.147.708-.708-3.147-3.146z"/>
</symbol></svg>
