<svg xmlns="http://www.w3.org/2000/svg" viewBox="0 0 24 24" xml:space="preserve"><symbol id="icon">
    <path fill="none" d="M0 0h24v24H0z"/>
    <path d="M12 17.995c-1.585 0-3.043-.693-3.902-1.852l.804-.596c.67.906 1.828 1.448 3.098 1.448s2.428-.542 3.098-1.448l.804.596c-.858 1.16-2.317 1.852-3.902 1.852z"/>
    <path d="M12 3c-4.962 0-9 4.038-9 9 0 4.963 4.038 9 9 9 4.963 0 9-4.037 9-9 0-4.962-4.037-9-9-9zm0 1a7.94 7.94 0 0 1 4.171 1.187c-4.925 4.862-9.463 3.458-11.037 2.728C6.531 5.575 9.082 4 12 4zm0 16c-4.411 0-8-3.589-8-8 0-1.142.244-2.226.677-3.21.781.354 2.2.855 4.017.855 2.328 0 5.288-.837 8.309-3.878A7.985 7.985 0 0 1 20 12c0 4.411-3.589 8-8 8z"/>
    <path d="M9.5 12.5h-1a.5.5 0 0 0-1 0h-1c0-.826.673-1.5 1.5-1.5s1.5.674 1.5 1.5zM17.5 12.5h-1a.5.5 0 0 0-1 0h-1c0-.826.673-1.5 1.5-1.5s1.5.674 1.5 1.5z"/>
</symbol></svg>
