<svg xmlns="http://www.w3.org/2000/svg" viewBox="0 0 24 24" xml:space="preserve"><symbol id="icon">
    <path fill="currentColor" d="M22 13.331c0-1.269-.735-2.356-1.795-2.891.489-.57.795-1.3.795-2.109a3.243 3.243 0 0 0-3.1-3.235c.06-.246.1-.5.1-.765a3.25 3.25 0 0 0-3.25-3.25c-.91 0-1.712.391-2.3.996C12.308 2.03 12.159 2 12 2s-.307.031-.45.077c-.588-.605-1.39-.996-2.3-.996A3.25 3.25 0 0 0 6 4.331c0 .265.04.519.1.765A3.243 3.243 0 0 0 3 8.331c0 .81.306 1.54.795 2.109A3.239 3.239 0 0 0 2 13.33c0 1.185.64 2.21 1.587 2.779a3.24 3.24 0 0 0-.087.721c0 1.362.839 2.524 2.026 3.008A3.49 3.49 0 0 0 9 23.08c1.281 0 2.39-.696 3-1.723a3.486 3.486 0 0 0 3 1.723 3.49 3.49 0 0 0 3.474-3.242A3.248 3.248 0 0 0 20.5 16.83a3.24 3.24 0 0 0-.087-.721A3.237 3.237 0 0 0 22 13.33zM12.5 3.5a.5.5 0 1 1-1 0 .5.5 0 0 1 1 0zm-1.36 17.347A2.475 2.475 0 0 1 9 22.081c-1.293 0-2.38-1.017-2.477-2.316l-.018-.24a1.98 1.98 0 0 1 .887-1.609.5.5 0 0 0 .223-.416v-2.135A1.5 1.5 0 0 0 8.5 14c0-.827-.673-1.5-1.5-1.5s-1.5.673-1.5 1.5c0 .693.475 1.272 1.115 1.444v1.804a2.968 2.968 0 0 0-.984 1.503c-.687-.4-1.131-1.11-1.131-1.92 0-.153.02-.317.062-.5l.16-.706-.62-.373A2.23 2.23 0 0 1 3 13.332c0-.846.477-1.612 1.246-2l.56-.282A2.495 2.495 0 0 0 7 8.581a.5.5 0 1 0-1 0c0 .73-.526 1.34-1.219 1.472l-.227-.265A2.222 2.222 0 0 1 4 8.33c0-1.198.943-2.18 2.147-2.236l.268-.012c.192.357.46.67.806.902a.5.5 0 1 0 .555-.832 1.48 1.48 0 0 1-.597-.853l-.107-.44A2.22 2.22 0 0 1 7 4.331c0-1.24 1.01-2.25 2.25-2.25.566 0 1.093.218 1.5.595a1.49 1.49 0 0 0 .75 2.232v8.885l-2-2v-1.385c.58-.207 1-.757 1-1.408 0-.827-.673-1.5-1.5-1.5S7.5 8.173 7.5 9c0 .651.42 1.2 1 1.408v1.799l3 3v5.034l-.36.606zM7 14.5a.5.5 0 1 1 .001-1.001A.5.5 0 0 1 7 14.5zM8.5 9a.5.5 0 1 1 1 0 .5.5 0 0 1-1 0zm11.399 6.252-.622.373.161.707c.042.182.062.346.062.5 0 .808-.444 1.52-1.13 1.919a2.973 2.973 0 0 0-.749-1.291.5.5 0 1 0-.707.707c.365.364.566.845.58 1.358l-.017.24C17.38 21.064 16.293 22.08 15 22.08a2.475 2.475 0 0 1-2.14-1.234l-.36-.606v-1.034l2.354-2.353-.013-.013c.2.098.421.159.659.159.827 0 1.5-.673 1.5-1.5s-.673-1.5-1.5-1.5-1.5.673-1.5 1.5c0 .238.06.46.16.66l-.014-.014-1.646 1.647v-2.586l2.854-2.853A.5.5 0 0 0 15.5 12V9c0-.03-.012-.057-.017-.087A1.497 1.497 0 0 0 16.5 7.5c0-.827-.673-1.5-1.5-1.5s-1.5.673-1.5 1.5c0 .657.428 1.211 1.017 1.413-.005.03-.017.056-.017.087v2.793l-2 2V4.908a1.49 1.49 0 0 0 .75-2.232 2.198 2.198 0 0 1 1.5-.595c1.24 0 2.25 1.01 2.25 2.25 0 .159-.023.327-.072.53l-.147.607c-.04.098-.089.193-.148.281a.5.5 0 0 0 .828.56c.049-.071.082-.15.123-.226l.27.012A2.241 2.241 0 0 1 20 8.331c0 .672-.301 1.163-.554 1.457l-.227.265A1.501 1.501 0 0 1 18 8.58a.5.5 0 1 0-1 0c0 1.274.961 2.317 2.195 2.47l.56.281a2.235 2.235 0 0 1 1.245 2 2.23 2.23 0 0 1-1.101 1.92zM15 15.5a.501.501 0 0 1 1 0 .501.501 0 0 1-1 0zM15 8a.5.5 0 1 1 .001-1.001A.5.5 0 0 1 15 8z"/>
</symbol></svg>
