<svg xmlns="http://www.w3.org/2000/svg" viewBox="0 0 24 24" xml:space="preserve"><symbol id="icon">
    <switch>
        <g>
            <path fill="none" d="M0 0h24v24H0z"/>
            <path d="m16.78 12.26 1.025 2.077.233.472.52.075 2.293.334-1.66 1.617-.376.367.09.518.39 2.284-2.05-1.078-.465-.245-.466.245-2.05 1.078.39-2.284.09-.518-.377-.367-1.659-1.617 2.293-.334.52-.075.233-.472 1.026-2.077m0-2.26-1.923 3.895-4.298.624 3.11 3.032-.734 4.281 3.845-2.021 3.844 2.021-.734-4.28L23 14.518l-4.298-.624L16.78 10zM12.998 7.5c0-3.033-2.466-5.5-5.498-5.5A5.506 5.506 0 0 0 2 7.5c0 .965.258 1.92.747 2.757L7.5 18.501l4.751-8.242a5.49 5.49 0 0 0 .747-2.76zm-1.612 2.258L7.5 16.5 3.612 9.756A4.49 4.49 0 0 1 3 7.5C3 5.019 5.019 3 7.5 3s4.499 2.019 4.499 4.5c0 .789-.212 1.569-.613 2.258z"/>
            <path d="M7.5 5.5c-1.104 0-2 .896-2 2s.896 2 2 2 2-.897 2-2-.897-2-2-2zm0 3c-.552 0-1-.45-1-1s.448-1 1-1a1 1 0 0 1 0 2z"/>
        </g>
    </switch>
</symbol></svg>
