<svg xmlns="http://www.w3.org/2000/svg" viewBox="0 0 24 24" xml:space="preserve"><symbol id="icon">
    <path fill="none" d="M0 0h24v24H0z"/>
    <path d="M24 8.536C23.876 8.513 21.07 8 19.056 8c-.105.001-2.554-.038-4.534.517-.015.005-1.565.46-2.49.477-.942-.017-2.491-.472-2.514-.479C7.544 7.961 5.094 8.001 5 8c-2.022 0-4.91.533-5 .55l.182.983c.01-.002.302-.057.872-.146l.612 3.98A3.088 3.088 0 0 0 4.736 16h2.736a2.69 2.69 0 0 0 2.518-1.76l1.613-4.273c.149.015.293.025.43.027.13-.002.269-.012.412-.026l1.61 4.266A2.69 2.69 0 0 0 16.575 16h2.737a3.088 3.088 0 0 0 3.069-2.634l.612-3.98c.57.09.815.132.825.134L24 8.536zM9.053 13.893A1.688 1.688 0 0 1 7.472 15H4.736a2.094 2.094 0 0 1-2.082-1.786l-.61-3.97C2.986 9.117 4.105 9 5.008 9c.025.002 2.406-.036 4.232.476.041.012.644.188 1.353.332l-1.541 4.085zm12.34-.68A2.094 2.094 0 0 1 19.312 15h-2.737a1.69 1.69 0 0 1-1.583-1.113l-1.539-4.079a18.04 18.04 0 0 0 1.346-.33c1.83-.514 4.216-.482 4.248-.478.898 0 2.014.117 2.956.243l-.61 3.97z"/>
</symbol></svg>
