<svg xmlns="http://www.w3.org/2000/svg" viewBox="0 0 24 24" xml:space="preserve"><symbol id="icon">
    <path fill="none" d="M0 0h24v24H0z"/>
    <path d="M6 9.002H2V13h4V9.002zm-1.007 3.003H3.007V9.996h1.986v2.01zM6 15.002H2V19h4v-3.998zm-1.007 3.003H3.007v-2.009h1.986v2.01zM11 15.002H7V19h4v-3.998zm-1.007 3.003H8.007v-2.009h1.986v2.01zM11 9.002H7V13h4V9.002zm-1.007 3.003H8.007V9.996h1.986v2.01z"/>
    <path d="M11.998 9v14H8.996v-3.001H4.001V23h-3V7.005H11v-1H.001V24h5v-3.001h2.995V24h5.002V9zM19.707 8.006H22.5c.827 0 1.5-.673 1.5-1.5V1.5c0-.827-.673-1.5-1.5-1.5h-9c-.827 0-1.5.673-1.5 1.5v5.006c0 .827.673 1.5 1.5 1.5H15v4.707l4.707-4.707zm-6.207-1a.5.5 0 0 1-.5-.5V1.5a.5.5 0 0 1 .5-.5h9a.5.5 0 0 1 .5.5v5.006a.5.5 0 0 1-.5.5h-3.207L16 10.299V7.006h-2.5z"/>
</symbol></svg>
