<svg xmlns="http://www.w3.org/2000/svg" viewBox="0 0 24 24" xml:space="preserve"><symbol id="icon">
    <path fill="none" d="M0 0h24v24H0z"/>
    <path d="M15.26 11H8.74C7.78 11 7 11.78 7 12.74v6.52c0 .96.78 1.74 1.74 1.74h6.52c.96 0 1.74-.78 1.74-1.74v-6.52c0-.96-.78-1.74-1.74-1.74zm.74 1.74V14h-2v-2h1.26a.74.74 0 0 1 .74.74zM14 15h2v2h-2v-2zm-5.26-3H13v8h-2v-6H8v-1.26a.74.74 0 0 1 .74-.74zM10 17H8v-2h2v2zm-2 2.26V18h2v2H8.74a.74.74 0 0 1-.74-.74zm7.26.74H14v-2h2v1.26c0 .408-.332.74-.74.74z"/>
    <path d="M18.076 24H5.923A1.926 1.926 0 0 1 4 22.076V2.923C4 1.863 4.863 1 5.923 1h7.487c.515 0 .998.2 1.36.564l4.664 4.573c.36.361.566.857.566 1.363v14.576c0 1.06-.863 1.924-1.924 1.924zM5.923 2A.924.924 0 0 0 5 2.923v19.153c0 .51.414.924.923.924h12.153c.51 0 .924-.414.924-.924V7.5a.93.93 0 0 0-.27-.653l-4.664-4.573A.918.918 0 0 0 13.41 2H5.923z"/>
</symbol></svg>
