<svg xmlns="http://www.w3.org/2000/svg" viewBox="0 0 24 24" xml:space="preserve"><symbol id="icon">
    <path fill="none" d="M0 0h24v24H0z"/>
    <path d="M17.75 2.998A5.257 5.257 0 0 0 13 6.013a5.257 5.257 0 0 0-4.75-3.015A5.256 5.256 0 0 0 3 8.248c0 .625.004 2.014 1.056 3.752h1.21C4.021 10.266 4 8.9 4 8.248a4.255 4.255 0 0 1 4.25-4.25c2.087 0 3.819 1.515 4.174 3.502h1.152a4.25 4.25 0 0 1 4.174-3.502A4.255 4.255 0 0 1 22 8.248c0 .803 0 2.684-2.333 5.017L13 19.965 8.06 15H6.648L13 21.384l7.375-7.413C23 11.346 23 9.095 23 8.248a5.256 5.256 0 0 0-5.25-5.25z"/>
    <path d="m12.05 16.097-2.084-3.649L8.924 14H1v-1h7.391l1.643-2.448 1.915 3.351 2.595-5.709L16.347 13H18v1h-2.347l-1.197-3.194z"/>
</symbol></svg>
