<svg xmlns="http://www.w3.org/2000/svg" viewBox="0 0 32 32" xml:space="preserve"><symbol id="icon">
    <path d="M0 0z"/>
    <path fill="currentColor" d="M31.3 9.4c-.7.9-1.8 1.3-3.2 1.3h-1.8l-2.1 3.1c0 1 .1 4.9-2.6 6.9l-1-1 .2-.2c2.4-1.9 1.9-5.9 1.9-5.9v-.2l2.7-4.1h2.5c1 0 1.7-.3 2.2-.8s.6-1.3.6-1.8h-2.9V6c0-.3-.1-.4-.2-.5-.3-.2-.8-.2-1-.2H25l-.2-.1c-1.1-.8-1.7-1.3-2.1-1.6-.7 1.3.3 2.5.4 2.6l.4.5-.4.4c-.3.3-2.9 3-4.2 3.7-2.5 1.5-4.3 1.2-4.4 1.2h-1.7l-1.2-1.2v-.1h3c.1 0 1.6.2 3.7-1 .8-.5 2.5-2.1 3.5-3.1-.7-1.1-1.2-2.8.3-4.4l.4-.4s2.4 1.8 2.9 2.2h1.1c.1 0 1.2-.1 2 .5.2.2.4.5.5.9h2.9l.1.6s.3 2-.7 3.4zm-10 17.3v-4.4L20 21v7h.7c1.2 0 1.7.7 1.9 1.3h-3.5l-.4-1.7v-6.3l-.7.1c-4.7.4-6.9-3.5-7-3.7l-.2-.3H8l.1.6c.2 1.8-3.1 5.2-5.1 7l-.2.2V28h.7c.4 0 .7.1.9.3.2.3.4.6.4.9H1.3v-4.4L4 21v-6.3H2.7V20c-.7-.1-1.3-.7-1.3-1.5v-3.7c0-1.5 1.2-2.7 2.7-2.7H11l-1.3-1.3H4.1c-2.2 0-4.1 1.8-4.1 4v3.7c0 1.3.9 2.5 2.2 2.8L0 24.4v6.2h6V30c0-.2.1-1.6-.8-2.6-.3-.4-.7-.6-1.2-.7v-.9c1.1-1 4.9-4.5 5.4-7.2h.6c.7 1 3 4.1 7.3 4.1v5l.7 2.9h6.1v-.7c-.1-1-.7-2.9-2.8-3.2z"/>
    <path fill="#e30b17" d="M31 32 .1 1.1 1 .2l31 30.9-1 .9z"/>
</symbol></svg>
