<svg xmlns="http://www.w3.org/2000/svg" viewBox="0 0 32 32" xml:space="preserve"><symbol id="icon">
    <rect/>
    <path fill="currentColor" d="M0 24h26.7v-5.4H0V24zm1.3-4h24v2.7h-24V20zm28-1.4V24H28v-5.4h1.3zM32 24h-1.3v-5.4H32V24zm-4-6.7c0-.9-.2-1.5-.7-1.9-.9-.8-2.5-.7-2.6-.7h-4c-4.9 0-6.1-4.9-6.1-6.7H16c0 .1.1 5.3 4.7 5.3h3.9s2.1-.2 3.5 1c.8.7 1.2 1.7 1.2 2.9H28zM17.3 8h1.3c0 1 .7 2.7 3.1 2.7h1.8c.1 0 4.1-.3 6.6 2 1.2 1.1 1.9 2.7 1.9 4.7h-1.3c0-1.6-.5-2.8-1.4-3.7-2-1.9-5.6-1.6-5.6-1.6h-1.8c-3.2-.1-4.6-2.2-4.6-4.1z"/>
</symbol></svg>
