<svg xmlns="http://www.w3.org/2000/svg" viewBox="0 0 32 32" xml:space="preserve"><symbol id="icon">
    <rect/>
    <path fill="currentColor" d="M18.7 23.3c0-3.3-2.7-6.1-6.1-6.1H6c-3.3.1-6 2.8-6 6.1v.7h18.7v-.7zm-17.3-.6c.3-2.3 2.3-4.1 4.7-4.1h6.6c2.4 0 4.3 1.8 4.7 4.1h-16zm16 5.3h1.3c0 2.2-1.8 4-4 4H4c-2.2 0-4-1.8-4-4h1.3c0 1.5 1.2 2.6 2.7 2.6h10.7c1.5 0 2.7-1.2 2.7-2.6zm11.9 2.4 1 1c-.6.4-1.2.6-1.9.6H25c-2 0-3.7-1.6-3.7-3.7v-6l1.3 1.3v1.7h1.7l1.3 1.3h-3v1.6c0 1.3 1 2.3 2.3 2.3h3.4c.4 0 .7 0 1-.1zm-.6-26.6c.4-.2.6-.7.6-1.1V1.4c0-.8-.6-1.4-1.4-1.4h-2.5c-.8 0-1.4.6-1.4 1.4v1.3c0 .5.3.9.6 1.1-1.1 1.8-3.3 5.8-3.3 7.3v9.4l1.3 1.3V16h8v9.3h-4.5l1.3 1.3h3.2v1.6c0 .4-.2.9-.4 1.2l1 1c.4-.6.8-1.4.8-2.2V11.1c0-1.5-2.2-5.5-3.3-7.3zm-3.3-2.5 2.6.1v1.3s0 .1-.1.1l-2.6-.1.1-1.4zm5.2 13.4h-8v-3.6c0-1 1.9-4.6 3.4-7h1.3c1.5 2.5 3.4 6.1 3.4 7l-.1 3.6zM14.8 25.1h4v1.3h-4c-.1.8-.7 1.4-1.4 1.4h-1.3c0 .8-.6 1.4-1.4 1.4H7.4c-1.1 0-2-.9-2-2 0-.4-.3-.7-.7-.7H0v-1.3h4.7c1.1 0 2 .9 2 2 0 .5.3.8.7.8h3.4v-.1c0-.7.6-1.3 1.4-1.3h1.3c-.1-.9.5-1.5 1.3-1.5z"/>
    <path fill="#e30b17" d="M.1 1 1 .1l30.9 31-.9.9L.1 1z"/>
</symbol></svg>
