<svg xmlns="http://www.w3.org/2000/svg" viewBox="0 0 32 32" xml:space="preserve"><symbol id="icon">
    <rect/>
    <path fill="currentColor" d="M25.7 26.7 27 28H0V8h7.1l1.3 1.3H1.3v17.4h24.4zM23 8l-2.6-4h-8.8L9 8h-.1l1 1 2.5-3.7h7.2l2.7 4h8.4v17.4h-3.2l1.4 1.3H32V8h-9zm-1.3 12.8c.6-1 1-2.2 1-3.4 0-3.7-3-6.7-6.7-6.7-1.3 0-2.4.4-3.4 1l.9.9c.7-.4 1.6-.6 2.5-.6 2.9 0 5.3 2.4 5.3 5.3 0 .9-.2 1.7-.6 2.5l1 1zm-9.2-7.3-.9-.9c-1.3 1.2-2.2 2.9-2.2 4.9 0 3.7 3 6.7 6.7 6.7 1.9 0 3.6-.8 4.9-2.1l-1.1-1.2c-1 1.1-2.4 1.8-3.9 1.8-2.9 0-5.3-2.4-5.3-5.3 0-1.6.7-3 1.8-3.9z"/>
    <path fill="#e30b17" d="m0 1 1-1 31 31.1-1 .9L0 1z"/>
</symbol></svg>
