<svg xmlns="http://www.w3.org/2000/svg" viewBox="0 0 32 32" xml:space="preserve"><symbol id="icon">
    <rect/>
    <path fill="currentColor" d="M32 21.9c0 2.5-1.6 4.6-3.8 5.5l-1.1-1.1c2-.6 3.4-2.4 3.4-4.5 0-2.6-2.1-4.7-4.7-4.7-.6 0-1.2.2-1.8.4l2.4 4c.2.3.1.7-.2.9-.1.1-.2.1-.3.1-.3 0-.5-.1-.6-.3L23 18.3c-.7.6-1.2 1.4-1.5 2.3l-1-1c.4-.9 1.2-1.9 2-2.5l-1.6-2.7-2 3.6-1-1 2.1-3.8h-6l-1.3-1.3h6.4L18 10.2c-.2-.4-.3-1 0-1.4.2-.4.7-.7 1.2-.7h4c1.1 0 2 .9 2 2s-.9 2-2 2c-.4 0-.7-.3-.7-.7 0-.4.3-.7.7-.7.4 0 .7-.3.7-.7s-.3-.7-.7-.7h-4l4.2 7.2c.8-.4 1.6-.6 2.5-.6 3.4 0 6.1 2.7 6.1 6zM10.7 9.2c.4 0 .7-.3.7-.7s-.4-.6-.7-.6H8.8l1.3 1.3h.6zm7.5 9.9-.8 1.4c.4.4.6.9.6 1.4 0 1.1-.9 2-2 2-.9 0-1.6-.5-1.9-1.3h-2.2c-.3 3-2.8 5.3-5.9 5.3-3.3 0-6-2.7-6-6s2.7-6 6-6c.8 0 1.5.1 2.4.5l1.7-3.2-2.4-3.9h-1c-.4 0-.7-.3-.7-.7 0-.4.3-.7.7-.7h.2l5.2 5.2h-.6l4.1 6.7h.6l1-1.7 1 1zm-7.6 3.3H6c-.3 0-.5-.1-.6-.3-.1-.2-.1-.5 0-.7l2.2-4c-.5-.2-1-.3-1.6-.3-2.6 0-4.7 2.1-4.7 4.7s2.1 4.7 4.7 4.7c2.3 0 4.3-1.7 4.6-4.1zm0-1.2c-.2-1.3-.8-2.4-1.8-3.1l-1.7 3.1h3.5zm3.9-.8-3.7-6.1-1.4 2.6c1.4 1 2.3 2.5 2.5 4.3h2.2c.1-.2.3-.5.4-.8zm2.2 1.4c0-.4-.3-.7-.7-.7s-.7.3-.7.7c0 .4.3.7.7.7s.7-.3.7-.7zm4.7.5L20.1 21c0 .3-.1.6-.1.9 0 3.3 2.7 6 6 6 .3 0 .6 0 .8-.1l-1.3-1.3c-2.2-.2-3.9-2-4.1-4.2z"/>
    <path fill="#e30b17" d="M0 1 .9.1l31 31.1-.9.9L0 1z"/>
</symbol></svg>
