<svg xmlns="http://www.w3.org/2000/svg" viewBox="0 0 32 32" xml:space="preserve"><symbol id="icon">
    <rect x=".008" y=".009"/>
    <path d="M15.99.003C7.17.003-.006 7.18-.006 16S7.17 31.997 15.99 31.997 31.983 24.82 31.983 16 24.808.003 15.989.003zM30.65 16c0 1.148-.146 2.26-.397 3.332H1.725A14.617 14.617 0 0 1 1.328 16c0-1.148.146-2.26.397-3.333h28.528c.25 1.073.397 2.185.397 3.333z"/>
    <path d="M8.626 15.016h.359v1.973H8.48l-.506-.967c-.026-.049-.053-.102-.08-.16l-.081-.169a4.936 4.936 0 0 1-.072-.157c-.022-.049-.04-.09-.052-.121h-.006l.006.128.004.18.002.189.002.155v.922h-.36v-1.973h.533l.497.975c.02.036.041.08.065.13l.076.158a9.913 9.913 0 0 1 .129.289h.005a50.955 50.955 0 0 1-.011-.342l-.005-.207-.001-.175v-.828zm1.864 1.732a.639.639 0 0 1-.19.194.543.543 0 0 1-.31.08.537.537 0 0 1-.21-.039.428.428 0 0 1-.162-.114c-.044-.05-.079-.11-.104-.18s-.037-.147-.037-.232v-.924h.374v.755c0 .064.004.122.011.174a.366.366 0 0 0 .043.132c.02.037.049.066.085.087.036.02.08.031.135.031a.29.29 0 0 0 .146-.036.34.34 0 0 0 .11-.095.435.435 0 0 0 .067-.145.678.678 0 0 0 .023-.176v-.727h.376v1.024c0 .077 0 .153.002.228 0 .076.004.143.012.204h-.354a1.763 1.763 0 0 1-.01-.24h-.007zm1.18-.938a.542.542 0 0 1 .16-.228.4.4 0 0 1 .26-.083c.022 0 .043.002.063.003.02.002.04.007.06.014l-.008.325a.417.417 0 0 0-.13-.02c-.253 0-.38.192-.38.575v.593h-.384v-1.023c0-.077-.001-.154-.003-.23a2.575 2.575 0 0 0-.011-.203h.356l.005.061.003.074.002.076.001.066h.006zm1.612-.794h.499c.109 0 .214.008.315.026.101.017.19.047.266.093a.51.51 0 0 1 .25.486.596.596 0 0 1-.066.296.532.532 0 0 1-.18.189.768.768 0 0 1-.265.102c-.1.02-.207.029-.32.029h-.1v.752h-.399v-1.973zm.4.919h.07c.068 0 .13-.005.185-.013a.383.383 0 0 0 .144-.048.238.238 0 0 0 .091-.097.326.326 0 0 0 .033-.154c0-.116-.039-.196-.115-.24a.688.688 0 0 0-.338-.068h-.07v.62zm1.49.432a.342.342 0 0 0 .129.268c.082.067.19.1.321.1a.803.803 0 0 0 .424-.12l.006.311a.91.91 0 0 1-.215.071c-.08.017-.168.026-.26.026-.119 0-.227-.017-.326-.051a.667.667 0 0 1-.41-.391.883.883 0 0 1-.056-.327c0-.11.017-.21.052-.302s.085-.173.148-.24a.692.692 0 0 1 .231-.156.762.762 0 0 1 .299-.057c.21 0 .37.064.478.191.107.127.161.323.161.587a.776.776 0 0 1-.005.09h-.977zm.634-.26c0-.119-.027-.205-.082-.259a.306.306 0 0 0-.223-.08.328.328 0 0 0-.222.085c-.066.056-.103.14-.112.254h.64zm1.075-.297a.542.542 0 0 1 .16-.228.4.4 0 0 1 .259-.083c.023 0 .044.002.064.003.02.002.04.007.06.014l-.008.325a.414.414 0 0 0-.13-.02c-.253 0-.38.192-.38.575v.593h-.384v-1.023a8.87 8.87 0 0 0-.003-.23 2.576 2.576 0 0 0-.011-.203h.356a1.1 1.1 0 0 1 .005.061l.002.074.003.076.001.066h.006zm.747.837c.071.034.142.059.21.075a.867.867 0 0 0 .2.024c.065 0 .12-.013.168-.039a.125.125 0 0 0 .07-.117.147.147 0 0 0-.056-.118.373.373 0 0 0-.087-.05 2.084 2.084 0 0 0-.143-.055c-.14-.047-.239-.102-.298-.165s-.089-.149-.089-.256a.389.389 0 0 1 .157-.326.561.561 0 0 1 .184-.09 1.06 1.06 0 0 1 .632.036l-.03.284a.845.845 0 0 0-.35-.082.296.296 0 0 0-.158.04.128.128 0 0 0-.061.112c0 .025.003.046.011.064.01.018.024.034.043.048s.047.028.082.042c.035.015.078.03.129.047.064.021.121.044.173.07.05.025.094.054.13.088a.367.367 0 0 1 .082.12.43.43 0 0 1 .027.16.444.444 0 0 1-.043.2.432.432 0 0 1-.122.145.557.557 0 0 1-.187.09.953.953 0 0 1-.243.029 1.232 1.232 0 0 1-.45-.076l.019-.3zm2.074-1.148c.112 0 .213.019.306.056a.672.672 0 0 1 .394.396c.036.094.056.2.056.315 0 .113-.02.215-.056.309a.687.687 0 0 1-.156.24.715.715 0 0 1-.244.154.88.88 0 0 1-.312.054.845.845 0 0 1-.31-.056.7.7 0 0 1-.243-.155.722.722 0 0 1-.156-.24.822.822 0 0 1-.057-.31c0-.116.02-.222.057-.316a.673.673 0 0 1 .402-.393.906.906 0 0 1 .319-.054zm-.012.28a.314.314 0 0 0-.265.126c-.064.084-.097.204-.097.36 0 .144.033.257.098.342a.314.314 0 0 0 .261.128.327.327 0 0 0 .271-.129c.066-.086.1-.204.1-.355s-.032-.267-.097-.349a.326.326 0 0 0-.27-.123zm1.503-.003a.542.542 0 0 1 .484-.277.59.59 0 0 1 .244.046c.067.03.121.073.163.128.042.056.07.123.088.202.019.08.028.168.028.266v.848h-.374v-.701c0-.07-.002-.134-.005-.193a.51.51 0 0 0-.032-.154.237.237 0 0 0-.08-.102c-.035-.025-.083-.037-.145-.037s-.12.017-.173.052a.378.378 0 0 0-.125.137.755.755 0 0 0-.062.34v.658h-.374v-1.004c0-.071 0-.144-.003-.22a4.829 4.829 0 0 0-.01-.232h.359a2.156 2.156 0 0 1 .01.243h.007zm1.513-.164a.968.968 0 0 1 .252-.084c.094-.019.185-.029.272-.029.113 0 .21.015.29.043a.453.453 0 0 1 .306.305.806.806 0 0 1 .034.246l-.001.1-.002.116v.118c-.002.037-.002.07-.002.098 0 .087.002.174.008.26.003.087.007.155.011.204h-.33a.24.24 0 0 1-.004-.05l-.001-.066v-.06c0-.022.002-.044.005-.067h-.005a.562.562 0 0 1-.196.197.582.582 0 0 1-.305.074.588.588 0 0 1-.197-.03.448.448 0 0 1-.153-.09.43.43 0 0 1-.137-.332c0-.153.064-.27.194-.352.129-.082.314-.123.556-.123l.1.001c.036.002.073.004.106.008 0-.114-.027-.195-.082-.246-.054-.051-.141-.077-.26-.077a.764.764 0 0 0-.233.037 1.046 1.046 0 0 0-.212.093l-.014-.294zm.807.707a.557.557 0 0 0-.067-.005h-.058a.884.884 0 0 0-.345.052.182.182 0 0 0-.118.179c0 .064.019.113.058.147a.25.25 0 0 0 .168.051.418.418 0 0 0 .14-.024.298.298 0 0 0 .115-.075.332.332 0 0 0 .078-.132.568.568 0 0 0 .029-.193zm.792-1.467h.379v2.137h-.38v-2.137z"/>
</symbol></svg>
