<svg xmlns="http://www.w3.org/2000/svg" viewBox="0 0 32 32" xml:space="preserve"><symbol id="icon">
    <rect y=".047"/>
    <path d="M16-.029c-8.822 0-16 7.161-16 15.962s7.178 15.962 16 15.962c8.823 0 16-7.16 16-15.962S24.823-.029 16-.029zm14.667 15.962c0 1.146-.146 2.255-.397 3.326H1.73c-.25-1.07-.397-2.18-.397-3.326 0-1.145.146-2.255.397-3.325h28.54c.25 1.07.397 2.18.397 3.325z"/>
    <path d="M4.178 14.993h.4v1.972h-.4v-1.972zm1.263.76a.54.54 0 0 1 .484-.277c.097 0 .179.015.246.046.067.03.12.072.162.128a.528.528 0 0 1 .09.202c.018.079.026.168.026.265v.848h-.373v-.701c0-.07-.002-.134-.006-.193a.49.49 0 0 0-.032-.154.232.232 0 0 0-.08-.102c-.035-.024-.083-.037-.146-.037s-.12.018-.172.053a.373.373 0 0 0-.125.137.753.753 0 0 0-.062.339v.658H5.08v-1.003a8.475 8.475 0 0 0-.014-.452h.36a2.941 2.941 0 0 1 .011.243h.005zm1.291.037v-.28h.287v-.305l.357-.121v.426h.348v.28h-.348v.568c0 .11.014.192.043.242.03.051.09.076.183.076a.442.442 0 0 0 .139-.022l.008.291a.575.575 0 0 1-.12.028 1.073 1.073 0 0 1-.14.009c-.168 0-.29-.044-.364-.13-.075-.087-.112-.226-.112-.418v-.644h-.28zm1.625.553a.342.342 0 0 0 .13.269c.081.066.189.099.32.099a.805.805 0 0 0 .425-.119l.006.31a.911.911 0 0 1-.215.071c-.081.017-.168.026-.26.026a.998.998 0 0 1-.326-.051.667.667 0 0 1-.41-.391.881.881 0 0 1-.057-.327c0-.109.017-.21.052-.302a.707.707 0 0 1 .149-.239.692.692 0 0 1 .23-.156.763.763 0 0 1 .3-.057c.21 0 .37.064.478.191.107.127.161.322.161.586a.776.776 0 0 1-.005.09h-.978zm.635-.26c0-.118-.027-.204-.083-.258a.306.306 0 0 0-.223-.08.329.329 0 0 0-.222.085c-.066.056-.103.14-.112.253h.64zm1.076-.296a.541.541 0 0 1 .16-.228.401.401 0 0 1 .259-.083c.023 0 .044.001.064.003.02.002.04.007.06.014l-.008.325a.418.418 0 0 0-.13-.02c-.254 0-.38.191-.38.574v.593h-.385v-1.022a8.85 8.85 0 0 0-.003-.23 2.57 2.57 0 0 0-.011-.203h.357l.004.061.003.073c0 .026.002.051.003.076v.067h.007zm2.154.743c0 .077.001.154.003.23.002.076.005.144.011.205h-.345a1.17 1.17 0 0 1-.007-.116l-.001-.138h-.006a.572.572 0 0 1-.199.214.539.539 0 0 1-.288.074.557.557 0 0 1-.462-.207.717.717 0 0 1-.126-.24 1.041 1.041 0 0 1-.044-.313c0-.113.015-.216.046-.31a.72.72 0 0 1 .128-.24.587.587 0 0 1 .46-.213c.11 0 .202.024.278.071.075.047.136.11.182.189h.005a4.582 4.582 0 0 1-.007-.189l-.002-.215v-.503h.374v1.7zm-.73-.763a.29.29 0 0 0-.251.135.5.5 0 0 0-.068.149.69.69 0 0 0-.024.188c0 .068.008.13.024.188.016.057.04.107.07.148a.33.33 0 0 0 .109.098.29.29 0 0 0 .143.035.313.313 0 0 0 .262-.133.462.462 0 0 0 .072-.148.678.678 0 0 0 0-.375.47.47 0 0 0-.072-.15.325.325 0 0 0-.265-.134zm1.217-.534v-.361h.38v.361h-.38zm0 .277h.38v1.455h-.38V15.51zm.682.28v-.28h.286v-.305l.357-.121v.426h.348v.28h-.348v.568c0 .11.014.192.043.242.03.051.091.076.183.076a.442.442 0 0 0 .14-.022l.008.291a.575.575 0 0 1-.12.028 1.073 1.073 0 0 1-.14.009c-.169 0-.29-.044-.365-.13-.075-.087-.112-.226-.112-.418v-.644h-.28zm2.143-.2a.965.965 0 0 1 .252-.085 1.39 1.39 0 0 1 .272-.029c.113 0 .21.014.29.042a.46.46 0 0 1 .306.305.805.805 0 0 1 .035.246c0 .029 0 .062-.002.1a6.71 6.71 0 0 0-.002.234l-.001.099a8.28 8.28 0 0 0 .02.463h-.332a.38.38 0 0 1-.004-.05l-.001-.066v-.06l.005-.067h-.005a.563.563 0 0 1-.196.197.582.582 0 0 1-.306.074.592.592 0 0 1-.196-.03.422.422 0 0 1-.29-.42c0-.154.064-.272.193-.354.13-.081.315-.122.556-.122h.101c.037.002.072.004.106.008 0-.113-.027-.195-.082-.245-.054-.052-.142-.077-.26-.077a.762.762 0 0 0-.233.037 1.032 1.032 0 0 0-.212.093l-.014-.294zm.807.705a.579.579 0 0 0-.067-.005h-.058a.884.884 0 0 0-.345.052.183.183 0 0 0-.119.18c0 .064.02.112.06.146.039.034.095.051.167.051a.42.42 0 0 0 .14-.024.298.298 0 0 0 .115-.075.347.347 0 0 0 .078-.131.583.583 0 0 0 .03-.194zm1.787.43a.641.641 0 0 1-.19.193.542.542 0 0 1-.312.08.542.542 0 0 1-.21-.039.428.428 0 0 1-.162-.114.54.54 0 0 1-.104-.18.688.688 0 0 1-.037-.231v-.924h.374v.754c0 .064.004.122.012.174a.378.378 0 0 0 .043.133.22.22 0 0 0 .084.086c.037.02.081.031.136.031s.104-.012.146-.036a.334.334 0 0 0 .109-.095.422.422 0 0 0 .068-.144.65.65 0 0 0 .023-.177v-.726h.376v1.023c0 .077 0 .153.002.229.001.075.005.142.013.203h-.354a1.712 1.712 0 0 1-.012-.24h-.005zm1.586-.774a6.995 6.995 0 0 0-.015-.441h.362c.004.03.007.068.01.112l.002.122h.005a.66.66 0 0 1 .21-.202.563.563 0 0 1 .284-.066c.093 0 .18.018.255.054a.533.533 0 0 1 .194.15.692.692 0 0 1 .122.235c.029.092.042.194.042.307 0 .115-.014.22-.043.315a.743.743 0 0 1-.126.245.572.572 0 0 1-.459.217.523.523 0 0 1-.277-.07.577.577 0 0 1-.19-.193h-.007a.609.609 0 0 1 .006.068c0 .03 0 .063.002.098l.001.105V17.558h-.378V15.95zm.74-.178a.313.313 0 0 0-.148.035c-.044.023-.082.056-.115.098s-.056.09-.073.146a.648.648 0 0 0-.026.187c0 .068.01.13.026.186.017.057.04.106.072.149a.313.313 0 0 0 .262.134.295.295 0 0 0 .254-.134.502.502 0 0 0 .066-.15.783.783 0 0 0 .022-.19.573.573 0 0 0-.088-.337.293.293 0 0 0-.252-.124zm2.112.952a.545.545 0 0 1-.5.274.533.533 0 0 1-.21-.04c-.064-.026-.118-.064-.162-.114s-.08-.11-.104-.18a.688.688 0 0 1-.037-.231v-.924h.374v.754c0 .064.004.122.012.174.006.052.02.096.041.133.021.037.05.065.086.086.036.02.081.031.136.031s.103-.012.146-.036a.348.348 0 0 0 .109-.095.447.447 0 0 0 .068-.144.706.706 0 0 0 .022-.177v-.726h.376v1.023c0 .077.001.153.003.229 0 .075.004.142.012.203h-.355c-.002-.03-.006-.066-.007-.106-.003-.04-.003-.085-.003-.134h-.007zm1.181.005c0 .042 0 .084-.002.128-.002.043-.005.079-.008.107h-.352c.006-.06.01-.129.012-.205.001-.076.003-.153.003-.23v-1.7h.373v.717a3.601 3.601 0 0 1-.009.189h.007a.559.559 0 0 1 .204-.194.592.592 0 0 1 .285-.066c.093 0 .176.018.252.055.075.037.139.089.191.156a.748.748 0 0 1 .121.237c.028.091.042.191.042.301 0 .113-.014.217-.043.312a.73.73 0 0 1-.126.244.572.572 0 0 1-.465.218.543.543 0 0 1-.285-.071.526.526 0 0 1-.193-.198h-.007zm.391-.96a.313.313 0 0 0-.148.035.352.352 0 0 0-.115.1.45.45 0 0 0-.073.147.648.648 0 0 0-.026.187c0 .068.01.13.026.186.017.057.04.106.072.147a.313.313 0 0 0 .262.133c.109 0 .193-.044.255-.131.06-.088.09-.2.09-.338a.597.597 0 0 0-.086-.338.289.289 0 0 0-.257-.128zm1.116-.94h.38v2.135h-.38v-2.136zm.872.403v-.361h.38v.361h-.38zm0 .277h.38v1.455h-.38V15.51zm1.81.311a.515.515 0 0 0-.229-.045.443.443 0 0 0-.187.037.397.397 0 0 0-.22.244.62.62 0 0 0-.003.361.362.362 0 0 0 .219.242.635.635 0 0 0 .324.023c.04-.008.08-.021.122-.04l.02.297a1.018 1.018 0 0 1-.309.045.966.966 0 0 1-.328-.053.658.658 0 0 1-.414-.381.796.796 0 0 1-.056-.306c0-.117.02-.222.063-.315a.704.704 0 0 1 .42-.386.901.901 0 0 1 .303-.05c.062 0 .116.002.163.008a.734.734 0 0 1 .14.03l-.028.29z"/>
</symbol></svg>
