<svg xmlns="http://www.w3.org/2000/svg" viewBox="0 0 32 32" xml:space="preserve"><symbol id="icon">
    <path d="M0 0v32h32V0H0zm14.9 27.2c-5.8 0-10.5-4.6-10.5-10.4 0-6.3 5.1-11.5 11.5-11.5s11.5 5.1 11.5 11.5l-.1 2H26v-2c0-2.7-1.1-5.2-3-7.2-1.9-1.9-4.5-3-7.2-3-5.6 0-10.1 4.5-10.1 10.1 0 5.1 4.1 9.2 9.2 9.2s9.2-4.1 9.2-9.2c0-4.6-3.7-8.3-8.3-8.3-4.6 0-8.3 3.7-8.3 8.3 0 4.1 3.3 7.4 7.4 7.4 4.1 0 7.4-3.3 7.4-7.4 0-3.6-2.9-6.5-6.5-6.5s-6.5 2.9-6.5 6.5c0 3.1 2.5 5.5 5.5 5.5 3.1 0 5.5-2.5 5.5-5.5 0-2.5-2.1-4.6-4.6-4.6s-4.6 2.1-4.6 4.6c0 2 1.7 3.7 3.7 3.7s3.7-1.7 3.7-3.7c0-1.5-1.2-2.8-2.8-2.8-1.6 0-2.8 1.2-2.8 2.8h-1.3c0-2.3 1.8-4.1 4.1-4.1s4.1 1.8 4.1 4.1c0 2.8-2.3 5-5 5s-5-2.3-5-5c0-3.3 2.7-6 6-6s6 2.7 6 6c0 3.8-3.1 6.9-6.9 6.9-3.8 0-6.9-3.1-6.9-6.9 0-4.3 3.5-7.8 7.8-7.8s7.8 3.5 7.8 7.8c0 4.8-3.9 8.7-8.7 8.7-4.8 0-8.7-3.9-8.7-8.7 0-5.3 4.3-9.6 9.6-9.6s9.6 4.3 9.6 9.6c0 5.8-4.7 10.5-10.5 10.5zm10.6-2.8.7-.7-.3-2.3h1.4l-.3 2.3.7.7h-2.2zm2.2-3.7h-2.2v-1.1h2.2v1.1z"/>
</symbol></svg>
