<svg xmlns="http://www.w3.org/2000/svg" viewBox="0 0 32 32" xml:space="preserve"><symbol id="icon">
    <rect x="4" y="4"/>
    <path d="M0 0v32h32V0H0zm10.5 20.6c-.2-.1-4.8-1.8-4.8-6.6 0-6.4 6.3-6.7 6.4-6.7h4.3v1.3h-4.3c-.2.1-5.1.3-5.1 5.5 0 3.9 3.9 5.3 3.9 5.3.1 0 1.8.7 1.8 2.9h-1.3c0-1.2-.8-1.6-.9-1.7zm1.8 6.6h-.4l-.4-2.2h1.1l-.3 2.2zm.7-3h-1.9v-1.1H13v1.1zM25.7 6H22l-1.9 1.5h3.7l1.6.9-.3.6-1.4-.8h-4.3V9c1.7.3 3 1.1 3.2 2.1v16H14v-16c.1-1 1.4-1.9 3.1-2.1V7.4l4.5-2.6h4.1V6z"/>
</symbol></svg>
