<svg xmlns="http://www.w3.org/2000/svg" viewBox="0 0 32 32" xml:space="preserve"><symbol id="icon">
    <rect/>
    <path d="M0 0v32h32V0H0zm11.6 8.4h.1c.2-1.2 1.4-2.1 3.9-2.4V4.9h.7V6c2.5.3 3.8 1.2 3.9 2.4v1h-8.6v-1zM10 15.2H8.9V13H10v2.2zm11.2.8h-1.6v9.7h1.6v1.5H10.8v-1.5h1.7V16h-1.7v-3.7h1.7v-2.2h7.1v2.3h1.6V16zm1.9-.8H22V13h1.1v2.2zM16 14.1c-1 0-1.9.8-1.9 1.9s.8 1.9 1.9 1.9c1 0 1.9-.8 1.9-1.9s-.9-1.9-1.9-1.9zm0 3c-.6 0-1.1-.5-1.1-1.1s.5-1.1 1.1-1.1 1.1.5 1.1 1.1-.5 1.1-1.1 1.1z"/>
</symbol></svg>
