<svg xmlns="http://www.w3.org/2000/svg" viewBox="0 0 64 32" xml:space="preserve"><symbol id="icon">
    <rect x="8" y="4"/>
    <path d="M0 0v32h64V0H0zm40 4.8c1.1 0 1.9.9 1.9 1.9 0 1.1-.9 1.9-1.9 1.9s-1.9-.9-1.9-1.9c0-1 .9-1.9 1.9-1.9zM16.7 27H4.8V4.7h11.9V27zm15-11-4-4.2v8.7h-2v-8.7L21.8 16v-2.6l4.9-4.9 4.9 4.9V16zm27.5 4.6h-7.7c-.2 0-.5-.1-.6-.2l-2.6-2.3-2.9 2.9v6.2h-2.5v-7.8c0-.3.2-.5.3-.7l2.9-3.1-3.1-3.1v3.2h-4.1c-1.1 0-2-.9-2-2H41V10c0-1.3 1.1-2.2 2.3-2.2h6.2v4.6l-1.9-2v-.6h-1l4 4.2c.4.4.5 1 .1 1.6l2.8 2.4h5.8l-.1 2.6z"/>
</symbol></svg>
