<svg xmlns="http://www.w3.org/2000/svg" viewBox="0 0 64 32" xml:space="preserve"><symbol id="icon">
    <rect x="8" y="4"/>
    <path d="M0 0v32h64V0H0zm24.1 4.8c1.1 0 1.9.9 1.9 1.9 0 1.1-.9 1.9-1.9 1.9s-1.9-.9-1.9-1.9c-.1-1 .8-1.9 1.9-1.9zm1.3 10.8h-4.1v-3.2l-3.1 3.1 2.9 3.1c.2.2.3.4.3.7v7.8h-2.5v-6.2L15.8 18l-2.6 2.3c-.2.2-.4.2-.6.2H4.9v-2.6h5.8l2.8-2.4c-.4-.5-.3-1.1.1-1.6l4-4.2h-1v.6l-1.9 2V7.7h6.2c1.2 0 2.3.9 2.3 2.2v3.7h4.1c.1 1.2-.8 2-1.9 2zm16.8.4-4.9 4.9-5-4.9v-2.6l3.9 4.1V8.8h2v8.7l4-4.2V16zm17 11.2H47.3V4.9h11.9v22.3z"/>
</symbol></svg>
