<svg xmlns="http://www.w3.org/2000/svg" viewBox="0 0 64 32" xml:space="preserve"><symbol id="icon">
    <path d="M0 0v32h64V0H0zm24 4.8c1.1 0 1.9.9 1.9 1.9s-.8 2-1.9 2-1.9-.9-1.9-1.9.8-2 1.9-2zm1.3 10.8h-4.1v-3.2L18 15.6l2.9 3.1c.2.2.3.4.3.7v7.8h-2.5V21l-2.9-2.9-2.6 2.3c-.2.2-.4.2-.6.2H4.8V18h5.8l2.8-2.4c-.4-.5-.3-1.1.1-1.6l4-4.2h-1v.6l-1.9 2V7.8h6.2c1.2 0 2.3.9 2.3 2.2v3.7h4.1c.1 1.1-.8 1.9-1.9 1.9zM41.4 19l-1.8 1.8.1-5.7-6.2 6.2-1.4-1.4 6.2-6.2-5.7.1 1.8-1.8h7v7zm17.7 8.2H47.2V4.9h11.9v22.3z"/>
</symbol></svg>
