<svg xmlns="http://www.w3.org/2000/svg" viewBox="0 0 32 32" xml:space="preserve"><symbol id="icon">
    <path d="M0 0v32h32V0H0zm19.9 11.7c.6 0 1.2.5 1.2 1.2 0 .6-.5 1.2-1.2 1.2-.6 0-1.2-.5-1.2-1.2 0-.6.5-1.2 1.2-1.2zM16 13.6c.6 0 1.2.5 1.2 1.2 0 .6-.5 1.2-1.2 1.2-.6 0-1.2-.5-1.2-1.2.1-.7.6-1.2 1.2-1.2zm-4.2-1.9c.6 0 1.2.5 1.2 1.2 0 .6-.5 1.2-1.2 1.2-.6 0-1.2-.5-1.2-1.2 0-.6.6-1.2 1.2-1.2zM5.6 4.8l3.8 3.8V5.3l1.1 1.1v4h-4l-1.2-1 3.3.1-3.8-3.9.8-.8zm4.8 20.8-1.1 1.1.1-3.3-3.8 3.8-.8-.8 3.8-3.8-3.3.1 1.1-1.1h4v4zm2.5-5.9h-2.5v-3.1h-.3v3.1h-.9v-3.4c0-1 .8-1.8 1.8-1.8h1.6c1 0 1.7.7 1.8 1.7-.9.2-1.5 1-1.5 1.9v1.6zm5.7 1.9h-.9v-3.1h-.3v3.1h-2.9v-3.1h-.3v3.1h-.9v-3.4c0-1 .8-1.8 1.8-1.8h1.6c1 0 1.8.8 1.8 1.8l.1 3.4zm2.7-5v3.1h-2.5v-1.6c0-1-.7-1.7-1.6-1.9.1-.9.9-1.7 1.8-1.7h1.6c1 0 1.8.8 1.8 1.8v3.4h-.9v-3.1h-.2zm5.1 10.6-3.8-3.8.1 3.3-1.1-1.1v-4h4l1.1 1.1-3.3-.1 3.8 3.8-.8.8zm-3-17.8 3.3-.1-1.1 1.1h-4v-4l1.1-1.1-.1 3.3 3.8-3.8.8.8-3.8 3.8z"/>
</symbol></svg>
