<svg xmlns="http://www.w3.org/2000/svg" viewBox="0 0 32 32" xml:space="preserve"><symbol id="icon">
    <rect/>
    <path fill="currentColor" d="M10.2 24.6h11.5v2.6H10.2v-2.6zm3.3-1.8c.4.3.8.5 1.1.6-.6-.7-1-1.6-1.2-2.5-.2-.8-.1-.8 0-1.6 0 .1.1.2.1.2.1.1.1.1.2.1 0-.1-.1-.5 0-.8 0-.4.3-1 .3-1.1 0 0 0 .4.2.8.1.4.4.8.4.8 0-.1-.1-.5-.1-.9 0-.3.1-.7.1-.7s.1.5.2.8c.1.2.4.5.4.5s.6-.6.8-1.1L11.1 13c-.1.3-.1.6-.1.9.1.9 0 .5.2 1.4-.3-.1-.4-.1-.6-.3l-.3-.3c-.2 1.5.1 2.2.4 3.7.4 1.8 1.6 3.6 2.8 4.4zM12.8 11l8.5 8.5c.6-1.4.7-2.6.3-4.2-.1.3-.1.4-.3.6-.1.2-.2.3-.4.4 0 0 .2-1.7 0-2.7-.2-1.2-.6-2.5-.9-2.9 0 0 0 .9-.2 1.4-.1.4-.5 1-.5 1 .1-1.1 0-3.1-.6-4.1-.3-.5-.5-.8-.9-1.3v.6c-.1.3-.1.4-.3.7-.2-1-.5-1.5-1.1-2.2-.2-.3-.4-.4-.6-.7-.2-.2-.3-.4-.4-.7-.1-.2-.1-.4-.1-.6-.2.3-.3.6-.3 1v.3c.1.5.1.8 0 1.3-.1.4-.3.7-.6 1-.1-.4-.3-.7-.7-1-.2-.2-.4-.2-.6-.3.3.8.3 1.3.2 2.2-.1.7-.2 1.2-.5 1.7zm4.3 12.4c1.1-.3 2-.9 2.7-1.7l-1.5-1.5c0 .4 0 .9-.1 1.4-.2.7-.6 1.3-1.1 1.8z"/>
    <path fill="#e30b17" d="m28.4 26.4-1.9 1.9L3.8 5.6l1.9-1.9 22.7 22.7z"/>
</symbol></svg>
