<svg xmlns="http://www.w3.org/2000/svg" viewBox="0 0 32 32" xml:space="preserve"><symbol id="icon">
    <rect/>
    <path fill="currentColor" d="M10.2 26.5h11.5v.6H10.2v-.6zm0-1.3h11.5v-.6H10.2v.6zm3.3-2.6c.7.5 1.6.8 2.5.8.4 0 .8-.1 1.1-.1.3-.1.7-.2 1-.4.6-.3 1.2-.7 1.7-1.2l-.7-.7c-.7 1-1.8 1.7-3.1 1.7-2.1 0-3.9-1.7-3.9-3.9 0-1.3.7-2.5 1.7-3.2l-2.7-2.7c-.1.4-.1.7-.1 1 .1.9 0 .5.2 1.4-.3-.1-.4-.1-.6-.3l-.3-.3c-.2 1.5.1 2.2.4 3.7.4 1.8 1.6 3.4 2.8 4.2zM12.8 11l4.1 4.1c1.4.3 2.5 1.4 2.8 2.8l1.5 1.5c.6-1.3.7-2.5.4-4.1-.1.3-.1.4-.3.6-.1.2-.2.3-.4.4 0 0 .2-1.7 0-2.7-.2-1.2-.6-2.5-.9-2.9 0 0 0 .9-.2 1.4-.1.4-.5 1-.5 1 .1-1.2 0-3.1-.6-4.1-.3-.5-.5-.8-.9-1.3v.6c-.1.3-.1.4-.3.7-.2-1-.5-1.5-1.1-2.2-.2-.3-.4-.4-.6-.7-.2-.2-.3-.4-.4-.7-.1-.2-.1-.4-.1-.6-.2.3-.3.6-.3 1v.3c.1.5.1.8 0 1.3-.1.4-.3.7-.6 1-.1-.4-.3-.7-.7-1-.2-.2-.4-.2-.6-.3.3.8.3 1.3.2 2.2-.1.7-.2 1.2-.5 1.7z"/>
    <path fill="#e30b17" d="m28.4 26.4-1.9 1.9L3.8 5.6l1.9-1.9 22.7 22.7z"/>
</symbol></svg>
