<svg xmlns="http://www.w3.org/2000/svg" viewBox="0 0 32 32" xml:space="preserve"><symbol id="icon">
    <path fill="currentColor" d="M27.2 23v2.3L24.9 23h2.3zm-8.8 0c-.6 1.5-2.1 2.6-3.9 2.6-1.7 0-3.2-1.1-3.9-2.6H4.8v4.1h20.5L21.2 23h-2.8zM13.3 7.4l2.1 2.1-2.6 1.5 1 .9 2.4-2.4-2.9-2.9L10.8 9l.5.4 2-2zm-4.9 9.9 3.5-3.5-1.5-1.5S6.1 14.6 6 14.7l3.4-3.4-.4-.5-3.5 3.5c-.8.8-.8 2.1 0 3 .8.8 2.1.8 2.9 0zm4.4 4.6c-.1 1 .8 1.8 1.8 1.8s1.8-.8 1.8-1.8c0-1.2-1.8-3.7-1.8-3.7s-1.8 2.8-1.8 3.7z"/>
    <path fill="#e30b17" d="m3.8 5.6 1.9-1.9 22.7 22.7-1.9 1.9L3.8 5.6z"/>
</symbol></svg>
