<svg xmlns="http://www.w3.org/2000/svg" viewBox="0 0 32 32" xml:space="preserve"><symbol id="icon">
    <path d="M0 29.9h32L16 2.3 0 29.9z"/>
    <path d="M16 2.3 0 29.9h32L16 2.3zm0 2c.8 1.3 13.6 23.4 14.4 24.8H1.8C2.4 27.8 15.2 5.5 16 4.3zm0 12.9c-2.1 0-3.8 1.7-3.8 3.8 0 1.1.5 2.2 1.3 2.9v1.9h5v-2c.8-.7 1.3-1.7 1.3-2.9 0-2-1.7-3.7-3.8-3.7zm-1.6 5.7c-.5 0-1-.4-1-1 0-.5.4-1 1-1s1 .4 1 1c.1.5-.4 1-1 1zm1.1 1.5.3-1.6h.3l.3 1.6h-.9zm2.1-1.5c-.5 0-1-.4-1-1 0-.5.4-1 1-1 .5 0 1 .4 1 1-.1.5-.5 1-1 1zm3.8 2.6c.2.2 0 .6-.2.9-.4.3-.8.5-1 .3L18.8 25v-1.2l.3-.3 2.3 2zm-10.8-8.4c-.2-.1 0-.6.4-1 .4-.3.8-.5 1-.3l1.6 2c-.4.3-.6.7-.9 1l-2.1-1.7zm2.4 6.5.3.3v1.2l-1.4 1.7c-.2.2-.7.1-1-.3s-.5-.8-.3-1l2.4-1.9zm8.5-6.4-2 1.7c-.3-.5-.6-.8-.9-1l1.6-2c.2-.2.7 0 1 .3.3.4.5.8.3 1z"/>
</symbol></svg>
