<svg xmlns="http://www.w3.org/2000/svg" viewBox="0 0 32 32" xml:space="preserve"><symbol id="icon">
    <path d="M32 29.9H0L16 2.1l16 27.8z"/>
    <path d="M16 2.1 0 29.9h32L16 2.1zm0 2c.8 1.3 13.6 23.4 14.4 24.8H1.8C2.4 27.5 15.2 5.4 16 4.1zm-1.3 16c0-.7.5-1.2 1.2-1.2s1.2.5 1.2 1.2-.5 1.2-1.2 1.2c-.7.1-1.2-.4-1.2-1.2zm2.1-1.6 2.2-3.7c1.8 1.1 3 3.1 3 5.3h-4.3c0-.7-.3-1.2-.9-1.6zM14 20.1H9.8c0-2.3 1.2-4.3 3-5.3l2.2 3.7c-.6.4-.9.9-1 1.6zm2.6 1.7 2.2 3.7c-.8.5-1.9.8-3 .8s-2.1-.4-3-.9l2.2-3.7c.3.2.6.3.9.3.4-.1.6-.1.7-.2z"/>
</symbol></svg>
