<svg xmlns="http://www.w3.org/2000/svg" viewBox="0 0 32 32" xml:space="preserve"><symbol id="icon">
    <path d="M0 29.8h32L16 2.2 0 29.8z"/>
    <path d="M16 2.2 0 29.8h32L16 2.2zm0 1.9c.8 1.3 13.6 23.5 14.3 24.8H1.7C2.4 27.6 15.2 5.4 16 4.1zm1.8 20.2H15c-.3 0-.6-.3-.6-.6s.3-.6.6-.6h2.9c.4 0 .5.3.5.6s-.2.6-.6.6zm.4 1.6H16c-.3 0-.6-.3-.6-.6s.3-.6.6-.6H18.3c.3 0 .7.3.6.6 0 .4-.3.6-.7.6zm.9 1c0 .3-.3.6-.6.6H17c-.3 0-.6-.3-.6-.6s.3-.6.6-.6h1.6c.3 0 .5.3.5.6zm1.6-10.1c.4-.4.4-1.1 0-1.6L16.5 11 15 12.6l4.2 4.2c.3.4 1 .4 1.5 0zm-4.2-5.4 3.9 3.9c-.1-.1-5-2.8-5-2.8l1.1-1.1zm8.1 10v4.5h-1.7c-.2 0-.3.1-.4.2l-.6.6c-.1.1-.3.2-.4.2h-2c0-.3-.3-.7-.6-.9.3-.2.3-.4.3-.7 0-.3-.3-.7-.6-.9.3-.2.3-.4.3-.7 0-.3-.2-.6-.4-.8.3-.2.4-.4.4-.8.3.5.9.8 1.5.8v-.3c-.9 0-1.5-.7-1.5-1.5h-2.5c-.4 0-1-.3-1.1-.7h.3c.6 0 1.2-.3 1.6-.6h3c.2 0 .3.1.4.2l1.1 1.1c.1.1.3.2.4.2.1.1 2.5.1 2.5.1zm-10.2 1.3c-.3 0-.6-.3-.6-.6s.3-.6.6-.6l-4.2-4.2 2.2-2.2 1.2 1.2c-.4.4-.7 1-.7 1.7 0 1.1.8 2.1 1.8 2.4.3.6.8 1.1 1.5 1.1h1.6c.4 0 .7.3.7.6s-.3.6-.6.6h-3.5zm0-4.6c0-.1 1-2 1-2s1 1.9 1 2c0 .5-.4 1-1 1-.5-.1-1-.5-1-1z"/>
</symbol></svg>
