<svg xmlns="http://www.w3.org/2000/svg" viewBox="0 0 16.438 24" xml:space="preserve"><symbol id="icon">
    <path d="M1.624 13.214h13.164L8.206 1.819z"/>
    <path d="M.86 13.655h14.692L8.206.937.86 13.655zM8.206 1.819l6.582 11.395H1.624L8.206 1.819z"/>
    <path d="M11.436 8.886h-.811l.435-.589-.37-.274-.639.863h-.657l.578-.789-.973.106.33-.573 1.064-.12-.052-.459-.724.083.404-.701-.397-.23-.406.703-.292-.672-.422.184.427.984-.33.572-.394-.895-.394.892-.33-.571.427-.982-.422-.184-.291.669-.405-.701-.397.23.405.702-.727-.083-.052.458 1.066.122.33.572-.975-.106.577.789h-.658l-.638-.863-.37.274.435.589h-.81v.459h.808l-.434.586.37.274.637-.86h.662l-.579.79.973-.106-.329.57-1.066.12.052.459.728-.083-.405.701.397.23.404-.7.29.669.424-.184-.427-.982.33-.57.394.895.396-.898.33.57-.429.985.423.184.292-.672.405.701.397-.23-.404-.699.725.083.052-.458-1.063-.122-.329-.569.97.106-.579-.79h.66l.637.86.37-.274-.433-.586h.809v-.46zm-2.398.71-.591-.065-.24.544-.24-.544-.59.065.35-.48-.35-.48.59.065.24-.544.24.544.59-.064-.35.48.35.479zM16.08 0h-.178v.058h.179V0zm-.357 0h-.179v.058h.179V0zm-.358 0h-.178v.058h.178V0zm-.357 0h-.18v.058h.18V0zm-.358 0h-.179v.058h.179V0zm-.358 0h-.179v.058h.18V0zm-.357 0h-.18v.058h.18V0zm-.358 0h-.179v.058h.179V0zm-.358 0h-.179v.058h.18V0zm-.357 0h-.18v.058h.18V0zm-.358 0h-.179v.058h.179V0zm-.358 0h-.179v.058h.18V0zm-.357 0h-.18v.058h.18V0zm-.358 0h-.179v.058h.179V0zm-.358 0h-.179v.058h.18V0zm-.358 0h-.178v.058h.178V0zm-.357 0h-.18v.058h.18V0zM10 0h-.179v.058H10V0zm-.358 0h-.178v.058h.178V0zm-.357 0h-.18v.058h.18V0zm-.358 0h-.179v.058h.179V0zm-.358 0H8.39v.058h.18V0zm-.357 0h-.18v.058h.18V0zm-.358 0h-.179v.058h.179V0zm-.358 0h-.179v.058h.18V0zM7.14 0h-.18v.058h.18V0zM6.78 0h-.179v.058h.179V0zm-.358 0h-.179v.058h.18V0zm-.358 0h-.178v.058h.178V0zm-.357 0h-.179v.058h.179V0zM5.35 0h-.179v.058h.18V0zm-.358 0h-.178v.058h.178V0zm-.357 0h-.18v.058h.18V0zm-.358 0h-.179v.058h.18V0zm-.358 0h-.178v.058h.178V0zm-.357 0h-.18v.058h.18V0zm-.358 0h-.179v.058h.179V0zm-.358 0h-.179v.058h.18V0zM2.49 0h-.18v.058h.18V0zM2.13 0h-.179v.058h.179V0zm-.358 0h-.179v.058h.18V0zm-.357 0h-.18v.058h.18V0zm-.358 0H.879v.058h.179V0zM.7 0H.521v.058h.18V0zM.343 0h-.18v.058h.18V0zM.058.015H0v.179h.058V.015zm0 .358H0v.179h.058v-.18zm0 .358H0v.178h.058V.731zm0 .357H0v.18h.058v-.18zm0 .358H0v.179h.058v-.18zm0 .358H0v.179h.058v-.18zm0 .357H0v.18h.058v-.18zm0 .358H0v.179h.058v-.179zm0 .358H0v.179h.058v-.18zm0 .357H0v.18h.058v-.18zm0 .358H0v.179h.058v-.179zm0 .358H0v.179h.058v-.18zm0 .357H0v.18h.058v-.18zm0 .358H0v.179h.058v-.179zm0 .358H0v.179h.058v-.18zm0 .357H0v.18h.058v-.18zm0 .358H0v.179h.058v-.179zm0 .358H0v.179h.058v-.18zm0 .357H0v.18h.058v-.18zm0 .358H0v.179h.058v-.179zm0 .358H0v.179h.058v-.18zm0 .358H0v.178h.058v-.178zm0 .357H0v.18h.058v-.18zm0 .358H0v.179h.058v-.18zm0 .358H0v.179h.058v-.18zm0 .357H0v.18h.058v-.18zm0 .358H0v.179h.058v-.179zm0 .358H0v.179h.058v-.18zm0 .357H0v.18h.058v-.18zm0 .358H0v.179h.058v-.179zm0 .358H0v.179h.058v-.18zm0 .357H0v.18h.058v-.18zm0 .358H0v.179h.058v-.179zm0 .358H0v.179h.058v-.18zm0 .357H0v.18h.058v-.18zm0 .358H0v.18h.058v-.18zm0 .358H0v.179h.058v-.18zm0 .358H0v.178h.058v-.178zm0 .357H0v.18h.058v-.18zm0 .358H0v.179h.058v-.18zm0 .358H0v.178h.058v-.178zm0 .357H0v.18h.058v-.18zm0 .358H0v.179h.058v-.179zm0 .358H0v.179h.058v-.18zm0 .357H0v.18h.058v-.18zm0 .358H0v.179h.058v-.179zm0 .358H0v.179h.058v-.18zm0 .357H0v.18h.058v-.18zm0 .358H0v.179h.058v-.179zm0 .358H0v.179h.058v-.18zm0 .357H0v.18h.058v-.18zm0 .358H0v.179h.058v-.179zm0 .358H0v.179h.058v-.18zm0 .358H0v.178h.058v-.178zm0 .357H0v.18h.058v-.18zm0 .358H0v.179h.058v-.179zm0 .358H0v.179h.058v-.18zm0 .357H0v.18h.058v-.18zm0 .358H0v.179h.058v-.179zm0 .358H0v.179h.058v-.18zm0 .357H0v.18h.058v-.18zm0 .358H0v.179h.058v-.179zm0 .358H0v.179h.058v-.18zm0 .357H0v.18h.058v-.18zm0 .358H0v.179h.058v-.179zm0 .358H0v.179h.058v-.18zm0 .357H0v.18h.058v-.18zm.101.32H0v.038-.038V24h.159v-.058zm.358 0h-.18V24h.18v-.058zm.357 0H.696V24h.178v-.058zm.358 0h-.179V24h.18v-.058zm.358 0h-.18V24h.18v-.058zm.357 0H1.77V24h.178v-.058zm.358 0h-.179V24h.18v-.058zm.358 0h-.179V24h.179v-.058zm.358 0h-.18V24h.18v-.058zm.357 0H3.2V24h.18v-.058zm.358 0h-.179V24h.179v-.058zm.358 0h-.18V24h.18v-.058zm.357 0h-.179V24h.18v-.058zm.358 0H4.63V24h.179v-.058zm.358 0h-.18V24h.18v-.058zm.357 0h-.179V24h.18v-.058zm.358 0h-.179V24h.179v-.058zm.358 0h-.18V24h.18v-.058zm.357 0H6.42V24h.178v-.058zm.358 0h-.179V24h.18v-.058zm.358 0h-.18V24h.18v-.058zm.357 0h-.178V24h.178v-.058zm.358 0H7.85V24h.18v-.058zm.358 0h-.179V24h.179v-.058zm.357 0h-.178V24h.178v-.058zm.358 0h-.179V24h.18v-.058zm.358 0H9.28V24h.179v-.058zm.358 0h-.18V24h.18v-.058zm.357 0h-.179V24h.18v-.058zm.358 0h-.179V24h.179v-.058zm.358 0h-.18V24h.18v-.058zm.357 0h-.178V24h.178v-.058zm.358 0h-.179V24h.179v-.058zm.358 0h-.18V24h.18v-.058zm.357 0h-.179V24h.18v-.058zm.358 0h-.179V24h.179v-.058zm.358 0h-.18V24h.18v-.058zm.357 0h-.179V24h.18v-.058zm.358 0h-.179V24h.18v-.058zm.358 0h-.18V24h.18v-.058zm.357 0h-.178V24h.178v-.058zm.358 0h-.179V24h.18v-.058zm.358 0h-.179V24h.179v-.058zm.357 0h-.178V24h.178v-.058zm.358 0h-.179V24h.18v-.058zm.358 0h-.179V24h.179v-.058zm.183-.116h-.058V24h.054-.054H16.438v-.174zm0-.358h-.058v.179h.058v-.179zm0-.358h-.058v.18h.058v-.18zm0-.357h-.058v.179h.058v-.18zm0-.358h-.058v.179h.058v-.179zm0-.358h-.058v.18h.058v-.18zm0-.357h-.058v.178h.058v-.178zm0-.358h-.058v.179h.058v-.179zm0-.358h-.058v.18h.058v-.18zm0-.357h-.058v.179h.058v-.18zm0-.358h-.058v.179h.058v-.18zm0-.358h-.058v.18h.058v-.18zm0-.357h-.058v.178h.058v-.178zm0-.358h-.058v.179h.058v-.18zm0-.358h-.058v.179h.058v-.179zm0-.357h-.058v.178h.058v-.178zm0-.358h-.058v.179h.058v-.18zm0-.358h-.058v.179h.058v-.179zm0-.357h-.058v.178h.058v-.178zm0-.358h-.058v.179h.058v-.18zm0-.358h-.058v.179h.058v-.179zm0-.358h-.058v.18h.058v-.18zm0-.357h-.058v.178h.058v-.178zm0-.358h-.058v.179h.058v-.179zm0-.358h-.058v.18h.058v-.18zm0-.357h-.058v.178h.058v-.178zm0-.358h-.058v.179h.058v-.179zm0-.358h-.058v.18h.058v-.18zm0-.357h-.058v.179h.058v-.18zm0-.358h-.058v.179h.058v-.18zm0-.358h-.058v.18h.058v-.18zm0-.357h-.058v.178h.058v-.178zm0-.358h-.058v.179h.058v-.18zm0-.358h-.058v.179h.058v-.179zm0-.357h-.058v.178h.058v-.178zm0-.358h-.058v.179h.058v-.18zm0-.358h-.058v.179h.058v-.179zm0-.358h-.058v.18h.058v-.18zm0-.357h-.058v.179h.058v-.18zm0-.358h-.058v.179h.058v-.179zm0-.358h-.058v.18h.058v-.18zm0-.357h-.058v.178h.058v-.178zm0-.358h-.058v.179h.058v-.179zm0-.358h-.058v.18h.058v-.18zm0-.357h-.058v.178h.058v-.178zm0-.358h-.058v.179h.058v-.18zm0-.358h-.058v.18h.058v-.18zm0-.357h-.058v.178h.058v-.178zm0-.358h-.058v.179h.058v-.18zm0-.358h-.058v.179h.058v-.179zm0-.358h-.058v.18h.058v-.18zm0-.357h-.058v.179h.058v-.18zm0-.358h-.058v.179h.058v-.179zm0-.358h-.058v.18h.058v-.18zm0-.357h-.058v.179h.058v-.18zm0-.358h-.058v.179h.058v-.179zm0-.358h-.058v.18h.058v-.18zm0-.357h-.058v.178h.058v-.178zm0-.358h-.058v.179h.058V3.08zm0-.358h-.058v.18h.058v-.18zm0-.357h-.058v.178h.058v-.178zm0-.358h-.058v.179h.058v-.18zm0-.358h-.058v.18h.058v-.18zm0-.357h-.058v.178h.058v-.178zm0-.358h-.058v.179h.058v-.18zm0-.358h-.058v.179h.058V.576zm0-.357h-.058v.178h.058V.218zm0-.219h-.178v.058h.178V0zM1.237 15.24h.367l.57 1.117h.003V15.24h.287v1.492h-.366l-.57-1.116h-.005v1.116h-.286v-1.492zM2.765 15.157h.287v.274h-.287v-.274zm0 .475h.287v1.101h-.287v-1.1zM4.056 15.87a.434.434 0 0 0-.194-.041c-.178 0-.29.14-.29.348 0 .203.095.36.296.36.082 0 .171-.03.22-.052l.013.237a.936.936 0 0 1-.286.037c-.361 0-.543-.246-.543-.582 0-.318.188-.57.532-.57.116 0 .2.012.278.036l-.026.226zM4.28 15.13h.287v.652h.005a.41.41 0 0 1 .346-.176c.26 0 .374.184.374.432v.695h-.286v-.588c0-.134-.002-.316-.186-.316-.208 0-.253.224-.253.365v.54h-.286V15.13zM5.681 15.842H5.47v-.21h.211v-.22l.287-.092v.312h.254v.21h-.254v.513c0 .094.025.181.134.181.052 0 .1-.01.13-.03l.01.227a.758.758 0 0 1-.212.026c-.225 0-.349-.14-.349-.357v-.56zM7.518 15.606c.327 0 .577.22.577.584 0 .316-.212.569-.577.569-.364 0-.575-.253-.575-.569 0-.363.25-.584.575-.584zm-.342-.175v-.248h.247v.248h-.247zm.342 1.105c.22 0 .277-.196.277-.38 0-.17-.09-.327-.277-.327-.186 0-.276.162-.276.327 0 .182.058.38.276.38zm.346-1.353v.248h-.248v-.248h.248zM8.409 15.842h-.212v-.21h.212v-.154c0-.22.124-.374.35-.374.073 0 .155.01.21.023l-.023.238c-.026-.015-.062-.039-.124-.039-.097 0-.126.084-.126.17v.136h.25v.21h-.25v.891h-.287v-.891zM9.202 15.842h-.211v-.21h.211v-.154c0-.22.125-.374.351-.374.073 0 .154.01.21.023l-.024.238c-.026-.015-.062-.039-.124-.039-.096 0-.126.084-.126.17v.136h.25v.21h-.25v.891h-.287v-.891zM9.93 15.632h.27v.15h.005a.411.411 0 0 1 .361-.176c.261 0 .375.184.375.432v.695h-.287v-.588c0-.134-.002-.316-.186-.316-.207 0-.252.224-.252.365v.54h-.287v-1.102zM12.097 16.671a.756.756 0 0 1-.378.088c-.364 0-.575-.21-.575-.571 0-.319.168-.582.51-.582.409 0 .524.28.524.665h-.76c.012.178.136.278.313.278a.742.742 0 0 0 .366-.111v.233zm-.192-.596c-.009-.14-.073-.26-.233-.26-.16 0-.242.112-.255.26h.488zM12.388 15.632h.271v.15h.005a.411.411 0 0 1 .36-.176c.262 0 .375.184.375.432v.695h-.286v-.588c0-.134-.003-.316-.186-.316-.208 0-.253.224-.253.365v.54h-.286v-1.102zM13.97 15.24h.33l-.046 1.055h-.244l-.04-1.054zm.015 1.194h.3v.3h-.3v-.3zM1.237 18.033h.367l.57 1.116h.003v-1.116h.287v1.493h-.366l-.57-1.116h-.005v1.116h-.286v-1.493zM3.642 19.464a.756.756 0 0 1-.379.087c-.363 0-.575-.21-.575-.57 0-.32.17-.582.511-.582.409 0 .524.28.524.665h-.761c.013.177.137.278.314.278a.743.743 0 0 0 .366-.111v.233zm-.193-.597c-.008-.139-.072-.259-.233-.259-.16 0-.241.112-.254.26h.487zM4.542 18.425h.273v.156h.005a.373.373 0 0 1 .342-.182c.338 0 .462.27.462.573 0 .301-.124.58-.469.58a.376.376 0 0 1-.322-.153h-.005v.576h-.286v-1.55zm.288.547c0 .156.062.357.253.357.188 0 .241-.205.241-.357 0-.148-.051-.35-.237-.35-.184 0-.257.196-.257.35zM5.897 18.482a.985.985 0 0 1 .383-.083c.335 0 .474.139.474.464v.141a9.614 9.614 0 0 0 .018.522h-.253c-.01-.058-.01-.13-.013-.165h-.004a.393.393 0 0 1-.34.19c-.194 0-.385-.117-.385-.327 0-.164.08-.26.189-.314a.873.873 0 0 1 .37-.064h.158c0-.178-.08-.238-.248-.238a.576.576 0 0 0-.34.12l-.009-.246zm.336.86a.243.243 0 0 0 .2-.099.365.365 0 0 0 .06-.226H6.37c-.129 0-.319.021-.319.19 0 .094.08.135.182.135zM7.69 18.655a.703.703 0 0 0-.256-.047c-.077 0-.169.028-.169.122 0 .176.499.065.499.462 0 .257-.23.36-.462.36-.11 0-.22-.02-.325-.048l.017-.235c.09.045.184.073.282.073.073 0 .188-.028.188-.135 0-.216-.498-.068-.498-.466 0-.237.207-.342.432-.342.135 0 .222.021.312.04l-.02.216zM9.085 18.399c.327 0 .577.22.577.584 0 .316-.212.568-.577.568-.364 0-.575-.252-.575-.568 0-.364.25-.584.575-.584zm0 .93c.22 0 .278-.197.278-.38 0-.17-.09-.328-.278-.328-.186 0-.276.163-.276.327 0 .182.058.38.276.38zM10.855 19.526h-.272v-.15h-.004a.459.459 0 0 1-.361.175c-.261 0-.375-.184-.375-.432v-.694h.287v.588c0 .134.002.316.186.316.207 0 .252-.225.252-.366v-.538h.287v1.1zM10.996 18.425h.308l.273.801h.005l.265-.801h.286l-.406 1.1h-.323l-.408-1.1zM12.313 18.425h.254v.25h.004c.013-.103.13-.276.302-.276.028 0 .058 0 .088.008v.29a.292.292 0 0 0-.129-.024c-.233 0-.233.29-.233.449v.404h-.286v-1.101zM13.144 17.95h.287v.274h-.287v-.274zm0 .475h.287v1.1h-.287v-1.1zM13.739 18.425h.254v.25h.004c.013-.103.13-.276.302-.276.028 0 .057 0 .087.008v.29a.292.292 0 0 0-.128-.024c-.233 0-.233.29-.233.449v.404h-.286v-1.101zM14.86 18.033h.33l-.045 1.054h-.243l-.041-1.054zm.016 1.193h.3v.3h-.3v-.3zM1.237 20.826h.367l.57 1.116h.003v-1.116h.287v1.492h-.366l-.57-1.116h-.005v1.116h-.286v-1.492zM3.274 21.192c.327 0 .577.22.577.583 0 .317-.211.569-.577.569-.363 0-.575-.252-.575-.569 0-.363.25-.583.575-.583zm0 .93c.22 0 .278-.197.278-.381 0-.169-.09-.327-.278-.327-.186 0-.276.162-.276.327 0 .182.058.38.276.38zM4.076 21.217h.271v.15h.004a.411.411 0 0 1 .362-.176c.26 0 .374.184.374.432v.695H4.8v-.588c0-.134-.002-.316-.186-.316-.207 0-.252.224-.252.365v.54h-.286v-1.102zM6.025 21.275a.987.987 0 0 1 .383-.084c.336 0 .475.14.475.464v.141c0 .112.002.195.004.276.002.084.006.16.013.246h-.253c-.01-.058-.01-.13-.012-.165H6.63a.393.393 0 0 1-.34.19c-.194 0-.384-.117-.384-.326 0-.165.079-.261.188-.315a.873.873 0 0 1 .37-.064h.158c0-.177-.08-.237-.248-.237a.576.576 0 0 0-.34.12l-.009-.246zm.336.86a.243.243 0 0 0 .201-.1.365.365 0 0 0 .06-.226h-.124c-.128 0-.319.022-.319.19 0 .095.08.135.182.135zM7.144 21.217h.273v.156h.004a.373.373 0 0 1 .342-.182c.338 0 .462.27.462.573 0 .302-.124.58-.468.58a.376.376 0 0 1-.323-.152H7.43v.575h-.286v-1.55zm.288.547c0 .156.062.357.252.357.188 0 .242-.205.242-.357 0-.147-.051-.35-.237-.35-.184 0-.257.196-.257.35zM8.445 21.217H8.7v.25h.004c.013-.102.13-.276.301-.276.028 0 .058 0 .088.009v.289a.293.293 0 0 0-.128-.024c-.233 0-.233.29-.233.45v.403h-.287v-1.1zM9.277 20.742h.287v.274h-.287v-.273zm0 .475h.287v1.101h-.287v-1.1zM9.871 21.217h.255v.25h.004c.013-.102.13-.276.301-.276.028 0 .058 0 .088.009v.289a.293.293 0 0 0-.128-.024c-.233 0-.233.29-.233.45v.403H9.87v-1.1zM11.541 22.256a.758.758 0 0 1-.378.088c-.363 0-.575-.21-.575-.571 0-.319.169-.581.51-.581.41 0 .525.28.525.664h-.762c.013.178.137.278.315.278a.742.742 0 0 0 .365-.11v.232zm-.192-.596c-.009-.14-.073-.259-.233-.259s-.242.111-.255.259h.488zM12.123 20.826h.329l-.045 1.054h-.244l-.04-1.054zm.015 1.193h.3v.3h-.3v-.3zM1.228 17.35h13.948v.063H1.228zM1.229 20.228h13.947v.063H1.229zM1.229 23.016h13.947v.063H1.229z"/>
</symbol></svg>
