<svg xmlns="http://www.w3.org/2000/svg" viewBox="0 0 32 32" xml:space="preserve"><symbol id="icon">
    <rect/>
    <path d="m22.5 15.6.2-3.8c0-1.2-1.1-2.2-2.5-2.2-1.8 0-2.5 1-4.2 1-1.8 0-2.5-1-4.2-1-1.4 0-2.5 1-2.5 2.2l.2 3.8c0 .6-.7 1.3-1.4 1.4v1c.7 5.8 3.9 10.2 7.9 10.2 3.9 0 7.2-4.4 7.9-10.3V17c-.7-.1-1.4-.8-1.4-1.4zm-10.1 3.1c-.4 0-.8-.3-.8-.8 0-.4.3-.8.8-.8.4 0 .8.3.8.8 0 .4-.4.8-.8.8zm7.1 0c-.4 0-.8-.3-.8-.8 0-.4.3-.8.8-.8.4 0 .8.3.8.8 0 .4-.4.8-.8.8zM16 0C7.2 0 0 7.2 0 16s7.2 16 16 16 16-7.2 16-16S24.8 0 16 0zM6.9 20.1h-1c-1 0-1.8-1.7-1.8-3.9s.8-3.9 1.8-3.9v4h1v3.8zm18 0h-1c-1.2 5-4.3 8.5-7.9 8.5-3.6 0-6.7-3.6-7.9-8.5h-1v-7.7H8c.4-1.6 1.2-3 2.3-4 1.8-1.7 4.1-2 5.7-2 1.6 0 3.9.4 5.7 2 1.1 1 1.9 2.3 2.3 4h.9v7.7zm-2.4-14c-1.7-1.6-4-2.5-6.5-2.5s-4.8.9-6.5 2.5C7.8 7.7 6.9 10 6.9 12.4v3.7h-.8v-3.7c0-2.7 1-5.2 2.9-7 1.8-1.8 4.3-2.7 7-2.7s5.2 1 7 2.7c1.9 1.8 2.9 4.3 2.9 7v3.7h-.8v-3.7c0-2.4-.9-4.7-2.6-6.3zm3.7 14h-1v-3.7h1v-4c1 0 1.8 1.7 1.8 3.9s-.8 3.8-1.8 3.8z"/>
</symbol></svg>
