<svg xmlns="http://www.w3.org/2000/svg" viewBox="0 0 32 32" xml:space="preserve"><symbol id="icon">
    <rect/>
    <path d="M19.5 13.6c-1.3 0-2.3 1-2.3 2.3 0 1.3 1 2.3 2.3 2.3 1.3 0 2.3-1 2.3-2.3 0-1.3-1-2.3-2.3-2.3zm0 4.3c-1.1 0-2-.9-2-2s.9-2 2-2 2 .9 2 2c.1 1.1-.9 2-2 2zm1.8-2c0 1-.8 1.8-1.8 1.8s-1.8-.8-1.8-1.8.8-1.8 1.8-1.8 1.8.8 1.8 1.8zm-8.9-2.3c-1.3 0-2.3 1-2.3 2.3 0 1.3 1 2.3 2.3 2.3 1.3 0 2.3-1 2.3-2.3 0-1.3-1-2.3-2.3-2.3zm0 4.3c-1.1 0-2-.9-2-2s.9-2 2-2 2 .9 2 2-.9 2-2 2zm1.8-2c0 1-.8 1.8-1.8 1.8s-1.8-.8-1.8-1.8.8-1.8 1.8-1.8 1.8.8 1.8 1.8zm8.6 0c0-1.8-1.5-3.3-3.3-3.3h3.1l.1-2.3c0-1.2-1.1-2.2-2.5-2.2-1.8 0-2.5 1-4.2 1-1.8 0-2.5-1-4.2-1-1.4 0-2.5 1-2.5 2.2l.1 2.3h3c-1.8 0-3.3 1.5-3.3 3.3 0 .7.2 1.3.6 1.8L8.1 16c.5 6 3.9 10.7 7.9 10.7s7.4-4.7 7.9-10.8l-1.7 1.7c.4-.4.6-1.1.6-1.7zm-3.3 3c-1.5 0-2.8-1.1-3-2.6 0-.3-.3-.5-.5-.5-.3 0-.5.2-.5.5-.2 1.5-1.5 2.6-3 2.6-1.7 0-3.1-1.4-3.1-3 0-1.7 1.4-3 3.1-3 1.3 0 2.5.8 2.9 2h1.4c.4-1.2 1.5-2 2.9-2 1.7 0 3 1.4 3 3-.1 1.6-1.5 3-3.2 3zM16 0C7.2 0 0 7.2 0 16s7.2 16 16 16 16-7.2 16-16S24.8 0 16 0zm8.6 15.2-.3.3c-.4 6.5-4 11.6-8.3 11.6-4.3 0-7.9-5.1-8.3-11.5l-.4-.4c-.1-.3-.1-.6-.1-.9 0-.6 0-1.2.1-1.7h.4c.3-2.4 1.1-4.3 2.6-5.7 1.8-1.7 4.1-2 5.7-2s3.9.4 5.7 2c1.5 1.3 2.3 3.2 2.6 5.7h.3c.1.5.1 1.1.1 1.7 0 .3 0 .6-.1.9z"/>
</symbol></svg>
