<svg xmlns="http://www.w3.org/2000/svg" viewBox="0 0 18 24" xml:space="preserve"><symbol id="icon">
    <path d="M0 0v24h18V0H0zm3.876 2.314h10.232v10.233H3.877V2.314zm7.234 14.682.542-.698h.534l-.65.779.732.965h-.576l-.583-.847h-.006v.847h-.454v-2.54h.454v1.494h.007zm-1.325-.13c0 .55-.142 1.217-.826 1.217-.728 0-.82-.722-.82-1.216 0-.593.18-1.23.82-1.23.69 0 .826.681.826 1.23zm-2.871-.856c-.2 0-.39.088-.546.19l-.037-.393c.213-.108.46-.17.701-.17.45 0 .742.227.742.692 0 .5-.505.961-.891 1.34h.965v.373H6.277v-.396c.22-.213 1.023-.884 1.023-1.317 0-.217-.193-.319-.386-.319zm-3.052 1.714 1.263-.539-1.263-.538V16.3l1.72.738v.292l-1.72.738v-.345zm10.248 4.051H3.877V21.6H14.11v.176zm.014-3.902c0 .474-.19.92-.921.92-.18 0-.387-.026-.603-.118l.037-.386c.139.075.366.153.508.153.501 0 .525-.376.525-.678h-.007c-.085.15-.288.278-.542.278-.515 0-.71-.413-.71-.88 0-.42.216-.905.737-.905.23 0 .41.078.535.278h.007v-.237h.434v1.575zM8.959 15.99c.352 0 .352.572.352.877 0 .298.004.863-.352.863-.349 0-.345-.565-.345-.863 0-.305 0-.877.345-.877zm4.71 1.161c0 .292-.114.539-.399.539-.26 0-.386-.292-.386-.528 0-.268.098-.552.407-.552.264 0 .379.243.379.541zM9.292 8.08H5.155V3.593h5.24v2.748c-.106.109-.19.238-.248.38V3.856H5.41V7.8h4.06l-.179.28zM8.588 4.2v.62h.003l.186-.298h.231l-.23.337.245.397h-.247l-.185-.348h-.003v.348h-.222V4.2h.222zm.78 1.208a.524.524 0 0 1-.23-.065l-.007.182a.91.91 0 0 0 .264.044c.37 0 .374-.295.374-.402v-.48c0-.093.002-.131.005-.165h-.211l-.006.117h-.002a.202.202 0 0 0-.198-.128c-.167 0-.26.145-.26.379 0 .276.13.366.259.366a.2.2 0 0 0 .193-.13h.003c0 .153-.007.282-.183.282zm.067-.308c-.099 0-.107-.154-.107-.212 0-.076.005-.216.108-.216.09 0 .11.132.11.216 0 .103-.02.212-.111.212zm-2.041-.336c0 .275.062.509.324.509s.324-.234.324-.509c0-.274-.062-.508-.324-.508s-.324.234-.324.508zm.43 0c0 .19-.017.348-.106.348s-.107-.159-.107-.348c0-.188.018-.348.107-.348s.107.16.107.348zm-1.067.24c.096-.109.287-.289.287-.434 0-.079-.053-.131-.132-.131a.385.385 0 0 0-.194.077l-.016-.204a.972.972 0 0 1 .29-.056c.155 0 .283.11.283.278 0 .204-.215.429-.307.516l-.035.034h.352v.172h-.6v-.172l.072-.08zm-1.086.122.524-.226-.524-.227v-.141l.713.307v.121l-.713.307v-.14zm7.003 2.205c0 .018-.002.07-.004.082l-.48 3.854H9.76l.212-1.641 1.15-1.776-.216-.137-.858 1.327.001-.009a.447.447 0 0 1-.37.198H7.896a.906.906 0 0 1-.87-.895h2.405l.163-.254h-.002l.178-.28h.004l.372-.577V7.21l.247-.388v.009a1.205 1.205 0 0 1 2.28.499zm.284-2.208a.96.96 0 1 1-1.922 0 .96.96 0 0 1 1.922 0z"/>
</symbol></svg>
