<svg xmlns="http://www.w3.org/2000/svg" viewBox="0 0 32 32" xml:space="preserve"><symbol id="icon">
    <rect/>
    <path fill="currentColor" d="M8 24.6c-.7 0-1.3.6-1.3 1.3 0 .7.6 1.3 1.3 1.3s1.3-.6 1.3-1.3c0-.8-.6-1.3-1.3-1.3zm0 1.9c-.3 0-.6-.3-.6-.6s.3-.6.6-.6.6.3.6.6-.3.6-.6.6zm15.1-15.6c.8 0 1.5-.7 1.5-1.5s-.7-1.5-1.5-1.5-1.5.7-1.5 1.5.7 1.5 1.5 1.5zm4.1 6.5zm-1.4-.9-1.2-1-1-3.5c-.1-.3-.3-.4-.3-.5-.5-.4-1-.6-1.7-.6-.5 0-.9.1-1.2.3L16 13.6l-.1.1c-.1 0-.1.1-.2.1l-.3-.4h-5V4.8H4.8v.4h.7v1.9h-.7v.4h.7v1.9h-.7v.4h.7v1.9h-.7v.4h.7V14h-.7v.4h.7v1.9h-.7v7.9h5.6v-7.4h6.8V16l-.7-.9.3-.2 2.8-1.5-.9 3.3v.3c0 .3.1.6.2.9l-2.3 8.7 2.3.6 2-7.6.7 1.5v5.4h2.2v-6.2c0-.3-.2-.7-.4-.9L22 17.2l.6-2.4.4 1.7 1.7 1.3c.7.5 1.6.4 2.1-.2l-1-1.1zm-19.9-.2v-1.9h1.9v1.9H5.9zm0-2.3v-1.9h1.9V14H5.9zm1.9-2.3H5.9V9.8h1.9v1.9zM5.9 9.4V7.5h1.9v1.9H5.9zm0-2.3V5.2h1.9v1.9H5.9zm4 9.2H8.1v-1.9h1.8v1.9zm0-2.3H8.1v-1.9h1.8V14zm0-2.3H8.1V9.8h1.8v1.9zm0-2.3H8.1V7.5h1.8v1.9zm0-2.3H8.1V5.2h1.8v1.9zm.5 7H15l.2.3c-.2.4-.2.9 0 1.3l.7-.4.4.6h-5.9v-1.8zm4.9 1.7zM32 0H0v32h32V0zm-1.1 1.1v29.8H1.1V1.1h29.8z"/>
</symbol></svg>
