<svg xmlns="http://www.w3.org/2000/svg" viewBox="0 0 32 32" xml:space="preserve"><symbol id="icon">
    <rect/>
    <path fill="currentColor" d="M32 0H0v32h32V0zm-1.1 1.1v29.8H1.1V1.1h29.8zm-6.9 6v1.3l-2.4 2.4-2.4-2.4V7.1l2 2.1V4.8h1v4.3l1.8-2zM5.8 10c-.3 0-.6.2-.6.6 0 .3.2.6.6.6.3 0 .6-.2.6-.6-.1-.3-.3-.6-.6-.6zm0 .8c-.1 0-.2-.1-.2-.2s.1-.2.2-.2.2.1.2.2-.1.2-.2.2zM8 10c-.3 0-.6.2-.6.6 0 .3.2.6.6.6.3 0 .6-.2.6-.6 0-.3-.3-.6-.6-.6zm0 .8c-.1 0-.2-.1-.2-.2s.1-.2.2-.2.2.1.2.2-.1.2-.2.2zm2.4-6v3.7H8.9V4.8H4.8v5h4.1v-.5h1.5v.5h4.2v-5h-4.2zm-4.3 3H5V7h1.1v.8zm0-1H5V6h1.1v.8zm0-1H5V5h1.1v.8zm.2 2V7h1.1v.8H6.3zm0-1V6h1.1v.8H6.3zm0-1V5h1.1v.8H6.3zm2.4 2H7.5V7h1.2v.8zm0-1H7.5V6h1.2v.8zm0-1H7.5V5h1.2v.8zm3.1 2h-1.2V7h1.2v.8zm0-1h-1.2V6h1.2v.8zm0-1h-1.2V5h1.2v.8zm1.3 2H12V7h1.1v.8zm0-1H12V6h1.1v.8zm0-1H12V5h1.1v.8zm1.3 2h-1.1V7h1.1v.8zm0-1h-1.1V6h1.1v.8zm0-1h-1.1V5h1.1v.8zm-.8 4.2c-.3 0-.6.2-.6.6 0 .3.2.6.6.6.3 0 .6-.2.6-.6-.1-.3-.3-.6-.6-.6zm0 .8c-.1 0-.2-.1-.2-.2s.1-.2.2-.2.2.1.2.2-.1.2-.2.2zm-2.3-.8c-.3 0-.6.2-.6.6 0 .3.2.6.6.6.3 0 .6-.2.6-.6 0-.3-.2-.6-.6-.6zm0 .8c-.1 0-.2-.1-.2-.2s.1-.2.2-.2.2.1.2.2-.1.2-.2.2zM27.5 22v-.2c-.1-.9-.9-1.7-1.8-1.7h-2.9v-6.7H25v-.5c0-.5-.4-1-1-1h-4.8c-.5 0-1 .4-1 1v.5h2.2v6.7H4.8v3.7h15.6v1.9c0 .8.5 1.5 1.1 1.5s1.1-.7 1.1-1.5v-1.9h3c1.9 0 1.9-1.8 1.9-1.8zm-5.9 1.1c-1.2 0-1.9-.4-1.9-1.1 0-.5.2-.8.7-1v1.3c.3.1.7.2 1.1.2.5 0 .8-.1 1.1-.2V21c.5.2.7.5.7.9.1.8-.5 1.2-1.7 1.2z"/>
</symbol></svg>
