<svg xmlns="http://www.w3.org/2000/svg" viewBox="0 0 17.766 24" xml:space="preserve"><symbol id="icon">
    <path fill="currentColor" d="M1.093 19.533h15.584v.078H1.093v-.078zm0 1.708h15.584v-.078H1.093v.078zm0 1.627h15.584v-.078H1.093v.078zM1.848 24h.22v-.063h-.22V24zm.44 0h.221v-.063h-.22V24zM1.026 0h-.22v.063h.22V0zm.383 24h.22v-.063h-.22V24zm-.44 0h.22v-.063h-.22V24zm3.083 0h.22v-.063h-.22V24zM.527 24h.22v-.063h-.22V24zm3.965 0h.22v-.063h-.22V24zm9.75-24h-.22v.063h.22V0zm-9.31 24h.22v-.063h-.22V24zm-1.321 0h.22v-.063h-.22V24zM13.8 0h-.22v.063h.22V0zM3.17 24h.22v-.063h-.22V24zm-.44 0h.22v-.063h-.22V24zM0 .957h.063v-.22H0v.22zM0 2.28h.063v-.22H0v.22zm0 .44h.063V2.5H0v.22zm0-.88h.063v-.221H0v.22zm0 1.32h.063v-.22H0v.22zM13.36 0h-.22v.063h.22V0zM0 4.041h.063v-.22H0v.22zm0-2.643h.063v-.22H0v.22zM0 3.6h.063v-.22H0v.22zM12.04 0h-.221v.063h.22V0zM.085 24h.22v-.063h-.22V24zM12.92 0h-.22v.063h.22V0zM.585 0h-.22v.063h.22V0zm-.44 0H0v.076h.063V.063h.081V0zm5.228 24h.22v-.063h-.22V24zM12.48 0h-.22v.063h.22V0zm-.881 0h-.22v.063h.22V0zM0 .517h.063v-.22H0v.22zM14.624 24h.22v-.063h-.22V24zm-.88 0h.22v-.063h-.22V24zm1.82-24h-.22v.063h.22V0zm-1.38 24h.22v-.063h-.22V24zm-1.762 0h.22v-.063h-.22V24zm.44 0h.22v-.063h-.22V24zm.44 0h.221v-.063h-.22V24zm-1.321 0h.22v-.063h-.22V24zm4.464-24h-.22v.063h.22V0zm.44 0h-.22v.063h.22V0zm-1.82 24h.22v-.063h-.22V24zm.94-24h-.221v.063h.22V0zm.381 24h.22v-.063h-.22V24zm-.88 0h.22v-.063h-.22V24zm-9.693 0h.22v-.063h-.22V24zm10.133 0h.22v-.063h-.22V24zm-7.93 0h.22v-.063h-.22V24zm-.44 0h.22v-.063h-.22V24zm.88 0h.22v-.063h-.22V24zm-1.762 0h.22v-.063h-.22V24zm.44 0h.221v-.063h-.22V24zm-.88 0h.22v-.063h-.22V24zm8.428-24h-.22v.063h.22V0zM9.778 24h.22v-.063h-.22V24zm5.345-24h-.22v.063h.22V0zm-4.464 24h.22v-.063h-.22V24zm.44 0h.221v-.063h-.22V24zm-1.761 0h.22v-.063h-.22V24zm.88 0h.221v-.063h-.22V24zm-1.32 0h.22v-.063h-.22V24zm2.643 0h.22v-.063h-.22V24zM0 20.341h.063v-.22H0v.22zM1.466 0h-.22v.063h.22V0zM0 23.866h.063v-.22H0v.22zM2.788 0h-.22v.063h.22V0zm-.441 0h-.22v.063h.22V0zm-.44 0h-.22v.063h.22V0zM0 23.425h.063v-.22H0v.22zm0-1.321h.063v-.22H0v.22zm0 .88h.063v-.22H0v.22zm0-.44h.063v-.22H0v.22zM4.99 0h-.22v.063h.22V0zm.44 0h-.22v.063h.22V0zM3.229 0h-.22v.063h.22V0zm2.643 0h-.22v.063h.22V0zM3.67 0h-.22v.063h.22V0zm.44 0h-.22v.063h.22V0zm.44 0h-.22v.063h.22V0zM0 20.782h.063v-.22H0v.22zm0-2.203h.063v-.22H0v.22zm0-.44h.063v-.22H0v.22zm0 .88h.063v-.22H0v.22zm0-1.32h.063v-.221H0v.22zm0-.441h.063v-.22H0v.22zM6.312 0h-.22v.063h.22V0zM0 19.46h.063v-.22H0v.22zm0 .44h.063v-.22H0v.22zm0-4.405h.063v-.22H0v.22zm0 1.322h.063v-.22H0v.22zm0 4.406h.063v-.22H0v.22zm0-6.609h.063v-.22H0v.22zm0 .44h.063v-.22H0v.22zm0 1.322h.063v-.22H0v.22zm0 5.287h.063v-.22H0v.22zm0-5.727h.063v-.22H0v.22zM0 5.363h.063v-.22H0v.22zm0 3.524h.063v-.22H0v.22zm0-.44h.063v-.22H0v.22zM10.717 0h-.22v.063h.22V0zM0 8.006h.063v-.22H0v.22zm0 1.762h.063v-.22H0v.22zM10.277 0h-.22v.063h.22V0zm.881 0h-.22v.063h.22V0zM0 9.328h.063v-.22H0v.22zm0-1.763h.063v-.22H0v.22zm0-3.083h.063v-.22H0v.22zm0 1.321h.063v-.22H0v.22zm0-.88h.063v-.221H0v.22zm0 5.286h.063v-.22H0v.22zm0-3.084h.063v-.22H0v.22zm0-.44h.063v-.22H0v.22zm0-.441h.063v-.22H0v.22zM8.955 0h-.22v.063h.22V0zM0 13.733h.063v-.22H0v.22zM8.515 0h-.22v.063h.22V0zM0 14.174h.063v-.22H0v.22zM8.074 0h-.22v.063h.22V0zm-.881 0h-.22v.063h.22V0zM0 13.293h.063v-.22H0v.22zM7.634 0h-.22v.063h.22V0zM0 11.53h.063v-.22H0v.22zm0-.44h.063v-.22H0v.22zm0-.44h.063v-.221H0v.22zM6.752 0h-.22v.063h.22V0zM0 12.411h.063v-.22H0v.22zM9.836 0h-.22v.063h.22V0zM0 12.852h.063v-.22H0v.22zm0-.881h.063v-.22H0v.22zM9.396 0h-.22v.063h.22V0zm8.307 15.688h.063v-.22h-.063v.22zm0 1.321h.063v-.22h-.063v.22zm0-.88h.063v-.221h-.063v.22zm0 .44h.063v-.22h-.063v.22zm0 2.202h.063v-.22h-.063v.22zm0-.44h.063v-.22h-.063v.22zm0-.44h.063v-.22h-.063v.22zm0-.441h.063v-.22h-.063v.22zm0-2.203h.063v-.22h-.063v.22zm0-2.203h.063v-.22h-.063v.22zm0 .881h.063v-.22h-.063v.22zm0-.44h.063v-.22h-.063v.22zm0 1.321h.063v-.22h-.063v.22zm0-.44h.063v-.22h-.063v.22zm0 7.93h.063v-.22h-.063v.22zm0 1.704h.063v-.162h-.063V24zm0-.383h.063v-.22h-.063v.22zm0-.88h.063v-.22h-.063v.22zM17.268 24h.22v-.063h-.22V24zm.435-11.396h.063v-.22h-.063v.22zm0 6.608h.063v-.22h-.063v.22zM17.326 0h-.22v.063h.22V0zm.377 20.093h.063v-.22h-.063v.22zm0-.44h.063v-.22h-.063v.22zm0 .88h.063v-.22h-.063v.22zm0 1.322h.063v-.22h-.063v.22zm0-.88h.063v-.221h-.063v.22zm0 .44h.063v-.22h-.063v.22zm0-9.692h.063v-.22h-.063v.22zm0-7.49h.063v-.22h-.063v.22zm0-.44h.063v-.22h-.063v.22zm0-.881h.063v-.22h-.063v.22zm0 .44h.063v-.22h-.063v.22zm0 2.643h.063v-.22h-.063v.22zm0-1.321h.063v-.22h-.063v.22zm0 .44h.063v-.22h-.063v.22zm0 .44h.063v-.22h-.063v.22zm0-4.405h.063V.93h-.063v.22zm0-.44h.063v-.22h-.063v.22zM17.546 0v.063h.157v.205h.063V0h-.22zm.157 2.03h.063v-.22h-.063v.22zm0 10.133h.063v-.22h-.063v.22zm0-9.692h.063v-.22h-.063v.22zm0-.881h.063v-.22h-.063v.22zm0 4.846h.063v-.22h-.063v.22zm0 3.524h.063v-.22h-.063v.22zm0 .881h.063v-.22h-.063v.22zm0-.44h.063v-.22h-.063v.22zm0 .881h.063v-.22h-.063v.22zM16.827 24h.22v-.063h-.22V24zm.876-14.48h.063V9.3h-.063v.22zm0-2.203h.063v-.22h-.063v.22zm0 1.762h.063v-.22h-.063v.22zm0-2.202h.063v-.22h-.063v.22zm0 .88h.063v-.22h-.063v.22zm0 .882h.063v-.22h-.063v.22zm0-.44h.063v-.221h-.063v.22zm0 14.978h.063v-.22h-.063v.22zM1.093 1.127h15.584v15.585H1.093V1.128zm.543 15.042h14.498V1.67H1.636v14.498zm12.686-1.813v-1.812L3.449 14.356h10.873zm-9.625-2.715.601-.11-.502.69.564-.103.655-.949-.95-.655-.563.104.714.467-.601.11a.611.611 0 1 1-.22-1.203l1.67-.306-.081-.444-1.671.306v-.001a1.065 1.065 0 0 0 .384 2.094zm8.59-8.338 1.215 7.33-6.615 1.097L6.671 4.4l6.615-1.097zm-1.045.356.149.896.894-.149-.149-.895-.894.148zm0 1.103-.894.149.148.894.894-.148-.148-.895zm-1.072-.925.148.896.895-.149-.15-.895-.893.148zm0 1.103-.895.149.149.894.894-.149-.148-.894zm-1.073-.925.148.896.896-.149-.15-.896-.894.149zm0 1.103-.895.149.149.894.894-.149-.148-.894zm-1.073-.925.149.896.895-.149-.149-.896-.895.149zm0 1.103-.894.149.148.894.895-.149-.149-.894zm-1.073-.925.149.896.895-.149-.149-.896-.895.149zm-.924 1.074.895-.149-.149-.896-.894.149.148.896zm.178 1.072.895-.149-.148-.894-.895.149.148.894zm.178 1.073.895-.148-.149-.896-.894.149.148.895zm1.073.924-.149-.894-.894.148.148.895.895-.149zm0-1.102.895-.148-.149-.896-.895.149.149.895zm1.073.924-.149-.894-.895.148.149.895.895-.149zm0-1.102.895-.148-.149-.896-.895.149.149.895zm1.073.924-.149-.894-.895.148.149.895.895-.149zm0-1.102.894-.148-.148-.896-.895.149.149.895zm1.072.924-.148-.894-.895.148.148.895.895-.149zm0-1.102.894-.148-.148-.895-.894.148.148.895zm1.073.924-.149-.894-.894.148.148.895.895-.149zm.923-1.072-.894.148.148.895.895-.149-.149-.894zm-.178-1.073-.894.148.149.895.894-.148-.149-.895zm-.178-1.073-.894.149.148.894.895-.148-.149-.895zM9.3 13.114a.634.634 0 0 1-.207-1.25.636.636 0 0 1 .73.522.635.635 0 0 1-.523.729zm-.056-.34a.289.289 0 0 0-.095-.569.289.289 0 0 0 .095.569zm4.034-.596a.272.272 0 0 0 .537-.086l-.114-.714v-.002a.272.272 0 1 0-.539.087v.002l.115.711v.002zM1.16 19.076h-.132l.25-.635h.144l.253.635h-.14l-.055-.146h-.264l-.056.146zm.089-.243h.197l-.053-.147a.457.457 0 0 1-.012-.035l-.012-.04-.012-.039a.857.857 0 0 1-.008-.03h-.001l-.01.03-.012.04-.013.04-.012.034-.052.147zm.611-.096c.012-.013.027-.024.044-.032s.037-.012.06-.012a.166.166 0 0 1 .074.015l.009-.093a.404.404 0 0 0-.097-.013.29.29 0 0 0-.098.017.224.224 0 0 0-.135.124.25.25 0 0 0-.02.102c0 .036.006.07.018.098a.216.216 0 0 0 .132.122.303.303 0 0 0 .159.014l.046-.01-.006-.096a.214.214 0 0 1-.08.016.16.16 0 0 1-.063-.011.116.116 0 0 1-.07-.078.2.2 0 0 1 0-.116.117.117 0 0 1 .027-.047zm.394-.164v-.184h-.12v.687h.12v-.212c0-.052.01-.093.028-.124a.093.093 0 0 1 .086-.046c.02 0 .035.004.047.012s.02.019.026.033c.006.014.01.03.012.05l.002.062v.225h.12v-.271a.354.354 0 0 0-.01-.086c-.005-.026-.015-.047-.028-.066s-.032-.032-.054-.042a.194.194 0 0 0-.167.01.21.21 0 0 0-.063.067h-.002l.002-.053v-.062zm.467-.063v.098H2.63v.09h.09v.207c0 .062.012.107.036.135.024.027.063.042.117.042.016 0 .03 0 .045-.003s.027-.005.039-.01l-.003-.092a.136.136 0 0 1-.045.006c-.03 0-.05-.007-.058-.024s-.015-.043-.015-.078v-.183h.112v-.09h-.112v-.137l-.114.039zm.297.098v.297c0 .028.004.052.012.074a.16.16 0 0 0 .033.058.136.136 0 0 0 .052.037c.02.009.043.013.068.013a.18.18 0 0 0 .1-.025.212.212 0 0 0 .06-.063h.003a.589.589 0 0 0 .003.077h.114a.629.629 0 0 1-.005-.065v-.403h-.12v.234c0 .02-.003.039-.008.056s-.012.034-.022.046c-.01.014-.02.024-.035.032s-.029.011-.046.011-.033-.004-.044-.01a.075.075 0 0 1-.027-.028c-.007-.012-.011-.026-.014-.043s-.004-.035-.004-.055v-.243h-.12zm.995.468v-.272a.381.381 0 0 0-.01-.086.162.162 0 0 0-.027-.065c-.014-.018-.031-.032-.053-.042s-.048-.014-.078-.014a.173.173 0 0 0-.156.09h-.002v-.041l-.003-.038h-.116l.004.075v.393h.12v-.212a.24.24 0 0 1 .02-.11.128.128 0 0 1 .04-.043c.018-.01.036-.017.056-.017s.036.004.047.012.02.019.025.033c.006.014.01.03.011.05l.002.062v.225h.12zm.439-.393h.002c-.002-.015-.002-.028-.002-.04v-.035h.112v.432a.294.294 0 0 1-.014.096.194.194 0 0 1-.121.125.315.315 0 0 1-.11.017.46.46 0 0 1-.187-.031l.009-.103a.347.347 0 0 0 .167.044c.02 0 .04-.003.057-.01a.11.11 0 0 0 .043-.027.12.12 0 0 0 .029-.046.2.2 0 0 0 .01-.065v-.023l.001-.026h-.002a.164.164 0 0 1-.15.085.186.186 0 0 1-.146-.064.205.205 0 0 1-.041-.074.325.325 0 0 1 0-.194c.01-.03.024-.057.042-.078a.192.192 0 0 1 .153-.07.165.165 0 0 1 .148.086zm-.008.154c0-.02-.002-.04-.007-.058a.146.146 0 0 0-.024-.046c-.01-.013-.023-.023-.037-.03s-.03-.013-.048-.013a.083.083 0 0 0-.044.012.109.109 0 0 0-.034.031.144.144 0 0 0-.022.046.23.23 0 0 0-.008.059c0 .042.01.076.029.102.02.028.046.04.08.04a.095.095 0 0 0 .047-.01.122.122 0 0 0 .06-.075.198.198 0 0 0 .008-.058zm.682-.05c.012.001.023.001.034.003 0-.037-.009-.063-.026-.08-.018-.016-.046-.023-.084-.023-.025 0-.05.003-.074.011s-.048.018-.069.03l-.004-.094a.396.396 0 0 1 .168-.037.29.29 0 0 1 .093.013.18.18 0 0 1 .063.038.156.156 0 0 1 .035.061.25.25 0 0 1 .011.08V18.895l-.001.03a1.606 1.606 0 0 0 .006.15h-.106a.261.261 0 0 1-.002-.016v-.04l.002-.022H5.17a.181.181 0 0 1-.063.064.19.19 0 0 1-.098.023c-.023 0-.044-.003-.063-.01s-.035-.016-.049-.028a.143.143 0 0 1-.044-.107c0-.05.02-.087.062-.114s.101-.039.179-.039h.032zm.015.071h-.02a.274.274 0 0 0-.11.018.058.058 0 0 0-.038.058c0 .02.006.036.019.046s.03.017.053.017c.016 0 .031-.003.045-.008s.027-.012.038-.024a.117.117 0 0 0 .025-.042.197.197 0 0 0 .009-.063l-.021-.002zm.233-.25v.297c0 .028.003.052.012.074a.16.16 0 0 0 .033.058.136.136 0 0 0 .052.037c.02.009.042.013.067.013a.18.18 0 0 0 .1-.025.212.212 0 0 0 .061-.063h.002a.589.589 0 0 0 .004.077h.113a.629.629 0 0 1-.004-.065v-.403h-.121v.234c0 .02-.003.039-.007.056a.124.124 0 0 1-.057.078c-.014.007-.03.011-.047.011s-.032-.004-.044-.01a.075.075 0 0 1-.027-.028c-.007-.012-.011-.026-.013-.043s-.004-.035-.004-.055v-.243h-.12zm.732-.108c.009-.014.025-.021.048-.021.015 0 .031.003.046.01l.01-.094a.231.231 0 0 0-.07-.01c-.06 0-.103.015-.13.047s-.04.079-.04.143v.033H5.88v.09h.092v.378h.122v-.378H6.2v-.09h-.107v-.035a.15.15 0 0 1 .013-.073zm.53.184c.035 0 .072.008.112.026l.01-.09a.334.334 0 0 0-.204-.013.156.156 0 0 0-.058.029.127.127 0 0 0-.051.104c0 .035.01.063.028.083s.051.038.096.053l.046.018a.14.14 0 0 1 .028.016c.006.005.011.01.014.017a.053.053 0 0 1 .004.021.04.04 0 0 1-.023.037.104.104 0 0 1-.054.013.297.297 0 0 1-.131-.032l-.007.096a.37.37 0 0 0 .145.025.284.284 0 0 0 .078-.01.144.144 0 0 0 .1-.075.136.136 0 0 0 .014-.064.14.14 0 0 0-.01-.052.127.127 0 0 0-.067-.067.439.439 0 0 0-.056-.022l-.041-.015-.026-.013a.038.038 0 0 1-.014-.016.045.045 0 0 1-.005-.02c0-.016.007-.028.02-.037a.092.092 0 0 1 .052-.012zm.356.053c.011-.013.026-.024.043-.032s.038-.012.06-.012a.166.166 0 0 1 .074.015l.01-.093a.415.415 0 0 0-.097-.013.29.29 0 0 0-.099.017.224.224 0 0 0-.135.124.25.25 0 0 0-.02.102c0 .036.006.07.019.098a.216.216 0 0 0 .132.122.303.303 0 0 0 .158.014l.047-.01-.007-.096a.214.214 0 0 1-.079.016.16.16 0 0 1-.064-.011.116.116 0 0 1-.07-.078.2.2 0 0 1 0-.116.117.117 0 0 1 .028-.047zm.393-.164v-.184h-.12v.687h.12v-.212c0-.052.01-.093.029-.124a.093.093 0 0 1 .085-.046c.02 0 .036.004.047.012s.02.019.027.033c.006.014.01.03.011.05l.002.062v.225h.12v-.271a.354.354 0 0 0-.009-.086c-.006-.026-.015-.047-.029-.066s-.032-.032-.053-.042a.194.194 0 0 0-.168.01.21.21 0 0 0-.062.067h-.002c0-.015 0-.032.002-.053v-.062zm.559-.17h-.122v.116h.122v-.117zm-.122.673h.122v-.468h-.122v.468zm.647-.2h-.314a.11.11 0 0 0 .041.087c.027.02.061.031.104.031a.255.255 0 0 0 .136-.038l.002.1a.373.373 0 0 1-.257.014.208.208 0 0 1-.132-.126.28.28 0 0 1-.018-.104c0-.035.005-.068.016-.098a.227.227 0 0 1 .122-.127.251.251 0 0 1 .096-.018c.068 0 .12.02.154.061.034.041.052.104.052.189v.015l-.002.014zm-.11-.083c0-.04-.009-.066-.026-.084a.1.1 0 0 0-.072-.025.103.103 0 0 0-.072.027c-.02.018-.033.045-.036.082h.206zm.373-.293c.009-.014.025-.021.048-.021.015 0 .031.003.046.01l.01-.094a.231.231 0 0 0-.07-.01c-.06 0-.103.015-.13.047s-.04.079-.04.143v.033h-.091v.09h.092v.378h.122v-.378h.107v-.09H8.72v-.035a.15.15 0 0 1 .013-.073zm.557.376h-.313a.11.11 0 0 0 .04.087c.027.02.062.031.104.031a.255.255 0 0 0 .136-.038l.002.1a.373.373 0 0 1-.257.014.208.208 0 0 1-.132-.126.28.28 0 0 1-.018-.104c0-.035.005-.068.017-.098a.227.227 0 0 1 .122-.127.251.251 0 0 1 .095-.018c.068 0 .12.02.154.061.034.041.052.104.052.189v.015l-.002.014zm-.11-.083c0-.04-.009-.066-.026-.084a.1.1 0 0 0-.072-.025.103.103 0 0 0-.071.027c-.021.018-.033.045-.036.082h.205zm.317.283v-.191c0-.123.041-.185.122-.185.015 0 .03.003.042.007l.003-.104c-.007-.003-.014-.004-.02-.005l-.02-.001c-.034 0-.061.01-.083.027s-.04.042-.052.073h-.002v-.021a.401.401 0 0 0-.002-.048l-.001-.02h-.115a.806.806 0 0 1 .004.066v.403h.124zm.813-.53v-.105h-.376v.635h.379v-.106h-.252v-.167h.229V18.7h-.23v-.153h.25zm.228.074-.002.06h.002a.183.183 0 0 1 .066-.062.195.195 0 0 1 .171-.003c.025.012.045.029.062.05s.03.047.039.076a.32.32 0 0 1 .013.097.33.33 0 0 1-.014.1.228.228 0 0 1-.04.079.183.183 0 0 1-.15.07.181.181 0 0 1-.091-.023.18.18 0 0 1-.062-.063h-.002v.041a.28.28 0 0 1-.004.034h-.112a.815.815 0 0 0 .004-.065v-.622h.12v.232zm.001.223c0 .021.003.042.008.06a.146.146 0 0 0 .024.047c.01.013.022.024.036.031a.11.11 0 0 0 .048.011.092.092 0 0 0 .081-.042.187.187 0 0 0 .03-.108.19.19 0 0 0-.028-.109.091.091 0 0 0-.082-.042c-.018 0-.034.004-.048.012a.123.123 0 0 0-.06.08.213.213 0 0 0-.009.06zm.842.033h-.313a.11.11 0 0 0 .04.087c.027.02.062.031.104.031a.255.255 0 0 0 .137-.038l.002.1a.373.373 0 0 1-.258.014.208.208 0 0 1-.132-.126.28.28 0 0 1-.018-.104c0-.035.006-.068.017-.098a.227.227 0 0 1 .122-.127.251.251 0 0 1 .096-.018c.068 0 .119.02.154.061.034.041.051.104.051.189v.015l-.002.014zm-.11-.083c0-.04-.008-.066-.026-.084a.1.1 0 0 0-.072-.025.103.103 0 0 0-.07.027c-.022.018-.034.045-.037.082h.206zm.635.283v-.272a.381.381 0 0 0-.009-.086.162.162 0 0 0-.028-.065c-.014-.018-.03-.032-.052-.042s-.048-.014-.079-.014a.173.173 0 0 0-.155.09h-.002v-.041l-.004-.038h-.115l.003.075.001.07v.323h.12v-.212a.24.24 0 0 1 .02-.11.128.128 0 0 1 .04-.043c.017-.01.036-.017.056-.017s.035.004.047.012.02.019.025.033c.006.014.01.03.01.05.002.019.002.04.002.062v.225h.12zm.52-.2h-.314a.11.11 0 0 0 .04.087c.027.02.062.031.104.031a.255.255 0 0 0 .137-.038l.002.1a.373.373 0 0 1-.258.014.208.208 0 0 1-.132-.126.28.28 0 0 1-.018-.104c0-.035.006-.068.017-.098a.227.227 0 0 1 .122-.127.251.251 0 0 1 .096-.018c.068 0 .119.02.154.061.034.041.051.104.051.189v.015l-.002.014zm-.11-.083c0-.04-.01-.066-.027-.084a.1.1 0 0 0-.072-.025.103.103 0 0 0-.071.027c-.021.018-.033.045-.036.082h.205zm.22.283h.127v-.122h-.127v.122zm-.007-.635.02.452h.102l.021-.452h-.143zM1.16 20.726h-.132l.25-.635h.144l.253.635h-.14l-.055-.147h-.264l-.056.147zm.089-.244h.197l-.053-.147a.457.457 0 0 1-.012-.034l-.012-.04-.012-.04a.857.857 0 0 1-.008-.03h-.001l-.01.03-.012.04-.013.04-.012.034-.052.147zm.518-.323v.099h-.092v.09h.09v.207c0 .061.012.106.036.134.024.028.063.042.117.042.016 0 .03 0 .045-.002s.027-.005.038-.01L2 20.626a.136.136 0 0 1-.045.007c-.03 0-.05-.008-.058-.025s-.015-.043-.015-.078v-.182h.112v-.09h-.112v-.138l-.114.04zm.335 0v.099H2.01v.09h.09v.207c0 .061.011.106.036.134.024.028.062.042.116.042.016 0 .031 0 .045-.002s.027-.005.039-.01l-.003-.093a.136.136 0 0 1-.044.007c-.03 0-.05-.008-.059-.025s-.014-.043-.014-.078v-.182h.112v-.09h-.112v-.138l-.114.04zm.706.366h-.313a.11.11 0 0 0 .04.087c.027.02.062.032.104.032a.255.255 0 0 0 .136-.039l.002.101a.373.373 0 0 1-.257.014.208.208 0 0 1-.132-.126.28.28 0 0 1-.018-.105c0-.035.005-.067.017-.097a.227.227 0 0 1 .122-.127.251.251 0 0 1 .095-.019c.068 0 .12.02.154.062.034.04.052.103.052.188v.016l-.002.013zm-.11-.083c0-.039-.009-.066-.026-.084a.1.1 0 0 0-.072-.025.103.103 0 0 0-.071.027c-.021.018-.033.045-.036.082h.205zm.635.284v-.273a.381.381 0 0 0-.008-.086.162.162 0 0 0-.029-.064c-.013-.019-.03-.032-.052-.042s-.048-.015-.078-.015a.173.173 0 0 0-.156.09h-.002v-.041l-.004-.037H2.89l.004.074v.394h.12v-.212a.24.24 0 0 1 .02-.11.128.128 0 0 1 .04-.044c.017-.01.036-.016.056-.016s.036.004.047.011.02.019.025.034c.006.013.01.03.01.049.002.019.002.04.002.062v.226h.12zm.147-.567v.099h-.092v.09h.09v.207c0 .061.012.106.036.134.024.028.063.042.117.042.015 0 .03 0 .045-.002s.027-.005.038-.01l-.003-.093a.136.136 0 0 1-.044.007c-.03 0-.05-.008-.059-.025s-.014-.043-.014-.078v-.182h.112v-.09h-.112v-.138l-.114.04zm.425-.107h-.122v.116h.122v-.116zm-.122.674h.122v-.468h-.122v.468zm.278-.057a.237.237 0 0 1-.05-.077.264.264 0 0 1-.019-.1c0-.038.006-.071.018-.102a.221.221 0 0 1 .051-.077c.022-.021.048-.038.079-.05a.28.28 0 0 1 .2.002c.03.011.056.028.077.048a.231.231 0 0 1 .05.079.28.28 0 0 1 .018.101c0 .036-.006.07-.018.1-.012.03-.029.055-.05.077s-.048.038-.079.049a.274.274 0 0 1-.1.017c-.036 0-.07-.006-.1-.017s-.056-.029-.077-.05zm.061-.176c0 .046.01.082.031.11s.05.04.084.04c.037 0 .066-.013.087-.04s.032-.066.032-.115-.01-.086-.03-.112-.05-.04-.088-.04c-.036 0-.065.014-.085.041s-.03.065-.03.116zm.886.233v-.273A.381.381 0 0 0 5 20.367a.162.162 0 0 0-.029-.064c-.013-.019-.03-.032-.052-.042s-.048-.015-.079-.015a.173.173 0 0 0-.155.09h-.002v-.041l-.004-.037h-.115l.003.074.001.07v.324h.12v-.212a.24.24 0 0 1 .02-.11.128.128 0 0 1 .04-.044c.017-.01.036-.016.056-.016s.035.004.047.011.02.019.025.034c.006.013.01.03.01.049.002.019.002.04.002.062v.226h.12zm.482-.393c.035 0 .073.009.112.026l.01-.09a.334.334 0 0 0-.204-.012.156.156 0 0 0-.058.028.127.127 0 0 0-.051.105c0 .035.01.062.028.083s.051.038.096.052l.046.018a.14.14 0 0 1 .028.017c.006.004.011.01.014.016a.053.053 0 0 1 .004.022.04.04 0 0 1-.023.037.104.104 0 0 1-.054.012.297.297 0 0 1-.131-.032l-.007.097a.37.37 0 0 0 .145.024.284.284 0 0 0 .078-.01.144.144 0 0 0 .1-.075.136.136 0 0 0 .014-.064.14.14 0 0 0-.01-.052.127.127 0 0 0-.067-.066.439.439 0 0 0-.056-.023l-.041-.014-.026-.014a.038.038 0 0 1-.014-.016.045.045 0 0 1-.005-.02c0-.016.007-.028.02-.036a.092.092 0 0 1 .052-.013zm.224-.075v.297c0 .027.004.051.013.074a.16.16 0 0 0 .033.058.136.136 0 0 0 .052.037c.02.008.042.012.067.012a.18.18 0 0 0 .1-.025.212.212 0 0 0 .061-.063h.002a.589.589 0 0 0 .003.078h.114a.629.629 0 0 1-.004-.066v-.403h-.121v.234c0 .02-.003.04-.008.057s-.012.033-.022.046c-.01.013-.02.023-.034.031s-.03.012-.047.012-.032-.004-.044-.01a.075.075 0 0 1-.027-.028c-.007-.012-.011-.027-.014-.043s-.004-.035-.004-.056v-.242h-.12zm.677.468v-.192c0-.123.04-.184.122-.184.015 0 .029.003.042.006l.002-.104c-.006-.003-.013-.004-.02-.005h-.02c-.033 0-.06.009-.083.026s-.04.042-.051.074H6.38v-.022a.401.401 0 0 0-.003-.048v-.02h-.115a1.807 1.807 0 0 1 .004.139v.33h.124zm.797-.393c.036 0 .073.009.112.026l.01-.09a.334.334 0 0 0-.204-.012.156.156 0 0 0-.058.028.127.127 0 0 0-.05.105c0 .035.008.062.027.083s.052.038.097.052l.045.018a.14.14 0 0 1 .028.017c.007.004.012.01.014.016a.053.053 0 0 1 .004.022.04.04 0 0 1-.023.037.104.104 0 0 1-.053.012.297.297 0 0 1-.132-.032l-.006.097a.37.37 0 0 0 .144.024.284.284 0 0 0 .079-.01c.023-.005.043-.015.06-.028a.133.133 0 0 0 .053-.111.14.14 0 0 0-.009-.052.127.127 0 0 0-.068-.066.439.439 0 0 0-.056-.023l-.04-.014c-.012-.005-.02-.01-.027-.014s-.011-.01-.014-.016a.045.045 0 0 1-.004-.02c0-.016.007-.028.02-.036a.092.092 0 0 1 .051-.013zm.225-.075v.297c0 .027.004.051.012.074a.16.16 0 0 0 .033.058.136.136 0 0 0 .052.037c.02.008.042.012.067.012a.18.18 0 0 0 .1-.025.212.212 0 0 0 .061-.063h.002a.589.589 0 0 0 .004.078h.113a.629.629 0 0 1-.004-.066v-.403h-.121v.234c0 .02-.003.04-.007.057a.124.124 0 0 1-.057.077.1.1 0 0 1-.09.002.075.075 0 0 1-.028-.028c-.007-.012-.01-.027-.013-.043s-.004-.035-.004-.056v-.242h-.12zm.676.468v-.192c0-.123.04-.184.122-.184.015 0 .03.003.042.006l.002-.104c-.006-.003-.013-.004-.02-.005h-.02c-.033 0-.06.009-.083.026s-.04.042-.05.074h-.003v-.022a.401.401 0 0 0-.002-.048l-.001-.02H7.96a.806.806 0 0 1 .003.066l.001.073v.33h.124zm.396-.577c.01-.013.025-.021.048-.021.016 0 .031.004.047.01l.01-.094a.231.231 0 0 0-.07-.01c-.06 0-.104.016-.13.047s-.04.08-.04.144v.033h-.092v.09h.092v.378h.122v-.378h.108v-.09h-.108v-.035a.15.15 0 0 1 .013-.074zm.383.288c.011 0 .023 0 .034.002 0-.037-.009-.063-.027-.079-.017-.016-.045-.024-.083-.024-.025 0-.05.004-.075.012s-.048.017-.068.029l-.004-.094a.396.396 0 0 1 .168-.037.29.29 0 0 1 .093.014.18.18 0 0 1 .063.038.156.156 0 0 1 .035.06.25.25 0 0 1 .011.08V20.544l-.001.031a1.606 1.606 0 0 0 .006.15h-.106a.261.261 0 0 1-.002-.017v-.04l.002-.022h-.002a.181.181 0 0 1-.063.064.19.19 0 0 1-.098.023c-.023 0-.044-.003-.064-.01s-.035-.016-.048-.028a.143.143 0 0 1-.044-.107c0-.049.02-.087.062-.113s.1-.04.178-.04h.033zm.014.07h-.019a.274.274 0 0 0-.11.018.058.058 0 0 0-.039.058c0 .02.007.036.02.047s.03.016.053.016c.016 0 .03-.002.045-.007s.027-.013.038-.025a.117.117 0 0 0 .025-.042.197.197 0 0 0 .008-.062l-.02-.002zm.364-.12c.011-.014.026-.025.043-.033s.038-.011.06-.011a.166.166 0 0 1 .074.014l.01-.092a.415.415 0 0 0-.097-.013.29.29 0 0 0-.099.017.224.224 0 0 0-.135.124.25.25 0 0 0-.02.101c0 .036.006.07.019.099a.216.216 0 0 0 .132.122.303.303 0 0 0 .158.014c.015-.003.03-.006.046-.011l-.006-.096a.214.214 0 0 1-.079.017.16.16 0 0 1-.064-.012.116.116 0 0 1-.07-.077.2.2 0 0 1 0-.116.117.117 0 0 1 .028-.047zm.679.138H9.61a.11.11 0 0 0 .041.087c.027.02.061.032.104.032a.255.255 0 0 0 .136-.039l.002.101a.373.373 0 0 1-.257.014.208.208 0 0 1-.132-.126.28.28 0 0 1-.018-.105c0-.035.005-.067.016-.097a.227.227 0 0 1 .122-.127.251.251 0 0 1 .096-.019c.068 0 .12.02.154.062.034.04.052.103.052.188v.016l-.002.013zm-.11-.083c0-.039-.009-.066-.026-.084a.1.1 0 0 0-.072-.025.103.103 0 0 0-.071.027c-.021.018-.034.045-.037.082h.206zm.408.284h.122v-.468h-.122v.468zm.122-.674h-.122v.116h.122v-.116zm.558.674v-.273a.381.381 0 0 0-.009-.086.162.162 0 0 0-.028-.064c-.014-.019-.031-.032-.053-.042s-.047-.015-.078-.015a.173.173 0 0 0-.156.09h-.001l-.001-.041-.003-.037h-.116l.004.074v.394h.121v-.212a.24.24 0 0 1 .02-.11.128.128 0 0 1 .04-.044c.017-.01.035-.016.055-.016s.036.004.047.011.02.019.026.034c.005.013.009.03.01.049l.002.062v.226h.12zm.24-.34c.011-.013.026-.024.043-.032s.038-.011.06-.011a.166.166 0 0 1 .074.014l.01-.092a.415.415 0 0 0-.097-.013.29.29 0 0 0-.099.017.224.224 0 0 0-.135.124.25.25 0 0 0-.02.101c0 .036.006.07.019.099a.216.216 0 0 0 .132.122.303.303 0 0 0 .158.014c.015-.003.03-.006.046-.011l-.006-.096a.214.214 0 0 1-.079.017.16.16 0 0 1-.064-.012.116.116 0 0 1-.07-.077.2.2 0 0 1 0-.116.117.117 0 0 1 .028-.047zm.275-.348v.688h.123v-.688h-.123zm.366.014h-.122v.116h.122v-.116zm-.122.674h.122v-.468h-.122v.468zm.68 0v-.273a.381.381 0 0 0-.009-.086.162.162 0 0 0-.028-.064c-.014-.019-.031-.032-.053-.042s-.047-.015-.078-.015a.173.173 0 0 0-.156.09h-.001l-.001-.041-.003-.037h-.116l.004.074v.394h.121v-.212a.24.24 0 0 1 .02-.11.128.128 0 0 1 .04-.044c.017-.01.035-.016.055-.016s.036.004.047.011.02.019.025.034c.006.013.01.03.011.049l.002.062v.226h.12zm.463-.688h-.127l-.076.161h.072l.13-.16zm-.243.227a.251.251 0 0 1 .095-.019c.068 0 .12.02.154.062.034.04.052.103.052.188v.016l-.002.013h-.314a.11.11 0 0 0 .041.087c.027.02.061.032.104.032a.255.255 0 0 0 .136-.039l.002.101a.373.373 0 0 1-.257.014.208.208 0 0 1-.132-.126.28.28 0 0 1-.018-.105c0-.035.005-.067.016-.097a.227.227 0 0 1 .123-.127zm.02.095c-.021.018-.034.045-.037.082h.206c0-.039-.009-.066-.026-.084a.1.1 0 0 0-.072-.025.103.103 0 0 0-.071.027zm.772.165h-.314a.11.11 0 0 0 .041.087c.027.02.062.032.104.032a.257.257 0 0 0 .137-.038l.001.1a.362.362 0 0 1-.258.014.212.212 0 0 1-.131-.126.28.28 0 0 1-.018-.105c0-.035.005-.067.016-.097a.227.227 0 0 1 .123-.127.25.25 0 0 1 .095-.019c.068 0 .12.02.154.062.035.04.052.103.052.188v.016c-.002.006-.002.01-.002.013zm-.11-.083c0-.039-.009-.066-.026-.084a.1.1 0 0 0-.072-.025.1.1 0 0 0-.07.027c-.022.018-.035.045-.038.082h.206zm.22.284h.127v-.122h-.126v.122zm-.006-.635.02.451h.101l.023-.451h-.144zM1.16 22.379h-.132l.25-.635h.144l.253.635h-.14l-.055-.147h-.264l-.056.147zm.089-.243h.197l-.053-.148a.457.457 0 0 1-.012-.034l-.012-.04-.012-.039a.857.857 0 0 1-.008-.03h-.001l-.01.03-.012.04a3.716 3.716 0 0 0-.013.04l-.012.033-.052.148zm.518-.323v.098h-.092v.09h.09v.207c0 .062.012.106.036.135.024.027.063.042.117.042.016 0 .03-.001.045-.003s.027-.005.038-.01L2 22.28a.136.136 0 0 1-.045.007c-.03 0-.05-.008-.058-.024s-.015-.043-.015-.078V22h.112v-.09h-.112v-.138l-.114.04zm.335 0v.098H2.01v.09h.09v.207c0 .062.011.106.036.135.024.027.062.042.116.042.016 0 .031-.001.045-.003s.027-.005.039-.01l-.003-.093a.136.136 0 0 1-.044.007c-.03 0-.05-.008-.059-.024s-.014-.043-.014-.078V22h.112v-.09h-.112v-.138l-.114.04zm.706.366h-.313a.11.11 0 0 0 .04.087c.027.02.062.03.104.03a.255.255 0 0 0 .136-.037l.002.1a.373.373 0 0 1-.257.014.208.208 0 0 1-.132-.126.28.28 0 0 1-.018-.104c0-.036.005-.068.017-.098a.227.227 0 0 1 .122-.127.251.251 0 0 1 .095-.019c.068 0 .12.02.154.062.034.041.052.103.052.188v.016l-.002.014zm-.11-.083c0-.04-.009-.067-.026-.084a.1.1 0 0 0-.072-.026.103.103 0 0 0-.071.028c-.021.017-.033.045-.036.082h.205zm.635.283v-.273a.381.381 0 0 0-.008-.085.162.162 0 0 0-.029-.065c-.013-.019-.03-.032-.052-.042s-.048-.015-.078-.015a.173.173 0 0 0-.156.09h-.002v-.04l-.004-.038H2.89l.004.074v.394h.12v-.212a.24.24 0 0 1 .02-.11.128.128 0 0 1 .04-.043c.017-.011.036-.017.056-.017s.036.004.047.012.02.018.025.033c.006.014.01.03.01.049.002.02.002.04.002.062v.226h.12zm.26-.308-.072.081-.111.125v.102h.396v-.092h-.258l.026-.026.046-.051.073-.081.105-.121v-.097h-.38v.091h.242l-.022.021-.044.048zm.296.308h.122v-.468h-.122v.468zm.122-.674h-.122v.116h.122v-.116zm.155.617a.237.237 0 0 1-.05-.077.264.264 0 0 1-.018-.1c0-.038.006-.07.018-.102a.221.221 0 0 1 .05-.077c.022-.02.048-.037.08-.049a.285.285 0 0 1 .2.001c.03.012.055.028.076.049a.231.231 0 0 1 .05.078.28.28 0 0 1 .018.101.23.23 0 0 1-.068.177.212.212 0 0 1-.078.05.274.274 0 0 1-.1.017c-.036 0-.07-.006-.1-.018s-.056-.028-.078-.05zm.062-.176c0 .046.01.083.03.11s.05.04.085.04c.036 0 .065-.013.087-.04s.032-.066.032-.114-.01-.086-.031-.113-.05-.039-.087-.039c-.036 0-.065.013-.086.04s-.03.066-.03.116zm.886.233v-.273a.381.381 0 0 0-.009-.085.162.162 0 0 0-.028-.065c-.014-.019-.031-.032-.053-.042s-.047-.015-.078-.015a.173.173 0 0 0-.156.09h-.001l-.001-.04-.003-.038h-.116l.004.074v.394h.12v-.212a.24.24 0 0 1 .021-.11.128.128 0 0 1 .04-.043c.017-.011.035-.017.055-.017s.036.004.047.012.02.018.025.033c.006.014.01.03.011.049l.002.062v.226h.12zm.519-.2h-.314a.11.11 0 0 0 .041.087c.027.02.061.03.104.03a.255.255 0 0 0 .136-.037l.002.1a.373.373 0 0 1-.257.014.208.208 0 0 1-.132-.126.28.28 0 0 1-.018-.104c0-.036.005-.068.016-.098a.227.227 0 0 1 .122-.127.251.251 0 0 1 .096-.019c.068 0 .12.02.154.062.034.041.052.103.052.188v.016l-.002.014zm-.11-.083c0-.04-.009-.067-.026-.084a.1.1 0 0 0-.072-.026.103.103 0 0 0-.071.028c-.021.017-.034.045-.037.082h.206zm.564-.11c.036 0 .073.01.112.027l.01-.091a.334.334 0 0 0-.203-.012.156.156 0 0 0-.059.028.127.127 0 0 0-.05.105c0 .035.009.062.028.083s.051.038.096.053l.046.017a.14.14 0 0 1 .028.017c.006.005.011.01.013.016a.053.053 0 0 1 .005.022.04.04 0 0 1-.023.037.104.104 0 0 1-.054.013.297.297 0 0 1-.132-.032l-.006.096a.37.37 0 0 0 .144.025.284.284 0 0 0 .08-.01c.023-.006.043-.016.06-.028s.029-.029.038-.047a.136.136 0 0 0 .014-.065.14.14 0 0 0-.008-.052.127.127 0 0 0-.069-.066.439.439 0 0 0-.055-.022c-.017-.005-.03-.011-.041-.015-.012-.005-.02-.009-.027-.014s-.011-.01-.013-.015a.045.045 0 0 1-.005-.02c0-.016.007-.028.02-.037a.092.092 0 0 1 .051-.013zm.226-.075v.297c0 .027.003.052.012.074a.16.16 0 0 0 .033.058.136.136 0 0 0 .052.037c.02.009.042.013.067.013a.18.18 0 0 0 .1-.026.212.212 0 0 0 .061-.062h.002a.589.589 0 0 0 .004.077h.113a.629.629 0 0 1-.004-.066v-.402h-.121v.234c0 .02-.003.039-.007.056a.124.124 0 0 1-.057.077.1.1 0 0 1-.09.002.075.075 0 0 1-.028-.028c-.007-.012-.011-.026-.013-.043s-.004-.035-.004-.056v-.242h-.12zm.68-.206H6.87v.116h.122v-.116zm-.122.674h.122v-.468H6.87v.468zm.568-.073h-.002l.001.021.001.032v.211h-.121v-.517l-.001-.075a.808.808 0 0 0-.004-.067h.117a.298.298 0 0 1 .003.035v.04h.002c.02-.029.043-.05.067-.065a.186.186 0 0 1 .091-.022c.03 0 .058.006.083.018s.045.027.062.049a.22.22 0 0 1 .04.075c.008.03.013.063.013.099a.348.348 0 0 1-.014.101c-.01.03-.023.057-.04.08a.176.176 0 0 1-.148.069.16.16 0 0 1-.089-.023.18.18 0 0 1-.061-.061zm0-.16c0 .021.003.041.009.06a.156.156 0 0 0 .023.047c.01.014.022.024.036.032a.111.111 0 0 0 .095 0c.014-.008.025-.018.035-.032s.016-.03.021-.048.007-.039.007-.061c0-.046-.01-.082-.028-.109s-.046-.04-.08-.04c-.018 0-.035.004-.049.012s-.026.017-.036.031-.018.03-.024.047a.214.214 0 0 0-.008.06zm.561-.44h-.122v.115H8v-.116zm-.122.673H8v-.468h-.122v.468zm.478-.29.035.004c0-.037-.01-.064-.027-.08s-.045-.024-.084-.024c-.025 0-.049.004-.074.012s-.048.018-.068.03l-.005-.094a.396.396 0 0 1 .168-.037.29.29 0 0 1 .094.013.18.18 0 0 1 .063.038.156.156 0 0 1 .035.06.25.25 0 0 1 .01.08v.138a1.606 1.606 0 0 0 .006.15h-.107a.26.26 0 0 1-.001-.017v-.04l.001-.021H8.4a.181.181 0 0 1-.062.063.19.19 0 0 1-.098.024c-.024 0-.045-.003-.064-.01s-.035-.017-.049-.028a.143.143 0 0 1-.044-.107c0-.05.021-.088.063-.114s.1-.04.178-.04h.032zm.015.072h-.019a.274.274 0 0 0-.11.018.058.058 0 0 0-.039.057c0 .02.006.036.02.047s.03.017.053.017c.016 0 .03-.003.045-.008s.027-.013.037-.024a.117.117 0 0 0 .025-.042.197.197 0 0 0 .01-.063l-.022-.002zm.676.218v-.273a.381.381 0 0 0-.009-.085.162.162 0 0 0-.028-.065c-.014-.018-.031-.032-.052-.042s-.048-.015-.08-.015a.173.173 0 0 0-.155.09h-.001l-.001-.04-.003-.038h-.115l.003.074v.394h.121v-.212a.24.24 0 0 1 .02-.11.128.128 0 0 1 .04-.043c.017-.011.035-.017.055-.017s.036.004.047.012.02.018.026.033c.005.014.009.03.01.049l.002.062v.226h.12zm.115 0h.122v-.468h-.122v.468zm.122-.674h-.122v.116h.122v-.116zm.452 0h-.122v.116h.122v-.116zm-.122.674h.122v-.468h-.122v.468zm.68 0v-.273a.381.381 0 0 0-.008-.085.162.162 0 0 0-.029-.065c-.013-.019-.03-.032-.052-.042s-.048-.015-.079-.015a.173.173 0 0 0-.155.09h-.002v-.04l-.004-.038H9.85l.004.074v.394h.12v-.212a.24.24 0 0 1 .02-.11.128.128 0 0 1 .04-.043c.017-.011.036-.017.056-.017s.035.004.047.012.02.018.025.033c.006.014.01.03.01.049.002.02.002.04.002.062v.226h.12zm.24-.339c.012-.014.027-.024.044-.032s.037-.012.06-.012a.166.166 0 0 1 .074.015l.009-.093a.404.404 0 0 0-.097-.013.29.29 0 0 0-.098.017.224.224 0 0 0-.135.124.25.25 0 0 0-.02.101c0 .037.006.07.018.1a.216.216 0 0 0 .132.122.303.303 0 0 0 .159.013l.046-.01-.006-.097a.214.214 0 0 1-.08.017.16.16 0 0 1-.063-.012.116.116 0 0 1-.07-.077.2.2 0 0 1 0-.116.117.117 0 0 1 .027-.047zm.276-.349v.688h.122v-.688h-.122zm.365.014h-.122v.116h.122v-.116zm-.122.674h.122v-.468h-.122v.468zm.68 0v-.273a.381.381 0 0 0-.008-.085.162.162 0 0 0-.029-.065c-.013-.019-.03-.032-.052-.042s-.048-.015-.079-.015a.173.173 0 0 0-.155.09h-.002v-.04l-.004-.038h-.115l.003.074.001.07v.324h.12v-.212a.24.24 0 0 1 .02-.11.128.128 0 0 1 .04-.043c.017-.011.036-.017.056-.017s.035.004.047.012.02.018.025.033c.006.014.01.03.01.049.002.02.002.04.002.062v.226h.12zm.35-.29.034.004c0-.037-.009-.064-.026-.08-.018-.016-.046-.024-.084-.024-.025 0-.05.004-.074.012s-.048.018-.069.03l-.004-.094a.396.396 0 0 1 .168-.037.29.29 0 0 1 .093.013.18.18 0 0 1 .063.038.156.156 0 0 1 .035.06.25.25 0 0 1 .011.08V22.198l-.001.031a1.606 1.606 0 0 0 .006.15h-.106a.261.261 0 0 1-.002-.017v-.04l.002-.021h-.002a.181.181 0 0 1-.063.063.19.19 0 0 1-.098.024c-.023 0-.044-.003-.063-.01s-.035-.017-.049-.028a.143.143 0 0 1-.044-.107c0-.05.02-.088.062-.114s.101-.04.179-.04h.032zm.015.072h-.02a.274.274 0 0 0-.11.018.058.058 0 0 0-.038.057c0 .02.006.036.019.047s.03.017.053.017c.016 0 .031-.003.045-.008s.027-.013.038-.024a.117.117 0 0 0 .025-.042.197.197 0 0 0 .009-.063l-.021-.002zm.27-.349v.1h-.092V22h.09v.207c0 .062.011.106.036.135.024.027.062.042.117.042.015 0 .03-.001.044-.003s.027-.005.04-.01l-.004-.093a.136.136 0 0 1-.044.007c-.03 0-.05-.008-.059-.024s-.014-.043-.014-.078V22h.112v-.09h-.112v-.138l-.114.04zm.303.567h.122v-.468h-.122v.468zm.122-.674h-.122v.116h.122v-.116zm.136.04.02.45h.103l.021-.45h-.144zm.008.634h.126v-.122h-.126v.122z"/>
</symbol></svg>
