<svg xmlns="http://www.w3.org/2000/svg" viewBox="0 0 17.766 24" xml:space="preserve"><symbol id="icon">
    <path d="M1.093 19.533h15.584v.078H1.093v-.078zm0 1.708h15.584v-.078H1.093v.078zm0 1.627h15.584v-.078H1.093v.078zM14.146 8.015h-.9v.18h.898-.005c.102.003.189.129.189.274 0 .146-.087.271-.19.274h-.893v.178h.9V8.92c.202-.006.363-.206.363-.453s-.161-.446-.362-.452zm-.369 3.81a2.536 2.536 0 1 1-4.432-1.68L8.015 8.52a.313.313 0 0 1 .246-.505h4.062v.179H8.261a.134.134 0 0 0-.108.213l2.893 3.533.009.012.021.026a.204.204 0 0 0 .35-.138V8.742h.897v.179h-.718v.396a2.536 2.536 0 0 1 2.172 2.509zm-1.484 0c0-.452-.287-.837-.688-.985v.997a.383.383 0 0 1-.657.266l-.002-.003a.387.387 0 0 1-.038-.046l-.593-.725a1.052 1.052 0 1 0 1.979.496zm.247-2.719c0 .198.107.358.238.358.13 0 .237-.16.237-.358v-2.18h-.475v2.18zm1.432-3.91v-.62l-.951 1V3.482h-.475v2.094l-.953-1v.618l1.19 1.19 1.189-1.19zM5.1 5.902a.482.482 0 1 1-.965 0 .482.482 0 0 1 .965 0zm-.24 0a.243.243 0 1 0-.486 0 .243.243 0 0 0 .487 0zm2.575-2.42H3.449v2.18h.485a.726.726 0 0 1 1.369 0h1.456a.725.725 0 0 1 .677-.485V3.483zm.49 2.42a.482.482 0 1 1-.965 0 .482.482 0 0 1 .965 0zm-.24 0a.243.243 0 1 0-.486 0 .243.243 0 0 0 .487 0zm.1-.64V3.99c0-.079.07-.143.154-.143h.625c.354.053.675.562.682 1.07v.78c0 .08-.069.143-.154.143h-.927a.726.726 0 0 0-.38-.575zm.54-.328.742-.002c-.006-.45-.29-.868-.523-.908h-.038c-.182 0-.182 0-.18.184l-.002-.002v.728zM0 3.6h.063v-.22H0v.22zm0-.88h.063V2.5H0v.22zm0-.882h.063v-.22H0v.22zM0 3.16h.063v-.22H0v.22zm0-.881h.063v-.22H0v.22zM.967 24h.22v-.063h-.22V24zm.058-24h-.22v.063h.22V0zm.823 24h.22v-.063h-.22V24zM0 1.398h.063v-.22H0v.22zM1.408 24h.22v-.063h-.22V24zm-.881 0h.22v-.063h-.22V24zM0 .957h.063v-.22H0v.22zM.086 24h.22v-.063h-.22V24zM0 .517h.063v-.22H0v.22zM.144 0H0v.076h.063V.063h.081V0zm.44 0h-.22v.063h.22V0zM0 8.447h.063v-.22H0v.22zm0 .44h.063v-.22H0v.22zm0-.881h.063v-.22H0v.22zm0 1.322h.063v-.22H0v.22zm0 .44h.063v-.22H0v.22zm0 .881h.063v-.22H0v.22zm0-.44h.063v-.22H0v.22zm0-2.644h.063v-.22H0v.22zm0-.44h.063v-.22H0v.22zm0-1.762h.063v-.22H0v.22zm0-.44h.063v-.221H0v.22zm0-.441h.063v-.22H0v.22zm0 1.762h.063v-.22H0v.22zm0-.44h.063v-.221H0v.22zm0 .88h.063v-.22H0v.22zm0-2.643h.063v-.22H0v.22zM3.17 24h.22v-.063h-.22V24zm9.252 0h.22v-.063h-.22V24zm1.321 0h.22v-.063h-.22V24zm-1.762 0h.22v-.063h-.22V24zm1.322 0h.22v-.063h-.22V24zm-.44 0h.22v-.063h-.22V24zm-2.204 0h.22v-.063h-.22V24zm.44 0h.221v-.063h-.22V24zm-.88 0h.22v-.063h-.22V24zm1.322 0h.22v-.063h-.22V24zm6.162-21.97h.063v-.22h-.063v.22zM16.387 24h.22v-.063h-.22V24zm-.441 0h.22v-.063h-.22V24zm-1.762 0h.22v-.063h-.22V24zm3.52-21.529h.062v-.22h-.063v.22zM14.623 24h.22v-.063h-.22V24zm.44 0h.221v-.063h-.22V24zm.441 0h.22v-.063h-.22V24zM0 11.09h.063v-.22H0v.22zM5.813 24h.22v-.063h-.22V24zm-.88 0h.22v-.063h-.22V24zm-.882 0h.22v-.063h-.22V24zm1.322 0h.22v-.063h-.22V24zm-.881 0h.22v-.063h-.22V24zm-1.763 0h.22v-.063h-.22V24zm-.44 0h.22v-.063h-.22V24zm1.322 0h.22v-.063h-.22V24zm3.083 0h.22v-.063h-.22V24zm2.203 0h.22v-.063h-.22V24zm-.44 0h.22v-.063h-.22V24zm-2.203 0h.22v-.063h-.22V24zm1.762 0h.22v-.063h-.22V24zm1.322 0h.22v-.063h-.22V24zm.44 0h.22v-.063h-.22V24zm-2.203 0h.22v-.063h-.22V24zm-.44 0h.22v-.063h-.22V24zM13.36 0h-.22v.063h.22V0zM7.193 0h-.22v.063h.22V0zm2.643 0h-.22v.063h.22V0zM6.312 0h-.22v.063h.22V0zm.44 0h-.22v.063h.22V0zm.882 0h-.22v.063h.22V0zm1.762 0h-.22v.063h.22V0zm-.881 0h-.22v.063h.22V0zm.44 0h-.22v.063h.22V0zm-.88 0h-.221v.063h.22V0zM3.227 0h-.22v.063h.22V0zm-.881 0h-.22v.063h.22V0zm.44 0h-.22v.063h.22V0zM4.11 0h-.22v.063h.22V0zm1.322 0h-.22v.063h.22V0zm.44 0h-.22v.063h.22V0zm-.88 0H4.77v.063h.22V0zM4.55 0h-.22v.063h.22V0zm-.881 0h-.22v.063h.22V0zm11.013 0h-.22v.063h.22V0zm.441 0h-.22v.063h.22V0zm.44 0h-.22v.063h.22V0zm-1.321 0h-.22v.063h.22V0zm2.643 0h-.22v.063h.22V0zm-3.084 0h-.22v.063h.22V0zm2.644 0h-.22v.063h.22V0zm-6.168 0h-.22v.063h.22V0zm5.727 0h-.22v.063h.22V0zm-4.846 0h-.22v.063h.22V0zm6.545 2.912h.063v-.22h-.063v.22zM10.717 0h-.22v.063h.22V0zm.882 0h-.22v.063h.22V0zm1.321 0h-.22v.063h.22V0zm-.44 0h-.22v.063h.22V0zm-.44 0h-.221v.063h.22V0zm5.663 1.15h.063V.93h-.063v.22zM0 16.375h.063v-.22H0v.22zm0 .441h.063v-.22H0v.22zm0 .44h.063v-.22H0v.22zm0-1.321h.063v-.22H0v.22zm0-.44h.063v-.22H0v.22zm0 3.083h.063v-.22H0v.22zm0-.88h.063v-.221H0v.22zm0 .44h.063v-.22H0v.22zm0-5.728h.063v-.22H0v.22zm0 6.609h.063v-.22H0v.22zm0-3.965h.063v-.22H0v.22zm0-3.084h.063v-.22H0v.22zm0 1.322h.063v-.22H0v.22zm0-.44h.063v-.221H0v.22zm0 1.761h.063v-.22H0v.22zm0-.44h.063v-.22H0v.22zM1.906 0h-.22v.063h.22V0zM0 13.733h.063v-.22H0v.22zm0 10.133h.063v-.22H0v.22zM0 11.53h.063v-.22H0v.22zm17.703-9.94h.063v-.22h-.063v.22zM0 22.985h.063v-.22H0v.22zm0-3.525h.063v-.22H0v.22zM17.703.71h.063v-.22h-.063v.22zM1.466 0h-.22v.063h.22V0zm16.08 0v.063h.157v.205h.063V0h-.22zM0 23.425h.063v-.22H0v.22zm0-3.084h.063v-.22H0v.22zm0 .441h.063v-.22H0v.22zm0-.881h.063v-.22H0v.22zm0 2.643h.063v-.22H0v.22zm0-.44h.063v-.22H0v.22zm0-.882h.063v-.22H0v.22zm0 .441h.063v-.22H0v.22zm17.703-5.535h.063v-.22h-.063v.22zm0-7.49h.063v-.22h-.063v.22zm0-.44h.063v-.22h-.063v.22zm0-.44h.063v-.22h-.063v.22zm0 1.321h.063v-.22h-.063v.22zm0 .44h.063V9.3h-.063v.22zm0 .882h.063v-.22h-.063v.22zm0 .44h.063v-.22h-.063v.22zm0-.88h.063v-.22h-.063v.22zm0 8.37h.063v-.22h-.063v.22zm0-12.336h.063v-.22h-.063v.22zm0 11.895h.063v-.22h-.063v.22zm0-11.013h.063v-.22h-.063v.22zm0 .44h.063v-.22h-.063v.22zm0 10.133h.063v-.22h-.063v.22zm0-11.014h.063v-.22h-.063v.22zm0 7.49h.063v-.22h-.063v.22zm0 1.321h.063v-.22h-.063v.22zm0-.44h.063v-.22h-.063v.22zm0 .88h.063v-.22h-.063v.22zm0 1.322h.063v-.22h-.063v.22zm0-2.643h.063v-.22h-.063v.22zm0 2.203h.063v-.22h-.063v.22zm0 3.524h.063v-.22h-.063v.22zm0-8.37h.063v-.22h-.063v.22zm0 .44h.063v-.22h-.063v.22zm0 6.608h.063v-.22h-.063v.22zm0-7.489h.063v-.22h-.063v.22zm0 1.322h.063v-.22h-.063v.22zm0 .88h.063v-.22h-.063v.22zm0-.44h.063v-.22h-.063v.22zm0-7.93h.063v-.22h-.063v.22zm0-1.321h.063v-.22h-.063v.22zm0 15.419h.063v-.22h-.063v.22zm0 4.405h.063v-.22h-.063v.22zm0 .383h.063v-.162h-.063V24zm0-3.466h.063v-.22h-.063v.22zm0 .88h.063v-.22h-.063v.22zm0 .441h.063v-.22h-.063v.22zm0-17.622h.063v-.22h-.063v.22zm0 16.741h.063v-.22h-.063v.22zm0 1.322h.063v-.22h-.063v.22zM17.268 24h.22v-.063h-.22V24zm.435-1.264h.063v-.22h-.063v.22zM17.326 0h-.22v.063h.22V0zm.377 19.652h.063v-.22h-.063v.22zM16.827 24h.22v-.063h-.22V24zm.876-19.326h.063v-.22h-.063v.22zm0-1.322h.063v-.22h-.063v.22zm0 19.825h.063v-.22h-.063v.22zm0-17.622h.063v-.22h-.063v.22zM1.093 1.128h15.584v15.584H1.093V1.128zm.543 15.04h14.498V1.672H1.636v14.498zm-.431 2.897h-.129v-.634h.184a.7.7 0 0 1 .106.007c.032.005.06.013.083.026.022.013.04.03.052.05a.166.166 0 0 1 .019.084.141.141 0 0 1-.035.1.18.18 0 0 1-.098.05v.001c.011.003.02.007.029.012s.015.01.022.017a.141.141 0 0 1 .016.024c.004.01.01.02.014.032l.098.231h-.14l-.072-.18c-.006-.016-.012-.03-.018-.04s-.012-.02-.02-.027a.074.074 0 0 0-.03-.012.212.212 0 0 0-.048-.004h-.033v.263zm0-.362h.037a.241.241 0 0 0 .111-.02c.023-.013.035-.037.035-.069a.086.086 0 0 0-.01-.042.07.07 0 0 0-.028-.025c-.013-.007-.028-.01-.046-.013s-.04-.003-.062-.003h-.037v.172zm.75-.306H1.85v.107h.105v-.107zm-.188 0h-.105v.107h.105v-.107zm.085.38c.011 0 .023 0 .034.002 0-.037-.009-.063-.027-.079-.017-.016-.045-.024-.084-.024-.025 0-.049.004-.074.012s-.048.017-.068.029l-.005-.094a.396.396 0 0 1 .168-.037.29.29 0 0 1 .094.014.18.18 0 0 1 .063.038.156.156 0 0 1 .035.06.25.25 0 0 1 .011.08v.069l-.001.038v.031a1.606 1.606 0 0 0 .006.15h-.107a.261.261 0 0 1-.001-.017v-.04l.001-.022h-.001a.181.181 0 0 1-.063.064.19.19 0 0 1-.098.023c-.024 0-.045-.003-.064-.01s-.035-.016-.048-.028a.143.143 0 0 1-.044-.107c0-.05.02-.087.062-.114s.1-.039.178-.039h.033zm.014.07h-.019a.274.274 0 0 0-.11.018.058.058 0 0 0-.039.058c0 .02.007.036.02.047s.03.016.053.016c.016 0 .03-.003.045-.007s.027-.013.038-.025a.117.117 0 0 0 .024-.042.197.197 0 0 0 .01-.062l-.022-.002zm.557-.177h.002a1.04 1.04 0 0 1-.003-.06v-.232h.12v.548l.001.074c0 .024.002.046.003.065h-.11a.406.406 0 0 1-.002-.037v-.045H2.43c-.017.03-.038.054-.063.07s-.057.023-.093.023a.194.194 0 0 1-.085-.017c-.024-.011-.046-.028-.064-.05s-.03-.047-.04-.076a.34.34 0 0 1 0-.2c.01-.03.024-.056.042-.078a.182.182 0 0 1 .148-.07.16.16 0 0 1 .147.085zm0 .163a.226.226 0 0 0-.007-.062.161.161 0 0 0-.023-.048.12.12 0 0 0-.038-.032.098.098 0 0 0-.047-.011c-.017 0-.033.004-.046.011s-.026.019-.035.032a.172.172 0 0 0-.022.048.233.233 0 0 0 0 .122.155.155 0 0 0 .023.047.12.12 0 0 0 .035.032.107.107 0 0 0 .093 0 .119.119 0 0 0 .037-.032c.01-.013.017-.029.023-.047s.008-.04.008-.06zm.642.032h-.313a.11.11 0 0 0 .041.087c.026.02.061.031.103.031a.255.255 0 0 0 .137-.038l.002.1a.373.373 0 0 1-.258.015.208.208 0 0 1-.131-.126.28.28 0 0 1-.019-.105c0-.035.006-.067.017-.098a.227.227 0 0 1 .122-.127.251.251 0 0 1 .096-.018c.068 0 .119.02.154.061.034.041.051.104.051.189v.016l-.002.013zm-.11-.083c0-.039-.008-.066-.026-.084a.1.1 0 0 0-.072-.025.103.103 0 0 0-.07.027c-.022.018-.034.045-.037.082h.206zm.317.283v-.191c0-.123.041-.185.123-.185.015 0 .029.003.042.007l.002-.104c-.006-.003-.013-.004-.02-.005l-.02-.001c-.033 0-.061.01-.083.027s-.04.042-.051.074h-.002v-.022a.401.401 0 0 0-.003-.048v-.02h-.115a.806.806 0 0 1 .003.066v.403h.124zm.55-.456-.002.06h.002a.183.183 0 0 1 .066-.062.195.195 0 0 1 .172-.003c.024.012.044.029.061.05s.03.047.039.076a.32.32 0 0 1 .013.097.33.33 0 0 1-.014.1.228.228 0 0 1-.04.079.183.183 0 0 1-.15.07.181.181 0 0 1-.091-.022.18.18 0 0 1-.062-.064h-.002v.041a.28.28 0 0 1-.003.034h-.113A.815.815 0 0 0 3.702 19v-.622h.12v.232zm.001.223c0 .022.003.042.009.06a.146.146 0 0 0 .023.047c.01.013.022.024.036.032a.11.11 0 0 0 .048.01.092.092 0 0 0 .082-.042.187.187 0 0 0 .029-.108.19.19 0 0 0-.028-.108.091.091 0 0 0-.082-.042c-.018 0-.034.004-.048.011s-.026.018-.037.032a.156.156 0 0 0-.023.047.213.213 0 0 0-.009.061zm.842.033h-.313a.11.11 0 0 0 .04.087c.027.02.062.031.104.031a.255.255 0 0 0 .136-.038l.002.1a.373.373 0 0 1-.257.015.208.208 0 0 1-.132-.126.28.28 0 0 1-.018-.105c0-.035.005-.067.017-.098a.227.227 0 0 1 .122-.127.251.251 0 0 1 .095-.018c.068 0 .12.02.154.061.034.041.052.104.052.189v.016l-.002.013zm-.11-.083c0-.039-.009-.066-.026-.084a.1.1 0 0 0-.072-.025.103.103 0 0 0-.071.027c-.021.018-.033.045-.036.082h.205zm.321-.39h-.122v.116h.122v-.116zm-.122.673h.122v-.467h-.122v.467zm.703 0v-.53l.177.003v-.107h-.48v.107l.173-.003v.53h.13zm.446-.48c-.033 0-.061.01-.083.028s-.04.042-.051.074h-.002v-.022a.401.401 0 0 0-.003-.048v-.02h-.116a.806.806 0 0 1 .004.066v.403h.124v-.192c0-.123.041-.185.122-.185.016 0 .03.003.042.007l.003-.104c-.006-.003-.013-.004-.02-.005l-.02-.001zm.313.191c.012.001.023.001.034.003 0-.037-.008-.063-.026-.079-.017-.016-.045-.024-.084-.024-.025 0-.05.004-.074.012s-.048.017-.068.029l-.005-.094a.396.396 0 0 1 .168-.037.29.29 0 0 1 .093.014.18.18 0 0 1 .063.038.156.156 0 0 1 .036.06.25.25 0 0 1 .01.08v.138a1.606 1.606 0 0 0 .006.15h-.107a.261.261 0 0 1-.001-.017v-.04l.001-.022H6.26a.181.181 0 0 1-.062.064.19.19 0 0 1-.098.023c-.024 0-.045-.003-.064-.01s-.035-.016-.049-.028a.143.143 0 0 1-.044-.107c0-.05.02-.087.062-.114s.101-.039.18-.039h.031zm.015.072h-.02a.274.274 0 0 0-.11.017.058.058 0 0 0-.038.058c0 .02.006.036.019.047s.03.016.054.016c.015 0 .03-.003.045-.007s.027-.013.037-.025a.117.117 0 0 0 .025-.042.197.197 0 0 0 .009-.062l-.021-.002zm.676.217v-.272a.381.381 0 0 0-.01-.086.162.162 0 0 0-.027-.064c-.014-.019-.031-.033-.053-.042s-.047-.015-.078-.015a.173.173 0 0 0-.156.09h-.001l-.001-.041-.003-.037h-.116l.004.074v.393h.12v-.211a.24.24 0 0 1 .02-.11.128.128 0 0 1 .041-.044c.017-.01.035-.016.055-.016s.036.003.047.011.02.019.025.034c.006.013.01.03.011.048l.002.063v.225h.12zm.272-.392c.035 0 .072.009.112.026l.01-.09a.334.334 0 0 0-.204-.012.156.156 0 0 0-.058.028.127.127 0 0 0-.051.104c0 .036.01.063.028.084s.051.038.096.052l.046.018a.14.14 0 0 1 .028.016c.006.005.011.011.014.017a.053.053 0 0 1 .004.021.04.04 0 0 1-.023.038.104.104 0 0 1-.054.012.297.297 0 0 1-.131-.032l-.007.097a.37.37 0 0 0 .145.024.284.284 0 0 0 .078-.01.144.144 0 0 0 .1-.075.136.136 0 0 0 .014-.064.14.14 0 0 0-.01-.052.127.127 0 0 0-.067-.066.439.439 0 0 0-.056-.023l-.041-.015c-.011-.004-.02-.008-.027-.013s-.01-.01-.013-.016a.045.045 0 0 1-.005-.02c0-.016.007-.028.02-.036a.092.092 0 0 1 .052-.013zm.347.32h-.002l.001.02.001.033v.211h-.121v-.518l-.001-.075a.808.808 0 0 0-.004-.066h.117a.298.298 0 0 1 .003.035v.04h.002c.02-.03.042-.05.067-.066a.186.186 0 0 1 .091-.021c.03 0 .058.006.083.018s.045.027.062.048a.22.22 0 0 1 .04.076c.008.029.012.062.012.098a.348.348 0 0 1-.013.102c-.01.03-.023.056-.04.079a.176.176 0 0 1-.148.07.16.16 0 0 1-.09-.023.18.18 0 0 1-.06-.062zm0-.161c0 .022.003.042.009.06a.156.156 0 0 0 .023.047c.01.014.022.025.036.033a.111.111 0 0 0 .095 0c.014-.008.025-.019.035-.033s.016-.029.021-.047.007-.04.007-.062c0-.046-.01-.082-.028-.108s-.046-.04-.08-.04a.104.104 0 0 0-.084.043.163.163 0 0 0-.033.107zm.474.177a.237.237 0 0 1-.05-.077.264.264 0 0 1-.019-.1c0-.038.006-.071.018-.103A.221.221 0 0 1 8 18.652c.022-.02.048-.037.079-.048s.065-.018.102-.018a.248.248 0 0 1 .175.067.231.231 0 0 1 .05.078.28.28 0 0 1 .018.102c0 .036-.006.07-.018.1-.012.029-.029.055-.05.077s-.048.038-.079.049a.274.274 0 0 1-.1.017c-.036 0-.07-.006-.1-.017s-.056-.029-.077-.05zm.061-.176c0 .046.01.082.031.11s.05.04.084.04c.037 0 .066-.013.087-.04s.032-.066.032-.115-.01-.086-.03-.112-.05-.04-.088-.04c-.036 0-.065.013-.085.04s-.031.066-.031.117zm.715-.246-.02-.001c-.034 0-.062.01-.084.027s-.04.042-.05.074h-.003v-.022a.401.401 0 0 0-.002-.048l-.001-.02H8.5a.806.806 0 0 1 .003.066l.001.073v.33h.124v-.192c0-.123.04-.185.122-.185.015 0 .03.003.042.007v-.009h.087v.208c0 .061.012.106.037.134.023.028.062.042.116.042.016 0 .031 0 .045-.003s.027-.005.039-.01l-.003-.092a.136.136 0 0 1-.045.007c-.03 0-.049-.008-.058-.025s-.014-.043-.014-.078v-.183h.111v-.09h-.111v-.137l-.115.039v.099h-.087v-.006c-.006-.003-.013-.004-.02-.005zm.736.022-.002.06h.002a.183.183 0 0 1 .066-.062.195.195 0 0 1 .172-.003c.024.012.044.029.061.05s.03.047.039.076a.32.32 0 0 1 .013.097.33.33 0 0 1-.014.1.228.228 0 0 1-.04.079.183.183 0 0 1-.15.07.181.181 0 0 1-.091-.022.18.18 0 0 1-.062-.064h-.002v.041a.28.28 0 0 1-.004.034h-.112A.815.815 0 0 0 9.392 19v-.622h.12v.232zm.001.223c0 .022.003.042.008.06a.146.146 0 0 0 .024.047c.01.013.022.024.036.032a.11.11 0 0 0 .048.01.092.092 0 0 0 .081-.042.187.187 0 0 0 .03-.108.19.19 0 0 0-.028-.108.091.091 0 0 0-.082-.042c-.018 0-.034.004-.048.011s-.026.018-.037.032a.156.156 0 0 0-.024.047.213.213 0 0 0-.008.061zm.439-.454v.687h.122v-.687h-.122zm.277.63a.237.237 0 0 1-.05-.076.264.264 0 0 1-.018-.1c0-.038.006-.071.018-.103a.221.221 0 0 1 .051-.077c.022-.02.048-.037.079-.048s.065-.018.102-.018a.248.248 0 0 1 .175.067.231.231 0 0 1 .05.078.28.28 0 0 1 .018.102c0 .036-.006.07-.018.1-.012.029-.029.055-.05.077s-.048.038-.079.049a.274.274 0 0 1-.1.017c-.036 0-.07-.006-.1-.017s-.056-.029-.078-.05zm.062-.175c0 .046.01.082.031.11s.05.04.084.04c.037 0 .066-.013.087-.04s.032-.066.032-.115-.01-.086-.03-.112-.05-.04-.088-.04c-.036 0-.065.013-.085.04s-.031.066-.031.117zm.574-.106c.012-.014.027-.025.044-.033s.037-.011.06-.011a.166.166 0 0 1 .074.014l.009-.093-.045-.01c-.015-.002-.033-.002-.052-.002a.29.29 0 0 0-.098.016.224.224 0 0 0-.135.124.25.25 0 0 0-.02.102c0 .036.006.07.018.099a.216.216 0 0 0 .132.122.303.303 0 0 0 .159.013l.046-.01-.006-.096a.214.214 0 0 1-.08.017.16.16 0 0 1-.063-.012.116.116 0 0 1-.07-.077.2.2 0 0 1 0-.117.117.117 0 0 1 .027-.046zm.274-.35v.688h.124v-.238h.002a.906.906 0 0 1 .018.027l.02.03.022.031c.007.01.013.02.02.027l.09.123h.152l-.21-.26.19-.207h-.14l-.08.092a2.79 2.79 0 0 1-.022.026l-.022.028-.021.028-.017.023h-.002v-.417h-.124zm.622.015h-.122v.116h.122v-.116zm-.122.673h.122v-.467h-.122v.467zm.648-.2h-.314a.11.11 0 0 0 .041.087c.027.02.061.031.104.031a.255.255 0 0 0 .136-.038l.002.1a.373.373 0 0 1-.257.015.208.208 0 0 1-.132-.126.28.28 0 0 1-.018-.105c0-.035.005-.067.016-.098a.227.227 0 0 1 .122-.127.251.251 0 0 1 .096-.018c.068 0 .12.02.154.061.034.041.052.104.052.189v.016l-.002.013zm-.11-.083c0-.039-.009-.066-.027-.084a.1.1 0 0 0-.071-.025.103.103 0 0 0-.072.027c-.02.018-.033.045-.036.082h.206zm.317.283v-.191c0-.123.04-.185.122-.185.015 0 .029.003.042.007l.002-.104c-.006-.003-.013-.004-.02-.005l-.02-.001c-.033 0-.06.01-.083.027s-.04.042-.051.074h-.002v-.022a.401.401 0 0 0-.003-.048v-.02h-.115a.806.806 0 0 1 .003.066l.001.073v.33h.124zm.614-.2h-.314a.11.11 0 0 0 .041.087c.027.02.061.031.104.031a.261.261 0 0 0 .136-.038l.002.1a.362.362 0 0 1-.257.015.208.208 0 0 1-.132-.126.28.28 0 0 1-.018-.105c0-.035.005-.067.017-.098a.227.227 0 0 1 .122-.127.251.251 0 0 1 .095-.018c.068 0 .12.02.154.061.035.041.052.104.052.189v.016c-.002.005-.002.01-.002.013zm-.11-.083c0-.039-.009-.066-.026-.084a.1.1 0 0 0-.072-.025.103.103 0 0 0-.071.027c-.021.018-.034.045-.037.082h.206zm.636.283v-.272c0-.032-.003-.06-.009-.086s-.016-.047-.03-.064c-.012-.019-.03-.033-.051-.042a.202.202 0 0 0-.169.008.186.186 0 0 0-.065.067h-.002l-.001-.041a.37.37 0 0 0-.002-.037h-.117a1.992 1.992 0 0 1 .005.144v.323h.12v-.211c0-.047.007-.083.02-.11a.133.133 0 0 1 .04-.044.106.106 0 0 1 .056-.016.08.08 0 0 1 .047.011c.011.008.02.019.025.034.006.013.01.03.01.048.002.02.003.04.003.063v.225h.12zm.137 0h.126v-.122h-.126v.122zm-.006-.634.02.45h.1l.023-.45h-.143zM1.273 20.715h-.197v-.635h.195c.035 0 .067.003.096.009.03.007.054.015.075.03.02.012.037.028.048.049a.158.158 0 0 1 .016.075c0 .036-.01.068-.032.093a.17.17 0 0 1-.1.053v.002a.18.18 0 0 1 .11.047.14.14 0 0 1 .039.103c0 .033-.007.06-.022.083s-.033.04-.056.054a.276.276 0 0 1-.08.028.477.477 0 0 1-.092.009zm-.073-.367h.034a.56.56 0 0 0 .06-.003.176.176 0 0 0 .046-.013c.013-.007.023-.016.03-.027s.01-.027.01-.045a.079.079 0 0 0-.01-.042.08.08 0 0 0-.029-.027.139.139 0 0 0-.043-.012.297.297 0 0 0-.051-.004H1.2v.173zm.042.271c.052 0 .09-.007.115-.021.025-.014.038-.038.038-.072 0-.032-.013-.055-.039-.069s-.066-.02-.12-.02H1.2v.182h.042zm.38-.592v.688h.121v-.688h-.122zm.277.631a.237.237 0 0 1-.05-.077.264.264 0 0 1-.018-.1c0-.038.005-.07.018-.102a.221.221 0 0 1 .05-.077c.022-.02.048-.037.079-.05s.065-.017.103-.017a.248.248 0 0 1 .174.068.231.231 0 0 1 .05.078.28.28 0 0 1 .018.101.23.23 0 0 1-.068.177.212.212 0 0 1-.078.049.274.274 0 0 1-.1.018c-.036 0-.07-.006-.1-.018s-.057-.028-.078-.05zm.061-.176c0 .046.01.082.032.11s.049.04.084.04c.036 0 .065-.013.087-.04s.032-.066.032-.114-.01-.086-.031-.113-.05-.039-.087-.039c-.036 0-.065.013-.086.04s-.03.066-.03.116zm.77.181.002-.022h-.003a.162.162 0 0 1-.149.084.201.201 0 0 1-.085-.018.174.174 0 0 1-.064-.05.233.233 0 0 1-.04-.08.35.35 0 0 1 0-.201.186.186 0 0 1 .104-.123.194.194 0 0 1 .084-.018c.036 0 .067.008.09.023s.046.036.063.064h.001c0-.01 0-.022.002-.036l.004-.039h.114a.34.34 0 0 0-.002.034v.625h-.123v-.177a.787.787 0 0 1 .002-.066zm-.002-.18a.215.215 0 0 0-.009-.062.123.123 0 0 0-.062-.08.106.106 0 0 0-.094-.001.103.103 0 0 0-.033.031.148.148 0 0 0-.021.047.219.219 0 0 0-.008.059c0 .045.01.082.03.11s.047.042.082.042a.104.104 0 0 0 .084-.041.145.145 0 0 0 .023-.046.21.21 0 0 0 .008-.059zm.231-.236v.297c0 .027.004.052.012.074a.16.16 0 0 0 .033.058.136.136 0 0 0 .052.037c.02.009.043.013.068.013a.18.18 0 0 0 .1-.026.212.212 0 0 0 .06-.062h.003a.589.589 0 0 0 .003.077h.114a.629.629 0 0 1-.005-.066v-.402h-.12v.233c0 .02-.003.04-.008.057s-.012.033-.022.046c-.01.014-.021.023-.035.031s-.029.012-.047.012-.032-.004-.043-.01a.075.075 0 0 1-.027-.028c-.007-.012-.012-.026-.014-.043s-.004-.035-.004-.056v-.242h-.12zm.962.268h-.314a.11.11 0 0 0 .041.087c.027.02.061.03.104.03a.255.255 0 0 0 .136-.037l.002.1a.373.373 0 0 1-.257.014.208.208 0 0 1-.132-.126.28.28 0 0 1-.018-.104c0-.036.005-.068.017-.098a.227.227 0 0 1 .122-.127.251.251 0 0 1 .095-.019c.068 0 .12.02.154.062.034.04.052.103.052.188v.016l-.002.014zm-.11-.083c0-.04-.009-.067-.026-.084a.1.1 0 0 0-.072-.026.103.103 0 0 0-.071.028c-.021.017-.034.045-.037.082h.206zm.317.283v-.192c0-.123.04-.184.122-.184.015 0 .03.003.042.007l.002-.105c-.006-.003-.013-.004-.02-.005h-.02c-.033 0-.06.01-.083.027s-.04.042-.05.073h-.003v-.022a.401.401 0 0 0-.002-.047l-.001-.02H4a.806.806 0 0 1 .003.066l.001.073v.329h.124zm.431-.688v.688h.122v-.688H4.56zm.648.488h-.314a.11.11 0 0 0 .041.087c.026.02.061.03.104.03a.255.255 0 0 0 .136-.037l.002.1a.373.373 0 0 1-.258.014.208.208 0 0 1-.131-.126.28.28 0 0 1-.018-.104c0-.036.005-.068.016-.098a.227.227 0 0 1 .122-.127.251.251 0 0 1 .096-.019c.068 0 .12.02.154.062.034.04.051.103.051.188v.016l-.001.014zm-.11-.083c0-.04-.01-.067-.027-.084A.1.1 0 0 0 5 20.322a.103.103 0 0 0-.072.028c-.02.017-.033.045-.036.082h.206zm.355-.11c.036 0 .073.01.112.027l.01-.091a.334.334 0 0 0-.203-.012.156.156 0 0 0-.059.028.127.127 0 0 0-.05.105c0 .035.009.062.028.083s.05.038.096.053l.046.017a.14.14 0 0 1 .027.017c.007.005.012.01.014.016a.053.053 0 0 1 .005.022.04.04 0 0 1-.023.037.104.104 0 0 1-.054.013.297.297 0 0 1-.132-.033l-.006.097a.37.37 0 0 0 .144.025.284.284 0 0 0 .079-.01c.023-.006.043-.016.06-.029a.133.133 0 0 0 .053-.11.14.14 0 0 0-.009-.053.127.127 0 0 0-.068-.066.439.439 0 0 0-.056-.022l-.04-.015c-.012-.005-.02-.009-.027-.014s-.011-.01-.014-.015a.045.045 0 0 1-.004-.02c0-.017.007-.028.02-.037a.092.092 0 0 1 .051-.013zm.559.393v-.192c0-.123.04-.184.122-.184.015 0 .03.003.042.007l.002-.105c-.006-.003-.013-.004-.02-.005h-.02c-.033 0-.06.01-.083.027s-.04.042-.051.073H6v-.022a.402.402 0 0 0-.002-.047l-.001-.02h-.115a.806.806 0 0 1 .003.066l.001.073v.329h.124zm.24-.057a.237.237 0 0 1-.05-.077.264.264 0 0 1-.018-.1c0-.038.005-.07.018-.102a.221.221 0 0 1 .05-.077.265.265 0 0 1 .181-.066.248.248 0 0 1 .175.067.231.231 0 0 1 .05.078.28.28 0 0 1 .018.101.23.23 0 0 1-.068.177.212.212 0 0 1-.078.049.274.274 0 0 1-.1.018c-.036 0-.07-.006-.1-.018s-.057-.028-.078-.05zm.061-.176c0 .046.01.082.032.11s.049.04.084.04c.036 0 .065-.013.087-.04s.032-.066.032-.114-.01-.086-.031-.113-.05-.039-.087-.039c-.036 0-.065.013-.086.04s-.03.066-.03.116zm.444-.235v.297c0 .027.004.052.012.074a.16.16 0 0 0 .033.058.136.136 0 0 0 .052.037c.02.009.043.013.067.013a.18.18 0 0 0 .1-.026.212.212 0 0 0 .062-.062h.001a.589.589 0 0 0 .004.077H7.2a.629.629 0 0 1-.005-.066v-.402h-.12v.233c0 .02-.003.04-.008.057s-.012.033-.022.046c-.01.014-.021.023-.035.031s-.03.012-.047.012-.032-.004-.044-.01a.075.075 0 0 1-.026-.028c-.007-.012-.012-.026-.014-.043s-.004-.035-.004-.056v-.242h-.12zm.962.268h-.314a.11.11 0 0 0 .041.087c.027.02.061.03.104.03a.255.255 0 0 0 .136-.037l.002.1a.373.373 0 0 1-.257.014.208.208 0 0 1-.132-.126.28.28 0 0 1-.018-.104c0-.036.005-.068.016-.098a.227.227 0 0 1 .122-.127.251.251 0 0 1 .096-.019c.068 0 .12.02.154.062.034.04.052.103.052.188v.016l-.002.014zm-.11-.083c0-.04-.009-.067-.026-.084a.1.1 0 0 0-.072-.026.103.103 0 0 0-.072.028c-.02.017-.033.045-.036.082h.206zm.355-.11c.036 0 .073.01.112.027l.01-.091a.334.334 0 0 0-.204-.012.156.156 0 0 0-.058.028.127.127 0 0 0-.051.105c0 .035.01.062.028.083s.052.038.096.053l.046.017a.14.14 0 0 1 .028.017c.007.005.011.01.014.016a.053.053 0 0 1 .004.022.04.04 0 0 1-.023.037.104.104 0 0 1-.053.013.297.297 0 0 1-.132-.033l-.007.097a.37.37 0 0 0 .145.025.284.284 0 0 0 .079-.01c.023-.006.043-.016.06-.029a.133.133 0 0 0 .053-.11.14.14 0 0 0-.009-.053.127.127 0 0 0-.068-.066.439.439 0 0 0-.056-.022l-.041-.015c-.011-.005-.02-.009-.026-.014s-.012-.01-.014-.015a.045.045 0 0 1-.004-.02c0-.017.006-.028.02-.037a.092.092 0 0 1 .05-.013zm.44-.295v.688h.122v-.688h-.122zm.278.631a.237.237 0 0 1-.05-.077.264.264 0 0 1-.018-.1c0-.038.006-.07.018-.102a.221.221 0 0 1 .05-.077.265.265 0 0 1 .181-.066.248.248 0 0 1 .176.067.231.231 0 0 1 .05.078.28.28 0 0 1 .017.101.23.23 0 0 1-.068.177.212.212 0 0 1-.078.049.274.274 0 0 1-.1.018c-.036 0-.07-.006-.1-.018s-.056-.028-.078-.05zm.062-.176c0 .046.01.082.03.11s.05.04.085.04c.037 0 .065-.013.087-.04s.032-.066.032-.114-.01-.086-.031-.113-.05-.039-.087-.039c-.036 0-.065.013-.086.04s-.03.066-.03.116zm.567.233v-.192c0-.123.041-.184.122-.184.015 0 .03.003.042.007l.003-.105c-.007-.003-.014-.004-.02-.005h-.02c-.034 0-.062.01-.083.027s-.04.042-.052.073H9.3v-.022a.401.401 0 0 0-.002-.047l-.001-.02h-.115a.806.806 0 0 1 .004.066v.402h.124zm.379-.393c.036 0 .073.01.112.027l.01-.091a.334.334 0 0 0-.204-.012.156.156 0 0 0-.058.028.127.127 0 0 0-.051.105c0 .035.01.062.028.083s.052.038.097.053l.045.017a.14.14 0 0 1 .028.017c.007.005.012.01.014.016a.053.053 0 0 1 .004.022.04.04 0 0 1-.023.037.104.104 0 0 1-.053.013.297.297 0 0 1-.132-.033l-.006.097a.37.37 0 0 0 .144.025.284.284 0 0 0 .079-.01c.023-.006.043-.016.06-.029a.133.133 0 0 0 .053-.11.14.14 0 0 0-.009-.053.127.127 0 0 0-.068-.066.439.439 0 0 0-.056-.022l-.04-.015c-.012-.005-.02-.009-.027-.014s-.011-.01-.014-.015a.045.045 0 0 1-.004-.02c0-.017.007-.028.02-.037a.092.092 0 0 1 .051-.013zm.758-.003h.002a1.04 1.04 0 0 1-.002-.06v-.232h.12v.622c0 .025.002.046.004.066h-.111a.406.406 0 0 1-.002-.037v-.045h-.002c-.018.03-.039.054-.064.07s-.057.023-.093.023a.194.194 0 0 1-.084-.018c-.025-.01-.047-.027-.064-.049s-.03-.048-.04-.077a.34.34 0 0 1 0-.2c.01-.03.023-.056.041-.077s.04-.04.064-.051.053-.019.084-.019a.16.16 0 0 1 .147.084zm.001.163a.226.226 0 0 0-.008-.061.161.161 0 0 0-.023-.049.12.12 0 0 0-.037-.031.098.098 0 0 0-.048-.012c-.017 0-.032.004-.046.012s-.025.018-.035.031a.172.172 0 0 0-.022.049.233.233 0 0 0 0 .121.155.155 0 0 0 .023.048.12.12 0 0 0 .035.031.107.107 0 0 0 .093 0 .119.119 0 0 0 .037-.031c.01-.014.018-.03.023-.048s.008-.04.008-.06zm.232-.235v.297c0 .027.004.052.012.074a.16.16 0 0 0 .033.058.136.136 0 0 0 .052.037c.02.009.042.013.067.013a.18.18 0 0 0 .1-.026.212.212 0 0 0 .061-.062h.002a.589.589 0 0 0 .004.077h.114a.629.629 0 0 1-.005-.066v-.402H11v.233c0 .02-.002.04-.007.057s-.013.033-.022.046c-.01.014-.021.023-.035.031s-.03.012-.047.012-.032-.004-.044-.01a.075.075 0 0 1-.027-.028c-.006-.012-.01-.026-.013-.043s-.004-.035-.004-.056v-.242h-.12zm.799-.099v.1h-.092v.089h.09v.207c0 .061.011.106.036.135.024.027.062.042.116.042.016 0 .031-.001.045-.003s.027-.005.039-.01l-.003-.093a.136.136 0 0 1-.044.007c-.03 0-.05-.008-.06-.024s-.013-.043-.013-.078v-.183h.112v-.09h-.112v-.138l-.114.04zm.547.087c-.033 0-.06.01-.083.028s-.04.042-.05.073h-.003v-.022a.401.401 0 0 0-.002-.047l-.001-.02h-.115a.806.806 0 0 1 .003.066l.001.073v.329h.124v-.192c0-.123.04-.184.122-.184.015 0 .03.003.042.007l.002-.105c-.006-.003-.013-.004-.02-.005h-.02zm.313.19.035.004c0-.037-.01-.064-.027-.08s-.045-.024-.084-.024c-.025 0-.05.004-.074.012s-.048.017-.068.03l-.005-.095a.396.396 0 0 1 .168-.037.29.29 0 0 1 .093.014.18.18 0 0 1 .063.038.156.156 0 0 1 .036.06.25.25 0 0 1 .01.08v.138a1.606 1.606 0 0 0 .006.15h-.107a.261.261 0 0 1-.001-.017v-.04l.001-.021h-.002a.181.181 0 0 1-.062.063.19.19 0 0 1-.098.024c-.024 0-.045-.003-.064-.01s-.035-.017-.049-.028a.143.143 0 0 1-.044-.107c0-.05.02-.088.062-.114s.101-.04.18-.04h.031zm.015.072h-.019a.274.274 0 0 0-.11.018.058.058 0 0 0-.039.057c0 .02.006.036.02.047s.03.017.053.017c.015 0 .03-.003.045-.008s.027-.013.037-.024a.117.117 0 0 0 .025-.042.197.197 0 0 0 .009-.063l-.021-.002zm.677.218v-.273c0-.032-.003-.06-.009-.086s-.015-.046-.028-.064c-.014-.019-.031-.032-.053-.042s-.047-.015-.078-.015a.173.173 0 0 0-.156.09h-.001l-.001-.04-.003-.038h-.116l.004.074v.394h.12v-.212a.24.24 0 0 1 .021-.11.128.128 0 0 1 .04-.043c.017-.011.035-.017.055-.017s.036.004.047.012.02.018.025.033c.006.014.01.03.011.049l.002.062v.226h.12zm.273-.393c.035 0 .073.01.111.027l.01-.091a.337.337 0 0 0-.203-.012.164.164 0 0 0-.059.028.13.13 0 0 0-.05.104c0 .036.01.063.029.084.018.02.05.038.095.053l.046.017c.012.006.02.011.028.017.006.005.011.01.014.016a.076.076 0 0 1 .004.022.04.04 0 0 1-.022.037c-.016.009-.034.013-.054.013a.31.31 0 0 1-.132-.033l-.007.097a.374.374 0 0 0 .145.025.28.28 0 0 0 .078-.01c.023-.006.044-.016.06-.029a.138.138 0 0 0 .044-.163.111.111 0 0 0-.026-.038.16.16 0 0 0-.041-.028.507.507 0 0 0-.056-.022l-.042-.015c-.01-.005-.02-.009-.026-.014a.05.05 0 0 1-.014-.015.064.064 0 0 1-.004-.02.04.04 0 0 1 .02-.037.09.09 0 0 1 .052-.013zm.346.32h-.002a.334.334 0 0 1 .002.054l.001.033v.177h-.122v-.593a.624.624 0 0 0-.005-.066h.118a.328.328 0 0 1 .002.035v.04h.002c.021-.029.043-.05.068-.065a.19.19 0 0 1 .09-.022c.031 0 .058.006.083.018a.162.162 0 0 1 .062.049c.018.02.03.046.04.075a.365.365 0 0 1 0 .2c-.01.03-.024.057-.042.08a.179.179 0 0 1-.146.069.164.164 0 0 1-.15-.084zm.001-.16c0 .02.003.041.008.059.006.019.014.034.024.048s.022.024.036.032a.111.111 0 0 0 .094 0 .098.098 0 0 0 .035-.032c.01-.014.016-.03.021-.048s.008-.039.008-.062a.179.179 0 0 0-.03-.108.093.093 0 0 0-.08-.04.1.1 0 0 0-.047.012.124.124 0 0 0-.037.031.176.176 0 0 0-.024.047.233.233 0 0 0-.008.06zm.473.176a.23.23 0 0 1-.05-.077.286.286 0 0 1 0-.202.221.221 0 0 1 .05-.077.23.23 0 0 1 .08-.05.28.28 0 0 1 .2.002c.029.012.055.028.076.049.022.021.039.048.05.078a.296.296 0 0 1 0 .201.21.21 0 0 1-.129.126.274.274 0 0 1-.1.018c-.036 0-.07-.006-.1-.018s-.055-.028-.077-.05zm.06-.176c0 .046.011.082.033.11a.1.1 0 0 0 .084.04c.036 0 .065-.013.087-.04s.032-.066.032-.114-.01-.086-.031-.113a.106.106 0 0 0-.087-.039c-.037 0-.066.013-.086.04s-.031.066-.031.116zm.558-.192v-.023l-.002-.02h-.115a.62.62 0 0 1 .004.066v.402h.125v-.192c0-.123.04-.184.121-.184a.14.14 0 0 1 .042.007v-.01h.087v.208c0 .061.013.106.036.135.024.027.064.042.117.042.016 0 .03-.001.045-.003s.027-.005.04-.01l-.004-.093a.14.14 0 0 1-.045.007c-.029 0-.048-.008-.058-.024s-.014-.043-.014-.078v-.183h.111v-.09h-.11v-.138l-.116.04v.098h-.086v-.006a.072.072 0 0 0-.02-.005h-.02c-.033 0-.06.01-.083.027s-.04.042-.052.073h-.002v-.046zm.582-.21.02.451h.101l.023-.45h-.144zm.007.635h.126v-.122h-.126v.122zM1.273 22.368h-.197v-.635h.195c.035 0 .067.003.096.01.03.006.054.015.075.028.02.013.037.03.048.05a.158.158 0 0 1 .016.075c0 .037-.01.068-.032.093a.17.17 0 0 1-.1.053v.002a.18.18 0 0 1 .11.048.14.14 0 0 1 .039.102c0 .034-.007.06-.022.083s-.033.04-.056.054a.276.276 0 0 1-.08.028.477.477 0 0 1-.092.01zm-.073-.367h.034a.56.56 0 0 0 .06-.003.176.176 0 0 0 .046-.013c.013-.006.023-.015.03-.027s.01-.026.01-.045a.079.079 0 0 0-.01-.042.08.08 0 0 0-.029-.026.139.139 0 0 0-.043-.013.297.297 0 0 0-.051-.004H1.2v.173zm.042.271c.052 0 .09-.006.115-.021.025-.014.038-.038.038-.071 0-.033-.013-.056-.039-.07s-.066-.02-.12-.02H1.2v.182h.042zm.38-.591v.687h.121v-.687h-.122zm.277.63a.237.237 0 0 1-.05-.077.264.264 0 0 1-.018-.1c0-.037.005-.07.018-.102a.221.221 0 0 1 .05-.077c.022-.02.048-.037.079-.049a.28.28 0 0 1 .2.001c.03.012.056.029.077.05a.231.231 0 0 1 .05.077.28.28 0 0 1 .018.102.23.23 0 0 1-.068.177.212.212 0 0 1-.078.048.274.274 0 0 1-.1.018c-.036 0-.07-.006-.1-.018s-.057-.028-.078-.05zm.061-.175c0 .046.01.082.032.11s.049.04.084.04c.036 0 .065-.014.087-.04s.032-.066.032-.115-.01-.086-.031-.112-.05-.04-.087-.04c-.036 0-.065.013-.086.04s-.03.066-.03.117zm.574-.107c.012-.013.027-.024.044-.032s.037-.012.06-.012a.166.166 0 0 1 .074.015l.009-.093a.404.404 0 0 0-.097-.013.29.29 0 0 0-.098.017.224.224 0 0 0-.135.124.25.25 0 0 0-.02.102c0 .036.006.07.018.098a.216.216 0 0 0 .132.122.303.303 0 0 0 .159.014l.046-.01-.006-.096a.214.214 0 0 1-.08.016.16.16 0 0 1-.063-.011.116.116 0 0 1-.07-.078.2.2 0 0 1 0-.116.117.117 0 0 1 .027-.047zm.4 0c.012-.013.026-.024.044-.032s.037-.012.06-.012a.166.166 0 0 1 .074.015l.009-.093a.404.404 0 0 0-.097-.013.29.29 0 0 0-.098.017.224.224 0 0 0-.135.124.25.25 0 0 0-.02.102c0 .036.006.07.018.098a.216.216 0 0 0 .132.122.303.303 0 0 0 .159.014l.046-.01-.006-.096a.214.214 0 0 1-.08.016.16.16 0 0 1-.063-.011.116.116 0 0 1-.07-.078.2.2 0 0 1 0-.116.117.117 0 0 1 .027-.047zm.51.05c.012.001.023.001.034.003 0-.037-.009-.063-.026-.08-.018-.016-.046-.023-.084-.023-.025 0-.05.003-.075.011s-.047.018-.068.03l-.004-.094a.396.396 0 0 1 .168-.037.29.29 0 0 1 .093.013.18.18 0 0 1 .063.038.156.156 0 0 1 .035.061.25.25 0 0 1 .011.08V22.186l-.001.032a1.606 1.606 0 0 0 .006.15H3.49a.261.261 0 0 1-.002-.017v-.04l.002-.022h-.002a.181.181 0 0 1-.063.064.19.19 0 0 1-.098.023c-.023 0-.044-.003-.063-.01s-.035-.016-.05-.028a.143.143 0 0 1-.044-.107c0-.05.021-.087.063-.114s.101-.039.179-.039h.032zm.014.071H3.44a.274.274 0 0 0-.11.018.058.058 0 0 0-.038.058c0 .02.006.036.019.046s.03.017.053.017c.016 0 .031-.003.045-.008s.027-.012.038-.024a.117.117 0 0 0 .025-.042.197.197 0 0 0 .008-.063l-.02-.002zm.358.218v-.191c0-.123.04-.185.122-.185.015 0 .03.003.042.007l.002-.104c-.006-.003-.013-.004-.02-.005l-.02-.001c-.033 0-.06.01-.083.027s-.04.042-.05.073h-.003v-.021a.401.401 0 0 0-.002-.048l-.001-.02h-.115a.806.806 0 0 1 .003.066l.001.073v.33h.124zm.615-.2h-.314a.11.11 0 0 0 .041.087c.027.02.061.031.104.031a.255.255 0 0 0 .136-.038l.002.1a.373.373 0 0 1-.257.014.208.208 0 0 1-.132-.126.28.28 0 0 1-.018-.104c0-.035.005-.068.016-.098a.227.227 0 0 1 .122-.127.251.251 0 0 1 .096-.018c.068 0 .12.02.154.061.034.041.052.104.052.189v.015l-.002.014zm-.11-.083c0-.04-.009-.066-.027-.084a.1.1 0 0 0-.071-.025.103.103 0 0 0-.072.027c-.02.018-.033.045-.036.082h.206zm.408-.404v.687h.122v-.687h-.122zm.647.487h-.314a.11.11 0 0 0 .042.087c.026.02.06.031.103.031a.255.255 0 0 0 .136-.038l.002.1a.373.373 0 0 1-.257.014.208.208 0 0 1-.132-.126.28.28 0 0 1-.018-.104c0-.035.005-.068.017-.098a.227.227 0 0 1 .122-.127.251.251 0 0 1 .095-.018c.068 0 .12.02.154.061.034.041.052.104.052.189v.015l-.002.014zm-.11-.083c0-.04-.009-.066-.026-.084a.1.1 0 0 0-.072-.025.103.103 0 0 0-.071.027c-.021.018-.034.045-.036.082h.205zm.526.283v-.191c0-.123.041-.185.122-.185.015 0 .03.003.042.007l.002-.104c-.006-.003-.013-.004-.019-.005l-.02-.001c-.034 0-.062.01-.084.027s-.04.042-.05.073h-.003v-.021a.401.401 0 0 0-.002-.048l-.001-.02h-.115a.806.806 0 0 1 .003.066l.001.073v.33h.124zm.24-.056a.237.237 0 0 1-.05-.078.264.264 0 0 1-.019-.1c0-.037.006-.07.018-.102a.221.221 0 0 1 .051-.077c.022-.02.048-.037.079-.049a.28.28 0 0 1 .2.001c.03.012.056.029.077.05a.231.231 0 0 1 .05.077.28.28 0 0 1 .018.102c0 .036-.006.07-.018.1a.219.219 0 0 1-.129.126.274.274 0 0 1-.1.017c-.036 0-.07-.006-.1-.018s-.056-.028-.077-.05zm.061-.176c0 .046.01.082.032.11s.048.04.083.04c.037 0 .066-.014.087-.04s.033-.066.033-.115-.01-.086-.032-.112-.05-.04-.087-.04c-.036 0-.064.013-.085.04s-.03.066-.03.117zm.444-.236v.297c0 .028.004.052.012.074a.16.16 0 0 0 .033.058.136.136 0 0 0 .052.037c.02.009.042.013.067.013a.18.18 0 0 0 .1-.025.212.212 0 0 0 .061-.063h.002a.589.589 0 0 0 .004.077h.113a.629.629 0 0 1-.004-.065V21.9h-.121v.234c0 .02-.002.039-.007.056s-.013.034-.022.046c-.01.014-.021.024-.035.032s-.03.011-.047.011-.032-.004-.044-.01a.075.075 0 0 1-.027-.028c-.007-.012-.01-.026-.013-.043s-.004-.035-.004-.055V21.9h-.12zm.589-.098v.098h-.092v.09h.09v.207c0 .062.012.107.036.135.024.027.063.042.117.042l.045-.003a.147.147 0 0 0 .038-.01l-.003-.092a.136.136 0 0 1-.044.006c-.03 0-.05-.007-.059-.024s-.014-.043-.014-.078v-.183h.112v-.09H7.24v-.137l-.114.039zm.707.366h-.314a.11.11 0 0 0 .041.087c.026.02.061.031.104.031a.255.255 0 0 0 .136-.038l.002.1a.373.373 0 0 1-.258.014.208.208 0 0 1-.131-.126.28.28 0 0 1-.018-.104c0-.035.005-.068.016-.098a.227.227 0 0 1 .122-.127.251.251 0 0 1 .096-.018c.068 0 .119.02.154.061.034.041.051.104.051.189v.015l-.001.014zm-.11-.083c0-.04-.01-.066-.027-.084a.1.1 0 0 0-.071-.025.103.103 0 0 0-.072.027c-.02.018-.033.045-.036.082h.206zm.725-.112h.002a1.04 1.04 0 0 1-.003-.06v-.232h.12v.622l.004.065h-.11a.406.406 0 0 1-.003-.037v-.045h-.002c-.017.03-.038.054-.063.07s-.057.023-.093.023a.194.194 0 0 1-.085-.018c-.025-.01-.046-.027-.064-.049s-.03-.047-.04-.077a.34.34 0 0 1 0-.2c.01-.03.024-.056.042-.077s.039-.04.064-.05.053-.02.084-.02a.16.16 0 0 1 .147.085zm0 .163a.226.226 0 0 0-.008-.062.161.161 0 0 0-.023-.049.12.12 0 0 0-.037-.03.098.098 0 0 0-.047-.013c-.018 0-.033.004-.046.012s-.026.019-.035.031a.172.172 0 0 0-.022.05.233.233 0 0 0 0 .12.155.155 0 0 0 .022.048.12.12 0 0 0 .036.031.107.107 0 0 0 .093 0 .119.119 0 0 0 .036-.03c.01-.015.018-.03.023-.049s.009-.039.009-.06zm.233-.236v.297c0 .028.004.052.012.074a.16.16 0 0 0 .033.058.136.136 0 0 0 .052.037c.02.009.042.013.067.013a.18.18 0 0 0 .1-.025.212.212 0 0 0 .061-.063h.002a.589.589 0 0 0 .004.077h.113a.629.629 0 0 1-.004-.065V21.9H9v.234c0 .02-.002.039-.007.056s-.013.034-.022.046c-.01.014-.021.024-.035.032s-.03.011-.047.011-.032-.004-.044-.01a.075.075 0 0 1-.027-.028c-.006-.012-.01-.026-.013-.043s-.004-.035-.004-.055V21.9h-.12zm.675.468v-.191c0-.123.041-.185.123-.185.015 0 .029.003.042.007l.002-.104c-.006-.003-.013-.004-.02-.005l-.02-.001c-.033 0-.061.01-.083.027s-.04.042-.051.073h-.002v-.021a.401.401 0 0 0-.003-.048v-.02h-.115a.806.806 0 0 1 .003.066v.403h.124zm.44-.289c.013.001.024.001.035.003 0-.037-.009-.063-.026-.08-.018-.016-.046-.023-.084-.023-.025 0-.05.003-.075.011s-.047.018-.068.03l-.004-.094a.396.396 0 0 1 .168-.037.29.29 0 0 1 .093.013.18.18 0 0 1 .063.038.156.156 0 0 1 .035.061.25.25 0 0 1 .011.08V22.186l-.001.032a1.606 1.606 0 0 0 .006.15h-.106a.261.261 0 0 1-.002-.017v-.04l.002-.022H9.84a.181.181 0 0 1-.063.064.19.19 0 0 1-.098.023c-.023 0-.044-.003-.063-.01s-.035-.016-.05-.028a.143.143 0 0 1-.044-.107c0-.05.021-.087.063-.114s.101-.039.179-.039h.032zm.016.071h-.02a.274.274 0 0 0-.11.018.058.058 0 0 0-.038.058c0 .02.006.036.019.046s.03.017.053.017c.016 0 .031-.003.045-.008s.027-.012.038-.024a.117.117 0 0 0 .025-.042.197.197 0 0 0 .009-.063l-.021-.002zm.675.218v-.272a.381.381 0 0 0-.008-.086.162.162 0 0 0-.029-.065c-.013-.018-.03-.032-.052-.042s-.048-.014-.079-.014a.173.173 0 0 0-.155.09h-.002v-.042l-.004-.037h-.115l.003.075.001.07v.323h.12v-.212a.24.24 0 0 1 .02-.11.128.128 0 0 1 .04-.043c.017-.01.036-.017.056-.017s.035.004.047.012.02.019.025.033c.006.014.01.03.01.05.002.019.002.04.002.062v.225h.12zm.147-.566v.098h-.092v.09h.09v.207c0 .062.012.107.036.135.024.027.062.042.117.042l.045-.003a.147.147 0 0 0 .038-.01l-.003-.092a.136.136 0 0 1-.044.006c-.03 0-.05-.007-.059-.024s-.014-.043-.014-.078v-.183h.112v-.09h-.112v-.137l-.114.039zm.706.366h-.313a.11.11 0 0 0 .04.087c.027.02.062.031.104.031a.255.255 0 0 0 .137-.038l.002.1a.373.373 0 0 1-.258.014.208.208 0 0 1-.132-.126.28.28 0 0 1-.018-.104c0-.035.006-.068.017-.098a.227.227 0 0 1 .122-.127.251.251 0 0 1 .096-.018c.068 0 .119.02.154.061.034.041.051.104.051.189v.015l-.002.014zm-.11-.083c0-.04-.008-.066-.026-.084a.1.1 0 0 0-.072-.025.103.103 0 0 0-.071.027c-.021.018-.033.045-.036.082h.205zm.409.283h.122V21.9h-.122v.468zm.122-.674h-.122v.117h.122v-.117zm.121-.013v.687h.122v-.687h-.122zm.484.12v.1h-.092v.09h.09v.206c0 .062.012.107.036.135.024.027.063.042.117.042.016 0 .03-.001.045-.003s.027-.005.039-.01l-.003-.092a.136.136 0 0 1-.045.006c-.03 0-.05-.007-.058-.024s-.015-.043-.015-.078v-.183h.112v-.09h-.112v-.137l-.114.039zm.421.567v-.191c0-.123.041-.185.122-.185.015 0 .03.003.042.007l.003-.104c-.007-.003-.014-.004-.02-.005l-.02-.001c-.034 0-.061.01-.083.027s-.04.042-.052.073h-.002v-.021a.401.401 0 0 0-.002-.048l-.001-.02h-.115a.806.806 0 0 1 .004.066v.403h.124zm.44-.289.036.003c0-.037-.01-.063-.028-.08-.017-.016-.045-.023-.084-.023a.25.25 0 0 0-.074.011.35.35 0 0 0-.067.03l-.005-.094a.41.41 0 0 1 .168-.037c.037 0 .067.005.094.013.025.01.046.023.062.038.016.017.027.038.035.061s.012.05.012.08l-.001.03v.038l-.001.039v.03c0 .03 0 .056.002.085l.004.065h-.106a.064.064 0 0 1-.002-.016v-.04a.16.16 0 0 1 .002-.022h-.002a.185.185 0 0 1-.062.064.194.194 0 0 1-.099.023.16.16 0 0 1-.112-.038.143.143 0 0 1-.044-.107c0-.05.02-.087.063-.114.04-.026.1-.039.178-.039h.032zm.016.071h-.02a.275.275 0 0 0-.11.018c-.026.01-.038.03-.038.058 0 .02.006.036.019.046s.03.017.053.017c.016 0 .032-.003.045-.008s.028-.012.037-.024c.011-.01.02-.025.026-.042s.009-.038.009-.063l-.02-.002zm.396-.174c.035 0 .073.008.111.026l.01-.09a.337.337 0 0 0-.203-.013.164.164 0 0 0-.059.029.132.132 0 0 0-.05.104c0 .035.009.063.029.083.018.02.05.038.095.053l.046.018c.012.005.02.01.028.016.006.005.011.01.014.017a.076.076 0 0 1 .004.021.04.04 0 0 1-.022.037c-.016.01-.034.013-.054.013a.31.31 0 0 1-.132-.032l-.007.096a.374.374 0 0 0 .145.025.28.28 0 0 0 .078-.01c.023-.006.044-.015.06-.028a.138.138 0 0 0 .044-.163.111.111 0 0 0-.026-.038.16.16 0 0 0-.041-.029.507.507 0 0 0-.056-.022l-.042-.015-.026-.013a.05.05 0 0 1-.014-.016.064.064 0 0 1-.004-.02.04.04 0 0 1 .02-.037.09.09 0 0 1 .052-.012zm.347.319h-.002a.334.334 0 0 1 .002.054l.001.033v.178h-.122v-.593a.624.624 0 0 0-.005-.067h.118a.328.328 0 0 1 .001.036l.001.04h.002c.02-.03.043-.051.068-.066a.19.19 0 0 1 .09-.021c.03 0 .058.006.083.017a.162.162 0 0 1 .062.05c.018.02.03.045.04.074a.365.365 0 0 1 0 .2c-.01.03-.024.057-.042.08a.179.179 0 0 1-.146.069.164.164 0 0 1-.15-.084zm.001-.16c0 .021.003.042.008.06.006.018.014.034.024.047s.022.025.036.032a.111.111 0 0 0 .094 0 .098.098 0 0 0 .035-.032c.01-.013.016-.03.021-.048s.008-.039.008-.061a.179.179 0 0 0-.03-.109.093.093 0 0 0-.08-.04.1.1 0 0 0-.047.012.124.124 0 0 0-.037.031.176.176 0 0 0-.024.047.233.233 0 0 0-.008.06zm.473.177a.23.23 0 0 1-.05-.078.286.286 0 0 1 0-.202.221.221 0 0 1 .05-.077.23.23 0 0 1 .08-.049.28.28 0 0 1 .2.001.223.223 0 0 1 .127.127.28.28 0 0 1 .017.102c0 .036-.006.07-.018.1-.012.029-.03.055-.05.076s-.048.039-.079.05a.274.274 0 0 1-.1.017c-.036 0-.07-.006-.1-.018s-.056-.028-.077-.05zm.06-.176c0 .046.011.082.033.11a.1.1 0 0 0 .084.04c.036 0 .065-.014.087-.04s.032-.066.032-.115-.01-.086-.031-.112a.106.106 0 0 0-.087-.04c-.037 0-.066.013-.086.04s-.031.066-.031.117zm.557-.193v-.023l-.002-.02h-.115a.62.62 0 0 1 .004.066v.403h.125v-.192c0-.123.04-.185.121-.185a.14.14 0 0 1 .042.007v-.009h.088v.207c0 .062.013.107.036.135.024.027.063.042.117.042.016 0 .03-.001.045-.003s.027-.005.04-.01l-.004-.092a.14.14 0 0 1-.045.006c-.029 0-.049-.007-.058-.024s-.014-.043-.014-.078v-.183h.111v-.09h-.111v-.137l-.115.039v.098h-.087v-.005a.072.072 0 0 0-.02-.005l-.02-.001c-.033 0-.06.01-.083.027s-.04.042-.052.073h-.002v-.046zm.603.369a.23.23 0 0 1-.051-.078.286.286 0 0 1 0-.202.221.221 0 0 1 .05-.077.23.23 0 0 1 .08-.049.28.28 0 0 1 .2.001.223.223 0 0 1 .127.127.28.28 0 0 1 .018.102c0 .036-.006.07-.018.1-.012.029-.03.055-.05.076s-.049.039-.079.05a.274.274 0 0 1-.1.017c-.037 0-.07-.006-.1-.018s-.056-.028-.077-.05zm.06-.176c0 .046.011.082.032.11a.1.1 0 0 0 .084.04c.037 0 .066-.014.087-.04s.033-.066.033-.115-.011-.086-.032-.112a.106.106 0 0 0-.087-.04c-.037 0-.065.013-.086.04s-.03.066-.03.117zm.473.232h.126v-.122h-.126v.122zm-.007-.635.02.452h.101l.023-.452h-.144z"/>
</symbol></svg>
