<svg xmlns="http://www.w3.org/2000/svg" viewBox="0 0 17.766 24" xml:space="preserve"><symbol id="icon">
    <path d="M1.093 19.533h15.584v.078H1.093v-.078zm0 1.708h15.584v-.078H1.093v.078zm0 1.627h15.584v-.078H1.093v.078zM0 3.16h.063v-.22H0v.22zm0-.44h.063V2.5H0v.22zm0-.441h.063v-.22H0v.22zM0 3.6h.063v-.22H0v.22zm0 .441h.063v-.22H0v.22zm0 .881h.063v-.22H0v.22zm0 .44h.063v-.22H0v.22zm0-.88h.063v-.22H0v.22zM0 .517h.063v-.22H0v.22zM.144 0H0v.076h.063V.063h.081V0zM0 1.838h.063v-.22H0v.22zM.086 24h.22v-.063h-.22V24zM0 1.398h.063v-.22H0v.22zM0 11.97h.063v-.22H0v.22zM0 .957h.063v-.22H0v.22zm0 5.727h.063v-.22H0v.22zm0 3.084h.063v-.22H0v.22zm0-.44h.063v-.22H0v.22zm0-.44h.063v-.221H0v.22zm0 1.32h.063v-.22H0v.22zM.585 0h-.22v.063h.22V0zM0 10.65h.063v-.221H0v.22zm0-2.203h.063v-.22H0v.22zm0-.441h.063v-.22H0v.22zm0-.881h.063v-.22H0v.22zm0 3.965h.063v-.22H0v.22zm0-5.287h.063v-.22H0v.22zm0 .44h.063v-.22H0v.22zm0 1.322h.063v-.22H0v.22zm0 3.965h.063v-.22H0v.22zM5.373 24h.22v-.063h-.22V24zm3.965 0h.22v-.063h-.22V24zM.527 24h.22v-.063h-.22V24zm8.37 0h.22v-.063h-.22V24zm-.44 0h.22v-.063h-.22V24zm1.762 0h.22v-.063h-.22V24zm-3.084 0h.22v-.063h-.22V24zm.881 0h.22v-.063h-.22V24zm-.44 0h.22v-.063h-.22V24zm3.083 0h.22v-.063h-.22V24zm2.203 0h.22v-.063h-.22V24zm.44 0h.221v-.063h-.22V24zm-.88 0h.22v-.063h-.22V24zm-.44 0h.22v-.063h-.22V24zm1.761 0h.22v-.063h-.22V24zm-2.202 0h.22v-.063h-.22V24zm-1.763 0h.22v-.063h-.22V24zm-3.084 0h.22v-.063h-.22V24zM2.29 24h.22v-.063h-.22V24zm.44 0h.22v-.063h-.22V24zM.967 24h.22v-.063h-.22V24zm.058-24h-.22v.063h.22V0zM3.17 24h.22v-.063h-.22V24zm-1.762 0h.22v-.063h-.22V24zm.44 0h.22v-.063h-.22V24zm3.965 0h.22v-.063h-.22V24zm-2.202 0h.22v-.063h-.22V24zM0 12.411h.063v-.22H0v.22zM6.254 24h.22v-.063h-.22V24zM4.05 24h.22v-.063h-.22V24zm.44 0h.221v-.063h-.22V24zm.441 0h.22v-.063h-.22V24zm6.168 0h.22v-.063h-.22V24zM8.515 0h-.22v.063h.22V0zm-.881 0h-.22v.063h.22V0zm-.881 0h-.22v.063h.22V0zm.44 0h-.22v.063h.22V0zm.881 0h-.22v.063h.22V0zm9.63 18.33h.062v-.22h-.063v.22zM8.954 0h-.22v.063h.22V0zm.44 0h-.22v.063h.22V0zM4.55 0h-.22v.063h.22V0zm-.44 0h-.221v.063h.22V0zm-.882 0h-.22v.063h.22V0zm7.049 0h-.22v.063h.22V0zM3.669 0h-.22v.063h.22V0zM4.99 0h-.22v.063h.22V0zm.881 0h-.22v.063h.22V0zm-.44 0h-.22v.063h.22V0zm.881 0h-.22v.063h.22V0zm8.811 0h-.22v.063h.22V0zM0 12.852h.063v-.22H0v.22zM14.682 0h-.22v.063h.22V0zm-.44 0h-.22v.063h.22V0zm2.643 0h-.22v.063h.22V0zm-.44 0h-.22v.063h.22V0zm-.44 0h-.221v.063h.22V0zM12.92 0h-.22v.063h.22V0zM11.6 0h-.22v.063h.22V0zm.44 0h-.22v.063h.22V0zm-.881 0h-.22v.063h.22V0zm-.44 0h-.22v.063h.22V0zm2.643 0h-.22v.063h.22V0zm.44 0h-.22v.063h.22V0zM12.48 0h-.22v.063h.22V0zm3.083 0h-.22v.063h.22V0zM0 17.258h.063v-.22H0v.22zm0-.44h.063v-.221H0v.22zm0-.442h.063v-.22H0v.22zm0 1.322h.063v-.22H0v.22zm0 1.322h.063v-.22H0v.22zm0-.881h.063v-.22H0v.22zm0 .44h.063v-.22H0v.22zm0-4.846h.063v-.22H0v.22zm0 .44h.063v-.22H0v.22zm0 1.763h.063v-.22H0v.22zm0-2.643h.063v-.22H0v.22zm0 6.167h.063v-.22H0v.22zm0-3.965h.063v-.22H0v.22zm0-.88h.063v-.221H0v.22zm0 .44h.063v-.22H0v.22zm0 5.727h.063v-.22H0v.22zM17.703.709h.063v-.22h-.063v.22zM0 23.425h.063v-.22H0v.22zm0 .44h.063v-.22H0v.22zM17.546 0v.063h.157v.205h.063V0h-.22zM2.347 0h-.22v.063h.22V0zm-.44 0h-.22v.063h.22V0zm-.441 0h-.22v.063h.22V0zM0 22.544h.063v-.22H0v.22zM2.788 0h-.22v.063h.22V0zM0 22.985h.063v-.22H0v.22zm0-1.762h.063v-.22H0v.22zm0-.882h.063v-.22H0v.22zm0-.44h.063v-.22H0v.22zm0 2.203h.063v-.22H0v.22zm0-.44h.063v-.221H0v.22zM9.836 0h-.22v.063h.22V0zm7.867 11.723h.063v-.22h-.063v.22zm0-1.763h.063v-.22h-.063v.22zm0 .44h.063v-.22h-.063v.22zm0 1.763h.063v-.22h-.063v.22zm0-1.322h.063v-.22h-.063v.22zm0-6.167h.063v-.22h-.063v.22zm0 9.251h.063v-.22h-.063v.22zm0 .44h.063v-.22h-.063v.22zm0-1.32h.063v-.221h-.063v.22zm0 .44h.063v-.22h-.063v.22zm0-.881h.063v-.22h-.063v.22zm0-4.406h.063v-.22h-.063v.22zm0-1.322h.063v-.22h-.063v.22zm0-.44h.063v-.22h-.063v.22zm0-.44h.063v-.22h-.063v.22zm0 3.524h.063V9.3h-.063v.22zm0-4.406h.063v-.22h-.063v.22zm0 .44h.063v-.22h-.063v.22zm0 3.085h.063v-.22h-.063v.22zm0 .44h.063v-.22h-.063v.22zm0-1.321h.063v-.22h-.063v.22zm0-.441h.063v-.22h-.063v.22zm0 7.49h.063v-.22h-.063v.22zm0-3.525h.063v-.22h-.063v.22zm0 3.965h.063v-.22h-.063v.22zm0 5.727h.063v-.22h-.063v.22zm0 .881h.063v-.22h-.063v.22zm0 .44h.063v-.22h-.063v.22zm0 .441h.063v-.22h-.063v.22zm0-2.202h.063v-.22h-.063v.22zm0-1.322h.063v-.22h-.063v.22zm0-.44h.063v-.22h-.063v.22zm0 1.321h.063v-.22h-.063v.22zm0-.44h.063v-.22h-.063v.22zm0 3.524h.063v-.22h-.063v.22zm0-1.762h.063v-.22h-.063v.22zm0-4.846h.063v-.22h-.063v.22zm0 .44h.063v-.22h-.063v.22zm0-1.322h.063v-.22h-.063v.22zm0 .441h.063v-.22h-.063v.22zm0 1.322h.063v-.22h-.063v.22zM17.268 24h.22v-.063h-.22V24zm.435 0h.063v-.162h-.063V24zm0-.383h.063v-.22h-.063v.22zm-.876.383h.22v-.063h-.22V24zm.499-24h-.22v.063h.22V0zm.377 17.89h.063v-.22h-.063v.22zM15.065 24h.22v-.063h-.22V24zm1.322 0h.22v-.063h-.22V24zm1.316-21.53h.063v-.22h-.063v.22zm0-.44h.063v-.22h-.063v.22zm0-.88h.063V.928h-.063v.22zm0 .44h.063v-.22h-.063v.22zm0 2.203h.063v-.22h-.063v.22zm0-.44h.063v-.221h-.063v.22zm0-.442h.063v-.22h-.063v.22zm0 1.322h.063v-.22h-.063v.22zM15.946 24h.22v-.063h-.22V24zm-1.762 0h.22v-.063h-.22V24zm.44 0h.22v-.063h-.22V24zm.881 0h.22v-.063h-.22V24zM1.093 1.128h15.584v15.584H1.093V1.128zm.543 15.04h14.498V1.672H1.636v14.498zM12.792 5.196v-.618l-.951.998V3.483h-.475v2.094l-.953-1v.618l1.19 1.19 1.19-1.19zm-8.89.826a.272.272 0 1 1 0 .544.272.272 0 0 1 0-.544zm0 .181a.091.091 0 1 0 0 .182.091.091 0 0 0 0-.182zm1.089-.18a.272.272 0 1 1 0 .543.272.272 0 0 1 0-.544zm-.002.18a.091.091 0 1 0 0 .182.091.091 0 0 0 0-.182zm.453-.298H3.449V3.479h1.993v1.816h.724V3.479H8.16v2.425H6.166v-.246h-.724v.246zm2.102-1.929h.538v-.403h-.538v.403zm0 .464h.538v-.371h-.538v.371zm0 .493h.538v-.4h-.538v.4zm-.608-.957h.515v-.403h-.515v.403zm0 .464h.515v-.371h-.515v.371zm0 .493h.515v-.4h-.515v.4zm-.68-.957h.587v-.403h-.588v.403zm0 .464h.587v-.371h-.588v.371zm0 .493h.587v-.4h-.588v.4zm-2.192-.4h-.538v.4h.538v-.4zm0-.464h-.538v.371h.538v-.371zm0-.496h-.538v.403h.538v-.403zm.608.96h-.515v.4h.515v-.4zm0-.464h-.515v.371h.515v-.371zm0-.496h-.515v.403h.515v-.403zm.68.96h-.587v.4h.588v-.4zm0-.464h-.587v.371h.588v-.371zm0-.496h-.587v.403h.588v-.403zm2.353 2.45a.272.272 0 1 1 0 .543.272.272 0 0 1 0-.544zm0 .18a.091.091 0 1 0 0 .182.091.091 0 0 0 0-.182zm-1.088-.18a.272.272 0 1 1 0 .543.272.272 0 0 1 0-.544zm.001.18a.091.091 0 1 0 0 .182.091.091 0 0 0 0-.182zm7.879 5.525a.654.654 0 0 1-.001.193.904.904 0 0 1-.898.803l-.117.003h-1.334v.917c0 .396-.243.716-.544.716-.3 0-.544-.32-.544-.716v-.917H3.45v-1.807l4.098-.005h3.513v-3.26H9.97v-.26c0-.259.21-.468.468-.468h2.328c.259 0 .468.21.468.467v.26h-1.088l.001 3.26h1.333l.117.002c.468 0 .853.356.899.812zm-1.992.082c0-.218-.121-.37-.357-.455v.643-.001a1.562 1.562 0 0 1-.548.082c-.22 0-.4-.026-.54-.076v-.65c-.242.086-.362.247-.362.47 0 .351.302.541.902.541.6 0 .905-.203.905-.554zM1.24 19.065h-.174v-.634h.174c.053 0 .103.006.148.016.046.012.086.03.12.056.033.025.06.059.078.099.019.04.028.09.028.149 0 .056-.01.103-.029.144-.02.039-.045.072-.08.097s-.072.044-.118.056-.095.017-.147.017zm-.012-.097c.035 0 .068-.003.1-.011s.057-.02.08-.037a.173.173 0 0 0 .053-.067.229.229 0 0 0 .02-.103.247.247 0 0 0-.02-.106.188.188 0 0 0-.053-.068c-.023-.016-.05-.028-.08-.035s-.065-.01-.1-.01h-.034v.437h.034zm.886-.103H1.8a.11.11 0 0 0 .041.087c.027.02.061.031.104.031a.255.255 0 0 0 .136-.038l.002.1a.373.373 0 0 1-.257.015.208.208 0 0 1-.132-.126.28.28 0 0 1-.018-.105c0-.035.005-.067.016-.098a.227.227 0 0 1 .122-.127.251.251 0 0 1 .096-.018c.068 0 .12.02.154.061.034.041.052.104.052.189v.016l-.002.013zm-.11-.083c0-.039-.009-.066-.026-.084a.1.1 0 0 0-.072-.025.103.103 0 0 0-.072.027c-.02.018-.033.045-.036.082h.206zm.199.283h.122v-.467h-.122v.467zm.122-.673h-.122v.116h.122v-.116zm.245.335c.012-.014.027-.025.044-.033s.037-.011.06-.011a.166.166 0 0 1 .074.014l.009-.093-.045-.01c-.015-.002-.033-.002-.052-.002a.29.29 0 0 0-.098.016.224.224 0 0 0-.135.124.25.25 0 0 0-.02.102c0 .036.006.07.018.099a.216.216 0 0 0 .132.122.303.303 0 0 0 .159.013l.046-.01-.006-.096a.214.214 0 0 1-.08.017.16.16 0 0 1-.063-.012.116.116 0 0 1-.07-.077.2.2 0 0 1 0-.117.117.117 0 0 1 .027-.046zm.394-.165v-.184h-.12v.687h.12v-.211c0-.053.01-.094.029-.125a.093.093 0 0 1 .085-.045c.02 0 .036.004.047.011s.021.019.027.034c.006.013.01.03.011.048.002.02.003.04.003.063v.225h.12v-.271a.354.354 0 0 0-.01-.086c-.006-.025-.015-.047-.029-.065s-.032-.033-.053-.042a.194.194 0 0 0-.168.01.21.21 0 0 0-.062.066h-.002c0-.015 0-.031.002-.053v-.061zm.594.11c.035 0 .072.01.111.027l.01-.09a.334.334 0 0 0-.203-.012.156.156 0 0 0-.059.028.127.127 0 0 0-.05.104c0 .036.009.063.028.084s.051.038.096.052l.046.018a.14.14 0 0 1 .028.016c.006.005.011.011.014.017a.053.053 0 0 1 .004.021.04.04 0 0 1-.023.038.104.104 0 0 1-.054.012.297.297 0 0 1-.132-.032l-.006.097a.37.37 0 0 0 .145.024.284.284 0 0 0 .078-.01.144.144 0 0 0 .1-.075.136.136 0 0 0 .014-.064.14.14 0 0 0-.01-.052.127.127 0 0 0-.068-.066.439.439 0 0 0-.055-.023l-.041-.015c-.011-.004-.02-.008-.027-.013s-.01-.01-.013-.016a.045.045 0 0 1-.005-.02c0-.016.007-.028.02-.036a.092.092 0 0 1 .052-.013zm.635.193H3.88a.11.11 0 0 0 .041.087c.027.02.061.031.104.031a.255.255 0 0 0 .136-.038l.002.1a.373.373 0 0 1-.257.015.208.208 0 0 1-.132-.126.28.28 0 0 1-.018-.105c0-.035.005-.067.016-.098a.227.227 0 0 1 .123-.127.251.251 0 0 1 .095-.018c.068 0 .12.02.154.061.034.041.052.104.052.189v.016l-.002.013zm-.11-.083c0-.039-.009-.066-.026-.084a.1.1 0 0 0-.072-.025.103.103 0 0 0-.071.027c-.021.018-.034.045-.037.082h.206zm.198-.404v.687h.122v-.687h-.122zm.881.22h-.122l-.083.26-.008.024-.009.03c-.003.01-.005.022-.009.031l-.007.028h-.002l-.006-.027-.01-.03-.008-.031a.285.285 0 0 0-.007-.026l-.082-.26h-.132l.172.468h.143l.17-.467zm.466.267h-.314a.11.11 0 0 0 .041.087c.027.02.061.031.104.031a.255.255 0 0 0 .136-.038l.002.1a.373.373 0 0 1-.257.015.208.208 0 0 1-.132-.126.28.28 0 0 1-.018-.105c0-.035.005-.067.017-.098a.227.227 0 0 1 .122-.127.251.251 0 0 1 .095-.018c.068 0 .12.02.154.061.034.041.052.104.052.189v.016l-.002.013zm-.11-.083c0-.039-.009-.066-.026-.084a.1.1 0 0 0-.072-.025.103.103 0 0 0-.071.027c-.021.018-.034.045-.037.082h.206zm.316.283v-.191c0-.123.041-.185.123-.185.015 0 .029.003.042.007l.002-.104c-.006-.003-.013-.004-.02-.005l-.02-.001c-.033 0-.061.01-.083.027s-.04.042-.051.074h-.002v-.022a.401.401 0 0 0-.003-.048v-.02h-.115a.806.806 0 0 1 .003.066v.403h.124zm.34 0v-.191c0-.123.042-.185.123-.185.015 0 .03.003.042.007l.002-.104c-.006-.003-.013-.004-.02-.005l-.02-.001c-.033 0-.06.01-.083.027s-.04.042-.051.074h-.002v-.022a.401.401 0 0 0-.002-.048l-.001-.02h-.115a.806.806 0 0 1 .003.066l.001.073v.33h.124zm.345-.673h-.122v.116h.122v-.116zm-.122.673h.122v-.467h-.122v.467zm.647-.2h-.313a.11.11 0 0 0 .04.087c.027.02.062.031.104.031a.255.255 0 0 0 .137-.038l.002.1a.373.373 0 0 1-.258.015.208.208 0 0 1-.132-.126.28.28 0 0 1-.018-.105c0-.035.006-.067.017-.098a.227.227 0 0 1 .122-.127.251.251 0 0 1 .096-.018c.068 0 .119.02.154.061.034.041.051.104.051.189v.016l-.002.013zm-.11-.083c0-.039-.008-.066-.026-.084a.1.1 0 0 0-.072-.025.103.103 0 0 0-.07.027c-.022.018-.034.045-.037.082h.206zm.523-.11h.002c-.002-.015-.002-.027-.002-.04v-.034h.113v.431a.294.294 0 0 1-.015.096.194.194 0 0 1-.12.125.315.315 0 0 1-.111.018.46.46 0 0 1-.187-.031l.009-.104a.347.347 0 0 0 .167.044c.021 0 .04-.003.057-.009a.11.11 0 0 0 .044-.027.12.12 0 0 0 .028-.046.2.2 0 0 0 .01-.066v-.023c0-.009 0-.017.002-.026h-.002c-.014.025-.034.044-.058.061s-.055.024-.092.024a.186.186 0 0 1-.146-.064.205.205 0 0 1-.042-.073.325.325 0 0 1 0-.194c.01-.03.024-.057.042-.079s.04-.039.066-.05.055-.02.087-.02a.165.165 0 0 1 .148.086zm-.007.154c0-.02-.003-.04-.008-.057a.146.146 0 0 0-.024-.046c-.01-.014-.023-.024-.037-.032a.095.095 0 0 0-.126.032.144.144 0 0 0-.022.046.23.23 0 0 0-.008.058c0 .042.01.076.03.103.019.027.045.04.08.04a.095.095 0 0 0 .046-.011c.014-.007.027-.018.037-.03s.018-.028.024-.045a.198.198 0 0 0 .008-.058zm.641.04H7.78a.11.11 0 0 0 .04.086c.027.02.062.031.104.031a.255.255 0 0 0 .137-.038l.002.1a.373.373 0 0 1-.258.015.208.208 0 0 1-.132-.126.28.28 0 0 1-.018-.105c0-.035.006-.067.017-.098a.227.227 0 0 1 .122-.127.251.251 0 0 1 .096-.018c.068 0 .119.02.153.061.035.041.052.104.052.189v.016l-.002.013zm-.11-.084c0-.039-.008-.066-.026-.084a.1.1 0 0 0-.072-.025.103.103 0 0 0-.071.027c-.021.018-.033.045-.036.082h.205zm.2-.404v.687h.121v-.687h-.122zm.68.687v-.272a.381.381 0 0 0-.01-.086.162.162 0 0 0-.028-.064c-.013-.019-.03-.033-.052-.042s-.048-.015-.079-.015a.173.173 0 0 0-.155.09h-.002v-.041c-.002-.015-.002-.028-.004-.037h-.115l.003.074.001.07v.323h.12v-.211a.24.24 0 0 1 .02-.11.128.128 0 0 1 .04-.044c.017-.01.036-.016.056-.016s.035.003.047.011.02.019.025.034c.006.013.01.03.01.048.002.02.002.04.002.063v.225h.12zm.13-.634.02.45h.101l.022-.45H8.99zm.007.634h.126v-.122h-.126v.122zm-7.663 1.416a.367.367 0 0 0-.007.025l-.01.028-.008.03-.007.027h-.002l-.018-.056a1.552 1.552 0 0 0-.017-.054l-.135-.414H.995l.225.635h.155l.227-.635h-.13l-.136.414zm.693.021h-.313a.11.11 0 0 0 .04.087c.027.02.062.031.104.031a.255.255 0 0 0 .137-.038l.002.1a.373.373 0 0 1-.258.014.208.208 0 0 1-.132-.126.28.28 0 0 1-.018-.104c0-.035.006-.068.017-.098a.227.227 0 0 1 .122-.127.251.251 0 0 1 .096-.018c.068 0 .119.02.153.061.035.041.052.104.052.189v.015l-.002.014zm-.11-.083c0-.04-.008-.066-.026-.084a.1.1 0 0 0-.072-.025.103.103 0 0 0-.071.027c-.021.017-.033.045-.036.082h.205zm.317.283v-.191c0-.123.041-.185.122-.185.016 0 .03.003.042.007l.003-.104c-.007-.003-.013-.004-.02-.005l-.02-.001c-.033 0-.061.01-.083.027s-.04.042-.051.073h-.002v-.021a.401.401 0 0 0-.003-.048v-.02h-.116a.806.806 0 0 1 .004.066v.403h.124zm.34 0v-.191c0-.123.041-.185.122-.185.015 0 .03.003.042.007l.003-.104c-.007-.003-.014-.004-.02-.005l-.02-.001c-.034 0-.061.01-.083.027s-.04.042-.052.073h-.002v-.021a.401.401 0 0 0-.002-.048l-.001-.02h-.115a.806.806 0 0 1 .004.066v.403h.124zm.24-.056a.237.237 0 0 1-.05-.078.264.264 0 0 1-.018-.1c0-.037.006-.07.018-.102a.221.221 0 0 1 .05-.077c.023-.02.049-.037.08-.049a.28.28 0 0 1 .2.001c.03.012.055.029.077.049a.231.231 0 0 1 .05.078.28.28 0 0 1 .018.102c0 .036-.006.07-.018.1a.21.21 0 0 1-.129.126.274.274 0 0 1-.1.017c-.036 0-.07-.006-.1-.018s-.056-.028-.078-.05zm.062-.176c0 .046.01.082.031.11s.049.04.084.04c.037 0 .066-.014.087-.04s.032-.066.032-.115-.01-.086-.03-.112-.05-.04-.088-.04c-.036 0-.065.013-.085.04s-.031.066-.031.117zm.443-.236v.297c0 .028.004.052.012.074a.16.16 0 0 0 .034.058.136.136 0 0 0 .051.037c.02.009.043.013.068.013a.18.18 0 0 0 .1-.026.212.212 0 0 0 .061-.062h.002a.589.589 0 0 0 .003.077h.114a.629.629 0 0 1-.004-.065v-.403H3.64v.234c0 .02-.003.039-.008.056s-.012.034-.022.046c-.01.014-.02.024-.034.032s-.03.011-.047.011-.032-.004-.044-.01a.075.075 0 0 1-.027-.028c-.007-.012-.011-.026-.014-.043s-.004-.035-.004-.055v-.243h-.12zm.68-.206H3.88v.117h.122v-.117zm-.122.674h.122v-.468H3.88v.468zm.244-.687v.687h.122v-.687h-.122zm.243 0v.687h.122v-.687h-.122zm.648.487H4.7a.11.11 0 0 0 .041.087c.027.02.061.031.104.031a.255.255 0 0 0 .136-.038l.002.1a.373.373 0 0 1-.257.014.208.208 0 0 1-.132-.126.28.28 0 0 1-.018-.104c0-.035.005-.068.016-.098a.227.227 0 0 1 .122-.127.251.251 0 0 1 .096-.018c.068 0 .12.02.154.061.034.041.052.104.052.189v.015l-.002.014zm-.11-.083c0-.04-.009-.066-.027-.084a.1.1 0 0 0-.071-.025.103.103 0 0 0-.072.027c-.02.017-.033.045-.036.082h.206zm.317.283v-.191c0-.123.04-.185.122-.185.015 0 .03.003.042.007l.002-.104c-.006-.003-.013-.004-.02-.005l-.02-.001c-.033 0-.06.01-.083.027s-.04.042-.051.073H5.21v-.021a.401.401 0 0 0-.003-.048v-.02h-.115a.806.806 0 0 1 .003.066l.001.073v.33h.124zm.43-.687v.687h.123v-.687h-.122zm.648.487h-.313a.11.11 0 0 0 .04.087c.027.02.062.031.104.031a.255.255 0 0 0 .137-.038l.002.1a.373.373 0 0 1-.258.014.208.208 0 0 1-.132-.126.28.28 0 0 1-.018-.104c0-.035.006-.068.017-.098A.227.227 0 0 1 6 20.241a.251.251 0 0 1 .096-.018c.068 0 .119.02.154.061.034.041.051.104.051.189v.015l-.002.014zm-.11-.083c0-.04-.008-.066-.026-.084a.1.1 0 0 0-.072-.025.103.103 0 0 0-.071.027c-.021.017-.033.045-.036.082h.205zm.44-.283v.098h-.092v.09h.09v.207c0 .062.012.107.036.135.024.027.063.042.117.042l.045-.003a.147.147 0 0 0 .038-.01l-.003-.092a.136.136 0 0 1-.044.006c-.03 0-.05-.007-.059-.024s-.014-.043-.014-.078v-.183h.112v-.09h-.112v-.137l-.114.039zm.303.566h.122v-.468h-.122v.468zm.122-.674h-.122v.117h.122v-.117zm.838.674v-.272a.415.415 0 0 0-.008-.081.197.197 0 0 0-.025-.066c-.012-.018-.028-.033-.047-.044s-.044-.016-.074-.016c-.034 0-.066.007-.095.023s-.051.04-.068.07c-.01-.03-.025-.053-.05-.069s-.05-.024-.083-.024-.063.007-.09.024a.159.159 0 0 0-.066.066h-.002v-.04a.268.268 0 0 0-.003-.039h-.114l.004.075v.393h.122v-.236c0-.022.003-.042.008-.06.006-.017.012-.033.022-.046s.02-.022.031-.029.026-.01.04-.01c.025 0 .044.008.057.027a.125.125 0 0 1 .02.07v.284h.122v-.231c0-.048.009-.085.027-.112s.042-.039.07-.039c.053 0 .079.041.079.122v.26h.123zm.15-.056a.237.237 0 0 1-.05-.078.264.264 0 0 1-.019-.1c0-.037.006-.07.018-.102a.221.221 0 0 1 .051-.077c.022-.02.048-.037.079-.049a.28.28 0 0 1 .2.001c.03.012.055.029.077.049a.231.231 0 0 1 .05.078.28.28 0 0 1 .018.102c0 .036-.006.07-.018.1a.21.21 0 0 1-.129.126.274.274 0 0 1-.1.017c-.036 0-.07-.006-.1-.018s-.056-.028-.077-.05zm.061-.176c0 .046.01.082.031.11s.05.04.084.04c.037 0 .066-.014.087-.04s.032-.066.032-.115-.01-.086-.03-.112-.05-.04-.088-.04c-.036 0-.065.013-.085.04s-.031.066-.031.117zm.886.232v-.272a.381.381 0 0 0-.009-.086.162.162 0 0 0-.028-.065c-.014-.018-.03-.032-.052-.042s-.048-.014-.079-.014a.173.173 0 0 0-.155.09h-.002v-.042l-.004-.037h-.115l.003.075.001.07v.323h.12v-.212a.24.24 0 0 1 .02-.11.128.128 0 0 1 .04-.043c.017-.01.036-.017.056-.017s.035.004.047.012.02.019.025.033c.006.014.01.03.01.05.002.019.002.04.002.062v.225h.12zm.137 0h.126v-.122h-.126v.122zm-.007-.635.02.452h.102l.021-.452H9.12zm-7.697 1.745v-.107h-.355v.635h.128v-.265h.215v-.103h-.215v-.16h.227zm.208-.146h-.122v.116h.122v-.116zm-.122.674h.122v-.468h-.122v.468zm.4-.393c.036 0 .073.01.112.027l.01-.091a.334.334 0 0 0-.203-.012.156.156 0 0 0-.059.028.127.127 0 0 0-.05.105c0 .035.009.062.028.083s.05.038.096.053l.046.017a.14.14 0 0 1 .028.017c.006.005.01.01.013.016a.053.053 0 0 1 .005.022.04.04 0 0 1-.023.037.104.104 0 0 1-.054.013.297.297 0 0 1-.132-.033l-.006.097a.37.37 0 0 0 .144.025.284.284 0 0 0 .079-.01c.023-.006.043-.016.06-.029a.133.133 0 0 0 .053-.11.14.14 0 0 0-.009-.053.127.127 0 0 0-.068-.066.439.439 0 0 0-.056-.022l-.04-.015c-.012-.005-.02-.009-.027-.014s-.011-.01-.014-.015a.045.045 0 0 1-.004-.02c0-.017.007-.028.02-.037a.092.092 0 0 1 .051-.013zm.388 0c.036 0 .073.01.112.027l.01-.091a.334.334 0 0 0-.204-.012.156.156 0 0 0-.058.028.127.127 0 0 0-.051.105c0 .035.01.062.028.083s.052.038.096.053l.046.017a.14.14 0 0 1 .028.017c.007.005.011.01.014.016a.053.053 0 0 1 .004.022.04.04 0 0 1-.023.037.104.104 0 0 1-.053.013.297.297 0 0 1-.132-.033l-.007.097a.37.37 0 0 0 .145.025.284.284 0 0 0 .079-.01c.023-.006.043-.016.06-.029a.133.133 0 0 0 .053-.11.14.14 0 0 0-.009-.053.127.127 0 0 0-.068-.066.439.439 0 0 0-.056-.022l-.041-.015c-.011-.005-.02-.009-.026-.014s-.012-.01-.014-.015a.045.045 0 0 1-.004-.02c0-.017.006-.028.02-.037a.092.092 0 0 1 .05-.013zm.466.104c.011 0 .023 0 .034.003 0-.037-.009-.064-.026-.08-.018-.016-.046-.024-.084-.024-.025 0-.05.004-.075.012s-.048.017-.068.03l-.004-.095a.396.396 0 0 1 .168-.037.29.29 0 0 1 .093.014.18.18 0 0 1 .063.038.156.156 0 0 1 .035.06.25.25 0 0 1 .011.08V22.159l-.001.031a1.606 1.606 0 0 0 .006.15h-.106a.261.261 0 0 1-.002-.017v-.04l.002-.021h-.002a.181.181 0 0 1-.063.063.19.19 0 0 1-.098.024c-.023 0-.044-.003-.063-.01s-.036-.017-.05-.028a.143.143 0 0 1-.044-.107c0-.05.021-.088.063-.114s.1-.04.178-.04h.033zm.014.071h-.019a.274.274 0 0 0-.11.018.058.058 0 0 0-.039.057c0 .02.007.036.02.047s.03.017.053.017c.016 0 .03-.003.045-.008s.027-.013.038-.024a.117.117 0 0 0 .025-.042.197.197 0 0 0 .008-.063l-.02-.002zm.358.218v-.192c0-.123.04-.184.122-.184.015 0 .03.003.042.007l.002-.105c-.006-.003-.013-.004-.02-.005h-.02c-.033 0-.06.01-.083.027s-.04.042-.051.073h-.002v-.022a.401.401 0 0 0-.002-.047l-.001-.02h-.115a.806.806 0 0 1 .003.066l.001.073v.329h.124zm.615-.2h-.313a.11.11 0 0 0 .04.087c.027.02.062.03.104.03a.255.255 0 0 0 .136-.037l.002.1a.373.373 0 0 1-.257.014.208.208 0 0 1-.132-.126.28.28 0 0 1-.018-.104c0-.036.005-.068.017-.098a.227.227 0 0 1 .122-.127.251.251 0 0 1 .095-.019c.068 0 .12.02.154.062.034.04.052.103.052.188v.016l-.002.014zm-.11-.083c0-.04-.009-.067-.026-.084a.1.1 0 0 0-.072-.026.103.103 0 0 0-.071.028c-.021.017-.033.045-.036.082h.205zm.53-.391h-.122v.116h.122v-.116zm-.122.674h.122v-.468h-.122v.468zm.244-.688v.688h.122v-.688H4.29zm.568.615h-.002l.001.021.001.032v.211h-.121v-.517l-.001-.076a.808.808 0 0 0-.004-.066h.117a.298.298 0 0 1 .003.035v.04h.002c.02-.029.042-.05.067-.065a.186.186 0 0 1 .091-.022c.03 0 .058.006.083.018s.045.027.062.049a.22.22 0 0 1 .04.075c.008.03.012.062.012.099a.348.348 0 0 1-.013.101c-.01.03-.023.057-.04.08a.176.176 0 0 1-.148.069.16.16 0 0 1-.09-.023.18.18 0 0 1-.06-.061zm0-.16c0 .02.003.041.009.059a.156.156 0 0 0 .023.048c.01.014.022.024.036.032a.111.111 0 0 0 .095 0c.014-.008.025-.018.035-.032s.016-.03.021-.048.007-.039.007-.062c0-.045-.01-.082-.028-.108s-.046-.04-.08-.04c-.019 0-.035.004-.049.012s-.026.017-.036.031-.018.03-.024.047a.214.214 0 0 0-.008.06zm.844.033h-.314a.11.11 0 0 0 .041.087c.027.02.061.03.104.03a.255.255 0 0 0 .136-.037l.002.1a.373.373 0 0 1-.257.014.208.208 0 0 1-.132-.126.28.28 0 0 1-.018-.104c0-.036.005-.068.016-.098a.227.227 0 0 1 .122-.127.251.251 0 0 1 .096-.019c.068 0 .12.02.154.062.034.04.052.103.052.188v.016l-.002.014zm-.11-.083c0-.04-.009-.067-.027-.084a.1.1 0 0 0-.071-.026.103.103 0 0 0-.072.028c-.02.017-.033.045-.036.082h.206zm.317.283v-.192c0-.123.04-.184.122-.184.015 0 .029.003.042.007l.002-.105c-.006-.003-.013-.004-.02-.005h-.02c-.033 0-.06.01-.083.027s-.04.042-.051.073H5.9v-.022a.401.401 0 0 0-.003-.047v-.02h-.115a.806.806 0 0 1 .003.066l.001.073v.329h.124zm.658 0v-.273a.381.381 0 0 0-.008-.086.162.162 0 0 0-.029-.064c-.013-.019-.03-.032-.052-.042s-.048-.015-.079-.015a.173.173 0 0 0-.155.09h-.002v-.04l-.004-.038h-.115l.003.074.001.07v.324h.12v-.212a.24.24 0 0 1 .02-.11.128.128 0 0 1 .04-.043c.017-.011.036-.017.056-.017s.035.004.047.012.02.018.025.033c.006.014.01.03.01.049.002.02.002.04.002.062v.226h.12zm.15-.057a.237.237 0 0 1-.05-.077.264.264 0 0 1-.019-.1c0-.038.006-.07.018-.102a.221.221 0 0 1 .051-.077c.022-.02.048-.037.079-.05s.065-.017.102-.017a.248.248 0 0 1 .175.068.231.231 0 0 1 .05.078.28.28 0 0 1 .018.101.23.23 0 0 1-.068.177.212.212 0 0 1-.078.049.274.274 0 0 1-.1.018c-.037 0-.07-.006-.1-.018s-.057-.028-.078-.05zm.061-.176c0 .046.01.082.032.11s.048.04.084.04c.036 0 .065-.013.086-.04s.033-.066.033-.114-.01-.086-.032-.113-.05-.039-.086-.039c-.037 0-.065.013-.086.04s-.03.066-.03.116zm.471.233h.127v-.122H7.25v.122zm-.007-.635.02.451h.102l.022-.45h-.144z"/>
</symbol></svg>
