<svg xmlns="http://www.w3.org/2000/svg" viewBox="0 0 24 24" xml:space="preserve"><symbol id="icon">
    <path fill="none" d="M0 0h24v24H0z"/>
    <path d="M14.125 1.953V0h-.75L0 2.5v18.719L13.406 24h.719v-2.234H24V1.953h-9.875zM9.47 16.905 8 16.655c-.21-1.435-.96-6.39-.97-6.75l-1.093 6.407L4 16 3 8l1.5-.188.562 5.218.843-5.405 2.125-.312.657 5.217c.013-.335.633-4.613.75-5.405L11 7l-1.53 9.905zM23 20.765h-8.875v-1.848h7.688v-1h-7.688v-1.55h7.688v-1h-7.688v-1.55h7.688v-1h-7.688v-1.55h7.688v-1h-7.688v-1.55h7.688v-1h-7.688v-1.55h7.688v-1h-7.688V2.953H23v17.813z"/>
</symbol></svg>
