<svg xmlns="http://www.w3.org/2000/svg" viewBox="0 0 24 24" xml:space="preserve"><symbol id="icon">
    <path fill="none" d="M0 0h24v24H0z"/>
    <path d="M17.938 4.818h3.917V7h-3.917zM17.938 7.818h3.917V10h-3.917zM17.938 10.817h3.917v2.182h-3.917zM17.938 13.816h3.917v2.182h-3.917zM17.938 16.816h3.917v2.182h-3.917z"/>
    <path d="M14.125 1.953V0h-.75L0 2.5v18.719L13.406 24h.719v-2.234H24V1.953h-9.875zM7.78 16.687 6.438 13.75c-.058-.12-.098-.363-.158-.688h-.03a5.998 5.998 0 0 1-.22.718l-.875 2.47L3 16l2-4-1.78-4 .093-.063 2.124-.25L6.064 10c.097.237.172.52.25.845h.032c.05-.197.148-.49.28-.875l1.25-2.69 2.28-.28-2.593 4.97L10.22 17l-2.44-.313zM23 20.766h-8.875v-1.769h2.865v-2.181h-2.865v-.818h2.865v-2.182h-2.865v-.818h2.865v-2.181h-2.865v-.818h2.865V7.818h-2.865V7h2.865V4.818h-2.865V2.953H23v17.813z"/>
</symbol></svg>
