<svg xmlns="http://www.w3.org/2000/svg" viewBox="0 0 24 24" xml:space="preserve"><symbol id="icon">
    <path fill="none" d="M0 0h24v24H0z"/>
    <path d="m6.5 9.03-.75.065.03 2.75h.75c1.065-.005 1.603-.512 1.595-1.5-.007-.97-.567-1.395-1.625-1.315z"/>
    <path d="M14.125 2.86V0h-.75L0 2.5v18.719L13.406 24h.719v-2.828H24V2.859h-9.875zM6.687 13.404l-.907-.06.032 3.06L4 16.187V7.75l2.813-.313c.172-.014.347-.032.5-.032 2.307.027 2.624 1.895 2.624 2.907 0 1.078-.782 3.25-3.25 3.093zM23 20.172h-8.875v-2.167h7.625v-1h-7.625V15.88h7.625v-1h-7.625v-3.279a3.465 3.465 0 0 0 2.98 1.708 3.48 3.48 0 0 0 3.478-3.48h-3.479V6.352c-1.271 0-2.372.689-2.979 1.707V3.859H23v16.313z"/>
    <path d="M17.927 5.541v3.48h3.48a3.48 3.48 0 0 0-3.48-3.48z"/>
</symbol></svg>
