<svg xmlns="http://www.w3.org/2000/svg" viewBox="0 0 24 24" xml:space="preserve"><symbol id="icon">
    <path fill="none" d="M0 0h24v24H0z"/>
    <path d="M13.198 2c.938 0 1.811.105 2.596.313.753.2 1.409.495 1.949.875.51.36.897.808 1.182 1.369.284.56.428 1.24.428 2.022 0 1.14-.262 2.033-.778 2.654-.55.661-1.364 1.178-2.42 1.536l-.68.23v1.595l.8.165c3.267.672 3.645 2.533 3.645 3.874 0 1.123-.212 2.023-.63 2.675a4.807 4.807 0 0 1-1.675 1.612 7.145 7.145 0 0 1-2.421.841c-.96.159-1.918.239-2.847.239H4.08V2h9.118m-5.255 8.7H10.582c.535 0 1.065-.042 1.575-.124a5.808 5.808 0 0 0 1.504-.44 3.316 3.316 0 0 0 1.28-1.015c.364-.481.549-1.071.549-1.754 0-.723-.179-1.328-.531-1.799a3.023 3.023 0 0 0-1.287-.986 5.257 5.257 0 0 0-1.519-.354c-.49-.045-.997-.068-1.508-.068H7.943v6.54m0 9.14h2.733c.559 0 1.123-.029 1.675-.084a5.85 5.85 0 0 0 1.71-.422 3.398 3.398 0 0 0 1.418-1.092c.384-.51.578-1.169.578-1.956 0-.802-.198-1.479-.588-2.01a3.328 3.328 0 0 0-1.435-1.121 6.003 6.003 0 0 0-1.665-.4 16.207 16.207 0 0 0-1.63-.085H7.943v7.17M13.198 1H3.08v22h9.267c.987 0 1.99-.084 3.01-.252a8.103 8.103 0 0 0 2.758-.961 5.836 5.836 0 0 0 2.017-1.939c.525-.82.788-1.89.788-3.215 0-2.626-1.482-4.244-4.444-4.854v-.063c1.24-.42 2.195-1.034 2.868-1.843.672-.81 1.009-1.907 1.009-3.294 0-.946-.18-1.77-.536-2.474A4.689 4.689 0 0 0 18.32 2.37c-.642-.452-1.398-.793-2.27-1.024A11.12 11.12 0 0 0 13.198 1zM8.943 9.7V5.16h1.702c.483 0 .956.021 1.418.064.462.042.872.136 1.23.283.356.147.645.368.866.662.22.294.331.693.331 1.198 0 .462-.116.846-.347 1.15a2.315 2.315 0 0 1-.898.71c-.368.168-.783.288-1.245.362-.462.074-.935.11-1.418.11h-1.64zm0 9.14v-5.17h1.796c.504 0 1.014.027 1.529.08.515.052.977.162 1.387.33.41.169.745.431 1.008.788.263.358.394.83.394 1.418 0 .568-.126 1.02-.378 1.356a2.403 2.403 0 0 1-1.008.772 4.83 4.83 0 0 1-1.419.347 15.76 15.76 0 0 1-1.576.079H8.943z"/>
</symbol></svg>
