<?xml version="1.0" encoding="UTF-8"?>
<svg id="a" data-name="3219" xmlns="http://www.w3.org/2000/svg" viewBox="0 0 32 32">
  <path d="M0,0v32h32V0H0ZM20.57,6.11h1.85v17.77h-1.85V6.11ZM22.65,24.97v.93h-.93v-.93h.93ZM19.73,6.11h.46v17.77h-.46V6.11ZM12.36,6.11h1.85v17.77h-1.85V6.11ZM1.51,1.51h9.23v2H3.51v6.8H1.51V1.51ZM6.41,23.88V6.11h2.78v17.77h-2.78ZM8.27,24.97v.93h-.93v-.93h.93ZM10.31,30.5H1.51v-9.23h2v7.23h6.8v2ZM10.32,25.89h-.93v-.93h.93v.93ZM11,23.88h-.93V6.11h.93v17.77ZM11.36,6.11h.46v17.77h-.46V6.11ZM12.37,25.89h-.93v-.93h.93v.93ZM14.43,25.89h-.93v-.93h.93v.93ZM16.48,25.89h-.93v-.93h.93v.93ZM16.48,23.88h-.93V6.11h.93v17.77ZM17.16,6.11h.46v17.77h-.46V6.11ZM18.54,25.89h-.93v-.93h.93v.93ZM19.22,23.88h-.93V6.11h.93v17.77ZM20.59,25.89h-.93v-.93h.93v.93ZM30.51,30.5h-9.23v-2h7.23v-6.8h2v8.8ZM23.31,23.88V6.11h1.85v17.77h-1.85ZM24.7,24.97v.93h-.93v-.93h.93ZM30.52,10.75h-2V3.52h-6.8V1.52h8.8v9.23Z" fill="#1d1d1b"/>
</svg>