<?xml version="1.0" encoding="UTF-8"?>
<svg id="a" data-name="3219" xmlns="http://www.w3.org/2000/svg" viewBox="0 0 40 40">
  <path d="M0-.06v40h40V-.06H0ZM27.57,1.49h10.87v11.41h-2.25V3.74h-8.62V1.49ZM29.19,29.95V7.5h2.34v22.45h-2.34ZM30.95,31.32v1.17h-1.17v-1.17h1.17ZM25.73,7.5h2.34v22.45h-2.34V7.5ZM28.35,31.32v1.17h-1.17v-1.17h1.17ZM24.67,7.5h.59v22.45h-.59V7.5ZM15.35,7.5h2.34v22.45h-2.34V7.5ZM1.46,1.5h11.41v2.25H3.71v8.62H1.46V1.5ZM7.84,29.95V7.5h3.51v22.45h-3.51ZM10.18,31.32v1.17h-1.17v-1.17h1.17ZM12.33,38.49H1.46v-11.41h2.25v9.16h8.62v2.25ZM12.78,32.49h-1.17v-1.17h1.17v1.17ZM13.64,29.95h-1.17V7.5h1.17v22.45ZM14.09,7.5h.59v22.45h-.59V7.5ZM15.37,32.49h-1.17v-1.17h1.17v1.17ZM17.97,32.49h-1.17v-1.17h1.17v1.17ZM20.56,32.49h-1.17v-1.17h1.17v1.17ZM20.56,29.95h-1.17V7.5h1.17v22.45ZM21.42,7.5h.59v22.45h-.59V7.5ZM23.16,32.49h-1.17v-1.17h1.17v1.17ZM24.02,29.95h-1.17V7.5h1.17v22.45ZM25.75,32.49h-1.17v-1.17h1.17v1.17ZM38.47,38.49h-11.41v-2.25h9.16v-8.62h2.25v10.87Z" fill="#1d1d1b"/>
</svg>