<?xml version="1.0" encoding="UTF-8"?>
<svg id="a" data-name="3219" xmlns="http://www.w3.org/2000/svg" viewBox="0 0 64 64">
  <path d="M19.33,12.11h2v38.36h-2V12.11ZM26.72,54.81h2v-2h-2v2ZM23.09,12.11h-1v38.36h1V12.11ZM22.29,54.81h2v-2h-2v2ZM15.42,54.81v-2h-2v2h2ZM17.85,52.81v2h2v-2h-2ZM45.97,12.11h-4v38.36h4V12.11ZM41.16,12.11h-1v38.36h1V12.11ZM17.42,12.11h-6v38.36h6V12.11ZM28.24,12.11h-4v38.36h4V12.11ZM44.46,54.81h2v-2h-2v2ZM42.02,52.81h-2v2h2v-2ZM51.89,12.11h-4v38.36h4V12.11ZM50.89,54.81v-2h-2v2h2ZM37.06,50.48h2V12.11h-2v38.36ZM35.59,54.81h2v-2h-2v2ZM31.15,54.81h2v-2h-2v2ZM31.15,50.48h2V12.11h-2v38.36ZM35.61,12.11h-1v38.36h1V12.11ZM.03,21.25h2.75V2.77h19.23V.02H.03v21.23ZM42.78-.02v2.75h18.48v19.24h2.75V-.02h-21.23ZM61.22,61.23h-19.23v2.75h21.98v-21.23h-2.75v18.48ZM2.75,41.99H0v21.99h21.23v-2.75H2.75v-19.24Z" fill="#1e1e1c"/>
</svg>