<?xml version="1.0" encoding="UTF-8"?>
<svg id="a" data-name="3219" xmlns="http://www.w3.org/2000/svg" viewBox="0 0 64 64">
  <path d="M0,0V64h64V0H0ZM41.97,10.64h4v38.38h-4V10.64ZM46.45,51.35v2h-2v-2h2ZM40.16,10.64h1v38.38h-1V10.64ZM24.23,10.64h4v38.38h-4V10.64ZM3.02,3.21h17.83v2.75H5.77v14.22h-2.75V3.21ZM17.83,51.35h2v2h-2v-2ZM11.4,49.01V10.64h6v38.38h-6ZM15.4,51.35v2h-2v-2h2ZM20,61.01H3.03v-17.83h2.75v15.08h14.22v2.75ZM21.31,49.01h-2V10.64h2v38.38ZM22.07,10.64h1v38.38h-1V10.64ZM24.27,53.35h-2v-2h2v2ZM28.71,53.35h-2v-2h2v2ZM33.14,53.35h-2v-2h2v2ZM33.14,49.01h-2V10.64h2v38.38ZM34.6,10.64h1v38.38h-1V10.64ZM37.58,53.35h-2v-2h2v2ZM39.06,49.01h-2V10.64h2v38.38ZM42.01,53.35h-2v-2h2v2ZM61.01,61.01h-17.83v-2.75h15.08v-14.22h2.75v16.97ZM47.89,49.01V10.64h4v38.38h-4ZM50.89,51.35v2h-2v-2h2ZM61.01,20.85h-2.75V5.77h-14.22v-2.75h16.97v17.83Z" fill="#1d1d1b"/>
</svg>