<?xml version="1.0" encoding="UTF-8"?>
<svg id="a" data-name="3219" xmlns="http://www.w3.org/2000/svg" viewBox="0 0 16 16">
  <path d="M1.48,5.49H-.01V.02h5.65v1.5H1.48v3.98ZM10.52,0v1.5h3.97v4.16h1.5V0h-5.47ZM14.49,14.49h-4.15v1.5h5.65v-5.48h-1.5v3.98ZM1.48,10.34H-.01v5.66h5.47v-1.5H1.48v-4.16ZM5.32,3h-.5v9.59h.5V3ZM4.45,13.68h.5v-.5h-.5v.5ZM4.34,3h-1.5v9.59h1.5V3ZM3.84,13.68v-.5h-.5v.5h.5ZM10.27,3h-.25v9.59h.25V3ZM7.05,3h-1v9.59h1V3ZM11.48,3h-1v9.59h1V3ZM11.1,13.68h.5v-.5h-.5v.5ZM12.7,13.68v-.5h-.5v.5h.5ZM8.89,3h-.25v9.59h.25V3ZM8.88,13.68h.5v-.5h-.5v.5ZM9.25,12.59h.5V3h-.5v9.59ZM10.49,13.18h-.5v.5h.5v-.5ZM5.76,3h-.25v9.59h.25V3ZM12.95,3h-1v9.59h1V3ZM6.67,13.68h.5v-.5h-.5v.5ZM5.56,13.68h.5v-.5h-.5v.5ZM7.77,13.68h.5v-.5h-.5v.5ZM7.77,12.59h.5V3h-.5v9.59Z" fill="#1e1e1c"/>
</svg>