<?xml version="1.0" encoding="UTF-8"?>
<svg id="a" data-name="3219" xmlns="http://www.w3.org/2000/svg" viewBox="0 0 40 40">
  <path d="M2.22,13.41H-.03V0h13.87v2.25H2.22v11.16ZM37.71,13.87h2.25V0h-13.41v2.25h11.16v11.62ZM37.72,26.58v11.16h-11.62v2.25h13.87v-13.41h-2.25ZM2.22,26.12H-.03v13.87h13.41v-2.25H2.22v-11.62ZM13.29,7.61h-1.25v23.98h1.25V7.61ZM11.12,34.3h1.25v-1.25h-1.25v1.25ZM17.62,7.61h-2.5v23.98h2.5V7.61ZM10.85,7.61h-3.75v23.98h3.75V7.61ZM25.7,7.61h-.62v23.98h.62V7.61ZM32.4,7.61h-2.5v23.98h2.5V7.61ZM31.78,34.3v-1.25h-1.25v1.25h1.25ZM27.75,34.3h1.25v-1.25h-1.25v1.25ZM28.7,7.61h-2.5v23.98h2.5V7.61ZM19.44,31.59h1.25V7.61h-1.25v23.98ZM22.22,7.61h-.62v23.98h.62V7.61ZM22.21,34.3h1.25v-1.25h-1.25v1.25ZM26.23,33.05h-1.25v1.25h1.25v-1.25ZM23.13,31.59h1.25V7.61h-1.25v23.98ZM16.66,34.3h1.25v-1.25h-1.25v1.25ZM13.89,34.3h1.25v-1.25h-1.25v1.25ZM14.39,7.61h-.62v23.98h.62V7.61ZM9.6,34.3v-1.25h-1.25v1.25h1.25ZM19.44,34.3h1.25v-1.25h-1.25v1.25Z" fill="#1e1e1c"/>
</svg>