<?xml version="1.0" encoding="UTF-8"?>
<svg id="a" data-name="3219" xmlns="http://www.w3.org/2000/svg" viewBox="0 0 24 24">
  <path d="M1.79,8.13H.04V0h8.4v1.75H1.79v6.38ZM15.91,0v1.75h6.38v6.65h1.75V0h-8.13ZM22.28,22.23h-6.65v1.75h8.4v-8.13h-1.75v6.38ZM1.79,15.6H.04v8.4h8.13v-1.75H1.79v-6.65ZM5.76,20.52v-.75h-.75v.75h.75ZM6.51,4.5h-2.25v14.39h2.25V4.5ZM6.67,20.52h.75v-.75h-.75v.75ZM10.57,4.5h-1.5v14.39h1.5V4.5ZM17.22,4.5h-1.5v14.39h1.5V4.5ZM16.65,20.52h.75v-.75h-.75v.75ZM15.42,4.5h-.38v14.39h.38V4.5ZM7.98,4.5h-.75v14.39h.75V4.5ZM11.66,18.89h.75V4.5h-.75v14.39ZM13.88,18.89h.75V4.5h-.75v14.39ZM15.74,19.77h-.75v.75h.75v-.75ZM19.07,20.52v-.75h-.75v.75h.75ZM19.44,4.5h-1.5v14.39h1.5V4.5ZM13.33,20.52h.75v-.75h-.75v.75ZM8.64,4.5h-.38v14.39h.38V4.5ZM10,20.52h.75v-.75h-.75v.75ZM13.33,4.5h-.38v14.39h.38V4.5ZM8.33,20.52h.75v-.75h-.75v.75ZM11.66,20.52h.75v-.75h-.75v.75Z" fill="#1e1e1c"/>
</svg>