<?xml version="1.0" encoding="UTF-8"?>
<svg id="a" data-name="3219" xmlns="http://www.w3.org/2000/svg" viewBox="0 0 16 16">
  <path d="M3.51,8.7h1.07v1.07h-1.07v-1.07ZM16.01,4.23v-.24c0-1.24-1.01-2.25-2.25-2.25H2.26C1.02,1.74.01,2.75.01,3.99v.24h16ZM16.01,6.23v5.76c0,1.24-1.01,2.25-2.25,2.25H2.26C1.02,14.24.01,13.23.01,11.99v-5.76h16ZM6.09,8.45c0-.69-.56-1.25-1.25-1.25h-1.57c-.69,0-1.25.56-1.25,1.25v1.57c0,.69.56,1.25,1.25,1.25h1.57c.69,0,1.25-.56,1.25-1.25v-1.57ZM11.48,10.52c0-.41-.34-.75-.75-.75h-2.72c-.41,0-.75.34-.75.75s.34.75.75.75h2.72c.41,0,.75-.34.75-.75ZM14.2,8.16c0-.41-.34-.75-.75-.75h-5.44c-.41,0-.75.34-.75.75s.34.75.75.75h5.44c.41,0,.75-.34.75-.75Z" fill="#1e1e1c"/>
</svg>