<?xml version="1.0" encoding="UTF-8"?>
<svg id="a" data-name="3219" xmlns="http://www.w3.org/2000/svg" viewBox="0 0 40 40">
  <path d="M.02,15.24v16.3c0,1.45,1.18,2.62,2.62,2.62h34.75c1.45,0,2.62-1.18,2.62-2.62V15.24H.02ZM14.72,26.78c0,1.17-.95,2.12-2.12,2.12h-5.55c-1.17,0-2.12-.95-2.12-2.12v-5.55c0-1.17.95-2.12,2.12-2.12h5.55c1.17,0,2.12.95,2.12,2.12v5.55ZM26.33,26.64h-7.08c-.62,0-1.12-.5-1.12-1.12s.5-1.12,1.12-1.12h7.08c.62,0,1.12.5,1.12,1.12s-.5,1.12-1.12,1.12ZM33.41,22.33h-14.17c-.62,0-1.12-.5-1.12-1.12s.5-1.12,1.12-1.12h14.17c.62,0,1.12.5,1.12,1.12s-.5,1.12-1.12,1.12ZM12.47,25.13v1.53h-5.3v-1.53h1.67v-2.25h-1.67v-1.52h5.3v1.52h-1.6v2.25h1.6ZM.02,11.24v-2.74C.02,7.05,1.2,5.87,2.64,5.87h34.75c1.45,0,2.62,1.18,2.62,2.62v2.74H.02Z" fill="#1e1e1c"/>
</svg>