<?xml version="1.0" encoding="UTF-8"?>
<svg id="a" data-name="3219" xmlns="http://www.w3.org/2000/svg" viewBox="0 0 40 40">
  <path d="M37.38,5.93H2.63C1.18,5.93,0,7.1,0,8.55v23.04c0,1.45,1.18,2.62,2.62,2.62h34.75c1.45,0,2.62-1.18,2.62-2.62V8.55c0-1.45-1.18-2.62-2.62-2.62ZM2.26,12.42h35.5v1.75H2.26v-1.75ZM37.76,31.59c0,.21-.17.38-.37.38H2.63c-.21,0-.37-.17-.37-.38v-15.18h35.5v15.18ZM2.26,10.17v-1.62c0-.21.17-.38.37-.38h34.75c.21,0,.37.17.37.38v1.62H2.26ZM7.03,28.96h5.55c1.17,0,2.12-.95,2.12-2.12v-5.55c0-1.17-.95-2.12-2.12-2.12h-5.55c-1.17,0-2.12.95-2.12,2.12v5.55c0,1.17.95,2.12,2.12,2.12ZM12.46,21.41v1.53h-1.6v2.25h1.6v1.53h-5.3v-1.53h1.67v-2.25h-1.67v-1.53h5.3ZM18.11,25.57c0-.62.5-1.12,1.12-1.12h7.08c.62,0,1.12.5,1.12,1.12s-.5,1.12-1.12,1.12h-7.08c-.62,0-1.12-.5-1.12-1.12ZM18.11,21.25c0-.62.5-1.12,1.12-1.12h14.17c.62,0,1.12.5,1.12,1.12s-.5,1.12-1.12,1.12h-14.17c-.62,0-1.12-.5-1.12-1.12Z" fill="#1e1e1c"/>
</svg>