<?xml version="1.0" encoding="UTF-8"?>
<svg id="a" data-name="3219" xmlns="http://www.w3.org/2000/svg" viewBox="0 0 48 48">
  <path d="M15.48,32.85v.72h-7.5v-.72h2.82v-2.5h-2.82v-1.06h2.82v-2.5h-2.82v-.72h7.5v.72h-2.79v2.5h2.79v1.06h-2.79v2.5h2.79ZM48.02,14.43v-3.53c0-2.07-1.68-3.75-3.75-3.75H3.77C1.7,7.15.02,8.83.02,10.9v3.53h48ZM48.02,19.93v17.35c0,2.07-1.68,3.75-3.75,3.75H3.77c-2.07,0-3.75-1.68-3.75-3.75v-17.35h48ZM17.98,25.82c0-1.24-1.01-2.25-2.25-2.25H7.73c-1.24,0-2.25,1.01-2.25,2.25v8c0,1.24,1.01,2.25,2.25,2.25h8c1.24,0,2.25-1.01,2.25-2.25v-8ZM32.87,31.34c0-.69-.56-1.25-1.25-1.25h-8.54c-.69,0-1.25.56-1.25,1.25s.56,1.25,1.25,1.25h8.54c.69,0,1.25-.56,1.25-1.25ZM41.41,26.44c0-.69-.56-1.25-1.25-1.25h-17.07c-.69,0-1.25.56-1.25,1.25s.56,1.25,1.25,1.25h17.07c.69,0,1.25-.56,1.25-1.25Z" fill="#1e1e1c"/>
</svg>