<?xml version="1.0" encoding="UTF-8"?>
<svg id="a" data-name="3219" xmlns="http://www.w3.org/2000/svg" viewBox="0 0 16 16">
  <path d="M13.75,1.74H2.25C1.01,1.74,0,2.75,0,3.99v8c0,1.24,1.01,2.25,2.25,2.25h11.5c1.24,0,2.25-1.01,2.25-2.25V3.99c0-1.24-1.01-2.25-2.25-2.25ZM1.5,3.99c0-.41.34-.75.75-.75h11.5c.41,0,.75.34.75.75v.24H1.5v-.24ZM13.75,12.74H2.25c-.41,0-.75-.34-.75-.75v-5.76h13v5.76c0,.41-.34.75-.75.75ZM4.83,7.2h-1.57c-.69,0-1.25.56-1.25,1.25v1.57c0,.69.56,1.25,1.25,1.25h1.57c.69,0,1.25-.56,1.25-1.25v-1.57c0-.69-.56-1.25-1.25-1.25ZM4.58,9.77h-1.07v-1.07h1.07v1.07ZM11.13,10.52c0,.41-.34.75-.75.75h-2.72c-.41,0-.75-.34-.75-.75s.34-.75.75-.75h2.72c.41,0,.75.34.75.75ZM13.85,8.16c0,.41-.34.75-.75.75h-5.44c-.41,0-.75-.34-.75-.75s.34-.75.75-.75h5.44c.41,0,.75.34.75.75Z" fill="#1e1e1c"/>
</svg>