<?xml version="1.0" encoding="UTF-8"?>
<svg id="a" data-name="3219" xmlns="http://www.w3.org/2000/svg" viewBox="0 0 24 24">
  <path d="M21.32,3.4H2.55C1.11,3.4-.07,4.58-.07,6.03v11.92c0,1.45,1.17,2.62,2.61,2.62h18.78c1.44,0,2.61-1.18,2.61-2.62V6.03c0-1.45-1.17-2.62-2.61-2.62ZM22.19,17.95c0,.48-.39.88-.87.88H2.55c-.48,0-.87-.39-.87-.88v-8.19h20.52v8.19ZM1.68,7.24v-1.21c0-.48.39-.88.87-.88h18.78c.48,0,.87.39.87.88v1.21H1.68ZM4.94,17.21h1.96c1.03,0,1.87-.84,1.87-1.88v-1.97c0-1.03-.84-1.88-1.87-1.88h-1.96c-1.03,0-1.87.84-1.87,1.88v1.97c0,1.03.84,1.88,1.87,1.88ZM4.82,13.37c0-.07.06-.12.12-.12h1.96c.07,0,.12.06.12.12v1.97c0,.07-.06.12-.12.12h-1.96c-.07,0-.12-.06-.12-.12v-1.97ZM10.61,15.84c0-.48.39-.88.87-.88h4.18c.48,0,.87.39.87.88s-.39.88-.87.88h-4.18c-.48,0-.87-.39-.87-.88ZM10.61,12.69c0-.48.39-.88.87-.88h8.35c.48,0,.87.39.87.88s-.39.88-.87.88h-8.35c-.48,0-.87-.39-.87-.88Z" fill="#1e1e1c"/>
</svg>