<?xml version="1.0" encoding="UTF-8"?>
<svg id="a" data-name="3219" xmlns="http://www.w3.org/2000/svg" viewBox="0 0 32 32">
  <path d="M29.01,4.71H3.01C1.35,4.71,0,6.06,0,7.71v16.7c0,1.65,1.35,3,3,3h26c1.65,0,3-1.35,3-3V7.71c0-1.65-1.35-3-3-3ZM2.01,10.21h28v1.5H2.01v-1.5ZM30.01,24.41c0,.55-.45,1-1,1H3.01c-.55,0-1-.45-1-1v-10.7h28v10.7ZM2.01,8.21v-.5c0-.55.45-1,1-1h26c.55,0,1,.45,1,1v.5H2.01ZM5.9,23.23h4c1.1,0,2-.9,2-2v-4c0-1.1-.9-2-2-2h-4c-1.1,0-2,.9-2,2v4c0,1.1.9,2,2,2ZM9.9,17.23v1s-1.27,0-1.27,0v2h1.28v1s-4,0-4,0v-1h1.33v-2h-1.33v-1h4ZM14.39,20.56c0-.55.45-1,1-1h5.63c.55,0,1,.45,1,1s-.45,1-1,1h-5.63c-.55,0-1-.45-1-1ZM14.39,17c0-.55.45-1,1-1h11.26c.55,0,1,.45,1,1s-.45,1-1,1h-11.26c-.55,0-1-.45-1-1Z" fill="#1e1e1c"/>
</svg>