<?xml version="1.0" encoding="UTF-8"?>
<svg id="a" data-name="3219" xmlns="http://www.w3.org/2000/svg" viewBox="0 0 48 48">
  <path d="M44.26,7.14H3.76C1.69,7.14,0,8.83,0,10.89v26.38c0,2.07,1.68,3.75,3.75,3.75h40.5c2.07,0,3.75-1.68,3.75-3.75V10.89c0-2.07-1.68-3.75-3.75-3.75ZM2.51,15.67h43v3H2.51v-3ZM45.51,37.27c0,.69-.56,1.25-1.25,1.25H3.76c-.69,0-1.25-.56-1.25-1.25v-16.1h43v16.1ZM2.51,13.17v-2.28c0-.69.56-1.25,1.25-1.25h40.5c.69,0,1.25.56,1.25,1.25v2.28H2.51ZM7.72,36.06h8c1.24,0,2.25-1.01,2.25-2.25v-8c0-1.24-1.01-2.25-2.25-2.25H7.72c-1.24,0-2.25,1.01-2.25,2.25v8c0,1.24,1.01,2.25,2.25,2.25ZM15.47,26.06v.72h-2.79v2.5h2.79v1.06h-2.79v2.5h2.79v.72h-7.5v-.72h2.82v-2.5h-2.82v-1.06h2.82v-2.5h-2.82v-.72h7.5ZM21.82,31.33c0-.69.56-1.25,1.25-1.25h8.54c.69,0,1.25.56,1.25,1.25s-.56,1.25-1.25,1.25h-8.54c-.69,0-1.25-.56-1.25-1.25ZM21.82,26.43c0-.69.56-1.25,1.25-1.25h17.07c.69,0,1.25.56,1.25,1.25s-.56,1.25-1.25,1.25h-17.07c-.69,0-1.25-.56-1.25-1.25Z" fill="#1e1e1c"/>
</svg>