<?xml version="1.0" encoding="UTF-8"?>
<svg id="a" data-name="3219" xmlns="http://www.w3.org/2000/svg" viewBox="0 0 64 64">
  <path d="M64.01,13.95v4.17H0v-4.17C0,11.67,1.86,9.82,4.13,9.82h55.75c2.27,0,4.13,1.85,4.13,4.12ZM20.21,42.34h-3.11v-2.75h3.11v-1.63h-3.11v-2.75h3.11v-1.18h-9.5v1.18h3.22v2.75h-3.22v1.63h3.22v2.75h-3.22v1.19h9.5v-1.19ZM0,24.62h64v26.07c0,2.27-1.85,4.12-4.13,4.12H4.13C1.86,54.81,0,52.96,0,50.69v-26.07ZM29.38,34.24c0,.76.62,1.38,1.38,1.38h22.98c.76,0,1.38-.62,1.38-1.38s-.62-1.38-1.38-1.38h-22.98c-.76,0-1.38.62-1.38,1.38ZM29.38,39.83c0,.76.62,1.38,1.38,1.38h11.49c.76,0,1.38-.62,1.38-1.38s-.62-1.38-1.38-1.38h-11.49c-.76,0-1.38.62-1.38,1.38ZM7.96,43.91c0,1.31,1.07,2.38,2.38,2.38h10.25c1.31,0,2.38-1.07,2.38-2.38v-10.25c0-1.31-1.07-2.38-2.38-2.38h-10.25c-1.31,0-2.38,1.07-2.38,2.38v10.25Z" fill="#1e1e1c"/>
</svg>