<?xml version="1.0" encoding="UTF-8"?>
<svg id="a" data-name="3219" xmlns="http://www.w3.org/2000/svg" viewBox="0 0 40 40">
  <path d="M19.48,17.9c4.97,0,9.01-4.03,9.01-8.98S24.45-.05,19.48-.05,10.48,3.98,10.48,8.93s4.04,8.98,9.01,8.98ZM19.48,3.95c2.76,0,5,2.23,5,4.98s-2.24,4.98-5,4.98-5-2.23-5-4.98,2.24-4.98,5-4.98ZM10.96,25.09c-3.83,0-6.94,3.1-6.94,6.91v7.95H.02v-7.95C.02,25.98,4.93,21.09,10.96,21.09h15.65v4h-15.65ZM10.78,32h4v7.95h-4v-7.95ZM40.02,34.31h-5.52v5.63h-4v-5.63h-5.8v-4h5.8v-5.63h4v5.63h5.52v4Z" fill="#1e1e1c"/>
</svg>