<?xml version="1.0" encoding="UTF-8"?>
<svg id="a" data-name="3219" xmlns="http://www.w3.org/2000/svg" viewBox="0 0 64 64">
  <path d="M31.44,28.93c8,0,14.5-6.49,14.5-14.46S39.44,0,31.44,0s-14.5,6.49-14.5,14.46,6.51,14.46,14.5,14.46ZM31.44,5.01c5.24,0,9.5,4.24,9.5,9.46s-4.26,9.46-9.5,9.46-9.5-4.24-9.5-9.46,4.26-9.46,9.5-9.46ZM41.74,39.53h-24.93c-6.51,0-11.8,5.27-11.8,11.75v12.72H0v-12.72C0,42.05,7.54,34.53,16.81,34.53h24.93v5ZM17.22,51.28h5v12.72h-5v-12.72ZM64.01,54.29h-9.53v9.72h-5v-9.72h-9.98v-5h9.98v-9.71h5v9.71h9.53v5Z" fill="#1e1e1c"/>
</svg>