<?xml version="1.0" encoding="UTF-8"?>
<svg id="a" data-name="3219" xmlns="http://www.w3.org/2000/svg" viewBox="0 0 48 48">
  <path d="M23.38,21.05c5.83,0,10.57-4.72,10.57-10.53S29.21,0,23.38,0s-10.57,4.72-10.57,10.53,4.74,10.53,10.57,10.53ZM23.38,2.5c4.45,0,8.06,3.6,8.06,8.03s-3.62,8.03-8.06,8.03-8.06-3.6-8.06-8.03,3.62-8.03,8.06-8.03ZM32.58,29.03H12c-5.23,0-9.48,4.23-9.48,9.44v9.54H.02v-9.54C.02,31.88,5.39,26.53,12,26.53h20.58v2.5ZM12.93,38.47h2.5v9.54h-2.5v-9.54ZM48.02,40.09h-7.78v7.91h-2.5v-7.91h-8.11v-2.5h8.11v-7.91h2.5v7.91h7.78v2.5Z" fill="#1e1e1c"/>
</svg>