<?xml version="1.0" encoding="UTF-8"?>
<svg id="a" data-name="3219" xmlns="http://www.w3.org/2000/svg" viewBox="0 0 48 48">
  <path d="M23.38,21.45c5.93,0,10.75-4.81,10.75-10.72S29.31,0,23.38,0s-10.75,4.81-10.75,10.72,4.82,10.72,10.75,10.72ZM23.38,4.51c3.45,0,6.25,2.79,6.25,6.22s-2.8,6.22-6.25,6.22-6.25-2.79-6.25-6.22,2.8-6.22,6.25-6.22ZM12.98,30.03c-4.67,0-8.48,3.79-8.48,8.44v9.54H0v-9.54C0,31.33,5.82,25.52,12.98,25.52h18.57v4.5H12.98ZM12.91,38.47h4.5v9.54h-4.5v-9.54ZM48,41.09h-6.78v6.91h-4.5v-6.91h-7.11v-4.5h7.11v-6.91h4.5v6.91h6.78v4.5Z" fill="#1e1e1c"/>
</svg>