<?xml version="1.0" encoding="UTF-8"?>
<svg id="a" data-name="3219" xmlns="http://www.w3.org/2000/svg" viewBox="0 0 40 40">
  <path d="M19.99,29.95c-2.76,0-5,2.24-5,5.06s2.24,5,5,5h.05c2.76,0,5-2.24,5-5.05s-2.24-5.01-5.05-5.01ZM20.04,37.76h-.05c-1.52,0-2.75-1.23-2.75-2.8s1.23-2.75,2.8-2.75,2.75,1.23,2.75,2.8-1.23,2.75-2.75,2.75ZM39.76,8.77c-.22.27-.54.41-.87.41-.25,0-.51-.09-.72-.26-5.26-4.36-11.57-6.66-18.23-6.66S7.09,4.52,1.86,8.8c-.48.4-1.19.32-1.58-.16-.39-.48-.32-1.19.16-1.58C6.08,2.44,12.82.01,19.94.01s14,2.48,19.67,7.17c.48.4.55,1.11.15,1.59ZM34.65,15.19c.48.4.55,1.11.15,1.59-.22.27-.54.41-.87.41-.25,0-.51-.09-.72-.26-3.83-3.17-8.41-4.84-13.25-4.84s-9.34,1.64-13.15,4.75c-.48.39-1.19.32-1.58-.16-.39-.48-.32-1.19.16-1.58,4.21-3.44,9.25-5.26,14.57-5.26s10.45,1.85,14.69,5.36ZM28.84,23.05c.48.4.55,1.11.15,1.59-.22.27-.54.41-.87.41-.25,0-.51-.09-.72-.26-2.14-1.77-4.71-2.71-7.42-2.71s-5.23.92-7.36,2.66c-.48.4-1.19.32-1.58-.16-.39-.48-.32-1.19.16-1.58,2.54-2.07,5.58-3.17,8.78-3.17s6.3,1.12,8.86,3.23Z" fill="#1e1e1c"/>
</svg>