<?xml version="1.0" encoding="UTF-8"?>
<svg id="a" data-name="3219" xmlns="http://www.w3.org/2000/svg" viewBox="0 0 64 64">
  <path d="M32.04,46.68c-4.73,0-8.58,3.85-8.58,8.62s3.85,8.58,8.58,8.58h.04c4.73,0,8.58-3.85,8.58-8.62s-3.85-8.58-8.62-8.58ZM32.08,58.88h-.04c-1.97,0-3.58-1.61-3.58-3.62s1.61-3.58,3.62-3.58,3.58,1.61,3.58,3.62-1.61,3.58-3.58,3.58ZM63.49,14.79c-.5.6-1.21.91-1.93.91-.56,0-1.13-.19-1.59-.57-8.09-6.7-17.78-10.23-28.03-10.23S12.19,8.36,4.14,14.93c-1.07.87-2.65.71-3.52-.36-.87-1.07-.71-2.65.36-3.52C9.93,3.75,20.64-.12,31.94-.12s22.21,3.94,31.21,11.38c1.06.88,1.21,2.46.33,3.52ZM55.41,23.78c1.06.88,1.21,2.46.33,3.52-.5.6-1.21.91-1.93.91-.56,0-1.13-.19-1.59-.57-5.85-4.84-12.85-7.4-20.25-7.4s-14.26,2.51-20.08,7.26c-1.07.87-2.65.71-3.52-.36-.87-1.07-.71-2.65.36-3.52,6.72-5.49,14.76-8.39,23.24-8.39s16.68,2.95,23.43,8.54ZM46.32,36.06c1.06.88,1.21,2.46.33,3.52-.49.6-1.21.91-1.93.91-.56,0-1.13-.19-1.59-.57-3.22-2.66-7.06-4.07-11.12-4.07s-7.84,1.38-11.03,3.99c-1.07.87-2.65.71-3.52-.36-.87-1.07-.71-2.65.36-3.52,4.1-3.35,9.01-5.12,14.2-5.12s10.19,1.8,14.31,5.21Z" fill="#1e1e1c"/>
</svg>