<?xml version="1.0" encoding="UTF-8"?>
<svg id="a" data-name="3219" xmlns="http://www.w3.org/2000/svg" viewBox="0 0 32 32">
  <path d="M15.98,23.8c-2.24,0-4.07,1.83-4.07,4.14s1.82,4.07,4.07,4.07h.07c2.24,0,4.07-1.83,4.07-4.14s-1.83-4.07-4.14-4.07ZM16.05,30h-.07c-1.14,0-2.07-.93-2.07-2.14,0-1.14.93-2.07,2.13-2.07,1.14,0,2.07.93,2.07,2.14,0,1.14-.93,2.07-2.07,2.07ZM31.79,7.14c-.2.24-.48.36-.77.36-.22,0-.45-.08-.64-.23-4.16-3.44-9.15-5.27-14.42-5.27S5.79,3.79,1.65,7.18c-.43.35-1.06.29-1.41-.14-.35-.43-.29-1.06.14-1.41C4.89,1.95,10.27,0,15.96,0s11.17,1.98,15.7,5.72c.43.35.49.98.13,1.41ZM27.71,12.1c.43.35.49.98.13,1.41-.2.24-.48.36-.77.36-.22,0-.45-.08-.64-.23-3.02-2.5-6.64-3.82-10.47-3.82s-7.37,1.3-10.38,3.75c-.43.35-1.06.29-1.41-.14-.35-.43-.29-1.06.14-1.41,3.37-2.75,7.4-4.2,11.65-4.2s8.35,1.48,11.74,4.28ZM23.09,18.34c.43.35.49.98.13,1.41-.2.24-.48.36-.77.36-.22,0-.45-.08-.64-.23-1.68-1.39-3.7-2.13-5.83-2.13s-4.11.72-5.78,2.09c-.43.35-1.06.29-1.41-.14-.35-.43-.29-1.06.14-1.41,2.04-1.66,4.47-2.54,7.05-2.54s5.06.9,7.1,2.59Z" fill="#1e1e1c"/>
</svg>