<?xml version="1.0" encoding="UTF-8"?>
<svg id="a" data-name="3219" xmlns="http://www.w3.org/2000/svg" viewBox="0 0 32 32">
  <path d="M17.52-.02C9.69-.02,3.31,6.28,3.12,14.08,1.15,15.81-.06,18.14-.06,20.72c0,1.63.49,3.23,1.43,4.65L-.03,31.98l6.01-2.8c1.64.73,3.46,1.12,5.3,1.12,2.18,0,4.2-.53,5.93-1.43.1,0,.2.02.3.02,7.95,0,14.42-6.48,14.42-14.45S25.47-.02,17.52-.02ZM28.36,8.38c.85,1.52,1.38,3.23,1.52,5.05h-5.95c-.05-1.81-.24-3.51-.54-5.05h4.97ZM26.98,6.38h-4.06c-.44-1.51-1.01-2.81-1.68-3.83,2.26.71,4.24,2.06,5.74,3.83ZM18.63,13.43c-1.51-1.09-3.35-1.84-5.38-2.14.1-1.03.24-2.02.44-2.91h7.66c.33,1.5.54,3.21.6,5.05h-3.31ZM21.94,15.44c-.02.61-.07,1.19-.12,1.77-.29-.62-.66-1.22-1.09-1.77h1.21ZM17.52,2.06c1.17,0,2.41,1.64,3.29,4.32h-6.58c.87-2.68,2.12-4.32,3.29-4.32ZM13.8,2.55c-.67,1.02-1.24,2.31-1.68,3.83h-4.06c1.5-1.77,3.48-3.12,5.74-3.83ZM6.67,8.38h4.97c-.17.87-.29,1.8-.38,2.75-2.2,0-4.26.55-6,1.48.22-1.51.7-2.94,1.41-4.23ZM6.42,27.18l-.43-.21-3.24,1.51.75-3.55-.26-.36c-.86-1.17-1.31-2.5-1.31-3.85,0-4.18,4.19-7.58,9.35-7.58s9.35,3.4,9.35,7.58-4.19,7.58-9.35,7.58c-1.7,0-3.38-.39-4.86-1.12ZM21.24,26.31c.62-.95,1.16-2.15,1.59-3.53h3.88c-1.47,1.62-3.34,2.86-5.47,3.53ZM28.19,20.78h-4.85c.34-1.62.55-3.42.6-5.34h5.95c-.16,1.94-.76,3.75-1.7,5.34Z" fill="#1e1e1c"/>
</svg>