<?xml version="1.0" encoding="UTF-8"?>
<svg id="a" data-name="3219" xmlns="http://www.w3.org/2000/svg" viewBox="0 0 16 16">
  <path d="M14.69,3.07h-2.41c-.24-.99-.56-1.89-.97-2.63,1.37.52,2.55,1.44,3.38,2.63ZM12.73,6.49h3.24c-.07-.67-.23-1.31-.47-1.91h-2.94c.09.63.15,1.27.17,1.91ZM8.76.04c-.64,0-1.45,1.11-1.97,3.03h3.95C10.21,1.15,9.4.04,8.76.04ZM6.22.44c-1.37.52-2.55,1.44-3.38,2.63h2.41c.24-.99.56-1.89.97-2.63ZM12.53,10.04h2.91c.27-.64.45-1.33.52-2.05h-3.24c-.03.69-.09,1.38-.19,2.05ZM11.23,6.49c-.03-.68-.09-1.32-.18-1.91h-4.57c-.03.18-.05.36-.07.55,1.51.11,2.88.6,3.99,1.36h.83ZM4.96,4.58h-2.94c-.21.52-.34,1.07-.42,1.65.96-.57,2.09-.95,3.31-1.08.02-.19.03-.38.05-.57ZM12.73,13.29c.71-.47,1.34-1.05,1.85-1.73h-1.48c-.03.6-.15,1.19-.37,1.73ZM5.79,6.6c-1.61,0-3.07.53-4.13,1.39h-.11s.01.06.02.09C.58,8.92-.03,10.06-.03,11.31c0,.83.28,1.65.81,2.38l.2.27-.44,2.08,1.9-.89.32.16c.92.46,1.97.7,3.03.7,3.21,0,5.82-2.11,5.82-4.71s-2.61-4.71-5.82-4.71Z" fill="#1e1e1c"/>
</svg>