<?xml version="1.0" encoding="UTF-8"?>
<svg id="a" data-name="3219" xmlns="http://www.w3.org/2000/svg" viewBox="0 0 64 64">
  <path d="M26.16,13.02C28.02,5.69,31.09.98,34.18.04c.38-.01.75-.03,1.13-.03s.75.01,1.13.03c3.09.94,6.16,5.65,8.03,12.98h-18.31ZM59.32,13.02c-3.99-6.08-10.22-10.56-17.52-12.26,2.3,2.79,4.19,7.05,5.46,12.26h12.06ZM49.01,27.36h14.97c-.2-4.15-1.28-8.07-3.07-11.58h-13.06c.67,3.55,1.08,7.45,1.15,11.58ZM47.75,42.29h12.87c1.97-3.66,3.16-7.79,3.37-12.18h-14.97c-.08,4.37-.52,8.48-1.26,12.18ZM28.82.77c-7.29,1.69-13.52,6.17-17.52,12.26h12.06c1.27-5.21,3.16-9.47,5.46-12.26ZM22.77,15.78h-13.06c-1.91,3.75-3.01,7.98-3.09,12.45,4.17-2.82,9.43-4.54,15.17-4.64.19-2.74.51-5.36.98-7.8ZM45.09,15.78h-19.55c-.47,2.41-.81,5.05-1,7.88,4.51.32,8.68,1.65,12.19,3.71h9.53c-.08-4.26-.5-8.15-1.17-11.58ZM45.8,37.03c.25-2.18.42-4.48.46-6.91h-5.71c2.25,1.98,4.05,4.32,5.25,6.91ZM43.23,56.34c6.45-1.85,11.97-5.9,15.7-11.29h-11.44c-.1,4.17-1.65,8.05-4.26,11.29ZM42.72,37.03s0,0,0,0c-.3-.54-.64-1.07-1.01-1.59,0,0,0,0,0,0-.37-.51-.76-1.01-1.18-1.49,0,0,0,0,0-.01-.42-.48-.87-.94-1.35-1.38,0,0,0,0,0,0-.48-.44-.98-.87-1.51-1.27,0,0,0,0,0,0-2.24-1.71-4.91-3.05-7.85-3.91h0s0,0,0,0c-.41-.12-.82-.23-1.24-.32-.04,0-.07-.02-.11-.03-.41-.1-.83-.18-1.25-.26-.01,0-.02,0-.03,0-.9-.16-1.81-.28-2.74-.35h0c-.67-.05-1.35-.08-2.04-.08-.24,0-.47,0-.71.01h0s0,0,0,0c-1.17.03-2.32.13-3.44.31,0,0,0,0,0,0-1.12.17-2.21.41-3.27.72,0,0,0,0,0,0h0C6.24,29.87-.02,36.66-.02,44.62c0,3.28,1.1,6.51,3.18,9.36l.36.5-2.03,9.54,8.71-4.05.59.29c3.5,1.74,7.5,2.66,11.55,2.66,12.34,0,22.38-8.21,22.38-18.3,0-2.71-.73-5.27-2.02-7.58Z" fill="#1e1e1c"/>
</svg>