<?xml version="1.0" encoding="UTF-8"?>
<svg id="a" data-name="3219" xmlns="http://www.w3.org/2000/svg" viewBox="0 0 32 32">
  <path d="M13.16,6.4C14.19,2.45,15.9.03,17.5,0c0,0,.01,0,.02,0s.01,0,.02,0c1.6.02,3.31,2.44,4.34,6.39h-8.72ZM29.54,6.4c-1.87-2.77-4.68-4.85-7.97-5.81,1.01,1.44,1.83,3.43,2.4,5.81h5.57ZM21.57,28.31c3.17-.92,5.89-2.9,7.76-5.52h-5.43c-.57,2.25-1.36,4.13-2.32,5.52ZM24.82,13.45h7.13c-.12-1.79-.57-3.49-1.3-5.05h-6.29c.26,1.57.42,3.26.46,5.05ZM13.48.59c-3.29.96-6.1,3.04-7.97,5.81h5.57c.57-2.38,1.39-4.37,2.4-5.81ZM24.32,20.79h6.2c.8-1.63,1.31-3.43,1.44-5.34h-7.13c-.05,1.9-.22,3.69-.51,5.34ZM22.82,15.45h-2.04c.75.7,1.39,1.49,1.9,2.34.07-.75.12-1.53.14-2.34ZM10.69,8.4h-6.29c-.8,1.72-1.27,3.63-1.32,5.63,2.03-1.31,4.53-2.13,7.25-2.25.08-1.17.19-2.31.37-3.38ZM22.32,8.4h-9.6c-.19,1.06-.33,2.2-.41,3.41,2.07.17,3.99.76,5.66,1.64h4.85c-.05-1.82-.22-3.52-.5-5.05ZM17.47,15.45s0,0,0,0h0c-1.82-1.06-4.04-1.7-6.45-1.7s-4.63.63-6.45,1.7h0s0,0,0,0c-.24.14-.48.29-.7.44-.08.05-.15.11-.22.16-.15.11-.31.22-.45.34h0C1.19,18.01-.05,20.25-.05,22.71c0,1.59.54,3.17,1.56,4.56l.27.36-.93,4.37,4.01-1.86.43.21c1.74.86,3.72,1.31,5.74,1.31,6.1,0,11.07-4.02,11.07-8.96,0-2.99-1.82-5.64-4.61-7.27Z" fill="#1e1e1c"/>
</svg>