<?xml version="1.0" encoding="UTF-8"?>
<svg id="a" data-name="3219" xmlns="http://www.w3.org/2000/svg" viewBox="0 0 40 40">
  <path d="M20.01,25.25c3.94,0,7.15-3.21,7.15-7.15V7.15C27.16,3.21,23.95,0,20.01,0s-7.15,3.21-7.15,7.15v10.95c0,3.94,3.21,7.15,7.15,7.15ZM15.11,7.15c0-2.7,2.2-4.9,4.9-4.9s4.9,2.2,4.9,4.9v4.35h-9.8v-4.35ZM24.91,13.75v4.35c0,2.7-2.2,4.9-4.9,4.9s-4.9-2.2-4.9-4.9v-4.35h9.8ZM34.42,12.28v5.32c0,7.57-5.87,13.78-13.29,14.36v5.78h7.97v2.25H10.9v-2.25h7.97v-5.78c-7.42-.58-13.29-6.79-13.29-14.36v-5.32c0-.62.5-1.13,1.12-1.13s1.12.5,1.12,1.13v5.32c0,6.71,5.46,12.17,12.17,12.17s12.17-5.46,12.17-12.17v-5.32c0-.62.5-1.13,1.12-1.13s1.12.5,1.12,1.13Z" fill="#1e1e1c"/>
</svg>