<?xml version="1.0" encoding="UTF-8"?>
<svg id="a" data-name="3219" xmlns="http://www.w3.org/2000/svg" viewBox="0 0 32 32">
  <path d="M16,20.39c3.21,0,5.82-2.61,5.82-5.82V5.81C21.83,2.6,19.21,0,16,0s-5.82,2.61-5.82,5.82v8.76c0,3.21,2.61,5.82,5.82,5.82ZM12.18,5.81c0-2.11,1.71-3.82,3.82-3.82s3.82,1.71,3.82,3.82v3.38h-7.64v-3.38ZM19.83,11.19v3.38c0,2.11-1.71,3.82-3.82,3.82s-3.82-1.71-3.82-3.82v-3.38h7.64ZM27.63,9.72v4.25c0,6.08-4.69,11.07-10.63,11.58v4.43h6.38v2h-14.76v-2h6.38v-4.43c-5.95-.51-10.63-5.51-10.63-11.58v-4.25c0-.55.45-1,1-1s1,.45,1,1v4.25c0,5.31,4.32,9.63,9.63,9.63s9.63-4.32,9.63-9.63v-4.25c0-.55.45-1,1-1s1,.45,1,1Z" fill="#1e1e1c"/>
</svg>