<?xml version="1.0" encoding="UTF-8"?>
<svg id="a" data-name="3219" xmlns="http://www.w3.org/2000/svg" viewBox="0 0 32 32">
  <path d="M15.98,23.79c-2.24,0-4.06,1.82-4.06,4.13s1.82,4.06,4.06,4.06h.07c2.24,0,4.07-1.82,4.07-4.13s-1.82-4.06-4.13-4.06ZM16.05,29.99h-.07c-1.14,0-2.06-.93-2.06-2.13,0-1.14.93-2.06,2.13-2.06,1.14,0,2.07.93,2.07,2.13,0,1.14-.93,2.06-2.07,2.06ZM6.82,3.99l-1.5-1.5C8.63.87,12.23.02,15.96.02,21.69.02,27.12,2,31.64,5.74c.42.35.49.98.13,1.41-.2.24-.48.36-.77.36-.22,0-.45-.08-.64-.23-4.16-3.44-9.14-5.26-14.41-5.26-3.19,0-6.27.67-9.13,1.96ZM1.78,4.6l1.43,1.43c-.53.36-1.04.75-1.55,1.16-.43.35-1.06.29-1.41-.14-.35-.43-.29-1.06.14-1.41.45-.37.92-.71,1.38-1.04ZM26.43,13.64c-3.02-2.5-6.64-3.82-10.46-3.82-1.02,0-2.03.1-3.02.29l-1.68-1.68c1.52-.41,3.09-.61,4.7-.61,4.29,0,8.35,1.48,11.73,4.28.42.35.49.98.13,1.41-.2.24-.48.36-.77.36-.22,0-.45-.08-.64-.23ZM8.73,11.55c-1.1.55-2.15,1.22-3.13,2.02-.43.35-1.06.29-1.41-.14-.35-.43-.29-1.06.14-1.41.92-.75,1.9-1.4,2.91-1.96l1.48,1.48ZM14.99,17.81c-1.74.19-3.37.88-4.78,2.03-.43.35-1.06.29-1.41-.14-.35-.43-.29-1.06.14-1.41,1.3-1.06,2.77-1.8,4.33-2.2l1.72,1.72ZM19.01,16.18c1.47.42,2.84,1.14,4.07,2.16.42.35.49.98.13,1.41-.1.12-.23.21-.37.27l-3.84-3.84ZM32.01,30.58l-1.41,1.41L0,1.41,1.42,0l30.59,30.59Z" fill="#1e1e1c"/>
</svg>