<?xml version="1.0" encoding="UTF-8"?>
<svg id="a" data-name="3219" xmlns="http://www.w3.org/2000/svg" viewBox="0 0 64 64">
  <path d="M32.1,48.45h-.13c-4.21,0-7.64,3.42-7.64,7.63v.13c0,4.21,3.43,7.63,7.64,7.63h.13c4.21,0,7.64-3.42,7.64-7.63v-.13c0-4.21-3.43-7.63-7.64-7.63ZM36.99,56.21c0,2.69-2.19,4.88-4.89,4.88h-.13c-2.7,0-4.89-2.19-4.89-4.88v-.13c0-2.69,2.19-4.88,4.89-4.88h.13c2.7,0,4.89,2.19,4.89,4.88v.13ZM4.46,8.36l1.99,1.98c-1.42.93-2.81,1.94-4.16,3.04-.59.48-1.45.39-1.93-.2-.48-.59-.39-1.45.2-1.93,1.27-1.03,2.58-1.99,3.91-2.89ZM11.39,7.51l-2.05-2.05C16.31,1.83,23.96-.06,31.91-.06c11.56,0,22.5,3.98,31.62,11.52.59.48.67,1.35.18,1.93-.27.33-.67.5-1.06.5-.31,0-.62-.1-.87-.32C53.15,6.46,42.82,2.69,31.91,2.69c-7.2,0-14.15,1.65-20.52,4.81ZM17.83,21.71c-2.64,1.22-5.15,2.79-7.5,4.7-.59.48-1.45.39-1.93-.2-.48-.59-.39-1.45.2-1.93,2.26-1.84,4.66-3.38,7.18-4.63l2.06,2.05ZM53.73,26.56c-6.29-5.2-13.82-7.94-21.79-7.94-2.86,0-5.66.36-8.38,1.06l-2.23-2.23c3.41-1.04,6.97-1.57,10.61-1.57,8.61,0,16.75,2.97,23.54,8.57.59.48.67,1.35.18,1.93-.27.33-.67.5-1.06.5-.31,0-.62-.1-.87-.32ZM36.42,32.51c3.49.72,6.76,2.29,9.63,4.65.59.48.67,1.35.18,1.93-.27.33-.67.5-1.06.5-.31,0-.62-.1-.87-.32-1.05-.86-2.16-1.59-3.31-2.21l-4.56-4.56ZM30.97,34.83c-4.08.21-7.94,1.7-11.21,4.37-.59.48-1.45.39-1.93-.2-.48-.59-.39-1.45.2-1.93,3.09-2.52,6.66-4.13,10.45-4.74l2.5,2.5ZM1.96.04l62.05,61.96-1.94,1.94L.02,1.98,1.96.04Z" fill="#1e1e1c"/>
</svg>