<?xml version="1.0" encoding="UTF-8"?>
<svg id="a" data-name="3219" xmlns="http://www.w3.org/2000/svg" viewBox="0 0 24 24">
  <path d="M7.83,3.6l-2.36-2.36C7.53.44,9.72,0,11.97,0,16.18,0,20.15,1.45,23.47,4.19c.64.53.73,1.47.2,2.11-.3.36-.73.54-1.16.54-.34,0-.67-.11-.95-.34-2.77-2.29-6.09-3.5-9.59-3.5-1.42,0-2.8.21-4.13.6ZM.35,6.22c.48.59,1.32.71,1.95.32L.24,4.49c-.33.53-.31,1.23.11,1.73ZM9.87,5.64l2.86,2.86c2.21.16,4.29.99,6.06,2.46.28.23.62.34.95.34.43,0,.86-.19,1.16-.54.53-.64.44-1.58-.2-2.11-2.52-2.08-5.53-3.17-8.73-3.17-.71,0-1.41.06-2.11.17ZM3.9,8.14c-.2.14-.39.28-.58.44-.64.52-.74,1.47-.21,2.11.52.64,1.47.74,2.11.21.27-.22.55-.42.83-.61l-2.15-2.14ZM7.85,12.09c-.45.25-.89.54-1.3.88-.64.52-.74,1.47-.21,2.11.52.64,1.47.74,2.11.21.51-.42,1.08-.73,1.67-.93l-2.27-2.27ZM12.93,17.16c-.3-.08-.61-.14-.93-.14-1.93,0-3.5,1.57-3.5,3.49s1.57,3.49,3.5,3.49,3.5-1.57,3.5-3.49c0-.32-.06-.63-.14-.93l-2.43-2.42ZM2.13.02L.01,2.14l21.88,21.85,2.12-2.12L2.13.02Z" fill="#1e1e1c"/>
</svg>