<?xml version="1.0" encoding="UTF-8"?>
<svg id="a" data-name="3219" xmlns="http://www.w3.org/2000/svg" viewBox="0 0 64 64">
  <path d="M32.01,46.65c-4.73,0-8.58,3.84-8.58,8.6s3.85,8.57,8.58,8.57h.04c4.73,0,8.58-3.84,8.58-8.6s-3.85-8.57-8.62-8.57ZM32.05,58.83h-.04c-1.97,0-3.58-1.6-3.58-3.61s1.61-3.58,3.62-3.58,3.58,1.6,3.58,3.61-1.61,3.58-3.58,3.58ZM2.67,9.76l3.58,3.58c-.72.52-1.43,1.06-2.13,1.63-1.07.87-2.64.71-3.52-.35-.87-1.07-.71-2.64.36-3.51.56-.46,1.14-.91,1.71-1.34ZM15.29,8.25l-3.79-3.79C17.87,1.49,24.77-.06,31.91-.06c11.42,0,22.21,3.93,31.2,11.36,1.06.88,1.21,2.45.33,3.51-.5.6-1.21.9-1.93.9-.56,0-1.13-.19-1.59-.57-8.09-6.68-17.78-10.22-28.02-10.22-5.77,0-11.38,1.13-16.62,3.31ZM52.18,27.65c-5.85-4.83-12.84-7.38-20.24-7.38-1.45,0-2.89.1-4.31.3l-4.27-4.26c2.78-.68,5.65-1.03,8.58-1.03,8.57,0,16.67,2.95,23.43,8.53,1.06.88,1.21,2.45.33,3.51-.5.6-1.21.9-1.93.9-.56,0-1.13-.19-1.59-.57ZM17,24.07c-1.79.97-3.51,2.12-5.13,3.44-1.07.87-2.64.71-3.52-.35-.87-1.07-.71-2.64.36-3.51,1.48-1.21,3.03-2.28,4.63-3.24l3.67,3.66ZM39.12,32.04c2.57.87,4.98,2.21,7.17,4.01,1.06.87,1.21,2.43.35,3.49l-7.52-7.5ZM29.04,36.09c-2.93.51-5.69,1.77-8.1,3.73-1.07.87-2.64.71-3.52-.35-.87-1.07-.71-2.64.36-3.51,2.18-1.78,4.6-3.1,7.16-3.96l4.1,4.09ZM3.56.05l60.45,60.36-3.53,3.53L.02,3.58,3.56.05Z" fill="#1e1e1c"/>
</svg>