<?xml version="1.0" encoding="UTF-8"?>
<svg id="a" data-name="3219" xmlns="http://www.w3.org/2000/svg" viewBox="0 0 32 32">
  <path d="M9.48,4.54l-2.71-2.71C9.66.62,12.76-.03,15.96-.03,21.6-.03,26.93,1.91,31.38,5.59c.74.62.85,1.72.23,2.46-.35.42-.85.63-1.35.63-.39,0-.79-.13-1.11-.4-3.81-3.15-8.37-4.81-13.19-4.81-2.23,0-4.41.37-6.48,1.07ZM.41,7.94c.61.75,1.71.86,2.46.25.07-.06.14-.1.21-.16L.6,5.55c-.68.62-.78,1.67-.18,2.39ZM26.52,14.72c.5,0,1-.22,1.35-.63.62-.74.51-1.84-.23-2.46-3.36-2.78-7.4-4.24-11.66-4.24-1.13,0-2.24.11-3.33.31l3.19,3.19s.1,0,.14,0c3.44,0,6.71,1.19,9.43,3.44.33.27.72.4,1.11.4ZM5.66,10.61c-.43.29-.85.61-1.26.94-.75.61-.86,1.71-.25,2.46.61.75,1.71.86,2.46.25.51-.41,1.04-.78,1.58-1.12l-2.53-2.53ZM23.88,18.92c0-.51-.2-1.02-.63-1.37-.68-.56-1.4-1.02-2.16-1.41l2.78,2.78ZM11.09,16.03c-.81.39-1.58.88-2.3,1.46-.75.61-.86,1.71-.25,2.46.61.75,1.71.86,2.46.25.85-.69,1.79-1.18,2.79-1.48l-2.7-2.69ZM20.18,25.11c.33.64.53,1.35.53,2.11,0,2.6-2.1,4.7-4.68,4.7h-.03c-2.58,0-4.68-2.1-4.68-4.68s2.1-4.7,4.68-4.7c.78,0,1.5.2,2.15.54l2.03,2.03ZM17.21,27.25c0-.68-.53-1.21-1.18-1.21s-1.21.53-1.21,1.18.53,1.21,1.19,1.21h.03c.65,0,1.18-.53,1.18-1.18ZM.01,2.5l29.51,29.48,2.47-2.47L2.49.03.01,2.5Z" fill="#1e1e1c"/>
</svg>