<?xml version="1.0" encoding="UTF-8"?>
<svg id="a" data-name="3219" xmlns="http://www.w3.org/2000/svg" viewBox="0 0 16 16">
  <path d="M8.01,11.51c-1.24,0-2.25,1.01-2.25,2.25s1.01,2.25,2.25,2.25,2.25-1.01,2.25-2.25-1.01-2.25-2.25-2.25ZM8.01,14.5c-.41,0-.75-.34-.75-.75s.34-.75.75-.75.75.34.75.75-.34.75-.75.75ZM4.3,2.18l-1.15-1.15C4.67.36,6.29,0,7.98,0,10.82,0,13.5.99,15.74,2.84c.32.26.36.74.1,1.06-.15.18-.36.27-.58.27-.17,0-.34-.06-.48-.17-1.96-1.62-4.31-2.48-6.8-2.48-1.27,0-2.51.23-3.68.67ZM.5,2.62l1.07,1.07c-.11.09-.23.17-.34.26-.32.26-.79.22-1.06-.11-.26-.32-.21-.79.11-1.05.07-.06.15-.11.22-.16ZM12.88,7.07c-1.41-1.17-3.1-1.79-4.89-1.79-.19,0-.37.01-.56.02l-1.32-1.32c.61-.13,1.24-.2,1.88-.2,2.14,0,4.16.74,5.84,2.13.32.26.36.74.1,1.05-.15.18-.36.27-.58.27-.17,0-.34-.06-.48-.17ZM4.19,6.31c-.36.21-.72.45-1.05.73-.32.26-.79.21-1.06-.11-.26-.32-.21-.79.11-1.05.29-.24.6-.45.92-.65l1.09,1.09ZM10.25,8.13c.48.21.93.46,1.35.8.24.2.32.51.24.79l-1.59-1.59ZM7.12,9.24c-.63.13-1.23.4-1.75.83-.32.26-.79.21-1.06-.11-.26-.32-.21-.79.11-1.05.46-.38.97-.65,1.51-.86l1.19,1.19ZM16,14.94l-1.06,1.06L0,1.06,1.07,0l14.94,14.94Z" fill="#1e1e1c"/>
</svg>