<?xml version="1.0" encoding="UTF-8"?>
<svg id="a" data-name="3219" xmlns="http://www.w3.org/2000/svg" viewBox="0 0 48 48">
  <path d="M24,35.99c-3.27,0-5.93,2.66-5.93,5.97s2.66,5.92,5.93,5.92h.04c3.27,0,5.93-2.66,5.93-5.97s-2.66-5.92-5.97-5.92ZM24.04,45.38h-.04c-1.89,0-3.43-1.54-3.43-3.47s1.54-3.43,3.47-3.43,3.43,1.54,3.43,3.47-1.54,3.43-3.43,3.43ZM9.31,5.78l-1.87-1.87C12.55,1.32,18.13-.03,23.93-.03,32.57-.03,40.74,2.95,47.55,8.58c.53.44.61,1.23.17,1.76-.25.3-.6.45-.96.45-.28,0-.56-.09-.8-.29-6.36-5.25-13.97-8.03-22.02-8.03-5.12,0-10.06,1.13-14.62,3.3ZM3,6.55l1.8,1.8c-.93.62-1.84,1.29-2.72,2.01-.53.44-1.32.36-1.76-.18-.44-.53-.36-1.32.18-1.76.81-.66,1.65-1.29,2.5-1.87ZM13.22,16.75c-1.81.87-3.55,1.96-5.16,3.28-.54.44-1.32.36-1.76-.18-.44-.53-.36-1.32.18-1.76,1.54-1.26,3.18-2.31,4.89-3.2l1.86,1.85ZM39.98,20.14c-4.63-3.82-10.17-5.85-16.03-5.85-1.87,0-3.7.23-5.49.63l-2.06-2.06c2.43-.7,4.96-1.08,7.55-1.08,6.45,0,12.54,2.22,17.62,6.42.53.44.61,1.23.17,1.76-.25.3-.6.45-.96.45-.28,0-.56-.09-.8-.29ZM27.82,24.27c2.44.59,4.74,1.72,6.76,3.39.53.44.61,1.23.17,1.76-.25.3-.6.45-.97.45-.14,0-.29-.03-.43-.08l-5.54-5.53ZM22.83,26.35c-2.83.23-5.5,1.32-7.78,3.18-.54.44-1.32.35-1.76-.18-.44-.53-.36-1.32.18-1.76,2.14-1.74,4.57-2.89,7.16-3.43l2.19,2.19ZM48.01,46.21l-1.77,1.77L.01,1.79,1.78.03l46.23,46.18Z" fill="#1e1e1c"/>
</svg>