<?xml version="1.0" encoding="UTF-8"?>
<svg id="a" data-name="3219" xmlns="http://www.w3.org/2000/svg" viewBox="0 0 64 64">
  <path d="M62.3,19.14L44.31,1.59C43.25.55,41.85.04,40.36,0c-1.49.02-2.88.61-3.91,1.68l-6.81,6.98,6,5.85-11.91,12.21-16.88,3.59,12.46,12.16L-.02,62.08l1.96,1.93,19.33-19.61,13.24,12.92,3.18-16.96,11.91-12.21,6,5.85,6.81-6.98c1.04-1.06,1.6-2.47,1.58-3.95-.02-1.49-.61-2.88-1.68-3.91ZM32.75,51.75L12.44,31.94l11.54-2.46,5.47,5.34,5.47,5.34-2.17,11.6ZM36.38,37.74l-5.01-4.89-5.01-4.89,11.24-11.52,5.01,4.89,5.01,4.89-11.24,11.52ZM60.43,25.09l-4.89,5.01-4.03-3.93h0s-13.96-13.62-13.96-13.62h0s-4.03-3.93-4.03-3.93l4.89-5.01c1.08-1.11,2.87-1.13,3.98-.05l17.99,17.55c.54.53.84,1.23.85,1.98,0,.75-.28,1.46-.8,2Z" fill="#1e1e1c"/>
</svg>