<?xml version="1.0" encoding="UTF-8"?>
<svg id="a" data-name="3219" xmlns="http://www.w3.org/2000/svg" viewBox="0 0 40 40">
  <path d="M11.22,6.15v27.59c0,1.1-.9,2-2,2s-2-.9-2-2V6.15c0-1.1.9-2,2-2s2,.9,2,2ZM23.62.4c-1.11,0-2,.9-2,2v35.09c0,1.1.9,2,2,2s2-.9,2-2V2.4c0-1.1-.9-2-2-2ZM2.02,14.15C.92,14.15.02,15.04.02,16.15v6.97c0,1.1.9,2,2,2s2-.9,2-2v-6.97c0-1.1-.9-2-2-2ZM38.02,16.17c-1.11,0-2,.9-2,2v3.54c0,1.1.9,2,2,2s2-.9,2-2v-3.54c0-1.1-.9-2-2-2ZM16.42,9.17c-1.11,0-2,.9-2,2v17.54c0,1.1.9,2,2,2s2-.9,2-2V11.17c0-1.1-.9-2-2-2ZM30.82,9.17c-1.11,0-2,.9-2,2v17.54c0,1.1.9,2,2,2s2-.9,2-2V11.17c0-1.1-.9-2-2-2Z" fill="#1e1e1c"/>
</svg>