<?xml version="1.0" encoding="UTF-8"?>
<svg id="a" data-name="3219" xmlns="http://www.w3.org/2000/svg" viewBox="0 0 16 16">
  <path d="M4.43,2.46v11.04c0,.41-.34.75-.75.75s-.75-.34-.75-.75V2.46c0-.41.34-.75.75-.75s.75.34.75.75ZM9.48.71c-.41,0-.75.34-.75.75v13.04c0,.41.34.75.75.75s.75-.34.75-.75V1.46c0-.41-.34-.75-.75-.75ZM.78,4.72c-.41,0-.75.34-.75.75v5.02c0,.41.34.75.75.75s.75-.34.75-.75v-5.02c0-.41-.34-.75-.75-.75ZM15.28,5.72c-.41,0-.75.34-.75.75v3.02c0,.41.34.75.75.75s.75-.34.75-.75v-3.02c0-.41-.34-.75-.75-.75ZM6.58,3.72c-.41,0-.75.34-.75.75v7.02c0,.41.34.75.75.75s.75-.34.75-.75v-7.02c0-.41-.34-.75-.75-.75ZM12.38,3.72c-.41,0-.75.34-.75.75v7.02c0,.41.34.75.75.75s.75-.34.75-.75v-7.02c0-.41-.34-.75-.75-.75Z" fill="#1e1e1c"/>
</svg>