<?xml version="1.0" encoding="UTF-8"?>
<svg id="a" data-name="3219" xmlns="http://www.w3.org/2000/svg" viewBox="0 0 32 32">
  <path d="M9.28,4.96v22.07c0,.97-.78,1.75-1.75,1.75s-1.75-.78-1.75-1.75V4.96c0-.97.78-1.75,1.75-1.75s1.75.78,1.75,1.75ZM18.93.21c-.97,0-1.75.78-1.75,1.75v28.07c0,.97.78,1.75,1.75,1.75s1.75-.78,1.75-1.75V1.96c0-.97-.78-1.75-1.75-1.75ZM1.83,11.21c-.97,0-1.75.78-1.75,1.75v5.57c0,.97.78,1.75,1.75,1.75s1.75-.78,1.75-1.75v-5.57c0-.97-.78-1.75-1.75-1.75ZM30.33,12.23c-.97,0-1.75.78-1.75,1.75v4.04c0,.97.78,1.75,1.75,1.75s1.75-.78,1.75-1.75v-4.04c0-.97-.78-1.75-1.75-1.75ZM13.23,7.23c-.97,0-1.75.78-1.75,1.75v14.04c0,.97.78,1.75,1.75,1.75s1.75-.78,1.75-1.75v-14.04c0-.97-.78-1.75-1.75-1.75ZM24.63,7.23c-.97,0-1.75.78-1.75,1.75v14.04c0,.97.78,1.75,1.75,1.75s1.75-.78,1.75-1.75v-14.04c0-.97-.78-1.75-1.75-1.75Z" fill="#1e1e1c"/>
</svg>