<?xml version="1.0" encoding="UTF-8"?>
<svg id="a" data-name="3219" xmlns="http://www.w3.org/2000/svg" viewBox="0 0 48 48">
  <path d="M13.23,7.45v33.11c0,1.24-1.01,2.25-2.25,2.25s-2.25-1.01-2.25-2.25V7.45c0-1.24,1.01-2.25,2.25-2.25s2.25,1.01,2.25,2.25ZM28.38.7c-1.24,0-2.25,1.01-2.25,2.25v42.11c0,1.24,1.01,2.25,2.25,2.25s2.25-1.01,2.25-2.25V2.95c0-1.24-1.01-2.25-2.25-2.25ZM2.28,17.2C1.04,17.2.03,18.2.03,19.45v8.36c0,1.24,1.01,2.25,2.25,2.25s2.25-1.01,2.25-2.25v-8.36c0-1.24-1.01-2.25-2.25-2.25ZM45.78,19.22c-1.24,0-2.25,1.01-2.25,2.25v5.05c0,1.24,1.01,2.25,2.25,2.25s2.25-1.01,2.25-2.25v-5.05c0-1.24-1.01-2.25-2.25-2.25ZM19.68,11.22c-1.24,0-2.25,1.01-2.25,2.25v21.05c0,1.24,1.01,2.25,2.25,2.25s2.25-1.01,2.25-2.25V13.47c0-1.24-1.01-2.25-2.25-2.25ZM37.08,11.22c-1.24,0-2.25,1.01-2.25,2.25v21.05c0,1.24,1.01,2.25,2.25,2.25s2.25-1.01,2.25-2.25V13.47c0-1.24-1.01-2.25-2.25-2.25Z" fill="#1e1e1c"/>
</svg>