<?xml version="1.0" encoding="UTF-8"?>
<svg id="a" data-name="3219" xmlns="http://www.w3.org/2000/svg" viewBox="0 0 32 32">
  <path d="M31.28,19.2c-1.26,7.43-7.65,12.82-15.18,12.82-8.49,0-15.4-6.92-15.4-15.43S7.6,1.16,16.1,1.16c4.07,0,7.87,1.57,10.77,4.41V1.78c0-.97.78-1.75,1.75-1.75s1.75.78,1.75,1.75v9.73h-10.85c-.97,0-1.75-.78-1.75-1.75s.78-1.75,1.75-1.75h4.82c-2.25-2.15-5.14-3.33-8.23-3.33-6.56,0-11.9,5.35-11.9,11.92s5.34,11.92,11.9,11.92c5.82,0,10.76-4.17,11.73-9.91l3.45.59Z" fill="#1e1e1c"/>
</svg>