<?xml version="1.0" encoding="UTF-8"?>
<svg id="a" data-name="3219" xmlns="http://www.w3.org/2000/svg" viewBox="0 0 48 48">
  <path d="M46.94,28.77c-1.9,11.14-11.48,19.22-22.79,19.22-12.75,0-23.12-10.38-23.12-23.13S11.4,1.73,24.15,1.73c6.28,0,12.16,2.48,16.55,6.98l.33.32V2.24C41.03,1,42.04-.01,43.28-.01s2.25,1.01,2.25,2.25v14.43h-16.17c-1.24,0-2.25-1.01-2.25-2.25s1.01-2.25,2.25-2.25h8.44l-.29-.28c-3.58-3.66-8.31-5.66-13.37-5.66C13.88,6.23,5.52,14.59,5.52,24.86s8.35,18.63,18.62,18.63c9.11,0,16.83-6.51,18.36-15.48l4.44.76Z" fill="#1e1e1c"/>
</svg>