<?xml version="1.0" encoding="UTF-8"?>
<svg id="a" data-name="3219" xmlns="http://www.w3.org/2000/svg" viewBox="0 0 64 64">
  <g>
    <rect x="10.5" y="19.02" width="8" height="24.34" rx="4" ry="4" fill="#1e1e1c"/>
    <path d="M14.5,45.85c-3.58,0-6.5-2.92-6.5-6.5v-16.34c0-3.58,2.92-6.5,6.5-6.5s6.5,2.92,6.5,6.5v16.34c0,3.58-2.92,6.5-6.5,6.5ZM14.5,21.52c-.83,0-1.5.67-1.5,1.5v16.34c0,.83.67,1.5,1.5,1.5s1.5-.67,1.5-1.5v-16.34c0-.83-.67-1.5-1.5-1.5Z" fill="#1e1e1c"/>
  </g>
  <path d="M14.5,54.7C6.51,54.7.01,48.2.01,40.21v-4.8c0-1.38,1.12-2.5,2.5-2.5s2.5,1.12,2.5,2.5v4.8c0,5.23,4.26,9.49,9.49,9.49s9.49-4.26,9.49-9.49v-4.8c0-1.38,1.12-2.5,2.5-2.5s2.5,1.12,2.5,2.5v4.8c0,7.99-6.5,14.49-14.49,14.49Z" fill="#1e1e1c"/>
  <rect x="12" y="49.7" width="5" height="14.31" fill="#1e1e1c"/>
  <rect x="4.81" y="59.01" width="19.39" height="5" fill="#1e1e1c"/>
  <g>
    <path d="M37.98,27.96l4.91,6.58,4.91-6.58h11.35c1.92,0,3.47-1.55,3.47-3.47V4.86c0-1.92-1.55-3.47-3.47-3.47h-27.75c-1.92,0-3.47,1.55-3.47,3.47v19.64c0,1.92,1.55,3.47,3.47,3.47h6.59Z" fill="#1e1e1c"/>
    <path d="M42.88,36.84l-5.6-7.51h-5.9c-2.67,0-4.84-2.17-4.84-4.84V4.86C26.55,2.19,28.72.01,31.39.01h27.75c2.67,0,4.84,2.17,4.84,4.84v19.64c0,2.67-2.17,4.84-4.84,4.84h-10.66l-5.6,7.51ZM31.39,2.76c-1.15,0-2.09.94-2.09,2.09v19.64c0,1.15.94,2.09,2.09,2.09h7.28l4.22,5.66,4.22-5.66h12.04c1.15,0,2.09-.94,2.09-2.09V4.86c0-1.15-.94-2.09-2.09-2.09h-27.75Z" fill="#1e1e1c"/>
  </g>
  <path d="M52.58,11.42h-16.13c-.83,0-1.5-.67-1.5-1.5s.67-1.5,1.5-1.5h16.13c.83,0,1.5.67,1.5,1.5s-.67,1.5-1.5,1.5Z" fill="#fff"/>
  <path d="M46.24,19.8h-9.79c-.83,0-1.5-.67-1.5-1.5s.67-1.5,1.5-1.5h9.79c.83,0,1.5.67,1.5,1.5s-.67,1.5-1.5,1.5Z" fill="#fff"/>
</svg>