<?xml version="1.0" encoding="UTF-8"?>
<svg id="a" data-name="3219" xmlns="http://www.w3.org/2000/svg" viewBox="0 0 48 48">
  <g>
    <rect x="8.91" y="15.2" width="4.5" height="16" rx="2.25" ry="2.25" fill="#1e1e1c"/>
    <path d="M11.16,33.45c-2.48,0-4.5-2.02-4.5-4.5v-11.5c0-2.48,2.02-4.5,4.5-4.5s4.5,2.02,4.5,4.5v11.5c0,2.48-2.02,4.5-4.5,4.5ZM11.16,17.45v11.5s0-11.5,0-11.5Z" fill="#1e1e1c"/>
  </g>
  <path d="M11.16,41.07C5,41.07,0,36.06,0,29.91v-3.57c0-1.24,1.01-2.25,2.25-2.25s2.25,1.01,2.25,2.25v3.57c0,3.67,2.99,6.66,6.67,6.66s6.66-2.99,6.66-6.66v-3.57c0-1.24,1.01-2.25,2.25-2.25s2.25,1.01,2.25,2.25v3.57c0,6.16-5.01,11.16-11.16,11.16Z" fill="#1e1e1c"/>
  <rect x="8.91" y="36.57" width="4.5" height="11.42" fill="#1e1e1c"/>
  <rect x="3.56" y="43.49" width="15.2" height="4.5" fill="#1e1e1c"/>
  <g>
    <path d="M28.43,21.02l3.65,4.89,3.65-4.89h8.44c1.42,0,2.58-1.15,2.58-2.58V3.84c0-1.42-1.15-2.58-2.58-2.58h-20.63c-1.42,0-2.58,1.15-2.58,2.58v14.6c0,1.42,1.15,2.58,2.58,2.58h4.9Z" fill="#1e1e1c"/>
    <path d="M32.07,28.01l-4.27-5.74h-4.27c-2.11,0-3.83-1.72-3.83-3.83V3.84C19.7,1.73,21.42.02,23.53.02h20.63c2.11,0,3.83,1.72,3.83,3.83v14.6c0,2.11-1.72,3.83-3.83,3.83h-7.81l-4.27,5.74ZM23.53,2.52c-.73,0-1.33.6-1.33,1.33v14.6c0,.73.6,1.33,1.33,1.33h5.52l3.02,4.05,3.02-4.05h9.07c.73,0,1.33-.6,1.33-1.33V3.84c0-.73-.6-1.33-1.33-1.33h-20.63Z" fill="#1e1e1c"/>
  </g>
  <path d="M39.28,9.33h-11.25c-.69,0-1.25-.56-1.25-1.25s.56-1.25,1.25-1.25h11.25c.69,0,1.25.56,1.25,1.25s-.56,1.25-1.25,1.25Z" fill="#fff"/>
  <path d="M34.57,14.72h-6.53c-.69,0-1.25-.56-1.25-1.25s.56-1.25,1.25-1.25h6.53c.69,0,1.25.56,1.25,1.25s-.56,1.25-1.25,1.25Z" fill="#fff"/>
</svg>