<?xml version="1.0" encoding="UTF-8"?>
<svg id="a" data-name="3219" xmlns="http://www.w3.org/2000/svg" viewBox="0 0 64 64">
  <path d="M13.38,45.84c3.67,0,6.65-2.98,6.65-6.65v-13.8c0-3.67-2.98-6.65-6.65-6.65s-6.65,2.98-6.65,6.65v13.8c0,3.67,2.98,6.65,6.65,6.65ZM9.48,25.39c0-2.15,1.75-3.9,3.9-3.9s3.9,1.75,3.9,3.9v5.52h-7.8v-5.52ZM17.29,33.66v5.52c0,2.15-1.75,3.9-3.9,3.9s-3.9-1.75-3.9-3.9v-5.52h7.8ZM26.76,36.52v4.8c0,6.91-5.27,12.61-12,13.3v6.63h7.2v2.75H4.81v-2.75h7.2v-6.63C5.28,53.93,0,48.23,0,41.32v-4.8c0-.76.62-1.38,1.38-1.38s1.38.62,1.38,1.38v4.8c0,5.86,4.77,10.62,10.62,10.62s10.62-4.76,10.62-10.62v-4.8c0-.76.62-1.38,1.38-1.38s1.38.62,1.38,1.38ZM59.16,0h-27.77C28.72,0,26.54,2.17,26.54,4.84v19.64c0,2.67,2.17,4.85,4.85,4.85h5.9l5.6,7.51,5.6-7.51h10.67c2.67,0,4.85-2.17,4.85-4.85V4.84C64.01,2.17,61.83,0,59.16,0ZM61.26,24.49c0,1.15-.94,2.09-2.09,2.09h-12.05l-4.22,5.66-4.22-5.66h-7.28c-1.16,0-2.09-.94-2.09-2.09V4.84c0-1.15.94-2.09,2.09-2.09h27.77c1.16,0,2.09.94,2.09,2.09v19.64ZM53.97,10.54c0,.76-.62,1.38-1.38,1.38h-15.14c-.76,0-1.38-.62-1.38-1.38s.62-1.38,1.38-1.38h15.14c.76,0,1.38.62,1.38,1.38ZM47.63,17.79c0,.76-.62,1.38-1.38,1.38h-8.79c-.76,0-1.38-.62-1.38-1.38s.62-1.38,1.38-1.38h8.79c.76,0,1.38.62,1.38,1.38Z" fill="#1e1e1c"/>
</svg>