<?xml version="1.0" encoding="UTF-8"?>
<svg id="a" data-name="3219" xmlns="http://www.w3.org/2000/svg" viewBox="0 0 24 24">
  <path d="M6.19,15.82c-1.24,0-2.25-1.01-2.25-2.25v-5.5c0-1.24,1.01-2.25,2.25-2.25s2.25,1.01,2.25,2.25v5.5c0,1.24-1.01,2.25-2.25,2.25Z" fill="#1e1e1c"/>
  <path d="M6.2,20.29C2.78,20.29,0,17.51,0,14.09v-1.41c0-.83.67-1.5,1.5-1.5s1.5.67,1.5,1.5v1.41c0,1.76,1.43,3.19,3.19,3.19s3.19-1.43,3.19-3.19v-1.41c0-.83.67-1.5,1.5-1.5s1.5.67,1.5,1.5v1.41c0,3.42-2.78,6.19-6.19,6.19Z" fill="#1e1e1c"/>
  <rect x="4.69" y="18.53" width="3" height="5.46" fill="#1e1e1c"/>
  <rect x="2.23" y="20.99" width="7.92" height="3" fill="#1e1e1c"/>
  <g>
    <path d="M14.68,10.02l1.66,2.4,1.66-2.4h3.84c.7,0,1.26-.56,1.26-1.26V2.11c0-.7-.56-1.26-1.26-1.26h-9.68c-.7,0-1.26.56-1.26,1.26v6.65c0,.7.56,1.26,1.26,1.26h2.53Z" fill="#1e1e1c"/>
    <path d="M16.33,13.95l-2.12-3.06h-2.07c-1.18,0-2.14-.96-2.14-2.14V2.11C10.01.93,10.97-.03,12.15-.03h9.68c1.18,0,2.14.96,2.14,2.14v6.65c0,1.18-.96,2.14-2.14,2.14h-3.39l-2.12,3.06ZM12.15,1.72c-.21,0-.39.17-.39.39v6.65c0,.21.17.39.39.39h2.99l1.2,1.73,1.2-1.73h4.3c.21,0,.39-.17.39-.39V2.11c0-.21-.17-.39-.39-.39h-9.68Z" fill="#1e1e1c"/>
  </g>
  <path d="M19.06,4.56h-4.84c-.48,0-.88-.39-.88-.88s.39-.88.88-.88h4.84c.48,0,.88.39.88.88s-.39.88-.88.88Z" fill="#fff"/>
  <path d="M16.75,7.83h-2.54c-.48,0-.88-.39-.88-.88s.39-.88.88-.88h2.54c.48,0,.88.39.88.88s-.39.88-.88.88Z" fill="#fff"/>
</svg>