<?xml version="1.0" encoding="UTF-8"?>
<svg id="a" data-name="3219" xmlns="http://www.w3.org/2000/svg" viewBox="0 0 40 40">
  <g>
    <rect x="8.02" y="10.93" width="4.5" height="15" rx="2.25" ry="2.25" fill="#1e1e1c"/>
    <path d="M10.27,27.93c-2.34,0-4.25-1.91-4.25-4.25v-10.5c0-2.34,1.91-4.25,4.25-4.25s4.25,1.91,4.25,4.25v10.5c0,2.34-1.91,4.25-4.25,4.25ZM10.27,12.93c-.14,0-.25.11-.25.25v10.5c0,.28.5.28.5,0v-10.5c0-.14-.11-.25-.25-.25Z" fill="#1e1e1c"/>
  </g>
  <path d="M10.27,34.2C4.63,34.2.03,29.61.03,23.96v-2.79c0-1.1.9-2,2-2s2,.9,2,2v2.79c0,3.44,2.8,6.24,6.24,6.24s6.24-2.8,6.24-6.24v-2.79c0-1.1.9-2,2-2s2,.9,2,2v2.79c0,5.65-4.59,10.24-10.24,10.24Z" fill="#1e1e1c"/>
  <rect x="8.27" y="30.2" width="4" height="9.74" fill="#1e1e1c"/>
  <rect x="3.84" y="35.94" width="12.87" height="4" fill="#1e1e1c"/>
  <g>
    <path d="M24.41,16.67l2.88,3.86,2.88-3.86h6.66c1.12,0,2.04-.91,2.04-2.04V3.11c0-1.12-.91-2.04-2.04-2.04h-16.29c-1.12,0-2.04.91-2.04,2.04v11.53c0,1.12.91,2.04,2.04,2.04h3.87Z" fill="#1e1e1c"/>
    <path d="M27.29,22.42l-3.44-4.62h-3.3c-1.74,0-3.16-1.42-3.16-3.16V3.11c0-1.74,1.42-3.16,3.16-3.16h16.29c1.74,0,3.16,1.42,3.16,3.16v11.53c0,1.74-1.42,3.16-3.16,3.16h-6.1l-3.44,4.62ZM20.55,2.2c-.5,0-.91.41-.91.91v11.53c0,.5.41.91.91.91h4.43l2.31,3.11,2.32-3.11h7.23c.5,0,.91-.41.91-.91V3.11c0-.5-.41-.91-.91-.91h-16.29Z" fill="#1e1e1c"/>
  </g>
  <path d="M32.98,7.58h-8.88c-.62,0-1.12-.5-1.12-1.12s.5-1.12,1.12-1.12h8.88c.62,0,1.12.5,1.12,1.12s-.5,1.12-1.12,1.12Z" fill="#fff"/>
  <path d="M29.26,12.23h-5.16c-.62,0-1.12-.5-1.12-1.12s.5-1.12,1.12-1.12h5.16c.62,0,1.12.5,1.12,1.12s-.5,1.12-1.12,1.12Z" fill="#fff"/>
</svg>