<?xml version="1.0" encoding="UTF-8"?>
<svg id="a" data-name="3219" xmlns="http://www.w3.org/2000/svg" viewBox="0 0 32 32">
  <path d="M6.87,22.87c1.79,0,3.25-1.46,3.25-3.25v-7.01c0-1.79-1.46-3.25-3.25-3.25s-3.25,1.46-3.25,3.25v7.01c0,1.79,1.46,3.25,3.25,3.25ZM6.87,20.87c-.69,0-1.25-.56-1.25-1.25v-2.5h2.5v2.5c0,.69-.56,1.25-1.25,1.25ZM6.87,11.36c.69,0,1.25.56,1.25,1.25v2.5h-2.5v-2.5c0-.69.56-1.25,1.25-1.25ZM13.74,18.19v2.35c0,3.45-2.56,6.31-5.87,6.8v2.64h3.52v2H2.35v-2h3.52v-2.64C2.55,26.86,0,24,0,20.54v-2.35c0-.55.45-1,1-1s1,.45,1,1v2.35c0,2.69,2.19,4.88,4.87,4.88s4.87-2.19,4.87-4.88v-2.35c0-.55.45-1,1-1s1,.45,1,1ZM29.3-.01h-13.59c-1.49,0-2.7,1.21-2.7,2.7v9.63c0,1.49,1.21,2.7,2.7,2.7h2.72l2.9,3.9,2.91-3.9h5.06c1.49,0,2.7-1.21,2.7-2.7V2.69C32,1.2,30.79-.01,29.3-.01ZM30,12.32c0,.39-.31.7-.7.7h-6.06l-1.9,2.55-1.9-2.55h-3.73c-.39,0-.7-.31-.7-.7V2.69c0-.39.31-.7.7-.7h13.59c.39,0,.7.31.7.7v9.63ZM27.08,5.48c0,.55-.45,1-1,1h-7.41c-.55,0-1-.45-1-1s.45-1,1-1h7.41c.55,0,1,.45,1,1ZM23.98,9.37c0,.55-.45,1-1,1h-4.3c-.55,0-1-.45-1-1s.45-1,1-1h4.3c.55,0,1,.45,1,1Z" fill="#1e1e1c"/>
</svg>