<?xml version="1.0" encoding="UTF-8"?>
<svg id="a" data-name="3219" xmlns="http://www.w3.org/2000/svg" viewBox="0 0 48 48">
  <path d="M10.15,34.54c2.85,0,5.17-2.32,5.17-5.17v-10.25c0-2.85-2.32-5.17-5.17-5.17s-5.17,2.32-5.17,5.17v10.25c0,2.85,2.32,5.17,5.17,5.17ZM7.48,19.12c0-1.47,1.2-2.67,2.67-2.67s2.67,1.2,2.67,2.67v3.87h-5.34v-3.87ZM12.82,25.49v3.88c0,1.47-1.2,2.67-2.67,2.67s-2.67-1.2-2.67-2.67v-3.88h5.34ZM20.32,27.38v3.57c0,5.18-3.9,9.46-8.92,10.08v4.5h5.35v2.5H3.55v-2.5h5.35v-4.5C3.89,40.41-.01,36.13-.01,30.95v-3.57c0-.69.56-1.25,1.25-1.25s1.25.56,1.25,1.25v3.57c0,4.22,3.44,7.66,7.66,7.66s7.67-3.44,7.67-7.66v-3.57c0-.69.56-1.25,1.25-1.25s1.25.56,1.25,1.25ZM44.16.03h-20.63c-2.11,0-3.83,1.72-3.83,3.83v14.59c0,2.11,1.72,3.83,3.83,3.83h4.27l4.27,5.73,4.27-5.73h7.81c2.11,0,3.83-1.72,3.83-3.83V3.86c0-2.11-1.72-3.83-3.83-3.83ZM45.49,18.45c0,.73-.6,1.33-1.33,1.33h-9.07l-3.02,4.05-3.02-4.05h-5.52c-.73,0-1.33-.6-1.33-1.33V3.86c0-.73.6-1.33,1.33-1.33h20.63c.73,0,1.33.6,1.33,1.33v14.59ZM40.53,8.09c0,.69-.56,1.25-1.25,1.25h-11.25c-.69,0-1.25-.56-1.25-1.25s.56-1.25,1.25-1.25h11.25c.69,0,1.25.56,1.25,1.25ZM35.82,13.48c0,.69-.56,1.25-1.25,1.25h-6.53c-.69,0-1.25-.56-1.25-1.25s.56-1.25,1.25-1.25h6.53c.69,0,1.25.56,1.25,1.25Z" fill="#1e1e1c"/>
</svg>