<?xml version="1.0" encoding="UTF-8"?>
<svg id="a" data-name="3219" xmlns="http://www.w3.org/2000/svg" viewBox="0 0 24 24">
  <path d="M5.2,16.95h.08c1.31,0,2.38-1.06,2.38-2.37v-5c0-1.31-1.07-2.37-2.45-2.37-1.31,0-2.38,1.06-2.38,2.37v5c0,1.31,1.07,2.37,2.38,2.37ZM4.57,9.58c0-.34.28-.62.7-.62.35,0,.63.28.63.62v1.62h-1.33v-1.62ZM5.9,12.95v1.62c0,.34-.28.62-.63.62h-.08c-.35,0-.63-.28-.63-.62v-1.62h1.33ZM10.48,13.61v1.74c0,2.59-1.89,4.73-4.37,5.15v1.72h2.62v1.75H1.74v-1.75h2.62v-1.72C1.89,20.09,0,17.95,0,15.36v-1.74c0-.48.39-.87.88-.87s.88.39.88.87v1.74c0,1.92,1.57,3.49,3.49,3.49s3.49-1.56,3.49-3.49v-1.74c0-.48.39-.87.88-.87s.88.39.88.87ZM21.85-.02h-9.7c-1.18,0-2.14.96-2.14,2.14v7.14c0,1.18.96,2.14,2.14,2.14h1.64l2.55,2.83,2.55-2.83h2.96c1.18,0,2.14-.96,2.14-2.14V2.12C23.99.94,23.03-.02,21.85-.02ZM22.24,9.26c0,.21-.17.39-.39.39h-3.74l-1.77,1.96-1.77-1.96h-2.42c-.21,0-.39-.17-.39-.39V2.12c0-.21.17-.39.39-.39h9.7c.21,0,.39.17.39.39v7.14ZM20.33,4.19c0,.48-.39.87-.88.87h-4.85c-.48,0-.88-.39-.88-.87s.39-.87.88-.87h4.85c.48,0,.88.39.88.87ZM18.02,7.07c0,.48-.39.87-.88.87h-2.54c-.48,0-.88-.39-.88-.87s.39-.87.88-.87h2.54c.48,0,.88.39.88.87Z" fill="#1e1e1c"/>
</svg>