<?xml version="1.0" encoding="UTF-8"?>
<svg id="a" data-name="3219" xmlns="http://www.w3.org/2000/svg" viewBox="0 0 24 24">
  <path d="M19.18,15.91c-1.75,0-3.22,1.12-3.78,2.68h-2.51V1.76h11.09s0-1.76,0-1.76h-12.83v18.84L.6,22.29c-.46.15-.71.65-.56,1.1.12.37.46.6.83.6.09,0,.18-.01.27-.04l11.02-3.61h3.03c.2,2.04,1.9,3.64,3.99,3.64s3.79-1.6,3.99-3.64h.8v-1.75h-1.01c-.56-1.56-2.03-2.68-3.78-2.68ZM19.18,22.24c-1.26,0-2.28-1.03-2.28-2.29s1.02-2.29,2.28-2.29,2.28,1.03,2.28,2.29-1.02,2.29-2.28,2.29ZM18.5,6.39v4.23h5.49v1.75h-7.24v-7.73h7.24v1.75h-5.49ZM6.71,11.03H0v-1.75h6.72l-2.39-2.39c-.34-.34-.34-.9,0-1.24s.89-.34,1.24,0l4.49,4.5-4.49,4.5c-.17.17-.4.26-.62.26s-.45-.09-.62-.26c-.34-.34-.34-.9,0-1.24l2.39-2.39Z" fill="#1e1e1c"/>
</svg>