<?xml version="1.0" encoding="UTF-8"?>
<svg id="a" data-name="3219" xmlns="http://www.w3.org/2000/svg" viewBox="0 0 64 64">
  <path d="M51.29,42.19c-4.62,0-8.55,2.94-10.09,7.06h-6.23V5.01l29.02-.02V-.02S29.98,0,29.98,0v49.93L1.79,59.09c-1.31.43-2.03,1.84-1.61,3.15.34,1.06,1.32,1.73,2.38,1.73.26,0,.52-.04.77-.12l29.54-9.59h7.7c.59,5.44,5.17,9.69,10.72,9.69s10.13-4.25,10.72-9.69h1.97v-5h-2.6c-1.54-4.12-5.48-7.06-10.09-7.06ZM51.29,58.95c-3.2,0-5.8-2.64-5.8-5.88s2.6-5.87,5.8-5.87,5.8,2.64,5.8,5.87-2.6,5.88-5.8,5.88ZM49.7,17.3v10.84h14.28v5h-19.28V12.29h19.28v5h-14.28ZM18.38,29.12H-.01v-5h18.39l-5.7-5.75c-.97-.98-.97-2.57.01-3.54.98-.97,2.56-.96,3.53.01l11.66,11.78-11.66,11.78c-.49.49-1.13.74-1.77.74s-1.27-.24-1.76-.73c-.98-.97-.99-2.56-.01-3.54l5.7-5.75Z" fill="#1e1e1c"/>
</svg>