<?xml version="1.0" encoding="UTF-8"?>
<svg id="a" data-name="3219" xmlns="http://www.w3.org/2000/svg" viewBox="0 0 48 48">
  <path d="M14.88,27.45h6.34v6.28h-6.34v-6.28ZM48.02,0v48H.02V0h48ZM32.97,4.58h10.45v11.09h2.5V2.08h-12.95v2.5ZM27.57,21.11h6.32v6.32h6.34v-6.34h-6.32v-6.26h6.32v-6.34h-6.34v6.28h-6.32v6.34ZM21.21,14.83h6.34v-6.34h-6.34v6.34ZM2.07,15.03h2.5V4.58h11.09v-2.5H2.07v12.95ZM14.97,43.5H4.52v-11.09h-2.5v13.59h12.95v-2.5ZM27.55,33.76v6.31h12.68v-6.34h-12.68v-6.31h-6.34v-6.31h-6.34v-12.62h-6.34v12.62h6.34v6.31h-6.34v12.65h12.68v-6.31h6.34ZM45.98,33h-2.5v10.45h-11.09v2.5h13.59v-12.95Z" fill="#1d1d1b"/>
</svg>