<?xml version="1.0" encoding="UTF-8"?>
<svg id="a" data-name="3219" xmlns="http://www.w3.org/2000/svg" viewBox="0 0 48 48">
  <path d="M2.52,16.05H.02V0h16.61v2.5H2.52v13.54ZM45.52,16.63h2.5V.03h-16.05v2.5h13.55v14.1ZM45.52,31.97v13.54h-14.11v2.5h16.61v-16.04h-2.5ZM2.52,31.39H.02v16.6h16.05v-2.5H2.52v-14.1ZM26.68,40.57v-4.67h-4.7v4.67H7.9v-4.69h4.7v-4.65h-4.7v-9.36h4.7v-4.65h-4.7v-4.69h4.7v-4.67h4.7v4.69h-4.7v4.65h9.39V7.86h4.7v4.67h4.7v-4.67h4.7v4.67h4.7v9.36h-4.7v-4.67h-4.7v9.32h4.7v4.67h4.7v9.36h-14.09ZM31.38,31.23v4.65h4.7v-4.65h-4.7ZM26.68,26.54v4.67h4.7v-4.66h-4.69s-.01,0-.01,0ZM12.59,26.54h4.7v-4.65h-4.7v4.65ZM21.99,26.56h-4.7v9.32h4.7v-9.32ZM26.68,21.87v-4.65h-4.7v4.65h4.7Z" fill="#1e1e1c"/>
</svg>