<?xml version="1.0" encoding="UTF-8"?>
<svg id="a" data-name="3219" xmlns="http://www.w3.org/2000/svg" viewBox="0 0 32 32">
  <path d="M2.02,10.77H.02V0h11.15V2H2.02v8.78ZM21.24.02v2h8.78v9.15h2V.02h-10.78ZM30.01,29.97h-9.15v2h11.15v-10.78h-2v8.78ZM2.03,20.84H.02v11.15h10.78v-2H2.03v-9.15ZM17.78,26.97v-3.09h-3.1v3.09H5.37v-3.1h3.1v-3.07h-3.1v-6.19h3.1v-3.07h-3.1v-3.1h3.1v-3.09h3.1v3.1h-3.1v3.07h6.21v-6.18h3.1v3.09h3.1v-3.09h3.1v3.09h3.1v6.19h-3.1v-3.09h-3.1v6.16h3.1v3.09h3.1v6.19h-9.31ZM20.88,20.79v3.07h3.1v-3.07h-3.1ZM17.78,17.69v3.09h3.1v-3.08h-3.1s0,0,0,0ZM8.47,17.69h3.1v-3.07h-3.1v3.07ZM14.68,17.71h-3.1v6.16h3.1v-6.16ZM17.78,14.6v-3.07h-3.1v3.07h3.1Z" fill="#1e1e1c"/>
</svg>