<?xml version="1.0" encoding="UTF-8"?>
<svg id="a" data-name="3219" xmlns="http://www.w3.org/2000/svg" viewBox="0 0 64 64">
  <path d="M.02,0V64h64V0H.02ZM36.76,19.69h8.43v-8.37h8.45v8.45h-8.43v8.35h8.43v8.45h-8.45v-8.43h-8.43v-8.45ZM28.28,11.32h8.45v8.45h-8.45v-8.45ZM3.03,3.21h17.83v2.75H5.78v14.22h-2.75V3.21ZM20.01,61.01H3.04v-17.83h2.75v15.08h14.22v2.75ZM28.28,45v8.41H11.38v-16.86h8.45v-8.41h-8.45V11.32s8.45,0,8.45,0v16.83h8.45v8.41h8.45v8.41h16.9v8.45h-16.9v-8.41h-8.45ZM61.02,61.01h-17.83v-2.75h15.08v-14.22h2.75v16.97ZM61.02,20.85h-2.75V5.77h-14.22v-2.75h16.97v17.83Z" fill="#1d1d1b"/>
  <rect x="19.83" y="36.59" width="8.45" height="8.37" fill="#1d1d1b"/>
</svg>