<?xml version="1.0" encoding="UTF-8"?>
<svg id="a" data-name="3219" xmlns="http://www.w3.org/2000/svg" viewBox="0 0 16 16">
  <path d="M5.87,8.83h1.5v1.49h-1.5v-1.49ZM16.02,0v16H.02V0h16ZM9.53,2.5h3.98v4.16h1.5V1h-5.48v1.5ZM8.87,7.33h1.5v1.5h1.5v-1.5h-1.5v-1.48h1.5v-1.5h-1.5v1.49h-1.5v1.5ZM7.37,5.84h1.5v-1.5h-1.5v1.5ZM.99,6.5h1.5v-3.98h4.16v-1.5H.99v5.48ZM6.47,13.5h-3.98v-4.16H.99v5.66h5.48v-1.5ZM8.87,10.32v1.49h3v-1.5h-3v-1.49h-1.5v-1.49h-1.5v-2.99h-1.5v2.99h1.5v1.49h-1.5v2.99h3v-1.49h1.5ZM15.01,9.52h-1.5v3.98h-4.16v1.5h5.66v-5.48Z" fill="#1d1d1b"/>
</svg>